500 0 14 0           
7 Unknown 11 ACIS 5.0 NT 24 Thu Mar 25 23:39:24 1999 
-1 9.9999999999999995e-007 1e-010 
body $-1 $14 $-1 $15 #
body $-1 $16 $-1 $17 #
body $-1 $18 $-1 $19 #
body $-1 $20 $-1 $21 #
body $-1 $22 $-1 $23 #
body $-1 $24 $-1 $25 #
body $-1 $26 $-1 $27 #
body $-1 $28 $-1 $29 #
body $-1 $30 $-1 $31 #
body $-1 $32 $-1 $33 #
body $-1 $34 $-1 $35 #
body $-1 $36 $-1 $37 #
body $-1 $38 $-1 $39 #
body $-1 $40 $-1 $41 #
lump $-1 $-1 $42 $0 #
transform $-1 1 0 0 0 1 0 0 0 1 55.570543534653766 33.943363769300859 14.850364085438592 1 rotate no_reflect no_shear #
lump $-1 $-1 $43 $1 #
transform $-1 1 0 0 0 1 0 0 0 1 55.570543534653766 33.943363769300859 14.850364085438592 1 rotate no_reflect no_shear #
lump $-1 $-1 $44 $2 #
transform $-1 1 0 0 0 1 0 0 0 1 55.570543534653766 33.943363769300859 14.850364085438592 1 rotate no_reflect no_shear #
lump $-1 $-1 $45 $3 #
transform $-1 1 0 0 0 1 0 0 0 1 55.570543534653766 33.943363769300859 14.850364085438592 1 rotate no_reflect no_shear #
lump $-1 $-1 $46 $4 #
transform $-1 1 0 0 0 1 0 0 0 1 55.570543534653766 33.943363769300859 14.850364085438592 1 rotate no_reflect no_shear #
lump $-1 $-1 $47 $5 #
transform $-1 1 0 0 0 1 0 0 0 1 55.570543534653766 33.943363769300859 14.850364085438592 1 rotate no_reflect no_shear #
lump $-1 $-1 $48 $6 #
transform $-1 1 0 0 0 1 0 0 0 1 55.570543534653766 33.943363769300859 14.850364085438592 1 rotate no_reflect no_shear #
lump $-1 $-1 $49 $7 #
transform $-1 1 0 0 0 1 0 0 0 1 55.570543534653766 33.943363769300859 14.850364085438592 1 rotate no_reflect no_shear #
lump $-1 $-1 $50 $8 #
transform $-1 1 0 0 0 1 0 0 0 1 55.570543534653766 33.943363769300859 14.850364085438592 1 rotate no_reflect no_shear #
lump $-1 $-1 $51 $9 #
transform $-1 1 0 0 0 1 0 0 0 1 55.570543534653766 33.943363769300859 14.850364085438592 1 rotate no_reflect no_shear #
lump $-1 $-1 $52 $10 #
transform $-1 1 0 0 0 1 0 0 0 1 55.570543534653766 33.943363769300859 14.850364085438592 1 rotate no_reflect no_shear #
lump $-1 $-1 $53 $11 #
transform $-1 1 0 0 0 1 0 0 0 1 55.570543534653766 33.943363769300859 14.850364085438592 1 rotate no_reflect no_shear #
lump $-1 $-1 $54 $12 #
transform $-1 1 0 0 0 1 0 0 0 1 55.570543534653766 33.943363769300859 14.850364085438592 1 rotate no_reflect no_shear #
lump $-1 $-1 $55 $13 #
transform $-1 1 0 0 0 1 0 0 0 1 55.570543534653766 33.943363769300859 14.850364085438592 1 rotate no_reflect no_shear #
shell $-1 $-1 $-1 $56 $-1 $14 #
shell $-1 $-1 $-1 $57 $-1 $16 #
shell $-1 $-1 $-1 $58 $-1 $18 #
shell $-1 $-1 $-1 $59 $-1 $20 #
shell $-1 $-1 $-1 $60 $-1 $22 #
shell $-1 $-1 $-1 $61 $-1 $24 #
shell $-1 $-1 $-1 $62 $-1 $26 #
shell $-1 $-1 $-1 $63 $-1 $28 #
shell $-1 $-1 $-1 $64 $-1 $30 #
shell $-1 $-1 $-1 $65 $-1 $32 #
shell $-1 $-1 $-1 $66 $-1 $34 #
shell $-1 $-1 $-1 $67 $-1 $36 #
shell $-1 $-1 $-1 $68 $-1 $38 #
shell $-1 $-1 $-1 $69 $-1 $40 #
face $-1 $70 $71 $42 $-1 $72 reversed single #
face $-1 $73 $74 $43 $-1 $75 forward single #
face $-1 $76 $77 $44 $-1 $78 reversed single #
face $-1 $79 $80 $45 $-1 $81 forward single #
face $-1 $82 $83 $46 $-1 $84 forward single #
face $-1 $85 $86 $47 $-1 $87 forward single #
face $-1 $88 $89 $48 $-1 $90 reversed single #
face $-1 $91 $92 $49 $-1 $93 forward single #
face $-1 $94 $95 $50 $-1 $96 forward single #
face $-1 $97 $98 $51 $-1 $99 forward single #
face $-1 $100 $101 $52 $-1 $102 reversed single #
face $-1 $103 $104 $53 $-1 $105 forward single #
face $-1 $106 $107 $54 $-1 $108 forward single #
face $-1 $109 $110 $55 $-1 $111 forward single #
face $-1 $112 $113 $42 $-1 $114 forward single #
loop $-1 $-1 $115 $56 #
plane-surface $-1 0 -33.943363769300859 0 0 1 0 0 0 1 forward_v I I I I #
face $-1 $116 $117 $43 $-1 $118 reversed single #
loop $-1 $-1 $119 $57 #
plane-surface $-1 0 -33.943363769300859 0 0 1 0 0 0 1 forward_v I I I I #
face $-1 $120 $121 $44 $-1 $122 reversed single #
loop $-1 $-1 $123 $58 #
plane-surface $-1 -134.15916078163411 -18.87702652485244 83.579098959044302 0 1 0 -0.70710678939079041 0 0.70710677298230451 forward_v I I I I #
face $-1 $124 $125 $45 $-1 $126 forward single #
loop $-1 $127 $128 $59 #
cone-surface $-1 -49.656681119826629 -16.364611564843191 8.9365015790437088 0.70710678939079041 0 -0.70710677298230451 0.70710677298230451 0 0.70710678939079041 1 I I 0 1 1 forward I I I I #
face $-1 $129 $130 $46 $-1 $131 forward single #
loop $-1 $132 $133 $60 #
cone-surface $-1 -49.656681119826629 -12.595989124829313 8.9365015790437088 0.70710678939079041 0 -0.70710677298230451 0.70710677298230451 0 0.70710678939079041 1 I I 0 1 1 forward I I I I #
face $-1 $134 $135 $47 $-1 $136 forward single #
loop $-1 $137 $138 $61 #
cone-surface $-1 -49.656681119826629 -8.8273666848154342 8.9365015790437088 0.70710678939079041 0 -0.70710677298230451 0.70710677298230451 0 0.70710678939079041 1 I I 0 1 1 forward I I I I #
face $-1 $139 $140 $48 $-1 $141 reversed single #
loop $-1 $-1 $142 $62 #
plane-surface $-1 22.891560640238723 -9.6527964848490146 165.10683246695962 0 -1 0 -0.54463904215088732 0 -0.83867056331134215 forward_v I I I I #
face $-1 $143 $144 $49 $-1 $145 forward single #
loop $-1 $146 $147 $63 #
cone-surface $-1 52.614189445345971 -17.032180516851756 12.687996342299874 -0.54463904215088732 0 -0.83867056331134215 0.41933528165567108 0 -0.27231952107544366 1 I I 0 1 0.5 forward I I I I #
face $-1 $148 $149 $50 $-1 $150 forward single #
loop $-1 $151 $152 $64 #
cone-surface $-1 52.614189445345971 -14.264911504850726 12.687996342299874 -0.54463904215088732 0 -0.83867056331134215 0.41933528165567108 0 -0.27231952107544366 1 I I 0 1 0.5 forward I I I I #
face $-1 $153 $154 $51 $-1 $155 forward single #
loop $-1 $156 $157 $65 #
cone-surface $-1 52.614189445345971 -11.497642492849696 12.687996342299874 -0.54463904215088732 0 -0.83867056331134215 0.41933528165567108 0 -0.27231952107544366 1 I I 0 1 0.5 forward I I I I #
face $-1 $158 $159 $52 $-1 $160 reversed single #
loop $-1 $-1 $161 $66 #
plane-surface $-1 22.891560640238723 16.757398662227637 165.10683246695962 0 -1 0 -0.54463904215088732 0 -0.83867056331134215 forward_v I I I I #
face $-1 $162 $163 $53 $-1 $164 forward single #
loop $-1 $165 $166 $67 #
cone-surface $-1 52.614189445345971 9.3780146302248895 12.687996342299874 -0.54463904215088732 0 -0.83867056331134215 0.41933528165567108 0 -0.27231952107544366 1 I I 0 1 0.5 forward I I I I #
face $-1 $167 $168 $54 $-1 $169 forward single #
loop $-1 $170 $171 $68 #
cone-surface $-1 52.614189445345971 12.14528364222592 12.687996342299874 -0.54463904215088732 0 -0.83867056331134215 0.41933528165567108 0 -0.27231952107544366 1 I I 0 1 0.5 forward I I I I #
face $-1 $172 $173 $55 $-1 $174 forward single #
loop $-1 $175 $176 $69 #
cone-surface $-1 52.614189445345971 14.91255265422695 12.687996342299874 -0.54463904215088732 0 -0.83867056331134215 0.41933528165567108 0 -0.27231952107544366 1 I I 0 1 0.5 forward I I I I #
face $-1 $177 $178 $42 $-1 $179 reversed single #
loop $-1 $-1 $180 $70 #
plane-surface $-1 0 0 14.850364085438592 0 0 1 1 0 0 forward_v I I I I #
coedge $-1 $181 $182 $183 $184 reversed $71 $-1 #
face $-1 $185 $186 $43 $-1 $187 reversed single #
loop $-1 $-1 $188 $73 #
plane-surface $-1 0 0 -14.850364085438592 0 0 1 1 0 0 forward_v I I I I #
coedge $-1 $189 $190 $191 $192 forward $74 $-1 #
face $-1 $193 $194 $44 $-1 $195 reversed single #
loop $-1 $-1 $196 $76 #
plane-surface $-1 -55.57054353465378 -12.595989124829309 4.9904835357209265 -0.70710678939079041 0 0.70710677298230451 0.70710677298230451 0 0.70710678939079041 forward_v I I I I #
coedge $-1 $197 $198 $199 $200 reversed $77 $-1 #
face $-1 $-1 $201 $45 $-1 $202 forward single #
loop $-1 $203 $204 $79 #
cone-surface $-1 -48.319205470763173 -16.364611564843191 7.5990259610165083 0.70710678939079041 0 -0.70710677298230451 0.35355338649115226 0 0.35355339469539521 1 I I -0.70710678118654746 0.70710678118654746 0.5 forward I I I I #
loop $-1 $-1 $205 $59 #
coedge $-1 $128 $128 $206 $207 reversed $80 $-1 #
face $-1 $-1 $208 $46 $-1 $209 forward single #
loop $-1 $210 $211 $82 #
cone-surface $-1 -48.319205470763173 -12.595989124829313 7.5990259610165083 0.70710678939079041 0 -0.70710677298230451 0.35355338649115226 0 0.35355339469539521 1 I I -0.70710678118654746 0.70710678118654746 0.5 forward I I I I #
loop $-1 $-1 $212 $60 #
coedge $-1 $133 $133 $213 $214 reversed $83 $-1 #
face $-1 $-1 $215 $47 $-1 $216 forward single #
loop $-1 $217 $218 $85 #
cone-surface $-1 -48.319205470763173 -8.8273666848154342 7.5990259610165083 0.70710678939079041 0 -0.70710677298230451 0.35355338649115226 0 0.35355339469539521 1 I I -0.70710678118654746 0.70710678118654746 0.5 forward I I I I #
loop $-1 $-1 $219 $61 #
coedge $-1 $138 $138 $220 $221 reversed $86 $-1 #
face $-1 $222 $223 $48 $-1 $224 reversed single #
loop $-1 $-1 $225 $88 #
plane-surface $-1 -37.640214564797297 -14.26491150485073 71.896074367508547 0.54463904215088732 0 0.83867056331134215 0.83867056331134215 0 -0.54463904215088732 forward_v I I I I #
coedge $-1 $226 $227 $228 $229 reversed $89 $-1 #
face $-1 $-1 $230 $49 $-1 $231 forward single #
loop $-1 $232 $233 $91 #
cone-surface $-1 52.205710163732803 -17.032180516851756 12.058993419816368 -0.54463904215088732 0 -0.83867056331134215 0.20966764082783554 0 -0.13615976053772183 1 I I -0.70710678118654746 0.70710678118654746 0.25 forward I I I I #
loop $-1 $-1 $234 $63 #
coedge $-1 $147 $147 $235 $236 reversed $92 $-1 #
face $-1 $-1 $237 $50 $-1 $238 forward single #
loop $-1 $239 $240 $94 #
cone-surface $-1 52.205710163732803 -14.264911504850726 12.058993419816368 -0.54463904215088732 0 -0.83867056331134215 0.20966764082783554 0 -0.13615976053772183 1 I I -0.70710678118654746 0.70710678118654746 0.25 forward I I I I #
loop $-1 $-1 $241 $64 #
coedge $-1 $152 $152 $242 $243 reversed $95 $-1 #
face $-1 $-1 $244 $51 $-1 $245 forward single #
loop $-1 $246 $247 $97 #
cone-surface $-1 52.205710163732803 -11.497642492849696 12.058993419816368 -0.54463904215088732 0 -0.83867056331134215 0.20966764082783554 0 -0.13615976053772183 1 I I -0.70710678118654746 0.70710678118654746 0.25 forward I I I I #
loop $-1 $-1 $248 $65 #
coedge $-1 $157 $157 $249 $250 reversed $98 $-1 #
face $-1 $251 $252 $52 $-1 $253 reversed single #
loop $-1 $-1 $254 $100 #
plane-surface $-1 -37.640214564797297 12.14528364222592 71.896074367508547 0.54463904215088732 0 0.83867056331134215 0.83867056331134215 0 -0.54463904215088732 forward_v I I I I #
coedge $-1 $255 $256 $257 $258 reversed $101 $-1 #
face $-1 $-1 $259 $53 $-1 $260 forward single #
loop $-1 $261 $262 $103 #
cone-surface $-1 52.205710163732803 9.3780146302248895 12.058993419816368 -0.54463904215088732 0 -0.83867056331134215 0.20966764082783554 0 -0.13615976053772183 1 I I -0.70710678118654746 0.70710678118654746 0.25 forward I I I I #
loop $-1 $-1 $263 $67 #
coedge $-1 $166 $166 $264 $265 reversed $104 $-1 #
face $-1 $-1 $266 $54 $-1 $267 forward single #
loop $-1 $268 $269 $106 #
cone-surface $-1 52.205710163732803 12.14528364222592 12.058993419816368 -0.54463904215088732 0 -0.83867056331134215 0.20966764082783554 0 -0.13615976053772183 1 I I -0.70710678118654746 0.70710678118654746 0.25 forward I I I I #
loop $-1 $-1 $270 $68 #
coedge $-1 $171 $171 $271 $272 reversed $107 $-1 #
face $-1 $-1 $273 $55 $-1 $274 forward single #
loop $-1 $275 $276 $109 #
cone-surface $-1 52.205710163732803 14.91255265422695 12.058993419816368 -0.54463904215088732 0 -0.83867056331134215 0.20966764082783554 0 -0.13615976053772183 1 I I -0.70710678118654746 0.70710678118654746 0.25 forward I I I I #
loop $-1 $-1 $277 $69 #
coedge $-1 $176 $176 $278 $279 reversed $110 $-1 #
face $-1 $280 $281 $42 $-1 $282 reversed single #
loop $-1 $-1 $283 $112 #
plane-surface $-1 0 0 -14.850364085438592 0 0 1 1 0 0 forward_v I I I I #
coedge $-1 $284 $285 $286 $287 forward $113 $-1 #
coedge $-1 $288 $115 $289 $290 reversed $71 $-1 #
coedge $-1 $115 $288 $291 $292 forward $71 $-1 #
coedge $-1 $293 $283 $115 $184 forward $178 $-1 #
edge $-1 $294 -55.570543534653766 $295 55.570543534653766 $115 $296 forward 7 unknown #
face $-1 $297 $298 $43 $-1 $299 reversed single #
loop $-1 $-1 $300 $116 #
plane-surface $-1 -29.706176446117084 -49.009701013749279 0 0 1 0 0 0 1 forward_v I I I I #
coedge $-1 $301 $302 $190 $303 forward $117 $-1 #
coedge $-1 $304 $119 $305 $306 reversed $74 $-1 #
coedge $-1 $119 $304 $188 $303 reversed $74 $-1 #
coedge $-1 $307 $308 $119 $192 reversed $298 $-1 #
edge $-1 $309 -14.850364085438592 $310 14.850364085438592 $191 $311 forward 7 unknown #
face $-1 $312 $313 $44 $-1 $314 reversed single #
loop $-1 $-1 $315 $120 #
plane-surface $-1 -134.15916078163411 -6.3149517248061766 83.579098959044302 0 -1 0 0.70710678939079041 0 -0.70710677298230451 forward_v I I I I #
coedge $-1 $316 $317 $318 $319 reversed $121 $-1 #
coedge $-1 $198 $123 $320 $321 reversed $77 $-1 #
coedge $-1 $123 $197 $316 $322 reversed $77 $-1 #
coedge $-1 $318 $323 $123 $200 forward $324 $-1 #
edge $-1 $325 11.509036856163291 $326 21.3689171770814 $199 $327 forward 7 unknown #
loop $-1 $-1 $206 $124 #
plane-surface $-1 -55.57054353465378 -12.595989124829309 4.9904835357209265 -0.70710678939079041 0 0.70710677298230451 0.70710677298230451 0 0.70710678939079041 forward_v I I I I #
loop $-1 $-1 $328 $79 #
coedge $-1 $204 $204 $205 $329 reversed $125 $-1 #
coedge $-1 $205 $205 $204 $329 forward $127 $-1 #
coedge $-1 $206 $206 $128 $207 forward $201 $-1 #
edge $-1 $330 0 $330 6.2831853071796004 $206 $331 forward 7 unknown #
loop $-1 $-1 $213 $129 #
plane-surface $-1 -55.57054353465378 -12.595989124829309 4.9904835357209265 -0.70710678939079041 0 0.70710677298230451 0.70710677298230451 0 0.70710678939079041 forward_v I I I I #
loop $-1 $-1 $332 $82 #
coedge $-1 $211 $211 $212 $333 reversed $130 $-1 #
coedge $-1 $212 $212 $211 $333 forward $132 $-1 #
coedge $-1 $213 $213 $133 $214 forward $208 $-1 #
edge $-1 $334 0 $334 6.2831853071796004 $213 $335 forward 7 unknown #
loop $-1 $-1 $220 $134 #
plane-surface $-1 -55.57054353465378 -12.595989124829309 4.9904835357209265 -0.70710678939079041 0 0.70710677298230451 0.70710677298230451 0 0.70710678939079041 forward_v I I I I #
loop $-1 $-1 $336 $85 #
coedge $-1 $218 $218 $219 $337 reversed $135 $-1 #
coedge $-1 $219 $219 $218 $337 forward $137 $-1 #
coedge $-1 $220 $220 $138 $221 forward $215 $-1 #
edge $-1 $338 0 $338 6.2831853071796004 $220 $339 forward 7 unknown #
face $-1 $340 $341 $48 $-1 $342 forward single #
loop $-1 $-1 $343 $139 #
plane-surface $-1 22.891560640238723 -18.877026524852447 165.10683246695962 0 1 0 0.54463904215088732 0 0.83867056331134215 forward_v I I I I #
coedge $-1 $344 $345 $346 $347 reversed $140 $-1 #
coedge $-1 $227 $142 $348 $349 reversed $89 $-1 #
coedge $-1 $142 $226 $344 $350 reversed $89 $-1 #
coedge $-1 $346 $351 $142 $229 forward $341 $-1 #
edge $-1 $352 -44.124763214534404 $353 -38.756694078069742 $228 $354 forward 7 unknown #
loop $-1 $-1 $235 $143 #
plane-surface $-1 -37.640214564797297 -14.26491150485073 71.896074367508547 0.54463904215088732 0 0.83867056331134215 0.83867056331134215 0 -0.54463904215088732 forward_v I I I I #
loop $-1 $-1 $355 $91 #
coedge $-1 $233 $233 $234 $356 reversed $144 $-1 #
coedge $-1 $234 $234 $233 $356 forward $146 $-1 #
coedge $-1 $235 $235 $147 $236 forward $230 $-1 #
edge $-1 $357 0 $357 6.2831853071796004 $235 $358 forward 7 unknown #
loop $-1 $-1 $242 $148 #
plane-surface $-1 -37.640214564797297 -14.26491150485073 71.896074367508547 0.54463904215088732 0 0.83867056331134215 0.83867056331134215 0 -0.54463904215088732 forward_v I I I I #
loop $-1 $-1 $359 $94 #
coedge $-1 $240 $240 $241 $360 reversed $149 $-1 #
coedge $-1 $241 $241 $240 $360 forward $151 $-1 #
coedge $-1 $242 $242 $152 $243 forward $237 $-1 #
edge $-1 $361 0 $361 6.2831853071796004 $242 $362 forward 7 unknown #
loop $-1 $-1 $249 $153 #
plane-surface $-1 -37.640214564797297 -14.26491150485073 71.896074367508547 0.54463904215088732 0 0.83867056331134215 0.83867056331134215 0 -0.54463904215088732 forward_v I I I I #
loop $-1 $-1 $363 $97 #
coedge $-1 $247 $247 $248 $364 reversed $154 $-1 #
coedge $-1 $248 $248 $247 $364 forward $156 $-1 #
coedge $-1 $249 $249 $157 $250 forward $244 $-1 #
edge $-1 $365 0 $365 6.2831853071796004 $249 $366 forward 7 unknown #
face $-1 $367 $368 $52 $-1 $369 reversed single #
loop $-1 $-1 $370 $158 #
plane-surface $-1 22.891560640238723 7.5331686222242045 165.10683246695962 0 1 0 0.54463904215088732 0 0.83867056331134215 forward_v I I I I #
coedge $-1 $371 $372 $373 $374 reversed $159 $-1 #
coedge $-1 $256 $161 $375 $376 reversed $101 $-1 #
coedge $-1 $161 $255 $371 $377 reversed $101 $-1 #
coedge $-1 $373 $378 $161 $258 forward $379 $-1 #
edge $-1 $380 -44.124763214534404 $381 -38.756694078069742 $257 $382 forward 7 unknown #
loop $-1 $-1 $264 $162 #
plane-surface $-1 -37.640214564797297 12.14528364222592 71.896074367508547 0.54463904215088732 0 0.83867056331134215 0.83867056331134215 0 -0.54463904215088732 forward_v I I I I #
loop $-1 $-1 $383 $103 #
coedge $-1 $262 $262 $263 $384 reversed $163 $-1 #
coedge $-1 $263 $263 $262 $384 forward $165 $-1 #
coedge $-1 $264 $264 $166 $265 forward $259 $-1 #
edge $-1 $385 0 $385 6.2831853071796004 $264 $386 forward 7 unknown #
loop $-1 $-1 $271 $167 #
plane-surface $-1 -37.640214564797297 12.14528364222592 71.896074367508547 0.54463904215088732 0 0.83867056331134215 0.83867056331134215 0 -0.54463904215088732 forward_v I I I I #
loop $-1 $-1 $387 $106 #
coedge $-1 $269 $269 $270 $388 reversed $168 $-1 #
coedge $-1 $270 $270 $269 $388 forward $170 $-1 #
coedge $-1 $271 $271 $171 $272 forward $266 $-1 #
edge $-1 $389 0 $389 6.2831853071796004 $271 $390 forward 7 unknown #
loop $-1 $-1 $278 $172 #
plane-surface $-1 -37.640214564797297 12.14528364222592 71.896074367508547 0.54463904215088732 0 0.83867056331134215 0.83867056331134215 0 -0.54463904215088732 forward_v I I I I #
loop $-1 $-1 $391 $109 #
coedge $-1 $276 $276 $277 $392 reversed $173 $-1 #
coedge $-1 $277 $277 $276 $392 forward $175 $-1 #
coedge $-1 $278 $278 $176 $279 forward $273 $-1 #
edge $-1 $393 0 $393 6.2831853071796004 $278 $394 forward 7 unknown #
face $-1 $395 $396 $42 $-1 $397 reversed single #
loop $-1 $-1 $398 $177 #
plane-surface $-1 -55.570543534653766 0 0 1 0 0 0 0 -1 forward_v I I I I #
coedge $-1 $183 $399 $400 $401 forward $178 $-1 #
coedge $-1 $402 $180 $403 $404 forward $113 $-1 #
coedge $-1 $180 $402 $288 $405 forward $113 $-1 #
coedge $-1 $289 $406 $180 $287 reversed $407 $-1 #
edge $-1 $408 -33.943363769300859 $409 33.943363769300859 $286 $410 forward 7 unknown #
coedge $-1 $182 $181 $285 $405 reversed $71 $-1 #
coedge $-1 $400 $286 $181 $290 forward $407 $-1 #
edge $-1 $408 -14.850364085438592 $294 14.850364085438592 $289 $411 forward 7 unknown #
coedge $-1 $412 $413 $182 $292 reversed $281 $-1 #
edge $-1 $414 -14.850364085438592 $295 14.850364085438592 $291 $415 forward 7 unknown #
coedge $-1 $399 $183 $413 $416 forward $178 $-1 #
vertex $-1 $290 $417 #
vertex $-1 $416 $418 #
straight-curve $-1 0 -33.943363769300859 -14.850364085438592 -1 0 0 I I #
face $-1 $419 $420 $43 $-1 $421 reversed single #
loop $-1 $-1 $191 $185 #
plane-surface $-1 -32.449598453575362 -41.476532391525069 0 1 0 0 0 0 -1 forward_v I I I I #
coedge $-1 $422 $423 $424 $425 forward $186 $-1 #
coedge $-1 $426 $188 $427 $428 forward $117 $-1 #
coedge $-1 $188 $426 $307 $429 forward $117 $-1 #
edge $-1 $309 -32.449598453575362 $430 -26.962754438658806 $188 $431 forward 7 unknown #
coedge $-1 $190 $189 $432 $433 forward $74 $-1 #
coedge $-1 $434 $435 $189 $306 forward $436 $-1 #
edge $-1 $437 26.962754438658806 $310 32.449598453575362 $305 $438 forward 7 unknown #
coedge $-1 $424 $191 $302 $429 reversed $298 $-1 #
coedge $-1 $191 $424 $434 $439 reversed $298 $-1 #
vertex $-1 $303 $440 #
vertex $-1 $439 $441 #
straight-curve $-1 -32.449598453575362 -33.943363769300859 0 0 0 1 I I #
face $-1 $-1 $324 $44 $-1 $442 forward single #
loop $-1 $-1 $443 $193 #
plane-surface $-1 -55.570543534653766 0 0 1 0 0 0 0 -1 forward_v I I I I #
coedge $-1 $444 $445 $446 $447 reversed $194 $-1 #
coedge $-1 $448 $196 $198 $322 forward $121 $-1 #
coedge $-1 $196 $448 $444 $449 forward $121 $-1 #
coedge $-1 $446 $199 $196 $319 forward $324 $-1 #
edge $-1 $326 -12.579031962437785 $450 -0.016957162391522118 $318 $451 forward 7 unknown #
coedge $-1 $452 $453 $197 $321 forward $313 $-1 #
edge $-1 $454 -36.79906594380121 $325 -26.939185394083559 $320 $455 forward 7 unknown #
edge $-1 $326 -13.943976635003706 $454 -2.0097183471152325e-014 $198 $456 forward 7 unknown #
coedge $-1 $199 $446 $452 $457 forward $324 $-1 #
loop $-1 $-1 $446 $312 #
vertex $-1 $321 $458 #
vertex $-1 $200 $459 #
straight-curve $-1 -67.079580390817057 -18.87702652485244 14.850364085438592 1 0 0 I I #
coedge $-1 $328 $328 $-1 $460 reversed $203 $-1 #
edge $-1 $461 0 $461 6.2831853071796004 $204 $462 forward 7 unknown #
vertex $-1 $207 $463 #
ellipse-curve $-1 -50.640603374194711 -16.364611564843191 9.92042381057977 -0.70710678939079041 0 0.70710677298230451 0.70710677298230451 0 0.70710678939079041 1 I I #
coedge $-1 $332 $332 $-1 $464 reversed $210 $-1 #
edge $-1 $465 0 $465 6.2831853071796004 $211 $466 forward 7 unknown #
vertex $-1 $214 $467 #
ellipse-curve $-1 -50.640603374194711 -12.595989124829313 9.92042381057977 -0.70710678939079041 0 0.70710677298230451 0.70710677298230451 0 0.70710678939079041 1 I I #
coedge $-1 $336 $336 $-1 $468 reversed $217 $-1 #
edge $-1 $469 0 $469 6.2831853071796004 $218 $470 forward 7 unknown #
vertex $-1 $221 $471 #
ellipse-curve $-1 -50.640603374194711 -8.8273666848154342 9.92042381057977 -0.70710678939079041 0 0.70710677298230451 0.70710677298230451 0 0.70710678939079041 1 I I #
face $-1 $-1 $472 $48 $-1 $473 reversed single #
loop $-1 $-1 $228 $222 #
plane-surface $-1 0 0 14.850364085438592 0 0 1 1 0 0 forward_v I I I I #
coedge $-1 $474 $475 $476 $477 reversed $223 $-1 #
coedge $-1 $478 $225 $227 $350 forward $140 $-1 #
coedge $-1 $225 $478 $474 $479 forward $140 $-1 #
coedge $-1 $476 $228 $225 $347 forward $341 $-1 #
edge $-1 $353 2.5203407324236498 $480 11.744570772427082 $346 $481 forward 7 unknown #
coedge $-1 $482 $483 $226 $349 forward $472 $-1 #
edge $-1 $484 -71.189117071007274 $352 -67.703052148041223 $348 $485 forward 7 unknown #
edge $-1 $353 104.74039844221443 $484 111.1410870693075 $227 $486 forward 7 unknown #
coedge $-1 $228 $476 $482 $487 forward $341 $-1 #
vertex $-1 $229 $488 #
vertex $-1 $229 $489 #
straight-curve $-1 11.445780320119361 -9.6527964848490146 14.850364085438599 -1 0 0 I I #
coedge $-1 $355 $355 $-1 $490 reversed $232 $-1 #
edge $-1 $491 0 $491 6.2831853071796004 $233 $492 forward 7 unknown #
vertex $-1 $236 $493 #
ellipse-curve $-1 52.886508966421424 -17.032180516851756 13.107331623955563 0.54463904215088732 0 0.83867056331134215 0.41933528165567108 0 -0.27231952107544366 1 I I #
coedge $-1 $359 $359 $-1 $494 reversed $239 $-1 #
edge $-1 $495 0 $495 6.2831853071796004 $240 $496 forward 7 unknown #
vertex $-1 $243 $497 #
ellipse-curve $-1 52.886508966421424 -14.264911504850726 13.107331623955563 0.54463904215088732 0 0.83867056331134215 0.41933528165567108 0 -0.27231952107544366 1 I I #
coedge $-1 $363 $363 $-1 $498 reversed $246 $-1 #
edge $-1 $499 0 $499 6.2831853071796004 $247 $500 forward 7 unknown #
vertex $-1 $250 $501 #
ellipse-curve $-1 52.886508966421424 -11.497642492849696 13.107331623955563 0.54463904215088732 0 0.83867056331134215 0.41933528165567108 0 -0.27231952107544366 1 I I #
face $-1 $-1 $379 $52 $-1 $502 forward single #
loop $-1 $-1 $503 $251 #
plane-surface $-1 55.570543534653766 0 0 -1 0 0 0 0 1 forward_v I I I I #
coedge $-1 $504 $505 $506 $507 reversed $252 $-1 #
coedge $-1 $508 $254 $256 $377 forward $159 $-1 #
coedge $-1 $254 $508 $504 $509 forward $159 $-1 #
coedge $-1 $506 $257 $254 $374 forward $379 $-1 #
edge $-1 $381 -10.684756841114677 $510 -1.4605268011112447 $373 $511 forward 7 unknown #
coedge $-1 $512 $513 $255 $376 forward $368 $-1 #
edge $-1 $514 -71.189117071007274 $380 -67.703052148041223 $375 $515 forward 7 unknown #
edge $-1 $381 104.74039844221443 $514 111.1410870693075 $256 $516 forward 7 unknown #
coedge $-1 $257 $506 $512 $517 forward $379 $-1 #
loop $-1 $-1 $506 $367 #
vertex $-1 $376 $518 #
vertex $-1 $258 $519 #
straight-curve $-1 11.445780320119361 16.757398662227637 14.850364085438599 -1 0 0 I I #
coedge $-1 $383 $383 $-1 $520 reversed $261 $-1 #
edge $-1 $521 0 $521 6.2831853071796004 $262 $522 forward 7 unknown #
vertex $-1 $265 $523 #
ellipse-curve $-1 52.886508966421424 9.3780146302248895 13.107331623955563 0.54463904215088732 0 0.83867056331134215 0.41933528165567108 0 -0.27231952107544366 1 I I #
coedge $-1 $387 $387 $-1 $524 reversed $268 $-1 #
edge $-1 $525 0 $525 6.2831853071796004 $269 $526 forward 7 unknown #
vertex $-1 $272 $527 #
ellipse-curve $-1 52.886508966421424 12.14528364222592 13.107331623955563 0.54463904215088732 0 0.83867056331134215 0.41933528165567108 0 -0.27231952107544366 1 I I #
coedge $-1 $391 $391 $-1 $528 reversed $275 $-1 #
edge $-1 $529 0 $529 6.2831853071796004 $276 $530 forward 7 unknown #
vertex $-1 $279 $531 #
ellipse-curve $-1 52.886508966421424 14.91255265422695 13.107331623955563 0.54463904215088732 0 0.83867056331134215 0.41933528165567108 0 -0.27231952107544366 1 I I #
face $-1 $-1 $407 $42 $-1 $532 reversed single #
loop $-1 $-1 $533 $280 #
plane-surface $-1 0 33.943363769300859 0 0 -1 0 0 0 -1 forward_v I I I I #
coedge $-1 $413 $412 $534 $535 forward $281 $-1 #
coedge $-1 $283 $293 $536 $537 forward $178 $-1 #
coedge $-1 $406 $289 $283 $401 reversed $407 $-1 #
edge $-1 $538 -33.943363769300859 $294 33.943363769300859 $400 $539 forward 7 unknown #
coedge $-1 $285 $284 $412 $540 forward $113 $-1 #
coedge $-1 $533 $534 $284 $404 reversed $396 $-1 #
edge $-1 $409 -55.570543534653766 $541 55.570543534653766 $403 $542 forward 7 unknown #
edge $-1 $414 -55.570543534653766 $408 55.570543534653766 $288 $543 forward 7 unknown #
coedge $-1 $286 $400 $533 $544 reversed $407 $-1 #
loop $-1 $-1 $289 $395 #
vertex $-1 $287 $545 #
vertex $-1 $287 $546 #
straight-curve $-1 55.570543534653766 0 14.850364085438592 0 1 0 I I #
straight-curve $-1 55.570543534653766 -33.943363769300859 0 0 0 -1 I I #
coedge $-1 $398 $291 $402 $540 reversed $281 $-1 #
coedge $-1 $291 $398 $293 $416 reversed $281 $-1 #
vertex $-1 $540 $547 #
straight-curve $-1 -55.570543534653766 -33.943363769300859 0 0 0 -1 I I #
edge $-1 $295 -33.943363769300859 $548 33.943363769300859 $413 $549 forward 7 unknown #
point $-1 55.570543534653766 -33.943363769300859 -14.850364085438592 #
point $-1 -55.570543534653766 -33.943363769300859 -14.850364085438592 #
face $-1 $-1 $436 $43 $-1 $550 forward single #
loop $-1 $-1 $551 $297 #
plane-surface $-1 -26.962754438658806 -41.476532391525069 0 -1 0 0 0 0 1 forward_v I I I I #
coedge $-1 $552 $300 $426 $553 reversed $186 $-1 #
coedge $-1 $300 $552 $554 $555 reversed $186 $-1 #
coedge $-1 $308 $307 $300 $425 reversed $298 $-1 #
edge $-1 $556 -14.850364085438592 $557 14.850364085438592 $424 $558 forward 7 unknown #
coedge $-1 $302 $301 $422 $553 forward $117 $-1 #
coedge $-1 $432 $551 $301 $428 reversed $420 $-1 #
edge $-1 $430 -7.5331686222242098 $559 7.5331686222242098 $427 $560 forward 7 unknown #
edge $-1 $557 -7.5331686222242098 $309 7.5331686222242098 $307 $561 forward 7 unknown #
vertex $-1 $428 $562 #
straight-curve $-1 0 -33.943363769300859 -14.850364085438592 1 0 0 I I #
coedge $-1 $563 $427 $304 $433 reversed $420 $-1 #
edge $-1 $437 -14.850364085438592 $430 14.850364085438592 $432 $564 forward 7 unknown #
coedge $-1 $554 $305 $308 $439 forward $436 $-1 #
coedge $-1 $305 $554 $563 $565 forward $436 $-1 #
loop $-1 $-1 $305 $419 #
vertex $-1 $306 $566 #
straight-curve $-1 0 -33.943363769300859 14.850364085438592 -1 0 0 I I #
edge $-1 $310 -7.5331686222242098 $556 7.5331686222242098 $308 $567 forward 7 unknown #
point $-1 -32.449598453575362 -33.943363769300859 -14.850364085438592 #
point $-1 -32.449598453575362 -33.943363769300859 14.850364085438592 #
plane-surface $-1 0 0 14.850364085438592 0 0 1 1 0 0 forward_v I I I I #
coedge $-1 $453 $452 $445 $568 forward $313 $-1 #
coedge $-1 $445 $315 $317 $449 reversed $194 $-1 #
coedge $-1 $315 $444 $443 $568 reversed $194 $-1 #
coedge $-1 $323 $318 $315 $447 forward $324 $-1 #
edge $-1 $450 -21.3689171770814 $569 -11.509036856163291 $446 $570 forward 7 unknown #
coedge $-1 $317 $316 $453 $571 reversed $121 $-1 #
edge $-1 $572 2.0097183471152325e-014 $450 13.943976635003706 $444 $573 forward 7 unknown #
vertex $-1 $319 $574 #
straight-curve $-1 -45.710663213735664 -6.2979945624146545 14.850364085438592 0 1 0 I I #
coedge $-1 $443 $320 $323 $457 reversed $313 $-1 #
coedge $-1 $320 $443 $448 $571 forward $313 $-1 #
vertex $-1 $321 $575 #
straight-curve $-1 -55.570543534653766 -18.87702652485244 41.789549479522151 0 0 1 I I #
straight-curve $-1 -55.57054353465378 -18.87702652485244 4.9904835357209265 -0.70710677298230451 0 -0.70710678939079041 I I #
edge $-1 $569 6.3149517248061766 $325 18.87702652485244 $452 $576 forward 7 unknown #
point $-1 -55.570543534653766 -18.87702652485244 14.850364085438592 #
point $-1 -45.710663213735657 -18.87702652485244 14.850364085438592 #
edge $-1 $577 1 $577 0 $328 $-1 forward 7 unknown #
vertex $-1 $329 $578 #
ellipse-curve $-1 -48.672758865458569 -16.364611564843191 7.9525793475076609 -0.70710678939079041 0 0.70710677298230451 0.70710677298230451 0 0.70710678939079041 1 I I #
point $-1 -49.93349660121239 -16.364611564843191 10.627530599970546 #
edge $-1 $579 1 $579 0 $332 $-1 forward 7 unknown #
vertex $-1 $333 $580 #
ellipse-curve $-1 -48.672758865458569 -12.595989124829313 7.9525793475076609 -0.70710678939079041 0 0.70710677298230451 0.70710677298230451 0 0.70710678939079041 1 I I #
point $-1 -49.93349660121239 -12.595989124829313 10.627530599970546 #
edge $-1 $581 1 $581 0 $336 $-1 forward 7 unknown #
vertex $-1 $337 $582 #
ellipse-curve $-1 -48.672758865458569 -8.8273666848154342 7.9525793475076609 -0.70710678939079041 0 0.70710677298230451 0.70710677298230451 0 0.70710678939079041 1 I I #
point $-1 -49.93349660121239 -8.8273666848154342 10.627530599970546 #
loop $-1 $-1 $348 $340 #
plane-surface $-1 55.570543534653766 0 0 -1 0 0 0 0 1 forward_v I I I I #
coedge $-1 $475 $343 $345 $479 reversed $223 $-1 #
coedge $-1 $343 $474 $583 $584 reversed $223 $-1 #
coedge $-1 $351 $346 $343 $477 forward $341 $-1 #
edge $-1 $480 38.756694078069742 $585 44.124763214534404 $476 $586 forward 7 unknown #
coedge $-1 $345 $344 $483 $587 reversed $140 $-1 #
edge $-1 $588 -111.1410870693075 $480 -104.74039844221443 $474 $589 forward 7 unknown #
vertex $-1 $347 $590 #
straight-curve $-1 50.202474398189111 -7.1324557524253649 14.850364085438592 0 -1 0 I I #
coedge $-1 $583 $348 $351 $487 reversed $472 $-1 #
coedge $-1 $348 $583 $478 $587 forward $472 $-1 #
vertex $-1 $349 $591 #
straight-curve $-1 55.570543534653766 -9.6527964848490146 82.553416233479808 0 0 1 I I #
straight-curve $-1 -37.640214564797297 -9.6527964848490146 71.896074367508547 0.83867056331134215 0 -0.54463904215088732 I I #
edge $-1 $585 -18.877026524852447 $352 -9.6527964848490146 $482 $592 forward 7 unknown #
point $-1 55.570543534653766 -9.6527964848490146 14.850364085438592 #
point $-1 50.202474398189104 -9.6527964848490146 14.850364085438592 #
edge $-1 $593 1 $593 0 $355 $-1 forward 7 unknown #
vertex $-1 $356 $594 #
ellipse-curve $-1 52.341869924270526 -17.032180516851756 12.268661060644202 0.54463904215088732 0 0.83867056331134215 0.41933528165567108 0 -0.27231952107544366 1 I I #
point $-1 53.305844248077086 -17.032180516851756 12.835012102880102 #
edge $-1 $595 1 $595 0 $359 $-1 forward 7 unknown #
vertex $-1 $360 $596 #
ellipse-curve $-1 52.341869924270526 -14.264911504850726 12.268661060644202 0.54463904215088732 0 0.83867056331134215 0.41933528165567108 0 -0.27231952107544366 1 I I #
point $-1 53.305844248077086 -14.264911504850726 12.835012102880102 #
edge $-1 $597 1 $597 0 $363 $-1 forward 7 unknown #
vertex $-1 $364 $598 #
ellipse-curve $-1 52.341869924270526 -11.497642492849696 12.268661060644202 0.54463904215088732 0 0.83867056331134215 0.41933528165567108 0 -0.27231952107544366 1 I I #
point $-1 53.305844248077086 -11.497642492849696 12.835012102880102 #
plane-surface $-1 0 0 14.850364085438592 0 0 1 1 0 0 forward_v I I I I #
coedge $-1 $513 $512 $505 $599 forward $368 $-1 #
coedge $-1 $505 $370 $372 $509 reversed $252 $-1 #
coedge $-1 $370 $504 $503 $599 reversed $252 $-1 #
coedge $-1 $378 $373 $370 $507 forward $379 $-1 #
edge $-1 $510 38.756694078069742 $600 44.124763214534404 $506 $601 forward 7 unknown #
coedge $-1 $372 $371 $513 $602 reversed $159 $-1 #
edge $-1 $603 -111.1410870693075 $510 -104.74039844221443 $504 $604 forward 7 unknown #
vertex $-1 $374 $605 #
straight-curve $-1 50.202474398189111 6.0726418211129598 14.850364085438592 0 -1 0 I I #
coedge $-1 $503 $375 $378 $517 reversed $368 $-1 #
coedge $-1 $375 $503 $508 $602 forward $368 $-1 #
vertex $-1 $376 $606 #
straight-curve $-1 55.570543534653766 16.757398662227637 82.553416233479808 0 0 1 I I #
straight-curve $-1 -37.640214564797297 16.757398662227637 71.896074367508547 0.83867056331134215 0 -0.54463904215088732 I I #
edge $-1 $600 7.5331686222242045 $380 16.757398662227637 $512 $607 forward 7 unknown #
point $-1 55.570543534653766 16.757398662227637 14.850364085438592 #
point $-1 50.202474398189104 16.757398662227637 14.850364085438592 #
edge $-1 $608 1 $608 0 $383 $-1 forward 7 unknown #
vertex $-1 $384 $609 #
ellipse-curve $-1 52.341869924270526 9.3780146302248895 12.268661060644202 0.54463904215088732 0 0.83867056331134215 0.41933528165567108 0 -0.27231952107544366 1 I I #
point $-1 53.305844248077086 9.3780146302248895 12.835012102880102 #
edge $-1 $610 1 $610 0 $387 $-1 forward 7 unknown #
vertex $-1 $388 $611 #
ellipse-curve $-1 52.341869924270526 12.14528364222592 12.268661060644202 0.54463904215088732 0 0.83867056331134215 0.41933528165567108 0 -0.27231952107544366 1 I I #
point $-1 53.305844248077086 12.14528364222592 12.835012102880102 #
edge $-1 $612 1 $612 0 $391 $-1 forward 7 unknown #
vertex $-1 $392 $613 #
ellipse-curve $-1 52.341869924270526 14.91255265422695 12.268661060644202 0.54463904215088732 0 0.83867056331134215 0.41933528165567108 0 -0.27231952107544366 1 I I #
point $-1 53.305844248077086 14.91255265422695 12.835012102880102 #
plane-surface $-1 55.570543534653766 0 0 -1 0 0 0 0 1 forward_v I I I I #
coedge $-1 $536 $403 $406 $544 forward $396 $-1 #
coedge $-1 $403 $536 $398 $535 reversed $396 $-1 #
edge $-1 $541 -14.850364085438592 $548 14.850364085438592 $534 $614 forward 7 unknown #
coedge $-1 $534 $533 $399 $537 reversed $396 $-1 #
edge $-1 $548 -55.570543534653766 $538 55.570543534653766 $536 $615 forward 7 unknown #
vertex $-1 $401 $616 #
straight-curve $-1 55.570543534653766 0 -14.850364085438592 0 -1 0 I I #
edge $-1 $541 -33.943363769300859 $414 33.943363769300859 $412 $617 forward 7 unknown #
vertex $-1 $404 $618 #
straight-curve $-1 0 33.943363769300859 14.850364085438592 -1 0 0 I I #
straight-curve $-1 0 -33.943363769300859 14.850364085438592 1 0 0 I I #
edge $-1 $409 -14.850364085438592 $538 14.850364085438592 $406 $619 forward 7 unknown #
point $-1 55.570543534653766 -33.943363769300859 14.850364085438592 #
point $-1 55.570543534653766 33.943363769300859 14.850364085438592 #
point $-1 -55.570543534653766 -33.943363769300859 14.850364085438592 #
vertex $-1 $537 $620 #
straight-curve $-1 -55.570543534653766 0 -14.850364085438592 0 1 0 I I #
plane-surface $-1 0 0 14.850364085438592 0 0 1 1 0 0 forward_v I I I I #
coedge $-1 $427 $563 $552 $621 forward $420 $-1 #
coedge $-1 $423 $422 $551 $621 reversed $186 $-1 #
edge $-1 $559 -2.7434220074582782 $557 2.7434220074582782 $422 $622 forward 7 unknown #
coedge $-1 $435 $434 $423 $555 forward $436 $-1 #
edge $-1 $556 -2.7434220074582782 $623 2.7434220074582782 $423 $624 forward 7 unknown #
vertex $-1 $439 $625 #
vertex $-1 $429 $626 #
straight-curve $-1 -32.449598453575362 -49.009701013749279 0 0 0 -1 I I #
vertex $-1 $621 $627 #
straight-curve $-1 -26.962754438658806 -41.476532391525069 -14.850364085438592 0 -1 0 I I #
straight-curve $-1 -32.449598453575362 -41.476532391525069 -14.850364085438592 0 1 0 I I #
point $-1 -26.962754438658806 -33.943363769300859 -14.850364085438592 #
coedge $-1 $551 $432 $435 $565 reversed $420 $-1 #
straight-curve $-1 -26.962754438658806 -33.943363769300859 0 0 0 -1 I I #
edge $-1 $623 -7.5331686222242098 $437 7.5331686222242098 $563 $628 forward 7 unknown #
point $-1 -26.962754438658806 -33.943363769300859 14.850364085438592 #
straight-curve $-1 -32.449598453575362 -41.476532391525069 14.850364085438592 0 -1 0 I I #
edge $-1 $569 26.939185394083559 $572 36.79906594380121 $443 $629 forward 7 unknown #
vertex $-1 $457 $630 #
straight-curve $-1 -67.079580390817057 -6.3149517248061766 14.850364085438592 -1 0 0 I I #
edge $-1 $572 0.016957162391522118 $454 12.579031962437785 $453 $631 forward 7 unknown #
vertex $-1 $571 $632 #
straight-curve $-1 -55.57054353465378 -6.3149517248061766 4.9904835357209265 0.70710677298230451 0 0.70710678939079041 I I #
point $-1 -45.710663213735657 -6.3149517248061766 14.850364085438592 #
point $-1 -55.570543534653766 -18.87702652485244 4.9904835357209407 #
straight-curve $-1 -55.570543534653766 0 14.850364085438592 0 -1 0 I I #
vertex $-1 $460 $633 #
point $-1 -47.965652092476262 -16.364611564843191 8.6596861368984506 #
vertex $-1 $464 $634 #
point $-1 -47.965652092476262 -12.595989124829313 8.6596861368984506 #
vertex $-1 $468 $635 #
point $-1 -47.965652092476262 -8.8273666848154342 8.6596861368984506 #
coedge $-1 $483 $482 $475 $584 forward $472 $-1 #
edge $-1 $585 67.703052148041223 $588 71.189117071007274 $583 $636 forward 7 unknown #
vertex $-1 $487 $637 #
straight-curve $-1 11.445780320119361 -18.877026524852447 14.850364085438599 1 0 0 I I #
edge $-1 $588 -11.744570772427082 $484 -2.5203407324236498 $483 $638 forward 7 unknown #
vertex $-1 $587 $639 #
straight-curve $-1 -37.640214564797297 -18.877026524852447 71.896074367508547 -0.83867056331134215 0 0.54463904215088732 I I #
point $-1 50.202474398189104 -18.877026524852447 14.850364085438592 #
point $-1 55.570543534653758 -9.6527964848490146 11.364299162472534 #
straight-curve $-1 55.570543534653766 0 14.850364085438592 0 1 0 I I #
vertex $-1 $490 $640 #
point $-1 52.761205205926196 -17.032180516851756 11.996341539568759 #
vertex $-1 $494 $641 #
point $-1 52.761205205926196 -14.264911504850726 11.996341539568759 #
vertex $-1 $498 $642 #
point $-1 52.761205205926196 -11.497642492849696 11.996341539568759 #
edge $-1 $600 67.703052148041223 $603 71.189117071007274 $503 $643 forward 7 unknown #
vertex $-1 $517 $644 #
straight-curve $-1 11.445780320119361 7.5331686222242045 14.850364085438599 1 0 0 I I #
edge $-1 $603 1.4605268011112447 $514 10.684756841114677 $513 $645 forward 7 unknown #
vertex $-1 $602 $646 #
straight-curve $-1 -37.640214564797297 7.5331686222242045 71.896074367508547 -0.83867056331134215 0 0.54463904215088732 I I #
point $-1 50.202474398189104 7.5331686222242045 14.850364085438592 #
point $-1 55.570543534653758 16.757398662227637 11.364299162472534 #
straight-curve $-1 55.570543534653766 0 14.850364085438592 0 1 0 I I #
vertex $-1 $520 $647 #
point $-1 52.761205205926196 9.3780146302248895 11.996341539568759 #
vertex $-1 $524 $648 #
point $-1 52.761205205926196 12.14528364222592 11.996341539568759 #
vertex $-1 $528 $649 #
point $-1 52.761205205926196 14.91255265422695 11.996341539568759 #
straight-curve $-1 -55.570543534653766 33.943363769300859 0 0 0 -1 I I #
straight-curve $-1 0 33.943363769300859 -14.850364085438592 1 0 0 I I #
point $-1 55.570543534653766 33.943363769300859 -14.850364085438592 #
straight-curve $-1 -55.570543534653766 0 14.850364085438592 0 -1 0 I I #
point $-1 -55.570543534653766 33.943363769300859 14.850364085438592 #
straight-curve $-1 55.570543534653766 33.943363769300859 0 0 0 -1 I I #
point $-1 -55.570543534653766 33.943363769300859 -14.850364085438592 #
edge $-1 $623 -14.850364085438592 $559 14.850364085438592 $551 $650 forward 7 unknown #
straight-curve $-1 -29.706176446117084 -49.009701013749279 -14.850364085438592 -1 0 0 I I #
vertex $-1 $565 $651 #
straight-curve $-1 -29.706176446117084 -49.009701013749279 14.850364085438592 1 0 0 I I #
point $-1 -32.449598453575362 -49.009701013749279 14.850364085438592 #
point $-1 -32.449598453575362 -49.009701013749279 -14.850364085438592 #
point $-1 -26.962754438658806 -49.009701013749279 -14.850364085438592 #
straight-curve $-1 -26.962754438658806 -41.476532391525069 14.850364085438592 0 1 0 I I #
straight-curve $-1 -55.570543534653766 -6.3149517248061766 41.789549479522151 0 0 -1 I I #
point $-1 -55.570543534653766 -6.3149517248061766 14.850364085438592 #
straight-curve $-1 -55.570543534653766 -6.2979945624146545 4.9904835357209372 0 -1 0 I I #
point $-1 -55.570543534653766 -6.3149517248061766 4.9904835357209407 #
point $-1 -47.965652076067776 -16.364611564843191 7.2454725745253556 #
point $-1 -47.965652076067776 -12.595989124829313 7.2454725745253556 #
point $-1 -47.965652076067776 -8.8273666848154342 7.2454725745253556 #
straight-curve $-1 55.570543534653766 -18.877026524852447 82.553416233479808 0 0 -1 I I #
point $-1 55.570543534653766 -18.877026524852447 14.850364085438592 #
straight-curve $-1 55.570543534653758 -7.1324557524253649 11.364299162472527 0 1 0 I I #
point $-1 55.570543534653758 -18.877026524852447 11.364299162472534 #
point $-1 52.06955040319508 -17.032180516851756 11.849325778988533 #
point $-1 52.06955040319508 -14.264911504850726 11.849325778988533 #
point $-1 52.06955040319508 -11.497642492849696 11.849325778988533 #
straight-curve $-1 55.570543534653766 7.5331686222242045 82.553416233479808 0 0 -1 I I #
point $-1 55.570543534653766 7.5331686222242045 14.850364085438592 #
straight-curve $-1 55.570543534653758 6.0726418211129598 11.364299162472527 0 1 0 I I #
point $-1 55.570543534653758 7.5331686222242045 11.364299162472534 #
point $-1 52.06955040319508 9.3780146302248895 11.849325778988533 #
point $-1 52.06955040319508 12.14528364222592 11.849325778988533 #
point $-1 52.06955040319508 14.91255265422695 11.849325778988533 #
straight-curve $-1 -26.962754438658806 -49.009701013749279 0 0 0 -1 I I #
point $-1 -26.962754438658806 -49.009701013749279 14.850364085438592 #
End-of-ACIS-data 