500 0 9 0           
7 Unknown 11 ACIS 5.0 NT 24 Thu Mar 25 18:10:49 1999 
-1 9.9999999999999995e-007 1e-010 
body $-1 $9 $-1 $10 #
body $-1 $11 $-1 $12 #
body $-1 $13 $-1 $14 #
body $-1 $15 $-1 $16 #
body $-1 $17 $-1 $18 #
body $-1 $19 $-1 $20 #
body $-1 $21 $-1 $22 #
body $-1 $23 $-1 $24 #
body $-1 $25 $-1 $26 #
lump $-1 $-1 $27 $0 #
transform $-1 1 0 0 0 1 0 0 0 1 46.020691549424726 31.391597546958586 8.2413122573917832 1 rotate no_reflect no_shear #
lump $-1 $-1 $28 $1 #
transform $-1 1 0 0 0 1 0 0 0 1 46.020691549424726 31.391597546958586 8.2413122573917832 1 rotate no_reflect no_shear #
lump $-1 $-1 $29 $2 #
transform $-1 1 0 0 0 1 0 0 0 1 46.020691549424726 31.391597546958586 8.2413122573917832 1 rotate no_reflect no_shear #
lump $-1 $-1 $30 $3 #
transform $-1 1 0 0 0 1 0 0 0 1 46.020691549424726 31.391597546958586 8.2413122573917832 1 rotate no_reflect no_shear #
lump $-1 $-1 $31 $4 #
transform $-1 1 0 0 0 1 0 0 0 1 46.020691549424726 31.391597546958586 8.2413122573917832 1 rotate no_reflect no_shear #
lump $-1 $-1 $32 $5 #
transform $-1 1 0 0 0 1 0 0 0 1 46.020691549424726 31.391597546958586 8.2413122573917832 1 rotate no_reflect no_shear #
lump $-1 $-1 $33 $6 #
transform $-1 1 0 0 0 1 0 0 0 1 46.020691549424726 31.391597546958586 8.2413122573917832 1 rotate no_reflect no_shear #
lump $-1 $-1 $34 $7 #
transform $-1 1 0 0 0 1 0 0 0 1 46.020691549424726 31.391597546958586 8.2413122573917832 1 rotate no_reflect no_shear #
lump $-1 $-1 $35 $8 #
transform $-1 1 0 0 0 1 0 0 0 1 46.020691549424726 31.391597546958586 8.2413122573917832 1 rotate no_reflect no_shear #
shell $-1 $-1 $-1 $36 $-1 $9 #
shell $-1 $-1 $-1 $37 $-1 $11 #
shell $-1 $-1 $-1 $38 $-1 $13 #
shell $-1 $-1 $-1 $39 $-1 $15 #
shell $-1 $-1 $-1 $40 $-1 $17 #
shell $-1 $-1 $-1 $41 $-1 $19 #
shell $-1 $-1 $-1 $42 $-1 $21 #
shell $-1 $-1 $-1 $43 $-1 $23 #
shell $-1 $-1 $-1 $44 $-1 $25 #
face $-1 $45 $46 $27 $-1 $47 forward single #
face $-1 $48 $49 $28 $-1 $50 reversed single #
face $-1 $51 $52 $29 $-1 $53 reversed single #
face $-1 $54 $55 $30 $-1 $56 forward single #
face $-1 $57 $58 $31 $-1 $59 forward single #
face $-1 $60 $61 $32 $-1 $62 reversed single #
face $-1 $63 $64 $33 $-1 $65 forward single #
face $-1 $66 $67 $34 $-1 $68 forward single #
face $-1 $69 $70 $35 $-1 $71 forward single #
face $-1 $72 $73 $27 $-1 $74 reversed single #
loop $-1 $-1 $75 $36 #
plane-surface $-1 0 0 8.2413122573917832 0 0 1 1 0 0 forward_v I I I I #
face $-1 $76 $77 $28 $-1 $78 reversed single #
loop $-1 $-1 $79 $37 #
plane-surface $-1 0 -26.838513348031782 4.368572065220782 0 0 1 1 0 0 forward_v I I I I #
face $-1 $80 $81 $29 $-1 $82 reversed single #
loop $-1 $-1 $83 $38 #
plane-surface $-1 -102.6870259697005 -18.502250591470911 75.901013589110477 0 1 0 -0.61566148304635926 0 0.78801074757464917 forward_v I I I I #
face $-1 $84 $85 $30 $-1 $86 forward single #
loop $-1 $87 $88 $39 #
cone-surface $-1 -41.346828091894075 -14.500583413700706 3.8131473377393839 0.61566148304635926 0 -0.78801074757464917 1.1820161213619738 0 0.92349222456953894 1 I I 0 1 1.5 forward I I I I #
face $-1 $89 $90 $31 $-1 $91 forward single #
loop $-1 $92 $93 $40 #
cone-surface $-1 -41.346828091894075 -8.498082647045397 3.8131473377393839 0.61566148304635926 0 -0.78801074757464917 1.1820161213619738 0 0.92349222456953894 1 I I 0 1 1.5 forward I I I I #
face $-1 $94 $95 $32 $-1 $96 reversed single #
loop $-1 $-1 $97 $41 #
plane-surface $-1 34.675963461263208 26.943588496049994 131.60425152702817 0 -1 0 -0.64278761758704617 0 -0.76604443648966558 forward_v I I I I #
face $-1 $98 $99 $33 $-1 $100 forward single #
loop $-1 $101 $102 $42 #
cone-surface $-1 41.734998898204154 20.711695628440637 4.4593564510767258 -0.64278761758704617 0 -0.76604443648966558 0.38302221824483279 0 -0.32139380879352308 1 I I 0 1 0.5 forward I I I I #
face $-1 $103 $104 $34 $-1 $105 forward single #
loop $-1 $106 $107 $43 #
cone-surface $-1 41.734998898204154 23.048655453794147 4.4593564510767258 -0.64278761758704617 0 -0.76604443648966558 0.38302221824483279 0 -0.32139380879352308 1 I I 0 1 0.5 forward I I I I #
face $-1 $108 $109 $35 $-1 $110 forward single #
loop $-1 $111 $112 $44 #
cone-surface $-1 41.734998898204154 25.385615279147657 4.4593564510767258 -0.64278761758704617 0 -0.76604443648966558 0.38302221824483279 0 -0.32139380879352308 1 I I 0 1 0.5 forward I I I I #
face $-1 $113 $114 $27 $-1 $115 reversed single #
loop $-1 $-1 $116 $45 #
plane-surface $-1 0 0 -8.2413122573917832 0 0 1 1 0 0 forward_v I I I I #
coedge $-1 $117 $118 $119 $120 forward $46 $-1 #
face $-1 $121 $122 $28 $-1 $123 reversed single #
loop $-1 $-1 $124 $48 #
plane-surface $-1 0 -22.285429149104978 6.3049421613062826 0 -1 0 0 0 -1 forward_v I I I I #
coedge $-1 $125 $126 $127 $128 reversed $49 $-1 #
face $-1 $129 $130 $29 $-1 $131 reversed single #
loop $-1 $-1 $132 $51 #
plane-surface $-1 -46.02069154942474 -11.499333030373052 3.3714144855814396 -0.61566148304635926 0 0.78801074757464917 0.78801074757464917 0 0.61566148304635926 forward_v I I I I #
coedge $-1 $133 $134 $135 $136 reversed $52 $-1 #
face $-1 $-1 $137 $30 $-1 $138 forward single #
loop $-1 $139 $140 $54 #
cone-surface $-1 -39.327810910470305 -14.500583413700706 1.2289232433111756 0.61566148304635926 0 -0.78801074757464917 0.59100806068098688 0 0.46174611228476947 1 I I -0.70710678118654757 0.70710678118654757 0.75 forward I I I I #
loop $-1 $-1 $141 $39 #
coedge $-1 $88 $88 $142 $143 reversed $55 $-1 #
face $-1 $-1 $144 $31 $-1 $145 forward single #
loop $-1 $146 $147 $57 #
cone-surface $-1 -39.327810910470305 -8.498082647045397 1.2289232433111756 0.61566148304635926 0 -0.78801074757464917 0.59100806068098688 0 0.46174611228476947 1 I I -0.70710678118654757 0.70710678118654757 0.75 forward I I I I #
loop $-1 $-1 $148 $40 #
coedge $-1 $93 $93 $149 $150 reversed $58 $-1 #
face $-1 $151 $152 $32 $-1 $153 reversed single #
loop $-1 $-1 $154 $60 #
plane-surface $-1 -24.487097900262846 23.048655453794147 61.096462077340604 0.64278761758704617 0 0.76604443648966558 0.76604443648966558 0 -0.64278761758704617 forward_v I I I I #
coedge $-1 $155 $156 $157 $158 reversed $61 $-1 #
face $-1 $-1 $159 $33 $-1 $160 forward single #
loop $-1 $161 $162 $63 #
cone-surface $-1 41.047347384580803 20.711695628440637 3.6398453064278797 -0.64278761758704617 0 -0.76604443648966558 0.1915111091224164 0 -0.16069690439676154 1 I I -0.70710678118654746 0.70710678118654746 0.25 forward I I I I #
loop $-1 $-1 $163 $42 #
coedge $-1 $102 $102 $164 $165 reversed $64 $-1 #
face $-1 $-1 $166 $34 $-1 $167 forward single #
loop $-1 $168 $169 $66 #
cone-surface $-1 41.047347384580803 23.048655453794147 3.6398453064278797 -0.64278761758704617 0 -0.76604443648966558 0.1915111091224164 0 -0.16069690439676154 1 I I -0.70710678118654746 0.70710678118654746 0.25 forward I I I I #
loop $-1 $-1 $170 $43 #
coedge $-1 $107 $107 $171 $172 reversed $67 $-1 #
face $-1 $-1 $173 $35 $-1 $174 forward single #
loop $-1 $175 $176 $69 #
cone-surface $-1 41.047347384580803 25.385615279147657 3.6398453064278797 -0.64278761758704617 0 -0.76604443648966558 0.1915111091224164 0 -0.16069690439676154 1 I I -0.70710678118654746 0.70710678118654746 0.25 forward I I I I #
loop $-1 $-1 $177 $44 #
coedge $-1 $112 $112 $178 $179 reversed $70 $-1 #
face $-1 $180 $181 $27 $-1 $182 reversed single #
loop $-1 $-1 $183 $72 #
plane-surface $-1 0 -31.391597546958586 0 0 1 0 0 0 1 forward_v I I I I #
coedge $-1 $184 $185 $186 $187 forward $73 $-1 #
coedge $-1 $188 $75 $189 $190 forward $46 $-1 #
coedge $-1 $75 $188 $191 $192 forward $46 $-1 #
coedge $-1 $193 $194 $75 $120 reversed $195 $-1 #
edge $-1 $196 -31.391597546958586 $197 31.391597546958586 $119 $198 forward 7 unknown #
face $-1 $199 $200 $28 $-1 $201 reversed single #
loop $-1 $-1 $202 $76 #
plane-surface $-1 -46.020691549424726 0 0 1 0 0 0 0 -1 forward_v I I I I #
coedge $-1 $203 $204 $205 $206 reversed $77 $-1 #
coedge $-1 $207 $79 $208 $209 reversed $49 $-1 #
coedge $-1 $79 $207 $203 $210 forward $49 $-1 #
coedge $-1 $205 $211 $79 $128 forward $212 $-1 #
edge $-1 $213 -17.972340872942695 $214 -8.8661724750890869 $127 $215 forward 7 unknown #
face $-1 $216 $217 $29 $-1 $218 forward single #
loop $-1 $-1 $219 $80 #
plane-surface $-1 -102.6870259697005 -4.4964154692751919 75.901013589110477 0 -1 0 0.61566148304635926 0 -0.78801074757464917 forward_v I I I I #
coedge $-1 $220 $221 $222 $223 reversed $81 $-1 #
coedge $-1 $134 $83 $224 $225 reversed $52 $-1 #
coedge $-1 $83 $133 $220 $226 reversed $52 $-1 #
coedge $-1 $222 $227 $83 $136 forward $217 $-1 #
edge $-1 $228 5.3228214354255243 $229 11.556006212208793 $135 $230 forward 7 unknown #
loop $-1 $-1 $142 $84 #
plane-surface $-1 -46.02069154942474 -11.499333030373052 3.3714144855814396 -0.61566148304635926 0 0.78801074757464917 0.78801074757464917 0 0.61566148304635926 forward_v I I I I #
loop $-1 $-1 $231 $54 #
coedge $-1 $140 $140 $141 $232 reversed $85 $-1 #
coedge $-1 $141 $141 $140 $232 forward $87 $-1 #
coedge $-1 $142 $142 $88 $143 forward $137 $-1 #
edge $-1 $233 0 $233 6.2831853071796004 $142 $234 forward 7 unknown #
loop $-1 $-1 $149 $89 #
plane-surface $-1 -46.02069154942474 -11.499333030373052 3.3714144855814396 -0.61566148304635926 0 0.78801074757464917 0.78801074757464917 0 0.61566148304635926 forward_v I I I I #
loop $-1 $-1 $235 $57 #
coedge $-1 $147 $147 $148 $236 reversed $90 $-1 #
coedge $-1 $148 $148 $147 $236 forward $92 $-1 #
coedge $-1 $149 $149 $93 $150 forward $144 $-1 #
edge $-1 $237 0 $237 6.2831853071796004 $149 $238 forward 7 unknown #
face $-1 $239 $240 $32 $-1 $241 reversed single #
loop $-1 $-1 $242 $94 #
plane-surface $-1 34.675963461263208 19.1537224115383 131.60425152702817 0 1 0 0.64278761758704617 0 0.76604443648966558 forward_v I I I I #
coedge $-1 $243 $244 $245 $246 reversed $95 $-1 #
coedge $-1 $156 $97 $247 $248 reversed $61 $-1 #
coedge $-1 $97 $155 $243 $249 reversed $61 $-1 #
coedge $-1 $245 $250 $97 $158 forward $251 $-1 #
edge $-1 $252 -28.682709818793121 $253 -21.165233734805192 $157 $254 forward 7 unknown #
loop $-1 $-1 $164 $98 #
plane-surface $-1 -24.487097900262846 23.048655453794147 61.096462077340604 0.64278761758704617 0 0.76604443648966558 0.76604443648966558 0 -0.64278761758704617 forward_v I I I I #
loop $-1 $-1 $255 $63 #
coedge $-1 $162 $162 $163 $256 reversed $99 $-1 #
coedge $-1 $163 $163 $162 $256 forward $101 $-1 #
coedge $-1 $164 $164 $102 $165 forward $159 $-1 #
edge $-1 $257 0 $257 6.2831853071796004 $164 $258 forward 7 unknown #
loop $-1 $-1 $171 $103 #
plane-surface $-1 -24.487097900262846 23.048655453794147 61.096462077340604 0.64278761758704617 0 0.76604443648966558 0.76604443648966558 0 -0.64278761758704617 forward_v I I I I #
loop $-1 $-1 $259 $66 #
coedge $-1 $169 $169 $170 $260 reversed $104 $-1 #
coedge $-1 $170 $170 $169 $260 forward $106 $-1 #
coedge $-1 $171 $171 $107 $172 forward $166 $-1 #
edge $-1 $261 0 $261 6.2831853071796004 $171 $262 forward 7 unknown #
loop $-1 $-1 $178 $108 #
plane-surface $-1 -24.487097900262846 23.048655453794147 61.096462077340604 0.64278761758704617 0 0.76604443648966558 0.76604443648966558 0 -0.64278761758704617 forward_v I I I I #
loop $-1 $-1 $263 $69 #
coedge $-1 $176 $176 $177 $264 reversed $109 $-1 #
coedge $-1 $177 $177 $176 $264 forward $111 $-1 #
coedge $-1 $178 $178 $112 $179 forward $173 $-1 #
edge $-1 $265 0 $265 6.2831853071796004 $178 $266 forward 7 unknown #
face $-1 $267 $268 $27 $-1 $269 reversed single #
loop $-1 $-1 $270 $113 #
plane-surface $-1 -46.020691549424726 0 0 1 0 0 0 0 -1 forward_v I I I I #
coedge $-1 $271 $191 $272 $273 forward $114 $-1 #
coedge $-1 $274 $116 $271 $275 forward $73 $-1 #
coedge $-1 $116 $274 $276 $277 forward $73 $-1 #
coedge $-1 $194 $193 $116 $187 reversed $195 $-1 #
edge $-1 $278 -31.391597546958586 $279 31.391597546958586 $186 $280 forward 7 unknown #
coedge $-1 $118 $117 $281 $282 forward $46 $-1 #
coedge $-1 $283 $284 $117 $190 reversed $268 $-1 #
edge $-1 $197 -46.020691549424726 $285 46.020691549424726 $189 $286 forward 7 unknown #
coedge $-1 $183 $287 $118 $192 reversed $114 $-1 #
edge $-1 $288 -46.020691549424726 $196 46.020691549424726 $191 $289 forward 7 unknown #
coedge $-1 $186 $119 $287 $290 forward $195 $-1 #
coedge $-1 $119 $186 $283 $291 reversed $195 $-1 #
loop $-1 $-1 $193 $267 #
vertex $-1 $120 $292 #
vertex $-1 $120 $293 #
straight-curve $-1 46.020691549424726 0 8.2413122573917832 0 1 0 I I #
face $-1 $294 $295 $28 $-1 $296 forward single #
loop $-1 $-1 $208 $121 #
plane-surface $-1 0 -31.391597546958586 0 0 1 0 0 0 1 forward_v I I I I #
coedge $-1 $297 $298 $299 $300 forward $122 $-1 #
coedge $-1 $299 $124 $126 $210 reversed $77 $-1 #
coedge $-1 $124 $299 $301 $302 reversed $77 $-1 #
coedge $-1 $303 $127 $124 $206 forward $212 $-1 #
edge $-1 $214 1.2161009845676407 $304 5.0888411767386419 $205 $305 forward 7 unknown #
coedge $-1 $126 $125 $297 $306 reversed $49 $-1 #
coedge $-1 $307 $308 $125 $209 forward $200 $-1 #
edge $-1 $309 -46.020691549424726 $213 46.020691549424726 $208 $310 forward 7 unknown #
edge $-1 $311 -46.020691549424726 $214 46.020691549424726 $203 $312 forward 7 unknown #
coedge $-1 $127 $303 $307 $313 forward $212 $-1 #
loop $-1 $-1 $205 $294 #
vertex $-1 $209 $314 #
vertex $-1 $128 $315 #
straight-curve $-1 46.020691549424726 -13.419256674015891 4.368572065220782 0 1 0 I I #
face $-1 $-1 $316 $29 $-1 $317 reversed single #
loop $-1 $-1 $135 $129 #
plane-surface $-1 0 0 8.2413122573917832 0 0 1 1 0 0 forward_v I I I I #
coedge $-1 $318 $319 $320 $321 reversed $130 $-1 #
coedge $-1 $322 $132 $134 $226 forward $81 $-1 #
coedge $-1 $132 $322 $318 $323 forward $81 $-1 #
coedge $-1 $320 $135 $132 $223 forward $217 $-1 #
edge $-1 $229 -12.752584076284386 $324 1.253251045911334 $222 $325 forward 7 unknown #
coedge $-1 $326 $327 $133 $225 forward $316 $-1 #
edge $-1 $328 -34.579092308973784 $228 -29.709194537163455 $224 $329 forward 7 unknown #
edge $-1 $229 -7.9100250802008336 $328 -1.8033521786330445e-014 $134 $330 forward 7 unknown #
coedge $-1 $135 $320 $326 $331 forward $217 $-1 #
vertex $-1 $225 $332 #
vertex $-1 $136 $333 #
straight-curve $-1 -51.34351298485025 -18.502250591470911 8.2413122573917832 1 0 0 I I #
coedge $-1 $231 $231 $-1 $334 reversed $139 $-1 #
edge $-1 $335 0 $335 6.2831853071796004 $140 $336 forward 7 unknown #
vertex $-1 $143 $337 #
ellipse-curve $-1 -42.904099161033088 -14.500583413700706 5.8063633714866203 -0.61566148304635926 0 0.78801074757464917 1.1820161213619738 0 0.92349222456953894 1 I I #
coedge $-1 $235 $235 $-1 $338 reversed $146 $-1 #
edge $-1 $339 0 $339 6.2831853071796004 $147 $340 forward 7 unknown #
vertex $-1 $150 $341 #
ellipse-curve $-1 -42.904099161033088 -8.498082647045397 5.8063633714866203 -0.61566148304635926 0 0.78801074757464917 1.1820161213619738 0 0.92349222456953894 1 I I #
face $-1 $-1 $251 $32 $-1 $342 forward single #
loop $-1 $-1 $343 $151 #
plane-surface $-1 46.020691549424726 0 0 -1 0 0 0 0 1 forward_v I I I I #
coedge $-1 $344 $345 $346 $347 reversed $152 $-1 #
coedge $-1 $348 $154 $156 $249 forward $95 $-1 #
coedge $-1 $154 $348 $344 $349 forward $95 $-1 #
coedge $-1 $346 $157 $154 $246 forward $251 $-1 #
edge $-1 $253 -15.41926076915292 $350 -7.6293946846412268 $245 $351 forward 7 unknown #
coedge $-1 $352 $353 $155 $248 forward $240 $-1 #
edge $-1 $354 -63.868725047699556 $252 -57.560813506122301 $247 $355 forward 7 unknown #
edge $-1 $253 82.228014936506128 $354 92.041383098849479 $156 $356 forward 7 unknown #
coedge $-1 $157 $346 $352 $357 forward $251 $-1 #
loop $-1 $-1 $346 $239 #
vertex $-1 $248 $358 #
vertex $-1 $158 $359 #
straight-curve $-1 17.337981730631604 26.943588496049994 8.2413122573917832 -1 0 0 I I #
coedge $-1 $255 $255 $-1 $360 reversed $161 $-1 #
edge $-1 $361 0 $361 6.2831853071796004 $162 $362 forward 7 unknown #
vertex $-1 $165 $363 #
ellipse-curve $-1 42.261953507430754 20.711695628440637 5.08735648660317 0.64278761758704617 0 0.76604443648966558 0.38302221824483279 0 -0.32139380879352308 1 I I #
coedge $-1 $259 $259 $-1 $364 reversed $168 $-1 #
edge $-1 $365 0 $365 6.2831853071796004 $169 $366 forward 7 unknown #
vertex $-1 $172 $367 #
ellipse-curve $-1 42.261953507430754 23.048655453794147 5.08735648660317 0.64278761758704617 0 0.76604443648966558 0.38302221824483279 0 -0.32139380879352308 1 I I #
coedge $-1 $263 $263 $-1 $368 reversed $175 $-1 #
edge $-1 $369 0 $369 6.2831853071796004 $176 $370 forward 7 unknown #
vertex $-1 $179 $371 #
ellipse-curve $-1 42.261953507430754 25.385615279147657 5.08735648660317 0.64278761758704617 0 0.76604443648966558 0.38302221824483279 0 -0.32139380879352308 1 I I #
face $-1 $-1 $195 $27 $-1 $372 reversed single #
loop $-1 $-1 $283 $180 #
plane-surface $-1 0 31.391597546958586 0 0 -1 0 0 0 -1 forward_v I I I I #
coedge $-1 $373 $281 $284 $374 forward $181 $-1 #
coedge $-1 $287 $183 $184 $275 reversed $114 $-1 #
coedge $-1 $281 $373 $183 $273 reversed $181 $-1 #
edge $-1 $288 -8.2413122573917832 $375 8.2413122573917832 $272 $376 forward 7 unknown #
coedge $-1 $185 $184 $373 $377 forward $73 $-1 #
edge $-1 $279 -46.020691549424726 $375 46.020691549424726 $271 $378 forward 7 unknown #
coedge $-1 $284 $283 $185 $277 reversed $268 $-1 #
edge $-1 $379 -46.020691549424726 $278 46.020691549424726 $276 $380 forward 7 unknown #
vertex $-1 $187 $381 #
vertex $-1 $290 $382 #
straight-curve $-1 46.020691549424726 0 -8.2413122573917832 0 -1 0 I I #
coedge $-1 $270 $272 $188 $282 reversed $181 $-1 #
edge $-1 $285 -31.391597546958586 $288 31.391597546958586 $281 $383 forward 7 unknown #
coedge $-1 $276 $189 $194 $291 forward $268 $-1 #
coedge $-1 $189 $276 $270 $374 reversed $268 $-1 #
vertex $-1 $190 $384 #
straight-curve $-1 0 31.391597546958586 8.2413122573917832 -1 0 0 I I #
coedge $-1 $191 $271 $193 $290 reversed $114 $-1 #
vertex $-1 $282 $385 #
straight-curve $-1 0 -31.391597546958586 8.2413122573917832 1 0 0 I I #
edge $-1 $196 -8.2413122573917832 $279 8.2413122573917832 $193 $386 forward 7 unknown #
edge $-1 $197 -8.2413122573917832 $278 8.2413122573917832 $194 $387 forward 7 unknown #
point $-1 46.020691549424726 -31.391597546958586 8.2413122573917832 #
point $-1 46.020691549424726 31.391597546958586 8.2413122573917832 #
face $-1 $-1 $212 $28 $-1 $388 reversed single #
loop $-1 $-1 $301 $199 #
plane-surface $-1 0 0 8.2413122573917832 0 0 1 1 0 0 forward_v I I I I #
coedge $-1 $389 $202 $207 $306 forward $122 $-1 #
coedge $-1 $202 $389 $390 $391 reversed $122 $-1 #
coedge $-1 $204 $203 $202 $300 reversed $77 $-1 #
edge $-1 $392 -5.0888411767386419 $311 -1.2161009845676407 $202 $393 forward 7 unknown #
coedge $-1 $390 $394 $204 $302 forward $295 $-1 #
edge $-1 $304 -46.020691549424726 $392 46.020691549424726 $301 $395 forward 7 unknown #
coedge $-1 $211 $205 $394 $396 reversed $212 $-1 #
vertex $-1 $206 $397 #
straight-curve $-1 46.020691549424726 -22.285429149104978 3.1524710806531413 0 0 1 I I #
edge $-1 $311 8.8661724750890869 $309 17.972340872942695 $297 $398 forward 7 unknown #
coedge $-1 $399 $208 $211 $313 reversed $200 $-1 #
coedge $-1 $208 $399 $389 $400 forward $200 $-1 #
vertex $-1 $209 $401 #
straight-curve $-1 0 -31.391597546958586 4.368572065220782 1 0 0 I I #
vertex $-1 $306 $402 #
straight-curve $-1 0 -22.285429149104978 4.368572065220782 1 0 0 I I #
edge $-1 $403 -8.2413122573917832 $213 -4.368572065220782 $211 $404 forward 7 unknown #
point $-1 46.020691549424726 -31.391597546958586 4.368572065220782 #
point $-1 46.020691549424726 -22.285429149104978 4.368572065220782 #
loop $-1 $-1 $224 $216 #
plane-surface $-1 -46.020691549424726 0 0 1 0 0 0 0 -1 forward_v I I I I #
coedge $-1 $319 $219 $221 $323 reversed $130 $-1 #
coedge $-1 $219 $318 $405 $406 reversed $130 $-1 #
coedge $-1 $227 $222 $219 $321 forward $217 $-1 #
edge $-1 $324 -11.556006212208793 $407 -5.3228214354255243 $320 $408 forward 7 unknown #
coedge $-1 $221 $220 $327 $409 reversed $81 $-1 #
edge $-1 $410 1.8033521786330445e-014 $324 7.9100250802008336 $318 $411 forward 7 unknown #
vertex $-1 $223 $412 #
straight-curve $-1 -39.787506772641457 -5.7496665151865258 8.2413122573917832 0 1 0 I I #
coedge $-1 $405 $224 $227 $331 reversed $316 $-1 #
coedge $-1 $224 $405 $322 $409 forward $316 $-1 #
vertex $-1 $225 $413 #
straight-curve $-1 -46.020691549424726 -18.502250591470911 37.950506794555238 0 0 1 I I #
straight-curve $-1 -46.02069154942474 -18.502250591470911 3.3714144855814396 -0.78801074757464917 0 -0.61566148304635926 I I #
edge $-1 $407 4.4964154692751919 $228 18.502250591470911 $326 $414 forward 7 unknown #
point $-1 -46.020691549424726 -18.502250591470911 8.2413122573917832 #
point $-1 -39.787506772641457 -18.502250591470911 8.2413122573917832 #
edge $-1 $415 1 $415 0 $231 $-1 forward 7 unknown #
vertex $-1 $232 $416 #
ellipse-curve $-1 -39.789557022755076 -14.500583413700706 1.8199313039921625 -0.61566148304635926 0 0.78801074757464917 1.1820161213619738 0 0.92349222456953894 1 I I #
point $-1 -41.722083039671098 -14.500583413700706 6.7298555960561437 #
edge $-1 $417 1 $417 0 $235 $-1 forward 7 unknown #
vertex $-1 $236 $418 #
ellipse-curve $-1 -39.789557022755076 -8.498082647045397 1.8199313039921625 -0.61566148304635926 0 0.78801074757464917 1.1820161213619738 0 0.92349222456953894 1 I I #
point $-1 -41.722083039671098 -8.498082647045397 6.7298555960561437 #
plane-surface $-1 0 0 8.2413122573917832 0 0 1 1 0 0 forward_v I I I I #
coedge $-1 $353 $352 $345 $419 forward $240 $-1 #
coedge $-1 $345 $242 $244 $349 reversed $152 $-1 #
coedge $-1 $242 $344 $343 $419 reversed $152 $-1 #
coedge $-1 $250 $245 $242 $347 forward $251 $-1 #
edge $-1 $350 21.165233734805192 $420 28.682709818793121 $346 $421 forward 7 unknown #
coedge $-1 $244 $243 $353 $422 reversed $95 $-1 #
edge $-1 $423 -92.041383098849479 $350 -82.228014936506128 $344 $424 forward 7 unknown #
vertex $-1 $246 $425 #
straight-curve $-1 38.503215465436789 11.524327726897074 8.2413122573917903 0 -1 0 I I #
coedge $-1 $343 $247 $250 $357 reversed $240 $-1 #
coedge $-1 $247 $343 $348 $422 forward $240 $-1 #
vertex $-1 $248 $426 #
straight-curve $-1 46.020691549424726 26.943588496049994 65.802125763514084 0 0 1 I I #
straight-curve $-1 -24.487097900262846 26.943588496049994 61.096462077340604 0.76604443648966558 0 -0.64278761758704617 I I #
edge $-1 $420 19.1537224115383 $252 26.943588496049994 $352 $427 forward 7 unknown #
point $-1 46.020691549424726 26.943588496049994 8.2413122573917832 #
point $-1 38.503215465436796 26.943588496049994 8.2413122573917832 #
edge $-1 $428 1 $428 0 $255 $-1 forward 7 unknown #
vertex $-1 $256 $429 #
ellipse-curve $-1 41.208044288977561 20.711695628440637 3.8313564155502959 0.64278761758704617 0 0.76604443648966558 0.38302221824483279 0 -0.32139380879352308 1 I I #
point $-1 42.644975725675572 20.711695628440637 4.7659626778096325 #
edge $-1 $430 1 $430 0 $259 $-1 forward 7 unknown #
vertex $-1 $260 $431 #
ellipse-curve $-1 41.208044288977561 23.048655453794147 3.8313564155502959 0.64278761758704617 0 0.76604443648966558 0.38302221824483279 0 -0.32139380879352308 1 I I #
point $-1 42.644975725675572 23.048655453794147 4.7659626778096325 #
edge $-1 $432 1 $432 0 $263 $-1 forward 7 unknown #
vertex $-1 $264 $433 #
ellipse-curve $-1 41.208044288977561 25.385615279147657 3.8313564155502959 0.64278761758704617 0 0.76604443648966558 0.38302221824483279 0 -0.32139380879352308 1 I I #
point $-1 42.644975725675572 25.385615279147657 4.7659626778096325 #
plane-surface $-1 46.020691549424726 0 0 -1 0 0 0 0 1 forward_v I I I I #
coedge $-1 $272 $270 $274 $377 reversed $181 $-1 #
edge $-1 $285 -8.2413122573917832 $379 8.2413122573917832 $284 $434 forward 7 unknown #
vertex $-1 $377 $435 #
straight-curve $-1 -46.020691549424726 -31.391597546958586 0 0 0 -1 I I #
edge $-1 $375 -31.391597546958586 $379 31.391597546958586 $373 $436 forward 7 unknown #
straight-curve $-1 0 -31.391597546958586 -8.2413122573917832 -1 0 0 I I #
vertex $-1 $277 $437 #
straight-curve $-1 0 31.391597546958586 -8.2413122573917832 1 0 0 I I #
point $-1 46.020691549424726 31.391597546958586 -8.2413122573917832 #
point $-1 46.020691549424726 -31.391597546958586 -8.2413122573917832 #
straight-curve $-1 -46.020691549424726 0 8.2413122573917832 0 -1 0 I I #
point $-1 -46.020691549424726 31.391597546958586 8.2413122573917832 #
point $-1 -46.020691549424726 -31.391597546958586 8.2413122573917832 #
straight-curve $-1 46.020691549424726 -31.391597546958586 0 0 0 -1 I I #
straight-curve $-1 46.020691549424726 31.391597546958586 0 0 0 -1 I I #
plane-surface $-1 46.020691549424726 0 0 -1 0 0 0 0 1 forward_v I I I I #
coedge $-1 $298 $297 $308 $400 reversed $122 $-1 #
coedge $-1 $438 $301 $298 $391 forward $295 $-1 #
edge $-1 $392 22.285429149104978 $439 31.391597546958586 $298 $440 forward 7 unknown #
vertex $-1 $391 $441 #
straight-curve $-1 -46.020691549424726 -22.285429149104978 3.1524710806531413 0 0 -1 I I #
coedge $-1 $301 $438 $303 $396 forward $295 $-1 #
straight-curve $-1 0 -22.285429149104978 8.2413122573917832 -1 0 0 I I #
edge $-1 $403 -31.391597546958586 $304 -22.285429149104978 $303 $442 forward 7 unknown #
point $-1 46.020691549424726 -22.285429149104978 8.2413122573917832 #
straight-curve $-1 -46.020691549424726 -13.419256674015891 4.368572065220782 0 -1 0 I I #
coedge $-1 $308 $307 $438 $443 reversed $200 $-1 #
edge $-1 $439 -8.2413122573917832 $309 -4.368572065220782 $389 $444 forward 7 unknown #
point $-1 -46.020691549424726 -31.391597546958586 4.368572065220782 #
point $-1 -46.020691549424726 -22.285429149104978 4.368572065220782 #
vertex $-1 $396 $445 #
straight-curve $-1 46.020691549424726 -31.391597546958586 0 0 0 -1 I I #
coedge $-1 $327 $326 $319 $406 forward $316 $-1 #
edge $-1 $407 29.709194537163455 $410 34.579092308973784 $405 $446 forward 7 unknown #
vertex $-1 $331 $447 #
straight-curve $-1 -51.34351298485025 -4.4964154692751919 8.2413122573917832 -1 0 0 I I #
edge $-1 $410 -1.253251045911334 $328 12.752584076284386 $327 $448 forward 7 unknown #
vertex $-1 $409 $449 #
straight-curve $-1 -46.02069154942474 -4.4964154692751919 3.3714144855814396 0.78801074757464917 0 0.61566148304635926 I I #
point $-1 -39.787506772641457 -4.4964154692751919 8.2413122573917832 #
point $-1 -46.020691549424726 -18.502250591470911 3.3714144855814507 #
straight-curve $-1 -46.020691549424726 0 8.2413122573917832 0 -1 0 I I #
vertex $-1 $334 $450 #
point $-1 -38.607540901393101 -14.500583413700706 2.7434235285617015 #
vertex $-1 $338 $451 #
point $-1 -38.607540901393101 -8.498082647045397 2.7434235285617015 #
edge $-1 $420 57.560813506122301 $423 63.868725047699556 $343 $452 forward 7 unknown #
vertex $-1 $357 $453 #
straight-curve $-1 17.337981730631604 19.1537224115383 8.2413122573917832 1 0 0 I I #
edge $-1 $423 7.6293946846412268 $354 15.41926076915292 $353 $454 forward 7 unknown #
vertex $-1 $422 $455 #
straight-curve $-1 -24.487097900262846 19.1537224115383 61.096462077340604 -0.76604443648966558 0 0.64278761758704617 I I #
point $-1 38.503215465436796 19.1537224115383 8.2413122573917832 #
point $-1 46.020691549424733 26.943588496049994 1.9334007158145283 #
straight-curve $-1 46.020691549424726 0 8.2413122573917832 0 1 0 I I #
vertex $-1 $360 $456 #
point $-1 41.591066507222401 20.711695628440637 3.5099626067567731 #
vertex $-1 $364 $457 #
point $-1 41.591066507222401 23.048655453794147 3.5099626067567731 #
vertex $-1 $368 $458 #
point $-1 41.591066507222401 25.385615279147657 3.5099626067567731 #
straight-curve $-1 -46.020691549424726 31.391597546958586 0 0 0 -1 I I #
point $-1 -46.020691549424726 -31.391597546958586 -8.2413122573917832 #
straight-curve $-1 -46.020691549424726 0 -8.2413122573917832 0 1 0 I I #
point $-1 -46.020691549424726 31.391597546958586 -8.2413122573917832 #
coedge $-1 $394 $390 $399 $443 forward $295 $-1 #
vertex $-1 $391 $459 #
straight-curve $-1 -46.020691549424726 0 8.2413122573917832 0 -1 0 I I #
point $-1 -46.020691549424726 -22.285429149104978 8.2413122573917832 #
straight-curve $-1 46.020691549424726 0 8.2413122573917832 0 1 0 I I #
edge $-1 $439 -46.020691549424726 $403 46.020691549424726 $399 $460 forward 7 unknown #
straight-curve $-1 -46.020691549424726 -31.391597546958586 0 0 0 -1 I I #
point $-1 46.020691549424726 -31.391597546958586 8.2413122573917832 #
straight-curve $-1 -46.020691549424726 -4.4964154692751919 37.950506794555238 0 0 -1 I I #
point $-1 -46.020691549424726 -4.4964154692751919 8.2413122573917832 #
straight-curve $-1 -46.020691549424726 -5.7496665151865258 3.3714144855814494 0 -1 0 I I #
point $-1 -46.020691549424726 -4.4964154692751919 3.3714144855814507 #
point $-1 -38.866064798185533 -14.500583413700706 0.63791518263018876 #
point $-1 -38.866064798185533 -8.498082647045397 0.63791518263018876 #
straight-curve $-1 46.020691549424726 19.1537224115383 65.802125763514084 0 0 -1 I I #
point $-1 46.020691549424726 19.1537224115383 8.2413122573917832 #
straight-curve $-1 46.020691549424718 11.524327726897074 1.9334007158145461 0 1 0 I I #
point $-1 46.020691549424733 19.1537224115383 1.9334007158145283 #
point $-1 40.886650480184045 20.711695628440637 3.4483341973054635 #
point $-1 40.886650480184045 23.048655453794147 3.4483341973054635 #
point $-1 40.886650480184045 25.385615279147657 3.4483341973054635 #
point $-1 -46.020691549424726 -31.391597546958586 8.2413122573917832 #
straight-curve $-1 0 -31.391597546958586 8.2413122573917832 1 0 0 I I #
End-of-ACIS-data 