500 0 9 0           
7 Unknown 11 ACIS 5.0 NT 24 Fri Mar 26 01:32:31 1999 
-1 9.9999999999999995e-007 1e-010 
body $-1 $9 $-1 $10 #
body $-1 $11 $-1 $12 #
body $-1 $13 $-1 $14 #
body $-1 $15 $-1 $16 #
body $-1 $17 $-1 $18 #
body $-1 $19 $-1 $20 #
body $-1 $21 $-1 $22 #
body $-1 $23 $-1 $24 #
body $-1 $25 $-1 $26 #
lump $-1 $-1 $27 $0 #
transform $-1 1 0 0 0 1 0 0 0 1 48.513443403424176 19.421367387577654 6.2006480582642185 1 rotate no_reflect no_shear #
lump $-1 $-1 $28 $1 #
transform $-1 1 0 0 0 1 0 0 0 1 48.513443403424176 19.421367387577654 6.2006480582642185 1 rotate no_reflect no_shear #
lump $-1 $-1 $29 $2 #
transform $-1 1 0 0 0 1 0 0 0 1 48.513443403424176 19.421367387577654 6.2006480582642185 1 rotate no_reflect no_shear #
lump $-1 $-1 $30 $3 #
transform $-1 1 0 0 0 1 0 0 0 1 48.513443403424176 19.421367387577654 6.2006480582642185 1 rotate no_reflect no_shear #
lump $-1 $-1 $31 $4 #
transform $-1 1 0 0 0 1 0 0 0 1 48.513443403424176 19.421367387577654 6.2006480582642185 1 rotate no_reflect no_shear #
lump $-1 $-1 $32 $5 #
transform $-1 1 0 0 0 1 0 0 0 1 48.513443403424176 19.421367387577654 6.2006480582642185 1 rotate no_reflect no_shear #
lump $-1 $-1 $33 $6 #
transform $-1 1 0 0 0 1 0 0 0 1 48.513443403424176 19.421367387577654 6.2006480582642185 1 rotate no_reflect no_shear #
lump $-1 $-1 $34 $7 #
transform $-1 1 0 0 0 1 0 0 0 1 48.513443403424176 19.421367387577654 6.2006480582642185 1 rotate no_reflect no_shear #
lump $-1 $-1 $35 $8 #
transform $-1 1 0 0 0 1 0 0 0 1 48.513443403424176 19.421367387577654 6.2006480582642185 1 rotate no_reflect no_shear #
shell $-1 $-1 $-1 $36 $-1 $9 #
shell $-1 $-1 $-1 $37 $-1 $11 #
shell $-1 $-1 $-1 $38 $-1 $13 #
shell $-1 $-1 $-1 $39 $-1 $15 #
shell $-1 $-1 $-1 $40 $-1 $17 #
shell $-1 $-1 $-1 $41 $-1 $19 #
shell $-1 $-1 $-1 $42 $-1 $21 #
shell $-1 $-1 $-1 $43 $-1 $23 #
shell $-1 $-1 $-1 $44 $-1 $25 #
face $-1 $45 $46 $27 $-1 $47 forward single #
face $-1 $48 $49 $28 $-1 $50 forward single #
face $-1 $51 $52 $29 $-1 $53 forward single #
face $-1 $54 $55 $30 $-1 $56 reversed single #
face $-1 $57 $58 $31 $-1 $59 forward single #
face $-1 $60 $61 $32 $-1 $62 reversed single #
face $-1 $63 $64 $33 $-1 $65 forward single #
face $-1 $66 $67 $34 $-1 $68 reversed single #
face $-1 $69 $70 $35 $-1 $71 forward single #
face $-1 $72 $73 $27 $-1 $74 reversed single #
loop $-1 $-1 $75 $36 #
plane-surface $-1 0 0 6.2006480582642185 0 0 1 1 0 0 forward_v I I I I #
face $-1 $76 $77 $28 $-1 $78 reversed single #
loop $-1 $-1 $79 $37 #
plane-surface $-1 0 -19.421367387577654 0 0 1 0 0 0 1 forward_v I I I I #
face $-1 $80 $81 $29 $-1 $82 reversed single #
loop $-1 $-1 $83 $38 #
plane-surface $-1 0 19.421367387577654 0 0 -1 0 0 0 -1 forward_v I I I I #
face $-1 $84 $85 $30 $-1 $86 reversed single #
loop $-1 $-1 $87 $39 #
plane-surface $-1 -99.929860549844193 -10.905690853648103 83.637492618530558 0 1 0 -0.52991927123019833 0 0.84804809178421925 forward_v I I I I #
face $-1 $88 $89 $31 $-1 $90 forward single #
loop $-1 $91 $92 $40 #
cone-surface $-1 -43.867472485992074 -7.9200341911472485 2.5484995805684498 0.52991927123019833 0 -0.84804809178421925 0.84804809178421925 0 0.52991927123019833 1 I I 0 1 1 forward I I I I #
face $-1 $93 $94 $32 $-1 $95 reversed single #
loop $-1 $-1 $96 $41 #
plane-surface $-1 -99.929860549844193 -2.9856566625008538 83.637492618530558 0 1 0 -0.52991927123019833 0 0.84804809178421925 forward_v I I I I #
face $-1 $97 $98 $33 $-1 $99 forward single #
loop $-1 $100 $101 $42 #
cone-surface $-1 -43.867472485992074 0 2.5484995805684498 0.52991927123019833 0 -0.84804809178421925 0.84804809178421925 0 0.52991927123019833 1 I I 0 1 1 forward I I I I #
face $-1 $102 $103 $34 $-1 $104 reversed single #
loop $-1 $-1 $105 $43 #
plane-surface $-1 -99.929860549844193 4.9343775286463947 83.637492618530558 0 1 0 -0.52991927123019833 0 0.84804809178421925 forward_v I I I I #
face $-1 $106 $107 $35 $-1 $108 forward single #
loop $-1 $109 $110 $44 #
cone-surface $-1 -43.867472485992074 7.9200341911472485 2.5484995805684498 0.52991927123019833 0 -0.84804809178421925 0.84804809178421925 0 0.52991927123019833 1 I I 0 1 1 forward I I I I #
face $-1 $111 $112 $27 $-1 $113 reversed single #
loop $-1 $-1 $114 $45 #
plane-surface $-1 0 0 -6.2006480582642185 0 0 1 1 0 0 forward_v I I I I #
coedge $-1 $115 $116 $117 $118 forward $46 $-1 #
face $-1 $119 $120 $28 $-1 $121 reversed single #
loop $-1 $-1 $122 $48 #
plane-surface $-1 0 0 -6.2006480582642185 0 0 1 1 0 0 forward_v I I I I #
coedge $-1 $123 $124 $125 $126 forward $49 $-1 #
face $-1 $127 $128 $29 $-1 $129 forward single #
loop $-1 $-1 $130 $51 #
plane-surface $-1 -48.513443403424176 0 0 1 0 0 0 0 -1 forward_v I I I I #
coedge $-1 $131 $132 $133 $134 forward $52 $-1 #
face $-1 $135 $136 $30 $-1 $137 reversed single #
loop $-1 $-1 $138 $54 #
plane-surface $-1 -48.513443403424169 -7.9200341911472485 1.354026410219376 -0.52991927123019833 0 0.84804809178421925 0.84804809178421925 0 0.52991927123019833 forward_v I I I I #
coedge $-1 $139 $140 $141 $142 reversed $55 $-1 #
face $-1 $-1 $143 $31 $-1 $144 forward single #
loop $-1 $145 $146 $57 #
cone-surface $-1 -42.83464984802675 -7.9200341911472485 0.89563788100298769 0.52991927123019833 0 -0.84804809178421925 0.42402404589210962 0 0.26495963561509916 1 I I -0.70710678118654746 0.70710678118654746 0.5 forward I I I I #
loop $-1 $-1 $147 $40 #
coedge $-1 $92 $92 $148 $149 reversed $58 $-1 #
face $-1 $150 $151 $32 $-1 $152 reversed single #
loop $-1 $-1 $153 $60 #
plane-surface $-1 -48.513443403424169 0 1.354026410219376 -0.52991927123019833 0 0.84804809178421925 0.84804809178421925 0 0.52991927123019833 forward_v I I I I #
coedge $-1 $154 $155 $156 $157 reversed $61 $-1 #
face $-1 $-1 $158 $33 $-1 $159 forward single #
loop $-1 $160 $161 $63 #
cone-surface $-1 -42.83464984802675 0 0.89563788100298769 0.52991927123019833 0 -0.84804809178421925 0.42402404589210962 0 0.26495963561509916 1 I I -0.70710678118654746 0.70710678118654746 0.5 forward I I I I #
loop $-1 $-1 $162 $42 #
coedge $-1 $101 $101 $163 $164 reversed $64 $-1 #
face $-1 $165 $166 $34 $-1 $167 reversed single #
loop $-1 $-1 $168 $66 #
plane-surface $-1 -48.513443403424169 7.9200341911472485 1.354026410219376 -0.52991927123019833 0 0.84804809178421925 0.84804809178421925 0 0.52991927123019833 forward_v I I I I #
coedge $-1 $169 $170 $171 $172 reversed $67 $-1 #
face $-1 $-1 $173 $35 $-1 $174 forward single #
loop $-1 $175 $176 $69 #
cone-surface $-1 -42.83464984802675 7.9200341911472485 0.89563788100298769 0.52991927123019833 0 -0.84804809178421925 0.42402404589210962 0 0.26495963561509916 1 I I -0.70710678118654746 0.70710678118654746 0.5 forward I I I I #
loop $-1 $-1 $177 $44 #
coedge $-1 $110 $110 $178 $179 reversed $70 $-1 #
face $-1 $180 $181 $27 $-1 $182 reversed single #
loop $-1 $-1 $183 $72 #
plane-surface $-1 0 -19.421367387577654 0 0 1 0 0 0 1 forward_v I I I I #
coedge $-1 $184 $185 $186 $187 forward $73 $-1 #
coedge $-1 $188 $75 $189 $190 forward $46 $-1 #
coedge $-1 $75 $188 $191 $192 forward $46 $-1 #
coedge $-1 $193 $194 $75 $118 reversed $195 $-1 #
edge $-1 $196 -19.421367387577654 $197 19.421367387577654 $117 $198 forward 7 unknown #
face $-1 $199 $200 $28 $-1 $201 forward single #
loop $-1 $-1 $202 $76 #
plane-surface $-1 48.513443403424176 0 0 -1 0 0 0 0 1 forward_v I I I I #
coedge $-1 $203 $204 $205 $206 forward $77 $-1 #
coedge $-1 $205 $79 $202 $207 reversed $49 $-1 #
coedge $-1 $79 $205 $208 $209 reversed $49 $-1 #
coedge $-1 $210 $211 $79 $126 reversed $200 $-1 #
edge $-1 $212 -48.513443403424176 $213 48.513443403424176 $125 $214 forward 7 unknown #
face $-1 $215 $216 $29 $-1 $217 reversed single #
loop $-1 $-1 $218 $80 #
plane-surface $-1 0 21.730484788396886 -3.1051873567207617 0 0 1 1 0 0 forward_v I I I I #
coedge $-1 $219 $220 $131 $221 forward $81 $-1 #
coedge $-1 $222 $83 $130 $221 reversed $52 $-1 #
coedge $-1 $83 $222 $223 $224 reversed $52 $-1 #
coedge $-1 $218 $225 $83 $134 reversed $128 $-1 #
edge $-1 $226 -48.513443403424176 $227 48.513443403424176 $133 $228 forward 7 unknown #
face $-1 $229 $230 $30 $-1 $231 reversed single #
loop $-1 $-1 $232 $84 #
plane-surface $-1 -99.929860549844193 -4.9343775286463947 83.637492618530558 0 -1 0 0.52991927123019833 0 -0.84804809178421925 forward_v I I I I #
coedge $-1 $233 $234 $235 $236 reversed $85 $-1 #
coedge $-1 $140 $87 $237 $238 reversed $55 $-1 #
coedge $-1 $87 $139 $233 $239 reversed $55 $-1 #
coedge $-1 $235 $240 $87 $142 forward $241 $-1 #
edge $-1 $242 1.4514868714979201 $243 9.2077027016617023 $141 $244 forward 7 unknown #
loop $-1 $-1 $148 $88 #
plane-surface $-1 -48.513443403424169 -7.9200341911472485 1.354026410219376 -0.52991927123019833 0 0.84804809178421925 0.84804809178421925 0 0.52991927123019833 forward_v I I I I #
loop $-1 $-1 $245 $57 #
coedge $-1 $146 $146 $147 $246 reversed $89 $-1 #
coedge $-1 $147 $147 $146 $246 forward $91 $-1 #
coedge $-1 $148 $148 $92 $149 forward $143 $-1 #
edge $-1 $247 0 $247 6.2831853071796004 $148 $248 forward 7 unknown #
face $-1 $249 $250 $32 $-1 $251 forward single #
loop $-1 $-1 $252 $93 #
plane-surface $-1 -99.929860549844193 2.9856566625008538 83.637492618530558 0 -1 0 0.52991927123019833 0 -0.84804809178421925 forward_v I I I I #
coedge $-1 $253 $254 $255 $256 reversed $94 $-1 #
coedge $-1 $155 $96 $257 $258 reversed $61 $-1 #
coedge $-1 $96 $154 $253 $259 reversed $61 $-1 #
coedge $-1 $255 $260 $96 $157 forward $250 $-1 #
edge $-1 $261 1.4514868714979201 $262 9.2077027016617023 $156 $263 forward 7 unknown #
loop $-1 $-1 $163 $97 #
plane-surface $-1 -48.513443403424169 0 1.354026410219376 -0.52991927123019833 0 0.84804809178421925 0.84804809178421925 0 0.52991927123019833 forward_v I I I I #
loop $-1 $-1 $264 $63 #
coedge $-1 $161 $161 $162 $265 reversed $98 $-1 #
coedge $-1 $162 $162 $161 $265 forward $100 $-1 #
coedge $-1 $163 $163 $101 $164 forward $158 $-1 #
edge $-1 $266 0 $266 6.2831853071796004 $163 $267 forward 7 unknown #
face $-1 $268 $269 $34 $-1 $270 forward single #
loop $-1 $-1 $271 $102 #
plane-surface $-1 -99.929860549844193 10.905690853648103 83.637492618530558 0 -1 0 0.52991927123019833 0 -0.84804809178421925 forward_v I I I I #
coedge $-1 $272 $273 $274 $275 reversed $103 $-1 #
coedge $-1 $170 $105 $276 $277 reversed $67 $-1 #
coedge $-1 $105 $169 $272 $278 reversed $67 $-1 #
coedge $-1 $274 $279 $105 $172 forward $269 $-1 #
edge $-1 $280 1.4514868714979201 $281 9.2077027016617023 $171 $282 forward 7 unknown #
loop $-1 $-1 $178 $106 #
plane-surface $-1 -48.513443403424169 7.9200341911472485 1.354026410219376 -0.52991927123019833 0 0.84804809178421925 0.84804809178421925 0 0.52991927123019833 forward_v I I I I #
loop $-1 $-1 $283 $69 #
coedge $-1 $176 $176 $177 $284 reversed $107 $-1 #
coedge $-1 $177 $177 $176 $284 forward $109 $-1 #
coedge $-1 $178 $178 $110 $179 forward $173 $-1 #
edge $-1 $285 0 $285 6.2831853071796004 $178 $286 forward 7 unknown #
face $-1 $287 $288 $27 $-1 $289 reversed single #
loop $-1 $-1 $290 $111 #
plane-surface $-1 -48.513443403424176 0 0 1 0 0 0 0 -1 forward_v I I I I #
coedge $-1 $191 $291 $193 $292 reversed $112 $-1 #
coedge $-1 $293 $114 $291 $294 forward $73 $-1 #
coedge $-1 $114 $293 $295 $296 forward $73 $-1 #
coedge $-1 $194 $193 $114 $187 reversed $195 $-1 #
edge $-1 $297 -19.421367387577654 $298 19.421367387577654 $186 $299 forward 7 unknown #
coedge $-1 $116 $115 $300 $301 forward $46 $-1 #
coedge $-1 $302 $303 $115 $190 reversed $288 $-1 #
edge $-1 $197 -48.513443403424176 $304 48.513443403424176 $189 $305 forward 7 unknown #
coedge $-1 $306 $183 $116 $192 reversed $112 $-1 #
edge $-1 $307 -48.513443403424176 $196 48.513443403424176 $191 $308 forward 7 unknown #
coedge $-1 $186 $117 $183 $292 forward $195 $-1 #
coedge $-1 $117 $186 $302 $309 reversed $195 $-1 #
loop $-1 $-1 $193 $287 #
vertex $-1 $118 $310 #
vertex $-1 $118 $311 #
straight-curve $-1 48.513443403424176 0 6.2006480582642185 0 1 0 I I #
face $-1 $312 $313 $28 $-1 $314 reversed single #
loop $-1 $-1 $211 $119 #
plane-surface $-1 0 -21.73048478839689 -3.1051873567207617 0 0 1 1 0 0 forward_v I I I I #
coedge $-1 $315 $316 $123 $207 forward $120 $-1 #
coedge $-1 $317 $122 $316 $318 forward $77 $-1 #
coedge $-1 $122 $317 $319 $320 forward $77 $-1 #
coedge $-1 $124 $123 $122 $206 reversed $49 $-1 #
edge $-1 $321 -48.513443403424176 $322 48.513443403424176 $122 $323 forward 7 unknown #
edge $-1 $322 -6.2006480582642185 $213 -3.1051873567207617 $202 $324 forward 7 unknown #
coedge $-1 $319 $325 $124 $209 forward $326 $-1 #
edge $-1 $212 3.1051873567207617 $321 6.2006480582642185 $208 $327 forward 7 unknown #
coedge $-1 $328 $125 $325 $329 forward $200 $-1 #
coedge $-1 $125 $328 $315 $330 forward $200 $-1 #
vertex $-1 $209 $331 #
vertex $-1 $330 $332 #
straight-curve $-1 0 -19.421367387577654 -3.1051873567207617 1 0 0 I I #
face $-1 $333 $334 $29 $-1 $335 reversed single #
loop $-1 $-1 $336 $127 #
plane-surface $-1 0 24.039602189216122 -4.6529177074924899 0 -1 0 0 0 -1 forward_v I I I I #
coedge $-1 $337 $133 $338 $339 forward $128 $-1 #
coedge $-1 $340 $130 $225 $341 reversed $81 $-1 #
coedge $-1 $130 $340 $342 $343 reversed $81 $-1 #
edge $-1 $344 -6.2006480582642185 $227 -3.1051873567207617 $130 $345 forward 7 unknown #
coedge $-1 $132 $131 $346 $347 reversed $52 $-1 #
coedge $-1 $348 $338 $132 $224 forward $349 $-1 #
edge $-1 $226 3.1051873567207617 $350 6.2006480582642185 $223 $351 forward 7 unknown #
coedge $-1 $133 $337 $219 $341 forward $128 $-1 #
vertex $-1 $224 $352 #
vertex $-1 $341 $353 #
straight-curve $-1 0 19.421367387577654 -3.1051873567207617 -1 0 0 I I #
face $-1 $-1 $241 $30 $-1 $354 forward single #
loop $-1 $-1 $355 $135 #
plane-surface $-1 -48.513443403424176 0 0 1 0 0 0 0 -1 forward_v I I I I #
coedge $-1 $356 $357 $358 $359 reversed $136 $-1 #
coedge $-1 $360 $138 $140 $239 forward $85 $-1 #
coedge $-1 $138 $360 $356 $361 forward $85 $-1 #
coedge $-1 $358 $141 $138 $236 forward $241 $-1 #
edge $-1 $243 -6.945673758074479 $362 -0.97436043307277043 $235 $363 forward 7 unknown #
coedge $-1 $364 $365 $139 $238 forward $230 $-1 #
edge $-1 $366 -40.46471989904591 $242 -35.618098251001058 $237 $367 forward 7 unknown #
edge $-1 $243 -9.1459622458973691 $366 8.3790584163743152e-015 $140 $368 forward 7 unknown #
coedge $-1 $141 $358 $364 $369 forward $241 $-1 #
loop $-1 $-1 $358 $229 #
vertex $-1 $238 $370 #
vertex $-1 $142 $371 #
straight-curve $-1 -49.964930274922096 -10.905690853648103 6.2006480582642212 1 0 0 I I #
coedge $-1 $245 $245 $-1 $372 reversed $145 $-1 #
edge $-1 $373 0 $373 6.2831853071796004 $146 $374 forward 7 unknown #
vertex $-1 $149 $375 #
ellipse-curve $-1 -44.635335488342292 -7.9200341911472485 3.7773372342417901 -0.52991927123019833 0 0.84804809178421925 0.84804809178421925 0 0.52991927123019833 1 I I #
face $-1 $-1 $376 $32 $-1 $377 reversed single #
loop $-1 $-1 $156 $150 #
plane-surface $-1 0 0 6.2006480582642185 0 0 1 1 0 0 forward_v I I I I #
coedge $-1 $378 $379 $380 $381 reversed $151 $-1 #
coedge $-1 $382 $153 $155 $259 forward $94 $-1 #
coedge $-1 $153 $382 $378 $383 forward $94 $-1 #
coedge $-1 $380 $156 $153 $256 forward $250 $-1 #
edge $-1 $262 -2.9856566625008538 $384 2.9856566625008538 $255 $385 forward 7 unknown #
coedge $-1 $386 $387 $154 $258 forward $376 $-1 #
edge $-1 $388 -40.46471989904591 $261 -35.618098251001058 $257 $389 forward 7 unknown #
edge $-1 $262 -9.1459622458973691 $388 8.3790584163743152e-015 $155 $390 forward 7 unknown #
coedge $-1 $156 $380 $386 $391 forward $250 $-1 #
vertex $-1 $157 $392 #
vertex $-1 $157 $393 #
straight-curve $-1 -49.964930274922096 -2.9856566625008538 6.2006480582642212 1 0 0 I I #
coedge $-1 $264 $264 $-1 $394 reversed $160 $-1 #
edge $-1 $395 0 $395 6.2831853071796004 $161 $396 forward 7 unknown #
vertex $-1 $164 $397 #
ellipse-curve $-1 -44.635335488342292 0 3.7773372342417901 -0.52991927123019833 0 0.84804809178421925 0.84804809178421925 0 0.52991927123019833 1 I I #
face $-1 $-1 $398 $34 $-1 $399 reversed single #
loop $-1 $-1 $171 $165 #
plane-surface $-1 0 0 6.2006480582642185 0 0 1 1 0 0 forward_v I I I I #
coedge $-1 $400 $401 $402 $403 reversed $166 $-1 #
coedge $-1 $404 $168 $170 $278 forward $103 $-1 #
coedge $-1 $168 $404 $400 $405 forward $103 $-1 #
coedge $-1 $402 $171 $168 $275 forward $269 $-1 #
edge $-1 $281 0.97436043307277043 $406 6.945673758074479 $274 $407 forward 7 unknown #
coedge $-1 $408 $409 $169 $277 forward $398 $-1 #
edge $-1 $410 -40.46471989904591 $280 -35.618098251001058 $276 $411 forward 7 unknown #
edge $-1 $281 -9.1459622458973691 $410 8.3790584163743152e-015 $170 $412 forward 7 unknown #
coedge $-1 $171 $402 $408 $413 forward $269 $-1 #
vertex $-1 $172 $414 #
vertex $-1 $172 $415 #
straight-curve $-1 -49.964930274922096 4.9343775286463947 6.2006480582642212 1 0 0 I I #
coedge $-1 $283 $283 $-1 $416 reversed $175 $-1 #
edge $-1 $417 0 $417 6.2831853071796004 $176 $418 forward 7 unknown #
vertex $-1 $179 $419 #
ellipse-curve $-1 -44.635335488342292 7.9200341911472485 3.7773372342417901 -0.52991927123019833 0 0.84804809178421925 0.84804809178421925 0 0.52991927123019833 1 I I #
face $-1 $-1 $195 $27 $-1 $420 reversed single #
loop $-1 $-1 $303 $180 #
plane-surface $-1 0 19.421367387577654 0 0 -1 0 0 0 -1 forward_v I I I I #
coedge $-1 $421 $300 $303 $422 forward $181 $-1 #
coedge $-1 $183 $306 $184 $294 reversed $112 $-1 #
edge $-1 $196 -6.2006480582642185 $298 6.2006480582642185 $193 $423 forward 7 unknown #
coedge $-1 $185 $184 $421 $424 forward $73 $-1 #
edge $-1 $298 -48.513443403424176 $425 48.513443403424176 $291 $426 forward 7 unknown #
coedge $-1 $303 $302 $185 $296 reversed $288 $-1 #
edge $-1 $427 -48.513443403424176 $297 48.513443403424176 $295 $428 forward 7 unknown #
vertex $-1 $187 $429 #
vertex $-1 $292 $430 #
straight-curve $-1 48.513443403424176 0 -6.2006480582642185 0 -1 0 I I #
coedge $-1 $290 $431 $188 $301 reversed $181 $-1 #
edge $-1 $304 -19.421367387577654 $307 19.421367387577654 $300 $432 forward 7 unknown #
coedge $-1 $295 $189 $194 $309 forward $288 $-1 #
coedge $-1 $189 $295 $290 $422 reversed $288 $-1 #
vertex $-1 $190 $433 #
straight-curve $-1 0 19.421367387577654 6.2006480582642185 -1 0 0 I I #
coedge $-1 $291 $191 $431 $434 forward $112 $-1 #
vertex $-1 $301 $435 #
straight-curve $-1 0 -19.421367387577654 6.2006480582642185 1 0 0 I I #
edge $-1 $197 -6.2006480582642185 $297 6.2006480582642185 $194 $436 forward 7 unknown #
point $-1 48.513443403424176 -19.421367387577654 6.2006480582642185 #
point $-1 48.513443403424176 19.421367387577654 6.2006480582642185 #
face $-1 $-1 $326 $28 $-1 $437 reversed single #
loop $-1 $-1 $438 $199 #
plane-surface $-1 0 -24.039602189216126 -4.6529177074924899 0 1 0 0 0 1 forward_v I I I I #
coedge $-1 $439 $202 $211 $330 reversed $120 $-1 #
coedge $-1 $202 $439 $203 $318 reversed $120 $-1 #
coedge $-1 $204 $203 $440 $441 forward $77 $-1 #
edge $-1 $322 19.421367387577654 $442 24.039602189216126 $316 $443 forward 7 unknown #
coedge $-1 $444 $208 $204 $320 reversed $326 $-1 #
edge $-1 $445 -24.039602189216126 $321 -19.421367387577654 $319 $446 forward 7 unknown #
vertex $-1 $209 $447 #
vertex $-1 $318 $448 #
straight-curve $-1 0 -19.421367387577654 -6.2006480582642185 1 0 0 I I #
straight-curve $-1 48.513443403424176 -19.421367387577654 0 0 0 1 I I #
coedge $-1 $208 $444 $210 $329 reversed $326 $-1 #
loop $-1 $-1 $208 $312 #
straight-curve $-1 -48.513443403424176 -19.421367387577654 0 0 0 -1 I I #
coedge $-1 $211 $210 $449 $450 forward $200 $-1 #
edge $-1 $212 -2.3091174008192361 $451 2.3091174008192361 $325 $452 forward 7 unknown #
edge $-1 $453 -2.3091174008192361 $213 2.3091174008192361 $315 $454 forward 7 unknown #
point $-1 -48.513443403424176 -19.421367387577654 -3.1051873567207617 #
point $-1 48.513443403424176 -19.421367387577654 -3.1051873567207617 #
face $-1 $-1 $349 $29 $-1 $455 reversed single #
loop $-1 $-1 $346 $215 #
plane-surface $-1 0 0 -6.2006480582642185 0 0 1 1 0 0 forward_v I I I I #
coedge $-1 $456 $457 $458 $459 forward $216 $-1 #
coedge $-1 $225 $218 $457 $460 forward $128 $-1 #
coedge $-1 $223 $458 $218 $339 reversed $349 $-1 #
edge $-1 $226 -2.3091174008192361 $461 2.3091174008192361 $338 $462 forward 7 unknown #
coedge $-1 $220 $219 $463 $464 forward $81 $-1 #
edge $-1 $465 -2.3091174008192361 $227 2.3091174008192361 $219 $466 forward 7 unknown #
coedge $-1 $467 $346 $220 $343 forward $334 $-1 #
edge $-1 $344 -2.3091174008192326 $468 2.3091174008192361 $220 $469 forward 7 unknown #
vertex $-1 $343 $470 #
straight-curve $-1 -48.513443403424176 19.421367387577654 0 0 0 1 I I #
coedge $-1 $342 $471 $222 $347 forward $334 $-1 #
edge $-1 $350 -48.513443403424176 $344 48.513443403424176 $346 $472 forward 7 unknown #
coedge $-1 $458 $223 $471 $473 reversed $349 $-1 #
loop $-1 $-1 $223 $333 #
vertex $-1 $224 $474 #
straight-curve $-1 48.513443403424176 19.421367387577654 0 0 0 -1 I I #
point $-1 48.513443403424176 19.42136738757765 -3.1051873567207617 #
point $-1 -48.513443403424176 19.42136738757765 -3.1051873567207617 #
plane-surface $-1 0 0 6.2006480582642185 0 0 1 1 0 0 forward_v I I I I #
coedge $-1 $365 $364 $357 $475 forward $230 $-1 #
coedge $-1 $357 $232 $234 $361 reversed $136 $-1 #
coedge $-1 $232 $356 $355 $475 reversed $136 $-1 #
coedge $-1 $240 $235 $232 $359 forward $241 $-1 #
edge $-1 $362 -9.2077027016617023 $476 -1.4514868714979201 $358 $477 forward 7 unknown #
coedge $-1 $234 $233 $365 $478 reversed $85 $-1 #
edge $-1 $479 -8.3790584163743152e-015 $362 9.1459622458973691 $356 $480 forward 7 unknown #
vertex $-1 $236 $481 #
straight-curve $-1 -40.757227573260394 -3.9600170955736242 6.2006480582642176 0 1 0 I I #
coedge $-1 $355 $237 $240 $369 reversed $230 $-1 #
coedge $-1 $237 $355 $360 $478 forward $230 $-1 #
vertex $-1 $238 $482 #
straight-curve $-1 -48.513443403424176 -10.905690853648103 41.818746309265279 0 0 1 I I #
straight-curve $-1 -48.513443403424169 -10.905690853648103 1.354026410219376 -0.84804809178421925 0 -0.52991927123019833 I I #
edge $-1 $476 4.9343775286463947 $242 10.905690853648103 $364 $483 forward 7 unknown #
point $-1 -48.513443403424176 -10.905690853648103 6.2006480582642185 #
point $-1 -40.757227573260394 -10.905690853648103 6.2006480582642185 #
edge $-1 $484 1 $484 0 $245 $-1 forward 7 unknown #
vertex $-1 $246 $485 #
ellipse-curve $-1 -43.099609483641849 -7.9200341911472485 1.3196619268950973 -0.52991927123019833 0 0.84804809178421925 0.84804809178421925 0 0.52991927123019833 1 I I #
point $-1 -43.787287396558078 -7.9200341911472485 4.3072565054720009 #
loop $-1 $-1 $257 $249 #
plane-surface $-1 -48.513443403424176 0 0 1 0 0 0 0 -1 forward_v I I I I #
coedge $-1 $379 $252 $254 $383 reversed $151 $-1 #
coedge $-1 $252 $378 $486 $487 reversed $151 $-1 #
coedge $-1 $260 $255 $252 $381 forward $250 $-1 #
edge $-1 $384 -9.2077027016617023 $488 -1.4514868714979201 $380 $489 forward 7 unknown #
coedge $-1 $254 $253 $387 $490 reversed $94 $-1 #
edge $-1 $491 -8.3790584163743152e-015 $384 9.1459622458973691 $378 $492 forward 7 unknown #
vertex $-1 $256 $493 #
straight-curve $-1 -40.757227573260394 0 6.2006480582642176 0 1 0 I I #
coedge $-1 $486 $257 $260 $391 reversed $376 $-1 #
coedge $-1 $257 $486 $382 $490 forward $376 $-1 #
vertex $-1 $258 $494 #
straight-curve $-1 -48.513443403424176 -2.9856566625008538 41.818746309265279 0 0 1 I I #
straight-curve $-1 -48.513443403424169 -2.9856566625008538 1.354026410219376 -0.84804809178421925 0 -0.52991927123019833 I I #
edge $-1 $488 -2.9856566625008538 $261 2.9856566625008538 $386 $495 forward 7 unknown #
point $-1 -48.513443403424176 -2.9856566625008538 6.2006480582642185 #
point $-1 -40.757227573260394 -2.9856566625008538 6.2006480582642185 #
edge $-1 $496 1 $496 0 $264 $-1 forward 7 unknown #
vertex $-1 $265 $497 #
ellipse-curve $-1 -43.099609483641849 0 1.3196619268950973 -0.52991927123019833 0 0.84804809178421925 0.84804809178421925 0 0.52991927123019833 1 I I #
point $-1 -43.787287396558078 0 4.3072565054720009 #
loop $-1 $-1 $276 $268 #
plane-surface $-1 -48.513443403424176 0 0 1 0 0 0 0 -1 forward_v I I I I #
coedge $-1 $401 $271 $273 $405 reversed $166 $-1 #
coedge $-1 $271 $400 $498 $499 reversed $166 $-1 #
coedge $-1 $279 $274 $271 $403 forward $269 $-1 #
edge $-1 $406 -9.2077027016617023 $500 -1.4514868714979201 $402 $501 forward 7 unknown #
coedge $-1 $273 $272 $409 $502 reversed $103 $-1 #
edge $-1 $503 -8.3790584163743152e-015 $406 9.1459622458973691 $400 $504 forward 7 unknown #
vertex $-1 $275 $505 #
straight-curve $-1 -40.757227573260394 3.9600170955736242 6.2006480582642176 0 1 0 I I #
coedge $-1 $498 $276 $279 $413 reversed $398 $-1 #
coedge $-1 $276 $498 $404 $502 forward $398 $-1 #
vertex $-1 $277 $506 #
straight-curve $-1 -48.513443403424176 4.9343775286463947 41.818746309265279 0 0 1 I I #
straight-curve $-1 -48.513443403424169 4.9343775286463947 1.354026410219376 -0.84804809178421925 0 -0.52991927123019833 I I #
edge $-1 $500 -10.905690853648103 $280 -4.9343775286463947 $408 $507 forward 7 unknown #
point $-1 -48.513443403424176 4.9343775286463947 6.2006480582642185 #
point $-1 -40.757227573260394 4.9343775286463947 6.2006480582642185 #
edge $-1 $508 1 $508 0 $283 $-1 forward 7 unknown #
vertex $-1 $284 $509 #
ellipse-curve $-1 -43.099609483641849 7.9200341911472485 1.3196619268950973 -0.52991927123019833 0 0.84804809178421925 0.84804809178421925 0 0.52991927123019833 1 I I #
point $-1 -43.787287396558078 7.9200341911472485 4.3072565054720009 #
plane-surface $-1 48.513443403424176 0 0 -1 0 0 0 0 1 forward_v I I I I #
coedge $-1 $431 $290 $293 $424 reversed $181 $-1 #
edge $-1 $304 -6.2006480582642185 $427 6.2006480582642185 $303 $510 forward 7 unknown #
straight-curve $-1 48.513443403424176 -19.421367387577654 0 0 0 -1 I I #
edge $-1 $425 -19.421367387577654 $427 19.421367387577654 $421 $511 forward 7 unknown #
vertex $-1 $424 $512 #
straight-curve $-1 0 -19.421367387577654 -6.2006480582642185 -1 0 0 I I #
vertex $-1 $296 $513 #
straight-curve $-1 0 19.421367387577654 -6.2006480582642185 1 0 0 I I #
point $-1 48.513443403424176 19.421367387577654 -6.2006480582642185 #
point $-1 48.513443403424176 -19.421367387577654 -6.2006480582642185 #
coedge $-1 $300 $421 $306 $434 reversed $181 $-1 #
straight-curve $-1 -48.513443403424176 0 6.2006480582642185 0 -1 0 I I #
point $-1 -48.513443403424176 19.421367387577654 6.2006480582642185 #
edge $-1 $307 -6.2006480582642185 $425 6.2006480582642185 $431 $514 forward 7 unknown #
point $-1 -48.513443403424176 -19.421367387577654 6.2006480582642185 #
straight-curve $-1 48.513443403424176 19.421367387577654 0 0 0 -1 I I #
plane-surface $-1 -48.513443403424176 0 0 1 0 0 0 0 -1 forward_v I I I I #
coedge $-1 $440 $449 $444 $515 forward $313 $-1 #
coedge $-1 $316 $315 $516 $517 forward $120 $-1 #
coedge $-1 $516 $438 $317 $441 reversed $313 $-1 #
edge $-1 $442 -48.513443403424176 $445 48.513443403424176 $440 $518 forward 7 unknown #
vertex $-1 $517 $519 #
straight-curve $-1 48.513443403424176 0 -6.2006480582642185 0 -1 0 I I #
coedge $-1 $325 $319 $438 $515 reversed $326 $-1 #
vertex $-1 $320 $520 #
straight-curve $-1 -48.513443403424176 0 -6.2006480582642185 0 1 0 I I #
point $-1 -48.513443403424176 -19.421367387577654 -6.2006480582642185 #
point $-1 48.513443403424176 -19.421367387577654 -6.2006480582642185 #
coedge $-1 $438 $516 $328 $450 reversed $313 $-1 #
edge $-1 $451 -48.513443403424176 $453 48.513443403424176 $449 $521 forward 7 unknown #
vertex $-1 $329 $522 #
straight-curve $-1 -48.513443403424176 -21.73048478839689 -3.1051873567207617 0 -1 0 I I #
vertex $-1 $330 $523 #
straight-curve $-1 48.513443403424176 -21.73048478839689 -3.1051873567207617 0 1 0 I I #
plane-surface $-1 48.513443403424176 0 0 -1 0 0 0 0 1 forward_v I I I I #
coedge $-1 $463 $336 $467 $524 reversed $216 $-1 #
coedge $-1 $336 $463 $337 $460 reversed $216 $-1 #
coedge $-1 $338 $348 $336 $459 reversed $349 $-1 #
edge $-1 $461 -1.5477303507717282 $525 1.5477303507717277 $458 $526 forward 7 unknown #
edge $-1 $461 -48.513443403424176 $465 48.513443403424176 $457 $527 forward 7 unknown #
vertex $-1 $339 $528 #
straight-curve $-1 48.513443403424176 21.730484788396886 -3.1051873567207617 0 1 0 I I #
coedge $-1 $457 $456 $340 $464 reversed $216 $-1 #
edge $-1 $465 -1.5477303507717282 $468 1.5477303507717277 $463 $529 forward 7 unknown #
vertex $-1 $460 $530 #
straight-curve $-1 -48.513443403424176 21.730484788396886 -3.1051873567207617 0 -1 0 I I #
coedge $-1 $471 $342 $456 $524 forward $334 $-1 #
vertex $-1 $524 $531 #
straight-curve $-1 -48.513443403424176 21.730484788396886 -6.2006480582642176 0 1 0 I I #
point $-1 -48.513443403424176 19.421367387577654 -6.2006480582642185 #
coedge $-1 $346 $467 $348 $473 forward $334 $-1 #
straight-curve $-1 0 19.421367387577654 -6.2006480582642185 -1 0 0 I I #
edge $-1 $525 -24.039602189216122 $350 -19.421367387577654 $348 $532 forward 7 unknown #
point $-1 48.513443403424176 19.421367387577654 -6.2006480582642185 #
edge $-1 $476 35.618098251001058 $479 40.46471989904591 $355 $533 forward 7 unknown #
vertex $-1 $369 $534 #
straight-curve $-1 -49.964930274922096 -4.9343775286463947 6.2006480582642212 -1 0 0 I I #
edge $-1 $479 0.97436043307277043 $366 6.945673758074479 $365 $535 forward 7 unknown #
vertex $-1 $478 $536 #
straight-curve $-1 -48.513443403424169 -4.9343775286463947 1.354026410219376 0.84804809178421925 0 0.52991927123019833 I I #
point $-1 -40.757227573260394 -4.9343775286463947 6.2006480582642185 #
point $-1 -48.513443403424176 -10.905690853648103 1.3540264102193715 #
straight-curve $-1 -48.513443403424176 0 6.2006480582642185 0 -1 0 I I #
vertex $-1 $372 $537 #
point $-1 -42.251561391857628 -7.9200341911472485 1.8495811981252956 #
coedge $-1 $387 $386 $379 $487 forward $376 $-1 #
edge $-1 $488 35.618098251001058 $491 40.46471989904591 $486 $538 forward 7 unknown #
vertex $-1 $391 $539 #
straight-curve $-1 -49.964930274922096 2.9856566625008538 6.2006480582642212 -1 0 0 I I #
edge $-1 $491 -2.9856566625008538 $388 2.9856566625008538 $387 $540 forward 7 unknown #
vertex $-1 $490 $541 #
straight-curve $-1 -48.513443403424169 2.9856566625008538 1.354026410219376 0.84804809178421925 0 0.52991927123019833 I I #
point $-1 -40.757227573260394 2.9856566625008538 6.2006480582642185 #
point $-1 -48.513443403424176 -2.9856566625008538 1.3540264102193715 #
straight-curve $-1 -48.513443403424176 0 6.2006480582642185 0 -1 0 I I #
vertex $-1 $394 $542 #
point $-1 -42.251561391857628 0 1.8495811981252956 #
coedge $-1 $409 $408 $401 $499 forward $398 $-1 #
edge $-1 $500 35.618098251001058 $503 40.46471989904591 $498 $543 forward 7 unknown #
vertex $-1 $413 $544 #
straight-curve $-1 -49.964930274922096 10.905690853648103 6.2006480582642212 -1 0 0 I I #
edge $-1 $503 -6.945673758074479 $410 -0.97436043307277043 $409 $545 forward 7 unknown #
vertex $-1 $502 $546 #
straight-curve $-1 -48.513443403424169 10.905690853648103 1.354026410219376 0.84804809178421925 0 0.52991927123019833 I I #
point $-1 -40.757227573260394 10.905690853648103 6.2006480582642185 #
point $-1 -48.513443403424176 4.9343775286463947 1.3540264102193715 #
straight-curve $-1 -48.513443403424176 0 6.2006480582642185 0 -1 0 I I #
vertex $-1 $416 $547 #
point $-1 -42.251561391857628 7.9200341911472485 1.8495811981252956 #
straight-curve $-1 -48.513443403424176 19.421367387577654 0 0 0 -1 I I #
straight-curve $-1 -48.513443403424176 0 -6.2006480582642185 0 1 0 I I #
point $-1 -48.513443403424176 -19.421367387577654 -6.2006480582642185 #
point $-1 -48.513443403424176 19.421367387577654 -6.2006480582642185 #
straight-curve $-1 -48.513443403424176 -19.421367387577654 0 0 0 -1 I I #
edge $-1 $451 -1.5477303507717282 $445 1.5477303507717277 $444 $548 forward 7 unknown #
coedge $-1 $449 $440 $439 $517 reversed $313 $-1 #
edge $-1 $453 -1.5477303507717282 $442 1.5477303507717277 $439 $549 forward 7 unknown #
straight-curve $-1 0 -24.039602189216126 -6.2006480582642176 -1 0 0 I I #
point $-1 48.513443403424176 -24.039602189216126 -6.2006480582642176 #
point $-1 -48.513443403424176 -24.039602189216126 -6.2006480582642176 #
straight-curve $-1 0 -24.039602189216126 -3.1051873567207617 1 0 0 I I #
point $-1 -48.513443403424176 -24.039602189216126 -3.1051873567207617 #
point $-1 48.513443403424176 -24.039602189216126 -3.1051873567207617 #
edge $-1 $468 -48.513443403424176 $525 48.513443403424176 $456 $550 forward 7 unknown #
vertex $-1 $473 $551 #
straight-curve $-1 48.513443403424176 24.039602189216122 -4.6529177074924899 0 0 -1 I I #
straight-curve $-1 0 24.039602189216122 -3.1051873567207617 -1 0 0 I I #
point $-1 48.513443403424176 24.039602189216122 -3.1051873567207617 #
straight-curve $-1 -48.513443403424176 24.039602189216122 -4.6529177074924899 0 0 -1 I I #
point $-1 -48.513443403424176 24.039602189216122 -3.1051873567207617 #
point $-1 -48.513443403424176 24.039602189216122 -6.2006480582642176 #
straight-curve $-1 48.513443403424176 0 -6.2006480582642185 0 -1 0 I I #
straight-curve $-1 -48.513443403424176 -4.9343775286463947 41.818746309265279 0 0 -1 I I #
point $-1 -48.513443403424176 -4.9343775286463947 6.2006480582642185 #
straight-curve $-1 -48.513443403424176 -3.9600170955736242 1.3540264102193733 0 -1 0 I I #
point $-1 -48.513443403424176 -4.9343775286463947 1.3540264102193715 #
point $-1 -42.569690212411651 -7.9200341911472485 0.47161383511087807 #
straight-curve $-1 -48.513443403424176 2.9856566625008538 41.818746309265279 0 0 -1 I I #
point $-1 -48.513443403424176 2.9856566625008538 6.2006480582642185 #
straight-curve $-1 -48.513443403424176 0 1.3540264102193733 0 -1 0 I I #
point $-1 -48.513443403424176 2.9856566625008538 1.3540264102193715 #
point $-1 -42.569690212411651 0 0.47161383511087807 #
straight-curve $-1 -48.513443403424176 10.905690853648103 41.818746309265279 0 0 -1 I I #
point $-1 -48.513443403424176 10.905690853648103 6.2006480582642185 #
straight-curve $-1 -48.513443403424176 3.9600170955736242 1.3540264102193733 0 -1 0 I I #
point $-1 -48.513443403424176 10.905690853648103 1.3540264102193715 #
point $-1 -42.569690212411651 7.9200341911472485 0.47161383511087807 #
straight-curve $-1 -48.513443403424176 -24.039602189216126 -4.6529177074924899 0 0 -1 I I #
straight-curve $-1 48.513443403424176 -24.039602189216126 -4.6529177074924899 0 0 -1 I I #
straight-curve $-1 0 24.039602189216122 -6.2006480582642176 1 0 0 I I #
point $-1 48.513443403424176 24.039602189216122 -6.2006480582642176 #
End-of-ACIS-data 