500 0 6 0           
7 Unknown 11 ACIS 5.0 NT 24 Fri Mar 26 20:21:56 1999 
-1 9.9999999999999995e-007 1e-010 
body $-1 $6 $-1 $7 #
body $-1 $8 $-1 $9 #
body $-1 $10 $-1 $11 #
body $-1 $12 $-1 $13 #
body $-1 $14 $-1 $15 #
body $-1 $16 $-1 $17 #
lump $-1 $-1 $18 $0 #
transform $-1 1 0 0 0 1 0 0 0 1 78.013855403302102 54.2682825139673 18.598152973741747 1 rotate no_reflect no_shear #
lump $-1 $-1 $19 $1 #
transform $-1 1 0 0 0 1 0 0 0 1 78.013855403302102 54.2682825139673 18.598152973741747 1 rotate no_reflect no_shear #
lump $-1 $-1 $20 $2 #
transform $-1 1 0 0 0 1 0 0 0 1 78.013855403302102 54.2682825139673 18.598152973741747 1 rotate no_reflect no_shear #
lump $-1 $-1 $21 $3 #
transform $-1 1 0 0 0 1 0 0 0 1 78.013855403302102 54.2682825139673 18.598152973741747 1 rotate no_reflect no_shear #
lump $-1 $-1 $22 $4 #
transform $-1 1 0 0 0 1 0 0 0 1 78.013855403302102 54.2682825139673 18.598152973741747 1 rotate no_reflect no_shear #
lump $-1 $-1 $23 $5 #
transform $-1 1 0 0 0 1 0 0 0 1 78.013855403302102 54.2682825139673 18.598152973741747 1 rotate no_reflect no_shear #
shell $-1 $-1 $-1 $24 $-1 $6 #
shell $-1 $-1 $-1 $25 $-1 $8 #
shell $-1 $-1 $-1 $26 $-1 $10 #
shell $-1 $-1 $-1 $27 $-1 $12 #
shell $-1 $-1 $-1 $28 $-1 $14 #
shell $-1 $-1 $-1 $29 $-1 $16 #
face $-1 $30 $31 $18 $-1 $32 reversed single #
face $-1 $33 $34 $19 $-1 $35 forward single #
face $-1 $36 $37 $20 $-1 $38 reversed single #
face $-1 $39 $40 $21 $-1 $41 forward single #
face $-1 $42 $43 $22 $-1 $44 reversed single #
face $-1 $45 $46 $23 $-1 $47 forward single #
face $-1 $48 $49 $18 $-1 $50 forward single #
loop $-1 $-1 $51 $24 #
plane-surface $-1 0 -54.2682825139673 0 0 1 0 0 0 1 forward_v I I I I #
face $-1 $52 $53 $19 $-1 $54 forward single #
loop $-1 $-1 $55 $25 #
plane-surface $-1 0 -54.2682825139673 0 0 1 0 0 0 1 forward_v I I I I #
face $-1 $56 $57 $20 $-1 $58 reversed single #
loop $-1 $-1 $59 $26 #
plane-surface $-1 -176.20527660202339 21.219987400088051 126.84825670143437 0 1 0 -0.62932039886446345 0 0.77714595512881146 forward_v I I I I #
face $-1 $60 $61 $21 $-1 $62 forward single #
loop $-1 $63 $64 $27 #
cone-surface $-1 -69.218262086932498 27.489572105891661 11.150438600900292 0.62932039886446345 0 -0.77714595512881146 1.1657189326932171 0 0.94398059829669512 1 I I 0 1 1.5 forward I I I I #
face $-1 $65 $66 $22 $-1 $67 reversed single #
loop $-1 $-1 $68 $28 #
plane-surface $-1 54.948972260662998 33.75915681169527 225.03967790015568 0 -1 0 -0.62932039886446345 0 -0.77714595512881146 forward_v I I I I #
face $-1 $69 $70 $23 $-1 $71 forward single #
loop $-1 $72 $73 $29 #
cone-surface $-1 69.218262086932498 27.489572105891661 11.150438600900282 -0.62932039886446345 0 -0.77714595512881146 1.1657189326932171 0 -0.94398059829669512 1 I I 0 1 1.5 forward I I I I #
face $-1 $74 $75 $18 $-1 $76 reversed single #
loop $-1 $-1 $77 $30 #
plane-surface $-1 0 0 18.598152973741747 0 0 1 1 0 0 forward_v I I I I #
coedge $-1 $78 $79 $80 $81 reversed $31 $-1 #
face $-1 $82 $83 $19 $-1 $84 reversed single #
loop $-1 $-1 $85 $33 #
plane-surface $-1 0 0 18.598152973741747 0 0 1 1 0 0 forward_v I I I I #
coedge $-1 $86 $87 $88 $89 forward $34 $-1 #
face $-1 $90 $91 $20 $-1 $92 reversed single #
loop $-1 $-1 $93 $36 #
plane-surface $-1 -78.013855403302074 27.489572105891661 5.5919523600739609 -0.62932039886446345 0 0.77714595512881146 0.77714595512881146 0 0.62932039886446345 forward_v I I I I #
coedge $-1 $94 $95 $96 $97 reversed $37 $-1 #
face $-1 $-1 $98 $21 $-1 $99 forward single #
loop $-1 $100 $101 $39 #
cone-surface $-1 -67.981338383872469 27.489572105891661 9.6229650685461046 0.62932039886446345 0 -0.77714595512881146 0.58285946634660857 0 0.47199029914834756 1 I I -0.70710678118654757 0.70710678118654757 0.75 forward I I I I #
loop $-1 $-1 $102 $27 #
coedge $-1 $64 $64 $103 $104 reversed $40 $-1 #
face $-1 $105 $106 $22 $-1 $107 reversed single #
loop $-1 $-1 $108 $42 #
plane-surface $-1 -43.242448938058317 27.489572105891661 103.78337355879528 0.62932039886446345 0 0.77714595512881146 0.77714595512881146 0 -0.62932039886446345 forward_v I I I I #
coedge $-1 $109 $110 $111 $112 reversed $43 $-1 #
face $-1 $-1 $113 $23 $-1 $114 forward single #
loop $-1 $115 $116 $45 #
cone-surface $-1 67.981338383872469 27.489572105891661 9.6229650685460939 -0.62932039886446345 0 -0.77714595512881146 0.58285946634660857 0 -0.47199029914834756 1 I I -0.70710678118654757 0.70710678118654757 0.75 forward I I I I #
loop $-1 $-1 $117 $29 #
coedge $-1 $73 $73 $118 $119 reversed $46 $-1 #
face $-1 $120 $121 $18 $-1 $122 reversed single #
loop $-1 $-1 $123 $48 #
plane-surface $-1 0 0 -18.598152973741747 0 0 1 1 0 0 forward_v I I I I #
coedge $-1 $124 $125 $126 $127 forward $49 $-1 #
coedge $-1 $128 $51 $129 $130 reversed $31 $-1 #
coedge $-1 $51 $128 $131 $132 forward $31 $-1 #
coedge $-1 $133 $123 $51 $81 forward $75 $-1 #
edge $-1 $134 -78.013855403302102 $135 78.013855403302102 $51 $136 forward 7 unknown #
face $-1 $137 $138 $19 $-1 $139 reversed single #
loop $-1 $-1 $140 $52 #
plane-surface $-1 -78.013855403302102 0 0 1 0 0 0 0 -1 forward_v I I I I #
coedge $-1 $141 $142 $87 $143 forward $53 $-1 #
coedge $-1 $144 $55 $145 $146 reversed $34 $-1 #
coedge $-1 $55 $144 $85 $143 reversed $34 $-1 #
coedge $-1 $147 $148 $55 $89 reversed $149 $-1 #
edge $-1 $150 -18.598152973741747 $151 18.598152973741747 $88 $152 forward 7 unknown #
face $-1 $153 $154 $20 $-1 $155 reversed single #
loop $-1 $-1 $156 $56 #
plane-surface $-1 -176.20527660202339 33.75915681169527 126.84825670143437 0 -1 0 0.62932039886446345 0 -0.77714595512881146 forward_v I I I I #
coedge $-1 $157 $158 $159 $160 reversed $57 $-1 #
coedge $-1 $95 $59 $161 $162 reversed $37 $-1 #
coedge $-1 $59 $94 $157 $163 reversed $37 $-1 #
coedge $-1 $159 $164 $59 $97 forward $165 $-1 #
edge $-1 $166 10.088782897709592 $167 26.150102722625519 $96 $168 forward 7 unknown #
loop $-1 $-1 $103 $60 #
plane-surface $-1 -78.013855403302074 27.489572105891661 5.5919523600739609 -0.62932039886446345 0 0.77714595512881146 0.77714595512881146 0 0.62932039886446345 forward_v I I I I #
loop $-1 $-1 $169 $39 #
coedge $-1 $101 $101 $102 $170 reversed $61 $-1 #
coedge $-1 $102 $102 $101 $170 forward $63 $-1 #
coedge $-1 $103 $103 $64 $104 forward $98 $-1 #
edge $-1 $171 0 $171 6.2831853071796004 $103 $172 forward 7 unknown #
face $-1 $173 $174 $22 $-1 $175 forward single #
loop $-1 $-1 $176 $65 #
plane-surface $-1 54.948972260662998 21.219987400088051 225.03967790015568 0 1 0 0.62932039886446345 0 0.77714595512881146 forward_v I I I I #
coedge $-1 $177 $178 $179 $180 reversed $66 $-1 #
coedge $-1 $110 $68 $181 $182 reversed $43 $-1 #
coedge $-1 $68 $109 $177 $183 reversed $43 $-1 #
coedge $-1 $179 $184 $68 $112 forward $174 $-1 #
edge $-1 $185 -50.539369272970603 $186 -34.478049448054705 $111 $187 forward 7 unknown #
loop $-1 $-1 $118 $69 #
plane-surface $-1 -43.242448938058317 27.489572105891661 103.78337355879528 0.62932039886446345 0 0.77714595512881146 0.77714595512881146 0 -0.62932039886446345 forward_v I I I I #
loop $-1 $-1 $188 $45 #
coedge $-1 $116 $116 $117 $189 reversed $70 $-1 #
coedge $-1 $117 $117 $116 $189 forward $72 $-1 #
coedge $-1 $118 $118 $73 $119 forward $113 $-1 #
edge $-1 $190 0 $190 6.2831853071796004 $118 $191 forward 7 unknown #
face $-1 $192 $193 $18 $-1 $194 reversed single #
loop $-1 $-1 $195 $74 #
plane-surface $-1 -78.013855403302102 0 0 1 0 0 0 0 -1 forward_v I I I I #
coedge $-1 $80 $196 $197 $198 forward $75 $-1 #
coedge $-1 $199 $77 $200 $201 forward $49 $-1 #
coedge $-1 $77 $199 $128 $202 forward $49 $-1 #
coedge $-1 $129 $203 $77 $127 reversed $204 $-1 #
edge $-1 $205 -54.2682825139673 $206 54.2682825139673 $126 $207 forward 7 unknown #
coedge $-1 $79 $78 $125 $202 reversed $31 $-1 #
coedge $-1 $197 $126 $78 $130 forward $204 $-1 #
edge $-1 $205 -18.598152973741747 $134 18.598152973741747 $129 $208 forward 7 unknown #
coedge $-1 $209 $210 $79 $132 reversed $121 $-1 #
edge $-1 $211 -18.598152973741747 $135 18.598152973741747 $131 $212 forward 7 unknown #
coedge $-1 $196 $80 $210 $213 forward $75 $-1 #
vertex $-1 $130 $214 #
vertex $-1 $213 $215 #
straight-curve $-1 0 -54.2682825139673 -18.598152973741747 -1 0 0 I I #
face $-1 $216 $149 $19 $-1 $217 reversed single #
loop $-1 $-1 $218 $82 #
plane-surface $-1 -74.561161401575717 -74.46639768915017 0 0 1 0 0 0 1 forward_v I I I I #
coedge $-1 $219 $220 $144 $221 forward $83 $-1 #
coedge $-1 $222 $85 $220 $223 forward $53 $-1 #
coedge $-1 $85 $222 $147 $224 forward $53 $-1 #
edge $-1 $150 71.108467399849332 $225 78.013855403302102 $85 $226 forward 7 unknown #
coedge $-1 $87 $86 $140 $221 reversed $34 $-1 #
coedge $-1 $227 $228 $86 $146 forward $229 $-1 #
edge $-1 $230 -78.013855403302102 $151 -71.108467399849332 $145 $231 forward 7 unknown #
coedge $-1 $232 $88 $142 $224 reversed $149 $-1 #
coedge $-1 $88 $232 $227 $233 reversed $149 $-1 #
loop $-1 $-1 $232 $137 #
vertex $-1 $143 $234 #
vertex $-1 $233 $235 #
straight-curve $-1 -71.108467399849332 -54.2682825139673 0 0 0 -1 I I #
face $-1 $-1 $165 $20 $-1 $236 forward single #
loop $-1 $-1 $237 $90 #
plane-surface $-1 -78.013855403302102 0 0 1 0 0 0 0 -1 forward_v I I I I #
coedge $-1 $238 $239 $240 $241 reversed $91 $-1 #
coedge $-1 $242 $93 $95 $163 forward $57 $-1 #
coedge $-1 $93 $242 $238 $243 forward $57 $-1 #
coedge $-1 $240 $96 $93 $160 forward $165 $-1 #
edge $-1 $167 7.475201347142221 $244 20.01437075874944 $159 $245 forward 7 unknown #
coedge $-1 $246 $247 $94 $162 forward $154 $-1 #
edge $-1 $248 -57.832175990643243 $166 -44.825975376975435 $161 $249 forward 7 unknown #
edge $-1 $167 -20.667057093868223 $248 3.6620485252745651e-014 $95 $250 forward 7 unknown #
coedge $-1 $96 $240 $246 $251 forward $165 $-1 #
loop $-1 $-1 $240 $153 #
vertex $-1 $162 $252 #
vertex $-1 $97 $253 #
straight-curve $-1 -88.102638301011694 21.219987400088051 18.598152973741747 1 0 0 I I #
coedge $-1 $169 $169 $-1 $254 reversed $100 $-1 #
edge $-1 $255 0 $255 6.2831853071796004 $101 $256 forward 7 unknown #
vertex $-1 $104 $257 #
ellipse-curve $-1 -69.983195490844153 27.489572105891661 12.095052666907838 -0.62932039886446345 0 0.77714595512881146 1.1657189326932171 0 0.94398059829669512 1 I I #
face $-1 $-1 $258 $22 $-1 $259 reversed single #
loop $-1 $-1 $111 $105 #
plane-surface $-1 0 0 18.598152973741747 0 0 1 1 0 0 forward_v I I I I #
coedge $-1 $260 $261 $262 $263 reversed $106 $-1 #
coedge $-1 $264 $108 $110 $183 forward $66 $-1 #
coedge $-1 $108 $264 $260 $265 forward $66 $-1 #
coedge $-1 $262 $111 $108 $180 forward $174 $-1 #
edge $-1 $186 -20.01437075874944 $266 -7.475201347142221 $179 $267 forward 7 unknown #
coedge $-1 $268 $269 $109 $182 forward $258 $-1 #
edge $-1 $270 -106.92788659000389 $185 -93.921685976336093 $181 $271 forward 7 unknown #
edge $-1 $186 135.360653712736 $270 156.02771080660423 $110 $272 forward 7 unknown #
coedge $-1 $111 $262 $268 $273 forward $174 $-1 #
vertex $-1 $112 $274 #
vertex $-1 $112 $275 #
straight-curve $-1 27.474486130331499 33.75915681169527 18.598152973741747 -1 0 0 I I #
coedge $-1 $188 $188 $-1 $276 reversed $115 $-1 #
edge $-1 $277 0 $277 6.2831853071796004 $116 $278 forward 7 unknown #
vertex $-1 $119 $279 #
ellipse-curve $-1 69.983195490844153 27.489572105891661 12.095052666907844 0.62932039886446345 0 0.77714595512881146 1.1657189326932171 0 -0.94398059829669512 1 I I #
face $-1 $-1 $204 $18 $-1 $280 reversed single #
loop $-1 $-1 $281 $120 #
plane-surface $-1 0 54.2682825139673 0 0 -1 0 0 0 -1 forward_v I I I I #
coedge $-1 $210 $209 $282 $283 forward $121 $-1 #
coedge $-1 $123 $133 $284 $285 forward $75 $-1 #
coedge $-1 $203 $129 $123 $198 reversed $204 $-1 #
edge $-1 $286 -54.2682825139673 $134 54.2682825139673 $197 $287 forward 7 unknown #
coedge $-1 $125 $124 $209 $288 forward $49 $-1 #
coedge $-1 $281 $282 $124 $201 reversed $193 $-1 #
edge $-1 $206 -78.013855403302102 $289 78.013855403302102 $200 $290 forward 7 unknown #
edge $-1 $211 -78.013855403302102 $205 78.013855403302102 $128 $291 forward 7 unknown #
coedge $-1 $126 $197 $281 $292 reversed $204 $-1 #
loop $-1 $-1 $129 $192 #
vertex $-1 $127 $293 #
vertex $-1 $127 $294 #
straight-curve $-1 78.013855403302102 0 18.598152973741747 0 1 0 I I #
straight-curve $-1 78.013855403302102 -54.2682825139673 0 0 0 -1 I I #
coedge $-1 $195 $131 $199 $288 reversed $121 $-1 #
coedge $-1 $131 $195 $133 $213 reversed $121 $-1 #
vertex $-1 $288 $295 #
straight-curve $-1 -78.013855403302102 -54.2682825139673 0 0 0 -1 I I #
edge $-1 $135 -54.2682825139673 $296 54.2682825139673 $210 $297 forward 7 unknown #
point $-1 78.013855403302102 -54.2682825139673 -18.598152973741747 #
point $-1 -78.013855403302102 -54.2682825139673 -18.598152973741747 #
face $-1 $-1 $229 $19 $-1 $298 reversed single #
plane-surface $-1 -71.108467399849332 -64.367340101558739 0 -1 0 0 0 0 1 forward_v I I I I #
coedge $-1 $299 $300 $301 $302 forward $138 $-1 #
coedge $-1 $301 $140 $228 $303 reversed $83 $-1 #
coedge $-1 $140 $301 $141 $223 reversed $83 $-1 #
edge $-1 $225 -18.598152973741747 $230 18.598152973741747 $140 $304 forward 7 unknown #
coedge $-1 $142 $141 $300 $305 forward $53 $-1 #
edge $-1 $225 54.2682825139673 $306 74.46639768915017 $220 $307 forward 7 unknown #
edge $-1 $308 -10.099057587591432 $150 10.099057587591432 $147 $309 forward 7 unknown #
vertex $-1 $223 $310 #
straight-curve $-1 0 -54.2682825139673 18.598152973741747 -1 0 0 I I #
coedge $-1 $311 $145 $148 $233 forward $229 $-1 #
coedge $-1 $145 $311 $219 $303 forward $229 $-1 #
loop $-1 $-1 $145 $216 #
vertex $-1 $221 $312 #
straight-curve $-1 0 -54.2682825139673 -18.598152973741747 1 0 0 I I #
coedge $-1 $148 $147 $313 $314 forward $149 $-1 #
edge $-1 $151 -10.099057587591432 $315 10.099057587591432 $148 $316 forward 7 unknown #
point $-1 -71.108467399849332 -54.268282513967307 18.598152973741747 #
point $-1 -71.108467399849332 -54.268282513967307 -18.598152973741747 #
plane-surface $-1 0 0 18.598152973741747 0 0 1 1 0 0 forward_v I I I I #
coedge $-1 $247 $246 $239 $317 forward $154 $-1 #
coedge $-1 $239 $156 $158 $243 reversed $91 $-1 #
coedge $-1 $156 $238 $237 $317 reversed $91 $-1 #
coedge $-1 $164 $159 $156 $241 forward $165 $-1 #
edge $-1 $244 -26.150102722625519 $318 -10.088782897709592 $240 $319 forward 7 unknown #
coedge $-1 $158 $157 $247 $320 reversed $57 $-1 #
edge $-1 $321 -3.6620485252745651e-014 $244 20.667057093868223 $238 $322 forward 7 unknown #
vertex $-1 $160 $323 #
straight-curve $-1 -61.952535578386183 13.74478605294583 18.598152973741747 0 1 0 I I #
coedge $-1 $237 $161 $164 $251 reversed $154 $-1 #
coedge $-1 $161 $237 $242 $320 forward $154 $-1 #
vertex $-1 $162 $324 #
straight-curve $-1 -78.013855403302102 21.219987400088051 63.424128350717183 0 0 1 I I #
straight-curve $-1 -78.013855403302074 21.219987400088051 5.5919523600739609 -0.77714595512881146 0 -0.62932039886446345 I I #
edge $-1 $318 -33.75915681169527 $166 -21.219987400088051 $246 $325 forward 7 unknown #
point $-1 -78.013855403302102 21.219987400088051 18.598152973741747 #
point $-1 -61.952535578386176 21.219987400088051 18.598152973741747 #
edge $-1 $326 1 $326 0 $169 $-1 forward 7 unknown #
vertex $-1 $170 $327 #
ellipse-curve $-1 -68.453328683020814 27.489572105891661 10.205824534892713 -0.62932039886446345 0 0.77714595512881146 1.1657189326932171 0 0.94398059829669512 1 I I #
point $-1 -68.817476558150943 27.489572105891661 13.039033265204564 #
loop $-1 $-1 $181 $173 #
plane-surface $-1 78.013855403302102 0 0 -1 0 0 0 0 1 forward_v I I I I #
coedge $-1 $261 $176 $178 $265 reversed $106 $-1 #
coedge $-1 $176 $260 $328 $329 reversed $106 $-1 #
coedge $-1 $184 $179 $176 $263 forward $174 $-1 #
edge $-1 $266 34.478049448054705 $330 50.539369272970603 $262 $331 forward 7 unknown #
coedge $-1 $178 $177 $269 $332 reversed $66 $-1 #
edge $-1 $333 -156.02771080660423 $266 -135.360653712736 $260 $334 forward 7 unknown #
vertex $-1 $180 $335 #
straight-curve $-1 61.95253557838619 13.74478605294583 18.598152973741747 0 -1 0 I I #
coedge $-1 $328 $181 $184 $273 reversed $258 $-1 #
coedge $-1 $181 $328 $264 $332 forward $258 $-1 #
vertex $-1 $182 $336 #
straight-curve $-1 78.013855403302102 33.75915681169527 112.51983895007784 0 0 1 I I #
straight-curve $-1 -43.242448938058317 33.75915681169527 103.78337355879528 0.77714595512881146 0 -0.62932039886446345 I I #
edge $-1 $330 21.219987400088051 $185 33.75915681169527 $268 $337 forward 7 unknown #
point $-1 78.013855403302102 33.75915681169527 18.598152973741747 #
point $-1 61.952535578386204 33.75915681169527 18.598152973741747 #
edge $-1 $338 1 $338 0 $188 $-1 forward 7 unknown #
vertex $-1 $189 $339 #
ellipse-curve $-1 68.453328683020814 27.489572105891661 10.205824534892702 0.62932039886446345 0 0.77714595512881146 1.1657189326932171 0 -0.94398059829669512 1 I I #
point $-1 71.148914423537377 27.489572105891661 11.151072068611164 #
plane-surface $-1 78.013855403302102 0 0 -1 0 0 0 0 1 forward_v I I I I #
coedge $-1 $284 $200 $203 $292 forward $193 $-1 #
coedge $-1 $200 $284 $195 $283 reversed $193 $-1 #
edge $-1 $289 -18.598152973741747 $296 18.598152973741747 $282 $340 forward 7 unknown #
coedge $-1 $282 $281 $196 $285 reversed $193 $-1 #
edge $-1 $296 -78.013855403302102 $286 78.013855403302102 $284 $341 forward 7 unknown #
vertex $-1 $198 $342 #
straight-curve $-1 78.013855403302102 0 -18.598152973741747 0 -1 0 I I #
edge $-1 $289 -54.2682825139673 $211 54.2682825139673 $209 $343 forward 7 unknown #
vertex $-1 $201 $344 #
straight-curve $-1 0 54.2682825139673 18.598152973741747 -1 0 0 I I #
straight-curve $-1 0 -54.2682825139673 18.598152973741747 1 0 0 I I #
edge $-1 $206 -18.598152973741747 $286 18.598152973741747 $203 $345 forward 7 unknown #
point $-1 78.013855403302102 -54.2682825139673 18.598152973741747 #
point $-1 78.013855403302102 54.2682825139673 18.598152973741747 #
point $-1 -78.013855403302102 -54.2682825139673 18.598152973741747 #
vertex $-1 $285 $346 #
straight-curve $-1 -78.013855403302102 0 -18.598152973741747 0 1 0 I I #
plane-surface $-1 0 0 -18.598152973741747 0 0 1 1 0 0 forward_v I I I I #
coedge $-1 $313 $218 $311 $347 reversed $138 $-1 #
coedge $-1 $218 $313 $222 $305 reversed $138 $-1 #
coedge $-1 $220 $219 $218 $302 reversed $83 $-1 #
edge $-1 $306 -18.598152973741747 $348 18.598152973741747 $301 $349 forward 7 unknown #
edge $-1 $348 -74.46639768915017 $230 -54.2682825139673 $219 $350 forward 7 unknown #
straight-curve $-1 -78.013855403302102 -54.2682825139673 0 0 0 -1 I I #
edge $-1 $306 -3.4526940017263854 $308 3.4526940017263854 $300 $351 forward 7 unknown #
vertex $-1 $223 $352 #
straight-curve $-1 -78.013855403302102 0 18.598152973741747 0 -1 0 I I #
vertex $-1 $224 $353 #
straight-curve $-1 -71.108467399849332 -64.367340101558739 18.598152973741747 0 1 0 I I #
point $-1 -78.013855403302102 -54.2682825139673 18.598152973741747 #
coedge $-1 $228 $227 $299 $347 forward $229 $-1 #
point $-1 -78.013855403302102 -54.2682825139673 -18.598152973741747 #
coedge $-1 $300 $299 $232 $314 reversed $138 $-1 #
edge $-1 $308 -18.598152973741747 $315 18.598152973741747 $232 $354 forward 7 unknown #
vertex $-1 $314 $355 #
straight-curve $-1 -71.108467399849332 -64.367340101558739 -18.598152973741747 0 -1 0 I I #
edge $-1 $318 44.825975376975435 $321 57.832175990643243 $237 $356 forward 7 unknown #
vertex $-1 $251 $357 #
straight-curve $-1 -88.102638301011694 33.75915681169527 18.598152973741747 -1 0 0 I I #
edge $-1 $321 -20.01437075874944 $248 -7.475201347142221 $247 $358 forward 7 unknown #
vertex $-1 $320 $359 #
straight-curve $-1 -78.013855403302074 33.75915681169527 5.5919523600739609 0.77714595512881146 0 0.62932039886446345 I I #
point $-1 -61.952535578386176 33.75915681169527 18.598152973741747 #
point $-1 -78.013855403302102 21.219987400088051 5.5919523600739378 #
straight-curve $-1 -78.013855403302102 0 18.598152973741747 0 -1 0 I I #
vertex $-1 $254 $360 #
point $-1 -67.287609750327604 27.489572105891661 11.149805133189409 #
coedge $-1 $269 $268 $261 $329 forward $258 $-1 #
edge $-1 $330 93.921685976336093 $333 106.92788659000389 $328 $361 forward 7 unknown #
vertex $-1 $273 $362 #
straight-curve $-1 27.474486130331499 21.219987400088051 18.598152973741747 1 0 0 I I #
edge $-1 $333 7.475201347142221 $270 20.01437075874944 $269 $363 forward 7 unknown #
vertex $-1 $332 $364 #
straight-curve $-1 -43.242448938058317 21.219987400088051 103.78337355879528 -0.77714595512881146 0 0.62932039886446345 I I #
point $-1 61.952535578386204 21.219987400088051 18.598152973741747 #
point $-1 78.013855403302102 33.75915681169527 5.5919523600739467 #
straight-curve $-1 78.013855403302102 0 18.598152973741747 0 1 0 I I #
vertex $-1 $276 $365 #
point $-1 69.619047615714038 27.489572105891661 9.2618439365960068 #
straight-curve $-1 -78.013855403302102 54.2682825139673 0 0 0 -1 I I #
straight-curve $-1 0 54.2682825139673 -18.598152973741747 1 0 0 I I #
point $-1 78.013855403302102 54.2682825139673 -18.598152973741747 #
straight-curve $-1 -78.013855403302102 0 18.598152973741747 0 -1 0 I I #
point $-1 -78.013855403302102 54.2682825139673 18.598152973741747 #
straight-curve $-1 78.013855403302102 54.2682825139673 0 0 0 -1 I I #
point $-1 -78.013855403302102 54.2682825139673 -18.598152973741747 #
edge $-1 $315 -3.4526940017263854 $348 3.4526940017263854 $299 $366 forward 7 unknown #
vertex $-1 $303 $367 #
straight-curve $-1 -78.013855403302102 -74.46639768915017 0 0 0 -1 I I #
straight-curve $-1 -78.013855403302102 0 -18.598152973741747 0 1 0 I I #
straight-curve $-1 -74.561161401575717 -74.46639768915017 18.598152973741747 1 0 0 I I #
point $-1 -78.013855403302102 -74.46639768915017 18.598152973741747 #
point $-1 -71.108467399849332 -74.46639768915017 18.598152973741747 #
straight-curve $-1 -71.108467399849332 -74.46639768915017 0 0 0 -1 I I #
point $-1 -71.108467399849332 -74.46639768915017 -18.598152973741747 #
straight-curve $-1 -78.013855403302102 33.75915681169527 63.424128350717183 0 0 -1 I I #
point $-1 -78.013855403302102 33.75915681169527 18.598152973741747 #
straight-curve $-1 -78.013855403302102 13.74478605294583 5.5919523600739423 0 -1 0 I I #
point $-1 -78.013855403302102 33.75915681169527 5.5919523600739378 #
point $-1 -67.509348084724124 27.489572105891661 9.0401056021994961 #
straight-curve $-1 78.013855403302102 21.219987400088051 112.51983895007784 0 0 -1 I I #
point $-1 78.013855403302102 21.219987400088051 18.598152973741747 #
straight-curve $-1 78.013855403302102 13.74478605294583 5.5919523600739396 0 1 0 I I #
point $-1 78.013855403302102 21.219987400088051 5.5919523600739467 #
point $-1 67.509348084724124 27.489572105891661 9.0401056021994854 #
straight-curve $-1 -74.561161401575717 -74.46639768915017 -18.598152973741747 -1 0 0 I I #
point $-1 -78.013855403302102 -74.46639768915017 -18.598152973741747 #
End-of-ACIS-data 