500 0 8 0           
7 Unknown 11 ACIS 5.0 NT 24 Thu Mar 25 20:28:13 1999 
-1 9.9999999999999995e-007 1e-010 
body $-1 $8 $-1 $9 #
body $-1 $10 $-1 $11 #
body $-1 $12 $-1 $13 #
body $-1 $14 $-1 $15 #
body $-1 $16 $-1 $17 #
body $-1 $18 $-1 $19 #
body $-1 $20 $-1 $21 #
body $-1 $22 $-1 $23 #
lump $-1 $-1 $24 $0 #
transform $-1 1 0 0 0 1 0 0 0 1 63.739738151188696 43.10286238983899 11.858516011785012 1 rotate no_reflect no_shear #
lump $-1 $-1 $25 $1 #
transform $-1 1 0 0 0 1 0 0 0 1 63.739738151188696 43.10286238983899 11.858516011785012 1 rotate no_reflect no_shear #
lump $-1 $-1 $26 $2 #
transform $-1 1 0 0 0 1 0 0 0 1 63.739738151188696 43.10286238983899 11.858516011785012 1 rotate no_reflect no_shear #
lump $-1 $-1 $27 $3 #
transform $-1 1 0 0 0 1 0 0 0 1 63.739738151188696 43.10286238983899 11.858516011785012 1 rotate no_reflect no_shear #
lump $-1 $-1 $28 $4 #
transform $-1 1 0 0 0 1 0 0 0 1 63.739738151188696 43.10286238983899 11.858516011785012 1 rotate no_reflect no_shear #
lump $-1 $-1 $29 $5 #
transform $-1 1 0 0 0 1 0 0 0 1 63.739738151188696 43.10286238983899 11.858516011785012 1 rotate no_reflect no_shear #
lump $-1 $-1 $30 $6 #
transform $-1 1 0 0 0 1 0 0 0 1 63.739738151188696 43.10286238983899 11.858516011785012 1 rotate no_reflect no_shear #
lump $-1 $-1 $31 $7 #
transform $-1 1 0 0 0 1 0 0 0 1 63.739738151188696 43.10286238983899 11.858516011785012 1 rotate no_reflect no_shear #
shell $-1 $-1 $-1 $32 $-1 $8 #
shell $-1 $-1 $-1 $33 $-1 $10 #
shell $-1 $-1 $-1 $34 $-1 $12 #
shell $-1 $-1 $-1 $35 $-1 $14 #
shell $-1 $-1 $-1 $36 $-1 $16 #
shell $-1 $-1 $-1 $37 $-1 $18 #
shell $-1 $-1 $-1 $38 $-1 $20 #
shell $-1 $-1 $-1 $39 $-1 $22 #
face $-1 $40 $41 $24 $-1 $42 forward single #
face $-1 $43 $44 $25 $-1 $45 reversed single #
face $-1 $46 $47 $26 $-1 $48 reversed single #
face $-1 $49 $50 $27 $-1 $51 forward single #
face $-1 $52 $53 $28 $-1 $54 forward single #
face $-1 $55 $56 $29 $-1 $57 reversed single #
face $-1 $58 $59 $30 $-1 $60 forward single #
face $-1 $61 $62 $31 $-1 $63 forward single #
face $-1 $64 $65 $24 $-1 $66 reversed single #
loop $-1 $-1 $67 $32 #
plane-surface $-1 0 0 11.858516011785012 0 0 1 1 0 0 forward_v I I I I #
face $-1 $68 $69 $25 $-1 $70 reversed single #
loop $-1 $-1 $71 $33 #
plane-surface $-1 -58.707383787584064 -40.084653465156094 0 0 -1 0 0 0 -1 forward_v I I I I #
face $-1 $72 $73 $26 $-1 $74 reversed single #
loop $-1 $-1 $75 $34 #
plane-surface $-1 16.409238455403653 80.155688513622152 154.63420511552766 1 0 0 0 -0.74314483375859142 -0.66913059716165679 forward_v I I I I #
face $-1 $76 $77 $27 $-1 $78 forward single #
loop $-1 $79 $80 $35 #
cone-surface $-1 23.443098110995102 38.736839371062928 7.3038609540077113 0 -0.74314483375859142 -0.66913059716165679 2 0 0 1 I I 0 1 2 forward I I I I #
face $-1 $81 $82 $28 $-1 $83 forward single #
loop $-1 $84 $85 $36 #
cone-surface $-1 33.993887594382279 38.736839371062928 7.3038609540077113 0 -0.74314483375859142 -0.66913059716165679 2 0 0 1 I I 0 1 2 forward I I I I #
face $-1 $86 $87 $29 $-1 $88 reversed single #
loop $-1 $-1 $89 $37 #
plane-surface $-1 -37.759876390539361 -43.102862389838975 8.3829726399557245 0 -0.62932039886446345 0.77714595512881146 1 0 0 forward_v I I I I #
face $-1 $90 $91 $30 $-1 $92 forward single #
loop $-1 $93 $94 $38 #
cone-surface $-1 -44.580656262013676 -39.899338310812148 8.8147729255831084 0 0.62932039886446345 -0.77714595512881146 1 0 0 1 I I 0 1 1 forward I I I I #
face $-1 $95 $96 $31 $-1 $97 forward single #
loop $-1 $98 $99 $39 #
cone-surface $-1 -30.939096519065053 -39.899338310812148 8.8147729255831084 0 0.62932039886446345 -0.77714595512881146 1 0 0 1 I I 0 1 1 forward I I I I #
face $-1 $100 $101 $24 $-1 $102 reversed single #
loop $-1 $-1 $103 $40 #
plane-surface $-1 0 0 -11.858516011785012 0 0 1 1 0 0 forward_v I I I I #
coedge $-1 $104 $105 $106 $107 forward $41 $-1 #
face $-1 $108 $109 $25 $-1 $110 forward single #
loop $-1 $-1 $111 $43 #
plane-surface $-1 -53.675029423979431 -41.593757927497542 0 -1 0 0 0 0 1 forward_v I I I I #
coedge $-1 $112 $113 $114 $115 forward $44 $-1 #
face $-1 $116 $117 $26 $-1 $118 reversed single #
loop $-1 $-1 $119 $46 #
plane-surface $-1 28.718492852688691 -14.580025710740387 69.333787011462604 0 0.74314483375859142 0.66913059716165679 1 0 0 forward_v I I I I #
coedge $-1 $120 $121 $122 $123 reversed $47 $-1 #
face $-1 $-1 $124 $27 $-1 $125 forward single #
loop $-1 $126 $127 $49 #
cone-surface $-1 23.443098110995102 36.593632985206639 5.3741093044462804 0 -0.74314483375859142 -0.66913059716165679 1 0 0 1 I I -0.70710678118654746 0.70710678118654746 1 forward I I I I #
loop $-1 $-1 $128 $35 #
coedge $-1 $80 $80 $129 $130 reversed $50 $-1 #
face $-1 $-1 $131 $28 $-1 $132 forward single #
loop $-1 $133 $134 $52 #
cone-surface $-1 33.993887594382279 36.593632985206639 5.3741093044462804 0 -0.74314483375859142 -0.66913059716165679 1 0 0 1 I I -0.70710678118654746 0.70710678118654746 1 forward I I I I #
loop $-1 $-1 $135 $36 #
coedge $-1 $85 $85 $136 $137 reversed $53 $-1 #
face $-1 $138 $139 $29 $-1 $140 reversed single #
loop $-1 $-1 $141 $55 #
plane-surface $-1 -21.844723357099301 -123.32829726348403 107.45313201028749 -1 0 0 0 -0.62932039886446345 0.77714595512881146 forward_v I I I I #
coedge $-1 $142 $143 $144 $145 reversed $56 $-1 #
face $-1 $-1 $146 $30 $-1 $147 forward single #
loop $-1 $148 $149 $58 #
cone-surface $-1 -44.580656262013676 -38.527123301874227 7.1202285477314344 0 0.62932039886446345 -0.77714595512881146 0.5 0 0 1 I I -0.70710678118654746 0.70710678118654746 0.5 forward I I I I #
loop $-1 $-1 $150 $38 #
coedge $-1 $94 $94 $151 $152 reversed $59 $-1 #
face $-1 $-1 $153 $31 $-1 $154 forward single #
loop $-1 $155 $156 $61 #
cone-surface $-1 -30.939096519065053 -38.527123301874227 7.1202285477314344 0 0.62932039886446345 -0.77714595512881146 0.5 0 0 1 I I -0.70710678118654746 0.70710678118654746 0.5 forward I I I I #
loop $-1 $-1 $157 $39 #
coedge $-1 $99 $99 $158 $159 reversed $62 $-1 #
face $-1 $160 $161 $24 $-1 $162 reversed single #
loop $-1 $-1 $163 $64 #
plane-surface $-1 0 -43.10286238983899 0 0 1 0 0 0 1 forward_v I I I I #
coedge $-1 $164 $165 $166 $167 forward $65 $-1 #
coedge $-1 $168 $67 $169 $170 forward $41 $-1 #
coedge $-1 $67 $168 $171 $172 forward $41 $-1 #
coedge $-1 $173 $174 $67 $107 reversed $175 $-1 #
edge $-1 $176 -43.10286238983899 $177 43.10286238983899 $106 $178 forward 7 unknown #
face $-1 $179 $180 $25 $-1 $181 reversed single #
loop $-1 $-1 $182 $68 #
plane-surface $-1 0 0 11.858516011785012 0 0 1 1 0 0 forward_v I I I I #
coedge $-1 $183 $184 $185 $186 reversed $69 $-1 #
coedge $-1 $187 $71 $188 $189 reversed $44 $-1 #
coedge $-1 $71 $187 $190 $191 reversed $44 $-1 #
coedge $-1 $184 $183 $71 $115 reversed $69 $-1 #
edge $-1 $192 -11.858516011785012 $193 11.858516011785012 $114 $194 forward 7 unknown #
face $-1 $195 $196 $26 $-1 $197 reversed single #
loop $-1 $-1 $198 $72 #
plane-surface $-1 41.027747249973729 80.155688513622152 154.63420511552766 -1 0 0 0 0.74314483375859142 0.66913059716165679 forward_v I I I I #
coedge $-1 $199 $200 $201 $202 reversed $73 $-1 #
coedge $-1 $121 $75 $203 $204 reversed $47 $-1 #
coedge $-1 $75 $120 $199 $205 reversed $47 $-1 #
coedge $-1 $201 $206 $75 $123 forward $207 $-1 #
edge $-1 $208 -3.0250181330279133 $209 2.9069048003288316 $122 $210 forward 7 unknown #
loop $-1 $-1 $129 $76 #
plane-surface $-1 28.718492852688691 -14.580025710740387 69.333787011462604 0 0.74314483375859142 0.66913059716165679 1 0 0 forward_v I I I I #
loop $-1 $-1 $211 $49 #
coedge $-1 $127 $127 $128 $212 reversed $77 $-1 #
coedge $-1 $128 $128 $127 $212 forward $79 $-1 #
coedge $-1 $129 $129 $80 $130 forward $124 $-1 #
edge $-1 $213 1.1912814398163355e-015 $213 6.2831853071796013 $129 $214 forward 7 unknown #
loop $-1 $-1 $136 $81 #
plane-surface $-1 28.718492852688691 -14.580025710740387 69.333787011462604 0 0.74314483375859142 0.66913059716165679 1 0 0 forward_v I I I I #
loop $-1 $-1 $215 $52 #
coedge $-1 $134 $134 $135 $216 reversed $82 $-1 #
coedge $-1 $135 $135 $134 $216 forward $84 $-1 #
coedge $-1 $136 $136 $85 $137 forward $131 $-1 #
edge $-1 $217 1.1912814398163355e-015 $217 6.2831853071796013 $136 $218 forward 7 unknown #
face $-1 $219 $220 $29 $-1 $221 forward single #
loop $-1 $-1 $144 $86 #
plane-surface $-1 0 -43.10286238983899 0 0 1 0 0 0 1 forward_v I I I I #
coedge $-1 $222 $223 $224 $225 reversed $87 $-1 #
coedge $-1 $226 $89 $227 $228 reversed $56 $-1 #
coedge $-1 $89 $226 $222 $229 forward $56 $-1 #
coedge $-1 $224 $230 $89 $145 forward $139 $-1 #
edge $-1 $231 -34.795091228709751 $232 -2.9647851618296208 $144 $233 forward 7 unknown #
loop $-1 $-1 $151 $90 #
plane-surface $-1 -37.759876390539361 -43.102862389838975 8.3829726399557245 0 -0.62932039886446345 0.77714595512881146 1 0 0 forward_v I I I I #
loop $-1 $-1 $234 $58 #
coedge $-1 $149 $149 $150 $235 reversed $91 $-1 #
coedge $-1 $150 $150 $149 $235 forward $93 $-1 #
coedge $-1 $151 $151 $94 $152 forward $146 $-1 #
edge $-1 $236 4.539124221851632e-015 $236 6.2831853071796049 $151 $237 forward 7 unknown #
loop $-1 $-1 $158 $95 #
plane-surface $-1 -37.759876390539361 -43.102862389838975 8.3829726399557245 0 -0.62932039886446345 0.77714595512881146 1 0 0 forward_v I I I I #
loop $-1 $-1 $238 $61 #
coedge $-1 $156 $156 $157 $239 reversed $96 $-1 #
coedge $-1 $157 $157 $156 $239 forward $98 $-1 #
coedge $-1 $158 $158 $99 $159 forward $153 $-1 #
edge $-1 $240 4.539124221851632e-015 $240 6.2831853071796049 $158 $241 forward 7 unknown #
face $-1 $242 $243 $24 $-1 $244 reversed single #
loop $-1 $-1 $245 $100 #
plane-surface $-1 -63.739738151188696 0 0 1 0 0 0 0 -1 forward_v I I I I #
coedge $-1 $246 $171 $247 $248 forward $101 $-1 #
coedge $-1 $249 $103 $246 $250 forward $65 $-1 #
coedge $-1 $103 $249 $251 $252 forward $65 $-1 #
coedge $-1 $174 $173 $103 $167 reversed $175 $-1 #
edge $-1 $253 -43.10286238983899 $254 43.10286238983899 $166 $255 forward 7 unknown #
coedge $-1 $105 $104 $256 $257 forward $41 $-1 #
coedge $-1 $258 $259 $104 $170 reversed $243 $-1 #
edge $-1 $177 -63.739738151188696 $260 63.739738151188696 $169 $261 forward 7 unknown #
coedge $-1 $163 $262 $105 $172 reversed $101 $-1 #
edge $-1 $263 -63.739738151188696 $176 63.739738151188696 $171 $264 forward 7 unknown #
coedge $-1 $166 $106 $262 $265 forward $175 $-1 #
coedge $-1 $106 $166 $258 $266 reversed $175 $-1 #
loop $-1 $-1 $173 $242 #
vertex $-1 $107 $267 #
vertex $-1 $107 $268 #
straight-curve $-1 63.739738151188696 0 11.858516011785012 0 1 0 I I #
face $-1 $269 $270 $25 $-1 $271 reversed single #
loop $-1 $-1 $272 $108 #
plane-surface $-1 -63.739738151188696 0 0 1 0 0 0 0 -1 forward_v I I I I #
coedge $-1 $190 $273 $184 $274 forward $109 $-1 #
coedge $-1 $114 $111 $275 $276 reversed $69 $-1 #
coedge $-1 $111 $114 $182 $274 reversed $69 $-1 #
coedge $-1 $277 $278 $111 $186 forward $279 $-1 #
edge $-1 $280 -11.858516011785012 $281 11.858516011785012 $185 $282 forward 7 unknown #
coedge $-1 $113 $112 $272 $283 reversed $44 $-1 #
coedge $-1 $275 $284 $112 $189 forward $270 $-1 #
edge $-1 $285 -34.386046257396664 $193 -24.3213375301874 $188 $286 forward 7 unknown #
coedge $-1 $287 $182 $113 $191 forward $109 $-1 #
edge $-1 $192 24.3213375301874 $288 34.386046257396664 $190 $289 forward 7 unknown #
vertex $-1 $191 $290 #
vertex $-1 $189 $291 #
straight-curve $-1 -53.675029423979431 -40.084653465156094 0 0 0 -1 I I #
face $-1 $-1 $207 $26 $-1 $292 forward single #
loop $-1 $-1 $293 $116 #
plane-surface $-1 0 43.10286238983899 0 0 -1 0 0 0 -1 forward_v I I I I #
coedge $-1 $294 $295 $296 $297 reversed $117 $-1 #
coedge $-1 $298 $119 $121 $205 forward $73 $-1 #
coedge $-1 $119 $298 $294 $299 forward $73 $-1 #
coedge $-1 $296 $122 $119 $202 forward $207 $-1 #
edge $-1 $209 2.0499920290593074 $300 26.668500823629383 $201 $301 forward 7 unknown #
coedge $-1 $302 $303 $120 $204 forward $196 $-1 #
edge $-1 $304 -72.046654556733927 $208 -65.458586545978818 $203 $305 forward 7 unknown #
edge $-1 $209 77.340604938321178 $304 86.205724779678008 $121 $306 forward 7 unknown #
coedge $-1 $122 $296 $302 $307 forward $207 $-1 #
loop $-1 $-1 $296 $195 #
vertex $-1 $204 $308 #
vertex $-1 $123 $309 #
straight-curve $-1 16.409238455403653 40.077844256811076 11.858516011785014 0 -1 0 I I #
coedge $-1 $211 $211 $-1 $310 reversed $126 $-1 #
edge $-1 $311 0 $311 6.2831853071796004 $127 $312 forward 7 unknown #
vertex $-1 $130 $313 #
ellipse-curve $-1 23.443098110995102 40.13690092316061 8.5644820064074683 0 0.74314483375859142 0.66913059716165679 2 0 0 1 I I #
coedge $-1 $215 $215 $-1 $314 reversed $133 $-1 #
edge $-1 $315 0 $315 6.2831853071796004 $134 $316 forward 7 unknown #
vertex $-1 $137 $317 #
ellipse-curve $-1 33.993887594382279 40.13690092316061 8.5644820064074683 0 0.74314483375859142 0.66913059716165679 2 0 0 1 I I #
face $-1 $-1 $318 $29 $-1 $319 forward single #
loop $-1 $-1 $320 $138 #
plane-surface $-1 0 0 11.858516011785012 0 0 1 1 0 0 forward_v I I I I #
coedge $-1 $223 $141 $143 $229 reversed $87 $-1 #
coedge $-1 $141 $222 $321 $322 reversed $87 $-1 #
coedge $-1 $323 $144 $141 $225 forward $139 $-1 #
edge $-1 $232 -45.343593365188028 $324 -41.868049993358731 $224 $325 forward 7 unknown #
coedge $-1 $143 $142 $326 $327 reversed $56 $-1 #
coedge $-1 $328 $329 $142 $228 forward $318 $-1 #
edge $-1 $330 -7.5740836446442188 $231 -2.0513906283356462 $227 $331 forward 7 unknown #
edge $-1 $332 -5.5226930163085548 $232 1.7751293829024333e-014 $222 $333 forward 7 unknown #
coedge $-1 $144 $323 $328 $334 forward $139 $-1 #
vertex $-1 $145 $335 #
vertex $-1 $145 $336 #
straight-curve $-1 -18.879938195269681 -43.10286238983899 8.3829726399557138 1 0 0 I I #
coedge $-1 $234 $234 $-1 $337 reversed $148 $-1 #
edge $-1 $338 0 $338 6.2831853071796004 $149 $339 forward 7 unknown #
vertex $-1 $152 $340 #
ellipse-curve $-1 -44.580656262013676 -40.956893120317822 10.12074432587036 0 -0.62932039886446345 0.77714595512881146 1 0 0 1 I I #
coedge $-1 $238 $238 $-1 $341 reversed $155 $-1 #
edge $-1 $342 0 $342 6.2831853071796004 $156 $343 forward 7 unknown #
vertex $-1 $159 $344 #
ellipse-curve $-1 -30.939096519065053 -40.956893120317822 10.12074432587036 0 -0.62932039886446345 0.77714595512881146 1 0 0 1 I I #
face $-1 $-1 $175 $24 $-1 $345 reversed single #
loop $-1 $-1 $258 $160 #
plane-surface $-1 0 43.10286238983899 0 0 -1 0 0 0 -1 forward_v I I I I #
coedge $-1 $346 $256 $259 $347 forward $161 $-1 #
coedge $-1 $262 $163 $164 $250 reversed $101 $-1 #
coedge $-1 $256 $346 $163 $248 reversed $161 $-1 #
edge $-1 $263 -11.858516011785012 $348 11.858516011785012 $247 $349 forward 7 unknown #
coedge $-1 $165 $164 $346 $350 forward $65 $-1 #
edge $-1 $254 -63.739738151188696 $348 63.739738151188696 $246 $351 forward 7 unknown #
coedge $-1 $259 $258 $165 $252 reversed $243 $-1 #
edge $-1 $352 -63.739738151188696 $253 63.739738151188696 $251 $353 forward 7 unknown #
vertex $-1 $167 $354 #
vertex $-1 $265 $355 #
straight-curve $-1 63.739738151188696 0 -11.858516011785012 0 -1 0 I I #
coedge $-1 $245 $247 $168 $257 reversed $161 $-1 #
edge $-1 $260 -43.10286238983899 $263 43.10286238983899 $256 $356 forward 7 unknown #
coedge $-1 $251 $169 $174 $266 forward $243 $-1 #
coedge $-1 $169 $251 $245 $347 reversed $243 $-1 #
vertex $-1 $170 $357 #
straight-curve $-1 0 43.10286238983899 11.858516011785012 -1 0 0 I I #
coedge $-1 $171 $246 $173 $265 reversed $101 $-1 #
vertex $-1 $257 $358 #
straight-curve $-1 0 -43.10286238983899 11.858516011785012 1 0 0 I I #
edge $-1 $176 -11.858516011785012 $254 11.858516011785012 $173 $359 forward 7 unknown #
edge $-1 $177 -11.858516011785012 $253 11.858516011785012 $174 $360 forward 7 unknown #
point $-1 63.739738151188696 -43.10286238983899 11.858516011785012 #
point $-1 63.739738151188696 43.10286238983899 11.858516011785012 #
face $-1 $-1 $279 $25 $-1 $361 reversed single #
loop $-1 $-1 $275 $179 #
plane-surface $-1 0 0 -11.858516011785012 0 0 1 1 0 0 forward_v I I I I #
coedge $-1 $362 $363 $187 $283 forward $180 $-1 #
coedge $-1 $182 $287 $277 $364 forward $109 $-1 #
edge $-1 $281 -22.305983426090219 $192 -19.287774501407323 $182 $365 forward 7 unknown #
coedge $-1 $366 $188 $183 $276 forward $270 $-1 #
edge $-1 $193 19.287774501407323 $280 22.305983426090219 $275 $367 forward 7 unknown #
coedge $-1 $368 $185 $273 $364 reversed $279 $-1 #
coedge $-1 $185 $368 $366 $369 reversed $279 $-1 #
loop $-1 $-1 $185 $269 #
vertex $-1 $369 $370 #
vertex $-1 $186 $371 #
straight-curve $-1 -53.675029423979431 -43.10286238983899 0 0 0 1 I I #
edge $-1 $288 -11.858516011785012 $285 11.858516011785012 $272 $372 forward 7 unknown #
coedge $-1 $188 $366 $362 $373 forward $270 $-1 #
vertex $-1 $189 $374 #
straight-curve $-1 -29.353691893792032 -40.084653465156094 -11.858516011785012 1 0 0 I I #
coedge $-1 $273 $190 $363 $375 forward $109 $-1 #
vertex $-1 $375 $376 #
straight-curve $-1 -29.353691893792032 -40.084653465156094 11.858516011785012 -1 0 0 I I #
point $-1 -53.675029423979431 -40.084653465156094 11.858516011785012 #
point $-1 -53.675029423979431 -40.084653465156094 -11.858516011785012 #
plane-surface $-1 0 0 11.858516011785012 0 0 1 1 0 0 forward_v I I I I #
coedge $-1 $303 $302 $295 $377 forward $196 $-1 #
coedge $-1 $295 $198 $200 $299 reversed $117 $-1 #
coedge $-1 $198 $294 $293 $377 reversed $117 $-1 #
coedge $-1 $206 $201 $198 $297 forward $207 $-1 #
edge $-1 $300 -2.9069048003288316 $378 3.0250181330279133 $296 $379 forward 7 unknown #
coedge $-1 $200 $199 $303 $380 reversed $73 $-1 #
edge $-1 $381 -86.205724779678008 $300 -77.340604938321178 $294 $382 forward 7 unknown #
vertex $-1 $202 $383 #
straight-curve $-1 14.359246426344345 37.170939456482245 11.858516011785014 1 0 0 I I #
coedge $-1 $293 $203 $206 $307 reversed $196 $-1 #
coedge $-1 $203 $293 $298 $380 forward $196 $-1 #
vertex $-1 $204 $384 #
straight-curve $-1 16.409238455403653 43.10286238983899 77.317102557763832 0 0 1 I I #
straight-curve $-1 16.409238455403653 -14.580025710740387 69.333787011462604 0 0.66913059716165679 -0.74314483375859142 I I #
edge $-1 $378 -41.027747249973729 $208 -16.409238455403653 $302 $385 forward 7 unknown #
point $-1 16.409238455403653 43.10286238983899 11.858516011785012 #
point $-1 16.409238455403653 37.170939456482245 11.858516011785021 #
edge $-1 $386 1 $386 0 $211 $-1 forward 7 unknown #
vertex $-1 $212 $387 #
ellipse-curve $-1 23.443098110995102 37.336777818965231 6.0432399016079374 0 0.74314483375859142 0.66913059716165679 2 0 0 1 I I #
point $-1 25.443098110995102 40.136900923160631 8.5644820064074842 #
edge $-1 $388 1 $388 0 $215 $-1 forward 7 unknown #
vertex $-1 $216 $389 #
ellipse-curve $-1 33.993887594382279 37.336777818965231 6.0432399016079374 0 0.74314483375859142 0.66913059716165679 2 0 0 1 I I #
point $-1 35.993887594382279 40.136900923160631 8.5644820064074842 #
loop $-1 $-1 $227 $219 #
plane-surface $-1 -53.675029423979431 -41.593757927497542 0 -1 0 0 0 0 1 forward_v I I I I #
coedge $-1 $390 $326 $329 $391 forward $220 $-1 #
coedge $-1 $326 $390 $223 $322 forward $220 $-1 #
edge $-1 $324 18.561286241903026 $332 22.853224780945368 $321 $392 forward 7 unknown #
coedge $-1 $230 $224 $390 $393 reversed $139 $-1 #
vertex $-1 $225 $394 #
straight-curve $-1 -21.844723357099301 -43.10286238983899 53.726566005143745 0 0 1 I I #
coedge $-1 $320 $321 $226 $327 forward $220 $-1 #
edge $-1 $332 2.9647851618296208 $330 34.795091228709744 $326 $395 forward 7 unknown #
coedge $-1 $329 $227 $230 $334 reversed $318 $-1 #
coedge $-1 $227 $328 $320 $391 reversed $318 $-1 #
vertex $-1 $327 $396 #
straight-curve $-1 -53.675029423979431 -44.697092319039186 7.0919906715046999 0 -0.77714595512881146 -0.62932039886446345 I I #
vertex $-1 $327 $397 #
straight-curve $-1 -21.844723357099301 -43.102862389838975 8.3829726399557245 0 -0.77714595512881146 -0.62932039886446345 I I #
edge $-1 $398 -11.858516011785012 $231 -8.3829726399557138 $230 $399 forward 7 unknown #
point $-1 -53.675029423979431 -43.10286238983899 8.3829726399557138 #
point $-1 -21.844723357099301 -43.10286238983899 8.3829726399557138 #
edge $-1 $400 1 $400 0 $234 $-1 forward 7 unknown #
vertex $-1 $235 $401 #
ellipse-curve $-1 -44.580656262013676 -38.841783501306459 7.5088015252958398 0 -0.62932039886446345 0.77714595512881146 1 0 0 1 I I #
point $-1 -43.580656262013676 -40.956893120317829 10.120744325870376 #
edge $-1 $402 1 $402 0 $238 $-1 forward 7 unknown #
vertex $-1 $239 $403 #
ellipse-curve $-1 -30.939096519065053 -38.841783501306459 7.5088015252958398 0 -0.62932039886446345 0.77714595512881146 1 0 0 1 I I #
point $-1 -29.939096519065053 -40.956893120317829 10.120744325870376 #
plane-surface $-1 63.739738151188696 0 0 -1 0 0 0 0 1 forward_v I I I I #
coedge $-1 $247 $245 $249 $350 reversed $161 $-1 #
edge $-1 $260 -11.858516011785012 $352 11.858516011785012 $259 $404 forward 7 unknown #
vertex $-1 $350 $405 #
straight-curve $-1 -63.739738151188696 -43.10286238983899 0 0 0 -1 I I #
edge $-1 $348 -43.10286238983899 $352 43.10286238983899 $346 $406 forward 7 unknown #
straight-curve $-1 0 -43.10286238983899 -11.858516011785012 -1 0 0 I I #
vertex $-1 $252 $407 #
straight-curve $-1 0 43.10286238983899 -11.858516011785012 1 0 0 I I #
point $-1 63.739738151188696 43.10286238983899 -11.858516011785012 #
point $-1 63.739738151188696 -43.10286238983899 -11.858516011785012 #
straight-curve $-1 -63.739738151188696 0 11.858516011785012 0 -1 0 I I #
point $-1 -63.739738151188696 43.10286238983899 11.858516011785012 #
point $-1 -63.739738151188696 -43.10286238983899 11.858516011785012 #
straight-curve $-1 63.739738151188696 -43.10286238983899 0 0 0 -1 I I #
straight-curve $-1 63.739738151188696 43.10286238983899 0 0 0 -1 I I #
plane-surface $-1 0 -43.10286238983899 0 0 1 0 0 0 1 forward_v I I I I #
coedge $-1 $408 $272 $284 $373 reversed $180 $-1 #
coedge $-1 $272 $408 $287 $375 reversed $180 $-1 #
edge $-1 $409 -63.739738151188696 $281 -53.675029423979431 $277 $410 forward 7 unknown #
straight-curve $-1 -53.675029423979431 -20.796878963748771 11.858516011785012 0 1 0 I I #
coedge $-1 $284 $275 $278 $369 forward $270 $-1 #
straight-curve $-1 -53.675029423979431 -20.796878963748771 -11.858516011785012 0 -1 0 I I #
coedge $-1 $278 $277 $408 $411 forward $279 $-1 #
edge $-1 $280 53.675029423979431 $412 63.739738151188696 $278 $413 forward 7 unknown #
point $-1 -53.675029423979431 -43.10286238983899 -11.858516011785012 #
point $-1 -53.675029423979431 -43.10286238983899 11.858516011785012 #
straight-curve $-1 -63.739738151188696 -40.084653465156094 0 0 0 -1 I I #
edge $-1 $412 -43.10286238983899 $285 -40.084653465156094 $362 $414 forward 7 unknown #
point $-1 -63.739738151188696 -40.084653465156094 -11.858516011785012 #
edge $-1 $288 40.084653465156094 $409 43.10286238983899 $363 $415 forward 7 unknown #
point $-1 -63.739738151188696 -40.084653465156094 11.858516011785012 #
edge $-1 $378 65.458586545978818 $381 72.046654556733927 $293 $416 forward 7 unknown #
vertex $-1 $307 $417 #
straight-curve $-1 41.027747249973729 40.077844256811076 11.858516011785014 0 1 0 I I #
edge $-1 $381 -26.668500823629383 $304 -2.0499920290593074 $303 $418 forward 7 unknown #
vertex $-1 $380 $419 #
straight-curve $-1 41.027747249973729 -14.580025710740387 69.333787011462604 0 -0.66913059716165679 0.74314483375859142 I I #
point $-1 41.027747249973729 37.170939456482245 11.858516011785021 #
point $-1 16.409238455403653 43.10286238983899 5.2704480010299051 #
straight-curve $-1 0 43.10286238983899 11.858516011785012 -1 0 0 I I #
vertex $-1 $310 $420 #
point $-1 25.443098110995102 37.336777818965231 6.0432399016079374 #
vertex $-1 $314 $421 #
point $-1 35.993887594382279 37.336777818965231 6.0432399016079374 #
coedge $-1 $321 $320 $323 $393 forward $220 $-1 #
edge $-1 $330 -22.853224780945368 $398 -18.561286241903026 $320 $422 forward 7 unknown #
straight-curve $-1 -21.844723357099301 -61.664148631742016 11.858516011785014 0 1 0 I I #
edge $-1 $398 -53.675029423979431 $324 -21.844723357099301 $323 $423 forward 7 unknown #
point $-1 -21.844723357099301 -43.10286238983899 11.858516011785012 #
straight-curve $-1 -18.879938195269681 -38.810923850796648 11.858516011785012 -1 0 0 I I #
point $-1 -53.675029423979424 -38.810923850796648 11.858516011785012 #
point $-1 -21.844723357099301 -38.810923850796648 11.858516011785012 #
vertex $-1 $393 $424 #
straight-curve $-1 -53.675029423979431 -43.10286238983899 0 0 0 -1 I I #
vertex $-1 $337 $425 #
point $-1 -43.580656262013676 -38.841783501306459 7.5088015252958398 #
vertex $-1 $341 $426 #
point $-1 -29.939096519065053 -38.841783501306459 7.5088015252958398 #
straight-curve $-1 -63.739738151188696 43.10286238983899 0 0 0 -1 I I #
point $-1 -63.739738151188696 -43.10286238983899 -11.858516011785012 #
straight-curve $-1 -63.739738151188696 0 -11.858516011785012 0 1 0 I I #
point $-1 -63.739738151188696 43.10286238983899 -11.858516011785012 #
coedge $-1 $363 $362 $368 $411 reversed $180 $-1 #
vertex $-1 $375 $427 #
straight-curve $-1 0 -43.10286238983899 11.858516011785012 1 0 0 I I #
edge $-1 $409 -11.858516011785012 $412 11.858516011785012 $408 $428 forward 7 unknown #
vertex $-1 $373 $429 #
straight-curve $-1 0 -43.10286238983899 -11.858516011785012 -1 0 0 I I #
straight-curve $-1 -63.739738151188696 0 -11.858516011785012 0 1 0 I I #
straight-curve $-1 -63.739738151188696 0 11.858516011785012 0 -1 0 I I #
straight-curve $-1 41.027747249973729 43.10286238983899 77.317102557763832 0 0 -1 I I #
point $-1 41.027747249973729 43.10286238983899 11.858516011785012 #
straight-curve $-1 14.359246426344345 43.10286238983899 5.2704480010299157 -1 0 0 I I #
point $-1 41.027747249973729 43.10286238983899 5.2704480010299051 #
point $-1 23.443098110995102 35.850488151448047 4.7049787072846234 #
point $-1 33.993887594382279 35.850488151448047 4.7049787072846234 #
straight-curve $-1 -53.675029423979424 -61.664148631742016 11.858516011785014 0 -1 0 I I #
straight-curve $-1 0 -43.10286238983899 11.858516011785012 1 0 0 I I #
point $-1 -53.675029423979431 -43.10286238983899 11.858516011785012 #
point $-1 -44.580656262013676 -38.212463102441994 6.7316555701670291 #
point $-1 -30.939096519065053 -38.212463102441994 6.7316555701670291 #
point $-1 -63.739738151188696 -43.10286238983899 11.858516011785012 #
straight-curve $-1 -63.739738151188696 -43.10286238983899 0 0 0 -1 I I #
point $-1 -63.739738151188696 -43.10286238983899 -11.858516011785012 #
End-of-ACIS-data 