500 0 9 0           
7 Unknown 11 ACIS 5.0 NT 24 Fri Mar 26 03:15:50 1999 
-1 9.9999999999999995e-007 1e-010 
body $-1 $9 $-1 $10 #
body $-1 $11 $-1 $12 #
body $-1 $13 $-1 $14 #
body $-1 $15 $-1 $16 #
body $-1 $17 $-1 $18 #
body $-1 $19 $-1 $20 #
body $-1 $21 $-1 $22 #
body $-1 $23 $-1 $24 #
body $-1 $25 $-1 $26 #
lump $-1 $-1 $27 $0 #
transform $-1 1 0 0 0 1 0 0 0 1 40.67262794885098 17.147868910421661 7.8950741521437511 1 rotate no_reflect no_shear #
lump $-1 $-1 $28 $1 #
transform $-1 1 0 0 0 1 0 0 0 1 40.67262794885098 17.147868910421661 7.8950741521437511 1 rotate no_reflect no_shear #
lump $-1 $-1 $29 $2 #
transform $-1 1 0 0 0 1 0 0 0 1 40.67262794885098 17.147868910421661 7.8950741521437511 1 rotate no_reflect no_shear #
lump $-1 $-1 $30 $3 #
transform $-1 1 0 0 0 1 0 0 0 1 40.67262794885098 17.147868910421661 7.8950741521437511 1 rotate no_reflect no_shear #
lump $-1 $-1 $31 $4 #
transform $-1 1 0 0 0 1 0 0 0 1 40.67262794885098 17.147868910421661 7.8950741521437511 1 rotate no_reflect no_shear #
lump $-1 $-1 $32 $5 #
transform $-1 1 0 0 0 1 0 0 0 1 40.67262794885098 17.147868910421661 7.8950741521437511 1 rotate no_reflect no_shear #
lump $-1 $-1 $33 $6 #
transform $-1 1 0 0 0 1 0 0 0 1 40.67262794885098 17.147868910421661 7.8950741521437511 1 rotate no_reflect no_shear #
lump $-1 $-1 $34 $7 #
transform $-1 1 0 0 0 1 0 0 0 1 40.67262794885098 17.147868910421661 7.8950741521437511 1 rotate no_reflect no_shear #
lump $-1 $-1 $35 $8 #
transform $-1 1 0 0 0 1 0 0 0 1 40.67262794885098 17.147868910421661 7.8950741521437511 1 rotate no_reflect no_shear #
shell $-1 $-1 $-1 $36 $-1 $9 #
shell $-1 $-1 $-1 $37 $-1 $11 #
shell $-1 $-1 $-1 $38 $-1 $13 #
shell $-1 $-1 $-1 $39 $-1 $15 #
shell $-1 $-1 $-1 $40 $-1 $17 #
shell $-1 $-1 $-1 $41 $-1 $19 #
shell $-1 $-1 $-1 $42 $-1 $21 #
shell $-1 $-1 $-1 $43 $-1 $23 #
shell $-1 $-1 $-1 $44 $-1 $25 #
face $-1 $45 $46 $27 $-1 $47 forward single #
face $-1 $48 $49 $28 $-1 $50 forward single #
face $-1 $51 $52 $29 $-1 $53 reversed single #
face $-1 $54 $55 $30 $-1 $56 forward single #
face $-1 $57 $58 $31 $-1 $59 forward single #
face $-1 $60 $61 $32 $-1 $62 reversed single #
face $-1 $63 $64 $33 $-1 $65 forward single #
face $-1 $66 $67 $34 $-1 $68 forward single #
face $-1 $69 $70 $35 $-1 $71 forward single #
face $-1 $72 $73 $27 $-1 $74 reversed single #
loop $-1 $-1 $75 $36 #
plane-surface $-1 0 0 7.8950741521437511 0 0 1 1 0 0 forward_v I I I I #
face $-1 $76 $77 $28 $-1 $78 reversed single #
loop $-1 $-1 $79 $37 #
plane-surface $-1 -37.683607376810876 0 -4.2697554600612113 0 0 1 1 0 0 forward_v I I I I #
face $-1 $80 $81 $29 $-1 $82 reversed single #
loop $-1 $-1 $83 $38 #
plane-surface $-1 -22.785654675064308 -82.957564009152364 48.828050825957774 1 0 0 0 0.80901700255871778 -0.5877852410284794 forward_v I I I I #
face $-1 $84 $85 $30 $-1 $86 forward single #
loop $-1 $87 $88 $39 #
cone-surface $-1 -19.928082292456601 -13.237127117064908 3.4294730322747107 0 0.80901700255871778 -0.5877852410284794 1 0 0 1 I I 0 1 1 forward I I I I #
face $-1 $89 $90 $31 $-1 $91 forward single #
loop $-1 $92 $93 $40 #
cone-surface $-1 -15.641723718545041 -13.237127117064908 3.4294730322747107 0 0.80901700255871778 -0.5877852410284794 1 0 0 1 I I 0 1 1 forward I I I I #
face $-1 $94 $95 $32 $-1 $96 reversed single #
loop $-1 $-1 $97 $41 #
plane-surface $-1 6.4650443347121005 61.473389636809245 77.444402403766318 1 0 0 0 -0.79863551827123203 -0.60181501223851219 forward_v I I I I #
face $-1 $98 $99 $33 $-1 $100 forward single #
loop $-1 $101 $102 $42 #
cone-surface $-1 8.2224549644509324 13.864540321808693 3.9526008785556463 0 -0.79863551827123203 -0.60181501223851219 0.5 0 0 1 I I 0 1 0.5 forward I I I I #
face $-1 $103 $104 $34 $-1 $105 forward single #
loop $-1 $106 $107 $43 #
cone-surface $-1 10.858570909059175 13.864540321808693 3.9526008785556463 0 -0.79863551827123203 -0.60181501223851219 0.5 0 0 1 I I 0 1 0.5 forward I I I I #
face $-1 $108 $109 $35 $-1 $110 forward single #
loop $-1 $111 $112 $44 #
cone-surface $-1 13.494686853667417 13.864540321808693 3.9526008785556463 0 -0.79863551827123203 -0.60181501223851219 0.5 0 0 1 I I 0 1 0.5 forward I I I I #
face $-1 $113 $114 $27 $-1 $115 reversed single #
loop $-1 $-1 $116 $45 #
plane-surface $-1 0 0 -7.8950741521437511 0 0 1 1 0 0 forward_v I I I I #
coedge $-1 $117 $118 $119 $120 forward $46 $-1 #
face $-1 $121 $122 $28 $-1 $123 reversed single #
loop $-1 $-1 $124 $48 #
plane-surface $-1 -37.683607376810876 0 -7.2697554600612113 0 0 1 1 0 0 forward_v I I I I #
coedge $-1 $125 $126 $127 $128 forward $49 $-1 #
face $-1 $129 $130 $29 $-1 $131 reversed single #
loop $-1 $-1 $132 $51 #
plane-surface $-1 -17.784903005500823 -17.147868910421664 1.0145099816036947 0 -0.80901700255871778 0.5877852410284794 1 0 0 forward_v I I I I #
coedge $-1 $133 $134 $135 $136 reversed $52 $-1 #
face $-1 $-1 $137 $30 $-1 $138 forward single #
loop $-1 $139 $140 $54 #
cone-surface $-1 -19.928082292456601 -11.421387992528883 2.1102613771614589 0 0.80901700255871778 -0.5877852410284794 0.5 0 0 1 I I -0.70710678118654746 0.70710678118654746 0.5 forward I I I I #
loop $-1 $-1 $141 $39 #
coedge $-1 $88 $88 $142 $143 reversed $55 $-1 #
face $-1 $-1 $144 $31 $-1 $145 forward single #
loop $-1 $146 $147 $57 #
cone-surface $-1 -15.641723718545041 -11.421387992528883 2.1102613771614589 0 0.80901700255871778 -0.5877852410284794 0.5 0 0 1 I I -0.70710678118654746 0.70710678118654746 0.5 forward I I I I #
loop $-1 $-1 $148 $40 #
coedge $-1 $93 $93 $149 $150 reversed $58 $-1 #
face $-1 $151 $152 $32 $-1 $153 reversed single #
loop $-1 $-1 $154 $60 #
plane-surface $-1 10.858570909059175 -3.491820965957956 28.48960623014591 0 0.79863551827123203 0.60181501223851219 1 0 0 forward_v I I I I #
coedge $-1 $155 $156 $157 $158 reversed $61 $-1 #
face $-1 $-1 $159 $33 $-1 $160 forward single #
loop $-1 $161 $162 $63 #
cone-surface $-1 8.2224549644509324 12.941851483760825 3.2573049874285882 0 -0.79863551827123203 -0.60181501223851219 0.25 0 0 1 I I -0.70710678118654746 0.70710678118654746 0.25 forward I I I I #
loop $-1 $-1 $163 $42 #
coedge $-1 $102 $102 $164 $165 reversed $64 $-1 #
face $-1 $-1 $166 $34 $-1 $167 forward single #
loop $-1 $168 $169 $66 #
cone-surface $-1 10.858570909059175 12.941851483760825 3.2573049874285882 0 -0.79863551827123203 -0.60181501223851219 0.25 0 0 1 I I -0.70710678118654746 0.70710678118654746 0.25 forward I I I I #
loop $-1 $-1 $170 $43 #
coedge $-1 $107 $107 $171 $172 reversed $67 $-1 #
face $-1 $-1 $173 $35 $-1 $174 forward single #
loop $-1 $175 $176 $69 #
cone-surface $-1 13.494686853667417 12.941851483760825 3.2573049874285882 0 -0.79863551827123203 -0.60181501223851219 0.25 0 0 1 I I -0.70710678118654746 0.70710678118654746 0.25 forward I I I I #
loop $-1 $-1 $177 $44 #
coedge $-1 $112 $112 $178 $179 reversed $70 $-1 #
face $-1 $180 $181 $27 $-1 $182 reversed single #
loop $-1 $-1 $183 $72 #
plane-surface $-1 0 -17.147868910421661 0 0 1 0 0 0 1 forward_v I I I I #
coedge $-1 $184 $185 $186 $187 forward $73 $-1 #
coedge $-1 $188 $75 $189 $190 forward $46 $-1 #
coedge $-1 $75 $188 $191 $192 forward $46 $-1 #
coedge $-1 $193 $194 $75 $120 reversed $195 $-1 #
edge $-1 $196 -17.147868910421661 $197 17.147868910421661 $119 $198 forward 7 unknown #
face $-1 $199 $200 $28 $-1 $201 reversed single #
loop $-1 $-1 $202 $76 #
plane-surface $-1 -34.694586804770772 0 -5.7697554600612113 -1 0 0 0 0 1 forward_v I I I I #
coedge $-1 $203 $204 $205 $206 forward $77 $-1 #
coedge $-1 $207 $79 $208 $209 reversed $49 $-1 #
coedge $-1 $79 $207 $210 $211 reversed $49 $-1 #
coedge $-1 $202 $212 $79 $128 reversed $122 $-1 #
edge $-1 $213 -17.147868910421661 $214 17.147868910421661 $127 $215 forward 7 unknown #
face $-1 $216 $217 $29 $-1 $218 forward single #
loop $-1 $-1 $219 $80 #
plane-surface $-1 -12.784151335937338 -82.957564009152364 48.828050825957774 -1 0 0 0 -0.80901700255871778 0.5877852410284794 forward_v I I I I #
coedge $-1 $220 $221 $222 $223 reversed $81 $-1 #
coedge $-1 $134 $83 $224 $225 reversed $52 $-1 #
coedge $-1 $83 $133 $220 $226 reversed $52 $-1 #
coedge $-1 $222 $227 $83 $136 forward $228 $-1 #
edge $-1 $229 16.518951260835138 $230 23.399515431375189 $135 $231 forward 7 unknown #
loop $-1 $-1 $142 $84 #
plane-surface $-1 -17.784903005500823 -17.147868910421664 1.0145099816036947 0 -0.80901700255871778 0.5877852410284794 1 0 0 forward_v I I I I #
loop $-1 $-1 $232 $54 #
coedge $-1 $140 $140 $141 $233 reversed $85 $-1 #
coedge $-1 $141 $141 $140 $233 forward $87 $-1 #
coedge $-1 $142 $142 $88 $143 forward $137 $-1 #
edge $-1 $234 -6.7421662530474143e-017 $234 6.2831853071796004 $142 $235 forward 7 unknown #
loop $-1 $-1 $149 $89 #
plane-surface $-1 -17.784903005500823 -17.147868910421664 1.0145099816036947 0 -0.80901700255871778 0.5877852410284794 1 0 0 forward_v I I I I #
loop $-1 $-1 $236 $57 #
coedge $-1 $147 $147 $148 $237 reversed $90 $-1 #
coedge $-1 $148 $148 $147 $237 forward $92 $-1 #
coedge $-1 $149 $149 $93 $150 forward $144 $-1 #
edge $-1 $238 -6.7421662530474143e-017 $238 6.2831853071796004 $149 $239 forward 7 unknown #
face $-1 $240 $241 $32 $-1 $242 reversed single #
loop $-1 $-1 $243 $94 #
plane-surface $-1 15.252097483406249 61.473389636809245 77.444402403766318 -1 0 0 0 0.79863551827123203 0.60181501223851219 forward_v I I I I #
coedge $-1 $244 $245 $246 $247 reversed $95 $-1 #
coedge $-1 $156 $97 $248 $249 reversed $61 $-1 #
coedge $-1 $97 $155 $244 $250 reversed $61 $-1 #
coedge $-1 $246 $251 $97 $158 forward $252 $-1 #
edge $-1 $253 13.588825907982962 $254 18.709423168248769 $157 $255 forward 7 unknown #
loop $-1 $-1 $164 $98 #
plane-surface $-1 10.858570909059175 -3.491820965957956 28.48960623014591 0 0.79863551827123203 0.60181501223851219 1 0 0 forward_v I I I I #
loop $-1 $-1 $256 $63 #
coedge $-1 $162 $162 $163 $257 reversed $99 $-1 #
coedge $-1 $163 $163 $162 $257 forward $101 $-1 #
coedge $-1 $164 $164 $102 $165 forward $159 $-1 #
edge $-1 $258 -7.5975047495279938e-016 $258 6.2831853071795996 $164 $259 forward 7 unknown #
loop $-1 $-1 $171 $103 #
plane-surface $-1 10.858570909059175 -3.491820965957956 28.48960623014591 0 0.79863551827123203 0.60181501223851219 1 0 0 forward_v I I I I #
loop $-1 $-1 $260 $66 #
coedge $-1 $169 $169 $170 $261 reversed $104 $-1 #
coedge $-1 $170 $170 $169 $261 forward $106 $-1 #
coedge $-1 $171 $171 $107 $172 forward $166 $-1 #
edge $-1 $262 -7.5975047495279938e-016 $262 6.2831853071795996 $171 $263 forward 7 unknown #
loop $-1 $-1 $178 $108 #
plane-surface $-1 10.858570909059175 -3.491820965957956 28.48960623014591 0 0.79863551827123203 0.60181501223851219 1 0 0 forward_v I I I I #
loop $-1 $-1 $264 $69 #
coedge $-1 $176 $176 $177 $265 reversed $109 $-1 #
coedge $-1 $177 $177 $176 $265 forward $111 $-1 #
coedge $-1 $178 $178 $112 $179 forward $173 $-1 #
edge $-1 $266 -7.5975047495279938e-016 $266 6.2831853071795996 $178 $267 forward 7 unknown #
face $-1 $268 $269 $27 $-1 $270 reversed single #
loop $-1 $-1 $271 $113 #
plane-surface $-1 -40.67262794885098 0 0 1 0 0 0 0 -1 forward_v I I I I #
coedge $-1 $272 $191 $273 $274 forward $114 $-1 #
coedge $-1 $275 $116 $272 $276 forward $73 $-1 #
coedge $-1 $116 $275 $277 $278 forward $73 $-1 #
coedge $-1 $194 $193 $116 $187 reversed $195 $-1 #
edge $-1 $279 -17.147868910421661 $280 17.147868910421661 $186 $281 forward 7 unknown #
coedge $-1 $118 $117 $282 $283 forward $46 $-1 #
coedge $-1 $284 $285 $117 $190 reversed $269 $-1 #
edge $-1 $197 -40.67262794885098 $286 40.67262794885098 $189 $287 forward 7 unknown #
coedge $-1 $183 $288 $118 $192 reversed $114 $-1 #
edge $-1 $289 -40.67262794885098 $196 40.67262794885098 $191 $290 forward 7 unknown #
coedge $-1 $186 $119 $288 $291 forward $195 $-1 #
coedge $-1 $119 $186 $284 $292 reversed $195 $-1 #
loop $-1 $-1 $193 $268 #
vertex $-1 $120 $293 #
vertex $-1 $120 $294 #
straight-curve $-1 40.67262794885098 0 7.8950741521437511 0 1 0 I I #
face $-1 $295 $296 $28 $-1 $297 reversed single #
loop $-1 $-1 $298 $121 #
plane-surface $-1 0 -17.147868910421661 0 0 1 0 0 0 1 forward_v I I I I #
coedge $-1 $205 $127 $299 $300 reversed $122 $-1 #
coedge $-1 $301 $124 $298 $302 reversed $77 $-1 #
coedge $-1 $124 $301 $303 $304 reversed $77 $-1 #
coedge $-1 $212 $202 $124 $206 reversed $122 $-1 #
edge $-1 $305 -17.147868910421661 $306 17.147868910421661 $205 $307 forward 7 unknown #
coedge $-1 $126 $125 $308 $309 reversed $49 $-1 #
coedge $-1 $310 $311 $125 $209 forward $312 $-1 #
edge $-1 $313 -21.830824260445542 $214 -15.852783116365334 $208 $314 forward 7 unknown #
coedge $-1 $315 $299 $126 $211 forward $200 $-1 #
edge $-1 $213 15.852783116365334 $316 21.830824260445542 $210 $317 forward 7 unknown #
coedge $-1 $127 $205 $310 $318 reversed $122 $-1 #
vertex $-1 $211 $319 #
vertex $-1 $209 $320 #
straight-curve $-1 -34.694586804770772 0 -4.2697554600612113 0 1 0 I I #
face $-1 $-1 $228 $29 $-1 $321 reversed single #
loop $-1 $-1 $322 $129 #
plane-surface $-1 0 0 7.8950741521437511 0 0 1 1 0 0 forward_v I I I I #
coedge $-1 $323 $324 $325 $326 reversed $130 $-1 #
coedge $-1 $327 $132 $134 $226 forward $81 $-1 #
coedge $-1 $132 $327 $323 $328 forward $81 $-1 #
coedge $-1 $325 $135 $132 $223 forward $228 $-1 #
edge $-1 $230 -13.893203172313896 $329 -3.8916998331869266 $222 $330 forward 7 unknown #
coedge $-1 $331 $332 $133 $225 forward $217 $-1 #
edge $-1 $333 -29.329935434354685 $229 -24.330913094154521 $224 $334 forward 7 unknown #
edge $-1 $230 6.040265601636166e-015 $333 8.5048449523045342 $134 $335 forward 7 unknown #
coedge $-1 $135 $325 $331 $336 reversed $228 $-1 #
loop $-1 $-1 $325 $216 #
vertex $-1 $336 $337 #
vertex $-1 $136 $338 #
straight-curve $-1 -22.785654675064308 -17.147868910421657 24.414025412978887 0 0 -1 I I #
coedge $-1 $232 $232 $-1 $339 reversed $139 $-1 #
edge $-1 $340 0 $340 6.2831853071796004 $140 $341 forward 7 unknown #
vertex $-1 $143 $342 #
ellipse-curve $-1 -19.928082292456601 -14.648357740321579 4.4547920668737255 0 -0.80901700255871778 0.5877852410284794 1 0 0 1 I I #
coedge $-1 $236 $236 $-1 $343 reversed $146 $-1 #
edge $-1 $344 0 $344 6.2831853071796004 $147 $345 forward 7 unknown #
vertex $-1 $150 $346 #
ellipse-curve $-1 -15.641723718545041 -14.648357740321579 4.4547920668737255 0 -0.80901700255871778 0.5877852410284794 1 0 0 1 I I #
face $-1 $-1 $252 $32 $-1 $347 forward single #
loop $-1 $-1 $348 $151 #
plane-surface $-1 0 17.147868910421661 0 0 -1 0 0 0 -1 forward_v I I I I #
coedge $-1 $349 $350 $351 $352 reversed $152 $-1 #
coedge $-1 $353 $154 $156 $250 forward $95 $-1 #
coedge $-1 $154 $353 $349 $354 forward $95 $-1 #
coedge $-1 $351 $157 $154 $247 forward $252 $-1 #
edge $-1 $254 1.0357588801825131 $355 9.8228120288766618 $246 $356 forward 7 unknown #
coedge $-1 $357 $358 $155 $249 forward $241 $-1 #
edge $-1 $359 -37.622389320780734 $253 -30.82712704973941 $248 $360 forward 7 unknown #
edge $-1 $254 25.787147712365908 $359 34.2957378208433 $156 $361 forward 7 unknown #
coedge $-1 $157 $351 $357 $362 forward $252 $-1 #
loop $-1 $-1 $351 $240 #
vertex $-1 $249 $363 #
vertex $-1 $158 $364 #
straight-curve $-1 6.4650443347121005 30.736694818404622 7.8950741521437493 0 -1 0 I I #
coedge $-1 $256 $256 $-1 $365 reversed $161 $-1 #
edge $-1 $366 0 $366 6.2831853071796004 $162 $367 forward 7 unknown #
vertex $-1 $165 $368 #
ellipse-curve $-1 8.2224549644509324 14.587570280288761 4.4974430166230821 0 0.79863551827123203 0.60181501223851219 0.5 0 0 1 I I #
coedge $-1 $260 $260 $-1 $369 reversed $168 $-1 #
edge $-1 $370 0 $370 6.2831853071796004 $169 $371 forward 7 unknown #
vertex $-1 $172 $372 #
ellipse-curve $-1 10.858570909059175 14.587570280288761 4.4974430166230821 0 0.79863551827123203 0.60181501223851219 0.5 0 0 1 I I #
coedge $-1 $264 $264 $-1 $373 reversed $175 $-1 #
edge $-1 $374 0 $374 6.2831853071796004 $176 $375 forward 7 unknown #
vertex $-1 $179 $376 #
ellipse-curve $-1 13.494686853667417 14.587570280288761 4.4974430166230821 0 0.79863551827123203 0.60181501223851219 0.5 0 0 1 I I #
face $-1 $-1 $195 $27 $-1 $377 reversed single #
loop $-1 $-1 $284 $180 #
plane-surface $-1 0 17.147868910421661 0 0 -1 0 0 0 -1 forward_v I I I I #
coedge $-1 $378 $282 $285 $379 forward $181 $-1 #
coedge $-1 $288 $183 $184 $276 reversed $114 $-1 #
coedge $-1 $282 $378 $183 $274 reversed $181 $-1 #
edge $-1 $289 -7.8950741521437511 $380 7.8950741521437511 $273 $381 forward 7 unknown #
coedge $-1 $185 $184 $378 $382 forward $73 $-1 #
edge $-1 $280 -40.67262794885098 $380 40.67262794885098 $272 $383 forward 7 unknown #
coedge $-1 $285 $284 $185 $278 reversed $269 $-1 #
edge $-1 $384 -40.67262794885098 $279 40.67262794885098 $277 $385 forward 7 unknown #
vertex $-1 $187 $386 #
vertex $-1 $291 $387 #
straight-curve $-1 40.67262794885098 0 -7.8950741521437511 0 -1 0 I I #
coedge $-1 $271 $273 $188 $283 reversed $181 $-1 #
edge $-1 $286 -17.147868910421661 $289 17.147868910421661 $282 $388 forward 7 unknown #
coedge $-1 $277 $189 $194 $292 forward $269 $-1 #
coedge $-1 $189 $277 $271 $379 reversed $269 $-1 #
vertex $-1 $190 $389 #
straight-curve $-1 0 17.147868910421661 7.8950741521437511 -1 0 0 I I #
coedge $-1 $191 $272 $193 $291 reversed $114 $-1 #
vertex $-1 $283 $390 #
straight-curve $-1 0 -17.147868910421661 7.8950741521437511 1 0 0 I I #
edge $-1 $196 -7.8950741521437511 $280 7.8950741521437511 $193 $391 forward 7 unknown #
edge $-1 $197 -7.8950741521437511 $279 7.8950741521437511 $194 $392 forward 7 unknown #
point $-1 40.67262794885098 -17.147868910421661 7.8950741521437511 #
point $-1 40.67262794885098 17.147868910421661 7.8950741521437511 #
face $-1 $-1 $312 $28 $-1 $393 reversed single #
loop $-1 $-1 $394 $199 #
plane-surface $-1 -40.67262794885098 0 0 1 0 0 0 0 -1 forward_v I I I I #
coedge $-1 $299 $315 $203 $302 forward $200 $-1 #
coedge $-1 $210 $298 $202 $300 forward $200 $-1 #
edge $-1 $306 -4.3848777300306061 $213 -1.3848777300306057 $299 $395 forward 7 unknown #
coedge $-1 $204 $203 $394 $396 reversed $77 $-1 #
edge $-1 $397 -21.830824260445542 $306 -15.852783116365334 $298 $398 forward 7 unknown #
coedge $-1 $311 $310 $204 $304 forward $312 $-1 #
edge $-1 $305 15.852783116365334 $399 21.830824260445542 $303 $400 forward 7 unknown #
vertex $-1 $304 $401 #
vertex $-1 $302 $402 #
straight-curve $-1 -34.694586804770772 0 -7.2697554600612113 0 -1 0 I I #
coedge $-1 $403 $404 $207 $309 forward $296 $-1 #
edge $-1 $316 -17.147868910421661 $313 17.147868910421661 $308 $405 forward 7 unknown #
coedge $-1 $303 $208 $212 $318 forward $312 $-1 #
coedge $-1 $208 $303 $403 $406 reversed $312 $-1 #
loop $-1 $-1 $303 $295 #
vertex $-1 $406 $407 #
straight-curve $-1 -18.841803688405438 17.147868910421661 -4.2697554600612113 1 0 0 I I #
coedge $-1 $298 $210 $404 $408 forward $200 $-1 #
vertex $-1 $408 $409 #
straight-curve $-1 -18.841803688405438 -17.147868910421661 -4.2697554600612113 -1 0 0 I I #
edge $-1 $214 1.3848777300306057 $305 4.3848777300306061 $310 $410 forward 7 unknown #
point $-1 -34.694586804770772 -17.147868910421661 -4.2697554600612113 #
point $-1 -34.694586804770772 17.147868910421661 -4.2697554600612113 #
plane-surface $-1 0 -17.147868910421661 0 0 1 0 0 0 1 forward_v I I I I #
coedge $-1 $332 $331 $324 $411 forward $217 $-1 #
coedge $-1 $324 $219 $221 $328 reversed $130 $-1 #
coedge $-1 $219 $323 $322 $411 reversed $130 $-1 #
coedge $-1 $227 $222 $219 $326 forward $228 $-1 #
edge $-1 $329 -23.399515431375189 $412 -16.518951260835138 $325 $413 forward 7 unknown #
coedge $-1 $221 $220 $332 $414 reversed $81 $-1 #
edge $-1 $415 -8.5048449523045342 $329 -6.040265601636166e-015 $323 $416 forward 7 unknown #
vertex $-1 $223 $417 #
straight-curve $-1 -8.8924515027504114 -17.147868910421661 1.0145099816037004 1 0 0 I I #
coedge $-1 $322 $224 $227 $336 forward $217 $-1 #
coedge $-1 $224 $322 $327 $414 forward $217 $-1 #
vertex $-1 $225 $418 #
straight-curve $-1 -22.785654675064308 -41.478782004576182 7.8950741521437493 0 -1 0 I I #
straight-curve $-1 -22.785654675064308 -17.147868910421664 1.0145099816036947 0 0.5877852410284794 0.80901700255871778 I I #
edge $-1 $229 -22.785654675064308 $412 -12.784151335937338 $227 $419 forward 7 unknown #
point $-1 -22.785654675064308 -17.147868910421661 7.8950741521437511 #
point $-1 -22.785654675064308 -17.147868910421661 1.0145099816036995 #
edge $-1 $420 1 $420 0 $232 $-1 forward 7 unknown #
vertex $-1 $233 $421 #
ellipse-curve $-1 -19.928082292456601 -11.825896493808242 2.4041539976756985 0 -0.80901700255871778 0.5877852410284794 1 0 0 1 I I #
point $-1 -18.928082292456601 -14.648357740321575 4.4547920668737229 #
edge $-1 $422 1 $422 0 $236 $-1 forward 7 unknown #
vertex $-1 $237 $423 #
ellipse-curve $-1 -15.641723718545041 -11.825896493808242 2.4041539976756985 0 -0.80901700255871778 0.5877852410284794 1 0 0 1 I I #
point $-1 -14.641723718545041 -14.648357740321575 4.4547920668737229 #
plane-surface $-1 0 0 7.8950741521437511 0 0 1 1 0 0 forward_v I I I I #
coedge $-1 $358 $357 $350 $424 forward $241 $-1 #
coedge $-1 $350 $243 $245 $354 reversed $152 $-1 #
coedge $-1 $243 $349 $348 $424 reversed $152 $-1 #
coedge $-1 $251 $246 $243 $352 forward $252 $-1 #
edge $-1 $355 -18.709423168248769 $425 -13.588825907982962 $351 $426 forward 7 unknown #
coedge $-1 $245 $244 $358 $427 reversed $95 $-1 #
edge $-1 $428 -34.2957378208433 $355 -25.787147712365908 $349 $429 forward 7 unknown #
vertex $-1 $247 $430 #
straight-curve $-1 5.4292854545295874 12.027271650155852 7.8950741521437493 1 0 0 I I #
coedge $-1 $348 $248 $251 $362 reversed $241 $-1 #
coedge $-1 $248 $348 $353 $427 forward $241 $-1 #
vertex $-1 $249 $431 #
straight-curve $-1 6.4650443347121005 17.147868910421661 38.722201201883159 0 0 1 I I #
straight-curve $-1 6.4650443347121005 -3.491820965957956 28.48960623014591 0 0.60181501223851219 -0.79863551827123203 I I #
edge $-1 $425 -15.252097483406249 $253 -6.4650443347121005 $357 $432 forward 7 unknown #
point $-1 6.4650443347121005 17.147868910421661 7.8950741521437511 #
point $-1 6.4650443347121005 12.027271650155852 7.8950741521437493 #
edge $-1 $433 1 $433 0 $256 $-1 forward 7 unknown #
vertex $-1 $257 $434 #
ellipse-curve $-1 8.2224549644509324 13.141510363328633 3.4077587404882164 0 0.79863551827123203 0.60181501223851219 0.5 0 0 1 I I #
point $-1 8.7224549644509324 14.587570280288752 4.4974430166230759 #
edge $-1 $435 1 $435 0 $260 $-1 forward 7 unknown #
vertex $-1 $261 $436 #
ellipse-curve $-1 10.858570909059175 13.141510363328633 3.4077587404882164 0 0.79863551827123203 0.60181501223851219 0.5 0 0 1 I I #
point $-1 11.358570909059175 14.587570280288752 4.4974430166230759 #
edge $-1 $437 1 $437 0 $264 $-1 forward 7 unknown #
vertex $-1 $265 $438 #
ellipse-curve $-1 13.494686853667417 13.141510363328633 3.4077587404882164 0 0.79863551827123203 0.60181501223851219 0.5 0 0 1 I I #
point $-1 13.994686853667417 14.587570280288752 4.4974430166230759 #
plane-surface $-1 40.67262794885098 0 0 -1 0 0 0 0 1 forward_v I I I I #
coedge $-1 $273 $271 $275 $382 reversed $181 $-1 #
edge $-1 $286 -7.8950741521437511 $384 7.8950741521437511 $285 $439 forward 7 unknown #
vertex $-1 $382 $440 #
straight-curve $-1 -40.67262794885098 -17.147868910421661 0 0 0 -1 I I #
edge $-1 $380 -17.147868910421661 $384 17.147868910421661 $378 $441 forward 7 unknown #
straight-curve $-1 0 -17.147868910421661 -7.8950741521437511 -1 0 0 I I #
vertex $-1 $278 $442 #
straight-curve $-1 0 17.147868910421661 -7.8950741521437511 1 0 0 I I #
point $-1 40.67262794885098 17.147868910421661 -7.8950741521437511 #
point $-1 40.67262794885098 -17.147868910421661 -7.8950741521437511 #
straight-curve $-1 -40.67262794885098 0 7.8950741521437511 0 -1 0 I I #
point $-1 -40.67262794885098 17.147868910421661 7.8950741521437511 #
point $-1 -40.67262794885098 -17.147868910421661 7.8950741521437511 #
straight-curve $-1 40.67262794885098 -17.147868910421661 0 0 0 -1 I I #
straight-curve $-1 40.67262794885098 17.147868910421661 0 0 0 -1 I I #
plane-surface $-1 0 17.147868910421661 0 0 -1 0 0 0 -1 forward_v I I I I #
coedge $-1 $404 $403 $301 $396 forward $296 $-1 #
straight-curve $-1 -34.694586804770772 -17.147868910421661 -2.8848777300306057 0 0 1 I I #
edge $-1 $399 -17.147868910421661 $397 17.147868910421661 $394 $443 forward 7 unknown #
vertex $-1 $302 $444 #
straight-curve $-1 -18.841803688405438 -17.147868910421661 -7.2697554600612113 1 0 0 I I #
vertex $-1 $304 $445 #
straight-curve $-1 -18.841803688405438 17.147868910421661 -7.2697554600612113 -1 0 0 I I #
point $-1 -34.694586804770772 17.147868910421661 -7.2697554600612113 #
point $-1 -34.694586804770772 -17.147868910421661 -7.2697554600612113 #
coedge $-1 $394 $308 $311 $406 forward $296 $-1 #
coedge $-1 $308 $394 $315 $408 reversed $296 $-1 #
straight-curve $-1 -40.67262794885098 0 -4.2697554600612113 0 1 0 I I #
edge $-1 $313 4.2697554600612113 $399 7.2697554600612113 $311 $446 forward 7 unknown #
point $-1 -40.67262794885098 17.147868910421661 -4.2697554600612113 #
edge $-1 $316 4.2697554600612113 $397 7.2697554600612113 $404 $447 forward 7 unknown #
point $-1 -40.67262794885098 -17.147868910421661 -4.2697554600612113 #
straight-curve $-1 -34.694586804770772 17.147868910421661 -2.8848777300306057 0 0 -1 I I #
edge $-1 $412 24.330913094154521 $415 29.329935434354685 $322 $448 forward 7 unknown #
vertex $-1 $411 $449 #
straight-curve $-1 -12.784151335937338 -17.147868910421657 24.414025412978887 0 0 1 I I #
edge $-1 $415 3.8916998331869266 $333 13.893203172313896 $332 $450 forward 7 unknown #
vertex $-1 $414 $451 #
straight-curve $-1 -12.784151335937338 -17.147868910421664 1.0145099816036947 0 -0.5877852410284794 -0.80901700255871778 I I #
point $-1 -12.784151335937338 -17.147868910421661 1.0145099816036995 #
point $-1 -22.785654675064308 -12.148846570221497 7.8950741521437511 #
straight-curve $-1 0 -17.147868910421661 7.8950741521437511 1 0 0 I I #
vertex $-1 $339 $452 #
point $-1 -18.928082292456601 -11.825896493808242 2.4041539976756985 #
vertex $-1 $343 $453 #
point $-1 -14.641723718545041 -11.825896493808242 2.4041539976756985 #
edge $-1 $425 30.82712704973941 $428 37.622389320780734 $348 $454 forward 7 unknown #
vertex $-1 $362 $455 #
straight-curve $-1 15.252097483406249 30.736694818404622 7.8950741521437493 0 1 0 I I #
edge $-1 $428 -9.8228120288766618 $359 -1.0357588801825131 $358 $456 forward 7 unknown #
vertex $-1 $427 $457 #
straight-curve $-1 15.252097483406249 -3.491820965957956 28.48960623014591 0 -0.60181501223851219 0.79863551827123203 I I #
point $-1 15.252097483406249 12.027271650155852 7.8950741521437493 #
point $-1 6.4650443347121005 17.147868910421661 1.0998118811024256 #
straight-curve $-1 0 17.147868910421661 7.8950741521437511 -1 0 0 I I #
vertex $-1 $365 $458 #
point $-1 8.7224549644509324 13.141510363328633 3.4077587404882164 #
vertex $-1 $369 $459 #
point $-1 11.358570909059175 13.141510363328633 3.4077587404882164 #
vertex $-1 $373 $460 #
point $-1 13.994686853667417 13.141510363328633 3.4077587404882164 #
straight-curve $-1 -40.67262794885098 17.147868910421661 0 0 0 -1 I I #
point $-1 -40.67262794885098 -17.147868910421661 -7.8950741521437511 #
straight-curve $-1 -40.67262794885098 0 -7.8950741521437511 0 1 0 I I #
point $-1 -40.67262794885098 17.147868910421661 -7.8950741521437511 #
straight-curve $-1 -40.67262794885098 0 -7.2697554600612113 0 -1 0 I I #
point $-1 -40.67262794885098 -17.147868910421661 -7.2697554600612113 #
point $-1 -40.67262794885098 17.147868910421661 -7.2697554600612113 #
straight-curve $-1 -40.67262794885098 17.147868910421661 0 0 0 -1 I I #
straight-curve $-1 -40.67262794885098 -17.147868910421661 0 0 0 -1 I I #
straight-curve $-1 -12.784151335937338 -41.478782004576182 7.8950741521437493 0 1 0 I I #
point $-1 -12.784151335937338 -17.147868910421661 7.8950741521437511 #
straight-curve $-1 -8.8924515027504114 -12.148846570221496 7.8950741521437511 -1 0 0 I I #
point $-1 -12.784151335937338 -12.148846570221497 7.8950741521437511 #
point $-1 -19.928082292456601 -11.016879491249524 1.8163687566472193 #
point $-1 -15.641723718545041 -11.016879491249524 1.8163687566472193 #
straight-curve $-1 15.252097483406249 17.147868910421661 38.722201201883159 0 0 -1 I I #
point $-1 15.252097483406249 17.147868910421661 7.8950741521437511 #
straight-curve $-1 5.4292854545295874 17.147868910421661 1.0998118811024309 -1 0 0 I I #
point $-1 15.252097483406249 17.147868910421661 1.0998118811024256 #
point $-1 8.2224549644509324 12.742192604193017 3.10685123436896 #
point $-1 10.858570909059175 12.742192604193017 3.10685123436896 #
point $-1 13.494686853667417 12.742192604193017 3.10685123436896 #
End-of-ACIS-data 