500 0 9 0           
7 Unknown 11 ACIS 5.0 NT 24 Thu Mar 25 17:16:07 1999 
-1 9.9999999999999995e-007 1e-010 
body $-1 $9 $-1 $10 #
body $-1 $11 $-1 $12 #
body $-1 $13 $-1 $14 #
body $-1 $15 $-1 $16 #
body $-1 $17 $-1 $18 #
body $-1 $19 $-1 $20 #
body $-1 $21 $-1 $22 #
body $-1 $23 $-1 $24 #
body $-1 $25 $-1 $26 #
lump $-1 $-1 $27 $0 #
transform $-1 1 0 0 0 1 0 0 0 1 64.063234351634264 30.738113472486305 11.720670527032857 1 rotate no_reflect no_shear #
lump $-1 $-1 $28 $1 #
transform $-1 1 0 0 0 1 0 0 0 1 64.063234351634264 30.738113472486305 11.720670527032857 1 rotate no_reflect no_shear #
lump $-1 $-1 $29 $2 #
transform $-1 1 0 0 0 1 0 0 0 1 64.063234351634264 30.738113472486305 11.720670527032857 1 rotate no_reflect no_shear #
lump $-1 $-1 $30 $3 #
transform $-1 1 0 0 0 1 0 0 0 1 64.063234351634264 30.738113472486305 11.720670527032857 1 rotate no_reflect no_shear #
lump $-1 $-1 $31 $4 #
transform $-1 1 0 0 0 1 0 0 0 1 64.063234351634264 30.738113472486305 11.720670527032857 1 rotate no_reflect no_shear #
lump $-1 $-1 $32 $5 #
transform $-1 1 0 0 0 1 0 0 0 1 64.063234351634264 30.738113472486305 11.720670527032857 1 rotate no_reflect no_shear #
lump $-1 $-1 $33 $6 #
transform $-1 1 0 0 0 1 0 0 0 1 64.063234351634264 30.738113472486305 11.720670527032857 1 rotate no_reflect no_shear #
lump $-1 $-1 $34 $7 #
transform $-1 1 0 0 0 1 0 0 0 1 64.063234351634264 30.738113472486305 11.720670527032857 1 rotate no_reflect no_shear #
lump $-1 $-1 $35 $8 #
transform $-1 1 0 0 0 1 0 0 0 1 64.063234351634264 30.738113472486305 11.720670527032857 1 rotate no_reflect no_shear #
shell $-1 $-1 $-1 $36 $-1 $9 #
shell $-1 $-1 $-1 $37 $-1 $11 #
shell $-1 $-1 $-1 $38 $-1 $13 #
shell $-1 $-1 $-1 $39 $-1 $15 #
shell $-1 $-1 $-1 $40 $-1 $17 #
shell $-1 $-1 $-1 $41 $-1 $19 #
shell $-1 $-1 $-1 $42 $-1 $21 #
shell $-1 $-1 $-1 $43 $-1 $23 #
shell $-1 $-1 $-1 $44 $-1 $25 #
face $-1 $45 $46 $27 $-1 $47 forward single #
face $-1 $48 $49 $28 $-1 $50 reversed single #
face $-1 $51 $52 $29 $-1 $53 forward single #
face $-1 $54 $55 $30 $-1 $56 forward single #
face $-1 $57 $58 $31 $-1 $59 forward single #
face $-1 $60 $61 $32 $-1 $62 reversed single #
face $-1 $63 $64 $33 $-1 $65 forward single #
face $-1 $66 $67 $34 $-1 $68 forward single #
face $-1 $69 $70 $35 $-1 $71 forward single #
face $-1 $72 $73 $27 $-1 $74 reversed single #
loop $-1 $-1 $75 $36 #
plane-surface $-1 0 0 11.720670527032857 0 0 1 1 0 0 forward_v I I I I #
face $-1 $76 $77 $28 $-1 $78 reversed single #
loop $-1 $-1 $79 $37 #
plane-surface $-1 -173.88905468236408 -27.178204681240544 70.50590329952 0 1 0 -0.85716730853699208 0 0.51503806187062418 forward_v I I I I #
face $-1 $80 $81 $29 $-1 $82 forward single #
loop $-1 $83 $84 $38 #
cone-surface $-1 -61.141764235524896 -24.383134843352384 7.6634690539790684 0.85716730853699208 0 -0.51503806187062418 0.51503806187062418 0 0.85716730853699208 1 I I 0 1 1 forward I I I I #
face $-1 $85 $86 $30 $-1 $87 forward single #
loop $-1 $88 $89 $39 #
cone-surface $-1 -61.141764235524896 -20.190530086520148 7.6634690539790684 0.85716730853699208 0 -0.51503806187062418 0.51503806187062418 0 0.85716730853699208 1 I I 0 1 1 forward I I I I #
face $-1 $90 $91 $31 $-1 $92 forward single #
loop $-1 $93 $94 $40 #
cone-surface $-1 -61.141764235524896 -15.997925329687909 7.6634690539790684 0.85716730853699208 0 -0.51503806187062418 0.51503806187062418 0 0.85716730853699208 1 I I 0 1 1 forward I I I I #
face $-1 $95 $96 $32 $-1 $97 reversed single #
loop $-1 $-1 $98 $41 #
plane-surface $-1 107.89904656710547 -13.202855491799752 180.33172363024983 0 -1 0 -0.85716730853699208 0 -0.51503806187062418 forward_v I I I I #
face $-1 $99 $100 $33 $-1 $101 forward single #
loop $-1 $102 $103 $42 #
cone-surface $-1 61.141764235524896 -24.383134843352384 7.6634690539790613 -0.85716730853699208 0 -0.51503806187062418 0.51503806187062418 0 -0.85716730853699208 1 I I 0 1 1 forward I I I I #
face $-1 $104 $105 $34 $-1 $106 forward single #
loop $-1 $107 $108 $43 #
cone-surface $-1 61.141764235524896 -20.190530086520148 7.6634690539790613 -0.85716730853699208 0 -0.51503806187062418 0.51503806187062418 0 -0.85716730853699208 1 I I 0 1 1 forward I I I I #
face $-1 $109 $110 $35 $-1 $111 forward single #
loop $-1 $112 $113 $44 #
cone-surface $-1 61.141764235524896 -15.997925329687909 7.6634690539790613 -0.85716730853699208 0 -0.51503806187062418 0.51503806187062418 0 -0.85716730853699208 1 I I 0 1 1 forward I I I I #
face $-1 $114 $115 $27 $-1 $116 reversed single #
loop $-1 $-1 $117 $45 #
plane-surface $-1 0 0 -11.720670527032857 0 0 1 1 0 0 forward_v I I I I #
coedge $-1 $118 $119 $120 $121 forward $46 $-1 #
face $-1 $122 $123 $28 $-1 $124 reversed single #
loop $-1 $-1 $125 $48 #
plane-surface $-1 -64.063234351634236 -20.190530086520148 4.5158951842613959 -0.85716730853699208 0 0.51503806187062418 0.51503806187062418 0 0.85716730853699208 forward_v I I I I #
coedge $-1 $126 $127 $128 $129 reversed $49 $-1 #
face $-1 $-1 $130 $29 $-1 $131 forward single #
loop $-1 $132 $133 $51 #
cone-surface $-1 -59.956243276767978 -24.383134843352384 6.9511362213756929 0.85716730853699208 0 -0.51503806187062418 0.25751903093531209 0 0.42858365426849604 1 I I -0.70710678118654746 0.70710678118654746 0.5 forward I I I I #
loop $-1 $-1 $134 $38 #
coedge $-1 $84 $84 $135 $136 reversed $52 $-1 #
face $-1 $-1 $137 $30 $-1 $138 forward single #
loop $-1 $139 $140 $54 #
cone-surface $-1 -59.956243276767978 -20.190530086520148 6.9511362213756929 0.85716730853699208 0 -0.51503806187062418 0.25751903093531209 0 0.42858365426849604 1 I I -0.70710678118654746 0.70710678118654746 0.5 forward I I I I #
loop $-1 $-1 $141 $39 #
coedge $-1 $89 $89 $142 $143 reversed $55 $-1 #
face $-1 $-1 $144 $31 $-1 $145 forward single #
loop $-1 $146 $147 $57 #
cone-surface $-1 -59.956243276767978 -15.997925329687909 6.9511362213756929 0.85716730853699208 0 -0.51503806187062418 0.25751903093531209 0 0.42858365426849604 1 I I -0.70710678118654746 0.70710678118654746 0.5 forward I I I I #
loop $-1 $-1 $148 $40 #
coedge $-1 $94 $94 $149 $150 reversed $58 $-1 #
face $-1 $151 $152 $32 $-1 $153 reversed single #
loop $-1 $-1 $154 $60 #
plane-surface $-1 -1.926773763624368 -20.190530086520148 114.34171551499122 0.85716730853699208 0 0.51503806187062418 0.51503806187062418 0 -0.85716730853699208 forward_v I I I I #
coedge $-1 $155 $156 $157 $158 reversed $61 $-1 #
face $-1 $-1 $159 $33 $-1 $160 forward single #
loop $-1 $161 $162 $63 #
cone-surface $-1 59.956243276767978 -24.383134843352384 6.9511362213756858 -0.85716730853699208 0 -0.51503806187062418 0.25751903093531209 0 -0.42858365426849604 1 I I -0.70710678118654746 0.70710678118654746 0.5 forward I I I I #
loop $-1 $-1 $163 $42 #
coedge $-1 $103 $103 $164 $165 reversed $64 $-1 #
face $-1 $-1 $166 $34 $-1 $167 forward single #
loop $-1 $168 $169 $66 #
cone-surface $-1 59.956243276767978 -20.190530086520148 6.9511362213756858 -0.85716730853699208 0 -0.51503806187062418 0.25751903093531209 0 -0.42858365426849604 1 I I -0.70710678118654746 0.70710678118654746 0.5 forward I I I I #
loop $-1 $-1 $170 $43 #
coedge $-1 $108 $108 $171 $172 reversed $67 $-1 #
face $-1 $-1 $173 $35 $-1 $174 forward single #
loop $-1 $175 $176 $69 #
cone-surface $-1 59.956243276767978 -15.997925329687909 6.9511362213756858 -0.85716730853699208 0 -0.51503806187062418 0.25751903093531209 0 -0.42858365426849604 1 I I -0.70710678118654746 0.70710678118654746 0.5 forward I I I I #
loop $-1 $-1 $177 $44 #
coedge $-1 $113 $113 $178 $179 reversed $70 $-1 #
face $-1 $180 $181 $27 $-1 $182 reversed single #
loop $-1 $-1 $183 $72 #
plane-surface $-1 0 -30.738113472486305 0 0 1 0 0 0 1 forward_v I I I I #
coedge $-1 $184 $185 $186 $187 forward $73 $-1 #
coedge $-1 $188 $75 $189 $190 forward $46 $-1 #
coedge $-1 $75 $188 $191 $192 forward $46 $-1 #
coedge $-1 $193 $194 $75 $121 reversed $195 $-1 #
edge $-1 $196 -30.738113472486305 $197 30.738113472486305 $120 $198 forward 7 unknown #
face $-1 $199 $200 $28 $-1 $201 reversed single #
loop $-1 $-1 $202 $76 #
plane-surface $-1 -173.88905468236408 -13.202855491799752 70.50590329952 0 -1 0 0.85716730853699208 0 -0.51503806187062418 forward_v I I I I #
coedge $-1 $203 $204 $205 $206 reversed $77 $-1 #
coedge $-1 $127 $79 $207 $208 reversed $49 $-1 #
coedge $-1 $79 $126 $203 $209 reversed $49 $-1 #
coedge $-1 $205 $210 $79 $129 forward $211 $-1 #
edge $-1 $212 22.881292989547774 $213 27.210358612789705 $128 $214 forward 7 unknown #
loop $-1 $-1 $135 $80 #
plane-surface $-1 -64.063234351634236 -20.190530086520148 4.5158951842613959 -0.85716730853699208 0 0.51503806187062418 0.51503806187062418 0 0.85716730853699208 forward_v I I I I #
loop $-1 $-1 $215 $51 #
coedge $-1 $133 $133 $134 $216 reversed $81 $-1 #
coedge $-1 $134 $134 $133 $216 forward $83 $-1 #
coedge $-1 $135 $135 $84 $136 forward $130 $-1 #
edge $-1 $217 0 $217 6.2831853071796004 $135 $218 forward 7 unknown #
loop $-1 $-1 $142 $85 #
plane-surface $-1 -64.063234351634236 -20.190530086520148 4.5158951842613959 -0.85716730853699208 0 0.51503806187062418 0.51503806187062418 0 0.85716730853699208 forward_v I I I I #
loop $-1 $-1 $219 $54 #
coedge $-1 $140 $140 $141 $220 reversed $86 $-1 #
coedge $-1 $141 $141 $140 $220 forward $88 $-1 #
coedge $-1 $142 $142 $89 $143 forward $137 $-1 #
edge $-1 $221 0 $221 6.2831853071796004 $142 $222 forward 7 unknown #
loop $-1 $-1 $149 $90 #
plane-surface $-1 -64.063234351634236 -20.190530086520148 4.5158951842613959 -0.85716730853699208 0 0.51503806187062418 0.51503806187062418 0 0.85716730853699208 forward_v I I I I #
loop $-1 $-1 $223 $57 #
coedge $-1 $147 $147 $148 $224 reversed $91 $-1 #
coedge $-1 $148 $148 $147 $224 forward $93 $-1 #
coedge $-1 $149 $149 $94 $150 forward $144 $-1 #
edge $-1 $225 0 $225 6.2831853071796004 $149 $226 forward 7 unknown #
face $-1 $227 $228 $32 $-1 $229 forward single #
loop $-1 $-1 $230 $95 #
plane-surface $-1 107.89904656710547 -27.178204681240544 180.33172363024983 0 1 0 0.85716730853699208 0 0.51503806187062418 forward_v I I I I #
coedge $-1 $231 $232 $233 $234 reversed $96 $-1 #
coedge $-1 $156 $98 $235 $236 reversed $61 $-1 #
coedge $-1 $98 $155 $231 $237 reversed $61 $-1 #
coedge $-1 $233 $238 $98 $158 forward $228 $-1 #
edge $-1 $239 -10.113711068081528 $240 -5.7846454448396045 $157 $241 forward 7 unknown #
loop $-1 $-1 $164 $99 #
plane-surface $-1 -1.926773763624368 -20.190530086520148 114.34171551499122 0.85716730853699208 0 0.51503806187062418 0.51503806187062418 0 -0.85716730853699208 forward_v I I I I #
loop $-1 $-1 $242 $63 #
coedge $-1 $162 $162 $163 $243 reversed $100 $-1 #
coedge $-1 $163 $163 $162 $243 forward $102 $-1 #
coedge $-1 $164 $164 $103 $165 forward $159 $-1 #
edge $-1 $244 0 $244 6.2831853071796004 $164 $245 forward 7 unknown #
loop $-1 $-1 $171 $104 #
plane-surface $-1 -1.926773763624368 -20.190530086520148 114.34171551499122 0.85716730853699208 0 0.51503806187062418 0.51503806187062418 0 -0.85716730853699208 forward_v I I I I #
loop $-1 $-1 $246 $66 #
coedge $-1 $169 $169 $170 $247 reversed $105 $-1 #
coedge $-1 $170 $170 $169 $247 forward $107 $-1 #
coedge $-1 $171 $171 $108 $172 forward $166 $-1 #
edge $-1 $248 0 $248 6.2831853071796004 $171 $249 forward 7 unknown #
loop $-1 $-1 $178 $109 #
plane-surface $-1 -1.926773763624368 -20.190530086520148 114.34171551499122 0.85716730853699208 0 0.51503806187062418 0.51503806187062418 0 -0.85716730853699208 forward_v I I I I #
loop $-1 $-1 $250 $69 #
coedge $-1 $176 $176 $177 $251 reversed $110 $-1 #
coedge $-1 $177 $177 $176 $251 forward $112 $-1 #
coedge $-1 $178 $178 $113 $179 forward $173 $-1 #
edge $-1 $252 0 $252 6.2831853071796004 $178 $253 forward 7 unknown #
face $-1 $254 $255 $27 $-1 $256 reversed single #
loop $-1 $-1 $257 $114 #
plane-surface $-1 -64.063234351634264 0 0 1 0 0 0 0 -1 forward_v I I I I #
coedge $-1 $258 $191 $259 $260 forward $115 $-1 #
coedge $-1 $261 $117 $258 $262 forward $73 $-1 #
coedge $-1 $117 $261 $263 $264 forward $73 $-1 #
coedge $-1 $194 $193 $117 $187 reversed $195 $-1 #
edge $-1 $265 -30.738113472486305 $266 30.738113472486305 $186 $267 forward 7 unknown #
coedge $-1 $119 $118 $268 $269 forward $46 $-1 #
coedge $-1 $270 $271 $118 $190 reversed $255 $-1 #
edge $-1 $197 -64.063234351634264 $272 64.063234351634264 $189 $273 forward 7 unknown #
coedge $-1 $183 $274 $119 $192 reversed $115 $-1 #
edge $-1 $275 -64.063234351634264 $196 64.063234351634264 $191 $276 forward 7 unknown #
coedge $-1 $186 $120 $274 $277 forward $195 $-1 #
coedge $-1 $120 $186 $270 $278 reversed $195 $-1 #
loop $-1 $-1 $193 $254 #
vertex $-1 $121 $279 #
vertex $-1 $121 $280 #
straight-curve $-1 64.063234351634264 0 11.720670527032857 0 1 0 I I #
face $-1 $-1 $211 $28 $-1 $281 forward single #
loop $-1 $-1 $282 $122 #
plane-surface $-1 -64.063234351634264 0 0 1 0 0 0 0 -1 forward_v I I I I #
coedge $-1 $283 $284 $285 $286 reversed $123 $-1 #
coedge $-1 $287 $125 $127 $209 forward $77 $-1 #
coedge $-1 $125 $287 $283 $288 forward $77 $-1 #
coedge $-1 $285 $128 $125 $206 forward $211 $-1 #
edge $-1 $213 -17.08293963798047 $289 -3.1075904485396784 $205 $290 forward 7 unknown #
coedge $-1 $291 $292 $126 $208 forward $200 $-1 #
edge $-1 $293 -30.73705646549865 $212 -23.532281122727142 $207 $294 forward 7 unknown #
edge $-1 $213 -8.4053314574823563 $293 5.4988089932380084e-014 $127 $295 forward 7 unknown #
coedge $-1 $128 $285 $291 $296 forward $211 $-1 #
loop $-1 $-1 $285 $199 #
vertex $-1 $208 $297 #
vertex $-1 $129 $298 #
straight-curve $-1 -86.944527341182038 -27.178204681240544 11.720670527032858 1 0 0 I I #
coedge $-1 $215 $215 $-1 $299 reversed $132 $-1 #
edge $-1 $300 0 $300 6.2831853071796004 $133 $301 forward 7 unknown #
vertex $-1 $136 $302 #
ellipse-curve $-1 -61.898701540013292 -24.383134843352384 8.1182828556471165 -0.85716730853699208 0 0.51503806187062418 0.51503806187062418 0 0.85716730853699208 1 I I #
coedge $-1 $219 $219 $-1 $303 reversed $139 $-1 #
edge $-1 $304 0 $304 6.2831853071796004 $140 $305 forward 7 unknown #
vertex $-1 $143 $306 #
ellipse-curve $-1 -61.898701540013292 -20.190530086520148 8.1182828556471165 -0.85716730853699208 0 0.51503806187062418 0.51503806187062418 0 0.85716730853699208 1 I I #
coedge $-1 $223 $223 $-1 $307 reversed $146 $-1 #
edge $-1 $308 0 $308 6.2831853071796004 $147 $309 forward 7 unknown #
vertex $-1 $150 $310 #
ellipse-curve $-1 -61.898701540013292 -15.997925329687909 8.1182828556471165 -0.85716730853699208 0 0.51503806187062418 0.51503806187062418 0 0.85716730853699208 1 I I #
face $-1 $-1 $311 $32 $-1 $312 reversed single #
loop $-1 $-1 $157 $151 #
plane-surface $-1 0 0 11.720670527032857 0 0 1 1 0 0 forward_v I I I I #
coedge $-1 $313 $314 $315 $316 reversed $152 $-1 #
coedge $-1 $317 $154 $156 $237 forward $96 $-1 #
coedge $-1 $154 $317 $313 $318 forward $96 $-1 #
coedge $-1 $315 $157 $154 $234 forward $228 $-1 #
edge $-1 $240 3.1075904485396784 $319 17.08293963798047 $233 $320 forward 7 unknown #
coedge $-1 $321 $322 $155 $236 forward $311 $-1 #
edge $-1 $323 -85.64996663086356 $239 -78.445191288092062 $235 $324 forward 7 unknown #
edge $-1 $240 119.72113724578618 $323 128.12646870326859 $156 $325 forward 7 unknown #
coedge $-1 $157 $315 $321 $326 forward $228 $-1 #
vertex $-1 $236 $327 #
vertex $-1 $158 $328 #
straight-curve $-1 53.949523283552736 -13.202855491799752 11.720670527032851 -1 0 0 I I #
coedge $-1 $242 $242 $-1 $329 reversed $161 $-1 #
edge $-1 $330 0 $330 6.2831853071796004 $162 $331 forward 7 unknown #
vertex $-1 $165 $332 #
ellipse-curve $-1 61.898701540013299 -24.383134843352384 8.1182828556471129 0.85716730853699208 0 0.51503806187062418 0.51503806187062418 0 -0.85716730853699208 1 I I #
coedge $-1 $246 $246 $-1 $333 reversed $168 $-1 #
edge $-1 $334 0 $334 6.2831853071796004 $169 $335 forward 7 unknown #
vertex $-1 $172 $336 #
ellipse-curve $-1 61.898701540013299 -20.190530086520148 8.1182828556471129 0.85716730853699208 0 0.51503806187062418 0.51503806187062418 0 -0.85716730853699208 1 I I #
coedge $-1 $250 $250 $-1 $337 reversed $175 $-1 #
edge $-1 $338 0 $338 6.2831853071796004 $176 $339 forward 7 unknown #
vertex $-1 $179 $340 #
ellipse-curve $-1 61.898701540013299 -15.997925329687909 8.1182828556471129 0.85716730853699208 0 0.51503806187062418 0.51503806187062418 0 -0.85716730853699208 1 I I #
face $-1 $-1 $195 $27 $-1 $341 reversed single #
loop $-1 $-1 $270 $180 #
plane-surface $-1 0 30.738113472486305 0 0 -1 0 0 0 -1 forward_v I I I I #
coedge $-1 $342 $268 $271 $343 forward $181 $-1 #
coedge $-1 $274 $183 $184 $262 reversed $115 $-1 #
coedge $-1 $268 $342 $183 $260 reversed $181 $-1 #
edge $-1 $275 -11.720670527032857 $344 11.720670527032857 $259 $345 forward 7 unknown #
coedge $-1 $185 $184 $342 $346 forward $73 $-1 #
edge $-1 $266 -64.063234351634264 $344 64.063234351634264 $258 $347 forward 7 unknown #
coedge $-1 $271 $270 $185 $264 reversed $255 $-1 #
edge $-1 $348 -64.063234351634264 $265 64.063234351634264 $263 $349 forward 7 unknown #
vertex $-1 $187 $350 #
vertex $-1 $277 $351 #
straight-curve $-1 64.063234351634264 0 -11.720670527032857 0 -1 0 I I #
coedge $-1 $257 $259 $188 $269 reversed $181 $-1 #
edge $-1 $272 -30.738113472486305 $275 30.738113472486305 $268 $352 forward 7 unknown #
coedge $-1 $263 $189 $194 $278 forward $255 $-1 #
coedge $-1 $189 $263 $257 $343 reversed $255 $-1 #
vertex $-1 $190 $353 #
straight-curve $-1 0 30.738113472486305 11.720670527032857 -1 0 0 I I #
coedge $-1 $191 $258 $193 $277 reversed $115 $-1 #
vertex $-1 $269 $354 #
straight-curve $-1 0 -30.738113472486305 11.720670527032857 1 0 0 I I #
edge $-1 $196 -11.720670527032857 $266 11.720670527032857 $193 $355 forward 7 unknown #
edge $-1 $197 -11.720670527032857 $265 11.720670527032857 $194 $356 forward 7 unknown #
point $-1 64.063234351634264 -30.738113472486305 11.720670527032857 #
point $-1 64.063234351634264 30.738113472486305 11.720670527032857 #
plane-surface $-1 0 0 11.720670527032857 0 0 1 1 0 0 forward_v I I I I #
coedge $-1 $292 $291 $284 $357 forward $200 $-1 #
coedge $-1 $284 $202 $204 $288 reversed $123 $-1 #
coedge $-1 $202 $283 $282 $357 reversed $123 $-1 #
coedge $-1 $210 $205 $202 $286 forward $211 $-1 #
edge $-1 $289 -27.210358612789705 $358 -22.881292989547774 $285 $359 forward 7 unknown #
coedge $-1 $204 $203 $292 $360 reversed $77 $-1 #
edge $-1 $361 -5.4988089932380084e-014 $289 8.4053314574823563 $283 $362 forward 7 unknown #
vertex $-1 $206 $363 #
straight-curve $-1 -59.734168728392333 -10.095265043260074 11.720670527032857 0 1 0 I I #
coedge $-1 $282 $207 $210 $296 reversed $200 $-1 #
coedge $-1 $207 $282 $287 $360 forward $200 $-1 #
vertex $-1 $208 $364 #
straight-curve $-1 -64.063234351634264 -27.178204681240544 35.25295164976 0 0 1 I I #
straight-curve $-1 -64.063234351634236 -27.178204681240544 4.5158951842613959 -0.51503806187062418 0 -0.85716730853699208 I I #
edge $-1 $358 13.202855491799752 $212 27.178204681240544 $291 $365 forward 7 unknown #
point $-1 -64.063234351634264 -27.178204681240544 11.720670527032857 #
point $-1 -59.734168728392333 -27.178204681240544 11.720670527032857 #
edge $-1 $366 1 $366 0 $215 $-1 forward 7 unknown #
vertex $-1 $216 $367 #
ellipse-curve $-1 -60.384826931036471 -24.383134843352384 7.2086552523110052 -0.85716730853699208 0 0.51503806187062418 0.51503806187062418 0 0.85716730853699208 1 I I #
point $-1 -61.383663478142694 -24.383134843352384 8.9754501641841244 #
edge $-1 $368 1 $368 0 $219 $-1 forward 7 unknown #
vertex $-1 $220 $369 #
ellipse-curve $-1 -60.384826931036471 -20.190530086520148 7.2086552523110052 -0.85716730853699208 0 0.51503806187062418 0.51503806187062418 0 0.85716730853699208 1 I I #
point $-1 -61.383663478142694 -20.190530086520148 8.9754501641841244 #
edge $-1 $370 1 $370 0 $223 $-1 forward 7 unknown #
vertex $-1 $224 $371 #
ellipse-curve $-1 -60.384826931036471 -15.997925329687909 7.2086552523110052 -0.85716730853699208 0 0.51503806187062418 0.51503806187062418 0 0.85716730853699208 1 I I #
point $-1 -61.383663478142694 -15.997925329687909 8.9754501641841244 #
loop $-1 $-1 $235 $227 #
plane-surface $-1 64.063234351634264 0 0 -1 0 0 0 0 1 forward_v I I I I #
coedge $-1 $314 $230 $232 $318 reversed $152 $-1 #
coedge $-1 $230 $313 $372 $373 reversed $152 $-1 #
coedge $-1 $238 $233 $230 $316 forward $228 $-1 #
edge $-1 $319 5.7846454448396045 $374 10.113711068081528 $315 $375 forward 7 unknown #
coedge $-1 $232 $231 $322 $376 reversed $96 $-1 #
edge $-1 $377 -128.12646870326859 $319 -119.72113724578618 $313 $378 forward 7 unknown #
vertex $-1 $234 $379 #
straight-curve $-1 59.734168728392333 -10.095265043260074 11.720670527032851 0 -1 0 I I #
coedge $-1 $372 $235 $238 $326 reversed $311 $-1 #
coedge $-1 $235 $372 $317 $376 forward $311 $-1 #
vertex $-1 $236 $380 #
straight-curve $-1 64.063234351634264 -13.202855491799752 90.165861815124913 0 0 1 I I #
straight-curve $-1 -1.926773763624368 -13.202855491799752 114.34171551499122 0.51503806187062418 0 -0.85716730853699208 I I #
edge $-1 $374 -27.178204681240544 $239 -13.202855491799752 $321 $381 forward 7 unknown #
point $-1 64.063234351634264 -13.202855491799752 11.720670527032857 #
point $-1 59.734168728392341 -13.202855491799752 11.720670527032851 #
edge $-1 $382 1 $382 0 $242 $-1 forward 7 unknown #
vertex $-1 $243 $383 #
ellipse-curve $-1 60.384826931036471 -24.383134843352384 7.2086552523109981 0.85716730853699208 0 0.51503806187062418 0.51503806187062418 0 -0.85716730853699208 1 I I #
point $-1 62.41373960188394 -24.383134843352384 7.2611155471101334 #
edge $-1 $384 1 $384 0 $246 $-1 forward 7 unknown #
vertex $-1 $247 $385 #
ellipse-curve $-1 60.384826931036471 -20.190530086520148 7.2086552523109981 0.85716730853699208 0 0.51503806187062418 0.51503806187062418 0 -0.85716730853699208 1 I I #
point $-1 62.41373960188394 -20.190530086520148 7.2611155471101334 #
edge $-1 $386 1 $386 0 $250 $-1 forward 7 unknown #
vertex $-1 $251 $387 #
ellipse-curve $-1 60.384826931036471 -15.997925329687909 7.2086552523109981 0.85716730853699208 0 0.51503806187062418 0.51503806187062418 0 -0.85716730853699208 1 I I #
point $-1 62.41373960188394 -15.997925329687909 7.2611155471101334 #
plane-surface $-1 64.063234351634264 0 0 -1 0 0 0 0 1 forward_v I I I I #
coedge $-1 $259 $257 $261 $346 reversed $181 $-1 #
edge $-1 $272 -11.720670527032857 $348 11.720670527032857 $271 $388 forward 7 unknown #
vertex $-1 $346 $389 #
straight-curve $-1 -64.063234351634264 -30.738113472486305 0 0 0 -1 I I #
edge $-1 $344 -30.738113472486305 $348 30.738113472486305 $342 $390 forward 7 unknown #
straight-curve $-1 0 -30.738113472486305 -11.720670527032857 -1 0 0 I I #
vertex $-1 $264 $391 #
straight-curve $-1 0 30.738113472486305 -11.720670527032857 1 0 0 I I #
point $-1 64.063234351634264 30.738113472486305 -11.720670527032857 #
point $-1 64.063234351634264 -30.738113472486305 -11.720670527032857 #
straight-curve $-1 -64.063234351634264 0 11.720670527032857 0 -1 0 I I #
point $-1 -64.063234351634264 30.738113472486305 11.720670527032857 #
point $-1 -64.063234351634264 -30.738113472486305 11.720670527032857 #
straight-curve $-1 64.063234351634264 -30.738113472486305 0 0 0 -1 I I #
straight-curve $-1 64.063234351634264 30.738113472486305 0 0 0 -1 I I #
edge $-1 $358 23.532281122727142 $361 30.73705646549865 $282 $392 forward 7 unknown #
vertex $-1 $296 $393 #
straight-curve $-1 -86.944527341182038 -13.202855491799752 11.720670527032858 -1 0 0 I I #
edge $-1 $361 3.1075904485396784 $293 17.08293963798047 $292 $394 forward 7 unknown #
vertex $-1 $360 $395 #
straight-curve $-1 -64.063234351634236 -13.202855491799752 4.5158951842613959 0.51503806187062418 0 0.85716730853699208 I I #
point $-1 -59.734168728392333 -13.202855491799752 11.720670527032857 #
point $-1 -64.063234351634264 -27.178204681240544 4.5158951842613488 #
straight-curve $-1 -64.063234351634264 0 11.720670527032857 0 -1 0 I I #
vertex $-1 $299 $396 #
point $-1 -59.869788869165852 -24.383134843352384 8.0658225608479963 #
vertex $-1 $303 $397 #
point $-1 -59.869788869165852 -20.190530086520148 8.0658225608479963 #
vertex $-1 $307 $398 #
point $-1 -59.869788869165852 -15.997925329687909 8.0658225608479963 #
coedge $-1 $322 $321 $314 $373 forward $311 $-1 #
edge $-1 $374 78.445191288092062 $377 85.64996663086356 $372 $399 forward 7 unknown #
vertex $-1 $326 $400 #
straight-curve $-1 53.949523283552736 -27.178204681240544 11.720670527032851 1 0 0 I I #
edge $-1 $377 -17.08293963798047 $323 -3.1075904485396784 $322 $401 forward 7 unknown #
vertex $-1 $376 $402 #
straight-curve $-1 -1.926773763624368 -27.178204681240544 114.34171551499122 -0.51503806187062418 0 0.85716730853699208 I I #
point $-1 59.734168728392341 -27.178204681240544 11.720670527032851 #
point $-1 64.063234351634264 -13.202855491799752 4.5158951842613533 #
straight-curve $-1 64.063234351634264 0 11.720670527032857 0 1 0 I I #
vertex $-1 $329 $403 #
point $-1 60.899864992907098 -24.383134843352384 6.3514879437740053 #
vertex $-1 $333 $404 #
point $-1 60.899864992907098 -20.190530086520148 6.3514879437740053 #
vertex $-1 $337 $405 #
point $-1 60.899864992907098 -15.997925329687909 6.3514879437740053 #
straight-curve $-1 -64.063234351634264 30.738113472486305 0 0 0 -1 I I #
point $-1 -64.063234351634264 -30.738113472486305 -11.720670527032857 #
straight-curve $-1 -64.063234351634264 0 -11.720670527032857 0 1 0 I I #
point $-1 -64.063234351634264 30.738113472486305 -11.720670527032857 #
straight-curve $-1 -64.063234351634264 -13.202855491799752 35.25295164976 0 0 -1 I I #
point $-1 -64.063234351634264 -13.202855491799752 11.720670527032857 #
straight-curve $-1 -64.063234351634264 -10.095265043260074 4.5158951842613408 0 -1 0 I I #
point $-1 -64.063234351634264 -13.202855491799752 4.5158951842613488 #
point $-1 -59.527659622499485 -24.383134843352384 6.6936171904403805 #
point $-1 -59.527659622499485 -20.190530086520148 6.6936171904403805 #
point $-1 -59.527659622499485 -15.997925329687909 6.6936171904403805 #
straight-curve $-1 64.063234351634264 -27.178204681240544 90.165861815124913 0 0 -1 I I #
point $-1 64.063234351634264 -27.178204681240544 11.720670527032857 #
straight-curve $-1 64.063234351634264 -10.095265043260074 4.5158951842613533 0 1 0 I I #
point $-1 64.063234351634264 -27.178204681240544 4.5158951842613533 #
point $-1 59.527659622499485 -24.383134843352384 6.6936171904403734 #
point $-1 59.527659622499485 -20.190530086520148 6.6936171904403734 #
point $-1 59.527659622499485 -15.997925329687909 6.6936171904403734 #
End-of-ACIS-data 