500 0 6 0           
7 Unknown 11 ACIS 5.0 NT 24 Fri Mar 26 16:50:52 1999 
-1 9.9999999999999995e-007 1e-010 
body $-1 $6 $-1 $7 #
body $-1 $8 $-1 $9 #
body $-1 $10 $-1 $11 #
body $-1 $12 $-1 $13 #
body $-1 $14 $-1 $15 #
body $-1 $16 $-1 $17 #
lump $-1 $-1 $18 $0 #
transform $-1 1 0 0 0 1 0 0 0 1 65.889461958677941 27.544799305892099 9.7984232669884008 1 rotate no_reflect no_shear #
lump $-1 $-1 $19 $1 #
transform $-1 1 0 0 0 1 0 0 0 1 65.889461958677941 27.544799305892099 9.7984232669884008 1 rotate no_reflect no_shear #
lump $-1 $-1 $20 $2 #
transform $-1 1 0 0 0 1 0 0 0 1 65.889461958677941 27.544799305892099 9.7984232669884008 1 rotate no_reflect no_shear #
lump $-1 $-1 $21 $3 #
transform $-1 1 0 0 0 1 0 0 0 1 65.889461958677941 27.544799305892099 9.7984232669884008 1 rotate no_reflect no_shear #
lump $-1 $-1 $22 $4 #
transform $-1 1 0 0 0 1 0 0 0 1 65.889461958677941 27.544799305892099 9.7984232669884008 1 rotate no_reflect no_shear #
lump $-1 $-1 $23 $5 #
transform $-1 1 0 0 0 1 0 0 0 1 65.889461958677941 27.544799305892099 9.7984232669884008 1 rotate no_reflect no_shear #
shell $-1 $-1 $-1 $24 $-1 $6 #
shell $-1 $-1 $-1 $25 $-1 $8 #
shell $-1 $-1 $-1 $26 $-1 $10 #
shell $-1 $-1 $-1 $27 $-1 $12 #
shell $-1 $-1 $-1 $28 $-1 $14 #
shell $-1 $-1 $-1 $29 $-1 $16 #
face $-1 $30 $31 $18 $-1 $32 forward single #
face $-1 $33 $34 $19 $-1 $35 forward single #
face $-1 $36 $37 $20 $-1 $38 forward single #
face $-1 $39 $40 $21 $-1 $41 reversed single #
face $-1 $42 $43 $22 $-1 $44 forward single #
face $-1 $45 $46 $23 $-1 $47 forward single #
face $-1 $48 $49 $18 $-1 $50 reversed single #
loop $-1 $-1 $51 $24 #
plane-surface $-1 0 0 9.7984232669884008 0 0 1 1 0 0 forward_v I I I I #
face $-1 $52 $53 $19 $-1 $54 reversed single #
loop $-1 $-1 $55 $25 #
plane-surface $-1 0 -21.310332339023244 -5.0899051518925429 0 0 1 1 0 0 forward_v I I I I #
face $-1 $56 $57 $20 $-1 $58 reversed single #
loop $-1 $-1 $59 $26 #
plane-surface $-1 0 21.310332339023248 -5.0899051518925429 0 0 1 1 0 0 forward_v I I I I #
face $-1 $60 $61 $21 $-1 $62 reversed single #
loop $-1 $-1 $63 $27 #
plane-surface $-1 52.889400438725914 15.075865372154393 189.06426846707208 0 -1 0 -0.6560590369687036 0 -0.75470957328743171 forward_v I I I I #
face $-1 $64 $65 $22 $-1 $66 forward single #
loop $-1 $67 $68 $28 #
cone-surface $-1 61.740067334188076 9.2564970273195755 6.0992064024179378 -0.6560590369687036 0 -0.75470957328743171 0.18867739332185793 0 -0.1640147592421759 1 I I 0 1 0.25 forward I I I I #
face $-1 $69 $70 $23 $-1 $71 forward single #
loop $-1 $72 $73 $29 #
cone-surface $-1 61.740067334188076 12.748118034220461 6.0992064024179378 -0.6560590369687036 0 -0.75470957328743171 0.18867739332185793 0 -0.1640147592421759 1 I I 0 1 0.25 forward I I I I #
face $-1 $74 $75 $18 $-1 $76 reversed single #
loop $-1 $-1 $77 $30 #
plane-surface $-1 0 0 -9.7984232669884008 0 0 1 1 0 0 forward_v I I I I #
coedge $-1 $78 $79 $80 $81 forward $31 $-1 #
face $-1 $82 $83 $19 $-1 $84 reversed single #
loop $-1 $-1 $85 $33 #
plane-surface $-1 0 -15.075865372154389 -7.4441642094404719 0 -1 0 0 0 -1 forward_v I I I I #
coedge $-1 $86 $87 $88 $89 reversed $34 $-1 #
face $-1 $90 $91 $20 $-1 $92 reversed single #
loop $-1 $-1 $93 $36 #
plane-surface $-1 0 15.075865372154393 -7.4441642094404719 0 1 0 0 0 1 forward_v I I I I #
coedge $-1 $94 $95 $96 $97 reversed $37 $-1 #
face $-1 $98 $99 $21 $-1 $100 reversed single #
loop $-1 $-1 $101 $39 #
plane-surface $-1 -33.565353479266648 11.002307530770025 89.609453029127494 0.6560590369687036 0 0.75470957328743171 0.75470957328743171 0 -0.6560590369687036 forward_v I I I I #
coedge $-1 $102 $103 $104 $105 reversed $40 $-1 #
face $-1 $-1 $106 $22 $-1 $107 forward single #
loop $-1 $108 $109 $42 #
cone-surface $-1 61.330030436082637 9.2564970273195755 5.6275129191132933 -0.6560590369687036 0 -0.75470957328743171 0.094338696660928964 0 -0.08200737962108795 1 I I -0.70710678118654746 0.70710678118654746 0.125 forward I I I I #
loop $-1 $-1 $110 $28 #
coedge $-1 $68 $68 $111 $112 reversed $43 $-1 #
face $-1 $-1 $113 $23 $-1 $114 forward single #
loop $-1 $115 $116 $45 #
cone-surface $-1 61.330030436082637 12.748118034220461 5.6275129191132933 -0.6560590369687036 0 -0.75470957328743171 0.094338696660928964 0 -0.08200737962108795 1 I I -0.70710678118654746 0.70710678118654746 0.125 forward I I I I #
loop $-1 $-1 $117 $29 #
coedge $-1 $73 $73 $118 $119 reversed $46 $-1 #
face $-1 $120 $121 $18 $-1 $122 reversed single #
loop $-1 $-1 $123 $48 #
plane-surface $-1 0 -27.544799305892099 0 0 1 0 0 0 1 forward_v I I I I #
coedge $-1 $124 $125 $126 $127 forward $49 $-1 #
coedge $-1 $128 $51 $129 $130 forward $31 $-1 #
coedge $-1 $51 $128 $131 $132 forward $31 $-1 #
coedge $-1 $133 $134 $51 $81 reversed $135 $-1 #
edge $-1 $136 -27.544799305892099 $137 27.544799305892099 $80 $138 forward 7 unknown #
face $-1 $139 $140 $19 $-1 $141 reversed single #
loop $-1 $-1 $142 $52 #
plane-surface $-1 0 0 -9.7984232669884008 0 0 1 1 0 0 forward_v I I I I #
coedge $-1 $143 $144 $145 $146 reversed $53 $-1 #
coedge $-1 $147 $55 $144 $148 forward $34 $-1 #
coedge $-1 $55 $147 $149 $150 reversed $34 $-1 #
coedge $-1 $151 $145 $55 $89 forward $140 $-1 #
edge $-1 $152 4.4206992026427674 $153 16.889633136380475 $88 $154 forward 7 unknown #
face $-1 $155 $156 $20 $-1 $157 reversed single #
loop $-1 $-1 $96 $56 #
plane-surface $-1 65.889461958677941 0 0 -1 0 0 0 0 1 forward_v I I I I #
coedge $-1 $158 $159 $160 $161 reversed $57 $-1 #
coedge $-1 $162 $59 $163 $164 reversed $37 $-1 #
coedge $-1 $59 $162 $159 $165 forward $37 $-1 #
coedge $-1 $166 $167 $59 $97 forward $91 $-1 #
edge $-1 $168 -16.889633136380478 $169 -4.4206992026427692 $96 $170 forward 7 unknown #
face $-1 $171 $172 $21 $-1 $173 forward single #
loop $-1 $-1 $174 $60 #
plane-surface $-1 52.889400438725914 6.9287496893856577 189.06426846707208 0 1 0 0.6560590369687036 0 0.75470957328743171 forward_v I I I I #
coedge $-1 $175 $176 $177 $178 reversed $61 $-1 #
coedge $-1 $103 $63 $179 $180 reversed $40 $-1 #
coedge $-1 $63 $102 $175 $181 reversed $40 $-1 #
coedge $-1 $177 $182 $63 $105 forward $172 $-1 #
edge $-1 $183 -39.444761739314984 $184 -31.802031527303967 $104 $185 forward 7 unknown #
loop $-1 $-1 $111 $64 #
plane-surface $-1 -33.565353479266648 11.002307530770025 89.609453029127494 0.6560590369687036 0 0.75470957328743171 0.75470957328743171 0 -0.6560590369687036 forward_v I I I I #
loop $-1 $-1 $186 $42 #
coedge $-1 $109 $109 $110 $187 reversed $65 $-1 #
coedge $-1 $110 $110 $109 $187 forward $67 $-1 #
coedge $-1 $111 $111 $68 $112 forward $106 $-1 #
edge $-1 $188 0 $188 6.2831853071796004 $111 $189 forward 7 unknown #
loop $-1 $-1 $118 $69 #
plane-surface $-1 -33.565353479266648 11.002307530770025 89.609453029127494 0.6560590369687036 0 0.75470957328743171 0.75470957328743171 0 -0.6560590369687036 forward_v I I I I #
loop $-1 $-1 $190 $45 #
coedge $-1 $116 $116 $117 $191 reversed $70 $-1 #
coedge $-1 $117 $117 $116 $191 forward $72 $-1 #
coedge $-1 $118 $118 $73 $119 forward $113 $-1 #
edge $-1 $192 0 $192 6.2831853071796004 $118 $193 forward 7 unknown #
face $-1 $194 $195 $18 $-1 $196 reversed single #
loop $-1 $-1 $197 $74 #
plane-surface $-1 -65.889461958677941 0 0 1 0 0 0 0 -1 forward_v I I I I #
coedge $-1 $198 $131 $199 $200 forward $75 $-1 #
coedge $-1 $201 $77 $198 $202 forward $49 $-1 #
coedge $-1 $77 $201 $203 $204 forward $49 $-1 #
coedge $-1 $134 $133 $77 $127 reversed $135 $-1 #
edge $-1 $205 -27.544799305892099 $206 27.544799305892099 $126 $207 forward 7 unknown #
coedge $-1 $79 $78 $208 $209 forward $31 $-1 #
coedge $-1 $210 $211 $78 $130 reversed $195 $-1 #
edge $-1 $137 -65.889461958677941 $212 65.889461958677941 $129 $213 forward 7 unknown #
coedge $-1 $123 $214 $79 $132 reversed $75 $-1 #
edge $-1 $215 -65.889461958677941 $136 65.889461958677941 $131 $216 forward 7 unknown #
coedge $-1 $126 $80 $214 $217 forward $135 $-1 #
coedge $-1 $80 $126 $210 $218 reversed $135 $-1 #
loop $-1 $-1 $133 $194 #
vertex $-1 $81 $219 #
vertex $-1 $81 $220 #
straight-curve $-1 65.889461958677941 0 9.7984232669884008 0 1 0 I I #
face $-1 $221 $222 $19 $-1 $223 reversed single #
loop $-1 $-1 $145 $82 #
plane-surface $-1 65.889461958677941 0 0 -1 0 0 0 0 1 forward_v I I I I #
coedge $-1 $224 $225 $143 $226 forward $83 $-1 #
coedge $-1 $227 $85 $142 $226 reversed $53 $-1 #
coedge $-1 $85 $227 $86 $148 reversed $53 $-1 #
coedge $-1 $88 $228 $85 $146 forward $140 $-1 #
edge $-1 $229 -6.0763411622681645 $152 -1.367823047172307 $145 $230 forward 7 unknown #
coedge $-1 $87 $86 $231 $232 reversed $34 $-1 #
edge $-1 $152 -65.889461958677941 $233 65.889461958677941 $144 $234 forward 7 unknown #
coedge $-1 $235 $236 $87 $150 forward $222 $-1 #
edge $-1 $153 -65.889461958677941 $237 65.889461958677941 $149 $238 forward 7 unknown #
coedge $-1 $228 $88 $236 $239 forward $140 $-1 #
vertex $-1 $89 $240 #
vertex $-1 $239 $241 #
straight-curve $-1 65.889461958677941 -10.655166169511622 -5.0899051518925429 0 -1 0 I I #
face $-1 $242 $243 $20 $-1 $244 reversed single #
loop $-1 $-1 $245 $90 #
plane-surface $-1 0 0 -9.7984232669884008 0 0 1 1 0 0 forward_v I I I I #
coedge $-1 $246 $93 $245 $247 reversed $57 $-1 #
coedge $-1 $93 $246 $95 $165 reversed $57 $-1 #
coedge $-1 $248 $249 $93 $161 forward $243 $-1 #
edge $-1 $250 -6.0763411622681645 $251 -1.367823047172307 $160 $252 forward 7 unknown #
coedge $-1 $95 $94 $248 $253 reversed $37 $-1 #
coedge $-1 $254 $255 $94 $164 forward $256 $-1 #
edge $-1 $257 -65.889461958677941 $168 65.889461958677941 $163 $258 forward 7 unknown #
edge $-1 $251 -65.889461958677941 $169 65.889461958677941 $159 $259 forward 7 unknown #
coedge $-1 $260 $96 $246 $261 forward $91 $-1 #
coedge $-1 $96 $260 $254 $262 reversed $91 $-1 #
vertex $-1 $262 $263 #
vertex $-1 $97 $264 #
straight-curve $-1 65.889461958677941 10.655166169511624 -5.0899051518925429 0 -1 0 I I #
face $-1 $-1 $265 $21 $-1 $266 reversed single #
loop $-1 $-1 $104 $98 #
plane-surface $-1 0 0 9.7984232669884008 0 0 1 1 0 0 forward_v I I I I #
coedge $-1 $267 $268 $269 $270 reversed $99 $-1 #
coedge $-1 $271 $101 $103 $181 forward $61 $-1 #
coedge $-1 $101 $271 $267 $272 forward $61 $-1 #
coedge $-1 $269 $104 $101 $178 forward $172 $-1 #
edge $-1 $184 -9.5747116067693803 $273 -1.4275959240006451 $177 $274 forward 7 unknown #
coedge $-1 $275 $276 $102 $180 forward $265 $-1 #
edge $-1 $277 -91.37743512240111 $183 -84.733710966547648 $179 $278 forward 7 unknown #
edge $-1 $184 121.65220698872315 $277 131.77892391735588 $103 $279 forward 7 unknown #
coedge $-1 $104 $269 $275 $280 forward $172 $-1 #
vertex $-1 $180 $281 #
vertex $-1 $105 $282 #
straight-curve $-1 26.444700219362957 15.075865372154393 9.7984232669884079 -1 0 0 I I #
coedge $-1 $186 $186 $-1 $283 reversed $108 $-1 #
edge $-1 $284 0 $284 6.2831853071796004 $109 $285 forward 7 unknown #
vertex $-1 $112 $286 #
ellipse-curve $-1 62.068096852672426 9.2564970273195755 6.4765611890616537 0.6560590369687036 0 0.75470957328743171 0.18867739332185793 0 -0.1640147592421759 1 I I #
coedge $-1 $190 $190 $-1 $287 reversed $115 $-1 #
edge $-1 $288 0 $288 6.2831853071796004 $116 $289 forward 7 unknown #
vertex $-1 $119 $290 #
ellipse-curve $-1 62.068096852672426 12.748118034220461 6.4765611890616537 0.6560590369687036 0 0.75470957328743171 0.18867739332185793 0 -0.1640147592421759 1 I I #
face $-1 $-1 $135 $18 $-1 $291 reversed single #
loop $-1 $-1 $210 $120 #
plane-surface $-1 0 27.544799305892099 0 0 -1 0 0 0 -1 forward_v I I I I #
coedge $-1 $292 $208 $211 $293 forward $121 $-1 #
coedge $-1 $214 $123 $124 $202 reversed $75 $-1 #
coedge $-1 $208 $292 $123 $200 reversed $121 $-1 #
edge $-1 $215 -9.7984232669884008 $294 9.7984232669884008 $199 $295 forward 7 unknown #
coedge $-1 $125 $124 $292 $296 forward $49 $-1 #
edge $-1 $206 -65.889461958677941 $294 65.889461958677941 $198 $297 forward 7 unknown #
coedge $-1 $211 $210 $125 $204 reversed $195 $-1 #
edge $-1 $298 -65.889461958677941 $205 65.889461958677941 $203 $299 forward 7 unknown #
vertex $-1 $127 $300 #
vertex $-1 $217 $301 #
straight-curve $-1 65.889461958677941 0 -9.7984232669884008 0 -1 0 I I #
coedge $-1 $197 $199 $128 $209 reversed $121 $-1 #
edge $-1 $212 -27.544799305892099 $215 27.544799305892099 $208 $302 forward 7 unknown #
coedge $-1 $203 $129 $134 $218 forward $195 $-1 #
coedge $-1 $129 $203 $197 $293 reversed $195 $-1 #
vertex $-1 $130 $303 #
straight-curve $-1 0 27.544799305892099 9.7984232669884008 -1 0 0 I I #
coedge $-1 $131 $198 $133 $217 reversed $75 $-1 #
vertex $-1 $209 $304 #
straight-curve $-1 0 -27.544799305892099 9.7984232669884008 1 0 0 I I #
edge $-1 $136 -9.7984232669884008 $206 9.7984232669884008 $133 $305 forward 7 unknown #
edge $-1 $137 -9.7984232669884008 $205 9.7984232669884008 $134 $306 forward 7 unknown #
point $-1 65.889461958677941 -27.544799305892099 9.7984232669884008 #
point $-1 65.889461958677941 27.544799305892099 9.7984232669884008 #
face $-1 $-1 $307 $19 $-1 $308 reversed single #
loop $-1 $-1 $149 $139 #
plane-surface $-1 0 -27.544799305892099 0 0 1 0 0 0 1 forward_v I I I I #
coedge $-1 $309 $142 $228 $310 forward $83 $-1 #
coedge $-1 $142 $309 $311 $312 forward $83 $-1 #
edge $-1 $313 -65.889461958677941 $229 65.889461958677941 $142 $314 forward 7 unknown #
coedge $-1 $144 $143 $315 $316 reversed $53 $-1 #
coedge $-1 $145 $151 $224 $310 reversed $140 $-1 #
vertex $-1 $310 $317 #
straight-curve $-1 65.889461958677941 -15.075865372154389 -3.7220821047202359 0 0 1 I I #
coedge $-1 $315 $318 $147 $232 forward $307 $-1 #
edge $-1 $237 -16.889633136380475 $233 -4.4206992026427674 $231 $319 forward 7 unknown #
vertex $-1 $232 $320 #
straight-curve $-1 0 -15.075865372154389 -5.0899051518925429 -1 0 0 I I #
coedge $-1 $321 $149 $318 $322 forward $222 $-1 #
coedge $-1 $149 $321 $151 $239 reversed $222 $-1 #
vertex $-1 $322 $323 #
straight-curve $-1 0 -27.544799305892099 -5.0899051518925429 -1 0 0 I I #
edge $-1 $153 5.0899051518925429 $324 9.7984232669884008 $151 $325 forward 7 unknown #
point $-1 65.889461958677941 -15.075865372154389 -5.0899051518925429 #
point $-1 65.889461958677941 -27.544799305892099 -5.0899051518925429 #
face $-1 $-1 $256 $20 $-1 $326 reversed single #
loop $-1 $-1 $248 $155 #
plane-surface $-1 -65.889461958677941 0 0 1 0 0 0 0 -1 forward_v I I I I #
coedge $-1 $327 $328 $158 $247 forward $156 $-1 #
coedge $-1 $159 $158 $166 $261 reversed $57 $-1 #
edge $-1 $329 -65.889461958677941 $250 65.889461958677941 $245 $330 forward 7 unknown #
coedge $-1 $331 $160 $162 $253 forward $243 $-1 #
coedge $-1 $160 $331 $327 $332 reversed $243 $-1 #
vertex $-1 $332 $333 #
vertex $-1 $253 $334 #
straight-curve $-1 -65.889461958677941 15.075865372154393 -3.7220821047202359 0 0 1 I I #
edge $-1 $251 4.4206992026427692 $257 16.889633136380478 $248 $335 forward 7 unknown #
coedge $-1 $336 $163 $167 $262 forward $256 $-1 #
coedge $-1 $163 $336 $331 $337 reversed $256 $-1 #
loop $-1 $-1 $163 $242 #
vertex $-1 $337 $338 #
straight-curve $-1 0 27.544799305892099 -5.0899051518925429 1 0 0 I I #
straight-curve $-1 0 15.075865372154393 -5.0899051518925429 1 0 0 I I #
coedge $-1 $167 $166 $328 $339 reversed $91 $-1 #
edge $-1 $169 1.367823047172307 $329 6.0763411622681645 $166 $340 forward 7 unknown #
edge $-1 $168 5.0899051518925429 $341 9.7984232669884008 $167 $342 forward 7 unknown #
point $-1 65.889461958677941 27.544799305892102 -5.0899051518925429 #
point $-1 65.889461958677941 15.075865372154393 -5.0899051518925429 #
loop $-1 $-1 $179 $171 #
plane-surface $-1 65.889461958677941 0 0 -1 0 0 0 0 1 forward_v I I I I #
coedge $-1 $268 $174 $176 $272 reversed $99 $-1 #
coedge $-1 $174 $267 $343 $344 reversed $99 $-1 #
coedge $-1 $182 $177 $174 $270 forward $172 $-1 #
edge $-1 $273 31.802031527303967 $345 39.444761739314984 $269 $346 forward 7 unknown #
coedge $-1 $176 $175 $276 $347 reversed $61 $-1 #
edge $-1 $348 -131.77892391735588 $273 -121.65220698872315 $267 $349 forward 7 unknown #
vertex $-1 $178 $350 #
straight-curve $-1 58.246731746666896 5.5011537653850127 9.7984232669884079 0 -1 0 I I #
coedge $-1 $343 $179 $182 $280 reversed $265 $-1 #
coedge $-1 $179 $343 $271 $347 forward $265 $-1 #
vertex $-1 $180 $351 #
straight-curve $-1 65.889461958677941 15.075865372154393 94.532134233536041 0 0 1 I I #
straight-curve $-1 -33.565353479266648 15.075865372154393 89.609453029127494 0.75470957328743171 0 -0.6560590369687036 I I #
edge $-1 $345 6.9287496893856577 $183 15.075865372154393 $275 $352 forward 7 unknown #
point $-1 65.889461958677941 15.075865372154393 9.7984232669884008 #
point $-1 58.246731746666924 15.075865372154393 9.7984232669883937 #
edge $-1 $353 1 $353 0 $186 $-1 forward 7 unknown #
vertex $-1 $187 $354 #
ellipse-curve $-1 61.412037815703727 9.2564970273195755 5.7218516157742219 0.6560590369687036 0 0.75470957328743171 0.18867739332185793 0 -0.1640147592421759 1 I I #
point $-1 62.256774245994286 9.2564970273195755 6.312546429819478 #
edge $-1 $355 1 $355 0 $190 $-1 forward 7 unknown #
vertex $-1 $191 $356 #
ellipse-curve $-1 61.412037815703727 12.748118034220461 5.7218516157742219 0.6560590369687036 0 0.75470957328743171 0.18867739332185793 0 -0.1640147592421759 1 I I #
point $-1 62.256774245994286 12.748118034220461 6.312546429819478 #
plane-surface $-1 65.889461958677941 0 0 -1 0 0 0 0 1 forward_v I I I I #
coedge $-1 $199 $197 $201 $296 reversed $121 $-1 #
edge $-1 $212 -9.7984232669884008 $298 9.7984232669884008 $211 $357 forward 7 unknown #
vertex $-1 $296 $358 #
straight-curve $-1 -65.889461958677941 -27.544799305892099 0 0 0 -1 I I #
edge $-1 $294 -27.544799305892099 $298 27.544799305892099 $292 $359 forward 7 unknown #
straight-curve $-1 0 -27.544799305892099 -9.7984232669884008 -1 0 0 I I #
vertex $-1 $204 $360 #
straight-curve $-1 0 27.544799305892099 -9.7984232669884008 1 0 0 I I #
point $-1 65.889461958677941 27.544799305892099 -9.7984232669884008 #
point $-1 65.889461958677941 -27.544799305892099 -9.7984232669884008 #
straight-curve $-1 -65.889461958677941 0 9.7984232669884008 0 -1 0 I I #
point $-1 -65.889461958677941 27.544799305892099 9.7984232669884008 #
point $-1 -65.889461958677941 -27.544799305892099 9.7984232669884008 #
straight-curve $-1 65.889461958677941 -27.544799305892099 0 0 0 -1 I I #
straight-curve $-1 65.889461958677941 27.544799305892099 0 0 0 -1 I I #
loop $-1 $-1 $315 $221 #
plane-surface $-1 -65.889461958677941 0 0 1 0 0 0 0 -1 forward_v I I I I #
coedge $-1 $225 $224 $321 $361 forward $83 $-1 #
edge $-1 $229 15.075865372154389 $324 27.544799305892099 $228 $362 forward 7 unknown #
coedge $-1 $318 $315 $225 $312 reversed $307 $-1 #
edge $-1 $363 -27.544799305892099 $313 -15.075865372154389 $311 $364 forward 7 unknown #
vertex $-1 $316 $365 #
straight-curve $-1 0 -15.075865372154389 -9.7984232669884008 1 0 0 I I #
coedge $-1 $311 $231 $227 $316 forward $307 $-1 #
edge $-1 $233 1.367823047172307 $313 6.0763411622681645 $315 $366 forward 7 unknown #
point $-1 65.889461958677941 -15.075865372154389 -9.7984232669884008 #
coedge $-1 $231 $311 $235 $322 reversed $307 $-1 #
straight-curve $-1 -65.889461958677941 -10.655166169511622 -5.0899051518925429 0 1 0 I I #
point $-1 -65.889461958677941 -15.075865372154389 -5.0899051518925429 #
coedge $-1 $236 $235 $309 $361 reversed $222 $-1 #
edge $-1 $237 5.0899051518925429 $363 9.7984232669884008 $318 $367 forward 7 unknown #
point $-1 -65.889461958677941 -27.544799305892099 -5.0899051518925429 #
vertex $-1 $239 $368 #
straight-curve $-1 65.889461958677941 -27.544799305892099 0 0 0 -1 I I #
plane-surface $-1 0 27.544799305892099 0 0 -1 0 0 0 -1 forward_v I I I I #
coedge $-1 $369 $245 $249 $332 forward $156 $-1 #
coedge $-1 $245 $369 $260 $339 forward $156 $-1 #
vertex $-1 $247 $370 #
straight-curve $-1 0 15.075865372154393 -9.7984232669884008 -1 0 0 I I #
coedge $-1 $249 $248 $255 $337 forward $243 $-1 #
edge $-1 $250 15.075865372154393 $371 27.544799305892099 $249 $372 forward 7 unknown #
point $-1 -65.889461958677941 15.075865372154393 -9.7984232669884008 #
point $-1 -65.889461958677941 15.075865372154393 -5.0899051518925429 #
straight-curve $-1 -65.889461958677941 10.655166169511624 -5.0899051518925429 0 1 0 I I #
coedge $-1 $255 $254 $369 $373 reversed $256 $-1 #
edge $-1 $257 5.0899051518925429 $371 9.7984232669884008 $255 $374 forward 7 unknown #
point $-1 -65.889461958677941 27.544799305892102 -5.0899051518925429 #
edge $-1 $341 -27.544799305892099 $329 -15.075865372154393 $260 $375 forward 7 unknown #
straight-curve $-1 65.889461958677941 15.075865372154393 -3.7220821047202359 0 0 -1 I I #
vertex $-1 $339 $376 #
straight-curve $-1 65.889461958677941 27.544799305892099 0 0 0 -1 I I #
coedge $-1 $276 $275 $268 $344 forward $265 $-1 #
edge $-1 $345 84.733710966547648 $348 91.37743512240111 $343 $377 forward 7 unknown #
vertex $-1 $280 $378 #
straight-curve $-1 26.444700219362957 6.9287496893856577 9.7984232669884079 1 0 0 I I #
edge $-1 $348 1.4275959240006451 $277 9.5747116067693803 $276 $379 forward 7 unknown #
vertex $-1 $347 $380 #
straight-curve $-1 -33.565353479266648 6.9287496893856577 89.609453029127494 -0.75470957328743171 0 0.6560590369687036 I I #
point $-1 58.246731746666924 6.9287496893856577 9.7984232669883937 #
point $-1 65.889461958677941 15.075865372154393 3.1546991111349314 #
straight-curve $-1 65.889461958677941 0 9.7984232669884008 0 1 0 I I #
vertex $-1 $283 $381 #
point $-1 61.60071520902558 9.2564970273195755 5.5578368565320462 #
vertex $-1 $287 $382 #
point $-1 61.60071520902558 12.748118034220461 5.5578368565320462 #
straight-curve $-1 -65.889461958677941 27.544799305892099 0 0 0 -1 I I #
point $-1 -65.889461958677941 -27.544799305892099 -9.7984232669884008 #
straight-curve $-1 -65.889461958677941 0 -9.7984232669884008 0 1 0 I I #
point $-1 -65.889461958677941 27.544799305892099 -9.7984232669884008 #
edge $-1 $324 -65.889461958677941 $363 65.889461958677941 $321 $383 forward 7 unknown #
straight-curve $-1 65.889461958677941 0 -9.7984232669884008 0 -1 0 I I #
vertex $-1 $312 $384 #
straight-curve $-1 -65.889461958677941 0 -9.7984232669884008 0 1 0 I I #
point $-1 -65.889461958677941 -15.075865372154389 -9.7984232669884008 #
straight-curve $-1 -65.889461958677941 -15.075865372154389 -3.7220821047202359 0 0 -1 I I #
straight-curve $-1 -65.889461958677941 -27.544799305892099 0 0 0 -1 I I #
point $-1 65.889461958677941 -27.544799305892099 -9.7984232669884008 #
coedge $-1 $328 $327 $336 $373 forward $156 $-1 #
point $-1 65.889461958677941 15.075865372154393 -9.7984232669884008 #
vertex $-1 $373 $385 #
straight-curve $-1 -65.889461958677941 0 -9.7984232669884008 0 1 0 I I #
edge $-1 $371 -65.889461958677941 $341 65.889461958677941 $336 $386 forward 7 unknown #
straight-curve $-1 -65.889461958677941 27.544799305892099 0 0 0 -1 I I #
straight-curve $-1 65.889461958677941 0 -9.7984232669884008 0 -1 0 I I #
point $-1 65.889461958677941 27.544799305892099 -9.7984232669884008 #
straight-curve $-1 65.889461958677941 6.9287496893856577 94.532134233536041 0 0 -1 I I #
point $-1 65.889461958677941 6.9287496893856577 9.7984232669884008 #
straight-curve $-1 65.889461958677941 5.5011537653850127 3.1546991111349243 0 1 0 I I #
point $-1 65.889461958677941 6.9287496893856577 3.1546991111349314 #
point $-1 61.248023056461548 9.2564970273195755 5.5331742224523648 #
point $-1 61.248023056461548 12.748118034220461 5.5331742224523648 #
straight-curve $-1 0 -27.544799305892099 -9.7984232669884008 -1 0 0 I I #
point $-1 -65.889461958677941 -27.544799305892099 -9.7984232669884008 #
point $-1 -65.889461958677941 27.544799305892099 -9.7984232669884008 #
straight-curve $-1 0 27.544799305892099 -9.7984232669884008 1 0 0 I I #
End-of-ACIS-data 