500 0 10 0           
7 Unknown 11 ACIS 5.0 NT 24 Fri Mar 26 19:09:26 1999 
-1 9.9999999999999995e-007 1e-010 
body $-1 $10 $-1 $11 #
body $-1 $12 $-1 $13 #
body $-1 $14 $-1 $15 #
body $-1 $16 $-1 $17 #
body $-1 $18 $-1 $19 #
body $-1 $20 $-1 $21 #
body $-1 $22 $-1 $23 #
body $-1 $24 $-1 $25 #
body $-1 $26 $-1 $27 #
body $-1 $28 $-1 $29 #
lump $-1 $-1 $30 $0 #
transform $-1 1 0 0 0 1 0 0 0 1 41.163365581225015 24.82703566530936 9.307846380018292 1 rotate no_reflect no_shear #
lump $-1 $-1 $31 $1 #
transform $-1 1 0 0 0 1 0 0 0 1 41.163365581225015 24.82703566530936 9.307846380018292 1 rotate no_reflect no_shear #
lump $-1 $-1 $32 $2 #
transform $-1 1 0 0 0 1 0 0 0 1 41.163365581225015 24.82703566530936 9.307846380018292 1 rotate no_reflect no_shear #
lump $-1 $-1 $33 $3 #
transform $-1 1 0 0 0 1 0 0 0 1 41.163365581225015 24.82703566530936 9.307846380018292 1 rotate no_reflect no_shear #
lump $-1 $-1 $34 $4 #
transform $-1 1 0 0 0 1 0 0 0 1 41.163365581225015 24.82703566530936 9.307846380018292 1 rotate no_reflect no_shear #
lump $-1 $-1 $35 $5 #
transform $-1 1 0 0 0 1 0 0 0 1 41.163365581225015 24.82703566530936 9.307846380018292 1 rotate no_reflect no_shear #
lump $-1 $-1 $36 $6 #
transform $-1 1 0 0 0 1 0 0 0 1 41.163365581225015 24.82703566530936 9.307846380018292 1 rotate no_reflect no_shear #
lump $-1 $-1 $37 $7 #
transform $-1 1 0 0 0 1 0 0 0 1 41.163365581225015 24.82703566530936 9.307846380018292 1 rotate no_reflect no_shear #
lump $-1 $-1 $38 $8 #
transform $-1 1 0 0 0 1 0 0 0 1 41.163365581225015 24.82703566530936 9.307846380018292 1 rotate no_reflect no_shear #
lump $-1 $-1 $39 $9 #
transform $-1 1 0 0 0 1 0 0 0 1 41.163365581225015 24.82703566530936 9.307846380018292 1 rotate no_reflect no_shear #
shell $-1 $-1 $-1 $40 $-1 $10 #
shell $-1 $-1 $-1 $41 $-1 $12 #
shell $-1 $-1 $-1 $42 $-1 $14 #
shell $-1 $-1 $-1 $43 $-1 $16 #
shell $-1 $-1 $-1 $44 $-1 $18 #
shell $-1 $-1 $-1 $45 $-1 $20 #
shell $-1 $-1 $-1 $46 $-1 $22 #
shell $-1 $-1 $-1 $47 $-1 $24 #
shell $-1 $-1 $-1 $48 $-1 $26 #
shell $-1 $-1 $-1 $49 $-1 $28 #
face $-1 $50 $51 $30 $-1 $52 forward single #
face $-1 $53 $54 $31 $-1 $55 reversed single #
face $-1 $56 $57 $32 $-1 $58 reversed single #
face $-1 $59 $60 $33 $-1 $61 forward single #
face $-1 $62 $63 $34 $-1 $64 forward single #
face $-1 $65 $66 $35 $-1 $67 forward single #
face $-1 $68 $69 $36 $-1 $70 reversed single #
face $-1 $71 $72 $37 $-1 $73 forward single #
face $-1 $74 $75 $38 $-1 $76 reversed single #
face $-1 $77 $78 $39 $-1 $79 forward single #
face $-1 $80 $81 $30 $-1 $82 reversed single #
loop $-1 $-1 $83 $40 #
plane-surface $-1 0 0 9.307846380018292 0 0 1 1 0 0 forward_v I I I I #
face $-1 $84 $85 $31 $-1 $86 reversed single #
loop $-1 $-1 $87 $41 #
plane-surface $-1 -35.485045253609712 -19.288911255397458 0 0 1 0 0 0 1 forward_v I I I I #
face $-1 $88 $89 $32 $-1 $90 reversed single #
loop $-1 $-1 $91 $42 #
plane-surface $-1 19.273276344575699 59.131287523438154 89.934232286824681 1 0 0 0 -0.78801076186113728 -0.61566146476048833 forward_v I I I I #
face $-1 $92 $93 $33 $-1 $94 forward single #
loop $-1 $95 $96 $43 #
cone-surface $-1 23.086085815296208 20.562336067171795 4.1863126711018417 0 -0.78801076186113728 -0.61566146476048833 1 0 0 1 I I 0 1 1 forward I I I I #
face $-1 $97 $98 $34 $-1 $99 forward single #
loop $-1 $100 $101 $44 #
cone-surface $-1 28.805300021376972 20.562336067171795 4.1863126711018417 0 -0.78801076186113728 -0.61566146476048833 1 0 0 1 I I 0 1 1 forward I I I I #
face $-1 $102 $103 $35 $-1 $104 forward single #
loop $-1 $105 $106 $45 #
cone-surface $-1 34.524514227457736 20.562336067171795 4.1863126711018417 0 -0.78801076186113728 -0.61566146476048833 1 0 0 1 I I 0 1 1 forward I I I I #
face $-1 $107 $108 $36 $-1 $109 reversed single #
loop $-1 $-1 $110 $46 #
plane-surface $-1 -19.491403015240202 -69.665387669039745 72.769035914491127 -1 0 0 0 -0.54463904215088732 0.83867056331134215 forward_v I I I I #
face $-1 $111 $112 $37 $-1 $113 forward single #
loop $-1 $114 $115 $47 #
cone-surface $-1 -24.649063970617306 -19.379202960262027 4.7471397745096837 0 0.54463904215088732 -0.83867056331134215 1.5 0 0 1 I I 0 1 1.5 forward I I I I #
face $-1 $116 $117 $38 $-1 $118 reversed single #
loop $-1 $-1 $119 $48 #
plane-surface $-1 30.848043670470815 -69.665387669039745 72.769035914491127 1 0 0 0 0.54463904215088732 -0.83867056331134215 forward_v I I I I #
face $-1 $120 $121 $39 $-1 $122 forward single #
loop $-1 $123 $124 $49 #
cone-surface $-1 36.005704625847919 -19.379202960262027 4.7471397745096837 0 0.54463904215088732 -0.83867056331134215 1.5 0 0 1 I I 0 1 1.5 forward I I I I #
face $-1 $125 $126 $30 $-1 $127 reversed single #
loop $-1 $-1 $128 $50 #
plane-surface $-1 0 0 -9.307846380018292 0 0 1 1 0 0 forward_v I I I I #
coedge $-1 $129 $130 $131 $132 forward $51 $-1 #
face $-1 $133 $134 $31 $-1 $135 reversed single #
loop $-1 $-1 $136 $53 #
plane-surface $-1 -35.485045253609712 -15.076561819401142 0 0 -1 0 0 0 -1 forward_v I I I I #
coedge $-1 $137 $138 $139 $140 reversed $54 $-1 #
face $-1 $141 $142 $32 $-1 $143 reversed single #
loop $-1 $-1 $144 $56 #
plane-surface $-1 28.805300021376972 -5.7430626214211244 39.248836390407753 0 0.78801076186113728 0.61566146476048833 1 0 0 forward_v I I I I #
coedge $-1 $145 $146 $147 $148 reversed $57 $-1 #
face $-1 $-1 $149 $33 $-1 $150 forward single #
loop $-1 $151 $152 $59 #
cone-surface $-1 23.086085815296208 19.492447985453047 3.3504245139844802 0 -0.78801076186113728 -0.61566146476048833 0.5 0 0 1 I I -0.70710678118654746 0.70710678118654746 0.5 forward I I I I #
loop $-1 $-1 $153 $43 #
coedge $-1 $96 $96 $154 $155 reversed $60 $-1 #
face $-1 $-1 $156 $34 $-1 $157 forward single #
loop $-1 $158 $159 $62 #
cone-surface $-1 28.805300021376972 19.492447985453047 3.3504245139844802 0 -0.78801076186113728 -0.61566146476048833 0.5 0 0 1 I I -0.70710678118654746 0.70710678118654746 0.5 forward I I I I #
loop $-1 $-1 $160 $44 #
coedge $-1 $101 $101 $161 $162 reversed $63 $-1 #
face $-1 $-1 $163 $35 $-1 $164 forward single #
loop $-1 $165 $166 $65 #
cone-surface $-1 34.524514227457736 19.492447985453047 3.3504245139844802 0 -0.78801076186113728 -0.61566146476048833 0.5 0 0 1 I I -0.70710678118654746 0.70710678118654746 0.5 forward I I I I #
loop $-1 $-1 $167 $45 #
coedge $-1 $106 $106 $168 $169 reversed $66 $-1 #
face $-1 $170 $171 $36 $-1 $172 reversed single #
loop $-1 $-1 $173 $68 #
plane-surface $-1 -24.649063970617306 -24.827035665309353 3.7240299148977272 0 -0.54463904215088732 0.83867056331134215 1 0 0 forward_v I I I I #
coedge $-1 $174 $175 $176 $177 reversed $69 $-1 #
face $-1 $-1 $178 $37 $-1 $179 forward single #
loop $-1 $180 $181 $71 #
cone-surface $-1 -24.649063970617306 -17.822052563023938 2.3493384790778524 0 0.54463904215088732 -0.83867056331134215 0.75 0 0 1 I I -0.70710678118654768 0.70710678118654735 0.75 forward I I I I #
loop $-1 $-1 $182 $47 #
coedge $-1 $115 $115 $183 $184 reversed $72 $-1 #
face $-1 $185 $186 $38 $-1 $187 forward single #
loop $-1 $-1 $188 $74 #
plane-surface $-1 36.005704625847919 -24.827035665309353 3.7240299148977272 0 -0.54463904215088732 0.83867056331134215 1 0 0 forward_v I I I I #
coedge $-1 $189 $190 $191 $192 reversed $75 $-1 #
face $-1 $-1 $193 $39 $-1 $194 forward single #
loop $-1 $195 $196 $77 #
cone-surface $-1 36.005704625847919 -17.822052563023938 2.3493384790778524 0 0.54463904215088732 -0.83867056331134215 0.75 0 0 1 I I -0.70710678118654768 0.70710678118654735 0.75 forward I I I I #
loop $-1 $-1 $197 $49 #
coedge $-1 $124 $124 $198 $199 reversed $78 $-1 #
face $-1 $200 $201 $30 $-1 $202 reversed single #
loop $-1 $-1 $203 $80 #
plane-surface $-1 0 -24.82703566530936 0 0 1 0 0 0 1 forward_v I I I I #
coedge $-1 $204 $205 $206 $207 forward $81 $-1 #
coedge $-1 $208 $83 $209 $210 forward $51 $-1 #
coedge $-1 $83 $208 $211 $212 forward $51 $-1 #
coedge $-1 $213 $214 $83 $132 reversed $215 $-1 #
edge $-1 $216 -24.82703566530936 $217 24.82703566530936 $131 $218 forward 7 unknown #
face $-1 $219 $220 $31 $-1 $221 reversed single #
loop $-1 $-1 $222 $84 #
plane-surface $-1 -29.806724925994409 -17.1827365373993 0 -1 0 0 0 0 1 forward_v I I I I #
coedge $-1 $223 $224 $225 $226 forward $85 $-1 #
coedge $-1 $227 $87 $228 $229 reversed $54 $-1 #
coedge $-1 $87 $227 $230 $231 reversed $54 $-1 #
coedge $-1 $232 $233 $87 $140 forward $234 $-1 #
edge $-1 $235 -9.307846380018292 $236 9.307846380018292 $139 $237 forward 7 unknown #
face $-1 $238 $239 $32 $-1 $240 reversed single #
loop $-1 $-1 $241 $88 #
plane-surface $-1 38.337323698178245 59.131287523438154 89.934232286824681 -1 0 0 0 0.78801076186113728 0.61566146476048833 forward_v I I I I #
coedge $-1 $242 $243 $244 $245 reversed $89 $-1 #
coedge $-1 $146 $91 $246 $247 reversed $57 $-1 #
coedge $-1 $91 $145 $242 $248 reversed $57 $-1 #
coedge $-1 $244 $249 $91 $148 forward $250 $-1 #
edge $-1 $251 4.7386080964097168 $252 11.916241891108474 $147 $253 forward 7 unknown #
loop $-1 $-1 $154 $92 #
plane-surface $-1 28.805300021376972 -5.7430626214211244 39.248836390407753 0 0.78801076186113728 0.61566146476048833 1 0 0 forward_v I I I I #
loop $-1 $-1 $254 $59 #
coedge $-1 $152 $152 $153 $255 reversed $93 $-1 #
coedge $-1 $153 $153 $152 $255 forward $95 $-1 #
coedge $-1 $154 $154 $96 $155 forward $149 $-1 #
edge $-1 $256 5.2472125750573812e-016 $256 6.2831853071796013 $154 $257 forward 7 unknown #
loop $-1 $-1 $161 $97 #
plane-surface $-1 28.805300021376972 -5.7430626214211244 39.248836390407753 0 0.78801076186113728 0.61566146476048833 1 0 0 forward_v I I I I #
loop $-1 $-1 $258 $62 #
coedge $-1 $159 $159 $160 $259 reversed $98 $-1 #
coedge $-1 $160 $160 $159 $259 forward $100 $-1 #
coedge $-1 $161 $161 $101 $162 forward $156 $-1 #
edge $-1 $260 5.2472125750573812e-016 $260 6.2831853071796013 $161 $261 forward 7 unknown #
loop $-1 $-1 $168 $102 #
plane-surface $-1 28.805300021376972 -5.7430626214211244 39.248836390407753 0 0.78801076186113728 0.61566146476048833 1 0 0 forward_v I I I I #
loop $-1 $-1 $262 $65 #
coedge $-1 $166 $166 $167 $263 reversed $103 $-1 #
coedge $-1 $167 $167 $166 $263 forward $105 $-1 #
coedge $-1 $168 $168 $106 $169 forward $163 $-1 #
edge $-1 $264 5.2472125750573812e-016 $264 6.2831853071796013 $168 $265 forward 7 unknown #
face $-1 $266 $267 $36 $-1 $268 forward single #
loop $-1 $-1 $269 $107 #
plane-surface $-1 0 -24.82703566530936 0 0 1 0 0 0 1 forward_v I I I I #
coedge $-1 $270 $271 $272 $273 reversed $108 $-1 #
coedge $-1 $175 $110 $274 $275 reversed $69 $-1 #
coedge $-1 $110 $174 $270 $276 reversed $69 $-1 #
coedge $-1 $272 $277 $110 $177 forward $267 $-1 #
edge $-1 $278 10.005658169210513 $279 18.603981348055331 $176 $280 forward 7 unknown #
loop $-1 $-1 $183 $111 #
plane-surface $-1 -24.649063970617306 -24.827035665309353 3.7240299148977272 0 -0.54463904215088732 0.83867056331134215 1 0 0 forward_v I I I I #
loop $-1 $-1 $281 $71 #
coedge $-1 $181 $181 $182 $282 reversed $112 $-1 #
coedge $-1 $182 $182 $181 $282 forward $114 $-1 #
coedge $-1 $183 $183 $115 $184 forward $178 $-1 #
edge $-1 $283 6.4498219168608663e-016 $283 6.2831853071796013 $183 $284 forward 7 unknown #
face $-1 $285 $286 $38 $-1 $287 reversed single #
loop $-1 $-1 $288 $116 #
plane-surface $-1 0 0 9.307846380018292 0 0 1 1 0 0 forward_v I I I I #
coedge $-1 $289 $290 $291 $292 reversed $117 $-1 #
coedge $-1 $190 $119 $293 $294 reversed $75 $-1 #
coedge $-1 $119 $189 $289 $295 reversed $75 $-1 #
coedge $-1 $291 $296 $119 $192 forward $286 $-1 #
edge $-1 $297 27.076671577227273 $298 32.660488042347843 $191 $299 forward 7 unknown #
loop $-1 $-1 $198 $120 #
plane-surface $-1 36.005704625847919 -24.827035665309353 3.7240299148977272 0 -0.54463904215088732 0.83867056331134215 1 0 0 forward_v I I I I #
loop $-1 $-1 $300 $77 #
coedge $-1 $196 $196 $197 $301 reversed $121 $-1 #
coedge $-1 $197 $197 $196 $301 forward $123 $-1 #
coedge $-1 $198 $198 $124 $199 forward $193 $-1 #
edge $-1 $302 6.4498219168608663e-016 $302 6.2831853071796013 $198 $303 forward 7 unknown #
face $-1 $304 $305 $30 $-1 $306 reversed single #
loop $-1 $-1 $307 $125 #
plane-surface $-1 -41.163365581225015 0 0 1 0 0 0 0 -1 forward_v I I I I #
coedge $-1 $308 $211 $309 $310 forward $126 $-1 #
coedge $-1 $311 $128 $308 $312 forward $81 $-1 #
coedge $-1 $128 $311 $313 $314 forward $81 $-1 #
coedge $-1 $214 $213 $128 $207 reversed $215 $-1 #
edge $-1 $315 -24.82703566530936 $316 24.82703566530936 $206 $317 forward 7 unknown #
coedge $-1 $130 $129 $318 $319 forward $51 $-1 #
coedge $-1 $320 $321 $129 $210 reversed $305 $-1 #
edge $-1 $217 -41.163365581225015 $322 41.163365581225015 $209 $323 forward 7 unknown #
coedge $-1 $203 $324 $130 $212 reversed $126 $-1 #
edge $-1 $325 -41.163365581225015 $216 41.163365581225015 $211 $326 forward 7 unknown #
coedge $-1 $206 $131 $324 $327 forward $215 $-1 #
coedge $-1 $131 $206 $320 $328 reversed $215 $-1 #
loop $-1 $-1 $213 $304 #
vertex $-1 $132 $329 #
vertex $-1 $132 $330 #
straight-curve $-1 41.163365581225015 0 9.307846380018292 0 1 0 I I #
face $-1 $331 $332 $31 $-1 $333 forward single #
loop $-1 $-1 $334 $133 #
plane-surface $-1 0 0 -9.307846380018292 0 0 1 1 0 0 forward_v I I I I #
coedge $-1 $335 $336 $227 $337 forward $134 $-1 #
coedge $-1 $338 $136 $334 $339 reversed $85 $-1 #
coedge $-1 $136 $338 $340 $341 reversed $85 $-1 #
coedge $-1 $336 $335 $136 $226 reversed $134 $-1 #
edge $-1 $342 -9.307846380018292 $343 9.307846380018292 $225 $344 forward 7 unknown #
coedge $-1 $138 $137 $222 $337 reversed $54 $-1 #
coedge $-1 $345 $346 $137 $229 forward $220 $-1 #
edge $-1 $347 12.064202299189553 $235 23.420842954420159 $228 $348 forward 7 unknown #
coedge $-1 $349 $350 $138 $231 forward $332 $-1 #
edge $-1 $236 -23.420842954420159 $351 -12.064202299189553 $230 $352 forward 7 unknown #
coedge $-1 $353 $139 $350 $354 reversed $234 $-1 #
coedge $-1 $139 $353 $345 $355 reversed $234 $-1 #
loop $-1 $-1 $353 $331 #
vertex $-1 $355 $356 #
vertex $-1 $140 $357 #
straight-curve $-1 -41.163365581225015 -19.288911255397458 0 0 0 1 I I #
face $-1 $-1 $250 $32 $-1 $358 forward single #
loop $-1 $-1 $359 $141 #
plane-surface $-1 0 24.82703566530936 0 0 -1 0 0 0 -1 forward_v I I I I #
coedge $-1 $360 $361 $362 $363 reversed $142 $-1 #
coedge $-1 $364 $144 $146 $248 forward $89 $-1 #
coedge $-1 $144 $364 $360 $365 forward $89 $-1 #
coedge $-1 $362 $147 $144 $245 forward $250 $-1 #
edge $-1 $252 4.8706263338872127 $366 23.934673687489759 $244 $367 forward 7 unknown #
coedge $-1 $368 $369 $145 $247 forward $239 $-1 #
edge $-1 $370 -44.846222331752692 $251 -35.65926976339405 $246 $371 forward 7 unknown #
edge $-1 $252 37.995661302485665 $370 49.654071330618713 $146 $372 forward 7 unknown #
coedge $-1 $147 $362 $368 $373 forward $250 $-1 #
loop $-1 $-1 $362 $238 #
vertex $-1 $247 $374 #
vertex $-1 $148 $375 #
straight-curve $-1 19.273276344575699 29.565643761719077 9.3078463800182902 0 -1 0 I I #
coedge $-1 $254 $254 $-1 $376 reversed $151 $-1 #
edge $-1 $377 0 $377 6.2831853071796004 $152 $378 forward 7 unknown #
vertex $-1 $155 $379 #
ellipse-curve $-1 23.086085815296208 21.238218767959985 4.7143700958389667 0 0.78801076186113728 0.61566146476048833 1 0 0 1 I I #
coedge $-1 $258 $258 $-1 $380 reversed $158 $-1 #
edge $-1 $381 0 $381 6.2831853071796004 $159 $382 forward 7 unknown #
vertex $-1 $162 $383 #
ellipse-curve $-1 28.805300021376972 21.238218767959985 4.7143700958389667 0 0.78801076186113728 0.61566146476048833 1 0 0 1 I I #
coedge $-1 $262 $262 $-1 $384 reversed $165 $-1 #
edge $-1 $385 0 $385 6.2831853071796004 $166 $386 forward 7 unknown #
vertex $-1 $169 $387 #
ellipse-curve $-1 34.524514227457736 21.238218767959985 4.7143700958389667 0 0.78801076186113728 0.61566146476048833 1 0 0 1 I I #
face $-1 $-1 $388 $36 $-1 $389 forward single #
loop $-1 $-1 $390 $170 #
plane-surface $-1 0 0 9.307846380018292 0 0 1 1 0 0 forward_v I I I I #
coedge $-1 $391 $392 $393 $394 forward $171 $-1 #
coedge $-1 $395 $173 $175 $276 forward $108 $-1 #
coedge $-1 $173 $395 $396 $397 reversed $108 $-1 #
coedge $-1 $390 $176 $173 $273 forward $267 $-1 #
edge $-1 $279 7.1668710299315492 $398 17.482192940685756 $272 $399 forward 7 unknown #
coedge $-1 $392 $391 $174 $275 forward $171 $-1 #
edge $-1 $400 -32.660488042347843 $278 -27.076671577227273 $274 $401 forward 7 unknown #
edge $-1 $279 -10.252324995044367 $400 8.3777959833898778e-015 $175 $402 forward 7 unknown #
coedge $-1 $176 $390 $392 $403 forward $267 $-1 #
vertex $-1 $177 $404 #
vertex $-1 $177 $405 #
straight-curve $-1 -19.491403015240202 -34.832693834519873 9.3078463800182902 0 1 0 I I #
coedge $-1 $281 $281 $-1 $406 reversed $180 $-1 #
edge $-1 $407 0 $407 6.2831853071796004 $181 $408 forward 7 unknown #
vertex $-1 $184 $409 #
ellipse-curve $-1 -24.649063970617306 -20.527874075886952 6.5159381474580069 0 -0.54463904215088732 0.83867056331134215 1.5 0 0 1 I I #
face $-1 $-1 $410 $38 $-1 $411 reversed single #
loop $-1 $-1 $291 $185 #
plane-surface $-1 0 -24.82703566530936 0 0 1 0 0 0 1 forward_v I I I I #
coedge $-1 $293 $412 $413 $414 forward $186 $-1 #
coedge $-1 $413 $188 $190 $295 forward $117 $-1 #
coedge $-1 $188 $413 $415 $416 reversed $117 $-1 #
coedge $-1 $417 $191 $188 $292 forward $286 $-1 #
edge $-1 $298 12.845191357546856 $418 23.160513268301063 $291 $419 forward 7 unknown #
coedge $-1 $420 $288 $189 $294 forward $186 $-1 #
edge $-1 $421 -18.603981348055331 $297 -10.005658169210513 $293 $422 forward 7 unknown #
edge $-1 $298 -8.3777959833898778e-015 $421 10.252324995044367 $190 $423 forward 7 unknown #
coedge $-1 $191 $417 $420 $424 reversed $286 $-1 #
vertex $-1 $424 $425 #
vertex $-1 $192 $426 #
straight-curve $-1 30.848043670470815 -24.82703566530936 36.384517957245563 0 0 -1 I I #
coedge $-1 $300 $300 $-1 $427 reversed $195 $-1 #
edge $-1 $428 0 $428 6.2831853071796004 $196 $429 forward 7 unknown #
vertex $-1 $199 $430 #
ellipse-curve $-1 36.005704625847919 -20.527874075886952 6.5159381474580069 0 -0.54463904215088732 0.83867056331134215 1.5 0 0 1 I I #
face $-1 $-1 $215 $30 $-1 $431 reversed single #
loop $-1 $-1 $320 $200 #
plane-surface $-1 0 24.82703566530936 0 0 -1 0 0 0 -1 forward_v I I I I #
coedge $-1 $432 $318 $321 $433 forward $201 $-1 #
coedge $-1 $324 $203 $204 $312 reversed $126 $-1 #
coedge $-1 $318 $432 $203 $310 reversed $201 $-1 #
edge $-1 $325 -9.307846380018292 $434 9.307846380018292 $309 $435 forward 7 unknown #
coedge $-1 $205 $204 $432 $436 forward $81 $-1 #
edge $-1 $316 -41.163365581225015 $434 41.163365581225015 $308 $437 forward 7 unknown #
coedge $-1 $321 $320 $205 $314 reversed $305 $-1 #
edge $-1 $438 -41.163365581225015 $315 41.163365581225015 $313 $439 forward 7 unknown #
vertex $-1 $207 $440 #
vertex $-1 $327 $441 #
straight-curve $-1 41.163365581225015 0 -9.307846380018292 0 -1 0 I I #
coedge $-1 $307 $309 $208 $319 reversed $201 $-1 #
edge $-1 $322 -24.82703566530936 $325 24.82703566530936 $318 $442 forward 7 unknown #
coedge $-1 $313 $209 $214 $328 forward $305 $-1 #
coedge $-1 $209 $313 $307 $433 reversed $305 $-1 #
vertex $-1 $210 $443 #
straight-curve $-1 0 24.82703566530936 9.307846380018292 -1 0 0 I I #
coedge $-1 $211 $308 $213 $327 reversed $126 $-1 #
vertex $-1 $319 $444 #
straight-curve $-1 0 -24.82703566530936 9.307846380018292 1 0 0 I I #
edge $-1 $216 -9.307846380018292 $316 9.307846380018292 $213 $445 forward 7 unknown #
edge $-1 $217 -9.307846380018292 $315 9.307846380018292 $214 $446 forward 7 unknown #
point $-1 41.163365581225015 -24.82703566530936 9.307846380018292 #
point $-1 41.163365581225015 24.82703566530936 9.307846380018292 #
face $-1 $-1 $234 $31 $-1 $447 reversed single #
loop $-1 $-1 $340 $219 #
plane-surface $-1 0 0 9.307846380018292 0 0 1 1 0 0 forward_v I I I I #
coedge $-1 $346 $345 $223 $339 forward $220 $-1 #
coedge $-1 $225 $222 $346 $448 reversed $134 $-1 #
coedge $-1 $222 $225 $349 $449 reversed $134 $-1 #
edge $-1 $351 -9.307846380018292 $347 9.307846380018292 $222 $450 forward 7 unknown #
coedge $-1 $224 $223 $353 $451 reversed $85 $-1 #
edge $-1 $452 -23.420842954420159 $343 -12.064202299189553 $334 $453 forward 7 unknown #
coedge $-1 $350 $349 $224 $341 forward $332 $-1 #
edge $-1 $342 12.064202299189553 $454 23.420842954420159 $340 $455 forward 7 unknown #
vertex $-1 $341 $456 #
vertex $-1 $339 $457 #
straight-curve $-1 -29.806724925994409 -15.076561819401142 0 0 0 -1 I I #
coedge $-1 $334 $228 $233 $355 forward $220 $-1 #
coedge $-1 $228 $334 $335 $448 forward $220 $-1 #
vertex $-1 $229 $458 #
straight-curve $-1 -17.742522626804856 -19.288911255397458 -9.307846380018292 -1 0 0 I I #
coedge $-1 $340 $230 $336 $449 forward $332 $-1 #
coedge $-1 $230 $340 $232 $354 forward $332 $-1 #
vertex $-1 $231 $459 #
straight-curve $-1 -17.742522626804856 -19.288911255397458 9.307846380018292 1 0 0 I I #
coedge $-1 $233 $232 $338 $451 forward $234 $-1 #
edge $-1 $454 15.076561819401142 $236 19.288911255397458 $232 $460 forward 7 unknown #
edge $-1 $235 -19.288911255397458 $452 -15.076561819401142 $233 $461 forward 7 unknown #
point $-1 -41.163365581225015 -19.288911255397458 -9.307846380018292 #
point $-1 -41.163365581225015 -19.288911255397458 9.307846380018292 #
plane-surface $-1 0 0 9.307846380018292 0 0 1 1 0 0 forward_v I I I I #
coedge $-1 $369 $368 $361 $462 forward $239 $-1 #
coedge $-1 $361 $241 $243 $365 reversed $142 $-1 #
coedge $-1 $241 $360 $359 $462 reversed $142 $-1 #
coedge $-1 $249 $244 $241 $363 forward $250 $-1 #
edge $-1 $366 -11.916241891108474 $463 -4.7386080964097168 $362 $464 forward 7 unknown #
coedge $-1 $243 $242 $369 $465 reversed $89 $-1 #
edge $-1 $466 -49.654071330618713 $366 -37.995661302485665 $360 $467 forward 7 unknown #
vertex $-1 $245 $468 #
straight-curve $-1 14.402650010688486 17.64940187061061 9.3078463800182902 1 0 0 I I #
coedge $-1 $359 $246 $249 $373 reversed $239 $-1 #
coedge $-1 $246 $359 $364 $465 forward $239 $-1 #
vertex $-1 $247 $469 #
straight-curve $-1 19.273276344575699 24.82703566530936 44.967116143412341 0 0 1 I I #
straight-curve $-1 19.273276344575699 -5.7430626214211244 39.248836390407753 0 0.61566146476048833 -0.78801076186113728 I I #
edge $-1 $463 -38.337323698178245 $251 -19.273276344575699 $368 $470 forward 7 unknown #
point $-1 19.273276344575699 24.82703566530936 9.307846380018292 #
point $-1 19.273276344575699 17.649401870610603 9.3078463800182938 #
edge $-1 $471 1 $471 0 $254 $-1 forward 7 unknown #
vertex $-1 $255 $472 #
ellipse-curve $-1 23.086085815296208 19.886453366383616 3.6582552463647242 0 0.78801076186113728 0.61566146476048833 1 0 0 1 I I #
point $-1 24.086085815296208 21.238218767959978 4.7143700958389605 #
edge $-1 $473 1 $473 0 $258 $-1 forward 7 unknown #
vertex $-1 $259 $474 #
ellipse-curve $-1 28.805300021376972 19.886453366383616 3.6582552463647242 0 0.78801076186113728 0.61566146476048833 1 0 0 1 I I #
point $-1 29.805300021376972 21.238218767959978 4.7143700958389605 #
edge $-1 $475 1 $475 0 $262 $-1 forward 7 unknown #
vertex $-1 $263 $476 #
ellipse-curve $-1 34.524514227457736 19.886453366383616 3.6582552463647242 0 0.78801076186113728 0.61566146476048833 1 0 0 1 I I #
point $-1 35.524514227457736 21.238218767959978 4.7143700958389605 #
loop $-1 $-1 $396 $266 #
plane-surface $-1 -29.806724925994409 -17.1827365373993 0 -1 0 0 0 0 1 forward_v I I I I #
coedge $-1 $277 $272 $477 $478 forward $267 $-1 #
coedge $-1 $274 $269 $395 $479 forward $171 $-1 #
coedge $-1 $269 $274 $277 $403 reversed $171 $-1 #
coedge $-1 $477 $396 $269 $394 reversed $388 $-1 #
edge $-1 $480 27.076671577227273 $481 32.660488042347843 $269 $482 forward 7 unknown #
coedge $-1 $271 $270 $391 $479 reversed $108 $-1 #
coedge $-1 $393 $477 $271 $397 forward $388 $-1 #
edge $-1 $398 -8.0609267100775774 $481 2.1913982849667977 $396 $483 forward 7 unknown #
vertex $-1 $478 $484 #
straight-curve $-1 -12.324531985308653 -16.228712486464541 9.307846380018292 -1 0 0 I I #
vertex $-1 $275 $485 #
straight-curve $-1 -19.491403015240202 -24.82703566530936 36.384517957245563 0 0 1 I I #
straight-curve $-1 -19.491403015240202 -24.827035665309353 3.7240299148977272 0 -0.83867056331134215 -0.54463904215088732 I I #
edge $-1 $480 -29.806724925994409 $278 -19.491403015240202 $392 $486 forward 7 unknown #
point $-1 -19.491403015240202 -24.82703566530936 9.307846380018292 #
point $-1 -19.491403015240202 -16.228712486464541 9.307846380018292 #
edge $-1 $487 1 $487 0 $281 $-1 forward 7 unknown #
vertex $-1 $282 $488 #
ellipse-curve $-1 -24.649063970617306 -18.230531844637103 2.9783414015613587 0 -0.54463904215088732 0.83867056331134215 1.5 0 0 1 I I #
point $-1 -23.149063970617306 -20.527874075886952 6.5159381474580087 #
loop $-1 $-1 $415 $285 #
plane-surface $-1 41.163365581225015 0 0 -1 0 0 0 0 1 forward_v I I I I #
coedge $-1 $288 $420 $489 $490 forward $186 $-1 #
coedge $-1 $290 $289 $288 $414 reversed $117 $-1 #
edge $-1 $491 -23.160513268301063 $421 -12.845191357546856 $288 $492 forward 7 unknown #
coedge $-1 $489 $493 $290 $416 forward $410 $-1 #
edge $-1 $418 -9.3967259504923231 $491 0.85559904455205182 $415 $494 forward 7 unknown #
coedge $-1 $296 $291 $493 $495 reversed $286 $-1 #
vertex $-1 $292 $496 #
straight-curve $-1 18.002852312923959 -24.82703566530936 3.7240299148977223 1 0 0 I I #
coedge $-1 $412 $293 $296 $424 forward $186 $-1 #
vertex $-1 $294 $497 #
straight-curve $-1 30.848043670470815 -34.832693834519873 9.3078463800182902 0 -1 0 I I #
straight-curve $-1 30.848043670470815 -24.827035665309353 3.7240299148977272 0 0.83867056331134215 0.54463904215088732 I I #
edge $-1 $297 30.848043670470815 $498 41.163365581225015 $296 $499 forward 7 unknown #
point $-1 30.848043670470815 -24.82703566530936 9.307846380018292 #
point $-1 30.848043670470815 -24.82703566530936 3.7240299148977227 #
edge $-1 $500 1 $500 0 $300 $-1 forward 7 unknown #
vertex $-1 $301 $501 #
ellipse-curve $-1 36.005704625847919 -18.230531844637103 2.9783414015613587 0 -0.54463904215088732 0.83867056331134215 1.5 0 0 1 I I #
point $-1 37.505704625847919 -20.527874075886952 6.5159381474580087 #
plane-surface $-1 41.163365581225015 0 0 -1 0 0 0 0 1 forward_v I I I I #
coedge $-1 $309 $307 $311 $436 reversed $201 $-1 #
edge $-1 $322 -9.307846380018292 $438 9.307846380018292 $321 $502 forward 7 unknown #
vertex $-1 $436 $503 #
straight-curve $-1 -41.163365581225015 -24.82703566530936 0 0 0 -1 I I #
edge $-1 $434 -24.82703566530936 $438 24.82703566530936 $432 $504 forward 7 unknown #
straight-curve $-1 0 -24.82703566530936 -9.307846380018292 -1 0 0 I I #
vertex $-1 $314 $505 #
straight-curve $-1 0 24.82703566530936 -9.307846380018292 1 0 0 I I #
point $-1 41.163365581225015 24.82703566530936 -9.307846380018292 #
point $-1 41.163365581225015 -24.82703566530936 -9.307846380018292 #
straight-curve $-1 -41.163365581225015 0 9.307846380018292 0 -1 0 I I #
point $-1 -41.163365581225015 24.82703566530936 9.307846380018292 #
point $-1 -41.163365581225015 -24.82703566530936 9.307846380018292 #
straight-curve $-1 41.163365581225015 -24.82703566530936 0 0 0 -1 I I #
straight-curve $-1 41.163365581225015 24.82703566530936 0 0 0 -1 I I #
plane-surface $-1 -41.163365581225015 0 0 1 0 0 0 0 -1 forward_v I I I I #
edge $-1 $343 6.4851935507014922 $347 10.697542986697808 $346 $506 forward 7 unknown #
edge $-1 $351 -10.697542986697808 $342 -6.4851935507014922 $349 $507 forward 7 unknown #
straight-curve $-1 -29.806724925994409 -19.288911255397458 0 0 0 -1 I I #
edge $-1 $454 -9.307846380018292 $452 9.307846380018292 $353 $508 forward 7 unknown #
vertex $-1 $451 $509 #
straight-curve $-1 -17.742522626804856 -15.076561819401142 -9.307846380018292 1 0 0 I I #
vertex $-1 $354 $510 #
straight-curve $-1 -17.742522626804856 -15.076561819401142 9.307846380018292 -1 0 0 I I #
point $-1 -29.806724925994409 -15.076561819401142 9.307846380018292 #
point $-1 -29.806724925994409 -15.076561819401142 -9.307846380018292 #
point $-1 -29.806724925994409 -19.288911255397458 -9.307846380018292 #
point $-1 -29.806724925994409 -19.288911255397458 9.307846380018292 #
straight-curve $-1 -41.163365581225015 0 9.307846380018292 0 -1 0 I I #
straight-curve $-1 -41.163365581225015 0 -9.307846380018292 0 1 0 I I #
edge $-1 $463 35.65926976339405 $466 44.846222331752692 $359 $511 forward 7 unknown #
vertex $-1 $373 $512 #
straight-curve $-1 38.337323698178245 29.565643761719077 9.3078463800182902 0 1 0 I I #
edge $-1 $466 -23.934673687489759 $370 -4.8706263338872127 $369 $513 forward 7 unknown #
vertex $-1 $465 $514 #
straight-curve $-1 38.337323698178245 -5.7430626214211244 39.248836390407753 0 -0.61566146476048833 0.78801076186113728 I I #
point $-1 38.337323698178245 17.649401870610603 9.3078463800182938 #
point $-1 19.273276344575699 24.827035665309364 0.12089381165964852 #
straight-curve $-1 0 24.82703566530936 9.307846380018292 -1 0 0 I I #
vertex $-1 $376 $515 #
point $-1 24.086085815296208 19.886453366383616 3.6582552463647242 #
vertex $-1 $380 $516 #
point $-1 29.805300021376972 19.886453366383616 3.6582552463647242 #
vertex $-1 $384 $517 #
point $-1 35.524514227457736 19.886453366383616 3.6582552463647242 #
coedge $-1 $396 $393 $390 $478 reversed $388 $-1 #
edge $-1 $398 -18.603981348055331 $480 -10.005658169210513 $390 $518 forward 7 unknown #
edge $-1 $481 -17.482192940685756 $400 -7.1668710299315492 $391 $519 forward 7 unknown #
vertex $-1 $403 $520 #
vertex $-1 $394 $521 #
straight-curve $-1 -29.806724925994409 -24.82703566530936 36.384517957245563 0 0 -1 I I #
straight-curve $-1 -29.806724925994409 -22.989174431216746 4.9175509777931357 0 -0.83867056331134215 -0.54463904215088732 I I #
point $-1 -29.806724925994409 -16.228712486464541 9.307846380018292 #
point $-1 -19.491403015240202 -24.82703566530936 3.7240299148977227 #
straight-curve $-1 0 -24.82703566530936 9.307846380018292 1 0 0 I I #
vertex $-1 $406 $522 #
point $-1 -23.149063970617306 -18.230531844637103 2.9783414015613587 #
coedge $-1 $493 $415 $412 $490 reversed $410 $-1 #
edge $-1 $498 -24.82703566530936 $491 -16.228712486464541 $489 $523 forward 7 unknown #
vertex $-1 $416 $524 #
straight-curve $-1 18.002852312923959 -16.228712486464541 9.307846380018292 -1 0 0 I I #
coedge $-1 $415 $489 $417 $495 forward $410 $-1 #
straight-curve $-1 41.163365581225015 -16.946278219127656 8.8418537359282467 0 0.83867056331134215 0.54463904215088732 I I #
edge $-1 $498 -9.307846380018292 $418 -3.7240299148977227 $493 $525 forward 7 unknown #
point $-1 41.163365581225023 -24.82703566530936 3.7240299148977227 #
point $-1 30.848043670470815 -16.228712486464541 9.307846380018292 #
vertex $-1 $490 $526 #
straight-curve $-1 0 -24.82703566530936 9.307846380018292 1 0 0 I I #
vertex $-1 $427 $527 #
point $-1 37.505704625847919 -18.230531844637103 2.9783414015613587 #
straight-curve $-1 -41.163365581225015 24.82703566530936 0 0 0 -1 I I #
point $-1 -41.163365581225015 -24.82703566530936 -9.307846380018292 #
straight-curve $-1 -41.163365581225015 0 -9.307846380018292 0 1 0 I I #
point $-1 -41.163365581225015 24.82703566530936 -9.307846380018292 #
straight-curve $-1 -29.806724925994409 -8.5913682686996502 -9.307846380018292 0 -1 0 I I #
straight-curve $-1 -29.806724925994409 -8.5913682686996502 9.307846380018292 0 1 0 I I #
straight-curve $-1 -41.163365581225015 -15.076561819401142 0 0 0 -1 I I #
point $-1 -41.163365581225015 -15.076561819401142 -9.307846380018292 #
point $-1 -41.163365581225015 -15.076561819401142 9.307846380018292 #
straight-curve $-1 38.337323698178245 24.82703566530936 44.967116143412341 0 0 -1 I I #
point $-1 38.337323698178245 24.82703566530936 9.307846380018292 #
straight-curve $-1 14.402650010688486 24.82703566530936 0.12089381165964852 -1 0 0 I I #
point $-1 38.337323698178245 24.827035665309364 0.12089381165964852 #
point $-1 23.086085815296208 19.098442604522479 3.0425937816042361 #
point $-1 28.805300021376972 19.098442604522479 3.0425937816042361 #
point $-1 34.524514227457736 19.098442604522479 3.0425937816042361 #
straight-curve $-1 -29.806724925994409 -34.832693834519873 9.3078463800182902 0 -1 0 I I #
straight-curve $-1 -12.324531985308653 -24.82703566530936 3.7240299148977223 1 0 0 I I #
point $-1 -29.806724925994409 -24.82703566530936 9.307846380018292 #
point $-1 -29.806724925994409 -24.82703566530936 3.7240299148977227 #
point $-1 -24.649063970617306 -17.413573281410773 1.7203355565943461 #
straight-curve $-1 41.163365581225015 0 9.307846380018292 0 1 0 I I #
point $-1 41.163365581225023 -16.228712486464541 9.307846380018292 #
straight-curve $-1 41.163365581225015 -24.82703566530936 0 0 0 -1 I I #
point $-1 41.163365581225015 -24.82703566530936 9.307846380018292 #
point $-1 36.005704625847919 -17.413573281410773 1.7203355565943461 #
End-of-ACIS-data 