500 0 7 0           
7 Unknown 11 ACIS 5.0 NT 24 Thu Mar 25 16:55:13 1999 
-1 9.9999999999999995e-007 1e-010 
body $-1 $7 $-1 $8 #
body $-1 $9 $-1 $10 #
body $-1 $11 $-1 $12 #
body $-1 $13 $-1 $14 #
body $-1 $15 $-1 $16 #
body $-1 $17 $-1 $18 #
body $-1 $19 $-1 $20 #
lump $-1 $-1 $21 $0 #
transform $-1 1 0 0 0 1 0 0 0 1 50.200506607257303 26.094243863850473 10.354398558505711 1 rotate no_reflect no_shear #
lump $-1 $-1 $22 $1 #
transform $-1 1 0 0 0 1 0 0 0 1 50.200506607257303 26.094243863850473 10.354398558505711 1 rotate no_reflect no_shear #
lump $-1 $-1 $23 $2 #
transform $-1 1 0 0 0 1 0 0 0 1 50.200506607257303 26.094243863850473 10.354398558505711 1 rotate no_reflect no_shear #
lump $-1 $-1 $24 $3 #
transform $-1 1 0 0 0 1 0 0 0 1 50.200506607257303 26.094243863850473 10.354398558505711 1 rotate no_reflect no_shear #
lump $-1 $-1 $25 $4 #
transform $-1 1 0 0 0 1 0 0 0 1 50.200506607257303 26.094243863850473 10.354398558505711 1 rotate no_reflect no_shear #
lump $-1 $-1 $26 $5 #
transform $-1 1 0 0 0 1 0 0 0 1 50.200506607257303 26.094243863850473 10.354398558505711 1 rotate no_reflect no_shear #
lump $-1 $-1 $27 $6 #
transform $-1 1 0 0 0 1 0 0 0 1 50.200506607257303 26.094243863850473 10.354398558505711 1 rotate no_reflect no_shear #
shell $-1 $-1 $-1 $28 $-1 $7 #
shell $-1 $-1 $-1 $29 $-1 $9 #
shell $-1 $-1 $-1 $30 $-1 $11 #
shell $-1 $-1 $-1 $31 $-1 $13 #
shell $-1 $-1 $-1 $32 $-1 $15 #
shell $-1 $-1 $-1 $33 $-1 $17 #
shell $-1 $-1 $-1 $34 $-1 $19 #
face $-1 $35 $36 $21 $-1 $37 forward single #
face $-1 $38 $39 $22 $-1 $40 forward single #
face $-1 $41 $42 $23 $-1 $43 reversed single #
face $-1 $44 $45 $24 $-1 $46 forward single #
face $-1 $47 $48 $25 $-1 $49 forward single #
face $-1 $50 $51 $26 $-1 $52 reversed single #
face $-1 $53 $54 $27 $-1 $55 forward single #
face $-1 $56 $57 $21 $-1 $58 reversed single #
loop $-1 $-1 $59 $28 #
plane-surface $-1 0 0 10.354398558505711 0 0 1 1 0 0 forward_v I I I I #
face $-1 $60 $61 $22 $-1 $62 reversed single #
loop $-1 $-1 $63 $29 #
plane-surface $-1 -50.200506607257303 0 0 1 0 0 0 0 -1 forward_v I I I I #
face $-1 $64 $65 $23 $-1 $66 reversed single #
loop $-1 $-1 $67 $30 #
plane-surface $-1 39.784113383789467 -26.094243863850487 1.2555469080563029 0 -0.6018150307709319 0.79863550430605224 1 0 0 forward_v I I I I #
face $-1 $68 $69 $24 $-1 $70 forward single #
loop $-1 $71 $72 $31 #
cone-surface $-1 35.319944859446103 -17.824026674240624 2.8417808001924545 0 0.6018150307709319 -0.79863550430605224 2 0 0 1 I I 0 1 2 forward I I I I #
face $-1 $73 $74 $25 $-1 $75 forward single #
loop $-1 $76 $77 $32 #
cone-surface $-1 44.248281908132832 -17.824026674240624 2.8417808001924545 0 0.6018150307709319 -0.79863550430605224 2 0 0 1 I I 0 1 2 forward I I I I #
face $-1 $78 $79 $26 $-1 $80 reversed single #
loop $-1 $-1 $81 $33 #
plane-surface $-1 -15.43788698932164 50.652071278719355 117.36842151866193 1 0 0 0 -0.64278761758704617 -0.76604443648966558 forward_v I I I I #
face $-1 $82 $83 $27 $-1 $84 forward single #
loop $-1 $85 $86 $34 #
cone-surface $-1 -10.047200926522905 23.615822541952735 8.1243902628300653 0 -0.64278761758704617 -0.76604443648966558 1 0 0 1 I I 0 1 1 forward I I I I #
face $-1 $87 $88 $21 $-1 $89 reversed single #
loop $-1 $-1 $90 $35 #
plane-surface $-1 0 0 -10.354398558505711 0 0 1 1 0 0 forward_v I I I I #
coedge $-1 $91 $92 $93 $94 forward $36 $-1 #
face $-1 $95 $96 $22 $-1 $97 forward single #
loop $-1 $-1 $98 $38 #
plane-surface $-1 0 26.094243863850473 0 0 -1 0 0 0 -1 forward_v I I I I #
coedge $-1 $99 $100 $101 $102 forward $39 $-1 #
face $-1 $103 $104 $23 $-1 $105 reversed single #
loop $-1 $-1 $106 $41 #
plane-surface $-1 29.367720160321625 -86.517082720976333 81.439360729468788 1 0 0 0 0.6018150307709319 -0.79863550430605224 forward_v I I I I #
coedge $-1 $107 $108 $109 $110 reversed $42 $-1 #
face $-1 $-1 $111 $24 $-1 $112 forward single #
loop $-1 $113 $114 $44 #
cone-surface $-1 35.319944859446103 -14.989286316738323 -0.92004663720214985 0 0.6018150307709319 -0.79863550430605224 1 0 0 1 I I -0.70710678118654768 0.70710678118654735 1 forward I I I I #
loop $-1 $-1 $115 $31 #
coedge $-1 $72 $72 $116 $117 reversed $45 $-1 #
face $-1 $-1 $118 $25 $-1 $119 forward single #
loop $-1 $120 $121 $47 #
cone-surface $-1 44.248281908132832 -14.989286316738323 -0.92004663720214985 0 0.6018150307709319 -0.79863550430605224 1 0 0 1 I I -0.70710678118654768 0.70710678118654735 1 forward I I I I #
loop $-1 $-1 $122 $32 #
coedge $-1 $77 $77 $123 $124 reversed $48 $-1 #
face $-1 $125 $126 $26 $-1 $127 reversed single #
loop $-1 $-1 $128 $50 #
plane-surface $-1 -10.047200926522905 -13.884456808764021 40.456783927757641 0 0.64278761758704617 0.76604443648966558 1 0 0 forward_v I I I I #
coedge $-1 $129 $130 $131 $132 reversed $51 $-1 #
face $-1 $-1 $133 $27 $-1 $134 forward single #
loop $-1 $135 $136 $53 #
cone-surface $-1 -10.047200926522905 22.868045168534337 7.2332239102634723 0 -0.64278761758704617 -0.76604443648966558 0.5 0 0 1 I I -0.70710678118654746 0.70710678118654746 0.5 forward I I I I #
loop $-1 $-1 $137 $34 #
coedge $-1 $86 $86 $138 $139 reversed $54 $-1 #
face $-1 $140 $141 $21 $-1 $142 reversed single #
loop $-1 $-1 $143 $56 #
plane-surface $-1 0 -26.094243863850473 0 0 1 0 0 0 1 forward_v I I I I #
coedge $-1 $144 $145 $146 $147 forward $57 $-1 #
coedge $-1 $148 $59 $149 $150 forward $36 $-1 #
coedge $-1 $59 $148 $151 $152 forward $36 $-1 #
coedge $-1 $153 $154 $59 $94 reversed $155 $-1 #
edge $-1 $156 -26.094243863850473 $157 26.094243863850473 $93 $158 forward 7 unknown #
face $-1 $159 $160 $22 $-1 $161 reversed single #
loop $-1 $-1 $101 $60 #
plane-surface $-1 -54.065237600095749 0 -4.6414314680106123 0 0 1 1 0 0 forward_v I I I I #
coedge $-1 $162 $163 $100 $164 forward $61 $-1 #
coedge $-1 $165 $63 $166 $167 reversed $39 $-1 #
coedge $-1 $63 $165 $98 $164 reversed $39 $-1 #
coedge $-1 $168 $169 $63 $102 reversed $96 $-1 #
edge $-1 $170 -26.094243863850473 $171 26.094243863850473 $101 $172 forward 7 unknown #
face $-1 $173 $174 $23 $-1 $175 forward single #
loop $-1 $-1 $176 $64 #
plane-surface $-1 0 -26.094243863850473 0 0 1 0 0 0 1 forward_v I I I I #
coedge $-1 $177 $178 $179 $180 reversed $65 $-1 #
coedge $-1 $181 $67 $182 $183 reversed $42 $-1 #
coedge $-1 $67 $181 $177 $184 forward $42 $-1 #
coedge $-1 $179 $185 $67 $110 forward $174 $-1 #
edge $-1 $186 -30.308449915362576 $187 -9.475663468426891 $109 $188 forward 7 unknown #
loop $-1 $-1 $116 $68 #
plane-surface $-1 39.784113383789467 -26.094243863850487 1.2555469080563029 0 -0.6018150307709319 0.79863550430605224 1 0 0 forward_v I I I I #
loop $-1 $-1 $189 $44 #
coedge $-1 $114 $114 $115 $190 reversed $69 $-1 #
coedge $-1 $115 $115 $114 $190 forward $71 $-1 #
coedge $-1 $116 $116 $72 $117 forward $111 $-1 #
edge $-1 $191 -4.5215529017475566e-016 $191 6.2831853071795996 $116 $192 forward 7 unknown #
loop $-1 $-1 $123 $73 #
plane-surface $-1 39.784113383789467 -26.094243863850487 1.2555469080563029 0 -0.6018150307709319 0.79863550430605224 1 0 0 forward_v I I I I #
loop $-1 $-1 $193 $47 #
coedge $-1 $121 $121 $122 $194 reversed $74 $-1 #
coedge $-1 $122 $122 $121 $194 forward $76 $-1 #
coedge $-1 $123 $123 $77 $124 forward $118 $-1 #
edge $-1 $195 -4.5215529017475566e-016 $195 6.2831853071795996 $123 $196 forward 7 unknown #
face $-1 $197 $198 $26 $-1 $199 forward single #
loop $-1 $-1 $200 $78 #
plane-surface $-1 -4.6565148637241691 50.652071278719355 117.36842151866193 -1 0 0 0 0.64278761758704617 0.76604443648966558 forward_v I I I I #
coedge $-1 $201 $202 $203 $204 reversed $79 $-1 #
coedge $-1 $130 $81 $205 $206 reversed $51 $-1 #
coedge $-1 $81 $129 $201 $207 reversed $51 $-1 #
coedge $-1 $203 $208 $81 $132 forward $198 $-1 #
edge $-1 $209 -0.76820822449079529 $210 3.3358672900549031 $131 $211 forward 7 unknown #
loop $-1 $-1 $138 $82 #
plane-surface $-1 -10.047200926522905 -13.884456808764021 40.456783927757641 0 0.64278761758704617 0.76604443648966558 1 0 0 forward_v I I I I #
loop $-1 $-1 $212 $53 #
coedge $-1 $136 $136 $137 $213 reversed $83 $-1 #
coedge $-1 $137 $137 $136 $213 forward $85 $-1 #
coedge $-1 $138 $138 $86 $139 forward $133 $-1 #
edge $-1 $214 -6.0976456530054579e-016 $214 6.2831853071795996 $138 $215 forward 7 unknown #
face $-1 $216 $217 $21 $-1 $218 reversed single #
loop $-1 $-1 $219 $87 #
plane-surface $-1 -50.200506607257303 0 0 1 0 0 0 0 -1 forward_v I I I I #
coedge $-1 $220 $151 $221 $222 forward $88 $-1 #
coedge $-1 $223 $90 $220 $224 forward $57 $-1 #
coedge $-1 $90 $223 $225 $226 forward $57 $-1 #
coedge $-1 $154 $153 $90 $147 reversed $155 $-1 #
edge $-1 $227 -26.094243863850473 $228 26.094243863850473 $146 $229 forward 7 unknown #
coedge $-1 $92 $91 $230 $231 forward $36 $-1 #
coedge $-1 $232 $233 $91 $150 reversed $217 $-1 #
edge $-1 $157 -50.200506607257303 $234 50.200506607257303 $149 $235 forward 7 unknown #
coedge $-1 $143 $236 $92 $152 reversed $88 $-1 #
edge $-1 $237 -50.200506607257303 $156 50.200506607257303 $151 $238 forward 7 unknown #
coedge $-1 $146 $93 $236 $239 forward $155 $-1 #
coedge $-1 $93 $146 $232 $240 reversed $155 $-1 #
loop $-1 $-1 $153 $216 #
vertex $-1 $94 $241 #
vertex $-1 $94 $242 #
straight-curve $-1 50.200506607257303 0 10.354398558505711 0 1 0 I I #
face $-1 $243 $244 $22 $-1 $245 reversed single #
loop $-1 $-1 $246 $95 #
plane-surface $-1 -54.065237600095749 0 -9.4297917499112138 0 0 1 1 0 0 forward_v I I I I #
coedge $-1 $247 $98 $248 $249 reversed $61 $-1 #
coedge $-1 $98 $247 $168 $250 reversed $61 $-1 #
edge $-1 $170 4.6414314680106123 $251 9.4297917499112138 $98 $252 forward 7 unknown #
coedge $-1 $100 $99 $246 $253 forward $39 $-1 #
coedge $-1 $254 $255 $99 $167 forward $256 $-1 #
edge $-1 $257 -9.4297917499112138 $171 -4.6414314680106123 $166 $258 forward 7 unknown #
coedge $-1 $259 $101 $163 $250 forward $96 $-1 #
coedge $-1 $101 $259 $254 $260 forward $96 $-1 #
vertex $-1 $164 $261 #
vertex $-1 $260 $262 #
straight-curve $-1 -50.200506607257303 0 -4.6414314680106123 0 -1 0 I I #
face $-1 $-1 $263 $23 $-1 $264 reversed single #
loop $-1 $-1 $179 $103 #
plane-surface $-1 0 0 10.354398558505711 0 0 1 1 0 0 forward_v I I I I #
coedge $-1 $265 $266 $178 $267 forward $104 $-1 #
coedge $-1 $178 $106 $108 $184 reversed $65 $-1 #
coedge $-1 $106 $177 $176 $267 reversed $65 $-1 #
coedge $-1 $268 $109 $106 $180 forward $174 $-1 #
edge $-1 $187 -29.238881222394639 $269 -17.164297496637694 $179 $270 forward 7 unknown #
coedge $-1 $108 $107 $265 $271 reversed $42 $-1 #
coedge $-1 $272 $273 $107 $183 forward $263 $-1 #
edge $-1 $274 -10.04209130329253 $186 5.0769256458083696 $182 $275 forward 7 unknown #
edge $-1 $276 1.7763522597878294e-014 $187 15.119016949100917 $177 $277 forward 7 unknown #
coedge $-1 $109 $268 $272 $278 forward $174 $-1 #
vertex $-1 $183 $279 #
vertex $-1 $110 $280 #
straight-curve $-1 19.892056691894734 -14.019660138093526 10.354398558505711 -1 0 0 I I #
coedge $-1 $189 $189 $-1 $281 reversed $113 $-1 #
edge $-1 $282 0 $282 6.2831853071796004 $114 $283 forward 7 unknown #
vertex $-1 $117 $284 #
ellipse-curve $-1 35.319944859446103 -20.056952000972 5.804972733281013 0 -0.6018150307709319 0.79863550430605224 2 0 0 1 I I #
coedge $-1 $193 $193 $-1 $285 reversed $120 $-1 #
edge $-1 $286 0 $286 6.2831853071796004 $121 $287 forward 7 unknown #
vertex $-1 $124 $288 #
ellipse-curve $-1 44.248281908132832 -20.056952000972 5.804972733281013 0 -0.6018150307709319 0.79863550430605224 2 0 0 1 I I #
face $-1 $-1 $289 $26 $-1 $290 reversed single #
loop $-1 $-1 $131 $125 #
plane-surface $-1 0 0 10.354398558505711 0 0 1 1 0 0 forward_v I I I I #
coedge $-1 $291 $292 $293 $294 reversed $126 $-1 #
coedge $-1 $295 $128 $130 $207 forward $79 $-1 #
coedge $-1 $128 $295 $291 $296 forward $79 $-1 #
coedge $-1 $293 $131 $128 $204 forward $198 $-1 #
edge $-1 $210 -10.414286526060188 $297 0.36708559953728326 $203 $298 forward 7 unknown #
coedge $-1 $299 $300 $129 $206 forward $289 $-1 #
edge $-1 $301 -51.773540523533008 $209 -48.329812200825259 $205 $302 forward 7 unknown #
edge $-1 $210 46.830997588679395 $301 52.188487727700938 $130 $303 forward 7 unknown #
coedge $-1 $131 $293 $299 $304 forward $198 $-1 #
vertex $-1 $132 $305 #
vertex $-1 $132 $306 #
straight-curve $-1 -15.43788698932164 25.326035639359677 10.354398558505714 0 -1 0 I I #
coedge $-1 $212 $212 $-1 $307 reversed $135 $-1 #
edge $-1 $308 0 $308 6.2831853071796004 $136 $309 forward 7 unknown #
vertex $-1 $139 $310 #
ellipse-curve $-1 -10.047200926522905 24.042206106577623 8.6325343971518418 0 0.64278761758704617 0.76604443648966558 1 0 0 1 I I #
face $-1 $-1 $155 $21 $-1 $311 reversed single #
loop $-1 $-1 $232 $140 #
plane-surface $-1 0 26.094243863850473 0 0 -1 0 0 0 -1 forward_v I I I I #
coedge $-1 $312 $230 $233 $313 forward $141 $-1 #
coedge $-1 $236 $143 $144 $224 reversed $88 $-1 #
coedge $-1 $230 $312 $143 $222 reversed $141 $-1 #
edge $-1 $237 -10.354398558505711 $314 10.354398558505711 $221 $315 forward 7 unknown #
coedge $-1 $145 $144 $312 $316 forward $57 $-1 #
edge $-1 $228 -50.200506607257303 $314 50.200506607257303 $220 $317 forward 7 unknown #
coedge $-1 $233 $232 $145 $226 reversed $217 $-1 #
edge $-1 $318 -50.200506607257303 $227 50.200506607257303 $225 $319 forward 7 unknown #
vertex $-1 $147 $320 #
vertex $-1 $239 $321 #
straight-curve $-1 50.200506607257303 0 -10.354398558505711 0 -1 0 I I #
coedge $-1 $219 $221 $148 $231 reversed $141 $-1 #
edge $-1 $234 -26.094243863850473 $237 26.094243863850473 $230 $322 forward 7 unknown #
coedge $-1 $225 $149 $154 $240 forward $217 $-1 #
coedge $-1 $149 $225 $219 $313 reversed $217 $-1 #
vertex $-1 $150 $323 #
straight-curve $-1 0 26.094243863850473 10.354398558505711 -1 0 0 I I #
coedge $-1 $151 $220 $153 $239 reversed $88 $-1 #
vertex $-1 $231 $324 #
straight-curve $-1 0 -26.094243863850473 10.354398558505711 1 0 0 I I #
edge $-1 $156 -10.354398558505711 $228 10.354398558505711 $153 $325 forward 7 unknown #
edge $-1 $157 -10.354398558505711 $227 10.354398558505711 $154 $326 forward 7 unknown #
point $-1 50.200506607257303 -26.094243863850473 10.354398558505711 #
point $-1 50.200506607257303 26.094243863850473 10.354398558505711 #
face $-1 $-1 $256 $22 $-1 $327 reversed single #
loop $-1 $-1 $328 $159 #
plane-surface $-1 -57.929968592934195 0 -7.0356116089609131 1 0 0 0 0 -1 forward_v I I I I #
coedge $-1 $329 $248 $165 $253 reversed $160 $-1 #
coedge $-1 $163 $162 $328 $330 reversed $61 $-1 #
coedge $-1 $246 $331 $162 $249 forward $160 $-1 #
edge $-1 $332 -3.8647309928384459 $251 3.8647309928384459 $162 $333 forward 7 unknown #
edge $-1 $170 -3.8647309928384459 $334 3.8647309928384459 $163 $335 forward 7 unknown #
vertex $-1 $164 $336 #
straight-curve $-1 -50.200506607257303 26.094243863850473 0 0 0 -1 I I #
edge $-1 $257 -26.094243863850473 $251 26.094243863850473 $246 $337 forward 7 unknown #
coedge $-1 $338 $166 $169 $260 reversed $256 $-1 #
coedge $-1 $166 $338 $329 $339 reversed $256 $-1 #
loop $-1 $-1 $166 $243 #
vertex $-1 $167 $340 #
straight-curve $-1 -50.200506607257303 -26.094243863850473 0 0 0 1 I I #
coedge $-1 $169 $168 $341 $342 forward $96 $-1 #
edge $-1 $343 -3.8647309928384459 $171 3.8647309928384459 $254 $344 forward 7 unknown #
point $-1 -50.200506607257303 26.094243863850473 -4.6414314680106123 #
point $-1 -50.200506607257303 -26.094243863850473 -4.6414314680106123 #
loop $-1 $-1 $182 $173 #
plane-surface $-1 50.200506607257303 0 0 -1 0 0 0 0 1 forward_v I I I I #
coedge $-1 $345 $176 $181 $271 forward $104 $-1 #
coedge $-1 $176 $345 $268 $346 reversed $104 $-1 #
edge $-1 $269 30.365281806228683 $276 39.464133456678084 $176 $347 forward 7 unknown #
coedge $-1 $185 $179 $266 $346 forward $174 $-1 #
vertex $-1 $346 $348 #
straight-curve $-1 29.367720160321625 -43.258541360488167 10.354398558505707 0 -1 0 I I #
edge $-1 $276 9.475663468426891 $274 30.308449915362576 $265 $349 forward 7 unknown #
coedge $-1 $273 $182 $185 $278 reversed $263 $-1 #
coedge $-1 $182 $272 $345 $350 forward $263 $-1 #
vertex $-1 $271 $351 #
straight-curve $-1 50.200506607257303 -18.074273211558022 7.2990283947518133 0 0.79863550430605224 0.6018150307709319 I I #
vertex $-1 $271 $352 #
straight-curve $-1 29.367720160321625 -26.094243863850487 1.2555469080563029 0 0.79863550430605224 0.6018150307709319 I I #
edge $-1 $353 -26.094243863850473 $186 -14.019660138093526 $272 $354 forward 7 unknown #
point $-1 50.20050660725731 -14.019660138093526 10.354398558505711 #
point $-1 29.367720160321625 -14.019660138093526 10.354398558505711 #
edge $-1 $355 1 $355 0 $189 $-1 forward 7 unknown #
vertex $-1 $190 $356 #
ellipse-curve $-1 35.319944859446103 -15.591101347509253 -0.12141113289609795 0 -0.6018150307709319 0.79863550430605224 2 0 0 1 I I #
point $-1 37.319944859446103 -20.056952000971997 5.8049727332810068 #
edge $-1 $357 1 $357 0 $193 $-1 forward 7 unknown #
vertex $-1 $194 $358 #
ellipse-curve $-1 44.248281908132832 -15.591101347509253 -0.12141113289609795 0 -0.6018150307709319 0.79863550430605224 2 0 0 1 I I #
point $-1 46.248281908132832 -20.056952000971997 5.8049727332810068 #
loop $-1 $-1 $205 $197 #
plane-surface $-1 0 26.094243863850473 0 0 -1 0 0 0 -1 forward_v I I I I #
coedge $-1 $292 $200 $202 $296 reversed $126 $-1 #
coedge $-1 $200 $291 $359 $360 reversed $126 $-1 #
coedge $-1 $208 $203 $200 $294 forward $198 $-1 #
edge $-1 $297 -3.3358672900549031 $361 0.76820822449079529 $293 $362 forward 7 unknown #
coedge $-1 $202 $201 $300 $363 reversed $79 $-1 #
edge $-1 $364 -52.188487727700938 $297 -46.830997588679395 $291 $365 forward 7 unknown #
vertex $-1 $204 $366 #
straight-curve $-1 -5.0236004632614524 21.990168349304767 10.354398558505711 1 0 0 I I #
coedge $-1 $359 $205 $208 $304 reversed $289 $-1 #
coedge $-1 $205 $359 $295 $363 forward $289 $-1 #
vertex $-1 $206 $367 #
straight-curve $-1 -15.43788698932164 26.094243863850473 58.684210759330966 0 0 1 I I #
straight-curve $-1 -15.43788698932164 -13.884456808764021 40.456783927757641 0 0.76604443648966558 -0.64278761758704617 I I #
edge $-1 $361 4.6565148637241691 $209 15.43788698932164 $299 $368 forward 7 unknown #
point $-1 -15.43788698932164 26.094243863850473 10.354398558505711 #
point $-1 -15.43788698932164 21.990168349304774 10.354398558505707 #
edge $-1 $369 1 $369 0 $212 $-1 forward 7 unknown #
vertex $-1 $213 $370 #
ellipse-curve $-1 -10.047200926522905 23.18943897732786 7.6162461285083047 0 0.64278761758704617 0.76604443648966558 1 0 0 1 I I #
point $-1 -9.0472009265229048 24.042206106577609 8.6325343971518258 #
plane-surface $-1 50.200506607257303 0 0 -1 0 0 0 0 1 forward_v I I I I #
coedge $-1 $221 $219 $223 $316 reversed $141 $-1 #
edge $-1 $234 -10.354398558505711 $318 10.354398558505711 $233 $371 forward 7 unknown #
vertex $-1 $316 $372 #
straight-curve $-1 -50.200506607257303 -26.094243863850473 0 0 0 -1 I I #
edge $-1 $314 -26.094243863850473 $318 26.094243863850473 $312 $373 forward 7 unknown #
straight-curve $-1 0 -26.094243863850473 -10.354398558505711 -1 0 0 I I #
vertex $-1 $226 $374 #
straight-curve $-1 0 26.094243863850473 -10.354398558505711 1 0 0 I I #
point $-1 50.200506607257303 26.094243863850473 -10.354398558505711 #
point $-1 50.200506607257303 -26.094243863850473 -10.354398558505711 #
straight-curve $-1 -50.200506607257303 0 10.354398558505711 0 -1 0 I I #
point $-1 -50.200506607257303 26.094243863850473 10.354398558505711 #
point $-1 -50.200506607257303 -26.094243863850473 10.354398558505711 #
straight-curve $-1 50.200506607257303 -26.094243863850473 0 0 0 -1 I I #
straight-curve $-1 50.200506607257303 26.094243863850473 0 0 0 -1 I I #
plane-surface $-1 0 -26.094243863850473 0 0 1 0 0 0 1 forward_v I I I I #
coedge $-1 $375 $341 $247 $330 forward $244 $-1 #
coedge $-1 $331 $246 $255 $339 forward $160 $-1 #
edge $-1 $334 -2.3941801409503007 $332 2.3941801409503007 $247 $376 forward 7 unknown #
coedge $-1 $248 $329 $375 $377 forward $160 $-1 #
vertex $-1 $249 $378 #
straight-curve $-1 -54.065237600095749 26.094243863850473 -9.4297917499112138 1 0 0 I I #
vertex $-1 $250 $379 #
straight-curve $-1 -54.065237600095749 26.094243863850473 -4.6414314680106123 -1 0 0 I I #
point $-1 -50.200506607257303 26.094243863850473 -9.4297917499112138 #
straight-curve $-1 -50.200506607257303 0 -9.4297917499112138 0 1 0 I I #
coedge $-1 $255 $254 $380 $381 forward $256 $-1 #
edge $-1 $257 -3.8647309928384459 $382 3.8647309928384459 $255 $383 forward 7 unknown #
point $-1 -50.200506607257303 -26.094243863850473 -9.4297917499112138 #
coedge $-1 $328 $380 $259 $342 reversed $244 $-1 #
edge $-1 $334 -26.094243863850473 $343 26.094243863850473 $341 $384 forward 7 unknown #
vertex $-1 $342 $385 #
straight-curve $-1 -54.065237600095749 -26.094243863850473 -4.6414314680106123 1 0 0 I I #
coedge $-1 $266 $265 $273 $350 reversed $104 $-1 #
edge $-1 $269 29.367720160321625 $353 50.200506607257303 $266 $386 forward 7 unknown #
straight-curve $-1 29.367720160321625 -26.094243863850473 40.719680364734394 0 0 -1 I I #
point $-1 29.367720160321625 -26.094243863850473 10.354398558505711 #
straight-curve $-1 19.892056691894734 -26.094243863850473 1.2555469080563135 1 0 0 I I #
edge $-1 $353 -10.354398558505711 $274 -1.2555469080563135 $273 $387 forward 7 unknown #
point $-1 50.20050660725731 -26.094243863850473 1.2555469080563135 #
point $-1 29.367720160321625 -26.094243863850473 1.2555469080563135 #
vertex $-1 $278 $388 #
straight-curve $-1 50.200506607257303 0 10.354398558505711 0 1 0 I I #
vertex $-1 $281 $389 #
point $-1 37.319944859446103 -15.591101347509253 -0.12141113289609795 #
vertex $-1 $285 $390 #
point $-1 46.248281908132832 -15.591101347509253 -0.12141113289609795 #
coedge $-1 $300 $299 $292 $360 forward $289 $-1 #
edge $-1 $361 48.329812200825259 $364 51.773540523533008 $359 $391 forward 7 unknown #
vertex $-1 $304 $392 #
straight-curve $-1 -4.6565148637241691 25.326035639359677 10.354398558505714 0 1 0 I I #
edge $-1 $364 -0.36708559953728326 $301 10.414286526060188 $300 $393 forward 7 unknown #
vertex $-1 $363 $394 #
straight-curve $-1 -4.6565148637241691 -13.884456808764021 40.456783927757641 0 -0.76604443648966558 0.64278761758704617 I I #
point $-1 -4.6565148637241691 21.990168349304774 10.354398558505707 #
point $-1 -15.43788698932164 26.094243863850473 6.9106702357979586 #
straight-curve $-1 0 26.094243863850473 10.354398558505711 -1 0 0 I I #
vertex $-1 $307 $395 #
point $-1 -9.0472009265229048 23.18943897732786 7.6162461285083047 #
straight-curve $-1 -50.200506607257303 26.094243863850473 0 0 0 -1 I I #
point $-1 -50.200506607257303 -26.094243863850473 -10.354398558505711 #
straight-curve $-1 -50.200506607257303 0 -10.354398558505711 0 1 0 I I #
point $-1 -50.200506607257303 26.094243863850473 -10.354398558505711 #
coedge $-1 $380 $328 $331 $377 reversed $244 $-1 #
straight-curve $-1 -57.929968592934195 26.094243863850473 -7.0356116089609131 0 0 -1 I I #
edge $-1 $382 -26.094243863850473 $332 26.094243863850473 $375 $396 forward 7 unknown #
point $-1 -57.929968592934195 26.094243863850473 -9.4297917499112138 #
point $-1 -57.929968592934195 26.094243863850473 -4.6414314680106123 #
coedge $-1 $341 $375 $338 $381 reversed $244 $-1 #
edge $-1 $343 -2.3941801409503007 $382 2.3941801409503007 $380 $397 forward 7 unknown #
vertex $-1 $377 $398 #
straight-curve $-1 -54.065237600095749 -26.094243863850473 -9.4297917499112138 -1 0 0 I I #
straight-curve $-1 -57.929968592934195 0 -4.6414314680106123 0 -1 0 I I #
point $-1 -57.929968592934195 -26.094243863850473 -4.6414314680106123 #
straight-curve $-1 0 -26.094243863850473 10.354398558505711 1 0 0 I I #
straight-curve $-1 50.200506607257303 -26.094243863850473 0 0 0 -1 I I #
point $-1 50.200506607257303 -26.094243863850473 10.354398558505711 #
point $-1 35.319944859446103 -14.387471285967392 -1.7186821415082019 #
point $-1 44.248281908132832 -14.387471285967392 -1.7186821415082019 #
straight-curve $-1 -4.6565148637241691 26.094243863850473 58.684210759330966 0 0 -1 I I #
point $-1 -4.6565148637241691 26.094243863850473 10.354398558505711 #
straight-curve $-1 -5.0236004632614524 26.094243863850473 6.9106702357979621 -1 0 0 I I #
point $-1 -4.6565148637241691 26.094243863850473 6.9106702357979586 #
point $-1 -10.047200926522905 22.546651359740814 6.8502016920186399 #
straight-curve $-1 -57.929968592934195 0 -9.4297917499112138 0 1 0 I I #
straight-curve $-1 -57.929968592934195 -26.094243863850473 -7.0356116089609131 0 0 -1 I I #
point $-1 -57.929968592934195 -26.094243863850473 -9.4297917499112138 #
End-of-ACIS-data 