500 0 9 0           
7 Unknown 11 ACIS 5.0 NT 24 Fri Mar 26 17:46:04 1999 
-1 9.9999999999999995e-007 1e-010 
body $-1 $9 $-1 $10 #
body $-1 $11 $-1 $12 #
body $-1 $13 $-1 $14 #
body $-1 $15 $-1 $16 #
body $-1 $17 $-1 $18 #
body $-1 $19 $-1 $20 #
body $-1 $21 $-1 $22 #
body $-1 $23 $-1 $24 #
body $-1 $25 $-1 $26 #
lump $-1 $-1 $27 $0 #
transform $-1 1 0 0 0 1 0 0 0 1 51.409039582506793 28.50207399150267 8.817750311797262 1 rotate no_reflect no_shear #
lump $-1 $-1 $28 $1 #
transform $-1 1 0 0 0 1 0 0 0 1 51.409039582506793 28.50207399150267 8.817750311797262 1 rotate no_reflect no_shear #
lump $-1 $-1 $29 $2 #
transform $-1 1 0 0 0 1 0 0 0 1 51.409039582506793 28.50207399150267 8.817750311797262 1 rotate no_reflect no_shear #
lump $-1 $-1 $30 $3 #
transform $-1 1 0 0 0 1 0 0 0 1 51.409039582506793 28.50207399150267 8.817750311797262 1 rotate no_reflect no_shear #
lump $-1 $-1 $31 $4 #
transform $-1 1 0 0 0 1 0 0 0 1 51.409039582506793 28.50207399150267 8.817750311797262 1 rotate no_reflect no_shear #
lump $-1 $-1 $32 $5 #
transform $-1 1 0 0 0 1 0 0 0 1 51.409039582506793 28.50207399150267 8.817750311797262 1 rotate no_reflect no_shear #
lump $-1 $-1 $33 $6 #
transform $-1 1 0 0 0 1 0 0 0 1 51.409039582506793 28.50207399150267 8.817750311797262 1 rotate no_reflect no_shear #
lump $-1 $-1 $34 $7 #
transform $-1 1 0 0 0 1 0 0 0 1 51.409039582506793 28.50207399150267 8.817750311797262 1 rotate no_reflect no_shear #
lump $-1 $-1 $35 $8 #
transform $-1 1 0 0 0 1 0 0 0 1 51.409039582506793 28.50207399150267 8.817750311797262 1 rotate no_reflect no_shear #
shell $-1 $-1 $-1 $36 $-1 $9 #
shell $-1 $-1 $-1 $37 $-1 $11 #
shell $-1 $-1 $-1 $38 $-1 $13 #
shell $-1 $-1 $-1 $39 $-1 $15 #
shell $-1 $-1 $-1 $40 $-1 $17 #
shell $-1 $-1 $-1 $41 $-1 $19 #
shell $-1 $-1 $-1 $42 $-1 $21 #
shell $-1 $-1 $-1 $43 $-1 $23 #
shell $-1 $-1 $-1 $44 $-1 $25 #
face $-1 $45 $46 $27 $-1 $47 forward single #
face $-1 $48 $49 $28 $-1 $50 reversed single #
face $-1 $51 $52 $29 $-1 $53 forward single #
face $-1 $54 $55 $30 $-1 $56 forward single #
face $-1 $57 $58 $31 $-1 $59 forward single #
face $-1 $60 $61 $32 $-1 $62 reversed single #
face $-1 $63 $64 $33 $-1 $65 forward single #
face $-1 $66 $67 $34 $-1 $68 forward single #
face $-1 $69 $70 $35 $-1 $71 forward single #
face $-1 $72 $73 $27 $-1 $74 reversed single #
loop $-1 $-1 $75 $36 #
plane-surface $-1 0 0 8.817750311797262 0 0 1 1 0 0 forward_v I I I I #
face $-1 $76 $77 $28 $-1 $78 reversed single #
loop $-1 $-1 $79 $37 #
plane-surface $-1 -137.63953725387546 14.431336848177196 59.156980973171635 0 1 0 -0.83867057594974714 0 0.54463902268945019 forward_v I I I I #
face $-1 $80 $81 $29 $-1 $82 forward single #
loop $-1 $83 $84 $38 #
cone-surface $-1 -48.947101812633711 17.245484276842291 5.5825881351221724 0.83867057594974714 0 -0.54463902268945019 0.54463902268945019 0 0.83867057594974714 1 I I 0 1 1 forward I I I I #
face $-1 $85 $86 $30 $-1 $87 forward single #
loop $-1 $88 $89 $39 #
cone-surface $-1 -48.947101812633711 21.466705419839933 5.5825881351221724 0.83867057594974714 0 -0.54463902268945019 0.54463902268945019 0 0.83867057594974714 1 I I 0 1 1 forward I I I I #
face $-1 $90 $91 $31 $-1 $92 forward single #
loop $-1 $93 $94 $40 #
cone-surface $-1 -48.947101812633711 25.687926562837575 5.5825881351221724 0.83867057594974714 0 -0.54463902268945019 0.54463902268945019 0 0.83867057594974714 1 I I 0 1 1 forward I I I I #
face $-1 $95 $96 $32 $-1 $97 reversed single #
loop $-1 $-1 $98 $41 #
plane-surface $-1 81.640799102635938 14.431336848177196 145.38747864454029 0 1 0 0.83867057594974714 0 0.54463902268945019 forward_v I I I I #
face $-1 $99 $100 $33 $-1 $101 forward single #
loop $-1 $102 $103 $42 #
cone-surface $-1 48.947101812633711 17.245484276842291 5.5825881351221796 -0.83867057594974714 0 -0.54463902268945019 0.54463902268945019 0 -0.83867057594974714 1 I I 0 1 1 forward I I I I #
face $-1 $104 $105 $34 $-1 $106 forward single #
loop $-1 $107 $108 $43 #
cone-surface $-1 48.947101812633711 21.466705419839933 5.5825881351221796 -0.83867057594974714 0 -0.54463902268945019 0.54463902268945019 0 -0.83867057594974714 1 I I 0 1 1 forward I I I I #
face $-1 $109 $110 $35 $-1 $111 forward single #
loop $-1 $112 $113 $44 #
cone-surface $-1 48.947101812633711 25.687926562837575 5.5825881351221796 -0.83867057594974714 0 -0.54463902268945019 0.54463902268945019 0 -0.83867057594974714 1 I I 0 1 1 forward I I I I #
face $-1 $114 $115 $27 $-1 $116 reversed single #
loop $-1 $-1 $117 $45 #
plane-surface $-1 0 0 -8.817750311797262 0 0 1 1 0 0 forward_v I I I I #
coedge $-1 $118 $119 $120 $121 forward $46 $-1 #
face $-1 $122 $123 $28 $-1 $124 forward single #
loop $-1 $-1 $125 $48 #
plane-surface $-1 -51.409039582506821 21.466705419839933 3.158242821932113 -0.83867057594974714 0 0.54463902268945019 0.54463902268945019 0 0.83867057594974714 forward_v I I I I #
coedge $-1 $126 $127 $128 $129 reversed $49 $-1 #
face $-1 $-1 $130 $29 $-1 $131 forward single #
loop $-1 $132 $133 $51 #
cone-surface $-1 -47.903492264497629 17.245484276842291 4.9048601920349313 0.83867057594974714 0 -0.54463902268945019 0.2723195113447251 0 0.41933528797487357 1 I I -0.70710678118654746 0.70710678118654746 0.5 forward I I I I #
loop $-1 $-1 $134 $38 #
coedge $-1 $84 $84 $135 $136 reversed $52 $-1 #
face $-1 $-1 $137 $30 $-1 $138 forward single #
loop $-1 $139 $140 $54 #
cone-surface $-1 -47.903492264497629 21.466705419839933 4.9048601920349313 0.83867057594974714 0 -0.54463902268945019 0.2723195113447251 0 0.41933528797487357 1 I I -0.70710678118654746 0.70710678118654746 0.5 forward I I I I #
loop $-1 $-1 $141 $39 #
coedge $-1 $89 $89 $142 $143 reversed $55 $-1 #
face $-1 $-1 $144 $31 $-1 $145 forward single #
loop $-1 $146 $147 $57 #
cone-surface $-1 -47.903492264497629 25.687926562837575 4.9048601920349313 0.83867057594974714 0 -0.54463902268945019 0.2723195113447251 0 0.41933528797487357 1 I I -0.70710678118654746 0.70710678118654746 0.5 forward I I I I #
loop $-1 $-1 $148 $40 #
coedge $-1 $94 $94 $149 $150 reversed $58 $-1 #
face $-1 $151 $152 $32 $-1 $153 reversed single #
loop $-1 $-1 $154 $60 #
plane-surface $-1 -4.5896985687327003 21.466705419839933 89.388740493300773 0.83867057594974714 0 0.54463902268945019 0.54463902268945019 0 -0.83867057594974714 forward_v I I I I #
coedge $-1 $155 $156 $157 $158 reversed $61 $-1 #
face $-1 $-1 $159 $33 $-1 $160 forward single #
loop $-1 $161 $162 $63 #
cone-surface $-1 47.903492264497629 17.245484276842291 4.9048601920349384 -0.83867057594974714 0 -0.54463902268945019 0.2723195113447251 0 -0.41933528797487357 1 I I -0.70710678118654746 0.70710678118654746 0.5 forward I I I I #
loop $-1 $-1 $163 $42 #
coedge $-1 $103 $103 $164 $165 reversed $64 $-1 #
face $-1 $-1 $166 $34 $-1 $167 forward single #
loop $-1 $168 $169 $66 #
cone-surface $-1 47.903492264497629 21.466705419839933 4.9048601920349384 -0.83867057594974714 0 -0.54463902268945019 0.2723195113447251 0 -0.41933528797487357 1 I I -0.70710678118654746 0.70710678118654746 0.5 forward I I I I #
loop $-1 $-1 $170 $43 #
coedge $-1 $108 $108 $171 $172 reversed $67 $-1 #
face $-1 $-1 $173 $35 $-1 $174 forward single #
loop $-1 $175 $176 $69 #
cone-surface $-1 47.903492264497629 25.687926562837575 4.9048601920349384 -0.83867057594974714 0 -0.54463902268945019 0.2723195113447251 0 -0.41933528797487357 1 I I -0.70710678118654746 0.70710678118654746 0.5 forward I I I I #
loop $-1 $-1 $177 $44 #
coedge $-1 $113 $113 $178 $179 reversed $70 $-1 #
face $-1 $180 $181 $27 $-1 $182 reversed single #
loop $-1 $-1 $183 $72 #
plane-surface $-1 0 -28.50207399150267 0 0 1 0 0 0 1 forward_v I I I I #
coedge $-1 $184 $185 $186 $187 forward $73 $-1 #
coedge $-1 $188 $75 $189 $190 forward $46 $-1 #
coedge $-1 $75 $188 $191 $192 forward $46 $-1 #
coedge $-1 $193 $194 $75 $121 reversed $195 $-1 #
edge $-1 $196 -28.50207399150267 $197 28.50207399150267 $120 $198 forward 7 unknown #
face $-1 $199 $200 $28 $-1 $201 reversed single #
loop $-1 $-1 $128 $76 #
plane-surface $-1 0 0 8.817750311797262 0 0 1 1 0 0 forward_v I I I I #
coedge $-1 $202 $203 $204 $205 reversed $77 $-1 #
coedge $-1 $127 $79 $206 $207 reversed $49 $-1 #
coedge $-1 $79 $126 $202 $208 reversed $49 $-1 #
coedge $-1 $204 $209 $79 $129 forward $123 $-1 #
edge $-1 $210 17.410729044430937 $211 21.086056063854649 $128 $212 forward 7 unknown #
loop $-1 $-1 $135 $80 #
plane-surface $-1 -51.409039582506821 21.466705419839933 3.158242821932113 -0.83867057594974714 0 0.54463902268945019 0.54463902268945019 0 0.83867057594974714 forward_v I I I I #
loop $-1 $-1 $213 $51 #
coedge $-1 $133 $133 $134 $214 reversed $81 $-1 #
coedge $-1 $134 $134 $133 $214 forward $83 $-1 #
coedge $-1 $135 $135 $84 $136 forward $130 $-1 #
edge $-1 $215 0 $215 6.2831853071796004 $135 $216 forward 7 unknown #
loop $-1 $-1 $142 $85 #
plane-surface $-1 -51.409039582506821 21.466705419839933 3.158242821932113 -0.83867057594974714 0 0.54463902268945019 0.54463902268945019 0 0.83867057594974714 forward_v I I I I #
loop $-1 $-1 $217 $54 #
coedge $-1 $140 $140 $141 $218 reversed $86 $-1 #
coedge $-1 $141 $141 $140 $218 forward $88 $-1 #
coedge $-1 $142 $142 $89 $143 forward $137 $-1 #
edge $-1 $219 0 $219 6.2831853071796004 $142 $220 forward 7 unknown #
loop $-1 $-1 $149 $90 #
plane-surface $-1 -51.409039582506821 21.466705419839933 3.158242821932113 -0.83867057594974714 0 0.54463902268945019 0.54463902268945019 0 0.83867057594974714 forward_v I I I I #
loop $-1 $-1 $221 $57 #
coedge $-1 $147 $147 $148 $222 reversed $91 $-1 #
coedge $-1 $148 $148 $147 $222 forward $93 $-1 #
coedge $-1 $149 $149 $94 $150 forward $144 $-1 #
edge $-1 $223 0 $223 6.2831853071796004 $149 $224 forward 7 unknown #
face $-1 $225 $226 $32 $-1 $227 forward single #
loop $-1 $-1 $157 $95 #
plane-surface $-1 51.409039582506793 0 0 -1 0 0 0 0 1 forward_v I I I I #
coedge $-1 $228 $229 $230 $231 reversed $96 $-1 #
coedge $-1 $156 $98 $232 $233 reversed $61 $-1 #
coedge $-1 $98 $155 $228 $234 reversed $61 $-1 #
coedge $-1 $230 $235 $98 $158 forward $152 $-1 #
edge $-1 $236 63.875989010472885 $237 69.53549650033797 $157 $238 forward 7 unknown #
loop $-1 $-1 $164 $99 #
plane-surface $-1 -4.5896985687327003 21.466705419839933 89.388740493300773 0.83867057594974714 0 0.54463902268945019 0.54463902268945019 0 -0.83867057594974714 forward_v I I I I #
loop $-1 $-1 $239 $63 #
coedge $-1 $162 $162 $163 $240 reversed $100 $-1 #
coedge $-1 $163 $163 $162 $240 forward $102 $-1 #
coedge $-1 $164 $164 $103 $165 forward $159 $-1 #
edge $-1 $241 0 $241 6.2831853071796004 $164 $242 forward 7 unknown #
loop $-1 $-1 $171 $104 #
plane-surface $-1 -4.5896985687327003 21.466705419839933 89.388740493300773 0.83867057594974714 0 0.54463902268945019 0.54463902268945019 0 -0.83867057594974714 forward_v I I I I #
loop $-1 $-1 $243 $66 #
coedge $-1 $169 $169 $170 $244 reversed $105 $-1 #
coedge $-1 $170 $170 $169 $244 forward $107 $-1 #
coedge $-1 $171 $171 $108 $172 forward $166 $-1 #
edge $-1 $245 0 $245 6.2831853071796004 $171 $246 forward 7 unknown #
loop $-1 $-1 $178 $109 #
plane-surface $-1 -4.5896985687327003 21.466705419839933 89.388740493300773 0.83867057594974714 0 0.54463902268945019 0.54463902268945019 0 -0.83867057594974714 forward_v I I I I #
loop $-1 $-1 $247 $69 #
coedge $-1 $176 $176 $177 $248 reversed $110 $-1 #
coedge $-1 $177 $177 $176 $248 forward $112 $-1 #
coedge $-1 $178 $178 $113 $179 forward $173 $-1 #
edge $-1 $249 0 $249 6.2831853071796004 $178 $250 forward 7 unknown #
face $-1 $251 $252 $27 $-1 $253 reversed single #
loop $-1 $-1 $254 $114 #
plane-surface $-1 -51.409039582506793 0 0 1 0 0 0 0 -1 forward_v I I I I #
coedge $-1 $255 $191 $256 $257 forward $115 $-1 #
coedge $-1 $258 $117 $255 $259 forward $73 $-1 #
coedge $-1 $117 $258 $260 $261 forward $73 $-1 #
coedge $-1 $194 $193 $117 $187 reversed $195 $-1 #
edge $-1 $262 -28.50207399150267 $263 28.50207399150267 $186 $264 forward 7 unknown #
coedge $-1 $119 $118 $265 $266 forward $46 $-1 #
coedge $-1 $267 $268 $118 $190 reversed $252 $-1 #
edge $-1 $197 -51.409039582506793 $269 51.409039582506793 $189 $270 forward 7 unknown #
coedge $-1 $183 $271 $119 $192 reversed $115 $-1 #
edge $-1 $272 -51.409039582506793 $196 51.409039582506793 $191 $273 forward 7 unknown #
coedge $-1 $186 $120 $271 $274 forward $195 $-1 #
coedge $-1 $120 $186 $267 $275 reversed $195 $-1 #
loop $-1 $-1 $193 $251 #
vertex $-1 $121 $276 #
vertex $-1 $121 $277 #
straight-curve $-1 51.409039582506793 0 8.817750311797262 0 1 0 I I #
face $-1 $-1 $278 $28 $-1 $279 reversed single #
loop $-1 $-1 $280 $122 #
plane-surface $-1 0 28.50207399150267 0 0 -1 0 0 0 -1 forward_v I I I I #
coedge $-1 $281 $125 $127 $208 forward $77 $-1 #
coedge $-1 $125 $281 $280 $282 reversed $77 $-1 #
coedge $-1 $283 $128 $125 $205 forward $123 $-1 #
edge $-1 $211 3.6979841382572296 $284 17.768721281582703 $204 $285 forward 7 unknown #
coedge $-1 $286 $287 $126 $207 forward $278 $-1 #
edge $-1 $288 -26.420247664653662 $210 -20.760740174788555 $206 $289 forward 7 unknown #
edge $-1 $211 -6.7481889220401889 $288 -5.235158283374276e-014 $127 $290 forward 7 unknown #
coedge $-1 $128 $283 $286 $291 forward $123 $-1 #
vertex $-1 $207 $292 #
vertex $-1 $129 $293 #
straight-curve $-1 -68.81976862693773 14.431336848177196 8.817750311797262 1 0 0 I I #
coedge $-1 $213 $213 $-1 $294 reversed $132 $-1 #
edge $-1 $295 0 $295 6.2831853071796004 $133 $296 forward 7 unknown #
vertex $-1 $136 $297 #
ellipse-curve $-1 -49.571376072794941 17.245484276842291 5.9879965668647026 -0.83867057594974714 0 0.54463902268945019 0.54463902268945019 0 0.83867057594974714 1 I I #
coedge $-1 $217 $217 $-1 $298 reversed $139 $-1 #
edge $-1 $299 0 $299 6.2831853071796004 $140 $300 forward 7 unknown #
vertex $-1 $143 $301 #
ellipse-curve $-1 -49.571376072794941 21.466705419839933 5.9879965668647026 -0.83867057594974714 0 0.54463902268945019 0.54463902268945019 0 0.83867057594974714 1 I I #
coedge $-1 $221 $221 $-1 $302 reversed $146 $-1 #
edge $-1 $303 0 $303 6.2831853071796004 $147 $304 forward 7 unknown #
vertex $-1 $150 $305 #
ellipse-curve $-1 -49.571376072794941 25.687926562837575 5.9879965668647026 -0.83867057594974714 0 0.54463902268945019 0.54463902268945019 0 0.83867057594974714 1 I I #
face $-1 $-1 $306 $32 $-1 $307 reversed single #
loop $-1 $-1 $232 $151 #
plane-surface $-1 0 0 8.817750311797262 0 0 1 1 0 0 forward_v I I I I #
coedge $-1 $308 $154 $156 $234 forward $96 $-1 #
coedge $-1 $154 $308 $309 $310 reversed $96 $-1 #
coedge $-1 $311 $157 $154 $231 forward $152 $-1 #
edge $-1 $237 3.6979841382572296 $312 17.768721281582703 $230 $313 forward 7 unknown #
coedge $-1 $314 $315 $155 $233 forward $226 $-1 #
edge $-1 $316 6.9133130117651191 $236 10.588640031188824 $232 $317 forward 7 unknown #
edge $-1 $237 -102.81807916501353 $316 -96.069890242973415 $156 $318 forward 7 unknown #
coedge $-1 $157 $311 $314 $319 reversed $152 $-1 #
vertex $-1 $319 $320 #
vertex $-1 $158 $321 #
straight-curve $-1 51.409039582506793 14.431336848177196 72.693739322270147 0 0 -1 I I #
coedge $-1 $239 $239 $-1 $322 reversed $161 $-1 #
edge $-1 $323 0 $323 6.2831853071796004 $162 $324 forward 7 unknown #
vertex $-1 $165 $325 #
ellipse-curve $-1 49.571376072794941 17.245484276842291 5.9879965668647115 0.83867057594974714 0 0.54463902268945019 0.54463902268945019 0 -0.83867057594974714 1 I I #
coedge $-1 $243 $243 $-1 $326 reversed $168 $-1 #
edge $-1 $327 0 $327 6.2831853071796004 $169 $328 forward 7 unknown #
vertex $-1 $172 $329 #
ellipse-curve $-1 49.571376072794941 21.466705419839933 5.9879965668647115 0.83867057594974714 0 0.54463902268945019 0.54463902268945019 0 -0.83867057594974714 1 I I #
coedge $-1 $247 $247 $-1 $330 reversed $175 $-1 #
edge $-1 $331 0 $331 6.2831853071796004 $176 $332 forward 7 unknown #
vertex $-1 $179 $333 #
ellipse-curve $-1 49.571376072794941 25.687926562837575 5.9879965668647115 0.83867057594974714 0 0.54463902268945019 0.54463902268945019 0 -0.83867057594974714 1 I I #
face $-1 $-1 $195 $27 $-1 $334 reversed single #
loop $-1 $-1 $267 $180 #
plane-surface $-1 0 28.50207399150267 0 0 -1 0 0 0 -1 forward_v I I I I #
coedge $-1 $335 $265 $268 $336 forward $181 $-1 #
coedge $-1 $271 $183 $184 $259 reversed $115 $-1 #
coedge $-1 $265 $335 $183 $257 reversed $181 $-1 #
edge $-1 $272 -8.817750311797262 $337 8.817750311797262 $256 $338 forward 7 unknown #
coedge $-1 $185 $184 $335 $339 forward $73 $-1 #
edge $-1 $263 -51.409039582506793 $337 51.409039582506793 $255 $340 forward 7 unknown #
coedge $-1 $268 $267 $185 $261 reversed $252 $-1 #
edge $-1 $341 -51.409039582506793 $262 51.409039582506793 $260 $342 forward 7 unknown #
vertex $-1 $187 $343 #
vertex $-1 $274 $344 #
straight-curve $-1 51.409039582506793 0 -8.817750311797262 0 -1 0 I I #
coedge $-1 $254 $256 $188 $266 reversed $181 $-1 #
edge $-1 $269 -28.50207399150267 $272 28.50207399150267 $265 $345 forward 7 unknown #
coedge $-1 $260 $189 $194 $275 forward $252 $-1 #
coedge $-1 $189 $260 $254 $336 reversed $252 $-1 #
vertex $-1 $190 $346 #
straight-curve $-1 0 28.50207399150267 8.817750311797262 -1 0 0 I I #
coedge $-1 $191 $255 $193 $274 reversed $115 $-1 #
vertex $-1 $266 $347 #
straight-curve $-1 0 -28.50207399150267 8.817750311797262 1 0 0 I I #
edge $-1 $196 -8.817750311797262 $263 8.817750311797262 $193 $348 forward 7 unknown #
edge $-1 $197 -8.817750311797262 $262 8.817750311797262 $194 $349 forward 7 unknown #
point $-1 51.409039582506793 -28.50207399150267 8.817750311797262 #
point $-1 51.409039582506793 28.50207399150267 8.817750311797262 #
loop $-1 $-1 $206 $199 #
plane-surface $-1 -51.409039582506793 0 0 1 0 0 0 0 -1 forward_v I I I I #
coedge $-1 $350 $351 $203 $282 forward $200 $-1 #
coedge $-1 $203 $202 $287 $352 reversed $77 $-1 #
edge $-1 $284 5.9271329525402194 $353 12.675321874580355 $280 $354 forward 7 unknown #
coedge $-1 $209 $204 $351 $355 forward $123 $-1 #
vertex $-1 $355 $356 #
straight-curve $-1 -47.733712563083074 10.733352709919966 8.817750311797262 0 1 0 I I #
coedge $-1 $357 $206 $209 $291 reversed $278 $-1 #
coedge $-1 $206 $357 $281 $352 forward $278 $-1 #
vertex $-1 $207 $358 #
straight-curve $-1 -51.409039582506793 14.431336848177196 29.578490486585817 0 0 1 I I #
straight-curve $-1 -51.409039582506821 14.431336848177196 3.158242821932113 -0.54463902268945019 0 -0.83867057594974714 I I #
edge $-1 $359 -28.50207399150267 $210 -14.431336848177196 $286 $360 forward 7 unknown #
point $-1 -51.409039582506793 14.431336848177196 8.817750311797262 #
point $-1 -47.733712563083081 14.431336848177196 8.817750311797262 #
edge $-1 $361 1 $361 0 $213 $-1 forward 7 unknown #
vertex $-1 $214 $362 #
ellipse-curve $-1 -48.322827552472503 17.245484276842291 5.1771797033796565 -0.83867057594974714 0 0.54463902268945019 0.54463902268945019 0 0.83867057594974714 1 I I #
point $-1 -49.026737050105467 17.245484276842291 6.8266671428144363 #
edge $-1 $363 1 $363 0 $217 $-1 forward 7 unknown #
vertex $-1 $218 $364 #
ellipse-curve $-1 -48.322827552472503 21.466705419839933 5.1771797033796565 -0.83867057594974714 0 0.54463902268945019 0.54463902268945019 0 0.83867057594974714 1 I I #
point $-1 -49.026737050105467 21.466705419839933 6.8266671428144363 #
edge $-1 $365 1 $365 0 $221 $-1 forward 7 unknown #
vertex $-1 $222 $366 #
ellipse-curve $-1 -48.322827552472503 25.687926562837575 5.1771797033796565 -0.83867057594974714 0 0.54463902268945019 0.54463902268945019 0 0.83867057594974714 1 I I #
point $-1 -49.026737050105467 25.687926562837575 6.8266671428144363 #
loop $-1 $-1 $309 $225 #
plane-surface $-1 0 28.50207399150267 0 0 -1 0 0 0 -1 forward_v I I I I #
coedge $-1 $229 $228 $315 $367 reversed $96 $-1 #
coedge $-1 $368 $369 $229 $310 forward $306 $-1 #
edge $-1 $312 -64.084361457087141 $370 -57.336172535047019 $309 $371 forward 7 unknown #
coedge $-1 $235 $230 $369 $372 reversed $152 $-1 #
vertex $-1 $231 $373 #
straight-curve $-1 51.409039582506793 10.733352709919966 3.158242821932177 0 1 0 I I #
coedge $-1 $374 $232 $235 $319 forward $226 $-1 #
coedge $-1 $232 $374 $308 $367 forward $226 $-1 #
vertex $-1 $233 $375 #
straight-curve $-1 40.820399551317969 14.431336848177196 8.8177503117972691 1 0 0 I I #
straight-curve $-1 -4.5896985687327003 14.431336848177196 89.388740493300773 -0.54463902268945019 0 0.83867057594974714 I I #
edge $-1 $236 14.431336848177196 $376 28.50207399150267 $235 $377 forward 7 unknown #
point $-1 51.409039582506793 14.431336848177196 8.817750311797262 #
point $-1 51.409039582506786 14.431336848177196 3.158242821932177 #
edge $-1 $378 1 $378 0 $239 $-1 forward 7 unknown #
vertex $-1 $240 $379 #
ellipse-curve $-1 48.322827552472503 17.245484276842291 5.1771797033796636 0.83867057594974714 0 0.54463902268945019 0.54463902268945019 0 -0.83867057594974714 1 I I #
point $-1 50.116015095484371 17.245484276842291 5.1493259909149494 #
edge $-1 $380 1 $380 0 $243 $-1 forward 7 unknown #
vertex $-1 $244 $381 #
ellipse-curve $-1 48.322827552472503 21.466705419839933 5.1771797033796636 0.83867057594974714 0 0.54463902268945019 0.54463902268945019 0 -0.83867057594974714 1 I I #
point $-1 50.116015095484371 21.466705419839933 5.1493259909149494 #
edge $-1 $382 1 $382 0 $247 $-1 forward 7 unknown #
vertex $-1 $248 $383 #
ellipse-curve $-1 48.322827552472503 25.687926562837575 5.1771797033796636 0.83867057594974714 0 0.54463902268945019 0.54463902268945019 0 -0.83867057594974714 1 I I #
point $-1 50.116015095484371 25.687926562837575 5.1493259909149494 #
plane-surface $-1 51.409039582506793 0 0 -1 0 0 0 0 1 forward_v I I I I #
coedge $-1 $256 $254 $258 $339 reversed $181 $-1 #
edge $-1 $269 -8.817750311797262 $341 8.817750311797262 $268 $384 forward 7 unknown #
vertex $-1 $339 $385 #
straight-curve $-1 -51.409039582506793 -28.50207399150267 0 0 0 -1 I I #
edge $-1 $337 -28.50207399150267 $341 28.50207399150267 $335 $386 forward 7 unknown #
straight-curve $-1 0 -28.50207399150267 -8.817750311797262 -1 0 0 I I #
vertex $-1 $261 $387 #
straight-curve $-1 0 28.50207399150267 -8.817750311797262 1 0 0 I I #
point $-1 51.409039582506793 28.50207399150267 -8.817750311797262 #
point $-1 51.409039582506793 -28.50207399150267 -8.817750311797262 #
straight-curve $-1 -51.409039582506793 0 8.817750311797262 0 -1 0 I I #
point $-1 -51.409039582506793 28.50207399150267 8.817750311797262 #
point $-1 -51.409039582506793 -28.50207399150267 8.817750311797262 #
straight-curve $-1 51.409039582506793 -28.50207399150267 0 0 0 -1 I I #
straight-curve $-1 51.409039582506793 28.50207399150267 0 0 0 -1 I I #
coedge $-1 $351 $280 $357 $388 reversed $200 $-1 #
coedge $-1 $280 $350 $283 $355 reversed $200 $-1 #
edge $-1 $353 -17.768721281582703 $288 -3.6979841382572296 $287 $389 forward 7 unknown #
vertex $-1 $282 $390 #
straight-curve $-1 -44.50556466446114 28.50207399150267 13.788662318834893 -0.54463902268945019 0 -0.83867057594974714 I I #
edge $-1 $284 47.733712563083081 $359 51.409039582506793 $351 $391 forward 7 unknown #
point $-1 -47.733712563083081 28.50207399150267 8.817750311797262 #
coedge $-1 $287 $286 $350 $388 forward $278 $-1 #
point $-1 -51.409039582506793 14.431336848177196 3.158242821932157 #
vertex $-1 $355 $392 #
straight-curve $-1 -51.409039582506793 0 8.817750311797262 0 -1 0 I I #
vertex $-1 $294 $393 #
point $-1 -47.778188529783051 17.245484276842291 6.0158502793294035 #
vertex $-1 $298 $394 #
point $-1 -47.778188529783051 21.466705419839933 6.0158502793294035 #
vertex $-1 $302 $395 #
point $-1 -47.778188529783051 25.687926562837575 6.0158502793294035 #
edge $-1 $370 -17.768721281582703 $316 -3.6979841382572296 $315 $396 forward 7 unknown #
coedge $-1 $369 $309 $374 $397 reversed $306 $-1 #
coedge $-1 $309 $368 $311 $372 forward $306 $-1 #
vertex $-1 $310 $398 #
straight-curve $-1 16.506195588841383 28.50207399150267 56.903911154519221 -0.54463902268945019 0 0.83867057594974714 I I #
edge $-1 $376 -8.817750311797262 $312 -3.1582428219321743 $311 $399 forward 7 unknown #
point $-1 51.409039582506793 28.50207399150267 3.1582428219321743 #
coedge $-1 $315 $314 $368 $397 forward $226 $-1 #
point $-1 47.733712563083088 14.431336848177196 8.8177503117972691 #
vertex $-1 $319 $400 #
straight-curve $-1 51.409039582506793 0 8.817750311797262 0 1 0 I I #
vertex $-1 $322 $401 #
point $-1 48.867466575161956 17.245484276842291 4.3385091274299166 #
vertex $-1 $326 $402 #
point $-1 48.867466575161956 21.466705419839933 4.3385091274299166 #
vertex $-1 $330 $403 #
point $-1 48.867466575161956 25.687926562837575 4.3385091274299166 #
straight-curve $-1 -51.409039582506793 28.50207399150267 0 0 0 -1 I I #
point $-1 -51.409039582506793 -28.50207399150267 -8.817750311797262 #
straight-curve $-1 -51.409039582506793 0 -8.817750311797262 0 1 0 I I #
point $-1 -51.409039582506793 28.50207399150267 -8.817750311797262 #
edge $-1 $359 -8.817750311797262 $353 -3.158242821932157 $350 $404 forward 7 unknown #
straight-curve $-1 -51.409039582506793 10.733352709919966 3.1582428219321574 0 -1 0 I I #
point $-1 -51.409039582506793 28.50207399150267 3.158242821932157 #
straight-curve $-1 0 28.50207399150267 8.817750311797262 -1 0 0 I I #
point $-1 -51.409039582506793 28.50207399150267 8.817750311797262 #
point $-1 -47.484156976522755 17.245484276842291 4.6325406806902061 #
point $-1 -47.484156976522755 21.466705419839933 4.6325406806902061 #
point $-1 -47.484156976522755 25.687926562837575 4.6325406806902061 #
straight-curve $-1 47.733712563083088 10.733352709919966 8.8177503117972691 0 -1 0 I I #
edge $-1 $376 -51.409039582506793 $370 -47.733712563083088 $368 $405 forward 7 unknown #
point $-1 47.733712563083088 28.50207399150267 8.8177503117972691 #
straight-curve $-1 51.409039582506793 28.50207399150267 0 0 0 -1 I I #
point $-1 51.409039582506793 28.50207399150267 8.817750311797262 #
point $-1 47.484156976522755 17.245484276842291 4.6325406806902132 #
point $-1 47.484156976522755 21.466705419839933 4.6325406806902132 #
point $-1 47.484156976522755 25.687926562837575 4.6325406806902132 #
straight-curve $-1 -51.409039582506793 28.50207399150267 0 0 0 -1 I I #
straight-curve $-1 0 28.50207399150267 8.817750311797262 -1 0 0 I I #
End-of-ACIS-data 