500 0 7 0           
7 Unknown 11 ACIS 5.0 NT 24 Fri Mar 26 02:56:19 1999 
-1 9.9999999999999995e-007 1e-010 
body $-1 $7 $-1 $8 #
body $-1 $9 $-1 $10 #
body $-1 $11 $-1 $12 #
body $-1 $13 $-1 $14 #
body $-1 $15 $-1 $16 #
body $-1 $17 $-1 $18 #
body $-1 $19 $-1 $20 #
lump $-1 $-1 $21 $0 #
transform $-1 1 0 0 0 1 0 0 0 1 45.030671102023376 29.761855791527122 12.430731595118901 1 rotate no_reflect no_shear #
lump $-1 $-1 $22 $1 #
transform $-1 1 0 0 0 1 0 0 0 1 45.030671102023376 29.761855791527122 12.430731595118901 1 rotate no_reflect no_shear #
lump $-1 $-1 $23 $2 #
transform $-1 1 0 0 0 1 0 0 0 1 45.030671102023376 29.761855791527122 12.430731595118901 1 rotate no_reflect no_shear #
lump $-1 $-1 $24 $3 #
transform $-1 1 0 0 0 1 0 0 0 1 45.030671102023376 29.761855791527122 12.430731595118901 1 rotate no_reflect no_shear #
lump $-1 $-1 $25 $4 #
transform $-1 1 0 0 0 1 0 0 0 1 45.030671102023376 29.761855791527122 12.430731595118901 1 rotate no_reflect no_shear #
lump $-1 $-1 $26 $5 #
transform $-1 1 0 0 0 1 0 0 0 1 45.030671102023376 29.761855791527122 12.430731595118901 1 rotate no_reflect no_shear #
lump $-1 $-1 $27 $6 #
transform $-1 1 0 0 0 1 0 0 0 1 45.030671102023376 29.761855791527122 12.430731595118901 1 rotate no_reflect no_shear #
shell $-1 $-1 $-1 $28 $-1 $7 #
shell $-1 $-1 $-1 $29 $-1 $9 #
shell $-1 $-1 $-1 $30 $-1 $11 #
shell $-1 $-1 $-1 $31 $-1 $13 #
shell $-1 $-1 $-1 $32 $-1 $15 #
shell $-1 $-1 $-1 $33 $-1 $17 #
shell $-1 $-1 $-1 $34 $-1 $19 #
face $-1 $35 $36 $21 $-1 $37 forward single #
face $-1 $38 $39 $22 $-1 $40 forward single #
face $-1 $41 $42 $23 $-1 $43 forward single #
face $-1 $44 $45 $24 $-1 $46 reversed single #
face $-1 $47 $48 $25 $-1 $49 forward single #
face $-1 $50 $51 $26 $-1 $52 forward single #
face $-1 $53 $54 $27 $-1 $55 forward single #
face $-1 $56 $57 $21 $-1 $58 reversed single #
loop $-1 $-1 $59 $28 #
plane-surface $-1 0 0 12.430731595118901 0 0 1 1 0 0 forward_v I I I I #
face $-1 $60 $61 $22 $-1 $62 reversed single #
loop $-1 $-1 $63 $29 #
plane-surface $-1 -45.030671102023376 0 0 1 0 0 0 0 -1 forward_v I I I I #
face $-1 $64 $65 $23 $-1 $66 reversed single #
loop $-1 $-1 $67 $30 #
plane-surface $-1 45.030671102023376 0 0 -1 0 0 0 0 1 forward_v I I I I #
face $-1 $68 $69 $24 $-1 $70 reversed single #
loop $-1 $-1 $71 $31 #
plane-surface $-1 -33.98930432319635 47.650657859665017 110.93292690441373 1 0 0 0 -0.68199836817093118 -0.7313536940579346 forward_v I I I I #
face $-1 $72 $73 $25 $-1 $74 forward single #
loop $-1 $75 $76 $32 #
cone-surface $-1 -30.396460485615986 25.081250730352934 8.0082642677882738 0 -0.68199836817093118 -0.7313536940579346 1 0 0 1 I I 0 1 1 forward I I I I #
face $-1 $77 $78 $26 $-1 $79 forward single #
loop $-1 $80 $81 $33 #
cone-surface $-1 -25.007194729245441 25.081250730352934 8.0082642677882738 0 -0.68199836817093118 -0.7313536940579346 1 0 0 1 I I 0 1 1 forward I I I I #
face $-1 $82 $83 $27 $-1 $84 forward single #
loop $-1 $85 $86 $34 #
cone-surface $-1 -19.617928972874896 25.081250730352934 8.0082642677882738 0 -0.68199836817093118 -0.7313536940579346 1 0 0 1 I I 0 1 1 forward I I I I #
face $-1 $87 $88 $21 $-1 $89 reversed single #
loop $-1 $-1 $90 $35 #
plane-surface $-1 0 0 -12.430731595118901 0 0 1 1 0 0 forward_v I I I I #
coedge $-1 $91 $92 $93 $94 forward $36 $-1 #
face $-1 $95 $96 $22 $-1 $97 forward single #
loop $-1 $-1 $98 $38 #
plane-surface $-1 0 29.761855791527122 0 0 -1 0 0 0 -1 forward_v I I I I #
coedge $-1 $99 $100 $101 $102 forward $39 $-1 #
face $-1 $103 $104 $23 $-1 $105 forward single #
loop $-1 $-1 $106 $41 #
plane-surface $-1 0 29.761855791527122 0 0 -1 0 0 0 -1 forward_v I I I I #
coedge $-1 $107 $108 $109 $110 forward $42 $-1 #
face $-1 $111 $112 $24 $-1 $113 reversed single #
loop $-1 $-1 $114 $44 #
plane-surface $-1 -25.007194729245441 -13.771030558778683 45.06623159166837 0 0.68199836817093118 0.7313536940579346 1 0 0 forward_v I I I I #
coedge $-1 $115 $116 $117 $118 reversed $45 $-1 #
face $-1 $-1 $119 $25 $-1 $120 forward single #
loop $-1 $121 $122 $47 #
cone-surface $-1 -30.396460485615986 24.327445533049346 7.1999071787140156 0 -0.68199836817093118 -0.7313536940579346 0.5 0 0 1 I I -0.70710678118654691 0.70710678118654813 0.5 forward I I I I #
loop $-1 $-1 $123 $32 #
coedge $-1 $76 $76 $124 $125 reversed $48 $-1 #
face $-1 $-1 $126 $26 $-1 $127 forward single #
loop $-1 $128 $129 $50 #
cone-surface $-1 -25.007194729245441 24.327445533049346 7.1999071787140156 0 -0.68199836817093118 -0.7313536940579346 0.5 0 0 1 I I -0.70710678118654691 0.70710678118654813 0.5 forward I I I I #
loop $-1 $-1 $130 $33 #
coedge $-1 $81 $81 $131 $132 reversed $51 $-1 #
face $-1 $-1 $133 $27 $-1 $134 forward single #
loop $-1 $135 $136 $53 #
cone-surface $-1 -19.617928972874896 24.327445533049346 7.1999071787140156 0 -0.68199836817093118 -0.7313536940579346 0.5 0 0 1 I I -0.70710678118654691 0.70710678118654813 0.5 forward I I I I #
loop $-1 $-1 $137 $34 #
coedge $-1 $86 $86 $138 $139 reversed $54 $-1 #
face $-1 $140 $141 $21 $-1 $142 reversed single #
loop $-1 $-1 $143 $56 #
plane-surface $-1 0 -29.761855791527122 0 0 1 0 0 0 1 forward_v I I I I #
coedge $-1 $144 $145 $146 $147 forward $57 $-1 #
coedge $-1 $148 $59 $149 $150 forward $36 $-1 #
coedge $-1 $59 $148 $151 $152 forward $36 $-1 #
coedge $-1 $153 $154 $59 $94 reversed $155 $-1 #
edge $-1 $156 -29.761855791527122 $157 29.761855791527122 $93 $158 forward 7 unknown #
face $-1 $159 $160 $22 $-1 $161 reversed single #
loop $-1 $-1 $101 $60 #
plane-surface $-1 -50.551354491436889 0 -6.5823278835593433 0 0 1 1 0 0 forward_v I I I I #
coedge $-1 $162 $163 $100 $164 forward $61 $-1 #
coedge $-1 $165 $63 $166 $167 reversed $39 $-1 #
coedge $-1 $63 $165 $98 $164 reversed $39 $-1 #
coedge $-1 $168 $169 $63 $102 reversed $96 $-1 #
edge $-1 $170 -29.761855791527122 $171 29.761855791527122 $101 $172 forward 7 unknown #
face $-1 $173 $174 $23 $-1 $175 reversed single #
loop $-1 $-1 $176 $64 #
plane-surface $-1 50.551354491436882 0 -6.5823278835593433 0 0 1 1 0 0 forward_v I I I I #
coedge $-1 $177 $178 $107 $179 forward $65 $-1 #
coedge $-1 $180 $67 $106 $179 reversed $42 $-1 #
coedge $-1 $67 $180 $181 $182 reversed $42 $-1 #
coedge $-1 $183 $184 $67 $110 reversed $104 $-1 #
edge $-1 $185 -29.761855791527122 $186 29.761855791527122 $109 $187 forward 7 unknown #
face $-1 $188 $189 $24 $-1 $190 reversed single #
loop $-1 $-1 $191 $68 #
plane-surface $-1 -16.025085135294532 47.650657859665017 110.93292690441373 -1 0 0 0 0.68199836817093118 0.7313536940579346 forward_v I I I I #
coedge $-1 $192 $193 $194 $195 reversed $69 $-1 #
coedge $-1 $116 $71 $196 $197 reversed $45 $-1 #
coedge $-1 $71 $115 $192 $198 reversed $45 $-1 #
coedge $-1 $194 $199 $71 $118 forward $200 $-1 #
edge $-1 $201 -5.9365268616946132 $202 2.5990712342175399 $117 $203 forward 7 unknown #
loop $-1 $-1 $124 $72 #
plane-surface $-1 -25.007194729245441 -13.771030558778683 45.06623159166837 0 0.68199836817093118 0.7313536940579346 1 0 0 forward_v I I I I #
loop $-1 $-1 $204 $47 #
coedge $-1 $122 $122 $123 $205 reversed $73 $-1 #
coedge $-1 $123 $123 $122 $205 forward $75 $-1 #
coedge $-1 $124 $124 $76 $125 forward $119 $-1 #
edge $-1 $206 -6.8543644155900283e-016 $206 6.2831853071795996 $124 $207 forward 7 unknown #
loop $-1 $-1 $131 $77 #
plane-surface $-1 -25.007194729245441 -13.771030558778683 45.06623159166837 0 0.68199836817093118 0.7313536940579346 1 0 0 forward_v I I I I #
loop $-1 $-1 $208 $50 #
coedge $-1 $129 $129 $130 $209 reversed $78 $-1 #
coedge $-1 $130 $130 $129 $209 forward $80 $-1 #
coedge $-1 $131 $131 $81 $132 forward $126 $-1 #
edge $-1 $210 -6.8543644155900283e-016 $210 6.2831853071795996 $131 $211 forward 7 unknown #
loop $-1 $-1 $138 $82 #
plane-surface $-1 -25.007194729245441 -13.771030558778683 45.06623159166837 0 0.68199836817093118 0.7313536940579346 1 0 0 forward_v I I I I #
loop $-1 $-1 $212 $53 #
coedge $-1 $136 $136 $137 $213 reversed $83 $-1 #
coedge $-1 $137 $137 $136 $213 forward $85 $-1 #
coedge $-1 $138 $138 $86 $139 forward $133 $-1 #
edge $-1 $214 -6.8543644155900283e-016 $214 6.2831853071795996 $138 $215 forward 7 unknown #
face $-1 $216 $217 $21 $-1 $218 reversed single #
loop $-1 $-1 $219 $87 #
plane-surface $-1 -45.030671102023376 0 0 1 0 0 0 0 -1 forward_v I I I I #
coedge $-1 $220 $151 $221 $222 forward $88 $-1 #
coedge $-1 $223 $90 $220 $224 forward $57 $-1 #
coedge $-1 $90 $223 $225 $226 forward $57 $-1 #
coedge $-1 $154 $153 $90 $147 reversed $155 $-1 #
edge $-1 $227 -29.761855791527122 $228 29.761855791527122 $146 $229 forward 7 unknown #
coedge $-1 $92 $91 $230 $231 forward $36 $-1 #
coedge $-1 $232 $233 $91 $150 reversed $217 $-1 #
edge $-1 $157 -45.030671102023376 $234 45.030671102023376 $149 $235 forward 7 unknown #
coedge $-1 $143 $236 $92 $152 reversed $88 $-1 #
edge $-1 $237 -45.030671102023376 $156 45.030671102023376 $151 $238 forward 7 unknown #
coedge $-1 $146 $93 $236 $239 forward $155 $-1 #
coedge $-1 $93 $146 $232 $240 reversed $155 $-1 #
loop $-1 $-1 $153 $216 #
vertex $-1 $94 $241 #
vertex $-1 $94 $242 #
straight-curve $-1 45.030671102023376 0 12.430731595118901 0 1 0 I I #
face $-1 $243 $244 $22 $-1 $245 reversed single #
loop $-1 $-1 $246 $95 #
plane-surface $-1 -56.072037880850402 0 -9.5065297393391219 1 0 0 0 0 -1 forward_v I I I I #
coedge $-1 $247 $98 $248 $249 reversed $61 $-1 #
coedge $-1 $98 $247 $168 $250 reversed $61 $-1 #
edge $-1 $170 6.5823278835593433 $251 12.430731595118901 $98 $252 forward 7 unknown #
coedge $-1 $100 $99 $253 $254 reversed $39 $-1 #
coedge $-1 $255 $256 $99 $167 forward $257 $-1 #
edge $-1 $258 -12.430731595118901 $171 -6.5823278835593433 $166 $259 forward 7 unknown #
coedge $-1 $260 $101 $163 $250 forward $96 $-1 #
coedge $-1 $101 $260 $255 $261 forward $96 $-1 #
vertex $-1 $164 $262 #
vertex $-1 $261 $263 #
straight-curve $-1 -45.030671102023376 0 -6.5823278835593433 0 -1 0 I I #
face $-1 $264 $265 $23 $-1 $266 reversed single #
loop $-1 $-1 $267 $103 #
plane-surface $-1 56.072037880850395 0 -9.5065297393391219 -1 0 0 0 0 1 forward_v I I I I #
coedge $-1 $184 $183 $268 $269 forward $104 $-1 #
coedge $-1 $270 $106 $184 $271 reversed $65 $-1 #
coedge $-1 $106 $270 $272 $273 reversed $65 $-1 #
edge $-1 $274 -12.430731595118901 $186 -6.5823278835593433 $106 $275 forward 7 unknown #
coedge $-1 $108 $107 $276 $277 reversed $42 $-1 #
coedge $-1 $278 $279 $108 $182 forward $280 $-1 #
edge $-1 $185 6.5823278835593433 $281 12.430731595118901 $181 $282 forward 7 unknown #
coedge $-1 $176 $109 $279 $283 forward $104 $-1 #
coedge $-1 $109 $176 $177 $271 forward $104 $-1 #
vertex $-1 $182 $284 #
vertex $-1 $271 $285 #
straight-curve $-1 45.030671102023376 0 -6.5823278835593433 0 1 0 I I #
face $-1 $-1 $200 $24 $-1 $286 forward single #
loop $-1 $-1 $287 $111 #
plane-surface $-1 0 29.761855791527122 0 0 -1 0 0 0 -1 forward_v I I I I #
coedge $-1 $288 $289 $290 $291 reversed $112 $-1 #
coedge $-1 $292 $114 $116 $198 forward $69 $-1 #
coedge $-1 $114 $292 $288 $293 forward $69 $-1 #
coedge $-1 $290 $117 $114 $195 forward $200 $-1 #
edge $-1 $202 -21.48570695857363 $294 -3.5214877706718113 $194 $295 forward 7 unknown #
coedge $-1 $296 $297 $115 $197 forward $189 $-1 #
edge $-1 $298 -50.995306027658657 $201 -43.035731857087967 $196 $299 forward 7 unknown #
edge $-1 $202 47.852753788950338 $298 59.523711583054265 $116 $300 forward 7 unknown #
coedge $-1 $117 $290 $296 $301 forward $200 $-1 #
loop $-1 $-1 $290 $188 #
vertex $-1 $197 $302 #
vertex $-1 $118 $303 #
straight-curve $-1 -33.98930432319635 23.825328929832509 12.4307315951189 0 -1 0 I I #
coedge $-1 $204 $204 $-1 $304 reversed $121 $-1 #
edge $-1 $305 0 $305 6.2831853071796004 $122 $306 forward 7 unknown #
vertex $-1 $125 $307 #
ellipse-curve $-1 -30.396460485615986 25.494056743571043 8.4509445098335529 0 0.68199836817093118 0.7313536940579346 1 0 0 1 I I #
coedge $-1 $208 $208 $-1 $308 reversed $128 $-1 #
edge $-1 $309 0 $309 6.2831853071796004 $129 $310 forward 7 unknown #
vertex $-1 $132 $311 #
ellipse-curve $-1 -25.007194729245441 25.494056743571043 8.4509445098335529 0 0.68199836817093118 0.7313536940579346 1 0 0 1 I I #
coedge $-1 $212 $212 $-1 $312 reversed $135 $-1 #
edge $-1 $313 0 $313 6.2831853071796004 $136 $314 forward 7 unknown #
vertex $-1 $139 $315 #
ellipse-curve $-1 -19.617928972874896 25.494056743571043 8.4509445098335529 0 0.68199836817093118 0.7313536940579346 1 0 0 1 I I #
face $-1 $-1 $155 $21 $-1 $316 reversed single #
loop $-1 $-1 $232 $140 #
plane-surface $-1 0 29.761855791527122 0 0 -1 0 0 0 -1 forward_v I I I I #
coedge $-1 $317 $230 $233 $318 forward $141 $-1 #
coedge $-1 $236 $143 $144 $224 reversed $88 $-1 #
coedge $-1 $230 $317 $143 $222 reversed $141 $-1 #
edge $-1 $237 -12.430731595118901 $319 12.430731595118901 $221 $320 forward 7 unknown #
coedge $-1 $145 $144 $317 $321 forward $57 $-1 #
edge $-1 $228 -45.030671102023376 $319 45.030671102023376 $220 $322 forward 7 unknown #
coedge $-1 $233 $232 $145 $226 reversed $217 $-1 #
edge $-1 $323 -45.030671102023376 $227 45.030671102023376 $225 $324 forward 7 unknown #
vertex $-1 $147 $325 #
vertex $-1 $239 $326 #
straight-curve $-1 45.030671102023376 0 -12.430731595118901 0 -1 0 I I #
coedge $-1 $219 $221 $148 $231 reversed $141 $-1 #
edge $-1 $234 -29.761855791527122 $237 29.761855791527122 $230 $327 forward 7 unknown #
coedge $-1 $225 $149 $154 $240 forward $217 $-1 #
coedge $-1 $149 $225 $219 $318 reversed $217 $-1 #
vertex $-1 $150 $328 #
straight-curve $-1 0 29.761855791527122 12.430731595118901 -1 0 0 I I #
coedge $-1 $151 $220 $153 $239 reversed $88 $-1 #
vertex $-1 $231 $329 #
straight-curve $-1 0 -29.761855791527122 12.430731595118901 1 0 0 I I #
edge $-1 $156 -12.430731595118901 $228 12.430731595118901 $153 $330 forward 7 unknown #
edge $-1 $157 -12.430731595118901 $227 12.430731595118901 $154 $331 forward 7 unknown #
point $-1 45.030671102023376 -29.761855791527122 12.430731595118901 #
point $-1 45.030671102023376 29.761855791527122 12.430731595118901 #
face $-1 $-1 $257 $22 $-1 $332 reversed single #
loop $-1 $-1 $253 $159 #
plane-surface $-1 0 0 -12.430731595118901 0 0 1 1 0 0 forward_v I I I I #
coedge $-1 $333 $334 $247 $335 forward $160 $-1 #
coedge $-1 $163 $162 $246 $335 reversed $61 $-1 #
coedge $-1 $253 $336 $162 $249 forward $244 $-1 #
edge $-1 $337 -56.072037880850402 $251 -45.030671102023376 $162 $338 forward 7 unknown #
edge $-1 $170 -5.520683389413513 $339 5.520683389413513 $163 $340 forward 7 unknown #
vertex $-1 $164 $341 #
straight-curve $-1 -45.030671102023376 29.761855791527122 0 0 0 -1 I I #
coedge $-1 $342 $248 $165 $254 forward $244 $-1 #
edge $-1 $251 -29.761855791527122 $258 29.761855791527122 $253 $343 forward 7 unknown #
coedge $-1 $344 $166 $169 $261 reversed $257 $-1 #
coedge $-1 $166 $344 $342 $345 reversed $257 $-1 #
loop $-1 $-1 $166 $243 #
vertex $-1 $345 $346 #
straight-curve $-1 -45.030671102023376 -29.761855791527122 0 0 0 1 I I #
coedge $-1 $169 $168 $334 $347 forward $96 $-1 #
edge $-1 $348 -5.520683389413513 $171 5.520683389413513 $255 $349 forward 7 unknown #
point $-1 -45.030671102023376 29.761855791527122 -6.5823278835593433 #
point $-1 -45.030671102023376 -29.761855791527122 -6.5823278835593433 #
face $-1 $-1 $280 $23 $-1 $350 reversed single #
loop $-1 $-1 $276 $173 #
plane-surface $-1 0 0 -12.430731595118901 0 0 1 1 0 0 forward_v I I I I #
coedge $-1 $351 $268 $352 $353 forward $174 $-1 #
coedge $-1 $267 $354 $176 $269 reversed $174 $-1 #
edge $-1 $355 -29.761855791527122 $356 29.761855791527122 $268 $357 forward 7 unknown #
coedge $-1 $178 $177 $354 $358 forward $65 $-1 #
edge $-1 $356 -5.520683389413513 $186 5.520683389413513 $177 $359 forward 7 unknown #
coedge $-1 $360 $276 $178 $273 forward $265 $-1 #
edge $-1 $274 -5.5206833894135059 $361 5.520683389413513 $178 $362 forward 7 unknown #
vertex $-1 $273 $363 #
straight-curve $-1 45.030671102023376 29.761855791527122 0 0 0 1 I I #
coedge $-1 $272 $364 $180 $277 forward $265 $-1 #
edge $-1 $281 -29.761855791527122 $274 29.761855791527122 $276 $365 forward 7 unknown #
coedge $-1 $352 $181 $364 $366 reversed $280 $-1 #
coedge $-1 $181 $352 $183 $283 reversed $280 $-1 #
loop $-1 $-1 $181 $264 #
vertex $-1 $182 $367 #
straight-curve $-1 45.030671102023376 -29.761855791527122 0 0 0 -1 I I #
edge $-1 $185 -5.520683389413513 $355 5.520683389413513 $279 $368 forward 7 unknown #
point $-1 45.030671102023369 -29.761855791527122 -6.5823278835593433 #
point $-1 45.030671102023369 29.761855791527122 -6.5823278835593433 #
plane-surface $-1 0 0 12.430731595118901 0 0 1 1 0 0 forward_v I I I I #
coedge $-1 $297 $296 $289 $369 forward $189 $-1 #
coedge $-1 $289 $191 $193 $293 reversed $112 $-1 #
coedge $-1 $191 $288 $287 $369 reversed $112 $-1 #
coedge $-1 $199 $194 $191 $291 forward $200 $-1 #
edge $-1 $294 -2.5990712342175399 $370 5.9365268616946132 $290 $371 forward 7 unknown #
coedge $-1 $193 $192 $297 $372 reversed $69 $-1 #
edge $-1 $373 -59.523711583054265 $294 -47.852753788950338 $288 $374 forward 7 unknown #
vertex $-1 $195 $375 #
straight-curve $-1 -12.503597364622721 21.226257695614969 12.430731595118903 1 0 0 I I #
coedge $-1 $287 $196 $199 $301 reversed $189 $-1 #
coedge $-1 $196 $287 $292 $372 forward $189 $-1 #
vertex $-1 $197 $376 #
straight-curve $-1 -33.98930432319635 29.761855791527122 55.466463452206867 0 0 1 I I #
straight-curve $-1 -33.98930432319635 -13.771030558778683 45.06623159166837 0 0.7313536940579346 -0.68199836817093118 I I #
edge $-1 $370 16.025085135294532 $201 33.98930432319635 $296 $377 forward 7 unknown #
point $-1 -33.98930432319635 29.761855791527122 12.430731595118901 #
point $-1 -33.98930432319635 21.226257695614969 12.4307315951189 #
edge $-1 $378 1 $378 0 $204 $-1 forward 7 unknown #
vertex $-1 $205 $379 #
ellipse-curve $-1 -30.396460485615986 24.668444717134811 7.5655840257429841 0 0.68199836817093118 0.7313536940579346 1 0 0 1 I I #
point $-1 -29.396460485615986 25.494056743571054 8.4509445098335654 #
edge $-1 $380 1 $380 0 $208 $-1 forward 7 unknown #
vertex $-1 $209 $381 #
ellipse-curve $-1 -25.007194729245441 24.668444717134811 7.5655840257429841 0 0.68199836817093118 0.7313536940579346 1 0 0 1 I I #
point $-1 -24.007194729245441 25.494056743571054 8.4509445098335654 #
edge $-1 $382 1 $382 0 $212 $-1 forward 7 unknown #
vertex $-1 $213 $383 #
ellipse-curve $-1 -19.617928972874896 24.668444717134811 7.5655840257429841 0 0.68199836817093118 0.7313536940579346 1 0 0 1 I I #
point $-1 -18.617928972874896 25.494056743571054 8.4509445098335654 #
plane-surface $-1 45.030671102023376 0 0 -1 0 0 0 0 1 forward_v I I I I #
coedge $-1 $221 $219 $223 $321 reversed $141 $-1 #
edge $-1 $234 -12.430731595118901 $323 12.430731595118901 $233 $384 forward 7 unknown #
vertex $-1 $321 $385 #
straight-curve $-1 -45.030671102023376 -29.761855791527122 0 0 0 -1 I I #
edge $-1 $319 -29.761855791527122 $323 29.761855791527122 $317 $386 forward 7 unknown #
straight-curve $-1 0 -29.761855791527122 -12.430731595118901 -1 0 0 I I #
vertex $-1 $226 $387 #
straight-curve $-1 0 29.761855791527122 -12.430731595118901 1 0 0 I I #
point $-1 45.030671102023376 29.761855791527122 -12.430731595118901 #
point $-1 45.030671102023376 -29.761855791527122 -12.430731595118901 #
straight-curve $-1 -45.030671102023376 0 12.430731595118901 0 -1 0 I I #
point $-1 -45.030671102023376 29.761855791527122 12.430731595118901 #
point $-1 -45.030671102023376 -29.761855791527122 12.430731595118901 #
straight-curve $-1 45.030671102023376 -29.761855791527122 0 0 0 -1 I I #
straight-curve $-1 45.030671102023376 29.761855791527122 0 0 0 -1 I I #
plane-surface $-1 0 -29.761855791527122 0 0 1 0 0 0 1 forward_v I I I I #
coedge $-1 $388 $246 $336 $389 reversed $160 $-1 #
coedge $-1 $246 $388 $260 $347 reversed $160 $-1 #
edge $-1 $339 -2.9242018557797786 $337 2.9242018557797778 $247 $390 forward 7 unknown #
coedge $-1 $248 $342 $333 $389 forward $244 $-1 #
vertex $-1 $249 $391 #
straight-curve $-1 0 29.761855791527122 -12.430731595118901 1 0 0 I I #
vertex $-1 $250 $392 #
straight-curve $-1 -50.551354491436889 29.761855791527122 -6.5823278835593433 -1 0 0 I I #
point $-1 -45.030671102023376 29.761855791527122 -12.430731595118901 #
coedge $-1 $336 $253 $256 $345 forward $244 $-1 #
straight-curve $-1 -45.030671102023376 0 -12.430731595118901 0 -1 0 I I #
coedge $-1 $256 $255 $388 $393 forward $257 $-1 #
edge $-1 $258 -5.520683389413513 $394 5.520683389413513 $256 $395 forward 7 unknown #
point $-1 -45.030671102023376 -29.761855791527122 -12.430731595118901 #
edge $-1 $339 -29.761855791527122 $348 29.761855791527122 $334 $396 forward 7 unknown #
vertex $-1 $347 $397 #
straight-curve $-1 -50.551354491436889 -29.761855791527122 -6.5823278835593433 1 0 0 I I #
plane-surface $-1 0 -29.761855791527122 0 0 1 0 0 0 1 forward_v I I I I #
coedge $-1 $354 $267 $360 $398 reversed $174 $-1 #
coedge $-1 $279 $278 $267 $353 reversed $280 $-1 #
edge $-1 $355 -2.9242018557797786 $399 2.9242018557797778 $267 $400 forward 7 unknown #
coedge $-1 $268 $351 $270 $358 reversed $174 $-1 #
vertex $-1 $269 $401 #
vertex $-1 $269 $402 #
straight-curve $-1 56.072037880850395 0 -6.5823278835593433 0 1 0 I I #
edge $-1 $356 -2.9242018557797786 $361 2.9242018557797778 $354 $403 forward 7 unknown #
straight-curve $-1 50.551354491436882 29.761855791527122 -6.5823278835593433 -1 0 0 I I #
coedge $-1 $364 $272 $351 $398 forward $265 $-1 #
vertex $-1 $398 $404 #
straight-curve $-1 50.551354491436882 29.761855791527122 -12.4307315951189 1 0 0 I I #
point $-1 45.030671102023376 29.761855791527122 -12.430731595118901 #
coedge $-1 $276 $360 $278 $366 forward $265 $-1 #
straight-curve $-1 45.030671102023376 0 -12.430731595118901 0 1 0 I I #
edge $-1 $399 -5.520683389413513 $281 5.5206833894135059 $278 $405 forward 7 unknown #
point $-1 45.030671102023376 -29.761855791527122 -12.430731595118901 #
straight-curve $-1 50.551354491436882 -29.761855791527122 -6.5823278835593433 1 0 0 I I #
edge $-1 $370 43.035731857087967 $373 50.995306027658657 $287 $406 forward 7 unknown #
vertex $-1 $301 $407 #
straight-curve $-1 -16.025085135294532 23.825328929832509 12.4307315951189 0 1 0 I I #
edge $-1 $373 3.5214877706718113 $298 21.48570695857363 $297 $408 forward 7 unknown #
vertex $-1 $372 $409 #
straight-curve $-1 -16.025085135294532 -13.771030558778683 45.06623159166837 0 -0.7313536940579346 0.68199836817093118 I I #
point $-1 -16.025085135294532 21.226257695614969 12.4307315951189 #
point $-1 -33.98930432319635 29.761855791527118 4.4711574245482097 #
straight-curve $-1 0 29.761855791527122 12.430731595118901 -1 0 0 I I #
vertex $-1 $304 $410 #
point $-1 -29.396460485615986 24.668444717134811 7.5655840257429841 #
vertex $-1 $308 $411 #
point $-1 -24.007194729245441 24.668444717134811 7.5655840257429841 #
vertex $-1 $312 $412 #
point $-1 -18.617928972874896 24.668444717134811 7.5655840257429841 #
straight-curve $-1 -45.030671102023376 29.761855791527122 0 0 0 -1 I I #
point $-1 -45.030671102023376 -29.761855791527122 -12.430731595118901 #
straight-curve $-1 -45.030671102023376 0 -12.430731595118901 0 1 0 I I #
point $-1 -45.030671102023376 29.761855791527122 -12.430731595118901 #
coedge $-1 $334 $333 $344 $393 reversed $160 $-1 #
edge $-1 $394 -29.761855791527122 $337 29.761855791527122 $333 $413 forward 7 unknown #
straight-curve $-1 -56.072037880850402 29.761855791527122 -9.5065297393391219 0 0 -1 I I #
point $-1 -56.072037880850402 29.761855791527122 -12.4307315951189 #
point $-1 -56.072037880850402 29.761855791527122 -6.5823278835593433 #
edge $-1 $348 -2.9242018557797786 $394 2.9242018557797778 $388 $414 forward 7 unknown #
vertex $-1 $389 $415 #
straight-curve $-1 -50.551354491436889 -29.761855791527122 -12.4307315951189 -1 0 0 I I #
straight-curve $-1 -56.072037880850402 0 -6.5823278835593433 0 -1 0 I I #
point $-1 -56.072037880850402 -29.761855791527122 -6.5823278835593433 #
edge $-1 $361 -29.761855791527122 $399 29.761855791527122 $351 $416 forward 7 unknown #
vertex $-1 $353 $417 #
straight-curve $-1 56.072037880850395 -29.761855791527122 -9.5065297393391219 0 0 -1 I I #
point $-1 56.072037880850395 -29.761855791527122 -6.5823278835593433 #
point $-1 56.072037880850395 29.761855791527122 -6.5823278835593433 #
straight-curve $-1 56.072037880850395 29.761855791527122 -9.5065297393391219 0 0 -1 I I #
point $-1 56.072037880850395 29.761855791527122 -12.4307315951189 #
straight-curve $-1 50.551354491436882 -29.761855791527122 -12.4307315951189 -1 0 0 I I #
straight-curve $-1 -16.025085135294532 29.761855791527122 55.466463452206867 0 0 -1 I I #
point $-1 -16.025085135294532 29.761855791527122 12.430731595118901 #
straight-curve $-1 -12.503597364622721 29.761855791527125 4.4711574245482097 -1 0 0 I I #
point $-1 -16.025085135294532 29.761855791527118 4.4711574245482097 #
point $-1 -30.396460485615986 23.986446348963881 6.8342303316850472 #
point $-1 -25.007194729245441 23.986446348963881 6.8342303316850472 #
point $-1 -19.617928972874896 23.986446348963881 6.8342303316850472 #
straight-curve $-1 -56.072037880850402 0 -12.4307315951189 0 1 0 I I #
straight-curve $-1 -56.072037880850402 -29.761855791527122 -9.5065297393391219 0 0 -1 I I #
point $-1 -56.072037880850402 -29.761855791527122 -12.4307315951189 #
straight-curve $-1 56.072037880850395 0 -12.4307315951189 0 -1 0 I I #
point $-1 56.072037880850395 -29.761855791527122 -12.4307315951189 #
End-of-ACIS-data 