500 0 6 0           
7 Unknown 11 ACIS 5.0 NT 24 Thu Mar 25 18:13:04 1999 
-1 9.9999999999999995e-007 1e-010 
body $-1 $6 $-1 $7 #
body $-1 $8 $-1 $9 #
body $-1 $10 $-1 $11 #
body $-1 $12 $-1 $13 #
body $-1 $14 $-1 $15 #
body $-1 $16 $-1 $17 #
lump $-1 $-1 $18 $0 #
transform $-1 1 0 0 0 1 0 0 0 1 78.347117526779982 51.504616062169546 22.669292987158283 1 rotate no_reflect no_shear #
lump $-1 $-1 $19 $1 #
transform $-1 1 0 0 0 1 0 0 0 1 78.347117526779982 51.504616062169546 22.669292987158283 1 rotate no_reflect no_shear #
lump $-1 $-1 $20 $2 #
transform $-1 1 0 0 0 1 0 0 0 1 78.347117526779982 51.504616062169546 22.669292987158283 1 rotate no_reflect no_shear #
lump $-1 $-1 $21 $3 #
transform $-1 1 0 0 0 1 0 0 0 1 78.347117526779982 51.504616062169546 22.669292987158283 1 rotate no_reflect no_shear #
lump $-1 $-1 $22 $4 #
transform $-1 1 0 0 0 1 0 0 0 1 78.347117526779982 51.504616062169546 22.669292987158283 1 rotate no_reflect no_shear #
lump $-1 $-1 $23 $5 #
transform $-1 1 0 0 0 1 0 0 0 1 78.347117526779982 51.504616062169546 22.669292987158283 1 rotate no_reflect no_shear #
shell $-1 $-1 $-1 $24 $-1 $6 #
shell $-1 $-1 $-1 $25 $-1 $8 #
shell $-1 $-1 $-1 $26 $-1 $10 #
shell $-1 $-1 $-1 $27 $-1 $12 #
shell $-1 $-1 $-1 $28 $-1 $14 #
shell $-1 $-1 $-1 $29 $-1 $16 #
face $-1 $30 $31 $18 $-1 $32 forward single #
face $-1 $33 $34 $19 $-1 $35 forward single #
face $-1 $36 $37 $20 $-1 $38 reversed single #
face $-1 $39 $40 $21 $-1 $41 forward single #
face $-1 $42 $43 $22 $-1 $44 forward single #
face $-1 $45 $46 $23 $-1 $47 forward single #
face $-1 $48 $49 $18 $-1 $50 reversed single #
loop $-1 $-1 $51 $24 #
plane-surface $-1 0 0 22.669292987158283 0 0 1 1 0 0 forward_v I I I I #
face $-1 $52 $53 $19 $-1 $54 reversed single #
loop $-1 $-1 $55 $25 #
plane-surface $-1 0 -51.504616062169546 0 0 1 0 0 0 1 forward_v I I I I #
face $-1 $56 $57 $20 $-1 $58 reversed single #
loop $-1 $-1 $59 $26 #
plane-surface $-1 -209.76196188715417 8.2374513230436825 96.827504810113808 0 1 0 -0.83867057594974714 0 0.54463902268945019 forward_v I I I I #
face $-1 $60 $61 $21 $-1 $62 forward single #
loop $-1 $63 $64 $27 #
cone-surface $-1 -73.221595006524495 10.774879363834735 16.107175607049705 0.83867057594974714 0 -0.54463902268945019 0.54463902268945019 0 0.83867057594974714 1 I I 0 1 1 forward I I I I #
face $-1 $65 $66 $22 $-1 $67 forward single #
loop $-1 $68 $69 $28 #
cone-surface $-1 -73.221595006524495 14.581021425021319 16.107175607049705 0.83867057594974714 0 -0.54463902268945019 0.54463902268945019 0 0.83867057594974714 1 I I 0 1 1 forward I I I I #
face $-1 $70 $71 $23 $-1 $72 forward single #
loop $-1 $73 $74 $29 #
cone-surface $-1 -73.221595006524495 18.387163486207911 16.107175607049705 0.83867057594974714 0 -0.54463902268945019 0.54463902268945019 0 0.83867057594974714 1 I I 0 1 1 forward I I I I #
face $-1 $75 $76 $18 $-1 $77 reversed single #
loop $-1 $-1 $78 $30 #
plane-surface $-1 0 0 -22.669292987158283 0 0 1 1 0 0 forward_v I I I I #
coedge $-1 $79 $80 $81 $82 forward $31 $-1 #
face $-1 $83 $84 $19 $-1 $85 forward single #
loop $-1 $-1 $86 $33 #
plane-surface $-1 -78.347117526779982 0 0 1 0 0 0 0 -1 forward_v I I I I #
coedge $-1 $87 $88 $89 $90 forward $34 $-1 #
face $-1 $91 $92 $20 $-1 $93 reversed single #
loop $-1 $-1 $94 $36 #
plane-surface $-1 -78.347117526779982 14.581021425021333 11.485709769471924 -0.83867057594974714 0 0.54463902268945019 0.54463902268945019 0 0.83867057594974714 forward_v I I I I #
coedge $-1 $95 $96 $97 $98 reversed $37 $-1 #
face $-1 $-1 $99 $21 $-1 $100 forward single #
loop $-1 $101 $102 $39 #
cone-surface $-1 -71.308089011817046 10.774879363834735 14.864530324439581 0.83867057594974714 0 -0.54463902268945019 0.2723195113447251 0 0.41933528797487357 1 I I -0.70710678118654746 0.70710678118654746 0.5 forward I I I I #
loop $-1 $-1 $103 $27 #
coedge $-1 $64 $64 $104 $105 reversed $40 $-1 #
face $-1 $-1 $106 $22 $-1 $107 forward single #
loop $-1 $108 $109 $42 #
cone-surface $-1 -71.308089011817046 14.581021425021319 14.864530324439581 0.83867057594974714 0 -0.54463902268945019 0.2723195113447251 0 0.41933528797487357 1 I I -0.70710678118654746 0.70710678118654746 0.5 forward I I I I #
loop $-1 $-1 $110 $28 #
coedge $-1 $69 $69 $111 $112 reversed $43 $-1 #
face $-1 $-1 $113 $23 $-1 $114 forward single #
loop $-1 $115 $116 $45 #
cone-surface $-1 -71.308089011817046 18.387163486207911 14.864530324439581 0.83867057594974714 0 -0.54463902268945019 0.2723195113447251 0 0.41933528797487357 1 I I -0.70710678118654746 0.70710678118654746 0.5 forward I I I I #
loop $-1 $-1 $117 $29 #
coedge $-1 $74 $74 $118 $119 reversed $46 $-1 #
face $-1 $120 $121 $18 $-1 $122 reversed single #
loop $-1 $-1 $123 $48 #
plane-surface $-1 0 -51.504616062169546 0 0 1 0 0 0 1 forward_v I I I I #
coedge $-1 $124 $125 $126 $127 forward $49 $-1 #
coedge $-1 $128 $51 $129 $130 forward $31 $-1 #
coedge $-1 $51 $128 $131 $132 forward $31 $-1 #
coedge $-1 $133 $134 $51 $82 reversed $135 $-1 #
edge $-1 $136 -51.504616062169546 $137 51.504616062169546 $81 $138 forward 7 unknown #
face $-1 $139 $140 $19 $-1 $141 reversed single #
loop $-1 $-1 $142 $52 #
plane-surface $-1 0 -63.426697983935469 4.6018786998183216 0 0 1 1 0 0 forward_v I I I I #
coedge $-1 $143 $144 $88 $145 forward $53 $-1 #
coedge $-1 $146 $55 $147 $148 reversed $34 $-1 #
coedge $-1 $55 $146 $86 $145 reversed $34 $-1 #
coedge $-1 $149 $142 $55 $90 reversed $84 $-1 #
edge $-1 $150 -78.347117526779982 $151 78.347117526779982 $89 $152 forward 7 unknown #
face $-1 $153 $154 $20 $-1 $155 forward single #
loop $-1 $-1 $156 $56 #
plane-surface $-1 -209.76196188715417 20.924591526998984 96.827504810113808 0 -1 0 0.83867057594974714 0 -0.54463902268945019 forward_v I I I I #
coedge $-1 $157 $158 $159 $160 reversed $57 $-1 #
coedge $-1 $96 $59 $161 $162 reversed $37 $-1 #
coedge $-1 $59 $95 $157 $163 reversed $37 $-1 #
coedge $-1 $159 $164 $59 $98 forward $154 $-1 #
edge $-1 $165 26.533863416797104 $166 33.796567043842927 $97 $167 forward 7 unknown #
loop $-1 $-1 $104 $60 #
plane-surface $-1 -78.347117526779982 14.581021425021333 11.485709769471924 -0.83867057594974714 0 0.54463902268945019 0.54463902268945019 0 0.83867057594974714 forward_v I I I I #
loop $-1 $-1 $168 $39 #
coedge $-1 $102 $102 $103 $169 reversed $61 $-1 #
coedge $-1 $103 $103 $102 $169 forward $63 $-1 #
coedge $-1 $104 $104 $64 $105 forward $99 $-1 #
edge $-1 $170 0 $170 6.2831853071796004 $104 $171 forward 7 unknown #
loop $-1 $-1 $111 $65 #
plane-surface $-1 -78.347117526779982 14.581021425021333 11.485709769471924 -0.83867057594974714 0 0.54463902268945019 0.54463902268945019 0 0.83867057594974714 forward_v I I I I #
loop $-1 $-1 $172 $42 #
coedge $-1 $109 $109 $110 $173 reversed $66 $-1 #
coedge $-1 $110 $110 $109 $173 forward $68 $-1 #
coedge $-1 $111 $111 $69 $112 forward $106 $-1 #
edge $-1 $174 0 $174 6.2831853071796004 $111 $175 forward 7 unknown #
loop $-1 $-1 $118 $70 #
plane-surface $-1 -78.347117526779982 14.581021425021333 11.485709769471924 -0.83867057594974714 0 0.54463902268945019 0.54463902268945019 0 0.83867057594974714 forward_v I I I I #
loop $-1 $-1 $176 $45 #
coedge $-1 $116 $116 $117 $177 reversed $71 $-1 #
coedge $-1 $117 $117 $116 $177 forward $73 $-1 #
coedge $-1 $118 $118 $74 $119 forward $113 $-1 #
edge $-1 $178 0 $178 6.2831853071796004 $118 $179 forward 7 unknown #
face $-1 $180 $181 $18 $-1 $182 reversed single #
loop $-1 $-1 $183 $75 #
plane-surface $-1 -78.347117526779982 0 0 1 0 0 0 0 -1 forward_v I I I I #
coedge $-1 $184 $131 $185 $186 forward $76 $-1 #
coedge $-1 $187 $78 $184 $188 forward $49 $-1 #
coedge $-1 $78 $187 $189 $190 forward $49 $-1 #
coedge $-1 $134 $133 $78 $127 reversed $135 $-1 #
edge $-1 $191 -51.504616062169546 $192 51.504616062169546 $126 $193 forward 7 unknown #
coedge $-1 $80 $79 $194 $195 forward $31 $-1 #
coedge $-1 $196 $197 $79 $130 reversed $181 $-1 #
edge $-1 $137 -78.347117526779982 $198 78.347117526779982 $129 $199 forward 7 unknown #
coedge $-1 $123 $200 $80 $132 reversed $76 $-1 #
edge $-1 $201 -78.347117526779982 $136 78.347117526779982 $131 $202 forward 7 unknown #
coedge $-1 $126 $81 $200 $203 forward $135 $-1 #
coedge $-1 $81 $126 $196 $204 reversed $135 $-1 #
loop $-1 $-1 $133 $180 #
vertex $-1 $82 $205 #
vertex $-1 $82 $206 #
straight-curve $-1 78.347117526779982 0 22.669292987158283 0 1 0 I I #
face $-1 $207 $208 $19 $-1 $209 reversed single #
loop $-1 $-1 $210 $83 #
plane-surface $-1 0 -63.426697983935469 -6.8705117505998103 0 0 1 1 0 0 forward_v I I I I #
coedge $-1 $89 $211 $212 $213 forward $84 $-1 #
coedge $-1 $214 $86 $215 $216 reversed $53 $-1 #
coedge $-1 $86 $214 $149 $217 reversed $53 $-1 #
edge $-1 $150 -4.6018786998183216 $218 6.8705117505998103 $86 $219 forward 7 unknown #
coedge $-1 $88 $87 $220 $221 forward $34 $-1 #
coedge $-1 $212 $222 $87 $148 forward $223 $-1 #
edge $-1 $224 -6.8705117505998103 $151 4.6018786998183216 $147 $225 forward 7 unknown #
coedge $-1 $211 $89 $144 $217 forward $84 $-1 #
vertex $-1 $145 $226 #
vertex $-1 $213 $227 #
straight-curve $-1 0 -51.504616062169546 4.6018786998183216 1 0 0 I I #
face $-1 $-1 $228 $20 $-1 $229 reversed single #
loop $-1 $-1 $97 $91 #
plane-surface $-1 0 0 22.669292987158283 0 0 1 1 0 0 forward_v I I I I #
coedge $-1 $230 $231 $232 $233 reversed $92 $-1 #
coedge $-1 $234 $94 $96 $163 forward $57 $-1 #
coedge $-1 $94 $234 $230 $235 forward $57 $-1 #
coedge $-1 $232 $97 $94 $160 forward $154 $-1 #
edge $-1 $166 0.94694061053301581 $236 13.634080814488318 $159 $237 forward 7 unknown #
coedge $-1 $238 $239 $95 $162 forward $228 $-1 #
edge $-1 $240 -36.92804263558498 $165 -25.744459417898621 $161 $241 forward 7 unknown #
edge $-1 $166 -13.334893983876308 $240 0 $96 $242 forward 7 unknown #
coedge $-1 $97 $232 $238 $243 forward $154 $-1 #
vertex $-1 $162 $244 #
vertex $-1 $98 $245 #
straight-curve $-1 -104.88098094357709 8.2374513230436825 22.669292987158279 1 0 0 I I #
coedge $-1 $168 $168 $-1 $246 reversed $101 $-1 #
edge $-1 $247 0 $247 6.2831853071796004 $102 $248 forward 7 unknown #
vertex $-1 $105 $249 #
ellipse-curve $-1 -74.715765713257071 10.774879363834735 17.077501378315105 -0.83867057594974714 0 0.54463902268945019 0.54463902268945019 0 0.83867057594974714 1 I I #
coedge $-1 $172 $172 $-1 $250 reversed $108 $-1 #
edge $-1 $251 0 $251 6.2831853071796004 $109 $252 forward 7 unknown #
vertex $-1 $112 $253 #
ellipse-curve $-1 -74.715765713257071 14.581021425021319 17.077501378315105 -0.83867057594974714 0 0.54463902268945019 0.54463902268945019 0 0.83867057594974714 1 I I #
coedge $-1 $176 $176 $-1 $254 reversed $115 $-1 #
edge $-1 $255 0 $255 6.2831853071796004 $116 $256 forward 7 unknown #
vertex $-1 $119 $257 #
ellipse-curve $-1 -74.715765713257071 18.387163486207911 17.077501378315105 -0.83867057594974714 0 0.54463902268945019 0.54463902268945019 0 0.83867057594974714 1 I I #
face $-1 $-1 $135 $18 $-1 $258 reversed single #
loop $-1 $-1 $196 $120 #
plane-surface $-1 0 51.504616062169546 0 0 -1 0 0 0 -1 forward_v I I I I #
coedge $-1 $259 $194 $197 $260 forward $121 $-1 #
coedge $-1 $200 $123 $124 $188 reversed $76 $-1 #
coedge $-1 $194 $259 $123 $186 reversed $121 $-1 #
edge $-1 $201 -22.669292987158283 $261 22.669292987158283 $185 $262 forward 7 unknown #
coedge $-1 $125 $124 $259 $263 forward $49 $-1 #
edge $-1 $192 -78.347117526779982 $261 78.347117526779982 $184 $264 forward 7 unknown #
coedge $-1 $197 $196 $125 $190 reversed $181 $-1 #
edge $-1 $265 -78.347117526779982 $191 78.347117526779982 $189 $266 forward 7 unknown #
vertex $-1 $127 $267 #
vertex $-1 $203 $268 #
straight-curve $-1 78.347117526779982 0 -22.669292987158283 0 -1 0 I I #
coedge $-1 $183 $185 $128 $195 reversed $121 $-1 #
edge $-1 $198 -51.504616062169546 $201 51.504616062169546 $194 $269 forward 7 unknown #
coedge $-1 $189 $129 $134 $204 forward $181 $-1 #
coedge $-1 $129 $189 $183 $260 reversed $181 $-1 #
vertex $-1 $130 $270 #
straight-curve $-1 0 51.504616062169546 22.669292987158283 -1 0 0 I I #
coedge $-1 $131 $184 $133 $203 reversed $76 $-1 #
vertex $-1 $195 $271 #
straight-curve $-1 0 -51.504616062169546 22.669292987158283 1 0 0 I I #
edge $-1 $136 -22.669292987158283 $192 22.669292987158283 $133 $272 forward 7 unknown #
edge $-1 $137 -22.669292987158283 $191 22.669292987158283 $134 $273 forward 7 unknown #
point $-1 78.347117526779982 -51.504616062169546 22.669292987158283 #
point $-1 78.347117526779982 51.504616062169546 22.669292987158283 #
face $-1 $-1 $223 $19 $-1 $274 reversed single #
loop $-1 $-1 $275 $139 #
plane-surface $-1 0 -75.348779905701392 -1.1343165253907443 0 1 0 0 0 1 forward_v I I I I #
coedge $-1 $276 $220 $222 $277 forward $140 $-1 #
coedge $-1 $142 $149 $278 $279 forward $84 $-1 #
coedge $-1 $280 $147 $142 $213 reversed $223 $-1 #
edge $-1 $281 -11.922081921765923 $151 11.922081921765923 $212 $282 forward 7 unknown #
coedge $-1 $144 $143 $275 $283 reversed $53 $-1 #
coedge $-1 $220 $276 $143 $216 forward $140 $-1 #
edge $-1 $284 -11.922081921765923 $218 11.922081921765923 $143 $285 forward 7 unknown #
edge $-1 $150 -11.922081921765923 $286 11.922081921765923 $144 $287 forward 7 unknown #
vertex $-1 $145 $288 #
straight-curve $-1 -78.347117526779982 -51.504616062169546 0 0 0 -1 I I #
coedge $-1 $210 $215 $146 $221 reversed $140 $-1 #
edge $-1 $224 -78.347117526779982 $218 78.347117526779982 $220 $289 forward 7 unknown #
coedge $-1 $147 $280 $210 $277 reversed $223 $-1 #
loop $-1 $-1 $147 $207 #
vertex $-1 $148 $290 #
straight-curve $-1 78.347117526779982 -51.504616062169546 0 0 0 1 I I #
point $-1 -78.347117526779982 -51.504616062169546 4.6018786998183216 #
point $-1 78.347117526779982 -51.504616062169546 4.6018786998183216 #
loop $-1 $-1 $161 $153 #
plane-surface $-1 -78.347117526779982 0 0 1 0 0 0 0 -1 forward_v I I I I #
coedge $-1 $231 $156 $158 $235 reversed $92 $-1 #
coedge $-1 $156 $230 $291 $292 reversed $92 $-1 #
coedge $-1 $164 $159 $156 $233 forward $154 $-1 #
edge $-1 $236 -33.796567043842927 $293 -26.533863416797104 $232 $294 forward 7 unknown #
coedge $-1 $158 $157 $239 $295 reversed $57 $-1 #
edge $-1 $296 0 $236 13.334893983876308 $230 $297 forward 7 unknown #
vertex $-1 $160 $298 #
straight-curve $-1 -71.084413899734159 7.2905107125106667 22.669292987158283 0 1 0 I I #
coedge $-1 $291 $161 $164 $243 reversed $228 $-1 #
coedge $-1 $161 $291 $234 $295 forward $228 $-1 #
vertex $-1 $162 $299 #
straight-curve $-1 -78.347117526779982 8.2374513230436825 48.413752405056904 0 0 1 I I #
straight-curve $-1 -78.347117526779982 8.2374513230436825 11.485709769471924 -0.54463902268945019 0 -0.83867057594974714 I I #
edge $-1 $293 -20.924591526998984 $165 -8.2374513230436825 $238 $300 forward 7 unknown #
point $-1 -78.347117526779982 8.2374513230436825 22.669292987158283 #
point $-1 -71.084413899734159 8.2374513230436825 22.669292987158283 #
edge $-1 $301 1 $301 0 $168 $-1 forward 7 unknown #
vertex $-1 $169 $302 #
ellipse-curve $-1 -71.72742429979192 10.774879363834735 15.136849835784306 -0.83867057594974714 0 0.54463902268945019 0.54463902268945019 0 0.83867057594974714 1 I I #
point $-1 -74.171126690567618 10.774879363834735 17.916171954264854 #
edge $-1 $303 1 $303 0 $172 $-1 forward 7 unknown #
vertex $-1 $173 $304 #
ellipse-curve $-1 -71.72742429979192 14.581021425021319 15.136849835784306 -0.83867057594974714 0 0.54463902268945019 0.54463902268945019 0 0.83867057594974714 1 I I #
point $-1 -74.171126690567618 14.581021425021319 17.916171954264854 #
edge $-1 $305 1 $305 0 $176 $-1 forward 7 unknown #
vertex $-1 $177 $306 #
ellipse-curve $-1 -71.72742429979192 18.387163486207911 15.136849835784306 -0.83867057594974714 0 0.54463902268945019 0.54463902268945019 0 0.83867057594974714 1 I I #
point $-1 -74.171126690567618 18.387163486207911 17.916171954264854 #
plane-surface $-1 78.347117526779982 0 0 -1 0 0 0 0 1 forward_v I I I I #
coedge $-1 $185 $183 $187 $263 reversed $121 $-1 #
edge $-1 $198 -22.669292987158283 $265 22.669292987158283 $197 $307 forward 7 unknown #
vertex $-1 $263 $308 #
straight-curve $-1 -78.347117526779982 -51.504616062169546 0 0 0 -1 I I #
edge $-1 $261 -51.504616062169546 $265 51.504616062169546 $259 $309 forward 7 unknown #
straight-curve $-1 0 -51.504616062169546 -22.669292987158283 -1 0 0 I I #
vertex $-1 $190 $310 #
straight-curve $-1 0 51.504616062169546 -22.669292987158283 1 0 0 I I #
point $-1 78.347117526779982 51.504616062169546 -22.669292987158283 #
point $-1 78.347117526779982 -51.504616062169546 -22.669292987158283 #
straight-curve $-1 -78.347117526779982 0 22.669292987158283 0 -1 0 I I #
point $-1 -78.347117526779982 51.504616062169546 22.669292987158283 #
point $-1 -78.347117526779982 -51.504616062169546 22.669292987158283 #
straight-curve $-1 78.347117526779982 -51.504616062169546 0 0 0 -1 I I #
straight-curve $-1 78.347117526779982 51.504616062169546 0 0 0 -1 I I #
plane-surface $-1 78.347117526779982 0 0 -1 0 0 0 0 1 forward_v I I I I #
coedge $-1 $311 $278 $214 $283 forward $208 $-1 #
coedge $-1 $215 $210 $311 $312 forward $140 $-1 #
edge $-1 $224 -11.922081921765923 $313 11.922081921765923 $222 $314 forward 7 unknown #
coedge $-1 $275 $315 $211 $279 reversed $208 $-1 #
edge $-1 $286 -78.347117526779982 $281 78.347117526779982 $278 $316 forward 7 unknown #
coedge $-1 $222 $212 $315 $317 forward $223 $-1 #
vertex $-1 $213 $318 #
straight-curve $-1 78.347117526779982 -63.426697983935469 4.6018786998183216 0 1 0 I I #
edge $-1 $286 -5.736195225209066 $284 5.736195225209066 $214 $319 forward 7 unknown #
vertex $-1 $216 $320 #
straight-curve $-1 -78.347117526779982 -63.426697983935469 -6.8705117505998103 0 1 0 I I #
vertex $-1 $217 $321 #
straight-curve $-1 -78.347117526779982 -63.426697983935469 4.6018786998183216 0 -1 0 I I #
point $-1 -78.347117526779982 -51.504616062169546 -6.8705117505998103 #
straight-curve $-1 0 -51.504616062169546 -6.8705117505998103 -1 0 0 I I #
point $-1 78.347117526779982 -51.504616062169546 -6.8705117505998103 #
coedge $-1 $239 $238 $231 $292 forward $228 $-1 #
edge $-1 $293 25.744459417898621 $296 36.92804263558498 $291 $322 forward 7 unknown #
vertex $-1 $243 $323 #
straight-curve $-1 -104.88098094357709 20.924591526998984 22.669292987158279 -1 0 0 I I #
edge $-1 $296 -13.634080814488318 $240 -0.94694061053301581 $239 $324 forward 7 unknown #
vertex $-1 $295 $325 #
straight-curve $-1 -78.347117526779982 20.924591526998984 11.485709769471924 0.54463902268945019 0 0.83867057594974714 I I #
point $-1 -71.084413899734159 20.924591526998984 22.669292987158283 #
point $-1 -78.347117526779982 8.2374513230436825 11.485709769471924 #
straight-curve $-1 -78.347117526779982 0 22.669292987158283 0 -1 0 I I #
vertex $-1 $246 $326 #
point $-1 -71.182785277102468 10.774879363834735 15.975520411734053 #
vertex $-1 $250 $327 #
point $-1 -71.182785277102468 14.581021425021319 15.975520411734053 #
vertex $-1 $254 $328 #
point $-1 -71.182785277102468 18.387163486207911 15.975520411734053 #
straight-curve $-1 -78.347117526779982 51.504616062169546 0 0 0 -1 I I #
point $-1 -78.347117526779982 -51.504616062169546 -22.669292987158283 #
straight-curve $-1 -78.347117526779982 0 -22.669292987158283 0 1 0 I I #
point $-1 -78.347117526779982 51.504616062169546 -22.669292987158283 #
coedge $-1 $315 $275 $276 $312 reversed $208 $-1 #
edge $-1 $313 -78.347117526779982 $284 78.347117526779982 $311 $329 forward 7 unknown #
vertex $-1 $317 $330 #
straight-curve $-1 78.347117526779982 -63.426697983935469 -6.8705117505998103 0 -1 0 I I #
coedge $-1 $278 $311 $280 $317 reversed $208 $-1 #
straight-curve $-1 0 -75.348779905701392 4.6018786998183216 1 0 0 I I #
edge $-1 $281 -5.736195225209066 $313 5.736195225209066 $280 $331 forward 7 unknown #
point $-1 78.347117526779982 -75.348779905701392 4.6018786998183216 #
straight-curve $-1 -78.347117526779982 -75.348779905701392 -1.1343165253907443 0 0 -1 I I #
point $-1 -78.347117526779982 -75.348779905701392 -6.8705117505998103 #
point $-1 -78.347117526779982 -75.348779905701392 4.6018786998183216 #
straight-curve $-1 -78.347117526779982 20.924591526998984 48.413752405056904 0 0 -1 I I #
point $-1 -78.347117526779982 20.924591526998984 22.669292987158283 #
straight-curve $-1 -78.347117526779982 7.2905107125106667 11.485709769471926 0 -1 0 I I #
point $-1 -78.347117526779982 20.924591526998984 11.485709769471924 #
point $-1 -70.888753723842171 10.774879363834735 14.592210813094857 #
point $-1 -70.888753723842171 14.581021425021319 14.592210813094857 #
point $-1 -70.888753723842171 18.387163486207911 14.592210813094857 #
straight-curve $-1 0 -75.348779905701392 -6.8705117505998103 -1 0 0 I I #
point $-1 78.347117526779982 -75.348779905701392 -6.8705117505998103 #
straight-curve $-1 78.347117526779982 -75.348779905701392 -1.1343165253907443 0 0 -1 I I #
End-of-ACIS-data 