500 0 6 0           
7 Unknown 11 ACIS 5.0 NT 24 Fri Mar 26 18:47:22 1999 
-1 9.9999999999999995e-007 1e-010 
body $-1 $6 $-1 $7 #
body $-1 $8 $-1 $9 #
body $-1 $10 $-1 $11 #
body $-1 $12 $-1 $13 #
body $-1 $14 $-1 $15 #
body $-1 $16 $-1 $17 #
lump $-1 $-1 $18 $0 #
transform $-1 1 0 0 0 1 0 0 0 1 45.782647175511947 22.469084262323687 4.6277385467434886 1 rotate no_reflect no_shear #
lump $-1 $-1 $19 $1 #
transform $-1 1 0 0 0 1 0 0 0 1 45.782647175511947 22.469084262323687 4.6277385467434886 1 rotate no_reflect no_shear #
lump $-1 $-1 $20 $2 #
transform $-1 1 0 0 0 1 0 0 0 1 45.782647175511947 22.469084262323687 4.6277385467434886 1 rotate no_reflect no_shear #
lump $-1 $-1 $21 $3 #
transform $-1 1 0 0 0 1 0 0 0 1 45.782647175511947 22.469084262323687 4.6277385467434886 1 rotate no_reflect no_shear #
lump $-1 $-1 $22 $4 #
transform $-1 1 0 0 0 1 0 0 0 1 45.782647175511947 22.469084262323687 4.6277385467434886 1 rotate no_reflect no_shear #
lump $-1 $-1 $23 $5 #
transform $-1 1 0 0 0 1 0 0 0 1 45.782647175511947 22.469084262323687 4.6277385467434886 1 rotate no_reflect no_shear #
shell $-1 $-1 $-1 $24 $-1 $6 #
shell $-1 $-1 $-1 $25 $-1 $8 #
shell $-1 $-1 $-1 $26 $-1 $10 #
shell $-1 $-1 $-1 $27 $-1 $12 #
shell $-1 $-1 $-1 $28 $-1 $14 #
shell $-1 $-1 $-1 $29 $-1 $16 #
face $-1 $30 $31 $18 $-1 $32 forward single #
face $-1 $33 $34 $19 $-1 $35 reversed single #
face $-1 $36 $37 $20 $-1 $38 reversed single #
face $-1 $39 $40 $21 $-1 $41 forward single #
face $-1 $42 $43 $22 $-1 $44 reversed single #
face $-1 $45 $46 $23 $-1 $47 forward single #
face $-1 $48 $49 $18 $-1 $50 reversed single #
loop $-1 $-1 $51 $24 #
plane-surface $-1 0 0 4.6277385467434886 0 0 1 1 0 0 forward_v I I I I #
face $-1 $52 $53 $19 $-1 $54 reversed single #
loop $-1 $-1 $55 $25 #
plane-surface $-1 -43.037993023595419 0 1.6277385467434886 0 0 1 1 0 0 forward_v I I I I #
face $-1 $56 $57 $20 $-1 $58 reversed single #
loop $-1 $-1 $59 $26 #
plane-surface $-1 -8.622033954089904 38.177587785522377 101.40793780403992 1 0 0 0 -0.57357644374324357 -0.81915203911291934 forward_v I I I I #
face $-1 $60 $61 $21 $-1 $62 forward single #
loop $-1 $63 $64 $27 #
cone-surface $-1 2.4400187527194817 18.414734218648171 0.91734986610067759 0 -0.57357644374324357 -0.81915203911291934 1.5 0 0 1 I I 0 1 1.5 forward I I I I #
face $-1 $65 $66 $22 $-1 $67 reversed single #
loop $-1 $-1 $68 $28 #
plane-surface $-1 -18.243164223415391 -94.623521623913305 57.185577392043349 -1 0 0 0 -0.78801076186113728 0.61566146476048833 forward_v I I I I #
face $-1 $69 $70 $23 $-1 $71 forward single #
loop $-1 $72 $73 $29 #
cone-surface $-1 -22.946779348901323 -19.440775912028823 1.5185416736650021 0 0.78801076186113728 -0.61566146476048833 1 0 0 1 I I 0 1 1 forward I I I I #
face $-1 $74 $75 $18 $-1 $76 reversed single #
loop $-1 $-1 $77 $30 #
plane-surface $-1 0 0 -4.6277385467434886 0 0 1 1 0 0 forward_v I I I I #
coedge $-1 $78 $79 $80 $81 forward $31 $-1 #
face $-1 $82 $83 $19 $-1 $84 reversed single #
loop $-1 $-1 $85 $33 #
plane-surface $-1 -40.293338871678891 0 3.1277385467434886 -1 0 0 0 0 1 forward_v I I I I #
coedge $-1 $86 $87 $88 $89 forward $34 $-1 #
face $-1 $90 $91 $20 $-1 $92 reversed single #
loop $-1 $-1 $93 $36 #
plane-surface $-1 2.4400187527194745 -14.342108118641221 26.402040224424027 0 0.57357644374324357 0.81915203911291934 1 0 0 forward_v I I I I #
coedge $-1 $94 $95 $96 $97 reversed $37 $-1 #
face $-1 $-1 $98 $21 $-1 $99 forward single #
loop $-1 $100 $101 $39 #
cone-surface $-1 2.4400187527194817 16.787335561692192 -1.4068162373661881 0 -0.57357644374324357 -0.81915203911291934 0.75 0 0 1 I I -0.70710678118654757 0.70710678118654757 0.75 forward I I I I #
loop $-1 $-1 $102 $27 #
coedge $-1 $64 $64 $103 $104 reversed $40 $-1 #
face $-1 $105 $106 $22 $-1 $107 reversed single #
loop $-1 $-1 $108 $42 #
plane-surface $-1 -22.946779348901323 -22.469084262323676 0.81235415066671379 0 -0.78801076186113728 0.61566146476048833 1 0 0 forward_v I I I I #
coedge $-1 $109 $110 $111 $112 reversed $43 $-1 #
face $-1 $-1 $113 $23 $-1 $114 forward single #
loop $-1 $115 $116 $45 #
cone-surface $-1 -22.946779348901323 -17.508914633740115 0.0092062662446581456 0 0.78801076186113728 -0.61566146476048833 0.5 0 0 1 I I -0.70710678118654746 0.70710678118654746 0.5 forward I I I I #
loop $-1 $-1 $117 $29 #
coedge $-1 $73 $73 $118 $119 reversed $46 $-1 #
face $-1 $120 $121 $18 $-1 $122 reversed single #
loop $-1 $-1 $123 $48 #
plane-surface $-1 0 -22.469084262323687 0 0 1 0 0 0 1 forward_v I I I I #
coedge $-1 $124 $125 $126 $127 forward $49 $-1 #
coedge $-1 $128 $51 $129 $130 forward $31 $-1 #
coedge $-1 $51 $128 $131 $132 forward $31 $-1 #
coedge $-1 $133 $134 $51 $81 reversed $135 $-1 #
edge $-1 $136 -22.469084262323687 $137 22.469084262323687 $80 $138 forward 7 unknown #
face $-1 $139 $140 $19 $-1 $141 reversed single #
loop $-1 $-1 $142 $52 #
plane-surface $-1 0 22.469084262323687 0 0 -1 0 0 0 -1 forward_v I I I I #
coedge $-1 $88 $143 $144 $145 reversed $53 $-1 #
coedge $-1 $146 $55 $147 $148 reversed $34 $-1 #
coedge $-1 $55 $146 $149 $150 reversed $34 $-1 #
coedge $-1 $151 $85 $55 $89 reversed $53 $-1 #
edge $-1 $152 -22.469084262323687 $153 22.469084262323687 $88 $154 forward 7 unknown #
face $-1 $155 $156 $20 $-1 $157 forward single #
loop $-1 $-1 $158 $56 #
plane-surface $-1 13.502071459528853 38.177587785522377 101.40793780403992 -1 0 0 0 0.57357644374324357 0.81915203911291934 forward_v I I I I #
coedge $-1 $159 $160 $161 $162 reversed $57 $-1 #
coedge $-1 $95 $59 $163 $164 reversed $37 $-1 #
coedge $-1 $59 $94 $159 $165 reversed $37 $-1 #
coedge $-1 $161 $166 $59 $97 forward $156 $-1 #
edge $-1 $167 -3.3802903695624984 $168 2.3339770694914215 $96 $169 forward 7 unknown #
loop $-1 $-1 $103 $60 #
plane-surface $-1 2.4400187527194745 -14.342108118641221 26.402040224424027 0 0.57357644374324357 0.81915203911291934 1 0 0 forward_v I I I I #
loop $-1 $-1 $170 $39 #
coedge $-1 $101 $101 $102 $171 reversed $61 $-1 #
coedge $-1 $102 $102 $101 $171 forward $63 $-1 #
coedge $-1 $103 $103 $64 $104 forward $98 $-1 #
edge $-1 $172 -2.4201437164555474e-016 $172 6.2831853071796004 $103 $173 forward 7 unknown #
face $-1 $174 $175 $22 $-1 $176 reversed single #
loop $-1 $-1 $177 $65 #
plane-surface $-1 -27.650394474387255 -94.623521623913305 57.185577392043349 1 0 0 0 0.78801076186113728 -0.61566146476048833 forward_v I I I I #
coedge $-1 $178 $179 $180 $181 reversed $66 $-1 #
coedge $-1 $110 $68 $182 $183 reversed $43 $-1 #
coedge $-1 $68 $109 $178 $184 reversed $43 $-1 #
coedge $-1 $180 $185 $68 $112 forward $186 $-1 #
edge $-1 $187 24.842676549632966 $188 27.823581455506424 $111 $189 forward 7 unknown #
loop $-1 $-1 $118 $69 #
plane-surface $-1 -22.946779348901323 -22.469084262323676 0.81235415066671379 0 -0.78801076186113728 0.61566146476048833 1 0 0 forward_v I I I I #
loop $-1 $-1 $190 $45 #
coedge $-1 $116 $116 $117 $191 reversed $70 $-1 #
coedge $-1 $117 $117 $116 $191 forward $72 $-1 #
coedge $-1 $118 $118 $73 $119 forward $113 $-1 #
edge $-1 $192 -5.2511997225903726e-016 $192 6.2831853071795996 $118 $193 forward 7 unknown #
face $-1 $194 $195 $18 $-1 $196 reversed single #
loop $-1 $-1 $197 $74 #
plane-surface $-1 -45.782647175511947 0 0 1 0 0 0 0 -1 forward_v I I I I #
coedge $-1 $198 $131 $199 $200 forward $75 $-1 #
coedge $-1 $201 $77 $198 $202 forward $49 $-1 #
coedge $-1 $77 $201 $203 $204 forward $49 $-1 #
coedge $-1 $134 $133 $77 $127 reversed $135 $-1 #
edge $-1 $205 -22.469084262323687 $206 22.469084262323687 $126 $207 forward 7 unknown #
coedge $-1 $79 $78 $208 $209 forward $31 $-1 #
coedge $-1 $210 $211 $78 $130 reversed $195 $-1 #
edge $-1 $137 -45.782647175511947 $212 45.782647175511947 $129 $213 forward 7 unknown #
coedge $-1 $123 $214 $79 $132 reversed $75 $-1 #
edge $-1 $215 -45.782647175511947 $136 45.782647175511947 $131 $216 forward 7 unknown #
coedge $-1 $126 $80 $214 $217 forward $135 $-1 #
coedge $-1 $80 $126 $210 $218 reversed $135 $-1 #
loop $-1 $-1 $133 $194 #
vertex $-1 $81 $219 #
vertex $-1 $81 $220 #
straight-curve $-1 45.782647175511947 0 4.6277385467434886 0 1 0 I I #
face $-1 $221 $222 $19 $-1 $223 forward single #
loop $-1 $-1 $224 $82 #
plane-surface $-1 -45.782647175511947 0 0 1 0 0 0 0 -1 forward_v I I I I #
coedge $-1 $149 $225 $151 $226 forward $83 $-1 #
coedge $-1 $85 $151 $227 $228 reversed $53 $-1 #
coedge $-1 $229 $147 $85 $145 forward $230 $-1 #
edge $-1 $153 0.063869273371744306 $231 3.0638692733717443 $144 $232 forward 7 unknown #
coedge $-1 $87 $86 $224 $233 reversed $34 $-1 #
coedge $-1 $144 $234 $86 $148 forward $230 $-1 #
edge $-1 $235 -24.263650663714238 $153 -18.774342359881182 $147 $236 forward 7 unknown #
coedge $-1 $237 $142 $87 $150 forward $83 $-1 #
edge $-1 $152 18.774342359881182 $238 24.263650663714238 $149 $239 forward 7 unknown #
coedge $-1 $143 $88 $142 $226 reversed $53 $-1 #
vertex $-1 $150 $240 #
vertex $-1 $148 $241 #
straight-curve $-1 -40.293338871678891 0 1.6277385467434886 0 -1 0 I I #
face $-1 $-1 $242 $20 $-1 $243 reversed single #
loop $-1 $-1 $96 $90 #
plane-surface $-1 0 0 4.6277385467434886 0 0 1 1 0 0 forward_v I I I I #
coedge $-1 $244 $245 $246 $247 reversed $91 $-1 #
coedge $-1 $248 $93 $95 $165 forward $57 $-1 #
coedge $-1 $93 $248 $244 $249 forward $57 $-1 #
coedge $-1 $246 $96 $93 $162 forward $156 $-1 #
edge $-1 $168 -9.8420433304496413 $250 12.282062083169116 $161 $251 forward 7 unknown #
coedge $-1 $252 $253 $94 $164 forward $242 $-1 #
edge $-1 $254 -50.07740356829774 $167 -46.076230355276472 $163 $255 forward 7 unknown #
edge $-1 $168 37.962335997584333 $254 44.938168524647381 $95 $256 forward 7 unknown #
coedge $-1 $96 $246 $252 $257 forward $156 $-1 #
vertex $-1 $164 $258 #
vertex $-1 $97 $259 #
straight-curve $-1 -8.622033954089904 19.088793892761188 4.6277385467434868 0 -1 0 I I #
coedge $-1 $170 $170 $-1 $260 reversed $100 $-1 #
edge $-1 $261 0 $261 6.2831853071796004 $101 $262 forward 7 unknown #
vertex $-1 $104 $263 #
ellipse-curve $-1 2.4400187527194817 19.61195054279672 2.6271519402328574 0 0.57357644374324357 0.81915203911291934 1.5 0 0 1 I I #
face $-1 $-1 $186 $22 $-1 $264 forward single #
loop $-1 $-1 $265 $105 #
plane-surface $-1 0 -22.469084262323687 0 0 1 0 0 0 1 forward_v I I I I #
coedge $-1 $266 $267 $268 $269 reversed $106 $-1 #
coedge $-1 $270 $108 $110 $184 forward $66 $-1 #
coedge $-1 $108 $270 $266 $271 forward $66 $-1 #
coedge $-1 $268 $111 $108 $181 forward $186 $-1 #
edge $-1 $188 6.7697745489647296 $272 16.177004799936594 $180 $273 forward 7 unknown #
coedge $-1 $274 $275 $109 $183 forward $175 $-1 #
edge $-1 $276 -27.780434545354975 $187 -23.965050149278184 $182 $277 forward 7 unknown #
edge $-1 $188 -4.8417922454073272 $276 1.7322679327183761e-014 $110 $278 forward 7 unknown #
coedge $-1 $111 $268 $274 $279 forward $186 $-1 #
loop $-1 $-1 $268 $174 #
vertex $-1 $183 $280 #
vertex $-1 $112 $281 #
straight-curve $-1 -18.243164223415391 -47.311760811956653 4.6277385467434904 0 1 0 I I #
coedge $-1 $190 $190 $-1 $282 reversed $115 $-1 #
edge $-1 $283 0 $283 6.2831853071796004 $116 $284 forward 7 unknown #
vertex $-1 $119 $285 #
ellipse-curve $-1 -22.946779348901323 -20.978631809386954 2.7200463487050968 0 -0.78801076186113728 0.61566146476048833 1 0 0 1 I I #
face $-1 $-1 $135 $18 $-1 $286 reversed single #
loop $-1 $-1 $210 $120 #
plane-surface $-1 0 22.469084262323687 0 0 -1 0 0 0 -1 forward_v I I I I #
coedge $-1 $287 $208 $211 $288 forward $121 $-1 #
coedge $-1 $214 $123 $124 $202 reversed $75 $-1 #
coedge $-1 $208 $287 $123 $200 reversed $121 $-1 #
edge $-1 $215 -4.6277385467434886 $289 4.6277385467434886 $199 $290 forward 7 unknown #
coedge $-1 $125 $124 $287 $291 forward $49 $-1 #
edge $-1 $206 -45.782647175511947 $289 45.782647175511947 $198 $292 forward 7 unknown #
coedge $-1 $211 $210 $125 $204 reversed $195 $-1 #
edge $-1 $293 -45.782647175511947 $205 45.782647175511947 $203 $294 forward 7 unknown #
vertex $-1 $127 $295 #
vertex $-1 $217 $296 #
straight-curve $-1 45.782647175511947 0 -4.6277385467434886 0 -1 0 I I #
coedge $-1 $197 $199 $128 $209 reversed $121 $-1 #
edge $-1 $212 -22.469084262323687 $215 22.469084262323687 $208 $297 forward 7 unknown #
coedge $-1 $203 $129 $134 $218 forward $195 $-1 #
coedge $-1 $129 $203 $197 $288 reversed $195 $-1 #
vertex $-1 $130 $298 #
straight-curve $-1 0 22.469084262323687 4.6277385467434886 -1 0 0 I I #
coedge $-1 $131 $198 $133 $217 reversed $75 $-1 #
vertex $-1 $209 $299 #
straight-curve $-1 0 -22.469084262323687 4.6277385467434886 1 0 0 I I #
edge $-1 $136 -4.6277385467434886 $206 4.6277385467434886 $133 $300 forward 7 unknown #
edge $-1 $137 -4.6277385467434886 $205 4.6277385467434886 $134 $301 forward 7 unknown #
point $-1 45.782647175511947 -22.469084262323687 4.6277385467434886 #
point $-1 45.782647175511947 22.469084262323687 4.6277385467434886 #
face $-1 $-1 $230 $19 $-1 $302 reversed single #
loop $-1 $-1 $227 $139 #
plane-surface $-1 0 0 4.6277385467434886 0 0 1 1 0 0 forward_v I I I I #
coedge $-1 $303 $304 $146 $233 forward $140 $-1 #
coedge $-1 $142 $237 $305 $306 reversed $83 $-1 #
edge $-1 $307 -3.0638692733717443 $152 -0.063869273371744306 $142 $308 forward 7 unknown #
coedge $-1 $305 $309 $143 $228 forward $222 $-1 #
edge $-1 $231 -22.469084262323687 $307 22.469084262323687 $227 $310 forward 7 unknown #
coedge $-1 $234 $144 $309 $311 reversed $230 $-1 #
loop $-1 $-1 $144 $221 #
vertex $-1 $145 $312 #
straight-curve $-1 -40.293338871678891 -22.469084262323687 1.5638692733717443 0 0 1 I I #
edge $-1 $238 -22.469084262323687 $235 22.469084262323687 $224 $313 forward 7 unknown #
coedge $-1 $147 $229 $303 $314 forward $230 $-1 #
vertex $-1 $233 $315 #
straight-curve $-1 -21.51899651179771 -22.469084262323687 1.6277385467434886 1 0 0 I I #
coedge $-1 $225 $149 $304 $316 reversed $83 $-1 #
vertex $-1 $233 $317 #
straight-curve $-1 -21.51899651179771 22.469084262323687 1.6277385467434886 -1 0 0 I I #
point $-1 -40.293338871678891 22.469084262323687 1.6277385467434886 #
point $-1 -40.293338871678891 -22.469084262323687 1.6277385467434886 #
loop $-1 $-1 $163 $155 #
plane-surface $-1 0 22.469084262323687 0 0 -1 0 0 0 -1 forward_v I I I I #
coedge $-1 $245 $158 $160 $249 reversed $91 $-1 #
coedge $-1 $158 $244 $318 $319 reversed $91 $-1 #
coedge $-1 $166 $161 $158 $247 forward $156 $-1 #
edge $-1 $250 -2.3339770694914215 $320 3.3802903695624984 $246 $321 forward 7 unknown #
coedge $-1 $160 $159 $253 $322 reversed $57 $-1 #
edge $-1 $323 -44.938168524647381 $250 -37.962335997584333 $244 $324 forward 7 unknown #
vertex $-1 $162 $325 #
straight-curve $-1 1.2200093763597373 16.754816823269756 4.6277385467434904 1 0 0 I I #
coedge $-1 $318 $163 $166 $257 reversed $242 $-1 #
coedge $-1 $163 $318 $248 $322 forward $242 $-1 #
vertex $-1 $164 $326 #
straight-curve $-1 -8.622033954089904 22.469084262323687 50.703968902019959 0 0 1 I I #
straight-curve $-1 -8.622033954089904 -14.342108118641221 26.402040224424027 0 0.81915203911291934 -0.57357644374324357 I I #
edge $-1 $320 -13.502071459528853 $167 8.622033954089904 $252 $327 forward 7 unknown #
point $-1 -8.622033954089904 22.469084262323687 4.6277385467434886 #
point $-1 -8.622033954089904 16.754816823269767 4.6277385467434868 #
edge $-1 $328 1 $328 0 $170 $-1 forward 7 unknown #
vertex $-1 $171 $329 #
ellipse-curve $-1 2.4400187527194817 17.217517894499625 -0.79245220803149863 0 0.57357644374324357 0.81915203911291934 1.5 0 0 1 I I #
point $-1 3.9400187527194817 19.611950542796716 2.6271519402328529 #
plane-surface $-1 0 0 4.6277385467434886 0 0 1 1 0 0 forward_v I I I I #
coedge $-1 $275 $274 $267 $330 forward $175 $-1 #
coedge $-1 $267 $177 $179 $271 reversed $106 $-1 #
coedge $-1 $177 $266 $265 $330 reversed $106 $-1 #
coedge $-1 $185 $180 $177 $269 forward $186 $-1 #
edge $-1 $272 -27.823581455506424 $331 -24.842676549632966 $268 $332 forward 7 unknown #
coedge $-1 $179 $178 $275 $333 reversed $66 $-1 #
edge $-1 $334 -1.7322679327183761e-014 $272 4.8417922454073272 $266 $335 forward 7 unknown #
vertex $-1 $181 $336 #
straight-curve $-1 -11.473389674450662 -19.488179356450228 4.6277385467434886 -1 0 0 I I #
coedge $-1 $265 $182 $185 $279 reversed $175 $-1 #
coedge $-1 $182 $265 $270 $333 forward $175 $-1 #
vertex $-1 $183 $337 #
straight-curve $-1 -18.243164223415391 -22.469084262323683 28.592788696021675 0 0 1 I I #
straight-curve $-1 -18.243164223415391 -22.469084262323676 0.81235415066671379 0 -0.61566146476048833 -0.78801076186113728 I I #
edge $-1 $331 -27.650394474387255 $187 -18.243164223415391 $274 $338 forward 7 unknown #
point $-1 -18.243164223415391 -22.469084262323687 4.6277385467434886 #
point $-1 -18.243164223415391 -19.488179356450228 4.6277385467434886 #
edge $-1 $339 1 $339 0 $190 $-1 forward 7 unknown #
vertex $-1 $191 $340 #
ellipse-curve $-1 -22.946779348901323 -17.902920014670684 0.31703699862490231 0 -0.78801076186113728 0.61566146476048833 1 0 0 1 I I #
point $-1 -21.946779348901323 -20.978631809386961 2.7200463487051016 #
plane-surface $-1 45.782647175511947 0 0 -1 0 0 0 0 1 forward_v I I I I #
coedge $-1 $199 $197 $201 $291 reversed $121 $-1 #
edge $-1 $212 -4.6277385467434886 $293 4.6277385467434886 $211 $341 forward 7 unknown #
vertex $-1 $291 $342 #
straight-curve $-1 -45.782647175511947 -22.469084262323687 0 0 0 -1 I I #
edge $-1 $289 -22.469084262323687 $293 22.469084262323687 $287 $343 forward 7 unknown #
straight-curve $-1 0 -22.469084262323687 -4.6277385467434886 -1 0 0 I I #
vertex $-1 $204 $344 #
straight-curve $-1 0 22.469084262323687 -4.6277385467434886 1 0 0 I I #
point $-1 45.782647175511947 22.469084262323687 -4.6277385467434886 #
point $-1 45.782647175511947 -22.469084262323687 -4.6277385467434886 #
straight-curve $-1 -45.782647175511947 0 4.6277385467434886 0 -1 0 I I #
point $-1 -45.782647175511947 22.469084262323687 4.6277385467434886 #
point $-1 -45.782647175511947 -22.469084262323687 4.6277385467434886 #
straight-curve $-1 45.782647175511947 -22.469084262323687 0 0 0 -1 I I #
straight-curve $-1 45.782647175511947 22.469084262323687 0 0 0 -1 I I #
plane-surface $-1 0 -22.469084262323687 0 0 1 0 0 0 1 forward_v I I I I #
coedge $-1 $345 $224 $234 $314 reversed $140 $-1 #
coedge $-1 $224 $345 $237 $316 forward $140 $-1 #
coedge $-1 $346 $227 $225 $306 forward $222 $-1 #
edge $-1 $307 40.293338871678891 $347 45.782647175511947 $225 $348 forward 7 unknown #
vertex $-1 $306 $349 #
straight-curve $-1 -40.293338871678891 22.469084262323687 1.5638692733717443 0 0 -1 I I #
coedge $-1 $227 $346 $229 $311 forward $222 $-1 #
straight-curve $-1 -40.293338871678891 0 4.6277385467434886 0 1 0 I I #
edge $-1 $350 -45.782647175511947 $231 -40.293338871678891 $229 $351 forward 7 unknown #
point $-1 -40.293338871678891 -22.469084262323687 4.6277385467434886 #
straight-curve $-1 -45.782647175511947 0 1.6277385467434886 0 -1 0 I I #
edge $-1 $350 -4.6277385467434886 $235 -1.6277385467434886 $303 $352 forward 7 unknown #
point $-1 -45.782647175511947 -22.469084262323687 1.6277385467434886 #
edge $-1 $347 -4.6277385467434886 $238 -1.6277385467434886 $237 $353 forward 7 unknown #
point $-1 -45.782647175511947 22.469084262323687 1.6277385467434886 #
coedge $-1 $253 $252 $245 $319 forward $242 $-1 #
edge $-1 $320 46.076230355276472 $323 50.07740356829774 $318 $354 forward 7 unknown #
vertex $-1 $257 $355 #
straight-curve $-1 13.502071459528853 19.088793892761188 4.6277385467434868 0 1 0 I I #
edge $-1 $323 -12.282062083169116 $254 9.8420433304496413 $253 $356 forward 7 unknown #
vertex $-1 $322 $357 #
straight-curve $-1 13.502071459528853 -14.342108118641221 26.402040224424027 0 -0.81915203911291934 0.57357644374324357 I I #
point $-1 13.502071459528853 16.754816823269767 4.6277385467434868 #
point $-1 -8.622033954089904 22.46908426232369 0.62656533372221901 #
straight-curve $-1 0 22.469084262323687 4.6277385467434886 -1 0 0 I I #
vertex $-1 $260 $358 #
point $-1 3.9400187527194817 17.217517894499625 -0.79245220803149863 #
edge $-1 $331 23.965050149278184 $334 27.780434545354975 $265 $359 forward 7 unknown #
vertex $-1 $279 $360 #
straight-curve $-1 -27.650394474387255 -47.311760811956653 4.6277385467434904 0 -1 0 I I #
edge $-1 $334 -16.177004799936594 $276 -6.7697745489647296 $275 $361 forward 7 unknown #
vertex $-1 $333 $362 #
straight-curve $-1 -27.650394474387255 -22.469084262323676 0.81235415066671379 0 0.61566146476048833 0.78801076186113728 I I #
point $-1 -27.650394474387255 -19.488179356450228 4.6277385467434886 #
point $-1 -18.243164223415391 -22.469084262323687 0.81235415066670014 #
straight-curve $-1 0 -22.469084262323687 4.6277385467434886 1 0 0 I I #
vertex $-1 $282 $363 #
point $-1 -21.946779348901323 -17.902920014670684 0.31703699862490231 #
straight-curve $-1 -45.782647175511947 22.469084262323687 0 0 0 -1 I I #
point $-1 -45.782647175511947 -22.469084262323687 -4.6277385467434886 #
straight-curve $-1 -45.782647175511947 0 -4.6277385467434886 0 1 0 I I #
point $-1 -45.782647175511947 22.469084262323687 -4.6277385467434886 #
coedge $-1 $304 $303 $346 $364 reversed $140 $-1 #
coedge $-1 $309 $305 $345 $364 forward $222 $-1 #
vertex $-1 $306 $365 #
straight-curve $-1 0 22.469084262323687 4.6277385467434886 -1 0 0 I I #
point $-1 -40.293338871678891 22.469084262323687 4.6277385467434886 #
vertex $-1 $364 $366 #
straight-curve $-1 0 -22.469084262323687 4.6277385467434886 1 0 0 I I #
straight-curve $-1 -45.782647175511947 -22.469084262323687 0 0 0 -1 I I #
straight-curve $-1 -45.782647175511947 22.469084262323687 0 0 0 -1 I I #
straight-curve $-1 13.502071459528853 22.469084262323687 50.703968902019959 0 0 -1 I I #
point $-1 13.502071459528853 22.469084262323687 4.6277385467434886 #
straight-curve $-1 1.2200093763597373 22.469084262323687 0.62656533372222079 -1 0 0 I I #
point $-1 13.502071459528853 22.46908426232369 0.62656533372221901 #
point $-1 2.4400187527194817 16.357153228884759 -2.0211802667008776 #
straight-curve $-1 -27.650394474387255 -22.469084262323683 28.592788696021675 0 0 -1 I I #
point $-1 -27.650394474387255 -22.469084262323687 4.6277385467434886 #
straight-curve $-1 -11.473389674450662 -22.469084262323687 0.81235415066670369 1 0 0 I I #
point $-1 -27.650394474387255 -22.469084262323687 0.81235415066670014 #
point $-1 -22.946779348901323 -17.114909252809547 -0.29862446613558602 #
edge $-1 $347 -22.469084262323687 $350 22.469084262323687 $345 $367 forward 7 unknown #
point $-1 -45.782647175511947 22.469084262323687 4.6277385467434886 #
point $-1 -45.782647175511947 -22.469084262323687 4.6277385467434886 #
straight-curve $-1 -45.782647175511947 0 4.6277385467434886 0 -1 0 I I #
End-of-ACIS-data 