500 0 7 0           
7 Unknown 11 ACIS 5.0 NT 24 Thu Mar 25 18:58:47 1999 
-1 9.9999999999999995e-007 1e-010 
body $-1 $7 $-1 $8 #
body $-1 $9 $-1 $10 #
body $-1 $11 $-1 $12 #
body $-1 $13 $-1 $14 #
body $-1 $15 $-1 $16 #
body $-1 $17 $-1 $18 #
body $-1 $19 $-1 $20 #
lump $-1 $-1 $21 $0 #
transform $-1 1 0 0 0 1 0 0 0 1 69.106112857448039 32.960960582412561 6.6800088790437666 1 rotate no_reflect no_shear #
lump $-1 $-1 $22 $1 #
transform $-1 1 0 0 0 1 0 0 0 1 69.106112857448039 32.960960582412561 6.6800088790437666 1 rotate no_reflect no_shear #
lump $-1 $-1 $23 $2 #
transform $-1 1 0 0 0 1 0 0 0 1 69.106112857448039 32.960960582412561 6.6800088790437666 1 rotate no_reflect no_shear #
lump $-1 $-1 $24 $3 #
transform $-1 1 0 0 0 1 0 0 0 1 69.106112857448039 32.960960582412561 6.6800088790437666 1 rotate no_reflect no_shear #
lump $-1 $-1 $25 $4 #
transform $-1 1 0 0 0 1 0 0 0 1 69.106112857448039 32.960960582412561 6.6800088790437666 1 rotate no_reflect no_shear #
lump $-1 $-1 $26 $5 #
transform $-1 1 0 0 0 1 0 0 0 1 69.106112857448039 32.960960582412561 6.6800088790437666 1 rotate no_reflect no_shear #
lump $-1 $-1 $27 $6 #
transform $-1 1 0 0 0 1 0 0 0 1 69.106112857448039 32.960960582412561 6.6800088790437666 1 rotate no_reflect no_shear #
shell $-1 $-1 $-1 $28 $-1 $7 #
shell $-1 $-1 $-1 $29 $-1 $9 #
shell $-1 $-1 $-1 $30 $-1 $11 #
shell $-1 $-1 $-1 $31 $-1 $13 #
shell $-1 $-1 $-1 $32 $-1 $15 #
shell $-1 $-1 $-1 $33 $-1 $17 #
shell $-1 $-1 $-1 $34 $-1 $19 #
face $-1 $35 $36 $21 $-1 $37 forward single #
face $-1 $38 $39 $22 $-1 $40 forward single #
face $-1 $41 $42 $23 $-1 $43 reversed single #
face $-1 $44 $45 $24 $-1 $46 forward single #
face $-1 $47 $48 $25 $-1 $49 reversed single #
face $-1 $50 $51 $26 $-1 $52 forward single #
face $-1 $53 $54 $27 $-1 $55 forward single #
face $-1 $56 $57 $21 $-1 $58 reversed single #
loop $-1 $-1 $59 $28 #
plane-surface $-1 0 0 6.6800088790437666 0 0 1 1 0 0 forward_v I I I I #
face $-1 $60 $61 $22 $-1 $62 forward single #
loop $-1 $-1 $63 $29 #
plane-surface $-1 -69.106112857448039 0 0 1 0 0 0 0 -1 forward_v I I I I #
face $-1 $64 $65 $23 $-1 $66 reversed single #
loop $-1 $-1 $67 $30 #
plane-surface $-1 -33.204427524300179 -141.87368186653129 87.78700566660703 -1 0 0 0 -0.78801076186113728 0.61566146476048833 forward_v I I I I #
face $-1 $68 $69 $24 $-1 $70 forward single #
loop $-1 $71 $72 $31 #
cone-surface $-1 -48.306237332017751 -30.033073754144041 3.6162401888720783 0 0.78801076186113728 -0.61566146476048833 1 0 0 1 I I 0 1 1 forward I I I I #
face $-1 $73 $74 $25 $-1 $75 reversed single #
loop $-1 $-1 $76 $32 #
plane-surface $-1 -63.408047139735345 71.302946920069047 149.14683444349276 1 0 0 0 -0.64278761758704617 -0.76604443648966558 forward_v I I I I #
face $-1 $77 $78 $26 $-1 $79 forward single #
loop $-1 $80 $81 $33 #
cone-surface $-1 -52.05361915649155 27.855349496506065 1.8107503232258653 0 -0.64278761758704617 -0.76604443648966558 1.5 0 0 1 I I 0 1 1.5 forward I I I I #
face $-1 $82 $83 $27 $-1 $84 forward single #
loop $-1 $85 $86 $34 #
cone-surface $-1 -35.021977181625871 27.855349496506065 1.8107503232258653 0 -0.64278761758704617 -0.76604443648966558 1.5 0 0 1 I I 0 1 1.5 forward I I I I #
face $-1 $87 $88 $21 $-1 $89 reversed single #
loop $-1 $-1 $90 $35 #
plane-surface $-1 0 0 -6.6800088790437666 0 0 1 1 0 0 forward_v I I I I #
coedge $-1 $91 $92 $93 $94 forward $36 $-1 #
face $-1 $95 $96 $22 $-1 $97 reversed single #
loop $-1 $-1 $98 $38 #
plane-surface $-1 0 0 6.6800088790437666 0 0 1 1 0 0 forward_v I I I I #
coedge $-1 $99 $100 $101 $102 forward $39 $-1 #
face $-1 $103 $104 $23 $-1 $105 reversed single #
loop $-1 $-1 $106 $41 #
plane-surface $-1 -48.306237332017758 -32.960960582412554 2.6950643351668759 0 -0.78801076186113728 0.61566146476048833 1 0 0 forward_v I I I I #
coedge $-1 $107 $108 $109 $110 reversed $42 $-1 #
face $-1 $-1 $111 $24 $-1 $112 forward single #
loop $-1 $113 $114 $44 #
cone-surface $-1 -48.306237332017751 -28.267871449203447 2.2371130382585882 0 0.78801076186113728 -0.61566146476048833 0.5 0 0 1 I I -0.70710678118654746 0.70710678118654746 0.5 forward I I I I #
loop $-1 $-1 $115 $31 #
coedge $-1 $72 $72 $116 $117 reversed $45 $-1 #
face $-1 $118 $119 $25 $-1 $120 reversed single #
loop $-1 $-1 $121 $47 #
plane-surface $-1 -43.537798169058718 -17.538160368612083 43.270127879742731 0 0.64278761758704617 0.76604443648966558 1 0 0 forward_v I I I I #
coedge $-1 $122 $123 $124 $125 reversed $48 $-1 #
face $-1 $-1 $126 $26 $-1 $127 forward single #
loop $-1 $128 $129 $50 #
cone-surface $-1 -52.05361915649155 25.714005743322474 -0.7412037341592761 0 -0.64278761758704617 -0.76604443648966558 0.75 0 0 1 I I -0.70710678118654757 0.70710678118654757 0.75 forward I I I I #
loop $-1 $-1 $130 $33 #
coedge $-1 $81 $81 $131 $132 reversed $51 $-1 #
face $-1 $-1 $133 $27 $-1 $134 forward single #
loop $-1 $135 $136 $53 #
cone-surface $-1 -35.021977181625871 25.714005743322474 -0.7412037341592761 0 -0.64278761758704617 -0.76604443648966558 0.75 0 0 1 I I -0.70710678118654757 0.70710678118654757 0.75 forward I I I I #
loop $-1 $-1 $137 $34 #
coedge $-1 $86 $86 $138 $139 reversed $54 $-1 #
face $-1 $140 $141 $21 $-1 $142 reversed single #
loop $-1 $-1 $143 $56 #
plane-surface $-1 0 -32.960960582412561 0 0 1 0 0 0 1 forward_v I I I I #
coedge $-1 $144 $145 $146 $147 forward $57 $-1 #
coedge $-1 $148 $59 $149 $150 forward $36 $-1 #
coedge $-1 $59 $148 $151 $152 forward $36 $-1 #
coedge $-1 $153 $154 $59 $94 reversed $155 $-1 #
edge $-1 $156 -32.960960582412561 $157 32.960960582412561 $93 $158 forward 7 unknown #
face $-1 $159 $160 $22 $-1 $161 reversed single #
loop $-1 $-1 $162 $60 #
plane-surface $-1 -74.804178575160734 -31.388904780264966 0 1 0 0 0 0 -1 forward_v I I I I #
coedge $-1 $163 $164 $99 $165 forward $61 $-1 #
coedge $-1 $166 $63 $98 $165 reversed $39 $-1 #
coedge $-1 $63 $166 $167 $168 reversed $39 $-1 #
coedge $-1 $169 $170 $63 $102 reversed $160 $-1 #
edge $-1 $171 -6.6800088790437666 $172 6.6800088790437666 $101 $173 forward 7 unknown #
face $-1 $174 $175 $23 $-1 $176 forward single #
loop $-1 $-1 $177 $64 #
plane-surface $-1 -63.408047139735338 -141.87368186653129 87.78700566660703 1 0 0 0 0.78801076186113728 -0.61566146476048833 forward_v I I I I #
coedge $-1 $178 $179 $180 $181 reversed $65 $-1 #
coedge $-1 $108 $67 $182 $183 reversed $42 $-1 #
coedge $-1 $67 $107 $178 $184 reversed $42 $-1 #
coedge $-1 $180 $185 $67 $110 forward $175 $-1 #
edge $-1 $186 37.975880350853082 $187 41.089260159370085 $109 $188 forward 7 unknown #
loop $-1 $-1 $116 $68 #
plane-surface $-1 -48.306237332017758 -32.960960582412554 2.6950643351668759 0 -0.78801076186113728 0.61566146476048833 1 0 0 forward_v I I I I #
loop $-1 $-1 $189 $44 #
coedge $-1 $114 $114 $115 $190 reversed $69 $-1 #
coedge $-1 $115 $115 $114 $190 forward $71 $-1 #
coedge $-1 $116 $116 $72 $117 forward $111 $-1 #
edge $-1 $191 5.2472125750573812e-016 $191 6.2831853071796013 $116 $192 forward 7 unknown #
face $-1 $193 $194 $25 $-1 $195 reversed single #
loop $-1 $-1 $196 $73 #
plane-surface $-1 -23.667549198382094 71.302946920069047 149.14683444349276 -1 0 0 0 0.64278761758704617 0.76604443648966558 forward_v I I I I #
coedge $-1 $197 $198 $199 $200 reversed $74 $-1 #
coedge $-1 $123 $76 $201 $202 reversed $48 $-1 #
coedge $-1 $76 $122 $197 $203 reversed $48 $-1 #
coedge $-1 $199 $204 $76 $125 forward $205 $-1 #
edge $-1 $206 2.6905128776219627 $207 9.5832289694483492 $124 $208 forward 7 unknown #
loop $-1 $-1 $131 $77 #
plane-surface $-1 -43.537798169058718 -17.538160368612083 43.270127879742731 0 0.64278761758704617 0.76604443648966558 1 0 0 forward_v I I I I #
loop $-1 $-1 $209 $50 #
coedge $-1 $129 $129 $130 $210 reversed $78 $-1 #
coedge $-1 $130 $130 $129 $210 forward $80 $-1 #
coedge $-1 $131 $131 $81 $132 forward $126 $-1 #
edge $-1 $211 1.2693505916054849e-015 $211 6.2831853071796013 $131 $212 forward 7 unknown #
loop $-1 $-1 $138 $82 #
plane-surface $-1 -43.537798169058718 -17.538160368612083 43.270127879742731 0 0.64278761758704617 0.76604443648966558 1 0 0 forward_v I I I I #
loop $-1 $-1 $213 $53 #
coedge $-1 $136 $136 $137 $214 reversed $83 $-1 #
coedge $-1 $137 $137 $136 $214 forward $85 $-1 #
coedge $-1 $138 $138 $86 $139 forward $133 $-1 #
edge $-1 $215 1.2693505916054849e-015 $215 6.2831853071796013 $138 $216 forward 7 unknown #
face $-1 $217 $218 $21 $-1 $219 reversed single #
loop $-1 $-1 $220 $87 #
plane-surface $-1 -69.106112857448039 0 0 1 0 0 0 0 -1 forward_v I I I I #
coedge $-1 $221 $151 $222 $223 forward $88 $-1 #
coedge $-1 $224 $90 $221 $225 forward $57 $-1 #
coedge $-1 $90 $224 $226 $227 forward $57 $-1 #
coedge $-1 $154 $153 $90 $147 reversed $155 $-1 #
edge $-1 $228 -32.960960582412561 $229 32.960960582412561 $146 $230 forward 7 unknown #
coedge $-1 $92 $91 $220 $231 forward $36 $-1 #
coedge $-1 $232 $233 $91 $150 reversed $218 $-1 #
edge $-1 $157 -69.106112857448039 $234 69.106112857448039 $149 $235 forward 7 unknown #
coedge $-1 $143 $236 $92 $152 reversed $88 $-1 #
edge $-1 $237 -69.106112857448039 $156 69.106112857448039 $151 $238 forward 7 unknown #
coedge $-1 $146 $93 $236 $239 forward $155 $-1 #
coedge $-1 $93 $146 $232 $240 reversed $155 $-1 #
loop $-1 $-1 $153 $217 #
vertex $-1 $94 $241 #
vertex $-1 $94 $242 #
straight-curve $-1 69.106112857448039 0 6.6800088790437666 0 1 0 I I #
face $-1 $243 $244 $22 $-1 $245 reversed single #
loop $-1 $-1 $101 $95 #
plane-surface $-1 -71.955145716304386 -29.81684897811737 0 0 -1 0 0 0 -1 forward_v I I I I #
coedge $-1 $246 $247 $248 $249 forward $96 $-1 #
coedge $-1 $250 $98 $170 $251 forward $61 $-1 #
coedge $-1 $98 $250 $252 $253 forward $61 $-1 #
edge $-1 $254 -32.960960582412561 $172 -29.81684897811737 $98 $255 forward 7 unknown #
coedge $-1 $100 $99 $256 $257 reversed $39 $-1 #
coedge $-1 $258 $259 $100 $168 forward $244 $-1 #
edge $-1 $171 29.81684897811737 $260 32.960960582412561 $167 $261 forward 7 unknown #
coedge $-1 $248 $101 $259 $262 reversed $160 $-1 #
coedge $-1 $101 $248 $163 $251 reversed $160 $-1 #
vertex $-1 $168 $263 #
vertex $-1 $251 $264 #
straight-curve $-1 -69.106112857448039 -29.81684897811737 0 0 0 1 I I #
face $-1 $-1 $265 $23 $-1 $266 reversed single #
loop $-1 $-1 $109 $103 #
plane-surface $-1 0 0 6.6800088790437666 0 0 1 1 0 0 forward_v I I I I #
coedge $-1 $267 $268 $269 $270 reversed $104 $-1 #
coedge $-1 $271 $106 $108 $184 forward $65 $-1 #
coedge $-1 $106 $271 $267 $272 forward $65 $-1 #
coedge $-1 $269 $109 $106 $181 forward $175 $-1 #
edge $-1 $187 9.0513088582912999 $273 39.254928473726459 $180 $274 forward 7 unknown #
coedge $-1 $275 $276 $107 $183 forward $265 $-1 #
edge $-1 $277 -41.198438498136646 $186 -37.213493954259746 $182 $278 forward 7 unknown #
edge $-1 $187 -5.0569671592621157 $277 1.1373479346495045e-014 $108 $279 forward 7 unknown #
coedge $-1 $109 $269 $275 $280 forward $175 $-1 #
vertex $-1 $110 $281 #
vertex $-1 $110 $282 #
straight-curve $-1 -33.204427524300179 -70.936840933265643 6.6800088790437684 0 1 0 I I #
coedge $-1 $189 $189 $-1 $283 reversed $113 $-1 #
edge $-1 $284 0 $284 6.2831853071796004 $114 $285 forward 7 unknown #
vertex $-1 $117 $286 #
ellipse-curve $-1 -48.306237332017751 -31.404270678154056 4.6875366071053177 0 -0.78801076186113728 0.61566146476048833 1 0 0 1 I I #
face $-1 $-1 $205 $25 $-1 $287 forward single #
loop $-1 $-1 $288 $118 #
plane-surface $-1 0 32.960960582412561 0 0 -1 0 0 0 -1 forward_v I I I I #
coedge $-1 $289 $290 $291 $292 reversed $119 $-1 #
coedge $-1 $293 $121 $123 $203 forward $74 $-1 #
coedge $-1 $121 $293 $289 $294 forward $74 $-1 #
coedge $-1 $291 $124 $121 $200 forward $205 $-1 #
edge $-1 $207 -41.639148055205986 $295 -1.8986501138527352 $199 $296 forward 7 unknown #
coedge $-1 $297 $298 $122 $202 forward $194 $-1 #
edge $-1 $299 -73.677083994302677 $206 -67.893408342702614 $201 $300 forward 7 unknown #
edge $-1 $207 56.924119257390544 $299 65.92192116482515 $123 $301 forward 7 unknown #
coedge $-1 $124 $291 $297 $302 forward $205 $-1 #
loop $-1 $-1 $291 $193 #
vertex $-1 $202 $303 #
vertex $-1 $125 $304 #
straight-curve $-1 -63.408047139735345 35.651473460034524 6.6800088790437684 0 -1 0 I I #
coedge $-1 $209 $209 $-1 $305 reversed $128 $-1 #
edge $-1 $306 0 $306 6.2831853071796004 $129 $307 forward 7 unknown #
vertex $-1 $132 $308 #
ellipse-curve $-1 -52.05361915649155 29.514602536499357 3.7881710532437389 0 0.64278761758704617 0.76604443648966558 1.5 0 0 1 I I #
coedge $-1 $213 $213 $-1 $309 reversed $135 $-1 #
edge $-1 $310 0 $310 6.2831853071796004 $136 $311 forward 7 unknown #
vertex $-1 $139 $312 #
ellipse-curve $-1 -35.021977181625871 29.514602536499357 3.7881710532437389 0 0.64278761758704617 0.76604443648966558 1.5 0 0 1 I I #
face $-1 $-1 $155 $21 $-1 $313 reversed single #
loop $-1 $-1 $232 $140 #
plane-surface $-1 0 32.960960582412561 0 0 -1 0 0 0 -1 forward_v I I I I #
coedge $-1 $314 $222 $148 $231 reversed $141 $-1 #
coedge $-1 $236 $143 $144 $225 reversed $88 $-1 #
coedge $-1 $220 $315 $143 $223 reversed $141 $-1 #
edge $-1 $237 -6.6800088790437666 $316 6.6800088790437666 $222 $317 forward 7 unknown #
coedge $-1 $145 $144 $315 $318 forward $57 $-1 #
edge $-1 $229 -69.106112857448039 $316 69.106112857448039 $221 $319 forward 7 unknown #
coedge $-1 $233 $232 $145 $227 reversed $218 $-1 #
edge $-1 $320 -69.106112857448039 $228 69.106112857448039 $226 $321 forward 7 unknown #
vertex $-1 $147 $322 #
vertex $-1 $239 $323 #
straight-curve $-1 69.106112857448039 0 -6.6800088790437666 0 -1 0 I I #
edge $-1 $234 -32.960960582412561 $237 32.960960582412561 $220 $324 forward 7 unknown #
coedge $-1 $226 $149 $154 $240 forward $218 $-1 #
coedge $-1 $149 $226 $314 $325 reversed $218 $-1 #
vertex $-1 $150 $326 #
straight-curve $-1 0 32.960960582412561 6.6800088790437666 -1 0 0 I I #
coedge $-1 $151 $221 $153 $239 reversed $88 $-1 #
vertex $-1 $231 $327 #
straight-curve $-1 0 -32.960960582412561 6.6800088790437666 1 0 0 I I #
edge $-1 $156 -6.6800088790437666 $229 6.6800088790437666 $153 $328 forward 7 unknown #
edge $-1 $157 -6.6800088790437666 $228 6.6800088790437666 $154 $329 forward 7 unknown #
point $-1 69.106112857448039 -32.960960582412561 6.6800088790437666 #
point $-1 69.106112857448039 32.960960582412561 6.6800088790437666 #
face $-1 $-1 $330 $22 $-1 $331 reversed single #
loop $-1 $-1 $167 $159 #
plane-surface $-1 0 0 -6.6800088790437666 0 0 1 1 0 0 forward_v I I I I #
coedge $-1 $332 $162 $333 $334 reversed $96 $-1 #
coedge $-1 $162 $332 $250 $335 reversed $96 $-1 #
coedge $-1 $170 $169 $162 $249 reversed $160 $-1 #
edge $-1 $336 -6.6800088790437666 $337 6.6800088790437666 $248 $338 forward 7 unknown #
coedge $-1 $164 $163 $247 $335 forward $61 $-1 #
edge $-1 $172 -2.8490328588563472 $336 2.8490328588563472 $170 $339 forward 7 unknown #
coedge $-1 $340 $256 $164 $253 reversed $330 $-1 #
edge $-1 $341 -74.804178575160734 $254 -69.106112857448039 $252 $342 forward 7 unknown #
vertex $-1 $257 $343 #
straight-curve $-1 -69.106112857448039 0 6.6800088790437666 0 1 0 I I #
coedge $-1 $252 $344 $166 $257 forward $330 $-1 #
edge $-1 $260 -6.6800088790437666 $254 6.6800088790437666 $256 $345 forward 7 unknown #
coedge $-1 $333 $167 $344 $346 forward $244 $-1 #
coedge $-1 $167 $333 $169 $262 forward $244 $-1 #
vertex $-1 $346 $347 #
straight-curve $-1 -69.106112857448039 0 -6.6800088790437666 0 -1 0 I I #
edge $-1 $337 -2.8490328588563472 $171 2.8490328588563472 $169 $348 forward 7 unknown #
point $-1 -69.106112857448039 -29.81684897811737 -6.6800088790437666 #
point $-1 -69.106112857448039 -29.81684897811737 6.6800088790437666 #
loop $-1 $-1 $182 $174 #
plane-surface $-1 0 -32.960960582412561 0 0 1 0 0 0 1 forward_v I I I I #
coedge $-1 $268 $177 $179 $272 reversed $104 $-1 #
coedge $-1 $177 $267 $349 $350 reversed $104 $-1 #
coedge $-1 $185 $180 $177 $270 forward $175 $-1 #
edge $-1 $273 -41.089260159370085 $351 -37.975880350853082 $269 $352 forward 7 unknown #
coedge $-1 $179 $178 $276 $353 reversed $65 $-1 #
edge $-1 $354 -1.1373479346495045e-014 $273 5.0569671592621157 $267 $355 forward 7 unknown #
vertex $-1 $181 $356 #
straight-curve $-1 -24.153118666008879 -29.847580773895555 6.6800088790437666 -1 0 0 I I #
coedge $-1 $349 $182 $185 $280 reversed $265 $-1 #
coedge $-1 $182 $349 $271 $353 forward $265 $-1 #
vertex $-1 $183 $357 #
straight-curve $-1 -33.204427524300179 -32.960960582412561 43.893502833303515 0 0 1 I I #
straight-curve $-1 -33.204427524300179 -32.960960582412554 2.6950643351668759 0 -0.61566146476048833 -0.78801076186113728 I I #
edge $-1 $351 -63.408047139735338 $186 -33.204427524300179 $275 $358 forward 7 unknown #
point $-1 -33.204427524300179 -32.960960582412561 6.6800088790437666 #
point $-1 -33.204427524300179 -29.847580773895555 6.6800088790437666 #
edge $-1 $359 1 $359 0 $189 $-1 forward 7 unknown #
vertex $-1 $190 $360 #
ellipse-curve $-1 -48.306237332017751 -28.661876830134016 2.5449437706388323 0 -0.78801076186113728 0.61566146476048833 1 0 0 1 I I #
point $-1 -47.306237332017751 -31.404270678154063 4.6875366071053239 #
plane-surface $-1 0 0 6.6800088790437666 0 0 1 1 0 0 forward_v I I I I #
coedge $-1 $298 $297 $290 $361 forward $194 $-1 #
coedge $-1 $290 $196 $198 $294 reversed $119 $-1 #
coedge $-1 $196 $289 $288 $361 reversed $119 $-1 #
coedge $-1 $204 $199 $196 $292 forward $205 $-1 #
edge $-1 $295 -9.5832289694483492 $362 -2.6905128776219627 $291 $363 forward 7 unknown #
coedge $-1 $198 $197 $298 $364 reversed $74 $-1 #
edge $-1 $365 -65.92192116482515 $295 -56.924119257390544 $289 $366 forward 7 unknown #
vertex $-1 $200 $367 #
straight-curve $-1 -21.768899084529359 26.068244490586171 6.6800088790437719 1 0 0 I I #
coedge $-1 $288 $201 $204 $302 reversed $194 $-1 #
coedge $-1 $201 $288 $293 $364 forward $194 $-1 #
vertex $-1 $202 $368 #
straight-curve $-1 -63.408047139735345 32.960960582412561 74.573417221746382 0 0 1 I I #
straight-curve $-1 -63.408047139735345 -17.538160368612083 43.270127879742731 0 0.76604443648966558 -0.64278761758704617 I I #
edge $-1 $362 23.667549198382094 $206 63.408047139735345 $297 $369 forward 7 unknown #
point $-1 -63.408047139735345 32.960960582412561 6.6800088790437666 #
point $-1 -63.408047139735345 26.068244490586174 6.6800088790437684 #
edge $-1 $370 1 $370 0 $209 $-1 forward 7 unknown #
vertex $-1 $210 $371 #
ellipse-curve $-1 -52.05361915649155 26.196096456512759 -0.16667040679202694 0 0.64278761758704617 0.76604443648966558 1.5 0 0 1 I I #
point $-1 -50.55361915649155 29.514602536499375 3.7881710532437571 #
edge $-1 $372 1 $372 0 $213 $-1 forward 7 unknown #
vertex $-1 $214 $373 #
ellipse-curve $-1 -35.021977181625871 26.196096456512759 -0.16667040679202694 0 0.64278761758704617 0.76604443648966558 1.5 0 0 1 I I #
point $-1 -33.521977181625871 29.514602536499375 3.7881710532437571 #
plane-surface $-1 69.106112857448039 0 0 -1 0 0 0 0 1 forward_v I I I I #
coedge $-1 $315 $220 $233 $325 forward $141 $-1 #
coedge $-1 $222 $314 $224 $318 reversed $141 $-1 #
vertex $-1 $318 $374 #
straight-curve $-1 -69.106112857448039 -32.960960582412561 0 0 0 -1 I I #
edge $-1 $316 -32.960960582412561 $320 32.960960582412561 $315 $375 forward 7 unknown #
straight-curve $-1 0 -32.960960582412561 -6.6800088790437666 -1 0 0 I I #
vertex $-1 $227 $376 #
straight-curve $-1 0 32.960960582412561 -6.6800088790437666 1 0 0 I I #
point $-1 69.106112857448039 32.960960582412561 -6.6800088790437666 #
point $-1 69.106112857448039 -32.960960582412561 -6.6800088790437666 #
straight-curve $-1 -69.106112857448039 0 6.6800088790437666 0 -1 0 I I #
edge $-1 $234 -6.6800088790437666 $320 6.6800088790437666 $233 $377 forward 7 unknown #
point $-1 -69.106112857448039 32.960960582412561 6.6800088790437666 #
point $-1 -69.106112857448039 -32.960960582412561 6.6800088790437666 #
straight-curve $-1 69.106112857448039 -32.960960582412561 0 0 0 -1 I I #
straight-curve $-1 69.106112857448039 32.960960582412561 0 0 0 -1 I I #
loop $-1 $-1 $256 $243 #
plane-surface $-1 0 -32.960960582412561 0 0 1 0 0 0 1 forward_v I I I I #
coedge $-1 $247 $246 $340 $378 reversed $96 $-1 #
coedge $-1 $259 $258 $246 $334 forward $244 $-1 #
edge $-1 $379 -1.5720558021475952 $337 1.5720558021475952 $246 $380 forward 7 unknown #
edge $-1 $336 -1.5720558021475952 $341 1.5720558021475952 $247 $381 forward 7 unknown #
vertex $-1 $251 $382 #
vertex $-1 $262 $383 #
straight-curve $-1 -74.804178575160734 -29.81684897811737 0 0 0 -1 I I #
straight-curve $-1 -71.955145716304386 -29.81684897811737 6.6800088790437666 -1 0 0 I I #
coedge $-1 $344 $252 $332 $378 forward $330 $-1 #
vertex $-1 $335 $384 #
straight-curve $-1 0 -32.960960582412561 6.6800088790437666 1 0 0 I I #
point $-1 -69.106112857448039 -32.960960582412561 6.6800088790437666 #
coedge $-1 $256 $340 $258 $346 reversed $330 $-1 #
straight-curve $-1 -69.106112857448039 -32.960960582412561 0 0 0 1 I I #
edge $-1 $260 -2.8490328588563472 $379 2.8490328588563472 $344 $385 forward 7 unknown #
point $-1 -69.106112857448039 -32.960960582412561 -6.6800088790437666 #
straight-curve $-1 -71.955145716304386 -29.81684897811737 -6.6800088790437666 1 0 0 I I #
coedge $-1 $276 $275 $268 $350 forward $265 $-1 #
edge $-1 $351 37.213493954259746 $354 41.198438498136646 $349 $386 forward 7 unknown #
vertex $-1 $280 $387 #
straight-curve $-1 -63.408047139735338 -70.936840933265643 6.6800088790437684 0 -1 0 I I #
edge $-1 $354 -39.254928473726459 $277 -9.0513088582912999 $276 $388 forward 7 unknown #
vertex $-1 $353 $389 #
straight-curve $-1 -63.408047139735338 -32.960960582412554 2.6950643351668759 0 0.61566146476048833 0.78801076186113728 I I #
point $-1 -63.408047139735338 -29.847580773895555 6.6800088790437666 #
point $-1 -33.204427524300179 -32.960960582412561 2.6950643351668671 #
straight-curve $-1 0 -32.960960582412561 6.6800088790437666 1 0 0 I I #
vertex $-1 $283 $390 #
point $-1 -47.306237332017751 -28.661876830134016 2.5449437706388323 #
edge $-1 $362 67.893408342702614 $365 73.677083994302677 $288 $391 forward 7 unknown #
vertex $-1 $302 $392 #
straight-curve $-1 -23.667549198382094 35.651473460034524 6.6800088790437684 0 1 0 I I #
edge $-1 $365 1.8986501138527352 $299 41.639148055205986 $298 $393 forward 7 unknown #
vertex $-1 $364 $394 #
straight-curve $-1 -23.667549198382094 -17.538160368612083 43.270127879742731 0 -0.76604443648966558 0.64278761758704617 I I #
point $-1 -23.667549198382094 26.068244490586174 6.6800088790437684 #
point $-1 -63.408047139735345 32.960960582412561 0.89633322744369792 #
straight-curve $-1 0 32.960960582412561 6.6800088790437666 -1 0 0 I I #
vertex $-1 $305 $395 #
point $-1 -50.55361915649155 26.196096456512759 -0.16667040679202694 #
vertex $-1 $309 $396 #
point $-1 -33.521977181625871 26.196096456512759 -0.16667040679202694 #
point $-1 -69.106112857448039 -32.960960582412561 -6.6800088790437666 #
straight-curve $-1 -69.106112857448039 0 -6.6800088790437666 0 1 0 I I #
point $-1 -69.106112857448039 32.960960582412561 -6.6800088790437666 #
straight-curve $-1 -69.106112857448039 32.960960582412561 0 0 0 -1 I I #
edge $-1 $341 -6.6800088790437666 $379 6.6800088790437666 $332 $397 forward 7 unknown #
vertex $-1 $334 $398 #
straight-curve $-1 -74.804178575160734 -31.388904780264966 -6.6800088790437666 0 1 0 I I #
straight-curve $-1 -74.804178575160734 -31.388904780264966 6.6800088790437666 0 -1 0 I I #
point $-1 -74.804178575160734 -29.81684897811737 6.6800088790437666 #
point $-1 -74.804178575160734 -29.81684897811737 -6.6800088790437666 #
point $-1 -74.804178575160734 -32.960960582412561 6.6800088790437666 #
straight-curve $-1 -71.955145716304386 -32.960960582412561 -6.6800088790437666 -1 0 0 I I #
straight-curve $-1 -63.408047139735338 -32.960960582412561 43.893502833303515 0 0 -1 I I #
point $-1 -63.408047139735338 -32.960960582412561 6.6800088790437666 #
straight-curve $-1 -24.153118666008879 -32.960960582412561 2.6950643351668622 1 0 0 I I #
point $-1 -63.408047139735338 -32.960960582412561 2.6950643351668671 #
point $-1 -48.306237332017751 -27.873866068272878 1.9292823058783442 #
straight-curve $-1 -23.667549198382094 32.960960582412561 74.573417221746382 0 0 -1 I I #
point $-1 -23.667549198382094 32.960960582412561 6.6800088790437666 #
straight-curve $-1 -21.768899084529359 32.960960582412554 0.89633322744369437 -1 0 0 I I #
point $-1 -23.667549198382094 32.960960582412561 0.89633322744369792 #
point $-1 -52.05361915649155 25.231915030132189 -1.3157370615265251 #
point $-1 -35.021977181625871 25.231915030132189 -1.3157370615265251 #
straight-curve $-1 -74.804178575160734 -32.960960582412561 0 0 0 -1 I I #
point $-1 -74.804178575160734 -32.960960582412561 -6.6800088790437666 #
End-of-ACIS-data 