500 0 11 0           
7 Unknown 11 ACIS 5.0 NT 24 Thu Mar 25 19:04:24 1999 
-1 9.9999999999999995e-007 1e-010 
body $-1 $11 $-1 $12 #
body $-1 $13 $-1 $14 #
body $-1 $15 $-1 $16 #
body $-1 $17 $-1 $18 #
body $-1 $19 $-1 $20 #
body $-1 $21 $-1 $22 #
body $-1 $23 $-1 $24 #
body $-1 $25 $-1 $26 #
body $-1 $27 $-1 $28 #
body $-1 $29 $-1 $30 #
body $-1 $31 $-1 $32 #
lump $-1 $-1 $33 $0 #
transform $-1 1 0 0 0 1 0 0 0 1 74.30158391064181 49.381857156761704 22.483235394722286 1 rotate no_reflect no_shear #
lump $-1 $-1 $34 $1 #
transform $-1 1 0 0 0 1 0 0 0 1 74.30158391064181 49.381857156761704 22.483235394722286 1 rotate no_reflect no_shear #
lump $-1 $-1 $35 $2 #
transform $-1 1 0 0 0 1 0 0 0 1 74.30158391064181 49.381857156761704 22.483235394722286 1 rotate no_reflect no_shear #
lump $-1 $-1 $36 $3 #
transform $-1 1 0 0 0 1 0 0 0 1 74.30158391064181 49.381857156761704 22.483235394722286 1 rotate no_reflect no_shear #
lump $-1 $-1 $37 $4 #
transform $-1 1 0 0 0 1 0 0 0 1 74.30158391064181 49.381857156761704 22.483235394722286 1 rotate no_reflect no_shear #
lump $-1 $-1 $38 $5 #
transform $-1 1 0 0 0 1 0 0 0 1 74.30158391064181 49.381857156761704 22.483235394722286 1 rotate no_reflect no_shear #
lump $-1 $-1 $39 $6 #
transform $-1 1 0 0 0 1 0 0 0 1 74.30158391064181 49.381857156761704 22.483235394722286 1 rotate no_reflect no_shear #
lump $-1 $-1 $40 $7 #
transform $-1 1 0 0 0 1 0 0 0 1 74.30158391064181 49.381857156761704 22.483235394722286 1 rotate no_reflect no_shear #
lump $-1 $-1 $41 $8 #
transform $-1 1 0 0 0 1 0 0 0 1 74.30158391064181 49.381857156761704 22.483235394722286 1 rotate no_reflect no_shear #
lump $-1 $-1 $42 $9 #
transform $-1 1 0 0 0 1 0 0 0 1 74.30158391064181 49.381857156761704 22.483235394722286 1 rotate no_reflect no_shear #
lump $-1 $-1 $43 $10 #
transform $-1 1 0 0 0 1 0 0 0 1 74.30158391064181 49.381857156761704 22.483235394722286 1 rotate no_reflect no_shear #
shell $-1 $-1 $-1 $44 $-1 $11 #
shell $-1 $-1 $-1 $45 $-1 $13 #
shell $-1 $-1 $-1 $46 $-1 $15 #
shell $-1 $-1 $-1 $47 $-1 $17 #
shell $-1 $-1 $-1 $48 $-1 $19 #
shell $-1 $-1 $-1 $49 $-1 $21 #
shell $-1 $-1 $-1 $50 $-1 $23 #
shell $-1 $-1 $-1 $51 $-1 $25 #
shell $-1 $-1 $-1 $52 $-1 $27 #
shell $-1 $-1 $-1 $53 $-1 $29 #
shell $-1 $-1 $-1 $54 $-1 $31 #
face $-1 $55 $56 $33 $-1 $57 forward single #
face $-1 $58 $59 $34 $-1 $60 forward single #
face $-1 $61 $62 $35 $-1 $63 reversed single #
face $-1 $64 $65 $36 $-1 $66 reversed single #
face $-1 $67 $68 $37 $-1 $69 forward single #
face $-1 $70 $71 $38 $-1 $72 forward single #
face $-1 $73 $74 $39 $-1 $75 forward single #
face $-1 $76 $77 $40 $-1 $78 reversed single #
face $-1 $79 $80 $41 $-1 $81 forward single #
face $-1 $82 $83 $42 $-1 $84 forward single #
face $-1 $85 $86 $43 $-1 $87 forward single #
face $-1 $88 $89 $33 $-1 $90 reversed single #
loop $-1 $-1 $91 $44 #
plane-surface $-1 0 0 22.483235394722286 0 0 1 1 0 0 forward_v I I I I #
face $-1 $92 $93 $34 $-1 $94 reversed single #
loop $-1 $-1 $95 $45 #
plane-surface $-1 -66.023942381444613 0 21.965760492250126 0 0 1 1 0 0 forward_v I I I I #
face $-1 $96 $97 $35 $-1 $98 reversed single #
loop $-1 $-1 $99 $46 #
plane-surface $-1 47.224047881221516 -45.233296424316549 0 1 0 0 0 0 -1 forward_v I I I I #
face $-1 $100 $101 $36 $-1 $102 reversed single #
loop $-1 $-1 $103 $47 #
plane-surface $-1 -43.16907906327252 -49.381857156761697 14.368492181568769 0 -0.51503808176128008 0.85716729658548041 1 0 0 forward_v I I I I #
face $-1 $104 $105 $37 $-1 $106 forward single #
loop $-1 $107 $108 $48 #
cone-surface $-1 -51.915412136657451 -41.657617116292577 16.808783558110672 0 0.51503808176128008 -0.85716729658548041 2.5 0 0 1 I I 0 1 2.5 forward I I I I #
face $-1 $109 $110 $38 $-1 $111 forward single #
loop $-1 $112 $113 $49 #
cone-surface $-1 -43.16907906327252 -41.657617116292577 16.808783558110672 0 0.51503808176128008 -0.85716729658548041 2.5 0 0 1 I I 0 1 2.5 forward I I I I #
face $-1 $114 $115 $39 $-1 $116 forward single #
loop $-1 $117 $118 $50 #
cone-surface $-1 -34.422745989887581 -41.657617116292577 16.808783558110672 0 0.51503808176128008 -0.85716729658548041 2.5 0 0 1 I I 0 1 2.5 forward I I I I #
face $-1 $119 $120 $40 $-1 $121 reversed single #
loop $-1 $-1 $122 $51 #
plane-surface $-1 -43.16907906327252 -35.27516884210187 65.235566149224979 0 0.51503808176128008 0.85716729658548041 1 0 0 forward_v I I I I #
face $-1 $123 $124 $41 $-1 $125 forward single #
loop $-1 $126 $127 $52 #
cone-surface $-1 -51.915412136657451 41.657617116292563 16.808783558110672 0 -0.51503808176128008 -0.85716729658548041 2.5 0 0 1 I I 0 1 2.5 forward I I I I #
face $-1 $128 $129 $42 $-1 $130 forward single #
loop $-1 $131 $132 $53 #
cone-surface $-1 -43.16907906327252 41.657617116292563 16.808783558110672 0 -0.51503808176128008 -0.85716729658548041 2.5 0 0 1 I I 0 1 2.5 forward I I I I #
face $-1 $133 $134 $43 $-1 $135 forward single #
loop $-1 $136 $137 $54 #
cone-surface $-1 -34.422745989887581 41.657617116292563 16.808783558110672 0 -0.51503808176128008 -0.85716729658548041 2.5 0 0 1 I I 0 1 2.5 forward I I I I #
face $-1 $138 $139 $33 $-1 $140 reversed single #
loop $-1 $-1 $141 $55 #
plane-surface $-1 0 0 -22.483235394722286 0 0 1 1 0 0 forward_v I I I I #
coedge $-1 $142 $143 $144 $145 forward $56 $-1 #
face $-1 $146 $147 $34 $-1 $148 reversed single #
loop $-1 $-1 $149 $58 #
plane-surface $-1 -66.023942381444613 0 14.847727491433147 0 0 1 1 0 0 forward_v I I I I #
coedge $-1 $150 $151 $152 $153 forward $59 $-1 #
face $-1 $154 $155 $35 $-1 $156 forward single #
loop $-1 $-1 $157 $61 #
plane-surface $-1 60.762815895931666 -41.084735691871394 0 0 -1 0 0 0 -1 forward_v I I I I #
coedge $-1 $158 $159 $160 $161 forward $62 $-1 #
face $-1 $162 $163 $36 $-1 $164 reversed single #
loop $-1 $-1 $165 $64 #
plane-surface $-1 -28.591857274297627 -125.91814765508519 141.7462678069769 -1 0 0 0 -0.51503808176128008 0.85716729658548041 forward_v I I I I #
coedge $-1 $166 $167 $168 $169 reversed $65 $-1 #
face $-1 $-1 $170 $37 $-1 $171 forward single #
loop $-1 $172 $173 $67 #
cone-surface $-1 -51.915412136657451 -40.042179668463497 14.120244207343966 0 0.51503808176128008 -0.85716729658548041 1.25 0 0 1 I I -0.70710678118654746 0.70710678118654746 1.25 forward I I I I #
loop $-1 $-1 $174 $48 #
coedge $-1 $108 $108 $175 $176 reversed $68 $-1 #
face $-1 $-1 $177 $38 $-1 $178 forward single #
loop $-1 $179 $180 $70 #
cone-surface $-1 -43.16907906327252 -40.042179668463497 14.120244207343966 0 0.51503808176128008 -0.85716729658548041 1.25 0 0 1 I I -0.70710678118654746 0.70710678118654746 1.25 forward I I I I #
loop $-1 $-1 $181 $49 #
coedge $-1 $113 $113 $182 $183 reversed $71 $-1 #
face $-1 $-1 $184 $39 $-1 $185 forward single #
loop $-1 $186 $187 $73 #
cone-surface $-1 -34.422745989887581 -40.042179668463497 14.120244207343966 0 0.51503808176128008 -0.85716729658548041 1.25 0 0 1 I I -0.70710678118654746 0.70710678118654746 1.25 forward I I I I #
loop $-1 $-1 $188 $50 #
coedge $-1 $118 $118 $189 $190 reversed $74 $-1 #
face $-1 $191 $192 $40 $-1 $193 forward single #
loop $-1 $-1 $194 $76 #
plane-surface $-1 -28.591857274297627 41.261121656221626 192.61334177463311 -1 0 0 0 0.51503808176128008 0.85716729658548041 forward_v I I I I #
coedge $-1 $195 $196 $197 $198 reversed $77 $-1 #
face $-1 $-1 $199 $41 $-1 $200 forward single #
loop $-1 $201 $202 $79 #
cone-surface $-1 -51.915412136657451 40.042179668463483 14.120244207343966 0 -0.51503808176128008 -0.85716729658548041 1.25 0 0 1 I I -0.70710678118654746 0.70710678118654746 1.25 forward I I I I #
loop $-1 $-1 $203 $52 #
coedge $-1 $127 $127 $204 $205 reversed $80 $-1 #
face $-1 $-1 $206 $42 $-1 $207 forward single #
loop $-1 $208 $209 $82 #
cone-surface $-1 -43.16907906327252 40.042179668463483 14.120244207343966 0 -0.51503808176128008 -0.85716729658548041 1.25 0 0 1 I I -0.70710678118654746 0.70710678118654746 1.25 forward I I I I #
loop $-1 $-1 $210 $53 #
coedge $-1 $132 $132 $211 $212 reversed $83 $-1 #
face $-1 $-1 $213 $43 $-1 $214 forward single #
loop $-1 $215 $216 $85 #
cone-surface $-1 -34.422745989887581 40.042179668463483 14.120244207343966 0 -0.51503808176128008 -0.85716729658548041 1.25 0 0 1 I I -0.70710678118654746 0.70710678118654746 1.25 forward I I I I #
loop $-1 $-1 $217 $54 #
coedge $-1 $137 $137 $218 $219 reversed $86 $-1 #
face $-1 $220 $221 $33 $-1 $222 reversed single #
loop $-1 $-1 $223 $88 #
plane-surface $-1 0 -49.381857156761704 0 0 1 0 0 0 1 forward_v I I I I #
coedge $-1 $224 $225 $226 $227 forward $89 $-1 #
coedge $-1 $228 $91 $229 $230 forward $56 $-1 #
coedge $-1 $91 $228 $231 $232 forward $56 $-1 #
coedge $-1 $233 $234 $91 $145 reversed $235 $-1 #
edge $-1 $236 -49.381857156761704 $237 49.381857156761704 $144 $238 forward 7 unknown #
face $-1 $239 $240 $34 $-1 $241 reversed single #
loop $-1 $-1 $242 $92 #
plane-surface $-1 -57.746300852247415 0 18.406743991841637 -1 0 0 0 0 1 forward_v I I I I #
coedge $-1 $243 $244 $245 $246 forward $93 $-1 #
coedge $-1 $247 $95 $248 $249 reversed $59 $-1 #
coedge $-1 $95 $247 $250 $251 reversed $59 $-1 #
coedge $-1 $242 $252 $95 $153 reversed $147 $-1 #
edge $-1 $253 -49.381857156761704 $254 49.381857156761704 $152 $255 forward 7 unknown #
face $-1 $256 $257 $35 $-1 $258 reversed single #
loop $-1 $-1 $259 $96 #
plane-surface $-1 0 0 22.483235394722286 0 0 1 1 0 0 forward_v I I I I #
coedge $-1 $260 $261 $262 $263 reversed $97 $-1 #
coedge $-1 $264 $99 $265 $266 reversed $62 $-1 #
coedge $-1 $99 $264 $267 $268 reversed $62 $-1 #
coedge $-1 $261 $260 $99 $161 reversed $97 $-1 #
edge $-1 $269 -22.483235394722286 $270 22.483235394722286 $160 $271 forward 7 unknown #
face $-1 $272 $273 $36 $-1 $274 forward single #
loop $-1 $-1 $275 $100 #
plane-surface $-1 0 -49.381857156761704 0 0 1 0 0 0 1 forward_v I I I I #
coedge $-1 $276 $277 $278 $279 reversed $101 $-1 #
coedge $-1 $280 $103 $281 $282 forward $65 $-1 #
coedge $-1 $103 $280 $276 $283 forward $65 $-1 #
coedge $-1 $278 $275 $103 $169 forward $163 $-1 #
edge $-1 $284 -36.161761320611156 $285 -7.0073177426613675 $168 $286 forward 7 unknown #
loop $-1 $-1 $175 $104 #
plane-surface $-1 -43.16907906327252 -49.381857156761697 14.368492181568769 0 -0.51503808176128008 0.85716729658548041 1 0 0 forward_v I I I I #
loop $-1 $-1 $287 $67 #
coedge $-1 $173 $173 $174 $288 reversed $105 $-1 #
coedge $-1 $174 $174 $173 $288 forward $107 $-1 #
coedge $-1 $175 $175 $108 $176 forward $170 $-1 #
edge $-1 $289 -1.7043028484091576e-015 $289 6.2831853071795987 $175 $290 forward 7 unknown #
loop $-1 $-1 $182 $109 #
plane-surface $-1 -43.16907906327252 -49.381857156761697 14.368492181568769 0 -0.51503808176128008 0.85716729658548041 1 0 0 forward_v I I I I #
loop $-1 $-1 $291 $70 #
coedge $-1 $180 $180 $181 $292 reversed $110 $-1 #
coedge $-1 $181 $181 $180 $292 forward $112 $-1 #
coedge $-1 $182 $182 $113 $183 forward $177 $-1 #
edge $-1 $293 -1.7043028484091576e-015 $293 6.2831853071795987 $182 $294 forward 7 unknown #
loop $-1 $-1 $189 $114 #
plane-surface $-1 -43.16907906327252 -49.381857156761697 14.368492181568769 0 -0.51503808176128008 0.85716729658548041 1 0 0 forward_v I I I I #
loop $-1 $-1 $295 $73 #
coedge $-1 $187 $187 $188 $296 reversed $115 $-1 #
coedge $-1 $188 $188 $187 $296 forward $117 $-1 #
coedge $-1 $189 $189 $118 $190 forward $184 $-1 #
edge $-1 $297 -1.7043028484091576e-015 $297 6.2831853071795987 $189 $298 forward 7 unknown #
face $-1 $299 $300 $40 $-1 $301 reversed single #
loop $-1 $-1 $302 $119 #
plane-surface $-1 0 0 22.483235394722286 0 0 1 1 0 0 forward_v I I I I #
coedge $-1 $303 $304 $305 $306 reversed $120 $-1 #
coedge $-1 $307 $122 $308 $309 forward $77 $-1 #
coedge $-1 $122 $307 $303 $310 forward $77 $-1 #
coedge $-1 $305 $302 $122 $198 forward $192 $-1 #
edge $-1 $311 -36.161761320611156 $312 -7.0073177426613675 $197 $313 forward 7 unknown #
loop $-1 $-1 $204 $123 #
plane-surface $-1 -43.16907906327252 -35.27516884210187 65.235566149224979 0 0.51503808176128008 0.85716729658548041 1 0 0 forward_v I I I I #
loop $-1 $-1 $314 $79 #
coedge $-1 $202 $202 $203 $315 reversed $124 $-1 #
coedge $-1 $203 $203 $202 $315 forward $126 $-1 #
coedge $-1 $204 $204 $127 $205 forward $199 $-1 #
edge $-1 $316 2.6871759632143715e-015 $316 6.2831853071796031 $204 $317 forward 7 unknown #
loop $-1 $-1 $211 $128 #
plane-surface $-1 -43.16907906327252 -35.27516884210187 65.235566149224979 0 0.51503808176128008 0.85716729658548041 1 0 0 forward_v I I I I #
loop $-1 $-1 $318 $82 #
coedge $-1 $209 $209 $210 $319 reversed $129 $-1 #
coedge $-1 $210 $210 $209 $319 forward $131 $-1 #
coedge $-1 $211 $211 $132 $212 forward $206 $-1 #
edge $-1 $320 2.6871759632143715e-015 $320 6.2831853071796031 $211 $321 forward 7 unknown #
loop $-1 $-1 $218 $133 #
plane-surface $-1 -43.16907906327252 -35.27516884210187 65.235566149224979 0 0.51503808176128008 0.85716729658548041 1 0 0 forward_v I I I I #
loop $-1 $-1 $322 $85 #
coedge $-1 $216 $216 $217 $323 reversed $134 $-1 #
coedge $-1 $217 $217 $216 $323 forward $136 $-1 #
coedge $-1 $218 $218 $137 $219 forward $213 $-1 #
edge $-1 $324 2.6871759632143715e-015 $324 6.2831853071796031 $218 $325 forward 7 unknown #
face $-1 $326 $327 $33 $-1 $328 reversed single #
loop $-1 $-1 $329 $138 #
plane-surface $-1 -74.30158391064181 0 0 1 0 0 0 0 -1 forward_v I I I I #
coedge $-1 $330 $231 $331 $332 forward $139 $-1 #
coedge $-1 $333 $141 $330 $334 forward $89 $-1 #
coedge $-1 $141 $333 $335 $336 forward $89 $-1 #
coedge $-1 $234 $233 $141 $227 reversed $235 $-1 #
edge $-1 $337 -49.381857156761704 $338 49.381857156761704 $226 $339 forward 7 unknown #
coedge $-1 $143 $142 $340 $341 forward $56 $-1 #
coedge $-1 $342 $343 $142 $230 reversed $327 $-1 #
edge $-1 $237 -74.30158391064181 $344 74.30158391064181 $229 $345 forward 7 unknown #
coedge $-1 $223 $346 $143 $232 reversed $139 $-1 #
edge $-1 $347 -74.30158391064181 $236 74.30158391064181 $231 $348 forward 7 unknown #
coedge $-1 $226 $144 $346 $349 forward $235 $-1 #
coedge $-1 $144 $226 $342 $350 reversed $235 $-1 #
loop $-1 $-1 $233 $326 #
vertex $-1 $145 $351 #
vertex $-1 $145 $352 #
straight-curve $-1 74.30158391064181 0 22.483235394722286 0 1 0 I I #
face $-1 $353 $354 $34 $-1 $355 reversed single #
loop $-1 $-1 $356 $146 #
plane-surface $-1 0 -49.381857156761704 0 0 1 0 0 0 1 forward_v I I I I #
coedge $-1 $245 $152 $357 $358 reversed $147 $-1 #
coedge $-1 $359 $149 $356 $360 reversed $93 $-1 #
coedge $-1 $149 $359 $361 $362 reversed $93 $-1 #
coedge $-1 $252 $242 $149 $246 reversed $147 $-1 #
edge $-1 $363 -49.381857156761704 $364 49.381857156761704 $245 $365 forward 7 unknown #
coedge $-1 $151 $150 $366 $367 reversed $59 $-1 #
coedge $-1 $368 $369 $150 $249 forward $370 $-1 #
edge $-1 $371 -41.289612719919504 $254 -24.734329661525109 $248 $372 forward 7 unknown #
coedge $-1 $373 $357 $151 $251 forward $240 $-1 #
edge $-1 $253 24.734329661525109 $374 41.289612719919504 $250 $375 forward 7 unknown #
coedge $-1 $152 $245 $368 $376 reversed $147 $-1 #
vertex $-1 $251 $377 #
vertex $-1 $249 $378 #
straight-curve $-1 -57.746300852247415 0 21.965760492250126 0 1 0 I I #
face $-1 $379 $380 $35 $-1 $381 reversed single #
loop $-1 $-1 $382 $154 #
plane-surface $-1 0 -49.381857156761704 0 0 1 0 0 0 1 forward_v I I I I #
coedge $-1 $267 $383 $261 $384 forward $155 $-1 #
coedge $-1 $160 $157 $385 $386 reversed $97 $-1 #
coedge $-1 $157 $160 $259 $384 reversed $97 $-1 #
coedge $-1 $387 $388 $157 $263 forward $389 $-1 #
edge $-1 $390 -22.483235394722286 $391 22.483235394722286 $262 $392 forward 7 unknown #
coedge $-1 $159 $158 $382 $393 reversed $62 $-1 #
coedge $-1 $385 $394 $158 $266 forward $380 $-1 #
edge $-1 $395 -26.76520894460343 $270 -18.46808747971312 $265 $396 forward 7 unknown #
coedge $-1 $397 $259 $159 $268 forward $155 $-1 #
edge $-1 $269 18.46808747971312 $398 26.76520894460343 $267 $399 forward 7 unknown #
vertex $-1 $268 $400 #
vertex $-1 $266 $401 #
straight-curve $-1 47.224047881221516 -41.084735691871394 0 0 0 -1 I I #
face $-1 $-1 $402 $36 $-1 $403 forward single #
loop $-1 $-1 $281 $162 #
plane-surface $-1 -57.746300852247415 0 18.406743991841637 -1 0 0 0 0 1 forward_v I I I I #
coedge $-1 $168 $404 $405 $406 forward $163 $-1 #
coedge $-1 $277 $165 $167 $283 reversed $101 $-1 #
coedge $-1 $165 $276 $407 $408 reversed $101 $-1 #
coedge $-1 $404 $168 $165 $279 forward $163 $-1 #
edge $-1 $285 -56.504641721919683 $409 -48.389898508766166 $278 $410 forward 7 unknown #
coedge $-1 $167 $166 $411 $412 reversed $65 $-1 #
coedge $-1 $405 $413 $166 $282 reversed $273 $-1 #
edge $-1 $284 -7.9203227973758348e-015 $414 15.75561788635796 $281 $415 forward 7 unknown #
edge $-1 $416 -15.75561788635796 $285 7.9203227973758348e-015 $276 $417 forward 7 unknown #
vertex $-1 $169 $418 #
vertex $-1 $169 $419 #
straight-curve $-1 -21.58453953163626 -49.381857156761704 14.368492181568762 1 0 0 I I #
coedge $-1 $287 $287 $-1 $420 reversed $172 $-1 #
edge $-1 $421 0 $421 6.2831853071796004 $173 $422 forward 7 unknown #
vertex $-1 $176 $423 #
ellipse-curve $-1 -51.915412136657451 -42.629256961920056 18.425863788145524 0 -0.51503808176128008 0.85716729658548041 2.5 0 0 1 I I #
coedge $-1 $291 $291 $-1 $424 reversed $179 $-1 #
edge $-1 $425 0 $425 6.2831853071796004 $180 $426 forward 7 unknown #
vertex $-1 $183 $427 #
ellipse-curve $-1 -43.16907906327252 -42.629256961920056 18.425863788145524 0 -0.51503808176128008 0.85716729658548041 2.5 0 0 1 I I #
coedge $-1 $295 $295 $-1 $428 reversed $186 $-1 #
edge $-1 $429 0 $429 6.2831853071796004 $187 $430 forward 7 unknown #
vertex $-1 $190 $431 #
ellipse-curve $-1 -34.422745989887581 -42.629256961920056 18.425863788145524 0 -0.51503808176128008 0.85716729658548041 2.5 0 0 1 I I #
face $-1 $-1 $432 $40 $-1 $433 forward single #
loop $-1 $-1 $434 $191 #
plane-surface $-1 0 49.381857156761704 0 0 -1 0 0 0 -1 forward_v I I I I #
coedge $-1 $197 $435 $436 $437 forward $192 $-1 #
coedge $-1 $304 $194 $196 $310 reversed $120 $-1 #
coedge $-1 $194 $303 $438 $439 reversed $120 $-1 #
coedge $-1 $435 $197 $194 $306 forward $192 $-1 #
edge $-1 $312 15.246095938967652 $440 28.751296328650891 $305 $441 forward 7 unknown #
coedge $-1 $196 $195 $442 $443 reversed $77 $-1 #
coedge $-1 $436 $444 $195 $309 reversed $432 $-1 #
edge $-1 $311 83.008096427165498 $445 98.763714313523408 $308 $446 forward 7 unknown #
edge $-1 $447 -98.763714313523408 $312 -83.008096427165498 $303 $448 forward 7 unknown #
vertex $-1 $437 $449 #
vertex $-1 $198 $450 #
straight-curve $-1 -21.58453953163626 35.876656767078465 22.483235394722286 1 0 0 I I #
coedge $-1 $314 $314 $-1 $451 reversed $201 $-1 #
edge $-1 $452 0 $452 6.2831853071796004 $202 $453 forward 7 unknown #
vertex $-1 $205 $454 #
ellipse-curve $-1 -51.915412136657451 42.629256961920056 18.425863788145552 0 0.51503808176128008 0.85716729658548041 2.5 0 0 1 I I #
coedge $-1 $318 $318 $-1 $455 reversed $208 $-1 #
edge $-1 $456 0 $456 6.2831853071796004 $209 $457 forward 7 unknown #
vertex $-1 $212 $458 #
ellipse-curve $-1 -43.16907906327252 42.629256961920056 18.425863788145552 0 0.51503808176128008 0.85716729658548041 2.5 0 0 1 I I #
coedge $-1 $322 $322 $-1 $459 reversed $215 $-1 #
edge $-1 $460 0 $460 6.2831853071796004 $216 $461 forward 7 unknown #
vertex $-1 $219 $462 #
ellipse-curve $-1 -34.422745989887581 42.629256961920056 18.425863788145552 0 0.51503808176128008 0.85716729658548041 2.5 0 0 1 I I #
face $-1 $-1 $235 $33 $-1 $463 reversed single #
loop $-1 $-1 $342 $220 #
plane-surface $-1 0 49.381857156761704 0 0 -1 0 0 0 -1 forward_v I I I I #
coedge $-1 $464 $340 $343 $465 forward $221 $-1 #
coedge $-1 $346 $223 $224 $334 reversed $139 $-1 #
coedge $-1 $340 $464 $223 $332 reversed $221 $-1 #
edge $-1 $347 -22.483235394722286 $466 22.483235394722286 $331 $467 forward 7 unknown #
coedge $-1 $225 $224 $464 $468 forward $89 $-1 #
edge $-1 $338 -74.30158391064181 $466 74.30158391064181 $330 $469 forward 7 unknown #
coedge $-1 $343 $342 $225 $336 reversed $327 $-1 #
edge $-1 $470 -74.30158391064181 $337 74.30158391064181 $335 $471 forward 7 unknown #
vertex $-1 $227 $472 #
vertex $-1 $349 $473 #
straight-curve $-1 74.30158391064181 0 -22.483235394722286 0 -1 0 I I #
coedge $-1 $329 $331 $228 $341 reversed $221 $-1 #
edge $-1 $344 -49.381857156761704 $347 49.381857156761704 $340 $474 forward 7 unknown #
coedge $-1 $335 $229 $234 $350 forward $327 $-1 #
coedge $-1 $229 $335 $329 $465 reversed $327 $-1 #
vertex $-1 $230 $475 #
straight-curve $-1 0 49.381857156761704 22.483235394722286 -1 0 0 I I #
coedge $-1 $231 $330 $233 $349 reversed $139 $-1 #
vertex $-1 $341 $476 #
straight-curve $-1 0 -49.381857156761704 22.483235394722286 1 0 0 I I #
edge $-1 $236 -22.483235394722286 $338 22.483235394722286 $233 $477 forward 7 unknown #
edge $-1 $237 -22.483235394722286 $337 22.483235394722286 $234 $478 forward 7 unknown #
point $-1 74.30158391064181 -49.381857156761704 22.483235394722286 #
point $-1 74.30158391064181 49.381857156761704 22.483235394722286 #
face $-1 $-1 $370 $34 $-1 $479 reversed single #
loop $-1 $-1 $480 $239 #
plane-surface $-1 -74.30158391064181 0 0 1 0 0 0 0 -1 forward_v I I I I #
coedge $-1 $357 $373 $243 $360 forward $240 $-1 #
coedge $-1 $250 $356 $242 $358 forward $240 $-1 #
edge $-1 $364 5.644355495512329 $253 12.762388496329308 $357 $481 forward 7 unknown #
coedge $-1 $244 $243 $480 $482 reversed $93 $-1 #
edge $-1 $483 -41.289612719919504 $364 -24.734329661525109 $356 $484 forward 7 unknown #
coedge $-1 $369 $368 $244 $362 forward $370 $-1 #
edge $-1 $363 24.734329661525109 $485 41.289612719919504 $361 $486 forward 7 unknown #
vertex $-1 $362 $487 #
vertex $-1 $360 $488 #
straight-curve $-1 -57.746300852247415 0 14.847727491433147 0 -1 0 I I #
coedge $-1 $489 $490 $247 $367 forward $354 $-1 #
edge $-1 $374 -49.381857156761704 $371 49.381857156761704 $366 $491 forward 7 unknown #
coedge $-1 $361 $248 $252 $376 forward $370 $-1 #
coedge $-1 $248 $361 $489 $492 reversed $370 $-1 #
loop $-1 $-1 $361 $353 #
vertex $-1 $492 $493 #
straight-curve $-1 -33.011971190722306 49.381857156761704 21.965760492250126 1 0 0 I I #
coedge $-1 $356 $250 $490 $494 forward $240 $-1 #
vertex $-1 $494 $495 #
straight-curve $-1 -33.011971190722306 -49.381857156761704 21.965760492250126 -1 0 0 I I #
edge $-1 $254 -12.762388496329308 $363 -5.644355495512329 $368 $496 forward 7 unknown #
point $-1 -57.746300852247415 -49.381857156761704 21.965760492250126 #
point $-1 -57.746300852247415 49.381857156761704 21.965760492250126 #
face $-1 $-1 $389 $35 $-1 $497 reversed single #
loop $-1 $-1 $385 $256 #
plane-surface $-1 0 0 -22.483235394722286 0 0 1 1 0 0 forward_v I I I I #
coedge $-1 $498 $499 $264 $393 forward $257 $-1 #
coedge $-1 $259 $397 $387 $500 forward $155 $-1 #
edge $-1 $391 -43.920175962675991 $269 -16.842639933255683 $259 $501 forward 7 unknown #
coedge $-1 $502 $265 $260 $386 forward $380 $-1 #
edge $-1 $270 16.842639933255683 $390 43.920175962675991 $385 $503 forward 7 unknown #
coedge $-1 $504 $262 $383 $500 reversed $389 $-1 #
coedge $-1 $262 $504 $502 $505 reversed $389 $-1 #
loop $-1 $-1 $262 $379 #
vertex $-1 $505 $506 #
vertex $-1 $263 $507 #
straight-curve $-1 74.30158391064181 -41.084735691871394 0 0 0 1 I I #
edge $-1 $398 -22.483235394722286 $395 22.483235394722286 $382 $508 forward 7 unknown #
coedge $-1 $265 $502 $498 $509 forward $380 $-1 #
vertex $-1 $266 $510 #
straight-curve $-1 47.224047881221516 -22.616648212158275 -22.483235394722286 0 1 0 I I #
coedge $-1 $383 $267 $499 $511 forward $155 $-1 #
vertex $-1 $511 $512 #
straight-curve $-1 47.224047881221516 -22.616648212158275 22.483235394722286 0 -1 0 I I #
point $-1 47.224047881221516 -41.084735691871394 22.483235394722286 #
point $-1 47.224047881221516 -41.084735691871394 -22.483235394722286 #
loop $-1 $-1 $513 $272 #
plane-surface $-1 0 0 22.483235394722286 0 0 1 1 0 0 forward_v I I I I #
coedge $-1 $275 $278 $514 $515 reversed $163 $-1 #
coedge $-1 $413 $281 $275 $406 reversed $273 $-1 #
edge $-1 $516 48.389898508766166 $284 56.504641721919683 $275 $517 forward 7 unknown #
coedge $-1 $411 $514 $277 $408 forward $402 $-1 #
edge $-1 $409 13.577216670780892 $416 27.082417060464195 $407 $518 forward 7 unknown #
vertex $-1 $279 $519 #
straight-curve $-1 -28.591857274297627 -49.381857156761704 70.873133903488451 0 0 1 I I #
coedge $-1 $513 $407 $280 $412 forward $402 $-1 #
edge $-1 $416 7.0073177426613675 $414 36.161761320611156 $411 $520 forward 7 unknown #
coedge $-1 $281 $405 $513 $521 reversed $273 $-1 #
vertex $-1 $521 $522 #
straight-curve $-1 -57.746300852247415 -49.381857156761697 14.368492181568769 0 0.85716729658548041 0.51503808176128008 I I #
vertex $-1 $412 $523 #
straight-curve $-1 -28.591857274297627 -49.381857156761697 14.368492181568769 0 -0.85716729658548041 -0.51503808176128008 I I #
point $-1 -57.746300852247415 -49.381857156761704 14.368492181568765 #
point $-1 -28.591857274297627 -49.381857156761704 14.368492181568765 #
edge $-1 $524 1 $524 0 $287 $-1 forward 7 unknown #
vertex $-1 $288 $525 #
ellipse-curve $-1 -51.915412136657451 -40.685977270665099 15.191703328075816 0 -0.51503808176128008 0.85716729658548041 2.5 0 0 1 I I #
point $-1 -49.415412136657451 -42.629256961920063 18.425863788145527 #
edge $-1 $526 1 $526 0 $291 $-1 forward 7 unknown #
vertex $-1 $292 $527 #
ellipse-curve $-1 -43.16907906327252 -40.685977270665099 15.191703328075816 0 -0.51503808176128008 0.85716729658548041 2.5 0 0 1 I I #
point $-1 -40.66907906327252 -42.629256961920063 18.425863788145527 #
edge $-1 $528 1 $528 0 $295 $-1 forward 7 unknown #
vertex $-1 $296 $529 #
ellipse-curve $-1 -34.422745989887581 -40.685977270665099 15.191703328075816 0 -0.51503808176128008 0.85716729658548041 2.5 0 0 1 I I #
point $-1 -31.922745989887581 -42.629256961920063 18.425863788145527 #
loop $-1 $-1 $308 $299 #
plane-surface $-1 -57.746300852247415 0 18.406743991841637 -1 0 0 0 0 1 forward_v I I I I #
coedge $-1 $530 $442 $444 $531 forward $300 $-1 #
coedge $-1 $302 $305 $530 $532 forward $192 $-1 #
coedge $-1 $444 $308 $302 $437 reversed $432 $-1 #
edge $-1 $533 -28.751296328650891 $311 -15.246095938967652 $302 $534 forward 7 unknown #
coedge $-1 $442 $530 $304 $439 forward $300 $-1 #
edge $-1 $440 73.823435492594271 $447 81.93817870574776 $438 $535 forward 7 unknown #
vertex $-1 $532 $536 #
straight-curve $-1 -28.591857274297627 20.630560828110813 22.483235394722286 0 1 0 I I #
coedge $-1 $434 $438 $307 $443 forward $300 $-1 #
edge $-1 $447 7.0073177426613675 $445 36.161761320611156 $442 $537 forward 7 unknown #
coedge $-1 $308 $436 $434 $531 reversed $432 $-1 #
vertex $-1 $531 $538 #
straight-curve $-1 -57.746300852247415 -35.27516884210187 65.235566149224979 0 0.85716729658548041 -0.51503808176128008 I I #
vertex $-1 $443 $539 #
straight-curve $-1 -28.591857274297627 -35.27516884210187 65.235566149224979 0 -0.85716729658548041 0.51503808176128008 I I #
point $-1 -57.746300852247415 35.876656767078465 22.483235394722286 #
point $-1 -28.591857274297627 35.876656767078465 22.483235394722286 #
edge $-1 $540 1 $540 0 $314 $-1 forward 7 unknown #
vertex $-1 $315 $541 #
ellipse-curve $-1 -51.915412136657451 40.685977270665084 15.191703328075816 0 0.51503808176128008 0.85716729658548041 2.5 0 0 1 I I #
point $-1 -49.415412136657451 42.629256961920049 18.425863788145527 #
edge $-1 $542 1 $542 0 $318 $-1 forward 7 unknown #
vertex $-1 $319 $543 #
ellipse-curve $-1 -43.16907906327252 40.685977270665084 15.191703328075816 0 0.51503808176128008 0.85716729658548041 2.5 0 0 1 I I #
point $-1 -40.66907906327252 42.629256961920049 18.425863788145527 #
edge $-1 $544 1 $544 0 $322 $-1 forward 7 unknown #
vertex $-1 $323 $545 #
ellipse-curve $-1 -34.422745989887581 40.685977270665084 15.191703328075816 0 0.51503808176128008 0.85716729658548041 2.5 0 0 1 I I #
point $-1 -31.922745989887581 42.629256961920049 18.425863788145527 #
plane-surface $-1 74.30158391064181 0 0 -1 0 0 0 0 1 forward_v I I I I #
coedge $-1 $331 $329 $333 $468 reversed $221 $-1 #
edge $-1 $344 -22.483235394722286 $470 22.483235394722286 $343 $546 forward 7 unknown #
vertex $-1 $468 $547 #
straight-curve $-1 -74.30158391064181 -49.381857156761704 0 0 0 -1 I I #
edge $-1 $466 -49.381857156761704 $470 49.381857156761704 $464 $548 forward 7 unknown #
straight-curve $-1 0 -49.381857156761704 -22.483235394722286 -1 0 0 I I #
vertex $-1 $336 $549 #
straight-curve $-1 0 49.381857156761704 -22.483235394722286 1 0 0 I I #
point $-1 74.30158391064181 49.381857156761704 -22.483235394722286 #
point $-1 74.30158391064181 -49.381857156761704 -22.483235394722286 #
straight-curve $-1 -74.30158391064181 0 22.483235394722286 0 -1 0 I I #
point $-1 -74.30158391064181 49.381857156761704 22.483235394722286 #
point $-1 -74.30158391064181 -49.381857156761704 22.483235394722286 #
straight-curve $-1 74.30158391064181 -49.381857156761704 0 0 0 -1 I I #
straight-curve $-1 74.30158391064181 49.381857156761704 0 0 0 -1 I I #
plane-surface $-1 0 49.381857156761704 0 0 -1 0 0 0 -1 forward_v I I I I #
coedge $-1 $490 $489 $359 $482 forward $354 $-1 #
straight-curve $-1 -57.746300852247415 -49.381857156761704 9.2033719959208184 0 0 1 I I #
edge $-1 $485 -49.381857156761704 $483 49.381857156761704 $480 $550 forward 7 unknown #
vertex $-1 $360 $551 #
straight-curve $-1 -33.011971190722306 -49.381857156761704 14.847727491433147 1 0 0 I I #
vertex $-1 $362 $552 #
straight-curve $-1 -33.011971190722306 49.381857156761704 14.847727491433147 -1 0 0 I I #
point $-1 -57.746300852247415 49.381857156761704 14.847727491433147 #
point $-1 -57.746300852247415 -49.381857156761704 14.847727491433147 #
coedge $-1 $480 $366 $369 $492 forward $354 $-1 #
coedge $-1 $366 $480 $373 $494 reversed $354 $-1 #
straight-curve $-1 -74.30158391064181 0 21.965760492250126 0 1 0 I I #
edge $-1 $371 -21.965760492250126 $485 -14.847727491433147 $369 $553 forward 7 unknown #
point $-1 -74.30158391064181 49.381857156761704 21.965760492250126 #
edge $-1 $374 -21.965760492250126 $483 -14.847727491433147 $490 $554 forward 7 unknown #
point $-1 -74.30158391064181 -49.381857156761704 21.965760492250126 #
straight-curve $-1 -57.746300852247415 49.381857156761704 9.2033719959208184 0 0 -1 I I #
plane-surface $-1 74.30158391064181 0 0 -1 0 0 0 0 1 forward_v I I I I #
coedge $-1 $555 $382 $394 $509 reversed $257 $-1 #
coedge $-1 $382 $555 $397 $511 reversed $257 $-1 #
edge $-1 $556 -49.381857156761704 $391 -41.084735691871394 $387 $557 forward 7 unknown #
straight-curve $-1 30.381407947965833 -41.084735691871394 22.483235394722286 -1 0 0 I I #
coedge $-1 $394 $385 $388 $505 forward $380 $-1 #
straight-curve $-1 30.381407947965833 -41.084735691871394 -22.483235394722286 1 0 0 I I #
coedge $-1 $388 $387 $555 $558 forward $389 $-1 #
edge $-1 $390 41.084735691871394 $559 49.381857156761704 $388 $560 forward 7 unknown #
point $-1 74.301583910641824 -41.084735691871394 -22.483235394722286 #
point $-1 74.301583910641824 -41.084735691871394 22.483235394722286 #
straight-curve $-1 47.224047881221516 -49.381857156761704 0 0 0 -1 I I #
edge $-1 $559 -74.30158391064181 $395 -47.224047881221516 $498 $561 forward 7 unknown #
point $-1 47.224047881221516 -49.381857156761704 -22.483235394722286 #
edge $-1 $398 47.224047881221516 $556 74.30158391064181 $499 $562 forward 7 unknown #
point $-1 47.224047881221516 -49.381857156761704 22.483235394722286 #
coedge $-1 $514 $411 $413 $521 forward $402 $-1 #
coedge $-1 $407 $513 $404 $515 forward $402 $-1 #
edge $-1 $516 -57.746300852247415 $409 -28.591857274297627 $404 $563 forward 7 unknown #
vertex $-1 $515 $564 #
straight-curve $-1 -57.746300852247415 -49.381857156761704 70.873133903488451 0 0 -1 I I #
straight-curve $-1 -28.591857274297627 -62.959073827542596 22.483235394722286 0 1 0 I I #
point $-1 -28.591857274297627 -49.381857156761704 22.483235394722286 #
straight-curve $-1 -21.58453953163626 -35.876656767078401 22.483235394722286 -1 0 0 I I #
edge $-1 $414 -27.082417060464195 $516 -13.577216670780892 $513 $565 forward 7 unknown #
point $-1 -57.746300852247415 -35.876656767078401 22.483235394722286 #
point $-1 -28.591857274297627 -35.876656767078401 22.483235394722286 #
vertex $-1 $420 $566 #
point $-1 -49.415412136657451 -40.685977270665099 15.191703328075816 #
vertex $-1 $424 $567 #
point $-1 -40.66907906327252 -40.685977270665099 15.191703328075816 #
vertex $-1 $428 $568 #
point $-1 -31.922745989887581 -40.685977270665099 15.191703328075816 #
coedge $-1 $438 $434 $435 $532 reversed $300 $-1 #
edge $-1 $445 -81.93817870574776 $533 -73.823435492594271 $434 $569 forward 7 unknown #
edge $-1 $440 28.591857274297627 $533 57.746300852247415 $530 $570 forward 7 unknown #
vertex $-1 $437 $571 #
straight-curve $-1 -57.746300852247415 20.630560828110813 22.483235394722286 0 -1 0 I I #
straight-curve $-1 -28.591857274297627 49.381857156761704 96.306670887316557 0 0 -1 I I #
point $-1 -28.591857274297627 49.381857156761704 22.483235394722286 #
straight-curve $-1 -21.58453953163626 49.381857156761704 14.368492181568804 -1 0 0 I I #
point $-1 -57.746300852247415 49.381857156761704 14.368492181568804 #
point $-1 -28.591857274297627 49.381857156761704 14.368492181568804 #
vertex $-1 $451 $572 #
point $-1 -49.415412136657451 40.685977270665084 15.191703328075816 #
vertex $-1 $455 $573 #
point $-1 -40.66907906327252 40.685977270665084 15.191703328075816 #
vertex $-1 $459 $574 #
point $-1 -31.922745989887581 40.685977270665084 15.191703328075816 #
straight-curve $-1 -74.30158391064181 49.381857156761704 0 0 0 -1 I I #
point $-1 -74.30158391064181 -49.381857156761704 -22.483235394722286 #
straight-curve $-1 -74.30158391064181 0 -22.483235394722286 0 1 0 I I #
point $-1 -74.30158391064181 49.381857156761704 -22.483235394722286 #
straight-curve $-1 -74.30158391064181 0 14.847727491433147 0 -1 0 I I #
point $-1 -74.30158391064181 -49.381857156761704 14.847727491433147 #
point $-1 -74.30158391064181 49.381857156761704 14.847727491433147 #
straight-curve $-1 -74.30158391064181 49.381857156761704 0 0 0 -1 I I #
straight-curve $-1 -74.30158391064181 -49.381857156761704 0 0 0 -1 I I #
coedge $-1 $499 $498 $504 $558 reversed $257 $-1 #
vertex $-1 $500 $575 #
straight-curve $-1 74.30158391064181 0 22.483235394722286 0 1 0 I I #
edge $-1 $556 -22.483235394722286 $559 22.483235394722286 $504 $576 forward 7 unknown #
vertex $-1 $558 $577 #
straight-curve $-1 74.30158391064181 0 -22.483235394722286 0 -1 0 I I #
straight-curve $-1 0 -49.381857156761704 -22.483235394722286 -1 0 0 I I #
straight-curve $-1 0 -49.381857156761704 22.483235394722286 1 0 0 I I #
straight-curve $-1 0 -49.381857156761704 22.483235394722286 1 0 0 I I #
point $-1 -57.746300852247415 -49.381857156761704 22.483235394722286 #
straight-curve $-1 -57.746300852247415 -62.959073827542596 22.483235394722286 0 -1 0 I I #
point $-1 -51.915412136657451 -39.398382066261895 13.048785086612115 #
point $-1 -43.16907906327252 -39.398382066261895 13.048785086612115 #
point $-1 -34.422745989887581 -39.398382066261895 13.048785086612115 #
straight-curve $-1 -57.746300852247415 49.381857156761704 96.306670887316557 0 0 1 I I #
straight-curve $-1 0 49.381857156761704 22.483235394722286 -1 0 0 I I #
point $-1 -57.746300852247415 49.381857156761704 22.483235394722286 #
point $-1 -51.915412136657451 39.398382066261881 13.048785086612115 #
point $-1 -43.16907906327252 39.398382066261881 13.048785086612115 #
point $-1 -34.422745989887581 39.398382066261881 13.048785086612115 #
point $-1 74.30158391064181 -49.381857156761704 22.483235394722286 #
straight-curve $-1 74.30158391064181 -49.381857156761704 0 0 0 -1 I I #
point $-1 74.30158391064181 -49.381857156761704 -22.483235394722286 #
End-of-ACIS-data 