500 0 8 0           
7 Unknown 11 ACIS 5.0 NT 24 Fri Mar 26 03:22:31 1999 
-1 9.9999999999999995e-007 1e-010 
body $-1 $8 $-1 $9 #
body $-1 $10 $-1 $11 #
body $-1 $12 $-1 $13 #
body $-1 $14 $-1 $15 #
body $-1 $16 $-1 $17 #
body $-1 $18 $-1 $19 #
body $-1 $20 $-1 $21 #
body $-1 $22 $-1 $23 #
lump $-1 $-1 $24 $0 #
transform $-1 1 0 0 0 1 0 0 0 1 58.954435865352337 33.333086687918836 12.969558461570593 1 rotate no_reflect no_shear #
lump $-1 $-1 $25 $1 #
transform $-1 1 0 0 0 0.83867056331134215 0.54463904215088732 0 -0.54463904215088732 0.83867056331134215 37.923742340658393 -64.217774960502823 115.90164696737457 1 rotate no_reflect no_shear #
lump $-1 $-1 $26 $2 #
transform $-1 1 0 0 0 -0.83867056331134215 -0.54463904215088732 0 0.54463904215088732 -0.83867056331134215 37.923742340658393 8.6073473495391788 18.803304079188024 1 rotate no_reflect no_shear #
lump $-1 $-1 $27 $3 #
transform $-1 1 0 0 0 0.83867056331134215 0.54463904215088732 0 -0.54463904215088732 0.83867056331134215 79.985129390046268 -64.217774960502823 115.90164696737457 1 rotate no_reflect no_shear #
lump $-1 $-1 $28 $4 #
transform $-1 1 0 0 0 -0.83867056331134215 -0.54463904215088732 0 0.54463904215088732 -0.83867056331134215 79.985129390046268 8.6073473495391788 18.803304079188024 1 rotate no_reflect no_shear #
lump $-1 $-1 $29 $5 #
transform $-1 1 0 0 0 0.83867056331134215 -0.54463904215088732 0 0.54463904215088732 0.83867056331134215 34.302663142883048 74.972991157415123 154.02705648301009 1 rotate no_reflect no_shear #
lump $-1 $-1 $30 $6 #
transform $-1 1 0 0 0 -0.83867056331134215 0.54463904215088732 0 -0.54463904215088732 -0.83867056331134215 30.939569978243526 59.786569844961278 20.218480909248072 1 rotate no_reflect no_shear #
lump $-1 $-1 $31 $7 #
transform $-1 1 0 0 0 -0.83867056331134215 0.54463904215088732 0 -0.54463904215088732 -0.83867056331134215 37.665756307522571 59.786569844961278 20.218480909248072 1 rotate no_reflect no_shear #
shell $-1 $-1 $-1 $32 $-1 $8 #
shell $-1 $-1 $-1 $33 $-1 $10 #
shell $-1 $-1 $-1 $34 $-1 $12 #
shell $-1 $-1 $-1 $35 $-1 $14 #
shell $-1 $-1 $-1 $36 $-1 $16 #
shell $-1 $-1 $-1 $37 $-1 $18 #
shell $-1 $-1 $-1 $38 $-1 $20 #
shell $-1 $-1 $-1 $39 $-1 $22 #
face $-1 $40 $41 $24 $-1 $42 forward single #
face $-1 $43 $44 $25 $-1 $45 forward single #
face $-1 $46 $47 $26 $-1 $48 forward single #
face $-1 $49 $50 $27 $-1 $51 forward single #
face $-1 $52 $53 $28 $-1 $54 forward single #
face $-1 $55 $56 $29 $-1 $57 forward single #
face $-1 $58 $59 $30 $-1 $60 forward single #
face $-1 $61 $62 $31 $-1 $63 forward single #
face $-1 $64 $65 $24 $-1 $66 reversed single #
loop $-1 $-1 $67 $32 #
plane-surface $-1 0 0 12.969558461570593 0 0 1 1 0 0 forward_v I I I I #
face $-1 $68 $69 $25 $-1 $70 reversed single #
loop $-1 $-1 $71 $33 #
plane-surface $-1 0 0 117.90887173070467 0 0 1 1 0 0 forward_v I I I I #
face $-1 $72 $73 $26 $-1 $74 forward single #
loop $-1 $75 $76 $34 #
cone-surface $-1 0 0 -2.0940275276955465 0 0 1 2 0 0 1 I I 0 1 2 forward I I I I #
face $-1 $77 $78 $27 $-1 $79 reversed single #
loop $-1 $-1 $80 $35 #
plane-surface $-1 0 0 117.90887173070467 0 0 1 1 0 0 forward_v I I I I #
face $-1 $81 $82 $28 $-1 $83 forward single #
loop $-1 $84 $85 $36 #
cone-surface $-1 0 0 -2.0940275276955465 0 0 1 2 0 0 1 I I 0 1 2 forward I I I I #
face $-1 $86 $87 $29 $-1 $88 reversed single #
loop $-1 $-1 $89 $37 #
plane-surface $-1 0 0 117.90887173070467 0 0 1 1 0 0 forward_v I I I I #
face $-1 $90 $91 $30 $-1 $92 forward single #
loop $-1 $93 $94 $38 #
cone-surface $-1 0 0 -1.541779839472639 0 0 1 1 0 0 1 I I 0 1 1 forward I I I I #
face $-1 $95 $96 $31 $-1 $97 forward single #
loop $-1 $98 $99 $39 #
cone-surface $-1 0 0 -1.541779839472639 0 0 1 1 0 0 1 I I 0 1 1 forward I I I I #
face $-1 $100 $101 $24 $-1 $102 reversed single #
loop $-1 $-1 $103 $40 #
plane-surface $-1 0 0 -12.969558461570593 0 0 1 1 0 0 forward_v I I I I #
coedge $-1 $104 $105 $106 $107 forward $41 $-1 #
face $-1 $108 $109 $25 $-1 $110 reversed single #
loop $-1 $-1 $111 $43 #
plane-surface $-1 0 0 -117.90887173070467 0 0 1 1 0 0 forward_v I I I I #
coedge $-1 $112 $113 $114 $115 forward $44 $-1 #
face $-1 $-1 $116 $26 $-1 $117 forward single #
loop $-1 $-1 $118 $46 #
plane-surface $-1 0 0 -3.1880550553910938 0 0 -1 -1 0 0 forward_v I I I I #
loop $-1 $-1 $119 $34 #
coedge $-1 $76 $76 $118 $120 reversed $47 $-1 #
face $-1 $121 $122 $27 $-1 $123 reversed single #
loop $-1 $-1 $124 $49 #
plane-surface $-1 0 0 -117.90887173070467 0 0 1 1 0 0 forward_v I I I I #
coedge $-1 $125 $126 $127 $128 forward $50 $-1 #
face $-1 $-1 $129 $28 $-1 $130 forward single #
loop $-1 $-1 $131 $52 #
plane-surface $-1 0 0 -3.1880550553910938 0 0 -1 -1 0 0 forward_v I I I I #
loop $-1 $-1 $132 $36 #
coedge $-1 $85 $85 $131 $133 reversed $53 $-1 #
face $-1 $134 $135 $29 $-1 $136 reversed single #
loop $-1 $-1 $137 $55 #
plane-surface $-1 0 0 -117.90887173070467 0 0 1 1 0 0 forward_v I I I I #
coedge $-1 $138 $139 $140 $141 forward $56 $-1 #
face $-1 $-1 $142 $30 $-1 $143 forward single #
loop $-1 $-1 $144 $58 #
plane-surface $-1 0 0 -2.5835596789452797 0 0 -1 -1 0 0 forward_v I I I I #
loop $-1 $-1 $145 $38 #
coedge $-1 $94 $94 $144 $146 reversed $59 $-1 #
face $-1 $-1 $147 $31 $-1 $148 forward single #
loop $-1 $-1 $149 $61 #
plane-surface $-1 0 0 -2.5835596789452797 0 0 -1 -1 0 0 forward_v I I I I #
loop $-1 $-1 $150 $39 #
coedge $-1 $99 $99 $149 $151 reversed $62 $-1 #
face $-1 $152 $153 $24 $-1 $154 reversed single #
loop $-1 $-1 $155 $64 #
plane-surface $-1 0 -33.333086687918836 0 0 1 0 0 0 1 forward_v I I I I #
coedge $-1 $156 $157 $158 $159 forward $65 $-1 #
coedge $-1 $160 $67 $161 $162 forward $41 $-1 #
coedge $-1 $67 $160 $163 $164 forward $41 $-1 #
coedge $-1 $165 $166 $67 $107 reversed $167 $-1 #
edge $-1 $168 -33.333086687918836 $169 33.333086687918836 $106 $170 forward 7 unknown #
face $-1 $171 $172 $25 $-1 $173 reversed single #
loop $-1 $-1 $174 $68 #
plane-surface $-1 0 -235.81774346140935 0 0 1 0 0 0 1 forward_v I I I I #
coedge $-1 $175 $176 $177 $178 forward $69 $-1 #
coedge $-1 $179 $71 $180 $181 forward $44 $-1 #
coedge $-1 $71 $179 $182 $183 forward $44 $-1 #
coedge $-1 $184 $185 $71 $115 reversed $186 $-1 #
edge $-1 $187 -235.81774346140935 $188 235.81774346140935 $114 $189 forward 7 unknown #
loop $-1 $190 $191 $72 #
cone-surface $-1 0 0 0 0 0 1 1 0 0 1 I I -0.70710678118654746 0.70710678118654746 1 forward I I I I #
coedge $-1 $118 $118 $76 $120 forward $73 $-1 #
coedge $-1 $119 $119 $191 $192 forward $75 $-1 #
edge $-1 $193 0 $193 6.2831853071796004 $118 $194 forward 7 unknown #
face $-1 $195 $196 $27 $-1 $197 reversed single #
loop $-1 $-1 $198 $77 #
plane-surface $-1 0 -235.81774346140935 0 0 1 0 0 0 1 forward_v I I I I #
coedge $-1 $199 $200 $201 $202 forward $78 $-1 #
coedge $-1 $203 $80 $204 $205 forward $50 $-1 #
coedge $-1 $80 $203 $206 $207 forward $50 $-1 #
coedge $-1 $208 $209 $80 $128 reversed $210 $-1 #
edge $-1 $211 -235.81774346140935 $212 235.81774346140935 $127 $213 forward 7 unknown #
loop $-1 $214 $215 $81 #
cone-surface $-1 0 0 0 0 0 1 1 0 0 1 I I -0.70710678118654746 0.70710678118654746 1 forward I I I I #
coedge $-1 $131 $131 $85 $133 forward $82 $-1 #
coedge $-1 $132 $132 $215 $216 forward $84 $-1 #
edge $-1 $217 0 $217 6.2831853071796004 $131 $218 forward 7 unknown #
face $-1 $219 $220 $29 $-1 $221 reversed single #
loop $-1 $-1 $222 $86 #
plane-surface $-1 0 -235.81774346140935 0 0 1 0 0 0 1 forward_v I I I I #
coedge $-1 $223 $224 $225 $226 forward $87 $-1 #
coedge $-1 $227 $89 $228 $229 forward $56 $-1 #
coedge $-1 $89 $227 $230 $231 forward $56 $-1 #
coedge $-1 $232 $233 $89 $141 reversed $234 $-1 #
edge $-1 $235 -235.81774346140935 $236 235.81774346140935 $140 $237 forward 7 unknown #
loop $-1 $238 $239 $90 #
cone-surface $-1 0 0 0 0 0 1 0.5 0 0 1 I I -0.70710678118654746 0.70710678118654746 0.5 forward I I I I #
coedge $-1 $144 $144 $94 $146 forward $91 $-1 #
coedge $-1 $145 $145 $239 $240 forward $93 $-1 #
edge $-1 $241 0 $241 6.2831853071796004 $144 $242 forward 7 unknown #
loop $-1 $243 $244 $95 #
cone-surface $-1 0 0 0 0 0 1 0.5 0 0 1 I I -0.70710678118654746 0.70710678118654746 0.5 forward I I I I #
coedge $-1 $149 $149 $99 $151 forward $96 $-1 #
coedge $-1 $150 $150 $244 $245 forward $98 $-1 #
edge $-1 $246 0 $246 6.2831853071796004 $149 $247 forward 7 unknown #
face $-1 $248 $249 $24 $-1 $250 reversed single #
loop $-1 $-1 $251 $100 #
plane-surface $-1 -58.954435865352337 0 0 1 0 0 0 0 -1 forward_v I I I I #
coedge $-1 $252 $163 $253 $254 forward $101 $-1 #
coedge $-1 $255 $103 $252 $256 forward $65 $-1 #
coedge $-1 $103 $255 $257 $258 forward $65 $-1 #
coedge $-1 $166 $165 $103 $159 reversed $167 $-1 #
edge $-1 $259 -33.333086687918836 $260 33.333086687918836 $158 $261 forward 7 unknown #
coedge $-1 $105 $104 $262 $263 forward $41 $-1 #
coedge $-1 $264 $265 $104 $162 reversed $249 $-1 #
edge $-1 $169 -58.954435865352337 $266 58.954435865352337 $161 $267 forward 7 unknown #
coedge $-1 $155 $268 $105 $164 reversed $101 $-1 #
edge $-1 $269 -58.954435865352337 $168 58.954435865352337 $163 $270 forward 7 unknown #
coedge $-1 $158 $106 $268 $271 forward $167 $-1 #
coedge $-1 $106 $158 $264 $272 reversed $167 $-1 #
loop $-1 $-1 $165 $248 #
vertex $-1 $107 $273 #
vertex $-1 $107 $274 #
straight-curve $-1 58.954435865352337 0 12.969558461570593 0 1 0 I I #
face $-1 $275 $276 $25 $-1 $277 reversed single #
loop $-1 $-1 $278 $108 #
plane-surface $-1 -13.131742098106441 0 0 1 0 0 0 0 -1 forward_v I I I I #
coedge $-1 $279 $182 $280 $281 forward $109 $-1 #
coedge $-1 $282 $111 $279 $283 forward $69 $-1 #
coedge $-1 $111 $282 $284 $285 forward $69 $-1 #
coedge $-1 $185 $184 $111 $178 reversed $186 $-1 #
edge $-1 $286 -235.81774346140935 $287 235.81774346140935 $177 $288 forward 7 unknown #
coedge $-1 $113 $112 $289 $290 forward $44 $-1 #
coedge $-1 $291 $292 $112 $181 reversed $276 $-1 #
edge $-1 $188 -13.131742098106441 $293 13.131742098106441 $180 $294 forward 7 unknown #
coedge $-1 $174 $295 $113 $183 reversed $109 $-1 #
edge $-1 $296 -13.131742098106441 $187 13.131742098106441 $182 $297 forward 7 unknown #
coedge $-1 $177 $114 $295 $298 forward $186 $-1 #
coedge $-1 $114 $177 $291 $299 reversed $186 $-1 #
loop $-1 $-1 $184 $275 #
vertex $-1 $115 $300 #
vertex $-1 $115 $301 #
straight-curve $-1 13.131742098106441 0 117.90887173070467 0 1 0 I I #
loop $-1 $-1 $302 $72 #
coedge $-1 $191 $191 $119 $192 reversed $116 $-1 #
edge $-1 $303 0 $303 6.2831853071796004 $191 $304 forward 7 unknown #
vertex $-1 $120 $305 #
ellipse-curve $-1 0 0 -3.1880550553910938 0 0 -1 2 0 0 1 I I #
face $-1 $306 $307 $27 $-1 $308 reversed single #
loop $-1 $-1 $309 $121 #
plane-surface $-1 -13.131742098106441 0 0 1 0 0 0 0 -1 forward_v I I I I #
coedge $-1 $310 $206 $311 $312 forward $122 $-1 #
coedge $-1 $313 $124 $310 $314 forward $78 $-1 #
coedge $-1 $124 $313 $315 $316 forward $78 $-1 #
coedge $-1 $209 $208 $124 $202 reversed $210 $-1 #
edge $-1 $317 -235.81774346140935 $318 235.81774346140935 $201 $319 forward 7 unknown #
coedge $-1 $126 $125 $320 $321 forward $50 $-1 #
coedge $-1 $322 $323 $125 $205 reversed $307 $-1 #
edge $-1 $212 -13.131742098106441 $324 13.131742098106441 $204 $325 forward 7 unknown #
coedge $-1 $198 $326 $126 $207 reversed $122 $-1 #
edge $-1 $327 -13.131742098106441 $211 13.131742098106441 $206 $328 forward 7 unknown #
coedge $-1 $201 $127 $326 $329 forward $210 $-1 #
coedge $-1 $127 $201 $322 $330 reversed $210 $-1 #
loop $-1 $-1 $208 $306 #
vertex $-1 $128 $331 #
vertex $-1 $128 $332 #
straight-curve $-1 13.131742098106441 0 117.90887173070467 0 1 0 I I #
loop $-1 $-1 $333 $81 #
coedge $-1 $215 $215 $132 $216 reversed $129 $-1 #
edge $-1 $334 0 $334 6.2831853071796004 $215 $335 forward 7 unknown #
vertex $-1 $133 $336 #
ellipse-curve $-1 0 0 -3.1880550553910938 0 0 -1 2 0 0 1 I I #
face $-1 $337 $338 $29 $-1 $339 reversed single #
loop $-1 $-1 $340 $134 #
plane-surface $-1 -7.8472173841588866 0 0 1 0 0 0 0 -1 forward_v I I I I #
coedge $-1 $341 $230 $342 $343 forward $135 $-1 #
coedge $-1 $344 $137 $341 $345 forward $87 $-1 #
coedge $-1 $137 $344 $346 $347 forward $87 $-1 #
coedge $-1 $233 $232 $137 $226 reversed $234 $-1 #
edge $-1 $348 -235.81774346140935 $349 235.81774346140935 $225 $350 forward 7 unknown #
coedge $-1 $139 $138 $351 $352 forward $56 $-1 #
coedge $-1 $353 $354 $138 $229 reversed $338 $-1 #
edge $-1 $236 -7.8472173841588866 $355 7.8472173841588866 $228 $356 forward 7 unknown #
coedge $-1 $222 $357 $139 $231 reversed $135 $-1 #
edge $-1 $358 -7.8472173841588866 $235 7.8472173841588866 $230 $359 forward 7 unknown #
coedge $-1 $225 $140 $357 $360 forward $234 $-1 #
coedge $-1 $140 $225 $353 $361 reversed $234 $-1 #
loop $-1 $-1 $232 $337 #
vertex $-1 $141 $362 #
vertex $-1 $141 $363 #
straight-curve $-1 7.8472173841588866 0 117.90887173070467 0 1 0 I I #
loop $-1 $-1 $364 $90 #
coedge $-1 $239 $239 $145 $240 reversed $142 $-1 #
edge $-1 $365 0 $365 6.2831853071796004 $239 $366 forward 7 unknown #
vertex $-1 $146 $367 #
ellipse-curve $-1 0 0 -2.5835596789452797 0 0 -1 1 0 0 1 I I #
loop $-1 $-1 $368 $95 #
coedge $-1 $244 $244 $150 $245 reversed $147 $-1 #
edge $-1 $369 0 $369 6.2831853071796004 $244 $370 forward 7 unknown #
vertex $-1 $151 $371 #
ellipse-curve $-1 0 0 -2.5835596789452797 0 0 -1 1 0 0 1 I I #
face $-1 $-1 $167 $24 $-1 $372 reversed single #
loop $-1 $-1 $264 $152 #
plane-surface $-1 0 33.333086687918836 0 0 -1 0 0 0 -1 forward_v I I I I #
coedge $-1 $373 $262 $265 $374 forward $153 $-1 #
coedge $-1 $268 $155 $156 $256 reversed $101 $-1 #
coedge $-1 $262 $373 $155 $254 reversed $153 $-1 #
edge $-1 $269 -12.969558461570593 $375 12.969558461570593 $253 $376 forward 7 unknown #
coedge $-1 $157 $156 $373 $377 forward $65 $-1 #
edge $-1 $260 -58.954435865352337 $375 58.954435865352337 $252 $378 forward 7 unknown #
coedge $-1 $265 $264 $157 $258 reversed $249 $-1 #
edge $-1 $379 -58.954435865352337 $259 58.954435865352337 $257 $380 forward 7 unknown #
vertex $-1 $159 $381 #
vertex $-1 $271 $382 #
straight-curve $-1 58.954435865352337 0 -12.969558461570593 0 -1 0 I I #
coedge $-1 $251 $253 $160 $263 reversed $153 $-1 #
edge $-1 $266 -33.333086687918836 $269 33.333086687918836 $262 $383 forward 7 unknown #
coedge $-1 $257 $161 $166 $272 forward $249 $-1 #
coedge $-1 $161 $257 $251 $374 reversed $249 $-1 #
vertex $-1 $162 $384 #
straight-curve $-1 0 33.333086687918836 12.969558461570593 -1 0 0 I I #
coedge $-1 $163 $252 $165 $271 reversed $101 $-1 #
vertex $-1 $263 $385 #
straight-curve $-1 0 -33.333086687918836 12.969558461570593 1 0 0 I I #
edge $-1 $168 -12.969558461570593 $260 12.969558461570593 $165 $386 forward 7 unknown #
edge $-1 $169 -12.969558461570593 $259 12.969558461570593 $166 $387 forward 7 unknown #
point $-1 58.954435865352337 -33.333086687918836 12.969558461570593 #
point $-1 58.954435865352337 33.333086687918836 12.969558461570593 #
face $-1 $-1 $186 $25 $-1 $388 reversed single #
loop $-1 $-1 $291 $171 #
plane-surface $-1 0 235.81774346140935 0 0 -1 0 0 0 -1 forward_v I I I I #
coedge $-1 $389 $289 $292 $390 forward $172 $-1 #
coedge $-1 $295 $174 $175 $283 reversed $109 $-1 #
coedge $-1 $289 $389 $174 $281 reversed $172 $-1 #
edge $-1 $296 -117.90887173070467 $391 117.90887173070467 $280 $392 forward 7 unknown #
coedge $-1 $176 $175 $389 $393 forward $69 $-1 #
edge $-1 $287 -13.131742098106441 $391 13.131742098106441 $279 $394 forward 7 unknown #
coedge $-1 $292 $291 $176 $285 reversed $276 $-1 #
edge $-1 $395 -13.131742098106441 $286 13.131742098106441 $284 $396 forward 7 unknown #
vertex $-1 $178 $397 #
vertex $-1 $298 $398 #
straight-curve $-1 13.131742098106441 0 -117.90887173070467 0 -1 0 I I #
coedge $-1 $278 $280 $179 $290 reversed $172 $-1 #
edge $-1 $293 -235.81774346140935 $296 235.81774346140935 $289 $399 forward 7 unknown #
coedge $-1 $284 $180 $185 $299 forward $276 $-1 #
coedge $-1 $180 $284 $278 $390 reversed $276 $-1 #
vertex $-1 $181 $400 #
straight-curve $-1 0 235.81774346140935 117.90887173070467 -1 0 0 I I #
coedge $-1 $182 $279 $184 $298 reversed $109 $-1 #
vertex $-1 $290 $401 #
straight-curve $-1 0 -235.81774346140935 117.90887173070467 1 0 0 I I #
edge $-1 $187 -117.90887173070467 $287 117.90887173070467 $184 $402 forward 7 unknown #
edge $-1 $188 -117.90887173070467 $286 117.90887173070467 $185 $403 forward 7 unknown #
point $-1 13.131742098106441 -235.81774346140935 117.90887173070467 #
point $-1 13.131742098106441 235.81774346140935 117.90887173070467 #
coedge $-1 $302 $302 $-1 $404 reversed $190 $-1 #
vertex $-1 $192 $405 #
ellipse-curve $-1 0 0 -1 0 0 -1 2 0 0 1 I I #
point $-1 2 0 -3.1880550553910938 #
face $-1 $-1 $210 $27 $-1 $406 reversed single #
loop $-1 $-1 $322 $195 #
plane-surface $-1 0 235.81774346140935 0 0 -1 0 0 0 -1 forward_v I I I I #
coedge $-1 $407 $320 $323 $408 forward $196 $-1 #
coedge $-1 $326 $198 $199 $314 reversed $122 $-1 #
coedge $-1 $320 $407 $198 $312 reversed $196 $-1 #
edge $-1 $327 -117.90887173070467 $409 117.90887173070467 $311 $410 forward 7 unknown #
coedge $-1 $200 $199 $407 $411 forward $78 $-1 #
edge $-1 $318 -13.131742098106441 $409 13.131742098106441 $310 $412 forward 7 unknown #
coedge $-1 $323 $322 $200 $316 reversed $307 $-1 #
edge $-1 $413 -13.131742098106441 $317 13.131742098106441 $315 $414 forward 7 unknown #
vertex $-1 $202 $415 #
vertex $-1 $329 $416 #
straight-curve $-1 13.131742098106441 0 -117.90887173070467 0 -1 0 I I #
coedge $-1 $309 $311 $203 $321 reversed $196 $-1 #
edge $-1 $324 -235.81774346140935 $327 235.81774346140935 $320 $417 forward 7 unknown #
coedge $-1 $315 $204 $209 $330 forward $307 $-1 #
coedge $-1 $204 $315 $309 $408 reversed $307 $-1 #
vertex $-1 $205 $418 #
straight-curve $-1 0 235.81774346140935 117.90887173070467 -1 0 0 I I #
coedge $-1 $206 $310 $208 $329 reversed $122 $-1 #
vertex $-1 $321 $419 #
straight-curve $-1 0 -235.81774346140935 117.90887173070467 1 0 0 I I #
edge $-1 $211 -117.90887173070467 $318 117.90887173070467 $208 $420 forward 7 unknown #
edge $-1 $212 -117.90887173070467 $317 117.90887173070467 $209 $421 forward 7 unknown #
point $-1 13.131742098106441 -235.81774346140935 117.90887173070467 #
point $-1 13.131742098106441 235.81774346140935 117.90887173070467 #
coedge $-1 $333 $333 $-1 $422 reversed $214 $-1 #
vertex $-1 $216 $423 #
ellipse-curve $-1 0 0 -1 0 0 -1 2 0 0 1 I I #
point $-1 2 0 -3.1880550553910938 #
face $-1 $-1 $234 $29 $-1 $424 reversed single #
loop $-1 $-1 $353 $219 #
plane-surface $-1 0 235.81774346140935 0 0 -1 0 0 0 -1 forward_v I I I I #
coedge $-1 $425 $351 $354 $426 forward $220 $-1 #
coedge $-1 $357 $222 $223 $345 reversed $135 $-1 #
coedge $-1 $351 $425 $222 $343 reversed $220 $-1 #
edge $-1 $358 -117.90887173070467 $427 117.90887173070467 $342 $428 forward 7 unknown #
coedge $-1 $224 $223 $425 $429 forward $87 $-1 #
edge $-1 $349 -7.8472173841588866 $427 7.8472173841588866 $341 $430 forward 7 unknown #
coedge $-1 $354 $353 $224 $347 reversed $338 $-1 #
edge $-1 $431 -7.8472173841588866 $348 7.8472173841588866 $346 $432 forward 7 unknown #
vertex $-1 $226 $433 #
vertex $-1 $360 $434 #
straight-curve $-1 7.8472173841588866 0 -117.90887173070467 0 -1 0 I I #
coedge $-1 $340 $342 $227 $352 reversed $220 $-1 #
edge $-1 $355 -235.81774346140935 $358 235.81774346140935 $351 $435 forward 7 unknown #
coedge $-1 $346 $228 $233 $361 forward $338 $-1 #
coedge $-1 $228 $346 $340 $426 reversed $338 $-1 #
vertex $-1 $229 $436 #
straight-curve $-1 0 235.81774346140935 117.90887173070467 -1 0 0 I I #
coedge $-1 $230 $341 $232 $360 reversed $135 $-1 #
vertex $-1 $352 $437 #
straight-curve $-1 0 -235.81774346140935 117.90887173070467 1 0 0 I I #
edge $-1 $235 -117.90887173070467 $349 117.90887173070467 $232 $438 forward 7 unknown #
edge $-1 $236 -117.90887173070467 $348 117.90887173070467 $233 $439 forward 7 unknown #
point $-1 7.8472173841588866 -235.81774346140935 117.90887173070467 #
point $-1 7.8472173841588866 235.81774346140935 117.90887173070467 #
coedge $-1 $364 $364 $-1 $440 reversed $238 $-1 #
vertex $-1 $240 $441 #
ellipse-curve $-1 0 0 -0.5 0 0 -1 1 0 0 1 I I #
point $-1 1 0 -2.5835596789452797 #
coedge $-1 $368 $368 $-1 $442 reversed $243 $-1 #
vertex $-1 $245 $443 #
ellipse-curve $-1 0 0 -0.5 0 0 -1 1 0 0 1 I I #
point $-1 1 0 -2.5835596789452797 #
plane-surface $-1 58.954435865352337 0 0 -1 0 0 0 0 1 forward_v I I I I #
coedge $-1 $253 $251 $255 $377 reversed $153 $-1 #
edge $-1 $266 -12.969558461570593 $379 12.969558461570593 $265 $444 forward 7 unknown #
vertex $-1 $377 $445 #
straight-curve $-1 -58.954435865352337 -33.333086687918836 0 0 0 -1 I I #
edge $-1 $375 -33.333086687918836 $379 33.333086687918836 $373 $446 forward 7 unknown #
straight-curve $-1 0 -33.333086687918836 -12.969558461570593 -1 0 0 I I #
vertex $-1 $258 $447 #
straight-curve $-1 0 33.333086687918836 -12.969558461570593 1 0 0 I I #
point $-1 58.954435865352337 33.333086687918836 -12.969558461570593 #
point $-1 58.954435865352337 -33.333086687918836 -12.969558461570593 #
straight-curve $-1 -58.954435865352337 0 12.969558461570593 0 -1 0 I I #
point $-1 -58.954435865352337 33.333086687918836 12.969558461570593 #
point $-1 -58.954435865352337 -33.333086687918836 12.969558461570593 #
straight-curve $-1 58.954435865352337 -33.333086687918836 0 0 0 -1 I I #
straight-curve $-1 58.954435865352337 33.333086687918836 0 0 0 -1 I I #
plane-surface $-1 13.131742098106441 0 0 -1 0 0 0 0 1 forward_v I I I I #
coedge $-1 $280 $278 $282 $393 reversed $172 $-1 #
edge $-1 $293 -117.90887173070467 $395 117.90887173070467 $292 $448 forward 7 unknown #
vertex $-1 $393 $449 #
straight-curve $-1 -13.131742098106441 -235.81774346140935 0 0 0 -1 I I #
edge $-1 $391 -235.81774346140935 $395 235.81774346140935 $389 $450 forward 7 unknown #
straight-curve $-1 0 -235.81774346140935 -117.90887173070467 -1 0 0 I I #
vertex $-1 $285 $451 #
straight-curve $-1 0 235.81774346140935 -117.90887173070467 1 0 0 I I #
point $-1 13.131742098106441 235.81774346140935 -117.90887173070467 #
point $-1 13.131742098106441 -235.81774346140935 -117.90887173070467 #
straight-curve $-1 -13.131742098106441 0 117.90887173070467 0 -1 0 I I #
point $-1 -13.131742098106441 235.81774346140935 117.90887173070467 #
point $-1 -13.131742098106441 -235.81774346140935 117.90887173070467 #
straight-curve $-1 13.131742098106441 -235.81774346140935 0 0 0 -1 I I #
straight-curve $-1 13.131742098106441 235.81774346140935 0 0 0 -1 I I #
edge $-1 $452 1 $452 0 $302 $-1 forward 7 unknown #
point $-1 2 0 -1 #
plane-surface $-1 13.131742098106441 0 0 -1 0 0 0 0 1 forward_v I I I I #
coedge $-1 $311 $309 $313 $411 reversed $196 $-1 #
edge $-1 $324 -117.90887173070467 $413 117.90887173070467 $323 $453 forward 7 unknown #
vertex $-1 $411 $454 #
straight-curve $-1 -13.131742098106441 -235.81774346140935 0 0 0 -1 I I #
edge $-1 $409 -235.81774346140935 $413 235.81774346140935 $407 $455 forward 7 unknown #
straight-curve $-1 0 -235.81774346140935 -117.90887173070467 -1 0 0 I I #
vertex $-1 $316 $456 #
straight-curve $-1 0 235.81774346140935 -117.90887173070467 1 0 0 I I #
point $-1 13.131742098106441 235.81774346140935 -117.90887173070467 #
point $-1 13.131742098106441 -235.81774346140935 -117.90887173070467 #
straight-curve $-1 -13.131742098106441 0 117.90887173070467 0 -1 0 I I #
point $-1 -13.131742098106441 235.81774346140935 117.90887173070467 #
point $-1 -13.131742098106441 -235.81774346140935 117.90887173070467 #
straight-curve $-1 13.131742098106441 -235.81774346140935 0 0 0 -1 I I #
straight-curve $-1 13.131742098106441 235.81774346140935 0 0 0 -1 I I #
edge $-1 $457 1 $457 0 $333 $-1 forward 7 unknown #
point $-1 2 0 -1 #
plane-surface $-1 7.8472173841588866 0 0 -1 0 0 0 0 1 forward_v I I I I #
coedge $-1 $342 $340 $344 $429 reversed $220 $-1 #
edge $-1 $355 -117.90887173070467 $431 117.90887173070467 $354 $458 forward 7 unknown #
vertex $-1 $429 $459 #
straight-curve $-1 -7.8472173841588866 -235.81774346140935 0 0 0 -1 I I #
edge $-1 $427 -235.81774346140935 $431 235.81774346140935 $425 $460 forward 7 unknown #
straight-curve $-1 0 -235.81774346140935 -117.90887173070467 -1 0 0 I I #
vertex $-1 $347 $461 #
straight-curve $-1 0 235.81774346140935 -117.90887173070467 1 0 0 I I #
point $-1 7.8472173841588866 235.81774346140935 -117.90887173070467 #
point $-1 7.8472173841588866 -235.81774346140935 -117.90887173070467 #
straight-curve $-1 -7.8472173841588866 0 117.90887173070467 0 -1 0 I I #
point $-1 -7.8472173841588866 235.81774346140935 117.90887173070467 #
point $-1 -7.8472173841588866 -235.81774346140935 117.90887173070467 #
straight-curve $-1 7.8472173841588866 -235.81774346140935 0 0 0 -1 I I #
straight-curve $-1 7.8472173841588866 235.81774346140935 0 0 0 -1 I I #
edge $-1 $462 1 $462 0 $364 $-1 forward 7 unknown #
point $-1 1 0 -0.5 #
edge $-1 $463 1 $463 0 $368 $-1 forward 7 unknown #
point $-1 1 0 -0.5 #
straight-curve $-1 -58.954435865352337 33.333086687918836 0 0 0 -1 I I #
point $-1 -58.954435865352337 -33.333086687918836 -12.969558461570593 #
straight-curve $-1 -58.954435865352337 0 -12.969558461570593 0 1 0 I I #
point $-1 -58.954435865352337 33.333086687918836 -12.969558461570593 #
straight-curve $-1 -13.131742098106441 235.81774346140935 0 0 0 -1 I I #
point $-1 -13.131742098106441 -235.81774346140935 -117.90887173070467 #
straight-curve $-1 -13.131742098106441 0 -117.90887173070467 0 1 0 I I #
point $-1 -13.131742098106441 235.81774346140935 -117.90887173070467 #
vertex $-1 $404 $464 #
straight-curve $-1 -13.131742098106441 235.81774346140935 0 0 0 -1 I I #
point $-1 -13.131742098106441 -235.81774346140935 -117.90887173070467 #
straight-curve $-1 -13.131742098106441 0 -117.90887173070467 0 1 0 I I #
point $-1 -13.131742098106441 235.81774346140935 -117.90887173070467 #
vertex $-1 $422 $465 #
straight-curve $-1 -7.8472173841588866 235.81774346140935 0 0 0 -1 I I #
point $-1 -7.8472173841588866 -235.81774346140935 -117.90887173070467 #
straight-curve $-1 -7.8472173841588866 0 -117.90887173070467 0 1 0 I I #
point $-1 -7.8472173841588866 235.81774346140935 -117.90887173070467 #
vertex $-1 $440 $466 #
vertex $-1 $442 $467 #
point $-1 0 0 1 #
point $-1 0 0 1 #
point $-1 0 0 0.5 #
point $-1 0 0 0.5 #
End-of-ACIS-data 