500 0 9 0           
7 Unknown 11 ACIS 5.0 NT 24 Fri Mar 26 18:32:41 1999 
-1 9.9999999999999995e-007 1e-010 
body $-1 $9 $-1 $10 #
body $-1 $11 $-1 $12 #
body $-1 $13 $-1 $14 #
body $-1 $15 $-1 $16 #
body $-1 $17 $-1 $18 #
body $-1 $19 $-1 $20 #
body $-1 $21 $-1 $22 #
body $-1 $23 $-1 $24 #
body $-1 $25 $-1 $26 #
lump $-1 $-1 $27 $0 #
transform $-1 1 0 0 0 1 0 0 0 1 63.93627735221412 37.93522537219782 11.647886668589811 1 rotate no_reflect no_shear #
lump $-1 $-1 $28 $1 #
transform $-1 1 0 0 0 1 0 0 0 1 63.93627735221412 37.93522537219782 11.647886668589811 1 rotate no_reflect no_shear #
lump $-1 $-1 $29 $2 #
transform $-1 1 0 0 0 1 0 0 0 1 63.93627735221412 37.93522537219782 11.647886668589811 1 rotate no_reflect no_shear #
lump $-1 $-1 $30 $3 #
transform $-1 1 0 0 0 1 0 0 0 1 63.93627735221412 37.93522537219782 11.647886668589811 1 rotate no_reflect no_shear #
lump $-1 $-1 $31 $4 #
transform $-1 1 0 0 0 1 0 0 0 1 63.93627735221412 37.93522537219782 11.647886668589811 1 rotate no_reflect no_shear #
lump $-1 $-1 $32 $5 #
transform $-1 1 0 0 0 1 0 0 0 1 63.93627735221412 37.93522537219782 11.647886668589811 1 rotate no_reflect no_shear #
lump $-1 $-1 $33 $6 #
transform $-1 1 0 0 0 1 0 0 0 1 63.93627735221412 37.93522537219782 11.647886668589811 1 rotate no_reflect no_shear #
lump $-1 $-1 $34 $7 #
transform $-1 1 0 0 0 1 0 0 0 1 63.93627735221412 37.93522537219782 11.647886668589811 1 rotate no_reflect no_shear #
lump $-1 $-1 $35 $8 #
transform $-1 1 0 0 0 1 0 0 0 1 63.93627735221412 37.93522537219782 11.647886668589811 1 rotate no_reflect no_shear #
shell $-1 $-1 $-1 $36 $-1 $9 #
shell $-1 $-1 $-1 $37 $-1 $11 #
shell $-1 $-1 $-1 $38 $-1 $13 #
shell $-1 $-1 $-1 $39 $-1 $15 #
shell $-1 $-1 $-1 $40 $-1 $17 #
shell $-1 $-1 $-1 $41 $-1 $19 #
shell $-1 $-1 $-1 $42 $-1 $21 #
shell $-1 $-1 $-1 $43 $-1 $23 #
shell $-1 $-1 $-1 $44 $-1 $25 #
face $-1 $45 $46 $27 $-1 $47 forward single #
face $-1 $48 $49 $28 $-1 $50 forward single #
face $-1 $51 $52 $29 $-1 $53 reversed single #
face $-1 $54 $55 $30 $-1 $56 reversed single #
face $-1 $57 $58 $31 $-1 $59 forward single #
face $-1 $60 $61 $32 $-1 $62 forward single #
face $-1 $63 $64 $33 $-1 $65 reversed single #
face $-1 $66 $67 $34 $-1 $68 forward single #
face $-1 $69 $70 $35 $-1 $71 forward single #
face $-1 $72 $73 $27 $-1 $74 reversed single #
loop $-1 $-1 $75 $36 #
plane-surface $-1 0 0 11.647886668589811 0 0 1 1 0 0 forward_v I I I I #
face $-1 $76 $77 $28 $-1 $78 reversed single #
loop $-1 $-1 $79 $37 #
plane-surface $-1 -59.876864253823612 0 10.884850778590783 0 0 1 1 0 0 forward_v I I I I #
face $-1 $80 $81 $29 $-1 $82 reversed single #
loop $-1 $-1 $83 $38 #
plane-surface $-1 52.701070043690827 -34.47320770033091 0 1 0 0 0 0 -1 forward_v I I I I #
face $-1 $84 $85 $30 $-1 $86 reversed single #
loop $-1 $-1 $87 $39 #
plane-surface $-1 28.17933517279409 -113.09682816066037 111.67905814847215 1 0 0 0 0.5877852598018023 -0.80901698891910034 forward_v I I I I #
face $-1 $88 $89 $31 $-1 $90 forward single #
loop $-1 $91 $92 $40 #
cone-surface $-1 35.185545135907432 -35.220593127077443 9.4409406154476141 0 0.5877852598018023 -0.80901698891910034 0.5 0 0 1 I I 0 1 0.5 forward I I I I #
face $-1 $93 $94 $32 $-1 $95 forward single #
loop $-1 $96 $97 $41 #
cone-surface $-1 45.694860080577456 -35.220593127077443 9.4409406154476141 0 0.5877852598018023 -0.80901698891910034 0.5 0 0 1 I I 0 1 0.5 forward I I I I #
face $-1 $98 $99 $33 $-1 $100 reversed single #
loop $-1 $-1 $101 $42 #
plane-surface $-1 28.17933517279409 51.716344551494487 156.27459075054657 1 0 0 0 -0.5877852598018023 -0.80901698891910034 forward_v I I I I #
face $-1 $102 $103 $34 $-1 $104 forward single #
loop $-1 $105 $106 $43 #
cone-surface $-1 35.185545135907432 35.220593127077443 9.4409406154476141 0 -0.5877852598018023 -0.80901698891910034 0.5 0 0 1 I I 0 1 0.5 forward I I I I #
face $-1 $107 $108 $35 $-1 $109 forward single #
loop $-1 $110 $111 $44 #
cone-surface $-1 45.694860080577456 35.220593127077443 9.4409406154476141 0 -0.5877852598018023 -0.80901698891910034 0.5 0 0 1 I I 0 1 0.5 forward I I I I #
face $-1 $112 $113 $27 $-1 $114 reversed single #
loop $-1 $-1 $115 $45 #
plane-surface $-1 0 0 -11.647886668589811 0 0 1 1 0 0 forward_v I I I I #
coedge $-1 $116 $117 $118 $119 forward $46 $-1 #
face $-1 $120 $121 $28 $-1 $122 reversed single #
loop $-1 $-1 $123 $48 #
plane-surface $-1 -59.876864253823612 0 6.095662939263315 0 0 1 1 0 0 forward_v I I I I #
coedge $-1 $124 $125 $126 $127 forward $49 $-1 #
face $-1 $128 $129 $29 $-1 $130 forward single #
loop $-1 $-1 $131 $51 #
plane-surface $-1 58.318673697952477 -31.011190028464 0 0 -1 0 0 0 -1 forward_v I I I I #
coedge $-1 $132 $133 $134 $135 forward $52 $-1 #
face $-1 $136 $137 $30 $-1 $138 reversed single #
loop $-1 $-1 $139 $54 #
plane-surface $-1 40.440202608242458 -37.935225372197834 8.2279889761026794 0 -0.5877852598018023 0.80901698891910034 1 0 0 forward_v I I I I #
coedge $-1 $140 $141 $142 $143 reversed $55 $-1 #
face $-1 $-1 $144 $31 $-1 $145 forward single #
loop $-1 $146 $147 $57 #
cone-surface $-1 35.185545135907432 -34.712557197967001 8.7416891613192202 0 0.5877852598018023 -0.80901698891910034 0.25 0 0 1 I I -0.70710678118654746 0.70710678118654746 0.25 forward I I I I #
loop $-1 $-1 $148 $40 #
coedge $-1 $92 $92 $149 $150 reversed $58 $-1 #
face $-1 $-1 $151 $32 $-1 $152 forward single #
loop $-1 $153 $154 $60 #
cone-surface $-1 45.694860080577456 -34.712557197967001 8.7416891613192202 0 0.5877852598018023 -0.80901698891910034 0.25 0 0 1 I I -0.70710678118654746 0.70710678118654746 0.25 forward I I I I #
loop $-1 $-1 $155 $41 #
coedge $-1 $97 $97 $156 $157 reversed $61 $-1 #
face $-1 $158 $159 $33 $-1 $160 reversed single #
loop $-1 $-1 $161 $63 #
plane-surface $-1 40.440202608242458 -23.445258236968044 52.823521578177093 0 0.5877852598018023 0.80901698891910034 1 0 0 forward_v I I I I #
coedge $-1 $162 $163 $164 $165 reversed $64 $-1 #
face $-1 $-1 $166 $34 $-1 $167 forward single #
loop $-1 $168 $169 $66 #
cone-surface $-1 35.185545135907432 34.712557197967001 8.7416891613192202 0 -0.5877852598018023 -0.80901698891910034 0.25 0 0 1 I I -0.70710678118654746 0.70710678118654746 0.25 forward I I I I #
loop $-1 $-1 $170 $43 #
coedge $-1 $106 $106 $171 $172 reversed $67 $-1 #
face $-1 $-1 $173 $35 $-1 $174 forward single #
loop $-1 $175 $176 $69 #
cone-surface $-1 45.694860080577456 34.712557197967001 8.7416891613192202 0 -0.5877852598018023 -0.80901698891910034 0.25 0 0 1 I I -0.70710678118654746 0.70710678118654746 0.25 forward I I I I #
loop $-1 $-1 $177 $44 #
coedge $-1 $111 $111 $178 $179 reversed $70 $-1 #
face $-1 $180 $181 $27 $-1 $182 reversed single #
loop $-1 $-1 $183 $72 #
plane-surface $-1 0 -37.93522537219782 0 0 1 0 0 0 1 forward_v I I I I #
coedge $-1 $184 $185 $186 $187 forward $73 $-1 #
coedge $-1 $188 $75 $189 $190 forward $46 $-1 #
coedge $-1 $75 $188 $191 $192 forward $46 $-1 #
coedge $-1 $193 $194 $75 $119 reversed $195 $-1 #
edge $-1 $196 -37.93522537219782 $197 37.93522537219782 $118 $198 forward 7 unknown #
face $-1 $199 $200 $28 $-1 $201 reversed single #
loop $-1 $-1 $202 $76 #
plane-surface $-1 -55.817451155433105 0 8.4902568589270491 -1 0 0 0 0 1 forward_v I I I I #
coedge $-1 $203 $204 $205 $206 forward $77 $-1 #
coedge $-1 $207 $79 $208 $209 reversed $49 $-1 #
coedge $-1 $79 $207 $210 $211 reversed $49 $-1 #
coedge $-1 $202 $212 $79 $127 reversed $121 $-1 #
edge $-1 $213 -37.93522537219782 $214 37.93522537219782 $126 $215 forward 7 unknown #
face $-1 $216 $217 $29 $-1 $218 reversed single #
loop $-1 $-1 $219 $80 #
plane-surface $-1 0 0 11.647886668589811 0 0 1 1 0 0 forward_v I I I I #
coedge $-1 $220 $221 $222 $223 reversed $81 $-1 #
coedge $-1 $224 $83 $225 $226 reversed $52 $-1 #
coedge $-1 $83 $224 $227 $228 reversed $52 $-1 #
coedge $-1 $221 $220 $83 $135 reversed $81 $-1 #
edge $-1 $229 -11.647886668589811 $230 11.647886668589811 $134 $231 forward 7 unknown #
face $-1 $232 $233 $30 $-1 $234 forward single #
loop $-1 $-1 $142 $84 #
plane-surface $-1 0 -37.93522537219782 0 0 1 0 0 0 1 forward_v I I I I #
coedge $-1 $235 $236 $237 $238 reversed $85 $-1 #
coedge $-1 $141 $87 $239 $240 reversed $55 $-1 #
coedge $-1 $87 $140 $235 $241 reversed $55 $-1 #
coedge $-1 $237 $242 $87 $143 forward $137 $-1 #
edge $-1 $243 44.191642405646263 $244 47.611540098133389 $142 $245 forward 7 unknown #
loop $-1 $-1 $149 $88 #
plane-surface $-1 40.440202608242458 -37.935225372197834 8.2279889761026794 0 -0.5877852598018023 0.80901698891910034 1 0 0 forward_v I I I I #
loop $-1 $-1 $246 $57 #
coedge $-1 $147 $147 $148 $247 reversed $89 $-1 #
coedge $-1 $148 $148 $147 $247 forward $91 $-1 #
coedge $-1 $149 $149 $92 $150 forward $144 $-1 #
edge $-1 $248 7.3434431499413753e-015 $248 6.2831853071796075 $149 $249 forward 7 unknown #
loop $-1 $-1 $156 $93 #
plane-surface $-1 40.440202608242458 -37.935225372197834 8.2279889761026794 0 -0.5877852598018023 0.80901698891910034 1 0 0 forward_v I I I I #
loop $-1 $-1 $250 $60 #
coedge $-1 $154 $154 $155 $251 reversed $94 $-1 #
coedge $-1 $155 $155 $154 $251 forward $96 $-1 #
coedge $-1 $156 $156 $97 $157 forward $151 $-1 #
edge $-1 $252 7.3434431499413753e-015 $252 6.2831853071796075 $156 $253 forward 7 unknown #
face $-1 $254 $255 $33 $-1 $256 forward single #
loop $-1 $-1 $257 $98 #
plane-surface $-1 52.701070043690827 51.716344551494487 156.27459075054657 -1 0 0 0 0.5877852598018023 0.80901698891910034 forward_v I I I I #
coedge $-1 $258 $259 $260 $261 reversed $99 $-1 #
coedge $-1 $163 $101 $262 $263 reversed $64 $-1 #
coedge $-1 $101 $162 $258 $264 reversed $64 $-1 #
coedge $-1 $260 $265 $101 $165 forward $255 $-1 #
edge $-1 $266 -12.077053096450577 $267 -7.3699678345298096 $164 $268 forward 7 unknown #
loop $-1 $-1 $171 $102 #
plane-surface $-1 40.440202608242458 -23.445258236968044 52.823521578177093 0 0.5877852598018023 0.80901698891910034 1 0 0 forward_v I I I I #
loop $-1 $-1 $269 $66 #
coedge $-1 $169 $169 $170 $270 reversed $103 $-1 #
coedge $-1 $170 $170 $169 $270 forward $105 $-1 #
coedge $-1 $171 $171 $106 $172 forward $166 $-1 #
edge $-1 $271 -1.0556592281836782e-015 $271 6.2831853071795996 $171 $272 forward 7 unknown #
loop $-1 $-1 $178 $107 #
plane-surface $-1 40.440202608242458 -23.445258236968044 52.823521578177093 0 0.5877852598018023 0.80901698891910034 1 0 0 forward_v I I I I #
loop $-1 $-1 $273 $69 #
coedge $-1 $176 $176 $177 $274 reversed $108 $-1 #
coedge $-1 $177 $177 $176 $274 forward $110 $-1 #
coedge $-1 $178 $178 $111 $179 forward $173 $-1 #
edge $-1 $275 -1.0556592281836782e-015 $275 6.2831853071795996 $178 $276 forward 7 unknown #
face $-1 $277 $278 $27 $-1 $279 reversed single #
loop $-1 $-1 $280 $112 #
plane-surface $-1 -63.93627735221412 0 0 1 0 0 0 0 -1 forward_v I I I I #
coedge $-1 $281 $191 $282 $283 forward $113 $-1 #
coedge $-1 $284 $115 $281 $285 forward $73 $-1 #
coedge $-1 $115 $284 $286 $287 forward $73 $-1 #
coedge $-1 $194 $193 $115 $187 reversed $195 $-1 #
edge $-1 $288 -37.93522537219782 $289 37.93522537219782 $186 $290 forward 7 unknown #
coedge $-1 $117 $116 $291 $292 forward $46 $-1 #
coedge $-1 $293 $294 $116 $190 reversed $278 $-1 #
edge $-1 $197 -63.93627735221412 $295 63.93627735221412 $189 $296 forward 7 unknown #
coedge $-1 $183 $297 $117 $192 reversed $113 $-1 #
edge $-1 $298 -63.93627735221412 $196 63.93627735221412 $191 $299 forward 7 unknown #
coedge $-1 $186 $118 $297 $300 forward $195 $-1 #
coedge $-1 $118 $186 $293 $301 reversed $195 $-1 #
loop $-1 $-1 $193 $277 #
vertex $-1 $119 $302 #
vertex $-1 $119 $303 #
straight-curve $-1 63.93627735221412 0 11.647886668589811 0 1 0 I I #
face $-1 $304 $305 $28 $-1 $306 reversed single #
loop $-1 $-1 $307 $120 #
plane-surface $-1 0 -37.93522537219782 0 0 1 0 0 0 1 forward_v I I I I #
coedge $-1 $205 $126 $308 $309 reversed $121 $-1 #
coedge $-1 $310 $123 $307 $311 reversed $77 $-1 #
coedge $-1 $123 $310 $312 $313 reversed $77 $-1 #
coedge $-1 $212 $202 $123 $206 reversed $121 $-1 #
edge $-1 $314 -37.93522537219782 $315 37.93522537219782 $205 $316 forward 7 unknown #
coedge $-1 $125 $124 $317 $318 reversed $49 $-1 #
coedge $-1 $319 $320 $124 $209 forward $321 $-1 #
edge $-1 $322 -33.997845225302314 $214 -25.879019028521299 $208 $323 forward 7 unknown #
coedge $-1 $324 $308 $125 $211 forward $200 $-1 #
edge $-1 $213 25.879019028521299 $325 33.997845225302314 $210 $326 forward 7 unknown #
coedge $-1 $126 $205 $319 $327 reversed $121 $-1 #
vertex $-1 $211 $328 #
vertex $-1 $209 $329 #
straight-curve $-1 -55.817451155433105 0 10.884850778590783 0 1 0 I I #
face $-1 $330 $331 $29 $-1 $332 reversed single #
loop $-1 $-1 $333 $128 #
plane-surface $-1 0 -37.93522537219782 0 0 1 0 0 0 1 forward_v I I I I #
coedge $-1 $227 $334 $221 $335 forward $129 $-1 #
coedge $-1 $134 $131 $336 $337 reversed $81 $-1 #
coedge $-1 $131 $134 $219 $335 reversed $81 $-1 #
coedge $-1 $338 $339 $131 $223 forward $340 $-1 #
edge $-1 $341 -11.647886668589811 $342 11.647886668589811 $222 $343 forward 7 unknown #
coedge $-1 $133 $132 $333 $344 reversed $52 $-1 #
coedge $-1 $336 $345 $132 $226 forward $331 $-1 #
edge $-1 $346 -20.698621522032365 $230 -13.774586178298545 $225 $347 forward 7 unknown #
coedge $-1 $348 $219 $133 $228 forward $129 $-1 #
edge $-1 $229 13.774586178298545 $349 20.698621522032365 $227 $350 forward 7 unknown #
vertex $-1 $228 $351 #
vertex $-1 $226 $352 #
straight-curve $-1 52.701070043690827 -31.011190028464 0 0 0 -1 I I #
face $-1 $-1 $353 $30 $-1 $354 forward single #
loop $-1 $-1 $355 $136 #
plane-surface $-1 52.701070043690827 -34.47320770033091 0 1 0 0 0 0 -1 forward_v I I I I #
coedge $-1 $356 $139 $141 $241 forward $85 $-1 #
coedge $-1 $139 $356 $355 $357 reversed $85 $-1 #
coedge $-1 $358 $142 $139 $238 forward $137 $-1 #
edge $-1 $244 7.959233868672861 $359 32.480968739569597 $237 $360 forward 7 unknown #
coedge $-1 $361 $362 $140 $240 forward $353 $-1 #
edge $-1 $363 -23.320273970053094 $243 -18.613188708132363 $239 $364 forward 7 unknown #
edge $-1 $244 1.7761521089745031e-014 $363 5.8182773988587293 $141 $365 forward 7 unknown #
coedge $-1 $142 $358 $361 $366 reversed $137 $-1 #
vertex $-1 $366 $367 #
vertex $-1 $143 $368 #
straight-curve $-1 28.17933517279409 -37.93522537219782 55.839529074236076 0 0 -1 I I #
coedge $-1 $246 $246 $-1 $369 reversed $146 $-1 #
edge $-1 $370 0 $370 6.2831853071796004 $147 $371 forward 7 unknown #
vertex $-1 $150 $372 #
ellipse-curve $-1 35.185545135907432 -35.581682741237451 9.9379378223462549 0 -0.5877852598018023 0.80901698891910034 0.5 0 0 1 I I #
coedge $-1 $250 $250 $-1 $373 reversed $153 $-1 #
edge $-1 $374 0 $374 6.2831853071796004 $154 $375 forward 7 unknown #
vertex $-1 $157 $376 #
ellipse-curve $-1 45.694860080577456 -35.581682741237451 9.9379378223462549 0 -0.5877852598018023 0.80901698891910034 0.5 0 0 1 I I #
face $-1 $-1 $377 $33 $-1 $378 reversed single #
loop $-1 $-1 $164 $158 #
plane-surface $-1 0 0 11.647886668589811 0 0 1 1 0 0 forward_v I I I I #
coedge $-1 $379 $380 $381 $382 reversed $159 $-1 #
coedge $-1 $383 $161 $163 $264 forward $99 $-1 #
coedge $-1 $161 $383 $379 $384 forward $99 $-1 #
coedge $-1 $381 $164 $161 $261 forward $255 $-1 #
edge $-1 $267 7.959233868672861 $385 32.480968739569597 $260 $386 forward 7 unknown #
coedge $-1 $387 $388 $162 $263 forward $377 $-1 #
edge $-1 $389 -69.909306399170617 $266 -66.489408706683477 $262 $390 forward 7 unknown #
edge $-1 $267 70.052173345536872 $389 75.870450744395626 $163 $391 forward 7 unknown #
coedge $-1 $164 $381 $387 $392 forward $255 $-1 #
vertex $-1 $263 $393 #
vertex $-1 $165 $394 #
straight-curve $-1 28.17933517279409 25.858172275747243 11.647886668589805 0 -1 0 I I #
coedge $-1 $269 $269 $-1 $395 reversed $168 $-1 #
edge $-1 $396 0 $396 6.2831853071796004 $169 $397 forward 7 unknown #
vertex $-1 $172 $398 #
ellipse-curve $-1 35.185545135907432 35.581682741237437 9.9379378223462407 0 0.5877852598018023 0.80901698891910034 0.5 0 0 1 I I #
coedge $-1 $273 $273 $-1 $399 reversed $175 $-1 #
edge $-1 $400 0 $400 6.2831853071796004 $176 $401 forward 7 unknown #
vertex $-1 $179 $402 #
ellipse-curve $-1 45.694860080577456 35.581682741237437 9.9379378223462407 0 0.5877852598018023 0.80901698891910034 0.5 0 0 1 I I #
face $-1 $-1 $195 $27 $-1 $403 reversed single #
loop $-1 $-1 $293 $180 #
plane-surface $-1 0 37.93522537219782 0 0 -1 0 0 0 -1 forward_v I I I I #
coedge $-1 $404 $291 $294 $405 forward $181 $-1 #
coedge $-1 $297 $183 $184 $285 reversed $113 $-1 #
coedge $-1 $291 $404 $183 $283 reversed $181 $-1 #
edge $-1 $298 -11.647886668589811 $406 11.647886668589811 $282 $407 forward 7 unknown #
coedge $-1 $185 $184 $404 $408 forward $73 $-1 #
edge $-1 $289 -63.93627735221412 $406 63.93627735221412 $281 $409 forward 7 unknown #
coedge $-1 $294 $293 $185 $287 reversed $278 $-1 #
edge $-1 $410 -63.93627735221412 $288 63.93627735221412 $286 $411 forward 7 unknown #
vertex $-1 $187 $412 #
vertex $-1 $300 $413 #
straight-curve $-1 63.93627735221412 0 -11.647886668589811 0 -1 0 I I #
coedge $-1 $280 $282 $188 $292 reversed $181 $-1 #
edge $-1 $295 -37.93522537219782 $298 37.93522537219782 $291 $414 forward 7 unknown #
coedge $-1 $286 $189 $194 $301 forward $278 $-1 #
coedge $-1 $189 $286 $280 $405 reversed $278 $-1 #
vertex $-1 $190 $415 #
straight-curve $-1 0 37.93522537219782 11.647886668589811 -1 0 0 I I #
coedge $-1 $191 $281 $193 $300 reversed $113 $-1 #
vertex $-1 $292 $416 #
straight-curve $-1 0 -37.93522537219782 11.647886668589811 1 0 0 I I #
edge $-1 $196 -11.647886668589811 $289 11.647886668589811 $193 $417 forward 7 unknown #
edge $-1 $197 -11.647886668589811 $288 11.647886668589811 $194 $418 forward 7 unknown #
point $-1 63.93627735221412 -37.93522537219782 11.647886668589811 #
point $-1 63.93627735221412 37.93522537219782 11.647886668589811 #
face $-1 $-1 $321 $28 $-1 $419 reversed single #
loop $-1 $-1 $420 $199 #
plane-surface $-1 -63.93627735221412 0 0 1 0 0 0 0 -1 forward_v I I I I #
coedge $-1 $308 $324 $203 $311 forward $200 $-1 #
coedge $-1 $210 $307 $202 $309 forward $200 $-1 #
edge $-1 $315 1.8505345097997905 $213 6.6397223491272586 $308 $421 forward 7 unknown #
coedge $-1 $204 $203 $420 $422 reversed $77 $-1 #
edge $-1 $423 -33.997845225302314 $315 -25.879019028521299 $307 $424 forward 7 unknown #
coedge $-1 $320 $319 $204 $313 forward $321 $-1 #
edge $-1 $314 25.879019028521299 $425 33.997845225302314 $312 $426 forward 7 unknown #
vertex $-1 $313 $427 #
vertex $-1 $311 $428 #
straight-curve $-1 -55.817451155433105 0 6.095662939263315 0 -1 0 I I #
coedge $-1 $429 $430 $207 $318 forward $305 $-1 #
edge $-1 $325 -37.93522537219782 $322 37.93522537219782 $317 $431 forward 7 unknown #
coedge $-1 $312 $208 $212 $327 forward $321 $-1 #
coedge $-1 $208 $312 $429 $432 reversed $321 $-1 #
loop $-1 $-1 $312 $304 #
vertex $-1 $432 $433 #
straight-curve $-1 -29.938432126911806 37.93522537219782 10.884850778590783 1 0 0 I I #
coedge $-1 $307 $210 $430 $434 forward $200 $-1 #
vertex $-1 $434 $435 #
straight-curve $-1 -29.938432126911806 -37.93522537219782 10.884850778590783 -1 0 0 I I #
edge $-1 $214 -6.6397223491272586 $314 -1.8505345097997905 $319 $436 forward 7 unknown #
point $-1 -55.817451155433105 -37.93522537219782 10.884850778590783 #
point $-1 -55.817451155433105 37.93522537219782 10.884850778590783 #
face $-1 $-1 $340 $29 $-1 $437 reversed single #
loop $-1 $-1 $336 $216 #
plane-surface $-1 0 0 -11.647886668589811 0 0 1 1 0 0 forward_v I I I I #
coedge $-1 $438 $439 $224 $344 forward $217 $-1 #
coedge $-1 $219 $348 $338 $440 forward $129 $-1 #
edge $-1 $342 -34.776940503237888 $229 -23.541733194714588 $219 $441 forward 7 unknown #
coedge $-1 $442 $225 $220 $337 forward $331 $-1 #
edge $-1 $230 23.541733194714588 $341 34.776940503237888 $336 $443 forward 7 unknown #
coedge $-1 $444 $222 $334 $440 reversed $340 $-1 #
coedge $-1 $222 $444 $442 $445 reversed $340 $-1 #
loop $-1 $-1 $222 $330 #
vertex $-1 $445 $446 #
vertex $-1 $223 $447 #
straight-curve $-1 63.93627735221412 -31.011190028464 0 0 0 1 I I #
edge $-1 $349 -11.647886668589811 $346 11.647886668589811 $333 $448 forward 7 unknown #
coedge $-1 $225 $442 $438 $449 forward $331 $-1 #
vertex $-1 $226 $450 #
straight-curve $-1 52.701070043690827 -17.236603850165455 -11.647886668589811 0 1 0 I I #
coedge $-1 $334 $227 $439 $451 forward $129 $-1 #
vertex $-1 $451 $452 #
straight-curve $-1 52.701070043690827 -17.236603850165455 11.647886668589811 0 -1 0 I I #
point $-1 52.701070043690827 -31.011190028464 11.647886668589811 #
point $-1 52.701070043690827 -31.011190028464 -11.647886668589811 #
loop $-1 $-1 $239 $232 #
plane-surface $-1 0 0 11.647886668589811 0 0 1 1 0 0 forward_v I I I I #
coedge $-1 $453 $454 $236 $357 forward $233 $-1 #
coedge $-1 $236 $235 $362 $455 reversed $85 $-1 #
edge $-1 $359 1.0177297627432076 $456 6.8360071616019145 $355 $457 forward 7 unknown #
coedge $-1 $242 $237 $454 $458 forward $137 $-1 #
vertex $-1 $458 $459 #
straight-curve $-1 20.220101304121229 -37.93522537219782 8.2279889761026919 1 0 0 I I #
coedge $-1 $460 $239 $242 $366 forward $353 $-1 #
coedge $-1 $239 $460 $356 $455 forward $353 $-1 #
vertex $-1 $240 $461 #
straight-curve $-1 28.17933517279409 -56.548414080330183 11.647886668589813 0 -1 0 I I #
straight-curve $-1 28.17933517279409 -37.935225372197834 8.2279889761026794 0 0.80901698891910034 0.5877852598018023 I I #
edge $-1 $243 28.17933517279409 $462 52.701070043690827 $242 $463 forward 7 unknown #
point $-1 28.17933517279409 -37.93522537219782 11.647886668589811 #
point $-1 28.17933517279409 -37.93522537219782 8.2279889761026901 #
edge $-1 $464 1 $464 0 $246 $-1 forward 7 unknown #
vertex $-1 $247 $465 #
ellipse-curve $-1 35.185545135907432 -34.859503512917449 8.9439434085489946 0 -0.5877852598018023 0.80901698891910034 0.5 0 0 1 I I #
point $-1 35.685545135907432 -35.581682741237429 9.9379378223462318 #
edge $-1 $466 1 $466 0 $250 $-1 forward 7 unknown #
vertex $-1 $251 $467 #
ellipse-curve $-1 45.694860080577456 -34.859503512917449 8.9439434085489946 0 -0.5877852598018023 0.80901698891910034 0.5 0 0 1 I I #
point $-1 46.194860080577456 -35.581682741237429 9.9379378223462318 #
loop $-1 $-1 $262 $254 #
plane-surface $-1 0 37.93522537219782 0 0 -1 0 0 0 -1 forward_v I I I I #
coedge $-1 $380 $257 $259 $384 reversed $159 $-1 #
coedge $-1 $257 $379 $468 $469 reversed $159 $-1 #
coedge $-1 $265 $260 $257 $382 forward $255 $-1 #
edge $-1 $385 7.3699678345298096 $470 12.077053096450577 $381 $471 forward 7 unknown #
coedge $-1 $259 $258 $388 $472 reversed $99 $-1 #
edge $-1 $473 -75.870450744395626 $385 -70.052173345536872 $379 $474 forward 7 unknown #
vertex $-1 $261 $475 #
straight-curve $-1 20.220101304121229 33.228140110277053 11.647886668589809 1 0 0 I I #
coedge $-1 $468 $262 $265 $392 reversed $377 $-1 #
coedge $-1 $262 $468 $383 $472 forward $377 $-1 #
vertex $-1 $263 $476 #
straight-curve $-1 28.17933517279409 37.93522537219782 78.137295375273283 0 0 1 I I #
straight-curve $-1 28.17933517279409 -23.445258236968044 52.823521578177093 0 0.80901698891910034 -0.5877852598018023 I I #
edge $-1 $470 -52.701070043690827 $266 -28.17933517279409 $387 $477 forward 7 unknown #
point $-1 28.17933517279409 37.93522537219782 11.647886668589811 #
point $-1 28.17933517279409 33.228140110277053 11.647886668589813 #
edge $-1 $478 1 $478 0 $269 $-1 forward 7 unknown #
vertex $-1 $270 $479 #
ellipse-curve $-1 35.185545135907432 34.859503512917449 8.9439434085489946 0 0.5877852598018023 0.80901698891910034 0.5 0 0 1 I I #
point $-1 35.685545135907432 35.581682741237429 9.9379378223462318 #
edge $-1 $480 1 $480 0 $273 $-1 forward 7 unknown #
vertex $-1 $274 $481 #
ellipse-curve $-1 45.694860080577456 34.859503512917449 8.9439434085489946 0 0.5877852598018023 0.80901698891910034 0.5 0 0 1 I I #
point $-1 46.194860080577456 35.581682741237429 9.9379378223462318 #
plane-surface $-1 63.93627735221412 0 0 -1 0 0 0 0 1 forward_v I I I I #
coedge $-1 $282 $280 $284 $408 reversed $181 $-1 #
edge $-1 $295 -11.647886668589811 $410 11.647886668589811 $294 $482 forward 7 unknown #
vertex $-1 $408 $483 #
straight-curve $-1 -63.93627735221412 -37.93522537219782 0 0 0 -1 I I #
edge $-1 $406 -37.93522537219782 $410 37.93522537219782 $404 $484 forward 7 unknown #
straight-curve $-1 0 -37.93522537219782 -11.647886668589811 -1 0 0 I I #
vertex $-1 $287 $485 #
straight-curve $-1 0 37.93522537219782 -11.647886668589811 1 0 0 I I #
point $-1 63.93627735221412 37.93522537219782 -11.647886668589811 #
point $-1 63.93627735221412 -37.93522537219782 -11.647886668589811 #
straight-curve $-1 -63.93627735221412 0 11.647886668589811 0 -1 0 I I #
point $-1 -63.93627735221412 37.93522537219782 11.647886668589811 #
point $-1 -63.93627735221412 -37.93522537219782 11.647886668589811 #
straight-curve $-1 63.93627735221412 -37.93522537219782 0 0 0 -1 I I #
straight-curve $-1 63.93627735221412 37.93522537219782 0 0 0 -1 I I #
plane-surface $-1 0 37.93522537219782 0 0 -1 0 0 0 -1 forward_v I I I I #
coedge $-1 $430 $429 $310 $422 forward $305 $-1 #
straight-curve $-1 -55.817451155433105 -37.93522537219782 4.2451284294635245 0 0 1 I I #
edge $-1 $425 -37.93522537219782 $423 37.93522537219782 $420 $486 forward 7 unknown #
vertex $-1 $311 $487 #
straight-curve $-1 -29.938432126911806 -37.93522537219782 6.095662939263315 1 0 0 I I #
vertex $-1 $313 $488 #
straight-curve $-1 -29.938432126911806 37.93522537219782 6.095662939263315 -1 0 0 I I #
point $-1 -55.817451155433105 37.93522537219782 6.095662939263315 #
point $-1 -55.817451155433105 -37.93522537219782 6.095662939263315 #
coedge $-1 $420 $317 $320 $432 forward $305 $-1 #
coedge $-1 $317 $420 $324 $434 reversed $305 $-1 #
straight-curve $-1 -63.93627735221412 0 10.884850778590783 0 1 0 I I #
edge $-1 $322 -10.884850778590783 $425 -6.095662939263315 $320 $489 forward 7 unknown #
point $-1 -63.93627735221412 37.93522537219782 10.884850778590783 #
edge $-1 $325 -10.884850778590783 $423 -6.095662939263315 $430 $490 forward 7 unknown #
point $-1 -63.93627735221412 -37.93522537219782 10.884850778590783 #
straight-curve $-1 -55.817451155433105 37.93522537219782 4.2451284294635245 0 0 -1 I I #
plane-surface $-1 63.93627735221412 0 0 -1 0 0 0 0 1 forward_v I I I I #
coedge $-1 $491 $333 $345 $449 reversed $217 $-1 #
coedge $-1 $333 $491 $348 $451 reversed $217 $-1 #
edge $-1 $492 -37.93522537219782 $342 -31.011190028464 $338 $493 forward 7 unknown #
straight-curve $-1 29.159336848976238 -31.011190028464 11.647886668589811 -1 0 0 I I #
coedge $-1 $345 $336 $339 $445 forward $331 $-1 #
straight-curve $-1 29.159336848976238 -31.011190028464 -11.647886668589811 1 0 0 I I #
coedge $-1 $339 $338 $491 $494 forward $340 $-1 #
edge $-1 $341 31.011190028464 $495 37.93522537219782 $339 $496 forward 7 unknown #
point $-1 63.936277352214127 -31.011190028464 -11.647886668589811 #
point $-1 63.936277352214127 -31.011190028464 11.647886668589811 #
straight-curve $-1 52.701070043690827 -37.93522537219782 0 0 0 -1 I I #
edge $-1 $495 -63.93627735221412 $346 -52.701070043690827 $438 $497 forward 7 unknown #
point $-1 52.701070043690827 -37.93522537219782 -11.647886668589811 #
edge $-1 $349 52.701070043690827 $492 63.93627735221412 $439 $498 forward 7 unknown #
point $-1 52.701070043690827 -37.93522537219782 11.647886668589811 #
coedge $-1 $454 $355 $460 $499 reversed $233 $-1 #
coedge $-1 $355 $453 $358 $458 reversed $233 $-1 #
edge $-1 $456 -32.480968739569597 $363 -7.959233868672861 $362 $500 forward 7 unknown #
vertex $-1 $357 $501 #
straight-curve $-1 52.701070043690827 -38.75858604038568 7.6297824231006448 0 0.80901698891910034 0.5877852598018023 I I #
edge $-1 $359 8.2279889761026883 $462 11.647886668589811 $358 $502 forward 7 unknown #
point $-1 52.701070043690827 -37.93522537219782 8.2279889761026883 #
coedge $-1 $362 $361 $453 $499 forward $353 $-1 #
point $-1 28.17933517279409 -33.228140110277089 11.647886668589811 #
vertex $-1 $458 $503 #
straight-curve $-1 0 -37.93522537219782 11.647886668589811 1 0 0 I I #
vertex $-1 $369 $504 #
point $-1 35.685545135907432 -34.859503512917449 8.9439434085489946 #
vertex $-1 $373 $505 #
point $-1 46.194860080577456 -34.859503512917449 8.9439434085489946 #
coedge $-1 $388 $387 $380 $469 forward $377 $-1 #
edge $-1 $470 66.489408706683477 $473 69.909306399170617 $468 $506 forward 7 unknown #
vertex $-1 $392 $507 #
straight-curve $-1 52.701070043690827 25.858172275747243 11.647886668589805 0 1 0 I I #
edge $-1 $473 -32.480968739569597 $389 -7.959233868672861 $388 $508 forward 7 unknown #
vertex $-1 $472 $509 #
straight-curve $-1 52.701070043690827 -23.445258236968044 52.823521578177093 0 -0.80901698891910034 0.5877852598018023 I I #
point $-1 52.701070043690827 33.228140110277053 11.647886668589813 #
point $-1 28.17933517279409 37.93522537219782 8.2279889761026652 #
straight-curve $-1 0 37.93522537219782 11.647886668589811 -1 0 0 I I #
vertex $-1 $395 $510 #
point $-1 35.685545135907432 34.859503512917449 8.9439434085489946 #
vertex $-1 $399 $511 #
point $-1 46.194860080577456 34.859503512917449 8.9439434085489946 #
straight-curve $-1 -63.93627735221412 37.93522537219782 0 0 0 -1 I I #
point $-1 -63.93627735221412 -37.93522537219782 -11.647886668589811 #
straight-curve $-1 -63.93627735221412 0 -11.647886668589811 0 1 0 I I #
point $-1 -63.93627735221412 37.93522537219782 -11.647886668589811 #
straight-curve $-1 -63.93627735221412 0 6.095662939263315 0 -1 0 I I #
point $-1 -63.93627735221412 -37.93522537219782 6.095662939263315 #
point $-1 -63.93627735221412 37.93522537219782 6.095662939263315 #
straight-curve $-1 -63.93627735221412 37.93522537219782 0 0 0 -1 I I #
straight-curve $-1 -63.93627735221412 -37.93522537219782 0 0 0 -1 I I #
coedge $-1 $439 $438 $444 $494 reversed $217 $-1 #
vertex $-1 $440 $512 #
straight-curve $-1 63.93627735221412 0 11.647886668589811 0 1 0 I I #
edge $-1 $492 -11.647886668589811 $495 11.647886668589811 $444 $513 forward 7 unknown #
vertex $-1 $494 $514 #
straight-curve $-1 63.93627735221412 0 -11.647886668589811 0 -1 0 I I #
straight-curve $-1 0 -37.93522537219782 -11.647886668589811 -1 0 0 I I #
straight-curve $-1 0 -37.93522537219782 11.647886668589811 1 0 0 I I #
edge $-1 $462 -20.698621522032365 $456 -15.991536260111641 $460 $515 forward 7 unknown #
straight-curve $-1 20.220101304121229 -33.228140110277089 11.647886668589809 -1 0 0 I I #
point $-1 52.701070043690827 -33.228140110277096 11.647886668589811 #
straight-curve $-1 52.701070043690827 -37.93522537219782 0 0 0 1 I I #
point $-1 52.701070043690827 -37.93522537219782 11.647886668589811 #
point $-1 35.185545135907432 -34.565610883016554 8.5394349140894459 #
point $-1 45.694860080577456 -34.565610883016554 8.5394349140894459 #
straight-curve $-1 52.701070043690827 37.93522537219782 78.137295375273283 0 0 -1 I I #
point $-1 52.701070043690827 37.93522537219782 11.647886668589811 #
straight-curve $-1 20.220101304121229 37.93522537219782 8.2279889761026688 -1 0 0 I I #
point $-1 52.701070043690827 37.93522537219782 8.2279889761026652 #
point $-1 35.185545135907432 34.565610883016554 8.5394349140894459 #
point $-1 45.694860080577456 34.565610883016554 8.5394349140894459 #
point $-1 63.93627735221412 -37.93522537219782 11.647886668589811 #
straight-curve $-1 63.93627735221412 -37.93522537219782 0 0 0 -1 I I #
point $-1 63.93627735221412 -37.93522537219782 -11.647886668589811 #
straight-curve $-1 52.701070043690827 -17.236603850165455 11.647886668589811 0 1 0 I I #
End-of-ACIS-data 