500 0 4 0           
7 Unknown 11 ACIS 5.0 NT 24 Fri Mar 26 00:44:30 1999 
-1 9.9999999999999995e-007 1e-010 
body $-1 $4 $-1 $5 #
body $-1 $6 $-1 $7 #
body $-1 $8 $-1 $9 #
body $-1 $10 $-1 $11 #
lump $-1 $-1 $12 $0 #
transform $-1 1 0 0 0 1 0 0 0 1 49.304483169042022 20.194419329306804 9.3620827572161289 1 rotate no_reflect no_shear #
lump $-1 $-1 $13 $1 #
transform $-1 1 0 0 0 1 0 0 0 1 49.304483169042022 20.194419329306804 9.3620827572161289 1 rotate no_reflect no_shear #
lump $-1 $-1 $14 $2 #
transform $-1 1 0 0 0 1 0 0 0 1 49.304483169042022 20.194419329306804 9.3620827572161289 1 rotate no_reflect no_shear #
lump $-1 $-1 $15 $3 #
transform $-1 1 0 0 0 1 0 0 0 1 49.304483169042022 20.194419329306804 9.3620827572161289 1 rotate no_reflect no_shear #
shell $-1 $-1 $-1 $16 $-1 $4 #
shell $-1 $-1 $-1 $17 $-1 $6 #
shell $-1 $-1 $-1 $18 $-1 $8 #
shell $-1 $-1 $-1 $19 $-1 $10 #
face $-1 $20 $21 $12 $-1 $22 forward single #
face $-1 $23 $24 $13 $-1 $25 forward single #
face $-1 $26 $27 $14 $-1 $28 reversed single #
face $-1 $29 $30 $15 $-1 $31 forward single #
face $-1 $32 $33 $12 $-1 $34 reversed single #
loop $-1 $-1 $35 $16 #
plane-surface $-1 0 0 9.3620827572161289 0 0 1 1 0 0 forward_v I I I I #
face $-1 $36 $37 $13 $-1 $38 reversed single #
loop $-1 $-1 $39 $17 #
plane-surface $-1 -49.304483169042022 0 0 1 0 0 0 0 -1 forward_v I I I I #
face $-1 $40 $41 $14 $-1 $42 reversed single #
loop $-1 $-1 $43 $18 #
plane-surface $-1 45.096906250391257 -99.970749701557054 64.288611256740452 -1 0 0 0 -0.80901700255871778 0.5877852410284794 forward_v I I I I #
face $-1 $44 $45 $15 $-1 $46 forward single #
loop $-1 $47 $48 $19 #
cone-surface $-1 37.767647200778192 -18.625326009309013 7.5057529425486802 0 0.80901700255871778 -0.5877852410284794 0.5 0 0 1 I I 0 1 0.5 forward I I I I #
face $-1 $49 $50 $12 $-1 $51 reversed single #
loop $-1 $-1 $52 $20 #
plane-surface $-1 0 0 -9.3620827572161289 0 0 1 1 0 0 forward_v I I I I #
coedge $-1 $53 $54 $55 $56 forward $21 $-1 #
face $-1 $57 $58 $13 $-1 $59 reversed single #
loop $-1 $-1 $60 $23 #
plane-surface $-1 0 20.194419329306804 0 0 -1 0 0 0 -1 forward_v I I I I #
coedge $-1 $61 $62 $63 $64 forward $24 $-1 #
face $-1 $65 $66 $14 $-1 $67 reversed single #
loop $-1 $-1 $68 $26 #
plane-surface $-1 37.767647200778207 -20.194419329306797 6.3277162101405082 0 -0.80901700255871778 0.5877852410284794 1 0 0 forward_v I I I I #
coedge $-1 $69 $70 $71 $72 reversed $27 $-1 #
face $-1 $-1 $73 $15 $-1 $74 forward single #
loop $-1 $75 $76 $29 #
cone-surface $-1 37.767647200778192 -17.956276577400811 7.0196600911619278 0 0.80901700255871778 -0.5877852410284794 0.25 0 0 1 I I -0.70710678118654746 0.70710678118654746 0.25 forward I I I I #
loop $-1 $-1 $77 $19 #
coedge $-1 $48 $48 $78 $79 reversed $30 $-1 #
face $-1 $80 $81 $12 $-1 $82 reversed single #
loop $-1 $-1 $83 $32 #
plane-surface $-1 0 -20.194419329306804 0 0 1 0 0 0 1 forward_v I I I I #
coedge $-1 $84 $85 $86 $87 forward $33 $-1 #
coedge $-1 $88 $35 $89 $90 forward $21 $-1 #
coedge $-1 $35 $88 $91 $92 forward $21 $-1 #
coedge $-1 $93 $94 $35 $56 reversed $95 $-1 #
edge $-1 $96 -20.194419329306804 $97 20.194419329306804 $55 $98 forward 7 unknown #
face $-1 $99 $100 $13 $-1 $101 reversed single #
loop $-1 $-1 $63 $36 #
plane-surface $-1 -53.994013194115034 0 3.9161489029666177 0 0 1 1 0 0 forward_v I I I I #
coedge $-1 $102 $103 $61 $104 forward $37 $-1 #
coedge $-1 $105 $39 $60 $104 reversed $24 $-1 #
coedge $-1 $39 $105 $106 $107 reversed $24 $-1 #
coedge $-1 $108 $109 $39 $64 reversed $58 $-1 #
edge $-1 $110 -20.194419329306804 $111 20.194419329306804 $63 $112 forward 7 unknown #
face $-1 $113 $114 $14 $-1 $115 reversed single #
loop $-1 $-1 $116 $40 #
plane-surface $-1 30.438388151165157 -99.970749701557054 64.288611256740452 1 0 0 0 0.80901700255871778 -0.5877852410284794 forward_v I I I I #
coedge $-1 $117 $118 $119 $120 reversed $41 $-1 #
coedge $-1 $70 $43 $121 $122 reversed $27 $-1 #
coedge $-1 $43 $69 $117 $123 reversed $27 $-1 #
coedge $-1 $119 $124 $43 $72 forward $125 $-1 #
edge $-1 $126 29.790955521471723 $127 31.995551798930251 $71 $128 forward 7 unknown #
loop $-1 $-1 $78 $44 #
plane-surface $-1 37.767647200778207 -20.194419329306797 6.3277162101405082 0 -0.80901700255871778 0.5877852410284794 1 0 0 forward_v I I I I #
loop $-1 $-1 $129 $29 #
coedge $-1 $76 $76 $77 $130 reversed $45 $-1 #
coedge $-1 $77 $77 $76 $130 forward $47 $-1 #
coedge $-1 $78 $78 $48 $79 forward $73 $-1 #
edge $-1 $131 -2.8742057713725365e-015 $131 6.2831853071795978 $78 $132 forward 7 unknown #
face $-1 $133 $134 $12 $-1 $135 reversed single #
loop $-1 $-1 $136 $49 #
plane-surface $-1 -49.304483169042022 0 0 1 0 0 0 0 -1 forward_v I I I I #
coedge $-1 $137 $91 $138 $139 forward $50 $-1 #
coedge $-1 $140 $52 $137 $141 forward $33 $-1 #
coedge $-1 $52 $140 $142 $143 forward $33 $-1 #
coedge $-1 $94 $93 $52 $87 reversed $95 $-1 #
edge $-1 $144 -20.194419329306804 $145 20.194419329306804 $86 $146 forward 7 unknown #
coedge $-1 $54 $53 $147 $148 forward $21 $-1 #
coedge $-1 $149 $150 $53 $90 reversed $134 $-1 #
edge $-1 $97 -49.304483169042022 $151 49.304483169042022 $89 $152 forward 7 unknown #
coedge $-1 $83 $153 $54 $92 reversed $50 $-1 #
edge $-1 $154 -49.304483169042022 $96 49.304483169042022 $91 $155 forward 7 unknown #
coedge $-1 $86 $55 $153 $156 forward $95 $-1 #
coedge $-1 $55 $86 $149 $157 reversed $95 $-1 #
loop $-1 $-1 $93 $133 #
vertex $-1 $56 $158 #
vertex $-1 $56 $159 #
straight-curve $-1 49.304483169042022 0 9.3620827572161289 0 1 0 I I #
face $-1 $160 $161 $13 $-1 $162 forward single #
loop $-1 $-1 $163 $57 #
plane-surface $-1 -58.683543219188046 0 6.6391158300913737 1 0 0 0 0 -1 forward_v I I I I #
coedge $-1 $164 $60 $109 $165 reversed $37 $-1 #
coedge $-1 $60 $164 $166 $167 reversed $37 $-1 #
edge $-1 $168 -9.3620827572161289 $111 -3.9161489029666177 $60 $169 forward 7 unknown #
coedge $-1 $62 $61 $170 $171 reversed $24 $-1 #
coedge $-1 $172 $173 $62 $107 forward $174 $-1 #
edge $-1 $110 3.9161489029666177 $175 9.3620827572161289 $106 $176 forward 7 unknown #
coedge $-1 $177 $63 $173 $178 forward $58 $-1 #
coedge $-1 $63 $177 $102 $165 forward $58 $-1 #
vertex $-1 $107 $179 #
vertex $-1 $104 $180 #
straight-curve $-1 -49.304483169042022 0 3.9161489029666177 0 1 0 I I #
face $-1 $-1 $125 $14 $-1 $181 forward single #
loop $-1 $-1 $182 $65 #
plane-surface $-1 0 -20.194419329306804 0 0 1 0 0 0 1 forward_v I I I I #
coedge $-1 $183 $184 $185 $186 reversed $66 $-1 #
coedge $-1 $187 $68 $70 $123 forward $41 $-1 #
coedge $-1 $68 $187 $183 $188 forward $41 $-1 #
coedge $-1 $185 $71 $68 $120 forward $125 $-1 #
edge $-1 $127 -26.213082650002153 $189 -11.554564550776053 $119 $190 forward 7 unknown #
coedge $-1 $191 $192 $69 $122 forward $114 $-1 #
edge $-1 $193 -25.816589418229729 $126 -22.782222871154097 $121 $194 forward 7 unknown #
edge $-1 $127 -3.7506832828960102 $193 1.2080531203272332e-014 $70 $195 forward 7 unknown #
coedge $-1 $71 $185 $191 $196 forward $125 $-1 #
loop $-1 $-1 $185 $113 #
vertex $-1 $122 $197 #
vertex $-1 $72 $198 #
straight-curve $-1 45.096906250391257 -49.985374850778527 9.3620827572161289 0 1 0 I I #
coedge $-1 $129 $129 $-1 $199 reversed $75 $-1 #
edge $-1 $200 0 $200 6.2831853071796004 $76 $201 forward 7 unknown #
vertex $-1 $79 $202 #
ellipse-curve $-1 37.767647200778192 -19.09212119057754 7.844899483678315 0 -0.80901700255871778 0.5877852410284794 0.5 0 0 1 I I #
face $-1 $-1 $95 $12 $-1 $203 reversed single #
loop $-1 $-1 $149 $80 #
plane-surface $-1 0 20.194419329306804 0 0 -1 0 0 0 -1 forward_v I I I I #
coedge $-1 $204 $147 $150 $205 forward $81 $-1 #
coedge $-1 $153 $83 $84 $141 reversed $50 $-1 #
coedge $-1 $147 $204 $83 $139 reversed $81 $-1 #
edge $-1 $154 -9.3620827572161289 $206 9.3620827572161289 $138 $207 forward 7 unknown #
coedge $-1 $85 $84 $204 $208 forward $33 $-1 #
edge $-1 $145 -49.304483169042022 $206 49.304483169042022 $137 $209 forward 7 unknown #
coedge $-1 $150 $149 $85 $143 reversed $134 $-1 #
edge $-1 $210 -49.304483169042022 $144 49.304483169042022 $142 $211 forward 7 unknown #
vertex $-1 $87 $212 #
vertex $-1 $156 $213 #
straight-curve $-1 49.304483169042022 0 -9.3620827572161289 0 -1 0 I I #
coedge $-1 $136 $138 $88 $148 reversed $81 $-1 #
edge $-1 $151 -20.194419329306804 $154 20.194419329306804 $147 $214 forward 7 unknown #
coedge $-1 $142 $89 $94 $157 forward $134 $-1 #
coedge $-1 $89 $142 $136 $205 reversed $134 $-1 #
vertex $-1 $90 $215 #
straight-curve $-1 0 20.194419329306804 9.3620827572161289 -1 0 0 I I #
coedge $-1 $91 $137 $93 $156 reversed $50 $-1 #
vertex $-1 $148 $216 #
straight-curve $-1 0 -20.194419329306804 9.3620827572161289 1 0 0 I I #
edge $-1 $96 -9.3620827572161289 $145 9.3620827572161289 $93 $217 forward 7 unknown #
edge $-1 $97 -9.3620827572161289 $144 9.3620827572161289 $94 $218 forward 7 unknown #
point $-1 49.304483169042022 -20.194419329306804 9.3620827572161289 #
point $-1 49.304483169042022 20.194419329306804 9.3620827572161289 #
face $-1 $-1 $174 $13 $-1 $219 reversed single #
loop $-1 $-1 $170 $99 #
plane-surface $-1 0 0 9.3620827572161289 0 0 1 1 0 0 forward_v I I I I #
coedge $-1 $220 $221 $164 $222 forward $100 $-1 #
coedge $-1 $103 $102 $163 $222 reversed $37 $-1 #
edge $-1 $223 -4.6895300250730116 $111 4.6895300250730116 $102 $224 forward 7 unknown #
coedge $-1 $225 $170 $103 $167 forward $161 $-1 #
edge $-1 $168 49.304483169042022 $226 58.683543219188046 $103 $227 forward 7 unknown #
vertex $-1 $167 $228 #
straight-curve $-1 -49.304483169042022 20.194419329306804 0 0 0 -1 I I #
coedge $-1 $166 $229 $105 $171 forward $161 $-1 #
edge $-1 $175 -20.194419329306804 $168 20.194419329306804 $170 $230 forward 7 unknown #
coedge $-1 $231 $106 $229 $232 reversed $174 $-1 #
coedge $-1 $106 $231 $108 $178 reversed $174 $-1 #
loop $-1 $-1 $106 $160 #
vertex $-1 $107 $233 #
straight-curve $-1 -49.304483169042022 -20.194419329306804 0 0 0 1 I I #
coedge $-1 $109 $108 $220 $234 forward $58 $-1 #
edge $-1 $110 -4.6895300250730116 $235 4.6895300250730116 $173 $236 forward 7 unknown #
point $-1 -49.304483169042022 -20.194419329306804 3.9161489029666177 #
point $-1 -49.304483169042022 20.194419329306804 3.9161489029666177 #
plane-surface $-1 0 0 9.3620827572161289 0 0 1 1 0 0 forward_v I I I I #
coedge $-1 $192 $191 $184 $237 forward $114 $-1 #
coedge $-1 $184 $116 $118 $188 reversed $66 $-1 #
coedge $-1 $116 $183 $182 $237 reversed $66 $-1 #
coedge $-1 $124 $119 $116 $186 forward $125 $-1 #
edge $-1 $189 -31.995551798930251 $238 -29.790955521471723 $185 $239 forward 7 unknown #
coedge $-1 $118 $117 $192 $240 reversed $41 $-1 #
edge $-1 $241 -1.2080531203272332e-014 $189 3.7506832828960102 $183 $242 forward 7 unknown #
vertex $-1 $120 $243 #
straight-curve $-1 18.883823600389103 -17.989823051848276 9.3620827572161289 -1 0 0 I I #
coedge $-1 $182 $121 $124 $196 reversed $114 $-1 #
coedge $-1 $121 $182 $187 $240 forward $114 $-1 #
vertex $-1 $122 $244 #
straight-curve $-1 45.096906250391257 -20.194419329306804 32.144305628370226 0 0 1 I I #
straight-curve $-1 45.096906250391257 -20.194419329306797 6.3277162101405082 0 -0.5877852410284794 -0.80901700255871778 I I #
edge $-1 $238 30.438388151165157 $126 45.096906250391257 $191 $245 forward 7 unknown #
point $-1 45.096906250391257 -20.194419329306804 9.3620827572161289 #
point $-1 45.096906250391257 -17.989823051848276 9.3620827572161289 #
edge $-1 $246 1 $246 0 $129 $-1 forward 7 unknown #
vertex $-1 $130 $247 #
ellipse-curve $-1 37.767647200778192 -18.15853082804049 7.166606401419048 0 -0.80901700255871778 0.5877852410284794 0.5 0 0 1 I I #
point $-1 38.267647200778192 -19.09212119057754 7.8448994836783132 #
plane-surface $-1 49.304483169042022 0 0 -1 0 0 0 0 1 forward_v I I I I #
coedge $-1 $138 $136 $140 $208 reversed $81 $-1 #
edge $-1 $151 -9.3620827572161289 $210 9.3620827572161289 $150 $248 forward 7 unknown #
vertex $-1 $208 $249 #
straight-curve $-1 -49.304483169042022 -20.194419329306804 0 0 0 -1 I I #
edge $-1 $206 -20.194419329306804 $210 20.194419329306804 $204 $250 forward 7 unknown #
straight-curve $-1 0 -20.194419329306804 -9.3620827572161289 -1 0 0 I I #
vertex $-1 $143 $251 #
straight-curve $-1 0 20.194419329306804 -9.3620827572161289 1 0 0 I I #
point $-1 49.304483169042022 20.194419329306804 -9.3620827572161289 #
point $-1 49.304483169042022 -20.194419329306804 -9.3620827572161289 #
straight-curve $-1 -49.304483169042022 0 9.3620827572161289 0 -1 0 I I #
point $-1 -49.304483169042022 20.194419329306804 9.3620827572161289 #
point $-1 -49.304483169042022 -20.194419329306804 9.3620827572161289 #
straight-curve $-1 49.304483169042022 -20.194419329306804 0 0 0 -1 I I #
straight-curve $-1 49.304483169042022 20.194419329306804 0 0 0 -1 I I #
plane-surface $-1 0 -20.194419329306804 0 0 1 0 0 0 1 forward_v I I I I #
coedge $-1 $252 $163 $177 $234 reversed $100 $-1 #
coedge $-1 $163 $252 $225 $253 reversed $100 $-1 #
edge $-1 $226 -2.7229669271247552 $223 2.7229669271247561 $164 $254 forward 7 unknown #
vertex $-1 $165 $255 #
straight-curve $-1 -53.994013194115034 20.194419329306804 3.9161489029666177 1 0 0 I I #
coedge $-1 $229 $166 $221 $253 forward $161 $-1 #
vertex $-1 $167 $256 #
straight-curve $-1 0 20.194419329306804 9.3620827572161289 -1 0 0 I I #
point $-1 -49.304483169042022 20.194419329306804 9.3620827572161289 #
coedge $-1 $170 $225 $172 $232 forward $161 $-1 #
straight-curve $-1 -49.304483169042022 0 9.3620827572161289 0 1 0 I I #
coedge $-1 $173 $172 $252 $257 forward $174 $-1 #
edge $-1 $258 -58.683543219188046 $175 -49.304483169042022 $172 $259 forward 7 unknown #
point $-1 -49.304483169042022 -20.194419329306804 9.3620827572161289 #
edge $-1 $235 -20.194419329306804 $223 20.194419329306804 $220 $260 forward 7 unknown #
vertex $-1 $234 $261 #
straight-curve $-1 -53.994013194115034 -20.194419329306804 3.9161489029666177 -1 0 0 I I #
edge $-1 $238 22.782222871154097 $241 25.816589418229729 $182 $262 forward 7 unknown #
vertex $-1 $196 $263 #
straight-curve $-1 30.438388151165157 -49.985374850778527 9.3620827572161289 0 -1 0 I I #
edge $-1 $241 11.554564550776053 $193 26.213082650002153 $192 $264 forward 7 unknown #
vertex $-1 $240 $265 #
straight-curve $-1 30.438388151165157 -20.194419329306797 6.3277162101405082 0 0.5877852410284794 0.80901700255871778 I I #
point $-1 30.438388151165157 -17.989823051848276 9.3620827572161289 #
point $-1 45.096906250391257 -20.194419329306804 6.3277162101404985 #
straight-curve $-1 0 -20.194419329306804 9.3620827572161289 1 0 0 I I #
vertex $-1 $199 $266 #
point $-1 38.267647200778192 -18.15853082804049 7.166606401419048 #
straight-curve $-1 -49.304483169042022 20.194419329306804 0 0 0 -1 I I #
point $-1 -49.304483169042022 -20.194419329306804 -9.3620827572161289 #
straight-curve $-1 -49.304483169042022 0 -9.3620827572161289 0 1 0 I I #
point $-1 -49.304483169042022 20.194419329306804 -9.3620827572161289 #
coedge $-1 $221 $220 $231 $257 reversed $100 $-1 #
edge $-1 $226 -20.194419329306804 $258 20.194419329306804 $221 $267 forward 7 unknown #
straight-curve $-1 -58.683543219188046 20.194419329306804 6.6391158300913737 0 0 -1 I I #
point $-1 -58.683543219188046 20.194419329306804 3.9161489029666177 #
point $-1 -58.683543219188046 20.194419329306804 9.3620827572161289 #
edge $-1 $258 -2.7229669271247552 $235 2.7229669271247561 $252 $268 forward 7 unknown #
vertex $-1 $253 $269 #
straight-curve $-1 0 -20.194419329306804 9.3620827572161289 1 0 0 I I #
straight-curve $-1 -58.683543219188046 0 3.9161489029666177 0 1 0 I I #
point $-1 -58.683543219188046 -20.194419329306804 3.9161489029666177 #
straight-curve $-1 30.438388151165157 -20.194419329306804 32.144305628370226 0 0 -1 I I #
point $-1 30.438388151165157 -20.194419329306804 9.3620827572161289 #
straight-curve $-1 18.883823600389103 -20.194419329306804 6.3277162101404993 1 0 0 I I #
point $-1 30.438388151165157 -20.194419329306804 6.3277162101404985 #
point $-1 37.767647200778192 -17.754022326761131 6.8727137809048076 #
straight-curve $-1 -58.683543219188046 0 9.3620827572161289 0 -1 0 I I #
straight-curve $-1 -58.683543219188046 -20.194419329306804 6.6391158300913737 0 0 -1 I I #
point $-1 -58.683543219188046 -20.194419329306804 9.3620827572161289 #
End-of-ACIS-data 