500 0 9 0           
7 Unknown 11 ACIS 5.0 NT 24 Fri Mar 26 00:20:45 1999 
-1 9.9999999999999995e-007 1e-010 
body $-1 $9 $-1 $10 #
body $-1 $11 $-1 $12 #
body $-1 $13 $-1 $14 #
body $-1 $15 $-1 $16 #
body $-1 $17 $-1 $18 #
body $-1 $19 $-1 $20 #
body $-1 $21 $-1 $22 #
body $-1 $23 $-1 $24 #
body $-1 $25 $-1 $26 #
lump $-1 $-1 $27 $0 #
transform $-1 1 0 0 0 1 0 0 0 1 44.795068208868678 26.890301588843226 8.2548556368302002 1 rotate no_reflect no_shear #
lump $-1 $-1 $28 $1 #
transform $-1 1 0 0 0 1 0 0 0 1 44.795068208868678 26.890301588843226 8.2548556368302002 1 rotate no_reflect no_shear #
lump $-1 $-1 $29 $2 #
transform $-1 1 0 0 0 1 0 0 0 1 44.795068208868678 26.890301588843226 8.2548556368302002 1 rotate no_reflect no_shear #
lump $-1 $-1 $30 $3 #
transform $-1 1 0 0 0 1 0 0 0 1 44.795068208868678 26.890301588843226 8.2548556368302002 1 rotate no_reflect no_shear #
lump $-1 $-1 $31 $4 #
transform $-1 1 0 0 0 1 0 0 0 1 44.795068208868678 26.890301588843226 8.2548556368302002 1 rotate no_reflect no_shear #
lump $-1 $-1 $32 $5 #
transform $-1 1 0 0 0 1 0 0 0 1 44.795068208868678 26.890301588843226 8.2548556368302002 1 rotate no_reflect no_shear #
lump $-1 $-1 $33 $6 #
transform $-1 1 0 0 0 1 0 0 0 1 44.795068208868678 26.890301588843226 8.2548556368302002 1 rotate no_reflect no_shear #
lump $-1 $-1 $34 $7 #
transform $-1 1 0 0 0 1 0 0 0 1 44.795068208868678 26.890301588843226 8.2548556368302002 1 rotate no_reflect no_shear #
lump $-1 $-1 $35 $8 #
transform $-1 1 0 0 0 1 0 0 0 1 44.795068208868678 26.890301588843226 8.2548556368302002 1 rotate no_reflect no_shear #
shell $-1 $-1 $-1 $36 $-1 $9 #
shell $-1 $-1 $-1 $37 $-1 $11 #
shell $-1 $-1 $-1 $38 $-1 $13 #
shell $-1 $-1 $-1 $39 $-1 $15 #
shell $-1 $-1 $-1 $40 $-1 $17 #
shell $-1 $-1 $-1 $41 $-1 $19 #
shell $-1 $-1 $-1 $42 $-1 $21 #
shell $-1 $-1 $-1 $43 $-1 $23 #
shell $-1 $-1 $-1 $44 $-1 $25 #
face $-1 $45 $46 $27 $-1 $47 forward single #
face $-1 $48 $49 $28 $-1 $50 forward single #
face $-1 $51 $52 $29 $-1 $53 reversed single #
face $-1 $54 $55 $30 $-1 $56 forward single #
face $-1 $57 $58 $31 $-1 $59 forward single #
face $-1 $60 $61 $32 $-1 $62 forward single #
face $-1 $63 $64 $33 $-1 $65 reversed single #
face $-1 $66 $67 $34 $-1 $68 forward single #
face $-1 $69 $70 $35 $-1 $71 forward single #
face $-1 $72 $73 $27 $-1 $74 reversed single #
loop $-1 $-1 $75 $36 #
plane-surface $-1 0 0 8.2548556368302002 0 0 1 1 0 0 forward_v I I I I #
face $-1 $76 $77 $28 $-1 $78 reversed single #
loop $-1 $-1 $79 $37 #
plane-surface $-1 -44.795068208868678 0 0 1 0 0 0 0 -1 forward_v I I I I #
face $-1 $80 $81 $29 $-1 $82 reversed single #
loop $-1 $-1 $83 $38 #
plane-surface $-1 -27.133704264549564 26.933659359612083 108.6151138740976 1 0 0 0 -0.51503808176128008 -0.85716729658548041 forward_v I I I I #
face $-1 $84 $85 $30 $-1 $86 forward single #
loop $-1 $87 $88 $39 #
cone-surface $-1 -23.652886050638319 22.984808945151514 5.4119590565359594 0 -0.51503808176128008 -0.85716729658548041 0.5 0 0 1 I I 0 1 0.5 forward I I I I #
face $-1 $89 $90 $31 $-1 $91 forward single #
loop $-1 $92 $93 $40 #
cone-surface $-1 -18.431658729771453 22.984808945151514 5.4119590565359594 0 -0.51503808176128008 -0.85716729658548041 0.5 0 0 1 I I 0 1 0.5 forward I I I I #
face $-1 $94 $95 $32 $-1 $96 forward single #
loop $-1 $97 $98 $41 #
cone-surface $-1 -13.210431408904586 22.984808945151514 5.4119590565359594 0 -0.51503808176128008 -0.85716729658548041 0.5 0 0 1 I I 0 1 0.5 forward I I I I #
face $-1 $99 $100 $33 $-1 $101 reversed single #
loop $-1 $-1 $102 $42 #
plane-surface $-1 -16.960379187261175 -73.032633594166072 78.613457526396942 -1 0 0 0 -0.51503808176128008 0.85716729658548041 forward_v I I I I #
face $-1 $103 $104 $34 $-1 $105 forward single #
loop $-1 $106 $107 $43 #
cone-surface $-1 -30.253095489019667 -19.588861876385771 1.7977528338575706 0 0.51503808176128008 -0.85716729658548041 2 0 0 1 I I 0 1 2 forward I I I I #
face $-1 $108 $109 $35 $-1 $110 forward single #
loop $-1 $111 $112 $44 #
cone-surface $-1 -22.277465707964573 -19.588861876385771 1.7977528338575706 0 0.51503808176128008 -0.85716729658548041 2 0 0 1 I I 0 1 2 forward I I I I #
face $-1 $113 $114 $27 $-1 $115 reversed single #
loop $-1 $-1 $116 $45 #
plane-surface $-1 0 0 -8.2548556368302002 0 0 1 1 0 0 forward_v I I I I #
coedge $-1 $117 $118 $119 $120 forward $46 $-1 #
face $-1 $121 $122 $28 $-1 $123 forward single #
loop $-1 $-1 $124 $48 #
plane-surface $-1 0 26.890301588843226 0 0 -1 0 0 0 -1 forward_v I I I I #
coedge $-1 $125 $126 $127 $128 forward $49 $-1 #
face $-1 $129 $130 $29 $-1 $131 reversed single #
loop $-1 $-1 $132 $51 #
plane-surface $-1 -18.431658729771453 -19.208672645710767 31.821378840181282 0 0.51503808176128008 0.85716729658548041 1 0 0 forward_v I I I I #
coedge $-1 $133 $134 $135 $136 reversed $52 $-1 #
face $-1 $-1 $137 $30 $-1 $138 forward single #
loop $-1 $139 $140 $54 #
cone-surface $-1 -23.652886050638319 22.389403734509184 4.4210383987199258 0 -0.51503808176128008 -0.85716729658548041 0.25 0 0 1 I I -0.70710678118654746 0.70710678118654746 0.25 forward I I I I #
loop $-1 $-1 $141 $39 #
coedge $-1 $88 $88 $142 $143 reversed $55 $-1 #
face $-1 $-1 $144 $31 $-1 $145 forward single #
loop $-1 $146 $147 $57 #
cone-surface $-1 -18.431658729771453 22.389403734509184 4.4210383987199258 0 -0.51503808176128008 -0.85716729658548041 0.25 0 0 1 I I -0.70710678118654746 0.70710678118654746 0.25 forward I I I I #
loop $-1 $-1 $148 $40 #
coedge $-1 $93 $93 $149 $150 reversed $58 $-1 #
face $-1 $-1 $151 $32 $-1 $152 forward single #
loop $-1 $153 $154 $60 #
cone-surface $-1 -13.210431408904586 22.389403734509184 4.4210383987199258 0 -0.51503808176128008 -0.85716729658548041 0.25 0 0 1 I I -0.70710678118654746 0.70710678118654746 0.25 forward I I I I #
loop $-1 $-1 $155 $41 #
coedge $-1 $98 $98 $156 $157 reversed $61 $-1 #
face $-1 $158 $159 $33 $-1 $160 reversed single #
loop $-1 $-1 $161 $63 #
plane-surface $-1 -26.265280598492119 -26.890301588843222 1.8197224924806221 0 -0.51503808176128008 0.85716729658548041 1 0 0 forward_v I I I I #
coedge $-1 $162 $163 $164 $165 reversed $64 $-1 #
face $-1 $-1 $166 $34 $-1 $167 forward single #
loop $-1 $168 $169 $66 #
cone-surface $-1 -30.253095489019667 -17.127314014383597 -2.2989506935257467 0 0.51503808176128008 -0.85716729658548041 1 0 0 1 I I -0.70710678118654746 0.70710678118654746 1 forward I I I I #
loop $-1 $-1 $170 $43 #
coedge $-1 $107 $107 $171 $172 reversed $67 $-1 #
face $-1 $-1 $173 $35 $-1 $174 forward single #
loop $-1 $175 $176 $69 #
cone-surface $-1 -22.277465707964573 -17.127314014383597 -2.2989506935257467 0 0.51503808176128008 -0.85716729658548041 1 0 0 1 I I -0.70710678118654746 0.70710678118654746 1 forward I I I I #
loop $-1 $-1 $177 $44 #
coedge $-1 $112 $112 $178 $179 reversed $70 $-1 #
face $-1 $180 $181 $27 $-1 $182 reversed single #
loop $-1 $-1 $183 $72 #
plane-surface $-1 0 -26.890301588843226 0 0 1 0 0 0 1 forward_v I I I I #
coedge $-1 $184 $185 $186 $187 forward $73 $-1 #
coedge $-1 $188 $75 $189 $190 forward $46 $-1 #
coedge $-1 $75 $188 $191 $192 forward $46 $-1 #
coedge $-1 $193 $194 $75 $120 reversed $195 $-1 #
edge $-1 $196 -26.890301588843226 $197 26.890301588843226 $119 $198 forward 7 unknown #
face $-1 $199 $200 $28 $-1 $201 reversed single #
loop $-1 $-1 $127 $76 #
plane-surface $-1 -49.407511308441485 0 -5.2548556368302002 0 0 1 1 0 0 forward_v I I I I #
coedge $-1 $202 $203 $126 $204 forward $77 $-1 #
coedge $-1 $205 $79 $206 $207 reversed $49 $-1 #
coedge $-1 $79 $205 $124 $204 reversed $49 $-1 #
coedge $-1 $208 $209 $79 $128 reversed $122 $-1 #
edge $-1 $210 -26.890301588843226 $211 26.890301588843226 $127 $212 forward 7 unknown #
face $-1 $213 $214 $29 $-1 $215 forward single #
loop $-1 $-1 $216 $80 #
plane-surface $-1 -9.7296131949933411 26.933659359612083 108.6151138740976 -1 0 0 0 0.51503808176128008 0.85716729658548041 forward_v I I I I #
coedge $-1 $217 $218 $219 $220 reversed $81 $-1 #
coedge $-1 $134 $83 $221 $222 reversed $52 $-1 #
coedge $-1 $83 $133 $217 $223 reversed $52 $-1 #
coedge $-1 $219 $224 $83 $136 forward $214 $-1 #
edge $-1 $225 -13.423471909037184 $226 -6.5457780020577747 $135 $227 forward 7 unknown #
loop $-1 $-1 $142 $84 #
plane-surface $-1 -18.431658729771453 -19.208672645710767 31.821378840181282 0 0.51503808176128008 0.85716729658548041 1 0 0 forward_v I I I I #
loop $-1 $-1 $228 $54 #
coedge $-1 $140 $140 $141 $229 reversed $85 $-1 #
coedge $-1 $141 $141 $140 $229 forward $87 $-1 #
coedge $-1 $142 $142 $88 $143 forward $137 $-1 #
edge $-1 $230 5.1756485401111291e-015 $230 6.2831853071796058 $142 $231 forward 7 unknown #
loop $-1 $-1 $149 $89 #
plane-surface $-1 -18.431658729771453 -19.208672645710767 31.821378840181282 0 0.51503808176128008 0.85716729658548041 1 0 0 forward_v I I I I #
loop $-1 $-1 $232 $57 #
coedge $-1 $147 $147 $148 $233 reversed $90 $-1 #
coedge $-1 $148 $148 $147 $233 forward $92 $-1 #
coedge $-1 $149 $149 $93 $150 forward $144 $-1 #
edge $-1 $234 5.1756485401111291e-015 $234 6.2831853071796058 $149 $235 forward 7 unknown #
loop $-1 $-1 $156 $94 #
plane-surface $-1 -18.431658729771453 -19.208672645710767 31.821378840181282 0 0.51503808176128008 0.85716729658548041 1 0 0 forward_v I I I I #
loop $-1 $-1 $236 $60 #
coedge $-1 $154 $154 $155 $237 reversed $95 $-1 #
coedge $-1 $155 $155 $154 $237 forward $97 $-1 #
coedge $-1 $156 $156 $98 $157 forward $151 $-1 #
edge $-1 $238 5.1756485401111291e-015 $238 6.2831853071796058 $156 $239 forward 7 unknown #
face $-1 $240 $241 $33 $-1 $242 reversed single #
loop $-1 $-1 $243 $99 #
plane-surface $-1 -35.570182009723062 -73.032633594166072 78.613457526396942 1 0 0 0 0.51503808176128008 -0.85716729658548041 forward_v I I I I #
coedge $-1 $244 $245 $246 $247 reversed $100 $-1 #
coedge $-1 $163 $102 $248 $249 reversed $64 $-1 #
coedge $-1 $102 $162 $244 $250 reversed $64 $-1 #
coedge $-1 $246 $251 $102 $165 forward $252 $-1 #
edge $-1 $253 9.6260152082398101 $254 20.33587507267292 $164 $255 forward 7 unknown #
loop $-1 $-1 $171 $103 #
plane-surface $-1 -26.265280598492119 -26.890301588843222 1.8197224924806221 0 -0.51503808176128008 0.85716729658548041 1 0 0 forward_v I I I I #
loop $-1 $-1 $256 $66 #
coedge $-1 $169 $169 $170 $257 reversed $104 $-1 #
coedge $-1 $170 $170 $169 $257 forward $106 $-1 #
coedge $-1 $171 $171 $107 $172 forward $166 $-1 #
edge $-1 $258 6.0774357071160563e-016 $258 6.2831853071796013 $171 $259 forward 7 unknown #
loop $-1 $-1 $178 $108 #
plane-surface $-1 -26.265280598492119 -26.890301588843222 1.8197224924806221 0 -0.51503808176128008 0.85716729658548041 1 0 0 forward_v I I I I #
loop $-1 $-1 $260 $69 #
coedge $-1 $176 $176 $177 $261 reversed $109 $-1 #
coedge $-1 $177 $177 $176 $261 forward $111 $-1 #
coedge $-1 $178 $178 $112 $179 forward $173 $-1 #
edge $-1 $262 6.0774357071160563e-016 $262 6.2831853071796013 $178 $263 forward 7 unknown #
face $-1 $264 $265 $27 $-1 $266 reversed single #
loop $-1 $-1 $267 $113 #
plane-surface $-1 -44.795068208868678 0 0 1 0 0 0 0 -1 forward_v I I I I #
coedge $-1 $268 $191 $267 $269 forward $114 $-1 #
coedge $-1 $270 $116 $268 $271 forward $73 $-1 #
coedge $-1 $116 $270 $272 $273 forward $73 $-1 #
coedge $-1 $194 $193 $116 $187 reversed $195 $-1 #
edge $-1 $274 -26.890301588843226 $275 26.890301588843226 $186 $276 forward 7 unknown #
coedge $-1 $118 $117 $277 $278 forward $46 $-1 #
coedge $-1 $279 $280 $117 $190 reversed $265 $-1 #
edge $-1 $197 -44.795068208868678 $281 44.795068208868678 $189 $282 forward 7 unknown #
coedge $-1 $183 $283 $118 $192 reversed $114 $-1 #
edge $-1 $284 -44.795068208868678 $196 44.795068208868678 $191 $285 forward 7 unknown #
coedge $-1 $186 $119 $283 $286 forward $195 $-1 #
coedge $-1 $119 $186 $279 $287 reversed $195 $-1 #
loop $-1 $-1 $193 $264 #
vertex $-1 $120 $288 #
vertex $-1 $120 $289 #
straight-curve $-1 44.795068208868678 0 8.2548556368302002 0 1 0 I I #
face $-1 $290 $291 $28 $-1 $292 reversed single #
loop $-1 $-1 $293 $121 #
plane-surface $-1 -54.019954408014293 0 -6.7548556368302002 1 0 0 0 0 -1 forward_v I I I I #
coedge $-1 $294 $124 $295 $296 reversed $77 $-1 #
coedge $-1 $124 $294 $208 $297 reversed $77 $-1 #
edge $-1 $210 5.2548556368302002 $298 8.2548556368302002 $124 $299 forward 7 unknown #
coedge $-1 $126 $125 $300 $301 reversed $49 $-1 #
coedge $-1 $302 $303 $125 $207 forward $304 $-1 #
edge $-1 $305 -8.2548556368302002 $211 -5.2548556368302002 $206 $306 forward 7 unknown #
coedge $-1 $307 $127 $203 $297 forward $122 $-1 #
coedge $-1 $127 $307 $302 $308 forward $122 $-1 #
vertex $-1 $204 $309 #
vertex $-1 $308 $310 #
straight-curve $-1 -44.795068208868678 0 -5.2548556368302002 0 -1 0 I I #
face $-1 $-1 $311 $29 $-1 $312 reversed single #
loop $-1 $-1 $135 $129 #
plane-surface $-1 0 0 8.2548556368302002 0 0 1 1 0 0 forward_v I I I I #
coedge $-1 $313 $314 $315 $316 reversed $130 $-1 #
coedge $-1 $317 $132 $134 $223 forward $81 $-1 #
coedge $-1 $132 $317 $313 $318 forward $81 $-1 #
coedge $-1 $315 $135 $132 $220 forward $214 $-1 #
edge $-1 $226 -17.917874899663836 $319 -0.51378383010761475 $219 $320 forward 7 unknown #
coedge $-1 $321 $322 $133 $222 forward $311 $-1 #
edge $-1 $323 -50.185236793467752 $225 -46.052701300218601 $221 $324 forward 7 unknown #
edge $-1 $226 45.756855731445029 $323 53.780603177686451 $134 $325 forward 7 unknown #
coedge $-1 $135 $315 $321 $326 forward $214 $-1 #
vertex $-1 $222 $327 #
vertex $-1 $136 $328 #
straight-curve $-1 -27.133704264549564 13.466829679806041 8.2548556368302002 0 -1 0 I I #
coedge $-1 $228 $228 $-1 $329 reversed $139 $-1 #
edge $-1 $330 0 $330 6.2831853071796004 $140 $331 forward 7 unknown #
vertex $-1 $143 $332 #
ellipse-curve $-1 -23.652886050638319 23.451454635353524 6.1885878902056231 0 0.51503808176128008 0.85716729658548041 0.5 0 0 1 I I #
coedge $-1 $232 $232 $-1 $333 reversed $146 $-1 #
edge $-1 $334 0 $334 6.2831853071796004 $147 $335 forward 7 unknown #
vertex $-1 $150 $336 #
ellipse-curve $-1 -18.431658729771453 23.451454635353524 6.1885878902056231 0 0.51503808176128008 0.85716729658548041 0.5 0 0 1 I I #
coedge $-1 $236 $236 $-1 $337 reversed $153 $-1 #
edge $-1 $338 0 $338 6.2831853071796004 $154 $339 forward 7 unknown #
vertex $-1 $157 $340 #
ellipse-curve $-1 -13.210431408904586 23.451454635353524 6.1885878902056231 0 0.51503808176128008 0.85716729658548041 0.5 0 0 1 I I #
face $-1 $-1 $252 $33 $-1 $341 forward single #
loop $-1 $-1 $342 $158 #
plane-surface $-1 0 -26.890301588843226 0 0 1 0 0 0 1 forward_v I I I I #
coedge $-1 $343 $344 $345 $346 reversed $159 $-1 #
coedge $-1 $347 $161 $163 $250 forward $100 $-1 #
coedge $-1 $161 $347 $343 $348 forward $100 $-1 #
coedge $-1 $345 $164 $161 $247 forward $252 $-1 #
edge $-1 $254 3.8277388880151157 $349 22.437541710477003 $246 $350 forward 7 unknown #
coedge $-1 $351 $352 $162 $249 forward $241 $-1 #
edge $-1 $353 -37.487006270717849 $253 -31.051873126368271 $248 $354 forward 7 unknown #
edge $-1 $254 -12.494480257349707 $353 4.1888842534599766e-015 $163 $355 forward 7 unknown #
coedge $-1 $164 $345 $351 $356 forward $252 $-1 #
loop $-1 $-1 $345 $240 #
vertex $-1 $249 $357 #
vertex $-1 $165 $358 #
straight-curve $-1 -16.960379187261175 -36.516316797083036 8.2548556368302002 0 1 0 I I #
coedge $-1 $256 $256 $-1 $359 reversed $168 $-1 #
edge $-1 $360 0 $360 6.2831853071796004 $169 $361 forward 7 unknown #
vertex $-1 $172 $362 #
ellipse-curve $-1 -30.253095489019667 -21.535371656626669 5.0372890646554112 0 -0.51503808176128008 0.85716729658548041 2 0 0 1 I I #
coedge $-1 $260 $260 $-1 $363 reversed $175 $-1 #
edge $-1 $364 0 $364 6.2831853071796004 $176 $365 forward 7 unknown #
vertex $-1 $179 $366 #
ellipse-curve $-1 -22.277465707964573 -21.535371656626669 5.0372890646554112 0 -0.51503808176128008 0.85716729658548041 2 0 0 1 I I #
face $-1 $-1 $195 $27 $-1 $367 reversed single #
loop $-1 $-1 $279 $180 #
plane-surface $-1 0 26.890301588843226 0 0 -1 0 0 0 -1 forward_v I I I I #
coedge $-1 $277 $368 $183 $269 reversed $181 $-1 #
coedge $-1 $283 $183 $184 $271 reversed $114 $-1 #
edge $-1 $284 -8.2548556368302002 $369 8.2548556368302002 $267 $370 forward 7 unknown #
coedge $-1 $185 $184 $368 $371 forward $73 $-1 #
edge $-1 $275 -44.795068208868678 $369 44.795068208868678 $268 $372 forward 7 unknown #
coedge $-1 $280 $279 $185 $273 reversed $265 $-1 #
edge $-1 $373 -44.795068208868678 $274 44.795068208868678 $272 $374 forward 7 unknown #
vertex $-1 $187 $375 #
vertex $-1 $286 $376 #
straight-curve $-1 44.795068208868678 0 -8.2548556368302002 0 -1 0 I I #
coedge $-1 $377 $267 $188 $278 reversed $181 $-1 #
edge $-1 $281 -26.890301588843226 $284 26.890301588843226 $277 $378 forward 7 unknown #
coedge $-1 $272 $189 $194 $287 forward $265 $-1 #
coedge $-1 $189 $272 $377 $379 reversed $265 $-1 #
vertex $-1 $190 $380 #
straight-curve $-1 0 26.890301588843226 8.2548556368302002 -1 0 0 I I #
coedge $-1 $191 $268 $193 $286 reversed $114 $-1 #
vertex $-1 $278 $381 #
straight-curve $-1 0 -26.890301588843226 8.2548556368302002 1 0 0 I I #
edge $-1 $196 -8.2548556368302002 $275 8.2548556368302002 $193 $382 forward 7 unknown #
edge $-1 $197 -8.2548556368302002 $274 8.2548556368302002 $194 $383 forward 7 unknown #
point $-1 44.795068208868678 -26.890301588843226 8.2548556368302002 #
point $-1 44.795068208868678 26.890301588843226 8.2548556368302002 #
face $-1 $-1 $304 $28 $-1 $384 reversed single #
loop $-1 $-1 $300 $199 #
plane-surface $-1 0 0 -8.2548556368302002 0 0 1 1 0 0 forward_v I I I I #
coedge $-1 $385 $386 $294 $387 forward $200 $-1 #
coedge $-1 $203 $202 $293 $387 reversed $77 $-1 #
coedge $-1 $300 $388 $202 $296 forward $291 $-1 #
edge $-1 $389 -54.019954408014293 $298 -44.795068208868678 $202 $390 forward 7 unknown #
edge $-1 $210 -4.6124430995728076 $391 4.6124430995728076 $203 $392 forward 7 unknown #
vertex $-1 $204 $393 #
straight-curve $-1 -44.795068208868678 26.890301588843226 0 0 0 -1 I I #
coedge $-1 $394 $295 $205 $301 forward $291 $-1 #
edge $-1 $298 -26.890301588843226 $305 26.890301588843226 $300 $395 forward 7 unknown #
coedge $-1 $396 $206 $209 $308 reversed $304 $-1 #
coedge $-1 $206 $396 $394 $397 reversed $304 $-1 #
loop $-1 $-1 $206 $290 #
vertex $-1 $397 $398 #
straight-curve $-1 -44.795068208868678 -26.890301588843226 0 0 0 1 I I #
coedge $-1 $209 $208 $386 $399 forward $122 $-1 #
edge $-1 $400 -4.6124430995728076 $211 4.6124430995728076 $302 $401 forward 7 unknown #
point $-1 -44.795068208868678 26.890301588843226 -5.2548556368302002 #
point $-1 -44.795068208868678 -26.890301588843226 -5.2548556368302002 #
loop $-1 $-1 $221 $213 #
plane-surface $-1 0 26.890301588843226 0 0 -1 0 0 0 -1 forward_v I I I I #
coedge $-1 $314 $216 $218 $318 reversed $130 $-1 #
coedge $-1 $216 $313 $402 $403 reversed $130 $-1 #
coedge $-1 $224 $219 $216 $316 forward $214 $-1 #
edge $-1 $319 6.5457780020577747 $404 13.423471909037184 $315 $405 forward 7 unknown #
coedge $-1 $218 $217 $322 $406 reversed $81 $-1 #
edge $-1 $407 -53.780603177686451 $319 -45.756855731445029 $313 $408 forward 7 unknown #
vertex $-1 $220 $409 #
straight-curve $-1 -9.2158293648857263 20.012607681863813 8.2548556368302002 1 0 0 I I #
coedge $-1 $402 $221 $224 $326 reversed $311 $-1 #
coedge $-1 $221 $402 $317 $406 forward $311 $-1 #
vertex $-1 $222 $410 #
straight-curve $-1 -27.133704264549564 26.890301588843226 54.307556937048801 0 0 1 I I #
straight-curve $-1 -27.133704264549564 -19.208672645710767 31.821378840181282 0 0.85716729658548041 -0.51503808176128008 I I #
edge $-1 $404 9.7296131949933411 $225 27.133704264549564 $321 $411 forward 7 unknown #
point $-1 -27.133704264549564 26.890301588843226 8.2548556368302002 #
point $-1 -27.133704264549564 20.012607681863816 8.2548556368302002 #
edge $-1 $412 1 $412 0 $228 $-1 forward 7 unknown #
vertex $-1 $229 $413 #
ellipse-curve $-1 -23.652886050638319 22.518163254949503 4.6353302228662958 0 0.51503808176128008 0.85716729658548041 0.5 0 0 1 I I #
point $-1 -23.152886050638319 23.451454635353528 6.1885878902056239 #
edge $-1 $414 1 $414 0 $232 $-1 forward 7 unknown #
vertex $-1 $233 $415 #
ellipse-curve $-1 -18.431658729771453 22.518163254949503 4.6353302228662958 0 0.51503808176128008 0.85716729658548041 0.5 0 0 1 I I #
point $-1 -17.931658729771453 23.451454635353528 6.1885878902056239 #
edge $-1 $416 1 $416 0 $236 $-1 forward 7 unknown #
vertex $-1 $237 $417 #
ellipse-curve $-1 -13.210431408904586 22.518163254949503 4.6353302228662958 0 0.51503808176128008 0.85716729658548041 0.5 0 0 1 I I #
point $-1 -12.710431408904586 23.451454635353528 6.1885878902056239 #
plane-surface $-1 0 0 8.2548556368302002 0 0 1 1 0 0 forward_v I I I I #
coedge $-1 $352 $351 $344 $418 forward $241 $-1 #
coedge $-1 $344 $243 $245 $348 reversed $159 $-1 #
coedge $-1 $243 $343 $342 $418 reversed $159 $-1 #
coedge $-1 $251 $246 $243 $346 forward $252 $-1 #
edge $-1 $349 -20.33587507267292 $419 -9.6260152082398101 $345 $420 forward 7 unknown #
coedge $-1 $245 $244 $352 $421 reversed $100 $-1 #
edge $-1 $422 -4.1888842534599766e-015 $349 12.494480257349707 $343 $423 forward 7 unknown #
vertex $-1 $247 $424 #
straight-curve $-1 -13.132640299246059 -16.18044172441012 8.2548556368302002 -1 0 0 I I #
coedge $-1 $342 $248 $251 $356 reversed $241 $-1 #
coedge $-1 $248 $342 $347 $421 forward $241 $-1 #
vertex $-1 $249 $425 #
straight-curve $-1 -16.960379187261175 -26.890301588843226 39.306728763198471 0 0 1 I I #
straight-curve $-1 -16.960379187261175 -26.890301588843222 1.8197224924806221 0 -0.85716729658548041 -0.51503808176128008 I I #
edge $-1 $419 -35.570182009723062 $253 -16.960379187261175 $351 $426 forward 7 unknown #
point $-1 -16.960379187261175 -26.890301588843226 8.2548556368302002 #
point $-1 -16.960379187261175 -16.180441724410116 8.2548556368302002 #
edge $-1 $427 1 $427 0 $256 $-1 forward 7 unknown #
vertex $-1 $257 $428 #
ellipse-curve $-1 -30.253095489019667 -17.642352096144876 -1.4417833969402662 0 -0.51503808176128008 0.85716729658548041 2 0 0 1 I I #
point $-1 -28.253095489019667 -21.535371656626666 5.0372890646554076 #
edge $-1 $429 1 $429 0 $260 $-1 forward 7 unknown #
vertex $-1 $261 $430 #
ellipse-curve $-1 -22.277465707964573 -17.642352096144876 -1.4417833969402662 0 -0.51503808176128008 0.85716729658548041 2 0 0 1 I I #
point $-1 -20.277465707964573 -21.535371656626666 5.0372890646554076 #
plane-surface $-1 44.795068208868678 0 0 -1 0 0 0 0 1 forward_v I I I I #
coedge $-1 $267 $377 $270 $371 reversed $181 $-1 #
vertex $-1 $371 $431 #
straight-curve $-1 -44.795068208868678 -26.890301588843226 0 0 0 -1 I I #
edge $-1 $369 -26.890301588843226 $373 26.890301588843226 $368 $432 forward 7 unknown #
straight-curve $-1 0 -26.890301588843226 -8.2548556368302002 -1 0 0 I I #
vertex $-1 $273 $433 #
straight-curve $-1 0 26.890301588843226 -8.2548556368302002 1 0 0 I I #
point $-1 44.795068208868678 26.890301588843226 -8.2548556368302002 #
point $-1 44.795068208868678 -26.890301588843226 -8.2548556368302002 #
coedge $-1 $368 $277 $280 $379 forward $181 $-1 #
straight-curve $-1 -44.795068208868678 0 8.2548556368302002 0 -1 0 I I #
edge $-1 $281 -8.2548556368302002 $373 8.2548556368302002 $280 $434 forward 7 unknown #
point $-1 -44.795068208868678 26.890301588843226 8.2548556368302002 #
point $-1 -44.795068208868678 -26.890301588843226 8.2548556368302002 #
straight-curve $-1 44.795068208868678 -26.890301588843226 0 0 0 -1 I I #
straight-curve $-1 44.795068208868678 26.890301588843226 0 0 0 -1 I I #
plane-surface $-1 0 -26.890301588843226 0 0 1 0 0 0 1 forward_v I I I I #
coedge $-1 $435 $293 $388 $436 reversed $200 $-1 #
coedge $-1 $293 $435 $307 $399 reversed $200 $-1 #
edge $-1 $391 -1.5 $389 1.5 $294 $437 forward 7 unknown #
coedge $-1 $295 $394 $385 $436 forward $291 $-1 #
vertex $-1 $296 $438 #
straight-curve $-1 0 26.890301588843226 -8.2548556368302002 1 0 0 I I #
vertex $-1 $297 $439 #
straight-curve $-1 -49.407511308441485 26.890301588843226 -5.2548556368302002 -1 0 0 I I #
point $-1 -44.795068208868678 26.890301588843226 -8.2548556368302002 #
coedge $-1 $388 $300 $303 $397 forward $291 $-1 #
straight-curve $-1 -44.795068208868678 0 -8.2548556368302002 0 -1 0 I I #
coedge $-1 $303 $302 $435 $440 forward $304 $-1 #
edge $-1 $305 -4.6124430995728076 $441 4.6124430995728076 $303 $442 forward 7 unknown #
point $-1 -44.795068208868678 -26.890301588843226 -8.2548556368302002 #
edge $-1 $391 -26.890301588843226 $400 26.890301588843226 $386 $443 forward 7 unknown #
vertex $-1 $399 $444 #
straight-curve $-1 -49.407511308441485 -26.890301588843226 -5.2548556368302002 1 0 0 I I #
coedge $-1 $322 $321 $314 $403 forward $311 $-1 #
edge $-1 $404 46.052701300218601 $407 50.185236793467752 $402 $445 forward 7 unknown #
vertex $-1 $326 $446 #
straight-curve $-1 -9.7296131949933411 13.466829679806041 8.2548556368302002 0 1 0 I I #
edge $-1 $407 0.51378383010761475 $323 17.917874899663836 $322 $447 forward 7 unknown #
vertex $-1 $406 $448 #
straight-curve $-1 -9.7296131949933411 -19.208672645710767 31.821378840181282 0 -0.85716729658548041 0.51503808176128008 I I #
point $-1 -9.7296131949933411 20.012607681863816 8.2548556368302002 #
point $-1 -27.133704264549564 26.890301588843226 4.1223201435810495 #
straight-curve $-1 0 26.890301588843226 8.2548556368302002 -1 0 0 I I #
vertex $-1 $329 $449 #
point $-1 -23.152886050638319 22.518163254949503 4.6353302228662958 #
vertex $-1 $333 $450 #
point $-1 -17.931658729771453 22.518163254949503 4.6353302228662958 #
vertex $-1 $337 $451 #
point $-1 -12.710431408904586 22.518163254949503 4.6353302228662958 #
edge $-1 $419 31.051873126368271 $422 37.487006270717849 $342 $452 forward 7 unknown #
vertex $-1 $356 $453 #
straight-curve $-1 -35.570182009723062 -36.516316797083036 8.2548556368302002 0 -1 0 I I #
edge $-1 $422 -22.437541710477003 $353 -3.8277388880151157 $352 $454 forward 7 unknown #
vertex $-1 $421 $455 #
straight-curve $-1 -35.570182009723062 -26.890301588843222 1.8197224924806221 0 0.85716729658548041 0.51503808176128008 I I #
point $-1 -35.570182009723062 -16.180441724410116 8.2548556368302002 #
point $-1 -16.960379187261175 -26.890301588843226 1.8197224924806199 #
straight-curve $-1 0 -26.890301588843226 8.2548556368302002 1 0 0 I I #
vertex $-1 $359 $456 #
point $-1 -28.253095489019667 -17.642352096144876 -1.4417833969402662 #
vertex $-1 $363 $457 #
point $-1 -20.277465707964573 -17.642352096144876 -1.4417833969402662 #
point $-1 -44.795068208868678 -26.890301588843226 -8.2548556368302002 #
straight-curve $-1 -44.795068208868678 0 -8.2548556368302002 0 1 0 I I #
point $-1 -44.795068208868678 26.890301588843226 -8.2548556368302002 #
straight-curve $-1 -44.795068208868678 26.890301588843226 0 0 0 -1 I I #
coedge $-1 $386 $385 $396 $440 reversed $200 $-1 #
edge $-1 $441 -26.890301588843226 $389 26.890301588843226 $385 $458 forward 7 unknown #
straight-curve $-1 -54.019954408014293 26.890301588843226 -6.7548556368302002 0 0 -1 I I #
point $-1 -54.019954408014293 26.890301588843226 -8.2548556368302002 #
point $-1 -54.019954408014293 26.890301588843226 -5.2548556368302002 #
edge $-1 $400 -1.5 $441 1.5 $435 $459 forward 7 unknown #
vertex $-1 $436 $460 #
straight-curve $-1 -49.407511308441485 -26.890301588843226 -8.2548556368302002 -1 0 0 I I #
straight-curve $-1 -54.019954408014293 0 -5.2548556368302002 0 -1 0 I I #
point $-1 -54.019954408014293 -26.890301588843226 -5.2548556368302002 #
straight-curve $-1 -9.7296131949933411 26.890301588843226 54.307556937048801 0 0 -1 I I #
point $-1 -9.7296131949933411 26.890301588843226 8.2548556368302002 #
straight-curve $-1 -9.2158293648857263 26.890301588843222 4.1223201435810513 -1 0 0 I I #
point $-1 -9.7296131949933411 26.890301588843226 4.1223201435810495 #
point $-1 -23.652886050638319 22.260644214068865 4.2067465745735557 #
point $-1 -18.431658729771453 22.260644214068865 4.2067465745735557 #
point $-1 -13.210431408904586 22.260644214068865 4.2067465745735557 #
straight-curve $-1 -35.570182009723062 -26.890301588843226 39.306728763198471 0 0 -1 I I #
point $-1 -35.570182009723062 -26.890301588843226 8.2548556368302002 #
straight-curve $-1 -13.132640299246059 -26.890301588843226 1.8197224924806192 1 0 0 I I #
point $-1 -35.570182009723062 -26.890301588843226 1.8197224924806199 #
point $-1 -30.253095489019667 -16.612275932622317 -3.1561179901112268 #
point $-1 -22.277465707964573 -16.612275932622317 -3.1561179901112268 #
straight-curve $-1 -54.019954408014293 0 -8.2548556368302002 0 1 0 I I #
straight-curve $-1 -54.019954408014293 -26.890301588843226 -6.7548556368302002 0 0 -1 I I #
point $-1 -54.019954408014293 -26.890301588843226 -8.2548556368302002 #
End-of-ACIS-data 