500 0 9 0           
7 Unknown 11 ACIS 5.0 NT 24 Thu Mar 25 22:23:15 1999 
-1 9.9999999999999995e-007 1e-010 
body $-1 $9 $-1 $10 #
body $-1 $11 $-1 $12 #
body $-1 $13 $-1 $14 #
body $-1 $15 $-1 $16 #
body $-1 $17 $-1 $18 #
body $-1 $19 $-1 $20 #
body $-1 $21 $-1 $22 #
body $-1 $23 $-1 $24 #
body $-1 $25 $-1 $26 #
lump $-1 $-1 $27 $0 #
transform $-1 1 0 0 0 1 0 0 0 1 70.914029358806118 44.674951177952295 18.959347394951294 1 rotate no_reflect no_shear #
lump $-1 $-1 $28 $1 #
transform $-1 1 0 0 0 1 0 0 0 1 70.914029358806118 44.674951177952295 18.959347394951294 1 rotate no_reflect no_shear #
lump $-1 $-1 $29 $2 #
transform $-1 1 0 0 0 1 0 0 0 1 70.914029358806118 44.674951177952295 18.959347394951294 1 rotate no_reflect no_shear #
lump $-1 $-1 $30 $3 #
transform $-1 1 0 0 0 1 0 0 0 1 70.914029358806118 44.674951177952295 18.959347394951294 1 rotate no_reflect no_shear #
lump $-1 $-1 $31 $4 #
transform $-1 1 0 0 0 1 0 0 0 1 70.914029358806118 44.674951177952295 18.959347394951294 1 rotate no_reflect no_shear #
lump $-1 $-1 $32 $5 #
transform $-1 1 0 0 0 1 0 0 0 1 70.914029358806118 44.674951177952295 18.959347394951294 1 rotate no_reflect no_shear #
lump $-1 $-1 $33 $6 #
transform $-1 1 0 0 0 1 0 0 0 1 70.914029358806118 44.674951177952295 18.959347394951294 1 rotate no_reflect no_shear #
lump $-1 $-1 $34 $7 #
transform $-1 1 0 0 0 1 0 0 0 1 70.914029358806118 44.674951177952295 18.959347394951294 1 rotate no_reflect no_shear #
lump $-1 $-1 $35 $8 #
transform $-1 1 0 0 0 1 0 0 0 1 70.914029358806118 44.674951177952295 18.959347394951294 1 rotate no_reflect no_shear #
shell $-1 $-1 $-1 $36 $-1 $9 #
shell $-1 $-1 $-1 $37 $-1 $11 #
shell $-1 $-1 $-1 $38 $-1 $13 #
shell $-1 $-1 $-1 $39 $-1 $15 #
shell $-1 $-1 $-1 $40 $-1 $17 #
shell $-1 $-1 $-1 $41 $-1 $19 #
shell $-1 $-1 $-1 $42 $-1 $21 #
shell $-1 $-1 $-1 $43 $-1 $23 #
shell $-1 $-1 $-1 $44 $-1 $25 #
face $-1 $45 $46 $27 $-1 $47 forward single #
face $-1 $48 $49 $28 $-1 $50 forward single #
face $-1 $51 $52 $29 $-1 $53 reversed single #
face $-1 $54 $55 $30 $-1 $56 forward single #
face $-1 $57 $58 $31 $-1 $59 forward single #
face $-1 $60 $61 $32 $-1 $62 forward single #
face $-1 $63 $64 $33 $-1 $65 reversed single #
face $-1 $66 $67 $34 $-1 $68 forward single #
face $-1 $69 $70 $35 $-1 $71 forward single #
face $-1 $72 $73 $27 $-1 $74 reversed single #
loop $-1 $-1 $75 $36 #
plane-surface $-1 0 0 18.959347394951294 0 0 1 1 0 0 forward_v I I I I #
face $-1 $76 $77 $28 $-1 $78 reversed single #
loop $-1 $-1 $79 $37 #
plane-surface $-1 -70.914029358806118 0 0 1 0 0 0 0 -1 forward_v I I I I #
face $-1 $80 $81 $29 $-1 $82 reversed single #
loop $-1 $-1 $83 $38 #
plane-surface $-1 -7.7053063094085346 81.782613302123892 165.49803786283903 1 0 0 0 -0.70710678939079041 -0.70710677298230451 forward_v I I I I #
face $-1 $84 $85 $30 $-1 $86 forward single #
loop $-1 $87 $88 $39 #
cone-surface $-1 -0.3345463855590225 32.936073086592586 7.2204691831586052 0 -0.70710678939079041 -0.70710677298230451 2.5 0 0 1 I I 0 1 2.5 forward I I I I #
face $-1 $89 $90 $31 $-1 $91 forward single #
loop $-1 $92 $93 $40 #
cone-surface $-1 10.721593500215221 32.936073086592586 7.2204691831586052 0 -0.70710678939079041 -0.70710677298230451 2.5 0 0 1 I I 0 1 2.5 forward I I I I #
face $-1 $94 $95 $32 $-1 $96 forward single #
loop $-1 $97 $98 $41 #
cone-surface $-1 21.777733385989478 32.936073086592586 7.2204691831586052 0 -0.70710678939079041 -0.70710677298230451 2.5 0 0 1 I I 0 1 2.5 forward I I I I #
face $-1 $99 $100 $33 $-1 $101 reversed single #
loop $-1 $-1 $102 $42 #
plane-surface $-1 1.8905194049162475 -131.99302414562356 120.96446109405579 -1 0 0 0 -0.61566148304635926 0.78801074757464917 forward_v I I I I #
face $-1 $103 $104 $34 $-1 $105 forward single #
loop $-1 $106 $107 $43 #
cone-surface $-1 -16.900177743111186 -36.994316462416471 12.242263350187413 0 0.61566148304635926 -0.78801074757464917 1.5 0 0 1 I I 0 1 1.5 forward I I I I #
face $-1 $108 $109 $35 $-1 $110 forward single #
loop $-1 $111 $112 $44 #
cone-surface $-1 -5.6257594542947231 -36.994316462416471 12.242263350187413 0 0.61566148304635926 -0.78801074757464917 1.5 0 0 1 I I 0 1 1.5 forward I I I I #
face $-1 $113 $114 $27 $-1 $115 reversed single #
loop $-1 $-1 $116 $45 #
plane-surface $-1 0 0 -18.959347394951294 0 0 1 1 0 0 forward_v I I I I #
coedge $-1 $117 $118 $119 $120 forward $46 $-1 #
face $-1 $121 $122 $28 $-1 $123 reversed single #
loop $-1 $-1 $124 $48 #
plane-surface $-1 0 0 -18.959347394951294 0 0 1 1 0 0 forward_v I I I I #
coedge $-1 $125 $126 $127 $128 forward $49 $-1 #
face $-1 $129 $130 $29 $-1 $131 reversed single #
loop $-1 $-1 $132 $51 #
plane-surface $-1 10.721593500215221 -18.5049699432154 65.210456944683443 0 0.70710678939079041 0.70710677298230451 1 0 0 forward_v I I I I #
coedge $-1 $133 $134 $135 $136 reversed $52 $-1 #
face $-1 $-1 $137 $30 $-1 $138 forward single #
loop $-1 $139 $140 $54 #
cone-surface $-1 -0.3345463855590225 28.777717830843045 3.0621140239041296 0 -0.70710678939079041 -0.70710677298230451 1.25 0 0 1 I I -0.70710678118654746 0.70710678118654746 1.25 forward I I I I #
loop $-1 $-1 $141 $39 #
coedge $-1 $88 $88 $142 $143 reversed $55 $-1 #
face $-1 $-1 $144 $31 $-1 $145 forward single #
loop $-1 $146 $147 $57 #
cone-surface $-1 10.721593500215221 28.777717830843045 3.0621140239041296 0 -0.70710678939079041 -0.70710677298230451 1.25 0 0 1 I I -0.70710678118654746 0.70710678118654746 1.25 forward I I I I #
loop $-1 $-1 $148 $40 #
coedge $-1 $93 $93 $149 $150 reversed $58 $-1 #
face $-1 $-1 $151 $32 $-1 $152 forward single #
loop $-1 $153 $154 $60 #
cone-surface $-1 21.777733385989478 28.777717830843045 3.0621140239041296 0 -0.70710678939079041 -0.70710677298230451 1.25 0 0 1 I I -0.70710678118654746 0.70710678118654746 1.25 forward I I I I #
loop $-1 $-1 $155 $41 #
coedge $-1 $98 $98 $156 $157 reversed $61 $-1 #
face $-1 $158 $159 $33 $-1 $160 reversed single #
loop $-1 $-1 $161 $63 #
plane-surface $-1 -11.262968598702955 -44.674951177952295 9.2024265169289379 0 -0.61566148304635926 0.78801074757464917 1 0 0 forward_v I I I I #
coedge $-1 $162 $163 $164 $165 reversed $64 $-1 #
face $-1 $-1 $166 $34 $-1 $167 forward single #
loop $-1 $168 $169 $66 #
cone-surface $-1 -16.900177743111186 -35.096080125390813 9.812631683753736 0 0.61566148304635926 -0.78801074757464917 0.75 0 0 1 I I -0.70710678118654757 0.70710678118654757 0.75 forward I I I I #
loop $-1 $-1 $170 $43 #
coedge $-1 $107 $107 $171 $172 reversed $67 $-1 #
face $-1 $-1 $173 $35 $-1 $174 forward single #
loop $-1 $175 $176 $69 #
cone-surface $-1 -5.6257594542947231 -35.096080125390813 9.812631683753736 0 0.61566148304635926 -0.78801074757464917 0.75 0 0 1 I I -0.70710678118654757 0.70710678118654757 0.75 forward I I I I #
loop $-1 $-1 $177 $44 #
coedge $-1 $112 $112 $178 $179 reversed $70 $-1 #
face $-1 $180 $181 $27 $-1 $182 reversed single #
loop $-1 $-1 $183 $72 #
plane-surface $-1 0 -44.674951177952295 0 0 1 0 0 0 1 forward_v I I I I #
coedge $-1 $184 $185 $186 $187 forward $73 $-1 #
coedge $-1 $188 $75 $189 $190 forward $46 $-1 #
coedge $-1 $75 $188 $191 $192 forward $46 $-1 #
coedge $-1 $193 $194 $75 $120 reversed $195 $-1 #
edge $-1 $196 -44.674951177952295 $197 44.674951177952295 $119 $198 forward 7 unknown #
face $-1 $199 $200 $28 $-1 $201 reversed single #
loop $-1 $-1 $202 $76 #
plane-surface $-1 -80.304920980892462 -15.932232642321374 0 0 1 0 0 0 1 forward_v I I I I #
coedge $-1 $203 $204 $126 $205 forward $77 $-1 #
coedge $-1 $206 $79 $207 $208 reversed $49 $-1 #
coedge $-1 $79 $206 $124 $205 reversed $49 $-1 #
coedge $-1 $209 $210 $79 $128 reversed $211 $-1 #
edge $-1 $212 -18.959347394951294 $213 18.959347394951294 $127 $214 forward 7 unknown #
face $-1 $215 $216 $29 $-1 $217 forward single #
loop $-1 $-1 $218 $80 #
plane-surface $-1 29.148493309838976 81.782613302123892 165.49803786283903 -1 0 0 0 0.70710678939079041 0.70710677298230451 forward_v I I I I #
coedge $-1 $219 $220 $221 $222 reversed $81 $-1 #
coedge $-1 $134 $83 $223 $224 reversed $52 $-1 #
coedge $-1 $83 $133 $219 $225 reversed $52 $-1 #
coedge $-1 $221 $226 $83 $136 forward $216 $-1 #
edge $-1 $227 -3.7836445268903489 $228 13.145168117806961 $135 $229 forward 7 unknown #
loop $-1 $-1 $142 $84 #
plane-surface $-1 10.721593500215221 -18.5049699432154 65.210456944683443 0 0.70710678939079041 0.70710677298230451 1 0 0 forward_v I I I I #
loop $-1 $-1 $230 $54 #
coedge $-1 $140 $140 $141 $231 reversed $85 $-1 #
coedge $-1 $141 $141 $140 $231 forward $87 $-1 #
coedge $-1 $142 $142 $88 $143 forward $137 $-1 #
edge $-1 $232 -2.5121478231342004e-015 $232 6.2831853071795978 $142 $233 forward 7 unknown #
loop $-1 $-1 $149 $89 #
plane-surface $-1 10.721593500215221 -18.5049699432154 65.210456944683443 0 0.70710678939079041 0.70710677298230451 1 0 0 forward_v I I I I #
loop $-1 $-1 $234 $57 #
coedge $-1 $147 $147 $148 $235 reversed $90 $-1 #
coedge $-1 $148 $148 $147 $235 forward $92 $-1 #
coedge $-1 $149 $149 $93 $150 forward $144 $-1 #
edge $-1 $236 -2.5121478231342004e-015 $236 6.2831853071795978 $149 $237 forward 7 unknown #
loop $-1 $-1 $156 $94 #
plane-surface $-1 10.721593500215221 -18.5049699432154 65.210456944683443 0 0.70710678939079041 0.70710677298230451 1 0 0 forward_v I I I I #
loop $-1 $-1 $238 $60 #
coedge $-1 $154 $154 $155 $239 reversed $95 $-1 #
coedge $-1 $155 $155 $154 $239 forward $97 $-1 #
coedge $-1 $156 $156 $98 $157 forward $151 $-1 #
edge $-1 $240 -2.5121478231342004e-015 $240 6.2831853071795978 $156 $241 forward 7 unknown #
face $-1 $242 $243 $33 $-1 $244 forward single #
loop $-1 $-1 $245 $99 #
plane-surface $-1 -24.416456602322157 -131.99302414562356 120.96446109405579 1 0 0 0 0.61566148304635926 -0.78801074757464917 forward_v I I I I #
coedge $-1 $246 $247 $248 $249 reversed $100 $-1 #
coedge $-1 $163 $102 $250 $251 reversed $64 $-1 #
coedge $-1 $102 $162 $246 $252 reversed $64 $-1 #
coedge $-1 $248 $253 $102 $165 forward $243 $-1 #
edge $-1 $254 21.321560894859488 $255 33.809849876449313 $164 $256 forward 7 unknown #
loop $-1 $-1 $171 $103 #
plane-surface $-1 -11.262968598702955 -44.674951177952295 9.2024265169289379 0 -0.61566148304635926 0.78801074757464917 1 0 0 forward_v I I I I #
loop $-1 $-1 $257 $66 #
coedge $-1 $169 $169 $170 $258 reversed $104 $-1 #
coedge $-1 $170 $170 $169 $258 forward $106 $-1 #
coedge $-1 $171 $171 $107 $172 forward $166 $-1 #
edge $-1 $259 9.0373058154583003e-016 $259 6.2831853071796013 $171 $260 forward 7 unknown #
loop $-1 $-1 $178 $108 #
plane-surface $-1 -11.262968598702955 -44.674951177952295 9.2024265169289379 0 -0.61566148304635926 0.78801074757464917 1 0 0 forward_v I I I I #
loop $-1 $-1 $261 $69 #
coedge $-1 $176 $176 $177 $262 reversed $109 $-1 #
coedge $-1 $177 $177 $176 $262 forward $111 $-1 #
coedge $-1 $178 $178 $112 $179 forward $173 $-1 #
edge $-1 $263 9.0373058154583003e-016 $263 6.2831853071796013 $178 $264 forward 7 unknown #
face $-1 $265 $266 $27 $-1 $267 reversed single #
loop $-1 $-1 $268 $113 #
plane-surface $-1 -70.914029358806118 0 0 1 0 0 0 0 -1 forward_v I I I I #
coedge $-1 $269 $191 $270 $271 forward $114 $-1 #
coedge $-1 $272 $116 $269 $273 forward $73 $-1 #
coedge $-1 $116 $272 $274 $275 forward $73 $-1 #
coedge $-1 $194 $193 $116 $187 reversed $195 $-1 #
edge $-1 $276 -44.674951177952295 $277 44.674951177952295 $186 $278 forward 7 unknown #
coedge $-1 $118 $117 $279 $280 forward $46 $-1 #
coedge $-1 $281 $282 $117 $190 reversed $266 $-1 #
edge $-1 $197 -70.914029358806118 $283 70.914029358806118 $189 $284 forward 7 unknown #
coedge $-1 $183 $285 $118 $192 reversed $114 $-1 #
edge $-1 $286 -70.914029358806118 $196 70.914029358806118 $191 $287 forward 7 unknown #
coedge $-1 $186 $119 $285 $288 forward $195 $-1 #
coedge $-1 $119 $186 $281 $289 reversed $195 $-1 #
loop $-1 $-1 $193 $265 #
vertex $-1 $120 $290 #
vertex $-1 $120 $291 #
straight-curve $-1 70.914029358806118 0 18.959347394951294 0 1 0 I I #
face $-1 $292 $211 $28 $-1 $293 reversed single #
loop $-1 $-1 $294 $121 #
plane-surface $-1 -89.695812602978805 -11.700213758034948 0 1 0 0 0 0 -1 forward_v I I I I #
coedge $-1 $295 $296 $297 $298 forward $122 $-1 #
coedge $-1 $299 $124 $295 $300 forward $77 $-1 #
coedge $-1 $124 $299 $209 $301 forward $77 $-1 #
edge $-1 $212 7.4681948737485229 $302 15.932232642321374 $124 $303 forward 7 unknown #
coedge $-1 $126 $125 $304 $305 forward $49 $-1 #
coedge $-1 $306 $307 $125 $208 forward $308 $-1 #
edge $-1 $309 -15.932232642321374 $213 -7.4681948737485229 $207 $310 forward 7 unknown #
coedge $-1 $311 $127 $204 $301 reversed $211 $-1 #
coedge $-1 $127 $311 $306 $312 reversed $211 $-1 #
loop $-1 $-1 $127 $199 #
vertex $-1 $205 $313 #
vertex $-1 $312 $314 #
straight-curve $-1 -70.914029358806118 -7.4681948737485229 0 0 0 1 I I #
face $-1 $-1 $315 $29 $-1 $316 reversed single #
loop $-1 $-1 $135 $129 #
plane-surface $-1 0 0 18.959347394951294 0 0 1 1 0 0 forward_v I I I I #
coedge $-1 $317 $318 $319 $320 reversed $130 $-1 #
coedge $-1 $321 $132 $134 $225 forward $81 $-1 #
coedge $-1 $132 $321 $317 $322 forward $81 $-1 #
coedge $-1 $319 $135 $132 $222 forward $216 $-1 #
edge $-1 $228 -13.066103059516145 $323 23.787696559731366 $221 $324 forward 7 unknown #
coedge $-1 $325 $326 $133 $224 forward $315 $-1 #
edge $-1 $327 -80.718484574000371 $227 -63.789671536468219 $223 $328 forward 7 unknown #
edge $-1 $228 65.408945641124333 $327 89.349902355904604 $134 $329 forward 7 unknown #
coedge $-1 $135 $319 $325 $330 forward $216 $-1 #
vertex $-1 $224 $331 #
vertex $-1 $136 $332 #
straight-curve $-1 -7.7053063094085346 40.891306651061946 18.959347394951294 0 -1 0 I I #
coedge $-1 $230 $230 $-1 $333 reversed $139 $-1 #
edge $-1 $334 0 $334 6.2831853071796004 $140 $335 forward 7 unknown #
vertex $-1 $143 $336 #
ellipse-curve $-1 -0.3345463855590225 36.210544855603651 10.494940876185213 0 0.70710678939079041 0.70710677298230451 2.5 0 0 1 I I #
coedge $-1 $234 $234 $-1 $337 reversed $146 $-1 #
edge $-1 $338 0 $338 6.2831853071796004 $147 $339 forward 7 unknown #
vertex $-1 $150 $340 #
ellipse-curve $-1 10.721593500215221 36.210544855603651 10.494940876185213 0 0.70710678939079041 0.70710677298230451 2.5 0 0 1 I I #
coedge $-1 $238 $238 $-1 $341 reversed $153 $-1 #
edge $-1 $342 0 $342 6.2831853071796004 $154 $343 forward 7 unknown #
vertex $-1 $157 $344 #
ellipse-curve $-1 21.777733385989478 36.210544855603651 10.494940876185213 0 0.70710678939079041 0.70710677298230451 2.5 0 0 1 I I #
face $-1 $-1 $345 $33 $-1 $346 reversed single #
loop $-1 $-1 $164 $158 #
plane-surface $-1 0 0 18.959347394951294 0 0 1 1 0 0 forward_v I I I I #
coedge $-1 $347 $348 $349 $350 reversed $159 $-1 #
coedge $-1 $351 $161 $163 $252 forward $100 $-1 #
coedge $-1 $161 $351 $347 $352 forward $100 $-1 #
coedge $-1 $349 $164 $161 $249 forward $243 $-1 #
edge $-1 $255 -7.5220037042677248 $353 18.784972302970679 $248 $354 forward 7 unknown #
coedge $-1 $355 $356 $162 $251 forward $345 $-1 #
edge $-1 $357 -51.279804030098958 $254 -41.522883152076602 $250 $358 forward 7 unknown #
edge $-1 $255 -15.847866314040083 $357 0 $163 $359 forward 7 unknown #
coedge $-1 $164 $349 $355 $360 forward $243 $-1 #
vertex $-1 $165 $361 #
vertex $-1 $165 $362 #
straight-curve $-1 1.8905194049162475 -65.996512072811782 18.959347394951294 0 1 0 I I #
coedge $-1 $257 $257 $-1 $363 reversed $168 $-1 #
edge $-1 $364 0 $364 6.2831853071796004 $169 $365 forward 7 unknown #
vertex $-1 $172 $366 #
ellipse-curve $-1 -16.900177743111186 -38.430806687157379 14.08088695594012 0 -0.61566148304635926 0.78801074757464917 1.5 0 0 1 I I #
coedge $-1 $261 $261 $-1 $367 reversed $175 $-1 #
edge $-1 $368 0 $368 6.2831853071796004 $176 $369 forward 7 unknown #
vertex $-1 $179 $370 #
ellipse-curve $-1 -5.6257594542947231 -38.430806687157379 14.08088695594012 0 -0.61566148304635926 0.78801074757464917 1.5 0 0 1 I I #
face $-1 $-1 $195 $27 $-1 $371 reversed single #
loop $-1 $-1 $281 $180 #
plane-surface $-1 0 44.674951177952295 0 0 -1 0 0 0 -1 forward_v I I I I #
coedge $-1 $372 $279 $282 $373 forward $181 $-1 #
coedge $-1 $285 $183 $184 $273 reversed $114 $-1 #
coedge $-1 $279 $372 $183 $271 reversed $181 $-1 #
edge $-1 $286 -18.959347394951294 $374 18.959347394951294 $270 $375 forward 7 unknown #
coedge $-1 $185 $184 $372 $376 forward $73 $-1 #
edge $-1 $277 -70.914029358806118 $374 70.914029358806118 $269 $377 forward 7 unknown #
coedge $-1 $282 $281 $185 $275 reversed $266 $-1 #
edge $-1 $378 -70.914029358806118 $276 70.914029358806118 $274 $379 forward 7 unknown #
vertex $-1 $187 $380 #
vertex $-1 $288 $381 #
straight-curve $-1 70.914029358806118 0 -18.959347394951294 0 -1 0 I I #
coedge $-1 $268 $270 $188 $280 reversed $181 $-1 #
edge $-1 $283 -44.674951177952295 $286 44.674951177952295 $279 $382 forward 7 unknown #
coedge $-1 $274 $189 $194 $289 forward $266 $-1 #
coedge $-1 $189 $274 $268 $373 reversed $266 $-1 #
vertex $-1 $190 $383 #
straight-curve $-1 0 44.674951177952295 18.959347394951294 -1 0 0 I I #
coedge $-1 $191 $269 $193 $288 reversed $114 $-1 #
vertex $-1 $280 $384 #
straight-curve $-1 0 -44.674951177952295 18.959347394951294 1 0 0 I I #
edge $-1 $196 -18.959347394951294 $277 18.959347394951294 $193 $385 forward 7 unknown #
edge $-1 $197 -18.959347394951294 $276 18.959347394951294 $194 $386 forward 7 unknown #
point $-1 70.914029358806118 -44.674951177952295 18.959347394951294 #
point $-1 70.914029358806118 44.674951177952295 18.959347394951294 #
face $-1 $-1 $308 $28 $-1 $387 forward single #
plane-surface $-1 -80.304920980892462 -7.4681948737485229 0 0 -1 0 0 0 -1 forward_v I I I I #
coedge $-1 $388 $389 $311 $390 forward $200 $-1 #
coedge $-1 $304 $202 $203 $300 reversed $122 $-1 #
coedge $-1 $202 $304 $307 $391 reversed $122 $-1 #
coedge $-1 $389 $388 $202 $298 reversed $200 $-1 #
edge $-1 $392 -18.959347394951294 $393 18.959347394951294 $297 $394 forward 7 unknown #
coedge $-1 $204 $203 $388 $395 forward $77 $-1 #
edge $-1 $302 -9.3908916220863432 $393 9.3908916220863432 $295 $396 forward 7 unknown #
edge $-1 $397 -9.3908916220863432 $212 9.3908916220863432 $209 $398 forward 7 unknown #
vertex $-1 $300 $399 #
straight-curve $-1 -70.914029358806118 0 -18.959347394951294 0 -1 0 I I #
coedge $-1 $296 $295 $206 $305 reversed $122 $-1 #
edge $-1 $309 -18.959347394951294 $302 18.959347394951294 $304 $400 forward 7 unknown #
coedge $-1 $401 $207 $210 $312 forward $308 $-1 #
coedge $-1 $207 $401 $296 $391 forward $308 $-1 #
loop $-1 $-1 $207 $292 #
vertex $-1 $208 $402 #
straight-curve $-1 -70.914029358806118 0 18.959347394951294 0 1 0 I I #
coedge $-1 $210 $209 $294 $390 reversed $211 $-1 #
edge $-1 $213 -9.3908916220863432 $403 9.3908916220863432 $210 $404 forward 7 unknown #
point $-1 -70.914029358806118 -7.4681948737485229 -18.959347394951294 #
point $-1 -70.914029358806118 -7.4681948737485229 18.959347394951294 #
loop $-1 $-1 $223 $215 #
plane-surface $-1 0 44.674951177952295 0 0 -1 0 0 0 -1 forward_v I I I I #
coedge $-1 $318 $218 $220 $322 reversed $130 $-1 #
coedge $-1 $218 $317 $405 $406 reversed $130 $-1 #
coedge $-1 $226 $221 $218 $320 forward $216 $-1 #
edge $-1 $323 -13.145168117806961 $407 3.7836445268903489 $319 $408 forward 7 unknown #
coedge $-1 $220 $219 $326 $409 reversed $81 $-1 #
edge $-1 $410 -89.349902355904604 $323 -65.408945641124333 $317 $411 forward 7 unknown #
vertex $-1 $222 $412 #
straight-curve $-1 5.3607967501076104 27.746138533254985 18.959347394951294 1 0 0 I I #
coedge $-1 $405 $223 $226 $330 reversed $315 $-1 #
coedge $-1 $223 $405 $321 $409 forward $315 $-1 #
vertex $-1 $224 $413 #
straight-curve $-1 -7.7053063094085346 44.674951177952295 82.749018931419513 0 0 1 I I #
straight-curve $-1 -7.7053063094085346 -18.5049699432154 65.210456944683443 0 0.70710677298230451 -0.70710678939079041 I I #
edge $-1 $407 -29.148493309838976 $227 7.7053063094085346 $325 $414 forward 7 unknown #
point $-1 -7.7053063094085346 44.674951177952295 18.959347394951294 #
point $-1 -7.7053063094085346 27.746138533254985 18.959347394951294 #
edge $-1 $415 1 $415 0 $230 $-1 forward 7 unknown #
vertex $-1 $231 $416 #
ellipse-curve $-1 -0.3345463855590225 29.661601317581532 3.9459974901320103 0 0.70710678939079041 0.70710677298230451 2.5 0 0 1 I I #
point $-1 2.1654536144409775 36.210544855603629 10.494940876185201 #
edge $-1 $417 1 $417 0 $234 $-1 forward 7 unknown #
vertex $-1 $235 $418 #
ellipse-curve $-1 10.721593500215221 29.661601317581532 3.9459974901320103 0 0.70710678939079041 0.70710677298230451 2.5 0 0 1 I I #
point $-1 13.221593500215221 36.210544855603629 10.494940876185201 #
edge $-1 $419 1 $419 0 $238 $-1 forward 7 unknown #
vertex $-1 $239 $420 #
ellipse-curve $-1 21.777733385989478 29.661601317581532 3.9459974901320103 0 0.70710678939079041 0.70710677298230451 2.5 0 0 1 I I #
point $-1 24.277733385989478 36.210544855603629 10.494940876185201 #
loop $-1 $-1 $250 $242 #
plane-surface $-1 0 -44.674951177952295 0 0 1 0 0 0 1 forward_v I I I I #
coedge $-1 $348 $245 $247 $352 reversed $159 $-1 #
coedge $-1 $245 $347 $421 $422 reversed $159 $-1 #
coedge $-1 $253 $248 $245 $350 forward $243 $-1 #
edge $-1 $353 -33.809849876449313 $423 -21.321560894859488 $349 $424 forward 7 unknown #
coedge $-1 $247 $246 $356 $425 reversed $100 $-1 #
edge $-1 $426 0 $353 15.847866314040083 $347 $427 forward 7 unknown #
vertex $-1 $249 $428 #
straight-curve $-1 -5.6314842993514773 -32.18666219636247 18.959347394951294 -1 0 0 I I #
coedge $-1 $421 $250 $253 $360 reversed $345 $-1 #
coedge $-1 $250 $421 $351 $425 forward $345 $-1 #
vertex $-1 $251 $429 #
straight-curve $-1 1.8905194049162475 -44.674951177952295 60.482230547027896 0 0 1 I I #
straight-curve $-1 1.8905194049162475 -44.674951177952295 9.2024265169289379 0 -0.78801074757464917 -0.61566148304635926 I I #
edge $-1 $423 -24.416456602322157 $254 1.8905194049162475 $355 $430 forward 7 unknown #
point $-1 1.8905194049162475 -44.674951177952295 18.959347394951294 #
point $-1 1.8905194049162475 -32.18666219636247 18.959347394951294 #
edge $-1 $431 1 $431 0 $257 $-1 forward 7 unknown #
vertex $-1 $258 $432 #
ellipse-curve $-1 -16.900177743111186 -35.557826237675584 10.403639744434724 0 -0.61566148304635926 0.78801074757464917 1.5 0 0 1 I I #
point $-1 -15.400177743111186 -38.430806687157364 14.080886955940104 #
edge $-1 $433 1 $433 0 $261 $-1 forward 7 unknown #
vertex $-1 $262 $434 #
ellipse-curve $-1 -5.6257594542947231 -35.557826237675584 10.403639744434724 0 -0.61566148304635926 0.78801074757464917 1.5 0 0 1 I I #
point $-1 -4.1257594542947231 -38.430806687157364 14.080886955940104 #
plane-surface $-1 70.914029358806118 0 0 -1 0 0 0 0 1 forward_v I I I I #
coedge $-1 $270 $268 $272 $376 reversed $181 $-1 #
edge $-1 $283 -18.959347394951294 $378 18.959347394951294 $282 $435 forward 7 unknown #
vertex $-1 $376 $436 #
straight-curve $-1 -70.914029358806118 -44.674951177952295 0 0 0 -1 I I #
edge $-1 $374 -44.674951177952295 $378 44.674951177952295 $372 $437 forward 7 unknown #
straight-curve $-1 0 -44.674951177952295 -18.959347394951294 -1 0 0 I I #
vertex $-1 $275 $438 #
straight-curve $-1 0 44.674951177952295 -18.959347394951294 1 0 0 I I #
point $-1 70.914029358806118 44.674951177952295 -18.959347394951294 #
point $-1 70.914029358806118 -44.674951177952295 -18.959347394951294 #
straight-curve $-1 -70.914029358806118 0 18.959347394951294 0 -1 0 I I #
point $-1 -70.914029358806118 44.674951177952295 18.959347394951294 #
point $-1 -70.914029358806118 -44.674951177952295 18.959347394951294 #
straight-curve $-1 70.914029358806118 -44.674951177952295 0 0 0 -1 I I #
straight-curve $-1 70.914029358806118 44.674951177952295 0 0 0 -1 I I #
plane-surface $-1 0 0 18.959347394951294 0 0 1 1 0 0 forward_v I I I I #
coedge $-1 $297 $294 $299 $395 reversed $200 $-1 #
coedge $-1 $294 $297 $401 $439 reversed $200 $-1 #
edge $-1 $403 -18.959347394951294 $397 18.959347394951294 $311 $440 forward 7 unknown #
edge $-1 $392 -9.3908916220863432 $309 9.3908916220863432 $296 $441 forward 7 unknown #
vertex $-1 $439 $442 #
vertex $-1 $395 $443 #
straight-curve $-1 -89.695812602978805 -15.932232642321374 0 0 0 -1 I I #
edge $-1 $393 -4.2320188842864255 $397 4.2320188842864255 $388 $444 forward 7 unknown #
straight-curve $-1 -80.304920980892462 -15.932232642321374 -18.959347394951294 -1 0 0 I I #
vertex $-1 $301 $445 #
straight-curve $-1 -80.304920980892462 -7.4681948737485229 -18.959347394951294 1 0 0 I I #
point $-1 -70.914029358806118 -15.932232642321374 -18.959347394951294 #
straight-curve $-1 -70.914029358806118 -15.932232642321374 0 0 0 -1 I I #
coedge $-1 $307 $306 $389 $439 forward $308 $-1 #
point $-1 -70.914029358806118 -15.932232642321374 18.959347394951294 #
vertex $-1 $312 $446 #
straight-curve $-1 -80.304920980892462 -7.4681948737485229 18.959347394951294 -1 0 0 I I #
coedge $-1 $326 $325 $318 $406 forward $315 $-1 #
edge $-1 $407 63.789671536468219 $410 80.718484574000371 $405 $447 forward 7 unknown #
vertex $-1 $330 $448 #
straight-curve $-1 29.148493309838976 40.891306651061946 18.959347394951294 0 1 0 I I #
edge $-1 $410 -23.787696559731366 $327 13.066103059516145 $326 $449 forward 7 unknown #
vertex $-1 $409 $450 #
straight-curve $-1 29.148493309838976 -18.5049699432154 65.210456944683443 0 -0.70710677298230451 0.70710678939079041 I I #
point $-1 29.148493309838976 27.746138533254985 18.959347394951294 #
point $-1 -7.7053063094085346 44.674951177952295 2.0305343574191355 #
straight-curve $-1 0 44.674951177952295 18.959347394951294 -1 0 0 I I #
vertex $-1 $333 $451 #
point $-1 2.1654536144409775 29.661601317581532 3.9459974901320103 #
vertex $-1 $337 $452 #
point $-1 13.221593500215221 29.661601317581532 3.9459974901320103 #
vertex $-1 $341 $453 #
point $-1 24.277733385989478 29.661601317581532 3.9459974901320103 #
coedge $-1 $356 $355 $348 $422 forward $345 $-1 #
edge $-1 $423 41.522883152076602 $426 51.279804030098958 $421 $454 forward 7 unknown #
vertex $-1 $360 $455 #
straight-curve $-1 -24.416456602322157 -65.996512072811782 18.959347394951294 0 -1 0 I I #
edge $-1 $426 -18.784972302970679 $357 7.5220037042677248 $356 $456 forward 7 unknown #
vertex $-1 $425 $457 #
straight-curve $-1 -24.416456602322157 -44.674951177952295 9.2024265169289379 0 0.78801074757464917 0.61566148304635926 I I #
point $-1 -24.416456602322157 -32.18666219636247 18.959347394951294 #
point $-1 1.8905194049162475 -44.674951177952295 9.2024265169289379 #
straight-curve $-1 0 -44.674951177952295 18.959347394951294 1 0 0 I I #
vertex $-1 $363 $458 #
point $-1 -15.400177743111186 -35.557826237675584 10.403639744434724 #
vertex $-1 $367 $459 #
point $-1 -4.1257594542947231 -35.557826237675584 10.403639744434724 #
straight-curve $-1 -70.914029358806118 44.674951177952295 0 0 0 -1 I I #
point $-1 -70.914029358806118 -44.674951177952295 -18.959347394951294 #
straight-curve $-1 -70.914029358806118 0 -18.959347394951294 0 1 0 I I #
point $-1 -70.914029358806118 44.674951177952295 -18.959347394951294 #
edge $-1 $403 -4.2320188842864255 $392 4.2320188842864255 $389 $460 forward 7 unknown #
straight-curve $-1 -89.695812602978805 -7.4681948737485229 0 0 0 -1 I I #
straight-curve $-1 -80.304920980892462 -15.932232642321374 18.959347394951294 1 0 0 I I #
point $-1 -89.695812602978805 -15.932232642321374 18.959347394951294 #
point $-1 -89.695812602978805 -15.932232642321374 -18.959347394951294 #
straight-curve $-1 -89.695812602978805 -11.700213758034948 -18.959347394951294 0 1 0 I I #
point $-1 -89.695812602978805 -7.4681948737485229 -18.959347394951294 #
point $-1 -89.695812602978805 -7.4681948737485229 18.959347394951294 #
straight-curve $-1 29.148493309838976 44.674951177952295 82.749018931419513 0 0 -1 I I #
point $-1 29.148493309838976 44.674951177952295 18.959347394951294 #
straight-curve $-1 5.3607967501076104 44.674951177952295 2.0305343574191426 -1 0 0 I I #
point $-1 29.148493309838976 44.674951177952295 2.0305343574191355 #
point $-1 -0.3345463855590225 27.893834344104558 2.1782305576762488 #
point $-1 10.721593500215221 27.893834344104558 2.1782305576762488 #
point $-1 21.777733385989478 27.893834344104558 2.1782305576762488 #
straight-curve $-1 -24.416456602322157 -44.674951177952295 60.482230547027896 0 0 -1 I I #
point $-1 -24.416456602322157 -44.674951177952295 18.959347394951294 #
straight-curve $-1 -5.6314842993514773 -44.674951177952295 9.2024265169289379 1 0 0 I I #
point $-1 -24.416456602322157 -44.674951177952295 9.2024265169289379 #
point $-1 -16.900177743111186 -34.634334013106042 9.2216236230727482 #
point $-1 -5.6257594542947231 -34.634334013106042 9.2216236230727482 #
straight-curve $-1 -89.695812602978805 -11.700213758034948 18.959347394951294 0 -1 0 I I #
End-of-ACIS-data 