500 0 18 0           
7 Unknown 11 ACIS 5.0 NT 24 Thu Mar 25 17:20:53 1999 
-1 9.9999999999999995e-007 1e-010 
body $-1 $18 $-1 $19 #
body $-1 $20 $-1 $21 #
body $-1 $22 $-1 $23 #
body $-1 $24 $-1 $25 #
body $-1 $26 $-1 $27 #
body $-1 $28 $-1 $29 #
body $-1 $30 $-1 $31 #
body $-1 $32 $-1 $33 #
body $-1 $34 $-1 $35 #
body $-1 $36 $-1 $37 #
body $-1 $38 $-1 $39 #
body $-1 $40 $-1 $41 #
body $-1 $42 $-1 $43 #
body $-1 $44 $-1 $45 #
body $-1 $46 $-1 $47 #
body $-1 $48 $-1 $49 #
body $-1 $50 $-1 $51 #
body $-1 $52 $-1 $53 #
lump $-1 $-1 $54 $0 #
transform $-1 1 0 0 0 1 0 0 0 1 64.048585467085786 43.287086076276374 17.318533391081047 1 rotate no_reflect no_shear #
lump $-1 $-1 $55 $1 #
transform $-1 1 0 0 0 1 0 0 0 1 64.048585467085786 43.287086076276374 17.318533391081047 1 rotate no_reflect no_shear #
lump $-1 $-1 $56 $2 #
transform $-1 1 0 0 0 1 0 0 0 1 64.048585467085786 43.287086076276374 17.318533391081047 1 rotate no_reflect no_shear #
lump $-1 $-1 $57 $3 #
transform $-1 1 0 0 0 1 0 0 0 1 64.048585467085786 43.287086076276374 17.318533391081047 1 rotate no_reflect no_shear #
lump $-1 $-1 $58 $4 #
transform $-1 1 0 0 0 1 0 0 0 1 64.048585467085786 43.287086076276374 17.318533391081047 1 rotate no_reflect no_shear #
lump $-1 $-1 $59 $5 #
transform $-1 1 0 0 0 1 0 0 0 1 64.048585467085786 43.287086076276374 17.318533391081047 1 rotate no_reflect no_shear #
lump $-1 $-1 $60 $6 #
transform $-1 1 0 0 0 1 0 0 0 1 64.048585467085786 43.287086076276374 17.318533391081047 1 rotate no_reflect no_shear #
lump $-1 $-1 $61 $7 #
transform $-1 1 0 0 0 1 0 0 0 1 64.048585467085786 43.287086076276374 17.318533391081047 1 rotate no_reflect no_shear #
lump $-1 $-1 $62 $8 #
transform $-1 1 0 0 0 1 0 0 0 1 64.048585467085786 43.287086076276374 17.318533391081047 1 rotate no_reflect no_shear #
lump $-1 $-1 $63 $9 #
transform $-1 1 0 0 0 1 0 0 0 1 64.048585467085786 43.287086076276374 17.318533391081047 1 rotate no_reflect no_shear #
lump $-1 $-1 $64 $10 #
transform $-1 1 0 0 0 1 0 0 0 1 64.048585467085786 43.287086076276374 17.318533391081047 1 rotate no_reflect no_shear #
lump $-1 $-1 $65 $11 #
transform $-1 1 0 0 0 1 0 0 0 1 64.048585467085786 43.287086076276374 17.318533391081047 1 rotate no_reflect no_shear #
lump $-1 $-1 $66 $12 #
transform $-1 1 0 0 0 1 0 0 0 1 64.048585467085786 43.287086076276374 17.318533391081047 1 rotate no_reflect no_shear #
lump $-1 $-1 $67 $13 #
transform $-1 1 0 0 0 1 0 0 0 1 64.048585467085786 43.287086076276374 17.318533391081047 1 rotate no_reflect no_shear #
lump $-1 $-1 $68 $14 #
transform $-1 1 0 0 0 1 0 0 0 1 64.048585467085786 43.287086076276374 17.318533391081047 1 rotate no_reflect no_shear #
lump $-1 $-1 $69 $15 #
transform $-1 1 0 0 0 1 0 0 0 1 64.048585467085786 43.287086076276374 17.318533391081047 1 rotate no_reflect no_shear #
lump $-1 $-1 $70 $16 #
transform $-1 1 0 0 0 1 0 0 0 1 64.048585467085786 43.287086076276374 17.318533391081047 1 rotate no_reflect no_shear #
lump $-1 $-1 $71 $17 #
transform $-1 1 0 0 0 1 0 0 0 1 64.048585467085786 43.287086076276374 17.318533391081047 1 rotate no_reflect no_shear #
shell $-1 $-1 $-1 $72 $-1 $18 #
shell $-1 $-1 $-1 $73 $-1 $20 #
shell $-1 $-1 $-1 $74 $-1 $22 #
shell $-1 $-1 $-1 $75 $-1 $24 #
shell $-1 $-1 $-1 $76 $-1 $26 #
shell $-1 $-1 $-1 $77 $-1 $28 #
shell $-1 $-1 $-1 $78 $-1 $30 #
shell $-1 $-1 $-1 $79 $-1 $32 #
shell $-1 $-1 $-1 $80 $-1 $34 #
shell $-1 $-1 $-1 $81 $-1 $36 #
shell $-1 $-1 $-1 $82 $-1 $38 #
shell $-1 $-1 $-1 $83 $-1 $40 #
shell $-1 $-1 $-1 $84 $-1 $42 #
shell $-1 $-1 $-1 $85 $-1 $44 #
shell $-1 $-1 $-1 $86 $-1 $46 #
shell $-1 $-1 $-1 $87 $-1 $48 #
shell $-1 $-1 $-1 $88 $-1 $50 #
shell $-1 $-1 $-1 $89 $-1 $52 #
face $-1 $90 $91 $54 $-1 $92 forward single #
face $-1 $93 $94 $55 $-1 $95 reversed single #
face $-1 $96 $97 $56 $-1 $98 reversed single #
face $-1 $99 $100 $57 $-1 $101 forward single #
face $-1 $102 $103 $58 $-1 $104 forward single #
face $-1 $105 $106 $59 $-1 $107 forward single #
face $-1 $108 $109 $60 $-1 $110 reversed single #
face $-1 $111 $112 $61 $-1 $113 forward single #
face $-1 $114 $115 $62 $-1 $116 forward single #
face $-1 $117 $118 $63 $-1 $119 forward single #
face $-1 $120 $121 $64 $-1 $122 reversed single #
face $-1 $123 $124 $65 $-1 $125 forward single #
face $-1 $126 $127 $66 $-1 $128 forward single #
face $-1 $129 $130 $67 $-1 $131 forward single #
face $-1 $132 $133 $68 $-1 $134 reversed single #
face $-1 $135 $136 $69 $-1 $137 forward single #
face $-1 $138 $139 $70 $-1 $140 forward single #
face $-1 $141 $142 $71 $-1 $143 forward single #
face $-1 $144 $145 $54 $-1 $146 reversed single #
loop $-1 $-1 $147 $72 #
plane-surface $-1 0 0 17.318533391081047 0 0 1 1 0 0 forward_v I I I I #
face $-1 $148 $149 $55 $-1 $150 reversed single #
loop $-1 $-1 $151 $73 #
plane-surface $-1 -56.149247581314128 -34.480093617534855 0 0 -1 0 0 0 -1 forward_v I I I I #
face $-1 $152 $153 $56 $-1 $154 reversed single #
loop $-1 $-1 $155 $74 #
plane-surface $-1 54.567575348166159 -25.641390555309954 187.3727370339266 0 -1 0 -0.66913061440640931 0 -0.74314481823134659 forward_v I I I I #
face $-1 $156 $157 $57 $-1 $158 forward single #
loop $-1 $159 $160 $75 #
cone-surface $-1 57.686568545107448 -35.461074024110196 11.5198190530233 -0.66913061440640931 0 -0.74314481823134659 0.3715724091156733 0 -0.33456530720320465 1 I I 0 1 0.5 forward I I I I #
face $-1 $161 $162 $58 $-1 $163 forward single #
loop $-1 $164 $165 $76 #
cone-surface $-1 57.686568545107448 -31.778692723310105 11.5198190530233 -0.66913061440640931 0 -0.74314481823134659 0.3715724091156733 0 -0.33456530720320465 1 I I 0 1 0.5 forward I I I I #
face $-1 $166 $167 $59 $-1 $168 forward single #
loop $-1 $169 $170 $77 #
cone-surface $-1 57.686568545107448 -28.096311422510013 11.5198190530233 -0.66913061440640931 0 -0.74314481823134659 0.3715724091156733 0 -0.33456530720320465 1 I I 0 1 0.5 forward I I I I #
face $-1 $171 $172 $60 $-1 $173 reversed single #
loop $-1 $-1 $174 $78 #
plane-surface $-1 54.567575348166159 -4.4555954064365544 187.3727370339266 0 -1 0 -0.66913061440640931 0 -0.74314481823134659 forward_v I I I I #
face $-1 $175 $176 $61 $-1 $177 forward single #
loop $-1 $178 $179 $79 #
cone-surface $-1 57.686568545107448 -14.275278875236793 11.5198190530233 -0.66913061440640931 0 -0.74314481823134659 0.3715724091156733 0 -0.33456530720320465 1 I I 0 1 0.5 forward I I I I #
face $-1 $180 $181 $62 $-1 $182 forward single #
loop $-1 $183 $184 $80 #
cone-surface $-1 57.686568545107448 -10.592897574436705 11.5198190530233 -0.66913061440640931 0 -0.74314481823134659 0.3715724091156733 0 -0.33456530720320465 1 I I 0 1 0.5 forward I I I I #
face $-1 $185 $186 $63 $-1 $187 forward single #
loop $-1 $188 $189 $81 #
cone-surface $-1 57.686568545107448 -6.9105162736366097 11.5198190530233 -0.66913061440640931 0 -0.74314481823134659 0.3715724091156733 0 -0.33456530720320465 1 I I 0 1 0.5 forward I I I I #
face $-1 $190 $191 $64 $-1 $192 reversed single #
loop $-1 $-1 $193 $82 #
plane-surface $-1 54.567575348166159 16.730199742436849 187.3727370339266 0 -1 0 -0.66913061440640931 0 -0.74314481823134659 forward_v I I I I #
face $-1 $194 $195 $65 $-1 $196 forward single #
loop $-1 $197 $198 $83 #
cone-surface $-1 57.686568545107448 6.9105162736366097 11.5198190530233 -0.66913061440640931 0 -0.74314481823134659 0.3715724091156733 0 -0.33456530720320465 1 I I 0 1 0.5 forward I I I I #
face $-1 $199 $200 $66 $-1 $201 forward single #
loop $-1 $202 $203 $84 #
cone-surface $-1 57.686568545107448 10.592897574436698 11.5198190530233 -0.66913061440640931 0 -0.74314481823134659 0.3715724091156733 0 -0.33456530720320465 1 I I 0 1 0.5 forward I I I I #
face $-1 $204 $205 $67 $-1 $206 forward single #
loop $-1 $207 $208 $85 #
cone-surface $-1 57.686568545107448 14.275278875236786 11.5198190530233 -0.66913061440640931 0 -0.74314481823134659 0.3715724091156733 0 -0.33456530720320465 1 I I 0 1 0.5 forward I I I I #
face $-1 $209 $210 $68 $-1 $211 reversed single #
loop $-1 $-1 $212 $86 #
plane-surface $-1 54.567575348166159 37.915994891310248 187.3727370339266 0 -1 0 -0.66913061440640931 0 -0.74314481823134659 forward_v I I I I #
face $-1 $213 $214 $69 $-1 $215 forward single #
loop $-1 $216 $217 $87 #
cone-surface $-1 57.686568545107448 28.096311422510006 11.5198190530233 -0.66913061440640931 0 -0.74314481823134659 0.3715724091156733 0 -0.33456530720320465 1 I I 0 1 0.5 forward I I I I #
face $-1 $218 $219 $70 $-1 $220 forward single #
loop $-1 $221 $222 $88 #
cone-surface $-1 57.686568545107448 31.778692723310094 11.5198190530233 -0.66913061440640931 0 -0.74314481823134659 0.3715724091156733 0 -0.33456530720320465 1 I I 0 1 0.5 forward I I I I #
face $-1 $223 $224 $71 $-1 $225 forward single #
loop $-1 $226 $227 $89 #
cone-surface $-1 57.686568545107448 35.461074024110182 11.5198190530233 -0.66913061440640931 0 -0.74314481823134659 0.3715724091156733 0 -0.33456530720320465 1 I I 0 1 0.5 forward I I I I #
face $-1 $228 $229 $54 $-1 $230 reversed single #
loop $-1 $-1 $231 $90 #
plane-surface $-1 0 0 -17.318533391081047 0 0 1 1 0 0 forward_v I I I I #
coedge $-1 $232 $233 $234 $235 forward $91 $-1 #
face $-1 $236 $237 $55 $-1 $238 forward single #
loop $-1 $-1 $239 $93 #
plane-surface $-1 -48.24990969554247 -38.883589846905615 0 -1 0 0 0 0 1 forward_v I I I I #
coedge $-1 $240 $241 $242 $243 forward $94 $-1 #
face $-1 $244 $245 $56 $-1 $246 reversed single #
loop $-1 $-1 $247 $96 #
plane-surface $-1 -31.146163342738902 -31.778692723310105 92.177988224101924 0.66913061440640931 0 0.74314481823134659 0.74314481823134659 0 -0.66913061440640931 forward_v I I I I #
coedge $-1 $248 $249 $250 $251 reversed $97 $-1 #
face $-1 $-1 $252 $57 $-1 $253 forward single #
loop $-1 $254 $255 $99 #
cone-surface $-1 57.184720584302639 -35.461074024110196 10.96246043934979 -0.66913061440640931 0 -0.74314481823134659 0.18578620455783665 0 -0.16728265360160233 1 I I -0.70710678118654746 0.70710678118654746 0.25 forward I I I I #
loop $-1 $-1 $256 $75 #
coedge $-1 $160 $160 $257 $258 reversed $100 $-1 #
face $-1 $-1 $259 $58 $-1 $260 forward single #
loop $-1 $261 $262 $102 #
cone-surface $-1 57.184720584302639 -31.778692723310105 10.96246043934979 -0.66913061440640931 0 -0.74314481823134659 0.18578620455783665 0 -0.16728265360160233 1 I I -0.70710678118654746 0.70710678118654746 0.25 forward I I I I #
loop $-1 $-1 $263 $76 #
coedge $-1 $165 $165 $264 $265 reversed $103 $-1 #
face $-1 $-1 $266 $59 $-1 $267 forward single #
loop $-1 $268 $269 $105 #
cone-surface $-1 57.184720584302639 -28.096311422510013 10.96246043934979 -0.66913061440640931 0 -0.74314481823134659 0.18578620455783665 0 -0.16728265360160233 1 I I -0.70710678118654746 0.70710678118654746 0.25 forward I I I I #
loop $-1 $-1 $270 $77 #
coedge $-1 $170 $170 $271 $272 reversed $106 $-1 #
face $-1 $273 $274 $60 $-1 $275 reversed single #
loop $-1 $-1 $276 $108 #
plane-surface $-1 -31.146163342738902 -10.592897574436705 92.177988224101924 0.66913061440640931 0 0.74314481823134659 0.74314481823134659 0 -0.66913061440640931 forward_v I I I I #
coedge $-1 $277 $278 $279 $280 reversed $109 $-1 #
face $-1 $-1 $281 $61 $-1 $282 forward single #
loop $-1 $283 $284 $111 #
cone-surface $-1 57.184720584302639 -14.275278875236793 10.96246043934979 -0.66913061440640931 0 -0.74314481823134659 0.18578620455783665 0 -0.16728265360160233 1 I I -0.70710678118654746 0.70710678118654746 0.25 forward I I I I #
loop $-1 $-1 $285 $79 #
coedge $-1 $179 $179 $286 $287 reversed $112 $-1 #
face $-1 $-1 $288 $62 $-1 $289 forward single #
loop $-1 $290 $291 $114 #
cone-surface $-1 57.184720584302639 -10.592897574436705 10.96246043934979 -0.66913061440640931 0 -0.74314481823134659 0.18578620455783665 0 -0.16728265360160233 1 I I -0.70710678118654746 0.70710678118654746 0.25 forward I I I I #
loop $-1 $-1 $292 $80 #
coedge $-1 $184 $184 $293 $294 reversed $115 $-1 #
face $-1 $-1 $295 $63 $-1 $296 forward single #
loop $-1 $297 $298 $117 #
cone-surface $-1 57.184720584302639 -6.9105162736366097 10.96246043934979 -0.66913061440640931 0 -0.74314481823134659 0.18578620455783665 0 -0.16728265360160233 1 I I -0.70710678118654746 0.70710678118654746 0.25 forward I I I I #
loop $-1 $-1 $299 $81 #
coedge $-1 $189 $189 $300 $301 reversed $118 $-1 #
face $-1 $302 $303 $64 $-1 $304 reversed single #
loop $-1 $-1 $305 $120 #
plane-surface $-1 -31.146163342738902 10.592897574436698 92.177988224101924 0.66913061440640931 0 0.74314481823134659 0.74314481823134659 0 -0.66913061440640931 forward_v I I I I #
coedge $-1 $306 $307 $308 $309 reversed $121 $-1 #
face $-1 $-1 $310 $65 $-1 $311 forward single #
loop $-1 $312 $313 $123 #
cone-surface $-1 57.184720584302639 6.9105162736366097 10.96246043934979 -0.66913061440640931 0 -0.74314481823134659 0.18578620455783665 0 -0.16728265360160233 1 I I -0.70710678118654746 0.70710678118654746 0.25 forward I I I I #
loop $-1 $-1 $314 $83 #
coedge $-1 $198 $198 $315 $316 reversed $124 $-1 #
face $-1 $-1 $317 $66 $-1 $318 forward single #
loop $-1 $319 $320 $126 #
cone-surface $-1 57.184720584302639 10.592897574436698 10.96246043934979 -0.66913061440640931 0 -0.74314481823134659 0.18578620455783665 0 -0.16728265360160233 1 I I -0.70710678118654746 0.70710678118654746 0.25 forward I I I I #
loop $-1 $-1 $321 $84 #
coedge $-1 $203 $203 $322 $323 reversed $127 $-1 #
face $-1 $-1 $324 $67 $-1 $325 forward single #
loop $-1 $326 $327 $129 #
cone-surface $-1 57.184720584302639 14.275278875236786 10.96246043934979 -0.66913061440640931 0 -0.74314481823134659 0.18578620455783665 0 -0.16728265360160233 1 I I -0.70710678118654746 0.70710678118654746 0.25 forward I I I I #
loop $-1 $-1 $328 $85 #
coedge $-1 $208 $208 $329 $330 reversed $130 $-1 #
face $-1 $331 $332 $68 $-1 $333 reversed single #
loop $-1 $-1 $334 $132 #
plane-surface $-1 -31.146163342738902 31.778692723310094 92.177988224101924 0.66913061440640931 0 0.74314481823134659 0.74314481823134659 0 -0.66913061440640931 forward_v I I I I #
coedge $-1 $335 $336 $337 $338 reversed $133 $-1 #
face $-1 $-1 $339 $69 $-1 $340 forward single #
loop $-1 $341 $342 $135 #
cone-surface $-1 57.184720584302639 28.096311422510006 10.96246043934979 -0.66913061440640931 0 -0.74314481823134659 0.18578620455783665 0 -0.16728265360160233 1 I I -0.70710678118654746 0.70710678118654746 0.25 forward I I I I #
loop $-1 $-1 $343 $87 #
coedge $-1 $217 $217 $344 $345 reversed $136 $-1 #
face $-1 $-1 $346 $70 $-1 $347 forward single #
loop $-1 $348 $349 $138 #
cone-surface $-1 57.184720584302639 31.778692723310094 10.96246043934979 -0.66913061440640931 0 -0.74314481823134659 0.18578620455783665 0 -0.16728265360160233 1 I I -0.70710678118654746 0.70710678118654746 0.25 forward I I I I #
loop $-1 $-1 $350 $88 #
coedge $-1 $222 $222 $351 $352 reversed $139 $-1 #
face $-1 $-1 $353 $71 $-1 $354 forward single #
loop $-1 $355 $356 $141 #
cone-surface $-1 57.184720584302639 35.461074024110182 10.96246043934979 -0.66913061440640931 0 -0.74314481823134659 0.18578620455783665 0 -0.16728265360160233 1 I I -0.70710678118654746 0.70710678118654746 0.25 forward I I I I #
loop $-1 $-1 $357 $89 #
coedge $-1 $227 $227 $358 $359 reversed $142 $-1 #
face $-1 $360 $361 $54 $-1 $362 reversed single #
loop $-1 $-1 $363 $144 #
plane-surface $-1 0 -43.287086076276374 0 0 1 0 0 0 1 forward_v I I I I #
coedge $-1 $364 $365 $366 $367 forward $145 $-1 #
coedge $-1 $368 $147 $369 $370 forward $91 $-1 #
coedge $-1 $147 $368 $371 $372 forward $91 $-1 #
coedge $-1 $373 $374 $147 $235 reversed $375 $-1 #
edge $-1 $376 -43.287086076276374 $377 43.287086076276374 $234 $378 forward 7 unknown #
face $-1 $379 $380 $55 $-1 $381 reversed single #
loop $-1 $-1 $382 $148 #
plane-surface $-1 0 0 17.318533391081047 0 0 1 1 0 0 forward_v I I I I #
coedge $-1 $383 $384 $385 $386 reversed $149 $-1 #
coedge $-1 $387 $151 $388 $389 reversed $94 $-1 #
coedge $-1 $151 $387 $390 $391 reversed $94 $-1 #
coedge $-1 $384 $383 $151 $243 reversed $149 $-1 #
edge $-1 $392 -17.318533391081047 $393 17.318533391081047 $242 $394 forward 7 unknown #
face $-1 $395 $396 $56 $-1 $397 reversed single #
loop $-1 $-1 $398 $152 #
plane-surface $-1 54.567575348166159 -37.915994891310255 187.3727370339266 0 1 0 0.66913061440640931 0 0.74314481823134659 forward_v I I I I #
coedge $-1 $399 $400 $401 $402 reversed $153 $-1 #
coedge $-1 $249 $155 $403 $404 reversed $97 $-1 #
coedge $-1 $155 $248 $399 $405 reversed $97 $-1 #
coedge $-1 $401 $406 $155 $251 forward $407 $-1 #
edge $-1 $408 -36.764797793002707 $409 -24.709894563452416 $250 $410 forward 7 unknown #
loop $-1 $-1 $257 $156 #
plane-surface $-1 -31.146163342738902 -31.778692723310105 92.177988224101924 0.66913061440640931 0 0.74314481823134659 0.74314481823134659 0 -0.66913061440640931 forward_v I I I I #
loop $-1 $-1 $411 $99 #
coedge $-1 $255 $255 $256 $412 reversed $157 $-1 #
coedge $-1 $256 $256 $255 $412 forward $159 $-1 #
coedge $-1 $257 $257 $160 $258 forward $252 $-1 #
edge $-1 $413 0 $413 6.2831853071796004 $257 $414 forward 7 unknown #
loop $-1 $-1 $264 $161 #
plane-surface $-1 -31.146163342738902 -31.778692723310105 92.177988224101924 0.66913061440640931 0 0.74314481823134659 0.74314481823134659 0 -0.66913061440640931 forward_v I I I I #
loop $-1 $-1 $415 $102 #
coedge $-1 $262 $262 $263 $416 reversed $162 $-1 #
coedge $-1 $263 $263 $262 $416 forward $164 $-1 #
coedge $-1 $264 $264 $165 $265 forward $259 $-1 #
edge $-1 $417 0 $417 6.2831853071796004 $264 $418 forward 7 unknown #
loop $-1 $-1 $271 $166 #
plane-surface $-1 -31.146163342738902 -31.778692723310105 92.177988224101924 0.66913061440640931 0 0.74314481823134659 0.74314481823134659 0 -0.66913061440640931 forward_v I I I I #
loop $-1 $-1 $419 $105 #
coedge $-1 $269 $269 $270 $420 reversed $167 $-1 #
coedge $-1 $270 $270 $269 $420 forward $169 $-1 #
coedge $-1 $271 $271 $170 $272 forward $266 $-1 #
edge $-1 $421 0 $421 6.2831853071796004 $271 $422 forward 7 unknown #
face $-1 $423 $424 $60 $-1 $425 reversed single #
loop $-1 $-1 $426 $171 #
plane-surface $-1 54.567575348166159 -16.730199742436856 187.3727370339266 0 1 0 0.66913061440640931 0 0.74314481823134659 forward_v I I I I #
coedge $-1 $427 $428 $429 $430 reversed $172 $-1 #
coedge $-1 $278 $174 $431 $432 reversed $109 $-1 #
coedge $-1 $174 $277 $427 $433 reversed $109 $-1 #
coedge $-1 $429 $434 $174 $280 forward $435 $-1 #
edge $-1 $436 -36.764797793002707 $437 -24.709894563452416 $279 $438 forward 7 unknown #
loop $-1 $-1 $286 $175 #
plane-surface $-1 -31.146163342738902 -10.592897574436705 92.177988224101924 0.66913061440640931 0 0.74314481823134659 0.74314481823134659 0 -0.66913061440640931 forward_v I I I I #
loop $-1 $-1 $439 $111 #
coedge $-1 $284 $284 $285 $440 reversed $176 $-1 #
coedge $-1 $285 $285 $284 $440 forward $178 $-1 #
coedge $-1 $286 $286 $179 $287 forward $281 $-1 #
edge $-1 $441 0 $441 6.2831853071796004 $286 $442 forward 7 unknown #
loop $-1 $-1 $293 $180 #
plane-surface $-1 -31.146163342738902 -10.592897574436705 92.177988224101924 0.66913061440640931 0 0.74314481823134659 0.74314481823134659 0 -0.66913061440640931 forward_v I I I I #
loop $-1 $-1 $443 $114 #
coedge $-1 $291 $291 $292 $444 reversed $181 $-1 #
coedge $-1 $292 $292 $291 $444 forward $183 $-1 #
coedge $-1 $293 $293 $184 $294 forward $288 $-1 #
edge $-1 $445 0 $445 6.2831853071796004 $293 $446 forward 7 unknown #
loop $-1 $-1 $300 $185 #
plane-surface $-1 -31.146163342738902 -10.592897574436705 92.177988224101924 0.66913061440640931 0 0.74314481823134659 0.74314481823134659 0 -0.66913061440640931 forward_v I I I I #
loop $-1 $-1 $447 $117 #
coedge $-1 $298 $298 $299 $448 reversed $186 $-1 #
coedge $-1 $299 $299 $298 $448 forward $188 $-1 #
coedge $-1 $300 $300 $189 $301 forward $295 $-1 #
edge $-1 $449 0 $449 6.2831853071796004 $300 $450 forward 7 unknown #
face $-1 $451 $452 $64 $-1 $453 reversed single #
loop $-1 $-1 $454 $190 #
plane-surface $-1 54.567575348166159 4.4555954064365473 187.3727370339266 0 1 0 0.66913061440640931 0 0.74314481823134659 forward_v I I I I #
coedge $-1 $455 $456 $457 $458 reversed $191 $-1 #
coedge $-1 $307 $193 $459 $460 reversed $121 $-1 #
coedge $-1 $193 $306 $455 $461 reversed $121 $-1 #
coedge $-1 $457 $462 $193 $309 forward $463 $-1 #
edge $-1 $464 -36.764797793002707 $465 -24.709894563452416 $308 $466 forward 7 unknown #
loop $-1 $-1 $315 $194 #
plane-surface $-1 -31.146163342738902 10.592897574436698 92.177988224101924 0.66913061440640931 0 0.74314481823134659 0.74314481823134659 0 -0.66913061440640931 forward_v I I I I #
loop $-1 $-1 $467 $123 #
coedge $-1 $313 $313 $314 $468 reversed $195 $-1 #
coedge $-1 $314 $314 $313 $468 forward $197 $-1 #
coedge $-1 $315 $315 $198 $316 forward $310 $-1 #
edge $-1 $469 0 $469 6.2831853071796004 $315 $470 forward 7 unknown #
loop $-1 $-1 $322 $199 #
plane-surface $-1 -31.146163342738902 10.592897574436698 92.177988224101924 0.66913061440640931 0 0.74314481823134659 0.74314481823134659 0 -0.66913061440640931 forward_v I I I I #
loop $-1 $-1 $471 $126 #
coedge $-1 $320 $320 $321 $472 reversed $200 $-1 #
coedge $-1 $321 $321 $320 $472 forward $202 $-1 #
coedge $-1 $322 $322 $203 $323 forward $317 $-1 #
edge $-1 $473 0 $473 6.2831853071796004 $322 $474 forward 7 unknown #
loop $-1 $-1 $329 $204 #
plane-surface $-1 -31.146163342738902 10.592897574436698 92.177988224101924 0.66913061440640931 0 0.74314481823134659 0.74314481823134659 0 -0.66913061440640931 forward_v I I I I #
loop $-1 $-1 $475 $129 #
coedge $-1 $327 $327 $328 $476 reversed $205 $-1 #
coedge $-1 $328 $328 $327 $476 forward $207 $-1 #
coedge $-1 $329 $329 $208 $330 forward $324 $-1 #
edge $-1 $477 0 $477 6.2831853071796004 $329 $478 forward 7 unknown #
face $-1 $479 $480 $68 $-1 $481 reversed single #
loop $-1 $-1 $482 $209 #
plane-surface $-1 54.567575348166159 25.641390555309943 187.3727370339266 0 1 0 0.66913061440640931 0 0.74314481823134659 forward_v I I I I #
coedge $-1 $483 $484 $485 $486 reversed $210 $-1 #
coedge $-1 $336 $212 $487 $488 reversed $133 $-1 #
coedge $-1 $212 $335 $483 $489 reversed $133 $-1 #
coedge $-1 $485 $490 $212 $338 forward $491 $-1 #
edge $-1 $492 -36.764797793002707 $493 -24.709894563452416 $337 $494 forward 7 unknown #
loop $-1 $-1 $344 $213 #
plane-surface $-1 -31.146163342738902 31.778692723310094 92.177988224101924 0.66913061440640931 0 0.74314481823134659 0.74314481823134659 0 -0.66913061440640931 forward_v I I I I #
loop $-1 $-1 $495 $135 #
coedge $-1 $342 $342 $343 $496 reversed $214 $-1 #
coedge $-1 $343 $343 $342 $496 forward $216 $-1 #
coedge $-1 $344 $344 $217 $345 forward $339 $-1 #
edge $-1 $497 0 $497 6.2831853071796004 $344 $498 forward 7 unknown #
loop $-1 $-1 $351 $218 #
plane-surface $-1 -31.146163342738902 31.778692723310094 92.177988224101924 0.66913061440640931 0 0.74314481823134659 0.74314481823134659 0 -0.66913061440640931 forward_v I I I I #
loop $-1 $-1 $499 $138 #
coedge $-1 $349 $349 $350 $500 reversed $219 $-1 #
coedge $-1 $350 $350 $349 $500 forward $221 $-1 #
coedge $-1 $351 $351 $222 $352 forward $346 $-1 #
edge $-1 $501 0 $501 6.2831853071796004 $351 $502 forward 7 unknown #
loop $-1 $-1 $358 $223 #
plane-surface $-1 -31.146163342738902 31.778692723310094 92.177988224101924 0.66913061440640931 0 0.74314481823134659 0.74314481823134659 0 -0.66913061440640931 forward_v I I I I #
loop $-1 $-1 $503 $141 #
coedge $-1 $356 $356 $357 $504 reversed $224 $-1 #
coedge $-1 $357 $357 $356 $504 forward $226 $-1 #
coedge $-1 $358 $358 $227 $359 forward $353 $-1 #
edge $-1 $505 0 $505 6.2831853071796004 $358 $506 forward 7 unknown #
face $-1 $507 $508 $54 $-1 $509 reversed single #
loop $-1 $-1 $510 $228 #
plane-surface $-1 -64.048585467085786 0 0 1 0 0 0 0 -1 forward_v I I I I #
coedge $-1 $511 $371 $512 $513 forward $229 $-1 #
coedge $-1 $514 $231 $511 $515 forward $145 $-1 #
coedge $-1 $231 $514 $516 $517 forward $145 $-1 #
coedge $-1 $374 $373 $231 $367 reversed $375 $-1 #
edge $-1 $518 -43.287086076276374 $519 43.287086076276374 $366 $520 forward 7 unknown #
coedge $-1 $233 $232 $521 $522 forward $91 $-1 #
coedge $-1 $523 $524 $232 $370 reversed $508 $-1 #
edge $-1 $377 -64.048585467085786 $525 64.048585467085786 $369 $526 forward 7 unknown #
coedge $-1 $363 $527 $233 $372 reversed $229 $-1 #
edge $-1 $528 -64.048585467085786 $376 64.048585467085786 $371 $529 forward 7 unknown #
coedge $-1 $366 $234 $527 $530 forward $375 $-1 #
coedge $-1 $234 $366 $523 $531 reversed $375 $-1 #
loop $-1 $-1 $373 $507 #
vertex $-1 $235 $532 #
vertex $-1 $235 $533 #
straight-curve $-1 64.048585467085786 0 17.318533391081047 0 1 0 I I #
face $-1 $534 $535 $55 $-1 $536 reversed single #
loop $-1 $-1 $537 $236 #
plane-surface $-1 -64.048585467085786 0 0 1 0 0 0 0 -1 forward_v I I I I #
coedge $-1 $390 $538 $384 $539 forward $237 $-1 #
coedge $-1 $242 $239 $540 $541 reversed $149 $-1 #
coedge $-1 $239 $242 $382 $539 reversed $149 $-1 #
coedge $-1 $542 $543 $239 $386 forward $544 $-1 #
edge $-1 $545 -17.318533391081047 $546 17.318533391081047 $385 $547 forward 7 unknown #
coedge $-1 $241 $240 $537 $548 reversed $94 $-1 #
coedge $-1 $540 $549 $240 $389 forward $535 $-1 #
edge $-1 $550 -35.973961676428722 $393 -20.175285904885406 $388 $551 forward 7 unknown #
coedge $-1 $552 $382 $241 $391 forward $237 $-1 #
edge $-1 $392 20.175285904885406 $553 35.973961676428722 $390 $554 forward 7 unknown #
vertex $-1 $391 $555 #
vertex $-1 $389 $556 #
straight-curve $-1 -48.24990969554247 -34.480093617534855 0 0 0 -1 I I #
face $-1 $-1 $407 $56 $-1 $557 forward single #
loop $-1 $-1 $558 $244 #
plane-surface $-1 64.048585467085786 0 0 -1 0 0 0 0 1 forward_v I I I I #
coedge $-1 $559 $560 $561 $562 reversed $245 $-1 #
coedge $-1 $563 $247 $249 $405 forward $153 $-1 #
coedge $-1 $247 $563 $559 $564 forward $153 $-1 #
coedge $-1 $561 $250 $247 $402 forward $407 $-1 #
edge $-1 $409 9.7520441936549016 $565 22.026648529655205 $401 $566 forward 7 unknown #
coedge $-1 $567 $568 $248 $404 forward $396 $-1 #
edge $-1 $569 -87.22211898376645 $408 -76.367835125882252 $403 $570 forward 7 unknown #
edge $-1 $409 111.87569843808335 $569 128.0971709341716 $249 $571 forward 7 unknown #
coedge $-1 $250 $561 $567 $572 forward $407 $-1 #
loop $-1 $-1 $561 $395 #
vertex $-1 $404 $573 #
vertex $-1 $251 $574 #
straight-curve $-1 27.283787674083079 -25.641390555309954 17.318533391081047 -1 0 0 I I #
coedge $-1 $411 $411 $-1 $575 reversed $254 $-1 #
edge $-1 $576 0 $576 6.2831853071796004 $255 $577 forward 7 unknown #
vertex $-1 $258 $578 #
ellipse-curve $-1 58.021133852310641 -35.461074024110196 11.891391462138957 0.66913061440640931 0 0.74314481823134659 0.3715724091156733 0 -0.33456530720320465 1 I I #
coedge $-1 $415 $415 $-1 $579 reversed $261 $-1 #
edge $-1 $580 0 $580 6.2831853071796004 $262 $581 forward 7 unknown #
vertex $-1 $265 $582 #
ellipse-curve $-1 58.021133852310641 -31.778692723310105 11.891391462138957 0.66913061440640931 0 0.74314481823134659 0.3715724091156733 0 -0.33456530720320465 1 I I #
coedge $-1 $419 $419 $-1 $583 reversed $268 $-1 #
edge $-1 $584 0 $584 6.2831853071796004 $269 $585 forward 7 unknown #
vertex $-1 $272 $586 #
ellipse-curve $-1 58.021133852310641 -28.096311422510013 11.891391462138957 0.66913061440640931 0 0.74314481823134659 0.3715724091156733 0 -0.33456530720320465 1 I I #
face $-1 $-1 $435 $60 $-1 $587 forward single #
loop $-1 $-1 $588 $273 #
plane-surface $-1 64.048585467085786 0 0 -1 0 0 0 0 1 forward_v I I I I #
coedge $-1 $589 $590 $591 $592 reversed $274 $-1 #
coedge $-1 $593 $276 $278 $433 forward $172 $-1 #
coedge $-1 $276 $593 $589 $594 forward $172 $-1 #
coedge $-1 $591 $279 $276 $430 forward $435 $-1 #
edge $-1 $437 -0.84085338078179817 $595 11.433750955218503 $429 $596 forward 7 unknown #
coedge $-1 $597 $598 $277 $432 forward $424 $-1 #
edge $-1 $599 -87.22211898376645 $436 -76.367835125882252 $431 $600 forward 7 unknown #
edge $-1 $437 111.87569843808335 $599 128.0971709341716 $278 $601 forward 7 unknown #
coedge $-1 $279 $591 $597 $602 forward $435 $-1 #
loop $-1 $-1 $591 $423 #
vertex $-1 $432 $603 #
vertex $-1 $280 $604 #
straight-curve $-1 27.283787674083079 -4.4555954064365544 17.318533391081047 -1 0 0 I I #
coedge $-1 $439 $439 $-1 $605 reversed $283 $-1 #
edge $-1 $606 0 $606 6.2831853071796004 $284 $607 forward 7 unknown #
vertex $-1 $287 $608 #
ellipse-curve $-1 58.021133852310641 -14.275278875236793 11.891391462138957 0.66913061440640931 0 0.74314481823134659 0.3715724091156733 0 -0.33456530720320465 1 I I #
coedge $-1 $443 $443 $-1 $609 reversed $290 $-1 #
edge $-1 $610 0 $610 6.2831853071796004 $291 $611 forward 7 unknown #
vertex $-1 $294 $612 #
ellipse-curve $-1 58.021133852310641 -10.592897574436705 11.891391462138957 0.66913061440640931 0 0.74314481823134659 0.3715724091156733 0 -0.33456530720320465 1 I I #
coedge $-1 $447 $447 $-1 $613 reversed $297 $-1 #
edge $-1 $614 0 $614 6.2831853071796004 $298 $615 forward 7 unknown #
vertex $-1 $301 $616 #
ellipse-curve $-1 58.021133852310641 -6.9105162736366097 11.891391462138957 0.66913061440640931 0 0.74314481823134659 0.3715724091156733 0 -0.33456530720320465 1 I I #
face $-1 $-1 $463 $64 $-1 $617 forward single #
loop $-1 $-1 $618 $302 #
plane-surface $-1 64.048585467085786 0 0 -1 0 0 0 0 1 forward_v I I I I #
coedge $-1 $619 $620 $621 $622 reversed $303 $-1 #
coedge $-1 $623 $305 $307 $461 forward $191 $-1 #
coedge $-1 $305 $623 $619 $624 forward $191 $-1 #
coedge $-1 $621 $308 $305 $458 forward $463 $-1 #
edge $-1 $465 -11.4337509552185 $625 0.84085338078180172 $457 $626 forward 7 unknown #
coedge $-1 $627 $628 $306 $460 forward $452 $-1 #
edge $-1 $629 -87.22211898376645 $464 -76.367835125882252 $459 $630 forward 7 unknown #
edge $-1 $465 111.87569843808335 $629 128.0971709341716 $307 $631 forward 7 unknown #
coedge $-1 $308 $621 $627 $632 forward $463 $-1 #
loop $-1 $-1 $621 $451 #
vertex $-1 $460 $633 #
vertex $-1 $309 $634 #
straight-curve $-1 27.283787674083079 16.730199742436849 17.318533391081047 -1 0 0 I I #
coedge $-1 $467 $467 $-1 $635 reversed $312 $-1 #
edge $-1 $636 0 $636 6.2831853071796004 $313 $637 forward 7 unknown #
vertex $-1 $316 $638 #
ellipse-curve $-1 58.021133852310641 6.9105162736366097 11.891391462138957 0.66913061440640931 0 0.74314481823134659 0.3715724091156733 0 -0.33456530720320465 1 I I #
coedge $-1 $471 $471 $-1 $639 reversed $319 $-1 #
edge $-1 $640 0 $640 6.2831853071796004 $320 $641 forward 7 unknown #
vertex $-1 $323 $642 #
ellipse-curve $-1 58.021133852310641 10.592897574436698 11.891391462138957 0.66913061440640931 0 0.74314481823134659 0.3715724091156733 0 -0.33456530720320465 1 I I #
coedge $-1 $475 $475 $-1 $643 reversed $326 $-1 #
edge $-1 $644 0 $644 6.2831853071796004 $327 $645 forward 7 unknown #
vertex $-1 $330 $646 #
ellipse-curve $-1 58.021133852310641 14.275278875236786 11.891391462138957 0.66913061440640931 0 0.74314481823134659 0.3715724091156733 0 -0.33456530720320465 1 I I #
face $-1 $-1 $491 $68 $-1 $647 forward single #
loop $-1 $-1 $648 $331 #
plane-surface $-1 64.048585467085786 0 0 -1 0 0 0 0 1 forward_v I I I I #
coedge $-1 $649 $650 $651 $652 reversed $332 $-1 #
coedge $-1 $653 $334 $336 $489 forward $210 $-1 #
coedge $-1 $334 $653 $649 $654 forward $210 $-1 #
coedge $-1 $651 $337 $334 $486 forward $491 $-1 #
edge $-1 $493 -22.026648529655201 $655 -9.7520441936548963 $485 $656 forward 7 unknown #
coedge $-1 $657 $658 $335 $488 forward $480 $-1 #
edge $-1 $659 -87.22211898376645 $492 -76.367835125882252 $487 $660 forward 7 unknown #
edge $-1 $493 111.87569843808335 $659 128.0971709341716 $336 $661 forward 7 unknown #
coedge $-1 $337 $651 $657 $662 forward $491 $-1 #
loop $-1 $-1 $651 $479 #
vertex $-1 $488 $663 #
vertex $-1 $338 $664 #
straight-curve $-1 27.283787674083079 37.915994891310248 17.318533391081047 -1 0 0 I I #
coedge $-1 $495 $495 $-1 $665 reversed $341 $-1 #
edge $-1 $666 0 $666 6.2831853071796004 $342 $667 forward 7 unknown #
vertex $-1 $345 $668 #
ellipse-curve $-1 58.021133852310641 28.096311422510006 11.891391462138957 0.66913061440640931 0 0.74314481823134659 0.3715724091156733 0 -0.33456530720320465 1 I I #
coedge $-1 $499 $499 $-1 $669 reversed $348 $-1 #
edge $-1 $670 0 $670 6.2831853071796004 $349 $671 forward 7 unknown #
vertex $-1 $352 $672 #
ellipse-curve $-1 58.021133852310641 31.778692723310094 11.891391462138957 0.66913061440640931 0 0.74314481823134659 0.3715724091156733 0 -0.33456530720320465 1 I I #
coedge $-1 $503 $503 $-1 $673 reversed $355 $-1 #
edge $-1 $674 0 $674 6.2831853071796004 $356 $675 forward 7 unknown #
vertex $-1 $359 $676 #
ellipse-curve $-1 58.021133852310641 35.461074024110182 11.891391462138957 0.66913061440640931 0 0.74314481823134659 0.3715724091156733 0 -0.33456530720320465 1 I I #
face $-1 $-1 $375 $54 $-1 $677 reversed single #
loop $-1 $-1 $523 $360 #
plane-surface $-1 0 43.287086076276374 0 0 -1 0 0 0 -1 forward_v I I I I #
coedge $-1 $678 $521 $524 $679 forward $361 $-1 #
coedge $-1 $527 $363 $364 $515 reversed $229 $-1 #
coedge $-1 $521 $678 $363 $513 reversed $361 $-1 #
edge $-1 $528 -17.318533391081047 $680 17.318533391081047 $512 $681 forward 7 unknown #
coedge $-1 $365 $364 $678 $682 forward $145 $-1 #
edge $-1 $519 -64.048585467085786 $680 64.048585467085786 $511 $683 forward 7 unknown #
coedge $-1 $524 $523 $365 $517 reversed $508 $-1 #
edge $-1 $684 -64.048585467085786 $518 64.048585467085786 $516 $685 forward 7 unknown #
vertex $-1 $367 $686 #
vertex $-1 $530 $687 #
straight-curve $-1 64.048585467085786 0 -17.318533391081047 0 -1 0 I I #
coedge $-1 $510 $512 $368 $522 reversed $361 $-1 #
edge $-1 $525 -43.287086076276374 $528 43.287086076276374 $521 $688 forward 7 unknown #
coedge $-1 $516 $369 $374 $531 forward $508 $-1 #
coedge $-1 $369 $516 $510 $679 reversed $508 $-1 #
vertex $-1 $370 $689 #
straight-curve $-1 0 43.287086076276374 17.318533391081047 -1 0 0 I I #
coedge $-1 $371 $511 $373 $530 reversed $229 $-1 #
vertex $-1 $522 $690 #
straight-curve $-1 0 -43.287086076276374 17.318533391081047 1 0 0 I I #
edge $-1 $376 -17.318533391081047 $519 17.318533391081047 $373 $691 forward 7 unknown #
edge $-1 $377 -17.318533391081047 $518 17.318533391081047 $374 $692 forward 7 unknown #
point $-1 64.048585467085786 -43.287086076276374 17.318533391081047 #
point $-1 64.048585467085786 43.287086076276374 17.318533391081047 #
face $-1 $-1 $544 $55 $-1 $693 reversed single #
loop $-1 $-1 $540 $379 #
plane-surface $-1 0 0 -17.318533391081047 0 0 1 1 0 0 forward_v I I I I #
coedge $-1 $694 $695 $387 $548 forward $380 $-1 #
coedge $-1 $382 $552 $542 $696 forward $237 $-1 #
edge $-1 $546 -23.845291152823567 $392 -15.038298694082048 $382 $697 forward 7 unknown #
coedge $-1 $698 $388 $383 $541 forward $535 $-1 #
edge $-1 $393 15.038298694082048 $545 23.845291152823567 $540 $699 forward 7 unknown #
coedge $-1 $700 $385 $538 $696 reversed $544 $-1 #
coedge $-1 $385 $700 $698 $701 reversed $544 $-1 #
loop $-1 $-1 $385 $534 #
vertex $-1 $701 $702 #
vertex $-1 $386 $703 #
straight-curve $-1 -48.24990969554247 -43.287086076276374 0 0 0 1 I I #
edge $-1 $553 -17.318533391081047 $550 17.318533391081047 $537 $704 forward 7 unknown #
coedge $-1 $388 $698 $694 $705 forward $535 $-1 #
vertex $-1 $389 $706 #
straight-curve $-1 -28.074623790657064 -34.480093617534855 -17.318533391081047 1 0 0 I I #
coedge $-1 $538 $390 $695 $707 forward $237 $-1 #
vertex $-1 $707 $708 #
straight-curve $-1 -28.074623790657064 -34.480093617534855 17.318533391081047 -1 0 0 I I #
point $-1 -48.24990969554247 -34.480093617534855 17.318533391081047 #
point $-1 -48.24990969554247 -34.480093617534855 -17.318533391081047 #
plane-surface $-1 0 0 17.318533391081047 0 0 1 1 0 0 forward_v I I I I #
coedge $-1 $568 $567 $560 $709 forward $396 $-1 #
coedge $-1 $560 $398 $400 $564 reversed $245 $-1 #
coedge $-1 $398 $559 $558 $709 reversed $245 $-1 #
coedge $-1 $406 $401 $398 $562 forward $407 $-1 #
edge $-1 $565 24.709894563452416 $710 36.764797793002707 $561 $711 forward 7 unknown #
coedge $-1 $400 $399 $568 $712 reversed $153 $-1 #
edge $-1 $713 -128.0971709341716 $565 -111.87569843808335 $559 $714 forward 7 unknown #
vertex $-1 $402 $715 #
straight-curve $-1 51.993682237535502 -15.889346361655052 17.318533391081033 0 -1 0 I I #
coedge $-1 $558 $403 $406 $572 reversed $396 $-1 #
coedge $-1 $403 $558 $563 $712 forward $396 $-1 #
vertex $-1 $404 $716 #
straight-curve $-1 64.048585467085786 -25.641390555309954 93.686368516963299 0 0 1 I I #
straight-curve $-1 -31.146163342738902 -25.641390555309954 92.177988224101924 0.74314481823134659 0 -0.66913061440640931 I I #
edge $-1 $710 -37.915994891310255 $408 -25.641390555309954 $567 $717 forward 7 unknown #
point $-1 64.048585467085786 -25.641390555309954 17.318533391081047 #
point $-1 51.993682237535495 -25.641390555309954 17.318533391081047 #
edge $-1 $718 1 $718 0 $411 $-1 forward 7 unknown #
vertex $-1 $412 $719 #
ellipse-curve $-1 57.352003237904242 -35.461074024110196 11.148246643907626 0.66913061440640931 0 0.74314481823134659 0.3715724091156733 0 -0.33456530720320465 1 I I #
point $-1 58.392706261426326 -35.461074024110196 11.556826154935768 #
edge $-1 $720 1 $720 0 $415 $-1 forward 7 unknown #
vertex $-1 $416 $721 #
ellipse-curve $-1 57.352003237904242 -31.778692723310105 11.148246643907626 0.66913061440640931 0 0.74314481823134659 0.3715724091156733 0 -0.33456530720320465 1 I I #
point $-1 58.392706261426326 -31.778692723310105 11.556826154935768 #
edge $-1 $722 1 $722 0 $419 $-1 forward 7 unknown #
vertex $-1 $420 $723 #
ellipse-curve $-1 57.352003237904242 -28.096311422510013 11.148246643907626 0.66913061440640931 0 0.74314481823134659 0.3715724091156733 0 -0.33456530720320465 1 I I #
point $-1 58.392706261426326 -28.096311422510013 11.556826154935768 #
plane-surface $-1 0 0 17.318533391081047 0 0 1 1 0 0 forward_v I I I I #
coedge $-1 $598 $597 $590 $724 forward $424 $-1 #
coedge $-1 $590 $426 $428 $594 reversed $274 $-1 #
coedge $-1 $426 $589 $588 $724 reversed $274 $-1 #
coedge $-1 $434 $429 $426 $592 forward $435 $-1 #
edge $-1 $595 24.709894563452416 $725 36.764797793002707 $591 $726 forward 7 unknown #
coedge $-1 $428 $427 $598 $727 reversed $172 $-1 #
edge $-1 $728 -128.0971709341716 $595 -111.87569843808335 $589 $729 forward 7 unknown #
vertex $-1 $430 $730 #
straight-curve $-1 51.993682237535502 -5.2964487872183525 17.318533391081033 0 -1 0 I I #
coedge $-1 $588 $431 $434 $602 reversed $424 $-1 #
coedge $-1 $431 $588 $593 $727 forward $424 $-1 #
vertex $-1 $432 $731 #
straight-curve $-1 64.048585467085786 -4.4555954064365544 93.686368516963299 0 0 1 I I #
straight-curve $-1 -31.146163342738902 -4.4555954064365544 92.177988224101924 0.74314481823134659 0 -0.66913061440640931 I I #
edge $-1 $725 -16.730199742436856 $436 -4.4555954064365544 $597 $732 forward 7 unknown #
point $-1 64.048585467085786 -4.4555954064365544 17.318533391081047 #
point $-1 51.993682237535495 -4.4555954064365544 17.318533391081047 #
edge $-1 $733 1 $733 0 $439 $-1 forward 7 unknown #
vertex $-1 $440 $734 #
ellipse-curve $-1 57.352003237904242 -14.275278875236793 11.148246643907626 0.66913061440640931 0 0.74314481823134659 0.3715724091156733 0 -0.33456530720320465 1 I I #
point $-1 58.392706261426326 -14.275278875236793 11.556826154935768 #
edge $-1 $735 1 $735 0 $443 $-1 forward 7 unknown #
vertex $-1 $444 $736 #
ellipse-curve $-1 57.352003237904242 -10.592897574436705 11.148246643907626 0.66913061440640931 0 0.74314481823134659 0.3715724091156733 0 -0.33456530720320465 1 I I #
point $-1 58.392706261426326 -10.592897574436705 11.556826154935768 #
edge $-1 $737 1 $737 0 $447 $-1 forward 7 unknown #
vertex $-1 $448 $738 #
ellipse-curve $-1 57.352003237904242 -6.9105162736366097 11.148246643907626 0.66913061440640931 0 0.74314481823134659 0.3715724091156733 0 -0.33456530720320465 1 I I #
point $-1 58.392706261426326 -6.9105162736366097 11.556826154935768 #
plane-surface $-1 0 0 17.318533391081047 0 0 1 1 0 0 forward_v I I I I #
coedge $-1 $628 $627 $620 $739 forward $452 $-1 #
coedge $-1 $620 $454 $456 $624 reversed $303 $-1 #
coedge $-1 $454 $619 $618 $739 reversed $303 $-1 #
coedge $-1 $462 $457 $454 $622 forward $463 $-1 #
edge $-1 $625 24.709894563452416 $740 36.764797793002707 $621 $741 forward 7 unknown #
coedge $-1 $456 $455 $628 $742 reversed $191 $-1 #
edge $-1 $743 -128.0971709341716 $625 -111.87569843808335 $619 $744 forward 7 unknown #
vertex $-1 $458 $745 #
straight-curve $-1 51.993682237535502 5.296448787218349 17.318533391081033 0 -1 0 I I #
coedge $-1 $618 $459 $462 $632 reversed $452 $-1 #
coedge $-1 $459 $618 $623 $742 forward $452 $-1 #
vertex $-1 $460 $746 #
straight-curve $-1 64.048585467085786 16.730199742436849 93.686368516963299 0 0 1 I I #
straight-curve $-1 -31.146163342738902 16.730199742436849 92.177988224101924 0.74314481823134659 0 -0.66913061440640931 I I #
edge $-1 $740 4.4555954064365473 $464 16.730199742436849 $627 $747 forward 7 unknown #
point $-1 64.048585467085786 16.730199742436849 17.318533391081047 #
point $-1 51.993682237535495 16.730199742436849 17.318533391081047 #
edge $-1 $748 1 $748 0 $467 $-1 forward 7 unknown #
vertex $-1 $468 $749 #
ellipse-curve $-1 57.352003237904242 6.9105162736366097 11.148246643907626 0.66913061440640931 0 0.74314481823134659 0.3715724091156733 0 -0.33456530720320465 1 I I #
point $-1 58.392706261426326 6.9105162736366097 11.556826154935768 #
edge $-1 $750 1 $750 0 $471 $-1 forward 7 unknown #
vertex $-1 $472 $751 #
ellipse-curve $-1 57.352003237904242 10.592897574436698 11.148246643907626 0.66913061440640931 0 0.74314481823134659 0.3715724091156733 0 -0.33456530720320465 1 I I #
point $-1 58.392706261426326 10.592897574436698 11.556826154935768 #
edge $-1 $752 1 $752 0 $475 $-1 forward 7 unknown #
vertex $-1 $476 $753 #
ellipse-curve $-1 57.352003237904242 14.275278875236786 11.148246643907626 0.66913061440640931 0 0.74314481823134659 0.3715724091156733 0 -0.33456530720320465 1 I I #
point $-1 58.392706261426326 14.275278875236786 11.556826154935768 #
plane-surface $-1 0 0 17.318533391081047 0 0 1 1 0 0 forward_v I I I I #
coedge $-1 $658 $657 $650 $754 forward $480 $-1 #
coedge $-1 $650 $482 $484 $654 reversed $332 $-1 #
coedge $-1 $482 $649 $648 $754 reversed $332 $-1 #
coedge $-1 $490 $485 $482 $652 forward $491 $-1 #
edge $-1 $655 24.709894563452416 $755 36.764797793002707 $651 $756 forward 7 unknown #
coedge $-1 $484 $483 $658 $757 reversed $210 $-1 #
edge $-1 $758 -128.0971709341716 $655 -111.87569843808335 $649 $759 forward 7 unknown #
vertex $-1 $486 $760 #
straight-curve $-1 51.993682237535502 15.889346361655047 17.318533391081033 0 -1 0 I I #
coedge $-1 $648 $487 $490 $662 reversed $480 $-1 #
coedge $-1 $487 $648 $653 $757 forward $480 $-1 #
vertex $-1 $488 $761 #
straight-curve $-1 64.048585467085786 37.915994891310248 93.686368516963299 0 0 1 I I #
straight-curve $-1 -31.146163342738902 37.915994891310248 92.177988224101924 0.74314481823134659 0 -0.66913061440640931 I I #
edge $-1 $755 25.641390555309943 $492 37.915994891310248 $657 $762 forward 7 unknown #
point $-1 64.048585467085786 37.915994891310248 17.318533391081047 #
point $-1 51.993682237535495 37.915994891310248 17.318533391081047 #
edge $-1 $763 1 $763 0 $495 $-1 forward 7 unknown #
vertex $-1 $496 $764 #
ellipse-curve $-1 57.352003237904242 28.096311422510006 11.148246643907626 0.66913061440640931 0 0.74314481823134659 0.3715724091156733 0 -0.33456530720320465 1 I I #
point $-1 58.392706261426326 28.096311422510006 11.556826154935768 #
edge $-1 $765 1 $765 0 $499 $-1 forward 7 unknown #
vertex $-1 $500 $766 #
ellipse-curve $-1 57.352003237904242 31.778692723310094 11.148246643907626 0.66913061440640931 0 0.74314481823134659 0.3715724091156733 0 -0.33456530720320465 1 I I #
point $-1 58.392706261426326 31.778692723310094 11.556826154935768 #
edge $-1 $767 1 $767 0 $503 $-1 forward 7 unknown #
vertex $-1 $504 $768 #
ellipse-curve $-1 57.352003237904242 35.461074024110182 11.148246643907626 0.66913061440640931 0 0.74314481823134659 0.3715724091156733 0 -0.33456530720320465 1 I I #
point $-1 58.392706261426326 35.461074024110182 11.556826154935768 #
plane-surface $-1 64.048585467085786 0 0 -1 0 0 0 0 1 forward_v I I I I #
coedge $-1 $512 $510 $514 $682 reversed $361 $-1 #
edge $-1 $525 -17.318533391081047 $684 17.318533391081047 $524 $769 forward 7 unknown #
vertex $-1 $682 $770 #
straight-curve $-1 -64.048585467085786 -43.287086076276374 0 0 0 -1 I I #
edge $-1 $680 -43.287086076276374 $684 43.287086076276374 $678 $771 forward 7 unknown #
straight-curve $-1 0 -43.287086076276374 -17.318533391081047 -1 0 0 I I #
vertex $-1 $517 $772 #
straight-curve $-1 0 43.287086076276374 -17.318533391081047 1 0 0 I I #
point $-1 64.048585467085786 43.287086076276374 -17.318533391081047 #
point $-1 64.048585467085786 -43.287086076276374 -17.318533391081047 #
straight-curve $-1 -64.048585467085786 0 17.318533391081047 0 -1 0 I I #
point $-1 -64.048585467085786 43.287086076276374 17.318533391081047 #
point $-1 -64.048585467085786 -43.287086076276374 17.318533391081047 #
straight-curve $-1 64.048585467085786 -43.287086076276374 0 0 0 -1 I I #
straight-curve $-1 64.048585467085786 43.287086076276374 0 0 0 -1 I I #
plane-surface $-1 0 -43.287086076276374 0 0 1 0 0 0 1 forward_v I I I I #
coedge $-1 $773 $537 $549 $705 reversed $380 $-1 #
coedge $-1 $537 $773 $552 $707 reversed $380 $-1 #
edge $-1 $774 -64.048585467085786 $546 -48.24990969554247 $542 $775 forward 7 unknown #
straight-curve $-1 -48.24990969554247 -19.441794923452807 17.318533391081047 0 1 0 I I #
coedge $-1 $549 $540 $543 $701 forward $535 $-1 #
straight-curve $-1 -48.24990969554247 -19.441794923452807 -17.318533391081047 0 -1 0 I I #
coedge $-1 $543 $542 $773 $776 forward $544 $-1 #
edge $-1 $545 48.24990969554247 $777 64.048585467085786 $543 $778 forward 7 unknown #
point $-1 -48.24990969554247 -43.287086076276374 -17.318533391081047 #
point $-1 -48.24990969554247 -43.287086076276374 17.318533391081047 #
straight-curve $-1 -64.048585467085786 -34.480093617534855 0 0 0 -1 I I #
edge $-1 $777 -43.287086076276374 $550 -34.480093617534855 $694 $779 forward 7 unknown #
point $-1 -64.048585467085786 -34.480093617534855 -17.318533391081047 #
edge $-1 $553 34.480093617534855 $774 43.287086076276374 $695 $780 forward 7 unknown #
point $-1 -64.048585467085786 -34.480093617534855 17.318533391081047 #
edge $-1 $710 76.367835125882252 $713 87.22211898376645 $558 $781 forward 7 unknown #
vertex $-1 $572 $782 #
straight-curve $-1 27.283787674083079 -37.915994891310255 17.318533391081047 1 0 0 I I #
edge $-1 $713 -22.026648529655205 $569 -9.7520441936549016 $568 $783 forward 7 unknown #
vertex $-1 $712 $784 #
straight-curve $-1 -31.146163342738902 -37.915994891310255 92.177988224101924 -0.74314481823134659 0 0.66913061440640931 I I #
point $-1 51.993682237535495 -37.915994891310255 17.318533391081047 #
point $-1 64.048585467085786 -25.641390555309954 6.464249533196849 #
straight-curve $-1 64.048585467085786 0 17.318533391081047 0 1 0 I I #
vertex $-1 $575 $785 #
point $-1 57.723575647019914 -35.461074024110196 10.813681336704422 #
vertex $-1 $579 $786 #
point $-1 57.723575647019914 -31.778692723310105 10.813681336704422 #
vertex $-1 $583 $787 #
point $-1 57.723575647019914 -28.096311422510013 10.813681336704422 #
edge $-1 $725 76.367835125882252 $728 87.22211898376645 $588 $788 forward 7 unknown #
vertex $-1 $602 $789 #
straight-curve $-1 27.283787674083079 -16.730199742436856 17.318533391081047 1 0 0 I I #
edge $-1 $728 -11.433750955218503 $599 0.84085338078179817 $598 $790 forward 7 unknown #
vertex $-1 $727 $791 #
straight-curve $-1 -31.146163342738902 -16.730199742436856 92.177988224101924 -0.74314481823134659 0 0.66913061440640931 I I #
point $-1 51.993682237535495 -16.730199742436856 17.318533391081047 #
point $-1 64.048585467085786 -4.4555954064365544 6.464249533196849 #
straight-curve $-1 64.048585467085786 0 17.318533391081047 0 1 0 I I #
vertex $-1 $605 $792 #
point $-1 57.723575647019914 -14.275278875236793 10.813681336704422 #
vertex $-1 $609 $793 #
point $-1 57.723575647019914 -10.592897574436705 10.813681336704422 #
vertex $-1 $613 $794 #
point $-1 57.723575647019914 -6.9105162736366097 10.813681336704422 #
edge $-1 $740 76.367835125882252 $743 87.22211898376645 $618 $795 forward 7 unknown #
vertex $-1 $632 $796 #
straight-curve $-1 27.283787674083079 4.4555954064365473 17.318533391081047 1 0 0 I I #
edge $-1 $743 -0.84085338078180172 $629 11.4337509552185 $628 $797 forward 7 unknown #
vertex $-1 $742 $798 #
straight-curve $-1 -31.146163342738902 4.4555954064365473 92.177988224101924 -0.74314481823134659 0 0.66913061440640931 I I #
point $-1 51.993682237535495 4.4555954064365473 17.318533391081047 #
point $-1 64.048585467085786 16.730199742436849 6.464249533196849 #
straight-curve $-1 64.048585467085786 0 17.318533391081047 0 1 0 I I #
vertex $-1 $635 $799 #
point $-1 57.723575647019914 6.9105162736366097 10.813681336704422 #
vertex $-1 $639 $800 #
point $-1 57.723575647019914 10.592897574436698 10.813681336704422 #
vertex $-1 $643 $801 #
point $-1 57.723575647019914 14.275278875236786 10.813681336704422 #
edge $-1 $755 76.367835125882252 $758 87.22211898376645 $648 $802 forward 7 unknown #
vertex $-1 $662 $803 #
straight-curve $-1 27.283787674083079 25.641390555309943 17.318533391081047 1 0 0 I I #
edge $-1 $758 9.7520441936548963 $659 22.026648529655201 $658 $804 forward 7 unknown #
vertex $-1 $757 $805 #
straight-curve $-1 -31.146163342738902 25.641390555309943 92.177988224101924 -0.74314481823134659 0 0.66913061440640931 I I #
point $-1 51.993682237535495 25.641390555309943 17.318533391081047 #
point $-1 64.048585467085786 37.915994891310248 6.464249533196849 #
straight-curve $-1 64.048585467085786 0 17.318533391081047 0 1 0 I I #
vertex $-1 $665 $806 #
point $-1 57.723575647019914 28.096311422510006 10.813681336704422 #
vertex $-1 $669 $807 #
point $-1 57.723575647019914 31.778692723310094 10.813681336704422 #
vertex $-1 $673 $808 #
point $-1 57.723575647019914 35.461074024110182 10.813681336704422 #
straight-curve $-1 -64.048585467085786 43.287086076276374 0 0 0 -1 I I #
point $-1 -64.048585467085786 -43.287086076276374 -17.318533391081047 #
straight-curve $-1 -64.048585467085786 0 -17.318533391081047 0 1 0 I I #
point $-1 -64.048585467085786 43.287086076276374 -17.318533391081047 #
coedge $-1 $695 $694 $700 $776 reversed $380 $-1 #
vertex $-1 $707 $809 #
straight-curve $-1 0 -43.287086076276374 17.318533391081047 1 0 0 I I #
edge $-1 $774 -17.318533391081047 $777 17.318533391081047 $773 $810 forward 7 unknown #
vertex $-1 $705 $811 #
straight-curve $-1 0 -43.287086076276374 -17.318533391081047 -1 0 0 I I #
straight-curve $-1 -64.048585467085786 0 -17.318533391081047 0 1 0 I I #
straight-curve $-1 -64.048585467085786 0 17.318533391081047 0 -1 0 I I #
straight-curve $-1 64.048585467085786 -37.915994891310255 93.686368516963299 0 0 -1 I I #
point $-1 64.048585467085786 -37.915994891310255 17.318533391081047 #
straight-curve $-1 64.048585467085786 -15.889346361655052 6.4642495331968561 0 1 0 I I #
point $-1 64.048585467085786 -37.915994891310255 6.464249533196849 #
point $-1 57.017437930701035 -35.461074024110196 10.776674234791955 #
point $-1 57.017437930701035 -31.778692723310105 10.776674234791955 #
point $-1 57.017437930701035 -28.096311422510013 10.776674234791955 #
straight-curve $-1 64.048585467085786 -16.730199742436856 93.686368516963299 0 0 -1 I I #
point $-1 64.048585467085786 -16.730199742436856 17.318533391081047 #
straight-curve $-1 64.048585467085786 -5.2964487872183525 6.4642495331968561 0 1 0 I I #
point $-1 64.048585467085786 -16.730199742436856 6.464249533196849 #
point $-1 57.017437930701035 -14.275278875236793 10.776674234791955 #
point $-1 57.017437930701035 -10.592897574436705 10.776674234791955 #
point $-1 57.017437930701035 -6.9105162736366097 10.776674234791955 #
straight-curve $-1 64.048585467085786 4.4555954064365473 93.686368516963299 0 0 -1 I I #
point $-1 64.048585467085786 4.4555954064365473 17.318533391081047 #
straight-curve $-1 64.048585467085786 5.296448787218349 6.4642495331968561 0 1 0 I I #
point $-1 64.048585467085786 4.4555954064365473 6.464249533196849 #
point $-1 57.017437930701035 6.9105162736366097 10.776674234791955 #
point $-1 57.017437930701035 10.592897574436698 10.776674234791955 #
point $-1 57.017437930701035 14.275278875236786 10.776674234791955 #
straight-curve $-1 64.048585467085786 25.641390555309943 93.686368516963299 0 0 -1 I I #
point $-1 64.048585467085786 25.641390555309943 17.318533391081047 #
straight-curve $-1 64.048585467085786 15.889346361655047 6.4642495331968561 0 1 0 I I #
point $-1 64.048585467085786 25.641390555309943 6.464249533196849 #
point $-1 57.017437930701035 28.096311422510006 10.776674234791955 #
point $-1 57.017437930701035 31.778692723310094 10.776674234791955 #
point $-1 57.017437930701035 35.461074024110182 10.776674234791955 #
point $-1 -64.048585467085786 -43.287086076276374 17.318533391081047 #
straight-curve $-1 -64.048585467085786 -43.287086076276374 0 0 0 -1 I I #
point $-1 -64.048585467085786 -43.287086076276374 -17.318533391081047 #
End-of-ACIS-data 