500 0 3 0           
7 Unknown 11 ACIS 5.0 NT 24 Fri Mar 26 15:18:09 1999 
-1 9.9999999999999995e-007 1e-010 
body $-1 $3 $-1 $4 #
body $-1 $5 $-1 $6 #
body $-1 $7 $-1 $8 #
lump $-1 $-1 $9 $0 #
transform $-1 1 0 0 0 1 0 0 0 1 77.921079134495074 35.343310236778457 10.596089870083942 1 rotate no_reflect no_shear #
lump $-1 $-1 $10 $1 #
transform $-1 1 0 0 0 1 0 0 0 1 77.921079134495074 35.343310236778457 10.596089870083942 1 rotate no_reflect no_shear #
lump $-1 $-1 $11 $2 #
transform $-1 1 0 0 0 1 0 0 0 1 77.921079134495074 35.343310236778457 10.596089870083942 1 rotate no_reflect no_shear #
shell $-1 $-1 $-1 $12 $-1 $3 #
shell $-1 $-1 $-1 $13 $-1 $5 #
shell $-1 $-1 $-1 $14 $-1 $7 #
face $-1 $15 $16 $9 $-1 $17 forward single #
face $-1 $18 $19 $10 $-1 $20 forward single #
face $-1 $21 $22 $11 $-1 $23 reversed single #
face $-1 $24 $25 $9 $-1 $26 reversed single #
loop $-1 $-1 $27 $12 #
plane-surface $-1 0 0 10.596089870083942 0 0 1 1 0 0 forward_v I I I I #
face $-1 $28 $29 $10 $-1 $30 reversed single #
loop $-1 $-1 $31 $13 #
plane-surface $-1 0 -35.343310236778457 0 0 1 0 0 0 1 forward_v I I I I #
face $-1 $32 $33 $11 $-1 $34 reversed single #
loop $-1 $-1 $35 $14 #
plane-surface $-1 0 29.736003832964407 5.4113885276645615 0 0 1 1 0 0 forward_v I I I I #
face $-1 $36 $37 $9 $-1 $38 reversed single #
loop $-1 $-1 $39 $15 #
plane-surface $-1 0 0 -10.596089870083942 0 0 1 1 0 0 forward_v I I I I #
coedge $-1 $40 $41 $42 $43 forward $16 $-1 #
face $-1 $44 $45 $10 $-1 $46 reversed single #
loop $-1 $-1 $47 $18 #
plane-surface $-1 0 0 -10.596089870083942 0 0 1 1 0 0 forward_v I I I I #
coedge $-1 $48 $49 $50 $51 forward $19 $-1 #
face $-1 $52 $53 $11 $-1 $54 reversed single #
loop $-1 $-1 $55 $21 #
plane-surface $-1 0 24.128697429150353 8.0037391988742517 0 1 0 0 0 1 forward_v I I I I #
coedge $-1 $56 $57 $58 $59 reversed $22 $-1 #
face $-1 $60 $61 $9 $-1 $62 reversed single #
loop $-1 $-1 $63 $24 #
plane-surface $-1 0 -35.343310236778457 0 0 1 0 0 0 1 forward_v I I I I #
coedge $-1 $64 $65 $66 $67 forward $25 $-1 #
coedge $-1 $68 $27 $69 $70 forward $16 $-1 #
coedge $-1 $27 $68 $71 $72 forward $16 $-1 #
coedge $-1 $73 $74 $27 $43 reversed $75 $-1 #
edge $-1 $76 -35.343310236778457 $77 35.343310236778457 $42 $78 forward 7 unknown #
face $-1 $79 $80 $10 $-1 $81 forward single #
loop $-1 $-1 $82 $28 #
plane-surface $-1 77.921079134495074 0 0 -1 0 0 0 0 1 forward_v I I I I #
coedge $-1 $83 $84 $85 $86 forward $29 $-1 #
coedge $-1 $85 $31 $82 $87 reversed $19 $-1 #
coedge $-1 $31 $85 $88 $89 reversed $19 $-1 #
coedge $-1 $90 $91 $31 $51 reversed $80 $-1 #
edge $-1 $92 -77.921079134495074 $93 77.921079134495074 $50 $94 forward 7 unknown #
face $-1 $95 $96 $11 $-1 $97 reversed single #
loop $-1 $-1 $98 $32 #
plane-surface $-1 0 35.343310236778457 0 0 -1 0 0 0 -1 forward_v I I I I #
coedge $-1 $99 $100 $101 $102 reversed $33 $-1 #
coedge $-1 $103 $35 $99 $104 forward $22 $-1 #
coedge $-1 $35 $103 $98 $105 reversed $22 $-1 #
coedge $-1 $106 $107 $35 $59 forward $108 $-1 #
edge $-1 $109 9.2606955126681498 $110 20.475308320296261 $58 $111 forward 7 unknown #
face $-1 $112 $113 $9 $-1 $114 reversed single #
loop $-1 $-1 $115 $36 #
plane-surface $-1 -77.921079134495074 0 0 1 0 0 0 0 -1 forward_v I I I I #
coedge $-1 $116 $71 $117 $118 forward $37 $-1 #
coedge $-1 $119 $39 $116 $120 forward $25 $-1 #
coedge $-1 $39 $119 $121 $122 forward $25 $-1 #
coedge $-1 $74 $73 $39 $67 reversed $75 $-1 #
edge $-1 $123 -35.343310236778457 $124 35.343310236778457 $66 $125 forward 7 unknown #
coedge $-1 $41 $40 $126 $127 forward $16 $-1 #
coedge $-1 $128 $129 $40 $70 reversed $113 $-1 #
edge $-1 $77 -77.921079134495074 $130 77.921079134495074 $69 $131 forward 7 unknown #
coedge $-1 $63 $132 $41 $72 reversed $37 $-1 #
edge $-1 $133 -77.921079134495074 $76 77.921079134495074 $71 $134 forward 7 unknown #
coedge $-1 $66 $42 $132 $135 forward $75 $-1 #
coedge $-1 $42 $66 $128 $136 reversed $75 $-1 #
loop $-1 $-1 $73 $112 #
vertex $-1 $43 $137 #
vertex $-1 $43 $138 #
straight-curve $-1 77.921079134495074 0 10.596089870083942 0 1 0 I I #
face $-1 $139 $140 $10 $-1 $141 reversed single #
loop $-1 $-1 $91 $44 #
plane-surface $-1 0 -40.10864028649425 -4.7293220353405463 0 0 1 1 0 0 forward_v I I I I #
coedge $-1 $142 $143 $48 $87 forward $45 $-1 #
coedge $-1 $144 $47 $143 $145 forward $29 $-1 #
coedge $-1 $47 $144 $146 $147 forward $29 $-1 #
coedge $-1 $49 $48 $47 $86 reversed $19 $-1 #
edge $-1 $148 -77.921079134495074 $149 77.921079134495074 $47 $150 forward 7 unknown #
edge $-1 $149 -10.596089870083942 $93 -4.7293220353405463 $82 $151 forward 7 unknown #
coedge $-1 $146 $152 $49 $89 forward $153 $-1 #
edge $-1 $92 4.7293220353405463 $148 10.596089870083942 $88 $154 forward 7 unknown #
coedge $-1 $155 $50 $152 $156 forward $80 $-1 #
coedge $-1 $50 $155 $142 $157 forward $80 $-1 #
vertex $-1 $89 $158 #
vertex $-1 $157 $159 #
straight-curve $-1 0 -35.343310236778457 -4.7293220353405463 1 0 0 I I #
face $-1 $160 $161 $11 $-1 $162 forward single #
loop $-1 $-1 $163 $52 #
plane-surface $-1 -77.921079134495074 0 0 1 0 0 0 0 -1 forward_v I I I I #
coedge $-1 $164 $165 $57 $105 forward $53 $-1 #
coedge $-1 $166 $55 $56 $104 reversed $33 $-1 #
coedge $-1 $55 $166 $167 $168 reversed $33 $-1 #
coedge $-1 $169 $163 $55 $102 forward $96 $-1 #
edge $-1 $170 1.4095189282274356 $171 6.594220270646816 $101 $172 forward 7 unknown #
coedge $-1 $57 $56 $163 $173 reversed $22 $-1 #
edge $-1 $109 -77.921079134495074 $170 77.921079134495074 $99 $174 forward 7 unknown #
edge $-1 $110 -77.921079134495074 $175 77.921079134495074 $98 $176 forward 7 unknown #
coedge $-1 $177 $58 $165 $178 reversed $108 $-1 #
coedge $-1 $58 $177 $166 $179 forward $108 $-1 #
loop $-1 $-1 $58 $160 #
vertex $-1 $59 $180 #
vertex $-1 $105 $181 #
straight-curve $-1 77.921079134495074 14.868001916482203 5.4113885276645615 0 1 0 I I #
face $-1 $-1 $75 $9 $-1 $182 reversed single #
loop $-1 $-1 $128 $60 #
plane-surface $-1 0 35.343310236778457 0 0 -1 0 0 0 -1 forward_v I I I I #
coedge $-1 $183 $126 $129 $184 forward $61 $-1 #
coedge $-1 $132 $63 $64 $120 reversed $37 $-1 #
coedge $-1 $126 $183 $63 $118 reversed $61 $-1 #
edge $-1 $133 -10.596089870083942 $185 10.596089870083942 $117 $186 forward 7 unknown #
coedge $-1 $65 $64 $183 $187 forward $25 $-1 #
edge $-1 $124 -77.921079134495074 $185 77.921079134495074 $116 $188 forward 7 unknown #
coedge $-1 $129 $128 $65 $122 reversed $113 $-1 #
edge $-1 $189 -77.921079134495074 $123 77.921079134495074 $121 $190 forward 7 unknown #
vertex $-1 $67 $191 #
vertex $-1 $135 $192 #
straight-curve $-1 77.921079134495074 0 -10.596089870083942 0 -1 0 I I #
coedge $-1 $115 $117 $68 $127 reversed $61 $-1 #
edge $-1 $130 -35.343310236778457 $133 35.343310236778457 $126 $193 forward 7 unknown #
coedge $-1 $121 $69 $74 $136 forward $113 $-1 #
coedge $-1 $69 $121 $115 $184 reversed $113 $-1 #
vertex $-1 $70 $194 #
straight-curve $-1 0 35.343310236778457 10.596089870083942 -1 0 0 I I #
coedge $-1 $71 $116 $73 $135 reversed $37 $-1 #
vertex $-1 $127 $195 #
straight-curve $-1 0 -35.343310236778457 10.596089870083942 1 0 0 I I #
edge $-1 $76 -10.596089870083942 $124 10.596089870083942 $73 $196 forward 7 unknown #
edge $-1 $77 -10.596089870083942 $123 10.596089870083942 $74 $197 forward 7 unknown #
point $-1 77.921079134495074 -35.343310236778457 10.596089870083942 #
point $-1 77.921079134495074 35.343310236778457 10.596089870083942 #
face $-1 $-1 $153 $10 $-1 $198 reversed single #
loop $-1 $-1 $199 $79 #
plane-surface $-1 0 -44.873970336210043 -7.6627059527122441 0 1 0 0 0 1 forward_v I I I I #
coedge $-1 $200 $82 $91 $157 reversed $45 $-1 #
coedge $-1 $82 $200 $83 $145 reversed $45 $-1 #
coedge $-1 $84 $83 $201 $202 forward $29 $-1 #
edge $-1 $149 35.343310236778457 $203 44.873970336210043 $143 $204 forward 7 unknown #
coedge $-1 $205 $88 $84 $147 reversed $153 $-1 #
edge $-1 $206 -44.873970336210043 $148 -35.343310236778457 $146 $207 forward 7 unknown #
vertex $-1 $89 $208 #
vertex $-1 $145 $209 #
straight-curve $-1 0 -35.343310236778457 -10.596089870083942 1 0 0 I I #
straight-curve $-1 77.921079134495074 -35.343310236778457 0 0 0 1 I I #
coedge $-1 $88 $205 $90 $156 reversed $153 $-1 #
loop $-1 $-1 $88 $139 #
straight-curve $-1 -77.921079134495074 -35.343310236778457 0 0 0 -1 I I #
coedge $-1 $91 $90 $210 $211 forward $80 $-1 #
edge $-1 $92 -4.7653300497157929 $212 4.7653300497157929 $152 $213 forward 7 unknown #
edge $-1 $214 -4.7653300497157929 $93 4.7653300497157929 $142 $215 forward 7 unknown #
point $-1 -77.921079134495074 -35.343310236778457 -4.7293220353405463 #
point $-1 77.921079134495074 -35.343310236778457 -4.7293220353405463 #
face $-1 $-1 $108 $11 $-1 $216 reversed single #
loop $-1 $-1 $167 $95 #
plane-surface $-1 0 0 10.596089870083942 0 0 1 1 0 0 forward_v I I I I #
coedge $-1 $101 $217 $103 $173 forward $96 $-1 #
coedge $-1 $218 $98 $217 $219 reversed $53 $-1 #
coedge $-1 $98 $218 $106 $178 forward $53 $-1 #
coedge $-1 $100 $99 $107 $179 reversed $33 $-1 #
coedge $-1 $220 $221 $100 $168 forward $161 $-1 #
edge $-1 $171 -77.921079134495074 $222 77.921079134495074 $167 $223 forward 7 unknown #
coedge $-1 $217 $101 $221 $224 reversed $96 $-1 #
vertex $-1 $173 $225 #
vertex $-1 $102 $226 #
straight-curve $-1 -77.921079134495074 24.128697429150353 4.0018695994371258 0 0 1 I I #
edge $-1 $175 -20.475308320296261 $170 -9.2606955126681498 $163 $227 forward 7 unknown #
straight-curve $-1 0 24.128697429150353 5.4113885276645615 -1 0 0 I I #
vertex $-1 $105 $228 #
straight-curve $-1 0 35.343310236778457 5.4113885276645615 -1 0 0 I I #
coedge $-1 $107 $106 $220 $229 reversed $108 $-1 #
edge $-1 $230 -10.596089870083942 $110 -5.4113885276645615 $106 $231 forward 7 unknown #
edge $-1 $222 -6.594220270646816 $109 -1.4095189282274356 $107 $232 forward 7 unknown #
point $-1 77.921079134495074 24.128697429150353 5.4113885276645615 #
point $-1 77.921079134495074 35.343310236778464 5.4113885276645615 #
plane-surface $-1 77.921079134495074 0 0 -1 0 0 0 0 1 forward_v I I I I #
coedge $-1 $117 $115 $119 $187 reversed $61 $-1 #
edge $-1 $130 -10.596089870083942 $189 10.596089870083942 $129 $233 forward 7 unknown #
vertex $-1 $187 $234 #
straight-curve $-1 -77.921079134495074 -35.343310236778457 0 0 0 -1 I I #
edge $-1 $185 -35.343310236778457 $189 35.343310236778457 $183 $235 forward 7 unknown #
straight-curve $-1 0 -35.343310236778457 -10.596089870083942 -1 0 0 I I #
vertex $-1 $122 $236 #
straight-curve $-1 0 35.343310236778457 -10.596089870083942 1 0 0 I I #
point $-1 77.921079134495074 35.343310236778457 -10.596089870083942 #
point $-1 77.921079134495074 -35.343310236778457 -10.596089870083942 #
straight-curve $-1 -77.921079134495074 0 10.596089870083942 0 -1 0 I I #
point $-1 -77.921079134495074 35.343310236778457 10.596089870083942 #
point $-1 -77.921079134495074 -35.343310236778457 10.596089870083942 #
straight-curve $-1 77.921079134495074 -35.343310236778457 0 0 0 -1 I I #
straight-curve $-1 77.921079134495074 35.343310236778457 0 0 0 -1 I I #
plane-surface $-1 -77.921079134495074 0 0 1 0 0 0 0 -1 forward_v I I I I #
coedge $-1 $201 $210 $205 $237 forward $140 $-1 #
coedge $-1 $143 $142 $238 $239 forward $45 $-1 #
coedge $-1 $238 $199 $144 $202 reversed $140 $-1 #
edge $-1 $203 -77.921079134495074 $206 77.921079134495074 $201 $240 forward 7 unknown #
vertex $-1 $239 $241 #
straight-curve $-1 77.921079134495074 0 -10.596089870083942 0 -1 0 I I #
coedge $-1 $152 $146 $199 $237 reversed $153 $-1 #
vertex $-1 $147 $242 #
straight-curve $-1 -77.921079134495074 0 -10.596089870083942 0 1 0 I I #
point $-1 -77.921079134495074 -35.343310236778457 -10.596089870083942 #
point $-1 77.921079134495074 -35.343310236778457 -10.596089870083942 #
coedge $-1 $199 $238 $155 $211 reversed $140 $-1 #
edge $-1 $212 -77.921079134495074 $214 77.921079134495074 $210 $243 forward 7 unknown #
vertex $-1 $156 $244 #
straight-curve $-1 -77.921079134495074 -40.10864028649425 -4.7293220353405463 0 -1 0 I I #
vertex $-1 $157 $245 #
straight-curve $-1 77.921079134495074 -40.10864028649425 -4.7293220353405463 0 1 0 I I #
plane-surface $-1 77.921079134495074 0 0 -1 0 0 0 0 1 forward_v I I I I #
coedge $-1 $163 $169 $164 $219 forward $96 $-1 #
coedge $-1 $165 $164 $246 $247 reversed $53 $-1 #
edge $-1 $248 -10.596089870083942 $175 -5.4113885276645615 $164 $249 forward 7 unknown #
coedge $-1 $246 $167 $177 $229 forward $161 $-1 #
coedge $-1 $167 $246 $169 $224 forward $161 $-1 #
vertex $-1 $229 $250 #
straight-curve $-1 0 24.128697429150353 10.596089870083942 1 0 0 I I #
edge $-1 $248 -35.343310236778457 $171 -24.128697429150353 $169 $251 forward 7 unknown #
point $-1 -77.921079134495074 24.128697429150353 5.4113885276645615 #
point $-1 -77.921079134495074 24.128697429150353 10.596089870083942 #
straight-curve $-1 -77.921079134495074 14.868001916482203 5.4113885276645615 0 -1 0 I I #
point $-1 -77.921079134495074 35.343310236778464 5.4113885276645615 #
edge $-1 $222 24.128697429150353 $230 35.343310236778457 $177 $252 forward 7 unknown #
vertex $-1 $229 $253 #
straight-curve $-1 77.921079134495074 35.343310236778457 0 0 0 -1 I I #
straight-curve $-1 77.921079134495074 24.128697429150353 4.0018695994371258 0 0 -1 I I #
straight-curve $-1 -77.921079134495074 35.343310236778457 0 0 0 -1 I I #
point $-1 -77.921079134495074 -35.343310236778457 -10.596089870083942 #
straight-curve $-1 -77.921079134495074 0 -10.596089870083942 0 1 0 I I #
point $-1 -77.921079134495074 35.343310236778457 -10.596089870083942 #
edge $-1 $212 -2.9333839173716978 $206 2.9333839173716978 $205 $254 forward 7 unknown #
coedge $-1 $210 $201 $200 $239 reversed $140 $-1 #
edge $-1 $214 -2.9333839173716978 $203 2.9333839173716978 $200 $255 forward 7 unknown #
straight-curve $-1 0 -44.873970336210043 -10.596089870083942 -1 0 0 I I #
point $-1 77.921079134495074 -44.873970336210043 -10.596089870083942 #
point $-1 -77.921079134495074 -44.873970336210043 -10.596089870083942 #
straight-curve $-1 0 -44.873970336210043 -4.7293220353405463 1 0 0 I I #
point $-1 -77.921079134495074 -44.873970336210043 -4.7293220353405463 #
point $-1 77.921079134495074 -44.873970336210043 -4.7293220353405463 #
coedge $-1 $221 $220 $218 $247 forward $161 $-1 #
edge $-1 $230 -77.921079134495074 $248 77.921079134495074 $218 $256 forward 7 unknown #
vertex $-1 $247 $257 #
straight-curve $-1 -77.921079134495074 35.343310236778457 0 0 0 -1 I I #
point $-1 77.921079134495074 24.128697429150353 10.596089870083942 #
straight-curve $-1 -77.921079134495074 0 10.596089870083942 0 -1 0 I I #
straight-curve $-1 77.921079134495074 0 10.596089870083942 0 1 0 I I #
point $-1 77.921079134495074 35.343310236778457 10.596089870083942 #
straight-curve $-1 -77.921079134495074 -44.873970336210043 -7.6627059527122441 0 0 -1 I I #
straight-curve $-1 77.921079134495074 -44.873970336210043 -7.6627059527122441 0 0 -1 I I #
straight-curve $-1 0 35.343310236778457 10.596089870083942 -1 0 0 I I #
point $-1 -77.921079134495074 35.343310236778457 10.596089870083942 #
End-of-ACIS-data 