500 0 6 0           
7 Unknown 11 ACIS 5.0 NT 24 Fri Mar 26 17:33:09 1999 
-1 9.9999999999999995e-007 1e-010 
body $-1 $6 $-1 $7 #
body $-1 $8 $-1 $9 #
body $-1 $10 $-1 $11 #
body $-1 $12 $-1 $13 #
body $-1 $14 $-1 $15 #
body $-1 $16 $-1 $17 #
lump $-1 $-1 $18 $0 #
transform $-1 1 0 0 0 1 0 0 0 1 60.910061952574239 36.472611241580658 16.847503562435271 1 rotate no_reflect no_shear #
lump $-1 $-1 $19 $1 #
transform $-1 1 0 0 0 1 0 0 0 1 60.910061952574239 36.472611241580658 16.847503562435271 1 rotate no_reflect no_shear #
lump $-1 $-1 $20 $2 #
transform $-1 1 0 0 0 1 0 0 0 1 60.910061952574239 36.472611241580658 16.847503562435271 1 rotate no_reflect no_shear #
lump $-1 $-1 $21 $3 #
transform $-1 1 0 0 0 1 0 0 0 1 60.910061952574239 36.472611241580658 16.847503562435271 1 rotate no_reflect no_shear #
lump $-1 $-1 $22 $4 #
transform $-1 1 0 0 0 1 0 0 0 1 60.910061952574239 36.472611241580658 16.847503562435271 1 rotate no_reflect no_shear #
lump $-1 $-1 $23 $5 #
transform $-1 1 0 0 0 1 0 0 0 1 60.910061952574239 36.472611241580658 16.847503562435271 1 rotate no_reflect no_shear #
shell $-1 $-1 $-1 $24 $-1 $6 #
shell $-1 $-1 $-1 $25 $-1 $8 #
shell $-1 $-1 $-1 $26 $-1 $10 #
shell $-1 $-1 $-1 $27 $-1 $12 #
shell $-1 $-1 $-1 $28 $-1 $14 #
shell $-1 $-1 $-1 $29 $-1 $16 #
face $-1 $30 $31 $18 $-1 $32 reversed single #
face $-1 $33 $34 $19 $-1 $35 forward single #
face $-1 $36 $37 $20 $-1 $38 forward single #
face $-1 $39 $40 $21 $-1 $41 reversed single #
face $-1 $42 $43 $22 $-1 $44 forward single #
face $-1 $45 $46 $23 $-1 $47 forward single #
face $-1 $48 $49 $18 $-1 $50 forward single #
loop $-1 $-1 $51 $24 #
plane-surface $-1 0 36.472611241580658 0 0 -1 0 0 0 -1 forward_v I I I I #
face $-1 $52 $53 $19 $-1 $54 reversed single #
loop $-1 $-1 $55 $25 #
plane-surface $-1 0 -27.727493599843932 3.708313361655474 0 0 1 1 0 0 forward_v I I I I #
face $-1 $56 $57 $20 $-1 $58 reversed single #
loop $-1 $-1 $59 $26 #
plane-surface $-1 0 36.472611241580658 0 0 -1 0 0 0 -1 forward_v I I I I #
face $-1 $60 $61 $21 $-1 $62 reversed single #
loop $-1 $-1 $63 $27 #
plane-surface $-1 -129.03101162560662 -18.982375958107205 113.98180646799548 0 1 0 -0.55919291073839883 0 0.82903756765294845 forward_v I I I I #
face $-1 $64 $65 $22 $-1 $66 forward single #
loop $-1 $67 $68 $28 #
cone-surface $-1 -57.353233454109059 -16.124405281241913 13.885897991104997 0.55919291073839883 0 -0.82903756765294845 0.82903756765294845 0 0.55919291073839883 1 I I 0 1 1 forward I I I I #
face $-1 $69 $70 $23 $-1 $71 forward single #
loop $-1 $72 $73 $29 #
cone-surface $-1 -57.353233454109059 -11.83744926594397 13.885897991104997 0.55919291073839883 0 -0.82903756765294845 0.82903756765294845 0 0.55919291073839883 1 I I 0 1 1 forward I I I I #
face $-1 $74 $75 $18 $-1 $76 reversed single #
loop $-1 $-1 $77 $30 #
plane-surface $-1 0 0 16.847503562435271 0 0 1 1 0 0 forward_v I I I I #
coedge $-1 $78 $79 $80 $81 reversed $31 $-1 #
face $-1 $82 $83 $19 $-1 $84 reversed single #
loop $-1 $-1 $85 $33 #
plane-surface $-1 0 -27.727493599843932 -1.8932617691562363 0 0 1 1 0 0 forward_v I I I I #
coedge $-1 $86 $87 $88 $89 reversed $34 $-1 #
face $-1 $90 $91 $20 $-1 $92 reversed single #
loop $-1 $-1 $93 $36 #
plane-surface $-1 0 0 -16.847503562435271 0 0 1 1 0 0 forward_v I I I I #
coedge $-1 $94 $95 $96 $97 forward $37 $-1 #
face $-1 $98 $99 $21 $-1 $100 reversed single #
loop $-1 $-1 $101 $39 #
plane-surface $-1 -60.910061952574239 -13.98092727359294 12.988347254490392 -0.55919291073839883 0 0.82903756765294845 0.82903756765294845 0 0.55919291073839883 forward_v I I I I #
coedge $-1 $102 $103 $104 $105 reversed $40 $-1 #
face $-1 $-1 $106 $22 $-1 $107 forward single #
loop $-1 $108 $109 $42 #
cone-surface $-1 -56.377525702953875 -16.124405281241913 12.4393517899207 0.55919291073839883 0 -0.82903756765294845 0.41451878382647422 0 0.27959645536919941 1 I I -0.70710678118654746 0.70710678118654746 0.5 forward I I I I #
loop $-1 $-1 $110 $28 #
coedge $-1 $68 $68 $111 $112 reversed $43 $-1 #
face $-1 $-1 $113 $23 $-1 $114 forward single #
loop $-1 $115 $116 $45 #
cone-surface $-1 -56.377525702953875 -11.83744926594397 12.4393517899207 0.55919291073839883 0 -0.82903756765294845 0.41451878382647422 0 0.27959645536919941 1 I I -0.70710678118654746 0.70710678118654746 0.5 forward I I I I #
loop $-1 $-1 $117 $29 #
coedge $-1 $73 $73 $118 $119 reversed $46 $-1 #
face $-1 $120 $121 $18 $-1 $122 reversed single #
loop $-1 $-1 $123 $48 #
plane-surface $-1 0 0 -16.847503562435271 0 0 1 1 0 0 forward_v I I I I #
coedge $-1 $124 $125 $126 $127 forward $49 $-1 #
coedge $-1 $128 $51 $129 $130 reversed $31 $-1 #
coedge $-1 $51 $128 $131 $132 forward $31 $-1 #
coedge $-1 $123 $133 $51 $81 forward $75 $-1 #
edge $-1 $134 -60.910061952574239 $135 60.910061952574239 $51 $136 forward 7 unknown #
face $-1 $137 $138 $19 $-1 $139 reversed single #
loop $-1 $-1 $140 $52 #
plane-surface $-1 0 -18.982375958107205 0.90752579624961882 0 -1 0 0 0 -1 forward_v I I I I #
coedge $-1 $141 $142 $143 $144 reversed $53 $-1 #
coedge $-1 $145 $55 $146 $147 forward $34 $-1 #
coedge $-1 $55 $145 $148 $149 reversed $34 $-1 #
coedge $-1 $150 $151 $55 $89 forward $152 $-1 #
edge $-1 $153 5.1186291581852394 $154 22.608864441658692 $88 $155 forward 7 unknown #
face $-1 $156 $157 $20 $-1 $158 reversed single #
loop $-1 $-1 $159 $56 #
plane-surface $-1 -33.994057954913515 45.381124011254208 0 1 0 0 0 0 -1 forward_v I I I I #
coedge $-1 $160 $161 $95 $162 forward $57 $-1 #
coedge $-1 $163 $59 $164 $165 reversed $37 $-1 #
coedge $-1 $59 $163 $93 $162 reversed $37 $-1 #
coedge $-1 $166 $167 $59 $97 reversed $168 $-1 #
edge $-1 $169 -16.847503562435271 $170 16.847503562435271 $96 $171 forward 7 unknown #
face $-1 $172 $173 $21 $-1 $174 reversed single #
loop $-1 $-1 $175 $60 #
plane-surface $-1 -129.03101162560662 -8.9794785890786724 113.98180646799548 0 -1 0 0.55919291073839883 0 -0.82903756765294845 forward_v I I I I #
coedge $-1 $176 $177 $178 $179 reversed $61 $-1 #
coedge $-1 $103 $63 $180 $181 reversed $40 $-1 #
coedge $-1 $63 $102 $176 $182 reversed $40 $-1 #
coedge $-1 $178 $183 $63 $105 forward $184 $-1 #
edge $-1 $185 3.605443860229073 $186 9.3268782655874247 $104 $187 forward 7 unknown #
loop $-1 $-1 $111 $64 #
plane-surface $-1 -60.910061952574239 -13.98092727359294 12.988347254490392 -0.55919291073839883 0 0.82903756765294845 0.82903756765294845 0 0.55919291073839883 forward_v I I I I #
loop $-1 $-1 $188 $42 #
coedge $-1 $109 $109 $110 $189 reversed $65 $-1 #
coedge $-1 $110 $110 $109 $189 forward $67 $-1 #
coedge $-1 $111 $111 $68 $112 forward $106 $-1 #
edge $-1 $190 0 $190 6.2831853071796004 $111 $191 forward 7 unknown #
loop $-1 $-1 $118 $69 #
plane-surface $-1 -60.910061952574239 -13.98092727359294 12.988347254490392 -0.55919291073839883 0 0.82903756765294845 0.82903756765294845 0 0.55919291073839883 forward_v I I I I #
loop $-1 $-1 $192 $45 #
coedge $-1 $116 $116 $117 $193 reversed $70 $-1 #
coedge $-1 $117 $117 $116 $193 forward $72 $-1 #
coedge $-1 $118 $118 $73 $119 forward $113 $-1 #
edge $-1 $194 0 $194 6.2831853071796004 $118 $195 forward 7 unknown #
face $-1 $196 $197 $18 $-1 $198 reversed single #
loop $-1 $-1 $199 $74 #
plane-surface $-1 0 -36.472611241580658 0 0 1 0 0 0 1 forward_v I I I I #
coedge $-1 $200 $80 $201 $202 forward $75 $-1 #
coedge $-1 $203 $77 $128 $204 forward $49 $-1 #
coedge $-1 $77 $203 $205 $206 forward $49 $-1 #
coedge $-1 $207 $131 $77 $127 reversed $208 $-1 #
edge $-1 $209 -36.472611241580658 $210 36.472611241580658 $126 $211 forward 7 unknown #
coedge $-1 $79 $78 $124 $204 reversed $31 $-1 #
coedge $-1 $212 $213 $78 $130 forward $197 $-1 #
edge $-1 $214 -16.847503562435271 $134 16.847503562435271 $78 $215 forward 7 unknown #
coedge $-1 $126 $201 $79 $132 reversed $208 $-1 #
edge $-1 $210 -16.847503562435271 $135 16.847503562435271 $131 $216 forward 7 unknown #
coedge $-1 $80 $200 $212 $217 forward $75 $-1 #
vertex $-1 $81 $218 #
vertex $-1 $202 $219 #
straight-curve $-1 0 36.472611241580658 -16.847503562435271 1 0 0 I I #
face $-1 $220 $221 $19 $-1 $222 reversed single #
loop $-1 $-1 $223 $82 #
plane-surface $-1 -60.910061952574239 0 0 1 0 0 0 0 -1 forward_v I I I I #
coedge $-1 $224 $146 $151 $225 reversed $83 $-1 #
coedge $-1 $226 $85 $227 $228 reversed $53 $-1 #
coedge $-1 $85 $226 $224 $229 forward $53 $-1 #
coedge $-1 $151 $150 $85 $144 forward $152 $-1 #
edge $-1 $230 -22.608864441658692 $231 -5.1186291581852394 $143 $232 forward 7 unknown #
coedge $-1 $87 $86 $223 $233 reversed $34 $-1 #
coedge $-1 $140 $234 $86 $147 reversed $83 $-1 #
edge $-1 $153 -60.910061952574239 $235 60.910061952574239 $146 $236 forward 7 unknown #
coedge $-1 $237 $238 $87 $149 forward $221 $-1 #
edge $-1 $154 -60.910061952574239 $239 60.910061952574239 $148 $240 forward 7 unknown #
coedge $-1 $143 $88 $238 $241 forward $152 $-1 #
coedge $-1 $88 $143 $140 $225 forward $152 $-1 #
loop $-1 $-1 $88 $220 #
vertex $-1 $89 $242 #
vertex $-1 $241 $243 #
straight-curve $-1 60.910061952574239 -13.863746799921966 3.708313361655474 0 -1 0 I I #
face $-1 $244 $168 $20 $-1 $245 reversed single #
loop $-1 $-1 $246 $90 #
plane-surface $-1 -30.604556391308606 54.289636780927765 0 0 -1 0 0 0 -1 forward_v I I I I #
coedge $-1 $247 $248 $249 $250 forward $91 $-1 #
coedge $-1 $251 $93 $247 $252 forward $57 $-1 #
coedge $-1 $93 $251 $166 $253 forward $57 $-1 #
edge $-1 $169 27.215054827703696 $254 33.994057954913515 $93 $255 forward 7 unknown #
coedge $-1 $95 $94 $256 $257 forward $37 $-1 #
coedge $-1 $258 $259 $94 $165 forward $260 $-1 #
edge $-1 $261 -33.994057954913515 $170 -27.215054827703696 $164 $262 forward 7 unknown #
coedge $-1 $263 $96 $161 $253 reversed $168 $-1 #
coedge $-1 $96 $263 $258 $264 reversed $168 $-1 #
loop $-1 $-1 $96 $156 #
vertex $-1 $162 $265 #
vertex $-1 $264 $266 #
straight-curve $-1 -27.215054827703696 36.472611241580658 0 0 0 1 I I #
face $-1 $-1 $184 $21 $-1 $267 forward single #
loop $-1 $-1 $268 $98 #
plane-surface $-1 -60.910061952574239 0 0 1 0 0 0 0 -1 forward_v I I I I #
coedge $-1 $269 $270 $271 $272 reversed $99 $-1 #
coedge $-1 $273 $101 $103 $182 forward $61 $-1 #
coedge $-1 $101 $273 $269 $274 forward $61 $-1 #
coedge $-1 $271 $104 $101 $179 forward $184 $-1 #
edge $-1 $186 -11.991912321310735 $275 -1.9890149522822025 $178 $276 forward 7 unknown #
coedge $-1 $277 $278 $102 $181 forward $173 $-1 #
edge $-1 $279 -44.002555979507349 $185 -40.14339967156247 $180 $280 forward 7 unknown #
edge $-1 $186 -6.9012969117383314 $279 0 $103 $281 forward 7 unknown #
coedge $-1 $104 $271 $277 $282 forward $184 $-1 #
loop $-1 $-1 $271 $172 #
vertex $-1 $181 $283 #
vertex $-1 $105 $284 #
straight-curve $-1 -64.515505812803312 -18.982375958107205 16.847503562435271 1 0 0 I I #
coedge $-1 $188 $188 $-1 $285 reversed $108 $-1 #
edge $-1 $286 0 $286 6.2831853071796004 $109 $287 forward 7 unknown #
vertex $-1 $112 $288 #
ellipse-curve $-1 -58.049344749895056 -16.124405281241913 14.917925408462839 -0.55919291073839883 0 0.82903756765294845 0.82903756765294845 0 0.55919291073839883 1 I I #
coedge $-1 $192 $192 $-1 $289 reversed $115 $-1 #
edge $-1 $290 0 $290 6.2831853071796004 $116 $291 forward 7 unknown #
vertex $-1 $119 $292 #
ellipse-curve $-1 -58.049344749895056 -11.83744926594397 14.917925408462839 -0.55919291073839883 0 0.82903756765294845 0.82903756765294845 0 0.55919291073839883 1 I I #
face $-1 $-1 $208 $18 $-1 $293 reversed single #
loop $-1 $-1 $129 $120 #
plane-surface $-1 -60.910061952574239 0 0 1 0 0 0 0 -1 forward_v I I I I #
coedge $-1 $294 $205 $295 $296 forward $121 $-1 #
coedge $-1 $133 $123 $294 $297 forward $75 $-1 #
coedge $-1 $131 $207 $123 $202 reversed $208 $-1 #
edge $-1 $135 -36.472611241580658 $298 36.472611241580658 $201 $299 forward 7 unknown #
coedge $-1 $125 $124 $213 $300 forward $49 $-1 #
edge $-1 $210 -60.910061952574239 $214 60.910061952574239 $128 $301 forward 7 unknown #
coedge $-1 $199 $302 $125 $206 reversed $121 $-1 #
edge $-1 $303 -60.910061952574239 $209 60.910061952574239 $205 $304 forward 7 unknown #
coedge $-1 $201 $126 $302 $305 forward $208 $-1 #
loop $-1 $-1 $207 $196 #
vertex $-1 $127 $306 #
vertex $-1 $127 $307 #
straight-curve $-1 60.910061952574239 0 16.847503562435271 0 1 0 I I #
coedge $-1 $295 $129 $133 $217 reversed $197 $-1 #
coedge $-1 $129 $295 $203 $300 reversed $197 $-1 #
vertex $-1 $204 $308 #
straight-curve $-1 -60.910061952574239 36.472611241580658 0 0 0 -1 I I #
straight-curve $-1 60.910061952574239 36.472611241580658 0 0 0 -1 I I #
edge $-1 $309 -36.472611241580658 $134 36.472611241580658 $212 $310 forward 7 unknown #
point $-1 -60.910061952574239 36.472611241580658 -16.847503562435271 #
point $-1 60.910061952574239 36.472611241580658 -16.847503562435271 #
face $-1 $-1 $152 $19 $-1 $311 reversed single #
loop $-1 $-1 $148 $137 #
plane-surface $-1 0 -36.472611241580658 0 0 1 0 0 0 1 forward_v I I I I #
coedge $-1 $312 $313 $145 $233 forward $138 $-1 #
coedge $-1 $234 $140 $142 $229 reversed $83 $-1 #
edge $-1 $231 -2.3470246672810458 $153 3.2545504635306646 $151 $314 forward 7 unknown #
coedge $-1 $142 $141 $315 $316 reversed $53 $-1 #
coedge $-1 $238 $237 $141 $228 forward $221 $-1 #
edge $-1 $317 -60.910061952574239 $230 60.910061952574239 $227 $318 forward 7 unknown #
edge $-1 $319 -60.910061952574239 $231 60.910061952574239 $224 $320 forward 7 unknown #
vertex $-1 $228 $321 #
vertex $-1 $144 $322 #
straight-curve $-1 60.910061952574239 -13.863746799921966 -1.8932617691562363 0 1 0 I I #
edge $-1 $239 -22.608864441658692 $235 -5.1186291581852394 $223 $323 forward 7 unknown #
coedge $-1 $146 $224 $312 $324 reversed $83 $-1 #
vertex $-1 $233 $325 #
straight-curve $-1 0 -18.982375958107205 3.708313361655474 -1 0 0 I I #
coedge $-1 $227 $148 $313 $326 forward $221 $-1 #
coedge $-1 $148 $227 $150 $241 reversed $221 $-1 #
vertex $-1 $326 $327 #
straight-curve $-1 0 -36.472611241580658 3.708313361655474 -1 0 0 I I #
edge $-1 $154 -3.708313361655474 $230 1.8932617691562363 $150 $328 forward 7 unknown #
point $-1 60.910061952574239 -18.982375958107205 3.708313361655474 #
point $-1 60.910061952574239 -36.472611241580658 3.708313361655474 #
face $-1 $-1 $260 $20 $-1 $329 forward single #
plane-surface $-1 -27.215054827703696 45.381124011254208 0 -1 0 0 0 0 1 forward_v I I I I #
coedge $-1 $330 $331 $263 $332 forward $157 $-1 #
coedge $-1 $256 $159 $160 $252 reversed $91 $-1 #
coedge $-1 $159 $256 $259 $333 reversed $91 $-1 #
coedge $-1 $331 $330 $159 $250 reversed $157 $-1 #
edge $-1 $334 -16.847503562435271 $335 16.847503562435271 $249 $336 forward 7 unknown #
coedge $-1 $161 $160 $330 $337 forward $57 $-1 #
edge $-1 $254 -8.9085127696735569 $335 8.9085127696735569 $247 $338 forward 7 unknown #
edge $-1 $339 -8.9085127696735569 $169 8.9085127696735569 $166 $340 forward 7 unknown #
vertex $-1 $252 $341 #
straight-curve $-1 0 36.472611241580658 -16.847503562435271 -1 0 0 I I #
coedge $-1 $248 $247 $163 $257 reversed $91 $-1 #
edge $-1 $261 -16.847503562435271 $254 16.847503562435271 $256 $342 forward 7 unknown #
coedge $-1 $343 $164 $167 $264 forward $260 $-1 #
coedge $-1 $164 $343 $248 $333 forward $260 $-1 #
loop $-1 $-1 $164 $244 #
vertex $-1 $165 $344 #
straight-curve $-1 0 36.472611241580658 16.847503562435271 1 0 0 I I #
coedge $-1 $167 $166 $246 $332 reversed $168 $-1 #
edge $-1 $170 -8.9085127696735569 $345 8.9085127696735569 $167 $346 forward 7 unknown #
point $-1 -27.215054827703696 36.472611241580651 -16.847503562435271 #
point $-1 -27.215054827703696 36.472611241580651 16.847503562435271 #
plane-surface $-1 0 0 16.847503562435271 0 0 1 1 0 0 forward_v I I I I #
coedge $-1 $278 $277 $270 $347 forward $173 $-1 #
coedge $-1 $270 $175 $177 $274 reversed $99 $-1 #
coedge $-1 $175 $269 $268 $347 reversed $99 $-1 #
coedge $-1 $183 $178 $175 $272 forward $184 $-1 #
edge $-1 $275 -9.3268782655874247 $348 -3.605443860229073 $271 $349 forward 7 unknown #
coedge $-1 $177 $176 $278 $350 reversed $61 $-1 #
edge $-1 $351 0 $275 6.9012969117383314 $269 $352 forward 7 unknown #
vertex $-1 $179 $353 #
straight-curve $-1 -55.188627547215887 -6.9904636367964699 16.847503562435271 0 1 0 I I #
coedge $-1 $268 $180 $183 $282 reversed $173 $-1 #
coedge $-1 $180 $268 $273 $350 forward $173 $-1 #
vertex $-1 $181 $354 #
straight-curve $-1 -60.910061952574239 -18.982375958107205 56.990903233997741 0 0 1 I I #
straight-curve $-1 -60.910061952574239 -18.982375958107205 12.988347254490392 -0.82903756765294845 0 -0.55919291073839883 I I #
edge $-1 $348 8.9794785890786724 $185 18.982375958107205 $277 $355 forward 7 unknown #
point $-1 -60.910061952574239 -18.982375958107205 16.847503562435271 #
point $-1 -55.188627547215887 -18.982375958107205 16.847503562435271 #
edge $-1 $356 1 $356 0 $188 $-1 forward 7 unknown #
vertex $-1 $189 $357 #
ellipse-curve $-1 -56.657122158323077 -16.124405281241913 12.853870573747175 -0.55919291073839883 0 0.82903756765294845 0.82903756765294845 0 0.55919291073839883 1 I I #
point $-1 -57.220307182242088 -16.124405281241913 15.477118319201217 #
edge $-1 $358 1 $358 0 $192 $-1 forward 7 unknown #
vertex $-1 $193 $359 #
ellipse-curve $-1 -56.657122158323077 -11.83744926594397 12.853870573747175 -0.55919291073839883 0 0.82903756765294845 0.82903756765294845 0 0.55919291073839883 1 I I #
point $-1 -57.220307182242088 -11.83744926594397 15.477118319201217 #
plane-surface $-1 60.910061952574239 0 0 -1 0 0 0 0 1 forward_v I I I I #
coedge $-1 $302 $199 $200 $297 reversed $121 $-1 #
coedge $-1 $213 $212 $199 $296 reversed $197 $-1 #
edge $-1 $303 -16.847503562435271 $309 16.847503562435271 $295 $360 forward 7 unknown #
edge $-1 $298 -60.910061952574239 $309 60.910061952574239 $294 $361 forward 7 unknown #
vertex $-1 $305 $362 #
straight-curve $-1 60.910061952574239 0 -16.847503562435271 0 -1 0 I I #
edge $-1 $214 -36.472611241580658 $303 36.472611241580658 $213 $363 forward 7 unknown #
straight-curve $-1 0 36.472611241580658 16.847503562435271 -1 0 0 I I #
coedge $-1 $205 $294 $207 $305 reversed $121 $-1 #
vertex $-1 $300 $364 #
straight-curve $-1 0 -36.472611241580658 16.847503562435271 1 0 0 I I #
edge $-1 $209 -16.847503562435271 $298 16.847503562435271 $207 $365 forward 7 unknown #
point $-1 60.910061952574239 -36.472611241580658 16.847503562435271 #
point $-1 60.910061952574239 36.472611241580658 16.847503562435271 #
point $-1 -60.910061952574239 36.472611241580658 16.847503562435271 #
vertex $-1 $217 $366 #
straight-curve $-1 -60.910061952574239 0 -16.847503562435271 0 1 0 I I #
plane-surface $-1 60.910061952574239 0 0 -1 0 0 0 0 1 forward_v I I I I #
coedge $-1 $315 $223 $234 $324 forward $138 $-1 #
coedge $-1 $223 $315 $237 $326 reversed $138 $-1 #
straight-curve $-1 60.910061952574239 -18.982375958107205 0.45376289812480941 0 0 1 I I #
coedge $-1 $313 $312 $226 $316 forward $138 $-1 #
edge $-1 $319 5.1186291581852394 $317 22.608864441658692 $315 $367 forward 7 unknown #
vertex $-1 $228 $368 #
straight-curve $-1 0 -36.472611241580658 -1.8932617691562363 1 0 0 I I #
vertex $-1 $316 $369 #
straight-curve $-1 0 -18.982375958107205 -1.8932617691562363 1 0 0 I I #
point $-1 60.910061952574239 -36.472611241580658 -1.8932617691562363 #
point $-1 60.910061952574239 -18.982375958107205 -1.8932617691562363 #
straight-curve $-1 -60.910061952574239 -13.863746799921966 3.708313361655474 0 1 0 I I #
edge $-1 $235 -3.2545504635306646 $319 2.3470246672810458 $312 $370 forward 7 unknown #
point $-1 -60.910061952574239 -18.982375958107205 3.708313361655474 #
edge $-1 $239 -3.708313361655474 $317 1.8932617691562363 $313 $371 forward 7 unknown #
point $-1 -60.910061952574239 -36.472611241580658 3.708313361655474 #
straight-curve $-1 60.910061952574239 -36.472611241580658 0 0 0 -1 I I #
plane-surface $-1 0 0 16.847503562435271 0 0 1 1 0 0 forward_v I I I I #
coedge $-1 $249 $246 $251 $337 reversed $157 $-1 #
coedge $-1 $246 $249 $343 $372 reversed $157 $-1 #
edge $-1 $345 -16.847503562435271 $339 16.847503562435271 $263 $373 forward 7 unknown #
edge $-1 $334 -8.9085127696735569 $261 8.9085127696735569 $248 $374 forward 7 unknown #
vertex $-1 $372 $375 #
vertex $-1 $337 $376 #
straight-curve $-1 -33.994057954913515 54.289636780927765 0 0 0 -1 I I #
edge $-1 $335 -3.3895015636049095 $339 3.3895015636049095 $330 $377 forward 7 unknown #
straight-curve $-1 -33.994057954913515 45.381124011254208 -16.847503562435271 0 1 0 I I #
vertex $-1 $253 $378 #
straight-curve $-1 -27.215054827703696 45.381124011254208 -16.847503562435271 0 -1 0 I I #
point $-1 -33.994057954913515 36.472611241580651 -16.847503562435271 #
straight-curve $-1 -33.994057954913515 36.472611241580658 0 0 0 -1 I I #
coedge $-1 $259 $258 $331 $372 forward $260 $-1 #
point $-1 -33.994057954913515 36.472611241580651 16.847503562435271 #
vertex $-1 $264 $379 #
straight-curve $-1 -27.215054827703696 45.381124011254208 16.847503562435271 0 1 0 I I #
edge $-1 $348 40.14339967156247 $351 44.002555979507349 $268 $380 forward 7 unknown #
vertex $-1 $282 $381 #
straight-curve $-1 -64.515505812803312 -8.9794785890786724 16.847503562435271 -1 0 0 I I #
edge $-1 $351 1.9890149522822025 $279 11.991912321310735 $278 $382 forward 7 unknown #
vertex $-1 $350 $383 #
straight-curve $-1 -60.910061952574239 -8.9794785890786724 12.988347254490392 0.82903756765294845 0 0.55919291073839883 I I #
point $-1 -55.188627547215887 -8.9794785890786724 16.847503562435271 #
point $-1 -60.910061952574239 -18.982375958107205 12.988347254490392 #
straight-curve $-1 -60.910061952574239 0 16.847503562435271 0 -1 0 I I #
vertex $-1 $285 $384 #
point $-1 -55.828084590670123 -16.124405281241913 13.413063484485573 #
vertex $-1 $289 $385 #
point $-1 -55.828084590670123 -11.83744926594397 13.413063484485573 #
straight-curve $-1 -60.910061952574239 -36.472611241580658 0 0 0 -1 I I #
straight-curve $-1 0 -36.472611241580658 -16.847503562435271 -1 0 0 I I #
point $-1 60.910061952574239 -36.472611241580658 -16.847503562435271 #
straight-curve $-1 -60.910061952574239 0 16.847503562435271 0 -1 0 I I #
point $-1 -60.910061952574239 -36.472611241580658 16.847503562435271 #
straight-curve $-1 60.910061952574239 -36.472611241580658 0 0 0 -1 I I #
point $-1 -60.910061952574239 -36.472611241580658 -16.847503562435271 #
straight-curve $-1 -60.910061952574239 -13.863746799921966 -1.8932617691562363 0 -1 0 I I #
point $-1 -60.910061952574239 -36.472611241580658 -1.8932617691562363 #
point $-1 -60.910061952574239 -18.982375958107205 -1.8932617691562363 #
straight-curve $-1 -60.910061952574239 -18.982375958107205 0.45376289812480941 0 0 -1 I I #
straight-curve $-1 -60.910061952574239 -36.472611241580658 0 0 0 -1 I I #
edge $-1 $345 -3.3895015636049095 $334 3.3895015636049095 $331 $386 forward 7 unknown #
straight-curve $-1 -27.215054827703696 54.289636780927765 0 0 0 -1 I I #
straight-curve $-1 -33.994057954913515 45.381124011254208 16.847503562435271 0 -1 0 I I #
point $-1 -33.994057954913515 54.289636780927765 16.847503562435271 #
point $-1 -33.994057954913515 54.289636780927765 -16.847503562435271 #
straight-curve $-1 -30.604556391308606 54.289636780927765 -16.847503562435271 1 0 0 I I #
point $-1 -27.215054827703696 54.289636780927765 -16.847503562435271 #
point $-1 -27.215054827703696 54.289636780927765 16.847503562435271 #
straight-curve $-1 -60.910061952574239 -8.9794785890786724 56.990903233997741 0 0 -1 I I #
point $-1 -60.910061952574239 -8.9794785890786724 16.847503562435271 #
straight-curve $-1 -60.910061952574239 -6.9904636367964699 12.988347254490392 0 -1 0 I I #
point $-1 -60.910061952574239 -8.9794785890786724 12.988347254490392 #
point $-1 -56.097929247584673 -16.124405281241913 12.024833006094225 #
point $-1 -56.097929247584673 -11.83744926594397 12.024833006094225 #
straight-curve $-1 -30.604556391308606 54.289636780927765 16.847503562435271 -1 0 0 I I #
End-of-ACIS-data 