500 0 4 0           
7 Unknown 11 ACIS 5.0 NT 24 Fri Mar 26 01:25:53 1999 
-1 9.9999999999999995e-007 1e-010 
body $-1 $4 $-1 $5 #
body $-1 $6 $-1 $7 #
body $-1 $8 $-1 $9 #
body $-1 $10 $-1 $11 #
lump $-1 $-1 $12 $0 #
transform $-1 1 0 0 0 1 0 0 0 1 67.964720603045748 28.744635991491101 7.6656164032241803 1 rotate no_reflect no_shear #
lump $-1 $-1 $13 $1 #
transform $-1 1 0 0 0 1 0 0 0 1 67.964720603045748 28.744635991491101 7.6656164032241803 1 rotate no_reflect no_shear #
lump $-1 $-1 $14 $2 #
transform $-1 1 0 0 0 1 0 0 0 1 67.964720603045748 28.744635991491101 7.6656164032241803 1 rotate no_reflect no_shear #
lump $-1 $-1 $15 $3 #
transform $-1 1 0 0 0 1 0 0 0 1 67.964720603045748 28.744635991491101 7.6656164032241803 1 rotate no_reflect no_shear #
shell $-1 $-1 $-1 $16 $-1 $4 #
shell $-1 $-1 $-1 $17 $-1 $6 #
shell $-1 $-1 $-1 $18 $-1 $8 #
shell $-1 $-1 $-1 $19 $-1 $10 #
face $-1 $20 $21 $12 $-1 $22 forward single #
face $-1 $23 $24 $13 $-1 $25 reversed single #
face $-1 $26 $27 $14 $-1 $28 forward single #
face $-1 $29 $30 $15 $-1 $31 reversed single #
face $-1 $32 $33 $12 $-1 $34 reversed single #
loop $-1 $-1 $35 $16 #
plane-surface $-1 0 0 7.6656164032241803 0 0 1 1 0 0 forward_v I I I I #
face $-1 $36 $37 $13 $-1 $38 reversed single #
loop $-1 $-1 $39 $17 #
plane-surface $-1 -62.692118671487613 -37.417733407710465 0 0 1 0 0 0 1 forward_v I I I I #
face $-1 $40 $41 $14 $-1 $42 forward single #
loop $-1 $-1 $43 $18 #
plane-surface $-1 6.4926511134124922 74.534670357971891 144.31181956736611 1 0 0 0 -0.6560590369687036 -0.75470957328743171 forward_v I I I I #
face $-1 $44 $45 $15 $-1 $46 reversed single #
loop $-1 $47 $48 $19 #
cone-surface $-1 19.911986203152935 25.894356866103049 4.9780514523541548 0 -0.6560590369687036 -0.75470957328743171 1 0 0 1 I I 0 1 1 forward I I I I #
face $-1 $49 $50 $12 $-1 $51 reversed single #
loop $-1 $-1 $52 $20 #
plane-surface $-1 0 0 -7.6656164032241803 0 0 1 1 0 0 forward_v I I I I #
coedge $-1 $53 $54 $55 $56 forward $21 $-1 #
face $-1 $57 $58 $13 $-1 $59 reversed single #
loop $-1 $-1 $60 $23 #
plane-surface $-1 -64.388043015855203 -33.081184699600783 0 1 0 0 0 0 -1 forward_v I I I I #
coedge $-1 $61 $62 $63 $64 forward $24 $-1 #
face $-1 $65 $66 $14 $-1 $67 forward single #
loop $-1 $-1 $68 $26 #
plane-surface $-1 19.911986203152935 -14.643067935390519 41.724568997517764 0 0.6560590369687036 0.75470957328743171 1 0 0 forward_v I I I I #
coedge $-1 $69 $70 $71 $72 reversed $27 $-1 #
face $-1 $73 $74 $15 $-1 $75 forward single #
loop $-1 $76 $77 $29 #
cone-surface $-1 19.911986203152935 24.819729080168948 3.7418336242872074 0 -0.6560590369687036 -0.75470957328743171 0.5 0 0 1 I I -0.70710678118654746 0.70710678118654746 0.5 forward I I I I #
loop $-1 $-1 $78 $19 #
coedge $-1 $48 $48 $79 $80 reversed $30 $-1 #
face $-1 $81 $82 $12 $-1 $83 reversed single #
loop $-1 $-1 $84 $32 #
plane-surface $-1 0 -28.744635991491101 0 0 1 0 0 0 1 forward_v I I I I #
coedge $-1 $85 $86 $87 $88 forward $33 $-1 #
coedge $-1 $89 $35 $90 $91 forward $21 $-1 #
coedge $-1 $35 $89 $92 $93 forward $21 $-1 #
coedge $-1 $94 $95 $35 $56 reversed $96 $-1 #
edge $-1 $97 -28.744635991491101 $98 28.744635991491101 $55 $99 forward 7 unknown #
face $-1 $100 $101 $13 $-1 $102 reversed single #
loop $-1 $-1 $103 $36 #
plane-surface $-1 -60.996194327120016 -33.081184699600783 0 -1 0 0 0 0 1 forward_v I I I I #
coedge $-1 $104 $105 $106 $107 reversed $37 $-1 #
coedge $-1 $108 $39 $109 $110 reversed $24 $-1 #
coedge $-1 $39 $108 $111 $112 reversed $24 $-1 #
coedge $-1 $105 $104 $39 $64 reversed $37 $-1 #
edge $-1 $113 -7.6656164032241803 $114 7.6656164032241803 $63 $115 forward 7 unknown #
face $-1 $116 $117 $14 $-1 $118 forward single #
loop $-1 $-1 $119 $40 #
plane-surface $-1 33.331321292893378 74.534670357971891 144.31181956736611 -1 0 0 0 0.6560590369687036 0.75470957328743171 forward_v I I I I #
coedge $-1 $120 $121 $122 $123 reversed $41 $-1 #
coedge $-1 $70 $43 $121 $124 forward $27 $-1 #
coedge $-1 $43 $69 $125 $126 reversed $27 $-1 #
coedge $-1 $127 $122 $43 $72 forward $117 $-1 #
edge $-1 $128 -12.730060903371481 $129 -8.5226991874948439 $71 $130 forward 7 unknown #
face $-1 $131 $132 $15 $-1 $133 forward single #
loop $-1 $-1 $134 $44 #
plane-surface $-1 6.4926511134124922 74.534670357971891 144.31181956736611 1 0 0 0 -0.6560590369687036 -0.75470957328743171 forward_v I I I I #
loop $-1 $-1 $135 $29 #
coedge $-1 $77 $77 $78 $136 forward $45 $-1 #
coedge $-1 $78 $78 $77 $136 reversed $47 $-1 #
coedge $-1 $79 $79 $48 $80 forward $132 $-1 #
edge $-1 $137 -1.4019084392022037e-015 $137 6.2831853071795987 $79 $138 forward 7 unknown #
face $-1 $139 $140 $12 $-1 $141 reversed single #
loop $-1 $-1 $142 $49 #
plane-surface $-1 -67.964720603045748 0 0 1 0 0 0 0 -1 forward_v I I I I #
coedge $-1 $143 $92 $144 $145 forward $50 $-1 #
coedge $-1 $146 $52 $143 $147 forward $33 $-1 #
coedge $-1 $52 $146 $148 $149 forward $33 $-1 #
coedge $-1 $95 $94 $52 $88 reversed $96 $-1 #
edge $-1 $150 -28.744635991491101 $151 28.744635991491101 $87 $152 forward 7 unknown #
coedge $-1 $54 $53 $153 $154 forward $21 $-1 #
coedge $-1 $155 $156 $53 $91 reversed $140 $-1 #
edge $-1 $98 -67.964720603045748 $157 67.964720603045748 $90 $158 forward 7 unknown #
coedge $-1 $84 $159 $54 $93 reversed $50 $-1 #
edge $-1 $160 -67.964720603045748 $97 67.964720603045748 $92 $161 forward 7 unknown #
coedge $-1 $87 $55 $159 $162 forward $96 $-1 #
coedge $-1 $55 $87 $155 $163 reversed $96 $-1 #
loop $-1 $-1 $94 $139 #
vertex $-1 $56 $164 #
vertex $-1 $56 $165 #
straight-curve $-1 67.964720603045748 0 7.6656164032241803 0 1 0 I I #
face $-1 $166 $167 $13 $-1 $102 reversed single #
loop $-1 $-1 $106 $57 #
plane-surface $-1 0 -28.744635991491101 0 0 1 0 0 0 1 forward_v I I I I #
coedge $-1 $168 $169 $108 $170 forward $58 $-1 #
coedge $-1 $63 $60 $171 $172 reversed $37 $-1 #
coedge $-1 $60 $63 $173 $174 reversed $37 $-1 #
coedge $-1 $175 $176 $60 $107 forward $101 $-1 #
edge $-1 $177 -7.6656164032241803 $178 7.6656164032241803 $106 $179 forward 7 unknown #
coedge $-1 $62 $61 $103 $170 reversed $24 $-1 #
coedge $-1 $171 $180 $61 $110 forward $181 $-1 #
edge $-1 $182 -1.6959243443675973 $114 1.6959243443675902 $61 $183 forward 7 unknown #
coedge $-1 $184 $173 $62 $112 forward $185 $-1 #
edge $-1 $113 -1.6959243443675902 $186 1.6959243443675973 $62 $187 forward 7 unknown #
vertex $-1 $174 $188 #
vertex $-1 $172 $189 #
straight-curve $-1 -64.388043015855203 -37.417733407710465 0 0 0 -1 I I #
face $-1 $190 $191 $14 $-1 $192 reversed single #
loop $-1 $-1 $193 $65 #
plane-surface $-1 0 0 7.6656164032241803 0 0 1 1 0 0 forward_v I I I I #
coedge $-1 $194 $195 $193 $196 reversed $66 $-1 #
coedge $-1 $197 $68 $195 $198 reversed $41 $-1 #
coedge $-1 $68 $197 $69 $124 reversed $41 $-1 #
coedge $-1 $71 $193 $68 $123 forward $117 $-1 #
edge $-1 $199 -23.37532819131691 $128 3.4633419881639753 $122 $200 forward 7 unknown #
edge $-1 $128 51.914462990498102 $201 57.489271982982231 $69 $202 forward 7 unknown #
coedge $-1 $203 $204 $70 $126 forward $205 $-1 #
edge $-1 $129 64.49029338045888 $201 68.147697199352493 $125 $206 forward 7 unknown #
coedge $-1 $207 $71 $204 $208 forward $117 $-1 #
vertex $-1 $123 $209 #
vertex $-1 $208 $210 #
straight-curve $-1 6.4926511134124922 37.267335178985945 7.6656164032241776 0 1 0 I I #
face $-1 $211 $212 $15 $-1 $213 forward single #
loop $-1 $214 $79 $73 #
plane-surface $-1 19.911986203152935 -14.643067935390519 41.724568997517764 0 0.6560590369687036 0.75470957328743171 1 0 0 forward_v I I I I #
coedge $-1 $215 $216 $217 $218 reversed $74 $-1 #
coedge $-1 $135 $135 $-1 $219 forward $76 $-1 #
edge $-1 $220 0 $220 6.2831853071796004 $77 $221 forward 7 unknown #
vertex $-1 $80 $222 #
ellipse-curve $-1 19.911986203152935 26.640955133552787 5.8369144937773729 0 -0.6560590369687036 -0.75470957328743171 1 0 0 1 I I #
face $-1 $-1 $96 $12 $-1 $223 reversed single #
loop $-1 $-1 $155 $81 #
plane-surface $-1 0 28.744635991491101 0 0 -1 0 0 0 -1 forward_v I I I I #
coedge $-1 $224 $153 $156 $225 forward $82 $-1 #
coedge $-1 $159 $84 $85 $147 reversed $50 $-1 #
coedge $-1 $153 $224 $84 $145 reversed $82 $-1 #
edge $-1 $160 -7.6656164032241803 $226 7.6656164032241803 $144 $227 forward 7 unknown #
coedge $-1 $86 $85 $224 $228 forward $33 $-1 #
edge $-1 $151 -67.964720603045748 $226 67.964720603045748 $143 $229 forward 7 unknown #
coedge $-1 $156 $155 $86 $149 reversed $140 $-1 #
edge $-1 $230 -67.964720603045748 $150 67.964720603045748 $148 $231 forward 7 unknown #
vertex $-1 $88 $232 #
vertex $-1 $162 $233 #
straight-curve $-1 67.964720603045748 0 -7.6656164032241803 0 -1 0 I I #
coedge $-1 $142 $144 $89 $154 reversed $82 $-1 #
edge $-1 $157 -28.744635991491101 $160 28.744635991491101 $153 $234 forward 7 unknown #
coedge $-1 $148 $90 $95 $163 forward $140 $-1 #
coedge $-1 $90 $148 $142 $225 reversed $140 $-1 #
vertex $-1 $91 $235 #
straight-curve $-1 0 28.744635991491101 7.6656164032241803 -1 0 0 I I #
coedge $-1 $92 $143 $94 $162 reversed $50 $-1 #
vertex $-1 $154 $236 #
straight-curve $-1 0 -28.744635991491101 7.6656164032241803 1 0 0 I I #
edge $-1 $97 -7.6656164032241803 $151 7.6656164032241803 $94 $237 forward 7 unknown #
edge $-1 $98 -7.6656164032241803 $150 7.6656164032241803 $95 $238 forward 7 unknown #
point $-1 67.964720603045748 -28.744635991491101 7.6656164032241803 #
point $-1 67.964720603045748 28.744635991491101 7.6656164032241803 #
face $-1 $239 $185 $13 $-1 $240 forward single #
loop $-1 $-1 $241 $100 #
coedge $-1 $242 $103 $180 $243 reversed $58 $-1 #
coedge $-1 $103 $242 $184 $244 reversed $58 $-1 #
edge $-1 $186 -7.6656164032241803 $182 7.6656164032241803 $103 $245 forward 7 unknown #
coedge $-1 $246 $109 $104 $172 forward $181 $-1 #
edge $-1 $114 -4.3365487081096816 $177 4.3365487081096781 $104 $247 forward 7 unknown #
coedge $-1 $111 $248 $105 $174 forward $185 $-1 #
edge $-1 $178 -4.3365487081096781 $113 4.3365487081096816 $105 $249 forward 7 unknown #
coedge $-1 $250 $106 $248 $251 reversed $101 $-1 #
coedge $-1 $106 $250 $246 $252 reversed $101 $-1 #
vertex $-1 $252 $253 #
vertex $-1 $174 $254 #
straight-curve $-1 -64.388043015855203 -28.744635991491101 0 0 0 1 I I #
coedge $-1 $109 $255 $168 $243 forward $181 $-1 #
loop $-1 $-1 $256 $239 #
vertex $-1 $170 $257 #
straight-curve $-1 -62.692118671487613 -37.417733407710465 -7.6656164032241803 -1 0 0 I I #
coedge $-1 $258 $111 $169 $244 forward $185 $-1 #
loop $-1 $-1 $259 $166 #
vertex $-1 $244 $260 #
straight-curve $-1 -62.692118671487613 -37.417733407710465 7.6656164032241803 1 0 0 I I #
point $-1 -64.388043015855203 -37.417733407710465 7.6656164032241803 #
point $-1 -64.388043015855203 -37.417733407710465 -7.6656164032241803 #
face $-1 $261 $262 $14 $-1 $263 reversed single #
loop $-1 $-1 $264 $116 #
plane-surface $-1 -62.692118671487613 -37.417733407710465 0 0 1 0 0 0 1 forward_v I I I I #
coedge $-1 $122 $265 $119 $196 forward $117 $-1 #
coedge $-1 $195 $119 $266 $267 reversed $66 $-1 #
coedge $-1 $119 $194 $120 $198 forward $66 $-1 #
edge $-1 $268 8.5226991874948439 $199 12.730060903371481 $193 $269 forward 7 unknown #
coedge $-1 $121 $120 $203 $270 reversed $41 $-1 #
edge $-1 $271 -57.489271982982231 $199 -51.914462990498102 $195 $272 forward 7 unknown #
vertex $-1 $123 $273 #
straight-curve $-1 9.9559931015764676 24.537274275614458 7.6656164032241847 -1 0 0 I I #
vertex $-1 $270 $274 #
straight-curve $-1 6.4926511134124922 -14.643067935390519 41.724568997517764 0 0.75470957328743171 -0.6560590369687036 I I #
coedge $-1 $266 $125 $197 $270 forward $205 $-1 #
coedge $-1 $125 $275 $127 $208 reversed $205 $-1 #
loop $-1 $-1 $266 $276 #
straight-curve $-1 6.4926511134124922 28.744635991491101 72.155909783683057 0 0 -1 I I #
coedge $-1 $277 $127 $278 $279 forward $117 $-1 #
edge $-1 $129 -6.4926511134124922 $280 67.964720603045748 $204 $281 forward 7 unknown #
point $-1 6.4926511134124922 24.537274275614465 7.6656164032241776 #
point $-1 6.4926511134124922 28.744635991491101 7.6656164032241803 #
face $-1 $282 $283 $15 $-1 $284 forward single #
loop $-1 $-1 $285 $131 #
plane-surface $-1 33.331321292893378 74.534670357971891 144.31181956736611 -1 0 0 0 0.6560590369687036 0.75470957328743171 forward_v I I I I #
loop $-1 $-1 $286 $73 #
coedge $-1 $216 $134 $287 $288 forward $74 $-1 #
coedge $-1 $134 $215 $289 $290 reversed $74 $-1 #
coedge $-1 $291 $292 $134 $218 forward $283 $-1 #
edge $-1 $293 -12.730060903371481 $294 -8.5226991874948439 $217 $295 forward 7 unknown #
edge $-1 $296 1 $296 0 $135 $-1 forward 7 unknown #
vertex $-1 $136 $297 #
ellipse-curve $-1 19.911986203152935 25.147758598653301 4.1191884109309234 0 0.6560590369687036 0.75470957328743171 1 0 0 1 I I #
point $-1 20.911986203152935 26.640955133552801 5.8369144937773871 #
plane-surface $-1 67.964720603045748 0 0 -1 0 0 0 0 1 forward_v I I I I #
coedge $-1 $144 $142 $146 $228 reversed $82 $-1 #
edge $-1 $157 -7.6656164032241803 $230 7.6656164032241803 $156 $298 forward 7 unknown #
vertex $-1 $228 $299 #
straight-curve $-1 -67.964720603045748 -28.744635991491101 0 0 0 -1 I I #
edge $-1 $226 -28.744635991491101 $230 28.744635991491101 $224 $300 forward 7 unknown #
straight-curve $-1 0 -28.744635991491101 -7.6656164032241803 -1 0 0 I I #
vertex $-1 $149 $301 #
straight-curve $-1 0 28.744635991491101 -7.6656164032241803 1 0 0 I I #
point $-1 67.964720603045748 28.744635991491101 -7.6656164032241803 #
point $-1 67.964720603045748 -28.744635991491101 -7.6656164032241803 #
straight-curve $-1 -67.964720603045748 0 7.6656164032241803 0 -1 0 I I #
point $-1 -67.964720603045748 28.744635991491101 7.6656164032241803 #
point $-1 -67.964720603045748 -28.744635991491101 7.6656164032241803 #
straight-curve $-1 67.964720603045748 -28.744635991491101 0 0 0 -1 I I #
straight-curve $-1 67.964720603045748 28.744635991491101 0 0 0 -1 I I #
face $-1 $302 $181 $13 $-1 $303 reversed single #
plane-surface $-1 0 0 7.6656164032241803 0 0 1 1 0 0 forward_v I I I I #
coedge $-1 $304 $305 $242 $306 forward $167 $-1 #
coedge $-1 $169 $168 $241 $306 reversed $58 $-1 #
edge $-1 $307 -4.3365487081096781 $182 4.3365487081096816 $168 $308 forward 7 unknown #
edge $-1 $186 -4.3365487081096816 $309 4.3365487081096781 $169 $310 forward 7 unknown #
straight-curve $-1 -60.996194327120016 -37.417733407710465 0 0 0 -1 I I #
coedge $-1 $311 $171 $176 $252 forward $181 $-1 #
straight-curve $-1 -64.388043015855203 -33.081184699600783 -7.6656164032241803 0 1 0 I I #
coedge $-1 $173 $312 $175 $251 forward $185 $-1 #
straight-curve $-1 -64.388043015855203 -33.081184699600783 7.6656164032241803 0 -1 0 I I #
coedge $-1 $176 $175 $313 $314 forward $101 $-1 #
edge $-1 $315 -67.964720603045748 $178 -64.388043015855203 $175 $316 forward 7 unknown #
edge $-1 $177 64.388043015855203 $317 67.964720603045748 $176 $318 forward 7 unknown #
point $-1 -64.388043015855203 -28.744635991491105 -7.6656164032241803 #
point $-1 -64.388043015855203 -28.744635991491105 7.6656164032241803 #
coedge $-1 $180 $256 $304 $319 forward $181 $-1 #
coedge $-1 $255 $320 $321 $322 forward $181 $-1 #
point $-1 -60.996194327120016 -37.417733407710465 -7.6656164032241803 #
coedge $-1 $259 $184 $305 $323 forward $185 $-1 #
coedge $-1 $324 $258 $325 $326 forward $185 $-1 #
point $-1 -60.996194327120016 -37.417733407710465 7.6656164032241803 #
face $-1 $327 $328 $14 $-1 $329 reversed single #
loop $-1 $-1 $330 $190 #
plane-surface $-1 -64.388043015855203 -33.081184699600783 0 1 0 0 0 0 -1 forward_v I I I I #
coedge $-1 $331 $332 $333 $334 forward $191 $-1 #
coedge $-1 $193 $335 $336 $337 forward $117 $-1 #
coedge $-1 $336 $203 $194 $267 forward $205 $-1 #
edge $-1 $271 -68.147697199352493 $268 -64.49029338045888 $266 $338 forward 7 unknown #
vertex $-1 $267 $339 #
straight-curve $-1 33.331321292893378 37.267335178985945 7.6656164032241776 0 -1 0 I I #
edge $-1 $201 -3.4633419881639753 $271 23.37532819131691 $203 $340 forward 7 unknown #
vertex $-1 $270 $341 #
straight-curve $-1 33.331321292893378 -14.643067935390519 41.724568997517764 0 -0.75470957328743171 0.6560590369687036 I I #
point $-1 33.331321292893378 24.537274275614465 7.6656164032241776 #
point $-1 6.4926511134124922 28.744635991491101 4.0082125843305647 #
coedge $-1 $204 $342 $343 $344 reversed $205 $-1 #
face $-1 $345 $205 $14 $-1 $346 reversed single #
coedge $-1 $347 $207 $348 $349 forward $117 $-1 #
coedge $-1 $343 $350 $207 $279 reversed $351 $-1 #
edge $-1 $280 -28.744635991491101 $352 28.744635991491101 $278 $353 forward 7 unknown #
vertex $-1 $208 $354 #
straight-curve $-1 0 28.744635991491101 7.6656164032241803 -1 0 0 I I #
face $-1 $355 $356 $15 $-1 $357 reversed single #
loop $-1 $-1 $358 $211 #
plane-surface $-1 0 0 7.6656164032241803 0 0 1 1 0 0 forward_v I I I I #
coedge $-1 $359 $360 $358 $361 reversed $212 $-1 #
coedge $-1 $362 $287 $292 $363 reversed $214 $-1 #
coedge $-1 $286 $364 $215 $288 reversed $214 $-1 #
edge $-1 $293 51.914462990498102 $365 57.489271982982231 $215 $366 forward 7 unknown #
coedge $-1 $367 $368 $216 $290 forward $369 $-1 #
edge $-1 $294 64.49029338045888 $365 68.147697199352493 $289 $370 forward 7 unknown #
coedge $-1 $371 $217 $368 $372 forward $283 $-1 #
coedge $-1 $217 $358 $286 $363 forward $283 $-1 #
vertex $-1 $363 $373 #
vertex $-1 $372 $374 #
straight-curve $-1 6.4926511134124922 37.267335178985945 7.6656164032241776 0 1 0 I I #
vertex $-1 $219 $375 #
point $-1 20.911986203152935 25.147758598653301 4.1191884109309234 #
straight-curve $-1 -67.964720603045748 28.744635991491101 0 0 0 -1 I I #
point $-1 -67.964720603045748 -28.744635991491101 -7.6656164032241803 #
straight-curve $-1 -67.964720603045748 0 -7.6656164032241803 0 1 0 I I #
point $-1 -67.964720603045748 28.744635991491101 -7.6656164032241803 #
face $-1 $376 $377 $13 $-1 $378 reversed single #
plane-surface $-1 0 0 -7.6656164032241803 0 0 1 1 0 0 forward_v I I I I #
coedge $-1 $379 $241 $255 $319 reversed $167 $-1 #
coedge $-1 $241 $379 $258 $323 reversed $167 $-1 #
edge $-1 $309 -7.6656164032241803 $307 7.6656164032241803 $241 $380 forward 7 unknown #
vertex $-1 $243 $381 #
straight-curve $-1 -60.996194327120016 -33.081184699600783 -7.6656164032241803 0 -1 0 I I #
vertex $-1 $323 $382 #
straight-curve $-1 -60.996194327120016 -33.081184699600783 7.6656164032241803 0 1 0 I I #
coedge $-1 $320 $246 $383 $384 forward $181 $-1 #
coedge $-1 $248 $324 $385 $386 forward $185 $-1 #
coedge $-1 $385 $383 $250 $314 reversed $377 $-1 #
edge $-1 $315 -7.6656164032241803 $317 7.6656164032241803 $313 $387 forward 7 unknown #
vertex $-1 $386 $388 #
straight-curve $-1 0 -28.744635991491101 7.6656164032241803 1 0 0 I I #
vertex $-1 $384 $389 #
straight-curve $-1 0 -28.744635991491101 -7.6656164032241803 -1 0 0 I I #
edge $-1 $390 -67.964720603045748 $307 60.996194327120016 $304 $318 forward 7 unknown #
coedge $-1 $256 $311 $391 $392 forward $181 $-1 #
coedge $-1 $393 $394 $256 $322 reversed $395 $-1 #
edge $-1 $396 -28.744635991491101 $390 28.744635991491101 $321 $397 forward 7 unknown #
edge $-1 $309 -60.996194327120016 $398 67.964720603045748 $305 $316 forward 7 unknown #
coedge $-1 $312 $259 $399 $400 forward $185 $-1 #
coedge $-1 $394 $393 $259 $326 reversed $395 $-1 #
edge $-1 $398 -28.744635991491101 $401 28.744635991491101 $325 $402 forward 7 unknown #
face $-1 $403 $404 $14 $-1 $405 reversed single #
loop $-1 $-1 $406 $261 #
plane-surface $-1 -60.996194327120016 -33.081184699600783 0 -1 0 0 0 0 1 forward_v I I I I #
coedge $-1 $407 $408 $409 $410 reversed $262 $-1 #
coedge $-1 $411 $264 $412 $413 reversed $191 $-1 #
coedge $-1 $264 $411 $414 $415 reversed $191 $-1 #
coedge $-1 $408 $407 $264 $334 reversed $262 $-1 #
edge $-1 $416 -7.6656164032241803 $417 7.6656164032241803 $333 $418 forward 7 unknown #
coedge $-1 $265 $419 $420 $421 forward $117 $-1 #
coedge $-1 $422 $266 $265 $337 reversed $205 $-1 #
edge $-1 $423 -67.964720603045748 $268 -33.331321292893378 $336 $281 forward 7 unknown #
straight-curve $-1 33.331321292893378 28.744635991491101 72.155909783683057 0 0 1 I I #
point $-1 33.331321292893378 28.744635991491101 7.6656164032241803 #
straight-curve $-1 9.9559931015764676 28.744635991491101 4.0082125843305718 1 0 0 I I #
point $-1 33.331321292893378 28.744635991491101 4.0082125843305647 #
coedge $-1 $275 $422 $424 $425 reversed $205 $-1 #
coedge $-1 $426 $278 $275 $344 forward $351 $-1 #
edge $-1 $280 -7.6656164032241803 $427 7.6656164032241803 $275 $428 forward 7 unknown #
face $-1 $-1 $429 $14 $-1 $430 reversed single #
plane-surface $-1 0 28.744635991491101 0 0 -1 0 0 0 -1 forward_v I I I I #
coedge $-1 $414 $277 $408 $431 forward $117 $-1 #
coedge $-1 $432 $409 $277 $349 reversed $404 $-1 #
edge $-1 $352 -67.964720603045748 $433 -64.388043015855203 $348 $434 forward 7 unknown #
coedge $-1 $278 $426 $432 $435 reversed $351 $-1 #
loop $-1 $-1 $343 $436 #
vertex $-1 $279 $437 #
straight-curve $-1 -67.964720603045748 0 7.6656164032241803 0 -1 0 I I #
point $-1 -67.964720603045748 28.744635991491101 7.6656164032241803 #
face $-1 $438 $439 $15 $-1 $440 reversed single #
loop $-1 $-1 $441 $282 #
plane-surface $-1 -62.692118671487613 -37.417733407710465 0 0 1 0 0 0 1 forward_v I I I I #
coedge $-1 $292 $442 $285 $361 forward $283 $-1 #
coedge $-1 $360 $285 $443 $444 reversed $212 $-1 #
coedge $-1 $285 $359 $362 $445 forward $212 $-1 #
edge $-1 $446 8.5226991874948439 $447 12.730060903371481 $358 $448 forward 7 unknown #
coedge $-1 $364 $286 $360 $445 reversed $214 $-1 #
edge $-1 $447 -23.37532819131691 $293 3.4633419881639753 $292 $449 forward 7 unknown #
coedge $-1 $287 $362 $367 $450 reversed $214 $-1 #
vertex $-1 $450 $451 #
straight-curve $-1 6.4926511134124922 -14.643067935390519 41.724568997517764 0 0.75470957328743171 -0.6560590369687036 I I #
coedge $-1 $443 $289 $364 $450 forward $369 $-1 #
coedge $-1 $289 $452 $291 $372 reversed $369 $-1 #
loop $-1 $-1 $443 $453 #
straight-curve $-1 6.4926511134124922 28.744635991491101 72.155909783683057 0 0 -1 I I #
coedge $-1 $454 $291 $455 $456 forward $283 $-1 #
edge $-1 $294 -6.4926511134124922 $457 67.964720603045748 $368 $458 forward 7 unknown #
point $-1 6.4926511134124922 24.537274275614465 7.6656164032241776 #
point $-1 6.4926511134124922 28.744635991491101 7.6656164032241803 #
point $-1 19.911986203152935 24.491699561684594 3.3644788376434915 #
face $-1 $459 $460 $13 $-1 $461 reversed single #
loop $-1 $-1 $462 $302 #
plane-surface $-1 -67.964720603045748 0 0 1 0 0 0 0 -1 forward_v I I I I #
coedge $-1 $305 $304 $394 $463 reversed $167 $-1 #
straight-curve $-1 -60.996194327120016 -28.744635991491101 0 0 0 -1 I I #
point $-1 -60.996194327120016 -28.744635991491105 -7.6656164032241803 #
point $-1 -60.996194327120016 -28.744635991491105 7.6656164032241803 #
coedge $-1 $313 $462 $311 $384 reversed $377 $-1 #
edge $-1 $317 -28.744635991491101 $464 28.744635991491101 $383 $465 forward 7 unknown #
coedge $-1 $462 $313 $312 $386 reversed $377 $-1 #
edge $-1 $466 -28.744635991491101 $315 28.744635991491101 $385 $467 forward 7 unknown #
straight-curve $-1 -67.964720603045748 -28.744635991491101 0 0 0 -1 I I #
point $-1 -67.964720603045748 -28.744635991491101 7.6656164032241803 #
point $-1 -67.964720603045748 -28.744635991491101 -7.6656164032241803 #
vertex $-1 $463 $468 #
coedge $-1 $469 $470 $320 $392 reversed $460 $-1 #
edge $-1 $464 -67.964720603045748 $396 67.964720603045748 $391 $471 forward 7 unknown #
coedge $-1 $325 $321 $470 $472 reversed $395 $-1 #
coedge $-1 $321 $325 $379 $463 forward $395 $-1 #
loop $-1 $-1 $394 $459 #
vertex $-1 $322 $473 #
straight-curve $-1 67.964720603045748 0 -7.6656164032241803 0 -1 0 I I #
vertex $-1 $326 $474 #
coedge $-1 $470 $469 $324 $400 reversed $460 $-1 #
edge $-1 $401 -67.964720603045748 $466 67.964720603045748 $399 $475 forward 7 unknown #
vertex $-1 $326 $476 #
straight-curve $-1 67.964720603045748 0 7.6656164032241803 0 1 0 I I #
face $-1 $477 $478 $14 $-1 $405 reversed single #
loop $-1 $-1 $409 $327 #
plane-surface $-1 0 -28.744635991491101 0 0 1 0 0 0 1 forward_v I I I I #
coedge $-1 $479 $480 $411 $481 forward $328 $-1 #
coedge $-1 $333 $330 $482 $483 reversed $262 $-1 #
coedge $-1 $330 $333 $347 $431 reversed $262 $-1 #
coedge $-1 $348 $484 $330 $410 forward $404 $-1 #
edge $-1 $485 -7.6656164032241803 $433 7.6656164032241803 $409 $486 forward 7 unknown #
coedge $-1 $332 $331 $406 $481 reversed $191 $-1 #
coedge $-1 $482 $487 $331 $413 forward $488 $-1 #
edge $-1 $489 -1.6959243443675973 $417 1.6959243443675902 $331 $490 forward 7 unknown #
coedge $-1 $491 $347 $332 $415 forward $117 $-1 #
edge $-1 $416 -1.6959243443675902 $492 1.6959243443675973 $332 $493 forward 7 unknown #
vertex $-1 $431 $494 #
vertex $-1 $483 $495 #
straight-curve $-1 -64.388043015855203 -37.417733407710465 0 0 0 -1 I I #
coedge $-1 $335 $491 $496 $497 forward $117 $-1 #
coedge $-1 $498 $499 $335 $421 reversed $429 $-1 #
edge $-1 $500 -28.744635991491101 $423 28.744635991491101 $420 $501 forward 7 unknown #
coedge $-1 $342 $336 $499 $502 forward $205 $-1 #
vertex $-1 $421 $503 #
coedge $-1 $504 $505 $342 $425 forward $488 $-1 #
edge $-1 $427 -67.964720603045748 $506 67.964720603045748 $342 $507 forward 7 unknown #
coedge $-1 $350 $343 $505 $508 reversed $351 $-1 #
vertex $-1 $425 $509 #
straight-curve $-1 -67.964720603045748 28.744635991491101 0 0 0 -1 I I #
loop $-1 $-1 $498 $345 #
plane-surface $-1 67.964720603045748 0 0 -1 0 0 0 0 1 forward_v I I I I #
edge $-1 $433 -4.3365487081096781 $416 4.3365487081096816 $408 $510 forward 7 unknown #
coedge $-1 $484 $348 $350 $435 forward $404 $-1 #
vertex $-1 $431 $511 #
straight-curve $-1 0 -28.744635991491101 7.6656164032241803 1 0 0 I I #
edge $-1 $352 -7.6656164032241803 $512 7.6656164032241803 $350 $513 forward 7 unknown #
face $-1 $276 $351 $14 $-1 $514 reversed single #
point $-1 -67.964720603045748 -28.744635991491101 7.6656164032241803 #
face $-1 $515 $516 $15 $-1 $517 reversed single #
loop $-1 $-1 $518 $355 #
plane-surface $-1 -64.388043015855203 -33.081184699600783 0 1 0 0 0 0 -1 forward_v I I I I #
coedge $-1 $519 $520 $521 $522 forward $356 $-1 #
coedge $-1 $358 $523 $524 $525 forward $283 $-1 #
coedge $-1 $524 $367 $359 $444 forward $369 $-1 #
edge $-1 $526 -68.147697199352493 $446 -64.49029338045888 $443 $527 forward 7 unknown #
edge $-1 $526 -57.489271982982231 $447 -51.914462990498102 $360 $528 forward 7 unknown #
vertex $-1 $444 $529 #
vertex $-1 $363 $530 #
straight-curve $-1 33.331321292893378 37.267335178985945 7.6656164032241776 0 -1 0 I I #
straight-curve $-1 9.9559931015764676 24.537274275614458 7.6656164032241847 -1 0 0 I I #
edge $-1 $365 -3.4633419881639753 $526 23.37532819131691 $367 $531 forward 7 unknown #
point $-1 6.4926511134124922 28.744635991491101 4.0082125843305647 #
coedge $-1 $368 $532 $533 $534 reversed $369 $-1 #
face $-1 $535 $369 $15 $-1 $536 reversed single #
coedge $-1 $537 $371 $538 $539 forward $283 $-1 #
coedge $-1 $533 $540 $371 $456 reversed $541 $-1 #
edge $-1 $457 -28.744635991491101 $542 28.744635991491101 $455 $543 forward 7 unknown #
vertex $-1 $372 $544 #
straight-curve $-1 0 28.744635991491101 7.6656164032241803 -1 0 0 I I #
face $-1 $-1 $395 $13 $-1 $545 reversed single #
loop $-1 $-1 $470 $376 #
plane-surface $-1 0 28.744635991491101 0 0 -1 0 0 0 -1 forward_v I I I I #
coedge $-1 $383 $385 $469 $546 forward $377 $-1 #
edge $-1 $398 -7.6656164032241803 $390 7.6656164032241803 $394 $547 forward 7 unknown #
vertex $-1 $392 $548 #
straight-curve $-1 -67.964720603045748 0 -7.6656164032241803 0 1 0 I I #
vertex $-1 $400 $549 #
straight-curve $-1 -67.964720603045748 0 7.6656164032241803 0 -1 0 I I #
point $-1 67.964720603045748 -28.744635991491101 -7.6656164032241803 #
coedge $-1 $399 $391 $462 $546 reversed $460 $-1 #
coedge $-1 $391 $399 $393 $472 forward $460 $-1 #
straight-curve $-1 0 28.744635991491101 -7.6656164032241803 1 0 0 I I #
edge $-1 $401 -7.6656164032241803 $396 7.6656164032241803 $393 $550 forward 7 unknown #
point $-1 67.964720603045748 28.744635991491101 -7.6656164032241803 #
point $-1 67.964720603045748 -28.744635991491101 7.6656164032241803 #
straight-curve $-1 0 28.744635991491101 7.6656164032241803 -1 0 0 I I #
point $-1 67.964720603045748 28.744635991491101 7.6656164032241803 #
face $-1 $436 $488 $14 $-1 $551 reversed single #
loop $-1 $-1 $552 $403 #
coedge $-1 $553 $406 $487 $554 reversed $328 $-1 #
coedge $-1 $406 $553 $491 $555 reversed $328 $-1 #
edge $-1 $492 -7.6656164032241803 $489 7.6656164032241803 $406 $556 forward 7 unknown #
coedge $-1 $557 $412 $407 $483 forward $488 $-1 #
edge $-1 $417 -4.3365487081096816 $485 4.3365487081096781 $407 $558 forward 7 unknown #
coedge $-1 $409 $432 $557 $559 reversed $404 $-1 #
vertex $-1 $559 $560 #
straight-curve $-1 -64.388043015855203 -28.744635991491101 0 0 0 1 I I #
coedge $-1 $412 $561 $479 $554 forward $488 $-1 #
loop $-1 $-1 $504 $477 #
vertex $-1 $481 $562 #
straight-curve $-1 -62.692118671487613 -37.417733407710465 -7.6656164032241803 -1 0 0 I I #
coedge $-1 $419 $414 $480 $555 forward $117 $-1 #
vertex $-1 $555 $563 #
straight-curve $-1 -62.692118671487613 -37.417733407710465 7.6656164032241803 1 0 0 I I #
point $-1 -64.388043015855203 -37.417733407710465 7.6656164032241803 #
point $-1 -64.388043015855203 -37.417733407710465 -7.6656164032241803 #
coedge $-1 $552 $564 $419 $497 reversed $478 $-1 #
edge $-1 $565 -60.996194327120016 $500 67.964720603045748 $496 $434 forward 7 unknown #
coedge $-1 $566 $420 $564 $567 forward $429 $-1 #
coedge $-1 $420 $566 $422 $502 reversed $429 $-1 #
vertex $-1 $421 $568 #
straight-curve $-1 67.964720603045748 0 7.6656164032241803 0 1 0 I I #
edge $-1 $423 -7.6656164032241803 $506 7.6656164032241803 $499 $569 forward 7 unknown #
point $-1 67.964720603045748 28.744635991491101 7.6656164032241803 #
coedge $-1 $561 $424 $566 $570 forward $488 $-1 #
coedge $-1 $424 $557 $426 $508 forward $488 $-1 #
vertex $-1 $570 $571 #
straight-curve $-1 0 28.744635991491101 -7.6656164032241803 1 0 0 I I #
edge $-1 $512 -28.744635991491101 $427 28.744635991491101 $426 $572 forward 7 unknown #
point $-1 -67.964720603045748 28.744635991491101 -7.6656164032241803 #
straight-curve $-1 -64.388043015855203 -33.081184699600783 7.6656164032241803 0 -1 0 I I #
point $-1 -64.388043015855203 -28.744635991491105 7.6656164032241803 #
vertex $-1 $508 $573 #
straight-curve $-1 -67.964720603045748 -28.744635991491101 0 0 0 -1 I I #
plane-surface $-1 -67.964720603045748 0 0 1 0 0 0 0 -1 forward_v I I I I #
face $-1 $574 $575 $15 $-1 $576 reversed single #
loop $-1 $-1 $577 $438 #
plane-surface $-1 -60.996194327120016 -33.081184699600783 0 -1 0 0 0 0 1 forward_v I I I I #
coedge $-1 $578 $579 $580 $581 reversed $439 $-1 #
coedge $-1 $582 $441 $583 $584 reversed $356 $-1 #
coedge $-1 $441 $582 $585 $586 reversed $356 $-1 #
coedge $-1 $579 $578 $441 $522 reversed $439 $-1 #
edge $-1 $587 -7.6656164032241803 $588 7.6656164032241803 $521 $589 forward 7 unknown #
coedge $-1 $442 $590 $591 $592 forward $283 $-1 #
coedge $-1 $593 $443 $442 $525 reversed $369 $-1 #
edge $-1 $594 -67.964720603045748 $446 -33.331321292893378 $524 $458 forward 7 unknown #
vertex $-1 $450 $595 #
straight-curve $-1 33.331321292893378 28.744635991491101 72.155909783683057 0 0 1 I I #
straight-curve $-1 33.331321292893378 -14.643067935390519 41.724568997517764 0 -0.75470957328743171 0.6560590369687036 I I #
point $-1 33.331321292893378 28.744635991491101 7.6656164032241803 #
point $-1 33.331321292893378 24.537274275614465 7.6656164032241776 #
straight-curve $-1 9.9559931015764676 28.744635991491101 4.0082125843305718 1 0 0 I I #
coedge $-1 $452 $593 $596 $597 reversed $369 $-1 #
coedge $-1 $598 $455 $452 $534 forward $541 $-1 #
edge $-1 $457 -7.6656164032241803 $599 7.6656164032241803 $452 $600 forward 7 unknown #
face $-1 $-1 $601 $15 $-1 $602 reversed single #
plane-surface $-1 0 28.744635991491101 0 0 -1 0 0 0 -1 forward_v I I I I #
coedge $-1 $585 $454 $579 $603 forward $283 $-1 #
coedge $-1 $604 $580 $454 $539 reversed $575 $-1 #
edge $-1 $542 -67.964720603045748 $605 -64.388043015855203 $538 $606 forward 7 unknown #
coedge $-1 $455 $598 $604 $607 reversed $541 $-1 #
loop $-1 $-1 $533 $608 #
vertex $-1 $456 $609 #
straight-curve $-1 -67.964720603045748 0 7.6656164032241803 0 -1 0 I I #
point $-1 -67.964720603045748 28.744635991491101 7.6656164032241803 #
plane-surface $-1 67.964720603045748 0 0 -1 0 0 0 0 1 forward_v I I I I #
edge $-1 $466 -7.6656164032241803 $464 7.6656164032241803 $469 $610 forward 7 unknown #
straight-curve $-1 67.964720603045748 -28.744635991491101 0 0 0 -1 I I #
point $-1 -67.964720603045748 28.744635991491101 -7.6656164032241803 #
point $-1 -67.964720603045748 28.744635991491101 7.6656164032241803 #
straight-curve $-1 67.964720603045748 28.744635991491101 0 0 0 -1 I I #
plane-surface $-1 0 0 -7.6656164032241803 0 0 1 1 0 0 forward_v I I I I #
coedge $-1 $611 $496 $553 $612 forward $478 $-1 #
coedge $-1 $480 $479 $552 $612 reversed $328 $-1 #
edge $-1 $613 -4.3365487081096781 $489 4.3365487081096816 $479 $614 forward 7 unknown #
edge $-1 $492 -4.3365487081096816 $565 4.3365487081096781 $480 $615 forward 7 unknown #
straight-curve $-1 -60.996194327120016 -37.417733407710465 0 0 0 -1 I I #
coedge $-1 $505 $482 $484 $559 forward $488 $-1 #
straight-curve $-1 -64.388043015855203 -33.081184699600783 -7.6656164032241803 0 1 0 I I #
edge $-1 $485 64.388043015855203 $512 67.964720603045748 $484 $616 forward 7 unknown #
point $-1 -64.388043015855203 -28.744635991491105 -7.6656164032241803 #
coedge $-1 $487 $504 $611 $617 forward $488 $-1 #
point $-1 -60.996194327120016 -37.417733407710465 -7.6656164032241803 #
point $-1 -60.996194327120016 -37.417733407710465 7.6656164032241803 #
coedge $-1 $496 $611 $498 $567 reversed $478 $-1 #
vertex $-1 $497 $618 #
coedge $-1 $499 $498 $504 $570 reversed $429 $-1 #
edge $-1 $500 -7.6656164032241803 $619 7.6656164032241803 $498 $620 forward 7 unknown #
point $-1 67.964720603045748 -28.744635991491101 7.6656164032241803 #
straight-curve $-1 67.964720603045748 28.744635991491101 0 0 0 -1 I I #
edge $-1 $506 -28.744635991491101 $619 28.744635991491101 $566 $621 forward 7 unknown #
point $-1 67.964720603045748 28.744635991491101 -7.6656164032241803 #
straight-curve $-1 -67.964720603045748 0 -7.6656164032241803 0 1 0 I I #
point $-1 -67.964720603045748 -28.744635991491101 -7.6656164032241803 #
face $-1 $622 $623 $15 $-1 $576 reversed single #
loop $-1 $-1 $580 $515 #
plane-surface $-1 0 -28.744635991491101 0 0 1 0 0 0 1 forward_v I I I I #
coedge $-1 $624 $625 $582 $626 forward $516 $-1 #
coedge $-1 $521 $518 $627 $628 reversed $439 $-1 #
coedge $-1 $518 $521 $537 $603 reversed $439 $-1 #
coedge $-1 $538 $629 $518 $581 forward $575 $-1 #
edge $-1 $630 -7.6656164032241803 $605 7.6656164032241803 $580 $631 forward 7 unknown #
coedge $-1 $520 $519 $577 $626 reversed $356 $-1 #
coedge $-1 $627 $632 $519 $584 forward $633 $-1 #
edge $-1 $634 -1.6959243443675973 $588 1.6959243443675902 $519 $635 forward 7 unknown #
coedge $-1 $636 $537 $520 $586 forward $283 $-1 #
edge $-1 $587 -1.6959243443675902 $637 1.6959243443675973 $520 $638 forward 7 unknown #
vertex $-1 $603 $639 #
vertex $-1 $628 $640 #
straight-curve $-1 -64.388043015855203 -37.417733407710465 0 0 0 -1 I I #
coedge $-1 $523 $636 $641 $642 forward $283 $-1 #
coedge $-1 $643 $644 $523 $592 reversed $601 $-1 #
edge $-1 $645 -28.744635991491101 $594 28.744635991491101 $591 $646 forward 7 unknown #
coedge $-1 $532 $524 $644 $647 forward $369 $-1 #
vertex $-1 $592 $648 #
point $-1 33.331321292893378 28.744635991491101 4.0082125843305647 #
coedge $-1 $649 $650 $532 $597 forward $633 $-1 #
edge $-1 $599 -67.964720603045748 $651 67.964720603045748 $532 $652 forward 7 unknown #
coedge $-1 $540 $533 $650 $653 reversed $541 $-1 #
vertex $-1 $597 $654 #
straight-curve $-1 -67.964720603045748 28.744635991491101 0 0 0 -1 I I #
loop $-1 $-1 $643 $535 #
plane-surface $-1 67.964720603045748 0 0 -1 0 0 0 0 1 forward_v I I I I #
edge $-1 $605 -4.3365487081096781 $587 4.3365487081096816 $579 $655 forward 7 unknown #
coedge $-1 $629 $538 $540 $607 forward $575 $-1 #
vertex $-1 $603 $656 #
straight-curve $-1 0 -28.744635991491101 7.6656164032241803 1 0 0 I I #
edge $-1 $542 -7.6656164032241803 $657 7.6656164032241803 $540 $658 forward 7 unknown #
face $-1 $453 $541 $15 $-1 $659 reversed single #
point $-1 -67.964720603045748 -28.744635991491101 7.6656164032241803 #
straight-curve $-1 -67.964720603045748 28.744635991491101 0 0 0 -1 I I #
coedge $-1 $564 $552 $561 $617 reversed $478 $-1 #
edge $-1 $565 -7.6656164032241803 $613 7.6656164032241803 $552 $660 forward 7 unknown #
vertex $-1 $554 $661 #
straight-curve $-1 -60.996194327120016 -33.081184699600783 -7.6656164032241803 0 -1 0 I I #
straight-curve $-1 -60.996194327120016 -33.081184699600783 7.6656164032241803 0 1 0 I I #
straight-curve $-1 0 -28.744635991491101 -7.6656164032241803 -1 0 0 I I #
edge $-1 $619 -67.964720603045748 $613 60.996194327120016 $611 $616 forward 7 unknown #
point $-1 -60.996194327120016 -28.744635991491105 7.6656164032241803 #
vertex $-1 $567 $662 #
straight-curve $-1 67.964720603045748 -28.744635991491101 0 0 0 -1 I I #
straight-curve $-1 67.964720603045748 0 -7.6656164032241803 0 -1 0 I I #
face $-1 $608 $633 $15 $-1 $663 reversed single #
loop $-1 $-1 $664 $574 #
coedge $-1 $665 $577 $632 $666 reversed $516 $-1 #
coedge $-1 $577 $665 $636 $667 reversed $516 $-1 #
edge $-1 $637 -7.6656164032241803 $634 7.6656164032241803 $577 $668 forward 7 unknown #
coedge $-1 $669 $583 $578 $628 forward $633 $-1 #
edge $-1 $588 -4.3365487081096816 $630 4.3365487081096781 $578 $670 forward 7 unknown #
coedge $-1 $580 $604 $669 $671 reversed $575 $-1 #
vertex $-1 $671 $672 #
straight-curve $-1 -64.388043015855203 -28.744635991491101 0 0 0 1 I I #
coedge $-1 $583 $673 $624 $666 forward $633 $-1 #
loop $-1 $-1 $649 $622 #
vertex $-1 $626 $674 #
straight-curve $-1 -62.692118671487613 -37.417733407710465 -7.6656164032241803 -1 0 0 I I #
coedge $-1 $590 $585 $625 $667 forward $283 $-1 #
vertex $-1 $667 $675 #
straight-curve $-1 -62.692118671487613 -37.417733407710465 7.6656164032241803 1 0 0 I I #
point $-1 -64.388043015855203 -37.417733407710465 7.6656164032241803 #
point $-1 -64.388043015855203 -37.417733407710465 -7.6656164032241803 #
coedge $-1 $664 $676 $590 $642 reversed $623 $-1 #
edge $-1 $677 -60.996194327120016 $645 67.964720603045748 $641 $606 forward 7 unknown #
coedge $-1 $678 $591 $676 $679 forward $601 $-1 #
coedge $-1 $591 $678 $593 $647 reversed $601 $-1 #
vertex $-1 $592 $680 #
straight-curve $-1 67.964720603045748 0 7.6656164032241803 0 1 0 I I #
edge $-1 $594 -7.6656164032241803 $651 7.6656164032241803 $644 $681 forward 7 unknown #
point $-1 67.964720603045748 28.744635991491101 7.6656164032241803 #
coedge $-1 $673 $596 $678 $682 forward $633 $-1 #
coedge $-1 $596 $669 $598 $653 forward $633 $-1 #
vertex $-1 $682 $683 #
straight-curve $-1 0 28.744635991491101 -7.6656164032241803 1 0 0 I I #
edge $-1 $657 -28.744635991491101 $599 28.744635991491101 $598 $684 forward 7 unknown #
point $-1 -67.964720603045748 28.744635991491101 -7.6656164032241803 #
straight-curve $-1 -64.388043015855203 -33.081184699600783 7.6656164032241803 0 -1 0 I I #
point $-1 -64.388043015855203 -28.744635991491105 7.6656164032241803 #
vertex $-1 $653 $685 #
straight-curve $-1 -67.964720603045748 -28.744635991491101 0 0 0 -1 I I #
plane-surface $-1 -67.964720603045748 0 0 1 0 0 0 0 -1 forward_v I I I I #
straight-curve $-1 -60.996194327120016 -28.744635991491101 0 0 0 -1 I I #
point $-1 -60.996194327120016 -28.744635991491105 -7.6656164032241803 #
point $-1 67.964720603045748 -28.744635991491101 -7.6656164032241803 #
plane-surface $-1 0 0 -7.6656164032241803 0 0 1 1 0 0 forward_v I I I I #
coedge $-1 $686 $641 $665 $687 forward $623 $-1 #
coedge $-1 $625 $624 $664 $687 reversed $516 $-1 #
edge $-1 $688 -4.3365487081096781 $634 4.3365487081096816 $624 $689 forward 7 unknown #
edge $-1 $637 -4.3365487081096816 $677 4.3365487081096781 $625 $690 forward 7 unknown #
straight-curve $-1 -60.996194327120016 -37.417733407710465 0 0 0 -1 I I #
coedge $-1 $650 $627 $629 $671 forward $633 $-1 #
straight-curve $-1 -64.388043015855203 -33.081184699600783 -7.6656164032241803 0 1 0 I I #
edge $-1 $630 64.388043015855203 $657 67.964720603045748 $629 $691 forward 7 unknown #
point $-1 -64.388043015855203 -28.744635991491105 -7.6656164032241803 #
coedge $-1 $632 $649 $686 $692 forward $633 $-1 #
point $-1 -60.996194327120016 -37.417733407710465 -7.6656164032241803 #
point $-1 -60.996194327120016 -37.417733407710465 7.6656164032241803 #
coedge $-1 $641 $686 $643 $679 reversed $623 $-1 #
vertex $-1 $642 $693 #
coedge $-1 $644 $643 $649 $682 reversed $601 $-1 #
edge $-1 $645 -7.6656164032241803 $694 7.6656164032241803 $643 $695 forward 7 unknown #
point $-1 67.964720603045748 -28.744635991491101 7.6656164032241803 #
straight-curve $-1 67.964720603045748 28.744635991491101 0 0 0 -1 I I #
edge $-1 $651 -28.744635991491101 $694 28.744635991491101 $678 $696 forward 7 unknown #
point $-1 67.964720603045748 28.744635991491101 -7.6656164032241803 #
straight-curve $-1 -67.964720603045748 0 -7.6656164032241803 0 1 0 I I #
point $-1 -67.964720603045748 -28.744635991491101 -7.6656164032241803 #
coedge $-1 $676 $664 $673 $692 reversed $623 $-1 #
edge $-1 $677 -7.6656164032241803 $688 7.6656164032241803 $664 $697 forward 7 unknown #
vertex $-1 $666 $698 #
straight-curve $-1 -60.996194327120016 -33.081184699600783 -7.6656164032241803 0 -1 0 I I #
straight-curve $-1 -60.996194327120016 -33.081184699600783 7.6656164032241803 0 1 0 I I #
straight-curve $-1 0 -28.744635991491101 -7.6656164032241803 -1 0 0 I I #
edge $-1 $694 -67.964720603045748 $688 60.996194327120016 $686 $691 forward 7 unknown #
point $-1 -60.996194327120016 -28.744635991491105 7.6656164032241803 #
vertex $-1 $679 $699 #
straight-curve $-1 67.964720603045748 -28.744635991491101 0 0 0 -1 I I #
straight-curve $-1 67.964720603045748 0 -7.6656164032241803 0 -1 0 I I #
straight-curve $-1 -60.996194327120016 -28.744635991491101 0 0 0 -1 I I #
point $-1 -60.996194327120016 -28.744635991491105 -7.6656164032241803 #
point $-1 67.964720603045748 -28.744635991491101 -7.6656164032241803 #
End-of-ACIS-data 