500 0 10 0           
7 Unknown 11 ACIS 5.0 NT 24 Fri Mar 26 02:30:09 1999 
-1 9.9999999999999995e-007 1e-010 
body $-1 $10 $-1 $11 #
body $-1 $12 $-1 $13 #
body $-1 $14 $-1 $15 #
body $-1 $16 $-1 $17 #
body $-1 $18 $-1 $19 #
body $-1 $20 $-1 $21 #
body $-1 $22 $-1 $23 #
body $-1 $24 $-1 $25 #
body $-1 $26 $-1 $27 #
body $-1 $28 $-1 $29 #
lump $-1 $-1 $30 $0 #
transform $-1 1 0 0 0 1 0 0 0 1 59.524521622363963 33.05266780646955 11.006628155470214 1 rotate no_reflect no_shear #
lump $-1 $-1 $31 $1 #
transform $-1 1 0 0 0 1 0 0 0 1 59.524521622363963 33.05266780646955 11.006628155470214 1 rotate no_reflect no_shear #
lump $-1 $-1 $32 $2 #
transform $-1 1 0 0 0 1 0 0 0 1 59.524521622363963 33.05266780646955 11.006628155470214 1 rotate no_reflect no_shear #
lump $-1 $-1 $33 $3 #
transform $-1 1 0 0 0 1 0 0 0 1 59.524521622363963 33.05266780646955 11.006628155470214 1 rotate no_reflect no_shear #
lump $-1 $-1 $34 $4 #
transform $-1 1 0 0 0 1 0 0 0 1 59.524521622363963 33.05266780646955 11.006628155470214 1 rotate no_reflect no_shear #
lump $-1 $-1 $35 $5 #
transform $-1 1 0 0 0 1 0 0 0 1 59.524521622363963 33.05266780646955 11.006628155470214 1 rotate no_reflect no_shear #
lump $-1 $-1 $36 $6 #
transform $-1 1 0 0 0 1 0 0 0 1 59.524521622363963 33.05266780646955 11.006628155470214 1 rotate no_reflect no_shear #
lump $-1 $-1 $37 $7 #
transform $-1 1 0 0 0 1 0 0 0 1 59.524521622363963 33.05266780646955 11.006628155470214 1 rotate no_reflect no_shear #
lump $-1 $-1 $38 $8 #
transform $-1 1 0 0 0 1 0 0 0 1 59.524521622363963 33.05266780646955 11.006628155470214 1 rotate no_reflect no_shear #
lump $-1 $-1 $39 $9 #
transform $-1 1 0 0 0 1 0 0 0 1 59.524521622363963 33.05266780646955 11.006628155470214 1 rotate no_reflect no_shear #
shell $-1 $-1 $-1 $40 $-1 $10 #
shell $-1 $-1 $-1 $41 $-1 $12 #
shell $-1 $-1 $-1 $42 $-1 $14 #
shell $-1 $-1 $-1 $43 $-1 $16 #
shell $-1 $-1 $-1 $44 $-1 $18 #
shell $-1 $-1 $-1 $45 $-1 $20 #
shell $-1 $-1 $-1 $46 $-1 $22 #
shell $-1 $-1 $-1 $47 $-1 $24 #
shell $-1 $-1 $-1 $48 $-1 $26 #
shell $-1 $-1 $-1 $49 $-1 $28 #
face $-1 $50 $51 $30 $-1 $52 reversed single #
face $-1 $53 $54 $31 $-1 $55 forward single #
face $-1 $56 $57 $32 $-1 $58 reversed single #
face $-1 $59 $60 $33 $-1 $61 forward single #
face $-1 $62 $63 $34 $-1 $64 reversed single #
face $-1 $65 $66 $35 $-1 $67 forward single #
face $-1 $68 $69 $36 $-1 $70 reversed single #
face $-1 $71 $72 $37 $-1 $73 forward single #
face $-1 $74 $75 $38 $-1 $76 reversed single #
face $-1 $77 $78 $39 $-1 $79 forward single #
face $-1 $80 $81 $30 $-1 $82 forward single #
loop $-1 $-1 $83 $40 #
plane-surface $-1 0 -33.05266780646955 0 0 1 0 0 0 1 forward_v I I I I #
face $-1 $84 $85 $31 $-1 $86 reversed single #
loop $-1 $-1 $87 $41 #
plane-surface $-1 0 -33.05266780646955 0 0 1 0 0 0 1 forward_v I I I I #
face $-1 $88 $89 $32 $-1 $90 reversed single #
loop $-1 $-1 $91 $42 #
plane-surface $-1 -150.72138064513533 -12.510165873782803 82.265237811693467 0 1 0 -0.7660444514056185 0 0.64278759981090561 forward_v I I I I #
face $-1 $92 $93 $33 $-1 $94 forward single #
loop $-1 $95 $96 $43 #
cone-surface $-1 -56.260646655816885 -5.7899591072793868 7.4889774080867202 0.7660444514056185 0 -0.64278759981090561 0.64278759981090561 0 0.7660444514056185 1 I I 0 1 1 forward I I I I #
face $-1 $97 $98 $34 $-1 $99 reversed single #
loop $-1 $-1 $100 $44 #
plane-surface $-1 -150.72138064513533 8.5564265179810519 82.265237811693467 0 1 0 -0.7660444514056185 0 0.64278759981090561 forward_v I I I I #
face $-1 $101 $102 $35 $-1 $103 forward single #
loop $-1 $104 $105 $45 #
cone-surface $-1 -56.260646655816885 15.276633284484468 7.4889774080867202 0.7660444514056185 0 -0.64278759981090561 0.64278759981090561 0 0.7660444514056185 1 I I 0 1 1 forward I I I I #
face $-1 $106 $107 $36 $-1 $108 reversed single #
loop $-1 $-1 $109 $46 #
plane-surface $-1 74.198131878071948 0.93024765922402963 173.4620968344648 0 -1 0 -0.7660444514056185 0 -0.64278759981090561 forward_v I I I I #
face $-1 $110 $111 $37 $-1 $112 forward single #
loop $-1 $113 $114 $47 #
cone-surface $-1 56.260646655816899 -5.7899591072793868 7.4889774080867166 -0.7660444514056185 0 -0.64278759981090561 0.64278759981090561 0 -0.7660444514056185 1 I I 0 1 1 forward I I I I #
face $-1 $115 $116 $38 $-1 $117 reversed single #
loop $-1 $-1 $118 $48 #
plane-surface $-1 74.198131878071948 21.996840050987885 173.4620968344648 0 -1 0 -0.7660444514056185 0 -0.64278759981090561 forward_v I I I I #
face $-1 $119 $120 $39 $-1 $121 forward single #
loop $-1 $122 $123 $49 #
cone-surface $-1 56.260646655816899 15.276633284484468 7.4889774080867166 -0.7660444514056185 0 -0.64278759981090561 0.64278759981090561 0 -0.7660444514056185 1 I I 0 1 1 forward I I I I #
face $-1 $124 $125 $30 $-1 $126 reversed single #
loop $-1 $-1 $127 $50 #
plane-surface $-1 0 0 11.006628155470214 0 0 1 1 0 0 forward_v I I I I #
coedge $-1 $128 $129 $130 $131 reversed $51 $-1 #
face $-1 $132 $133 $31 $-1 $134 reversed single #
loop $-1 $-1 $135 $53 #
plane-surface $-1 0 0 -11.006628155470214 0 0 1 1 0 0 forward_v I I I I #
coedge $-1 $136 $137 $138 $139 forward $54 $-1 #
face $-1 $140 $141 $32 $-1 $142 reversed single #
loop $-1 $-1 $143 $56 #
plane-surface $-1 -59.524521622363963 -5.7899591072793868 5.7419890446301025 -0.7660444514056185 0 0.64278759981090561 0.64278759981090561 0 0.7660444514056185 forward_v I I I I #
coedge $-1 $144 $145 $146 $147 reversed $57 $-1 #
face $-1 $-1 $148 $33 $-1 $149 forward single #
loop $-1 $150 $151 $59 #
cone-surface $-1 -54.822527773832235 -5.7899591072793868 6.2822524162178297 0.7660444514056185 0 -0.64278759981090561 0.3213937999054528 0 0.38302222570280925 1 I I -0.70710678118654746 0.70710678118654746 0.5 forward I I I I #
loop $-1 $-1 $152 $43 #
coedge $-1 $96 $96 $153 $154 reversed $60 $-1 #
face $-1 $155 $156 $34 $-1 $157 reversed single #
loop $-1 $-1 $158 $62 #
plane-surface $-1 -59.524521622363963 15.276633284484468 5.7419890446301025 -0.7660444514056185 0 0.64278759981090561 0.64278759981090561 0 0.7660444514056185 forward_v I I I I #
coedge $-1 $159 $160 $161 $162 reversed $63 $-1 #
face $-1 $-1 $163 $35 $-1 $164 forward single #
loop $-1 $165 $166 $65 #
cone-surface $-1 -54.822527773832235 15.276633284484468 6.2822524162178297 0.7660444514056185 0 -0.64278759981090561 0.3213937999054528 0 0.38302222570280925 1 I I -0.70710678118654746 0.70710678118654746 0.5 forward I I I I #
loop $-1 $-1 $167 $45 #
coedge $-1 $105 $105 $168 $169 reversed $66 $-1 #
face $-1 $170 $171 $36 $-1 $172 reversed single #
loop $-1 $-1 $173 $68 #
plane-surface $-1 -16.998727144699416 -5.7899591072793868 96.938848067401437 0.7660444514056185 0 0.64278759981090561 0.64278759981090561 0 -0.7660444514056185 forward_v I I I I #
coedge $-1 $174 $175 $176 $177 reversed $69 $-1 #
face $-1 $-1 $178 $37 $-1 $179 forward single #
loop $-1 $180 $181 $71 #
cone-surface $-1 54.822527773832249 -5.7899591072793868 6.2822524162178262 -0.7660444514056185 0 -0.64278759981090561 0.3213937999054528 0 -0.38302222570280925 1 I I -0.70710678118654746 0.70710678118654746 0.5 forward I I I I #
loop $-1 $-1 $182 $47 #
coedge $-1 $114 $114 $183 $184 reversed $72 $-1 #
face $-1 $185 $186 $38 $-1 $187 reversed single #
loop $-1 $-1 $188 $74 #
plane-surface $-1 -16.998727144699416 15.276633284484468 96.938848067401437 0.7660444514056185 0 0.64278759981090561 0.64278759981090561 0 -0.7660444514056185 forward_v I I I I #
coedge $-1 $189 $190 $191 $192 reversed $75 $-1 #
face $-1 $-1 $193 $39 $-1 $194 forward single #
loop $-1 $195 $196 $77 #
cone-surface $-1 54.822527773832249 15.276633284484468 6.2822524162178262 -0.7660444514056185 0 -0.64278759981090561 0.3213937999054528 0 -0.38302222570280925 1 I I -0.70710678118654746 0.70710678118654746 0.5 forward I I I I #
loop $-1 $-1 $197 $49 #
coedge $-1 $123 $123 $198 $199 reversed $78 $-1 #
face $-1 $200 $201 $30 $-1 $202 reversed single #
loop $-1 $-1 $203 $80 #
plane-surface $-1 0 0 -11.006628155470214 0 0 1 1 0 0 forward_v I I I I #
coedge $-1 $204 $205 $206 $207 forward $81 $-1 #
coedge $-1 $208 $83 $209 $210 reversed $51 $-1 #
coedge $-1 $83 $208 $211 $212 forward $51 $-1 #
coedge $-1 $213 $203 $83 $131 forward $125 $-1 #
edge $-1 $214 -59.524521622363963 $215 59.524521622363963 $83 $216 forward 7 unknown #
face $-1 $217 $218 $31 $-1 $219 reversed single #
loop $-1 $-1 $220 $84 #
plane-surface $-1 -47.43368467704444 -42.539341983674639 0 0 1 0 0 0 1 forward_v I I I I #
coedge $-1 $221 $222 $137 $223 forward $85 $-1 #
coedge $-1 $224 $87 $225 $226 reversed $54 $-1 #
coedge $-1 $87 $224 $135 $223 reversed $54 $-1 #
coedge $-1 $227 $228 $87 $139 reversed $218 $-1 #
edge $-1 $229 -11.006628155470214 $230 11.006628155470214 $138 $231 forward 7 unknown #
face $-1 $232 $233 $32 $-1 $234 reversed single #
loop $-1 $-1 $235 $88 #
plane-surface $-1 -150.72138064513533 0.93024765922402963 82.265237811693467 0 -1 0 0.7660444514056185 0 -0.64278759981090561 forward_v I I I I #
coedge $-1 $236 $237 $238 $239 reversed $89 $-1 #
coedge $-1 $145 $91 $240 $241 reversed $57 $-1 #
coedge $-1 $91 $144 $236 $242 reversed $57 $-1 #
coedge $-1 $238 $243 $91 $147 forward $244 $-1 #
edge $-1 $245 15.8361687002037 $246 20.253725320734191 $146 $247 forward 7 unknown #
loop $-1 $-1 $153 $92 #
plane-surface $-1 -59.524521622363963 -5.7899591072793868 5.7419890446301025 -0.7660444514056185 0 0.64278759981090561 0.64278759981090561 0 0.7660444514056185 forward_v I I I I #
loop $-1 $-1 $248 $59 #
coedge $-1 $151 $151 $152 $249 reversed $93 $-1 #
coedge $-1 $152 $152 $151 $249 forward $95 $-1 #
coedge $-1 $153 $153 $96 $154 forward $148 $-1 #
edge $-1 $250 0 $250 6.2831853071796004 $153 $251 forward 7 unknown #
face $-1 $252 $253 $34 $-1 $254 forward single #
loop $-1 $-1 $255 $97 #
plane-surface $-1 -150.72138064513533 21.996840050987885 82.265237811693467 0 -1 0 0.7660444514056185 0 -0.64278759981090561 forward_v I I I I #
coedge $-1 $256 $257 $258 $259 reversed $98 $-1 #
coedge $-1 $160 $100 $260 $261 reversed $63 $-1 #
coedge $-1 $100 $159 $256 $262 reversed $63 $-1 #
coedge $-1 $258 $263 $100 $162 forward $253 $-1 #
edge $-1 $264 15.8361687002037 $265 20.253725320734191 $161 $266 forward 7 unknown #
loop $-1 $-1 $168 $101 #
plane-surface $-1 -59.524521622363963 15.276633284484468 5.7419890446301025 -0.7660444514056185 0 0.64278759981090561 0.64278759981090561 0 0.7660444514056185 forward_v I I I I #
loop $-1 $-1 $267 $65 #
coedge $-1 $166 $166 $167 $268 reversed $102 $-1 #
coedge $-1 $167 $167 $166 $268 forward $104 $-1 #
coedge $-1 $168 $168 $105 $169 forward $163 $-1 #
edge $-1 $269 0 $269 6.2831853071796004 $168 $270 forward 7 unknown #
face $-1 $271 $272 $36 $-1 $273 forward single #
loop $-1 $-1 $274 $106 #
plane-surface $-1 74.198131878071948 -12.510165873782803 173.4620968344648 0 1 0 0.7660444514056185 0 0.64278759981090561 forward_v I I I I #
coedge $-1 $275 $276 $277 $278 reversed $107 $-1 #
coedge $-1 $175 $109 $279 $280 reversed $69 $-1 #
coedge $-1 $109 $174 $275 $281 reversed $69 $-1 #
coedge $-1 $277 $282 $109 $177 forward $272 $-1 #
edge $-1 $283 -22.425455683327989 $284 -18.00789906279747 $176 $285 forward 7 unknown #
loop $-1 $-1 $183 $110 #
plane-surface $-1 -16.998727144699416 -5.7899591072793868 96.938848067401437 0.7660444514056185 0 0.64278759981090561 0.64278759981090561 0 -0.7660444514056185 forward_v I I I I #
loop $-1 $-1 $286 $71 #
coedge $-1 $181 $181 $182 $287 reversed $111 $-1 #
coedge $-1 $182 $182 $181 $287 forward $113 $-1 #
coedge $-1 $183 $183 $114 $184 forward $178 $-1 #
edge $-1 $288 0 $288 6.2831853071796004 $183 $289 forward 7 unknown #
face $-1 $290 $291 $38 $-1 $292 reversed single #
loop $-1 $-1 $293 $115 #
plane-surface $-1 74.198131878071948 8.5564265179810519 173.4620968344648 0 1 0 0.7660444514056185 0 0.64278759981090561 forward_v I I I I #
coedge $-1 $294 $295 $296 $297 reversed $116 $-1 #
coedge $-1 $190 $118 $298 $299 reversed $75 $-1 #
coedge $-1 $118 $189 $294 $300 reversed $75 $-1 #
coedge $-1 $296 $301 $118 $192 forward $302 $-1 #
edge $-1 $303 -22.425455683327989 $304 -18.00789906279747 $191 $305 forward 7 unknown #
loop $-1 $-1 $198 $119 #
plane-surface $-1 -16.998727144699416 15.276633284484468 96.938848067401437 0.7660444514056185 0 0.64278759981090561 0.64278759981090561 0 -0.7660444514056185 forward_v I I I I #
loop $-1 $-1 $306 $77 #
coedge $-1 $196 $196 $197 $307 reversed $120 $-1 #
coedge $-1 $197 $197 $196 $307 forward $122 $-1 #
coedge $-1 $198 $198 $123 $199 forward $193 $-1 #
edge $-1 $308 0 $308 6.2831853071796004 $198 $309 forward 7 unknown #
face $-1 $310 $311 $30 $-1 $312 reversed single #
loop $-1 $-1 $313 $124 #
plane-surface $-1 -59.524521622363963 0 0 1 0 0 0 0 -1 forward_v I I I I #
coedge $-1 $130 $314 $315 $316 forward $125 $-1 #
coedge $-1 $317 $127 $318 $319 forward $81 $-1 #
coedge $-1 $127 $317 $208 $320 forward $81 $-1 #
coedge $-1 $209 $321 $127 $207 reversed $322 $-1 #
edge $-1 $323 -33.05266780646955 $324 33.05266780646955 $206 $325 forward 7 unknown #
coedge $-1 $129 $128 $205 $320 reversed $51 $-1 #
coedge $-1 $315 $206 $128 $210 forward $322 $-1 #
edge $-1 $323 -11.006628155470214 $214 11.006628155470214 $209 $326 forward 7 unknown #
coedge $-1 $327 $328 $129 $212 reversed $201 $-1 #
edge $-1 $329 -11.006628155470214 $215 11.006628155470214 $211 $330 forward 7 unknown #
coedge $-1 $314 $130 $328 $331 forward $125 $-1 #
vertex $-1 $210 $332 #
vertex $-1 $331 $333 #
straight-curve $-1 0 -33.05266780646955 -11.006628155470214 -1 0 0 I I #
face $-1 $334 $335 $31 $-1 $336 reversed single #
loop $-1 $-1 $138 $132 #
plane-surface $-1 -48.93368467704444 -37.796004895072095 0 1 0 0 0 0 -1 forward_v I I I I #
coedge $-1 $337 $338 $339 $340 forward $133 $-1 #
coedge $-1 $341 $135 $342 $343 forward $85 $-1 #
coedge $-1 $135 $341 $227 $344 forward $85 $-1 #
edge $-1 $229 -48.93368467704444 $345 -45.93368467704444 $135 $346 forward 7 unknown #
coedge $-1 $137 $136 $347 $348 forward $54 $-1 #
coedge $-1 $349 $350 $136 $226 forward $351 $-1 #
edge $-1 $352 45.93368467704444 $230 48.93368467704444 $225 $353 forward 7 unknown #
coedge $-1 $339 $138 $222 $344 reversed $218 $-1 #
coedge $-1 $138 $339 $349 $354 reversed $218 $-1 #
vertex $-1 $223 $355 #
vertex $-1 $354 $356 #
straight-curve $-1 -48.93368467704444 -33.05266780646955 0 0 0 1 I I #
face $-1 $-1 $244 $32 $-1 $357 forward single #
loop $-1 $-1 $358 $140 #
plane-surface $-1 -59.524521622363963 0 0 1 0 0 0 0 -1 forward_v I I I I #
coedge $-1 $359 $360 $361 $362 reversed $141 $-1 #
coedge $-1 $363 $143 $145 $242 forward $89 $-1 #
coedge $-1 $143 $363 $359 $364 forward $89 $-1 #
coedge $-1 $361 $146 $143 $239 forward $244 $-1 #
edge $-1 $246 -9.6151863201431098 $365 3.825227212863723 $238 $366 forward 7 unknown #
coedge $-1 $367 $368 $144 $241 forward $233 $-1 #
edge $-1 $369 -35.390629861216631 $245 -30.12599075037652 $240 $370 forward 7 unknown #
edge $-1 $246 -6.8724981966516472 $369 0 $145 $371 forward 7 unknown #
coedge $-1 $146 $361 $367 $372 forward $244 $-1 #
loop $-1 $-1 $361 $232 #
vertex $-1 $241 $373 #
vertex $-1 $147 $374 #
straight-curve $-1 -75.360690322567663 -12.510165873782803 11.00662815547021 1 0 0 I I #
coedge $-1 $248 $248 $-1 $375 reversed $150 $-1 #
edge $-1 $376 0 $376 6.2831853071796004 $151 $377 forward 7 unknown #
vertex $-1 $154 $378 #
ellipse-curve $-1 -57.315743312098718 -5.7899591072793868 8.3743086000501563 -0.7660444514056185 0 0.64278759981090561 0.64278759981090561 0 0.7660444514056185 1 I I #
face $-1 $-1 $379 $34 $-1 $380 reversed single #
loop $-1 $-1 $161 $155 #
plane-surface $-1 0 0 11.006628155470214 0 0 1 1 0 0 forward_v I I I I #
coedge $-1 $381 $382 $383 $384 reversed $156 $-1 #
coedge $-1 $385 $158 $160 $262 forward $98 $-1 #
coedge $-1 $158 $385 $381 $386 forward $98 $-1 #
coedge $-1 $383 $161 $158 $259 forward $253 $-1 #
edge $-1 $265 0.91810987573881775 $387 14.358523408745651 $258 $388 forward 7 unknown #
coedge $-1 $389 $390 $159 $261 forward $379 $-1 #
edge $-1 $391 -35.390629861216631 $264 -30.12599075037652 $260 $392 forward 7 unknown #
edge $-1 $265 -6.8724981966516472 $391 0 $160 $393 forward 7 unknown #
coedge $-1 $161 $383 $389 $394 forward $253 $-1 #
vertex $-1 $162 $395 #
vertex $-1 $162 $396 #
straight-curve $-1 -75.360690322567663 8.5564265179810519 11.00662815547021 1 0 0 I I #
coedge $-1 $267 $267 $-1 $397 reversed $165 $-1 #
edge $-1 $398 0 $398 6.2831853071796004 $166 $399 forward 7 unknown #
vertex $-1 $169 $400 #
ellipse-curve $-1 -57.315743312098718 15.276633284484468 8.3743086000501563 -0.7660444514056185 0 0.64278759981090561 0.64278759981090561 0 0.7660444514056185 1 I I #
face $-1 $-1 $401 $36 $-1 $402 reversed single #
loop $-1 $-1 $176 $170 #
plane-surface $-1 0 0 11.006628155470214 0 0 1 1 0 0 forward_v I I I I #
coedge $-1 $403 $404 $405 $406 reversed $171 $-1 #
coedge $-1 $407 $173 $175 $281 forward $107 $-1 #
coedge $-1 $173 $407 $403 $408 forward $107 $-1 #
coedge $-1 $405 $176 $173 $278 forward $272 $-1 #
edge $-1 $284 -3.825227212863723 $409 9.6151863201431098 $277 $410 forward 7 unknown #
coedge $-1 $411 $412 $174 $280 forward $401 $-1 #
edge $-1 $413 -80.989059372602327 $283 -75.724420261762191 $279 $414 forward 7 unknown #
edge $-1 $284 112.17654504807628 $413 119.04904324472797 $175 $415 forward 7 unknown #
coedge $-1 $176 $405 $411 $416 forward $272 $-1 #
vertex $-1 $177 $417 #
vertex $-1 $177 $418 #
straight-curve $-1 37.099065939035974 0.93024765922402963 11.00662815547021 -1 0 0 I I #
coedge $-1 $286 $286 $-1 $419 reversed $180 $-1 #
edge $-1 $420 0 $420 6.2831853071796004 $181 $421 forward 7 unknown #
vertex $-1 $184 $422 #
ellipse-curve $-1 57.315743312098711 -5.7899591072793868 8.374308600050135 0.7660444514056185 0 0.64278759981090561 0.64278759981090561 0 -0.7660444514056185 1 I I #
face $-1 $-1 $302 $38 $-1 $423 forward single #
loop $-1 $-1 $424 $185 #
plane-surface $-1 59.524521622363963 0 0 -1 0 0 0 0 1 forward_v I I I I #
coedge $-1 $425 $426 $427 $428 reversed $186 $-1 #
coedge $-1 $429 $188 $190 $300 forward $116 $-1 #
coedge $-1 $188 $429 $425 $430 forward $116 $-1 #
coedge $-1 $427 $191 $188 $297 forward $302 $-1 #
edge $-1 $304 -14.358523408745651 $431 -0.91810987573881775 $296 $432 forward 7 unknown #
coedge $-1 $433 $434 $189 $299 forward $291 $-1 #
edge $-1 $435 -80.989059372602327 $303 -75.724420261762191 $298 $436 forward 7 unknown #
edge $-1 $304 112.17654504807628 $435 119.04904324472797 $190 $437 forward 7 unknown #
coedge $-1 $191 $427 $433 $438 forward $302 $-1 #
loop $-1 $-1 $427 $290 #
vertex $-1 $299 $439 #
vertex $-1 $192 $440 #
straight-curve $-1 37.099065939035974 21.996840050987885 11.00662815547021 -1 0 0 I I #
coedge $-1 $306 $306 $-1 $441 reversed $195 $-1 #
edge $-1 $442 0 $442 6.2831853071796004 $196 $443 forward 7 unknown #
vertex $-1 $199 $444 #
ellipse-curve $-1 57.315743312098711 15.276633284484468 8.374308600050135 0.7660444514056185 0 0.64278759981090561 0.64278759981090561 0 -0.7660444514056185 1 I I #
face $-1 $-1 $322 $30 $-1 $445 reversed single #
loop $-1 $-1 $446 $200 #
plane-surface $-1 0 33.05266780646955 0 0 -1 0 0 0 -1 forward_v I I I I #
coedge $-1 $328 $327 $447 $448 forward $201 $-1 #
coedge $-1 $203 $213 $449 $450 forward $125 $-1 #
coedge $-1 $321 $209 $203 $316 reversed $322 $-1 #
edge $-1 $451 -33.05266780646955 $214 33.05266780646955 $315 $452 forward 7 unknown #
coedge $-1 $205 $204 $327 $453 forward $81 $-1 #
coedge $-1 $446 $447 $204 $319 reversed $311 $-1 #
edge $-1 $324 -59.524521622363963 $454 59.524521622363963 $318 $455 forward 7 unknown #
edge $-1 $329 -59.524521622363963 $323 59.524521622363963 $208 $456 forward 7 unknown #
coedge $-1 $206 $315 $446 $457 reversed $322 $-1 #
loop $-1 $-1 $209 $310 #
vertex $-1 $207 $458 #
vertex $-1 $207 $459 #
straight-curve $-1 59.524521622363963 0 11.006628155470214 0 1 0 I I #
straight-curve $-1 59.524521622363963 -33.05266780646955 0 0 0 -1 I I #
coedge $-1 $313 $211 $317 $453 reversed $201 $-1 #
coedge $-1 $211 $313 $213 $331 reversed $201 $-1 #
vertex $-1 $453 $460 #
straight-curve $-1 -59.524521622363963 -33.05266780646955 0 0 0 -1 I I #
edge $-1 $215 -33.05266780646955 $461 33.05266780646955 $328 $462 forward 7 unknown #
point $-1 59.524521622363963 -33.05266780646955 -11.006628155470214 #
point $-1 -59.524521622363963 -33.05266780646955 -11.006628155470214 #
face $-1 $-1 $351 $31 $-1 $463 forward single #
loop $-1 $-1 $464 $217 #
plane-surface $-1 -45.93368467704444 -37.796004895072095 0 -1 0 0 0 0 1 forward_v I I I I #
coedge $-1 $465 $220 $341 $466 reversed $133 $-1 #
coedge $-1 $220 $465 $467 $468 reversed $133 $-1 #
coedge $-1 $228 $227 $220 $340 reversed $218 $-1 #
edge $-1 $469 -11.006628155470214 $470 11.006628155470214 $339 $471 forward 7 unknown #
coedge $-1 $222 $221 $337 $466 forward $85 $-1 #
coedge $-1 $347 $464 $221 $343 reversed $335 $-1 #
edge $-1 $345 -4.7433370886025443 $472 4.7433370886025443 $342 $473 forward 7 unknown #
edge $-1 $470 -4.7433370886025443 $229 4.7433370886025443 $227 $474 forward 7 unknown #
vertex $-1 $343 $475 #
straight-curve $-1 0 -33.05266780646955 -11.006628155470214 1 0 0 I I #
coedge $-1 $476 $342 $224 $348 reversed $335 $-1 #
edge $-1 $352 -11.006628155470214 $345 11.006628155470214 $347 $477 forward 7 unknown #
coedge $-1 $467 $225 $228 $354 forward $351 $-1 #
coedge $-1 $225 $467 $476 $478 forward $351 $-1 #
loop $-1 $-1 $225 $334 #
vertex $-1 $226 $479 #
straight-curve $-1 0 -33.05266780646955 11.006628155470214 -1 0 0 I I #
edge $-1 $230 -4.7433370886025443 $469 4.7433370886025443 $228 $480 forward 7 unknown #
point $-1 -48.93368467704444 -33.05266780646955 -11.006628155470214 #
point $-1 -48.93368467704444 -33.05266780646955 11.006628155470214 #
plane-surface $-1 0 0 11.006628155470214 0 0 1 1 0 0 forward_v I I I I #
coedge $-1 $368 $367 $360 $481 forward $233 $-1 #
coedge $-1 $360 $235 $237 $364 reversed $141 $-1 #
coedge $-1 $235 $359 $358 $481 reversed $141 $-1 #
coedge $-1 $243 $238 $235 $362 forward $244 $-1 #
edge $-1 $365 -20.253725320734191 $482 -15.8361687002037 $361 $483 forward 7 unknown #
coedge $-1 $237 $236 $368 $484 reversed $89 $-1 #
edge $-1 $485 0 $365 6.8724981966516472 $359 $486 forward 7 unknown #
vertex $-1 $239 $487 #
straight-curve $-1 -55.10696500183348 -2.8949795536396934 11.006628155470214 0 1 0 I I #
coedge $-1 $358 $240 $243 $372 reversed $233 $-1 #
coedge $-1 $240 $358 $363 $484 forward $233 $-1 #
vertex $-1 $241 $488 #
straight-curve $-1 -59.524521622363963 -12.510165873782803 41.132618905846734 0 0 1 I I #
straight-curve $-1 -59.524521622363963 -12.510165873782803 5.7419890446301025 -0.64278759981090561 0 -0.7660444514056185 I I #
edge $-1 $482 -0.93024765922402963 $245 12.510165873782803 $367 $489 forward 7 unknown #
point $-1 -59.524521622363963 -12.510165873782803 11.006628155470214 #
point $-1 -55.106965001833473 -12.510165873782803 11.006628155470214 #
edge $-1 $490 1 $490 0 $248 $-1 forward 7 unknown #
vertex $-1 $249 $491 #
ellipse-curve $-1 -55.205549999535044 -5.7899591072793868 6.6036462161232823 -0.7660444514056185 0 0.64278759981090561 0.64278759981090561 0 0.7660444514056185 1 I I #
point $-1 -56.672955712287816 -5.7899591072793868 9.1403530514557776 #
loop $-1 $-1 $260 $252 #
plane-surface $-1 -59.524521622363963 0 0 1 0 0 0 0 -1 forward_v I I I I #
coedge $-1 $382 $255 $257 $386 reversed $156 $-1 #
coedge $-1 $255 $381 $492 $493 reversed $156 $-1 #
coedge $-1 $263 $258 $255 $384 forward $253 $-1 #
edge $-1 $387 -20.253725320734191 $494 -15.8361687002037 $383 $495 forward 7 unknown #
coedge $-1 $257 $256 $390 $496 reversed $98 $-1 #
edge $-1 $497 0 $387 6.8724981966516472 $381 $498 forward 7 unknown #
vertex $-1 $259 $499 #
straight-curve $-1 -55.10696500183348 7.6383166422422342 11.006628155470214 0 1 0 I I #
coedge $-1 $492 $260 $263 $394 reversed $379 $-1 #
coedge $-1 $260 $492 $385 $496 forward $379 $-1 #
vertex $-1 $261 $500 #
straight-curve $-1 -59.524521622363963 8.5564265179810519 41.132618905846734 0 0 1 I I #
straight-curve $-1 -59.524521622363963 8.5564265179810519 5.7419890446301025 -0.64278759981090561 0 -0.7660444514056185 I I #
edge $-1 $494 -21.996840050987885 $264 -8.5564265179810519 $389 $501 forward 7 unknown #
point $-1 -59.524521622363963 8.5564265179810519 11.006628155470214 #
point $-1 -55.106965001833473 8.5564265179810519 11.006628155470214 #
edge $-1 $502 1 $502 0 $267 $-1 forward 7 unknown #
vertex $-1 $268 $503 #
ellipse-curve $-1 -55.205549999535044 15.276633284484468 6.6036462161232823 -0.7660444514056185 0 0.64278759981090561 0.64278759981090561 0 0.7660444514056185 1 I I #
point $-1 -56.672955712287816 15.276633284484468 9.1403530514557776 #
loop $-1 $-1 $279 $271 #
plane-surface $-1 59.524521622363963 0 0 -1 0 0 0 0 1 forward_v I I I I #
coedge $-1 $404 $274 $276 $408 reversed $171 $-1 #
coedge $-1 $274 $403 $504 $505 reversed $171 $-1 #
coedge $-1 $282 $277 $274 $406 forward $272 $-1 #
edge $-1 $409 18.00789906279747 $506 22.425455683327989 $405 $507 forward 7 unknown #
coedge $-1 $276 $275 $412 $508 reversed $107 $-1 #
edge $-1 $509 -119.04904324472797 $409 -112.17654504807628 $403 $510 forward 7 unknown #
vertex $-1 $278 $511 #
straight-curve $-1 55.106965001833444 -2.8949795536396934 11.00662815547021 0 -1 0 I I #
coedge $-1 $504 $279 $282 $416 reversed $401 $-1 #
coedge $-1 $279 $504 $407 $508 forward $401 $-1 #
vertex $-1 $280 $512 #
straight-curve $-1 59.524521622363963 0.93024765922402963 86.731048417232401 0 0 1 I I #
straight-curve $-1 -16.998727144699416 0.93024765922402963 96.938848067401437 0.64278759981090561 0 -0.7660444514056185 I I #
edge $-1 $506 -12.510165873782803 $283 0.93024765922402963 $411 $513 forward 7 unknown #
point $-1 59.524521622363963 0.93024765922402963 11.006628155470214 #
point $-1 55.106965001833444 0.93024765922402963 11.00662815547021 #
edge $-1 $514 1 $514 0 $286 $-1 forward 7 unknown #
vertex $-1 $287 $515 #
ellipse-curve $-1 55.205549999535059 -5.7899591072793868 6.6036462161232787 0.7660444514056185 0 0.64278759981090561 0.64278759981090561 0 -0.7660444514056185 1 I I #
point $-1 57.958530911909641 -5.7899591072793868 7.6082641486445368 #
plane-surface $-1 0 0 11.006628155470214 0 0 1 1 0 0 forward_v I I I I #
coedge $-1 $434 $433 $426 $516 forward $291 $-1 #
coedge $-1 $426 $293 $295 $430 reversed $186 $-1 #
coedge $-1 $293 $425 $424 $516 reversed $186 $-1 #
coedge $-1 $301 $296 $293 $428 forward $302 $-1 #
edge $-1 $431 18.00789906279747 $517 22.425455683327989 $427 $518 forward 7 unknown #
coedge $-1 $295 $294 $434 $519 reversed $116 $-1 #
edge $-1 $520 -119.04904324472797 $431 -112.17654504807628 $425 $521 forward 7 unknown #
vertex $-1 $297 $522 #
straight-curve $-1 55.106965001833444 7.6383166422422342 11.00662815547021 0 -1 0 I I #
coedge $-1 $424 $298 $301 $438 reversed $291 $-1 #
coedge $-1 $298 $424 $429 $519 forward $291 $-1 #
vertex $-1 $299 $523 #
straight-curve $-1 59.524521622363963 21.996840050987885 86.731048417232401 0 0 1 I I #
straight-curve $-1 -16.998727144699416 21.996840050987885 96.938848067401437 0.64278759981090561 0 -0.7660444514056185 I I #
edge $-1 $517 8.5564265179810519 $303 21.996840050987885 $433 $524 forward 7 unknown #
point $-1 59.524521622363963 21.996840050987885 11.006628155470214 #
point $-1 55.106965001833444 21.996840050987885 11.00662815547021 #
edge $-1 $525 1 $525 0 $306 $-1 forward 7 unknown #
vertex $-1 $307 $526 #
ellipse-curve $-1 55.205549999535059 15.276633284484468 6.6036462161232787 0.7660444514056185 0 0.64278759981090561 0.64278759981090561 0 -0.7660444514056185 1 I I #
point $-1 57.958530911909641 15.276633284484468 7.6082641486445368 #
plane-surface $-1 59.524521622363963 0 0 -1 0 0 0 0 1 forward_v I I I I #
coedge $-1 $449 $318 $321 $457 forward $311 $-1 #
coedge $-1 $318 $449 $313 $448 reversed $311 $-1 #
edge $-1 $454 -11.006628155470214 $461 11.006628155470214 $447 $527 forward 7 unknown #
coedge $-1 $447 $446 $314 $450 reversed $311 $-1 #
edge $-1 $461 -59.524521622363963 $451 59.524521622363963 $449 $528 forward 7 unknown #
vertex $-1 $316 $529 #
straight-curve $-1 59.524521622363963 0 -11.006628155470214 0 -1 0 I I #
edge $-1 $454 -33.05266780646955 $329 33.05266780646955 $327 $530 forward 7 unknown #
vertex $-1 $319 $531 #
straight-curve $-1 0 33.05266780646955 11.006628155470214 -1 0 0 I I #
straight-curve $-1 0 -33.05266780646955 11.006628155470214 1 0 0 I I #
edge $-1 $324 -11.006628155470214 $451 11.006628155470214 $321 $532 forward 7 unknown #
point $-1 59.524521622363963 -33.05266780646955 11.006628155470214 #
point $-1 59.524521622363963 33.05266780646955 11.006628155470214 #
point $-1 -59.524521622363963 -33.05266780646955 11.006628155470214 #
vertex $-1 $450 $533 #
straight-curve $-1 -59.524521622363963 0 -11.006628155470214 0 1 0 I I #
plane-surface $-1 0 0 11.006628155470214 0 0 1 1 0 0 forward_v I I I I #
coedge $-1 $342 $476 $465 $534 forward $335 $-1 #
coedge $-1 $338 $337 $464 $534 reversed $133 $-1 #
edge $-1 $472 -1.5 $470 1.5 $337 $535 forward 7 unknown #
coedge $-1 $350 $349 $338 $468 forward $351 $-1 #
edge $-1 $469 -1.5 $536 1.5 $338 $537 forward 7 unknown #
vertex $-1 $354 $538 #
vertex $-1 $344 $539 #
straight-curve $-1 -48.93368467704444 -42.539341983674639 0 0 0 -1 I I #
vertex $-1 $534 $540 #
straight-curve $-1 -45.93368467704444 -37.796004895072095 -11.006628155470214 0 -1 0 I I #
straight-curve $-1 -48.93368467704444 -37.796004895072095 -11.006628155470214 0 1 0 I I #
point $-1 -45.93368467704444 -33.05266780646955 -11.006628155470214 #
coedge $-1 $464 $347 $350 $478 reversed $335 $-1 #
straight-curve $-1 -45.93368467704444 -33.05266780646955 0 0 0 -1 I I #
edge $-1 $536 -4.7433370886025443 $352 4.7433370886025443 $476 $541 forward 7 unknown #
point $-1 -45.93368467704444 -33.05266780646955 11.006628155470214 #
straight-curve $-1 -48.93368467704444 -37.796004895072095 11.006628155470214 0 -1 0 I I #
edge $-1 $482 30.12599075037652 $485 35.390629861216631 $358 $542 forward 7 unknown #
vertex $-1 $372 $543 #
straight-curve $-1 -75.360690322567663 0.93024765922402963 11.00662815547021 -1 0 0 I I #
edge $-1 $485 -3.825227212863723 $369 9.6151863201431098 $368 $544 forward 7 unknown #
vertex $-1 $484 $545 #
straight-curve $-1 -59.524521622363963 0.93024765922402963 5.7419890446301025 0.64278759981090561 0 0.7660444514056185 I I #
point $-1 -55.106965001833473 0.93024765922402963 11.006628155470214 #
point $-1 -59.524521622363963 -12.510165873782803 5.7419890446301025 #
straight-curve $-1 -59.524521622363963 0 11.006628155470214 0 -1 0 I I #
vertex $-1 $375 $546 #
point $-1 -54.562762399724136 -5.7899591072793868 7.3696906675289009 #
coedge $-1 $390 $389 $382 $493 forward $379 $-1 #
edge $-1 $494 30.12599075037652 $497 35.390629861216631 $492 $547 forward 7 unknown #
vertex $-1 $394 $548 #
straight-curve $-1 -75.360690322567663 21.996840050987885 11.00662815547021 -1 0 0 I I #
edge $-1 $497 -14.358523408745651 $391 -0.91810987573881775 $390 $549 forward 7 unknown #
vertex $-1 $496 $550 #
straight-curve $-1 -59.524521622363963 21.996840050987885 5.7419890446301025 0.64278759981090561 0 0.7660444514056185 I I #
point $-1 -55.106965001833473 21.996840050987885 11.006628155470214 #
point $-1 -59.524521622363963 8.5564265179810519 5.7419890446301025 #
straight-curve $-1 -59.524521622363963 0 11.006628155470214 0 -1 0 I I #
vertex $-1 $397 $551 #
point $-1 -54.562762399724136 15.276633284484468 7.3696906675289009 #
coedge $-1 $412 $411 $404 $505 forward $401 $-1 #
edge $-1 $506 75.724420261762191 $509 80.989059372602327 $504 $552 forward 7 unknown #
vertex $-1 $416 $553 #
straight-curve $-1 37.099065939035974 -12.510165873782803 11.00662815547021 1 0 0 I I #
edge $-1 $509 -9.6151863201431098 $413 3.825227212863723 $412 $554 forward 7 unknown #
vertex $-1 $508 $555 #
straight-curve $-1 -16.998727144699416 -12.510165873782803 96.938848067401437 -0.64278759981090561 0 0.7660444514056185 I I #
point $-1 55.106965001833444 -12.510165873782803 11.00662815547021 #
point $-1 59.524521622363963 0.93024765922402963 5.7419890446300741 #
straight-curve $-1 59.524521622363963 0 11.006628155470214 0 1 0 I I #
vertex $-1 $419 $556 #
point $-1 55.848337599345967 -5.7899591072793868 5.8376017647176601 #
edge $-1 $517 75.724420261762191 $520 80.989059372602327 $424 $557 forward 7 unknown #
vertex $-1 $438 $558 #
straight-curve $-1 37.099065939035974 8.5564265179810519 11.00662815547021 1 0 0 I I #
edge $-1 $520 0.91810987573881775 $435 14.358523408745651 $434 $559 forward 7 unknown #
vertex $-1 $519 $560 #
straight-curve $-1 -16.998727144699416 8.5564265179810519 96.938848067401437 -0.64278759981090561 0 0.7660444514056185 I I #
point $-1 55.106965001833444 8.5564265179810519 11.00662815547021 #
point $-1 59.524521622363963 21.996840050987885 5.7419890446300741 #
straight-curve $-1 59.524521622363963 0 11.006628155470214 0 1 0 I I #
vertex $-1 $441 $561 #
point $-1 55.848337599345967 15.276633284484468 5.8376017647176601 #
straight-curve $-1 -59.524521622363963 33.05266780646955 0 0 0 -1 I I #
straight-curve $-1 0 33.05266780646955 -11.006628155470214 1 0 0 I I #
point $-1 59.524521622363963 33.05266780646955 -11.006628155470214 #
straight-curve $-1 -59.524521622363963 0 11.006628155470214 0 -1 0 I I #
point $-1 -59.524521622363963 33.05266780646955 11.006628155470214 #
straight-curve $-1 59.524521622363963 33.05266780646955 0 0 0 -1 I I #
point $-1 -59.524521622363963 33.05266780646955 -11.006628155470214 #
edge $-1 $536 -11.006628155470214 $472 11.006628155470214 $464 $562 forward 7 unknown #
straight-curve $-1 -47.43368467704444 -42.539341983674639 -11.006628155470214 -1 0 0 I I #
vertex $-1 $478 $563 #
straight-curve $-1 -47.43368467704444 -42.539341983674639 11.006628155470214 1 0 0 I I #
point $-1 -48.93368467704444 -42.539341983674639 11.006628155470214 #
point $-1 -48.93368467704444 -42.539341983674639 -11.006628155470214 #
point $-1 -45.93368467704444 -42.539341983674639 -11.006628155470214 #
straight-curve $-1 -45.93368467704444 -37.796004895072095 11.006628155470214 0 1 0 I I #
straight-curve $-1 -59.524521622363963 0.93024765922402963 41.132618905846734 0 0 -1 I I #
point $-1 -59.524521622363963 0.93024765922402963 11.006628155470214 #
straight-curve $-1 -59.524521622363963 -2.8949795536396934 5.741989044630099 0 -1 0 I I #
point $-1 -59.524521622363963 0.93024765922402963 5.7419890446301025 #
point $-1 -54.439505548129425 -5.7899591072793868 5.9608586163123771 #
straight-curve $-1 -59.524521622363963 21.996840050987885 41.132618905846734 0 0 -1 I I #
point $-1 -59.524521622363963 21.996840050987885 11.006628155470214 #
straight-curve $-1 -59.524521622363963 7.6383166422422342 5.741989044630099 0 -1 0 I I #
point $-1 -59.524521622363963 21.996840050987885 5.7419890446301025 #
point $-1 -54.439505548129425 15.276633284484468 5.9608586163123771 #
straight-curve $-1 59.524521622363963 -12.510165873782803 86.731048417232401 0 0 -1 I I #
point $-1 59.524521622363963 -12.510165873782803 11.006628155470214 #
straight-curve $-1 59.524521622363963 -2.8949795536396934 5.741989044630067 0 1 0 I I #
point $-1 59.524521622363963 -12.510165873782803 5.7419890446300741 #
point $-1 54.439505548129439 -5.7899591072793868 5.9608586163123736 #
straight-curve $-1 59.524521622363963 8.5564265179810519 86.731048417232401 0 0 -1 I I #
point $-1 59.524521622363963 8.5564265179810519 11.006628155470214 #
straight-curve $-1 59.524521622363963 7.6383166422422342 5.741989044630067 0 1 0 I I #
point $-1 59.524521622363963 8.5564265179810519 5.7419890446300741 #
point $-1 54.439505548129439 15.276633284484468 5.9608586163123736 #
straight-curve $-1 -45.93368467704444 -42.539341983674639 0 0 0 -1 I I #
point $-1 -45.93368467704444 -42.539341983674639 11.006628155470214 #
End-of-ACIS-data 