500 0 18 0           
7 Unknown 11 ACIS 5.0 NT 24 Fri Mar 26 19:08:18 1999 
-1 9.9999999999999995e-007 1e-010 
body $-1 $18 $-1 $19 #
body $-1 $20 $-1 $21 #
body $-1 $22 $-1 $23 #
body $-1 $24 $-1 $25 #
body $-1 $26 $-1 $27 #
body $-1 $28 $-1 $29 #
body $-1 $30 $-1 $31 #
body $-1 $32 $-1 $33 #
body $-1 $34 $-1 $35 #
body $-1 $36 $-1 $37 #
body $-1 $38 $-1 $39 #
body $-1 $40 $-1 $41 #
body $-1 $42 $-1 $43 #
body $-1 $44 $-1 $45 #
body $-1 $46 $-1 $47 #
body $-1 $48 $-1 $49 #
body $-1 $50 $-1 $51 #
body $-1 $52 $-1 $53 #
lump $-1 $-1 $54 $0 #
transform $-1 1 0 0 0 1 0 0 0 1 48.169194616534931 22.738911687002901 7.2533845861657067 1 rotate no_reflect no_shear #
lump $-1 $-1 $55 $1 #
transform $-1 1 0 0 0 1 0 0 0 1 48.169194616534931 22.738911687002901 7.2533845861657067 1 rotate no_reflect no_shear #
lump $-1 $-1 $56 $2 #
transform $-1 1 0 0 0 1 0 0 0 1 48.169194616534931 22.738911687002901 7.2533845861657067 1 rotate no_reflect no_shear #
lump $-1 $-1 $57 $3 #
transform $-1 1 0 0 0 1 0 0 0 1 48.169194616534931 22.738911687002901 7.2533845861657067 1 rotate no_reflect no_shear #
lump $-1 $-1 $58 $4 #
transform $-1 1 0 0 0 1 0 0 0 1 48.169194616534931 22.738911687002901 7.2533845861657067 1 rotate no_reflect no_shear #
lump $-1 $-1 $59 $5 #
transform $-1 1 0 0 0 1 0 0 0 1 48.169194616534931 22.738911687002901 7.2533845861657067 1 rotate no_reflect no_shear #
lump $-1 $-1 $60 $6 #
transform $-1 1 0 0 0 1 0 0 0 1 48.169194616534931 22.738911687002901 7.2533845861657067 1 rotate no_reflect no_shear #
lump $-1 $-1 $61 $7 #
transform $-1 1 0 0 0 1 0 0 0 1 48.169194616534931 22.738911687002901 7.2533845861657067 1 rotate no_reflect no_shear #
lump $-1 $-1 $62 $8 #
transform $-1 1 0 0 0 1 0 0 0 1 48.169194616534931 22.738911687002901 7.2533845861657067 1 rotate no_reflect no_shear #
lump $-1 $-1 $63 $9 #
transform $-1 1 0 0 0 1 0 0 0 1 48.169194616534931 22.738911687002901 7.2533845861657067 1 rotate no_reflect no_shear #
lump $-1 $-1 $64 $10 #
transform $-1 1 0 0 0 1 0 0 0 1 48.169194616534931 22.738911687002901 7.2533845861657067 1 rotate no_reflect no_shear #
lump $-1 $-1 $65 $11 #
transform $-1 1 0 0 0 1 0 0 0 1 48.169194616534931 22.738911687002901 7.2533845861657067 1 rotate no_reflect no_shear #
lump $-1 $-1 $66 $12 #
transform $-1 1 0 0 0 1 0 0 0 1 48.169194616534931 22.738911687002901 7.2533845861657067 1 rotate no_reflect no_shear #
lump $-1 $-1 $67 $13 #
transform $-1 1 0 0 0 1 0 0 0 1 48.169194616534931 22.738911687002901 7.2533845861657067 1 rotate no_reflect no_shear #
lump $-1 $-1 $68 $14 #
transform $-1 1 0 0 0 1 0 0 0 1 48.169194616534931 22.738911687002901 7.2533845861657067 1 rotate no_reflect no_shear #
lump $-1 $-1 $69 $15 #
transform $-1 1 0 0 0 1 0 0 0 1 48.169194616534931 22.738911687002901 7.2533845861657067 1 rotate no_reflect no_shear #
lump $-1 $-1 $70 $16 #
transform $-1 1 0 0 0 1 0 0 0 1 48.169194616534931 22.738911687002901 7.2533845861657067 1 rotate no_reflect no_shear #
lump $-1 $-1 $71 $17 #
transform $-1 1 0 0 0 1 0 0 0 1 48.169194616534931 22.738911687002901 7.2533845861657067 1 rotate no_reflect no_shear #
shell $-1 $-1 $-1 $72 $-1 $18 #
shell $-1 $-1 $-1 $73 $-1 $20 #
shell $-1 $-1 $-1 $74 $-1 $22 #
shell $-1 $-1 $-1 $75 $-1 $24 #
shell $-1 $-1 $-1 $76 $-1 $26 #
shell $-1 $-1 $-1 $77 $-1 $28 #
shell $-1 $-1 $-1 $78 $-1 $30 #
shell $-1 $-1 $-1 $79 $-1 $32 #
shell $-1 $-1 $-1 $80 $-1 $34 #
shell $-1 $-1 $-1 $81 $-1 $36 #
shell $-1 $-1 $-1 $82 $-1 $38 #
shell $-1 $-1 $-1 $83 $-1 $40 #
shell $-1 $-1 $-1 $84 $-1 $42 #
shell $-1 $-1 $-1 $85 $-1 $44 #
shell $-1 $-1 $-1 $86 $-1 $46 #
shell $-1 $-1 $-1 $87 $-1 $48 #
shell $-1 $-1 $-1 $88 $-1 $50 #
shell $-1 $-1 $-1 $89 $-1 $52 #
face $-1 $90 $91 $54 $-1 $92 forward single #
face $-1 $93 $94 $55 $-1 $95 reversed single #
face $-1 $96 $97 $56 $-1 $98 reversed single #
face $-1 $99 $100 $57 $-1 $101 forward single #
face $-1 $102 $103 $58 $-1 $104 forward single #
face $-1 $105 $106 $59 $-1 $107 forward single #
face $-1 $108 $109 $60 $-1 $110 reversed single #
face $-1 $111 $112 $61 $-1 $113 forward single #
face $-1 $114 $115 $62 $-1 $116 forward single #
face $-1 $117 $118 $63 $-1 $119 forward single #
face $-1 $120 $121 $64 $-1 $122 reversed single #
face $-1 $123 $124 $65 $-1 $125 forward single #
face $-1 $126 $127 $66 $-1 $128 forward single #
face $-1 $129 $130 $67 $-1 $131 forward single #
face $-1 $132 $133 $68 $-1 $134 reversed single #
face $-1 $135 $136 $69 $-1 $137 forward single #
face $-1 $138 $139 $70 $-1 $140 forward single #
face $-1 $141 $142 $71 $-1 $143 forward single #
face $-1 $144 $145 $54 $-1 $146 reversed single #
loop $-1 $-1 $147 $72 #
plane-surface $-1 0 0 7.2533845861657067 0 0 1 1 0 0 forward_v I I I I #
face $-1 $148 $149 $55 $-1 $150 reversed single #
loop $-1 $-1 $151 $73 #
plane-surface $-1 0 -18.716142138190541 4.2533845861657067 0 0 1 1 0 0 forward_v I I I I #
face $-1 $152 $153 $56 $-1 $154 reversed single #
loop $-1 $-1 $155 $74 #
plane-surface $-1 -110.09431831383344 14.740532542516977 74.954379595897493 0 1 0 -0.64278761758704617 0 0.76604443648966558 forward_v I I I I #
face $-1 $156 $157 $57 $-1 $158 forward single #
loop $-1 $159 $160 $75 #
cone-surface $-1 -43.959547017010138 16.34020837141416 3.5180486959850397 0.64278761758704617 0 -0.76604443648966558 0.38302221824483279 0 0.32139380879352308 1 I I 0 1 0.5 forward I I I I #
face $-1 $161 $162 $58 $-1 $163 forward single #
loop $-1 $164 $165 $76 #
cone-surface $-1 -43.959547017010138 18.739722114759939 3.5180486959850397 0.64278761758704617 0 -0.76604443648966558 0.38302221824483279 0 0.32139380879352308 1 I I 0 1 0.5 forward I I I I #
face $-1 $166 $167 $59 $-1 $168 forward single #
loop $-1 $169 $170 $77 #
cone-surface $-1 -43.959547017010138 21.139235858105717 3.5180486959850397 0.64278761758704617 0 -0.76604443648966558 0.38302221824483279 0 0.32139380879352308 1 I I 0 1 0.5 forward I I I I #
face $-1 $171 $172 $60 $-1 $173 reversed single #
loop $-1 $-1 $174 $78 #
plane-surface $-1 31.565344086375227 -8.50155658334387 135.40496782052793 0 -1 0 -0.61566148304635926 0 -0.78801074757464917 forward_v I I I I #
face $-1 $175 $176 $61 $-1 $177 forward single #
loop $-1 $178 $179 $79 #
cone-surface $-1 43.252453980397242 -13.45500938817132 3.2183543685157887 -0.61566148304635926 0 -0.78801074757464917 0.39400537378732459 0 -0.30783074152317963 1 I I 0 1 0.5 forward I I I I #
face $-1 $180 $181 $62 $-1 $182 forward single #
loop $-1 $183 $184 $80 #
cone-surface $-1 43.252453980397242 -11.597464586361026 3.2183543685157887 -0.61566148304635926 0 -0.78801074757464917 0.39400537378732459 0 -0.30783074152317963 1 I I 0 1 0.5 forward I I I I #
face $-1 $185 $186 $63 $-1 $187 forward single #
loop $-1 $188 $189 $81 #
cone-surface $-1 43.252453980397242 -9.7399197845507324 3.2183543685157887 -0.61566148304635926 0 -0.78801074757464917 0.39400537378732459 0 -0.30783074152317963 1 I I 0 1 0.5 forward I I I I #
face $-1 $190 $191 $64 $-1 $192 reversed single #
loop $-1 $-1 $193 $82 #
plane-surface $-1 31.565344086375227 7.1186775518295153 135.40496782052793 0 -1 0 -0.61566148304635926 0 -0.78801074757464917 forward_v I I I I #
face $-1 $194 $195 $65 $-1 $196 forward single #
loop $-1 $197 $198 $83 #
cone-surface $-1 43.252453980397242 2.1652247470020676 3.2183543685157887 -0.61566148304635926 0 -0.78801074757464917 0.39400537378732459 0 -0.30783074152317963 1 I I 0 1 0.5 forward I I I I #
face $-1 $199 $200 $66 $-1 $201 forward single #
loop $-1 $202 $203 $84 #
cone-surface $-1 43.252453980397242 4.0227695488123594 3.2183543685157887 -0.61566148304635926 0 -0.78801074757464917 0.39400537378732459 0 -0.30783074152317963 1 I I 0 1 0.5 forward I I I I #
face $-1 $204 $205 $67 $-1 $206 forward single #
loop $-1 $207 $208 $85 #
cone-surface $-1 43.252453980397242 5.8803143506226512 3.2183543685157887 -0.61566148304635926 0 -0.78801074757464917 0.39400537378732459 0 -0.30783074152317963 1 I I 0 1 0.5 forward I I I I #
face $-1 $209 $210 $68 $-1 $211 reversed single #
loop $-1 $-1 $212 $86 #
plane-surface $-1 -27.746491503153976 19.643003683985743 59.489281700839015 0.61566148304635926 0 0.78801074757464917 0.78801074757464917 0 -0.61566148304635926 forward_v I I I I #
face $-1 $213 $214 $69 $-1 $215 forward single #
loop $-1 $216 $217 $87 #
cone-surface $-1 43.252453980397242 17.785458882175451 3.2183543685157887 -0.61566148304635926 0 -0.78801074757464917 0.39400537378732459 0 -0.30783074152317963 1 I I 0 1 0.5 forward I I I I #
face $-1 $218 $219 $70 $-1 $220 forward single #
loop $-1 $221 $222 $88 #
cone-surface $-1 43.252453980397242 19.643003683985743 3.2183543685157887 -0.61566148304635926 0 -0.78801074757464917 0.39400537378732459 0 -0.30783074152317963 1 I I 0 1 0.5 forward I I I I #
face $-1 $223 $224 $71 $-1 $225 forward single #
loop $-1 $226 $227 $89 #
cone-surface $-1 43.252453980397242 21.500548485796035 3.2183543685157887 -0.61566148304635926 0 -0.78801074757464917 0.39400537378732459 0 -0.30783074152317963 1 I I 0 1 0.5 forward I I I I #
face $-1 $228 $229 $54 $-1 $230 reversed single #
loop $-1 $-1 $231 $90 #
plane-surface $-1 0 0 -7.2533845861657067 0 0 1 1 0 0 forward_v I I I I #
coedge $-1 $232 $233 $234 $235 forward $91 $-1 #
face $-1 $236 $237 $55 $-1 $238 reversed single #
loop $-1 $-1 $239 $93 #
plane-surface $-1 0 -14.693372589378182 5.7533845861657067 0 -1 0 0 0 -1 forward_v I I I I #
coedge $-1 $240 $241 $242 $243 reversed $94 $-1 #
face $-1 $244 $245 $56 $-1 $246 forward single #
loop $-1 $-1 $247 $96 #
plane-surface $-1 -48.169194616534924 18.739722114759939 1.1548925035284299 -0.64278761758704617 0 0.76604443648966558 0.76604443648966558 0 0.64278761758704617 forward_v I I I I #
coedge $-1 $248 $249 $250 $251 reversed $97 $-1 #
face $-1 $-1 $252 $57 $-1 $253 forward single #
loop $-1 $254 $255 $99 #
cone-surface $-1 -43.223152361420802 16.34020837141416 2.6404477380005904 0.64278761758704617 0 -0.76604443648966558 0.1915111091224164 0 0.16069690439676154 1 I I -0.70710678118654746 0.70710678118654746 0.25 forward I I I I #
loop $-1 $-1 $256 $75 #
coedge $-1 $160 $160 $257 $258 reversed $100 $-1 #
face $-1 $-1 $259 $58 $-1 $260 forward single #
loop $-1 $261 $262 $102 #
cone-surface $-1 -43.223152361420802 18.739722114759939 2.6404477380005904 0.64278761758704617 0 -0.76604443648966558 0.1915111091224164 0 0.16069690439676154 1 I I -0.70710678118654746 0.70710678118654746 0.25 forward I I I I #
loop $-1 $-1 $263 $76 #
coedge $-1 $165 $165 $264 $265 reversed $103 $-1 #
face $-1 $-1 $266 $59 $-1 $267 forward single #
loop $-1 $268 $269 $105 #
cone-surface $-1 -43.223152361420802 21.139235858105717 2.6404477380005904 0.64278761758704617 0 -0.76604443648966558 0.1915111091224164 0 0.16069690439676154 1 I I -0.70710678118654746 0.70710678118654746 0.25 forward I I I I #
loop $-1 $-1 $270 $77 #
coedge $-1 $170 $170 $271 $272 reversed $106 $-1 #
face $-1 $273 $274 $60 $-1 $275 forward single #
loop $-1 $-1 $276 $108 #
plane-surface $-1 -27.746491503153976 -11.597464586361026 59.489281700839015 0.61566148304635926 0 0.78801074757464917 0.78801074757464917 0 -0.61566148304635926 forward_v I I I I #
coedge $-1 $277 $278 $279 $280 reversed $109 $-1 #
face $-1 $-1 $281 $61 $-1 $282 forward single #
loop $-1 $283 $284 $111 #
cone-surface $-1 42.710192002448103 -13.45500938817132 2.5242907014001492 -0.61566148304635926 0 -0.78801074757464917 0.19700268689366229 0 -0.15391537076158981 1 I I -0.70710678118654746 0.70710678118654746 0.25 forward I I I I #
loop $-1 $-1 $285 $79 #
coedge $-1 $179 $179 $286 $287 reversed $112 $-1 #
face $-1 $-1 $288 $62 $-1 $289 forward single #
loop $-1 $290 $291 $114 #
cone-surface $-1 42.710192002448103 -11.597464586361026 2.5242907014001492 -0.61566148304635926 0 -0.78801074757464917 0.19700268689366229 0 -0.15391537076158981 1 I I -0.70710678118654746 0.70710678118654746 0.25 forward I I I I #
loop $-1 $-1 $292 $80 #
coedge $-1 $184 $184 $293 $294 reversed $115 $-1 #
face $-1 $-1 $295 $63 $-1 $296 forward single #
loop $-1 $297 $298 $117 #
cone-surface $-1 42.710192002448103 -9.7399197845507324 2.5242907014001492 -0.61566148304635926 0 -0.78801074757464917 0.19700268689366229 0 -0.15391537076158981 1 I I -0.70710678118654746 0.70710678118654746 0.25 forward I I I I #
loop $-1 $-1 $299 $81 #
coedge $-1 $189 $189 $300 $301 reversed $118 $-1 #
face $-1 $302 $303 $64 $-1 $304 reversed single #
loop $-1 $-1 $305 $120 #
plane-surface $-1 -27.746491503153976 4.0227695488123594 59.489281700839015 0.61566148304635926 0 0.78801074757464917 0.78801074757464917 0 -0.61566148304635926 forward_v I I I I #
coedge $-1 $306 $307 $308 $309 reversed $121 $-1 #
face $-1 $-1 $310 $65 $-1 $311 forward single #
loop $-1 $312 $313 $123 #
cone-surface $-1 42.710192002448103 2.1652247470020676 2.5242907014001492 -0.61566148304635926 0 -0.78801074757464917 0.19700268689366229 0 -0.15391537076158981 1 I I -0.70710678118654746 0.70710678118654746 0.25 forward I I I I #
loop $-1 $-1 $314 $83 #
coedge $-1 $198 $198 $315 $316 reversed $124 $-1 #
face $-1 $-1 $317 $66 $-1 $318 forward single #
loop $-1 $319 $320 $126 #
cone-surface $-1 42.710192002448103 4.0227695488123594 2.5242907014001492 -0.61566148304635926 0 -0.78801074757464917 0.19700268689366229 0 -0.15391537076158981 1 I I -0.70710678118654746 0.70710678118654746 0.25 forward I I I I #
loop $-1 $-1 $321 $84 #
coedge $-1 $203 $203 $322 $323 reversed $127 $-1 #
face $-1 $-1 $324 $67 $-1 $325 forward single #
loop $-1 $326 $327 $129 #
cone-surface $-1 42.710192002448103 5.8803143506226512 2.5242907014001492 -0.61566148304635926 0 -0.78801074757464917 0.19700268689366229 0 -0.15391537076158981 1 I I -0.70710678118654746 0.70710678118654746 0.25 forward I I I I #
loop $-1 $-1 $328 $85 #
coedge $-1 $208 $208 $329 $330 reversed $130 $-1 #
face $-1 $331 $332 $68 $-1 $333 reversed single #
loop $-1 $-1 $334 $132 #
plane-surface $-1 31.565344086375227 16.547095680968589 135.40496782052793 0 1 0 0.61566148304635926 0 0.78801074757464917 forward_v I I I I #
coedge $-1 $335 $336 $337 $338 reversed $133 $-1 #
face $-1 $-1 $339 $69 $-1 $340 forward single #
loop $-1 $341 $342 $135 #
cone-surface $-1 42.710192002448103 17.785458882175451 2.5242907014001492 -0.61566148304635926 0 -0.78801074757464917 0.19700268689366229 0 -0.15391537076158981 1 I I -0.70710678118654746 0.70710678118654746 0.25 forward I I I I #
loop $-1 $-1 $343 $87 #
coedge $-1 $217 $217 $344 $345 reversed $136 $-1 #
face $-1 $-1 $346 $70 $-1 $347 forward single #
loop $-1 $348 $349 $138 #
cone-surface $-1 42.710192002448103 19.643003683985743 2.5242907014001492 -0.61566148304635926 0 -0.78801074757464917 0.19700268689366229 0 -0.15391537076158981 1 I I -0.70710678118654746 0.70710678118654746 0.25 forward I I I I #
loop $-1 $-1 $350 $88 #
coedge $-1 $222 $222 $351 $352 reversed $139 $-1 #
face $-1 $-1 $353 $71 $-1 $354 forward single #
loop $-1 $355 $356 $141 #
cone-surface $-1 42.710192002448103 21.500548485796035 2.5242907014001492 -0.61566148304635926 0 -0.78801074757464917 0.19700268689366229 0 -0.15391537076158981 1 I I -0.70710678118654746 0.70710678118654746 0.25 forward I I I I #
loop $-1 $-1 $357 $89 #
coedge $-1 $227 $227 $358 $359 reversed $142 $-1 #
face $-1 $360 $361 $54 $-1 $362 reversed single #
loop $-1 $-1 $363 $144 #
plane-surface $-1 0 -22.738911687002901 0 0 1 0 0 0 1 forward_v I I I I #
coedge $-1 $364 $365 $366 $367 forward $145 $-1 #
coedge $-1 $368 $147 $369 $370 forward $91 $-1 #
coedge $-1 $147 $368 $371 $372 forward $91 $-1 #
coedge $-1 $373 $374 $147 $235 reversed $375 $-1 #
edge $-1 $376 -22.738911687002901 $377 22.738911687002901 $234 $378 forward 7 unknown #
face $-1 $379 $380 $55 $-1 $381 reversed single #
loop $-1 $-1 $382 $148 #
plane-surface $-1 -48.169194616534931 0 0 1 0 0 0 0 -1 forward_v I I I I #
coedge $-1 $383 $384 $385 $386 reversed $149 $-1 #
coedge $-1 $387 $151 $388 $389 reversed $94 $-1 #
coedge $-1 $151 $387 $383 $390 forward $94 $-1 #
coedge $-1 $385 $391 $151 $243 forward $392 $-1 #
edge $-1 $393 -13.38084061790763 $394 -5.3353015202829113 $242 $395 forward 7 unknown #
face $-1 $396 $397 $56 $-1 $398 reversed single #
loop $-1 $-1 $250 $152 #
plane-surface $-1 0 0 7.2533845861657067 0 0 1 1 0 0 forward_v I I I I #
coedge $-1 $399 $400 $401 $402 reversed $153 $-1 #
coedge $-1 $249 $155 $403 $404 reversed $97 $-1 #
coedge $-1 $155 $248 $399 $405 reversed $97 $-1 #
coedge $-1 $401 $406 $155 $251 forward $245 $-1 #
edge $-1 $407 6.8779645403817895 $408 14.145864237046254 $250 $409 forward 7 unknown #
loop $-1 $-1 $257 $156 #
plane-surface $-1 -48.169194616534924 18.739722114759939 1.1548925035284299 -0.64278761758704617 0 0.76604443648966558 0.76604443648966558 0 0.64278761758704617 forward_v I I I I #
loop $-1 $-1 $410 $99 #
coedge $-1 $255 $255 $256 $411 reversed $157 $-1 #
coedge $-1 $256 $256 $255 $411 forward $159 $-1 #
coedge $-1 $257 $257 $160 $258 forward $252 $-1 #
edge $-1 $412 0 $412 6.2831853071796004 $257 $413 forward 7 unknown #
loop $-1 $-1 $264 $161 #
plane-surface $-1 -48.169194616534924 18.739722114759939 1.1548925035284299 -0.64278761758704617 0 0.76604443648966558 0.76604443648966558 0 0.64278761758704617 forward_v I I I I #
loop $-1 $-1 $414 $102 #
coedge $-1 $262 $262 $263 $415 reversed $162 $-1 #
coedge $-1 $263 $263 $262 $415 forward $164 $-1 #
coedge $-1 $264 $264 $165 $265 forward $259 $-1 #
edge $-1 $416 0 $416 6.2831853071796004 $264 $417 forward 7 unknown #
loop $-1 $-1 $271 $166 #
plane-surface $-1 -48.169194616534924 18.739722114759939 1.1548925035284299 -0.64278761758704617 0 0.76604443648966558 0.76604443648966558 0 0.64278761758704617 forward_v I I I I #
loop $-1 $-1 $418 $105 #
coedge $-1 $269 $269 $270 $419 reversed $167 $-1 #
coedge $-1 $270 $270 $269 $419 forward $169 $-1 #
coedge $-1 $271 $271 $170 $272 forward $266 $-1 #
edge $-1 $420 0 $420 6.2831853071796004 $271 $421 forward 7 unknown #
face $-1 $422 $423 $60 $-1 $424 forward single #
loop $-1 $-1 $425 $171 #
plane-surface $-1 0 -14.693372589378182 5.7533845861657067 0 -1 0 0 0 -1 forward_v I I I I #
coedge $-1 $426 $427 $428 $429 reversed $172 $-1 #
coedge $-1 $278 $174 $430 $431 reversed $109 $-1 #
coedge $-1 $174 $277 $426 $432 reversed $109 $-1 #
coedge $-1 $428 $433 $174 $280 forward $423 $-1 #
edge $-1 $434 -32.386522573347321 $435 -23.32973451544709 $279 $436 forward 7 unknown #
loop $-1 $-1 $286 $175 #
plane-surface $-1 -27.746491503153976 -11.597464586361026 59.489281700839015 0.61566148304635926 0 0.78801074757464917 0.78801074757464917 0 -0.61566148304635926 forward_v I I I I #
loop $-1 $-1 $437 $111 #
coedge $-1 $284 $284 $285 $438 reversed $176 $-1 #
coedge $-1 $285 $285 $284 $438 forward $178 $-1 #
coedge $-1 $286 $286 $179 $287 forward $281 $-1 #
edge $-1 $439 0 $439 6.2831853071796004 $286 $440 forward 7 unknown #
loop $-1 $-1 $293 $180 #
plane-surface $-1 -27.746491503153976 -11.597464586361026 59.489281700839015 0.61566148304635926 0 0.78801074757464917 0.78801074757464917 0 -0.61566148304635926 forward_v I I I I #
loop $-1 $-1 $441 $114 #
coedge $-1 $291 $291 $292 $442 reversed $181 $-1 #
coedge $-1 $292 $292 $291 $442 forward $183 $-1 #
coedge $-1 $293 $293 $184 $294 forward $288 $-1 #
edge $-1 $443 0 $443 6.2831853071796004 $293 $444 forward 7 unknown #
loop $-1 $-1 $300 $185 #
plane-surface $-1 -27.746491503153976 -11.597464586361026 59.489281700839015 0.61566148304635926 0 0.78801074757464917 0.78801074757464917 0 -0.61566148304635926 forward_v I I I I #
loop $-1 $-1 $445 $117 #
coedge $-1 $298 $298 $299 $446 reversed $186 $-1 #
coedge $-1 $299 $299 $298 $446 forward $188 $-1 #
coedge $-1 $300 $300 $189 $301 forward $295 $-1 #
edge $-1 $447 0 $447 6.2831853071796004 $300 $448 forward 7 unknown #
face $-1 $449 $450 $64 $-1 $451 reversed single #
loop $-1 $-1 $452 $190 #
plane-surface $-1 31.565344086375227 0.92686154579520341 135.40496782052793 0 1 0 0.61566148304635926 0 0.78801074757464917 forward_v I I I I #
coedge $-1 $453 $454 $455 $456 reversed $191 $-1 #
coedge $-1 $307 $193 $457 $458 reversed $121 $-1 #
coedge $-1 $193 $306 $453 $459 reversed $121 $-1 #
coedge $-1 $455 $460 $193 $309 forward $461 $-1 #
edge $-1 $462 -32.386522573347321 $463 -23.32973451544709 $308 $464 forward 7 unknown #
loop $-1 $-1 $315 $194 #
plane-surface $-1 -27.746491503153976 4.0227695488123594 59.489281700839015 0.61566148304635926 0 0.78801074757464917 0.78801074757464917 0 -0.61566148304635926 forward_v I I I I #
loop $-1 $-1 $465 $123 #
coedge $-1 $313 $313 $314 $466 reversed $195 $-1 #
coedge $-1 $314 $314 $313 $466 forward $197 $-1 #
coedge $-1 $315 $315 $198 $316 forward $310 $-1 #
edge $-1 $467 0 $467 6.2831853071796004 $315 $468 forward 7 unknown #
loop $-1 $-1 $322 $199 #
plane-surface $-1 -27.746491503153976 4.0227695488123594 59.489281700839015 0.61566148304635926 0 0.78801074757464917 0.78801074757464917 0 -0.61566148304635926 forward_v I I I I #
loop $-1 $-1 $469 $126 #
coedge $-1 $320 $320 $321 $470 reversed $200 $-1 #
coedge $-1 $321 $321 $320 $470 forward $202 $-1 #
coedge $-1 $322 $322 $203 $323 forward $317 $-1 #
edge $-1 $471 0 $471 6.2831853071796004 $322 $472 forward 7 unknown #
loop $-1 $-1 $329 $204 #
plane-surface $-1 -27.746491503153976 4.0227695488123594 59.489281700839015 0.61566148304635926 0 0.78801074757464917 0.78801074757464917 0 -0.61566148304635926 forward_v I I I I #
loop $-1 $-1 $473 $129 #
coedge $-1 $327 $327 $328 $474 reversed $205 $-1 #
coedge $-1 $328 $328 $327 $474 forward $207 $-1 #
coedge $-1 $329 $329 $208 $330 forward $324 $-1 #
edge $-1 $475 0 $475 6.2831853071796004 $329 $476 forward 7 unknown #
face $-1 $477 $478 $68 $-1 $479 forward single #
loop $-1 $-1 $480 $209 #
plane-surface $-1 48.169194616534931 0 0 -1 0 0 0 0 1 forward_v I I I I #
coedge $-1 $481 $482 $483 $484 reversed $210 $-1 #
coedge $-1 $485 $212 $486 $487 reversed $133 $-1 #
coedge $-1 $212 $485 $481 $488 forward $133 $-1 #
coedge $-1 $483 $489 $212 $338 forward $478 $-1 #
edge $-1 $490 -12.917409845010026 $491 -6.7255938389757173 $337 $492 forward 7 unknown #
loop $-1 $-1 $344 $213 #
plane-surface $-1 -27.746491503153976 19.643003683985743 59.489281700839015 0.61566148304635926 0 0.78801074757464917 0.78801074757464917 0 -0.61566148304635926 forward_v I I I I #
loop $-1 $-1 $493 $135 #
coedge $-1 $342 $342 $343 $494 reversed $214 $-1 #
coedge $-1 $343 $343 $342 $494 forward $216 $-1 #
coedge $-1 $344 $344 $217 $345 forward $339 $-1 #
edge $-1 $495 0 $495 6.2831853071796004 $344 $496 forward 7 unknown #
loop $-1 $-1 $351 $218 #
plane-surface $-1 -27.746491503153976 19.643003683985743 59.489281700839015 0.61566148304635926 0 0.78801074757464917 0.78801074757464917 0 -0.61566148304635926 forward_v I I I I #
loop $-1 $-1 $497 $138 #
coedge $-1 $349 $349 $350 $498 reversed $219 $-1 #
coedge $-1 $350 $350 $349 $498 forward $221 $-1 #
coedge $-1 $351 $351 $222 $352 forward $346 $-1 #
edge $-1 $499 0 $499 6.2831853071796004 $351 $500 forward 7 unknown #
loop $-1 $-1 $358 $223 #
plane-surface $-1 -27.746491503153976 19.643003683985743 59.489281700839015 0.61566148304635926 0 0.78801074757464917 0.78801074757464917 0 -0.61566148304635926 forward_v I I I I #
loop $-1 $-1 $501 $141 #
coedge $-1 $356 $356 $357 $502 reversed $224 $-1 #
coedge $-1 $357 $357 $356 $502 forward $226 $-1 #
coedge $-1 $358 $358 $227 $359 forward $353 $-1 #
edge $-1 $503 0 $503 6.2831853071796004 $358 $504 forward 7 unknown #
face $-1 $505 $506 $54 $-1 $507 reversed single #
loop $-1 $-1 $508 $228 #
plane-surface $-1 -48.169194616534931 0 0 1 0 0 0 0 -1 forward_v I I I I #
coedge $-1 $509 $371 $510 $511 forward $229 $-1 #
coedge $-1 $512 $231 $509 $513 forward $145 $-1 #
coedge $-1 $231 $512 $514 $515 forward $145 $-1 #
coedge $-1 $374 $373 $231 $367 reversed $375 $-1 #
edge $-1 $516 -22.738911687002901 $517 22.738911687002901 $366 $518 forward 7 unknown #
coedge $-1 $233 $232 $519 $520 forward $91 $-1 #
coedge $-1 $521 $522 $232 $370 reversed $506 $-1 #
edge $-1 $377 -48.169194616534931 $523 48.169194616534931 $369 $524 forward 7 unknown #
coedge $-1 $363 $525 $233 $372 reversed $229 $-1 #
edge $-1 $526 -48.169194616534931 $376 48.169194616534931 $371 $527 forward 7 unknown #
coedge $-1 $366 $234 $525 $528 forward $375 $-1 #
coedge $-1 $234 $366 $521 $529 reversed $375 $-1 #
loop $-1 $-1 $373 $505 #
vertex $-1 $235 $530 #
vertex $-1 $235 $531 #
straight-curve $-1 48.169194616534931 0 7.2533845861657067 0 1 0 I I #
face $-1 $532 $533 $55 $-1 $534 forward single #
loop $-1 $-1 $388 $236 #
plane-surface $-1 0 -22.738911687002901 0 0 1 0 0 0 1 forward_v I I I I #
coedge $-1 $535 $536 $537 $538 forward $237 $-1 #
coedge $-1 $537 $239 $241 $390 reversed $149 $-1 #
coedge $-1 $239 $537 $539 $540 reversed $149 $-1 #
coedge $-1 $541 $242 $239 $386 forward $392 $-1 #
edge $-1 $394 1.3766922930828533 $542 4.3766922930828533 $385 $543 forward 7 unknown #
coedge $-1 $241 $240 $535 $544 reversed $94 $-1 #
coedge $-1 $545 $546 $240 $389 forward $380 $-1 #
edge $-1 $547 -48.169194616534931 $393 48.169194616534931 $388 $548 forward 7 unknown #
edge $-1 $549 -48.169194616534931 $394 48.169194616534931 $383 $550 forward 7 unknown #
coedge $-1 $242 $541 $545 $551 forward $392 $-1 #
loop $-1 $-1 $385 $532 #
vertex $-1 $389 $552 #
vertex $-1 $243 $553 #
straight-curve $-1 48.169194616534931 -9.3580710690952706 4.2533845861657067 0 1 0 I I #
face $-1 $-1 $554 $56 $-1 $555 reversed single #
loop $-1 $-1 $556 $244 #
plane-surface $-1 0 22.738911687002901 0 0 -1 0 0 0 -1 forward_v I I I I #
coedge $-1 $557 $247 $249 $405 forward $153 $-1 #
coedge $-1 $247 $557 $556 $558 reversed $153 $-1 #
coedge $-1 $559 $250 $247 $402 forward $245 $-1 #
edge $-1 $408 5.3706714851370077 $560 13.369050629622931 $401 $561 forward 7 unknown #
coedge $-1 $562 $563 $248 $404 forward $554 $-1 #
edge $-1 $564 -36.322297294420324 $407 -30.223805211783038 $403 $565 forward 7 unknown #
edge $-1 $408 -9.4875693242666141 $564 9.2967162063127932e-015 $249 $566 forward 7 unknown #
coedge $-1 $250 $559 $562 $567 forward $245 $-1 #
vertex $-1 $404 $568 #
vertex $-1 $251 $569 #
straight-curve $-1 -55.04715915691672 14.740532542516977 7.2533845861657085 1 0 0 I I #
coedge $-1 $410 $410 $-1 $570 reversed $254 $-1 #
edge $-1 $571 0 $571 6.2831853071796004 $255 $572 forward 7 unknown #
vertex $-1 $258 $573 #
ellipse-curve $-1 -44.535244768202702 16.34020837141416 4.204138544847063 -0.64278761758704617 0 0.76604443648966558 0.38302221824483279 0 0.32139380879352308 1 I I #
coedge $-1 $414 $414 $-1 $574 reversed $261 $-1 #
edge $-1 $575 0 $575 6.2831853071796004 $262 $576 forward 7 unknown #
vertex $-1 $265 $577 #
ellipse-curve $-1 -44.535244768202702 18.739722114759939 4.204138544847063 -0.64278761758704617 0 0.76604443648966558 0.38302221824483279 0 0.32139380879352308 1 I I #
coedge $-1 $418 $418 $-1 $578 reversed $268 $-1 #
edge $-1 $579 0 $579 6.2831853071796004 $269 $580 forward 7 unknown #
vertex $-1 $272 $581 #
ellipse-curve $-1 -44.535244768202702 21.139235858105717 4.204138544847063 -0.64278761758704617 0 0.76604443648966558 0.38302221824483279 0 0.32139380879352308 1 I I #
face $-1 $-1 $582 $60 $-1 $583 reversed single #
loop $-1 $-1 $428 $273 #
plane-surface $-1 0 0 7.2533845861657067 0 0 1 1 0 0 forward_v I I I I #
coedge $-1 $584 $585 $427 $586 reversed $274 $-1 #
coedge $-1 $587 $276 $278 $432 forward $172 $-1 #
coedge $-1 $276 $587 $425 $586 forward $172 $-1 #
coedge $-1 $588 $279 $276 $429 forward $423 $-1 #
edge $-1 $435 2.702824290163357 $589 8.8946402961976681 $428 $590 forward 7 unknown #
coedge $-1 $591 $592 $277 $431 forward $582 $-1 #
edge $-1 $593 -67.525037798954145 $434 -60.449099324098256 $430 $594 forward 7 unknown #
edge $-1 $435 84.845160129564164 $593 96.338389233069847 $278 $595 forward 7 unknown #
coedge $-1 $279 $588 $591 $596 forward $423 $-1 #
vertex $-1 $431 $597 #
vertex $-1 $280 $598 #
straight-curve $-1 15.782672043187613 -8.50155658334387 7.2533845861657085 -1 0 0 I I #
coedge $-1 $437 $437 $-1 $599 reversed $283 $-1 #
edge $-1 $600 0 $600 6.2831853071796004 $284 $601 forward 7 unknown #
vertex $-1 $287 $602 #
ellipse-curve $-1 43.640800587584799 -13.45500938817132 3.7154153487377801 0.61566148304635926 0 0.78801074757464917 0.39400537378732459 0 -0.30783074152317963 1 I I #
coedge $-1 $441 $441 $-1 $603 reversed $290 $-1 #
edge $-1 $604 0 $604 6.2831853071796004 $291 $605 forward 7 unknown #
vertex $-1 $294 $606 #
ellipse-curve $-1 43.640800587584799 -11.597464586361026 3.7154153487377801 0.61566148304635926 0 0.78801074757464917 0.39400537378732459 0 -0.30783074152317963 1 I I #
coedge $-1 $445 $445 $-1 $607 reversed $297 $-1 #
edge $-1 $608 0 $608 6.2831853071796004 $298 $609 forward 7 unknown #
vertex $-1 $301 $610 #
ellipse-curve $-1 43.640800587584799 -9.7399197845507324 3.7154153487377801 0.61566148304635926 0 0.78801074757464917 0.39400537378732459 0 -0.30783074152317963 1 I I #
face $-1 $-1 $461 $64 $-1 $611 forward single #
loop $-1 $-1 $612 $302 #
plane-surface $-1 48.169194616534931 0 0 -1 0 0 0 0 1 forward_v I I I I #
coedge $-1 $613 $614 $615 $616 reversed $303 $-1 #
coedge $-1 $617 $305 $307 $459 forward $191 $-1 #
coedge $-1 $305 $617 $613 $618 forward $191 $-1 #
coedge $-1 $615 $308 $305 $456 forward $461 $-1 #
edge $-1 $463 -5.1072927774233357 $619 1.0845232286109763 $455 $620 forward 7 unknown #
coedge $-1 $621 $622 $306 $458 forward $450 $-1 #
edge $-1 $623 -67.525037798954145 $462 -60.449099324098256 $457 $624 forward 7 unknown #
edge $-1 $463 84.845160129564164 $623 96.338389233069847 $307 $625 forward 7 unknown #
coedge $-1 $308 $615 $621 $626 forward $461 $-1 #
loop $-1 $-1 $615 $449 #
vertex $-1 $458 $627 #
vertex $-1 $309 $628 #
straight-curve $-1 15.782672043187613 7.1186775518295153 7.2533845861657085 -1 0 0 I I #
coedge $-1 $465 $465 $-1 $629 reversed $312 $-1 #
edge $-1 $630 0 $630 6.2831853071796004 $313 $631 forward 7 unknown #
vertex $-1 $316 $632 #
ellipse-curve $-1 43.640800587584799 2.1652247470020676 3.7154153487377801 0.61566148304635926 0 0.78801074757464917 0.39400537378732459 0 -0.30783074152317963 1 I I #
coedge $-1 $469 $469 $-1 $633 reversed $319 $-1 #
edge $-1 $634 0 $634 6.2831853071796004 $320 $635 forward 7 unknown #
vertex $-1 $323 $636 #
ellipse-curve $-1 43.640800587584799 4.0227695488123594 3.7154153487377801 0.61566148304635926 0 0.78801074757464917 0.39400537378732459 0 -0.30783074152317963 1 I I #
coedge $-1 $473 $473 $-1 $637 reversed $326 $-1 #
edge $-1 $638 0 $638 6.2831853071796004 $327 $639 forward 7 unknown #
vertex $-1 $330 $640 #
ellipse-curve $-1 43.640800587584799 5.8803143506226512 3.7154153487377801 0.61566148304635926 0 0.78801074757464917 0.39400537378732459 0 -0.30783074152317963 1 I I #
face $-1 $-1 $641 $68 $-1 $642 reversed single #
loop $-1 $-1 $483 $331 #
plane-surface $-1 0 0 7.2533845861657067 0 0 1 1 0 0 forward_v I I I I #
coedge $-1 $643 $644 $482 $645 forward $332 $-1 #
coedge $-1 $482 $334 $336 $488 reversed $210 $-1 #
coedge $-1 $334 $481 $480 $645 reversed $210 $-1 #
coedge $-1 $646 $337 $334 $484 forward $478 $-1 #
edge $-1 $491 23.32973451544709 $647 32.386522573347321 $483 $648 forward 7 unknown #
coedge $-1 $336 $335 $643 $649 reversed $133 $-1 #
coedge $-1 $650 $651 $335 $487 forward $641 $-1 #
edge $-1 $652 -67.093492778432235 $490 -55.600263674926566 $486 $653 forward 7 unknown #
edge $-1 $654 -96.338389233069847 $491 -84.845160129564164 $481 $655 forward 7 unknown #
coedge $-1 $337 $646 $650 $656 forward $478 $-1 #
vertex $-1 $487 $657 #
vertex $-1 $338 $658 #
straight-curve $-1 39.112406558634703 9.8215018419928715 7.2533845861657014 0 -1 0 I I #
coedge $-1 $493 $493 $-1 $659 reversed $341 $-1 #
edge $-1 $660 0 $660 6.2831853071796004 $342 $661 forward 7 unknown #
vertex $-1 $345 $662 #
ellipse-curve $-1 43.640800587584799 17.785458882175451 3.7154153487377801 0.61566148304635926 0 0.78801074757464917 0.39400537378732459 0 -0.30783074152317963 1 I I #
coedge $-1 $497 $497 $-1 $663 reversed $348 $-1 #
edge $-1 $664 0 $664 6.2831853071796004 $349 $665 forward 7 unknown #
vertex $-1 $352 $666 #
ellipse-curve $-1 43.640800587584799 19.643003683985743 3.7154153487377801 0.61566148304635926 0 0.78801074757464917 0.39400537378732459 0 -0.30783074152317963 1 I I #
coedge $-1 $501 $501 $-1 $667 reversed $355 $-1 #
edge $-1 $668 0 $668 6.2831853071796004 $356 $669 forward 7 unknown #
vertex $-1 $359 $670 #
ellipse-curve $-1 43.640800587584799 21.500548485796035 3.7154153487377801 0.61566148304635926 0 0.78801074757464917 0.39400537378732459 0 -0.30783074152317963 1 I I #
face $-1 $-1 $375 $54 $-1 $671 reversed single #
loop $-1 $-1 $521 $360 #
plane-surface $-1 0 22.738911687002901 0 0 -1 0 0 0 -1 forward_v I I I I #
coedge $-1 $672 $519 $522 $673 forward $361 $-1 #
coedge $-1 $525 $363 $364 $513 reversed $229 $-1 #
coedge $-1 $519 $672 $363 $511 reversed $361 $-1 #
edge $-1 $526 -7.2533845861657067 $674 7.2533845861657067 $510 $675 forward 7 unknown #
coedge $-1 $365 $364 $672 $676 forward $145 $-1 #
edge $-1 $517 -48.169194616534931 $674 48.169194616534931 $509 $677 forward 7 unknown #
coedge $-1 $522 $521 $365 $515 reversed $506 $-1 #
edge $-1 $678 -48.169194616534931 $516 48.169194616534931 $514 $679 forward 7 unknown #
vertex $-1 $367 $680 #
vertex $-1 $528 $681 #
straight-curve $-1 48.169194616534931 0 -7.2533845861657067 0 -1 0 I I #
coedge $-1 $508 $510 $368 $520 reversed $361 $-1 #
edge $-1 $523 -22.738911687002901 $526 22.738911687002901 $519 $682 forward 7 unknown #
coedge $-1 $514 $369 $374 $529 forward $506 $-1 #
coedge $-1 $369 $514 $508 $673 reversed $506 $-1 #
vertex $-1 $370 $683 #
straight-curve $-1 0 22.738911687002901 7.2533845861657067 -1 0 0 I I #
coedge $-1 $371 $509 $373 $528 reversed $229 $-1 #
vertex $-1 $520 $684 #
straight-curve $-1 0 -22.738911687002901 7.2533845861657067 1 0 0 I I #
edge $-1 $376 -7.2533845861657067 $517 7.2533845861657067 $373 $685 forward 7 unknown #
edge $-1 $377 -7.2533845861657067 $516 7.2533845861657067 $374 $686 forward 7 unknown #
point $-1 48.169194616534931 -22.738911687002901 7.2533845861657067 #
point $-1 48.169194616534931 22.738911687002901 7.2533845861657067 #
face $-1 $-1 $392 $55 $-1 $687 reversed single #
loop $-1 $-1 $539 $379 #
plane-surface $-1 0 0 7.2533845861657067 0 0 1 1 0 0 forward_v I I I I #
coedge $-1 $688 $382 $387 $544 forward $237 $-1 #
coedge $-1 $382 $688 $689 $690 reversed $237 $-1 #
coedge $-1 $384 $383 $382 $538 reversed $149 $-1 #
edge $-1 $691 -4.3766922930828533 $549 -1.3766922930828533 $382 $692 forward 7 unknown #
coedge $-1 $689 $693 $384 $540 forward $533 $-1 #
edge $-1 $542 -48.169194616534931 $691 48.169194616534931 $539 $694 forward 7 unknown #
coedge $-1 $391 $385 $693 $695 reversed $392 $-1 #
vertex $-1 $386 $696 #
straight-curve $-1 48.169194616534931 -14.693372589378182 2.8766922930828533 0 0 1 I I #
edge $-1 $549 5.3353015202829113 $547 13.38084061790763 $535 $697 forward 7 unknown #
coedge $-1 $698 $388 $391 $551 reversed $380 $-1 #
coedge $-1 $388 $698 $688 $699 forward $380 $-1 #
vertex $-1 $389 $700 #
straight-curve $-1 0 -22.738911687002901 4.2533845861657067 1 0 0 I I #
vertex $-1 $544 $701 #
straight-curve $-1 0 -14.693372589378182 4.2533845861657067 1 0 0 I I #
edge $-1 $702 -7.2533845861657067 $393 -4.2533845861657067 $391 $703 forward 7 unknown #
point $-1 48.169194616534931 -22.738911687002901 4.2533845861657067 #
point $-1 48.169194616534931 -14.693372589378182 4.2533845861657067 #
loop $-1 $-1 $403 $396 #
plane-surface $-1 -48.169194616534931 0 0 1 0 0 0 0 -1 forward_v I I I I #
coedge $-1 $704 $705 $400 $558 forward $397 $-1 #
coedge $-1 $400 $399 $563 $706 reversed $153 $-1 #
edge $-1 $560 8.5911271483695604 $707 18.078696472636182 $556 $708 forward 7 unknown #
coedge $-1 $406 $401 $705 $709 forward $245 $-1 #
vertex $-1 $709 $710 #
straight-curve $-1 -40.901294919870473 9.3698610573799694 7.2533845861657076 0 1 0 I I #
coedge $-1 $711 $403 $406 $567 reversed $554 $-1 #
coedge $-1 $403 $711 $557 $706 forward $554 $-1 #
vertex $-1 $404 $712 #
straight-curve $-1 -48.169194616534931 14.740532542516977 37.477189797948746 0 0 1 I I #
straight-curve $-1 -48.169194616534924 14.740532542516977 1.1548925035284299 -0.76604443648966558 0 -0.64278761758704617 I I #
edge $-1 $713 -22.738911687002901 $407 -14.740532542516977 $562 $714 forward 7 unknown #
point $-1 -48.169194616534931 14.740532542516977 7.2533845861657067 #
point $-1 -40.901294919870466 14.740532542516977 7.2533845861657067 #
edge $-1 $715 1 $715 0 $410 $-1 forward 7 unknown #
vertex $-1 $411 $716 #
ellipse-curve $-1 -43.38384926581756 16.34020837141416 2.8319588471230066 -0.64278761758704617 0 0.76604443648966558 0.38302221824483279 0 0.32139380879352308 1 I I #
point $-1 -44.152222549957877 16.34020837141416 4.5255323536405951 #
edge $-1 $717 1 $717 0 $414 $-1 forward 7 unknown #
vertex $-1 $415 $718 #
ellipse-curve $-1 -43.38384926581756 18.739722114759939 2.8319588471230066 -0.64278761758704617 0 0.76604443648966558 0.38302221824483279 0 0.32139380879352308 1 I I #
point $-1 -44.152222549957877 18.739722114759939 4.5255323536405951 #
edge $-1 $719 1 $719 0 $418 $-1 forward 7 unknown #
vertex $-1 $419 $720 #
ellipse-curve $-1 -43.38384926581756 21.139235858105717 2.8319588471230066 -0.64278761758704617 0 0.76604443648966558 0.38302221824483279 0 0.32139380879352308 1 I I #
point $-1 -44.152222549957877 21.139235858105717 4.5255323536405951 #
loop $-1 $-1 $430 $422 #
plane-surface $-1 48.169194616534931 0 0 -1 0 0 0 0 1 forward_v I I I I #
coedge $-1 $585 $425 $721 $722 reversed $274 $-1 #
coedge $-1 $425 $584 $588 $723 reversed $274 $-1 #
edge $-1 $724 -96.338389233069847 $589 -84.845160129564164 $425 $725 forward 7 unknown #
coedge $-1 $427 $426 $592 $726 reversed $172 $-1 #
coedge $-1 $433 $428 $585 $723 forward $423 $-1 #
vertex $-1 $723 $727 #
straight-curve $-1 39.112406558634703 -5.798732293180513 7.2533845861657014 0 -1 0 I I #
coedge $-1 $721 $430 $433 $596 reversed $582 $-1 #
coedge $-1 $430 $721 $587 $726 forward $582 $-1 #
vertex $-1 $431 $728 #
straight-curve $-1 48.169194616534931 -8.50155658334387 67.702483910263965 0 0 1 I I #
straight-curve $-1 -27.746491503153976 -8.50155658334387 59.489281700839015 0.78801074757464917 0 -0.61566148304635926 I I #
edge $-1 $729 -14.693372589378182 $434 -8.50155658334387 $591 $730 forward 7 unknown #
point $-1 48.169194616534931 -8.50155658334387 7.2533845861657067 #
point $-1 39.112406558634703 -8.50155658334387 7.2533845861657085 #
edge $-1 $731 1 $731 0 $437 $-1 forward 7 unknown #
vertex $-1 $438 $732 #
ellipse-curve $-1 42.864107373209691 -13.45500938817132 2.7212933882938115 0.61566148304635926 0 0.78801074757464917 0.39400537378732459 0 -0.30783074152317963 1 I I #
point $-1 44.034805961372115 -13.45500938817132 3.4075846072145866 #
edge $-1 $733 1 $733 0 $441 $-1 forward 7 unknown #
vertex $-1 $442 $734 #
ellipse-curve $-1 42.864107373209691 -11.597464586361026 2.7212933882938115 0.61566148304635926 0 0.78801074757464917 0.39400537378732459 0 -0.30783074152317963 1 I I #
point $-1 44.034805961372115 -11.597464586361026 3.4075846072145866 #
edge $-1 $735 1 $735 0 $445 $-1 forward 7 unknown #
vertex $-1 $446 $736 #
ellipse-curve $-1 42.864107373209691 -9.7399197845507324 2.7212933882938115 0.61566148304635926 0 0.78801074757464917 0.39400537378732459 0 -0.30783074152317963 1 I I #
point $-1 44.034805961372115 -9.7399197845507324 3.4075846072145866 #
plane-surface $-1 0 0 7.2533845861657067 0 0 1 1 0 0 forward_v I I I I #
coedge $-1 $622 $621 $614 $737 forward $450 $-1 #
coedge $-1 $614 $452 $454 $618 reversed $303 $-1 #
coedge $-1 $452 $613 $612 $737 reversed $303 $-1 #
coedge $-1 $460 $455 $452 $616 forward $461 $-1 #
edge $-1 $619 23.32973451544709 $738 32.386522573347321 $615 $739 forward 7 unknown #
coedge $-1 $454 $453 $622 $740 reversed $191 $-1 #
edge $-1 $741 -96.338389233069847 $619 -84.845160129564164 $613 $742 forward 7 unknown #
vertex $-1 $456 $743 #
straight-curve $-1 39.112406558634703 2.0113847744061797 7.2533845861657014 0 -1 0 I I #
coedge $-1 $612 $457 $460 $626 reversed $450 $-1 #
coedge $-1 $457 $612 $617 $740 forward $450 $-1 #
vertex $-1 $458 $744 #
straight-curve $-1 48.169194616534931 7.1186775518295153 67.702483910263965 0 0 1 I I #
straight-curve $-1 -27.746491503153976 7.1186775518295153 59.489281700839015 0.78801074757464917 0 -0.61566148304635926 I I #
edge $-1 $738 0.92686154579520341 $462 7.1186775518295153 $621 $745 forward 7 unknown #
point $-1 48.169194616534931 7.1186775518295153 7.2533845861657067 #
point $-1 39.112406558634703 7.1186775518295153 7.2533845861657085 #
edge $-1 $746 1 $746 0 $465 $-1 forward 7 unknown #
vertex $-1 $466 $747 #
ellipse-curve $-1 42.864107373209691 2.1652247470020676 2.7212933882938115 0.61566148304635926 0 0.78801074757464917 0.39400537378732459 0 -0.30783074152317963 1 I I #
point $-1 44.034805961372115 2.1652247470020676 3.4075846072145866 #
edge $-1 $748 1 $748 0 $469 $-1 forward 7 unknown #
vertex $-1 $470 $749 #
ellipse-curve $-1 42.864107373209691 4.0227695488123594 2.7212933882938115 0.61566148304635926 0 0.78801074757464917 0.39400537378732459 0 -0.30783074152317963 1 I I #
point $-1 44.034805961372115 4.0227695488123594 3.4075846072145866 #
edge $-1 $750 1 $750 0 $473 $-1 forward 7 unknown #
vertex $-1 $474 $751 #
ellipse-curve $-1 42.864107373209691 5.8803143506226512 2.7212933882938115 0.61566148304635926 0 0.78801074757464917 0.39400537378732459 0 -0.30783074152317963 1 I I #
point $-1 44.034805961372115 5.8803143506226512 3.4075846072145866 #
loop $-1 $-1 $486 $477 #
plane-surface $-1 0 22.738911687002901 0 0 -1 0 0 0 -1 forward_v I I I I #
coedge $-1 $752 $480 $485 $649 forward $332 $-1 #
coedge $-1 $480 $752 $646 $753 reversed $332 $-1 #
edge $-1 $647 60.449099324098256 $654 67.525037798954145 $480 $754 forward 7 unknown #
coedge $-1 $489 $483 $644 $753 forward $478 $-1 #
vertex $-1 $753 $755 #
straight-curve $-1 15.782672043187613 16.547095680968589 7.2533845861657085 1 0 0 I I #
edge $-1 $654 6.7255938389757173 $652 12.917409845010026 $643 $756 forward 7 unknown #
coedge $-1 $651 $486 $489 $656 reversed $641 $-1 #
coedge $-1 $486 $650 $752 $757 forward $641 $-1 #
vertex $-1 $487 $758 #
straight-curve $-1 -4.7011987851917922 22.738911687002901 41.484325378039614 -0.78801074757464917 0 0.61566148304635926 I I #
vertex $-1 $649 $759 #
straight-curve $-1 -27.746491503153976 16.547095680968589 59.489281700839015 -0.78801074757464917 0 0.61566148304635926 I I #
edge $-1 $760 -48.169194616534931 $490 -39.112406558634703 $650 $761 forward 7 unknown #
point $-1 39.112406558634703 22.738911687002897 7.2533845861657085 #
point $-1 39.112406558634703 16.547095680968589 7.2533845861657085 #
edge $-1 $762 1 $762 0 $493 $-1 forward 7 unknown #
vertex $-1 $494 $763 #
ellipse-curve $-1 42.864107373209691 17.785458882175451 2.7212933882938115 0.61566148304635926 0 0.78801074757464917 0.39400537378732459 0 -0.30783074152317963 1 I I #
point $-1 44.034805961372115 17.785458882175451 3.4075846072145866 #
edge $-1 $764 1 $764 0 $497 $-1 forward 7 unknown #
vertex $-1 $498 $765 #
ellipse-curve $-1 42.864107373209691 19.643003683985743 2.7212933882938115 0.61566148304635926 0 0.78801074757464917 0.39400537378732459 0 -0.30783074152317963 1 I I #
point $-1 44.034805961372115 19.643003683985743 3.4075846072145866 #
edge $-1 $766 1 $766 0 $501 $-1 forward 7 unknown #
vertex $-1 $502 $767 #
ellipse-curve $-1 42.864107373209691 21.500548485796035 2.7212933882938115 0.61566148304635926 0 0.78801074757464917 0.39400537378732459 0 -0.30783074152317963 1 I I #
point $-1 44.034805961372115 21.500548485796035 3.4075846072145866 #
plane-surface $-1 48.169194616534931 0 0 -1 0 0 0 0 1 forward_v I I I I #
coedge $-1 $510 $508 $512 $676 reversed $361 $-1 #
edge $-1 $523 -7.2533845861657067 $678 7.2533845861657067 $522 $768 forward 7 unknown #
vertex $-1 $676 $769 #
straight-curve $-1 -48.169194616534931 -22.738911687002901 0 0 0 -1 I I #
edge $-1 $674 -22.738911687002901 $678 22.738911687002901 $672 $770 forward 7 unknown #
straight-curve $-1 0 -22.738911687002901 -7.2533845861657067 -1 0 0 I I #
vertex $-1 $515 $771 #
straight-curve $-1 0 22.738911687002901 -7.2533845861657067 1 0 0 I I #
point $-1 48.169194616534931 22.738911687002901 -7.2533845861657067 #
point $-1 48.169194616534931 -22.738911687002901 -7.2533845861657067 #
straight-curve $-1 -48.169194616534931 0 7.2533845861657067 0 -1 0 I I #
point $-1 -48.169194616534931 22.738911687002901 7.2533845861657067 #
point $-1 -48.169194616534931 -22.738911687002901 7.2533845861657067 #
straight-curve $-1 48.169194616534931 -22.738911687002901 0 0 0 -1 I I #
straight-curve $-1 48.169194616534931 22.738911687002901 0 0 0 -1 I I #
plane-surface $-1 48.169194616534931 0 0 -1 0 0 0 0 1 forward_v I I I I #
coedge $-1 $536 $535 $546 $699 reversed $237 $-1 #
coedge $-1 $772 $539 $536 $690 forward $533 $-1 #
edge $-1 $691 14.693372589378182 $773 22.738911687002901 $536 $774 forward 7 unknown #
vertex $-1 $690 $775 #
straight-curve $-1 -48.169194616534931 -14.693372589378182 2.8766922930828533 0 0 -1 I I #
coedge $-1 $539 $772 $541 $695 forward $533 $-1 #
straight-curve $-1 0 -14.693372589378182 7.2533845861657067 -1 0 0 I I #
edge $-1 $702 -22.738911687002901 $542 -14.693372589378182 $541 $776 forward 7 unknown #
point $-1 48.169194616534931 -14.693372589378182 7.2533845861657067 #
straight-curve $-1 -48.169194616534931 -9.3580710690952706 4.2533845861657067 0 -1 0 I I #
coedge $-1 $546 $545 $772 $777 reversed $380 $-1 #
edge $-1 $773 -7.2533845861657067 $547 -4.2533845861657067 $688 $778 forward 7 unknown #
point $-1 -48.169194616534931 -22.738911687002901 4.2533845861657067 #
point $-1 -48.169194616534931 -14.693372589378182 4.2533845861657067 #
vertex $-1 $695 $779 #
straight-curve $-1 48.169194616534931 -22.738911687002901 0 0 0 -1 I I #
coedge $-1 $705 $556 $711 $780 reversed $397 $-1 #
coedge $-1 $556 $704 $559 $709 reversed $397 $-1 #
edge $-1 $707 -13.369050629622931 $564 -5.3706714851370077 $563 $781 forward 7 unknown #
vertex $-1 $558 $782 #
straight-curve $-1 -34.320109764686642 22.738911687002901 12.775654738253573 -0.76604443648966558 0 -0.64278761758704617 I I #
edge $-1 $560 40.901294919870466 $713 48.169194616534931 $705 $783 forward 7 unknown #
point $-1 -40.901294919870466 22.738911687002901 7.2533845861657067 #
coedge $-1 $563 $562 $704 $780 forward $554 $-1 #
point $-1 -48.169194616534931 14.740532542516977 1.1548925035284239 #
vertex $-1 $709 $784 #
straight-curve $-1 -48.169194616534931 0 7.2533845861657067 0 -1 0 I I #
vertex $-1 $570 $785 #
point $-1 -43.000827047572727 16.34020837141416 3.1533526559165299 #
vertex $-1 $574 $786 #
point $-1 -43.000827047572727 18.739722114759939 3.1533526559165299 #
vertex $-1 $578 $787 #
point $-1 -43.000827047572727 21.139235858105717 3.1533526559165299 #
coedge $-1 $592 $591 $584 $722 forward $582 $-1 #
edge $-1 $729 60.449099324098256 $724 67.525037798954145 $721 $788 forward 7 unknown #
edge $-1 $589 39.112406558634703 $729 48.169194616534931 $588 $789 forward 7 unknown #
vertex $-1 $722 $790 #
straight-curve $-1 -27.746491503153976 -14.693372589378182 59.489281700839015 -0.78801074757464917 0 0.61566148304635926 I I #
edge $-1 $724 -8.8946402961976681 $593 -2.702824290163357 $592 $791 forward 7 unknown #
point $-1 39.112406558634703 -14.693372589378182 7.2533845861657085 #
point $-1 48.169194616534924 -8.50155658334387 0.1774461113098269 #
vertex $-1 $596 $792 #
straight-curve $-1 48.169194616534931 0 7.2533845861657067 0 1 0 I I #
vertex $-1 $599 $793 #
point $-1 43.258112746997014 -13.45500938817132 2.4134626467706317 #
vertex $-1 $603 $794 #
point $-1 43.258112746997014 -11.597464586361026 2.4134626467706317 #
vertex $-1 $607 $795 #
point $-1 43.258112746997014 -9.7399197845507324 2.4134626467706317 #
edge $-1 $738 60.449099324098256 $741 67.525037798954145 $612 $796 forward 7 unknown #
vertex $-1 $626 $797 #
straight-curve $-1 15.782672043187613 0.92686154579520341 7.2533845861657085 1 0 0 I I #
edge $-1 $741 -1.0845232286109763 $623 5.1072927774233357 $622 $798 forward 7 unknown #
vertex $-1 $740 $799 #
straight-curve $-1 -27.746491503153976 0.92686154579520341 59.489281700839015 -0.78801074757464917 0 0.61566148304635926 I I #
point $-1 39.112406558634703 0.92686154579520341 7.2533845861657085 #
point $-1 48.169194616534924 7.1186775518295153 0.1774461113098269 #
straight-curve $-1 48.169194616534931 0 7.2533845861657067 0 1 0 I I #
vertex $-1 $629 $800 #
point $-1 43.258112746997014 2.1652247470020676 2.4134626467706317 #
vertex $-1 $633 $801 #
point $-1 43.258112746997014 4.0227695488123594 2.4134626467706317 #
vertex $-1 $637 $802 #
point $-1 43.258112746997014 5.8803143506226512 2.4134626467706317 #
coedge $-1 $644 $643 $651 $757 reversed $332 $-1 #
edge $-1 $647 16.547095680968589 $760 22.738911687002901 $644 $803 forward 7 unknown #
straight-curve $-1 48.169194616534931 16.547095680968589 67.702483910263965 0 0 -1 I I #
point $-1 48.169194616534931 16.547095680968589 7.2533845861657067 #
straight-curve $-1 48.169194616534931 9.8215018419928715 0.17744611130982335 0 1 0 I I #
edge $-1 $760 -7.2533845861657067 $652 -0.1774461113098269 $752 $804 forward 7 unknown #
point $-1 48.169194616534924 22.738911687002897 0.1774461113098269 #
point $-1 48.169194616534924 16.547095680968589 0.1774461113098269 #
vertex $-1 $753 $805 #
straight-curve $-1 0 22.738911687002901 7.2533845861657067 -1 0 0 I I #
vertex $-1 $659 $806 #
point $-1 43.258112746997014 17.785458882175451 2.4134626467706317 #
vertex $-1 $663 $807 #
point $-1 43.258112746997014 19.643003683985743 2.4134626467706317 #
vertex $-1 $667 $808 #
point $-1 43.258112746997014 21.500548485796035 2.4134626467706317 #
straight-curve $-1 -48.169194616534931 22.738911687002901 0 0 0 -1 I I #
point $-1 -48.169194616534931 -22.738911687002901 -7.2533845861657067 #
straight-curve $-1 -48.169194616534931 0 -7.2533845861657067 0 1 0 I I #
point $-1 -48.169194616534931 22.738911687002901 -7.2533845861657067 #
coedge $-1 $693 $689 $698 $777 forward $533 $-1 #
vertex $-1 $690 $809 #
straight-curve $-1 -48.169194616534931 0 7.2533845861657067 0 -1 0 I I #
point $-1 -48.169194616534931 -14.693372589378182 7.2533845861657067 #
straight-curve $-1 48.169194616534931 0 7.2533845861657067 0 1 0 I I #
edge $-1 $773 -48.169194616534931 $702 48.169194616534931 $698 $810 forward 7 unknown #
straight-curve $-1 -48.169194616534931 -22.738911687002901 0 0 0 -1 I I #
point $-1 48.169194616534931 -22.738911687002901 7.2533845861657067 #
edge $-1 $713 -7.2533845861657067 $707 -1.1548925035284239 $704 $811 forward 7 unknown #
straight-curve $-1 -48.169194616534931 9.3698610573799694 1.1548925035284217 0 -1 0 I I #
point $-1 -48.169194616534931 22.738911687002901 1.1548925035284239 #
straight-curve $-1 0 22.738911687002901 7.2533845861657067 -1 0 0 I I #
point $-1 -48.169194616534931 22.738911687002901 7.2533845861657067 #
point $-1 -43.062455457024043 16.34020837141416 2.4489366288781742 #
point $-1 -43.062455457024043 18.739722114759939 2.4489366288781742 #
point $-1 -43.062455457024043 21.139235858105717 2.4489366288781742 #
straight-curve $-1 48.169194616534931 -14.693372589378182 67.702483910263965 0 0 -1 I I #
straight-curve $-1 0 -14.693372589378182 7.2533845861657067 1 0 0 I I #
point $-1 48.169194616534924 -14.693372589378182 0.1774461113098269 #
straight-curve $-1 48.169194616534931 -5.798732293180513 0.17744611130982335 0 1 0 I I #
point $-1 48.169194616534931 -14.693372589378182 7.2533845861657067 #
point $-1 42.556276631686515 -13.45500938817132 2.3272880145064869 #
point $-1 42.556276631686515 -11.597464586361026 2.3272880145064869 #
point $-1 42.556276631686515 -9.7399197845507324 2.3272880145064869 #
straight-curve $-1 48.169194616534931 0.92686154579520341 67.702483910263965 0 0 -1 I I #
point $-1 48.169194616534931 0.92686154579520341 7.2533845861657067 #
straight-curve $-1 48.169194616534931 2.0113847744061797 0.17744611130982335 0 1 0 I I #
point $-1 48.169194616534924 0.92686154579520341 0.1774461113098269 #
point $-1 42.556276631686515 2.1652247470020676 2.3272880145064869 #
point $-1 42.556276631686515 4.0227695488123594 2.3272880145064869 #
point $-1 42.556276631686515 5.8803143506226512 2.3272880145064869 #
straight-curve $-1 48.169194616534931 0 7.2533845861657067 0 1 0 I I #
straight-curve $-1 48.169194616534931 22.738911687002901 0 0 0 -1 I I #
point $-1 48.169194616534931 22.738911687002901 7.2533845861657067 #
point $-1 42.556276631686515 17.785458882175451 2.3272880145064869 #
point $-1 42.556276631686515 19.643003683985743 2.3272880145064869 #
point $-1 42.556276631686515 21.500548485796035 2.3272880145064869 #
point $-1 -48.169194616534931 -22.738911687002901 7.2533845861657067 #
straight-curve $-1 0 -22.738911687002901 7.2533845861657067 1 0 0 I I #
straight-curve $-1 -48.169194616534931 22.738911687002901 0 0 0 -1 I I #
End-of-ACIS-data 