500 0 13 0           
7 Unknown 11 ACIS 5.0 NT 24 Thu Mar 25 17:27:23 1999 
-1 9.9999999999999995e-007 1e-010 
body $-1 $13 $-1 $14 #
body $-1 $15 $-1 $16 #
body $-1 $17 $-1 $18 #
body $-1 $19 $-1 $20 #
body $-1 $21 $-1 $22 #
body $-1 $23 $-1 $24 #
body $-1 $25 $-1 $26 #
body $-1 $27 $-1 $28 #
body $-1 $29 $-1 $30 #
body $-1 $31 $-1 $32 #
body $-1 $33 $-1 $34 #
body $-1 $35 $-1 $36 #
body $-1 $37 $-1 $38 #
lump $-1 $-1 $39 $0 #
transform $-1 1 0 0 0 1 0 0 0 1 72.61696218756677 40.138451309321972 17.298353226251724 1 rotate no_reflect no_shear #
lump $-1 $-1 $40 $1 #
transform $-1 1 0 0 0 1 0 0 0 1 72.61696218756677 40.138451309321972 17.298353226251724 1 rotate no_reflect no_shear #
lump $-1 $-1 $41 $2 #
transform $-1 1 0 0 0 1 0 0 0 1 72.61696218756677 40.138451309321972 17.298353226251724 1 rotate no_reflect no_shear #
lump $-1 $-1 $42 $3 #
transform $-1 1 0 0 0 1 0 0 0 1 72.61696218756677 40.138451309321972 17.298353226251724 1 rotate no_reflect no_shear #
lump $-1 $-1 $43 $4 #
transform $-1 1 0 0 0 1 0 0 0 1 72.61696218756677 40.138451309321972 17.298353226251724 1 rotate no_reflect no_shear #
lump $-1 $-1 $44 $5 #
transform $-1 1 0 0 0 1 0 0 0 1 72.61696218756677 40.138451309321972 17.298353226251724 1 rotate no_reflect no_shear #
lump $-1 $-1 $45 $6 #
transform $-1 1 0 0 0 1 0 0 0 1 72.61696218756677 40.138451309321972 17.298353226251724 1 rotate no_reflect no_shear #
lump $-1 $-1 $46 $7 #
transform $-1 1 0 0 0 1 0 0 0 1 72.61696218756677 40.138451309321972 17.298353226251724 1 rotate no_reflect no_shear #
lump $-1 $-1 $47 $8 #
transform $-1 1 0 0 0 1 0 0 0 1 72.61696218756677 40.138451309321972 17.298353226251724 1 rotate no_reflect no_shear #
lump $-1 $-1 $48 $9 #
transform $-1 1 0 0 0 1 0 0 0 1 72.61696218756677 40.138451309321972 17.298353226251724 1 rotate no_reflect no_shear #
lump $-1 $-1 $49 $10 #
transform $-1 1 0 0 0 1 0 0 0 1 72.61696218756677 40.138451309321972 17.298353226251724 1 rotate no_reflect no_shear #
lump $-1 $-1 $50 $11 #
transform $-1 1 0 0 0 1 0 0 0 1 72.61696218756677 40.138451309321972 17.298353226251724 1 rotate no_reflect no_shear #
lump $-1 $-1 $51 $12 #
transform $-1 1 0 0 0 1 0 0 0 1 72.61696218756677 40.138451309321972 17.298353226251724 1 rotate no_reflect no_shear #
shell $-1 $-1 $-1 $52 $-1 $13 #
shell $-1 $-1 $-1 $53 $-1 $15 #
shell $-1 $-1 $-1 $54 $-1 $17 #
shell $-1 $-1 $-1 $55 $-1 $19 #
shell $-1 $-1 $-1 $56 $-1 $21 #
shell $-1 $-1 $-1 $57 $-1 $23 #
shell $-1 $-1 $-1 $58 $-1 $25 #
shell $-1 $-1 $-1 $59 $-1 $27 #
shell $-1 $-1 $-1 $60 $-1 $29 #
shell $-1 $-1 $-1 $61 $-1 $31 #
shell $-1 $-1 $-1 $62 $-1 $33 #
shell $-1 $-1 $-1 $63 $-1 $35 #
shell $-1 $-1 $-1 $64 $-1 $37 #
face $-1 $65 $66 $39 $-1 $67 forward single #
face $-1 $68 $69 $40 $-1 $70 forward single #
face $-1 $71 $72 $41 $-1 $73 reversed single #
face $-1 $74 $75 $42 $-1 $76 forward single #
face $-1 $77 $78 $43 $-1 $79 forward single #
face $-1 $80 $81 $44 $-1 $82 reversed single #
face $-1 $83 $84 $45 $-1 $85 forward single #
face $-1 $86 $87 $46 $-1 $88 forward single #
face $-1 $89 $90 $47 $-1 $91 forward single #
face $-1 $92 $93 $48 $-1 $94 reversed single #
face $-1 $95 $96 $49 $-1 $97 forward single #
face $-1 $98 $99 $50 $-1 $100 forward single #
face $-1 $101 $102 $51 $-1 $103 forward single #
face $-1 $104 $105 $39 $-1 $106 reversed single #
loop $-1 $-1 $107 $52 #
plane-surface $-1 0 0 17.298353226251724 0 0 1 1 0 0 forward_v I I I I #
face $-1 $108 $109 $40 $-1 $110 reversed single #
loop $-1 $-1 $111 $53 #
plane-surface $-1 -61.22670373686222 0 -12.281952212228799 0 0 1 1 0 0 forward_v I I I I #
face $-1 $112 $113 $41 $-1 $114 reversed single #
loop $-1 $-1 $115 $54 #
plane-surface $-1 33.120870672485715 -131.53712252573234 119.62244186323281 1 0 0 0 0.62932039886446345 -0.77714595512881146 forward_v I I I I #
face $-1 $116 $117 $42 $-1 $118 forward single #
loop $-1 $119 $120 $55 #
cone-surface $-1 42.770798611529599 -29.886889680246078 7.4063413093254056 0 0.62932039886446345 -0.77714595512881146 3 0 0 1 I I 0 1 3 forward I I I I #
face $-1 $121 $122 $43 $-1 $123 forward single #
loop $-1 $124 $125 $56 #
cone-surface $-1 57.245690520095451 -29.886889680246078 7.4063413093254056 0 0.62932039886446345 -0.77714595512881146 3 0 0 1 I I 0 1 3 forward I I I I #
face $-1 $126 $127 $44 $-1 $128 reversed single #
loop $-1 $-1 $129 $57 #
plane-surface $-1 -42.975549398879025 43.233577775369632 178.39125102312573 1 0 0 0 -0.50000000669873634 -0.8660253999169214 forward_v I I I I #
face $-1 $130 $131 $45 $-1 $132 forward single #
loop $-1 $133 $134 $58 #
cone-surface $-1 -38.836491933087274 35.262811532034775 13.675318793719299 0 -0.50000000669873634 -0.8660253999169214 2 0 0 1 I I 0 1 2 forward I I I I #
face $-1 $135 $136 $46 $-1 $137 forward single #
loop $-1 $138 $139 $59 #
cone-surface $-1 -32.627905734399647 35.262811532034775 13.675318793719299 0 -0.50000000669873634 -0.8660253999169214 2 0 0 1 I I 0 1 2 forward I I I I #
face $-1 $140 $141 $47 $-1 $142 forward single #
loop $-1 $143 $144 $60 #
cone-surface $-1 -26.41931953571202 35.262811532034775 13.675318793719299 0 -0.50000000669873634 -0.8660253999169214 2 0 0 1 I I 0 1 2 forward I I I I #
face $-1 $145 $146 $48 $-1 $147 reversed single #
loop $-1 $-1 $148 $61 #
plane-surface $-1 18.251154337983188 43.233577775369632 178.39125102312573 1 0 0 0 -0.50000000669873634 -0.8660253999169214 forward_v I I I I #
face $-1 $149 $150 $49 $-1 $151 forward single #
loop $-1 $152 $153 $62 #
cone-surface $-1 22.390211803774946 35.262811532034775 13.675318793719299 0 -0.50000000669873634 -0.8660253999169214 2 0 0 1 I I 0 1 2 forward I I I I #
face $-1 $154 $155 $50 $-1 $156 forward single #
loop $-1 $157 $158 $63 #
cone-surface $-1 28.598798002462573 35.262811532034775 13.675318793719299 0 -0.50000000669873634 -0.8660253999169214 2 0 0 1 I I 0 1 2 forward I I I I #
face $-1 $159 $160 $51 $-1 $161 forward single #
loop $-1 $162 $163 $64 #
cone-surface $-1 34.807384201150199 35.262811532034775 13.675318793719299 0 -0.50000000669873634 -0.8660253999169214 2 0 0 1 I I 0 1 2 forward I I I I #
face $-1 $164 $165 $39 $-1 $166 reversed single #
loop $-1 $-1 $167 $65 #
plane-surface $-1 0 0 -17.298353226251724 0 0 1 1 0 0 forward_v I I I I #
coedge $-1 $168 $169 $170 $171 forward $66 $-1 #
face $-1 $172 $173 $40 $-1 $174 reversed single #
loop $-1 $-1 $175 $68 #
plane-surface $-1 -49.836445286157669 0 -14.790152719240261 -1 0 0 0 0 1 forward_v I I I I #
coedge $-1 $176 $177 $178 $179 forward $69 $-1 #
face $-1 $180 $181 $41 $-1 $182 reversed single #
loop $-1 $-1 $183 $71 #
plane-surface $-1 50.008244565812532 -40.138451309321979 6.7544849876140773 0 -0.62932039886446345 0.77714595512881146 1 0 0 forward_v I I I I #
coedge $-1 $184 $185 $186 $187 reversed $72 $-1 #
face $-1 $-1 $188 $42 $-1 $189 forward single #
loop $-1 $190 $191 $74 #
cone-surface $-1 42.770798611529599 -25.201643772406236 1.6205445790246991 0 0.62932039886446345 -0.77714595512881146 1.5 0 0 1 I I -0.70710678118654757 0.70710678118654757 1.5 forward I I I I #
loop $-1 $-1 $192 $55 #
coedge $-1 $120 $120 $193 $194 reversed $75 $-1 #
face $-1 $-1 $195 $43 $-1 $196 forward single #
loop $-1 $197 $198 $77 #
cone-surface $-1 57.245690520095451 -25.201643772406236 1.6205445790246991 0 0.62932039886446345 -0.77714595512881146 1.5 0 0 1 I I -0.70710678118654757 0.70710678118654757 1.5 forward I I I I #
loop $-1 $-1 $199 $56 #
coedge $-1 $125 $125 $200 $201 reversed $78 $-1 #
face $-1 $202 $203 $44 $-1 $204 reversed single #
loop $-1 $-1 $205 $80 #
plane-surface $-1 -32.627905734399654 -29.383385385080906 52.614983584646794 0 0.50000000669873634 0.8660253999169214 1 0 0 forward_v I I I I #
coedge $-1 $206 $207 $208 $209 reversed $81 $-1 #
face $-1 $-1 $210 $45 $-1 $211 forward single #
loop $-1 $212 $213 $83 #
cone-surface $-1 -38.836491933087274 34.06299157516613 11.597169705610298 0 -0.50000000669873634 -0.8660253999169214 1 0 0 1 I I -0.70710678118654746 0.70710678118654746 1 forward I I I I #
loop $-1 $-1 $214 $58 #
coedge $-1 $134 $134 $215 $216 reversed $84 $-1 #
face $-1 $-1 $217 $46 $-1 $218 forward single #
loop $-1 $219 $220 $86 #
cone-surface $-1 -32.627905734399647 34.06299157516613 11.597169705610298 0 -0.50000000669873634 -0.8660253999169214 1 0 0 1 I I -0.70710678118654746 0.70710678118654746 1 forward I I I I #
loop $-1 $-1 $221 $59 #
coedge $-1 $139 $139 $222 $223 reversed $87 $-1 #
face $-1 $-1 $224 $47 $-1 $225 forward single #
loop $-1 $226 $227 $89 #
cone-surface $-1 -26.41931953571202 34.06299157516613 11.597169705610298 0 -0.50000000669873634 -0.8660253999169214 1 0 0 1 I I -0.70710678118654746 0.70710678118654746 1 forward I I I I #
loop $-1 $-1 $228 $60 #
coedge $-1 $144 $144 $229 $230 reversed $90 $-1 #
face $-1 $231 $232 $48 $-1 $233 reversed single #
loop $-1 $-1 $234 $92 #
plane-surface $-1 28.598798002462559 -29.383385385080906 52.614983584646794 0 0.50000000669873634 0.8660253999169214 1 0 0 forward_v I I I I #
coedge $-1 $235 $236 $237 $238 reversed $93 $-1 #
face $-1 $-1 $239 $49 $-1 $240 forward single #
loop $-1 $241 $242 $95 #
cone-surface $-1 22.390211803774946 34.06299157516613 11.597169705610298 0 -0.50000000669873634 -0.8660253999169214 1 0 0 1 I I -0.70710678118654746 0.70710678118654746 1 forward I I I I #
loop $-1 $-1 $243 $62 #
coedge $-1 $153 $153 $244 $245 reversed $96 $-1 #
face $-1 $-1 $246 $50 $-1 $247 forward single #
loop $-1 $248 $249 $98 #
cone-surface $-1 28.598798002462573 34.06299157516613 11.597169705610298 0 -0.50000000669873634 -0.8660253999169214 1 0 0 1 I I -0.70710678118654746 0.70710678118654746 1 forward I I I I #
loop $-1 $-1 $250 $63 #
coedge $-1 $158 $158 $251 $252 reversed $99 $-1 #
face $-1 $-1 $253 $51 $-1 $254 forward single #
loop $-1 $255 $256 $101 #
cone-surface $-1 34.807384201150199 34.06299157516613 11.597169705610298 0 -0.50000000669873634 -0.8660253999169214 1 0 0 1 I I -0.70710678118654746 0.70710678118654746 1 forward I I I I #
loop $-1 $-1 $257 $64 #
coedge $-1 $163 $163 $258 $259 reversed $102 $-1 #
face $-1 $260 $261 $39 $-1 $262 reversed single #
loop $-1 $-1 $263 $104 #
plane-surface $-1 0 -40.138451309321972 0 0 1 0 0 0 1 forward_v I I I I #
coedge $-1 $264 $265 $266 $267 forward $105 $-1 #
coedge $-1 $268 $107 $269 $270 forward $66 $-1 #
coedge $-1 $107 $268 $271 $272 forward $66 $-1 #
coedge $-1 $273 $274 $107 $171 reversed $275 $-1 #
edge $-1 $276 -40.138451309321972 $277 40.138451309321972 $170 $278 forward 7 unknown #
face $-1 $279 $280 $40 $-1 $281 reversed single #
loop $-1 $-1 $282 $108 #
plane-surface $-1 0 0 -17.298353226251724 0 0 1 1 0 0 forward_v I I I I #
coedge $-1 $283 $178 $284 $285 reversed $109 $-1 #
coedge $-1 $286 $111 $287 $288 reversed $69 $-1 #
coedge $-1 $111 $286 $289 $290 reversed $69 $-1 #
coedge $-1 $175 $291 $111 $179 reversed $109 $-1 #
edge $-1 $292 -40.138451309321972 $293 40.138451309321972 $178 $294 forward 7 unknown #
face $-1 $295 $296 $41 $-1 $297 forward single #
loop $-1 $-1 $298 $112 #
plane-surface $-1 66.895618459139342 -131.53712252573234 119.62244186323281 -1 0 0 0 -0.62932039886446345 0.77714595512881146 forward_v I I I I #
coedge $-1 $299 $300 $301 $302 reversed $113 $-1 #
coedge $-1 $185 $115 $303 $304 reversed $72 $-1 #
coedge $-1 $115 $184 $299 $305 reversed $72 $-1 #
coedge $-1 $301 $306 $115 $187 forward $307 $-1 #
edge $-1 $308 42.512867705364684 $309 53.05673594400232 $186 $310 forward 7 unknown #
loop $-1 $-1 $193 $116 #
plane-surface $-1 50.008244565812532 -40.138451309321979 6.7544849876140773 0 -0.62932039886446345 0.77714595512881146 1 0 0 forward_v I I I I #
loop $-1 $-1 $311 $74 #
coedge $-1 $191 $191 $192 $312 reversed $117 $-1 #
coedge $-1 $192 $192 $191 $312 forward $119 $-1 #
coedge $-1 $193 $193 $120 $194 forward $188 $-1 #
edge $-1 $313 7.2275378211008939e-016 $313 6.2831853071796013 $193 $314 forward 7 unknown #
loop $-1 $-1 $200 $121 #
plane-surface $-1 50.008244565812532 -40.138451309321979 6.7544849876140773 0 -0.62932039886446345 0.77714595512881146 1 0 0 forward_v I I I I #
loop $-1 $-1 $315 $77 #
coedge $-1 $198 $198 $199 $316 reversed $122 $-1 #
coedge $-1 $199 $199 $198 $316 forward $124 $-1 #
coedge $-1 $200 $200 $125 $201 forward $195 $-1 #
edge $-1 $317 7.2275378211008939e-016 $317 6.2831853071796013 $200 $318 forward 7 unknown #
face $-1 $319 $320 $44 $-1 $321 reversed single #
loop $-1 $-1 $322 $126 #
plane-surface $-1 -22.280262069920283 43.233577775369632 178.39125102312573 -1 0 0 0 0.50000000669873634 0.8660253999169214 forward_v I I I I #
coedge $-1 $323 $324 $325 $326 reversed $127 $-1 #
coedge $-1 $207 $129 $327 $328 reversed $81 $-1 #
coedge $-1 $129 $206 $323 $329 reversed $81 $-1 #
coedge $-1 $325 $330 $129 $209 forward $331 $-1 #
edge $-1 $332 -18.521662421637156 $333 -10.170022767402596 $208 $334 forward 7 unknown #
loop $-1 $-1 $215 $130 #
plane-surface $-1 -32.627905734399654 -29.383385385080906 52.614983584646794 0 0.50000000669873634 0.8660253999169214 1 0 0 forward_v I I I I #
loop $-1 $-1 $335 $83 #
coedge $-1 $213 $213 $214 $336 reversed $131 $-1 #
coedge $-1 $214 $214 $213 $336 forward $133 $-1 #
coedge $-1 $215 $215 $134 $216 forward $210 $-1 #
edge $-1 $337 -4.4408921579973568e-016 $337 6.2831853071795996 $215 $338 forward 7 unknown #
loop $-1 $-1 $222 $135 #
plane-surface $-1 -32.627905734399654 -29.383385385080906 52.614983584646794 0 0.50000000669873634 0.8660253999169214 1 0 0 forward_v I I I I #
loop $-1 $-1 $339 $86 #
coedge $-1 $220 $220 $221 $340 reversed $136 $-1 #
coedge $-1 $221 $221 $220 $340 forward $138 $-1 #
coedge $-1 $222 $222 $139 $223 forward $217 $-1 #
edge $-1 $341 -4.4408921579973568e-016 $341 6.2831853071795996 $222 $342 forward 7 unknown #
loop $-1 $-1 $229 $140 #
plane-surface $-1 -32.627905734399654 -29.383385385080906 52.614983584646794 0 0.50000000669873634 0.8660253999169214 1 0 0 forward_v I I I I #
loop $-1 $-1 $343 $89 #
coedge $-1 $227 $227 $228 $344 reversed $141 $-1 #
coedge $-1 $228 $228 $227 $344 forward $143 $-1 #
coedge $-1 $229 $229 $144 $230 forward $224 $-1 #
edge $-1 $345 -4.4408921579973568e-016 $345 6.2831853071795996 $229 $346 forward 7 unknown #
face $-1 $347 $348 $48 $-1 $349 forward single #
loop $-1 $-1 $350 $145 #
plane-surface $-1 38.946441666941929 43.233577775369632 178.39125102312573 -1 0 0 0 0.50000000669873634 0.8660253999169214 forward_v I I I I #
coedge $-1 $351 $352 $353 $354 reversed $146 $-1 #
coedge $-1 $236 $148 $355 $356 reversed $93 $-1 #
coedge $-1 $148 $235 $351 $357 reversed $93 $-1 #
coedge $-1 $353 $358 $148 $238 forward $348 $-1 #
edge $-1 $359 -18.521662421637156 $360 -10.170022767402596 $237 $361 forward 7 unknown #
loop $-1 $-1 $244 $149 #
plane-surface $-1 28.598798002462559 -29.383385385080906 52.614983584646794 0 0.50000000669873634 0.8660253999169214 1 0 0 forward_v I I I I #
loop $-1 $-1 $362 $95 #
coedge $-1 $242 $242 $243 $363 reversed $150 $-1 #
coedge $-1 $243 $243 $242 $363 forward $152 $-1 #
coedge $-1 $244 $244 $153 $245 forward $239 $-1 #
edge $-1 $364 -4.4408921579973568e-016 $364 6.2831853071795996 $244 $365 forward 7 unknown #
loop $-1 $-1 $251 $154 #
plane-surface $-1 28.598798002462559 -29.383385385080906 52.614983584646794 0 0.50000000669873634 0.8660253999169214 1 0 0 forward_v I I I I #
loop $-1 $-1 $366 $98 #
coedge $-1 $249 $249 $250 $367 reversed $155 $-1 #
coedge $-1 $250 $250 $249 $367 forward $157 $-1 #
coedge $-1 $251 $251 $158 $252 forward $246 $-1 #
edge $-1 $368 -4.4408921579973568e-016 $368 6.2831853071795996 $251 $369 forward 7 unknown #
loop $-1 $-1 $258 $159 #
plane-surface $-1 28.598798002462559 -29.383385385080906 52.614983584646794 0 0.50000000669873634 0.8660253999169214 1 0 0 forward_v I I I I #
loop $-1 $-1 $370 $101 #
coedge $-1 $256 $256 $257 $371 reversed $160 $-1 #
coedge $-1 $257 $257 $256 $371 forward $162 $-1 #
coedge $-1 $258 $258 $163 $259 forward $253 $-1 #
edge $-1 $372 -4.4408921579973568e-016 $372 6.2831853071795996 $258 $373 forward 7 unknown #
face $-1 $374 $375 $39 $-1 $376 reversed single #
loop $-1 $-1 $377 $164 #
plane-surface $-1 -72.61696218756677 0 0 1 0 0 0 0 -1 forward_v I I I I #
coedge $-1 $378 $271 $379 $380 forward $165 $-1 #
coedge $-1 $381 $167 $378 $382 forward $105 $-1 #
coedge $-1 $167 $381 $383 $384 forward $105 $-1 #
coedge $-1 $274 $273 $167 $267 reversed $275 $-1 #
edge $-1 $385 -40.138451309321972 $386 40.138451309321972 $266 $387 forward 7 unknown #
coedge $-1 $169 $168 $388 $389 forward $66 $-1 #
coedge $-1 $390 $391 $168 $270 reversed $375 $-1 #
edge $-1 $277 -72.61696218756677 $392 72.61696218756677 $269 $393 forward 7 unknown #
coedge $-1 $263 $394 $169 $272 reversed $165 $-1 #
edge $-1 $395 -72.61696218756677 $276 72.61696218756677 $271 $396 forward 7 unknown #
coedge $-1 $266 $170 $394 $397 forward $275 $-1 #
coedge $-1 $170 $266 $390 $398 reversed $275 $-1 #
loop $-1 $-1 $273 $374 #
vertex $-1 $171 $399 #
vertex $-1 $171 $400 #
straight-curve $-1 72.61696218756677 0 17.298353226251724 0 1 0 I I #
face $-1 $401 $402 $40 $-1 $403 reversed single #
loop $-1 $-1 $284 $172 #
plane-surface $-1 0 -40.138451309321972 0 0 1 0 0 0 1 forward_v I I I I #
coedge $-1 $404 $405 $283 $406 forward $173 $-1 #
coedge $-1 $291 $175 $282 $406 reversed $109 $-1 #
coedge $-1 $289 $407 $175 $285 forward $280 $-1 #
edge $-1 $408 -9.9032768666315931 $292 -4.886875852608668 $284 $409 forward 7 unknown #
coedge $-1 $177 $176 $410 $411 reversed $69 $-1 #
coedge $-1 $412 $413 $176 $288 forward $414 $-1 #
edge $-1 $415 -42.00361031913566 $293 -19.22309341772656 $287 $416 forward 7 unknown #
coedge $-1 $417 $284 $177 $290 forward $280 $-1 #
edge $-1 $292 19.22309341772656 $418 42.00361031913566 $289 $419 forward 7 unknown #
coedge $-1 $178 $283 $412 $420 reversed $109 $-1 #
vertex $-1 $290 $421 #
vertex $-1 $288 $422 #
straight-curve $-1 -49.836445286157669 0 -12.281952212228799 0 1 0 I I #
face $-1 $-1 $307 $41 $-1 $423 reversed single #
loop $-1 $-1 $424 $180 #
plane-surface $-1 0 0 17.298353226251724 0 0 1 1 0 0 forward_v I I I I #
coedge $-1 $425 $426 $427 $428 reversed $181 $-1 #
coedge $-1 $429 $183 $185 $305 forward $113 $-1 #
coedge $-1 $183 $429 $425 $430 forward $113 $-1 #
coedge $-1 $427 $186 $183 $302 forward $307 $-1 #
edge $-1 $309 8.116748389579449 $431 41.891496176233076 $301 $432 forward 7 unknown #
coedge $-1 $433 $434 $184 $304 forward $296 $-1 #
edge $-1 $435 -38.650702592609683 $308 -25.630109953544199 $303 $436 forward 7 unknown #
edge $-1 $309 8.8756469145121664e-015 $435 16.754372268343513 $185 $437 forward 7 unknown #
coedge $-1 $186 $427 $433 $438 reversed $307 $-1 #
loop $-1 $-1 $427 $295 #
vertex $-1 $438 $439 #
vertex $-1 $187 $440 #
straight-curve $-1 33.120870672485715 -40.138451309321972 59.811220931616404 0 0 -1 I I #
coedge $-1 $311 $311 $-1 $441 reversed $190 $-1 #
edge $-1 $442 0 $442 6.2831853071796004 $191 $443 forward 7 unknown #
vertex $-1 $194 $444 #
ellipse-curve $-1 42.770798611529599 -33.62815498978923 12.026419106932902 0 -0.62932039886446345 0.77714595512881146 3 0 0 1 I I #
coedge $-1 $315 $315 $-1 $445 reversed $197 $-1 #
edge $-1 $446 0 $446 6.2831853071796004 $198 $447 forward 7 unknown #
vertex $-1 $201 $448 #
ellipse-curve $-1 57.245690520095451 -33.62815498978923 12.026419106932902 0 -0.62932039886446345 0.77714595512881146 3 0 0 1 I I #
face $-1 $-1 $331 $44 $-1 $449 forward single #
loop $-1 $-1 $450 $202 #
plane-surface $-1 0 40.138451309321972 0 0 -1 0 0 0 -1 forward_v I I I I #
coedge $-1 $451 $452 $453 $454 reversed $203 $-1 #
coedge $-1 $455 $205 $207 $329 forward $127 $-1 #
coedge $-1 $205 $455 $451 $456 forward $127 $-1 #
coedge $-1 $453 $208 $205 $326 forward $331 $-1 #
edge $-1 $333 -26.661596531679198 $457 -5.9663092027204563 $325 $458 forward 7 unknown #
coedge $-1 $459 $460 $206 $328 forward $320 $-1 #
edge $-1 $461 -76.719093773991858 $332 -71.897272285311146 $327 $462 forward 7 unknown #
edge $-1 $333 70.633259770482979 $461 80.276902618643959 $207 $463 forward 7 unknown #
coedge $-1 $208 $453 $459 $464 forward $331 $-1 #
loop $-1 $-1 $453 $319 #
vertex $-1 $328 $465 #
vertex $-1 $209 $466 #
straight-curve $-1 -42.975549398879025 21.616788887684816 17.29835322625172 0 -1 0 I I #
coedge $-1 $335 $335 $-1 $467 reversed $212 $-1 #
edge $-1 $468 0 $468 6.2831853071796004 $213 $469 forward 7 unknown #
vertex $-1 $216 $470 #
ellipse-curve $-1 -38.836491933087274 35.962631482204685 14.887442481911375 0 0.50000000669873634 0.8660253999169214 2 0 0 1 I I #
coedge $-1 $339 $339 $-1 $471 reversed $219 $-1 #
edge $-1 $472 0 $472 6.2831853071796004 $220 $473 forward 7 unknown #
vertex $-1 $223 $474 #
ellipse-curve $-1 -32.627905734399647 35.962631482204685 14.887442481911375 0 0.50000000669873634 0.8660253999169214 2 0 0 1 I I #
coedge $-1 $343 $343 $-1 $475 reversed $226 $-1 #
edge $-1 $476 0 $476 6.2831853071796004 $227 $477 forward 7 unknown #
vertex $-1 $230 $478 #
ellipse-curve $-1 -26.41931953571202 35.962631482204685 14.887442481911375 0 0.50000000669873634 0.8660253999169214 2 0 0 1 I I #
face $-1 $-1 $479 $48 $-1 $480 reversed single #
loop $-1 $-1 $237 $231 #
plane-surface $-1 0 0 17.298353226251724 0 0 1 1 0 0 forward_v I I I I #
coedge $-1 $481 $482 $483 $484 reversed $232 $-1 #
coedge $-1 $485 $234 $236 $357 forward $146 $-1 #
coedge $-1 $234 $485 $481 $486 forward $146 $-1 #
coedge $-1 $483 $237 $234 $354 forward $348 $-1 #
edge $-1 $360 3.9517553367519085 $487 24.64704266571065 $353 $488 forward 7 unknown #
coedge $-1 $489 $490 $235 $356 forward $479 $-1 #
edge $-1 $491 -76.719093773991858 $359 -71.897272285311146 $355 $492 forward 7 unknown #
edge $-1 $360 70.633259770482979 $491 80.276902618643959 $236 $493 forward 7 unknown #
coedge $-1 $237 $483 $489 $494 forward $348 $-1 #
vertex $-1 $356 $495 #
vertex $-1 $238 $496 #
straight-curve $-1 18.251154337983188 21.616788887684816 17.29835322625172 0 -1 0 I I #
coedge $-1 $362 $362 $-1 $497 reversed $241 $-1 #
edge $-1 $498 0 $498 6.2831853071796004 $242 $499 forward 7 unknown #
vertex $-1 $245 $500 #
ellipse-curve $-1 22.390211803774946 35.962631482204685 14.887442481911375 0 0.50000000669873634 0.8660253999169214 2 0 0 1 I I #
coedge $-1 $366 $366 $-1 $501 reversed $248 $-1 #
edge $-1 $502 0 $502 6.2831853071796004 $249 $503 forward 7 unknown #
vertex $-1 $252 $504 #
ellipse-curve $-1 28.598798002462573 35.962631482204685 14.887442481911375 0 0.50000000669873634 0.8660253999169214 2 0 0 1 I I #
coedge $-1 $370 $370 $-1 $505 reversed $255 $-1 #
edge $-1 $506 0 $506 6.2831853071796004 $256 $507 forward 7 unknown #
vertex $-1 $259 $508 #
ellipse-curve $-1 34.807384201150199 35.962631482204685 14.887442481911375 0 0.50000000669873634 0.8660253999169214 2 0 0 1 I I #
face $-1 $-1 $275 $39 $-1 $509 reversed single #
loop $-1 $-1 $390 $260 #
plane-surface $-1 0 40.138451309321972 0 0 -1 0 0 0 -1 forward_v I I I I #
coedge $-1 $510 $388 $391 $511 forward $261 $-1 #
coedge $-1 $394 $263 $264 $382 reversed $165 $-1 #
coedge $-1 $388 $510 $263 $380 reversed $261 $-1 #
edge $-1 $395 -17.298353226251724 $512 17.298353226251724 $379 $513 forward 7 unknown #
coedge $-1 $265 $264 $510 $514 forward $105 $-1 #
edge $-1 $386 -72.61696218756677 $512 72.61696218756677 $378 $515 forward 7 unknown #
coedge $-1 $391 $390 $265 $384 reversed $375 $-1 #
edge $-1 $516 -72.61696218756677 $385 72.61696218756677 $383 $517 forward 7 unknown #
vertex $-1 $267 $518 #
vertex $-1 $397 $519 #
straight-curve $-1 72.61696218756677 0 -17.298353226251724 0 -1 0 I I #
coedge $-1 $377 $379 $268 $389 reversed $261 $-1 #
edge $-1 $392 -40.138451309321972 $395 40.138451309321972 $388 $520 forward 7 unknown #
coedge $-1 $383 $269 $274 $398 forward $375 $-1 #
coedge $-1 $269 $383 $377 $511 reversed $375 $-1 #
vertex $-1 $270 $521 #
straight-curve $-1 0 40.138451309321972 17.298353226251724 -1 0 0 I I #
coedge $-1 $271 $378 $273 $397 reversed $165 $-1 #
vertex $-1 $389 $522 #
straight-curve $-1 0 -40.138451309321972 17.298353226251724 1 0 0 I I #
edge $-1 $276 -17.298353226251724 $386 17.298353226251724 $273 $523 forward 7 unknown #
edge $-1 $277 -17.298353226251724 $385 17.298353226251724 $274 $524 forward 7 unknown #
point $-1 72.61696218756677 -40.138451309321972 17.298353226251724 #
point $-1 72.61696218756677 40.138451309321972 17.298353226251724 #
face $-1 $-1 $414 $40 $-1 $525 reversed single #
loop $-1 $-1 $410 $279 #
plane-surface $-1 -72.61696218756677 0 0 1 0 0 0 0 -1 forward_v I I I I #
coedge $-1 $526 $282 $407 $527 forward $173 $-1 #
coedge $-1 $282 $526 $528 $529 forward $173 $-1 #
edge $-1 $530 -40.138451309321972 $408 40.138451309321972 $282 $531 forward 7 unknown #
coedge $-1 $284 $417 $404 $527 reversed $280 $-1 #
vertex $-1 $527 $532 #
straight-curve $-1 -49.836445286157669 -40.138451309321972 -7.3950763596201305 0 0 1 I I #
coedge $-1 $533 $534 $286 $411 forward $402 $-1 #
edge $-1 $418 -40.138451309321972 $415 40.138451309321972 $410 $535 forward 7 unknown #
coedge $-1 $528 $287 $291 $420 forward $414 $-1 #
coedge $-1 $287 $528 $533 $536 reversed $414 $-1 #
loop $-1 $-1 $412 $401 #
vertex $-1 $536 $537 #
straight-curve $-1 -30.61335186843111 40.138451309321972 -12.281952212228799 1 0 0 I I #
coedge $-1 $407 $289 $534 $538 forward $280 $-1 #
vertex $-1 $538 $539 #
straight-curve $-1 -30.61335186843111 -40.138451309321972 -12.281952212228799 -1 0 0 I I #
edge $-1 $293 4.886875852608668 $530 9.9032768666315931 $412 $540 forward 7 unknown #
point $-1 -49.836445286157669 -40.138451309321972 -12.281952212228799 #
point $-1 -49.836445286157669 40.138451309321972 -12.281952212228799 #
plane-surface $-1 0 -40.138451309321972 0 0 1 0 0 0 1 forward_v I I I I #
coedge $-1 $434 $433 $426 $541 forward $296 $-1 #
coedge $-1 $426 $298 $300 $430 reversed $181 $-1 #
coedge $-1 $298 $425 $424 $541 reversed $181 $-1 #
coedge $-1 $306 $301 $298 $428 forward $307 $-1 #
edge $-1 $431 -53.05673594400232 $542 -42.512867705364684 $427 $543 forward 7 unknown #
coedge $-1 $300 $299 $434 $544 reversed $113 $-1 #
edge $-1 $545 -16.754372268343513 $431 -8.8756469145121664e-015 $425 $546 forward 7 unknown #
vertex $-1 $302 $547 #
straight-curve $-1 25.004122282906266 -40.138451309321972 6.7544849876140827 1 0 0 I I #
coedge $-1 $424 $303 $306 $438 forward $296 $-1 #
coedge $-1 $303 $424 $429 $544 forward $296 $-1 #
vertex $-1 $304 $548 #
straight-curve $-1 33.120870672485715 -65.768561262866172 17.29835322625172 0 -1 0 I I #
straight-curve $-1 33.120870672485715 -40.138451309321979 6.7544849876140773 0 0.77714595512881146 0.62932039886446345 I I #
edge $-1 $308 33.120870672485715 $542 66.895618459139342 $306 $549 forward 7 unknown #
point $-1 33.120870672485715 -40.138451309321972 17.298353226251724 #
point $-1 33.120870672485715 -40.138451309321972 6.7544849876140827 #
edge $-1 $550 1 $550 0 $311 $-1 forward 7 unknown #
vertex $-1 $312 $551 #
ellipse-curve $-1 42.770798611529599 -26.145624370702929 2.786263511717916 0 -0.62932039886446345 0.77714595512881146 3 0 0 1 I I #
point $-1 45.770798611529599 -33.628154989789223 12.026419106932897 #
edge $-1 $552 1 $552 0 $315 $-1 forward 7 unknown #
vertex $-1 $316 $553 #
ellipse-curve $-1 57.245690520095451 -26.145624370702929 2.786263511717916 0 -0.62932039886446345 0.77714595512881146 3 0 0 1 I I #
point $-1 60.245690520095451 -33.628154989789223 12.026419106932897 #
plane-surface $-1 0 0 17.298353226251724 0 0 1 1 0 0 forward_v I I I I #
coedge $-1 $460 $459 $452 $554 forward $320 $-1 #
coedge $-1 $452 $322 $324 $456 reversed $203 $-1 #
coedge $-1 $322 $451 $450 $554 reversed $203 $-1 #
coedge $-1 $330 $325 $322 $454 forward $331 $-1 #
edge $-1 $457 10.170022767402596 $555 18.521662421637156 $453 $556 forward 7 unknown #
coedge $-1 $324 $323 $460 $557 reversed $127 $-1 #
edge $-1 $558 -80.276902618643959 $457 -70.633259770482979 $451 $559 forward 7 unknown #
vertex $-1 $326 $560 #
straight-curve $-1 -16.313952867199827 31.786811655087408 17.298353226251727 1 0 0 I I #
coedge $-1 $450 $327 $330 $464 reversed $320 $-1 #
coedge $-1 $327 $450 $455 $557 forward $320 $-1 #
vertex $-1 $328 $561 #
straight-curve $-1 -42.975549398879025 40.138451309321972 89.195625511562866 0 0 1 I I #
straight-curve $-1 -42.975549398879025 -29.383385385080906 52.614983584646794 0 0.8660253999169214 -0.50000000669873634 I I #
edge $-1 $555 22.280262069920283 $332 42.975549398879025 $459 $562 forward 7 unknown #
point $-1 -42.975549398879025 40.138451309321972 17.298353226251724 #
point $-1 -42.975549398879025 31.786811655087412 17.29835322625172 #
edge $-1 $563 1 $563 0 $335 $-1 forward 7 unknown #
vertex $-1 $336 $564 #
ellipse-curve $-1 -38.836491933087274 34.562991581864864 12.46319510552722 0 0.50000000669873634 0.8660253999169214 2 0 0 1 I I #
point $-1 -36.836491933087274 35.962631482204685 14.887442481911377 #
edge $-1 $565 1 $565 0 $339 $-1 forward 7 unknown #
vertex $-1 $340 $566 #
ellipse-curve $-1 -32.627905734399647 34.562991581864864 12.46319510552722 0 0.50000000669873634 0.8660253999169214 2 0 0 1 I I #
point $-1 -30.627905734399647 35.962631482204685 14.887442481911377 #
edge $-1 $567 1 $567 0 $343 $-1 forward 7 unknown #
vertex $-1 $344 $568 #
ellipse-curve $-1 -26.41931953571202 34.562991581864864 12.46319510552722 0 0.50000000669873634 0.8660253999169214 2 0 0 1 I I #
point $-1 -24.41931953571202 35.962631482204685 14.887442481911377 #
loop $-1 $-1 $355 $347 #
plane-surface $-1 0 40.138451309321972 0 0 -1 0 0 0 -1 forward_v I I I I #
coedge $-1 $482 $350 $352 $486 reversed $232 $-1 #
coedge $-1 $350 $481 $569 $570 reversed $232 $-1 #
coedge $-1 $358 $353 $350 $484 forward $348 $-1 #
edge $-1 $487 10.170022767402596 $571 18.521662421637156 $483 $572 forward 7 unknown #
coedge $-1 $352 $351 $490 $573 reversed $146 $-1 #
edge $-1 $574 -80.276902618643959 $487 -70.633259770482979 $481 $575 forward 7 unknown #
vertex $-1 $354 $576 #
straight-curve $-1 14.299399001231279 31.786811655087408 17.298353226251727 1 0 0 I I #
coedge $-1 $569 $355 $358 $494 reversed $479 $-1 #
coedge $-1 $355 $569 $485 $573 forward $479 $-1 #
vertex $-1 $356 $577 #
straight-curve $-1 18.251154337983188 40.138451309321972 89.195625511562866 0 0 1 I I #
straight-curve $-1 18.251154337983188 -29.383385385080906 52.614983584646794 0 0.8660253999169214 -0.50000000669873634 I I #
edge $-1 $571 -38.946441666941929 $359 -18.251154337983188 $489 $578 forward 7 unknown #
point $-1 18.251154337983188 40.138451309321972 17.298353226251724 #
point $-1 18.251154337983188 31.786811655087412 17.29835322625172 #
edge $-1 $579 1 $579 0 $362 $-1 forward 7 unknown #
vertex $-1 $363 $580 #
ellipse-curve $-1 22.390211803774946 34.562991581864864 12.46319510552722 0 0.50000000669873634 0.8660253999169214 2 0 0 1 I I #
point $-1 24.390211803774946 35.962631482204685 14.887442481911377 #
edge $-1 $581 1 $581 0 $366 $-1 forward 7 unknown #
vertex $-1 $367 $582 #
ellipse-curve $-1 28.598798002462573 34.562991581864864 12.46319510552722 0 0.50000000669873634 0.8660253999169214 2 0 0 1 I I #
point $-1 30.598798002462573 35.962631482204685 14.887442481911377 #
edge $-1 $583 1 $583 0 $370 $-1 forward 7 unknown #
vertex $-1 $371 $584 #
ellipse-curve $-1 34.807384201150199 34.562991581864864 12.46319510552722 0 0.50000000669873634 0.8660253999169214 2 0 0 1 I I #
point $-1 36.807384201150199 35.962631482204685 14.887442481911377 #
plane-surface $-1 72.61696218756677 0 0 -1 0 0 0 0 1 forward_v I I I I #
coedge $-1 $379 $377 $381 $514 reversed $261 $-1 #
edge $-1 $392 -17.298353226251724 $516 17.298353226251724 $391 $585 forward 7 unknown #
vertex $-1 $514 $586 #
straight-curve $-1 -72.61696218756677 -40.138451309321972 0 0 0 -1 I I #
edge $-1 $512 -40.138451309321972 $516 40.138451309321972 $510 $587 forward 7 unknown #
straight-curve $-1 0 -40.138451309321972 -17.298353226251724 -1 0 0 I I #
vertex $-1 $384 $588 #
straight-curve $-1 0 40.138451309321972 -17.298353226251724 1 0 0 I I #
point $-1 72.61696218756677 40.138451309321972 -17.298353226251724 #
point $-1 72.61696218756677 -40.138451309321972 -17.298353226251724 #
straight-curve $-1 -72.61696218756677 0 17.298353226251724 0 -1 0 I I #
point $-1 -72.61696218756677 40.138451309321972 17.298353226251724 #
point $-1 -72.61696218756677 -40.138451309321972 17.298353226251724 #
straight-curve $-1 72.61696218756677 -40.138451309321972 0 0 0 -1 I I #
straight-curve $-1 72.61696218756677 40.138451309321972 0 0 0 -1 I I #
plane-surface $-1 0 40.138451309321972 0 0 -1 0 0 0 -1 forward_v I I I I #
coedge $-1 $405 $404 $589 $590 forward $173 $-1 #
edge $-1 $408 49.836445286157669 $591 72.61696218756677 $407 $592 forward 7 unknown #
coedge $-1 $413 $412 $405 $529 reversed $414 $-1 #
edge $-1 $593 -72.61696218756677 $530 -49.836445286157669 $528 $594 forward 7 unknown #
vertex $-1 $420 $595 #
straight-curve $-1 -49.836445286157669 0 -17.298353226251724 0 -1 0 I I #
point $-1 -49.836445286157669 -40.138451309321972 -17.298353226251724 #
coedge $-1 $589 $410 $413 $536 forward $402 $-1 #
coedge $-1 $410 $589 $417 $538 reversed $402 $-1 #
straight-curve $-1 -72.61696218756677 0 -12.281952212228799 0 1 0 I I #
edge $-1 $415 12.281952212228799 $593 17.298353226251724 $413 $596 forward 7 unknown #
point $-1 -72.61696218756677 40.138451309321972 -12.281952212228799 #
edge $-1 $418 12.281952212228799 $591 17.298353226251724 $534 $597 forward 7 unknown #
point $-1 -72.61696218756677 -40.138451309321972 -12.281952212228799 #
straight-curve $-1 -49.836445286157669 40.138451309321972 -7.3950763596201305 0 0 -1 I I #
edge $-1 $542 25.630109953544199 $545 38.650702592609683 $424 $598 forward 7 unknown #
vertex $-1 $428 $599 #
straight-curve $-1 66.895618459139342 -40.138451309321972 59.811220931616404 0 0 1 I I #
edge $-1 $545 -41.891496176233076 $435 -8.116748389579449 $434 $600 forward 7 unknown #
vertex $-1 $544 $601 #
straight-curve $-1 66.895618459139342 -40.138451309321979 6.7544849876140773 0 -0.77714595512881146 -0.62932039886446345 I I #
point $-1 66.895618459139342 -40.138451309321972 6.7544849876140827 #
point $-1 33.120870672485715 -27.117858670256489 17.298353226251724 #
straight-curve $-1 0 -40.138451309321972 17.298353226251724 1 0 0 I I #
vertex $-1 $441 $602 #
point $-1 45.770798611529599 -26.145624370702929 2.786263511717916 #
vertex $-1 $445 $603 #
point $-1 60.245690520095451 -26.145624370702929 2.786263511717916 #
edge $-1 $555 71.897272285311146 $558 76.719093773991858 $450 $604 forward 7 unknown #
vertex $-1 $464 $605 #
straight-curve $-1 -22.280262069920283 21.616788887684816 17.29835322625172 0 1 0 I I #
edge $-1 $558 5.9663092027204563 $461 26.661596531679198 $460 $606 forward 7 unknown #
vertex $-1 $557 $607 #
straight-curve $-1 -22.280262069920283 -29.383385385080906 52.614983584646794 0 -0.8660253999169214 0.50000000669873634 I I #
point $-1 -22.280262069920283 31.786811655087412 17.29835322625172 #
point $-1 -42.975549398879025 40.138451309321972 12.476531737571015 #
straight-curve $-1 0 40.138451309321972 17.298353226251724 -1 0 0 I I #
vertex $-1 $467 $608 #
point $-1 -36.836491933087274 34.562991581864864 12.46319510552722 #
vertex $-1 $471 $609 #
point $-1 -30.627905734399647 34.562991581864864 12.46319510552722 #
vertex $-1 $475 $610 #
point $-1 -24.41931953571202 34.562991581864864 12.46319510552722 #
coedge $-1 $490 $489 $482 $570 forward $479 $-1 #
edge $-1 $571 71.897272285311146 $574 76.719093773991858 $569 $611 forward 7 unknown #
vertex $-1 $494 $612 #
straight-curve $-1 38.946441666941929 21.616788887684816 17.29835322625172 0 1 0 I I #
edge $-1 $574 -24.64704266571065 $491 -3.9517553367519085 $490 $613 forward 7 unknown #
vertex $-1 $573 $614 #
straight-curve $-1 38.946441666941929 -29.383385385080906 52.614983584646794 0 -0.8660253999169214 0.50000000669873634 I I #
point $-1 38.946441666941929 31.786811655087412 17.29835322625172 #
point $-1 18.251154337983188 40.138451309321972 12.476531737571015 #
straight-curve $-1 0 40.138451309321972 17.298353226251724 -1 0 0 I I #
vertex $-1 $497 $615 #
point $-1 24.390211803774946 34.562991581864864 12.46319510552722 #
vertex $-1 $501 $616 #
point $-1 30.598798002462573 34.562991581864864 12.46319510552722 #
vertex $-1 $505 $617 #
point $-1 36.807384201150199 34.562991581864864 12.46319510552722 #
straight-curve $-1 -72.61696218756677 40.138451309321972 0 0 0 -1 I I #
point $-1 -72.61696218756677 -40.138451309321972 -17.298353226251724 #
straight-curve $-1 -72.61696218756677 0 -17.298353226251724 0 1 0 I I #
point $-1 -72.61696218756677 40.138451309321972 -17.298353226251724 #
coedge $-1 $534 $533 $526 $590 reversed $402 $-1 #
edge $-1 $591 -40.138451309321972 $593 40.138451309321972 $589 $618 forward 7 unknown #
vertex $-1 $590 $619 #
straight-curve $-1 0 -40.138451309321972 -17.298353226251724 -1 0 0 I I #
vertex $-1 $529 $620 #
straight-curve $-1 0 40.138451309321972 -17.298353226251724 1 0 0 I I #
point $-1 -49.836445286157669 40.138451309321972 -17.298353226251724 #
straight-curve $-1 -72.61696218756677 40.138451309321972 0 0 0 -1 I I #
straight-curve $-1 -72.61696218756677 -40.138451309321972 0 0 0 -1 I I #
straight-curve $-1 66.895618459139342 -65.768561262866172 17.29835322625172 0 1 0 I I #
point $-1 66.895618459139342 -40.138451309321972 17.298353226251724 #
straight-curve $-1 25.004122282906266 -27.117858670256489 17.298353226251724 -1 0 0 I I #
point $-1 66.895618459139342 -27.117858670256489 17.298353226251724 #
point $-1 42.770798611529599 -24.257663174109542 0.45482564633148193 #
point $-1 57.245690520095451 -24.257663174109542 0.45482564633148193 #
straight-curve $-1 -22.280262069920283 40.138451309321972 89.195625511562866 0 0 -1 I I #
point $-1 -22.280262069920283 40.138451309321972 17.298353226251724 #
straight-curve $-1 -16.313952867199827 40.138451309321972 12.476531737571015 -1 0 0 I I #
point $-1 -22.280262069920283 40.138451309321972 12.476531737571015 #
point $-1 -38.836491933087274 33.562991568467396 10.731144305693377 #
point $-1 -32.627905734399647 33.562991568467396 10.731144305693377 #
point $-1 -26.41931953571202 33.562991568467396 10.731144305693377 #
straight-curve $-1 38.946441666941929 40.138451309321972 89.195625511562866 0 0 -1 I I #
point $-1 38.946441666941929 40.138451309321972 17.298353226251724 #
straight-curve $-1 14.299399001231279 40.138451309321972 12.476531737571015 -1 0 0 I I #
point $-1 38.946441666941929 40.138451309321972 12.476531737571015 #
point $-1 22.390211803774946 33.562991568467396 10.731144305693377 #
point $-1 28.598798002462573 33.562991568467396 10.731144305693377 #
point $-1 34.807384201150199 33.562991568467396 10.731144305693377 #
straight-curve $-1 -72.61696218756677 0 -17.298353226251724 0 1 0 I I #
point $-1 -72.61696218756677 -40.138451309321972 -17.298353226251724 #
point $-1 -72.61696218756677 40.138451309321972 -17.298353226251724 #
End-of-ACIS-data 