500 0 5 0           
7 Unknown 11 ACIS 5.0 NT 24 Thu Mar 25 22:16:54 1999 
-1 9.9999999999999995e-007 1e-010 
body $-1 $5 $-1 $6 #
body $-1 $7 $-1 $8 #
body $-1 $9 $-1 $10 #
body $-1 $11 $-1 $12 #
body $-1 $13 $-1 $14 #
lump $-1 $-1 $15 $0 #
transform $-1 1 0 0 0 1 0 0 0 1 53.727225562303538 26.642092709937828 10.528127001392559 1 rotate no_reflect no_shear #
lump $-1 $-1 $16 $1 #
transform $-1 1 0 0 0 1 0 0 0 1 53.727225562303538 26.642092709937828 10.528127001392559 1 rotate no_reflect no_shear #
lump $-1 $-1 $17 $2 #
transform $-1 1 0 0 0 1 0 0 0 1 53.727225562303538 26.642092709937828 10.528127001392559 1 rotate no_reflect no_shear #
lump $-1 $-1 $18 $3 #
transform $-1 1 0 0 0 1 0 0 0 1 53.727225562303538 26.642092709937828 10.528127001392559 1 rotate no_reflect no_shear #
lump $-1 $-1 $19 $4 #
transform $-1 1 0 0 0 1 0 0 0 1 53.727225562303538 26.642092709937828 10.528127001392559 1 rotate no_reflect no_shear #
shell $-1 $-1 $-1 $20 $-1 $5 #
shell $-1 $-1 $-1 $21 $-1 $7 #
shell $-1 $-1 $-1 $22 $-1 $9 #
shell $-1 $-1 $-1 $23 $-1 $11 #
shell $-1 $-1 $-1 $24 $-1 $13 #
face $-1 $25 $26 $15 $-1 $27 forward single #
face $-1 $28 $29 $16 $-1 $30 forward single #
face $-1 $31 $32 $17 $-1 $33 forward single #
face $-1 $34 $35 $18 $-1 $36 reversed single #
face $-1 $37 $38 $19 $-1 $39 forward single #
face $-1 $40 $41 $15 $-1 $42 reversed single #
loop $-1 $-1 $43 $20 #
plane-surface $-1 0 0 10.528127001392559 0 0 1 1 0 0 forward_v I I I I #
face $-1 $44 $45 $16 $-1 $46 reversed single #
loop $-1 $-1 $47 $21 #
plane-surface $-1 -49.186176773547736 0 -4.8455024165349556 0 0 1 1 0 0 forward_v I I I I #
face $-1 $48 $49 $17 $-1 $50 reversed single #
loop $-1 $-1 $51 $22 #
plane-surface $-1 49.186176773547736 0 -4.8455024165349556 0 0 1 1 0 0 forward_v I I I I #
face $-1 $52 $53 $18 $-1 $54 reversed single #
loop $-1 $-1 $55 $23 #
plane-surface $-1 9.5806199108934074 44.627585511210114 124.23150262890127 -1 0 0 0 0.57357644374324357 0.81915203911291934 forward_v I I I I #
face $-1 $56 $57 $19 $-1 $58 forward single #
loop $-1 $59 $60 $24 #
cone-surface $-1 -1.5053838077338568 21.555591864712785 5.8008607517294726 0 -0.57357644374324357 -0.81915203911291934 1.5 0 0 1 I I 0 1 1.5 forward I I I I #
face $-1 $61 $62 $15 $-1 $63 reversed single #
loop $-1 $-1 $64 $25 #
plane-surface $-1 0 0 -10.528127001392559 0 0 1 1 0 0 forward_v I I I I #
coedge $-1 $65 $66 $67 $68 forward $26 $-1 #
face $-1 $69 $70 $16 $-1 $71 reversed single #
loop $-1 $-1 $72 $28 #
plane-surface $-1 -44.645127984791934 0 -7.6868147089637571 -1 0 0 0 0 1 forward_v I I I I #
coedge $-1 $73 $74 $75 $76 forward $29 $-1 #
face $-1 $77 $78 $17 $-1 $79 reversed single #
loop $-1 $-1 $80 $31 #
plane-surface $-1 44.645127984791934 0 -7.6868147089637571 1 0 0 0 0 -1 forward_v I I I I #
coedge $-1 $81 $82 $83 $84 reversed $32 $-1 #
face $-1 $85 $86 $18 $-1 $87 reversed single #
loop $-1 $-1 $88 $34 #
plane-surface $-1 -1.5053838077338568 -17.005756429224192 36.209969878419855 0 0.57357644374324357 0.81915203911291934 1 0 0 forward_v I I I I #
coedge $-1 $89 $90 $91 $92 reversed $35 $-1 #
face $-1 $-1 $93 $19 $-1 $94 forward single #
loop $-1 $95 $96 $37 #
cone-surface $-1 -1.5053838077338568 19.524097251342951 2.8995858246619797 0 -0.57357644374324357 -0.81915203911291934 0.75 0 0 1 I I -0.70710678118654757 0.70710678118654757 0.75 forward I I I I #
loop $-1 $-1 $97 $24 #
coedge $-1 $60 $60 $98 $99 reversed $38 $-1 #
face $-1 $100 $101 $15 $-1 $102 reversed single #
loop $-1 $-1 $103 $40 #
plane-surface $-1 0 -26.642092709937828 0 0 1 0 0 0 1 forward_v I I I I #
coedge $-1 $104 $105 $106 $107 forward $41 $-1 #
coedge $-1 $108 $43 $109 $110 forward $26 $-1 #
coedge $-1 $43 $108 $111 $112 forward $26 $-1 #
coedge $-1 $113 $114 $43 $68 reversed $115 $-1 #
edge $-1 $116 -26.642092709937828 $117 26.642092709937828 $67 $118 forward 7 unknown #
face $-1 $119 $120 $16 $-1 $121 reversed single #
loop $-1 $-1 $122 $44 #
plane-surface $-1 0 0 -10.528127001392559 0 0 1 1 0 0 forward_v I I I I #
coedge $-1 $123 $75 $124 $125 reversed $45 $-1 #
coedge $-1 $126 $47 $127 $128 reversed $29 $-1 #
coedge $-1 $47 $126 $129 $130 reversed $29 $-1 #
coedge $-1 $72 $131 $47 $76 reversed $45 $-1 #
edge $-1 $132 -26.642092709937828 $133 26.642092709937828 $75 $134 forward 7 unknown #
face $-1 $135 $136 $17 $-1 $137 reversed single #
loop $-1 $-1 $138 $48 #
plane-surface $-1 0 -26.642092709937828 0 0 1 0 0 0 1 forward_v I I I I #
coedge $-1 $139 $140 $141 $142 reversed $49 $-1 #
coedge $-1 $143 $51 $144 $145 reversed $32 $-1 #
coedge $-1 $51 $143 $138 $146 reversed $32 $-1 #
coedge $-1 $147 $148 $51 $84 forward $149 $-1 #
edge $-1 $150 -26.642092709937828 $151 26.642092709937828 $83 $152 forward 7 unknown #
face $-1 $153 $154 $18 $-1 $155 reversed single #
loop $-1 $-1 $156 $52 #
plane-surface $-1 -12.591387526361121 44.627585511210114 124.23150262890127 1 0 0 0 -0.57357644374324357 -0.81915203911291934 forward_v I I I I #
coedge $-1 $157 $158 $159 $160 reversed $53 $-1 #
coedge $-1 $90 $55 $161 $162 reversed $35 $-1 #
coedge $-1 $55 $89 $157 $163 reversed $35 $-1 #
coedge $-1 $159 $164 $55 $92 forward $154 $-1 #
edge $-1 $165 51.587624313058072 $166 56.468335016918637 $91 $167 forward 7 unknown #
loop $-1 $-1 $98 $56 #
plane-surface $-1 -1.5053838077338568 -17.005756429224192 36.209969878419855 0 0.57357644374324357 0.81915203911291934 1 0 0 forward_v I I I I #
loop $-1 $-1 $168 $37 #
coedge $-1 $96 $96 $97 $169 reversed $57 $-1 #
coedge $-1 $97 $97 $96 $169 forward $59 $-1 #
coedge $-1 $98 $98 $60 $99 forward $93 $-1 #
edge $-1 $170 6.7925095917478914e-016 $170 6.2831853071796013 $98 $171 forward 7 unknown #
face $-1 $172 $173 $15 $-1 $174 reversed single #
loop $-1 $-1 $175 $61 #
plane-surface $-1 -53.727225562303538 0 0 1 0 0 0 0 -1 forward_v I I I I #
coedge $-1 $176 $111 $177 $178 forward $62 $-1 #
coedge $-1 $179 $64 $176 $180 forward $41 $-1 #
coedge $-1 $64 $179 $181 $182 forward $41 $-1 #
coedge $-1 $114 $113 $64 $107 reversed $115 $-1 #
edge $-1 $183 -26.642092709937828 $184 26.642092709937828 $106 $185 forward 7 unknown #
coedge $-1 $66 $65 $186 $187 forward $26 $-1 #
coedge $-1 $188 $189 $65 $110 reversed $173 $-1 #
edge $-1 $117 -53.727225562303538 $190 53.727225562303538 $109 $191 forward 7 unknown #
coedge $-1 $103 $192 $66 $112 reversed $62 $-1 #
edge $-1 $193 -53.727225562303538 $116 53.727225562303538 $111 $194 forward 7 unknown #
coedge $-1 $106 $67 $192 $195 forward $115 $-1 #
coedge $-1 $67 $106 $188 $196 reversed $115 $-1 #
loop $-1 $-1 $113 $172 #
vertex $-1 $68 $197 #
vertex $-1 $68 $198 #
straight-curve $-1 53.727225562303538 0 10.528127001392559 0 1 0 I I #
face $-1 $199 $200 $16 $-1 $201 reversed single #
loop $-1 $-1 $124 $69 #
plane-surface $-1 0 -26.642092709937828 0 0 1 0 0 0 1 forward_v I I I I #
coedge $-1 $202 $203 $123 $204 forward $70 $-1 #
coedge $-1 $131 $72 $122 $204 reversed $45 $-1 #
coedge $-1 $129 $205 $72 $125 forward $120 $-1 #
edge $-1 $206 -6.68471964691068 $132 -1.0020950620530771 $124 $207 forward 7 unknown #
coedge $-1 $74 $73 $208 $209 reversed $29 $-1 #
coedge $-1 $210 $211 $73 $128 forward $212 $-1 #
edge $-1 $213 -29.13413717552967 $133 -20.052039598018066 $127 $214 forward 7 unknown #
coedge $-1 $215 $124 $74 $130 forward $120 $-1 #
edge $-1 $132 20.052039598018066 $216 29.13413717552967 $129 $217 forward 7 unknown #
coedge $-1 $75 $123 $210 $218 reversed $45 $-1 #
vertex $-1 $130 $219 #
vertex $-1 $128 $220 #
straight-curve $-1 -44.645127984791934 0 -4.8455024165349556 0 1 0 I I #
face $-1 $221 $222 $17 $-1 $223 reversed single #
loop $-1 $-1 $224 $77 #
plane-surface $-1 0 0 -10.528127001392559 0 0 1 1 0 0 forward_v I I I I #
coedge $-1 $225 $226 $82 $146 forward $78 $-1 #
coedge $-1 $227 $80 $224 $228 reversed $49 $-1 #
coedge $-1 $80 $227 $143 $229 reversed $49 $-1 #
coedge $-1 $144 $230 $80 $142 forward $222 $-1 #
edge $-1 $231 -6.68471964691068 $232 -1.0020950620530771 $141 $233 forward 7 unknown #
coedge $-1 $82 $81 $140 $229 forward $32 $-1 #
coedge $-1 $234 $141 $81 $145 forward $222 $-1 #
edge $-1 $232 20.052039598018066 $150 29.13413717552967 $144 $235 forward 7 unknown #
edge $-1 $151 -29.13413717552967 $236 -20.052039598018066 $138 $237 forward 7 unknown #
coedge $-1 $238 $83 $226 $239 forward $149 $-1 #
coedge $-1 $83 $238 $234 $240 reversed $149 $-1 #
loop $-1 $-1 $83 $221 #
vertex $-1 $240 $241 #
vertex $-1 $239 $242 #
straight-curve $-1 53.727225562303538 0 -4.8455024165349556 0 -1 0 I I #
face $-1 $-1 $243 $18 $-1 $244 forward single #
loop $-1 $-1 $91 $85 #
plane-surface $-1 0 26.642092709937828 0 0 -1 0 0 0 -1 forward_v I I I I #
coedge $-1 $245 $246 $247 $248 reversed $86 $-1 #
coedge $-1 $249 $88 $90 $163 forward $53 $-1 #
coedge $-1 $88 $249 $245 $250 forward $53 $-1 #
coedge $-1 $247 $91 $88 $160 forward $154 $-1 #
edge $-1 $166 -10.333311814760336 $251 11.838695622494193 $159 $252 forward 7 unknown #
coedge $-1 $253 $254 $89 $162 forward $243 $-1 #
edge $-1 $255 -2.642077174992508 $165 4.3282999543327705 $161 $256 forward 7 unknown #
edge $-1 $166 -53.284185419875641 $255 -44.774926092542856 $90 $257 forward 7 unknown #
coedge $-1 $91 $247 $253 $258 reversed $154 $-1 #
vertex $-1 $258 $259 #
vertex $-1 $92 $260 #
straight-curve $-1 9.5806199108934074 26.642092709937828 62.115751314450634 0 0 -1 I I #
coedge $-1 $168 $168 $-1 $261 reversed $95 $-1 #
edge $-1 $262 0 $262 6.2831853071796004 $96 $263 forward 7 unknown #
vertex $-1 $99 $264 #
ellipse-curve $-1 -1.5053838077338568 23.156904145275185 8.0877716494622778 0 0.57357644374324357 0.81915203911291934 1.5 0 0 1 I I #
face $-1 $-1 $115 $15 $-1 $265 reversed single #
loop $-1 $-1 $188 $100 #
plane-surface $-1 0 26.642092709937828 0 0 -1 0 0 0 -1 forward_v I I I I #
coedge $-1 $266 $186 $189 $267 forward $101 $-1 #
coedge $-1 $192 $103 $104 $180 reversed $62 $-1 #
coedge $-1 $186 $266 $103 $178 reversed $101 $-1 #
edge $-1 $193 -10.528127001392559 $268 10.528127001392559 $177 $269 forward 7 unknown #
coedge $-1 $105 $104 $266 $270 forward $41 $-1 #
edge $-1 $184 -53.727225562303538 $268 53.727225562303538 $176 $271 forward 7 unknown #
coedge $-1 $189 $188 $105 $182 reversed $173 $-1 #
edge $-1 $272 -53.727225562303538 $183 53.727225562303538 $181 $273 forward 7 unknown #
vertex $-1 $107 $274 #
vertex $-1 $195 $275 #
straight-curve $-1 53.727225562303538 0 -10.528127001392559 0 -1 0 I I #
coedge $-1 $175 $177 $108 $187 reversed $101 $-1 #
edge $-1 $190 -26.642092709937828 $193 26.642092709937828 $186 $276 forward 7 unknown #
coedge $-1 $181 $109 $114 $196 forward $173 $-1 #
coedge $-1 $109 $181 $175 $267 reversed $173 $-1 #
vertex $-1 $110 $277 #
straight-curve $-1 0 26.642092709937828 10.528127001392559 -1 0 0 I I #
coedge $-1 $111 $176 $113 $195 reversed $62 $-1 #
vertex $-1 $187 $278 #
straight-curve $-1 0 -26.642092709937828 10.528127001392559 1 0 0 I I #
edge $-1 $116 -10.528127001392559 $184 10.528127001392559 $113 $279 forward 7 unknown #
edge $-1 $117 -10.528127001392559 $183 10.528127001392559 $114 $280 forward 7 unknown #
point $-1 53.727225562303538 -26.642092709937828 10.528127001392559 #
point $-1 53.727225562303538 26.642092709937828 10.528127001392559 #
face $-1 $-1 $212 $16 $-1 $281 reversed single #
loop $-1 $-1 $208 $119 #
plane-surface $-1 -53.727225562303538 0 0 1 0 0 0 0 -1 forward_v I I I I #
coedge $-1 $282 $122 $205 $283 forward $70 $-1 #
coedge $-1 $122 $282 $284 $285 forward $70 $-1 #
edge $-1 $286 -26.642092709937828 $206 26.642092709937828 $122 $287 forward 7 unknown #
coedge $-1 $124 $215 $202 $283 reversed $120 $-1 #
vertex $-1 $283 $288 #
straight-curve $-1 -44.645127984791934 -26.642092709937828 -3.8434073544818785 0 0 1 I I #
coedge $-1 $289 $290 $126 $209 forward $200 $-1 #
edge $-1 $216 -26.642092709937828 $213 26.642092709937828 $208 $291 forward 7 unknown #
coedge $-1 $284 $127 $131 $218 forward $212 $-1 #
coedge $-1 $127 $284 $289 $292 reversed $212 $-1 #
loop $-1 $-1 $210 $199 #
vertex $-1 $292 $293 #
straight-curve $-1 -24.593088386773868 26.642092709937828 -4.8455024165349556 1 0 0 I I #
coedge $-1 $205 $129 $290 $294 forward $120 $-1 #
vertex $-1 $294 $295 #
straight-curve $-1 -24.593088386773868 -26.642092709937828 -4.8455024165349556 -1 0 0 I I #
edge $-1 $133 1.0020950620530771 $286 6.68471964691068 $210 $296 forward 7 unknown #
point $-1 -44.645127984791934 -26.642092709937828 -4.8455024165349556 #
point $-1 -44.645127984791934 26.642092709937828 -4.8455024165349556 #
face $-1 $-1 $149 $17 $-1 $297 reversed single #
loop $-1 $-1 $144 $135 #
plane-surface $-1 0 26.642092709937828 0 0 -1 0 0 0 -1 forward_v I I I I #
coedge $-1 $298 $299 $139 $228 forward $136 $-1 #
coedge $-1 $300 $138 $227 $301 forward $78 $-1 #
coedge $-1 $138 $300 $147 $239 reversed $78 $-1 #
coedge $-1 $140 $139 $225 $301 reversed $49 $-1 #
edge $-1 $302 -26.642092709937828 $231 26.642092709937828 $224 $303 forward 7 unknown #
edge $-1 $232 -26.642092709937828 $236 26.642092709937828 $140 $304 forward 7 unknown #
coedge $-1 $141 $234 $298 $305 reversed $222 $-1 #
vertex $-1 $305 $306 #
vertex $-1 $145 $307 #
straight-curve $-1 44.645127984791934 26.642092709937828 -3.8434073544818785 0 0 1 I I #
coedge $-1 $230 $144 $148 $240 forward $222 $-1 #
straight-curve $-1 24.593088386773868 26.642092709937828 -4.8455024165349556 1 0 0 I I #
vertex $-1 $146 $308 #
straight-curve $-1 24.593088386773868 -26.642092709937828 -4.8455024165349556 -1 0 0 I I #
coedge $-1 $148 $147 $309 $310 reversed $149 $-1 #
edge $-1 $151 4.8455024165349556 $311 10.528127001392559 $147 $312 forward 7 unknown #
edge $-1 $150 4.8455024165349556 $313 10.528127001392559 $148 $314 forward 7 unknown #
point $-1 53.727225562303538 26.642092709937828 -4.8455024165349556 #
point $-1 53.727225562303538 -26.642092709937828 -4.8455024165349556 #
loop $-1 $-1 $161 $153 #
plane-surface $-1 0 0 10.528127001392559 0 0 1 1 0 0 forward_v I I I I #
coedge $-1 $246 $156 $158 $250 reversed $86 $-1 #
coedge $-1 $156 $245 $315 $316 reversed $86 $-1 #
coedge $-1 $164 $159 $156 $248 forward $154 $-1 #
edge $-1 $251 -56.468335016918637 $317 -51.587624313058072 $247 $318 forward 7 unknown #
coedge $-1 $158 $157 $254 $319 reversed $53 $-1 #
edge $-1 $320 44.774926092542856 $251 53.284185419875641 $245 $321 forward 7 unknown #
vertex $-1 $160 $322 #
straight-curve $-1 -0.75269190386692841 26.642092709937828 5.6474162975319917 -1 0 0 I I #
coedge $-1 $315 $161 $164 $258 forward $243 $-1 #
coedge $-1 $161 $315 $249 $319 forward $243 $-1 #
vertex $-1 $162 $323 #
straight-curve $-1 9.5806199108934074 22.313792755605057 10.528127001392562 0 1 0 I I #
straight-curve $-1 9.5806199108934074 -17.005756429224192 36.209969878419855 0 -0.81915203911291934 0.57357644374324357 I I #
edge $-1 $165 -9.5806199108934074 $317 12.591387526361121 $164 $324 forward 7 unknown #
point $-1 9.5806199108934074 26.642092709937828 10.528127001392559 #
point $-1 9.5806199108934074 26.642092709937828 5.647416297531997 #
edge $-1 $325 1 $325 0 $168 $-1 forward 7 unknown #
vertex $-1 $169 $326 #
ellipse-curve $-1 -1.5053838077338568 19.954279584150385 3.5139498539966691 0 0.57357644374324357 0.81915203911291934 1.5 0 0 1 I I #
point $-1 -0.0053838077338568269 23.156904145275185 8.087771649462276 #
plane-surface $-1 53.727225562303538 0 0 -1 0 0 0 0 1 forward_v I I I I #
coedge $-1 $177 $175 $179 $270 reversed $101 $-1 #
edge $-1 $190 -10.528127001392559 $272 10.528127001392559 $189 $327 forward 7 unknown #
vertex $-1 $270 $328 #
straight-curve $-1 -53.727225562303538 -26.642092709937828 0 0 0 -1 I I #
edge $-1 $268 -26.642092709937828 $272 26.642092709937828 $266 $329 forward 7 unknown #
straight-curve $-1 0 -26.642092709937828 -10.528127001392559 -1 0 0 I I #
vertex $-1 $182 $330 #
straight-curve $-1 0 26.642092709937828 -10.528127001392559 1 0 0 I I #
point $-1 53.727225562303538 26.642092709937828 -10.528127001392559 #
point $-1 53.727225562303538 -26.642092709937828 -10.528127001392559 #
straight-curve $-1 -53.727225562303538 0 10.528127001392559 0 -1 0 I I #
point $-1 -53.727225562303538 26.642092709937828 10.528127001392559 #
point $-1 -53.727225562303538 -26.642092709937828 10.528127001392559 #
straight-curve $-1 53.727225562303538 -26.642092709937828 0 0 0 -1 I I #
straight-curve $-1 53.727225562303538 26.642092709937828 0 0 0 -1 I I #
plane-surface $-1 0 26.642092709937828 0 0 -1 0 0 0 -1 forward_v I I I I #
coedge $-1 $203 $202 $331 $332 forward $70 $-1 #
edge $-1 $206 44.645127984791934 $333 53.727225562303538 $205 $334 forward 7 unknown #
coedge $-1 $211 $210 $203 $285 reversed $212 $-1 #
edge $-1 $335 -53.727225562303538 $286 -44.645127984791934 $284 $336 forward 7 unknown #
vertex $-1 $218 $337 #
straight-curve $-1 -44.645127984791934 0 -10.528127001392559 0 -1 0 I I #
point $-1 -44.645127984791934 -26.642092709937828 -10.528127001392559 #
coedge $-1 $331 $208 $211 $292 forward $200 $-1 #
coedge $-1 $208 $331 $215 $294 reversed $200 $-1 #
straight-curve $-1 -53.727225562303538 0 -4.8455024165349556 0 1 0 I I #
edge $-1 $213 4.8455024165349556 $335 10.528127001392559 $211 $338 forward 7 unknown #
point $-1 -53.727225562303538 26.642092709937828 -4.8455024165349556 #
edge $-1 $216 4.8455024165349556 $333 10.528127001392559 $290 $339 forward 7 unknown #
point $-1 -53.727225562303538 -26.642092709937828 -4.8455024165349556 #
straight-curve $-1 -44.645127984791934 26.642092709937828 -3.8434073544818785 0 0 -1 I I #
plane-surface $-1 53.727225562303538 0 0 -1 0 0 0 0 1 forward_v I I I I #
coedge $-1 $309 $224 $230 $305 forward $136 $-1 #
coedge $-1 $224 $309 $300 $340 forward $136 $-1 #
coedge $-1 $226 $225 $299 $340 reversed $78 $-1 #
edge $-1 $236 1.0020950620530771 $302 6.68471964691068 $225 $341 forward 7 unknown #
vertex $-1 $228 $342 #
straight-curve $-1 44.645127984791934 0 -10.528127001392559 0 1 0 I I #
straight-curve $-1 44.645127984791934 0 -4.8455024165349556 0 -1 0 I I #
edge $-1 $231 44.645127984791934 $313 53.727225562303538 $230 $343 forward 7 unknown #
point $-1 44.645127984791934 26.642092709937828 -10.528127001392559 #
point $-1 44.645127984791934 26.642092709937828 -4.8455024165349556 #
point $-1 44.645127984791934 -26.642092709937828 -4.8455024165349556 #
coedge $-1 $299 $298 $238 $310 forward $136 $-1 #
edge $-1 $313 -26.642092709937828 $311 26.642092709937828 $238 $344 forward 7 unknown #
vertex $-1 $239 $345 #
straight-curve $-1 53.727225562303538 -26.642092709937828 0 0 0 -1 I I #
vertex $-1 $310 $346 #
straight-curve $-1 53.727225562303538 26.642092709937828 0 0 0 -1 I I #
coedge $-1 $254 $253 $246 $316 forward $243 $-1 #
edge $-1 $317 -4.3282999543327705 $320 2.642077174992508 $315 $347 forward 7 unknown #
vertex $-1 $316 $348 #
straight-curve $-1 -12.591387526361121 26.642092709937828 62.115751314450634 0 0 1 I I #
edge $-1 $320 -11.838695622494193 $255 10.333311814760336 $254 $349 forward 7 unknown #
vertex $-1 $319 $350 #
straight-curve $-1 -12.591387526361121 -17.005756429224192 36.209969878419855 0 0.81915203911291934 -0.57357644374324357 I I #
point $-1 -12.591387526361121 26.642092709937828 5.647416297531997 #
point $-1 9.5806199108934074 19.671715580612549 10.528127001392559 #
straight-curve $-1 0 26.642092709937828 10.528127001392559 -1 0 0 I I #
vertex $-1 $261 $351 #
point $-1 -0.0053838077338568269 19.954279584150385 3.5139498539966691 #
straight-curve $-1 -53.727225562303538 26.642092709937828 0 0 0 -1 I I #
point $-1 -53.727225562303538 -26.642092709937828 -10.528127001392559 #
straight-curve $-1 -53.727225562303538 0 -10.528127001392559 0 1 0 I I #
point $-1 -53.727225562303538 26.642092709937828 -10.528127001392559 #
coedge $-1 $290 $289 $282 $332 reversed $200 $-1 #
edge $-1 $333 -26.642092709937828 $335 26.642092709937828 $331 $352 forward 7 unknown #
vertex $-1 $332 $353 #
straight-curve $-1 0 -26.642092709937828 -10.528127001392559 -1 0 0 I I #
vertex $-1 $285 $354 #
straight-curve $-1 0 26.642092709937828 -10.528127001392559 1 0 0 I I #
point $-1 -44.645127984791934 26.642092709937828 -10.528127001392559 #
straight-curve $-1 -53.727225562303538 26.642092709937828 0 0 0 -1 I I #
straight-curve $-1 -53.727225562303538 -26.642092709937828 0 0 0 -1 I I #
edge $-1 $311 -53.727225562303538 $302 -44.645127984791934 $300 $355 forward 7 unknown #
straight-curve $-1 44.645127984791934 -26.642092709937828 -3.8434073544818785 0 0 -1 I I #
point $-1 44.645127984791934 -26.642092709937828 -10.528127001392559 #
straight-curve $-1 0 26.642092709937828 -10.528127001392559 1 0 0 I I #
straight-curve $-1 53.727225562303538 0 -10.528127001392559 0 -1 0 I I #
point $-1 53.727225562303538 -26.642092709937828 -10.528127001392559 #
point $-1 53.727225562303538 26.642092709937828 -10.528127001392559 #
straight-curve $-1 -12.591387526361121 22.313792755605057 10.528127001392562 0 -1 0 I I #
point $-1 -12.591387526361121 26.642092709937828 10.528127001392559 #
straight-curve $-1 -0.75269190386692841 19.671715580612549 10.528127001392562 1 0 0 I I #
point $-1 -12.591387526361121 19.671715580612549 10.528127001392559 #
point $-1 -1.5053838077338568 19.093914918535518 2.2852217953272902 #
straight-curve $-1 -53.727225562303538 0 -10.528127001392559 0 1 0 I I #
point $-1 -53.727225562303538 -26.642092709937828 -10.528127001392559 #
point $-1 -53.727225562303538 26.642092709937828 -10.528127001392559 #
straight-curve $-1 0 -26.642092709937828 -10.528127001392559 -1 0 0 I I #
End-of-ACIS-data 