500 0 3 0           
7 Unknown 11 ACIS 5.0 NT 24 Fri Mar 26 18:20:06 1999 
-1 9.9999999999999995e-007 1e-010 
body $-1 $3 $-1 $4 #
body $-1 $5 $-1 $6 #
body $-1 $7 $-1 $8 #
lump $-1 $-1 $9 $0 #
transform $-1 1 0 0 0 1 0 0 0 1 44.021118808557389 21.247877768864466 6.8972114353083906 1 rotate no_reflect no_shear #
lump $-1 $-1 $10 $1 #
transform $-1 1 0 0 0 1 0 0 0 1 44.021118808557389 21.247877768864466 6.8972114353083906 1 rotate no_reflect no_shear #
lump $-1 $-1 $11 $2 #
transform $-1 1 0 0 0 1 0 0 0 1 44.021118808557389 21.247877768864466 6.8972114353083906 1 rotate no_reflect no_shear #
shell $-1 $-1 $-1 $12 $-1 $3 #
shell $-1 $-1 $-1 $13 $-1 $5 #
shell $-1 $-1 $-1 $14 $-1 $7 #
face $-1 $15 $16 $9 $-1 $17 forward single #
face $-1 $18 $19 $10 $-1 $20 reversed single #
face $-1 $21 $22 $11 $-1 $23 reversed single #
face $-1 $24 $25 $9 $-1 $26 reversed single #
loop $-1 $-1 $27 $12 #
plane-surface $-1 0 0 6.8972114353083906 0 0 1 1 0 0 forward_v I I I I #
face $-1 $28 $29 $10 $-1 $30 reversed single #
loop $-1 $-1 $31 $13 #
plane-surface $-1 -33.726695937940605 -18.722705247377519 0 1 0 0 0 0 -1 forward_v I I I I #
face $-1 $32 $33 $11 $-1 $34 reversed single #
loop $-1 $-1 $35 $14 #
plane-surface $-1 -32.226695937940605 16.197532725890575 0 0 1 0 0 0 1 forward_v I I I I #
face $-1 $36 $37 $9 $-1 $38 reversed single #
loop $-1 $-1 $39 $15 #
plane-surface $-1 0 0 -6.8972114353083906 0 0 1 1 0 0 forward_v I I I I #
coedge $-1 $40 $41 $42 $43 forward $16 $-1 #
face $-1 $44 $45 $10 $-1 $46 reversed single #
loop $-1 $-1 $47 $18 #
plane-surface $-1 -32.226695937940605 -16.197532725890571 0 0 -1 0 0 0 -1 forward_v I I I I #
coedge $-1 $48 $49 $50 $51 forward $19 $-1 #
face $-1 $52 $53 $11 $-1 $54 reversed single #
loop $-1 $-1 $55 $21 #
plane-surface $-1 -33.726695937940605 18.722705247377522 0 1 0 0 0 0 -1 forward_v I I I I #
coedge $-1 $56 $57 $58 $59 forward $22 $-1 #
face $-1 $60 $61 $9 $-1 $62 reversed single #
loop $-1 $-1 $63 $24 #
plane-surface $-1 0 -21.247877768864466 0 0 1 0 0 0 1 forward_v I I I I #
coedge $-1 $64 $65 $66 $67 forward $25 $-1 #
coedge $-1 $68 $27 $69 $70 forward $16 $-1 #
coedge $-1 $27 $68 $71 $72 forward $16 $-1 #
coedge $-1 $73 $74 $27 $43 reversed $75 $-1 #
edge $-1 $76 -21.247877768864466 $77 21.247877768864466 $42 $78 forward 7 unknown #
face $-1 $79 $80 $10 $-1 $81 forward single #
loop $-1 $-1 $82 $28 #
plane-surface $-1 -30.726695937940605 -18.722705247377519 0 -1 0 0 0 0 1 forward_v I I I I #
coedge $-1 $83 $84 $85 $86 forward $29 $-1 #
coedge $-1 $87 $31 $88 $89 reversed $19 $-1 #
coedge $-1 $31 $87 $90 $91 reversed $19 $-1 #
coedge $-1 $84 $83 $31 $51 reversed $29 $-1 #
edge $-1 $92 -6.8972114353083906 $93 6.8972114353083906 $50 $94 forward 7 unknown #
face $-1 $95 $96 $11 $-1 $97 reversed single #
loop $-1 $-1 $98 $32 #
plane-surface $-1 -30.726695937940605 18.722705247377522 0 -1 0 0 0 0 1 forward_v I I I I #
coedge $-1 $99 $100 $101 $102 reversed $33 $-1 #
coedge $-1 $103 $35 $104 $105 reversed $22 $-1 #
coedge $-1 $35 $103 $106 $107 reversed $22 $-1 #
coedge $-1 $100 $99 $35 $59 reversed $33 $-1 #
edge $-1 $108 -6.8972114353083906 $109 6.8972114353083906 $58 $110 forward 7 unknown #
face $-1 $111 $112 $9 $-1 $113 reversed single #
loop $-1 $-1 $114 $36 #
plane-surface $-1 -44.021118808557389 0 0 1 0 0 0 0 -1 forward_v I I I I #
coedge $-1 $115 $71 $116 $117 forward $37 $-1 #
coedge $-1 $118 $39 $115 $119 forward $25 $-1 #
coedge $-1 $39 $118 $120 $121 forward $25 $-1 #
coedge $-1 $74 $73 $39 $67 reversed $75 $-1 #
edge $-1 $122 -21.247877768864466 $123 21.247877768864466 $66 $124 forward 7 unknown #
coedge $-1 $41 $40 $125 $126 forward $16 $-1 #
coedge $-1 $127 $128 $40 $70 reversed $112 $-1 #
edge $-1 $77 -44.021118808557389 $129 44.021118808557389 $69 $130 forward 7 unknown #
coedge $-1 $63 $131 $41 $72 reversed $37 $-1 #
edge $-1 $132 -44.021118808557389 $76 44.021118808557389 $71 $133 forward 7 unknown #
coedge $-1 $66 $42 $131 $134 forward $75 $-1 #
coedge $-1 $42 $66 $127 $135 reversed $75 $-1 #
loop $-1 $-1 $73 $111 #
vertex $-1 $43 $136 #
vertex $-1 $43 $137 #
straight-curve $-1 44.021118808557389 0 6.8972114353083906 0 1 0 I I #
face $-1 $138 $139 $10 $-1 $140 reversed single #
loop $-1 $-1 $141 $44 #
plane-surface $-1 0 0 6.8972114353083906 0 0 1 1 0 0 forward_v I I I I #
coedge $-1 $142 $143 $144 $145 reversed $45 $-1 #
coedge $-1 $50 $47 $146 $147 reversed $29 $-1 #
coedge $-1 $47 $50 $148 $149 reversed $29 $-1 #
coedge $-1 $143 $142 $47 $86 reversed $45 $-1 #
edge $-1 $150 -6.8972114353083906 $151 6.8972114353083906 $85 $152 forward 7 unknown #
coedge $-1 $49 $48 $153 $154 reversed $19 $-1 #
coedge $-1 $146 $155 $48 $89 forward $139 $-1 #
edge $-1 $156 -11.886525145175707 $93 -6.836180102201812 $88 $157 forward 7 unknown #
coedge $-1 $158 $148 $49 $91 forward $80 $-1 #
edge $-1 $92 6.836180102201812 $159 11.886525145175707 $90 $160 forward 7 unknown #
vertex $-1 $91 $161 #
vertex $-1 $89 $162 #
straight-curve $-1 -33.726695937940605 -16.197532725890571 0 0 0 -1 I I #
face $-1 $163 $164 $11 $-1 $165 forward single #
loop $-1 $-1 $166 $52 #
plane-surface $-1 0 0 -6.8972114353083906 0 0 1 1 0 0 forward_v I I I I #
coedge $-1 $167 $168 $103 $169 forward $53 $-1 #
coedge $-1 $58 $55 $170 $171 reversed $33 $-1 #
coedge $-1 $55 $58 $172 $173 reversed $33 $-1 #
coedge $-1 $174 $175 $55 $102 forward $176 $-1 #
edge $-1 $177 -6.8972114353083906 $178 6.8972114353083906 $101 $179 forward 7 unknown #
coedge $-1 $57 $56 $98 $169 reversed $22 $-1 #
coedge $-1 $170 $166 $56 $105 forward $96 $-1 #
edge $-1 $180 14.613347968970302 $109 17.613347968970302 $104 $181 forward 7 unknown #
coedge $-1 $182 $172 $57 $107 forward $164 $-1 #
edge $-1 $108 -17.613347968970302 $183 -14.613347968970302 $106 $184 forward 7 unknown #
vertex $-1 $107 $185 #
vertex $-1 $105 $186 #
straight-curve $-1 -33.726695937940605 16.197532725890575 0 0 0 -1 I I #
face $-1 $-1 $75 $9 $-1 $187 reversed single #
loop $-1 $-1 $127 $60 #
plane-surface $-1 0 21.247877768864466 0 0 -1 0 0 0 -1 forward_v I I I I #
coedge $-1 $188 $125 $128 $189 forward $61 $-1 #
coedge $-1 $131 $63 $64 $119 reversed $37 $-1 #
coedge $-1 $125 $188 $63 $117 reversed $61 $-1 #
edge $-1 $132 -6.8972114353083906 $190 6.8972114353083906 $116 $191 forward 7 unknown #
coedge $-1 $65 $64 $188 $192 forward $25 $-1 #
edge $-1 $123 -44.021118808557389 $190 44.021118808557389 $115 $193 forward 7 unknown #
coedge $-1 $128 $127 $65 $121 reversed $112 $-1 #
edge $-1 $194 -44.021118808557389 $122 44.021118808557389 $120 $195 forward 7 unknown #
vertex $-1 $67 $196 #
vertex $-1 $134 $197 #
straight-curve $-1 44.021118808557389 0 -6.8972114353083906 0 -1 0 I I #
coedge $-1 $114 $116 $68 $126 reversed $61 $-1 #
edge $-1 $129 -21.247877768864466 $132 21.247877768864466 $125 $198 forward 7 unknown #
coedge $-1 $120 $69 $74 $135 forward $112 $-1 #
coedge $-1 $69 $120 $114 $189 reversed $112 $-1 #
vertex $-1 $70 $199 #
straight-curve $-1 0 21.247877768864466 6.8972114353083906 -1 0 0 I I #
coedge $-1 $71 $115 $73 $134 reversed $37 $-1 #
vertex $-1 $126 $200 #
straight-curve $-1 0 -21.247877768864466 6.8972114353083906 1 0 0 I I #
edge $-1 $76 -6.8972114353083906 $123 6.8972114353083906 $73 $201 forward 7 unknown #
edge $-1 $77 -6.8972114353083906 $122 6.8972114353083906 $74 $202 forward 7 unknown #
point $-1 44.021118808557389 -21.247877768864466 6.8972114353083906 #
point $-1 44.021118808557389 21.247877768864466 6.8972114353083906 #
face $-1 $-1 $203 $10 $-1 $204 reversed single #
loop $-1 $-1 $205 $79 #
plane-surface $-1 0 0 -6.8972114353083906 0 0 1 1 0 0 forward_v I I I I #
coedge $-1 $148 $158 $143 $206 forward $80 $-1 #
coedge $-1 $85 $82 $205 $207 reversed $45 $-1 #
coedge $-1 $82 $85 $141 $206 reversed $45 $-1 #
coedge $-1 $208 $209 $82 $145 forward $203 $-1 #
edge $-1 $210 -6.8972114353083906 $211 6.8972114353083906 $144 $212 forward 7 unknown #
coedge $-1 $205 $88 $83 $147 forward $139 $-1 #
edge $-1 $93 -17.613347968970302 $151 -14.613347968970302 $146 $213 forward 7 unknown #
coedge $-1 $90 $141 $84 $149 forward $80 $-1 #
edge $-1 $150 14.613347968970302 $92 17.613347968970302 $148 $214 forward 7 unknown #
vertex $-1 $149 $215 #
vertex $-1 $147 $216 #
straight-curve $-1 -30.726695937940605 -16.197532725890571 0 0 0 -1 I I #
coedge $-1 $209 $208 $87 $154 forward $203 $-1 #
edge $-1 $159 -6.8972114353083906 $156 6.8972114353083906 $153 $217 forward 7 unknown #
coedge $-1 $88 $205 $209 $218 forward $139 $-1 #
vertex $-1 $89 $219 #
straight-curve $-1 -33.726695937940605 -9.3613526236887594 -6.8972114353083906 0 1 0 I I #
coedge $-1 $141 $90 $208 $220 forward $80 $-1 #
vertex $-1 $220 $221 #
straight-curve $-1 -33.726695937940605 -9.3613526236887594 6.8972114353083906 0 -1 0 I I #
point $-1 -33.726695937940605 -16.197532725890571 6.8972114353083906 #
point $-1 -33.726695937940605 -16.197532725890571 -6.8972114353083906 #
face $-1 $-1 $176 $11 $-1 $222 reversed single #
loop $-1 $-1 $182 $95 #
plane-surface $-1 0 0 6.8972114353083906 0 0 1 1 0 0 forward_v I I I I #
coedge $-1 $104 $223 $167 $224 forward $96 $-1 #
coedge $-1 $225 $98 $166 $224 reversed $53 $-1 #
coedge $-1 $98 $225 $182 $226 reversed $53 $-1 #
edge $-1 $183 -6.8972114353083906 $180 6.8972114353083906 $98 $227 forward 7 unknown #
coedge $-1 $223 $104 $99 $171 forward $96 $-1 #
edge $-1 $109 6.8361801022018138 $177 11.886525145175709 $170 $228 forward 7 unknown #
coedge $-1 $106 $229 $100 $173 forward $164 $-1 #
edge $-1 $178 -11.886525145175709 $108 -6.8361801022018138 $172 $230 forward 7 unknown #
coedge $-1 $231 $101 $229 $232 reversed $176 $-1 #
coedge $-1 $101 $231 $223 $233 reversed $176 $-1 #
loop $-1 $-1 $231 $163 #
vertex $-1 $233 $234 #
vertex $-1 $102 $235 #
straight-curve $-1 -33.726695937940605 21.247877768864466 0 0 0 1 I I #
vertex $-1 $105 $236 #
straight-curve $-1 -16.113347968970302 16.197532725890575 -6.8972114353083906 -1 0 0 I I #
coedge $-1 $229 $106 $168 $226 forward $164 $-1 #
vertex $-1 $107 $237 #
straight-curve $-1 -16.113347968970302 16.197532725890575 6.8972114353083906 1 0 0 I I #
point $-1 -33.726695937940605 16.197532725890575 6.8972114353083906 #
point $-1 -33.726695937940605 16.197532725890575 -6.8972114353083906 #
plane-surface $-1 44.021118808557389 0 0 -1 0 0 0 0 1 forward_v I I I I #
coedge $-1 $116 $114 $118 $192 reversed $61 $-1 #
edge $-1 $129 -6.8972114353083906 $194 6.8972114353083906 $128 $238 forward 7 unknown #
vertex $-1 $192 $239 #
straight-curve $-1 -44.021118808557389 -21.247877768864466 0 0 0 -1 I I #
edge $-1 $190 -21.247877768864466 $194 21.247877768864466 $188 $240 forward 7 unknown #
straight-curve $-1 0 -21.247877768864466 -6.8972114353083906 -1 0 0 I I #
vertex $-1 $121 $241 #
straight-curve $-1 0 21.247877768864466 -6.8972114353083906 1 0 0 I I #
point $-1 44.021118808557389 21.247877768864466 -6.8972114353083906 #
point $-1 44.021118808557389 -21.247877768864466 -6.8972114353083906 #
straight-curve $-1 -44.021118808557389 0 6.8972114353083906 0 -1 0 I I #
point $-1 -44.021118808557389 21.247877768864466 6.8972114353083906 #
point $-1 -44.021118808557389 -21.247877768864466 6.8972114353083906 #
straight-curve $-1 44.021118808557389 -21.247877768864466 0 0 0 -1 I I #
straight-curve $-1 44.021118808557389 21.247877768864466 0 0 0 -1 I I #
loop $-1 $-1 $144 $138 #
plane-surface $-1 0 -21.247877768864466 0 0 1 0 0 0 1 forward_v I I I I #
coedge $-1 $155 $146 $142 $207 forward $139 $-1 #
edge $-1 $211 -11.886525145175707 $150 -6.836180102201812 $141 $242 forward 7 unknown #
edge $-1 $151 6.836180102201812 $210 11.886525145175707 $205 $243 forward 7 unknown #
coedge $-1 $153 $144 $158 $220 reversed $203 $-1 #
coedge $-1 $144 $153 $155 $218 reversed $203 $-1 #
vertex $-1 $218 $244 #
vertex $-1 $145 $245 #
straight-curve $-1 -30.726695937940605 -21.247877768864466 0 0 0 1 I I #
straight-curve $-1 -16.113347968970302 -16.197532725890571 -6.8972114353083906 1 0 0 I I #
straight-curve $-1 -16.113347968970302 -16.197532725890571 6.8972114353083906 -1 0 0 I I #
point $-1 -30.726695937940605 -16.197532725890571 6.8972114353083906 #
point $-1 -30.726695937940605 -16.197532725890571 -6.8972114353083906 #
straight-curve $-1 -33.726695937940605 -21.247877768864466 0 0 0 -1 I I #
edge $-1 $210 30.726695937940605 $156 33.726695937940605 $209 $246 forward 7 unknown #
point $-1 -33.726695937940605 -21.247877768864466 -6.8972114353083906 #
edge $-1 $159 -33.726695937940605 $211 -30.726695937940605 $208 $247 forward 7 unknown #
point $-1 -33.726695937940605 -21.247877768864466 6.8972114353083906 #
plane-surface $-1 0 21.247877768864466 0 0 -1 0 0 0 -1 forward_v I I I I #
coedge $-1 $166 $170 $175 $233 forward $96 $-1 #
edge $-1 $248 -11.886525145175709 $180 -6.8361801022018138 $166 $249 forward 7 unknown #
coedge $-1 $168 $167 $231 $250 reversed $53 $-1 #
edge $-1 $183 6.8361801022018138 $251 11.886525145175709 $182 $252 forward 7 unknown #
straight-curve $-1 -30.726695937940605 16.197532725890575 0 0 0 -1 I I #
straight-curve $-1 -33.726695937940605 9.3613526236887612 -6.8972114353083906 0 1 0 I I #
coedge $-1 $172 $182 $174 $232 forward $164 $-1 #
straight-curve $-1 -33.726695937940605 9.3613526236887612 6.8972114353083906 0 -1 0 I I #
coedge $-1 $175 $174 $225 $250 forward $176 $-1 #
edge $-1 $251 30.726695937940605 $178 33.726695937940605 $174 $253 forward 7 unknown #
edge $-1 $177 -33.726695937940605 $248 -30.726695937940605 $175 $254 forward 7 unknown #
point $-1 -33.726695937940605 21.24787776886447 -6.8972114353083906 #
point $-1 -33.726695937940605 21.24787776886447 6.8972114353083906 #
point $-1 -30.726695937940605 16.197532725890575 -6.8972114353083906 #
point $-1 -30.726695937940605 16.197532725890575 6.8972114353083906 #
straight-curve $-1 -44.021118808557389 21.247877768864466 0 0 0 -1 I I #
point $-1 -44.021118808557389 -21.247877768864466 -6.8972114353083906 #
straight-curve $-1 -44.021118808557389 0 -6.8972114353083906 0 1 0 I I #
point $-1 -44.021118808557389 21.247877768864466 -6.8972114353083906 #
straight-curve $-1 -30.726695937940605 -9.3613526236887594 6.8972114353083906 0 1 0 I I #
straight-curve $-1 -30.726695937940605 -9.3613526236887594 -6.8972114353083906 0 -1 0 I I #
point $-1 -30.726695937940605 -21.247877768864466 -6.8972114353083906 #
point $-1 -30.726695937940605 -21.247877768864466 6.8972114353083906 #
straight-curve $-1 0 -21.247877768864466 -6.8972114353083906 -1 0 0 I I #
straight-curve $-1 0 -21.247877768864466 6.8972114353083906 1 0 0 I I #
vertex $-1 $250 $255 #
straight-curve $-1 -30.726695937940605 9.3613526236887612 -6.8972114353083906 0 -1 0 I I #
edge $-1 $251 -6.8972114353083906 $248 6.8972114353083906 $231 $256 forward 7 unknown #
vertex $-1 $232 $257 #
straight-curve $-1 -30.726695937940605 9.3613526236887612 6.8972114353083906 0 1 0 I I #
straight-curve $-1 0 21.247877768864466 6.8972114353083906 -1 0 0 I I #
straight-curve $-1 0 21.247877768864466 -6.8972114353083906 1 0 0 I I #
point $-1 -30.726695937940605 21.24787776886447 -6.8972114353083906 #
straight-curve $-1 -30.726695937940605 21.247877768864466 0 0 0 -1 I I #
point $-1 -30.726695937940605 21.24787776886447 6.8972114353083906 #
End-of-ACIS-data 