500 0 5 0           
7 Unknown 11 ACIS 5.0 NT 24 Fri Mar 26 02:09:13 1999 
-1 9.9999999999999995e-007 1e-010 
body $-1 $5 $-1 $6 #
body $-1 $7 $-1 $8 #
body $-1 $9 $-1 $10 #
body $-1 $11 $-1 $12 #
body $-1 $13 $-1 $14 #
lump $-1 $-1 $15 $0 #
transform $-1 1 0 0 0 1 0 0 0 1 78.40205084383679 36.342450326757657 13.53389434086818 1 rotate no_reflect no_shear #
lump $-1 $-1 $16 $1 #
transform $-1 1 0 0 0 1 0 0 0 1 78.40205084383679 36.342450326757657 13.53389434086818 1 rotate no_reflect no_shear #
lump $-1 $-1 $17 $2 #
transform $-1 1 0 0 0 1 0 0 0 1 78.40205084383679 36.342450326757657 13.53389434086818 1 rotate no_reflect no_shear #
lump $-1 $-1 $18 $3 #
transform $-1 1 0 0 0 1 0 0 0 1 78.40205084383679 36.342450326757657 13.53389434086818 1 rotate no_reflect no_shear #
lump $-1 $-1 $19 $4 #
transform $-1 1 0 0 0 1 0 0 0 1 78.40205084383679 36.342450326757657 13.53389434086818 1 rotate no_reflect no_shear #
shell $-1 $-1 $-1 $20 $-1 $5 #
shell $-1 $-1 $-1 $21 $-1 $7 #
shell $-1 $-1 $-1 $22 $-1 $9 #
shell $-1 $-1 $-1 $23 $-1 $11 #
shell $-1 $-1 $-1 $24 $-1 $13 #
face $-1 $25 $26 $15 $-1 $27 forward single #
face $-1 $28 $29 $16 $-1 $30 reversed single #
face $-1 $31 $32 $17 $-1 $33 forward single #
face $-1 $34 $35 $18 $-1 $36 reversed single #
face $-1 $37 $38 $19 $-1 $39 forward single #
face $-1 $40 $41 $15 $-1 $42 reversed single #
loop $-1 $-1 $43 $20 #
plane-surface $-1 0 0 13.53389434086818 0 0 1 1 0 0 forward_v I I I I #
face $-1 $44 $45 $16 $-1 $46 reversed single #
loop $-1 $-1 $47 $21 #
plane-surface $-1 54.892681345224347 125.6940636577569 151.03294995138788 1 0 0 0 -0.82903758062907751 -0.55919289150049634 forward_v I I I I #
face $-1 $48 $49 $17 $-1 $50 forward single #
loop $-1 $51 $52 $22 #
cone-surface $-1 66.647366094530568 31.312144282196783 7.2949389018297692 0 -0.82903758062907751 -0.55919289150049634 2 0 0 1 I I 0 1 2 forward I I I I #
face $-1 $53 $54 $18 $-1 $55 reversed single #
loop $-1 $-1 $56 $23 #
plane-surface $-1 66.647366094530568 -36.342450326757671 3.0906967434646759 0 -0.82903758062907751 0.55919289150049634 1 0 0 forward_v I I I I #
face $-1 $57 $58 $19 $-1 $59 forward single #
loop $-1 $60 $61 $24 #
cone-surface $-1 66.647366094530568 -31.312144282196776 7.2949389018297834 0 0.82903758062907751 -0.55919289150049634 2 0 0 1 I I 0 1 2 forward I I I I #
face $-1 $62 $63 $15 $-1 $64 reversed single #
loop $-1 $-1 $65 $25 #
plane-surface $-1 0 0 -13.53389434086818 0 0 1 1 0 0 forward_v I I I I #
coedge $-1 $66 $67 $68 $69 forward $26 $-1 #
face $-1 $70 $71 $16 $-1 $72 forward single #
loop $-1 $-1 $73 $28 #
plane-surface $-1 66.647366094530568 -4.3024294381078647 63.349210929519828 0 0.82903758062907751 0.55919289150049634 1 0 0 forward_v I I I I #
coedge $-1 $74 $75 $76 $77 reversed $29 $-1 #
face $-1 $-1 $78 $17 $-1 $79 forward single #
loop $-1 $80 $81 $31 #
cone-surface $-1 66.647366094530568 28.974813408571038 5.7183893699926358 0 -0.82903758062907751 -0.55919289150049634 1 0 0 1 I I -0.70710678118654746 0.70710678118654746 1 forward I I I I #
loop $-1 $-1 $82 $22 #
coedge $-1 $52 $52 $83 $84 reversed $32 $-1 #
face $-1 $85 $86 $18 $-1 $87 reversed single #
loop $-1 $-1 $88 $34 #
plane-surface $-1 54.892681345224347 -166.33894342262244 90.774435765332726 1 0 0 0 0.82903758062907751 -0.55919289150049634 forward_v I I I I #
coedge $-1 $89 $90 $91 $92 reversed $35 $-1 #
face $-1 $-1 $93 $19 $-1 $94 forward single #
loop $-1 $95 $96 $37 #
cone-surface $-1 66.647366094530568 -28.97481340857103 5.71838936999265 0 0.82903758062907751 -0.55919289150049634 1 0 0 1 I I -0.70710678118654746 0.70710678118654746 1 forward I I I I #
loop $-1 $-1 $97 $24 #
coedge $-1 $61 $61 $98 $99 reversed $38 $-1 #
face $-1 $100 $101 $15 $-1 $102 reversed single #
loop $-1 $-1 $103 $40 #
plane-surface $-1 0 -36.342450326757657 0 0 1 0 0 0 1 forward_v I I I I #
coedge $-1 $104 $105 $106 $107 forward $41 $-1 #
coedge $-1 $108 $43 $109 $110 forward $26 $-1 #
coedge $-1 $43 $108 $111 $112 forward $26 $-1 #
coedge $-1 $113 $114 $43 $69 reversed $115 $-1 #
edge $-1 $116 -36.342450326757657 $117 36.342450326757657 $68 $118 forward 7 unknown #
face $-1 $119 $120 $16 $-1 $121 reversed single #
loop $-1 $-1 $76 $44 #
plane-surface $-1 0 0 13.53389434086818 0 0 1 1 0 0 forward_v I I I I #
coedge $-1 $122 $123 $124 $125 reversed $45 $-1 #
coedge $-1 $75 $47 $126 $127 reversed $29 $-1 #
coedge $-1 $47 $74 $122 $128 reversed $29 $-1 #
coedge $-1 $124 $129 $47 $77 forward $71 $-1 #
edge $-1 $130 26.504581502120793 $131 33.54860700524921 $76 $132 forward 7 unknown #
loop $-1 $-1 $83 $48 #
plane-surface $-1 66.647366094530568 -4.3024294381078647 63.349210929519828 0 0.82903758062907751 0.55919289150049634 1 0 0 forward_v I I I I #
loop $-1 $-1 $133 $31 #
coedge $-1 $81 $81 $82 $134 reversed $49 $-1 #
coedge $-1 $82 $82 $81 $134 forward $51 $-1 #
coedge $-1 $83 $83 $52 $84 forward $78 $-1 #
edge $-1 $135 2.2234762998362979e-016 $135 6.2831853071796004 $83 $136 forward 7 unknown #
face $-1 $137 $138 $18 $-1 $139 reversed single #
loop $-1 $-1 $140 $53 #
plane-surface $-1 0 -36.342450326757657 0 0 1 0 0 0 1 forward_v I I I I #
coedge $-1 $141 $142 $143 $144 reversed $54 $-1 #
coedge $-1 $145 $56 $146 $147 reversed $35 $-1 #
coedge $-1 $56 $145 $141 $148 forward $35 $-1 #
coedge $-1 $143 $149 $56 $92 forward $150 $-1 #
edge $-1 $151 -45.078367796571506 $152 -21.568998297959062 $91 $153 forward 7 unknown #
loop $-1 $-1 $98 $57 #
plane-surface $-1 66.647366094530568 -36.342450326757671 3.0906967434646759 0 -0.82903758062907751 0.55919289150049634 1 0 0 forward_v I I I I #
loop $-1 $-1 $154 $37 #
coedge $-1 $96 $96 $97 $155 reversed $58 $-1 #
coedge $-1 $97 $97 $96 $155 forward $60 $-1 #
coedge $-1 $98 $98 $61 $99 forward $93 $-1 #
edge $-1 $156 -4.4469525996725958e-016 $156 6.2831853071795996 $98 $157 forward 7 unknown #
face $-1 $158 $159 $15 $-1 $160 reversed single #
loop $-1 $-1 $161 $62 #
plane-surface $-1 -78.40205084383679 0 0 1 0 0 0 0 -1 forward_v I I I I #
coedge $-1 $162 $111 $163 $164 forward $63 $-1 #
coedge $-1 $165 $65 $162 $166 forward $41 $-1 #
coedge $-1 $65 $165 $167 $168 forward $41 $-1 #
coedge $-1 $114 $113 $65 $107 reversed $115 $-1 #
edge $-1 $169 -36.342450326757657 $170 36.342450326757657 $106 $171 forward 7 unknown #
coedge $-1 $67 $66 $172 $173 forward $26 $-1 #
coedge $-1 $174 $175 $66 $110 reversed $159 $-1 #
edge $-1 $117 -78.40205084383679 $176 78.40205084383679 $109 $177 forward 7 unknown #
coedge $-1 $103 $178 $67 $112 reversed $63 $-1 #
edge $-1 $179 -78.40205084383679 $116 78.40205084383679 $111 $180 forward 7 unknown #
coedge $-1 $106 $68 $178 $181 forward $115 $-1 #
coedge $-1 $68 $106 $174 $182 reversed $115 $-1 #
loop $-1 $-1 $113 $158 #
vertex $-1 $69 $183 #
vertex $-1 $69 $184 #
straight-curve $-1 78.40205084383679 0 13.53389434086818 0 1 0 I I #
face $-1 $-1 $185 $16 $-1 $186 reversed single #
loop $-1 $-1 $126 $70 #
plane-surface $-1 0 36.342450326757657 0 0 -1 0 0 0 -1 forward_v I I I I #
coedge $-1 $187 $73 $75 $128 forward $45 $-1 #
coedge $-1 $73 $187 $188 $189 reversed $45 $-1 #
coedge $-1 $190 $76 $73 $125 forward $71 $-1 #
edge $-1 $131 21.568998297959062 $191 45.078367796571506 $124 $192 forward 7 unknown #
coedge $-1 $193 $194 $74 $127 forward $120 $-1 #
edge $-1 $195 -72.425778232229263 $130 -61.982580634825759 $126 $196 forward 7 unknown #
edge $-1 $131 60.088128394434861 $195 72.684900653515271 $75 $197 forward 7 unknown #
coedge $-1 $76 $190 $193 $198 forward $71 $-1 #
vertex $-1 $127 $199 #
vertex $-1 $77 $200 #
straight-curve $-1 54.892681345224347 62.84703182887845 13.533894340868187 0 -1 0 I I #
coedge $-1 $133 $133 $-1 $201 reversed $80 $-1 #
edge $-1 $202 0 $202 6.2831853071796004 $81 $203 forward 7 unknown #
vertex $-1 $84 $204 #
ellipse-curve $-1 66.647366094530568 32.820437575193459 8.312295542166412 0 0.82903758062907751 0.55919289150049634 2 0 0 1 I I #
face $-1 $-1 $150 $18 $-1 $205 forward single #
loop $-1 $-1 $146 $85 #
plane-surface $-1 78.40205084383679 0 0 -1 0 0 0 0 1 forward_v I I I I #
coedge $-1 $206 $207 $142 $208 forward $86 $-1 #
coedge $-1 $142 $88 $90 $148 reversed $54 $-1 #
coedge $-1 $88 $141 $140 $208 reversed $54 $-1 #
coedge $-1 $209 $91 $88 $144 forward $150 $-1 #
edge $-1 $152 -53.871046887681963 $210 -46.827021384553561 $143 $211 forward 7 unknown #
coedge $-1 $90 $89 $206 $212 reversed $35 $-1 #
coedge $-1 $213 $214 $89 $147 forward $138 $-1 #
edge $-1 $215 -8.880068065886304 $151 3.7167041931940847 $146 $216 forward 7 unknown #
edge $-1 $217 2.5250441212413278e-014 $152 12.596772259080414 $141 $218 forward 7 unknown #
coedge $-1 $91 $209 $213 $219 forward $150 $-1 #
loop $-1 $-1 $143 $137 #
vertex $-1 $147 $220 #
vertex $-1 $92 $221 #
straight-curve $-1 33.323683047265284 -29.298424823629258 13.53389434086818 -1 0 0 I I #
coedge $-1 $154 $154 $-1 $222 reversed $95 $-1 #
edge $-1 $223 0 $223 6.2831853071796004 $96 $224 forward 7 unknown #
vertex $-1 $99 $225 #
ellipse-curve $-1 66.647366094530568 -32.820437575193459 8.3122955421664315 0 -0.82903758062907751 0.55919289150049634 2 0 0 1 I I #
face $-1 $-1 $115 $15 $-1 $226 reversed single #
loop $-1 $-1 $174 $100 #
plane-surface $-1 0 36.342450326757657 0 0 -1 0 0 0 -1 forward_v I I I I #
coedge $-1 $227 $172 $175 $228 forward $101 $-1 #
coedge $-1 $178 $103 $104 $166 reversed $63 $-1 #
coedge $-1 $172 $227 $103 $164 reversed $101 $-1 #
edge $-1 $179 -13.53389434086818 $229 13.53389434086818 $163 $230 forward 7 unknown #
coedge $-1 $105 $104 $227 $231 forward $41 $-1 #
edge $-1 $170 -78.40205084383679 $229 78.40205084383679 $162 $232 forward 7 unknown #
coedge $-1 $175 $174 $105 $168 reversed $159 $-1 #
edge $-1 $233 -78.40205084383679 $169 78.40205084383679 $167 $234 forward 7 unknown #
vertex $-1 $107 $235 #
vertex $-1 $181 $236 #
straight-curve $-1 78.40205084383679 0 -13.53389434086818 0 -1 0 I I #
coedge $-1 $161 $163 $108 $173 reversed $101 $-1 #
edge $-1 $176 -36.342450326757657 $179 36.342450326757657 $172 $237 forward 7 unknown #
coedge $-1 $167 $109 $114 $182 forward $159 $-1 #
coedge $-1 $109 $167 $161 $228 reversed $159 $-1 #
vertex $-1 $110 $238 #
straight-curve $-1 0 36.342450326757657 13.53389434086818 -1 0 0 I I #
coedge $-1 $111 $162 $113 $181 reversed $63 $-1 #
vertex $-1 $173 $239 #
straight-curve $-1 0 -36.342450326757657 13.53389434086818 1 0 0 I I #
edge $-1 $116 -13.53389434086818 $170 13.53389434086818 $113 $240 forward 7 unknown #
edge $-1 $117 -13.53389434086818 $169 13.53389434086818 $114 $241 forward 7 unknown #
point $-1 78.40205084383679 -36.342450326757657 13.53389434086818 #
point $-1 78.40205084383679 36.342450326757657 13.53389434086818 #
loop $-1 $-1 $188 $119 #
plane-surface $-1 78.40205084383679 0 0 -1 0 0 0 0 1 forward_v I I I I #
coedge $-1 $123 $122 $194 $242 reversed $45 $-1 #
coedge $-1 $243 $244 $123 $189 forward $185 $-1 #
edge $-1 $191 32.625746133563553 $245 45.222518392643963 $188 $246 forward 7 unknown #
coedge $-1 $129 $124 $244 $247 forward $71 $-1 #
vertex $-1 $247 $248 #
straight-curve $-1 33.323683047265284 29.298424823629233 13.53389434086818 1 0 0 I I #
coedge $-1 $249 $126 $129 $198 reversed $120 $-1 #
coedge $-1 $126 $249 $187 $242 forward $120 $-1 #
vertex $-1 $127 $250 #
straight-curve $-1 54.892681345224347 36.342450326757657 75.516474975693939 0 0 1 I I #
straight-curve $-1 54.892681345224347 -4.3024294381078647 63.349210929519828 0 0.55919289150049634 -0.82903758062907751 I I #
edge $-1 $251 -78.40205084383679 $130 -54.892681345224347 $193 $252 forward 7 unknown #
point $-1 54.892681345224347 36.342450326757657 13.53389434086818 #
point $-1 54.892681345224347 29.29842482362924 13.53389434086818 #
edge $-1 $253 1 $253 0 $133 $-1 forward 7 unknown #
vertex $-1 $134 $254 #
ellipse-curve $-1 66.647366094530568 29.803850989200114 6.2775822614931318 0 0.82903758062907751 0.55919289150049634 2 0 0 1 I I #
point $-1 68.647366094530568 32.820437575193452 8.3122955421664066 #
plane-surface $-1 0 0 13.53389434086818 0 0 1 1 0 0 forward_v I I I I #
coedge $-1 $255 $140 $145 $212 forward $86 $-1 #
coedge $-1 $140 $255 $209 $256 reversed $86 $-1 #
edge $-1 $210 31.853323541798183 $217 42.296521139201666 $140 $257 forward 7 unknown #
coedge $-1 $149 $143 $207 $256 forward $150 $-1 #
vertex $-1 $256 $258 #
straight-curve $-1 54.892681345224347 -83.169471711311218 13.53389434086818 0 -1 0 I I #
edge $-1 $217 21.568998297959062 $215 45.078367796571506 $206 $259 forward 7 unknown #
coedge $-1 $214 $146 $149 $219 reversed $138 $-1 #
coedge $-1 $146 $213 $255 $260 forward $138 $-1 #
vertex $-1 $147 $261 #
straight-curve $-1 78.40205084383679 -31.376779388273476 10.45260688862861 0 0.55919289150049634 0.82903758062907751 I I #
vertex $-1 $212 $262 #
straight-curve $-1 54.892681345224347 -36.342450326757671 3.0906967434646759 0 0.55919289150049634 0.82903758062907751 I I #
edge $-1 $263 -36.342450326757657 $151 -29.298424823629254 $213 $264 forward 7 unknown #
point $-1 78.40205084383679 -29.298424823629254 13.53389434086818 #
point $-1 54.892681345224347 -29.298424823629254 13.53389434086818 #
edge $-1 $265 1 $265 0 $154 $-1 forward 7 unknown #
vertex $-1 $155 $266 #
ellipse-curve $-1 66.647366094530568 -29.803850989200107 6.277582261493146 0 -0.82903758062907751 0.55919289150049634 2 0 0 1 I I #
point $-1 68.647366094530568 -32.820437575193445 8.3122955421664209 #
plane-surface $-1 78.40205084383679 0 0 -1 0 0 0 0 1 forward_v I I I I #
coedge $-1 $163 $161 $165 $231 reversed $101 $-1 #
edge $-1 $176 -13.53389434086818 $233 13.53389434086818 $175 $267 forward 7 unknown #
vertex $-1 $231 $268 #
straight-curve $-1 -78.40205084383679 -36.342450326757657 0 0 0 -1 I I #
edge $-1 $229 -36.342450326757657 $233 36.342450326757657 $227 $269 forward 7 unknown #
straight-curve $-1 0 -36.342450326757657 -13.53389434086818 -1 0 0 I I #
vertex $-1 $168 $270 #
straight-curve $-1 0 36.342450326757657 -13.53389434086818 1 0 0 I I #
point $-1 78.40205084383679 36.342450326757657 -13.53389434086818 #
point $-1 78.40205084383679 -36.342450326757657 -13.53389434086818 #
straight-curve $-1 -78.40205084383679 0 13.53389434086818 0 -1 0 I I #
point $-1 -78.40205084383679 36.342450326757657 13.53389434086818 #
point $-1 -78.40205084383679 -36.342450326757657 13.53389434086818 #
straight-curve $-1 78.40205084383679 -36.342450326757657 0 0 0 -1 I I #
straight-curve $-1 78.40205084383679 36.342450326757657 0 0 0 -1 I I #
edge $-1 $245 -45.078367796571506 $195 -21.568998297959062 $194 $271 forward 7 unknown #
coedge $-1 $244 $188 $249 $272 reversed $185 $-1 #
coedge $-1 $188 $243 $190 $247 reversed $185 $-1 #
vertex $-1 $189 $273 #
straight-curve $-1 78.40205084383679 11.054339505840703 40.581863981656184 0 0.55919289150049634 -0.82903758062907751 I I #
edge $-1 $191 29.29842482362924 $251 36.342450326757657 $244 $274 forward 7 unknown #
point $-1 78.40205084383679 29.29842482362924 13.53389434086818 #
coedge $-1 $194 $193 $243 $272 forward $120 $-1 #
point $-1 54.892681345224347 36.342450326757657 3.0906967434646759 #
vertex $-1 $247 $275 #
straight-curve $-1 0 36.342450326757657 13.53389434086818 -1 0 0 I I #
vertex $-1 $201 $276 #
point $-1 68.647366094530568 29.803850989200114 6.2775822614931318 #
coedge $-1 $207 $206 $214 $260 reversed $86 $-1 #
edge $-1 $210 54.892681345224347 $263 78.40205084383679 $207 $277 forward 7 unknown #
straight-curve $-1 54.892681345224347 -36.342450326757657 45.387217882666363 0 0 -1 I I #
point $-1 54.892681345224347 -36.342450326757657 13.53389434086818 #
straight-curve $-1 33.323683047265284 -36.342450326757657 3.0906967434646972 1 0 0 I I #
edge $-1 $263 -13.53389434086818 $215 -3.0906967434646968 $214 $278 forward 7 unknown #
point $-1 78.40205084383679 -36.342450326757657 3.0906967434646968 #
point $-1 54.892681345224347 -36.342450326757657 3.0906967434646968 #
vertex $-1 $219 $279 #
straight-curve $-1 78.40205084383679 0 13.53389434086818 0 1 0 I I #
vertex $-1 $222 $280 #
point $-1 68.647366094530568 -29.803850989200107 6.277582261493146 #
straight-curve $-1 -78.40205084383679 36.342450326757657 0 0 0 -1 I I #
point $-1 -78.40205084383679 -36.342450326757657 -13.53389434086818 #
straight-curve $-1 -78.40205084383679 0 -13.53389434086818 0 1 0 I I #
point $-1 -78.40205084383679 36.342450326757657 -13.53389434086818 #
straight-curve $-1 33.323683047265284 36.342450326757657 3.0906967434646759 -1 0 0 I I #
edge $-1 $251 -13.53389434086818 $245 -3.0906967434646759 $243 $281 forward 7 unknown #
point $-1 78.40205084383679 36.342450326757657 3.0906967434646759 #
straight-curve $-1 78.40205084383679 0 13.53389434086818 0 1 0 I I #
point $-1 78.40205084383679 36.342450326757657 13.53389434086818 #
point $-1 66.647366094530568 28.145775827941961 5.1591964784921398 #
straight-curve $-1 0 -36.342450326757657 13.53389434086818 1 0 0 I I #
straight-curve $-1 78.40205084383679 -36.342450326757657 0 0 0 -1 I I #
point $-1 78.40205084383679 -36.342450326757657 13.53389434086818 #
point $-1 66.647366094530568 -28.145775827941954 5.159196478492154 #
straight-curve $-1 78.40205084383679 36.342450326757657 0 0 0 -1 I I #
End-of-ACIS-data 