500 0 8 0           
7 Unknown 11 ACIS 5.0 NT 24 Thu Mar 25 16:32:24 1999 
-1 9.9999999999999995e-007 1e-010 
body $-1 $8 $-1 $9 #
body $-1 $10 $-1 $11 #
body $-1 $12 $-1 $13 #
body $-1 $14 $-1 $15 #
body $-1 $16 $-1 $17 #
body $-1 $18 $-1 $19 #
body $-1 $20 $-1 $21 #
body $-1 $22 $-1 $23 #
lump $-1 $-1 $24 $0 #
transform $-1 1 0 0 0 1 0 0 0 1 48.451185644093144 29.027386707987549 12.575226982509708 1 rotate no_reflect no_shear #
lump $-1 $-1 $25 $1 #
transform $-1 1 0 0 0 1 0 0 0 1 48.451185644093144 29.027386707987549 12.575226982509708 1 rotate no_reflect no_shear #
lump $-1 $-1 $26 $2 #
transform $-1 1 0 0 0 1 0 0 0 1 48.451185644093144 29.027386707987549 12.575226982509708 1 rotate no_reflect no_shear #
lump $-1 $-1 $27 $3 #
transform $-1 1 0 0 0 1 0 0 0 1 48.451185644093144 29.027386707987549 12.575226982509708 1 rotate no_reflect no_shear #
lump $-1 $-1 $28 $4 #
transform $-1 1 0 0 0 1 0 0 0 1 48.451185644093144 29.027386707987549 12.575226982509708 1 rotate no_reflect no_shear #
lump $-1 $-1 $29 $5 #
transform $-1 1 0 0 0 1 0 0 0 1 48.451185644093144 29.027386707987549 12.575226982509708 1 rotate no_reflect no_shear #
lump $-1 $-1 $30 $6 #
transform $-1 1 0 0 0 1 0 0 0 1 48.451185644093144 29.027386707987549 12.575226982509708 1 rotate no_reflect no_shear #
lump $-1 $-1 $31 $7 #
transform $-1 1 0 0 0 1 0 0 0 1 48.451185644093144 29.027386707987549 12.575226982509708 1 rotate no_reflect no_shear #
shell $-1 $-1 $-1 $32 $-1 $8 #
shell $-1 $-1 $-1 $33 $-1 $10 #
shell $-1 $-1 $-1 $34 $-1 $12 #
shell $-1 $-1 $-1 $35 $-1 $14 #
shell $-1 $-1 $-1 $36 $-1 $16 #
shell $-1 $-1 $-1 $37 $-1 $18 #
shell $-1 $-1 $-1 $38 $-1 $20 #
shell $-1 $-1 $-1 $39 $-1 $22 #
face $-1 $40 $41 $24 $-1 $42 forward single #
face $-1 $43 $44 $25 $-1 $45 forward single #
face $-1 $46 $47 $26 $-1 $48 reversed single #
face $-1 $49 $50 $27 $-1 $51 forward single #
face $-1 $52 $53 $28 $-1 $54 forward single #
face $-1 $55 $56 $29 $-1 $57 reversed single #
face $-1 $58 $59 $30 $-1 $60 forward single #
face $-1 $61 $62 $31 $-1 $63 forward single #
face $-1 $64 $65 $24 $-1 $66 reversed single #
loop $-1 $-1 $67 $32 #
plane-surface $-1 0 0 12.575226982509708 0 0 1 1 0 0 forward_v I I I I #
face $-1 $68 $69 $25 $-1 $70 reversed single #
loop $-1 $-1 $71 $33 #
plane-surface $-1 -41.221318573330628 0 4.2136240039425523 0 0 1 1 0 0 forward_v I I I I #
face $-1 $72 $73 $26 $-1 $74 reversed single #
loop $-1 $-1 $75 $34 #
plane-surface $-1 26.138589471618168 42.938658926181859 121.03950504852979 1 0 0 0 -0.61566148304635926 -0.78801074757464917 forward_v I I I I #
face $-1 $76 $77 $27 $-1 $78 forward single #
loop $-1 $79 $80 $35 #
cone-surface $-1 29.498347357229122 25.876873548085005 9.7037062254711373 0 -0.61566148304635926 -0.78801074757464917 1 0 0 1 I I 0 1 1 forward I I I I #
face $-1 $81 $82 $28 $-1 $83 forward single #
loop $-1 $84 $85 $36 #
cone-surface $-1 34.53798418564557 25.876873548085005 9.7037062254711373 0 -0.61566148304635926 -0.78801074757464917 1 0 0 1 I I 0 1 1 forward I I I I #
face $-1 $86 $87 $29 $-1 $88 reversed single #
loop $-1 $-1 $89 $37 #
plane-surface $-1 37.747380319187485 -29.027386707987546 4.3202049534416886 0 -0.62932039886446345 0.77714595512881146 1 0 0 forward_v I I I I #
face $-1 $90 $91 $30 $-1 $92 forward single #
loop $-1 $93 $94 $38 #
cone-surface $-1 33.160035179942213 -21.797191218956094 5.8135025887132734 0 0.62932039886446345 -0.77714595512881146 2 0 0 1 I I 0 1 2 forward I I I I #
face $-1 $95 $96 $31 $-1 $97 forward single #
loop $-1 $98 $99 $39 #
cone-surface $-1 42.334725458432771 -21.797191218956094 5.8135025887132734 0 0.62932039886446345 -0.77714595512881146 2 0 0 1 I I 0 1 2 forward I I I I #
face $-1 $100 $101 $24 $-1 $102 reversed single #
loop $-1 $-1 $103 $40 #
plane-surface $-1 0 0 -12.575226982509708 0 0 1 1 0 0 forward_v I I I I #
coedge $-1 $104 $105 $106 $107 forward $41 $-1 #
face $-1 $108 $109 $25 $-1 $110 reversed single #
loop $-1 $-1 $111 $43 #
plane-surface $-1 -41.221318573330628 0 0.67420054836547649 0 0 1 1 0 0 forward_v I I I I #
coedge $-1 $112 $113 $114 $115 forward $44 $-1 #
face $-1 $116 $117 $26 $-1 $118 reversed single #
loop $-1 $-1 $119 $46 #
plane-surface $-1 32.018165771437353 -16.720398691811852 44.679395007969887 0 0.61566148304635926 0.78801074757464917 1 0 0 forward_v I I I I #
coedge $-1 $120 $121 $122 $123 reversed $47 $-1 #
face $-1 $-1 $124 $27 $-1 $125 forward single #
loop $-1 $126 $127 $49 #
cone-surface $-1 29.498347357229122 24.746692150132137 8.2571400315149397 0 -0.61566148304635926 -0.78801074757464917 0.5 0 0 1 I I -0.70710678118654746 0.70710678118654746 0.5 forward I I I I #
loop $-1 $-1 $128 $35 #
coedge $-1 $80 $80 $129 $130 reversed $50 $-1 #
face $-1 $-1 $131 $28 $-1 $132 forward single #
loop $-1 $133 $134 $52 #
cone-surface $-1 34.53798418564557 24.746692150132137 8.2571400315149397 0 -0.61566148304635926 -0.78801074757464917 0.5 0 0 1 I I -0.70710678118654746 0.70710678118654746 0.5 forward I I I I #
loop $-1 $-1 $135 $36 #
coedge $-1 $85 $85 $136 $137 reversed $53 $-1 #
face $-1 $138 $139 $29 $-1 $140 reversed single #
loop $-1 $-1 $141 $55 #
plane-surface $-1 27.043574994281833 -90.010025657981274 79.627490842445937 1 0 0 0 0.62932039886446345 -0.77714595512881146 forward_v I I I I #
coedge $-1 $142 $143 $144 $145 reversed $56 $-1 #
face $-1 $-1 $146 $30 $-1 $147 forward single #
loop $-1 $148 $149 $58 #
cone-surface $-1 33.160035179942213 -19.034726841678001 2.4021432543220431 0 0.62932039886446345 -0.77714595512881146 1 0 0 1 I I -0.70710678118654746 0.70710678118654746 1 forward I I I I #
loop $-1 $-1 $150 $38 #
coedge $-1 $94 $94 $151 $152 reversed $59 $-1 #
face $-1 $-1 $153 $31 $-1 $154 forward single #
loop $-1 $155 $156 $61 #
cone-surface $-1 42.334725458432771 -19.034726841678001 2.4021432543220431 0 0.62932039886446345 -0.77714595512881146 1 0 0 1 I I -0.70710678118654746 0.70710678118654746 1 forward I I I I #
loop $-1 $-1 $157 $39 #
coedge $-1 $99 $99 $158 $159 reversed $62 $-1 #
face $-1 $160 $161 $24 $-1 $162 reversed single #
loop $-1 $-1 $163 $64 #
plane-surface $-1 0 -29.027386707987549 0 0 1 0 0 0 1 forward_v I I I I #
coedge $-1 $164 $165 $166 $167 forward $65 $-1 #
coedge $-1 $168 $67 $169 $170 forward $41 $-1 #
coedge $-1 $67 $168 $171 $172 forward $41 $-1 #
coedge $-1 $173 $174 $67 $107 reversed $175 $-1 #
edge $-1 $176 -29.027386707987549 $177 29.027386707987549 $106 $178 forward 7 unknown #
face $-1 $179 $180 $25 $-1 $181 reversed single #
loop $-1 $-1 $182 $68 #
plane-surface $-1 -33.991451502568111 0 2.4439122761540144 -1 0 0 0 0 1 forward_v I I I I #
coedge $-1 $183 $184 $185 $186 forward $69 $-1 #
coedge $-1 $187 $71 $188 $189 reversed $44 $-1 #
coedge $-1 $71 $187 $190 $191 reversed $44 $-1 #
coedge $-1 $182 $192 $71 $115 reversed $109 $-1 #
edge $-1 $193 -29.027386707987549 $194 29.027386707987549 $114 $195 forward 7 unknown #
face $-1 $196 $197 $26 $-1 $198 forward single #
loop $-1 $-1 $199 $72 #
plane-surface $-1 37.897742071256538 42.938658926181859 121.03950504852979 -1 0 0 0 0.61566148304635926 0.78801074757464917 forward_v I I I I #
coedge $-1 $200 $201 $202 $203 reversed $73 $-1 #
coedge $-1 $121 $75 $204 $205 reversed $47 $-1 #
coedge $-1 $75 $120 $200 $206 reversed $47 $-1 #
coedge $-1 $202 $207 $75 $123 forward $197 $-1 #
edge $-1 $208 -7.5580572448966201 $209 -2.9017322379508954 $122 $210 forward 7 unknown #
loop $-1 $-1 $129 $76 #
plane-surface $-1 32.018165771437353 -16.720398691811852 44.679395007969887 0 0.61566148304635926 0.78801074757464917 1 0 0 forward_v I I I I #
loop $-1 $-1 $211 $49 #
coedge $-1 $127 $127 $128 $212 reversed $77 $-1 #
coedge $-1 $128 $128 $127 $212 forward $79 $-1 #
coedge $-1 $129 $129 $80 $130 forward $124 $-1 #
edge $-1 $213 -1.0936344861647016e-015 $213 6.2831853071795996 $129 $214 forward 7 unknown #
loop $-1 $-1 $136 $81 #
plane-surface $-1 32.018165771437353 -16.720398691811852 44.679395007969887 0 0.61566148304635926 0.78801074757464917 1 0 0 forward_v I I I I #
loop $-1 $-1 $215 $52 #
coedge $-1 $134 $134 $135 $216 reversed $82 $-1 #
coedge $-1 $135 $135 $134 $216 forward $84 $-1 #
coedge $-1 $136 $136 $85 $137 forward $131 $-1 #
edge $-1 $217 -1.0936344861647016e-015 $217 6.2831853071795996 $136 $218 forward 7 unknown #
face $-1 $219 $220 $29 $-1 $221 forward single #
loop $-1 $-1 $222 $86 #
plane-surface $-1 0 -29.027386707987549 0 0 1 0 0 0 1 forward_v I I I I #
coedge $-1 $223 $224 $225 $226 reversed $87 $-1 #
coedge $-1 $227 $89 $228 $229 reversed $56 $-1 #
coedge $-1 $89 $227 $223 $230 forward $56 $-1 #
coedge $-1 $225 $231 $89 $145 forward $220 $-1 #
edge $-1 $232 -29.577495484499394 $233 -8.1698848346880908 $144 $234 forward 7 unknown #
loop $-1 $-1 $151 $90 #
plane-surface $-1 37.747380319187485 -29.027386707987546 4.3202049534416886 0 -0.62932039886446345 0.77714595512881146 1 0 0 forward_v I I I I #
loop $-1 $-1 $235 $58 #
coedge $-1 $149 $149 $150 $236 reversed $91 $-1 #
coedge $-1 $150 $150 $149 $236 forward $93 $-1 #
coedge $-1 $151 $151 $94 $152 forward $146 $-1 #
edge $-1 $237 -2.963578594401707e-016 $237 6.2831853071796004 $151 $238 forward 7 unknown #
loop $-1 $-1 $158 $95 #
plane-surface $-1 37.747380319187485 -29.027386707987546 4.3202049534416886 0 -0.62932039886446345 0.77714595512881146 1 0 0 forward_v I I I I #
loop $-1 $-1 $239 $61 #
coedge $-1 $156 $156 $157 $240 reversed $96 $-1 #
coedge $-1 $157 $157 $156 $240 forward $98 $-1 #
coedge $-1 $158 $158 $99 $159 forward $153 $-1 #
edge $-1 $241 -2.963578594401707e-016 $241 6.2831853071796004 $158 $242 forward 7 unknown #
face $-1 $243 $244 $24 $-1 $245 reversed single #
loop $-1 $-1 $246 $100 #
plane-surface $-1 -48.451185644093144 0 0 1 0 0 0 0 -1 forward_v I I I I #
coedge $-1 $247 $171 $248 $249 forward $101 $-1 #
coedge $-1 $250 $103 $247 $251 forward $65 $-1 #
coedge $-1 $103 $250 $252 $253 forward $65 $-1 #
coedge $-1 $174 $173 $103 $167 reversed $175 $-1 #
edge $-1 $254 -29.027386707987549 $255 29.027386707987549 $166 $256 forward 7 unknown #
coedge $-1 $105 $104 $257 $258 forward $41 $-1 #
coedge $-1 $259 $260 $104 $170 reversed $244 $-1 #
edge $-1 $177 -48.451185644093144 $261 48.451185644093144 $169 $262 forward 7 unknown #
coedge $-1 $163 $263 $105 $172 reversed $101 $-1 #
edge $-1 $264 -48.451185644093144 $176 48.451185644093144 $171 $265 forward 7 unknown #
coedge $-1 $166 $106 $263 $266 forward $175 $-1 #
coedge $-1 $106 $166 $259 $267 reversed $175 $-1 #
loop $-1 $-1 $173 $243 #
vertex $-1 $107 $268 #
vertex $-1 $107 $269 #
straight-curve $-1 48.451185644093144 0 12.575226982509708 0 1 0 I I #
face $-1 $270 $271 $25 $-1 $272 reversed single #
loop $-1 $-1 $273 $108 #
plane-surface $-1 0 -29.027386707987549 0 0 1 0 0 0 1 forward_v I I I I #
coedge $-1 $185 $114 $274 $275 reversed $109 $-1 #
coedge $-1 $276 $111 $273 $277 reversed $69 $-1 #
coedge $-1 $111 $276 $278 $279 reversed $69 $-1 #
coedge $-1 $192 $182 $111 $186 reversed $109 $-1 #
edge $-1 $280 -29.027386707987549 $281 29.027386707987549 $185 $282 forward 7 unknown #
coedge $-1 $113 $112 $283 $284 reversed $44 $-1 #
coedge $-1 $285 $286 $112 $189 forward $287 $-1 #
edge $-1 $288 -27.84052635742783 $194 -13.380792215902797 $188 $289 forward 7 unknown #
coedge $-1 $290 $274 $113 $191 forward $180 $-1 #
edge $-1 $193 13.380792215902797 $291 27.84052635742783 $190 $292 forward 7 unknown #
coedge $-1 $114 $185 $285 $293 reversed $109 $-1 #
vertex $-1 $191 $294 #
vertex $-1 $189 $295 #
straight-curve $-1 -33.991451502568111 0 4.2136240039425523 0 1 0 I I #
face $-1 $-1 $296 $26 $-1 $297 reversed single #
loop $-1 $-1 $122 $116 #
plane-surface $-1 0 0 12.575226982509708 0 0 1 1 0 0 forward_v I I I I #
coedge $-1 $298 $299 $300 $301 reversed $117 $-1 #
coedge $-1 $302 $119 $121 $206 forward $73 $-1 #
coedge $-1 $119 $302 $298 $303 forward $73 $-1 #
coedge $-1 $300 $122 $119 $203 forward $197 $-1 #
edge $-1 $209 10.129506585899492 $304 21.888659185537861 $202 $305 forward 7 unknown #
coedge $-1 $306 $307 $120 $205 forward $296 $-1 #
edge $-1 $308 -51.582445415494583 $208 -47.944525541755183 $204 $309 forward 7 unknown #
edge $-1 $209 52.145812121631039 $308 58.054773415975085 $121 $310 forward 7 unknown #
coedge $-1 $122 $300 $306 $311 forward $197 $-1 #
vertex $-1 $205 $312 #
vertex $-1 $123 $313 #
straight-curve $-1 26.138589471618168 21.469329463090929 12.575226982509704 0 -1 0 I I #
coedge $-1 $211 $211 $-1 $314 reversed $126 $-1 #
edge $-1 $315 0 $315 6.2831853071796004 $127 $316 forward 7 unknown #
vertex $-1 $130 $317 #
ellipse-curve $-1 29.498347357229122 26.699224204514689 10.756267045640008 0 0.61566148304635926 0.78801074757464917 1 0 0 1 I I #
coedge $-1 $215 $215 $-1 $318 reversed $133 $-1 #
edge $-1 $319 0 $319 6.2831853071796004 $134 $320 forward 7 unknown #
vertex $-1 $137 $321 #
ellipse-curve $-1 34.53798418564557 26.699224204514689 10.756267045640008 0 0.61566148304635926 0.78801074757464917 1 0 0 1 I I #
face $-1 $-1 $322 $29 $-1 $323 reversed single #
loop $-1 $-1 $225 $138 #
plane-surface $-1 0 0 12.575226982509708 0 0 1 1 0 0 forward_v I I I I #
coedge $-1 $324 $325 $224 $326 forward $139 $-1 #
coedge $-1 $224 $141 $143 $230 reversed $87 $-1 #
coedge $-1 $141 $223 $222 $326 reversed $87 $-1 #
coedge $-1 $327 $144 $141 $226 forward $220 $-1 #
edge $-1 $233 -26.171729142238732 $328 -15.977626121003087 $225 $329 forward 7 unknown #
coedge $-1 $143 $142 $324 $330 reversed $56 $-1 #
coedge $-1 $331 $332 $142 $229 forward $322 $-1 #
edge $-1 $333 -9.9198615317981016 $232 3.1974981532895965 $228 $334 forward 7 unknown #
edge $-1 $335 -4.4378234572560832e-015 $233 13.117359685087694 $223 $336 forward 7 unknown #
coedge $-1 $144 $327 $331 $337 forward $220 $-1 #
vertex $-1 $229 $338 #
vertex $-1 $145 $339 #
straight-curve $-1 18.873690159593743 -18.833283686751905 12.575226982509708 -1 0 0 I I #
coedge $-1 $235 $235 $-1 $340 reversed $148 $-1 #
edge $-1 $341 0 $341 6.2831853071796004 $149 $342 forward 7 unknown #
vertex $-1 $152 $343 #
ellipse-curve $-1 33.160035179942213 -23.930335197369725 8.4477159679756983 0 -0.62932039886446345 0.77714595512881146 2 0 0 1 I I #
coedge $-1 $239 $239 $-1 $344 reversed $155 $-1 #
edge $-1 $345 0 $345 6.2831853071796004 $156 $346 forward 7 unknown #
vertex $-1 $159 $347 #
ellipse-curve $-1 42.334725458432771 -23.930335197369725 8.4477159679756983 0 -0.62932039886446345 0.77714595512881146 2 0 0 1 I I #
face $-1 $-1 $175 $24 $-1 $348 reversed single #
loop $-1 $-1 $259 $160 #
plane-surface $-1 0 29.027386707987549 0 0 -1 0 0 0 -1 forward_v I I I I #
coedge $-1 $349 $257 $260 $350 forward $161 $-1 #
coedge $-1 $263 $163 $164 $251 reversed $101 $-1 #
coedge $-1 $257 $349 $163 $249 reversed $161 $-1 #
edge $-1 $264 -12.575226982509708 $351 12.575226982509708 $248 $352 forward 7 unknown #
coedge $-1 $165 $164 $349 $353 forward $65 $-1 #
edge $-1 $255 -48.451185644093144 $351 48.451185644093144 $247 $354 forward 7 unknown #
coedge $-1 $260 $259 $165 $253 reversed $244 $-1 #
edge $-1 $355 -48.451185644093144 $254 48.451185644093144 $252 $356 forward 7 unknown #
vertex $-1 $167 $357 #
vertex $-1 $266 $358 #
straight-curve $-1 48.451185644093144 0 -12.575226982509708 0 -1 0 I I #
coedge $-1 $246 $248 $168 $258 reversed $161 $-1 #
edge $-1 $261 -29.027386707987549 $264 29.027386707987549 $257 $359 forward 7 unknown #
coedge $-1 $252 $169 $174 $267 forward $244 $-1 #
coedge $-1 $169 $252 $246 $350 reversed $244 $-1 #
vertex $-1 $170 $360 #
straight-curve $-1 0 29.027386707987549 12.575226982509708 -1 0 0 I I #
coedge $-1 $171 $247 $173 $266 reversed $101 $-1 #
vertex $-1 $258 $361 #
straight-curve $-1 0 -29.027386707987549 12.575226982509708 1 0 0 I I #
edge $-1 $176 -12.575226982509708 $255 12.575226982509708 $173 $362 forward 7 unknown #
edge $-1 $177 -12.575226982509708 $254 12.575226982509708 $174 $363 forward 7 unknown #
point $-1 48.451185644093144 -29.027386707987549 12.575226982509708 #
point $-1 48.451185644093144 29.027386707987549 12.575226982509708 #
face $-1 $-1 $287 $25 $-1 $364 reversed single #
loop $-1 $-1 $365 $179 #
plane-surface $-1 -48.451185644093144 0 0 1 0 0 0 0 -1 forward_v I I I I #
coedge $-1 $274 $290 $183 $277 forward $180 $-1 #
coedge $-1 $190 $273 $182 $275 forward $180 $-1 #
edge $-1 $281 -0.54775558971153071 $193 2.9916678658655451 $274 $366 forward 7 unknown #
coedge $-1 $184 $183 $365 $367 reversed $69 $-1 #
edge $-1 $368 -27.84052635742783 $281 -13.380792215902797 $273 $369 forward 7 unknown #
coedge $-1 $286 $285 $184 $279 forward $287 $-1 #
edge $-1 $280 13.380792215902797 $370 27.84052635742783 $278 $371 forward 7 unknown #
vertex $-1 $279 $372 #
vertex $-1 $277 $373 #
straight-curve $-1 -33.991451502568111 0 0.67420054836547649 0 -1 0 I I #
coedge $-1 $374 $375 $187 $284 forward $271 $-1 #
edge $-1 $291 -29.027386707987549 $288 29.027386707987549 $283 $376 forward 7 unknown #
coedge $-1 $278 $188 $192 $293 forward $287 $-1 #
coedge $-1 $188 $278 $374 $377 reversed $287 $-1 #
loop $-1 $-1 $278 $270 #
vertex $-1 $377 $378 #
straight-curve $-1 -20.610659286665314 29.027386707987549 4.2136240039425523 1 0 0 I I #
coedge $-1 $273 $190 $375 $379 forward $180 $-1 #
vertex $-1 $379 $380 #
straight-curve $-1 -20.610659286665314 -29.027386707987549 4.2136240039425523 -1 0 0 I I #
edge $-1 $194 -2.9916678658655451 $280 0.54775558971153071 $285 $381 forward 7 unknown #
point $-1 -33.991451502568111 -29.027386707987549 4.2136240039425523 #
point $-1 -33.991451502568111 29.027386707987549 4.2136240039425523 #
loop $-1 $-1 $204 $196 #
plane-surface $-1 0 29.027386707987549 0 0 -1 0 0 0 -1 forward_v I I I I #
coedge $-1 $299 $199 $201 $303 reversed $117 $-1 #
coedge $-1 $199 $298 $382 $383 reversed $117 $-1 #
coedge $-1 $207 $202 $199 $301 forward $197 $-1 #
edge $-1 $304 2.9017322379508954 $384 7.5580572448966201 $300 $385 forward 7 unknown #
coedge $-1 $201 $200 $307 $386 reversed $73 $-1 #
edge $-1 $387 -58.054773415975085 $304 -52.145812121631039 $298 $388 forward 7 unknown #
vertex $-1 $203 $389 #
straight-curve $-1 16.009082885718676 24.371061701041825 12.575226982509704 1 0 0 I I #
coedge $-1 $382 $204 $207 $311 reversed $296 $-1 #
coedge $-1 $204 $382 $302 $386 forward $296 $-1 #
vertex $-1 $205 $390 #
straight-curve $-1 26.138589471618168 29.027386707987549 60.519752524264895 0 0 1 I I #
straight-curve $-1 26.138589471618168 -16.720398691811852 44.679395007969887 0 0.78801074757464917 -0.61566148304635926 I I #
edge $-1 $384 -37.897742071256538 $208 -26.138589471618168 $306 $391 forward 7 unknown #
point $-1 26.138589471618168 29.027386707987549 12.575226982509708 #
point $-1 26.138589471618168 24.371061701041825 12.575226982509704 #
edge $-1 $392 1 $392 0 $211 $-1 forward 7 unknown #
vertex $-1 $212 $393 #
ellipse-curve $-1 29.498347357229122 25.054522891655317 8.6511454053022643 0 0.61566148304635926 0.78801074757464917 1 0 0 1 I I #
point $-1 30.498347357229122 26.699224204514689 10.75626704564001 #
edge $-1 $394 1 $394 0 $215 $-1 forward 7 unknown #
vertex $-1 $216 $395 #
ellipse-curve $-1 34.53798418564557 25.054522891655317 8.6511454053022643 0 0.61566148304635926 0.78801074757464917 1 0 0 1 I I #
point $-1 35.53798418564557 26.699224204514689 10.75626704564001 #
loop $-1 $-1 $228 $219 #
plane-surface $-1 48.451185644093144 0 0 -1 0 0 0 0 1 forward_v I I I I #
coedge $-1 $396 $222 $227 $330 forward $139 $-1 #
coedge $-1 $222 $396 $327 $397 reversed $139 $-1 #
edge $-1 $328 27.23851843871326 $335 35.49354046778128 $222 $398 forward 7 unknown #
coedge $-1 $231 $225 $325 $397 forward $220 $-1 #
vertex $-1 $397 $399 #
straight-curve $-1 27.043574994281833 -45.005012828990637 12.575226982509704 0 -1 0 I I #
edge $-1 $335 8.1698848346880908 $333 29.577495484499394 $324 $400 forward 7 unknown #
coedge $-1 $332 $228 $231 $337 reversed $322 $-1 #
coedge $-1 $228 $331 $396 $401 forward $322 $-1 #
vertex $-1 $330 $402 #
straight-curve $-1 48.451185644093144 -21.318206443112761 10.562976169313115 0 0.77714595512881146 0.62932039886446345 I I #
vertex $-1 $330 $403 #
straight-curve $-1 27.043574994281833 -29.027386707987546 4.3202049534416886 0 0.77714595512881146 0.62932039886446345 I I #
edge $-1 $404 -29.027386707987549 $232 -18.833283686751905 $331 $405 forward 7 unknown #
point $-1 48.451185644093137 -18.833283686751905 12.575226982509708 #
point $-1 27.043574994281833 -18.833283686751905 12.575226982509708 #
edge $-1 $406 1 $406 0 $235 $-1 forward 7 unknown #
vertex $-1 $236 $407 #
ellipse-curve $-1 33.160035179942213 -19.664047240542466 3.1792892094508547 0 -0.62932039886446345 0.77714595512881146 2 0 0 1 I I #
point $-1 35.160035179942213 -23.930335197369722 8.447715967975693 #
edge $-1 $408 1 $408 0 $239 $-1 forward 7 unknown #
vertex $-1 $240 $409 #
ellipse-curve $-1 42.334725458432771 -19.664047240542466 3.1792892094508547 0 -0.62932039886446345 0.77714595512881146 2 0 0 1 I I #
point $-1 44.334725458432771 -23.930335197369722 8.447715967975693 #
plane-surface $-1 48.451185644093144 0 0 -1 0 0 0 0 1 forward_v I I I I #
coedge $-1 $248 $246 $250 $353 reversed $161 $-1 #
edge $-1 $261 -12.575226982509708 $355 12.575226982509708 $260 $410 forward 7 unknown #
vertex $-1 $353 $411 #
straight-curve $-1 -48.451185644093144 -29.027386707987549 0 0 0 -1 I I #
edge $-1 $351 -29.027386707987549 $355 29.027386707987549 $349 $412 forward 7 unknown #
straight-curve $-1 0 -29.027386707987549 -12.575226982509708 -1 0 0 I I #
vertex $-1 $253 $413 #
straight-curve $-1 0 29.027386707987549 -12.575226982509708 1 0 0 I I #
point $-1 48.451185644093144 29.027386707987549 -12.575226982509708 #
point $-1 48.451185644093144 -29.027386707987549 -12.575226982509708 #
straight-curve $-1 -48.451185644093144 0 12.575226982509708 0 -1 0 I I #
point $-1 -48.451185644093144 29.027386707987549 12.575226982509708 #
point $-1 -48.451185644093144 -29.027386707987549 12.575226982509708 #
straight-curve $-1 48.451185644093144 -29.027386707987549 0 0 0 -1 I I #
straight-curve $-1 48.451185644093144 29.027386707987549 0 0 0 -1 I I #
plane-surface $-1 0 29.027386707987549 0 0 -1 0 0 0 -1 forward_v I I I I #
coedge $-1 $375 $374 $276 $367 forward $271 $-1 #
straight-curve $-1 -33.991451502568111 -29.027386707987549 1.2219561380770072 0 0 1 I I #
edge $-1 $370 -29.027386707987549 $368 29.027386707987549 $365 $414 forward 7 unknown #
vertex $-1 $277 $415 #
straight-curve $-1 -20.610659286665314 -29.027386707987549 0.67420054836547649 1 0 0 I I #
vertex $-1 $279 $416 #
straight-curve $-1 -20.610659286665314 29.027386707987549 0.67420054836547649 -1 0 0 I I #
point $-1 -33.991451502568111 29.027386707987549 0.67420054836547649 #
point $-1 -33.991451502568111 -29.027386707987549 0.67420054836547649 #
coedge $-1 $365 $283 $286 $377 forward $271 $-1 #
coedge $-1 $283 $365 $290 $379 reversed $271 $-1 #
straight-curve $-1 -48.451185644093144 0 4.2136240039425523 0 1 0 I I #
edge $-1 $288 -4.2136240039425523 $370 -0.67420054836547649 $286 $417 forward 7 unknown #
point $-1 -48.451185644093144 29.027386707987549 4.2136240039425523 #
edge $-1 $291 -4.2136240039425523 $368 -0.67420054836547649 $375 $418 forward 7 unknown #
point $-1 -48.451185644093144 -29.027386707987549 4.2136240039425523 #
straight-curve $-1 -33.991451502568111 29.027386707987549 1.2219561380770072 0 0 -1 I I #
coedge $-1 $307 $306 $299 $383 forward $296 $-1 #
edge $-1 $384 47.944525541755183 $387 51.582445415494583 $382 $419 forward 7 unknown #
vertex $-1 $311 $420 #
straight-curve $-1 37.897742071256538 21.469329463090929 12.575226982509704 0 1 0 I I #
edge $-1 $387 -21.888659185537861 $308 -10.129506585899492 $307 $421 forward 7 unknown #
vertex $-1 $386 $422 #
straight-curve $-1 37.897742071256538 -16.720398691811852 44.679395007969887 0 -0.78801074757464917 0.61566148304635926 I I #
point $-1 37.897742071256538 24.371061701041825 12.575226982509704 #
point $-1 26.138589471618168 29.027386707987546 8.9373071087703124 #
straight-curve $-1 0 29.027386707987549 12.575226982509708 -1 0 0 I I #
vertex $-1 $314 $423 #
point $-1 30.498347357229122 25.054522891655317 8.6511454053022643 #
vertex $-1 $318 $424 #
point $-1 35.53798418564557 25.054522891655317 8.6511454053022643 #
coedge $-1 $325 $324 $332 $401 reversed $139 $-1 #
edge $-1 $328 27.043574994281833 $404 48.451185644093144 $325 $425 forward 7 unknown #
straight-curve $-1 27.043574994281833 -29.027386707987549 39.813745421222968 0 0 -1 I I #
point $-1 27.043574994281833 -29.027386707987549 12.575226982509708 #
straight-curve $-1 18.873690159593743 -29.027386707987549 4.3202049534416851 1 0 0 I I #
edge $-1 $404 -12.575226982509708 $333 -4.320204953441686 $332 $426 forward 7 unknown #
point $-1 48.451185644093137 -29.027386707987549 4.320204953441686 #
point $-1 27.043574994281833 -29.027386707987549 4.320204953441686 #
vertex $-1 $337 $427 #
straight-curve $-1 48.451185644093144 0 12.575226982509708 0 1 0 I I #
vertex $-1 $340 $428 #
point $-1 35.160035179942213 -19.664047240542466 3.1792892094508547 #
vertex $-1 $344 $429 #
point $-1 44.334725458432771 -19.664047240542466 3.1792892094508547 #
straight-curve $-1 -48.451185644093144 29.027386707987549 0 0 0 -1 I I #
point $-1 -48.451185644093144 -29.027386707987549 -12.575226982509708 #
straight-curve $-1 -48.451185644093144 0 -12.575226982509708 0 1 0 I I #
point $-1 -48.451185644093144 29.027386707987549 -12.575226982509708 #
straight-curve $-1 -48.451185644093144 0 0.67420054836547649 0 -1 0 I I #
point $-1 -48.451185644093144 -29.027386707987549 0.67420054836547649 #
point $-1 -48.451185644093144 29.027386707987549 0.67420054836547649 #
straight-curve $-1 -48.451185644093144 29.027386707987549 0 0 0 -1 I I #
straight-curve $-1 -48.451185644093144 -29.027386707987549 0 0 0 -1 I I #
straight-curve $-1 37.897742071256538 29.027386707987549 60.519752524264895 0 0 -1 I I #
point $-1 37.897742071256538 29.027386707987549 12.575226982509708 #
straight-curve $-1 16.009082885718676 29.027386707987553 8.9373071087703124 -1 0 0 I I #
point $-1 37.897742071256538 29.027386707987546 8.9373071087703124 #
point $-1 29.498347357229122 24.438861408608958 7.8631346577276151 #
point $-1 34.53798418564557 24.438861408608958 7.8631346577276151 #
straight-curve $-1 0 -29.027386707987549 12.575226982509708 1 0 0 I I #
straight-curve $-1 48.451185644093144 -29.027386707987549 0 0 0 -1 I I #
point $-1 48.451185644093144 -29.027386707987549 12.575226982509708 #
point $-1 33.160035179942213 -18.405406442813536 1.6249972991932315 #
point $-1 42.334725458432771 -18.405406442813536 1.6249972991932315 #
End-of-ACIS-data 