500 0 8 0           
7 Unknown 11 ACIS 5.0 NT 24 Fri Mar 26 18:38:21 1999 
-1 9.9999999999999995e-007 1e-010 
body $-1 $8 $-1 $9 #
body $-1 $10 $-1 $11 #
body $-1 $12 $-1 $13 #
body $-1 $14 $-1 $15 #
body $-1 $16 $-1 $17 #
body $-1 $18 $-1 $19 #
body $-1 $20 $-1 $21 #
body $-1 $22 $-1 $23 #
lump $-1 $-1 $24 $0 #
transform $-1 1 0 0 0 1 0 0 0 1 75.042573320719015 50.22678878959578 24.167934531965692 1 rotate no_reflect no_shear #
lump $-1 $-1 $25 $1 #
transform $-1 1 0 0 0 1 0 0 0 1 75.042573320719015 50.22678878959578 24.167934531965692 1 rotate no_reflect no_shear #
lump $-1 $-1 $26 $2 #
transform $-1 1 0 0 0 1 0 0 0 1 75.042573320719015 50.22678878959578 24.167934531965692 1 rotate no_reflect no_shear #
lump $-1 $-1 $27 $3 #
transform $-1 1 0 0 0 1 0 0 0 1 75.042573320719015 50.22678878959578 24.167934531965692 1 rotate no_reflect no_shear #
lump $-1 $-1 $28 $4 #
transform $-1 1 0 0 0 1 0 0 0 1 75.042573320719015 50.22678878959578 24.167934531965692 1 rotate no_reflect no_shear #
lump $-1 $-1 $29 $5 #
transform $-1 1 0 0 0 1 0 0 0 1 75.042573320719015 50.22678878959578 24.167934531965692 1 rotate no_reflect no_shear #
lump $-1 $-1 $30 $6 #
transform $-1 1 0 0 0 1 0 0 0 1 75.042573320719015 50.22678878959578 24.167934531965692 1 rotate no_reflect no_shear #
lump $-1 $-1 $31 $7 #
transform $-1 1 0 0 0 1 0 0 0 1 75.042573320719015 50.22678878959578 24.167934531965692 1 rotate no_reflect no_shear #
shell $-1 $-1 $-1 $32 $-1 $8 #
shell $-1 $-1 $-1 $33 $-1 $10 #
shell $-1 $-1 $-1 $34 $-1 $12 #
shell $-1 $-1 $-1 $35 $-1 $14 #
shell $-1 $-1 $-1 $36 $-1 $16 #
shell $-1 $-1 $-1 $37 $-1 $18 #
shell $-1 $-1 $-1 $38 $-1 $20 #
shell $-1 $-1 $-1 $39 $-1 $22 #
face $-1 $40 $41 $24 $-1 $42 forward single #
face $-1 $43 $44 $25 $-1 $45 reversed single #
face $-1 $46 $47 $26 $-1 $48 forward single #
face $-1 $49 $50 $27 $-1 $51 reversed single #
face $-1 $52 $53 $28 $-1 $54 forward single #
face $-1 $55 $56 $29 $-1 $57 reversed single #
face $-1 $58 $59 $30 $-1 $60 forward single #
face $-1 $61 $62 $31 $-1 $63 forward single #
face $-1 $64 $65 $24 $-1 $66 reversed single #
loop $-1 $-1 $67 $32 #
plane-surface $-1 0 0 24.167934531965692 0 0 1 1 0 0 forward_v I I I I #
face $-1 $68 $69 $25 $-1 $70 reversed single #
loop $-1 $-1 $71 $33 #
plane-surface $-1 -20.486395306393277 -177.50621284959374 84.91494963329373 -1 0 0 0 -0.84804810408105047 0.52991925155115449 forward_v I I I I #
face $-1 $72 $73 $26 $-1 $74 forward single #
loop $-1 $75 $76 $34 #
cone-surface $-1 -34.0731615798543 -39.703286985259894 11.86672955619755 0 0.84804810408105047 -0.52991925155115449 3 0 0 1 I I 0 1 3 forward I I I I #
face $-1 $77 $78 $27 $-1 $79 reversed single #
loop $-1 $-1 $80 $35 #
plane-surface $-1 47.659927853315317 -177.50621284959374 84.91494963329373 -1 0 0 0 -0.84804810408105047 0.52991925155115449 forward_v I I I I #
face $-1 $81 $82 $28 $-1 $83 forward single #
loop $-1 $84 $85 $36 #
cone-surface $-1 34.0731615798543 -39.703286985259894 11.86672955619755 0 0.84804810408105047 -0.52991925155115449 3 0 0 1 I I 0 1 3 forward I I I I #
face $-1 $86 $87 $29 $-1 $88 reversed single #
loop $-1 $-1 $89 $37 #
plane-surface $-1 10.881687168890664 72.878228888496722 187.04391458594907 1 0 0 0 -0.6560590369687036 -0.75470957328743171 forward_v I I I I #
face $-1 $90 $91 $30 $-1 $92 forward single #
loop $-1 $93 $94 $38 #
cone-surface $-1 16.502854199910274 40.196306092975149 15.264173878289132 0 -0.6560590369687036 -0.75470957328743171 1 0 0 1 I I 0 1 1 forward I I I I #
face $-1 $95 $96 $31 $-1 $97 forward single #
loop $-1 $98 $99 $39 #
cone-surface $-1 24.934604746439689 40.196306092975149 15.264173878289132 0 -0.6560590369687036 -0.75470957328743171 1 0 0 1 I I 0 1 1 forward I I I I #
face $-1 $100 $101 $24 $-1 $102 reversed single #
loop $-1 $-1 $103 $40 #
plane-surface $-1 0 0 -24.167934531965692 0 0 1 1 0 0 forward_v I I I I #
coedge $-1 $104 $105 $106 $107 forward $41 $-1 #
face $-1 $108 $109 $25 $-1 $110 reversed single #
loop $-1 $-1 $111 $43 #
plane-surface $-1 -34.073161579854307 -50.226788789595773 5.3819410561176255 0 -0.84804810408105047 0.52991925155115449 1 0 0 forward_v I I I I #
coedge $-1 $112 $113 $114 $115 reversed $44 $-1 #
face $-1 $-1 $116 $26 $-1 $117 forward single #
loop $-1 $118 $119 $46 #
cone-surface $-1 -34.0731615798543 -33.777108613601989 8.1636424410267097 0 0.84804810408105047 -0.52991925155115449 1.5 0 0 1 I I -0.70710678118654757 0.70710678118654757 1.5 forward I I I I #
loop $-1 $-1 $120 $34 #
coedge $-1 $76 $76 $121 $122 reversed $47 $-1 #
face $-1 $123 $124 $27 $-1 $125 reversed single #
loop $-1 $-1 $126 $49 #
plane-surface $-1 34.073161579854286 -50.226788789595773 5.3819410561176255 0 -0.84804810408105047 0.52991925155115449 1 0 0 forward_v I I I I #
coedge $-1 $127 $128 $129 $130 reversed $50 $-1 #
face $-1 $-1 $131 $28 $-1 $132 forward single #
loop $-1 $133 $134 $52 #
cone-surface $-1 34.0731615798543 -33.777108613601989 8.1636424410267097 0 0.84804810408105047 -0.52991925155115449 1.5 0 0 1 I I -0.70710678118654757 0.70710678118654757 1.5 forward I I I I #
loop $-1 $-1 $135 $36 #
coedge $-1 $85 $85 $136 $137 reversed $53 $-1 #
face $-1 $138 $139 $29 $-1 $140 reversed single #
loop $-1 $-1 $141 $55 #
plane-surface $-1 20.718729473174989 -25.586487880391772 73.773217607407759 0 0.6560590369687036 0.75470957328743171 1 0 0 forward_v I I I I #
coedge $-1 $142 $143 $144 $145 reversed $56 $-1 #
face $-1 $-1 $146 $30 $-1 $147 forward single #
loop $-1 $148 $149 $58 #
cone-surface $-1 16.502854199910274 39.212257581409965 14.132155583580513 0 -0.6560590369687036 -0.75470957328743171 0.5 0 0 1 I I -0.70710678118654746 0.70710678118654746 0.5 forward I I I I #
loop $-1 $-1 $150 $38 #
coedge $-1 $94 $94 $151 $152 reversed $59 $-1 #
face $-1 $-1 $153 $31 $-1 $154 forward single #
loop $-1 $155 $156 $61 #
cone-surface $-1 24.934604746439689 39.212257581409965 14.132155583580513 0 -0.6560590369687036 -0.75470957328743171 0.5 0 0 1 I I -0.70710678118654746 0.70710678118654746 0.5 forward I I I I #
loop $-1 $-1 $157 $39 #
coedge $-1 $99 $99 $158 $159 reversed $62 $-1 #
face $-1 $160 $161 $24 $-1 $162 reversed single #
loop $-1 $-1 $163 $64 #
plane-surface $-1 0 -50.22678878959578 0 0 1 0 0 0 1 forward_v I I I I #
coedge $-1 $164 $165 $166 $167 forward $65 $-1 #
coedge $-1 $168 $67 $169 $170 forward $41 $-1 #
coedge $-1 $67 $168 $171 $172 forward $41 $-1 #
coedge $-1 $173 $174 $67 $107 reversed $175 $-1 #
edge $-1 $176 -50.22678878959578 $177 50.22678878959578 $106 $178 forward 7 unknown #
face $-1 $179 $180 $25 $-1 $181 reversed single #
loop $-1 $-1 $182 $68 #
plane-surface $-1 -47.659927853315338 -177.50621284959374 84.91494963329373 1 0 0 0 0.84804810408105047 -0.52991925155115449 forward_v I I I I #
coedge $-1 $183 $184 $185 $186 reversed $69 $-1 #
coedge $-1 $113 $71 $187 $188 reversed $44 $-1 #
coedge $-1 $71 $112 $183 $189 reversed $44 $-1 #
coedge $-1 $185 $190 $71 $115 forward $191 $-1 #
edge $-1 $192 38.526317635201089 $193 50.265108812800193 $114 $194 forward 7 unknown #
loop $-1 $-1 $121 $72 #
plane-surface $-1 -34.073161579854307 -50.226788789595773 5.3819410561176255 0 -0.84804810408105047 0.52991925155115449 1 0 0 forward_v I I I I #
loop $-1 $-1 $195 $46 #
coedge $-1 $119 $119 $120 $196 reversed $73 $-1 #
coedge $-1 $120 $120 $119 $196 forward $75 $-1 #
coedge $-1 $121 $121 $76 $122 forward $116 $-1 #
edge $-1 $197 -1.2551009157636734e-015 $197 6.2831853071795996 $121 $198 forward 7 unknown #
face $-1 $199 $200 $27 $-1 $201 reversed single #
loop $-1 $-1 $202 $77 #
plane-surface $-1 20.486395306393256 -177.50621284959374 84.91494963329373 1 0 0 0 0.84804810408105047 -0.52991925155115449 forward_v I I I I #
coedge $-1 $203 $204 $205 $206 reversed $78 $-1 #
coedge $-1 $128 $80 $207 $208 reversed $50 $-1 #
coedge $-1 $80 $127 $203 $209 reversed $50 $-1 #
coedge $-1 $205 $210 $80 $130 forward $211 $-1 #
edge $-1 $212 38.526317635201089 $213 50.265108812800193 $129 $214 forward 7 unknown #
loop $-1 $-1 $136 $81 #
plane-surface $-1 34.073161579854286 -50.226788789595773 5.3819410561176255 0 -0.84804810408105047 0.52991925155115449 1 0 0 forward_v I I I I #
loop $-1 $-1 $215 $52 #
coedge $-1 $134 $134 $135 $216 reversed $82 $-1 #
coedge $-1 $135 $135 $134 $216 forward $84 $-1 #
coedge $-1 $136 $136 $85 $137 forward $131 $-1 #
edge $-1 $217 -1.2551009157636734e-015 $217 6.2831853071795996 $136 $218 forward 7 unknown #
face $-1 $219 $220 $29 $-1 $221 reversed single #
loop $-1 $-1 $222 $86 #
plane-surface $-1 30.555771777459313 72.878228888496722 187.04391458594907 -1 0 0 0 0.6560590369687036 0.75470957328743171 forward_v I I I I #
coedge $-1 $223 $224 $225 $226 reversed $87 $-1 #
coedge $-1 $143 $89 $227 $228 reversed $56 $-1 #
coedge $-1 $89 $142 $223 $229 reversed $56 $-1 #
coedge $-1 $225 $230 $89 $145 forward $231 $-1 #
edge $-1 $232 -13.787674345347419 $233 4.9612530617321866 $144 $234 forward 7 unknown #
loop $-1 $-1 $151 $90 #
plane-surface $-1 20.718729473174989 -25.586487880391772 73.773217607407759 0 0.6560590369687036 0.75470957328743171 1 0 0 forward_v I I I I #
loop $-1 $-1 $235 $58 #
coedge $-1 $149 $149 $150 $236 reversed $91 $-1 #
coedge $-1 $150 $150 $149 $236 forward $93 $-1 #
coedge $-1 $151 $151 $94 $152 forward $146 $-1 #
edge $-1 $237 -3.7326983539416015e-015 $237 6.2831853071795969 $151 $238 forward 7 unknown #
loop $-1 $-1 $158 $95 #
plane-surface $-1 20.718729473174989 -25.586487880391772 73.773217607407759 0 0.6560590369687036 0.75470957328743171 1 0 0 forward_v I I I I #
loop $-1 $-1 $239 $61 #
coedge $-1 $156 $156 $157 $240 reversed $96 $-1 #
coedge $-1 $157 $157 $156 $240 forward $98 $-1 #
coedge $-1 $158 $158 $99 $159 forward $153 $-1 #
edge $-1 $241 -3.7326983539416015e-015 $241 6.2831853071795969 $158 $242 forward 7 unknown #
face $-1 $243 $244 $24 $-1 $245 reversed single #
loop $-1 $-1 $246 $100 #
plane-surface $-1 -75.042573320719015 0 0 1 0 0 0 0 -1 forward_v I I I I #
coedge $-1 $247 $171 $248 $249 forward $101 $-1 #
coedge $-1 $250 $103 $247 $251 forward $65 $-1 #
coedge $-1 $103 $250 $252 $253 forward $65 $-1 #
coedge $-1 $174 $173 $103 $167 reversed $175 $-1 #
edge $-1 $254 -50.22678878959578 $255 50.22678878959578 $166 $256 forward 7 unknown #
coedge $-1 $105 $104 $257 $258 forward $41 $-1 #
coedge $-1 $259 $260 $104 $170 reversed $244 $-1 #
edge $-1 $177 -75.042573320719015 $261 75.042573320719015 $169 $262 forward 7 unknown #
coedge $-1 $163 $263 $105 $172 reversed $101 $-1 #
edge $-1 $264 -75.042573320719015 $176 75.042573320719015 $171 $265 forward 7 unknown #
coedge $-1 $166 $106 $263 $266 forward $175 $-1 #
coedge $-1 $106 $166 $259 $267 reversed $175 $-1 #
loop $-1 $-1 $173 $243 #
vertex $-1 $107 $268 #
vertex $-1 $107 $269 #
straight-curve $-1 75.042573320719015 0 24.167934531965692 0 1 0 I I #
face $-1 $-1 $191 $25 $-1 $270 forward single #
loop $-1 $-1 $271 $108 #
plane-surface $-1 0 -50.22678878959578 0 0 1 0 0 0 1 forward_v I I I I #
coedge $-1 $272 $273 $274 $275 reversed $109 $-1 #
coedge $-1 $276 $111 $113 $189 forward $69 $-1 #
coedge $-1 $111 $276 $272 $277 forward $69 $-1 #
coedge $-1 $274 $114 $111 $186 forward $191 $-1 #
edge $-1 $193 3.4498145164661231 $278 30.623347063388184 $185 $279 forward 7 unknown #
coedge $-1 $280 $281 $112 $188 forward $180 $-1 #
edge $-1 $282 -37.075533760529254 $192 -18.289540284681173 $187 $283 forward 7 unknown #
edge $-1 $193 -22.152037585420544 $282 1.3557137071152151e-014 $113 $284 forward 7 unknown #
coedge $-1 $114 $274 $280 $285 forward $191 $-1 #
loop $-1 $-1 $274 $179 #
vertex $-1 $188 $286 #
vertex $-1 $115 $287 #
straight-curve $-1 -20.486395306393277 -88.753106424796869 24.167934531965692 0 1 0 I I #
coedge $-1 $195 $195 $-1 $288 reversed $118 $-1 #
edge $-1 $289 0 $289 6.2831853071796004 $119 $290 forward 7 unknown #
vertex $-1 $122 $291 #
ellipse-curve $-1 -34.0731615798543 -44.357393200796224 14.774937794041659 0 -0.84804810408105047 0.52991925155115449 3 0 0 1 I I #
face $-1 $-1 $211 $27 $-1 $292 forward single #
loop $-1 $-1 $293 $123 #
plane-surface $-1 0 -50.22678878959578 0 0 1 0 0 0 1 forward_v I I I I #
coedge $-1 $294 $295 $296 $297 reversed $124 $-1 #
coedge $-1 $298 $126 $128 $209 forward $78 $-1 #
coedge $-1 $126 $298 $294 $299 forward $78 $-1 #
coedge $-1 $296 $129 $126 $206 forward $211 $-1 #
edge $-1 $213 -30.623347063388174 $300 -3.4498145164661125 $205 $301 forward 7 unknown #
coedge $-1 $302 $303 $127 $208 forward $200 $-1 #
edge $-1 $304 -37.075533760529254 $212 -18.289540284681173 $207 $305 forward 7 unknown #
edge $-1 $213 -22.152037585420544 $304 1.3557137071152151e-014 $128 $306 forward 7 unknown #
coedge $-1 $129 $296 $302 $307 forward $211 $-1 #
loop $-1 $-1 $296 $199 #
vertex $-1 $208 $308 #
vertex $-1 $130 $309 #
straight-curve $-1 47.659927853315317 -88.753106424796869 24.167934531965692 0 1 0 I I #
coedge $-1 $215 $215 $-1 $310 reversed $133 $-1 #
edge $-1 $311 0 $311 6.2831853071796004 $134 $312 forward 7 unknown #
vertex $-1 $137 $313 #
ellipse-curve $-1 34.0731615798543 -44.357393200796224 14.774937794041659 0 -0.84804810408105047 0.52991925155115449 3 0 0 1 I I #
face $-1 $-1 $231 $29 $-1 $314 forward single #
loop $-1 $-1 $315 $138 #
plane-surface $-1 0 50.22678878959578 0 0 -1 0 0 0 -1 forward_v I I I I #
coedge $-1 $316 $317 $318 $319 reversed $139 $-1 #
coedge $-1 $320 $141 $143 $229 forward $87 $-1 #
coedge $-1 $141 $320 $316 $321 forward $87 $-1 #
coedge $-1 $318 $144 $141 $226 forward $231 $-1 #
edge $-1 $233 0.5223224323031701 $322 20.196407040871819 $225 $323 forward 7 unknown #
coedge $-1 $324 $325 $142 $228 forward $220 $-1 #
edge $-1 $326 -85.652217052232118 $232 -69.354022761008849 $227 $327 forward 7 unknown #
edge $-1 $233 75.611004925168686 $326 100.45357757919152 $143 $328 forward 7 unknown #
coedge $-1 $144 $318 $324 $329 forward $231 $-1 #
loop $-1 $-1 $318 $219 #
vertex $-1 $228 $330 #
vertex $-1 $145 $331 #
straight-curve $-1 10.881687168890664 36.439114444248361 24.167934531965699 0 -1 0 I I #
coedge $-1 $235 $235 $-1 $332 reversed $148 $-1 #
edge $-1 $333 0 $333 6.2831853071796004 $149 $334 forward 7 unknown #
vertex $-1 $152 $335 #
ellipse-curve $-1 16.502854199910274 40.852325086055991 16.018837386354047 0 0.6560590369687036 0.75470957328743171 1 0 0 1 I I #
coedge $-1 $239 $239 $-1 $336 reversed $155 $-1 #
edge $-1 $337 0 $337 6.2831853071796004 $156 $338 forward 7 unknown #
vertex $-1 $159 $339 #
ellipse-curve $-1 24.934604746439689 40.852325086055991 16.018837386354047 0 0.6560590369687036 0.75470957328743171 1 0 0 1 I I #
face $-1 $-1 $175 $24 $-1 $340 reversed single #
loop $-1 $-1 $259 $160 #
plane-surface $-1 0 50.22678878959578 0 0 -1 0 0 0 -1 forward_v I I I I #
coedge $-1 $341 $257 $260 $342 forward $161 $-1 #
coedge $-1 $263 $163 $164 $251 reversed $101 $-1 #
coedge $-1 $257 $341 $163 $249 reversed $161 $-1 #
edge $-1 $264 -24.167934531965692 $343 24.167934531965692 $248 $344 forward 7 unknown #
coedge $-1 $165 $164 $341 $345 forward $65 $-1 #
edge $-1 $255 -75.042573320719015 $343 75.042573320719015 $247 $346 forward 7 unknown #
coedge $-1 $260 $259 $165 $253 reversed $244 $-1 #
edge $-1 $347 -75.042573320719015 $254 75.042573320719015 $252 $348 forward 7 unknown #
vertex $-1 $167 $349 #
vertex $-1 $266 $350 #
straight-curve $-1 75.042573320719015 0 -24.167934531965692 0 -1 0 I I #
coedge $-1 $246 $248 $168 $258 reversed $161 $-1 #
edge $-1 $261 -50.22678878959578 $264 50.22678878959578 $257 $351 forward 7 unknown #
coedge $-1 $252 $169 $174 $267 forward $244 $-1 #
coedge $-1 $169 $252 $246 $342 reversed $244 $-1 #
vertex $-1 $170 $352 #
straight-curve $-1 0 50.22678878959578 24.167934531965692 -1 0 0 I I #
coedge $-1 $171 $247 $173 $266 reversed $101 $-1 #
vertex $-1 $258 $353 #
straight-curve $-1 0 -50.22678878959578 24.167934531965692 1 0 0 I I #
edge $-1 $176 -24.167934531965692 $255 24.167934531965692 $173 $354 forward 7 unknown #
edge $-1 $177 -24.167934531965692 $254 24.167934531965692 $174 $355 forward 7 unknown #
point $-1 75.042573320719015 -50.22678878959578 24.167934531965692 #
point $-1 75.042573320719015 50.22678878959578 24.167934531965692 #
plane-surface $-1 0 0 24.167934531965692 0 0 1 1 0 0 forward_v I I I I #
coedge $-1 $281 $280 $273 $356 forward $180 $-1 #
coedge $-1 $273 $182 $184 $277 reversed $109 $-1 #
coedge $-1 $182 $272 $271 $356 reversed $109 $-1 #
coedge $-1 $190 $185 $182 $275 forward $191 $-1 #
edge $-1 $278 -50.265108812800193 $357 -38.526317635201089 $274 $358 forward 7 unknown #
coedge $-1 $184 $183 $281 $359 reversed $69 $-1 #
edge $-1 $360 -1.3557137071152151e-014 $278 22.152037585420544 $272 $361 forward 7 unknown #
vertex $-1 $186 $362 #
straight-curve $-1 -17.036580789927154 -38.487997611996668 24.167934531965692 -1 0 0 I I #
coedge $-1 $271 $187 $190 $285 reversed $180 $-1 #
coedge $-1 $187 $271 $276 $359 forward $180 $-1 #
vertex $-1 $188 $363 #
straight-curve $-1 -20.486395306393277 -50.22678878959578 42.457474816646865 0 0 1 I I #
straight-curve $-1 -20.486395306393277 -50.226788789595773 5.3819410561176255 0 -0.52991925155115449 -0.84804810408105047 I I #
edge $-1 $357 -47.659927853315338 $192 -20.486395306393277 $280 $364 forward 7 unknown #
point $-1 -20.486395306393277 -50.22678878959578 24.167934531965692 #
point $-1 -20.486395306393277 -38.487997611996676 24.167934531965692 #
edge $-1 $365 1 $365 0 $195 $-1 forward 7 unknown #
vertex $-1 $196 $366 #
ellipse-curve $-1 -34.0731615798543 -35.049180769723563 8.9585213183534407 0 -0.84804810408105047 0.52991925155115449 3 0 0 1 I I #
point $-1 -31.0731615798543 -44.357393200796231 14.774937794041659 #
plane-surface $-1 0 0 24.167934531965692 0 0 1 1 0 0 forward_v I I I I #
coedge $-1 $303 $302 $295 $367 forward $200 $-1 #
coedge $-1 $295 $202 $204 $299 reversed $124 $-1 #
coedge $-1 $202 $294 $293 $367 reversed $124 $-1 #
coedge $-1 $210 $205 $202 $297 forward $211 $-1 #
edge $-1 $300 -50.265108812800193 $368 -38.526317635201089 $296 $369 forward 7 unknown #
coedge $-1 $204 $203 $303 $370 reversed $78 $-1 #
edge $-1 $371 -1.3557137071152151e-014 $300 22.152037585420544 $294 $372 forward 7 unknown #
vertex $-1 $206 $373 #
straight-curve $-1 17.036580789927143 -38.487997611996668 24.167934531965692 -1 0 0 I I #
coedge $-1 $293 $207 $210 $307 reversed $200 $-1 #
coedge $-1 $207 $293 $298 $370 forward $200 $-1 #
vertex $-1 $208 $374 #
straight-curve $-1 47.659927853315317 -50.22678878959578 42.457474816646865 0 0 1 I I #
straight-curve $-1 47.659927853315317 -50.226788789595773 5.3819410561176255 0 -0.52991925155115449 -0.84804810408105047 I I #
edge $-1 $368 20.486395306393256 $212 47.659927853315317 $302 $375 forward 7 unknown #
point $-1 47.659927853315317 -50.22678878959578 24.167934531965692 #
point $-1 47.659927853315317 -38.487997611996676 24.167934531965692 #
edge $-1 $376 1 $376 0 $215 $-1 forward 7 unknown #
vertex $-1 $216 $377 #
ellipse-curve $-1 34.0731615798543 -35.049180769723563 8.9585213183534407 0 -0.84804810408105047 0.52991925155115449 3 0 0 1 I I #
point $-1 37.0731615798543 -44.357393200796231 14.774937794041659 #
plane-surface $-1 0 0 24.167934531965692 0 0 1 1 0 0 forward_v I I I I #
coedge $-1 $325 $324 $317 $378 forward $220 $-1 #
coedge $-1 $317 $222 $224 $321 reversed $139 $-1 #
coedge $-1 $222 $316 $315 $378 reversed $139 $-1 #
coedge $-1 $230 $225 $222 $319 forward $231 $-1 #
edge $-1 $322 -4.9612530617321866 $379 13.787674345347419 $318 $380 forward 7 unknown #
coedge $-1 $224 $223 $325 $381 reversed $87 $-1 #
edge $-1 $382 -100.45357757919152 $322 -75.611004925168686 $316 $383 forward 7 unknown #
vertex $-1 $226 $384 #
straight-curve $-1 10.359364736587494 31.477861382516181 24.167934531965699 1 0 0 I I #
coedge $-1 $315 $227 $230 $329 reversed $220 $-1 #
coedge $-1 $227 $315 $320 $381 forward $220 $-1 #
vertex $-1 $228 $385 #
straight-curve $-1 10.881687168890664 50.22678878959578 93.521957292974534 0 0 1 I I #
straight-curve $-1 10.881687168890664 -25.586487880391772 73.773217607407759 0 0.75470957328743171 -0.6560590369687036 I I #
edge $-1 $379 -30.555771777459313 $232 -10.881687168890664 $324 $386 forward 7 unknown #
point $-1 10.881687168890664 50.22678878959578 24.167934531965692 #
point $-1 10.881687168890664 31.477861382516174 24.167934531965692 #
edge $-1 $387 1 $387 0 $235 $-1 forward 7 unknown #
vertex $-1 $236 $388 #
ellipse-curve $-1 16.502854199910274 39.540287099894314 14.509510370224229 0 0.6560590369687036 0.75470957328743171 1 0 0 1 I I #
point $-1 17.502854199910274 40.852325086055977 16.018837386354036 #
edge $-1 $389 1 $389 0 $239 $-1 forward 7 unknown #
vertex $-1 $240 $390 #
ellipse-curve $-1 24.934604746439689 39.540287099894314 14.509510370224229 0 0.6560590369687036 0.75470957328743171 1 0 0 1 I I #
point $-1 25.934604746439689 40.852325086055977 16.018837386354036 #
plane-surface $-1 75.042573320719015 0 0 -1 0 0 0 0 1 forward_v I I I I #
coedge $-1 $248 $246 $250 $345 reversed $161 $-1 #
edge $-1 $261 -24.167934531965692 $347 24.167934531965692 $260 $391 forward 7 unknown #
vertex $-1 $345 $392 #
straight-curve $-1 -75.042573320719015 -50.22678878959578 0 0 0 -1 I I #
edge $-1 $343 -50.22678878959578 $347 50.22678878959578 $341 $393 forward 7 unknown #
straight-curve $-1 0 -50.22678878959578 -24.167934531965692 -1 0 0 I I #
vertex $-1 $253 $394 #
straight-curve $-1 0 50.22678878959578 -24.167934531965692 1 0 0 I I #
point $-1 75.042573320719015 50.22678878959578 -24.167934531965692 #
point $-1 75.042573320719015 -50.22678878959578 -24.167934531965692 #
straight-curve $-1 -75.042573320719015 0 24.167934531965692 0 -1 0 I I #
point $-1 -75.042573320719015 50.22678878959578 24.167934531965692 #
point $-1 -75.042573320719015 -50.22678878959578 24.167934531965692 #
straight-curve $-1 75.042573320719015 -50.22678878959578 0 0 0 -1 I I #
straight-curve $-1 75.042573320719015 50.22678878959578 0 0 0 -1 I I #
edge $-1 $357 18.289540284681173 $360 37.075533760529254 $271 $395 forward 7 unknown #
vertex $-1 $285 $396 #
straight-curve $-1 -47.659927853315338 -88.753106424796869 24.167934531965692 0 -1 0 I I #
edge $-1 $360 -30.623347063388184 $282 -3.4498145164661231 $281 $397 forward 7 unknown #
vertex $-1 $359 $398 #
straight-curve $-1 -47.659927853315338 -50.226788789595773 5.3819410561176255 0 0.52991925155115449 0.84804810408105047 I I #
point $-1 -47.659927853315338 -38.487997611996676 24.167934531965692 #
point $-1 -20.486395306393277 -50.22678878959578 5.381941056117614 #
straight-curve $-1 0 -50.22678878959578 24.167934531965692 1 0 0 I I #
vertex $-1 $288 $399 #
point $-1 -31.0731615798543 -35.049180769723563 8.9585213183534407 #
edge $-1 $368 18.289540284681173 $371 37.075533760529254 $293 $400 forward 7 unknown #
vertex $-1 $307 $401 #
straight-curve $-1 20.486395306393256 -88.753106424796869 24.167934531965692 0 -1 0 I I #
edge $-1 $371 3.4498145164661125 $304 30.623347063388174 $303 $402 forward 7 unknown #
vertex $-1 $370 $403 #
straight-curve $-1 20.486395306393256 -50.226788789595773 5.3819410561176255 0 0.52991925155115449 0.84804810408105047 I I #
point $-1 20.486395306393256 -38.487997611996676 24.167934531965692 #
point $-1 47.659927853315317 -50.22678878959578 5.381941056117614 #
straight-curve $-1 0 -50.22678878959578 24.167934531965692 1 0 0 I I #
vertex $-1 $310 $404 #
point $-1 37.0731615798543 -35.049180769723563 8.9585213183534407 #
edge $-1 $379 69.354022761008849 $382 85.652217052232118 $315 $405 forward 7 unknown #
vertex $-1 $329 $406 #
straight-curve $-1 30.555771777459313 36.439114444248361 24.167934531965699 0 1 0 I I #
edge $-1 $382 -20.196407040871819 $326 -0.5223224323031701 $325 $407 forward 7 unknown #
vertex $-1 $381 $408 #
straight-curve $-1 30.555771777459313 -25.586487880391772 73.773217607407759 0 -0.75470957328743171 0.6560590369687036 I I #
point $-1 30.555771777459313 31.477861382516174 24.167934531965692 #
point $-1 10.881687168890664 50.226788789595773 7.8697402407424164 #
straight-curve $-1 0 50.22678878959578 24.167934531965692 -1 0 0 I I #
vertex $-1 $332 $409 #
point $-1 17.502854199910274 39.540287099894314 14.509510370224229 #
vertex $-1 $336 $410 #
point $-1 25.934604746439689 39.540287099894314 14.509510370224229 #
straight-curve $-1 -75.042573320719015 50.22678878959578 0 0 0 -1 I I #
point $-1 -75.042573320719015 -50.22678878959578 -24.167934531965692 #
straight-curve $-1 -75.042573320719015 0 -24.167934531965692 0 1 0 I I #
point $-1 -75.042573320719015 50.22678878959578 -24.167934531965692 #
straight-curve $-1 -47.659927853315338 -50.22678878959578 42.457474816646865 0 0 -1 I I #
point $-1 -47.659927853315338 -50.22678878959578 24.167934531965692 #
straight-curve $-1 -17.036580789927154 -50.22678878959578 5.3819410561176086 1 0 0 I I #
point $-1 -47.659927853315338 -50.22678878959578 5.381941056117614 #
point $-1 -34.0731615798543 -32.505036457480415 7.3687635636999778 #
straight-curve $-1 20.486395306393256 -50.22678878959578 42.457474816646865 0 0 -1 I I #
point $-1 20.486395306393256 -50.22678878959578 24.167934531965692 #
straight-curve $-1 17.036580789927143 -50.22678878959578 5.3819410561176086 1 0 0 I I #
point $-1 20.486395306393256 -50.22678878959578 5.381941056117614 #
point $-1 34.0731615798543 -32.505036457480415 7.3687635636999778 #
straight-curve $-1 30.555771777459313 50.22678878959578 93.521957292974534 0 0 -1 I I #
point $-1 30.555771777459313 50.22678878959578 24.167934531965692 #
straight-curve $-1 10.359364736587494 50.22678878959578 7.8697402407424129 -1 0 0 I I #
point $-1 30.555771777459313 50.226788789595773 7.8697402407424164 #
point $-1 16.502854199910274 38.884228062925615 13.754800796936797 #
point $-1 24.934604746439689 38.884228062925615 13.754800796936797 #
End-of-ACIS-data 