500 0 6 0           
7 Unknown 11 ACIS 5.0 NT 24 Fri Mar 26 14:52:32 1999 
-1 9.9999999999999995e-007 1e-010 
body $-1 $6 $-1 $7 #
body $-1 $8 $-1 $9 #
body $-1 $10 $-1 $11 #
body $-1 $12 $-1 $13 #
body $-1 $14 $-1 $15 #
body $-1 $16 $-1 $17 #
lump $-1 $-1 $18 $0 #
transform $-1 1 0 0 0 1 0 0 0 1 44.517960142826624 19.06295817621432 4.9248835672813218 1 rotate no_reflect no_shear #
lump $-1 $-1 $19 $1 #
transform $-1 1 0 0 0 1 0 0 0 1 44.517960142826624 19.06295817621432 4.9248835672813218 1 rotate no_reflect no_shear #
lump $-1 $-1 $20 $2 #
transform $-1 1 0 0 0 1 0 0 0 1 44.517960142826624 19.06295817621432 4.9248835672813218 1 rotate no_reflect no_shear #
lump $-1 $-1 $21 $3 #
transform $-1 1 0 0 0 1 0 0 0 1 44.517960142826624 19.06295817621432 4.9248835672813218 1 rotate no_reflect no_shear #
lump $-1 $-1 $22 $4 #
transform $-1 1 0 0 0 1 0 0 0 1 44.517960142826624 19.06295817621432 4.9248835672813218 1 rotate no_reflect no_shear #
lump $-1 $-1 $23 $5 #
transform $-1 1 0 0 0 1 0 0 0 1 44.517960142826624 19.06295817621432 4.9248835672813218 1 rotate no_reflect no_shear #
shell $-1 $-1 $-1 $24 $-1 $6 #
shell $-1 $-1 $-1 $25 $-1 $8 #
shell $-1 $-1 $-1 $26 $-1 $10 #
shell $-1 $-1 $-1 $27 $-1 $12 #
shell $-1 $-1 $-1 $28 $-1 $14 #
shell $-1 $-1 $-1 $29 $-1 $16 #
face $-1 $30 $31 $18 $-1 $32 forward single #
face $-1 $33 $34 $19 $-1 $35 reversed single #
face $-1 $36 $37 $20 $-1 $38 forward single #
face $-1 $39 $40 $21 $-1 $41 forward single #
face $-1 $42 $43 $22 $-1 $44 reversed single #
face $-1 $45 $46 $23 $-1 $47 forward single #
face $-1 $48 $49 $18 $-1 $50 reversed single #
loop $-1 $-1 $51 $24 #
plane-surface $-1 0 0 4.9248835672813218 0 0 1 1 0 0 forward_v I I I I #
face $-1 $52 $53 $19 $-1 $54 reversed single #
loop $-1 $-1 $55 $25 #
plane-surface $-1 42.320427747787463 8.0254613878787584 127.52855280397533 0 1 0 0.69465837861970381 0 0.71933979245794832 forward_v I I I I #
face $-1 $56 $57 $20 $-1 $58 forward single #
loop $-1 $59 $60 $26 #
cone-surface $-1 42.311093301285283 11.179031898831774 2.7586844211383905 -0.69465837861970381 0 -0.71933979245794832 0.35966989622897416 0 -0.3473291893098519 1 I I 0 1 0.5 forward I I I I #
face $-1 $61 $62 $21 $-1 $63 forward single #
loop $-1 $64 $65 $27 #
cone-surface $-1 42.311093301285283 15.909387665261303 2.7586844211383905 -0.69465837861970381 0 -0.71933979245794832 0.35966989622897416 0 -0.3473291893098519 1 I I 0 1 0.5 forward I I I I #
face $-1 $66 $67 $22 $-1 $68 reversed single #
loop $-1 $-1 $69 $28 #
plane-surface $-1 -90.374849734599721 6.5528059961816076 76.880159760930781 0 1 0 -0.51503808176128008 0 0.85716729658548041 forward_v I I I I #
face $-1 $70 $71 $23 $-1 $72 forward single #
loop $-1 $73 $74 $29 #
cone-surface $-1 -39.617739321114286 10.219106427911711 0.6307788972446926 0.51503808176128008 0 -0.85716729658548041 1.2857509448782207 0 0.77255712264192011 1 I I 0 1 1.5 forward I I I I #
face $-1 $75 $76 $18 $-1 $77 reversed single #
loop $-1 $-1 $78 $30 #
plane-surface $-1 0 0 -4.9248835672813218 0 0 1 1 0 0 forward_v I I I I #
coedge $-1 $79 $80 $81 $82 forward $31 $-1 #
face $-1 $83 $84 $19 $-1 $85 forward single #
loop $-1 $-1 $86 $33 #
plane-surface $-1 -19.529120276757617 13.54420978204654 63.481472384391097 0.69465837861970381 0 0.71933979245794832 0.71933979245794832 0 -0.69465837861970381 forward_v I I I I #
coedge $-1 $87 $88 $89 $90 reversed $34 $-1 #
face $-1 $-1 $91 $20 $-1 $92 forward single #
loop $-1 $93 $94 $36 #
cone-surface $-1 41.635541367067901 11.179031898831774 2.0591299305986137 -0.69465837861970381 0 -0.71933979245794832 0.17983494811448708 0 -0.17366459465492595 1 I I -0.70710678118654746 0.70710678118654746 0.25 forward I I I I #
loop $-1 $-1 $95 $26 #
coedge $-1 $60 $60 $96 $97 reversed $37 $-1 #
face $-1 $-1 $98 $21 $-1 $99 forward single #
loop $-1 $100 $101 $39 #
cone-surface $-1 41.635541367067901 15.909387665261303 2.0591299305986137 -0.69465837861970381 0 -0.71933979245794832 0.17983494811448708 0 -0.17366459465492595 1 I I -0.70710678118654746 0.70710678118654746 0.25 forward I I I I #
loop $-1 $-1 $102 $27 #
coedge $-1 $65 $65 $103 $104 reversed $40 $-1 #
face $-1 $105 $106 $22 $-1 $107 reversed single #
loop $-1 $-1 $108 $42 #
plane-surface $-1 -44.517960142826631 10.219106427911711 0.56148067067705654 -0.51503808176128008 0 0.85716729658548041 0.85716729658548041 0 0.51503808176128008 forward_v I I I I #
coedge $-1 $109 $110 $111 $112 reversed $43 $-1 #
face $-1 $-1 $113 $23 $-1 $114 forward single #
loop $-1 $115 $116 $45 #
cone-surface $-1 -37.962200829366218 10.219106427911711 -2.1244997969289106 0.51503808176128008 0 -0.85716729658548041 0.64287547243911036 0 0.38627856132096006 1 I I -0.70710678118654757 0.70710678118654757 0.75 forward I I I I #
loop $-1 $-1 $117 $29 #
coedge $-1 $74 $74 $118 $119 reversed $46 $-1 #
face $-1 $120 $121 $18 $-1 $122 reversed single #
loop $-1 $-1 $123 $48 #
plane-surface $-1 0 -19.06295817621432 0 0 1 0 0 0 1 forward_v I I I I #
coedge $-1 $124 $125 $126 $127 forward $49 $-1 #
coedge $-1 $128 $51 $129 $130 forward $31 $-1 #
coedge $-1 $51 $128 $131 $132 forward $31 $-1 #
coedge $-1 $133 $134 $51 $82 reversed $135 $-1 #
edge $-1 $136 -19.06295817621432 $137 19.06295817621432 $81 $138 forward 7 unknown #
face $-1 $139 $140 $19 $-1 $141 reversed single #
loop $-1 $-1 $142 $52 #
plane-surface $-1 0 0 4.9248835672813218 0 0 1 1 0 0 forward_v I I I I #
coedge $-1 $143 $144 $145 $146 reversed $53 $-1 #
coedge $-1 $88 $55 $147 $148 reversed $34 $-1 #
coedge $-1 $55 $87 $143 $149 reversed $34 $-1 #
coedge $-1 $145 $150 $55 $90 forward $140 $-1 #
edge $-1 $151 58.839392834706345 $152 62.132352042141648 $89 $153 forward 7 unknown #
loop $-1 $-1 $96 $56 #
plane-surface $-1 -19.529120276757617 13.54420978204654 63.481472384391097 0.69465837861970381 0 0.71933979245794832 0.71933979245794832 0 -0.69465837861970381 forward_v I I I I #
loop $-1 $-1 $154 $36 #
coedge $-1 $94 $94 $95 $155 reversed $57 $-1 #
coedge $-1 $95 $95 $94 $155 forward $59 $-1 #
coedge $-1 $96 $96 $60 $97 forward $91 $-1 #
edge $-1 $156 0 $156 6.2831853071796004 $96 $157 forward 7 unknown #
loop $-1 $-1 $103 $61 #
plane-surface $-1 -19.529120276757617 13.54420978204654 63.481472384391097 0.69465837861970381 0 0.71933979245794832 0.71933979245794832 0 -0.69465837861970381 forward_v I I I I #
loop $-1 $-1 $158 $39 #
coedge $-1 $101 $101 $102 $159 reversed $62 $-1 #
coedge $-1 $102 $102 $101 $159 forward $64 $-1 #
coedge $-1 $103 $103 $65 $104 forward $98 $-1 #
edge $-1 $160 0 $160 6.2831853071796004 $103 $161 forward 7 unknown #
face $-1 $162 $163 $22 $-1 $164 reversed single #
loop $-1 $-1 $165 $66 #
plane-surface $-1 -90.374849734599721 13.885406859641815 76.880159760930781 0 -1 0 0.51503808176128008 0 -0.85716729658548041 forward_v I I I I #
coedge $-1 $166 $167 $168 $169 reversed $67 $-1 #
coedge $-1 $110 $69 $170 $171 reversed $43 $-1 #
coedge $-1 $69 $109 $166 $172 reversed $43 $-1 #
coedge $-1 $168 $173 $69 $112 forward $174 $-1 #
edge $-1 $175 0.66946472447323657 $176 7.931386507043662 $111 $177 forward 7 unknown #
loop $-1 $-1 $118 $70 #
plane-surface $-1 -44.517960142826631 10.219106427911711 0.56148067067705654 -0.51503808176128008 0 0.85716729658548041 0.85716729658548041 0 0.51503808176128008 forward_v I I I I #
loop $-1 $-1 $178 $45 #
coedge $-1 $116 $116 $117 $179 reversed $71 $-1 #
coedge $-1 $117 $117 $116 $179 forward $73 $-1 #
coedge $-1 $118 $118 $74 $119 forward $113 $-1 #
edge $-1 $180 0 $180 6.2831853071796004 $118 $181 forward 7 unknown #
face $-1 $182 $183 $18 $-1 $184 reversed single #
loop $-1 $-1 $185 $75 #
plane-surface $-1 -44.517960142826624 0 0 1 0 0 0 0 -1 forward_v I I I I #
coedge $-1 $186 $131 $187 $188 forward $76 $-1 #
coedge $-1 $189 $78 $186 $190 forward $49 $-1 #
coedge $-1 $78 $189 $191 $192 forward $49 $-1 #
coedge $-1 $134 $133 $78 $127 reversed $135 $-1 #
edge $-1 $193 -19.06295817621432 $194 19.06295817621432 $126 $195 forward 7 unknown #
coedge $-1 $80 $79 $196 $197 forward $31 $-1 #
coedge $-1 $198 $199 $79 $130 reversed $183 $-1 #
edge $-1 $137 -44.517960142826624 $200 44.517960142826624 $129 $201 forward 7 unknown #
coedge $-1 $123 $202 $80 $132 reversed $76 $-1 #
edge $-1 $203 -44.517960142826624 $136 44.517960142826624 $131 $204 forward 7 unknown #
coedge $-1 $126 $81 $202 $205 forward $135 $-1 #
coedge $-1 $81 $126 $198 $206 reversed $135 $-1 #
loop $-1 $-1 $133 $182 #
vertex $-1 $82 $207 #
vertex $-1 $82 $208 #
straight-curve $-1 44.517960142826624 0 4.9248835672813218 0 1 0 I I #
face $-1 $-1 $209 $19 $-1 $210 reversed single #
loop $-1 $-1 $89 $83 #
plane-surface $-1 44.517960142826624 0 0 -1 0 0 0 0 1 forward_v I I I I #
coedge $-1 $147 $211 $212 $213 forward $84 $-1 #
coedge $-1 $212 $86 $88 $149 forward $53 $-1 #
coedge $-1 $86 $212 $214 $215 reversed $53 $-1 #
coedge $-1 $216 $89 $86 $146 forward $140 $-1 #
edge $-1 $152 1.2533564968554884 $217 12.29085328519105 $145 $218 forward 7 unknown #
coedge $-1 $219 $142 $87 $148 forward $84 $-1 #
edge $-1 $220 19.947787264975069 $151 23.357746268932893 $147 $221 forward 7 unknown #
edge $-1 $152 -89.035920285653248 $220 -84.295519379558272 $88 $222 forward 7 unknown #
coedge $-1 $89 $216 $219 $223 reversed $140 $-1 #
vertex $-1 $223 $224 #
vertex $-1 $90 $225 #
straight-curve $-1 44.517960142826624 8.0254613878787584 63.764276401987665 0 0 -1 I I #
coedge $-1 $154 $154 $-1 $226 reversed $93 $-1 #
edge $-1 $227 0 $227 6.2831853071796004 $94 $228 forward 7 unknown #
vertex $-1 $97 $229 #
ellipse-curve $-1 42.812980640847712 11.179031898831774 3.2784039635636604 0.69465837861970381 0 0.71933979245794832 0.35966989622897416 0 -0.3473291893098519 1 I I #
coedge $-1 $158 $158 $-1 $230 reversed $100 $-1 #
edge $-1 $231 0 $231 6.2831853071796004 $101 $232 forward 7 unknown #
vertex $-1 $104 $233 #
ellipse-curve $-1 42.812980640847712 15.909387665261303 3.2784039635636604 0.69465837861970381 0 0.71933979245794832 0.35966989622897416 0 -0.3473291893098519 1 I I #
face $-1 $-1 $174 $22 $-1 $234 forward single #
loop $-1 $-1 $235 $105 #
plane-surface $-1 -44.517960142826624 0 0 1 0 0 0 0 -1 forward_v I I I I #
coedge $-1 $236 $237 $238 $239 reversed $106 $-1 #
coedge $-1 $240 $108 $110 $172 forward $67 $-1 #
coedge $-1 $108 $240 $236 $241 forward $67 $-1 #
coedge $-1 $238 $111 $108 $169 forward $174 $-1 #
edge $-1 $176 1.4432527822257519 $242 8.7758536456859595 $168 $243 forward 7 unknown #
coedge $-1 $244 $245 $109 $171 forward $163 $-1 #
edge $-1 $246 -37.878599209788327 $175 -33.51519631318407 $170 $247 forward 7 unknown #
edge $-1 $176 -8.472000520199785 $246 -8.2634070795339233e-015 $110 $248 forward 7 unknown #
coedge $-1 $111 $238 $244 $249 forward $174 $-1 #
loop $-1 $-1 $238 $162 #
vertex $-1 $171 $250 #
vertex $-1 $112 $251 #
straight-curve $-1 -45.18742486729986 6.5528059961816076 4.92488356728132 1 0 0 I I #
coedge $-1 $178 $178 $-1 $252 reversed $115 $-1 #
edge $-1 $253 0 $253 6.2831853071796004 $116 $254 forward 7 unknown #
vertex $-1 $119 $255 #
ellipse-curve $-1 -40.886999251541404 10.219106427911711 2.7431821189791958 -0.51503808176128008 0 0.85716729658548041 1.2857509448782207 0 0.77255712264192011 1 I I #
face $-1 $-1 $135 $18 $-1 $256 reversed single #
loop $-1 $-1 $198 $120 #
plane-surface $-1 0 19.06295817621432 0 0 -1 0 0 0 -1 forward_v I I I I #
coedge $-1 $257 $196 $199 $258 forward $121 $-1 #
coedge $-1 $202 $123 $124 $190 reversed $76 $-1 #
coedge $-1 $196 $257 $123 $188 reversed $121 $-1 #
edge $-1 $203 -4.9248835672813218 $259 4.9248835672813218 $187 $260 forward 7 unknown #
coedge $-1 $125 $124 $257 $261 forward $49 $-1 #
edge $-1 $194 -44.517960142826624 $259 44.517960142826624 $186 $262 forward 7 unknown #
coedge $-1 $199 $198 $125 $192 reversed $183 $-1 #
edge $-1 $263 -44.517960142826624 $193 44.517960142826624 $191 $264 forward 7 unknown #
vertex $-1 $127 $265 #
vertex $-1 $205 $266 #
straight-curve $-1 44.517960142826624 0 -4.9248835672813218 0 -1 0 I I #
coedge $-1 $185 $187 $128 $197 reversed $121 $-1 #
edge $-1 $200 -19.06295817621432 $203 19.06295817621432 $196 $267 forward 7 unknown #
coedge $-1 $191 $129 $134 $206 forward $183 $-1 #
coedge $-1 $129 $191 $185 $258 reversed $183 $-1 #
vertex $-1 $130 $268 #
straight-curve $-1 0 19.06295817621432 4.9248835672813218 -1 0 0 I I #
coedge $-1 $131 $186 $133 $205 reversed $76 $-1 #
vertex $-1 $197 $269 #
straight-curve $-1 0 -19.06295817621432 4.9248835672813218 1 0 0 I I #
edge $-1 $136 -4.9248835672813218 $194 4.9248835672813218 $133 $270 forward 7 unknown #
edge $-1 $137 -4.9248835672813218 $193 4.9248835672813218 $134 $271 forward 7 unknown #
point $-1 44.517960142826624 -19.06295817621432 4.9248835672813218 #
point $-1 44.517960142826624 19.06295817621432 4.9248835672813218 #
loop $-1 $-1 $214 $139 #
plane-surface $-1 0 19.06295817621432 0 0 -1 0 0 0 -1 forward_v I I I I #
coedge $-1 $142 $219 $272 $273 forward $84 $-1 #
coedge $-1 $144 $143 $142 $213 reversed $53 $-1 #
edge $-1 $274 -12.290853285191053 $220 -1.2533564968554884 $142 $275 forward 7 unknown #
coedge $-1 $272 $276 $144 $215 forward $209 $-1 #
edge $-1 $217 -59.962915282802371 $274 -55.222514376707402 $214 $277 forward 7 unknown #
coedge $-1 $150 $145 $276 $278 reversed $140 $-1 #
vertex $-1 $146 $279 #
straight-curve $-1 44.517960142826624 6.77210489102327 1.6319243598460176 0 1 0 I I #
coedge $-1 $211 $147 $150 $223 forward $84 $-1 #
vertex $-1 $148 $280 #
straight-curve $-1 21.160213873893731 8.0254613878787584 4.92488356728132 1 0 0 I I #
straight-curve $-1 -19.529120276757617 8.0254613878787584 63.481472384391097 -0.71933979245794832 0 0.69465837861970381 I I #
edge $-1 $151 8.0254613878787584 $281 19.06295817621432 $150 $282 forward 7 unknown #
point $-1 44.517960142826624 8.0254613878787584 4.9248835672813218 #
point $-1 44.517960142826617 8.0254613878787584 1.6319243598460176 #
edge $-1 $283 1 $283 0 $154 $-1 forward 7 unknown #
vertex $-1 $155 $284 #
ellipse-curve $-1 41.809205961722824 11.179031898831774 2.2389648787131007 0.69465837861970381 0 0.71933979245794832 0.35966989622897416 0 -0.3473291893098519 1 I I #
point $-1 43.172650537076706 11.179031898831774 2.9310747742538283 #
edge $-1 $285 1 $285 0 $158 $-1 forward 7 unknown #
vertex $-1 $159 $286 #
ellipse-curve $-1 41.809205961722824 15.909387665261303 2.2389648787131007 0.69465837861970381 0 0.71933979245794832 0.35966989622897416 0 -0.3473291893098519 1 I I #
point $-1 43.172650537076706 15.909387665261303 2.9310747742538283 #
plane-surface $-1 0 0 4.9248835672813218 0 0 1 1 0 0 forward_v I I I I #
coedge $-1 $245 $244 $237 $287 forward $163 $-1 #
coedge $-1 $237 $165 $167 $241 reversed $106 $-1 #
coedge $-1 $165 $236 $235 $287 reversed $106 $-1 #
coedge $-1 $173 $168 $165 $239 forward $174 $-1 #
edge $-1 $242 -7.931386507043662 $288 -0.66946472447323657 $238 $289 forward 7 unknown #
coedge $-1 $167 $166 $245 $290 reversed $67 $-1 #
edge $-1 $291 8.2634070795339233e-015 $242 8.472000520199785 $236 $292 forward 7 unknown #
vertex $-1 $169 $293 #
straight-curve $-1 -37.256038360256198 5.1095532139558557 4.9248835672813209 0 1 0 I I #
coedge $-1 $235 $170 $173 $249 reversed $163 $-1 #
coedge $-1 $170 $235 $240 $290 forward $163 $-1 #
vertex $-1 $171 $294 #
straight-curve $-1 -44.517960142826624 6.5528059961816076 38.44007988046539 0 0 1 I I #
straight-curve $-1 -44.517960142826631 6.5528059961816076 0.56148067067705654 -0.85716729658548041 0 -0.51503808176128008 I I #
edge $-1 $288 -13.885406859641815 $175 -6.5528059961816076 $244 $295 forward 7 unknown #
point $-1 -44.517960142826624 6.5528059961816076 4.9248835672813218 #
point $-1 -37.256038360256198 6.5528059961816076 4.9248835672813218 #
edge $-1 $296 1 $296 0 $178 $-1 forward 7 unknown #
vertex $-1 $179 $297 #
ellipse-curve $-1 -38.348479390687174 10.219106427911711 -1.4816243244898002 -0.51503808176128008 0 0.85716729658548041 1.2857509448782207 0 0.77255712264192011 1 I I #
point $-1 -39.60124830666318 10.219106427911711 3.5157392416211053 #
plane-surface $-1 44.517960142826624 0 0 -1 0 0 0 0 1 forward_v I I I I #
coedge $-1 $187 $185 $189 $261 reversed $121 $-1 #
edge $-1 $200 -4.9248835672813218 $263 4.9248835672813218 $199 $298 forward 7 unknown #
vertex $-1 $261 $299 #
straight-curve $-1 -44.517960142826624 -19.06295817621432 0 0 0 -1 I I #
edge $-1 $259 -19.06295817621432 $263 19.06295817621432 $257 $300 forward 7 unknown #
straight-curve $-1 0 -19.06295817621432 -4.9248835672813218 -1 0 0 I I #
vertex $-1 $192 $301 #
straight-curve $-1 0 19.06295817621432 -4.9248835672813218 1 0 0 I I #
point $-1 44.517960142826624 19.06295817621432 -4.9248835672813218 #
point $-1 44.517960142826624 -19.06295817621432 -4.9248835672813218 #
straight-curve $-1 -44.517960142826624 0 4.9248835672813218 0 -1 0 I I #
point $-1 -44.517960142826624 19.06295817621432 4.9248835672813218 #
point $-1 -44.517960142826624 -19.06295817621432 4.9248835672813218 #
straight-curve $-1 44.517960142826624 -19.06295817621432 0 0 0 -1 I I #
straight-curve $-1 44.517960142826624 19.06295817621432 0 0 0 -1 I I #
coedge $-1 $276 $214 $211 $273 reversed $209 $-1 #
edge $-1 $281 -44.517960142826624 $274 -41.108001138868801 $272 $302 forward 7 unknown #
vertex $-1 $215 $303 #
straight-curve $-1 41.108001138868801 6.77210489102327 4.92488356728132 0 -1 0 I I #
coedge $-1 $214 $272 $216 $278 forward $209 $-1 #
straight-curve $-1 1.3842491081220256 19.06295817621432 43.285665867508165 -0.71933979245794832 0 0.69465837861970381 I I #
edge $-1 $281 -4.9248835672813218 $217 -1.6319243598460123 $216 $304 forward 7 unknown #
point $-1 44.517960142826624 19.06295817621432 1.6319243598460123 #
point $-1 41.108001138868801 8.0254613878787584 4.92488356728132 #
vertex $-1 $223 $305 #
straight-curve $-1 44.517960142826624 0 4.9248835672813218 0 1 0 I I #
vertex $-1 $226 $306 #
point $-1 42.168875857951804 11.179031898831774 1.8916356894032489 #
vertex $-1 $230 $307 #
point $-1 42.168875857951804 15.909387665261303 1.8916356894032489 #
edge $-1 $288 33.51519631318407 $291 37.878599209788327 $235 $308 forward 7 unknown #
vertex $-1 $249 $309 #
straight-curve $-1 -45.18742486729986 13.885406859641815 4.92488356728132 -1 0 0 I I #
edge $-1 $291 -8.7758536456859595 $246 -1.4432527822257519 $245 $310 forward 7 unknown #
vertex $-1 $290 $311 #
straight-curve $-1 -44.517960142826631 13.885406859641815 0.56148067067705654 0.85716729658548041 0 0.51503808176128008 I I #
point $-1 -37.256038360256198 13.885406859641815 4.9248835672813218 #
point $-1 -44.517960142826624 6.5528059961816076 0.56148067067706076 #
straight-curve $-1 -44.517960142826624 0 4.9248835672813218 0 -1 0 I I #
vertex $-1 $252 $312 #
point $-1 -37.062728445808958 10.219106427911711 -0.70906720184788008 #
straight-curve $-1 -44.517960142826624 19.06295817621432 0 0 0 -1 I I #
point $-1 -44.517960142826624 -19.06295817621432 -4.9248835672813218 #
straight-curve $-1 -44.517960142826624 0 -4.9248835672813218 0 1 0 I I #
point $-1 -44.517960142826624 19.06295817621432 -4.9248835672813218 #
straight-curve $-1 0 19.06295817621432 4.9248835672813218 -1 0 0 I I #
point $-1 41.108001138868801 19.062958176214323 4.92488356728132 #
straight-curve $-1 44.517960142826624 19.06295817621432 0 0 0 -1 I I #
point $-1 44.517960142826624 19.06295817621432 4.9248835672813218 #
point $-1 41.461876772412978 11.179031898831774 1.8792949824841267 #
point $-1 41.461876772412978 15.909387665261303 1.8792949824841267 #
straight-curve $-1 -44.517960142826624 13.885406859641815 38.44007988046539 0 0 -1 I I #
point $-1 -44.517960142826624 13.885406859641815 4.9248835672813218 #
straight-curve $-1 -44.517960142826624 5.1095532139558557 0.56148067067705698 0 -1 0 I I #
point $-1 -44.517960142826624 13.885406859641815 0.56148067067706076 #
point $-1 -37.575922268045261 10.219106427911711 -2.7673752693680207 #
End-of-ACIS-data 