500 0 4 0           
7 Unknown 11 ACIS 5.0 NT 24 Fri Mar 26 18:03:41 1999 
-1 9.9999999999999995e-007 1e-010 
body $-1 $4 $-1 $5 #
body $-1 $6 $-1 $7 #
body $-1 $8 $-1 $9 #
body $-1 $10 $-1 $11 #
lump $-1 $-1 $12 $0 #
transform $-1 1 0 0 0 1 0 0 0 1 69.767754142887668 37.04779102558723 14.097426752602752 1 rotate no_reflect no_shear #
lump $-1 $-1 $13 $1 #
transform $-1 1 0 0 0 1 0 0 0 1 69.767754142887668 37.04779102558723 14.097426752602752 1 rotate no_reflect no_shear #
lump $-1 $-1 $14 $2 #
transform $-1 1 0 0 0 1 0 0 0 1 69.767754142887668 37.04779102558723 14.097426752602752 1 rotate no_reflect no_shear #
lump $-1 $-1 $15 $3 #
transform $-1 1 0 0 0 1 0 0 0 1 69.767754142887668 37.04779102558723 14.097426752602752 1 rotate no_reflect no_shear #
shell $-1 $-1 $-1 $16 $-1 $4 #
shell $-1 $-1 $-1 $17 $-1 $6 #
shell $-1 $-1 $-1 $18 $-1 $8 #
shell $-1 $-1 $-1 $19 $-1 $10 #
face $-1 $20 $21 $12 $-1 $22 forward single #
face $-1 $23 $24 $13 $-1 $25 reversed single #
face $-1 $26 $27 $14 $-1 $28 forward single #
face $-1 $29 $30 $15 $-1 $31 forward single #
face $-1 $32 $33 $12 $-1 $34 reversed single #
loop $-1 $-1 $35 $16 #
plane-surface $-1 0 0 14.097426752602752 0 0 1 1 0 0 forward_v I I I I #
face $-1 $36 $37 $13 $-1 $38 reversed single #
loop $-1 $-1 $39 $17 #
plane-surface $-1 -54.514085056967595 106.3821001343573 145.46375612967188 1 0 0 0 -0.80901700255871778 -0.5877852410284794 forward_v I I I I #
face $-1 $40 $41 $14 $-1 $42 forward single #
loop $-1 $43 $44 $18 #
cone-surface $-1 -43.735791501594392 29.907077492608362 6.408214635623585 0 -0.80901700255871778 -0.5877852410284794 2.5 0 0 1 I I 0 1 2.5 forward I I I I #
face $-1 $45 $46 $15 $-1 $47 forward single #
loop $-1 $48 $49 $19 #
cone-surface $-1 -27.568351168534591 29.907077492608362 6.408214635623585 0 -0.80901700255871778 -0.5877852410284794 2.5 0 0 1 I I 0 1 2.5 forward I I I I #
face $-1 $50 $51 $12 $-1 $52 reversed single #
loop $-1 $-1 $53 $20 #
plane-surface $-1 0 0 -14.097426752602752 0 0 1 1 0 0 forward_v I I I I #
coedge $-1 $54 $55 $56 $57 forward $21 $-1 #
face $-1 $58 $59 $13 $-1 $60 reversed single #
loop $-1 $-1 $61 $23 #
plane-surface $-1 -35.652071335064491 -6.5044985295077851 63.446843759886036 0 0.80901700255871778 0.5877852410284794 1 0 0 forward_v I I I I #
coedge $-1 $62 $63 $64 $65 reversed $24 $-1 #
face $-1 $-1 $66 $14 $-1 $67 forward single #
loop $-1 $68 $69 $26 #
cone-surface $-1 -43.735791501594392 25.604012914841313 3.2818553106595285 0 -0.80901700255871778 -0.5877852410284794 1.25 0 0 1 I I -0.70710678118654746 0.70710678118654746 1.25 forward I I I I #
loop $-1 $-1 $70 $18 #
coedge $-1 $44 $44 $71 $72 reversed $27 $-1 #
face $-1 $-1 $73 $15 $-1 $74 forward single #
loop $-1 $75 $76 $29 #
cone-surface $-1 -27.568351168534591 25.604012914841313 3.2818553106595285 0 -0.80901700255871778 -0.5877852410284794 1.25 0 0 1 I I -0.70710678118654746 0.70710678118654746 1.25 forward I I I I #
loop $-1 $-1 $77 $19 #
coedge $-1 $49 $49 $78 $79 reversed $30 $-1 #
face $-1 $80 $81 $12 $-1 $82 reversed single #
loop $-1 $-1 $83 $32 #
plane-surface $-1 0 -37.04779102558723 0 0 1 0 0 0 1 forward_v I I I I #
coedge $-1 $84 $85 $86 $87 forward $33 $-1 #
coedge $-1 $88 $35 $89 $90 forward $21 $-1 #
coedge $-1 $35 $88 $91 $92 forward $21 $-1 #
coedge $-1 $93 $94 $35 $57 reversed $95 $-1 #
edge $-1 $96 -37.04779102558723 $97 37.04779102558723 $56 $98 forward 7 unknown #
face $-1 $99 $100 $13 $-1 $101 reversed single #
loop $-1 $-1 $102 $36 #
plane-surface $-1 -16.790057613161387 106.3821001343573 145.46375612967188 -1 0 0 0 0.80901700255871778 0.5877852410284794 forward_v I I I I #
coedge $-1 $103 $104 $105 $106 reversed $37 $-1 #
coedge $-1 $63 $39 $107 $108 reversed $24 $-1 #
coedge $-1 $39 $62 $103 $109 reversed $24 $-1 #
coedge $-1 $105 $110 $39 $65 forward $111 $-1 #
edge $-1 $112 16.143259041591421 $113 23.841099458411797 $64 $114 forward 7 unknown #
loop $-1 $-1 $71 $40 #
plane-surface $-1 -35.652071335064491 -6.5044985295077851 63.446843759886036 0 0.80901700255871778 0.5877852410284794 1 0 0 forward_v I I I I #
loop $-1 $-1 $115 $26 #
coedge $-1 $69 $69 $70 $116 reversed $41 $-1 #
coedge $-1 $70 $70 $69 $116 forward $43 $-1 #
coedge $-1 $71 $71 $44 $72 forward $66 $-1 #
edge $-1 $117 -3.5909183417698935e-016 $117 6.2831853071796004 $71 $118 forward 7 unknown #
loop $-1 $-1 $78 $45 #
plane-surface $-1 -35.652071335064491 -6.5044985295077851 63.446843759886036 0 0.80901700255871778 0.5877852410284794 1 0 0 forward_v I I I I #
loop $-1 $-1 $119 $29 #
coedge $-1 $76 $76 $77 $120 reversed $46 $-1 #
coedge $-1 $77 $77 $76 $120 forward $48 $-1 #
coedge $-1 $78 $78 $49 $79 forward $73 $-1 #
edge $-1 $121 -3.5909183417698935e-016 $121 6.2831853071796004 $78 $122 forward 7 unknown #
face $-1 $123 $124 $12 $-1 $125 reversed single #
loop $-1 $-1 $126 $50 #
plane-surface $-1 -69.767754142887668 0 0 1 0 0 0 0 -1 forward_v I I I I #
coedge $-1 $127 $91 $128 $129 forward $51 $-1 #
coedge $-1 $130 $53 $127 $131 forward $33 $-1 #
coedge $-1 $53 $130 $132 $133 forward $33 $-1 #
coedge $-1 $94 $93 $53 $87 reversed $95 $-1 #
edge $-1 $134 -37.04779102558723 $135 37.04779102558723 $86 $136 forward 7 unknown #
coedge $-1 $55 $54 $137 $138 forward $21 $-1 #
coedge $-1 $139 $140 $54 $90 reversed $124 $-1 #
edge $-1 $97 -69.767754142887668 $141 69.767754142887668 $89 $142 forward 7 unknown #
coedge $-1 $83 $143 $55 $92 reversed $51 $-1 #
edge $-1 $144 -69.767754142887668 $96 69.767754142887668 $91 $145 forward 7 unknown #
coedge $-1 $86 $56 $143 $146 forward $95 $-1 #
coedge $-1 $56 $86 $139 $147 reversed $95 $-1 #
loop $-1 $-1 $93 $123 #
vertex $-1 $57 $148 #
vertex $-1 $57 $149 #
straight-curve $-1 69.767754142887668 0 14.097426752602752 0 1 0 I I #
face $-1 $-1 $111 $13 $-1 $150 forward single #
loop $-1 $-1 $151 $58 #
plane-surface $-1 0 37.04779102558723 0 0 -1 0 0 0 -1 forward_v I I I I #
coedge $-1 $152 $153 $154 $155 reversed $59 $-1 #
coedge $-1 $156 $61 $63 $109 forward $37 $-1 #
coedge $-1 $61 $156 $152 $157 forward $37 $-1 #
coedge $-1 $154 $64 $61 $106 forward $111 $-1 #
edge $-1 $113 -36.688049389435349 $158 1.0359780543708581 $105 $159 forward 7 unknown #
coedge $-1 $160 $161 $62 $108 forward $100 $-1 #
edge $-1 $162 -69.229619998834551 $112 -58.634451312233189 $107 $163 forward 7 unknown #
edge $-1 $113 60.999233453936647 $162 74.095582051174404 $63 $164 forward 7 unknown #
coedge $-1 $64 $154 $160 $165 forward $111 $-1 #
loop $-1 $-1 $154 $99 #
vertex $-1 $108 $166 #
vertex $-1 $65 $167 #
straight-curve $-1 -54.514085056967595 53.191050067178651 14.097426752602757 0 -1 0 I I #
coedge $-1 $115 $115 $-1 $168 reversed $68 $-1 #
edge $-1 $169 0 $169 6.2831853071796004 $69 $170 forward 7 unknown #
vertex $-1 $72 $171 #
ellipse-curve $-1 -43.735791501594392 33.198870817177045 8.7998424093020624 0 0.80901700255871778 0.5877852410284794 2.5 0 0 1 I I #
coedge $-1 $119 $119 $-1 $172 reversed $75 $-1 #
edge $-1 $173 0 $173 6.2831853071796004 $76 $174 forward 7 unknown #
vertex $-1 $79 $175 #
ellipse-curve $-1 -27.568351168534591 33.198870817177045 8.7998424093020624 0 0.80901700255871778 0.5877852410284794 2.5 0 0 1 I I #
face $-1 $-1 $95 $12 $-1 $176 reversed single #
loop $-1 $-1 $139 $80 #
plane-surface $-1 0 37.04779102558723 0 0 -1 0 0 0 -1 forward_v I I I I #
coedge $-1 $177 $137 $140 $178 forward $81 $-1 #
coedge $-1 $143 $83 $84 $131 reversed $51 $-1 #
coedge $-1 $137 $177 $83 $129 reversed $81 $-1 #
edge $-1 $144 -14.097426752602752 $179 14.097426752602752 $128 $180 forward 7 unknown #
coedge $-1 $85 $84 $177 $181 forward $33 $-1 #
edge $-1 $135 -69.767754142887668 $179 69.767754142887668 $127 $182 forward 7 unknown #
coedge $-1 $140 $139 $85 $133 reversed $124 $-1 #
edge $-1 $183 -69.767754142887668 $134 69.767754142887668 $132 $184 forward 7 unknown #
vertex $-1 $87 $185 #
vertex $-1 $146 $186 #
straight-curve $-1 69.767754142887668 0 -14.097426752602752 0 -1 0 I I #
coedge $-1 $126 $128 $88 $138 reversed $81 $-1 #
edge $-1 $141 -37.04779102558723 $144 37.04779102558723 $137 $187 forward 7 unknown #
coedge $-1 $132 $89 $94 $147 forward $124 $-1 #
coedge $-1 $89 $132 $126 $178 reversed $124 $-1 #
vertex $-1 $90 $188 #
straight-curve $-1 0 37.04779102558723 14.097426752602752 -1 0 0 I I #
coedge $-1 $91 $127 $93 $146 reversed $51 $-1 #
vertex $-1 $138 $189 #
straight-curve $-1 0 -37.04779102558723 14.097426752602752 1 0 0 I I #
edge $-1 $96 -14.097426752602752 $135 14.097426752602752 $93 $190 forward 7 unknown #
edge $-1 $97 -14.097426752602752 $134 14.097426752602752 $94 $191 forward 7 unknown #
point $-1 69.767754142887668 -37.04779102558723 14.097426752602752 #
point $-1 69.767754142887668 37.04779102558723 14.097426752602752 #
plane-surface $-1 0 0 14.097426752602752 0 0 1 1 0 0 forward_v I I I I #
coedge $-1 $161 $160 $153 $192 forward $100 $-1 #
coedge $-1 $153 $102 $104 $157 reversed $59 $-1 #
coedge $-1 $102 $152 $151 $192 reversed $59 $-1 #
coedge $-1 $110 $105 $102 $155 forward $111 $-1 #
edge $-1 $158 -23.841099458411797 $193 -16.143259041591421 $154 $194 forward 7 unknown #
coedge $-1 $104 $103 $161 $195 reversed $37 $-1 #
edge $-1 $196 -74.095582051174404 $158 -60.999233453936647 $152 $197 forward 7 unknown #
vertex $-1 $106 $198 #
straight-curve $-1 -17.826035667532246 29.34995060876685 14.097426752602754 1 0 0 I I #
coedge $-1 $151 $107 $110 $165 reversed $100 $-1 #
coedge $-1 $107 $151 $156 $195 forward $100 $-1 #
vertex $-1 $108 $199 #
straight-curve $-1 -54.514085056967595 37.04779102558723 72.731878064835939 0 0 1 I I #
straight-curve $-1 -54.514085056967595 -6.5044985295077851 63.446843759886036 0 0.5877852410284794 -0.80901700255871778 I I #
edge $-1 $193 16.790057613161387 $112 54.514085056967595 $160 $200 forward 7 unknown #
point $-1 -54.514085056967595 37.04779102558723 14.097426752602752 #
point $-1 -54.514085056967595 29.349950608766854 14.09742675260275 #
edge $-1 $201 1 $201 0 $115 $-1 forward 7 unknown #
vertex $-1 $116 $202 #
ellipse-curve $-1 -43.735791501594392 26.615284168039711 4.0165868619451279 0 0.80901700255871778 0.5877852410284794 2.5 0 0 1 I I #
point $-1 -41.235791501594392 33.198870817177017 8.7998424093020429 #
edge $-1 $203 1 $203 0 $119 $-1 forward 7 unknown #
vertex $-1 $120 $204 #
ellipse-curve $-1 -27.568351168534591 26.615284168039711 4.0165868619451279 0 0.80901700255871778 0.5877852410284794 2.5 0 0 1 I I #
point $-1 -25.068351168534591 33.198870817177017 8.7998424093020429 #
plane-surface $-1 69.767754142887668 0 0 -1 0 0 0 0 1 forward_v I I I I #
coedge $-1 $128 $126 $130 $181 reversed $81 $-1 #
edge $-1 $141 -14.097426752602752 $183 14.097426752602752 $140 $205 forward 7 unknown #
vertex $-1 $181 $206 #
straight-curve $-1 -69.767754142887668 -37.04779102558723 0 0 0 -1 I I #
edge $-1 $179 -37.04779102558723 $183 37.04779102558723 $177 $207 forward 7 unknown #
straight-curve $-1 0 -37.04779102558723 -14.097426752602752 -1 0 0 I I #
vertex $-1 $133 $208 #
straight-curve $-1 0 37.04779102558723 -14.097426752602752 1 0 0 I I #
point $-1 69.767754142887668 37.04779102558723 -14.097426752602752 #
point $-1 69.767754142887668 -37.04779102558723 -14.097426752602752 #
straight-curve $-1 -69.767754142887668 0 14.097426752602752 0 -1 0 I I #
point $-1 -69.767754142887668 37.04779102558723 14.097426752602752 #
point $-1 -69.767754142887668 -37.04779102558723 14.097426752602752 #
straight-curve $-1 69.767754142887668 -37.04779102558723 0 0 0 -1 I I #
straight-curve $-1 69.767754142887668 37.04779102558723 0 0 0 -1 I I #
edge $-1 $193 58.634451312233189 $196 69.229619998834551 $151 $209 forward 7 unknown #
vertex $-1 $165 $210 #
straight-curve $-1 -16.790057613161387 53.191050067178651 14.097426752602757 0 1 0 I I #
edge $-1 $196 -1.0359780543708581 $162 36.688049389435349 $161 $211 forward 7 unknown #
vertex $-1 $195 $212 #
straight-curve $-1 -16.790057613161387 -6.5044985295077851 63.446843759886036 0 -0.5877852410284794 0.80901700255871778 I I #
point $-1 -16.790057613161387 29.349950608766854 14.09742675260275 #
point $-1 -54.514085056967595 37.04779102558723 3.5022580660013887 #
straight-curve $-1 0 37.04779102558723 14.097426752602752 -1 0 0 I I #
vertex $-1 $168 $213 #
point $-1 -41.235791501594392 26.615284168039711 4.0165868619451279 #
vertex $-1 $172 $214 #
point $-1 -25.068351168534591 26.615284168039711 4.0165868619451279 #
straight-curve $-1 -69.767754142887668 37.04779102558723 0 0 0 -1 I I #
point $-1 -69.767754142887668 -37.04779102558723 -14.097426752602752 #
straight-curve $-1 -69.767754142887668 0 -14.097426752602752 0 1 0 I I #
point $-1 -69.767754142887668 37.04779102558723 -14.097426752602752 #
straight-curve $-1 -16.790057613161387 37.04779102558723 72.731878064835939 0 0 -1 I I #
point $-1 -16.790057613161387 37.04779102558723 14.097426752602752 #
straight-curve $-1 -17.826035667532246 37.04779102558723 3.5022580660013922 -1 0 0 I I #
point $-1 -16.790057613161387 37.04779102558723 3.5022580660013887 #
point $-1 -43.735791501594392 24.592741661642915 2.5471237593739291 #
point $-1 -27.568351168534591 24.592741661642915 2.5471237593739291 #
End-of-ACIS-data 