500 0 6 0           
7 Unknown 11 ACIS 5.0 NT 24 Thu Mar 25 19:27:00 1999 
-1 9.9999999999999995e-007 1e-010 
body $-1 $6 $-1 $7 #
body $-1 $8 $-1 $9 #
body $-1 $10 $-1 $11 #
body $-1 $12 $-1 $13 #
body $-1 $14 $-1 $15 #
body $-1 $16 $-1 $17 #
lump $-1 $-1 $18 $0 #
transform $-1 1 0 0 0 1 0 0 0 1 56.904812768944367 23.180805103911542 6.6956708879812377 1 rotate no_reflect no_shear #
lump $-1 $-1 $19 $1 #
transform $-1 1 0 0 0 1 0 0 0 1 56.904812768944367 23.180805103911542 6.6956708879812377 1 rotate no_reflect no_shear #
lump $-1 $-1 $20 $2 #
transform $-1 1 0 0 0 1 0 0 0 1 56.904812768944367 23.180805103911542 6.6956708879812377 1 rotate no_reflect no_shear #
lump $-1 $-1 $21 $3 #
transform $-1 1 0 0 0 1 0 0 0 1 56.904812768944367 23.180805103911542 6.6956708879812377 1 rotate no_reflect no_shear #
lump $-1 $-1 $22 $4 #
transform $-1 1 0 0 0 1 0 0 0 1 56.904812768944367 23.180805103911542 6.6956708879812377 1 rotate no_reflect no_shear #
lump $-1 $-1 $23 $5 #
transform $-1 1 0 0 0 1 0 0 0 1 56.904812768944367 23.180805103911542 6.6956708879812377 1 rotate no_reflect no_shear #
shell $-1 $-1 $-1 $24 $-1 $6 #
shell $-1 $-1 $-1 $25 $-1 $8 #
shell $-1 $-1 $-1 $26 $-1 $10 #
shell $-1 $-1 $-1 $27 $-1 $12 #
shell $-1 $-1 $-1 $28 $-1 $14 #
shell $-1 $-1 $-1 $29 $-1 $16 #
face $-1 $30 $31 $18 $-1 $32 forward single #
face $-1 $33 $34 $19 $-1 $35 forward single #
face $-1 $36 $37 $20 $-1 $38 reversed single #
face $-1 $39 $40 $21 $-1 $41 forward single #
face $-1 $42 $43 $22 $-1 $44 reversed single #
face $-1 $45 $46 $23 $-1 $47 forward single #
face $-1 $48 $49 $18 $-1 $50 reversed single #
loop $-1 $-1 $51 $24 #
plane-surface $-1 0 0 6.6956708879812377 0 0 1 1 0 0 forward_v I I I I #
face $-1 $52 $53 $19 $-1 $54 reversed single #
loop $-1 $-1 $55 $25 #
plane-surface $-1 0 -20.534538732964378 0.17614806836892782 0 0 1 1 0 0 forward_v I I I I #
face $-1 $56 $57 $20 $-1 $58 reversed single #
loop $-1 $-1 $59 $26 #
plane-surface $-1 -150.13220111377848 13.733313244988729 65.388372037893916 0 1 0 -0.81915205242281985 0 0.57357642473473569 forward_v I I I I #
face $-1 $60 $61 $21 $-1 $62 forward single #
loop $-1 $63 $64 $27 #
cone-surface $-1 -53.74852982346281 18.457059174450134 2.8071913275162577 0.81915205242281985 0 -0.57357642473473569 0.57357642473473569 0 0.81915205242281985 1 I I 0 1 1 forward I I I I #
face $-1 $65 $66 $22 $-1 $67 reversed single #
loop $-1 $-1 $68 $28 #
plane-surface $-1 -8.3737053474769283 18.457059174450134 93.337242266306745 0.81915205242281985 0 0.57357642473473569 0.57357642473473569 0 -0.81915205242281985 forward_v I I I I #
face $-1 $69 $70 $23 $-1 $71 forward single #
loop $-1 $72 $73 $29 #
cone-surface $-1 53.74852982346281 18.457059174450134 2.807191327516247 -0.81915205242281985 0 -0.57357642473473569 0.57357642473473569 0 -0.81915205242281985 1 I I 0 1 1 forward I I I I #
face $-1 $74 $75 $18 $-1 $76 reversed single #
loop $-1 $-1 $77 $30 #
plane-surface $-1 0 0 -6.6956708879812377 0 0 1 1 0 0 forward_v I I I I #
coedge $-1 $78 $79 $80 $81 forward $31 $-1 #
face $-1 $82 $83 $19 $-1 $84 reversed single #
loop $-1 $-1 $85 $33 #
plane-surface $-1 0 -20.534538732964378 -2.8238519316310722 0 0 1 1 0 0 forward_v I I I I #
coedge $-1 $86 $87 $88 $89 reversed $34 $-1 #
face $-1 $90 $91 $20 $-1 $92 forward single #
loop $-1 $-1 $93 $36 #
plane-surface $-1 -56.904812768944353 18.457059174450134 0.10985392147262019 -0.81915205242281985 0 0.57357642473473569 0.57357642473473569 0 0.81915205242281985 forward_v I I I I #
coedge $-1 $94 $95 $96 $97 reversed $37 $-1 #
face $-1 $-1 $98 $21 $-1 $99 forward single #
loop $-1 $100 $101 $39 #
cone-surface $-1 -52.488390124788012 18.457059174450134 1.924832037938212 0.81915205242281985 0 -0.57357642473473569 0.28678821236736785 0 0.40957602621140993 1 I I -0.70710678118654735 0.70710678118654768 0.5 forward I I I I #
loop $-1 $-1 $102 $27 #
coedge $-1 $64 $64 $103 $104 reversed $40 $-1 #
face $-1 $105 $106 $22 $-1 $107 reversed single #
loop $-1 $-1 $108 $42 #
plane-surface $-1 84.853682997357197 13.733313244988729 158.61576038272804 0 1 0 0.81915205242281985 0 0.57357642473473569 forward_v I I I I #
coedge $-1 $109 $110 $111 $112 reversed $43 $-1 #
face $-1 $-1 $113 $23 $-1 $114 forward single #
loop $-1 $115 $116 $45 #
cone-surface $-1 52.488390124788012 18.457059174450134 1.9248320379382013 -0.81915205242281985 0 -0.57357642473473569 0.28678821236736785 0 -0.40957602621140993 1 I I -0.70710678118654735 0.70710678118654768 0.5 forward I I I I #
loop $-1 $-1 $117 $29 #
coedge $-1 $73 $73 $118 $119 reversed $46 $-1 #
face $-1 $120 $121 $18 $-1 $122 reversed single #
loop $-1 $-1 $123 $48 #
plane-surface $-1 0 -23.180805103911542 0 0 1 0 0 0 1 forward_v I I I I #
coedge $-1 $124 $125 $126 $127 forward $49 $-1 #
coedge $-1 $128 $51 $129 $130 forward $31 $-1 #
coedge $-1 $51 $128 $131 $132 forward $31 $-1 #
coedge $-1 $133 $134 $51 $81 reversed $135 $-1 #
edge $-1 $136 -23.180805103911542 $137 23.180805103911542 $80 $138 forward 7 unknown #
face $-1 $139 $140 $19 $-1 $141 reversed single #
loop $-1 $-1 $142 $52 #
plane-surface $-1 0 -17.888272362017215 -1.3238519316310722 0 -1 0 0 0 -1 forward_v I I I I #
coedge $-1 $143 $144 $145 $146 reversed $53 $-1 #
coedge $-1 $147 $55 $148 $149 forward $34 $-1 #
coedge $-1 $55 $147 $150 $151 reversed $34 $-1 #
coedge $-1 $152 $153 $55 $89 forward $154 $-1 #
edge $-1 $155 7.6210029955350258 $156 12.913535737429353 $88 $157 forward 7 unknown #
face $-1 $158 $159 $20 $-1 $160 reversed single #
loop $-1 $-1 $96 $56 #
plane-surface $-1 0 0 6.6956708879812377 0 0 1 1 0 0 forward_v I I I I #
coedge $-1 $161 $162 $163 $164 reversed $57 $-1 #
coedge $-1 $95 $59 $165 $166 reversed $37 $-1 #
coedge $-1 $59 $94 $161 $167 reversed $37 $-1 #
coedge $-1 $163 $168 $59 $97 forward $91 $-1 #
edge $-1 $169 18.161287787944872 $170 22.772726333981232 $96 $171 forward 7 unknown #
loop $-1 $-1 $103 $60 #
plane-surface $-1 -56.904812768944353 18.457059174450134 0.10985392147262019 -0.81915205242281985 0 0.57357642473473569 0.57357642473473569 0 0.81915205242281985 forward_v I I I I #
loop $-1 $-1 $172 $39 #
coedge $-1 $101 $101 $102 $173 reversed $61 $-1 #
coedge $-1 $102 $102 $101 $173 forward $63 $-1 #
coedge $-1 $103 $103 $64 $104 forward $98 $-1 #
edge $-1 $174 0 $174 6.2831853071796004 $103 $175 forward 7 unknown #
face $-1 $176 $177 $22 $-1 $178 forward single #
loop $-1 $-1 $179 $65 #
plane-surface $-1 56.904812768944367 0 0 -1 0 0 0 0 1 forward_v I I I I #
coedge $-1 $180 $181 $182 $183 reversed $66 $-1 #
coedge $-1 $184 $68 $185 $186 reversed $43 $-1 #
coedge $-1 $68 $184 $180 $187 forward $43 $-1 #
coedge $-1 $182 $188 $68 $112 forward $177 $-1 #
edge $-1 $189 -13.952275516686472 $190 -4.504783657763662 $111 $191 forward 7 unknown #
loop $-1 $-1 $118 $69 #
plane-surface $-1 -8.3737053474769283 18.457059174450134 93.337242266306745 0.81915205242281985 0 0.57357642473473569 0.57357642473473569 0 -0.81915205242281985 forward_v I I I I #
loop $-1 $-1 $192 $45 #
coedge $-1 $116 $116 $117 $193 reversed $70 $-1 #
coedge $-1 $117 $117 $116 $193 forward $72 $-1 #
coedge $-1 $118 $118 $73 $119 forward $113 $-1 #
edge $-1 $194 0 $194 6.2831853071796004 $118 $195 forward 7 unknown #
face $-1 $196 $197 $18 $-1 $198 reversed single #
loop $-1 $-1 $199 $74 #
plane-surface $-1 -56.904812768944367 0 0 1 0 0 0 0 -1 forward_v I I I I #
coedge $-1 $200 $131 $201 $202 forward $75 $-1 #
coedge $-1 $203 $77 $200 $204 forward $49 $-1 #
coedge $-1 $77 $203 $205 $206 forward $49 $-1 #
coedge $-1 $134 $133 $77 $127 reversed $135 $-1 #
edge $-1 $207 -23.180805103911542 $208 23.180805103911542 $126 $209 forward 7 unknown #
coedge $-1 $79 $78 $210 $211 forward $31 $-1 #
coedge $-1 $212 $213 $78 $130 reversed $197 $-1 #
edge $-1 $137 -56.904812768944367 $214 56.904812768944367 $129 $215 forward 7 unknown #
coedge $-1 $123 $216 $79 $132 reversed $75 $-1 #
edge $-1 $217 -56.904812768944367 $136 56.904812768944367 $131 $218 forward 7 unknown #
coedge $-1 $126 $80 $216 $219 forward $135 $-1 #
coedge $-1 $80 $126 $212 $220 reversed $135 $-1 #
loop $-1 $-1 $133 $196 #
vertex $-1 $81 $221 #
vertex $-1 $81 $222 #
straight-curve $-1 56.904812768944367 0 6.6956708879812377 0 1 0 I I #
face $-1 $223 $224 $19 $-1 $225 reversed single #
loop $-1 $-1 $226 $82 #
plane-surface $-1 -56.904812768944367 0 0 1 0 0 0 0 -1 forward_v I I I I #
coedge $-1 $227 $148 $153 $228 reversed $83 $-1 #
coedge $-1 $229 $85 $230 $231 reversed $53 $-1 #
coedge $-1 $85 $229 $227 $232 forward $53 $-1 #
coedge $-1 $153 $152 $85 $146 forward $154 $-1 #
edge $-1 $233 -12.913535737429353 $234 -7.6210029955350258 $145 $235 forward 7 unknown #
coedge $-1 $87 $86 $226 $236 reversed $34 $-1 #
coedge $-1 $142 $237 $86 $149 reversed $83 $-1 #
edge $-1 $155 -56.904812768944367 $238 56.904812768944367 $148 $239 forward 7 unknown #
coedge $-1 $240 $241 $87 $151 forward $224 $-1 #
edge $-1 $156 -56.904812768944367 $242 56.904812768944367 $150 $243 forward 7 unknown #
coedge $-1 $145 $88 $241 $244 forward $154 $-1 #
coedge $-1 $88 $145 $142 $228 forward $154 $-1 #
loop $-1 $-1 $88 $223 #
vertex $-1 $89 $245 #
vertex $-1 $244 $246 #
straight-curve $-1 56.904812768944367 -10.267269366482189 0.17614806836892782 0 -1 0 I I #
face $-1 $-1 $247 $20 $-1 $248 reversed single #
loop $-1 $-1 $249 $90 #
plane-surface $-1 0 23.180805103911542 0 0 -1 0 0 0 -1 forward_v I I I I #
coedge $-1 $250 $93 $95 $167 forward $57 $-1 #
coedge $-1 $93 $250 $249 $251 reversed $57 $-1 #
coedge $-1 $252 $96 $93 $164 forward $91 $-1 #
edge $-1 $170 4.504783657763662 $253 13.952275516686472 $163 $254 forward 7 unknown #
coedge $-1 $255 $256 $94 $166 forward $247 $-1 #
edge $-1 $257 -32.584332097474359 $169 -25.998515130965721 $165 $258 forward 7 unknown #
edge $-1 $170 -8.0397979191160385 $257 2.4771054090857059e-014 $95 $259 forward 7 unknown #
coedge $-1 $96 $252 $255 $260 forward $91 $-1 #
vertex $-1 $166 $261 #
vertex $-1 $97 $262 #
straight-curve $-1 -75.066100556889239 13.733313244988729 6.6956708879812368 1 0 0 I I #
coedge $-1 $172 $172 $-1 $263 reversed $100 $-1 #
edge $-1 $264 0 $264 6.2831853071796004 $101 $265 forward 7 unknown #
vertex $-1 $104 $266 #
ellipse-curve $-1 -54.599093495926184 18.457059174450134 3.4027624047269258 -0.81915205242281985 0 0.57357642473473569 0.57357642473473569 0 0.81915205242281985 1 I I #
face $-1 $-1 $267 $22 $-1 $268 reversed single #
loop $-1 $-1 $182 $105 #
plane-surface $-1 0 0 6.6956708879812377 0 0 1 1 0 0 forward_v I I I I #
coedge $-1 $269 $270 $181 $271 forward $106 $-1 #
coedge $-1 $181 $108 $110 $187 reversed $66 $-1 #
coedge $-1 $108 $180 $179 $271 reversed $66 $-1 #
coedge $-1 $272 $111 $108 $183 forward $177 $-1 #
edge $-1 $190 9.8665327242294154 $273 14.477971270265769 $182 $274 forward 7 unknown #
coedge $-1 $110 $109 $269 $275 reversed $43 $-1 #
coedge $-1 $276 $277 $109 $186 forward $267 $-1 #
edge $-1 $278 -73.179448765429214 $189 -65.13965084631316 $185 $279 forward 7 unknown #
edge $-1 $280 -113.80962553788876 $190 -105.76982761877271 $180 $281 forward 7 unknown #
coedge $-1 $111 $272 $276 $282 forward $177 $-1 #
vertex $-1 $186 $283 #
vertex $-1 $112 $284 #
straight-curve $-1 52.293374222908014 9.2285295872250668 6.6956708879812368 0 -1 0 I I #
coedge $-1 $192 $192 $-1 $285 reversed $115 $-1 #
edge $-1 $286 0 $286 6.2831853071796004 $116 $287 forward 7 unknown #
vertex $-1 $119 $288 #
ellipse-curve $-1 54.599093495926191 18.457059174450134 3.40276240472692 0.81915205242281985 0 0.57357642473473569 0.57357642473473569 0 -0.81915205242281985 1 I I #
face $-1 $-1 $135 $18 $-1 $289 reversed single #
loop $-1 $-1 $212 $120 #
plane-surface $-1 0 23.180805103911542 0 0 -1 0 0 0 -1 forward_v I I I I #
coedge $-1 $290 $210 $213 $291 forward $121 $-1 #
coedge $-1 $216 $123 $124 $204 reversed $75 $-1 #
coedge $-1 $210 $290 $123 $202 reversed $121 $-1 #
edge $-1 $217 -6.6956708879812377 $292 6.6956708879812377 $201 $293 forward 7 unknown #
coedge $-1 $125 $124 $290 $294 forward $49 $-1 #
edge $-1 $208 -56.904812768944367 $292 56.904812768944367 $200 $295 forward 7 unknown #
coedge $-1 $213 $212 $125 $206 reversed $197 $-1 #
edge $-1 $296 -56.904812768944367 $207 56.904812768944367 $205 $297 forward 7 unknown #
vertex $-1 $127 $298 #
vertex $-1 $219 $299 #
straight-curve $-1 56.904812768944367 0 -6.6956708879812377 0 -1 0 I I #
coedge $-1 $199 $201 $128 $211 reversed $121 $-1 #
edge $-1 $214 -23.180805103911542 $217 23.180805103911542 $210 $300 forward 7 unknown #
coedge $-1 $205 $129 $134 $220 forward $197 $-1 #
coedge $-1 $129 $205 $199 $291 reversed $197 $-1 #
vertex $-1 $130 $301 #
straight-curve $-1 0 23.180805103911542 6.6956708879812377 -1 0 0 I I #
coedge $-1 $131 $200 $133 $219 reversed $75 $-1 #
vertex $-1 $211 $302 #
straight-curve $-1 0 -23.180805103911542 6.6956708879812377 1 0 0 I I #
edge $-1 $136 -6.6956708879812377 $208 6.6956708879812377 $133 $303 forward 7 unknown #
edge $-1 $137 -6.6956708879812377 $207 6.6956708879812377 $134 $304 forward 7 unknown #
point $-1 56.904812768944367 -23.180805103911542 6.6956708879812377 #
point $-1 56.904812768944367 23.180805103911542 6.6956708879812377 #
face $-1 $-1 $154 $19 $-1 $305 reversed single #
loop $-1 $-1 $150 $139 #
plane-surface $-1 0 -23.180805103911542 0 0 1 0 0 0 1 forward_v I I I I #
coedge $-1 $306 $307 $147 $236 forward $140 $-1 #
coedge $-1 $237 $142 $144 $232 reversed $83 $-1 #
edge $-1 $234 -2.1619259658155361 $155 0.83807403418446391 $153 $308 forward 7 unknown #
coedge $-1 $144 $143 $309 $310 reversed $53 $-1 #
coedge $-1 $241 $240 $143 $231 forward $224 $-1 #
edge $-1 $311 -56.904812768944367 $233 56.904812768944367 $230 $312 forward 7 unknown #
edge $-1 $313 -56.904812768944367 $234 56.904812768944367 $227 $314 forward 7 unknown #
vertex $-1 $231 $315 #
vertex $-1 $146 $316 #
straight-curve $-1 56.904812768944367 -10.267269366482189 -2.8238519316310722 0 1 0 I I #
edge $-1 $242 -12.913535737429353 $238 -7.6210029955350258 $226 $317 forward 7 unknown #
coedge $-1 $148 $227 $306 $318 reversed $83 $-1 #
vertex $-1 $236 $319 #
straight-curve $-1 0 -17.888272362017215 0.17614806836892782 -1 0 0 I I #
coedge $-1 $230 $150 $307 $320 forward $224 $-1 #
coedge $-1 $150 $230 $152 $244 reversed $224 $-1 #
vertex $-1 $320 $321 #
straight-curve $-1 0 -23.180805103911542 0.17614806836892782 -1 0 0 I I #
edge $-1 $156 -0.17614806836892782 $233 2.8238519316310722 $152 $322 forward 7 unknown #
point $-1 56.904812768944367 -17.888272362017215 0.17614806836892782 #
point $-1 56.904812768944367 -23.180805103911542 0.17614806836892782 #
loop $-1 $-1 $165 $158 #
plane-surface $-1 -56.904812768944367 0 0 1 0 0 0 0 -1 forward_v I I I I #
coedge $-1 $323 $324 $162 $251 forward $159 $-1 #
coedge $-1 $162 $161 $256 $325 reversed $57 $-1 #
edge $-1 $253 8.2348380773687815 $326 16.274635996484847 $249 $327 forward 7 unknown #
coedge $-1 $168 $163 $324 $328 forward $91 $-1 #
vertex $-1 $328 $329 #
straight-curve $-1 -52.293374222908014 9.2285295872250668 6.695670887981235 0 1 0 I I #
coedge $-1 $330 $165 $168 $260 reversed $247 $-1 #
coedge $-1 $165 $330 $250 $325 forward $247 $-1 #
vertex $-1 $166 $331 #
straight-curve $-1 -56.904812768944367 13.733313244988729 32.694186018946958 0 0 1 I I #
straight-curve $-1 -56.904812768944353 13.733313244988729 0.10985392147262019 -0.57357642473473569 0 -0.81915205242281985 I I #
edge $-1 $332 -23.180805103911542 $169 -13.733313244988729 $255 $333 forward 7 unknown #
point $-1 -56.904812768944367 13.733313244988729 6.6956708879812377 #
point $-1 -52.293374222908007 13.733313244988729 6.6956708879812377 #
edge $-1 $334 1 $334 0 $172 $-1 forward 7 unknown #
vertex $-1 $173 $335 #
ellipse-curve $-1 -52.897966150999423 18.457059174450134 2.2116202503055797 -0.81915205242281985 0 0.57357642473473569 0.57357642473473569 0 0.81915205242281985 1 I I #
point $-1 -54.025517071191459 18.457059174450134 4.2219144571497544 #
loop $-1 $-1 $185 $176 #
plane-surface $-1 0 23.180805103911542 0 0 -1 0 0 0 -1 forward_v I I I I #
coedge $-1 $336 $179 $184 $275 forward $106 $-1 #
coedge $-1 $179 $336 $272 $337 reversed $106 $-1 #
edge $-1 $273 72.612209303382784 $280 79.198026269891415 $179 $338 forward 7 unknown #
coedge $-1 $188 $182 $270 $337 forward $177 $-1 #
vertex $-1 $337 $339 #
straight-curve $-1 42.426841498678598 13.733313244988729 6.6956708879812368 1 0 0 I I #
edge $-1 $280 4.504783657763662 $278 13.952275516686472 $269 $340 forward 7 unknown #
coedge $-1 $277 $185 $188 $282 reversed $267 $-1 #
coedge $-1 $185 $276 $336 $341 forward $267 $-1 #
vertex $-1 $186 $342 #
straight-curve $-1 14.93080618201072 23.180805103911542 60.054949572844535 -0.57357642473473569 0 0.81915205242281985 I I #
vertex $-1 $275 $343 #
straight-curve $-1 -8.3737053474769283 13.733313244988729 93.337242266306745 -0.57357642473473569 0 0.81915205242281985 I I #
edge $-1 $344 -56.904812768944367 $189 -52.293374222908014 $276 $345 forward 7 unknown #
point $-1 52.293374222908014 23.180805103911538 6.6956708879812368 #
point $-1 52.293374222908014 13.733313244988729 6.6956708879812368 #
edge $-1 $346 1 $346 0 $192 $-1 forward 7 unknown #
vertex $-1 $193 $347 #
ellipse-curve $-1 52.897966150999423 18.457059174450134 2.2116202503055691 0.81915205242281985 0 0.57357642473473569 0.57357642473473569 0 -0.81915205242281985 1 I I #
point $-1 55.17266992066093 18.457059174450134 2.5836103523041047 #
plane-surface $-1 56.904812768944367 0 0 -1 0 0 0 0 1 forward_v I I I I #
coedge $-1 $201 $199 $203 $294 reversed $121 $-1 #
edge $-1 $214 -6.6956708879812377 $296 6.6956708879812377 $213 $348 forward 7 unknown #
vertex $-1 $294 $349 #
straight-curve $-1 -56.904812768944367 -23.180805103911542 0 0 0 -1 I I #
edge $-1 $292 -23.180805103911542 $296 23.180805103911542 $290 $350 forward 7 unknown #
straight-curve $-1 0 -23.180805103911542 -6.6956708879812377 -1 0 0 I I #
vertex $-1 $206 $351 #
straight-curve $-1 0 23.180805103911542 -6.6956708879812377 1 0 0 I I #
point $-1 56.904812768944367 23.180805103911542 -6.6956708879812377 #
point $-1 56.904812768944367 -23.180805103911542 -6.6956708879812377 #
straight-curve $-1 -56.904812768944367 0 6.6956708879812377 0 -1 0 I I #
point $-1 -56.904812768944367 23.180805103911542 6.6956708879812377 #
point $-1 -56.904812768944367 -23.180805103911542 6.6956708879812377 #
straight-curve $-1 56.904812768944367 -23.180805103911542 0 0 0 -1 I I #
straight-curve $-1 56.904812768944367 23.180805103911542 0 0 0 -1 I I #
plane-surface $-1 56.904812768944367 0 0 -1 0 0 0 0 1 forward_v I I I I #
coedge $-1 $309 $226 $237 $318 forward $140 $-1 #
coedge $-1 $226 $309 $240 $320 reversed $140 $-1 #
straight-curve $-1 56.904812768944367 -17.888272362017215 -0.66192596581553609 0 0 1 I I #
coedge $-1 $307 $306 $229 $310 forward $140 $-1 #
edge $-1 $313 7.6210029955350258 $311 12.913535737429353 $309 $352 forward 7 unknown #
vertex $-1 $231 $353 #
straight-curve $-1 0 -23.180805103911542 -2.8238519316310722 1 0 0 I I #
vertex $-1 $310 $354 #
straight-curve $-1 0 -17.888272362017215 -2.8238519316310722 1 0 0 I I #
point $-1 56.904812768944367 -23.180805103911542 -2.8238519316310722 #
point $-1 56.904812768944367 -17.888272362017215 -2.8238519316310722 #
straight-curve $-1 -56.904812768944367 -10.267269366482189 0.17614806836892782 0 1 0 I I #
edge $-1 $238 -0.83807403418446391 $313 2.1619259658155361 $306 $355 forward 7 unknown #
point $-1 -56.904812768944367 -17.888272362017215 0.17614806836892782 #
edge $-1 $242 -0.17614806836892782 $311 2.8238519316310722 $307 $356 forward 7 unknown #
point $-1 -56.904812768944367 -23.180805103911542 0.17614806836892782 #
straight-curve $-1 56.904812768944367 -23.180805103911542 0 0 0 -1 I I #
coedge $-1 $324 $249 $330 $357 reversed $159 $-1 #
coedge $-1 $249 $323 $252 $328 reversed $159 $-1 #
edge $-1 $326 -13.952275516686472 $257 -4.504783657763662 $256 $358 forward 7 unknown #
vertex $-1 $251 $359 #
straight-curve $-1 -47.570065240221361 23.180805103911542 13.441255400427465 -0.57357642473473569 0 -0.81915205242281985 I I #
edge $-1 $253 52.293374222908007 $332 56.904812768944367 $324 $360 forward 7 unknown #
point $-1 -52.293374222908007 23.180805103911538 6.6956708879812377 #
coedge $-1 $256 $255 $323 $357 forward $247 $-1 #
point $-1 -56.904812768944367 13.733313244988729 0.1098539214725999 #
vertex $-1 $328 $361 #
straight-curve $-1 -56.904812768944367 0 6.6956708879812377 0 -1 0 I I #
vertex $-1 $263 $362 #
point $-1 -52.324389726264684 18.457059174450134 3.0307723027283999 #
coedge $-1 $270 $269 $277 $341 reversed $106 $-1 #
edge $-1 $273 13.733313244988729 $344 23.180805103911542 $270 $363 forward 7 unknown #
straight-curve $-1 56.904812768944367 13.733313244988729 79.307880191364021 0 0 -1 I I #
point $-1 56.904812768944367 13.733313244988729 6.6956708879812377 #
straight-curve $-1 56.904812768944367 9.2285295872250668 0.10985392147260598 0 1 0 I I #
edge $-1 $344 -6.6956708879812377 $278 -0.10985392147260598 $336 $364 forward 7 unknown #
point $-1 56.904812768944367 23.180805103911538 0.10985392147260598 #
point $-1 56.904812768944367 13.733313244988729 0.10985392147260598 #
vertex $-1 $337 $365 #
straight-curve $-1 0 23.180805103911542 6.6956708879812377 -1 0 0 I I #
vertex $-1 $285 $366 #
point $-1 53.471542575734155 18.457059174450134 1.3924681978827493 #
straight-curve $-1 -56.904812768944367 23.180805103911542 0 0 0 -1 I I #
point $-1 -56.904812768944367 -23.180805103911542 -6.6956708879812377 #
straight-curve $-1 -56.904812768944367 0 -6.6956708879812377 0 1 0 I I #
point $-1 -56.904812768944367 23.180805103911542 -6.6956708879812377 #
straight-curve $-1 -56.904812768944367 -10.267269366482189 -2.8238519316310722 0 -1 0 I I #
point $-1 -56.904812768944367 -23.180805103911542 -2.8238519316310722 #
point $-1 -56.904812768944367 -17.888272362017215 -2.8238519316310722 #
straight-curve $-1 -56.904812768944367 -17.888272362017215 -0.66192596581553609 0 0 -1 I I #
straight-curve $-1 -56.904812768944367 -23.180805103911542 0 0 0 -1 I I #
edge $-1 $332 -6.6956708879812377 $326 -0.1098539214725999 $323 $367 forward 7 unknown #
straight-curve $-1 -56.904812768944367 9.2285295872250668 0.10985392147259623 0 -1 0 I I #
point $-1 -56.904812768944367 23.180805103911538 0.1098539214725999 #
straight-curve $-1 0 23.180805103911542 6.6956708879812377 -1 0 0 I I #
point $-1 -56.904812768944367 23.180805103911542 6.6956708879812377 #
point $-1 -52.078814098576601 18.457059174450134 1.638043825570844 #
straight-curve $-1 56.904812768944367 0 6.6956708879812377 0 1 0 I I #
straight-curve $-1 56.904812768944367 23.180805103911542 0 0 0 -1 I I #
point $-1 56.904812768944367 23.180805103911542 6.6956708879812377 #
point $-1 52.078814098576601 18.457059174450134 1.6380438255708334 #
straight-curve $-1 -56.904812768944367 23.180805103911542 0 0 0 -1 I I #
End-of-ACIS-data 