500 0 9 0           
7 Unknown 11 ACIS 5.0 NT 24 Thu Mar 25 22:08:51 1999 
-1 9.9999999999999995e-007 1e-010 
body $-1 $9 $-1 $10 #
body $-1 $11 $-1 $12 #
body $-1 $13 $-1 $14 #
body $-1 $15 $-1 $16 #
body $-1 $17 $-1 $18 #
body $-1 $19 $-1 $20 #
body $-1 $21 $-1 $22 #
body $-1 $23 $-1 $24 #
body $-1 $25 $-1 $26 #
lump $-1 $-1 $27 $0 #
transform $-1 1 0 0 0 1 0 0 0 1 77.707449568163099 39.357908987035479 17.514371596531848 1 rotate no_reflect no_shear #
lump $-1 $-1 $28 $1 #
transform $-1 1 0 0 0 1 0 0 0 1 77.707449568163099 39.357908987035479 17.514371596531848 1 rotate no_reflect no_shear #
lump $-1 $-1 $29 $2 #
transform $-1 1 0 0 0 1 0 0 0 1 77.707449568163099 39.357908987035479 17.514371596531848 1 rotate no_reflect no_shear #
lump $-1 $-1 $30 $3 #
transform $-1 1 0 0 0 1 0 0 0 1 77.707449568163099 39.357908987035479 17.514371596531848 1 rotate no_reflect no_shear #
lump $-1 $-1 $31 $4 #
transform $-1 1 0 0 0 1 0 0 0 1 77.707449568163099 39.357908987035479 17.514371596531848 1 rotate no_reflect no_shear #
lump $-1 $-1 $32 $5 #
transform $-1 1 0 0 0 1 0 0 0 1 77.707449568163099 39.357908987035479 17.514371596531848 1 rotate no_reflect no_shear #
lump $-1 $-1 $33 $6 #
transform $-1 1 0 0 0 1 0 0 0 1 77.707449568163099 39.357908987035479 17.514371596531848 1 rotate no_reflect no_shear #
lump $-1 $-1 $34 $7 #
transform $-1 1 0 0 0 1 0 0 0 1 77.707449568163099 39.357908987035479 17.514371596531848 1 rotate no_reflect no_shear #
lump $-1 $-1 $35 $8 #
transform $-1 1 0 0 0 1 0 0 0 1 77.707449568163099 39.357908987035479 17.514371596531848 1 rotate no_reflect no_shear #
shell $-1 $-1 $-1 $36 $-1 $9 #
shell $-1 $-1 $-1 $37 $-1 $11 #
shell $-1 $-1 $-1 $38 $-1 $13 #
shell $-1 $-1 $-1 $39 $-1 $15 #
shell $-1 $-1 $-1 $40 $-1 $17 #
shell $-1 $-1 $-1 $41 $-1 $19 #
shell $-1 $-1 $-1 $42 $-1 $21 #
shell $-1 $-1 $-1 $43 $-1 $23 #
shell $-1 $-1 $-1 $44 $-1 $25 #
face $-1 $45 $46 $27 $-1 $47 forward single #
face $-1 $48 $49 $28 $-1 $50 reversed single #
face $-1 $51 $52 $29 $-1 $53 forward single #
face $-1 $54 $55 $30 $-1 $56 reversed single #
face $-1 $57 $58 $31 $-1 $59 forward single #
face $-1 $60 $61 $32 $-1 $62 reversed single #
face $-1 $63 $64 $33 $-1 $65 forward single #
face $-1 $66 $67 $34 $-1 $68 reversed single #
face $-1 $69 $70 $35 $-1 $71 forward single #
face $-1 $72 $73 $27 $-1 $74 reversed single #
loop $-1 $-1 $75 $36 #
plane-surface $-1 0 0 17.514371596531848 0 0 1 1 0 0 forward_v I I I I #
face $-1 $76 $77 $28 $-1 $78 reversed single #
loop $-1 $-1 $79 $37 #
plane-surface $-1 -54.18628417899243 102.18252608225049 168.30968662603161 -1 0 0 0 0.74314483375859142 0.66913059716165679 forward_v I I I I #
face $-1 $80 $81 $29 $-1 $82 forward single #
loop $-1 $83 $84 $38 #
cone-surface $-1 -65.946866873577761 31.868803195406404 9.6643977800451424 0 -0.74314483375859142 -0.66913059716165679 2 0 0 1 I I 0 1 2 forward I I I I #
face $-1 $85 $86 $30 $-1 $87 reversed single #
loop $-1 $-1 $88 $39 #
plane-surface $-1 -15.332559394910886 102.18252608225049 168.30968662603161 -1 0 0 0 0.74314483375859142 0.66913059716165679 forward_v I I I I #
face $-1 $89 $90 $31 $-1 $91 forward single #
loop $-1 $92 $93 $40 #
cone-surface $-1 -27.093142089496219 31.868803195406404 9.6643977800451424 0 -0.74314483375859142 -0.66913059716165679 2 0 0 1 I I 0 1 2 forward I I I I #
face $-1 $94 $95 $32 $-1 $96 reversed single #
loop $-1 $-1 $97 $41 #
plane-surface $-1 23.521165389170669 102.18252608225049 168.30968662603161 -1 0 0 0 0.74314483375859142 0.66913059716165679 forward_v I I I I #
face $-1 $98 $99 $33 $-1 $100 forward single #
loop $-1 $101 $102 $42 #
cone-surface $-1 11.760582694585338 31.868803195406404 9.6643977800451424 0 -0.74314483375859142 -0.66913059716165679 2 0 0 1 I I 0 1 2 forward I I I I #
face $-1 $103 $104 $34 $-1 $105 reversed single #
loop $-1 $-1 $106 $43 #
plane-surface $-1 62.374890173252219 102.18252608225049 168.30968662603161 -1 0 0 0 0.74314483375859142 0.66913059716165679 forward_v I I I I #
face $-1 $107 $108 $35 $-1 $109 forward single #
loop $-1 $110 $111 $44 #
cone-surface $-1 50.614307478666888 31.868803195406404 9.6643977800451424 0 -0.74314483375859142 -0.66913059716165679 2 0 0 1 I I 0 1 2 forward I I I I #
face $-1 $112 $113 $27 $-1 $114 reversed single #
loop $-1 $-1 $115 $45 #
plane-surface $-1 0 0 -17.514371596531848 0 0 1 1 0 0 forward_v I I I I #
coedge $-1 $116 $117 $118 $119 forward $46 $-1 #
face $-1 $120 $121 $28 $-1 $122 reversed single #
loop $-1 $-1 $123 $48 #
plane-surface $-1 -65.946866873577761 -13.313253300022893 64.316822359122995 0 0.74314483375859142 0.66913059716165679 1 0 0 forward_v I I I I #
coedge $-1 $124 $125 $126 $127 reversed $49 $-1 #
face $-1 $-1 $128 $29 $-1 $129 forward single #
loop $-1 $130 $131 $51 #
cone-surface $-1 -65.946866873577761 28.901576263117697 6.9926947163574731 0 -0.74314483375859142 -0.66913059716165679 1 0 0 1 I I -0.70710678118654746 0.70710678118654746 1 forward I I I I #
loop $-1 $-1 $132 $38 #
coedge $-1 $84 $84 $133 $134 reversed $52 $-1 #
face $-1 $135 $136 $30 $-1 $137 reversed single #
loop $-1 $-1 $138 $54 #
plane-surface $-1 -27.093142089496219 -13.313253300022893 64.316822359122995 0 0.74314483375859142 0.66913059716165679 1 0 0 forward_v I I I I #
coedge $-1 $139 $140 $141 $142 reversed $55 $-1 #
face $-1 $-1 $143 $31 $-1 $144 forward single #
loop $-1 $145 $146 $57 #
cone-surface $-1 -27.093142089496219 28.901576263117697 6.9926947163574731 0 -0.74314483375859142 -0.66913059716165679 1 0 0 1 I I -0.70710678118654746 0.70710678118654746 1 forward I I I I #
loop $-1 $-1 $147 $40 #
coedge $-1 $93 $93 $148 $149 reversed $58 $-1 #
face $-1 $150 $151 $32 $-1 $152 reversed single #
loop $-1 $-1 $153 $60 #
plane-surface $-1 11.760582694585338 -13.313253300022893 64.316822359122995 0 0.74314483375859142 0.66913059716165679 1 0 0 forward_v I I I I #
coedge $-1 $154 $155 $156 $157 reversed $61 $-1 #
face $-1 $-1 $158 $33 $-1 $159 forward single #
loop $-1 $160 $161 $63 #
cone-surface $-1 11.760582694585338 28.901576263117697 6.9926947163574731 0 -0.74314483375859142 -0.66913059716165679 1 0 0 1 I I -0.70710678118654746 0.70710678118654746 1 forward I I I I #
loop $-1 $-1 $162 $42 #
coedge $-1 $102 $102 $163 $164 reversed $64 $-1 #
face $-1 $165 $166 $34 $-1 $167 reversed single #
loop $-1 $-1 $168 $66 #
plane-surface $-1 50.614307478666888 -13.313253300022893 64.316822359122995 0 0.74314483375859142 0.66913059716165679 1 0 0 forward_v I I I I #
coedge $-1 $169 $170 $171 $172 reversed $67 $-1 #
face $-1 $-1 $173 $35 $-1 $174 forward single #
loop $-1 $175 $176 $69 #
cone-surface $-1 50.614307478666888 28.901576263117697 6.9926947163574731 0 -0.74314483375859142 -0.66913059716165679 1 0 0 1 I I -0.70710678118654746 0.70710678118654746 1 forward I I I I #
loop $-1 $-1 $177 $44 #
coedge $-1 $111 $111 $178 $179 reversed $70 $-1 #
face $-1 $180 $181 $27 $-1 $182 reversed single #
loop $-1 $-1 $183 $72 #
plane-surface $-1 0 -39.357908987035479 0 0 1 0 0 0 1 forward_v I I I I #
coedge $-1 $184 $185 $186 $187 forward $73 $-1 #
coedge $-1 $188 $75 $189 $190 forward $46 $-1 #
coedge $-1 $75 $188 $191 $192 forward $46 $-1 #
coedge $-1 $193 $194 $75 $119 reversed $195 $-1 #
edge $-1 $196 -39.357908987035479 $197 39.357908987035479 $118 $198 forward 7 unknown #
face $-1 $199 $200 $28 $-1 $201 forward single #
loop $-1 $-1 $126 $76 #
plane-surface $-1 0 39.357908987035479 0 0 -1 0 0 0 -1 forward_v I I I I #
coedge $-1 $202 $203 $204 $205 reversed $77 $-1 #
coedge $-1 $125 $79 $206 $207 reversed $49 $-1 #
coedge $-1 $79 $124 $202 $208 reversed $49 $-1 #
coedge $-1 $204 $209 $79 $127 forward $121 $-1 #
edge $-1 $210 66.640471716483958 $211 78.335274416405298 $126 $212 forward 7 unknown #
loop $-1 $-1 $133 $80 #
plane-surface $-1 -65.946866873577761 -13.313253300022893 64.316822359122995 0 0.74314483375859142 0.66913059716165679 1 0 0 forward_v I I I I #
loop $-1 $-1 $213 $51 #
coedge $-1 $131 $131 $132 $214 reversed $81 $-1 #
coedge $-1 $132 $132 $131 $214 forward $83 $-1 #
coedge $-1 $133 $133 $84 $134 forward $128 $-1 #
edge $-1 $215 -1.341424224882051e-016 $215 6.2831853071796004 $133 $216 forward 7 unknown #
face $-1 $217 $218 $30 $-1 $219 forward single #
loop $-1 $-1 $220 $85 #
plane-surface $-1 -38.85372478408155 102.18252608225049 168.30968662603161 1 0 0 0 -0.74314483375859142 -0.66913059716165679 forward_v I I I I #
coedge $-1 $221 $222 $223 $224 reversed $86 $-1 #
coedge $-1 $140 $88 $225 $226 reversed $55 $-1 #
coedge $-1 $88 $139 $221 $227 reversed $55 $-1 #
coedge $-1 $223 $228 $88 $142 forward $229 $-1 #
edge $-1 $230 66.640471716483958 $231 78.335274416405298 $141 $232 forward 7 unknown #
loop $-1 $-1 $148 $89 #
plane-surface $-1 -27.093142089496219 -13.313253300022893 64.316822359122995 0 0.74314483375859142 0.66913059716165679 1 0 0 forward_v I I I I #
loop $-1 $-1 $233 $57 #
coedge $-1 $146 $146 $147 $234 reversed $90 $-1 #
coedge $-1 $147 $147 $146 $234 forward $92 $-1 #
coedge $-1 $148 $148 $93 $149 forward $143 $-1 #
edge $-1 $235 -1.341424224882051e-016 $235 6.2831853071796004 $148 $236 forward 7 unknown #
face $-1 $237 $238 $32 $-1 $239 forward single #
loop $-1 $-1 $240 $94 #
plane-surface $-1 5.3290705182007514e-015 102.18252608225049 168.30968662603161 1 0 0 0 -0.74314483375859142 -0.66913059716165679 forward_v I I I I #
coedge $-1 $241 $242 $243 $244 reversed $95 $-1 #
coedge $-1 $155 $97 $245 $246 reversed $61 $-1 #
coedge $-1 $97 $154 $241 $247 reversed $61 $-1 #
coedge $-1 $243 $248 $97 $157 forward $249 $-1 #
edge $-1 $250 66.640471716483958 $251 78.335274416405298 $156 $252 forward 7 unknown #
loop $-1 $-1 $163 $98 #
plane-surface $-1 11.760582694585338 -13.313253300022893 64.316822359122995 0 0.74314483375859142 0.66913059716165679 1 0 0 forward_v I I I I #
loop $-1 $-1 $253 $63 #
coedge $-1 $161 $161 $162 $254 reversed $99 $-1 #
coedge $-1 $162 $162 $161 $254 forward $101 $-1 #
coedge $-1 $163 $163 $102 $164 forward $158 $-1 #
edge $-1 $255 -1.341424224882051e-016 $255 6.2831853071796004 $163 $256 forward 7 unknown #
face $-1 $257 $258 $34 $-1 $259 forward single #
loop $-1 $-1 $260 $103 #
plane-surface $-1 38.853724784081557 102.18252608225049 168.30968662603161 1 0 0 0 -0.74314483375859142 -0.66913059716165679 forward_v I I I I #
coedge $-1 $261 $262 $263 $264 reversed $104 $-1 #
coedge $-1 $170 $106 $265 $266 reversed $67 $-1 #
coedge $-1 $106 $169 $261 $267 reversed $67 $-1 #
coedge $-1 $263 $268 $106 $172 forward $269 $-1 #
edge $-1 $270 66.640471716483958 $271 78.335274416405298 $171 $272 forward 7 unknown #
loop $-1 $-1 $178 $107 #
plane-surface $-1 50.614307478666888 -13.313253300022893 64.316822359122995 0 0.74314483375859142 0.66913059716165679 1 0 0 forward_v I I I I #
loop $-1 $-1 $273 $69 #
coedge $-1 $176 $176 $177 $274 reversed $108 $-1 #
coedge $-1 $177 $177 $176 $274 forward $110 $-1 #
coedge $-1 $178 $178 $111 $179 forward $173 $-1 #
edge $-1 $275 -1.341424224882051e-016 $275 6.2831853071796004 $178 $276 forward 7 unknown #
face $-1 $277 $278 $27 $-1 $279 reversed single #
loop $-1 $-1 $280 $112 #
plane-surface $-1 -77.707449568163099 0 0 1 0 0 0 0 -1 forward_v I I I I #
coedge $-1 $281 $191 $282 $283 forward $113 $-1 #
coedge $-1 $284 $115 $281 $285 forward $73 $-1 #
coedge $-1 $115 $284 $286 $287 forward $73 $-1 #
coedge $-1 $194 $193 $115 $187 reversed $195 $-1 #
edge $-1 $288 -39.357908987035479 $289 39.357908987035479 $186 $290 forward 7 unknown #
coedge $-1 $117 $116 $291 $292 forward $46 $-1 #
coedge $-1 $293 $294 $116 $190 reversed $278 $-1 #
edge $-1 $197 -77.707449568163099 $295 77.707449568163099 $189 $296 forward 7 unknown #
coedge $-1 $183 $297 $117 $192 reversed $113 $-1 #
edge $-1 $298 -77.707449568163099 $196 77.707449568163099 $191 $299 forward 7 unknown #
coedge $-1 $186 $118 $297 $300 forward $195 $-1 #
coedge $-1 $118 $186 $293 $301 reversed $195 $-1 #
loop $-1 $-1 $193 $277 #
vertex $-1 $119 $302 #
vertex $-1 $119 $303 #
straight-curve $-1 77.707449568163099 0 17.514371596531848 0 1 0 I I #
face $-1 $-1 $304 $28 $-1 $305 reversed single #
loop $-1 $-1 $206 $120 #
plane-surface $-1 0 0 17.514371596531848 0 0 1 1 0 0 forward_v I I I I #
coedge $-1 $306 $123 $125 $208 forward $77 $-1 #
coedge $-1 $123 $306 $307 $308 reversed $77 $-1 #
coedge $-1 $309 $126 $123 $205 forward $121 $-1 #
edge $-1 $211 21.21285074220355 $310 44.734016131374219 $204 $311 forward 7 unknown #
coedge $-1 $312 $313 $124 $207 forward $200 $-1 #
edge $-1 $314 -22.263401440287666 $210 -11.733354054089766 $206 $315 forward 7 unknown #
edge $-1 $211 -78.715817974070944 $314 -62.978908870131221 $125 $316 forward 7 unknown #
coedge $-1 $126 $309 $312 $317 reversed $121 $-1 #
vertex $-1 $317 $318 #
vertex $-1 $127 $319 #
straight-curve $-1 -54.18628417899243 39.357908987035479 84.154843313015803 0 0 -1 I I #
coedge $-1 $213 $213 $-1 $320 reversed $130 $-1 #
edge $-1 $321 0 $321 6.2831853071796004 $131 $322 forward 7 unknown #
vertex $-1 $134 $323 #
ellipse-curve $-1 -65.946866873577761 34.092885293936533 11.66697024657117 0 0.74314483375859142 0.66913059716165679 2 0 0 1 I I #
face $-1 $-1 $229 $30 $-1 $324 reversed single #
loop $-1 $-1 $325 $135 #
plane-surface $-1 0 0 17.514371596531848 0 0 1 1 0 0 forward_v I I I I #
coedge $-1 $326 $327 $328 $329 reversed $136 $-1 #
coedge $-1 $330 $138 $140 $227 forward $86 $-1 #
coedge $-1 $138 $330 $326 $331 forward $86 $-1 #
coedge $-1 $328 $141 $138 $224 forward $229 $-1 #
edge $-1 $231 1.7859883501627767 $332 25.30715373933344 $223 $333 forward 7 unknown #
coedge $-1 $334 $335 $139 $226 forward $218 $-1 #
edge $-1 $336 -22.263401440287666 $230 -11.733354054089766 $225 $337 forward 7 unknown #
edge $-1 $231 -78.715817974070944 $336 -62.978908870131221 $140 $338 forward 7 unknown #
coedge $-1 $141 $328 $334 $339 reversed $229 $-1 #
loop $-1 $-1 $328 $217 #
vertex $-1 $339 $340 #
vertex $-1 $142 $341 #
straight-curve $-1 -15.332559394910886 39.357908987035479 84.154843313015803 0 0 -1 I I #
coedge $-1 $233 $233 $-1 $342 reversed $145 $-1 #
edge $-1 $343 0 $343 6.2831853071796004 $146 $344 forward 7 unknown #
vertex $-1 $149 $345 #
ellipse-curve $-1 -27.093142089496219 34.092885293936533 11.66697024657117 0 0.74314483375859142 0.66913059716165679 2 0 0 1 I I #
face $-1 $-1 $249 $32 $-1 $346 reversed single #
loop $-1 $-1 $347 $150 #
plane-surface $-1 0 0 17.514371596531848 0 0 1 1 0 0 forward_v I I I I #
coedge $-1 $348 $349 $350 $351 reversed $151 $-1 #
coedge $-1 $352 $153 $155 $247 forward $95 $-1 #
coedge $-1 $153 $352 $348 $353 forward $95 $-1 #
coedge $-1 $350 $156 $153 $244 forward $249 $-1 #
edge $-1 $251 -17.640874041878 $354 5.8802913472926637 $243 $355 forward 7 unknown #
coedge $-1 $356 $357 $154 $246 forward $238 $-1 #
edge $-1 $358 -22.263401440287666 $250 -11.733354054089766 $245 $359 forward 7 unknown #
edge $-1 $251 -78.715817974070944 $358 -62.978908870131221 $155 $360 forward 7 unknown #
coedge $-1 $156 $350 $356 $361 reversed $249 $-1 #
loop $-1 $-1 $350 $237 #
vertex $-1 $361 $362 #
vertex $-1 $157 $363 #
straight-curve $-1 23.521165389170669 39.357908987035479 84.154843313015803 0 0 -1 I I #
coedge $-1 $253 $253 $-1 $364 reversed $160 $-1 #
edge $-1 $365 0 $365 6.2831853071796004 $161 $366 forward 7 unknown #
vertex $-1 $164 $367 #
ellipse-curve $-1 11.760582694585338 34.092885293936533 11.66697024657117 0 0.74314483375859142 0.66913059716165679 2 0 0 1 I I #
face $-1 $-1 $269 $34 $-1 $368 reversed single #
loop $-1 $-1 $369 $165 #
plane-surface $-1 0 0 17.514371596531848 0 0 1 1 0 0 forward_v I I I I #
coedge $-1 $370 $371 $372 $373 reversed $166 $-1 #
coedge $-1 $374 $168 $170 $267 forward $104 $-1 #
coedge $-1 $168 $374 $370 $375 forward $104 $-1 #
coedge $-1 $372 $171 $168 $264 forward $269 $-1 #
edge $-1 $271 -37.067736433918775 $376 -13.546571044748113 $263 $377 forward 7 unknown #
coedge $-1 $378 $379 $169 $266 forward $258 $-1 #
edge $-1 $380 -22.263401440287666 $270 -11.733354054089766 $265 $381 forward 7 unknown #
edge $-1 $271 -78.715817974070944 $380 -62.978908870131221 $170 $382 forward 7 unknown #
coedge $-1 $171 $372 $378 $383 reversed $269 $-1 #
loop $-1 $-1 $372 $257 #
vertex $-1 $383 $384 #
vertex $-1 $172 $385 #
straight-curve $-1 62.374890173252219 39.357908987035479 84.154843313015803 0 0 -1 I I #
coedge $-1 $273 $273 $-1 $386 reversed $175 $-1 #
edge $-1 $387 0 $387 6.2831853071796004 $176 $388 forward 7 unknown #
vertex $-1 $179 $389 #
ellipse-curve $-1 50.614307478666888 34.092885293936533 11.66697024657117 0 0.74314483375859142 0.66913059716165679 2 0 0 1 I I #
face $-1 $-1 $195 $27 $-1 $390 reversed single #
loop $-1 $-1 $293 $180 #
plane-surface $-1 0 39.357908987035479 0 0 -1 0 0 0 -1 forward_v I I I I #
coedge $-1 $391 $291 $294 $392 forward $181 $-1 #
coedge $-1 $297 $183 $184 $285 reversed $113 $-1 #
coedge $-1 $291 $391 $183 $283 reversed $181 $-1 #
edge $-1 $298 -17.514371596531848 $393 17.514371596531848 $282 $394 forward 7 unknown #
coedge $-1 $185 $184 $391 $395 forward $73 $-1 #
edge $-1 $289 -77.707449568163099 $393 77.707449568163099 $281 $396 forward 7 unknown #
coedge $-1 $294 $293 $185 $287 reversed $278 $-1 #
edge $-1 $397 -77.707449568163099 $288 77.707449568163099 $286 $398 forward 7 unknown #
vertex $-1 $187 $399 #
vertex $-1 $300 $400 #
straight-curve $-1 77.707449568163099 0 -17.514371596531848 0 -1 0 I I #
coedge $-1 $280 $282 $188 $292 reversed $181 $-1 #
edge $-1 $295 -39.357908987035479 $298 39.357908987035479 $291 $401 forward 7 unknown #
coedge $-1 $286 $189 $194 $301 forward $278 $-1 #
coedge $-1 $189 $286 $280 $392 reversed $278 $-1 #
vertex $-1 $190 $402 #
straight-curve $-1 0 39.357908987035479 17.514371596531848 -1 0 0 I I #
coedge $-1 $191 $281 $193 $300 reversed $113 $-1 #
vertex $-1 $292 $403 #
straight-curve $-1 0 -39.357908987035479 17.514371596531848 1 0 0 I I #
edge $-1 $196 -17.514371596531848 $289 17.514371596531848 $193 $404 forward 7 unknown #
edge $-1 $197 -17.514371596531848 $288 17.514371596531848 $194 $405 forward 7 unknown #
point $-1 77.707449568163099 -39.357908987035479 17.514371596531848 #
point $-1 77.707449568163099 39.357908987035479 17.514371596531848 #
loop $-1 $-1 $307 $199 #
plane-surface $-1 -77.707449568163099 0 0 1 0 0 0 0 -1 forward_v I I I I #
coedge $-1 $203 $202 $313 $406 reversed $77 $-1 #
coedge $-1 $407 $408 $203 $308 forward $304 $-1 #
edge $-1 $310 -50.363308278690923 $409 -34.626399174751214 $307 $410 forward 7 unknown #
coedge $-1 $209 $204 $408 $411 reversed $121 $-1 #
vertex $-1 $205 $412 #
straight-curve $-1 -32.973433436788881 39.357908987035486 5.8195688966104946 -1 0 0 I I #
coedge $-1 $413 $206 $209 $317 forward $200 $-1 #
coedge $-1 $206 $413 $306 $406 forward $200 $-1 #
vertex $-1 $207 $414 #
straight-curve $-1 -54.18628417899243 51.091263041125245 17.514371596531845 0 1 0 I I #
straight-curve $-1 -54.18628417899243 -13.313253300022893 64.316822359122995 0 -0.66913059716165679 0.74314483375859142 I I #
edge $-1 $210 54.18628417899243 $415 77.707449568163099 $209 $416 forward 7 unknown #
point $-1 -54.18628417899243 39.357908987035479 17.514371596531848 #
point $-1 -54.18628417899243 39.357908987035472 5.8195688966104981 #
edge $-1 $417 1 $417 0 $213 $-1 forward 7 unknown #
vertex $-1 $214 $418 #
ellipse-curve $-1 -65.946866873577761 29.644721096876289 7.6618253135191301 0 0.74314483375859142 0.66913059716165679 2 0 0 1 I I #
point $-1 -63.946866873577761 34.092885293936519 11.666970246571157 #
plane-surface $-1 0 39.357908987035479 0 0 -1 0 0 0 -1 forward_v I I I I #
coedge $-1 $335 $334 $327 $419 forward $218 $-1 #
coedge $-1 $327 $220 $222 $331 reversed $136 $-1 #
coedge $-1 $220 $326 $325 $419 reversed $136 $-1 #
coedge $-1 $228 $223 $220 $329 forward $229 $-1 #
edge $-1 $332 -78.335274416405298 $420 -66.640471716483958 $328 $421 forward 7 unknown #
coedge $-1 $222 $221 $335 $422 reversed $86 $-1 #
edge $-1 $423 62.978908870131221 $332 78.715817974070944 $326 $424 forward 7 unknown #
vertex $-1 $224 $425 #
straight-curve $-1 -13.546571044748109 39.357908987035486 5.8195688966104946 -1 0 0 I I #
coedge $-1 $325 $225 $228 $339 forward $218 $-1 #
coedge $-1 $225 $325 $330 $422 forward $218 $-1 #
vertex $-1 $226 $426 #
straight-curve $-1 -15.332559394910886 51.091263041125245 17.514371596531845 0 1 0 I I #
straight-curve $-1 -15.332559394910886 -13.313253300022893 64.316822359122995 0 -0.66913059716165679 0.74314483375859142 I I #
edge $-1 $230 15.332559394910886 $420 38.85372478408155 $228 $427 forward 7 unknown #
point $-1 -15.332559394910886 39.357908987035479 17.514371596531848 #
point $-1 -15.332559394910886 39.357908987035472 5.8195688966104981 #
edge $-1 $428 1 $428 0 $233 $-1 forward 7 unknown #
vertex $-1 $234 $429 #
ellipse-curve $-1 -27.093142089496219 29.644721096876289 7.6618253135191301 0 0.74314483375859142 0.66913059716165679 2 0 0 1 I I #
point $-1 -25.093142089496219 34.092885293936519 11.666970246571157 #
plane-surface $-1 0 39.357908987035479 0 0 -1 0 0 0 -1 forward_v I I I I #
coedge $-1 $357 $356 $349 $430 forward $238 $-1 #
coedge $-1 $349 $240 $242 $353 reversed $151 $-1 #
coedge $-1 $240 $348 $347 $430 reversed $151 $-1 #
coedge $-1 $248 $243 $240 $351 forward $249 $-1 #
edge $-1 $354 -78.335274416405298 $431 -66.640471716483958 $350 $432 forward 7 unknown #
coedge $-1 $242 $241 $357 $433 reversed $95 $-1 #
edge $-1 $434 62.978908870131221 $354 78.715817974070944 $348 $435 forward 7 unknown #
vertex $-1 $244 $436 #
straight-curve $-1 5.880291347292669 39.357908987035486 5.8195688966104946 -1 0 0 I I #
coedge $-1 $347 $245 $248 $361 forward $238 $-1 #
coedge $-1 $245 $347 $352 $433 forward $238 $-1 #
vertex $-1 $246 $437 #
straight-curve $-1 23.521165389170669 51.091263041125245 17.514371596531845 0 1 0 I I #
straight-curve $-1 23.521165389170669 -13.313253300022893 64.316822359122995 0 -0.66913059716165679 0.74314483375859142 I I #
edge $-1 $250 -23.521165389170669 $431 -5.3290705182007514e-015 $248 $438 forward 7 unknown #
point $-1 23.521165389170669 39.357908987035479 17.514371596531848 #
point $-1 23.521165389170669 39.357908987035472 5.8195688966104981 #
edge $-1 $439 1 $439 0 $253 $-1 forward 7 unknown #
vertex $-1 $254 $440 #
ellipse-curve $-1 11.760582694585338 29.644721096876289 7.6618253135191301 0 0.74314483375859142 0.66913059716165679 2 0 0 1 I I #
point $-1 13.760582694585338 34.092885293936519 11.666970246571157 #
plane-surface $-1 0 39.357908987035479 0 0 -1 0 0 0 -1 forward_v I I I I #
coedge $-1 $379 $378 $371 $441 forward $258 $-1 #
coedge $-1 $371 $260 $262 $375 reversed $166 $-1 #
coedge $-1 $260 $370 $369 $441 reversed $166 $-1 #
coedge $-1 $268 $263 $260 $373 forward $269 $-1 #
edge $-1 $376 -78.335274416405298 $442 -66.640471716483958 $372 $443 forward 7 unknown #
coedge $-1 $262 $261 $379 $444 reversed $104 $-1 #
edge $-1 $445 62.978908870131221 $376 78.715817974070944 $370 $446 forward 7 unknown #
vertex $-1 $264 $447 #
straight-curve $-1 25.307153739333444 39.357908987035486 5.8195688966104946 -1 0 0 I I #
coedge $-1 $369 $265 $268 $383 forward $258 $-1 #
coedge $-1 $265 $369 $374 $444 forward $258 $-1 #
vertex $-1 $266 $448 #
straight-curve $-1 62.374890173252219 51.091263041125245 17.514371596531845 0 1 0 I I #
straight-curve $-1 62.374890173252219 -13.313253300022893 64.316822359122995 0 -0.66913059716165679 0.74314483375859142 I I #
edge $-1 $270 -62.374890173252219 $442 -38.853724784081557 $268 $449 forward 7 unknown #
point $-1 62.374890173252219 39.357908987035479 17.514371596531848 #
point $-1 62.374890173252219 39.357908987035472 5.8195688966104981 #
edge $-1 $450 1 $450 0 $273 $-1 forward 7 unknown #
vertex $-1 $274 $451 #
ellipse-curve $-1 50.614307478666888 29.644721096876289 7.6618253135191301 0 0.74314483375859142 0.66913059716165679 2 0 0 1 I I #
point $-1 52.614307478666888 34.092885293936519 11.666970246571157 #
plane-surface $-1 77.707449568163099 0 0 -1 0 0 0 0 1 forward_v I I I I #
coedge $-1 $282 $280 $284 $395 reversed $181 $-1 #
edge $-1 $295 -17.514371596531848 $397 17.514371596531848 $294 $452 forward 7 unknown #
vertex $-1 $395 $453 #
straight-curve $-1 -77.707449568163099 -39.357908987035479 0 0 0 -1 I I #
edge $-1 $393 -39.357908987035479 $397 39.357908987035479 $391 $454 forward 7 unknown #
straight-curve $-1 0 -39.357908987035479 -17.514371596531848 -1 0 0 I I #
vertex $-1 $287 $455 #
straight-curve $-1 0 39.357908987035479 -17.514371596531848 1 0 0 I I #
point $-1 77.707449568163099 39.357908987035479 -17.514371596531848 #
point $-1 77.707449568163099 -39.357908987035479 -17.514371596531848 #
straight-curve $-1 -77.707449568163099 0 17.514371596531848 0 -1 0 I I #
point $-1 -77.707449568163099 39.357908987035479 17.514371596531848 #
point $-1 -77.707449568163099 -39.357908987035479 17.514371596531848 #
straight-curve $-1 77.707449568163099 -39.357908987035479 0 0 0 -1 I I #
straight-curve $-1 77.707449568163099 39.357908987035479 0 0 0 -1 I I #
edge $-1 $409 -44.734016131374219 $314 -21.21285074220355 $313 $456 forward 7 unknown #
coedge $-1 $408 $307 $413 $457 reversed $304 $-1 #
coedge $-1 $307 $407 $309 $411 forward $304 $-1 #
vertex $-1 $308 $458 #
straight-curve $-1 -77.707449568163099 5.6582784434784017 43.246801254910963 0 -0.66913059716165679 0.74314483375859142 I I #
edge $-1 $415 -17.514371596531848 $310 -5.8195688966104981 $309 $459 forward 7 unknown #
point $-1 -77.707449568163099 39.357908987035479 5.8195688966104981 #
coedge $-1 $313 $312 $407 $457 forward $200 $-1 #
point $-1 -54.18628417899243 28.827861600837579 17.514371596531845 #
vertex $-1 $317 $460 #
straight-curve $-1 0 39.357908987035479 17.514371596531848 -1 0 0 I I #
vertex $-1 $320 $461 #
point $-1 -63.946866873577761 29.644721096876289 7.6618253135191301 #
edge $-1 $420 11.733354054089766 $423 22.263401440287666 $325 $462 forward 7 unknown #
vertex $-1 $419 $463 #
straight-curve $-1 -38.85372478408155 39.357908987035479 84.154843313015803 0 0 1 I I #
edge $-1 $423 -25.30715373933344 $336 -1.7859883501627767 $335 $464 forward 7 unknown #
vertex $-1 $422 $465 #
straight-curve $-1 -38.85372478408155 -13.313253300022893 64.316822359122995 0 0.66913059716165679 -0.74314483375859142 I I #
point $-1 -38.85372478408155 39.357908987035472 5.8195688966104981 #
point $-1 -15.332559394910886 28.827861600837579 17.514371596531845 #
straight-curve $-1 0 39.357908987035479 17.514371596531848 -1 0 0 I I #
vertex $-1 $342 $466 #
point $-1 -25.093142089496219 29.644721096876289 7.6618253135191301 #
edge $-1 $431 11.733354054089766 $434 22.263401440287666 $347 $467 forward 7 unknown #
vertex $-1 $351 $468 #
straight-curve $-1 5.3290705182007514e-015 39.357908987035479 84.154843313015803 0 0 1 I I #
edge $-1 $434 -5.8802913472926637 $358 17.640874041878 $357 $469 forward 7 unknown #
vertex $-1 $433 $470 #
straight-curve $-1 5.3290705182007514e-015 -13.313253300022893 64.316822359122995 0 0.66913059716165679 -0.74314483375859142 I I #
point $-1 5.3290705182007514e-015 39.357908987035472 5.8195688966104981 #
point $-1 23.521165389170669 28.827861600837579 17.514371596531845 #
straight-curve $-1 0 39.357908987035479 17.514371596531848 -1 0 0 I I #
vertex $-1 $364 $471 #
point $-1 13.760582694585338 29.644721096876289 7.6618253135191301 #
edge $-1 $442 11.733354054089766 $445 22.263401440287666 $369 $472 forward 7 unknown #
vertex $-1 $373 $473 #
straight-curve $-1 38.853724784081557 39.357908987035479 84.154843313015803 0 0 1 I I #
edge $-1 $445 13.546571044748113 $380 37.067736433918775 $379 $474 forward 7 unknown #
vertex $-1 $444 $475 #
straight-curve $-1 38.853724784081557 -13.313253300022893 64.316822359122995 0 0.66913059716165679 -0.74314483375859142 I I #
point $-1 38.853724784081557 39.357908987035472 5.8195688966104981 #
point $-1 62.374890173252219 28.827861600837579 17.514371596531845 #
straight-curve $-1 0 39.357908987035479 17.514371596531848 -1 0 0 I I #
vertex $-1 $386 $476 #
point $-1 52.614307478666888 29.644721096876289 7.6618253135191301 #
straight-curve $-1 -77.707449568163099 39.357908987035479 0 0 0 -1 I I #
point $-1 -77.707449568163099 -39.357908987035479 -17.514371596531848 #
straight-curve $-1 -77.707449568163099 0 -17.514371596531848 0 1 0 I I #
point $-1 -77.707449568163099 39.357908987035479 -17.514371596531848 #
straight-curve $-1 -32.973433436788881 28.827861600837576 17.514371596531848 1 0 0 I I #
edge $-1 $415 -39.357908987035479 $409 -28.827861600837579 $407 $477 forward 7 unknown #
point $-1 -77.707449568163099 28.827861600837579 17.514371596531845 #
straight-curve $-1 -77.707449568163099 39.357908987035479 0 0 0 -1 I I #
point $-1 -77.707449568163099 39.357908987035479 17.514371596531848 #
point $-1 -65.946866873577761 28.158431429359105 6.3235641191958161 #
straight-curve $-1 -38.85372478408155 51.091263041125245 17.514371596531845 0 -1 0 I I #
point $-1 -38.85372478408155 39.357908987035479 17.514371596531848 #
straight-curve $-1 -13.546571044748109 28.827861600837576 17.514371596531848 1 0 0 I I #
point $-1 -38.85372478408155 28.827861600837579 17.514371596531845 #
point $-1 -27.093142089496219 28.158431429359105 6.3235641191958161 #
straight-curve $-1 5.3290705182007514e-015 51.091263041125245 17.514371596531845 0 -1 0 I I #
point $-1 5.3290705182007514e-015 39.357908987035479 17.514371596531848 #
straight-curve $-1 5.880291347292669 28.827861600837576 17.514371596531848 1 0 0 I I #
point $-1 5.3290705182007514e-015 28.827861600837579 17.514371596531845 #
point $-1 11.760582694585338 28.158431429359105 6.3235641191958161 #
straight-curve $-1 38.853724784081557 51.091263041125245 17.514371596531845 0 -1 0 I I #
point $-1 38.853724784081557 39.357908987035479 17.514371596531848 #
straight-curve $-1 25.307153739333444 28.827861600837576 17.514371596531848 1 0 0 I I #
point $-1 38.853724784081557 28.827861600837579 17.514371596531845 #
point $-1 50.614307478666888 28.158431429359105 6.3235641191958161 #
straight-curve $-1 -77.707449568163099 0 17.514371596531848 0 -1 0 I I #
End-of-ACIS-data 