500 0 11 0           
7 Unknown 11 ACIS 5.0 NT 24 Fri Mar 26 00:23:20 1999 
-1 9.9999999999999995e-007 1e-010 
body $-1 $11 $-1 $12 #
body $-1 $13 $-1 $14 #
body $-1 $15 $-1 $16 #
body $-1 $17 $-1 $18 #
body $-1 $19 $-1 $20 #
body $-1 $21 $-1 $22 #
body $-1 $23 $-1 $24 #
body $-1 $25 $-1 $26 #
body $-1 $27 $-1 $28 #
body $-1 $29 $-1 $30 #
body $-1 $31 $-1 $32 #
lump $-1 $-1 $33 $0 #
transform $-1 1 0 0 0 1 0 0 0 1 43.690298165837582 23.335048651707723 8.493182889038712 1 rotate no_reflect no_shear #
lump $-1 $-1 $34 $1 #
transform $-1 1 0 0 0 1 0 0 0 1 43.690298165837582 23.335048651707723 8.493182889038712 1 rotate no_reflect no_shear #
lump $-1 $-1 $35 $2 #
transform $-1 1 0 0 0 1 0 0 0 1 43.690298165837582 23.335048651707723 8.493182889038712 1 rotate no_reflect no_shear #
lump $-1 $-1 $36 $3 #
transform $-1 1 0 0 0 1 0 0 0 1 43.690298165837582 23.335048651707723 8.493182889038712 1 rotate no_reflect no_shear #
lump $-1 $-1 $37 $4 #
transform $-1 1 0 0 0 1 0 0 0 1 43.690298165837582 23.335048651707723 8.493182889038712 1 rotate no_reflect no_shear #
lump $-1 $-1 $38 $5 #
transform $-1 1 0 0 0 1 0 0 0 1 43.690298165837582 23.335048651707723 8.493182889038712 1 rotate no_reflect no_shear #
lump $-1 $-1 $39 $6 #
transform $-1 1 0 0 0 1 0 0 0 1 43.690298165837582 23.335048651707723 8.493182889038712 1 rotate no_reflect no_shear #
lump $-1 $-1 $40 $7 #
transform $-1 1 0 0 0 1 0 0 0 1 43.690298165837582 23.335048651707723 8.493182889038712 1 rotate no_reflect no_shear #
lump $-1 $-1 $41 $8 #
transform $-1 1 0 0 0 1 0 0 0 1 43.690298165837582 23.335048651707723 8.493182889038712 1 rotate no_reflect no_shear #
lump $-1 $-1 $42 $9 #
transform $-1 1 0 0 0 1 0 0 0 1 43.690298165837582 23.335048651707723 8.493182889038712 1 rotate no_reflect no_shear #
lump $-1 $-1 $43 $10 #
transform $-1 1 0 0 0 1 0 0 0 1 43.690298165837582 23.335048651707723 8.493182889038712 1 rotate no_reflect no_shear #
shell $-1 $-1 $-1 $44 $-1 $11 #
shell $-1 $-1 $-1 $45 $-1 $13 #
shell $-1 $-1 $-1 $46 $-1 $15 #
shell $-1 $-1 $-1 $47 $-1 $17 #
shell $-1 $-1 $-1 $48 $-1 $19 #
shell $-1 $-1 $-1 $49 $-1 $21 #
shell $-1 $-1 $-1 $50 $-1 $23 #
shell $-1 $-1 $-1 $51 $-1 $25 #
shell $-1 $-1 $-1 $52 $-1 $27 #
shell $-1 $-1 $-1 $53 $-1 $29 #
shell $-1 $-1 $-1 $54 $-1 $31 #
face $-1 $55 $56 $33 $-1 $57 forward single #
face $-1 $58 $59 $34 $-1 $60 forward single #
face $-1 $61 $62 $35 $-1 $63 reversed single #
face $-1 $64 $65 $36 $-1 $66 forward single #
face $-1 $67 $68 $37 $-1 $69 forward single #
face $-1 $70 $71 $38 $-1 $72 reversed single #
face $-1 $73 $74 $39 $-1 $75 forward single #
face $-1 $76 $77 $40 $-1 $78 forward single #
face $-1 $79 $80 $41 $-1 $81 reversed single #
face $-1 $82 $83 $42 $-1 $84 forward single #
face $-1 $85 $86 $43 $-1 $87 forward single #
face $-1 $88 $89 $33 $-1 $90 reversed single #
loop $-1 $-1 $91 $44 #
plane-surface $-1 0 0 8.493182889038712 0 0 1 1 0 0 forward_v I I I I #
face $-1 $92 $93 $34 $-1 $94 reversed single #
loop $-1 $-1 $95 $45 #
plane-surface $-1 0 -23.335048651707723 0 0 1 0 0 0 1 forward_v I I I I #
face $-1 $96 $97 $35 $-1 $98 reversed single #
loop $-1 $-1 $99 $46 #
plane-surface $-1 39.377600357687065 3.4680551739722638 126.55351229173581 0 -1 0 -0.68199836817093118 0 -0.7313536940579346 forward_v I I I I #
face $-1 $100 $101 $36 $-1 $102 forward single #
loop $-1 $103 $104 $47 #
cone-surface $-1 40.174522504157473 -5.1607121538333303 5.130847327947599 -0.68199836817093118 0 -0.7313536940579346 1.0970305410869019 0 -1.0229975522563968 1 I I 0 1 1.5 forward I I I I #
face $-1 $105 $106 $37 $-1 $107 forward single #
loop $-1 $108 $109 $48 #
cone-surface $-1 40.174522504157473 0.016548242850024764 5.130847327947599 -0.68199836817093118 0 -0.7313536940579346 1.0970305410869019 0 -1.0229975522563968 1 I I 0 1 1.5 forward I I I I #
face $-1 $110 $111 $38 $-1 $112 reversed single #
loop $-1 $-1 $113 $49 #
plane-surface $-1 -106.54663960445851 -15.301596965863485 65.41799536980443 0 1 0 -0.71933980857756763 0 0.69465836192734942 forward_v I I I I #
face $-1 $114 $115 $39 $-1 $116 forward single #
loop $-1 $117 $118 $50 #
cone-surface $-1 -40.515427301934146 -12.800792254421127 5.2999480045670335 0.71933980857756763 0 -0.69465836192734942 0.69465836192734942 0 0.71933980857756763 1 I I 0 1 1 forward I I I I #
face $-1 $119 $120 $40 $-1 $121 forward single #
loop $-1 $122 $123 $51 #
cone-surface $-1 -40.515427301934146 -9.0495851872575948 5.2999480045670335 0.71933980857756763 0 -0.69465836192734942 0.69465836192734942 0 0.71933980857756763 1 I I 0 1 1 forward I I I I #
face $-1 $124 $125 $41 $-1 $126 reversed single #
loop $-1 $-1 $127 $52 #
plane-surface $-1 -106.54663960445851 12.427824553353759 65.41799536980443 0 1 0 -0.71933980857756763 0 0.69465836192734942 forward_v I I I I #
face $-1 $128 $129 $42 $-1 $130 forward single #
loop $-1 $131 $132 $53 #
cone-surface $-1 -40.515427301934146 14.928629264796122 5.2999480045670335 0.71933980857756763 0 -0.69465836192734942 0.69465836192734942 0 0.71933980857756763 1 I I 0 1 1 forward I I I I #
face $-1 $133 $134 $43 $-1 $135 forward single #
loop $-1 $136 $137 $54 #
cone-surface $-1 -40.515427301934146 18.679836331959649 5.2999480045670335 0.71933980857756763 0 -0.69465836192734942 0.69465836192734942 0 0.71933980857756763 1 I I 0 1 1 forward I I I I #
face $-1 $138 $139 $33 $-1 $140 reversed single #
loop $-1 $-1 $141 $55 #
plane-surface $-1 0 0 -8.493182889038712 0 0 1 1 0 0 forward_v I I I I #
coedge $-1 $142 $143 $144 $145 forward $56 $-1 #
face $-1 $146 $147 $34 $-1 $148 reversed single #
loop $-1 $-1 $149 $58 #
plane-surface $-1 0 0 -8.493182889038712 0 0 1 1 0 0 forward_v I I I I #
coedge $-1 $150 $151 $152 $153 forward $59 $-1 #
face $-1 $154 $155 $35 $-1 $156 reversed single #
loop $-1 $-1 $157 $61 #
plane-surface $-1 -20.215823750318251 -2.572081955491651 62.647390375579974 0.68199836817093118 0 0.7313536940579346 0.7313536940579346 0 -0.68199836817093118 forward_v I I I I #
coedge $-1 $158 $159 $160 $161 reversed $62 $-1 #
face $-1 $-1 $162 $36 $-1 $163 forward single #
loop $-1 $164 $165 $64 #
cone-surface $-1 39.063670857475294 -5.1607121538333303 3.9396048070450735 -0.68199836817093118 0 -0.7313536940579346 0.54851527054345095 0 -0.51149877612819838 1 I I -0.70710678118654757 0.70710678118654757 0.75 forward I I I I #
loop $-1 $-1 $166 $47 #
coedge $-1 $104 $104 $167 $168 reversed $65 $-1 #
face $-1 $-1 $169 $37 $-1 $170 forward single #
loop $-1 $171 $172 $67 #
cone-surface $-1 39.063670857475294 0.016548242850024764 3.9396048070450735 -0.68199836817093118 0 -0.7313536940579346 0.54851527054345095 0 -0.51149877612819838 1 I I -0.70710678118654757 0.70710678118654757 0.75 forward I I I I #
loop $-1 $-1 $173 $48 #
coedge $-1 $109 $109 $174 $175 reversed $68 $-1 #
face $-1 $176 $177 $38 $-1 $178 reversed single #
loop $-1 $-1 $179 $70 #
plane-surface $-1 -43.690298165837582 -10.925188720839362 4.7183334578080007 -0.71933980857756763 0 0.69465836192734942 0.69465836192734942 0 0.71933980857756763 forward_v I I I I #
coedge $-1 $180 $181 $182 $183 reversed $71 $-1 #
face $-1 $-1 $184 $39 $-1 $185 forward single #
loop $-1 $186 $187 $73 #
cone-surface $-1 -38.803551351643733 -12.800792254421127 3.6468086547470371 0.71933980857756763 0 -0.69465836192734942 0.34732918096367471 0 0.35966990428878381 1 I I -0.70710678118654746 0.70710678118654746 0.5 forward I I I I #
loop $-1 $-1 $188 $50 #
coedge $-1 $118 $118 $189 $190 reversed $74 $-1 #
face $-1 $-1 $191 $40 $-1 $192 forward single #
loop $-1 $193 $194 $76 #
cone-surface $-1 -38.803551351643733 -9.0495851872575948 3.6468086547470371 0.71933980857756763 0 -0.69465836192734942 0.34732918096367471 0 0.35966990428878381 1 I I -0.70710678118654746 0.70710678118654746 0.5 forward I I I I #
loop $-1 $-1 $195 $51 #
coedge $-1 $123 $123 $196 $197 reversed $77 $-1 #
face $-1 $198 $199 $41 $-1 $200 reversed single #
loop $-1 $-1 $201 $79 #
plane-surface $-1 -43.690298165837582 16.804232798377882 4.7183334578080007 -0.71933980857756763 0 0.69465836192734942 0.69465836192734942 0 0.71933980857756763 forward_v I I I I #
coedge $-1 $202 $203 $204 $205 reversed $80 $-1 #
face $-1 $-1 $206 $42 $-1 $207 forward single #
loop $-1 $208 $209 $82 #
cone-surface $-1 -38.803551351643733 14.928629264796122 3.6468086547470371 0.71933980857756763 0 -0.69465836192734942 0.34732918096367471 0 0.35966990428878381 1 I I -0.70710678118654746 0.70710678118654746 0.5 forward I I I I #
loop $-1 $-1 $210 $53 #
coedge $-1 $132 $132 $211 $212 reversed $83 $-1 #
face $-1 $-1 $213 $43 $-1 $214 forward single #
loop $-1 $215 $216 $85 #
cone-surface $-1 -38.803551351643733 18.679836331959649 3.6468086547470371 0.71933980857756763 0 -0.69465836192734942 0.34732918096367471 0 0.35966990428878381 1 I I -0.70710678118654746 0.70710678118654746 0.5 forward I I I I #
loop $-1 $-1 $217 $54 #
coedge $-1 $137 $137 $218 $219 reversed $86 $-1 #
face $-1 $220 $221 $33 $-1 $222 reversed single #
loop $-1 $-1 $223 $88 #
plane-surface $-1 0 -23.335048651707723 0 0 1 0 0 0 1 forward_v I I I I #
coedge $-1 $224 $225 $226 $227 forward $89 $-1 #
coedge $-1 $228 $91 $229 $230 forward $56 $-1 #
coedge $-1 $91 $228 $231 $232 forward $56 $-1 #
coedge $-1 $233 $234 $91 $145 reversed $235 $-1 #
edge $-1 $236 -23.335048651707723 $237 23.335048651707723 $144 $238 forward 7 unknown #
face $-1 $239 $240 $34 $-1 $241 reversed single #
loop $-1 $-1 $242 $92 #
plane-surface $-1 -31.718984793609565 -29.214092729246246 0 0 1 0 0 0 1 forward_v I I I I #
coedge $-1 $243 $244 $151 $245 forward $93 $-1 #
coedge $-1 $246 $95 $247 $248 reversed $59 $-1 #
coedge $-1 $95 $246 $149 $245 reversed $59 $-1 #
coedge $-1 $249 $250 $95 $153 reversed $240 $-1 #
edge $-1 $251 -8.493182889038712 $252 8.493182889038712 $152 $253 forward 7 unknown #
face $-1 $254 $255 $35 $-1 $256 forward single #
loop $-1 $-1 $257 $96 #
plane-surface $-1 39.377600357687065 -8.6122190849555658 126.55351229173581 0 1 0 0.68199836817093118 0 0.7313536940579346 forward_v I I I I #
coedge $-1 $258 $259 $260 $261 reversed $97 $-1 #
coedge $-1 $159 $99 $262 $263 reversed $62 $-1 #
coedge $-1 $99 $158 $258 $264 reversed $62 $-1 #
coedge $-1 $260 $265 $99 $161 forward $255 $-1 #
edge $-1 $266 -24.00149798699405 $267 -18.168652404741817 $160 $268 forward 7 unknown #
loop $-1 $-1 $167 $100 #
plane-surface $-1 -20.215823750318251 -2.572081955491651 62.647390375579974 0.68199836817093118 0 0.7313536940579346 0.7313536940579346 0 -0.68199836817093118 forward_v I I I I #
loop $-1 $-1 $269 $64 #
coedge $-1 $165 $165 $166 $270 reversed $101 $-1 #
coedge $-1 $166 $166 $165 $270 forward $103 $-1 #
coedge $-1 $167 $167 $104 $168 forward $162 $-1 #
edge $-1 $271 0 $271 6.2831853071796004 $167 $272 forward 7 unknown #
loop $-1 $-1 $174 $105 #
plane-surface $-1 -20.215823750318251 -2.572081955491651 62.647390375579974 0.68199836817093118 0 0.7313536940579346 0.7313536940579346 0 -0.68199836817093118 forward_v I I I I #
loop $-1 $-1 $273 $67 #
coedge $-1 $172 $172 $173 $274 reversed $106 $-1 #
coedge $-1 $173 $173 $172 $274 forward $108 $-1 #
coedge $-1 $174 $174 $109 $175 forward $169 $-1 #
edge $-1 $275 0 $275 6.2831853071796004 $174 $276 forward 7 unknown #
face $-1 $277 $278 $38 $-1 $279 reversed single #
loop $-1 $-1 $280 $110 #
plane-surface $-1 -106.54663960445851 -6.5487804758152395 65.41799536980443 0 -1 0 0.71933980857756763 0 -0.69465836192734942 forward_v I I I I #
coedge $-1 $281 $282 $283 $284 reversed $111 $-1 #
coedge $-1 $181 $113 $285 $286 reversed $71 $-1 #
coedge $-1 $113 $180 $281 $287 reversed $71 $-1 #
coedge $-1 $283 $288 $113 $183 forward $289 $-1 #
edge $-1 $290 9.5830216363916705 $291 13.22835127219529 $182 $292 forward 7 unknown #
loop $-1 $-1 $189 $114 #
plane-surface $-1 -43.690298165837582 -10.925188720839362 4.7183334578080007 -0.71933980857756763 0 0.69465836192734942 0.69465836192734942 0 0.71933980857756763 forward_v I I I I #
loop $-1 $-1 $293 $73 #
coedge $-1 $187 $187 $188 $294 reversed $115 $-1 #
coedge $-1 $188 $188 $187 $294 forward $117 $-1 #
coedge $-1 $189 $189 $118 $190 forward $184 $-1 #
edge $-1 $295 0 $295 6.2831853071796004 $189 $296 forward 7 unknown #
loop $-1 $-1 $196 $119 #
plane-surface $-1 -43.690298165837582 -10.925188720839362 4.7183334578080007 -0.71933980857756763 0 0.69465836192734942 0.69465836192734942 0 0.71933980857756763 forward_v I I I I #
loop $-1 $-1 $297 $76 #
coedge $-1 $194 $194 $195 $298 reversed $120 $-1 #
coedge $-1 $195 $195 $194 $298 forward $122 $-1 #
coedge $-1 $196 $196 $123 $197 forward $191 $-1 #
edge $-1 $299 0 $299 6.2831853071796004 $196 $300 forward 7 unknown #
face $-1 $301 $302 $41 $-1 $303 forward single #
loop $-1 $-1 $304 $124 #
plane-surface $-1 -106.54663960445851 21.180641043402005 65.41799536980443 0 -1 0 0.71933980857756763 0 -0.69465836192734942 forward_v I I I I #
coedge $-1 $305 $306 $307 $308 reversed $125 $-1 #
coedge $-1 $203 $127 $309 $310 reversed $80 $-1 #
coedge $-1 $127 $202 $305 $311 reversed $80 $-1 #
coedge $-1 $307 $312 $127 $205 forward $302 $-1 #
edge $-1 $313 9.5830216363916705 $314 13.22835127219529 $204 $315 forward 7 unknown #
loop $-1 $-1 $211 $128 #
plane-surface $-1 -43.690298165837582 16.804232798377882 4.7183334578080007 -0.71933980857756763 0 0.69465836192734942 0.69465836192734942 0 0.71933980857756763 forward_v I I I I #
loop $-1 $-1 $316 $82 #
coedge $-1 $209 $209 $210 $317 reversed $129 $-1 #
coedge $-1 $210 $210 $209 $317 forward $131 $-1 #
coedge $-1 $211 $211 $132 $212 forward $206 $-1 #
edge $-1 $318 0 $318 6.2831853071796004 $211 $319 forward 7 unknown #
loop $-1 $-1 $218 $133 #
plane-surface $-1 -43.690298165837582 16.804232798377882 4.7183334578080007 -0.71933980857756763 0 0.69465836192734942 0.69465836192734942 0 0.71933980857756763 forward_v I I I I #
loop $-1 $-1 $320 $85 #
coedge $-1 $216 $216 $217 $321 reversed $134 $-1 #
coedge $-1 $217 $217 $216 $321 forward $136 $-1 #
coedge $-1 $218 $218 $137 $219 forward $213 $-1 #
edge $-1 $322 0 $322 6.2831853071796004 $218 $323 forward 7 unknown #
face $-1 $324 $325 $33 $-1 $326 reversed single #
loop $-1 $-1 $327 $138 #
plane-surface $-1 -43.690298165837582 0 0 1 0 0 0 0 -1 forward_v I I I I #
coedge $-1 $328 $231 $329 $330 forward $139 $-1 #
coedge $-1 $331 $141 $328 $332 forward $89 $-1 #
coedge $-1 $141 $331 $333 $334 forward $89 $-1 #
coedge $-1 $234 $233 $141 $227 reversed $235 $-1 #
edge $-1 $335 -23.335048651707723 $336 23.335048651707723 $226 $337 forward 7 unknown #
coedge $-1 $143 $142 $338 $339 forward $56 $-1 #
coedge $-1 $340 $341 $142 $230 reversed $325 $-1 #
edge $-1 $237 -43.690298165837582 $342 43.690298165837582 $229 $343 forward 7 unknown #
coedge $-1 $223 $344 $143 $232 reversed $139 $-1 #
edge $-1 $345 -43.690298165837582 $236 43.690298165837582 $231 $346 forward 7 unknown #
coedge $-1 $226 $144 $344 $347 forward $235 $-1 #
coedge $-1 $144 $226 $340 $348 reversed $235 $-1 #
loop $-1 $-1 $233 $324 #
vertex $-1 $145 $349 #
vertex $-1 $145 $350 #
straight-curve $-1 43.690298165837582 0 8.493182889038712 0 1 0 I I #
face $-1 $351 $352 $34 $-1 $353 reversed single #
loop $-1 $-1 $152 $146 #
plane-surface $-1 -33.218984793609565 -26.274570690476985 0 1 0 0 0 0 -1 forward_v I I I I #
coedge $-1 $354 $355 $356 $357 forward $147 $-1 #
coedge $-1 $358 $149 $359 $360 forward $93 $-1 #
coedge $-1 $149 $358 $249 $361 forward $93 $-1 #
edge $-1 $251 -33.218984793609565 $362 -30.218984793609565 $149 $363 forward 7 unknown #
coedge $-1 $151 $150 $364 $365 forward $59 $-1 #
coedge $-1 $366 $367 $150 $248 forward $368 $-1 #
edge $-1 $369 30.218984793609565 $252 33.218984793609565 $247 $370 forward 7 unknown #
coedge $-1 $356 $152 $244 $361 reversed $240 $-1 #
coedge $-1 $152 $356 $366 $371 reversed $240 $-1 #
vertex $-1 $245 $372 #
vertex $-1 $371 $373 #
straight-curve $-1 -33.218984793609565 -23.335048651707723 0 0 0 1 I I #
face $-1 $-1 $374 $35 $-1 $375 reversed single #
loop $-1 $-1 $160 $154 #
plane-surface $-1 0 0 8.493182889038712 0 0 1 1 0 0 forward_v I I I I #
coedge $-1 $376 $377 $378 $379 reversed $155 $-1 #
coedge $-1 $380 $157 $159 $264 forward $97 $-1 #
coedge $-1 $157 $380 $376 $381 forward $97 $-1 #
coedge $-1 $378 $160 $157 $261 forward $255 $-1 #
edge $-1 $267 -4.7540961517180893 $382 7.3261781072097403 $260 $383 forward 7 unknown #
coedge $-1 $384 $385 $158 $263 forward $374 $-1 #
edge $-1 $386 -60.222789878293241 $266 -54.783573256829193 $262 $387 forward 7 unknown #
edge $-1 $267 79.405186308258791 $386 87.38059633167515 $159 $388 forward 7 unknown #
coedge $-1 $160 $378 $384 $389 forward $255 $-1 #
vertex $-1 $161 $390 #
vertex $-1 $161 $391 #
straight-curve $-1 19.688800178843533 3.4680551739722638 8.4931828890387138 -1 0 0 I I #
coedge $-1 $269 $269 $-1 $392 reversed $164 $-1 #
edge $-1 $393 0 $393 6.2831853071796004 $165 $394 forward 7 unknown #
vertex $-1 $168 $395 #
ellipse-curve $-1 40.773875374711466 -5.1607121538333303 5.773574578306687 0.68199836817093118 0 0.7313536940579346 1.0970305410869019 0 -1.0229975522563968 1 I I #
coedge $-1 $273 $273 $-1 $396 reversed $171 $-1 #
edge $-1 $397 0 $397 6.2831853071796004 $172 $398 forward 7 unknown #
vertex $-1 $175 $399 #
ellipse-curve $-1 40.773875374711466 0.016548242850024764 5.773574578306687 0.68199836817093118 0 0.7313536940579346 1.0970305410869019 0 -1.0229975522563968 1 I I #
face $-1 $-1 $289 $38 $-1 $400 forward single #
loop $-1 $-1 $401 $176 #
plane-surface $-1 -43.690298165837582 0 0 1 0 0 0 0 -1 forward_v I I I I #
coedge $-1 $402 $403 $404 $405 reversed $177 $-1 #
coedge $-1 $406 $179 $181 $287 forward $111 $-1 #
coedge $-1 $179 $406 $402 $407 forward $111 $-1 #
coedge $-1 $404 $182 $179 $284 forward $289 $-1 #
edge $-1 $291 -9.8390026054438042 $408 -1.0861861153955585 $283 $409 forward 7 unknown #
coedge $-1 $410 $411 $180 $286 forward $278 $-1 #
edge $-1 $412 -27.990664227094214 $290 -24.215814795863501 $285 $413 forward 7 unknown #
edge $-1 $291 -5.2476581807632039 $412 0 $181 $414 forward 7 unknown #
coedge $-1 $182 $404 $410 $415 forward $289 $-1 #
loop $-1 $-1 $404 $277 #
vertex $-1 $286 $416 #
vertex $-1 $183 $417 #
straight-curve $-1 -53.273319802229253 -15.301596965863485 8.4931828890387138 1 0 0 I I #
coedge $-1 $293 $293 $-1 $418 reversed $186 $-1 #
edge $-1 $419 0 $419 6.2831853071796004 $187 $420 forward 7 unknown #
vertex $-1 $190 $421 #
ellipse-curve $-1 -41.867633347935772 -12.800792254421127 6.6057581734233555 -0.71933980857756763 0 0.69465836192734942 0.69465836192734942 0 0.71933980857756763 1 I I #
coedge $-1 $297 $297 $-1 $422 reversed $193 $-1 #
edge $-1 $423 0 $423 6.2831853071796004 $194 $424 forward 7 unknown #
vertex $-1 $197 $425 #
ellipse-curve $-1 -41.867633347935772 -9.0495851872575948 6.6057581734233555 -0.71933980857756763 0 0.69465836192734942 0.69465836192734942 0 0.71933980857756763 1 I I #
face $-1 $-1 $426 $41 $-1 $427 reversed single #
loop $-1 $-1 $204 $198 #
plane-surface $-1 0 0 8.493182889038712 0 0 1 1 0 0 forward_v I I I I #
coedge $-1 $428 $429 $430 $431 reversed $199 $-1 #
coedge $-1 $432 $201 $203 $311 forward $125 $-1 #
coedge $-1 $201 $432 $428 $433 forward $125 $-1 #
coedge $-1 $430 $204 $201 $308 forward $302 $-1 #
edge $-1 $314 4.0257081541648176 $434 12.778524644213064 $307 $435 forward 7 unknown #
coedge $-1 $436 $437 $202 $310 forward $426 $-1 #
edge $-1 $438 -27.990664227094214 $313 -24.215814795863501 $309 $439 forward 7 unknown #
edge $-1 $314 -5.2476581807632039 $438 0 $203 $440 forward 7 unknown #
coedge $-1 $204 $430 $436 $441 forward $302 $-1 #
vertex $-1 $310 $442 #
vertex $-1 $205 $443 #
straight-curve $-1 -53.273319802229253 12.427824553353759 8.4931828890387138 1 0 0 I I #
coedge $-1 $316 $316 $-1 $444 reversed $208 $-1 #
edge $-1 $445 0 $445 6.2831853071796004 $209 $446 forward 7 unknown #
vertex $-1 $212 $447 #
ellipse-curve $-1 -41.867633347935772 14.928629264796122 6.6057581734233555 -0.71933980857756763 0 0.69465836192734942 0.69465836192734942 0 0.71933980857756763 1 I I #
coedge $-1 $320 $320 $-1 $448 reversed $215 $-1 #
edge $-1 $449 0 $449 6.2831853071796004 $216 $450 forward 7 unknown #
vertex $-1 $219 $451 #
ellipse-curve $-1 -41.867633347935772 18.679836331959649 6.6057581734233555 -0.71933980857756763 0 0.69465836192734942 0.69465836192734942 0 0.71933980857756763 1 I I #
face $-1 $-1 $235 $33 $-1 $452 reversed single #
loop $-1 $-1 $340 $220 #
plane-surface $-1 0 23.335048651707723 0 0 -1 0 0 0 -1 forward_v I I I I #
coedge $-1 $453 $338 $341 $454 forward $221 $-1 #
coedge $-1 $344 $223 $224 $332 reversed $139 $-1 #
coedge $-1 $338 $453 $223 $330 reversed $221 $-1 #
edge $-1 $345 -8.493182889038712 $455 8.493182889038712 $329 $456 forward 7 unknown #
coedge $-1 $225 $224 $453 $457 forward $89 $-1 #
edge $-1 $336 -43.690298165837582 $455 43.690298165837582 $328 $458 forward 7 unknown #
coedge $-1 $341 $340 $225 $334 reversed $325 $-1 #
edge $-1 $459 -43.690298165837582 $335 43.690298165837582 $333 $460 forward 7 unknown #
vertex $-1 $227 $461 #
vertex $-1 $347 $462 #
straight-curve $-1 43.690298165837582 0 -8.493182889038712 0 -1 0 I I #
coedge $-1 $327 $329 $228 $339 reversed $221 $-1 #
edge $-1 $342 -23.335048651707723 $345 23.335048651707723 $338 $463 forward 7 unknown #
coedge $-1 $333 $229 $234 $348 forward $325 $-1 #
coedge $-1 $229 $333 $327 $454 reversed $325 $-1 #
vertex $-1 $230 $464 #
straight-curve $-1 0 23.335048651707723 8.493182889038712 -1 0 0 I I #
coedge $-1 $231 $328 $233 $347 reversed $139 $-1 #
vertex $-1 $339 $465 #
straight-curve $-1 0 -23.335048651707723 8.493182889038712 1 0 0 I I #
edge $-1 $236 -8.493182889038712 $336 8.493182889038712 $233 $466 forward 7 unknown #
edge $-1 $237 -8.493182889038712 $335 8.493182889038712 $234 $467 forward 7 unknown #
point $-1 43.690298165837582 -23.335048651707723 8.493182889038712 #
point $-1 43.690298165837582 23.335048651707723 8.493182889038712 #
face $-1 $-1 $368 $34 $-1 $468 forward single #
loop $-1 $-1 $469 $239 #
plane-surface $-1 -30.218984793609565 -26.274570690476985 0 -1 0 0 0 0 1 forward_v I I I I #
coedge $-1 $470 $242 $358 $471 reversed $147 $-1 #
coedge $-1 $242 $470 $472 $473 reversed $147 $-1 #
coedge $-1 $250 $249 $242 $357 reversed $240 $-1 #
edge $-1 $474 -8.493182889038712 $475 8.493182889038712 $356 $476 forward 7 unknown #
coedge $-1 $244 $243 $354 $471 forward $93 $-1 #
coedge $-1 $364 $469 $243 $360 reversed $352 $-1 #
edge $-1 $362 -2.9395220387692618 $477 2.9395220387692618 $359 $478 forward 7 unknown #
edge $-1 $475 -2.9395220387692618 $251 2.9395220387692618 $249 $479 forward 7 unknown #
vertex $-1 $360 $480 #
straight-curve $-1 0 -23.335048651707723 -8.493182889038712 1 0 0 I I #
coedge $-1 $481 $359 $246 $365 reversed $352 $-1 #
edge $-1 $369 -8.493182889038712 $362 8.493182889038712 $364 $482 forward 7 unknown #
coedge $-1 $472 $247 $250 $371 forward $368 $-1 #
coedge $-1 $247 $472 $481 $483 forward $368 $-1 #
loop $-1 $-1 $247 $351 #
vertex $-1 $248 $484 #
straight-curve $-1 0 -23.335048651707723 8.493182889038712 -1 0 0 I I #
edge $-1 $252 -2.9395220387692618 $474 2.9395220387692618 $250 $485 forward 7 unknown #
point $-1 -33.218984793609565 -23.335048651707723 -8.493182889038712 #
point $-1 -33.218984793609565 -23.335048651707723 8.493182889038712 #
loop $-1 $-1 $262 $254 #
plane-surface $-1 43.690298165837582 0 0 -1 0 0 0 0 1 forward_v I I I I #
coedge $-1 $377 $257 $259 $381 reversed $155 $-1 #
coedge $-1 $257 $376 $486 $487 reversed $155 $-1 #
coedge $-1 $265 $260 $257 $379 forward $255 $-1 #
edge $-1 $382 18.168652404741817 $488 24.00149798699405 $378 $489 forward 7 unknown #
coedge $-1 $259 $258 $385 $490 reversed $97 $-1 #
edge $-1 $491 -87.38059633167515 $382 -79.405186308258791 $376 $492 forward 7 unknown #
vertex $-1 $261 $493 #
straight-curve $-1 37.857452583585342 -1.2860409777458255 8.4931828890387138 0 -1 0 I I #
coedge $-1 $486 $262 $265 $389 reversed $374 $-1 #
coedge $-1 $262 $486 $380 $490 forward $374 $-1 #
vertex $-1 $263 $494 #
straight-curve $-1 43.690298165837582 3.4680551739722638 63.276756145867907 0 0 1 I I #
straight-curve $-1 -20.215823750318251 3.4680551739722638 62.647390375579974 0.7313536940579346 0 -0.68199836817093118 I I #
edge $-1 $488 -8.6122190849555658 $266 3.4680551739722638 $384 $495 forward 7 unknown #
point $-1 43.690298165837582 3.4680551739722638 8.493182889038712 #
point $-1 37.857452583585349 3.4680551739722638 8.4931828890387138 #
edge $-1 $496 1 $496 0 $269 $-1 forward 7 unknown #
vertex $-1 $270 $497 #
ellipse-curve $-1 39.575169633603494 -5.1607121538333303 4.4881200775885244 0.68199836817093118 0 0.7313536940579346 1.0970305410869019 0 -1.0229975522563968 1 I I #
point $-1 41.870905915798346 -5.1607121538333303 4.7505770260502764 #
edge $-1 $498 1 $498 0 $273 $-1 forward 7 unknown #
vertex $-1 $274 $499 #
ellipse-curve $-1 39.575169633603494 0.016548242850024764 4.4881200775885244 0.68199836817093118 0 0.7313536940579346 1.0970305410869019 0 -1.0229975522563968 1 I I #
point $-1 41.870905915798346 0.016548242850024764 4.7505770260502764 #
plane-surface $-1 0 0 8.493182889038712 0 0 1 1 0 0 forward_v I I I I #
coedge $-1 $411 $410 $403 $500 forward $278 $-1 #
coedge $-1 $403 $280 $282 $407 reversed $177 $-1 #
coedge $-1 $280 $402 $401 $500 reversed $177 $-1 #
coedge $-1 $288 $283 $280 $405 forward $289 $-1 #
edge $-1 $408 -13.22835127219529 $501 -9.5830216363916705 $404 $502 forward 7 unknown #
coedge $-1 $282 $281 $411 $503 reversed $111 $-1 #
edge $-1 $504 0 $408 5.2476581807632039 $402 $505 forward 7 unknown #
vertex $-1 $284 $506 #
straight-curve $-1 -40.044968530033955 -5.4625943604196809 8.4931828890387138 0 1 0 I I #
coedge $-1 $401 $285 $288 $415 reversed $278 $-1 #
coedge $-1 $285 $401 $406 $503 forward $278 $-1 #
vertex $-1 $286 $507 #
straight-curve $-1 -43.690298165837582 -15.301596965863485 32.708997684902215 0 0 1 I I #
straight-curve $-1 -43.690298165837582 -15.301596965863485 4.7183334578080007 -0.69465836192734942 0 -0.71933980857756763 I I #
edge $-1 $501 6.5487804758152395 $290 15.301596965863485 $410 $508 forward 7 unknown #
point $-1 -43.690298165837582 -15.301596965863485 8.493182889038712 #
point $-1 -40.044968530033962 -15.301596965863485 8.493182889038712 #
edge $-1 $509 1 $509 0 $293 $-1 forward 7 unknown #
vertex $-1 $294 $510 #
ellipse-curve $-1 -39.16322125593252 -12.800792254421127 3.9941378357107116 -0.71933980857756763 0 0.69465836192734942 0.69465836192734942 0 0.71933980857756763 1 I I #
point $-1 -41.17297498600842 -12.800792254421127 7.3250979820009228 #
edge $-1 $511 1 $511 0 $297 $-1 forward 7 unknown #
vertex $-1 $298 $512 #
ellipse-curve $-1 -39.16322125593252 -9.0495851872575948 3.9941378357107116 -0.71933980857756763 0 0.69465836192734942 0.69465836192734942 0 0.71933980857756763 1 I I #
point $-1 -41.17297498600842 -9.0495851872575948 7.3250979820009228 #
loop $-1 $-1 $309 $301 #
plane-surface $-1 -43.690298165837582 0 0 1 0 0 0 0 -1 forward_v I I I I #
coedge $-1 $429 $304 $306 $433 reversed $199 $-1 #
coedge $-1 $304 $428 $513 $514 reversed $199 $-1 #
coedge $-1 $312 $307 $304 $431 forward $302 $-1 #
edge $-1 $434 -13.22835127219529 $515 -9.5830216363916705 $430 $516 forward 7 unknown #
coedge $-1 $306 $305 $437 $517 reversed $125 $-1 #
edge $-1 $518 0 $434 5.2476581807632039 $428 $519 forward 7 unknown #
vertex $-1 $308 $520 #
straight-curve $-1 -40.044968530033955 8.4021163991889409 8.4931828890387138 0 1 0 I I #
coedge $-1 $513 $309 $312 $441 reversed $426 $-1 #
coedge $-1 $309 $513 $432 $517 forward $426 $-1 #
vertex $-1 $310 $521 #
straight-curve $-1 -43.690298165837582 12.427824553353759 32.708997684902215 0 0 1 I I #
straight-curve $-1 -43.690298165837582 12.427824553353759 4.7183334578080007 -0.69465836192734942 0 -0.71933980857756763 I I #
edge $-1 $515 -21.180641043402005 $313 -12.427824553353759 $436 $522 forward 7 unknown #
point $-1 -43.690298165837582 12.427824553353759 8.493182889038712 #
point $-1 -40.044968530033962 12.427824553353759 8.493182889038712 #
edge $-1 $523 1 $523 0 $316 $-1 forward 7 unknown #
vertex $-1 $317 $524 #
ellipse-curve $-1 -39.16322125593252 14.928629264796122 3.9941378357107116 -0.71933980857756763 0 0.69465836192734942 0.69465836192734942 0 0.71933980857756763 1 I I #
point $-1 -41.17297498600842 14.928629264796122 7.3250979820009228 #
edge $-1 $525 1 $525 0 $320 $-1 forward 7 unknown #
vertex $-1 $321 $526 #
ellipse-curve $-1 -39.16322125593252 18.679836331959649 3.9941378357107116 -0.71933980857756763 0 0.69465836192734942 0.69465836192734942 0 0.71933980857756763 1 I I #
point $-1 -41.17297498600842 18.679836331959649 7.3250979820009228 #
plane-surface $-1 43.690298165837582 0 0 -1 0 0 0 0 1 forward_v I I I I #
coedge $-1 $329 $327 $331 $457 reversed $221 $-1 #
edge $-1 $342 -8.493182889038712 $459 8.493182889038712 $341 $527 forward 7 unknown #
vertex $-1 $457 $528 #
straight-curve $-1 -43.690298165837582 -23.335048651707723 0 0 0 -1 I I #
edge $-1 $455 -23.335048651707723 $459 23.335048651707723 $453 $529 forward 7 unknown #
straight-curve $-1 0 -23.335048651707723 -8.493182889038712 -1 0 0 I I #
vertex $-1 $334 $530 #
straight-curve $-1 0 23.335048651707723 -8.493182889038712 1 0 0 I I #
point $-1 43.690298165837582 23.335048651707723 -8.493182889038712 #
point $-1 43.690298165837582 -23.335048651707723 -8.493182889038712 #
straight-curve $-1 -43.690298165837582 0 8.493182889038712 0 -1 0 I I #
point $-1 -43.690298165837582 23.335048651707723 8.493182889038712 #
point $-1 -43.690298165837582 -23.335048651707723 8.493182889038712 #
straight-curve $-1 43.690298165837582 -23.335048651707723 0 0 0 -1 I I #
straight-curve $-1 43.690298165837582 23.335048651707723 0 0 0 -1 I I #
plane-surface $-1 0 0 8.493182889038712 0 0 1 1 0 0 forward_v I I I I #
coedge $-1 $359 $481 $470 $531 forward $352 $-1 #
coedge $-1 $355 $354 $469 $531 reversed $147 $-1 #
edge $-1 $477 -1.5 $475 1.5 $354 $532 forward 7 unknown #
coedge $-1 $367 $366 $355 $473 forward $368 $-1 #
edge $-1 $474 -1.5 $533 1.5 $355 $534 forward 7 unknown #
vertex $-1 $371 $535 #
vertex $-1 $361 $536 #
straight-curve $-1 -33.218984793609565 -29.214092729246246 0 0 0 -1 I I #
vertex $-1 $531 $537 #
straight-curve $-1 -30.218984793609565 -26.274570690476985 -8.493182889038712 0 -1 0 I I #
straight-curve $-1 -33.218984793609565 -26.274570690476985 -8.493182889038712 0 1 0 I I #
point $-1 -30.218984793609565 -23.335048651707723 -8.493182889038712 #
coedge $-1 $469 $364 $367 $483 reversed $352 $-1 #
straight-curve $-1 -30.218984793609565 -23.335048651707723 0 0 0 -1 I I #
edge $-1 $533 -2.9395220387692618 $369 2.9395220387692618 $481 $538 forward 7 unknown #
point $-1 -30.218984793609565 -23.335048651707723 8.493182889038712 #
straight-curve $-1 -33.218984793609565 -26.274570690476985 8.493182889038712 0 -1 0 I I #
coedge $-1 $385 $384 $377 $487 forward $374 $-1 #
edge $-1 $488 54.783573256829193 $491 60.222789878293241 $486 $539 forward 7 unknown #
vertex $-1 $389 $540 #
straight-curve $-1 19.688800178843533 -8.6122190849555658 8.4931828890387138 1 0 0 I I #
edge $-1 $491 -7.3261781072097403 $386 4.7540961517180893 $385 $541 forward 7 unknown #
vertex $-1 $490 $542 #
straight-curve $-1 -20.215823750318251 -8.6122190849555658 62.647390375579974 -0.7313536940579346 0 0.68199836817093118 I I #
point $-1 37.857452583585349 -8.6122190849555658 8.4931828890387138 #
point $-1 43.690298165837582 3.4680551739722638 3.0539662675746655 #
straight-curve $-1 43.690298165837582 0 8.493182889038712 0 1 0 I I #
vertex $-1 $392 $543 #
point $-1 40.672200174690396 -5.1607121538333303 3.4651225253321276 #
vertex $-1 $396 $544 #
point $-1 40.672200174690396 0.016548242850024764 3.4651225253321276 #
edge $-1 $501 24.215814795863501 $504 27.990664227094214 $401 $545 forward 7 unknown #
vertex $-1 $415 $546 #
straight-curve $-1 -53.273319802229253 -6.5487804758152395 8.4931828890387138 -1 0 0 I I #
edge $-1 $504 1.0861861153955585 $412 9.8390026054438042 $411 $547 forward 7 unknown #
vertex $-1 $503 $548 #
straight-curve $-1 -43.690298165837582 -6.5487804758152395 4.7183334578080007 0.69465836192734942 0 0.71933980857756763 I I #
point $-1 -40.044968530033962 -6.5487804758152395 8.493182889038712 #
point $-1 -43.690298165837582 -15.301596965863485 4.7183334578080007 #
straight-curve $-1 -43.690298165837582 0 8.493182889038712 0 -1 0 I I #
vertex $-1 $418 $549 #
point $-1 -38.468562894005167 -12.800792254421127 4.7134776442882789 #
vertex $-1 $422 $550 #
point $-1 -38.468562894005167 -9.0495851872575948 4.7134776442882789 #
coedge $-1 $437 $436 $429 $514 forward $426 $-1 #
edge $-1 $515 24.215814795863501 $518 27.990664227094214 $513 $551 forward 7 unknown #
vertex $-1 $441 $552 #
straight-curve $-1 -53.273319802229253 21.180641043402005 8.4931828890387138 -1 0 0 I I #
edge $-1 $518 -12.778524644213064 $438 -4.0257081541648176 $437 $553 forward 7 unknown #
vertex $-1 $517 $554 #
straight-curve $-1 -43.690298165837582 21.180641043402005 4.7183334578080007 0.69465836192734942 0 0.71933980857756763 I I #
point $-1 -40.044968530033962 21.180641043402005 8.493182889038712 #
point $-1 -43.690298165837582 12.427824553353759 4.7183334578080007 #
straight-curve $-1 -43.690298165837582 0 8.493182889038712 0 -1 0 I I #
vertex $-1 $444 $555 #
point $-1 -38.468562894005167 14.928629264796122 4.7134776442882789 #
vertex $-1 $448 $556 #
point $-1 -38.468562894005167 18.679836331959649 4.7134776442882789 #
straight-curve $-1 -43.690298165837582 23.335048651707723 0 0 0 -1 I I #
point $-1 -43.690298165837582 -23.335048651707723 -8.493182889038712 #
straight-curve $-1 -43.690298165837582 0 -8.493182889038712 0 1 0 I I #
point $-1 -43.690298165837582 23.335048651707723 -8.493182889038712 #
edge $-1 $533 -8.493182889038712 $477 8.493182889038712 $469 $557 forward 7 unknown #
straight-curve $-1 -31.718984793609565 -29.214092729246246 -8.493182889038712 -1 0 0 I I #
vertex $-1 $483 $558 #
straight-curve $-1 -31.718984793609565 -29.214092729246246 8.493182889038712 1 0 0 I I #
point $-1 -33.218984793609565 -29.214092729246246 8.493182889038712 #
point $-1 -33.218984793609565 -29.214092729246246 -8.493182889038712 #
point $-1 -30.218984793609565 -29.214092729246246 -8.493182889038712 #
straight-curve $-1 -30.218984793609565 -26.274570690476985 8.493182889038712 0 1 0 I I #
straight-curve $-1 43.690298165837582 -8.6122190849555658 63.276756145867907 0 0 -1 I I #
point $-1 43.690298165837582 -8.6122190849555658 8.493182889038712 #
straight-curve $-1 43.690298165837582 -1.2860409777458255 3.0539662675746655 0 1 0 I I #
point $-1 43.690298165837582 -8.6122190849555658 3.0539662675746655 #
point $-1 38.552172081347095 -5.1607121538333303 3.3910895365016227 #
point $-1 38.552172081347095 0.016548242850024764 3.3910895365016227 #
straight-curve $-1 -43.690298165837582 -6.5487804758152395 32.708997684902215 0 0 -1 I I #
point $-1 -43.690298165837582 -6.5487804758152395 8.493182889038712 #
straight-curve $-1 -43.690298165837582 -5.4625943604196809 4.7183334578079981 0 -1 0 I I #
point $-1 -43.690298165837582 -6.5487804758152395 4.7183334578080007 #
point $-1 -38.443881447354947 -12.800792254421127 3.2994794737833626 #
point $-1 -38.443881447354947 -9.0495851872575948 3.2994794737833626 #
straight-curve $-1 -43.690298165837582 21.180641043402005 32.708997684902215 0 0 -1 I I #
point $-1 -43.690298165837582 21.180641043402005 8.493182889038712 #
straight-curve $-1 -43.690298165837582 8.4021163991889409 4.7183334578079981 0 -1 0 I I #
point $-1 -43.690298165837582 21.180641043402005 4.7183334578080007 #
point $-1 -38.443881447354947 14.928629264796122 3.2994794737833626 #
point $-1 -38.443881447354947 18.679836331959649 3.2994794737833626 #
straight-curve $-1 -30.218984793609565 -29.214092729246246 0 0 0 -1 I I #
point $-1 -30.218984793609565 -29.214092729246246 8.493182889038712 #
End-of-ACIS-data 