500 0 10 0           
7 Unknown 11 ACIS 5.0 NT 24 Thu Mar 25 19:06:33 1999 
-1 9.9999999999999995e-007 1e-010 
body $-1 $10 $-1 $11 #
body $-1 $12 $-1 $13 #
body $-1 $14 $-1 $15 #
body $-1 $16 $-1 $17 #
body $-1 $18 $-1 $19 #
body $-1 $20 $-1 $21 #
body $-1 $22 $-1 $23 #
body $-1 $24 $-1 $25 #
body $-1 $26 $-1 $27 #
body $-1 $28 $-1 $29 #
lump $-1 $-1 $30 $0 #
transform $-1 1 0 0 0 1 0 0 0 1 43.874629963072607 22.085808785146789 5.2445960312884052 1 rotate no_reflect no_shear #
lump $-1 $-1 $31 $1 #
transform $-1 1 0 0 0 1 0 0 0 1 43.874629963072607 22.085808785146789 5.2445960312884052 1 rotate no_reflect no_shear #
lump $-1 $-1 $32 $2 #
transform $-1 1 0 0 0 1 0 0 0 1 43.874629963072607 22.085808785146789 5.2445960312884052 1 rotate no_reflect no_shear #
lump $-1 $-1 $33 $3 #
transform $-1 1 0 0 0 1 0 0 0 1 43.874629963072607 22.085808785146789 5.2445960312884052 1 rotate no_reflect no_shear #
lump $-1 $-1 $34 $4 #
transform $-1 1 0 0 0 1 0 0 0 1 43.874629963072607 22.085808785146789 5.2445960312884052 1 rotate no_reflect no_shear #
lump $-1 $-1 $35 $5 #
transform $-1 1 0 0 0 1 0 0 0 1 43.874629963072607 22.085808785146789 5.2445960312884052 1 rotate no_reflect no_shear #
lump $-1 $-1 $36 $6 #
transform $-1 1 0 0 0 1 0 0 0 1 43.874629963072607 22.085808785146789 5.2445960312884052 1 rotate no_reflect no_shear #
lump $-1 $-1 $37 $7 #
transform $-1 1 0 0 0 1 0 0 0 1 43.874629963072607 22.085808785146789 5.2445960312884052 1 rotate no_reflect no_shear #
lump $-1 $-1 $38 $8 #
transform $-1 1 0 0 0 1 0 0 0 1 43.874629963072607 22.085808785146789 5.2445960312884052 1 rotate no_reflect no_shear #
lump $-1 $-1 $39 $9 #
transform $-1 1 0 0 0 1 0 0 0 1 43.874629963072607 22.085808785146789 5.2445960312884052 1 rotate no_reflect no_shear #
shell $-1 $-1 $-1 $40 $-1 $10 #
shell $-1 $-1 $-1 $41 $-1 $12 #
shell $-1 $-1 $-1 $42 $-1 $14 #
shell $-1 $-1 $-1 $43 $-1 $16 #
shell $-1 $-1 $-1 $44 $-1 $18 #
shell $-1 $-1 $-1 $45 $-1 $20 #
shell $-1 $-1 $-1 $46 $-1 $22 #
shell $-1 $-1 $-1 $47 $-1 $24 #
shell $-1 $-1 $-1 $48 $-1 $26 #
shell $-1 $-1 $-1 $49 $-1 $28 #
face $-1 $50 $51 $30 $-1 $52 forward single #
face $-1 $53 $54 $31 $-1 $55 reversed single #
face $-1 $56 $57 $32 $-1 $58 reversed single #
face $-1 $59 $60 $33 $-1 $61 forward single #
face $-1 $62 $63 $34 $-1 $64 forward single #
face $-1 $65 $66 $35 $-1 $67 forward single #
face $-1 $68 $69 $36 $-1 $70 reversed single #
face $-1 $71 $72 $37 $-1 $73 forward single #
face $-1 $74 $75 $38 $-1 $76 forward single #
face $-1 $77 $78 $39 $-1 $79 forward single #
face $-1 $80 $81 $30 $-1 $82 reversed single #
loop $-1 $-1 $83 $40 #
plane-surface $-1 0 0 5.2445960312884052 0 0 1 1 0 0 forward_v I I I I #
face $-1 $84 $85 $31 $-1 $86 reversed single #
loop $-1 $-1 $87 $41 #
plane-surface $-1 -40.537109707075196 -14.596616722569978 0 0 1 0 0 0 1 forward_v I I I I #
face $-1 $88 $89 $32 $-1 $90 reversed single #
loop $-1 $-1 $91 $42 #
plane-surface $-1 37.902127001774744 -22.085808785146796 1.6295875419879806 0 -0.74314483375859142 0.66913059716165679 1 0 0 forward_v I I I I #
face $-1 $92 $93 $33 $-1 $94 forward single #
loop $-1 $95 $96 $43 #
cone-surface $-1 34.31862522499604 -19.818508448523602 2.8609986662265703 0 0.74314483375859142 -0.66913059716165679 1 0 0 1 I I 0 1 1 forward I I I I #
face $-1 $97 $98 $34 $-1 $99 forward single #
loop $-1 $100 $101 $44 #
cone-surface $-1 37.902127001774758 -19.818508448523602 2.8609986662265703 0 0.74314483375859142 -0.66913059716165679 1 0 0 1 I I 0 1 1 forward I I I I #
face $-1 $102 $103 $35 $-1 $104 forward single #
loop $-1 $105 $106 $45 #
cone-surface $-1 41.485628778553476 -19.818508448523602 2.8609986662265703 0 0.74314483375859142 -0.66913059716165679 1 0 0 1 I I 0 1 1 forward I I I I #
face $-1 $107 $108 $36 $-1 $109 reversed single #
loop $-1 $-1 $110 $46 #
plane-surface $-1 37.902127001774744 -7.4707720572600849 34.455496938111864 0 0.74314483375859142 0.66913059716165679 1 0 0 forward_v I I I I #
face $-1 $111 $112 $37 $-1 $113 forward single #
loop $-1 $114 $115 $47 #
cone-surface $-1 34.31862522499604 19.818508448523605 2.8609986662265747 0 -0.74314483375859142 -0.66913059716165679 1 0 0 1 I I 0 1 1 forward I I I I #
face $-1 $116 $117 $38 $-1 $118 forward single #
loop $-1 $119 $120 $48 #
cone-surface $-1 37.902127001774758 19.818508448523605 2.8609986662265747 0 -0.74314483375859142 -0.66913059716165679 1 0 0 1 I I 0 1 1 forward I I I I #
face $-1 $121 $122 $39 $-1 $123 forward single #
loop $-1 $124 $125 $49 #
cone-surface $-1 41.485628778553476 19.818508448523605 2.8609986662265747 0 -0.74314483375859142 -0.66913059716165679 1 0 0 1 I I 0 1 1 forward I I I I #
face $-1 $126 $127 $30 $-1 $128 reversed single #
loop $-1 $-1 $129 $50 #
plane-surface $-1 0 0 -5.2445960312884052 0 0 1 1 0 0 forward_v I I I I #
coedge $-1 $130 $131 $132 $133 forward $51 $-1 #
face $-1 $134 $135 $31 $-1 $136 reversed single #
loop $-1 $-1 $137 $53 #
plane-surface $-1 -40.537109707075196 -11.596616722569978 0 0 -1 0 0 0 -1 forward_v I I I I #
coedge $-1 $138 $139 $140 $141 reversed $54 $-1 #
face $-1 $142 $143 $32 $-1 $144 reversed single #
loop $-1 $-1 $145 $56 #
plane-surface $-1 31.929624040476888 -87.296217965401411 60.34530223686297 1 0 0 0 0.74314483375859142 -0.66913059716165679 forward_v I I I I #
coedge $-1 $146 $147 $148 $149 reversed $57 $-1 #
face $-1 $-1 $150 $33 $-1 $151 forward single #
loop $-1 $152 $153 $59 #
cone-surface $-1 34.31862522499604 -18.807119786484126 1.9503402472341236 0 0.74314483375859142 -0.66913059716165679 0.5 0 0 1 I I -0.70710678118654746 0.70710678118654746 0.5 forward I I I I #
loop $-1 $-1 $154 $43 #
coedge $-1 $96 $96 $155 $156 reversed $60 $-1 #
face $-1 $-1 $157 $34 $-1 $158 forward single #
loop $-1 $159 $160 $62 #
cone-surface $-1 37.902127001774758 -18.807119786484126 1.9503402472341236 0 0.74314483375859142 -0.66913059716165679 0.5 0 0 1 I I -0.70710678118654746 0.70710678118654746 0.5 forward I I I I #
loop $-1 $-1 $161 $44 #
coedge $-1 $101 $101 $162 $163 reversed $63 $-1 #
face $-1 $-1 $164 $35 $-1 $165 forward single #
loop $-1 $166 $167 $65 #
cone-surface $-1 41.485628778553476 -18.807119786484126 1.9503402472341236 0 0.74314483375859142 -0.66913059716165679 0.5 0 0 1 I I -0.70710678118654746 0.70710678118654746 0.5 forward I I I I #
loop $-1 $-1 $168 $45 #
coedge $-1 $106 $106 $169 $170 reversed $66 $-1 #
face $-1 $171 $172 $36 $-1 $173 reversed single #
loop $-1 $-1 $174 $68 #
plane-surface $-1 31.929624040476888 57.73963712299453 93.171211632986854 1 0 0 0 -0.74314483375859142 -0.66913059716165679 forward_v I I I I #
coedge $-1 $175 $176 $177 $178 reversed $69 $-1 #
face $-1 $-1 $179 $37 $-1 $180 forward single #
loop $-1 $181 $182 $71 #
cone-surface $-1 34.31862522499604 18.80711978648413 1.950340247234128 0 -0.74314483375859142 -0.66913059716165679 0.5 0 0 1 I I -0.70710678118654746 0.70710678118654746 0.5 forward I I I I #
loop $-1 $-1 $183 $47 #
coedge $-1 $115 $115 $184 $185 reversed $72 $-1 #
face $-1 $-1 $186 $38 $-1 $187 forward single #
loop $-1 $188 $189 $74 #
cone-surface $-1 37.902127001774758 18.80711978648413 1.950340247234128 0 -0.74314483375859142 -0.66913059716165679 0.5 0 0 1 I I -0.70710678118654746 0.70710678118654746 0.5 forward I I I I #
loop $-1 $-1 $190 $48 #
coedge $-1 $120 $120 $191 $192 reversed $75 $-1 #
face $-1 $-1 $193 $39 $-1 $194 forward single #
loop $-1 $195 $196 $77 #
cone-surface $-1 41.485628778553476 18.80711978648413 1.950340247234128 0 -0.74314483375859142 -0.66913059716165679 0.5 0 0 1 I I -0.70710678118654746 0.70710678118654746 0.5 forward I I I I #
loop $-1 $-1 $197 $49 #
coedge $-1 $125 $125 $198 $199 reversed $78 $-1 #
face $-1 $200 $201 $30 $-1 $202 reversed single #
loop $-1 $-1 $203 $80 #
plane-surface $-1 0 -22.085808785146789 0 0 1 0 0 0 1 forward_v I I I I #
coedge $-1 $204 $205 $206 $207 forward $81 $-1 #
coedge $-1 $208 $83 $209 $210 forward $51 $-1 #
coedge $-1 $83 $208 $211 $212 forward $51 $-1 #
coedge $-1 $213 $214 $83 $133 reversed $215 $-1 #
edge $-1 $216 -22.085808785146789 $217 22.085808785146789 $132 $218 forward 7 unknown #
face $-1 $219 $220 $31 $-1 $221 reversed single #
loop $-1 $-1 $222 $84 #
plane-surface $-1 -37.199589451077784 -13.096616722569978 0 -1 0 0 0 0 1 forward_v I I I I #
coedge $-1 $223 $224 $225 $226 forward $85 $-1 #
coedge $-1 $227 $87 $228 $229 reversed $54 $-1 #
coedge $-1 $87 $227 $230 $231 reversed $54 $-1 #
coedge $-1 $232 $233 $87 $141 forward $234 $-1 #
edge $-1 $235 -5.2445960312884052 $236 5.2445960312884052 $140 $237 forward 7 unknown #
face $-1 $238 $239 $32 $-1 $240 forward single #
loop $-1 $-1 $241 $88 #
plane-surface $-1 0 -22.085808785146789 0 0 1 0 0 0 1 forward_v I I I I #
coedge $-1 $242 $243 $244 $245 reversed $89 $-1 #
coedge $-1 $246 $91 $247 $248 reversed $57 $-1 #
coedge $-1 $91 $246 $242 $249 forward $57 $-1 #
coedge $-1 $244 $250 $91 $149 forward $239 $-1 #
edge $-1 $251 -24.923566462185228 $252 -12.978560539589516 $148 $253 forward 7 unknown #
loop $-1 $-1 $155 $92 #
plane-surface $-1 37.902127001774744 -22.085808785146796 1.6295875419879806 0 -0.74314483375859142 0.66913059716165679 1 0 0 forward_v I I I I #
loop $-1 $-1 $254 $59 #
coedge $-1 $153 $153 $154 $255 reversed $93 $-1 #
coedge $-1 $154 $154 $153 $255 forward $95 $-1 #
coedge $-1 $155 $155 $96 $156 forward $150 $-1 #
edge $-1 $256 -5.2590278156781236e-016 $256 6.2831853071795996 $155 $257 forward 7 unknown #
loop $-1 $-1 $162 $97 #
plane-surface $-1 37.902127001774744 -22.085808785146796 1.6295875419879806 0 -0.74314483375859142 0.66913059716165679 1 0 0 forward_v I I I I #
loop $-1 $-1 $258 $62 #
coedge $-1 $160 $160 $161 $259 reversed $98 $-1 #
coedge $-1 $161 $161 $160 $259 forward $100 $-1 #
coedge $-1 $162 $162 $101 $163 forward $157 $-1 #
edge $-1 $260 -5.2590278156781236e-016 $260 6.2831853071795996 $162 $261 forward 7 unknown #
loop $-1 $-1 $169 $102 #
plane-surface $-1 37.902127001774744 -22.085808785146796 1.6295875419879806 0 -0.74314483375859142 0.66913059716165679 1 0 0 forward_v I I I I #
loop $-1 $-1 $262 $65 #
coedge $-1 $167 $167 $168 $263 reversed $103 $-1 #
coedge $-1 $168 $168 $167 $263 forward $105 $-1 #
coedge $-1 $169 $169 $106 $170 forward $164 $-1 #
edge $-1 $264 -5.2590278156781236e-016 $264 6.2831853071795996 $169 $265 forward 7 unknown #
face $-1 $266 $267 $36 $-1 $268 reversed single #
loop $-1 $-1 $269 $107 #
plane-surface $-1 43.874629963072607 0 0 -1 0 0 0 0 1 forward_v I I I I #
coedge $-1 $270 $271 $272 $273 reversed $108 $-1 #
coedge $-1 $274 $110 $269 $275 reversed $69 $-1 #
coedge $-1 $110 $274 $270 $276 forward $69 $-1 #
coedge $-1 $272 $277 $110 $178 forward $267 $-1 #
edge $-1 $278 -24.923566462185235 $279 -12.978560539589516 $177 $280 forward 7 unknown #
loop $-1 $-1 $184 $111 #
plane-surface $-1 37.902127001774744 -7.4707720572600849 34.455496938111864 0 0.74314483375859142 0.66913059716165679 1 0 0 forward_v I I I I #
loop $-1 $-1 $281 $71 #
coedge $-1 $182 $182 $183 $282 reversed $112 $-1 #
coedge $-1 $183 $183 $182 $282 forward $114 $-1 #
coedge $-1 $184 $184 $115 $185 forward $179 $-1 #
edge $-1 $283 -1.9588017953980311e-016 $283 6.2831853071796004 $184 $284 forward 7 unknown #
loop $-1 $-1 $191 $116 #
plane-surface $-1 37.902127001774744 -7.4707720572600849 34.455496938111864 0 0.74314483375859142 0.66913059716165679 1 0 0 forward_v I I I I #
loop $-1 $-1 $285 $74 #
coedge $-1 $189 $189 $190 $286 reversed $117 $-1 #
coedge $-1 $190 $190 $189 $286 forward $119 $-1 #
coedge $-1 $191 $191 $120 $192 forward $186 $-1 #
edge $-1 $287 -1.9588017953980311e-016 $287 6.2831853071796004 $191 $288 forward 7 unknown #
loop $-1 $-1 $198 $121 #
plane-surface $-1 37.902127001774744 -7.4707720572600849 34.455496938111864 0 0.74314483375859142 0.66913059716165679 1 0 0 forward_v I I I I #
loop $-1 $-1 $289 $77 #
coedge $-1 $196 $196 $197 $290 reversed $122 $-1 #
coedge $-1 $197 $197 $196 $290 forward $124 $-1 #
coedge $-1 $198 $198 $125 $199 forward $193 $-1 #
edge $-1 $291 -1.9588017953980311e-016 $291 6.2831853071796004 $198 $292 forward 7 unknown #
face $-1 $293 $294 $30 $-1 $295 reversed single #
loop $-1 $-1 $296 $126 #
plane-surface $-1 -43.874629963072607 0 0 1 0 0 0 0 -1 forward_v I I I I #
coedge $-1 $297 $211 $298 $299 forward $127 $-1 #
coedge $-1 $300 $129 $297 $301 forward $81 $-1 #
coedge $-1 $129 $300 $302 $303 forward $81 $-1 #
coedge $-1 $214 $213 $129 $207 reversed $215 $-1 #
edge $-1 $304 -22.085808785146789 $305 22.085808785146789 $206 $306 forward 7 unknown #
coedge $-1 $131 $130 $307 $308 forward $51 $-1 #
coedge $-1 $309 $310 $130 $210 reversed $294 $-1 #
edge $-1 $217 -43.874629963072607 $311 43.874629963072607 $209 $312 forward 7 unknown #
coedge $-1 $203 $313 $131 $212 reversed $127 $-1 #
edge $-1 $314 -43.874629963072607 $216 43.874629963072607 $211 $315 forward 7 unknown #
coedge $-1 $206 $132 $313 $316 forward $215 $-1 #
coedge $-1 $132 $206 $309 $317 reversed $215 $-1 #
loop $-1 $-1 $213 $293 #
vertex $-1 $133 $318 #
vertex $-1 $133 $319 #
straight-curve $-1 43.874629963072607 0 5.2445960312884052 0 1 0 I I #
face $-1 $320 $321 $31 $-1 $322 forward single #
loop $-1 $-1 $323 $134 #
plane-surface $-1 0 0 -5.2445960312884052 0 0 1 1 0 0 forward_v I I I I #
coedge $-1 $324 $325 $227 $326 forward $135 $-1 #
coedge $-1 $327 $137 $323 $328 reversed $85 $-1 #
coedge $-1 $137 $327 $329 $330 reversed $85 $-1 #
coedge $-1 $325 $324 $137 $226 reversed $135 $-1 #
edge $-1 $331 -5.2445960312884052 $332 5.2445960312884052 $225 $333 forward 7 unknown #
coedge $-1 $139 $138 $222 $326 reversed $54 $-1 #
coedge $-1 $334 $335 $138 $229 forward $220 $-1 #
edge $-1 $336 16.931034597540187 $235 23.606075109535009 $228 $337 forward 7 unknown #
coedge $-1 $338 $339 $139 $231 forward $321 $-1 #
edge $-1 $236 -23.606075109535009 $340 -16.931034597540187 $230 $341 forward 7 unknown #
coedge $-1 $342 $140 $339 $343 reversed $234 $-1 #
coedge $-1 $140 $342 $334 $344 reversed $234 $-1 #
loop $-1 $-1 $342 $320 #
vertex $-1 $344 $345 #
vertex $-1 $141 $346 #
straight-curve $-1 -43.874629963072607 -14.596616722569978 0 0 0 1 I I #
face $-1 $-1 $347 $32 $-1 $348 reversed single #
loop $-1 $-1 $244 $142 #
plane-surface $-1 0 0 5.2445960312884052 0 0 1 1 0 0 forward_v I I I I #
coedge $-1 $349 $350 $243 $351 forward $143 $-1 #
coedge $-1 $243 $145 $147 $249 reversed $89 $-1 #
coedge $-1 $145 $242 $241 $351 reversed $89 $-1 #
coedge $-1 $352 $148 $145 $245 forward $239 $-1 #
edge $-1 $252 -24.817268380479916 $353 -21.562300197553917 $244 $354 forward 7 unknown #
coedge $-1 $147 $146 $349 $355 reversed $57 $-1 #
coedge $-1 $356 $357 $146 $248 forward $347 $-1 #
edge $-1 $358 -6.7836354291088456 $251 -1.9191617423083238 $247 $359 forward 7 unknown #
edge $-1 $360 1.0694865687384493e-014 $252 4.8644736868005332 $242 $361 forward 7 unknown #
coedge $-1 $148 $352 $356 $362 forward $239 $-1 #
vertex $-1 $248 $363 #
vertex $-1 $149 $364 #
straight-curve $-1 18.951063500887372 -18.830840602220785 5.2445960312884052 -1 0 0 I I #
coedge $-1 $254 $254 $-1 $365 reversed $152 $-1 #
edge $-1 $366 0 $366 6.2831853071796004 $153 $367 forward 7 unknown #
vertex $-1 $156 $368 #
ellipse-curve $-1 34.31862522499604 -20.458324693683789 3.4370917866381956 0 -0.74314483375859142 0.66913059716165679 1 0 0 1 I I #
coedge $-1 $258 $258 $-1 $369 reversed $159 $-1 #
edge $-1 $370 0 $370 6.2831853071796004 $160 $371 forward 7 unknown #
vertex $-1 $163 $372 #
ellipse-curve $-1 37.902127001774758 -20.458324693683789 3.4370917866381956 0 -0.74314483375859142 0.66913059716165679 1 0 0 1 I I #
coedge $-1 $262 $262 $-1 $373 reversed $166 $-1 #
edge $-1 $374 0 $374 6.2831853071796004 $167 $375 forward 7 unknown #
vertex $-1 $170 $376 #
ellipse-curve $-1 41.485628778553476 -20.458324693683789 3.4370917866381956 0 -0.74314483375859142 0.66913059716165679 1 0 0 1 I I #
face $-1 $-1 $377 $36 $-1 $378 forward single #
loop $-1 $-1 $177 $171 #
plane-surface $-1 0 22.085808785146789 0 0 -1 0 0 0 -1 forward_v I I I I #
coedge $-1 $379 $380 $175 $275 forward $172 $-1 #
coedge $-1 $271 $174 $176 $276 reversed $108 $-1 #
coedge $-1 $174 $270 $381 $382 reversed $108 $-1 #
coedge $-1 $383 $177 $174 $273 forward $267 $-1 #
edge $-1 $279 -44.95601827450546 $384 -41.341009785205024 $272 $385 forward 7 unknown #
coedge $-1 $176 $175 $386 $387 reversed $69 $-1 #
edge $-1 $388 24.004970527455093 $278 28.869444214255644 $269 $389 forward 7 unknown #
edge $-1 $390 39.307143883493026 $279 44.171617570293577 $270 $391 forward 7 unknown #
coedge $-1 $177 $383 $379 $392 forward $267 $-1 #
vertex $-1 $178 $393 #
vertex $-1 $178 $394 #
straight-curve $-1 18.951063500887372 22.085808785146789 1.6295875419879646 -1 0 0 I I #
coedge $-1 $281 $281 $-1 $395 reversed $181 $-1 #
edge $-1 $396 0 $396 6.2831853071796004 $182 $397 forward 7 unknown #
vertex $-1 $185 $398 #
ellipse-curve $-1 34.31862522499604 20.458324693683778 3.4370917866381863 0 0.74314483375859142 0.66913059716165679 1 0 0 1 I I #
coedge $-1 $285 $285 $-1 $399 reversed $188 $-1 #
edge $-1 $400 0 $400 6.2831853071796004 $189 $401 forward 7 unknown #
vertex $-1 $192 $402 #
ellipse-curve $-1 37.902127001774758 20.458324693683778 3.4370917866381863 0 0.74314483375859142 0.66913059716165679 1 0 0 1 I I #
coedge $-1 $289 $289 $-1 $403 reversed $195 $-1 #
edge $-1 $404 0 $404 6.2831853071796004 $196 $405 forward 7 unknown #
vertex $-1 $199 $406 #
ellipse-curve $-1 41.485628778553476 20.458324693683778 3.4370917866381863 0 0.74314483375859142 0.66913059716165679 1 0 0 1 I I #
face $-1 $-1 $215 $30 $-1 $407 reversed single #
loop $-1 $-1 $309 $200 #
plane-surface $-1 0 22.085808785146789 0 0 -1 0 0 0 -1 forward_v I I I I #
coedge $-1 $408 $307 $310 $409 forward $201 $-1 #
coedge $-1 $313 $203 $204 $301 reversed $127 $-1 #
coedge $-1 $307 $408 $203 $299 reversed $201 $-1 #
edge $-1 $314 -5.2445960312884052 $410 5.2445960312884052 $298 $411 forward 7 unknown #
coedge $-1 $205 $204 $408 $412 forward $81 $-1 #
edge $-1 $305 -43.874629963072607 $410 43.874629963072607 $297 $413 forward 7 unknown #
coedge $-1 $310 $309 $205 $303 reversed $294 $-1 #
edge $-1 $414 -43.874629963072607 $304 43.874629963072607 $302 $415 forward 7 unknown #
vertex $-1 $207 $416 #
vertex $-1 $316 $417 #
straight-curve $-1 43.874629963072607 0 -5.2445960312884052 0 -1 0 I I #
coedge $-1 $296 $298 $208 $308 reversed $201 $-1 #
edge $-1 $311 -22.085808785146789 $314 22.085808785146789 $307 $418 forward 7 unknown #
coedge $-1 $302 $209 $214 $317 forward $294 $-1 #
coedge $-1 $209 $302 $296 $409 reversed $294 $-1 #
vertex $-1 $210 $419 #
straight-curve $-1 0 22.085808785146789 5.2445960312884052 -1 0 0 I I #
coedge $-1 $211 $297 $213 $316 reversed $127 $-1 #
vertex $-1 $308 $420 #
straight-curve $-1 0 -22.085808785146789 5.2445960312884052 1 0 0 I I #
edge $-1 $216 -5.2445960312884052 $305 5.2445960312884052 $213 $421 forward 7 unknown #
edge $-1 $217 -5.2445960312884052 $304 5.2445960312884052 $214 $422 forward 7 unknown #
point $-1 43.874629963072607 -22.085808785146789 5.2445960312884052 #
point $-1 43.874629963072607 22.085808785146789 5.2445960312884052 #
face $-1 $-1 $234 $31 $-1 $423 reversed single #
loop $-1 $-1 $329 $219 #
plane-surface $-1 0 0 5.2445960312884052 0 0 1 1 0 0 forward_v I I I I #
coedge $-1 $335 $334 $223 $328 forward $220 $-1 #
coedge $-1 $225 $222 $335 $424 reversed $135 $-1 #
coedge $-1 $222 $225 $338 $425 reversed $135 $-1 #
edge $-1 $340 -5.2445960312884052 $336 5.2445960312884052 $222 $426 forward 7 unknown #
coedge $-1 $224 $223 $342 $427 reversed $85 $-1 #
edge $-1 $428 -23.606075109535009 $332 -16.931034597540187 $323 $429 forward 7 unknown #
coedge $-1 $339 $338 $224 $330 forward $321 $-1 #
edge $-1 $331 16.931034597540187 $430 23.606075109535009 $329 $431 forward 7 unknown #
vertex $-1 $330 $432 #
vertex $-1 $328 $433 #
straight-curve $-1 -37.199589451077784 -11.596616722569978 0 0 0 -1 I I #
coedge $-1 $323 $228 $233 $344 forward $220 $-1 #
coedge $-1 $228 $323 $324 $424 forward $220 $-1 #
vertex $-1 $229 $434 #
straight-curve $-1 -20.268554853537598 -14.596616722569978 -5.2445960312884052 -1 0 0 I I #
coedge $-1 $329 $230 $325 $425 forward $321 $-1 #
coedge $-1 $230 $329 $232 $343 forward $321 $-1 #
vertex $-1 $231 $435 #
straight-curve $-1 -20.268554853537598 -14.596616722569978 5.2445960312884052 1 0 0 I I #
coedge $-1 $233 $232 $327 $427 forward $234 $-1 #
edge $-1 $430 11.596616722569978 $236 14.596616722569978 $232 $436 forward 7 unknown #
edge $-1 $235 -14.596616722569978 $428 -11.596616722569978 $233 $437 forward 7 unknown #
point $-1 -43.874629963072607 -14.596616722569978 -5.2445960312884052 #
point $-1 -43.874629963072607 -14.596616722569978 5.2445960312884052 #
loop $-1 $-1 $247 $238 #
plane-surface $-1 43.874629963072607 0 0 -1 0 0 0 0 1 forward_v I I I I #
coedge $-1 $438 $241 $246 $355 forward $143 $-1 #
coedge $-1 $241 $438 $352 $439 reversed $143 $-1 #
edge $-1 $353 24.928055087143079 $360 28.543063576443497 $241 $440 forward 7 unknown #
coedge $-1 $250 $244 $350 $439 forward $239 $-1 #
vertex $-1 $439 $441 #
straight-curve $-1 31.929624040476888 -43.648108982700705 5.2445960312884061 0 -1 0 I I #
edge $-1 $360 12.978560539589516 $358 24.923566462185228 $349 $442 forward 7 unknown #
coedge $-1 $357 $247 $250 $362 reversed $347 $-1 #
coedge $-1 $247 $356 $438 $443 forward $347 $-1 #
vertex $-1 $355 $444 #
straight-curve $-1 43.874629963072607 -17.546670759540213 6.6708111652319717 0 0.66913059716165679 0.74314483375859142 I I #
vertex $-1 $355 $445 #
straight-curve $-1 31.929624040476888 -22.085808785146796 1.6295875419879806 0 0.66913059716165679 0.74314483375859142 I I #
edge $-1 $446 -22.085808785146789 $251 -18.830840602220789 $356 $447 forward 7 unknown #
point $-1 43.8746299630726 -18.830840602220789 5.2445960312884052 #
point $-1 31.929624040476888 -18.830840602220789 5.2445960312884052 #
edge $-1 $448 1 $448 0 $254 $-1 forward 7 unknown #
vertex $-1 $255 $449 #
ellipse-curve $-1 34.31862522499604 -19.178692203363422 2.2849055458149521 0 -0.74314483375859142 0.66913059716165679 1 0 0 1 I I #
point $-1 35.31862522499604 -20.458324693683782 3.4370917866381885 #
edge $-1 $450 1 $450 0 $258 $-1 forward 7 unknown #
vertex $-1 $259 $451 #
ellipse-curve $-1 37.902127001774758 -19.178692203363422 2.2849055458149521 0 -0.74314483375859142 0.66913059716165679 1 0 0 1 I I #
point $-1 38.902127001774758 -20.458324693683782 3.4370917866381885 #
edge $-1 $452 1 $452 0 $262 $-1 forward 7 unknown #
vertex $-1 $263 $453 #
ellipse-curve $-1 41.485628778553476 -19.178692203363422 2.2849055458149521 0 -0.74314483375859142 0.66913059716165679 1 0 0 1 I I #
point $-1 42.485628778553476 -20.458324693683782 3.4370917866381885 #
loop $-1 $-1 $386 $266 #
plane-surface $-1 0 0 5.2445960312884052 0 0 1 1 0 0 forward_v I I I I #
coedge $-1 $380 $269 $277 $392 reversed $172 $-1 #
coedge $-1 $269 $379 $454 $455 reversed $172 $-1 #
coedge $-1 $386 $456 $271 $382 forward $377 $-1 #
edge $-1 $384 6.7840097763504765 $390 10.038977959276497 $381 $457 forward 7 unknown #
coedge $-1 $277 $272 $456 $458 reversed $267 $-1 #
vertex $-1 $273 $459 #
straight-curve $-1 31.929624040476888 22.085808785146789 46.585605816493427 0 0 1 I I #
coedge $-1 $454 $381 $274 $387 forward $377 $-1 #
edge $-1 $390 12.978560539589516 $388 24.923566462185228 $386 $460 forward 7 unknown #
vertex $-1 $455 $461 #
straight-curve $-1 43.874629963072607 2.768380338336768 23.083765863293909 0 0.66913059716165679 -0.74314483375859142 I I #
vertex $-1 $387 $462 #
straight-curve $-1 31.929624040476888 -7.4707720572600849 34.455496938111864 0 0.66913059716165679 -0.74314483375859142 I I #
edge $-1 $463 -5.2445960312884052 $278 -1.6295875419879655 $379 $464 forward 7 unknown #
point $-1 43.874629963072607 22.085808785146789 1.6295875419879655 #
point $-1 31.929624040476888 22.085808785146789 1.6295875419879664 #
edge $-1 $465 1 $465 0 $281 $-1 forward 7 unknown #
vertex $-1 $282 $466 #
ellipse-curve $-1 34.31862522499604 19.178692203363426 2.2849055458149565 0 0.74314483375859142 0.66913059716165679 1 0 0 1 I I #
point $-1 35.31862522499604 20.458324693683785 3.4370917866381929 #
edge $-1 $467 1 $467 0 $285 $-1 forward 7 unknown #
vertex $-1 $286 $468 #
ellipse-curve $-1 37.902127001774758 19.178692203363426 2.2849055458149565 0 0.74314483375859142 0.66913059716165679 1 0 0 1 I I #
point $-1 38.902127001774758 20.458324693683785 3.4370917866381929 #
edge $-1 $469 1 $469 0 $289 $-1 forward 7 unknown #
vertex $-1 $290 $470 #
ellipse-curve $-1 41.485628778553476 19.178692203363426 2.2849055458149565 0 0.74314483375859142 0.66913059716165679 1 0 0 1 I I #
point $-1 42.485628778553476 20.458324693683785 3.4370917866381929 #
plane-surface $-1 43.874629963072607 0 0 -1 0 0 0 0 1 forward_v I I I I #
coedge $-1 $298 $296 $300 $412 reversed $201 $-1 #
edge $-1 $311 -5.2445960312884052 $414 5.2445960312884052 $310 $471 forward 7 unknown #
vertex $-1 $412 $472 #
straight-curve $-1 -43.874629963072607 -22.085808785146789 0 0 0 -1 I I #
edge $-1 $410 -22.085808785146789 $414 22.085808785146789 $408 $473 forward 7 unknown #
straight-curve $-1 0 -22.085808785146789 -5.2445960312884052 -1 0 0 I I #
vertex $-1 $303 $474 #
straight-curve $-1 0 22.085808785146789 -5.2445960312884052 1 0 0 I I #
point $-1 43.874629963072607 22.085808785146789 -5.2445960312884052 #
point $-1 43.874629963072607 -22.085808785146789 -5.2445960312884052 #
straight-curve $-1 -43.874629963072607 0 5.2445960312884052 0 -1 0 I I #
point $-1 -43.874629963072607 22.085808785146789 5.2445960312884052 #
point $-1 -43.874629963072607 -22.085808785146789 5.2445960312884052 #
straight-curve $-1 43.874629963072607 -22.085808785146789 0 0 0 -1 I I #
straight-curve $-1 43.874629963072607 22.085808785146789 0 0 0 -1 I I #
plane-surface $-1 -43.874629963072607 0 0 1 0 0 0 0 -1 forward_v I I I I #
edge $-1 $332 5.0483083612849891 $336 8.0483083612849882 $335 $475 forward 7 unknown #
edge $-1 $340 -8.0483083612849882 $331 -5.0483083612849891 $338 $476 forward 7 unknown #
straight-curve $-1 -37.199589451077784 -14.596616722569978 0 0 0 -1 I I #
edge $-1 $430 -5.2445960312884052 $428 5.2445960312884052 $342 $477 forward 7 unknown #
vertex $-1 $427 $478 #
straight-curve $-1 -20.268554853537598 -11.596616722569978 -5.2445960312884052 1 0 0 I I #
vertex $-1 $343 $479 #
straight-curve $-1 -20.268554853537598 -11.596616722569978 5.2445960312884052 -1 0 0 I I #
point $-1 -37.199589451077784 -11.596616722569978 5.2445960312884052 #
point $-1 -37.199589451077784 -11.596616722569978 -5.2445960312884052 #
point $-1 -37.199589451077784 -14.596616722569978 -5.2445960312884052 #
point $-1 -37.199589451077784 -14.596616722569978 5.2445960312884052 #
straight-curve $-1 -43.874629963072607 0 5.2445960312884052 0 -1 0 I I #
straight-curve $-1 -43.874629963072607 0 -5.2445960312884052 0 1 0 I I #
coedge $-1 $350 $349 $357 $443 reversed $143 $-1 #
edge $-1 $353 31.929624040476888 $446 43.874629963072607 $350 $480 forward 7 unknown #
straight-curve $-1 31.929624040476888 -22.085808785146789 30.172651118431485 0 0 -1 I I #
point $-1 31.929624040476888 -22.085808785146789 5.2445960312884052 #
straight-curve $-1 18.951063500887372 -22.085808785146789 1.6295875419879899 1 0 0 I I #
edge $-1 $446 -5.2445960312884052 $358 -1.6295875419879886 $357 $481 forward 7 unknown #
point $-1 43.8746299630726 -22.085808785146789 1.6295875419879886 #
point $-1 31.929624040476888 -22.085808785146789 1.6295875419879886 #
vertex $-1 $362 $482 #
straight-curve $-1 43.874629963072607 0 5.2445960312884052 0 1 0 I I #
vertex $-1 $365 $483 #
point $-1 35.31862522499604 -19.178692203363422 2.2849055458149521 #
vertex $-1 $369 $484 #
point $-1 38.902127001774758 -19.178692203363422 2.2849055458149521 #
vertex $-1 $373 $485 #
point $-1 42.485628778553476 -19.178692203363422 2.2849055458149521 #
coedge $-1 $456 $386 $380 $455 forward $377 $-1 #
edge $-1 $388 18.830840602220768 $463 22.085808785146789 $380 $486 forward 7 unknown #
coedge $-1 $381 $454 $383 $458 forward $377 $-1 #
straight-curve $-1 31.929624040476888 28.869818561497265 5.2445960312884026 0 -1 0 I I #
edge $-1 $463 -43.874629963072607 $384 -31.929624040476888 $383 $487 forward 7 unknown #
point $-1 31.929624040476888 22.085808785146789 5.2445960312884052 #
straight-curve $-1 18.951063500887372 18.830840602220768 5.2445960312884061 1 0 0 I I #
point $-1 43.8746299630726 18.830840602220768 5.2445960312884061 #
point $-1 31.929624040476888 18.830840602220768 5.2445960312884061 #
vertex $-1 $455 $488 #
straight-curve $-1 43.874629963072607 22.085808785146789 0 0 0 -1 I I #
vertex $-1 $395 $489 #
point $-1 35.31862522499604 19.178692203363426 2.2849055458149565 #
vertex $-1 $399 $490 #
point $-1 38.902127001774758 19.178692203363426 2.2849055458149565 #
vertex $-1 $403 $491 #
point $-1 42.485628778553476 19.178692203363426 2.2849055458149565 #
straight-curve $-1 -43.874629963072607 22.085808785146789 0 0 0 -1 I I #
point $-1 -43.874629963072607 -22.085808785146789 -5.2445960312884052 #
straight-curve $-1 -43.874629963072607 0 -5.2445960312884052 0 1 0 I I #
point $-1 -43.874629963072607 22.085808785146789 -5.2445960312884052 #
straight-curve $-1 -37.199589451077784 -6.5483083612849891 -5.2445960312884052 0 -1 0 I I #
straight-curve $-1 -37.199589451077784 -6.5483083612849891 5.2445960312884052 0 1 0 I I #
straight-curve $-1 -43.874629963072607 -11.596616722569978 0 0 0 -1 I I #
point $-1 -43.874629963072607 -11.596616722569978 -5.2445960312884052 #
point $-1 -43.874629963072607 -11.596616722569978 5.2445960312884052 #
straight-curve $-1 0 -22.085808785146789 5.2445960312884052 1 0 0 I I #
straight-curve $-1 43.874629963072607 -22.085808785146789 0 0 0 -1 I I #
point $-1 43.874629963072607 -22.085808785146789 5.2445960312884052 #
point $-1 34.31862522499604 -18.43554736960483 1.6157749486532951 #
point $-1 37.902127001774758 -18.43554736960483 1.6157749486532951 #
point $-1 41.485628778553476 -18.43554736960483 1.6157749486532951 #
straight-curve $-1 43.874629963072607 0 5.2445960312884052 0 1 0 I I #
straight-curve $-1 0 22.085808785146789 5.2445960312884052 -1 0 0 I I #
point $-1 43.874629963072607 22.085808785146789 5.2445960312884052 #
point $-1 34.31862522499604 18.435547369604834 1.6157749486532995 #
point $-1 37.902127001774758 18.435547369604834 1.6157749486532995 #
point $-1 41.485628778553476 18.435547369604834 1.6157749486532995 #
End-of-ACIS-data 