500 0 5 0           
7 Unknown 11 ACIS 5.0 NT 24 Fri Mar 26 17:18:17 1999 
-1 9.9999999999999995e-007 1e-010 
body $-1 $5 $-1 $6 #
body $-1 $7 $-1 $8 #
body $-1 $9 $-1 $10 #
body $-1 $11 $-1 $12 #
body $-1 $13 $-1 $14 #
lump $-1 $-1 $15 $0 #
transform $-1 1 0 0 0 1 0 0 0 1 49.800103762932217 29.265141087603919 13.193740553502881 1 rotate no_reflect no_shear #
lump $-1 $-1 $16 $1 #
transform $-1 1 0 0 0 1 0 0 0 1 49.800103762932217 29.265141087603919 13.193740553502881 1 rotate no_reflect no_shear #
lump $-1 $-1 $17 $2 #
transform $-1 1 0 0 0 1 0 0 0 1 49.800103762932217 29.265141087603919 13.193740553502881 1 rotate no_reflect no_shear #
lump $-1 $-1 $18 $3 #
transform $-1 1 0 0 0 1 0 0 0 1 49.800103762932217 29.265141087603919 13.193740553502881 1 rotate no_reflect no_shear #
lump $-1 $-1 $19 $4 #
transform $-1 1 0 0 0 1 0 0 0 1 49.800103762932217 29.265141087603919 13.193740553502881 1 rotate no_reflect no_shear #
shell $-1 $-1 $-1 $20 $-1 $5 #
shell $-1 $-1 $-1 $21 $-1 $7 #
shell $-1 $-1 $-1 $22 $-1 $9 #
shell $-1 $-1 $-1 $23 $-1 $11 #
shell $-1 $-1 $-1 $24 $-1 $13 #
face $-1 $25 $26 $15 $-1 $27 forward single #
face $-1 $28 $29 $16 $-1 $30 reversed single #
face $-1 $31 $32 $17 $-1 $33 reversed single #
face $-1 $34 $35 $18 $-1 $36 forward single #
face $-1 $37 $38 $19 $-1 $39 forward single #
face $-1 $40 $41 $15 $-1 $42 reversed single #
loop $-1 $-1 $43 $20 #
plane-surface $-1 0 0 13.193740553502881 0 0 1 1 0 0 forward_v I I I I #
face $-1 $44 $45 $16 $-1 $46 reversed single #
loop $-1 $-1 $47 $21 #
plane-surface $-1 -41.809364544517933 0 6.1475494636268362 0 0 1 1 0 0 forward_v I I I I #
face $-1 $48 $49 $17 $-1 $50 reversed single #
loop $-1 $-1 $51 $22 #
plane-surface $-1 35.670594296715642 -105.56332742164051 67.929477396021042 -1 0 0 0 -0.7660444514056185 0.64278759981090561 forward_v I I I I #
face $-1 $52 $53 $18 $-1 $54 forward single #
loop $-1 $55 $56 $23 #
cone-surface $-1 28.396713815268761 -24.413820366759403 7.7490743930880646 0 0.7660444514056185 -0.64278759981090561 1 0 0 1 I I 0 1 1 forward I I I I #
face $-1 $57 $58 $19 $-1 $59 forward single #
loop $-1 $60 $61 $24 #
cone-surface $-1 32.761042104136884 -24.413820366759403 7.7490743930880646 0 0.7660444514056185 -0.64278759981090561 1 0 0 1 I I 0 1 1 forward I I I I #
face $-1 $62 $63 $15 $-1 $64 reversed single #
loop $-1 $-1 $65 $25 #
plane-surface $-1 0 0 -13.193740553502881 0 0 1 1 0 0 forward_v I I I I #
coedge $-1 $66 $67 $68 $69 forward $26 $-1 #
face $-1 $70 $71 $16 $-1 $72 reversed single #
loop $-1 $-1 $73 $28 #
plane-surface $-1 -33.81862532610365 0 9.6706450085648576 -1 0 0 0 0 1 forward_v I I I I #
coedge $-1 $74 $75 $76 $77 forward $29 $-1 #
face $-1 $78 $79 $17 $-1 $80 reversed single #
loop $-1 $-1 $81 $31 #
plane-surface $-1 30.57887795970283 -29.265141087603936 3.907699059802539 0 -0.7660444514056185 0.64278759981090561 1 0 0 forward_v I I I I #
coedge $-1 $82 $83 $84 $85 reversed $32 $-1 #
face $-1 $-1 $86 $18 $-1 $87 forward single #
loop $-1 $88 $89 $34 #
cone-surface $-1 28.396713815268761 -23.075434314441686 6.6260351796179684 0 0.7660444514056185 -0.64278759981090561 0.5 0 0 1 I I -0.70710678118654746 0.70710678118654746 0.5 forward I I I I #
loop $-1 $-1 $90 $23 #
coedge $-1 $56 $56 $91 $92 reversed $35 $-1 #
face $-1 $-1 $93 $19 $-1 $94 forward single #
loop $-1 $95 $96 $37 #
cone-surface $-1 32.761042104136884 -23.075434314441686 6.6260351796179684 0 0.7660444514056185 -0.64278759981090561 0.5 0 0 1 I I -0.70710678118654746 0.70710678118654746 0.5 forward I I I I #
loop $-1 $-1 $97 $24 #
coedge $-1 $61 $61 $98 $99 reversed $38 $-1 #
face $-1 $100 $101 $15 $-1 $102 reversed single #
loop $-1 $-1 $103 $40 #
plane-surface $-1 0 -29.265141087603919 0 0 1 0 0 0 1 forward_v I I I I #
coedge $-1 $104 $105 $106 $107 forward $41 $-1 #
coedge $-1 $108 $43 $109 $110 forward $26 $-1 #
coedge $-1 $43 $108 $111 $112 forward $26 $-1 #
coedge $-1 $113 $114 $43 $69 reversed $115 $-1 #
edge $-1 $116 -29.265141087603919 $117 29.265141087603919 $68 $118 forward 7 unknown #
face $-1 $119 $120 $16 $-1 $121 reversed single #
loop $-1 $-1 $122 $44 #
plane-surface $-1 0 29.265141087603919 0 0 -1 0 0 0 -1 forward_v I I I I #
coedge $-1 $76 $123 $124 $125 reversed $45 $-1 #
coedge $-1 $126 $47 $127 $128 reversed $29 $-1 #
coedge $-1 $47 $126 $129 $130 reversed $29 $-1 #
coedge $-1 $131 $73 $47 $77 reversed $45 $-1 #
edge $-1 $132 -29.265141087603919 $133 29.265141087603919 $76 $134 forward 7 unknown #
face $-1 $135 $136 $17 $-1 $137 reversed single #
loop $-1 $-1 $138 $48 #
plane-surface $-1 25.487161622690017 -105.56332742164051 67.929477396021042 1 0 0 0 0.7660444514056185 -0.64278759981090561 forward_v I I I I #
coedge $-1 $139 $140 $141 $142 reversed $49 $-1 #
coedge $-1 $83 $51 $143 $144 reversed $32 $-1 #
coedge $-1 $51 $82 $139 $145 reversed $32 $-1 #
coedge $-1 $141 $146 $51 $85 forward $147 $-1 #
edge $-1 $148 23.516522623216336 $149 31.30843641167554 $84 $150 forward 7 unknown #
loop $-1 $-1 $91 $52 #
plane-surface $-1 30.57887795970283 -29.265141087603936 3.907699059802539 0 -0.7660444514056185 0.64278759981090561 1 0 0 forward_v I I I I #
loop $-1 $-1 $151 $34 #
coedge $-1 $89 $89 $90 $152 reversed $53 $-1 #
coedge $-1 $90 $90 $89 $152 forward $55 $-1 #
coedge $-1 $91 $91 $56 $92 forward $86 $-1 #
edge $-1 $153 2.3307196909512706e-015 $153 6.2831853071796031 $91 $154 forward 7 unknown #
loop $-1 $-1 $98 $57 #
plane-surface $-1 30.57887795970283 -29.265141087603936 3.907699059802539 0 -0.7660444514056185 0.64278759981090561 1 0 0 forward_v I I I I #
loop $-1 $-1 $155 $37 #
coedge $-1 $96 $96 $97 $156 reversed $58 $-1 #
coedge $-1 $97 $97 $96 $156 forward $60 $-1 #
coedge $-1 $98 $98 $61 $99 forward $93 $-1 #
edge $-1 $157 2.3307196909512706e-015 $157 6.2831853071796031 $98 $158 forward 7 unknown #
face $-1 $159 $160 $15 $-1 $161 reversed single #
loop $-1 $-1 $162 $62 #
plane-surface $-1 -49.800103762932217 0 0 1 0 0 0 0 -1 forward_v I I I I #
coedge $-1 $163 $111 $164 $165 forward $63 $-1 #
coedge $-1 $166 $65 $163 $167 forward $41 $-1 #
coedge $-1 $65 $166 $168 $169 forward $41 $-1 #
coedge $-1 $114 $113 $65 $107 reversed $115 $-1 #
edge $-1 $170 -29.265141087603919 $171 29.265141087603919 $106 $172 forward 7 unknown #
coedge $-1 $67 $66 $173 $174 forward $26 $-1 #
coedge $-1 $175 $176 $66 $110 reversed $160 $-1 #
edge $-1 $117 -49.800103762932217 $177 49.800103762932217 $109 $178 forward 7 unknown #
coedge $-1 $103 $179 $67 $112 reversed $63 $-1 #
edge $-1 $180 -49.800103762932217 $116 49.800103762932217 $111 $181 forward 7 unknown #
coedge $-1 $106 $68 $179 $182 forward $115 $-1 #
coedge $-1 $68 $106 $175 $183 reversed $115 $-1 #
loop $-1 $-1 $113 $159 #
vertex $-1 $69 $184 #
vertex $-1 $69 $185 #
straight-curve $-1 49.800103762932217 0 13.193740553502881 0 1 0 I I #
face $-1 $186 $187 $16 $-1 $188 forward single #
loop $-1 $-1 $189 $70 #
plane-surface $-1 -49.800103762932217 0 0 1 0 0 0 0 -1 forward_v I I I I #
coedge $-1 $129 $190 $131 $191 forward $71 $-1 #
coedge $-1 $73 $131 $192 $193 reversed $45 $-1 #
coedge $-1 $194 $127 $73 $125 forward $195 $-1 #
edge $-1 $133 1.3122269593444074 $196 8.3584180492204503 $124 $197 forward 7 unknown #
coedge $-1 $75 $74 $189 $198 reversed $29 $-1 #
coedge $-1 $124 $199 $74 $128 forward $195 $-1 #
edge $-1 $200 -28.89542149067325 $133 -12.913943053844683 $127 $201 forward 7 unknown #
coedge $-1 $202 $122 $75 $130 forward $71 $-1 #
edge $-1 $132 12.913943053844683 $203 28.89542149067325 $129 $204 forward 7 unknown #
coedge $-1 $123 $76 $122 $191 reversed $45 $-1 #
vertex $-1 $130 $205 #
vertex $-1 $128 $206 #
straight-curve $-1 -33.81862532610365 0 6.1475494636268362 0 -1 0 I I #
face $-1 $-1 $147 $17 $-1 $207 forward single #
loop $-1 $-1 $208 $78 #
plane-surface $-1 0 -29.265141087603919 0 0 1 0 0 0 1 forward_v I I I I #
coedge $-1 $209 $210 $211 $212 reversed $79 $-1 #
coedge $-1 $213 $81 $83 $145 forward $49 $-1 #
coedge $-1 $81 $213 $209 $214 forward $49 $-1 #
coedge $-1 $211 $84 $81 $142 forward $147 $-1 #
edge $-1 $149 -20.381155316864227 $215 -10.197722642838603 $141 $216 forward 7 unknown #
coedge $-1 $217 $218 $82 $144 forward $136 $-1 #
edge $-1 $219 -30.057039638207961 $148 -20.77099814450764 $143 $220 forward 7 unknown #
edge $-1 $149 -12.122066123788697 $219 -2.7747421098525539e-014 $83 $221 forward 7 unknown #
coedge $-1 $84 $211 $217 $222 forward $147 $-1 #
loop $-1 $-1 $211 $135 #
vertex $-1 $144 $223 #
vertex $-1 $85 $224 #
straight-curve $-1 35.670594296715642 -52.781663710820254 13.193740553502881 0 1 0 I I #
coedge $-1 $151 $151 $-1 $225 reversed $88 $-1 #
edge $-1 $226 0 $226 6.2831853071796004 $89 $227 forward 7 unknown #
vertex $-1 $92 $228 #
ellipse-curve $-1 28.396713815268761 -25.36918419337432 8.550719806652717 0 -0.7660444514056185 0.64278759981090561 1 0 0 1 I I #
coedge $-1 $155 $155 $-1 $229 reversed $95 $-1 #
edge $-1 $230 0 $230 6.2831853071796004 $96 $231 forward 7 unknown #
vertex $-1 $99 $232 #
ellipse-curve $-1 32.761042104136884 -25.36918419337432 8.550719806652717 0 -0.7660444514056185 0.64278759981090561 1 0 0 1 I I #
face $-1 $-1 $115 $15 $-1 $233 reversed single #
loop $-1 $-1 $175 $100 #
plane-surface $-1 0 29.265141087603919 0 0 -1 0 0 0 -1 forward_v I I I I #
coedge $-1 $234 $173 $176 $235 forward $101 $-1 #
coedge $-1 $179 $103 $104 $167 reversed $63 $-1 #
coedge $-1 $173 $234 $103 $165 reversed $101 $-1 #
edge $-1 $180 -13.193740553502881 $236 13.193740553502881 $164 $237 forward 7 unknown #
coedge $-1 $105 $104 $234 $238 forward $41 $-1 #
edge $-1 $171 -49.800103762932217 $236 49.800103762932217 $163 $239 forward 7 unknown #
coedge $-1 $176 $175 $105 $169 reversed $160 $-1 #
edge $-1 $240 -49.800103762932217 $170 49.800103762932217 $168 $241 forward 7 unknown #
vertex $-1 $107 $242 #
vertex $-1 $182 $243 #
straight-curve $-1 49.800103762932217 0 -13.193740553502881 0 -1 0 I I #
coedge $-1 $162 $164 $108 $174 reversed $101 $-1 #
edge $-1 $177 -29.265141087603919 $180 29.265141087603919 $173 $244 forward 7 unknown #
coedge $-1 $168 $109 $114 $183 forward $160 $-1 #
coedge $-1 $109 $168 $162 $235 reversed $160 $-1 #
vertex $-1 $110 $245 #
straight-curve $-1 0 29.265141087603919 13.193740553502881 -1 0 0 I I #
coedge $-1 $111 $163 $113 $182 reversed $63 $-1 #
vertex $-1 $174 $246 #
straight-curve $-1 0 -29.265141087603919 13.193740553502881 1 0 0 I I #
edge $-1 $116 -13.193740553502881 $171 13.193740553502881 $113 $247 forward 7 unknown #
edge $-1 $117 -13.193740553502881 $170 13.193740553502881 $114 $248 forward 7 unknown #
point $-1 49.800103762932217 -29.265141087603919 13.193740553502881 #
point $-1 49.800103762932217 29.265141087603919 13.193740553502881 #
face $-1 $-1 $195 $16 $-1 $249 reversed single #
loop $-1 $-1 $192 $119 #
plane-surface $-1 0 0 13.193740553502881 0 0 1 1 0 0 forward_v I I I I #
coedge $-1 $250 $251 $126 $198 forward $120 $-1 #
coedge $-1 $122 $202 $252 $253 reversed $71 $-1 #
edge $-1 $254 -8.3584180492204503 $132 -1.3122269593444074 $122 $255 forward 7 unknown #
coedge $-1 $252 $256 $123 $193 forward $187 $-1 #
edge $-1 $196 -29.265141087603919 $254 29.265141087603919 $192 $257 forward 7 unknown #
coedge $-1 $199 $124 $256 $258 reversed $195 $-1 #
loop $-1 $-1 $124 $186 #
vertex $-1 $125 $259 #
straight-curve $-1 -33.81862532610365 -29.265141087603919 4.8353225042824288 0 0 1 I I #
edge $-1 $203 -29.265141087603919 $200 29.265141087603919 $189 $260 forward 7 unknown #
coedge $-1 $127 $194 $250 $261 forward $195 $-1 #
vertex $-1 $198 $262 #
straight-curve $-1 -20.904682272258967 -29.265141087603919 6.1475494636268362 1 0 0 I I #
coedge $-1 $190 $129 $251 $263 reversed $71 $-1 #
vertex $-1 $198 $264 #
straight-curve $-1 -20.904682272258967 29.265141087603919 6.1475494636268362 -1 0 0 I I #
point $-1 -33.81862532610365 29.265141087603919 6.1475494636268362 #
point $-1 -33.81862532610365 -29.265141087603919 6.1475494636268362 #
plane-surface $-1 0 0 13.193740553502881 0 0 1 1 0 0 forward_v I I I I #
coedge $-1 $218 $217 $210 $265 forward $136 $-1 #
coedge $-1 $210 $138 $140 $214 reversed $79 $-1 #
coedge $-1 $138 $209 $208 $265 reversed $79 $-1 #
coedge $-1 $146 $141 $138 $212 forward $147 $-1 #
edge $-1 $215 -31.30843641167554 $266 -23.516522623216336 $211 $267 forward 7 unknown #
coedge $-1 $140 $139 $218 $268 reversed $49 $-1 #
edge $-1 $269 2.7747421098525539e-014 $215 12.122066123788697 $209 $270 forward 7 unknown #
vertex $-1 $142 $271 #
straight-curve $-1 15.289438979851415 -21.47322729914471 13.193740553502881 -1 0 0 I I #
coedge $-1 $208 $143 $146 $222 reversed $136 $-1 #
coedge $-1 $143 $208 $213 $268 forward $136 $-1 #
vertex $-1 $144 $272 #
straight-curve $-1 35.670594296715642 -29.265141087603922 33.964738698010521 0 0 1 I I #
straight-curve $-1 35.670594296715642 -29.265141087603936 3.907699059802539 0 -0.64278759981090561 -0.7660444514056185 I I #
edge $-1 $266 25.487161622690017 $148 35.670594296715642 $217 $273 forward 7 unknown #
point $-1 35.670594296715642 -29.265141087603919 13.193740553502881 #
point $-1 35.670594296715642 -21.473227299144714 13.193740553502881 #
edge $-1 $274 1 $274 0 $151 $-1 forward 7 unknown #
vertex $-1 $152 $275 #
ellipse-curve $-1 28.396713815268761 -23.458456540144496 6.947428979523421 0 -0.7660444514056185 0.64278759981090561 1 0 0 1 I I #
point $-1 29.396713815268761 -25.369184193374306 8.5507198066527081 #
edge $-1 $276 1 $276 0 $155 $-1 forward 7 unknown #
vertex $-1 $156 $277 #
ellipse-curve $-1 32.761042104136884 -23.458456540144496 6.947428979523421 0 -0.7660444514056185 0.64278759981090561 1 0 0 1 I I #
point $-1 33.761042104136884 -25.369184193374306 8.5507198066527081 #
plane-surface $-1 49.800103762932217 0 0 -1 0 0 0 0 1 forward_v I I I I #
coedge $-1 $164 $162 $166 $238 reversed $101 $-1 #
edge $-1 $177 -13.193740553502881 $240 13.193740553502881 $176 $278 forward 7 unknown #
vertex $-1 $238 $279 #
straight-curve $-1 -49.800103762932217 -29.265141087603919 0 0 0 -1 I I #
edge $-1 $236 -29.265141087603919 $240 29.265141087603919 $234 $280 forward 7 unknown #
straight-curve $-1 0 -29.265141087603919 -13.193740553502881 -1 0 0 I I #
vertex $-1 $169 $281 #
straight-curve $-1 0 29.265141087603919 -13.193740553502881 1 0 0 I I #
point $-1 49.800103762932217 29.265141087603919 -13.193740553502881 #
point $-1 49.800103762932217 -29.265141087603919 -13.193740553502881 #
straight-curve $-1 -49.800103762932217 0 13.193740553502881 0 -1 0 I I #
point $-1 -49.800103762932217 29.265141087603919 13.193740553502881 #
point $-1 -49.800103762932217 -29.265141087603919 13.193740553502881 #
straight-curve $-1 49.800103762932217 -29.265141087603919 0 0 0 -1 I I #
straight-curve $-1 49.800103762932217 29.265141087603919 0 0 0 -1 I I #
plane-surface $-1 0 -29.265141087603919 0 0 1 0 0 0 1 forward_v I I I I #
coedge $-1 $282 $189 $199 $261 reversed $120 $-1 #
coedge $-1 $189 $282 $202 $263 forward $120 $-1 #
coedge $-1 $283 $192 $190 $253 forward $187 $-1 #
edge $-1 $254 33.81862532610365 $284 49.800103762932217 $190 $285 forward 7 unknown #
vertex $-1 $253 $286 #
straight-curve $-1 -33.81862532610365 29.265141087603919 4.8353225042824288 0 0 -1 I I #
coedge $-1 $192 $283 $194 $258 forward $187 $-1 #
straight-curve $-1 -33.81862532610365 0 13.193740553502881 0 1 0 I I #
edge $-1 $287 -49.800103762932217 $196 -33.81862532610365 $194 $288 forward 7 unknown #
point $-1 -33.81862532610365 -29.265141087603919 13.193740553502879 #
straight-curve $-1 -49.800103762932217 0 6.1475494636268362 0 -1 0 I I #
edge $-1 $287 -13.193740553502881 $200 -6.1475494636268362 $250 $289 forward 7 unknown #
point $-1 -49.800103762932217 -29.265141087603919 6.1475494636268362 #
edge $-1 $284 -13.193740553502881 $203 -6.1475494636268362 $202 $290 forward 7 unknown #
point $-1 -49.800103762932217 29.265141087603919 6.1475494636268362 #
edge $-1 $266 20.77099814450764 $269 30.057039638207961 $208 $291 forward 7 unknown #
vertex $-1 $222 $292 #
straight-curve $-1 25.487161622690017 -52.781663710820254 13.193740553502881 0 -1 0 I I #
edge $-1 $269 10.197722642838603 $219 20.381155316864227 $218 $293 forward 7 unknown #
vertex $-1 $268 $294 #
straight-curve $-1 25.487161622690017 -29.265141087603936 3.907699059802539 0 0.64278759981090561 0.7660444514056185 I I #
point $-1 25.487161622690017 -21.473227299144714 13.193740553502881 #
point $-1 35.670594296715642 -29.265141087603919 3.9076990598025603 #
straight-curve $-1 0 -29.265141087603919 13.193740553502881 1 0 0 I I #
vertex $-1 $225 $295 #
point $-1 29.396713815268761 -23.458456540144496 6.947428979523421 #
vertex $-1 $229 $296 #
point $-1 33.761042104136884 -23.458456540144496 6.947428979523421 #
straight-curve $-1 -49.800103762932217 29.265141087603919 0 0 0 -1 I I #
point $-1 -49.800103762932217 -29.265141087603919 -13.193740553502881 #
straight-curve $-1 -49.800103762932217 0 -13.193740553502881 0 1 0 I I #
point $-1 -49.800103762932217 29.265141087603919 -13.193740553502881 #
coedge $-1 $251 $250 $283 $297 reversed $120 $-1 #
coedge $-1 $256 $252 $282 $297 forward $187 $-1 #
vertex $-1 $253 $298 #
straight-curve $-1 0 29.265141087603919 13.193740553502881 -1 0 0 I I #
point $-1 -33.81862532610365 29.265141087603919 13.193740553502879 #
vertex $-1 $297 $299 #
straight-curve $-1 0 -29.265141087603919 13.193740553502881 1 0 0 I I #
straight-curve $-1 -49.800103762932217 -29.265141087603919 0 0 0 -1 I I #
straight-curve $-1 -49.800103762932217 29.265141087603919 0 0 0 -1 I I #
straight-curve $-1 25.487161622690017 -29.265141087603922 33.964738698010521 0 0 -1 I I #
point $-1 25.487161622690017 -29.265141087603919 13.193740553502881 #
straight-curve $-1 15.289438979851415 -29.265141087603919 3.9076990598025629 1 0 0 I I #
point $-1 25.487161622690017 -29.265141087603919 3.9076990598025603 #
point $-1 28.396713815268761 -22.692412088738877 6.3046413797125158 #
point $-1 32.761042104136884 -22.692412088738877 6.3046413797125158 #
edge $-1 $284 -29.265141087603919 $287 29.265141087603919 $282 $300 forward 7 unknown #
point $-1 -49.800103762932217 29.265141087603919 13.193740553502881 #
point $-1 -49.800103762932217 -29.265141087603919 13.193740553502881 #
straight-curve $-1 -49.800103762932217 0 13.193740553502881 0 -1 0 I I #
End-of-ACIS-data 