500 0 7 0           
7 Unknown 11 ACIS 5.0 NT 24 Fri Mar 26 15:48:51 1999 
-1 9.9999999999999995e-007 1e-010 
body $-1 $7 $-1 $8 #
body $-1 $9 $-1 $10 #
body $-1 $11 $-1 $12 #
body $-1 $13 $-1 $14 #
body $-1 $15 $-1 $16 #
body $-1 $17 $-1 $18 #
body $-1 $19 $-1 $20 #
lump $-1 $-1 $21 $0 #
transform $-1 1 0 0 0 1 0 0 0 1 58.359935300759915 31.145009204911297 10.154943978497615 1 rotate no_reflect no_shear #
lump $-1 $-1 $22 $1 #
transform $-1 1 0 0 0 1 0 0 0 1 58.359935300759915 31.145009204911297 10.154943978497615 1 rotate no_reflect no_shear #
lump $-1 $-1 $23 $2 #
transform $-1 1 0 0 0 1 0 0 0 1 58.359935300759915 31.145009204911297 10.154943978497615 1 rotate no_reflect no_shear #
lump $-1 $-1 $24 $3 #
transform $-1 1 0 0 0 1 0 0 0 1 58.359935300759915 31.145009204911297 10.154943978497615 1 rotate no_reflect no_shear #
lump $-1 $-1 $25 $4 #
transform $-1 1 0 0 0 1 0 0 0 1 58.359935300759915 31.145009204911297 10.154943978497615 1 rotate no_reflect no_shear #
lump $-1 $-1 $26 $5 #
transform $-1 1 0 0 0 1 0 0 0 1 58.359935300759915 31.145009204911297 10.154943978497615 1 rotate no_reflect no_shear #
lump $-1 $-1 $27 $6 #
transform $-1 1 0 0 0 1 0 0 0 1 58.359935300759915 31.145009204911297 10.154943978497615 1 rotate no_reflect no_shear #
shell $-1 $-1 $-1 $28 $-1 $7 #
shell $-1 $-1 $-1 $29 $-1 $9 #
shell $-1 $-1 $-1 $30 $-1 $11 #
shell $-1 $-1 $-1 $31 $-1 $13 #
shell $-1 $-1 $-1 $32 $-1 $15 #
shell $-1 $-1 $-1 $33 $-1 $17 #
shell $-1 $-1 $-1 $34 $-1 $19 #
face $-1 $35 $36 $21 $-1 $37 forward single #
face $-1 $38 $39 $22 $-1 $40 forward single #
face $-1 $41 $42 $23 $-1 $43 reversed single #
face $-1 $44 $45 $24 $-1 $46 forward single #
face $-1 $47 $48 $25 $-1 $49 forward single #
face $-1 $50 $51 $26 $-1 $52 reversed single #
face $-1 $53 $54 $27 $-1 $55 forward single #
face $-1 $56 $57 $21 $-1 $58 reversed single #
loop $-1 $-1 $59 $28 #
plane-surface $-1 0 0 10.154943978497615 0 0 1 1 0 0 forward_v I I I I #
face $-1 $60 $61 $22 $-1 $62 reversed single #
loop $-1 $-1 $63 $29 #
plane-surface $-1 0 -31.145009204911297 0 0 1 0 0 0 1 forward_v I I I I #
face $-1 $64 $65 $23 $-1 $66 reversed single #
loop $-1 $-1 $67 $30 #
plane-surface $-1 81.332799296624628 -4.9068489274400617 169.14492439218043 0 -1 0 -0.79863551827123203 0 -0.60181501223851219 forward_v I I I I #
face $-1 $68 $69 $24 $-1 $70 forward single #
loop $-1 $71 $72 $31 #
cone-surface $-1 55.1190021469572 -15.462139708077988 6.7467646753966779 -0.79863551827123203 0 -0.60181501223851219 0.60181501223851219 0 -0.79863551827123203 1 I I 0 1 1 forward I I I I #
face $-1 $73 $74 $25 $-1 $75 forward single #
loop $-1 $76 $77 $32 #
cone-surface $-1 55.1190021469572 -9.1289652396952334 6.7467646753966779 -0.79863551827123203 0 -0.60181501223851219 0.60181501223851219 0 -0.79863551827123203 1 I I 0 1 1 forward I I I I #
face $-1 $78 $79 $26 $-1 $80 reversed single #
loop $-1 $-1 $81 $33 #
plane-surface $-1 -140.89334825990912 13.978531576767853 84.504530746516338 0 1 0 -0.70710678939079041 0 0.70710677298230451 forward_v I I I I #
face $-1 $82 $83 $27 $-1 $84 forward single #
loop $-1 $85 $86 $34 #
cone-surface $-1 -51.518578333807326 20.228037932909345 3.3135869803929325 0.70710678939079041 0 -0.70710677298230451 1.414213545964609 0 1.4142135787815808 1 I I 0 1 2 forward I I I I #
face $-1 $87 $88 $21 $-1 $89 reversed single #
loop $-1 $-1 $90 $35 #
plane-surface $-1 0 0 -10.154943978497615 0 0 1 1 0 0 forward_v I I I I #
coedge $-1 $91 $92 $93 $94 forward $36 $-1 #
face $-1 $95 $96 $22 $-1 $97 reversed single #
loop $-1 $-1 $98 $38 #
plane-surface $-1 0 0 -10.154943978497615 0 0 1 1 0 0 forward_v I I I I #
coedge $-1 $99 $100 $101 $102 forward $39 $-1 #
face $-1 $103 $104 $23 $-1 $105 reversed single #
loop $-1 $-1 $106 $41 #
plane-surface $-1 -11.883835053771293 -12.295552473886609 98.901154037649206 0.79863551827123203 0 0.60181501223851219 0.60181501223851219 0 -0.79863551827123203 forward_v I I I I #
coedge $-1 $107 $108 $109 $110 reversed $42 $-1 #
face $-1 $-1 $111 $24 $-1 $112 forward single #
loop $-1 $113 $114 $44 #
cone-surface $-1 53.163104351302124 -15.462139708077988 5.2728900117986637 -0.79863551827123203 0 -0.60181501223851219 0.3009075061192561 0 -0.39931775913561601 1 I I -0.70710678118654746 0.70710678118654746 0.5 forward I I I I #
loop $-1 $-1 $115 $31 #
coedge $-1 $72 $72 $116 $117 reversed $45 $-1 #
face $-1 $-1 $118 $25 $-1 $119 forward single #
loop $-1 $120 $121 $47 #
cone-surface $-1 53.163104351302124 -9.1289652396952334 5.2728900117986637 -0.79863551827123203 0 -0.60181501223851219 0.3009075061192561 0 -0.39931775913561601 1 I I -0.70710678118654746 0.70710678118654746 0.5 forward I I I I #
loop $-1 $-1 $122 $32 #
coedge $-1 $77 $77 $123 $124 reversed $48 $-1 #
face $-1 $125 $126 $26 $-1 $127 reversed single #
loop $-1 $-1 $128 $50 #
plane-surface $-1 -58.359935300759929 20.228037932909338 1.9711197025634988 -0.70710678939079041 0 0.70710677298230451 0.70710677298230451 0 0.70710678939079041 forward_v I I I I #
coedge $-1 $129 $130 $131 $132 reversed $51 $-1 #
face $-1 $-1 $133 $27 $-1 $134 forward single #
loop $-1 $135 $136 $53 #
cone-surface $-1 -48.062026620477759 20.228037932909345 -0.14296465272699344 0.70710678939079041 0 -0.70710677298230451 0.70710677298230451 0 0.70710678939079041 1 I I -0.70710678118654746 0.70710678118654746 1 forward I I I I #
loop $-1 $-1 $137 $34 #
coedge $-1 $86 $86 $138 $139 reversed $54 $-1 #
face $-1 $140 $141 $21 $-1 $142 reversed single #
loop $-1 $-1 $143 $56 #
plane-surface $-1 0 -31.145009204911297 0 0 1 0 0 0 1 forward_v I I I I #
coedge $-1 $144 $145 $146 $147 forward $57 $-1 #
coedge $-1 $148 $59 $149 $150 forward $36 $-1 #
coedge $-1 $59 $148 $151 $152 forward $36 $-1 #
coedge $-1 $153 $154 $59 $94 reversed $155 $-1 #
edge $-1 $156 -31.145009204911297 $157 31.145009204911297 $93 $158 forward 7 unknown #
face $-1 $159 $160 $22 $-1 $161 forward single #
loop $-1 $-1 $162 $60 #
plane-surface $-1 58.359935300759915 0 0 -1 0 0 0 0 1 forward_v I I I I #
coedge $-1 $163 $164 $165 $166 forward $61 $-1 #
coedge $-1 $165 $63 $162 $167 reversed $39 $-1 #
coedge $-1 $63 $165 $168 $169 reversed $39 $-1 #
coedge $-1 $170 $171 $63 $102 reversed $160 $-1 #
edge $-1 $172 -58.359935300759915 $173 58.359935300759915 $101 $174 forward 7 unknown #
face $-1 $175 $176 $23 $-1 $177 reversed single #
loop $-1 $-1 $178 $64 #
plane-surface $-1 81.332799296624628 -19.684256020333155 169.14492439218043 0 1 0 0.79863551827123203 0 0.60181501223851219 forward_v I I I I #
coedge $-1 $179 $180 $181 $182 reversed $65 $-1 #
coedge $-1 $108 $67 $183 $184 reversed $42 $-1 #
coedge $-1 $67 $107 $179 $185 reversed $42 $-1 #
coedge $-1 $181 $186 $67 $110 forward $187 $-1 #
edge $-1 $188 -17.693535652447601 $189 -14.324829417881098 $109 $190 forward 7 unknown #
loop $-1 $-1 $116 $68 #
plane-surface $-1 -11.883835053771293 -12.295552473886609 98.901154037649206 0.79863551827123203 0 0.60181501223851219 0.60181501223851219 0 -0.79863551827123203 forward_v I I I I #
loop $-1 $-1 $191 $44 #
coedge $-1 $114 $114 $115 $192 reversed $69 $-1 #
coedge $-1 $115 $115 $114 $192 forward $71 $-1 #
coedge $-1 $116 $116 $72 $117 forward $111 $-1 #
edge $-1 $193 0 $193 6.2831853071796004 $116 $194 forward 7 unknown #
loop $-1 $-1 $123 $73 #
plane-surface $-1 -11.883835053771293 -12.295552473886609 98.901154037649206 0.79863551827123203 0 0.60181501223851219 0.60181501223851219 0 -0.79863551827123203 forward_v I I I I #
loop $-1 $-1 $195 $47 #
coedge $-1 $121 $121 $122 $196 reversed $74 $-1 #
coedge $-1 $122 $122 $121 $196 forward $76 $-1 #
coedge $-1 $123 $123 $77 $124 forward $118 $-1 #
edge $-1 $197 0 $197 6.2831853071796004 $123 $198 forward 7 unknown #
face $-1 $199 $200 $26 $-1 $201 forward single #
loop $-1 $-1 $202 $78 #
plane-surface $-1 -140.89334825990912 26.477544289050822 84.504530746516338 0 -1 0 0.70710678939079041 0 -0.70710677298230451 forward_v I I I I #
coedge $-1 $203 $204 $205 $206 reversed $79 $-1 #
coedge $-1 $130 $81 $207 $208 reversed $51 $-1 #
coedge $-1 $81 $129 $203 $209 reversed $51 $-1 #
coedge $-1 $205 $210 $81 $132 forward $200 $-1 #
edge $-1 $211 12.086738829194644 $212 20.270562915222257 $131 $213 forward 7 unknown #
loop $-1 $-1 $138 $82 #
plane-surface $-1 -58.359935300759929 20.228037932909338 1.9711197025634988 -0.70710678939079041 0 0.70710677298230451 0.70710677298230451 0 0.70710678939079041 forward_v I I I I #
loop $-1 $-1 $214 $53 #
coedge $-1 $136 $136 $137 $215 reversed $83 $-1 #
coedge $-1 $137 $137 $136 $215 forward $85 $-1 #
coedge $-1 $138 $138 $86 $139 forward $133 $-1 #
edge $-1 $216 0 $216 6.2831853071796004 $138 $217 forward 7 unknown #
face $-1 $218 $219 $21 $-1 $220 reversed single #
loop $-1 $-1 $221 $87 #
plane-surface $-1 -58.359935300759915 0 0 1 0 0 0 0 -1 forward_v I I I I #
coedge $-1 $151 $222 $153 $223 reversed $88 $-1 #
coedge $-1 $224 $90 $222 $225 forward $57 $-1 #
coedge $-1 $90 $224 $226 $227 forward $57 $-1 #
coedge $-1 $154 $153 $90 $147 reversed $155 $-1 #
edge $-1 $228 -31.145009204911297 $229 31.145009204911297 $146 $230 forward 7 unknown #
coedge $-1 $92 $91 $231 $232 forward $36 $-1 #
coedge $-1 $233 $234 $91 $150 reversed $219 $-1 #
edge $-1 $157 -58.359935300759915 $235 58.359935300759915 $149 $236 forward 7 unknown #
coedge $-1 $237 $143 $92 $152 reversed $88 $-1 #
edge $-1 $238 -58.359935300759915 $156 58.359935300759915 $151 $239 forward 7 unknown #
coedge $-1 $146 $93 $143 $223 forward $155 $-1 #
coedge $-1 $93 $146 $233 $240 reversed $155 $-1 #
loop $-1 $-1 $153 $218 #
vertex $-1 $94 $241 #
vertex $-1 $94 $242 #
straight-curve $-1 58.359935300759915 0 10.154943978497615 0 1 0 I I #
face $-1 $243 $244 $22 $-1 $245 reversed single #
loop $-1 $-1 $171 $95 #
plane-surface $-1 0 -36.875385797200366 -5.9950956235740005 0 0 1 1 0 0 forward_v I I I I #
coedge $-1 $246 $247 $99 $167 forward $96 $-1 #
coedge $-1 $248 $98 $247 $249 forward $61 $-1 #
coedge $-1 $98 $248 $250 $251 forward $61 $-1 #
coedge $-1 $100 $99 $98 $166 reversed $39 $-1 #
edge $-1 $252 -58.359935300759915 $253 58.359935300759915 $98 $254 forward 7 unknown #
edge $-1 $253 -10.154943978497615 $173 -5.9950956235740005 $162 $255 forward 7 unknown #
coedge $-1 $250 $256 $100 $169 forward $257 $-1 #
edge $-1 $172 5.9950956235740005 $252 10.154943978497615 $168 $258 forward 7 unknown #
coedge $-1 $259 $101 $256 $260 forward $160 $-1 #
coedge $-1 $101 $259 $246 $261 forward $160 $-1 #
vertex $-1 $169 $262 #
vertex $-1 $261 $263 #
straight-curve $-1 0 -31.145009204911297 -5.9950956235740005 1 0 0 I I #
face $-1 $-1 $187 $23 $-1 $264 forward single #
loop $-1 $-1 $265 $103 #
plane-surface $-1 58.359935300759915 0 0 -1 0 0 0 0 1 forward_v I I I I #
coedge $-1 $266 $267 $268 $269 reversed $104 $-1 #
coedge $-1 $270 $106 $108 $185 forward $65 $-1 #
coedge $-1 $106 $270 $266 $271 forward $65 $-1 #
coedge $-1 $268 $109 $106 $182 forward $187 $-1 #
edge $-1 $189 -1.2409273095032427 $272 13.536479783389851 $181 $273 forward 7 unknown #
coedge $-1 $274 $275 $107 $184 forward $176 $-1 #
edge $-1 $276 -78.887942508836929 $188 -74.417518217592601 $183 $277 forward 7 unknown #
edge $-1 $189 111.12229299700601 $276 116.71987060151983 $108 $278 forward 7 unknown #
coedge $-1 $109 $268 $274 $279 forward $187 $-1 #
loop $-1 $-1 $268 $175 #
vertex $-1 $184 $280 #
vertex $-1 $110 $281 #
straight-curve $-1 40.666399648312314 -4.9068489274400617 10.154943978497613 -1 0 0 I I #
coedge $-1 $191 $191 $-1 $282 reversed $113 $-1 #
edge $-1 $283 0 $283 6.2831853071796004 $114 $284 forward 7 unknown #
vertex $-1 $117 $285 #
ellipse-curve $-1 56.675582183476671 -15.462139708077988 7.9197318328754456 0.79863551827123203 0 0.60181501223851219 0.60181501223851219 0 -0.79863551827123203 1 I I #
coedge $-1 $195 $195 $-1 $286 reversed $120 $-1 #
edge $-1 $287 0 $287 6.2831853071796004 $121 $288 forward 7 unknown #
vertex $-1 $124 $289 #
ellipse-curve $-1 56.675582183476671 -9.1289652396952334 7.9197318328754456 0.79863551827123203 0 0.60181501223851219 0.60181501223851219 0 -0.79863551827123203 1 I I #
face $-1 $-1 $290 $26 $-1 $291 reversed single #
loop $-1 $-1 $131 $125 #
plane-surface $-1 0 0 10.154943978497615 0 0 1 1 0 0 forward_v I I I I #
coedge $-1 $292 $293 $294 $295 reversed $126 $-1 #
coedge $-1 $296 $128 $130 $209 forward $79 $-1 #
coedge $-1 $128 $296 $292 $297 forward $79 $-1 #
coedge $-1 $294 $131 $128 $206 forward $200 $-1 #
edge $-1 $212 3.8645126103131844 $298 16.363525322596153 $205 $299 forward 7 unknown #
coedge $-1 $300 $301 $129 $208 forward $290 $-1 #
edge $-1 $302 -40.281145670694656 $211 -32.097321394760556 $207 $303 forward 7 unknown #
edge $-1 $212 -11.573675148820039 $302 -2.0097183471152325e-014 $130 $304 forward 7 unknown #
coedge $-1 $131 $294 $300 $305 forward $200 $-1 #
vertex $-1 $208 $306 #
vertex $-1 $132 $307 #
straight-curve $-1 -70.446674129954559 13.978531576767853 10.154943978497613 1 0 0 I I #
coedge $-1 $214 $214 $-1 $308 reversed $135 $-1 #
edge $-1 $309 0 $309 6.2831853071796004 $136 $310 forward 7 unknown #
vertex $-1 $139 $311 #
ellipse-curve $-1 -54.268023257746108 20.228037932909345 6.0630318405305621 -0.70710678939079041 0 0.70710677298230451 1.414213545964609 0 1.4142135787815808 1 I I #
face $-1 $-1 $155 $21 $-1 $312 reversed single #
loop $-1 $-1 $233 $140 #
plane-surface $-1 0 31.145009204911297 0 0 -1 0 0 0 -1 forward_v I I I I #
coedge $-1 $313 $231 $234 $314 forward $141 $-1 #
coedge $-1 $143 $237 $144 $225 reversed $88 $-1 #
edge $-1 $156 -10.154943978497615 $229 10.154943978497615 $153 $315 forward 7 unknown #
coedge $-1 $145 $144 $313 $316 forward $57 $-1 #
edge $-1 $229 -58.359935300759915 $317 58.359935300759915 $222 $318 forward 7 unknown #
coedge $-1 $234 $233 $145 $227 reversed $219 $-1 #
edge $-1 $319 -58.359935300759915 $228 58.359935300759915 $226 $320 forward 7 unknown #
vertex $-1 $147 $321 #
vertex $-1 $223 $322 #
straight-curve $-1 58.359935300759915 0 -10.154943978497615 0 -1 0 I I #
coedge $-1 $221 $323 $148 $232 reversed $141 $-1 #
edge $-1 $235 -31.145009204911297 $238 31.145009204911297 $231 $324 forward 7 unknown #
coedge $-1 $226 $149 $154 $240 forward $219 $-1 #
coedge $-1 $149 $226 $221 $314 reversed $219 $-1 #
vertex $-1 $150 $325 #
straight-curve $-1 0 31.145009204911297 10.154943978497615 -1 0 0 I I #
coedge $-1 $222 $151 $323 $326 forward $88 $-1 #
vertex $-1 $232 $327 #
straight-curve $-1 0 -31.145009204911297 10.154943978497615 1 0 0 I I #
edge $-1 $157 -10.154943978497615 $228 10.154943978497615 $154 $328 forward 7 unknown #
point $-1 58.359935300759915 -31.145009204911297 10.154943978497615 #
point $-1 58.359935300759915 31.145009204911297 10.154943978497615 #
face $-1 $-1 $257 $22 $-1 $329 reversed single #
loop $-1 $-1 $330 $159 #
plane-surface $-1 0 -42.605762389489435 -8.0750198010358076 0 1 0 0 0 1 forward_v I I I I #
coedge $-1 $331 $162 $171 $261 reversed $96 $-1 #
coedge $-1 $162 $331 $163 $249 reversed $96 $-1 #
coedge $-1 $164 $163 $332 $333 forward $61 $-1 #
edge $-1 $253 31.145009204911297 $334 42.605762389489435 $247 $335 forward 7 unknown #
coedge $-1 $336 $168 $164 $251 reversed $257 $-1 #
edge $-1 $337 -42.605762389489435 $252 -31.145009204911297 $250 $338 forward 7 unknown #
vertex $-1 $169 $339 #
vertex $-1 $249 $340 #
straight-curve $-1 0 -31.145009204911297 -10.154943978497615 1 0 0 I I #
straight-curve $-1 58.359935300759915 -31.145009204911297 0 0 0 1 I I #
coedge $-1 $168 $336 $170 $260 reversed $257 $-1 #
loop $-1 $-1 $168 $243 #
straight-curve $-1 -58.359935300759915 -31.145009204911297 0 0 0 -1 I I #
coedge $-1 $171 $170 $341 $342 forward $160 $-1 #
edge $-1 $172 -5.730376592289069 $343 5.730376592289069 $256 $344 forward 7 unknown #
edge $-1 $345 -5.730376592289069 $173 5.730376592289069 $246 $346 forward 7 unknown #
point $-1 -58.359935300759915 -31.145009204911297 -5.9950956235740005 #
point $-1 58.359935300759915 -31.145009204911297 -5.9950956235740005 #
plane-surface $-1 0 0 10.154943978497615 0 0 1 1 0 0 forward_v I I I I #
coedge $-1 $275 $274 $267 $347 forward $176 $-1 #
coedge $-1 $267 $178 $180 $271 reversed $104 $-1 #
coedge $-1 $178 $266 $265 $347 reversed $104 $-1 #
coedge $-1 $186 $181 $178 $269 forward $187 $-1 #
edge $-1 $272 14.324829417881098 $348 17.693535652447601 $268 $349 forward 7 unknown #
coedge $-1 $180 $179 $275 $350 reversed $65 $-1 #
edge $-1 $351 -116.71987060151983 $272 -111.12229299700601 $266 $352 forward 7 unknown #
vertex $-1 $182 $353 #
straight-curve $-1 54.991229066193412 -6.1477762369433044 10.154943978497613 0 -1 0 I I #
coedge $-1 $265 $183 $186 $279 reversed $176 $-1 #
coedge $-1 $183 $265 $270 $350 forward $176 $-1 #
vertex $-1 $184 $354 #
straight-curve $-1 58.359935300759915 -4.9068489274400617 84.572462196090214 0 0 1 I I #
straight-curve $-1 -11.883835053771293 -4.9068489274400617 98.901154037649206 0.60181501223851219 0 -0.79863551827123203 I I #
edge $-1 $348 -19.684256020333155 $188 -4.9068489274400617 $274 $355 forward 7 unknown #
point $-1 58.359935300759915 -4.9068489274400617 10.154943978497615 #
point $-1 54.991229066193412 -4.9068489274400617 10.154943978497613 #
edge $-1 $356 1 $356 0 $191 $-1 forward 7 unknown #
vertex $-1 $192 $357 #
ellipse-curve $-1 53.562422110437737 -15.462139708077988 5.57379751791792 0.79863551827123203 0 0.60181501223851219 0.60181501223851219 0 -0.79863551827123203 1 I I #
point $-1 57.277397195715167 -15.462139708077988 7.1210963146042037 #
edge $-1 $358 1 $358 0 $195 $-1 forward 7 unknown #
vertex $-1 $196 $359 #
ellipse-curve $-1 53.562422110437737 -9.1289652396952334 5.57379751791792 0.79863551827123203 0 0.60181501223851219 0.60181501223851219 0 -0.79863551827123203 1 I I #
point $-1 57.277397195715167 -9.1289652396952334 7.1210963146042037 #
loop $-1 $-1 $207 $199 #
plane-surface $-1 -58.359935300759915 0 0 1 0 0 0 0 -1 forward_v I I I I #
coedge $-1 $293 $202 $204 $297 reversed $126 $-1 #
coedge $-1 $202 $292 $360 $361 reversed $126 $-1 #
coedge $-1 $210 $205 $202 $295 forward $200 $-1 #
edge $-1 $298 -20.270562915222257 $362 -12.086738829194644 $294 $363 forward 7 unknown #
coedge $-1 $204 $203 $301 $364 reversed $79 $-1 #
edge $-1 $365 2.0097183471152325e-014 $298 11.573675148820039 $292 $366 forward 7 unknown #
vertex $-1 $206 $367 #
straight-curve $-1 -50.176111214732302 10.114018966454669 10.154943978497613 0 1 0 I I #
coedge $-1 $360 $207 $210 $305 reversed $290 $-1 #
coedge $-1 $207 $360 $296 $364 forward $290 $-1 #
vertex $-1 $208 $368 #
straight-curve $-1 -58.359935300759915 13.978531576767853 42.252265373258169 0 0 1 I I #
straight-curve $-1 -58.359935300759929 13.978531576767853 1.9711197025634988 -0.70710677298230451 0 -0.70710678939079041 I I #
edge $-1 $362 -26.477544289050822 $211 -13.978531576767853 $300 $369 forward 7 unknown #
point $-1 -58.359935300759915 13.978531576767853 10.154943978497615 #
point $-1 -50.176111214732302 13.978531576767853 10.154943978497615 #
edge $-1 $370 1 $370 0 $214 $-1 forward 7 unknown #
vertex $-1 $215 $371 #
ellipse-curve $-1 -48.769133409868552 20.228037932909345 0.56414212025531107 -0.70710678939079041 0 0.70710677298230451 1.414213545964609 0 1.4142135787815808 1 I I #
point $-1 -52.853809711781487 20.228037932909345 7.4772454193121352 #
plane-surface $-1 58.359935300759915 0 0 -1 0 0 0 0 1 forward_v I I I I #
coedge $-1 $323 $221 $224 $316 reversed $141 $-1 #
edge $-1 $235 -10.154943978497615 $319 10.154943978497615 $234 $372 forward 7 unknown #
straight-curve $-1 58.359935300759915 -31.145009204911297 0 0 0 -1 I I #
edge $-1 $317 -31.145009204911297 $319 31.145009204911297 $313 $373 forward 7 unknown #
vertex $-1 $316 $374 #
straight-curve $-1 0 -31.145009204911297 -10.154943978497615 -1 0 0 I I #
vertex $-1 $227 $375 #
straight-curve $-1 0 31.145009204911297 -10.154943978497615 1 0 0 I I #
point $-1 58.359935300759915 31.145009204911297 -10.154943978497615 #
point $-1 58.359935300759915 -31.145009204911297 -10.154943978497615 #
coedge $-1 $231 $313 $237 $326 reversed $141 $-1 #
straight-curve $-1 -58.359935300759915 0 10.154943978497615 0 -1 0 I I #
point $-1 -58.359935300759915 31.145009204911297 10.154943978497615 #
edge $-1 $238 -10.154943978497615 $317 10.154943978497615 $323 $376 forward 7 unknown #
point $-1 -58.359935300759915 -31.145009204911297 10.154943978497615 #
straight-curve $-1 58.359935300759915 31.145009204911297 0 0 0 -1 I I #
plane-surface $-1 -58.359935300759915 0 0 1 0 0 0 0 -1 forward_v I I I I #
coedge $-1 $332 $341 $336 $377 forward $244 $-1 #
coedge $-1 $247 $246 $378 $379 forward $96 $-1 #
coedge $-1 $378 $330 $248 $333 reversed $244 $-1 #
edge $-1 $334 -58.359935300759915 $337 58.359935300759915 $332 $380 forward 7 unknown #
vertex $-1 $379 $381 #
straight-curve $-1 58.359935300759915 0 -10.154943978497615 0 -1 0 I I #
coedge $-1 $256 $250 $330 $377 reversed $257 $-1 #
vertex $-1 $251 $382 #
straight-curve $-1 -58.359935300759915 0 -10.154943978497615 0 1 0 I I #
point $-1 -58.359935300759915 -31.145009204911297 -10.154943978497615 #
point $-1 58.359935300759915 -31.145009204911297 -10.154943978497615 #
coedge $-1 $330 $378 $259 $342 reversed $244 $-1 #
edge $-1 $343 -58.359935300759915 $345 58.359935300759915 $341 $383 forward 7 unknown #
vertex $-1 $260 $384 #
straight-curve $-1 -58.359935300759915 -36.875385797200366 -5.9950956235740005 0 -1 0 I I #
vertex $-1 $261 $385 #
straight-curve $-1 58.359935300759915 -36.875385797200366 -5.9950956235740005 0 1 0 I I #
edge $-1 $348 74.417518217592601 $351 78.887942508836929 $265 $386 forward 7 unknown #
vertex $-1 $279 $387 #
straight-curve $-1 40.666399648312314 -19.684256020333155 10.154943978497613 1 0 0 I I #
edge $-1 $351 -13.536479783389851 $276 1.2409273095032427 $275 $388 forward 7 unknown #
vertex $-1 $350 $389 #
straight-curve $-1 -11.883835053771293 -19.684256020333155 98.901154037649206 -0.60181501223851219 0 0.79863551827123203 I I #
point $-1 54.991229066193412 -19.684256020333155 10.154943978497613 #
point $-1 58.359935300759915 -4.9068489274400617 5.6845196872532853 #
straight-curve $-1 58.359935300759915 0 10.154943978497615 0 1 0 I I #
vertex $-1 $282 $390 #
point $-1 54.164237122676255 -15.462139708077988 4.7751619996466879 #
vertex $-1 $286 $391 #
point $-1 54.164237122676255 -9.1289652396952334 4.7751619996466879 #
coedge $-1 $301 $300 $293 $361 forward $290 $-1 #
edge $-1 $362 32.097321394760556 $365 40.281145670694656 $360 $392 forward 7 unknown #
vertex $-1 $305 $393 #
straight-curve $-1 -70.446674129954559 26.477544289050822 10.154943978497613 -1 0 0 I I #
edge $-1 $365 -16.363525322596153 $302 -3.8645126103131844 $301 $394 forward 7 unknown #
vertex $-1 $364 $395 #
straight-curve $-1 -58.359935300759929 26.477544289050822 1.9711197025634988 0.70710677298230451 0 0.70710678939079041 I I #
point $-1 -50.176111214732302 26.477544289050822 10.154943978497615 #
point $-1 -58.359935300759915 13.978531576767853 1.971119702563513 #
straight-curve $-1 -58.359935300759915 0 10.154943978497615 0 -1 0 I I #
vertex $-1 $308 $396 #
point $-1 -47.354919863903937 20.228037932909345 1.978355699036892 #
straight-curve $-1 -58.359935300759915 31.145009204911297 0 0 0 -1 I I #
straight-curve $-1 -58.359935300759915 0 -10.154943978497615 0 1 0 I I #
point $-1 -58.359935300759915 -31.145009204911297 -10.154943978497615 #
point $-1 -58.359935300759915 31.145009204911297 -10.154943978497615 #
straight-curve $-1 -58.359935300759915 -31.145009204911297 0 0 0 -1 I I #
edge $-1 $343 -2.0799241774618071 $337 2.0799241774618071 $336 $397 forward 7 unknown #
coedge $-1 $341 $332 $331 $379 reversed $244 $-1 #
edge $-1 $345 -2.0799241774618071 $334 2.0799241774618071 $331 $398 forward 7 unknown #
straight-curve $-1 0 -42.605762389489435 -10.154943978497615 -1 0 0 I I #
point $-1 58.359935300759915 -42.605762389489435 -10.154943978497615 #
point $-1 -58.359935300759915 -42.605762389489435 -10.154943978497615 #
straight-curve $-1 0 -42.605762389489435 -5.9950956235740005 1 0 0 I I #
point $-1 -58.359935300759915 -42.605762389489435 -5.9950956235740005 #
point $-1 58.359935300759915 -42.605762389489435 -5.9950956235740005 #
straight-curve $-1 58.359935300759915 -19.684256020333155 84.572462196090214 0 0 -1 I I #
point $-1 58.359935300759915 -19.684256020333155 10.154943978497615 #
straight-curve $-1 58.359935300759915 -6.1477762369433044 5.6845196872532711 0 1 0 I I #
point $-1 58.359935300759915 -19.684256020333155 5.6845196872532853 #
point $-1 52.763786592166511 -15.462139708077988 4.9719825056794074 #
point $-1 52.763786592166511 -9.1289652396952334 4.9719825056794074 #
straight-curve $-1 -58.359935300759915 26.477544289050822 42.252265373258169 0 0 -1 I I #
point $-1 -58.359935300759915 26.477544289050822 10.154943978497615 #
straight-curve $-1 -58.359935300759915 10.114018966454669 1.9711197025635094 0 -1 0 I I #
point $-1 -58.359935300759915 26.477544289050822 1.971119702563513 #
point $-1 -47.354919831086967 20.228037932909345 -0.85007142570929795 #
straight-curve $-1 -58.359935300759915 -42.605762389489435 -8.0750198010358076 0 0 -1 I I #
straight-curve $-1 58.359935300759915 -42.605762389489435 -8.0750198010358076 0 0 -1 I I #
End-of-ACIS-data 