500 0 7 0           
7 Unknown 11 ACIS 5.0 NT 24 Thu Mar 25 19:47:13 1999 
-1 9.9999999999999995e-007 1e-010 
body $-1 $7 $-1 $8 #
body $-1 $9 $-1 $10 #
body $-1 $11 $-1 $12 #
body $-1 $13 $-1 $14 #
body $-1 $15 $-1 $16 #
body $-1 $17 $-1 $18 #
body $-1 $19 $-1 $20 #
lump $-1 $-1 $21 $0 #
transform $-1 1 0 0 0 1 0 0 0 1 50.959807123020113 22.203993721612306 5.3212470320049121 1 rotate no_reflect no_shear #
lump $-1 $-1 $22 $1 #
transform $-1 1 0 0 0 1 0 0 0 1 50.959807123020113 22.203993721612306 5.3212470320049121 1 rotate no_reflect no_shear #
lump $-1 $-1 $23 $2 #
transform $-1 1 0 0 0 1 0 0 0 1 50.959807123020113 22.203993721612306 5.3212470320049121 1 rotate no_reflect no_shear #
lump $-1 $-1 $24 $3 #
transform $-1 1 0 0 0 1 0 0 0 1 50.959807123020113 22.203993721612306 5.3212470320049121 1 rotate no_reflect no_shear #
lump $-1 $-1 $25 $4 #
transform $-1 1 0 0 0 1 0 0 0 1 50.959807123020113 22.203993721612306 5.3212470320049121 1 rotate no_reflect no_shear #
lump $-1 $-1 $26 $5 #
transform $-1 1 0 0 0 1 0 0 0 1 50.959807123020113 22.203993721612306 5.3212470320049121 1 rotate no_reflect no_shear #
lump $-1 $-1 $27 $6 #
transform $-1 1 0 0 0 1 0 0 0 1 50.959807123020113 22.203993721612306 5.3212470320049121 1 rotate no_reflect no_shear #
shell $-1 $-1 $-1 $28 $-1 $7 #
shell $-1 $-1 $-1 $29 $-1 $9 #
shell $-1 $-1 $-1 $30 $-1 $11 #
shell $-1 $-1 $-1 $31 $-1 $13 #
shell $-1 $-1 $-1 $32 $-1 $15 #
shell $-1 $-1 $-1 $33 $-1 $17 #
shell $-1 $-1 $-1 $34 $-1 $19 #
face $-1 $35 $36 $21 $-1 $37 forward single #
face $-1 $38 $39 $22 $-1 $40 forward single #
face $-1 $41 $42 $23 $-1 $43 forward single #
face $-1 $44 $45 $24 $-1 $46 reversed single #
face $-1 $47 $48 $25 $-1 $49 forward single #
face $-1 $50 $51 $26 $-1 $52 forward single #
face $-1 $53 $54 $27 $-1 $55 forward single #
face $-1 $56 $57 $21 $-1 $58 reversed single #
loop $-1 $-1 $59 $28 #
plane-surface $-1 0 0 5.3212470320049121 0 0 1 1 0 0 forward_v I I I I #
face $-1 $60 $61 $22 $-1 $62 reversed single #
loop $-1 $-1 $63 $29 #
plane-surface $-1 0 -19.854302717888309 4.8088241840594321 0 0 1 1 0 0 forward_v I I I I #
face $-1 $64 $65 $23 $-1 $66 reversed single #
loop $-1 $-1 $67 $30 #
plane-surface $-1 0 19.854302717888309 4.8088241840594321 0 0 1 1 0 0 forward_v I I I I #
face $-1 $68 $69 $24 $-1 $70 reversed single #
loop $-1 $-1 $71 $31 #
plane-surface $-1 -50.95980712302012 13.776847372511781 0.91802851306960065 -0.51503808176128008 0 0.85716729658548041 0.85716729658548041 0 0.51503808176128008 forward_v I I I I #
face $-1 $72 $73 $25 $-1 $74 forward single #
loop $-1 $75 $76 $32 #
cone-surface $-1 -47.038195029792824 11.540188767520263 2.6910541242445163 0.51503808176128008 0 -0.85716729658548041 0.4285836482927402 0 0.25751904088064004 1 I I 0 1 0.5 forward I I I I #
face $-1 $77 $78 $26 $-1 $79 forward single #
loop $-1 $80 $81 $33 #
cone-surface $-1 -47.038195029792824 13.776847372511781 2.6910541242445163 0.51503808176128008 0 -0.85716729658548041 0.4285836482927402 0 0.25751904088064004 1 I I 0 1 0.5 forward I I I I #
face $-1 $82 $83 $27 $-1 $84 forward single #
loop $-1 $85 $86 $34 #
cone-surface $-1 -47.038195029792824 16.0135059775033 2.6910541242445163 0.51503808176128008 0 -0.85716729658548041 0.4285836482927402 0 0.25751904088064004 1 I I 0 1 0.5 forward I I I I #
face $-1 $87 $88 $21 $-1 $89 reversed single #
loop $-1 $-1 $90 $35 #
plane-surface $-1 0 0 -5.3212470320049121 0 0 1 1 0 0 forward_v I I I I #
coedge $-1 $91 $92 $93 $94 forward $36 $-1 #
face $-1 $95 $96 $22 $-1 $97 reversed single #
loop $-1 $-1 $98 $38 #
plane-surface $-1 0 -19.854302717888309 1.8088241840594317 0 0 1 1 0 0 forward_v I I I I #
coedge $-1 $99 $100 $101 $102 reversed $39 $-1 #
face $-1 $103 $104 $23 $-1 $105 reversed single #
loop $-1 $-1 $106 $41 #
plane-surface $-1 0 19.854302717888309 1.8088241840594317 0 0 1 1 0 0 forward_v I I I I #
coedge $-1 $107 $108 $109 $110 reversed $42 $-1 #
face $-1 $111 $112 $24 $-1 $113 forward single #
loop $-1 $-1 $114 $44 #
plane-surface $-1 -103.45228973815031 10.049083030859251 88.280188725382914 0 1 0 -0.51503808176128008 0 0.85716729658548041 forward_v I I I I #
coedge $-1 $115 $116 $117 $118 reversed $45 $-1 #
face $-1 $-1 $119 $25 $-1 $120 forward single #
loop $-1 $121 $122 $47 #
cone-surface $-1 -46.651916468471867 11.540188767520263 2.0481786518054061 0.51503808176128008 0 -0.85716729658548041 0.2142918241463701 0 0.12875952044032002 1 I I -0.70710678118654746 0.70710678118654746 0.25 forward I I I I #
loop $-1 $-1 $123 $32 #
coedge $-1 $76 $76 $124 $125 reversed $48 $-1 #
face $-1 $-1 $126 $26 $-1 $127 forward single #
loop $-1 $128 $129 $50 #
cone-surface $-1 -46.651916468471867 13.776847372511781 2.0481786518054061 0.51503808176128008 0 -0.85716729658548041 0.2142918241463701 0 0.12875952044032002 1 I I -0.70710678118654746 0.70710678118654746 0.25 forward I I I I #
loop $-1 $-1 $130 $33 #
coedge $-1 $81 $81 $131 $132 reversed $51 $-1 #
face $-1 $-1 $133 $27 $-1 $134 forward single #
loop $-1 $135 $136 $53 #
cone-surface $-1 -46.651916468471867 16.0135059775033 2.0481786518054061 0.51503808176128008 0 -0.85716729658548041 0.2142918241463701 0 0.12875952044032002 1 I I -0.70710678118654746 0.70710678118654746 0.25 forward I I I I #
loop $-1 $-1 $137 $34 #
coedge $-1 $86 $86 $138 $139 reversed $54 $-1 #
face $-1 $140 $141 $21 $-1 $142 reversed single #
loop $-1 $-1 $143 $56 #
plane-surface $-1 0 -22.203993721612306 0 0 1 0 0 0 1 forward_v I I I I #
coedge $-1 $144 $145 $146 $147 forward $57 $-1 #
coedge $-1 $148 $59 $149 $150 forward $36 $-1 #
coedge $-1 $59 $148 $151 $152 forward $36 $-1 #
coedge $-1 $153 $154 $59 $94 reversed $155 $-1 #
edge $-1 $156 -22.203993721612306 $157 22.203993721612306 $93 $158 forward 7 unknown #
face $-1 $159 $160 $22 $-1 $161 reversed single #
loop $-1 $-1 $162 $60 #
plane-surface $-1 0 -17.504611714164312 3.3088241840594321 0 -1 0 0 0 -1 forward_v I I I I #
coedge $-1 $163 $164 $165 $166 reversed $61 $-1 #
coedge $-1 $167 $63 $168 $169 forward $39 $-1 #
coedge $-1 $63 $167 $170 $171 reversed $39 $-1 #
coedge $-1 $172 $173 $63 $102 forward $174 $-1 #
edge $-1 $175 7.5774603552201576 $176 12.276842362668152 $101 $177 forward 7 unknown #
face $-1 $178 $179 $23 $-1 $180 reversed single #
loop $-1 $-1 $181 $64 #
plane-surface $-1 0 17.504611714164312 3.3088241840594321 0 1 0 0 0 1 forward_v I I I I #
coedge $-1 $182 $183 $184 $185 reversed $65 $-1 #
coedge $-1 $186 $67 $187 $188 reversed $42 $-1 #
coedge $-1 $67 $186 $189 $190 forward $42 $-1 #
coedge $-1 $191 $192 $67 $110 forward $179 $-1 #
edge $-1 $193 -12.276842362668152 $194 -7.5774603552201576 $109 $195 forward 7 unknown #
face $-1 $196 $197 $24 $-1 $198 reversed single #
loop $-1 $-1 $199 $68 #
plane-surface $-1 0 17.504611714164312 3.3088241840594321 0 1 0 0 0 1 forward_v I I I I #
coedge $-1 $200 $201 $202 $203 reversed $69 $-1 #
coedge $-1 $204 $71 $199 $205 forward $45 $-1 #
coedge $-1 $71 $204 $200 $206 forward $45 $-1 #
coedge $-1 $202 $207 $71 $118 forward $197 $-1 #
edge $-1 $208 -10.616188027908422 $209 -3.16065934460336 $117 $210 forward 7 unknown #
loop $-1 $-1 $124 $72 #
plane-surface $-1 -50.95980712302012 13.776847372511781 0.91802851306960065 -0.51503808176128008 0 0.85716729658548041 0.85716729658548041 0 0.51503808176128008 forward_v I I I I #
loop $-1 $-1 $211 $47 #
coedge $-1 $122 $122 $123 $212 reversed $73 $-1 #
coedge $-1 $123 $123 $122 $212 forward $75 $-1 #
coedge $-1 $124 $124 $76 $125 forward $119 $-1 #
edge $-1 $213 0 $213 6.2831853071796004 $124 $214 forward 7 unknown #
loop $-1 $-1 $131 $77 #
plane-surface $-1 -50.95980712302012 13.776847372511781 0.91802851306960065 -0.51503808176128008 0 0.85716729658548041 0.85716729658548041 0 0.51503808176128008 forward_v I I I I #
loop $-1 $-1 $215 $50 #
coedge $-1 $129 $129 $130 $216 reversed $78 $-1 #
coedge $-1 $130 $130 $129 $216 forward $80 $-1 #
coedge $-1 $131 $131 $81 $132 forward $126 $-1 #
edge $-1 $217 0 $217 6.2831853071796004 $131 $218 forward 7 unknown #
loop $-1 $-1 $138 $82 #
plane-surface $-1 -50.95980712302012 13.776847372511781 0.91802851306960065 -0.51503808176128008 0 0.85716729658548041 0.85716729658548041 0 0.51503808176128008 forward_v I I I I #
loop $-1 $-1 $219 $53 #
coedge $-1 $136 $136 $137 $220 reversed $83 $-1 #
coedge $-1 $137 $137 $136 $220 forward $85 $-1 #
coedge $-1 $138 $138 $86 $139 forward $133 $-1 #
edge $-1 $221 0 $221 6.2831853071796004 $138 $222 forward 7 unknown #
face $-1 $223 $224 $21 $-1 $225 reversed single #
loop $-1 $-1 $226 $87 #
plane-surface $-1 -50.959807123020113 0 0 1 0 0 0 0 -1 forward_v I I I I #
coedge $-1 $227 $151 $228 $229 forward $88 $-1 #
coedge $-1 $230 $90 $227 $231 forward $57 $-1 #
coedge $-1 $90 $230 $232 $233 forward $57 $-1 #
coedge $-1 $154 $153 $90 $147 reversed $155 $-1 #
edge $-1 $234 -22.203993721612306 $235 22.203993721612306 $146 $236 forward 7 unknown #
coedge $-1 $92 $91 $237 $238 forward $36 $-1 #
coedge $-1 $239 $240 $91 $150 reversed $224 $-1 #
edge $-1 $157 -50.959807123020113 $241 50.959807123020113 $149 $242 forward 7 unknown #
coedge $-1 $143 $243 $92 $152 reversed $88 $-1 #
edge $-1 $244 -50.959807123020113 $156 50.959807123020113 $151 $245 forward 7 unknown #
coedge $-1 $146 $93 $243 $246 forward $155 $-1 #
coedge $-1 $93 $146 $239 $247 reversed $155 $-1 #
loop $-1 $-1 $153 $223 #
vertex $-1 $94 $248 #
vertex $-1 $94 $249 #
straight-curve $-1 50.959807123020113 0 5.3212470320049121 0 1 0 I I #
face $-1 $250 $251 $22 $-1 $252 reversed single #
loop $-1 $-1 $253 $95 #
plane-surface $-1 -50.959807123020113 0 0 1 0 0 0 0 -1 forward_v I I I I #
coedge $-1 $254 $168 $173 $255 reversed $96 $-1 #
coedge $-1 $256 $98 $257 $258 reversed $61 $-1 #
coedge $-1 $98 $256 $254 $259 forward $61 $-1 #
coedge $-1 $173 $172 $98 $166 forward $174 $-1 #
edge $-1 $260 -12.276842362668152 $261 -7.5774603552201576 $165 $262 forward 7 unknown #
coedge $-1 $100 $99 $253 $263 reversed $39 $-1 #
coedge $-1 $162 $264 $99 $169 reversed $96 $-1 #
edge $-1 $175 -50.959807123020113 $265 50.959807123020113 $168 $266 forward 7 unknown #
coedge $-1 $267 $268 $100 $171 forward $251 $-1 #
edge $-1 $176 -50.959807123020113 $269 50.959807123020113 $170 $270 forward 7 unknown #
coedge $-1 $165 $101 $268 $271 forward $174 $-1 #
coedge $-1 $101 $165 $162 $255 forward $174 $-1 #
loop $-1 $-1 $101 $250 #
vertex $-1 $102 $272 #
vertex $-1 $271 $273 #
straight-curve $-1 50.959807123020113 -9.9271513589441547 4.8088241840594321 0 -1 0 I I #
face $-1 $274 $275 $23 $-1 $276 reversed single #
loop $-1 $-1 $109 $103 #
plane-surface $-1 50.959807123020113 0 0 -1 0 0 0 0 1 forward_v I I I I #
coedge $-1 $277 $189 $278 $279 reversed $104 $-1 #
coedge $-1 $280 $106 $277 $281 forward $65 $-1 #
coedge $-1 $106 $280 $282 $283 reversed $65 $-1 #
coedge $-1 $192 $191 $106 $185 forward $179 $-1 #
edge $-1 $284 7.5774603552201576 $285 12.276842362668152 $184 $286 forward 7 unknown #
coedge $-1 $108 $107 $287 $288 reversed $42 $-1 #
coedge $-1 $289 $290 $107 $188 forward $291 $-1 #
edge $-1 $292 -50.959807123020113 $193 50.959807123020113 $187 $293 forward 7 unknown #
coedge $-1 $181 $294 $108 $190 reversed $104 $-1 #
edge $-1 $295 -50.959807123020113 $194 50.959807123020113 $189 $296 forward 7 unknown #
coedge $-1 $184 $109 $294 $297 forward $179 $-1 #
coedge $-1 $109 $184 $289 $298 reversed $179 $-1 #
vertex $-1 $298 $299 #
vertex $-1 $110 $300 #
straight-curve $-1 50.959807123020113 9.9271513589441547 4.8088241840594321 0 -1 0 I I #
face $-1 $-1 $301 $24 $-1 $302 forward single #
loop $-1 $-1 $207 $111 #
plane-surface $-1 -50.959807123020113 0 0 1 0 0 0 0 -1 forward_v I I I I #
coedge $-1 $303 $304 $115 $205 reversed $112 $-1 #
coedge $-1 $201 $114 $116 $206 reversed $69 $-1 #
coedge $-1 $114 $200 $305 $306 reversed $69 $-1 #
coedge $-1 $307 $117 $114 $203 forward $197 $-1 #
edge $-1 $209 -43.222065849621849 $308 -38.818847330686545 $202 $309 forward 7 unknown #
coedge $-1 $116 $115 $310 $311 reversed $45 $-1 #
edge $-1 $208 8.2634070795339233e-015 $312 8.5493066918034266 $199 $313 forward 7 unknown #
edge $-1 $314 -8.5493066918034266 $209 -8.2634070795339233e-015 $200 $315 forward 7 unknown #
coedge $-1 $117 $307 $303 $316 forward $197 $-1 #
vertex $-1 $118 $317 #
vertex $-1 $118 $318 #
straight-curve $-1 -50.959807123020113 6.8884236862558907 0.91802851306960476 0 -1 0 I I #
coedge $-1 $211 $211 $-1 $319 reversed $121 $-1 #
edge $-1 $320 0 $320 6.2831853071796004 $122 $321 forward 7 unknown #
vertex $-1 $125 $322 #
ellipse-curve $-1 -47.295714070673469 11.540188767520263 3.1196377725372595 -0.51503808176128008 0 0.85716729658548041 0.4285836482927402 0 0.25751904088064004 1 I I #
coedge $-1 $215 $215 $-1 $323 reversed $128 $-1 #
edge $-1 $324 0 $324 6.2831853071796004 $129 $325 forward 7 unknown #
vertex $-1 $132 $326 #
ellipse-curve $-1 -47.295714070673469 13.776847372511781 3.1196377725372595 -0.51503808176128008 0 0.85716729658548041 0.4285836482927402 0 0.25751904088064004 1 I I #
coedge $-1 $219 $219 $-1 $327 reversed $135 $-1 #
edge $-1 $328 0 $328 6.2831853071796004 $136 $329 forward 7 unknown #
vertex $-1 $139 $330 #
ellipse-curve $-1 -47.295714070673469 16.0135059775033 3.1196377725372595 -0.51503808176128008 0 0.85716729658548041 0.4285836482927402 0 0.25751904088064004 1 I I #
face $-1 $-1 $155 $21 $-1 $331 reversed single #
loop $-1 $-1 $239 $140 #
plane-surface $-1 0 22.203993721612306 0 0 -1 0 0 0 -1 forward_v I I I I #
coedge $-1 $332 $237 $240 $333 forward $141 $-1 #
coedge $-1 $243 $143 $144 $231 reversed $88 $-1 #
coedge $-1 $237 $332 $143 $229 reversed $141 $-1 #
edge $-1 $244 -5.3212470320049121 $334 5.3212470320049121 $228 $335 forward 7 unknown #
coedge $-1 $145 $144 $332 $336 forward $57 $-1 #
edge $-1 $235 -50.959807123020113 $334 50.959807123020113 $227 $337 forward 7 unknown #
coedge $-1 $240 $239 $145 $233 reversed $224 $-1 #
edge $-1 $338 -50.959807123020113 $234 50.959807123020113 $232 $339 forward 7 unknown #
vertex $-1 $147 $340 #
vertex $-1 $246 $341 #
straight-curve $-1 50.959807123020113 0 -5.3212470320049121 0 -1 0 I I #
coedge $-1 $226 $228 $148 $238 reversed $141 $-1 #
edge $-1 $241 -22.203993721612306 $244 22.203993721612306 $237 $342 forward 7 unknown #
coedge $-1 $232 $149 $154 $247 forward $224 $-1 #
coedge $-1 $149 $232 $226 $333 reversed $224 $-1 #
vertex $-1 $150 $343 #
straight-curve $-1 0 22.203993721612306 5.3212470320049121 -1 0 0 I I #
coedge $-1 $151 $227 $153 $246 reversed $88 $-1 #
vertex $-1 $238 $344 #
straight-curve $-1 0 -22.203993721612306 5.3212470320049121 1 0 0 I I #
edge $-1 $156 -5.3212470320049121 $235 5.3212470320049121 $153 $345 forward 7 unknown #
edge $-1 $157 -5.3212470320049121 $234 5.3212470320049121 $154 $346 forward 7 unknown #
point $-1 50.959807123020113 -22.203993721612306 5.3212470320049121 #
point $-1 50.959807123020113 22.203993721612306 5.3212470320049121 #
face $-1 $-1 $174 $22 $-1 $347 reversed single #
loop $-1 $-1 $170 $159 #
plane-surface $-1 0 -22.203993721612306 0 0 1 0 0 0 1 forward_v I I I I #
coedge $-1 $348 $349 $167 $263 forward $160 $-1 #
coedge $-1 $264 $162 $164 $259 reversed $96 $-1 #
edge $-1 $261 0.15441209202971562 $175 3.1544120920297161 $173 $350 forward 7 unknown #
coedge $-1 $164 $163 $351 $352 reversed $61 $-1 #
coedge $-1 $268 $267 $163 $258 forward $251 $-1 #
edge $-1 $353 -50.959807123020113 $260 50.959807123020113 $257 $354 forward 7 unknown #
edge $-1 $355 -50.959807123020113 $261 50.959807123020113 $254 $356 forward 7 unknown #
vertex $-1 $258 $357 #
vertex $-1 $166 $358 #
straight-curve $-1 50.959807123020113 -9.9271513589441547 1.8088241840594317 0 1 0 I I #
edge $-1 $269 -12.276842362668152 $265 -7.5774603552201576 $253 $359 forward 7 unknown #
coedge $-1 $168 $254 $348 $360 reversed $96 $-1 #
vertex $-1 $263 $361 #
straight-curve $-1 0 -17.504611714164312 4.8088241840594321 -1 0 0 I I #
coedge $-1 $257 $170 $349 $362 forward $251 $-1 #
coedge $-1 $170 $257 $172 $271 reversed $251 $-1 #
vertex $-1 $362 $363 #
straight-curve $-1 0 -22.203993721612306 4.8088241840594321 -1 0 0 I I #
edge $-1 $176 -4.8088241840594321 $260 -1.8088241840594317 $172 $364 forward 7 unknown #
point $-1 50.959807123020113 -17.504611714164312 4.8088241840594321 #
point $-1 50.959807123020113 -22.203993721612306 4.8088241840594321 #
face $-1 $-1 $291 $23 $-1 $365 reversed single #
loop $-1 $-1 $287 $178 #
plane-surface $-1 -50.959807123020113 0 0 1 0 0 0 0 -1 forward_v I I I I #
coedge $-1 $294 $181 $182 $281 reversed $104 $-1 #
coedge $-1 $287 $366 $181 $279 forward $275 $-1 #
edge $-1 $367 0.15441209202971562 $295 3.1544120920297161 $278 $368 forward 7 unknown #
coedge $-1 $183 $182 $366 $369 reversed $65 $-1 #
edge $-1 $284 -50.959807123020113 $367 50.959807123020113 $277 $370 forward 7 unknown #
coedge $-1 $290 $289 $183 $283 forward $291 $-1 #
edge $-1 $285 -50.959807123020113 $371 50.959807123020113 $282 $372 forward 7 unknown #
vertex $-1 $185 $373 #
vertex $-1 $283 $374 #
straight-curve $-1 50.959807123020113 9.9271513589441547 1.8088241840594317 0 1 0 I I #
coedge $-1 $375 $278 $186 $288 forward $275 $-1 #
edge $-1 $295 7.5774603552201576 $292 12.276842362668152 $287 $376 forward 7 unknown #
coedge $-1 $282 $187 $192 $298 forward $291 $-1 #
coedge $-1 $187 $282 $375 $377 reversed $291 $-1 #
loop $-1 $-1 $187 $274 #
vertex $-1 $377 $378 #
straight-curve $-1 0 22.203993721612306 4.8088241840594321 1 0 0 I I #
coedge $-1 $189 $277 $191 $297 reversed $104 $-1 #
vertex $-1 $288 $379 #
straight-curve $-1 0 17.504611714164312 4.8088241840594321 1 0 0 I I #
edge $-1 $194 -3.1544120920297161 $284 -0.15441209202971562 $191 $380 forward 7 unknown #
edge $-1 $193 -4.8088241840594321 $285 -1.8088241840594317 $192 $381 forward 7 unknown #
point $-1 50.959807123020113 22.203993721612306 4.8088241840594321 #
point $-1 50.959807123020113 17.504611714164312 4.8088241840594321 #
loop $-1 $-1 $382 $196 #
plane-surface $-1 0 0 5.3212470320049121 0 0 1 1 0 0 forward_v I I I I #
coedge $-1 $304 $199 $207 $316 reversed $112 $-1 #
coedge $-1 $199 $303 $382 $383 reversed $112 $-1 #
coedge $-1 $310 $384 $201 $306 forward $301 $-1 #
edge $-1 $308 0.76633774605504357 $314 8.0945238507483381 $305 $385 forward 7 unknown #
coedge $-1 $207 $202 $384 $386 reversed $197 $-1 #
vertex $-1 $306 $387 #
straight-curve $-1 -50.959807123020113 10.049083030859251 44.140094362691457 0 0 1 I I #
coedge $-1 $382 $305 $204 $311 forward $301 $-1 #
edge $-1 $314 3.16065934460336 $312 10.616188027908422 $310 $388 forward 7 unknown #
vertex $-1 $383 $389 #
straight-curve $-1 -50.95980712302012 17.504611714164312 0.91802851306960065 0.85716729658548041 0 0.51503808176128008 I I #
vertex $-1 $311 $390 #
straight-curve $-1 -50.95980712302012 10.049083030859251 0.91802851306960065 -0.85716729658548041 0 -0.51503808176128008 I I #
edge $-1 $391 38.818847330686545 $208 43.222065849621849 $207 $392 forward 7 unknown #
point $-1 -50.959807123020113 17.504611714164312 0.91802851306960487 #
point $-1 -50.959807123020113 10.049083030859251 0.91802851306960487 #
edge $-1 $393 1 $393 0 $211 $-1 forward 7 unknown #
vertex $-1 $212 $394 #
ellipse-curve $-1 -46.780675988912186 11.540188767520263 2.2624704759517762 -0.51503808176128008 0 0.85716729658548041 0.4285836482927402 0 0.25751904088064004 1 I I #
point $-1 -46.867130422380725 11.540188767520263 3.3771568134178969 #
edge $-1 $395 1 $395 0 $215 $-1 forward 7 unknown #
vertex $-1 $216 $396 #
ellipse-curve $-1 -46.780675988912186 13.776847372511781 2.2624704759517762 -0.51503808176128008 0 0.85716729658548041 0.4285836482927402 0 0.25751904088064004 1 I I #
point $-1 -46.867130422380725 13.776847372511781 3.3771568134178969 #
edge $-1 $397 1 $397 0 $219 $-1 forward 7 unknown #
vertex $-1 $220 $398 #
ellipse-curve $-1 -46.780675988912186 16.0135059775033 2.2624704759517762 -0.51503808176128008 0 0.85716729658548041 0.4285836482927402 0 0.25751904088064004 1 I I #
point $-1 -46.867130422380725 16.0135059775033 3.3771568134178969 #
plane-surface $-1 50.959807123020113 0 0 -1 0 0 0 0 1 forward_v I I I I #
coedge $-1 $228 $226 $230 $336 reversed $141 $-1 #
edge $-1 $241 -5.3212470320049121 $338 5.3212470320049121 $240 $399 forward 7 unknown #
vertex $-1 $336 $400 #
straight-curve $-1 -50.959807123020113 -22.203993721612306 0 0 0 -1 I I #
edge $-1 $334 -22.203993721612306 $338 22.203993721612306 $332 $401 forward 7 unknown #
straight-curve $-1 0 -22.203993721612306 -5.3212470320049121 -1 0 0 I I #
vertex $-1 $233 $402 #
straight-curve $-1 0 22.203993721612306 -5.3212470320049121 1 0 0 I I #
point $-1 50.959807123020113 22.203993721612306 -5.3212470320049121 #
point $-1 50.959807123020113 -22.203993721612306 -5.3212470320049121 #
straight-curve $-1 -50.959807123020113 0 5.3212470320049121 0 -1 0 I I #
point $-1 -50.959807123020113 22.203993721612306 5.3212470320049121 #
point $-1 -50.959807123020113 -22.203993721612306 5.3212470320049121 #
straight-curve $-1 50.959807123020113 -22.203993721612306 0 0 0 -1 I I #
straight-curve $-1 50.959807123020113 22.203993721612306 0 0 0 -1 I I #
plane-surface $-1 50.959807123020113 0 0 -1 0 0 0 0 1 forward_v I I I I #
coedge $-1 $351 $253 $264 $360 forward $160 $-1 #
coedge $-1 $253 $351 $267 $362 reversed $160 $-1 #
straight-curve $-1 50.959807123020113 -17.504611714164312 1.6544120920297161 0 0 1 I I #
coedge $-1 $349 $348 $256 $352 forward $160 $-1 #
edge $-1 $355 7.5774603552201576 $353 12.276842362668152 $351 $403 forward 7 unknown #
vertex $-1 $258 $404 #
straight-curve $-1 0 -22.203993721612306 1.8088241840594317 1 0 0 I I #
vertex $-1 $352 $405 #
straight-curve $-1 0 -17.504611714164312 1.8088241840594317 1 0 0 I I #
point $-1 50.959807123020113 -22.203993721612306 1.8088241840594317 #
point $-1 50.959807123020113 -17.504611714164312 1.8088241840594317 #
straight-curve $-1 -50.959807123020113 -9.9271513589441547 4.8088241840594321 0 1 0 I I #
edge $-1 $265 -3.1544120920297161 $355 -0.15441209202971562 $348 $406 forward 7 unknown #
point $-1 -50.959807123020113 -17.504611714164312 4.8088241840594321 #
edge $-1 $269 -4.8088241840594321 $353 -1.8088241840594317 $349 $407 forward 7 unknown #
point $-1 -50.959807123020113 -22.203993721612306 4.8088241840594321 #
straight-curve $-1 50.959807123020113 -22.203993721612306 0 0 0 -1 I I #
plane-surface $-1 0 22.203993721612306 0 0 -1 0 0 0 -1 forward_v I I I I #
coedge $-1 $278 $375 $280 $369 forward $275 $-1 #
vertex $-1 $369 $408 #
straight-curve $-1 -50.959807123020113 17.504611714164312 1.6544120920297161 0 0 1 I I #
edge $-1 $371 -12.276842362668152 $367 -7.5774603552201576 $366 $409 forward 7 unknown #
straight-curve $-1 0 17.504611714164312 1.8088241840594317 -1 0 0 I I #
vertex $-1 $283 $410 #
straight-curve $-1 0 22.203993721612306 1.8088241840594317 -1 0 0 I I #
point $-1 50.959807123020113 17.504611714164312 1.8088241840594317 #
point $-1 50.959807123020113 22.203993721612306 1.8088241840594317 #
coedge $-1 $366 $287 $290 $377 forward $275 $-1 #
straight-curve $-1 -50.959807123020113 9.9271513589441547 4.8088241840594321 0 1 0 I I #
edge $-1 $292 -4.8088241840594321 $371 -1.8088241840594317 $290 $411 forward 7 unknown #
point $-1 -50.959807123020113 22.203993721612306 4.8088241840594321 #
point $-1 -50.959807123020113 17.504611714164312 4.8088241840594321 #
straight-curve $-1 50.959807123020113 17.504611714164312 1.6544120920297161 0 0 -1 I I #
straight-curve $-1 50.959807123020113 22.203993721612306 0 0 0 -1 I I #
coedge $-1 $384 $310 $304 $383 forward $301 $-1 #
edge $-1 $312 -8.0945238507483381 $391 -0.76633774605504357 $382 $412 forward 7 unknown #
coedge $-1 $305 $382 $307 $386 forward $301 $-1 #
straight-curve $-1 -51.726144869075156 10.049083030859251 5.3212470320049121 1 0 0 I I #
edge $-1 $391 -17.504611714164312 $308 -10.049083030859251 $307 $413 forward 7 unknown #
point $-1 -50.959807123020113 10.049083030859251 5.3212470320049121 #
straight-curve $-1 -43.631621018326818 6.8884236862558907 5.3212470320049121 0 1 0 I I #
point $-1 -43.631621018326818 17.504611714164312 5.3212470320049121 #
point $-1 -43.631621018326818 10.049083030859251 5.3212470320049121 #
vertex $-1 $386 $414 #
straight-curve $-1 -50.959807123020113 17.504611714164312 44.140094362691457 0 0 -1 I I #
vertex $-1 $319 $415 #
point $-1 -46.35209234061945 11.540188767520263 2.5199895168324162 #
vertex $-1 $323 $416 #
point $-1 -46.35209234061945 13.776847372511781 2.5199895168324162 #
vertex $-1 $327 $417 #
point $-1 -46.35209234061945 16.0135059775033 2.5199895168324162 #
straight-curve $-1 -50.959807123020113 22.203993721612306 0 0 0 -1 I I #
point $-1 -50.959807123020113 -22.203993721612306 -5.3212470320049121 #
straight-curve $-1 -50.959807123020113 0 -5.3212470320049121 0 1 0 I I #
point $-1 -50.959807123020113 22.203993721612306 -5.3212470320049121 #
straight-curve $-1 -50.959807123020113 -9.9271513589441547 1.8088241840594317 0 -1 0 I I #
point $-1 -50.959807123020113 -22.203993721612306 1.8088241840594317 #
point $-1 -50.959807123020113 -17.504611714164312 1.8088241840594317 #
straight-curve $-1 -50.959807123020113 -17.504611714164312 1.6544120920297161 0 0 -1 I I #
straight-curve $-1 -50.959807123020113 -22.203993721612306 0 0 0 -1 I I #
point $-1 -50.959807123020113 17.504611714164312 1.8088241840594317 #
straight-curve $-1 -50.959807123020113 9.9271513589441547 1.8088241840594317 0 -1 0 I I #
point $-1 -50.959807123020113 22.203993721612306 1.8088241840594317 #
straight-curve $-1 -50.959807123020113 22.203993721612306 0 0 0 -1 I I #
straight-curve $-1 -51.726144869075156 17.504611714164312 5.3212470320049121 -1 0 0 I I #
straight-curve $-1 -50.959807123020113 0 5.3212470320049121 0 -1 0 I I #
point $-1 -50.959807123020113 17.504611714164312 5.3212470320049121 #
point $-1 -46.523156948031549 11.540188767520263 1.8338868276590361 #
point $-1 -46.523156948031549 13.776847372511781 1.8338868276590361 #
point $-1 -46.523156948031549 16.0135059775033 1.8338868276590361 #
End-of-ACIS-data 