500 0 14 0           
7 Unknown 11 ACIS 5.0 NT 24 Fri Mar 26 00:42:47 1999 
-1 9.9999999999999995e-007 1e-010 
body $-1 $14 $-1 $15 #
body $-1 $16 $-1 $17 #
body $-1 $18 $-1 $19 #
body $-1 $20 $-1 $21 #
body $-1 $22 $-1 $23 #
body $-1 $24 $-1 $25 #
body $-1 $26 $-1 $27 #
body $-1 $28 $-1 $29 #
body $-1 $30 $-1 $31 #
body $-1 $32 $-1 $33 #
body $-1 $34 $-1 $35 #
body $-1 $36 $-1 $37 #
body $-1 $38 $-1 $39 #
body $-1 $40 $-1 $41 #
lump $-1 $-1 $42 $0 #
transform $-1 1 0 0 0 1 0 0 0 1 74.034241767632068 48.130504012648451 14.606014976975995 1 rotate no_reflect no_shear #
lump $-1 $-1 $43 $1 #
transform $-1 1 0 0 0 1 0 0 0 1 74.034241767632068 48.130504012648451 14.606014976975995 1 rotate no_reflect no_shear #
lump $-1 $-1 $44 $2 #
transform $-1 1 0 0 0 1 0 0 0 1 74.034241767632068 48.130504012648451 14.606014976975995 1 rotate no_reflect no_shear #
lump $-1 $-1 $45 $3 #
transform $-1 1 0 0 0 1 0 0 0 1 74.034241767632068 48.130504012648451 14.606014976975995 1 rotate no_reflect no_shear #
lump $-1 $-1 $46 $4 #
transform $-1 1 0 0 0 1 0 0 0 1 74.034241767632068 48.130504012648451 14.606014976975995 1 rotate no_reflect no_shear #
lump $-1 $-1 $47 $5 #
transform $-1 1 0 0 0 1 0 0 0 1 74.034241767632068 48.130504012648451 14.606014976975995 1 rotate no_reflect no_shear #
lump $-1 $-1 $48 $6 #
transform $-1 1 0 0 0 1 0 0 0 1 74.034241767632068 48.130504012648451 14.606014976975995 1 rotate no_reflect no_shear #
lump $-1 $-1 $49 $7 #
transform $-1 1 0 0 0 1 0 0 0 1 74.034241767632068 48.130504012648451 14.606014976975995 1 rotate no_reflect no_shear #
lump $-1 $-1 $50 $8 #
transform $-1 1 0 0 0 1 0 0 0 1 74.034241767632068 48.130504012648451 14.606014976975995 1 rotate no_reflect no_shear #
lump $-1 $-1 $51 $9 #
transform $-1 1 0 0 0 1 0 0 0 1 74.034241767632068 48.130504012648451 14.606014976975995 1 rotate no_reflect no_shear #
lump $-1 $-1 $52 $10 #
transform $-1 1 0 0 0 1 0 0 0 1 74.034241767632068 48.130504012648451 14.606014976975995 1 rotate no_reflect no_shear #
lump $-1 $-1 $53 $11 #
transform $-1 1 0 0 0 1 0 0 0 1 74.034241767632068 48.130504012648451 14.606014976975995 1 rotate no_reflect no_shear #
lump $-1 $-1 $54 $12 #
transform $-1 1 0 0 0 1 0 0 0 1 74.034241767632068 48.130504012648451 14.606014976975995 1 rotate no_reflect no_shear #
lump $-1 $-1 $55 $13 #
transform $-1 1 0 0 0 1 0 0 0 1 74.034241767632068 48.130504012648451 14.606014976975995 1 rotate no_reflect no_shear #
shell $-1 $-1 $-1 $56 $-1 $14 #
shell $-1 $-1 $-1 $57 $-1 $16 #
shell $-1 $-1 $-1 $58 $-1 $18 #
shell $-1 $-1 $-1 $59 $-1 $20 #
shell $-1 $-1 $-1 $60 $-1 $22 #
shell $-1 $-1 $-1 $61 $-1 $24 #
shell $-1 $-1 $-1 $62 $-1 $26 #
shell $-1 $-1 $-1 $63 $-1 $28 #
shell $-1 $-1 $-1 $64 $-1 $30 #
shell $-1 $-1 $-1 $65 $-1 $32 #
shell $-1 $-1 $-1 $66 $-1 $34 #
shell $-1 $-1 $-1 $67 $-1 $36 #
shell $-1 $-1 $-1 $68 $-1 $38 #
shell $-1 $-1 $-1 $69 $-1 $40 #
face $-1 $70 $71 $42 $-1 $72 forward single #
face $-1 $73 $74 $43 $-1 $75 forward single #
face $-1 $76 $77 $44 $-1 $78 forward single #
face $-1 $79 $80 $45 $-1 $81 reversed single #
face $-1 $82 $83 $46 $-1 $84 forward single #
face $-1 $85 $86 $47 $-1 $87 reversed single #
face $-1 $88 $89 $48 $-1 $90 forward single #
face $-1 $91 $92 $49 $-1 $93 reversed single #
face $-1 $94 $95 $50 $-1 $96 forward single #
face $-1 $97 $98 $51 $-1 $99 reversed single #
face $-1 $100 $101 $52 $-1 $102 forward single #
face $-1 $103 $104 $53 $-1 $105 reversed single #
face $-1 $106 $107 $54 $-1 $108 forward single #
face $-1 $109 $110 $55 $-1 $111 forward single #
face $-1 $112 $113 $42 $-1 $114 reversed single #
loop $-1 $-1 $115 $56 #
plane-surface $-1 0 0 14.606014976975995 0 0 1 1 0 0 forward_v I I I I #
face $-1 $116 $117 $43 $-1 $118 reversed single #
loop $-1 $-1 $119 $57 #
plane-surface $-1 0 -40.521379555097418 9.6763256895989773 0 0 1 1 0 0 forward_v I I I I #
face $-1 $120 $121 $44 $-1 $122 reversed single #
loop $-1 $-1 $123 $58 #
plane-surface $-1 0 40.521379555097418 9.6763256895989773 0 0 1 1 0 0 forward_v I I I I #
face $-1 $124 $125 $45 $-1 $126 reversed single #
loop $-1 $-1 $127 $59 #
plane-surface $-1 66.726273509154709 -29.487804314637359 217.22818988074596 0 1 0 0.68199836817093118 0 0.7313536940579346 forward_v I I I I #
face $-1 $128 $129 $46 $-1 $130 forward single #
loop $-1 $131 $132 $60 #
cone-surface $-1 69.104856618476347 -25.132582960745907 9.8186163576511731 -0.68199836817093118 0 -0.7313536940579346 0.7313536940579346 0 -0.68199836817093118 1 I I 0 1 1 forward I I I I #
face $-1 $133 $134 $47 $-1 $135 reversed single #
loop $-1 $-1 $136 $61 #
plane-surface $-1 66.726273509154709 -12.732749007473421 217.22818988074596 0 1 0 0.68199836817093118 0 0.7313536940579346 forward_v I I I I #
face $-1 $137 $138 $48 $-1 $139 forward single #
loop $-1 $140 $141 $62 #
cone-surface $-1 69.104856618476347 -8.3775276535819714 9.8186163576511731 -0.68199836817093118 0 -0.7313536940579346 0.7313536940579346 0 -0.68199836817093118 1 I I 0 1 1 forward I I I I #
face $-1 $142 $143 $49 $-1 $144 reversed single #
loop $-1 $-1 $145 $63 #
plane-surface $-1 66.726273509154709 4.0223062996905217 217.22818988074596 0 1 0 0.68199836817093118 0 0.7313536940579346 forward_v I I I I #
face $-1 $146 $147 $50 $-1 $148 forward single #
loop $-1 $149 $150 $64 #
cone-surface $-1 69.104856618476347 8.3775276535819714 9.8186163576511731 -0.68199836817093118 0 -0.7313536940579346 0.7313536940579346 0 -0.68199836817093118 1 I I 0 1 1 forward I I I I #
face $-1 $151 $152 $51 $-1 $153 reversed single #
loop $-1 $-1 $154 $65 #
plane-surface $-1 66.726273509154709 20.777361606854463 217.22818988074596 0 1 0 0.68199836817093118 0 0.7313536940579346 forward_v I I I I #
face $-1 $155 $156 $52 $-1 $157 forward single #
loop $-1 $158 $159 $66 #
cone-surface $-1 69.104856618476347 25.132582960745914 9.8186163576511731 -0.68199836817093118 0 -0.7313536940579346 0.7313536940579346 0 -0.68199836817093118 1 I I 0 1 1 forward I I I I #
face $-1 $160 $161 $53 $-1 $162 reversed single #
loop $-1 $-1 $163 $67 #
plane-surface $-1 -185.78294604803074 -16.07770967536046 101.08141156720954 0 -1 0 0.75470958851134928 0 -0.65605901945558964 forward_v I I I I #
face $-1 $164 $165 $54 $-1 $166 forward single #
loop $-1 $167 $168 $68 #
cone-surface $-1 -68.810703572955802 -26.379317696575828 8.7621614795820513 0.75470958851134928 0 -0.65605901945558964 0.65605901945558964 0 0.75470958851134928 1 I I 0 1 1 forward I I I I #
face $-1 $169 $170 $55 $-1 $171 forward single #
loop $-1 $172 $173 $69 #
cone-surface $-1 -68.810703572955802 -20.19835288384661 8.7621614795820513 0.75470958851134928 0 -0.65605901945558964 0.65605901945558964 0 0.75470958851134928 1 I I 0 1 1 forward I I I I #
face $-1 $174 $175 $42 $-1 $176 reversed single #
loop $-1 $-1 $177 $70 #
plane-surface $-1 0 0 -14.606014976975995 0 0 1 1 0 0 forward_v I I I I #
coedge $-1 $178 $179 $180 $181 forward $71 $-1 #
face $-1 $182 $183 $43 $-1 $184 reversed single #
loop $-1 $-1 $185 $73 #
plane-surface $-1 0 -40.521379555097418 1.8960496005113452 0 0 1 1 0 0 forward_v I I I I #
coedge $-1 $186 $187 $188 $189 reversed $74 $-1 #
face $-1 $190 $191 $44 $-1 $192 reversed single #
loop $-1 $-1 $193 $76 #
plane-surface $-1 0 40.521379555097418 1.8960496005113452 0 0 1 1 0 0 forward_v I I I I #
coedge $-1 $194 $195 $196 $197 reversed $77 $-1 #
face $-1 $198 $199 $45 $-1 $200 reversed single #
loop $-1 $-1 $201 $79 #
plane-surface $-1 -34.256190639439822 -25.132582960745907 108.93775747367407 0.68199836817093118 0 0.7313536940579346 0.7313536940579346 0 -0.68199836817093118 forward_v I I I I #
coedge $-1 $202 $203 $204 $205 reversed $80 $-1 #
face $-1 $-1 $206 $46 $-1 $207 forward single #
loop $-1 $208 $209 $82 #
cone-surface $-1 67.400485105258866 -25.132582960745907 7.9909017172456096 -0.68199836817093118 0 -0.7313536940579346 0.3656768470289673 0 -0.34099918408546559 1 I I -0.70710678118654746 0.70710678118654746 0.5 forward I I I I #
loop $-1 $-1 $210 $60 #
coedge $-1 $132 $132 $211 $212 reversed $83 $-1 #
face $-1 $213 $214 $47 $-1 $215 reversed single #
loop $-1 $-1 $216 $85 #
plane-surface $-1 -34.256190639439822 -8.3775276535819714 108.93775747367407 0.68199836817093118 0 0.7313536940579346 0.7313536940579346 0 -0.68199836817093118 forward_v I I I I #
coedge $-1 $217 $218 $219 $220 reversed $86 $-1 #
face $-1 $-1 $221 $48 $-1 $222 forward single #
loop $-1 $223 $224 $88 #
cone-surface $-1 67.400485105258866 -8.3775276535819714 7.9909017172456096 -0.68199836817093118 0 -0.7313536940579346 0.3656768470289673 0 -0.34099918408546559 1 I I -0.70710678118654746 0.70710678118654746 0.5 forward I I I I #
loop $-1 $-1 $225 $62 #
coedge $-1 $141 $141 $226 $227 reversed $89 $-1 #
face $-1 $228 $229 $49 $-1 $230 reversed single #
loop $-1 $-1 $231 $91 #
plane-surface $-1 -34.256190639439822 8.3775276535819714 108.93775747367407 0.68199836817093118 0 0.7313536940579346 0.7313536940579346 0 -0.68199836817093118 forward_v I I I I #
coedge $-1 $232 $233 $234 $235 reversed $92 $-1 #
face $-1 $-1 $236 $50 $-1 $237 forward single #
loop $-1 $238 $239 $94 #
cone-surface $-1 67.400485105258866 8.3775276535819714 7.9909017172456096 -0.68199836817093118 0 -0.7313536940579346 0.3656768470289673 0 -0.34099918408546559 1 I I -0.70710678118654746 0.70710678118654746 0.5 forward I I I I #
loop $-1 $-1 $240 $64 #
coedge $-1 $150 $150 $241 $242 reversed $95 $-1 #
face $-1 $243 $244 $51 $-1 $245 reversed single #
loop $-1 $-1 $246 $97 #
plane-surface $-1 -34.256190639439822 25.132582960745914 108.93775747367407 0.68199836817093118 0 0.7313536940579346 0.7313536940579346 0 -0.68199836817093118 forward_v I I I I #
coedge $-1 $247 $248 $249 $250 reversed $98 $-1 #
face $-1 $-1 $251 $52 $-1 $252 forward single #
loop $-1 $253 $254 $100 #
cone-surface $-1 67.400485105258866 25.132582960745914 7.9909017172456096 -0.68199836817093118 0 -0.7313536940579346 0.3656768470289673 0 -0.34099918408546559 1 I I -0.70710678118654746 0.70710678118654746 0.5 forward I I I I #
loop $-1 $-1 $255 $66 #
coedge $-1 $159 $159 $256 $257 reversed $101 $-1 #
face $-1 $258 $259 $53 $-1 $260 reversed single #
loop $-1 $-1 $261 $103 #
plane-surface $-1 -74.034241767632039 -23.288835290211217 3.9397474467880329 -0.75470958851134928 0 0.65605901945558964 0.65605901945558964 0 0.75470958851134928 forward_v I I I I #
coedge $-1 $262 $263 $264 $265 reversed $104 $-1 #
face $-1 $-1 $266 $54 $-1 $267 forward single #
loop $-1 $268 $269 $106 #
cone-surface $-1 -67.845832918726757 -26.379317696575828 7.9234122375542846 0.75470958851134928 0 -0.65605901945558964 0.32802950972779482 0 0.37735479425567464 1 I I -0.70710678118654691 0.70710678118654813 0.5 forward I I I I #
loop $-1 $-1 $270 $68 #
coedge $-1 $168 $168 $271 $272 reversed $107 $-1 #
face $-1 $-1 $273 $55 $-1 $274 forward single #
loop $-1 $275 $276 $109 #
cone-surface $-1 -67.845832918726757 -20.19835288384661 7.9234122375542846 0.75470958851134928 0 -0.65605901945558964 0.32802950972779482 0 0.37735479425567464 1 I I -0.70710678118654691 0.70710678118654813 0.5 forward I I I I #
loop $-1 $-1 $277 $69 #
coedge $-1 $173 $173 $278 $279 reversed $110 $-1 #
face $-1 $280 $281 $42 $-1 $282 reversed single #
loop $-1 $-1 $283 $112 #
plane-surface $-1 0 -48.130504012648451 0 0 1 0 0 0 1 forward_v I I I I #
coedge $-1 $284 $285 $286 $287 forward $113 $-1 #
coedge $-1 $288 $115 $289 $290 forward $71 $-1 #
coedge $-1 $115 $288 $291 $292 forward $71 $-1 #
coedge $-1 $293 $294 $115 $181 reversed $295 $-1 #
edge $-1 $296 -48.130504012648451 $297 48.130504012648451 $180 $298 forward 7 unknown #
face $-1 $299 $300 $43 $-1 $301 reversed single #
loop $-1 $-1 $302 $116 #
plane-surface $-1 0 -32.912255097546385 5.7861876450551613 0 -1 0 0 0 -1 forward_v I I I I #
coedge $-1 $303 $304 $305 $306 reversed $117 $-1 #
coedge $-1 $307 $119 $308 $309 forward $74 $-1 #
coedge $-1 $119 $307 $310 $311 reversed $74 $-1 #
coedge $-1 $312 $313 $119 $189 forward $314 $-1 #
edge $-1 $315 12.651565319997676 $316 27.869814235099742 $188 $317 forward 7 unknown #
face $-1 $318 $319 $44 $-1 $320 reversed single #
loop $-1 $-1 $321 $120 #
plane-surface $-1 0 32.912255097546385 5.7861876450551613 0 1 0 0 0 1 forward_v I I I I #
coedge $-1 $322 $323 $324 $325 reversed $121 $-1 #
coedge $-1 $326 $123 $327 $328 reversed $77 $-1 #
coedge $-1 $123 $326 $329 $330 forward $77 $-1 #
coedge $-1 $331 $332 $123 $197 forward $319 $-1 #
edge $-1 $333 -27.869814235099742 $334 -12.651565319997676 $196 $335 forward 7 unknown #
face $-1 $336 $337 $45 $-1 $338 forward single #
loop $-1 $-1 $339 $124 #
plane-surface $-1 66.726273509154709 -20.777361606854456 217.22818988074596 0 -1 0 -0.68199836817093118 0 -0.7313536940579346 forward_v I I I I #
coedge $-1 $340 $341 $342 $343 reversed $125 $-1 #
coedge $-1 $203 $127 $344 $345 reversed $80 $-1 #
coedge $-1 $127 $202 $340 $346 reversed $80 $-1 #
coedge $-1 $342 $347 $127 $205 forward $348 $-1 #
edge $-1 $349 94.00807996339698 $350 100.65880161529344 $204 $351 forward 7 unknown #
loop $-1 $-1 $211 $128 #
plane-surface $-1 -34.256190639439822 -25.132582960745907 108.93775747367407 0.68199836817093118 0 0.7313536940579346 0.7313536940579346 0 -0.68199836817093118 forward_v I I I I #
loop $-1 $-1 $352 $82 #
coedge $-1 $209 $209 $210 $353 reversed $129 $-1 #
coedge $-1 $210 $210 $209 $353 forward $131 $-1 #
coedge $-1 $211 $211 $132 $212 forward $206 $-1 #
edge $-1 $354 0 $354 6.2831853071796004 $211 $355 forward 7 unknown #
face $-1 $356 $357 $47 $-1 $358 reversed single #
loop $-1 $-1 $359 $133 #
plane-surface $-1 66.726273509154709 -4.0223062996905217 217.22818988074596 0 -1 0 -0.68199836817093118 0 -0.7313536940579346 forward_v I I I I #
coedge $-1 $360 $361 $362 $363 reversed $134 $-1 #
coedge $-1 $218 $136 $364 $365 reversed $86 $-1 #
coedge $-1 $136 $217 $360 $366 reversed $86 $-1 #
coedge $-1 $362 $367 $136 $220 forward $357 $-1 #
edge $-1 $368 94.00807996339698 $369 100.65880161529344 $219 $370 forward 7 unknown #
loop $-1 $-1 $226 $137 #
plane-surface $-1 -34.256190639439822 -8.3775276535819714 108.93775747367407 0.68199836817093118 0 0.7313536940579346 0.7313536940579346 0 -0.68199836817093118 forward_v I I I I #
loop $-1 $-1 $371 $88 #
coedge $-1 $224 $224 $225 $372 reversed $138 $-1 #
coedge $-1 $225 $225 $224 $372 forward $140 $-1 #
coedge $-1 $226 $226 $141 $227 forward $221 $-1 #
edge $-1 $373 0 $373 6.2831853071796004 $226 $374 forward 7 unknown #
face $-1 $375 $376 $49 $-1 $377 reversed single #
loop $-1 $-1 $378 $142 #
plane-surface $-1 66.726273509154709 12.732749007473421 217.22818988074596 0 -1 0 -0.68199836817093118 0 -0.7313536940579346 forward_v I I I I #
coedge $-1 $379 $380 $381 $382 reversed $143 $-1 #
coedge $-1 $233 $145 $383 $384 reversed $92 $-1 #
coedge $-1 $145 $232 $379 $385 reversed $92 $-1 #
coedge $-1 $381 $386 $145 $235 forward $376 $-1 #
edge $-1 $387 94.00807996339698 $388 100.65880161529344 $234 $389 forward 7 unknown #
loop $-1 $-1 $241 $146 #
plane-surface $-1 -34.256190639439822 8.3775276535819714 108.93775747367407 0.68199836817093118 0 0.7313536940579346 0.7313536940579346 0 -0.68199836817093118 forward_v I I I I #
loop $-1 $-1 $390 $94 #
coedge $-1 $239 $239 $240 $391 reversed $147 $-1 #
coedge $-1 $240 $240 $239 $391 forward $149 $-1 #
coedge $-1 $241 $241 $150 $242 forward $236 $-1 #
edge $-1 $392 0 $392 6.2831853071796004 $241 $393 forward 7 unknown #
face $-1 $394 $395 $51 $-1 $396 reversed single #
loop $-1 $-1 $397 $151 #
plane-surface $-1 66.726273509154709 29.487804314637366 217.22818988074596 0 -1 0 -0.68199836817093118 0 -0.7313536940579346 forward_v I I I I #
coedge $-1 $398 $399 $400 $401 reversed $152 $-1 #
coedge $-1 $248 $154 $402 $403 reversed $98 $-1 #
coedge $-1 $154 $247 $398 $404 reversed $98 $-1 #
coedge $-1 $400 $405 $154 $250 forward $395 $-1 #
edge $-1 $406 94.00807996339698 $407 100.65880161529344 $249 $408 forward 7 unknown #
loop $-1 $-1 $256 $155 #
plane-surface $-1 -34.256190639439822 25.132582960745914 108.93775747367407 0.68199836817093118 0 0.7313536940579346 0.7313536940579346 0 -0.68199836817093118 forward_v I I I I #
loop $-1 $-1 $409 $100 #
coedge $-1 $254 $254 $255 $410 reversed $156 $-1 #
coedge $-1 $255 $255 $254 $410 forward $158 $-1 #
coedge $-1 $256 $256 $159 $257 forward $251 $-1 #
edge $-1 $411 0 $411 6.2831853071796004 $256 $412 forward 7 unknown #
face $-1 $413 $414 $53 $-1 $415 reversed single #
loop $-1 $-1 $416 $160 #
plane-surface $-1 -185.78294604803074 -30.499960905061975 101.08141156720954 0 1 0 -0.75470958851134928 0 0.65605901945558964 forward_v I I I I #
coedge $-1 $417 $418 $419 $420 reversed $161 $-1 #
coedge $-1 $263 $163 $421 $422 reversed $104 $-1 #
coedge $-1 $163 $262 $417 $423 reversed $104 $-1 #
coedge $-1 $419 $424 $163 $265 forward $414 $-1 #
edge $-1 $425 35.93469080662878 $426 46.600958336816774 $264 $427 forward 7 unknown #
loop $-1 $-1 $271 $164 #
plane-surface $-1 -74.034241767632039 -23.288835290211217 3.9397474467880329 -0.75470958851134928 0 0.65605901945558964 0.65605901945558964 0 0.75470958851134928 forward_v I I I I #
loop $-1 $-1 $428 $106 #
coedge $-1 $269 $269 $270 $429 reversed $165 $-1 #
coedge $-1 $270 $270 $269 $429 forward $167 $-1 #
coedge $-1 $271 $271 $168 $272 forward $266 $-1 #
edge $-1 $430 0 $430 6.2831853071796004 $271 $431 forward 7 unknown #
loop $-1 $-1 $278 $169 #
plane-surface $-1 -74.034241767632039 -23.288835290211217 3.9397474467880329 -0.75470958851134928 0 0.65605901945558964 0.65605901945558964 0 0.75470958851134928 forward_v I I I I #
loop $-1 $-1 $432 $109 #
coedge $-1 $276 $276 $277 $433 reversed $170 $-1 #
coedge $-1 $277 $277 $276 $433 forward $172 $-1 #
coedge $-1 $278 $278 $173 $279 forward $273 $-1 #
edge $-1 $434 0 $434 6.2831853071796004 $278 $435 forward 7 unknown #
face $-1 $436 $437 $42 $-1 $438 reversed single #
loop $-1 $-1 $439 $174 #
plane-surface $-1 -74.034241767632068 0 0 1 0 0 0 0 -1 forward_v I I I I #
coedge $-1 $440 $291 $441 $442 forward $175 $-1 #
coedge $-1 $443 $177 $440 $444 forward $113 $-1 #
coedge $-1 $177 $443 $445 $446 forward $113 $-1 #
coedge $-1 $294 $293 $177 $287 reversed $295 $-1 #
edge $-1 $447 -48.130504012648451 $448 48.130504012648451 $286 $449 forward 7 unknown #
coedge $-1 $179 $178 $450 $451 forward $71 $-1 #
coedge $-1 $452 $453 $178 $290 reversed $437 $-1 #
edge $-1 $297 -74.034241767632068 $454 74.034241767632068 $289 $455 forward 7 unknown #
coedge $-1 $283 $456 $179 $292 reversed $175 $-1 #
edge $-1 $457 -74.034241767632068 $296 74.034241767632068 $291 $458 forward 7 unknown #
coedge $-1 $286 $180 $456 $459 forward $295 $-1 #
coedge $-1 $180 $286 $452 $460 reversed $295 $-1 #
loop $-1 $-1 $293 $436 #
vertex $-1 $181 $461 #
vertex $-1 $181 $462 #
straight-curve $-1 74.034241767632068 0 14.606014976975995 0 1 0 I I #
face $-1 $463 $464 $43 $-1 $465 reversed single #
loop $-1 $-1 $466 $182 #
plane-surface $-1 -74.034241767632068 0 0 1 0 0 0 0 -1 forward_v I I I I #
coedge $-1 $467 $308 $313 $468 reversed $183 $-1 #
coedge $-1 $469 $185 $470 $471 reversed $117 $-1 #
coedge $-1 $185 $469 $467 $472 forward $117 $-1 #
coedge $-1 $313 $312 $185 $306 forward $314 $-1 #
edge $-1 $473 -27.869814235099742 $474 -12.651565319997676 $305 $475 forward 7 unknown #
coedge $-1 $187 $186 $466 $476 reversed $74 $-1 #
coedge $-1 $302 $477 $186 $309 reversed $183 $-1 #
edge $-1 $315 -74.034241767632068 $478 74.034241767632068 $308 $479 forward 7 unknown #
coedge $-1 $480 $481 $187 $311 forward $464 $-1 #
edge $-1 $316 -74.034241767632068 $482 74.034241767632068 $310 $483 forward 7 unknown #
coedge $-1 $305 $188 $481 $484 forward $314 $-1 #
coedge $-1 $188 $305 $302 $468 forward $314 $-1 #
loop $-1 $-1 $188 $463 #
vertex $-1 $189 $485 #
vertex $-1 $484 $486 #
straight-curve $-1 74.034241767632068 -20.260689777548709 9.6763256895989773 0 -1 0 I I #
face $-1 $487 $488 $44 $-1 $489 reversed single #
loop $-1 $-1 $196 $190 #
plane-surface $-1 74.034241767632068 0 0 -1 0 0 0 0 1 forward_v I I I I #
coedge $-1 $490 $329 $491 $492 reversed $191 $-1 #
coedge $-1 $493 $193 $490 $494 forward $121 $-1 #
coedge $-1 $193 $493 $495 $496 reversed $121 $-1 #
coedge $-1 $332 $331 $193 $325 forward $319 $-1 #
edge $-1 $497 12.651565319997676 $498 27.869814235099742 $324 $499 forward 7 unknown #
coedge $-1 $195 $194 $500 $501 reversed $77 $-1 #
coedge $-1 $502 $503 $194 $328 forward $504 $-1 #
edge $-1 $505 -74.034241767632068 $333 74.034241767632068 $327 $506 forward 7 unknown #
coedge $-1 $321 $507 $195 $330 reversed $191 $-1 #
edge $-1 $508 -74.034241767632068 $334 74.034241767632068 $329 $509 forward 7 unknown #
coedge $-1 $324 $196 $507 $510 forward $319 $-1 #
coedge $-1 $196 $324 $502 $511 reversed $319 $-1 #
vertex $-1 $511 $512 #
vertex $-1 $197 $513 #
straight-curve $-1 74.034241767632068 20.260689777548709 9.6763256895989773 0 -1 0 I I #
face $-1 $-1 $348 $45 $-1 $514 reversed single #
loop $-1 $-1 $515 $198 #
plane-surface $-1 0 0 14.606014976975995 0 0 1 1 0 0 forward_v I I I I #
coedge $-1 $516 $517 $518 $519 reversed $199 $-1 #
coedge $-1 $520 $201 $203 $346 forward $125 $-1 #
coedge $-1 $201 $520 $516 $521 forward $125 $-1 #
coedge $-1 $518 $204 $201 $343 forward $348 $-1 #
edge $-1 $350 -16.921512834264405 $522 -8.211070126481502 $342 $523 forward 7 unknown #
coedge $-1 $524 $525 $202 $345 forward $337 $-1 #
edge $-1 $526 33.539079373007311 $349 40.671105013054714 $344 $527 forward 7 unknown #
edge $-1 $350 -148.06848353526414 $526 -138.3166689235471 $203 $528 forward 7 unknown #
coedge $-1 $204 $518 $524 $529 reversed $348 $-1 #
loop $-1 $-1 $518 $336 #
vertex $-1 $529 $530 #
vertex $-1 $205 $531 #
straight-curve $-1 74.034241767632068 -29.487804314637359 108.61409494037298 0 0 -1 I I #
coedge $-1 $352 $352 $-1 $532 reversed $208 $-1 #
edge $-1 $533 0 $533 6.2831853071796004 $209 $534 forward 7 unknown #
vertex $-1 $212 $535 #
ellipse-curve $-1 70.468228947608367 -25.132582960745907 11.28065415102777 0.68199836817093118 0 0.7313536940579346 0.7313536940579346 0 -0.68199836817093118 1 I I #
face $-1 $-1 $536 $47 $-1 $537 forward single #
loop $-1 $-1 $219 $213 #
plane-surface $-1 74.034241767632068 0 0 -1 0 0 0 0 1 forward_v I I I I #
coedge $-1 $538 $539 $540 $541 reversed $214 $-1 #
coedge $-1 $542 $216 $218 $366 forward $134 $-1 #
coedge $-1 $216 $542 $538 $543 forward $134 $-1 #
coedge $-1 $540 $219 $216 $363 forward $357 $-1 #
edge $-1 $369 -8.5439851806824354 $544 0.16645752710046402 $362 $545 forward 7 unknown #
coedge $-1 $546 $547 $217 $365 forward $536 $-1 #
edge $-1 $548 33.539079373007311 $368 40.671105013054714 $364 $549 forward 7 unknown #
edge $-1 $369 -148.06848353526414 $548 -138.3166689235471 $218 $550 forward 7 unknown #
coedge $-1 $219 $540 $546 $551 reversed $357 $-1 #
vertex $-1 $551 $552 #
vertex $-1 $220 $553 #
straight-curve $-1 74.034241767632068 -12.732749007473421 108.61409494037298 0 0 -1 I I #
coedge $-1 $371 $371 $-1 $554 reversed $223 $-1 #
edge $-1 $555 0 $555 6.2831853071796004 $224 $556 forward 7 unknown #
vertex $-1 $227 $557 #
ellipse-curve $-1 70.468228947608367 -8.3775276535819714 11.28065415102777 0.68199836817093118 0 0.7313536940579346 0.7313536940579346 0 -0.68199836817093118 1 I I #
face $-1 $-1 $558 $49 $-1 $559 forward single #
loop $-1 $-1 $234 $228 #
plane-surface $-1 74.034241767632068 0 0 -1 0 0 0 0 1 forward_v I I I I #
coedge $-1 $560 $561 $562 $563 reversed $229 $-1 #
coedge $-1 $564 $231 $233 $385 forward $143 $-1 #
coedge $-1 $231 $564 $560 $565 forward $143 $-1 #
coedge $-1 $562 $234 $231 $382 forward $376 $-1 #
edge $-1 $388 -0.16645752710046402 $566 8.5439851806824354 $381 $567 forward 7 unknown #
coedge $-1 $568 $569 $232 $384 forward $558 $-1 #
edge $-1 $570 33.539079373007311 $387 40.671105013054714 $383 $571 forward 7 unknown #
edge $-1 $388 -148.06848353526414 $570 -138.3166689235471 $233 $572 forward 7 unknown #
coedge $-1 $234 $562 $568 $573 reversed $376 $-1 #
vertex $-1 $573 $574 #
vertex $-1 $235 $575 #
straight-curve $-1 74.034241767632068 4.0223062996905217 108.61409494037298 0 0 -1 I I #
coedge $-1 $390 $390 $-1 $576 reversed $238 $-1 #
edge $-1 $577 0 $577 6.2831853071796004 $239 $578 forward 7 unknown #
vertex $-1 $242 $579 #
ellipse-curve $-1 70.468228947608367 8.3775276535819714 11.28065415102777 0.68199836817093118 0 0.7313536940579346 0.7313536940579346 0 -0.68199836817093118 1 I I #
face $-1 $-1 $580 $51 $-1 $581 forward single #
loop $-1 $-1 $249 $243 #
plane-surface $-1 74.034241767632068 0 0 -1 0 0 0 0 1 forward_v I I I I #
coedge $-1 $582 $583 $584 $585 reversed $244 $-1 #
coedge $-1 $586 $246 $248 $404 forward $152 $-1 #
coedge $-1 $246 $586 $582 $587 forward $152 $-1 #
coedge $-1 $584 $249 $246 $401 forward $395 $-1 #
edge $-1 $407 8.2110701264815056 $588 16.921512834264409 $400 $589 forward 7 unknown #
coedge $-1 $590 $591 $247 $403 forward $580 $-1 #
edge $-1 $592 33.539079373007311 $406 40.671105013054714 $402 $593 forward 7 unknown #
edge $-1 $407 -148.06848353526414 $592 -138.3166689235471 $248 $594 forward 7 unknown #
coedge $-1 $249 $584 $590 $595 reversed $395 $-1 #
vertex $-1 $595 $596 #
vertex $-1 $250 $597 #
straight-curve $-1 74.034241767632068 20.777361606854463 108.61409494037298 0 0 -1 I I #
coedge $-1 $409 $409 $-1 $598 reversed $253 $-1 #
edge $-1 $599 0 $599 6.2831853071796004 $254 $600 forward 7 unknown #
vertex $-1 $257 $601 #
ellipse-curve $-1 70.468228947608367 25.132582960745914 11.28065415102777 0.68199836817093118 0 0.7313536940579346 0.7313536940579346 0 -0.68199836817093118 1 I I #
face $-1 $-1 $602 $53 $-1 $603 forward single #
loop $-1 $-1 $264 $258 #
plane-surface $-1 -74.034241767632068 0 0 1 0 0 0 0 -1 forward_v I I I I #
coedge $-1 $604 $605 $606 $607 reversed $259 $-1 #
coedge $-1 $608 $261 $263 $423 forward $161 $-1 #
coedge $-1 $261 $608 $604 $609 forward $161 $-1 #
coedge $-1 $606 $264 $261 $420 forward $414 $-1 #
edge $-1 $426 4.4332920302548509 $610 18.855543259956367 $419 $611 forward 7 unknown #
coedge $-1 $612 $613 $262 $422 forward $602 $-1 #
edge $-1 $614 -28.129275925789145 $425 -18.857231256383301 $421 $615 forward 7 unknown #
edge $-1 $426 -4.3448039297454601e-014 $614 14.132942912818933 $263 $616 forward 7 unknown #
coedge $-1 $264 $606 $612 $617 reversed $414 $-1 #
vertex $-1 $617 $618 #
vertex $-1 $265 $619 #
straight-curve $-1 -74.034241767632068 -16.07770967536046 50.540705783604771 0 0 -1 I I #
coedge $-1 $428 $428 $-1 $620 reversed $268 $-1 #
edge $-1 $621 0 $621 6.2831853071796004 $269 $622 forward 7 unknown #
vertex $-1 $272 $623 #
ellipse-curve $-1 -69.398219432929153 -26.379317696575828 9.2728812118819999 -0.75470958851134928 0 0.65605901945558964 0.65605901945558964 0 0.75470958851134928 1 I I #
coedge $-1 $432 $432 $-1 $624 reversed $275 $-1 #
edge $-1 $625 0 $625 6.2831853071796004 $276 $626 forward 7 unknown #
vertex $-1 $279 $627 #
ellipse-curve $-1 -69.398219432929153 -20.19835288384661 9.2728812118819999 -0.75470958851134928 0 0.65605901945558964 0.65605901945558964 0 0.75470958851134928 1 I I #
face $-1 $-1 $295 $42 $-1 $628 reversed single #
loop $-1 $-1 $452 $280 #
plane-surface $-1 0 48.130504012648451 0 0 -1 0 0 0 -1 forward_v I I I I #
coedge $-1 $629 $450 $453 $630 forward $281 $-1 #
coedge $-1 $456 $283 $284 $444 reversed $175 $-1 #
coedge $-1 $450 $629 $283 $442 reversed $281 $-1 #
edge $-1 $457 -14.606014976975995 $631 14.606014976975995 $441 $632 forward 7 unknown #
coedge $-1 $285 $284 $629 $633 forward $113 $-1 #
edge $-1 $448 -74.034241767632068 $631 74.034241767632068 $440 $634 forward 7 unknown #
coedge $-1 $453 $452 $285 $446 reversed $437 $-1 #
edge $-1 $635 -74.034241767632068 $447 74.034241767632068 $445 $636 forward 7 unknown #
vertex $-1 $287 $637 #
vertex $-1 $459 $638 #
straight-curve $-1 74.034241767632068 0 -14.606014976975995 0 -1 0 I I #
coedge $-1 $439 $441 $288 $451 reversed $281 $-1 #
edge $-1 $454 -48.130504012648451 $457 48.130504012648451 $450 $639 forward 7 unknown #
coedge $-1 $445 $289 $294 $460 forward $437 $-1 #
coedge $-1 $289 $445 $439 $630 reversed $437 $-1 #
vertex $-1 $290 $640 #
straight-curve $-1 0 48.130504012648451 14.606014976975995 -1 0 0 I I #
coedge $-1 $291 $440 $293 $459 reversed $175 $-1 #
vertex $-1 $451 $641 #
straight-curve $-1 0 -48.130504012648451 14.606014976975995 1 0 0 I I #
edge $-1 $296 -14.606014976975995 $448 14.606014976975995 $293 $642 forward 7 unknown #
edge $-1 $297 -14.606014976975995 $447 14.606014976975995 $294 $643 forward 7 unknown #
point $-1 74.034241767632068 -48.130504012648451 14.606014976975995 #
point $-1 74.034241767632068 48.130504012648451 14.606014976975995 #
face $-1 $-1 $314 $43 $-1 $644 reversed single #
loop $-1 $-1 $310 $299 #
plane-surface $-1 0 -48.130504012648451 0 0 1 0 0 0 1 forward_v I I I I #
coedge $-1 $645 $646 $307 $476 forward $300 $-1 #
coedge $-1 $477 $302 $304 $472 reversed $183 $-1 #
edge $-1 $474 -0.99704422201623544 $315 6.7832318670713967 $313 $647 forward 7 unknown #
coedge $-1 $304 $303 $648 $649 reversed $117 $-1 #
coedge $-1 $481 $480 $303 $471 forward $464 $-1 #
edge $-1 $650 -74.034241767632068 $473 74.034241767632068 $470 $651 forward 7 unknown #
edge $-1 $652 -74.034241767632068 $474 74.034241767632068 $467 $653 forward 7 unknown #
vertex $-1 $471 $654 #
vertex $-1 $306 $655 #
straight-curve $-1 74.034241767632068 -20.260689777548709 1.8960496005113452 0 1 0 I I #
edge $-1 $482 -27.869814235099742 $478 -12.651565319997676 $466 $656 forward 7 unknown #
coedge $-1 $308 $467 $645 $657 reversed $183 $-1 #
vertex $-1 $476 $658 #
straight-curve $-1 0 -32.912255097546385 9.6763256895989773 -1 0 0 I I #
coedge $-1 $470 $310 $646 $659 forward $464 $-1 #
coedge $-1 $310 $470 $312 $484 reversed $464 $-1 #
vertex $-1 $659 $660 #
straight-curve $-1 0 -48.130504012648451 9.6763256895989773 -1 0 0 I I #
edge $-1 $316 -9.6763256895989773 $473 -1.8960496005113452 $312 $661 forward 7 unknown #
point $-1 74.034241767632068 -32.912255097546385 9.6763256895989773 #
point $-1 74.034241767632068 -48.130504012648451 9.6763256895989773 #
face $-1 $-1 $504 $44 $-1 $662 reversed single #
loop $-1 $-1 $500 $318 #
plane-surface $-1 -74.034241767632068 0 0 1 0 0 0 0 -1 forward_v I I I I #
coedge $-1 $507 $321 $322 $494 reversed $191 $-1 #
coedge $-1 $500 $663 $321 $492 forward $488 $-1 #
edge $-1 $664 -0.99704422201623544 $508 6.7832318670713967 $491 $665 forward 7 unknown #
coedge $-1 $323 $322 $663 $666 reversed $121 $-1 #
edge $-1 $497 -74.034241767632068 $664 74.034241767632068 $490 $667 forward 7 unknown #
coedge $-1 $503 $502 $323 $496 forward $504 $-1 #
edge $-1 $498 -74.034241767632068 $668 74.034241767632068 $495 $669 forward 7 unknown #
vertex $-1 $325 $670 #
vertex $-1 $496 $671 #
straight-curve $-1 74.034241767632068 20.260689777548709 1.8960496005113452 0 1 0 I I #
coedge $-1 $672 $491 $326 $501 forward $488 $-1 #
edge $-1 $508 12.651565319997676 $505 27.869814235099742 $500 $673 forward 7 unknown #
coedge $-1 $495 $327 $332 $511 forward $504 $-1 #
coedge $-1 $327 $495 $672 $674 reversed $504 $-1 #
loop $-1 $-1 $327 $487 #
vertex $-1 $674 $675 #
straight-curve $-1 0 48.130504012648451 9.6763256895989773 1 0 0 I I #
coedge $-1 $329 $490 $331 $510 reversed $191 $-1 #
vertex $-1 $501 $676 #
straight-curve $-1 0 32.912255097546385 9.6763256895989773 1 0 0 I I #
edge $-1 $334 -6.7832318670713967 $497 0.99704422201623544 $331 $677 forward 7 unknown #
edge $-1 $333 -9.6763256895989773 $498 -1.8960496005113452 $332 $678 forward 7 unknown #
point $-1 74.034241767632068 48.130504012648451 9.6763256895989773 #
point $-1 74.034241767632068 32.912255097546385 9.6763256895989773 #
plane-surface $-1 74.034241767632068 0 0 -1 0 0 0 0 1 forward_v I I I I #
coedge $-1 $525 $524 $517 $679 forward $337 $-1 #
coedge $-1 $517 $339 $341 $521 reversed $199 $-1 #
coedge $-1 $339 $516 $515 $679 reversed $199 $-1 #
coedge $-1 $347 $342 $339 $519 forward $348 $-1 #
edge $-1 $522 -100.65880161529344 $680 -94.00807996339698 $518 $681 forward 7 unknown #
coedge $-1 $341 $340 $525 $682 reversed $125 $-1 #
edge $-1 $683 138.3166689235471 $522 148.06848353526414 $516 $684 forward 7 unknown #
vertex $-1 $343 $685 #
straight-curve $-1 74.034241767632054 -12.566291480372954 7.9552933250795448 0 1 0 I I #
coedge $-1 $515 $344 $347 $529 forward $337 $-1 #
coedge $-1 $344 $515 $520 $682 forward $337 $-1 #
vertex $-1 $345 $686 #
straight-curve $-1 33.363136754577354 -29.487804314637359 14.606014976975999 1 0 0 I I #
straight-curve $-1 -34.256190639439822 -29.487804314637359 108.93775747367407 -0.7313536940579346 0 0.68199836817093118 I I #
edge $-1 $349 -29.487804314637359 $680 -20.777361606854456 $347 $687 forward 7 unknown #
point $-1 74.034241767632068 -29.487804314637359 14.606014976975995 #
point $-1 74.034241767632068 -29.487804314637359 7.9552933250795377 #
edge $-1 $688 1 $688 0 $352 $-1 forward 7 unknown #
vertex $-1 $353 $689 #
ellipse-curve $-1 67.741484289344328 -25.132582960745907 8.3565785642745762 0.68199836817093118 0 0.7313536940579346 0.7313536940579346 0 -0.68199836817093118 1 I I #
point $-1 71.199582641666296 -25.132582960745907 10.59865578285684 #
loop $-1 $-1 $364 $356 #
plane-surface $-1 0 0 14.606014976975995 0 0 1 1 0 0 forward_v I I I I #
coedge $-1 $539 $359 $361 $543 reversed $214 $-1 #
coedge $-1 $359 $538 $690 $691 reversed $214 $-1 #
coedge $-1 $367 $362 $359 $541 forward $357 $-1 #
edge $-1 $544 -100.65880161529344 $692 -94.00807996339698 $540 $693 forward 7 unknown #
coedge $-1 $361 $360 $547 $694 reversed $134 $-1 #
edge $-1 $695 138.3166689235471 $544 148.06848353526414 $538 $696 forward 7 unknown #
vertex $-1 $363 $697 #
straight-curve $-1 74.034241767632054 -4.1887638267909857 7.9552933250795448 0 1 0 I I #
coedge $-1 $690 $364 $367 $551 forward $536 $-1 #
coedge $-1 $364 $690 $542 $694 forward $536 $-1 #
vertex $-1 $365 $698 #
straight-curve $-1 33.363136754577354 -12.732749007473421 14.606014976975999 1 0 0 I I #
straight-curve $-1 -34.256190639439822 -12.732749007473421 108.93775747367407 -0.7313536940579346 0 0.68199836817093118 I I #
edge $-1 $368 -12.732749007473421 $692 -4.0223062996905217 $367 $699 forward 7 unknown #
point $-1 74.034241767632068 -12.732749007473421 14.606014976975995 #
point $-1 74.034241767632068 -12.732749007473421 7.9552933250795377 #
edge $-1 $700 1 $700 0 $371 $-1 forward 7 unknown #
vertex $-1 $372 $701 #
ellipse-curve $-1 67.741484289344328 -8.3775276535819714 8.3565785642745762 0.68199836817093118 0 0.7313536940579346 0.7313536940579346 0 -0.68199836817093118 1 I I #
point $-1 71.199582641666296 -8.3775276535819714 10.59865578285684 #
loop $-1 $-1 $383 $375 #
plane-surface $-1 0 0 14.606014976975995 0 0 1 1 0 0 forward_v I I I I #
coedge $-1 $561 $378 $380 $565 reversed $229 $-1 #
coedge $-1 $378 $560 $702 $703 reversed $229 $-1 #
coedge $-1 $386 $381 $378 $563 forward $376 $-1 #
edge $-1 $566 -100.65880161529344 $704 -94.00807996339698 $562 $705 forward 7 unknown #
coedge $-1 $380 $379 $569 $706 reversed $143 $-1 #
edge $-1 $707 138.3166689235471 $566 148.06848353526414 $560 $708 forward 7 unknown #
vertex $-1 $382 $709 #
straight-curve $-1 74.034241767632054 4.1887638267909857 7.9552933250795448 0 1 0 I I #
coedge $-1 $702 $383 $386 $573 forward $558 $-1 #
coedge $-1 $383 $702 $564 $706 forward $558 $-1 #
vertex $-1 $384 $710 #
straight-curve $-1 33.363136754577354 4.0223062996905217 14.606014976975999 1 0 0 I I #
straight-curve $-1 -34.256190639439822 4.0223062996905217 108.93775747367407 -0.7313536940579346 0 0.68199836817093118 I I #
edge $-1 $387 4.0223062996905217 $704 12.732749007473421 $386 $711 forward 7 unknown #
point $-1 74.034241767632068 4.0223062996905217 14.606014976975995 #
point $-1 74.034241767632068 4.0223062996905217 7.9552933250795377 #
edge $-1 $712 1 $712 0 $390 $-1 forward 7 unknown #
vertex $-1 $391 $713 #
ellipse-curve $-1 67.741484289344328 8.3775276535819714 8.3565785642745762 0.68199836817093118 0 0.7313536940579346 0.7313536940579346 0 -0.68199836817093118 1 I I #
point $-1 71.199582641666296 8.3775276535819714 10.59865578285684 #
loop $-1 $-1 $402 $394 #
plane-surface $-1 0 0 14.606014976975995 0 0 1 1 0 0 forward_v I I I I #
coedge $-1 $583 $397 $399 $587 reversed $244 $-1 #
coedge $-1 $397 $582 $714 $715 reversed $244 $-1 #
coedge $-1 $405 $400 $397 $585 forward $395 $-1 #
edge $-1 $588 -100.65880161529344 $716 -94.00807996339698 $584 $717 forward 7 unknown #
coedge $-1 $399 $398 $591 $718 reversed $152 $-1 #
edge $-1 $719 138.3166689235471 $588 148.06848353526414 $582 $720 forward 7 unknown #
vertex $-1 $401 $721 #
straight-curve $-1 74.034241767632054 12.566291480372957 7.9552933250795448 0 1 0 I I #
coedge $-1 $714 $402 $405 $595 forward $580 $-1 #
coedge $-1 $402 $714 $586 $718 forward $580 $-1 #
vertex $-1 $403 $722 #
straight-curve $-1 33.363136754577354 20.777361606854463 14.606014976975999 1 0 0 I I #
straight-curve $-1 -34.256190639439822 20.777361606854463 108.93775747367407 -0.7313536940579346 0 0.68199836817093118 I I #
edge $-1 $406 20.777361606854463 $716 29.487804314637366 $405 $723 forward 7 unknown #
point $-1 74.034241767632068 20.777361606854463 14.606014976975995 #
point $-1 74.034241767632068 20.777361606854463 7.9552933250795377 #
edge $-1 $724 1 $724 0 $409 $-1 forward 7 unknown #
vertex $-1 $410 $725 #
ellipse-curve $-1 67.741484289344328 25.132582960745914 8.3565785642745762 0.68199836817093118 0 0.7313536940579346 0.7313536940579346 0 -0.68199836817093118 1 I I #
point $-1 71.199582641666296 25.132582960745914 10.59865578285684 #
loop $-1 $-1 $421 $413 #
plane-surface $-1 0 0 14.606014976975995 0 0 1 1 0 0 forward_v I I I I #
coedge $-1 $605 $416 $418 $609 reversed $259 $-1 #
coedge $-1 $416 $604 $726 $727 reversed $259 $-1 #
coedge $-1 $424 $419 $416 $607 forward $414 $-1 #
edge $-1 $610 -46.600958336816774 $728 -35.93469080662878 $606 $729 forward 7 unknown #
coedge $-1 $418 $417 $613 $730 reversed $161 $-1 #
edge $-1 $731 -14.132942912818933 $610 4.3448039297454601e-014 $604 $732 forward 7 unknown #
vertex $-1 $420 $733 #
straight-curve $-1 -74.034241767632068 -11.644417645105609 3.9397474467879992 0 -1 0 I I #
coedge $-1 $726 $421 $424 $617 forward $602 $-1 #
coedge $-1 $421 $726 $608 $730 forward $602 $-1 #
vertex $-1 $422 $734 #
straight-curve $-1 -92.891473024015369 -16.07770967536046 14.606014976975999 -1 0 0 I I #
straight-curve $-1 -74.034241767632039 -16.07770967536046 3.9397474467880329 0.65605901945558964 0 0.75470958851134928 I I #
edge $-1 $425 16.07770967536046 $728 30.499960905061975 $424 $735 forward 7 unknown #
point $-1 -74.034241767632068 -16.07770967536046 14.606014976975995 #
point $-1 -74.034241767632068 -16.07770967536046 3.939747446788 #
edge $-1 $736 1 $736 0 $428 $-1 forward 7 unknown #
vertex $-1 $429 $737 #
ellipse-curve $-1 -68.223187712982437 -26.379317696575828 8.2514417472820796 -0.75470958851134928 0 0.65605901945558964 0.65605901945558964 0 0.75470958851134928 1 I I #
point $-1 -68.742160413473584 -26.379317696575828 10.027590800393371 #
edge $-1 $738 1 $738 0 $432 $-1 forward 7 unknown #
vertex $-1 $433 $739 #
ellipse-curve $-1 -68.223187712982437 -20.19835288384661 8.2514417472820796 -0.75470958851134928 0 0.65605901945558964 0.65605901945558964 0 0.75470958851134928 1 I I #
point $-1 -68.742160413473584 -20.19835288384661 10.027590800393371 #
plane-surface $-1 74.034241767632068 0 0 -1 0 0 0 0 1 forward_v I I I I #
coedge $-1 $441 $439 $443 $633 reversed $281 $-1 #
edge $-1 $454 -14.606014976975995 $635 14.606014976975995 $453 $740 forward 7 unknown #
vertex $-1 $633 $741 #
straight-curve $-1 -74.034241767632068 -48.130504012648451 0 0 0 -1 I I #
edge $-1 $631 -48.130504012648451 $635 48.130504012648451 $629 $742 forward 7 unknown #
straight-curve $-1 0 -48.130504012648451 -14.606014976975995 -1 0 0 I I #
vertex $-1 $446 $743 #
straight-curve $-1 0 48.130504012648451 -14.606014976975995 1 0 0 I I #
point $-1 74.034241767632068 48.130504012648451 -14.606014976975995 #
point $-1 74.034241767632068 -48.130504012648451 -14.606014976975995 #
straight-curve $-1 -74.034241767632068 0 14.606014976975995 0 -1 0 I I #
point $-1 -74.034241767632068 48.130504012648451 14.606014976975995 #
point $-1 -74.034241767632068 -48.130504012648451 14.606014976975995 #
straight-curve $-1 74.034241767632068 -48.130504012648451 0 0 0 -1 I I #
straight-curve $-1 74.034241767632068 48.130504012648451 0 0 0 -1 I I #
plane-surface $-1 74.034241767632068 0 0 -1 0 0 0 0 1 forward_v I I I I #
coedge $-1 $648 $466 $477 $657 forward $300 $-1 #
coedge $-1 $466 $648 $480 $659 reversed $300 $-1 #
straight-curve $-1 74.034241767632068 -32.912255097546385 2.8930938225275806 0 0 1 I I #
coedge $-1 $646 $645 $469 $649 forward $300 $-1 #
edge $-1 $652 12.651565319997676 $650 27.869814235099742 $648 $744 forward 7 unknown #
vertex $-1 $471 $745 #
straight-curve $-1 0 -48.130504012648451 1.8960496005113452 1 0 0 I I #
vertex $-1 $649 $746 #
straight-curve $-1 0 -32.912255097546385 1.8960496005113452 1 0 0 I I #
point $-1 74.034241767632068 -48.130504012648451 1.8960496005113452 #
point $-1 74.034241767632068 -32.912255097546385 1.8960496005113452 #
straight-curve $-1 -74.034241767632068 -20.260689777548709 9.6763256895989773 0 1 0 I I #
edge $-1 $478 -6.7832318670713967 $652 0.99704422201623544 $645 $747 forward 7 unknown #
point $-1 -74.034241767632068 -32.912255097546385 9.6763256895989773 #
edge $-1 $482 -9.6763256895989773 $650 -1.8960496005113452 $646 $748 forward 7 unknown #
point $-1 -74.034241767632068 -48.130504012648451 9.6763256895989773 #
straight-curve $-1 74.034241767632068 -48.130504012648451 0 0 0 -1 I I #
plane-surface $-1 0 48.130504012648451 0 0 -1 0 0 0 -1 forward_v I I I I #
coedge $-1 $491 $672 $493 $666 forward $488 $-1 #
vertex $-1 $666 $749 #
straight-curve $-1 -74.034241767632068 32.912255097546385 2.8930938225275806 0 0 1 I I #
edge $-1 $668 -27.869814235099742 $664 -12.651565319997676 $663 $750 forward 7 unknown #
straight-curve $-1 0 32.912255097546385 1.8960496005113452 -1 0 0 I I #
vertex $-1 $496 $751 #
straight-curve $-1 0 48.130504012648451 1.8960496005113452 -1 0 0 I I #
point $-1 74.034241767632068 32.912255097546385 1.8960496005113452 #
point $-1 74.034241767632068 48.130504012648451 1.8960496005113452 #
coedge $-1 $663 $500 $503 $674 forward $488 $-1 #
straight-curve $-1 -74.034241767632068 20.260689777548709 9.6763256895989773 0 1 0 I I #
edge $-1 $505 -9.6763256895989773 $668 -1.8960496005113452 $503 $752 forward 7 unknown #
point $-1 -74.034241767632068 48.130504012648451 9.6763256895989773 #
point $-1 -74.034241767632068 32.912255097546385 9.6763256895989773 #
straight-curve $-1 74.034241767632068 32.912255097546385 2.8930938225275806 0 0 -1 I I #
straight-curve $-1 74.034241767632068 48.130504012648451 0 0 0 -1 I I #
edge $-1 $680 -40.671105013054714 $683 -33.539079373007311 $515 $753 forward 7 unknown #
vertex $-1 $679 $754 #
straight-curve $-1 74.034241767632068 -20.777361606854456 108.61409494037298 0 0 1 I I #
edge $-1 $683 8.211070126481502 $526 16.921512834264405 $525 $755 forward 7 unknown #
vertex $-1 $682 $756 #
straight-curve $-1 -34.256190639439822 -20.777361606854456 108.93775747367407 0.7313536940579346 0 -0.68199836817093118 I I #
point $-1 74.034241767632068 -20.777361606854456 7.9552933250795377 #
point $-1 66.902216127584666 -29.487804314637359 14.606014976975999 #
straight-curve $-1 74.034241767632068 0 14.606014976975995 0 1 0 I I #
vertex $-1 $532 $757 #
point $-1 68.472837983402272 -25.132582960745907 7.6745801961036459 #
coedge $-1 $547 $546 $539 $691 forward $536 $-1 #
edge $-1 $692 -40.671105013054714 $695 -33.539079373007311 $690 $758 forward 7 unknown #
vertex $-1 $691 $759 #
straight-curve $-1 74.034241767632068 -4.0223062996905217 108.61409494037298 0 0 1 I I #
edge $-1 $695 -0.16645752710046402 $548 8.5439851806824354 $547 $760 forward 7 unknown #
vertex $-1 $694 $761 #
straight-curve $-1 -34.256190639439822 -4.0223062996905217 108.93775747367407 0.7313536940579346 0 -0.68199836817093118 I I #
point $-1 74.034241767632068 -4.0223062996905217 7.9552933250795377 #
point $-1 66.902216127584666 -12.732749007473421 14.606014976975999 #
straight-curve $-1 74.034241767632068 0 14.606014976975995 0 1 0 I I #
vertex $-1 $554 $762 #
point $-1 68.472837983402272 -8.3775276535819714 7.6745801961036459 #
coedge $-1 $569 $568 $561 $703 forward $558 $-1 #
edge $-1 $704 -40.671105013054714 $707 -33.539079373007311 $702 $763 forward 7 unknown #
vertex $-1 $703 $764 #
straight-curve $-1 74.034241767632068 12.732749007473421 108.61409494037298 0 0 1 I I #
edge $-1 $707 -8.5439851806824354 $570 0.16645752710046402 $569 $765 forward 7 unknown #
vertex $-1 $706 $766 #
straight-curve $-1 -34.256190639439822 12.732749007473421 108.93775747367407 0.7313536940579346 0 -0.68199836817093118 I I #
point $-1 74.034241767632068 12.732749007473421 7.9552933250795377 #
point $-1 66.902216127584666 4.0223062996905217 14.606014976975999 #
straight-curve $-1 74.034241767632068 0 14.606014976975995 0 1 0 I I #
vertex $-1 $576 $767 #
point $-1 68.472837983402272 8.3775276535819714 7.6745801961036459 #
coedge $-1 $591 $590 $583 $715 forward $580 $-1 #
edge $-1 $716 -40.671105013054714 $719 -33.539079373007311 $714 $768 forward 7 unknown #
vertex $-1 $715 $769 #
straight-curve $-1 74.034241767632068 29.487804314637366 108.61409494037298 0 0 1 I I #
edge $-1 $719 -16.921512834264409 $592 -8.2110701264815056 $591 $770 forward 7 unknown #
vertex $-1 $718 $771 #
straight-curve $-1 -34.256190639439822 29.487804314637366 108.93775747367407 0.7313536940579346 0 -0.68199836817093118 I I #
point $-1 74.034241767632068 29.487804314637366 7.9552933250795377 #
point $-1 66.902216127584666 20.777361606854463 14.606014976975999 #
straight-curve $-1 74.034241767632068 0 14.606014976975995 0 1 0 I I #
vertex $-1 $598 $772 #
point $-1 68.472837983402272 25.132582960745914 7.6745801961036459 #
coedge $-1 $613 $612 $605 $727 forward $602 $-1 #
edge $-1 $728 18.857231256383301 $731 28.129275925789145 $726 $773 forward 7 unknown #
vertex $-1 $727 $774 #
straight-curve $-1 -74.034241767632068 -30.499960905061975 50.540705783604771 0 0 1 I I #
edge $-1 $731 -18.855543259956367 $614 -4.4332920302548509 $613 $775 forward 7 unknown #
vertex $-1 $730 $776 #
straight-curve $-1 -74.034241767632039 -30.499960905061975 3.9397474467880329 -0.65605901945558964 0 -0.75470958851134928 I I #
point $-1 -74.034241767632068 -30.499960905061975 3.939747446788 #
point $-1 -64.762197098226224 -16.07770967536046 14.606014976975995 #
straight-curve $-1 -74.034241767632068 0 14.606014976975995 0 -1 0 I I #
vertex $-1 $620 $777 #
point $-1 -67.56712869352684 -26.379317696575828 9.0061513357934295 #
vertex $-1 $624 $778 #
point $-1 -67.56712869352684 -20.19835288384661 9.0061513357934295 #
straight-curve $-1 -74.034241767632068 48.130504012648451 0 0 0 -1 I I #
point $-1 -74.034241767632068 -48.130504012648451 -14.606014976975995 #
straight-curve $-1 -74.034241767632068 0 -14.606014976975995 0 1 0 I I #
point $-1 -74.034241767632068 48.130504012648451 -14.606014976975995 #
straight-curve $-1 -74.034241767632068 -20.260689777548709 1.8960496005113452 0 -1 0 I I #
point $-1 -74.034241767632068 -48.130504012648451 1.8960496005113452 #
point $-1 -74.034241767632068 -32.912255097546385 1.8960496005113452 #
straight-curve $-1 -74.034241767632068 -32.912255097546385 2.8930938225275806 0 0 -1 I I #
straight-curve $-1 -74.034241767632068 -48.130504012648451 0 0 0 -1 I I #
point $-1 -74.034241767632068 32.912255097546385 1.8960496005113452 #
straight-curve $-1 -74.034241767632068 20.260689777548709 1.8960496005113452 0 -1 0 I I #
point $-1 -74.034241767632068 48.130504012648451 1.8960496005113452 #
straight-curve $-1 -74.034241767632068 48.130504012648451 0 0 0 -1 I I #
straight-curve $-1 33.363136754577354 -20.777361606854456 14.606014976975999 -1 0 0 I I #
point $-1 74.034241767632068 -20.777361606854456 14.606014976975995 #
straight-curve $-1 66.902216127584666 -12.566291480372954 14.606014976975999 0 -1 0 I I #
point $-1 66.902216127584666 -20.777361606854456 14.606014976975999 #
point $-1 67.059485921173405 -25.132582960745907 7.6252248702166421 #
straight-curve $-1 33.363136754577354 -4.0223062996905217 14.606014976975999 -1 0 0 I I #
point $-1 74.034241767632068 -4.0223062996905217 14.606014976975995 #
straight-curve $-1 66.902216127584666 -4.1887638267909857 14.606014976975999 0 -1 0 I I #
point $-1 66.902216127584666 -4.0223062996905217 14.606014976975999 #
point $-1 67.059485921173405 -8.3775276535819714 7.6252248702166421 #
straight-curve $-1 33.363136754577354 12.732749007473421 14.606014976975999 -1 0 0 I I #
point $-1 74.034241767632068 12.732749007473421 14.606014976975995 #
straight-curve $-1 66.902216127584666 4.1887638267909857 14.606014976975999 0 -1 0 I I #
point $-1 66.902216127584666 12.732749007473421 14.606014976975999 #
point $-1 67.059485921173405 8.3775276535819714 7.6252248702166421 #
straight-curve $-1 33.363136754577354 29.487804314637366 14.606014976975999 -1 0 0 I I #
point $-1 74.034241767632068 29.487804314637366 14.606014976975995 #
straight-curve $-1 66.902216127584666 12.566291480372957 14.606014976975999 0 -1 0 I I #
point $-1 66.902216127584666 29.487804314637366 14.606014976975999 #
point $-1 67.059485921173405 25.132582960745914 7.6252248702166421 #
straight-curve $-1 -92.891473024015369 -30.499960905061975 14.606014976975999 1 0 0 I I #
point $-1 -74.034241767632068 -30.499960905061975 14.606014976975995 #
straight-curve $-1 -64.762197098226224 -11.644417645105609 14.606014976975995 0 1 0 I I #
point $-1 -64.762197098226224 -30.499960905061975 14.606014976975995 #
point $-1 -67.468478124471076 -26.379317696575828 7.5953827278264896 #
point $-1 -67.468478124471076 -20.19835288384661 7.5953827278264896 #
End-of-ACIS-data 