500 0 10 0           
7 Unknown 11 ACIS 5.0 NT 24 Fri Mar 26 18:59:16 1999 
-1 9.9999999999999995e-007 1e-010 
body $-1 $10 $-1 $11 #
body $-1 $12 $-1 $13 #
body $-1 $14 $-1 $15 #
body $-1 $16 $-1 $17 #
body $-1 $18 $-1 $19 #
body $-1 $20 $-1 $21 #
body $-1 $22 $-1 $23 #
body $-1 $24 $-1 $25 #
body $-1 $26 $-1 $27 #
body $-1 $28 $-1 $29 #
lump $-1 $-1 $30 $0 #
transform $-1 1 0 0 0 1 0 0 0 1 69.46745200964385 30.175209347479594 10.385200685244206 1 rotate no_reflect no_shear #
lump $-1 $-1 $31 $1 #
transform $-1 1 0 0 0 1 0 0 0 1 69.46745200964385 30.175209347479594 10.385200685244206 1 rotate no_reflect no_shear #
lump $-1 $-1 $32 $2 #
transform $-1 1 0 0 0 1 0 0 0 1 69.46745200964385 30.175209347479594 10.385200685244206 1 rotate no_reflect no_shear #
lump $-1 $-1 $33 $3 #
transform $-1 1 0 0 0 1 0 0 0 1 69.46745200964385 30.175209347479594 10.385200685244206 1 rotate no_reflect no_shear #
lump $-1 $-1 $34 $4 #
transform $-1 1 0 0 0 1 0 0 0 1 69.46745200964385 30.175209347479594 10.385200685244206 1 rotate no_reflect no_shear #
lump $-1 $-1 $35 $5 #
transform $-1 1 0 0 0 1 0 0 0 1 69.46745200964385 30.175209347479594 10.385200685244206 1 rotate no_reflect no_shear #
lump $-1 $-1 $36 $6 #
transform $-1 1 0 0 0 1 0 0 0 1 69.46745200964385 30.175209347479594 10.385200685244206 1 rotate no_reflect no_shear #
lump $-1 $-1 $37 $7 #
transform $-1 1 0 0 0 1 0 0 0 1 69.46745200964385 30.175209347479594 10.385200685244206 1 rotate no_reflect no_shear #
lump $-1 $-1 $38 $8 #
transform $-1 1 0 0 0 1 0 0 0 1 69.46745200964385 30.175209347479594 10.385200685244206 1 rotate no_reflect no_shear #
lump $-1 $-1 $39 $9 #
transform $-1 1 0 0 0 1 0 0 0 1 69.46745200964385 30.175209347479594 10.385200685244206 1 rotate no_reflect no_shear #
shell $-1 $-1 $-1 $40 $-1 $10 #
shell $-1 $-1 $-1 $41 $-1 $12 #
shell $-1 $-1 $-1 $42 $-1 $14 #
shell $-1 $-1 $-1 $43 $-1 $16 #
shell $-1 $-1 $-1 $44 $-1 $18 #
shell $-1 $-1 $-1 $45 $-1 $20 #
shell $-1 $-1 $-1 $46 $-1 $22 #
shell $-1 $-1 $-1 $47 $-1 $24 #
shell $-1 $-1 $-1 $48 $-1 $26 #
shell $-1 $-1 $-1 $49 $-1 $28 #
face $-1 $50 $51 $30 $-1 $52 forward single #
face $-1 $53 $54 $31 $-1 $55 forward single #
face $-1 $56 $57 $32 $-1 $58 reversed single #
face $-1 $59 $60 $33 $-1 $61 forward single #
face $-1 $62 $63 $34 $-1 $64 forward single #
face $-1 $65 $66 $35 $-1 $67 forward single #
face $-1 $68 $69 $36 $-1 $70 reversed single #
face $-1 $71 $72 $37 $-1 $73 forward single #
face $-1 $74 $75 $38 $-1 $76 forward single #
face $-1 $77 $78 $39 $-1 $79 forward single #
face $-1 $80 $81 $30 $-1 $82 reversed single #
loop $-1 $-1 $83 $40 #
plane-surface $-1 0 0 10.385200685244206 0 0 1 1 0 0 forward_v I I I I #
face $-1 $84 $85 $31 $-1 $86 forward single #
loop $-1 $-1 $87 $41 #
plane-surface $-1 -69.46745200964385 0 0 1 0 0 0 0 -1 forward_v I I I I #
face $-1 $88 $89 $32 $-1 $90 reversed single #
loop $-1 $-1 $91 $42 #
plane-surface $-1 42.725427209940882 73.249742820627077 152.32650653570744 1 0 0 0 -0.64278761758704617 -0.76604443648966558 forward_v I I I I #
face $-1 $92 $93 $33 $-1 $94 forward single #
loop $-1 $95 $96 $43 #
cone-surface $-1 47.023291885368579 27.277036966988298 7.6208635024735312 0 -0.64278761758704617 -0.76604443648966558 1 0 0 1 I I 0 1 1 forward I I I I #
face $-1 $97 $98 $34 $-1 $99 forward single #
loop $-1 $100 $101 $44 #
cone-surface $-1 53.470088898510127 27.277036966988298 7.6208635024735312 0 -0.64278761758704617 -0.76604443648966558 1 0 0 1 I I 0 1 1 forward I I I I #
face $-1 $102 $103 $35 $-1 $104 forward single #
loop $-1 $105 $106 $45 #
cone-surface $-1 59.916885911651676 27.277036966988298 7.6208635024735312 0 -0.64278761758704617 -0.76604443648966558 1 0 0 1 I I 0 1 1 forward I I I I #
face $-1 $107 $108 $36 $-1 $109 reversed single #
loop $-1 $-1 $110 $46 #
plane-surface $-1 58.722392068264568 -30.175209347479608 2.6485028611806172 0 -0.74314483375859142 0.66913059716165679 1 0 0 forward_v I I I I #
face $-1 $111 $112 $37 $-1 $113 forward single #
loop $-1 $114 $115 $47 #
cone-surface $-1 52.275356103436991 -23.88128183966003 3.9859505976264704 0 0.74314483375859142 -0.66913059716165679 2 0 0 1 I I 0 1 2 forward I I I I #
face $-1 $116 $117 $38 $-1 $118 forward single #
loop $-1 $119 $120 $48 #
cone-surface $-1 58.722392068264568 -23.88128183966003 3.9859505976264704 0 0.74314483375859142 -0.66913059716165679 2 0 0 1 I I 0 1 2 forward I I I I #
face $-1 $121 $122 $39 $-1 $123 forward single #
loop $-1 $124 $125 $49 #
cone-surface $-1 65.169428033092132 -23.88128183966003 3.9859505976264704 0 0.74314483375859142 -0.66913059716165679 2 0 0 1 I I 0 1 2 forward I I I I #
face $-1 $126 $127 $30 $-1 $128 reversed single #
loop $-1 $-1 $129 $50 #
plane-surface $-1 0 0 -10.385200685244206 0 0 1 1 0 0 forward_v I I I I #
coedge $-1 $130 $131 $132 $133 forward $51 $-1 #
face $-1 $134 $135 $31 $-1 $136 reversed single #
loop $-1 $-1 $137 $53 #
plane-surface $-1 0 0 10.385200685244206 0 0 1 1 0 0 forward_v I I I I #
coedge $-1 $138 $139 $140 $141 forward $54 $-1 #
face $-1 $142 $143 $32 $-1 $144 reversed single #
loop $-1 $-1 $145 $56 #
plane-surface $-1 53.470088898510127 -16.055893133615783 45.896196277506419 0 0.64278761758704617 0.76604443648966558 1 0 0 forward_v I I I I #
coedge $-1 $146 $147 $148 $149 reversed $57 $-1 #
face $-1 $-1 $150 $33 $-1 $151 forward single #
loop $-1 $152 $153 $59 #
cone-surface $-1 47.023291885368579 26.012844174612447 6.114257231983709 0 -0.64278761758704617 -0.76604443648966558 0.5 0 0 1 I I -0.70710678118654746 0.70710678118654746 0.5 forward I I I I #
loop $-1 $-1 $154 $43 #
coedge $-1 $96 $96 $155 $156 reversed $60 $-1 #
face $-1 $-1 $157 $34 $-1 $158 forward single #
loop $-1 $159 $160 $62 #
cone-surface $-1 53.470088898510127 26.012844174612447 6.114257231983709 0 -0.64278761758704617 -0.76604443648966558 0.5 0 0 1 I I -0.70710678118654746 0.70710678118654746 0.5 forward I I I I #
loop $-1 $-1 $161 $44 #
coedge $-1 $101 $101 $162 $163 reversed $63 $-1 #
face $-1 $-1 $164 $35 $-1 $165 forward single #
loop $-1 $166 $167 $65 #
cone-surface $-1 59.916885911651676 26.012844174612447 6.114257231983709 0 -0.64278761758704617 -0.76604443648966558 0.5 0 0 1 I I -0.70710678118654746 0.70710678118654746 0.5 forward I I I I #
loop $-1 $-1 $168 $45 #
coedge $-1 $106 $106 $169 $170 reversed $66 $-1 #
face $-1 $171 $172 $36 $-1 $173 reversed single #
loop $-1 $-1 $174 $68 #
plane-surface $-1 47.97733212688528 -133.42396549815902 95.614098154204072 1 0 0 0 0.74314483375859142 -0.66913059716165679 forward_v I I I I #
coedge $-1 $175 $176 $177 $178 reversed $69 $-1 #
face $-1 $-1 $179 $37 $-1 $180 forward single #
loop $-1 $181 $182 $71 #
cone-surface $-1 52.275356103436991 -20.327286416542066 0.78591882487888043 0 0.74314483375859142 -0.66913059716165679 1 0 0 1 I I -0.70710678118654746 0.70710678118654746 1 forward I I I I #
loop $-1 $-1 $183 $47 #
coedge $-1 $115 $115 $184 $185 reversed $72 $-1 #
face $-1 $-1 $186 $38 $-1 $187 forward single #
loop $-1 $188 $189 $74 #
cone-surface $-1 58.722392068264568 -20.327286416542066 0.78591882487888043 0 0.74314483375859142 -0.66913059716165679 1 0 0 1 I I -0.70710678118654746 0.70710678118654746 1 forward I I I I #
loop $-1 $-1 $190 $48 #
coedge $-1 $120 $120 $191 $192 reversed $75 $-1 #
face $-1 $-1 $193 $39 $-1 $194 forward single #
loop $-1 $195 $196 $77 #
cone-surface $-1 65.169428033092132 -20.327286416542066 0.78591882487888043 0 0.74314483375859142 -0.66913059716165679 1 0 0 1 I I -0.70710678118654746 0.70710678118654746 1 forward I I I I #
loop $-1 $-1 $197 $49 #
coedge $-1 $125 $125 $198 $199 reversed $78 $-1 #
face $-1 $200 $201 $30 $-1 $202 reversed single #
loop $-1 $-1 $203 $80 #
plane-surface $-1 0 -30.175209347479594 0 0 1 0 0 0 1 forward_v I I I I #
coedge $-1 $204 $205 $206 $207 forward $81 $-1 #
coedge $-1 $208 $83 $209 $210 forward $51 $-1 #
coedge $-1 $83 $208 $211 $212 forward $51 $-1 #
coedge $-1 $213 $214 $83 $133 reversed $215 $-1 #
edge $-1 $216 -30.175209347479594 $217 30.175209347479594 $132 $218 forward 7 unknown #
face $-1 $219 $220 $31 $-1 $221 reversed single #
loop $-1 $-1 $222 $84 #
plane-surface $-1 -77.906857761970187 -28.675209347479594 0 1 0 0 0 0 -1 forward_v I I I I #
coedge $-1 $223 $224 $138 $225 forward $85 $-1 #
coedge $-1 $226 $87 $137 $225 reversed $54 $-1 #
coedge $-1 $87 $226 $227 $228 reversed $54 $-1 #
coedge $-1 $229 $230 $87 $141 reversed $220 $-1 #
edge $-1 $231 -10.385200685244206 $232 10.385200685244206 $140 $233 forward 7 unknown #
face $-1 $234 $235 $32 $-1 $236 forward single #
loop $-1 $-1 $237 $88 #
plane-surface $-1 64.214750587079379 73.249742820627077 152.32650653570744 -1 0 0 0 0.64278761758704617 0.76604443648966558 forward_v I I I I #
coedge $-1 $238 $239 $240 $241 reversed $89 $-1 #
coedge $-1 $147 $91 $242 $243 reversed $57 $-1 #
coedge $-1 $91 $146 $238 $244 reversed $57 $-1 #
coedge $-1 $240 $245 $91 $149 forward $235 $-1 #
edge $-1 $246 6.4496620628339443 $247 10.360408856651823 $148 $248 forward 7 unknown #
loop $-1 $-1 $155 $92 #
plane-surface $-1 53.470088898510127 -16.055893133615783 45.896196277506419 0 0.64278761758704617 0.76604443648966558 1 0 0 forward_v I I I I #
loop $-1 $-1 $249 $59 #
coedge $-1 $153 $153 $154 $250 reversed $93 $-1 #
coedge $-1 $154 $154 $153 $250 forward $95 $-1 #
coedge $-1 $155 $155 $96 $156 forward $150 $-1 #
edge $-1 $251 3.0817237847880781e-015 $251 6.2831853071796031 $155 $252 forward 7 unknown #
loop $-1 $-1 $162 $97 #
plane-surface $-1 53.470088898510127 -16.055893133615783 45.896196277506419 0 0.64278761758704617 0.76604443648966558 1 0 0 forward_v I I I I #
loop $-1 $-1 $253 $62 #
coedge $-1 $160 $160 $161 $254 reversed $98 $-1 #
coedge $-1 $161 $161 $160 $254 forward $100 $-1 #
coedge $-1 $162 $162 $101 $163 forward $157 $-1 #
edge $-1 $255 3.0817237847880781e-015 $255 6.2831853071796031 $162 $256 forward 7 unknown #
loop $-1 $-1 $169 $102 #
plane-surface $-1 53.470088898510127 -16.055893133615783 45.896196277506419 0 0.64278761758704617 0.76604443648966558 1 0 0 forward_v I I I I #
loop $-1 $-1 $257 $65 #
coedge $-1 $167 $167 $168 $258 reversed $103 $-1 #
coedge $-1 $168 $168 $167 $258 forward $105 $-1 #
coedge $-1 $169 $169 $106 $170 forward $164 $-1 #
edge $-1 $259 3.0817237847880781e-015 $259 6.2831853071796031 $169 $260 forward 7 unknown #
face $-1 $261 $262 $36 $-1 $263 forward single #
loop $-1 $-1 $264 $107 #
plane-surface $-1 0 -30.175209347479594 0 0 1 0 0 0 1 forward_v I I I I #
coedge $-1 $265 $266 $267 $268 reversed $108 $-1 #
coedge $-1 $269 $110 $270 $271 reversed $69 $-1 #
coedge $-1 $110 $269 $265 $272 forward $69 $-1 #
coedge $-1 $267 $273 $110 $178 forward $262 $-1 #
edge $-1 $274 -40.10625597551158 $275 -18.616136092752996 $177 $276 forward 7 unknown #
loop $-1 $-1 $184 $111 #
plane-surface $-1 58.722392068264568 -30.175209347479608 2.6485028611806172 0 -0.74314483375859142 0.66913059716165679 1 0 0 forward_v I I I I #
loop $-1 $-1 $277 $71 #
coedge $-1 $182 $182 $183 $278 reversed $112 $-1 #
coedge $-1 $183 $183 $182 $278 forward $114 $-1 #
coedge $-1 $184 $184 $115 $185 forward $179 $-1 #
edge $-1 $279 6.627119311522709e-016 $279 6.2831853071796013 $184 $280 forward 7 unknown #
loop $-1 $-1 $191 $116 #
plane-surface $-1 58.722392068264568 -30.175209347479608 2.6485028611806172 0 -0.74314483375859142 0.66913059716165679 1 0 0 forward_v I I I I #
loop $-1 $-1 $281 $74 #
coedge $-1 $189 $189 $190 $282 reversed $117 $-1 #
coedge $-1 $190 $190 $189 $282 forward $119 $-1 #
coedge $-1 $191 $191 $120 $192 forward $186 $-1 #
edge $-1 $283 6.627119311522709e-016 $283 6.2831853071796013 $191 $284 forward 7 unknown #
loop $-1 $-1 $198 $121 #
plane-surface $-1 58.722392068264568 -30.175209347479608 2.6485028611806172 0 -0.74314483375859142 0.66913059716165679 1 0 0 forward_v I I I I #
loop $-1 $-1 $285 $77 #
coedge $-1 $196 $196 $197 $286 reversed $122 $-1 #
coedge $-1 $197 $197 $196 $286 forward $124 $-1 #
coedge $-1 $198 $198 $125 $199 forward $193 $-1 #
edge $-1 $287 6.627119311522709e-016 $287 6.2831853071796013 $198 $288 forward 7 unknown #
face $-1 $289 $290 $30 $-1 $291 reversed single #
loop $-1 $-1 $292 $126 #
plane-surface $-1 -69.46745200964385 0 0 1 0 0 0 0 -1 forward_v I I I I #
coedge $-1 $293 $211 $294 $295 forward $127 $-1 #
coedge $-1 $296 $129 $293 $297 forward $81 $-1 #
coedge $-1 $129 $296 $298 $299 forward $81 $-1 #
coedge $-1 $214 $213 $129 $207 reversed $215 $-1 #
edge $-1 $300 -30.175209347479594 $301 30.175209347479594 $206 $302 forward 7 unknown #
coedge $-1 $131 $130 $303 $304 forward $51 $-1 #
coedge $-1 $305 $306 $130 $210 reversed $290 $-1 #
edge $-1 $217 -69.46745200964385 $307 69.46745200964385 $209 $308 forward 7 unknown #
coedge $-1 $203 $309 $131 $212 reversed $127 $-1 #
edge $-1 $310 -69.46745200964385 $216 69.46745200964385 $211 $311 forward 7 unknown #
coedge $-1 $206 $132 $309 $312 forward $215 $-1 #
coedge $-1 $132 $206 $305 $313 reversed $215 $-1 #
loop $-1 $-1 $213 $289 #
vertex $-1 $133 $314 #
vertex $-1 $133 $315 #
straight-curve $-1 69.46745200964385 0 10.385200685244206 0 1 0 I I #
face $-1 $316 $317 $31 $-1 $318 reversed single #
loop $-1 $-1 $140 $134 #
plane-surface $-1 -73.687154885807018 -27.175209347479594 0 0 -1 0 0 0 -1 forward_v I I I I #
coedge $-1 $319 $320 $321 $322 forward $135 $-1 #
coedge $-1 $323 $137 $230 $324 forward $85 $-1 #
coedge $-1 $137 $323 $325 $326 forward $85 $-1 #
edge $-1 $327 -30.175209347479594 $232 -27.175209347479594 $137 $328 forward 7 unknown #
coedge $-1 $139 $138 $329 $330 reversed $54 $-1 #
coedge $-1 $331 $332 $139 $228 forward $317 $-1 #
edge $-1 $231 27.175209347479594 $333 30.175209347479594 $227 $334 forward 7 unknown #
coedge $-1 $321 $140 $332 $335 reversed $220 $-1 #
coedge $-1 $140 $321 $223 $324 reversed $220 $-1 #
vertex $-1 $228 $336 #
vertex $-1 $324 $337 #
straight-curve $-1 -69.46745200964385 -27.175209347479594 0 0 0 1 I I #
face $-1 $-1 $338 $32 $-1 $339 reversed single #
loop $-1 $-1 $148 $142 #
plane-surface $-1 0 0 10.385200685244206 0 0 1 1 0 0 forward_v I I I I #
coedge $-1 $340 $341 $342 $343 reversed $143 $-1 #
coedge $-1 $344 $145 $147 $244 forward $89 $-1 #
coedge $-1 $145 $344 $340 $345 forward $89 $-1 #
coedge $-1 $342 $148 $145 $241 forward $235 $-1 #
edge $-1 $247 15.990382760685819 $346 37.479706137824316 $240 $347 forward 7 unknown #
coedge $-1 $348 $349 $146 $243 forward $338 $-1 #
edge $-1 $350 -69.059558843660838 $246 -65.778052582609519 $242 $351 forward 7 unknown #
edge $-1 $247 55.245301279397033 $350 60.350418694959174 $147 $352 forward 7 unknown #
coedge $-1 $148 $342 $348 $353 forward $235 $-1 #
vertex $-1 $243 $354 #
vertex $-1 $149 $355 #
straight-curve $-1 42.725427209940882 36.624871410313538 10.3852006852442 0 -1 0 I I #
coedge $-1 $249 $249 $-1 $356 reversed $152 $-1 #
edge $-1 $357 0 $357 6.2831853071796004 $153 $358 forward 7 unknown #
vertex $-1 $156 $359 #
ellipse-curve $-1 47.023291885368579 28.219835950570651 8.7444475547185494 0 0.64278761758704617 0.76604443648966558 1 0 0 1 I I #
coedge $-1 $253 $253 $-1 $360 reversed $159 $-1 #
edge $-1 $361 0 $361 6.2831853071796004 $160 $362 forward 7 unknown #
vertex $-1 $163 $363 #
ellipse-curve $-1 53.470088898510127 28.219835950570651 8.7444475547185494 0 0.64278761758704617 0.76604443648966558 1 0 0 1 I I #
coedge $-1 $257 $257 $-1 $364 reversed $166 $-1 #
edge $-1 $365 0 $365 6.2831853071796004 $167 $366 forward 7 unknown #
vertex $-1 $170 $367 #
ellipse-curve $-1 59.916885911651676 28.219835950570651 8.7444475547185494 0 0.64278761758704617 0.76604443648966558 1 0 0 1 I I #
face $-1 $-1 $368 $36 $-1 $369 reversed single #
loop $-1 $-1 $267 $171 #
plane-surface $-1 0 0 10.385200685244206 0 0 1 1 0 0 forward_v I I I I #
coedge $-1 $370 $371 $266 $372 forward $172 $-1 #
coedge $-1 $266 $174 $176 $272 reversed $108 $-1 #
coedge $-1 $174 $265 $264 $372 reversed $108 $-1 #
coedge $-1 $373 $177 $174 $268 forward $262 $-1 #
edge $-1 $275 -43.502927238520272 $374 -36.536773401599916 $267 $375 forward 7 unknown #
coedge $-1 $176 $175 $370 $376 reversed $69 $-1 #
coedge $-1 $377 $378 $175 $271 forward $368 $-1 #
edge $-1 $379 -9.1114673158378849 $274 1.2992863792847764 $270 $380 forward 7 unknown #
edge $-1 $381 2.1389731374768986e-014 $275 10.410753695122683 $265 $382 forward 7 unknown #
coedge $-1 $177 $373 $377 $383 forward $262 $-1 #
vertex $-1 $271 $384 #
vertex $-1 $178 $385 #
straight-curve $-1 29.361196034132284 -23.209055510559239 10.385200685244206 -1 0 0 I I #
coedge $-1 $277 $277 $-1 $386 reversed $181 $-1 #
edge $-1 $387 0 $387 6.2831853071796004 $182 $388 forward 7 unknown #
vertex $-1 $185 $389 #
ellipse-curve $-1 52.275356103436991 -26.69213242901942 6.5168517732124185 0 -0.74314483375859142 0.66913059716165679 2 0 0 1 I I #
coedge $-1 $281 $281 $-1 $390 reversed $188 $-1 #
edge $-1 $391 0 $391 6.2831853071796004 $189 $392 forward 7 unknown #
vertex $-1 $192 $393 #
ellipse-curve $-1 58.722392068264568 -26.69213242901942 6.5168517732124185 0 -0.74314483375859142 0.66913059716165679 2 0 0 1 I I #
coedge $-1 $285 $285 $-1 $394 reversed $195 $-1 #
edge $-1 $395 0 $395 6.2831853071796004 $196 $396 forward 7 unknown #
vertex $-1 $199 $397 #
ellipse-curve $-1 65.169428033092132 -26.69213242901942 6.5168517732124185 0 -0.74314483375859142 0.66913059716165679 2 0 0 1 I I #
face $-1 $-1 $215 $30 $-1 $398 reversed single #
loop $-1 $-1 $305 $200 #
plane-surface $-1 0 30.175209347479594 0 0 -1 0 0 0 -1 forward_v I I I I #
coedge $-1 $399 $303 $306 $400 forward $201 $-1 #
coedge $-1 $309 $203 $204 $297 reversed $127 $-1 #
coedge $-1 $303 $399 $203 $295 reversed $201 $-1 #
edge $-1 $310 -10.385200685244206 $401 10.385200685244206 $294 $402 forward 7 unknown #
coedge $-1 $205 $204 $399 $403 forward $81 $-1 #
edge $-1 $301 -69.46745200964385 $401 69.46745200964385 $293 $404 forward 7 unknown #
coedge $-1 $306 $305 $205 $299 reversed $290 $-1 #
edge $-1 $405 -69.46745200964385 $300 69.46745200964385 $298 $406 forward 7 unknown #
vertex $-1 $207 $407 #
vertex $-1 $312 $408 #
straight-curve $-1 69.46745200964385 0 -10.385200685244206 0 -1 0 I I #
coedge $-1 $292 $294 $208 $304 reversed $201 $-1 #
edge $-1 $307 -30.175209347479594 $310 30.175209347479594 $303 $409 forward 7 unknown #
coedge $-1 $298 $209 $214 $313 forward $290 $-1 #
coedge $-1 $209 $298 $292 $400 reversed $290 $-1 #
vertex $-1 $210 $410 #
straight-curve $-1 0 30.175209347479594 10.385200685244206 -1 0 0 I I #
coedge $-1 $211 $293 $213 $312 reversed $127 $-1 #
vertex $-1 $304 $411 #
straight-curve $-1 0 -30.175209347479594 10.385200685244206 1 0 0 I I #
edge $-1 $216 -10.385200685244206 $301 10.385200685244206 $213 $412 forward 7 unknown #
edge $-1 $217 -10.385200685244206 $300 10.385200685244206 $214 $413 forward 7 unknown #
point $-1 69.46745200964385 -30.175209347479594 10.385200685244206 #
point $-1 69.46745200964385 30.175209347479594 10.385200685244206 #
face $-1 $-1 $414 $31 $-1 $415 reversed single #
loop $-1 $-1 $227 $219 #
plane-surface $-1 0 0 -10.385200685244206 0 0 1 1 0 0 forward_v I I I I #
coedge $-1 $416 $222 $417 $418 reversed $135 $-1 #
coedge $-1 $222 $416 $323 $419 reversed $135 $-1 #
coedge $-1 $230 $229 $222 $322 reversed $220 $-1 #
edge $-1 $420 -10.385200685244206 $421 10.385200685244206 $321 $422 forward 7 unknown #
coedge $-1 $224 $223 $320 $419 forward $85 $-1 #
edge $-1 $232 -4.2197028761631685 $420 4.2197028761631685 $230 $423 forward 7 unknown #
coedge $-1 $424 $329 $224 $326 reversed $414 $-1 #
edge $-1 $425 -77.906857761970187 $327 -69.46745200964385 $325 $426 forward 7 unknown #
vertex $-1 $330 $427 #
straight-curve $-1 -69.46745200964385 0 10.385200685244206 0 1 0 I I #
coedge $-1 $325 $428 $226 $330 forward $414 $-1 #
edge $-1 $333 -10.385200685244206 $327 10.385200685244206 $329 $429 forward 7 unknown #
coedge $-1 $417 $227 $428 $430 forward $317 $-1 #
coedge $-1 $227 $417 $229 $335 forward $317 $-1 #
vertex $-1 $430 $431 #
straight-curve $-1 -69.46745200964385 0 -10.385200685244206 0 -1 0 I I #
edge $-1 $421 -4.2197028761631685 $231 4.2197028761631685 $229 $432 forward 7 unknown #
point $-1 -69.46745200964385 -27.175209347479594 -10.385200685244206 #
point $-1 -69.46745200964385 -27.175209347479594 10.385200685244206 #
loop $-1 $-1 $242 $234 #
plane-surface $-1 0 30.175209347479594 0 0 -1 0 0 0 -1 forward_v I I I I #
coedge $-1 $341 $237 $239 $345 reversed $143 $-1 #
coedge $-1 $237 $340 $433 $434 reversed $143 $-1 #
coedge $-1 $245 $240 $237 $343 forward $235 $-1 #
edge $-1 $346 -10.360408856651823 $435 -6.4496620628339443 $342 $436 forward 7 unknown #
coedge $-1 $239 $238 $349 $437 reversed $89 $-1 #
edge $-1 $438 -60.350418694959174 $346 -55.245301279397033 $340 $439 forward 7 unknown #
vertex $-1 $241 $440 #
straight-curve $-1 26.735044449255064 26.264462553661719 10.385200685244211 1 0 0 I I #
coedge $-1 $433 $242 $245 $353 reversed $338 $-1 #
coedge $-1 $242 $433 $344 $437 forward $338 $-1 #
vertex $-1 $243 $441 #
straight-curve $-1 42.725427209940882 30.175209347479594 76.163253267853719 0 0 1 I I #
straight-curve $-1 42.725427209940882 -16.055893133615783 45.896196277506419 0 0.76604443648966558 -0.64278761758704617 I I #
edge $-1 $435 -64.214750587079379 $246 -42.725427209940882 $348 $442 forward 7 unknown #
point $-1 42.725427209940882 30.175209347479594 10.385200685244206 #
point $-1 42.725427209940882 26.264462553661716 10.385200685244207 #
edge $-1 $443 1 $443 0 $249 $-1 forward 7 unknown #
vertex $-1 $250 $444 #
ellipse-curve $-1 47.023291885368579 26.33423798340597 6.4972794502285414 0 0.64278761758704617 0.76604443648966558 1 0 0 1 I I #
point $-1 48.023291885368579 28.21983595057063 8.7444475547185192 #
edge $-1 $445 1 $445 0 $253 $-1 forward 7 unknown #
vertex $-1 $254 $446 #
ellipse-curve $-1 53.470088898510127 26.33423798340597 6.4972794502285414 0 0.64278761758704617 0.76604443648966558 1 0 0 1 I I #
point $-1 54.470088898510127 28.21983595057063 8.7444475547185192 #
edge $-1 $447 1 $447 0 $257 $-1 forward 7 unknown #
vertex $-1 $258 $448 #
ellipse-curve $-1 59.916885911651676 26.33423798340597 6.4972794502285414 0 0.64278761758704617 0.76604443648966558 1 0 0 1 I I #
point $-1 60.916885911651676 28.21983595057063 8.7444475547185192 #
loop $-1 $-1 $270 $261 #
plane-surface $-1 69.46745200964385 0 0 -1 0 0 0 0 1 forward_v I I I I #
coedge $-1 $449 $264 $269 $376 forward $172 $-1 #
coedge $-1 $264 $449 $373 $450 reversed $172 $-1 #
edge $-1 $374 37.421848391857829 $381 45.158546215921405 $264 $451 forward 7 unknown #
coedge $-1 $273 $267 $371 $450 forward $262 $-1 #
vertex $-1 $450 $452 #
straight-curve $-1 47.97733212688528 -66.71198274907951 10.385200685244207 0 -1 0 I I #
edge $-1 $381 18.616136092752996 $379 40.10625597551158 $370 $453 forward 7 unknown #
coedge $-1 $378 $270 $273 $383 reversed $368 $-1 #
coedge $-1 $270 $377 $449 $454 forward $368 $-1 #
vertex $-1 $376 $455 #
straight-curve $-1 69.46745200964385 -24.07844778141407 9.4196427249058168 0 0.66913059716165679 0.74314483375859142 I I #
vertex $-1 $376 $456 #
straight-curve $-1 47.97733212688528 -30.175209347479608 2.6485028611806172 0 0.66913059716165679 0.74314483375859142 I I #
edge $-1 $457 -30.175209347479594 $274 -23.209055510559242 $377 $458 forward 7 unknown #
point $-1 69.467452009643864 -23.209055510559242 10.385200685244206 #
point $-1 47.97733212688528 -23.209055510559242 10.385200685244206 #
edge $-1 $459 1 $459 0 $277 $-1 forward 7 unknown #
vertex $-1 $278 $460 #
ellipse-curve $-1 52.275356103436991 -21.070431250300658 1.4550494220405372 0 -0.74314483375859142 0.66913059716165679 2 0 0 1 I I #
point $-1 54.275356103436991 -26.692132429019402 6.5168517732124043 #
edge $-1 $461 1 $461 0 $281 $-1 forward 7 unknown #
vertex $-1 $282 $462 #
ellipse-curve $-1 58.722392068264568 -21.070431250300658 1.4550494220405372 0 -0.74314483375859142 0.66913059716165679 2 0 0 1 I I #
point $-1 60.722392068264568 -26.692132429019402 6.5168517732124043 #
edge $-1 $463 1 $463 0 $285 $-1 forward 7 unknown #
vertex $-1 $286 $464 #
ellipse-curve $-1 65.169428033092132 -21.070431250300658 1.4550494220405372 0 -0.74314483375859142 0.66913059716165679 2 0 0 1 I I #
point $-1 67.169428033092132 -26.692132429019402 6.5168517732124043 #
plane-surface $-1 69.46745200964385 0 0 -1 0 0 0 0 1 forward_v I I I I #
coedge $-1 $294 $292 $296 $403 reversed $201 $-1 #
edge $-1 $307 -10.385200685244206 $405 10.385200685244206 $306 $465 forward 7 unknown #
vertex $-1 $403 $466 #
straight-curve $-1 -69.46745200964385 -30.175209347479594 0 0 0 -1 I I #
edge $-1 $401 -30.175209347479594 $405 30.175209347479594 $399 $467 forward 7 unknown #
straight-curve $-1 0 -30.175209347479594 -10.385200685244206 -1 0 0 I I #
vertex $-1 $299 $468 #
straight-curve $-1 0 30.175209347479594 -10.385200685244206 1 0 0 I I #
point $-1 69.46745200964385 30.175209347479594 -10.385200685244206 #
point $-1 69.46745200964385 -30.175209347479594 -10.385200685244206 #
straight-curve $-1 -69.46745200964385 0 10.385200685244206 0 -1 0 I I #
point $-1 -69.46745200964385 30.175209347479594 10.385200685244206 #
point $-1 -69.46745200964385 -30.175209347479594 10.385200685244206 #
straight-curve $-1 69.46745200964385 -30.175209347479594 0 0 0 -1 I I #
straight-curve $-1 69.46745200964385 30.175209347479594 0 0 0 -1 I I #
loop $-1 $-1 $329 $316 #
plane-surface $-1 0 -30.175209347479594 0 0 1 0 0 0 1 forward_v I I I I #
coedge $-1 $320 $319 $424 $469 reversed $135 $-1 #
coedge $-1 $332 $331 $319 $418 forward $317 $-1 #
edge $-1 $470 -1.5 $421 1.5 $319 $471 forward 7 unknown #
edge $-1 $420 -1.5 $425 1.5 $320 $472 forward 7 unknown #
vertex $-1 $324 $473 #
vertex $-1 $335 $474 #
straight-curve $-1 -77.906857761970187 -27.175209347479594 0 0 0 -1 I I #
straight-curve $-1 -73.687154885807018 -27.175209347479594 10.385200685244206 -1 0 0 I I #
coedge $-1 $428 $325 $416 $469 forward $414 $-1 #
vertex $-1 $419 $475 #
straight-curve $-1 0 -30.175209347479594 10.385200685244206 1 0 0 I I #
point $-1 -69.46745200964385 -30.175209347479594 10.385200685244206 #
coedge $-1 $329 $424 $331 $430 reversed $414 $-1 #
straight-curve $-1 -69.46745200964385 -30.175209347479594 0 0 0 1 I I #
edge $-1 $333 -4.2197028761631685 $470 4.2197028761631685 $428 $476 forward 7 unknown #
point $-1 -69.46745200964385 -30.175209347479594 -10.385200685244206 #
straight-curve $-1 -73.687154885807018 -27.175209347479594 -10.385200685244206 1 0 0 I I #
coedge $-1 $349 $348 $341 $434 forward $338 $-1 #
edge $-1 $435 65.778052582609519 $438 69.059558843660838 $433 $477 forward 7 unknown #
vertex $-1 $353 $478 #
straight-curve $-1 64.214750587079379 36.624871410313538 10.3852006852442 0 1 0 I I #
edge $-1 $438 -37.479706137824316 $350 -15.990382760685819 $349 $479 forward 7 unknown #
vertex $-1 $437 $480 #
straight-curve $-1 64.214750587079379 -16.055893133615783 45.896196277506419 0 -0.76604443648966558 0.64278761758704617 I I #
point $-1 64.214750587079379 26.264462553661716 10.385200685244207 #
point $-1 42.725427209940882 30.175209347479594 7.1036944241928808 #
straight-curve $-1 0 30.175209347479594 10.385200685244206 -1 0 0 I I #
vertex $-1 $356 $481 #
point $-1 48.023291885368579 26.33423798340597 6.4972794502285414 #
vertex $-1 $360 $482 #
point $-1 54.470088898510127 26.33423798340597 6.4972794502285414 #
vertex $-1 $364 $483 #
point $-1 60.916885911651676 26.33423798340597 6.4972794502285414 #
coedge $-1 $371 $370 $378 $454 reversed $172 $-1 #
edge $-1 $374 47.97733212688528 $457 69.46745200964385 $371 $484 forward 7 unknown #
straight-curve $-1 47.97733212688528 -30.175209347479594 47.807049077102036 0 0 -1 I I #
point $-1 47.97733212688528 -30.175209347479594 10.385200685244206 #
straight-curve $-1 29.361196034132284 -30.175209347479594 2.6485028611806332 1 0 0 I I #
edge $-1 $457 -10.385200685244206 $379 -2.6485028611806332 $378 $485 forward 7 unknown #
point $-1 69.467452009643864 -30.175209347479594 2.6485028611806332 #
point $-1 47.97733212688528 -30.175209347479594 2.6485028611806332 #
vertex $-1 $383 $486 #
straight-curve $-1 69.46745200964385 0 10.385200685244206 0 1 0 I I #
vertex $-1 $386 $487 #
point $-1 54.275356103436991 -21.070431250300658 1.4550494220405372 #
vertex $-1 $390 $488 #
point $-1 60.722392068264568 -21.070431250300658 1.4550494220405372 #
vertex $-1 $394 $489 #
point $-1 67.169428033092132 -21.070431250300658 1.4550494220405372 #
straight-curve $-1 -69.46745200964385 30.175209347479594 0 0 0 -1 I I #
point $-1 -69.46745200964385 -30.175209347479594 -10.385200685244206 #
straight-curve $-1 -69.46745200964385 0 -10.385200685244206 0 1 0 I I #
point $-1 -69.46745200964385 30.175209347479594 -10.385200685244206 #
edge $-1 $425 -10.385200685244206 $470 10.385200685244206 $416 $490 forward 7 unknown #
vertex $-1 $418 $491 #
straight-curve $-1 -77.906857761970187 -28.675209347479594 -10.385200685244206 0 1 0 I I #
straight-curve $-1 -77.906857761970187 -28.675209347479594 10.385200685244206 0 -1 0 I I #
point $-1 -77.906857761970187 -27.175209347479594 10.385200685244206 #
point $-1 -77.906857761970187 -27.175209347479594 -10.385200685244206 #
point $-1 -77.906857761970187 -30.175209347479594 10.385200685244206 #
straight-curve $-1 -73.687154885807018 -30.175209347479594 -10.385200685244206 -1 0 0 I I #
straight-curve $-1 64.214750587079379 30.175209347479594 76.163253267853719 0 0 -1 I I #
point $-1 64.214750587079379 30.175209347479594 10.385200685244206 #
straight-curve $-1 26.735044449255064 30.175209347479594 7.1036944241928843 -1 0 0 I I #
point $-1 64.214750587079379 30.175209347479594 7.1036944241928808 #
point $-1 47.023291885368579 25.691450365818923 5.7312350137388766 #
point $-1 53.470088898510127 25.691450365818923 5.7312350137388766 #
point $-1 59.916885911651676 25.691450365818923 5.7312350137388766 #
straight-curve $-1 0 -30.175209347479594 10.385200685244206 1 0 0 I I #
straight-curve $-1 69.46745200964385 -30.175209347479594 0 0 0 -1 I I #
point $-1 69.46745200964385 -30.175209347479594 10.385200685244206 #
point $-1 52.275356103436991 -19.584141582783474 0.11678822771722364 #
point $-1 58.722392068264568 -19.584141582783474 0.11678822771722364 #
point $-1 65.169428033092132 -19.584141582783474 0.11678822771722364 #
straight-curve $-1 -77.906857761970187 -30.175209347479594 0 0 0 -1 I I #
point $-1 -77.906857761970187 -30.175209347479594 -10.385200685244206 #
End-of-ACIS-data 