500 0 18 0           
7 Unknown 11 ACIS 5.0 NT 24 Thu Mar 25 22:40:21 1999 
-1 9.9999999999999995e-007 1e-010 
body $-1 $18 $-1 $19 #
body $-1 $20 $-1 $21 #
body $-1 $22 $-1 $23 #
body $-1 $24 $-1 $25 #
body $-1 $26 $-1 $27 #
body $-1 $28 $-1 $29 #
body $-1 $30 $-1 $31 #
body $-1 $32 $-1 $33 #
body $-1 $34 $-1 $35 #
body $-1 $36 $-1 $37 #
body $-1 $38 $-1 $39 #
body $-1 $40 $-1 $41 #
body $-1 $42 $-1 $43 #
body $-1 $44 $-1 $45 #
body $-1 $46 $-1 $47 #
body $-1 $48 $-1 $49 #
body $-1 $50 $-1 $51 #
body $-1 $52 $-1 $53 #
lump $-1 $-1 $54 $0 #
transform $-1 1 0 0 0 1 0 0 0 1 71.88085573900571 41.256412784579986 11.003011129586659 1 rotate no_reflect no_shear #
lump $-1 $-1 $55 $1 #
transform $-1 1 0 0 0 1 0 0 0 1 71.88085573900571 41.256412784579986 11.003011129586659 1 rotate no_reflect no_shear #
lump $-1 $-1 $56 $2 #
transform $-1 1 0 0 0 1 0 0 0 1 71.88085573900571 41.256412784579986 11.003011129586659 1 rotate no_reflect no_shear #
lump $-1 $-1 $57 $3 #
transform $-1 1 0 0 0 1 0 0 0 1 71.88085573900571 41.256412784579986 11.003011129586659 1 rotate no_reflect no_shear #
lump $-1 $-1 $58 $4 #
transform $-1 1 0 0 0 1 0 0 0 1 71.88085573900571 41.256412784579986 11.003011129586659 1 rotate no_reflect no_shear #
lump $-1 $-1 $59 $5 #
transform $-1 1 0 0 0 1 0 0 0 1 71.88085573900571 41.256412784579986 11.003011129586659 1 rotate no_reflect no_shear #
lump $-1 $-1 $60 $6 #
transform $-1 1 0 0 0 1 0 0 0 1 71.88085573900571 41.256412784579986 11.003011129586659 1 rotate no_reflect no_shear #
lump $-1 $-1 $61 $7 #
transform $-1 1 0 0 0 1 0 0 0 1 71.88085573900571 41.256412784579986 11.003011129586659 1 rotate no_reflect no_shear #
lump $-1 $-1 $62 $8 #
transform $-1 1 0 0 0 1 0 0 0 1 71.88085573900571 41.256412784579986 11.003011129586659 1 rotate no_reflect no_shear #
lump $-1 $-1 $63 $9 #
transform $-1 1 0 0 0 1 0 0 0 1 71.88085573900571 41.256412784579986 11.003011129586659 1 rotate no_reflect no_shear #
lump $-1 $-1 $64 $10 #
transform $-1 1 0 0 0 1 0 0 0 1 71.88085573900571 41.256412784579986 11.003011129586659 1 rotate no_reflect no_shear #
lump $-1 $-1 $65 $11 #
transform $-1 1 0 0 0 1 0 0 0 1 71.88085573900571 41.256412784579986 11.003011129586659 1 rotate no_reflect no_shear #
lump $-1 $-1 $66 $12 #
transform $-1 1 0 0 0 1 0 0 0 1 71.88085573900571 41.256412784579986 11.003011129586659 1 rotate no_reflect no_shear #
lump $-1 $-1 $67 $13 #
transform $-1 1 0 0 0 1 0 0 0 1 71.88085573900571 41.256412784579986 11.003011129586659 1 rotate no_reflect no_shear #
lump $-1 $-1 $68 $14 #
transform $-1 1 0 0 0 1 0 0 0 1 71.88085573900571 41.256412784579986 11.003011129586659 1 rotate no_reflect no_shear #
lump $-1 $-1 $69 $15 #
transform $-1 1 0 0 0 1 0 0 0 1 71.88085573900571 41.256412784579986 11.003011129586659 1 rotate no_reflect no_shear #
lump $-1 $-1 $70 $16 #
transform $-1 1 0 0 0 1 0 0 0 1 71.88085573900571 41.256412784579986 11.003011129586659 1 rotate no_reflect no_shear #
lump $-1 $-1 $71 $17 #
transform $-1 1 0 0 0 1 0 0 0 1 71.88085573900571 41.256412784579986 11.003011129586659 1 rotate no_reflect no_shear #
shell $-1 $-1 $-1 $72 $-1 $18 #
shell $-1 $-1 $-1 $73 $-1 $20 #
shell $-1 $-1 $-1 $74 $-1 $22 #
shell $-1 $-1 $-1 $75 $-1 $24 #
shell $-1 $-1 $-1 $76 $-1 $26 #
shell $-1 $-1 $-1 $77 $-1 $28 #
shell $-1 $-1 $-1 $78 $-1 $30 #
shell $-1 $-1 $-1 $79 $-1 $32 #
shell $-1 $-1 $-1 $80 $-1 $34 #
shell $-1 $-1 $-1 $81 $-1 $36 #
shell $-1 $-1 $-1 $82 $-1 $38 #
shell $-1 $-1 $-1 $83 $-1 $40 #
shell $-1 $-1 $-1 $84 $-1 $42 #
shell $-1 $-1 $-1 $85 $-1 $44 #
shell $-1 $-1 $-1 $86 $-1 $46 #
shell $-1 $-1 $-1 $87 $-1 $48 #
shell $-1 $-1 $-1 $88 $-1 $50 #
shell $-1 $-1 $-1 $89 $-1 $52 #
face $-1 $90 $91 $54 $-1 $92 forward single #
face $-1 $93 $94 $55 $-1 $95 forward single #
face $-1 $96 $97 $56 $-1 $98 forward single #
face $-1 $99 $100 $57 $-1 $101 reversed single #
face $-1 $102 $103 $58 $-1 $104 forward single #
face $-1 $105 $106 $59 $-1 $107 forward single #
face $-1 $108 $109 $60 $-1 $110 reversed single #
face $-1 $111 $112 $61 $-1 $113 forward single #
face $-1 $114 $115 $62 $-1 $116 forward single #
face $-1 $117 $118 $63 $-1 $119 reversed single #
face $-1 $120 $121 $64 $-1 $122 forward single #
face $-1 $123 $124 $65 $-1 $125 forward single #
face $-1 $126 $127 $66 $-1 $128 reversed single #
face $-1 $129 $130 $67 $-1 $131 forward single #
face $-1 $132 $133 $68 $-1 $134 forward single #
face $-1 $135 $136 $69 $-1 $137 reversed single #
face $-1 $138 $139 $70 $-1 $140 forward single #
face $-1 $141 $142 $71 $-1 $143 forward single #
face $-1 $144 $145 $54 $-1 $146 reversed single #
loop $-1 $-1 $147 $72 #
plane-surface $-1 0 0 11.003011129586659 0 0 1 1 0 0 forward_v I I I I #
face $-1 $148 $149 $55 $-1 $150 reversed single #
loop $-1 $-1 $151 $73 #
plane-surface $-1 0 -36.680742423065219 -6.5008665506255046 0 0 1 1 0 0 forward_v I I I I #
face $-1 $152 $153 $56 $-1 $154 reversed single #
loop $-1 $-1 $155 $74 #
plane-surface $-1 0 36.680742423065219 -6.5008665506255046 0 0 1 1 0 0 forward_v I I I I #
face $-1 $156 $157 $57 $-1 $158 reversed single #
loop $-1 $-1 $159 $75 #
plane-surface $-1 82.521269065919512 -18.969984506010576 203.3781980262246 0 -1 0 -0.74314483375859142 0 -0.66913059716165679 forward_v I I I I #
face $-1 $160 $161 $58 $-1 $162 forward single #
loop $-1 $163 $164 $76 #
cone-surface $-1 66.609250047926508 -26.347695604826228 5.2479968627372084 -0.74314483375859142 0 -0.66913059716165679 0.66913059716165679 0 -0.74314483375859142 1 I I 0 1 1 forward I I I I #
face $-1 $165 $166 $59 $-1 $167 forward single #
loop $-1 $168 $169 $77 #
cone-surface $-1 66.609250047926508 -21.921068945536838 5.2479968627372084 -0.74314483375859142 0 -0.66913059716165679 0.66913059716165679 0 -0.74314483375859142 1 I I 0 1 1 forward I I I I #
face $-1 $170 $171 $60 $-1 $172 reversed single #
loop $-1 $-1 $173 $78 #
plane-surface $-1 82.521269065919512 -2.91744847523535 203.3781980262246 0 -1 0 -0.74314483375859142 0 -0.66913059716165679 forward_v I I I I #
face $-1 $174 $175 $61 $-1 $176 forward single #
loop $-1 $177 $178 $79 #
cone-surface $-1 66.609250047926508 -10.295159574051006 5.2479968627372084 -0.74314483375859142 0 -0.66913059716165679 0.66913059716165679 0 -0.74314483375859142 1 I I 0 1 1 forward I I I I #
face $-1 $179 $180 $62 $-1 $181 forward single #
loop $-1 $182 $183 $80 #
cone-surface $-1 66.609250047926508 -5.8685329147616088 5.2479968627372084 -0.74314483375859142 0 -0.66913059716165679 0.66913059716165679 0 -0.74314483375859142 1 I I 0 1 1 forward I I I I #
face $-1 $184 $185 $63 $-1 $186 reversed single #
loop $-1 $-1 $187 $81 #
plane-surface $-1 82.521269065919512 13.135087555539872 203.3781980262246 0 -1 0 -0.74314483375859142 0 -0.66913059716165679 forward_v I I I I #
face $-1 $188 $189 $64 $-1 $190 forward single #
loop $-1 $191 $192 $82 #
cone-surface $-1 66.609250047926508 5.7573764567242236 5.2479968627372084 -0.74314483375859142 0 -0.66913059716165679 0.66913059716165679 0 -0.74314483375859142 1 I I 0 1 1 forward I I I I #
face $-1 $193 $194 $65 $-1 $195 forward single #
loop $-1 $196 $197 $83 #
cone-surface $-1 66.609250047926508 10.184003116013621 5.2479968627372084 -0.74314483375859142 0 -0.66913059716165679 0.66913059716165679 0 -0.74314483375859142 1 I I 0 1 1 forward I I I I #
face $-1 $198 $199 $66 $-1 $200 reversed single #
loop $-1 $-1 $201 $84 #
plane-surface $-1 82.521269065919512 29.187623586315102 203.3781980262246 0 -1 0 -0.74314483375859142 0 -0.66913059716165679 forward_v I I I I #
face $-1 $202 $203 $67 $-1 $204 forward single #
loop $-1 $205 $206 $85 #
cone-surface $-1 66.609250047926508 21.809912487499453 5.2479968627372084 -0.74314483375859142 0 -0.66913059716165679 0.66913059716165679 0 -0.74314483375859142 1 I I 0 1 1 forward I I I I #
face $-1 $207 $208 $68 $-1 $209 forward single #
loop $-1 $210 $211 $86 #
cone-surface $-1 66.609250047926508 26.23653914678885 5.2479968627372084 -0.74314483375859142 0 -0.66913059716165679 0.66913059716165679 0 -0.74314483375859142 1 I I 0 1 1 forward I I I I #
face $-1 $212 $213 $69 $-1 $214 reversed single #
loop $-1 $-1 $215 $87 #
plane-surface $-1 -168.07621806840442 18.736107363804816 109.3533965659685 0 1 0 -0.66913061440640931 0 0.74314481823134659 forward_v I I I I #
face $-1 $216 $217 $70 $-1 $218 forward single #
loop $-1 $219 $220 $88 #
cone-surface $-1 -66.046220688621332 22.555811563160717 5.5134920575211428 0.66913061440640931 0 -0.74314481823134659 0.74314481823134659 0 0.66913061440640931 1 I I 0 1 1 forward I I I I #
face $-1 $221 $222 $71 $-1 $223 forward single #
loop $-1 $224 $225 $89 #
cone-surface $-1 -66.046220688621332 28.285367862194555 5.5134920575211428 0.66913061440640931 0 -0.74314481823134659 0.74314481823134659 0 0.66913061440640931 1 I I 0 1 1 forward I I I I #
face $-1 $226 $227 $54 $-1 $228 reversed single #
loop $-1 $-1 $229 $90 #
plane-surface $-1 0 0 -11.003011129586659 0 0 1 1 0 0 forward_v I I I I #
coedge $-1 $230 $231 $232 $233 forward $91 $-1 #
face $-1 $234 $235 $55 $-1 $236 reversed single #
loop $-1 $-1 $237 $93 #
plane-surface $-1 0 -32.105072061550452 -8.7519388401060816 0 -1 0 0 0 -1 forward_v I I I I #
coedge $-1 $238 $239 $240 $241 reversed $94 $-1 #
face $-1 $242 $243 $56 $-1 $244 reversed single #
loop $-1 $-1 $245 $96 #
plane-surface $-1 0 32.105072061550452 -8.7519388401060816 0 1 0 0 0 1 forward_v I I I I #
coedge $-1 $246 $247 $248 $249 reversed $97 $-1 #
face $-1 $250 $251 $57 $-1 $252 reversed single #
loop $-1 $-1 $253 $99 #
plane-surface $-1 -24.314504111257875 -24.134382275181533 107.18283817596101 0.74314483375859142 0 0.66913059716165679 0.66913059716165679 0 -0.74314483375859142 forward_v I I I I #
coedge $-1 $254 $255 $256 $257 reversed $100 $-1 #
face $-1 $-1 $258 $58 $-1 $259 forward single #
loop $-1 $260 $261 $102 #
cone-surface $-1 65.763400316567413 -26.347695604826228 4.4863903627084429 -0.74314483375859142 0 -0.66913059716165679 0.3345652985808284 0 -0.37157241687929571 1 I I -0.70710678118654746 0.70710678118654746 0.5 forward I I I I #
loop $-1 $-1 $262 $76 #
coedge $-1 $164 $164 $263 $264 reversed $103 $-1 #
face $-1 $-1 $265 $59 $-1 $266 forward single #
loop $-1 $267 $268 $105 #
cone-surface $-1 65.763400316567413 -21.921068945536838 4.4863903627084429 -0.74314483375859142 0 -0.66913059716165679 0.3345652985808284 0 -0.37157241687929571 1 I I -0.70710678118654746 0.70710678118654746 0.5 forward I I I I #
loop $-1 $-1 $269 $77 #
coedge $-1 $169 $169 $270 $271 reversed $106 $-1 #
face $-1 $272 $273 $60 $-1 $274 reversed single #
loop $-1 $-1 $275 $108 #
plane-surface $-1 -24.314504111257875 -8.0818462444063073 107.18283817596101 0.74314483375859142 0 0.66913059716165679 0.66913059716165679 0 -0.74314483375859142 forward_v I I I I #
coedge $-1 $276 $277 $278 $279 reversed $109 $-1 #
face $-1 $-1 $280 $61 $-1 $281 forward single #
loop $-1 $282 $283 $111 #
cone-surface $-1 65.763400316567413 -10.295159574051006 4.4863903627084429 -0.74314483375859142 0 -0.66913059716165679 0.3345652985808284 0 -0.37157241687929571 1 I I -0.70710678118654746 0.70710678118654746 0.5 forward I I I I #
loop $-1 $-1 $284 $79 #
coedge $-1 $178 $178 $285 $286 reversed $112 $-1 #
face $-1 $-1 $287 $62 $-1 $288 forward single #
loop $-1 $289 $290 $114 #
cone-surface $-1 65.763400316567413 -5.8685329147616088 4.4863903627084429 -0.74314483375859142 0 -0.66913059716165679 0.3345652985808284 0 -0.37157241687929571 1 I I -0.70710678118654746 0.70710678118654746 0.5 forward I I I I #
loop $-1 $-1 $291 $80 #
coedge $-1 $183 $183 $292 $293 reversed $115 $-1 #
face $-1 $294 $295 $63 $-1 $296 reversed single #
loop $-1 $-1 $297 $117 #
plane-surface $-1 -24.314504111257875 7.970689786368915 107.18283817596101 0.74314483375859142 0 0.66913059716165679 0.66913059716165679 0 -0.74314483375859142 forward_v I I I I #
coedge $-1 $298 $299 $300 $301 reversed $118 $-1 #
face $-1 $-1 $302 $64 $-1 $303 forward single #
loop $-1 $304 $305 $120 #
cone-surface $-1 65.763400316567413 5.7573764567242236 4.4863903627084429 -0.74314483375859142 0 -0.66913059716165679 0.3345652985808284 0 -0.37157241687929571 1 I I -0.70710678118654746 0.70710678118654746 0.5 forward I I I I #
loop $-1 $-1 $306 $82 #
coedge $-1 $192 $192 $307 $308 reversed $121 $-1 #
face $-1 $-1 $309 $65 $-1 $310 forward single #
loop $-1 $311 $312 $123 #
cone-surface $-1 65.763400316567413 10.184003116013621 4.4863903627084429 -0.74314483375859142 0 -0.66913059716165679 0.3345652985808284 0 -0.37157241687929571 1 I I -0.70710678118654746 0.70710678118654746 0.5 forward I I I I #
loop $-1 $-1 $313 $83 #
coedge $-1 $197 $197 $314 $315 reversed $124 $-1 #
face $-1 $316 $317 $66 $-1 $318 reversed single #
loop $-1 $-1 $319 $126 #
plane-surface $-1 -24.314504111257875 24.023225817144144 107.18283817596101 0.74314483375859142 0 0.66913059716165679 0.66913059716165679 0 -0.74314483375859142 forward_v I I I I #
coedge $-1 $320 $321 $322 $323 reversed $127 $-1 #
face $-1 $-1 $324 $67 $-1 $325 forward single #
loop $-1 $326 $327 $129 #
cone-surface $-1 65.763400316567413 21.809912487499453 4.4863903627084429 -0.74314483375859142 0 -0.66913059716165679 0.3345652985808284 0 -0.37157241687929571 1 I I -0.70710678118654746 0.70710678118654746 0.5 forward I I I I #
loop $-1 $-1 $328 $85 #
coedge $-1 $206 $206 $329 $330 reversed $130 $-1 #
face $-1 $-1 $331 $68 $-1 $332 forward single #
loop $-1 $333 $334 $132 #
cone-surface $-1 65.763400316567413 26.23653914678885 4.4863903627084429 -0.74314483375859142 0 -0.66913059716165679 0.3345652985808284 0 -0.37157241687929571 1 I I -0.70710678118654746 0.70710678118654746 0.5 forward I I I I #
loop $-1 $-1 $335 $86 #
coedge $-1 $211 $211 $336 $337 reversed $133 $-1 #
face $-1 $338 $339 $69 $-1 $340 reversed single #
loop $-1 $-1 $341 $135 #
plane-surface $-1 -71.880855739005682 25.420589712677632 2.5176256210144032 -0.66913061440640931 0 0.74314481823134659 0.74314481823134659 0 0.66913061440640931 forward_v I I I I #
coedge $-1 $342 $343 $344 $345 reversed $136 $-1 #
face $-1 $-1 $346 $70 $-1 $347 forward single #
loop $-1 $348 $349 $138 #
cone-surface $-1 -64.589007897904239 22.555811563160717 3.8950933306260751 0.66913061440640931 0 -0.74314481823134659 0.3715724091156733 0 0.33456530720320465 1 I I -0.70710678118654746 0.70710678118654746 0.5 forward I I I I #
loop $-1 $-1 $350 $88 #
coedge $-1 $220 $220 $351 $352 reversed $139 $-1 #
face $-1 $-1 $353 $71 $-1 $354 forward single #
loop $-1 $355 $356 $141 #
cone-surface $-1 -64.589007897904239 28.285367862194555 3.8950933306260751 0.66913061440640931 0 -0.74314481823134659 0.3715724091156733 0 0.33456530720320465 1 I I -0.70710678118654746 0.70710678118654746 0.5 forward I I I I #
loop $-1 $-1 $357 $89 #
coedge $-1 $225 $225 $358 $359 reversed $142 $-1 #
face $-1 $360 $361 $54 $-1 $362 reversed single #
loop $-1 $-1 $363 $144 #
plane-surface $-1 0 -41.256412784579986 0 0 1 0 0 0 1 forward_v I I I I #
coedge $-1 $364 $365 $366 $367 forward $145 $-1 #
coedge $-1 $368 $147 $369 $370 forward $91 $-1 #
coedge $-1 $147 $368 $371 $372 forward $91 $-1 #
coedge $-1 $373 $374 $147 $233 reversed $375 $-1 #
edge $-1 $376 -41.256412784579986 $377 41.256412784579986 $232 $378 forward 7 unknown #
face $-1 $379 $380 $55 $-1 $381 reversed single #
loop $-1 $-1 $382 $148 #
plane-surface $-1 0 0 -11.003011129586659 0 0 1 1 0 0 forward_v I I I I #
coedge $-1 $383 $384 $385 $386 reversed $149 $-1 #
coedge $-1 $387 $151 $384 $388 forward $94 $-1 #
coedge $-1 $151 $387 $389 $390 reversed $94 $-1 #
coedge $-1 $391 $385 $151 $241 forward $380 $-1 #
edge $-1 $392 13.764700850017842 $393 22.916041573047377 $240 $394 forward 7 unknown #
face $-1 $395 $396 $56 $-1 $397 reversed single #
loop $-1 $-1 $248 $152 #
plane-surface $-1 71.88085573900571 0 0 -1 0 0 0 0 1 forward_v I I I I #
coedge $-1 $398 $399 $400 $401 reversed $153 $-1 #
coedge $-1 $402 $155 $403 $404 reversed $97 $-1 #
coedge $-1 $155 $402 $399 $405 forward $97 $-1 #
coedge $-1 $406 $407 $155 $249 forward $243 $-1 #
edge $-1 $408 -22.916041573047377 $409 -13.764700850017842 $248 $410 forward 7 unknown #
face $-1 $411 $412 $57 $-1 $413 forward single #
loop $-1 $-1 $414 $156 #
plane-surface $-1 82.521269065919512 -29.29878004435249 203.3781980262246 0 1 0 0.74314483375859142 0 0.66913059716165679 forward_v I I I I #
coedge $-1 $415 $416 $417 $418 reversed $157 $-1 #
coedge $-1 $255 $159 $419 $420 reversed $100 $-1 #
coedge $-1 $159 $254 $415 $421 reversed $100 $-1 #
coedge $-1 $417 $422 $159 $257 forward $412 $-1 #
edge $-1 $423 -30.620221206045954 $424 -21.025564452847163 $256 $425 forward 7 unknown #
loop $-1 $-1 $263 $160 #
plane-surface $-1 -24.314504111257875 -24.134382275181533 107.18283817596101 0.74314483375859142 0 0.66913059716165679 0.66913059716165679 0 -0.74314483375859142 forward_v I I I I #
loop $-1 $-1 $426 $102 #
coedge $-1 $261 $261 $262 $427 reversed $161 $-1 #
coedge $-1 $262 $262 $261 $427 forward $163 $-1 #
coedge $-1 $263 $263 $164 $264 forward $258 $-1 #
edge $-1 $428 0 $428 6.2831853071796004 $263 $429 forward 7 unknown #
loop $-1 $-1 $270 $165 #
plane-surface $-1 -24.314504111257875 -24.134382275181533 107.18283817596101 0.74314483375859142 0 0.66913059716165679 0.66913059716165679 0 -0.74314483375859142 forward_v I I I I #
loop $-1 $-1 $430 $105 #
coedge $-1 $268 $268 $269 $431 reversed $166 $-1 #
coedge $-1 $269 $269 $268 $431 forward $168 $-1 #
coedge $-1 $270 $270 $169 $271 forward $265 $-1 #
edge $-1 $432 0 $432 6.2831853071796004 $270 $433 forward 7 unknown #
face $-1 $434 $435 $60 $-1 $436 reversed single #
loop $-1 $-1 $437 $170 #
plane-surface $-1 82.521269065919512 -13.246244013577265 203.3781980262246 0 1 0 0.74314483375859142 0 0.66913059716165679 forward_v I I I I #
coedge $-1 $438 $439 $440 $441 reversed $171 $-1 #
coedge $-1 $277 $173 $442 $443 reversed $109 $-1 #
coedge $-1 $173 $276 $438 $444 reversed $109 $-1 #
coedge $-1 $440 $445 $173 $279 forward $446 $-1 #
edge $-1 $447 -30.620221206045954 $448 -21.025564452847163 $278 $449 forward 7 unknown #
loop $-1 $-1 $285 $174 #
plane-surface $-1 -24.314504111257875 -8.0818462444063073 107.18283817596101 0.74314483375859142 0 0.66913059716165679 0.66913059716165679 0 -0.74314483375859142 forward_v I I I I #
loop $-1 $-1 $450 $111 #
coedge $-1 $283 $283 $284 $451 reversed $175 $-1 #
coedge $-1 $284 $284 $283 $451 forward $177 $-1 #
coedge $-1 $285 $285 $178 $286 forward $280 $-1 #
edge $-1 $452 0 $452 6.2831853071796004 $285 $453 forward 7 unknown #
loop $-1 $-1 $292 $179 #
plane-surface $-1 -24.314504111257875 -8.0818462444063073 107.18283817596101 0.74314483375859142 0 0.66913059716165679 0.66913059716165679 0 -0.74314483375859142 forward_v I I I I #
loop $-1 $-1 $454 $114 #
coedge $-1 $290 $290 $291 $455 reversed $180 $-1 #
coedge $-1 $291 $291 $290 $455 forward $182 $-1 #
coedge $-1 $292 $292 $183 $293 forward $287 $-1 #
edge $-1 $456 0 $456 6.2831853071796004 $292 $457 forward 7 unknown #
face $-1 $458 $459 $63 $-1 $460 reversed single #
loop $-1 $-1 $461 $184 #
plane-surface $-1 82.521269065919512 2.8062920171979577 203.3781980262246 0 1 0 0.74314483375859142 0 0.66913059716165679 forward_v I I I I #
coedge $-1 $462 $463 $464 $465 reversed $185 $-1 #
coedge $-1 $299 $187 $466 $467 reversed $118 $-1 #
coedge $-1 $187 $298 $462 $468 reversed $118 $-1 #
coedge $-1 $464 $469 $187 $301 forward $470 $-1 #
edge $-1 $471 -30.620221206045954 $472 -21.025564452847163 $300 $473 forward 7 unknown #
loop $-1 $-1 $307 $188 #
plane-surface $-1 -24.314504111257875 7.970689786368915 107.18283817596101 0.74314483375859142 0 0.66913059716165679 0.66913059716165679 0 -0.74314483375859142 forward_v I I I I #
loop $-1 $-1 $474 $120 #
coedge $-1 $305 $305 $306 $475 reversed $189 $-1 #
coedge $-1 $306 $306 $305 $475 forward $191 $-1 #
coedge $-1 $307 $307 $192 $308 forward $302 $-1 #
edge $-1 $476 0 $476 6.2831853071796004 $307 $477 forward 7 unknown #
loop $-1 $-1 $314 $193 #
plane-surface $-1 -24.314504111257875 7.970689786368915 107.18283817596101 0.74314483375859142 0 0.66913059716165679 0.66913059716165679 0 -0.74314483375859142 forward_v I I I I #
loop $-1 $-1 $478 $123 #
coedge $-1 $312 $312 $313 $479 reversed $194 $-1 #
coedge $-1 $313 $313 $312 $479 forward $196 $-1 #
coedge $-1 $314 $314 $197 $315 forward $309 $-1 #
edge $-1 $480 0 $480 6.2831853071796004 $314 $481 forward 7 unknown #
face $-1 $482 $483 $66 $-1 $484 reversed single #
loop $-1 $-1 $485 $198 #
plane-surface $-1 82.521269065919512 18.858828047973187 203.3781980262246 0 1 0 0.74314483375859142 0 0.66913059716165679 forward_v I I I I #
coedge $-1 $486 $487 $488 $489 reversed $199 $-1 #
coedge $-1 $321 $201 $490 $491 reversed $127 $-1 #
coedge $-1 $201 $320 $486 $492 reversed $127 $-1 #
coedge $-1 $488 $493 $201 $323 forward $494 $-1 #
edge $-1 $495 -30.620221206045954 $496 -21.025564452847163 $322 $497 forward 7 unknown #
loop $-1 $-1 $329 $202 #
plane-surface $-1 -24.314504111257875 24.023225817144144 107.18283817596101 0.74314483375859142 0 0.66913059716165679 0.66913059716165679 0 -0.74314483375859142 forward_v I I I I #
loop $-1 $-1 $498 $129 #
coedge $-1 $327 $327 $328 $499 reversed $203 $-1 #
coedge $-1 $328 $328 $327 $499 forward $205 $-1 #
coedge $-1 $329 $329 $206 $330 forward $324 $-1 #
edge $-1 $500 0 $500 6.2831853071796004 $329 $501 forward 7 unknown #
loop $-1 $-1 $336 $207 #
plane-surface $-1 -24.314504111257875 24.023225817144144 107.18283817596101 0.74314483375859142 0 0.66913059716165679 0.66913059716165679 0 -0.74314483375859142 forward_v I I I I #
loop $-1 $-1 $502 $132 #
coedge $-1 $334 $334 $335 $503 reversed $208 $-1 #
coedge $-1 $335 $335 $334 $503 forward $210 $-1 #
coedge $-1 $336 $336 $211 $337 forward $331 $-1 #
edge $-1 $504 0 $504 6.2831853071796004 $336 $505 forward 7 unknown #
face $-1 $506 $507 $69 $-1 $508 reversed single #
loop $-1 $-1 $509 $212 #
plane-surface $-1 -168.07621806840442 32.105072061550445 109.3533965659685 0 -1 0 0.66913061440640931 0 -0.74314481823134659 forward_v I I I I #
coedge $-1 $510 $511 $512 $513 reversed $213 $-1 #
coedge $-1 $343 $215 $514 $515 reversed $136 $-1 #
coedge $-1 $215 $342 $510 $516 reversed $136 $-1 #
coedge $-1 $512 $517 $215 $345 forward $518 $-1 #
edge $-1 $519 12.157253295196497 $520 21.581228428937514 $344 $521 forward 7 unknown #
loop $-1 $-1 $351 $216 #
plane-surface $-1 -71.880855739005682 25.420589712677632 2.5176256210144032 -0.66913061440640931 0 0.74314481823134659 0.74314481823134659 0 0.66913061440640931 forward_v I I I I #
loop $-1 $-1 $522 $138 #
coedge $-1 $349 $349 $350 $523 reversed $217 $-1 #
coedge $-1 $350 $350 $349 $523 forward $219 $-1 #
coedge $-1 $351 $351 $220 $352 forward $346 $-1 #
edge $-1 $524 0 $524 6.2831853071796004 $351 $525 forward 7 unknown #
loop $-1 $-1 $358 $221 #
plane-surface $-1 -71.880855739005682 25.420589712677632 2.5176256210144032 -0.66913061440640931 0 0.74314481823134659 0.74314481823134659 0 0.66913061440640931 forward_v I I I I #
loop $-1 $-1 $526 $141 #
coedge $-1 $356 $356 $357 $527 reversed $222 $-1 #
coedge $-1 $357 $357 $356 $527 forward $224 $-1 #
coedge $-1 $358 $358 $225 $359 forward $353 $-1 #
edge $-1 $528 0 $528 6.2831853071796004 $358 $529 forward 7 unknown #
face $-1 $530 $531 $54 $-1 $532 reversed single #
loop $-1 $-1 $533 $226 #
plane-surface $-1 -71.88085573900571 0 0 1 0 0 0 0 -1 forward_v I I I I #
coedge $-1 $534 $371 $535 $536 forward $227 $-1 #
coedge $-1 $537 $229 $534 $538 forward $145 $-1 #
coedge $-1 $229 $537 $539 $540 forward $145 $-1 #
coedge $-1 $374 $373 $229 $367 reversed $375 $-1 #
edge $-1 $541 -41.256412784579986 $542 41.256412784579986 $366 $543 forward 7 unknown #
coedge $-1 $231 $230 $544 $545 forward $91 $-1 #
coedge $-1 $546 $547 $230 $370 reversed $531 $-1 #
edge $-1 $377 -71.88085573900571 $548 71.88085573900571 $369 $549 forward 7 unknown #
coedge $-1 $363 $550 $231 $372 reversed $227 $-1 #
edge $-1 $551 -71.88085573900571 $376 71.88085573900571 $371 $552 forward 7 unknown #
coedge $-1 $366 $232 $550 $553 forward $375 $-1 #
coedge $-1 $232 $366 $546 $554 reversed $375 $-1 #
loop $-1 $-1 $373 $530 #
vertex $-1 $233 $555 #
vertex $-1 $233 $556 #
straight-curve $-1 71.88085573900571 0 11.003011129586659 0 1 0 I I #
face $-1 $557 $558 $55 $-1 $559 reversed single #
loop $-1 $-1 $385 $234 #
plane-surface $-1 71.88085573900571 0 0 -1 0 0 0 0 1 forward_v I I I I #
coedge $-1 $560 $561 $383 $562 forward $235 $-1 #
coedge $-1 $563 $237 $382 $562 reversed $149 $-1 #
coedge $-1 $237 $563 $238 $388 reversed $149 $-1 #
coedge $-1 $240 $564 $237 $386 forward $380 $-1 #
edge $-1 $565 -6.6270417095336178 $392 -2.1248971305724638 $385 $566 forward 7 unknown #
coedge $-1 $239 $238 $567 $568 reversed $94 $-1 #
edge $-1 $392 -71.88085573900571 $569 71.88085573900571 $384 $570 forward 7 unknown #
coedge $-1 $571 $572 $239 $390 forward $558 $-1 #
edge $-1 $393 -71.88085573900571 $573 71.88085573900571 $389 $574 forward 7 unknown #
coedge $-1 $564 $240 $572 $575 forward $380 $-1 #
vertex $-1 $241 $576 #
vertex $-1 $575 $577 #
straight-curve $-1 71.88085573900571 -18.340371211532609 -6.5008665506255046 0 -1 0 I I #
face $-1 $578 $579 $56 $-1 $580 reversed single #
loop $-1 $-1 $581 $242 #
plane-surface $-1 0 0 -11.003011129586659 0 0 1 1 0 0 forward_v I I I I #
coedge $-1 $582 $245 $581 $583 reversed $153 $-1 #
coedge $-1 $245 $582 $247 $405 reversed $153 $-1 #
coedge $-1 $584 $585 $245 $401 forward $579 $-1 #
edge $-1 $586 -6.6270417095336178 $587 -2.1248971305724638 $400 $588 forward 7 unknown #
coedge $-1 $247 $246 $584 $589 reversed $97 $-1 #
coedge $-1 $590 $591 $246 $404 forward $592 $-1 #
edge $-1 $593 -71.88085573900571 $408 71.88085573900571 $403 $594 forward 7 unknown #
edge $-1 $587 -71.88085573900571 $409 71.88085573900571 $399 $595 forward 7 unknown #
coedge $-1 $596 $248 $582 $597 forward $243 $-1 #
coedge $-1 $248 $596 $590 $598 reversed $243 $-1 #
vertex $-1 $598 $599 #
vertex $-1 $249 $600 #
straight-curve $-1 71.88085573900571 18.340371211532609 -6.5008665506255046 0 -1 0 I I #
face $-1 $-1 $601 $57 $-1 $602 reversed single #
loop $-1 $-1 $256 $250 #
plane-surface $-1 0 0 11.003011129586659 0 0 1 1 0 0 forward_v I I I I #
coedge $-1 $603 $604 $605 $606 reversed $251 $-1 #
coedge $-1 $607 $253 $255 $421 forward $157 $-1 #
coedge $-1 $253 $607 $603 $608 forward $157 $-1 #
coedge $-1 $605 $256 $253 $418 forward $412 $-1 #
edge $-1 $424 6.9027933684198093 $609 17.231588906761722 $417 $610 forward 7 unknown #
coedge $-1 $611 $612 $254 $420 forward $601 $-1 #
edge $-1 $613 -101.34203401432868 $423 -90.686087883525644 $419 $614 forward 7 unknown #
edge $-1 $424 129.42272175926627 $613 143.76171147801142 $255 $615 forward 7 unknown #
coedge $-1 $256 $605 $611 $616 forward $412 $-1 #
vertex $-1 $420 $617 #
vertex $-1 $257 $618 #
straight-curve $-1 41.260634532959756 -18.969984506010576 11.003011129586653 -1 0 0 I I #
coedge $-1 $426 $426 $-1 $619 reversed $260 $-1 #
edge $-1 $620 0 $620 6.2831853071796004 $261 $621 forward 7 unknown #
vertex $-1 $264 $622 #
ellipse-curve $-1 67.083527362406301 -26.347695604826228 5.6750380641851432 0.74314483375859142 0 0.66913059716165679 0.66913059716165679 0 -0.74314483375859142 1 I I #
coedge $-1 $430 $430 $-1 $623 reversed $267 $-1 #
edge $-1 $624 0 $624 6.2831853071796004 $268 $625 forward 7 unknown #
vertex $-1 $271 $626 #
ellipse-curve $-1 67.083527362406301 -21.921068945536838 5.6750380641851432 0.74314483375859142 0 0.66913059716165679 0.66913059716165679 0 -0.74314483375859142 1 I I #
face $-1 $-1 $446 $60 $-1 $627 forward single #
loop $-1 $-1 $628 $272 #
plane-surface $-1 71.88085573900571 0 0 -1 0 0 0 0 1 forward_v I I I I #
coedge $-1 $629 $630 $631 $632 reversed $273 $-1 #
coedge $-1 $633 $275 $277 $444 forward $171 $-1 #
coedge $-1 $275 $633 $629 $634 forward $171 $-1 #
coedge $-1 $631 $278 $275 $441 forward $446 $-1 #
edge $-1 $448 -1.1234746469678036 $635 9.2053208913741109 $440 $636 forward 7 unknown #
coedge $-1 $637 $638 $276 $443 forward $435 $-1 #
edge $-1 $639 -101.34203401432868 $447 -90.686087883525644 $442 $640 forward 7 unknown #
edge $-1 $448 129.42272175926627 $639 143.76171147801142 $277 $641 forward 7 unknown #
coedge $-1 $278 $631 $637 $642 forward $446 $-1 #
loop $-1 $-1 $631 $434 #
vertex $-1 $443 $643 #
vertex $-1 $279 $644 #
straight-curve $-1 41.260634532959756 -2.91744847523535 11.003011129586653 -1 0 0 I I #
coedge $-1 $450 $450 $-1 $645 reversed $282 $-1 #
edge $-1 $646 0 $646 6.2831853071796004 $283 $647 forward 7 unknown #
vertex $-1 $286 $648 #
ellipse-curve $-1 67.083527362406301 -10.295159574051006 5.6750380641851432 0.74314483375859142 0 0.66913059716165679 0.66913059716165679 0 -0.74314483375859142 1 I I #
coedge $-1 $454 $454 $-1 $649 reversed $289 $-1 #
edge $-1 $650 0 $650 6.2831853071796004 $290 $651 forward 7 unknown #
vertex $-1 $293 $652 #
ellipse-curve $-1 67.083527362406301 -5.8685329147616088 5.6750380641851432 0.74314483375859142 0 0.66913059716165679 0.66913059716165679 0 -0.74314483375859142 1 I I #
face $-1 $-1 $470 $63 $-1 $653 forward single #
loop $-1 $-1 $654 $294 #
plane-surface $-1 71.88085573900571 0 0 -1 0 0 0 0 1 forward_v I I I I #
coedge $-1 $655 $656 $657 $658 reversed $295 $-1 #
coedge $-1 $659 $297 $299 $468 forward $185 $-1 #
coedge $-1 $297 $659 $655 $660 forward $185 $-1 #
coedge $-1 $657 $300 $297 $465 forward $470 $-1 #
edge $-1 $472 -9.1497426623554148 $661 1.1790528759864998 $464 $662 forward 7 unknown #
coedge $-1 $663 $664 $298 $467 forward $459 $-1 #
edge $-1 $665 -101.34203401432868 $471 -90.686087883525644 $466 $666 forward 7 unknown #
edge $-1 $472 129.42272175926627 $665 143.76171147801142 $299 $667 forward 7 unknown #
coedge $-1 $300 $657 $663 $668 forward $470 $-1 #
loop $-1 $-1 $657 $458 #
vertex $-1 $467 $669 #
vertex $-1 $301 $670 #
straight-curve $-1 41.260634532959756 13.135087555539872 11.003011129586653 -1 0 0 I I #
coedge $-1 $474 $474 $-1 $671 reversed $304 $-1 #
edge $-1 $672 0 $672 6.2831853071796004 $305 $673 forward 7 unknown #
vertex $-1 $308 $674 #
ellipse-curve $-1 67.083527362406301 5.7573764567242236 5.6750380641851432 0.74314483375859142 0 0.66913059716165679 0.66913059716165679 0 -0.74314483375859142 1 I I #
coedge $-1 $478 $478 $-1 $675 reversed $311 $-1 #
edge $-1 $676 0 $676 6.2831853071796004 $312 $677 forward 7 unknown #
vertex $-1 $315 $678 #
ellipse-curve $-1 67.083527362406301 10.184003116013621 5.6750380641851432 0.74314483375859142 0 0.66913059716165679 0.66913059716165679 0 -0.74314483375859142 1 I I #
face $-1 $-1 $494 $66 $-1 $679 forward single #
loop $-1 $-1 $680 $316 #
plane-surface $-1 71.88085573900571 0 0 -1 0 0 0 0 1 forward_v I I I I #
coedge $-1 $681 $682 $683 $684 reversed $317 $-1 #
coedge $-1 $685 $319 $321 $492 forward $199 $-1 #
coedge $-1 $319 $685 $681 $686 forward $199 $-1 #
coedge $-1 $683 $322 $319 $489 forward $494 $-1 #
edge $-1 $496 -17.176010677743029 $687 -6.8472151394011149 $488 $688 forward 7 unknown #
coedge $-1 $689 $690 $320 $491 forward $483 $-1 #
edge $-1 $691 -101.34203401432868 $495 -90.686087883525644 $490 $692 forward 7 unknown #
edge $-1 $496 129.42272175926627 $691 143.76171147801142 $321 $693 forward 7 unknown #
coedge $-1 $322 $683 $689 $694 forward $494 $-1 #
loop $-1 $-1 $683 $482 #
vertex $-1 $491 $695 #
vertex $-1 $323 $696 #
straight-curve $-1 41.260634532959756 29.187623586315102 11.003011129586653 -1 0 0 I I #
coedge $-1 $498 $498 $-1 $697 reversed $326 $-1 #
edge $-1 $698 0 $698 6.2831853071796004 $327 $699 forward 7 unknown #
vertex $-1 $330 $700 #
ellipse-curve $-1 67.083527362406301 21.809912487499453 5.6750380641851432 0.74314483375859142 0 0.66913059716165679 0.66913059716165679 0 -0.74314483375859142 1 I I #
coedge $-1 $502 $502 $-1 $701 reversed $333 $-1 #
edge $-1 $702 0 $702 6.2831853071796004 $334 $703 forward 7 unknown #
vertex $-1 $337 $704 #
ellipse-curve $-1 67.083527362406301 26.23653914678885 5.6750380641851432 0.74314483375859142 0 0.66913059716165679 0.66913059716165679 0 -0.74314483375859142 1 I I #
face $-1 $-1 $518 $69 $-1 $705 forward single #
loop $-1 $-1 $706 $338 #
plane-surface $-1 -71.88085573900571 0 0 1 0 0 0 0 -1 forward_v I I I I #
coedge $-1 $707 $708 $709 $710 reversed $339 $-1 #
coedge $-1 $711 $341 $343 $516 forward $213 $-1 #
coedge $-1 $341 $711 $707 $712 forward $213 $-1 #
coedge $-1 $709 $344 $341 $513 forward $518 $-1 #
edge $-1 $520 6.0258125074660001 $713 19.394777205211629 $512 $714 forward 7 unknown #
coedge $-1 $715 $716 $342 $515 forward $507 $-1 #
edge $-1 $717 -52.159072661969873 $519 -43.673687153397587 $514 $718 forward 7 unknown #
edge $-1 $520 -12.681209506606873 $717 3.8356359867099031e-014 $343 $719 forward 7 unknown #
coedge $-1 $344 $709 $715 $720 forward $518 $-1 #
loop $-1 $-1 $709 $506 #
vertex $-1 $515 $721 #
vertex $-1 $345 $722 #
straight-curve $-1 -84.038109034202208 18.736107363804816 11.00301112958666 1 0 0 I I #
coedge $-1 $522 $522 $-1 $723 reversed $348 $-1 #
edge $-1 $724 0 $724 6.2831853071796004 $349 $725 forward 7 unknown #
vertex $-1 $352 $726 #
ellipse-curve $-1 -67.168868172135205 22.555811563160717 6.7603183753005176 -0.66913061440640931 0 0.74314481823134659 0.74314481823134659 0 0.66913061440640931 1 I I #
coedge $-1 $526 $526 $-1 $727 reversed $355 $-1 #
edge $-1 $728 0 $728 6.2831853071796004 $356 $729 forward 7 unknown #
vertex $-1 $359 $730 #
ellipse-curve $-1 -67.168868172135205 28.285367862194555 6.7603183753005176 -0.66913061440640931 0 0.74314481823134659 0.74314481823134659 0 0.66913061440640931 1 I I #
face $-1 $-1 $375 $54 $-1 $731 reversed single #
loop $-1 $-1 $546 $360 #
plane-surface $-1 0 41.256412784579986 0 0 -1 0 0 0 -1 forward_v I I I I #
coedge $-1 $732 $544 $547 $733 forward $361 $-1 #
coedge $-1 $550 $363 $364 $538 reversed $227 $-1 #
coedge $-1 $544 $732 $363 $536 reversed $361 $-1 #
edge $-1 $551 -11.003011129586659 $734 11.003011129586659 $535 $735 forward 7 unknown #
coedge $-1 $365 $364 $732 $736 forward $145 $-1 #
edge $-1 $542 -71.88085573900571 $734 71.88085573900571 $534 $737 forward 7 unknown #
coedge $-1 $547 $546 $365 $540 reversed $531 $-1 #
edge $-1 $738 -71.88085573900571 $541 71.88085573900571 $539 $739 forward 7 unknown #
vertex $-1 $367 $740 #
vertex $-1 $553 $741 #
straight-curve $-1 71.88085573900571 0 -11.003011129586659 0 -1 0 I I #
coedge $-1 $533 $535 $368 $545 reversed $361 $-1 #
edge $-1 $548 -41.256412784579986 $551 41.256412784579986 $544 $742 forward 7 unknown #
coedge $-1 $539 $369 $374 $554 forward $531 $-1 #
coedge $-1 $369 $539 $533 $733 reversed $531 $-1 #
vertex $-1 $370 $743 #
straight-curve $-1 0 41.256412784579986 11.003011129586659 -1 0 0 I I #
coedge $-1 $371 $534 $373 $553 reversed $227 $-1 #
vertex $-1 $545 $744 #
straight-curve $-1 0 -41.256412784579986 11.003011129586659 1 0 0 I I #
edge $-1 $376 -11.003011129586659 $542 11.003011129586659 $373 $745 forward 7 unknown #
edge $-1 $377 -11.003011129586659 $541 11.003011129586659 $374 $746 forward 7 unknown #
point $-1 71.88085573900571 -41.256412784579986 11.003011129586659 #
point $-1 71.88085573900571 41.256412784579986 11.003011129586659 #
face $-1 $-1 $747 $55 $-1 $748 reversed single #
loop $-1 $-1 $389 $379 #
plane-surface $-1 0 -41.256412784579986 0 0 1 0 0 0 1 forward_v I I I I #
coedge $-1 $749 $382 $564 $750 forward $235 $-1 #
coedge $-1 $382 $749 $751 $752 forward $235 $-1 #
edge $-1 $753 -71.88085573900571 $565 71.88085573900571 $382 $754 forward 7 unknown #
coedge $-1 $384 $383 $755 $756 reversed $149 $-1 #
coedge $-1 $385 $391 $560 $750 reversed $380 $-1 #
vertex $-1 $750 $757 #
straight-curve $-1 71.88085573900571 -32.105072061550452 -4.3759694200530408 0 0 1 I I #
coedge $-1 $755 $758 $387 $568 forward $747 $-1 #
edge $-1 $573 -22.916041573047377 $569 -13.764700850017842 $567 $759 forward 7 unknown #
vertex $-1 $568 $760 #
straight-curve $-1 0 -32.105072061550452 -6.5008665506255046 -1 0 0 I I #
coedge $-1 $761 $389 $758 $762 forward $558 $-1 #
coedge $-1 $389 $761 $391 $575 reversed $558 $-1 #
vertex $-1 $762 $763 #
straight-curve $-1 0 -41.256412784579986 -6.5008665506255046 -1 0 0 I I #
edge $-1 $393 6.5008665506255046 $764 11.003011129586659 $391 $765 forward 7 unknown #
point $-1 71.88085573900571 -32.105072061550452 -6.5008665506255046 #
point $-1 71.88085573900571 -41.256412784579986 -6.5008665506255046 #
face $-1 $-1 $592 $56 $-1 $766 reversed single #
loop $-1 $-1 $584 $395 #
plane-surface $-1 -71.88085573900571 0 0 1 0 0 0 0 -1 forward_v I I I I #
coedge $-1 $767 $768 $398 $583 forward $396 $-1 #
coedge $-1 $399 $398 $406 $597 reversed $153 $-1 #
edge $-1 $769 -71.88085573900571 $586 71.88085573900571 $581 $770 forward 7 unknown #
coedge $-1 $771 $400 $402 $589 forward $579 $-1 #
coedge $-1 $400 $771 $767 $772 reversed $579 $-1 #
vertex $-1 $772 $773 #
vertex $-1 $589 $774 #
straight-curve $-1 -71.88085573900571 32.105072061550452 -4.3759694200530408 0 0 1 I I #
edge $-1 $587 13.764700850017842 $593 22.916041573047377 $584 $775 forward 7 unknown #
coedge $-1 $776 $403 $407 $598 forward $592 $-1 #
coedge $-1 $403 $776 $771 $777 reversed $592 $-1 #
loop $-1 $-1 $403 $578 #
vertex $-1 $777 $778 #
straight-curve $-1 0 41.256412784579986 -6.5008665506255046 1 0 0 I I #
straight-curve $-1 0 32.105072061550452 -6.5008665506255046 1 0 0 I I #
coedge $-1 $407 $406 $768 $779 reversed $243 $-1 #
edge $-1 $409 2.1248971305724638 $769 6.6270417095336178 $406 $780 forward 7 unknown #
edge $-1 $408 6.5008665506255046 $781 11.003011129586659 $407 $782 forward 7 unknown #
point $-1 71.88085573900571 41.256412784579986 -6.5008665506255046 #
point $-1 71.88085573900571 32.105072061550452 -6.5008665506255046 #
loop $-1 $-1 $419 $411 #
plane-surface $-1 71.88085573900571 0 0 -1 0 0 0 0 1 forward_v I I I I #
coedge $-1 $604 $414 $416 $608 reversed $251 $-1 #
coedge $-1 $414 $603 $783 $784 reversed $251 $-1 #
coedge $-1 $422 $417 $414 $606 forward $412 $-1 #
edge $-1 $609 21.025564452847163 $785 30.620221206045954 $605 $786 forward 7 unknown #
coedge $-1 $416 $415 $612 $787 reversed $157 $-1 #
edge $-1 $788 -143.76171147801142 $609 -129.42272175926627 $603 $789 forward 7 unknown #
vertex $-1 $418 $790 #
straight-curve $-1 62.286198985806905 -12.067191137590767 11.00301112958666 0 -1 0 I I #
coedge $-1 $783 $419 $422 $616 reversed $601 $-1 #
coedge $-1 $419 $783 $607 $787 forward $601 $-1 #
vertex $-1 $420 $791 #
straight-curve $-1 71.88085573900571 -18.969984506010576 101.6890990131123 0 0 1 I I #
straight-curve $-1 -24.314504111257875 -18.969984506010576 107.18283817596101 0.66913059716165679 0 -0.74314483375859142 I I #
edge $-1 $785 -29.29878004435249 $423 -18.969984506010576 $611 $792 forward 7 unknown #
point $-1 71.88085573900571 -18.969984506010576 11.003011129586659 #
point $-1 62.286198985806919 -18.969984506010576 11.003011129586653 #
edge $-1 $793 1 $793 0 $426 $-1 forward 7 unknown #
vertex $-1 $427 $794 #
ellipse-curve $-1 66.134972733446702 -26.347695604826228 4.820955661289271 0.74314483375859142 0 0.66913059716165679 0.66913059716165679 0 -0.74314483375859142 1 I I #
point $-1 67.752657959567969 -26.347695604826228 4.9318932304265539 #
edge $-1 $795 1 $795 0 $430 $-1 forward 7 unknown #
vertex $-1 $431 $796 #
ellipse-curve $-1 66.134972733446702 -21.921068945536838 4.820955661289271 0.74314483375859142 0 0.66913059716165679 0.66913059716165679 0 -0.74314483375859142 1 I I #
point $-1 67.752657959567969 -21.921068945536838 4.9318932304265539 #
plane-surface $-1 0 0 11.003011129586659 0 0 1 1 0 0 forward_v I I I I #
coedge $-1 $638 $637 $630 $797 forward $435 $-1 #
coedge $-1 $630 $437 $439 $634 reversed $273 $-1 #
coedge $-1 $437 $629 $628 $797 reversed $273 $-1 #
coedge $-1 $445 $440 $437 $632 forward $446 $-1 #
edge $-1 $635 21.025564452847163 $798 30.620221206045954 $631 $799 forward 7 unknown #
coedge $-1 $439 $438 $638 $800 reversed $171 $-1 #
edge $-1 $801 -143.76171147801142 $635 -129.42272175926627 $629 $802 forward 7 unknown #
vertex $-1 $441 $803 #
straight-curve $-1 62.286198985806905 -4.0409231222031536 11.00301112958666 0 -1 0 I I #
coedge $-1 $628 $442 $445 $642 reversed $435 $-1 #
coedge $-1 $442 $628 $633 $800 forward $435 $-1 #
vertex $-1 $443 $804 #
straight-curve $-1 71.88085573900571 -2.91744847523535 101.6890990131123 0 0 1 I I #
straight-curve $-1 -24.314504111257875 -2.91744847523535 107.18283817596101 0.66913059716165679 0 -0.74314483375859142 I I #
edge $-1 $798 -13.246244013577265 $447 -2.91744847523535 $637 $805 forward 7 unknown #
point $-1 71.88085573900571 -2.91744847523535 11.003011129586659 #
point $-1 62.286198985806919 -2.91744847523535 11.003011129586653 #
edge $-1 $806 1 $806 0 $450 $-1 forward 7 unknown #
vertex $-1 $451 $807 #
ellipse-curve $-1 66.134972733446702 -10.295159574051006 4.820955661289271 0.74314483375859142 0 0.66913059716165679 0.66913059716165679 0 -0.74314483375859142 1 I I #
point $-1 67.752657959567969 -10.295159574051006 4.9318932304265539 #
edge $-1 $808 1 $808 0 $454 $-1 forward 7 unknown #
vertex $-1 $455 $809 #
ellipse-curve $-1 66.134972733446702 -5.8685329147616088 4.820955661289271 0.74314483375859142 0 0.66913059716165679 0.66913059716165679 0 -0.74314483375859142 1 I I #
point $-1 67.752657959567969 -5.8685329147616088 4.9318932304265539 #
plane-surface $-1 0 0 11.003011129586659 0 0 1 1 0 0 forward_v I I I I #
coedge $-1 $664 $663 $656 $810 forward $459 $-1 #
coedge $-1 $656 $461 $463 $660 reversed $295 $-1 #
coedge $-1 $461 $655 $654 $810 reversed $295 $-1 #
coedge $-1 $469 $464 $461 $658 forward $470 $-1 #
edge $-1 $661 21.025564452847163 $811 30.620221206045954 $657 $812 forward 7 unknown #
coedge $-1 $463 $462 $664 $813 reversed $185 $-1 #
edge $-1 $814 -143.76171147801142 $661 -129.42272175926627 $655 $815 forward 7 unknown #
vertex $-1 $465 $816 #
straight-curve $-1 62.286198985806905 3.9853448931844575 11.00301112958666 0 -1 0 I I #
coedge $-1 $654 $466 $469 $668 reversed $459 $-1 #
coedge $-1 $466 $654 $659 $813 forward $459 $-1 #
vertex $-1 $467 $817 #
straight-curve $-1 71.88085573900571 13.135087555539872 101.6890990131123 0 0 1 I I #
straight-curve $-1 -24.314504111257875 13.135087555539872 107.18283817596101 0.66913059716165679 0 -0.74314483375859142 I I #
edge $-1 $811 2.8062920171979577 $471 13.135087555539872 $663 $818 forward 7 unknown #
point $-1 71.88085573900571 13.135087555539872 11.003011129586659 #
point $-1 62.286198985806919 13.135087555539872 11.003011129586653 #
edge $-1 $819 1 $819 0 $474 $-1 forward 7 unknown #
vertex $-1 $475 $820 #
ellipse-curve $-1 66.134972733446702 5.7573764567242236 4.820955661289271 0.74314483375859142 0 0.66913059716165679 0.66913059716165679 0 -0.74314483375859142 1 I I #
point $-1 67.752657959567969 5.7573764567242236 4.9318932304265539 #
edge $-1 $821 1 $821 0 $478 $-1 forward 7 unknown #
vertex $-1 $479 $822 #
ellipse-curve $-1 66.134972733446702 10.184003116013621 4.820955661289271 0.74314483375859142 0 0.66913059716165679 0.66913059716165679 0 -0.74314483375859142 1 I I #
point $-1 67.752657959567969 10.184003116013621 4.9318932304265539 #
plane-surface $-1 0 0 11.003011129586659 0 0 1 1 0 0 forward_v I I I I #
coedge $-1 $690 $689 $682 $823 forward $483 $-1 #
coedge $-1 $682 $485 $487 $686 reversed $317 $-1 #
coedge $-1 $485 $681 $680 $823 reversed $317 $-1 #
coedge $-1 $493 $488 $485 $684 forward $494 $-1 #
edge $-1 $687 21.025564452847163 $824 30.620221206045954 $683 $825 forward 7 unknown #
coedge $-1 $487 $486 $690 $826 reversed $199 $-1 #
edge $-1 $827 -143.76171147801142 $687 -129.42272175926627 $681 $828 forward 7 unknown #
vertex $-1 $489 $829 #
straight-curve $-1 62.286198985806905 12.011612908572072 11.00301112958666 0 -1 0 I I #
coedge $-1 $680 $490 $493 $694 reversed $483 $-1 #
coedge $-1 $490 $680 $685 $826 forward $483 $-1 #
vertex $-1 $491 $830 #
straight-curve $-1 71.88085573900571 29.187623586315102 101.6890990131123 0 0 1 I I #
straight-curve $-1 -24.314504111257875 29.187623586315102 107.18283817596101 0.66913059716165679 0 -0.74314483375859142 I I #
edge $-1 $824 18.858828047973187 $495 29.187623586315102 $689 $831 forward 7 unknown #
point $-1 71.88085573900571 29.187623586315102 11.003011129586659 #
point $-1 62.286198985806919 29.187623586315102 11.003011129586653 #
edge $-1 $832 1 $832 0 $498 $-1 forward 7 unknown #
vertex $-1 $499 $833 #
ellipse-curve $-1 66.134972733446702 21.809912487499453 4.820955661289271 0.74314483375859142 0 0.66913059716165679 0.66913059716165679 0 -0.74314483375859142 1 I I #
point $-1 67.752657959567969 21.809912487499453 4.9318932304265539 #
edge $-1 $834 1 $834 0 $502 $-1 forward 7 unknown #
vertex $-1 $503 $835 #
ellipse-curve $-1 66.134972733446702 26.23653914678885 4.820955661289271 0.74314483375859142 0 0.66913059716165679 0.66913059716165679 0 -0.74314483375859142 1 I I #
point $-1 67.752657959567969 26.23653914678885 4.9318932304265539 #
plane-surface $-1 0 0 11.003011129586659 0 0 1 1 0 0 forward_v I I I I #
coedge $-1 $716 $715 $708 $836 forward $507 $-1 #
coedge $-1 $708 $509 $511 $712 reversed $339 $-1 #
coedge $-1 $509 $707 $706 $836 reversed $339 $-1 #
coedge $-1 $517 $512 $509 $710 forward $518 $-1 #
edge $-1 $713 -21.581228428937514 $837 -12.157253295196497 $709 $838 forward 7 unknown #
coedge $-1 $511 $510 $716 $839 reversed $213 $-1 #
edge $-1 $840 -3.8356359867099031e-014 $713 12.681209506606873 $707 $841 forward 7 unknown #
vertex $-1 $513 $842 #
straight-curve $-1 -62.456880605264693 12.710294856338816 11.003011129586659 0 1 0 I I #
coedge $-1 $706 $514 $517 $720 reversed $507 $-1 #
coedge $-1 $514 $706 $711 $839 forward $507 $-1 #
vertex $-1 $515 $843 #
straight-curve $-1 -71.88085573900571 18.736107363804816 54.676698282984248 0 0 1 I I #
straight-curve $-1 -71.880855739005682 18.736107363804816 2.5176256210144032 -0.74314481823134659 0 -0.66913061440640931 I I #
edge $-1 $837 -32.105072061550445 $519 -18.736107363804816 $715 $844 forward 7 unknown #
point $-1 -71.88085573900571 18.736107363804816 11.003011129586659 #
point $-1 -62.456880605264693 18.736107363804816 11.003011129586659 #
edge $-1 $845 1 $845 0 $522 $-1 forward 7 unknown #
vertex $-1 $523 $846 #
ellipse-curve $-1 -64.923573205107445 22.555811563160717 4.2666657397417485 -0.66913061440640931 0 0.74314481823134659 0.74314481823134659 0 0.66913061440640931 1 I I #
point $-1 -66.425723353903877 22.555811563160717 7.4294489897069456 #
edge $-1 $847 1 $847 0 $526 $-1 forward 7 unknown #
vertex $-1 $527 $848 #
ellipse-curve $-1 -64.923573205107445 28.285367862194555 4.2666657397417485 -0.66913061440640931 0 0.74314481823134659 0.74314481823134659 0 0.66913061440640931 1 I I #
point $-1 -66.425723353903877 28.285367862194555 7.4294489897069456 #
plane-surface $-1 71.88085573900571 0 0 -1 0 0 0 0 1 forward_v I I I I #
coedge $-1 $535 $533 $537 $736 reversed $361 $-1 #
edge $-1 $548 -11.003011129586659 $738 11.003011129586659 $547 $849 forward 7 unknown #
vertex $-1 $736 $850 #
straight-curve $-1 -71.88085573900571 -41.256412784579986 0 0 0 -1 I I #
edge $-1 $734 -41.256412784579986 $738 41.256412784579986 $732 $851 forward 7 unknown #
straight-curve $-1 0 -41.256412784579986 -11.003011129586659 -1 0 0 I I #
vertex $-1 $540 $852 #
straight-curve $-1 0 41.256412784579986 -11.003011129586659 1 0 0 I I #
point $-1 71.88085573900571 41.256412784579986 -11.003011129586659 #
point $-1 71.88085573900571 -41.256412784579986 -11.003011129586659 #
straight-curve $-1 -71.88085573900571 0 11.003011129586659 0 -1 0 I I #
point $-1 -71.88085573900571 41.256412784579986 11.003011129586659 #
point $-1 -71.88085573900571 -41.256412784579986 11.003011129586659 #
straight-curve $-1 71.88085573900571 -41.256412784579986 0 0 0 -1 I I #
straight-curve $-1 71.88085573900571 41.256412784579986 0 0 0 -1 I I #
loop $-1 $-1 $755 $557 #
plane-surface $-1 -71.88085573900571 0 0 1 0 0 0 0 -1 forward_v I I I I #
coedge $-1 $561 $560 $761 $853 forward $235 $-1 #
edge $-1 $565 32.105072061550452 $764 41.256412784579986 $564 $854 forward 7 unknown #
coedge $-1 $758 $755 $561 $752 reversed $747 $-1 #
edge $-1 $855 -41.256412784579986 $753 -32.105072061550452 $751 $856 forward 7 unknown #
vertex $-1 $756 $857 #
straight-curve $-1 0 -32.105072061550452 -11.003011129586659 1 0 0 I I #
coedge $-1 $751 $567 $563 $756 forward $747 $-1 #
edge $-1 $569 2.1248971305724638 $753 6.6270417095336178 $755 $858 forward 7 unknown #
point $-1 71.88085573900571 -32.105072061550452 -11.003011129586659 #
coedge $-1 $567 $751 $571 $762 reversed $747 $-1 #
straight-curve $-1 -71.88085573900571 -18.340371211532609 -6.5008665506255046 0 1 0 I I #
point $-1 -71.88085573900571 -32.105072061550452 -6.5008665506255046 #
coedge $-1 $572 $571 $749 $853 reversed $558 $-1 #
edge $-1 $573 6.5008665506255046 $855 11.003011129586659 $758 $859 forward 7 unknown #
point $-1 -71.88085573900571 -41.256412784579986 -6.5008665506255046 #
vertex $-1 $575 $860 #
straight-curve $-1 71.88085573900571 -41.256412784579986 0 0 0 -1 I I #
plane-surface $-1 0 41.256412784579986 0 0 -1 0 0 0 -1 forward_v I I I I #
coedge $-1 $861 $581 $585 $772 forward $396 $-1 #
coedge $-1 $581 $861 $596 $779 forward $396 $-1 #
vertex $-1 $583 $862 #
straight-curve $-1 0 32.105072061550452 -11.003011129586659 -1 0 0 I I #
coedge $-1 $585 $584 $591 $777 forward $579 $-1 #
edge $-1 $586 32.105072061550452 $863 41.256412784579986 $585 $864 forward 7 unknown #
point $-1 -71.88085573900571 32.105072061550452 -11.003011129586659 #
point $-1 -71.88085573900571 32.105072061550452 -6.5008665506255046 #
straight-curve $-1 -71.88085573900571 18.340371211532609 -6.5008665506255046 0 1 0 I I #
coedge $-1 $591 $590 $861 $865 reversed $592 $-1 #
edge $-1 $593 6.5008665506255046 $863 11.003011129586659 $591 $866 forward 7 unknown #
point $-1 -71.88085573900571 41.256412784579986 -6.5008665506255046 #
edge $-1 $781 -41.256412784579986 $769 -32.105072061550452 $596 $867 forward 7 unknown #
straight-curve $-1 71.88085573900571 32.105072061550452 -4.3759694200530408 0 0 -1 I I #
vertex $-1 $779 $868 #
straight-curve $-1 71.88085573900571 41.256412784579986 0 0 0 -1 I I #
coedge $-1 $612 $611 $604 $784 forward $601 $-1 #
edge $-1 $785 90.686087883525644 $788 101.34203401432868 $783 $869 forward 7 unknown #
vertex $-1 $616 $870 #
straight-curve $-1 41.260634532959756 -29.29878004435249 11.003011129586653 1 0 0 I I #
edge $-1 $788 -17.231588906761722 $613 -6.9027933684198093 $612 $871 forward 7 unknown #
vertex $-1 $787 $872 #
straight-curve $-1 -24.314504111257875 -29.29878004435249 107.18283817596101 -0.66913059716165679 0 0.74314483375859142 I I #
point $-1 62.286198985806919 -29.29878004435249 11.003011129586653 #
point $-1 71.88085573900571 -18.969984506010576 0.34706499878362251 #
straight-curve $-1 71.88085573900571 0 11.003011129586659 0 1 0 I I #
vertex $-1 $619 $873 #
point $-1 66.80410333060837 -26.347695604826228 4.0778108275306799 #
vertex $-1 $623 $874 #
point $-1 66.80410333060837 -21.921068945536838 4.0778108275306799 #
edge $-1 $798 90.686087883525644 $801 101.34203401432868 $628 $875 forward 7 unknown #
vertex $-1 $642 $876 #
straight-curve $-1 41.260634532959756 -13.246244013577265 11.003011129586653 1 0 0 I I #
edge $-1 $801 -9.2053208913741109 $639 1.1234746469678036 $638 $877 forward 7 unknown #
vertex $-1 $800 $878 #
straight-curve $-1 -24.314504111257875 -13.246244013577265 107.18283817596101 -0.66913059716165679 0 0.74314483375859142 I I #
point $-1 62.286198985806919 -13.246244013577265 11.003011129586653 #
point $-1 71.88085573900571 -2.91744847523535 0.34706499878362251 #
straight-curve $-1 71.88085573900571 0 11.003011129586659 0 1 0 I I #
vertex $-1 $645 $879 #
point $-1 66.80410333060837 -10.295159574051006 4.0778108275306799 #
vertex $-1 $649 $880 #
point $-1 66.80410333060837 -5.8685329147616088 4.0778108275306799 #
edge $-1 $811 90.686087883525644 $814 101.34203401432868 $654 $881 forward 7 unknown #
vertex $-1 $668 $882 #
straight-curve $-1 41.260634532959756 2.8062920171979577 11.003011129586653 1 0 0 I I #
edge $-1 $814 -1.1790528759864998 $665 9.1497426623554148 $664 $883 forward 7 unknown #
vertex $-1 $813 $884 #
straight-curve $-1 -24.314504111257875 2.8062920171979577 107.18283817596101 -0.66913059716165679 0 0.74314483375859142 I I #
point $-1 62.286198985806919 2.8062920171979577 11.003011129586653 #
point $-1 71.88085573900571 13.135087555539872 0.34706499878362251 #
straight-curve $-1 71.88085573900571 0 11.003011129586659 0 1 0 I I #
vertex $-1 $671 $885 #
point $-1 66.80410333060837 5.7573764567242236 4.0778108275306799 #
vertex $-1 $675 $886 #
point $-1 66.80410333060837 10.184003116013621 4.0778108275306799 #
edge $-1 $824 90.686087883525644 $827 101.34203401432868 $680 $887 forward 7 unknown #
vertex $-1 $694 $888 #
straight-curve $-1 41.260634532959756 18.858828047973187 11.003011129586653 1 0 0 I I #
edge $-1 $827 6.8472151394011149 $691 17.176010677743029 $690 $889 forward 7 unknown #
vertex $-1 $826 $890 #
straight-curve $-1 -24.314504111257875 18.858828047973187 107.18283817596101 -0.66913059716165679 0 0.74314483375859142 I I #
point $-1 62.286198985806919 18.858828047973187 11.003011129586653 #
point $-1 71.88085573900571 29.187623586315102 0.34706499878362251 #
straight-curve $-1 71.88085573900571 0 11.003011129586659 0 1 0 I I #
vertex $-1 $697 $891 #
point $-1 66.80410333060837 21.809912487499453 4.0778108275306799 #
vertex $-1 $701 $892 #
point $-1 66.80410333060837 26.23653914678885 4.0778108275306799 #
edge $-1 $837 43.673687153397587 $840 52.159072661969873 $706 $893 forward 7 unknown #
vertex $-1 $720 $894 #
straight-curve $-1 -84.038109034202208 32.105072061550445 11.00301112958666 -1 0 0 I I #
edge $-1 $840 -19.394777205211629 $717 -6.0258125074660001 $716 $895 forward 7 unknown #
vertex $-1 $839 $896 #
straight-curve $-1 -71.880855739005682 32.105072061550445 2.5176256210144032 0.74314481823134659 0 0.66913061440640931 I I #
point $-1 -62.456880605264693 32.105072061550445 11.003011129586659 #
point $-1 -71.88085573900571 18.736107363804816 2.5176256210143775 #
straight-curve $-1 -71.88085573900571 0 11.003011129586659 0 -1 0 I I #
vertex $-1 $723 $897 #
point $-1 -64.180428386876102 22.555811563160717 4.9357963541481578 #
vertex $-1 $727 $898 #
point $-1 -64.180428386876102 28.285367862194555 4.9357963541481578 #
straight-curve $-1 -71.88085573900571 41.256412784579986 0 0 0 -1 I I #
point $-1 -71.88085573900571 -41.256412784579986 -11.003011129586659 #
straight-curve $-1 -71.88085573900571 0 -11.003011129586659 0 1 0 I I #
point $-1 -71.88085573900571 41.256412784579986 -11.003011129586659 #
edge $-1 $764 -71.88085573900571 $855 71.88085573900571 $761 $899 forward 7 unknown #
straight-curve $-1 71.88085573900571 0 -11.003011129586659 0 -1 0 I I #
vertex $-1 $752 $900 #
straight-curve $-1 -71.88085573900571 0 -11.003011129586659 0 1 0 I I #
point $-1 -71.88085573900571 -32.105072061550452 -11.003011129586659 #
straight-curve $-1 -71.88085573900571 -32.105072061550452 -4.3759694200530408 0 0 -1 I I #
straight-curve $-1 -71.88085573900571 -41.256412784579986 0 0 0 -1 I I #
point $-1 71.88085573900571 -41.256412784579986 -11.003011129586659 #
coedge $-1 $768 $767 $776 $865 forward $396 $-1 #
point $-1 71.88085573900571 32.105072061550452 -11.003011129586659 #
vertex $-1 $865 $901 #
straight-curve $-1 -71.88085573900571 0 -11.003011129586659 0 1 0 I I #
edge $-1 $863 -71.88085573900571 $781 71.88085573900571 $776 $902 forward 7 unknown #
straight-curve $-1 -71.88085573900571 41.256412784579986 0 0 0 -1 I I #
straight-curve $-1 71.88085573900571 0 -11.003011129586659 0 -1 0 I I #
point $-1 71.88085573900571 41.256412784579986 -11.003011129586659 #
straight-curve $-1 71.88085573900571 -29.29878004435249 101.6890990131123 0 0 -1 I I #
point $-1 71.88085573900571 -29.29878004435249 11.003011129586659 #
straight-curve $-1 71.88085573900571 -12.067191137590767 0.34706499878364383 0 1 0 I I #
point $-1 71.88085573900571 -29.29878004435249 0.34706499878362251 #
point $-1 65.391827899688124 -26.347695604826228 4.1518250641276149 #
point $-1 65.391827899688124 -21.921068945536838 4.1518250641276149 #
straight-curve $-1 71.88085573900571 -13.246244013577265 101.6890990131123 0 0 -1 I I #
point $-1 71.88085573900571 -13.246244013577265 11.003011129586659 #
straight-curve $-1 71.88085573900571 -4.0409231222031536 0.34706499878364383 0 1 0 I I #
point $-1 71.88085573900571 -13.246244013577265 0.34706499878362251 #
point $-1 65.391827899688124 -10.295159574051006 4.1518250641276149 #
point $-1 65.391827899688124 -5.8685329147616088 4.1518250641276149 #
straight-curve $-1 71.88085573900571 2.8062920171979577 101.6890990131123 0 0 -1 I I #
point $-1 71.88085573900571 2.8062920171979577 11.003011129586659 #
straight-curve $-1 71.88085573900571 3.9853448931844575 0.34706499878364383 0 1 0 I I #
point $-1 71.88085573900571 2.8062920171979577 0.34706499878362251 #
point $-1 65.391827899688124 5.7573764567242236 4.1518250641276149 #
point $-1 65.391827899688124 10.184003116013621 4.1518250641276149 #
straight-curve $-1 71.88085573900571 18.858828047973187 101.6890990131123 0 0 -1 I I #
point $-1 71.88085573900571 18.858828047973187 11.003011129586659 #
straight-curve $-1 71.88085573900571 12.011612908572072 0.34706499878364383 0 1 0 I I #
point $-1 71.88085573900571 18.858828047973187 0.34706499878362251 #
point $-1 65.391827899688124 21.809912487499453 4.1518250641276149 #
point $-1 65.391827899688124 26.23653914678885 4.1518250641276149 #
straight-curve $-1 -71.88085573900571 32.105072061550445 54.676698282984248 0 0 -1 I I #
point $-1 -71.88085573900571 32.105072061550445 11.003011129586659 #
straight-curve $-1 -71.88085573900571 12.710294856338816 2.5176256210143828 0 -1 0 I I #
point $-1 -71.88085573900571 32.105072061550445 2.5176256210143775 #
point $-1 -64.254442590701032 22.555811563160717 3.5235209215104017 #
point $-1 -64.254442590701032 28.285367862194555 3.5235209215104017 #
straight-curve $-1 0 -41.256412784579986 -11.003011129586659 -1 0 0 I I #
point $-1 -71.88085573900571 -41.256412784579986 -11.003011129586659 #
point $-1 -71.88085573900571 41.256412784579986 -11.003011129586659 #
straight-curve $-1 0 41.256412784579986 -11.003011129586659 1 0 0 I I #
End-of-ACIS-data 