500 0 5 0           
7 Unknown 11 ACIS 5.0 NT 24 Thu Mar 25 22:28:46 1999 
-1 9.9999999999999995e-007 1e-010 
body $-1 $5 $-1 $6 #
body $-1 $7 $-1 $8 #
body $-1 $9 $-1 $10 #
body $-1 $11 $-1 $12 #
body $-1 $13 $-1 $14 #
lump $-1 $-1 $15 $0 #
transform $-1 1 0 0 0 1 0 0 0 1 76.286507766960653 48.489787565756693 12.298621372157681 1 rotate no_reflect no_shear #
lump $-1 $-1 $16 $1 #
transform $-1 1 0 0 0 1 0 0 0 1 76.286507766960653 48.489787565756693 12.298621372157681 1 rotate no_reflect no_shear #
lump $-1 $-1 $17 $2 #
transform $-1 1 0 0 0 1 0 0 0 1 76.286507766960653 48.489787565756693 12.298621372157681 1 rotate no_reflect no_shear #
lump $-1 $-1 $18 $3 #
transform $-1 1 0 0 0 1 0 0 0 1 76.286507766960653 48.489787565756693 12.298621372157681 1 rotate no_reflect no_shear #
lump $-1 $-1 $19 $4 #
transform $-1 1 0 0 0 1 0 0 0 1 76.286507766960653 48.489787565756693 12.298621372157681 1 rotate no_reflect no_shear #
shell $-1 $-1 $-1 $20 $-1 $5 #
shell $-1 $-1 $-1 $21 $-1 $7 #
shell $-1 $-1 $-1 $22 $-1 $9 #
shell $-1 $-1 $-1 $23 $-1 $11 #
shell $-1 $-1 $-1 $24 $-1 $13 #
face $-1 $25 $26 $15 $-1 $27 forward single #
face $-1 $28 $29 $16 $-1 $30 forward single #
face $-1 $31 $32 $17 $-1 $33 reversed single #
face $-1 $34 $35 $18 $-1 $36 reversed single #
face $-1 $37 $38 $19 $-1 $39 reversed single #
face $-1 $40 $41 $15 $-1 $42 reversed single #
loop $-1 $-1 $43 $20 #
plane-surface $-1 0 0 12.298621372157681 0 0 1 1 0 0 forward_v I I I I #
face $-1 $44 $45 $16 $-1 $46 forward single #
loop $-1 $-1 $47 $21 #
plane-surface $-1 -52.756152594582659 109.0123784987758 171.74508120681 1 0 0 0 -0.78801076186113728 -0.61566146476048833 forward_v I I I I #
face $-1 $48 $49 $17 $-1 $50 reversed single #
loop $-1 $51 $52 $22 #
cone-surface $-1 -45.906081911499896 41.596243738301105 4.7879916458644907 0 -0.78801076186113728 -0.61566146476048833 2.5 0 0 1 I I 0 1 2.5 forward I I I I #
face $-1 $53 $54 $18 $-1 $55 reversed single #
loop $-1 $56 $57 $23 #
cone-surface $-1 -35.630975886875746 41.596243738301105 4.7879916458644907 0 -0.78801076186113728 -0.61566146476048833 2.5 0 0 1 I I 0 1 2.5 forward I I I I #
face $-1 $58 $59 $19 $-1 $60 reversed single #
loop $-1 $61 $62 $24 #
cone-surface $-1 -25.355869862251595 41.596243738301105 4.7879916458644907 0 -0.78801076186113728 -0.61566146476048833 2.5 0 0 1 I I 0 1 2.5 forward I I I I #
face $-1 $63 $64 $15 $-1 $65 reversed single #
loop $-1 $-1 $66 $25 #
plane-surface $-1 0 0 -12.298621372157681 0 0 1 1 0 0 forward_v I I I I #
coedge $-1 $67 $68 $69 $70 forward $26 $-1 #
face $-1 $71 $72 $16 $-1 $73 forward single #
loop $-1 $-1 $74 $28 #
plane-surface $-1 -35.630975886875746 -11.216799711560654 77.811754980271274 0 0.78801076186113728 0.61566146476048833 1 0 0 forward_v I I I I #
coedge $-1 $75 $76 $77 $78 reversed $29 $-1 #
face $-1 $79 $80 $17 $-1 $81 forward single #
loop $-1 $82 $83 $31 #
cone-surface $-1 -45.906081911499896 37.978745986720035 1.9616927267405391 0 -0.78801076186113728 -0.61566146476048833 1.25 0 0 1 I I -0.70710678118654746 0.70710678118654746 1.25 forward I I I I #
loop $-1 $-1 $84 $22 #
coedge $-1 $52 $52 $85 $86 reversed $32 $-1 #
face $-1 $87 $88 $18 $-1 $89 reversed single #
loop $-1 $90 $91 $34 #
cone-surface $-1 -35.630975886875746 37.978745986720035 1.9616927267405391 0 -0.78801076186113728 -0.61566146476048833 1.25 0 0 1 I I -0.70710678118654746 0.70710678118654746 1.25 forward I I I I #
loop $-1 $-1 $92 $23 #
coedge $-1 $57 $57 $93 $94 reversed $35 $-1 #
face $-1 $95 $96 $19 $-1 $97 reversed single #
loop $-1 $98 $99 $37 #
cone-surface $-1 -25.355869862251595 37.978745986720035 1.9616927267405391 0 -0.78801076186113728 -0.61566146476048833 1.25 0 0 1 I I -0.70710678118654746 0.70710678118654746 1.25 forward I I I I #
loop $-1 $-1 $100 $24 #
coedge $-1 $62 $62 $101 $102 reversed $38 $-1 #
face $-1 $103 $104 $15 $-1 $105 reversed single #
loop $-1 $-1 $106 $40 #
plane-surface $-1 0 -48.489787565756693 0 0 1 0 0 0 1 forward_v I I I I #
coedge $-1 $107 $108 $109 $110 forward $41 $-1 #
coedge $-1 $111 $43 $112 $113 forward $26 $-1 #
coedge $-1 $43 $111 $114 $115 forward $26 $-1 #
coedge $-1 $116 $117 $43 $70 reversed $118 $-1 #
edge $-1 $119 -48.489787565756693 $120 48.489787565756693 $69 $121 forward 7 unknown #
face $-1 $122 $123 $16 $-1 $124 forward single #
loop $-1 $-1 $125 $44 #
plane-surface $-1 -18.505799179168832 109.0123784987758 171.74508120681 -1 0 0 0 0.78801076186113728 0.61566146476048833 forward_v I I I I #
coedge $-1 $126 $127 $128 $129 reversed $45 $-1 #
coedge $-1 $76 $47 $127 $130 forward $29 $-1 #
coedge $-1 $47 $75 $131 $132 reversed $29 $-1 #
coedge $-1 $133 $128 $47 $78 forward $123 $-1 #
edge $-1 $134 -14.538520740033057 $135 -6.0164016836312086 $77 $136 forward 7 unknown #
face $-1 $137 $138 $17 $-1 $139 forward single #
loop $-1 $-1 $140 $48 #
plane-surface $-1 -52.756152594582659 109.0123784987758 171.74508120681 1 0 0 0 -0.78801076186113728 -0.61566146476048833 forward_v I I I I #
loop $-1 $-1 $141 $31 #
coedge $-1 $83 $83 $84 $142 forward $49 $-1 #
coedge $-1 $84 $84 $83 $142 reversed $51 $-1 #
coedge $-1 $85 $85 $52 $86 forward $138 $-1 #
edge $-1 $143 4.9016513607554186e-016 $143 6.2831853071796013 $85 $144 forward 7 unknown #
face $-1 $145 $146 $18 $-1 $147 reversed single #
loop $-1 $148 $149 $53 #
cone-surface $-1 -45.906081911499896 41.596243738301105 4.7879916458644907 0 -0.78801076186113728 -0.61566146476048833 2.5 0 0 1 I I 0 1 2.5 forward I I I I #
loop $-1 $-1 $150 $34 #
coedge $-1 $91 $91 $92 $151 forward $54 $-1 #
coedge $-1 $92 $92 $91 $151 reversed $56 $-1 #
coedge $-1 $93 $93 $57 $94 forward $152 $-1 #
edge $-1 $153 4.9016513607554186e-016 $153 6.2831853071796013 $93 $154 forward 7 unknown #
face $-1 $155 $156 $19 $-1 $157 reversed single #
loop $-1 $158 $159 $58 #
cone-surface $-1 -35.630975886875746 41.596243738301105 4.7879916458644907 0 -0.78801076186113728 -0.61566146476048833 2.5 0 0 1 I I 0 1 2.5 forward I I I I #
loop $-1 $-1 $160 $37 #
coedge $-1 $99 $99 $100 $161 forward $59 $-1 #
coedge $-1 $100 $100 $99 $161 reversed $61 $-1 #
coedge $-1 $101 $101 $62 $102 forward $162 $-1 #
edge $-1 $163 4.9016513607554186e-016 $163 6.2831853071796013 $101 $164 forward 7 unknown #
face $-1 $165 $166 $15 $-1 $167 reversed single #
loop $-1 $-1 $168 $63 #
plane-surface $-1 -76.286507766960653 0 0 1 0 0 0 0 -1 forward_v I I I I #
coedge $-1 $169 $114 $170 $171 forward $64 $-1 #
coedge $-1 $172 $66 $169 $173 forward $41 $-1 #
coedge $-1 $66 $172 $174 $175 forward $41 $-1 #
coedge $-1 $117 $116 $66 $110 reversed $118 $-1 #
edge $-1 $176 -48.489787565756693 $177 48.489787565756693 $109 $178 forward 7 unknown #
coedge $-1 $68 $67 $179 $180 forward $26 $-1 #
coedge $-1 $181 $182 $67 $113 reversed $166 $-1 #
edge $-1 $120 -76.286507766960653 $183 76.286507766960653 $112 $184 forward 7 unknown #
coedge $-1 $106 $185 $68 $115 reversed $64 $-1 #
edge $-1 $186 -76.286507766960653 $119 76.286507766960653 $114 $187 forward 7 unknown #
coedge $-1 $109 $69 $185 $188 forward $118 $-1 #
coedge $-1 $69 $109 $181 $189 reversed $118 $-1 #
loop $-1 $-1 $116 $165 #
vertex $-1 $70 $190 #
vertex $-1 $70 $191 #
straight-curve $-1 76.286507766960653 0 12.298621372157681 0 1 0 I I #
face $-1 $192 $193 $16 $-1 $194 reversed single #
loop $-1 $-1 $195 $71 #
plane-surface $-1 0 0 12.298621372157681 0 0 1 1 0 0 forward_v I I I I #
coedge $-1 $196 $197 $195 $198 reversed $72 $-1 #
coedge $-1 $199 $74 $197 $200 reversed $45 $-1 #
coedge $-1 $74 $199 $75 $130 reversed $45 $-1 #
coedge $-1 $77 $195 $74 $129 forward $123 $-1 #
edge $-1 $201 0.69031123573095954 $134 34.940664651144786 $128 $202 forward 7 unknown #
edge $-1 $134 83.13735900431557 $203 96.979575131513371 $75 $204 forward 7 unknown #
coedge $-1 $205 $206 $76 $132 forward $207 $-1 #
edge $-1 $135 73.573919231247316 $203 84.481734507486976 $131 $208 forward 7 unknown #
coedge $-1 $209 $77 $206 $210 forward $123 $-1 #
vertex $-1 $129 $211 #
vertex $-1 $210 $212 #
straight-curve $-1 -52.756152594582659 54.506189249387901 12.298621372157683 0 1 0 I I #
face $-1 $213 $214 $17 $-1 $215 forward single #
loop $-1 $216 $85 $79 #
plane-surface $-1 -35.630975886875746 -11.216799711560654 77.811754980271274 0 0.78801076186113728 0.61566146476048833 1 0 0 forward_v I I I I #
coedge $-1 $217 $218 $219 $220 reversed $80 $-1 #
coedge $-1 $141 $141 $-1 $221 forward $82 $-1 #
edge $-1 $222 0 $222 6.2831853071796004 $83 $223 forward 7 unknown #
vertex $-1 $86 $224 #
ellipse-curve $-1 -45.906081911499896 44.228728037555776 6.8447137340378488 0 -0.78801076186113728 -0.61566146476048833 2.5 0 0 1 I I #
face $-1 $225 $226 $18 $-1 $227 forward single #
loop $-1 $228 $229 $87 #
cone-surface $-1 -45.906081911499896 37.978745986720035 1.9616927267405391 0 -0.78801076186113728 -0.61566146476048833 1.25 0 0 1 I I -0.70710678118654746 0.70710678118654746 1.25 forward I I I I #
loop $-1 $-1 $230 $53 #
coedge $-1 $149 $149 $231 $232 reversed $88 $-1 #
coedge $-1 $150 $150 $-1 $233 forward $90 $-1 #
edge $-1 $234 0 $234 6.2831853071796004 $91 $235 forward 7 unknown #
loop $-1 $236 $93 $225 #
vertex $-1 $94 $237 #
ellipse-curve $-1 -35.630975886875746 44.228728037555776 6.8447137340378488 0 -0.78801076186113728 -0.61566146476048833 2.5 0 0 1 I I #
face $-1 $238 $239 $19 $-1 $240 reversed single #
loop $-1 $241 $242 $95 #
cone-surface $-1 -35.630975886875746 37.978745986720035 1.9616927267405391 0 -0.78801076186113728 -0.61566146476048833 1.25 0 0 1 I I -0.70710678118654746 0.70710678118654746 1.25 forward I I I I #
loop $-1 $-1 $243 $58 #
coedge $-1 $159 $159 $244 $245 reversed $96 $-1 #
coedge $-1 $160 $160 $-1 $246 forward $98 $-1 #
edge $-1 $247 0 $247 6.2831853071796004 $99 $248 forward 7 unknown #
loop $-1 $249 $101 $250 #
vertex $-1 $102 $251 #
ellipse-curve $-1 -25.355869862251595 44.228728037555776 6.8447137340378488 0 -0.78801076186113728 -0.61566146476048833 2.5 0 0 1 I I #
face $-1 $-1 $118 $15 $-1 $252 reversed single #
loop $-1 $-1 $181 $103 #
plane-surface $-1 0 48.489787565756693 0 0 -1 0 0 0 -1 forward_v I I I I #
coedge $-1 $253 $179 $182 $254 forward $104 $-1 #
coedge $-1 $185 $106 $107 $173 reversed $64 $-1 #
coedge $-1 $179 $253 $106 $171 reversed $104 $-1 #
edge $-1 $186 -12.298621372157681 $255 12.298621372157681 $170 $256 forward 7 unknown #
coedge $-1 $108 $107 $253 $257 forward $41 $-1 #
edge $-1 $177 -76.286507766960653 $255 76.286507766960653 $169 $258 forward 7 unknown #
coedge $-1 $182 $181 $108 $175 reversed $166 $-1 #
edge $-1 $259 -76.286507766960653 $176 76.286507766960653 $174 $260 forward 7 unknown #
vertex $-1 $110 $261 #
vertex $-1 $188 $262 #
straight-curve $-1 76.286507766960653 0 -12.298621372157681 0 -1 0 I I #
coedge $-1 $168 $170 $111 $180 reversed $104 $-1 #
edge $-1 $183 -48.489787565756693 $186 48.489787565756693 $179 $263 forward 7 unknown #
coedge $-1 $174 $112 $117 $189 forward $166 $-1 #
coedge $-1 $112 $174 $168 $254 reversed $166 $-1 #
vertex $-1 $113 $264 #
straight-curve $-1 0 48.489787565756693 12.298621372157681 -1 0 0 I I #
coedge $-1 $114 $169 $116 $188 reversed $64 $-1 #
vertex $-1 $180 $265 #
straight-curve $-1 0 -48.489787565756693 12.298621372157681 1 0 0 I I #
edge $-1 $119 -12.298621372157681 $177 12.298621372157681 $116 $266 forward 7 unknown #
edge $-1 $120 -12.298621372157681 $176 12.298621372157681 $117 $267 forward 7 unknown #
point $-1 76.286507766960653 -48.489787565756693 12.298621372157681 #
point $-1 76.286507766960653 48.489787565756693 12.298621372157681 #
face $-1 $268 $269 $16 $-1 $270 reversed single #
loop $-1 $-1 $271 $122 #
plane-surface $-1 0 0 -12.298621372157681 0 0 1 1 0 0 forward_v I I I I #
coedge $-1 $128 $272 $125 $198 forward $123 $-1 #
coedge $-1 $197 $125 $273 $274 reversed $72 $-1 #
coedge $-1 $125 $196 $126 $200 forward $72 $-1 #
edge $-1 $275 6.0164016836312086 $201 14.538520740033057 $195 $276 forward 7 unknown #
coedge $-1 $127 $126 $205 $277 reversed $45 $-1 #
edge $-1 $278 -96.979575131513371 $201 -83.13735900431557 $197 $279 forward 7 unknown #
vertex $-1 $129 $280 #
straight-curve $-1 -17.815487943437873 39.967668509354837 12.298621372157683 -1 0 0 I I #
vertex $-1 $277 $281 #
straight-curve $-1 -52.756152594582659 -11.216799711560654 77.811754980271274 0 0.61566146476048833 -0.78801076186113728 I I #
coedge $-1 $273 $131 $199 $277 forward $207 $-1 #
coedge $-1 $131 $282 $133 $210 reversed $207 $-1 #
loop $-1 $-1 $273 $283 #
straight-curve $-1 -52.756152594582659 48.489787565756693 85.872540603405 0 0 -1 I I #
coedge $-1 $284 $133 $285 $286 forward $123 $-1 #
edge $-1 $135 52.756152594582659 $287 76.286507766960653 $206 $288 forward 7 unknown #
point $-1 -52.756152594582659 39.967668509354844 12.298621372157683 #
point $-1 -52.756152594582659 48.489787565756693 12.298621372157681 #
face $-1 $289 $290 $17 $-1 $291 forward single #
loop $-1 $-1 $292 $137 #
plane-surface $-1 -18.505799179168832 109.0123784987758 171.74508120681 -1 0 0 0 0.78801076186113728 0.61566146476048833 forward_v I I I I #
loop $-1 $-1 $293 $79 #
coedge $-1 $218 $140 $294 $295 forward $80 $-1 #
coedge $-1 $140 $217 $296 $297 reversed $80 $-1 #
coedge $-1 $298 $299 $140 $220 forward $290 $-1 #
edge $-1 $300 -14.538520740033057 $301 -6.0164016836312086 $219 $302 forward 7 unknown #
edge $-1 $303 1 $303 0 $141 $-1 forward 7 unknown #
vertex $-1 $142 $304 #
ellipse-curve $-1 -45.906081911499896 38.963759439046456 2.7312695576911494 0 0.78801076186113728 0.61566146476048833 2.5 0 0 1 I I #
point $-1 -43.406081911499896 44.228728037555754 6.8447137340378337 #
face $-1 $305 $152 $18 $-1 $306 forward single #
loop $-1 $-1 $307 $145 #
plane-surface $-1 -52.756152594582659 109.0123784987758 171.74508120681 1 0 0 0 -0.78801076186113728 -0.61566146476048833 forward_v I I I I #
loop $-1 $-1 $308 $87 #
coedge $-1 $229 $229 $230 $309 forward $146 $-1 #
coedge $-1 $230 $230 $229 $309 reversed $148 $-1 #
coedge $-1 $231 $231 $149 $232 forward $236 $-1 #
edge $-1 $310 4.9016513607554186e-016 $310 6.2831853071796013 $231 $311 forward 7 unknown #
edge $-1 $312 1 $312 0 $150 $-1 forward 7 unknown #
vertex $-1 $151 $313 #
ellipse-curve $-1 -35.630975886875746 38.963759439046456 2.7312695576911494 0 0.78801076186113728 0.61566146476048833 2.5 0 0 1 I I #
loop $-1 $314 $231 $225 #
point $-1 -33.130975886875746 44.228728037555754 6.8447137340378337 #
face $-1 $315 $316 $19 $-1 $317 reversed single #
loop $-1 $318 $319 $155 #
cone-surface $-1 -45.906081911499896 41.596243738301105 4.7879916458644907 0 -0.78801076186113728 -0.61566146476048833 2.5 0 0 1 I I 0 1 2.5 forward I I I I #
loop $-1 $-1 $320 $95 #
coedge $-1 $242 $242 $243 $321 forward $156 $-1 #
coedge $-1 $243 $243 $242 $321 reversed $158 $-1 #
coedge $-1 $244 $244 $159 $245 forward $249 $-1 #
edge $-1 $322 4.9016513607554186e-016 $322 6.2831853071796013 $244 $323 forward 7 unknown #
edge $-1 $324 1 $324 0 $160 $-1 forward 7 unknown #
vertex $-1 $161 $325 #
ellipse-curve $-1 -25.355869862251595 38.963759439046456 2.7312695576911494 0 0.78801076186113728 0.61566146476048833 2.5 0 0 1 I I #
loop $-1 $326 $244 $250 #
face $-1 $327 $162 $19 $-1 $328 forward single #
point $-1 -22.855869862251595 44.228728037555754 6.8447137340378337 #
plane-surface $-1 76.286507766960653 0 0 -1 0 0 0 0 1 forward_v I I I I #
coedge $-1 $170 $168 $172 $257 reversed $104 $-1 #
edge $-1 $183 -12.298621372157681 $259 12.298621372157681 $182 $329 forward 7 unknown #
vertex $-1 $257 $330 #
straight-curve $-1 -76.286507766960653 -48.489787565756693 0 0 0 -1 I I #
edge $-1 $255 -48.489787565756693 $259 48.489787565756693 $253 $331 forward 7 unknown #
straight-curve $-1 0 -48.489787565756693 -12.298621372157681 -1 0 0 I I #
vertex $-1 $175 $332 #
straight-curve $-1 0 48.489787565756693 -12.298621372157681 1 0 0 I I #
point $-1 76.286507766960653 48.489787565756693 -12.298621372157681 #
point $-1 76.286507766960653 -48.489787565756693 -12.298621372157681 #
straight-curve $-1 -76.286507766960653 0 12.298621372157681 0 -1 0 I I #
point $-1 -76.286507766960653 48.489787565756693 12.298621372157681 #
point $-1 -76.286507766960653 -48.489787565756693 12.298621372157681 #
straight-curve $-1 76.286507766960653 -48.489787565756693 0 0 0 -1 I I #
straight-curve $-1 76.286507766960653 48.489787565756693 0 0 0 -1 I I #
face $-1 $283 $333 $16 $-1 $334 reversed single #
loop $-1 $-1 $335 $192 #
plane-surface $-1 0 -48.489787565756693 0 0 1 0 0 0 1 forward_v I I I I #
coedge $-1 $336 $337 $338 $339 forward $193 $-1 #
coedge $-1 $195 $340 $341 $342 forward $123 $-1 #
coedge $-1 $341 $205 $196 $274 forward $207 $-1 #
edge $-1 $278 -84.481734507486976 $275 -73.573919231247316 $273 $343 forward 7 unknown #
vertex $-1 $274 $344 #
straight-curve $-1 -18.505799179168832 54.506189249387901 12.298621372157683 0 -1 0 I I #
edge $-1 $203 -34.940664651144786 $278 -0.69031123573095954 $205 $345 forward 7 unknown #
vertex $-1 $277 $346 #
straight-curve $-1 -18.505799179168832 -11.216799711560654 77.811754980271274 0 -0.61566146476048833 0.78801076186113728 I I #
point $-1 -18.505799179168832 39.967668509354844 12.298621372157683 #
point $-1 -52.756152594582659 48.489787565756693 1.3908060959180233 #
coedge $-1 $206 $347 $348 $349 reversed $207 $-1 #
face $-1 $350 $207 $16 $-1 $351 reversed single #
coedge $-1 $340 $209 $352 $353 forward $123 $-1 #
coedge $-1 $348 $354 $209 $286 reversed $333 $-1 #
edge $-1 $287 -48.489787565756693 $355 48.489787565756693 $285 $356 forward 7 unknown #
vertex $-1 $210 $357 #
straight-curve $-1 0 48.489787565756693 12.298621372157681 -1 0 0 I I #
face $-1 $358 $359 $17 $-1 $360 reversed single #
loop $-1 $-1 $361 $213 #
plane-surface $-1 0 0 12.298621372157681 0 0 1 1 0 0 forward_v I I I I #
coedge $-1 $362 $363 $361 $364 reversed $214 $-1 #
coedge $-1 $365 $294 $299 $366 reversed $216 $-1 #
coedge $-1 $293 $367 $217 $295 reversed $216 $-1 #
edge $-1 $300 83.13735900431557 $368 96.979575131513371 $217 $369 forward 7 unknown #
coedge $-1 $370 $371 $218 $297 forward $372 $-1 #
edge $-1 $301 73.573919231247316 $368 84.481734507486976 $296 $373 forward 7 unknown #
coedge $-1 $374 $219 $371 $375 forward $290 $-1 #
coedge $-1 $219 $361 $293 $366 forward $290 $-1 #
vertex $-1 $366 $376 #
vertex $-1 $375 $377 #
straight-curve $-1 -52.756152594582659 54.506189249387901 12.298621372157683 0 1 0 I I #
vertex $-1 $221 $378 #
point $-1 -43.406081911499896 38.963759439046456 2.7312695576911494 #
face $-1 $379 $380 $18 $-1 $381 forward single #
plane-surface $-1 -35.630975886875746 -11.216799711560654 77.811754980271274 0 0.78801076186113728 0.61566146476048833 1 0 0 forward_v I I I I #
coedge $-1 $382 $383 $384 $385 reversed $226 $-1 #
coedge $-1 $308 $308 $-1 $386 forward $228 $-1 #
edge $-1 $387 0 $387 6.2831853071796004 $229 $388 forward 7 unknown #
vertex $-1 $232 $389 #
ellipse-curve $-1 -45.906081911499896 44.228728037555776 6.8447137340378488 0 -0.78801076186113728 -0.61566146476048833 2.5 0 0 1 I I #
vertex $-1 $233 $390 #
point $-1 -33.130975886875746 38.963759439046456 2.7312695576911494 #
loop $-1 $-1 $391 $225 #
face $-1 $250 $392 $19 $-1 $393 forward single #
loop $-1 $394 $395 $238 #
cone-surface $-1 -45.906081911499896 37.978745986720035 1.9616927267405391 0 -0.78801076186113728 -0.61566146476048833 1.25 0 0 1 I I -0.70710678118654746 0.70710678118654746 1.25 forward I I I I #
loop $-1 $-1 $396 $155 #
coedge $-1 $319 $319 $397 $398 reversed $239 $-1 #
coedge $-1 $320 $320 $-1 $399 forward $241 $-1 #
edge $-1 $400 0 $400 6.2831853071796004 $242 $401 forward 7 unknown #
vertex $-1 $245 $402 #
ellipse-curve $-1 -35.630975886875746 44.228728037555776 6.8447137340378488 0 -0.78801076186113728 -0.61566146476048833 2.5 0 0 1 I I #
vertex $-1 $246 $403 #
point $-1 -22.855869862251595 38.963759439046456 2.7312695576911494 #
loop $-1 $404 $397 $250 #
face $-1 $405 $406 $19 $-1 $407 forward single #
plane-surface $-1 -35.630975886875746 -11.216799711560654 77.811754980271274 0 0.78801076186113728 0.61566146476048833 1 0 0 forward_v I I I I #
straight-curve $-1 -76.286507766960653 48.489787565756693 0 0 0 -1 I I #
point $-1 -76.286507766960653 -48.489787565756693 -12.298621372157681 #
straight-curve $-1 -76.286507766960653 0 -12.298621372157681 0 1 0 I I #
point $-1 -76.286507766960653 48.489787565756693 -12.298621372157681 #
loop $-1 $-1 $348 $268 #
plane-surface $-1 -76.286507766960653 0 0 1 0 0 0 0 -1 forward_v I I I I #
coedge $-1 $408 $352 $354 $409 forward $269 $-1 #
coedge $-1 $410 $271 $408 $411 forward $193 $-1 #
coedge $-1 $271 $410 $347 $412 forward $193 $-1 #
coedge $-1 $413 $414 $271 $339 reversed $415 $-1 #
edge $-1 $416 -48.489787565756693 $417 48.489787565756693 $338 $418 forward 7 unknown #
coedge $-1 $272 $284 $419 $420 forward $123 $-1 #
coedge $-1 $421 $273 $272 $342 reversed $207 $-1 #
edge $-1 $422 -76.286507766960653 $275 18.505799179168832 $341 $288 forward 7 unknown #
straight-curve $-1 -18.505799179168832 48.489787565756693 85.872540603405 0 0 1 I I #
point $-1 -18.505799179168832 48.489787565756693 12.298621372157681 #
straight-curve $-1 -17.815487943437873 48.4897875657567 1.3908060959180162 1 0 0 I I #
point $-1 -18.505799179168832 48.489787565756693 1.3908060959180233 #
coedge $-1 $282 $421 $337 $412 reversed $207 $-1 #
coedge $-1 $423 $285 $282 $349 forward $333 $-1 #
edge $-1 $287 -12.298621372157681 $424 12.298621372157681 $282 $425 forward 7 unknown #
face $-1 $-1 $415 $16 $-1 $426 reversed single #
plane-surface $-1 0 48.489787565756693 0 0 -1 0 0 0 -1 forward_v I I I I #
coedge $-1 $335 $427 $284 $353 reversed $269 $-1 #
edge $-1 $355 -76.286507766960653 $428 76.286507766960653 $352 $429 forward 7 unknown #
coedge $-1 $285 $423 $335 $409 reversed $333 $-1 #
vertex $-1 $286 $430 #
straight-curve $-1 -76.286507766960653 0 12.298621372157681 0 -1 0 I I #
point $-1 -76.286507766960653 48.489787565756693 12.298621372157681 #
face $-1 $431 $432 $17 $-1 $433 reversed single #
loop $-1 $-1 $434 $289 #
plane-surface $-1 0 0 -12.298621372157681 0 0 1 1 0 0 forward_v I I I I #
coedge $-1 $299 $435 $292 $364 forward $290 $-1 #
coedge $-1 $363 $292 $436 $437 reversed $214 $-1 #
coedge $-1 $292 $362 $365 $438 forward $214 $-1 #
edge $-1 $439 6.0164016836312086 $440 14.538520740033057 $361 $441 forward 7 unknown #
coedge $-1 $367 $293 $363 $438 reversed $216 $-1 #
edge $-1 $440 0.69031123573095954 $300 34.940664651144786 $299 $442 forward 7 unknown #
coedge $-1 $294 $365 $370 $443 reversed $216 $-1 #
vertex $-1 $443 $444 #
straight-curve $-1 -52.756152594582659 -11.216799711560654 77.811754980271274 0 0.61566146476048833 -0.78801076186113728 I I #
coedge $-1 $436 $296 $367 $443 forward $372 $-1 #
coedge $-1 $296 $445 $298 $375 reversed $372 $-1 #
loop $-1 $-1 $436 $446 #
straight-curve $-1 -52.756152594582659 48.489787565756693 85.872540603405 0 0 -1 I I #
coedge $-1 $447 $298 $448 $449 forward $290 $-1 #
edge $-1 $301 52.756152594582659 $450 76.286507766960653 $371 $451 forward 7 unknown #
point $-1 -52.756152594582659 39.967668509354844 12.298621372157683 #
point $-1 -52.756152594582659 48.489787565756693 12.298621372157681 #
point $-1 -45.906081911499896 36.993732534393615 1.1921158957899287 #
face $-1 $452 $453 $18 $-1 $454 forward single #
loop $-1 $-1 $455 $305 #
plane-surface $-1 -18.505799179168832 109.0123784987758 171.74508120681 -1 0 0 0 0.78801076186113728 0.61566146476048833 forward_v I I I I #
coedge $-1 $383 $307 $456 $457 forward $226 $-1 #
coedge $-1 $307 $382 $458 $459 reversed $226 $-1 #
coedge $-1 $460 $461 $307 $385 forward $453 $-1 #
edge $-1 $462 -14.538520740033057 $463 -6.0164016836312086 $384 $464 forward 7 unknown #
edge $-1 $465 1 $465 0 $308 $-1 forward 7 unknown #
vertex $-1 $309 $466 #
ellipse-curve $-1 -45.906081911499896 38.963759439046456 2.7312695576911494 0 0.78801076186113728 0.61566146476048833 2.5 0 0 1 I I #
point $-1 -43.406081911499896 44.228728037555754 6.8447137340378337 #
point $-1 -35.630975886875746 36.993732534393615 1.1921158957899287 #
coedge $-1 $467 $456 $461 $468 reversed $314 $-1 #
loop $-1 $-1 $469 $315 #
plane-surface $-1 -52.756152594582659 109.0123784987758 171.74508120681 1 0 0 0 -0.78801076186113728 -0.61566146476048833 forward_v I I I I #
loop $-1 $-1 $470 $238 #
coedge $-1 $395 $395 $396 $471 forward $316 $-1 #
coedge $-1 $396 $396 $395 $471 reversed $318 $-1 #
coedge $-1 $397 $397 $319 $398 forward $326 $-1 #
edge $-1 $472 4.9016513607554186e-016 $472 6.2831853071796013 $397 $473 forward 7 unknown #
edge $-1 $474 1 $474 0 $320 $-1 forward 7 unknown #
vertex $-1 $321 $475 #
ellipse-curve $-1 -35.630975886875746 38.963759439046456 2.7312695576911494 0 0.78801076186113728 0.61566146476048833 2.5 0 0 1 I I #
point $-1 -33.130975886875746 44.228728037555754 6.8447137340378337 #
point $-1 -25.355869862251595 36.993732534393615 1.1921158957899287 #
loop $-1 $-1 $476 $250 #
face $-1 $477 $478 $19 $-1 $479 forward single #
loop $-1 $-1 $480 $327 #
plane-surface $-1 -18.505799179168832 109.0123784987758 171.74508120681 -1 0 0 0 0.78801076186113728 0.61566146476048833 forward_v I I I I #
coedge $-1 $427 $335 $336 $411 reversed $269 $-1 #
edge $-1 $355 -12.298621372157681 $481 12.298621372157681 $354 $482 forward 7 unknown #
coedge $-1 $337 $336 $423 $483 forward $193 $-1 #
edge $-1 $417 -76.286507766960653 $481 76.286507766960653 $408 $484 forward 7 unknown #
edge $-1 $424 -76.286507766960653 $416 76.286507766960653 $347 $485 forward 7 unknown #
coedge $-1 $419 $338 $421 $486 reversed $415 $-1 #
coedge $-1 $338 $419 $427 $487 forward $415 $-1 #
loop $-1 $-1 $414 $350 #
vertex $-1 $339 $488 #
vertex $-1 $487 $489 #
straight-curve $-1 76.286507766960653 0 -12.298621372157681 0 -1 0 I I #
coedge $-1 $414 $413 $340 $420 reversed $415 $-1 #
edge $-1 $428 -48.489787565756693 $422 48.489787565756693 $419 $490 forward 7 unknown #
coedge $-1 $347 $341 $413 $486 forward $207 $-1 #
vertex $-1 $420 $491 #
coedge $-1 $354 $348 $410 $483 reversed $333 $-1 #
vertex $-1 $412 $492 #
straight-curve $-1 -76.286507766960653 48.489787565756693 0 0 0 -1 I I #
plane-surface $-1 76.286507766960653 0 0 -1 0 0 0 0 1 forward_v I I I I #
coedge $-1 $352 $408 $414 $487 reversed $269 $-1 #
vertex $-1 $420 $493 #
straight-curve $-1 0 -48.489787565756693 12.298621372157681 1 0 0 I I #
point $-1 -76.286507766960653 -48.489787565756693 12.298621372157681 #
face $-1 $446 $494 $17 $-1 $495 reversed single #
loop $-1 $-1 $496 $358 #
plane-surface $-1 0 -48.489787565756693 0 0 1 0 0 0 1 forward_v I I I I #
coedge $-1 $497 $498 $499 $500 forward $359 $-1 #
coedge $-1 $361 $501 $502 $503 forward $290 $-1 #
coedge $-1 $502 $370 $362 $437 forward $372 $-1 #
edge $-1 $504 -84.481734507486976 $439 -73.573919231247316 $436 $505 forward 7 unknown #
edge $-1 $504 -96.979575131513371 $440 -83.13735900431557 $363 $506 forward 7 unknown #
vertex $-1 $437 $507 #
vertex $-1 $366 $508 #
straight-curve $-1 -18.505799179168832 54.506189249387901 12.298621372157683 0 -1 0 I I #
straight-curve $-1 -17.815487943437873 39.967668509354837 12.298621372157683 -1 0 0 I I #
edge $-1 $368 -34.940664651144786 $504 -0.69031123573095954 $370 $509 forward 7 unknown #
point $-1 -52.756152594582659 48.489787565756693 1.3908060959180233 #
coedge $-1 $371 $510 $511 $512 reversed $372 $-1 #
face $-1 $513 $372 $17 $-1 $514 reversed single #
coedge $-1 $501 $374 $515 $516 forward $290 $-1 #
coedge $-1 $511 $517 $374 $449 reversed $494 $-1 #
edge $-1 $450 -48.489787565756693 $518 48.489787565756693 $448 $519 forward 7 unknown #
vertex $-1 $375 $520 #
straight-curve $-1 0 48.489787565756693 12.298621372157681 -1 0 0 I I #
face $-1 $521 $522 $18 $-1 $523 reversed single #
loop $-1 $-1 $524 $379 #
plane-surface $-1 0 0 12.298621372157681 0 0 1 1 0 0 forward_v I I I I #
coedge $-1 $525 $526 $524 $527 reversed $380 $-1 #
coedge $-1 $391 $528 $382 $457 reversed $314 $-1 #
edge $-1 $462 83.13735900431557 $529 96.979575131513371 $382 $530 forward 7 unknown #
coedge $-1 $531 $532 $383 $459 forward $533 $-1 #
edge $-1 $463 73.573919231247316 $529 84.481734507486976 $458 $534 forward 7 unknown #
coedge $-1 $535 $384 $532 $536 forward $453 $-1 #
coedge $-1 $384 $524 $391 $468 forward $453 $-1 #
vertex $-1 $468 $537 #
vertex $-1 $536 $538 #
straight-curve $-1 -52.756152594582659 54.506189249387901 12.298621372157683 0 1 0 I I #
vertex $-1 $386 $539 #
point $-1 -43.406081911499896 38.963759439046456 2.7312695576911494 #
coedge $-1 $528 $391 $526 $540 reversed $314 $-1 #
edge $-1 $541 0.69031123573095954 $462 34.940664651144786 $461 $542 forward 7 unknown #
coedge $-1 $543 $544 $545 $546 reversed $392 $-1 #
coedge $-1 $470 $470 $-1 $547 forward $394 $-1 #
edge $-1 $548 0 $548 6.2831853071796004 $395 $549 forward 7 unknown #
vertex $-1 $398 $550 #
ellipse-curve $-1 -45.906081911499896 44.228728037555776 6.8447137340378488 0 -0.78801076186113728 -0.61566146476048833 2.5 0 0 1 I I #
vertex $-1 $399 $551 #
point $-1 -33.130975886875746 38.963759439046456 2.7312695576911494 #
coedge $-1 $552 $553 $554 $555 reversed $404 $-1 #
face $-1 $556 $557 $19 $-1 $558 reversed single #
loop $-1 $-1 $559 $405 #
plane-surface $-1 0 0 12.298621372157681 0 0 1 1 0 0 forward_v I I I I #
coedge $-1 $560 $561 $559 $562 reversed $406 $-1 #
vertex $-1 $483 $563 #
straight-curve $-1 -76.286507766960653 -48.489787565756693 0 0 0 -1 I I #
edge $-1 $481 -48.489787565756693 $424 48.489787565756693 $423 $564 forward 7 unknown #
straight-curve $-1 0 -48.489787565756693 -12.298621372157681 -1 0 0 I I #
straight-curve $-1 0 48.489787565756693 -12.298621372157681 1 0 0 I I #
edge $-1 $422 -12.298621372157681 $416 12.298621372157681 $413 $565 forward 7 unknown #
edge $-1 $428 -12.298621372157681 $417 12.298621372157681 $414 $566 forward 7 unknown #
point $-1 76.286507766960653 48.489787565756693 -12.298621372157681 #
point $-1 76.286507766960653 -48.489787565756693 -12.298621372157681 #
straight-curve $-1 76.286507766960653 0 12.298621372157681 0 1 0 I I #
point $-1 76.286507766960653 48.489787565756693 12.298621372157681 #
point $-1 -76.286507766960653 48.489787565756693 -12.298621372157681 #
point $-1 76.286507766960653 -48.489787565756693 12.298621372157681 #
loop $-1 $-1 $511 $431 #
plane-surface $-1 -76.286507766960653 0 0 1 0 0 0 0 -1 forward_v I I I I #
coedge $-1 $567 $515 $517 $568 forward $432 $-1 #
coedge $-1 $569 $434 $567 $570 forward $359 $-1 #
coedge $-1 $434 $569 $510 $571 forward $359 $-1 #
coedge $-1 $572 $573 $434 $500 reversed $574 $-1 #
edge $-1 $575 -48.489787565756693 $576 48.489787565756693 $499 $577 forward 7 unknown #
coedge $-1 $435 $447 $578 $579 forward $290 $-1 #
coedge $-1 $580 $436 $435 $503 reversed $372 $-1 #
edge $-1 $581 -76.286507766960653 $439 18.505799179168832 $502 $451 forward 7 unknown #
vertex $-1 $443 $582 #
straight-curve $-1 -18.505799179168832 48.489787565756693 85.872540603405 0 0 1 I I #
straight-curve $-1 -18.505799179168832 -11.216799711560654 77.811754980271274 0 -0.61566146476048833 0.78801076186113728 I I #
point $-1 -18.505799179168832 48.489787565756693 12.298621372157681 #
point $-1 -18.505799179168832 39.967668509354844 12.298621372157683 #
straight-curve $-1 -17.815487943437873 48.4897875657567 1.3908060959180162 1 0 0 I I #
coedge $-1 $445 $580 $498 $571 reversed $372 $-1 #
coedge $-1 $583 $448 $445 $512 forward $494 $-1 #
edge $-1 $450 -12.298621372157681 $584 12.298621372157681 $445 $585 forward 7 unknown #
face $-1 $-1 $574 $17 $-1 $586 reversed single #
plane-surface $-1 0 48.489787565756693 0 0 -1 0 0 0 -1 forward_v I I I I #
coedge $-1 $496 $587 $447 $516 reversed $432 $-1 #
edge $-1 $518 -76.286507766960653 $588 76.286507766960653 $515 $589 forward 7 unknown #
coedge $-1 $448 $583 $496 $568 reversed $494 $-1 #
vertex $-1 $449 $590 #
straight-curve $-1 -76.286507766960653 0 12.298621372157681 0 -1 0 I I #
point $-1 -76.286507766960653 48.489787565756693 12.298621372157681 #
face $-1 $591 $592 $18 $-1 $593 reversed single #
loop $-1 $-1 $594 $452 #
plane-surface $-1 0 0 -12.298621372157681 0 0 1 1 0 0 forward_v I I I I #
coedge $-1 $461 $595 $455 $527 forward $453 $-1 #
coedge $-1 $526 $455 $596 $597 reversed $380 $-1 #
coedge $-1 $455 $525 $467 $540 forward $380 $-1 #
edge $-1 $598 6.0164016836312086 $541 14.538520740033057 $524 $599 forward 7 unknown #
coedge $-1 $456 $467 $531 $600 reversed $314 $-1 #
vertex $-1 $600 $601 #
straight-curve $-1 -52.756152594582659 -11.216799711560654 77.811754980271274 0 0.61566146476048833 -0.78801076186113728 I I #
coedge $-1 $596 $458 $528 $600 forward $533 $-1 #
coedge $-1 $458 $602 $460 $536 reversed $533 $-1 #
loop $-1 $-1 $596 $603 #
straight-curve $-1 -52.756152594582659 48.489787565756693 85.872540603405 0 0 -1 I I #
coedge $-1 $604 $460 $605 $606 forward $453 $-1 #
edge $-1 $463 52.756152594582659 $607 76.286507766960653 $532 $608 forward 7 unknown #
point $-1 -52.756152594582659 39.967668509354844 12.298621372157683 #
point $-1 -52.756152594582659 48.489787565756693 12.298621372157681 #
point $-1 -45.906081911499896 36.993732534393615 1.1921158957899287 #
edge $-1 $609 -96.979575131513371 $541 -83.13735900431557 $526 $610 forward 7 unknown #
vertex $-1 $468 $611 #
straight-curve $-1 -17.815487943437873 39.967668509354837 12.298621372157683 -1 0 0 I I #
coedge $-1 $544 $469 $553 $612 forward $392 $-1 #
coedge $-1 $469 $543 $613 $614 reversed $392 $-1 #
coedge $-1 $615 $554 $469 $546 forward $478 $-1 #
edge $-1 $616 -14.538520740033057 $617 -6.0164016836312086 $545 $618 forward 7 unknown #
edge $-1 $619 1 $619 0 $470 $-1 forward 7 unknown #
vertex $-1 $471 $620 #
ellipse-curve $-1 -45.906081911499896 38.963759439046456 2.7312695576911494 0 0.78801076186113728 0.61566146476048833 2.5 0 0 1 I I #
point $-1 -43.406081911499896 44.228728037555754 6.8447137340378337 #
point $-1 -35.630975886875746 36.993732534393615 1.1921158957899287 #
coedge $-1 $621 $476 $561 $622 reversed $404 $-1 #
coedge $-1 $476 $621 $543 $612 reversed $404 $-1 #
coedge $-1 $545 $559 $476 $555 forward $478 $-1 #
edge $-1 $623 0.69031123573095954 $616 34.940664651144786 $554 $624 forward 7 unknown #
face $-1 $625 $626 $19 $-1 $627 reversed single #
loop $-1 $-1 $628 $477 #
plane-surface $-1 0 0 -12.298621372157681 0 0 1 1 0 0 forward_v I I I I #
coedge $-1 $554 $629 $480 $562 forward $478 $-1 #
coedge $-1 $561 $480 $630 $631 reversed $406 $-1 #
coedge $-1 $480 $560 $552 $622 forward $406 $-1 #
edge $-1 $632 6.0164016836312086 $623 14.538520740033057 $559 $633 forward 7 unknown #
point $-1 -76.286507766960653 -48.489787565756693 -12.298621372157681 #
straight-curve $-1 -76.286507766960653 0 -12.298621372157681 0 1 0 I I #
straight-curve $-1 76.286507766960653 48.489787565756693 0 0 0 -1 I I #
straight-curve $-1 76.286507766960653 -48.489787565756693 0 0 0 -1 I I #
coedge $-1 $587 $496 $497 $570 reversed $432 $-1 #
edge $-1 $518 -12.298621372157681 $634 12.298621372157681 $517 $635 forward 7 unknown #
coedge $-1 $498 $497 $583 $636 forward $359 $-1 #
edge $-1 $576 -76.286507766960653 $634 76.286507766960653 $567 $637 forward 7 unknown #
edge $-1 $584 -76.286507766960653 $575 76.286507766960653 $510 $638 forward 7 unknown #
coedge $-1 $578 $499 $580 $639 reversed $574 $-1 #
coedge $-1 $499 $578 $587 $640 forward $574 $-1 #
loop $-1 $-1 $573 $513 #
vertex $-1 $500 $641 #
vertex $-1 $640 $642 #
straight-curve $-1 76.286507766960653 0 -12.298621372157681 0 -1 0 I I #
coedge $-1 $573 $572 $501 $579 reversed $574 $-1 #
edge $-1 $588 -48.489787565756693 $581 48.489787565756693 $578 $643 forward 7 unknown #
coedge $-1 $510 $502 $572 $639 forward $372 $-1 #
vertex $-1 $579 $644 #
point $-1 -18.505799179168832 48.489787565756693 1.3908060959180233 #
coedge $-1 $517 $511 $569 $636 reversed $494 $-1 #
vertex $-1 $571 $645 #
straight-curve $-1 -76.286507766960653 48.489787565756693 0 0 0 -1 I I #
plane-surface $-1 76.286507766960653 0 0 -1 0 0 0 0 1 forward_v I I I I #
coedge $-1 $515 $567 $573 $640 reversed $432 $-1 #
vertex $-1 $579 $646 #
straight-curve $-1 0 -48.489787565756693 12.298621372157681 1 0 0 I I #
point $-1 -76.286507766960653 -48.489787565756693 12.298621372157681 #
face $-1 $603 $647 $18 $-1 $648 reversed single #
loop $-1 $-1 $649 $521 #
plane-surface $-1 0 -48.489787565756693 0 0 1 0 0 0 1 forward_v I I I I #
coedge $-1 $650 $651 $652 $653 forward $522 $-1 #
coedge $-1 $524 $654 $655 $656 forward $453 $-1 #
coedge $-1 $655 $531 $525 $597 forward $533 $-1 #
edge $-1 $609 -84.481734507486976 $598 -73.573919231247316 $596 $657 forward 7 unknown #
vertex $-1 $597 $658 #
straight-curve $-1 -18.505799179168832 54.506189249387901 12.298621372157683 0 -1 0 I I #
edge $-1 $529 -34.940664651144786 $609 -0.69031123573095954 $531 $659 forward 7 unknown #
point $-1 -52.756152594582659 48.489787565756693 1.3908060959180233 #
coedge $-1 $532 $660 $661 $662 reversed $533 $-1 #
face $-1 $663 $533 $18 $-1 $664 reversed single #
coedge $-1 $654 $535 $665 $666 forward $453 $-1 #
coedge $-1 $661 $667 $535 $606 reversed $647 $-1 #
edge $-1 $607 -48.489787565756693 $668 48.489787565756693 $605 $669 forward 7 unknown #
vertex $-1 $536 $670 #
straight-curve $-1 0 48.489787565756693 12.298621372157681 -1 0 0 I I #
vertex $-1 $600 $671 #
straight-curve $-1 -18.505799179168832 -11.216799711560654 77.811754980271274 0 -0.61566146476048833 0.78801076186113728 I I #
point $-1 -18.505799179168832 39.967668509354844 12.298621372157683 #
edge $-1 $616 83.13735900431557 $672 96.979575131513371 $543 $673 forward 7 unknown #
coedge $-1 $674 $675 $544 $614 forward $676 $-1 #
edge $-1 $617 73.573919231247316 $672 84.481734507486976 $613 $677 forward 7 unknown #
coedge $-1 $678 $545 $675 $679 forward $478 $-1 #
vertex $-1 $555 $680 #
vertex $-1 $679 $681 #
straight-curve $-1 -52.756152594582659 54.506189249387901 12.298621372157683 0 1 0 I I #
vertex $-1 $547 $682 #
point $-1 -43.406081911499896 38.963759439046456 2.7312695576911494 #
coedge $-1 $553 $552 $674 $683 reversed $404 $-1 #
edge $-1 $684 -96.979575131513371 $623 -83.13735900431557 $561 $685 forward 7 unknown #
vertex $-1 $555 $686 #
straight-curve $-1 -17.815487943437873 39.967668509354837 12.298621372157683 -1 0 0 I I #
face $-1 $687 $688 $19 $-1 $689 reversed single #
loop $-1 $-1 $690 $556 #
plane-surface $-1 0 -48.489787565756693 0 0 1 0 0 0 1 forward_v I I I I #
coedge $-1 $691 $692 $693 $694 forward $557 $-1 #
coedge $-1 $559 $695 $696 $697 forward $478 $-1 #
coedge $-1 $696 $674 $560 $631 forward $676 $-1 #
edge $-1 $684 -84.481734507486976 $632 -73.573919231247316 $630 $698 forward 7 unknown #
vertex $-1 $631 $699 #
straight-curve $-1 -18.505799179168832 54.506189249387901 12.298621372157683 0 -1 0 I I #
vertex $-1 $636 $700 #
straight-curve $-1 -76.286507766960653 -48.489787565756693 0 0 0 -1 I I #
edge $-1 $634 -48.489787565756693 $584 48.489787565756693 $583 $701 forward 7 unknown #
straight-curve $-1 0 -48.489787565756693 -12.298621372157681 -1 0 0 I I #
straight-curve $-1 0 48.489787565756693 -12.298621372157681 1 0 0 I I #
edge $-1 $581 -12.298621372157681 $575 12.298621372157681 $572 $702 forward 7 unknown #
edge $-1 $588 -12.298621372157681 $576 12.298621372157681 $573 $703 forward 7 unknown #
point $-1 76.286507766960653 48.489787565756693 -12.298621372157681 #
point $-1 76.286507766960653 -48.489787565756693 -12.298621372157681 #
straight-curve $-1 76.286507766960653 0 12.298621372157681 0 1 0 I I #
point $-1 76.286507766960653 48.489787565756693 12.298621372157681 #
point $-1 -76.286507766960653 48.489787565756693 -12.298621372157681 #
point $-1 76.286507766960653 -48.489787565756693 12.298621372157681 #
loop $-1 $-1 $661 $591 #
plane-surface $-1 -76.286507766960653 0 0 1 0 0 0 0 -1 forward_v I I I I #
coedge $-1 $704 $665 $667 $705 forward $592 $-1 #
coedge $-1 $706 $594 $704 $707 forward $522 $-1 #
coedge $-1 $594 $706 $660 $708 forward $522 $-1 #
coedge $-1 $709 $710 $594 $653 reversed $711 $-1 #
edge $-1 $712 -48.489787565756693 $713 48.489787565756693 $652 $714 forward 7 unknown #
coedge $-1 $595 $604 $715 $716 forward $453 $-1 #
coedge $-1 $717 $596 $595 $656 reversed $533 $-1 #
edge $-1 $718 -76.286507766960653 $598 18.505799179168832 $655 $608 forward 7 unknown #
straight-curve $-1 -18.505799179168832 48.489787565756693 85.872540603405 0 0 1 I I #
point $-1 -18.505799179168832 48.489787565756693 12.298621372157681 #
straight-curve $-1 -17.815487943437873 48.4897875657567 1.3908060959180162 1 0 0 I I #
coedge $-1 $602 $717 $651 $708 reversed $533 $-1 #
coedge $-1 $719 $605 $602 $662 forward $647 $-1 #
edge $-1 $607 -12.298621372157681 $720 12.298621372157681 $602 $721 forward 7 unknown #
face $-1 $-1 $711 $18 $-1 $722 reversed single #
plane-surface $-1 0 48.489787565756693 0 0 -1 0 0 0 -1 forward_v I I I I #
coedge $-1 $649 $723 $604 $666 reversed $592 $-1 #
edge $-1 $668 -76.286507766960653 $724 76.286507766960653 $665 $725 forward 7 unknown #
coedge $-1 $605 $719 $649 $705 reversed $647 $-1 #
vertex $-1 $606 $726 #
straight-curve $-1 -76.286507766960653 0 12.298621372157681 0 -1 0 I I #
point $-1 -76.286507766960653 48.489787565756693 12.298621372157681 #
point $-1 -18.505799179168832 48.489787565756693 1.3908060959180233 #
vertex $-1 $683 $727 #
straight-curve $-1 -52.756152594582659 -11.216799711560654 77.811754980271274 0 0.61566146476048833 -0.78801076186113728 I I #
coedge $-1 $630 $613 $621 $683 forward $676 $-1 #
coedge $-1 $613 $728 $615 $679 reversed $676 $-1 #
loop $-1 $-1 $630 $687 #
straight-curve $-1 -52.756152594582659 48.489787565756693 85.872540603405 0 0 -1 I I #
coedge $-1 $729 $615 $730 $731 forward $478 $-1 #
edge $-1 $617 52.756152594582659 $732 76.286507766960653 $675 $733 forward 7 unknown #
point $-1 -52.756152594582659 39.967668509354844 12.298621372157683 #
point $-1 -52.756152594582659 48.489787565756693 12.298621372157681 #
point $-1 -45.906081911499896 36.993732534393615 1.1921158957899287 #
edge $-1 $672 -34.940664651144786 $684 -0.69031123573095954 $674 $734 forward 7 unknown #
vertex $-1 $683 $735 #
straight-curve $-1 -18.505799179168832 -11.216799711560654 77.811754980271274 0 -0.61566146476048833 0.78801076186113728 I I #
point $-1 -18.505799179168832 39.967668509354844 12.298621372157683 #
face $-1 $736 $676 $19 $-1 $737 reversed single #
loop $-1 $-1 $738 $625 #
plane-surface $-1 -76.286507766960653 0 0 1 0 0 0 0 -1 forward_v I I I I #
coedge $-1 $739 $740 $741 $742 forward $626 $-1 #
coedge $-1 $743 $628 $739 $744 forward $557 $-1 #
coedge $-1 $628 $743 $745 $746 forward $557 $-1 #
coedge $-1 $747 $748 $628 $694 reversed $749 $-1 #
edge $-1 $750 -48.489787565756693 $751 48.489787565756693 $693 $752 forward 7 unknown #
coedge $-1 $629 $729 $753 $754 forward $478 $-1 #
coedge $-1 $755 $630 $629 $697 reversed $676 $-1 #
edge $-1 $756 -76.286507766960653 $632 18.505799179168832 $696 $733 forward 7 unknown #
straight-curve $-1 -18.505799179168832 48.489787565756693 85.872540603405 0 0 1 I I #
point $-1 -18.505799179168832 48.489787565756693 12.298621372157681 #
point $-1 -76.286507766960653 -48.489787565756693 -12.298621372157681 #
straight-curve $-1 -76.286507766960653 0 -12.298621372157681 0 1 0 I I #
straight-curve $-1 76.286507766960653 48.489787565756693 0 0 0 -1 I I #
straight-curve $-1 76.286507766960653 -48.489787565756693 0 0 0 -1 I I #
coedge $-1 $723 $649 $650 $707 reversed $592 $-1 #
edge $-1 $668 -12.298621372157681 $757 12.298621372157681 $667 $758 forward 7 unknown #
coedge $-1 $651 $650 $719 $759 forward $522 $-1 #
edge $-1 $713 -76.286507766960653 $757 76.286507766960653 $704 $760 forward 7 unknown #
edge $-1 $720 -76.286507766960653 $712 76.286507766960653 $660 $761 forward 7 unknown #
coedge $-1 $715 $652 $717 $762 reversed $711 $-1 #
coedge $-1 $652 $715 $723 $763 forward $711 $-1 #
loop $-1 $-1 $710 $663 #
vertex $-1 $653 $764 #
vertex $-1 $763 $765 #
straight-curve $-1 76.286507766960653 0 -12.298621372157681 0 -1 0 I I #
coedge $-1 $710 $709 $654 $716 reversed $711 $-1 #
edge $-1 $724 -48.489787565756693 $718 48.489787565756693 $715 $766 forward 7 unknown #
coedge $-1 $660 $655 $709 $762 forward $533 $-1 #
vertex $-1 $716 $767 #
coedge $-1 $667 $661 $706 $759 reversed $647 $-1 #
vertex $-1 $708 $768 #
straight-curve $-1 -76.286507766960653 48.489787565756693 0 0 0 -1 I I #
plane-surface $-1 76.286507766960653 0 0 -1 0 0 0 0 1 forward_v I I I I #
coedge $-1 $665 $704 $710 $763 reversed $592 $-1 #
vertex $-1 $716 $769 #
straight-curve $-1 0 -48.489787565756693 12.298621372157681 1 0 0 I I #
point $-1 -76.286507766960653 -48.489787565756693 12.298621372157681 #
point $-1 -52.756152594582659 48.489787565756693 1.3908060959180233 #
coedge $-1 $675 $745 $738 $770 reversed $676 $-1 #
coedge $-1 $695 $678 $740 $771 forward $478 $-1 #
coedge $-1 $738 $741 $678 $731 reversed $688 $-1 #
edge $-1 $732 -48.489787565756693 $772 48.489787565756693 $730 $773 forward 7 unknown #
vertex $-1 $679 $774 #
straight-curve $-1 0 48.489787565756693 12.298621372157681 -1 0 0 I I #
straight-curve $-1 -17.815487943437873 48.4897875657567 1.3908060959180162 1 0 0 I I #
point $-1 -18.505799179168832 48.489787565756693 1.3908060959180233 #
face $-1 $-1 $749 $19 $-1 $775 reversed single #
plane-surface $-1 0 48.489787565756693 0 0 -1 0 0 0 -1 forward_v I I I I #
coedge $-1 $776 $730 $728 $770 forward $688 $-1 #
coedge $-1 $777 $690 $691 $744 reversed $626 $-1 #
coedge $-1 $690 $777 $729 $771 reversed $626 $-1 #
coedge $-1 $730 $776 $690 $742 reversed $688 $-1 #
edge $-1 $772 -12.298621372157681 $778 12.298621372157681 $741 $779 forward 7 unknown #
coedge $-1 $692 $691 $776 $780 forward $557 $-1 #
edge $-1 $751 -76.286507766960653 $778 76.286507766960653 $739 $781 forward 7 unknown #
coedge $-1 $728 $755 $692 $746 reversed $676 $-1 #
edge $-1 $782 -76.286507766960653 $750 76.286507766960653 $745 $783 forward 7 unknown #
coedge $-1 $753 $693 $755 $784 reversed $749 $-1 #
coedge $-1 $693 $753 $777 $785 forward $749 $-1 #
loop $-1 $-1 $748 $736 #
vertex $-1 $694 $786 #
vertex $-1 $785 $787 #
straight-curve $-1 76.286507766960653 0 -12.298621372157681 0 -1 0 I I #
coedge $-1 $748 $747 $695 $754 reversed $749 $-1 #
edge $-1 $788 -48.489787565756693 $756 48.489787565756693 $753 $789 forward 7 unknown #
coedge $-1 $745 $696 $747 $784 forward $676 $-1 #
vertex $-1 $754 $790 #
vertex $-1 $759 $791 #
straight-curve $-1 -76.286507766960653 -48.489787565756693 0 0 0 -1 I I #
edge $-1 $757 -48.489787565756693 $720 48.489787565756693 $719 $792 forward 7 unknown #
straight-curve $-1 0 -48.489787565756693 -12.298621372157681 -1 0 0 I I #
straight-curve $-1 0 48.489787565756693 -12.298621372157681 1 0 0 I I #
edge $-1 $718 -12.298621372157681 $712 12.298621372157681 $709 $793 forward 7 unknown #
edge $-1 $724 -12.298621372157681 $713 12.298621372157681 $710 $794 forward 7 unknown #
point $-1 76.286507766960653 48.489787565756693 -12.298621372157681 #
point $-1 76.286507766960653 -48.489787565756693 -12.298621372157681 #
straight-curve $-1 76.286507766960653 0 12.298621372157681 0 1 0 I I #
point $-1 76.286507766960653 48.489787565756693 12.298621372157681 #
point $-1 -76.286507766960653 48.489787565756693 -12.298621372157681 #
point $-1 76.286507766960653 -48.489787565756693 12.298621372157681 #
edge $-1 $732 -12.298621372157681 $782 12.298621372157681 $728 $795 forward 7 unknown #
edge $-1 $772 -76.286507766960653 $788 76.286507766960653 $740 $796 forward 7 unknown #
vertex $-1 $731 $797 #
straight-curve $-1 -76.286507766960653 0 12.298621372157681 0 -1 0 I I #
point $-1 -76.286507766960653 48.489787565756693 12.298621372157681 #
plane-surface $-1 76.286507766960653 0 0 -1 0 0 0 0 1 forward_v I I I I #
coedge $-1 $741 $738 $743 $780 reversed $688 $-1 #
coedge $-1 $740 $739 $748 $785 reversed $626 $-1 #
vertex $-1 $780 $798 #
straight-curve $-1 -76.286507766960653 -48.489787565756693 0 0 0 -1 I I #
edge $-1 $778 -48.489787565756693 $782 48.489787565756693 $776 $799 forward 7 unknown #
straight-curve $-1 0 -48.489787565756693 -12.298621372157681 -1 0 0 I I #
vertex $-1 $746 $800 #
straight-curve $-1 0 48.489787565756693 -12.298621372157681 1 0 0 I I #
edge $-1 $756 -12.298621372157681 $750 12.298621372157681 $747 $801 forward 7 unknown #
edge $-1 $788 -12.298621372157681 $751 12.298621372157681 $748 $802 forward 7 unknown #
point $-1 76.286507766960653 48.489787565756693 -12.298621372157681 #
point $-1 76.286507766960653 -48.489787565756693 -12.298621372157681 #
vertex $-1 $754 $803 #
straight-curve $-1 76.286507766960653 0 12.298621372157681 0 1 0 I I #
point $-1 76.286507766960653 48.489787565756693 12.298621372157681 #
point $-1 -76.286507766960653 -48.489787565756693 -12.298621372157681 #
straight-curve $-1 -76.286507766960653 0 -12.298621372157681 0 1 0 I I #
straight-curve $-1 76.286507766960653 48.489787565756693 0 0 0 -1 I I #
straight-curve $-1 76.286507766960653 -48.489787565756693 0 0 0 -1 I I #
straight-curve $-1 -76.286507766960653 48.489787565756693 0 0 0 -1 I I #
straight-curve $-1 0 -48.489787565756693 12.298621372157681 1 0 0 I I #
point $-1 -76.286507766960653 -48.489787565756693 12.298621372157681 #
point $-1 -76.286507766960653 -48.489787565756693 -12.298621372157681 #
straight-curve $-1 -76.286507766960653 0 -12.298621372157681 0 1 0 I I #
point $-1 -76.286507766960653 48.489787565756693 -12.298621372157681 #
straight-curve $-1 76.286507766960653 48.489787565756693 0 0 0 -1 I I #
straight-curve $-1 76.286507766960653 -48.489787565756693 0 0 0 -1 I I #
point $-1 76.286507766960653 -48.489787565756693 12.298621372157681 #
End-of-ACIS-data 