500 0 15 0           
7 Unknown 11 ACIS 5.0 NT 24 Thu Mar 25 22:11:20 1999 
-1 9.9999999999999995e-007 1e-010 
body $-1 $15 $-1 $16 #
body $-1 $17 $-1 $18 #
body $-1 $19 $-1 $20 #
body $-1 $21 $-1 $22 #
body $-1 $23 $-1 $24 #
body $-1 $25 $-1 $26 #
body $-1 $27 $-1 $28 #
body $-1 $29 $-1 $30 #
body $-1 $31 $-1 $32 #
body $-1 $33 $-1 $34 #
body $-1 $35 $-1 $36 #
body $-1 $37 $-1 $38 #
body $-1 $39 $-1 $40 #
body $-1 $41 $-1 $42 #
body $-1 $43 $-1 $44 #
lump $-1 $-1 $45 $0 #
transform $-1 1 0 0 0 1 0 0 0 1 66.505935850093081 37.415195857044772 9.0122127390762525 1 rotate no_reflect no_shear #
lump $-1 $-1 $46 $1 #
transform $-1 1 0 0 0 1 0 0 0 1 66.505935850093081 37.415195857044772 9.0122127390762525 1 rotate no_reflect no_shear #
lump $-1 $-1 $47 $2 #
transform $-1 1 0 0 0 1 0 0 0 1 66.505935850093081 37.415195857044772 9.0122127390762525 1 rotate no_reflect no_shear #
lump $-1 $-1 $48 $3 #
transform $-1 1 0 0 0 1 0 0 0 1 66.505935850093081 37.415195857044772 9.0122127390762525 1 rotate no_reflect no_shear #
lump $-1 $-1 $49 $4 #
transform $-1 1 0 0 0 1 0 0 0 1 66.505935850093081 37.415195857044772 9.0122127390762525 1 rotate no_reflect no_shear #
lump $-1 $-1 $50 $5 #
transform $-1 1 0 0 0 1 0 0 0 1 66.505935850093081 37.415195857044772 9.0122127390762525 1 rotate no_reflect no_shear #
lump $-1 $-1 $51 $6 #
transform $-1 1 0 0 0 1 0 0 0 1 66.505935850093081 37.415195857044772 9.0122127390762525 1 rotate no_reflect no_shear #
lump $-1 $-1 $52 $7 #
transform $-1 1 0 0 0 1 0 0 0 1 66.505935850093081 37.415195857044772 9.0122127390762525 1 rotate no_reflect no_shear #
lump $-1 $-1 $53 $8 #
transform $-1 1 0 0 0 1 0 0 0 1 66.505935850093081 37.415195857044772 9.0122127390762525 1 rotate no_reflect no_shear #
lump $-1 $-1 $54 $9 #
transform $-1 1 0 0 0 1 0 0 0 1 66.505935850093081 37.415195857044772 9.0122127390762525 1 rotate no_reflect no_shear #
lump $-1 $-1 $55 $10 #
transform $-1 1 0 0 0 1 0 0 0 1 66.505935850093081 37.415195857044772 9.0122127390762525 1 rotate no_reflect no_shear #
lump $-1 $-1 $56 $11 #
transform $-1 1 0 0 0 1 0 0 0 1 66.505935850093081 37.415195857044772 9.0122127390762525 1 rotate no_reflect no_shear #
lump $-1 $-1 $57 $12 #
transform $-1 1 0 0 0 1 0 0 0 1 66.505935850093081 37.415195857044772 9.0122127390762525 1 rotate no_reflect no_shear #
lump $-1 $-1 $58 $13 #
transform $-1 1 0 0 0 1 0 0 0 1 66.505935850093081 37.415195857044772 9.0122127390762525 1 rotate no_reflect no_shear #
lump $-1 $-1 $59 $14 #
transform $-1 1 0 0 0 1 0 0 0 1 66.505935850093081 37.415195857044772 9.0122127390762525 1 rotate no_reflect no_shear #
shell $-1 $-1 $-1 $60 $-1 $15 #
shell $-1 $-1 $-1 $61 $-1 $17 #
shell $-1 $-1 $-1 $62 $-1 $19 #
shell $-1 $-1 $-1 $63 $-1 $21 #
shell $-1 $-1 $-1 $64 $-1 $23 #
shell $-1 $-1 $-1 $65 $-1 $25 #
shell $-1 $-1 $-1 $66 $-1 $27 #
shell $-1 $-1 $-1 $67 $-1 $29 #
shell $-1 $-1 $-1 $68 $-1 $31 #
shell $-1 $-1 $-1 $69 $-1 $33 #
shell $-1 $-1 $-1 $70 $-1 $35 #
shell $-1 $-1 $-1 $71 $-1 $37 #
shell $-1 $-1 $-1 $72 $-1 $39 #
shell $-1 $-1 $-1 $73 $-1 $41 #
shell $-1 $-1 $-1 $74 $-1 $43 #
face $-1 $75 $76 $45 $-1 $77 forward single #
face $-1 $78 $79 $46 $-1 $80 reversed single #
face $-1 $81 $82 $47 $-1 $83 reversed single #
face $-1 $84 $85 $48 $-1 $86 reversed single #
face $-1 $87 $88 $49 $-1 $89 forward single #
face $-1 $90 $91 $50 $-1 $92 forward single #
face $-1 $93 $94 $51 $-1 $95 forward single #
face $-1 $96 $97 $52 $-1 $98 reversed single #
face $-1 $99 $100 $53 $-1 $101 forward single #
face $-1 $102 $103 $54 $-1 $104 reversed single #
face $-1 $105 $106 $55 $-1 $107 forward single #
face $-1 $108 $109 $56 $-1 $110 reversed single #
face $-1 $111 $112 $57 $-1 $113 forward single #
face $-1 $114 $115 $58 $-1 $116 reversed single #
face $-1 $117 $118 $59 $-1 $119 forward single #
face $-1 $120 $121 $45 $-1 $122 reversed single #
loop $-1 $-1 $123 $60 #
plane-surface $-1 0 0 9.0122127390762525 0 0 1 1 0 0 forward_v I I I I #
face $-1 $124 $125 $46 $-1 $126 reversed single #
loop $-1 $-1 $127 $61 #
plane-surface $-1 -64.025713955590447 -27.75728985600481 0 0 -1 0 0 0 -1 forward_v I I I I #
face $-1 $128 $129 $47 $-1 $130 reversed single #
loop $-1 $-1 $131 $62 #
plane-surface $-1 -64.025713955590447 27.757289856004817 0 0 1 0 0 0 1 forward_v I I I I #
face $-1 $132 $133 $48 $-1 $134 reversed single #
loop $-1 $-1 $135 $63 #
plane-surface $-1 112.01318731256139 10.423137925302616 185.7441484744127 0 -1 0 -0.85716730853699208 0 -0.51503806187062418 forward_v I I I I #
face $-1 $136 $137 $49 $-1 $138 forward single #
loop $-1 $139 $140 $64 #
cone-surface $-1 64.338561084843903 4.2348535275390446 5.8608592383270235 -0.85716730853699208 0 -0.51503806187062418 0.25751903093531209 0 -0.42858365426849604 1 I I 0 1 0.5 forward I I I I #
face $-1 $141 $142 $50 $-1 $143 forward single #
loop $-1 $144 $145 $65 #
cone-surface $-1 64.338561084843903 6.5554601767003859 5.8608592383270235 -0.85716730853699208 0 -0.51503806187062418 0.25751903093531209 0 -0.42858365426849604 1 I I 0 1 0.5 forward I I I I #
face $-1 $146 $147 $51 $-1 $148 forward single #
loop $-1 $149 $150 $66 #
cone-surface $-1 64.338561084843903 8.8760668258617272 5.8608592383270235 -0.85716730853699208 0 -0.51503806187062418 0.25751903093531209 0 -0.42858365426849604 1 I I 0 1 0.5 forward I I I I #
face $-1 $151 $152 $52 $-1 $153 reversed single #
loop $-1 $-1 $154 $67 #
plane-surface $-1 -66.505935850093067 -23.621470726328312 1.5385114236016051 -0.80901700255871778 0 0.5877852410284794 0.5877852410284794 0 0.80901700255871778 forward_v I I I I #
face $-1 $155 $156 $53 $-1 $157 forward single #
loop $-1 $158 $159 $68 #
cone-surface $-1 -62.593070612699137 -23.621470726328312 4.4050481515016422 0.80901700255871778 0 -0.5877852410284794 1.1755704820569588 0 1.6180340051174356 1 I I 0 1 2 forward I I I I #
face $-1 $160 $161 $54 $-1 $162 reversed single #
loop $-1 $-1 $163 $69 #
plane-surface $-1 -174.11480159770241 -13.878644928002403 79.720926490544713 0 1 0 -0.80901700255871778 0 0.5877852410284794 forward_v I I I I #
face $-1 $164 $165 $55 $-1 $166 forward single #
loop $-1 $167 $168 $70 #
cone-surface $-1 -62.593070612699137 -9.7428257983259066 4.4050481515016422 0.80901700255871778 0 -0.5877852410284794 1.1755704820569588 0 1.6180340051174356 1 I I 0 1 2 forward I I I I #
face $-1 $169 $170 $56 $-1 $171 reversed single #
loop $-1 $-1 $172 $71 #
plane-surface $-1 -174.11480159770241 5.3290705182007514e-015 79.720926490544713 0 1 0 -0.80901700255871778 0 0.5877852410284794 forward_v I I I I #
face $-1 $173 $174 $57 $-1 $175 forward single #
loop $-1 $176 $177 $72 #
cone-surface $-1 -62.593070612699137 4.1358191296764986 4.4050481515016422 0.80901700255871778 0 -0.5877852410284794 1.1755704820569588 0 1.6180340051174356 1 I I 0 1 2 forward I I I I #
face $-1 $178 $179 $58 $-1 $180 reversed single #
loop $-1 $-1 $181 $73 #
plane-surface $-1 -174.11480159770241 13.878644928002407 79.720926490544713 0 1 0 -0.80901700255871778 0 0.5877852410284794 forward_v I I I I #
face $-1 $182 $183 $59 $-1 $184 forward single #
loop $-1 $185 $186 $74 #
cone-surface $-1 -62.593070612699137 18.0144640576789 4.4050481515016422 0.80901700255871778 0 -0.5877852410284794 1.1755704820569588 0 1.6180340051174356 1 I I 0 1 2 forward I I I I #
face $-1 $187 $188 $45 $-1 $189 reversed single #
loop $-1 $-1 $190 $75 #
plane-surface $-1 0 0 -9.0122127390762525 0 0 1 1 0 0 forward_v I I I I #
coedge $-1 $191 $192 $193 $194 forward $76 $-1 #
face $-1 $195 $196 $46 $-1 $197 forward single #
loop $-1 $-1 $198 $78 #
plane-surface $-1 -61.545492061087813 -32.586242856524791 0 -1 0 0 0 0 1 forward_v I I I I #
coedge $-1 $199 $200 $201 $202 forward $79 $-1 #
face $-1 $203 $204 $47 $-1 $205 reversed single #
loop $-1 $-1 $206 $81 #
plane-surface $-1 -61.545492061087813 32.586242856524798 0 -1 0 0 0 0 1 forward_v I I I I #
coedge $-1 $207 $208 $209 $210 reversed $82 $-1 #
face $-1 $211 $212 $48 $-1 $213 reversed single #
loop $-1 $-1 $214 $84 #
plane-surface $-1 -2.0002407561548949 6.5554601767003859 117.23797186816469 0.85716730853699208 0 0.51503806187062418 0.51503806187062418 0 -0.85716730853699208 forward_v I I I I #
coedge $-1 $215 $216 $217 $218 reversed $85 $-1 #
face $-1 $-1 $219 $49 $-1 $220 forward single #
loop $-1 $221 $222 $87 #
cone-surface $-1 63.695685603441163 4.2348535275390446 5.4745806919240554 -0.85716730853699208 0 -0.51503806187062418 0.12875951546765604 0 -0.21429182713424802 1 I I -0.70710678118654746 0.70710678118654746 0.25 forward I I I I #
loop $-1 $-1 $223 $64 #
coedge $-1 $140 $140 $224 $225 reversed $88 $-1 #
face $-1 $-1 $226 $50 $-1 $227 forward single #
loop $-1 $228 $229 $90 #
cone-surface $-1 63.695685603441163 6.5554601767003859 5.4745806919240554 -0.85716730853699208 0 -0.51503806187062418 0.12875951546765604 0 -0.21429182713424802 1 I I -0.70710678118654746 0.70710678118654746 0.25 forward I I I I #
loop $-1 $-1 $230 $65 #
coedge $-1 $145 $145 $231 $232 reversed $91 $-1 #
face $-1 $-1 $233 $51 $-1 $234 forward single #
loop $-1 $235 $236 $93 #
cone-surface $-1 63.695685603441163 8.8760668258617272 5.4745806919240554 -0.85716730853699208 0 -0.51503806187062418 0.12875951546765604 0 -0.21429182713424802 1 I I -0.70710678118654746 0.70710678118654746 0.25 forward I I I I #
loop $-1 $-1 $237 $66 #
coedge $-1 $150 $150 $238 $239 reversed $94 $-1 #
face $-1 $240 $241 $52 $-1 $242 forward single #
loop $-1 $-1 $243 $96 #
plane-surface $-1 -174.11480159770241 -19.48565159665182 79.720926490544713 0 -1 0 0.80901700255871778 0 -0.5877852410284794 forward_v I I I I #
coedge $-1 $244 $245 $246 $247 reversed $97 $-1 #
face $-1 $-1 $248 $53 $-1 $249 forward single #
loop $-1 $250 $251 $99 #
cone-surface $-1 -60.586169216905112 -23.621470726328312 2.9469489806358649 0.80901700255871778 0 -0.5877852410284794 0.5877852410284794 0 0.80901700255871778 1 I I -0.70710678118654746 0.70710678118654746 1 forward I I I I #
loop $-1 $-1 $252 $68 #
coedge $-1 $159 $159 $253 $254 reversed $100 $-1 #
face $-1 $255 $256 $54 $-1 $257 reversed single #
loop $-1 $-1 $258 $102 #
plane-surface $-1 -66.505935850093067 -9.7428257983259101 1.5385114236016051 -0.80901700255871778 0 0.5877852410284794 0.5877852410284794 0 0.80901700255871778 forward_v I I I I #
coedge $-1 $259 $260 $261 $262 reversed $103 $-1 #
face $-1 $-1 $263 $55 $-1 $264 forward single #
loop $-1 $265 $266 $105 #
cone-surface $-1 -60.586169216905112 -9.7428257983259066 2.9469489806358649 0.80901700255871778 0 -0.5877852410284794 0.5877852410284794 0 0.80901700255871778 1 I I -0.70710678118654746 0.70710678118654746 1 forward I I I I #
loop $-1 $-1 $267 $70 #
coedge $-1 $168 $168 $268 $269 reversed $106 $-1 #
face $-1 $270 $271 $56 $-1 $272 reversed single #
loop $-1 $-1 $273 $108 #
plane-surface $-1 -66.505935850093067 4.1358191296764986 1.5385114236016051 -0.80901700255871778 0 0.5877852410284794 0.5877852410284794 0 0.80901700255871778 forward_v I I I I #
coedge $-1 $274 $275 $276 $277 reversed $109 $-1 #
face $-1 $-1 $278 $57 $-1 $279 forward single #
loop $-1 $280 $281 $111 #
cone-surface $-1 -60.586169216905112 4.1358191296764986 2.9469489806358649 0.80901700255871778 0 -0.5877852410284794 0.5877852410284794 0 0.80901700255871778 1 I I -0.70710678118654746 0.70710678118654746 1 forward I I I I #
loop $-1 $-1 $282 $72 #
coedge $-1 $177 $177 $283 $284 reversed $112 $-1 #
face $-1 $285 $286 $58 $-1 $287 reversed single #
loop $-1 $-1 $288 $114 #
plane-surface $-1 -66.505935850093067 18.0144640576789 1.5385114236016051 -0.80901700255871778 0 0.5877852410284794 0.5877852410284794 0 0.80901700255871778 forward_v I I I I #
coedge $-1 $289 $290 $291 $292 reversed $115 $-1 #
face $-1 $-1 $293 $59 $-1 $294 forward single #
loop $-1 $295 $296 $117 #
cone-surface $-1 -60.586169216905112 18.0144640576789 2.9469489806358649 0.80901700255871778 0 -0.5877852410284794 0.5877852410284794 0 0.80901700255871778 1 I I -0.70710678118654746 0.70710678118654746 1 forward I I I I #
loop $-1 $-1 $297 $74 #
coedge $-1 $186 $186 $298 $299 reversed $118 $-1 #
face $-1 $300 $301 $45 $-1 $302 reversed single #
loop $-1 $-1 $303 $120 #
plane-surface $-1 0 -37.415195857044772 0 0 1 0 0 0 1 forward_v I I I I #
coedge $-1 $304 $305 $306 $307 forward $121 $-1 #
coedge $-1 $308 $123 $309 $310 forward $76 $-1 #
coedge $-1 $123 $308 $311 $312 forward $76 $-1 #
coedge $-1 $313 $314 $123 $194 reversed $315 $-1 #
edge $-1 $316 -37.415195857044772 $317 37.415195857044772 $193 $318 forward 7 unknown #
face $-1 $319 $320 $46 $-1 $321 reversed single #
loop $-1 $-1 $322 $124 #
plane-surface $-1 0 0 9.0122127390762525 0 0 1 1 0 0 forward_v I I I I #
coedge $-1 $323 $324 $325 $326 reversed $125 $-1 #
coedge $-1 $327 $127 $328 $329 reversed $79 $-1 #
coedge $-1 $127 $327 $330 $331 reversed $79 $-1 #
coedge $-1 $324 $323 $127 $202 reversed $125 $-1 #
edge $-1 $332 -9.0122127390762525 $333 9.0122127390762525 $201 $334 forward 7 unknown #
face $-1 $335 $336 $47 $-1 $337 reversed single #
loop $-1 $-1 $338 $128 #
plane-surface $-1 0 0 -9.0122127390762525 0 0 1 1 0 0 forward_v I I I I #
coedge $-1 $339 $340 $341 $342 forward $129 $-1 #
coedge $-1 $341 $131 $343 $344 reversed $82 $-1 #
coedge $-1 $131 $341 $345 $346 reversed $82 $-1 #
coedge $-1 $347 $348 $131 $210 forward $336 $-1 #
edge $-1 $349 -9.0122127390762525 $350 9.0122127390762525 $209 $351 forward 7 unknown #
face $-1 $352 $353 $48 $-1 $354 reversed single #
loop $-1 $-1 $355 $132 #
plane-surface $-1 112.01318731256139 2.6877824280981564 185.7441484744127 0 1 0 0.85716730853699208 0 0.51503806187062418 forward_v I I I I #
coedge $-1 $356 $357 $358 $359 reversed $133 $-1 #
coedge $-1 $216 $135 $360 $361 reversed $85 $-1 #
coedge $-1 $135 $215 $356 $362 reversed $85 $-1 #
coedge $-1 $358 $363 $135 $218 forward $364 $-1 #
edge $-1 $365 -10.499342193812389 $366 -7.0217599718510471 $217 $367 forward 7 unknown #
loop $-1 $-1 $224 $136 #
plane-surface $-1 -2.0002407561548949 6.5554601767003859 117.23797186816469 0.85716730853699208 0 0.51503806187062418 0.51503806187062418 0 -0.85716730853699208 forward_v I I I I #
loop $-1 $-1 $368 $87 #
coedge $-1 $222 $222 $223 $369 reversed $137 $-1 #
coedge $-1 $223 $223 $222 $369 forward $139 $-1 #
coedge $-1 $224 $224 $140 $225 forward $219 $-1 #
edge $-1 $370 0 $370 6.2831853071796004 $224 $371 forward 7 unknown #
loop $-1 $-1 $231 $141 #
plane-surface $-1 -2.0002407561548949 6.5554601767003859 117.23797186816469 0.85716730853699208 0 0.51503806187062418 0.51503806187062418 0 -0.85716730853699208 forward_v I I I I #
loop $-1 $-1 $372 $90 #
coedge $-1 $229 $229 $230 $373 reversed $142 $-1 #
coedge $-1 $230 $230 $229 $373 forward $144 $-1 #
coedge $-1 $231 $231 $145 $232 forward $226 $-1 #
edge $-1 $374 0 $374 6.2831853071796004 $231 $375 forward 7 unknown #
loop $-1 $-1 $238 $146 #
plane-surface $-1 -2.0002407561548949 6.5554601767003859 117.23797186816469 0.85716730853699208 0 0.51503806187062418 0.51503806187062418 0 -0.85716730853699208 forward_v I I I I #
loop $-1 $-1 $376 $93 #
coedge $-1 $236 $236 $237 $377 reversed $147 $-1 #
coedge $-1 $237 $237 $236 $377 forward $149 $-1 #
coedge $-1 $238 $238 $150 $239 forward $233 $-1 #
edge $-1 $378 0 $378 6.2831853071796004 $238 $379 forward 7 unknown #
face $-1 $380 $381 $52 $-1 $382 reversed single #
loop $-1 $-1 $383 $151 #
plane-surface $-1 0 0 9.0122127390762525 0 0 1 1 0 0 forward_v I I I I #
coedge $-1 $384 $385 $386 $387 reversed $152 $-1 #
coedge $-1 $388 $154 $389 $390 reversed $97 $-1 #
coedge $-1 $154 $388 $384 $391 forward $97 $-1 #
coedge $-1 $386 $383 $154 $247 forward $241 $-1 #
edge $-1 $392 -15.946554492840647 $393 -7.6749162334876644 $246 $394 forward 7 unknown #
loop $-1 $-1 $253 $155 #
plane-surface $-1 -66.505935850093067 -23.621470726328312 1.5385114236016051 -0.80901700255871778 0 0.5877852410284794 0.5877852410284794 0 0.80901700255871778 forward_v I I I I #
loop $-1 $-1 $395 $99 #
coedge $-1 $251 $251 $252 $396 reversed $156 $-1 #
coedge $-1 $252 $252 $251 $396 forward $158 $-1 #
coedge $-1 $253 $253 $159 $254 forward $248 $-1 #
edge $-1 $397 0 $397 6.2831853071796004 $253 $398 forward 7 unknown #
face $-1 $399 $400 $54 $-1 $401 forward single #
loop $-1 $-1 $402 $160 #
plane-surface $-1 -174.11480159770241 -5.6070066686494169 79.720926490544713 0 -1 0 0.80901700255871778 0 -0.5877852410284794 forward_v I I I I #
coedge $-1 $403 $404 $405 $406 reversed $161 $-1 #
coedge $-1 $260 $163 $407 $408 reversed $103 $-1 #
coedge $-1 $163 $259 $403 $409 reversed $103 $-1 #
coedge $-1 $405 $410 $163 $262 forward $400 $-1 #
edge $-1 $411 20.551464948758124 $412 25.98142663707543 $261 $413 forward 7 unknown #
loop $-1 $-1 $268 $164 #
plane-surface $-1 -66.505935850093067 -9.7428257983259101 1.5385114236016051 -0.80901700255871778 0 0.5877852410284794 0.5877852410284794 0 0.80901700255871778 forward_v I I I I #
loop $-1 $-1 $414 $105 #
coedge $-1 $266 $266 $267 $415 reversed $165 $-1 #
coedge $-1 $267 $267 $266 $415 forward $167 $-1 #
coedge $-1 $268 $268 $168 $269 forward $263 $-1 #
edge $-1 $416 0 $416 6.2831853071796004 $268 $417 forward 7 unknown #
face $-1 $418 $419 $56 $-1 $420 forward single #
loop $-1 $-1 $421 $169 #
plane-surface $-1 -174.11480159770241 8.2716382593529918 79.720926490544713 0 -1 0 0.80901700255871778 0 -0.5877852410284794 forward_v I I I I #
coedge $-1 $422 $423 $424 $425 reversed $170 $-1 #
coedge $-1 $275 $172 $426 $427 reversed $109 $-1 #
coedge $-1 $172 $274 $422 $428 reversed $109 $-1 #
coedge $-1 $424 $429 $172 $277 forward $419 $-1 #
edge $-1 $430 20.551464948758124 $431 25.98142663707543 $276 $432 forward 7 unknown #
loop $-1 $-1 $283 $173 #
plane-surface $-1 -66.505935850093067 4.1358191296764986 1.5385114236016051 -0.80901700255871778 0 0.5877852410284794 0.5877852410284794 0 0.80901700255871778 forward_v I I I I #
loop $-1 $-1 $433 $111 #
coedge $-1 $281 $281 $282 $434 reversed $174 $-1 #
coedge $-1 $282 $282 $281 $434 forward $176 $-1 #
coedge $-1 $283 $283 $177 $284 forward $278 $-1 #
edge $-1 $435 0 $435 6.2831853071796004 $283 $436 forward 7 unknown #
face $-1 $437 $438 $58 $-1 $439 forward single #
loop $-1 $-1 $440 $178 #
plane-surface $-1 -174.11480159770241 22.150283187355392 79.720926490544713 0 -1 0 0.80901700255871778 0 -0.5877852410284794 forward_v I I I I #
coedge $-1 $441 $442 $443 $444 reversed $179 $-1 #
coedge $-1 $290 $181 $445 $446 reversed $115 $-1 #
coedge $-1 $181 $289 $441 $447 reversed $115 $-1 #
coedge $-1 $443 $448 $181 $292 forward $438 $-1 #
edge $-1 $449 20.551464948758124 $450 25.98142663707543 $291 $451 forward 7 unknown #
loop $-1 $-1 $298 $182 #
plane-surface $-1 -66.505935850093067 18.0144640576789 1.5385114236016051 -0.80901700255871778 0 0.5877852410284794 0.5877852410284794 0 0.80901700255871778 forward_v I I I I #
loop $-1 $-1 $452 $117 #
coedge $-1 $296 $296 $297 $453 reversed $183 $-1 #
coedge $-1 $297 $297 $296 $453 forward $185 $-1 #
coedge $-1 $298 $298 $186 $299 forward $293 $-1 #
edge $-1 $454 0 $454 6.2831853071796004 $298 $455 forward 7 unknown #
face $-1 $456 $457 $45 $-1 $458 reversed single #
loop $-1 $-1 $459 $187 #
plane-surface $-1 -66.505935850093081 0 0 1 0 0 0 0 -1 forward_v I I I I #
coedge $-1 $460 $311 $461 $462 forward $188 $-1 #
coedge $-1 $463 $190 $460 $464 forward $121 $-1 #
coedge $-1 $190 $463 $465 $466 forward $121 $-1 #
coedge $-1 $314 $313 $190 $307 reversed $315 $-1 #
edge $-1 $467 -37.415195857044772 $468 37.415195857044772 $306 $469 forward 7 unknown #
coedge $-1 $192 $191 $470 $471 forward $76 $-1 #
coedge $-1 $472 $473 $191 $310 reversed $457 $-1 #
edge $-1 $317 -66.505935850093081 $474 66.505935850093081 $309 $475 forward 7 unknown #
coedge $-1 $303 $476 $192 $312 reversed $188 $-1 #
edge $-1 $477 -66.505935850093081 $316 66.505935850093081 $311 $478 forward 7 unknown #
coedge $-1 $306 $193 $476 $479 forward $315 $-1 #
coedge $-1 $193 $306 $472 $480 reversed $315 $-1 #
loop $-1 $-1 $313 $456 #
vertex $-1 $194 $481 #
vertex $-1 $194 $482 #
straight-curve $-1 66.505935850093081 0 9.0122127390762525 0 1 0 I I #
face $-1 $483 $484 $46 $-1 $485 reversed single #
loop $-1 $-1 $486 $195 #
plane-surface $-1 -66.505935850093081 0 0 1 0 0 0 0 -1 forward_v I I I I #
coedge $-1 $330 $487 $324 $488 forward $196 $-1 #
coedge $-1 $201 $198 $489 $490 reversed $125 $-1 #
coedge $-1 $198 $201 $322 $488 reversed $125 $-1 #
coedge $-1 $491 $492 $198 $326 forward $493 $-1 #
edge $-1 $494 -9.0122127390762525 $495 9.0122127390762525 $325 $496 forward 7 unknown #
coedge $-1 $200 $199 $486 $497 reversed $79 $-1 #
coedge $-1 $489 $498 $199 $329 forward $484 $-1 #
edge $-1 $499 -34.493078872297858 $333 -29.53263508329259 $328 $500 forward 7 unknown #
coedge $-1 $501 $322 $200 $331 forward $196 $-1 #
edge $-1 $332 29.53263508329259 $502 34.493078872297858 $330 $503 forward 7 unknown #
vertex $-1 $331 $504 #
vertex $-1 $329 $505 #
straight-curve $-1 -61.545492061087813 -27.75728985600481 0 0 0 -1 I I #
face $-1 $506 $507 $47 $-1 $508 forward single #
loop $-1 $-1 $209 $203 #
plane-surface $-1 -66.505935850093081 0 0 1 0 0 0 0 -1 forward_v I I I I #
coedge $-1 $343 $509 $339 $510 forward $204 $-1 #
coedge $-1 $511 $206 $338 $510 reversed $129 $-1 #
coedge $-1 $206 $511 $512 $513 reversed $129 $-1 #
coedge $-1 $208 $207 $206 $342 reversed $82 $-1 #
edge $-1 $514 -9.0122127390762525 $515 9.0122127390762525 $206 $516 forward 7 unknown #
coedge $-1 $517 $338 $207 $344 forward $204 $-1 #
edge $-1 $515 29.53263508329259 $349 34.493078872297858 $343 $518 forward 7 unknown #
coedge $-1 $512 $519 $208 $346 forward $507 $-1 #
edge $-1 $350 -34.493078872297858 $514 -29.53263508329259 $345 $520 forward 7 unknown #
coedge $-1 $521 $209 $519 $522 reversed $336 $-1 #
coedge $-1 $209 $521 $517 $523 reversed $336 $-1 #
vertex $-1 $523 $524 #
vertex $-1 $210 $525 #
straight-curve $-1 -66.505935850093081 27.757289856004817 0 0 0 1 I I #
face $-1 $-1 $364 $48 $-1 $526 forward single #
loop $-1 $-1 $527 $211 #
plane-surface $-1 66.505935850093081 0 0 -1 0 0 0 0 1 forward_v I I I I #
coedge $-1 $528 $529 $530 $531 reversed $212 $-1 #
coedge $-1 $532 $214 $216 $362 forward $133 $-1 #
coedge $-1 $214 $532 $528 $533 forward $133 $-1 #
coedge $-1 $530 $217 $214 $359 forward $364 $-1 #
edge $-1 $366 -7.1454078369524225 $534 0.5899476602520366 $358 $535 forward 7 unknown #
coedge $-1 $536 $537 $215 $361 forward $353 $-1 #
edge $-1 $538 -89.647530437757879 $365 -83.859861498130101 $360 $539 forward 7 unknown #
edge $-1 $366 126.25978388490752 $538 133.01187170018613 $216 $540 forward 7 unknown #
coedge $-1 $217 $530 $536 $541 forward $364 $-1 #
loop $-1 $-1 $530 $352 #
vertex $-1 $361 $542 #
vertex $-1 $218 $543 #
straight-curve $-1 56.006593656280693 10.423137925302616 9.0122127390762472 -1 0 0 I I #
coedge $-1 $368 $368 $-1 $544 reversed $221 $-1 #
edge $-1 $545 0 $545 6.2831853071796004 $222 $546 forward 7 unknown #
vertex $-1 $225 $547 #
ellipse-curve $-1 64.76714473911241 4.2348535275390446 6.1183782692623465 0.85716730853699208 0 0.51503806187062418 0.25751903093531209 0 -0.42858365426849604 1 I I #
coedge $-1 $372 $372 $-1 $548 reversed $228 $-1 #
edge $-1 $549 0 $549 6.2831853071796004 $229 $550 forward 7 unknown #
vertex $-1 $232 $551 #
ellipse-curve $-1 64.76714473911241 6.5554601767003859 6.1183782692623465 0.85716730853699208 0 0.51503806187062418 0.25751903093531209 0 -0.42858365426849604 1 I I #
coedge $-1 $376 $376 $-1 $552 reversed $235 $-1 #
edge $-1 $553 0 $553 6.2831853071796004 $236 $554 forward 7 unknown #
vertex $-1 $239 $555 #
ellipse-curve $-1 64.76714473911241 8.8760668258617272 6.1183782692623465 0.85716730853699208 0 0.51503806187062418 0.25751903093531209 0 -0.42858365426849604 1 I I #
face $-1 $-1 $556 $52 $-1 $557 forward single #
loop $-1 $-1 $558 $240 #
plane-surface $-1 -66.505935850093081 0 0 1 0 0 0 0 -1 forward_v I I I I #
coedge $-1 $246 $559 $560 $561 forward $241 $-1 #
coedge $-1 $385 $243 $245 $391 reversed $152 $-1 #
coedge $-1 $243 $384 $562 $563 reversed $152 $-1 #
coedge $-1 $559 $246 $243 $387 forward $241 $-1 #
edge $-1 $393 -25.98142663707543 $564 -20.551464948758124 $386 $565 forward 7 unknown #
coedge $-1 $245 $244 $558 $566 reversed $97 $-1 #
coedge $-1 $560 $567 $244 $390 forward $556 $-1 #
edge $-1 $568 -0.10657796186993304 $392 9.1314248141375227 $389 $569 forward 7 unknown #
edge $-1 $570 -2.4161062406544664e-014 $393 9.2380027760074324 $384 $571 forward 7 unknown #
vertex $-1 $561 $572 #
vertex $-1 $247 $573 #
straight-curve $-1 -61.075974161775775 -11.810735363164156 9.0122127390762525 0 1 0 I I #
coedge $-1 $395 $395 $-1 $574 reversed $250 $-1 #
edge $-1 $575 0 $575 6.2831853071796004 $251 $576 forward 7 unknown #
vertex $-1 $254 $577 #
ellipse-curve $-1 -63.790955005934421 -23.621470726328312 5.2753620813389253 -0.80901700255871778 0 0.5877852410284794 1.1755704820569588 0 1.6180340051174356 1 I I #
face $-1 $-1 $578 $54 $-1 $579 reversed single #
loop $-1 $-1 $261 $255 #
plane-surface $-1 0 0 9.0122127390762525 0 0 1 1 0 0 forward_v I I I I #
coedge $-1 $580 $581 $582 $583 reversed $256 $-1 #
coedge $-1 $584 $258 $260 $409 forward $161 $-1 #
coedge $-1 $258 $584 $580 $585 forward $161 $-1 #
coedge $-1 $582 $261 $258 $406 forward $400 $-1 #
edge $-1 $412 -9.0072320288394483 $586 -0.73559376948646182 $405 $587 forward 7 unknown #
coedge $-1 $588 $589 $259 $408 forward $578 $-1 #
edge $-1 $590 -38.321951821670773 $411 -30.848250506196102 $407 $591 forward 7 unknown #
edge $-1 $412 -9.2380027760074324 $590 2.4161062406544664e-014 $260 $592 forward 7 unknown #
coedge $-1 $261 $582 $588 $593 forward $400 $-1 #
vertex $-1 $262 $594 #
vertex $-1 $262 $595 #
straight-curve $-1 -87.057400798851205 -13.878644928002403 9.0122127390762543 1 0 0 I I #
coedge $-1 $414 $414 $-1 $596 reversed $265 $-1 #
edge $-1 $597 0 $597 6.2831853071796004 $266 $598 forward 7 unknown #
vertex $-1 $269 $599 #
ellipse-curve $-1 -63.790955005934421 -9.7428257983259066 5.2753620813389253 -0.80901700255871778 0 0.5877852410284794 1.1755704820569588 0 1.6180340051174356 1 I I #
face $-1 $-1 $600 $56 $-1 $601 reversed single #
loop $-1 $-1 $276 $270 #
plane-surface $-1 0 0 9.0122127390762525 0 0 1 1 0 0 forward_v I I I I #
coedge $-1 $602 $603 $604 $605 reversed $271 $-1 #
coedge $-1 $606 $273 $275 $428 forward $170 $-1 #
coedge $-1 $273 $606 $602 $607 forward $170 $-1 #
coedge $-1 $604 $276 $273 $425 forward $419 $-1 #
edge $-1 $431 -2.067909564838244 $608 6.2037286945147425 $424 $609 forward 7 unknown #
coedge $-1 $610 $611 $274 $427 forward $600 $-1 #
edge $-1 $612 -38.321951821670773 $430 -30.848250506196102 $426 $613 forward 7 unknown #
edge $-1 $431 -9.2380027760074324 $612 2.4161062406544664e-014 $275 $614 forward 7 unknown #
coedge $-1 $276 $604 $610 $615 forward $419 $-1 #
vertex $-1 $277 $616 #
vertex $-1 $277 $617 #
straight-curve $-1 -87.057400798851205 5.3290705182007514e-015 9.0122127390762543 1 0 0 I I #
coedge $-1 $433 $433 $-1 $618 reversed $280 $-1 #
edge $-1 $619 0 $619 6.2831853071796004 $281 $620 forward 7 unknown #
vertex $-1 $284 $621 #
ellipse-curve $-1 -63.790955005934421 4.1358191296764986 5.2753620813389253 -0.80901700255871778 0 0.5877852410284794 1.1755704820569588 0 1.6180340051174356 1 I I #
face $-1 $-1 $622 $58 $-1 $623 reversed single #
loop $-1 $-1 $291 $285 #
plane-surface $-1 0 0 9.0122127390762525 0 0 1 1 0 0 forward_v I I I I #
coedge $-1 $624 $625 $626 $627 reversed $286 $-1 #
coedge $-1 $628 $288 $290 $447 forward $179 $-1 #
coedge $-1 $288 $628 $624 $629 forward $179 $-1 #
coedge $-1 $626 $291 $288 $444 forward $438 $-1 #
edge $-1 $450 4.8714128991629568 $630 13.143051158515942 $443 $631 forward 7 unknown #
coedge $-1 $632 $633 $289 $446 forward $622 $-1 #
edge $-1 $634 -38.321951821670773 $449 -30.848250506196102 $445 $635 forward 7 unknown #
edge $-1 $450 -9.2380027760074324 $634 2.4161062406544664e-014 $290 $636 forward 7 unknown #
coedge $-1 $291 $626 $632 $637 forward $438 $-1 #
vertex $-1 $292 $638 #
vertex $-1 $292 $639 #
straight-curve $-1 -87.057400798851205 13.878644928002407 9.0122127390762543 1 0 0 I I #
coedge $-1 $452 $452 $-1 $640 reversed $295 $-1 #
edge $-1 $641 0 $641 6.2831853071796004 $296 $642 forward 7 unknown #
vertex $-1 $299 $643 #
ellipse-curve $-1 -63.790955005934421 18.0144640576789 5.2753620813389253 -0.80901700255871778 0 0.5877852410284794 1.1755704820569588 0 1.6180340051174356 1 I I #
face $-1 $-1 $315 $45 $-1 $644 reversed single #
loop $-1 $-1 $472 $300 #
plane-surface $-1 0 37.415195857044772 0 0 -1 0 0 0 -1 forward_v I I I I #
coedge $-1 $645 $470 $473 $646 forward $301 $-1 #
coedge $-1 $476 $303 $304 $464 reversed $188 $-1 #
coedge $-1 $470 $645 $303 $462 reversed $301 $-1 #
edge $-1 $477 -9.0122127390762525 $647 9.0122127390762525 $461 $648 forward 7 unknown #
coedge $-1 $305 $304 $645 $649 forward $121 $-1 #
edge $-1 $468 -66.505935850093081 $647 66.505935850093081 $460 $650 forward 7 unknown #
coedge $-1 $473 $472 $305 $466 reversed $457 $-1 #
edge $-1 $651 -66.505935850093081 $467 66.505935850093081 $465 $652 forward 7 unknown #
vertex $-1 $307 $653 #
vertex $-1 $479 $654 #
straight-curve $-1 66.505935850093081 0 -9.0122127390762525 0 -1 0 I I #
coedge $-1 $459 $461 $308 $471 reversed $301 $-1 #
edge $-1 $474 -37.415195857044772 $477 37.415195857044772 $470 $655 forward 7 unknown #
coedge $-1 $465 $309 $314 $480 forward $457 $-1 #
coedge $-1 $309 $465 $459 $646 reversed $457 $-1 #
vertex $-1 $310 $656 #
straight-curve $-1 0 37.415195857044772 9.0122127390762525 -1 0 0 I I #
coedge $-1 $311 $460 $313 $479 reversed $188 $-1 #
vertex $-1 $471 $657 #
straight-curve $-1 0 -37.415195857044772 9.0122127390762525 1 0 0 I I #
edge $-1 $316 -9.0122127390762525 $468 9.0122127390762525 $313 $658 forward 7 unknown #
edge $-1 $317 -9.0122127390762525 $467 9.0122127390762525 $314 $659 forward 7 unknown #
point $-1 66.505935850093081 -37.415195857044772 9.0122127390762525 #
point $-1 66.505935850093081 37.415195857044772 9.0122127390762525 #
face $-1 $-1 $493 $46 $-1 $660 reversed single #
loop $-1 $-1 $489 $319 #
plane-surface $-1 0 0 -9.0122127390762525 0 0 1 1 0 0 forward_v I I I I #
coedge $-1 $661 $662 $327 $497 forward $320 $-1 #
coedge $-1 $322 $501 $491 $663 forward $196 $-1 #
edge $-1 $495 -21.122074428782376 $332 -11.464168427742415 $322 $664 forward 7 unknown #
coedge $-1 $665 $328 $323 $490 forward $484 $-1 #
edge $-1 $333 11.464168427742415 $494 21.122074428782376 $489 $666 forward 7 unknown #
coedge $-1 $667 $325 $487 $663 reversed $493 $-1 #
coedge $-1 $325 $667 $665 $668 reversed $493 $-1 #
loop $-1 $-1 $325 $483 #
vertex $-1 $668 $669 #
vertex $-1 $326 $670 #
straight-curve $-1 -61.545492061087813 -37.415195857044772 0 0 0 1 I I #
edge $-1 $502 -9.0122127390762525 $499 9.0122127390762525 $486 $671 forward 7 unknown #
coedge $-1 $328 $665 $661 $672 forward $484 $-1 #
vertex $-1 $329 $673 #
straight-curve $-1 -32.012856977795224 -27.75728985600481 -9.0122127390762525 1 0 0 I I #
coedge $-1 $487 $330 $662 $674 forward $196 $-1 #
vertex $-1 $674 $675 #
straight-curve $-1 -32.012856977795224 -27.75728985600481 9.0122127390762525 -1 0 0 I I #
point $-1 -61.545492061087813 -27.75728985600481 9.0122127390762525 #
point $-1 -61.545492061087813 -27.75728985600481 -9.0122127390762525 #
face $-1 $-1 $676 $47 $-1 $677 reversed single #
loop $-1 $-1 $512 $335 #
plane-surface $-1 0 0 9.0122127390762525 0 0 1 1 0 0 forward_v I I I I #
coedge $-1 $338 $517 $678 $679 forward $204 $-1 #
edge $-1 $680 -21.12207442878238 $515 -11.464168427742418 $338 $681 forward 7 unknown #
coedge $-1 $340 $339 $682 $683 reversed $129 $-1 #
coedge $-1 $684 $345 $340 $513 forward $507 $-1 #
edge $-1 $514 11.464168427742418 $685 21.12207442878238 $512 $686 forward 7 unknown #
vertex $-1 $346 $687 #
vertex $-1 $344 $688 #
straight-curve $-1 -61.545492061087813 27.757289856004817 0 0 0 -1 I I #
coedge $-1 $509 $343 $348 $523 forward $204 $-1 #
straight-curve $-1 -32.012856977795224 27.757289856004817 -9.0122127390762525 -1 0 0 I I #
coedge $-1 $345 $684 $347 $522 forward $507 $-1 #
straight-curve $-1 -32.012856977795224 27.757289856004817 9.0122127390762525 1 0 0 I I #
coedge $-1 $348 $347 $689 $690 forward $336 $-1 #
edge $-1 $691 -37.415195857044772 $350 -27.757289856004817 $347 $692 forward 7 unknown #
edge $-1 $349 27.757289856004817 $693 37.415195857044772 $348 $694 forward 7 unknown #
point $-1 -66.505935850093081 27.757289856004817 -9.0122127390762525 #
point $-1 -66.505935850093081 27.757289856004817 9.0122127390762525 #
plane-surface $-1 0 0 9.0122127390762525 0 0 1 1 0 0 forward_v I I I I #
coedge $-1 $537 $536 $529 $695 forward $353 $-1 #
coedge $-1 $529 $355 $357 $533 reversed $212 $-1 #
coedge $-1 $355 $528 $527 $695 reversed $212 $-1 #
coedge $-1 $363 $358 $355 $531 forward $364 $-1 #
edge $-1 $534 7.0217599718510471 $696 10.499342193812389 $530 $697 forward 7 unknown #
coedge $-1 $357 $356 $537 $698 reversed $133 $-1 #
edge $-1 $699 -133.01187170018613 $534 -126.25978388490752 $528 $700 forward 7 unknown #
vertex $-1 $359 $701 #
straight-curve $-1 63.028353628131725 3.277730088350193 9.0122127390762472 0 -1 0 I I #
coedge $-1 $527 $360 $363 $541 reversed $353 $-1 #
coedge $-1 $360 $527 $532 $698 forward $353 $-1 #
vertex $-1 $361 $702 #
straight-curve $-1 66.505935850093081 10.423137925302616 92.872074237206348 0 0 1 I I #
straight-curve $-1 -2.0002407561548949 10.423137925302616 117.23797186816469 0.51503806187062418 0 -0.85716730853699208 I I #
edge $-1 $696 2.6877824280981564 $365 10.423137925302616 $536 $703 forward 7 unknown #
point $-1 66.505935850093081 10.423137925302616 9.0122127390762525 #
point $-1 63.02835362813174 10.423137925302616 9.0122127390762472 #
edge $-1 $704 1 $704 0 $368 $-1 forward 7 unknown #
vertex $-1 $369 $705 #
ellipse-curve $-1 63.90997743057541 4.2348535275390446 5.6033402073917111 0.85716730853699208 0 0.51503806187062418 0.25751903093531209 0 -0.42858365426849604 1 I I #
point $-1 65.024663770047709 4.2348535275390446 5.6897946149938399 #
edge $-1 $706 1 $706 0 $372 $-1 forward 7 unknown #
vertex $-1 $373 $707 #
ellipse-curve $-1 63.90997743057541 6.5554601767003859 5.6033402073917111 0.85716730853699208 0 0.51503806187062418 0.25751903093531209 0 -0.42858365426849604 1 I I #
point $-1 65.024663770047709 6.5554601767003859 5.6897946149938399 #
edge $-1 $708 1 $708 0 $376 $-1 forward 7 unknown #
vertex $-1 $377 $709 #
ellipse-curve $-1 63.90997743057541 8.8760668258617272 5.6033402073917111 0.85716730853699208 0 0.51503806187062418 0.25751903093531209 0 -0.42858365426849604 1 I I #
point $-1 65.024663770047709 8.8760668258617272 5.6897946149938399 #
loop $-1 $-1 $389 $380 #
plane-surface $-1 -64.025713955590447 -27.75728985600481 0 0 -1 0 0 0 -1 forward_v I I I I #
coedge $-1 $710 $562 $388 $566 forward $381 $-1 #
coedge $-1 $383 $386 $711 $712 forward $241 $-1 #
coedge $-1 $567 $389 $383 $561 reversed $556 $-1 #
edge $-1 $713 -34.493078872297858 $392 -29.063117183980552 $383 $714 forward 7 unknown #
coedge $-1 $558 $711 $385 $563 forward $381 $-1 #
edge $-1 $564 30.848250506196102 $570 38.321951821670773 $562 $715 forward 7 unknown #
vertex $-1 $712 $716 #
straight-curve $-1 -87.057400798851205 -19.48565159665182 9.0122127390762543 -1 0 0 I I #
edge $-1 $570 7.6749162334876644 $568 15.946554492840647 $558 $717 forward 7 unknown #
coedge $-1 $389 $560 $710 $718 reversed $556 $-1 #
vertex $-1 $718 $719 #
straight-curve $-1 -66.443290897087039 -27.75728985600481 1.6247348068524161 0.5877852410284794 0 0.80901700255871778 I I #
vertex $-1 $566 $720 #
straight-curve $-1 -66.505935850093067 -19.48565159665182 1.5385114236016051 0.5877852410284794 0 0.80901700255871778 I I #
point $-1 -61.075974161775775 -27.757289856004803 9.0122127390762508 #
point $-1 -61.075974161775775 -19.48565159665182 9.0122127390762508 #
edge $-1 $721 1 $721 0 $395 $-1 forward 7 unknown #
vertex $-1 $396 $722 #
ellipse-curve $-1 -61.395186219463831 -23.621470726328312 3.534734221664344 -0.80901700255871778 0 0.5877852410284794 1.1755704820569588 0 1.6180340051174356 1 I I #
point $-1 -62.615384523877488 -23.621470726328312 6.8933960864563755 #
loop $-1 $-1 $407 $399 #
plane-surface $-1 -66.505935850093081 0 0 1 0 0 0 0 -1 forward_v I I I I #
coedge $-1 $581 $402 $404 $585 reversed $256 $-1 #
coedge $-1 $402 $580 $723 $724 reversed $256 $-1 #
coedge $-1 $410 $405 $402 $583 forward $400 $-1 #
edge $-1 $586 -25.98142663707543 $725 -20.551464948758124 $582 $726 forward 7 unknown #
coedge $-1 $404 $403 $589 $727 reversed $161 $-1 #
edge $-1 $728 -2.4161062406544664e-014 $586 9.2380027760074324 $580 $729 forward 7 unknown #
vertex $-1 $406 $730 #
straight-curve $-1 -61.075974161775775 -4.8714128991629551 9.0122127390762525 0 1 0 I I #
coedge $-1 $723 $407 $410 $593 reversed $578 $-1 #
coedge $-1 $407 $723 $584 $727 forward $578 $-1 #
vertex $-1 $408 $731 #
straight-curve $-1 -66.505935850093081 -13.878644928002403 39.860463245272356 0 0 1 I I #
straight-curve $-1 -66.505935850093067 -13.878644928002403 1.5385114236016051 -0.5877852410284794 0 -0.80901700255871778 I I #
edge $-1 $725 5.6070066686494169 $411 13.878644928002403 $588 $732 forward 7 unknown #
point $-1 -66.505935850093081 -13.878644928002403 9.0122127390762525 #
point $-1 -61.075974161775775 -13.878644928002403 9.0122127390762508 #
edge $-1 $733 1 $733 0 $414 $-1 forward 7 unknown #
vertex $-1 $415 $734 #
ellipse-curve $-1 -61.395186219463831 -9.7428257983259066 3.534734221664344 -0.80901700255871778 0 0.5877852410284794 1.1755704820569588 0 1.6180340051174356 1 I I #
point $-1 -62.615384523877488 -9.7428257983259066 6.8933960864563755 #
loop $-1 $-1 $426 $418 #
plane-surface $-1 -66.505935850093081 0 0 1 0 0 0 0 -1 forward_v I I I I #
coedge $-1 $603 $421 $423 $607 reversed $271 $-1 #
coedge $-1 $421 $602 $735 $736 reversed $271 $-1 #
coedge $-1 $429 $424 $421 $605 forward $419 $-1 #
edge $-1 $608 -25.98142663707543 $737 -20.551464948758124 $604 $738 forward 7 unknown #
coedge $-1 $423 $422 $611 $739 reversed $170 $-1 #
edge $-1 $740 -2.4161062406544664e-014 $608 9.2380027760074324 $602 $741 forward 7 unknown #
vertex $-1 $425 $742 #
straight-curve $-1 -61.075974161775775 2.0679095648382493 9.0122127390762525 0 1 0 I I #
coedge $-1 $735 $426 $429 $615 reversed $600 $-1 #
coedge $-1 $426 $735 $606 $739 forward $600 $-1 #
vertex $-1 $427 $743 #
straight-curve $-1 -66.505935850093081 5.3290705182007514e-015 39.860463245272356 0 0 1 I I #
straight-curve $-1 -66.505935850093067 5.3290705182007514e-015 1.5385114236016051 -0.5877852410284794 0 -0.80901700255871778 I I #
edge $-1 $737 -8.2716382593529918 $430 -5.3290705182007514e-015 $610 $744 forward 7 unknown #
point $-1 -66.505935850093081 5.3290705182007514e-015 9.0122127390762525 #
point $-1 -61.075974161775775 5.3290705182007514e-015 9.0122127390762508 #
edge $-1 $745 1 $745 0 $433 $-1 forward 7 unknown #
vertex $-1 $434 $746 #
ellipse-curve $-1 -61.395186219463831 4.1358191296764986 3.534734221664344 -0.80901700255871778 0 0.5877852410284794 1.1755704820569588 0 1.6180340051174356 1 I I #
point $-1 -62.615384523877488 4.1358191296764986 6.8933960864563755 #
loop $-1 $-1 $445 $437 #
plane-surface $-1 -66.505935850093081 0 0 1 0 0 0 0 -1 forward_v I I I I #
coedge $-1 $625 $440 $442 $629 reversed $286 $-1 #
coedge $-1 $440 $624 $747 $748 reversed $286 $-1 #
coedge $-1 $448 $443 $440 $627 forward $438 $-1 #
edge $-1 $630 -25.98142663707543 $749 -20.551464948758124 $626 $750 forward 7 unknown #
coedge $-1 $442 $441 $633 $751 reversed $179 $-1 #
edge $-1 $752 -2.4161062406544664e-014 $630 9.2380027760074324 $624 $753 forward 7 unknown #
vertex $-1 $444 $754 #
straight-curve $-1 -61.075974161775775 9.0072320288394501 9.0122127390762525 0 1 0 I I #
coedge $-1 $747 $445 $448 $637 reversed $622 $-1 #
coedge $-1 $445 $747 $628 $751 forward $622 $-1 #
vertex $-1 $446 $755 #
straight-curve $-1 -66.505935850093081 13.878644928002407 39.860463245272356 0 0 1 I I #
straight-curve $-1 -66.505935850093067 13.878644928002407 1.5385114236016051 -0.5877852410284794 0 -0.80901700255871778 I I #
edge $-1 $749 -22.150283187355392 $449 -13.878644928002407 $632 $756 forward 7 unknown #
point $-1 -66.505935850093081 13.878644928002407 9.0122127390762525 #
point $-1 -61.075974161775775 13.878644928002407 9.0122127390762508 #
edge $-1 $757 1 $757 0 $452 $-1 forward 7 unknown #
vertex $-1 $453 $758 #
ellipse-curve $-1 -61.395186219463831 18.0144640576789 3.534734221664344 -0.80901700255871778 0 0.5877852410284794 1.1755704820569588 0 1.6180340051174356 1 I I #
point $-1 -62.615384523877488 18.0144640576789 6.8933960864563755 #
plane-surface $-1 66.505935850093081 0 0 -1 0 0 0 0 1 forward_v I I I I #
coedge $-1 $461 $459 $463 $649 reversed $301 $-1 #
edge $-1 $474 -9.0122127390762525 $651 9.0122127390762525 $473 $759 forward 7 unknown #
vertex $-1 $649 $760 #
straight-curve $-1 -66.505935850093081 -37.415195857044772 0 0 0 -1 I I #
edge $-1 $647 -37.415195857044772 $651 37.415195857044772 $645 $761 forward 7 unknown #
straight-curve $-1 0 -37.415195857044772 -9.0122127390762525 -1 0 0 I I #
vertex $-1 $466 $762 #
straight-curve $-1 0 37.415195857044772 -9.0122127390762525 1 0 0 I I #
point $-1 66.505935850093081 37.415195857044772 -9.0122127390762525 #
point $-1 66.505935850093081 -37.415195857044772 -9.0122127390762525 #
straight-curve $-1 -66.505935850093081 0 9.0122127390762525 0 -1 0 I I #
point $-1 -66.505935850093081 37.415195857044772 9.0122127390762525 #
point $-1 -66.505935850093081 -37.415195857044772 9.0122127390762525 #
straight-curve $-1 66.505935850093081 -37.415195857044772 0 0 0 -1 I I #
straight-curve $-1 66.505935850093081 37.415195857044772 0 0 0 -1 I I #
plane-surface $-1 0 -37.415195857044772 0 0 1 0 0 0 1 forward_v I I I I #
coedge $-1 $763 $486 $498 $672 reversed $320 $-1 #
coedge $-1 $486 $763 $501 $674 reversed $320 $-1 #
edge $-1 $764 -66.505935850093081 $495 -61.545492061087813 $491 $765 forward 7 unknown #
straight-curve $-1 -61.545492061087813 -16.293121428262396 9.0122127390762525 0 1 0 I I #
coedge $-1 $498 $489 $492 $668 forward $484 $-1 #
straight-curve $-1 -61.545492061087813 -16.293121428262396 -9.0122127390762525 0 -1 0 I I #
coedge $-1 $492 $491 $763 $766 forward $493 $-1 #
edge $-1 $494 61.545492061087813 $767 66.505935850093081 $492 $768 forward 7 unknown #
point $-1 -61.545492061087813 -37.415195857044772 -9.0122127390762525 #
point $-1 -61.545492061087813 -37.415195857044772 9.0122127390762525 #
straight-curve $-1 -66.505935850093081 -27.75728985600481 0 0 0 -1 I I #
edge $-1 $767 -37.415195857044772 $499 -27.75728985600481 $661 $769 forward 7 unknown #
point $-1 -66.505935850093081 -27.75728985600481 -9.0122127390762525 #
edge $-1 $502 27.75728985600481 $764 37.415195857044772 $662 $770 forward 7 unknown #
point $-1 -66.505935850093081 -27.75728985600481 9.0122127390762525 #
loop $-1 $-1 $682 $506 #
plane-surface $-1 0 37.415195857044772 0 0 -1 0 0 0 -1 forward_v I I I I #
coedge $-1 $689 $682 $509 $679 reversed $676 $-1 #
edge $-1 $693 -66.505935850093081 $680 -61.545492061087813 $678 $771 forward 7 unknown #
vertex $-1 $510 $772 #
straight-curve $-1 -61.545492061087813 16.293121428262399 -9.0122127390762525 0 -1 0 I I #
coedge $-1 $678 $773 $511 $683 forward $676 $-1 #
edge $-1 $685 -9.0122127390762525 $680 9.0122127390762525 $682 $774 forward 7 unknown #
coedge $-1 $519 $512 $773 $775 forward $507 $-1 #
vertex $-1 $775 $776 #
straight-curve $-1 -61.545492061087813 16.293121428262399 9.0122127390762525 0 1 0 I I #
point $-1 -61.545492061087813 27.757289856004817 9.0122127390762525 #
point $-1 -61.545492061087813 27.757289856004817 -9.0122127390762525 #
coedge $-1 $773 $678 $521 $690 reversed $676 $-1 #
edge $-1 $691 -9.0122127390762525 $693 9.0122127390762525 $689 $777 forward 7 unknown #
vertex $-1 $775 $778 #
straight-curve $-1 -66.505935850093081 0 9.0122127390762525 0 -1 0 I I #
vertex $-1 $679 $779 #
straight-curve $-1 -66.505935850093081 0 -9.0122127390762525 0 1 0 I I #
edge $-1 $696 83.859861498130101 $699 89.647530437757879 $527 $780 forward 7 unknown #
vertex $-1 $541 $781 #
straight-curve $-1 56.006593656280693 2.6877824280981564 9.0122127390762472 1 0 0 I I #
edge $-1 $699 -0.5899476602520366 $538 7.1454078369524225 $537 $782 forward 7 unknown #
vertex $-1 $698 $783 #
straight-curve $-1 -2.0002407561548949 2.6877824280981564 117.23797186816469 -0.51503806187062418 0 0.85716730853699208 I I #
point $-1 63.02835362813174 2.6877824280981564 9.0122127390762472 #
point $-1 66.505935850093081 10.423137925302616 3.2245437994484689 #
straight-curve $-1 66.505935850093081 0 9.0122127390762525 0 1 0 I I #
vertex $-1 $544 $784 #
point $-1 64.167496461510723 4.2348535275390446 5.1747565531232151 #
vertex $-1 $548 $785 #
point $-1 64.167496461510723 6.5554601767003859 5.1747565531232151 #
vertex $-1 $552 $786 #
point $-1 64.167496461510723 8.8760668258617272 5.1747565531232151 #
coedge $-1 $711 $558 $567 $718 forward $381 $-1 #
coedge $-1 $562 $710 $559 $712 reversed $381 $-1 #
edge $-1 $564 19.48565159665182 $713 27.75728985600481 $711 $787 forward 7 unknown #
vertex $-1 $718 $788 #
straight-curve $-1 -32.012856977795224 -27.75728985600481 9.0122127390762525 1 0 0 I I #
straight-curve $-1 -66.505935850093081 -19.48565159665182 39.860463245272356 0 0 -1 I I #
point $-1 -66.505935850093081 -19.48565159665182 9.0122127390762525 #
straight-curve $-1 -66.505935850093081 -11.810735363164156 1.538511423601566 0 -1 0 I I #
edge $-1 $568 1.5385114236015855 $713 9.0122127390762525 $710 $789 forward 7 unknown #
point $-1 -66.505935850093081 -27.757289856004803 1.5385114236015855 #
point $-1 -66.505935850093081 -19.48565159665182 1.5385114236015855 #
vertex $-1 $574 $790 #
point $-1 -60.219615737406869 -23.621470726328312 5.15276822678178 #
coedge $-1 $589 $588 $581 $724 forward $578 $-1 #
edge $-1 $725 30.848250506196102 $728 38.321951821670773 $723 $791 forward 7 unknown #
vertex $-1 $593 $792 #
straight-curve $-1 -87.057400798851205 -5.6070066686494169 9.0122127390762543 -1 0 0 I I #
edge $-1 $728 0.73559376948646182 $590 9.0072320288394483 $589 $793 forward 7 unknown #
vertex $-1 $727 $794 #
straight-curve $-1 -66.505935850093067 -5.6070066686494169 1.5385114236016051 0.5877852410284794 0 0.80901700255871778 I I #
point $-1 -61.075974161775775 -5.6070066686494169 9.0122127390762508 #
point $-1 -66.505935850093081 -13.878644928002403 1.5385114236015855 #
straight-curve $-1 -66.505935850093081 0 9.0122127390762525 0 -1 0 I I #
vertex $-1 $596 $795 #
point $-1 -60.219615737406869 -9.7428257983259066 5.15276822678178 #
coedge $-1 $611 $610 $603 $736 forward $600 $-1 #
edge $-1 $737 30.848250506196102 $740 38.321951821670773 $735 $796 forward 7 unknown #
vertex $-1 $615 $797 #
straight-curve $-1 -87.057400798851205 8.2716382593529918 9.0122127390762543 -1 0 0 I I #
edge $-1 $740 -6.2037286945147425 $612 2.067909564838244 $611 $798 forward 7 unknown #
vertex $-1 $739 $799 #
straight-curve $-1 -66.505935850093067 8.2716382593529918 1.5385114236016051 0.5877852410284794 0 0.80901700255871778 I I #
point $-1 -61.075974161775775 8.2716382593529918 9.0122127390762508 #
point $-1 -66.505935850093081 5.3290705182007514e-015 1.5385114236015855 #
straight-curve $-1 -66.505935850093081 0 9.0122127390762525 0 -1 0 I I #
vertex $-1 $618 $800 #
point $-1 -60.219615737406869 4.1358191296764986 5.15276822678178 #
coedge $-1 $633 $632 $625 $748 forward $622 $-1 #
edge $-1 $749 30.848250506196102 $752 38.321951821670773 $747 $801 forward 7 unknown #
vertex $-1 $637 $802 #
straight-curve $-1 -87.057400798851205 22.150283187355392 9.0122127390762543 -1 0 0 I I #
edge $-1 $752 -13.143051158515942 $634 -4.8714128991629568 $633 $803 forward 7 unknown #
vertex $-1 $751 $804 #
straight-curve $-1 -66.505935850093067 22.150283187355392 1.5385114236016051 0.5877852410284794 0 0.80901700255871778 I I #
point $-1 -61.075974161775775 22.150283187355392 9.0122127390762508 #
point $-1 -66.505935850093081 13.878644928002407 1.5385114236015855 #
straight-curve $-1 -66.505935850093081 0 9.0122127390762525 0 -1 0 I I #
vertex $-1 $640 $805 #
point $-1 -60.219615737406869 18.0144640576789 5.15276822678178 #
straight-curve $-1 -66.505935850093081 37.415195857044772 0 0 0 -1 I I #
point $-1 -66.505935850093081 -37.415195857044772 -9.0122127390762525 #
straight-curve $-1 -66.505935850093081 0 -9.0122127390762525 0 1 0 I I #
point $-1 -66.505935850093081 37.415195857044772 -9.0122127390762525 #
coedge $-1 $662 $661 $667 $766 reversed $320 $-1 #
vertex $-1 $674 $806 #
straight-curve $-1 0 -37.415195857044772 9.0122127390762525 1 0 0 I I #
edge $-1 $764 -9.0122127390762525 $767 9.0122127390762525 $763 $807 forward 7 unknown #
vertex $-1 $672 $808 #
straight-curve $-1 0 -37.415195857044772 -9.0122127390762525 -1 0 0 I I #
straight-curve $-1 -66.505935850093081 0 -9.0122127390762525 0 1 0 I I #
straight-curve $-1 -66.505935850093081 0 9.0122127390762525 0 -1 0 I I #
straight-curve $-1 0 37.415195857044772 -9.0122127390762525 1 0 0 I I #
point $-1 -61.545492061087813 37.415195857044779 -9.0122127390762525 #
coedge $-1 $682 $689 $684 $775 reversed $676 $-1 #
straight-curve $-1 -61.545492061087813 37.415195857044772 0 0 0 -1 I I #
edge $-1 $685 61.545492061087813 $691 66.505935850093081 $773 $809 forward 7 unknown #
point $-1 -61.545492061087813 37.415195857044779 9.0122127390762525 #
straight-curve $-1 -66.505935850093081 37.415195857044772 0 0 0 -1 I I #
point $-1 -66.505935850093081 37.415195857044772 9.0122127390762525 #
point $-1 -66.505935850093081 37.415195857044772 -9.0122127390762525 #
straight-curve $-1 66.505935850093081 2.6877824280981564 92.872074237206348 0 0 -1 I I #
point $-1 66.505935850093081 2.6877824280981564 9.0122127390762525 #
straight-curve $-1 66.505935850093081 3.277730088350193 3.2245437994484547 0 1 0 I I #
point $-1 66.505935850093081 2.6877824280981564 3.2245437994484689 #
point $-1 63.481393776306916 4.2348535275390446 5.3458211764563996 #
point $-1 63.481393776306916 6.5554601767003859 5.3458211764563996 #
point $-1 63.481393776306916 8.8760668258617272 5.3458211764563996 #
straight-curve $-1 -66.505935850093081 0 9.0122127390762525 0 -1 0 I I #
point $-1 -66.505935850093081 -27.75728985600481 9.0122127390762525 #
straight-curve $-1 -66.505935850093081 -27.75728985600481 0 0 0 1 I I #
point $-1 -59.777152214346394 -23.621470726328312 2.3591637396073857 #
straight-curve $-1 -66.505935850093081 -5.6070066686494169 39.860463245272356 0 0 -1 I I #
point $-1 -66.505935850093081 -5.6070066686494169 9.0122127390762525 #
straight-curve $-1 -66.505935850093081 -4.8714128991629551 1.538511423601566 0 -1 0 I I #
point $-1 -66.505935850093081 -5.6070066686494169 1.5385114236015855 #
point $-1 -59.777152214346394 -9.7428257983259066 2.3591637396073857 #
straight-curve $-1 -66.505935850093081 8.2716382593529918 39.860463245272356 0 0 -1 I I #
point $-1 -66.505935850093081 8.2716382593529918 9.0122127390762525 #
straight-curve $-1 -66.505935850093081 2.0679095648382493 1.538511423601566 0 -1 0 I I #
point $-1 -66.505935850093081 8.2716382593529918 1.5385114236015855 #
point $-1 -59.777152214346394 4.1358191296764986 2.3591637396073857 #
straight-curve $-1 -66.505935850093081 22.150283187355392 39.860463245272356 0 0 -1 I I #
point $-1 -66.505935850093081 22.150283187355392 9.0122127390762525 #
straight-curve $-1 -66.505935850093081 9.0072320288394501 1.538511423601566 0 -1 0 I I #
point $-1 -66.505935850093081 22.150283187355392 1.5385114236015855 #
point $-1 -59.777152214346394 18.0144640576789 2.3591637396073857 #
point $-1 -66.505935850093081 -37.415195857044772 9.0122127390762525 #
straight-curve $-1 -66.505935850093081 -37.415195857044772 0 0 0 -1 I I #
point $-1 -66.505935850093081 -37.415195857044772 -9.0122127390762525 #
straight-curve $-1 0 37.415195857044772 9.0122127390762525 -1 0 0 I I #
End-of-ACIS-data 