500 0 9 0           
7 Unknown 11 ACIS 5.0 NT 24 Thu Mar 25 23:12:55 1999 
-1 9.9999999999999995e-007 1e-010 
body $-1 $9 $-1 $10 #
body $-1 $11 $-1 $12 #
body $-1 $13 $-1 $14 #
body $-1 $15 $-1 $16 #
body $-1 $17 $-1 $18 #
body $-1 $19 $-1 $20 #
body $-1 $21 $-1 $22 #
body $-1 $23 $-1 $24 #
body $-1 $25 $-1 $26 #
lump $-1 $-1 $27 $0 #
transform $-1 1 0 0 0 1 0 0 0 1 47.411114841151161 23.987561457641544 7.8792115228307722 1 rotate no_reflect no_shear #
lump $-1 $-1 $28 $1 #
transform $-1 1 0 0 0 1 0 0 0 1 47.411114841151161 23.987561457641544 7.8792115228307722 1 rotate no_reflect no_shear #
lump $-1 $-1 $29 $2 #
transform $-1 1 0 0 0 1 0 0 0 1 47.411114841151161 23.987561457641544 7.8792115228307722 1 rotate no_reflect no_shear #
lump $-1 $-1 $30 $3 #
transform $-1 1 0 0 0 1 0 0 0 1 47.411114841151161 23.987561457641544 7.8792115228307722 1 rotate no_reflect no_shear #
lump $-1 $-1 $31 $4 #
transform $-1 1 0 0 0 1 0 0 0 1 47.411114841151161 23.987561457641544 7.8792115228307722 1 rotate no_reflect no_shear #
lump $-1 $-1 $32 $5 #
transform $-1 1 0 0 0 1 0 0 0 1 47.411114841151161 23.987561457641544 7.8792115228307722 1 rotate no_reflect no_shear #
lump $-1 $-1 $33 $6 #
transform $-1 1 0 0 0 1 0 0 0 1 47.411114841151161 23.987561457641544 7.8792115228307722 1 rotate no_reflect no_shear #
lump $-1 $-1 $34 $7 #
transform $-1 1 0 0 0 1 0 0 0 1 47.411114841151161 23.987561457641544 7.8792115228307722 1 rotate no_reflect no_shear #
lump $-1 $-1 $35 $8 #
transform $-1 1 0 0 0 1 0 0 0 1 47.411114841151161 23.987561457641544 7.8792115228307722 1 rotate no_reflect no_shear #
shell $-1 $-1 $-1 $36 $-1 $9 #
shell $-1 $-1 $-1 $37 $-1 $11 #
shell $-1 $-1 $-1 $38 $-1 $13 #
shell $-1 $-1 $-1 $39 $-1 $15 #
shell $-1 $-1 $-1 $40 $-1 $17 #
shell $-1 $-1 $-1 $41 $-1 $19 #
shell $-1 $-1 $-1 $42 $-1 $21 #
shell $-1 $-1 $-1 $43 $-1 $23 #
shell $-1 $-1 $-1 $44 $-1 $25 #
face $-1 $45 $46 $27 $-1 $47 forward single #
face $-1 $48 $49 $28 $-1 $50 reversed single #
face $-1 $51 $52 $29 $-1 $53 forward single #
face $-1 $54 $55 $30 $-1 $56 forward single #
face $-1 $57 $58 $31 $-1 $59 reversed single #
face $-1 $60 $61 $32 $-1 $62 forward single #
face $-1 $63 $64 $33 $-1 $65 forward single #
face $-1 $66 $67 $34 $-1 $68 reversed single #
face $-1 $69 $70 $35 $-1 $71 forward single #
face $-1 $72 $73 $27 $-1 $74 reversed single #
loop $-1 $-1 $75 $36 #
plane-surface $-1 0 0 7.8792115228307722 0 0 1 1 0 0 forward_v I I I I #
face $-1 $76 $77 $28 $-1 $78 reversed single #
loop $-1 $-1 $79 $37 #
plane-surface $-1 -32.749027715351481 75.771405640223279 96.99521090207439 1 0 0 0 -0.82903758062907751 -0.55919289150049634 forward_v I I I I #
face $-1 $80 $81 $29 $-1 $82 forward single #
loop $-1 $83 $84 $38 #
cone-surface $-1 -27.506807686884677 22.188752887981064 5.6627303874466151 0 -0.82903758062907751 -0.55919289150049634 0.5 0 0 1 I I 0 1 0.5 forward I I I I #
face $-1 $85 $86 $30 $-1 $87 forward single #
loop $-1 $88 $89 $39 #
cone-surface $-1 -19.643477644184468 22.188752887981064 5.6627303874466151 0 -0.82903758062907751 -0.55919289150049634 0.5 0 0 1 I I 0 1 0.5 forward I I I I #
face $-1 $90 $91 $31 $-1 $92 reversed single #
loop $-1 $-1 $93 $40 #
plane-surface $-1 14.401257615717661 75.771405640223279 96.99521090207439 1 0 0 0 -0.82903758062907751 -0.55919289150049634 forward_v I I I I #
face $-1 $94 $95 $32 $-1 $96 forward single #
loop $-1 $97 $98 $41 #
cone-surface $-1 19.643477644184472 22.188752887981064 5.6627303874466151 0 -0.82903758062907751 -0.55919289150049634 0.5 0 0 1 I I 0 1 0.5 forward I I I I #
face $-1 $99 $100 $33 $-1 $101 forward single #
loop $-1 $102 $103 $42 #
cone-surface $-1 27.50680768688467 22.188752887981064 5.6627303874466151 0 -0.82903758062907751 -0.55919289150049634 0.5 0 0 1 I I 0 1 0.5 forward I I I I #
face $-1 $104 $105 $34 $-1 $106 reversed single #
loop $-1 $-1 $107 $43 #
plane-surface $-1 20.168733759988651 -91.037003851170454 69.009345072494838 -1 0 0 0 -0.70710678939079041 0.70710677298230451 forward_v I I I I #
face $-1 $108 $109 $35 $-1 $110 forward single #
loop $-1 $111 $112 $44 #
cone-surface $-1 15.426175359315998 -19.956581859730534 3.8482318811009248 0 0.70710678939079041 -0.70710677298230451 1.5 0 0 1 I I 0 1 1.5 forward I I I I #
face $-1 $113 $114 $27 $-1 $115 reversed single #
loop $-1 $-1 $116 $45 #
plane-surface $-1 0 0 -7.8792115228307722 0 0 1 1 0 0 forward_v I I I I #
coedge $-1 $117 $118 $119 $120 forward $46 $-1 #
face $-1 $121 $122 $28 $-1 $123 reversed single #
loop $-1 $-1 $124 $48 #
plane-surface $-1 -23.575142665534571 -2.8397862454473426 43.971294107503567 0 0.82903758062907751 0.55919289150049634 1 0 0 forward_v I I I I #
coedge $-1 $125 $126 $127 $128 reversed $49 $-1 #
face $-1 $-1 $129 $29 $-1 $130 forward single #
loop $-1 $131 $132 $51 #
cone-surface $-1 -27.506807686884677 21.424150606844375 5.1469996528853841 0 -0.82903758062907751 -0.55919289150049634 0.25 0 0 1 I I -0.70710678118654746 0.70710678118654746 0.25 forward I I I I #
loop $-1 $-1 $133 $38 #
coedge $-1 $84 $84 $134 $135 reversed $52 $-1 #
face $-1 $-1 $136 $30 $-1 $137 forward single #
loop $-1 $138 $139 $54 #
cone-surface $-1 -19.643477644184468 21.424150606844375 5.1469996528853841 0 -0.82903758062907751 -0.55919289150049634 0.25 0 0 1 I I -0.70710678118654746 0.70710678118654746 0.25 forward I I I I #
loop $-1 $-1 $140 $39 #
coedge $-1 $89 $89 $141 $142 reversed $55 $-1 #
face $-1 $143 $144 $31 $-1 $145 reversed single #
loop $-1 $-1 $146 $57 #
plane-surface $-1 23.575142665534571 -2.8397862454473426 43.971294107503567 0 0.82903758062907751 0.55919289150049634 1 0 0 forward_v I I I I #
coedge $-1 $147 $148 $149 $150 reversed $58 $-1 #
face $-1 $-1 $151 $32 $-1 $152 forward single #
loop $-1 $153 $154 $60 #
cone-surface $-1 19.643477644184472 21.424150606844375 5.1469996528853841 0 -0.82903758062907751 -0.55919289150049634 0.25 0 0 1 I I -0.70710678118654746 0.70710678118654746 0.25 forward I I I I #
loop $-1 $-1 $155 $41 #
coedge $-1 $98 $98 $156 $157 reversed $61 $-1 #
face $-1 $-1 $158 $33 $-1 $159 forward single #
loop $-1 $160 $161 $63 #
cone-surface $-1 27.50680768688467 21.424150606844375 5.1469996528853841 0 -0.82903758062907751 -0.55919289150049634 0.25 0 0 1 I I -0.70710678118654746 0.70710678118654746 0.25 forward I I I I #
loop $-1 $-1 $162 $42 #
coedge $-1 $103 $103 $163 $164 reversed $64 $-1 #
face $-1 $165 $166 $34 $-1 $167 reversed single #
loop $-1 $-1 $168 $66 #
plane-surface $-1 15.426175359315991 -23.987561457641547 1.9599042348551592 0 -0.70710678939079041 0.70710677298230451 1 0 0 forward_v I I I I #
coedge $-1 $169 $170 $171 $172 reversed $67 $-1 #
face $-1 $-1 $173 $35 $-1 $174 forward single #
loop $-1 $175 $176 $69 #
cone-surface $-1 15.426175359315998 -18.354925745085175 2.2465758036221608 0 0.70710678939079041 -0.70710677298230451 0.75 0 0 1 I I -0.70710678118654757 0.70710678118654757 0.75 forward I I I I #
loop $-1 $-1 $177 $44 #
coedge $-1 $112 $112 $178 $179 reversed $70 $-1 #
face $-1 $180 $181 $27 $-1 $182 reversed single #
loop $-1 $-1 $183 $72 #
plane-surface $-1 0 -23.987561457641544 0 0 1 0 0 0 1 forward_v I I I I #
coedge $-1 $184 $185 $186 $187 forward $73 $-1 #
coedge $-1 $188 $75 $189 $190 forward $46 $-1 #
coedge $-1 $75 $188 $191 $192 forward $46 $-1 #
coedge $-1 $193 $194 $75 $120 reversed $195 $-1 #
edge $-1 $196 -23.987561457641544 $197 23.987561457641544 $119 $198 forward 7 unknown #
face $-1 $199 $200 $28 $-1 $201 reversed single #
loop $-1 $-1 $202 $76 #
plane-surface $-1 -14.401257615717661 75.771405640223279 96.99521090207439 -1 0 0 0 0.82903758062907751 0.55919289150049634 forward_v I I I I #
coedge $-1 $203 $204 $205 $206 reversed $77 $-1 #
coedge $-1 $126 $79 $207 $208 reversed $49 $-1 #
coedge $-1 $79 $125 $203 $209 reversed $49 $-1 #
coedge $-1 $205 $210 $79 $128 forward $211 $-1 #
edge $-1 $212 13.898141362470096 $213 16.381072729832244 $127 $214 forward 7 unknown #
loop $-1 $-1 $134 $80 #
plane-surface $-1 -23.575142665534571 -2.8397862454473426 43.971294107503567 0 0.82903758062907751 0.55919289150049634 1 0 0 forward_v I I I I #
loop $-1 $-1 $215 $51 #
coedge $-1 $132 $132 $133 $216 reversed $81 $-1 #
coedge $-1 $133 $133 $132 $216 forward $83 $-1 #
coedge $-1 $134 $134 $84 $135 forward $129 $-1 #
edge $-1 $217 -4.7241141928096364e-015 $217 6.283185307179596 $134 $218 forward 7 unknown #
loop $-1 $-1 $141 $85 #
plane-surface $-1 -23.575142665534571 -2.8397862454473426 43.971294107503567 0 0.82903758062907751 0.55919289150049634 1 0 0 forward_v I I I I #
loop $-1 $-1 $219 $54 #
coedge $-1 $139 $139 $140 $220 reversed $86 $-1 #
coedge $-1 $140 $140 $139 $220 forward $88 $-1 #
coedge $-1 $141 $141 $89 $142 forward $136 $-1 #
edge $-1 $221 -4.7241141928096364e-015 $221 6.283185307179596 $141 $222 forward 7 unknown #
face $-1 $223 $224 $31 $-1 $225 forward single #
loop $-1 $-1 $226 $90 #
plane-surface $-1 32.749027715351481 75.771405640223279 96.99521090207439 -1 0 0 0 0.82903758062907751 0.55919289150049634 forward_v I I I I #
coedge $-1 $227 $228 $229 $230 reversed $91 $-1 #
coedge $-1 $148 $93 $231 $232 reversed $58 $-1 #
coedge $-1 $93 $147 $227 $233 reversed $58 $-1 #
coedge $-1 $229 $234 $93 $150 forward $224 $-1 #
edge $-1 $235 13.898141362470096 $236 16.381072729832244 $149 $237 forward 7 unknown #
loop $-1 $-1 $156 $94 #
plane-surface $-1 23.575142665534571 -2.8397862454473426 43.971294107503567 0 0.82903758062907751 0.55919289150049634 1 0 0 forward_v I I I I #
loop $-1 $-1 $238 $60 #
coedge $-1 $154 $154 $155 $239 reversed $95 $-1 #
coedge $-1 $155 $155 $154 $239 forward $97 $-1 #
coedge $-1 $156 $156 $98 $157 forward $151 $-1 #
edge $-1 $240 -4.7241141928096364e-015 $240 6.283185307179596 $156 $241 forward 7 unknown #
loop $-1 $-1 $163 $99 #
plane-surface $-1 23.575142665534571 -2.8397862454473426 43.971294107503567 0 0.82903758062907751 0.55919289150049634 1 0 0 forward_v I I I I #
loop $-1 $-1 $242 $63 #
coedge $-1 $161 $161 $162 $243 reversed $100 $-1 #
coedge $-1 $162 $162 $161 $243 forward $102 $-1 #
coedge $-1 $163 $163 $103 $164 forward $158 $-1 #
edge $-1 $244 -4.7241141928096364e-015 $244 6.283185307179596 $163 $245 forward 7 unknown #
face $-1 $246 $247 $34 $-1 $248 reversed single #
loop $-1 $-1 $249 $104 #
plane-surface $-1 10.683616958643331 -91.037003851170454 69.009345072494838 1 0 0 0 0.70710678939079041 -0.70710677298230451 forward_v I I I I #
coedge $-1 $250 $251 $252 $253 reversed $105 $-1 #
coedge $-1 $170 $107 $254 $255 reversed $67 $-1 #
coedge $-1 $107 $169 $250 $256 reversed $67 $-1 #
coedge $-1 $252 $257 $107 $172 forward $258 $-1 #
edge $-1 $259 21.530940467943683 $260 27.450247618561157 $171 $261 forward 7 unknown #
loop $-1 $-1 $178 $108 #
plane-surface $-1 15.426175359315991 -23.987561457641547 1.9599042348551592 0 -0.70710678939079041 0.70710677298230451 1 0 0 forward_v I I I I #
loop $-1 $-1 $262 $69 #
coedge $-1 $176 $176 $177 $263 reversed $109 $-1 #
coedge $-1 $177 $177 $176 $263 forward $111 $-1 #
coedge $-1 $178 $178 $112 $179 forward $173 $-1 #
edge $-1 $264 -4.1869140489976383e-016 $264 6.2831853071796004 $178 $265 forward 7 unknown #
face $-1 $266 $267 $27 $-1 $268 reversed single #
loop $-1 $-1 $269 $113 #
plane-surface $-1 -47.411114841151161 0 0 1 0 0 0 0 -1 forward_v I I I I #
coedge $-1 $270 $191 $271 $272 forward $114 $-1 #
coedge $-1 $273 $116 $270 $274 forward $73 $-1 #
coedge $-1 $116 $273 $275 $276 forward $73 $-1 #
coedge $-1 $194 $193 $116 $187 reversed $195 $-1 #
edge $-1 $277 -23.987561457641544 $278 23.987561457641544 $186 $279 forward 7 unknown #
coedge $-1 $118 $117 $280 $281 forward $46 $-1 #
coedge $-1 $282 $283 $117 $190 reversed $267 $-1 #
edge $-1 $197 -47.411114841151161 $284 47.411114841151161 $189 $285 forward 7 unknown #
coedge $-1 $183 $286 $118 $192 reversed $114 $-1 #
edge $-1 $287 -47.411114841151161 $196 47.411114841151161 $191 $288 forward 7 unknown #
coedge $-1 $186 $119 $286 $289 forward $195 $-1 #
coedge $-1 $119 $186 $282 $290 reversed $195 $-1 #
loop $-1 $-1 $193 $266 #
vertex $-1 $120 $291 #
vertex $-1 $120 $292 #
straight-curve $-1 47.411114841151161 0 7.8792115228307722 0 1 0 I I #
face $-1 $-1 $211 $28 $-1 $293 forward single #
loop $-1 $-1 $294 $121 #
plane-surface $-1 0 23.987561457641544 0 0 -1 0 0 0 -1 forward_v I I I I #
coedge $-1 $295 $296 $297 $298 reversed $122 $-1 #
coedge $-1 $299 $124 $126 $209 forward $77 $-1 #
coedge $-1 $124 $299 $295 $300 forward $77 $-1 #
coedge $-1 $297 $127 $124 $206 forward $211 $-1 #
edge $-1 $213 -20.961456382584196 $301 -2.6136862829503755 $205 $302 forward 7 unknown #
coedge $-1 $303 $304 $125 $208 forward $200 $-1 #
edge $-1 $305 -44.299491175602562 $212 -40.618393928206423 $207 $306 forward 7 unknown #
edge $-1 $213 43.534917388528946 $305 47.975122915283123 $126 $307 forward 7 unknown #
coedge $-1 $127 $297 $303 $308 forward $211 $-1 #
loop $-1 $-1 $297 $199 #
vertex $-1 $208 $309 #
vertex $-1 $128 $310 #
straight-curve $-1 -32.749027715351481 37.885702820111639 7.8792115228307722 0 -1 0 I I #
coedge $-1 $215 $215 $-1 $311 reversed $131 $-1 #
edge $-1 $312 0 $312 6.2831853071796004 $132 $313 forward 7 unknown #
vertex $-1 $135 $314 #
ellipse-curve $-1 -27.506807686884677 22.746095773960466 6.03866289913271 0 0.82903758062907751 0.55919289150049634 0.5 0 0 1 I I #
coedge $-1 $219 $219 $-1 $315 reversed $138 $-1 #
edge $-1 $316 0 $316 6.2831853071796004 $139 $317 forward 7 unknown #
vertex $-1 $142 $318 #
ellipse-curve $-1 -19.643477644184468 22.746095773960466 6.03866289913271 0 0.82903758062907751 0.55919289150049634 0.5 0 0 1 I I #
face $-1 $-1 $319 $31 $-1 $320 reversed single #
loop $-1 $-1 $149 $143 #
plane-surface $-1 0 0 7.8792115228307722 0 0 1 1 0 0 forward_v I I I I #
coedge $-1 $321 $322 $323 $324 reversed $144 $-1 #
coedge $-1 $325 $146 $148 $233 forward $91 $-1 #
coedge $-1 $146 $325 $321 $326 forward $91 $-1 #
coedge $-1 $323 $149 $146 $230 forward $224 $-1 #
edge $-1 $236 2.6136862829503755 $327 20.961456382584196 $229 $328 forward 7 unknown #
coedge $-1 $329 $330 $147 $232 forward $319 $-1 #
edge $-1 $331 -44.299491175602562 $235 -40.618393928206423 $231 $332 forward 7 unknown #
edge $-1 $236 43.534917388528946 $331 47.975122915283123 $148 $333 forward 7 unknown #
coedge $-1 $149 $323 $329 $334 forward $224 $-1 #
vertex $-1 $150 $335 #
vertex $-1 $150 $336 #
straight-curve $-1 14.401257615717661 37.885702820111639 7.8792115228307722 0 -1 0 I I #
coedge $-1 $238 $238 $-1 $337 reversed $153 $-1 #
edge $-1 $338 0 $338 6.2831853071796004 $154 $339 forward 7 unknown #
vertex $-1 $157 $340 #
ellipse-curve $-1 19.643477644184472 22.746095773960466 6.03866289913271 0 0.82903758062907751 0.55919289150049634 0.5 0 0 1 I I #
coedge $-1 $242 $242 $-1 $341 reversed $160 $-1 #
edge $-1 $342 0 $342 6.2831853071796004 $161 $343 forward 7 unknown #
vertex $-1 $164 $344 #
ellipse-curve $-1 27.50680768688467 22.746095773960466 6.03866289913271 0 0.82903758062907751 0.55919289150049634 0.5 0 0 1 I I #
face $-1 $-1 $258 $34 $-1 $345 forward single #
loop $-1 $-1 $346 $165 #
plane-surface $-1 0 -23.987561457641544 0 0 1 0 0 0 1 forward_v I I I I #
coedge $-1 $347 $348 $349 $350 reversed $166 $-1 #
coedge $-1 $351 $168 $170 $256 forward $105 $-1 #
coedge $-1 $168 $351 $347 $352 forward $105 $-1 #
coedge $-1 $349 $171 $168 $253 forward $258 $-1 #
edge $-1 $260 -12.455646080330656 $353 -2.9705292789853353 $252 $354 forward 7 unknown #
coedge $-1 $355 $356 $169 $255 forward $247 $-1 #
edge $-1 $357 -32.544768301392253 $259 -26.625461013416647 $254 $358 forward 7 unknown #
edge $-1 $260 -8.3711645493821489 $357 -5.0242958677880813e-015 $170 $359 forward 7 unknown #
coedge $-1 $171 $349 $355 $360 forward $258 $-1 #
loop $-1 $-1 $349 $246 #
vertex $-1 $255 $361 #
vertex $-1 $172 $362 #
straight-curve $-1 20.168733759988651 -45.518501925585227 7.8792115228307722 0 1 0 I I #
coedge $-1 $262 $262 $-1 $363 reversed $175 $-1 #
edge $-1 $364 0 $364 6.2831853071796004 $176 $365 forward 7 unknown #
vertex $-1 $179 $366 #
ellipse-curve $-1 15.426175359315998 -21.027907882332808 4.9195578788429675 0 -0.70710678939079041 0.70710677298230451 1.5 0 0 1 I I #
face $-1 $-1 $195 $27 $-1 $367 reversed single #
loop $-1 $-1 $282 $180 #
plane-surface $-1 0 23.987561457641544 0 0 -1 0 0 0 -1 forward_v I I I I #
coedge $-1 $368 $280 $283 $369 forward $181 $-1 #
coedge $-1 $286 $183 $184 $274 reversed $114 $-1 #
coedge $-1 $280 $368 $183 $272 reversed $181 $-1 #
edge $-1 $287 -7.8792115228307722 $370 7.8792115228307722 $271 $371 forward 7 unknown #
coedge $-1 $185 $184 $368 $372 forward $73 $-1 #
edge $-1 $278 -47.411114841151161 $370 47.411114841151161 $270 $373 forward 7 unknown #
coedge $-1 $283 $282 $185 $276 reversed $267 $-1 #
edge $-1 $374 -47.411114841151161 $277 47.411114841151161 $275 $375 forward 7 unknown #
vertex $-1 $187 $376 #
vertex $-1 $289 $377 #
straight-curve $-1 47.411114841151161 0 -7.8792115228307722 0 -1 0 I I #
coedge $-1 $269 $271 $188 $281 reversed $181 $-1 #
edge $-1 $284 -23.987561457641544 $287 23.987561457641544 $280 $378 forward 7 unknown #
coedge $-1 $275 $189 $194 $290 forward $267 $-1 #
coedge $-1 $189 $275 $269 $369 reversed $267 $-1 #
vertex $-1 $190 $379 #
straight-curve $-1 0 23.987561457641544 7.8792115228307722 -1 0 0 I I #
coedge $-1 $191 $270 $193 $289 reversed $114 $-1 #
vertex $-1 $281 $380 #
straight-curve $-1 0 -23.987561457641544 7.8792115228307722 1 0 0 I I #
edge $-1 $196 -7.8792115228307722 $278 7.8792115228307722 $193 $381 forward 7 unknown #
edge $-1 $197 -7.8792115228307722 $277 7.8792115228307722 $194 $382 forward 7 unknown #
point $-1 47.411114841151161 -23.987561457641544 7.8792115228307722 #
point $-1 47.411114841151161 23.987561457641544 7.8792115228307722 #
plane-surface $-1 0 0 7.8792115228307722 0 0 1 1 0 0 forward_v I I I I #
coedge $-1 $304 $303 $296 $383 forward $200 $-1 #
coedge $-1 $296 $202 $204 $300 reversed $122 $-1 #
coedge $-1 $202 $295 $294 $383 reversed $122 $-1 #
coedge $-1 $210 $205 $202 $298 forward $211 $-1 #
edge $-1 $301 -16.381072729832244 $384 -13.898141362470096 $297 $385 forward 7 unknown #
coedge $-1 $204 $203 $304 $386 reversed $77 $-1 #
edge $-1 $387 -47.975122915283123 $301 -43.534917388528946 $295 $388 forward 7 unknown #
vertex $-1 $206 $389 #
straight-curve $-1 -11.787571332767286 21.504630090279395 7.8792115228307722 1 0 0 I I #
coedge $-1 $294 $207 $210 $308 reversed $200 $-1 #
coedge $-1 $207 $294 $299 $386 forward $200 $-1 #
vertex $-1 $208 $390 #
straight-curve $-1 -32.749027715351481 23.987561457641544 48.497605451037195 0 0 1 I I #
straight-curve $-1 -32.749027715351481 -2.8397862454473426 43.971294107503567 0 0.55919289150049634 -0.82903758062907751 I I #
edge $-1 $384 14.401257615717661 $212 32.749027715351481 $303 $391 forward 7 unknown #
point $-1 -32.749027715351481 23.987561457641544 7.8792115228307722 #
point $-1 -32.749027715351481 21.504630090279395 7.8792115228307722 #
edge $-1 $392 1 $392 0 $215 $-1 forward 7 unknown #
vertex $-1 $216 $393 #
ellipse-curve $-1 -27.506807686884677 21.631410002001644 5.2867978757605085 0 0.82903758062907751 0.55919289150049634 0.5 0 0 1 I I #
point $-1 -27.006807686884677 22.74609577396048 6.0386628991327225 #
edge $-1 $394 1 $394 0 $219 $-1 forward 7 unknown #
vertex $-1 $220 $395 #
ellipse-curve $-1 -19.643477644184468 21.631410002001644 5.2867978757605085 0 0.82903758062907751 0.55919289150049634 0.5 0 0 1 I I #
point $-1 -19.143477644184468 22.74609577396048 6.0386628991327225 #
loop $-1 $-1 $231 $223 #
plane-surface $-1 0 23.987561457641544 0 0 -1 0 0 0 -1 forward_v I I I I #
coedge $-1 $322 $226 $228 $326 reversed $144 $-1 #
coedge $-1 $226 $321 $396 $397 reversed $144 $-1 #
coedge $-1 $234 $229 $226 $324 forward $224 $-1 #
edge $-1 $327 -16.381072729832244 $398 -13.898141362470096 $323 $399 forward 7 unknown #
coedge $-1 $228 $227 $330 $400 reversed $91 $-1 #
edge $-1 $401 -47.975122915283123 $327 -43.534917388528946 $321 $402 forward 7 unknown #
vertex $-1 $230 $403 #
straight-curve $-1 11.787571332767286 21.504630090279395 7.8792115228307722 1 0 0 I I #
coedge $-1 $396 $231 $234 $334 reversed $319 $-1 #
coedge $-1 $231 $396 $325 $400 forward $319 $-1 #
vertex $-1 $232 $404 #
straight-curve $-1 14.401257615717661 23.987561457641544 48.497605451037195 0 0 1 I I #
straight-curve $-1 14.401257615717661 -2.8397862454473426 43.971294107503567 0 0.55919289150049634 -0.82903758062907751 I I #
edge $-1 $398 -32.749027715351481 $235 -14.401257615717661 $329 $405 forward 7 unknown #
point $-1 14.401257615717661 23.987561457641544 7.8792115228307722 #
point $-1 14.401257615717661 21.504630090279395 7.8792115228307722 #
edge $-1 $406 1 $406 0 $238 $-1 forward 7 unknown #
vertex $-1 $239 $407 #
ellipse-curve $-1 19.643477644184472 21.631410002001644 5.2867978757605085 0 0.82903758062907751 0.55919289150049634 0.5 0 0 1 I I #
point $-1 20.143477644184472 22.74609577396048 6.0386628991327225 #
edge $-1 $408 1 $408 0 $242 $-1 forward 7 unknown #
vertex $-1 $243 $409 #
ellipse-curve $-1 27.50680768688467 21.631410002001644 5.2867978757605085 0 0.82903758062907751 0.55919289150049634 0.5 0 0 1 I I #
point $-1 28.00680768688467 22.74609577396048 6.0386628991327225 #
plane-surface $-1 0 0 7.8792115228307722 0 0 1 1 0 0 forward_v I I I I #
coedge $-1 $356 $355 $348 $410 forward $247 $-1 #
coedge $-1 $348 $249 $251 $352 reversed $166 $-1 #
coedge $-1 $249 $347 $346 $410 reversed $166 $-1 #
coedge $-1 $257 $252 $249 $350 forward $258 $-1 #
edge $-1 $353 -27.450247618561157 $411 -21.530940467943683 $349 $412 forward 7 unknown #
coedge $-1 $251 $250 $356 $413 reversed $105 $-1 #
edge $-1 $414 5.0242958677880813e-015 $353 8.3711645493821489 $347 $415 forward 7 unknown #
vertex $-1 $253 $416 #
straight-curve $-1 7.7130876796579955 -18.06825430702407 7.8792115228307722 -1 0 0 I I #
coedge $-1 $346 $254 $257 $360 reversed $247 $-1 #
coedge $-1 $254 $346 $351 $413 forward $247 $-1 #
vertex $-1 $255 $417 #
straight-curve $-1 20.168733759988651 -23.98756145764154 34.504672536247419 0 0 1 I I #
straight-curve $-1 20.168733759988651 -23.987561457641547 1.9599042348551592 0 -0.70710677298230451 -0.70710678939079041 I I #
edge $-1 $411 10.683616958643331 $259 20.168733759988651 $355 $418 forward 7 unknown #
point $-1 20.168733759988651 -23.987561457641544 7.8792115228307722 #
point $-1 20.168733759988651 -18.06825430702407 7.8792115228307713 #
edge $-1 $419 1 $419 0 $262 $-1 forward 7 unknown #
vertex $-1 $263 $420 #
ellipse-curve $-1 15.426175359315998 -18.88525583712827 2.7769058833588893 0 -0.70710678939079041 0.70710677298230451 1.5 0 0 1 I I #
point $-1 16.926175359315998 -21.027907882332801 4.9195578788429595 #
plane-surface $-1 47.411114841151161 0 0 -1 0 0 0 0 1 forward_v I I I I #
coedge $-1 $271 $269 $273 $372 reversed $181 $-1 #
edge $-1 $284 -7.8792115228307722 $374 7.8792115228307722 $283 $421 forward 7 unknown #
vertex $-1 $372 $422 #
straight-curve $-1 -47.411114841151161 -23.987561457641544 0 0 0 -1 I I #
edge $-1 $370 -23.987561457641544 $374 23.987561457641544 $368 $423 forward 7 unknown #
straight-curve $-1 0 -23.987561457641544 -7.8792115228307722 -1 0 0 I I #
vertex $-1 $276 $424 #
straight-curve $-1 0 23.987561457641544 -7.8792115228307722 1 0 0 I I #
point $-1 47.411114841151161 23.987561457641544 -7.8792115228307722 #
point $-1 47.411114841151161 -23.987561457641544 -7.8792115228307722 #
straight-curve $-1 -47.411114841151161 0 7.8792115228307722 0 -1 0 I I #
point $-1 -47.411114841151161 23.987561457641544 7.8792115228307722 #
point $-1 -47.411114841151161 -23.987561457641544 7.8792115228307722 #
straight-curve $-1 47.411114841151161 -23.987561457641544 0 0 0 -1 I I #
straight-curve $-1 47.411114841151161 23.987561457641544 0 0 0 -1 I I #
edge $-1 $384 40.618393928206423 $387 44.299491175602562 $294 $425 forward 7 unknown #
vertex $-1 $308 $426 #
straight-curve $-1 -14.401257615717661 37.885702820111639 7.8792115228307722 0 1 0 I I #
edge $-1 $387 2.6136862829503755 $305 20.961456382584196 $304 $427 forward 7 unknown #
vertex $-1 $386 $428 #
straight-curve $-1 -14.401257615717661 -2.8397862454473426 43.971294107503567 0 -0.55919289150049634 0.82903758062907751 I I #
point $-1 -14.401257615717661 21.504630090279395 7.8792115228307722 #
point $-1 -32.749027715351481 23.987561457641544 4.1981142754346337 #
straight-curve $-1 0 23.987561457641544 7.8792115228307722 -1 0 0 I I #
vertex $-1 $311 $429 #
point $-1 -27.006807686884677 21.631410002001644 5.2867978757605085 #
vertex $-1 $315 $430 #
point $-1 -19.143477644184468 21.631410002001644 5.2867978757605085 #
coedge $-1 $330 $329 $322 $397 forward $319 $-1 #
edge $-1 $398 40.618393928206423 $401 44.299491175602562 $396 $431 forward 7 unknown #
vertex $-1 $334 $432 #
straight-curve $-1 32.749027715351481 37.885702820111639 7.8792115228307722 0 1 0 I I #
edge $-1 $401 -20.961456382584196 $331 -2.6136862829503755 $330 $433 forward 7 unknown #
vertex $-1 $400 $434 #
straight-curve $-1 32.749027715351481 -2.8397862454473426 43.971294107503567 0 -0.55919289150049634 0.82903758062907751 I I #
point $-1 32.749027715351481 21.504630090279395 7.8792115228307722 #
point $-1 14.401257615717661 23.987561457641544 4.1981142754346337 #
straight-curve $-1 0 23.987561457641544 7.8792115228307722 -1 0 0 I I #
vertex $-1 $337 $435 #
point $-1 20.143477644184472 21.631410002001644 5.2867978757605085 #
vertex $-1 $341 $436 #
point $-1 28.00680768688467 21.631410002001644 5.2867978757605085 #
edge $-1 $411 26.625461013416647 $414 32.544768301392253 $346 $437 forward 7 unknown #
vertex $-1 $360 $438 #
straight-curve $-1 10.683616958643331 -45.518501925585227 7.8792115228307722 0 -1 0 I I #
edge $-1 $414 2.9705292789853353 $357 12.455646080330656 $356 $439 forward 7 unknown #
vertex $-1 $413 $440 #
straight-curve $-1 10.683616958643331 -23.987561457641547 1.9599042348551592 0 0.70710677298230451 0.70710678939079041 I I #
point $-1 10.683616958643331 -18.06825430702407 7.8792115228307713 #
point $-1 20.168733759988651 -23.987561457641544 1.9599042348551627 #
straight-curve $-1 0 -23.987561457641544 7.8792115228307722 1 0 0 I I #
vertex $-1 $363 $441 #
point $-1 16.926175359315998 -18.88525583712827 2.7769058833588893 #
straight-curve $-1 -47.411114841151161 23.987561457641544 0 0 0 -1 I I #
point $-1 -47.411114841151161 -23.987561457641544 -7.8792115228307722 #
straight-curve $-1 -47.411114841151161 0 -7.8792115228307722 0 1 0 I I #
point $-1 -47.411114841151161 23.987561457641544 -7.8792115228307722 #
straight-curve $-1 -14.401257615717661 23.987561457641544 48.497605451037195 0 0 -1 I I #
point $-1 -14.401257615717661 23.987561457641544 7.8792115228307722 #
straight-curve $-1 -11.787571332767286 23.987561457641547 4.1981142754346372 -1 0 0 I I #
point $-1 -14.401257615717661 23.987561457641544 4.1981142754346337 #
point $-1 -27.506807686884677 21.216891211687106 5.0072014300102596 #
point $-1 -19.643477644184468 21.216891211687106 5.0072014300102596 #
straight-curve $-1 32.749027715351481 23.987561457641544 48.497605451037195 0 0 -1 I I #
point $-1 32.749027715351481 23.987561457641544 7.8792115228307722 #
straight-curve $-1 11.787571332767286 23.987561457641547 4.1981142754346372 -1 0 0 I I #
point $-1 32.749027715351481 23.987561457641544 4.1981142754346337 #
point $-1 19.643477644184472 21.216891211687106 5.0072014300102596 #
point $-1 27.50680768688467 21.216891211687106 5.0072014300102596 #
straight-curve $-1 10.683616958643331 -23.98756145764154 34.504672536247419 0 0 -1 I I #
point $-1 10.683616958643331 -23.987561457641544 7.8792115228307722 #
straight-curve $-1 7.7130876796579955 -23.987561457641544 1.9599042348551639 1 0 0 I I #
point $-1 10.683616958643331 -23.987561457641544 1.9599042348551627 #
point $-1 15.426175359315998 -17.824595653042081 1.7162457238854323 #
End-of-ACIS-data 