500 0 9 0           
7 Unknown 11 ACIS 5.0 NT 24 Thu Mar 25 19:54:19 1999 
-1 9.9999999999999995e-007 1e-010 
body $-1 $9 $-1 $10 #
body $-1 $11 $-1 $12 #
body $-1 $13 $-1 $14 #
body $-1 $15 $-1 $16 #
body $-1 $17 $-1 $18 #
body $-1 $19 $-1 $20 #
body $-1 $21 $-1 $22 #
body $-1 $23 $-1 $24 #
body $-1 $25 $-1 $26 #
lump $-1 $-1 $27 $0 #
transform $-1 1 0 0 0 1 0 0 0 1 74.38215277565844 43.210294390695999 12.973638027439385 1 rotate no_reflect no_shear #
lump $-1 $-1 $28 $1 #
transform $-1 1 0 0 0 1 0 0 0 1 74.38215277565844 43.210294390695999 12.973638027439385 1 rotate no_reflect no_shear #
lump $-1 $-1 $29 $2 #
transform $-1 1 0 0 0 1 0 0 0 1 74.38215277565844 43.210294390695999 12.973638027439385 1 rotate no_reflect no_shear #
lump $-1 $-1 $30 $3 #
transform $-1 1 0 0 0 1 0 0 0 1 74.38215277565844 43.210294390695999 12.973638027439385 1 rotate no_reflect no_shear #
lump $-1 $-1 $31 $4 #
transform $-1 1 0 0 0 1 0 0 0 1 74.38215277565844 43.210294390695999 12.973638027439385 1 rotate no_reflect no_shear #
lump $-1 $-1 $32 $5 #
transform $-1 1 0 0 0 1 0 0 0 1 74.38215277565844 43.210294390695999 12.973638027439385 1 rotate no_reflect no_shear #
lump $-1 $-1 $33 $6 #
transform $-1 1 0 0 0 1 0 0 0 1 74.38215277565844 43.210294390695999 12.973638027439385 1 rotate no_reflect no_shear #
lump $-1 $-1 $34 $7 #
transform $-1 1 0 0 0 1 0 0 0 1 74.38215277565844 43.210294390695999 12.973638027439385 1 rotate no_reflect no_shear #
lump $-1 $-1 $35 $8 #
transform $-1 1 0 0 0 1 0 0 0 1 74.38215277565844 43.210294390695999 12.973638027439385 1 rotate no_reflect no_shear #
shell $-1 $-1 $-1 $36 $-1 $9 #
shell $-1 $-1 $-1 $37 $-1 $11 #
shell $-1 $-1 $-1 $38 $-1 $13 #
shell $-1 $-1 $-1 $39 $-1 $15 #
shell $-1 $-1 $-1 $40 $-1 $17 #
shell $-1 $-1 $-1 $41 $-1 $19 #
shell $-1 $-1 $-1 $42 $-1 $21 #
shell $-1 $-1 $-1 $43 $-1 $23 #
shell $-1 $-1 $-1 $44 $-1 $25 #
face $-1 $45 $46 $27 $-1 $47 forward single #
face $-1 $48 $49 $28 $-1 $50 forward single #
face $-1 $51 $52 $29 $-1 $53 forward single #
face $-1 $54 $55 $30 $-1 $56 reversed single #
face $-1 $57 $58 $31 $-1 $59 forward single #
face $-1 $60 $61 $32 $-1 $62 reversed single #
face $-1 $63 $64 $33 $-1 $65 forward single #
face $-1 $66 $67 $34 $-1 $68 forward single #
face $-1 $69 $70 $35 $-1 $71 forward single #
face $-1 $72 $73 $27 $-1 $74 reversed single #
loop $-1 $-1 $75 $36 #
plane-surface $-1 0 0 12.973638027439385 0 0 1 1 0 0 forward_v I I I I #
face $-1 $76 $77 $28 $-1 $78 reversed single #
loop $-1 $-1 $79 $37 #
plane-surface $-1 0 -43.210294390695999 0 0 1 0 0 0 1 forward_v I I I I #
face $-1 $80 $81 $29 $-1 $82 reversed single #
loop $-1 $-1 $83 $38 #
plane-surface $-1 0 43.210294390695999 0 0 -1 0 0 0 -1 forward_v I I I I #
face $-1 $84 $85 $30 $-1 $86 reversed single #
loop $-1 $-1 $87 $39 #
plane-surface $-1 45.10229171192492 -21.337930004984713 214.42314073987592 0 -1 0 -0.6018150307709319 0 -0.79863550430605224 forward_v I I I I #
face $-1 $88 $89 $31 $-1 $90 forward single #
loop $-1 $91 $92 $40 #
cone-surface $-1 68.206304162812927 -27.248839807410832 7.3988874283889139 -0.6018150307709319 0 -0.79863550430605224 1.1979532564590785 0 -0.90272254615639791 1 I I 0 1 1.5 forward I I I I #
face $-1 $93 $94 $32 $-1 $95 reversed single #
loop $-1 $-1 $96 $41 #
plane-surface $-1 -151.00143534135765 16.928783472068051 134.52456454553479 0 1 0 -0.51503808176128008 0 0.85716729658548041 forward_v I I I I #
face $-1 $97 $98 $33 $-1 $99 forward single #
loop $-1 $100 $101 $42 #
cone-surface $-1 -69.060308576796672 19.293228351929109 9.3950828337188703 0.51503808176128008 0 -0.85716729658548041 0.4285836482927402 0 0.25751904088064004 1 I I 0 1 0.5 forward I I I I #
face $-1 $102 $103 $34 $-1 $104 forward single #
loop $-1 $105 $106 $43 #
cone-surface $-1 -69.060308576796672 22.839895671720704 9.3950828337188703 0.51503808176128008 0 -0.85716729658548041 0.4285836482927402 0 0.25751904088064004 1 I I 0 1 0.5 forward I I I I #
face $-1 $107 $108 $35 $-1 $109 forward single #
loop $-1 $110 $111 $44 #
cone-surface $-1 -69.060308576796672 26.386562991512299 9.3950828337188703 0.51503808176128008 0 -0.85716729658548041 0.4285836482927402 0 0.25751904088064004 1 I I 0 1 0.5 forward I I I I #
face $-1 $112 $113 $27 $-1 $114 reversed single #
loop $-1 $-1 $115 $45 #
plane-surface $-1 0 0 -12.973638027439385 0 0 1 1 0 0 forward_v I I I I #
coedge $-1 $116 $117 $118 $119 forward $46 $-1 #
face $-1 $120 $121 $28 $-1 $122 reversed single #
loop $-1 $-1 $123 $48 #
plane-surface $-1 0 0 -12.973638027439385 0 0 1 1 0 0 forward_v I I I I #
coedge $-1 $124 $125 $126 $127 forward $49 $-1 #
face $-1 $128 $129 $29 $-1 $130 forward single #
loop $-1 $-1 $131 $51 #
plane-surface $-1 -74.38215277565844 0 0 1 0 0 0 0 -1 forward_v I I I I #
coedge $-1 $132 $133 $134 $135 forward $52 $-1 #
face $-1 $136 $137 $30 $-1 $138 reversed single #
loop $-1 $-1 $139 $54 #
plane-surface $-1 -44.426303411057162 -27.248839807410832 95.614684553160316 0.6018150307709319 0 0.79863550430605224 0.79863550430605224 0 -0.6018150307709319 forward_v I I I I #
coedge $-1 $140 $141 $142 $143 reversed $55 $-1 #
face $-1 $-1 $144 $31 $-1 $145 forward single #
loop $-1 $146 $147 $57 #
cone-surface $-1 66.149137036007161 -27.248839807410832 4.6689344997394855 -0.6018150307709319 0 -0.79863550430605224 0.59897662822953923 0 -0.45136127307819895 1 I I -0.70710678118654757 0.70710678118654757 0.75 forward I I I I #
loop $-1 $-1 $148 $40 #
coedge $-1 $92 $92 $149 $150 reversed $58 $-1 #
face $-1 $151 $152 $32 $-1 $153 reversed single #
loop $-1 $-1 $154 $60 #
plane-surface $-1 -74.382152775658454 22.839895671720704 7.008666927696126 -0.51503808176128008 0 0.85716729658548041 0.85716729658548041 0 0.51503808176128008 forward_v I I I I #
coedge $-1 $155 $156 $157 $158 reversed $61 $-1 #
face $-1 $-1 $159 $33 $-1 $160 forward single #
loop $-1 $161 $162 $63 #
cone-surface $-1 -68.573394274685384 19.293228351929109 8.5847213657236026 0.51503808176128008 0 -0.85716729658548041 0.2142918241463701 0 0.12875952044032002 1 I I -0.70710678118654746 0.70710678118654746 0.25 forward I I I I #
loop $-1 $-1 $163 $42 #
coedge $-1 $101 $101 $164 $165 reversed $64 $-1 #
face $-1 $-1 $166 $34 $-1 $167 forward single #
loop $-1 $168 $169 $66 #
cone-surface $-1 -68.573394274685384 22.839895671720704 8.5847213657236026 0.51503808176128008 0 -0.85716729658548041 0.2142918241463701 0 0.12875952044032002 1 I I -0.70710678118654746 0.70710678118654746 0.25 forward I I I I #
loop $-1 $-1 $170 $43 #
coedge $-1 $106 $106 $171 $172 reversed $67 $-1 #
face $-1 $-1 $173 $35 $-1 $174 forward single #
loop $-1 $175 $176 $69 #
cone-surface $-1 -68.573394274685384 26.386562991512299 8.5847213657236026 0.51503808176128008 0 -0.85716729658548041 0.2142918241463701 0 0.12875952044032002 1 I I -0.70710678118654746 0.70710678118654746 0.25 forward I I I I #
loop $-1 $-1 $177 $44 #
coedge $-1 $111 $111 $178 $179 reversed $70 $-1 #
face $-1 $180 $181 $27 $-1 $182 reversed single #
loop $-1 $-1 $183 $72 #
plane-surface $-1 0 -43.210294390695999 0 0 1 0 0 0 1 forward_v I I I I #
coedge $-1 $184 $185 $186 $187 forward $73 $-1 #
coedge $-1 $188 $75 $189 $190 forward $46 $-1 #
coedge $-1 $75 $188 $191 $192 forward $46 $-1 #
coedge $-1 $193 $194 $75 $119 reversed $195 $-1 #
edge $-1 $196 -43.210294390695999 $197 43.210294390695999 $118 $198 forward 7 unknown #
face $-1 $199 $200 $28 $-1 $201 forward single #
loop $-1 $-1 $202 $76 #
plane-surface $-1 74.38215277565844 0 0 -1 0 0 0 0 1 forward_v I I I I #
coedge $-1 $203 $204 $205 $206 forward $77 $-1 #
coedge $-1 $205 $79 $202 $207 reversed $49 $-1 #
coedge $-1 $79 $205 $208 $209 reversed $49 $-1 #
coedge $-1 $210 $211 $79 $127 reversed $200 $-1 #
edge $-1 $212 -74.38215277565844 $213 74.38215277565844 $126 $214 forward 7 unknown #
face $-1 $215 $216 $29 $-1 $217 reversed single #
loop $-1 $-1 $218 $80 #
plane-surface $-1 0 48.23556678112552 -5.8555780973359361 0 0 1 1 0 0 forward_v I I I I #
coedge $-1 $219 $220 $132 $221 forward $81 $-1 #
coedge $-1 $222 $83 $131 $221 reversed $52 $-1 #
coedge $-1 $83 $222 $223 $224 reversed $52 $-1 #
coedge $-1 $218 $225 $83 $135 reversed $129 $-1 #
edge $-1 $226 -74.38215277565844 $227 74.38215277565844 $134 $228 forward 7 unknown #
face $-1 $229 $230 $30 $-1 $231 forward single #
loop $-1 $-1 $232 $84 #
plane-surface $-1 45.10229171192492 -33.15974960983695 214.42314073987592 0 1 0 0.6018150307709319 0 0.79863550430605224 forward_v I I I I #
coedge $-1 $233 $234 $235 $236 reversed $85 $-1 #
coedge $-1 $141 $87 $237 $238 reversed $55 $-1 #
coedge $-1 $87 $140 $233 $239 reversed $55 $-1 #
coedge $-1 $235 $240 $87 $143 forward $230 $-1 #
edge $-1 $241 -51.83100691969598 $242 -42.690921401460059 $142 $243 forward 7 unknown #
loop $-1 $-1 $149 $88 #
plane-surface $-1 -44.426303411057162 -27.248839807410832 95.614684553160316 0.6018150307709319 0 0.79863550430605224 0.79863550430605224 0 -0.6018150307709319 forward_v I I I I #
loop $-1 $-1 $244 $57 #
coedge $-1 $147 $147 $148 $245 reversed $89 $-1 #
coedge $-1 $148 $148 $147 $245 forward $91 $-1 #
coedge $-1 $149 $149 $92 $150 forward $144 $-1 #
edge $-1 $246 0 $246 6.2831853071796004 $149 $247 forward 7 unknown #
face $-1 $248 $249 $32 $-1 $250 reversed single #
loop $-1 $-1 $251 $93 #
plane-surface $-1 -151.00143534135765 28.751007871373357 134.52456454553479 0 -1 0 0.51503808176128008 0 -0.85716729658548041 forward_v I I I I #
coedge $-1 $252 $253 $254 $255 reversed $94 $-1 #
coedge $-1 $156 $96 $256 $257 reversed $61 $-1 #
coedge $-1 $96 $155 $252 $258 reversed $61 $-1 #
coedge $-1 $254 $259 $96 $158 forward $260 $-1 #
edge $-1 $261 1.1185648950203841 $262 11.045943729401998 $157 $263 forward 7 unknown #
loop $-1 $-1 $164 $97 #
plane-surface $-1 -74.382152775658454 22.839895671720704 7.008666927696126 -0.51503808176128008 0 0.85716729658548041 0.85716729658548041 0 0.51503808176128008 forward_v I I I I #
loop $-1 $-1 $264 $63 #
coedge $-1 $162 $162 $163 $265 reversed $98 $-1 #
coedge $-1 $163 $163 $162 $265 forward $100 $-1 #
coedge $-1 $164 $164 $101 $165 forward $159 $-1 #
edge $-1 $266 0 $266 6.2831853071796004 $164 $267 forward 7 unknown #
loop $-1 $-1 $171 $102 #
plane-surface $-1 -74.382152775658454 22.839895671720704 7.008666927696126 -0.51503808176128008 0 0.85716729658548041 0.85716729658548041 0 0.51503808176128008 forward_v I I I I #
loop $-1 $-1 $268 $66 #
coedge $-1 $169 $169 $170 $269 reversed $103 $-1 #
coedge $-1 $170 $170 $169 $269 forward $105 $-1 #
coedge $-1 $171 $171 $106 $172 forward $166 $-1 #
edge $-1 $270 0 $270 6.2831853071796004 $171 $271 forward 7 unknown #
loop $-1 $-1 $178 $107 #
plane-surface $-1 -74.382152775658454 22.839895671720704 7.008666927696126 -0.51503808176128008 0 0.85716729658548041 0.85716729658548041 0 0.51503808176128008 forward_v I I I I #
loop $-1 $-1 $272 $69 #
coedge $-1 $176 $176 $177 $273 reversed $108 $-1 #
coedge $-1 $177 $177 $176 $273 forward $110 $-1 #
coedge $-1 $178 $178 $111 $179 forward $173 $-1 #
edge $-1 $274 0 $274 6.2831853071796004 $178 $275 forward 7 unknown #
face $-1 $276 $277 $27 $-1 $278 reversed single #
loop $-1 $-1 $279 $112 #
plane-surface $-1 -74.38215277565844 0 0 1 0 0 0 0 -1 forward_v I I I I #
coedge $-1 $191 $280 $193 $281 reversed $113 $-1 #
coedge $-1 $282 $115 $280 $283 forward $73 $-1 #
coedge $-1 $115 $282 $284 $285 forward $73 $-1 #
coedge $-1 $194 $193 $115 $187 reversed $195 $-1 #
edge $-1 $286 -43.210294390695999 $287 43.210294390695999 $186 $288 forward 7 unknown #
coedge $-1 $117 $116 $289 $290 forward $46 $-1 #
coedge $-1 $291 $292 $116 $190 reversed $277 $-1 #
edge $-1 $197 -74.38215277565844 $293 74.38215277565844 $189 $294 forward 7 unknown #
coedge $-1 $295 $183 $117 $192 reversed $113 $-1 #
edge $-1 $296 -74.38215277565844 $196 74.38215277565844 $191 $297 forward 7 unknown #
coedge $-1 $186 $118 $183 $281 forward $195 $-1 #
coedge $-1 $118 $186 $291 $298 reversed $195 $-1 #
loop $-1 $-1 $193 $276 #
vertex $-1 $119 $299 #
vertex $-1 $119 $300 #
straight-curve $-1 74.38215277565844 0 12.973638027439385 0 1 0 I I #
face $-1 $301 $302 $28 $-1 $303 reversed single #
loop $-1 $-1 $211 $120 #
plane-surface $-1 0 -48.235566781125527 -5.8555780973359361 0 0 1 1 0 0 forward_v I I I I #
coedge $-1 $304 $305 $124 $207 forward $121 $-1 #
coedge $-1 $306 $123 $305 $307 forward $77 $-1 #
coedge $-1 $123 $306 $308 $309 forward $77 $-1 #
coedge $-1 $125 $124 $123 $206 reversed $49 $-1 #
edge $-1 $310 -74.38215277565844 $311 74.38215277565844 $123 $312 forward 7 unknown #
edge $-1 $311 -12.973638027439385 $213 -5.8555780973359361 $202 $313 forward 7 unknown #
coedge $-1 $308 $314 $125 $209 forward $315 $-1 #
edge $-1 $212 5.8555780973359361 $310 12.973638027439385 $208 $316 forward 7 unknown #
coedge $-1 $317 $126 $314 $318 forward $200 $-1 #
coedge $-1 $126 $317 $304 $319 forward $200 $-1 #
vertex $-1 $209 $320 #
vertex $-1 $319 $321 #
straight-curve $-1 0 -43.210294390695999 -5.8555780973359361 1 0 0 I I #
face $-1 $322 $323 $29 $-1 $324 reversed single #
loop $-1 $-1 $325 $128 #
plane-surface $-1 0 53.260839171555048 -9.4146080623876607 0 -1 0 0 0 -1 forward_v I I I I #
coedge $-1 $326 $134 $327 $328 forward $129 $-1 #
coedge $-1 $329 $131 $225 $330 reversed $81 $-1 #
coedge $-1 $131 $329 $331 $332 reversed $81 $-1 #
edge $-1 $333 -12.973638027439385 $227 -5.8555780973359361 $131 $334 forward 7 unknown #
coedge $-1 $133 $132 $335 $336 reversed $52 $-1 #
coedge $-1 $337 $327 $133 $224 forward $338 $-1 #
edge $-1 $226 5.8555780973359361 $339 12.973638027439385 $223 $340 forward 7 unknown #
coedge $-1 $134 $326 $219 $330 forward $129 $-1 #
vertex $-1 $224 $341 #
vertex $-1 $330 $342 #
straight-curve $-1 0 43.210294390695999 -5.8555780973359361 -1 0 0 I I #
face $-1 $-1 $343 $30 $-1 $344 reversed single #
loop $-1 $-1 $142 $136 #
plane-surface $-1 0 0 12.973638027439385 0 0 1 1 0 0 forward_v I I I I #
coedge $-1 $345 $346 $347 $348 reversed $137 $-1 #
coedge $-1 $349 $139 $141 $239 forward $85 $-1 #
coedge $-1 $139 $349 $345 $350 forward $85 $-1 #
coedge $-1 $347 $142 $139 $236 forward $230 $-1 #
edge $-1 $242 7.7135101012792973 $351 19.535329706131535 $235 $352 forward 7 unknown #
coedge $-1 $353 $354 $140 $238 forward $343 $-1 #
edge $-1 $355 -101.12548093975973 $241 -94.237932342498567 $237 $356 forward 7 unknown #
edge $-1 $242 137.31967847306311 $355 148.76430555131691 $141 $357 forward 7 unknown #
coedge $-1 $142 $347 $353 $358 forward $230 $-1 #
vertex $-1 $238 $359 #
vertex $-1 $143 $360 #
straight-curve $-1 22.55114585596246 -21.337930004984713 12.973638027439392 -1 0 0 I I #
coedge $-1 $244 $244 $-1 $361 reversed $146 $-1 #
edge $-1 $362 0 $362 6.2831853071796004 $147 $363 forward 7 unknown #
vertex $-1 $150 $364 #
ellipse-curve $-1 69.812110016540487 -27.248839807410832 9.5298637288087953 0.6018150307709319 0 0.79863550430605224 1.1979532564590785 0 -0.90272254615639791 1 I I #
face $-1 $-1 $260 $32 $-1 $365 forward single #
loop $-1 $-1 $366 $151 #
plane-surface $-1 -74.38215277565844 0 0 1 0 0 0 0 -1 forward_v I I I I #
coedge $-1 $367 $368 $369 $370 reversed $152 $-1 #
coedge $-1 $371 $154 $156 $258 forward $94 $-1 #
coedge $-1 $154 $371 $367 $372 forward $94 $-1 #
coedge $-1 $369 $157 $154 $255 forward $260 $-1 #
edge $-1 $262 5.5088356362076993 $373 17.331060035513005 $254 $374 forward 7 unknown #
coedge $-1 $375 $376 $155 $257 forward $249 $-1 #
edge $-1 $377 -60.25361534507126 $261 -54.288644245328008 $256 $378 forward 7 unknown #
edge $-1 $262 -11.581611750620059 $377 -1.6755537013839907e-014 $156 $379 forward 7 unknown #
coedge $-1 $157 $369 $375 $380 forward $260 $-1 #
loop $-1 $-1 $369 $248 #
vertex $-1 $257 $381 #
vertex $-1 $158 $382 #
straight-curve $-1 -75.500717670678824 16.928783472068051 12.973638027439385 1 0 0 I I #
coedge $-1 $264 $264 $-1 $383 reversed $161 $-1 #
edge $-1 $384 0 $384 6.2831853071796004 $162 $385 forward 7 unknown #
vertex $-1 $165 $386 #
ellipse-curve $-1 -69.418463358467633 19.293228351929109 9.9911524775677591 -0.51503808176128008 0 0.85716729658548041 0.4285836482927402 0 0.25751904088064004 1 I I #
coedge $-1 $268 $268 $-1 $387 reversed $168 $-1 #
edge $-1 $388 0 $388 6.2831853071796004 $169 $389 forward 7 unknown #
vertex $-1 $172 $390 #
ellipse-curve $-1 -69.418463358467633 22.839895671720704 9.9911524775677591 -0.51503808176128008 0 0.85716729658548041 0.4285836482927402 0 0.25751904088064004 1 I I #
coedge $-1 $272 $272 $-1 $391 reversed $175 $-1 #
edge $-1 $392 0 $392 6.2831853071796004 $176 $393 forward 7 unknown #
vertex $-1 $179 $394 #
ellipse-curve $-1 -69.418463358467633 26.386562991512299 9.9911524775677591 -0.51503808176128008 0 0.85716729658548041 0.4285836482927402 0 0.25751904088064004 1 I I #
face $-1 $-1 $195 $27 $-1 $395 reversed single #
loop $-1 $-1 $292 $180 #
plane-surface $-1 0 43.210294390695999 0 0 -1 0 0 0 -1 forward_v I I I I #
coedge $-1 $396 $289 $292 $397 forward $181 $-1 #
coedge $-1 $183 $295 $184 $283 reversed $113 $-1 #
edge $-1 $196 -12.973638027439385 $287 12.973638027439385 $193 $398 forward 7 unknown #
coedge $-1 $185 $184 $396 $399 forward $73 $-1 #
edge $-1 $287 -74.38215277565844 $400 74.38215277565844 $280 $401 forward 7 unknown #
coedge $-1 $292 $291 $185 $285 reversed $277 $-1 #
edge $-1 $402 -74.38215277565844 $286 74.38215277565844 $284 $403 forward 7 unknown #
vertex $-1 $187 $404 #
vertex $-1 $281 $405 #
straight-curve $-1 74.38215277565844 0 -12.973638027439385 0 -1 0 I I #
coedge $-1 $279 $406 $188 $290 reversed $181 $-1 #
edge $-1 $293 -43.210294390695999 $296 43.210294390695999 $289 $407 forward 7 unknown #
coedge $-1 $284 $189 $194 $298 forward $277 $-1 #
coedge $-1 $189 $284 $279 $397 reversed $277 $-1 #
vertex $-1 $190 $408 #
straight-curve $-1 0 43.210294390695999 12.973638027439385 -1 0 0 I I #
coedge $-1 $280 $191 $406 $409 forward $113 $-1 #
vertex $-1 $290 $410 #
straight-curve $-1 0 -43.210294390695999 12.973638027439385 1 0 0 I I #
edge $-1 $197 -12.973638027439385 $286 12.973638027439385 $194 $411 forward 7 unknown #
point $-1 74.38215277565844 -43.210294390695999 12.973638027439385 #
point $-1 74.38215277565844 43.210294390695999 12.973638027439385 #
face $-1 $-1 $315 $28 $-1 $412 reversed single #
loop $-1 $-1 $413 $199 #
plane-surface $-1 0 -53.260839171555055 -9.4146080623876607 0 1 0 0 0 1 forward_v I I I I #
coedge $-1 $414 $202 $211 $319 reversed $121 $-1 #
coedge $-1 $202 $414 $203 $307 reversed $121 $-1 #
coedge $-1 $204 $203 $415 $416 forward $77 $-1 #
edge $-1 $311 43.210294390695999 $417 53.260839171555055 $305 $418 forward 7 unknown #
coedge $-1 $419 $208 $204 $309 reversed $315 $-1 #
edge $-1 $420 -53.260839171555055 $310 -43.210294390695999 $308 $421 forward 7 unknown #
vertex $-1 $209 $422 #
vertex $-1 $307 $423 #
straight-curve $-1 0 -43.210294390695999 -12.973638027439385 1 0 0 I I #
straight-curve $-1 74.38215277565844 -43.210294390695999 0 0 0 1 I I #
coedge $-1 $208 $419 $210 $318 reversed $315 $-1 #
loop $-1 $-1 $208 $301 #
straight-curve $-1 -74.38215277565844 -43.210294390695999 0 0 0 -1 I I #
coedge $-1 $211 $210 $424 $425 forward $200 $-1 #
edge $-1 $212 -5.025272390429528 $426 5.025272390429528 $314 $427 forward 7 unknown #
edge $-1 $428 -5.025272390429528 $213 5.025272390429528 $304 $429 forward 7 unknown #
point $-1 -74.38215277565844 -43.210294390695999 -5.8555780973359361 #
point $-1 74.38215277565844 -43.210294390695999 -5.8555780973359361 #
face $-1 $-1 $338 $29 $-1 $430 reversed single #
loop $-1 $-1 $335 $215 #
plane-surface $-1 0 0 -12.973638027439385 0 0 1 1 0 0 forward_v I I I I #
coedge $-1 $431 $432 $433 $434 forward $216 $-1 #
coedge $-1 $225 $218 $432 $435 forward $129 $-1 #
coedge $-1 $223 $433 $218 $328 reversed $338 $-1 #
edge $-1 $226 -5.025272390429528 $436 5.025272390429528 $327 $437 forward 7 unknown #
coedge $-1 $220 $219 $438 $439 forward $81 $-1 #
edge $-1 $440 -5.025272390429528 $227 5.025272390429528 $219 $441 forward 7 unknown #
coedge $-1 $442 $335 $220 $332 forward $323 $-1 #
edge $-1 $333 -5.0252723904295209 $443 5.025272390429528 $220 $444 forward 7 unknown #
vertex $-1 $332 $445 #
straight-curve $-1 -74.38215277565844 43.210294390695999 0 0 0 1 I I #
coedge $-1 $331 $446 $222 $336 forward $323 $-1 #
edge $-1 $339 -74.38215277565844 $333 74.38215277565844 $335 $447 forward 7 unknown #
coedge $-1 $433 $223 $446 $448 reversed $338 $-1 #
loop $-1 $-1 $223 $322 #
vertex $-1 $224 $449 #
straight-curve $-1 74.38215277565844 43.210294390695999 0 0 0 -1 I I #
point $-1 74.38215277565844 43.210294390695992 -5.8555780973359361 #
point $-1 -74.38215277565844 43.210294390695992 -5.8555780973359361 #
loop $-1 $-1 $237 $229 #
plane-surface $-1 74.38215277565844 0 0 -1 0 0 0 0 1 forward_v I I I I #
coedge $-1 $346 $232 $234 $350 reversed $137 $-1 #
coedge $-1 $232 $345 $450 $451 reversed $137 $-1 #
coedge $-1 $240 $235 $232 $348 forward $230 $-1 #
edge $-1 $351 42.690921401460059 $452 51.83100691969598 $347 $453 forward 7 unknown #
coedge $-1 $234 $233 $354 $454 reversed $85 $-1 #
edge $-1 $455 -148.76430555131691 $351 -137.31967847306311 $345 $456 forward 7 unknown #
vertex $-1 $236 $457 #
straight-curve $-1 65.242067257422519 -13.624419903705416 12.973638027439378 0 -1 0 I I #
coedge $-1 $450 $237 $240 $358 reversed $343 $-1 #
coedge $-1 $237 $450 $349 $454 forward $343 $-1 #
vertex $-1 $238 $458 #
straight-curve $-1 74.38215277565844 -21.337930004984713 107.21157036993796 0 0 1 I I #
straight-curve $-1 -44.426303411057162 -21.337930004984713 95.614684553160316 0.79863550430605224 0 -0.6018150307709319 I I #
edge $-1 $452 -33.15974960983695 $241 -21.337930004984713 $353 $459 forward 7 unknown #
point $-1 74.38215277565844 -21.337930004984713 12.973638027439385 #
point $-1 65.242067257422519 -21.337930004984713 12.973638027439378 #
edge $-1 $460 1 $460 0 $244 $-1 forward 7 unknown #
vertex $-1 $245 $461 #
ellipse-curve $-1 66.600498309085367 -27.248839807410832 5.2679111279690245 0.6018150307709319 0 0.79863550430605224 1.1979532564590785 0 -0.90272254615639791 1 I I #
point $-1 71.01006327299956 -27.248839807410832 8.6271411826524051 #
plane-surface $-1 0 0 12.973638027439385 0 0 1 1 0 0 forward_v I I I I #
coedge $-1 $376 $375 $368 $462 forward $249 $-1 #
coedge $-1 $368 $251 $253 $372 reversed $152 $-1 #
coedge $-1 $251 $367 $366 $462 reversed $152 $-1 #
coedge $-1 $259 $254 $251 $370 forward $260 $-1 #
edge $-1 $373 -11.045943729401998 $463 -1.1185648950203841 $369 $464 forward 7 unknown #
coedge $-1 $253 $252 $376 $465 reversed $94 $-1 #
edge $-1 $466 1.6755537013839907e-014 $373 11.581611750620059 $367 $467 forward 7 unknown #
vertex $-1 $255 $468 #
straight-curve $-1 -64.454773941276827 11.419947835860352 12.973638027439383 0 1 0 I I #
coedge $-1 $366 $256 $259 $380 reversed $249 $-1 #
coedge $-1 $256 $366 $371 $465 forward $249 $-1 #
vertex $-1 $257 $469 #
straight-curve $-1 -74.38215277565844 16.928783472068051 67.262282272767393 0 0 1 I I #
straight-curve $-1 -74.382152775658454 16.928783472068051 7.008666927696126 -0.85716729658548041 0 -0.51503808176128008 I I #
edge $-1 $463 -28.751007871373357 $261 -16.928783472068051 $375 $470 forward 7 unknown #
point $-1 -74.38215277565844 16.928783472068051 12.973638027439385 #
point $-1 -64.454773941276827 16.928783472068051 12.973638027439385 #
edge $-1 $471 1 $471 0 $264 $-1 forward 7 unknown #
vertex $-1 $265 $472 #
ellipse-curve $-1 -68.70215379512571 19.293228351929109 8.7990131898699726 -0.51503808176128008 0 0.85716729658548041 0.4285836482927402 0 0.25751904088064004 1 I I #
point $-1 -68.98987971017489 19.293228351929109 10.248671518448404 #
edge $-1 $473 1 $473 0 $268 $-1 forward 7 unknown #
vertex $-1 $269 $474 #
ellipse-curve $-1 -68.70215379512571 22.839895671720704 8.7990131898699726 -0.51503808176128008 0 0.85716729658548041 0.4285836482927402 0 0.25751904088064004 1 I I #
point $-1 -68.98987971017489 22.839895671720704 10.248671518448404 #
edge $-1 $475 1 $475 0 $272 $-1 forward 7 unknown #
vertex $-1 $273 $476 #
ellipse-curve $-1 -68.70215379512571 26.386562991512299 8.7990131898699726 -0.51503808176128008 0 0.85716729658548041 0.4285836482927402 0 0.25751904088064004 1 I I #
point $-1 -68.98987971017489 26.386562991512299 10.248671518448404 #
plane-surface $-1 74.38215277565844 0 0 -1 0 0 0 0 1 forward_v I I I I #
coedge $-1 $406 $279 $282 $399 reversed $181 $-1 #
edge $-1 $293 -12.973638027439385 $402 12.973638027439385 $292 $477 forward 7 unknown #
straight-curve $-1 74.38215277565844 -43.210294390695999 0 0 0 -1 I I #
edge $-1 $400 -43.210294390695999 $402 43.210294390695999 $396 $478 forward 7 unknown #
vertex $-1 $399 $479 #
straight-curve $-1 0 -43.210294390695999 -12.973638027439385 -1 0 0 I I #
vertex $-1 $285 $480 #
straight-curve $-1 0 43.210294390695999 -12.973638027439385 1 0 0 I I #
point $-1 74.38215277565844 43.210294390695999 -12.973638027439385 #
point $-1 74.38215277565844 -43.210294390695999 -12.973638027439385 #
coedge $-1 $289 $396 $295 $409 reversed $181 $-1 #
straight-curve $-1 -74.38215277565844 0 12.973638027439385 0 -1 0 I I #
point $-1 -74.38215277565844 43.210294390695999 12.973638027439385 #
edge $-1 $296 -12.973638027439385 $400 12.973638027439385 $406 $481 forward 7 unknown #
point $-1 -74.38215277565844 -43.210294390695999 12.973638027439385 #
straight-curve $-1 74.38215277565844 43.210294390695999 0 0 0 -1 I I #
plane-surface $-1 -74.38215277565844 0 0 1 0 0 0 0 -1 forward_v I I I I #
coedge $-1 $415 $424 $419 $482 forward $302 $-1 #
coedge $-1 $305 $304 $483 $484 forward $121 $-1 #
coedge $-1 $483 $413 $306 $416 reversed $302 $-1 #
edge $-1 $417 -74.38215277565844 $420 74.38215277565844 $415 $485 forward 7 unknown #
vertex $-1 $484 $486 #
straight-curve $-1 74.38215277565844 0 -12.973638027439385 0 -1 0 I I #
coedge $-1 $314 $308 $413 $482 reversed $315 $-1 #
vertex $-1 $309 $487 #
straight-curve $-1 -74.38215277565844 0 -12.973638027439385 0 1 0 I I #
point $-1 -74.38215277565844 -43.210294390695999 -12.973638027439385 #
point $-1 74.38215277565844 -43.210294390695999 -12.973638027439385 #
coedge $-1 $413 $483 $317 $425 reversed $302 $-1 #
edge $-1 $426 -74.38215277565844 $428 74.38215277565844 $424 $488 forward 7 unknown #
vertex $-1 $318 $489 #
straight-curve $-1 -74.38215277565844 -48.235566781125527 -5.8555780973359361 0 -1 0 I I #
vertex $-1 $319 $490 #
straight-curve $-1 74.38215277565844 -48.235566781125527 -5.8555780973359361 0 1 0 I I #
plane-surface $-1 74.38215277565844 0 0 -1 0 0 0 0 1 forward_v I I I I #
coedge $-1 $438 $325 $442 $491 reversed $216 $-1 #
coedge $-1 $325 $438 $326 $435 reversed $216 $-1 #
coedge $-1 $327 $337 $325 $434 reversed $338 $-1 #
edge $-1 $436 -3.5590299650517245 $492 3.5590299650517245 $433 $493 forward 7 unknown #
edge $-1 $436 -74.38215277565844 $440 74.38215277565844 $432 $494 forward 7 unknown #
vertex $-1 $328 $495 #
straight-curve $-1 74.38215277565844 48.23556678112552 -5.8555780973359361 0 1 0 I I #
coedge $-1 $432 $431 $329 $439 reversed $216 $-1 #
edge $-1 $440 -3.5590299650517245 $443 3.5590299650517245 $438 $496 forward 7 unknown #
vertex $-1 $435 $497 #
straight-curve $-1 -74.38215277565844 48.23556678112552 -5.8555780973359361 0 -1 0 I I #
coedge $-1 $446 $331 $431 $491 forward $323 $-1 #
vertex $-1 $491 $498 #
straight-curve $-1 -74.38215277565844 48.23556678112552 -12.973638027439385 0 1 0 I I #
point $-1 -74.38215277565844 43.210294390695999 -12.973638027439385 #
coedge $-1 $335 $442 $337 $448 forward $323 $-1 #
straight-curve $-1 0 43.210294390695999 -12.973638027439385 -1 0 0 I I #
edge $-1 $492 -53.260839171555048 $339 -43.210294390695999 $337 $499 forward 7 unknown #
point $-1 74.38215277565844 43.210294390695999 -12.973638027439385 #
coedge $-1 $354 $353 $346 $451 forward $343 $-1 #
edge $-1 $452 94.237932342498567 $455 101.12548093975973 $450 $500 forward 7 unknown #
vertex $-1 $358 $501 #
straight-curve $-1 22.55114585596246 -33.15974960983695 12.973638027439392 1 0 0 I I #
edge $-1 $455 -19.535329706131535 $355 -7.7135101012792973 $354 $502 forward 7 unknown #
vertex $-1 $454 $503 #
straight-curve $-1 -44.426303411057162 -33.15974960983695 95.614684553160316 -0.79863550430605224 0 0.6018150307709319 I I #
point $-1 65.242067257422519 -33.15974960983695 12.973638027439378 #
point $-1 74.38215277565844 -21.337930004984713 6.0860894301782338 #
straight-curve $-1 74.38215277565844 0 12.973638027439385 0 1 0 I I #
vertex $-1 $361 $504 #
point $-1 67.79845156554444 -27.248839807410832 4.3651885818126264 #
edge $-1 $463 54.288644245328008 $466 60.25361534507126 $366 $505 forward 7 unknown #
vertex $-1 $380 $506 #
straight-curve $-1 -75.500717670678824 28.751007871373357 12.973638027439385 -1 0 0 I I #
edge $-1 $466 -17.331060035513005 $377 -5.5088356362076993 $376 $507 forward 7 unknown #
vertex $-1 $465 $508 #
straight-curve $-1 -74.382152775658454 28.751007871373357 7.008666927696126 0.85716729658548041 0 0.51503808176128008 I I #
point $-1 -64.454773941276827 28.751007871373357 12.973638027439385 #
point $-1 -74.38215277565844 16.928783472068051 7.0086669276961349 #
straight-curve $-1 -74.38215277565844 0 12.973638027439385 0 -1 0 I I #
vertex $-1 $383 $509 #
point $-1 -68.273570146832967 19.293228351929109 9.0565322307506122 #
vertex $-1 $387 $510 #
point $-1 -68.273570146832967 22.839895671720704 9.0565322307506122 #
vertex $-1 $391 $511 #
point $-1 -68.273570146832967 26.386562991512299 9.0565322307506122 #
straight-curve $-1 -74.38215277565844 43.210294390695999 0 0 0 -1 I I #
straight-curve $-1 -74.38215277565844 0 -12.973638027439385 0 1 0 I I #
point $-1 -74.38215277565844 -43.210294390695999 -12.973638027439385 #
point $-1 -74.38215277565844 43.210294390695999 -12.973638027439385 #
straight-curve $-1 -74.38215277565844 -43.210294390695999 0 0 0 -1 I I #
edge $-1 $426 -3.5590299650517245 $420 3.5590299650517245 $419 $512 forward 7 unknown #
coedge $-1 $424 $415 $414 $484 reversed $302 $-1 #
edge $-1 $428 -3.5590299650517245 $417 3.5590299650517245 $414 $513 forward 7 unknown #
straight-curve $-1 0 -53.260839171555055 -12.973638027439385 -1 0 0 I I #
point $-1 74.38215277565844 -53.260839171555055 -12.973638027439385 #
point $-1 -74.38215277565844 -53.260839171555055 -12.973638027439385 #
straight-curve $-1 0 -53.260839171555055 -5.8555780973359361 1 0 0 I I #
point $-1 -74.38215277565844 -53.260839171555055 -5.8555780973359361 #
point $-1 74.38215277565844 -53.260839171555055 -5.8555780973359361 #
edge $-1 $443 -74.38215277565844 $492 74.38215277565844 $431 $514 forward 7 unknown #
vertex $-1 $448 $515 #
straight-curve $-1 74.38215277565844 53.260839171555048 -9.4146080623876607 0 0 -1 I I #
straight-curve $-1 0 53.260839171555048 -5.8555780973359361 -1 0 0 I I #
point $-1 74.38215277565844 53.260839171555048 -5.8555780973359361 #
straight-curve $-1 -74.38215277565844 53.260839171555048 -9.4146080623876607 0 0 -1 I I #
point $-1 -74.38215277565844 53.260839171555048 -5.8555780973359361 #
point $-1 -74.38215277565844 53.260839171555048 -12.973638027439385 #
straight-curve $-1 74.38215277565844 0 -12.973638027439385 0 -1 0 I I #
straight-curve $-1 74.38215277565844 -33.15974960983695 107.21157036993796 0 0 -1 I I #
point $-1 74.38215277565844 -33.15974960983695 12.973638027439385 #
straight-curve $-1 74.382152775658426 -13.624419903705416 6.0860894301782267 0 1 0 I I #
point $-1 74.38215277565844 -33.15974960983695 6.0860894301782338 #
point $-1 65.697775762928956 -27.248839807410832 4.0699578715099465 #
straight-curve $-1 -74.38215277565844 28.751007871373357 67.262282272767393 0 0 -1 I I #
point $-1 -74.38215277565844 28.751007871373357 12.973638027439385 #
straight-curve $-1 -74.38215277565844 11.419947835860352 7.0086669276961393 0 -1 0 I I #
point $-1 -74.38215277565844 28.751007871373357 7.0086669276961349 #
point $-1 -68.444634754245058 19.293228351929109 8.3704295415772325 #
point $-1 -68.444634754245058 22.839895671720704 8.3704295415772325 #
point $-1 -68.444634754245058 26.386562991512299 8.3704295415772325 #
straight-curve $-1 -74.38215277565844 -53.260839171555055 -9.4146080623876607 0 0 -1 I I #
straight-curve $-1 74.38215277565844 -53.260839171555055 -9.4146080623876607 0 0 -1 I I #
straight-curve $-1 0 53.260839171555048 -12.973638027439385 1 0 0 I I #
point $-1 74.38215277565844 53.260839171555048 -12.973638027439385 #
End-of-ACIS-data 