500 0 5 0           
7 Unknown 11 ACIS 5.0 NT 24 Thu Mar 25 21:11:20 1999 
-1 9.9999999999999995e-007 1e-010 
body $-1 $5 $-1 $6 #
body $-1 $7 $-1 $8 #
body $-1 $9 $-1 $10 #
body $-1 $11 $-1 $12 #
body $-1 $13 $-1 $14 #
lump $-1 $-1 $15 $0 #
transform $-1 1 0 0 0 1 0 0 0 1 71.579332865382852 33.197545201633858 8.6747038644193672 1 rotate no_reflect no_shear #
lump $-1 $-1 $16 $1 #
transform $-1 1 0 0 0 1 0 0 0 1 71.579332865382852 33.197545201633858 8.6747038644193672 1 rotate no_reflect no_shear #
lump $-1 $-1 $17 $2 #
transform $-1 1 0 0 0 1 0 0 0 1 71.579332865382852 33.197545201633858 8.6747038644193672 1 rotate no_reflect no_shear #
lump $-1 $-1 $18 $3 #
transform $-1 1 0 0 0 1 0 0 0 1 71.579332865382852 33.197545201633858 8.6747038644193672 1 rotate no_reflect no_shear #
lump $-1 $-1 $19 $4 #
transform $-1 1 0 0 0 1 0 0 0 1 71.579332865382852 33.197545201633858 8.6747038644193672 1 rotate no_reflect no_shear #
shell $-1 $-1 $-1 $20 $-1 $5 #
shell $-1 $-1 $-1 $21 $-1 $7 #
shell $-1 $-1 $-1 $22 $-1 $9 #
shell $-1 $-1 $-1 $23 $-1 $11 #
shell $-1 $-1 $-1 $24 $-1 $13 #
face $-1 $25 $26 $15 $-1 $27 forward single #
face $-1 $28 $29 $16 $-1 $30 reversed single #
face $-1 $31 $32 $17 $-1 $33 forward single #
face $-1 $34 $35 $18 $-1 $36 reversed single #
face $-1 $37 $38 $19 $-1 $39 forward single #
face $-1 $40 $41 $15 $-1 $42 reversed single #
loop $-1 $-1 $43 $20 #
plane-surface $-1 0 0 8.6747038644193672 0 0 1 1 0 0 forward_v I I I I #
face $-1 $44 $45 $16 $-1 $46 reversed single #
loop $-1 $-1 $47 $21 #
plane-surface $-1 -191.64229350600147 -24.785143179089026 83.187987941902151 0 -1 0 0.83867057594974714 0 -0.54463902268945019 forward_v I I I I #
face $-1 $48 $49 $17 $-1 $50 forward single #
loop $-1 $51 $52 $22 #
cone-surface $-1 -69.725063695557239 -28.991344190361442 6.4711292464914623 0.83867057594974714 0 -0.54463902268945019 0.54463902268945019 0 0.83867057594974714 1 I I 0 1 1 forward I I I I #
face $-1 $53 $54 $18 $-1 $55 reversed single #
loop $-1 $-1 $56 $23 #
plane-surface $-1 -191.64229350600147 8.4124020225448284 83.187987941902151 0 -1 0 0.83867057594974714 0 -0.54463902268945019 forward_v I I I I #
face $-1 $57 $58 $19 $-1 $59 forward single #
loop $-1 $60 $61 $24 #
cone-surface $-1 -69.725063695557239 4.2062010112724124 6.4711292464914623 0.83867057594974714 0 -0.54463902268945019 0.54463902268945019 0 0.83867057594974714 1 I I 0 1 1 forward I I I I #
face $-1 $62 $63 $15 $-1 $64 reversed single #
loop $-1 $-1 $65 $25 #
plane-surface $-1 0 0 -8.6747038644193672 0 0 1 1 0 0 forward_v I I I I #
coedge $-1 $66 $67 $68 $69 forward $26 $-1 #
face $-1 $70 $71 $16 $-1 $72 forward single #
loop $-1 $-1 $73 $28 #
plane-surface $-1 -71.579332865382867 -28.991344190361442 5.218192148772232 -0.83867057594974714 0 0.54463902268945019 0.54463902268945019 0 0.83867057594974714 forward_v I I I I #
coedge $-1 $74 $75 $76 $77 reversed $29 $-1 #
face $-1 $-1 $78 $17 $-1 $79 forward single #
loop $-1 $80 $81 $31 #
cone-surface $-1 -68.573801678704314 -28.991344190361442 5.7234909750423988 0.83867057594974714 0 -0.54463902268945019 0.2723195113447251 0 0.41933528797487357 1 I I -0.70710678118654746 0.70710678118654746 0.5 forward I I I I #
loop $-1 $-1 $82 $22 #
coedge $-1 $52 $52 $83 $84 reversed $32 $-1 #
face $-1 $85 $86 $18 $-1 $87 reversed single #
loop $-1 $-1 $88 $34 #
plane-surface $-1 -71.579332865382867 4.2062010112724124 5.218192148772232 -0.83867057594974714 0 0.54463902268945019 0.54463902268945019 0 0.83867057594974714 forward_v I I I I #
coedge $-1 $89 $90 $91 $92 reversed $35 $-1 #
face $-1 $-1 $93 $19 $-1 $94 forward single #
loop $-1 $95 $96 $37 #
cone-surface $-1 -68.573801678704314 4.2062010112724124 5.7234909750423988 0.83867057594974714 0 -0.54463902268945019 0.2723195113447251 0 0.41933528797487357 1 I I -0.70710678118654746 0.70710678118654746 0.5 forward I I I I #
loop $-1 $-1 $97 $24 #
coedge $-1 $61 $61 $98 $99 reversed $38 $-1 #
face $-1 $100 $101 $15 $-1 $102 reversed single #
loop $-1 $-1 $103 $40 #
plane-surface $-1 0 -33.197545201633858 0 0 1 0 0 0 1 forward_v I I I I #
coedge $-1 $104 $105 $106 $107 forward $41 $-1 #
coedge $-1 $108 $43 $109 $110 forward $26 $-1 #
coedge $-1 $43 $108 $111 $112 forward $26 $-1 #
coedge $-1 $113 $114 $43 $69 reversed $115 $-1 #
edge $-1 $116 -33.197545201633858 $117 33.197545201633858 $68 $118 forward 7 unknown #
face $-1 $119 $120 $16 $-1 $121 reversed single #
loop $-1 $-1 $122 $44 #
plane-surface $-1 0 0 8.6747038644193672 0 0 1 1 0 0 forward_v I I I I #
coedge $-1 $123 $124 $125 $126 reversed $45 $-1 #
coedge $-1 $75 $47 $127 $128 reversed $29 $-1 #
coedge $-1 $47 $74 $123 $129 reversed $29 $-1 #
coedge $-1 $125 $130 $47 $77 forward $120 $-1 #
edge $-1 $131 32.919290106531705 $132 36.375801822178822 $76 $133 forward 7 unknown #
loop $-1 $-1 $83 $48 #
plane-surface $-1 -71.579332865382867 -28.991344190361442 5.218192148772232 -0.83867057594974714 0 0.54463902268945019 0.54463902268945019 0 0.83867057594974714 forward_v I I I I #
loop $-1 $-1 $134 $31 #
coedge $-1 $81 $81 $82 $135 reversed $49 $-1 #
coedge $-1 $82 $82 $81 $135 forward $51 $-1 #
coedge $-1 $83 $83 $52 $84 forward $78 $-1 #
edge $-1 $136 0 $136 6.2831853071796004 $83 $137 forward 7 unknown #
face $-1 $138 $139 $18 $-1 $140 forward single #
loop $-1 $-1 $141 $53 #
plane-surface $-1 -191.64229350600147 -2.6645352591003757e-015 83.187987941902151 0 1 0 -0.83867057594974714 0 0.54463902268945019 forward_v I I I I #
coedge $-1 $142 $143 $144 $145 reversed $54 $-1 #
coedge $-1 $90 $56 $146 $147 reversed $35 $-1 #
coedge $-1 $56 $89 $142 $148 reversed $35 $-1 #
coedge $-1 $144 $149 $56 $92 forward $150 $-1 #
edge $-1 $151 32.919290106531705 $152 36.375801822178822 $91 $153 forward 7 unknown #
loop $-1 $-1 $98 $57 #
plane-surface $-1 -71.579332865382867 4.2062010112724124 5.218192148772232 -0.83867057594974714 0 0.54463902268945019 0.54463902268945019 0 0.83867057594974714 forward_v I I I I #
loop $-1 $-1 $154 $37 #
coedge $-1 $96 $96 $97 $155 reversed $58 $-1 #
coedge $-1 $97 $97 $96 $155 forward $60 $-1 #
coedge $-1 $98 $98 $61 $99 forward $93 $-1 #
edge $-1 $156 0 $156 6.2831853071796004 $98 $157 forward 7 unknown #
face $-1 $158 $159 $15 $-1 $160 reversed single #
loop $-1 $-1 $161 $62 #
plane-surface $-1 -71.579332865382852 0 0 1 0 0 0 0 -1 forward_v I I I I #
coedge $-1 $162 $111 $163 $164 forward $63 $-1 #
coedge $-1 $165 $65 $162 $166 forward $41 $-1 #
coedge $-1 $65 $165 $167 $168 forward $41 $-1 #
coedge $-1 $114 $113 $65 $107 reversed $115 $-1 #
edge $-1 $169 -33.197545201633858 $170 33.197545201633858 $106 $171 forward 7 unknown #
coedge $-1 $67 $66 $172 $173 forward $26 $-1 #
coedge $-1 $174 $175 $66 $110 reversed $159 $-1 #
edge $-1 $117 -71.579332865382852 $176 71.579332865382852 $109 $177 forward 7 unknown #
coedge $-1 $103 $178 $67 $112 reversed $63 $-1 #
edge $-1 $179 -71.579332865382852 $116 71.579332865382852 $111 $180 forward 7 unknown #
coedge $-1 $106 $68 $178 $181 forward $115 $-1 #
coedge $-1 $68 $106 $174 $182 reversed $115 $-1 #
loop $-1 $-1 $113 $158 #
vertex $-1 $69 $183 #
vertex $-1 $69 $184 #
straight-curve $-1 71.579332865382852 0 8.6747038644193672 0 1 0 I I #
face $-1 $-1 $185 $16 $-1 $186 reversed single #
loop $-1 $-1 $76 $70 #
plane-surface $-1 -71.579332865382852 0 0 1 0 0 0 0 -1 forward_v I I I I #
coedge $-1 $127 $187 $188 $189 forward $71 $-1 #
coedge $-1 $188 $73 $75 $129 forward $45 $-1 #
coedge $-1 $73 $188 $190 $191 reversed $45 $-1 #
coedge $-1 $192 $76 $73 $126 forward $120 $-1 #
edge $-1 $132 10.289471083908305 $193 18.701873106453135 $125 $194 forward 7 unknown #
coedge $-1 $195 $122 $74 $128 forward $71 $-1 #
edge $-1 $196 -26.486498769513005 $131 -24.24181388761788 $127 $197 forward 7 unknown #
edge $-1 $132 2.636201369357039e-014 $196 4.1214176516599839 $75 $198 forward 7 unknown #
coedge $-1 $76 $192 $195 $199 reversed $120 $-1 #
vertex $-1 $199 $200 #
vertex $-1 $77 $201 #
straight-curve $-1 -71.579332865382852 -24.785143179089026 41.593993970951075 0 0 -1 I I #
coedge $-1 $134 $134 $-1 $202 reversed $80 $-1 #
edge $-1 $203 0 $203 6.2831853071796004 $81 $204 forward 7 unknown #
vertex $-1 $84 $205 #
ellipse-curve $-1 -70.45699042443529 -28.991344190361442 6.946448006595805 -0.83867057594974714 0 0.54463902268945019 0.54463902268945019 0 0.83867057594974714 1 I I #
face $-1 $-1 $150 $18 $-1 $206 reversed single #
loop $-1 $-1 $207 $85 #
plane-surface $-1 0 0 8.6747038644193672 0 0 1 1 0 0 forward_v I I I I #
coedge $-1 $208 $209 $210 $211 reversed $86 $-1 #
coedge $-1 $212 $88 $90 $148 forward $54 $-1 #
coedge $-1 $88 $212 $208 $213 forward $54 $-1 #
coedge $-1 $210 $91 $88 $145 forward $150 $-1 #
edge $-1 $152 -6.3093015169086222 $214 2.1031005056362089 $144 $215 forward 7 unknown #
coedge $-1 $216 $217 $89 $147 forward $139 $-1 #
edge $-1 $218 -26.486498769513005 $151 -24.24181388761788 $146 $219 forward 7 unknown #
edge $-1 $152 2.636201369357039e-014 $218 4.1214176516599839 $90 $220 forward 7 unknown #
coedge $-1 $91 $210 $216 $221 reversed $150 $-1 #
loop $-1 $-1 $210 $138 #
vertex $-1 $221 $222 #
vertex $-1 $92 $223 #
straight-curve $-1 -71.579332865382852 8.4124020225448284 41.593993970951075 0 0 -1 I I #
coedge $-1 $154 $154 $-1 $224 reversed $95 $-1 #
edge $-1 $225 0 $225 6.2831853071796004 $96 $226 forward 7 unknown #
vertex $-1 $99 $227 #
ellipse-curve $-1 -70.45699042443529 4.2062010112724124 6.946448006595805 -0.83867057594974714 0 0.54463902268945019 0.54463902268945019 0 0.83867057594974714 1 I I #
face $-1 $-1 $115 $15 $-1 $228 reversed single #
loop $-1 $-1 $174 $100 #
plane-surface $-1 0 33.197545201633858 0 0 -1 0 0 0 -1 forward_v I I I I #
coedge $-1 $229 $172 $175 $230 forward $101 $-1 #
coedge $-1 $178 $103 $104 $166 reversed $63 $-1 #
coedge $-1 $172 $229 $103 $164 reversed $101 $-1 #
edge $-1 $179 -8.6747038644193672 $231 8.6747038644193672 $163 $232 forward 7 unknown #
coedge $-1 $105 $104 $229 $233 forward $41 $-1 #
edge $-1 $170 -71.579332865382852 $231 71.579332865382852 $162 $234 forward 7 unknown #
coedge $-1 $175 $174 $105 $168 reversed $159 $-1 #
edge $-1 $235 -71.579332865382852 $169 71.579332865382852 $167 $236 forward 7 unknown #
vertex $-1 $107 $237 #
vertex $-1 $181 $238 #
straight-curve $-1 71.579332865382852 0 -8.6747038644193672 0 -1 0 I I #
coedge $-1 $161 $163 $108 $173 reversed $101 $-1 #
edge $-1 $176 -33.197545201633858 $179 33.197545201633858 $172 $239 forward 7 unknown #
coedge $-1 $167 $109 $114 $182 forward $159 $-1 #
coedge $-1 $109 $167 $161 $230 reversed $159 $-1 #
vertex $-1 $110 $240 #
straight-curve $-1 0 33.197545201633858 8.6747038644193672 -1 0 0 I I #
coedge $-1 $111 $162 $113 $181 reversed $63 $-1 #
vertex $-1 $173 $241 #
straight-curve $-1 0 -33.197545201633858 8.6747038644193672 1 0 0 I I #
edge $-1 $116 -8.6747038644193672 $170 8.6747038644193672 $113 $242 forward 7 unknown #
edge $-1 $117 -8.6747038644193672 $169 8.6747038644193672 $114 $243 forward 7 unknown #
point $-1 71.579332865382852 -33.197545201633858 8.6747038644193672 #
point $-1 71.579332865382852 33.197545201633858 8.6747038644193672 #
loop $-1 $-1 $190 $119 #
plane-surface $-1 0 -33.197545201633858 0 0 1 0 0 0 1 forward_v I I I I #
coedge $-1 $122 $195 $244 $245 forward $71 $-1 #
coedge $-1 $124 $123 $122 $189 reversed $45 $-1 #
edge $-1 $246 -18.701873106453135 $196 -10.289471083908305 $122 $247 forward 7 unknown #
coedge $-1 $244 $248 $124 $191 forward $185 $-1 #
edge $-1 $193 -17.30427684086883 $246 -13.18285918920887 $190 $249 forward 7 unknown #
coedge $-1 $130 $125 $248 $250 reversed $120 $-1 #
vertex $-1 $126 $251 #
straight-curve $-1 -71.579332865382852 -14.495672095180721 5.218192148772256 0 -1 0 I I #
coedge $-1 $187 $127 $130 $199 forward $71 $-1 #
vertex $-1 $128 $252 #
straight-curve $-1 -95.821146753000733 -24.785143179089026 8.6747038644193708 -1 0 0 I I #
straight-curve $-1 -71.579332865382867 -24.785143179089026 5.218192148772232 0.54463902268945019 0 0.83867057594974714 I I #
edge $-1 $131 24.785143179089026 $253 33.197545201633858 $130 $254 forward 7 unknown #
point $-1 -71.579332865382852 -24.785143179089026 8.6747038644193672 #
point $-1 -71.579332865382852 -24.785143179089026 5.2181921487722542 #
edge $-1 $255 1 $255 0 $134 $-1 forward 7 unknown #
vertex $-1 $135 $256 #
ellipse-curve $-1 -68.993136966679188 -28.991344190361442 5.995810486387124 -0.83867057594974714 0 0.54463902268945019 0.54463902268945019 0 0.83867057594974714 1 I I #
point $-1 -69.912351401745823 -28.991344190361442 7.7851185825455484 #
plane-surface $-1 -71.579332865382852 0 0 1 0 0 0 0 -1 forward_v I I I I #
coedge $-1 $217 $216 $209 $257 forward $139 $-1 #
coedge $-1 $209 $141 $143 $213 reversed $86 $-1 #
coedge $-1 $141 $208 $207 $257 reversed $86 $-1 #
coedge $-1 $149 $144 $141 $211 forward $150 $-1 #
edge $-1 $214 -36.375801822178822 $258 -32.919290106531705 $210 $259 forward 7 unknown #
coedge $-1 $143 $142 $217 $260 reversed $54 $-1 #
edge $-1 $261 -4.1214176516599839 $214 -2.636201369357039e-014 $208 $262 forward 7 unknown #
vertex $-1 $145 $263 #
straight-curve $-1 -71.579332865382852 2.1031005056362062 5.218192148772256 0 -1 0 I I #
coedge $-1 $207 $146 $149 $221 forward $139 $-1 #
coedge $-1 $146 $207 $212 $260 forward $139 $-1 #
vertex $-1 $147 $264 #
straight-curve $-1 -95.821146753000733 8.4124020225448284 8.6747038644193708 -1 0 0 I I #
straight-curve $-1 -71.579332865382867 8.4124020225448284 5.218192148772232 0.54463902268945019 0 0.83867057594974714 I I #
edge $-1 $151 -8.4124020225448284 $258 2.6645352591003757e-015 $149 $265 forward 7 unknown #
point $-1 -71.579332865382852 8.4124020225448284 8.6747038644193672 #
point $-1 -71.579332865382852 8.4124020225448284 5.2181921487722542 #
edge $-1 $266 1 $266 0 $154 $-1 forward 7 unknown #
vertex $-1 $155 $267 #
ellipse-curve $-1 -68.993136966679188 4.2062010112724124 5.995810486387124 -0.83867057594974714 0 0.54463902268945019 0.54463902268945019 0 0.83867057594974714 1 I I #
point $-1 -69.912351401745823 4.2062010112724124 7.7851185825455484 #
plane-surface $-1 71.579332865382852 0 0 -1 0 0 0 0 1 forward_v I I I I #
coedge $-1 $163 $161 $165 $233 reversed $101 $-1 #
edge $-1 $176 -8.6747038644193672 $235 8.6747038644193672 $175 $268 forward 7 unknown #
vertex $-1 $233 $269 #
straight-curve $-1 -71.579332865382852 -33.197545201633858 0 0 0 -1 I I #
edge $-1 $231 -33.197545201633858 $235 33.197545201633858 $229 $270 forward 7 unknown #
straight-curve $-1 0 -33.197545201633858 -8.6747038644193672 -1 0 0 I I #
vertex $-1 $168 $271 #
straight-curve $-1 0 33.197545201633858 -8.6747038644193672 1 0 0 I I #
point $-1 71.579332865382852 33.197545201633858 -8.6747038644193672 #
point $-1 71.579332865382852 -33.197545201633858 -8.6747038644193672 #
straight-curve $-1 -71.579332865382852 0 8.6747038644193672 0 -1 0 I I #
point $-1 -71.579332865382852 33.197545201633858 8.6747038644193672 #
point $-1 -71.579332865382852 -33.197545201633858 8.6747038644193672 #
straight-curve $-1 71.579332865382852 -33.197545201633858 0 0 0 -1 I I #
straight-curve $-1 71.579332865382852 33.197545201633858 0 0 0 -1 I I #
coedge $-1 $248 $190 $187 $245 reversed $185 $-1 #
edge $-1 $253 -71.579332865382852 $246 -69.334647983487727 $244 $272 forward 7 unknown #
vertex $-1 $191 $273 #
straight-curve $-1 -69.334647983487727 -14.495672095180721 8.6747038644193672 0 1 0 I I #
coedge $-1 $190 $244 $192 $250 forward $185 $-1 #
straight-curve $-1 -62.15474843842437 -33.197545201633858 19.730779973297587 0.54463902268945019 0 0.83867057594974714 I I #
edge $-1 $253 -8.6747038644193672 $193 -5.2181921487722542 $192 $274 forward 7 unknown #
point $-1 -71.579332865382852 -33.197545201633858 5.2181921487722542 #
point $-1 -69.334647983487727 -24.785143179089026 8.6747038644193672 #
vertex $-1 $199 $275 #
straight-curve $-1 -71.579332865382852 0 8.6747038644193672 0 -1 0 I I #
vertex $-1 $202 $276 #
point $-1 -68.448497943989736 -28.991344190361442 6.834481062336871 #
edge $-1 $258 24.24181388761788 $261 26.486498769513005 $207 $277 forward 7 unknown #
vertex $-1 $211 $278 #
straight-curve $-1 -71.579332865382852 -2.6645352591003757e-015 41.593993970951075 0 0 1 I I #
edge $-1 $261 -2.1031005056362089 $218 6.3093015169086222 $217 $279 forward 7 unknown #
vertex $-1 $260 $280 #
straight-curve $-1 -71.579332865382867 -2.6645352591003757e-015 5.218192148772232 -0.54463902268945019 0 -0.83867057594974714 I I #
point $-1 -71.579332865382852 -2.6645352591003757e-015 5.2181921487722542 #
point $-1 -69.334647983487727 8.4124020225448284 8.6747038644193672 #
straight-curve $-1 -71.579332865382852 0 8.6747038644193672 0 -1 0 I I #
vertex $-1 $224 $281 #
point $-1 -68.448497943989736 4.2062010112724124 6.834481062336871 #
straight-curve $-1 -71.579332865382852 33.197545201633858 0 0 0 -1 I I #
point $-1 -71.579332865382852 -33.197545201633858 -8.6747038644193672 #
straight-curve $-1 -71.579332865382852 0 -8.6747038644193672 0 1 0 I I #
point $-1 -71.579332865382852 33.197545201633858 -8.6747038644193672 #
straight-curve $-1 0 -33.197545201633858 8.6747038644193672 1 0 0 I I #
point $-1 -69.334647983487727 -33.197545201633858 8.6747038644193672 #
straight-curve $-1 -71.579332865382852 -33.197545201633858 0 0 0 -1 I I #
point $-1 -71.579332865382852 -33.197545201633858 8.6747038644193672 #
point $-1 -68.154466390729439 -28.991344190361442 5.4511714636976736 #
straight-curve $-1 -95.821146753000733 -2.6645352591003757e-015 8.6747038644193708 1 0 0 I I #
point $-1 -71.579332865382852 -2.6645352591003757e-015 8.6747038644193672 #
straight-curve $-1 -69.334647983487727 2.1031005056362062 8.6747038644193672 0 1 0 I I #
point $-1 -69.334647983487727 -2.6645352591003757e-015 8.6747038644193672 #
point $-1 -68.154466390729439 4.2062010112724124 5.4511714636976736 #
End-of-ACIS-data 