500 0 5 0           
7 Unknown 11 ACIS 5.0 NT 24 Thu Mar 25 23:40:16 1999 
-1 9.9999999999999995e-007 1e-010 
body $-1 $5 $-1 $6 #
body $-1 $7 $-1 $8 #
body $-1 $9 $-1 $10 #
body $-1 $11 $-1 $12 #
body $-1 $13 $-1 $14 #
lump $-1 $-1 $15 $0 #
transform $-1 1 0 0 0 1 0 0 0 1 65.918759727774898 40.713841708019693 19.380668361258266 1 rotate no_reflect no_shear #
lump $-1 $-1 $16 $1 #
transform $-1 1 0 0 0 1 0 0 0 1 65.918759727774898 40.713841708019693 19.380668361258266 1 rotate no_reflect no_shear #
lump $-1 $-1 $17 $2 #
transform $-1 1 0 0 0 1 0 0 0 1 65.918759727774898 40.713841708019693 19.380668361258266 1 rotate no_reflect no_shear #
lump $-1 $-1 $18 $3 #
transform $-1 1 0 0 0 1 0 0 0 1 65.918759727774898 40.713841708019693 19.380668361258266 1 rotate no_reflect no_shear #
lump $-1 $-1 $19 $4 #
transform $-1 1 0 0 0 1 0 0 0 1 65.918759727774898 40.713841708019693 19.380668361258266 1 rotate no_reflect no_shear #
shell $-1 $-1 $-1 $20 $-1 $5 #
shell $-1 $-1 $-1 $21 $-1 $7 #
shell $-1 $-1 $-1 $22 $-1 $9 #
shell $-1 $-1 $-1 $23 $-1 $11 #
shell $-1 $-1 $-1 $24 $-1 $13 #
face $-1 $25 $26 $15 $-1 $27 forward single #
face $-1 $28 $29 $16 $-1 $30 reversed single #
face $-1 $31 $32 $17 $-1 $33 forward single #
face $-1 $34 $35 $18 $-1 $36 forward single #
face $-1 $37 $38 $19 $-1 $39 forward single #
face $-1 $40 $41 $15 $-1 $42 reversed single #
loop $-1 $-1 $43 $20 #
plane-surface $-1 0 0 19.380668361258266 0 0 1 1 0 0 forward_v I I I I #
face $-1 $44 $45 $16 $-1 $46 reversed single #
loop $-1 $-1 $47 $21 #
plane-surface $-1 72.425647788510304 -26.101718917471402 201.53920120636278 0 -1 0 -0.73135370988377701 0 -0.68199835119979291 forward_v I I I I #
face $-1 $48 $49 $17 $-1 $50 forward single #
loop $-1 $51 $52 $22 #
cone-surface $-1 63.606785454275951 -33.487490862633983 16.95252068288735 -0.73135370988377701 0 -0.68199835119979291 0.34099917559989645 0 -0.36567685494188851 1 I I 0 1 0.5 forward I I I I #
face $-1 $53 $54 $18 $-1 $55 forward single #
loop $-1 $56 $57 $23 #
cone-surface $-1 63.606785454275951 -30.717826383198016 16.95252068288735 -0.73135370988377701 0 -0.68199835119979291 0.34099917559989645 0 -0.36567685494188851 1 I I 0 1 0.5 forward I I I I #
face $-1 $58 $59 $19 $-1 $60 forward single #
loop $-1 $61 $62 $24 #
cone-surface $-1 63.606785454275951 -27.948161903762049 16.95252068288735 -0.73135370988377701 0 -0.68199835119979291 0.34099917559989645 0 -0.36567685494188851 1 I I 0 1 0.5 forward I I I I #
face $-1 $63 $64 $15 $-1 $65 reversed single #
loop $-1 $-1 $66 $25 #
plane-surface $-1 0 0 -19.380668361258266 0 0 1 1 0 0 forward_v I I I I #
coedge $-1 $67 $68 $69 $70 forward $26 $-1 #
face $-1 $71 $72 $16 $-1 $73 reversed single #
loop $-1 $-1 $74 $28 #
plane-surface $-1 -23.994211167180666 -30.717826383198016 111.6262303114072 0.73135370988377701 0 0.68199835119979291 0.68199835119979291 0 -0.73135370988377701 forward_v I I I I #
coedge $-1 $75 $76 $77 $78 reversed $29 $-1 #
face $-1 $-1 $79 $17 $-1 $80 forward single #
loop $-1 $81 $82 $31 #
cone-surface $-1 63.058270171863114 -33.487490862633983 16.441021919487504 -0.73135370988377701 0 -0.68199835119979291 0.17049958779994823 0 -0.18283842747094425 1 I I -0.70710678118654746 0.70710678118654746 0.25 forward I I I I #
loop $-1 $-1 $83 $22 #
coedge $-1 $52 $52 $84 $85 reversed $32 $-1 #
face $-1 $-1 $86 $18 $-1 $87 forward single #
loop $-1 $88 $89 $34 #
cone-surface $-1 63.058270171863114 -30.717826383198016 16.441021919487504 -0.73135370988377701 0 -0.68199835119979291 0.17049958779994823 0 -0.18283842747094425 1 I I -0.70710678118654746 0.70710678118654746 0.25 forward I I I I #
loop $-1 $-1 $90 $23 #
coedge $-1 $57 $57 $91 $92 reversed $35 $-1 #
face $-1 $-1 $93 $19 $-1 $94 forward single #
loop $-1 $95 $96 $37 #
cone-surface $-1 63.058270171863114 -27.948161903762049 16.441021919487504 -0.73135370988377701 0 -0.68199835119979291 0.17049958779994823 0 -0.18283842747094425 1 I I -0.70710678118654746 0.70710678118654746 0.25 forward I I I I #
loop $-1 $-1 $97 $24 #
coedge $-1 $62 $62 $98 $99 reversed $38 $-1 #
face $-1 $100 $101 $15 $-1 $102 reversed single #
loop $-1 $-1 $103 $40 #
plane-surface $-1 0 -40.713841708019693 0 0 1 0 0 0 1 forward_v I I I I #
coedge $-1 $104 $105 $106 $107 forward $41 $-1 #
coedge $-1 $108 $43 $109 $110 forward $26 $-1 #
coedge $-1 $43 $108 $111 $112 forward $26 $-1 #
coedge $-1 $113 $114 $43 $70 reversed $115 $-1 #
edge $-1 $116 -40.713841708019693 $117 40.713841708019693 $69 $118 forward 7 unknown #
face $-1 $119 $120 $16 $-1 $121 forward single #
loop $-1 $-1 $122 $44 #
plane-surface $-1 72.425647788510304 -35.33393384892463 201.53920120636278 0 1 0 0.73135370988377701 0 0.68199835119979291 forward_v I I I I #
coedge $-1 $123 $124 $125 $126 reversed $45 $-1 #
coedge $-1 $76 $47 $127 $128 reversed $29 $-1 #
coedge $-1 $47 $75 $123 $129 reversed $29 $-1 #
coedge $-1 $125 $130 $47 $78 forward $120 $-1 #
edge $-1 $131 -29.705935833519746 $132 -25.813340996405557 $77 $133 forward 7 unknown #
loop $-1 $-1 $84 $48 #
plane-surface $-1 -23.994211167180666 -30.717826383198016 111.6262303114072 0.73135370988377701 0 0.68199835119979291 0.68199835119979291 0 -0.73135370988377701 forward_v I I I I #
loop $-1 $-1 $134 $31 #
coedge $-1 $82 $82 $83 $135 reversed $49 $-1 #
coedge $-1 $83 $83 $82 $135 forward $51 $-1 #
coedge $-1 $84 $84 $52 $85 forward $79 $-1 #
edge $-1 $136 0 $136 6.2831853071796004 $84 $137 forward 7 unknown #
loop $-1 $-1 $91 $53 #
plane-surface $-1 -23.994211167180666 -30.717826383198016 111.6262303114072 0.73135370988377701 0 0.68199835119979291 0.68199835119979291 0 -0.73135370988377701 forward_v I I I I #
loop $-1 $-1 $138 $34 #
coedge $-1 $89 $89 $90 $139 reversed $54 $-1 #
coedge $-1 $90 $90 $89 $139 forward $56 $-1 #
coedge $-1 $91 $91 $57 $92 forward $86 $-1 #
edge $-1 $140 0 $140 6.2831853071796004 $91 $141 forward 7 unknown #
loop $-1 $-1 $98 $58 #
plane-surface $-1 -23.994211167180666 -30.717826383198016 111.6262303114072 0.73135370988377701 0 0.68199835119979291 0.68199835119979291 0 -0.73135370988377701 forward_v I I I I #
loop $-1 $-1 $142 $37 #
coedge $-1 $96 $96 $97 $143 reversed $59 $-1 #
coedge $-1 $97 $97 $96 $143 forward $61 $-1 #
coedge $-1 $98 $98 $62 $99 forward $93 $-1 #
edge $-1 $144 0 $144 6.2831853071796004 $98 $145 forward 7 unknown #
face $-1 $146 $147 $15 $-1 $148 reversed single #
loop $-1 $-1 $149 $63 #
plane-surface $-1 -65.918759727774898 0 0 1 0 0 0 0 -1 forward_v I I I I #
coedge $-1 $150 $111 $151 $152 forward $64 $-1 #
coedge $-1 $153 $66 $150 $154 forward $41 $-1 #
coedge $-1 $66 $153 $155 $156 forward $41 $-1 #
coedge $-1 $114 $113 $66 $107 reversed $115 $-1 #
edge $-1 $157 -40.713841708019693 $158 40.713841708019693 $106 $159 forward 7 unknown #
coedge $-1 $68 $67 $160 $161 forward $26 $-1 #
coedge $-1 $162 $163 $67 $110 reversed $147 $-1 #
edge $-1 $117 -65.918759727774898 $164 65.918759727774898 $109 $165 forward 7 unknown #
coedge $-1 $103 $166 $68 $112 reversed $64 $-1 #
edge $-1 $167 -65.918759727774898 $116 65.918759727774898 $111 $168 forward 7 unknown #
coedge $-1 $106 $69 $166 $169 forward $115 $-1 #
coedge $-1 $69 $106 $162 $170 reversed $115 $-1 #
loop $-1 $-1 $113 $146 #
vertex $-1 $70 $171 #
vertex $-1 $70 $172 #
straight-curve $-1 65.918759727774898 0 19.380668361258266 0 1 0 I I #
face $-1 $-1 $173 $16 $-1 $174 reversed single #
loop $-1 $-1 $77 $71 #
plane-surface $-1 0 0 19.380668361258266 0 0 1 1 0 0 forward_v I I I I #
coedge $-1 $175 $176 $177 $178 reversed $72 $-1 #
coedge $-1 $179 $74 $76 $129 forward $45 $-1 #
coedge $-1 $74 $179 $175 $180 forward $45 $-1 #
coedge $-1 $177 $77 $74 $126 forward $120 $-1 #
edge $-1 $132 10.742805725872394 $181 19.975020657325622 $125 $182 forward 7 unknown #
coedge $-1 $183 $184 $75 $128 forward $173 $-1 #
edge $-1 $185 -85.563229247465145 $131 -81.388932241923129 $127 $186 forward 7 unknown #
edge $-1 $132 126.12988859358916 $185 131.83751945554977 $76 $187 forward 7 unknown #
coedge $-1 $77 $177 $183 $188 forward $120 $-1 #
vertex $-1 $128 $189 #
vertex $-1 $78 $190 #
straight-curve $-1 36.212823894255152 -26.101718917471402 19.380668361258273 -1 0 0 I I #
coedge $-1 $134 $134 $-1 $191 reversed $81 $-1 #
edge $-1 $192 0 $192 6.2831853071796004 $82 $193 forward 7 unknown #
vertex $-1 $85 $194 #
ellipse-curve $-1 63.972462309217832 -33.487490862633983 17.293519858487237 0.73135370988377701 0 0.68199835119979291 0.34099917559989645 0 -0.36567685494188851 1 I I #
coedge $-1 $138 $138 $-1 $195 reversed $88 $-1 #
edge $-1 $196 0 $196 6.2831853071796004 $89 $197 forward 7 unknown #
vertex $-1 $92 $198 #
ellipse-curve $-1 63.972462309217832 -30.717826383198016 17.293519858487237 0.73135370988377701 0 0.68199835119979291 0.34099917559989645 0 -0.36567685494188851 1 I I #
coedge $-1 $142 $142 $-1 $199 reversed $95 $-1 #
edge $-1 $200 0 $200 6.2831853071796004 $96 $201 forward 7 unknown #
vertex $-1 $99 $202 #
ellipse-curve $-1 63.972462309217832 -27.948161903762049 17.293519858487237 0.73135370988377701 0 0.68199835119979291 0.34099917559989645 0 -0.36567685494188851 1 I I #
face $-1 $-1 $115 $15 $-1 $203 reversed single #
loop $-1 $-1 $162 $100 #
plane-surface $-1 0 40.713841708019693 0 0 -1 0 0 0 -1 forward_v I I I I #
coedge $-1 $204 $160 $163 $205 forward $101 $-1 #
coedge $-1 $166 $103 $104 $154 reversed $64 $-1 #
coedge $-1 $160 $204 $103 $152 reversed $101 $-1 #
edge $-1 $167 -19.380668361258266 $206 19.380668361258266 $151 $207 forward 7 unknown #
coedge $-1 $105 $104 $204 $208 forward $41 $-1 #
edge $-1 $158 -65.918759727774898 $206 65.918759727774898 $150 $209 forward 7 unknown #
coedge $-1 $163 $162 $105 $156 reversed $147 $-1 #
edge $-1 $210 -65.918759727774898 $157 65.918759727774898 $155 $211 forward 7 unknown #
vertex $-1 $107 $212 #
vertex $-1 $169 $213 #
straight-curve $-1 65.918759727774898 0 -19.380668361258266 0 -1 0 I I #
coedge $-1 $149 $151 $108 $161 reversed $101 $-1 #
edge $-1 $164 -40.713841708019693 $167 40.713841708019693 $160 $214 forward 7 unknown #
coedge $-1 $155 $109 $114 $170 forward $147 $-1 #
coedge $-1 $109 $155 $149 $205 reversed $147 $-1 #
vertex $-1 $110 $215 #
straight-curve $-1 0 40.713841708019693 19.380668361258266 -1 0 0 I I #
coedge $-1 $111 $150 $113 $169 reversed $64 $-1 #
vertex $-1 $161 $216 #
straight-curve $-1 0 -40.713841708019693 19.380668361258266 1 0 0 I I #
edge $-1 $116 -19.380668361258266 $158 19.380668361258266 $113 $217 forward 7 unknown #
edge $-1 $117 -19.380668361258266 $157 19.380668361258266 $114 $218 forward 7 unknown #
point $-1 65.918759727774898 -40.713841708019693 19.380668361258266 #
point $-1 65.918759727774898 40.713841708019693 19.380668361258266 #
loop $-1 $-1 $127 $119 #
plane-surface $-1 65.918759727774898 0 0 -1 0 0 0 0 1 forward_v I I I I #
coedge $-1 $176 $122 $124 $180 reversed $72 $-1 #
coedge $-1 $122 $175 $219 $220 reversed $72 $-1 #
coedge $-1 $130 $125 $122 $178 forward $120 $-1 #
edge $-1 $181 25.813340996405557 $221 29.705935833519746 $177 $222 forward 7 unknown #
coedge $-1 $124 $123 $184 $223 reversed $45 $-1 #
edge $-1 $224 -131.83751945554977 $181 -126.12988859358916 $175 $225 forward 7 unknown #
vertex $-1 $126 $226 #
straight-curve $-1 62.026164890660709 -15.358913191599008 19.380668361258266 0 -1 0 I I #
coedge $-1 $219 $127 $130 $188 reversed $173 $-1 #
coedge $-1 $127 $219 $179 $223 forward $173 $-1 #
vertex $-1 $128 $227 #
straight-curve $-1 65.918759727774898 -26.101718917471402 100.76960060318139 0 0 1 I I #
straight-curve $-1 -23.994211167180666 -26.101718917471402 111.6262303114072 0.68199835119979291 0 -0.73135370988377701 I I #
edge $-1 $221 -35.33393384892463 $131 -26.101718917471402 $183 $228 forward 7 unknown #
point $-1 65.918759727774898 -26.101718917471402 19.380668361258266 #
point $-1 62.026164890660709 -26.101718917471402 19.380668361258273 #
edge $-1 $229 1 $229 0 $134 $-1 forward 7 unknown #
vertex $-1 $135 $230 #
ellipse-curve $-1 63.241108599334055 -33.487490862633983 16.611521507287453 0.73135370988377701 0 0.68199835119979291 0.34099917559989645 0 -0.36567685494188851 1 I I #
point $-1 64.313461484817736 -33.487490862633983 16.927843003545355 #
edge $-1 $231 1 $231 0 $138 $-1 forward 7 unknown #
vertex $-1 $139 $232 #
ellipse-curve $-1 63.241108599334055 -30.717826383198016 16.611521507287453 0.73135370988377701 0 0.68199835119979291 0.34099917559989645 0 -0.36567685494188851 1 I I #
point $-1 64.313461484817736 -30.717826383198016 16.927843003545355 #
edge $-1 $233 1 $233 0 $142 $-1 forward 7 unknown #
vertex $-1 $143 $234 #
ellipse-curve $-1 63.241108599334055 -27.948161903762049 16.611521507287453 0.73135370988377701 0 0.68199835119979291 0.34099917559989645 0 -0.36567685494188851 1 I I #
point $-1 64.313461484817736 -27.948161903762049 16.927843003545355 #
plane-surface $-1 65.918759727774898 0 0 -1 0 0 0 0 1 forward_v I I I I #
coedge $-1 $151 $149 $153 $208 reversed $101 $-1 #
edge $-1 $164 -19.380668361258266 $210 19.380668361258266 $163 $235 forward 7 unknown #
vertex $-1 $208 $236 #
straight-curve $-1 -65.918759727774898 -40.713841708019693 0 0 0 -1 I I #
edge $-1 $206 -40.713841708019693 $210 40.713841708019693 $204 $237 forward 7 unknown #
straight-curve $-1 0 -40.713841708019693 -19.380668361258266 -1 0 0 I I #
vertex $-1 $156 $238 #
straight-curve $-1 0 40.713841708019693 -19.380668361258266 1 0 0 I I #
point $-1 65.918759727774898 40.713841708019693 -19.380668361258266 #
point $-1 65.918759727774898 -40.713841708019693 -19.380668361258266 #
straight-curve $-1 -65.918759727774898 0 19.380668361258266 0 -1 0 I I #
point $-1 -65.918759727774898 40.713841708019693 19.380668361258266 #
point $-1 -65.918759727774898 -40.713841708019693 19.380668361258266 #
straight-curve $-1 65.918759727774898 -40.713841708019693 0 0 0 -1 I I #
straight-curve $-1 65.918759727774898 40.713841708019693 0 0 0 -1 I I #
coedge $-1 $184 $183 $176 $220 forward $173 $-1 #
edge $-1 $221 81.388932241923129 $224 85.563229247465145 $219 $239 forward 7 unknown #
vertex $-1 $188 $240 #
straight-curve $-1 36.212823894255152 -35.33393384892463 19.380668361258273 1 0 0 I I #
edge $-1 $224 -19.975020657325622 $185 -10.742805725872394 $184 $241 forward 7 unknown #
vertex $-1 $223 $242 #
straight-curve $-1 -23.994211167180666 -35.33393384892463 111.6262303114072 -0.68199835119979291 0 0.73135370988377701 I I #
point $-1 62.026164890660709 -35.33393384892463 19.380668361258273 #
point $-1 65.918759727774898 -26.101718917471402 15.206371355716243 #
straight-curve $-1 65.918759727774898 0 19.380668361258266 0 1 0 I I #
vertex $-1 $191 $243 #
point $-1 63.582107774933952 -33.487490862633983 16.245844652345564 #
vertex $-1 $195 $244 #
point $-1 63.582107774933952 -30.717826383198016 16.245844652345564 #
vertex $-1 $199 $245 #
point $-1 63.582107774933952 -27.948161903762049 16.245844652345564 #
straight-curve $-1 -65.918759727774898 40.713841708019693 0 0 0 -1 I I #
point $-1 -65.918759727774898 -40.713841708019693 -19.380668361258266 #
straight-curve $-1 -65.918759727774898 0 -19.380668361258266 0 1 0 I I #
point $-1 -65.918759727774898 40.713841708019693 -19.380668361258266 #
straight-curve $-1 65.918759727774898 -35.33393384892463 100.76960060318139 0 0 -1 I I #
point $-1 65.918759727774898 -35.33393384892463 19.380668361258266 #
straight-curve $-1 65.918759727774898 -15.358913191599008 15.206371355716236 0 1 0 I I #
point $-1 65.918759727774898 -35.33393384892463 15.206371355716243 #
point $-1 62.875431744392174 -33.487490862633983 16.270522331687555 #
point $-1 62.875431744392174 -30.717826383198016 16.270522331687555 #
point $-1 62.875431744392174 -27.948161903762049 16.270522331687555 #
End-of-ACIS-data 