500 0 18 0           
7 Unknown 11 ACIS 5.0 NT 24 Fri Mar 26 20:22:16 1999 
-1 9.9999999999999995e-007 1e-010 
body $-1 $18 $-1 $19 #
body $-1 $20 $-1 $21 #
body $-1 $22 $-1 $23 #
body $-1 $24 $-1 $25 #
body $-1 $26 $-1 $27 #
body $-1 $28 $-1 $29 #
body $-1 $30 $-1 $31 #
body $-1 $32 $-1 $33 #
body $-1 $34 $-1 $35 #
body $-1 $36 $-1 $37 #
body $-1 $38 $-1 $39 #
body $-1 $40 $-1 $41 #
body $-1 $42 $-1 $43 #
body $-1 $44 $-1 $45 #
body $-1 $46 $-1 $47 #
body $-1 $48 $-1 $49 #
body $-1 $50 $-1 $51 #
body $-1 $52 $-1 $53 #
lump $-1 $-1 $54 $0 #
transform $-1 1 0 0 0 1 0 0 0 1 49.642628254036069 24.165310891018471 8.9980328272416532 1 rotate no_reflect no_shear #
lump $-1 $-1 $55 $1 #
transform $-1 1 0 0 0 1 0 0 0 1 49.642628254036069 24.165310891018471 8.9980328272416532 1 rotate no_reflect no_shear #
lump $-1 $-1 $56 $2 #
transform $-1 1 0 0 0 1 0 0 0 1 49.642628254036069 24.165310891018471 8.9980328272416532 1 rotate no_reflect no_shear #
lump $-1 $-1 $57 $3 #
transform $-1 1 0 0 0 1 0 0 0 1 49.642628254036069 24.165310891018471 8.9980328272416532 1 rotate no_reflect no_shear #
lump $-1 $-1 $58 $4 #
transform $-1 1 0 0 0 1 0 0 0 1 49.642628254036069 24.165310891018471 8.9980328272416532 1 rotate no_reflect no_shear #
lump $-1 $-1 $59 $5 #
transform $-1 1 0 0 0 1 0 0 0 1 49.642628254036069 24.165310891018471 8.9980328272416532 1 rotate no_reflect no_shear #
lump $-1 $-1 $60 $6 #
transform $-1 1 0 0 0 1 0 0 0 1 49.642628254036069 24.165310891018471 8.9980328272416532 1 rotate no_reflect no_shear #
lump $-1 $-1 $61 $7 #
transform $-1 1 0 0 0 1 0 0 0 1 49.642628254036069 24.165310891018471 8.9980328272416532 1 rotate no_reflect no_shear #
lump $-1 $-1 $62 $8 #
transform $-1 1 0 0 0 1 0 0 0 1 49.642628254036069 24.165310891018471 8.9980328272416532 1 rotate no_reflect no_shear #
lump $-1 $-1 $63 $9 #
transform $-1 1 0 0 0 1 0 0 0 1 49.642628254036069 24.165310891018471 8.9980328272416532 1 rotate no_reflect no_shear #
lump $-1 $-1 $64 $10 #
transform $-1 1 0 0 0 1 0 0 0 1 49.642628254036069 24.165310891018471 8.9980328272416532 1 rotate no_reflect no_shear #
lump $-1 $-1 $65 $11 #
transform $-1 1 0 0 0 1 0 0 0 1 49.642628254036069 24.165310891018471 8.9980328272416532 1 rotate no_reflect no_shear #
lump $-1 $-1 $66 $12 #
transform $-1 1 0 0 0 1 0 0 0 1 49.642628254036069 24.165310891018471 8.9980328272416532 1 rotate no_reflect no_shear #
lump $-1 $-1 $67 $13 #
transform $-1 1 0 0 0 1 0 0 0 1 49.642628254036069 24.165310891018471 8.9980328272416532 1 rotate no_reflect no_shear #
lump $-1 $-1 $68 $14 #
transform $-1 1 0 0 0 1 0 0 0 1 49.642628254036069 24.165310891018471 8.9980328272416532 1 rotate no_reflect no_shear #
lump $-1 $-1 $69 $15 #
transform $-1 1 0 0 0 1 0 0 0 1 49.642628254036069 24.165310891018471 8.9980328272416532 1 rotate no_reflect no_shear #
lump $-1 $-1 $70 $16 #
transform $-1 1 0 0 0 1 0 0 0 1 49.642628254036069 24.165310891018471 8.9980328272416532 1 rotate no_reflect no_shear #
lump $-1 $-1 $71 $17 #
transform $-1 1 0 0 0 1 0 0 0 1 49.642628254036069 24.165310891018471 8.9980328272416532 1 rotate no_reflect no_shear #
shell $-1 $-1 $-1 $72 $-1 $18 #
shell $-1 $-1 $-1 $73 $-1 $20 #
shell $-1 $-1 $-1 $74 $-1 $22 #
shell $-1 $-1 $-1 $75 $-1 $24 #
shell $-1 $-1 $-1 $76 $-1 $26 #
shell $-1 $-1 $-1 $77 $-1 $28 #
shell $-1 $-1 $-1 $78 $-1 $30 #
shell $-1 $-1 $-1 $79 $-1 $32 #
shell $-1 $-1 $-1 $80 $-1 $34 #
shell $-1 $-1 $-1 $81 $-1 $36 #
shell $-1 $-1 $-1 $82 $-1 $38 #
shell $-1 $-1 $-1 $83 $-1 $40 #
shell $-1 $-1 $-1 $84 $-1 $42 #
shell $-1 $-1 $-1 $85 $-1 $44 #
shell $-1 $-1 $-1 $86 $-1 $46 #
shell $-1 $-1 $-1 $87 $-1 $48 #
shell $-1 $-1 $-1 $88 $-1 $50 #
shell $-1 $-1 $-1 $89 $-1 $52 #
face $-1 $90 $91 $54 $-1 $92 reversed single #
face $-1 $93 $94 $55 $-1 $95 forward single #
face $-1 $96 $97 $56 $-1 $98 reversed single #
face $-1 $99 $100 $57 $-1 $101 forward single #
face $-1 $102 $103 $58 $-1 $104 forward single #
face $-1 $105 $106 $59 $-1 $107 forward single #
face $-1 $108 $109 $60 $-1 $110 reversed single #
face $-1 $111 $112 $61 $-1 $113 forward single #
face $-1 $114 $115 $62 $-1 $116 forward single #
face $-1 $117 $118 $63 $-1 $119 forward single #
face $-1 $120 $121 $64 $-1 $122 reversed single #
face $-1 $123 $124 $65 $-1 $125 forward single #
face $-1 $126 $127 $66 $-1 $128 forward single #
face $-1 $129 $130 $67 $-1 $131 forward single #
face $-1 $132 $133 $68 $-1 $134 reversed single #
face $-1 $135 $136 $69 $-1 $137 forward single #
face $-1 $138 $139 $70 $-1 $140 forward single #
face $-1 $141 $142 $71 $-1 $143 forward single #
face $-1 $144 $145 $54 $-1 $146 forward single #
loop $-1 $-1 $147 $72 #
plane-surface $-1 0 -24.165310891018471 0 0 1 0 0 0 1 forward_v I I I I #
face $-1 $148 $149 $55 $-1 $150 forward single #
loop $-1 $-1 $151 $73 #
plane-surface $-1 0 -24.165310891018471 0 0 1 0 0 0 1 forward_v I I I I #
face $-1 $152 $153 $56 $-1 $154 reversed single #
loop $-1 $-1 $155 $74 #
plane-surface $-1 -38.752217026932961 85.983555772727783 95.31313988438454 1 0 0 0 -0.86602541151947299 -0.49999998660252726 forward_v I I I I #
face $-1 $156 $157 $57 $-1 $158 forward single #
loop $-1 $159 $160 $75 #
cone-surface $-1 -35.966036446949978 21.80858694711452 5.909688782542811 0 -0.86602541151947299 -0.49999998660252726 1 0 0 1 I I 0 1 1 forward I I I I #
face $-1 $161 $162 $58 $-1 $163 forward single #
loop $-1 $164 $165 $76 #
cone-surface $-1 -31.786765576975498 21.80858694711452 5.909688782542811 0 -0.86602541151947299 -0.49999998660252726 1 0 0 1 I I 0 1 1 forward I I I I #
face $-1 $166 $167 $59 $-1 $168 forward single #
loop $-1 $169 $170 $77 #
cone-surface $-1 -27.60749470700102 21.80858694711452 5.909688782542811 0 -0.86602541151947299 -0.49999998660252726 1 0 0 1 I I 0 1 1 forward I I I I #
face $-1 $171 $172 $60 $-1 $173 reversed single #
loop $-1 $-1 $174 $78 #
plane-surface $-1 -17.561039975615962 85.983555772727783 95.31313988438454 1 0 0 0 -0.86602541151947299 -0.49999998660252726 forward_v I I I I #
face $-1 $175 $176 $61 $-1 $177 forward single #
loop $-1 $178 $179 $79 #
cone-surface $-1 -14.77485939563298 21.80858694711452 5.909688782542811 0 -0.86602541151947299 -0.49999998660252726 1 0 0 1 I I 0 1 1 forward I I I I #
face $-1 $180 $181 $62 $-1 $182 forward single #
loop $-1 $183 $184 $80 #
cone-surface $-1 -10.595588525658499 21.80858694711452 5.909688782542811 0 -0.86602541151947299 -0.49999998660252726 1 0 0 1 I I 0 1 1 forward I I I I #
face $-1 $185 $186 $63 $-1 $187 forward single #
loop $-1 $188 $189 $81 #
cone-surface $-1 -6.4163176556840256 21.80858694711452 5.909688782542811 0 -0.86602541151947299 -0.49999998660252726 1 0 0 1 I I 0 1 1 forward I I I I #
face $-1 $190 $191 $64 $-1 $192 reversed single #
loop $-1 $-1 $193 $82 #
plane-surface $-1 3.6301370757010352 85.983555772727783 95.31313988438454 1 0 0 0 -0.86602541151947299 -0.49999998660252726 forward_v I I I I #
face $-1 $194 $195 $65 $-1 $196 forward single #
loop $-1 $197 $198 $83 #
cone-surface $-1 6.4163176556840185 21.80858694711452 5.909688782542811 0 -0.86602541151947299 -0.49999998660252726 1 0 0 1 I I 0 1 1 forward I I I I #
face $-1 $199 $200 $66 $-1 $201 forward single #
loop $-1 $202 $203 $84 #
cone-surface $-1 10.595588525658499 21.80858694711452 5.909688782542811 0 -0.86602541151947299 -0.49999998660252726 1 0 0 1 I I 0 1 1 forward I I I I #
face $-1 $204 $205 $67 $-1 $206 forward single #
loop $-1 $207 $208 $85 #
cone-surface $-1 14.774859395632973 21.80858694711452 5.909688782542811 0 -0.86602541151947299 -0.49999998660252726 1 0 0 1 I I 0 1 1 forward I I I I #
face $-1 $209 $210 $68 $-1 $211 reversed single #
loop $-1 $-1 $212 $86 #
plane-surface $-1 24.821314127018034 85.983555772727783 95.31313988438454 1 0 0 0 -0.86602541151947299 -0.49999998660252726 forward_v I I I I #
face $-1 $213 $214 $69 $-1 $215 forward single #
loop $-1 $216 $217 $87 #
cone-surface $-1 27.60749470700101 21.80858694711452 5.909688782542811 0 -0.86602541151947299 -0.49999998660252726 1 0 0 1 I I 0 1 1 forward I I I I #
face $-1 $218 $219 $70 $-1 $220 forward single #
loop $-1 $221 $222 $88 #
cone-surface $-1 31.786765576975498 21.80858694711452 5.909688782542811 0 -0.86602541151947299 -0.49999998660252726 1 0 0 1 I I 0 1 1 forward I I I I #
face $-1 $223 $224 $71 $-1 $225 forward single #
loop $-1 $226 $227 $89 #
cone-surface $-1 35.966036446949971 21.80858694711452 5.909688782542811 0 -0.86602541151947299 -0.49999998660252726 1 0 0 1 I I 0 1 1 forward I I I I #
face $-1 $228 $229 $54 $-1 $230 reversed single #
loop $-1 $-1 $231 $90 #
plane-surface $-1 0 0 8.9980328272416532 0 0 1 1 0 0 forward_v I I I I #
coedge $-1 $232 $233 $234 $235 reversed $91 $-1 #
face $-1 $236 $237 $55 $-1 $238 reversed single #
loop $-1 $-1 $239 $93 #
plane-surface $-1 0 0 8.9980328272416532 0 0 1 1 0 0 forward_v I I I I #
coedge $-1 $240 $241 $242 $243 forward $94 $-1 #
face $-1 $244 $245 $56 $-1 $246 reversed single #
loop $-1 $-1 $247 $96 #
plane-surface $-1 -31.786765576975498 6.4750817330150312e-007 45.670512960519986 0 0.86602541151947299 0.49999998660252726 1 0 0 forward_v I I I I #
coedge $-1 $248 $249 $250 $251 reversed $97 $-1 #
face $-1 $-1 $252 $57 $-1 $253 forward single #
loop $-1 $254 $255 $99 #
cone-surface $-1 -35.966036446949978 20.515072659023446 5.1628779867938075 0 -0.86602541151947299 -0.49999998660252726 0.5 0 0 1 I I -0.70710678118654746 0.70710678118654746 0.5 forward I I I I #
loop $-1 $-1 $256 $75 #
coedge $-1 $160 $160 $257 $258 reversed $100 $-1 #
face $-1 $-1 $259 $58 $-1 $260 forward single #
loop $-1 $261 $262 $102 #
cone-surface $-1 -31.786765576975498 20.515072659023446 5.1628779867938075 0 -0.86602541151947299 -0.49999998660252726 0.5 0 0 1 I I -0.70710678118654746 0.70710678118654746 0.5 forward I I I I #
loop $-1 $-1 $263 $76 #
coedge $-1 $165 $165 $264 $265 reversed $103 $-1 #
face $-1 $-1 $266 $59 $-1 $267 forward single #
loop $-1 $268 $269 $105 #
cone-surface $-1 -27.60749470700102 20.515072659023446 5.1628779867938075 0 -0.86602541151947299 -0.49999998660252726 0.5 0 0 1 I I -0.70710678118654746 0.70710678118654746 0.5 forward I I I I #
loop $-1 $-1 $270 $77 #
coedge $-1 $170 $170 $271 $272 reversed $106 $-1 #
face $-1 $273 $274 $60 $-1 $275 reversed single #
loop $-1 $-1 $276 $108 #
plane-surface $-1 -10.595588525658499 6.4750817330150312e-007 45.670512960519986 0 0.86602541151947299 0.49999998660252726 1 0 0 forward_v I I I I #
coedge $-1 $277 $278 $279 $280 reversed $109 $-1 #
face $-1 $-1 $281 $61 $-1 $282 forward single #
loop $-1 $283 $284 $111 #
cone-surface $-1 -14.77485939563298 20.515072659023446 5.1628779867938075 0 -0.86602541151947299 -0.49999998660252726 0.5 0 0 1 I I -0.70710678118654746 0.70710678118654746 0.5 forward I I I I #
loop $-1 $-1 $285 $79 #
coedge $-1 $179 $179 $286 $287 reversed $112 $-1 #
face $-1 $-1 $288 $62 $-1 $289 forward single #
loop $-1 $290 $291 $114 #
cone-surface $-1 -10.595588525658499 20.515072659023446 5.1628779867938075 0 -0.86602541151947299 -0.49999998660252726 0.5 0 0 1 I I -0.70710678118654746 0.70710678118654746 0.5 forward I I I I #
loop $-1 $-1 $292 $80 #
coedge $-1 $184 $184 $293 $294 reversed $115 $-1 #
face $-1 $-1 $295 $63 $-1 $296 forward single #
loop $-1 $297 $298 $117 #
cone-surface $-1 -6.4163176556840256 20.515072659023446 5.1628779867938075 0 -0.86602541151947299 -0.49999998660252726 0.5 0 0 1 I I -0.70710678118654746 0.70710678118654746 0.5 forward I I I I #
loop $-1 $-1 $299 $81 #
coedge $-1 $189 $189 $300 $301 reversed $118 $-1 #
face $-1 $302 $303 $64 $-1 $304 reversed single #
loop $-1 $-1 $305 $120 #
plane-surface $-1 10.595588525658499 6.4750817330150312e-007 45.670512960519986 0 0.86602541151947299 0.49999998660252726 1 0 0 forward_v I I I I #
coedge $-1 $306 $307 $308 $309 reversed $121 $-1 #
face $-1 $-1 $310 $65 $-1 $311 forward single #
loop $-1 $312 $313 $123 #
cone-surface $-1 6.4163176556840185 20.515072659023446 5.1628779867938075 0 -0.86602541151947299 -0.49999998660252726 0.5 0 0 1 I I -0.70710678118654746 0.70710678118654746 0.5 forward I I I I #
loop $-1 $-1 $314 $83 #
coedge $-1 $198 $198 $315 $316 reversed $124 $-1 #
face $-1 $-1 $317 $66 $-1 $318 forward single #
loop $-1 $319 $320 $126 #
cone-surface $-1 10.595588525658499 20.515072659023446 5.1628779867938075 0 -0.86602541151947299 -0.49999998660252726 0.5 0 0 1 I I -0.70710678118654746 0.70710678118654746 0.5 forward I I I I #
loop $-1 $-1 $321 $84 #
coedge $-1 $203 $203 $322 $323 reversed $127 $-1 #
face $-1 $-1 $324 $67 $-1 $325 forward single #
loop $-1 $326 $327 $129 #
cone-surface $-1 14.774859395632973 20.515072659023446 5.1628779867938075 0 -0.86602541151947299 -0.49999998660252726 0.5 0 0 1 I I -0.70710678118654746 0.70710678118654746 0.5 forward I I I I #
loop $-1 $-1 $328 $85 #
coedge $-1 $208 $208 $329 $330 reversed $130 $-1 #
face $-1 $331 $332 $68 $-1 $333 reversed single #
loop $-1 $-1 $334 $132 #
plane-surface $-1 31.786765576975498 6.4750817330150312e-007 45.670512960519986 0 0.86602541151947299 0.49999998660252726 1 0 0 forward_v I I I I #
coedge $-1 $335 $336 $337 $338 reversed $133 $-1 #
face $-1 $-1 $339 $69 $-1 $340 forward single #
loop $-1 $341 $342 $135 #
cone-surface $-1 27.60749470700101 20.515072659023446 5.1628779867938075 0 -0.86602541151947299 -0.49999998660252726 0.5 0 0 1 I I -0.70710678118654746 0.70710678118654746 0.5 forward I I I I #
loop $-1 $-1 $343 $87 #
coedge $-1 $217 $217 $344 $345 reversed $136 $-1 #
face $-1 $-1 $346 $70 $-1 $347 forward single #
loop $-1 $348 $349 $138 #
cone-surface $-1 31.786765576975498 20.515072659023446 5.1628779867938075 0 -0.86602541151947299 -0.49999998660252726 0.5 0 0 1 I I -0.70710678118654746 0.70710678118654746 0.5 forward I I I I #
loop $-1 $-1 $350 $88 #
coedge $-1 $222 $222 $351 $352 reversed $139 $-1 #
face $-1 $-1 $353 $71 $-1 $354 forward single #
loop $-1 $355 $356 $141 #
cone-surface $-1 35.966036446949971 20.515072659023446 5.1628779867938075 0 -0.86602541151947299 -0.49999998660252726 0.5 0 0 1 I I -0.70710678118654746 0.70710678118654746 0.5 forward I I I I #
loop $-1 $-1 $357 $89 #
coedge $-1 $227 $227 $358 $359 reversed $142 $-1 #
face $-1 $360 $361 $54 $-1 $362 reversed single #
loop $-1 $-1 $363 $144 #
plane-surface $-1 0 0 -8.9980328272416532 0 0 1 1 0 0 forward_v I I I I #
coedge $-1 $364 $365 $366 $367 forward $145 $-1 #
coedge $-1 $368 $147 $369 $370 reversed $91 $-1 #
coedge $-1 $147 $368 $371 $372 forward $91 $-1 #
coedge $-1 $373 $363 $147 $235 forward $229 $-1 #
edge $-1 $374 -49.642628254036069 $375 49.642628254036069 $147 $376 forward 7 unknown #
face $-1 $377 $378 $55 $-1 $379 reversed single #
loop $-1 $-1 $380 $148 #
plane-surface $-1 -49.642628254036069 0 0 1 0 0 0 0 -1 forward_v I I I I #
coedge $-1 $381 $382 $241 $383 forward $149 $-1 #
coedge $-1 $384 $151 $385 $386 reversed $94 $-1 #
coedge $-1 $151 $384 $239 $383 reversed $94 $-1 #
coedge $-1 $387 $388 $151 $243 reversed $389 $-1 #
edge $-1 $390 -8.9980328272416532 $391 8.9980328272416532 $242 $392 forward 7 unknown #
face $-1 $393 $394 $56 $-1 $395 reversed single #
loop $-1 $-1 $396 $152 #
plane-surface $-1 -24.821314127018034 85.983555772727783 95.31313988438454 -1 0 0 0 0.86602541151947299 0.49999998660252726 forward_v I I I I #
coedge $-1 $397 $398 $399 $400 reversed $153 $-1 #
coedge $-1 $249 $155 $401 $402 reversed $97 $-1 #
coedge $-1 $155 $248 $397 $403 reversed $97 $-1 #
coedge $-1 $399 $404 $155 $251 forward $405 $-1 #
edge $-1 $406 18.82646699534542 $407 21.818911718490654 $250 $408 forward 7 unknown #
loop $-1 $-1 $257 $156 #
plane-surface $-1 -31.786765576975498 6.4750817330150312e-007 45.670512960519986 0 0.86602541151947299 0.49999998660252726 1 0 0 forward_v I I I I #
loop $-1 $-1 $409 $99 #
coedge $-1 $255 $255 $256 $410 reversed $157 $-1 #
coedge $-1 $256 $256 $255 $410 forward $159 $-1 #
coedge $-1 $257 $257 $160 $258 forward $252 $-1 #
edge $-1 $411 7.1395988686750108e-016 $411 6.2831853071796013 $257 $412 forward 7 unknown #
loop $-1 $-1 $264 $161 #
plane-surface $-1 -31.786765576975498 6.4750817330150312e-007 45.670512960519986 0 0.86602541151947299 0.49999998660252726 1 0 0 forward_v I I I I #
loop $-1 $-1 $413 $102 #
coedge $-1 $262 $262 $263 $414 reversed $162 $-1 #
coedge $-1 $263 $263 $262 $414 forward $164 $-1 #
coedge $-1 $264 $264 $165 $265 forward $259 $-1 #
edge $-1 $415 7.1395988686750108e-016 $415 6.2831853071796013 $264 $416 forward 7 unknown #
loop $-1 $-1 $271 $166 #
plane-surface $-1 -31.786765576975498 6.4750817330150312e-007 45.670512960519986 0 0.86602541151947299 0.49999998660252726 1 0 0 forward_v I I I I #
loop $-1 $-1 $417 $105 #
coedge $-1 $269 $269 $270 $418 reversed $167 $-1 #
coedge $-1 $270 $270 $269 $418 forward $169 $-1 #
coedge $-1 $271 $271 $170 $272 forward $266 $-1 #
edge $-1 $419 7.1395988686750108e-016 $419 6.2831853071796013 $271 $420 forward 7 unknown #
face $-1 $421 $422 $60 $-1 $423 forward single #
loop $-1 $-1 $424 $171 #
plane-surface $-1 -3.6301370757010352 85.983555772727783 95.31313988438454 -1 0 0 0 0.86602541151947299 0.49999998660252726 forward_v I I I I #
coedge $-1 $425 $426 $427 $428 reversed $172 $-1 #
coedge $-1 $278 $174 $429 $430 reversed $109 $-1 #
coedge $-1 $174 $277 $425 $431 reversed $109 $-1 #
coedge $-1 $427 $432 $174 $280 forward $422 $-1 #
edge $-1 $433 18.82646699534542 $434 21.818911718490654 $279 $435 forward 7 unknown #
loop $-1 $-1 $286 $175 #
plane-surface $-1 -10.595588525658499 6.4750817330150312e-007 45.670512960519986 0 0.86602541151947299 0.49999998660252726 1 0 0 forward_v I I I I #
loop $-1 $-1 $436 $111 #
coedge $-1 $284 $284 $285 $437 reversed $176 $-1 #
coedge $-1 $285 $285 $284 $437 forward $178 $-1 #
coedge $-1 $286 $286 $179 $287 forward $281 $-1 #
edge $-1 $438 7.1395988686750108e-016 $438 6.2831853071796013 $286 $439 forward 7 unknown #
loop $-1 $-1 $293 $180 #
plane-surface $-1 -10.595588525658499 6.4750817330150312e-007 45.670512960519986 0 0.86602541151947299 0.49999998660252726 1 0 0 forward_v I I I I #
loop $-1 $-1 $440 $114 #
coedge $-1 $291 $291 $292 $441 reversed $181 $-1 #
coedge $-1 $292 $292 $291 $441 forward $183 $-1 #
coedge $-1 $293 $293 $184 $294 forward $288 $-1 #
edge $-1 $442 7.1395988686750108e-016 $442 6.2831853071796013 $293 $443 forward 7 unknown #
loop $-1 $-1 $300 $185 #
plane-surface $-1 -10.595588525658499 6.4750817330150312e-007 45.670512960519986 0 0.86602541151947299 0.49999998660252726 1 0 0 forward_v I I I I #
loop $-1 $-1 $444 $117 #
coedge $-1 $298 $298 $299 $445 reversed $186 $-1 #
coedge $-1 $299 $299 $298 $445 forward $188 $-1 #
coedge $-1 $300 $300 $189 $301 forward $295 $-1 #
edge $-1 $446 7.1395988686750108e-016 $446 6.2831853071796013 $300 $447 forward 7 unknown #
face $-1 $448 $449 $64 $-1 $450 forward single #
loop $-1 $-1 $451 $190 #
plane-surface $-1 17.561039975615962 85.983555772727783 95.31313988438454 -1 0 0 0 0.86602541151947299 0.49999998660252726 forward_v I I I I #
coedge $-1 $452 $453 $454 $455 reversed $191 $-1 #
coedge $-1 $307 $193 $456 $457 reversed $121 $-1 #
coedge $-1 $193 $306 $452 $458 reversed $121 $-1 #
coedge $-1 $454 $459 $193 $309 forward $449 $-1 #
edge $-1 $460 18.82646699534542 $461 21.818911718490654 $308 $462 forward 7 unknown #
loop $-1 $-1 $315 $194 #
plane-surface $-1 10.595588525658499 6.4750817330150312e-007 45.670512960519986 0 0.86602541151947299 0.49999998660252726 1 0 0 forward_v I I I I #
loop $-1 $-1 $463 $123 #
coedge $-1 $313 $313 $314 $464 reversed $195 $-1 #
coedge $-1 $314 $314 $313 $464 forward $197 $-1 #
coedge $-1 $315 $315 $198 $316 forward $310 $-1 #
edge $-1 $465 7.1395988686750108e-016 $465 6.2831853071796013 $315 $466 forward 7 unknown #
loop $-1 $-1 $322 $199 #
plane-surface $-1 10.595588525658499 6.4750817330150312e-007 45.670512960519986 0 0.86602541151947299 0.49999998660252726 1 0 0 forward_v I I I I #
loop $-1 $-1 $467 $126 #
coedge $-1 $320 $320 $321 $468 reversed $200 $-1 #
coedge $-1 $321 $321 $320 $468 forward $202 $-1 #
coedge $-1 $322 $322 $203 $323 forward $317 $-1 #
edge $-1 $469 7.1395988686750108e-016 $469 6.2831853071796013 $322 $470 forward 7 unknown #
loop $-1 $-1 $329 $204 #
plane-surface $-1 10.595588525658499 6.4750817330150312e-007 45.670512960519986 0 0.86602541151947299 0.49999998660252726 1 0 0 forward_v I I I I #
loop $-1 $-1 $471 $129 #
coedge $-1 $327 $327 $328 $472 reversed $205 $-1 #
coedge $-1 $328 $328 $327 $472 forward $207 $-1 #
coedge $-1 $329 $329 $208 $330 forward $324 $-1 #
edge $-1 $473 7.1395988686750108e-016 $473 6.2831853071796013 $329 $474 forward 7 unknown #
face $-1 $475 $476 $68 $-1 $477 forward single #
loop $-1 $-1 $478 $209 #
plane-surface $-1 38.752217026932961 85.983555772727783 95.31313988438454 -1 0 0 0 0.86602541151947299 0.49999998660252726 forward_v I I I I #
coedge $-1 $479 $480 $481 $482 reversed $210 $-1 #
coedge $-1 $336 $212 $483 $484 reversed $133 $-1 #
coedge $-1 $212 $335 $479 $485 reversed $133 $-1 #
coedge $-1 $481 $486 $212 $338 forward $476 $-1 #
edge $-1 $487 18.82646699534542 $488 21.818911718490654 $337 $489 forward 7 unknown #
loop $-1 $-1 $344 $213 #
plane-surface $-1 31.786765576975498 6.4750817330150312e-007 45.670512960519986 0 0.86602541151947299 0.49999998660252726 1 0 0 forward_v I I I I #
loop $-1 $-1 $490 $135 #
coedge $-1 $342 $342 $343 $491 reversed $214 $-1 #
coedge $-1 $343 $343 $342 $491 forward $216 $-1 #
coedge $-1 $344 $344 $217 $345 forward $339 $-1 #
edge $-1 $492 7.1395988686750108e-016 $492 6.2831853071796013 $344 $493 forward 7 unknown #
loop $-1 $-1 $351 $218 #
plane-surface $-1 31.786765576975498 6.4750817330150312e-007 45.670512960519986 0 0.86602541151947299 0.49999998660252726 1 0 0 forward_v I I I I #
loop $-1 $-1 $494 $138 #
coedge $-1 $349 $349 $350 $495 reversed $219 $-1 #
coedge $-1 $350 $350 $349 $495 forward $221 $-1 #
coedge $-1 $351 $351 $222 $352 forward $346 $-1 #
edge $-1 $496 7.1395988686750108e-016 $496 6.2831853071796013 $351 $497 forward 7 unknown #
loop $-1 $-1 $358 $223 #
plane-surface $-1 31.786765576975498 6.4750817330150312e-007 45.670512960519986 0 0.86602541151947299 0.49999998660252726 1 0 0 forward_v I I I I #
loop $-1 $-1 $498 $141 #
coedge $-1 $356 $356 $357 $499 reversed $224 $-1 #
coedge $-1 $357 $357 $356 $499 forward $226 $-1 #
coedge $-1 $358 $358 $227 $359 forward $353 $-1 #
edge $-1 $500 7.1395988686750108e-016 $500 6.2831853071796013 $358 $501 forward 7 unknown #
face $-1 $502 $503 $54 $-1 $504 reversed single #
loop $-1 $-1 $505 $228 #
plane-surface $-1 -49.642628254036069 0 0 1 0 0 0 0 -1 forward_v I I I I #
coedge $-1 $234 $506 $507 $508 forward $229 $-1 #
coedge $-1 $509 $231 $510 $511 forward $145 $-1 #
coedge $-1 $231 $509 $368 $512 forward $145 $-1 #
coedge $-1 $369 $513 $231 $367 reversed $514 $-1 #
edge $-1 $515 -24.165310891018471 $516 24.165310891018471 $366 $517 forward 7 unknown #
coedge $-1 $233 $232 $365 $512 reversed $91 $-1 #
coedge $-1 $507 $366 $232 $370 forward $514 $-1 #
edge $-1 $515 -8.9980328272416532 $374 8.9980328272416532 $369 $518 forward 7 unknown #
coedge $-1 $519 $520 $233 $372 reversed $361 $-1 #
edge $-1 $521 -8.9980328272416532 $375 8.9980328272416532 $371 $522 forward 7 unknown #
coedge $-1 $506 $234 $520 $523 forward $229 $-1 #
vertex $-1 $370 $524 #
vertex $-1 $523 $525 #
straight-curve $-1 0 -24.165310891018471 -8.9980328272416532 -1 0 0 I I #
face $-1 $526 $389 $55 $-1 $527 reversed single #
loop $-1 $-1 $528 $236 #
plane-surface $-1 -47.065473241969656 -35.945206929166702 0 0 1 0 0 0 1 forward_v I I I I #
coedge $-1 $529 $530 $384 $531 forward $237 $-1 #
coedge $-1 $532 $239 $530 $533 forward $149 $-1 #
coedge $-1 $239 $532 $387 $534 forward $149 $-1 #
edge $-1 $390 44.488318229903243 $535 49.642628254036069 $239 $536 forward 7 unknown #
coedge $-1 $241 $240 $380 $531 reversed $94 $-1 #
coedge $-1 $537 $538 $240 $386 forward $539 $-1 #
edge $-1 $540 -49.642628254036069 $391 -44.488318229903243 $385 $541 forward 7 unknown #
coedge $-1 $542 $242 $382 $534 reversed $389 $-1 #
coedge $-1 $242 $542 $537 $543 reversed $389 $-1 #
loop $-1 $-1 $542 $377 #
vertex $-1 $383 $544 #
vertex $-1 $543 $545 #
straight-curve $-1 -44.488318229903243 -24.165310891018471 0 0 0 -1 I I #
face $-1 $-1 $405 $56 $-1 $546 forward single #
loop $-1 $-1 $547 $244 #
plane-surface $-1 0 24.165310891018471 0 0 -1 0 0 0 -1 forward_v I I I I #
coedge $-1 $548 $549 $550 $551 reversed $245 $-1 #
coedge $-1 $552 $247 $249 $403 forward $153 $-1 #
coedge $-1 $247 $552 $548 $553 forward $153 $-1 #
coedge $-1 $550 $250 $247 $400 forward $405 $-1 #
edge $-1 $407 -22.858834238445212 $554 -8.9279313385302856 $399 $555 forward 7 unknown #
coedge $-1 $556 $557 $248 $402 forward $394 $-1 #
edge $-1 $558 -43.84160359945286 $406 -38.658537114950619 $401 $559 forward 7 unknown #
edge $-1 $407 42.345732175381713 $558 48.330621782036971 $249 $560 forward 7 unknown #
coedge $-1 $250 $550 $556 $561 forward $405 $-1 #
loop $-1 $-1 $550 $393 #
vertex $-1 $402 $562 #
vertex $-1 $251 $563 #
straight-curve $-1 -38.752217026932961 42.991777886363892 8.9980328272416514 0 -1 0 I I #
coedge $-1 $409 $409 $-1 $564 reversed $254 $-1 #
edge $-1 $565 0 $565 6.2831853071796004 $255 $566 forward 7 unknown #
vertex $-1 $258 $567 #
ellipse-curve $-1 -35.966036446949978 22.669088529445851 6.4064995849905451 0 0.86602541151947299 0.49999998660252726 1 0 0 1 I I #
coedge $-1 $413 $413 $-1 $568 reversed $261 $-1 #
edge $-1 $569 0 $569 6.2831853071796004 $262 $570 forward 7 unknown #
vertex $-1 $265 $571 #
ellipse-curve $-1 -31.786765576975498 22.669088529445851 6.4064995849905451 0 0.86602541151947299 0.49999998660252726 1 0 0 1 I I #
coedge $-1 $417 $417 $-1 $572 reversed $268 $-1 #
edge $-1 $573 0 $573 6.2831853071796004 $269 $574 forward 7 unknown #
vertex $-1 $272 $575 #
ellipse-curve $-1 -27.60749470700102 22.669088529445851 6.4064995849905451 0 0.86602541151947299 0.49999998660252726 1 0 0 1 I I #
face $-1 $-1 $576 $60 $-1 $577 reversed single #
loop $-1 $-1 $279 $273 #
plane-surface $-1 0 0 8.9980328272416532 0 0 1 1 0 0 forward_v I I I I #
coedge $-1 $578 $579 $580 $581 reversed $274 $-1 #
coedge $-1 $582 $276 $278 $431 forward $172 $-1 #
coedge $-1 $276 $582 $578 $583 forward $172 $-1 #
coedge $-1 $580 $279 $276 $428 forward $422 $-1 #
edge $-1 $434 -12.263245712786713 $584 1.6676571871282144 $427 $585 forward 7 unknown #
coedge $-1 $586 $587 $277 $430 forward $576 $-1 #
edge $-1 $588 -43.84160359945286 $433 -38.658537114950619 $429 $589 forward 7 unknown #
edge $-1 $434 42.345732175381713 $588 48.330621782036971 $278 $590 forward 7 unknown #
coedge $-1 $279 $580 $586 $591 forward $422 $-1 #
vertex $-1 $280 $592 #
vertex $-1 $280 $593 #
straight-curve $-1 -17.561039975615962 42.991777886363892 8.9980328272416514 0 -1 0 I I #
coedge $-1 $436 $436 $-1 $594 reversed $283 $-1 #
edge $-1 $595 0 $595 6.2831853071796004 $284 $596 forward 7 unknown #
vertex $-1 $287 $597 #
ellipse-curve $-1 -14.77485939563298 22.669088529445851 6.4064995849905451 0 0.86602541151947299 0.49999998660252726 1 0 0 1 I I #
coedge $-1 $440 $440 $-1 $598 reversed $290 $-1 #
edge $-1 $599 0 $599 6.2831853071796004 $291 $600 forward 7 unknown #
vertex $-1 $294 $601 #
ellipse-curve $-1 -10.595588525658499 22.669088529445851 6.4064995849905451 0 0.86602541151947299 0.49999998660252726 1 0 0 1 I I #
coedge $-1 $444 $444 $-1 $602 reversed $297 $-1 #
edge $-1 $603 0 $603 6.2831853071796004 $298 $604 forward 7 unknown #
vertex $-1 $301 $605 #
ellipse-curve $-1 -6.4163176556840256 22.669088529445851 6.4064995849905451 0 0.86602541151947299 0.49999998660252726 1 0 0 1 I I #
face $-1 $-1 $606 $64 $-1 $607 reversed single #
loop $-1 $-1 $308 $302 #
plane-surface $-1 0 0 8.9980328272416532 0 0 1 1 0 0 forward_v I I I I #
coedge $-1 $608 $609 $610 $611 reversed $303 $-1 #
coedge $-1 $612 $305 $307 $458 forward $191 $-1 #
coedge $-1 $305 $612 $608 $613 forward $191 $-1 #
coedge $-1 $610 $308 $305 $455 forward $449 $-1 #
edge $-1 $461 -1.6676571871282144 $614 12.263245712786713 $454 $615 forward 7 unknown #
coedge $-1 $616 $617 $306 $457 forward $606 $-1 #
edge $-1 $618 -43.84160359945286 $460 -38.658537114950619 $456 $619 forward 7 unknown #
edge $-1 $461 42.345732175381713 $618 48.330621782036971 $307 $620 forward 7 unknown #
coedge $-1 $308 $610 $616 $621 forward $449 $-1 #
vertex $-1 $309 $622 #
vertex $-1 $309 $623 #
straight-curve $-1 3.6301370757010352 42.991777886363892 8.9980328272416514 0 -1 0 I I #
coedge $-1 $463 $463 $-1 $624 reversed $312 $-1 #
edge $-1 $625 0 $625 6.2831853071796004 $313 $626 forward 7 unknown #
vertex $-1 $316 $627 #
ellipse-curve $-1 6.4163176556840185 22.669088529445851 6.4064995849905451 0 0.86602541151947299 0.49999998660252726 1 0 0 1 I I #
coedge $-1 $467 $467 $-1 $628 reversed $319 $-1 #
edge $-1 $629 0 $629 6.2831853071796004 $320 $630 forward 7 unknown #
vertex $-1 $323 $631 #
ellipse-curve $-1 10.595588525658499 22.669088529445851 6.4064995849905451 0 0.86602541151947299 0.49999998660252726 1 0 0 1 I I #
coedge $-1 $471 $471 $-1 $632 reversed $326 $-1 #
edge $-1 $633 0 $633 6.2831853071796004 $327 $634 forward 7 unknown #
vertex $-1 $330 $635 #
ellipse-curve $-1 14.774859395632973 22.669088529445851 6.4064995849905451 0 0.86602541151947299 0.49999998660252726 1 0 0 1 I I #
face $-1 $-1 $636 $68 $-1 $637 reversed single #
loop $-1 $-1 $337 $331 #
plane-surface $-1 0 0 8.9980328272416532 0 0 1 1 0 0 forward_v I I I I #
coedge $-1 $638 $639 $640 $641 reversed $332 $-1 #
coedge $-1 $642 $334 $336 $485 forward $210 $-1 #
coedge $-1 $334 $642 $638 $643 forward $210 $-1 #
coedge $-1 $640 $337 $334 $482 forward $476 $-1 #
edge $-1 $488 8.9279313385302856 $644 22.858834238445212 $481 $645 forward 7 unknown #
coedge $-1 $646 $647 $335 $484 forward $636 $-1 #
edge $-1 $648 -43.84160359945286 $487 -38.658537114950619 $483 $649 forward 7 unknown #
edge $-1 $488 42.345732175381713 $648 48.330621782036971 $336 $650 forward 7 unknown #
coedge $-1 $337 $640 $646 $651 forward $476 $-1 #
vertex $-1 $338 $652 #
vertex $-1 $338 $653 #
straight-curve $-1 24.821314127018034 42.991777886363892 8.9980328272416514 0 -1 0 I I #
coedge $-1 $490 $490 $-1 $654 reversed $341 $-1 #
edge $-1 $655 0 $655 6.2831853071796004 $342 $656 forward 7 unknown #
vertex $-1 $345 $657 #
ellipse-curve $-1 27.60749470700101 22.669088529445851 6.4064995849905451 0 0.86602541151947299 0.49999998660252726 1 0 0 1 I I #
coedge $-1 $494 $494 $-1 $658 reversed $348 $-1 #
edge $-1 $659 0 $659 6.2831853071796004 $349 $660 forward 7 unknown #
vertex $-1 $352 $661 #
ellipse-curve $-1 31.786765576975498 22.669088529445851 6.4064995849905451 0 0.86602541151947299 0.49999998660252726 1 0 0 1 I I #
coedge $-1 $498 $498 $-1 $662 reversed $355 $-1 #
edge $-1 $663 0 $663 6.2831853071796004 $356 $664 forward 7 unknown #
vertex $-1 $359 $665 #
ellipse-curve $-1 35.966036446949971 22.669088529445851 6.4064995849905451 0 0.86602541151947299 0.49999998660252726 1 0 0 1 I I #
face $-1 $-1 $514 $54 $-1 $666 reversed single #
loop $-1 $-1 $667 $360 #
plane-surface $-1 0 24.165310891018471 0 0 -1 0 0 0 -1 forward_v I I I I #
coedge $-1 $520 $519 $668 $669 forward $361 $-1 #
coedge $-1 $363 $373 $670 $671 forward $229 $-1 #
coedge $-1 $513 $369 $363 $508 reversed $514 $-1 #
edge $-1 $672 -24.165310891018471 $374 24.165310891018471 $507 $673 forward 7 unknown #
coedge $-1 $365 $364 $519 $674 forward $145 $-1 #
coedge $-1 $667 $668 $364 $511 reversed $503 $-1 #
edge $-1 $516 -49.642628254036069 $675 49.642628254036069 $510 $676 forward 7 unknown #
edge $-1 $521 -49.642628254036069 $515 49.642628254036069 $368 $677 forward 7 unknown #
coedge $-1 $366 $507 $667 $678 reversed $514 $-1 #
loop $-1 $-1 $369 $502 #
vertex $-1 $367 $679 #
vertex $-1 $367 $680 #
straight-curve $-1 49.642628254036069 0 8.9980328272416532 0 1 0 I I #
straight-curve $-1 49.642628254036069 -24.165310891018471 0 0 0 -1 I I #
coedge $-1 $505 $371 $509 $674 reversed $361 $-1 #
coedge $-1 $371 $505 $373 $523 reversed $361 $-1 #
vertex $-1 $674 $681 #
straight-curve $-1 -49.642628254036069 -24.165310891018471 0 0 0 -1 I I #
edge $-1 $375 -24.165310891018471 $682 24.165310891018471 $520 $683 forward 7 unknown #
point $-1 49.642628254036069 -24.165310891018471 -8.9980328272416532 #
point $-1 -49.642628254036069 -24.165310891018471 -8.9980328272416532 #
face $-1 $-1 $539 $55 $-1 $684 reversed single #
plane-surface $-1 -44.488318229903243 -30.055258910092586 0 -1 0 0 0 0 1 forward_v I I I I #
coedge $-1 $685 $686 $687 $688 forward $378 $-1 #
coedge $-1 $687 $380 $538 $689 reversed $237 $-1 #
coedge $-1 $380 $687 $381 $533 reversed $237 $-1 #
edge $-1 $535 -8.9980328272416532 $540 8.9980328272416532 $380 $690 forward 7 unknown #
coedge $-1 $382 $381 $686 $691 forward $149 $-1 #
edge $-1 $535 24.165310891018471 $692 35.945206929166702 $530 $693 forward 7 unknown #
edge $-1 $694 -5.8899480190741151 $390 5.8899480190741151 $387 $695 forward 7 unknown #
vertex $-1 $533 $696 #
straight-curve $-1 0 -24.165310891018471 8.9980328272416532 -1 0 0 I I #
coedge $-1 $697 $385 $388 $543 forward $539 $-1 #
coedge $-1 $385 $697 $529 $689 forward $539 $-1 #
loop $-1 $-1 $385 $526 #
vertex $-1 $531 $698 #
straight-curve $-1 0 -24.165310891018471 -8.9980328272416532 1 0 0 I I #
coedge $-1 $388 $387 $699 $700 forward $389 $-1 #
edge $-1 $391 -5.8899480190741151 $701 5.8899480190741151 $388 $702 forward 7 unknown #
point $-1 -44.488318229903243 -24.165310891018471 8.9980328272416532 #
point $-1 -44.488318229903243 -24.165310891018471 -8.9980328272416532 #
plane-surface $-1 0 0 8.9980328272416532 0 0 1 1 0 0 forward_v I I I I #
coedge $-1 $557 $556 $549 $703 forward $394 $-1 #
coedge $-1 $549 $396 $398 $553 reversed $245 $-1 #
coedge $-1 $396 $548 $547 $703 reversed $245 $-1 #
coedge $-1 $404 $399 $396 $551 forward $405 $-1 #
edge $-1 $554 -21.818911718490654 $704 -18.82646699534542 $550 $705 forward 7 unknown #
coedge $-1 $398 $397 $557 $706 reversed $153 $-1 #
edge $-1 $707 -48.330621782036971 $554 -42.345732175381713 $548 $708 forward 7 unknown #
vertex $-1 $400 $709 #
straight-curve $-1 -15.893382788487749 21.172866167873238 8.9980328272416514 1 0 0 I I #
coedge $-1 $547 $401 $404 $561 reversed $394 $-1 #
coedge $-1 $401 $547 $552 $706 forward $394 $-1 #
vertex $-1 $402 $710 #
straight-curve $-1 -38.752217026932961 24.165310891018471 47.65656994219227 0 0 1 I I #
straight-curve $-1 -38.752217026932961 6.4750817330150312e-007 45.670512960519986 0 0.49999998660252726 -0.86602541151947299 I I #
edge $-1 $704 24.821314127018034 $406 38.752217026932961 $556 $711 forward 7 unknown #
point $-1 -38.752217026932961 24.165310891018471 8.9980328272416532 #
point $-1 -38.752217026932961 21.172866167873238 8.9980328272416514 #
edge $-1 $712 1 $712 0 $409 $-1 forward 7 unknown #
vertex $-1 $410 $713 #
ellipse-curve $-1 -35.966036446949978 20.948085364783182 5.4128779800950708 0 0.86602541151947299 0.49999998660252726 1 0 0 1 I I #
point $-1 -34.966036446949978 22.669088529445862 6.4064995849905504 #
edge $-1 $714 1 $714 0 $413 $-1 forward 7 unknown #
vertex $-1 $414 $715 #
ellipse-curve $-1 -31.786765576975498 20.948085364783182 5.4128779800950708 0 0.86602541151947299 0.49999998660252726 1 0 0 1 I I #
point $-1 -30.786765576975498 22.669088529445862 6.4064995849905504 #
edge $-1 $716 1 $716 0 $417 $-1 forward 7 unknown #
vertex $-1 $418 $717 #
ellipse-curve $-1 -27.60749470700102 20.948085364783182 5.4128779800950708 0 0.86602541151947299 0.49999998660252726 1 0 0 1 I I #
point $-1 -26.60749470700102 22.669088529445862 6.4064995849905504 #
loop $-1 $-1 $429 $421 #
plane-surface $-1 0 24.165310891018471 0 0 -1 0 0 0 -1 forward_v I I I I #
coedge $-1 $579 $424 $426 $583 reversed $274 $-1 #
coedge $-1 $424 $578 $718 $719 reversed $274 $-1 #
coedge $-1 $432 $427 $424 $581 forward $422 $-1 #
edge $-1 $584 -21.818911718490654 $720 -18.82646699534542 $580 $721 forward 7 unknown #
coedge $-1 $426 $425 $587 $722 reversed $172 $-1 #
edge $-1 $723 -48.330621782036971 $584 -42.345732175381713 $578 $724 forward 7 unknown #
vertex $-1 $428 $725 #
straight-curve $-1 -5.2977942628292496 21.172866167873238 8.9980328272416514 1 0 0 I I #
coedge $-1 $718 $429 $432 $591 reversed $576 $-1 #
coedge $-1 $429 $718 $582 $722 forward $576 $-1 #
vertex $-1 $430 $726 #
straight-curve $-1 -17.561039975615962 24.165310891018471 47.65656994219227 0 0 1 I I #
straight-curve $-1 -17.561039975615962 6.4750817330150312e-007 45.670512960519986 0 0.49999998660252726 -0.86602541151947299 I I #
edge $-1 $720 3.6301370757010352 $433 17.561039975615962 $586 $727 forward 7 unknown #
point $-1 -17.561039975615962 24.165310891018471 8.9980328272416532 #
point $-1 -17.561039975615962 21.172866167873238 8.9980328272416514 #
edge $-1 $728 1 $728 0 $436 $-1 forward 7 unknown #
vertex $-1 $437 $729 #
ellipse-curve $-1 -14.77485939563298 20.948085364783182 5.4128779800950708 0 0.86602541151947299 0.49999998660252726 1 0 0 1 I I #
point $-1 -13.77485939563298 22.669088529445862 6.4064995849905504 #
edge $-1 $730 1 $730 0 $440 $-1 forward 7 unknown #
vertex $-1 $441 $731 #
ellipse-curve $-1 -10.595588525658499 20.948085364783182 5.4128779800950708 0 0.86602541151947299 0.49999998660252726 1 0 0 1 I I #
point $-1 -9.5955885256584992 22.669088529445862 6.4064995849905504 #
edge $-1 $732 1 $732 0 $444 $-1 forward 7 unknown #
vertex $-1 $445 $733 #
ellipse-curve $-1 -6.4163176556840256 20.948085364783182 5.4128779800950708 0 0.86602541151947299 0.49999998660252726 1 0 0 1 I I #
point $-1 -5.4163176556840256 22.669088529445862 6.4064995849905504 #
loop $-1 $-1 $456 $448 #
plane-surface $-1 0 24.165310891018471 0 0 -1 0 0 0 -1 forward_v I I I I #
coedge $-1 $609 $451 $453 $613 reversed $303 $-1 #
coedge $-1 $451 $608 $734 $735 reversed $303 $-1 #
coedge $-1 $459 $454 $451 $611 forward $449 $-1 #
edge $-1 $614 -21.818911718490654 $736 -18.82646699534542 $610 $737 forward 7 unknown #
coedge $-1 $453 $452 $617 $738 reversed $191 $-1 #
edge $-1 $739 -48.330621782036971 $614 -42.345732175381713 $608 $740 forward 7 unknown #
vertex $-1 $455 $741 #
straight-curve $-1 5.2977942628292496 21.172866167873238 8.9980328272416514 1 0 0 I I #
coedge $-1 $734 $456 $459 $621 reversed $606 $-1 #
coedge $-1 $456 $734 $612 $738 forward $606 $-1 #
vertex $-1 $457 $742 #
straight-curve $-1 3.6301370757010352 24.165310891018471 47.65656994219227 0 0 1 I I #
straight-curve $-1 3.6301370757010352 6.4750817330150312e-007 45.670512960519986 0 0.49999998660252726 -0.86602541151947299 I I #
edge $-1 $736 -17.561039975615962 $460 -3.6301370757010352 $616 $743 forward 7 unknown #
point $-1 3.6301370757010352 24.165310891018471 8.9980328272416532 #
point $-1 3.6301370757010352 21.172866167873238 8.9980328272416514 #
edge $-1 $744 1 $744 0 $463 $-1 forward 7 unknown #
vertex $-1 $464 $745 #
ellipse-curve $-1 6.4163176556840185 20.948085364783182 5.4128779800950708 0 0.86602541151947299 0.49999998660252726 1 0 0 1 I I #
point $-1 7.4163176556840185 22.669088529445862 6.4064995849905504 #
edge $-1 $746 1 $746 0 $467 $-1 forward 7 unknown #
vertex $-1 $468 $747 #
ellipse-curve $-1 10.595588525658499 20.948085364783182 5.4128779800950708 0 0.86602541151947299 0.49999998660252726 1 0 0 1 I I #
point $-1 11.595588525658499 22.669088529445862 6.4064995849905504 #
edge $-1 $748 1 $748 0 $471 $-1 forward 7 unknown #
vertex $-1 $472 $749 #
ellipse-curve $-1 14.774859395632973 20.948085364783182 5.4128779800950708 0 0.86602541151947299 0.49999998660252726 1 0 0 1 I I #
point $-1 15.774859395632973 22.669088529445862 6.4064995849905504 #
loop $-1 $-1 $483 $475 #
plane-surface $-1 0 24.165310891018471 0 0 -1 0 0 0 -1 forward_v I I I I #
coedge $-1 $639 $478 $480 $643 reversed $332 $-1 #
coedge $-1 $478 $638 $750 $751 reversed $332 $-1 #
coedge $-1 $486 $481 $478 $641 forward $476 $-1 #
edge $-1 $644 -21.818911718490654 $752 -18.82646699534542 $640 $753 forward 7 unknown #
coedge $-1 $480 $479 $647 $754 reversed $210 $-1 #
edge $-1 $755 -48.330621782036971 $644 -42.345732175381713 $638 $756 forward 7 unknown #
vertex $-1 $482 $757 #
straight-curve $-1 15.893382788487749 21.172866167873238 8.9980328272416514 1 0 0 I I #
coedge $-1 $750 $483 $486 $651 reversed $636 $-1 #
coedge $-1 $483 $750 $642 $754 forward $636 $-1 #
vertex $-1 $484 $758 #
straight-curve $-1 24.821314127018034 24.165310891018471 47.65656994219227 0 0 1 I I #
straight-curve $-1 24.821314127018034 6.4750817330150312e-007 45.670512960519986 0 0.49999998660252726 -0.86602541151947299 I I #
edge $-1 $752 -38.752217026932961 $487 -24.821314127018034 $646 $759 forward 7 unknown #
point $-1 24.821314127018034 24.165310891018471 8.9980328272416532 #
point $-1 24.821314127018034 21.172866167873238 8.9980328272416514 #
edge $-1 $760 1 $760 0 $490 $-1 forward 7 unknown #
vertex $-1 $491 $761 #
ellipse-curve $-1 27.60749470700101 20.948085364783182 5.4128779800950708 0 0.86602541151947299 0.49999998660252726 1 0 0 1 I I #
point $-1 28.60749470700101 22.669088529445862 6.4064995849905504 #
edge $-1 $762 1 $762 0 $494 $-1 forward 7 unknown #
vertex $-1 $495 $763 #
ellipse-curve $-1 31.786765576975498 20.948085364783182 5.4128779800950708 0 0.86602541151947299 0.49999998660252726 1 0 0 1 I I #
point $-1 32.786765576975498 22.669088529445862 6.4064995849905504 #
edge $-1 $764 1 $764 0 $498 $-1 forward 7 unknown #
vertex $-1 $499 $765 #
ellipse-curve $-1 35.966036446949971 20.948085364783182 5.4128779800950708 0 0.86602541151947299 0.49999998660252726 1 0 0 1 I I #
point $-1 36.966036446949971 22.669088529445862 6.4064995849905504 #
plane-surface $-1 49.642628254036069 0 0 -1 0 0 0 0 1 forward_v I I I I #
coedge $-1 $670 $510 $513 $678 forward $503 $-1 #
coedge $-1 $510 $670 $505 $669 reversed $503 $-1 #
edge $-1 $675 -8.9980328272416532 $682 8.9980328272416532 $668 $766 forward 7 unknown #
coedge $-1 $668 $667 $506 $671 reversed $503 $-1 #
edge $-1 $682 -49.642628254036069 $672 49.642628254036069 $670 $767 forward 7 unknown #
vertex $-1 $508 $768 #
straight-curve $-1 49.642628254036069 0 -8.9980328272416532 0 -1 0 I I #
edge $-1 $675 -24.165310891018471 $521 24.165310891018471 $519 $769 forward 7 unknown #
vertex $-1 $511 $770 #
straight-curve $-1 0 24.165310891018471 8.9980328272416532 -1 0 0 I I #
straight-curve $-1 0 -24.165310891018471 8.9980328272416532 1 0 0 I I #
edge $-1 $516 -8.9980328272416532 $672 8.9980328272416532 $513 $771 forward 7 unknown #
point $-1 49.642628254036069 -24.165310891018471 8.9980328272416532 #
point $-1 49.642628254036069 24.165310891018471 8.9980328272416532 #
point $-1 -49.642628254036069 -24.165310891018471 8.9980328272416532 #
vertex $-1 $671 $772 #
straight-curve $-1 -49.642628254036069 0 -8.9980328272416532 0 1 0 I I #
plane-surface $-1 0 0 -8.9980328272416532 0 0 1 1 0 0 forward_v I I I I #
coedge $-1 $699 $528 $697 $773 reversed $378 $-1 #
coedge $-1 $528 $699 $532 $691 reversed $378 $-1 #
coedge $-1 $530 $529 $528 $688 reversed $237 $-1 #
edge $-1 $692 -8.9980328272416532 $774 8.9980328272416532 $687 $775 forward 7 unknown #
edge $-1 $774 -35.945206929166702 $540 -24.165310891018471 $529 $776 forward 7 unknown #
straight-curve $-1 -49.642628254036069 -24.165310891018471 0 0 0 -1 I I #
edge $-1 $692 -2.5771550120664131 $694 2.5771550120664131 $686 $777 forward 7 unknown #
vertex $-1 $533 $778 #
straight-curve $-1 -49.642628254036069 0 8.9980328272416532 0 -1 0 I I #
vertex $-1 $534 $779 #
straight-curve $-1 -44.488318229903243 -30.055258910092586 8.9980328272416532 0 1 0 I I #
point $-1 -49.642628254036069 -24.165310891018471 8.9980328272416532 #
coedge $-1 $538 $537 $685 $773 forward $539 $-1 #
point $-1 -49.642628254036069 -24.165310891018471 -8.9980328272416532 #
coedge $-1 $686 $685 $542 $700 reversed $378 $-1 #
edge $-1 $694 -8.9980328272416532 $701 8.9980328272416532 $542 $780 forward 7 unknown #
vertex $-1 $700 $781 #
straight-curve $-1 -44.488318229903243 -30.055258910092586 -8.9980328272416532 0 -1 0 I I #
edge $-1 $704 38.658537114950619 $707 43.84160359945286 $547 $782 forward 7 unknown #
vertex $-1 $561 $783 #
straight-curve $-1 -24.821314127018034 42.991777886363892 8.9980328272416514 0 1 0 I I #
edge $-1 $707 8.9279313385302856 $558 22.858834238445212 $557 $784 forward 7 unknown #
vertex $-1 $706 $785 #
straight-curve $-1 -24.821314127018034 6.4750817330150312e-007 45.670512960519986 0 -0.49999998660252726 0.86602541151947299 I I #
point $-1 -24.821314127018034 21.172866167873238 8.9980328272416514 #
point $-1 -38.752217026932961 24.165310891018471 3.8149663427394103 #
straight-curve $-1 0 24.165310891018471 8.9980328272416532 -1 0 0 I I #
vertex $-1 $564 $786 #
point $-1 -34.966036446949978 20.948085364783182 5.4128779800950708 #
vertex $-1 $568 $787 #
point $-1 -30.786765576975498 20.948085364783182 5.4128779800950708 #
vertex $-1 $572 $788 #
point $-1 -26.60749470700102 20.948085364783182 5.4128779800950708 #
coedge $-1 $587 $586 $579 $719 forward $576 $-1 #
edge $-1 $720 38.658537114950619 $723 43.84160359945286 $718 $789 forward 7 unknown #
vertex $-1 $591 $790 #
straight-curve $-1 -3.6301370757010352 42.991777886363892 8.9980328272416514 0 1 0 I I #
edge $-1 $723 -1.6676571871282144 $588 12.263245712786713 $587 $791 forward 7 unknown #
vertex $-1 $722 $792 #
straight-curve $-1 -3.6301370757010352 6.4750817330150312e-007 45.670512960519986 0 -0.49999998660252726 0.86602541151947299 I I #
point $-1 -3.6301370757010352 21.172866167873238 8.9980328272416514 #
point $-1 -17.561039975615962 24.165310891018471 3.8149663427394103 #
straight-curve $-1 0 24.165310891018471 8.9980328272416532 -1 0 0 I I #
vertex $-1 $594 $793 #
point $-1 -13.77485939563298 20.948085364783182 5.4128779800950708 #
vertex $-1 $598 $794 #
point $-1 -9.5955885256584992 20.948085364783182 5.4128779800950708 #
vertex $-1 $602 $795 #
point $-1 -5.4163176556840256 20.948085364783182 5.4128779800950708 #
coedge $-1 $617 $616 $609 $735 forward $606 $-1 #
edge $-1 $736 38.658537114950619 $739 43.84160359945286 $734 $796 forward 7 unknown #
vertex $-1 $621 $797 #
straight-curve $-1 17.561039975615962 42.991777886363892 8.9980328272416514 0 1 0 I I #
edge $-1 $739 -12.263245712786713 $618 1.6676571871282144 $617 $798 forward 7 unknown #
vertex $-1 $738 $799 #
straight-curve $-1 17.561039975615962 6.4750817330150312e-007 45.670512960519986 0 -0.49999998660252726 0.86602541151947299 I I #
point $-1 17.561039975615962 21.172866167873238 8.9980328272416514 #
point $-1 3.6301370757010352 24.165310891018471 3.8149663427394103 #
straight-curve $-1 0 24.165310891018471 8.9980328272416532 -1 0 0 I I #
vertex $-1 $624 $800 #
point $-1 7.4163176556840185 20.948085364783182 5.4128779800950708 #
vertex $-1 $628 $801 #
point $-1 11.595588525658499 20.948085364783182 5.4128779800950708 #
vertex $-1 $632 $802 #
point $-1 15.774859395632973 20.948085364783182 5.4128779800950708 #
coedge $-1 $647 $646 $639 $751 forward $636 $-1 #
edge $-1 $752 38.658537114950619 $755 43.84160359945286 $750 $803 forward 7 unknown #
vertex $-1 $651 $804 #
straight-curve $-1 38.752217026932961 42.991777886363892 8.9980328272416514 0 1 0 I I #
edge $-1 $755 -22.858834238445212 $648 -8.9279313385302856 $647 $805 forward 7 unknown #
vertex $-1 $754 $806 #
straight-curve $-1 38.752217026932961 6.4750817330150312e-007 45.670512960519986 0 -0.49999998660252726 0.86602541151947299 I I #
point $-1 38.752217026932961 21.172866167873238 8.9980328272416514 #
point $-1 24.821314127018034 24.165310891018471 3.8149663427394103 #
straight-curve $-1 0 24.165310891018471 8.9980328272416532 -1 0 0 I I #
vertex $-1 $654 $807 #
point $-1 28.60749470700101 20.948085364783182 5.4128779800950708 #
vertex $-1 $658 $808 #
point $-1 32.786765576975498 20.948085364783182 5.4128779800950708 #
vertex $-1 $662 $809 #
point $-1 36.966036446949971 20.948085364783182 5.4128779800950708 #
straight-curve $-1 -49.642628254036069 24.165310891018471 0 0 0 -1 I I #
straight-curve $-1 0 24.165310891018471 -8.9980328272416532 1 0 0 I I #
point $-1 49.642628254036069 24.165310891018471 -8.9980328272416532 #
straight-curve $-1 -49.642628254036069 0 8.9980328272416532 0 -1 0 I I #
point $-1 -49.642628254036069 24.165310891018471 8.9980328272416532 #
straight-curve $-1 49.642628254036069 24.165310891018471 0 0 0 -1 I I #
point $-1 -49.642628254036069 24.165310891018471 -8.9980328272416532 #
edge $-1 $701 -2.5771550120664131 $774 2.5771550120664131 $685 $810 forward 7 unknown #
vertex $-1 $689 $811 #
straight-curve $-1 -49.642628254036069 -35.945206929166702 0 0 0 -1 I I #
straight-curve $-1 -49.642628254036069 0 -8.9980328272416532 0 1 0 I I #
straight-curve $-1 -47.065473241969656 -35.945206929166702 8.9980328272416532 1 0 0 I I #
point $-1 -49.642628254036069 -35.945206929166702 8.9980328272416532 #
point $-1 -44.488318229903243 -35.945206929166702 8.9980328272416532 #
straight-curve $-1 -44.488318229903243 -35.945206929166702 0 0 0 -1 I I #
point $-1 -44.488318229903243 -35.945206929166702 -8.9980328272416532 #
straight-curve $-1 -24.821314127018034 24.165310891018471 47.65656994219227 0 0 -1 I I #
point $-1 -24.821314127018034 24.165310891018471 8.9980328272416532 #
straight-curve $-1 -15.893382788487749 24.165310891018471 3.8149663427394103 -1 0 0 I I #
point $-1 -24.821314127018034 24.165310891018471 3.8149663427394103 #
point $-1 -35.966036446949978 20.082059953263709 4.9128779934925442 #
point $-1 -31.786765576975498 20.082059953263709 4.9128779934925442 #
point $-1 -27.60749470700102 20.082059953263709 4.9128779934925442 #
straight-curve $-1 -3.6301370757010352 24.165310891018471 47.65656994219227 0 0 -1 I I #
point $-1 -3.6301370757010352 24.165310891018471 8.9980328272416532 #
straight-curve $-1 -5.2977942628292496 24.165310891018471 3.8149663427394103 -1 0 0 I I #
point $-1 -3.6301370757010352 24.165310891018471 3.8149663427394103 #
point $-1 -14.77485939563298 20.082059953263709 4.9128779934925442 #
point $-1 -10.595588525658499 20.082059953263709 4.9128779934925442 #
point $-1 -6.4163176556840256 20.082059953263709 4.9128779934925442 #
straight-curve $-1 17.561039975615962 24.165310891018471 47.65656994219227 0 0 -1 I I #
point $-1 17.561039975615962 24.165310891018471 8.9980328272416532 #
straight-curve $-1 5.2977942628292496 24.165310891018471 3.8149663427394103 -1 0 0 I I #
point $-1 17.561039975615962 24.165310891018471 3.8149663427394103 #
point $-1 6.4163176556840185 20.082059953263709 4.9128779934925442 #
point $-1 10.595588525658499 20.082059953263709 4.9128779934925442 #
point $-1 14.774859395632973 20.082059953263709 4.9128779934925442 #
straight-curve $-1 38.752217026932961 24.165310891018471 47.65656994219227 0 0 -1 I I #
point $-1 38.752217026932961 24.165310891018471 8.9980328272416532 #
straight-curve $-1 15.893382788487749 24.165310891018471 3.8149663427394103 -1 0 0 I I #
point $-1 38.752217026932961 24.165310891018471 3.8149663427394103 #
point $-1 27.60749470700101 20.082059953263709 4.9128779934925442 #
point $-1 31.786765576975498 20.082059953263709 4.9128779934925442 #
point $-1 35.966036446949971 20.082059953263709 4.9128779934925442 #
straight-curve $-1 -47.065473241969656 -35.945206929166702 -8.9980328272416532 -1 0 0 I I #
point $-1 -49.642628254036069 -35.945206929166702 -8.9980328272416532 #
End-of-ACIS-data 