500 0 6 0           
7 Unknown 11 ACIS 5.0 NT 24 Thu Mar 25 17:47:33 1999 
-1 9.9999999999999995e-007 1e-010 
body $-1 $6 $-1 $7 #
body $-1 $8 $-1 $9 #
body $-1 $10 $-1 $11 #
body $-1 $12 $-1 $13 #
body $-1 $14 $-1 $15 #
body $-1 $16 $-1 $17 #
lump $-1 $-1 $18 $0 #
transform $-1 1 0 0 0 1 0 0 0 1 54.115421002838218 29.555637509286562 8.4006309512311006 1 rotate no_reflect no_shear #
lump $-1 $-1 $19 $1 #
transform $-1 1 0 0 0 1 0 0 0 1 54.115421002838218 29.555637509286562 8.4006309512311006 1 rotate no_reflect no_shear #
lump $-1 $-1 $20 $2 #
transform $-1 1 0 0 0 1 0 0 0 1 54.115421002838218 29.555637509286562 8.4006309512311006 1 rotate no_reflect no_shear #
lump $-1 $-1 $21 $3 #
transform $-1 1 0 0 0 1 0 0 0 1 54.115421002838218 29.555637509286562 8.4006309512311006 1 rotate no_reflect no_shear #
lump $-1 $-1 $22 $4 #
transform $-1 1 0 0 0 1 0 0 0 1 54.115421002838218 29.555637509286562 8.4006309512311006 1 rotate no_reflect no_shear #
lump $-1 $-1 $23 $5 #
transform $-1 1 0 0 0 1 0 0 0 1 54.115421002838218 29.555637509286562 8.4006309512311006 1 rotate no_reflect no_shear #
shell $-1 $-1 $-1 $24 $-1 $6 #
shell $-1 $-1 $-1 $25 $-1 $8 #
shell $-1 $-1 $-1 $26 $-1 $10 #
shell $-1 $-1 $-1 $27 $-1 $12 #
shell $-1 $-1 $-1 $28 $-1 $14 #
shell $-1 $-1 $-1 $29 $-1 $16 #
face $-1 $30 $31 $18 $-1 $32 forward single #
face $-1 $33 $34 $19 $-1 $35 forward single #
face $-1 $36 $37 $20 $-1 $38 reversed single #
face $-1 $39 $40 $21 $-1 $41 forward single #
face $-1 $42 $43 $22 $-1 $44 reversed single #
face $-1 $45 $46 $23 $-1 $47 forward single #
face $-1 $48 $49 $18 $-1 $50 reversed single #
loop $-1 $-1 $51 $24 #
plane-surface $-1 0 0 8.4006309512311006 0 0 1 1 0 0 forward_v I I I I #
face $-1 $52 $53 $19 $-1 $54 reversed single #
loop $-1 $-1 $55 $25 #
plane-surface $-1 0 -29.555637509286562 0 0 1 0 0 0 1 forward_v I I I I #
face $-1 $56 $57 $20 $-1 $58 reversed single #
loop $-1 $-1 $59 $26 #
plane-surface $-1 83.320938917984563 19.408168641839147 150.63107417961277 0 1 0 0.82903758062907751 0 0.55919289150049634 forward_v I I I I #
face $-1 $60 $61 $21 $-1 $62 forward single #
loop $-1 $63 $64 $27 #
cone-surface $-1 49.89236825517068 24.481903075562855 3.3668395917992564 -0.82903758062907751 0 -0.55919289150049634 0.55919289150049634 0 -0.82903758062907751 1 I I 0 1 1 forward I I I I #
face $-1 $65 $66 $22 $-1 $67 reversed single #
loop $-1 $-1 $68 $28 #
plane-surface $-1 -143.84285640867216 19.408168641839147 60.903638773778844 0 1 0 -0.82903758062907751 0 0.55919289150049634 forward_v I I I I #
face $-1 $69 $70 $23 $-1 $71 forward single #
loop $-1 $72 $73 $29 #
cone-surface $-1 -49.89236825517068 24.481903075562855 3.3668395917992529 0.82903758062907751 0 -0.55919289150049634 0.55919289150049634 0 0.82903758062907751 1 I I 0 1 1 forward I I I I #
face $-1 $74 $75 $18 $-1 $76 reversed single #
loop $-1 $-1 $77 $30 #
plane-surface $-1 0 0 -8.4006309512311006 0 0 1 1 0 0 forward_v I I I I #
coedge $-1 $78 $79 $80 $81 forward $31 $-1 #
face $-1 $82 $83 $19 $-1 $84 reversed single #
loop $-1 $-1 $85 $33 #
plane-surface $-1 0 0 -8.4006309512311006 0 0 1 1 0 0 forward_v I I I I #
coedge $-1 $86 $87 $88 $89 forward $34 $-1 #
face $-1 $90 $91 $20 $-1 $92 forward single #
loop $-1 $-1 $93 $36 #
plane-surface $-1 -6.4064964878493669 24.481903075562855 90.109156688925182 0.82903758062907751 0 0.55919289150049634 0.55919289150049634 0 -0.82903758062907751 forward_v I I I I #
coedge $-1 $94 $95 $96 $97 reversed $37 $-1 #
face $-1 $-1 $98 $21 $-1 $99 forward single #
loop $-1 $100 $101 $39 #
cone-surface $-1 47.959208066433973 24.481903075562855 2.0629066206870803 -0.82903758062907751 0 -0.55919289150049634 0.27959644575024817 0 -0.41451879031453875 1 I I -0.70710678118654746 0.70710678118654746 0.5 forward I I I I #
loop $-1 $-1 $102 $27 #
coedge $-1 $64 $64 $103 $104 reversed $40 $-1 #
face $-1 $105 $106 $22 $-1 $107 reversed single #
loop $-1 $-1 $108 $42 #
plane-surface $-1 -54.115421002838232 24.481903075562855 0.38172128309125952 -0.82903758062907751 0 0.55919289150049634 0.55919289150049634 0 0.82903758062907751 forward_v I I I I #
coedge $-1 $109 $110 $111 $112 reversed $43 $-1 #
face $-1 $-1 $113 $23 $-1 $114 forward single #
loop $-1 $115 $116 $45 #
cone-surface $-1 -47.959208066433973 24.481903075562855 2.0629066206870768 0.82903758062907751 0 -0.55919289150049634 0.27959644575024817 0 0.41451879031453875 1 I I -0.70710678118654746 0.70710678118654746 0.5 forward I I I I #
loop $-1 $-1 $117 $29 #
coedge $-1 $73 $73 $118 $119 reversed $46 $-1 #
face $-1 $120 $121 $18 $-1 $122 reversed single #
loop $-1 $-1 $123 $48 #
plane-surface $-1 0 -29.555637509286562 0 0 1 0 0 0 1 forward_v I I I I #
coedge $-1 $124 $125 $126 $127 forward $49 $-1 #
coedge $-1 $128 $51 $129 $130 forward $31 $-1 #
coedge $-1 $51 $128 $131 $132 forward $31 $-1 #
coedge $-1 $133 $134 $51 $81 reversed $135 $-1 #
edge $-1 $136 -29.555637509286562 $137 29.555637509286562 $80 $138 forward 7 unknown #
face $-1 $139 $140 $19 $-1 $141 forward single #
loop $-1 $-1 $142 $52 #
plane-surface $-1 54.115421002838218 0 0 -1 0 0 0 0 1 forward_v I I I I #
coedge $-1 $143 $144 $145 $146 forward $53 $-1 #
coedge $-1 $145 $55 $142 $147 reversed $34 $-1 #
coedge $-1 $55 $145 $148 $149 reversed $34 $-1 #
coedge $-1 $150 $151 $55 $89 reversed $140 $-1 #
edge $-1 $152 -54.115421002838218 $153 54.115421002838218 $88 $154 forward 7 unknown #
face $-1 $155 $156 $20 $-1 $157 reversed single #
loop $-1 $-1 $158 $56 #
plane-surface $-1 0 0 8.4006309512311006 0 0 1 1 0 0 forward_v I I I I #
coedge $-1 $159 $160 $161 $162 reversed $57 $-1 #
coedge $-1 $95 $59 $163 $164 reversed $37 $-1 #
coedge $-1 $59 $94 $159 $165 reversed $37 $-1 #
coedge $-1 $161 $166 $59 $97 forward $167 $-1 #
edge $-1 $168 66.914906138575276 $169 74.933815806715131 $96 $170 forward 7 unknown #
loop $-1 $-1 $103 $60 #
plane-surface $-1 -6.4064964878493669 24.481903075562855 90.109156688925182 0.82903758062907751 0 0.55919289150049634 0.55919289150049634 0 -0.82903758062907751 forward_v I I I I #
loop $-1 $-1 $171 $39 #
coedge $-1 $101 $101 $102 $172 reversed $61 $-1 #
coedge $-1 $102 $102 $101 $172 forward $63 $-1 #
coedge $-1 $103 $103 $64 $104 forward $98 $-1 #
edge $-1 $173 0 $173 6.2831853071796004 $103 $174 forward 7 unknown #
face $-1 $175 $176 $22 $-1 $177 reversed single #
loop $-1 $-1 $178 $65 #
plane-surface $-1 0 29.555637509286562 0 0 -1 0 0 0 -1 forward_v I I I I #
coedge $-1 $179 $180 $181 $182 reversed $66 $-1 #
coedge $-1 $110 $68 $183 $184 reversed $43 $-1 #
coedge $-1 $68 $109 $179 $185 reversed $43 $-1 #
coedge $-1 $181 $186 $68 $112 forward $187 $-1 #
edge $-1 $188 17.806007201497863 $189 23.214829899988594 $111 $190 forward 7 unknown #
loop $-1 $-1 $118 $69 #
plane-surface $-1 -54.115421002838232 24.481903075562855 0.38172128309125952 -0.82903758062907751 0 0.55919289150049634 0.55919289150049634 0 0.82903758062907751 forward_v I I I I #
loop $-1 $-1 $191 $45 #
coedge $-1 $116 $116 $117 $192 reversed $70 $-1 #
coedge $-1 $117 $117 $116 $192 forward $72 $-1 #
coedge $-1 $118 $118 $73 $119 forward $113 $-1 #
edge $-1 $193 0 $193 6.2831853071796004 $118 $194 forward 7 unknown #
face $-1 $195 $196 $18 $-1 $197 reversed single #
loop $-1 $-1 $198 $74 #
plane-surface $-1 -54.115421002838218 0 0 1 0 0 0 0 -1 forward_v I I I I #
coedge $-1 $199 $131 $200 $201 forward $75 $-1 #
coedge $-1 $202 $77 $199 $203 forward $49 $-1 #
coedge $-1 $77 $202 $204 $205 forward $49 $-1 #
coedge $-1 $134 $133 $77 $127 reversed $135 $-1 #
edge $-1 $206 -29.555637509286562 $207 29.555637509286562 $126 $208 forward 7 unknown #
coedge $-1 $79 $78 $209 $210 forward $31 $-1 #
coedge $-1 $211 $212 $78 $130 reversed $196 $-1 #
edge $-1 $137 -54.115421002838218 $213 54.115421002838218 $129 $214 forward 7 unknown #
coedge $-1 $123 $215 $79 $132 reversed $75 $-1 #
edge $-1 $216 -54.115421002838218 $136 54.115421002838218 $131 $217 forward 7 unknown #
coedge $-1 $126 $80 $215 $218 forward $135 $-1 #
coedge $-1 $80 $126 $211 $219 reversed $135 $-1 #
loop $-1 $-1 $133 $195 #
vertex $-1 $81 $220 #
vertex $-1 $81 $221 #
straight-curve $-1 54.115421002838218 0 8.4006309512311006 0 1 0 I I #
face $-1 $222 $223 $19 $-1 $224 reversed single #
loop $-1 $-1 $151 $82 #
plane-surface $-1 0 -32.882845750147538 -4.4853272688368904 0 0 1 1 0 0 forward_v I I I I #
coedge $-1 $225 $226 $86 $147 forward $83 $-1 #
coedge $-1 $227 $85 $226 $228 forward $53 $-1 #
coedge $-1 $85 $227 $229 $230 forward $53 $-1 #
coedge $-1 $87 $86 $85 $146 reversed $34 $-1 #
edge $-1 $231 -54.115421002838218 $232 54.115421002838218 $85 $233 forward 7 unknown #
edge $-1 $232 -8.4006309512311006 $153 -4.4853272688368904 $142 $234 forward 7 unknown #
coedge $-1 $229 $235 $87 $149 forward $236 $-1 #
edge $-1 $152 4.4853272688368904 $231 8.4006309512311006 $148 $237 forward 7 unknown #
coedge $-1 $238 $88 $235 $239 forward $140 $-1 #
coedge $-1 $88 $238 $225 $240 forward $140 $-1 #
vertex $-1 $149 $241 #
vertex $-1 $240 $242 #
straight-curve $-1 0 -29.555637509286562 -4.4853272688368904 1 0 0 I I #
face $-1 $-1 $167 $20 $-1 $243 reversed single #
loop $-1 $-1 $244 $90 #
plane-surface $-1 0 29.555637509286562 0 0 -1 0 0 0 -1 forward_v I I I I #
coedge $-1 $163 $245 $246 $247 forward $91 $-1 #
coedge $-1 $246 $93 $95 $165 forward $57 $-1 #
coedge $-1 $93 $246 $244 $248 reversed $57 $-1 #
coedge $-1 $249 $96 $93 $162 forward $167 $-1 #
edge $-1 $169 7.1672171040577197 $250 17.314685971505135 $161 $251 forward 7 unknown #
coedge $-1 $252 $158 $94 $164 forward $91 $-1 #
edge $-1 $253 7.0461288453551987 $168 12.454951543845937 $163 $254 forward 7 unknown #
edge $-1 $169 -108.23084200567644 $253 -98.558289330736116 $95 $255 forward 7 unknown #
coedge $-1 $96 $249 $252 $256 reversed $167 $-1 #
loop $-1 $-1 $161 $155 #
vertex $-1 $256 $257 #
vertex $-1 $97 $258 #
straight-curve $-1 54.115421002838218 19.408168641839147 75.315537089806384 0 0 -1 I I #
coedge $-1 $171 $171 $-1 $259 reversed $100 $-1 #
edge $-1 $260 0 $260 6.2831853071796004 $101 $261 forward 7 unknown #
vertex $-1 $104 $262 #
ellipse-curve $-1 51.411009653592842 24.481903075562855 4.3911761171611827 0.82903758062907751 0 0.55919289150049634 0.55919289150049634 0 -0.82903758062907751 1 I I #
face $-1 $-1 $187 $22 $-1 $263 forward single #
loop $-1 $-1 $264 $105 #
plane-surface $-1 -54.115421002838218 0 0 1 0 0 0 0 -1 forward_v I I I I #
coedge $-1 $265 $266 $180 $267 forward $106 $-1 #
coedge $-1 $268 $108 $110 $185 forward $66 $-1 #
coedge $-1 $108 $268 $178 $267 reversed $66 $-1 #
coedge $-1 $269 $111 $108 $182 forward $187 $-1 #
edge $-1 $189 7.1672171040577197 $270 17.314685971505135 $181 $271 forward 7 unknown #
coedge $-1 $272 $264 $109 $184 forward $176 $-1 #
edge $-1 $273 -30.070098103798141 $188 -22.051188435658322 $183 $274 forward 7 unknown #
edge $-1 $189 -9.672552674940329 $273 -2.5434524534472062e-014 $110 $275 forward 7 unknown #
coedge $-1 $111 $269 $272 $276 forward $187 $-1 #
loop $-1 $-1 $181 $175 #
vertex $-1 $184 $277 #
vertex $-1 $112 $278 #
straight-curve $-1 -71.921428204336081 19.408168641839147 8.4006309512311006 1 0 0 I I #
coedge $-1 $191 $191 $-1 $279 reversed $115 $-1 #
edge $-1 $280 0 $280 6.2831853071796004 $116 $281 forward 7 unknown #
vertex $-1 $119 $282 #
ellipse-curve $-1 -51.411009653592856 24.481903075562855 4.3911761171611872 -0.82903758062907751 0 0.55919289150049634 0.55919289150049634 0 0.82903758062907751 1 I I #
face $-1 $-1 $135 $18 $-1 $283 reversed single #
loop $-1 $-1 $211 $120 #
plane-surface $-1 0 29.555637509286562 0 0 -1 0 0 0 -1 forward_v I I I I #
coedge $-1 $284 $209 $212 $285 forward $121 $-1 #
coedge $-1 $215 $123 $124 $203 reversed $75 $-1 #
coedge $-1 $209 $284 $123 $201 reversed $121 $-1 #
edge $-1 $216 -8.4006309512311006 $286 8.4006309512311006 $200 $287 forward 7 unknown #
coedge $-1 $125 $124 $284 $288 forward $49 $-1 #
edge $-1 $207 -54.115421002838218 $286 54.115421002838218 $199 $289 forward 7 unknown #
coedge $-1 $212 $211 $125 $205 reversed $196 $-1 #
edge $-1 $290 -54.115421002838218 $206 54.115421002838218 $204 $291 forward 7 unknown #
vertex $-1 $127 $292 #
vertex $-1 $218 $293 #
straight-curve $-1 54.115421002838218 0 -8.4006309512311006 0 -1 0 I I #
coedge $-1 $198 $200 $128 $210 reversed $121 $-1 #
edge $-1 $213 -29.555637509286562 $216 29.555637509286562 $209 $294 forward 7 unknown #
coedge $-1 $204 $129 $134 $219 forward $196 $-1 #
coedge $-1 $129 $204 $198 $285 reversed $196 $-1 #
vertex $-1 $130 $295 #
straight-curve $-1 0 29.555637509286562 8.4006309512311006 -1 0 0 I I #
coedge $-1 $131 $199 $133 $218 reversed $75 $-1 #
vertex $-1 $210 $296 #
straight-curve $-1 0 -29.555637509286562 8.4006309512311006 1 0 0 I I #
edge $-1 $136 -8.4006309512311006 $207 8.4006309512311006 $133 $297 forward 7 unknown #
edge $-1 $137 -8.4006309512311006 $206 8.4006309512311006 $134 $298 forward 7 unknown #
point $-1 54.115421002838218 -29.555637509286562 8.4006309512311006 #
point $-1 54.115421002838218 29.555637509286562 8.4006309512311006 #
face $-1 $-1 $236 $19 $-1 $299 reversed single #
loop $-1 $-1 $300 $139 #
plane-surface $-1 0 -36.210053991008515 -6.4429791100339955 0 1 0 0 0 1 forward_v I I I I #
coedge $-1 $301 $142 $151 $240 reversed $83 $-1 #
coedge $-1 $142 $301 $143 $228 reversed $83 $-1 #
coedge $-1 $144 $143 $302 $303 forward $53 $-1 #
edge $-1 $232 29.555637509286562 $304 36.210053991008515 $226 $305 forward 7 unknown #
coedge $-1 $306 $148 $144 $230 reversed $236 $-1 #
edge $-1 $307 -36.210053991008515 $231 -29.555637509286562 $229 $308 forward 7 unknown #
vertex $-1 $149 $309 #
vertex $-1 $228 $310 #
straight-curve $-1 0 -29.555637509286562 -8.4006309512311006 1 0 0 I I #
straight-curve $-1 54.115421002838218 -29.555637509286562 0 0 0 1 I I #
coedge $-1 $148 $306 $150 $239 reversed $236 $-1 #
loop $-1 $-1 $148 $222 #
straight-curve $-1 -54.115421002838218 -29.555637509286562 0 0 0 -1 I I #
coedge $-1 $151 $150 $311 $312 forward $140 $-1 #
edge $-1 $152 -3.3272082408609762 $313 3.3272082408609762 $235 $314 forward 7 unknown #
edge $-1 $315 -3.3272082408609762 $153 3.3272082408609762 $225 $316 forward 7 unknown #
point $-1 -54.115421002838218 -29.555637509286562 -4.4853272688368904 #
point $-1 54.115421002838218 -29.555637509286562 -4.4853272688368904 #
plane-surface $-1 54.115421002838218 0 0 -1 0 0 0 0 1 forward_v I I I I #
coedge $-1 $317 $318 $160 $248 forward $156 $-1 #
coedge $-1 $158 $252 $317 $319 forward $91 $-1 #
coedge $-1 $160 $159 $158 $247 reversed $57 $-1 #
edge $-1 $320 -17.314685971505135 $253 -7.1672171040577197 $158 $321 forward 7 unknown #
edge $-1 $250 -69.087669731005803 $320 -59.415117056065498 $244 $322 forward 7 unknown #
coedge $-1 $166 $161 $318 $323 reversed $167 $-1 #
vertex $-1 $162 $324 #
straight-curve $-1 54.115421002838218 12.240951537781427 0.38172128309125242 0 1 0 I I #
coedge $-1 $245 $163 $166 $256 forward $91 $-1 #
vertex $-1 $164 $325 #
straight-curve $-1 41.660469458992281 19.408168641839147 8.4006309512311077 1 0 0 I I #
straight-curve $-1 -6.4064964878493669 19.408168641839147 90.109156688925182 -0.55919289150049634 0 0.82903758062907751 I I #
edge $-1 $168 19.408168641839147 $326 29.555637509286562 $166 $327 forward 7 unknown #
point $-1 54.115421002838218 19.408168641839147 8.4006309512311006 #
point $-1 54.115421002838218 19.408168641839147 0.38172128309125242 #
edge $-1 $328 1 $328 0 $171 $-1 forward 7 unknown #
vertex $-1 $172 $329 #
ellipse-curve $-1 48.373726856748512 24.481903075562855 2.3425030664373283 0.82903758062907751 0 0.55919289150049634 0.55919289150049634 0 -0.82903758062907751 1 I I #
point $-1 51.970202545093343 24.481903075562855 3.5621385365321068 #
plane-surface $-1 0 0 8.4006309512311006 0 0 1 1 0 0 forward_v I I I I #
coedge $-1 $183 $330 $268 $331 forward $176 $-1 #
coedge $-1 $266 $178 $330 $332 reversed $106 $-1 #
coedge $-1 $178 $265 $269 $333 reversed $106 $-1 #
edge $-1 $270 5.299696053227267 $334 14.972248728167571 $178 $335 forward 7 unknown #
coedge $-1 $180 $179 $264 $331 reversed $66 $-1 #
coedge $-1 $186 $181 $266 $333 forward $187 $-1 #
vertex $-1 $333 $336 #
straight-curve $-1 -48.706598304347487 12.240951537781427 8.4006309512311006 0 1 0 I I #
coedge $-1 $330 $183 $186 $276 reversed $176 $-1 #
vertex $-1 $184 $337 #
straight-curve $-1 -54.115421002838218 19.408168641839147 30.451819386889422 0 0 1 I I #
straight-curve $-1 -54.115421002838232 19.408168641839147 0.38172128309125952 -0.55919289150049634 0 -0.82903758062907751 I I #
edge $-1 $338 -29.555637509286562 $188 -19.408168641839147 $272 $339 forward 7 unknown #
point $-1 -54.115421002838218 19.408168641839147 8.4006309512311006 #
point $-1 -48.706598304347487 19.408168641839147 8.4006309512311006 #
edge $-1 $340 1 $340 0 $191 $-1 forward 7 unknown #
vertex $-1 $192 $341 #
ellipse-curve $-1 -48.373726856748512 24.481903075562855 2.3425030664373248 -0.82903758062907751 0 0.55919289150049634 0.55919289150049634 0 0.82903758062907751 1 I I #
point $-1 -50.851816762092348 24.481903075562855 5.2202136977902587 #
plane-surface $-1 54.115421002838218 0 0 -1 0 0 0 0 1 forward_v I I I I #
coedge $-1 $200 $198 $202 $288 reversed $121 $-1 #
edge $-1 $213 -8.4006309512311006 $290 8.4006309512311006 $212 $342 forward 7 unknown #
vertex $-1 $288 $343 #
straight-curve $-1 -54.115421002838218 -29.555637509286562 0 0 0 -1 I I #
edge $-1 $286 -29.555637509286562 $290 29.555637509286562 $284 $344 forward 7 unknown #
straight-curve $-1 0 -29.555637509286562 -8.4006309512311006 -1 0 0 I I #
vertex $-1 $205 $345 #
straight-curve $-1 0 29.555637509286562 -8.4006309512311006 1 0 0 I I #
point $-1 54.115421002838218 29.555637509286562 -8.4006309512311006 #
point $-1 54.115421002838218 -29.555637509286562 -8.4006309512311006 #
straight-curve $-1 -54.115421002838218 0 8.4006309512311006 0 -1 0 I I #
point $-1 -54.115421002838218 29.555637509286562 8.4006309512311006 #
point $-1 -54.115421002838218 -29.555637509286562 8.4006309512311006 #
straight-curve $-1 54.115421002838218 -29.555637509286562 0 0 0 -1 I I #
straight-curve $-1 54.115421002838218 29.555637509286562 0 0 0 -1 I I #
plane-surface $-1 -54.115421002838218 0 0 1 0 0 0 0 -1 forward_v I I I I #
coedge $-1 $302 $311 $306 $346 forward $223 $-1 #
coedge $-1 $226 $225 $347 $348 forward $83 $-1 #
coedge $-1 $347 $300 $227 $303 reversed $223 $-1 #
edge $-1 $304 -54.115421002838218 $307 54.115421002838218 $302 $349 forward 7 unknown #
vertex $-1 $348 $350 #
straight-curve $-1 54.115421002838218 0 -8.4006309512311006 0 -1 0 I I #
coedge $-1 $235 $229 $300 $346 reversed $236 $-1 #
vertex $-1 $230 $351 #
straight-curve $-1 -54.115421002838218 0 -8.4006309512311006 0 1 0 I I #
point $-1 -54.115421002838218 -29.555637509286562 -8.4006309512311006 #
point $-1 54.115421002838218 -29.555637509286562 -8.4006309512311006 #
coedge $-1 $300 $347 $238 $312 reversed $223 $-1 #
edge $-1 $313 -54.115421002838218 $315 54.115421002838218 $311 $352 forward 7 unknown #
vertex $-1 $239 $353 #
straight-curve $-1 -54.115421002838218 -32.882845750147538 -4.4853272688368904 0 -1 0 I I #
vertex $-1 $240 $354 #
straight-curve $-1 54.115421002838218 -32.882845750147538 -4.4853272688368904 0 1 0 I I #
coedge $-1 $318 $244 $245 $319 reversed $156 $-1 #
coedge $-1 $244 $317 $249 $323 forward $156 $-1 #
edge $-1 $326 -54.115421002838218 $320 -48.70659830434748 $317 $355 forward 7 unknown #
vertex $-1 $247 $356 #
straight-curve $-1 48.706598304347473 12.240951537781427 8.4006309512310935 0 -1 0 I I #
straight-curve $-1 15.482087198925761 29.555637509286562 57.657995848185067 -0.55919289150049634 0 0.82903758062907751 I I #
edge $-1 $326 -8.4006309512311006 $250 -0.38172128309125891 $249 $357 forward 7 unknown #
point $-1 54.115421002838218 29.555637509286562 0.38172128309125891 #
point $-1 48.70659830434748 19.408168641839147 8.4006309512310935 #
vertex $-1 $256 $358 #
straight-curve $-1 54.115421002838218 0 8.4006309512311006 0 1 0 I I #
vertex $-1 $259 $359 #
point $-1 48.932919748249006 24.481903075562855 1.513465485808251 #
coedge $-1 $264 $272 $265 $332 forward $176 $-1 #
edge $-1 $334 -17.314685971505135 $273 -7.1672171040577197 $264 $360 forward 7 unknown #
edge $-1 $338 -8.4006309512311006 $334 -0.38172128309128062 $265 $361 forward 7 unknown #
edge $-1 $270 48.706598304347487 $338 54.115421002838218 $266 $362 forward 7 unknown #
vertex $-1 $331 $363 #
straight-curve $-1 -45.743045944269568 29.555637509286562 12.794278145268107 -0.55919289150049634 0 -0.82903758062907751 I I #
point $-1 -48.706598304347487 29.555637509286562 8.4006309512311006 #
point $-1 -54.115421002838218 19.408168641839147 0.38172128309128062 #
vertex $-1 $333 $364 #
straight-curve $-1 -54.115421002838218 0 8.4006309512311006 0 -1 0 I I #
vertex $-1 $279 $365 #
point $-1 -47.814533965248017 24.481903075562855 3.1715406470664025 #
straight-curve $-1 -54.115421002838218 29.555637509286562 0 0 0 -1 I I #
point $-1 -54.115421002838218 -29.555637509286562 -8.4006309512311006 #
straight-curve $-1 -54.115421002838218 0 -8.4006309512311006 0 1 0 I I #
point $-1 -54.115421002838218 29.555637509286562 -8.4006309512311006 #
edge $-1 $313 -1.9576518411971051 $307 1.9576518411971051 $306 $366 forward 7 unknown #
coedge $-1 $311 $302 $301 $348 reversed $223 $-1 #
edge $-1 $315 -1.9576518411971051 $304 1.9576518411971051 $301 $367 forward 7 unknown #
straight-curve $-1 0 -36.210053991008515 -8.4006309512311006 -1 0 0 I I #
point $-1 54.115421002838218 -36.210053991008515 -8.4006309512311006 #
point $-1 -54.115421002838218 -36.210053991008515 -8.4006309512311006 #
straight-curve $-1 0 -36.210053991008515 -4.4853272688368904 1 0 0 I I #
point $-1 -54.115421002838218 -36.210053991008515 -4.4853272688368904 #
point $-1 54.115421002838218 -36.210053991008515 -4.4853272688368904 #
straight-curve $-1 0 29.555637509286562 8.4006309512311006 -1 0 0 I I #
point $-1 48.70659830434748 29.555637509286562 8.4006309512310935 #
straight-curve $-1 54.115421002838218 29.555637509286562 0 0 0 -1 I I #
point $-1 54.115421002838218 29.555637509286562 8.4006309512311006 #
point $-1 47.544689276119435 24.481903075562855 1.7833101749368321 #
straight-curve $-1 -54.115421002838218 12.240951537781427 0.38172128309128184 0 -1 0 I I #
straight-curve $-1 -54.115421002838218 29.555637509286562 0 0 0 -1 I I #
straight-curve $-1 0 29.555637509286562 8.4006309512311006 -1 0 0 I I #
point $-1 -54.115421002838218 29.555637509286562 0.38172128309128062 #
point $-1 -54.115421002838218 29.555637509286562 8.4006309512311006 #
point $-1 -47.544689276119435 24.481903075562855 1.7833101749368285 #
straight-curve $-1 -54.115421002838218 -36.210053991008515 -6.4429791100339955 0 0 -1 I I #
straight-curve $-1 54.115421002838218 -36.210053991008515 -6.4429791100339955 0 0 -1 I I #
End-of-ACIS-data 