500 0 16 0           
7 Unknown 11 ACIS 5.0 NT 24 Thu Mar 25 23:21:00 1999 
-1 9.9999999999999995e-007 1e-010 
body $-1 $16 $-1 $17 #
body $-1 $18 $-1 $19 #
body $-1 $20 $-1 $21 #
body $-1 $22 $-1 $23 #
body $-1 $24 $-1 $25 #
body $-1 $26 $-1 $27 #
body $-1 $28 $-1 $29 #
body $-1 $30 $-1 $31 #
body $-1 $32 $-1 $33 #
body $-1 $34 $-1 $35 #
body $-1 $36 $-1 $37 #
body $-1 $38 $-1 $39 #
body $-1 $40 $-1 $41 #
body $-1 $42 $-1 $43 #
body $-1 $44 $-1 $45 #
body $-1 $46 $-1 $47 #
lump $-1 $-1 $48 $0 #
transform $-1 1 0 0 0 1 0 0 0 1 42.534257026886806 20.381836503423056 7.5855115810295057 1 rotate no_reflect no_shear #
lump $-1 $-1 $49 $1 #
transform $-1 1 0 0 0 1 0 0 0 1 42.534257026886806 20.381836503423056 7.5855115810295057 1 rotate no_reflect no_shear #
lump $-1 $-1 $50 $2 #
transform $-1 1 0 0 0 1 0 0 0 1 42.534257026886806 20.381836503423056 7.5855115810295057 1 rotate no_reflect no_shear #
lump $-1 $-1 $51 $3 #
transform $-1 1 0 0 0 1 0 0 0 1 42.534257026886806 20.381836503423056 7.5855115810295057 1 rotate no_reflect no_shear #
lump $-1 $-1 $52 $4 #
transform $-1 1 0 0 0 1 0 0 0 1 42.534257026886806 20.381836503423056 7.5855115810295057 1 rotate no_reflect no_shear #
lump $-1 $-1 $53 $5 #
transform $-1 1 0 0 0 1 0 0 0 1 42.534257026886806 20.381836503423056 7.5855115810295057 1 rotate no_reflect no_shear #
lump $-1 $-1 $54 $6 #
transform $-1 1 0 0 0 1 0 0 0 1 42.534257026886806 20.381836503423056 7.5855115810295057 1 rotate no_reflect no_shear #
lump $-1 $-1 $55 $7 #
transform $-1 1 0 0 0 1 0 0 0 1 42.534257026886806 20.381836503423056 7.5855115810295057 1 rotate no_reflect no_shear #
lump $-1 $-1 $56 $8 #
transform $-1 1 0 0 0 1 0 0 0 1 42.534257026886806 20.381836503423056 7.5855115810295057 1 rotate no_reflect no_shear #
lump $-1 $-1 $57 $9 #
transform $-1 1 0 0 0 1 0 0 0 1 42.534257026886806 20.381836503423056 7.5855115810295057 1 rotate no_reflect no_shear #
lump $-1 $-1 $58 $10 #
transform $-1 1 0 0 0 1 0 0 0 1 42.534257026886806 20.381836503423056 7.5855115810295057 1 rotate no_reflect no_shear #
lump $-1 $-1 $59 $11 #
transform $-1 1 0 0 0 1 0 0 0 1 42.534257026886806 20.381836503423056 7.5855115810295057 1 rotate no_reflect no_shear #
lump $-1 $-1 $60 $12 #
transform $-1 1 0 0 0 1 0 0 0 1 42.534257026886806 20.381836503423056 7.5855115810295057 1 rotate no_reflect no_shear #
lump $-1 $-1 $61 $13 #
transform $-1 1 0 0 0 1 0 0 0 1 42.534257026886806 20.381836503423056 7.5855115810295057 1 rotate no_reflect no_shear #
lump $-1 $-1 $62 $14 #
transform $-1 1 0 0 0 1 0 0 0 1 42.534257026886806 20.381836503423056 7.5855115810295057 1 rotate no_reflect no_shear #
lump $-1 $-1 $63 $15 #
transform $-1 1 0 0 0 1 0 0 0 1 42.534257026886806 20.381836503423056 7.5855115810295057 1 rotate no_reflect no_shear #
shell $-1 $-1 $-1 $64 $-1 $16 #
shell $-1 $-1 $-1 $65 $-1 $18 #
shell $-1 $-1 $-1 $66 $-1 $20 #
shell $-1 $-1 $-1 $67 $-1 $22 #
shell $-1 $-1 $-1 $68 $-1 $24 #
shell $-1 $-1 $-1 $69 $-1 $26 #
shell $-1 $-1 $-1 $70 $-1 $28 #
shell $-1 $-1 $-1 $71 $-1 $30 #
shell $-1 $-1 $-1 $72 $-1 $32 #
shell $-1 $-1 $-1 $73 $-1 $34 #
shell $-1 $-1 $-1 $74 $-1 $36 #
shell $-1 $-1 $-1 $75 $-1 $38 #
shell $-1 $-1 $-1 $76 $-1 $40 #
shell $-1 $-1 $-1 $77 $-1 $42 #
shell $-1 $-1 $-1 $78 $-1 $44 #
shell $-1 $-1 $-1 $79 $-1 $46 #
face $-1 $80 $81 $48 $-1 $82 forward single #
face $-1 $83 $84 $49 $-1 $85 forward single #
face $-1 $86 $87 $50 $-1 $88 reversed single #
face $-1 $89 $90 $51 $-1 $91 forward single #
face $-1 $92 $93 $52 $-1 $94 forward single #
face $-1 $95 $96 $53 $-1 $97 reversed single #
face $-1 $98 $99 $54 $-1 $100 forward single #
face $-1 $101 $102 $55 $-1 $103 forward single #
face $-1 $104 $105 $56 $-1 $106 reversed single #
face $-1 $107 $108 $57 $-1 $109 forward single #
face $-1 $110 $111 $58 $-1 $112 forward single #
face $-1 $113 $114 $59 $-1 $115 forward single #
face $-1 $116 $117 $60 $-1 $118 reversed single #
face $-1 $119 $120 $61 $-1 $121 forward single #
face $-1 $122 $123 $62 $-1 $124 forward single #
face $-1 $125 $126 $63 $-1 $127 forward single #
face $-1 $128 $129 $48 $-1 $130 reversed single #
loop $-1 $-1 $131 $64 #
plane-surface $-1 0 0 7.5855115810295057 0 0 1 1 0 0 forward_v I I I I #
face $-1 $132 $133 $49 $-1 $134 forward single #
loop $-1 $-1 $135 $65 #
plane-surface $-1 0 -20.381836503423056 0 0 1 0 0 0 1 forward_v I I I I #
face $-1 $136 $137 $50 $-1 $138 reversed single #
loop $-1 $-1 $139 $66 #
plane-surface $-1 -88.865891038333359 -14.851638117677044 72.368701262188253 0 1 0 -0.54463904215088732 0 0.83867056331134215 forward_v I I I I #
face $-1 $140 $141 $51 $-1 $142 forward single #
loop $-1 $143 $144 $67 #
cone-surface $-1 -37.042084647928135 -12.592768693084695 3.6266614591494615 0.54463904215088732 0 -0.83867056331134215 0.83867056331134215 0 0.54463904215088732 1 I I 0 1 1 forward I I I I #
face $-1 $145 $146 $52 $-1 $147 forward single #
loop $-1 $148 $149 $68 #
cone-surface $-1 -37.042084647928135 -9.2044645561961715 3.6266614591494615 0.54463904215088732 0 -0.83867056331134215 0.83867056331134215 0 0.54463904215088732 1 I I 0 1 1 forward I I I I #
face $-1 $150 $151 $53 $-1 $152 reversed single #
loop $-1 $-1 $153 $69 #
plane-surface $-1 -88.865891038333359 12.475793517349835 72.368701262188253 0 1 0 -0.54463904215088732 0 0.83867056331134215 forward_v I I I I #
face $-1 $154 $155 $54 $-1 $156 forward single #
loop $-1 $157 $158 $70 #
cone-surface $-1 -37.042084647928135 14.73466294194218 3.6266614591494615 0.54463904215088732 0 -0.83867056331134215 0.83867056331134215 0 0.54463904215088732 1 I I 0 1 1 forward I I I I #
face $-1 $159 $160 $55 $-1 $161 forward single #
loop $-1 $162 $163 $71 #
cone-surface $-1 -37.042084647928135 18.122967078830701 3.6266614591494615 0.54463904215088732 0 -0.83867056331134215 0.83867056331134215 0 0.54463904215088732 1 I I 0 1 1 forward I I I I #
face $-1 $164 $165 $56 $-1 $166 reversed single #
loop $-1 $-1 $167 $72 #
plane-surface $-1 34.142202491644781 -5.2760095486470613 124.33538773023734 0 -1 0 -0.6560590369687036 0 -0.75470957328743171 forward_v I I I I #
face $-1 $168 $169 $57 $-1 $170 forward single #
loop $-1 $171 $172 $73 #
cone-surface $-1 40.254533952579365 -10.751519616502394 5.4903881716352085 -0.6560590369687036 0 -0.75470957328743171 0.37735478664371586 0 -0.3280295184843518 1 I I 0 1 0.5 forward I I I I #
face $-1 $173 $174 $58 $-1 $175 forward single #
loop $-1 $176 $177 $74 #
cone-surface $-1 40.254533952579365 -8.6982033410566437 5.4903881716352085 -0.6560590369687036 0 -0.75470957328743171 0.37735478664371586 0 -0.3280295184843518 1 I I 0 1 0.5 forward I I I I #
face $-1 $178 $179 $59 $-1 $180 forward single #
loop $-1 $181 $182 $75 #
cone-surface $-1 40.254533952579365 -6.6448870656108951 5.4903881716352085 -0.6560590369687036 0 -0.75470957328743171 0.37735478664371586 0 -0.3280295184843518 1 I I 0 1 0.5 forward I I I I #
face $-1 $183 $184 $60 $-1 $185 reversed single #
loop $-1 $-1 $186 $76 #
plane-surface $-1 34.142202491644781 12.34072776190299 124.33538773023734 0 -1 0 -0.6560590369687036 0 -0.75470957328743171 forward_v I I I I #
face $-1 $187 $188 $61 $-1 $189 forward single #
loop $-1 $190 $191 $77 #
cone-surface $-1 40.254533952579365 6.8652176940476544 5.4903881716352085 -0.6560590369687036 0 -0.75470957328743171 0.37735478664371586 0 -0.3280295184843518 1 I I 0 1 0.5 forward I I I I #
face $-1 $192 $193 $62 $-1 $194 forward single #
loop $-1 $195 $196 $78 #
cone-surface $-1 40.254533952579365 8.9185339694934065 5.4903881716352085 -0.6560590369687036 0 -0.75470957328743171 0.37735478664371586 0 -0.3280295184843518 1 I I 0 1 0.5 forward I I I I #
face $-1 $197 $198 $63 $-1 $199 forward single #
loop $-1 $200 $201 $79 #
cone-surface $-1 40.254533952579365 10.971850244939155 5.4903881716352085 -0.6560590369687036 0 -0.75470957328743171 0.37735478664371586 0 -0.3280295184843518 1 I I 0 1 0.5 forward I I I I #
face $-1 $202 $203 $48 $-1 $204 reversed single #
loop $-1 $-1 $205 $80 #
plane-surface $-1 0 0 -7.5855115810295057 0 0 1 1 0 0 forward_v I I I I #
coedge $-1 $206 $207 $208 $209 forward $81 $-1 #
face $-1 $210 $211 $49 $-1 $212 reversed single #
loop $-1 $-1 $213 $83 #
plane-surface $-1 0 0 7.5855115810295057 0 0 1 1 0 0 forward_v I I I I #
coedge $-1 $214 $215 $216 $217 forward $84 $-1 #
face $-1 $218 $219 $50 $-1 $220 reversed single #
loop $-1 $-1 $221 $86 #
plane-surface $-1 -42.534257026886806 -10.898616624640432 1.0242426606511117 -0.54463904215088732 0 0.83867056331134215 0.83867056331134215 0 0.54463904215088732 forward_v I I I I #
coedge $-1 $222 $223 $224 $225 reversed $87 $-1 #
face $-1 $-1 $226 $51 $-1 $227 forward single #
loop $-1 $228 $229 $89 #
cone-surface $-1 -36.32932671812091 -12.592768693084695 2.5291105158029445 0.54463904215088732 0 -0.83867056331134215 0.41933528165567108 0 0.27231952107544366 1 I I -0.70710678118654746 0.70710678118654746 0.5 forward I I I I #
loop $-1 $-1 $230 $67 #
coedge $-1 $144 $144 $231 $232 reversed $90 $-1 #
face $-1 $-1 $233 $52 $-1 $234 forward single #
loop $-1 $235 $236 $92 #
cone-surface $-1 -36.32932671812091 -9.2044645561961715 2.5291105158029445 0.54463904215088732 0 -0.83867056331134215 0.41933528165567108 0 0.27231952107544366 1 I I -0.70710678118654746 0.70710678118654746 0.5 forward I I I I #
loop $-1 $-1 $237 $68 #
coedge $-1 $149 $149 $238 $239 reversed $93 $-1 #
face $-1 $240 $241 $53 $-1 $242 forward single #
loop $-1 $-1 $243 $95 #
plane-surface $-1 -42.534257026886806 16.428815010386447 1.0242426606511117 -0.54463904215088732 0 0.83867056331134215 0.83867056331134215 0 0.54463904215088732 forward_v I I I I #
coedge $-1 $244 $245 $246 $247 reversed $96 $-1 #
face $-1 $-1 $248 $54 $-1 $249 forward single #
loop $-1 $250 $251 $98 #
cone-surface $-1 -36.32932671812091 14.73466294194218 2.5291105158029445 0.54463904215088732 0 -0.83867056331134215 0.41933528165567108 0 0.27231952107544366 1 I I -0.70710678118654746 0.70710678118654746 0.5 forward I I I I #
loop $-1 $-1 $252 $70 #
coedge $-1 $158 $158 $253 $254 reversed $99 $-1 #
face $-1 $-1 $255 $55 $-1 $256 forward single #
loop $-1 $257 $258 $101 #
cone-surface $-1 -36.32932671812091 18.122967078830701 2.5291105158029445 0.54463904215088732 0 -0.83867056331134215 0.41933528165567108 0 0.27231952107544366 1 I I -0.70710678118654746 0.70710678118654746 0.5 forward I I I I #
loop $-1 $-1 $259 $71 #
coedge $-1 $163 $163 $260 $261 reversed $102 $-1 #
face $-1 $262 $263 $56 $-1 $264 reversed single #
loop $-1 $-1 $265 $104 #
plane-surface $-1 -21.66776491483256 -8.6982033410566437 60.133365788517978 0.6560590369687036 0 0.75470957328743171 0.75470957328743171 0 -0.6560590369687036 forward_v I I I I #
coedge $-1 $266 $267 $268 $269 reversed $105 $-1 #
face $-1 $-1 $270 $57 $-1 $271 forward single #
loop $-1 $272 $273 $107 #
cone-surface $-1 39.687112061417736 -10.751519616502394 4.8376439684134969 -0.6560590369687036 0 -0.75470957328743171 0.18867739332185793 0 -0.1640147592421759 1 I I -0.70710678118654746 0.70710678118654746 0.25 forward I I I I #
loop $-1 $-1 $274 $73 #
coedge $-1 $172 $172 $275 $276 reversed $108 $-1 #
face $-1 $-1 $277 $58 $-1 $278 forward single #
loop $-1 $279 $280 $110 #
cone-surface $-1 39.687112061417736 -8.6982033410566437 4.8376439684134969 -0.6560590369687036 0 -0.75470957328743171 0.18867739332185793 0 -0.1640147592421759 1 I I -0.70710678118654746 0.70710678118654746 0.25 forward I I I I #
loop $-1 $-1 $281 $74 #
coedge $-1 $177 $177 $282 $283 reversed $111 $-1 #
face $-1 $-1 $284 $59 $-1 $285 forward single #
loop $-1 $286 $287 $113 #
cone-surface $-1 39.687112061417736 -6.6448870656108951 4.8376439684134969 -0.6560590369687036 0 -0.75470957328743171 0.18867739332185793 0 -0.1640147592421759 1 I I -0.70710678118654746 0.70710678118654746 0.25 forward I I I I #
loop $-1 $-1 $288 $75 #
coedge $-1 $182 $182 $289 $290 reversed $114 $-1 #
face $-1 $291 $292 $60 $-1 $293 reversed single #
loop $-1 $-1 $294 $116 #
plane-surface $-1 -21.66776491483256 8.9185339694934065 60.133365788517978 0.6560590369687036 0 0.75470957328743171 0.75470957328743171 0 -0.6560590369687036 forward_v I I I I #
coedge $-1 $295 $296 $297 $298 reversed $117 $-1 #
face $-1 $-1 $299 $61 $-1 $300 forward single #
loop $-1 $301 $302 $119 #
cone-surface $-1 39.687112061417736 6.8652176940476544 4.8376439684134969 -0.6560590369687036 0 -0.75470957328743171 0.18867739332185793 0 -0.1640147592421759 1 I I -0.70710678118654746 0.70710678118654746 0.25 forward I I I I #
loop $-1 $-1 $303 $77 #
coedge $-1 $191 $191 $304 $305 reversed $120 $-1 #
face $-1 $-1 $306 $62 $-1 $307 forward single #
loop $-1 $308 $309 $122 #
cone-surface $-1 39.687112061417736 8.9185339694934065 4.8376439684134969 -0.6560590369687036 0 -0.75470957328743171 0.18867739332185793 0 -0.1640147592421759 1 I I -0.70710678118654746 0.70710678118654746 0.25 forward I I I I #
loop $-1 $-1 $310 $78 #
coedge $-1 $196 $196 $311 $312 reversed $123 $-1 #
face $-1 $-1 $313 $63 $-1 $314 forward single #
loop $-1 $315 $316 $125 #
cone-surface $-1 39.687112061417736 10.971850244939155 4.8376439684134969 -0.6560590369687036 0 -0.75470957328743171 0.18867739332185793 0 -0.1640147592421759 1 I I -0.70710678118654746 0.70710678118654746 0.25 forward I I I I #
loop $-1 $-1 $317 $79 #
coedge $-1 $201 $201 $318 $319 reversed $126 $-1 #
face $-1 $320 $321 $48 $-1 $322 reversed single #
loop $-1 $-1 $323 $128 #
plane-surface $-1 0 -20.381836503423056 0 0 1 0 0 0 1 forward_v I I I I #
coedge $-1 $324 $325 $326 $327 forward $129 $-1 #
coedge $-1 $328 $131 $329 $330 forward $81 $-1 #
coedge $-1 $131 $328 $331 $332 forward $81 $-1 #
coedge $-1 $333 $334 $131 $209 reversed $335 $-1 #
edge $-1 $336 -20.381836503423056 $337 20.381836503423056 $208 $338 forward 7 unknown #
face $-1 $339 $340 $49 $-1 $341 reversed single #
loop $-1 $-1 $342 $132 #
plane-surface $-1 -42.534257026886806 0 0 1 0 0 0 0 -1 forward_v I I I I #
coedge $-1 $343 $344 $215 $345 forward $133 $-1 #
coedge $-1 $346 $135 $347 $348 reversed $84 $-1 #
coedge $-1 $135 $346 $213 $345 reversed $84 $-1 #
coedge $-1 $349 $350 $135 $217 reversed $351 $-1 #
edge $-1 $352 -7.5855115810295057 $353 7.5855115810295057 $216 $354 forward 7 unknown #
face $-1 $355 $356 $50 $-1 $357 reversed single #
loop $-1 $-1 $358 $136 #
plane-surface $-1 -88.865891038333359 -6.9455951316038202 72.368701262188253 0 -1 0 0.54463904215088732 0 -0.83867056331134215 forward_v I I I I #
coedge $-1 $359 $360 $361 $362 reversed $137 $-1 #
coedge $-1 $223 $139 $363 $364 reversed $87 $-1 #
coedge $-1 $139 $222 $359 $365 reversed $87 $-1 #
coedge $-1 $361 $366 $139 $225 forward $367 $-1 #
edge $-1 $368 1.8986884922798737 $369 12.002156432733663 $224 $370 forward 7 unknown #
loop $-1 $-1 $231 $140 #
plane-surface $-1 -42.534257026886806 -10.898616624640432 1.0242426606511117 -0.54463904215088732 0 0.83867056331134215 0.83867056331134215 0 0.54463904215088732 forward_v I I I I #
loop $-1 $-1 $371 $89 #
coedge $-1 $229 $229 $230 $372 reversed $141 $-1 #
coedge $-1 $230 $230 $229 $372 forward $143 $-1 #
coedge $-1 $231 $231 $144 $232 forward $226 $-1 #
edge $-1 $373 0 $373 6.2831853071796004 $231 $374 forward 7 unknown #
loop $-1 $-1 $238 $145 #
plane-surface $-1 -42.534257026886806 -10.898616624640432 1.0242426606511117 -0.54463904215088732 0 0.83867056331134215 0.83867056331134215 0 0.54463904215088732 forward_v I I I I #
loop $-1 $-1 $375 $92 #
coedge $-1 $236 $236 $237 $376 reversed $146 $-1 #
coedge $-1 $237 $237 $236 $376 forward $148 $-1 #
coedge $-1 $238 $238 $149 $239 forward $233 $-1 #
edge $-1 $377 0 $377 6.2831853071796004 $238 $378 forward 7 unknown #
face $-1 $379 $380 $53 $-1 $381 reversed single #
loop $-1 $-1 $246 $150 #
plane-surface $-1 0 0 7.5855115810295057 0 0 1 1 0 0 forward_v I I I I #
coedge $-1 $382 $383 $384 $385 reversed $151 $-1 #
coedge $-1 $245 $153 $386 $387 reversed $96 $-1 #
coedge $-1 $153 $244 $382 $388 reversed $96 $-1 #
coedge $-1 $384 $389 $153 $247 forward $241 $-1 #
edge $-1 $390 1.8986884922798737 $391 12.002156432733663 $246 $392 forward 7 unknown #
loop $-1 $-1 $253 $154 #
plane-surface $-1 -42.534257026886806 16.428815010386447 1.0242426606511117 -0.54463904215088732 0 0.83867056331134215 0.83867056331134215 0 0.54463904215088732 forward_v I I I I #
loop $-1 $-1 $393 $98 #
coedge $-1 $251 $251 $252 $394 reversed $155 $-1 #
coedge $-1 $252 $252 $251 $394 forward $157 $-1 #
coedge $-1 $253 $253 $158 $254 forward $248 $-1 #
edge $-1 $395 0 $395 6.2831853071796004 $253 $396 forward 7 unknown #
loop $-1 $-1 $260 $159 #
plane-surface $-1 -42.534257026886806 16.428815010386447 1.0242426606511117 -0.54463904215088732 0 0.83867056331134215 0.83867056331134215 0 0.54463904215088732 forward_v I I I I #
loop $-1 $-1 $397 $101 #
coedge $-1 $258 $258 $259 $398 reversed $160 $-1 #
coedge $-1 $259 $259 $258 $398 forward $162 $-1 #
coedge $-1 $260 $260 $163 $261 forward $255 $-1 #
edge $-1 $399 0 $399 6.2831853071796004 $260 $400 forward 7 unknown #
face $-1 $401 $402 $56 $-1 $403 forward single #
loop $-1 $-1 $404 $164 #
plane-surface $-1 34.142202491644781 -12.120397133466227 124.33538773023734 0 1 0 0.6560590369687036 0 0.75470957328743171 forward_v I I I I #
coedge $-1 $405 $406 $407 $408 reversed $165 $-1 #
coedge $-1 $267 $167 $409 $410 reversed $105 $-1 #
coedge $-1 $167 $266 $405 $411 reversed $105 $-1 #
coedge $-1 $407 $412 $167 $269 forward $402 $-1 #
edge $-1 $413 -25.463155781064415 $414 -21.710523896288429 $268 $415 forward 7 unknown #
loop $-1 $-1 $275 $168 #
plane-surface $-1 -21.66776491483256 -8.6982033410566437 60.133365788517978 0.6560590369687036 0 0.75470957328743171 0.75470957328743171 0 -0.6560590369687036 forward_v I I I I #
loop $-1 $-1 $416 $107 #
coedge $-1 $273 $273 $274 $417 reversed $169 $-1 #
coedge $-1 $274 $274 $273 $417 forward $171 $-1 #
coedge $-1 $275 $275 $172 $276 forward $270 $-1 #
edge $-1 $418 0 $418 6.2831853071796004 $275 $419 forward 7 unknown #
loop $-1 $-1 $282 $173 #
plane-surface $-1 -21.66776491483256 -8.6982033410566437 60.133365788517978 0.6560590369687036 0 0.75470957328743171 0.75470957328743171 0 -0.6560590369687036 forward_v I I I I #
loop $-1 $-1 $420 $110 #
coedge $-1 $280 $280 $281 $421 reversed $174 $-1 #
coedge $-1 $281 $281 $280 $421 forward $176 $-1 #
coedge $-1 $282 $282 $177 $283 forward $277 $-1 #
edge $-1 $422 0 $422 6.2831853071796004 $282 $423 forward 7 unknown #
loop $-1 $-1 $289 $178 #
plane-surface $-1 -21.66776491483256 -8.6982033410566437 60.133365788517978 0.6560590369687036 0 0.75470957328743171 0.75470957328743171 0 -0.6560590369687036 forward_v I I I I #
loop $-1 $-1 $424 $113 #
coedge $-1 $287 $287 $288 $425 reversed $179 $-1 #
coedge $-1 $288 $288 $287 $425 forward $181 $-1 #
coedge $-1 $289 $289 $182 $290 forward $284 $-1 #
edge $-1 $426 0 $426 6.2831853071796004 $289 $427 forward 7 unknown #
face $-1 $428 $429 $60 $-1 $430 reversed single #
loop $-1 $-1 $431 $183 #
plane-surface $-1 34.142202491644781 5.4963401770838241 124.33538773023734 0 1 0 0.6560590369687036 0 0.75470957328743171 forward_v I I I I #
coedge $-1 $432 $433 $434 $435 reversed $184 $-1 #
coedge $-1 $296 $186 $436 $437 reversed $117 $-1 #
coedge $-1 $186 $295 $432 $438 reversed $117 $-1 #
coedge $-1 $434 $439 $186 $298 forward $440 $-1 #
edge $-1 $441 -25.463155781064415 $442 -21.710523896288429 $297 $443 forward 7 unknown #
loop $-1 $-1 $304 $187 #
plane-surface $-1 -21.66776491483256 8.9185339694934065 60.133365788517978 0.6560590369687036 0 0.75470957328743171 0.75470957328743171 0 -0.6560590369687036 forward_v I I I I #
loop $-1 $-1 $444 $119 #
coedge $-1 $302 $302 $303 $445 reversed $188 $-1 #
coedge $-1 $303 $303 $302 $445 forward $190 $-1 #
coedge $-1 $304 $304 $191 $305 forward $299 $-1 #
edge $-1 $446 0 $446 6.2831853071796004 $304 $447 forward 7 unknown #
loop $-1 $-1 $311 $192 #
plane-surface $-1 -21.66776491483256 8.9185339694934065 60.133365788517978 0.6560590369687036 0 0.75470957328743171 0.75470957328743171 0 -0.6560590369687036 forward_v I I I I #
loop $-1 $-1 $448 $122 #
coedge $-1 $309 $309 $310 $449 reversed $193 $-1 #
coedge $-1 $310 $310 $309 $449 forward $195 $-1 #
coedge $-1 $311 $311 $196 $312 forward $306 $-1 #
edge $-1 $450 0 $450 6.2831853071796004 $311 $451 forward 7 unknown #
loop $-1 $-1 $318 $197 #
plane-surface $-1 -21.66776491483256 8.9185339694934065 60.133365788517978 0.6560590369687036 0 0.75470957328743171 0.75470957328743171 0 -0.6560590369687036 forward_v I I I I #
loop $-1 $-1 $452 $125 #
coedge $-1 $316 $316 $317 $453 reversed $198 $-1 #
coedge $-1 $317 $317 $316 $453 forward $200 $-1 #
coedge $-1 $318 $318 $201 $319 forward $313 $-1 #
edge $-1 $454 0 $454 6.2831853071796004 $318 $455 forward 7 unknown #
face $-1 $456 $457 $48 $-1 $458 reversed single #
loop $-1 $-1 $459 $202 #
plane-surface $-1 -42.534257026886806 0 0 1 0 0 0 0 -1 forward_v I I I I #
coedge $-1 $460 $331 $461 $462 forward $203 $-1 #
coedge $-1 $463 $205 $460 $464 forward $129 $-1 #
coedge $-1 $205 $463 $465 $466 forward $129 $-1 #
coedge $-1 $334 $333 $205 $327 reversed $335 $-1 #
edge $-1 $467 -20.381836503423056 $468 20.381836503423056 $326 $469 forward 7 unknown #
coedge $-1 $207 $206 $470 $471 forward $81 $-1 #
coedge $-1 $472 $473 $206 $330 reversed $457 $-1 #
edge $-1 $337 -42.534257026886806 $474 42.534257026886806 $329 $475 forward 7 unknown #
coedge $-1 $323 $476 $207 $332 reversed $203 $-1 #
edge $-1 $477 -42.534257026886806 $336 42.534257026886806 $331 $478 forward 7 unknown #
coedge $-1 $326 $208 $476 $479 forward $335 $-1 #
coedge $-1 $208 $326 $472 $480 reversed $335 $-1 #
loop $-1 $-1 $333 $456 #
vertex $-1 $209 $481 #
vertex $-1 $209 $482 #
straight-curve $-1 42.534257026886806 0 7.5855115810295057 0 1 0 I I #
face $-1 $483 $351 $49 $-1 $484 reversed single #
loop $-1 $-1 $485 $210 #
plane-surface $-1 -40.763686995294414 -25.912034889169067 0 0 1 0 0 0 1 forward_v I I I I #
coedge $-1 $486 $487 $346 $488 forward $211 $-1 #
coedge $-1 $489 $213 $487 $490 forward $133 $-1 #
coedge $-1 $213 $489 $349 $491 forward $133 $-1 #
edge $-1 $352 38.993116963702022 $492 42.534257026886806 $213 $493 forward 7 unknown #
coedge $-1 $215 $214 $342 $488 reversed $84 $-1 #
coedge $-1 $494 $495 $214 $348 forward $496 $-1 #
edge $-1 $497 -42.534257026886806 $353 -38.993116963702022 $347 $498 forward 7 unknown #
coedge $-1 $499 $216 $344 $491 reversed $351 $-1 #
coedge $-1 $216 $499 $494 $500 reversed $351 $-1 #
loop $-1 $-1 $499 $339 #
vertex $-1 $345 $501 #
vertex $-1 $500 $502 #
straight-curve $-1 -38.993116963702022 -20.381836503423056 0 0 0 -1 I I #
face $-1 $-1 $367 $50 $-1 $503 forward single #
loop $-1 $-1 $504 $218 #
plane-surface $-1 -42.534257026886806 0 0 1 0 0 0 0 -1 forward_v I I I I #
coedge $-1 $505 $506 $507 $508 reversed $219 $-1 #
coedge $-1 $509 $221 $223 $365 forward $137 $-1 #
coedge $-1 $221 $509 $505 $510 forward $137 $-1 #
coedge $-1 $507 $224 $221 $362 forward $367 $-1 #
edge $-1 $369 -9.4023298053568283 $511 -1.4962868192836041 $361 $512 forward 7 unknown #
coedge $-1 $513 $514 $222 $364 forward $356 $-1 #
edge $-1 $515 -35.160107970443015 $368 -28.598839050064619 $363 $516 forward 7 unknown #
edge $-1 $369 -12.047004369107741 $515 0 $223 $517 forward 7 unknown #
coedge $-1 $224 $507 $513 $518 forward $367 $-1 #
loop $-1 $-1 $507 $355 #
vertex $-1 $364 $519 #
vertex $-1 $225 $520 #
straight-curve $-1 -44.43294551916668 -14.851638117677044 7.5855115810295075 1 0 0 I I #
coedge $-1 $371 $371 $-1 $521 reversed $228 $-1 #
edge $-1 $522 0 $522 6.2831853071796004 $229 $523 forward 7 unknown #
vertex $-1 $232 $524 #
ellipse-curve $-1 -37.482523056659915 -12.592768693084695 4.3048771208403069 -0.54463904215088732 0 0.83867056331134215 0.83867056331134215 0 0.54463904215088732 1 I I #
coedge $-1 $375 $375 $-1 $525 reversed $235 $-1 #
edge $-1 $526 0 $526 6.2831853071796004 $236 $527 forward 7 unknown #
vertex $-1 $239 $528 #
ellipse-curve $-1 -37.482523056659915 -9.2044645561961715 4.3048771208403069 -0.54463904215088732 0 0.83867056331134215 0.83867056331134215 0 0.54463904215088732 1 I I #
face $-1 $-1 $529 $53 $-1 $530 reversed single #
loop $-1 $-1 $531 $240 #
plane-surface $-1 0 20.381836503423056 0 0 -1 0 0 0 -1 forward_v I I I I #
coedge $-1 $532 $243 $245 $388 forward $151 $-1 #
coedge $-1 $243 $532 $531 $533 reversed $151 $-1 #
coedge $-1 $534 $246 $243 $385 forward $241 $-1 #
edge $-1 $391 4.2613860121566116 $535 12.167428998229836 $384 $536 forward 7 unknown #
coedge $-1 $537 $538 $244 $387 forward $529 $-1 #
edge $-1 $539 -35.160107970443015 $390 -28.598839050064619 $386 $540 forward 7 unknown #
edge $-1 $391 -12.047004369107741 $539 0 $245 $541 forward 7 unknown #
coedge $-1 $246 $534 $537 $542 forward $241 $-1 #
vertex $-1 $387 $543 #
vertex $-1 $247 $544 #
straight-curve $-1 -44.43294551916668 12.475793517349835 7.5855115810295075 1 0 0 I I #
coedge $-1 $393 $393 $-1 $545 reversed $250 $-1 #
edge $-1 $546 0 $546 6.2831853071796004 $251 $547 forward 7 unknown #
vertex $-1 $254 $548 #
ellipse-curve $-1 -37.482523056659915 14.73466294194218 4.3048771208403069 -0.54463904215088732 0 0.83867056331134215 0.83867056331134215 0 0.54463904215088732 1 I I #
coedge $-1 $397 $397 $-1 $549 reversed $257 $-1 #
edge $-1 $550 0 $550 6.2831853071796004 $258 $551 forward 7 unknown #
vertex $-1 $261 $552 #
ellipse-curve $-1 -37.482523056659915 18.122967078830701 4.3048771208403069 -0.54463904215088732 0 0.83867056331134215 0.83867056331134215 0 0.54463904215088732 1 I I #
face $-1 $-1 $553 $56 $-1 $554 reversed single #
loop $-1 $-1 $268 $262 #
plane-surface $-1 0 0 7.5855115810295057 0 0 1 1 0 0 forward_v I I I I #
coedge $-1 $555 $556 $557 $558 reversed $263 $-1 #
coedge $-1 $559 $265 $267 $411 forward $165 $-1 #
coedge $-1 $265 $559 $555 $560 forward $165 $-1 #
coedge $-1 $557 $268 $265 $408 forward $402 $-1 #
edge $-1 $414 0.92690787811873943 $561 7.7712954629379052 $407 $562 forward 7 unknown #
coedge $-1 $563 $564 $266 $410 forward $553 $-1 #
edge $-1 $565 -57.844295483078035 $413 -54.582182284089164 $409 $566 forward 7 unknown #
edge $-1 $414 80.096228001497991 $565 85.068514053773612 $267 $567 forward 7 unknown #
coedge $-1 $268 $557 $563 $568 forward $402 $-1 #
vertex $-1 $410 $569 #
vertex $-1 $269 $570 #
straight-curve $-1 17.071101245822391 -5.2760095486470613 7.5855115810295075 -1 0 0 I I #
coedge $-1 $416 $416 $-1 $571 reversed $272 $-1 #
edge $-1 $572 0 $572 6.2831853071796004 $273 $573 forward 7 unknown #
vertex $-1 $276 $574 #
ellipse-curve $-1 40.657941084498816 -10.751519616502394 5.9544549815350649 0.6560590369687036 0 0.75470957328743171 0.37735478664371586 0 -0.3280295184843518 1 I I #
coedge $-1 $420 $420 $-1 $575 reversed $279 $-1 #
edge $-1 $576 0 $576 6.2831853071796004 $280 $577 forward 7 unknown #
vertex $-1 $283 $578 #
ellipse-curve $-1 40.657941084498816 -8.6982033410566437 5.9544549815350649 0.6560590369687036 0 0.75470957328743171 0.37735478664371586 0 -0.3280295184843518 1 I I #
coedge $-1 $424 $424 $-1 $579 reversed $286 $-1 #
edge $-1 $580 0 $580 6.2831853071796004 $287 $581 forward 7 unknown #
vertex $-1 $290 $582 #
ellipse-curve $-1 40.657941084498816 -6.6448870656108951 5.9544549815350649 0.6560590369687036 0 0.75470957328743171 0.37735478664371586 0 -0.3280295184843518 1 I I #
face $-1 $-1 $440 $60 $-1 $583 forward single #
loop $-1 $-1 $584 $291 #
plane-surface $-1 42.534257026886806 0 0 -1 0 0 0 0 1 forward_v I I I I #
coedge $-1 $585 $586 $587 $588 reversed $292 $-1 #
coedge $-1 $589 $294 $296 $438 forward $184 $-1 #
coedge $-1 $294 $589 $585 $590 forward $184 $-1 #
coedge $-1 $587 $297 $294 $435 forward $440 $-1 #
edge $-1 $442 -7.8814607771562866 $591 -1.0370731923371208 $434 $592 forward 7 unknown #
coedge $-1 $593 $594 $295 $437 forward $429 $-1 #
edge $-1 $595 -57.844295483078035 $441 -54.582182284089164 $436 $596 forward 7 unknown #
edge $-1 $442 80.096228001497991 $595 85.068514053773612 $296 $597 forward 7 unknown #
coedge $-1 $297 $587 $593 $598 forward $440 $-1 #
loop $-1 $-1 $587 $428 #
vertex $-1 $437 $599 #
vertex $-1 $298 $600 #
straight-curve $-1 17.071101245822391 12.34072776190299 7.5855115810295075 -1 0 0 I I #
coedge $-1 $444 $444 $-1 $601 reversed $301 $-1 #
edge $-1 $602 0 $602 6.2831853071796004 $302 $603 forward 7 unknown #
vertex $-1 $305 $604 #
ellipse-curve $-1 40.657941084498816 6.8652176940476544 5.9544549815350649 0.6560590369687036 0 0.75470957328743171 0.37735478664371586 0 -0.3280295184843518 1 I I #
coedge $-1 $448 $448 $-1 $605 reversed $308 $-1 #
edge $-1 $606 0 $606 6.2831853071796004 $309 $607 forward 7 unknown #
vertex $-1 $312 $608 #
ellipse-curve $-1 40.657941084498816 8.9185339694934065 5.9544549815350649 0.6560590369687036 0 0.75470957328743171 0.37735478664371586 0 -0.3280295184843518 1 I I #
coedge $-1 $452 $452 $-1 $609 reversed $315 $-1 #
edge $-1 $610 0 $610 6.2831853071796004 $316 $611 forward 7 unknown #
vertex $-1 $319 $612 #
ellipse-curve $-1 40.657941084498816 10.971850244939155 5.9544549815350649 0.6560590369687036 0 0.75470957328743171 0.37735478664371586 0 -0.3280295184843518 1 I I #
face $-1 $-1 $335 $48 $-1 $613 reversed single #
loop $-1 $-1 $472 $320 #
plane-surface $-1 0 20.381836503423056 0 0 -1 0 0 0 -1 forward_v I I I I #
coedge $-1 $614 $470 $473 $615 forward $321 $-1 #
coedge $-1 $476 $323 $324 $464 reversed $203 $-1 #
coedge $-1 $470 $614 $323 $462 reversed $321 $-1 #
edge $-1 $477 -7.5855115810295057 $616 7.5855115810295057 $461 $617 forward 7 unknown #
coedge $-1 $325 $324 $614 $618 forward $129 $-1 #
edge $-1 $468 -42.534257026886806 $616 42.534257026886806 $460 $619 forward 7 unknown #
coedge $-1 $473 $472 $325 $466 reversed $457 $-1 #
edge $-1 $620 -42.534257026886806 $467 42.534257026886806 $465 $621 forward 7 unknown #
vertex $-1 $327 $622 #
vertex $-1 $479 $623 #
straight-curve $-1 42.534257026886806 0 -7.5855115810295057 0 -1 0 I I #
coedge $-1 $459 $461 $328 $471 reversed $321 $-1 #
edge $-1 $474 -20.381836503423056 $477 20.381836503423056 $470 $624 forward 7 unknown #
coedge $-1 $465 $329 $334 $480 forward $457 $-1 #
coedge $-1 $329 $465 $459 $615 reversed $457 $-1 #
vertex $-1 $330 $625 #
straight-curve $-1 0 20.381836503423056 7.5855115810295057 -1 0 0 I I #
coedge $-1 $331 $460 $333 $479 reversed $203 $-1 #
vertex $-1 $471 $626 #
straight-curve $-1 0 -20.381836503423056 7.5855115810295057 1 0 0 I I #
edge $-1 $336 -7.5855115810295057 $468 7.5855115810295057 $333 $627 forward 7 unknown #
edge $-1 $337 -7.5855115810295057 $467 7.5855115810295057 $334 $628 forward 7 unknown #
point $-1 42.534257026886806 -20.381836503423056 7.5855115810295057 #
point $-1 42.534257026886806 20.381836503423056 7.5855115810295057 #
face $-1 $-1 $496 $49 $-1 $629 reversed single #
plane-surface $-1 -38.993116963702022 -23.146935696296062 0 -1 0 0 0 0 1 forward_v I I I I #
coedge $-1 $630 $631 $632 $633 forward $340 $-1 #
coedge $-1 $632 $342 $495 $634 reversed $211 $-1 #
coedge $-1 $342 $632 $343 $490 reversed $211 $-1 #
edge $-1 $492 -7.5855115810295057 $497 7.5855115810295057 $342 $635 forward 7 unknown #
coedge $-1 $344 $343 $631 $636 forward $133 $-1 #
edge $-1 $492 20.381836503423056 $637 25.912034889169067 $487 $638 forward 7 unknown #
edge $-1 $639 -2.7650991928730058 $352 2.7650991928730058 $349 $640 forward 7 unknown #
vertex $-1 $490 $641 #
straight-curve $-1 0 -20.381836503423056 7.5855115810295057 -1 0 0 I I #
coedge $-1 $642 $347 $350 $500 forward $496 $-1 #
coedge $-1 $347 $642 $486 $634 forward $496 $-1 #
loop $-1 $-1 $347 $483 #
vertex $-1 $488 $643 #
straight-curve $-1 0 -20.381836503423056 -7.5855115810295057 1 0 0 I I #
coedge $-1 $350 $349 $644 $645 forward $351 $-1 #
edge $-1 $353 -2.7650991928730058 $646 2.7650991928730058 $350 $647 forward 7 unknown #
point $-1 -38.993116963702022 -20.381836503423056 7.5855115810295057 #
point $-1 -38.993116963702022 -20.381836503423056 -7.5855115810295057 #
plane-surface $-1 0 0 7.5855115810295057 0 0 1 1 0 0 forward_v I I I I #
coedge $-1 $514 $513 $506 $648 forward $356 $-1 #
coedge $-1 $506 $358 $360 $510 reversed $219 $-1 #
coedge $-1 $358 $505 $504 $648 reversed $219 $-1 #
coedge $-1 $366 $361 $358 $508 forward $367 $-1 #
edge $-1 $511 -12.002156432733663 $649 -1.8986884922798737 $507 $650 forward 7 unknown #
coedge $-1 $360 $359 $514 $651 reversed $137 $-1 #
edge $-1 $652 0 $511 12.047004369107741 $505 $653 forward 7 unknown #
vertex $-1 $362 $654 #
straight-curve $-1 -32.430789086433016 -5.4493083123202162 7.5855115810295057 0 1 0 I I #
coedge $-1 $504 $363 $366 $518 reversed $356 $-1 #
coedge $-1 $363 $504 $509 $651 forward $356 $-1 #
vertex $-1 $364 $655 #
straight-curve $-1 -42.534257026886806 -14.851638117677044 36.184350631094127 0 0 1 I I #
straight-curve $-1 -42.534257026886806 -14.851638117677044 1.0242426606511117 -0.83867056331134215 0 -0.54463904215088732 I I #
edge $-1 $649 6.9455951316038202 $368 14.851638117677044 $513 $656 forward 7 unknown #
point $-1 -42.534257026886806 -14.851638117677044 7.5855115810295057 #
point $-1 -32.430789086433016 -14.851638117677044 7.5855115810295057 #
edge $-1 $657 1 $657 0 $371 $-1 forward 7 unknown #
vertex $-1 $372 $658 #
ellipse-curve $-1 -36.601646239196356 -12.592768693084695 2.9484457974586156 -0.54463904215088732 0 0.83867056331134215 0.83867056331134215 0 0.54463904215088732 1 I I #
point $-1 -36.643852493348568 -12.592768693084695 4.8495161629911951 #
edge $-1 $659 1 $659 0 $375 $-1 forward 7 unknown #
vertex $-1 $376 $660 #
ellipse-curve $-1 -36.601646239196356 -9.2044645561961715 2.9484457974586156 -0.54463904215088732 0 0.83867056331134215 0.83867056331134215 0 0.54463904215088732 1 I I #
point $-1 -36.643852493348568 -9.2044645561961715 4.8495161629911951 #
loop $-1 $-1 $386 $379 #
plane-surface $-1 -42.534257026886806 0 0 1 0 0 0 0 -1 forward_v I I I I #
coedge $-1 $661 $662 $383 $533 forward $380 $-1 #
coedge $-1 $383 $382 $538 $663 reversed $151 $-1 #
edge $-1 $535 5.5101890104629963 $664 17.557193379570737 $531 $665 forward 7 unknown #
coedge $-1 $389 $384 $662 $666 forward $241 $-1 #
vertex $-1 $666 $667 #
straight-curve $-1 -32.430789086433016 8.2144075051932237 7.5855115810295057 0 1 0 I I #
coedge $-1 $668 $386 $389 $542 reversed $529 $-1 #
coedge $-1 $386 $668 $532 $663 forward $529 $-1 #
vertex $-1 $387 $669 #
straight-curve $-1 -42.534257026886806 12.475793517349835 36.184350631094127 0 0 1 I I #
straight-curve $-1 -42.534257026886806 12.475793517349835 1.0242426606511117 -0.83867056331134215 0 -0.54463904215088732 I I #
edge $-1 $670 -20.381836503423056 $390 -12.475793517349835 $537 $671 forward 7 unknown #
point $-1 -42.534257026886806 12.475793517349835 7.5855115810295057 #
point $-1 -32.430789086433016 12.475793517349835 7.5855115810295057 #
edge $-1 $672 1 $672 0 $393 $-1 forward 7 unknown #
vertex $-1 $394 $673 #
ellipse-curve $-1 -36.601646239196356 14.73466294194218 2.9484457974586156 -0.54463904215088732 0 0.83867056331134215 0.83867056331134215 0 0.54463904215088732 1 I I #
point $-1 -36.643852493348568 14.73466294194218 4.8495161629911951 #
edge $-1 $674 1 $674 0 $397 $-1 forward 7 unknown #
vertex $-1 $398 $675 #
ellipse-curve $-1 -36.601646239196356 18.122967078830701 2.9484457974586156 -0.54463904215088732 0 0.83867056331134215 0.83867056331134215 0 0.54463904215088732 1 I I #
point $-1 -36.643852493348568 18.122967078830701 4.8495161629911951 #
loop $-1 $-1 $409 $401 #
plane-surface $-1 42.534257026886806 0 0 -1 0 0 0 0 1 forward_v I I I I #
coedge $-1 $556 $404 $406 $560 reversed $263 $-1 #
coedge $-1 $404 $555 $676 $677 reversed $263 $-1 #
coedge $-1 $412 $407 $404 $558 forward $402 $-1 #
edge $-1 $561 21.710523896288429 $678 25.463155781064415 $557 $679 forward 7 unknown #
coedge $-1 $406 $405 $564 $680 reversed $165 $-1 #
edge $-1 $681 -85.068514053773612 $561 -80.096228001497991 $555 $682 forward 7 unknown #
vertex $-1 $408 $683 #
straight-curve $-1 38.781625142110805 -4.3491016705283219 7.5855115810295075 0 -1 0 I I #
coedge $-1 $676 $409 $412 $568 reversed $553 $-1 #
coedge $-1 $409 $676 $559 $680 forward $553 $-1 #
vertex $-1 $410 $684 #
straight-curve $-1 42.534257026886806 -5.2760095486470613 62.167693865118672 0 0 1 I I #
straight-curve $-1 -21.66776491483256 -5.2760095486470613 60.133365788517978 0.75470957328743171 0 -0.6560590369687036 I I #
edge $-1 $678 -12.120397133466227 $413 -5.2760095486470613 $563 $685 forward 7 unknown #
point $-1 42.534257026886806 -5.2760095486470613 7.5855115810295057 #
point $-1 38.781625142110819 -5.2760095486470613 7.5855115810295004 #
edge $-1 $686 1 $686 0 $416 $-1 forward 7 unknown #
vertex $-1 $417 $687 #
ellipse-curve $-1 39.851126820659914 -10.751519616502394 5.0263213617353548 0.6560590369687036 0 0.75470957328743171 0.37735478664371586 0 -0.3280295184843518 1 I I #
point $-1 41.03529587114253 -10.751519616502394 5.62642546305071 #
edge $-1 $688 1 $688 0 $420 $-1 forward 7 unknown #
vertex $-1 $421 $689 #
ellipse-curve $-1 39.851126820659914 -8.6982033410566437 5.0263213617353548 0.6560590369687036 0 0.75470957328743171 0.37735478664371586 0 -0.3280295184843518 1 I I #
point $-1 41.03529587114253 -8.6982033410566437 5.62642546305071 #
edge $-1 $690 1 $690 0 $424 $-1 forward 7 unknown #
vertex $-1 $425 $691 #
ellipse-curve $-1 39.851126820659914 -6.6448870656108951 5.0263213617353548 0.6560590369687036 0 0.75470957328743171 0.37735478664371586 0 -0.3280295184843518 1 I I #
point $-1 41.03529587114253 -6.6448870656108951 5.62642546305071 #
plane-surface $-1 0 0 7.5855115810295057 0 0 1 1 0 0 forward_v I I I I #
coedge $-1 $594 $593 $586 $692 forward $429 $-1 #
coedge $-1 $586 $431 $433 $590 reversed $292 $-1 #
coedge $-1 $431 $585 $584 $692 reversed $292 $-1 #
coedge $-1 $439 $434 $431 $588 forward $440 $-1 #
edge $-1 $591 21.710523896288429 $693 25.463155781064415 $587 $694 forward 7 unknown #
coedge $-1 $433 $432 $594 $695 reversed $184 $-1 #
edge $-1 $696 -85.068514053773612 $591 -80.096228001497991 $585 $697 forward 7 unknown #
vertex $-1 $435 $698 #
straight-curve $-1 38.781625142110805 4.4592669847467032 7.5855115810295075 0 -1 0 I I #
coedge $-1 $584 $436 $439 $598 reversed $429 $-1 #
coedge $-1 $436 $584 $589 $695 forward $429 $-1 #
vertex $-1 $437 $699 #
straight-curve $-1 42.534257026886806 12.34072776190299 62.167693865118672 0 0 1 I I #
straight-curve $-1 -21.66776491483256 12.34072776190299 60.133365788517978 0.75470957328743171 0 -0.6560590369687036 I I #
edge $-1 $693 5.4963401770838241 $441 12.34072776190299 $593 $700 forward 7 unknown #
point $-1 42.534257026886806 12.34072776190299 7.5855115810295057 #
point $-1 38.781625142110819 12.34072776190299 7.5855115810295004 #
edge $-1 $701 1 $701 0 $444 $-1 forward 7 unknown #
vertex $-1 $445 $702 #
ellipse-curve $-1 39.851126820659914 6.8652176940476544 5.0263213617353548 0.6560590369687036 0 0.75470957328743171 0.37735478664371586 0 -0.3280295184843518 1 I I #
point $-1 41.03529587114253 6.8652176940476544 5.62642546305071 #
edge $-1 $703 1 $703 0 $448 $-1 forward 7 unknown #
vertex $-1 $449 $704 #
ellipse-curve $-1 39.851126820659914 8.9185339694934065 5.0263213617353548 0.6560590369687036 0 0.75470957328743171 0.37735478664371586 0 -0.3280295184843518 1 I I #
point $-1 41.03529587114253 8.9185339694934065 5.62642546305071 #
edge $-1 $705 1 $705 0 $452 $-1 forward 7 unknown #
vertex $-1 $453 $706 #
ellipse-curve $-1 39.851126820659914 10.971850244939155 5.0263213617353548 0.6560590369687036 0 0.75470957328743171 0.37735478664371586 0 -0.3280295184843518 1 I I #
point $-1 41.03529587114253 10.971850244939155 5.62642546305071 #
plane-surface $-1 42.534257026886806 0 0 -1 0 0 0 0 1 forward_v I I I I #
coedge $-1 $461 $459 $463 $618 reversed $321 $-1 #
edge $-1 $474 -7.5855115810295057 $620 7.5855115810295057 $473 $707 forward 7 unknown #
vertex $-1 $618 $708 #
straight-curve $-1 -42.534257026886806 -20.381836503423056 0 0 0 -1 I I #
edge $-1 $616 -20.381836503423056 $620 20.381836503423056 $614 $709 forward 7 unknown #
straight-curve $-1 0 -20.381836503423056 -7.5855115810295057 -1 0 0 I I #
vertex $-1 $466 $710 #
straight-curve $-1 0 20.381836503423056 -7.5855115810295057 1 0 0 I I #
point $-1 42.534257026886806 20.381836503423056 -7.5855115810295057 #
point $-1 42.534257026886806 -20.381836503423056 -7.5855115810295057 #
straight-curve $-1 -42.534257026886806 0 7.5855115810295057 0 -1 0 I I #
point $-1 -42.534257026886806 20.381836503423056 7.5855115810295057 #
point $-1 -42.534257026886806 -20.381836503423056 7.5855115810295057 #
straight-curve $-1 42.534257026886806 -20.381836503423056 0 0 0 -1 I I #
straight-curve $-1 42.534257026886806 20.381836503423056 0 0 0 -1 I I #
plane-surface $-1 0 0 -7.5855115810295057 0 0 1 1 0 0 forward_v I I I I #
coedge $-1 $644 $485 $642 $711 reversed $340 $-1 #
coedge $-1 $485 $644 $489 $636 reversed $340 $-1 #
coedge $-1 $487 $486 $485 $633 reversed $211 $-1 #
edge $-1 $637 -7.5855115810295057 $712 7.5855115810295057 $632 $713 forward 7 unknown #
edge $-1 $712 -25.912034889169067 $497 -20.381836503423056 $486 $714 forward 7 unknown #
straight-curve $-1 -42.534257026886806 -20.381836503423056 0 0 0 -1 I I #
edge $-1 $637 -1.770570031592392 $639 1.770570031592392 $631 $715 forward 7 unknown #
vertex $-1 $490 $716 #
straight-curve $-1 -42.534257026886806 0 7.5855115810295057 0 -1 0 I I #
vertex $-1 $491 $717 #
straight-curve $-1 -38.993116963702022 -23.146935696296062 7.5855115810295057 0 1 0 I I #
point $-1 -42.534257026886806 -20.381836503423056 7.5855115810295057 #
coedge $-1 $495 $494 $630 $711 forward $496 $-1 #
point $-1 -42.534257026886806 -20.381836503423056 -7.5855115810295057 #
coedge $-1 $631 $630 $499 $645 reversed $340 $-1 #
edge $-1 $639 -7.5855115810295057 $646 7.5855115810295057 $499 $718 forward 7 unknown #
vertex $-1 $645 $719 #
straight-curve $-1 -38.993116963702022 -23.146935696296062 -7.5855115810295057 0 -1 0 I I #
edge $-1 $649 28.598839050064619 $652 35.160107970443015 $504 $720 forward 7 unknown #
vertex $-1 $518 $721 #
straight-curve $-1 -44.43294551916668 -6.9455951316038202 7.5855115810295075 -1 0 0 I I #
edge $-1 $652 1.4962868192836041 $515 9.4023298053568283 $514 $722 forward 7 unknown #
vertex $-1 $651 $723 #
straight-curve $-1 -42.534257026886806 -6.9455951316038202 1.0242426606511117 0.83867056331134215 0 0.54463904215088732 I I #
point $-1 -32.430789086433016 -6.9455951316038202 7.5855115810295057 #
point $-1 -42.534257026886806 -14.851638117677044 1.0242426606511117 #
straight-curve $-1 -42.534257026886806 0 7.5855115810295057 0 -1 0 I I #
vertex $-1 $521 $724 #
point $-1 -35.762975675885009 -12.592768693084695 3.4930848396095029 #
vertex $-1 $525 $725 #
point $-1 -35.762975675885009 -9.2044645561961715 3.4930848396095029 #
coedge $-1 $662 $531 $668 $726 reversed $380 $-1 #
coedge $-1 $531 $661 $534 $666 reversed $380 $-1 #
edge $-1 $664 -12.167428998229836 $539 -4.2613860121566116 $538 $727 forward 7 unknown #
vertex $-1 $533 $728 #
straight-curve $-1 -27.809555765076048 20.381836503423056 10.586575645758417 -0.83867056331134215 0 -0.54463904215088732 I I #
edge $-1 $535 32.430789086433016 $670 42.534257026886806 $662 $729 forward 7 unknown #
point $-1 -32.430789086433016 20.38183650342306 7.5855115810295057 #
coedge $-1 $538 $537 $661 $726 forward $529 $-1 #
point $-1 -42.534257026886806 12.475793517349835 1.0242426606511117 #
vertex $-1 $666 $730 #
straight-curve $-1 -42.534257026886806 0 7.5855115810295057 0 -1 0 I I #
vertex $-1 $545 $731 #
point $-1 -35.762975675885009 14.73466294194218 3.4930848396095029 #
vertex $-1 $549 $732 #
point $-1 -35.762975675885009 18.122967078830701 3.4930848396095029 #
coedge $-1 $564 $563 $556 $677 forward $553 $-1 #
edge $-1 $678 54.582182284089164 $681 57.844295483078035 $676 $733 forward 7 unknown #
vertex $-1 $568 $734 #
straight-curve $-1 17.071101245822391 -12.120397133466227 7.5855115810295075 1 0 0 I I #
edge $-1 $681 -7.7712954629379052 $565 -0.92690787811873943 $564 $735 forward 7 unknown #
vertex $-1 $680 $736 #
straight-curve $-1 -21.66776491483256 -12.120397133466227 60.133365788517978 -0.75470957328743171 0 0.6560590369687036 I I #
point $-1 38.781625142110819 -12.120397133466227 7.5855115810295004 #
point $-1 42.534257026886806 -5.2760095486470613 4.3233983820406365 #
straight-curve $-1 42.534257026886806 0 7.5855115810295057 0 1 0 I I #
vertex $-1 $571 $737 #
point $-1 40.228481607303628 -10.751519616502394 4.6982918432510026 #
vertex $-1 $575 $738 #
point $-1 40.228481607303628 -8.6982033410566437 4.6982918432510026 #
vertex $-1 $579 $739 #
point $-1 40.228481607303628 -6.6448870656108951 4.6982918432510026 #
edge $-1 $693 54.582182284089164 $696 57.844295483078035 $584 $740 forward 7 unknown #
vertex $-1 $598 $741 #
straight-curve $-1 17.071101245822391 5.4963401770838241 7.5855115810295075 1 0 0 I I #
edge $-1 $696 1.0370731923371208 $595 7.8814607771562866 $594 $742 forward 7 unknown #
vertex $-1 $695 $743 #
straight-curve $-1 -21.66776491483256 5.4963401770838241 60.133365788517978 -0.75470957328743171 0 0.6560590369687036 I I #
point $-1 38.781625142110819 5.4963401770838241 7.5855115810295004 #
point $-1 42.534257026886806 12.34072776190299 4.3233983820406365 #
straight-curve $-1 42.534257026886806 0 7.5855115810295057 0 1 0 I I #
vertex $-1 $601 $744 #
point $-1 40.228481607303628 6.8652176940476544 4.6982918432510026 #
vertex $-1 $605 $745 #
point $-1 40.228481607303628 8.9185339694934065 4.6982918432510026 #
vertex $-1 $609 $746 #
point $-1 40.228481607303628 10.971850244939155 4.6982918432510026 #
straight-curve $-1 -42.534257026886806 20.381836503423056 0 0 0 -1 I I #
point $-1 -42.534257026886806 -20.381836503423056 -7.5855115810295057 #
straight-curve $-1 -42.534257026886806 0 -7.5855115810295057 0 1 0 I I #
point $-1 -42.534257026886806 20.381836503423056 -7.5855115810295057 #
edge $-1 $646 -1.770570031592392 $712 1.770570031592392 $630 $747 forward 7 unknown #
vertex $-1 $634 $748 #
straight-curve $-1 -42.534257026886806 -25.912034889169067 0 0 0 -1 I I #
straight-curve $-1 -42.534257026886806 0 -7.5855115810295057 0 1 0 I I #
straight-curve $-1 -40.763686995294414 -25.912034889169067 7.5855115810295057 1 0 0 I I #
point $-1 -42.534257026886806 -25.912034889169067 7.5855115810295057 #
point $-1 -38.993116963702022 -25.912034889169067 7.5855115810295057 #
straight-curve $-1 -38.993116963702022 -25.912034889169067 0 0 0 -1 I I #
point $-1 -38.993116963702022 -25.912034889169067 -7.5855115810295057 #
straight-curve $-1 -42.534257026886806 -6.9455951316038202 36.184350631094127 0 0 -1 I I #
point $-1 -42.534257026886806 -6.9455951316038202 7.5855115810295057 #
straight-curve $-1 -42.534257026886806 -5.4493083123202162 1.0242426606511124 0 -1 0 I I #
point $-1 -42.534257026886806 -6.9455951316038202 1.0242426606511117 #
point $-1 -36.057007197045465 -12.592768693084695 2.1097752341472735 #
point $-1 -36.057007197045465 -9.2044645561961715 2.1097752341472735 #
edge $-1 $670 -7.5855115810295057 $664 -1.0242426606511117 $661 $749 forward 7 unknown #
straight-curve $-1 -42.534257026886806 8.2144075051932237 1.0242426606511124 0 -1 0 I I #
point $-1 -42.534257026886806 20.38183650342306 1.0242426606511117 #
straight-curve $-1 0 20.381836503423056 7.5855115810295057 -1 0 0 I I #
point $-1 -42.534257026886806 20.381836503423056 7.5855115810295057 #
point $-1 -36.057007197045465 14.73466294194218 2.1097752341472735 #
point $-1 -36.057007197045465 18.122967078830701 2.1097752341472735 #
straight-curve $-1 42.534257026886806 -12.120397133466227 62.167693865118672 0 0 -1 I I #
point $-1 42.534257026886806 -12.120397133466227 7.5855115810295057 #
straight-curve $-1 42.534257026886806 -4.3491016705283219 4.3233983820406401 0 1 0 I I #
point $-1 42.534257026886806 -12.120397133466227 4.3233983820406365 #
point $-1 39.523097302175557 -10.751519616502394 4.6489665750916389 #
point $-1 39.523097302175557 -8.6982033410566437 4.6489665750916389 #
point $-1 39.523097302175557 -6.6448870656108951 4.6489665750916389 #
straight-curve $-1 42.534257026886806 5.4963401770838241 62.167693865118672 0 0 -1 I I #
point $-1 42.534257026886806 5.4963401770838241 7.5855115810295057 #
straight-curve $-1 42.534257026886806 4.4592669847467032 4.3233983820406401 0 1 0 I I #
point $-1 42.534257026886806 5.4963401770838241 4.3233983820406365 #
point $-1 39.523097302175557 6.8652176940476544 4.6489665750916389 #
point $-1 39.523097302175557 8.9185339694934065 4.6489665750916389 #
point $-1 39.523097302175557 10.971850244939155 4.6489665750916389 #
straight-curve $-1 -40.763686995294414 -25.912034889169067 -7.5855115810295057 -1 0 0 I I #
point $-1 -42.534257026886806 -25.912034889169067 -7.5855115810295057 #
straight-curve $-1 -42.534257026886806 20.381836503423056 0 0 0 -1 I I #
End-of-ACIS-data 