500 0 6 0           
7 Unknown 11 ACIS 5.0 NT 24 Thu Mar 25 16:12:24 1999 
-1 9.9999999999999995e-007 1e-010 
body $-1 $6 $-1 $7 #
body $-1 $8 $-1 $9 #
body $-1 $10 $-1 $11 #
body $-1 $12 $-1 $13 #
body $-1 $14 $-1 $15 #
body $-1 $16 $-1 $17 #
lump $-1 $-1 $18 $0 #
transform $-1 1 0 0 0 1 0 0 0 1 44.065065462202824 29.316911529560656 10.83760336184479 1 rotate no_reflect no_shear #
lump $-1 $-1 $19 $1 #
transform $-1 1 0 0 0 1 0 0 0 1 44.065065462202824 29.316911529560656 10.83760336184479 1 rotate no_reflect no_shear #
lump $-1 $-1 $20 $2 #
transform $-1 1 0 0 0 1 0 0 0 1 44.065065462202824 29.316911529560656 10.83760336184479 1 rotate no_reflect no_shear #
lump $-1 $-1 $21 $3 #
transform $-1 1 0 0 0 1 0 0 0 1 44.065065462202824 29.316911529560656 10.83760336184479 1 rotate no_reflect no_shear #
lump $-1 $-1 $22 $4 #
transform $-1 1 0 0 0 1 0 0 0 1 44.065065462202824 29.316911529560656 10.83760336184479 1 rotate no_reflect no_shear #
lump $-1 $-1 $23 $5 #
transform $-1 1 0 0 0 1 0 0 0 1 44.065065462202824 29.316911529560656 10.83760336184479 1 rotate no_reflect no_shear #
shell $-1 $-1 $-1 $24 $-1 $6 #
shell $-1 $-1 $-1 $25 $-1 $8 #
shell $-1 $-1 $-1 $26 $-1 $10 #
shell $-1 $-1 $-1 $27 $-1 $12 #
shell $-1 $-1 $-1 $28 $-1 $14 #
shell $-1 $-1 $-1 $29 $-1 $16 #
face $-1 $30 $31 $18 $-1 $32 forward single #
face $-1 $33 $34 $19 $-1 $35 forward single #
face $-1 $36 $37 $20 $-1 $38 reversed single #
face $-1 $39 $40 $21 $-1 $41 forward single #
face $-1 $42 $43 $22 $-1 $44 reversed single #
face $-1 $45 $46 $23 $-1 $47 forward single #
face $-1 $48 $49 $18 $-1 $50 reversed single #
loop $-1 $-1 $51 $24 #
plane-surface $-1 0 0 10.83760336184479 0 0 1 1 0 0 forward_v I I I I #
face $-1 $52 $53 $19 $-1 $54 reversed single #
loop $-1 $-1 $55 $25 #
plane-surface $-1 0 -24.820068507384633 -1.5804139540297553 0 0 1 1 0 0 forward_v I I I I #
face $-1 $56 $57 $20 $-1 $58 reversed single #
loop $-1 $-1 $59 $26 #
plane-surface $-1 18.1520290064298 19.255017817865362 127.22227519504408 0 1 0 0.54463904215088732 0 0.83867056331134215 forward_v I I I I #
face $-1 $60 $61 $21 $-1 $62 forward single #
loop $-1 $63 $64 $27 #
cone-surface $-1 38.562020777537754 24.285964673713011 6.1526401961903616 -0.54463904215088732 0 -0.83867056331134215 2.0966764082783556 0 -1.3615976053772183 1 I I 0 1 2.5 forward I I I I #
face $-1 $65 $66 $22 $-1 $67 reversed single #
loop $-1 $-1 $68 $28 #
plane-surface $-1 -92.064175553503418 19.255017817865362 79.223165103743497 0 1 0 -0.54463904215088732 0 0.83867056331134215 forward_v I I I I #
face $-1 $69 $70 $23 $-1 $71 forward single #
loop $-1 $72 $73 $29 #
cone-surface $-1 -38.562020777537732 24.285964673713011 6.1526401961903581 0.54463904215088732 0 -0.83867056331134215 2.0966764082783556 0 1.3615976053772183 1 I I 0 1 2.5 forward I I I I #
face $-1 $74 $75 $18 $-1 $76 reversed single #
loop $-1 $-1 $77 $30 #
plane-surface $-1 0 0 -10.83760336184479 0 0 1 1 0 0 forward_v I I I I #
coedge $-1 $78 $79 $80 $81 forward $31 $-1 #
face $-1 $82 $83 $19 $-1 $84 reversed single #
loop $-1 $-1 $85 $33 #
plane-surface $-1 0 -24.820068507384633 -4.9366411446173544 0 0 1 1 0 0 forward_v I I I I #
coedge $-1 $86 $87 $88 $89 reversed $34 $-1 #
face $-1 $90 $91 $20 $-1 $92 forward single #
loop $-1 $-1 $93 $36 #
plane-surface $-1 -29.847081084870787 24.285964673713011 53.310128647970458 0.54463904215088732 0 0.83867056331134215 0.83867056331134215 0 -0.54463904215088732 forward_v I I I I #
coedge $-1 $94 $95 $96 $97 reversed $37 $-1 #
face $-1 $-1 $98 $21 $-1 $99 forward single #
loop $-1 $100 $101 $39 #
cone-surface $-1 36.63327436644164 24.285964673713011 3.1826312289842082 -0.54463904215088732 0 -0.83867056331134215 1.0483382041391778 0 -0.68079880268860915 1 I I -0.70710678118654746 0.70710678118654746 1.25 forward I I I I #
loop $-1 $-1 $102 $27 #
coedge $-1 $64 $64 $103 $104 reversed $40 $-1 #
face $-1 $105 $106 $22 $-1 $107 reversed single #
loop $-1 $-1 $108 $42 #
plane-surface $-1 -44.065065462202831 24.285964673713011 5.3110185566698789 -0.54463904215088732 0 0.83867056331134215 0.83867056331134215 0 0.54463904215088732 forward_v I I I I #
coedge $-1 $109 $110 $111 $112 reversed $43 $-1 #
face $-1 $-1 $113 $23 $-1 $114 forward single #
loop $-1 $115 $116 $45 #
cone-surface $-1 -36.633274366441618 24.285964673713011 3.1826312289842047 0.54463904215088732 0 -0.83867056331134215 1.0483382041391778 0 0.68079880268860915 1 I I -0.70710678118654746 0.70710678118654746 1.25 forward I I I I #
loop $-1 $-1 $117 $29 #
coedge $-1 $73 $73 $118 $119 reversed $46 $-1 #
face $-1 $120 $121 $18 $-1 $122 reversed single #
loop $-1 $-1 $123 $48 #
plane-surface $-1 0 -29.316911529560656 0 0 1 0 0 0 1 forward_v I I I I #
coedge $-1 $124 $125 $126 $127 forward $49 $-1 #
coedge $-1 $128 $51 $129 $130 forward $31 $-1 #
coedge $-1 $51 $128 $131 $132 forward $31 $-1 #
coedge $-1 $133 $134 $51 $81 reversed $135 $-1 #
edge $-1 $136 -29.316911529560656 $137 29.316911529560656 $80 $138 forward 7 unknown #
face $-1 $139 $140 $19 $-1 $141 reversed single #
loop $-1 $-1 $142 $52 #
plane-surface $-1 0 -20.32322548520861 -3.2585275493235546 0 -1 0 0 0 -1 forward_v I I I I #
coedge $-1 $143 $144 $145 $146 reversed $53 $-1 #
coedge $-1 $147 $55 $148 $149 forward $34 $-1 #
coedge $-1 $55 $147 $150 $151 reversed $34 $-1 #
coedge $-1 $152 $153 $55 $89 forward $154 $-1 #
edge $-1 $155 7.9131912315162936 $156 16.906877275868339 $88 $157 forward 7 unknown #
face $-1 $158 $159 $20 $-1 $160 reversed single #
loop $-1 $-1 $161 $56 #
plane-surface $-1 0 0 10.83760336184479 0 0 1 1 0 0 forward_v I I I I #
coedge $-1 $162 $163 $164 $165 reversed $57 $-1 #
coedge $-1 $95 $59 $166 $167 reversed $37 $-1 #
coedge $-1 $59 $94 $162 $168 reversed $37 $-1 #
coedge $-1 $164 $169 $59 $97 forward $159 $-1 #
edge $-1 $170 52.773534235677246 $171 58.300119040852159 $96 $172 forward 7 unknown #
loop $-1 $-1 $103 $60 #
plane-surface $-1 -29.847081084870787 24.285964673713011 53.310128647970458 0.54463904215088732 0 0.83867056331134215 0.83867056331134215 0 -0.54463904215088732 forward_v I I I I #
loop $-1 $-1 $173 $39 #
coedge $-1 $101 $101 $102 $174 reversed $61 $-1 #
coedge $-1 $102 $102 $101 $174 forward $63 $-1 #
coedge $-1 $103 $103 $64 $104 forward $98 $-1 #
edge $-1 $175 0 $175 6.2831853071796004 $103 $176 forward 7 unknown #
face $-1 $177 $178 $22 $-1 $179 forward single #
loop $-1 $-1 $180 $65 #
plane-surface $-1 0 29.316911529560656 0 0 -1 0 0 0 -1 forward_v I I I I #
coedge $-1 $181 $182 $183 $184 reversed $66 $-1 #
coedge $-1 $110 $68 $185 $186 reversed $43 $-1 #
coedge $-1 $68 $109 $181 $187 reversed $43 $-1 #
coedge $-1 $183 $188 $68 $112 forward $178 $-1 #
edge $-1 $189 1.9670223145488848 $190 10.477216467064054 $111 $191 forward 7 unknown #
loop $-1 $-1 $118 $69 #
plane-surface $-1 -44.065065462202831 24.285964673713011 5.3110185566698789 -0.54463904215088732 0 0.83867056331134215 0.83867056331134215 0 0.54463904215088732 forward_v I I I I #
loop $-1 $-1 $192 $45 #
coedge $-1 $116 $116 $117 $193 reversed $70 $-1 #
coedge $-1 $117 $117 $116 $193 forward $72 $-1 #
coedge $-1 $118 $118 $73 $119 forward $113 $-1 #
edge $-1 $194 0 $194 6.2831853071796004 $118 $195 forward 7 unknown #
face $-1 $196 $197 $18 $-1 $198 reversed single #
loop $-1 $-1 $199 $74 #
plane-surface $-1 -44.065065462202824 0 0 1 0 0 0 0 -1 forward_v I I I I #
coedge $-1 $200 $131 $201 $202 forward $75 $-1 #
coedge $-1 $203 $77 $200 $204 forward $49 $-1 #
coedge $-1 $77 $203 $205 $206 forward $49 $-1 #
coedge $-1 $134 $133 $77 $127 reversed $135 $-1 #
edge $-1 $207 -29.316911529560656 $208 29.316911529560656 $126 $209 forward 7 unknown #
coedge $-1 $79 $78 $210 $211 forward $31 $-1 #
coedge $-1 $212 $213 $78 $130 reversed $197 $-1 #
edge $-1 $137 -44.065065462202824 $214 44.065065462202824 $129 $215 forward 7 unknown #
coedge $-1 $123 $216 $79 $132 reversed $75 $-1 #
edge $-1 $217 -44.065065462202824 $136 44.065065462202824 $131 $218 forward 7 unknown #
coedge $-1 $126 $80 $216 $219 forward $135 $-1 #
coedge $-1 $80 $126 $212 $220 reversed $135 $-1 #
loop $-1 $-1 $133 $196 #
vertex $-1 $81 $221 #
vertex $-1 $81 $222 #
straight-curve $-1 44.065065462202824 0 10.83760336184479 0 1 0 I I #
face $-1 $223 $224 $19 $-1 $225 reversed single #
loop $-1 $-1 $226 $82 #
plane-surface $-1 -44.065065462202824 0 0 1 0 0 0 0 -1 forward_v I I I I #
coedge $-1 $227 $148 $153 $228 reversed $83 $-1 #
coedge $-1 $229 $85 $230 $231 reversed $53 $-1 #
coedge $-1 $85 $229 $227 $232 forward $53 $-1 #
coedge $-1 $153 $152 $85 $146 forward $154 $-1 #
edge $-1 $233 -16.906877275868339 $234 -7.9131912315162936 $145 $235 forward 7 unknown #
coedge $-1 $87 $86 $226 $236 reversed $34 $-1 #
coedge $-1 $142 $237 $86 $149 reversed $83 $-1 #
edge $-1 $155 -44.065065462202824 $238 44.065065462202824 $148 $239 forward 7 unknown #
coedge $-1 $240 $241 $87 $151 forward $224 $-1 #
edge $-1 $156 -44.065065462202824 $242 44.065065462202824 $150 $243 forward 7 unknown #
coedge $-1 $145 $88 $241 $244 forward $154 $-1 #
coedge $-1 $88 $145 $142 $228 forward $154 $-1 #
loop $-1 $-1 $88 $223 #
vertex $-1 $89 $245 #
vertex $-1 $244 $246 #
straight-curve $-1 44.065065462202824 -12.410034253692316 -1.5804139540297553 0 -1 0 I I #
face $-1 $-1 $247 $20 $-1 $248 reversed single #
loop $-1 $-1 $96 $90 #
plane-surface $-1 44.065065462202824 0 0 -1 0 0 0 0 1 forward_v I I I I #
coedge $-1 $166 $249 $250 $251 forward $91 $-1 #
coedge $-1 $250 $93 $95 $168 forward $57 $-1 #
coedge $-1 $93 $250 $252 $253 reversed $57 $-1 #
coedge $-1 $254 $96 $93 $165 forward $159 $-1 #
edge $-1 $171 7.1120354810088564 $255 17.173929192704154 $164 $256 forward 7 unknown #
coedge $-1 $257 $161 $94 $167 forward $91 $-1 #
edge $-1 $258 26.478856806472749 $170 34.989050958987924 $166 $259 forward 7 unknown #
edge $-1 $171 -88.130130924405634 $258 -77.982887745970729 $95 $260 forward 7 unknown #
coedge $-1 $96 $254 $257 $261 reversed $159 $-1 #
vertex $-1 $261 $262 #
vertex $-1 $97 $263 #
straight-curve $-1 44.065065462202824 19.255017817865362 63.611137597522038 0 0 -1 I I #
coedge $-1 $173 $173 $-1 $264 reversed $100 $-1 #
edge $-1 $265 0 $265 6.2831853071796004 $101 $266 forward 7 unknown #
vertex $-1 $104 $267 #
ellipse-curve $-1 39.809968385945254 24.285964673713011 8.0743109592573301 0.54463904215088732 0 0.83867056331134215 2.0966764082783556 0 -1.3615976053772183 1 I I #
face $-1 $-1 $268 $22 $-1 $269 reversed single #
loop $-1 $-1 $183 $105 #
plane-surface $-1 0 0 10.83760336184479 0 0 1 1 0 0 forward_v I I I I #
coedge $-1 $270 $271 $182 $272 forward $106 $-1 #
coedge $-1 $273 $108 $110 $187 forward $66 $-1 #
coedge $-1 $108 $273 $180 $272 reversed $66 $-1 #
coedge $-1 $274 $111 $108 $184 forward $178 $-1 #
edge $-1 $190 7.1120354810088564 $275 17.173929192704154 $183 $276 forward 7 unknown #
coedge $-1 $277 $278 $109 $186 forward $268 $-1 #
edge $-1 $279 -34.300563995201863 $189 -28.773979190026957 $185 $280 forward 7 unknown #
edge $-1 $190 -10.147243178434906 $279 -8.3777959833898778e-015 $110 $281 forward 7 unknown #
coedge $-1 $111 $274 $277 $282 forward $178 $-1 #
vertex $-1 $186 $283 #
vertex $-1 $112 $284 #
straight-curve $-1 -46.032087776751709 19.255017817865362 10.837603361844792 1 0 0 I I #
coedge $-1 $192 $192 $-1 $285 reversed $115 $-1 #
edge $-1 $286 0 $286 6.2831853071796004 $116 $287 forward 7 unknown #
vertex $-1 $119 $288 #
ellipse-curve $-1 -39.80996838594524 24.285964673713011 8.074310959257339 -0.54463904215088732 0 0.83867056331134215 2.0966764082783556 0 1.3615976053772183 1 I I #
face $-1 $-1 $135 $18 $-1 $289 reversed single #
loop $-1 $-1 $212 $120 #
plane-surface $-1 0 29.316911529560656 0 0 -1 0 0 0 -1 forward_v I I I I #
coedge $-1 $290 $210 $213 $291 forward $121 $-1 #
coedge $-1 $216 $123 $124 $204 reversed $75 $-1 #
coedge $-1 $210 $290 $123 $202 reversed $121 $-1 #
edge $-1 $217 -10.83760336184479 $292 10.83760336184479 $201 $293 forward 7 unknown #
coedge $-1 $125 $124 $290 $294 forward $49 $-1 #
edge $-1 $208 -44.065065462202824 $292 44.065065462202824 $200 $295 forward 7 unknown #
coedge $-1 $213 $212 $125 $206 reversed $197 $-1 #
edge $-1 $296 -44.065065462202824 $207 44.065065462202824 $205 $297 forward 7 unknown #
vertex $-1 $127 $298 #
vertex $-1 $219 $299 #
straight-curve $-1 44.065065462202824 0 -10.83760336184479 0 -1 0 I I #
coedge $-1 $199 $201 $128 $211 reversed $121 $-1 #
edge $-1 $214 -29.316911529560656 $217 29.316911529560656 $210 $300 forward 7 unknown #
coedge $-1 $205 $129 $134 $220 forward $197 $-1 #
coedge $-1 $129 $205 $199 $291 reversed $197 $-1 #
vertex $-1 $130 $301 #
straight-curve $-1 0 29.316911529560656 10.83760336184479 -1 0 0 I I #
coedge $-1 $131 $200 $133 $219 reversed $75 $-1 #
vertex $-1 $211 $302 #
straight-curve $-1 0 -29.316911529560656 10.83760336184479 1 0 0 I I #
edge $-1 $136 -10.83760336184479 $208 10.83760336184479 $133 $303 forward 7 unknown #
edge $-1 $137 -10.83760336184479 $207 10.83760336184479 $134 $304 forward 7 unknown #
point $-1 44.065065462202824 -29.316911529560656 10.83760336184479 #
point $-1 44.065065462202824 29.316911529560656 10.83760336184479 #
face $-1 $-1 $154 $19 $-1 $305 reversed single #
loop $-1 $-1 $150 $139 #
plane-surface $-1 0 -29.316911529560656 0 0 1 0 0 0 1 forward_v I I I I #
coedge $-1 $306 $307 $147 $236 forward $140 $-1 #
coedge $-1 $237 $142 $144 $232 reversed $83 $-1 #
edge $-1 $234 -3.3073773699555771 $155 0.048849820632022034 $153 $308 forward 7 unknown #
coedge $-1 $144 $143 $309 $310 reversed $53 $-1 #
coedge $-1 $241 $240 $143 $231 forward $224 $-1 #
edge $-1 $311 -44.065065462202824 $233 44.065065462202824 $230 $312 forward 7 unknown #
edge $-1 $313 -44.065065462202824 $234 44.065065462202824 $227 $314 forward 7 unknown #
vertex $-1 $231 $315 #
vertex $-1 $146 $316 #
straight-curve $-1 44.065065462202824 -12.410034253692316 -4.9366411446173544 0 1 0 I I #
edge $-1 $242 -16.906877275868339 $238 -7.9131912315162936 $226 $317 forward 7 unknown #
coedge $-1 $148 $227 $306 $318 reversed $83 $-1 #
vertex $-1 $236 $319 #
straight-curve $-1 0 -20.32322548520861 -1.5804139540297553 -1 0 0 I I #
coedge $-1 $230 $150 $307 $320 forward $224 $-1 #
coedge $-1 $150 $230 $152 $244 reversed $224 $-1 #
vertex $-1 $320 $321 #
straight-curve $-1 0 -29.316911529560656 -1.5804139540297553 -1 0 0 I I #
edge $-1 $156 1.5804139540297553 $233 4.9366411446173544 $152 $322 forward 7 unknown #
point $-1 44.065065462202824 -20.32322548520861 -1.5804139540297553 #
point $-1 44.065065462202824 -29.316911529560656 -1.5804139540297553 #
loop $-1 $-1 $252 $158 #
plane-surface $-1 0 29.316911529560656 0 0 -1 0 0 0 -1 forward_v I I I I #
coedge $-1 $161 $257 $323 $324 forward $91 $-1 #
coedge $-1 $163 $162 $161 $251 reversed $57 $-1 #
edge $-1 $325 -17.173929192704154 $258 -7.1120354810088564 $161 $326 forward 7 unknown #
coedge $-1 $323 $327 $163 $253 forward $247 $-1 #
edge $-1 $255 -61.096808069196086 $325 -50.949564890761181 $252 $328 forward 7 unknown #
coedge $-1 $169 $164 $327 $329 reversed $159 $-1 #
vertex $-1 $253 $330 #
straight-curve $-1 44.065065462202824 12.142982336856505 5.311018556669886 0 1 0 I I #
coedge $-1 $249 $166 $169 $261 forward $91 $-1 #
vertex $-1 $167 $331 #
straight-curve $-1 9.0760145032148998 19.255017817865362 10.837603361844792 1 0 0 I I #
straight-curve $-1 -29.847081084870787 19.255017817865362 53.310128647970458 -0.83867056331134215 0 0.54463904215088732 I I #
edge $-1 $170 19.255017817865362 $332 29.316911529560656 $169 $333 forward 7 unknown #
point $-1 44.065065462202824 19.255017817865362 10.83760336184479 #
point $-1 44.065065462202817 19.255017817865362 5.3110185566698789 #
edge $-1 $334 1 $334 0 $173 $-1 forward 7 unknown #
vertex $-1 $174 $335 #
ellipse-curve $-1 37.314073169130246 24.285964673713011 4.230969433123386 0.54463904215088732 0 0.83867056331134215 2.0966764082783556 0 -1.3615976053772183 1 I I #
point $-1 41.90664479422361 24.285964673713011 6.712713353880118 #
loop $-1 $-1 $185 $177 #
plane-surface $-1 -44.065065462202824 0 0 1 0 0 0 0 -1 forward_v I I I I #
coedge $-1 $271 $180 $336 $337 reversed $106 $-1 #
coedge $-1 $180 $270 $274 $338 reversed $106 $-1 #
edge $-1 $275 6.8844994285583683 $339 17.031742606993262 $180 $340 forward 7 unknown #
coedge $-1 $182 $181 $278 $341 reversed $66 $-1 #
coedge $-1 $188 $183 $271 $338 forward $178 $-1 #
vertex $-1 $338 $342 #
straight-curve $-1 -35.554871309687663 12.142982336856505 10.837603361844788 0 1 0 I I #
coedge $-1 $336 $185 $188 $282 reversed $268 $-1 #
coedge $-1 $185 $336 $273 $341 forward $268 $-1 #
vertex $-1 $186 $343 #
straight-curve $-1 -44.065065462202824 19.255017817865362 39.611582551871749 0 0 1 I I #
straight-curve $-1 -44.065065462202831 19.255017817865362 5.3110185566698789 -0.83867056331134215 0 -0.54463904215088732 I I #
edge $-1 $344 -29.316911529560656 $189 -19.255017817865362 $277 $345 forward 7 unknown #
point $-1 -44.065065462202824 19.255017817865362 10.83760336184479 #
point $-1 -35.554871309687655 19.255017817865362 10.83760336184479 #
edge $-1 $346 1 $346 0 $192 $-1 forward 7 unknown #
vertex $-1 $193 $347 #
ellipse-curve $-1 -37.314073169130225 24.285964673713011 4.2309694331233825 -0.54463904215088732 0 0.83867056331134215 2.0966764082783556 0 1.3615976053772183 1 I I #
point $-1 -37.713291977666877 24.285964673713011 9.435908564634552 #
plane-surface $-1 44.065065462202824 0 0 -1 0 0 0 0 1 forward_v I I I I #
coedge $-1 $201 $199 $203 $294 reversed $121 $-1 #
edge $-1 $214 -10.83760336184479 $296 10.83760336184479 $213 $348 forward 7 unknown #
vertex $-1 $294 $349 #
straight-curve $-1 -44.065065462202824 -29.316911529560656 0 0 0 -1 I I #
edge $-1 $292 -29.316911529560656 $296 29.316911529560656 $290 $350 forward 7 unknown #
straight-curve $-1 0 -29.316911529560656 -10.83760336184479 -1 0 0 I I #
vertex $-1 $206 $351 #
straight-curve $-1 0 29.316911529560656 -10.83760336184479 1 0 0 I I #
point $-1 44.065065462202824 29.316911529560656 -10.83760336184479 #
point $-1 44.065065462202824 -29.316911529560656 -10.83760336184479 #
straight-curve $-1 -44.065065462202824 0 10.83760336184479 0 -1 0 I I #
point $-1 -44.065065462202824 29.316911529560656 10.83760336184479 #
point $-1 -44.065065462202824 -29.316911529560656 10.83760336184479 #
straight-curve $-1 44.065065462202824 -29.316911529560656 0 0 0 -1 I I #
straight-curve $-1 44.065065462202824 29.316911529560656 0 0 0 -1 I I #
plane-surface $-1 44.065065462202824 0 0 -1 0 0 0 0 1 forward_v I I I I #
coedge $-1 $309 $226 $237 $318 forward $140 $-1 #
coedge $-1 $226 $309 $240 $320 reversed $140 $-1 #
straight-curve $-1 44.065065462202824 -20.32322548520861 -1.6292637746617773 0 0 1 I I #
coedge $-1 $307 $306 $229 $310 forward $140 $-1 #
edge $-1 $313 7.9131912315162936 $311 16.906877275868339 $309 $352 forward 7 unknown #
vertex $-1 $231 $353 #
straight-curve $-1 0 -29.316911529560656 -4.9366411446173544 1 0 0 I I #
vertex $-1 $310 $354 #
straight-curve $-1 0 -20.32322548520861 -4.9366411446173544 1 0 0 I I #
point $-1 44.065065462202824 -29.316911529560656 -4.9366411446173544 #
point $-1 44.065065462202824 -20.32322548520861 -4.9366411446173544 #
straight-curve $-1 -44.065065462202824 -12.410034253692316 -1.5804139540297553 0 1 0 I I #
edge $-1 $238 -0.048849820632022034 $313 3.3073773699555771 $306 $355 forward 7 unknown #
point $-1 -44.065065462202824 -20.32322548520861 -1.5804139540297553 #
edge $-1 $242 1.5804139540297553 $311 4.9366411446173544 $307 $356 forward 7 unknown #
point $-1 -44.065065462202824 -29.316911529560656 -1.5804139540297553 #
straight-curve $-1 44.065065462202824 -29.316911529560656 0 0 0 -1 I I #
coedge $-1 $327 $252 $249 $324 reversed $247 $-1 #
edge $-1 $332 -44.065065462202824 $325 -35.554871309687648 $323 $357 forward 7 unknown #
vertex $-1 $253 $358 #
straight-curve $-1 35.554871309687655 12.142982336856505 10.837603361844785 0 -1 0 I I #
coedge $-1 $252 $323 $254 $329 forward $247 $-1 #
straight-curve $-1 -7.1750289777148151 29.316911529560656 38.586725581953438 -0.83867056331134215 0 0.54463904215088732 I I #
edge $-1 $332 -10.83760336184479 $255 -5.3110185566698789 $254 $359 forward 7 unknown #
point $-1 44.065065462202817 29.316911529560659 5.3110185566698789 #
point $-1 35.554871309687648 19.255017817865362 10.837603361844792 #
vertex $-1 $261 $360 #
straight-curve $-1 44.065065462202824 0 10.83760336184479 0 1 0 I I #
vertex $-1 $264 $361 #
point $-1 39.410749577408602 24.285964673713011 2.8693718277461677 #
coedge $-1 $278 $277 $270 $337 forward $268 $-1 #
edge $-1 $344 -10.83760336184479 $339 -5.3110185566698833 $270 $362 forward 7 unknown #
edge $-1 $275 35.554871309687655 $344 44.065065462202824 $271 $363 forward 7 unknown #
vertex $-1 $272 $364 #
straight-curve $-1 -29.781044295821996 29.316911529560656 14.587170536303152 -0.83867056331134215 0 -0.54463904215088732 I I #
edge $-1 $339 -17.173929192704154 $279 -7.1120354810088564 $278 $365 forward 7 unknown #
point $-1 -35.554871309687655 29.316911529560659 10.83760336184479 #
point $-1 -44.065065462202824 19.255017817865362 5.3110185566698833 #
vertex $-1 $338 $366 #
straight-curve $-1 -44.065065462202824 0 10.83760336184479 0 -1 0 I I #
vertex $-1 $285 $367 #
point $-1 -35.217396760851869 24.285964673713011 5.5925670385006008 #
straight-curve $-1 -44.065065462202824 29.316911529560656 0 0 0 -1 I I #
point $-1 -44.065065462202824 -29.316911529560656 -10.83760336184479 #
straight-curve $-1 -44.065065462202824 0 -10.83760336184479 0 1 0 I I #
point $-1 -44.065065462202824 29.316911529560656 -10.83760336184479 #
straight-curve $-1 -44.065065462202824 -12.410034253692316 -4.9366411446173544 0 -1 0 I I #
point $-1 -44.065065462202824 -29.316911529560656 -4.9366411446173544 #
point $-1 -44.065065462202824 -20.32322548520861 -4.9366411446173544 #
straight-curve $-1 -44.065065462202824 -20.32322548520861 -1.6292637746617773 0 0 -1 I I #
straight-curve $-1 -44.065065462202824 -29.316911529560656 0 0 0 -1 I I #
straight-curve $-1 0 29.316911529560656 10.83760336184479 -1 0 0 I I #
point $-1 35.554871309687648 29.316911529560659 10.837603361844792 #
straight-curve $-1 44.065065462202824 29.316911529560656 0 0 0 -1 I I #
point $-1 44.065065462202824 29.316911529560656 10.83760336184479 #
point $-1 35.952475563753033 24.285964673713011 2.1342930248450305 #
straight-curve $-1 -44.065065462202824 29.316911529560656 0 0 0 -1 I I #
straight-curve $-1 0 29.316911529560656 10.83760336184479 -1 0 0 I I #
point $-1 -44.065065462202824 29.316911529560659 5.3110185566698833 #
straight-curve $-1 -44.065065462202824 12.142982336856505 5.3110185566698789 0 -1 0 I I #
point $-1 -44.065065462202824 29.316911529560656 10.83760336184479 #
point $-1 -35.952475563753012 24.285964673713011 2.1342930248450269 #
End-of-ACIS-data 