500 0 8 0           
7 Unknown 11 ACIS 5.0 NT 24 Thu Mar 25 22:37:38 1999 
-1 9.9999999999999995e-007 1e-010 
body $-1 $8 $-1 $9 #
body $-1 $10 $-1 $11 #
body $-1 $12 $-1 $13 #
body $-1 $14 $-1 $15 #
body $-1 $16 $-1 $17 #
body $-1 $18 $-1 $19 #
body $-1 $20 $-1 $21 #
body $-1 $22 $-1 $23 #
lump $-1 $-1 $24 $0 #
transform $-1 1 0 0 0 1 0 0 0 1 61.15176854762413 31.057752819574468 9.1520231910142886 1 rotate no_reflect no_shear #
lump $-1 $-1 $25 $1 #
transform $-1 1 0 0 0 1 0 0 0 1 61.15176854762413 31.057752819574468 9.1520231910142886 1 rotate no_reflect no_shear #
lump $-1 $-1 $26 $2 #
transform $-1 1 0 0 0 1 0 0 0 1 61.15176854762413 31.057752819574468 9.1520231910142886 1 rotate no_reflect no_shear #
lump $-1 $-1 $27 $3 #
transform $-1 1 0 0 0 1 0 0 0 1 61.15176854762413 31.057752819574468 9.1520231910142886 1 rotate no_reflect no_shear #
lump $-1 $-1 $28 $4 #
transform $-1 1 0 0 0 1 0 0 0 1 61.15176854762413 31.057752819574468 9.1520231910142886 1 rotate no_reflect no_shear #
lump $-1 $-1 $29 $5 #
transform $-1 1 0 0 0 1 0 0 0 1 61.15176854762413 31.057752819574468 9.1520231910142886 1 rotate no_reflect no_shear #
lump $-1 $-1 $30 $6 #
transform $-1 1 0 0 0 1 0 0 0 1 61.15176854762413 31.057752819574468 9.1520231910142886 1 rotate no_reflect no_shear #
lump $-1 $-1 $31 $7 #
transform $-1 1 0 0 0 1 0 0 0 1 61.15176854762413 31.057752819574468 9.1520231910142886 1 rotate no_reflect no_shear #
shell $-1 $-1 $-1 $32 $-1 $8 #
shell $-1 $-1 $-1 $33 $-1 $10 #
shell $-1 $-1 $-1 $34 $-1 $12 #
shell $-1 $-1 $-1 $35 $-1 $14 #
shell $-1 $-1 $-1 $36 $-1 $16 #
shell $-1 $-1 $-1 $37 $-1 $18 #
shell $-1 $-1 $-1 $38 $-1 $20 #
shell $-1 $-1 $-1 $39 $-1 $22 #
face $-1 $40 $41 $24 $-1 $42 reversed single #
face $-1 $43 $44 $25 $-1 $45 forward single #
face $-1 $46 $47 $26 $-1 $48 reversed single #
face $-1 $49 $50 $27 $-1 $51 forward single #
face $-1 $52 $53 $28 $-1 $54 forward single #
face $-1 $55 $56 $29 $-1 $57 reversed single #
face $-1 $58 $59 $30 $-1 $60 forward single #
face $-1 $61 $62 $31 $-1 $63 forward single #
face $-1 $64 $65 $24 $-1 $66 forward single #
loop $-1 $-1 $67 $32 #
plane-surface $-1 0 -31.057752819574468 0 0 1 0 0 0 1 forward_v I I I I #
face $-1 $68 $69 $25 $-1 $70 forward single #
loop $-1 $-1 $71 $33 #
plane-surface $-1 0 -31.057752819574468 0 0 1 0 0 0 1 forward_v I I I I #
face $-1 $72 $73 $26 $-1 $74 reversed single #
loop $-1 $-1 $75 $34 #
plane-surface $-1 82.230697198913305 -12.219706711031279 175.88569920503949 0 -1 0 -0.78801076186113728 0 -0.61566146476048833 forward_v I I I I #
face $-1 $76 $77 $27 $-1 $78 forward single #
loop $-1 $79 $80 $35 #
cone-surface $-1 57.85882770868313 -21.282056658415669 5.6169233391186522 -0.78801076186113728 0 -0.61566146476048833 0.61566146476048833 0 -0.78801076186113728 1 I I 0 1 1 forward I I I I #
face $-1 $81 $82 $28 $-1 $83 forward single #
loop $-1 $84 $85 $36 #
cone-surface $-1 57.85882770868313 -15.844646689985035 5.6169233391186522 -0.78801076186113728 0 -0.61566146476048833 0.61566146476048833 0 -0.78801076186113728 1 I I 0 1 1 forward I I I I #
face $-1 $86 $87 $29 $-1 $88 reversed single #
loop $-1 $-1 $89 $37 #
plane-surface $-1 -134.75587548799479 -24.906996637369428 98.969173008096462 0 1 0 -0.6018150307709319 0 0.79863550430605224 forward_v I I I I #
face $-1 $90 $91 $30 $-1 $92 forward single #
loop $-1 $93 $94 $38 #
cone-surface $-1 -55.380550710183876 -22.676592488105676 4.4838191093000486 0.6018150307709319 0 -0.79863550430605224 0.39931775215302612 0 0.30090751538546595 1 I I 0 1 0.5 forward I I I I #
face $-1 $95 $96 $31 $-1 $97 forward single #
loop $-1 $98 $99 $39 #
cone-surface $-1 -55.380550710183876 -19.330986264210058 4.4838191093000486 0.6018150307709319 0 -0.79863550430605224 0.39931775215302612 0 0.30090751538546595 1 I I 0 1 0.5 forward I I I I #
face $-1 $100 $101 $24 $-1 $102 reversed single #
loop $-1 $-1 $103 $40 #
plane-surface $-1 0 0 9.1520231910142886 0 0 1 1 0 0 forward_v I I I I #
coedge $-1 $104 $105 $106 $107 reversed $41 $-1 #
face $-1 $108 $109 $25 $-1 $110 reversed single #
loop $-1 $-1 $111 $43 #
plane-surface $-1 0 0 9.1520231910142886 0 0 1 1 0 0 forward_v I I I I #
coedge $-1 $112 $113 $114 $115 forward $44 $-1 #
face $-1 $116 $117 $26 $-1 $118 reversed single #
loop $-1 $-1 $119 $46 #
plane-surface $-1 -14.145806245825142 -18.563351674200351 100.58812441159023 0.78801076186113728 0 0.61566146476048833 0.61566146476048833 0 -0.78801076186113728 forward_v I I I I #
coedge $-1 $120 $121 $122 $123 reversed $47 $-1 #
face $-1 $-1 $124 $27 $-1 $125 forward single #
loop $-1 $126 $127 $49 #
cone-surface $-1 56.101814058926522 -21.282056658415669 4.2441938669240269 -0.78801076186113728 0 -0.61566146476048833 0.30783073238024417 0 -0.39400538093056864 1 I I -0.70710678118654746 0.70710678118654746 0.5 forward I I I I #
loop $-1 $-1 $128 $35 #
coedge $-1 $80 $80 $129 $130 reversed $50 $-1 #
face $-1 $-1 $131 $28 $-1 $132 forward single #
loop $-1 $133 $134 $52 #
cone-surface $-1 56.101814058926522 -15.844646689985035 4.2441938669240269 -0.78801076186113728 0 -0.61566146476048833 0.30783073238024417 0 -0.39400538093056864 1 I I -0.70710678118654746 0.70710678118654746 0.5 forward I I I I #
loop $-1 $-1 $135 $36 #
coedge $-1 $85 $85 $136 $137 reversed $53 $-1 #
face $-1 $138 $139 $29 $-1 $140 reversed single #
loop $-1 $-1 $141 $55 #
plane-surface $-1 -61.151768547624144 -21.003789376157869 1.2932259816189031 -0.6018150307709319 0 0.79863550430605224 0.79863550430605224 0 0.6018150307709319 forward_v I I I I #
coedge $-1 $142 $143 $144 $145 reversed $56 $-1 #
face $-1 $-1 $146 $30 $-1 $147 forward single #
loop $-1 $148 $149 $58 #
cone-surface $-1 -54.673367081996858 -22.676592488105676 3.54535475620699 0.6018150307709319 0 -0.79863550430605224 0.19965887607651306 0 0.15045375769273298 1 I I -0.70710678118654746 0.70710678118654746 0.25 forward I I I I #
loop $-1 $-1 $150 $38 #
coedge $-1 $94 $94 $151 $152 reversed $59 $-1 #
face $-1 $-1 $153 $31 $-1 $154 forward single #
loop $-1 $155 $156 $61 #
cone-surface $-1 -54.673367081996858 -19.330986264210058 3.54535475620699 0.6018150307709319 0 -0.79863550430605224 0.19965887607651306 0 0.15045375769273298 1 I I -0.70710678118654746 0.70710678118654746 0.25 forward I I I I #
loop $-1 $-1 $157 $39 #
coedge $-1 $99 $99 $158 $159 reversed $62 $-1 #
face $-1 $160 $161 $24 $-1 $162 reversed single #
loop $-1 $-1 $163 $64 #
plane-surface $-1 0 0 -9.1520231910142886 0 0 1 1 0 0 forward_v I I I I #
coedge $-1 $164 $165 $166 $167 forward $65 $-1 #
coedge $-1 $168 $67 $169 $170 reversed $41 $-1 #
coedge $-1 $67 $168 $171 $172 forward $41 $-1 #
coedge $-1 $173 $163 $67 $107 forward $101 $-1 #
edge $-1 $174 -61.15176854762413 $175 61.15176854762413 $67 $176 forward 7 unknown #
face $-1 $177 $178 $25 $-1 $179 reversed single #
loop $-1 $-1 $180 $68 #
plane-surface $-1 -61.15176854762413 0 0 1 0 0 0 0 -1 forward_v I I I I #
coedge $-1 $181 $182 $113 $183 forward $69 $-1 #
coedge $-1 $184 $71 $185 $186 reversed $44 $-1 #
coedge $-1 $71 $184 $111 $183 reversed $44 $-1 #
coedge $-1 $187 $188 $71 $115 reversed $189 $-1 #
edge $-1 $190 -9.1520231910142886 $191 9.1520231910142886 $114 $192 forward 7 unknown #
face $-1 $193 $194 $26 $-1 $195 forward single #
loop $-1 $-1 $196 $72 #
plane-surface $-1 82.230697198913305 -24.906996637369424 175.88569920503949 0 1 0 0.78801076186113728 0 0.61566146476048833 forward_v I I I I #
coedge $-1 $197 $198 $199 $200 reversed $73 $-1 #
coedge $-1 $121 $75 $201 $202 reversed $47 $-1 #
coedge $-1 $75 $120 $197 $203 reversed $47 $-1 #
coedge $-1 $199 $204 $75 $123 forward $194 $-1 #
edge $-1 $205 -20.036419948167477 $206 -16.176554807937492 $122 $207 forward 7 unknown #
loop $-1 $-1 $129 $76 #
plane-surface $-1 -14.145806245825142 -18.563351674200351 100.58812441159023 0.78801076186113728 0 0.61566146476048833 0.61566146476048833 0 -0.78801076186113728 forward_v I I I I #
loop $-1 $-1 $208 $49 #
coedge $-1 $127 $127 $128 $209 reversed $77 $-1 #
coedge $-1 $128 $128 $127 $209 forward $79 $-1 #
coedge $-1 $129 $129 $80 $130 forward $124 $-1 #
edge $-1 $210 0 $210 6.2831853071796004 $129 $211 forward 7 unknown #
loop $-1 $-1 $136 $81 #
plane-surface $-1 -14.145806245825142 -18.563351674200351 100.58812441159023 0.78801076186113728 0 0.61566146476048833 0.61566146476048833 0 -0.78801076186113728 forward_v I I I I #
loop $-1 $-1 $212 $52 #
coedge $-1 $134 $134 $135 $213 reversed $82 $-1 #
coedge $-1 $135 $135 $134 $213 forward $84 $-1 #
coedge $-1 $136 $136 $85 $137 forward $131 $-1 #
edge $-1 $214 0 $214 6.2831853071796004 $136 $215 forward 7 unknown #
face $-1 $216 $217 $29 $-1 $218 reversed single #
loop $-1 $-1 $219 $86 #
plane-surface $-1 -134.75587548799479 -17.10058211494631 98.969173008096462 0 -1 0 0.6018150307709319 0 -0.79863550430605224 forward_v I I I I #
coedge $-1 $220 $221 $222 $223 reversed $87 $-1 #
coedge $-1 $143 $89 $224 $225 reversed $56 $-1 #
coedge $-1 $89 $142 $220 $226 reversed $56 $-1 #
coedge $-1 $222 $227 $89 $145 forward $228 $-1 #
edge $-1 $229 6.226169196373263 $230 16.655145130265176 $144 $231 forward 7 unknown #
loop $-1 $-1 $151 $90 #
plane-surface $-1 -61.151768547624144 -21.003789376157869 1.2932259816189031 -0.6018150307709319 0 0.79863550430605224 0.79863550430605224 0 0.6018150307709319 forward_v I I I I #
loop $-1 $-1 $232 $58 #
coedge $-1 $149 $149 $150 $233 reversed $91 $-1 #
coedge $-1 $150 $150 $149 $233 forward $93 $-1 #
coedge $-1 $151 $151 $94 $152 forward $146 $-1 #
edge $-1 $234 0 $234 6.2831853071796004 $151 $235 forward 7 unknown #
loop $-1 $-1 $158 $95 #
plane-surface $-1 -61.151768547624144 -21.003789376157869 1.2932259816189031 -0.6018150307709319 0 0.79863550430605224 0.79863550430605224 0 0.6018150307709319 forward_v I I I I #
loop $-1 $-1 $236 $61 #
coedge $-1 $156 $156 $157 $237 reversed $96 $-1 #
coedge $-1 $157 $157 $156 $237 forward $98 $-1 #
coedge $-1 $158 $158 $99 $159 forward $153 $-1 #
edge $-1 $238 0 $238 6.2831853071796004 $158 $239 forward 7 unknown #
face $-1 $240 $241 $24 $-1 $242 reversed single #
loop $-1 $-1 $243 $100 #
plane-surface $-1 -61.15176854762413 0 0 1 0 0 0 0 -1 forward_v I I I I #
coedge $-1 $106 $244 $245 $246 forward $101 $-1 #
coedge $-1 $247 $103 $248 $249 forward $65 $-1 #
coedge $-1 $103 $247 $168 $250 forward $65 $-1 #
coedge $-1 $169 $251 $103 $167 reversed $252 $-1 #
edge $-1 $253 -31.057752819574468 $254 31.057752819574468 $166 $255 forward 7 unknown #
coedge $-1 $105 $104 $165 $250 reversed $41 $-1 #
coedge $-1 $245 $166 $104 $170 forward $252 $-1 #
edge $-1 $253 -9.1520231910142886 $174 9.1520231910142886 $169 $256 forward 7 unknown #
coedge $-1 $257 $258 $105 $172 reversed $161 $-1 #
edge $-1 $259 -9.1520231910142886 $175 9.1520231910142886 $171 $260 forward 7 unknown #
coedge $-1 $244 $106 $258 $261 forward $101 $-1 #
vertex $-1 $170 $262 #
vertex $-1 $261 $263 #
straight-curve $-1 0 -31.057752819574468 -9.1520231910142886 -1 0 0 I I #
face $-1 $264 $189 $25 $-1 $265 reversed single #
loop $-1 $-1 $266 $108 #
plane-surface $-1 -59.238549648850096 -37.208509001779511 0 0 1 0 0 0 1 forward_v I I I I #
coedge $-1 $267 $268 $184 $269 forward $109 $-1 #
coedge $-1 $270 $111 $268 $271 forward $69 $-1 #
coedge $-1 $111 $270 $187 $272 forward $69 $-1 #
edge $-1 $190 57.325330750076063 $273 61.15176854762413 $111 $274 forward 7 unknown #
coedge $-1 $113 $112 $180 $269 reversed $44 $-1 #
coedge $-1 $275 $276 $112 $186 forward $277 $-1 #
edge $-1 $278 -61.15176854762413 $191 -57.325330750076063 $185 $279 forward 7 unknown #
coedge $-1 $280 $114 $182 $272 reversed $189 $-1 #
coedge $-1 $114 $280 $275 $281 reversed $189 $-1 #
loop $-1 $-1 $280 $177 #
vertex $-1 $183 $282 #
vertex $-1 $281 $283 #
straight-curve $-1 -57.325330750076063 -31.057752819574468 0 0 0 -1 I I #
face $-1 $-1 $284 $26 $-1 $285 reversed single #
loop $-1 $-1 $122 $116 #
plane-surface $-1 0 0 9.1520231910142886 0 0 1 1 0 0 forward_v I I I I #
coedge $-1 $286 $287 $288 $289 reversed $117 $-1 #
coedge $-1 $290 $119 $121 $203 forward $73 $-1 #
coedge $-1 $119 $290 $286 $291 forward $73 $-1 #
coedge $-1 $288 $122 $119 $200 forward $194 $-1 #
edge $-1 $206 2.938030873931103 $292 15.625320800269249 $199 $293 forward 7 unknown #
coedge $-1 $294 $295 $120 $202 forward $284 $-1 #
edge $-1 $296 -83.731228635667975 $205 -78.790826411505449 $201 $297 forward 7 unknown #
edge $-1 $206 116.03407674867357 $296 122.30353709524829 $121 $298 forward 7 unknown #
coedge $-1 $122 $288 $294 $299 forward $194 $-1 #
vertex $-1 $202 $300 #
vertex $-1 $123 $301 #
straight-curve $-1 41.115348599456652 -12.219706711031279 9.152023191014294 -1 0 0 I I #
coedge $-1 $208 $208 $-1 $302 reversed $126 $-1 #
edge $-1 $303 0 $303 6.2831853071796004 $127 $304 forward 7 unknown #
vertex $-1 $130 $305 #
ellipse-curve $-1 59.221835977509144 -21.282056658415669 6.6818220789330161 0.78801076186113728 0 0.61566146476048833 0.61566146476048833 0 -0.78801076186113728 1 I I #
coedge $-1 $212 $212 $-1 $306 reversed $133 $-1 #
edge $-1 $307 0 $307 6.2831853071796004 $134 $308 forward 7 unknown #
vertex $-1 $137 $309 #
ellipse-curve $-1 59.221835977509144 -15.844646689985035 6.6818220789330161 0.78801076186113728 0 0.61566146476048833 0.61566146476048833 0 -0.78801076186113728 1 I I #
face $-1 $-1 $228 $29 $-1 $310 forward single #
loop $-1 $-1 $311 $138 #
plane-surface $-1 -61.15176854762413 0 0 1 0 0 0 0 -1 forward_v I I I I #
coedge $-1 $312 $313 $314 $315 reversed $139 $-1 #
coedge $-1 $316 $141 $143 $226 forward $87 $-1 #
coedge $-1 $141 $316 $312 $317 forward $87 $-1 #
coedge $-1 $314 $144 $141 $223 forward $228 $-1 #
edge $-1 $230 -14.405101949290493 $318 -6.5986874268673752 $222 $319 forward 7 unknown #
coedge $-1 $320 $321 $142 $225 forward $217 $-1 #
edge $-1 $322 -48.191360522429321 $229 -40.332563313033944 $224 $323 forward 7 unknown #
edge $-1 $230 -13.058492738754259 $322 -1.7763522597878294e-014 $143 $324 forward 7 unknown #
coedge $-1 $144 $314 $320 $325 forward $228 $-1 #
loop $-1 $-1 $314 $216 #
vertex $-1 $225 $326 #
vertex $-1 $145 $327 #
straight-curve $-1 -67.377937743997393 -24.906996637369428 9.1520231910142869 1 0 0 I I #
coedge $-1 $232 $232 $-1 $328 reversed $148 $-1 #
edge $-1 $329 0 $329 6.2831853071796004 $149 $330 forward 7 unknown #
vertex $-1 $152 $331 #
ellipse-curve $-1 -55.93728058067817 -22.676592488105676 5.2226245863166048 -0.6018150307709319 0 0.79863550430605224 0.39931775215302612 0 0.30090751538546595 1 I I #
coedge $-1 $236 $236 $-1 $332 reversed $155 $-1 #
edge $-1 $333 0 $333 6.2831853071796004 $156 $334 forward 7 unknown #
vertex $-1 $159 $335 #
ellipse-curve $-1 -55.93728058067817 -19.330986264210058 5.2226245863166048 -0.6018150307709319 0 0.79863550430605224 0.39931775215302612 0 0.30090751538546595 1 I I #
face $-1 $-1 $252 $24 $-1 $336 reversed single #
loop $-1 $-1 $337 $160 #
plane-surface $-1 0 31.057752819574468 0 0 -1 0 0 0 -1 forward_v I I I I #
coedge $-1 $258 $257 $338 $339 forward $161 $-1 #
coedge $-1 $163 $173 $340 $341 forward $101 $-1 #
coedge $-1 $251 $169 $163 $246 reversed $252 $-1 #
edge $-1 $342 -31.057752819574468 $174 31.057752819574468 $245 $343 forward 7 unknown #
coedge $-1 $165 $164 $257 $344 forward $65 $-1 #
coedge $-1 $337 $338 $164 $249 reversed $241 $-1 #
edge $-1 $254 -61.15176854762413 $345 61.15176854762413 $248 $346 forward 7 unknown #
edge $-1 $259 -61.15176854762413 $253 61.15176854762413 $168 $347 forward 7 unknown #
coedge $-1 $166 $245 $337 $348 reversed $252 $-1 #
loop $-1 $-1 $169 $240 #
vertex $-1 $167 $349 #
vertex $-1 $167 $350 #
straight-curve $-1 61.15176854762413 0 9.1520231910142886 0 1 0 I I #
straight-curve $-1 61.15176854762413 -31.057752819574468 0 0 0 -1 I I #
coedge $-1 $243 $171 $247 $344 reversed $161 $-1 #
coedge $-1 $171 $243 $173 $261 reversed $161 $-1 #
vertex $-1 $344 $351 #
straight-curve $-1 -61.15176854762413 -31.057752819574468 0 0 0 -1 I I #
edge $-1 $175 -31.057752819574468 $352 31.057752819574468 $258 $353 forward 7 unknown #
point $-1 61.15176854762413 -31.057752819574468 -9.1520231910142886 #
point $-1 -61.15176854762413 -31.057752819574468 -9.1520231910142886 #
face $-1 $-1 $277 $25 $-1 $354 reversed single #
plane-surface $-1 -57.325330750076063 -34.133130910676989 0 -1 0 0 0 0 1 forward_v I I I I #
coedge $-1 $355 $356 $357 $358 forward $178 $-1 #
coedge $-1 $357 $180 $276 $359 reversed $109 $-1 #
coedge $-1 $180 $357 $181 $271 reversed $109 $-1 #
edge $-1 $273 -9.1520231910142886 $278 9.1520231910142886 $180 $360 forward 7 unknown #
coedge $-1 $182 $181 $356 $361 forward $69 $-1 #
edge $-1 $273 31.057752819574468 $362 37.208509001779511 $268 $363 forward 7 unknown #
edge $-1 $364 -3.0753780911025217 $190 3.0753780911025217 $187 $365 forward 7 unknown #
vertex $-1 $271 $366 #
straight-curve $-1 0 -31.057752819574468 9.1520231910142886 -1 0 0 I I #
coedge $-1 $367 $185 $188 $281 forward $277 $-1 #
coedge $-1 $185 $367 $267 $359 forward $277 $-1 #
loop $-1 $-1 $185 $264 #
vertex $-1 $269 $368 #
straight-curve $-1 0 -31.057752819574468 -9.1520231910142886 1 0 0 I I #
coedge $-1 $188 $187 $369 $370 forward $189 $-1 #
edge $-1 $191 -3.0753780911025217 $371 3.0753780911025217 $188 $372 forward 7 unknown #
point $-1 -57.325330750076063 -31.057752819574468 9.1520231910142886 #
point $-1 -57.325330750076063 -31.057752819574468 -9.1520231910142886 #
loop $-1 $-1 $201 $193 #
plane-surface $-1 61.15176854762413 0 0 -1 0 0 0 0 1 forward_v I I I I #
coedge $-1 $287 $196 $198 $291 reversed $117 $-1 #
coedge $-1 $196 $286 $373 $374 reversed $117 $-1 #
coedge $-1 $204 $199 $196 $289 forward $194 $-1 #
edge $-1 $292 16.176554807937492 $375 20.036419948167477 $288 $376 forward 7 unknown #
coedge $-1 $198 $197 $295 $377 reversed $73 $-1 #
edge $-1 $378 -122.30353709524829 $292 -116.03407674867357 $286 $379 forward 7 unknown #
vertex $-1 $200 $380 #
straight-curve $-1 57.291903407394152 -9.2816758371001757 9.152023191014294 0 -1 0 I I #
coedge $-1 $373 $201 $204 $299 reversed $284 $-1 #
coedge $-1 $201 $373 $290 $377 forward $284 $-1 #
vertex $-1 $202 $381 #
straight-curve $-1 61.15176854762413 -12.219706711031279 87.942849602519743 0 0 1 I I #
straight-curve $-1 -14.145806245825142 -12.219706711031279 100.58812441159023 0.61566146476048833 0 -0.78801076186113728 I I #
edge $-1 $375 -24.906996637369424 $205 -12.219706711031279 $294 $382 forward 7 unknown #
point $-1 61.15176854762413 -12.219706711031279 9.1520231910142886 #
point $-1 57.291903407394145 -12.219706711031279 9.152023191014294 #
edge $-1 $383 1 $383 0 $208 $-1 forward 7 unknown #
vertex $-1 $209 $384 #
ellipse-curve $-1 56.495819439857087 -21.282056658415669 4.5520245993042714 0.78801076186113728 0 0.61566146476048833 0.61566146476048833 0 -0.78801076186113728 1 I I #
point $-1 59.837497442269651 -21.282056658415669 5.8938113170718962 #
edge $-1 $385 1 $385 0 $212 $-1 forward 7 unknown #
vertex $-1 $213 $386 #
ellipse-curve $-1 56.495819439857087 -15.844646689985035 4.5520245993042714 0.78801076186113728 0 0.61566146476048833 0.61566146476048833 0 -0.78801076186113728 1 I I #
point $-1 59.837497442269651 -15.844646689985035 5.8938113170718962 #
plane-surface $-1 0 0 9.1520231910142886 0 0 1 1 0 0 forward_v I I I I #
coedge $-1 $321 $320 $313 $387 forward $217 $-1 #
coedge $-1 $313 $219 $221 $317 reversed $139 $-1 #
coedge $-1 $219 $312 $311 $387 reversed $139 $-1 #
coedge $-1 $227 $222 $219 $315 forward $228 $-1 #
edge $-1 $318 -16.655145130265176 $388 -6.226169196373263 $314 $389 forward 7 unknown #
coedge $-1 $221 $220 $321 $390 reversed $87 $-1 #
edge $-1 $391 1.7763522597878294e-014 $318 13.058492738754259 $312 $392 forward 7 unknown #
vertex $-1 $223 $393 #
straight-curve $-1 -50.722792613732217 -10.501894688078934 9.1520231910142869 0 1 0 I I #
coedge $-1 $311 $224 $227 $325 reversed $217 $-1 #
coedge $-1 $224 $311 $316 $390 forward $217 $-1 #
vertex $-1 $225 $394 #
straight-curve $-1 -61.15176854762413 -24.906996637369428 49.484586504048231 0 0 1 I I #
straight-curve $-1 -61.151768547624144 -24.906996637369428 1.2932259816189031 -0.79863550430605224 0 -0.6018150307709319 I I #
edge $-1 $388 17.10058211494631 $229 24.906996637369428 $320 $395 forward 7 unknown #
point $-1 -61.15176854762413 -24.906996637369428 9.1520231910142886 #
point $-1 -50.722792613732217 -24.906996637369428 9.1520231910142886 #
edge $-1 $396 1 $396 0 $232 $-1 forward 7 unknown #
vertex $-1 $233 $397 #
ellipse-curve $-1 -54.823820839689589 -22.676592488105676 3.745013632283503 -0.6018150307709319 0 0.79863550430605224 0.39931775215302612 0 0.30090751538546595 1 I I #
point $-1 -55.537962828525131 -22.676592488105676 5.5235321017020595 #
edge $-1 $398 1 $398 0 $236 $-1 forward 7 unknown #
vertex $-1 $237 $399 #
ellipse-curve $-1 -54.823820839689589 -19.330986264210058 3.745013632283503 -0.6018150307709319 0 0.79863550430605224 0.39931775215302612 0 0.30090751538546595 1 I I #
point $-1 -55.537962828525131 -19.330986264210058 5.5235321017020595 #
plane-surface $-1 61.15176854762413 0 0 -1 0 0 0 0 1 forward_v I I I I #
coedge $-1 $340 $248 $251 $348 forward $241 $-1 #
coedge $-1 $248 $340 $243 $339 reversed $241 $-1 #
edge $-1 $345 -9.1520231910142886 $352 9.1520231910142886 $338 $400 forward 7 unknown #
coedge $-1 $338 $337 $244 $341 reversed $241 $-1 #
edge $-1 $352 -61.15176854762413 $342 61.15176854762413 $340 $401 forward 7 unknown #
vertex $-1 $246 $402 #
straight-curve $-1 61.15176854762413 0 -9.1520231910142886 0 -1 0 I I #
edge $-1 $345 -31.057752819574468 $259 31.057752819574468 $257 $403 forward 7 unknown #
vertex $-1 $249 $404 #
straight-curve $-1 0 31.057752819574468 9.1520231910142886 -1 0 0 I I #
straight-curve $-1 0 -31.057752819574468 9.1520231910142886 1 0 0 I I #
edge $-1 $254 -9.1520231910142886 $342 9.1520231910142886 $251 $405 forward 7 unknown #
point $-1 61.15176854762413 -31.057752819574468 9.1520231910142886 #
point $-1 61.15176854762413 31.057752819574468 9.1520231910142886 #
point $-1 -61.15176854762413 -31.057752819574468 9.1520231910142886 #
vertex $-1 $341 $406 #
straight-curve $-1 -61.15176854762413 0 -9.1520231910142886 0 1 0 I I #
plane-surface $-1 0 0 -9.1520231910142886 0 0 1 1 0 0 forward_v I I I I #
coedge $-1 $369 $266 $367 $407 reversed $178 $-1 #
coedge $-1 $266 $369 $270 $361 reversed $178 $-1 #
coedge $-1 $268 $267 $266 $358 reversed $109 $-1 #
edge $-1 $362 -9.1520231910142886 $408 9.1520231910142886 $357 $409 forward 7 unknown #
edge $-1 $408 -37.208509001779511 $278 -31.057752819574468 $267 $410 forward 7 unknown #
straight-curve $-1 -61.15176854762413 -31.057752819574468 0 0 0 -1 I I #
edge $-1 $362 -1.9132188987740335 $364 1.9132188987740335 $356 $411 forward 7 unknown #
vertex $-1 $271 $412 #
straight-curve $-1 -61.15176854762413 0 9.1520231910142886 0 -1 0 I I #
vertex $-1 $272 $413 #
straight-curve $-1 -57.325330750076063 -34.133130910676989 9.1520231910142886 0 1 0 I I #
point $-1 -61.15176854762413 -31.057752819574468 9.1520231910142886 #
coedge $-1 $276 $275 $355 $407 forward $277 $-1 #
point $-1 -61.15176854762413 -31.057752819574468 -9.1520231910142886 #
coedge $-1 $356 $355 $280 $370 reversed $178 $-1 #
edge $-1 $364 -9.1520231910142886 $371 9.1520231910142886 $280 $414 forward 7 unknown #
vertex $-1 $370 $415 #
straight-curve $-1 -57.325330750076063 -34.133130910676989 -9.1520231910142886 0 -1 0 I I #
coedge $-1 $295 $294 $287 $374 forward $284 $-1 #
edge $-1 $375 78.790826411505449 $378 83.731228635667975 $373 $416 forward 7 unknown #
vertex $-1 $299 $417 #
straight-curve $-1 41.115348599456652 -24.906996637369424 9.152023191014294 1 0 0 I I #
edge $-1 $378 -15.625320800269249 $296 -2.938030873931103 $295 $418 forward 7 unknown #
vertex $-1 $377 $419 #
straight-curve $-1 -14.145806245825142 -24.906996637369424 100.58812441159023 -0.61566146476048833 0 0.78801076186113728 I I #
point $-1 57.291903407394145 -24.906996637369424 9.152023191014294 #
point $-1 61.15176854762413 -12.219706711031279 4.2116209668517683 #
straight-curve $-1 61.15176854762413 0 9.1520231910142886 0 1 0 I I #
vertex $-1 $302 $420 #
point $-1 57.111480904617579 -21.282056658415669 3.7640138374431338 #
vertex $-1 $306 $421 #
point $-1 57.111480904617579 -15.844646689985035 3.7640138374431338 #
edge $-1 $388 40.332563313033944 $391 48.191360522429321 $311 $422 forward 7 unknown #
vertex $-1 $325 $423 #
straight-curve $-1 -67.377937743997393 -17.10058211494631 9.1520231910142869 -1 0 0 I I #
edge $-1 $391 6.5986874268673752 $322 14.405101949290493 $321 $424 forward 7 unknown #
vertex $-1 $390 $425 #
straight-curve $-1 -61.151768547624144 -17.10058211494631 1.2932259816189031 0.79863550430605224 0 0.6018150307709319 I I #
point $-1 -50.722792613732217 -17.10058211494631 9.1520231910142886 #
point $-1 -61.15176854762413 -24.906996637369428 1.2932259816189138 #
straight-curve $-1 -61.15176854762413 0 9.1520231910142886 0 -1 0 I I #
vertex $-1 $328 $426 #
point $-1 -54.424503087536564 -22.676592488105676 4.0459211476689694 #
vertex $-1 $332 $427 #
point $-1 -54.424503087536564 -19.330986264210058 4.0459211476689694 #
straight-curve $-1 -61.15176854762413 31.057752819574468 0 0 0 -1 I I #
straight-curve $-1 0 31.057752819574468 -9.1520231910142886 1 0 0 I I #
point $-1 61.15176854762413 31.057752819574468 -9.1520231910142886 #
straight-curve $-1 -61.15176854762413 0 9.1520231910142886 0 -1 0 I I #
point $-1 -61.15176854762413 31.057752819574468 9.1520231910142886 #
straight-curve $-1 61.15176854762413 31.057752819574468 0 0 0 -1 I I #
point $-1 -61.15176854762413 31.057752819574468 -9.1520231910142886 #
edge $-1 $371 -1.9132188987740335 $408 1.9132188987740335 $355 $428 forward 7 unknown #
vertex $-1 $359 $429 #
straight-curve $-1 -61.15176854762413 -37.208509001779511 0 0 0 -1 I I #
straight-curve $-1 -61.15176854762413 0 -9.1520231910142886 0 1 0 I I #
straight-curve $-1 -59.238549648850096 -37.208509001779511 9.1520231910142886 1 0 0 I I #
point $-1 -61.15176854762413 -37.208509001779511 9.1520231910142886 #
point $-1 -57.325330750076063 -37.208509001779511 9.1520231910142886 #
straight-curve $-1 -57.325330750076063 -37.208509001779511 0 0 0 -1 I I #
point $-1 -57.325330750076063 -37.208509001779511 -9.1520231910142886 #
straight-curve $-1 61.15176854762413 -24.906996637369424 87.942849602519743 0 0 -1 I I #
point $-1 61.15176854762413 -24.906996637369424 9.1520231910142886 #
straight-curve $-1 61.151768547624137 -9.2816758371001757 4.2116209668517683 0 1 0 I I #
point $-1 61.15176854762413 -24.906996637369424 4.2116209668517683 #
point $-1 55.707808677995956 -21.282056658415669 3.9363631345437828 #
point $-1 55.707808677995956 -15.844646689985035 3.9363631345437828 #
straight-curve $-1 -61.15176854762413 -17.10058211494631 49.484586504048231 0 0 -1 I I #
point $-1 -61.15176854762413 -17.10058211494631 9.1520231910142886 #
straight-curve $-1 -61.15176854762413 -10.501894688078934 1.2932259816189122 0 -1 0 I I #
point $-1 -61.15176854762413 -17.10058211494631 1.2932259816189138 #
point $-1 -54.522913324304128 -22.676592488105676 3.345695880130477 #
point $-1 -54.522913324304128 -19.330986264210058 3.345695880130477 #
straight-curve $-1 -59.238549648850096 -37.208509001779511 -9.1520231910142886 -1 0 0 I I #
point $-1 -61.15176854762413 -37.208509001779511 -9.1520231910142886 #
End-of-ACIS-data 