500 0 6 0           
7 Unknown 11 ACIS 5.0 NT 24 Thu Mar 25 20:14:35 1999 
-1 9.9999999999999995e-007 1e-010 
body $-1 $6 $-1 $7 #
body $-1 $8 $-1 $9 #
body $-1 $10 $-1 $11 #
body $-1 $12 $-1 $13 #
body $-1 $14 $-1 $15 #
body $-1 $16 $-1 $17 #
lump $-1 $-1 $18 $0 #
transform $-1 1 0 0 0 1 0 0 0 1 43.016449476607562 29.331712668565785 9.2795881895632899 1 rotate no_reflect no_shear #
lump $-1 $-1 $19 $1 #
transform $-1 1 0 0 0 1 0 0 0 1 43.016449476607562 29.331712668565785 9.2795881895632899 1 rotate no_reflect no_shear #
lump $-1 $-1 $20 $2 #
transform $-1 1 0 0 0 1 0 0 0 1 43.016449476607562 29.331712668565785 9.2795881895632899 1 rotate no_reflect no_shear #
lump $-1 $-1 $21 $3 #
transform $-1 1 0 0 0 1 0 0 0 1 43.016449476607562 29.331712668565785 9.2795881895632899 1 rotate no_reflect no_shear #
lump $-1 $-1 $22 $4 #
transform $-1 1 0 0 0 1 0 0 0 1 43.016449476607562 29.331712668565785 9.2795881895632899 1 rotate no_reflect no_shear #
lump $-1 $-1 $23 $5 #
transform $-1 1 0 0 0 1 0 0 0 1 43.016449476607562 29.331712668565785 9.2795881895632899 1 rotate no_reflect no_shear #
shell $-1 $-1 $-1 $24 $-1 $6 #
shell $-1 $-1 $-1 $25 $-1 $8 #
shell $-1 $-1 $-1 $26 $-1 $10 #
shell $-1 $-1 $-1 $27 $-1 $12 #
shell $-1 $-1 $-1 $28 $-1 $14 #
shell $-1 $-1 $-1 $29 $-1 $16 #
face $-1 $30 $31 $18 $-1 $32 forward single #
face $-1 $33 $34 $19 $-1 $35 forward single #
face $-1 $36 $37 $20 $-1 $38 reversed single #
face $-1 $39 $40 $21 $-1 $41 forward single #
face $-1 $42 $43 $22 $-1 $44 forward single #
face $-1 $45 $46 $23 $-1 $47 forward single #
face $-1 $48 $49 $18 $-1 $50 reversed single #
loop $-1 $-1 $51 $24 #
plane-surface $-1 0 0 9.2795881895632899 0 0 1 1 0 0 forward_v I I I I #
face $-1 $52 $53 $19 $-1 $54 reversed single #
loop $-1 $-1 $55 $25 #
plane-surface $-1 0 -29.331712668565785 0 0 1 0 0 0 1 forward_v I I I I #
face $-1 $56 $57 $20 $-1 $58 reversed single #
loop $-1 $-1 $59 $26 #
plane-surface $-1 -109.87657016248113 9.9551771600221564 56.290199005268498 0 1 0 -0.77714596973225614 0 0.62932038083071107 forward_v I I I I #
face $-1 $60 $61 $21 $-1 $62 forward single #
loop $-1 $63 $64 $27 #
cone-surface $-1 -39.604346722546993 11.311255842179612 5.288987898043457 0.77714596973225614 0 -0.62932038083071107 0.31466019041535553 0 0.38857298486612807 1 I I 0 1 0.5 forward I I I I #
face $-1 $65 $66 $22 $-1 $67 forward single #
loop $-1 $68 $69 $28 #
cone-surface $-1 -39.604346722546993 13.345373865415787 5.288987898043457 0.77714596973225614 0 -0.62932038083071107 0.31466019041535553 0 0.38857298486612807 1 I I 0 1 0.5 forward I I I I #
face $-1 $70 $71 $23 $-1 $72 forward single #
loop $-1 $73 $74 $29 #
cone-surface $-1 -39.604346722546993 15.379491888651962 5.288987898043457 0.77714596973225614 0 -0.62932038083071107 0.31466019041535553 0 0.38857298486612807 1 I I 0 1 0.5 forward I I I I #
face $-1 $75 $76 $18 $-1 $77 reversed single #
loop $-1 $-1 $78 $30 #
plane-surface $-1 0 0 -9.2795881895632899 0 0 1 1 0 0 forward_v I I I I #
coedge $-1 $79 $80 $81 $82 forward $31 $-1 #
face $-1 $83 $84 $19 $-1 $85 reversed single #
loop $-1 $-1 $86 $33 #
plane-surface $-1 0 0 -9.2795881895632899 0 0 1 1 0 0 forward_v I I I I #
coedge $-1 $87 $88 $89 $90 forward $34 $-1 #
face $-1 $91 $92 $20 $-1 $93 reversed single #
loop $-1 $-1 $94 $36 #
plane-surface $-1 -43.016449476607562 13.34537386541578 2.1479422720610728 -0.77714596973225614 0 0.62932038083071107 0.62932038083071107 0 0.77714596973225614 forward_v I I I I #
coedge $-1 $95 $96 $97 $98 reversed $37 $-1 #
face $-1 $-1 $99 $21 $-1 $100 forward single #
loop $-1 $101 $102 $39 #
cone-surface $-1 -38.885503895613724 11.311255842179612 4.7068804700670537 0.77714596973225614 0 -0.62932038083071107 0.15733009520767777 0 0.19428649243306403 1 I I -0.70710678118654746 0.70710678118654746 0.25 forward I I I I #
loop $-1 $-1 $103 $27 #
coedge $-1 $64 $64 $104 $105 reversed $40 $-1 #
face $-1 $-1 $106 $22 $-1 $107 forward single #
loop $-1 $108 $109 $42 #
cone-surface $-1 -38.885503895613724 13.345373865415787 4.7068804700670537 0.77714596973225614 0 -0.62932038083071107 0.15733009520767777 0 0.19428649243306403 1 I I -0.70710678118654746 0.70710678118654746 0.25 forward I I I I #
loop $-1 $-1 $110 $28 #
coedge $-1 $69 $69 $111 $112 reversed $43 $-1 #
face $-1 $-1 $113 $23 $-1 $114 forward single #
loop $-1 $115 $116 $45 #
cone-surface $-1 -38.885503895613724 15.379491888651962 4.7068804700670537 0.77714596973225614 0 -0.62932038083071107 0.15733009520767777 0 0.19428649243306403 1 I I -0.70710678118654746 0.70710678118654746 0.25 forward I I I I #
loop $-1 $-1 $117 $29 #
coedge $-1 $74 $74 $118 $119 reversed $46 $-1 #
face $-1 $120 $121 $18 $-1 $122 reversed single #
loop $-1 $-1 $123 $48 #
plane-surface $-1 0 -29.331712668565785 0 0 1 0 0 0 1 forward_v I I I I #
coedge $-1 $124 $125 $126 $127 forward $49 $-1 #
coedge $-1 $128 $51 $129 $130 forward $31 $-1 #
coedge $-1 $51 $128 $131 $132 forward $31 $-1 #
coedge $-1 $133 $134 $51 $82 reversed $135 $-1 #
edge $-1 $136 -29.331712668565785 $137 29.331712668565785 $81 $138 forward 7 unknown #
face $-1 $139 $140 $19 $-1 $141 reversed single #
loop $-1 $-1 $142 $52 #
plane-surface $-1 -30.648040735189284 -37.875996791014416 0 0 1 0 0 0 1 forward_v I I I I #
coedge $-1 $143 $144 $88 $145 forward $53 $-1 #
coedge $-1 $146 $55 $147 $148 reversed $34 $-1 #
coedge $-1 $55 $146 $86 $145 reversed $34 $-1 #
coedge $-1 $149 $150 $55 $90 reversed $140 $-1 #
edge $-1 $151 -9.2795881895632899 $152 9.2795881895632899 $89 $153 forward 7 unknown #
face $-1 $154 $155 $20 $-1 $156 reversed single #
loop $-1 $-1 $157 $56 #
plane-surface $-1 -109.87657016248113 16.735570570809404 56.290199005268498 0 -1 0 0.77714596973225614 0 -0.62932038083071107 forward_v I I I I #
coedge $-1 $158 $159 $160 $161 reversed $57 $-1 #
coedge $-1 $96 $59 $162 $163 reversed $37 $-1 #
coedge $-1 $59 $95 $158 $164 reversed $37 $-1 #
coedge $-1 $160 $165 $59 $98 forward $166 $-1 #
edge $-1 $167 11.921835604633003 $168 17.696928443753727 $97 $169 forward 7 unknown #
loop $-1 $-1 $104 $60 #
plane-surface $-1 -43.016449476607562 13.34537386541578 2.1479422720610728 -0.77714596973225614 0 0.62932038083071107 0.62932038083071107 0 0.77714596973225614 forward_v I I I I #
loop $-1 $-1 $170 $39 #
coedge $-1 $102 $102 $103 $171 reversed $61 $-1 #
coedge $-1 $103 $103 $102 $171 forward $63 $-1 #
coedge $-1 $104 $104 $64 $105 forward $99 $-1 #
edge $-1 $172 0 $172 6.2831853071796004 $104 $173 forward 7 unknown #
loop $-1 $-1 $111 $65 #
plane-surface $-1 -43.016449476607562 13.34537386541578 2.1479422720610728 -0.77714596973225614 0 0.62932038083071107 0.62932038083071107 0 0.77714596973225614 forward_v I I I I #
loop $-1 $-1 $174 $42 #
coedge $-1 $109 $109 $110 $175 reversed $66 $-1 #
coedge $-1 $110 $110 $109 $175 forward $68 $-1 #
coedge $-1 $111 $111 $69 $112 forward $106 $-1 #
edge $-1 $176 0 $176 6.2831853071796004 $111 $177 forward 7 unknown #
loop $-1 $-1 $118 $70 #
plane-surface $-1 -43.016449476607562 13.34537386541578 2.1479422720610728 -0.77714596973225614 0 0.62932038083071107 0.62932038083071107 0 0.77714596973225614 forward_v I I I I #
loop $-1 $-1 $178 $45 #
coedge $-1 $116 $116 $117 $179 reversed $71 $-1 #
coedge $-1 $117 $117 $116 $179 forward $73 $-1 #
coedge $-1 $118 $118 $74 $119 forward $113 $-1 #
edge $-1 $180 0 $180 6.2831853071796004 $118 $181 forward 7 unknown #
face $-1 $182 $183 $18 $-1 $184 reversed single #
loop $-1 $-1 $185 $75 #
plane-surface $-1 -43.016449476607562 0 0 1 0 0 0 0 -1 forward_v I I I I #
coedge $-1 $186 $131 $187 $188 forward $76 $-1 #
coedge $-1 $189 $78 $186 $190 forward $49 $-1 #
coedge $-1 $78 $189 $191 $192 forward $49 $-1 #
coedge $-1 $134 $133 $78 $127 reversed $135 $-1 #
edge $-1 $193 -29.331712668565785 $194 29.331712668565785 $126 $195 forward 7 unknown #
coedge $-1 $80 $79 $196 $197 forward $31 $-1 #
coedge $-1 $198 $199 $79 $130 reversed $183 $-1 #
edge $-1 $137 -43.016449476607562 $200 43.016449476607562 $129 $201 forward 7 unknown #
coedge $-1 $123 $202 $80 $132 reversed $76 $-1 #
edge $-1 $203 -43.016449476607562 $136 43.016449476607562 $131 $204 forward 7 unknown #
coedge $-1 $126 $81 $202 $205 forward $135 $-1 #
coedge $-1 $81 $126 $198 $206 reversed $135 $-1 #
loop $-1 $-1 $133 $182 #
vertex $-1 $82 $207 #
vertex $-1 $82 $208 #
straight-curve $-1 43.016449476607562 0 9.2795881895632899 0 1 0 I I #
face $-1 $209 $210 $19 $-1 $211 reversed single #
loop $-1 $-1 $89 $83 #
plane-surface $-1 -32.716272813414321 -33.6038547297901 0 1 0 0 0 0 -1 forward_v I I I I #
coedge $-1 $212 $213 $214 $215 forward $84 $-1 #
coedge $-1 $216 $86 $217 $218 forward $53 $-1 #
coedge $-1 $86 $216 $149 $219 forward $53 $-1 #
edge $-1 $151 -32.716272813414321 $220 -28.57980865696425 $86 $221 forward 7 unknown #
coedge $-1 $88 $87 $222 $223 forward $34 $-1 #
coedge $-1 $224 $225 $87 $148 forward $226 $-1 #
edge $-1 $227 28.57980865696425 $152 32.716272813414321 $147 $228 forward 7 unknown #
coedge $-1 $214 $89 $144 $219 reversed $140 $-1 #
coedge $-1 $89 $214 $224 $229 reversed $140 $-1 #
vertex $-1 $145 $230 #
vertex $-1 $229 $231 #
straight-curve $-1 -32.716272813414321 -29.331712668565785 0 0 0 1 I I #
face $-1 $-1 $166 $20 $-1 $232 forward single #
loop $-1 $-1 $233 $91 #
plane-surface $-1 -43.016449476607562 0 0 1 0 0 0 0 -1 forward_v I I I I #
coedge $-1 $234 $235 $236 $237 reversed $92 $-1 #
coedge $-1 $238 $94 $96 $164 forward $57 $-1 #
coedge $-1 $94 $238 $234 $239 forward $57 $-1 #
coedge $-1 $236 $97 $94 $161 forward $166 $-1 #
edge $-1 $168 3.2824902273142662 $240 10.062883638101514 $160 $241 forward 7 unknown #
coedge $-1 $242 $243 $95 $163 forward $155 $-1 #
edge $-1 $244 -25.997157230573176 $167 -18.865511313070961 $162 $245 forward 7 unknown #
edge $-1 $168 -9.1767135071925132 $244 0 $96 $246 forward 7 unknown #
coedge $-1 $97 $236 $242 $247 forward $166 $-1 #
loop $-1 $-1 $236 $154 #
vertex $-1 $163 $248 #
vertex $-1 $98 $249 #
straight-curve $-1 -54.938285081240565 9.9551771600221564 9.2795881895632917 1 0 0 I I #
coedge $-1 $170 $170 $-1 $250 reversed $101 $-1 #
edge $-1 $251 0 $251 6.2831853071796004 $102 $252 forward 7 unknown #
vertex $-1 $105 $253 #
ellipse-curve $-1 -40.128903057047197 11.311255842179612 5.7137652308121822 -0.77714596973225614 0 0.62932038083071107 0.31466019041535553 0 0.38857298486612807 1 I I #
coedge $-1 $174 $174 $-1 $254 reversed $108 $-1 #
edge $-1 $255 0 $255 6.2831853071796004 $109 $256 forward 7 unknown #
vertex $-1 $112 $257 #
ellipse-curve $-1 -40.128903057047197 13.345373865415787 5.7137652308121822 -0.77714596973225614 0 0.62932038083071107 0.31466019041535553 0 0.38857298486612807 1 I I #
coedge $-1 $178 $178 $-1 $258 reversed $115 $-1 #
edge $-1 $259 0 $259 6.2831853071796004 $116 $260 forward 7 unknown #
vertex $-1 $119 $261 #
ellipse-curve $-1 -40.128903057047197 15.379491888651962 5.7137652308121822 -0.77714596973225614 0 0.62932038083071107 0.31466019041535553 0 0.38857298486612807 1 I I #
face $-1 $-1 $135 $18 $-1 $262 reversed single #
loop $-1 $-1 $198 $120 #
plane-surface $-1 0 29.331712668565785 0 0 -1 0 0 0 -1 forward_v I I I I #
coedge $-1 $263 $196 $199 $264 forward $121 $-1 #
coedge $-1 $202 $123 $124 $190 reversed $76 $-1 #
coedge $-1 $196 $263 $123 $188 reversed $121 $-1 #
edge $-1 $203 -9.2795881895632899 $265 9.2795881895632899 $187 $266 forward 7 unknown #
coedge $-1 $125 $124 $263 $267 forward $49 $-1 #
edge $-1 $194 -43.016449476607562 $265 43.016449476607562 $186 $268 forward 7 unknown #
coedge $-1 $199 $198 $125 $192 reversed $183 $-1 #
edge $-1 $269 -43.016449476607562 $193 43.016449476607562 $191 $270 forward 7 unknown #
vertex $-1 $127 $271 #
vertex $-1 $205 $272 #
straight-curve $-1 43.016449476607562 0 -9.2795881895632899 0 -1 0 I I #
coedge $-1 $185 $187 $128 $197 reversed $121 $-1 #
edge $-1 $200 -29.331712668565785 $203 29.331712668565785 $196 $273 forward 7 unknown #
coedge $-1 $191 $129 $134 $206 forward $183 $-1 #
coedge $-1 $129 $191 $185 $264 reversed $183 $-1 #
vertex $-1 $130 $274 #
straight-curve $-1 0 29.331712668565785 9.2795881895632899 -1 0 0 I I #
coedge $-1 $131 $186 $133 $205 reversed $76 $-1 #
vertex $-1 $197 $275 #
straight-curve $-1 0 -29.331712668565785 9.2795881895632899 1 0 0 I I #
edge $-1 $136 -9.2795881895632899 $194 9.2795881895632899 $133 $276 forward 7 unknown #
edge $-1 $137 -9.2795881895632899 $193 9.2795881895632899 $134 $277 forward 7 unknown #
point $-1 43.016449476607562 -29.331712668565785 9.2795881895632899 #
point $-1 43.016449476607562 29.331712668565785 9.2795881895632899 #
face $-1 $-1 $226 $19 $-1 $278 forward single #
loop $-1 $-1 $279 $139 #
plane-surface $-1 -28.57980865696425 -33.6038547297901 0 -1 0 0 0 0 1 forward_v I I I I #
coedge $-1 $280 $142 $216 $281 reversed $84 $-1 #
coedge $-1 $142 $280 $282 $283 reversed $84 $-1 #
coedge $-1 $150 $149 $142 $215 reversed $140 $-1 #
edge $-1 $284 -9.2795881895632899 $285 9.2795881895632899 $214 $286 forward 7 unknown #
coedge $-1 $144 $143 $212 $281 forward $53 $-1 #
coedge $-1 $222 $279 $143 $218 reversed $210 $-1 #
edge $-1 $220 -4.2721420612243151 $287 4.2721420612243151 $217 $288 forward 7 unknown #
edge $-1 $285 -4.2721420612243151 $151 4.2721420612243151 $149 $289 forward 7 unknown #
vertex $-1 $218 $290 #
straight-curve $-1 0 -29.331712668565785 -9.2795881895632899 1 0 0 I I #
coedge $-1 $291 $217 $146 $223 reversed $210 $-1 #
edge $-1 $227 -9.2795881895632899 $220 9.2795881895632899 $222 $292 forward 7 unknown #
coedge $-1 $282 $147 $150 $229 forward $226 $-1 #
coedge $-1 $147 $282 $291 $293 forward $226 $-1 #
loop $-1 $-1 $147 $209 #
vertex $-1 $148 $294 #
straight-curve $-1 0 -29.331712668565785 9.2795881895632899 -1 0 0 I I #
edge $-1 $152 -4.2721420612243151 $284 4.2721420612243151 $150 $295 forward 7 unknown #
point $-1 -32.716272813414321 -29.331712668565785 -9.2795881895632899 #
point $-1 -32.716272813414321 -29.331712668565785 9.2795881895632899 #
plane-surface $-1 0 0 9.2795881895632899 0 0 1 1 0 0 forward_v I I I I #
coedge $-1 $243 $242 $235 $296 forward $155 $-1 #
coedge $-1 $235 $157 $159 $239 reversed $92 $-1 #
coedge $-1 $157 $234 $233 $296 reversed $92 $-1 #
coedge $-1 $165 $160 $157 $237 forward $166 $-1 #
edge $-1 $240 -17.696928443753727 $297 -11.921835604633003 $236 $298 forward 7 unknown #
coedge $-1 $159 $158 $243 $299 reversed $57 $-1 #
edge $-1 $300 0 $240 9.1767135071925132 $234 $301 forward 7 unknown #
vertex $-1 $161 $302 #
straight-curve $-1 -37.241356637486838 6.6726869327078902 9.2795881895632899 0 1 0 I I #
coedge $-1 $233 $162 $165 $247 reversed $155 $-1 #
coedge $-1 $162 $233 $238 $299 forward $155 $-1 #
vertex $-1 $163 $303 #
straight-curve $-1 -43.016449476607562 9.9551771600221564 28.145099502634249 0 0 1 I I #
straight-curve $-1 -43.016449476607562 9.9551771600221564 2.1479422720610728 -0.62932038083071107 0 -0.77714596973225614 I I #
edge $-1 $297 -16.735570570809404 $167 -9.9551771600221564 $242 $304 forward 7 unknown #
point $-1 -43.016449476607562 9.9551771600221564 9.2795881895632899 #
point $-1 -37.241356637486838 9.9551771600221564 9.2795881895632917 #
edge $-1 $305 1 $305 0 $170 $-1 forward 7 unknown #
vertex $-1 $171 $306 #
ellipse-curve $-1 -39.079790388046789 11.311255842179612 4.8642105652747318 -0.77714596973225614 0 0.62932038083071107 0.31466019041535553 0 0.38857298486612807 1 I I #
point $-1 -39.814242866631851 11.311255842179612 6.1023382156783113 #
edge $-1 $307 1 $307 0 $174 $-1 forward 7 unknown #
vertex $-1 $175 $308 #
ellipse-curve $-1 -39.079790388046789 13.345373865415787 4.8642105652747318 -0.77714596973225614 0 0.62932038083071107 0.31466019041535553 0 0.38857298486612807 1 I I #
point $-1 -39.814242866631851 13.345373865415787 6.1023382156783113 #
edge $-1 $309 1 $309 0 $178 $-1 forward 7 unknown #
vertex $-1 $179 $310 #
ellipse-curve $-1 -39.079790388046789 15.379491888651962 4.8642105652747318 -0.77714596973225614 0 0.62932038083071107 0.31466019041535553 0 0.38857298486612807 1 I I #
point $-1 -39.814242866631851 15.379491888651962 6.1023382156783113 #
plane-surface $-1 43.016449476607562 0 0 -1 0 0 0 0 1 forward_v I I I I #
coedge $-1 $187 $185 $189 $267 reversed $121 $-1 #
edge $-1 $200 -9.2795881895632899 $269 9.2795881895632899 $199 $311 forward 7 unknown #
vertex $-1 $267 $312 #
straight-curve $-1 -43.016449476607562 -29.331712668565785 0 0 0 -1 I I #
edge $-1 $265 -29.331712668565785 $269 29.331712668565785 $263 $313 forward 7 unknown #
straight-curve $-1 0 -29.331712668565785 -9.2795881895632899 -1 0 0 I I #
vertex $-1 $192 $314 #
straight-curve $-1 0 29.331712668565785 -9.2795881895632899 1 0 0 I I #
point $-1 43.016449476607562 29.331712668565785 -9.2795881895632899 #
point $-1 43.016449476607562 -29.331712668565785 -9.2795881895632899 #
straight-curve $-1 -43.016449476607562 0 9.2795881895632899 0 -1 0 I I #
point $-1 -43.016449476607562 29.331712668565785 9.2795881895632899 #
point $-1 -43.016449476607562 -29.331712668565785 9.2795881895632899 #
straight-curve $-1 43.016449476607562 -29.331712668565785 0 0 0 -1 I I #
straight-curve $-1 43.016449476607562 29.331712668565785 0 0 0 -1 I I #
plane-surface $-1 0 0 9.2795881895632899 0 0 1 1 0 0 forward_v I I I I #
coedge $-1 $217 $291 $280 $315 forward $210 $-1 #
coedge $-1 $213 $212 $279 $315 reversed $84 $-1 #
edge $-1 $287 -2.0682320782250336 $285 2.0682320782250372 $212 $316 forward 7 unknown #
coedge $-1 $225 $224 $213 $283 forward $226 $-1 #
edge $-1 $284 -2.0682320782250372 $317 2.0682320782250336 $213 $318 forward 7 unknown #
vertex $-1 $229 $319 #
vertex $-1 $219 $320 #
straight-curve $-1 -32.716272813414321 -37.875996791014416 0 0 0 -1 I I #
vertex $-1 $315 $321 #
straight-curve $-1 -28.57980865696425 -33.6038547297901 -9.2795881895632899 0 -1 0 I I #
straight-curve $-1 -32.716272813414321 -33.6038547297901 -9.2795881895632899 0 1 0 I I #
point $-1 -28.57980865696425 -29.331712668565785 -9.2795881895632899 #
coedge $-1 $279 $222 $225 $293 reversed $210 $-1 #
straight-curve $-1 -28.57980865696425 -29.331712668565785 0 0 0 -1 I I #
edge $-1 $317 -4.2721420612243151 $227 4.2721420612243151 $291 $322 forward 7 unknown #
point $-1 -28.57980865696425 -29.331712668565785 9.2795881895632899 #
straight-curve $-1 -32.716272813414321 -33.6038547297901 9.2795881895632899 0 -1 0 I I #
edge $-1 $297 18.865511313070961 $300 25.997157230573176 $233 $323 forward 7 unknown #
vertex $-1 $247 $324 #
straight-curve $-1 -54.938285081240565 16.735570570809404 9.2795881895632917 -1 0 0 I I #
edge $-1 $300 -10.062883638101514 $244 -3.2824902273142662 $243 $325 forward 7 unknown #
vertex $-1 $299 $326 #
straight-curve $-1 -43.016449476607562 16.735570570809404 2.1479422720610728 0.62932038083071107 0 0.77714596973225614 I I #
point $-1 -37.241356637486838 16.735570570809404 9.2795881895632917 #
point $-1 -43.016449476607562 9.9551771600221564 2.1479422720610728 #
straight-curve $-1 -43.016449476607562 0 9.2795881895632899 0 -1 0 I I #
vertex $-1 $250 $327 #
point $-1 -38.765130197631429 11.311255842179612 5.25278355014086 #
vertex $-1 $254 $328 #
point $-1 -38.765130197631429 13.345373865415787 5.25278355014086 #
vertex $-1 $258 $329 #
point $-1 -38.765130197631429 15.379491888651962 5.25278355014086 #
straight-curve $-1 -43.016449476607562 29.331712668565785 0 0 0 -1 I I #
point $-1 -43.016449476607562 -29.331712668565785 -9.2795881895632899 #
straight-curve $-1 -43.016449476607562 0 -9.2795881895632899 0 1 0 I I #
point $-1 -43.016449476607562 29.331712668565785 -9.2795881895632899 #
edge $-1 $317 -9.2795881895632899 $287 9.2795881895632899 $279 $330 forward 7 unknown #
straight-curve $-1 -30.648040735189284 -37.875996791014416 -9.2795881895632899 -1 0 0 I I #
vertex $-1 $293 $331 #
straight-curve $-1 -30.648040735189284 -37.875996791014416 9.2795881895632899 1 0 0 I I #
point $-1 -32.716272813414321 -37.875996791014416 9.2795881895632899 #
point $-1 -32.716272813414321 -37.875996791014416 -9.2795881895632899 #
point $-1 -28.57980865696425 -37.875996791014416 -9.2795881895632899 #
straight-curve $-1 -28.57980865696425 -33.6038547297901 9.2795881895632899 0 1 0 I I #
straight-curve $-1 -43.016449476607562 16.735570570809404 28.145099502634249 0 0 -1 I I #
point $-1 -43.016449476607562 16.735570570809404 9.2795881895632899 #
straight-curve $-1 -43.016449476607562 6.6726869327078902 2.1479422720610737 0 -1 0 I I #
point $-1 -43.016449476607562 16.735570570809404 2.1479422720610728 #
point $-1 -38.691217403180659 11.311255842179612 4.5495503748593755 #
point $-1 -38.691217403180659 13.345373865415787 4.5495503748593755 #
point $-1 -38.691217403180659 15.379491888651962 4.5495503748593755 #
straight-curve $-1 -28.57980865696425 -37.875996791014416 0 0 0 -1 I I #
point $-1 -28.57980865696425 -37.875996791014416 9.2795881895632899 #
End-of-ACIS-data 