500 0 9 0           
7 Unknown 11 ACIS 5.0 NT 24 Thu Mar 25 16:55:09 1999 
-1 9.9999999999999995e-007 1e-010 
body $-1 $9 $-1 $10 #
body $-1 $11 $-1 $12 #
body $-1 $13 $-1 $14 #
body $-1 $15 $-1 $16 #
body $-1 $17 $-1 $18 #
body $-1 $19 $-1 $20 #
body $-1 $21 $-1 $22 #
body $-1 $23 $-1 $24 #
body $-1 $25 $-1 $26 #
lump $-1 $-1 $27 $0 #
transform $-1 1 0 0 0 1 0 0 0 1 42.790612506485182 29.472724861487553 12.553364193528582 1 rotate no_reflect no_shear #
lump $-1 $-1 $28 $1 #
transform $-1 1 0 0 0 1 0 0 0 1 42.790612506485182 29.472724861487553 12.553364193528582 1 rotate no_reflect no_shear #
lump $-1 $-1 $29 $2 #
transform $-1 1 0 0 0 1 0 0 0 1 42.790612506485182 29.472724861487553 12.553364193528582 1 rotate no_reflect no_shear #
lump $-1 $-1 $30 $3 #
transform $-1 1 0 0 0 1 0 0 0 1 42.790612506485182 29.472724861487553 12.553364193528582 1 rotate no_reflect no_shear #
lump $-1 $-1 $31 $4 #
transform $-1 1 0 0 0 1 0 0 0 1 42.790612506485182 29.472724861487553 12.553364193528582 1 rotate no_reflect no_shear #
lump $-1 $-1 $32 $5 #
transform $-1 1 0 0 0 1 0 0 0 1 42.790612506485182 29.472724861487553 12.553364193528582 1 rotate no_reflect no_shear #
lump $-1 $-1 $33 $6 #
transform $-1 1 0 0 0 1 0 0 0 1 42.790612506485182 29.472724861487553 12.553364193528582 1 rotate no_reflect no_shear #
lump $-1 $-1 $34 $7 #
transform $-1 1 0 0 0 1 0 0 0 1 42.790612506485182 29.472724861487553 12.553364193528582 1 rotate no_reflect no_shear #
lump $-1 $-1 $35 $8 #
transform $-1 1 0 0 0 1 0 0 0 1 42.790612506485182 29.472724861487553 12.553364193528582 1 rotate no_reflect no_shear #
shell $-1 $-1 $-1 $36 $-1 $9 #
shell $-1 $-1 $-1 $37 $-1 $11 #
shell $-1 $-1 $-1 $38 $-1 $13 #
shell $-1 $-1 $-1 $39 $-1 $15 #
shell $-1 $-1 $-1 $40 $-1 $17 #
shell $-1 $-1 $-1 $41 $-1 $19 #
shell $-1 $-1 $-1 $42 $-1 $21 #
shell $-1 $-1 $-1 $43 $-1 $23 #
shell $-1 $-1 $-1 $44 $-1 $25 #
face $-1 $45 $46 $27 $-1 $47 forward single #
face $-1 $48 $49 $28 $-1 $50 reversed single #
face $-1 $51 $52 $29 $-1 $53 reversed single #
face $-1 $54 $55 $30 $-1 $56 reversed single #
face $-1 $57 $58 $31 $-1 $59 forward single #
face $-1 $60 $61 $32 $-1 $62 forward single #
face $-1 $63 $64 $33 $-1 $65 reversed single #
face $-1 $66 $67 $34 $-1 $68 forward single #
face $-1 $69 $70 $35 $-1 $71 forward single #
face $-1 $72 $73 $27 $-1 $74 reversed single #
loop $-1 $-1 $75 $36 #
plane-surface $-1 0 0 12.553364193528582 0 0 1 1 0 0 forward_v I I I I #
face $-1 $76 $77 $28 $-1 $78 reversed single #
loop $-1 $-1 $79 $37 #
plane-surface $-1 -38.148618484421817 0 7.0026371677295103 0 0 1 1 0 0 forward_v I I I I #
face $-1 $80 $81 $29 $-1 $82 reversed single #
loop $-1 $-1 $83 $38 #
plane-surface $-1 38.14861848442181 0 7.0026371677295103 0 0 1 1 0 0 forward_v I I I I #
face $-1 $84 $85 $30 $-1 $86 reversed single #
loop $-1 $-1 $87 $39 #
plane-surface $-1 -0.16562303250289645 44.729008263598516 109.20241917218166 1 0 0 0 -0.68199836817093118 -0.7313536940579346 forward_v I I I I #
face $-1 $88 $89 $31 $-1 $90 forward single #
loop $-1 $91 $92 $40 #
cone-surface $-1 5.4079799815784497 24.605503954989274 7.7944651960938049 0 -0.68199836817093118 -0.7313536940579346 2 0 0 1 I I 0 1 2 forward I I I I #
face $-1 $93 $94 $32 $-1 $95 forward single #
loop $-1 $96 $97 $41 #
cone-surface $-1 13.768384502700471 24.605503954989274 7.7944651960938049 0 -0.68199836817093118 -0.7313536940579346 2 0 0 1 I I 0 1 2 forward I I I I #
face $-1 $98 $99 $33 $-1 $100 reversed single #
loop $-1 $-1 $101 $42 #
plane-surface $-1 14.953278323861198 -92.062871271121722 66.784888682413566 1 0 0 0 0.73135370988377701 -0.68199835119979291 forward_v I I I I #
face $-1 $102 $103 $34 $-1 $104 forward single #
loop $-1 $105 $106 $43 #
cone-surface $-1 20.254234363431848 -26.928737148274898 9.911440575086953 0 0.73135370988377701 -0.68199835119979291 1 0 0 1 I I 0 1 1 forward I I I I #
face $-1 $107 $108 $35 $-1 $109 forward single #
loop $-1 $110 $111 $44 #
cone-surface $-1 28.205668422787816 -26.928737148274898 9.911440575086953 0 0.73135370988377701 -0.68199835119979291 1 0 0 1 I I 0 1 1 forward I I I I #
face $-1 $112 $113 $27 $-1 $114 reversed single #
loop $-1 $-1 $115 $45 #
plane-surface $-1 0 0 -12.553364193528582 0 0 1 1 0 0 forward_v I I I I #
coedge $-1 $116 $117 $118 $119 forward $46 $-1 #
face $-1 $120 $121 $28 $-1 $122 reversed single #
loop $-1 $-1 $123 $48 #
plane-surface $-1 -33.506624462358452 0 9.7780006806290469 -1 0 0 0 0 1 forward_v I I I I #
coedge $-1 $124 $125 $126 $127 forward $49 $-1 #
face $-1 $128 $129 $29 $-1 $130 forward single #
loop $-1 $-1 $131 $51 #
plane-surface $-1 33.506624462358445 0 9.7780006806290469 1 0 0 0 0 -1 forward_v I I I I #
coedge $-1 $132 $133 $134 $135 reversed $52 $-1 #
face $-1 $136 $137 $30 $-1 $138 reversed single #
loop $-1 $-1 $139 $54 #
plane-surface $-1 9.5881822421394602 -13.637247541316555 46.612274116942473 0 0.68199836817093118 0.7313536940579346 1 0 0 forward_v I I I I #
coedge $-1 $140 $141 $142 $143 reversed $55 $-1 #
face $-1 $-1 $144 $31 $-1 $145 forward single #
loop $-1 $146 $147 $57 #
cone-surface $-1 5.4079799815784497 22.349416637935892 5.3751078039794873 0 -0.68199836817093118 -0.7313536940579346 1 0 0 1 I I -0.70710678118654746 0.70710678118654746 1 forward I I I I #
loop $-1 $-1 $148 $40 #
coedge $-1 $92 $92 $149 $150 reversed $58 $-1 #
face $-1 $-1 $151 $32 $-1 $152 forward single #
loop $-1 $153 $154 $60 #
cone-surface $-1 13.768384502700471 22.349416637935892 5.3751078039794873 0 -0.68199836817093118 -0.7313536940579346 1 0 0 1 I I -0.70710678118654746 0.70710678118654746 1 forward I I I I #
loop $-1 $-1 $155 $41 #
coedge $-1 $97 $97 $156 $157 reversed $61 $-1 #
face $-1 $158 $159 $33 $-1 $160 reversed single #
loop $-1 $-1 $161 $63 #
plane-surface $-1 24.229951393109822 -29.472724861487563 8.4186343299093096 0 -0.73135370988377701 0.68199835119979291 1 0 0 forward_v I I I I #
coedge $-1 $162 $163 $164 $165 reversed $64 $-1 #
face $-1 $-1 $166 $34 $-1 $167 forward single #
loop $-1 $168 $169 $66 #
cone-surface $-1 20.254234363431848 -25.946921520746514 8.9958827128550691 0 0.73135370988377701 -0.68199835119979291 0.5 0 0 1 I I -0.70710678118654746 0.70710678118654746 0.5 forward I I I I #
loop $-1 $-1 $170 $43 #
coedge $-1 $106 $106 $171 $172 reversed $67 $-1 #
face $-1 $-1 $173 $35 $-1 $174 forward single #
loop $-1 $175 $176 $69 #
cone-surface $-1 28.205668422787816 -25.946921520746514 8.9958827128550691 0 0.73135370988377701 -0.68199835119979291 0.5 0 0 1 I I -0.70710678118654746 0.70710678118654746 0.5 forward I I I I #
loop $-1 $-1 $177 $44 #
coedge $-1 $111 $111 $178 $179 reversed $70 $-1 #
face $-1 $180 $181 $27 $-1 $182 reversed single #
loop $-1 $-1 $183 $72 #
plane-surface $-1 0 -29.472724861487553 0 0 1 0 0 0 1 forward_v I I I I #
coedge $-1 $184 $185 $186 $187 forward $73 $-1 #
coedge $-1 $188 $75 $189 $190 forward $46 $-1 #
coedge $-1 $75 $188 $191 $192 forward $46 $-1 #
coedge $-1 $193 $194 $75 $119 reversed $195 $-1 #
edge $-1 $196 -29.472724861487553 $197 29.472724861487553 $118 $198 forward 7 unknown #
face $-1 $199 $200 $28 $-1 $201 reversed single #
loop $-1 $-1 $202 $76 #
plane-surface $-1 0 29.472724861487553 0 0 -1 0 0 0 -1 forward_v I I I I #
coedge $-1 $126 $203 $204 $205 reversed $77 $-1 #
coedge $-1 $206 $79 $207 $208 reversed $49 $-1 #
coedge $-1 $79 $206 $209 $210 reversed $49 $-1 #
coedge $-1 $211 $123 $79 $127 reversed $77 $-1 #
edge $-1 $212 -29.472724861487553 $213 29.472724861487553 $126 $214 forward 7 unknown #
face $-1 $215 $216 $29 $-1 $217 reversed single #
loop $-1 $-1 $218 $80 #
plane-surface $-1 0 0 12.553364193528582 0 0 1 1 0 0 forward_v I I I I #
coedge $-1 $219 $220 $221 $222 reversed $81 $-1 #
coedge $-1 $223 $83 $224 $225 reversed $52 $-1 #
coedge $-1 $83 $223 $226 $227 reversed $52 $-1 #
coedge $-1 $228 $229 $83 $135 forward $230 $-1 #
edge $-1 $231 -29.472724861487553 $232 29.472724861487553 $134 $233 forward 7 unknown #
face $-1 $234 $235 $30 $-1 $236 reversed single #
loop $-1 $-1 $237 $84 #
plane-surface $-1 19.341987516781817 44.729008263598516 109.20241917218166 -1 0 0 0 0.68199836817093118 0.7313536940579346 forward_v I I I I #
coedge $-1 $238 $239 $240 $241 reversed $85 $-1 #
coedge $-1 $141 $87 $242 $243 reversed $55 $-1 #
coedge $-1 $87 $140 $238 $244 reversed $55 $-1 #
coedge $-1 $240 $245 $87 $143 forward $246 $-1 #
edge $-1 $247 -7.1082207296882949 $248 -0.52195681445663666 $142 $249 forward 7 unknown #
loop $-1 $-1 $149 $88 #
plane-surface $-1 9.5881822421394602 -13.637247541316555 46.612274116942473 0 0.68199836817093118 0.7313536940579346 1 0 0 forward_v I I I I #
loop $-1 $-1 $250 $57 #
coedge $-1 $147 $147 $148 $251 reversed $89 $-1 #
coedge $-1 $148 $148 $147 $251 forward $91 $-1 #
coedge $-1 $149 $149 $92 $150 forward $144 $-1 #
edge $-1 $252 8.7672670700206809e-017 $252 6.2831853071796004 $149 $253 forward 7 unknown #
loop $-1 $-1 $156 $93 #
plane-surface $-1 9.5881822421394602 -13.637247541316555 46.612274116942473 0 0.68199836817093118 0.7313536940579346 1 0 0 forward_v I I I I #
loop $-1 $-1 $254 $60 #
coedge $-1 $154 $154 $155 $255 reversed $94 $-1 #
coedge $-1 $155 $155 $154 $255 forward $96 $-1 #
coedge $-1 $156 $156 $97 $157 forward $151 $-1 #
edge $-1 $256 8.7672670700206809e-017 $256 6.2831853071796004 $156 $257 forward 7 unknown #
face $-1 $258 $259 $33 $-1 $260 forward single #
loop $-1 $-1 $164 $98 #
plane-surface $-1 0 -29.472724861487553 0 0 1 0 0 0 1 forward_v I I I I #
coedge $-1 $261 $262 $263 $264 reversed $99 $-1 #
coedge $-1 $163 $101 $265 $266 reversed $64 $-1 #
coedge $-1 $101 $162 $261 $267 reversed $64 $-1 #
coedge $-1 $263 $268 $101 $165 forward $159 $-1 #
edge $-1 $269 20.839080147678203 $270 24.973810011297463 $164 $271 forward 7 unknown #
loop $-1 $-1 $171 $102 #
plane-surface $-1 24.229951393109822 -29.472724861487563 8.4186343299093096 0 -0.73135370988377701 0.68199835119979291 1 0 0 forward_v I I I I #
loop $-1 $-1 $272 $66 #
coedge $-1 $169 $169 $170 $273 reversed $103 $-1 #
coedge $-1 $170 $170 $169 $273 forward $105 $-1 #
coedge $-1 $171 $171 $106 $172 forward $166 $-1 #
edge $-1 $274 5.9776333289801244e-016 $274 6.2831853071796013 $171 $275 forward 7 unknown #
loop $-1 $-1 $178 $107 #
plane-surface $-1 24.229951393109822 -29.472724861487563 8.4186343299093096 0 -0.73135370988377701 0.68199835119979291 1 0 0 forward_v I I I I #
loop $-1 $-1 $276 $69 #
coedge $-1 $176 $176 $177 $277 reversed $108 $-1 #
coedge $-1 $177 $177 $176 $277 forward $110 $-1 #
coedge $-1 $178 $178 $111 $179 forward $173 $-1 #
edge $-1 $278 5.9776333289801244e-016 $278 6.2831853071796013 $178 $279 forward 7 unknown #
face $-1 $280 $281 $27 $-1 $282 reversed single #
loop $-1 $-1 $283 $112 #
plane-surface $-1 -42.790612506485182 0 0 1 0 0 0 0 -1 forward_v I I I I #
coedge $-1 $284 $191 $285 $286 forward $113 $-1 #
coedge $-1 $287 $115 $284 $288 forward $73 $-1 #
coedge $-1 $115 $287 $289 $290 forward $73 $-1 #
coedge $-1 $194 $193 $115 $187 reversed $195 $-1 #
edge $-1 $291 -29.472724861487553 $292 29.472724861487553 $186 $293 forward 7 unknown #
coedge $-1 $117 $116 $294 $295 forward $46 $-1 #
coedge $-1 $296 $297 $116 $190 reversed $281 $-1 #
edge $-1 $197 -42.790612506485182 $298 42.790612506485182 $189 $299 forward 7 unknown #
coedge $-1 $183 $300 $117 $192 reversed $113 $-1 #
edge $-1 $301 -42.790612506485182 $196 42.790612506485182 $191 $302 forward 7 unknown #
coedge $-1 $186 $118 $300 $303 forward $195 $-1 #
coedge $-1 $118 $186 $296 $304 reversed $195 $-1 #
loop $-1 $-1 $193 $280 #
vertex $-1 $119 $305 #
vertex $-1 $119 $306 #
straight-curve $-1 42.790612506485182 0 12.553364193528582 0 1 0 I I #
face $-1 $307 $308 $28 $-1 $309 forward single #
loop $-1 $-1 $310 $120 #
plane-surface $-1 -42.790612506485182 0 0 1 0 0 0 0 -1 forward_v I I I I #
coedge $-1 $209 $311 $211 $312 forward $121 $-1 #
coedge $-1 $123 $211 $313 $314 reversed $77 $-1 #
coedge $-1 $315 $207 $123 $205 forward $316 $-1 #
edge $-1 $213 2.1136368274149868 $317 7.6643638532140601 $204 $318 forward 7 unknown #
coedge $-1 $125 $124 $310 $319 reversed $49 $-1 #
coedge $-1 $204 $320 $124 $208 forward $316 $-1 #
edge $-1 $321 -23.716303264274273 $213 -14.432315220147544 $207 $322 forward 7 unknown #
coedge $-1 $323 $202 $125 $210 forward $121 $-1 #
edge $-1 $212 14.432315220147544 $324 23.716303264274273 $209 $325 forward 7 unknown #
coedge $-1 $203 $126 $202 $312 reversed $77 $-1 #
vertex $-1 $210 $326 #
vertex $-1 $208 $327 #
straight-curve $-1 -33.506624462358452 0 7.0026371677295103 0 -1 0 I I #
face $-1 $328 $329 $29 $-1 $330 reversed single #
loop $-1 $-1 $331 $128 #
plane-surface $-1 0 -29.472724861487553 0 0 1 0 0 0 1 forward_v I I I I #
coedge $-1 $332 $333 $220 $334 forward $129 $-1 #
coedge $-1 $335 $131 $223 $336 reversed $81 $-1 #
coedge $-1 $131 $335 $218 $334 reversed $81 $-1 #
coedge $-1 $337 $226 $131 $222 forward $329 $-1 #
edge $-1 $338 2.1136368274149868 $339 7.6643638532140601 $221 $340 forward 7 unknown #
coedge $-1 $133 $132 $219 $336 forward $52 $-1 #
coedge $-1 $341 $331 $132 $225 forward $216 $-1 #
edge $-1 $342 14.43231522014754 $231 23.71630326427427 $224 $343 forward 7 unknown #
coedge $-1 $221 $344 $133 $227 forward $329 $-1 #
edge $-1 $232 -23.71630326427427 $338 -14.43231522014754 $226 $345 forward 7 unknown #
coedge $-1 $346 $134 $344 $347 reversed $230 $-1 #
coedge $-1 $134 $346 $341 $348 forward $230 $-1 #
loop $-1 $-1 $134 $328 #
vertex $-1 $225 $349 #
vertex $-1 $135 $350 #
straight-curve $-1 42.790612506485182 0 7.0026371677295103 0 1 0 I I #
face $-1 $-1 $246 $30 $-1 $351 forward single #
loop $-1 $-1 $352 $136 #
plane-surface $-1 0 29.472724861487553 0 0 -1 0 0 0 -1 forward_v I I I I #
coedge $-1 $353 $354 $355 $356 reversed $137 $-1 #
coedge $-1 $357 $139 $141 $244 forward $85 $-1 #
coedge $-1 $139 $357 $353 $358 forward $85 $-1 #
coedge $-1 $355 $142 $139 $241 forward $246 $-1 #
edge $-1 $248 -4.9597141535726266 $359 14.547896395712087 $240 $360 forward 7 unknown #
coedge $-1 $361 $362 $140 $243 forward $235 $-1 #
edge $-1 $363 -48.189635991319051 $247 -42.047845392562252 $242 $364 forward 7 unknown #
edge $-1 $248 49.939870112530258 $363 58.945449722975113 $141 $365 forward 7 unknown #
coedge $-1 $142 $355 $361 $366 forward $246 $-1 #
loop $-1 $-1 $355 $234 #
vertex $-1 $243 $367 #
vertex $-1 $143 $368 #
straight-curve $-1 -0.16562303250289645 22.364504131799258 12.55336419352858 0 -1 0 I I #
coedge $-1 $250 $250 $-1 $369 reversed $146 $-1 #
edge $-1 $370 0 $370 6.2831853071796004 $147 $371 forward 7 unknown #
vertex $-1 $150 $372 #
ellipse-curve $-1 5.4079799815784497 26.179592903871718 9.482468894150184 0 0.68199836817093118 0.7313536940579346 2 0 0 1 I I #
coedge $-1 $254 $254 $-1 $373 reversed $153 $-1 #
edge $-1 $374 0 $374 6.2831853071796004 $154 $375 forward 7 unknown #
vertex $-1 $157 $376 #
ellipse-curve $-1 13.768384502700471 26.179592903871718 9.482468894150184 0 0.68199836817093118 0.7313536940579346 2 0 0 1 I I #
face $-1 $-1 $377 $33 $-1 $378 forward single #
loop $-1 $-1 $265 $158 #
plane-surface $-1 0 0 12.553364193528582 0 0 1 1 0 0 forward_v I I I I #
coedge $-1 $379 $161 $163 $267 forward $99 $-1 #
coedge $-1 $161 $379 $380 $381 reversed $99 $-1 #
coedge $-1 $382 $164 $161 $264 forward $159 $-1 #
edge $-1 $270 2.8383026273062875 $383 21.391648765803534 $263 $384 forward 7 unknown #
coedge $-1 $385 $386 $162 $266 forward $259 $-1 #
edge $-1 $387 -20.414408655325598 $269 -16.558710774073308 $265 $388 forward 7 unknown #
edge $-1 $270 1.506370560111744e-014 $387 5.6535296228638021 $163 $389 forward 7 unknown #
coedge $-1 $164 $382 $385 $390 reversed $159 $-1 #
vertex $-1 $390 $391 #
vertex $-1 $165 $392 #
straight-curve $-1 14.953278323861198 -29.472724861487553 33.392444341206783 0 0 -1 I I #
coedge $-1 $272 $272 $-1 $393 reversed $168 $-1 #
edge $-1 $394 0 $394 6.2831853071796004 $169 $395 forward 7 unknown #
vertex $-1 $172 $396 #
ellipse-curve $-1 20.254234363431848 -27.544875920861408 10.485999261718952 0 -0.73135370988377701 0.68199835119979291 1 0 0 1 I I #
coedge $-1 $276 $276 $-1 $397 reversed $175 $-1 #
edge $-1 $398 0 $398 6.2831853071796004 $176 $399 forward 7 unknown #
vertex $-1 $179 $400 #
ellipse-curve $-1 28.205668422787816 -27.544875920861408 10.485999261718952 0 -0.73135370988377701 0.68199835119979291 1 0 0 1 I I #
face $-1 $-1 $195 $27 $-1 $401 reversed single #
loop $-1 $-1 $296 $180 #
plane-surface $-1 0 29.472724861487553 0 0 -1 0 0 0 -1 forward_v I I I I #
coedge $-1 $402 $294 $297 $403 forward $181 $-1 #
coedge $-1 $300 $183 $184 $288 reversed $113 $-1 #
coedge $-1 $294 $402 $183 $286 reversed $181 $-1 #
edge $-1 $301 -12.553364193528582 $404 12.553364193528582 $285 $405 forward 7 unknown #
coedge $-1 $185 $184 $402 $406 forward $73 $-1 #
edge $-1 $292 -42.790612506485182 $404 42.790612506485182 $284 $407 forward 7 unknown #
coedge $-1 $297 $296 $185 $290 reversed $281 $-1 #
edge $-1 $408 -42.790612506485182 $291 42.790612506485182 $289 $409 forward 7 unknown #
vertex $-1 $187 $410 #
vertex $-1 $303 $411 #
straight-curve $-1 42.790612506485182 0 -12.553364193528582 0 -1 0 I I #
coedge $-1 $283 $285 $188 $295 reversed $181 $-1 #
edge $-1 $298 -29.472724861487553 $301 29.472724861487553 $294 $412 forward 7 unknown #
coedge $-1 $289 $189 $194 $304 forward $281 $-1 #
coedge $-1 $189 $289 $283 $403 reversed $281 $-1 #
vertex $-1 $190 $413 #
straight-curve $-1 0 29.472724861487553 12.553364193528582 -1 0 0 I I #
coedge $-1 $191 $284 $193 $303 reversed $113 $-1 #
vertex $-1 $295 $414 #
straight-curve $-1 0 -29.472724861487553 12.553364193528582 1 0 0 I I #
edge $-1 $196 -12.553364193528582 $292 12.553364193528582 $193 $415 forward 7 unknown #
edge $-1 $197 -12.553364193528582 $291 12.553364193528582 $194 $416 forward 7 unknown #
point $-1 42.790612506485182 -29.472724861487553 12.553364193528582 #
point $-1 42.790612506485182 29.472724861487553 12.553364193528582 #
face $-1 $-1 $316 $28 $-1 $417 reversed single #
loop $-1 $-1 $313 $199 #
plane-surface $-1 0 0 12.553364193528582 0 0 1 1 0 0 forward_v I I I I #
coedge $-1 $418 $419 $206 $319 forward $200 $-1 #
coedge $-1 $202 $323 $420 $421 reversed $121 $-1 #
edge $-1 $422 -7.6643638532140601 $212 -2.1136368274149868 $202 $423 forward 7 unknown #
coedge $-1 $420 $424 $203 $314 forward $308 $-1 #
edge $-1 $317 -29.472724861487553 $422 29.472724861487553 $313 $425 forward 7 unknown #
coedge $-1 $320 $204 $424 $426 reversed $316 $-1 #
loop $-1 $-1 $204 $307 #
vertex $-1 $205 $427 #
straight-curve $-1 -33.506624462358452 -29.472724861487553 4.8890003403145235 0 0 1 I I #
edge $-1 $324 -29.472724861487553 $321 29.472724861487553 $310 $428 forward 7 unknown #
coedge $-1 $207 $315 $418 $429 forward $316 $-1 #
vertex $-1 $319 $430 #
straight-curve $-1 -19.074309242210909 -29.472724861487553 7.0026371677295103 1 0 0 I I #
coedge $-1 $311 $209 $419 $431 reversed $121 $-1 #
vertex $-1 $319 $432 #
straight-curve $-1 -19.074309242210909 29.472724861487553 7.0026371677295103 -1 0 0 I I #
point $-1 -33.506624462358452 29.472724861487553 7.0026371677295103 #
point $-1 -33.506624462358452 -29.472724861487553 7.0026371677295103 #
face $-1 $-1 $230 $29 $-1 $433 reversed single #
loop $-1 $-1 $221 $215 #
plane-surface $-1 0 29.472724861487553 0 0 -1 0 0 0 -1 forward_v I I I I #
coedge $-1 $224 $434 $335 $435 forward $216 $-1 #
coedge $-1 $436 $218 $434 $437 forward $129 $-1 #
coedge $-1 $218 $436 $337 $438 forward $129 $-1 #
edge $-1 $339 -29.472724861487553 $439 29.472724861487553 $218 $440 forward 7 unknown #
coedge $-1 $220 $219 $331 $435 reversed $81 $-1 #
edge $-1 $342 -29.472724861487553 $338 29.472724861487553 $219 $441 forward 7 unknown #
coedge $-1 $344 $221 $333 $438 reversed $329 $-1 #
vertex $-1 $227 $442 #
vertex $-1 $222 $443 #
straight-curve $-1 33.506624462358445 29.472724861487553 4.8890003403145235 0 0 1 I I #
coedge $-1 $434 $224 $229 $348 reversed $216 $-1 #
vertex $-1 $225 $444 #
straight-curve $-1 19.074309242210905 -29.472724861487553 7.0026371677295103 1 0 0 I I #
coedge $-1 $226 $337 $228 $347 forward $329 $-1 #
straight-curve $-1 19.074309242210905 29.472724861487553 7.0026371677295103 -1 0 0 I I #
coedge $-1 $229 $228 $436 $445 reversed $230 $-1 #
edge $-1 $446 -12.553364193528582 $232 -7.0026371677295103 $228 $447 forward 7 unknown #
edge $-1 $448 -12.553364193528582 $231 -7.0026371677295103 $229 $449 forward 7 unknown #
point $-1 42.790612506485175 -29.472724861487553 7.0026371677295103 #
point $-1 42.790612506485175 29.472724861487553 7.0026371677295103 #
plane-surface $-1 0 0 12.553364193528582 0 0 1 1 0 0 forward_v I I I I #
coedge $-1 $362 $361 $354 $450 forward $235 $-1 #
coedge $-1 $354 $237 $239 $358 reversed $137 $-1 #
coedge $-1 $237 $353 $352 $450 reversed $137 $-1 #
coedge $-1 $245 $240 $237 $356 forward $246 $-1 #
edge $-1 $359 0.52195681445663666 $451 7.1082207296882949 $355 $452 forward 7 unknown #
coedge $-1 $239 $238 $362 $453 reversed $85 $-1 #
edge $-1 $454 -58.945449722975113 $359 -49.939870112530258 $353 $455 forward 7 unknown #
vertex $-1 $241 $456 #
straight-curve $-1 4.7940911210697301 22.886460946255891 12.553364193528576 1 0 0 I I #
coedge $-1 $352 $242 $245 $366 reversed $235 $-1 #
coedge $-1 $242 $352 $357 $453 forward $235 $-1 #
vertex $-1 $243 $457 #
straight-curve $-1 -0.16562303250289645 29.472724861487553 54.601209586090832 0 0 1 I I #
straight-curve $-1 -0.16562303250289645 -13.637247541316555 46.612274116942473 0 0.7313536940579346 -0.68199836817093118 I I #
edge $-1 $451 -19.341987516781817 $247 0.16562303250289645 $361 $458 forward 7 unknown #
point $-1 -0.16562303250289645 29.472724861487553 12.553364193528582 #
point $-1 -0.16562303250289645 22.886460946255895 12.55336419352858 #
edge $-1 $459 1 $459 0 $250 $-1 forward 7 unknown #
vertex $-1 $251 $460 #
ellipse-curve $-1 5.4079799815784497 23.031415006106823 6.1064614980374223 0 0.68199836817093118 0.7313536940579346 2 0 0 1 I I #
point $-1 7.4079799815784497 26.179592903871722 9.4824688941501876 #
edge $-1 $461 1 $461 0 $254 $-1 forward 7 unknown #
vertex $-1 $255 $462 #
ellipse-curve $-1 13.768384502700471 23.031415006106823 6.1064614980374223 0 0.68199836817093118 0.7313536940579346 2 0 0 1 I I #
point $-1 15.768384502700471 26.179592903871722 9.4824688941501876 #
loop $-1 $-1 $380 $258 #
plane-surface $-1 33.506624462358445 0 9.7780006806290469 1 0 0 0 0 -1 forward_v I I I I #
coedge $-1 $262 $261 $386 $463 reversed $99 $-1 #
coedge $-1 $464 $465 $262 $381 forward $377 $-1 #
edge $-1 $383 -10.547263692294843 $466 -4.8937340694310576 $380 $467 forward 7 unknown #
coedge $-1 $268 $263 $465 $468 forward $159 $-1 #
vertex $-1 $468 $469 #
straight-curve $-1 12.114975696554911 -29.472724861487553 8.4186343299093167 1 0 0 I I #
coedge $-1 $470 $265 $268 $390 forward $259 $-1 #
coedge $-1 $265 $470 $379 $463 forward $259 $-1 #
vertex $-1 $266 $471 #
straight-curve $-1 14.953278323861198 -46.031435635560861 12.55336419352858 0 -1 0 I I #
straight-curve $-1 14.953278323861198 -29.472724861487563 8.4186343299093096 0 0.68199835119979291 0.73135370988377701 I I #
edge $-1 $269 14.953278323861198 $472 33.506624462358445 $268 $473 forward 7 unknown #
point $-1 14.953278323861198 -29.472724861487553 12.553364193528582 #
point $-1 14.953278323861198 -29.472724861487553 8.4186343299093203 #
edge $-1 $474 1 $474 0 $272 $-1 forward 7 unknown #
vertex $-1 $273 $475 #
ellipse-curve $-1 20.254234363431848 -26.312598375688403 9.3368818884549647 0 -0.73135370988377701 0.68199835119979291 1 0 0 1 I I #
point $-1 21.254234363431848 -27.544875920861394 10.485999261718939 #
edge $-1 $476 1 $476 0 $276 $-1 forward 7 unknown #
vertex $-1 $277 $477 #
ellipse-curve $-1 28.205668422787816 -26.312598375688403 9.3368818884549647 0 -0.73135370988377701 0.68199835119979291 1 0 0 1 I I #
point $-1 29.205668422787816 -27.544875920861394 10.485999261718939 #
plane-surface $-1 42.790612506485182 0 0 -1 0 0 0 0 1 forward_v I I I I #
coedge $-1 $285 $283 $287 $406 reversed $181 $-1 #
edge $-1 $298 -12.553364193528582 $408 12.553364193528582 $297 $478 forward 7 unknown #
vertex $-1 $406 $479 #
straight-curve $-1 -42.790612506485182 -29.472724861487553 0 0 0 -1 I I #
edge $-1 $404 -29.472724861487553 $408 29.472724861487553 $402 $480 forward 7 unknown #
straight-curve $-1 0 -29.472724861487553 -12.553364193528582 -1 0 0 I I #
vertex $-1 $290 $481 #
straight-curve $-1 0 29.472724861487553 -12.553364193528582 1 0 0 I I #
point $-1 42.790612506485182 29.472724861487553 -12.553364193528582 #
point $-1 42.790612506485182 -29.472724861487553 -12.553364193528582 #
straight-curve $-1 -42.790612506485182 0 12.553364193528582 0 -1 0 I I #
point $-1 -42.790612506485182 29.472724861487553 12.553364193528582 #
point $-1 -42.790612506485182 -29.472724861487553 12.553364193528582 #
straight-curve $-1 42.790612506485182 -29.472724861487553 0 0 0 -1 I I #
straight-curve $-1 42.790612506485182 29.472724861487553 0 0 0 -1 I I #
plane-surface $-1 0 -29.472724861487553 0 0 1 0 0 0 1 forward_v I I I I #
coedge $-1 $482 $310 $320 $429 reversed $200 $-1 #
coedge $-1 $310 $482 $323 $431 forward $200 $-1 #
coedge $-1 $483 $313 $311 $421 forward $308 $-1 #
edge $-1 $422 33.506624462358452 $484 42.790612506485182 $311 $485 forward 7 unknown #
vertex $-1 $421 $486 #
straight-curve $-1 -33.506624462358452 29.472724861487553 4.8890003403145235 0 0 -1 I I #
coedge $-1 $313 $483 $315 $426 forward $308 $-1 #
straight-curve $-1 -33.506624462358452 0 12.553364193528582 0 1 0 I I #
edge $-1 $487 -42.790612506485182 $317 -33.506624462358452 $315 $488 forward 7 unknown #
point $-1 -33.506624462358452 -29.472724861487553 12.553364193528584 #
straight-curve $-1 -42.790612506485182 0 7.0026371677295103 0 -1 0 I I #
edge $-1 $487 -12.553364193528582 $321 -7.0026371677295103 $418 $489 forward 7 unknown #
point $-1 -42.790612506485182 -29.472724861487553 7.0026371677295103 #
edge $-1 $484 -12.553364193528582 $324 -7.0026371677295103 $323 $490 forward 7 unknown #
point $-1 -42.790612506485182 29.472724861487553 7.0026371677295103 #
plane-surface $-1 42.790612506485182 0 0 -1 0 0 0 0 1 forward_v I I I I #
coedge $-1 $331 $341 $332 $437 reversed $216 $-1 #
edge $-1 $439 -7.6643638532140601 $342 -2.1136368274149868 $331 $491 forward 7 unknown #
coedge $-1 $333 $332 $346 $445 forward $129 $-1 #
edge $-1 $439 33.506624462358445 $448 42.790612506485182 $434 $492 forward 7 unknown #
edge $-1 $446 -42.790612506485182 $339 -33.506624462358445 $337 $493 forward 7 unknown #
vertex $-1 $437 $494 #
straight-curve $-1 33.506624462358445 0 12.553364193528582 0 -1 0 I I #
straight-curve $-1 33.506624462358445 0 7.0026371677295103 0 1 0 I I #
point $-1 33.506624462358445 29.472724861487553 7.0026371677295103 #
point $-1 33.506624462358445 29.472724861487553 12.553364193528584 #
point $-1 33.506624462358445 -29.472724861487553 7.0026371677295103 #
edge $-1 $448 -29.472724861487553 $446 29.472724861487553 $346 $495 forward 7 unknown #
vertex $-1 $445 $496 #
straight-curve $-1 42.790612506485182 29.472724861487553 0 0 0 -1 I I #
vertex $-1 $445 $497 #
straight-curve $-1 42.790612506485182 -29.472724861487553 0 0 0 -1 I I #
edge $-1 $451 42.047845392562252 $454 48.189635991319051 $352 $498 forward 7 unknown #
vertex $-1 $366 $499 #
straight-curve $-1 19.341987516781817 22.364504131799258 12.55336419352858 0 1 0 I I #
edge $-1 $454 -14.547896395712087 $363 4.9597141535726266 $362 $500 forward 7 unknown #
vertex $-1 $453 $501 #
straight-curve $-1 19.341987516781817 -13.637247541316555 46.612274116942473 0 -0.7313536940579346 0.68199836817093118 I I #
point $-1 19.341987516781817 22.886460946255895 12.55336419352858 #
point $-1 -0.16562303250289645 29.472724861487549 6.4115735947717809 #
straight-curve $-1 0 29.472724861487553 12.553364193528582 -1 0 0 I I #
vertex $-1 $369 $502 #
point $-1 7.4079799815784497 23.031415006106823 6.1064614980374223 #
vertex $-1 $373 $503 #
point $-1 15.768384502700471 23.031415006106823 6.1064614980374223 #
edge $-1 $466 -21.391648765803534 $387 -2.8383026273062875 $386 $504 forward 7 unknown #
coedge $-1 $465 $380 $470 $505 reversed $377 $-1 #
coedge $-1 $380 $464 $382 $468 reversed $377 $-1 #
vertex $-1 $381 $506 #
straight-curve $-1 33.506624462358445 -22.279508413673028 16.132414760391619 0 0.68199835119979291 0.73135370988377701 I I #
edge $-1 $383 3.5296339895947986 $472 7.6643638532140601 $382 $507 forward 7 unknown #
point $-1 33.506624462358445 -29.472724861487553 8.418634329909322 #
coedge $-1 $386 $385 $464 $505 forward $259 $-1 #
point $-1 14.953278323861198 -25.617026980235263 12.553364193528582 #
vertex $-1 $505 $508 #
straight-curve $-1 0 -29.472724861487553 12.553364193528582 1 0 0 I I #
vertex $-1 $393 $509 #
point $-1 21.254234363431848 -26.312598375688403 9.3368818884549647 #
vertex $-1 $397 $510 #
point $-1 29.205668422787816 -26.312598375688403 9.3368818884549647 #
straight-curve $-1 -42.790612506485182 29.472724861487553 0 0 0 -1 I I #
point $-1 -42.790612506485182 -29.472724861487553 -12.553364193528582 #
straight-curve $-1 -42.790612506485182 0 -12.553364193528582 0 1 0 I I #
point $-1 -42.790612506485182 29.472724861487553 -12.553364193528582 #
coedge $-1 $419 $418 $483 $511 reversed $200 $-1 #
coedge $-1 $424 $420 $482 $511 forward $308 $-1 #
vertex $-1 $421 $512 #
straight-curve $-1 0 29.472724861487553 12.553364193528582 -1 0 0 I I #
point $-1 -33.506624462358452 29.472724861487553 12.553364193528584 #
vertex $-1 $511 $513 #
straight-curve $-1 0 -29.472724861487553 12.553364193528582 1 0 0 I I #
straight-curve $-1 -42.790612506485182 -29.472724861487553 0 0 0 -1 I I #
straight-curve $-1 -42.790612506485182 29.472724861487553 0 0 0 -1 I I #
straight-curve $-1 33.506624462358445 -29.472724861487553 4.8890003403145235 0 0 -1 I I #
straight-curve $-1 0 -29.472724861487553 12.553364193528582 1 0 0 I I #
straight-curve $-1 0 29.472724861487553 12.553364193528582 -1 0 0 I I #
point $-1 33.506624462358445 -29.472724861487553 12.553364193528584 #
straight-curve $-1 42.790612506485182 0 12.553364193528582 0 1 0 I I #
point $-1 42.790612506485182 29.472724861487553 12.553364193528582 #
point $-1 42.790612506485182 -29.472724861487553 12.553364193528582 #
straight-curve $-1 19.341987516781817 29.472724861487553 54.601209586090832 0 0 -1 I I #
point $-1 19.341987516781817 29.472724861487553 12.553364193528582 #
straight-curve $-1 4.7940911210697301 29.472724861487553 6.4115735947717809 -1 0 0 I I #
point $-1 19.341987516781817 29.472724861487549 6.4115735947717809 #
point $-1 5.4079799815784497 21.667418269764962 4.6437541099215522 #
point $-1 13.768384502700471 21.667418269764962 4.6437541099215522 #
straight-curve $-1 12.114975696554911 -25.617026980235263 12.553364193528582 -1 0 0 I I #
edge $-1 $472 -29.472724861487553 $466 -25.617026980235263 $470 $514 forward 7 unknown #
point $-1 33.506624462358445 -25.617026980235263 12.553364193528582 #
straight-curve $-1 33.506624462358445 -29.472724861487553 4.8890003403145235 0 0 1 I I #
point $-1 33.506624462358445 -29.472724861487553 12.553364193528584 #
point $-1 20.254234363431848 -25.581244665804626 8.6548835372551736 #
point $-1 28.205668422787816 -25.581244665804626 8.6548835372551736 #
edge $-1 $484 -29.472724861487553 $487 29.472724861487553 $482 $515 forward 7 unknown #
point $-1 -42.790612506485182 29.472724861487553 12.553364193528582 #
point $-1 -42.790612506485182 -29.472724861487553 12.553364193528582 #
straight-curve $-1 33.506624462358445 0 12.553364193528582 0 1 0 I I #
straight-curve $-1 -42.790612506485182 0 12.553364193528582 0 -1 0 I I #
End-of-ACIS-data 