500 0 14 0           
7 Unknown 11 ACIS 5.0 NT 24 Thu Mar 25 18:51:40 1999 
-1 9.9999999999999995e-007 1e-010 
body $-1 $14 $-1 $15 #
body $-1 $16 $-1 $17 #
body $-1 $18 $-1 $19 #
body $-1 $20 $-1 $21 #
body $-1 $22 $-1 $23 #
body $-1 $24 $-1 $25 #
body $-1 $26 $-1 $27 #
body $-1 $28 $-1 $29 #
body $-1 $30 $-1 $31 #
body $-1 $32 $-1 $33 #
body $-1 $34 $-1 $35 #
body $-1 $36 $-1 $37 #
body $-1 $38 $-1 $39 #
body $-1 $40 $-1 $41 #
lump $-1 $-1 $42 $0 #
transform $-1 1 0 0 0 1 0 0 0 1 50.798669392986845 21.914261031054583 6.443395992235855 1 rotate no_reflect no_shear #
lump $-1 $-1 $43 $1 #
transform $-1 1 0 0 0 1 0 0 0 1 50.798669392986845 21.914261031054583 6.443395992235855 1 rotate no_reflect no_shear #
lump $-1 $-1 $44 $2 #
transform $-1 1 0 0 0 1 0 0 0 1 50.798669392986845 21.914261031054583 6.443395992235855 1 rotate no_reflect no_shear #
lump $-1 $-1 $45 $3 #
transform $-1 1 0 0 0 1 0 0 0 1 50.798669392986845 21.914261031054583 6.443395992235855 1 rotate no_reflect no_shear #
lump $-1 $-1 $46 $4 #
transform $-1 1 0 0 0 1 0 0 0 1 50.798669392986845 21.914261031054583 6.443395992235855 1 rotate no_reflect no_shear #
lump $-1 $-1 $47 $5 #
transform $-1 1 0 0 0 1 0 0 0 1 50.798669392986845 21.914261031054583 6.443395992235855 1 rotate no_reflect no_shear #
lump $-1 $-1 $48 $6 #
transform $-1 1 0 0 0 1 0 0 0 1 50.798669392986845 21.914261031054583 6.443395992235855 1 rotate no_reflect no_shear #
lump $-1 $-1 $49 $7 #
transform $-1 1 0 0 0 1 0 0 0 1 50.798669392986845 21.914261031054583 6.443395992235855 1 rotate no_reflect no_shear #
lump $-1 $-1 $50 $8 #
transform $-1 1 0 0 0 1 0 0 0 1 50.798669392986845 21.914261031054583 6.443395992235855 1 rotate no_reflect no_shear #
lump $-1 $-1 $51 $9 #
transform $-1 1 0 0 0 1 0 0 0 1 50.798669392986845 21.914261031054583 6.443395992235855 1 rotate no_reflect no_shear #
lump $-1 $-1 $52 $10 #
transform $-1 1 0 0 0 1 0 0 0 1 50.798669392986845 21.914261031054583 6.443395992235855 1 rotate no_reflect no_shear #
lump $-1 $-1 $53 $11 #
transform $-1 1 0 0 0 1 0 0 0 1 50.798669392986845 21.914261031054583 6.443395992235855 1 rotate no_reflect no_shear #
lump $-1 $-1 $54 $12 #
transform $-1 1 0 0 0 1 0 0 0 1 50.798669392986845 21.914261031054583 6.443395992235855 1 rotate no_reflect no_shear #
lump $-1 $-1 $55 $13 #
transform $-1 1 0 0 0 1 0 0 0 1 50.798669392986845 21.914261031054583 6.443395992235855 1 rotate no_reflect no_shear #
shell $-1 $-1 $-1 $56 $-1 $14 #
shell $-1 $-1 $-1 $57 $-1 $16 #
shell $-1 $-1 $-1 $58 $-1 $18 #
shell $-1 $-1 $-1 $59 $-1 $20 #
shell $-1 $-1 $-1 $60 $-1 $22 #
shell $-1 $-1 $-1 $61 $-1 $24 #
shell $-1 $-1 $-1 $62 $-1 $26 #
shell $-1 $-1 $-1 $63 $-1 $28 #
shell $-1 $-1 $-1 $64 $-1 $30 #
shell $-1 $-1 $-1 $65 $-1 $32 #
shell $-1 $-1 $-1 $66 $-1 $34 #
shell $-1 $-1 $-1 $67 $-1 $36 #
shell $-1 $-1 $-1 $68 $-1 $38 #
shell $-1 $-1 $-1 $69 $-1 $40 #
face $-1 $70 $71 $42 $-1 $72 forward single #
face $-1 $73 $74 $43 $-1 $75 forward single #
face $-1 $76 $77 $44 $-1 $78 reversed single #
face $-1 $79 $80 $45 $-1 $81 forward single #
face $-1 $82 $83 $46 $-1 $84 reversed single #
face $-1 $85 $86 $47 $-1 $87 forward single #
face $-1 $88 $89 $48 $-1 $90 reversed single #
face $-1 $91 $92 $49 $-1 $93 forward single #
face $-1 $94 $95 $50 $-1 $96 reversed single #
face $-1 $97 $98 $51 $-1 $99 forward single #
face $-1 $100 $101 $52 $-1 $102 reversed single #
face $-1 $103 $104 $53 $-1 $105 forward single #
face $-1 $106 $107 $54 $-1 $108 reversed single #
face $-1 $109 $110 $55 $-1 $111 forward single #
face $-1 $112 $113 $42 $-1 $114 reversed single #
loop $-1 $-1 $115 $56 #
plane-surface $-1 0 0 6.443395992235855 0 0 1 1 0 0 forward_v I I I I #
face $-1 $116 $117 $43 $-1 $118 reversed single #
loop $-1 $-1 $119 $57 #
plane-surface $-1 0 -17.726641598197801 3.3114369847339078 0 0 1 1 0 0 forward_v I I I I #
face $-1 $120 $121 $44 $-1 $122 reversed single #
loop $-1 $-1 $123 $58 #
plane-surface $-1 -110.51608756647212 -10.993145873869679 85.36098946529296 0 1 0 -0.5877852598018023 0 0.80901698891910034 forward_v I I I I #
face $-1 $124 $125 $45 $-1 $126 forward single #
loop $-1 $127 $128 $59 #
cone-surface $-1 -47.735423025855113 -7.3627793774897512 3.6924405519489936 0.5877852598018023 0 -0.80901698891910034 0.80901698891910034 0 0.5877852598018023 1 I I 0 1 1 forward I I I I #
face $-1 $129 $130 $46 $-1 $131 reversed single #
loop $-1 $-1 $132 $60 #
plane-surface $-1 -110.51608756647212 0.55725293647685703 85.36098946529296 0 1 0 -0.5877852598018023 0 0.80901698891910034 forward_v I I I I #
face $-1 $133 $134 $47 $-1 $135 forward single #
loop $-1 $136 $137 $61 #
cone-surface $-1 -47.735423025855113 4.1876194328567848 3.6924405519489936 0.5877852598018023 0 -0.80901698891910034 0.80901698891910034 0 0.5877852598018023 1 I I 0 1 1 forward I I I I #
face $-1 $138 $139 $48 $-1 $140 reversed single #
loop $-1 $-1 $141 $62 #
plane-surface $-1 -110.51608756647212 12.107651746823397 85.36098946529296 0 1 0 -0.5877852598018023 0 0.80901698891910034 forward_v I I I I #
face $-1 $142 $143 $49 $-1 $144 forward single #
loop $-1 $145 $146 $63 #
cone-surface $-1 -47.735423025855113 15.738018243203324 3.6924405519489936 0.5877852598018023 0 -0.80901698891910034 0.80901698891910034 0 0.5877852598018023 1 I I 0 1 1 forward I I I I #
face $-1 $147 $148 $50 $-1 $149 reversed single #
loop $-1 $-1 $150 $64 #
plane-surface $-1 28.32211445964996 -3.7324128811098234 145.07840763877823 0 -1 0 -0.5877852598018023 0 -0.80901698891910034 forward_v I I I I #
face $-1 $151 $152 $51 $-1 $153 forward single #
loop $-1 $154 $155 $65 #
cone-surface $-1 47.73542302585512 -7.3627793774897512 3.6924405519489865 -0.5877852598018023 0 -0.80901698891910034 0.80901698891910034 0 -0.5877852598018023 1 I I 0 1 1 forward I I I I #
face $-1 $156 $157 $52 $-1 $158 reversed single #
loop $-1 $-1 $159 $66 #
plane-surface $-1 28.32211445964996 7.8179859292367126 145.07840763877823 0 -1 0 -0.5877852598018023 0 -0.80901698891910034 forward_v I I I I #
face $-1 $160 $161 $53 $-1 $162 forward single #
loop $-1 $163 $164 $67 #
cone-surface $-1 47.73542302585512 4.1876194328567848 3.6924405519489865 -0.5877852598018023 0 -0.80901698891910034 0.80901698891910034 0 -0.5877852598018023 1 I I 0 1 1 forward I I I I #
face $-1 $165 $166 $54 $-1 $167 reversed single #
loop $-1 $-1 $168 $68 #
plane-surface $-1 28.32211445964996 19.368384739583252 145.07840763877823 0 -1 0 -0.5877852598018023 0 -0.80901698891910034 forward_v I I I I #
face $-1 $169 $170 $55 $-1 $171 forward single #
loop $-1 $172 $173 $69 #
cone-surface $-1 47.73542302585512 15.738018243203324 3.6924405519489865 -0.5877852598018023 0 -0.80901698891910034 0.80901698891910034 0 -0.5877852598018023 1 I I 0 1 1 forward I I I I #
face $-1 $174 $175 $42 $-1 $176 reversed single #
loop $-1 $-1 $177 $70 #
plane-surface $-1 0 0 -6.443395992235855 0 0 1 1 0 0 forward_v I I I I #
coedge $-1 $178 $179 $180 $181 forward $71 $-1 #
face $-1 $182 $183 $43 $-1 $184 reversed single #
loop $-1 $-1 $185 $73 #
plane-surface $-1 0 -17.726641598197801 0.31143698473390691 0 0 1 1 0 0 forward_v I I I I #
coedge $-1 $186 $187 $188 $189 reversed $74 $-1 #
face $-1 $190 $191 $44 $-1 $192 reversed single #
loop $-1 $-1 $193 $76 #
plane-surface $-1 -50.798669392986852 -7.3627793774897512 3.1670163584708035 -0.5877852598018023 0 0.80901698891910034 0.80901698891910034 0 0.5877852598018023 forward_v I I I I #
coedge $-1 $194 $195 $196 $197 reversed $77 $-1 #
face $-1 $-1 $198 $45 $-1 $199 forward single #
loop $-1 $200 $201 $79 #
cone-surface $-1 -46.633058831067672 -7.3627793774897512 2.1751664340851224 0.5877852598018023 0 -0.80901698891910034 0.40450849445955017 0 0.29389262990090115 1 I I -0.70710678118654746 0.70710678118654746 0.5 forward I I I I #
loop $-1 $-1 $202 $59 #
coedge $-1 $128 $128 $203 $204 reversed $80 $-1 #
face $-1 $205 $206 $46 $-1 $207 reversed single #
loop $-1 $-1 $208 $82 #
plane-surface $-1 -50.798669392986852 4.1876194328567848 3.1670163584708035 -0.5877852598018023 0 0.80901698891910034 0.80901698891910034 0 0.5877852598018023 forward_v I I I I #
coedge $-1 $209 $210 $211 $212 reversed $83 $-1 #
face $-1 $-1 $213 $47 $-1 $214 forward single #
loop $-1 $215 $216 $85 #
cone-surface $-1 -46.633058831067672 4.1876194328567848 2.1751664340851224 0.5877852598018023 0 -0.80901698891910034 0.40450849445955017 0 0.29389262990090115 1 I I -0.70710678118654746 0.70710678118654746 0.5 forward I I I I #
loop $-1 $-1 $217 $61 #
coedge $-1 $137 $137 $218 $219 reversed $86 $-1 #
face $-1 $220 $221 $48 $-1 $222 reversed single #
loop $-1 $-1 $223 $88 #
plane-surface $-1 -50.798669392986852 15.738018243203324 3.1670163584708035 -0.5877852598018023 0 0.80901698891910034 0.80901698891910034 0 0.5877852598018023 forward_v I I I I #
coedge $-1 $224 $225 $226 $227 reversed $89 $-1 #
face $-1 $-1 $228 $49 $-1 $229 forward single #
loop $-1 $230 $231 $91 #
cone-surface $-1 -46.633058831067672 15.738018243203324 2.1751664340851224 0.5877852598018023 0 -0.80901698891910034 0.40450849445955017 0 0.29389262990090115 1 I I -0.70710678118654746 0.70710678118654746 0.5 forward I I I I #
loop $-1 $-1 $232 $63 #
coedge $-1 $146 $146 $233 $234 reversed $92 $-1 #
face $-1 $235 $236 $50 $-1 $237 reversed single #
loop $-1 $-1 $238 $94 #
plane-surface $-1 -31.395303713835311 -7.3627793774897512 62.884434531956074 0.5877852598018023 0 0.80901698891910034 0.80901698891910034 0 -0.5877852598018023 forward_v I I I I #
coedge $-1 $239 $240 $241 $242 reversed $95 $-1 #
face $-1 $-1 $243 $51 $-1 $244 forward single #
loop $-1 $245 $246 $97 #
cone-surface $-1 46.633058831067679 -7.3627793774897512 2.1751664340851153 -0.5877852598018023 0 -0.80901698891910034 0.40450849445955017 0 -0.29389262990090115 1 I I -0.70710678118654746 0.70710678118654746 0.5 forward I I I I #
loop $-1 $-1 $247 $65 #
coedge $-1 $155 $155 $248 $249 reversed $98 $-1 #
face $-1 $250 $251 $52 $-1 $252 reversed single #
loop $-1 $-1 $253 $100 #
plane-surface $-1 -31.395303713835311 4.1876194328567848 62.884434531956074 0.5877852598018023 0 0.80901698891910034 0.80901698891910034 0 -0.5877852598018023 forward_v I I I I #
coedge $-1 $254 $255 $256 $257 reversed $101 $-1 #
face $-1 $-1 $258 $53 $-1 $259 forward single #
loop $-1 $260 $261 $103 #
cone-surface $-1 46.633058831067679 4.1876194328567848 2.1751664340851153 -0.5877852598018023 0 -0.80901698891910034 0.40450849445955017 0 -0.29389262990090115 1 I I -0.70710678118654746 0.70710678118654746 0.5 forward I I I I #
loop $-1 $-1 $262 $67 #
coedge $-1 $164 $164 $263 $264 reversed $104 $-1 #
face $-1 $265 $266 $54 $-1 $267 reversed single #
loop $-1 $-1 $268 $106 #
plane-surface $-1 -31.395303713835311 15.738018243203324 62.884434531956074 0.5877852598018023 0 0.80901698891910034 0.80901698891910034 0 -0.5877852598018023 forward_v I I I I #
coedge $-1 $269 $270 $271 $272 reversed $107 $-1 #
face $-1 $-1 $273 $55 $-1 $274 forward single #
loop $-1 $275 $276 $109 #
cone-surface $-1 46.633058831067679 15.738018243203324 2.1751664340851153 -0.5877852598018023 0 -0.80901698891910034 0.40450849445955017 0 -0.29389262990090115 1 I I -0.70710678118654746 0.70710678118654746 0.5 forward I I I I #
loop $-1 $-1 $277 $69 #
coedge $-1 $173 $173 $278 $279 reversed $110 $-1 #
face $-1 $280 $281 $42 $-1 $282 reversed single #
loop $-1 $-1 $283 $112 #
plane-surface $-1 0 -21.914261031054583 0 0 1 0 0 0 1 forward_v I I I I #
coedge $-1 $284 $285 $286 $287 forward $113 $-1 #
coedge $-1 $288 $115 $289 $290 forward $71 $-1 #
coedge $-1 $115 $288 $291 $292 forward $71 $-1 #
coedge $-1 $293 $294 $115 $181 reversed $295 $-1 #
edge $-1 $296 -21.914261031054583 $297 21.914261031054583 $180 $298 forward 7 unknown #
face $-1 $299 $300 $43 $-1 $301 reversed single #
loop $-1 $-1 $302 $116 #
plane-surface $-1 0 -13.53902216534102 1.8114369847339074 0 -1 0 0 0 -1 forward_v I I I I #
coedge $-1 $303 $304 $305 $306 reversed $117 $-1 #
coedge $-1 $307 $119 $308 $309 forward $74 $-1 #
coedge $-1 $119 $307 $310 $311 reversed $74 $-1 #
coedge $-1 $312 $313 $119 $189 forward $314 $-1 #
edge $-1 $315 4.6757013662421194 $316 13.050940231955682 $188 $317 forward 7 unknown #
face $-1 $318 $319 $44 $-1 $320 reversed single #
loop $-1 $-1 $321 $120 #
plane-surface $-1 -110.51608756647212 -3.7324128811098234 85.36098946529296 0 -1 0 0.5877852598018023 0 -0.80901698891910034 forward_v I I I I #
coedge $-1 $322 $323 $324 $325 reversed $121 $-1 #
coedge $-1 $195 $123 $326 $327 reversed $77 $-1 #
coedge $-1 $123 $194 $322 $328 reversed $77 $-1 #
coedge $-1 $324 $329 $123 $197 forward $330 $-1 #
edge $-1 $331 4.4593743902492164 $332 8.9689239947395478 $196 $333 forward 7 unknown #
loop $-1 $-1 $203 $124 #
plane-surface $-1 -50.798669392986852 -7.3627793774897512 3.1670163584708035 -0.5877852598018023 0 0.80901698891910034 0.80901698891910034 0 0.5877852598018023 forward_v I I I I #
loop $-1 $-1 $334 $79 #
coedge $-1 $201 $201 $202 $335 reversed $125 $-1 #
coedge $-1 $202 $202 $201 $335 forward $127 $-1 #
coedge $-1 $203 $203 $128 $204 forward $198 $-1 #
edge $-1 $336 0 $336 6.2831853071796004 $203 $337 forward 7 unknown #
face $-1 $338 $339 $46 $-1 $340 forward single #
loop $-1 $-1 $341 $129 #
plane-surface $-1 -110.51608756647212 7.8179859292367126 85.36098946529296 0 -1 0 0.5877852598018023 0 -0.80901698891910034 forward_v I I I I #
coedge $-1 $342 $343 $344 $345 reversed $130 $-1 #
coedge $-1 $210 $132 $346 $347 reversed $83 $-1 #
coedge $-1 $132 $209 $342 $348 reversed $83 $-1 #
coedge $-1 $344 $349 $132 $212 forward $339 $-1 #
edge $-1 $350 4.4593743902492164 $351 8.9689239947395478 $211 $352 forward 7 unknown #
loop $-1 $-1 $218 $133 #
plane-surface $-1 -50.798669392986852 4.1876194328567848 3.1670163584708035 -0.5877852598018023 0 0.80901698891910034 0.80901698891910034 0 0.5877852598018023 forward_v I I I I #
loop $-1 $-1 $353 $85 #
coedge $-1 $216 $216 $217 $354 reversed $134 $-1 #
coedge $-1 $217 $217 $216 $354 forward $136 $-1 #
coedge $-1 $218 $218 $137 $219 forward $213 $-1 #
edge $-1 $355 0 $355 6.2831853071796004 $218 $356 forward 7 unknown #
face $-1 $357 $358 $48 $-1 $359 forward single #
loop $-1 $-1 $360 $138 #
plane-surface $-1 -110.51608756647212 19.368384739583252 85.36098946529296 0 -1 0 0.5877852598018023 0 -0.80901698891910034 forward_v I I I I #
coedge $-1 $361 $362 $363 $364 reversed $139 $-1 #
coedge $-1 $225 $141 $365 $366 reversed $89 $-1 #
coedge $-1 $141 $224 $361 $367 reversed $89 $-1 #
coedge $-1 $363 $368 $141 $227 forward $358 $-1 #
edge $-1 $369 4.4593743902492164 $370 8.9689239947395478 $226 $371 forward 7 unknown #
loop $-1 $-1 $233 $142 #
plane-surface $-1 -50.798669392986852 15.738018243203324 3.1670163584708035 -0.5877852598018023 0 0.80901698891910034 0.80901698891910034 0 0.5877852598018023 forward_v I I I I #
loop $-1 $-1 $372 $91 #
coedge $-1 $231 $231 $232 $373 reversed $143 $-1 #
coedge $-1 $232 $232 $231 $373 forward $145 $-1 #
coedge $-1 $233 $233 $146 $234 forward $228 $-1 #
edge $-1 $374 0 $374 6.2831853071796004 $233 $375 forward 7 unknown #
face $-1 $376 $377 $50 $-1 $378 forward single #
loop $-1 $-1 $379 $147 #
plane-surface $-1 28.32211445964996 -10.993145873869679 145.07840763877823 0 1 0 0.5877852598018023 0 0.80901698891910034 forward_v I I I I #
coedge $-1 $380 $381 $382 $383 reversed $148 $-1 #
coedge $-1 $240 $150 $384 $385 reversed $95 $-1 #
coedge $-1 $150 $239 $380 $386 reversed $95 $-1 #
coedge $-1 $382 $387 $150 $242 forward $377 $-1 #
edge $-1 $388 -36.637612163161862 $389 -32.128062558671516 $241 $390 forward 7 unknown #
loop $-1 $-1 $248 $151 #
plane-surface $-1 -31.395303713835311 -7.3627793774897512 62.884434531956074 0.5877852598018023 0 0.80901698891910034 0.80901698891910034 0 -0.5877852598018023 forward_v I I I I #
loop $-1 $-1 $391 $97 #
coedge $-1 $246 $246 $247 $392 reversed $152 $-1 #
coedge $-1 $247 $247 $246 $392 forward $154 $-1 #
coedge $-1 $248 $248 $155 $249 forward $243 $-1 #
edge $-1 $393 0 $393 6.2831853071796004 $248 $394 forward 7 unknown #
face $-1 $395 $396 $52 $-1 $397 reversed single #
loop $-1 $-1 $398 $156 #
plane-surface $-1 28.32211445964996 0.55725293647685703 145.07840763877823 0 1 0 0.5877852598018023 0 0.80901698891910034 forward_v I I I I #
coedge $-1 $399 $400 $401 $402 reversed $157 $-1 #
coedge $-1 $255 $159 $403 $404 reversed $101 $-1 #
coedge $-1 $159 $254 $399 $405 reversed $101 $-1 #
coedge $-1 $401 $406 $159 $257 forward $407 $-1 #
edge $-1 $408 -36.637612163161862 $409 -32.128062558671516 $256 $410 forward 7 unknown #
loop $-1 $-1 $263 $160 #
plane-surface $-1 -31.395303713835311 4.1876194328567848 62.884434531956074 0.5877852598018023 0 0.80901698891910034 0.80901698891910034 0 -0.5877852598018023 forward_v I I I I #
loop $-1 $-1 $411 $103 #
coedge $-1 $261 $261 $262 $412 reversed $161 $-1 #
coedge $-1 $262 $262 $261 $412 forward $163 $-1 #
coedge $-1 $263 $263 $164 $264 forward $258 $-1 #
edge $-1 $413 0 $413 6.2831853071796004 $263 $414 forward 7 unknown #
face $-1 $415 $416 $54 $-1 $417 reversed single #
loop $-1 $-1 $418 $165 #
plane-surface $-1 28.32211445964996 12.107651746823397 145.07840763877823 0 1 0 0.5877852598018023 0 0.80901698891910034 forward_v I I I I #
coedge $-1 $419 $420 $421 $422 reversed $166 $-1 #
coedge $-1 $270 $168 $423 $424 reversed $107 $-1 #
coedge $-1 $168 $269 $419 $425 reversed $107 $-1 #
coedge $-1 $421 $426 $168 $272 forward $427 $-1 #
edge $-1 $428 -36.637612163161862 $429 -32.128062558671516 $271 $430 forward 7 unknown #
loop $-1 $-1 $278 $169 #
plane-surface $-1 -31.395303713835311 15.738018243203324 62.884434531956074 0.5877852598018023 0 0.80901698891910034 0.80901698891910034 0 -0.5877852598018023 forward_v I I I I #
loop $-1 $-1 $431 $109 #
coedge $-1 $276 $276 $277 $432 reversed $170 $-1 #
coedge $-1 $277 $277 $276 $432 forward $172 $-1 #
coedge $-1 $278 $278 $173 $279 forward $273 $-1 #
edge $-1 $433 0 $433 6.2831853071796004 $278 $434 forward 7 unknown #
face $-1 $435 $436 $42 $-1 $437 reversed single #
loop $-1 $-1 $438 $174 #
plane-surface $-1 -50.798669392986845 0 0 1 0 0 0 0 -1 forward_v I I I I #
coedge $-1 $439 $291 $440 $441 forward $175 $-1 #
coedge $-1 $442 $177 $439 $443 forward $113 $-1 #
coedge $-1 $177 $442 $444 $445 forward $113 $-1 #
coedge $-1 $294 $293 $177 $287 reversed $295 $-1 #
edge $-1 $446 -21.914261031054583 $447 21.914261031054583 $286 $448 forward 7 unknown #
coedge $-1 $179 $178 $449 $450 forward $71 $-1 #
coedge $-1 $451 $452 $178 $290 reversed $436 $-1 #
edge $-1 $297 -50.798669392986845 $453 50.798669392986845 $289 $454 forward 7 unknown #
coedge $-1 $283 $455 $179 $292 reversed $175 $-1 #
edge $-1 $456 -50.798669392986845 $296 50.798669392986845 $291 $457 forward 7 unknown #
coedge $-1 $286 $180 $455 $458 forward $295 $-1 #
coedge $-1 $180 $286 $451 $459 reversed $295 $-1 #
loop $-1 $-1 $293 $435 #
vertex $-1 $181 $460 #
vertex $-1 $181 $461 #
straight-curve $-1 50.798669392986845 0 6.443395992235855 0 1 0 I I #
face $-1 $462 $463 $43 $-1 $464 reversed single #
loop $-1 $-1 $465 $182 #
plane-surface $-1 -50.798669392986845 0 0 1 0 0 0 0 -1 forward_v I I I I #
coedge $-1 $466 $308 $313 $467 reversed $183 $-1 #
coedge $-1 $468 $185 $469 $470 reversed $117 $-1 #
coedge $-1 $185 $468 $466 $471 forward $117 $-1 #
coedge $-1 $313 $312 $185 $306 forward $314 $-1 #
edge $-1 $472 -13.050940231955682 $473 -4.6757013662421194 $305 $474 forward 7 unknown #
coedge $-1 $187 $186 $465 $475 reversed $74 $-1 #
coedge $-1 $302 $476 $186 $309 reversed $183 $-1 #
edge $-1 $315 -50.798669392986845 $477 50.798669392986845 $308 $478 forward 7 unknown #
coedge $-1 $479 $480 $187 $311 forward $463 $-1 #
edge $-1 $316 -50.798669392986845 $481 50.798669392986845 $310 $482 forward 7 unknown #
coedge $-1 $305 $188 $480 $483 forward $314 $-1 #
coedge $-1 $188 $305 $302 $467 forward $314 $-1 #
loop $-1 $-1 $188 $462 #
vertex $-1 $189 $484 #
vertex $-1 $483 $485 #
straight-curve $-1 50.798669392986845 -8.8633207990989007 3.3114369847339078 0 -1 0 I I #
face $-1 $-1 $330 $44 $-1 $486 forward single #
loop $-1 $-1 $487 $190 #
plane-surface $-1 -50.798669392986845 0 0 1 0 0 0 0 -1 forward_v I I I I #
coedge $-1 $488 $489 $490 $491 reversed $191 $-1 #
coedge $-1 $492 $193 $195 $328 forward $121 $-1 #
coedge $-1 $193 $492 $488 $493 forward $121 $-1 #
coedge $-1 $490 $196 $193 $325 forward $330 $-1 #
edge $-1 $332 -7.3117561851248034 $494 -0.051023192364947789 $324 $495 forward 7 unknown #
coedge $-1 $496 $497 $194 $327 forward $319 $-1 #
edge $-1 $498 -39.513478374175669 $331 -36.237098740410623 $326 $499 forward 7 unknown #
edge $-1 $332 -5.574109896648018 $498 -8.8807605448725156e-015 $195 $500 forward 7 unknown #
coedge $-1 $196 $490 $496 $501 forward $330 $-1 #
loop $-1 $-1 $490 $318 #
vertex $-1 $327 $502 #
vertex $-1 $197 $503 #
straight-curve $-1 -55.258043783236062 -10.993145873869679 6.4433959922358568 1 0 0 I I #
coedge $-1 $334 $334 $-1 $504 reversed $200 $-1 #
edge $-1 $505 0 $505 6.2831853071796004 $201 $506 forward 7 unknown #
vertex $-1 $204 $507 #
ellipse-curve $-1 -48.543894590741672 -7.3627793774897512 4.8052061753533382 -0.5877852598018023 0 0.80901698891910034 0.80901698891910034 0 0.5877852598018023 1 I I #
face $-1 $-1 $508 $46 $-1 $509 reversed single #
loop $-1 $-1 $211 $205 #
plane-surface $-1 0 0 6.443395992235855 0 0 1 1 0 0 forward_v I I I I #
coedge $-1 $510 $511 $512 $513 reversed $206 $-1 #
coedge $-1 $514 $208 $210 $348 forward $130 $-1 #
coedge $-1 $208 $514 $510 $515 forward $130 $-1 #
coedge $-1 $512 $211 $208 $345 forward $339 $-1 #
edge $-1 $351 -1.5365567799515354 $516 5.7241762128083202 $344 $517 forward 7 unknown #
coedge $-1 $518 $519 $209 $347 forward $508 $-1 #
edge $-1 $520 -39.513478374175669 $350 -36.237098740410623 $346 $521 forward 7 unknown #
edge $-1 $351 -5.574109896648018 $520 -8.8807605448725156e-015 $210 $522 forward 7 unknown #
coedge $-1 $211 $512 $518 $523 forward $339 $-1 #
vertex $-1 $212 $524 #
vertex $-1 $212 $525 #
straight-curve $-1 -55.258043783236062 0.55725293647685703 6.4433959922358568 1 0 0 I I #
coedge $-1 $353 $353 $-1 $526 reversed $215 $-1 #
edge $-1 $527 0 $527 6.2831853071796004 $216 $528 forward 7 unknown #
vertex $-1 $219 $529 #
ellipse-curve $-1 -48.543894590741672 4.1876194328567848 4.8052061753533382 -0.5877852598018023 0 0.80901698891910034 0.80901698891910034 0 0.5877852598018023 1 I I #
face $-1 $-1 $530 $48 $-1 $531 reversed single #
loop $-1 $-1 $226 $220 #
plane-surface $-1 0 0 6.443395992235855 0 0 1 1 0 0 forward_v I I I I #
coedge $-1 $532 $533 $534 $535 reversed $221 $-1 #
coedge $-1 $536 $223 $225 $367 forward $139 $-1 #
coedge $-1 $223 $536 $532 $537 forward $139 $-1 #
coedge $-1 $534 $226 $223 $364 forward $358 $-1 #
edge $-1 $370 4.2386426252217344 $538 11.49937561798159 $363 $539 forward 7 unknown #
coedge $-1 $540 $541 $224 $366 forward $530 $-1 #
edge $-1 $542 -39.513478374175669 $369 -36.237098740410623 $365 $543 forward 7 unknown #
edge $-1 $370 -5.574109896648018 $542 -8.8807605448725156e-015 $225 $544 forward 7 unknown #
coedge $-1 $226 $534 $540 $545 forward $358 $-1 #
vertex $-1 $227 $546 #
vertex $-1 $227 $547 #
straight-curve $-1 -55.258043783236062 12.107651746823397 6.4433959922358568 1 0 0 I I #
coedge $-1 $372 $372 $-1 $548 reversed $230 $-1 #
edge $-1 $549 0 $549 6.2831853071796004 $231 $550 forward 7 unknown #
vertex $-1 $234 $551 #
ellipse-curve $-1 -48.543894590741672 15.738018243203324 4.8052061753533382 -0.5877852598018023 0 0.80901698891910034 0.80901698891910034 0 0.5877852598018023 1 I I #
face $-1 $-1 $552 $50 $-1 $553 reversed single #
loop $-1 $-1 $241 $235 #
plane-surface $-1 0 0 6.443395992235855 0 0 1 1 0 0 forward_v I I I I #
coedge $-1 $554 $555 $556 $557 reversed $236 $-1 #
coedge $-1 $558 $238 $240 $386 forward $148 $-1 #
coedge $-1 $238 $558 $554 $559 forward $148 $-1 #
coedge $-1 $556 $241 $238 $383 forward $377 $-1 #
edge $-1 $389 0.051023192364947789 $560 7.3117561851248034 $382 $561 forward 7 unknown #
coedge $-1 $562 $563 $239 $385 forward $552 $-1 #
edge $-1 $564 -69.372187460918312 $388 -66.095807827153266 $384 $565 forward 7 unknown #
edge $-1 $389 96.023228889325651 $564 101.59733878597368 $240 $566 forward 7 unknown #
coedge $-1 $241 $556 $562 $567 forward $377 $-1 #
vertex $-1 $385 $568 #
vertex $-1 $242 $569 #
straight-curve $-1 14.16105722982498 -3.7324128811098234 6.4433959922358497 -1 0 0 I I #
coedge $-1 $391 $391 $-1 $570 reversed $245 $-1 #
edge $-1 $571 0 $571 6.2831853071796004 $246 $572 forward 7 unknown #
vertex $-1 $249 $573 #
ellipse-curve $-1 48.543894590741679 -7.3627793774897512 4.8052061753533337 0.5877852598018023 0 0.80901698891910034 0.80901698891910034 0 -0.5877852598018023 1 I I #
face $-1 $-1 $407 $52 $-1 $574 forward single #
loop $-1 $-1 $575 $250 #
plane-surface $-1 50.798669392986845 0 0 -1 0 0 0 0 1 forward_v I I I I #
coedge $-1 $576 $577 $578 $579 reversed $251 $-1 #
coedge $-1 $580 $253 $255 $405 forward $157 $-1 #
coedge $-1 $253 $580 $576 $581 forward $157 $-1 #
coedge $-1 $578 $256 $253 $402 forward $407 $-1 #
edge $-1 $409 -5.7241762128083202 $582 1.5365567799515354 $401 $583 forward 7 unknown #
coedge $-1 $584 $585 $254 $404 forward $396 $-1 #
edge $-1 $586 -69.372187460918312 $408 -66.095807827153266 $403 $587 forward 7 unknown #
edge $-1 $409 96.023228889325651 $586 101.59733878597368 $255 $588 forward 7 unknown #
coedge $-1 $256 $578 $584 $589 forward $407 $-1 #
loop $-1 $-1 $578 $395 #
vertex $-1 $404 $590 #
vertex $-1 $257 $591 #
straight-curve $-1 14.16105722982498 7.8179859292367126 6.4433959922358497 -1 0 0 I I #
coedge $-1 $411 $411 $-1 $592 reversed $260 $-1 #
edge $-1 $593 0 $593 6.2831853071796004 $261 $594 forward 7 unknown #
vertex $-1 $264 $595 #
ellipse-curve $-1 48.543894590741679 4.1876194328567848 4.8052061753533337 0.5877852598018023 0 0.80901698891910034 0.80901698891910034 0 -0.5877852598018023 1 I I #
face $-1 $-1 $427 $54 $-1 $596 forward single #
loop $-1 $-1 $597 $265 #
plane-surface $-1 50.798669392986845 0 0 -1 0 0 0 0 1 forward_v I I I I #
coedge $-1 $598 $599 $600 $601 reversed $266 $-1 #
coedge $-1 $602 $268 $270 $425 forward $166 $-1 #
coedge $-1 $268 $602 $598 $603 forward $166 $-1 #
coedge $-1 $600 $271 $268 $422 forward $427 $-1 #
edge $-1 $429 -11.49937561798159 $604 -4.2386426252217344 $421 $605 forward 7 unknown #
coedge $-1 $606 $607 $269 $424 forward $416 $-1 #
edge $-1 $608 -69.372187460918312 $428 -66.095807827153266 $423 $609 forward 7 unknown #
edge $-1 $429 96.023228889325651 $608 101.59733878597368 $270 $610 forward 7 unknown #
coedge $-1 $271 $600 $606 $611 forward $427 $-1 #
loop $-1 $-1 $600 $415 #
vertex $-1 $424 $612 #
vertex $-1 $272 $613 #
straight-curve $-1 14.16105722982498 19.368384739583252 6.4433959922358497 -1 0 0 I I #
coedge $-1 $431 $431 $-1 $614 reversed $275 $-1 #
edge $-1 $615 0 $615 6.2831853071796004 $276 $616 forward 7 unknown #
vertex $-1 $279 $617 #
ellipse-curve $-1 48.543894590741679 15.738018243203324 4.8052061753533337 0.5877852598018023 0 0.80901698891910034 0.80901698891910034 0 -0.5877852598018023 1 I I #
face $-1 $-1 $295 $42 $-1 $618 reversed single #
loop $-1 $-1 $451 $280 #
plane-surface $-1 0 21.914261031054583 0 0 -1 0 0 0 -1 forward_v I I I I #
coedge $-1 $619 $449 $452 $620 forward $281 $-1 #
coedge $-1 $455 $283 $284 $443 reversed $175 $-1 #
coedge $-1 $449 $619 $283 $441 reversed $281 $-1 #
edge $-1 $456 -6.443395992235855 $621 6.443395992235855 $440 $622 forward 7 unknown #
coedge $-1 $285 $284 $619 $623 forward $113 $-1 #
edge $-1 $447 -50.798669392986845 $621 50.798669392986845 $439 $624 forward 7 unknown #
coedge $-1 $452 $451 $285 $445 reversed $436 $-1 #
edge $-1 $625 -50.798669392986845 $446 50.798669392986845 $444 $626 forward 7 unknown #
vertex $-1 $287 $627 #
vertex $-1 $458 $628 #
straight-curve $-1 50.798669392986845 0 -6.443395992235855 0 -1 0 I I #
coedge $-1 $438 $440 $288 $450 reversed $281 $-1 #
edge $-1 $453 -21.914261031054583 $456 21.914261031054583 $449 $629 forward 7 unknown #
coedge $-1 $444 $289 $294 $459 forward $436 $-1 #
coedge $-1 $289 $444 $438 $620 reversed $436 $-1 #
vertex $-1 $290 $630 #
straight-curve $-1 0 21.914261031054583 6.443395992235855 -1 0 0 I I #
coedge $-1 $291 $439 $293 $458 reversed $175 $-1 #
vertex $-1 $450 $631 #
straight-curve $-1 0 -21.914261031054583 6.443395992235855 1 0 0 I I #
edge $-1 $296 -6.443395992235855 $447 6.443395992235855 $293 $632 forward 7 unknown #
edge $-1 $297 -6.443395992235855 $446 6.443395992235855 $294 $633 forward 7 unknown #
point $-1 50.798669392986845 -21.914261031054583 6.443395992235855 #
point $-1 50.798669392986845 21.914261031054583 6.443395992235855 #
face $-1 $-1 $314 $43 $-1 $634 reversed single #
loop $-1 $-1 $310 $299 #
plane-surface $-1 0 -21.914261031054583 0 0 1 0 0 0 1 forward_v I I I I #
coedge $-1 $635 $636 $307 $475 forward $300 $-1 #
coedge $-1 $476 $302 $304 $471 reversed $183 $-1 #
edge $-1 $473 -0.59428150763304677 $315 2.4057184923669541 $313 $637 forward 7 unknown #
coedge $-1 $304 $303 $638 $639 reversed $117 $-1 #
coedge $-1 $480 $479 $303 $470 forward $463 $-1 #
edge $-1 $640 -50.798669392986845 $472 50.798669392986845 $469 $641 forward 7 unknown #
edge $-1 $642 -50.798669392986845 $473 50.798669392986845 $466 $643 forward 7 unknown #
vertex $-1 $470 $644 #
vertex $-1 $306 $645 #
straight-curve $-1 50.798669392986845 -8.8633207990989007 0.31143698473390691 0 1 0 I I #
edge $-1 $481 -13.050940231955682 $477 -4.6757013662421194 $465 $646 forward 7 unknown #
coedge $-1 $308 $466 $635 $647 reversed $183 $-1 #
vertex $-1 $475 $648 #
straight-curve $-1 0 -13.53902216534102 3.3114369847339078 -1 0 0 I I #
coedge $-1 $469 $310 $636 $649 forward $463 $-1 #
coedge $-1 $310 $469 $312 $483 reversed $463 $-1 #
vertex $-1 $649 $650 #
straight-curve $-1 0 -21.914261031054583 3.3114369847339078 -1 0 0 I I #
edge $-1 $316 -3.3114369847339078 $472 -0.31143698473390691 $312 $651 forward 7 unknown #
point $-1 50.798669392986845 -13.53902216534102 3.3114369847339078 #
point $-1 50.798669392986845 -21.914261031054583 3.3114369847339078 #
plane-surface $-1 0 0 6.443395992235855 0 0 1 1 0 0 forward_v I I I I #
coedge $-1 $497 $496 $489 $652 forward $319 $-1 #
coedge $-1 $489 $321 $323 $493 reversed $191 $-1 #
coedge $-1 $321 $488 $487 $652 reversed $191 $-1 #
coedge $-1 $329 $324 $321 $491 forward $330 $-1 #
edge $-1 $494 -8.9689239947395478 $653 -4.4593743902492164 $490 $654 forward 7 unknown #
coedge $-1 $323 $322 $497 $655 reversed $121 $-1 #
edge $-1 $656 8.8807605448725156e-015 $494 5.574109896648018 $488 $657 forward 7 unknown #
vertex $-1 $325 $658 #
straight-curve $-1 -46.289119788496514 -3.6813896887448756 6.443395992235855 0 1 0 I I #
coedge $-1 $487 $326 $329 $501 reversed $319 $-1 #
coedge $-1 $326 $487 $492 $655 forward $319 $-1 #
vertex $-1 $327 $659 #
straight-curve $-1 -50.798669392986845 -10.993145873869679 42.68049473264648 0 0 1 I I #
straight-curve $-1 -50.798669392986852 -10.993145873869679 3.1670163584708035 -0.80901698891910034 0 -0.5877852598018023 I I #
edge $-1 $653 3.7324128811098234 $331 10.993145873869679 $496 $660 forward 7 unknown #
point $-1 -50.798669392986845 -10.993145873869679 6.443395992235855 #
point $-1 -46.289119788496514 -10.993145873869679 6.443395992235855 #
edge $-1 $661 1 $661 0 $334 $-1 forward 7 unknown #
vertex $-1 $335 $662 #
ellipse-curve $-1 -46.926951460968574 -7.3627793774897512 2.5796749285446725 -0.5877852598018023 0 0.80901698891910034 0.80901698891910034 0 0.5877852598018023 1 I I #
point $-1 -47.734877601822554 -7.3627793774897512 5.3929914351551176 #
loop $-1 $-1 $346 $338 #
plane-surface $-1 -50.798669392986845 0 0 1 0 0 0 0 -1 forward_v I I I I #
coedge $-1 $511 $341 $343 $515 reversed $206 $-1 #
coedge $-1 $341 $510 $663 $664 reversed $206 $-1 #
coedge $-1 $349 $344 $341 $513 forward $339 $-1 #
edge $-1 $516 -8.9689239947395478 $665 -4.4593743902492164 $512 $666 forward 7 unknown #
coedge $-1 $343 $342 $519 $667 reversed $130 $-1 #
edge $-1 $668 8.8807605448725156e-015 $516 5.574109896648018 $510 $669 forward 7 unknown #
vertex $-1 $345 $670 #
straight-curve $-1 -46.289119788496514 2.0938097164283924 6.443395992235855 0 1 0 I I #
coedge $-1 $663 $346 $349 $523 reversed $508 $-1 #
coedge $-1 $346 $663 $514 $667 forward $508 $-1 #
vertex $-1 $347 $671 #
straight-curve $-1 -50.798669392986845 0.55725293647685703 42.68049473264648 0 0 1 I I #
straight-curve $-1 -50.798669392986852 0.55725293647685703 3.1670163584708035 -0.80901698891910034 0 -0.5877852598018023 I I #
edge $-1 $665 -7.8179859292367126 $350 -0.55725293647685703 $518 $672 forward 7 unknown #
point $-1 -50.798669392986845 0.55725293647685703 6.443395992235855 #
point $-1 -46.289119788496514 0.55725293647685703 6.443395992235855 #
edge $-1 $673 1 $673 0 $353 $-1 forward 7 unknown #
vertex $-1 $354 $674 #
ellipse-curve $-1 -46.926951460968574 4.1876194328567848 2.5796749285446725 -0.5877852598018023 0 0.80901698891910034 0.80901698891910034 0 0.5877852598018023 1 I I #
point $-1 -47.734877601822554 4.1876194328567848 5.3929914351551176 #
loop $-1 $-1 $365 $357 #
plane-surface $-1 -50.798669392986845 0 0 1 0 0 0 0 -1 forward_v I I I I #
coedge $-1 $533 $360 $362 $537 reversed $221 $-1 #
coedge $-1 $360 $532 $675 $676 reversed $221 $-1 #
coedge $-1 $368 $363 $360 $535 forward $358 $-1 #
edge $-1 $538 -8.9689239947395478 $677 -4.4593743902492164 $534 $678 forward 7 unknown #
coedge $-1 $362 $361 $541 $679 reversed $139 $-1 #
edge $-1 $680 8.8807605448725156e-015 $538 5.574109896648018 $532 $681 forward 7 unknown #
vertex $-1 $364 $682 #
straight-curve $-1 -46.289119788496514 7.8690091216016622 6.443395992235855 0 1 0 I I #
coedge $-1 $675 $365 $368 $545 reversed $530 $-1 #
coedge $-1 $365 $675 $536 $679 forward $530 $-1 #
vertex $-1 $366 $683 #
straight-curve $-1 -50.798669392986845 12.107651746823397 42.68049473264648 0 0 1 I I #
straight-curve $-1 -50.798669392986852 12.107651746823397 3.1670163584708035 -0.80901698891910034 0 -0.5877852598018023 I I #
edge $-1 $677 -19.368384739583252 $369 -12.107651746823397 $540 $684 forward 7 unknown #
point $-1 -50.798669392986845 12.107651746823397 6.443395992235855 #
point $-1 -46.289119788496514 12.107651746823397 6.443395992235855 #
edge $-1 $685 1 $685 0 $372 $-1 forward 7 unknown #
vertex $-1 $373 $686 #
ellipse-curve $-1 -46.926951460968574 15.738018243203324 2.5796749285446725 -0.5877852598018023 0 0.80901698891910034 0.80901698891910034 0 0.5877852598018023 1 I I #
point $-1 -47.734877601822554 15.738018243203324 5.3929914351551176 #
loop $-1 $-1 $384 $376 #
plane-surface $-1 50.798669392986845 0 0 -1 0 0 0 0 1 forward_v I I I I #
coedge $-1 $555 $379 $381 $559 reversed $236 $-1 #
coedge $-1 $379 $554 $687 $688 reversed $236 $-1 #
coedge $-1 $387 $382 $379 $557 forward $377 $-1 #
edge $-1 $560 32.128062558671516 $689 36.637612163161862 $556 $690 forward 7 unknown #
coedge $-1 $381 $380 $563 $691 reversed $148 $-1 #
edge $-1 $692 -101.59733878597368 $560 -96.023228889325651 $554 $693 forward 7 unknown #
vertex $-1 $383 $694 #
straight-curve $-1 46.289119788496507 -3.6813896887448756 6.4433959922358568 0 -1 0 I I #
coedge $-1 $687 $384 $387 $567 reversed $552 $-1 #
coedge $-1 $384 $687 $558 $691 forward $552 $-1 #
vertex $-1 $385 $695 #
straight-curve $-1 50.798669392986845 -3.7324128811098234 72.539203819389115 0 0 1 I I #
straight-curve $-1 -31.395303713835311 -3.7324128811098234 62.884434531956074 0.80901698891910034 0 -0.5877852598018023 I I #
edge $-1 $689 -10.993145873869679 $388 -3.7324128811098234 $562 $696 forward 7 unknown #
point $-1 50.798669392986845 -3.7324128811098234 6.443395992235855 #
point $-1 46.2891197884965 -3.7324128811098234 6.4433959922358639 #
edge $-1 $697 1 $697 0 $391 $-1 forward 7 unknown #
vertex $-1 $392 $698 #
ellipse-curve $-1 46.926951460968581 -7.3627793774897512 2.5796749285446654 0.5877852598018023 0 0.80901698891910034 0.80901698891910034 0 -0.5877852598018023 1 I I #
point $-1 49.352911579660763 -7.3627793774897512 4.2174209155515054 #
plane-surface $-1 0 0 6.443395992235855 0 0 1 1 0 0 forward_v I I I I #
coedge $-1 $585 $584 $577 $699 forward $396 $-1 #
coedge $-1 $577 $398 $400 $581 reversed $251 $-1 #
coedge $-1 $398 $576 $575 $699 reversed $251 $-1 #
coedge $-1 $406 $401 $398 $579 forward $407 $-1 #
edge $-1 $582 32.128062558671516 $700 36.637612163161862 $578 $701 forward 7 unknown #
coedge $-1 $400 $399 $585 $702 reversed $157 $-1 #
edge $-1 $703 -101.59733878597368 $582 -96.023228889325651 $576 $704 forward 7 unknown #
vertex $-1 $402 $705 #
straight-curve $-1 46.289119788496507 2.0938097164283924 6.4433959922358568 0 -1 0 I I #
coedge $-1 $575 $403 $406 $589 reversed $396 $-1 #
coedge $-1 $403 $575 $580 $702 forward $396 $-1 #
vertex $-1 $404 $706 #
straight-curve $-1 50.798669392986845 7.8179859292367126 72.539203819389115 0 0 1 I I #
straight-curve $-1 -31.395303713835311 7.8179859292367126 62.884434531956074 0.80901698891910034 0 -0.5877852598018023 I I #
edge $-1 $700 0.55725293647685703 $408 7.8179859292367126 $584 $707 forward 7 unknown #
point $-1 50.798669392986845 7.8179859292367126 6.443395992235855 #
point $-1 46.2891197884965 7.8179859292367126 6.4433959922358639 #
edge $-1 $708 1 $708 0 $411 $-1 forward 7 unknown #
vertex $-1 $412 $709 #
ellipse-curve $-1 46.926951460968581 4.1876194328567848 2.5796749285446654 0.5877852598018023 0 0.80901698891910034 0.80901698891910034 0 -0.5877852598018023 1 I I #
point $-1 49.352911579660763 4.1876194328567848 4.2174209155515054 #
plane-surface $-1 0 0 6.443395992235855 0 0 1 1 0 0 forward_v I I I I #
coedge $-1 $607 $606 $599 $710 forward $416 $-1 #
coedge $-1 $599 $418 $420 $603 reversed $266 $-1 #
coedge $-1 $418 $598 $597 $710 reversed $266 $-1 #
coedge $-1 $426 $421 $418 $601 forward $427 $-1 #
edge $-1 $604 32.128062558671516 $711 36.637612163161862 $600 $712 forward 7 unknown #
coedge $-1 $420 $419 $607 $713 reversed $166 $-1 #
edge $-1 $714 -101.59733878597368 $604 -96.023228889325651 $598 $715 forward 7 unknown #
vertex $-1 $422 $716 #
straight-curve $-1 46.289119788496507 7.8690091216016622 6.4433959922358568 0 -1 0 I I #
coedge $-1 $597 $423 $426 $611 reversed $416 $-1 #
coedge $-1 $423 $597 $602 $713 forward $416 $-1 #
vertex $-1 $424 $717 #
straight-curve $-1 50.798669392986845 19.368384739583252 72.539203819389115 0 0 1 I I #
straight-curve $-1 -31.395303713835311 19.368384739583252 62.884434531956074 0.80901698891910034 0 -0.5877852598018023 I I #
edge $-1 $711 12.107651746823397 $428 19.368384739583252 $606 $718 forward 7 unknown #
point $-1 50.798669392986845 19.368384739583252 6.443395992235855 #
point $-1 46.2891197884965 19.368384739583252 6.4433959922358639 #
edge $-1 $719 1 $719 0 $431 $-1 forward 7 unknown #
vertex $-1 $432 $720 #
ellipse-curve $-1 46.926951460968581 15.738018243203324 2.5796749285446654 0.5877852598018023 0 0.80901698891910034 0.80901698891910034 0 -0.5877852598018023 1 I I #
point $-1 49.352911579660763 15.738018243203324 4.2174209155515054 #
plane-surface $-1 50.798669392986845 0 0 -1 0 0 0 0 1 forward_v I I I I #
coedge $-1 $440 $438 $442 $623 reversed $281 $-1 #
edge $-1 $453 -6.443395992235855 $625 6.443395992235855 $452 $721 forward 7 unknown #
vertex $-1 $623 $722 #
straight-curve $-1 -50.798669392986845 -21.914261031054583 0 0 0 -1 I I #
edge $-1 $621 -21.914261031054583 $625 21.914261031054583 $619 $723 forward 7 unknown #
straight-curve $-1 0 -21.914261031054583 -6.443395992235855 -1 0 0 I I #
vertex $-1 $445 $724 #
straight-curve $-1 0 21.914261031054583 -6.443395992235855 1 0 0 I I #
point $-1 50.798669392986845 21.914261031054583 -6.443395992235855 #
point $-1 50.798669392986845 -21.914261031054583 -6.443395992235855 #
straight-curve $-1 -50.798669392986845 0 6.443395992235855 0 -1 0 I I #
point $-1 -50.798669392986845 21.914261031054583 6.443395992235855 #
point $-1 -50.798669392986845 -21.914261031054583 6.443395992235855 #
straight-curve $-1 50.798669392986845 -21.914261031054583 0 0 0 -1 I I #
straight-curve $-1 50.798669392986845 21.914261031054583 0 0 0 -1 I I #
plane-surface $-1 50.798669392986845 0 0 -1 0 0 0 0 1 forward_v I I I I #
coedge $-1 $638 $465 $476 $647 forward $300 $-1 #
coedge $-1 $465 $638 $479 $649 reversed $300 $-1 #
straight-curve $-1 50.798669392986845 -13.53902216534102 0.90571849236695368 0 0 1 I I #
coedge $-1 $636 $635 $468 $639 forward $300 $-1 #
edge $-1 $642 4.6757013662421194 $640 13.050940231955682 $638 $725 forward 7 unknown #
vertex $-1 $470 $726 #
straight-curve $-1 0 -21.914261031054583 0.31143698473390691 1 0 0 I I #
vertex $-1 $639 $727 #
straight-curve $-1 0 -13.53902216534102 0.31143698473390691 1 0 0 I I #
point $-1 50.798669392986845 -21.914261031054583 0.31143698473390691 #
point $-1 50.798669392986845 -13.53902216534102 0.31143698473390691 #
straight-curve $-1 -50.798669392986845 -8.8633207990989007 3.3114369847339078 0 1 0 I I #
edge $-1 $477 -2.4057184923669541 $642 0.59428150763304677 $635 $728 forward 7 unknown #
point $-1 -50.798669392986845 -13.53902216534102 3.3114369847339078 #
edge $-1 $481 -3.3114369847339078 $640 -0.31143698473390691 $636 $729 forward 7 unknown #
point $-1 -50.798669392986845 -21.914261031054583 3.3114369847339078 #
straight-curve $-1 50.798669392986845 -21.914261031054583 0 0 0 -1 I I #
edge $-1 $653 36.237098740410623 $656 39.513478374175669 $487 $730 forward 7 unknown #
vertex $-1 $501 $731 #
straight-curve $-1 -55.258043783236062 -3.7324128811098234 6.4433959922358568 -1 0 0 I I #
edge $-1 $656 0.051023192364947789 $498 7.3117561851248034 $497 $732 forward 7 unknown #
vertex $-1 $655 $733 #
straight-curve $-1 -50.798669392986852 -3.7324128811098234 3.1670163584708035 0.80901698891910034 0 0.5877852598018023 I I #
point $-1 -46.289119788496514 -3.7324128811098234 6.443395992235855 #
point $-1 -50.798669392986845 -10.993145873869679 3.1670163584708089 #
straight-curve $-1 -50.798669392986845 0 6.443395992235855 0 -1 0 I I #
vertex $-1 $504 $734 #
point $-1 -46.11793447204947 -7.3627793774897512 3.167460188346475 #
coedge $-1 $519 $518 $511 $664 forward $508 $-1 #
edge $-1 $665 36.237098740410623 $668 39.513478374175669 $663 $735 forward 7 unknown #
vertex $-1 $523 $736 #
straight-curve $-1 -55.258043783236062 7.8179859292367126 6.4433959922358568 -1 0 0 I I #
edge $-1 $668 -5.7241762128083202 $520 1.5365567799515354 $519 $737 forward 7 unknown #
vertex $-1 $667 $738 #
straight-curve $-1 -50.798669392986852 7.8179859292367126 3.1670163584708035 0.80901698891910034 0 0.5877852598018023 I I #
point $-1 -46.289119788496514 7.8179859292367126 6.443395992235855 #
point $-1 -50.798669392986845 0.55725293647685703 3.1670163584708089 #
straight-curve $-1 -50.798669392986845 0 6.443395992235855 0 -1 0 I I #
vertex $-1 $526 $739 #
point $-1 -46.11793447204947 4.1876194328567848 3.167460188346475 #
coedge $-1 $541 $540 $533 $676 forward $530 $-1 #
edge $-1 $677 36.237098740410623 $680 39.513478374175669 $675 $740 forward 7 unknown #
vertex $-1 $545 $741 #
straight-curve $-1 -55.258043783236062 19.368384739583252 6.4433959922358568 -1 0 0 I I #
edge $-1 $680 -11.49937561798159 $542 -4.2386426252217344 $541 $742 forward 7 unknown #
vertex $-1 $679 $743 #
straight-curve $-1 -50.798669392986852 19.368384739583252 3.1670163584708035 0.80901698891910034 0 0.5877852598018023 I I #
point $-1 -46.289119788496514 19.368384739583252 6.443395992235855 #
point $-1 -50.798669392986845 12.107651746823397 3.1670163584708089 #
straight-curve $-1 -50.798669392986845 0 6.443395992235855 0 -1 0 I I #
vertex $-1 $548 $744 #
point $-1 -46.11793447204947 15.738018243203324 3.167460188346475 #
coedge $-1 $563 $562 $555 $688 forward $552 $-1 #
edge $-1 $689 66.095807827153266 $692 69.372187460918312 $687 $745 forward 7 unknown #
vertex $-1 $567 $746 #
straight-curve $-1 14.16105722982498 -10.993145873869679 6.4433959922358497 1 0 0 I I #
edge $-1 $692 -7.3117561851248034 $564 -0.051023192364947789 $563 $747 forward 7 unknown #
vertex $-1 $691 $748 #
straight-curve $-1 -31.395303713835311 -10.993145873869679 62.884434531956074 -0.80901698891910034 0 0.5877852598018023 I I #
point $-1 46.2891197884965 -10.993145873869679 6.4433959922358639 #
point $-1 50.798669392986845 -3.7324128811098234 3.1670163584708035 #
straight-curve $-1 50.798669392986845 0 6.443395992235855 0 1 0 I I #
vertex $-1 $570 $749 #
point $-1 47.735968449887679 -7.3627793774897512 1.9918896687428633 #
edge $-1 $700 66.095807827153266 $703 69.372187460918312 $575 $750 forward 7 unknown #
vertex $-1 $589 $751 #
straight-curve $-1 14.16105722982498 0.55725293647685703 6.4433959922358497 1 0 0 I I #
edge $-1 $703 -1.5365567799515354 $586 5.7241762128083202 $585 $752 forward 7 unknown #
vertex $-1 $702 $753 #
straight-curve $-1 -31.395303713835311 0.55725293647685703 62.884434531956074 -0.80901698891910034 0 0.5877852598018023 I I #
point $-1 46.2891197884965 0.55725293647685703 6.4433959922358639 #
point $-1 50.798669392986845 7.8179859292367126 3.1670163584708035 #
straight-curve $-1 50.798669392986845 0 6.443395992235855 0 1 0 I I #
vertex $-1 $592 $754 #
point $-1 47.735968449887679 4.1876194328567848 1.9918896687428633 #
edge $-1 $711 66.095807827153266 $714 69.372187460918312 $597 $755 forward 7 unknown #
vertex $-1 $611 $756 #
straight-curve $-1 14.16105722982498 12.107651746823397 6.4433959922358497 1 0 0 I I #
edge $-1 $714 4.2386426252217344 $608 11.49937561798159 $607 $757 forward 7 unknown #
vertex $-1 $713 $758 #
straight-curve $-1 -31.395303713835311 12.107651746823397 62.884434531956074 -0.80901698891910034 0 0.5877852598018023 I I #
point $-1 46.2891197884965 12.107651746823397 6.4433959922358639 #
point $-1 50.798669392986845 19.368384739583252 3.1670163584708035 #
straight-curve $-1 50.798669392986845 0 6.443395992235855 0 1 0 I I #
vertex $-1 $614 $759 #
point $-1 47.735968449887679 15.738018243203324 1.9918896687428633 #
straight-curve $-1 -50.798669392986845 21.914261031054583 0 0 0 -1 I I #
point $-1 -50.798669392986845 -21.914261031054583 -6.443395992235855 #
straight-curve $-1 -50.798669392986845 0 -6.443395992235855 0 1 0 I I #
point $-1 -50.798669392986845 21.914261031054583 -6.443395992235855 #
straight-curve $-1 -50.798669392986845 -8.8633207990989007 0.31143698473390691 0 -1 0 I I #
point $-1 -50.798669392986845 -21.914261031054583 0.31143698473390691 #
point $-1 -50.798669392986845 -13.53902216534102 0.31143698473390691 #
straight-curve $-1 -50.798669392986845 -13.53902216534102 0.90571849236695368 0 0 -1 I I #
straight-curve $-1 -50.798669392986845 -21.914261031054583 0 0 0 -1 I I #
straight-curve $-1 -50.798669392986845 -3.7324128811098234 42.68049473264648 0 0 -1 I I #
point $-1 -50.798669392986845 -3.7324128811098234 6.443395992235855 #
straight-curve $-1 -50.798669392986845 -3.6813896887448756 3.1670163584708124 0 -1 0 I I #
point $-1 -50.798669392986845 -3.7324128811098234 3.1670163584708089 #
point $-1 -46.339166201166769 -7.3627793774897512 1.7706579396255724 #
straight-curve $-1 -50.798669392986845 7.8179859292367126 42.68049473264648 0 0 -1 I I #
point $-1 -50.798669392986845 7.8179859292367126 6.443395992235855 #
straight-curve $-1 -50.798669392986845 2.0938097164283924 3.1670163584708124 0 -1 0 I I #
point $-1 -50.798669392986845 7.8179859292367126 3.1670163584708089 #
point $-1 -46.339166201166769 4.1876194328567848 1.7706579396255724 #
straight-curve $-1 -50.798669392986845 19.368384739583252 42.68049473264648 0 0 -1 I I #
point $-1 -50.798669392986845 19.368384739583252 6.443395992235855 #
straight-curve $-1 -50.798669392986845 7.8690091216016622 3.1670163584708124 0 -1 0 I I #
point $-1 -50.798669392986845 19.368384739583252 3.1670163584708089 #
point $-1 -46.339166201166769 15.738018243203324 1.7706579396255724 #
straight-curve $-1 50.798669392986845 -10.993145873869679 72.539203819389115 0 0 -1 I I #
point $-1 50.798669392986845 -10.993145873869679 6.443395992235855 #
straight-curve $-1 50.798669392986845 -3.6813896887448756 3.1670163584708071 0 1 0 I I #
point $-1 50.798669392986845 -10.993145873869679 3.1670163584708035 #
point $-1 46.339166201166776 -7.3627793774897512 1.7706579396255653 #
straight-curve $-1 50.798669392986845 0.55725293647685703 72.539203819389115 0 0 -1 I I #
point $-1 50.798669392986845 0.55725293647685703 6.443395992235855 #
straight-curve $-1 50.798669392986845 2.0938097164283924 3.1670163584708071 0 1 0 I I #
point $-1 50.798669392986845 0.55725293647685703 3.1670163584708035 #
point $-1 46.339166201166776 4.1876194328567848 1.7706579396255653 #
straight-curve $-1 50.798669392986845 12.107651746823397 72.539203819389115 0 0 -1 I I #
point $-1 50.798669392986845 12.107651746823397 6.443395992235855 #
straight-curve $-1 50.798669392986845 7.8690091216016622 3.1670163584708071 0 1 0 I I #
point $-1 50.798669392986845 12.107651746823397 3.1670163584708035 #
point $-1 46.339166201166776 15.738018243203324 1.7706579396255653 #
End-of-ACIS-data 