500 0 5 0           
7 Unknown 11 ACIS 5.0 NT 24 Fri Mar 26 03:36:51 1999 
-1 9.9999999999999995e-007 1e-010 
body $-1 $5 $-1 $6 #
body $-1 $7 $-1 $8 #
body $-1 $9 $-1 $10 #
body $-1 $11 $-1 $12 #
body $-1 $13 $-1 $14 #
lump $-1 $-1 $15 $0 #
transform $-1 1 0 0 0 1 0 0 0 1 59.487899410992767 34.840552385524461 10.027490993443573 1 rotate no_reflect no_shear #
lump $-1 $-1 $16 $1 #
transform $-1 1 0 0 0 1 0 0 0 1 59.487899410992767 34.840552385524461 10.027490993443573 1 rotate no_reflect no_shear #
lump $-1 $-1 $17 $2 #
transform $-1 1 0 0 0 1 0 0 0 1 59.487899410992767 34.840552385524461 10.027490993443573 1 rotate no_reflect no_shear #
lump $-1 $-1 $18 $3 #
transform $-1 1 0 0 0 1 0 0 0 1 59.487899410992767 34.840552385524461 10.027490993443573 1 rotate no_reflect no_shear #
lump $-1 $-1 $19 $4 #
transform $-1 1 0 0 0 1 0 0 0 1 59.487899410992767 34.840552385524461 10.027490993443573 1 rotate no_reflect no_shear #
shell $-1 $-1 $-1 $20 $-1 $5 #
shell $-1 $-1 $-1 $21 $-1 $7 #
shell $-1 $-1 $-1 $22 $-1 $9 #
shell $-1 $-1 $-1 $23 $-1 $11 #
shell $-1 $-1 $-1 $24 $-1 $13 #
face $-1 $25 $26 $15 $-1 $27 forward single #
face $-1 $28 $29 $16 $-1 $30 forward single #
face $-1 $31 $32 $17 $-1 $33 forward single #
face $-1 $34 $35 $18 $-1 $36 reversed single #
face $-1 $37 $38 $19 $-1 $39 reversed single #
face $-1 $40 $41 $15 $-1 $42 reversed single #
loop $-1 $-1 $43 $20 #
plane-surface $-1 0 0 10.027490993443573 0 0 1 1 0 0 forward_v I I I I #
face $-1 $44 $45 $16 $-1 $46 forward single #
loop $-1 $-1 $47 $21 #
plane-surface $-1 -55.302352999490139 0 4.5964816651363405 0 0 1 1 0 0 forward_v I I I I #
face $-1 $48 $49 $17 $-1 $50 forward single #
loop $-1 $-1 $51 $22 #
plane-surface $-1 -42.494264424346547 -30.509274266000737 63.897443951005869 0.51503808176128008 0 0.85716729658548041 0.85716729658548041 0 -0.51503808176128008 forward_v I I I I #
face $-1 $52 $53 $18 $-1 $54 reversed single #
loop $-1 $55 $56 $23 #
cone-surface $-1 52.624929366217451 -32.365536317225192 5.1602430056176285 -0.51503808176128008 0 -0.85716729658548041 0.85716729658548041 0 -0.51503808176128008 1 I I 0 1 1 forward I I I I #
face $-1 $57 $58 $19 $-1 $59 reversed single #
loop $-1 $60 $61 $24 #
cone-surface $-1 52.624929366217451 -28.653012214776282 5.1602430056176285 -0.51503808176128008 0 -0.85716729658548041 0.85716729658548041 0 -0.51503808176128008 1 I I 0 1 1 forward I I I I #
face $-1 $62 $63 $15 $-1 $64 reversed single #
loop $-1 $-1 $65 $25 #
plane-surface $-1 0 0 -10.027490993443573 0 0 1 1 0 0 forward_v I I I I #
coedge $-1 $66 $67 $68 $69 forward $26 $-1 #
face $-1 $70 $71 $16 $-1 $72 forward single #
loop $-1 $-1 $73 $28 #
plane-surface $-1 -51.116806587987512 0 7.3119863292899563 -1 0 0 0 0 1 forward_v I I I I #
coedge $-1 $74 $75 $76 $77 reversed $29 $-1 #
face $-1 $78 $79 $17 $-1 $80 reversed single #
loop $-1 $-1 $81 $31 #
plane-surface $-1 18.782802776944848 -26.177996146477014 165.87960778634519 0 -1 0 -0.51503808176128008 0 -0.85716729658548041 forward_v I I I I #
coedge $-1 $82 $83 $84 $85 reversed $32 $-1 #
face $-1 $86 $87 $18 $-1 $88 forward single #
loop $-1 $89 $90 $34 #
cone-surface $-1 51.668194298599246 -32.365536317225192 3.5679684913634997 -0.51503808176128008 0 -0.85716729658548041 0.4285836482927402 0 -0.25751904088064004 1 I I -0.70710678118654746 0.70710678118654746 0.5 forward I I I I #
loop $-1 $-1 $91 $23 #
coedge $-1 $56 $56 $92 $93 reversed $35 $-1 #
face $-1 $94 $95 $19 $-1 $96 reversed single #
loop $-1 $97 $98 $37 #
cone-surface $-1 51.668194298599246 -28.653012214776282 3.5679684913634997 -0.51503808176128008 0 -0.85716729658548041 0.4285836482927402 0 -0.25751904088064004 1 I I -0.70710678118654746 0.70710678118654746 0.5 forward I I I I #
loop $-1 $-1 $99 $24 #
coedge $-1 $61 $61 $100 $101 reversed $38 $-1 #
face $-1 $102 $103 $15 $-1 $104 reversed single #
loop $-1 $-1 $105 $40 #
plane-surface $-1 0 -34.840552385524461 0 0 1 0 0 0 1 forward_v I I I I #
coedge $-1 $106 $107 $108 $109 forward $41 $-1 #
coedge $-1 $110 $43 $111 $112 forward $26 $-1 #
coedge $-1 $43 $110 $113 $114 forward $26 $-1 #
coedge $-1 $115 $116 $43 $69 reversed $117 $-1 #
edge $-1 $118 -34.840552385524461 $119 34.840552385524461 $68 $120 forward 7 unknown #
face $-1 $121 $122 $16 $-1 $123 reversed single #
loop $-1 $-1 $124 $44 #
plane-surface $-1 0 0 10.027490993443573 0 0 1 1 0 0 forward_v I I I I #
coedge $-1 $125 $76 $126 $127 reversed $45 $-1 #
coedge $-1 $128 $47 $129 $130 reversed $29 $-1 #
coedge $-1 $47 $128 $131 $132 reversed $29 $-1 #
coedge $-1 $73 $133 $47 $77 forward $45 $-1 #
edge $-1 $134 -34.840552385524461 $135 34.840552385524461 $76 $136 forward 7 unknown #
face $-1 $137 $138 $17 $-1 $139 reversed single #
loop $-1 $-1 $140 $48 #
plane-surface $-1 59.487899410992767 0 0 -1 0 0 0 0 1 forward_v I I I I #
coedge $-1 $141 $142 $140 $143 reversed $49 $-1 #
coedge $-1 $144 $51 $142 $145 reversed $32 $-1 #
coedge $-1 $51 $144 $146 $147 reversed $32 $-1 #
coedge $-1 $148 $140 $51 $85 forward $79 $-1 #
edge $-1 $149 10.923359013476645 $150 19.585915252524092 $84 $151 forward 7 unknown #
face $-1 $152 $153 $18 $-1 $154 forward single #
loop $-1 $155 $92 $52 #
plane-surface $-1 -42.494264424346547 -30.509274266000737 63.897443951005869 0.51503808176128008 0 0.85716729658548041 0.85716729658548041 0 -0.51503808176128008 forward_v I I I I #
loop $-1 $-1 $156 $34 #
coedge $-1 $90 $90 $91 $157 forward $53 $-1 #
coedge $-1 $91 $91 $90 $157 reversed $55 $-1 #
coedge $-1 $92 $92 $56 $93 forward $87 $-1 #
edge $-1 $158 0 $158 6.2831853071796004 $92 $159 forward 7 unknown #
face $-1 $160 $161 $19 $-1 $162 reversed single #
loop $-1 $163 $164 $57 #
cone-surface $-1 52.624929366217451 -32.365536317225192 5.1602430056176285 -0.51503808176128008 0 -0.85716729658548041 0.85716729658548041 0 -0.51503808176128008 1 I I 0 1 1 forward I I I I #
loop $-1 $-1 $165 $37 #
coedge $-1 $98 $98 $99 $166 forward $58 $-1 #
coedge $-1 $99 $99 $98 $166 reversed $60 $-1 #
coedge $-1 $100 $100 $61 $101 forward $167 $-1 #
edge $-1 $168 0 $168 6.2831853071796004 $100 $169 forward 7 unknown #
face $-1 $170 $171 $15 $-1 $172 reversed single #
loop $-1 $-1 $173 $62 #
plane-surface $-1 -59.487899410992767 0 0 1 0 0 0 0 -1 forward_v I I I I #
coedge $-1 $174 $113 $175 $176 forward $63 $-1 #
coedge $-1 $177 $65 $174 $178 forward $41 $-1 #
coedge $-1 $65 $177 $179 $180 forward $41 $-1 #
coedge $-1 $116 $115 $65 $109 reversed $117 $-1 #
edge $-1 $181 -34.840552385524461 $182 34.840552385524461 $108 $183 forward 7 unknown #
coedge $-1 $67 $66 $184 $185 forward $26 $-1 #
coedge $-1 $186 $187 $66 $112 reversed $171 $-1 #
edge $-1 $119 -59.487899410992767 $188 59.487899410992767 $111 $189 forward 7 unknown #
coedge $-1 $105 $190 $67 $114 reversed $63 $-1 #
edge $-1 $191 -59.487899410992767 $118 59.487899410992767 $113 $192 forward 7 unknown #
coedge $-1 $108 $68 $190 $193 forward $117 $-1 #
coedge $-1 $68 $108 $186 $194 reversed $117 $-1 #
loop $-1 $-1 $115 $170 #
vertex $-1 $69 $195 #
vertex $-1 $69 $196 #
straight-curve $-1 59.487899410992767 0 10.027490993443573 0 1 0 I I #
face $-1 $197 $198 $16 $-1 $199 reversed single #
loop $-1 $-1 $126 $70 #
plane-surface $-1 0 -34.840552385524461 0 0 1 0 0 0 1 forward_v I I I I #
coedge $-1 $200 $201 $125 $202 forward $71 $-1 #
coedge $-1 $133 $73 $124 $202 reversed $45 $-1 #
coedge $-1 $131 $203 $73 $127 forward $122 $-1 #
edge $-1 $204 -6.3714978287985931 $135 -0.94048850049136234 $126 $205 forward 7 unknown #
coedge $-1 $75 $74 $206 $207 reversed $29 $-1 #
coedge $-1 $208 $209 $74 $130 forward $210 $-1 #
edge $-1 $211 -31.836722911247698 $134 -23.465630088242442 $129 $212 forward 7 unknown #
coedge $-1 $213 $126 $75 $132 forward $122 $-1 #
edge $-1 $135 23.465630088242442 $214 31.836722911247698 $131 $215 forward 7 unknown #
coedge $-1 $76 $125 $208 $216 reversed $45 $-1 #
vertex $-1 $130 $217 #
vertex $-1 $132 $218 #
straight-curve $-1 -51.116806587987512 0 4.5964816651363405 0 -1 0 I I #
face $-1 $219 $220 $17 $-1 $221 forward single #
loop $-1 $-1 $146 $78 #
plane-surface $-1 0 -34.840552385524461 0 0 1 0 0 0 1 forward_v I I I I #
coedge $-1 $84 $222 $81 $143 forward $79 $-1 #
coedge $-1 $142 $81 $223 $224 reversed $49 $-1 #
coedge $-1 $81 $141 $82 $145 forward $49 $-1 #
edge $-1 $225 72.912312899729017 $149 80.319427143458114 $140 $226 forward 7 unknown #
coedge $-1 $83 $82 $227 $228 reversed $32 $-1 #
edge $-1 $229 104.59411617359005 $149 118.97579882198553 $142 $230 forward 7 unknown #
coedge $-1 $231 $232 $83 $147 forward $138 $-1 #
edge $-1 $150 -84.308643462495183 $233 -69.926960814099715 $146 $234 forward 7 unknown #
coedge $-1 $235 $84 $232 $236 forward $79 $-1 #
vertex $-1 $85 $237 #
vertex $-1 $236 $238 #
straight-curve $-1 59.487899410992767 -15.254637133000369 2.620376749714481 0 -1 0 I I #
face $-1 $239 $240 $18 $-1 $241 reversed single #
loop $-1 $-1 $242 $86 #
plane-surface $-1 18.782802776944848 -26.177996146477014 165.87960778634519 0 -1 0 -0.51503808176128008 0 -0.85716729658548041 forward_v I I I I #
loop $-1 $-1 $243 $52 #
coedge $-1 $156 $156 $-1 $244 forward $89 $-1 #
edge $-1 $245 0 $245 6.2831853071796004 $90 $246 forward 7 unknown #
vertex $-1 $93 $247 #
ellipse-curve $-1 53.324145392955025 -32.365536317225192 6.3239338715790323 -0.51503808176128008 0 -0.85716729658548041 0.85716729658548041 0 -0.51503808176128008 1 I I #
face $-1 $248 $167 $19 $-1 $249 forward single #
loop $-1 $250 $251 $94 #
cone-surface $-1 51.668194298599246 -32.365536317225192 3.5679684913634997 -0.51503808176128008 0 -0.85716729658548041 0.4285836482927402 0 -0.25751904088064004 1 I I -0.70710678118654746 0.70710678118654746 0.5 forward I I I I #
loop $-1 $-1 $252 $57 #
coedge $-1 $164 $164 $253 $254 reversed $95 $-1 #
coedge $-1 $165 $165 $-1 $255 forward $97 $-1 #
edge $-1 $256 0 $256 6.2831853071796004 $98 $257 forward 7 unknown #
loop $-1 $258 $100 $160 #
vertex $-1 $101 $259 #
ellipse-curve $-1 53.324145392955025 -28.653012214776282 6.3239338715790323 -0.51503808176128008 0 -0.85716729658548041 0.85716729658548041 0 -0.51503808176128008 1 I I #
face $-1 $-1 $117 $15 $-1 $260 reversed single #
loop $-1 $-1 $186 $102 #
plane-surface $-1 0 34.840552385524461 0 0 -1 0 0 0 -1 forward_v I I I I #
coedge $-1 $261 $184 $187 $262 forward $103 $-1 #
coedge $-1 $190 $105 $106 $178 reversed $63 $-1 #
coedge $-1 $184 $261 $105 $176 reversed $103 $-1 #
edge $-1 $191 -10.027490993443573 $263 10.027490993443573 $175 $264 forward 7 unknown #
coedge $-1 $107 $106 $261 $265 forward $41 $-1 #
edge $-1 $182 -59.487899410992767 $263 59.487899410992767 $174 $266 forward 7 unknown #
coedge $-1 $187 $186 $107 $180 reversed $171 $-1 #
edge $-1 $267 -59.487899410992767 $181 59.487899410992767 $179 $268 forward 7 unknown #
vertex $-1 $109 $269 #
vertex $-1 $193 $270 #
straight-curve $-1 59.487899410992767 0 -10.027490993443573 0 -1 0 I I #
coedge $-1 $173 $175 $110 $185 reversed $103 $-1 #
edge $-1 $188 -34.840552385524461 $191 34.840552385524461 $184 $271 forward 7 unknown #
coedge $-1 $179 $111 $116 $194 forward $171 $-1 #
coedge $-1 $111 $179 $173 $262 reversed $171 $-1 #
vertex $-1 $112 $272 #
straight-curve $-1 0 34.840552385524461 10.027490993443573 -1 0 0 I I #
coedge $-1 $113 $174 $115 $193 reversed $63 $-1 #
vertex $-1 $185 $273 #
straight-curve $-1 0 -34.840552385524461 10.027490993443573 1 0 0 I I #
edge $-1 $118 -10.027490993443573 $182 10.027490993443573 $115 $274 forward 7 unknown #
edge $-1 $119 -10.027490993443573 $181 10.027490993443573 $116 $275 forward 7 unknown #
point $-1 59.487899410992767 -34.840552385524461 10.027490993443573 #
point $-1 59.487899410992767 34.840552385524461 10.027490993443573 #
face $-1 $276 $277 $16 $-1 $278 reversed single #
loop $-1 $-1 $279 $121 #
plane-surface $-1 0 0 -10.027490993443573 0 0 1 1 0 0 forward_v I I I I #
coedge $-1 $280 $124 $203 $281 forward $71 $-1 #
coedge $-1 $124 $280 $282 $283 forward $71 $-1 #
edge $-1 $284 -34.840552385524461 $204 34.840552385524461 $124 $285 forward 7 unknown #
coedge $-1 $126 $286 $200 $281 reversed $122 $-1 #
vertex $-1 $281 $287 #
straight-curve $-1 -51.116806587987512 -34.840552385524461 3.6559931646449781 0 0 -1 I I #
coedge $-1 $288 $289 $128 $207 forward $277 $-1 #
edge $-1 $214 -34.840552385524461 $211 34.840552385524461 $206 $290 forward 7 unknown #
coedge $-1 $282 $129 $133 $216 forward $210 $-1 #
coedge $-1 $129 $291 $288 $292 reversed $210 $-1 #
loop $-1 $-1 $208 $276 #
vertex $-1 $292 $293 #
straight-curve $-1 -27.65117649974507 34.840552385524461 4.5964816651363405 1 0 0 I I #
coedge $-1 $294 $131 $289 $295 forward $122 $-1 #
vertex $-1 $295 $296 #
straight-curve $-1 -27.65117649974507 -34.840552385524461 4.5964816651363405 -1 0 0 I I #
edge $-1 $134 0.94048850049136234 $284 6.3714978287985931 $208 $297 forward 7 unknown #
point $-1 -51.116806587987512 34.840552385524461 4.5964816651363405 #
point $-1 -51.116806587987512 -34.840552385524461 4.5964816651363405 #
face $-1 $298 $299 $17 $-1 $300 forward single #
loop $-1 $-1 $301 $137 #
plane-surface $-1 -55.302352999490139 0 4.5964816651363405 0 0 1 1 0 0 forward_v I I I I #
coedge $-1 $140 $302 $303 $304 reversed $79 $-1 #
coedge $-1 $303 $227 $141 $224 forward $305 $-1 #
edge $-1 $229 37.768989986444893 $225 50.096498022520343 $223 $306 forward 7 unknown #
vertex $-1 $304 $307 #
straight-curve $-1 59.487899410992767 -26.177996146477014 82.939803893172595 0 0 -1 I I #
coedge $-1 $223 $308 $144 $228 forward $305 $-1 #
edge $-1 $233 -19.585915252524092 $229 -10.923359013476645 $227 $309 forward 7 unknown #
vertex $-1 $228 $310 #
straight-curve $-1 -42.494264424346547 -26.177996146477014 63.897443951005869 0.85716729658548041 0 -0.51503808176128008 I I #
coedge $-1 $311 $146 $308 $312 reversed $138 $-1 #
coedge $-1 $146 $313 $148 $236 reversed $138 $-1 #
vertex $-1 $228 $314 #
straight-curve $-1 -12.778712584543372 -34.840552385524461 46.042538754533687 -0.85716729658548041 0 0.51503808176128008 I I #
coedge $-1 $302 $148 $315 $316 reversed $79 $-1 #
edge $-1 $150 -2.6203767497144748 $317 10.027490993443573 $148 $318 forward 7 unknown #
point $-1 59.487899410992775 -26.177996146477014 2.6203767497144739 #
point $-1 59.487899410992767 -34.840552385524461 2.6203767497144748 #
face $-1 $319 $320 $18 $-1 $321 reversed single #
loop $-1 $-1 $322 $152 #
plane-surface $-1 59.487899410992767 0 0 -1 0 0 0 0 1 forward_v I I I I #
coedge $-1 $323 $324 $322 $325 reversed $153 $-1 #
coedge $-1 $326 $327 $328 $329 reversed $155 $-1 #
edge $-1 $330 1 $330 0 $156 $-1 forward 7 unknown #
vertex $-1 $157 $331 #
ellipse-curve $-1 51.925713339479884 -32.365536317225192 3.9965521396562398 0.51503808176128008 0 0.85716729658548041 0.85716729658548041 0 -0.51503808176128008 1 I I #
point $-1 54.181312689540491 -32.365536317225192 5.8088957898177362 #
face $-1 $332 $333 $19 $-1 $334 forward single #
plane-surface $-1 -42.494264424346547 -30.509274266000737 63.897443951005869 0.51503808176128008 0 0.85716729658548041 0.85716729658548041 0 -0.51503808176128008 forward_v I I I I #
loop $-1 $-1 $335 $94 #
coedge $-1 $251 $251 $252 $336 forward $161 $-1 #
coedge $-1 $252 $252 $251 $336 reversed $163 $-1 #
coedge $-1 $253 $253 $164 $254 forward $258 $-1 #
edge $-1 $337 0 $337 6.2831853071796004 $253 $338 forward 7 unknown #
edge $-1 $339 1 $339 0 $165 $-1 forward 7 unknown #
vertex $-1 $166 $340 #
ellipse-curve $-1 51.925713339479884 -28.653012214776282 3.9965521396562398 0.51503808176128008 0 0.85716729658548041 0.85716729658548041 0 -0.51503808176128008 1 I I #
loop $-1 $341 $253 $160 #
point $-1 54.181312689540491 -28.653012214776282 5.8088957898177362 #
plane-surface $-1 59.487899410992767 0 0 -1 0 0 0 0 1 forward_v I I I I #
coedge $-1 $175 $173 $177 $265 reversed $103 $-1 #
edge $-1 $188 -10.027490993443573 $267 10.027490993443573 $187 $342 forward 7 unknown #
vertex $-1 $265 $343 #
straight-curve $-1 -59.487899410992767 -34.840552385524461 0 0 0 -1 I I #
edge $-1 $263 -34.840552385524461 $267 34.840552385524461 $261 $344 forward 7 unknown #
straight-curve $-1 0 -34.840552385524461 -10.027490993443573 -1 0 0 I I #
vertex $-1 $180 $345 #
straight-curve $-1 0 34.840552385524461 -10.027490993443573 1 0 0 I I #
point $-1 59.487899410992767 34.840552385524461 -10.027490993443573 #
point $-1 59.487899410992767 -34.840552385524461 -10.027490993443573 #
straight-curve $-1 -59.487899410992767 0 10.027490993443573 0 -1 0 I I #
point $-1 -59.487899410992767 34.840552385524461 10.027490993443573 #
point $-1 -59.487899410992767 -34.840552385524461 10.027490993443573 #
straight-curve $-1 59.487899410992767 -34.840552385524461 0 0 0 -1 I I #
straight-curve $-1 59.487899410992767 34.840552385524461 0 0 0 -1 I I #
face $-1 $346 $210 $16 $-1 $347 reversed single #
loop $-1 $-1 $206 $197 #
plane-surface $-1 -59.487899410992767 0 0 1 0 0 0 0 -1 forward_v I I I I #
coedge $-1 $348 $349 $350 $351 forward $198 $-1 #
coedge $-1 $201 $200 $352 $353 forward $71 $-1 #
edge $-1 $204 -51.116806587987512 $354 59.487899410992767 $203 $355 forward 7 unknown #
coedge $-1 $356 $208 $201 $283 reversed $210 $-1 #
edge $-1 $357 -59.487899410992767 $284 51.116806587987512 $282 $358 forward 7 unknown #
vertex $-1 $202 $359 #
straight-curve $-1 -51.116806587987512 0 10.027490993443573 0 -1 0 I I #
coedge $-1 $203 $294 $360 $361 reversed $122 $-1 #
point $-1 -51.116806587987512 -34.840552385524461 10.027490993443571 #
coedge $-1 $362 $206 $209 $292 forward $277 $-1 #
coedge $-1 $206 $362 $213 $295 reversed $277 $-1 #
straight-curve $-1 -59.487899410992767 0 4.5964816651363405 0 1 0 I I #
coedge $-1 $209 $356 $349 $363 reversed $210 $-1 #
edge $-1 $211 -4.5964816651363405 $364 10.027490993443573 $209 $365 forward 7 unknown #
point $-1 -59.487899410992767 34.840552385524461 4.5964816651363405 #
coedge $-1 $286 $213 $348 $366 reversed $122 $-1 #
edge $-1 $214 -4.5964816651363405 $367 10.027490993443573 $289 $368 forward 7 unknown #
point $-1 -59.487899410992767 -34.840552385524461 4.5964816651363405 #
straight-curve $-1 -51.116806587987512 34.840552385524461 3.6559931646449781 0 0 1 I I #
face $-1 $369 $305 $17 $-1 $370 forward single #
loop $-1 $-1 $371 $219 #
plane-surface $-1 -51.116806587987512 0 7.3119863292899563 -1 0 0 0 0 1 forward_v I I I I #
coedge $-1 $372 $373 $374 $375 reversed $220 $-1 #
coedge $-1 $222 $235 $376 $377 reversed $79 $-1 #
coedge $-1 $378 $223 $222 $304 forward $305 $-1 #
edge $-1 $225 -26.177996146477014 $379 34.840552385524461 $222 $380 forward 7 unknown #
loop $-1 $-1 $223 $298 #
straight-curve $-1 9.3914013884724241 -26.177996146477014 10.027490993443578 1 0 0 I I #
point $-1 59.487899410992767 -26.177996146477014 10.027490993443573 #
coedge $-1 $227 $381 $231 $312 forward $305 $-1 #
straight-curve $-1 47.16039137491731 -15.254637133000369 10.027490993443571 0 1 0 I I #
point $-1 47.160391374917317 -26.177996146477014 10.027490993443571 #
coedge $-1 $382 $231 $371 $383 forward $138 $-1 #
edge $-1 $384 -51.116806587987512 $233 47.160391374917317 $231 $385 forward 7 unknown #
coedge $-1 $232 $386 $387 $388 reversed $138 $-1 #
point $-1 47.160391374917317 -34.840552385524461 10.027490993443571 #
coedge $-1 $387 $389 $235 $316 forward $390 $-1 #
edge $-1 $391 -34.840552385524461 $317 34.840552385524461 $235 $392 forward 7 unknown #
vertex $-1 $236 $393 #
straight-curve $-1 59.487899410992767 -34.840552385524461 0 0 0 -1 I I #
face $-1 $394 $395 $18 $-1 $396 forward single #
loop $-1 $-1 $397 $239 #
plane-surface $-1 0 -34.840552385524461 0 0 1 0 0 0 1 forward_v I I I I #
coedge $-1 $328 $398 $242 $325 forward $240 $-1 #
coedge $-1 $324 $242 $399 $400 reversed $153 $-1 #
coedge $-1 $242 $323 $326 $401 forward $153 $-1 #
edge $-1 $402 72.912312899729017 $403 80.319427143458114 $322 $404 forward 7 unknown #
coedge $-1 $405 $243 $324 $401 reversed $155 $-1 #
coedge $-1 $243 $405 $397 $406 reversed $155 $-1 #
coedge $-1 $407 $322 $243 $329 forward $240 $-1 #
edge $-1 $403 10.923359013476645 $408 19.585915252524092 $328 $409 forward 7 unknown #
vertex $-1 $244 $410 #
point $-1 52.782880636065364 -32.365536317225192 3.4815140578949597 #
face $-1 $411 $412 $19 $-1 $413 reversed single #
loop $-1 $-1 $414 $248 #
plane-surface $-1 18.782802776944848 -26.177996146477014 165.87960778634519 0 -1 0 -0.51503808176128008 0 -0.85716729658548041 forward_v I I I I #
coedge $-1 $335 $335 $-1 $415 forward $250 $-1 #
edge $-1 $416 0 $416 6.2831853071796004 $251 $417 forward 7 unknown #
vertex $-1 $254 $418 #
ellipse-curve $-1 53.324145392955025 -32.365536317225192 6.3239338715790323 -0.51503808176128008 0 -0.85716729658548041 0.85716729658548041 0 -0.51503808176128008 1 I I #
vertex $-1 $255 $419 #
point $-1 52.782880636065364 -28.653012214776282 3.4815140578949597 #
loop $-1 $-1 $420 $160 #
straight-curve $-1 -59.487899410992767 34.840552385524461 0 0 0 -1 I I #
point $-1 -59.487899410992767 -34.840552385524461 -10.027490993443573 #
straight-curve $-1 -59.487899410992767 0 -10.027490993443573 0 1 0 I I #
point $-1 -59.487899410992767 34.840552385524461 -10.027490993443573 #
face $-1 $-1 $421 $16 $-1 $422 reversed single #
plane-surface $-1 0 34.840552385524461 0 0 -1 0 0 0 -1 forward_v I I I I #
coedge $-1 $423 $279 $294 $366 forward $198 $-1 #
coedge $-1 $279 $423 $291 $363 forward $198 $-1 #
coedge $-1 $424 $360 $279 $351 reversed $421 $-1 #
edge $-1 $425 -34.840552385524461 $426 34.840552385524461 $350 $427 forward 7 unknown #
coedge $-1 $360 $424 $280 $353 reversed $421 $-1 #
edge $-1 $354 -34.840552385524461 $357 34.840552385524461 $352 $428 forward 7 unknown #
vertex $-1 $353 $429 #
straight-curve $-1 0 -34.840552385524461 10.027490993443573 1 0 0 I I #
coedge $-1 $291 $282 $424 $430 forward $210 $-1 #
vertex $-1 $353 $431 #
straight-curve $-1 0 34.840552385524461 10.027490993443573 -1 0 0 I I #
point $-1 -51.116806587987512 34.840552385524461 10.027490993443571 #
coedge $-1 $350 $352 $286 $361 forward $421 $-1 #
edge $-1 $354 -10.027490993443573 $426 10.027490993443573 $360 $432 forward 7 unknown #
coedge $-1 $289 $288 $423 $433 reversed $277 $-1 #
edge $-1 $364 -59.487899410992767 $425 59.487899410992767 $291 $434 forward 7 unknown #
vertex $-1 $363 $435 #
straight-curve $-1 -59.487899410992767 34.840552385524461 0 0 0 -1 I I #
edge $-1 $426 -59.487899410992767 $367 59.487899410992767 $294 $436 forward 7 unknown #
vertex $-1 $433 $437 #
straight-curve $-1 -59.487899410992767 -34.840552385524461 0 0 0 -1 I I #
face $-1 $438 $390 $17 $-1 $439 reversed single #
plane-surface $-1 0 0 10.027490993443573 0 0 1 1 0 0 forward_v I I I I #
coedge $-1 $440 $374 $311 $383 reversed $299 $-1 #
coedge $-1 $441 $301 $442 $443 reversed $220 $-1 #
coedge $-1 $301 $441 $382 $444 reversed $220 $-1 #
coedge $-1 $371 $445 $301 $375 forward $299 $-1 #
edge $-1 $446 -34.840552385524461 $447 34.840552385524461 $374 $448 forward 7 unknown #
coedge $-1 $449 $450 $302 $377 forward $451 $-1 #
edge $-1 $379 -10.027490993443573 $391 10.027490993443573 $302 $452 forward 7 unknown #
coedge $-1 $381 $303 $450 $453 forward $305 $-1 #
vertex $-1 $304 $454 #
straight-curve $-1 59.487899410992767 0 10.027490993443573 0 1 0 I I #
coedge $-1 $308 $378 $440 $455 forward $305 $-1 #
coedge $-1 $386 $311 $373 $444 forward $138 $-1 #
edge $-1 $384 -6.3714978287985931 $447 -0.94048850049136234 $311 $456 forward 7 unknown #
vertex $-1 $312 $457 #
straight-curve $-1 0 -34.840552385524461 10.027490993443573 1 0 0 I I #
coedge $-1 $313 $382 $458 $459 forward $138 $-1 #
coedge $-1 $460 $315 $313 $388 forward $390 $-1 #
edge $-1 $317 -59.487899410992767 $461 59.487899410992767 $313 $462 forward 7 unknown #
coedge $-1 $315 $460 $449 $463 forward $390 $-1 #
loop $-1 $-1 $315 $369 #
vertex $-1 $316 $464 #
straight-curve $-1 59.487899410992767 0 -10.027490993443573 0 -1 0 I I #
point $-1 59.487899410992767 -34.840552385524461 -10.027490993443573 #
face $-1 $465 $466 $18 $-1 $467 forward single #
loop $-1 $-1 $468 $319 #
plane-surface $-1 -55.302352999490139 0 4.5964816651363405 0 0 1 1 0 0 forward_v I I I I #
coedge $-1 $469 $470 $327 $406 forward $320 $-1 #
coedge $-1 $322 $471 $472 $473 reversed $240 $-1 #
coedge $-1 $472 $474 $323 $400 forward $475 $-1 #
edge $-1 $476 37.768989986444893 $402 50.096498022520343 $399 $477 forward 7 unknown #
edge $-1 $476 104.59411617359005 $403 118.97579882198553 $324 $478 forward 7 unknown #
vertex $-1 $473 $479 #
vertex $-1 $329 $480 #
straight-curve $-1 59.487899410992767 -26.177996146477014 82.939803893172595 0 0 -1 I I #
coedge $-1 $327 $326 $474 $481 reversed $155 $-1 #
edge $-1 $408 -84.308643462495183 $482 -69.926960814099715 $397 $483 forward 7 unknown #
coedge $-1 $484 $328 $470 $485 forward $240 $-1 #
vertex $-1 $485 $486 #
straight-curve $-1 59.487899410992767 -15.254637133000369 2.620376749714481 0 -1 0 I I #
point $-1 51.410675257718609 -32.365536317225192 3.1393848430707596 #
face $-1 $487 $488 $19 $-1 $489 reversed single #
loop $-1 $-1 $490 $332 #
plane-surface $-1 59.487899410992767 0 0 -1 0 0 0 0 1 forward_v I I I I #
coedge $-1 $491 $492 $490 $493 reversed $333 $-1 #
edge $-1 $494 1 $494 0 $335 $-1 forward 7 unknown #
vertex $-1 $336 $495 #
ellipse-curve $-1 51.925713339479884 -32.365536317225192 3.9965521396562398 0.51503808176128008 0 0.85716729658548041 0.85716729658548041 0 -0.51503808176128008 1 I I #
point $-1 54.181312689540491 -32.365536317225192 5.8088957898177362 #
point $-1 51.410675257718609 -28.653012214776282 3.1393848430707596 #
coedge $-1 $496 $497 $498 $499 reversed $341 $-1 #
loop $-1 $-1 $360 $346 #
plane-surface $-1 59.487899410992767 0 0 -1 0 0 0 0 1 forward_v I I I I #
coedge $-1 $349 $348 $362 $433 forward $198 $-1 #
coedge $-1 $352 $350 $356 $430 reversed $421 $-1 #
vertex $-1 $351 $500 #
vertex $-1 $361 $501 #
straight-curve $-1 59.487899410992767 0 -10.027490993443573 0 -1 0 I I #
straight-curve $-1 59.487899410992767 0 10.027490993443573 0 1 0 I I #
point $-1 59.487899410992767 -34.840552385524461 10.027490993443573 #
edge $-1 $357 -10.027490993443573 $425 10.027490993443573 $424 $502 forward 7 unknown #
point $-1 59.487899410992767 34.840552385524461 10.027490993443573 #
straight-curve $-1 59.487899410992767 -34.840552385524461 0 0 0 -1 I I #
edge $-1 $367 -34.840552385524461 $364 34.840552385524461 $362 $503 forward 7 unknown #
straight-curve $-1 0 34.840552385524461 -10.027490993443573 1 0 0 I I #
point $-1 -59.487899410992767 34.840552385524461 -10.027490993443573 #
straight-curve $-1 0 -34.840552385524461 -10.027490993443573 -1 0 0 I I #
point $-1 -59.487899410992767 -34.840552385524461 -10.027490993443573 #
face $-1 $504 $505 $17 $-1 $506 reversed single #
plane-surface $-1 0 0 -10.027490993443573 0 0 1 1 0 0 forward_v I I I I #
coedge $-1 $445 $371 $381 $455 reversed $299 $-1 #
coedge $-1 $373 $372 $507 $508 reversed $220 $-1 #
coedge $-1 $509 $510 $372 $443 forward $451 $-1 #
edge $-1 $511 -31.836722911247698 $446 -23.465630088242442 $442 $512 forward 7 unknown #
edge $-1 $447 23.465630088242442 $513 31.836722911247698 $382 $514 forward 7 unknown #
coedge $-1 $374 $440 $509 $515 reversed $299 $-1 #
vertex $-1 $443 $516 #
vertex $-1 $444 $517 #
straight-curve $-1 -51.116806587987512 0 4.5964816651363405 0 -1 0 I I #
coedge $-1 $510 $376 $389 $463 reversed $451 $-1 #
coedge $-1 $376 $509 $378 $453 reversed $451 $-1 #
loop $-1 $-1 $509 $504 #
straight-curve $-1 59.487899410992767 34.840552385524461 0 0 0 -1 I I #
edge $-1 $379 -59.487899410992767 $518 51.116806587987512 $450 $519 forward 7 unknown #
point $-1 59.487899410992767 34.840552385524461 10.027490993443573 #
edge $-1 $518 -34.840552385524461 $384 34.840552385524461 $381 $520 forward 7 unknown #
straight-curve $-1 -51.116806587987512 -34.840552385524461 3.6559931646449781 0 0 -1 I I #
point $-1 -51.116806587987512 -34.840552385524461 10.027490993443571 #
coedge $-1 $507 $521 $386 $459 reversed $505 $-1 #
edge $-1 $513 -4.5964816651363405 $461 10.027490993443573 $458 $522 forward 7 unknown #
coedge $-1 $389 $387 $521 $523 forward $390 $-1 #
vertex $-1 $523 $524 #
straight-curve $-1 0 -34.840552385524461 -10.027490993443573 -1 0 0 I I #
edge $-1 $525 -59.487899410992767 $391 59.487899410992767 $449 $526 forward 7 unknown #
point $-1 59.487899410992767 34.840552385524461 -10.027490993443573 #
face $-1 $527 $475 $18 $-1 $528 forward single #
loop $-1 $-1 $529 $394 #
plane-surface $-1 -51.116806587987512 0 7.3119863292899563 -1 0 0 0 0 1 forward_v I I I I #
coedge $-1 $530 $531 $532 $533 reversed $395 $-1 #
coedge $-1 $534 $397 $535 $536 reversed $320 $-1 #
coedge $-1 $397 $537 $407 $485 reversed $320 $-1 #
coedge $-1 $398 $484 $538 $539 reversed $240 $-1 #
coedge $-1 $540 $399 $398 $473 forward $475 $-1 #
edge $-1 $402 -26.177996146477014 $541 34.840552385524461 $398 $542 forward 7 unknown #
coedge $-1 $399 $535 $405 $481 forward $475 $-1 #
loop $-1 $-1 $399 $465 #
vertex $-1 $481 $543 #
straight-curve $-1 9.3914013884724241 -26.177996146477014 10.027490993443578 1 0 0 I I #
straight-curve $-1 -42.494264424346547 -26.177996146477014 63.897443951005869 0.85716729658548041 0 -0.51503808176128008 I I #
point $-1 59.487899410992767 -26.177996146477014 10.027490993443573 #
point $-1 59.487899410992775 -26.177996146477014 2.6203767497144739 #
edge $-1 $482 -19.585915252524092 $476 -10.923359013476645 $474 $544 forward 7 unknown #
vertex $-1 $481 $545 #
straight-curve $-1 -12.778712584543372 -34.840552385524461 46.042538754533687 -0.85716729658548041 0 0.51503808176128008 I I #
coedge $-1 $471 $407 $546 $547 reversed $240 $-1 #
edge $-1 $408 -2.6203767497144748 $548 10.027490993443573 $407 $549 forward 7 unknown #
point $-1 59.487899410992767 -34.840552385524461 2.6203767497144748 #
face $-1 $550 $551 $19 $-1 $552 forward single #
loop $-1 $-1 $553 $411 #
plane-surface $-1 0 -34.840552385524461 0 0 1 0 0 0 1 forward_v I I I I #
coedge $-1 $498 $554 $414 $493 forward $412 $-1 #
coedge $-1 $492 $414 $555 $556 reversed $333 $-1 #
coedge $-1 $414 $491 $496 $557 forward $333 $-1 #
edge $-1 $558 72.912312899729017 $559 80.319427143458114 $490 $560 forward 7 unknown #
vertex $-1 $415 $561 #
point $-1 52.782880636065364 -32.365536317225192 3.4815140578949597 #
coedge $-1 $562 $420 $492 $557 reversed $341 $-1 #
coedge $-1 $420 $562 $553 $563 reversed $341 $-1 #
coedge $-1 $564 $490 $420 $499 forward $412 $-1 #
edge $-1 $559 10.923359013476645 $565 19.585915252524092 $498 $566 forward 7 unknown #
point $-1 59.487899410992767 34.840552385524461 -10.027490993443573 #
point $-1 59.487899410992767 -34.840552385524461 -10.027490993443573 #
straight-curve $-1 59.487899410992767 34.840552385524461 0 0 0 -1 I I #
straight-curve $-1 -59.487899410992767 0 -10.027490993443573 0 1 0 I I #
face $-1 $-1 $451 $17 $-1 $567 reversed single #
loop $-1 $-1 $507 $438 #
plane-surface $-1 -59.487899410992767 0 0 1 0 0 0 0 -1 forward_v I I I I #
coedge $-1 $568 $458 $441 $508 forward $505 $-1 #
edge $-1 $513 -34.840552385524461 $511 34.840552385524461 $507 $569 forward 7 unknown #
coedge $-1 $450 $442 $445 $515 forward $451 $-1 #
coedge $-1 $442 $449 $568 $570 reversed $451 $-1 #
vertex $-1 $570 $571 #
straight-curve $-1 -27.65117649974507 34.840552385524461 4.5964816651363405 1 0 0 I I #
vertex $-1 $459 $572 #
straight-curve $-1 -27.65117649974507 -34.840552385524461 4.5964816651363405 -1 0 0 I I #
edge $-1 $446 0.94048850049136234 $518 6.3714978287985931 $509 $573 forward 7 unknown #
point $-1 -51.116806587987512 34.840552385524461 4.5964816651363405 #
point $-1 -51.116806587987512 -34.840552385524461 4.5964816651363405 #
vertex $-1 $455 $574 #
straight-curve $-1 0 34.840552385524461 10.027490993443573 -1 0 0 I I #
straight-curve $-1 -51.116806587987512 0 10.027490993443573 0 -1 0 I I #
coedge $-1 $458 $568 $460 $523 reversed $505 $-1 #
straight-curve $-1 -59.487899410992767 -34.840552385524461 0 0 0 -1 I I #
edge $-1 $461 -34.840552385524461 $525 34.840552385524461 $521 $575 forward 7 unknown #
point $-1 -59.487899410992767 -34.840552385524461 -10.027490993443573 #
vertex $-1 $463 $576 #
straight-curve $-1 0 34.840552385524461 -10.027490993443573 1 0 0 I I #
face $-1 $577 $578 $18 $-1 $579 reversed single #
plane-surface $-1 0 0 10.027490993443573 0 0 1 1 0 0 forward_v I I I I #
coedge $-1 $580 $532 $534 $581 reversed $466 $-1 #
coedge $-1 $582 $468 $583 $584 reversed $395 $-1 #
coedge $-1 $468 $582 $585 $586 reversed $395 $-1 #
coedge $-1 $529 $587 $468 $533 forward $466 $-1 #
edge $-1 $588 -34.840552385524461 $589 34.840552385524461 $532 $590 forward 7 unknown #
coedge $-1 $585 $469 $529 $581 forward $320 $-1 #
coedge $-1 $474 $591 $469 $536 forward $475 $-1 #
edge $-1 $592 -51.116806587987512 $482 47.160391374917317 $469 $593 forward 7 unknown #
coedge $-1 $470 $594 $595 $596 reversed $320 $-1 #
coedge $-1 $597 $598 $471 $539 forward $599 $-1 #
edge $-1 $541 -10.027490993443573 $600 10.027490993443573 $471 $601 forward 7 unknown #
coedge $-1 $591 $472 $598 $602 forward $475 $-1 #
vertex $-1 $473 $603 #
straight-curve $-1 59.487899410992767 0 10.027490993443573 0 1 0 I I #
point $-1 47.160391374917317 -26.177996146477014 10.027490993443571 #
straight-curve $-1 47.16039137491731 -15.254637133000369 10.027490993443571 0 1 0 I I #
point $-1 47.160391374917317 -34.840552385524461 10.027490993443571 #
coedge $-1 $595 $604 $484 $547 forward $578 $-1 #
edge $-1 $600 -34.840552385524461 $548 34.840552385524461 $484 $605 forward 7 unknown #
vertex $-1 $485 $606 #
straight-curve $-1 59.487899410992767 -34.840552385524461 0 0 0 -1 I I #
face $-1 $607 $608 $19 $-1 $609 forward single #
loop $-1 $-1 $610 $487 #
plane-surface $-1 -55.302352999490139 0 4.5964816651363405 0 0 1 1 0 0 forward_v I I I I #
coedge $-1 $611 $612 $497 $563 forward $488 $-1 #
coedge $-1 $490 $613 $614 $615 reversed $412 $-1 #
coedge $-1 $614 $616 $491 $556 forward $617 $-1 #
edge $-1 $618 37.768989986444893 $558 50.096498022520343 $555 $619 forward 7 unknown #
edge $-1 $618 104.59411617359005 $559 118.97579882198553 $492 $620 forward 7 unknown #
vertex $-1 $615 $621 #
vertex $-1 $499 $622 #
straight-curve $-1 59.487899410992767 -26.177996146477014 82.939803893172595 0 0 -1 I I #
point $-1 51.410675257718609 -32.365536317225192 3.1393848430707596 #
coedge $-1 $497 $496 $616 $623 reversed $341 $-1 #
edge $-1 $565 -84.308643462495183 $624 -69.926960814099715 $553 $625 forward 7 unknown #
coedge $-1 $626 $498 $612 $627 forward $412 $-1 #
vertex $-1 $627 $628 #
straight-curve $-1 59.487899410992767 -15.254637133000369 2.620376749714481 0 -1 0 I I #
plane-surface $-1 0 34.840552385524461 0 0 -1 0 0 0 -1 forward_v I I I I #
coedge $-1 $521 $507 $510 $570 forward $505 $-1 #
straight-curve $-1 -59.487899410992767 0 4.5964816651363405 0 1 0 I I #
edge $-1 $511 -4.5964816651363405 $525 10.027490993443573 $510 $629 forward 7 unknown #
point $-1 -59.487899410992767 34.840552385524461 4.5964816651363405 #
point $-1 -59.487899410992767 -34.840552385524461 4.5964816651363405 #
straight-curve $-1 -51.116806587987512 34.840552385524461 3.6559931646449781 0 0 1 I I #
point $-1 -51.116806587987512 34.840552385524461 10.027490993443571 #
straight-curve $-1 -59.487899410992767 0 -10.027490993443573 0 1 0 I I #
point $-1 -59.487899410992767 34.840552385524461 -10.027490993443573 #
face $-1 $630 $631 $18 $-1 $632 reversed single #
loop $-1 $-1 $546 $527 #
plane-surface $-1 0 0 -10.027490993443573 0 0 1 1 0 0 forward_v I I I I #
coedge $-1 $587 $529 $591 $633 reversed $466 $-1 #
edge $-1 $592 -6.3714978287985931 $589 -0.94048850049136234 $534 $634 forward 7 unknown #
coedge $-1 $531 $530 $635 $636 reversed $395 $-1 #
coedge $-1 $637 $638 $530 $584 forward $599 $-1 #
edge $-1 $639 -31.836722911247698 $588 -23.465630088242442 $583 $640 forward 7 unknown #
coedge $-1 $594 $534 $531 $586 forward $320 $-1 #
edge $-1 $589 23.465630088242442 $641 31.836722911247698 $585 $642 forward 7 unknown #
coedge $-1 $532 $580 $637 $643 reversed $466 $-1 #
vertex $-1 $584 $644 #
vertex $-1 $586 $645 #
straight-curve $-1 -51.116806587987512 0 4.5964816651363405 0 -1 0 I I #
coedge $-1 $535 $540 $580 $633 forward $475 $-1 #
vertex $-1 $536 $646 #
straight-curve $-1 0 -34.840552385524461 10.027490993443573 1 0 0 I I #
coedge $-1 $537 $585 $647 $648 forward $320 $-1 #
coedge $-1 $649 $546 $537 $596 forward $578 $-1 #
edge $-1 $548 -59.487899410992767 $650 59.487899410992767 $537 $651 forward 7 unknown #
coedge $-1 $638 $538 $604 $652 reversed $599 $-1 #
coedge $-1 $538 $637 $540 $602 reversed $599 $-1 #
loop $-1 $-1 $637 $630 #
vertex $-1 $547 $653 #
straight-curve $-1 59.487899410992767 34.840552385524461 0 0 0 -1 I I #
edge $-1 $541 -59.487899410992767 $654 51.116806587987512 $598 $655 forward 7 unknown #
point $-1 59.487899410992767 34.840552385524461 10.027490993443573 #
coedge $-1 $546 $649 $597 $652 forward $578 $-1 #
straight-curve $-1 59.487899410992767 0 -10.027490993443573 0 -1 0 I I #
point $-1 59.487899410992767 -34.840552385524461 -10.027490993443573 #
face $-1 $656 $617 $19 $-1 $657 forward single #
loop $-1 $-1 $658 $550 #
plane-surface $-1 -51.116806587987512 0 7.3119863292899563 -1 0 0 0 0 1 forward_v I I I I #
coedge $-1 $659 $660 $661 $662 reversed $551 $-1 #
coedge $-1 $663 $553 $664 $665 reversed $488 $-1 #
coedge $-1 $553 $666 $564 $627 reversed $488 $-1 #
coedge $-1 $554 $626 $667 $668 reversed $412 $-1 #
coedge $-1 $669 $555 $554 $615 forward $617 $-1 #
edge $-1 $558 -26.177996146477014 $670 34.840552385524461 $554 $671 forward 7 unknown #
coedge $-1 $555 $664 $562 $623 forward $617 $-1 #
loop $-1 $-1 $555 $607 #
vertex $-1 $623 $672 #
straight-curve $-1 9.3914013884724241 -26.177996146477014 10.027490993443578 1 0 0 I I #
straight-curve $-1 -42.494264424346547 -26.177996146477014 63.897443951005869 0.85716729658548041 0 -0.51503808176128008 I I #
point $-1 59.487899410992767 -26.177996146477014 10.027490993443573 #
point $-1 59.487899410992775 -26.177996146477014 2.6203767497144739 #
edge $-1 $624 -19.585915252524092 $618 -10.923359013476645 $616 $673 forward 7 unknown #
vertex $-1 $623 $674 #
straight-curve $-1 -12.778712584543372 -34.840552385524461 46.042538754533687 -0.85716729658548041 0 0.51503808176128008 I I #
coedge $-1 $613 $564 $675 $676 reversed $412 $-1 #
edge $-1 $565 -2.6203767497144748 $677 10.027490993443573 $564 $678 forward 7 unknown #
point $-1 59.487899410992767 -34.840552385524461 2.6203767497144748 #
straight-curve $-1 -59.487899410992767 34.840552385524461 0 0 0 -1 I I #
face $-1 $-1 $599 $18 $-1 $679 reversed single #
loop $-1 $-1 $635 $577 #
plane-surface $-1 -59.487899410992767 0 0 1 0 0 0 0 -1 forward_v I I I I #
edge $-1 $654 -34.840552385524461 $592 34.840552385524461 $591 $680 forward 7 unknown #
straight-curve $-1 -51.116806587987512 -34.840552385524461 3.6559931646449781 0 0 -1 I I #
coedge $-1 $681 $647 $582 $636 forward $631 $-1 #
edge $-1 $641 -34.840552385524461 $639 34.840552385524461 $635 $682 forward 7 unknown #
coedge $-1 $598 $583 $587 $643 forward $599 $-1 #
coedge $-1 $583 $597 $681 $683 reversed $599 $-1 #
vertex $-1 $683 $684 #
straight-curve $-1 -27.65117649974507 34.840552385524461 4.5964816651363405 1 0 0 I I #
vertex $-1 $648 $685 #
straight-curve $-1 -27.65117649974507 -34.840552385524461 4.5964816651363405 -1 0 0 I I #
edge $-1 $588 0.94048850049136234 $654 6.3714978287985931 $637 $686 forward 7 unknown #
point $-1 -51.116806587987512 34.840552385524461 4.5964816651363405 #
point $-1 -51.116806587987512 -34.840552385524461 4.5964816651363405 #
point $-1 -51.116806587987512 -34.840552385524461 10.027490993443571 #
coedge $-1 $635 $687 $594 $648 reversed $631 $-1 #
edge $-1 $641 -4.5964816651363405 $650 10.027490993443573 $647 $688 forward 7 unknown #
coedge $-1 $604 $595 $687 $689 forward $578 $-1 #
vertex $-1 $689 $690 #
straight-curve $-1 0 -34.840552385524461 -10.027490993443573 -1 0 0 I I #
edge $-1 $691 -59.487899410992767 $600 59.487899410992767 $597 $692 forward 7 unknown #
point $-1 59.487899410992767 34.840552385524461 -10.027490993443573 #
vertex $-1 $633 $693 #
straight-curve $-1 0 34.840552385524461 10.027490993443573 -1 0 0 I I #
face $-1 $694 $695 $19 $-1 $696 reversed single #
plane-surface $-1 0 0 10.027490993443573 0 0 1 1 0 0 forward_v I I I I #
coedge $-1 $697 $661 $663 $698 reversed $608 $-1 #
coedge $-1 $699 $610 $700 $701 reversed $551 $-1 #
coedge $-1 $610 $699 $702 $703 reversed $551 $-1 #
coedge $-1 $658 $704 $610 $662 forward $608 $-1 #
edge $-1 $705 -34.840552385524461 $706 34.840552385524461 $661 $707 forward 7 unknown #
coedge $-1 $702 $611 $658 $698 forward $488 $-1 #
coedge $-1 $616 $708 $611 $665 forward $617 $-1 #
edge $-1 $709 -51.116806587987512 $624 47.160391374917317 $611 $710 forward 7 unknown #
coedge $-1 $612 $711 $712 $713 reversed $488 $-1 #
coedge $-1 $714 $715 $613 $668 forward $716 $-1 #
edge $-1 $670 -10.027490993443573 $717 10.027490993443573 $613 $718 forward 7 unknown #
coedge $-1 $708 $614 $715 $719 forward $617 $-1 #
vertex $-1 $615 $720 #
straight-curve $-1 59.487899410992767 0 10.027490993443573 0 1 0 I I #
point $-1 47.160391374917317 -26.177996146477014 10.027490993443571 #
straight-curve $-1 47.16039137491731 -15.254637133000369 10.027490993443571 0 1 0 I I #
point $-1 47.160391374917317 -34.840552385524461 10.027490993443571 #
coedge $-1 $712 $721 $626 $676 forward $695 $-1 #
edge $-1 $717 -34.840552385524461 $677 34.840552385524461 $626 $722 forward 7 unknown #
vertex $-1 $627 $723 #
straight-curve $-1 59.487899410992767 -34.840552385524461 0 0 0 -1 I I #
plane-surface $-1 0 34.840552385524461 0 0 -1 0 0 0 -1 forward_v I I I I #
straight-curve $-1 -51.116806587987512 0 10.027490993443573 0 -1 0 I I #
coedge $-1 $687 $635 $638 $683 forward $631 $-1 #
straight-curve $-1 -59.487899410992767 0 4.5964816651363405 0 1 0 I I #
edge $-1 $639 -4.5964816651363405 $691 10.027490993443573 $638 $724 forward 7 unknown #
point $-1 -59.487899410992767 34.840552385524461 4.5964816651363405 #
point $-1 -59.487899410992767 -34.840552385524461 4.5964816651363405 #
straight-curve $-1 -51.116806587987512 34.840552385524461 3.6559931646449781 0 0 1 I I #
coedge $-1 $647 $681 $649 $689 reversed $631 $-1 #
straight-curve $-1 -59.487899410992767 -34.840552385524461 0 0 0 -1 I I #
edge $-1 $650 -34.840552385524461 $691 34.840552385524461 $687 $725 forward 7 unknown #
point $-1 -59.487899410992767 -34.840552385524461 -10.027490993443573 #
vertex $-1 $652 $726 #
straight-curve $-1 0 34.840552385524461 -10.027490993443573 1 0 0 I I #
point $-1 -51.116806587987512 34.840552385524461 10.027490993443571 #
face $-1 $727 $728 $19 $-1 $729 reversed single #
loop $-1 $-1 $675 $656 #
plane-surface $-1 0 0 -10.027490993443573 0 0 1 1 0 0 forward_v I I I I #
coedge $-1 $704 $658 $708 $730 reversed $608 $-1 #
edge $-1 $709 -6.3714978287985931 $706 -0.94048850049136234 $663 $731 forward 7 unknown #
coedge $-1 $660 $659 $732 $733 reversed $551 $-1 #
coedge $-1 $734 $735 $659 $701 forward $716 $-1 #
edge $-1 $736 -31.836722911247698 $705 -23.465630088242442 $700 $737 forward 7 unknown #
coedge $-1 $711 $663 $660 $703 forward $488 $-1 #
edge $-1 $706 23.465630088242442 $738 31.836722911247698 $702 $739 forward 7 unknown #
coedge $-1 $661 $697 $734 $740 reversed $608 $-1 #
vertex $-1 $701 $741 #
vertex $-1 $703 $742 #
straight-curve $-1 -51.116806587987512 0 4.5964816651363405 0 -1 0 I I #
coedge $-1 $664 $669 $697 $730 forward $617 $-1 #
vertex $-1 $665 $743 #
straight-curve $-1 0 -34.840552385524461 10.027490993443573 1 0 0 I I #
coedge $-1 $666 $702 $744 $745 forward $488 $-1 #
coedge $-1 $746 $675 $666 $713 forward $695 $-1 #
edge $-1 $677 -59.487899410992767 $747 59.487899410992767 $666 $748 forward 7 unknown #
coedge $-1 $735 $667 $721 $749 reversed $716 $-1 #
coedge $-1 $667 $734 $669 $719 reversed $716 $-1 #
loop $-1 $-1 $734 $727 #
vertex $-1 $676 $750 #
straight-curve $-1 59.487899410992767 34.840552385524461 0 0 0 -1 I I #
edge $-1 $670 -59.487899410992767 $751 51.116806587987512 $715 $752 forward 7 unknown #
point $-1 59.487899410992767 34.840552385524461 10.027490993443573 #
coedge $-1 $675 $746 $714 $749 forward $695 $-1 #
straight-curve $-1 59.487899410992767 0 -10.027490993443573 0 -1 0 I I #
point $-1 59.487899410992767 -34.840552385524461 -10.027490993443573 #
straight-curve $-1 -59.487899410992767 34.840552385524461 0 0 0 -1 I I #
straight-curve $-1 -59.487899410992767 0 -10.027490993443573 0 1 0 I I #
point $-1 -59.487899410992767 34.840552385524461 -10.027490993443573 #
face $-1 $-1 $716 $19 $-1 $753 reversed single #
loop $-1 $-1 $732 $694 #
plane-surface $-1 -59.487899410992767 0 0 1 0 0 0 0 -1 forward_v I I I I #
edge $-1 $751 -34.840552385524461 $709 34.840552385524461 $708 $754 forward 7 unknown #
straight-curve $-1 -51.116806587987512 -34.840552385524461 3.6559931646449781 0 0 -1 I I #
coedge $-1 $755 $744 $699 $733 forward $728 $-1 #
edge $-1 $738 -34.840552385524461 $736 34.840552385524461 $732 $756 forward 7 unknown #
coedge $-1 $715 $700 $704 $740 forward $716 $-1 #
coedge $-1 $700 $714 $755 $757 reversed $716 $-1 #
vertex $-1 $757 $758 #
straight-curve $-1 -27.65117649974507 34.840552385524461 4.5964816651363405 1 0 0 I I #
vertex $-1 $745 $759 #
straight-curve $-1 -27.65117649974507 -34.840552385524461 4.5964816651363405 -1 0 0 I I #
edge $-1 $705 0.94048850049136234 $751 6.3714978287985931 $734 $760 forward 7 unknown #
point $-1 -51.116806587987512 34.840552385524461 4.5964816651363405 #
point $-1 -51.116806587987512 -34.840552385524461 4.5964816651363405 #
point $-1 -51.116806587987512 -34.840552385524461 10.027490993443571 #
coedge $-1 $732 $761 $711 $745 reversed $728 $-1 #
edge $-1 $738 -4.5964816651363405 $747 10.027490993443573 $744 $762 forward 7 unknown #
coedge $-1 $721 $712 $761 $763 forward $695 $-1 #
vertex $-1 $763 $764 #
straight-curve $-1 0 -34.840552385524461 -10.027490993443573 -1 0 0 I I #
edge $-1 $765 -59.487899410992767 $717 59.487899410992767 $714 $766 forward 7 unknown #
point $-1 59.487899410992767 34.840552385524461 -10.027490993443573 #
vertex $-1 $730 $767 #
straight-curve $-1 0 34.840552385524461 10.027490993443573 -1 0 0 I I #
plane-surface $-1 0 34.840552385524461 0 0 -1 0 0 0 -1 forward_v I I I I #
straight-curve $-1 -51.116806587987512 0 10.027490993443573 0 -1 0 I I #
coedge $-1 $761 $732 $735 $757 forward $728 $-1 #
straight-curve $-1 -59.487899410992767 0 4.5964816651363405 0 1 0 I I #
edge $-1 $736 -4.5964816651363405 $765 10.027490993443573 $735 $768 forward 7 unknown #
point $-1 -59.487899410992767 34.840552385524461 4.5964816651363405 #
point $-1 -59.487899410992767 -34.840552385524461 4.5964816651363405 #
straight-curve $-1 -51.116806587987512 34.840552385524461 3.6559931646449781 0 0 1 I I #
coedge $-1 $744 $755 $746 $763 reversed $728 $-1 #
straight-curve $-1 -59.487899410992767 -34.840552385524461 0 0 0 -1 I I #
edge $-1 $747 -34.840552385524461 $765 34.840552385524461 $761 $769 forward 7 unknown #
point $-1 -59.487899410992767 -34.840552385524461 -10.027490993443573 #
vertex $-1 $749 $770 #
straight-curve $-1 0 34.840552385524461 -10.027490993443573 1 0 0 I I #
point $-1 -51.116806587987512 34.840552385524461 10.027490993443571 #
straight-curve $-1 -59.487899410992767 34.840552385524461 0 0 0 -1 I I #
straight-curve $-1 -59.487899410992767 0 -10.027490993443573 0 1 0 I I #
point $-1 -59.487899410992767 34.840552385524461 -10.027490993443573 #
End-of-ACIS-data 