500 0 5 0           
7 Unknown 11 ACIS 5.0 NT 24 Thu Mar 25 19:07:34 1999 
-1 9.9999999999999995e-007 1e-010 
body $-1 $5 $-1 $6 #
body $-1 $7 $-1 $8 #
body $-1 $9 $-1 $10 #
body $-1 $11 $-1 $12 #
body $-1 $13 $-1 $14 #
lump $-1 $-1 $15 $0 #
transform $-1 1 0 0 0 1 0 0 0 1 48.131351664784688 31.500939233277599 10.106315002588907 1 rotate no_reflect no_shear #
lump $-1 $-1 $16 $1 #
transform $-1 1 0 0 0 1 0 0 0 1 48.131351664784688 31.500939233277599 10.106315002588907 1 rotate no_reflect no_shear #
lump $-1 $-1 $17 $2 #
transform $-1 1 0 0 0 1 0 0 0 1 48.131351664784688 31.500939233277599 10.106315002588907 1 rotate no_reflect no_shear #
lump $-1 $-1 $18 $3 #
transform $-1 1 0 0 0 1 0 0 0 1 48.131351664784688 31.500939233277599 10.106315002588907 1 rotate no_reflect no_shear #
lump $-1 $-1 $19 $4 #
transform $-1 1 0 0 0 1 0 0 0 1 48.131351664784688 31.500939233277599 10.106315002588907 1 rotate no_reflect no_shear #
shell $-1 $-1 $-1 $20 $-1 $5 #
shell $-1 $-1 $-1 $21 $-1 $7 #
shell $-1 $-1 $-1 $22 $-1 $9 #
shell $-1 $-1 $-1 $23 $-1 $11 #
shell $-1 $-1 $-1 $24 $-1 $13 #
face $-1 $25 $26 $15 $-1 $27 reversed single #
face $-1 $28 $29 $16 $-1 $30 reversed single #
face $-1 $31 $32 $17 $-1 $33 forward single #
face $-1 $34 $35 $18 $-1 $36 reversed single #
face $-1 $37 $38 $19 $-1 $39 forward single #
face $-1 $40 $41 $15 $-1 $42 forward single #
loop $-1 $-1 $43 $20 #
plane-surface $-1 0 31.500939233277599 0 0 -1 0 0 0 -1 forward_v I I I I #
face $-1 $44 $45 $16 $-1 $46 reversed single #
loop $-1 $-1 $47 $21 #
plane-surface $-1 0 -26.044213845747375 7.1063150025889072 0 0 1 1 0 0 forward_v I I I I #
face $-1 $48 $49 $17 $-1 $50 reversed single #
loop $-1 $-1 $51 $22 #
plane-surface $-1 0 31.500939233277599 0 0 -1 0 0 0 -1 forward_v I I I I #
face $-1 $52 $53 $18 $-1 $54 reversed single #
loop $-1 $-1 $55 $23 #
plane-surface $-1 -121.87286142770645 14.400320296394508 66.568327207054637 0 1 0 -0.7660444514056185 0 0.64278759981090561 forward_v I I I I #
face $-1 $56 $57 $19 $-1 $58 forward single #
loop $-1 $59 $60 $24 #
cone-surface $-1 -44.872405510755215 17.460519949806205 6.5706331585590778 0.7660444514056185 0 -0.64278759981090561 0.64278759981090561 0 0.7660444514056185 1 I I 0 1 1 forward I I I I #
face $-1 $61 $62 $15 $-1 $63 reversed single #
loop $-1 $-1 $64 $25 #
plane-surface $-1 0 0 10.106315002588907 0 0 1 1 0 0 forward_v I I I I #
coedge $-1 $65 $66 $67 $68 reversed $26 $-1 #
face $-1 $69 $70 $16 $-1 $71 reversed single #
loop $-1 $-1 $72 $28 #
plane-surface $-1 0 -20.587488458217152 8.6063150025889072 0 -1 0 0 0 -1 forward_v I I I I #
coedge $-1 $73 $74 $75 $76 reversed $29 $-1 #
face $-1 $77 $78 $17 $-1 $79 reversed single #
loop $-1 $-1 $80 $31 #
plane-surface $-1 0 0 -10.106315002588907 0 0 1 1 0 0 forward_v I I I I #
coedge $-1 $81 $82 $83 $84 forward $32 $-1 #
face $-1 $85 $86 $18 $-1 $87 reversed single #
loop $-1 $-1 $88 $34 #
plane-surface $-1 -48.131351664784674 17.460519949806205 4.6918551825314623 -0.7660444514056185 0 0.64278759981090561 0.64278759981090561 0 0.7660444514056185 forward_v I I I I #
coedge $-1 $89 $90 $91 $92 reversed $35 $-1 #
face $-1 $-1 $93 $19 $-1 $94 forward single #
loop $-1 $95 $96 $37 #
cone-surface $-1 -43.502072690565988 17.460519949806205 5.4207874246525183 0.7660444514056185 0 -0.64278759981090561 0.3213937999054528 0 0.38302222570280925 1 I I -0.70710678118654746 0.70710678118654746 0.5 forward I I I I #
loop $-1 $-1 $97 $24 #
coedge $-1 $60 $60 $98 $99 reversed $38 $-1 #
face $-1 $100 $101 $15 $-1 $102 reversed single #
loop $-1 $-1 $103 $40 #
plane-surface $-1 0 0 -10.106315002588907 0 0 1 1 0 0 forward_v I I I I #
coedge $-1 $104 $105 $106 $107 forward $41 $-1 #
coedge $-1 $108 $43 $109 $110 reversed $26 $-1 #
coedge $-1 $43 $108 $111 $112 forward $26 $-1 #
coedge $-1 $103 $113 $43 $68 forward $62 $-1 #
edge $-1 $114 -48.131351664784688 $115 48.131351664784688 $43 $116 forward 7 unknown #
face $-1 $117 $118 $16 $-1 $119 reversed single #
loop $-1 $-1 $120 $44 #
plane-surface $-1 -48.131351664784688 0 0 1 0 0 0 0 -1 forward_v I I I I #
coedge $-1 $121 $122 $123 $124 reversed $45 $-1 #
coedge $-1 $125 $47 $126 $127 reversed $29 $-1 #
coedge $-1 $47 $125 $121 $128 forward $29 $-1 #
coedge $-1 $123 $129 $47 $76 forward $130 $-1 #
edge $-1 $131 -18.478832310403909 $132 -7.5653815353434641 $75 $133 forward 7 unknown #
face $-1 $134 $135 $17 $-1 $136 reversed single #
loop $-1 $-1 $137 $48 #
plane-surface $-1 -32.169931175482112 36.991049048307438 0 1 0 0 0 0 -1 forward_v I I I I #
coedge $-1 $138 $139 $82 $140 forward $49 $-1 #
coedge $-1 $141 $51 $142 $143 reversed $32 $-1 #
coedge $-1 $51 $141 $80 $140 reversed $32 $-1 #
coedge $-1 $144 $145 $51 $84 reversed $146 $-1 #
edge $-1 $147 -10.106315002588907 $148 10.106315002588907 $83 $149 forward 7 unknown #
face $-1 $150 $151 $18 $-1 $152 reversed single #
loop $-1 $-1 $153 $52 #
plane-surface $-1 -121.87286142770645 20.520719603217902 66.568327207054637 0 -1 0 0.7660444514056185 0 -0.64278759981090561 forward_v I I I I #
coedge $-1 $154 $155 $156 $157 reversed $53 $-1 #
coedge $-1 $90 $55 $158 $159 reversed $35 $-1 #
coedge $-1 $55 $89 $154 $160 reversed $35 $-1 #
coedge $-1 $156 $161 $55 $92 forward $162 $-1 #
edge $-1 $163 12.805079049068539 $164 17.348350168154667 $91 $165 forward 7 unknown #
loop $-1 $-1 $98 $56 #
plane-surface $-1 -48.131351664784674 17.460519949806205 4.6918551825314623 -0.7660444514056185 0 0.64278759981090561 0.64278759981090561 0 0.7660444514056185 forward_v I I I I #
loop $-1 $-1 $166 $37 #
coedge $-1 $96 $96 $97 $167 reversed $57 $-1 #
coedge $-1 $97 $97 $96 $167 forward $59 $-1 #
coedge $-1 $98 $98 $60 $99 forward $93 $-1 #
edge $-1 $168 0 $168 6.2831853071796004 $98 $169 forward 7 unknown #
face $-1 $170 $171 $15 $-1 $172 reversed single #
loop $-1 $-1 $173 $61 #
plane-surface $-1 0 -31.500939233277599 0 0 1 0 0 0 1 forward_v I I I I #
coedge $-1 $174 $67 $175 $176 forward $62 $-1 #
coedge $-1 $177 $64 $108 $178 forward $41 $-1 #
coedge $-1 $64 $177 $179 $180 forward $41 $-1 #
coedge $-1 $181 $111 $64 $107 reversed $182 $-1 #
edge $-1 $183 -31.500939233277599 $184 31.500939233277599 $106 $185 forward 7 unknown #
coedge $-1 $66 $65 $104 $178 reversed $26 $-1 #
coedge $-1 $186 $187 $65 $110 forward $171 $-1 #
edge $-1 $188 -10.106315002588907 $114 10.106315002588907 $65 $189 forward 7 unknown #
coedge $-1 $106 $175 $66 $112 reversed $182 $-1 #
edge $-1 $184 -10.106315002588907 $115 10.106315002588907 $111 $190 forward 7 unknown #
coedge $-1 $67 $174 $186 $191 forward $62 $-1 #
vertex $-1 $68 $192 #
vertex $-1 $176 $193 #
straight-curve $-1 0 31.500939233277599 -10.106315002588907 1 0 0 I I #
face $-1 $194 $195 $16 $-1 $196 forward single #
loop $-1 $-1 $126 $69 #
plane-surface $-1 0 -31.500939233277599 0 0 1 0 0 0 1 forward_v I I I I #
coedge $-1 $197 $198 $199 $200 forward $70 $-1 #
coedge $-1 $199 $72 $74 $128 reversed $45 $-1 #
coedge $-1 $72 $199 $201 $202 reversed $45 $-1 #
coedge $-1 $203 $75 $72 $124 forward $130 $-1 #
edge $-1 $132 2.8031575012944536 $204 5.8031575012944536 $123 $205 forward 7 unknown #
coedge $-1 $74 $73 $197 $206 reversed $29 $-1 #
coedge $-1 $207 $208 $73 $127 forward $118 $-1 #
edge $-1 $209 -48.131351664784688 $131 48.131351664784688 $126 $210 forward 7 unknown #
edge $-1 $211 -48.131351664784688 $132 48.131351664784688 $121 $212 forward 7 unknown #
coedge $-1 $75 $203 $207 $213 forward $130 $-1 #
loop $-1 $-1 $123 $194 #
vertex $-1 $127 $214 #
vertex $-1 $76 $215 #
straight-curve $-1 48.131351664784688 -13.022106922873688 7.1063150025889072 0 1 0 I I #
face $-1 $216 $146 $17 $-1 $217 reversed single #
loop $-1 $-1 $218 $77 #
plane-surface $-1 -30.044326417544493 42.481158863337285 0 0 -1 0 0 0 -1 forward_v I I I I #
coedge $-1 $219 $220 $221 $222 forward $78 $-1 #
coedge $-1 $223 $80 $219 $224 forward $49 $-1 #
coedge $-1 $80 $223 $144 $225 forward $49 $-1 #
edge $-1 $147 27.918721659606874 $226 32.169931175482112 $80 $227 forward 7 unknown #
coedge $-1 $82 $81 $228 $229 forward $32 $-1 #
coedge $-1 $230 $231 $81 $143 forward $232 $-1 #
edge $-1 $233 -32.169931175482112 $148 -27.918721659606874 $142 $234 forward 7 unknown #
coedge $-1 $235 $83 $139 $225 reversed $146 $-1 #
coedge $-1 $83 $235 $230 $236 reversed $146 $-1 #
loop $-1 $-1 $83 $134 #
vertex $-1 $140 $237 #
vertex $-1 $236 $238 #
straight-curve $-1 -27.918721659606874 31.500939233277599 0 0 0 1 I I #
face $-1 $-1 $162 $18 $-1 $239 forward single #
loop $-1 $-1 $240 $85 #
plane-surface $-1 -48.131351664784688 0 0 1 0 0 0 0 -1 forward_v I I I I #
coedge $-1 $241 $242 $243 $244 reversed $86 $-1 #
coedge $-1 $245 $88 $90 $160 forward $53 $-1 #
coedge $-1 $88 $245 $241 $246 forward $53 $-1 #
coedge $-1 $243 $91 $88 $157 forward $162 $-1 #
edge $-1 $164 5.6700603214914054 $247 11.7904596283148 $156 $248 forward 7 unknown #
coedge $-1 $249 $250 $89 $159 forward $151 $-1 #
edge $-1 $251 -28.592308420995874 $163 -23.177848600938411 $158 $252 forward 7 unknown #
edge $-1 $164 -7.0680752404412415 $251 2.2061860048766535e-014 $90 $253 forward 7 unknown #
coedge $-1 $91 $243 $249 $254 forward $162 $-1 #
loop $-1 $-1 $243 $150 #
vertex $-1 $159 $255 #
vertex $-1 $92 $256 #
straight-curve $-1 -60.936430713853227 14.400320296394508 10.106315002588907 1 0 0 I I #
coedge $-1 $166 $166 $-1 $257 reversed $95 $-1 #
edge $-1 $258 0 $258 6.2831853071796004 $96 $259 forward 7 unknown #
vertex $-1 $99 $260 #
ellipse-curve $-1 -45.859716105241624 17.460519949806205 7.3990850925601777 -0.7660444514056185 0 0.64278759981090561 0.64278759981090561 0 0.7660444514056185 1 I I #
face $-1 $-1 $182 $15 $-1 $261 reversed single #
loop $-1 $-1 $109 $100 #
plane-surface $-1 -48.131351664784688 0 0 1 0 0 0 0 -1 forward_v I I I I #
coedge $-1 $262 $179 $263 $264 forward $101 $-1 #
coedge $-1 $113 $103 $262 $265 forward $62 $-1 #
coedge $-1 $111 $181 $103 $176 reversed $182 $-1 #
edge $-1 $115 -31.500939233277599 $266 31.500939233277599 $175 $267 forward 7 unknown #
coedge $-1 $105 $104 $187 $268 forward $41 $-1 #
edge $-1 $184 -48.131351664784688 $188 48.131351664784688 $108 $269 forward 7 unknown #
coedge $-1 $173 $270 $105 $180 reversed $101 $-1 #
edge $-1 $271 -48.131351664784688 $183 48.131351664784688 $179 $272 forward 7 unknown #
coedge $-1 $175 $106 $270 $273 forward $182 $-1 #
loop $-1 $-1 $181 $170 #
vertex $-1 $107 $274 #
vertex $-1 $107 $275 #
straight-curve $-1 48.131351664784688 0 10.106315002588907 0 1 0 I I #
coedge $-1 $263 $109 $113 $191 reversed $171 $-1 #
coedge $-1 $109 $263 $177 $268 reversed $171 $-1 #
vertex $-1 $178 $276 #
straight-curve $-1 -48.131351664784688 31.500939233277599 0 0 0 -1 I I #
straight-curve $-1 48.131351664784688 31.500939233277599 0 0 0 -1 I I #
edge $-1 $277 -31.500939233277599 $114 31.500939233277599 $186 $278 forward 7 unknown #
point $-1 -48.131351664784688 31.500939233277599 -10.106315002588907 #
point $-1 48.131351664784688 31.500939233277599 -10.106315002588907 #
face $-1 $-1 $130 $16 $-1 $279 reversed single #
loop $-1 $-1 $201 $117 #
plane-surface $-1 0 0 10.106315002588907 0 0 1 1 0 0 forward_v I I I I #
coedge $-1 $280 $120 $125 $206 forward $70 $-1 #
coedge $-1 $120 $280 $281 $282 reversed $70 $-1 #
coedge $-1 $122 $121 $120 $200 reversed $45 $-1 #
edge $-1 $283 -5.8031575012944536 $211 -2.8031575012944536 $120 $284 forward 7 unknown #
coedge $-1 $281 $285 $122 $202 forward $195 $-1 #
edge $-1 $204 -48.131351664784688 $283 48.131351664784688 $201 $286 forward 7 unknown #
coedge $-1 $129 $123 $285 $287 reversed $130 $-1 #
vertex $-1 $124 $288 #
straight-curve $-1 48.131351664784688 -20.587488458217152 4.3031575012944536 0 0 1 I I #
edge $-1 $211 7.5653815353434641 $209 18.478832310403909 $197 $289 forward 7 unknown #
coedge $-1 $290 $126 $129 $213 reversed $118 $-1 #
coedge $-1 $126 $290 $280 $291 forward $118 $-1 #
vertex $-1 $127 $292 #
straight-curve $-1 0 -31.500939233277599 7.1063150025889072 1 0 0 I I #
vertex $-1 $206 $293 #
straight-curve $-1 0 -20.587488458217152 7.1063150025889072 1 0 0 I I #
edge $-1 $294 -10.106315002588907 $131 -7.1063150025889072 $129 $295 forward 7 unknown #
point $-1 48.131351664784688 -31.500939233277599 7.1063150025889072 #
point $-1 48.131351664784688 -20.587488458217152 7.1063150025889072 #
face $-1 $-1 $232 $17 $-1 $296 forward single #
plane-surface $-1 -27.918721659606874 36.991049048307438 0 -1 0 0 0 0 1 forward_v I I I I #
coedge $-1 $297 $298 $235 $299 forward $135 $-1 #
coedge $-1 $228 $137 $138 $224 reversed $78 $-1 #
coedge $-1 $137 $228 $231 $300 reversed $78 $-1 #
coedge $-1 $298 $297 $137 $222 reversed $135 $-1 #
edge $-1 $301 -10.106315002588907 $302 10.106315002588907 $221 $303 forward 7 unknown #
coedge $-1 $139 $138 $297 $304 forward $49 $-1 #
edge $-1 $226 -5.4901098150298466 $302 5.4901098150298466 $219 $305 forward 7 unknown #
edge $-1 $306 -5.4901098150298466 $147 5.4901098150298466 $144 $307 forward 7 unknown #
vertex $-1 $224 $308 #
straight-curve $-1 0 31.500939233277599 -10.106315002588907 -1 0 0 I I #
coedge $-1 $220 $219 $141 $229 reversed $78 $-1 #
edge $-1 $233 -10.106315002588907 $226 10.106315002588907 $228 $309 forward 7 unknown #
coedge $-1 $310 $142 $145 $236 forward $232 $-1 #
coedge $-1 $142 $310 $220 $300 forward $232 $-1 #
loop $-1 $-1 $142 $216 #
vertex $-1 $143 $311 #
straight-curve $-1 0 31.500939233277599 10.106315002588907 1 0 0 I I #
coedge $-1 $145 $144 $218 $299 reversed $146 $-1 #
edge $-1 $148 -5.4901098150298466 $312 5.4901098150298466 $145 $313 forward 7 unknown #
point $-1 -27.918721659606874 31.500939233277592 -10.106315002588907 #
point $-1 -27.918721659606874 31.500939233277592 10.106315002588907 #
plane-surface $-1 0 0 10.106315002588907 0 0 1 1 0 0 forward_v I I I I #
coedge $-1 $250 $249 $242 $314 forward $151 $-1 #
coedge $-1 $242 $153 $155 $246 reversed $86 $-1 #
coedge $-1 $153 $241 $240 $314 reversed $86 $-1 #
coedge $-1 $161 $156 $153 $244 forward $162 $-1 #
edge $-1 $247 -17.348350168154667 $315 -12.805079049068539 $243 $316 forward 7 unknown #
coedge $-1 $155 $154 $250 $317 reversed $53 $-1 #
edge $-1 $318 -2.2061860048766535e-014 $247 7.0680752404412415 $241 $319 forward 7 unknown #
vertex $-1 $157 $320 #
straight-curve $-1 -43.58808054569856 8.7302599749031025 10.106315002588907 0 1 0 I I #
coedge $-1 $240 $158 $161 $254 reversed $151 $-1 #
coedge $-1 $158 $240 $245 $317 forward $151 $-1 #
vertex $-1 $159 $321 #
straight-curve $-1 -48.131351664784688 14.400320296394508 33.284163603527318 0 0 1 I I #
straight-curve $-1 -48.131351664784674 14.400320296394508 4.6918551825314623 -0.64278759981090561 0 -0.7660444514056185 I I #
edge $-1 $315 -20.520719603217902 $163 -14.400320296394508 $249 $322 forward 7 unknown #
point $-1 -48.131351664784688 14.400320296394508 10.106315002588907 #
point $-1 -43.58808054569856 14.400320296394508 10.106315002588907 #
edge $-1 $323 1 $323 0 $166 $-1 forward 7 unknown #
vertex $-1 $167 $324 #
ellipse-curve $-1 -43.885094916268798 17.460519949806205 5.7421812245579709 -0.7660444514056185 0 0.64278759981090561 0.64278759981090561 0 0.7660444514056185 1 I I #
point $-1 -45.216928505430722 17.460519949806205 8.1651295439658025 #
plane-surface $-1 48.131351664784688 0 0 -1 0 0 0 0 1 forward_v I I I I #
coedge $-1 $270 $173 $174 $265 reversed $101 $-1 #
coedge $-1 $187 $186 $173 $264 reversed $171 $-1 #
edge $-1 $271 -10.106315002588907 $277 10.106315002588907 $263 $325 forward 7 unknown #
edge $-1 $266 -48.131351664784688 $277 48.131351664784688 $262 $326 forward 7 unknown #
vertex $-1 $273 $327 #
straight-curve $-1 48.131351664784688 0 -10.106315002588907 0 -1 0 I I #
edge $-1 $188 -31.500939233277599 $271 31.500939233277599 $187 $328 forward 7 unknown #
straight-curve $-1 0 31.500939233277599 10.106315002588907 -1 0 0 I I #
coedge $-1 $179 $262 $181 $273 reversed $101 $-1 #
vertex $-1 $268 $329 #
straight-curve $-1 0 -31.500939233277599 10.106315002588907 1 0 0 I I #
edge $-1 $183 -10.106315002588907 $266 10.106315002588907 $181 $330 forward 7 unknown #
point $-1 48.131351664784688 -31.500939233277599 10.106315002588907 #
point $-1 48.131351664784688 31.500939233277599 10.106315002588907 #
point $-1 -48.131351664784688 31.500939233277599 10.106315002588907 #
vertex $-1 $191 $331 #
straight-curve $-1 -48.131351664784688 0 -10.106315002588907 0 1 0 I I #
plane-surface $-1 48.131351664784688 0 0 -1 0 0 0 0 1 forward_v I I I I #
coedge $-1 $198 $197 $208 $291 reversed $70 $-1 #
coedge $-1 $332 $201 $198 $282 forward $195 $-1 #
edge $-1 $283 20.587488458217152 $333 31.500939233277599 $198 $334 forward 7 unknown #
vertex $-1 $282 $335 #
straight-curve $-1 -48.131351664784688 -20.587488458217152 4.3031575012944536 0 0 -1 I I #
coedge $-1 $201 $332 $203 $287 forward $195 $-1 #
straight-curve $-1 0 -20.587488458217152 10.106315002588907 -1 0 0 I I #
edge $-1 $294 -31.500939233277599 $204 -20.587488458217152 $203 $336 forward 7 unknown #
point $-1 48.131351664784688 -20.587488458217152 10.106315002588907 #
straight-curve $-1 -48.131351664784688 -13.022106922873688 7.1063150025889072 0 -1 0 I I #
coedge $-1 $208 $207 $332 $337 reversed $118 $-1 #
edge $-1 $333 -10.106315002588907 $209 -7.1063150025889072 $280 $338 forward 7 unknown #
point $-1 -48.131351664784688 -31.500939233277599 7.1063150025889072 #
point $-1 -48.131351664784688 -20.587488458217152 7.1063150025889072 #
vertex $-1 $287 $339 #
straight-curve $-1 48.131351664784688 -31.500939233277599 0 0 0 -1 I I #
plane-surface $-1 0 0 10.106315002588907 0 0 1 1 0 0 forward_v I I I I #
coedge $-1 $221 $218 $223 $304 reversed $135 $-1 #
coedge $-1 $218 $221 $310 $340 reversed $135 $-1 #
edge $-1 $312 -10.106315002588907 $306 10.106315002588907 $235 $341 forward 7 unknown #
edge $-1 $301 -5.4901098150298466 $233 5.4901098150298466 $220 $342 forward 7 unknown #
vertex $-1 $340 $343 #
vertex $-1 $304 $344 #
straight-curve $-1 -32.169931175482112 42.481158863337285 0 0 0 -1 I I #
edge $-1 $302 -2.1256047579376194 $306 2.1256047579376194 $297 $345 forward 7 unknown #
straight-curve $-1 -32.169931175482112 36.991049048307438 -10.106315002588907 0 1 0 I I #
vertex $-1 $225 $346 #
straight-curve $-1 -27.918721659606874 36.991049048307438 -10.106315002588907 0 -1 0 I I #
point $-1 -32.169931175482112 31.500939233277592 -10.106315002588907 #
straight-curve $-1 -32.169931175482112 31.500939233277599 0 0 0 -1 I I #
coedge $-1 $231 $230 $298 $340 forward $232 $-1 #
point $-1 -32.169931175482112 31.500939233277592 10.106315002588907 #
vertex $-1 $236 $347 #
straight-curve $-1 -27.918721659606874 36.991049048307438 10.106315002588907 0 1 0 I I #
edge $-1 $315 23.177848600938411 $318 28.592308420995874 $240 $348 forward 7 unknown #
vertex $-1 $254 $349 #
straight-curve $-1 -60.936430713853227 20.520719603217902 10.106315002588907 -1 0 0 I I #
edge $-1 $318 -11.7904596283148 $251 -5.6700603214914054 $250 $350 forward 7 unknown #
vertex $-1 $317 $351 #
straight-curve $-1 -48.131351664784674 20.520719603217902 4.6918551825314623 0.64278759981090561 0 0.7660444514056185 I I #
point $-1 -43.58808054569856 20.520719603217902 10.106315002588907 #
point $-1 -48.131351664784688 14.400320296394508 4.6918551825314454 #
straight-curve $-1 -48.131351664784688 0 10.106315002588907 0 -1 0 I I #
vertex $-1 $257 $352 #
point $-1 -43.242307316457889 17.460519949806205 6.5082256759635895 #
straight-curve $-1 -48.131351664784688 -31.500939233277599 0 0 0 -1 I I #
straight-curve $-1 0 -31.500939233277599 -10.106315002588907 -1 0 0 I I #
point $-1 48.131351664784688 -31.500939233277599 -10.106315002588907 #
straight-curve $-1 -48.131351664784688 0 10.106315002588907 0 -1 0 I I #
point $-1 -48.131351664784688 -31.500939233277599 10.106315002588907 #
straight-curve $-1 48.131351664784688 -31.500939233277599 0 0 0 -1 I I #
point $-1 -48.131351664784688 -31.500939233277599 -10.106315002588907 #
coedge $-1 $285 $281 $290 $337 forward $195 $-1 #
vertex $-1 $282 $353 #
straight-curve $-1 -48.131351664784688 0 10.106315002588907 0 -1 0 I I #
point $-1 -48.131351664784688 -20.587488458217152 10.106315002588907 #
straight-curve $-1 48.131351664784688 0 10.106315002588907 0 1 0 I I #
edge $-1 $333 -48.131351664784688 $294 48.131351664784688 $290 $354 forward 7 unknown #
straight-curve $-1 -48.131351664784688 -31.500939233277599 0 0 0 -1 I I #
point $-1 48.131351664784688 -31.500939233277599 10.106315002588907 #
edge $-1 $312 -2.1256047579376194 $301 2.1256047579376194 $298 $355 forward 7 unknown #
straight-curve $-1 -27.918721659606874 42.481158863337285 0 0 0 -1 I I #
straight-curve $-1 -32.169931175482112 36.991049048307438 10.106315002588907 0 -1 0 I I #
point $-1 -32.169931175482112 42.481158863337285 10.106315002588907 #
point $-1 -32.169931175482112 42.481158863337285 -10.106315002588907 #
straight-curve $-1 -30.044326417544493 42.481158863337285 -10.106315002588907 1 0 0 I I #
point $-1 -27.918721659606874 42.481158863337285 -10.106315002588907 #
point $-1 -27.918721659606874 42.481158863337285 10.106315002588907 #
straight-curve $-1 -48.131351664784688 20.520719603217902 33.284163603527318 0 0 -1 I I #
point $-1 -48.131351664784688 20.520719603217902 10.106315002588907 #
straight-curve $-1 -48.131351664784688 8.7302599749031025 4.691855182531441 0 -1 0 I I #
point $-1 -48.131351664784688 20.520719603217902 4.6918551825314454 #
point $-1 -43.119050464863179 17.460519949806205 5.0993936247470657 #
point $-1 -48.131351664784688 -31.500939233277599 10.106315002588907 #
straight-curve $-1 0 -31.500939233277599 10.106315002588907 1 0 0 I I #
straight-curve $-1 -30.044326417544493 42.481158863337285 10.106315002588907 -1 0 0 I I #
End-of-ACIS-data 