500 0 10 0           
7 Unknown 11 ACIS 5.0 NT 24 Fri Mar 26 01:05:50 1999 
-1 9.9999999999999995e-007 1e-010 
body $-1 $10 $-1 $11 #
body $-1 $12 $-1 $13 #
body $-1 $14 $-1 $15 #
body $-1 $16 $-1 $17 #
body $-1 $18 $-1 $19 #
body $-1 $20 $-1 $21 #
body $-1 $22 $-1 $23 #
body $-1 $24 $-1 $25 #
body $-1 $26 $-1 $27 #
body $-1 $28 $-1 $29 #
lump $-1 $-1 $30 $0 #
transform $-1 1 0 0 0 1 0 0 0 1 44.233527634510331 19.706173580219577 4.8965634532544877 1 rotate no_reflect no_shear #
lump $-1 $-1 $31 $1 #
transform $-1 1 0 0 0 1 0 0 0 1 44.233527634510331 19.706173580219577 4.8965634532544877 1 rotate no_reflect no_shear #
lump $-1 $-1 $32 $2 #
transform $-1 1 0 0 0 1 0 0 0 1 44.233527634510331 19.706173580219577 4.8965634532544877 1 rotate no_reflect no_shear #
lump $-1 $-1 $33 $3 #
transform $-1 1 0 0 0 1 0 0 0 1 44.233527634510331 19.706173580219577 4.8965634532544877 1 rotate no_reflect no_shear #
lump $-1 $-1 $34 $4 #
transform $-1 1 0 0 0 1 0 0 0 1 44.233527634510331 19.706173580219577 4.8965634532544877 1 rotate no_reflect no_shear #
lump $-1 $-1 $35 $5 #
transform $-1 1 0 0 0 1 0 0 0 1 44.233527634510331 19.706173580219577 4.8965634532544877 1 rotate no_reflect no_shear #
lump $-1 $-1 $36 $6 #
transform $-1 1 0 0 0 1 0 0 0 1 44.233527634510331 19.706173580219577 4.8965634532544877 1 rotate no_reflect no_shear #
lump $-1 $-1 $37 $7 #
transform $-1 1 0 0 0 1 0 0 0 1 44.233527634510331 19.706173580219577 4.8965634532544877 1 rotate no_reflect no_shear #
lump $-1 $-1 $38 $8 #
transform $-1 1 0 0 0 1 0 0 0 1 44.233527634510331 19.706173580219577 4.8965634532544877 1 rotate no_reflect no_shear #
lump $-1 $-1 $39 $9 #
transform $-1 1 0 0 0 1 0 0 0 1 44.233527634510331 19.706173580219577 4.8965634532544877 1 rotate no_reflect no_shear #
shell $-1 $-1 $-1 $40 $-1 $10 #
shell $-1 $-1 $-1 $41 $-1 $12 #
shell $-1 $-1 $-1 $42 $-1 $14 #
shell $-1 $-1 $-1 $43 $-1 $16 #
shell $-1 $-1 $-1 $44 $-1 $18 #
shell $-1 $-1 $-1 $45 $-1 $20 #
shell $-1 $-1 $-1 $46 $-1 $22 #
shell $-1 $-1 $-1 $47 $-1 $24 #
shell $-1 $-1 $-1 $48 $-1 $26 #
shell $-1 $-1 $-1 $49 $-1 $28 #
face $-1 $50 $51 $30 $-1 $52 reversed single #
face $-1 $53 $54 $31 $-1 $55 forward single #
face $-1 $56 $57 $32 $-1 $58 reversed single #
face $-1 $59 $60 $33 $-1 $61 forward single #
face $-1 $62 $63 $34 $-1 $64 forward single #
face $-1 $65 $66 $35 $-1 $67 forward single #
face $-1 $68 $69 $36 $-1 $70 reversed single #
face $-1 $71 $72 $37 $-1 $73 forward single #
face $-1 $74 $75 $38 $-1 $76 forward single #
face $-1 $77 $78 $39 $-1 $79 forward single #
face $-1 $80 $81 $30 $-1 $82 forward single #
loop $-1 $-1 $83 $40 #
plane-surface $-1 0 -19.706173580219577 0 0 1 0 0 0 1 forward_v I I I I #
face $-1 $84 $85 $31 $-1 $86 forward single #
loop $-1 $-1 $87 $41 #
plane-surface $-1 0 -19.706173580219577 0 0 1 0 0 0 1 forward_v I I I I #
face $-1 $88 $89 $32 $-1 $90 reversed single #
loop $-1 $-1 $91 $42 #
plane-surface $-1 -111.0004625134037 13.611128716768498 59.443611721654634 0 1 0 -0.75470958851134928 0 0.65605901945558964 forward_v I I I I #
face $-1 $92 $93 $33 $-1 $94 forward single #
loop $-1 $95 $96 $43 #
cone-surface $-1 -42.272845313869809 14.830137689458716 2.7654810902516243 0.75470958851134928 0 -0.65605901945558964 0.32802950972779482 0 0.37735479425567464 1 I I 0 1 0.5 forward I I I I #
face $-1 $97 $98 $34 $-1 $99 forward single #
loop $-1 $100 $101 $44 #
cone-surface $-1 -42.272845313869809 16.658651148494037 2.7654810902516243 0.75470958851134928 0 -0.65605901945558964 0.32802950972779482 0 0.37735479425567464 1 I I 0 1 0.5 forward I I I I #
face $-1 $102 $103 $35 $-1 $104 forward single #
loop $-1 $105 $106 $45 #
cone-surface $-1 -42.272845313869809 18.487164607529358 2.7654810902516243 0.75470958851134928 0 -0.65605901945558964 0.32802950972779482 0 0.37735479425567464 1 I I 0 1 0.5 forward I I I I #
face $-1 $107 $108 $36 $-1 $109 reversed single #
loop $-1 $-1 $110 $46 #
plane-surface $-1 52.960852979486553 13.611128716768498 126.21054660054801 0 1 0 0.75470958851134928 0 0.65605901945558964 forward_v I I I I #
face $-1 $111 $112 $37 $-1 $113 forward single #
loop $-1 $114 $115 $47 #
cone-surface $-1 42.272845313869801 14.830137689458716 2.7654810902516429 -0.75470958851134928 0 -0.65605901945558964 0.32802950972779482 0 -0.37735479425567464 1 I I 0 1 0.5 forward I I I I #
face $-1 $116 $117 $38 $-1 $118 forward single #
loop $-1 $119 $120 $48 #
cone-surface $-1 42.272845313869801 16.658651148494037 2.7654810902516429 -0.75470958851134928 0 -0.65605901945558964 0.32802950972779482 0 -0.37735479425567464 1 I I 0 1 0.5 forward I I I I #
face $-1 $121 $122 $39 $-1 $123 forward single #
loop $-1 $124 $125 $49 #
cone-surface $-1 42.272845313869801 18.487164607529358 2.7654810902516429 -0.75470958851134928 0 -0.65605901945558964 0.32802950972779482 0 -0.37735479425567464 1 I I 0 1 0.5 forward I I I I #
face $-1 $126 $127 $30 $-1 $128 reversed single #
loop $-1 $-1 $129 $50 #
plane-surface $-1 0 0 4.8965634532544877 0 0 1 1 0 0 forward_v I I I I #
coedge $-1 $130 $131 $132 $133 reversed $51 $-1 #
face $-1 $134 $135 $31 $-1 $136 reversed single #
loop $-1 $-1 $137 $53 #
plane-surface $-1 0 0 4.8965634532544877 0 0 1 1 0 0 forward_v I I I I #
coedge $-1 $138 $139 $140 $141 forward $54 $-1 #
face $-1 $142 $143 $32 $-1 $144 reversed single #
loop $-1 $-1 $145 $56 #
plane-surface $-1 -44.233527634510324 16.658651148494037 1.4040021877374826 -0.75470958851134928 0 0.65605901945558964 0.65605901945558964 0 0.75470958851134928 forward_v I I I I #
coedge $-1 $146 $147 $148 $149 reversed $57 $-1 #
face $-1 $-1 $150 $33 $-1 $151 forward single #
loop $-1 $152 $153 $59 #
cone-surface $-1 -41.641504151929823 14.830137689458716 2.2166646051433663 0.75470958851134928 0 -0.65605901945558964 0.16401475486389741 0 0.18867739712783732 1 I I -0.70710678118654746 0.70710678118654746 0.25 forward I I I I #
loop $-1 $-1 $154 $43 #
coedge $-1 $96 $96 $155 $156 reversed $60 $-1 #
face $-1 $-1 $157 $34 $-1 $158 forward single #
loop $-1 $159 $160 $62 #
cone-surface $-1 -41.641504151929823 16.658651148494037 2.2166646051433663 0.75470958851134928 0 -0.65605901945558964 0.16401475486389741 0 0.18867739712783732 1 I I -0.70710678118654746 0.70710678118654746 0.25 forward I I I I #
loop $-1 $-1 $161 $44 #
coedge $-1 $101 $101 $162 $163 reversed $63 $-1 #
face $-1 $-1 $164 $35 $-1 $165 forward single #
loop $-1 $166 $167 $65 #
cone-surface $-1 -41.641504151929823 18.487164607529358 2.2166646051433663 0.75470958851134928 0 -0.65605901945558964 0.16401475486389741 0 0.18867739712783732 1 I I -0.70710678118654746 0.70710678118654746 0.25 forward I I I I #
loop $-1 $-1 $168 $45 #
coedge $-1 $106 $106 $169 $170 reversed $66 $-1 #
face $-1 $171 $172 $36 $-1 $173 reversed single #
loop $-1 $-1 $174 $68 #
plane-surface $-1 -13.806081899406827 16.658651148494037 68.17093706663087 0.75470958851134928 0 0.65605901945558964 0.65605901945558964 0 -0.75470958851134928 forward_v I I I I #
coedge $-1 $175 $176 $177 $178 reversed $69 $-1 #
face $-1 $-1 $179 $37 $-1 $180 forward single #
loop $-1 $181 $182 $71 #
cone-surface $-1 41.641504151929816 14.830137689458716 2.2166646051433849 -0.75470958851134928 0 -0.65605901945558964 0.16401475486389741 0 -0.18867739712783732 1 I I -0.70710678118654746 0.70710678118654746 0.25 forward I I I I #
loop $-1 $-1 $183 $47 #
coedge $-1 $115 $115 $184 $185 reversed $72 $-1 #
face $-1 $-1 $186 $38 $-1 $187 forward single #
loop $-1 $188 $189 $74 #
cone-surface $-1 41.641504151929816 16.658651148494037 2.2166646051433849 -0.75470958851134928 0 -0.65605901945558964 0.16401475486389741 0 -0.18867739712783732 1 I I -0.70710678118654746 0.70710678118654746 0.25 forward I I I I #
loop $-1 $-1 $190 $48 #
coedge $-1 $120 $120 $191 $192 reversed $75 $-1 #
face $-1 $-1 $193 $39 $-1 $194 forward single #
loop $-1 $195 $196 $77 #
cone-surface $-1 41.641504151929816 18.487164607529358 2.2166646051433849 -0.75470958851134928 0 -0.65605901945558964 0.16401475486389741 0 -0.18867739712783732 1 I I -0.70710678118654746 0.70710678118654746 0.25 forward I I I I #
loop $-1 $-1 $197 $49 #
coedge $-1 $125 $125 $198 $199 reversed $78 $-1 #
face $-1 $200 $201 $30 $-1 $202 reversed single #
loop $-1 $-1 $203 $80 #
plane-surface $-1 0 0 -4.8965634532544877 0 0 1 1 0 0 forward_v I I I I #
coedge $-1 $204 $205 $206 $207 forward $81 $-1 #
coedge $-1 $208 $83 $209 $210 reversed $51 $-1 #
coedge $-1 $83 $208 $211 $212 forward $51 $-1 #
coedge $-1 $213 $203 $83 $133 forward $127 $-1 #
edge $-1 $214 -44.233527634510331 $215 44.233527634510331 $83 $216 forward 7 unknown #
face $-1 $217 $218 $31 $-1 $219 reversed single #
loop $-1 $-1 $220 $84 #
plane-surface $-1 -44.233527634510331 0 0 1 0 0 0 0 -1 forward_v I I I I #
coedge $-1 $221 $222 $139 $223 forward $85 $-1 #
coedge $-1 $224 $87 $225 $226 reversed $54 $-1 #
coedge $-1 $87 $224 $137 $223 reversed $54 $-1 #
coedge $-1 $227 $228 $87 $141 reversed $229 $-1 #
edge $-1 $230 -4.8965634532544877 $231 4.8965634532544877 $140 $232 forward 7 unknown #
face $-1 $233 $234 $32 $-1 $235 reversed single #
loop $-1 $-1 $236 $88 #
plane-surface $-1 0 19.706173580219577 0 0 -1 0 0 0 -1 forward_v I I I I #
coedge $-1 $237 $238 $239 $240 reversed $89 $-1 #
coedge $-1 $147 $91 $241 $242 reversed $57 $-1 #
coedge $-1 $91 $146 $237 $243 reversed $57 $-1 #
coedge $-1 $239 $244 $91 $149 forward $245 $-1 #
edge $-1 $246 11.266703622191521 $247 14.302740733848289 $148 $248 forward 7 unknown #
loop $-1 $-1 $155 $92 #
plane-surface $-1 -44.233527634510324 16.658651148494037 1.4040021877374826 -0.75470958851134928 0 0.65605901945558964 0.65605901945558964 0 0.75470958851134928 forward_v I I I I #
loop $-1 $-1 $249 $59 #
coedge $-1 $153 $153 $154 $250 reversed $93 $-1 #
coedge $-1 $154 $154 $153 $250 forward $95 $-1 #
coedge $-1 $155 $155 $96 $156 forward $150 $-1 #
edge $-1 $251 0 $251 6.2831853071796004 $155 $252 forward 7 unknown #
loop $-1 $-1 $162 $97 #
plane-surface $-1 -44.233527634510324 16.658651148494037 1.4040021877374826 -0.75470958851134928 0 0.65605901945558964 0.65605901945558964 0 0.75470958851134928 forward_v I I I I #
loop $-1 $-1 $253 $62 #
coedge $-1 $160 $160 $161 $254 reversed $98 $-1 #
coedge $-1 $161 $161 $160 $254 forward $100 $-1 #
coedge $-1 $162 $162 $101 $163 forward $157 $-1 #
edge $-1 $255 0 $255 6.2831853071796004 $162 $256 forward 7 unknown #
loop $-1 $-1 $169 $102 #
plane-surface $-1 -44.233527634510324 16.658651148494037 1.4040021877374826 -0.75470958851134928 0 0.65605901945558964 0.65605901945558964 0 0.75470958851134928 forward_v I I I I #
loop $-1 $-1 $257 $65 #
coedge $-1 $167 $167 $168 $258 reversed $103 $-1 #
coedge $-1 $168 $168 $167 $258 forward $105 $-1 #
coedge $-1 $169 $169 $106 $170 forward $164 $-1 #
edge $-1 $259 0 $259 6.2831853071796004 $169 $260 forward 7 unknown #
face $-1 $261 $262 $36 $-1 $263 reversed single #
loop $-1 $-1 $177 $107 #
plane-surface $-1 44.233527634510331 0 0 -1 0 0 0 0 1 forward_v I I I I #
coedge $-1 $264 $265 $266 $267 reversed $108 $-1 #
coedge $-1 $176 $110 $268 $269 reversed $69 $-1 #
coedge $-1 $110 $175 $264 $270 reversed $69 $-1 #
coedge $-1 $266 $271 $110 $178 forward $172 $-1 #
edge $-1 $272 58.20870984701952 $273 61.701271112536531 $177 $274 forward 7 unknown #
loop $-1 $-1 $184 $111 #
plane-surface $-1 -13.806081899406827 16.658651148494037 68.17093706663087 0.75470958851134928 0 0.65605901945558964 0.65605901945558964 0 -0.75470958851134928 forward_v I I I I #
loop $-1 $-1 $275 $71 #
coedge $-1 $182 $182 $183 $276 reversed $112 $-1 #
coedge $-1 $183 $183 $182 $276 forward $114 $-1 #
coedge $-1 $184 $184 $115 $185 forward $179 $-1 #
edge $-1 $277 0 $277 6.2831853071796004 $184 $278 forward 7 unknown #
loop $-1 $-1 $191 $116 #
plane-surface $-1 -13.806081899406827 16.658651148494037 68.17093706663087 0.75470958851134928 0 0.65605901945558964 0.65605901945558964 0 -0.75470958851134928 forward_v I I I I #
loop $-1 $-1 $279 $74 #
coedge $-1 $189 $189 $190 $280 reversed $117 $-1 #
coedge $-1 $190 $190 $189 $280 forward $119 $-1 #
coedge $-1 $191 $191 $120 $192 forward $186 $-1 #
edge $-1 $281 0 $281 6.2831853071796004 $191 $282 forward 7 unknown #
loop $-1 $-1 $198 $121 #
plane-surface $-1 -13.806081899406827 16.658651148494037 68.17093706663087 0.75470958851134928 0 0.65605901945558964 0.65605901945558964 0 -0.75470958851134928 forward_v I I I I #
loop $-1 $-1 $283 $77 #
coedge $-1 $196 $196 $197 $284 reversed $122 $-1 #
coedge $-1 $197 $197 $196 $284 forward $124 $-1 #
coedge $-1 $198 $198 $125 $199 forward $193 $-1 #
edge $-1 $285 0 $285 6.2831853071796004 $198 $286 forward 7 unknown #
face $-1 $287 $288 $30 $-1 $289 reversed single #
loop $-1 $-1 $290 $126 #
plane-surface $-1 -44.233527634510331 0 0 1 0 0 0 0 -1 forward_v I I I I #
coedge $-1 $132 $291 $292 $293 forward $127 $-1 #
coedge $-1 $294 $129 $295 $296 forward $81 $-1 #
coedge $-1 $129 $294 $208 $297 forward $81 $-1 #
coedge $-1 $209 $298 $129 $207 reversed $299 $-1 #
edge $-1 $300 -19.706173580219577 $301 19.706173580219577 $206 $302 forward 7 unknown #
coedge $-1 $131 $130 $205 $297 reversed $51 $-1 #
coedge $-1 $292 $206 $130 $210 forward $299 $-1 #
edge $-1 $300 -4.8965634532544877 $214 4.8965634532544877 $209 $303 forward 7 unknown #
coedge $-1 $304 $305 $131 $212 reversed $201 $-1 #
edge $-1 $306 -4.8965634532544877 $215 4.8965634532544877 $211 $307 forward 7 unknown #
coedge $-1 $291 $132 $305 $308 forward $127 $-1 #
vertex $-1 $210 $309 #
vertex $-1 $308 $310 #
straight-curve $-1 0 -19.706173580219577 -4.8965634532544877 -1 0 0 I I #
face $-1 $311 $229 $31 $-1 $312 reversed single #
loop $-1 $-1 $313 $134 #
plane-surface $-1 -42.733527634510331 -24.878305648288006 0 0 1 0 0 0 1 forward_v I I I I #
coedge $-1 $314 $315 $224 $316 forward $135 $-1 #
coedge $-1 $317 $137 $315 $318 forward $85 $-1 #
coedge $-1 $137 $317 $227 $319 forward $85 $-1 #
edge $-1 $230 41.233527634510331 $320 44.233527634510331 $137 $321 forward 7 unknown #
coedge $-1 $139 $138 $220 $316 reversed $54 $-1 #
coedge $-1 $322 $323 $138 $226 forward $324 $-1 #
edge $-1 $325 -44.233527634510331 $231 -41.233527634510331 $225 $326 forward 7 unknown #
coedge $-1 $327 $140 $222 $319 reversed $229 $-1 #
coedge $-1 $140 $327 $322 $328 reversed $229 $-1 #
loop $-1 $-1 $327 $217 #
vertex $-1 $223 $329 #
vertex $-1 $328 $330 #
straight-curve $-1 -41.233527634510331 -19.706173580219577 0 0 0 -1 I I #
face $-1 $-1 $245 $32 $-1 $331 forward single #
loop $-1 $-1 $332 $142 #
plane-surface $-1 -44.233527634510331 0 0 1 0 0 0 0 -1 forward_v I I I I #
coedge $-1 $333 $334 $238 $335 forward $143 $-1 #
coedge $-1 $336 $145 $147 $243 forward $89 $-1 #
coedge $-1 $145 $336 $236 $335 reversed $89 $-1 #
coedge $-1 $337 $148 $145 $240 forward $245 $-1 #
edge $-1 $247 5.2818031425214791 $338 11.376848005972558 $239 $339 forward 7 unknown #
coedge $-1 $340 $332 $146 $242 forward $234 $-1 #
edge $-1 $341 -28.317803673089841 $246 -24.82524240757283 $241 $342 forward 7 unknown #
edge $-1 $247 -4.6276890060533331 $341 1.086200982436365e-014 $147 $343 forward 7 unknown #
coedge $-1 $148 $337 $340 $344 forward $245 $-1 #
loop $-1 $-1 $239 $233 #
vertex $-1 $242 $345 #
vertex $-1 $149 $346 #
straight-curve $-1 -55.500231256701852 13.611128716768498 4.8965634532544868 1 0 0 I I #
coedge $-1 $249 $249 $-1 $347 reversed $152 $-1 #
edge $-1 $348 0 $348 6.2831853071796004 $153 $349 forward 7 unknown #
vertex $-1 $156 $350 #
ellipse-curve $-1 -42.715509078681947 14.830137689458716 3.150282820495979 -0.75470958851134928 0 0.65605901945558964 0.32802950972779482 0 0.37735479425567464 1 I I #
coedge $-1 $253 $253 $-1 $351 reversed $159 $-1 #
edge $-1 $352 0 $352 6.2831853071796004 $160 $353 forward 7 unknown #
vertex $-1 $163 $354 #
ellipse-curve $-1 -42.715509078681947 16.658651148494037 3.150282820495979 -0.75470958851134928 0 0.65605901945558964 0.32802950972779482 0 0.37735479425567464 1 I I #
coedge $-1 $257 $257 $-1 $355 reversed $166 $-1 #
edge $-1 $356 0 $356 6.2831853071796004 $167 $357 forward 7 unknown #
vertex $-1 $170 $358 #
ellipse-curve $-1 -42.715509078681947 18.487164607529358 3.150282820495979 -0.75470958851134928 0 0.65605901945558964 0.32802950972779482 0 0.37735479425567464 1 I I #
face $-1 $-1 $359 $36 $-1 $360 forward single #
loop $-1 $-1 $361 $171 #
plane-surface $-1 0 19.706173580219577 0 0 -1 0 0 0 -1 forward_v I I I I #
coedge $-1 $362 $174 $176 $270 forward $108 $-1 #
coedge $-1 $174 $362 $361 $363 reversed $108 $-1 #
coedge $-1 $364 $177 $174 $267 forward $172 $-1 #
edge $-1 $273 5.2818031425214791 $365 11.376848005972558 $266 $366 forward 7 unknown #
coedge $-1 $367 $368 $175 $269 forward $359 $-1 #
edge $-1 $369 14.717064033110294 $272 17.753101144767054 $268 $370 forward 7 unknown #
edge $-1 $273 -88.467055269020705 $369 -83.839366262967374 $176 $371 forward 7 unknown #
coedge $-1 $177 $364 $367 $372 reversed $172 $-1 #
vertex $-1 $372 $373 #
vertex $-1 $178 $374 #
straight-curve $-1 44.233527634510331 13.611128716768498 63.105273300274007 0 0 -1 I I #
coedge $-1 $275 $275 $-1 $375 reversed $181 $-1 #
edge $-1 $376 0 $376 6.2831853071796004 $182 $377 forward 7 unknown #
vertex $-1 $185 $378 #
ellipse-curve $-1 42.71550907868194 14.830137689458716 3.1502828204959976 0.75470958851134928 0 0.65605901945558964 0.32802950972779482 0 -0.37735479425567464 1 I I #
coedge $-1 $279 $279 $-1 $379 reversed $188 $-1 #
edge $-1 $380 0 $380 6.2831853071796004 $189 $381 forward 7 unknown #
vertex $-1 $192 $382 #
ellipse-curve $-1 42.71550907868194 16.658651148494037 3.1502828204959976 0.75470958851134928 0 0.65605901945558964 0.32802950972779482 0 -0.37735479425567464 1 I I #
coedge $-1 $283 $283 $-1 $383 reversed $195 $-1 #
edge $-1 $384 0 $384 6.2831853071796004 $196 $385 forward 7 unknown #
vertex $-1 $199 $386 #
ellipse-curve $-1 42.71550907868194 18.487164607529358 3.1502828204959976 0.75470958851134928 0 0.65605901945558964 0.32802950972779482 0 -0.37735479425567464 1 I I #
face $-1 $-1 $299 $30 $-1 $387 reversed single #
loop $-1 $-1 $388 $200 #
plane-surface $-1 0 19.706173580219577 0 0 -1 0 0 0 -1 forward_v I I I I #
coedge $-1 $305 $304 $389 $390 forward $201 $-1 #
coedge $-1 $203 $213 $391 $392 forward $127 $-1 #
coedge $-1 $298 $209 $203 $293 reversed $299 $-1 #
edge $-1 $393 -19.706173580219577 $214 19.706173580219577 $292 $394 forward 7 unknown #
coedge $-1 $205 $204 $304 $395 forward $81 $-1 #
coedge $-1 $388 $389 $204 $296 reversed $288 $-1 #
edge $-1 $301 -44.233527634510331 $396 44.233527634510331 $295 $397 forward 7 unknown #
edge $-1 $306 -44.233527634510331 $300 44.233527634510331 $208 $398 forward 7 unknown #
coedge $-1 $206 $292 $388 $399 reversed $299 $-1 #
loop $-1 $-1 $209 $287 #
vertex $-1 $207 $400 #
vertex $-1 $207 $401 #
straight-curve $-1 44.233527634510331 0 4.8965634532544877 0 1 0 I I #
straight-curve $-1 44.233527634510331 -19.706173580219577 0 0 0 -1 I I #
coedge $-1 $290 $211 $294 $395 reversed $201 $-1 #
coedge $-1 $211 $290 $213 $308 reversed $201 $-1 #
vertex $-1 $395 $402 #
straight-curve $-1 -44.233527634510331 -19.706173580219577 0 0 0 -1 I I #
edge $-1 $215 -19.706173580219577 $403 19.706173580219577 $305 $404 forward 7 unknown #
point $-1 44.233527634510331 -19.706173580219577 -4.8965634532544877 #
point $-1 -44.233527634510331 -19.706173580219577 -4.8965634532544877 #
face $-1 $-1 $324 $31 $-1 $405 reversed single #
plane-surface $-1 -41.233527634510331 -22.292239614253791 0 -1 0 0 0 0 1 forward_v I I I I #
coedge $-1 $406 $407 $408 $409 forward $218 $-1 #
coedge $-1 $408 $220 $323 $410 reversed $135 $-1 #
coedge $-1 $220 $408 $221 $318 reversed $135 $-1 #
edge $-1 $320 -4.8965634532544877 $325 4.8965634532544877 $220 $411 forward 7 unknown #
coedge $-1 $222 $221 $407 $412 forward $85 $-1 #
edge $-1 $320 19.706173580219577 $413 24.878305648288006 $315 $414 forward 7 unknown #
edge $-1 $415 -2.5860660340342143 $230 2.5860660340342143 $227 $416 forward 7 unknown #
vertex $-1 $318 $417 #
straight-curve $-1 0 -19.706173580219577 4.8965634532544877 -1 0 0 I I #
coedge $-1 $418 $225 $228 $328 forward $324 $-1 #
coedge $-1 $225 $418 $314 $410 forward $324 $-1 #
loop $-1 $-1 $225 $311 #
vertex $-1 $316 $419 #
straight-curve $-1 0 -19.706173580219577 -4.8965634532544877 1 0 0 I I #
coedge $-1 $228 $227 $420 $421 forward $229 $-1 #
edge $-1 $231 -2.5860660340342143 $422 2.5860660340342143 $228 $423 forward 7 unknown #
point $-1 -41.233527634510331 -19.706173580219577 4.8965634532544877 #
point $-1 -41.233527634510331 -19.706173580219577 -4.8965634532544877 #
plane-surface $-1 0 0 4.8965634532544877 0 0 1 1 0 0 forward_v I I I I #
coedge $-1 $241 $424 $336 $425 forward $234 $-1 #
coedge $-1 $334 $236 $424 $426 reversed $143 $-1 #
coedge $-1 $236 $333 $337 $427 reversed $143 $-1 #
edge $-1 $338 9.3524064207377613 $428 13.980095426791104 $236 $429 forward 7 unknown #
coedge $-1 $238 $237 $332 $425 reversed $89 $-1 #
coedge $-1 $244 $239 $334 $427 forward $245 $-1 #
vertex $-1 $427 $430 #
straight-curve $-1 -41.197490522853563 8.3293255742470187 4.8965634532544851 0 1 0 I I #
coedge $-1 $424 $241 $244 $344 reversed $234 $-1 #
vertex $-1 $242 $431 #
straight-curve $-1 -44.233527634510331 13.611128716768498 29.721805860827317 0 0 1 I I #
straight-curve $-1 -44.233527634510324 13.611128716768498 1.4040021877374826 -0.65605901945558964 0 -0.75470958851134928 I I #
edge $-1 $432 -19.706173580219577 $246 -13.611128716768498 $340 $433 forward 7 unknown #
point $-1 -44.233527634510331 13.611128716768498 4.8965634532544877 #
point $-1 -41.197490522853563 13.611128716768498 4.8965634532544877 #
edge $-1 $434 1 $434 0 $249 $-1 forward 7 unknown #
vertex $-1 $250 $435 #
ellipse-curve $-1 -41.830181549057663 14.830137689458716 2.3806793600072638 -0.75470958851134928 0 0.65605901945558964 0.32802950972779482 0 0.37735479425567464 1 I I #
point $-1 -42.387479568954156 14.830137689458716 3.5276376147516597 #
edge $-1 $436 1 $436 0 $253 $-1 forward 7 unknown #
vertex $-1 $254 $437 #
ellipse-curve $-1 -41.830181549057663 16.658651148494037 2.3806793600072638 -0.75470958851134928 0 0.65605901945558964 0.32802950972779482 0 0.37735479425567464 1 I I #
point $-1 -42.387479568954156 16.658651148494037 3.5276376147516597 #
edge $-1 $438 1 $438 0 $257 $-1 forward 7 unknown #
vertex $-1 $258 $439 #
ellipse-curve $-1 -41.830181549057663 18.487164607529358 2.3806793600072638 -0.75470958851134928 0 0.65605901945558964 0.32802950972779482 0 0.37735479425567464 1 I I #
point $-1 -42.387479568954156 18.487164607529358 3.5276376147516597 #
loop $-1 $-1 $268 $261 #
plane-surface $-1 0 0 4.8965634532544877 0 0 1 1 0 0 forward_v I I I I #
coedge $-1 $440 $441 $265 $363 forward $262 $-1 #
coedge $-1 $265 $264 $368 $442 reversed $108 $-1 #
edge $-1 $365 -58.213623061301419 $443 -53.585934055248103 $361 $444 forward 7 unknown #
coedge $-1 $271 $266 $441 $445 reversed $172 $-1 #
vertex $-1 $363 $446 #
straight-curve $-1 44.233527634510338 8.3293255742470187 1.4040021877374826 0 1 0 I I #
coedge $-1 $447 $268 $271 $372 forward $359 $-1 #
coedge $-1 $268 $447 $362 $442 forward $359 $-1 #
vertex $-1 $269 $448 #
straight-curve $-1 26.480426489743277 13.611128716768498 4.8965634532544868 1 0 0 I I #
straight-curve $-1 -13.806081899406827 13.611128716768498 68.17093706663087 -0.65605901945558964 0 0.75470958851134928 I I #
edge $-1 $272 13.611128716768498 $449 19.706173580219577 $271 $450 forward 7 unknown #
point $-1 44.233527634510331 13.611128716768498 4.8965634532544877 #
point $-1 44.233527634510331 13.611128716768498 1.4040021877374755 #
edge $-1 $451 1 $451 0 $275 $-1 forward 7 unknown #
vertex $-1 $276 $452 #
ellipse-curve $-1 41.830181549057656 14.830137689458716 2.3806793600072824 0.75470958851134928 0 0.65605901945558964 0.32802950972779482 0 -0.37735479425567464 1 I I #
point $-1 43.043538588409739 14.830137689458716 2.7729280262403293 #
edge $-1 $453 1 $453 0 $279 $-1 forward 7 unknown #
vertex $-1 $280 $454 #
ellipse-curve $-1 41.830181549057656 16.658651148494037 2.3806793600072824 0.75470958851134928 0 0.65605901945558964 0.32802950972779482 0 -0.37735479425567464 1 I I #
point $-1 43.043538588409739 16.658651148494037 2.7729280262403293 #
edge $-1 $455 1 $455 0 $283 $-1 forward 7 unknown #
vertex $-1 $284 $456 #
ellipse-curve $-1 41.830181549057656 18.487164607529358 2.3806793600072824 0.75470958851134928 0 0.65605901945558964 0.32802950972779482 0 -0.37735479425567464 1 I I #
point $-1 43.043538588409739 18.487164607529358 2.7729280262403293 #
plane-surface $-1 44.233527634510331 0 0 -1 0 0 0 0 1 forward_v I I I I #
coedge $-1 $391 $295 $298 $399 forward $288 $-1 #
coedge $-1 $295 $391 $290 $390 reversed $288 $-1 #
edge $-1 $396 -4.8965634532544877 $403 4.8965634532544877 $389 $457 forward 7 unknown #
coedge $-1 $389 $388 $291 $392 reversed $288 $-1 #
edge $-1 $403 -44.233527634510331 $393 44.233527634510331 $391 $458 forward 7 unknown #
vertex $-1 $293 $459 #
straight-curve $-1 44.233527634510331 0 -4.8965634532544877 0 -1 0 I I #
edge $-1 $396 -19.706173580219577 $306 19.706173580219577 $304 $460 forward 7 unknown #
vertex $-1 $296 $461 #
straight-curve $-1 0 19.706173580219577 4.8965634532544877 -1 0 0 I I #
straight-curve $-1 0 -19.706173580219577 4.8965634532544877 1 0 0 I I #
edge $-1 $301 -4.8965634532544877 $393 4.8965634532544877 $298 $462 forward 7 unknown #
point $-1 44.233527634510331 -19.706173580219577 4.8965634532544877 #
point $-1 44.233527634510331 19.706173580219577 4.8965634532544877 #
point $-1 -44.233527634510331 -19.706173580219577 4.8965634532544877 #
vertex $-1 $392 $463 #
straight-curve $-1 -44.233527634510331 0 -4.8965634532544877 0 1 0 I I #
plane-surface $-1 0 0 -4.8965634532544877 0 0 1 1 0 0 forward_v I I I I #
coedge $-1 $420 $313 $418 $464 reversed $218 $-1 #
coedge $-1 $313 $420 $317 $412 reversed $218 $-1 #
coedge $-1 $315 $314 $313 $409 reversed $135 $-1 #
edge $-1 $413 -4.8965634532544877 $465 4.8965634532544877 $408 $466 forward 7 unknown #
edge $-1 $465 -24.878305648288006 $325 -19.706173580219577 $314 $467 forward 7 unknown #
straight-curve $-1 -44.233527634510331 -19.706173580219577 0 0 0 -1 I I #
edge $-1 $413 -1.5 $415 1.5 $407 $468 forward 7 unknown #
vertex $-1 $318 $469 #
straight-curve $-1 -44.233527634510331 0 4.8965634532544877 0 -1 0 I I #
vertex $-1 $319 $470 #
straight-curve $-1 -41.233527634510331 -22.292239614253791 4.8965634532544877 0 1 0 I I #
point $-1 -44.233527634510331 -19.706173580219577 4.8965634532544877 #
coedge $-1 $323 $322 $406 $464 forward $324 $-1 #
point $-1 -44.233527634510331 -19.706173580219577 -4.8965634532544877 #
coedge $-1 $407 $406 $327 $421 reversed $218 $-1 #
edge $-1 $415 -4.8965634532544877 $422 4.8965634532544877 $327 $471 forward 7 unknown #
vertex $-1 $421 $472 #
straight-curve $-1 -41.233527634510331 -22.292239614253791 -4.8965634532544877 0 -1 0 I I #
coedge $-1 $332 $340 $333 $426 forward $234 $-1 #
edge $-1 $428 -11.376848005972558 $341 -5.2818031425214791 $332 $473 forward 7 unknown #
edge $-1 $432 -4.8965634532544877 $428 -1.4040021877374744 $333 $474 forward 7 unknown #
edge $-1 $338 41.197490522853563 $432 44.233527634510331 $334 $475 forward 7 unknown #
vertex $-1 $425 $476 #
straight-curve $-1 -35.061759936914186 19.706173580219577 11.954914254640382 -0.65605901945558975 0 -0.75470958851134939 I I #
point $-1 -41.197490522853563 19.706173580219577 4.8965634532544877 #
point $-1 -44.233527634510331 13.611128716768498 1.4040021877374744 #
vertex $-1 $427 $477 #
straight-curve $-1 -44.233527634510331 0 4.8965634532544877 0 -1 0 I I #
vertex $-1 $347 $478 #
point $-1 -41.502152039329864 14.830137689458716 2.7580341542629383 #
vertex $-1 $351 $479 #
point $-1 -41.502152039329864 16.658651148494037 2.7580341542629383 #
vertex $-1 $355 $480 #
point $-1 -41.502152039329864 18.487164607529358 2.7580341542629383 #
coedge $-1 $441 $361 $447 $481 reversed $262 $-1 #
coedge $-1 $361 $440 $364 $445 forward $262 $-1 #
edge $-1 $443 -11.376848005972558 $369 -5.2818031425214791 $368 $482 forward 7 unknown #
vertex $-1 $363 $483 #
straight-curve $-1 6.0419551699556138 19.706173580219577 45.338381694087076 -0.65605901945558975 0 0.75470958851134939 I I #
edge $-1 $449 -4.8965634532544877 $365 -1.4040021877374862 $364 $484 forward 7 unknown #
point $-1 44.233527634510331 19.706173580219577 1.4040021877374862 #
coedge $-1 $368 $367 $440 $481 forward $359 $-1 #
point $-1 41.19749052285357 13.611128716768498 4.8965634532544868 #
vertex $-1 $372 $485 #
straight-curve $-1 44.233527634510331 0 4.8965634532544877 0 1 0 I I #
vertex $-1 $375 $486 #
point $-1 42.158211058785447 14.830137689458716 2.0033245657516079 #
vertex $-1 $379 $487 #
point $-1 42.158211058785447 16.658651148494037 2.0033245657516079 #
vertex $-1 $383 $488 #
point $-1 42.158211058785447 18.487164607529358 2.0033245657516079 #
straight-curve $-1 -44.233527634510331 19.706173580219577 0 0 0 -1 I I #
straight-curve $-1 0 19.706173580219577 -4.8965634532544877 1 0 0 I I #
point $-1 44.233527634510331 19.706173580219577 -4.8965634532544877 #
straight-curve $-1 -44.233527634510331 0 4.8965634532544877 0 -1 0 I I #
point $-1 -44.233527634510331 19.706173580219577 4.8965634532544877 #
straight-curve $-1 44.233527634510331 19.706173580219577 0 0 0 -1 I I #
point $-1 -44.233527634510331 19.706173580219577 -4.8965634532544877 #
edge $-1 $422 -1.5 $465 1.5 $406 $489 forward 7 unknown #
vertex $-1 $410 $490 #
straight-curve $-1 -44.233527634510331 -24.878305648288006 0 0 0 -1 I I #
straight-curve $-1 -44.233527634510331 0 -4.8965634532544877 0 1 0 I I #
straight-curve $-1 -42.733527634510331 -24.878305648288006 4.8965634532544877 1 0 0 I I #
point $-1 -44.233527634510331 -24.878305648288006 4.8965634532544877 #
point $-1 -41.233527634510331 -24.878305648288006 4.8965634532544877 #
straight-curve $-1 -41.233527634510331 -24.878305648288006 0 0 0 -1 I I #
point $-1 -41.233527634510331 -24.878305648288006 -4.8965634532544877 #
straight-curve $-1 -44.233527634510331 8.3293255742470187 1.404002187737474 0 -1 0 I I #
straight-curve $-1 -44.233527634510331 19.706173580219577 0 0 0 -1 I I #
straight-curve $-1 0 19.706173580219577 4.8965634532544877 -1 0 0 I I #
point $-1 -44.233527634510331 19.706173580219577 1.4040021877374744 #
point $-1 -44.233527634510331 19.706173580219577 4.8965634532544877 #
point $-1 -41.452826754801983 14.830137689458716 2.0526498502794688 #
point $-1 -41.452826754801983 16.658651148494037 2.0526498502794688 #
point $-1 -41.452826754801983 18.487164607529358 2.0526498502794688 #
edge $-1 $449 -44.233527634510331 $443 -41.19749052285357 $440 $491 forward 7 unknown #
straight-curve $-1 41.19749052285357 8.3293255742470187 4.8965634532544868 0 -1 0 I I #
point $-1 41.19749052285357 19.706173580219577 4.8965634532544868 #
straight-curve $-1 44.233527634510331 19.706173580219577 0 0 0 -1 I I #
point $-1 44.233527634510331 19.706173580219577 4.8965634532544877 #
point $-1 41.452826754801976 14.830137689458716 2.0526498502794874 #
point $-1 41.452826754801976 16.658651148494037 2.0526498502794874 #
point $-1 41.452826754801976 18.487164607529358 2.0526498502794874 #
straight-curve $-1 -42.733527634510331 -24.878305648288006 -4.8965634532544877 -1 0 0 I I #
point $-1 -44.233527634510331 -24.878305648288006 -4.8965634532544877 #
straight-curve $-1 0 19.706173580219577 4.8965634532544877 -1 0 0 I I #
End-of-ACIS-data 