500 0 11 0           
7 Unknown 11 ACIS 5.0 NT 24 Fri Mar 26 19:40:02 1999 
-1 9.9999999999999995e-007 1e-010 
body $-1 $11 $-1 $12 #
body $-1 $13 $-1 $14 #
body $-1 $15 $-1 $16 #
body $-1 $17 $-1 $18 #
body $-1 $19 $-1 $20 #
body $-1 $21 $-1 $22 #
body $-1 $23 $-1 $24 #
body $-1 $25 $-1 $26 #
body $-1 $27 $-1 $28 #
body $-1 $29 $-1 $30 #
body $-1 $31 $-1 $32 #
lump $-1 $-1 $33 $0 #
transform $-1 1 0 0 0 1 0 0 0 1 43.761101107821894 22.404476453889536 7.7112095874408828 1 rotate no_reflect no_shear #
lump $-1 $-1 $34 $1 #
transform $-1 1 0 0 0 1 0 0 0 1 43.761101107821894 22.404476453889536 7.7112095874408828 1 rotate no_reflect no_shear #
lump $-1 $-1 $35 $2 #
transform $-1 1 0 0 0 1 0 0 0 1 43.761101107821894 22.404476453889536 7.7112095874408828 1 rotate no_reflect no_shear #
lump $-1 $-1 $36 $3 #
transform $-1 1 0 0 0 1 0 0 0 1 43.761101107821894 22.404476453889536 7.7112095874408828 1 rotate no_reflect no_shear #
lump $-1 $-1 $37 $4 #
transform $-1 1 0 0 0 1 0 0 0 1 43.761101107821894 22.404476453889536 7.7112095874408828 1 rotate no_reflect no_shear #
lump $-1 $-1 $38 $5 #
transform $-1 1 0 0 0 1 0 0 0 1 43.761101107821894 22.404476453889536 7.7112095874408828 1 rotate no_reflect no_shear #
lump $-1 $-1 $39 $6 #
transform $-1 1 0 0 0 1 0 0 0 1 43.761101107821894 22.404476453889536 7.7112095874408828 1 rotate no_reflect no_shear #
lump $-1 $-1 $40 $7 #
transform $-1 1 0 0 0 1 0 0 0 1 43.761101107821894 22.404476453889536 7.7112095874408828 1 rotate no_reflect no_shear #
lump $-1 $-1 $41 $8 #
transform $-1 1 0 0 0 1 0 0 0 1 43.761101107821894 22.404476453889536 7.7112095874408828 1 rotate no_reflect no_shear #
lump $-1 $-1 $42 $9 #
transform $-1 1 0 0 0 1 0 0 0 1 43.761101107821894 22.404476453889536 7.7112095874408828 1 rotate no_reflect no_shear #
lump $-1 $-1 $43 $10 #
transform $-1 1 0 0 0 1 0 0 0 1 43.761101107821894 22.404476453889536 7.7112095874408828 1 rotate no_reflect no_shear #
shell $-1 $-1 $-1 $44 $-1 $11 #
shell $-1 $-1 $-1 $45 $-1 $13 #
shell $-1 $-1 $-1 $46 $-1 $15 #
shell $-1 $-1 $-1 $47 $-1 $17 #
shell $-1 $-1 $-1 $48 $-1 $19 #
shell $-1 $-1 $-1 $49 $-1 $21 #
shell $-1 $-1 $-1 $50 $-1 $23 #
shell $-1 $-1 $-1 $51 $-1 $25 #
shell $-1 $-1 $-1 $52 $-1 $27 #
shell $-1 $-1 $-1 $53 $-1 $29 #
shell $-1 $-1 $-1 $54 $-1 $31 #
face $-1 $55 $56 $33 $-1 $57 forward single #
face $-1 $58 $59 $34 $-1 $60 forward single #
face $-1 $61 $62 $35 $-1 $63 forward single #
face $-1 $64 $65 $36 $-1 $66 reversed single #
face $-1 $67 $68 $37 $-1 $69 forward single #
face $-1 $70 $71 $38 $-1 $72 forward single #
face $-1 $73 $74 $39 $-1 $75 forward single #
face $-1 $76 $77 $40 $-1 $78 reversed single #
face $-1 $79 $80 $41 $-1 $81 forward single #
face $-1 $82 $83 $42 $-1 $84 forward single #
face $-1 $85 $86 $43 $-1 $87 forward single #
face $-1 $88 $89 $33 $-1 $90 reversed single #
loop $-1 $-1 $91 $44 #
plane-surface $-1 0 0 7.7112095874408828 0 0 1 1 0 0 forward_v I I I I #
face $-1 $92 $93 $34 $-1 $94 reversed single #
loop $-1 $-1 $95 $45 #
plane-surface $-1 0 -19.068262232872414 -4.1320994421253703 0 0 1 1 0 0 forward_v I I I I #
face $-1 $96 $97 $35 $-1 $98 reversed single #
loop $-1 $-1 $99 $46 #
plane-surface $-1 0 22.404476453889536 0 0 -1 0 0 0 -1 forward_v I I I I #
face $-1 $100 $101 $36 $-1 $102 reversed single #
loop $-1 $-1 $103 $47 #
plane-surface $-1 -101.1808328067973 -6.8915054452674607 69.317629331081164 0 1 0 -0.6560590369687036 0 0.75470957328743171 forward_v I I I I #
face $-1 $104 $105 $37 $-1 $106 forward single #
loop $-1 $107 $108 $48 #
cone-surface $-1 -40.874983529738408 -5.4118109046215181 5.1101427289448855 0.6560590369687036 0 -0.75470957328743171 0.18867739332185793 0 0.1640147592421759 1 I I 0 1 0.25 forward I I I I #
face $-1 $109 $110 $38 $-1 $111 forward single #
loop $-1 $112 $113 $49 #
cone-surface $-1 -40.874983529738408 -3.1922690936526088 5.1101427289448855 0.6560590369687036 0 -0.75470957328743171 0.18867739332185793 0 0.1640147592421759 1 I I 0 1 0.25 forward I I I I #
face $-1 $114 $115 $39 $-1 $116 forward single #
loop $-1 $117 $118 $50 #
cone-surface $-1 -40.874983529738408 -0.97272728268369946 5.1101427289448855 0.6560590369687036 0 -0.75470957328743171 0.18867739332185793 0 0.1640147592421759 1 I I 0 1 0.25 forward I I I I #
face $-1 $119 $120 $40 $-1 $121 reversed single #
loop $-1 $-1 $122 $51 #
plane-surface $-1 -43.761101107821901 -3.1922690936526124 3.2637854437363245 -0.6560590369687036 0 0.75470957328743171 0.75470957328743171 0 0.6560590369687036 forward_v I I I I #
face $-1 $123 $124 $41 $-1 $125 forward single #
loop $-1 $126 $127 $52 #
cone-surface $-1 -40.874983529738408 1.9866617986081785 5.1101427289448855 0.6560590369687036 0 -0.75470957328743171 0.18867739332185793 0 0.1640147592421759 1 I I 0 1 0.25 forward I I I I #
face $-1 $128 $129 $42 $-1 $130 forward single #
loop $-1 $131 $132 $53 #
cone-surface $-1 -40.874983529738408 4.2062036095770878 5.1101427289448855 0.6560590369687036 0 -0.75470957328743171 0.18867739332185793 0 0.1640147592421759 1 I I 0 1 0.25 forward I I I I #
face $-1 $133 $134 $43 $-1 $135 forward single #
loop $-1 $136 $137 $54 #
cone-surface $-1 -40.874983529738408 6.4257454205459972 5.1101427289448855 0.6560590369687036 0 -0.75470957328743171 0.18867739332185793 0 0.1640147592421759 1 I I 0 1 0.25 forward I I I I #
face $-1 $138 $139 $33 $-1 $140 reversed single #
loop $-1 $-1 $141 $55 #
plane-surface $-1 0 0 -7.7112095874408828 0 0 1 1 0 0 forward_v I I I I #
coedge $-1 $142 $143 $144 $145 forward $56 $-1 #
face $-1 $146 $147 $34 $-1 $148 reversed single #
loop $-1 $-1 $149 $58 #
plane-surface $-1 0 -15.732048011855291 -5.9216545147831265 0 -1 0 0 0 -1 forward_v I I I I #
coedge $-1 $150 $151 $152 $153 reversed $59 $-1 #
face $-1 $154 $155 $35 $-1 $156 reversed single #
loop $-1 $-1 $157 $61 #
plane-surface $-1 0 0 -7.7112095874408828 0 0 1 1 0 0 forward_v I I I I #
coedge $-1 $158 $159 $160 $161 forward $62 $-1 #
face $-1 $162 $163 $36 $-1 $164 reversed single #
loop $-1 $-1 $165 $64 #
plane-surface $-1 -43.761101107821901 -3.1922690936526124 3.2637854437363245 -0.6560590369687036 0 0.75470957328743171 0.75470957328743171 0 0.6560590369687036 forward_v I I I I #
coedge $-1 $166 $167 $168 $169 reversed $65 $-1 #
face $-1 $-1 $170 $37 $-1 $171 forward single #
loop $-1 $172 $173 $67 #
cone-surface $-1 -40.464946631632969 -5.4118109046215181 4.6384492456402411 0.6560590369687036 0 -0.75470957328743171 0.094338696660928964 0 0.08200737962108795 1 I I -0.70710678118654746 0.70710678118654746 0.125 forward I I I I #
loop $-1 $-1 $174 $48 #
coedge $-1 $108 $108 $175 $176 reversed $68 $-1 #
face $-1 $-1 $177 $38 $-1 $178 forward single #
loop $-1 $179 $180 $70 #
cone-surface $-1 -40.464946631632969 -3.1922690936526088 4.6384492456402411 0.6560590369687036 0 -0.75470957328743171 0.094338696660928964 0 0.08200737962108795 1 I I -0.70710678118654746 0.70710678118654746 0.125 forward I I I I #
loop $-1 $-1 $181 $49 #
coedge $-1 $113 $113 $182 $183 reversed $71 $-1 #
face $-1 $-1 $184 $39 $-1 $185 forward single #
loop $-1 $186 $187 $73 #
cone-surface $-1 -40.464946631632969 -0.97272728268369946 4.6384492456402411 0.6560590369687036 0 -0.75470957328743171 0.094338696660928964 0 0.08200737962108795 1 I I -0.70710678118654746 0.70710678118654746 0.125 forward I I I I #
loop $-1 $-1 $188 $50 #
coedge $-1 $118 $118 $189 $190 reversed $74 $-1 #
face $-1 $191 $192 $40 $-1 $193 forward single #
loop $-1 $-1 $194 $76 #
plane-surface $-1 -101.1808328067973 7.9054399611919326 69.317629331081164 0 -1 0 0.6560590369687036 0 -0.75470957328743171 forward_v I I I I #
coedge $-1 $195 $196 $197 $198 reversed $77 $-1 #
face $-1 $-1 $199 $41 $-1 $200 forward single #
loop $-1 $201 $202 $79 #
cone-surface $-1 -40.464946631632969 1.9866617986081785 4.6384492456402411 0.6560590369687036 0 -0.75470957328743171 0.094338696660928964 0 0.08200737962108795 1 I I -0.70710678118654746 0.70710678118654746 0.125 forward I I I I #
loop $-1 $-1 $203 $52 #
coedge $-1 $127 $127 $204 $205 reversed $80 $-1 #
face $-1 $-1 $206 $42 $-1 $207 forward single #
loop $-1 $208 $209 $82 #
cone-surface $-1 -40.464946631632969 4.2062036095770878 4.6384492456402411 0.6560590369687036 0 -0.75470957328743171 0.094338696660928964 0 0.08200737962108795 1 I I -0.70710678118654746 0.70710678118654746 0.125 forward I I I I #
loop $-1 $-1 $210 $53 #
coedge $-1 $132 $132 $211 $212 reversed $83 $-1 #
face $-1 $-1 $213 $43 $-1 $214 forward single #
loop $-1 $215 $216 $85 #
cone-surface $-1 -40.464946631632969 6.4257454205459972 4.6384492456402411 0.6560590369687036 0 -0.75470957328743171 0.094338696660928964 0 0.08200737962108795 1 I I -0.70710678118654746 0.70710678118654746 0.125 forward I I I I #
loop $-1 $-1 $217 $54 #
coedge $-1 $137 $137 $218 $219 reversed $86 $-1 #
face $-1 $220 $221 $33 $-1 $222 reversed single #
loop $-1 $-1 $223 $88 #
plane-surface $-1 0 -22.404476453889536 0 0 1 0 0 0 1 forward_v I I I I #
coedge $-1 $224 $225 $226 $227 forward $89 $-1 #
coedge $-1 $228 $91 $229 $230 forward $56 $-1 #
coedge $-1 $91 $228 $231 $232 forward $56 $-1 #
coedge $-1 $233 $234 $91 $145 reversed $235 $-1 #
edge $-1 $236 -22.404476453889536 $237 22.404476453889536 $144 $238 forward 7 unknown #
face $-1 $239 $240 $34 $-1 $241 reversed single #
loop $-1 $-1 $242 $92 #
plane-surface $-1 0 0 -7.7112095874408828 0 0 1 1 0 0 forward_v I I I I #
coedge $-1 $243 $244 $245 $246 reversed $93 $-1 #
coedge $-1 $247 $95 $244 $248 forward $59 $-1 #
coedge $-1 $95 $247 $249 $250 reversed $59 $-1 #
coedge $-1 $251 $245 $95 $153 forward $240 $-1 #
edge $-1 $252 6.197916895419084 $253 12.87034533745333 $152 $254 forward 7 unknown #
face $-1 $255 $256 $35 $-1 $257 reversed single #
loop $-1 $-1 $258 $96 #
plane-surface $-1 -38.775303849040625 25.233723416944422 0 1 0 0 0 0 -1 forward_v I I I I #
coedge $-1 $259 $260 $159 $261 forward $97 $-1 #
coedge $-1 $262 $99 $263 $264 reversed $62 $-1 #
coedge $-1 $99 $262 $157 $261 reversed $62 $-1 #
coedge $-1 $265 $266 $99 $161 reversed $267 $-1 #
edge $-1 $268 -7.7112095874408828 $269 7.7112095874408828 $160 $270 forward 7 unknown #
face $-1 $271 $272 $36 $-1 $273 forward single #
loop $-1 $-1 $274 $100 #
plane-surface $-1 -101.1808328067973 0.50696725796223596 69.317629331081164 0 -1 0 0.6560590369687036 0 -0.75470957328743171 forward_v I I I I #
coedge $-1 $275 $276 $277 $278 reversed $101 $-1 #
coedge $-1 $167 $103 $279 $280 reversed $65 $-1 #
coedge $-1 $103 $166 $275 $281 reversed $65 $-1 #
coedge $-1 $277 $282 $103 $169 forward $272 $-1 #
edge $-1 $283 6.8293152955767553 $284 11.945491414775006 $168 $285 forward 7 unknown #
loop $-1 $-1 $175 $104 #
plane-surface $-1 -43.761101107821901 -3.1922690936526124 3.2637854437363245 -0.6560590369687036 0 0.75470957328743171 0.75470957328743171 0 0.6560590369687036 forward_v I I I I #
loop $-1 $-1 $286 $67 #
coedge $-1 $173 $173 $174 $287 reversed $105 $-1 #
coedge $-1 $174 $174 $173 $287 forward $107 $-1 #
coedge $-1 $175 $175 $108 $176 forward $170 $-1 #
edge $-1 $288 0 $288 6.2831853071796004 $175 $289 forward 7 unknown #
loop $-1 $-1 $182 $109 #
plane-surface $-1 -43.761101107821901 -3.1922690936526124 3.2637854437363245 -0.6560590369687036 0 0.75470957328743171 0.75470957328743171 0 0.6560590369687036 forward_v I I I I #
loop $-1 $-1 $290 $70 #
coedge $-1 $180 $180 $181 $291 reversed $110 $-1 #
coedge $-1 $181 $181 $180 $291 forward $112 $-1 #
coedge $-1 $182 $182 $113 $183 forward $177 $-1 #
edge $-1 $292 0 $292 6.2831853071796004 $182 $293 forward 7 unknown #
loop $-1 $-1 $189 $114 #
plane-surface $-1 -43.761101107821901 -3.1922690936526124 3.2637854437363245 -0.6560590369687036 0 0.75470957328743171 0.75470957328743171 0 0.6560590369687036 forward_v I I I I #
loop $-1 $-1 $294 $73 #
coedge $-1 $187 $187 $188 $295 reversed $115 $-1 #
coedge $-1 $188 $188 $187 $295 forward $117 $-1 #
coedge $-1 $189 $189 $118 $190 forward $184 $-1 #
edge $-1 $296 0 $296 6.2831853071796004 $189 $297 forward 7 unknown #
face $-1 $298 $299 $40 $-1 $300 forward single #
loop $-1 $-1 $301 $119 #
plane-surface $-1 0 0 7.7112095874408828 0 0 1 1 0 0 forward_v I I I I #
coedge $-1 $302 $303 $304 $305 reversed $120 $-1 #
coedge $-1 $306 $122 $307 $308 reversed $77 $-1 #
coedge $-1 $122 $306 $301 $309 reversed $77 $-1 #
coedge $-1 $310 $311 $122 $198 forward $299 $-1 #
edge $-1 $312 9.44141639987384e-015 $313 6.7789998964936391 $197 $314 forward 7 unknown #
loop $-1 $-1 $204 $123 #
plane-surface $-1 -43.761101107821901 -3.1922690936526124 3.2637854437363245 -0.6560590369687036 0 0.75470957328743171 0.75470957328743171 0 0.6560590369687036 forward_v I I I I #
loop $-1 $-1 $315 $79 #
coedge $-1 $202 $202 $203 $316 reversed $124 $-1 #
coedge $-1 $203 $203 $202 $316 forward $126 $-1 #
coedge $-1 $204 $204 $127 $205 forward $199 $-1 #
edge $-1 $317 0 $317 6.2831853071796004 $204 $318 forward 7 unknown #
loop $-1 $-1 $211 $128 #
plane-surface $-1 -43.761101107821901 -3.1922690936526124 3.2637854437363245 -0.6560590369687036 0 0.75470957328743171 0.75470957328743171 0 0.6560590369687036 forward_v I I I I #
loop $-1 $-1 $319 $82 #
coedge $-1 $209 $209 $210 $320 reversed $129 $-1 #
coedge $-1 $210 $210 $209 $320 forward $131 $-1 #
coedge $-1 $211 $211 $132 $212 forward $206 $-1 #
edge $-1 $321 0 $321 6.2831853071796004 $211 $322 forward 7 unknown #
loop $-1 $-1 $218 $133 #
plane-surface $-1 -43.761101107821901 -3.1922690936526124 3.2637854437363245 -0.6560590369687036 0 0.75470957328743171 0.75470957328743171 0 0.6560590369687036 forward_v I I I I #
loop $-1 $-1 $323 $85 #
coedge $-1 $216 $216 $217 $324 reversed $134 $-1 #
coedge $-1 $217 $217 $216 $324 forward $136 $-1 #
coedge $-1 $218 $218 $137 $219 forward $213 $-1 #
edge $-1 $325 0 $325 6.2831853071796004 $218 $326 forward 7 unknown #
face $-1 $327 $328 $33 $-1 $329 reversed single #
loop $-1 $-1 $330 $138 #
plane-surface $-1 -43.761101107821894 0 0 1 0 0 0 0 -1 forward_v I I I I #
coedge $-1 $331 $231 $332 $333 forward $139 $-1 #
coedge $-1 $334 $141 $331 $335 forward $89 $-1 #
coedge $-1 $141 $334 $336 $337 forward $89 $-1 #
coedge $-1 $234 $233 $141 $227 reversed $235 $-1 #
edge $-1 $338 -22.404476453889536 $339 22.404476453889536 $226 $340 forward 7 unknown #
coedge $-1 $143 $142 $341 $342 forward $56 $-1 #
coedge $-1 $343 $344 $142 $230 reversed $328 $-1 #
edge $-1 $237 -43.761101107821894 $345 43.761101107821894 $229 $346 forward 7 unknown #
coedge $-1 $223 $347 $143 $232 reversed $139 $-1 #
edge $-1 $348 -43.761101107821894 $236 43.761101107821894 $231 $349 forward 7 unknown #
coedge $-1 $226 $144 $347 $350 forward $235 $-1 #
coedge $-1 $144 $226 $343 $351 reversed $235 $-1 #
loop $-1 $-1 $233 $327 #
vertex $-1 $145 $352 #
vertex $-1 $145 $353 #
straight-curve $-1 43.761101107821894 0 7.7112095874408828 0 1 0 I I #
face $-1 $354 $355 $34 $-1 $356 reversed single #
loop $-1 $-1 $245 $146 #
plane-surface $-1 43.761101107821894 0 0 -1 0 0 0 0 1 forward_v I I I I #
coedge $-1 $357 $358 $243 $359 forward $147 $-1 #
coedge $-1 $360 $149 $242 $359 reversed $93 $-1 #
coedge $-1 $149 $360 $150 $248 reversed $93 $-1 #
coedge $-1 $152 $361 $149 $246 forward $240 $-1 #
edge $-1 $362 -4.7503823300493195 $252 -1.171272184733807 $245 $363 forward 7 unknown #
coedge $-1 $151 $150 $364 $365 reversed $59 $-1 #
edge $-1 $252 -43.761101107821894 $366 43.761101107821894 $244 $367 forward 7 unknown #
coedge $-1 $368 $369 $151 $250 forward $355 $-1 #
edge $-1 $253 -43.761101107821894 $370 43.761101107821894 $249 $371 forward 7 unknown #
coedge $-1 $361 $152 $369 $372 forward $240 $-1 #
vertex $-1 $153 $373 #
vertex $-1 $372 $374 #
straight-curve $-1 43.761101107821894 -9.5341311164362068 -4.1320994421253703 0 -1 0 I I #
face $-1 $375 $267 $35 $-1 $376 reversed single #
loop $-1 $-1 $377 $154 #
plane-surface $-1 -37.138669214321013 28.062970379999307 0 0 -1 0 0 0 -1 forward_v I I I I #
coedge $-1 $378 $379 $380 $381 forward $155 $-1 #
coedge $-1 $382 $157 $378 $383 forward $97 $-1 #
coedge $-1 $157 $382 $265 $384 forward $97 $-1 #
edge $-1 $268 35.5020345796014 $385 38.775303849040625 $157 $386 forward 7 unknown #
coedge $-1 $159 $158 $387 $388 forward $62 $-1 #
coedge $-1 $389 $390 $158 $264 forward $391 $-1 #
edge $-1 $392 -38.775303849040625 $269 -35.5020345796014 $263 $393 forward 7 unknown #
coedge $-1 $394 $160 $260 $384 reversed $267 $-1 #
coedge $-1 $160 $394 $389 $395 reversed $267 $-1 #
loop $-1 $-1 $160 $255 #
vertex $-1 $261 $396 #
vertex $-1 $395 $397 #
straight-curve $-1 -35.5020345796014 22.404476453889536 0 0 0 1 I I #
face $-1 $-1 $398 $36 $-1 $399 reversed single #
loop $-1 $-1 $168 $162 #
plane-surface $-1 0 0 7.7112095874408828 0 0 1 1 0 0 forward_v I I I I #
coedge $-1 $400 $401 $402 $403 reversed $163 $-1 #
coedge $-1 $404 $165 $167 $281 forward $101 $-1 #
coedge $-1 $165 $404 $400 $405 forward $101 $-1 #
coedge $-1 $402 $168 $165 $278 forward $272 $-1 #
edge $-1 $284 -5.2953708984411545 $406 2.1031018047885421 $277 $407 forward 7 unknown #
coedge $-1 $408 $409 $166 $280 forward $398 $-1 #
edge $-1 $410 -31.395029221804251 $283 -26.947605078099699 $279 $411 forward 7 unknown #
edge $-1 $284 -6.7789998964936391 $410 -9.44141639987384e-015 $167 $412 forward 7 unknown #
coedge $-1 $168 $402 $408 $413 forward $272 $-1 #
vertex $-1 $280 $414 #
vertex $-1 $169 $415 #
straight-curve $-1 -50.590416403398649 -6.8915054452674607 7.7112095874408837 1 0 0 I I #
coedge $-1 $286 $286 $-1 $416 reversed $172 $-1 #
edge $-1 $417 0 $417 6.2831853071796004 $173 $418 forward 7 unknown #
vertex $-1 $176 $419 #
ellipse-curve $-1 -41.203013048222765 -5.4118109046215181 5.4874975155886085 -0.6560590369687036 0 0.75470957328743171 0.18867739332185793 0 0.1640147592421759 1 I I #
coedge $-1 $290 $290 $-1 $420 reversed $179 $-1 #
edge $-1 $421 0 $421 6.2831853071796004 $180 $422 forward 7 unknown #
vertex $-1 $183 $423 #
ellipse-curve $-1 -41.203013048222765 -3.1922690936526088 5.4874975155886085 -0.6560590369687036 0 0.75470957328743171 0.18867739332185793 0 0.1640147592421759 1 I I #
coedge $-1 $294 $294 $-1 $424 reversed $186 $-1 #
edge $-1 $425 0 $425 6.2831853071796004 $187 $426 forward 7 unknown #
vertex $-1 $190 $427 #
ellipse-curve $-1 -41.203013048222765 -0.97272728268369946 5.4874975155886085 -0.6560590369687036 0 0.75470957328743171 0.18867739332185793 0 0.1640147592421759 1 I I #
face $-1 $-1 $428 $40 $-1 $429 reversed single #
loop $-1 $-1 $310 $191 #
plane-surface $-1 -101.1808328067973 0.50696725796223596 69.317629331081164 0 -1 0 0.6560590369687036 0 -0.75470957328743171 forward_v I I I I #
coedge $-1 $304 $430 $196 $309 forward $192 $-1 #
coedge $-1 $303 $194 $306 $431 reversed $120 $-1 #
coedge $-1 $194 $302 $432 $433 reversed $120 $-1 #
coedge $-1 $434 $301 $194 $305 forward $192 $-1 #
edge $-1 $435 -11.945491414775006 $436 -6.8293152955767553 $304 $437 forward 7 unknown #
coedge $-1 $196 $195 $302 $431 forward $77 $-1 #
coedge $-1 $438 $432 $195 $308 forward $428 $-1 #
edge $-1 $439 -9.5015745080182388 $312 -2.1031018047885421 $307 $440 forward 7 unknown #
edge $-1 $313 2.1031018047885421 $435 9.5015745080182388 $301 $441 forward 7 unknown #
coedge $-1 $311 $197 $430 $442 reversed $299 $-1 #
coedge $-1 $197 $310 $438 $443 reversed $299 $-1 #
vertex $-1 $308 $444 #
vertex $-1 $309 $445 #
straight-curve $-1 -43.761101107821901 0.50696725796223596 3.2637854437363245 0.75470957328743171 0 0.6560590369687036 I I #
coedge $-1 $315 $315 $-1 $446 reversed $201 $-1 #
edge $-1 $447 0 $447 6.2831853071796004 $202 $448 forward 7 unknown #
vertex $-1 $205 $449 #
ellipse-curve $-1 -41.203013048222765 1.9866617986081785 5.4874975155886085 -0.6560590369687036 0 0.75470957328743171 0.18867739332185793 0 0.1640147592421759 1 I I #
coedge $-1 $319 $319 $-1 $450 reversed $208 $-1 #
edge $-1 $451 0 $451 6.2831853071796004 $209 $452 forward 7 unknown #
vertex $-1 $212 $453 #
ellipse-curve $-1 -41.203013048222765 4.2062036095770878 5.4874975155886085 -0.6560590369687036 0 0.75470957328743171 0.18867739332185793 0 0.1640147592421759 1 I I #
coedge $-1 $323 $323 $-1 $454 reversed $215 $-1 #
edge $-1 $455 0 $455 6.2831853071796004 $216 $456 forward 7 unknown #
vertex $-1 $219 $457 #
ellipse-curve $-1 -41.203013048222765 6.4257454205459972 5.4874975155886085 -0.6560590369687036 0 0.75470957328743171 0.18867739332185793 0 0.1640147592421759 1 I I #
face $-1 $-1 $235 $33 $-1 $458 reversed single #
loop $-1 $-1 $343 $220 #
plane-surface $-1 0 22.404476453889536 0 0 -1 0 0 0 -1 forward_v I I I I #
coedge $-1 $459 $341 $344 $460 forward $221 $-1 #
coedge $-1 $347 $223 $224 $335 reversed $139 $-1 #
coedge $-1 $341 $459 $223 $333 reversed $221 $-1 #
edge $-1 $348 -7.7112095874408828 $461 7.7112095874408828 $332 $462 forward 7 unknown #
coedge $-1 $225 $224 $459 $463 forward $89 $-1 #
edge $-1 $339 -43.761101107821894 $461 43.761101107821894 $331 $464 forward 7 unknown #
coedge $-1 $344 $343 $225 $337 reversed $328 $-1 #
edge $-1 $465 -43.761101107821894 $338 43.761101107821894 $336 $466 forward 7 unknown #
vertex $-1 $227 $467 #
vertex $-1 $350 $468 #
straight-curve $-1 43.761101107821894 0 -7.7112095874408828 0 -1 0 I I #
coedge $-1 $330 $332 $228 $342 reversed $221 $-1 #
edge $-1 $345 -22.404476453889536 $348 22.404476453889536 $341 $469 forward 7 unknown #
coedge $-1 $336 $229 $234 $351 forward $328 $-1 #
coedge $-1 $229 $336 $330 $460 reversed $328 $-1 #
vertex $-1 $230 $470 #
straight-curve $-1 0 22.404476453889536 7.7112095874408828 -1 0 0 I I #
coedge $-1 $231 $331 $233 $350 reversed $139 $-1 #
vertex $-1 $342 $471 #
straight-curve $-1 0 -22.404476453889536 7.7112095874408828 1 0 0 I I #
edge $-1 $236 -7.7112095874408828 $339 7.7112095874408828 $233 $472 forward 7 unknown #
edge $-1 $237 -7.7112095874408828 $338 7.7112095874408828 $234 $473 forward 7 unknown #
point $-1 43.761101107821894 -22.404476453889536 7.7112095874408828 #
point $-1 43.761101107821894 22.404476453889536 7.7112095874408828 #
face $-1 $-1 $474 $34 $-1 $475 reversed single #
loop $-1 $-1 $249 $239 #
plane-surface $-1 0 -22.404476453889536 0 0 1 0 0 0 1 forward_v I I I I #
coedge $-1 $476 $242 $361 $477 forward $147 $-1 #
coedge $-1 $242 $476 $478 $479 forward $147 $-1 #
edge $-1 $480 -43.761101107821894 $362 43.761101107821894 $242 $481 forward 7 unknown #
coedge $-1 $244 $243 $482 $483 reversed $93 $-1 #
coedge $-1 $245 $251 $357 $477 reversed $240 $-1 #
vertex $-1 $477 $484 #
straight-curve $-1 43.761101107821894 -15.732048011855291 -2.9608272573915633 0 0 1 I I #
coedge $-1 $482 $485 $247 $365 forward $474 $-1 #
edge $-1 $370 -12.87034533745333 $366 -6.197916895419084 $364 $486 forward 7 unknown #
vertex $-1 $365 $487 #
straight-curve $-1 0 -15.732048011855291 -4.1320994421253703 -1 0 0 I I #
coedge $-1 $488 $249 $485 $489 forward $355 $-1 #
coedge $-1 $249 $488 $251 $372 reversed $355 $-1 #
vertex $-1 $489 $490 #
straight-curve $-1 0 -22.404476453889536 -4.1320994421253703 -1 0 0 I I #
edge $-1 $253 4.1320994421253703 $491 7.7112095874408828 $251 $492 forward 7 unknown #
point $-1 43.761101107821894 -15.732048011855291 -4.1320994421253703 #
point $-1 43.761101107821894 -22.404476453889536 -4.1320994421253703 #
face $-1 $-1 $391 $35 $-1 $493 forward single #
plane-surface $-1 -35.5020345796014 25.233723416944422 0 -1 0 0 0 0 1 forward_v I I I I #
coedge $-1 $494 $495 $394 $496 forward $256 $-1 #
coedge $-1 $387 $258 $259 $383 reversed $155 $-1 #
coedge $-1 $258 $387 $390 $497 reversed $155 $-1 #
coedge $-1 $495 $494 $258 $381 reversed $256 $-1 #
edge $-1 $498 -7.7112095874408828 $499 7.7112095874408828 $380 $500 forward 7 unknown #
coedge $-1 $260 $259 $494 $501 forward $97 $-1 #
edge $-1 $385 -2.8292469630548851 $499 2.8292469630548851 $378 $502 forward 7 unknown #
edge $-1 $503 -2.8292469630548851 $268 2.8292469630548851 $265 $504 forward 7 unknown #
vertex $-1 $383 $505 #
straight-curve $-1 0 22.404476453889536 -7.7112095874408828 -1 0 0 I I #
coedge $-1 $379 $378 $262 $388 reversed $155 $-1 #
edge $-1 $392 -7.7112095874408828 $385 7.7112095874408828 $387 $506 forward 7 unknown #
coedge $-1 $507 $263 $266 $395 forward $391 $-1 #
coedge $-1 $263 $507 $379 $497 forward $391 $-1 #
loop $-1 $-1 $263 $375 #
vertex $-1 $264 $508 #
straight-curve $-1 0 22.404476453889536 7.7112095874408828 1 0 0 I I #
coedge $-1 $266 $265 $377 $496 reversed $267 $-1 #
edge $-1 $269 -2.8292469630548851 $509 2.8292469630548851 $266 $510 forward 7 unknown #
point $-1 -35.5020345796014 22.404476453889536 -7.7112095874408828 #
point $-1 -35.5020345796014 22.404476453889536 7.7112095874408828 #
loop $-1 $-1 $279 $271 #
plane-surface $-1 -43.761101107821894 0 0 1 0 0 0 0 -1 forward_v I I I I #
coedge $-1 $401 $274 $276 $405 reversed $163 $-1 #
coedge $-1 $274 $400 $511 $512 reversed $163 $-1 #
coedge $-1 $282 $277 $274 $403 forward $272 $-1 #
edge $-1 $406 -11.945491414775006 $513 -6.8293152955767553 $402 $514 forward 7 unknown #
coedge $-1 $276 $275 $409 $515 reversed $101 $-1 #
edge $-1 $516 9.44141639987384e-015 $406 6.7789998964936391 $400 $517 forward 7 unknown #
vertex $-1 $278 $518 #
straight-curve $-1 -38.644924988623643 -1.5961345468263062 7.7112095874408846 0 1 0 I I #
coedge $-1 $511 $279 $282 $413 reversed $398 $-1 #
coedge $-1 $279 $511 $404 $515 forward $398 $-1 #
vertex $-1 $280 $519 #
straight-curve $-1 -43.761101107821894 -6.8915054452674607 34.658814665540582 0 0 1 I I #
straight-curve $-1 -43.761101107821901 -6.8915054452674607 3.2637854437363245 -0.75470957328743171 0 -0.6560590369687036 I I #
edge $-1 $513 -0.50696725796223596 $283 6.8915054452674607 $408 $520 forward 7 unknown #
point $-1 -43.761101107821894 -6.8915054452674607 7.7112095874408828 #
point $-1 -38.644924988623643 -6.8915054452674607 7.7112095874408828 #
edge $-1 $521 1 $521 0 $286 $-1 forward 7 unknown #
vertex $-1 $287 $522 #
ellipse-curve $-1 -40.546954011254059 -5.4118109046215181 4.7327879423011696 -0.6560590369687036 0 0.75470957328743171 0.18867739332185793 0 0.1640147592421759 1 I I #
point $-1 -41.014335654900904 -5.4118109046215181 5.6515122748307771 #
edge $-1 $523 1 $523 0 $290 $-1 forward 7 unknown #
vertex $-1 $291 $524 #
ellipse-curve $-1 -40.546954011254059 -3.1922690936526088 4.7327879423011696 -0.6560590369687036 0 0.75470957328743171 0.18867739332185793 0 0.1640147592421759 1 I I #
point $-1 -41.014335654900904 -3.1922690936526088 5.6515122748307771 #
edge $-1 $525 1 $525 0 $294 $-1 forward 7 unknown #
vertex $-1 $295 $526 #
ellipse-curve $-1 -40.546954011254059 -0.97272728268369946 4.7327879423011696 -0.6560590369687036 0 0.75470957328743171 0.18867739332185793 0 0.1640147592421759 1 I I #
point $-1 -41.014335654900904 -0.97272728268369946 5.6515122748307771 #
loop $-1 $-1 $307 $298 #
plane-surface $-1 -43.761101107821894 0 0 1 0 0 0 0 -1 forward_v I I I I #
coedge $-1 $301 $434 $310 $442 forward $192 $-1 #
edge $-1 $439 9.44141639987384e-015 $435 6.7789998964936391 $302 $527 forward 7 unknown #
coedge $-1 $307 $528 $303 $433 forward $428 $-1 #
edge $-1 $436 26.947605078099699 $439 31.395029221804251 $432 $529 forward 7 unknown #
coedge $-1 $430 $304 $528 $530 forward $192 $-1 #
vertex $-1 $305 $531 #
vertex $-1 $530 $532 #
straight-curve $-1 -50.590416403398649 7.9054399611919326 7.7112095874408837 -1 0 0 I I #
coedge $-1 $528 $307 $311 $443 forward $428 $-1 #
vertex $-1 $433 $533 #
straight-curve $-1 -43.761101107821894 -1.5961345468263062 3.2637854437363316 0 -1 0 I I #
straight-curve $-1 -38.644924988623643 -1.5961345468263062 7.7112095874408846 0 1 0 I I #
edge $-1 $534 6.8293152955767553 $313 11.945491414775006 $430 $535 forward 7 unknown #
edge $-1 $312 -31.395029221804251 $534 -26.947605078099699 $438 $536 forward 7 unknown #
point $-1 -43.761101107821894 0.50696725796223596 3.2637854437363307 #
point $-1 -38.644924988623643 0.50696725796223596 7.7112095874408828 #
edge $-1 $537 1 $537 0 $315 $-1 forward 7 unknown #
vertex $-1 $316 $538 #
ellipse-curve $-1 -40.546954011254059 1.9866617986081785 4.7327879423011696 -0.6560590369687036 0 0.75470957328743171 0.18867739332185793 0 0.1640147592421759 1 I I #
point $-1 -41.014335654900904 1.9866617986081785 5.6515122748307771 #
edge $-1 $539 1 $539 0 $319 $-1 forward 7 unknown #
vertex $-1 $320 $540 #
ellipse-curve $-1 -40.546954011254059 4.2062036095770878 4.7327879423011696 -0.6560590369687036 0 0.75470957328743171 0.18867739332185793 0 0.1640147592421759 1 I I #
point $-1 -41.014335654900904 4.2062036095770878 5.6515122748307771 #
edge $-1 $541 1 $541 0 $323 $-1 forward 7 unknown #
vertex $-1 $324 $542 #
ellipse-curve $-1 -40.546954011254059 6.4257454205459972 4.7327879423011696 -0.6560590369687036 0 0.75470957328743171 0.18867739332185793 0 0.1640147592421759 1 I I #
point $-1 -41.014335654900904 6.4257454205459972 5.6515122748307771 #
plane-surface $-1 43.761101107821894 0 0 -1 0 0 0 0 1 forward_v I I I I #
coedge $-1 $332 $330 $334 $463 reversed $221 $-1 #
edge $-1 $345 -7.7112095874408828 $465 7.7112095874408828 $344 $543 forward 7 unknown #
vertex $-1 $463 $544 #
straight-curve $-1 -43.761101107821894 -22.404476453889536 0 0 0 -1 I I #
edge $-1 $461 -22.404476453889536 $465 22.404476453889536 $459 $545 forward 7 unknown #
straight-curve $-1 0 -22.404476453889536 -7.7112095874408828 -1 0 0 I I #
vertex $-1 $337 $546 #
straight-curve $-1 0 22.404476453889536 -7.7112095874408828 1 0 0 I I #
point $-1 43.761101107821894 22.404476453889536 -7.7112095874408828 #
point $-1 43.761101107821894 -22.404476453889536 -7.7112095874408828 #
straight-curve $-1 -43.761101107821894 0 7.7112095874408828 0 -1 0 I I #
point $-1 -43.761101107821894 22.404476453889536 7.7112095874408828 #
point $-1 -43.761101107821894 -22.404476453889536 7.7112095874408828 #
straight-curve $-1 43.761101107821894 -22.404476453889536 0 0 0 -1 I I #
straight-curve $-1 43.761101107821894 22.404476453889536 0 0 0 -1 I I #
loop $-1 $-1 $482 $354 #
plane-surface $-1 -43.761101107821894 0 0 1 0 0 0 0 -1 forward_v I I I I #
coedge $-1 $358 $357 $488 $547 forward $147 $-1 #
edge $-1 $362 15.732048011855291 $491 22.404476453889536 $361 $548 forward 7 unknown #
coedge $-1 $485 $482 $358 $479 reversed $474 $-1 #
edge $-1 $549 -22.404476453889536 $480 -15.732048011855291 $478 $550 forward 7 unknown #
vertex $-1 $483 $551 #
straight-curve $-1 0 -15.732048011855291 -7.7112095874408828 1 0 0 I I #
coedge $-1 $478 $364 $360 $483 forward $474 $-1 #
edge $-1 $366 1.171272184733807 $480 4.7503823300493195 $482 $552 forward 7 unknown #
point $-1 43.761101107821894 -15.732048011855291 -7.7112095874408828 #
coedge $-1 $364 $478 $368 $489 reversed $474 $-1 #
straight-curve $-1 -43.761101107821894 -9.5341311164362068 -4.1320994421253703 0 1 0 I I #
point $-1 -43.761101107821894 -15.732048011855291 -4.1320994421253703 #
coedge $-1 $369 $368 $476 $547 reversed $355 $-1 #
edge $-1 $370 4.1320994421253703 $549 7.7112095874408828 $485 $553 forward 7 unknown #
point $-1 -43.761101107821894 -22.404476453889536 -4.1320994421253703 #
vertex $-1 $372 $554 #
straight-curve $-1 43.761101107821894 -22.404476453889536 0 0 0 -1 I I #
plane-surface $-1 0 0 7.7112095874408828 0 0 1 1 0 0 forward_v I I I I #
coedge $-1 $380 $377 $382 $501 reversed $256 $-1 #
coedge $-1 $377 $380 $507 $555 reversed $256 $-1 #
edge $-1 $509 -7.7112095874408828 $503 7.7112095874408828 $394 $556 forward 7 unknown #
edge $-1 $498 -2.8292469630548851 $392 2.8292469630548851 $379 $557 forward 7 unknown #
vertex $-1 $555 $558 #
vertex $-1 $501 $559 #
straight-curve $-1 -38.775303849040625 28.062970379999307 0 0 0 -1 I I #
edge $-1 $499 -1.6366346347196128 $503 1.6366346347196128 $494 $560 forward 7 unknown #
straight-curve $-1 -38.775303849040625 25.233723416944422 -7.7112095874408828 0 1 0 I I #
vertex $-1 $384 $561 #
straight-curve $-1 -35.5020345796014 25.233723416944422 -7.7112095874408828 0 -1 0 I I #
point $-1 -38.775303849040625 22.404476453889536 -7.7112095874408828 #
straight-curve $-1 -38.775303849040625 22.404476453889536 0 0 0 -1 I I #
coedge $-1 $390 $389 $495 $555 forward $391 $-1 #
point $-1 -38.775303849040625 22.404476453889536 7.7112095874408828 #
vertex $-1 $395 $562 #
straight-curve $-1 -35.5020345796014 25.233723416944422 7.7112095874408828 0 1 0 I I #
coedge $-1 $409 $408 $401 $512 forward $398 $-1 #
edge $-1 $513 26.947605078099699 $516 31.395029221804251 $511 $563 forward 7 unknown #
vertex $-1 $413 $564 #
straight-curve $-1 -50.590416403398649 0.50696725796223596 7.7112095874408837 -1 0 0 I I #
edge $-1 $516 -2.1031018047885421 $410 5.2953708984411545 $409 $565 forward 7 unknown #
vertex $-1 $515 $566 #
straight-curve $-1 -43.761101107821901 0.50696725796223596 3.2637854437363245 0.75470957328743171 0 0.6560590369687036 I I #
point $-1 -38.644924988623643 0.50696725796223596 7.7112095874408828 #
point $-1 -43.761101107821894 -6.8915054452674607 3.2637854437363307 #
straight-curve $-1 -43.761101107821894 0 7.7112095874408828 0 -1 0 I I #
vertex $-1 $416 $567 #
point $-1 -40.358276617932198 -5.4118109046215181 4.8968027015433462 #
vertex $-1 $420 $568 #
point $-1 -40.358276617932198 -3.1922690936526088 4.8968027015433462 #
vertex $-1 $424 $569 #
point $-1 -40.358276617932198 -0.97272728268369946 4.8968027015433462 #
straight-curve $-1 -43.761101107821901 7.9054399611919326 3.2637854437363245 0.75470957328743171 0 0.6560590369687036 I I #
coedge $-1 $432 $438 $434 $530 reversed $428 $-1 #
straight-curve $-1 -43.761101107821894 7.9054399611919326 34.658814665540582 0 0 -1 I I #
edge $-1 $436 -7.9054399611919326 $534 -0.50696725796223596 $528 $570 forward 7 unknown #
point $-1 -38.644924988623643 7.9054399611919326 7.7112095874408828 #
point $-1 -43.761101107821894 7.9054399611919326 7.7112095874408828 #
point $-1 -43.761101107821894 7.9054399611919326 3.2637854437363307 #
vertex $-1 $443 $571 #
straight-curve $-1 -50.590416403398649 0.50696725796223596 7.7112095874408837 1 0 0 I I #
straight-curve $-1 -43.761101107821894 0.50696725796223596 34.658814665540582 0 0 1 I I #
vertex $-1 $446 $572 #
point $-1 -40.358276617932198 1.9866617986081785 4.8968027015433462 #
vertex $-1 $450 $573 #
point $-1 -40.358276617932198 4.2062036095770878 4.8968027015433462 #
vertex $-1 $454 $574 #
point $-1 -40.358276617932198 6.4257454205459972 4.8968027015433462 #
straight-curve $-1 -43.761101107821894 22.404476453889536 0 0 0 -1 I I #
point $-1 -43.761101107821894 -22.404476453889536 -7.7112095874408828 #
straight-curve $-1 -43.761101107821894 0 -7.7112095874408828 0 1 0 I I #
point $-1 -43.761101107821894 22.404476453889536 -7.7112095874408828 #
edge $-1 $491 -43.761101107821894 $549 43.761101107821894 $488 $575 forward 7 unknown #
straight-curve $-1 43.761101107821894 0 -7.7112095874408828 0 -1 0 I I #
vertex $-1 $479 $576 #
straight-curve $-1 -43.761101107821894 0 -7.7112095874408828 0 1 0 I I #
point $-1 -43.761101107821894 -15.732048011855291 -7.7112095874408828 #
straight-curve $-1 -43.761101107821894 -15.732048011855291 -2.9608272573915633 0 0 -1 I I #
straight-curve $-1 -43.761101107821894 -22.404476453889536 0 0 0 -1 I I #
point $-1 43.761101107821894 -22.404476453889536 -7.7112095874408828 #
edge $-1 $509 -1.6366346347196128 $498 1.6366346347196128 $495 $577 forward 7 unknown #
straight-curve $-1 -35.5020345796014 28.062970379999307 0 0 0 -1 I I #
straight-curve $-1 -38.775303849040625 25.233723416944422 7.7112095874408828 0 -1 0 I I #
point $-1 -38.775303849040625 28.062970379999307 7.7112095874408828 #
point $-1 -38.775303849040625 28.062970379999307 -7.7112095874408828 #
straight-curve $-1 -37.138669214321013 28.062970379999307 -7.7112095874408828 1 0 0 I I #
point $-1 -35.5020345796014 28.062970379999307 -7.7112095874408828 #
point $-1 -35.5020345796014 28.062970379999307 7.7112095874408828 #
straight-curve $-1 -43.761101107821894 0.50696725796223596 34.658814665540582 0 0 -1 I I #
point $-1 -43.761101107821894 0.50696725796223596 7.7112095874408828 #
straight-curve $-1 -43.761101107821894 -1.5961345468263062 3.2637854437363316 0 -1 0 I I #
point $-1 -43.761101107821894 0.50696725796223596 3.2637854437363307 #
point $-1 -40.38293925201188 -5.4118109046215181 4.5441105489793125 #
point $-1 -40.38293925201188 -3.1922690936526088 4.5441105489793125 #
point $-1 -40.38293925201188 -0.97272728268369946 4.5441105489793125 #
straight-curve $-1 -43.761101107821894 0 7.7112095874408828 0 -1 0 I I #
point $-1 -43.761101107821894 0.50696725796223596 7.7112095874408828 #
point $-1 -40.38293925201188 1.9866617986081785 4.5441105489793125 #
point $-1 -40.38293925201188 4.2062036095770878 4.5441105489793125 #
point $-1 -40.38293925201188 6.4257454205459972 4.5441105489793125 #
straight-curve $-1 0 -22.404476453889536 -7.7112095874408828 -1 0 0 I I #
point $-1 -43.761101107821894 -22.404476453889536 -7.7112095874408828 #
straight-curve $-1 -37.138669214321013 28.062970379999307 7.7112095874408828 -1 0 0 I I #
End-of-ACIS-data 