500 0 11 0           
7 Unknown 11 ACIS 5.0 NT 24 Thu Mar 25 16:39:02 1999 
-1 9.9999999999999995e-007 1e-010 
body $-1 $11 $-1 $12 #
body $-1 $13 $-1 $14 #
body $-1 $15 $-1 $16 #
body $-1 $17 $-1 $18 #
body $-1 $19 $-1 $20 #
body $-1 $21 $-1 $22 #
body $-1 $23 $-1 $24 #
body $-1 $25 $-1 $26 #
body $-1 $27 $-1 $28 #
body $-1 $29 $-1 $30 #
body $-1 $31 $-1 $32 #
lump $-1 $-1 $33 $0 #
transform $-1 1 0 0 0 1 0 0 0 1 68.241828669087795 35.359667949228594 7.6760274073443666 1 rotate no_reflect no_shear #
lump $-1 $-1 $34 $1 #
transform $-1 1 0 0 0 1 0 0 0 1 68.241828669087795 35.359667949228594 7.6760274073443666 1 rotate no_reflect no_shear #
lump $-1 $-1 $35 $2 #
transform $-1 1 0 0 0 1 0 0 0 1 68.241828669087795 35.359667949228594 7.6760274073443666 1 rotate no_reflect no_shear #
lump $-1 $-1 $36 $3 #
transform $-1 1 0 0 0 1 0 0 0 1 68.241828669087795 35.359667949228594 7.6760274073443666 1 rotate no_reflect no_shear #
lump $-1 $-1 $37 $4 #
transform $-1 1 0 0 0 1 0 0 0 1 68.241828669087795 35.359667949228594 7.6760274073443666 1 rotate no_reflect no_shear #
lump $-1 $-1 $38 $5 #
transform $-1 1 0 0 0 1 0 0 0 1 68.241828669087795 35.359667949228594 7.6760274073443666 1 rotate no_reflect no_shear #
lump $-1 $-1 $39 $6 #
transform $-1 1 0 0 0 1 0 0 0 1 68.241828669087795 35.359667949228594 7.6760274073443666 1 rotate no_reflect no_shear #
lump $-1 $-1 $40 $7 #
transform $-1 1 0 0 0 1 0 0 0 1 68.241828669087795 35.359667949228594 7.6760274073443666 1 rotate no_reflect no_shear #
lump $-1 $-1 $41 $8 #
transform $-1 1 0 0 0 1 0 0 0 1 68.241828669087795 35.359667949228594 7.6760274073443666 1 rotate no_reflect no_shear #
lump $-1 $-1 $42 $9 #
transform $-1 1 0 0 0 1 0 0 0 1 68.241828669087795 35.359667949228594 7.6760274073443666 1 rotate no_reflect no_shear #
lump $-1 $-1 $43 $10 #
transform $-1 1 0 0 0 1 0 0 0 1 68.241828669087795 35.359667949228594 7.6760274073443666 1 rotate no_reflect no_shear #
shell $-1 $-1 $-1 $44 $-1 $11 #
shell $-1 $-1 $-1 $45 $-1 $13 #
shell $-1 $-1 $-1 $46 $-1 $15 #
shell $-1 $-1 $-1 $47 $-1 $17 #
shell $-1 $-1 $-1 $48 $-1 $19 #
shell $-1 $-1 $-1 $49 $-1 $21 #
shell $-1 $-1 $-1 $50 $-1 $23 #
shell $-1 $-1 $-1 $51 $-1 $25 #
shell $-1 $-1 $-1 $52 $-1 $27 #
shell $-1 $-1 $-1 $53 $-1 $29 #
shell $-1 $-1 $-1 $54 $-1 $31 #
face $-1 $55 $56 $33 $-1 $57 forward single #
face $-1 $58 $59 $34 $-1 $60 forward single #
face $-1 $61 $62 $35 $-1 $63 reversed single #
face $-1 $64 $65 $36 $-1 $66 forward single #
face $-1 $67 $68 $37 $-1 $69 forward single #
face $-1 $70 $71 $38 $-1 $72 reversed single #
face $-1 $73 $74 $39 $-1 $75 forward single #
face $-1 $76 $77 $40 $-1 $78 forward single #
face $-1 $79 $80 $41 $-1 $81 reversed single #
face $-1 $82 $83 $42 $-1 $84 forward single #
face $-1 $85 $86 $43 $-1 $87 forward single #
face $-1 $88 $89 $33 $-1 $90 reversed single #
loop $-1 $-1 $91 $44 #
plane-surface $-1 0 0 7.6760274073443666 0 0 1 1 0 0 forward_v I I I I #
face $-1 $92 $93 $34 $-1 $94 reversed single #
loop $-1 $-1 $95 $45 #
plane-surface $-1 -68.241828669087795 0 0 1 0 0 0 0 -1 forward_v I I I I #
face $-1 $96 $97 $35 $-1 $98 reversed single #
loop $-1 $-1 $99 $46 #
plane-surface $-1 -22.748706292400989 -152.34899716907765 74.19141975897999 -1 0 0 0 -0.85716730853699208 0.51503806187062418 forward_v I I I I #
face $-1 $100 $101 $36 $-1 $102 forward single #
loop $-1 $103 $104 $47 #
cone-surface $-1 -32.606142739285012 -33.795792443232351 5.5290653759926967 0 0.85716730853699208 -0.51503806187062418 0.5 0 0 1 I I 0 1 0.5 forward I I I I #
face $-1 $105 $106 $37 $-1 $107 forward single #
loop $-1 $108 $109 $48 #
cone-surface $-1 -26.691680871154603 -33.795792443232351 5.5290653759926967 0 0.85716730853699208 -0.51503806187062418 0.5 0 0 1 I I 0 1 0.5 forward I I I I #
face $-1 $110 $111 $38 $-1 $112 reversed single #
loop $-1 $-1 $113 $49 #
plane-surface $-1 -39.985511517526398 101.80040636382623 141.48669271575548 1 0 0 0 -0.79863551827123203 -0.60181501223851219 forward_v I I I I #
face $-1 $114 $115 $39 $-1 $116 forward single #
loop $-1 $117 $118 $50 #
cone-surface $-1 -32.381139841643908 32.833417159211763 4.7338413093924219 0 -0.79863551827123203 -0.60181501223851219 1 0 0 1 I I 0 1 1 forward I I I I #
face $-1 $119 $120 $40 $-1 $121 forward single #
loop $-1 $122 $123 $51 #
cone-surface $-1 -20.974582327820173 32.833417159211763 4.7338413093924219 0 -0.79863551827123203 -0.60181501223851219 1 0 0 1 I I 0 1 1 forward I I I I #
face $-1 $124 $125 $41 $-1 $126 reversed single #
loop $-1 $-1 $127 $52 #
plane-surface $-1 23.795986984133464 101.80040636382623 141.48669271575548 1 0 0 0 -0.79863551827123203 -0.60181501223851219 forward_v I I I I #
face $-1 $128 $129 $42 $-1 $130 forward single #
loop $-1 $131 $132 $53 #
cone-surface $-1 31.400358660015954 32.833417159211763 4.7338413093924219 0 -0.79863551827123203 -0.60181501223851219 1 0 0 1 I I 0 1 1 forward I I I I #
face $-1 $133 $134 $43 $-1 $135 forward single #
loop $-1 $136 $137 $54 #
cone-surface $-1 42.806916173839682 32.833417159211763 4.7338413093924219 0 -0.79863551827123203 -0.60181501223851219 1 0 0 1 I I 0 1 1 forward I I I I #
face $-1 $138 $139 $33 $-1 $140 reversed single #
loop $-1 $-1 $141 $55 #
plane-surface $-1 0 0 -7.6760274073443666 0 0 1 1 0 0 forward_v I I I I #
coedge $-1 $142 $143 $144 $145 forward $56 $-1 #
face $-1 $146 $147 $34 $-1 $148 reversed single #
loop $-1 $-1 $149 $58 #
plane-surface $-1 0 35.359667949228594 0 0 -1 0 0 0 -1 forward_v I I I I #
coedge $-1 $150 $151 $152 $153 forward $59 $-1 #
face $-1 $154 $155 $35 $-1 $156 reversed single #
loop $-1 $-1 $157 $61 #
plane-surface $-1 -29.648911805219804 -35.359667949228594 3.8971414065116363 0 -0.85716730853699208 0.51503806187062418 1 0 0 forward_v I I I I #
coedge $-1 $158 $159 $160 $161 reversed $62 $-1 #
face $-1 $-1 $162 $36 $-1 $163 forward single #
loop $-1 $164 $165 $64 #
cone-surface $-1 -32.606142739285012 -33.152916961829604 5.1427868295897285 0 0.85716730853699208 -0.51503806187062418 0.25 0 0 1 I I -0.70710678118654746 0.70710678118654746 0.25 forward I I I I #
loop $-1 $-1 $166 $47 #
coedge $-1 $104 $104 $167 $168 reversed $65 $-1 #
face $-1 $-1 $169 $37 $-1 $170 forward single #
loop $-1 $171 $172 $67 #
cone-surface $-1 -26.691680871154603 -33.152916961829604 5.1427868295897285 0 0.85716730853699208 -0.51503806187062418 0.25 0 0 1 I I -0.70710678118654746 0.70710678118654746 0.25 forward I I I I #
loop $-1 $-1 $173 $48 #
coedge $-1 $109 $109 $174 $175 reversed $68 $-1 #
face $-1 $176 $177 $38 $-1 $178 reversed single #
loop $-1 $-1 $179 $70 #
plane-surface $-1 -26.677861084732037 -7.2002900500008735 59.348778804424441 0 0.79863551827123203 0.60181501223851219 1 0 0 forward_v I I I I #
coedge $-1 $180 $181 $182 $183 reversed $71 $-1 #
face $-1 $-1 $184 $39 $-1 $185 forward single #
loop $-1 $186 $187 $73 #
cone-surface $-1 -32.381139841643908 31.718722615604605 3.8938587453120279 0 -0.79863551827123203 -0.60181501223851219 0.5 0 0 1 I I -0.70710678118654779 0.70710678118654713 0.5 forward I I I I #
loop $-1 $-1 $188 $50 #
coedge $-1 $118 $118 $189 $190 reversed $74 $-1 #
face $-1 $-1 $191 $40 $-1 $192 forward single #
loop $-1 $193 $194 $76 #
cone-surface $-1 -20.974582327820173 31.718722615604605 3.8938587453120279 0 -0.79863551827123203 -0.60181501223851219 0.5 0 0 1 I I -0.70710678118654779 0.70710678118654713 0.5 forward I I I I #
loop $-1 $-1 $195 $51 #
coedge $-1 $123 $123 $196 $197 reversed $77 $-1 #
face $-1 $198 $199 $41 $-1 $200 reversed single #
loop $-1 $-1 $201 $79 #
plane-surface $-1 37.103637416927825 -7.2002900500008735 59.348778804424441 0 0.79863551827123203 0.60181501223851219 1 0 0 forward_v I I I I #
coedge $-1 $202 $203 $204 $205 reversed $80 $-1 #
face $-1 $-1 $206 $42 $-1 $207 forward single #
loop $-1 $208 $209 $82 #
cone-surface $-1 31.400358660015954 31.718722615604605 3.8938587453120279 0 -0.79863551827123203 -0.60181501223851219 0.5 0 0 1 I I -0.70710678118654779 0.70710678118654713 0.5 forward I I I I #
loop $-1 $-1 $210 $53 #
coedge $-1 $132 $132 $211 $212 reversed $83 $-1 #
face $-1 $-1 $213 $43 $-1 $214 forward single #
loop $-1 $215 $216 $85 #
cone-surface $-1 42.806916173839682 31.718722615604605 3.8938587453120279 0 -0.79863551827123203 -0.60181501223851219 0.5 0 0 1 I I -0.70710678118654779 0.70710678118654713 0.5 forward I I I I #
loop $-1 $-1 $217 $54 #
coedge $-1 $137 $137 $218 $219 reversed $86 $-1 #
face $-1 $220 $221 $33 $-1 $222 reversed single #
loop $-1 $-1 $223 $88 #
plane-surface $-1 0 -35.359667949228594 0 0 1 0 0 0 1 forward_v I I I I #
coedge $-1 $224 $225 $226 $227 forward $89 $-1 #
coedge $-1 $228 $91 $229 $230 forward $56 $-1 #
coedge $-1 $91 $228 $231 $232 forward $56 $-1 #
coedge $-1 $233 $234 $91 $145 reversed $235 $-1 #
edge $-1 $236 -35.359667949228594 $237 35.359667949228594 $144 $238 forward 7 unknown #
face $-1 $239 $240 $34 $-1 $241 reversed single #
loop $-1 $-1 $152 $92 #
plane-surface $-1 -72.702158836515721 0 4.6760274073443666 0 0 1 1 0 0 forward_v I I I I #
coedge $-1 $242 $243 $150 $244 forward $93 $-1 #
coedge $-1 $245 $95 $149 $244 reversed $59 $-1 #
coedge $-1 $95 $245 $246 $247 reversed $59 $-1 #
coedge $-1 $248 $249 $95 $153 reversed $147 $-1 #
edge $-1 $250 -35.359667949228594 $251 35.359667949228594 $152 $252 forward 7 unknown #
face $-1 $253 $254 $35 $-1 $255 reversed single #
loop $-1 $-1 $256 $96 #
plane-surface $-1 -36.549117318038618 -152.34899716907765 74.19141975897999 1 0 0 0 0.85716730853699208 -0.51503806187062418 forward_v I I I I #
coedge $-1 $257 $258 $259 $260 reversed $97 $-1 #
coedge $-1 $159 $99 $261 $262 reversed $62 $-1 #
coedge $-1 $99 $158 $257 $263 reversed $62 $-1 #
coedge $-1 $259 $264 $99 $161 forward $265 $-1 #
edge $-1 $266 40.81483063531023 $267 43.085414338765752 $160 $268 forward 7 unknown #
loop $-1 $-1 $167 $100 #
plane-surface $-1 -29.648911805219804 -35.359667949228594 3.8971414065116363 0 -0.85716730853699208 0.51503806187062418 1 0 0 forward_v I I I I #
loop $-1 $-1 $269 $64 #
coedge $-1 $165 $165 $166 $270 reversed $101 $-1 #
coedge $-1 $166 $166 $165 $270 forward $103 $-1 #
coedge $-1 $167 $167 $104 $168 forward $162 $-1 #
edge $-1 $271 6.3845840292272541e-015 $271 6.2831853071796067 $167 $272 forward 7 unknown #
loop $-1 $-1 $174 $105 #
plane-surface $-1 -29.648911805219804 -35.359667949228594 3.8971414065116363 0 -0.85716730853699208 0.51503806187062418 1 0 0 forward_v I I I I #
loop $-1 $-1 $273 $67 #
coedge $-1 $172 $172 $173 $274 reversed $106 $-1 #
coedge $-1 $173 $173 $172 $274 forward $108 $-1 #
coedge $-1 $174 $174 $109 $175 forward $169 $-1 #
edge $-1 $275 6.3845840292272541e-015 $275 6.2831853071796067 $174 $276 forward 7 unknown #
face $-1 $277 $278 $38 $-1 $279 forward single #
loop $-1 $-1 $280 $110 #
plane-surface $-1 -13.370210651937674 101.80040636382623 141.48669271575548 -1 0 0 0 0.79863551827123203 0.60181501223851219 forward_v I I I I #
coedge $-1 $281 $282 $283 $284 reversed $111 $-1 #
coedge $-1 $181 $113 $285 $286 reversed $71 $-1 #
coedge $-1 $113 $180 $281 $287 reversed $71 $-1 #
coedge $-1 $283 $288 $113 $183 forward $278 $-1 #
edge $-1 $289 15.540535232684519 $290 19.162283243775121 $182 $291 forward 7 unknown #
loop $-1 $-1 $189 $114 #
plane-surface $-1 -26.677861084732037 -7.2002900500008735 59.348778804424441 0 0.79863551827123203 0.60181501223851219 1 0 0 forward_v I I I I #
loop $-1 $-1 $292 $73 #
coedge $-1 $187 $187 $188 $293 reversed $115 $-1 #
coedge $-1 $188 $188 $187 $293 forward $117 $-1 #
coedge $-1 $189 $189 $118 $190 forward $184 $-1 #
edge $-1 $294 -6.8916297556722708e-016 $294 6.2831853071795996 $189 $295 forward 7 unknown #
loop $-1 $-1 $196 $119 #
plane-surface $-1 -26.677861084732037 -7.2002900500008735 59.348778804424441 0 0.79863551827123203 0.60181501223851219 1 0 0 forward_v I I I I #
loop $-1 $-1 $296 $76 #
coedge $-1 $194 $194 $195 $297 reversed $120 $-1 #
coedge $-1 $195 $195 $194 $297 forward $122 $-1 #
coedge $-1 $196 $196 $123 $197 forward $191 $-1 #
edge $-1 $298 -6.8916297556722708e-016 $298 6.2831853071795996 $196 $299 forward 7 unknown #
face $-1 $300 $301 $41 $-1 $302 forward single #
loop $-1 $-1 $303 $124 #
plane-surface $-1 50.411287849722186 101.80040636382623 141.48669271575548 -1 0 0 0 0.79863551827123203 0.60181501223851219 forward_v I I I I #
coedge $-1 $304 $305 $306 $307 reversed $125 $-1 #
coedge $-1 $203 $127 $308 $309 reversed $80 $-1 #
coedge $-1 $127 $202 $304 $310 reversed $80 $-1 #
coedge $-1 $306 $311 $127 $205 forward $301 $-1 #
edge $-1 $312 15.540535232684519 $313 19.162283243775121 $204 $314 forward 7 unknown #
loop $-1 $-1 $211 $128 #
plane-surface $-1 37.103637416927825 -7.2002900500008735 59.348778804424441 0 0.79863551827123203 0.60181501223851219 1 0 0 forward_v I I I I #
loop $-1 $-1 $315 $82 #
coedge $-1 $209 $209 $210 $316 reversed $129 $-1 #
coedge $-1 $210 $210 $209 $316 forward $131 $-1 #
coedge $-1 $211 $211 $132 $212 forward $206 $-1 #
edge $-1 $317 -6.8916297556722708e-016 $317 6.2831853071795996 $211 $318 forward 7 unknown #
loop $-1 $-1 $218 $133 #
plane-surface $-1 37.103637416927825 -7.2002900500008735 59.348778804424441 0 0.79863551827123203 0.60181501223851219 1 0 0 forward_v I I I I #
loop $-1 $-1 $319 $85 #
coedge $-1 $216 $216 $217 $320 reversed $134 $-1 #
coedge $-1 $217 $217 $216 $320 forward $136 $-1 #
coedge $-1 $218 $218 $137 $219 forward $213 $-1 #
edge $-1 $321 -6.8916297556722708e-016 $321 6.2831853071795996 $218 $322 forward 7 unknown #
face $-1 $323 $324 $33 $-1 $325 reversed single #
loop $-1 $-1 $326 $138 #
plane-surface $-1 -68.241828669087795 0 0 1 0 0 0 0 -1 forward_v I I I I #
coedge $-1 $327 $231 $328 $329 forward $139 $-1 #
coedge $-1 $330 $141 $327 $331 forward $89 $-1 #
coedge $-1 $141 $330 $332 $333 forward $89 $-1 #
coedge $-1 $234 $233 $141 $227 reversed $235 $-1 #
edge $-1 $334 -35.359667949228594 $335 35.359667949228594 $226 $336 forward 7 unknown #
coedge $-1 $143 $142 $337 $338 forward $56 $-1 #
coedge $-1 $339 $340 $142 $230 reversed $324 $-1 #
edge $-1 $237 -68.241828669087795 $341 68.241828669087795 $229 $342 forward 7 unknown #
coedge $-1 $223 $343 $143 $232 reversed $139 $-1 #
edge $-1 $344 -68.241828669087795 $236 68.241828669087795 $231 $345 forward 7 unknown #
coedge $-1 $226 $144 $343 $346 forward $235 $-1 #
coedge $-1 $144 $226 $339 $347 reversed $235 $-1 #
loop $-1 $-1 $233 $323 #
vertex $-1 $145 $348 #
vertex $-1 $145 $349 #
straight-curve $-1 68.241828669087795 0 7.6760274073443666 0 1 0 I I #
face $-1 $350 $351 $34 $-1 $352 forward single #
loop $-1 $-1 $353 $146 #
plane-surface $-1 -77.162489003943648 0 6.1760274073443666 1 0 0 0 0 -1 forward_v I I I I #
coedge $-1 $354 $149 $249 $355 reversed $93 $-1 #
coedge $-1 $149 $354 $356 $357 reversed $93 $-1 #
edge $-1 $358 -7.6760274073443666 $251 -4.6760274073443666 $149 $359 forward 7 unknown #
coedge $-1 $151 $150 $360 $361 reversed $59 $-1 #
coedge $-1 $362 $363 $151 $247 forward $364 $-1 #
edge $-1 $250 4.6760274073443666 $365 7.6760274073443666 $246 $366 forward 7 unknown #
coedge $-1 $367 $152 $363 $368 forward $147 $-1 #
coedge $-1 $152 $367 $242 $355 forward $147 $-1 #
vertex $-1 $247 $369 #
vertex $-1 $244 $370 #
straight-curve $-1 -68.241828669087795 0 4.6760274073443666 0 1 0 I I #
face $-1 $-1 $265 $35 $-1 $371 forward single #
loop $-1 $-1 $372 $154 #
plane-surface $-1 0 -35.359667949228594 0 0 1 0 0 0 1 forward_v I I I I #
coedge $-1 $373 $374 $375 $376 reversed $155 $-1 #
coedge $-1 $377 $157 $159 $263 forward $97 $-1 #
coedge $-1 $157 $377 $373 $378 forward $97 $-1 #
coedge $-1 $375 $160 $157 $260 forward $265 $-1 #
edge $-1 $267 7.9242503897910872 $379 21.724661415428717 $259 $380 forward 7 unknown #
coedge $-1 $381 $382 $158 $262 forward $254 $-1 #
edge $-1 $383 -33.198568472978359 $266 -29.419682472145627 $261 $384 forward 7 unknown #
edge $-1 $267 -4.4085745725446666 $383 0 $159 $385 forward 7 unknown #
coedge $-1 $160 $375 $381 $386 forward $265 $-1 #
loop $-1 $-1 $375 $253 #
vertex $-1 $262 $387 #
vertex $-1 $161 $388 #
straight-curve $-1 -22.748706292400989 -76.174498584538824 7.676027407344364 0 1 0 I I #
coedge $-1 $269 $269 $-1 $389 reversed $164 $-1 #
edge $-1 $390 0 $390 6.2831853071796004 $165 $391 forward 7 unknown #
vertex $-1 $168 $392 #
ellipse-curve $-1 -32.606142739285012 -34.224376097500837 5.786584406928001 0 -0.85716730853699208 0.51503806187062418 0.5 0 0 1 I I #
coedge $-1 $273 $273 $-1 $393 reversed $171 $-1 #
edge $-1 $394 0 $394 6.2831853071796004 $172 $395 forward 7 unknown #
vertex $-1 $175 $396 #
ellipse-curve $-1 -26.691680871154603 -34.224376097500837 5.786584406928001 0 -0.85716730853699208 0.51503806187062418 0.5 0 0 1 I I #
face $-1 $-1 $397 $38 $-1 $398 reversed single #
loop $-1 $-1 $182 $176 #
plane-surface $-1 0 0 7.6760274073443666 0 0 1 1 0 0 forward_v I I I I #
coedge $-1 $399 $400 $401 $402 reversed $177 $-1 #
coedge $-1 $403 $179 $181 $287 forward $111 $-1 #
coedge $-1 $179 $403 $399 $404 forward $111 $-1 #
coedge $-1 $401 $182 $179 $284 forward $278 $-1 #
edge $-1 $290 -26.646580975160379 $405 -0.031280109571655501 $283 $406 forward 7 unknown #
coedge $-1 $407 $408 $180 $286 forward $397 $-1 #
edge $-1 $409 -67.873541030515 $289 -63.067318950533377 $285 $410 forward 7 unknown #
edge $-1 $290 64.701293913065115 $409 70.719335898457189 $181 $411 forward 7 unknown #
coedge $-1 $182 $401 $407 $412 forward $278 $-1 #
vertex $-1 $286 $413 #
vertex $-1 $183 $414 #
straight-curve $-1 -39.985511517526398 50.900203181913113 7.676027407344364 0 -1 0 I I #
coedge $-1 $292 $292 $-1 $415 reversed $186 $-1 #
edge $-1 $416 0 $416 6.2831853071796004 $187 $417 forward 7 unknown #
vertex $-1 $190 $418 #
ellipse-curve $-1 -32.381139841643908 33.548793943683293 5.2729163673535524 0 0.79863551827123203 0.60181501223851219 1 0 0 1 I I #
coedge $-1 $296 $296 $-1 $419 reversed $193 $-1 #
edge $-1 $420 0 $420 6.2831853071796004 $194 $421 forward 7 unknown #
vertex $-1 $197 $422 #
ellipse-curve $-1 -20.974582327820173 33.548793943683293 5.2729163673535524 0 0.79863551827123203 0.60181501223851219 1 0 0 1 I I #
face $-1 $-1 $423 $41 $-1 $424 reversed single #
loop $-1 $-1 $204 $198 #
plane-surface $-1 0 0 7.6760274073443666 0 0 1 1 0 0 forward_v I I I I #
coedge $-1 $425 $426 $427 $428 reversed $199 $-1 #
coedge $-1 $429 $201 $203 $310 forward $125 $-1 #
coedge $-1 $201 $429 $425 $430 forward $125 $-1 #
coedge $-1 $427 $204 $201 $307 forward $301 $-1 #
edge $-1 $313 5.2441682756695513 $431 31.859469141258273 $306 $432 forward 7 unknown #
coedge $-1 $433 $434 $202 $309 forward $423 $-1 #
edge $-1 $435 -67.873541030515 $312 -63.067318950533377 $308 $436 forward 7 unknown #
edge $-1 $313 64.701293913065115 $435 70.719335898457189 $203 $437 forward 7 unknown #
coedge $-1 $204 $427 $433 $438 forward $301 $-1 #
vertex $-1 $205 $439 #
vertex $-1 $205 $440 #
straight-curve $-1 23.795986984133464 50.900203181913113 7.676027407344364 0 -1 0 I I #
coedge $-1 $315 $315 $-1 $441 reversed $208 $-1 #
edge $-1 $442 0 $442 6.2831853071796004 $209 $443 forward 7 unknown #
vertex $-1 $212 $444 #
ellipse-curve $-1 31.400358660015954 33.548793943683293 5.2729163673535524 0 0.79863551827123203 0.60181501223851219 1 0 0 1 I I #
coedge $-1 $319 $319 $-1 $445 reversed $215 $-1 #
edge $-1 $446 0 $446 6.2831853071796004 $216 $447 forward 7 unknown #
vertex $-1 $219 $448 #
ellipse-curve $-1 42.806916173839682 33.548793943683293 5.2729163673535524 0 0.79863551827123203 0.60181501223851219 1 0 0 1 I I #
face $-1 $-1 $235 $33 $-1 $449 reversed single #
loop $-1 $-1 $339 $220 #
plane-surface $-1 0 35.359667949228594 0 0 -1 0 0 0 -1 forward_v I I I I #
coedge $-1 $450 $337 $340 $451 forward $221 $-1 #
coedge $-1 $343 $223 $224 $331 reversed $139 $-1 #
coedge $-1 $337 $450 $223 $329 reversed $221 $-1 #
edge $-1 $344 -7.6760274073443666 $452 7.6760274073443666 $328 $453 forward 7 unknown #
coedge $-1 $225 $224 $450 $454 forward $89 $-1 #
edge $-1 $335 -68.241828669087795 $452 68.241828669087795 $327 $455 forward 7 unknown #
coedge $-1 $340 $339 $225 $333 reversed $324 $-1 #
edge $-1 $456 -68.241828669087795 $334 68.241828669087795 $332 $457 forward 7 unknown #
vertex $-1 $227 $458 #
vertex $-1 $346 $459 #
straight-curve $-1 68.241828669087795 0 -7.6760274073443666 0 -1 0 I I #
coedge $-1 $326 $328 $228 $338 reversed $221 $-1 #
edge $-1 $341 -35.359667949228594 $344 35.359667949228594 $337 $460 forward 7 unknown #
coedge $-1 $332 $229 $234 $347 forward $324 $-1 #
coedge $-1 $229 $332 $326 $451 reversed $324 $-1 #
vertex $-1 $230 $461 #
straight-curve $-1 0 35.359667949228594 7.6760274073443666 -1 0 0 I I #
coedge $-1 $231 $327 $233 $346 reversed $139 $-1 #
vertex $-1 $338 $462 #
straight-curve $-1 0 -35.359667949228594 7.6760274073443666 1 0 0 I I #
edge $-1 $236 -7.6760274073443666 $335 7.6760274073443666 $233 $463 forward 7 unknown #
edge $-1 $237 -7.6760274073443666 $334 7.6760274073443666 $234 $464 forward 7 unknown #
point $-1 68.241828669087795 -35.359667949228594 7.6760274073443666 #
point $-1 68.241828669087795 35.359667949228594 7.6760274073443666 #
face $-1 $-1 $364 $34 $-1 $465 reversed single #
loop $-1 $-1 $360 $239 #
plane-surface $-1 0 0 7.6760274073443666 0 0 1 1 0 0 forward_v I I I I #
coedge $-1 $466 $467 $354 $468 forward $240 $-1 #
coedge $-1 $243 $242 $353 $468 reversed $93 $-1 #
edge $-1 $469 -4.4603301674279265 $251 4.4603301674279265 $242 $470 forward 7 unknown #
coedge $-1 $471 $360 $243 $357 forward $351 $-1 #
edge $-1 $358 68.241828669087795 $472 77.162489003943648 $243 $473 forward 7 unknown #
vertex $-1 $357 $474 #
straight-curve $-1 -68.241828669087795 35.359667949228594 0 0 0 -1 I I #
coedge $-1 $356 $475 $245 $361 forward $351 $-1 #
edge $-1 $365 -35.359667949228594 $358 35.359667949228594 $360 $476 forward 7 unknown #
coedge $-1 $477 $246 $475 $478 reversed $364 $-1 #
coedge $-1 $246 $477 $248 $368 reversed $364 $-1 #
loop $-1 $-1 $246 $350 #
vertex $-1 $247 $479 #
straight-curve $-1 -68.241828669087795 -35.359667949228594 0 0 0 1 I I #
coedge $-1 $249 $248 $466 $480 forward $147 $-1 #
edge $-1 $250 -4.4603301674279265 $481 4.4603301674279265 $363 $482 forward 7 unknown #
point $-1 -68.241828669087795 -35.359667949228594 4.6760274073443666 #
point $-1 -68.241828669087795 35.359667949228594 4.6760274073443666 #
plane-surface $-1 0 0 7.6760274073443666 0 0 1 1 0 0 forward_v I I I I #
coedge $-1 $382 $381 $374 $483 forward $254 $-1 #
coedge $-1 $374 $256 $258 $378 reversed $155 $-1 #
coedge $-1 $256 $373 $372 $483 reversed $155 $-1 #
coedge $-1 $264 $259 $256 $376 forward $265 $-1 #
edge $-1 $379 -43.085414338765752 $484 -40.81483063531023 $375 $485 forward 7 unknown #
coedge $-1 $258 $257 $382 $486 reversed $97 $-1 #
edge $-1 $487 0 $379 4.4085745725446666 $373 $488 forward 7 unknown #
vertex $-1 $260 $489 #
straight-curve $-1 -14.824455902609902 -33.089084245773073 7.6760274073443666 -1 0 0 I I #
coedge $-1 $372 $261 $264 $386 reversed $254 $-1 #
coedge $-1 $261 $372 $377 $486 forward $254 $-1 #
vertex $-1 $262 $490 #
straight-curve $-1 -22.748706292400989 -35.359667949228594 37.095709879489995 0 0 1 I I #
straight-curve $-1 -22.748706292400989 -35.359667949228594 3.8971414065116363 0 -0.51503806187062418 -0.85716730853699208 I I #
edge $-1 $484 -36.549117318038618 $266 -22.748706292400989 $381 $491 forward 7 unknown #
point $-1 -22.748706292400989 -35.359667949228594 7.6760274073443666 #
point $-1 -22.748706292400989 -33.089084245773073 7.6760274073443666 #
edge $-1 $492 1 $492 0 $269 $-1 forward 7 unknown #
vertex $-1 $270 $493 #
ellipse-curve $-1 -32.606142739285012 -33.36720878896385 5.2715463450573843 0 -0.85716730853699208 0.51503806187062418 0.5 0 0 1 I I #
point $-1 -32.106142739285012 -34.224376097500844 5.786584406928009 #
edge $-1 $494 1 $494 0 $273 $-1 forward 7 unknown #
vertex $-1 $274 $495 #
ellipse-curve $-1 -26.691680871154603 -33.36720878896385 5.2715463450573843 0 -0.85716730853699208 0.51503806187062418 0.5 0 0 1 I I #
point $-1 -26.191680871154603 -34.224376097500844 5.786584406928009 #
loop $-1 $-1 $285 $277 #
plane-surface $-1 0 35.359667949228594 0 0 -1 0 0 0 -1 forward_v I I I I #
coedge $-1 $400 $280 $282 $404 reversed $177 $-1 #
coedge $-1 $280 $399 $496 $497 reversed $177 $-1 #
coedge $-1 $288 $283 $280 $402 forward $278 $-1 #
edge $-1 $405 -19.162283243775121 $498 -15.540535232684519 $401 $499 forward 7 unknown #
coedge $-1 $282 $281 $408 $500 reversed $111 $-1 #
edge $-1 $501 -70.719335898457189 $405 -64.701293913065115 $399 $502 forward 7 unknown #
vertex $-1 $284 $503 #
straight-curve $-1 -13.338930542366018 31.737919938137992 7.676027407344364 1 0 0 I I #
coedge $-1 $496 $285 $288 $412 reversed $397 $-1 #
coedge $-1 $285 $496 $403 $500 forward $397 $-1 #
vertex $-1 $286 $504 #
straight-curve $-1 -39.985511517526398 35.359667949228594 70.743346357877741 0 0 1 I I #
straight-curve $-1 -39.985511517526398 -7.2002900500008735 59.348778804424441 0 0.60181501223851219 -0.79863551827123203 I I #
edge $-1 $498 13.370210651937674 $289 39.985511517526398 $407 $505 forward 7 unknown #
point $-1 -39.985511517526398 35.359667949228594 7.6760274073443666 #
point $-1 -39.985511517526398 31.737919938137992 7.676027407344364 #
edge $-1 $506 1 $506 0 $292 $-1 forward 7 unknown #
vertex $-1 $293 $507 #
ellipse-curve $-1 -32.381139841643908 32.118040374740218 4.1947662514312833 0 0.79863551827123203 0.60181501223851219 1 0 0 1 I I #
point $-1 -31.381139841643908 33.5487939436833 5.2729163673535586 #
edge $-1 $508 1 $508 0 $296 $-1 forward 7 unknown #
vertex $-1 $297 $509 #
ellipse-curve $-1 -20.974582327820173 32.118040374740218 4.1947662514312833 0 0.79863551827123203 0.60181501223851219 1 0 0 1 I I #
point $-1 -19.974582327820173 33.5487939436833 5.2729163673535586 #
loop $-1 $-1 $308 $300 #
plane-surface $-1 0 35.359667949228594 0 0 -1 0 0 0 -1 forward_v I I I I #
coedge $-1 $426 $303 $305 $430 reversed $199 $-1 #
coedge $-1 $303 $425 $510 $511 reversed $199 $-1 #
coedge $-1 $311 $306 $303 $428 forward $301 $-1 #
edge $-1 $431 -19.162283243775121 $512 -15.540535232684519 $427 $513 forward 7 unknown #
coedge $-1 $305 $304 $434 $514 reversed $125 $-1 #
edge $-1 $515 -70.719335898457189 $431 -64.701293913065115 $425 $516 forward 7 unknown #
vertex $-1 $307 $517 #
straight-curve $-1 18.551818708463912 31.737919938137992 7.676027407344364 1 0 0 I I #
coedge $-1 $510 $308 $311 $438 reversed $423 $-1 #
coedge $-1 $308 $510 $429 $514 forward $423 $-1 #
vertex $-1 $309 $518 #
straight-curve $-1 23.795986984133464 35.359667949228594 70.743346357877741 0 0 1 I I #
straight-curve $-1 23.795986984133464 -7.2002900500008735 59.348778804424441 0 0.60181501223851219 -0.79863551827123203 I I #
edge $-1 $512 -50.411287849722186 $312 -23.795986984133464 $433 $519 forward 7 unknown #
point $-1 23.795986984133464 35.359667949228594 7.6760274073443666 #
point $-1 23.795986984133464 31.737919938137992 7.676027407344364 #
edge $-1 $520 1 $520 0 $315 $-1 forward 7 unknown #
vertex $-1 $316 $521 #
ellipse-curve $-1 31.400358660015954 32.118040374740218 4.1947662514312833 0 0.79863551827123203 0.60181501223851219 1 0 0 1 I I #
point $-1 32.400358660015954 33.5487939436833 5.2729163673535586 #
edge $-1 $522 1 $522 0 $319 $-1 forward 7 unknown #
vertex $-1 $320 $523 #
ellipse-curve $-1 42.806916173839682 32.118040374740218 4.1947662514312833 0 0.79863551827123203 0.60181501223851219 1 0 0 1 I I #
point $-1 43.806916173839682 33.5487939436833 5.2729163673535586 #
plane-surface $-1 68.241828669087795 0 0 -1 0 0 0 0 1 forward_v I I I I #
coedge $-1 $328 $326 $330 $454 reversed $221 $-1 #
edge $-1 $341 -7.6760274073443666 $456 7.6760274073443666 $340 $524 forward 7 unknown #
vertex $-1 $454 $525 #
straight-curve $-1 -68.241828669087795 -35.359667949228594 0 0 0 -1 I I #
edge $-1 $452 -35.359667949228594 $456 35.359667949228594 $450 $526 forward 7 unknown #
straight-curve $-1 0 -35.359667949228594 -7.6760274073443666 -1 0 0 I I #
vertex $-1 $333 $527 #
straight-curve $-1 0 35.359667949228594 -7.6760274073443666 1 0 0 I I #
point $-1 68.241828669087795 35.359667949228594 -7.6760274073443666 #
point $-1 68.241828669087795 -35.359667949228594 -7.6760274073443666 #
straight-curve $-1 -68.241828669087795 0 7.6760274073443666 0 -1 0 I I #
point $-1 -68.241828669087795 35.359667949228594 7.6760274073443666 #
point $-1 -68.241828669087795 -35.359667949228594 7.6760274073443666 #
straight-curve $-1 68.241828669087795 -35.359667949228594 0 0 0 -1 I I #
straight-curve $-1 68.241828669087795 35.359667949228594 0 0 0 -1 I I #
plane-surface $-1 0 -35.359667949228594 0 0 1 0 0 0 1 forward_v I I I I #
coedge $-1 $528 $353 $367 $480 reversed $240 $-1 #
coedge $-1 $353 $528 $471 $529 reversed $240 $-1 #
edge $-1 $472 -1.5 $469 1.5 $354 $530 forward 7 unknown #
vertex $-1 $355 $531 #
straight-curve $-1 -72.702158836515721 35.359667949228594 4.6760274073443666 1 0 0 I I #
coedge $-1 $475 $356 $467 $529 forward $351 $-1 #
vertex $-1 $357 $532 #
straight-curve $-1 0 35.359667949228594 7.6760274073443666 -1 0 0 I I #
point $-1 -68.241828669087795 35.359667949228594 7.6760274073443666 #
coedge $-1 $360 $471 $362 $478 forward $351 $-1 #
straight-curve $-1 -68.241828669087795 0 7.6760274073443666 0 1 0 I I #
coedge $-1 $363 $362 $528 $533 forward $364 $-1 #
edge $-1 $534 -77.162489003943648 $365 -68.241828669087795 $362 $535 forward 7 unknown #
point $-1 -68.241828669087795 -35.359667949228594 7.6760274073443666 #
edge $-1 $481 -35.359667949228594 $469 35.359667949228594 $466 $536 forward 7 unknown #
vertex $-1 $480 $537 #
straight-curve $-1 -72.702158836515721 -35.359667949228594 4.6760274073443666 -1 0 0 I I #
edge $-1 $484 29.419682472145627 $487 33.198568472978359 $372 $538 forward 7 unknown #
vertex $-1 $386 $539 #
straight-curve $-1 -36.549117318038618 -76.174498584538824 7.676027407344364 0 -1 0 I I #
edge $-1 $487 -21.724661415428717 $383 -7.9242503897910872 $382 $540 forward 7 unknown #
vertex $-1 $486 $541 #
straight-curve $-1 -36.549117318038618 -35.359667949228594 3.8971414065116363 0 0.51503806187062418 0.85716730853699208 I I #
point $-1 -36.549117318038618 -33.089084245773073 7.6760274073443666 #
point $-1 -22.748706292400989 -35.359667949228594 3.8971414065116363 #
straight-curve $-1 0 -35.359667949228594 7.6760274073443666 1 0 0 I I #
vertex $-1 $389 $542 #
point $-1 -32.106142739285012 -33.36720878896385 5.2715463450573843 #
vertex $-1 $393 $543 #
point $-1 -26.191680871154603 -33.36720878896385 5.2715463450573843 #
coedge $-1 $408 $407 $400 $497 forward $397 $-1 #
edge $-1 $498 63.067318950533377 $501 67.873541030515 $496 $544 forward 7 unknown #
vertex $-1 $412 $545 #
straight-curve $-1 -13.370210651937674 50.900203181913113 7.676027407344364 0 1 0 I I #
edge $-1 $501 0.031280109571655501 $409 26.646580975160379 $408 $546 forward 7 unknown #
vertex $-1 $500 $547 #
straight-curve $-1 -13.370210651937674 -7.2002900500008735 59.348778804424441 0 -0.60181501223851219 0.79863551827123203 I I #
point $-1 -13.370210651937674 31.737919938137992 7.676027407344364 #
point $-1 -39.985511517526398 35.359667949228594 2.8698053273627409 #
straight-curve $-1 0 35.359667949228594 7.6760274073443666 -1 0 0 I I #
vertex $-1 $415 $548 #
point $-1 -31.381139841643908 32.118040374740218 4.1947662514312833 #
vertex $-1 $419 $549 #
point $-1 -19.974582327820173 32.118040374740218 4.1947662514312833 #
coedge $-1 $434 $433 $426 $511 forward $423 $-1 #
edge $-1 $512 63.067318950533377 $515 67.873541030515 $510 $550 forward 7 unknown #
vertex $-1 $438 $551 #
straight-curve $-1 50.411287849722186 50.900203181913113 7.676027407344364 0 1 0 I I #
edge $-1 $515 -31.859469141258273 $435 -5.2441682756695513 $434 $552 forward 7 unknown #
vertex $-1 $514 $553 #
straight-curve $-1 50.411287849722186 -7.2002900500008735 59.348778804424441 0 -0.60181501223851219 0.79863551827123203 I I #
point $-1 50.411287849722186 31.737919938137992 7.676027407344364 #
point $-1 23.795986984133464 35.359667949228594 2.8698053273627409 #
straight-curve $-1 0 35.359667949228594 7.6760274073443666 -1 0 0 I I #
vertex $-1 $441 $554 #
point $-1 32.400358660015954 32.118040374740218 4.1947662514312833 #
vertex $-1 $445 $555 #
point $-1 43.806916173839682 32.118040374740218 4.1947662514312833 #
straight-curve $-1 -68.241828669087795 35.359667949228594 0 0 0 -1 I I #
point $-1 -68.241828669087795 -35.359667949228594 -7.6760274073443666 #
straight-curve $-1 -68.241828669087795 0 -7.6760274073443666 0 1 0 I I #
point $-1 -68.241828669087795 35.359667949228594 -7.6760274073443666 #
coedge $-1 $467 $466 $477 $533 reversed $240 $-1 #
edge $-1 $472 -35.359667949228594 $534 35.359667949228594 $467 $556 forward 7 unknown #
straight-curve $-1 -77.162489003943648 35.359667949228594 6.1760274073443666 0 0 -1 I I #
point $-1 -77.162489003943648 35.359667949228594 4.6760274073443666 #
point $-1 -77.162489003943648 35.359667949228594 7.6760274073443666 #
edge $-1 $534 -1.5 $481 1.5 $528 $557 forward 7 unknown #
vertex $-1 $529 $558 #
straight-curve $-1 0 -35.359667949228594 7.6760274073443666 1 0 0 I I #
straight-curve $-1 -77.162489003943648 0 4.6760274073443666 0 1 0 I I #
point $-1 -77.162489003943648 -35.359667949228594 4.6760274073443666 #
straight-curve $-1 -36.549117318038618 -35.359667949228594 37.095709879489995 0 0 -1 I I #
point $-1 -36.549117318038618 -35.359667949228594 7.6760274073443666 #
straight-curve $-1 -14.824455902609902 -35.359667949228594 3.8971414065116323 1 0 0 I I #
point $-1 -36.549117318038618 -35.359667949228594 3.8971414065116363 #
point $-1 -32.606142739285012 -32.938625134695357 5.0140273141220728 #
point $-1 -26.691680871154603 -32.938625134695357 5.0140273141220728 #
straight-curve $-1 -13.370210651937674 35.359667949228594 70.743346357877741 0 0 -1 I I #
point $-1 -13.370210651937674 35.359667949228594 7.6760274073443666 #
straight-curve $-1 -13.338930542366018 35.359667949228594 2.8698053273627444 -1 0 0 I I #
point $-1 -13.370210651937674 35.359667949228594 2.8698053273627409 #
point $-1 -32.381139841643908 31.319404856468989 3.592951239192772 #
point $-1 -20.974582327820173 31.319404856468989 3.592951239192772 #
straight-curve $-1 50.411287849722186 35.359667949228594 70.743346357877741 0 0 -1 I I #
point $-1 50.411287849722186 35.359667949228594 7.6760274073443666 #
straight-curve $-1 18.551818708463912 35.359667949228594 2.8698053273627444 -1 0 0 I I #
point $-1 50.411287849722186 35.359667949228594 2.8698053273627409 #
point $-1 31.400358660015954 31.319404856468989 3.592951239192772 #
point $-1 42.806916173839682 31.319404856468989 3.592951239192772 #
straight-curve $-1 -77.162489003943648 0 7.6760274073443666 0 -1 0 I I #
straight-curve $-1 -77.162489003943648 -35.359667949228594 6.1760274073443666 0 0 -1 I I #
point $-1 -77.162489003943648 -35.359667949228594 7.6760274073443666 #
End-of-ACIS-data 