500 0 14 0           
7 Unknown 11 ACIS 5.0 NT 24 Thu Mar 25 18:38:34 1999 
-1 9.9999999999999995e-007 1e-010 
body $-1 $14 $-1 $15 #
body $-1 $16 $-1 $17 #
body $-1 $18 $-1 $19 #
body $-1 $20 $-1 $21 #
body $-1 $22 $-1 $23 #
body $-1 $24 $-1 $25 #
body $-1 $26 $-1 $27 #
body $-1 $28 $-1 $29 #
body $-1 $30 $-1 $31 #
body $-1 $32 $-1 $33 #
body $-1 $34 $-1 $35 #
body $-1 $36 $-1 $37 #
body $-1 $38 $-1 $39 #
body $-1 $40 $-1 $41 #
lump $-1 $-1 $42 $0 #
transform $-1 1 0 0 0 1 0 0 0 1 44.371471297341841 19.61203594019203 8.3007746098253481 1 rotate no_reflect no_shear #
lump $-1 $-1 $43 $1 #
transform $-1 1 0 0 0 1 0 0 0 1 44.371471297341841 19.61203594019203 8.3007746098253481 1 rotate no_reflect no_shear #
lump $-1 $-1 $44 $2 #
transform $-1 1 0 0 0 1 0 0 0 1 44.371471297341841 19.61203594019203 8.3007746098253481 1 rotate no_reflect no_shear #
lump $-1 $-1 $45 $3 #
transform $-1 1 0 0 0 1 0 0 0 1 44.371471297341841 19.61203594019203 8.3007746098253481 1 rotate no_reflect no_shear #
lump $-1 $-1 $46 $4 #
transform $-1 1 0 0 0 1 0 0 0 1 44.371471297341841 19.61203594019203 8.3007746098253481 1 rotate no_reflect no_shear #
lump $-1 $-1 $47 $5 #
transform $-1 1 0 0 0 1 0 0 0 1 44.371471297341841 19.61203594019203 8.3007746098253481 1 rotate no_reflect no_shear #
lump $-1 $-1 $48 $6 #
transform $-1 1 0 0 0 1 0 0 0 1 44.371471297341841 19.61203594019203 8.3007746098253481 1 rotate no_reflect no_shear #
lump $-1 $-1 $49 $7 #
transform $-1 1 0 0 0 1 0 0 0 1 44.371471297341841 19.61203594019203 8.3007746098253481 1 rotate no_reflect no_shear #
lump $-1 $-1 $50 $8 #
transform $-1 1 0 0 0 1 0 0 0 1 44.371471297341841 19.61203594019203 8.3007746098253481 1 rotate no_reflect no_shear #
lump $-1 $-1 $51 $9 #
transform $-1 1 0 0 0 1 0 0 0 1 44.371471297341841 19.61203594019203 8.3007746098253481 1 rotate no_reflect no_shear #
lump $-1 $-1 $52 $10 #
transform $-1 1 0 0 0 1 0 0 0 1 44.371471297341841 19.61203594019203 8.3007746098253481 1 rotate no_reflect no_shear #
lump $-1 $-1 $53 $11 #
transform $-1 1 0 0 0 1 0 0 0 1 44.371471297341841 19.61203594019203 8.3007746098253481 1 rotate no_reflect no_shear #
lump $-1 $-1 $54 $12 #
transform $-1 1 0 0 0 1 0 0 0 1 44.371471297341841 19.61203594019203 8.3007746098253481 1 rotate no_reflect no_shear #
lump $-1 $-1 $55 $13 #
transform $-1 1 0 0 0 1 0 0 0 1 44.371471297341841 19.61203594019203 8.3007746098253481 1 rotate no_reflect no_shear #
shell $-1 $-1 $-1 $56 $-1 $14 #
shell $-1 $-1 $-1 $57 $-1 $16 #
shell $-1 $-1 $-1 $58 $-1 $18 #
shell $-1 $-1 $-1 $59 $-1 $20 #
shell $-1 $-1 $-1 $60 $-1 $22 #
shell $-1 $-1 $-1 $61 $-1 $24 #
shell $-1 $-1 $-1 $62 $-1 $26 #
shell $-1 $-1 $-1 $63 $-1 $28 #
shell $-1 $-1 $-1 $64 $-1 $30 #
shell $-1 $-1 $-1 $65 $-1 $32 #
shell $-1 $-1 $-1 $66 $-1 $34 #
shell $-1 $-1 $-1 $67 $-1 $36 #
shell $-1 $-1 $-1 $68 $-1 $38 #
shell $-1 $-1 $-1 $69 $-1 $40 #
face $-1 $70 $71 $42 $-1 $72 forward single #
face $-1 $73 $74 $43 $-1 $75 forward single #
face $-1 $76 $77 $44 $-1 $78 reversed single #
face $-1 $79 $80 $45 $-1 $81 forward single #
face $-1 $82 $83 $46 $-1 $84 forward single #
face $-1 $85 $86 $47 $-1 $87 reversed single #
face $-1 $88 $89 $48 $-1 $90 forward single #
face $-1 $91 $92 $49 $-1 $93 forward single #
face $-1 $94 $95 $50 $-1 $96 reversed single #
face $-1 $97 $98 $51 $-1 $99 forward single #
face $-1 $100 $101 $52 $-1 $102 forward single #
face $-1 $103 $104 $53 $-1 $105 reversed single #
face $-1 $106 $107 $54 $-1 $108 forward single #
face $-1 $109 $110 $55 $-1 $111 forward single #
face $-1 $112 $113 $42 $-1 $114 reversed single #
loop $-1 $-1 $115 $56 #
plane-surface $-1 0 0 8.3007746098253481 0 0 1 1 0 0 forward_v I I I I #
face $-1 $116 $117 $43 $-1 $118 reversed single #
loop $-1 $-1 $119 $57 #
plane-surface $-1 0 -15.592476969868979 3.4935129895130004 0 0 1 1 0 0 forward_v I I I I #
face $-1 $120 $121 $44 $-1 $122 reversed single #
loop $-1 $-1 $123 $58 #
plane-surface $-1 -117.94270572394352 1.0803132939015399 52.789486766015699 0 1 0 -0.82903758062907751 0 0.55919289150049634 forward_v I I I I #
face $-1 $124 $125 $45 $-1 $126 forward single #
loop $-1 $127 $128 $59 #
cone-surface $-1 -41.29897194308797 3.4916513805487774 4.8287682562501297 0.82903758062907751 0 -0.55919289150049634 0.55919289150049634 0 0.82903758062907751 1 I I 0 1 1 forward I I I I #
face $-1 $129 $130 $46 $-1 $131 forward single #
loop $-1 $132 $133 $60 #
cone-surface $-1 -41.29897194308797 7.108658510519632 4.8287682562501297 0.82903758062907751 0 -0.55919289150049634 0.55919289150049634 0 0.82903758062907751 1 I I 0 1 1 forward I I I I #
face $-1 $134 $135 $47 $-1 $136 reversed single #
loop $-1 $-1 $137 $61 #
plane-surface $-1 33.433298493063376 -3.1914311795456598 128.21630562079898 0 -1 0 -0.64278761758704617 0 -0.76604443648966558 forward_v I I I I #
face $-1 $138 $139 $48 $-1 $140 forward single #
loop $-1 $141 $142 $62 #
cone-surface $-1 40.685224175858608 -7.7493153024736099 4.9811407812095663 -0.64278761758704617 0 -0.76604443648966558 0.38302221824483279 0 -0.32139380879352308 1 I I 0 1 0.5 forward I I I I #
face $-1 $143 $144 $49 $-1 $145 forward single #
loop $-1 $146 $147 $63 #
cone-surface $-1 40.685224175858608 -5.0145848287168384 4.9811407812095663 -0.64278761758704617 0 -0.76604443648966558 0.38302221824483279 0 -0.32139380879352308 1 I I 0 1 0.5 forward I I I I #
face $-1 $148 $149 $50 $-1 $150 reversed single #
loop $-1 $-1 $151 $64 #
plane-surface $-1 33.433298493063376 7.2035534670336592 128.21630562079898 0 -1 0 -0.64278761758704617 0 -0.76604443648966558 forward_v I I I I #
face $-1 $152 $153 $51 $-1 $154 forward single #
loop $-1 $155 $156 $65 #
cone-surface $-1 40.685224175858608 2.6456693441057091 4.9811407812095663 -0.64278761758704617 0 -0.76604443648966558 0.38302221824483279 0 -0.32139380879352308 1 I I 0 1 0.5 forward I I I I #
face $-1 $157 $158 $52 $-1 $159 forward single #
loop $-1 $160 $161 $66 #
cone-surface $-1 40.685224175858608 5.3803998178624823 4.9811407812095663 -0.64278761758704617 0 -0.76604443648966558 0.38302221824483279 0 -0.32139380879352308 1 I I 0 1 0.5 forward I I I I #
face $-1 $162 $163 $53 $-1 $164 reversed single #
loop $-1 $-1 $165 $67 #
plane-surface $-1 33.433298493063376 17.598538113612982 128.21630562079898 0 -1 0 -0.64278761758704617 0 -0.76604443648966558 forward_v I I I I #
face $-1 $166 $167 $54 $-1 $168 forward single #
loop $-1 $169 $170 $68 #
cone-surface $-1 40.685224175858608 13.04065399068503 4.9811407812095663 -0.64278761758704617 0 -0.76604443648966558 0.38302221824483279 0 -0.32139380879352308 1 I I 0 1 0.5 forward I I I I #
face $-1 $171 $172 $55 $-1 $173 forward single #
loop $-1 $174 $175 $69 #
cone-surface $-1 40.685224175858608 15.7753844644418 4.9811407812095663 -0.64278761758704617 0 -0.76604443648966558 0.38302221824483279 0 -0.32139380879352308 1 I I 0 1 0.5 forward I I I I #
face $-1 $176 $177 $42 $-1 $178 reversed single #
loop $-1 $-1 $179 $70 #
plane-surface $-1 0 0 -8.3007746098253481 0 0 1 1 0 0 forward_v I I I I #
coedge $-1 $180 $181 $182 $183 forward $71 $-1 #
face $-1 $184 $185 $43 $-1 $186 reversed single #
loop $-1 $-1 $187 $73 #
plane-surface $-1 0 -15.592476969868979 0.49351298951300038 0 0 1 1 0 0 forward_v I I I I #
coedge $-1 $188 $189 $190 $191 reversed $74 $-1 #
face $-1 $192 $193 $44 $-1 $194 reversed single #
loop $-1 $-1 $195 $76 #
plane-surface $-1 -44.371471297341841 5.3001549455342065 3.1650640962319727 -0.82903758062907751 0 0.55919289150049634 0.55919289150049634 0 0.82903758062907751 forward_v I I I I #
coedge $-1 $196 $197 $198 $199 reversed $77 $-1 #
face $-1 $-1 $200 $45 $-1 $201 forward single #
loop $-1 $202 $203 $79 #
cone-surface $-1 -39.543993985302535 3.4916513805487774 3.6450207137213528 0.82903758062907751 0 -0.55919289150049634 0.27959644575024817 0 0.41451879031453875 1 I I -0.70710678118654746 0.70710678118654746 0.5 forward I I I I #
loop $-1 $-1 $204 $59 #
coedge $-1 $128 $128 $205 $206 reversed $80 $-1 #
face $-1 $-1 $207 $46 $-1 $208 forward single #
loop $-1 $209 $210 $82 #
cone-surface $-1 -39.543993985302535 7.108658510519632 3.6450207137213528 0.82903758062907751 0 -0.55919289150049634 0.27959644575024817 0 0.41451879031453875 1 I I -0.70710678118654746 0.70710678118654746 0.5 forward I I I I #
loop $-1 $-1 $211 $60 #
coedge $-1 $133 $133 $212 $213 reversed $83 $-1 #
face $-1 $214 $215 $47 $-1 $216 reversed single #
loop $-1 $-1 $217 $85 #
plane-surface $-1 -23.609566155037349 -6.381950065595225 60.235268168419779 0.64278761758704617 0 0.76604443648966558 0.76604443648966558 0 -0.64278761758704617 forward_v I I I I #
coedge $-1 $218 $219 $220 $221 reversed $86 $-1 #
face $-1 $-1 $222 $48 $-1 $223 forward single #
loop $-1 $224 $225 $88 #
cone-surface $-1 39.882239885334755 -7.7493153024736099 4.0241813882245321 -0.64278761758704617 0 -0.76604443648966558 0.1915111091224164 0 -0.16069690439676154 1 I I -0.70710678118654746 0.70710678118654746 0.25 forward I I I I #
loop $-1 $-1 $226 $62 #
coedge $-1 $142 $142 $227 $228 reversed $89 $-1 #
face $-1 $-1 $229 $49 $-1 $230 forward single #
loop $-1 $231 $232 $91 #
cone-surface $-1 39.882239885334755 -5.0145848287168384 4.0241813882245321 -0.64278761758704617 0 -0.76604443648966558 0.1915111091224164 0 -0.16069690439676154 1 I I -0.70710678118654746 0.70710678118654746 0.25 forward I I I I #
loop $-1 $-1 $233 $63 #
coedge $-1 $147 $147 $234 $235 reversed $92 $-1 #
face $-1 $236 $237 $50 $-1 $238 reversed single #
loop $-1 $-1 $239 $94 #
plane-surface $-1 -23.609566155037349 4.0130345809840939 60.235268168419779 0.64278761758704617 0 0.76604443648966558 0.76604443648966558 0 -0.64278761758704617 forward_v I I I I #
coedge $-1 $240 $241 $242 $243 reversed $95 $-1 #
face $-1 $-1 $244 $51 $-1 $245 forward single #
loop $-1 $246 $247 $97 #
cone-surface $-1 39.882239885334755 2.6456693441057091 4.0241813882245321 -0.64278761758704617 0 -0.76604443648966558 0.1915111091224164 0 -0.16069690439676154 1 I I -0.70710678118654746 0.70710678118654746 0.25 forward I I I I #
loop $-1 $-1 $248 $65 #
coedge $-1 $156 $156 $249 $250 reversed $98 $-1 #
face $-1 $-1 $251 $52 $-1 $252 forward single #
loop $-1 $253 $254 $100 #
cone-surface $-1 39.882239885334755 5.3803998178624823 4.0241813882245321 -0.64278761758704617 0 -0.76604443648966558 0.1915111091224164 0 -0.16069690439676154 1 I I -0.70710678118654746 0.70710678118654746 0.25 forward I I I I #
loop $-1 $-1 $255 $66 #
coedge $-1 $161 $161 $256 $257 reversed $101 $-1 #
face $-1 $258 $259 $53 $-1 $260 reversed single #
loop $-1 $-1 $261 $103 #
plane-surface $-1 -23.609566155037349 14.408019227563415 60.235268168419779 0.64278761758704617 0 0.76604443648966558 0.76604443648966558 0 -0.64278761758704617 forward_v I I I I #
coedge $-1 $262 $263 $264 $265 reversed $104 $-1 #
face $-1 $-1 $266 $54 $-1 $267 forward single #
loop $-1 $268 $269 $106 #
cone-surface $-1 39.882239885334755 13.04065399068503 4.0241813882245321 -0.64278761758704617 0 -0.76604443648966558 0.1915111091224164 0 -0.16069690439676154 1 I I -0.70710678118654746 0.70710678118654746 0.25 forward I I I I #
loop $-1 $-1 $270 $68 #
coedge $-1 $170 $170 $271 $272 reversed $107 $-1 #
face $-1 $-1 $273 $55 $-1 $274 forward single #
loop $-1 $275 $276 $109 #
cone-surface $-1 39.882239885334755 15.7753844644418 4.0241813882245321 -0.64278761758704617 0 -0.76604443648966558 0.1915111091224164 0 -0.16069690439676154 1 I I -0.70710678118654746 0.70710678118654746 0.25 forward I I I I #
loop $-1 $-1 $277 $69 #
coedge $-1 $175 $175 $278 $279 reversed $110 $-1 #
face $-1 $280 $281 $42 $-1 $282 reversed single #
loop $-1 $-1 $283 $112 #
plane-surface $-1 0 -19.61203594019203 0 0 1 0 0 0 1 forward_v I I I I #
coedge $-1 $284 $285 $286 $287 forward $113 $-1 #
coedge $-1 $288 $115 $289 $290 forward $71 $-1 #
coedge $-1 $115 $288 $291 $292 forward $71 $-1 #
coedge $-1 $293 $294 $115 $183 reversed $295 $-1 #
edge $-1 $296 -19.61203594019203 $297 19.61203594019203 $182 $298 forward 7 unknown #
face $-1 $299 $300 $43 $-1 $301 reversed single #
loop $-1 $-1 $302 $116 #
plane-surface $-1 0 -11.572917999545929 1.9935129895130004 0 -1 0 0 0 -1 forward_v I I I I #
coedge $-1 $303 $304 $305 $306 reversed $117 $-1 #
coedge $-1 $307 $119 $308 $309 forward $74 $-1 #
coedge $-1 $119 $307 $310 $311 reversed $74 $-1 #
coedge $-1 $312 $313 $119 $191 forward $314 $-1 #
edge $-1 $315 3.7766795146114394 $316 11.81579745525754 $190 $317 forward 7 unknown #
face $-1 $318 $319 $44 $-1 $320 reversed single #
loop $-1 $-1 $321 $120 #
plane-surface $-1 -117.94270572394352 9.5199965971668732 52.789486766015699 0 -1 0 0.82903758062907751 0 -0.55919289150049634 forward_v I I I I #
coedge $-1 $322 $323 $324 $325 reversed $121 $-1 #
coedge $-1 $197 $123 $326 $327 reversed $77 $-1 #
coedge $-1 $123 $196 $322 $328 reversed $77 $-1 #
coedge $-1 $324 $329 $123 $199 forward $330 $-1 #
edge $-1 $331 14.599881564629918 $332 18.06396193819586 $198 $333 forward 7 unknown #
loop $-1 $-1 $205 $124 #
plane-surface $-1 -44.371471297341841 5.3001549455342065 3.1650640962319727 -0.82903758062907751 0 0.55919289150049634 0.55919289150049634 0 0.82903758062907751 forward_v I I I I #
loop $-1 $-1 $334 $79 #
coedge $-1 $203 $203 $204 $335 reversed $125 $-1 #
coedge $-1 $204 $204 $203 $335 forward $127 $-1 #
coedge $-1 $205 $205 $128 $206 forward $200 $-1 #
edge $-1 $336 0 $336 6.2831853071796004 $205 $337 forward 7 unknown #
loop $-1 $-1 $212 $129 #
plane-surface $-1 -44.371471297341841 5.3001549455342065 3.1650640962319727 -0.82903758062907751 0 0.55919289150049634 0.55919289150049634 0 0.82903758062907751 forward_v I I I I #
loop $-1 $-1 $338 $82 #
coedge $-1 $210 $210 $211 $339 reversed $130 $-1 #
coedge $-1 $211 $211 $210 $339 forward $132 $-1 #
coedge $-1 $212 $212 $133 $213 forward $207 $-1 #
edge $-1 $340 0 $340 6.2831853071796004 $212 $341 forward 7 unknown #
face $-1 $342 $343 $47 $-1 $344 forward single #
loop $-1 $-1 $345 $134 #
plane-surface $-1 33.433298493063376 -9.5724689516447903 128.21630562079898 0 1 0 0.64278761758704617 0 0.76604443648966558 forward_v I I I I #
coedge $-1 $346 $347 $348 $349 reversed $135 $-1 #
coedge $-1 $219 $137 $350 $351 reversed $86 $-1 #
coedge $-1 $137 $218 $346 $352 reversed $86 $-1 #
coedge $-1 $348 $353 $137 $221 forward $343 $-1 #
edge $-1 $354 -27.654822050810154 $355 -21.566902580097874 $220 $356 forward 7 unknown #
loop $-1 $-1 $227 $138 #
plane-surface $-1 -23.609566155037349 -6.381950065595225 60.235268168419779 0.64278761758704617 0 0.76604443648966558 0.76604443648966558 0 -0.64278761758704617 forward_v I I I I #
loop $-1 $-1 $357 $88 #
coedge $-1 $225 $225 $226 $358 reversed $139 $-1 #
coedge $-1 $226 $226 $225 $358 forward $141 $-1 #
coedge $-1 $227 $227 $142 $228 forward $222 $-1 #
edge $-1 $359 0 $359 6.2831853071796004 $227 $360 forward 7 unknown #
loop $-1 $-1 $234 $143 #
plane-surface $-1 -23.609566155037349 -6.381950065595225 60.235268168419779 0.64278761758704617 0 0.76604443648966558 0.76604443648966558 0 -0.64278761758704617 forward_v I I I I #
loop $-1 $-1 $361 $91 #
coedge $-1 $232 $232 $233 $362 reversed $144 $-1 #
coedge $-1 $233 $233 $232 $362 forward $146 $-1 #
coedge $-1 $234 $234 $147 $235 forward $229 $-1 #
edge $-1 $363 0 $363 6.2831853071796004 $234 $364 forward 7 unknown #
face $-1 $365 $366 $50 $-1 $367 reversed single #
loop $-1 $-1 $368 $148 #
plane-surface $-1 33.433298493063376 0.8225156949345287 128.21630562079898 0 1 0 0.64278761758704617 0 0.76604443648966558 forward_v I I I I #
coedge $-1 $369 $370 $371 $372 reversed $149 $-1 #
coedge $-1 $241 $151 $373 $374 reversed $95 $-1 #
coedge $-1 $151 $240 $369 $375 reversed $95 $-1 #
coedge $-1 $371 $376 $151 $243 forward $377 $-1 #
edge $-1 $378 -27.654822050810154 $379 -21.566902580097874 $242 $380 forward 7 unknown #
loop $-1 $-1 $249 $152 #
plane-surface $-1 -23.609566155037349 4.0130345809840939 60.235268168419779 0.64278761758704617 0 0.76604443648966558 0.76604443648966558 0 -0.64278761758704617 forward_v I I I I #
loop $-1 $-1 $381 $97 #
coedge $-1 $247 $247 $248 $382 reversed $153 $-1 #
coedge $-1 $248 $248 $247 $382 forward $155 $-1 #
coedge $-1 $249 $249 $156 $250 forward $244 $-1 #
edge $-1 $383 0 $383 6.2831853071796004 $249 $384 forward 7 unknown #
loop $-1 $-1 $256 $157 #
plane-surface $-1 -23.609566155037349 4.0130345809840939 60.235268168419779 0.64278761758704617 0 0.76604443648966558 0.76604443648966558 0 -0.64278761758704617 forward_v I I I I #
loop $-1 $-1 $385 $100 #
coedge $-1 $254 $254 $255 $386 reversed $158 $-1 #
coedge $-1 $255 $255 $254 $386 forward $160 $-1 #
coedge $-1 $256 $256 $161 $257 forward $251 $-1 #
edge $-1 $387 0 $387 6.2831853071796004 $256 $388 forward 7 unknown #
face $-1 $389 $390 $53 $-1 $391 reversed single #
loop $-1 $-1 $392 $162 #
plane-surface $-1 33.433298493063376 11.217500341513849 128.21630562079898 0 1 0 0.64278761758704617 0 0.76604443648966558 forward_v I I I I #
coedge $-1 $393 $394 $395 $396 reversed $163 $-1 #
coedge $-1 $263 $165 $397 $398 reversed $104 $-1 #
coedge $-1 $165 $262 $393 $399 reversed $104 $-1 #
coedge $-1 $395 $400 $165 $265 forward $401 $-1 #
edge $-1 $402 -27.654822050810154 $403 -21.566902580097874 $264 $404 forward 7 unknown #
loop $-1 $-1 $271 $166 #
plane-surface $-1 -23.609566155037349 14.408019227563415 60.235268168419779 0.64278761758704617 0 0.76604443648966558 0.76604443648966558 0 -0.64278761758704617 forward_v I I I I #
loop $-1 $-1 $405 $106 #
coedge $-1 $269 $269 $270 $406 reversed $167 $-1 #
coedge $-1 $270 $270 $269 $406 forward $169 $-1 #
coedge $-1 $271 $271 $170 $272 forward $266 $-1 #
edge $-1 $407 0 $407 6.2831853071796004 $271 $408 forward 7 unknown #
loop $-1 $-1 $278 $171 #
plane-surface $-1 -23.609566155037349 14.408019227563415 60.235268168419779 0.64278761758704617 0 0.76604443648966558 0.76604443648966558 0 -0.64278761758704617 forward_v I I I I #
loop $-1 $-1 $409 $109 #
coedge $-1 $276 $276 $277 $410 reversed $172 $-1 #
coedge $-1 $277 $277 $276 $410 forward $174 $-1 #
coedge $-1 $278 $278 $175 $279 forward $273 $-1 #
edge $-1 $411 0 $411 6.2831853071796004 $278 $412 forward 7 unknown #
face $-1 $413 $414 $42 $-1 $415 reversed single #
loop $-1 $-1 $416 $176 #
plane-surface $-1 -44.371471297341841 0 0 1 0 0 0 0 -1 forward_v I I I I #
coedge $-1 $417 $291 $418 $419 forward $177 $-1 #
coedge $-1 $420 $179 $417 $421 forward $113 $-1 #
coedge $-1 $179 $420 $422 $423 forward $113 $-1 #
coedge $-1 $294 $293 $179 $287 reversed $295 $-1 #
edge $-1 $424 -19.61203594019203 $425 19.61203594019203 $286 $426 forward 7 unknown #
coedge $-1 $181 $180 $427 $428 forward $71 $-1 #
coedge $-1 $429 $430 $180 $290 reversed $414 $-1 #
edge $-1 $297 -44.371471297341841 $431 44.371471297341841 $289 $432 forward 7 unknown #
coedge $-1 $283 $433 $181 $292 reversed $177 $-1 #
edge $-1 $434 -44.371471297341841 $296 44.371471297341841 $291 $435 forward 7 unknown #
coedge $-1 $286 $182 $433 $436 forward $295 $-1 #
coedge $-1 $182 $286 $429 $437 reversed $295 $-1 #
loop $-1 $-1 $293 $413 #
vertex $-1 $183 $438 #
vertex $-1 $183 $439 #
straight-curve $-1 44.371471297341841 0 8.3007746098253481 0 1 0 I I #
face $-1 $440 $441 $43 $-1 $442 reversed single #
loop $-1 $-1 $443 $184 #
plane-surface $-1 -44.371471297341841 0 0 1 0 0 0 0 -1 forward_v I I I I #
coedge $-1 $444 $308 $313 $445 reversed $185 $-1 #
coedge $-1 $446 $187 $447 $448 reversed $117 $-1 #
coedge $-1 $187 $446 $444 $449 forward $117 $-1 #
coedge $-1 $313 $312 $187 $306 forward $314 $-1 #
edge $-1 $450 -11.81579745525754 $451 -3.7766795146114394 $305 $452 forward 7 unknown #
coedge $-1 $189 $188 $443 $453 reversed $74 $-1 #
coedge $-1 $302 $454 $188 $309 reversed $185 $-1 #
edge $-1 $315 -44.371471297341841 $455 44.371471297341841 $308 $456 forward 7 unknown #
coedge $-1 $457 $458 $189 $311 forward $441 $-1 #
edge $-1 $316 -44.371471297341841 $459 44.371471297341841 $310 $460 forward 7 unknown #
coedge $-1 $305 $190 $458 $461 forward $314 $-1 #
coedge $-1 $190 $305 $302 $445 forward $314 $-1 #
loop $-1 $-1 $190 $440 #
vertex $-1 $191 $462 #
vertex $-1 $461 $463 #
straight-curve $-1 44.371471297341841 -7.7962384849344897 3.4935129895130004 0 -1 0 I I #
face $-1 $-1 $330 $44 $-1 $464 forward single #
loop $-1 $-1 $465 $192 #
plane-surface $-1 -44.371471297341841 0 0 1 0 0 0 0 -1 forward_v I I I I #
coedge $-1 $466 $467 $468 $469 reversed $193 $-1 #
coedge $-1 $470 $195 $197 $328 forward $121 $-1 #
coedge $-1 $195 $470 $466 $471 forward $121 $-1 #
coedge $-1 $468 $198 $195 $325 forward $330 $-1 #
edge $-1 $332 -1.5697641788655634 $472 6.8699191243997699 $324 $473 forward 7 unknown #
coedge $-1 $474 $475 $196 $327 forward $319 $-1 #
edge $-1 $476 -23.229679286775877 $331 -18.093968773182503 $326 $477 forward 7 unknown #
edge $-1 $332 -6.1947861394852275 $476 0 $197 $478 forward 7 unknown #
coedge $-1 $198 $468 $474 $479 forward $330 $-1 #
loop $-1 $-1 $468 $318 #
vertex $-1 $327 $480 #
vertex $-1 $199 $481 #
straight-curve $-1 -58.971352861971759 1.0803132939015399 8.3007746098253499 1 0 0 I I #
coedge $-1 $334 $334 $-1 $482 reversed $202 $-1 #
edge $-1 $483 0 $483 6.2831853071796004 $203 $484 forward 7 unknown #
vertex $-1 $206 $485 #
ellipse-curve $-1 -42.639431110558874 3.4916513805487774 5.7329193530286613 -0.82903758062907751 0 0.55919289150049634 0.55919289150049634 0 0.82903758062907751 1 I I #
coedge $-1 $338 $338 $-1 $486 reversed $209 $-1 #
edge $-1 $487 0 $487 6.2831853071796004 $210 $488 forward 7 unknown #
vertex $-1 $213 $489 #
ellipse-curve $-1 -42.639431110558874 7.108658510519632 5.7329193530286613 -0.82903758062907751 0 0.55919289150049634 0.55919289150049634 0 0.82903758062907751 1 I I #
face $-1 $-1 $490 $47 $-1 $491 reversed single #
loop $-1 $-1 $220 $214 #
plane-surface $-1 0 0 8.3007746098253481 0 0 1 1 0 0 forward_v I I I I #
coedge $-1 $492 $493 $494 $495 reversed $215 $-1 #
coedge $-1 $496 $217 $219 $352 forward $135 $-1 #
coedge $-1 $217 $496 $492 $497 forward $135 $-1 #
coedge $-1 $494 $220 $217 $349 forward $343 $-1 #
edge $-1 $355 0.00045614674804728139 $498 6.3814939188471778 $348 $499 forward 7 unknown #
coedge $-1 $500 $501 $218 $351 forward $490 $-1 #
edge $-1 $502 -60.91574929008042 $354 -55.807378200574142 $350 $503 forward 7 unknown #
edge $-1 $355 80.79572807197313 $502 88.742942594683655 $219 $504 forward 7 unknown #
coedge $-1 $220 $494 $500 $505 forward $343 $-1 #
vertex $-1 $351 $506 #
vertex $-1 $221 $507 #
straight-curve $-1 16.716649246531688 -3.1914311795456598 8.3007746098253463 -1 0 0 I I #
coedge $-1 $357 $357 $-1 $508 reversed $224 $-1 #
edge $-1 $509 0 $509 6.2831853071796004 $225 $510 forward 7 unknown #
vertex $-1 $228 $511 #
ellipse-curve $-1 41.327511561985709 -7.7493153024736099 5.7465890650722002 0.64278761758704617 0 0.76604443648966558 0.38302221824483279 0 -0.32139380879352308 1 I I #
coedge $-1 $361 $361 $-1 $512 reversed $231 $-1 #
edge $-1 $513 0 $513 6.2831853071796004 $232 $514 forward 7 unknown #
vertex $-1 $235 $515 #
ellipse-curve $-1 41.327511561985709 -5.0145848287168384 5.7465890650722002 0.64278761758704617 0 0.76604443648966558 0.38302221824483279 0 -0.32139380879352308 1 I I #
face $-1 $-1 $377 $50 $-1 $516 forward single #
loop $-1 $-1 $517 $236 #
plane-surface $-1 44.371471297341841 0 0 -1 0 0 0 0 1 forward_v I I I I #
coedge $-1 $518 $519 $520 $521 reversed $237 $-1 #
coedge $-1 $522 $239 $241 $375 forward $149 $-1 #
coedge $-1 $239 $522 $518 $523 forward $149 $-1 #
coedge $-1 $520 $242 $239 $372 forward $377 $-1 #
edge $-1 $379 -5.1970361765416122 $524 1.1840015955575183 $371 $525 forward 7 unknown #
coedge $-1 $526 $527 $240 $374 forward $366 $-1 #
edge $-1 $528 -60.91574929008042 $378 -55.807378200574142 $373 $529 forward 7 unknown #
edge $-1 $379 80.79572807197313 $528 88.742942594683655 $241 $530 forward 7 unknown #
coedge $-1 $242 $520 $526 $531 forward $377 $-1 #
loop $-1 $-1 $520 $365 #
vertex $-1 $374 $532 #
vertex $-1 $243 $533 #
straight-curve $-1 16.716649246531688 7.2035534670336592 8.3007746098253463 -1 0 0 I I #
coedge $-1 $381 $381 $-1 $534 reversed $246 $-1 #
edge $-1 $535 0 $535 6.2831853071796004 $247 $536 forward 7 unknown #
vertex $-1 $250 $537 #
ellipse-curve $-1 41.327511561985709 2.6456693441057091 5.7465890650722002 0.64278761758704617 0 0.76604443648966558 0.38302221824483279 0 -0.32139380879352308 1 I I #
coedge $-1 $385 $385 $-1 $538 reversed $253 $-1 #
edge $-1 $539 0 $539 6.2831853071796004 $254 $540 forward 7 unknown #
vertex $-1 $257 $541 #
ellipse-curve $-1 41.327511561985709 5.3803998178624823 5.7465890650722002 0.64278761758704617 0 0.76604443648966558 0.38302221824483279 0 -0.32139380879352308 1 I I #
face $-1 $-1 $401 $53 $-1 $542 forward single #
loop $-1 $-1 $543 $258 #
plane-surface $-1 44.371471297341841 0 0 -1 0 0 0 0 1 forward_v I I I I #
coedge $-1 $544 $545 $546 $547 reversed $259 $-1 #
coedge $-1 $548 $261 $263 $399 forward $163 $-1 #
coedge $-1 $261 $548 $544 $549 forward $163 $-1 #
coedge $-1 $546 $264 $261 $396 forward $401 $-1 #
edge $-1 $403 -10.394528499831274 $550 -4.0134907277321421 $395 $551 forward 7 unknown #
coedge $-1 $552 $553 $262 $398 forward $390 $-1 #
edge $-1 $554 -60.91574929008042 $402 -55.807378200574142 $397 $555 forward 7 unknown #
edge $-1 $403 80.79572807197313 $554 88.742942594683655 $263 $556 forward 7 unknown #
coedge $-1 $264 $546 $552 $557 forward $401 $-1 #
loop $-1 $-1 $546 $389 #
vertex $-1 $398 $558 #
vertex $-1 $265 $559 #
straight-curve $-1 16.716649246531688 17.598538113612982 8.3007746098253463 -1 0 0 I I #
coedge $-1 $405 $405 $-1 $560 reversed $268 $-1 #
edge $-1 $561 0 $561 6.2831853071796004 $269 $562 forward 7 unknown #
vertex $-1 $272 $563 #
ellipse-curve $-1 41.327511561985709 13.04065399068503 5.7465890650722002 0.64278761758704617 0 0.76604443648966558 0.38302221824483279 0 -0.32139380879352308 1 I I #
coedge $-1 $409 $409 $-1 $564 reversed $275 $-1 #
edge $-1 $565 0 $565 6.2831853071796004 $276 $566 forward 7 unknown #
vertex $-1 $279 $567 #
ellipse-curve $-1 41.327511561985709 15.7753844644418 5.7465890650722002 0.64278761758704617 0 0.76604443648966558 0.38302221824483279 0 -0.32139380879352308 1 I I #
face $-1 $-1 $295 $42 $-1 $568 reversed single #
loop $-1 $-1 $429 $280 #
plane-surface $-1 0 19.61203594019203 0 0 -1 0 0 0 -1 forward_v I I I I #
coedge $-1 $569 $427 $430 $570 forward $281 $-1 #
coedge $-1 $433 $283 $284 $421 reversed $177 $-1 #
coedge $-1 $427 $569 $283 $419 reversed $281 $-1 #
edge $-1 $434 -8.3007746098253481 $571 8.3007746098253481 $418 $572 forward 7 unknown #
coedge $-1 $285 $284 $569 $573 forward $113 $-1 #
edge $-1 $425 -44.371471297341841 $571 44.371471297341841 $417 $574 forward 7 unknown #
coedge $-1 $430 $429 $285 $423 reversed $414 $-1 #
edge $-1 $575 -44.371471297341841 $424 44.371471297341841 $422 $576 forward 7 unknown #
vertex $-1 $287 $577 #
vertex $-1 $436 $578 #
straight-curve $-1 44.371471297341841 0 -8.3007746098253481 0 -1 0 I I #
coedge $-1 $416 $418 $288 $428 reversed $281 $-1 #
edge $-1 $431 -19.61203594019203 $434 19.61203594019203 $427 $579 forward 7 unknown #
coedge $-1 $422 $289 $294 $437 forward $414 $-1 #
coedge $-1 $289 $422 $416 $570 reversed $414 $-1 #
vertex $-1 $290 $580 #
straight-curve $-1 0 19.61203594019203 8.3007746098253481 -1 0 0 I I #
coedge $-1 $291 $417 $293 $436 reversed $177 $-1 #
vertex $-1 $428 $581 #
straight-curve $-1 0 -19.61203594019203 8.3007746098253481 1 0 0 I I #
edge $-1 $296 -8.3007746098253481 $425 8.3007746098253481 $293 $582 forward 7 unknown #
edge $-1 $297 -8.3007746098253481 $424 8.3007746098253481 $294 $583 forward 7 unknown #
point $-1 44.371471297341841 -19.61203594019203 8.3007746098253481 #
point $-1 44.371471297341841 19.61203594019203 8.3007746098253481 #
face $-1 $-1 $314 $43 $-1 $584 reversed single #
loop $-1 $-1 $310 $299 #
plane-surface $-1 0 -19.61203594019203 0 0 1 0 0 0 1 forward_v I I I I #
coedge $-1 $585 $586 $307 $453 forward $300 $-1 #
coedge $-1 $454 $302 $304 $449 reversed $185 $-1 #
edge $-1 $451 -0.50324350524349981 $315 2.4967564947565002 $313 $587 forward 7 unknown #
coedge $-1 $304 $303 $588 $589 reversed $117 $-1 #
coedge $-1 $458 $457 $303 $448 forward $441 $-1 #
edge $-1 $590 -44.371471297341841 $450 44.371471297341841 $447 $591 forward 7 unknown #
edge $-1 $592 -44.371471297341841 $451 44.371471297341841 $444 $593 forward 7 unknown #
vertex $-1 $448 $594 #
vertex $-1 $306 $595 #
straight-curve $-1 44.371471297341841 -7.7962384849344897 0.49351298951300038 0 1 0 I I #
edge $-1 $459 -11.81579745525754 $455 -3.7766795146114394 $443 $596 forward 7 unknown #
coedge $-1 $308 $444 $585 $597 reversed $185 $-1 #
vertex $-1 $453 $598 #
straight-curve $-1 0 -11.572917999545929 3.4935129895130004 -1 0 0 I I #
coedge $-1 $447 $310 $586 $599 forward $441 $-1 #
coedge $-1 $310 $447 $312 $461 reversed $441 $-1 #
vertex $-1 $599 $600 #
straight-curve $-1 0 -19.61203594019203 3.4935129895130004 -1 0 0 I I #
edge $-1 $316 -3.4935129895130004 $450 -0.49351298951300038 $312 $601 forward 7 unknown #
point $-1 44.371471297341841 -11.572917999545929 3.4935129895130004 #
point $-1 44.371471297341841 -19.61203594019203 3.4935129895130004 #
plane-surface $-1 0 0 8.3007746098253481 0 0 1 1 0 0 forward_v I I I I #
coedge $-1 $475 $474 $467 $602 forward $319 $-1 #
coedge $-1 $467 $321 $323 $471 reversed $193 $-1 #
coedge $-1 $321 $466 $465 $602 reversed $193 $-1 #
coedge $-1 $329 $324 $321 $469 forward $330 $-1 #
edge $-1 $472 -18.06396193819586 $603 -14.599881564629918 $468 $604 forward 7 unknown #
coedge $-1 $323 $322 $475 $605 reversed $121 $-1 #
edge $-1 $606 0 $472 6.1947861394852275 $466 $607 forward 7 unknown #
vertex $-1 $325 $608 #
straight-curve $-1 -40.907390923775907 2.6500774727671033 8.3007746098253481 0 1 0 I I #
coedge $-1 $465 $326 $329 $479 reversed $319 $-1 #
coedge $-1 $326 $465 $470 $605 forward $319 $-1 #
vertex $-1 $327 $609 #
straight-curve $-1 -44.371471297341841 1.0803132939015399 26.39474338300785 0 0 1 I I #
straight-curve $-1 -44.371471297341841 1.0803132939015399 3.1650640962319727 -0.55919289150049634 0 -0.82903758062907751 I I #
edge $-1 $603 -9.5199965971668732 $331 -1.0803132939015399 $474 $610 forward 7 unknown #
point $-1 -44.371471297341841 1.0803132939015399 8.3007746098253481 #
point $-1 -40.9073909237759 1.0803132939015399 8.3007746098253481 #
edge $-1 $611 1 $611 0 $334 $-1 forward 7 unknown #
vertex $-1 $335 $612 #
ellipse-curve $-1 -39.958512775617073 3.4916513805487774 3.9246171594716008 -0.82903758062907751 0 0.55919289150049634 0.55919289150049634 0 0.82903758062907751 1 I I #
point $-1 -42.080238219058373 3.4916513805487774 6.5619569336577364 #
edge $-1 $613 1 $613 0 $338 $-1 forward 7 unknown #
vertex $-1 $339 $614 #
ellipse-curve $-1 -39.958512775617073 7.108658510519632 3.9246171594716008 -0.82903758062907751 0 0.55919289150049634 0.55919289150049634 0 0.82903758062907751 1 I I #
point $-1 -42.080238219058373 7.108658510519632 6.5619569336577364 #
loop $-1 $-1 $350 $342 #
plane-surface $-1 44.371471297341841 0 0 -1 0 0 0 0 1 forward_v I I I I #
coedge $-1 $493 $345 $347 $497 reversed $215 $-1 #
coedge $-1 $345 $492 $615 $616 reversed $215 $-1 #
coedge $-1 $353 $348 $345 $495 forward $343 $-1 #
edge $-1 $498 21.566902580097874 $617 27.654822050810154 $494 $618 forward 7 unknown #
coedge $-1 $347 $346 $501 $619 reversed $135 $-1 #
edge $-1 $620 -88.742942594683655 $498 -80.79572807197313 $492 $621 forward 7 unknown #
vertex $-1 $349 $622 #
straight-curve $-1 38.283551826629562 -3.1909750327976125 8.3007746098253534 0 -1 0 I I #
coedge $-1 $615 $350 $353 $505 reversed $490 $-1 #
coedge $-1 $350 $615 $496 $619 forward $490 $-1 #
vertex $-1 $351 $623 #
straight-curve $-1 44.371471297341841 -3.1914311795456598 64.108152810399488 0 0 1 I I #
straight-curve $-1 -23.609566155037349 -3.1914311795456598 60.235268168419779 0.76604443648966558 0 -0.64278761758704617 I I #
edge $-1 $617 -9.5724689516447903 $354 -3.1914311795456598 $500 $624 forward 7 unknown #
point $-1 44.371471297341841 -3.1914311795456598 8.3007746098253481 #
point $-1 38.283551826629562 -3.1914311795456598 8.3007746098253463 #
edge $-1 $625 1 $625 0 $357 $-1 forward 7 unknown #
vertex $-1 $358 $626 #
ellipse-curve $-1 40.042936789731513 -7.7493153024736099 4.2156924973469483 0.64278761758704617 0 0.76604443648966558 0.38302221824483279 0 -0.32139380879352308 1 I I #
point $-1 41.710533780230527 -7.7493153024736099 5.4251952562786601 #
edge $-1 $627 1 $627 0 $361 $-1 forward 7 unknown #
vertex $-1 $362 $628 #
ellipse-curve $-1 40.042936789731513 -5.0145848287168384 4.2156924973469483 0.64278761758704617 0 0.76604443648966558 0.38302221824483279 0 -0.32139380879352308 1 I I #
point $-1 41.710533780230527 -5.0145848287168384 5.4251952562786601 #
plane-surface $-1 0 0 8.3007746098253481 0 0 1 1 0 0 forward_v I I I I #
coedge $-1 $527 $526 $519 $629 forward $366 $-1 #
coedge $-1 $519 $368 $370 $523 reversed $237 $-1 #
coedge $-1 $368 $518 $517 $629 reversed $237 $-1 #
coedge $-1 $376 $371 $368 $521 forward $377 $-1 #
edge $-1 $524 21.566902580097874 $630 27.654822050810154 $520 $631 forward 7 unknown #
coedge $-1 $370 $369 $527 $632 reversed $149 $-1 #
edge $-1 $633 -88.742942594683655 $524 -80.79572807197313 $518 $634 forward 7 unknown #
vertex $-1 $372 $635 #
straight-curve $-1 38.283551826629562 2.006517290492047 8.3007746098253534 0 -1 0 I I #
coedge $-1 $517 $373 $376 $531 reversed $366 $-1 #
coedge $-1 $373 $517 $522 $632 forward $366 $-1 #
vertex $-1 $374 $636 #
straight-curve $-1 44.371471297341841 7.2035534670336592 64.108152810399488 0 0 1 I I #
straight-curve $-1 -23.609566155037349 7.2035534670336592 60.235268168419779 0.76604443648966558 0 -0.64278761758704617 I I #
edge $-1 $630 0.8225156949345287 $378 7.2035534670336592 $526 $637 forward 7 unknown #
point $-1 44.371471297341841 7.2035534670336592 8.3007746098253481 #
point $-1 38.283551826629562 7.2035534670336592 8.3007746098253463 #
edge $-1 $638 1 $638 0 $381 $-1 forward 7 unknown #
vertex $-1 $382 $639 #
ellipse-curve $-1 40.042936789731513 2.6456693441057091 4.2156924973469483 0.64278761758704617 0 0.76604443648966558 0.38302221824483279 0 -0.32139380879352308 1 I I #
point $-1 41.710533780230527 2.6456693441057091 5.4251952562786601 #
edge $-1 $640 1 $640 0 $385 $-1 forward 7 unknown #
vertex $-1 $386 $641 #
ellipse-curve $-1 40.042936789731513 5.3803998178624823 4.2156924973469483 0.64278761758704617 0 0.76604443648966558 0.38302221824483279 0 -0.32139380879352308 1 I I #
point $-1 41.710533780230527 5.3803998178624823 5.4251952562786601 #
plane-surface $-1 0 0 8.3007746098253481 0 0 1 1 0 0 forward_v I I I I #
coedge $-1 $553 $552 $545 $642 forward $390 $-1 #
coedge $-1 $545 $392 $394 $549 reversed $259 $-1 #
coedge $-1 $392 $544 $543 $642 reversed $259 $-1 #
coedge $-1 $400 $395 $392 $547 forward $401 $-1 #
edge $-1 $550 21.566902580097874 $643 27.654822050810154 $546 $644 forward 7 unknown #
coedge $-1 $394 $393 $553 $645 reversed $163 $-1 #
edge $-1 $646 -88.742942594683655 $550 -80.79572807197313 $544 $647 forward 7 unknown #
vertex $-1 $396 $648 #
straight-curve $-1 38.283551826629562 7.2040096137817073 8.3007746098253534 0 -1 0 I I #
coedge $-1 $543 $397 $400 $557 reversed $390 $-1 #
coedge $-1 $397 $543 $548 $645 forward $390 $-1 #
vertex $-1 $398 $649 #
straight-curve $-1 44.371471297341841 17.598538113612982 64.108152810399488 0 0 1 I I #
straight-curve $-1 -23.609566155037349 17.598538113612982 60.235268168419779 0.76604443648966558 0 -0.64278761758704617 I I #
edge $-1 $643 11.217500341513849 $402 17.598538113612982 $552 $650 forward 7 unknown #
point $-1 44.371471297341841 17.598538113612982 8.3007746098253481 #
point $-1 38.283551826629562 17.598538113612982 8.3007746098253463 #
edge $-1 $651 1 $651 0 $405 $-1 forward 7 unknown #
vertex $-1 $406 $652 #
ellipse-curve $-1 40.042936789731513 13.04065399068503 4.2156924973469483 0.64278761758704617 0 0.76604443648966558 0.38302221824483279 0 -0.32139380879352308 1 I I #
point $-1 41.710533780230527 13.04065399068503 5.4251952562786601 #
edge $-1 $653 1 $653 0 $409 $-1 forward 7 unknown #
vertex $-1 $410 $654 #
ellipse-curve $-1 40.042936789731513 15.7753844644418 4.2156924973469483 0.64278761758704617 0 0.76604443648966558 0.38302221824483279 0 -0.32139380879352308 1 I I #
point $-1 41.710533780230527 15.7753844644418 5.4251952562786601 #
plane-surface $-1 44.371471297341841 0 0 -1 0 0 0 0 1 forward_v I I I I #
coedge $-1 $418 $416 $420 $573 reversed $281 $-1 #
edge $-1 $431 -8.3007746098253481 $575 8.3007746098253481 $430 $655 forward 7 unknown #
vertex $-1 $573 $656 #
straight-curve $-1 -44.371471297341841 -19.61203594019203 0 0 0 -1 I I #
edge $-1 $571 -19.61203594019203 $575 19.61203594019203 $569 $657 forward 7 unknown #
straight-curve $-1 0 -19.61203594019203 -8.3007746098253481 -1 0 0 I I #
vertex $-1 $423 $658 #
straight-curve $-1 0 19.61203594019203 -8.3007746098253481 1 0 0 I I #
point $-1 44.371471297341841 19.61203594019203 -8.3007746098253481 #
point $-1 44.371471297341841 -19.61203594019203 -8.3007746098253481 #
straight-curve $-1 -44.371471297341841 0 8.3007746098253481 0 -1 0 I I #
point $-1 -44.371471297341841 19.61203594019203 8.3007746098253481 #
point $-1 -44.371471297341841 -19.61203594019203 8.3007746098253481 #
straight-curve $-1 44.371471297341841 -19.61203594019203 0 0 0 -1 I I #
straight-curve $-1 44.371471297341841 19.61203594019203 0 0 0 -1 I I #
plane-surface $-1 44.371471297341841 0 0 -1 0 0 0 0 1 forward_v I I I I #
coedge $-1 $588 $443 $454 $597 forward $300 $-1 #
coedge $-1 $443 $588 $457 $599 reversed $300 $-1 #
straight-curve $-1 44.371471297341841 -11.572917999545929 0.99675649475650019 0 0 1 I I #
coedge $-1 $586 $585 $446 $589 forward $300 $-1 #
edge $-1 $592 3.7766795146114394 $590 11.81579745525754 $588 $659 forward 7 unknown #
vertex $-1 $448 $660 #
straight-curve $-1 0 -19.61203594019203 0.49351298951300038 1 0 0 I I #
vertex $-1 $589 $661 #
straight-curve $-1 0 -11.572917999545929 0.49351298951300038 1 0 0 I I #
point $-1 44.371471297341841 -19.61203594019203 0.49351298951300038 #
point $-1 44.371471297341841 -11.572917999545929 0.49351298951300038 #
straight-curve $-1 -44.371471297341841 -7.7962384849344897 3.4935129895130004 0 1 0 I I #
edge $-1 $455 -2.4967564947565002 $592 0.50324350524349981 $585 $662 forward 7 unknown #
point $-1 -44.371471297341841 -11.572917999545929 3.4935129895130004 #
edge $-1 $459 -3.4935129895130004 $590 -0.49351298951300038 $586 $663 forward 7 unknown #
point $-1 -44.371471297341841 -19.61203594019203 3.4935129895130004 #
straight-curve $-1 44.371471297341841 -19.61203594019203 0 0 0 -1 I I #
edge $-1 $603 18.093968773182503 $606 23.229679286775877 $465 $664 forward 7 unknown #
vertex $-1 $479 $665 #
straight-curve $-1 -58.971352861971759 9.5199965971668732 8.3007746098253499 -1 0 0 I I #
edge $-1 $606 -6.8699191243997699 $476 1.5697641788655634 $475 $666 forward 7 unknown #
vertex $-1 $605 $667 #
straight-curve $-1 -44.371471297341841 9.5199965971668732 3.1650640962319727 0.55919289150049634 0 0.82903758062907751 I I #
point $-1 -40.9073909237759 9.5199965971668732 8.3007746098253481 #
point $-1 -44.371471297341841 1.0803132939015399 3.1650640962319727 #
straight-curve $-1 -44.371471297341841 0 8.3007746098253481 0 -1 0 I I #
vertex $-1 $482 $668 #
point $-1 -39.399319884116579 3.4916513805487774 4.7536547401006786 #
vertex $-1 $486 $669 #
point $-1 -39.399319884116579 7.108658510519632 4.7536547401006786 #
coedge $-1 $501 $500 $493 $616 forward $490 $-1 #
edge $-1 $617 55.807378200574142 $620 60.91574929008042 $615 $670 forward 7 unknown #
vertex $-1 $505 $671 #
straight-curve $-1 16.716649246531688 -9.5724689516447903 8.3007746098253463 1 0 0 I I #
edge $-1 $620 -6.3814939188471778 $502 -0.00045614674804728139 $501 $672 forward 7 unknown #
vertex $-1 $619 $673 #
straight-curve $-1 -23.609566155037349 -9.5724689516447903 60.235268168419779 -0.76604443648966558 0 0.64278761758704617 I I #
point $-1 38.283551826629562 -9.5724689516447903 8.3007746098253463 #
point $-1 44.371471297341834 -3.1914311795456598 3.1924035203190684 #
straight-curve $-1 44.371471297341841 0 8.3007746098253481 0 1 0 I I #
vertex $-1 $508 $674 #
point $-1 40.425959007976353 -7.7493153024736099 3.8942986885534254 #
vertex $-1 $512 $675 #
point $-1 40.425959007976353 -5.0145848287168384 3.8942986885534254 #
edge $-1 $630 55.807378200574142 $633 60.91574929008042 $517 $676 forward 7 unknown #
vertex $-1 $531 $677 #
straight-curve $-1 16.716649246531688 0.8225156949345287 8.3007746098253463 1 0 0 I I #
edge $-1 $633 -1.1840015955575183 $528 5.1970361765416122 $527 $678 forward 7 unknown #
vertex $-1 $632 $679 #
straight-curve $-1 -23.609566155037349 0.8225156949345287 60.235268168419779 -0.76604443648966558 0 0.64278761758704617 I I #
point $-1 38.283551826629562 0.8225156949345287 8.3007746098253463 #
point $-1 44.371471297341834 7.2035534670336592 3.1924035203190684 #
straight-curve $-1 44.371471297341841 0 8.3007746098253481 0 1 0 I I #
vertex $-1 $534 $680 #
point $-1 40.425959007976353 2.6456693441057091 3.8942986885534254 #
vertex $-1 $538 $681 #
point $-1 40.425959007976353 5.3803998178624823 3.8942986885534254 #
edge $-1 $643 55.807378200574142 $646 60.91574929008042 $543 $682 forward 7 unknown #
vertex $-1 $557 $683 #
straight-curve $-1 16.716649246531688 11.217500341513849 8.3007746098253463 1 0 0 I I #
edge $-1 $646 4.0134907277321421 $554 10.394528499831274 $553 $684 forward 7 unknown #
vertex $-1 $645 $685 #
straight-curve $-1 -23.609566155037349 11.217500341513849 60.235268168419779 -0.76604443648966558 0 0.64278761758704617 I I #
point $-1 38.283551826629562 11.217500341513849 8.3007746098253463 #
point $-1 44.371471297341834 17.598538113612982 3.1924035203190684 #
straight-curve $-1 44.371471297341841 0 8.3007746098253481 0 1 0 I I #
vertex $-1 $560 $686 #
point $-1 40.425959007976353 13.04065399068503 3.8942986885534254 #
vertex $-1 $564 $687 #
point $-1 40.425959007976353 15.7753844644418 3.8942986885534254 #
straight-curve $-1 -44.371471297341841 19.61203594019203 0 0 0 -1 I I #
point $-1 -44.371471297341841 -19.61203594019203 -8.3007746098253481 #
straight-curve $-1 -44.371471297341841 0 -8.3007746098253481 0 1 0 I I #
point $-1 -44.371471297341841 19.61203594019203 -8.3007746098253481 #
straight-curve $-1 -44.371471297341841 -7.7962384849344897 0.49351298951300038 0 -1 0 I I #
point $-1 -44.371471297341841 -19.61203594019203 0.49351298951300038 #
point $-1 -44.371471297341841 -11.572917999545929 0.49351298951300038 #
straight-curve $-1 -44.371471297341841 -11.572917999545929 0.99675649475650019 0 0 -1 I I #
straight-curve $-1 -44.371471297341841 -19.61203594019203 0 0 0 -1 I I #
straight-curve $-1 -44.371471297341841 9.5199965971668732 26.39474338300785 0 0 -1 I I #
point $-1 -44.371471297341841 9.5199965971668732 8.3007746098253481 #
straight-curve $-1 -44.371471297341841 2.6500774727671033 3.1650640962319763 0 -1 0 I I #
point $-1 -44.371471297341841 9.5199965971668732 3.1650640962319727 #
point $-1 -39.129475194987997 3.4916513805487774 3.3654242679711048 #
point $-1 -39.129475194987997 7.108658510519632 3.3654242679711048 #
straight-curve $-1 44.371471297341841 -9.5724689516447903 64.108152810399488 0 0 -1 I I #
point $-1 44.371471297341841 -9.5724689516447903 8.3007746098253481 #
straight-curve $-1 44.371471297341834 -3.1909750327976125 3.1924035203190684 0 1 0 I I #
point $-1 44.371471297341834 -9.5724689516447903 3.1924035203190684 #
point $-1 39.721542980937997 -7.7493153024736099 3.8326702791021159 #
point $-1 39.721542980937997 -5.0145848287168384 3.8326702791021159 #
straight-curve $-1 44.371471297341841 0.8225156949345287 64.108152810399488 0 0 -1 I I #
point $-1 44.371471297341841 0.8225156949345287 8.3007746098253481 #
straight-curve $-1 44.371471297341834 2.006517290492047 3.1924035203190684 0 1 0 I I #
point $-1 44.371471297341834 0.8225156949345287 3.1924035203190684 #
point $-1 39.721542980937997 2.6456693441057091 3.8326702791021159 #
point $-1 39.721542980937997 5.3803998178624823 3.8326702791021159 #
straight-curve $-1 44.371471297341841 11.217500341513849 64.108152810399488 0 0 -1 I I #
point $-1 44.371471297341841 11.217500341513849 8.3007746098253481 #
straight-curve $-1 44.371471297341834 7.2040096137817073 3.1924035203190684 0 1 0 I I #
point $-1 44.371471297341834 11.217500341513849 3.1924035203190684 #
point $-1 39.721542980937997 13.04065399068503 3.8326702791021159 #
point $-1 39.721542980937997 15.7753844644418 3.8326702791021159 #
End-of-ACIS-data 