500 0 8 0           
7 Unknown 11 ACIS 5.0 NT 24 Thu Mar 25 21:14:34 1999 
-1 9.9999999999999995e-007 1e-010 
body $-1 $8 $-1 $9 #
body $-1 $10 $-1 $11 #
body $-1 $12 $-1 $13 #
body $-1 $14 $-1 $15 #
body $-1 $16 $-1 $17 #
body $-1 $18 $-1 $19 #
body $-1 $20 $-1 $21 #
body $-1 $22 $-1 $23 #
lump $-1 $-1 $24 $0 #
transform $-1 1 0 0 0 1 0 0 0 1 74.770348216193128 42.670463592588483 12.462296503638189 1 rotate no_reflect no_shear #
lump $-1 $-1 $25 $1 #
transform $-1 1 0 0 0 1 0 0 0 1 74.770348216193128 42.670463592588483 12.462296503638189 1 rotate no_reflect no_shear #
lump $-1 $-1 $26 $2 #
transform $-1 1 0 0 0 1 0 0 0 1 74.770348216193128 42.670463592588483 12.462296503638189 1 rotate no_reflect no_shear #
lump $-1 $-1 $27 $3 #
transform $-1 1 0 0 0 1 0 0 0 1 74.770348216193128 42.670463592588483 12.462296503638189 1 rotate no_reflect no_shear #
lump $-1 $-1 $28 $4 #
transform $-1 1 0 0 0 1 0 0 0 1 74.770348216193128 42.670463592588483 12.462296503638189 1 rotate no_reflect no_shear #
lump $-1 $-1 $29 $5 #
transform $-1 1 0 0 0 1 0 0 0 1 74.770348216193128 42.670463592588483 12.462296503638189 1 rotate no_reflect no_shear #
lump $-1 $-1 $30 $6 #
transform $-1 1 0 0 0 1 0 0 0 1 74.770348216193128 42.670463592588483 12.462296503638189 1 rotate no_reflect no_shear #
lump $-1 $-1 $31 $7 #
transform $-1 1 0 0 0 1 0 0 0 1 74.770348216193128 42.670463592588483 12.462296503638189 1 rotate no_reflect no_shear #
shell $-1 $-1 $-1 $32 $-1 $8 #
shell $-1 $-1 $-1 $33 $-1 $10 #
shell $-1 $-1 $-1 $34 $-1 $12 #
shell $-1 $-1 $-1 $35 $-1 $14 #
shell $-1 $-1 $-1 $36 $-1 $16 #
shell $-1 $-1 $-1 $37 $-1 $18 #
shell $-1 $-1 $-1 $38 $-1 $20 #
shell $-1 $-1 $-1 $39 $-1 $22 #
face $-1 $40 $41 $24 $-1 $42 forward single #
face $-1 $43 $44 $25 $-1 $45 forward single #
face $-1 $46 $47 $26 $-1 $48 reversed single #
face $-1 $49 $50 $27 $-1 $51 forward single #
face $-1 $52 $53 $28 $-1 $54 forward single #
face $-1 $55 $56 $29 $-1 $57 reversed single #
face $-1 $58 $59 $30 $-1 $60 forward single #
face $-1 $61 $62 $31 $-1 $63 forward single #
face $-1 $64 $65 $24 $-1 $66 reversed single #
loop $-1 $-1 $67 $32 #
plane-surface $-1 0 0 12.462296503638189 0 0 1 1 0 0 forward_v I I I I #
face $-1 $68 $69 $25 $-1 $70 reversed single #
loop $-1 $-1 $71 $33 #
plane-surface $-1 -70.099525734844349 0 -8.4915677839725667 0 0 1 1 0 0 forward_v I I I I #
face $-1 $72 $73 $26 $-1 $74 reversed single #
loop $-1 $-1 $75 $34 #
plane-surface $-1 -46.845779816219434 88.066557704927618 169.98225433710337 1 0 0 0 -0.70710678939079041 -0.70710677298230451 forward_v I I I I #
face $-1 $76 $77 $27 $-1 $78 forward single #
loop $-1 $79 $80 $35 #
cone-surface $-1 -40.329371375155695 35.515942143946127 5.3077750222323594 0 -0.70710678939079041 -0.70710677298230451 2.5 0 0 1 I I 0 1 2.5 forward I I I I #
face $-1 $81 $82 $28 $-1 $83 forward single #
loop $-1 $84 $85 $36 #
cone-surface $-1 -30.554758713560076 35.515942143946127 5.3077750222323594 0 -0.70710678939079041 -0.70710677298230451 2.5 0 0 1 I I 0 1 2.5 forward I I I I #
face $-1 $86 $87 $29 $-1 $88 reversed single #
loop $-1 $-1 $89 $37 #
plane-surface $-1 4.2156781897290152 -117.4408128105153 138.43208241585657 -1 0 0 0 -0.50000000669873634 0.8660253999169214 forward_v I I I I #
face $-1 $90 $91 $30 $-1 $92 forward single #
loop $-1 $93 $94 $38 #
cone-surface $-1 -15.304513327913916 -38.363382107456474 8.5384680022983677 0 0.50000000669873634 -0.8660253999169214 1.5 0 0 1 I I 0 1 1.5 forward I I I I #
face $-1 $95 $96 $31 $-1 $97 forward single #
loop $-1 $98 $99 $39 #
cone-surface $-1 -3.5923984173281553 -38.363382107456474 8.5384680022983677 0 0.50000000669873634 -0.8660253999169214 1.5 0 0 1 I I 0 1 1.5 forward I I I I #
face $-1 $100 $101 $24 $-1 $102 reversed single #
loop $-1 $-1 $103 $40 #
plane-surface $-1 0 0 -12.462296503638189 0 0 1 1 0 0 forward_v I I I I #
coedge $-1 $104 $105 $106 $107 forward $41 $-1 #
face $-1 $108 $109 $25 $-1 $110 reversed single #
loop $-1 $-1 $111 $43 #
plane-surface $-1 -65.42870325349557 0 -10.476932143805378 -1 0 0 0 0 1 forward_v I I I I #
coedge $-1 $112 $113 $114 $115 forward $44 $-1 #
face $-1 $116 $117 $26 $-1 $118 reversed single #
loop $-1 $-1 $119 $46 #
plane-surface $-1 -35.442065044357875 -17.67468403263986 64.241015053272307 0 0.70710678939079041 0.70710677298230451 1 0 0 forward_v I I I I #
coedge $-1 $120 $121 $122 $123 reversed $47 $-1 #
face $-1 $-1 $124 $27 $-1 $125 forward single #
loop $-1 $126 $127 $49 #
cone-surface $-1 -40.329371375155695 31.760752347127628 1.552585312553429 0 -0.70710678939079041 -0.70710677298230451 1.25 0 0 1 I I -0.70710678118654746 0.70710678118654746 1.25 forward I I I I #
loop $-1 $-1 $128 $35 #
coedge $-1 $80 $80 $129 $130 reversed $50 $-1 #
face $-1 $-1 $131 $28 $-1 $132 forward single #
loop $-1 $133 $134 $52 #
cone-surface $-1 -30.554758713560076 31.760752347127628 1.552585312553429 0 -0.70710678939079041 -0.70710677298230451 1.25 0 0 1 I I -0.70710678118654746 0.70710678118654746 1.25 forward I I I I #
loop $-1 $-1 $135 $36 #
coedge $-1 $85 $85 $136 $137 reversed $53 $-1 #
face $-1 $138 $139 $29 $-1 $140 reversed single #
loop $-1 $-1 $141 $55 #
plane-surface $-1 -9.4484558726210395 -42.670463592588476 8.926040984144322 0 -0.50000000669873634 0.8660253999169214 1 0 0 forward_v I I I I #
coedge $-1 $142 $143 $144 $145 reversed $56 $-1 #
face $-1 $-1 $146 $30 $-1 $147 forward single #
loop $-1 $148 $149 $58 #
cone-surface $-1 -15.304513327913916 -36.743787676748937 5.7332482107677976 0 0.50000000669873634 -0.8660253999169214 0.75 0 0 1 I I -0.70710678118654757 0.70710678118654757 0.75 forward I I I I #
loop $-1 $-1 $150 $38 #
coedge $-1 $94 $94 $151 $152 reversed $59 $-1 #
face $-1 $-1 $153 $31 $-1 $154 forward single #
loop $-1 $155 $156 $61 #
cone-surface $-1 -3.5923984173281553 -36.743787676748937 5.7332482107677976 0 0.50000000669873634 -0.8660253999169214 0.75 0 0 1 I I -0.70710678118654757 0.70710678118654757 0.75 forward I I I I #
loop $-1 $-1 $157 $39 #
coedge $-1 $99 $99 $158 $159 reversed $62 $-1 #
face $-1 $160 $161 $24 $-1 $162 reversed single #
loop $-1 $-1 $163 $64 #
plane-surface $-1 0 -42.670463592588483 0 0 1 0 0 0 1 forward_v I I I I #
coedge $-1 $164 $165 $166 $167 forward $65 $-1 #
coedge $-1 $168 $67 $169 $170 forward $41 $-1 #
coedge $-1 $67 $168 $171 $172 forward $41 $-1 #
coedge $-1 $173 $174 $67 $107 reversed $175 $-1 #
edge $-1 $176 -42.670463592588483 $177 42.670463592588483 $106 $178 forward 7 unknown #
face $-1 $179 $180 $25 $-1 $181 reversed single #
loop $-1 $-1 $182 $68 #
plane-surface $-1 0 0 -12.462296503638189 0 0 1 1 0 0 forward_v I I I I #
coedge $-1 $183 $114 $184 $185 reversed $69 $-1 #
coedge $-1 $186 $71 $187 $188 reversed $44 $-1 #
coedge $-1 $71 $186 $189 $190 reversed $44 $-1 #
coedge $-1 $111 $191 $71 $115 reversed $69 $-1 #
edge $-1 $192 -42.670463592588483 $193 42.670463592588483 $114 $194 forward 7 unknown #
face $-1 $195 $196 $26 $-1 $197 reversed single #
loop $-1 $-1 $198 $72 #
plane-surface $-1 -24.038350272496313 88.066557704927618 169.98225433710337 -1 0 0 0 0.70710678939079041 0.70710677298230451 forward_v I I I I #
coedge $-1 $199 $200 $201 $202 reversed $73 $-1 #
coedge $-1 $121 $75 $203 $204 reversed $47 $-1 #
coedge $-1 $75 $120 $199 $205 reversed $47 $-1 #
coedge $-1 $201 $206 $75 $123 forward $207 $-1 #
edge $-1 $208 1.362815259875326 $209 9.9292455370000425 $122 $210 forward 7 unknown #
loop $-1 $-1 $129 $76 #
plane-surface $-1 -35.442065044357875 -17.67468403263986 64.241015053272307 0 0.70710678939079041 0.70710677298230451 1 0 0 forward_v I I I I #
loop $-1 $-1 $211 $49 #
coedge $-1 $127 $127 $128 $212 reversed $77 $-1 #
coedge $-1 $128 $128 $127 $212 forward $79 $-1 #
coedge $-1 $129 $129 $80 $130 forward $124 $-1 #
edge $-1 $213 1.0048589986736585e-015 $213 6.2831853071796013 $129 $214 forward 7 unknown #
loop $-1 $-1 $136 $81 #
plane-surface $-1 -35.442065044357875 -17.67468403263986 64.241015053272307 0 0.70710678939079041 0.70710677298230451 1 0 0 forward_v I I I I #
loop $-1 $-1 $215 $52 #
coedge $-1 $134 $134 $135 $216 reversed $82 $-1 #
coedge $-1 $135 $135 $134 $216 forward $84 $-1 #
coedge $-1 $136 $136 $85 $137 forward $131 $-1 #
edge $-1 $217 1.0048589986736585e-015 $217 6.2831853071796013 $136 $218 forward 7 unknown #
face $-1 $219 $220 $29 $-1 $221 forward single #
loop $-1 $-1 $222 $86 #
plane-surface $-1 -23.112589934971094 -117.4408128105153 138.43208241585657 1 0 0 0 0.50000000669873634 -0.8660253999169214 forward_v I I I I #
coedge $-1 $223 $224 $225 $226 reversed $87 $-1 #
coedge $-1 $143 $89 $227 $228 reversed $56 $-1 #
coedge $-1 $89 $142 $223 $229 reversed $56 $-1 #
coedge $-1 $225 $230 $89 $145 forward $220 $-1 #
edge $-1 $231 16.049942812669165 $232 22.174916931566194 $144 $233 forward 7 unknown #
loop $-1 $-1 $151 $90 #
plane-surface $-1 -9.4484558726210395 -42.670463592588476 8.926040984144322 0 -0.50000000669873634 0.8660253999169214 1 0 0 forward_v I I I I #
loop $-1 $-1 $234 $58 #
coedge $-1 $149 $149 $150 $235 reversed $91 $-1 #
coedge $-1 $150 $150 $149 $235 forward $93 $-1 #
coedge $-1 $151 $151 $94 $152 forward $146 $-1 #
edge $-1 $236 5.4960665290014218e-016 $236 6.2831853071796013 $151 $237 forward 7 unknown #
loop $-1 $-1 $158 $95 #
plane-surface $-1 -9.4484558726210395 -42.670463592588476 8.926040984144322 0 -0.50000000669873634 0.8660253999169214 1 0 0 forward_v I I I I #
loop $-1 $-1 $238 $61 #
coedge $-1 $156 $156 $157 $239 reversed $96 $-1 #
coedge $-1 $157 $157 $156 $239 forward $98 $-1 #
coedge $-1 $158 $158 $99 $159 forward $153 $-1 #
edge $-1 $240 5.4960665290014218e-016 $240 6.2831853071796013 $158 $241 forward 7 unknown #
face $-1 $242 $243 $24 $-1 $244 reversed single #
loop $-1 $-1 $245 $100 #
plane-surface $-1 -74.770348216193128 0 0 1 0 0 0 0 -1 forward_v I I I I #
coedge $-1 $246 $171 $247 $248 forward $101 $-1 #
coedge $-1 $249 $103 $246 $250 forward $65 $-1 #
coedge $-1 $103 $249 $251 $252 forward $65 $-1 #
coedge $-1 $174 $173 $103 $167 reversed $175 $-1 #
edge $-1 $253 -42.670463592588483 $254 42.670463592588483 $166 $255 forward 7 unknown #
coedge $-1 $105 $104 $256 $257 forward $41 $-1 #
coedge $-1 $258 $259 $104 $170 reversed $243 $-1 #
edge $-1 $177 -74.770348216193128 $260 74.770348216193128 $169 $261 forward 7 unknown #
coedge $-1 $163 $262 $105 $172 reversed $101 $-1 #
edge $-1 $263 -74.770348216193128 $176 74.770348216193128 $171 $264 forward 7 unknown #
coedge $-1 $166 $106 $262 $265 forward $175 $-1 #
coedge $-1 $106 $166 $258 $266 reversed $175 $-1 #
loop $-1 $-1 $173 $242 #
vertex $-1 $107 $267 #
vertex $-1 $107 $268 #
straight-curve $-1 74.770348216193128 0 12.462296503638189 0 1 0 I I #
face $-1 $269 $270 $25 $-1 $271 reversed single #
loop $-1 $-1 $184 $108 #
plane-surface $-1 0 -42.670463592588483 0 0 1 0 0 0 1 forward_v I I I I #
coedge $-1 $272 $273 $183 $274 forward $109 $-1 #
coedge $-1 $191 $111 $182 $274 reversed $69 $-1 #
coedge $-1 $189 $275 $111 $185 forward $180 $-1 #
edge $-1 $276 -7.2238304317355002 $192 -3.2531017120698777 $184 $277 forward 7 unknown #
coedge $-1 $113 $112 $278 $279 reversed $44 $-1 #
coedge $-1 $280 $281 $112 $188 forward $282 $-1 #
edge $-1 $283 -39.720585348770953 $193 -30.378940386073396 $187 $284 forward 7 unknown #
coedge $-1 $285 $184 $113 $190 forward $180 $-1 #
edge $-1 $192 30.378940386073396 $286 39.720585348770953 $189 $287 forward 7 unknown #
coedge $-1 $114 $183 $280 $288 reversed $69 $-1 #
vertex $-1 $190 $289 #
vertex $-1 $188 $290 #
straight-curve $-1 -65.42870325349557 0 -8.4915677839725667 0 1 0 I I #
face $-1 $-1 $207 $26 $-1 $291 forward single #
loop $-1 $-1 $292 $116 #
plane-surface $-1 0 42.670463592588483 0 0 -1 0 0 0 -1 forward_v I I I I #
coedge $-1 $293 $294 $295 $296 reversed $117 $-1 #
coedge $-1 $297 $119 $121 $205 forward $73 $-1 #
coedge $-1 $119 $297 $293 $298 forward $73 $-1 #
coedge $-1 $295 $122 $119 $202 forward $207 $-1 #
edge $-1 $209 -29.124747294040496 $299 -6.3173177503173754 $201 $300 forward 7 unknown #
coedge $-1 $301 $302 $120 $204 forward $196 $-1 #
edge $-1 $303 -81.095261140823112 $208 -72.5288306649135 $203 $304 forward 7 unknown #
edge $-1 $209 73.226165165581605 $303 85.340927185177037 $121 $305 forward 7 unknown #
coedge $-1 $122 $295 $301 $306 forward $207 $-1 #
loop $-1 $-1 $295 $195 #
vertex $-1 $204 $307 #
vertex $-1 $123 $308 #
straight-curve $-1 -46.845779816219434 44.033278852463809 12.462296503638186 0 -1 0 I I #
coedge $-1 $211 $211 $-1 $309 reversed $126 $-1 #
edge $-1 $310 0 $310 6.2831853071796004 $127 $311 forward 7 unknown #
vertex $-1 $130 $312 #
ellipse-curve $-1 -40.329371375155695 38.387248454026107 8.1790812656833829 0 0.70710678939079041 0.70710677298230451 2.5 0 0 1 I I #
coedge $-1 $215 $215 $-1 $313 reversed $133 $-1 #
edge $-1 $314 0 $314 6.2831853071796004 $134 $315 forward 7 unknown #
vertex $-1 $137 $316 #
ellipse-curve $-1 -30.554758713560076 38.387248454026107 8.1790812656833829 0 0.70710678939079041 0.70710677298230451 2.5 0 0 1 I I #
face $-1 $-1 $317 $29 $-1 $318 reversed single #
loop $-1 $-1 $144 $138 #
plane-surface $-1 0 0 12.462296503638189 0 0 1 1 0 0 forward_v I I I I #
coedge $-1 $319 $320 $321 $322 reversed $139 $-1 #
coedge $-1 $323 $141 $143 $229 forward $87 $-1 #
coedge $-1 $141 $323 $319 $324 forward $87 $-1 #
coedge $-1 $321 $144 $141 $226 forward $220 $-1 #
edge $-1 $232 -8.9399061260395349 $325 18.388361998660574 $225 $326 forward 7 unknown #
coedge $-1 $327 $328 $142 $228 forward $317 $-1 #
edge $-1 $329 -60.290000223783963 $231 -56.753744704290099 $227 $330 forward 7 unknown #
edge $-1 $232 -7.0725109442339633 $329 7.929837432145984e-015 $143 $331 forward 7 unknown #
coedge $-1 $144 $321 $327 $332 forward $220 $-1 #
vertex $-1 $145 $333 #
vertex $-1 $145 $334 #
straight-curve $-1 4.2156781897290152 -58.720406405257648 12.462296503638186 0 1 0 I I #
coedge $-1 $234 $234 $-1 $335 reversed $148 $-1 #
edge $-1 $336 0 $336 6.2831853071796004 $149 $337 forward 7 unknown #
vertex $-1 $152 $338 #
ellipse-curve $-1 -15.304513327913916 -39.607976533139961 10.694168743891257 0 -0.50000000669873634 0.8660253999169214 1.5 0 0 1 I I #
coedge $-1 $238 $238 $-1 $339 reversed $155 $-1 #
edge $-1 $340 0 $340 6.2831853071796004 $156 $341 forward 7 unknown #
vertex $-1 $159 $342 #
ellipse-curve $-1 -3.5923984173281553 -39.607976533139961 10.694168743891257 0 -0.50000000669873634 0.8660253999169214 1.5 0 0 1 I I #
face $-1 $-1 $175 $24 $-1 $343 reversed single #
loop $-1 $-1 $258 $160 #
plane-surface $-1 0 42.670463592588483 0 0 -1 0 0 0 -1 forward_v I I I I #
coedge $-1 $344 $256 $259 $345 forward $161 $-1 #
coedge $-1 $262 $163 $164 $250 reversed $101 $-1 #
coedge $-1 $256 $344 $163 $248 reversed $161 $-1 #
edge $-1 $263 -12.462296503638189 $346 12.462296503638189 $247 $347 forward 7 unknown #
coedge $-1 $165 $164 $344 $348 forward $65 $-1 #
edge $-1 $254 -74.770348216193128 $346 74.770348216193128 $246 $349 forward 7 unknown #
coedge $-1 $259 $258 $165 $252 reversed $243 $-1 #
edge $-1 $350 -74.770348216193128 $253 74.770348216193128 $251 $351 forward 7 unknown #
vertex $-1 $167 $352 #
vertex $-1 $265 $353 #
straight-curve $-1 74.770348216193128 0 -12.462296503638189 0 -1 0 I I #
coedge $-1 $245 $247 $168 $257 reversed $161 $-1 #
edge $-1 $260 -42.670463592588483 $263 42.670463592588483 $256 $354 forward 7 unknown #
coedge $-1 $251 $169 $174 $266 forward $243 $-1 #
coedge $-1 $169 $251 $245 $345 reversed $243 $-1 #
vertex $-1 $170 $355 #
straight-curve $-1 0 42.670463592588483 12.462296503638189 -1 0 0 I I #
coedge $-1 $171 $246 $173 $265 reversed $101 $-1 #
vertex $-1 $257 $356 #
straight-curve $-1 0 -42.670463592588483 12.462296503638189 1 0 0 I I #
edge $-1 $176 -12.462296503638189 $254 12.462296503638189 $173 $357 forward 7 unknown #
edge $-1 $177 -12.462296503638189 $253 12.462296503638189 $174 $358 forward 7 unknown #
point $-1 74.770348216193128 -42.670463592588483 12.462296503638189 #
point $-1 74.770348216193128 42.670463592588483 12.462296503638189 #
face $-1 $-1 $282 $25 $-1 $359 reversed single #
loop $-1 $-1 $278 $179 #
plane-surface $-1 -74.770348216193128 0 0 1 0 0 0 0 -1 forward_v I I I I #
coedge $-1 $360 $182 $275 $361 forward $109 $-1 #
coedge $-1 $182 $360 $362 $363 forward $109 $-1 #
edge $-1 $364 -42.670463592588483 $276 42.670463592588483 $182 $365 forward 7 unknown #
coedge $-1 $184 $285 $272 $361 reversed $180 $-1 #
vertex $-1 $361 $366 #
straight-curve $-1 -65.42870325349557 -42.670463592588483 -5.238466071902689 0 0 1 I I #
coedge $-1 $367 $368 $186 $279 forward $270 $-1 #
edge $-1 $286 -42.670463592588483 $283 42.670463592588483 $278 $369 forward 7 unknown #
coedge $-1 $362 $187 $191 $288 forward $282 $-1 #
coedge $-1 $187 $362 $367 $370 reversed $282 $-1 #
loop $-1 $-1 $280 $269 #
vertex $-1 $370 $371 #
straight-curve $-1 -35.049762867422174 42.670463592588483 -8.4915677839725667 1 0 0 I I #
coedge $-1 $275 $189 $368 $372 forward $180 $-1 #
vertex $-1 $372 $373 #
straight-curve $-1 -35.049762867422174 -42.670463592588483 -8.4915677839725667 -1 0 0 I I #
edge $-1 $193 3.2531017120698777 $364 7.2238304317355002 $280 $374 forward 7 unknown #
point $-1 -65.42870325349557 -42.670463592588483 -8.4915677839725667 #
point $-1 -65.42870325349557 42.670463592588483 -8.4915677839725667 #
plane-surface $-1 0 0 12.462296503638189 0 0 1 1 0 0 forward_v I I I I #
coedge $-1 $302 $301 $294 $375 forward $196 $-1 #
coedge $-1 $294 $198 $200 $298 reversed $117 $-1 #
coedge $-1 $198 $293 $292 $375 reversed $117 $-1 #
coedge $-1 $206 $201 $198 $296 forward $207 $-1 #
edge $-1 $299 -9.9292455370000425 $376 -1.362815259875326 $295 $377 forward 7 unknown #
coedge $-1 $200 $199 $302 $378 reversed $73 $-1 #
edge $-1 $379 -85.340927185177037 $299 -73.226165165581605 $293 $380 forward 7 unknown #
vertex $-1 $202 $381 #
straight-curve $-1 -17.721032522178938 34.104033315463766 12.462296503638179 1 0 0 I I #
coedge $-1 $292 $203 $206 $306 reversed $196 $-1 #
coedge $-1 $203 $292 $297 $378 forward $196 $-1 #
vertex $-1 $204 $382 #
straight-curve $-1 -46.845779816219434 42.670463592588483 84.991127168551685 0 0 1 I I #
straight-curve $-1 -46.845779816219434 -17.67468403263986 64.241015053272307 0 0.70710677298230451 -0.70710678939079041 I I #
edge $-1 $376 24.038350272496313 $208 46.845779816219434 $301 $383 forward 7 unknown #
point $-1 -46.845779816219434 42.670463592588483 12.462296503638189 #
point $-1 -46.845779816219434 34.104033315463766 12.462296503638186 #
edge $-1 $384 1 $384 0 $211 $-1 forward 7 unknown #
vertex $-1 $212 $385 #
ellipse-curve $-1 -40.329371375155695 32.644635833866118 2.4364687787813097 0 0.70710678939079041 0.70710677298230451 2.5 0 0 1 I I #
point $-1 -37.829371375155695 38.387248454026135 8.1790812656834078 #
edge $-1 $386 1 $386 0 $215 $-1 forward 7 unknown #
vertex $-1 $216 $387 #
ellipse-curve $-1 -30.554758713560076 32.644635833866118 2.4364687787813097 0 0.70710678939079041 0.70710677298230451 2.5 0 0 1 I I #
point $-1 -28.054758713560076 38.387248454026135 8.1790812656834078 #
loop $-1 $-1 $227 $219 #
plane-surface $-1 0 -42.670463592588483 0 0 1 0 0 0 1 forward_v I I I I #
coedge $-1 $320 $222 $224 $324 reversed $139 $-1 #
coedge $-1 $222 $319 $388 $389 reversed $139 $-1 #
coedge $-1 $230 $225 $222 $322 forward $220 $-1 #
edge $-1 $325 -22.174916931566194 $390 -16.049942812669165 $321 $391 forward 7 unknown #
coedge $-1 $224 $223 $328 $392 reversed $87 $-1 #
edge $-1 $393 -7.929837432145984e-015 $325 7.0725109442339633 $319 $394 forward 7 unknown #
vertex $-1 $226 $395 #
straight-curve $-1 -4.7242279363105197 -36.545489473691454 12.462296503638189 -1 0 0 I I #
coedge $-1 $388 $227 $230 $332 reversed $317 $-1 #
coedge $-1 $227 $388 $323 $392 forward $317 $-1 #
vertex $-1 $228 $396 #
straight-curve $-1 4.2156781897290152 -42.670463592588483 69.216041207928285 0 0 1 I I #
straight-curve $-1 4.2156781897290152 -42.670463592588476 8.926040984144322 0 -0.8660253999169214 -0.50000000669873634 I I #
edge $-1 $390 -23.112589934971094 $231 4.2156781897290152 $327 $397 forward 7 unknown #
point $-1 4.2156781897290152 -42.670463592588483 12.462296503638189 #
point $-1 4.2156781897290152 -36.545489473691454 12.462296503638189 #
edge $-1 $398 1 $398 0 $234 $-1 forward 7 unknown #
vertex $-1 $235 $399 #
ellipse-curve $-1 -15.304513327913916 -37.118787681772986 6.3827672607054886 0 -0.50000000669873634 0.8660253999169214 1.5 0 0 1 I I #
point $-1 -13.804513327913916 -39.607976533139954 10.694168743891247 #
edge $-1 $400 1 $400 0 $238 $-1 forward 7 unknown #
vertex $-1 $239 $401 #
ellipse-curve $-1 -3.5923984173281553 -37.118787681772986 6.3827672607054886 0 -0.50000000669873634 0.8660253999169214 1.5 0 0 1 I I #
point $-1 -2.0923984173281553 -39.607976533139954 10.694168743891247 #
plane-surface $-1 74.770348216193128 0 0 -1 0 0 0 0 1 forward_v I I I I #
coedge $-1 $247 $245 $249 $348 reversed $161 $-1 #
edge $-1 $260 -12.462296503638189 $350 12.462296503638189 $259 $402 forward 7 unknown #
vertex $-1 $348 $403 #
straight-curve $-1 -74.770348216193128 -42.670463592588483 0 0 0 -1 I I #
edge $-1 $346 -42.670463592588483 $350 42.670463592588483 $344 $404 forward 7 unknown #
straight-curve $-1 0 -42.670463592588483 -12.462296503638189 -1 0 0 I I #
vertex $-1 $252 $405 #
straight-curve $-1 0 42.670463592588483 -12.462296503638189 1 0 0 I I #
point $-1 74.770348216193128 42.670463592588483 -12.462296503638189 #
point $-1 74.770348216193128 -42.670463592588483 -12.462296503638189 #
straight-curve $-1 -74.770348216193128 0 12.462296503638189 0 -1 0 I I #
point $-1 -74.770348216193128 42.670463592588483 12.462296503638189 #
point $-1 -74.770348216193128 -42.670463592588483 12.462296503638189 #
straight-curve $-1 74.770348216193128 -42.670463592588483 0 0 0 -1 I I #
straight-curve $-1 74.770348216193128 42.670463592588483 0 0 0 -1 I I #
plane-surface $-1 0 42.670463592588483 0 0 -1 0 0 0 -1 forward_v I I I I #
coedge $-1 $273 $272 $406 $407 forward $109 $-1 #
edge $-1 $276 65.42870325349557 $408 74.770348216193128 $275 $409 forward 7 unknown #
coedge $-1 $281 $280 $273 $363 reversed $282 $-1 #
edge $-1 $410 -74.770348216193128 $364 -65.42870325349557 $362 $411 forward 7 unknown #
vertex $-1 $288 $412 #
straight-curve $-1 -65.42870325349557 0 -12.462296503638189 0 -1 0 I I #
point $-1 -65.42870325349557 -42.670463592588483 -12.462296503638189 #
coedge $-1 $406 $278 $281 $370 forward $270 $-1 #
coedge $-1 $278 $406 $285 $372 reversed $270 $-1 #
straight-curve $-1 -74.770348216193128 0 -8.4915677839725667 0 1 0 I I #
edge $-1 $283 8.4915677839725667 $410 12.462296503638189 $281 $413 forward 7 unknown #
point $-1 -74.770348216193128 42.670463592588483 -8.4915677839725667 #
edge $-1 $286 8.4915677839725667 $408 12.462296503638189 $368 $414 forward 7 unknown #
point $-1 -74.770348216193128 -42.670463592588483 -8.4915677839725667 #
straight-curve $-1 -65.42870325349557 42.670463592588483 -5.238466071902689 0 0 -1 I I #
edge $-1 $376 72.5288306649135 $379 81.095261140823112 $292 $415 forward 7 unknown #
vertex $-1 $306 $416 #
straight-curve $-1 -24.038350272496313 44.033278852463809 12.462296503638186 0 1 0 I I #
edge $-1 $379 6.3173177503173754 $303 29.124747294040496 $302 $417 forward 7 unknown #
vertex $-1 $378 $418 #
straight-curve $-1 -24.038350272496313 -17.67468403263986 64.241015053272307 0 -0.70710677298230451 0.70710678939079041 I I #
point $-1 -24.038350272496313 34.104033315463766 12.462296503638186 #
point $-1 -46.845779816219434 42.670463592588476 3.8958660277285659 #
straight-curve $-1 0 42.670463592588483 12.462296503638189 -1 0 0 I I #
vertex $-1 $309 $419 #
point $-1 -37.829371375155695 32.644635833866118 2.4364687787813097 #
vertex $-1 $313 $420 #
point $-1 -28.054758713560076 32.644635833866118 2.4364687787813097 #
coedge $-1 $328 $327 $320 $389 forward $317 $-1 #
edge $-1 $390 56.753744704290099 $393 60.290000223783963 $388 $421 forward 7 unknown #
vertex $-1 $332 $422 #
straight-curve $-1 -23.112589934971094 -58.720406405257648 12.462296503638186 0 -1 0 I I #
edge $-1 $393 -18.388361998660574 $329 8.9399061260395349 $328 $423 forward 7 unknown #
vertex $-1 $392 $424 #
straight-curve $-1 -23.112589934971094 -42.670463592588476 8.926040984144322 0 0.8660253999169214 0.50000000669873634 I I #
point $-1 -23.112589934971094 -36.545489473691454 12.462296503638189 #
point $-1 4.2156781897290152 -42.670463592588483 8.9260409841443185 #
straight-curve $-1 0 -42.670463592588483 12.462296503638189 1 0 0 I I #
vertex $-1 $335 $425 #
point $-1 -13.804513327913916 -37.118787681772986 6.3827672607054886 #
vertex $-1 $339 $426 #
point $-1 -2.0923984173281553 -37.118787681772986 6.3827672607054886 #
straight-curve $-1 -74.770348216193128 42.670463592588483 0 0 0 -1 I I #
point $-1 -74.770348216193128 -42.670463592588483 -12.462296503638189 #
straight-curve $-1 -74.770348216193128 0 -12.462296503638189 0 1 0 I I #
point $-1 -74.770348216193128 42.670463592588483 -12.462296503638189 #
coedge $-1 $368 $367 $360 $407 reversed $270 $-1 #
edge $-1 $408 -42.670463592588483 $410 42.670463592588483 $406 $427 forward 7 unknown #
vertex $-1 $407 $428 #
straight-curve $-1 0 -42.670463592588483 -12.462296503638189 -1 0 0 I I #
vertex $-1 $363 $429 #
straight-curve $-1 0 42.670463592588483 -12.462296503638189 1 0 0 I I #
point $-1 -65.42870325349557 42.670463592588483 -12.462296503638189 #
straight-curve $-1 -74.770348216193128 42.670463592588483 0 0 0 -1 I I #
straight-curve $-1 -74.770348216193128 -42.670463592588483 0 0 0 -1 I I #
straight-curve $-1 -24.038350272496313 42.670463592588483 84.991127168551685 0 0 -1 I I #
point $-1 -24.038350272496313 42.670463592588483 12.462296503638189 #
straight-curve $-1 -17.721032522178938 42.670463592588476 3.8958660277285695 -1 0 0 I I #
point $-1 -24.038350272496313 42.670463592588476 3.8958660277285659 #
point $-1 -40.329371375155695 30.876868860389141 0.66870184632554841 #
point $-1 -30.554758713560076 30.876868860389141 0.66870184632554841 #
straight-curve $-1 -23.112589934971094 -42.670463592588483 69.216041207928285 0 0 -1 I I #
point $-1 -23.112589934971094 -42.670463592588483 12.462296503638189 #
straight-curve $-1 -4.7242279363105197 -42.670463592588483 8.9260409841443149 1 0 0 I I #
point $-1 -23.112589934971094 -42.670463592588483 8.9260409841443185 #
point $-1 -15.304513327913916 -36.368787671724888 5.0837291608301065 #
point $-1 -3.5923984173281553 -36.368787671724888 5.0837291608301065 #
straight-curve $-1 -74.770348216193128 0 -12.462296503638189 0 1 0 I I #
point $-1 -74.770348216193128 -42.670463592588483 -12.462296503638189 #
point $-1 -74.770348216193128 42.670463592588483 -12.462296503638189 #
End-of-ACIS-data 