500 0 16 0           
7 Unknown 11 ACIS 5.0 NT 24 Thu Mar 25 17:55:00 1999 
-1 9.9999999999999995e-007 1e-010 
body $-1 $16 $-1 $17 #
body $-1 $18 $-1 $19 #
body $-1 $20 $-1 $21 #
body $-1 $22 $-1 $23 #
body $-1 $24 $-1 $25 #
body $-1 $26 $-1 $27 #
body $-1 $28 $-1 $29 #
body $-1 $30 $-1 $31 #
body $-1 $32 $-1 $33 #
body $-1 $34 $-1 $35 #
body $-1 $36 $-1 $37 #
body $-1 $38 $-1 $39 #
body $-1 $40 $-1 $41 #
body $-1 $42 $-1 $43 #
body $-1 $44 $-1 $45 #
body $-1 $46 $-1 $47 #
lump $-1 $-1 $48 $0 #
transform $-1 1 0 0 0 1 0 0 0 1 60.319223609118929 24.147570653858409 11.18347861264574 1 rotate no_reflect no_shear #
lump $-1 $-1 $49 $1 #
transform $-1 1 0 0 0 1 0 0 0 1 60.319223609118929 24.147570653858409 11.18347861264574 1 rotate no_reflect no_shear #
lump $-1 $-1 $50 $2 #
transform $-1 1 0 0 0 1 0 0 0 1 60.319223609118929 24.147570653858409 11.18347861264574 1 rotate no_reflect no_shear #
lump $-1 $-1 $51 $3 #
transform $-1 1 0 0 0 1 0 0 0 1 60.319223609118929 24.147570653858409 11.18347861264574 1 rotate no_reflect no_shear #
lump $-1 $-1 $52 $4 #
transform $-1 1 0 0 0 1 0 0 0 1 60.319223609118929 24.147570653858409 11.18347861264574 1 rotate no_reflect no_shear #
lump $-1 $-1 $53 $5 #
transform $-1 1 0 0 0 1 0 0 0 1 60.319223609118929 24.147570653858409 11.18347861264574 1 rotate no_reflect no_shear #
lump $-1 $-1 $54 $6 #
transform $-1 1 0 0 0 1 0 0 0 1 60.319223609118929 24.147570653858409 11.18347861264574 1 rotate no_reflect no_shear #
lump $-1 $-1 $55 $7 #
transform $-1 1 0 0 0 1 0 0 0 1 60.319223609118929 24.147570653858409 11.18347861264574 1 rotate no_reflect no_shear #
lump $-1 $-1 $56 $8 #
transform $-1 1 0 0 0 1 0 0 0 1 60.319223609118929 24.147570653858409 11.18347861264574 1 rotate no_reflect no_shear #
lump $-1 $-1 $57 $9 #
transform $-1 1 0 0 0 1 0 0 0 1 60.319223609118929 24.147570653858409 11.18347861264574 1 rotate no_reflect no_shear #
lump $-1 $-1 $58 $10 #
transform $-1 1 0 0 0 1 0 0 0 1 60.319223609118929 24.147570653858409 11.18347861264574 1 rotate no_reflect no_shear #
lump $-1 $-1 $59 $11 #
transform $-1 1 0 0 0 1 0 0 0 1 60.319223609118929 24.147570653858409 11.18347861264574 1 rotate no_reflect no_shear #
lump $-1 $-1 $60 $12 #
transform $-1 1 0 0 0 1 0 0 0 1 60.319223609118929 24.147570653858409 11.18347861264574 1 rotate no_reflect no_shear #
lump $-1 $-1 $61 $13 #
transform $-1 1 0 0 0 1 0 0 0 1 60.319223609118929 24.147570653858409 11.18347861264574 1 rotate no_reflect no_shear #
lump $-1 $-1 $62 $14 #
transform $-1 1 0 0 0 1 0 0 0 1 60.319223609118929 24.147570653858409 11.18347861264574 1 rotate no_reflect no_shear #
lump $-1 $-1 $63 $15 #
transform $-1 1 0 0 0 1 0 0 0 1 60.319223609118929 24.147570653858409 11.18347861264574 1 rotate no_reflect no_shear #
shell $-1 $-1 $-1 $64 $-1 $16 #
shell $-1 $-1 $-1 $65 $-1 $18 #
shell $-1 $-1 $-1 $66 $-1 $20 #
shell $-1 $-1 $-1 $67 $-1 $22 #
shell $-1 $-1 $-1 $68 $-1 $24 #
shell $-1 $-1 $-1 $69 $-1 $26 #
shell $-1 $-1 $-1 $70 $-1 $28 #
shell $-1 $-1 $-1 $71 $-1 $30 #
shell $-1 $-1 $-1 $72 $-1 $32 #
shell $-1 $-1 $-1 $73 $-1 $34 #
shell $-1 $-1 $-1 $74 $-1 $36 #
shell $-1 $-1 $-1 $75 $-1 $38 #
shell $-1 $-1 $-1 $76 $-1 $40 #
shell $-1 $-1 $-1 $77 $-1 $42 #
shell $-1 $-1 $-1 $78 $-1 $44 #
shell $-1 $-1 $-1 $79 $-1 $46 #
face $-1 $80 $81 $48 $-1 $82 forward single #
face $-1 $83 $84 $49 $-1 $85 forward single #
face $-1 $86 $87 $50 $-1 $88 reversed single #
face $-1 $89 $90 $51 $-1 $91 reversed single #
face $-1 $92 $93 $52 $-1 $94 forward single #
face $-1 $95 $96 $53 $-1 $97 forward single #
face $-1 $98 $99 $54 $-1 $100 forward single #
face $-1 $101 $102 $55 $-1 $103 reversed single #
face $-1 $104 $105 $56 $-1 $106 forward single #
face $-1 $107 $108 $57 $-1 $109 forward single #
face $-1 $110 $111 $58 $-1 $112 reversed single #
face $-1 $113 $114 $59 $-1 $115 forward single #
face $-1 $116 $117 $60 $-1 $118 forward single #
face $-1 $119 $120 $61 $-1 $121 reversed single #
face $-1 $122 $123 $62 $-1 $124 forward single #
face $-1 $125 $126 $63 $-1 $127 forward single #
face $-1 $128 $129 $48 $-1 $130 reversed single #
loop $-1 $-1 $131 $64 #
plane-surface $-1 0 0 11.18347861264574 0 0 1 1 0 0 forward_v I I I I #
face $-1 $132 $133 $49 $-1 $134 reversed single #
loop $-1 $-1 $135 $65 #
plane-surface $-1 0 -19.762095473817705 -4.4768817752494954 0 0 1 1 0 0 forward_v I I I I #
face $-1 $136 $137 $50 $-1 $138 reversed single #
loop $-1 $-1 $139 $66 #
plane-surface $-1 0 18.243392252519996 8.1834786126457395 0 0 1 1 0 0 forward_v I I I I #
face $-1 $140 $141 $51 $-1 $142 reversed single #
loop $-1 $-1 $143 $67 #
plane-surface $-1 63.296755008101023 5.025174141009094 176.20311271268986 0 -1 0 -0.71933980857756763 0 -0.69465836192734942 forward_v I I I I #
face $-1 $144 $145 $52 $-1 $146 forward single #
loop $-1 $147 $148 $68 #
cone-surface $-1 57.051000225497965 -1.2849978248461866 7.8397961826280591 -0.71933980857756763 0 -0.69465836192734942 0.34732918096367471 0 -0.35966990428878381 1 I I 0 1 0.5 forward I I I I #
face $-1 $149 $150 $53 $-1 $151 forward single #
loop $-1 $152 $153 $69 #
cone-surface $-1 57.051000225497965 1.0813166623495434 7.8397961826280591 -0.71933980857756763 0 -0.69465836192734942 0.34732918096367471 0 -0.35966990428878381 1 I I 0 1 0.5 forward I I I I #
face $-1 $154 $155 $54 $-1 $156 forward single #
loop $-1 $157 $158 $70 #
cone-surface $-1 57.051000225497965 3.4476311495452734 7.8397961826280591 -0.71933980857756763 0 -0.69465836192734942 0.34732918096367471 0 -0.35966990428878381 1 I I 0 1 0.5 forward I I I I #
face $-1 $159 $160 $55 $-1 $161 reversed single #
loop $-1 $-1 $162 $71 #
plane-surface $-1 -164.7951845063636 -13.656865413299236 61.019763925559175 0 1 0 -0.86602541151947299 0 0.49999998660252726 forward_v I I I I #
face $-1 $163 $164 $56 $-1 $165 forward single #
loop $-1 $166 $167 $72 #
cone-surface $-1 -56.860047854438726 -11.995306513944161 5.6920102793668832 0.86602541151947299 0 -0.49999998660252726 0.24999999330126363 0 0.43301270575973649 1 I I 0 1 0.5 forward I I I I #
face $-1 $168 $169 $57 $-1 $170 forward single #
loop $-1 $171 $172 $73 #
cone-surface $-1 -56.860047854438726 -9.5029681649115503 5.6920102793668832 0.86602541151947299 0 -0.49999998660252726 0.24999999330126363 0 0.43301270575973649 1 I I 0 1 0.5 forward I I I I #
face $-1 $173 $174 $58 $-1 $175 reversed single #
loop $-1 $-1 $176 $74 #
plane-surface $-1 -164.7951845063636 -4.4182540316463754 61.019763925559175 0 1 0 -0.86602541151947299 0 0.49999998660252726 forward_v I I I I #
face $-1 $177 $178 $59 $-1 $179 forward single #
loop $-1 $180 $181 $75 #
cone-surface $-1 -56.860047854438726 -2.7566951322912985 5.6920102793668832 0.86602541151947299 0 -0.49999998660252726 0.24999999330126363 0 0.43301270575973649 1 I I 0 1 0.5 forward I I I I #
face $-1 $182 $183 $60 $-1 $184 forward single #
loop $-1 $185 $186 $76 #
cone-surface $-1 -56.860047854438726 -0.26435678325869105 5.6920102793668832 0.86602541151947299 0 -0.49999998660252726 0.24999999330126363 0 0.43301270575973649 1 I I 0 1 0.5 forward I I I I #
face $-1 $187 $188 $61 $-1 $189 reversed single #
loop $-1 $-1 $190 $77 #
plane-surface $-1 -164.7951845063636 4.8203573500064838 61.019763925559175 0 1 0 -0.86602541151947299 0 0.49999998660252726 forward_v I I I I #
face $-1 $191 $192 $62 $-1 $193 forward single #
loop $-1 $194 $195 $78 #
cone-surface $-1 -56.860047854438726 6.4819162493615607 5.6920102793668832 0.86602541151947299 0 -0.49999998660252726 0.24999999330126363 0 0.43301270575973649 1 I I 0 1 0.5 forward I I I I #
face $-1 $196 $197 $63 $-1 $198 forward single #
loop $-1 $199 $200 $79 #
cone-surface $-1 -56.860047854438726 8.9742545983941682 5.6920102793668832 0.86602541151947299 0 -0.49999998660252726 0.24999999330126363 0 0.43301270575973649 1 I I 0 1 0.5 forward I I I I #
face $-1 $201 $202 $48 $-1 $203 reversed single #
loop $-1 $-1 $204 $80 #
plane-surface $-1 0 0 -11.18347861264574 0 0 1 1 0 0 forward_v I I I I #
coedge $-1 $205 $206 $207 $208 forward $81 $-1 #
face $-1 $209 $210 $49 $-1 $211 reversed single #
loop $-1 $-1 $212 $83 #
plane-surface $-1 0 -19.762095473817705 -10.68347861264574 0 0 1 1 0 0 forward_v I I I I #
coedge $-1 $213 $214 $215 $216 reversed $84 $-1 #
face $-1 $217 $218 $50 $-1 $219 reversed single #
loop $-1 $-1 $220 $86 #
plane-surface $-1 0 12.339213851181583 9.6834786126457395 0 1 0 0 0 1 forward_v I I I I #
coedge $-1 $221 $222 $223 $224 reversed $87 $-1 #
face $-1 $225 $226 $51 $-1 $227 reversed single #
loop $-1 $-1 $228 $89 #
plane-surface $-1 -23.48328252096119 1.0813166623495434 92.400606582609754 0.71933980857756763 0 0.69465836192734942 0.69465836192734942 0 -0.71933980857756763 forward_v I I I I #
coedge $-1 $229 $230 $231 $232 reversed $90 $-1 #
face $-1 $-1 $233 $52 $-1 $234 forward single #
loop $-1 $235 $236 $92 #
cone-surface $-1 56.288961484223371 -1.2849978248461866 7.1039039416776468 -0.71933980857756763 0 -0.69465836192734942 0.17366459048183736 0 -0.17983495214439191 1 I I -0.70710678118654746 0.70710678118654746 0.25 forward I I I I #
loop $-1 $-1 $237 $68 #
coedge $-1 $148 $148 $238 $239 reversed $93 $-1 #
face $-1 $-1 $240 $53 $-1 $241 forward single #
loop $-1 $242 $243 $95 #
cone-surface $-1 56.288961484223371 1.0813166623495434 7.1039039416776468 -0.71933980857756763 0 -0.69465836192734942 0.17366459048183736 0 -0.17983495214439191 1 I I -0.70710678118654746 0.70710678118654746 0.25 forward I I I I #
loop $-1 $-1 $244 $69 #
coedge $-1 $153 $153 $245 $246 reversed $96 $-1 #
face $-1 $-1 $247 $54 $-1 $248 forward single #
loop $-1 $249 $250 $98 #
cone-surface $-1 56.288961484223371 3.4476311495452734 7.1039039416776468 -0.71933980857756763 0 -0.69465836192734942 0.17366459048183736 0 -0.17983495214439191 1 I I -0.70710678118654746 0.70710678118654746 0.25 forward I I I I #
loop $-1 $-1 $251 $70 #
coedge $-1 $158 $158 $252 $253 reversed $99 $-1 #
face $-1 $254 $255 $55 $-1 $256 reversed single #
loop $-1 $-1 $257 $101 #
plane-surface $-1 -60.319223609118936 -10.749137339427856 0.70054193269055531 -0.86602541151947299 0 0.49999998660252726 0.49999998660252726 0 0.86602541151947299 forward_v I I I I #
coedge $-1 $258 $259 $260 $261 reversed $102 $-1 #
face $-1 $-1 $262 $56 $-1 $263 forward single #
loop $-1 $264 $265 $104 #
cone-surface $-1 -56.210528795799121 -11.995306513944161 5.3170102894149878 0.86602541151947299 0 -0.49999998660252726 0.12499999665063181 0 0.21650635287986825 1 I I -0.70710678118654746 0.70710678118654746 0.25 forward I I I I #
loop $-1 $-1 $266 $72 #
coedge $-1 $167 $167 $267 $268 reversed $105 $-1 #
face $-1 $-1 $269 $57 $-1 $270 forward single #
loop $-1 $271 $272 $107 #
cone-surface $-1 -56.210528795799121 -9.5029681649115503 5.3170102894149878 0.86602541151947299 0 -0.49999998660252726 0.12499999665063181 0 0.21650635287986825 1 I I -0.70710678118654746 0.70710678118654746 0.25 forward I I I I #
loop $-1 $-1 $273 $73 #
coedge $-1 $172 $172 $274 $275 reversed $108 $-1 #
face $-1 $276 $277 $58 $-1 $278 reversed single #
loop $-1 $-1 $279 $110 #
plane-surface $-1 -60.319223609118936 -1.5105259577749948 0.70054193269055531 -0.86602541151947299 0 0.49999998660252726 0.49999998660252726 0 0.86602541151947299 forward_v I I I I #
coedge $-1 $280 $281 $282 $283 reversed $111 $-1 #
face $-1 $-1 $284 $59 $-1 $285 forward single #
loop $-1 $286 $287 $113 #
cone-surface $-1 -56.210528795799121 -2.7566951322912985 5.3170102894149878 0.86602541151947299 0 -0.49999998660252726 0.12499999665063181 0 0.21650635287986825 1 I I -0.70710678118654746 0.70710678118654746 0.25 forward I I I I #
loop $-1 $-1 $288 $75 #
coedge $-1 $181 $181 $289 $290 reversed $114 $-1 #
face $-1 $-1 $291 $60 $-1 $292 forward single #
loop $-1 $293 $294 $116 #
cone-surface $-1 -56.210528795799121 -0.26435678325869105 5.3170102894149878 0.86602541151947299 0 -0.49999998660252726 0.12499999665063181 0 0.21650635287986825 1 I I -0.70710678118654746 0.70710678118654746 0.25 forward I I I I #
loop $-1 $-1 $295 $76 #
coedge $-1 $186 $186 $296 $297 reversed $117 $-1 #
face $-1 $298 $299 $61 $-1 $300 reversed single #
loop $-1 $-1 $301 $119 #
plane-surface $-1 -60.319223609118936 7.7280854238778645 0.70054193269055531 -0.86602541151947299 0 0.49999998660252726 0.49999998660252726 0 0.86602541151947299 forward_v I I I I #
coedge $-1 $302 $303 $304 $305 reversed $120 $-1 #
face $-1 $-1 $306 $62 $-1 $307 forward single #
loop $-1 $308 $309 $122 #
cone-surface $-1 -56.210528795799121 6.4819162493615607 5.3170102894149878 0.86602541151947299 0 -0.49999998660252726 0.12499999665063181 0 0.21650635287986825 1 I I -0.70710678118654746 0.70710678118654746 0.25 forward I I I I #
loop $-1 $-1 $310 $78 #
coedge $-1 $195 $195 $311 $312 reversed $123 $-1 #
face $-1 $-1 $313 $63 $-1 $314 forward single #
loop $-1 $315 $316 $125 #
cone-surface $-1 -56.210528795799121 8.9742545983941682 5.3170102894149878 0.86602541151947299 0 -0.49999998660252726 0.12499999665063181 0 0.21650635287986825 1 I I -0.70710678118654746 0.70710678118654746 0.25 forward I I I I #
loop $-1 $-1 $317 $79 #
coedge $-1 $200 $200 $318 $319 reversed $126 $-1 #
face $-1 $320 $321 $48 $-1 $322 reversed single #
loop $-1 $-1 $323 $128 #
plane-surface $-1 0 -24.147570653858409 0 0 1 0 0 0 1 forward_v I I I I #
coedge $-1 $324 $325 $326 $327 forward $129 $-1 #
coedge $-1 $328 $131 $329 $330 forward $81 $-1 #
coedge $-1 $131 $328 $331 $332 forward $81 $-1 #
coedge $-1 $333 $334 $131 $208 reversed $335 $-1 #
edge $-1 $336 -24.147570653858409 $337 24.147570653858409 $207 $338 forward 7 unknown #
face $-1 $339 $340 $49 $-1 $341 reversed single #
loop $-1 $-1 $342 $132 #
plane-surface $-1 0 -15.376620293777002 -7.5801801939476174 0 -1 0 0 0 -1 forward_v I I I I #
coedge $-1 $343 $344 $345 $346 reversed $133 $-1 #
coedge $-1 $347 $135 $348 $349 forward $84 $-1 #
coedge $-1 $135 $347 $350 $351 reversed $84 $-1 #
coedge $-1 $352 $353 $135 $216 forward $354 $-1 #
edge $-1 $355 5.4955725568681491 $356 14.266522916949556 $215 $357 forward 7 unknown #
face $-1 $358 $359 $50 $-1 $360 reversed single #
loop $-1 $-1 $361 $136 #
plane-surface $-1 60.319223609118929 0 0 -1 0 0 0 0 1 forward_v I I I I #
coedge $-1 $362 $363 $364 $365 reversed $137 $-1 #
coedge $-1 $366 $139 $362 $367 forward $87 $-1 #
coedge $-1 $139 $366 $368 $369 reversed $87 $-1 #
coedge $-1 $370 $361 $139 $224 forward $218 $-1 #
edge $-1 $371 3.2175177249215849 $372 15.025874527598411 $223 $373 forward 7 unknown #
face $-1 $374 $375 $51 $-1 $376 forward single #
loop $-1 $-1 $377 $140 #
plane-surface $-1 63.296755008101023 -2.8625408163100072 176.20311271268986 0 1 0 0.71933980857756763 0 0.69465836192734942 forward_v I I I I #
coedge $-1 $378 $379 $380 $381 reversed $141 $-1 #
coedge $-1 $230 $143 $382 $383 reversed $90 $-1 #
coedge $-1 $143 $229 $378 $384 reversed $90 $-1 #
coedge $-1 $380 $385 $143 $232 forward $375 $-1 #
edge $-1 $386 -28.670846105068417 $387 -23.2988069160869 $231 $388 forward 7 unknown #
loop $-1 $-1 $238 $144 #
plane-surface $-1 -23.48328252096119 1.0813166623495434 92.400606582609754 0.71933980857756763 0 0.69465836192734942 0.69465836192734942 0 -0.71933980857756763 forward_v I I I I #
loop $-1 $-1 $389 $92 #
coedge $-1 $236 $236 $237 $390 reversed $145 $-1 #
coedge $-1 $237 $237 $236 $390 forward $147 $-1 #
coedge $-1 $238 $238 $148 $239 forward $233 $-1 #
edge $-1 $391 0 $391 6.2831853071796004 $238 $392 forward 7 unknown #
loop $-1 $-1 $245 $149 #
plane-surface $-1 -23.48328252096119 1.0813166623495434 92.400606582609754 0.71933980857756763 0 0.69465836192734942 0.69465836192734942 0 -0.71933980857756763 forward_v I I I I #
loop $-1 $-1 $393 $95 #
coedge $-1 $243 $243 $244 $394 reversed $150 $-1 #
coedge $-1 $244 $244 $243 $394 forward $152 $-1 #
coedge $-1 $245 $245 $153 $246 forward $240 $-1 #
edge $-1 $395 0 $395 6.2831853071796004 $245 $396 forward 7 unknown #
loop $-1 $-1 $252 $154 #
plane-surface $-1 -23.48328252096119 1.0813166623495434 92.400606582609754 0.71933980857756763 0 0.69465836192734942 0.69465836192734942 0 -0.71933980857756763 forward_v I I I I #
loop $-1 $-1 $397 $98 #
coedge $-1 $250 $250 $251 $398 reversed $155 $-1 #
coedge $-1 $251 $251 $250 $398 forward $157 $-1 #
coedge $-1 $252 $252 $158 $253 forward $247 $-1 #
edge $-1 $399 0 $399 6.2831853071796004 $252 $400 forward 7 unknown #
face $-1 $401 $402 $55 $-1 $403 reversed single #
loop $-1 $-1 $404 $159 #
plane-surface $-1 -164.7951845063636 -7.8414092655564751 61.019763925559175 0 -1 0 0.86602541151947299 0 -0.49999998660252726 forward_v I I I I #
coedge $-1 $405 $406 $407 $408 reversed $160 $-1 #
coedge $-1 $259 $162 $409 $410 reversed $102 $-1 #
coedge $-1 $162 $258 $405 $411 reversed $102 $-1 #
coedge $-1 $407 $412 $162 $261 forward $413 $-1 #
edge $-1 $414 22.07836864406287 $415 28.130694741903788 $260 $416 forward 7 unknown #
loop $-1 $-1 $267 $163 #
plane-surface $-1 -60.319223609118936 -10.749137339427856 0.70054193269055531 -0.86602541151947299 0 0.49999998660252726 0.49999998660252726 0 0.86602541151947299 forward_v I I I I #
loop $-1 $-1 $417 $104 #
coedge $-1 $265 $265 $266 $418 reversed $164 $-1 #
coedge $-1 $266 $266 $265 $418 forward $166 $-1 #
coedge $-1 $267 $267 $167 $268 forward $262 $-1 #
edge $-1 $419 0 $419 6.2831853071796004 $267 $420 forward 7 unknown #
loop $-1 $-1 $274 $168 #
plane-surface $-1 -60.319223609118936 -10.749137339427856 0.70054193269055531 -0.86602541151947299 0 0.49999998660252726 0.49999998660252726 0 0.86602541151947299 forward_v I I I I #
loop $-1 $-1 $421 $107 #
coedge $-1 $272 $272 $273 $422 reversed $169 $-1 #
coedge $-1 $273 $273 $272 $422 forward $171 $-1 #
coedge $-1 $274 $274 $172 $275 forward $269 $-1 #
edge $-1 $423 0 $423 6.2831853071796004 $274 $424 forward 7 unknown #
face $-1 $425 $426 $58 $-1 $427 forward single #
loop $-1 $-1 $428 $173 #
plane-surface $-1 -164.7951845063636 1.3972021160963859 61.019763925559175 0 -1 0 0.86602541151947299 0 -0.49999998660252726 forward_v I I I I #
coedge $-1 $429 $430 $431 $432 reversed $174 $-1 #
coedge $-1 $281 $176 $433 $434 reversed $111 $-1 #
coedge $-1 $176 $280 $429 $435 reversed $111 $-1 #
coedge $-1 $431 $436 $176 $283 forward $426 $-1 #
edge $-1 $437 22.07836864406287 $438 28.130694741903788 $282 $439 forward 7 unknown #
loop $-1 $-1 $289 $177 #
plane-surface $-1 -60.319223609118936 -1.5105259577749948 0.70054193269055531 -0.86602541151947299 0 0.49999998660252726 0.49999998660252726 0 0.86602541151947299 forward_v I I I I #
loop $-1 $-1 $440 $113 #
coedge $-1 $287 $287 $288 $441 reversed $178 $-1 #
coedge $-1 $288 $288 $287 $441 forward $180 $-1 #
coedge $-1 $289 $289 $181 $290 forward $284 $-1 #
edge $-1 $442 0 $442 6.2831853071796004 $289 $443 forward 7 unknown #
loop $-1 $-1 $296 $182 #
plane-surface $-1 -60.319223609118936 -1.5105259577749948 0.70054193269055531 -0.86602541151947299 0 0.49999998660252726 0.49999998660252726 0 0.86602541151947299 forward_v I I I I #
loop $-1 $-1 $444 $116 #
coedge $-1 $294 $294 $295 $445 reversed $183 $-1 #
coedge $-1 $295 $295 $294 $445 forward $185 $-1 #
coedge $-1 $296 $296 $186 $297 forward $291 $-1 #
edge $-1 $446 0 $446 6.2831853071796004 $296 $447 forward 7 unknown #
face $-1 $448 $449 $61 $-1 $450 forward single #
loop $-1 $-1 $451 $187 #
plane-surface $-1 -164.7951845063636 10.635813497749245 61.019763925559175 0 -1 0 0.86602541151947299 0 -0.49999998660252726 forward_v I I I I #
coedge $-1 $452 $453 $454 $455 reversed $188 $-1 #
coedge $-1 $303 $190 $456 $457 reversed $120 $-1 #
coedge $-1 $190 $302 $452 $458 reversed $120 $-1 #
coedge $-1 $454 $459 $190 $305 forward $449 $-1 #
edge $-1 $460 22.07836864406287 $461 28.130694741903788 $304 $462 forward 7 unknown #
loop $-1 $-1 $311 $191 #
plane-surface $-1 -60.319223609118936 7.7280854238778645 0.70054193269055531 -0.86602541151947299 0 0.49999998660252726 0.49999998660252726 0 0.86602541151947299 forward_v I I I I #
loop $-1 $-1 $463 $122 #
coedge $-1 $309 $309 $310 $464 reversed $192 $-1 #
coedge $-1 $310 $310 $309 $464 forward $194 $-1 #
coedge $-1 $311 $311 $195 $312 forward $306 $-1 #
edge $-1 $465 0 $465 6.2831853071796004 $311 $466 forward 7 unknown #
loop $-1 $-1 $318 $196 #
plane-surface $-1 -60.319223609118936 7.7280854238778645 0.70054193269055531 -0.86602541151947299 0 0.49999998660252726 0.49999998660252726 0 0.86602541151947299 forward_v I I I I #
loop $-1 $-1 $467 $125 #
coedge $-1 $316 $316 $317 $468 reversed $197 $-1 #
coedge $-1 $317 $317 $316 $468 forward $199 $-1 #
coedge $-1 $318 $318 $200 $319 forward $313 $-1 #
edge $-1 $469 0 $469 6.2831853071796004 $318 $470 forward 7 unknown #
face $-1 $471 $472 $48 $-1 $473 reversed single #
loop $-1 $-1 $474 $201 #
plane-surface $-1 -60.319223609118929 0 0 1 0 0 0 0 -1 forward_v I I I I #
coedge $-1 $475 $331 $476 $477 forward $202 $-1 #
coedge $-1 $478 $204 $475 $479 forward $129 $-1 #
coedge $-1 $204 $478 $480 $481 forward $129 $-1 #
coedge $-1 $334 $333 $204 $327 reversed $335 $-1 #
edge $-1 $482 -24.147570653858409 $483 24.147570653858409 $326 $484 forward 7 unknown #
coedge $-1 $206 $205 $485 $486 forward $81 $-1 #
coedge $-1 $487 $488 $205 $330 reversed $472 $-1 #
edge $-1 $337 -60.319223609118929 $489 60.319223609118929 $329 $490 forward 7 unknown #
coedge $-1 $323 $491 $206 $332 reversed $202 $-1 #
edge $-1 $492 -60.319223609118929 $336 60.319223609118929 $331 $493 forward 7 unknown #
coedge $-1 $326 $207 $491 $494 forward $335 $-1 #
coedge $-1 $207 $326 $487 $495 reversed $335 $-1 #
loop $-1 $-1 $333 $471 #
vertex $-1 $208 $496 #
vertex $-1 $208 $497 #
straight-curve $-1 60.319223609118929 0 11.18347861264574 0 1 0 I I #
face $-1 $498 $499 $49 $-1 $500 reversed single #
loop $-1 $-1 $501 $209 #
plane-surface $-1 -60.319223609118929 0 0 1 0 0 0 0 -1 forward_v I I I I #
coedge $-1 $502 $348 $353 $503 reversed $210 $-1 #
coedge $-1 $504 $212 $505 $506 reversed $133 $-1 #
coedge $-1 $212 $504 $502 $507 forward $133 $-1 #
coedge $-1 $353 $352 $212 $346 forward $354 $-1 #
edge $-1 $508 -14.266522916949556 $509 -5.4955725568681491 $345 $510 forward 7 unknown #
coedge $-1 $214 $213 $501 $511 reversed $84 $-1 #
coedge $-1 $342 $512 $213 $349 reversed $210 $-1 #
edge $-1 $355 -60.319223609118929 $513 60.319223609118929 $348 $514 forward 7 unknown #
coedge $-1 $515 $516 $214 $351 forward $499 $-1 #
edge $-1 $356 -60.319223609118929 $517 60.319223609118929 $350 $518 forward 7 unknown #
coedge $-1 $345 $215 $516 $519 forward $354 $-1 #
coedge $-1 $215 $345 $342 $503 forward $354 $-1 #
loop $-1 $-1 $215 $498 #
vertex $-1 $216 $520 #
vertex $-1 $519 $521 #
straight-curve $-1 60.319223609118929 -9.8810477369088527 -4.4768817752494954 0 -1 0 I I #
face $-1 $522 $523 $50 $-1 $524 forward single #
loop $-1 $-1 $368 $217 #
plane-surface $-1 0 24.147570653858409 0 0 -1 0 0 0 -1 forward_v I I I I #
coedge $-1 $223 $525 $526 $527 forward $218 $-1 #
coedge $-1 $526 $220 $221 $367 reversed $137 $-1 #
coedge $-1 $220 $526 $528 $529 reversed $137 $-1 #
coedge $-1 $530 $531 $220 $365 forward $532 $-1 #
edge $-1 $533 3.3417393063228698 $534 6.3417393063228698 $364 $535 forward 7 unknown #
coedge $-1 $222 $221 $531 $536 reversed $87 $-1 #
edge $-1 $371 -60.319223609118929 $533 60.319223609118929 $362 $537 forward 7 unknown #
coedge $-1 $538 $539 $222 $369 forward $359 $-1 #
edge $-1 $372 -60.319223609118929 $540 60.319223609118929 $368 $541 forward 7 unknown #
coedge $-1 $525 $223 $539 $542 reversed $218 $-1 #
vertex $-1 $224 $543 #
vertex $-1 $369 $544 #
straight-curve $-1 60.319223609118929 9.121696126259998 8.1834786126457395 0 1 0 I I #
face $-1 $-1 $545 $51 $-1 $546 reversed single #
loop $-1 $-1 $231 $225 #
plane-surface $-1 0 0 11.18347861264574 0 0 1 1 0 0 forward_v I I I I #
coedge $-1 $547 $548 $549 $550 reversed $226 $-1 #
coedge $-1 $551 $228 $230 $384 forward $141 $-1 #
coedge $-1 $228 $551 $547 $552 forward $141 $-1 #
coedge $-1 $549 $231 $228 $381 forward $375 $-1 #
edge $-1 $387 -4.4845158098343223 $553 3.4031991474847789 $380 $554 forward 7 unknown #
coedge $-1 $555 $556 $229 $383 forward $545 $-1 #
edge $-1 $557 -82.480987302797388 $386 -76.918077743699186 $382 $558 forward 7 unknown #
edge $-1 $387 112.90509297763441 $557 120.63844721823787 $230 $559 forward 7 unknown #
coedge $-1 $231 $549 $555 $560 forward $375 $-1 #
vertex $-1 $383 $561 #
vertex $-1 $232 $562 #
straight-curve $-1 31.648377504050512 5.025174141009094 11.183478612645743 -1 0 0 I I #
coedge $-1 $389 $389 $-1 $563 reversed $235 $-1 #
edge $-1 $564 0 $564 6.2831853071796004 $236 $565 forward 7 unknown #
vertex $-1 $239 $566 #
ellipse-curve $-1 57.63320401462817 -1.2849978248461866 8.4020238330966368 0.71933980857756763 0 0.69465836192734942 0.34732918096367471 0 -0.35966990428878381 1 I I #
coedge $-1 $393 $393 $-1 $567 reversed $242 $-1 #
edge $-1 $568 0 $568 6.2831853071796004 $243 $569 forward 7 unknown #
vertex $-1 $246 $570 #
ellipse-curve $-1 57.63320401462817 1.0813166623495434 8.4020238330966368 0.71933980857756763 0 0.69465836192734942 0.34732918096367471 0 -0.35966990428878381 1 I I #
coedge $-1 $397 $397 $-1 $571 reversed $249 $-1 #
edge $-1 $572 0 $572 6.2831853071796004 $250 $573 forward 7 unknown #
vertex $-1 $253 $574 #
ellipse-curve $-1 57.63320401462817 3.4476311495452734 8.4020238330966368 0.71933980857756763 0 0.69465836192734942 0.34732918096367471 0 -0.35966990428878381 1 I I #
face $-1 $-1 $413 $55 $-1 $575 forward single #
loop $-1 $-1 $576 $254 #
plane-surface $-1 -60.319223609118929 0 0 1 0 0 0 0 -1 forward_v I I I I #
coedge $-1 $577 $578 $579 $580 reversed $255 $-1 #
coedge $-1 $581 $257 $259 $411 forward $160 $-1 #
coedge $-1 $257 $581 $577 $582 forward $160 $-1 #
coedge $-1 $579 $260 $257 $408 forward $413 $-1 #
edge $-1 $415 -8.2822967435853094 $583 -2.4668405958425472 $407 $584 forward 7 unknown #
coedge $-1 $585 $586 $258 $410 forward $402 $-1 #
edge $-1 $587 -29.809340030089022 $414 -19.326403350133848 $409 $588 forward 7 unknown #
edge $-1 $415 -12.104652520025356 $587 -1.4225156588357017e-014 $259 $589 forward 7 unknown #
coedge $-1 $260 $579 $585 $590 forward $413 $-1 #
loop $-1 $-1 $579 $401 #
vertex $-1 $410 $591 #
vertex $-1 $261 $592 #
straight-curve $-1 -82.397592253181799 -13.656865413299236 11.18347861264574 1 0 0 I I #
coedge $-1 $417 $417 $-1 $593 reversed $264 $-1 #
edge $-1 $594 0 $594 6.2831853071796004 $265 $595 forward 7 unknown #
vertex $-1 $268 $596 #
ellipse-curve $-1 -57.293060560198469 -11.995306513944161 5.9420102726681518 -0.86602541151947299 0 0.49999998660252726 0.24999999330126363 0 0.43301270575973649 1 I I #
coedge $-1 $421 $421 $-1 $597 reversed $271 $-1 #
edge $-1 $598 0 $598 6.2831853071796004 $272 $599 forward 7 unknown #
vertex $-1 $275 $600 #
ellipse-curve $-1 -57.293060560198469 -9.5029681649115503 5.9420102726681518 -0.86602541151947299 0 0.49999998660252726 0.24999999330126363 0 0.43301270575973649 1 I I #
face $-1 $-1 $601 $58 $-1 $602 reversed single #
loop $-1 $-1 $282 $276 #
plane-surface $-1 0 0 11.18347861264574 0 0 1 1 0 0 forward_v I I I I #
coedge $-1 $603 $604 $605 $606 reversed $277 $-1 #
coedge $-1 $607 $279 $281 $435 forward $174 $-1 #
coedge $-1 $279 $607 $603 $608 forward $174 $-1 #
coedge $-1 $605 $282 $279 $432 forward $426 $-1 #
edge $-1 $438 -3.662991052758878 $609 2.1524650949838833 $431 $610 forward 7 unknown #
coedge $-1 $611 $612 $280 $434 forward $601 $-1 #
edge $-1 $613 -29.809340030089022 $437 -19.326403350133848 $433 $614 forward 7 unknown #
edge $-1 $438 -12.104652520025356 $613 -1.4225156588357017e-014 $281 $615 forward 7 unknown #
coedge $-1 $282 $605 $611 $616 forward $426 $-1 #
vertex $-1 $283 $617 #
vertex $-1 $283 $618 #
straight-curve $-1 -82.397592253181799 -4.4182540316463754 11.18347861264574 1 0 0 I I #
coedge $-1 $440 $440 $-1 $619 reversed $286 $-1 #
edge $-1 $620 0 $620 6.2831853071796004 $287 $621 forward 7 unknown #
vertex $-1 $290 $622 #
ellipse-curve $-1 -57.293060560198469 -2.7566951322912985 5.9420102726681518 -0.86602541151947299 0 0.49999998660252726 0.24999999330126363 0 0.43301270575973649 1 I I #
coedge $-1 $444 $444 $-1 $623 reversed $293 $-1 #
edge $-1 $624 0 $624 6.2831853071796004 $294 $625 forward 7 unknown #
vertex $-1 $297 $626 #
ellipse-curve $-1 -57.293060560198469 -0.26435678325869105 5.9420102726681518 -0.86602541151947299 0 0.49999998660252726 0.24999999330126363 0 0.43301270575973649 1 I I #
face $-1 $-1 $627 $61 $-1 $628 reversed single #
loop $-1 $-1 $304 $298 #
plane-surface $-1 0 0 11.18347861264574 0 0 1 1 0 0 forward_v I I I I #
coedge $-1 $629 $630 $631 $632 reversed $299 $-1 #
coedge $-1 $633 $301 $303 $458 forward $188 $-1 #
coedge $-1 $301 $633 $629 $634 forward $188 $-1 #
coedge $-1 $631 $304 $301 $455 forward $449 $-1 #
edge $-1 $461 0.95631463806755157 $635 6.7717707858103129 $454 $636 forward 7 unknown #
coedge $-1 $637 $638 $302 $457 forward $627 $-1 #
edge $-1 $639 -29.809340030089022 $460 -19.326403350133848 $456 $640 forward 7 unknown #
edge $-1 $461 -12.104652520025356 $639 -1.4225156588357017e-014 $303 $641 forward 7 unknown #
coedge $-1 $304 $631 $637 $642 forward $449 $-1 #
vertex $-1 $305 $643 #
vertex $-1 $305 $644 #
straight-curve $-1 -82.397592253181799 4.8203573500064838 11.18347861264574 1 0 0 I I #
coedge $-1 $463 $463 $-1 $645 reversed $308 $-1 #
edge $-1 $646 0 $646 6.2831853071796004 $309 $647 forward 7 unknown #
vertex $-1 $312 $648 #
ellipse-curve $-1 -57.293060560198469 6.4819162493615607 5.9420102726681518 -0.86602541151947299 0 0.49999998660252726 0.24999999330126363 0 0.43301270575973649 1 I I #
coedge $-1 $467 $467 $-1 $649 reversed $315 $-1 #
edge $-1 $650 0 $650 6.2831853071796004 $316 $651 forward 7 unknown #
vertex $-1 $319 $652 #
ellipse-curve $-1 -57.293060560198469 8.9742545983941682 5.9420102726681518 -0.86602541151947299 0 0.49999998660252726 0.24999999330126363 0 0.43301270575973649 1 I I #
face $-1 $-1 $335 $48 $-1 $653 reversed single #
loop $-1 $-1 $487 $320 #
plane-surface $-1 0 24.147570653858409 0 0 -1 0 0 0 -1 forward_v I I I I #
coedge $-1 $654 $485 $488 $655 forward $321 $-1 #
coedge $-1 $491 $323 $324 $479 reversed $202 $-1 #
coedge $-1 $485 $654 $323 $477 reversed $321 $-1 #
edge $-1 $492 -11.18347861264574 $656 11.18347861264574 $476 $657 forward 7 unknown #
coedge $-1 $325 $324 $654 $658 forward $129 $-1 #
edge $-1 $483 -60.319223609118929 $656 60.319223609118929 $475 $659 forward 7 unknown #
coedge $-1 $488 $487 $325 $481 reversed $472 $-1 #
edge $-1 $660 -60.319223609118929 $482 60.319223609118929 $480 $661 forward 7 unknown #
vertex $-1 $327 $662 #
vertex $-1 $494 $663 #
straight-curve $-1 60.319223609118929 0 -11.18347861264574 0 -1 0 I I #
coedge $-1 $474 $476 $328 $486 reversed $321 $-1 #
edge $-1 $489 -24.147570653858409 $492 24.147570653858409 $485 $664 forward 7 unknown #
coedge $-1 $480 $329 $334 $495 forward $472 $-1 #
coedge $-1 $329 $480 $474 $655 reversed $472 $-1 #
vertex $-1 $330 $665 #
straight-curve $-1 0 24.147570653858409 11.18347861264574 -1 0 0 I I #
coedge $-1 $331 $475 $333 $494 reversed $202 $-1 #
vertex $-1 $486 $666 #
straight-curve $-1 0 -24.147570653858409 11.18347861264574 1 0 0 I I #
edge $-1 $336 -11.18347861264574 $483 11.18347861264574 $333 $667 forward 7 unknown #
edge $-1 $337 -11.18347861264574 $482 11.18347861264574 $334 $668 forward 7 unknown #
point $-1 60.319223609118929 -24.147570653858409 11.18347861264574 #
point $-1 60.319223609118929 24.147570653858409 11.18347861264574 #
face $-1 $-1 $354 $49 $-1 $669 reversed single #
loop $-1 $-1 $350 $339 #
plane-surface $-1 0 -24.147570653858409 0 0 1 0 0 0 1 forward_v I I I I #
coedge $-1 $670 $671 $347 $511 forward $340 $-1 #
coedge $-1 $512 $342 $344 $507 reversed $210 $-1 #
edge $-1 $509 -6.8933885156719308 $355 -0.68679167827568666 $353 $672 forward 7 unknown #
coedge $-1 $344 $343 $673 $674 reversed $133 $-1 #
coedge $-1 $516 $515 $343 $506 forward $499 $-1 #
edge $-1 $675 -60.319223609118929 $508 60.319223609118929 $505 $676 forward 7 unknown #
edge $-1 $677 -60.319223609118929 $509 60.319223609118929 $502 $678 forward 7 unknown #
vertex $-1 $506 $679 #
vertex $-1 $346 $680 #
straight-curve $-1 60.319223609118929 -9.8810477369088527 -10.68347861264574 0 1 0 I I #
edge $-1 $517 -14.266522916949556 $513 -5.4955725568681491 $501 $681 forward 7 unknown #
coedge $-1 $348 $502 $670 $682 reversed $210 $-1 #
vertex $-1 $511 $683 #
straight-curve $-1 0 -15.376620293777002 -4.4768817752494954 -1 0 0 I I #
coedge $-1 $505 $350 $671 $684 forward $499 $-1 #
coedge $-1 $350 $505 $352 $519 reversed $499 $-1 #
vertex $-1 $684 $685 #
straight-curve $-1 0 -24.147570653858409 -4.4768817752494954 -1 0 0 I I #
edge $-1 $356 4.4768817752494954 $508 10.68347861264574 $352 $686 forward 7 unknown #
point $-1 60.319223609118929 -15.376620293777002 -4.4768817752494954 #
point $-1 60.319223609118929 -24.147570653858409 -4.4768817752494954 #
face $-1 $-1 $532 $50 $-1 $687 reversed single #
loop $-1 $-1 $528 $358 #
plane-surface $-1 0 0 11.18347861264574 0 0 1 1 0 0 forward_v I I I I #
coedge $-1 $361 $370 $688 $689 reversed $218 $-1 #
coedge $-1 $363 $362 $361 $527 reversed $137 $-1 #
edge $-1 $690 -6.3417393063228698 $371 -3.3417393063228698 $361 $691 forward 7 unknown #
coedge $-1 $688 $692 $363 $529 forward $523 $-1 #
edge $-1 $534 -60.319223609118929 $690 60.319223609118929 $528 $693 forward 7 unknown #
coedge $-1 $694 $364 $692 $695 reversed $532 $-1 #
coedge $-1 $364 $694 $366 $536 forward $532 $-1 #
loop $-1 $-1 $364 $522 #
vertex $-1 $536 $696 #
vertex $-1 $365 $697 #
straight-curve $-1 -60.319223609118929 12.339213851181583 4.8417393063228698 0 0 1 I I #
edge $-1 $540 -15.025874527598411 $533 -3.2175177249215849 $531 $698 forward 7 unknown #
straight-curve $-1 0 12.339213851181583 8.1834786126457395 -1 0 0 I I #
coedge $-1 $699 $368 $694 $700 reversed $359 $-1 #
coedge $-1 $368 $699 $370 $542 forward $359 $-1 #
vertex $-1 $369 $701 #
straight-curve $-1 0 24.147570653858409 8.1834786126457395 -1 0 0 I I #
edge $-1 $702 -11.18347861264574 $372 -8.1834786126457395 $370 $703 forward 7 unknown #
point $-1 60.319223609118929 12.339213851181583 8.1834786126457395 #
point $-1 60.319223609118929 24.147570653858409 8.1834786126457395 #
loop $-1 $-1 $382 $374 #
plane-surface $-1 60.319223609118929 0 0 -1 0 0 0 0 1 forward_v I I I I #
coedge $-1 $548 $377 $379 $552 reversed $226 $-1 #
coedge $-1 $377 $547 $704 $705 reversed $226 $-1 #
coedge $-1 $385 $380 $377 $550 forward $375 $-1 #
edge $-1 $553 23.2988069160869 $706 28.670846105068417 $549 $707 forward 7 unknown #
coedge $-1 $379 $378 $556 $708 reversed $141 $-1 #
edge $-1 $709 -120.63844721823787 $553 -112.90509297763441 $547 $710 forward 7 unknown #
vertex $-1 $381 $711 #
straight-curve $-1 54.947184420137404 0.54065833117477169 11.183478612645757 0 -1 0 I I #
coedge $-1 $704 $382 $385 $560 reversed $545 $-1 #
coedge $-1 $382 $704 $551 $708 forward $545 $-1 #
vertex $-1 $383 $712 #
straight-curve $-1 60.319223609118929 5.025174141009094 88.101556356344929 0 0 1 I I #
straight-curve $-1 -23.48328252096119 5.025174141009094 92.400606582609754 0.69465836192734942 0 -0.71933980857756763 I I #
edge $-1 $706 -2.8625408163100072 $386 5.025174141009094 $555 $713 forward 7 unknown #
point $-1 60.319223609118929 5.025174141009094 11.18347861264574 #
point $-1 54.947184420137411 5.025174141009094 11.183478612645743 #
edge $-1 $714 1 $714 0 $389 $-1 forward 7 unknown #
vertex $-1 $390 $715 #
ellipse-curve $-1 56.468796436367761 -1.2849978248461866 7.2775685321594841 0.71933980857756763 0 0.69465836192734942 0.34732918096367471 0 -0.35966990428878381 1 I I #
point $-1 57.980533195591839 -1.2849978248461866 8.0423539288078505 #
edge $-1 $716 1 $716 0 $393 $-1 forward 7 unknown #
vertex $-1 $394 $717 #
ellipse-curve $-1 56.468796436367761 1.0813166623495434 7.2775685321594841 0.71933980857756763 0 0.69465836192734942 0.34732918096367471 0 -0.35966990428878381 1 I I #
point $-1 57.980533195591839 1.0813166623495434 8.0423539288078505 #
edge $-1 $718 1 $718 0 $397 $-1 forward 7 unknown #
vertex $-1 $398 $719 #
ellipse-curve $-1 56.468796436367761 3.4476311495452734 7.2775685321594841 0.71933980857756763 0 0.69465836192734942 0.34732918096367471 0 -0.35966990428878381 1 I I #
point $-1 57.980533195591839 3.4476311495452734 8.0423539288078505 #
plane-surface $-1 0 0 11.18347861264574 0 0 1 1 0 0 forward_v I I I I #
coedge $-1 $586 $585 $578 $720 forward $402 $-1 #
coedge $-1 $578 $404 $406 $582 reversed $255 $-1 #
coedge $-1 $404 $577 $576 $720 reversed $255 $-1 #
coedge $-1 $412 $407 $404 $580 forward $413 $-1 #
edge $-1 $583 -28.130694741903788 $721 -22.07836864406287 $579 $722 forward 7 unknown #
coedge $-1 $406 $405 $586 $723 reversed $160 $-1 #
edge $-1 $724 1.4225156588357017e-014 $583 12.104652520025356 $577 $725 forward 7 unknown #
vertex $-1 $408 $726 #
straight-curve $-1 -54.26689751127801 -5.3745686697139279 11.18347861264574 0 1 0 I I #
coedge $-1 $576 $409 $412 $590 reversed $402 $-1 #
coedge $-1 $409 $576 $581 $723 forward $402 $-1 #
vertex $-1 $410 $727 #
straight-curve $-1 -60.319223609118929 -13.656865413299236 30.509881962779588 0 0 1 I I #
straight-curve $-1 -60.319223609118936 -13.656865413299236 0.70054193269055531 -0.49999998660252726 0 -0.86602541151947299 I I #
edge $-1 $721 7.8414092655564751 $414 13.656865413299236 $585 $728 forward 7 unknown #
point $-1 -60.319223609118929 -13.656865413299236 11.18347861264574 #
point $-1 -54.26689751127801 -13.656865413299236 11.18347861264574 #
edge $-1 $729 1 $729 0 $417 $-1 forward 7 unknown #
vertex $-1 $418 $730 #
ellipse-curve $-1 -56.427035148678989 -11.995306513944161 5.4420102860656199 -0.86602541151947299 0 0.49999998660252726 0.24999999330126363 0 0.43301270575973649 1 I I #
point $-1 -57.043060566897196 -11.995306513944161 6.3750229784278831 #
edge $-1 $731 1 $731 0 $421 $-1 forward 7 unknown #
vertex $-1 $422 $732 #
ellipse-curve $-1 -56.427035148678989 -9.5029681649115503 5.4420102860656199 -0.86602541151947299 0 0.49999998660252726 0.24999999330126363 0 0.43301270575973649 1 I I #
point $-1 -57.043060566897196 -9.5029681649115503 6.3750229784278831 #
loop $-1 $-1 $433 $425 #
plane-surface $-1 -60.319223609118929 0 0 1 0 0 0 0 -1 forward_v I I I I #
coedge $-1 $604 $428 $430 $608 reversed $277 $-1 #
coedge $-1 $428 $603 $733 $734 reversed $277 $-1 #
coedge $-1 $436 $431 $428 $606 forward $426 $-1 #
edge $-1 $609 -28.130694741903788 $735 -22.07836864406287 $605 $736 forward 7 unknown #
coedge $-1 $430 $429 $612 $737 reversed $174 $-1 #
edge $-1 $738 1.4225156588357017e-014 $609 12.104652520025356 $603 $739 forward 7 unknown #
vertex $-1 $432 $740 #
straight-curve $-1 -54.26689751127801 -0.75526297888749738 11.18347861264574 0 1 0 I I #
coedge $-1 $733 $433 $436 $616 reversed $601 $-1 #
coedge $-1 $433 $733 $607 $737 forward $601 $-1 #
vertex $-1 $434 $741 #
straight-curve $-1 -60.319223609118929 -4.4182540316463754 30.509881962779588 0 0 1 I I #
straight-curve $-1 -60.319223609118936 -4.4182540316463754 0.70054193269055531 -0.49999998660252726 0 -0.86602541151947299 I I #
edge $-1 $735 -1.3972021160963859 $437 4.4182540316463754 $611 $742 forward 7 unknown #
point $-1 -60.319223609118929 -4.4182540316463754 11.18347861264574 #
point $-1 -54.26689751127801 -4.4182540316463754 11.18347861264574 #
edge $-1 $743 1 $743 0 $440 $-1 forward 7 unknown #
vertex $-1 $441 $744 #
ellipse-curve $-1 -56.427035148678989 -2.7566951322912985 5.4420102860656199 -0.86602541151947299 0 0.49999998660252726 0.24999999330126363 0 0.43301270575973649 1 I I #
point $-1 -57.043060566897196 -2.7566951322912985 6.3750229784278831 #
edge $-1 $745 1 $745 0 $444 $-1 forward 7 unknown #
vertex $-1 $445 $746 #
ellipse-curve $-1 -56.427035148678989 -0.26435678325869105 5.4420102860656199 -0.86602541151947299 0 0.49999998660252726 0.24999999330126363 0 0.43301270575973649 1 I I #
point $-1 -57.043060566897196 -0.26435678325869105 6.3750229784278831 #
loop $-1 $-1 $456 $448 #
plane-surface $-1 -60.319223609118929 0 0 1 0 0 0 0 -1 forward_v I I I I #
coedge $-1 $630 $451 $453 $634 reversed $299 $-1 #
coedge $-1 $451 $629 $747 $748 reversed $299 $-1 #
coedge $-1 $459 $454 $451 $632 forward $449 $-1 #
edge $-1 $635 -28.130694741903788 $749 -22.07836864406287 $631 $750 forward 7 unknown #
coedge $-1 $453 $452 $638 $751 reversed $188 $-1 #
edge $-1 $752 1.4225156588357017e-014 $635 12.104652520025356 $629 $753 forward 7 unknown #
vertex $-1 $455 $754 #
straight-curve $-1 -54.26689751127801 3.8640427119389322 11.18347861264574 0 1 0 I I #
coedge $-1 $747 $456 $459 $642 reversed $627 $-1 #
coedge $-1 $456 $747 $633 $751 forward $627 $-1 #
vertex $-1 $457 $755 #
straight-curve $-1 -60.319223609118929 4.8203573500064838 30.509881962779588 0 0 1 I I #
straight-curve $-1 -60.319223609118936 4.8203573500064838 0.70054193269055531 -0.49999998660252726 0 -0.86602541151947299 I I #
edge $-1 $749 -10.635813497749245 $460 -4.8203573500064838 $637 $756 forward 7 unknown #
point $-1 -60.319223609118929 4.8203573500064838 11.18347861264574 #
point $-1 -54.26689751127801 4.8203573500064838 11.18347861264574 #
edge $-1 $757 1 $757 0 $463 $-1 forward 7 unknown #
vertex $-1 $464 $758 #
ellipse-curve $-1 -56.427035148678989 6.4819162493615607 5.4420102860656199 -0.86602541151947299 0 0.49999998660252726 0.24999999330126363 0 0.43301270575973649 1 I I #
point $-1 -57.043060566897196 6.4819162493615607 6.3750229784278831 #
edge $-1 $759 1 $759 0 $467 $-1 forward 7 unknown #
vertex $-1 $468 $760 #
ellipse-curve $-1 -56.427035148678989 8.9742545983941682 5.4420102860656199 -0.86602541151947299 0 0.49999998660252726 0.24999999330126363 0 0.43301270575973649 1 I I #
point $-1 -57.043060566897196 8.9742545983941682 6.3750229784278831 #
plane-surface $-1 60.319223609118929 0 0 -1 0 0 0 0 1 forward_v I I I I #
coedge $-1 $476 $474 $478 $658 reversed $321 $-1 #
edge $-1 $489 -11.18347861264574 $660 11.18347861264574 $488 $761 forward 7 unknown #
vertex $-1 $658 $762 #
straight-curve $-1 -60.319223609118929 -24.147570653858409 0 0 0 -1 I I #
edge $-1 $656 -24.147570653858409 $660 24.147570653858409 $654 $763 forward 7 unknown #
straight-curve $-1 0 -24.147570653858409 -11.18347861264574 -1 0 0 I I #
vertex $-1 $481 $764 #
straight-curve $-1 0 24.147570653858409 -11.18347861264574 1 0 0 I I #
point $-1 60.319223609118929 24.147570653858409 -11.18347861264574 #
point $-1 60.319223609118929 -24.147570653858409 -11.18347861264574 #
straight-curve $-1 -60.319223609118929 0 11.18347861264574 0 -1 0 I I #
point $-1 -60.319223609118929 24.147570653858409 11.18347861264574 #
point $-1 -60.319223609118929 -24.147570653858409 11.18347861264574 #
straight-curve $-1 60.319223609118929 -24.147570653858409 0 0 0 -1 I I #
straight-curve $-1 60.319223609118929 24.147570653858409 0 0 0 -1 I I #
plane-surface $-1 60.319223609118929 0 0 -1 0 0 0 0 1 forward_v I I I I #
coedge $-1 $673 $501 $512 $682 forward $340 $-1 #
coedge $-1 $501 $673 $515 $684 reversed $340 $-1 #
straight-curve $-1 60.319223609118929 -15.376620293777002 -3.7900900969738087 0 0 1 I I #
coedge $-1 $671 $670 $504 $674 forward $340 $-1 #
edge $-1 $677 5.4955725568681491 $675 14.266522916949556 $673 $765 forward 7 unknown #
vertex $-1 $506 $766 #
straight-curve $-1 0 -24.147570653858409 -10.68347861264574 1 0 0 I I #
vertex $-1 $674 $767 #
straight-curve $-1 0 -15.376620293777002 -10.68347861264574 1 0 0 I I #
point $-1 60.319223609118929 -24.147570653858409 -10.68347861264574 #
point $-1 60.319223609118929 -15.376620293777002 -10.68347861264574 #
straight-curve $-1 -60.319223609118929 -9.8810477369088527 -4.4768817752494954 0 1 0 I I #
edge $-1 $513 0.68679167827568666 $677 6.8933885156719308 $670 $768 forward 7 unknown #
point $-1 -60.319223609118929 -15.376620293777002 -4.4768817752494954 #
edge $-1 $517 4.4768817752494954 $675 10.68347861264574 $671 $769 forward 7 unknown #
point $-1 -60.319223609118929 -24.147570653858409 -4.4768817752494954 #
straight-curve $-1 60.319223609118929 -24.147570653858409 0 0 0 -1 I I #
plane-surface $-1 -60.319223609118929 0 0 1 0 0 0 0 -1 forward_v I I I I #
coedge $-1 $770 $528 $525 $689 forward $523 $-1 #
edge $-1 $690 12.339213851181583 $702 24.147570653858409 $525 $771 forward 7 unknown #
vertex $-1 $689 $772 #
straight-curve $-1 60.319223609118929 12.339213851181583 4.8417393063228698 0 0 -1 I I #
coedge $-1 $528 $770 $530 $695 forward $523 $-1 #
straight-curve $-1 0 12.339213851181583 11.18347861264574 1 0 0 I I #
coedge $-1 $531 $530 $538 $700 forward $532 $-1 #
edge $-1 $773 -24.147570653858409 $534 -12.339213851181583 $530 $774 forward 7 unknown #
point $-1 -60.319223609118929 12.339213851181583 8.1834786126457395 #
point $-1 -60.319223609118929 12.339213851181583 11.18347861264574 #
straight-curve $-1 -60.319223609118929 9.121696126259998 8.1834786126457395 0 -1 0 I I #
coedge $-1 $539 $538 $770 $775 reversed $359 $-1 #
edge $-1 $773 -11.18347861264574 $540 -8.1834786126457395 $538 $776 forward 7 unknown #
point $-1 -60.319223609118929 24.147570653858409 8.1834786126457395 #
vertex $-1 $689 $777 #
straight-curve $-1 60.319223609118929 24.147570653858409 0 0 0 -1 I I #
coedge $-1 $556 $555 $548 $705 forward $545 $-1 #
edge $-1 $706 76.918077743699186 $709 82.480987302797388 $704 $778 forward 7 unknown #
vertex $-1 $560 $779 #
straight-curve $-1 31.648377504050512 -2.8625408163100072 11.183478612645743 1 0 0 I I #
edge $-1 $709 -3.4031991474847789 $557 4.4845158098343223 $556 $780 forward 7 unknown #
vertex $-1 $708 $781 #
straight-curve $-1 -23.48328252096119 -2.8625408163100072 92.400606582609754 -0.69465836192734942 0 0.71933980857756763 I I #
point $-1 54.947184420137411 -2.8625408163100072 11.183478612645743 #
point $-1 60.319223609118929 5.025174141009094 5.6205690535475412 #
straight-curve $-1 60.319223609118929 0 11.18347861264574 0 1 0 I I #
vertex $-1 $563 $782 #
point $-1 56.816125617331437 -1.2849978248461866 6.9178986278707004 #
vertex $-1 $567 $783 #
point $-1 56.816125617331437 1.0813166623495434 6.9178986278707004 #
vertex $-1 $571 $784 #
point $-1 56.816125617331437 3.4476311495452734 6.9178986278707004 #
edge $-1 $721 19.326403350133848 $724 29.809340030089022 $576 $785 forward 7 unknown #
vertex $-1 $590 $786 #
straight-curve $-1 -82.397592253181799 -7.8414092655564751 11.18347861264574 -1 0 0 I I #
edge $-1 $724 2.4668405958425472 $587 8.2822967435853094 $586 $787 forward 7 unknown #
vertex $-1 $723 $788 #
straight-curve $-1 -60.319223609118936 -7.8414092655564751 0.70054193269055531 0.49999998660252726 0 0.86602541151947299 I I #
point $-1 -54.26689751127801 -7.8414092655564751 11.18347861264574 #
point $-1 -60.319223609118929 -13.656865413299236 0.70054193269056764 #
straight-curve $-1 -60.319223609118929 0 11.18347861264574 0 -1 0 I I #
vertex $-1 $593 $789 #
point $-1 -56.177035155377723 -11.995306513944161 5.8750229918253556 #
vertex $-1 $597 $790 #
point $-1 -56.177035155377723 -9.5029681649115503 5.8750229918253556 #
coedge $-1 $612 $611 $604 $734 forward $601 $-1 #
edge $-1 $735 19.326403350133848 $738 29.809340030089022 $733 $791 forward 7 unknown #
vertex $-1 $616 $792 #
straight-curve $-1 -82.397592253181799 1.3972021160963859 11.18347861264574 -1 0 0 I I #
edge $-1 $738 -2.1524650949838833 $613 3.662991052758878 $612 $793 forward 7 unknown #
vertex $-1 $737 $794 #
straight-curve $-1 -60.319223609118936 1.3972021160963859 0.70054193269055531 0.49999998660252726 0 0.86602541151947299 I I #
point $-1 -54.26689751127801 1.3972021160963859 11.18347861264574 #
point $-1 -60.319223609118929 -4.4182540316463754 0.70054193269056764 #
straight-curve $-1 -60.319223609118929 0 11.18347861264574 0 -1 0 I I #
vertex $-1 $619 $795 #
point $-1 -56.177035155377723 -2.7566951322912985 5.8750229918253556 #
vertex $-1 $623 $796 #
point $-1 -56.177035155377723 -0.26435678325869105 5.8750229918253556 #
coedge $-1 $638 $637 $630 $748 forward $627 $-1 #
edge $-1 $749 19.326403350133848 $752 29.809340030089022 $747 $797 forward 7 unknown #
vertex $-1 $642 $798 #
straight-curve $-1 -82.397592253181799 10.635813497749245 11.18347861264574 -1 0 0 I I #
edge $-1 $752 -6.7717707858103129 $639 -0.95631463806755157 $638 $799 forward 7 unknown #
vertex $-1 $751 $800 #
straight-curve $-1 -60.319223609118936 10.635813497749245 0.70054193269055531 0.49999998660252726 0 0.86602541151947299 I I #
point $-1 -54.26689751127801 10.635813497749245 11.18347861264574 #
point $-1 -60.319223609118929 4.8203573500064838 0.70054193269056764 #
straight-curve $-1 -60.319223609118929 0 11.18347861264574 0 -1 0 I I #
vertex $-1 $645 $801 #
point $-1 -56.177035155377723 6.4819162493615607 5.8750229918253556 #
vertex $-1 $649 $802 #
point $-1 -56.177035155377723 8.9742545983941682 5.8750229918253556 #
straight-curve $-1 -60.319223609118929 24.147570653858409 0 0 0 -1 I I #
point $-1 -60.319223609118929 -24.147570653858409 -11.18347861264574 #
straight-curve $-1 -60.319223609118929 0 -11.18347861264574 0 1 0 I I #
point $-1 -60.319223609118929 24.147570653858409 -11.18347861264574 #
straight-curve $-1 -60.319223609118929 -9.8810477369088527 -10.68347861264574 0 -1 0 I I #
point $-1 -60.319223609118929 -24.147570653858409 -10.68347861264574 #
point $-1 -60.319223609118929 -15.376620293777002 -10.68347861264574 #
straight-curve $-1 -60.319223609118929 -15.376620293777002 -3.7900900969738087 0 0 -1 I I #
straight-curve $-1 -60.319223609118929 -24.147570653858409 0 0 0 -1 I I #
coedge $-1 $692 $688 $699 $775 forward $523 $-1 #
straight-curve $-1 60.319223609118929 0 11.18347861264574 0 1 0 I I #
point $-1 60.319223609118929 12.339213851181583 11.18347861264574 #
vertex $-1 $775 $803 #
straight-curve $-1 -60.319223609118929 0 11.18347861264574 0 -1 0 I I #
edge $-1 $702 -60.319223609118929 $773 60.319223609118929 $699 $804 forward 7 unknown #
straight-curve $-1 -60.319223609118929 24.147570653858409 0 0 0 -1 I I #
point $-1 60.319223609118929 24.147570653858409 11.18347861264574 #
straight-curve $-1 60.319223609118929 -2.8625408163100072 88.101556356344929 0 0 -1 I I #
point $-1 60.319223609118929 -2.8625408163100072 11.18347861264574 #
straight-curve $-1 60.319223609118922 0.54065833117477169 5.620569053547527 0 1 0 I I #
point $-1 60.319223609118929 -2.8625408163100072 5.6205690535475412 #
point $-1 56.109126532078982 -1.2849978248461866 6.9302393511958096 #
point $-1 56.109126532078982 1.0813166623495434 6.9302393511958096 #
point $-1 56.109126532078982 3.4476311495452734 6.9302393511958096 #
straight-curve $-1 -60.319223609118929 -7.8414092655564751 30.509881962779588 0 0 -1 I I #
point $-1 -60.319223609118929 -7.8414092655564751 11.18347861264574 #
straight-curve $-1 -60.319223609118929 -5.3745686697139279 0.70054193269057397 0 -1 0 I I #
point $-1 -60.319223609118929 -7.8414092655564751 0.70054193269056764 #
point $-1 -55.994022442919253 -11.995306513944161 5.1920102927643557 #
point $-1 -55.994022442919253 -9.5029681649115503 5.1920102927643557 #
straight-curve $-1 -60.319223609118929 1.3972021160963859 30.509881962779588 0 0 -1 I I #
point $-1 -60.319223609118929 1.3972021160963859 11.18347861264574 #
straight-curve $-1 -60.319223609118929 -0.75526297888749738 0.70054193269057397 0 -1 0 I I #
point $-1 -60.319223609118929 1.3972021160963859 0.70054193269056764 #
point $-1 -55.994022442919253 -2.7566951322912985 5.1920102927643557 #
point $-1 -55.994022442919253 -0.26435678325869105 5.1920102927643557 #
straight-curve $-1 -60.319223609118929 10.635813497749245 30.509881962779588 0 0 -1 I I #
point $-1 -60.319223609118929 10.635813497749245 11.18347861264574 #
straight-curve $-1 -60.319223609118929 3.8640427119389322 0.70054193269057397 0 -1 0 I I #
point $-1 -60.319223609118929 10.635813497749245 0.70054193269056764 #
point $-1 -55.994022442919253 6.4819162493615607 5.1920102927643557 #
point $-1 -55.994022442919253 8.9742545983941682 5.1920102927643557 #
point $-1 -60.319223609118929 24.147570653858409 11.18347861264574 #
straight-curve $-1 0 24.147570653858409 11.18347861264574 -1 0 0 I I #
End-of-ACIS-data 