500 0 9 0           
7 Unknown 11 ACIS 5.0 NT 24 Fri Mar 26 00:42:29 1999 
-1 9.9999999999999995e-007 1e-010 
body $-1 $9 $-1 $10 #
body $-1 $11 $-1 $12 #
body $-1 $13 $-1 $14 #
body $-1 $15 $-1 $16 #
body $-1 $17 $-1 $18 #
body $-1 $19 $-1 $20 #
body $-1 $21 $-1 $22 #
body $-1 $23 $-1 $24 #
body $-1 $25 $-1 $26 #
lump $-1 $-1 $27 $0 #
transform $-1 1 0 0 0 1 0 0 0 1 58.983733634449294 26.627914663765104 12.908772900858862 1 rotate no_reflect no_shear #
lump $-1 $-1 $28 $1 #
transform $-1 1 0 0 0 1 0 0 0 1 58.983733634449294 26.627914663765104 12.908772900858862 1 rotate no_reflect no_shear #
lump $-1 $-1 $29 $2 #
transform $-1 1 0 0 0 1 0 0 0 1 58.983733634449294 26.627914663765104 12.908772900858862 1 rotate no_reflect no_shear #
lump $-1 $-1 $30 $3 #
transform $-1 1 0 0 0 1 0 0 0 1 58.983733634449294 26.627914663765104 12.908772900858862 1 rotate no_reflect no_shear #
lump $-1 $-1 $31 $4 #
transform $-1 1 0 0 0 1 0 0 0 1 58.983733634449294 26.627914663765104 12.908772900858862 1 rotate no_reflect no_shear #
lump $-1 $-1 $32 $5 #
transform $-1 1 0 0 0 1 0 0 0 1 58.983733634449294 26.627914663765104 12.908772900858862 1 rotate no_reflect no_shear #
lump $-1 $-1 $33 $6 #
transform $-1 1 0 0 0 1 0 0 0 1 58.983733634449294 26.627914663765104 12.908772900858862 1 rotate no_reflect no_shear #
lump $-1 $-1 $34 $7 #
transform $-1 1 0 0 0 1 0 0 0 1 58.983733634449294 26.627914663765104 12.908772900858862 1 rotate no_reflect no_shear #
lump $-1 $-1 $35 $8 #
transform $-1 1 0 0 0 1 0 0 0 1 58.983733634449294 26.627914663765104 12.908772900858862 1 rotate no_reflect no_shear #
shell $-1 $-1 $-1 $36 $-1 $9 #
shell $-1 $-1 $-1 $37 $-1 $11 #
shell $-1 $-1 $-1 $38 $-1 $13 #
shell $-1 $-1 $-1 $39 $-1 $15 #
shell $-1 $-1 $-1 $40 $-1 $17 #
shell $-1 $-1 $-1 $41 $-1 $19 #
shell $-1 $-1 $-1 $42 $-1 $21 #
shell $-1 $-1 $-1 $43 $-1 $23 #
shell $-1 $-1 $-1 $44 $-1 $25 #
face $-1 $45 $46 $27 $-1 $47 forward single #
face $-1 $48 $49 $28 $-1 $50 reversed single #
face $-1 $51 $52 $29 $-1 $53 reversed single #
face $-1 $54 $55 $30 $-1 $56 reversed single #
face $-1 $57 $58 $31 $-1 $59 forward single #
face $-1 $60 $61 $32 $-1 $62 forward single #
face $-1 $63 $64 $33 $-1 $65 reversed single #
face $-1 $66 $67 $34 $-1 $68 forward single #
face $-1 $69 $70 $35 $-1 $71 forward single #
face $-1 $72 $73 $27 $-1 $74 reversed single #
loop $-1 $-1 $75 $36 #
plane-surface $-1 0 0 12.908772900858862 0 0 1 1 0 0 forward_v I I I I #
face $-1 $76 $77 $28 $-1 $78 reversed single #
loop $-1 $-1 $79 $37 #
plane-surface $-1 -54.633094635090494 0 8.6522304134593551 0 0 1 1 0 0 forward_v I I I I #
face $-1 $80 $81 $29 $-1 $82 reversed single #
loop $-1 $-1 $83 $38 #
plane-surface $-1 54.633094635090487 0 8.6522304134593551 0 0 1 1 0 0 forward_v I I I I #
face $-1 $84 $85 $30 $-1 $86 reversed single #
loop $-1 $-1 $87 $39 #
plane-surface $-1 18.439507048971812 100.3169919574087 110.62205885016952 1 0 0 0 -0.85716730853699208 -0.51503806187062418 forward_v I I I I #
face $-1 $88 $89 $31 $-1 $90 forward single #
loop $-1 $91 $92 $40 #
cone-surface $-1 26.295766696565195 22.656617233707951 7.7451151852753792 0 -0.85716730853699208 -0.51503806187062418 2.5 0 0 1 I I 0 1 2.5 forward I I I I #
face $-1 $93 $94 $32 $-1 $95 forward single #
loop $-1 $96 $97 $41 #
cone-surface $-1 38.080156167955252 22.656617233707951 7.7451151852753792 0 -0.85716730853699208 -0.51503806187062418 2.5 0 0 1 I I 0 1 2.5 forward I I I I #
face $-1 $98 $99 $33 $-1 $100 reversed single #
loop $-1 $-1 $101 $42 #
plane-surface $-1 38.187934498825072 -26.627914663765097 4.7821690925071607 0 -0.81915205242281985 0.57357642473473569 1 0 0 forward_v I I I I #
face $-1 $102 $103 $34 $-1 $104 forward single #
loop $-1 $105 $106 $43 #
cone-surface $-1 33.004568297293659 -20.690121762922512 6.679982367040096 0 0.81915205242281985 -0.57357642473473569 2 0 0 1 I I 0 1 2 forward I I I I #
face $-1 $107 $108 $35 $-1 $109 forward single #
loop $-1 $110 $111 $44 #
cone-surface $-1 43.371300700356471 -20.690121762922512 6.679982367040096 0 0.81915205242281985 -0.57357642473473569 2 0 0 1 I I 0 1 2 forward I I I I #
face $-1 $112 $113 $27 $-1 $114 reversed single #
loop $-1 $-1 $115 $45 #
plane-surface $-1 0 0 -12.908772900858862 0 0 1 1 0 0 forward_v I I I I #
coedge $-1 $116 $117 $118 $119 forward $46 $-1 #
face $-1 $120 $121 $28 $-1 $122 reversed single #
loop $-1 $-1 $123 $48 #
plane-surface $-1 -50.282455635731694 0 10.780501657159109 -1 0 0 0 0 1 forward_v I I I I #
coedge $-1 $124 $125 $126 $127 forward $49 $-1 #
face $-1 $128 $129 $29 $-1 $130 forward single #
loop $-1 $-1 $131 $51 #
plane-surface $-1 50.282455635731687 0 10.780501657159109 1 0 0 0 0 -1 forward_v I I I I #
coedge $-1 $132 $133 $134 $135 reversed $52 $-1 #
face $-1 $136 $137 $30 $-1 $138 reversed single #
loop $-1 $-1 $139 $54 #
plane-surface $-1 32.187961432260209 -0.80086445639881276 49.864323144209699 0 0.85716730853699208 0.51503806187062418 1 0 0 forward_v I I I I #
coedge $-1 $140 $141 $142 $143 reversed $55 $-1 #
face $-1 $-1 $144 $31 $-1 $145 forward single #
loop $-1 $146 $147 $57 #
cone-surface $-1 26.295766696565195 20.225683212770079 6.2844627149704255 0 -0.85716730853699208 -0.51503806187062418 1.25 0 0 1 I I -0.70710678118654746 0.70710678118654746 1.25 forward I I I I #
loop $-1 $-1 $148 $40 #
coedge $-1 $92 $92 $149 $150 reversed $58 $-1 #
face $-1 $-1 $151 $32 $-1 $152 forward single #
loop $-1 $153 $154 $60 #
cone-surface $-1 38.080156167955252 20.225683212770079 6.2844627149704255 0 -0.85716730853699208 -0.51503806187062418 1.25 0 0 1 I I -0.70710678118654746 0.70710678118654746 1.25 forward I I I I #
loop $-1 $-1 $155 $41 #
coedge $-1 $97 $97 $156 $157 reversed $61 $-1 #
face $-1 $158 $159 $33 $-1 $160 forward single #
loop $-1 $-1 $161 $63 #
plane-surface $-1 26.093413361918451 -123.2612075962052 72.445527203613963 1 0 0 0 0.81915205242281985 -0.57357642473473569 forward_v I I I I #
coedge $-1 $162 $163 $164 $165 reversed $64 $-1 #
face $-1 $-1 $166 $34 $-1 $167 forward single #
loop $-1 $168 $169 $66 #
cone-surface $-1 33.004568297293659 -16.77833134711047 3.9409173126624442 0 0.81915205242281985 -0.57357642473473569 1 0 0 1 I I -0.70710678118654746 0.70710678118654746 1 forward I I I I #
loop $-1 $-1 $170 $43 #
coedge $-1 $106 $106 $171 $172 reversed $67 $-1 #
face $-1 $-1 $173 $35 $-1 $174 forward single #
loop $-1 $175 $176 $69 #
cone-surface $-1 43.371300700356471 -16.77833134711047 3.9409173126624442 0 0.81915205242281985 -0.57357642473473569 1 0 0 1 I I -0.70710678118654746 0.70710678118654746 1 forward I I I I #
loop $-1 $-1 $177 $44 #
coedge $-1 $111 $111 $178 $179 reversed $70 $-1 #
face $-1 $180 $181 $27 $-1 $182 reversed single #
loop $-1 $-1 $183 $72 #
plane-surface $-1 0 -26.627914663765104 0 0 1 0 0 0 1 forward_v I I I I #
coedge $-1 $184 $185 $186 $187 forward $73 $-1 #
coedge $-1 $188 $75 $189 $190 forward $46 $-1 #
coedge $-1 $75 $188 $191 $192 forward $46 $-1 #
coedge $-1 $193 $194 $75 $119 reversed $195 $-1 #
edge $-1 $196 -26.627914663765104 $197 26.627914663765104 $118 $198 forward 7 unknown #
face $-1 $199 $200 $28 $-1 $201 reversed single #
loop $-1 $-1 $202 $76 #
plane-surface $-1 0 26.627914663765104 0 0 -1 0 0 0 -1 forward_v I I I I #
coedge $-1 $126 $203 $204 $205 reversed $77 $-1 #
coedge $-1 $206 $79 $207 $208 reversed $49 $-1 #
coedge $-1 $79 $206 $209 $210 reversed $49 $-1 #
coedge $-1 $211 $123 $79 $127 reversed $77 $-1 #
edge $-1 $212 -26.627914663765104 $213 26.627914663765104 $126 $214 forward 7 unknown #
face $-1 $215 $216 $29 $-1 $217 reversed single #
loop $-1 $-1 $218 $80 #
plane-surface $-1 0 0 12.908772900858862 0 0 1 1 0 0 forward_v I I I I #
coedge $-1 $219 $220 $218 $221 reversed $81 $-1 #
coedge $-1 $222 $83 $223 $224 reversed $52 $-1 #
coedge $-1 $83 $222 $225 $226 reversed $52 $-1 #
coedge $-1 $227 $228 $83 $135 forward $229 $-1 #
edge $-1 $230 -26.627914663765104 $231 26.627914663765104 $134 $232 forward 7 unknown #
face $-1 $233 $234 $30 $-1 $235 reversed single #
loop $-1 $-1 $236 $84 #
plane-surface $-1 45.936415815548607 100.3169919574087 110.62205885016952 -1 0 0 0 0.85716730853699208 0.51503806187062418 forward_v I I I I #
coedge $-1 $237 $238 $239 $240 reversed $85 $-1 #
coedge $-1 $141 $87 $241 $242 reversed $55 $-1 #
coedge $-1 $87 $140 $237 $243 reversed $55 $-1 #
coedge $-1 $239 $244 $87 $143 forward $245 $-1 #
edge $-1 $246 23.530581314939248 $247 28.754226404520292 $142 $248 forward 7 unknown #
loop $-1 $-1 $149 $88 #
plane-surface $-1 32.187961432260209 -0.80086445639881276 49.864323144209699 0 0.85716730853699208 0.51503806187062418 1 0 0 forward_v I I I I #
loop $-1 $-1 $249 $57 #
coedge $-1 $147 $147 $148 $250 reversed $89 $-1 #
coedge $-1 $148 $148 $147 $250 forward $91 $-1 #
coedge $-1 $149 $149 $92 $150 forward $144 $-1 #
edge $-1 $251 4.9143641036907933e-016 $251 6.2831853071796013 $149 $252 forward 7 unknown #
loop $-1 $-1 $156 $93 #
plane-surface $-1 32.187961432260209 -0.80086445639881276 49.864323144209699 0 0.85716730853699208 0.51503806187062418 1 0 0 forward_v I I I I #
loop $-1 $-1 $253 $60 #
coedge $-1 $154 $154 $155 $254 reversed $94 $-1 #
coedge $-1 $155 $155 $154 $254 forward $96 $-1 #
coedge $-1 $156 $156 $97 $157 forward $151 $-1 #
edge $-1 $255 4.9143641036907933e-016 $255 6.2831853071796013 $156 $256 forward 7 unknown #
face $-1 $257 $258 $33 $-1 $259 reversed single #
loop $-1 $-1 $164 $98 #
plane-surface $-1 0 0 12.908772900858862 0 0 1 1 0 0 forward_v I I I I #
coedge $-1 $260 $261 $262 $263 reversed $99 $-1 #
coedge $-1 $264 $101 $265 $266 reversed $64 $-1 #
coedge $-1 $101 $264 $260 $267 forward $64 $-1 #
coedge $-1 $262 $268 $101 $165 forward $159 $-1 #
edge $-1 $269 -31.188488386319158 $270 -6.9994461125059146 $164 $271 forward 7 unknown #
loop $-1 $-1 $171 $102 #
plane-surface $-1 38.187934498825072 -26.627914663765097 4.7821690925071607 0 -0.81915205242281985 0.57357642473473569 1 0 0 forward_v I I I I #
loop $-1 $-1 $272 $66 #
coedge $-1 $169 $169 $170 $273 reversed $103 $-1 #
coedge $-1 $170 $170 $169 $273 forward $105 $-1 #
coedge $-1 $171 $171 $106 $172 forward $166 $-1 #
edge $-1 $274 -5.8264645916255301e-016 $274 6.2831853071795996 $171 $275 forward 7 unknown #
loop $-1 $-1 $178 $107 #
plane-surface $-1 38.187934498825072 -26.627914663765097 4.7821690925071607 0 -0.81915205242281985 0.57357642473473569 1 0 0 forward_v I I I I #
loop $-1 $-1 $276 $69 #
coedge $-1 $176 $176 $177 $277 reversed $108 $-1 #
coedge $-1 $177 $177 $176 $277 forward $110 $-1 #
coedge $-1 $178 $178 $111 $179 forward $173 $-1 #
edge $-1 $278 -5.8264645916255301e-016 $278 6.2831853071795996 $178 $279 forward 7 unknown #
face $-1 $280 $281 $27 $-1 $282 reversed single #
loop $-1 $-1 $283 $112 #
plane-surface $-1 -58.983733634449294 0 0 1 0 0 0 0 -1 forward_v I I I I #
coedge $-1 $284 $191 $285 $286 forward $113 $-1 #
coedge $-1 $287 $115 $284 $288 forward $73 $-1 #
coedge $-1 $115 $287 $289 $290 forward $73 $-1 #
coedge $-1 $194 $193 $115 $187 reversed $195 $-1 #
edge $-1 $291 -26.627914663765104 $292 26.627914663765104 $186 $293 forward 7 unknown #
coedge $-1 $117 $116 $294 $295 forward $46 $-1 #
coedge $-1 $296 $297 $116 $190 reversed $281 $-1 #
edge $-1 $197 -58.983733634449294 $298 58.983733634449294 $189 $299 forward 7 unknown #
coedge $-1 $183 $300 $117 $192 reversed $113 $-1 #
edge $-1 $301 -58.983733634449294 $196 58.983733634449294 $191 $302 forward 7 unknown #
coedge $-1 $186 $118 $300 $303 forward $195 $-1 #
coedge $-1 $118 $186 $296 $304 reversed $195 $-1 #
loop $-1 $-1 $193 $280 #
vertex $-1 $119 $305 #
vertex $-1 $119 $306 #
straight-curve $-1 58.983733634449294 0 12.908772900858862 0 1 0 I I #
face $-1 $307 $308 $28 $-1 $309 forward single #
loop $-1 $-1 $310 $120 #
plane-surface $-1 -58.983733634449294 0 0 1 0 0 0 0 -1 forward_v I I I I #
coedge $-1 $209 $311 $211 $312 forward $121 $-1 #
coedge $-1 $123 $211 $313 $314 reversed $77 $-1 #
coedge $-1 $315 $207 $123 $205 forward $316 $-1 #
edge $-1 $213 3.2619795848798008 $317 7.5185220722793078 $204 $318 forward 7 unknown #
coedge $-1 $125 $124 $310 $319 reversed $49 $-1 #
coedge $-1 $204 $320 $124 $208 forward $316 $-1 #
edge $-1 $321 -31.667186316904047 $213 -22.965908318186447 $207 $322 forward 7 unknown #
coedge $-1 $323 $202 $125 $210 forward $121 $-1 #
edge $-1 $212 22.965908318186447 $324 31.667186316904047 $209 $325 forward 7 unknown #
coedge $-1 $203 $126 $202 $312 reversed $77 $-1 #
vertex $-1 $210 $326 #
vertex $-1 $208 $327 #
straight-curve $-1 -50.282455635731694 0 8.6522304134593551 0 -1 0 I I #
face $-1 $328 $329 $29 $-1 $330 reversed single #
loop $-1 $-1 $331 $128 #
plane-surface $-1 0 -26.627914663765104 0 0 1 0 0 0 1 forward_v I I I I #
coedge $-1 $332 $333 $131 $221 forward $129 $-1 #
coedge $-1 $334 $131 $335 $336 reversed $81 $-1 #
coedge $-1 $131 $334 $331 $337 reversed $81 $-1 #
edge $-1 $338 -26.627914663765104 $339 26.627914663765104 $218 $340 forward 7 unknown #
coedge $-1 $133 $132 $334 $341 forward $52 $-1 #
coedge $-1 $342 $331 $132 $224 forward $216 $-1 #
edge $-1 $343 22.965908318186443 $230 31.667186316904044 $223 $344 forward 7 unknown #
coedge $-1 $335 $345 $133 $226 forward $329 $-1 #
edge $-1 $231 -31.667186316904044 $346 -22.965908318186443 $225 $347 forward 7 unknown #
coedge $-1 $348 $134 $345 $349 reversed $229 $-1 #
coedge $-1 $134 $348 $342 $350 forward $229 $-1 #
loop $-1 $-1 $134 $328 #
vertex $-1 $224 $351 #
vertex $-1 $135 $352 #
straight-curve $-1 58.983733634449294 0 8.6522304134593551 0 1 0 I I #
face $-1 $-1 $245 $30 $-1 $353 forward single #
loop $-1 $-1 $354 $136 #
plane-surface $-1 0 26.627914663765104 0 0 -1 0 0 0 -1 forward_v I I I I #
coedge $-1 $355 $356 $357 $358 reversed $137 $-1 #
coedge $-1 $359 $139 $141 $243 forward $85 $-1 #
coedge $-1 $139 $359 $355 $360 forward $85 $-1 #
coedge $-1 $357 $142 $139 $240 forward $245 $-1 #
edge $-1 $247 2.3455263328417075 $361 29.842435099418502 $239 $362 forward 7 unknown #
coedge $-1 $363 $364 $140 $242 forward $234 $-1 #
edge $-1 $365 -51.095862169459558 $246 -42.402256524225898 $241 $366 forward 7 unknown #
edge $-1 $247 43.113578732285475 $365 53.255829327530236 $141 $367 forward 7 unknown #
coedge $-1 $142 $357 $363 $368 forward $245 $-1 #
loop $-1 $-1 $357 $233 #
vertex $-1 $242 $369 #
vertex $-1 $143 $370 #
straight-curve $-1 18.439507048971812 50.158495978704352 12.908772900858864 0 -1 0 I I #
coedge $-1 $249 $249 $-1 $371 reversed $146 $-1 #
edge $-1 $372 0 $372 6.2831853071796004 $147 $373 forward 7 unknown #
vertex $-1 $150 $374 #
ellipse-curve $-1 26.295766696565195 24.016092118974573 8.5619700782420445 0 0.85716730853699208 0.51503806187062418 2.5 0 0 1 I I #
coedge $-1 $253 $253 $-1 $375 reversed $153 $-1 #
edge $-1 $376 0 $376 6.2831853071796004 $154 $377 forward 7 unknown #
vertex $-1 $157 $378 #
ellipse-curve $-1 38.080156167955252 24.016092118974573 8.5619700782420445 0 0.85716730853699208 0.51503806187062418 2.5 0 0 1 I I #
face $-1 $-1 $379 $33 $-1 $380 forward single #
loop $-1 $-1 $381 $158 #
plane-surface $-1 0 -26.627914663765104 0 0 1 0 0 0 1 forward_v I I I I #
coedge $-1 $261 $161 $163 $267 reversed $99 $-1 #
coedge $-1 $161 $260 $381 $382 reversed $99 $-1 #
coedge $-1 $383 $164 $161 $263 forward $159 $-1 #
edge $-1 $270 -40.692998209244244 $384 -35.002689134337494 $262 $385 forward 7 unknown #
coedge $-1 $163 $162 $386 $387 reversed $64 $-1 #
coedge $-1 $388 $389 $162 $266 forward $379 $-1 #
edge $-1 $390 -10.093345261216665 $269 -0.17259393755762009 $265 $391 forward 7 unknown #
edge $-1 $392 -1.207859054955032e-014 $270 9.9207513236590312 $260 $393 forward 7 unknown #
coedge $-1 $164 $383 $388 $394 forward $159 $-1 #
vertex $-1 $266 $395 #
vertex $-1 $165 $396 #
straight-curve $-1 19.093967249412536 -20.937605588858357 12.908772900858862 -1 0 0 I I #
coedge $-1 $272 $272 $-1 $397 reversed $168 $-1 #
edge $-1 $398 0 $398 6.2831853071796004 $169 $399 forward 7 unknown #
vertex $-1 $172 $400 #
ellipse-curve $-1 33.004568297293659 -23.782760126311729 8.8454709966830087 0 -0.81915205242281985 0.57357642473473569 2 0 0 1 I I #
coedge $-1 $276 $276 $-1 $401 reversed $175 $-1 #
edge $-1 $402 0 $402 6.2831853071796004 $176 $403 forward 7 unknown #
vertex $-1 $179 $404 #
ellipse-curve $-1 43.371300700356471 -23.782760126311729 8.8454709966830087 0 -0.81915205242281985 0.57357642473473569 2 0 0 1 I I #
face $-1 $-1 $195 $27 $-1 $405 reversed single #
loop $-1 $-1 $296 $180 #
plane-surface $-1 0 26.627914663765104 0 0 -1 0 0 0 -1 forward_v I I I I #
coedge $-1 $406 $294 $297 $407 forward $181 $-1 #
coedge $-1 $300 $183 $184 $288 reversed $113 $-1 #
coedge $-1 $294 $406 $183 $286 reversed $181 $-1 #
edge $-1 $301 -12.908772900858862 $408 12.908772900858862 $285 $409 forward 7 unknown #
coedge $-1 $185 $184 $406 $410 forward $73 $-1 #
edge $-1 $292 -58.983733634449294 $408 58.983733634449294 $284 $411 forward 7 unknown #
coedge $-1 $297 $296 $185 $290 reversed $281 $-1 #
edge $-1 $412 -58.983733634449294 $291 58.983733634449294 $289 $413 forward 7 unknown #
vertex $-1 $187 $414 #
vertex $-1 $303 $415 #
straight-curve $-1 58.983733634449294 0 -12.908772900858862 0 -1 0 I I #
coedge $-1 $283 $285 $188 $295 reversed $181 $-1 #
edge $-1 $298 -26.627914663765104 $301 26.627914663765104 $294 $416 forward 7 unknown #
coedge $-1 $289 $189 $194 $304 forward $281 $-1 #
coedge $-1 $189 $289 $283 $407 reversed $281 $-1 #
vertex $-1 $190 $417 #
straight-curve $-1 0 26.627914663765104 12.908772900858862 -1 0 0 I I #
coedge $-1 $191 $284 $193 $303 reversed $113 $-1 #
vertex $-1 $295 $418 #
straight-curve $-1 0 -26.627914663765104 12.908772900858862 1 0 0 I I #
edge $-1 $196 -12.908772900858862 $292 12.908772900858862 $193 $419 forward 7 unknown #
edge $-1 $197 -12.908772900858862 $291 12.908772900858862 $194 $420 forward 7 unknown #
point $-1 58.983733634449294 -26.627914663765104 12.908772900858862 #
point $-1 58.983733634449294 26.627914663765104 12.908772900858862 #
face $-1 $-1 $316 $28 $-1 $421 reversed single #
loop $-1 $-1 $313 $199 #
plane-surface $-1 0 0 12.908772900858862 0 0 1 1 0 0 forward_v I I I I #
coedge $-1 $422 $423 $206 $319 forward $200 $-1 #
coedge $-1 $202 $323 $424 $425 reversed $121 $-1 #
edge $-1 $426 -7.5185220722793078 $212 -3.2619795848798008 $202 $427 forward 7 unknown #
coedge $-1 $424 $428 $203 $314 forward $308 $-1 #
edge $-1 $317 -26.627914663765104 $426 26.627914663765104 $313 $429 forward 7 unknown #
coedge $-1 $320 $204 $428 $430 reversed $316 $-1 #
loop $-1 $-1 $204 $307 #
vertex $-1 $205 $431 #
straight-curve $-1 -50.282455635731694 -26.627914663765104 5.3902508285795543 0 0 1 I I #
edge $-1 $324 -26.627914663765104 $321 26.627914663765104 $310 $432 forward 7 unknown #
coedge $-1 $207 $315 $422 $433 forward $316 $-1 #
vertex $-1 $319 $434 #
straight-curve $-1 -27.316547317545247 -26.627914663765104 8.6522304134593551 1 0 0 I I #
coedge $-1 $311 $209 $423 $435 reversed $121 $-1 #
vertex $-1 $319 $436 #
straight-curve $-1 -27.316547317545247 26.627914663765104 8.6522304134593551 -1 0 0 I I #
point $-1 -50.282455635731694 26.627914663765104 8.6522304134593551 #
point $-1 -50.282455635731694 -26.627914663765104 8.6522304134593551 #
face $-1 $-1 $229 $29 $-1 $437 reversed single #
loop $-1 $-1 $335 $215 #
plane-surface $-1 0 26.627914663765104 0 0 -1 0 0 0 -1 forward_v I I I I #
coedge $-1 $223 $438 $220 $337 forward $216 $-1 #
coedge $-1 $439 $218 $438 $440 forward $129 $-1 #
coedge $-1 $218 $439 $441 $442 forward $129 $-1 #
coedge $-1 $220 $219 $222 $341 reversed $81 $-1 #
coedge $-1 $441 $225 $219 $336 forward $329 $-1 #
edge $-1 $346 3.2619795848798008 $338 7.5185220722793078 $335 $443 forward 7 unknown #
edge $-1 $339 -7.5185220722793078 $343 -3.2619795848798008 $331 $444 forward 7 unknown #
vertex $-1 $336 $445 #
vertex $-1 $440 $446 #
straight-curve $-1 50.282455635731687 0 12.908772900858862 0 -1 0 I I #
edge $-1 $343 -26.627914663765104 $346 26.627914663765104 $334 $447 forward 7 unknown #
coedge $-1 $438 $223 $228 $350 reversed $216 $-1 #
vertex $-1 $224 $448 #
straight-curve $-1 27.316547317545243 -26.627914663765104 8.6522304134593551 1 0 0 I I #
coedge $-1 $225 $441 $227 $349 forward $329 $-1 #
vertex $-1 $226 $449 #
straight-curve $-1 27.316547317545243 26.627914663765104 8.6522304134593551 -1 0 0 I I #
coedge $-1 $228 $227 $439 $450 reversed $229 $-1 #
edge $-1 $451 -12.908772900858862 $231 -8.6522304134593551 $227 $452 forward 7 unknown #
edge $-1 $453 -12.908772900858862 $230 -8.6522304134593551 $228 $454 forward 7 unknown #
point $-1 58.983733634449287 -26.627914663765104 8.6522304134593551 #
point $-1 58.983733634449287 26.627914663765104 8.6522304134593551 #
plane-surface $-1 0 0 12.908772900858862 0 0 1 1 0 0 forward_v I I I I #
coedge $-1 $364 $363 $356 $455 forward $234 $-1 #
coedge $-1 $356 $236 $238 $360 reversed $137 $-1 #
coedge $-1 $236 $355 $354 $455 reversed $137 $-1 #
coedge $-1 $244 $239 $236 $358 forward $245 $-1 #
edge $-1 $361 -28.754226404520292 $456 -23.530581314939248 $357 $457 forward 7 unknown #
coedge $-1 $238 $237 $364 $458 reversed $85 $-1 #
edge $-1 $459 -53.255829327530236 $361 -43.113578732285475 $355 $460 forward 7 unknown #
vertex $-1 $240 $461 #
straight-curve $-1 16.093980716130105 21.404269574184056 12.90877290085886 1 0 0 I I #
coedge $-1 $354 $241 $244 $368 reversed $234 $-1 #
coedge $-1 $241 $354 $359 $458 forward $234 $-1 #
vertex $-1 $242 $462 #
straight-curve $-1 18.439507048971812 26.627914663765104 55.311029425084762 0 0 1 I I #
straight-curve $-1 18.439507048971812 -0.80086445639881276 49.864323144209699 0 0.51503806187062418 -0.85716730853699208 I I #
edge $-1 $456 -45.936415815548607 $246 -18.439507048971812 $363 $463 forward 7 unknown #
point $-1 18.439507048971812 26.627914663765104 12.908772900858862 #
point $-1 18.439507048971812 21.40426957418406 12.908772900858864 #
edge $-1 $464 1 $464 0 $249 $-1 forward 7 unknown #
vertex $-1 $250 $465 #
ellipse-curve $-1 26.295766696565195 21.297142348441319 6.928260292308706 0 0.85716730853699208 0.51503806187062418 2.5 0 0 1 I I #
point $-1 28.795766696565195 24.016092118974587 8.5619700782420516 #
edge $-1 $466 1 $466 0 $253 $-1 forward 7 unknown #
vertex $-1 $254 $467 #
ellipse-curve $-1 38.080156167955252 21.297142348441319 6.928260292308706 0 0.85716730853699208 0.51503806187062418 2.5 0 0 1 I I #
point $-1 40.580156167955252 24.016092118974587 8.5619700782420516 #
loop $-1 $-1 $265 $257 #
plane-surface $-1 50.282455635731687 0 10.780501657159109 1 0 0 0 0 -1 forward_v I I I I #
coedge $-1 $386 $468 $261 $382 forward $258 $-1 #
edge $-1 $384 23.313990700948118 $392 31.440594509299832 $381 $469 forward 7 unknown #
coedge $-1 $268 $262 $468 $470 forward $159 $-1 #
vertex $-1 $470 $471 #
straight-curve $-1 26.093413361918451 -61.630603798102598 12.908772900858864 0 -1 0 I I #
coedge $-1 $472 $381 $264 $387 forward $258 $-1 #
edge $-1 $392 6.9994461125059146 $390 31.188488386319158 $386 $473 forward 7 unknown #
coedge $-1 $389 $265 $268 $394 reversed $379 $-1 #
coedge $-1 $265 $388 $472 $474 reversed $379 $-1 #
vertex $-1 $474 $475 #
straight-curve $-1 50.282455635731687 -20.838609775223166 13.050153579044924 0 0.57357642473473569 0.81915205242281985 I I #
vertex $-1 $387 $476 #
straight-curve $-1 26.093413361918451 -26.627914663765097 4.7821690925071607 0 0.57357642473473569 0.81915205242281985 I I #
edge $-1 $477 -26.627914663765104 $269 -20.937605588858354 $268 $478 forward 7 unknown #
point $-1 50.282455635731694 -20.937605588858354 12.908772900858862 #
point $-1 26.093413361918451 -20.937605588858354 12.908772900858862 #
edge $-1 $479 1 $479 0 $272 $-1 forward 7 unknown #
vertex $-1 $273 $480 #
ellipse-curve $-1 33.004568297293659 -17.597483399533289 4.5144937373971796 0 -0.81915205242281985 0.57357642473473569 2 0 0 1 I I #
point $-1 35.004568297293659 -23.782760126311736 8.8454709966830123 #
edge $-1 $481 1 $481 0 $276 $-1 forward 7 unknown #
vertex $-1 $277 $482 #
ellipse-curve $-1 43.371300700356471 -17.597483399533289 4.5144937373971796 0 -0.81915205242281985 0.57357642473473569 2 0 0 1 I I #
point $-1 45.371300700356471 -23.782760126311736 8.8454709966830123 #
plane-surface $-1 58.983733634449294 0 0 -1 0 0 0 0 1 forward_v I I I I #
coedge $-1 $285 $283 $287 $410 reversed $181 $-1 #
edge $-1 $298 -12.908772900858862 $412 12.908772900858862 $297 $483 forward 7 unknown #
vertex $-1 $410 $484 #
straight-curve $-1 -58.983733634449294 -26.627914663765104 0 0 0 -1 I I #
edge $-1 $408 -26.627914663765104 $412 26.627914663765104 $406 $485 forward 7 unknown #
straight-curve $-1 0 -26.627914663765104 -12.908772900858862 -1 0 0 I I #
vertex $-1 $290 $486 #
straight-curve $-1 0 26.627914663765104 -12.908772900858862 1 0 0 I I #
point $-1 58.983733634449294 26.627914663765104 -12.908772900858862 #
point $-1 58.983733634449294 -26.627914663765104 -12.908772900858862 #
straight-curve $-1 -58.983733634449294 0 12.908772900858862 0 -1 0 I I #
point $-1 -58.983733634449294 26.627914663765104 12.908772900858862 #
point $-1 -58.983733634449294 -26.627914663765104 12.908772900858862 #
straight-curve $-1 58.983733634449294 -26.627914663765104 0 0 0 -1 I I #
straight-curve $-1 58.983733634449294 26.627914663765104 0 0 0 -1 I I #
plane-surface $-1 0 -26.627914663765104 0 0 1 0 0 0 1 forward_v I I I I #
coedge $-1 $487 $310 $320 $433 reversed $200 $-1 #
coedge $-1 $310 $487 $323 $435 forward $200 $-1 #
coedge $-1 $488 $313 $311 $425 forward $308 $-1 #
edge $-1 $426 50.282455635731694 $489 58.983733634449294 $311 $490 forward 7 unknown #
vertex $-1 $425 $491 #
straight-curve $-1 -50.282455635731694 26.627914663765104 5.3902508285795543 0 0 -1 I I #
coedge $-1 $313 $488 $315 $430 forward $308 $-1 #
straight-curve $-1 -50.282455635731694 0 12.908772900858862 0 1 0 I I #
edge $-1 $492 -58.983733634449294 $317 -50.282455635731694 $315 $493 forward 7 unknown #
point $-1 -50.282455635731694 -26.627914663765104 12.908772900858862 #
straight-curve $-1 -58.983733634449294 0 8.6522304134593551 0 -1 0 I I #
edge $-1 $492 -12.908772900858862 $321 -8.6522304134593551 $422 $494 forward 7 unknown #
point $-1 -58.983733634449294 -26.627914663765104 8.6522304134593551 #
edge $-1 $489 -12.908772900858862 $324 -8.6522304134593551 $323 $495 forward 7 unknown #
point $-1 -58.983733634449294 26.627914663765104 8.6522304134593551 #
plane-surface $-1 58.983733634449294 0 0 -1 0 0 0 0 1 forward_v I I I I #
coedge $-1 $331 $342 $332 $440 reversed $216 $-1 #
coedge $-1 $333 $332 $348 $450 forward $129 $-1 #
edge $-1 $339 50.282455635731687 $453 58.983733634449294 $438 $496 forward 7 unknown #
coedge $-1 $345 $335 $333 $442 reversed $329 $-1 #
edge $-1 $451 -58.983733634449294 $338 -50.282455635731687 $441 $497 forward 7 unknown #
straight-curve $-1 50.282455635731687 26.627914663765104 5.3902508285795543 0 0 1 I I #
straight-curve $-1 50.282455635731687 -26.627914663765104 5.3902508285795543 0 0 -1 I I #
point $-1 50.282455635731687 26.627914663765104 12.908772900858862 #
point $-1 50.282455635731687 -26.627914663765104 12.908772900858862 #
straight-curve $-1 50.282455635731687 0 8.6522304134593551 0 1 0 I I #
point $-1 50.282455635731687 -26.627914663765104 8.6522304134593551 #
point $-1 50.282455635731687 26.627914663765104 8.6522304134593551 #
edge $-1 $453 -26.627914663765104 $451 26.627914663765104 $348 $498 forward 7 unknown #
vertex $-1 $450 $499 #
straight-curve $-1 58.983733634449294 26.627914663765104 0 0 0 -1 I I #
vertex $-1 $450 $500 #
straight-curve $-1 58.983733634449294 -26.627914663765104 0 0 0 -1 I I #
edge $-1 $456 42.402256524225898 $459 51.095862169459558 $354 $501 forward 7 unknown #
vertex $-1 $368 $502 #
straight-curve $-1 45.936415815548607 50.158495978704352 12.908772900858864 0 1 0 I I #
edge $-1 $459 -29.842435099418502 $365 -2.3455263328417075 $364 $503 forward 7 unknown #
vertex $-1 $458 $504 #
straight-curve $-1 45.936415815548607 -0.80086445639881276 49.864323144209699 0 -0.51503806187062418 0.85716730853699208 I I #
point $-1 45.936415815548607 21.40426957418406 12.908772900858864 #
point $-1 18.439507048971812 26.627914663765104 4.2151672556252038 #
straight-curve $-1 0 26.627914663765104 12.908772900858862 -1 0 0 I I #
vertex $-1 $371 $505 #
point $-1 28.795766696565195 21.297142348441319 6.928260292308706 #
vertex $-1 $375 $506 #
point $-1 40.580156167955252 21.297142348441319 6.928260292308706 #
coedge $-1 $381 $472 $383 $470 reversed $258 $-1 #
straight-curve $-1 26.093413361918451 -26.627914663765104 36.222763601806982 0 0 -1 I I #
edge $-1 $384 26.093413361918451 $477 50.282455635731687 $468 $507 forward 7 unknown #
point $-1 26.093413361918451 -26.627914663765104 12.908772900858862 #
coedge $-1 $468 $386 $389 $474 forward $258 $-1 #
straight-curve $-1 19.093967249412536 -26.627914663765104 4.7821690925071483 1 0 0 I I #
edge $-1 $390 -31.440594509299832 $477 -23.313990700948118 $472 $508 forward 7 unknown #
point $-1 50.282455635731694 -26.627914663765104 4.7821690925071509 #
point $-1 26.093413361918451 -26.627914663765104 4.7821690925071509 #
vertex $-1 $394 $509 #
straight-curve $-1 50.282455635731687 0 12.908772900858862 0 1 0 I I #
vertex $-1 $397 $510 #
point $-1 35.004568297293659 -17.597483399533289 4.5144937373971796 #
vertex $-1 $401 $511 #
point $-1 45.371300700356471 -17.597483399533289 4.5144937373971796 #
straight-curve $-1 -58.983733634449294 26.627914663765104 0 0 0 -1 I I #
point $-1 -58.983733634449294 -26.627914663765104 -12.908772900858862 #
straight-curve $-1 -58.983733634449294 0 -12.908772900858862 0 1 0 I I #
point $-1 -58.983733634449294 26.627914663765104 -12.908772900858862 #
coedge $-1 $423 $422 $488 $512 reversed $200 $-1 #
coedge $-1 $428 $424 $487 $512 forward $308 $-1 #
vertex $-1 $425 $513 #
straight-curve $-1 0 26.627914663765104 12.908772900858862 -1 0 0 I I #
point $-1 -50.282455635731694 26.627914663765104 12.908772900858862 #
vertex $-1 $512 $514 #
straight-curve $-1 0 -26.627914663765104 12.908772900858862 1 0 0 I I #
straight-curve $-1 -58.983733634449294 -26.627914663765104 0 0 0 -1 I I #
straight-curve $-1 -58.983733634449294 26.627914663765104 0 0 0 -1 I I #
straight-curve $-1 0 -26.627914663765104 12.908772900858862 1 0 0 I I #
straight-curve $-1 0 26.627914663765104 12.908772900858862 -1 0 0 I I #
straight-curve $-1 58.983733634449294 0 12.908772900858862 0 1 0 I I #
point $-1 58.983733634449294 26.627914663765104 12.908772900858862 #
point $-1 58.983733634449294 -26.627914663765104 12.908772900858862 #
straight-curve $-1 45.936415815548607 26.627914663765104 55.311029425084762 0 0 -1 I I #
point $-1 45.936415815548607 26.627914663765104 12.908772900858862 #
straight-curve $-1 16.093980716130105 26.627914663765104 4.2151672556252002 -1 0 0 I I #
point $-1 45.936415815548607 26.627914663765104 4.2151672556252038 #
point $-1 26.295766696565195 19.154224077098839 5.6406651376321451 #
point $-1 38.080156167955252 19.154224077098839 5.6406651376321451 #
straight-curve $-1 0 -26.627914663765104 12.908772900858862 1 0 0 I I #
straight-curve $-1 50.282455635731694 -26.627914663765104 36.222763601806982 0 0 1 I I #
point $-1 50.282455635731687 -26.627914663765104 12.908772900858862 #
point $-1 33.004568297293659 -15.959179294687649 3.3673408879277087 #
point $-1 43.371300700356471 -15.959179294687649 3.3673408879277087 #
edge $-1 $489 -26.627914663765104 $492 26.627914663765104 $487 $515 forward 7 unknown #
point $-1 -58.983733634449294 26.627914663765104 12.908772900858862 #
point $-1 -58.983733634449294 -26.627914663765104 12.908772900858862 #
straight-curve $-1 -58.983733634449294 0 12.908772900858862 0 -1 0 I I #
End-of-ACIS-data 