500 0 4 0           
7 Unknown 11 ACIS 5.0 NT 24 Fri Mar 26 20:39:22 1999 
-1 9.9999999999999995e-007 1e-010 
body $-1 $4 $-1 $5 #
body $-1 $6 $-1 $7 #
body $-1 $8 $-1 $9 #
body $-1 $10 $-1 $11 #
lump $-1 $-1 $12 $0 #
transform $-1 1 0 0 0 1 0 0 0 1 51.501815851313822 31.355327762109123 9.7929060717146026 1 rotate no_reflect no_shear #
lump $-1 $-1 $13 $1 #
transform $-1 1 0 0 0 1 0 0 0 1 51.501815851313822 31.355327762109123 9.7929060717146026 1 rotate no_reflect no_shear #
lump $-1 $-1 $14 $2 #
transform $-1 1 0 0 0 1 0 0 0 1 51.501815851313822 31.355327762109123 9.7929060717146026 1 rotate no_reflect no_shear #
lump $-1 $-1 $15 $3 #
transform $-1 1 0 0 0 1 0 0 0 1 51.501815851313822 31.355327762109123 9.7929060717146026 1 rotate no_reflect no_shear #
shell $-1 $-1 $-1 $16 $-1 $4 #
shell $-1 $-1 $-1 $17 $-1 $6 #
shell $-1 $-1 $-1 $18 $-1 $8 #
shell $-1 $-1 $-1 $19 $-1 $10 #
face $-1 $20 $21 $12 $-1 $22 reversed single #
face $-1 $23 $24 $13 $-1 $25 forward single #
face $-1 $26 $27 $14 $-1 $28 reversed single #
face $-1 $29 $30 $15 $-1 $31 forward single #
face $-1 $32 $33 $12 $-1 $34 forward single #
loop $-1 $-1 $35 $16 #
plane-surface $-1 0 -31.355327762109123 0 0 1 0 0 0 1 forward_v I I I I #
face $-1 $36 $37 $13 $-1 $38 forward single #
loop $-1 $-1 $39 $17 #
plane-surface $-1 0 -31.355327762109123 0 0 1 0 0 0 1 forward_v I I I I #
face $-1 $40 $41 $14 $-1 $42 reversed single #
loop $-1 $-1 $43 $18 #
plane-surface $-1 89.203763913256708 -6.258322280576758 146.46110699723923 0 -1 0 -0.86602541151947299 0 -0.49999998660252726 forward_v I I I I #
face $-1 $44 $45 $15 $-1 $46 forward single #
loop $-1 $47 $48 $19 #
cone-surface $-1 49.722890042182811 -13.461919230618573 7.4200507392009571 -0.86602541151947299 0 -0.49999998660252726 0.49999998660252726 0 -0.86602541151947299 1 I I 0 1 1 forward I I I I #
face $-1 $49 $50 $12 $-1 $51 reversed single #
loop $-1 $-1 $52 $20 #
plane-surface $-1 0 0 9.7929060717146026 0 0 1 1 0 0 forward_v I I I I #
coedge $-1 $53 $54 $55 $56 reversed $21 $-1 #
face $-1 $57 $58 $13 $-1 $59 reversed single #
loop $-1 $-1 $60 $23 #
plane-surface $-1 0 0 9.7929060717146026 0 0 1 1 0 0 forward_v I I I I #
coedge $-1 $61 $62 $63 $64 forward $24 $-1 #
face $-1 $65 $66 $14 $-1 $67 reversed single #
loop $-1 $-1 $68 $26 #
plane-surface $-1 1.3799883618048625e-006 -13.461919230618573 94.959292525913753 0.86602541151947299 0 0.49999998660252726 0.49999998660252726 0 -0.86602541151947299 forward_v I I I I #
coedge $-1 $69 $70 $71 $72 reversed $27 $-1 #
face $-1 $-1 $73 $15 $-1 $74 forward single #
loop $-1 $75 $76 $29 #
cone-surface $-1 48.676441568688247 -13.461919230618573 6.8158834529206391 -0.86602541151947299 0 -0.49999998660252726 0.24999999330126363 0 -0.43301270575973649 1 I I -0.70710678118654746 0.70710678118654746 0.5 forward I I I I #
loop $-1 $-1 $77 $19 #
coedge $-1 $48 $48 $78 $79 reversed $30 $-1 #
face $-1 $80 $81 $12 $-1 $82 reversed single #
loop $-1 $-1 $83 $32 #
plane-surface $-1 0 0 -9.7929060717146026 0 0 1 1 0 0 forward_v I I I I #
coedge $-1 $84 $85 $86 $87 forward $33 $-1 #
coedge $-1 $88 $35 $89 $90 reversed $21 $-1 #
coedge $-1 $35 $88 $91 $92 forward $21 $-1 #
coedge $-1 $93 $83 $35 $56 forward $50 $-1 #
edge $-1 $94 -51.501815851313822 $95 51.501815851313822 $35 $96 forward 7 unknown #
face $-1 $97 $98 $13 $-1 $99 reversed single #
loop $-1 $-1 $100 $36 #
plane-surface $-1 -51.501815851313822 0 0 1 0 0 0 0 -1 forward_v I I I I #
coedge $-1 $101 $102 $62 $103 forward $37 $-1 #
coedge $-1 $104 $39 $105 $106 reversed $24 $-1 #
coedge $-1 $39 $104 $60 $103 reversed $24 $-1 #
coedge $-1 $107 $108 $39 $64 reversed $109 $-1 #
edge $-1 $110 -9.7929060717146026 $111 9.7929060717146026 $63 $112 forward 7 unknown #
face $-1 $113 $114 $14 $-1 $115 forward single #
loop $-1 $-1 $116 $40 #
plane-surface $-1 89.203763913256708 -20.66551618066039 146.46110699723923 0 1 0 0.86602541151947299 0 0.49999998660252726 forward_v I I I I #
coedge $-1 $117 $118 $119 $120 reversed $41 $-1 #
coedge $-1 $70 $43 $121 $122 reversed $27 $-1 #
coedge $-1 $43 $69 $117 $123 reversed $27 $-1 #
coedge $-1 $119 $124 $43 $72 forward $114 $-1 #
edge $-1 $125 -6.8999338946854678 $126 -4.5689538118931097 $71 $127 forward 7 unknown #
loop $-1 $-1 $78 $44 #
plane-surface $-1 1.3799883618048625e-006 -13.461919230618573 94.959292525913753 0.86602541151947299 0 0.49999998660252726 0.49999998660252726 0 -0.86602541151947299 forward_v I I I I #
loop $-1 $-1 $128 $29 #
coedge $-1 $76 $76 $77 $129 reversed $45 $-1 #
coedge $-1 $77 $77 $76 $129 forward $47 $-1 #
coedge $-1 $78 $78 $48 $79 forward $73 $-1 #
edge $-1 $130 0 $130 6.2831853071796004 $78 $131 forward 7 unknown #
face $-1 $132 $133 $12 $-1 $134 reversed single #
loop $-1 $-1 $135 $49 #
plane-surface $-1 -51.501815851313822 0 0 1 0 0 0 0 -1 forward_v I I I I #
coedge $-1 $55 $136 $137 $138 forward $50 $-1 #
coedge $-1 $139 $52 $140 $141 forward $33 $-1 #
coedge $-1 $52 $139 $88 $142 forward $33 $-1 #
coedge $-1 $89 $143 $52 $87 reversed $144 $-1 #
edge $-1 $145 -31.355327762109123 $146 31.355327762109123 $86 $147 forward 7 unknown #
coedge $-1 $54 $53 $85 $142 reversed $21 $-1 #
coedge $-1 $137 $86 $53 $90 forward $144 $-1 #
edge $-1 $145 -9.7929060717146026 $94 9.7929060717146026 $89 $148 forward 7 unknown #
coedge $-1 $149 $150 $54 $92 reversed $81 $-1 #
edge $-1 $151 -9.7929060717146026 $95 9.7929060717146026 $91 $152 forward 7 unknown #
coedge $-1 $136 $55 $150 $153 forward $50 $-1 #
vertex $-1 $90 $154 #
vertex $-1 $153 $155 #
straight-curve $-1 0 -31.355327762109123 -9.7929060717146026 -1 0 0 I I #
face $-1 $156 $109 $13 $-1 $157 reversed single #
loop $-1 $-1 $158 $57 #
plane-surface $-1 -50.001815851313822 -42.045139343557864 0 0 1 0 0 0 1 forward_v I I I I #
coedge $-1 $159 $160 $104 $161 forward $58 $-1 #
coedge $-1 $162 $60 $160 $163 forward $37 $-1 #
coedge $-1 $60 $162 $107 $164 forward $37 $-1 #
edge $-1 $110 48.501815851313822 $165 51.501815851313822 $60 $166 forward 7 unknown #
coedge $-1 $62 $61 $100 $161 reversed $24 $-1 #
coedge $-1 $167 $168 $61 $106 forward $169 $-1 #
edge $-1 $170 -51.501815851313822 $111 -48.501815851313822 $105 $171 forward 7 unknown #
coedge $-1 $172 $63 $102 $164 reversed $109 $-1 #
coedge $-1 $63 $172 $167 $173 reversed $109 $-1 #
loop $-1 $-1 $172 $97 #
vertex $-1 $103 $174 #
vertex $-1 $173 $175 #
straight-curve $-1 -48.501815851313822 -31.355327762109123 0 0 0 -1 I I #
face $-1 $-1 $176 $14 $-1 $177 reversed single #
loop $-1 $-1 $71 $65 #
plane-surface $-1 0 0 9.7929060717146026 0 0 1 1 0 0 forward_v I I I I #
coedge $-1 $178 $179 $180 $181 reversed $66 $-1 #
coedge $-1 $182 $68 $70 $123 forward $41 $-1 #
coedge $-1 $68 $182 $178 $183 forward $41 $-1 #
coedge $-1 $180 $71 $68 $120 forward $114 $-1 #
edge $-1 $126 -0.47263733473252856 $184 13.934556565351103 $119 $185 forward 7 unknown #
coedge $-1 $186 $187 $69 $122 forward $176 $-1 #
edge $-1 $188 -67.475023505974178 $125 -63.437647426905009 $121 $189 forward 7 unknown #
edge $-1 $126 98.341671412125933 $188 103.00363170262762 $70 $190 forward 7 unknown #
coedge $-1 $71 $180 $186 $191 forward $114 $-1 #
vertex $-1 $122 $192 #
vertex $-1 $72 $193 #
straight-curve $-1 44.601881956628354 -6.258322280576758 9.7929060717145973 -1 0 0 I I #
coedge $-1 $128 $128 $-1 $194 reversed $75 $-1 #
edge $-1 $195 0 $195 6.2831853071796004 $76 $196 forward 7 unknown #
vertex $-1 $79 $197 #
ellipse-curve $-1 50.336325809917639 -13.461919230618573 7.7742180321800154 0.86602541151947299 0 0.49999998660252726 0.49999998660252726 0 -0.86602541151947299 1 I I #
face $-1 $-1 $144 $12 $-1 $198 reversed single #
loop $-1 $-1 $199 $80 #
plane-surface $-1 0 31.355327762109123 0 0 -1 0 0 0 -1 forward_v I I I I #
coedge $-1 $150 $149 $200 $201 forward $81 $-1 #
coedge $-1 $83 $93 $202 $203 forward $50 $-1 #
coedge $-1 $143 $89 $83 $138 reversed $144 $-1 #
edge $-1 $204 -31.355327762109123 $94 31.355327762109123 $137 $205 forward 7 unknown #
coedge $-1 $85 $84 $149 $206 forward $33 $-1 #
coedge $-1 $199 $200 $84 $141 reversed $133 $-1 #
edge $-1 $146 -51.501815851313822 $207 51.501815851313822 $140 $208 forward 7 unknown #
edge $-1 $151 -51.501815851313822 $145 51.501815851313822 $88 $209 forward 7 unknown #
coedge $-1 $86 $137 $199 $210 reversed $144 $-1 #
loop $-1 $-1 $89 $132 #
vertex $-1 $87 $211 #
vertex $-1 $87 $212 #
straight-curve $-1 51.501815851313822 0 9.7929060717146026 0 1 0 I I #
straight-curve $-1 51.501815851313822 -31.355327762109123 0 0 0 -1 I I #
coedge $-1 $135 $91 $139 $206 reversed $81 $-1 #
coedge $-1 $91 $135 $93 $153 reversed $81 $-1 #
vertex $-1 $206 $213 #
straight-curve $-1 -51.501815851313822 -31.355327762109123 0 0 0 -1 I I #
edge $-1 $95 -31.355327762109123 $214 31.355327762109123 $150 $215 forward 7 unknown #
point $-1 51.501815851313822 -31.355327762109123 -9.7929060717146026 #
point $-1 -51.501815851313822 -31.355327762109123 -9.7929060717146026 #
face $-1 $-1 $169 $13 $-1 $216 reversed single #
plane-surface $-1 -48.501815851313822 -36.700233552833495 0 -1 0 0 0 0 1 forward_v I I I I #
coedge $-1 $217 $218 $219 $220 forward $98 $-1 #
coedge $-1 $219 $100 $168 $221 reversed $58 $-1 #
coedge $-1 $100 $219 $101 $163 reversed $58 $-1 #
edge $-1 $165 -9.7929060717146026 $170 9.7929060717146026 $100 $222 forward 7 unknown #
coedge $-1 $102 $101 $218 $223 forward $37 $-1 #
edge $-1 $165 31.355327762109123 $224 42.045139343557864 $160 $225 forward 7 unknown #
edge $-1 $226 -5.3449057907243684 $110 5.3449057907243684 $107 $227 forward 7 unknown #
vertex $-1 $163 $228 #
straight-curve $-1 0 -31.355327762109123 9.7929060717146026 -1 0 0 I I #
coedge $-1 $229 $105 $108 $173 forward $169 $-1 #
coedge $-1 $105 $229 $159 $221 forward $169 $-1 #
loop $-1 $-1 $105 $156 #
vertex $-1 $161 $230 #
straight-curve $-1 0 -31.355327762109123 -9.7929060717146026 1 0 0 I I #
coedge $-1 $108 $107 $231 $232 forward $109 $-1 #
edge $-1 $111 -5.3449057907243684 $233 5.3449057907243684 $108 $234 forward 7 unknown #
point $-1 -48.501815851313822 -31.355327762109127 9.7929060717146026 #
point $-1 -48.501815851313822 -31.355327762109127 -9.7929060717146026 #
loop $-1 $-1 $121 $113 #
plane-surface $-1 51.501815851313822 0 0 -1 0 0 0 0 1 forward_v I I I I #
coedge $-1 $179 $116 $118 $183 reversed $66 $-1 #
coedge $-1 $116 $178 $235 $236 reversed $66 $-1 #
coedge $-1 $124 $119 $116 $181 forward $114 $-1 #
edge $-1 $184 4.5689538118931097 $237 6.8999338946854678 $180 $238 forward 7 unknown #
coedge $-1 $118 $117 $187 $239 reversed $41 $-1 #
edge $-1 $240 -103.00363170262762 $184 -98.341671412125933 $178 $241 forward 7 unknown #
vertex $-1 $120 $242 #
straight-curve $-1 49.170835768521457 -6.7309596153092865 9.7929060717146044 0 -1 0 I I #
coedge $-1 $235 $121 $124 $191 reversed $176 $-1 #
coedge $-1 $121 $235 $182 $239 forward $176 $-1 #
vertex $-1 $122 $243 #
straight-curve $-1 51.501815851313822 -6.258322280576758 73.230553498619614 0 0 1 I I #
straight-curve $-1 1.3799883618048625e-006 -6.258322280576758 94.959292525913753 0.49999998660252726 0 -0.86602541151947299 I I #
edge $-1 $237 -20.66551618066039 $125 -6.258322280576758 $186 $244 forward 7 unknown #
point $-1 51.501815851313822 -6.258322280576758 9.7929060717146026 #
point $-1 49.170835768521464 -6.258322280576758 9.7929060717145973 #
edge $-1 $245 1 $245 0 $128 $-1 forward 7 unknown #
vertex $-1 $129 $246 #
ellipse-curve $-1 49.109454274447984 -13.461919230618573 7.0658834462219025 0.86602541151947299 0 0.49999998660252726 0.49999998660252726 0 -0.86602541151947299 1 I I #
point $-1 50.836325796520157 -13.461919230618573 6.9081926206605377 #
plane-surface $-1 51.501815851313822 0 0 -1 0 0 0 0 1 forward_v I I I I #
coedge $-1 $202 $140 $143 $210 forward $133 $-1 #
coedge $-1 $140 $202 $135 $201 reversed $133 $-1 #
edge $-1 $207 -9.7929060717146026 $214 9.7929060717146026 $200 $247 forward 7 unknown #
coedge $-1 $200 $199 $136 $203 reversed $133 $-1 #
edge $-1 $214 -51.501815851313822 $204 51.501815851313822 $202 $248 forward 7 unknown #
vertex $-1 $138 $249 #
straight-curve $-1 51.501815851313822 0 -9.7929060717146026 0 -1 0 I I #
edge $-1 $207 -31.355327762109123 $151 31.355327762109123 $149 $250 forward 7 unknown #
vertex $-1 $141 $251 #
straight-curve $-1 0 31.355327762109123 9.7929060717146026 -1 0 0 I I #
straight-curve $-1 0 -31.355327762109123 9.7929060717146026 1 0 0 I I #
edge $-1 $146 -9.7929060717146026 $204 9.7929060717146026 $143 $252 forward 7 unknown #
point $-1 51.501815851313822 -31.355327762109123 9.7929060717146026 #
point $-1 51.501815851313822 31.355327762109123 9.7929060717146026 #
point $-1 -51.501815851313822 -31.355327762109123 9.7929060717146026 #
vertex $-1 $203 $253 #
straight-curve $-1 -51.501815851313822 0 -9.7929060717146026 0 1 0 I I #
plane-surface $-1 0 0 -9.7929060717146026 0 0 1 1 0 0 forward_v I I I I #
coedge $-1 $231 $158 $229 $254 reversed $98 $-1 #
coedge $-1 $158 $231 $162 $223 reversed $98 $-1 #
coedge $-1 $160 $159 $158 $220 reversed $58 $-1 #
edge $-1 $224 -9.7929060717146026 $255 9.7929060717146026 $219 $256 forward 7 unknown #
edge $-1 $255 -42.045139343557864 $170 -31.355327762109123 $159 $257 forward 7 unknown #
straight-curve $-1 -51.501815851313822 -31.355327762109123 0 0 0 -1 I I #
edge $-1 $224 -1.5 $226 1.5 $218 $258 forward 7 unknown #
vertex $-1 $163 $259 #
straight-curve $-1 -51.501815851313822 0 9.7929060717146026 0 -1 0 I I #
vertex $-1 $164 $260 #
straight-curve $-1 -48.501815851313822 -36.700233552833495 9.7929060717146026 0 1 0 I I #
point $-1 -51.501815851313822 -31.355327762109123 9.7929060717146026 #
coedge $-1 $168 $167 $217 $254 forward $169 $-1 #
point $-1 -51.501815851313822 -31.355327762109123 -9.7929060717146026 #
coedge $-1 $218 $217 $172 $232 reversed $98 $-1 #
edge $-1 $226 -9.7929060717146026 $233 9.7929060717146026 $172 $261 forward 7 unknown #
vertex $-1 $232 $262 #
straight-curve $-1 -48.501815851313822 -36.700233552833495 -9.7929060717146026 0 -1 0 I I #
coedge $-1 $187 $186 $179 $236 forward $176 $-1 #
edge $-1 $237 63.437647426905009 $240 67.475023505974178 $235 $263 forward 7 unknown #
vertex $-1 $191 $264 #
straight-curve $-1 44.601881956628354 -20.66551618066039 9.7929060717145973 1 0 0 I I #
edge $-1 $240 -13.934556565351103 $188 0.47263733473252856 $187 $265 forward 7 unknown #
vertex $-1 $239 $266 #
straight-curve $-1 1.3799883618048625e-006 -20.66551618066039 94.959292525913753 -0.49999998660252726 0 0.86602541151947299 I I #
point $-1 49.170835768521464 -20.66551618066039 9.7929060717145973 #
point $-1 51.501815851313822 -6.258322280576758 5.7555299926454353 #
straight-curve $-1 51.501815851313822 0 9.7929060717146026 0 1 0 I I #
vertex $-1 $194 $267 #
point $-1 49.609454261050509 -13.461919230618573 6.1998580347024301 #
straight-curve $-1 -51.501815851313822 31.355327762109123 0 0 0 -1 I I #
straight-curve $-1 0 31.355327762109123 -9.7929060717146026 1 0 0 I I #
point $-1 51.501815851313822 31.355327762109123 -9.7929060717146026 #
straight-curve $-1 -51.501815851313822 0 9.7929060717146026 0 -1 0 I I #
point $-1 -51.501815851313822 31.355327762109123 9.7929060717146026 #
straight-curve $-1 51.501815851313822 31.355327762109123 0 0 0 -1 I I #
point $-1 -51.501815851313822 31.355327762109123 -9.7929060717146026 #
edge $-1 $233 -1.5 $255 1.5 $217 $268 forward 7 unknown #
vertex $-1 $221 $269 #
straight-curve $-1 -51.501815851313822 -42.045139343557864 0 0 0 -1 I I #
straight-curve $-1 -51.501815851313822 0 -9.7929060717146026 0 1 0 I I #
straight-curve $-1 -50.001815851313822 -42.045139343557864 9.7929060717146026 1 0 0 I I #
point $-1 -51.501815851313822 -42.045139343557864 9.7929060717146026 #
point $-1 -48.501815851313822 -42.045139343557864 9.7929060717146026 #
straight-curve $-1 -48.501815851313822 -42.045139343557864 0 0 0 -1 I I #
point $-1 -48.501815851313822 -42.045139343557864 -9.7929060717146026 #
straight-curve $-1 51.501815851313822 -20.66551618066039 73.230553498619614 0 0 -1 I I #
point $-1 51.501815851313822 -20.66551618066039 9.7929060717146026 #
straight-curve $-1 51.501815851313822 -6.7309596153092865 5.7555299926454424 0 1 0 I I #
point $-1 51.501815851313822 -20.66551618066039 5.7555299926454353 #
point $-1 48.243428862928511 -13.461919230618573 6.5658834596193758 #
straight-curve $-1 -50.001815851313822 -42.045139343557864 -9.7929060717146026 -1 0 0 I I #
point $-1 -51.501815851313822 -42.045139343557864 -9.7929060717146026 #
End-of-ACIS-data 