500 0 5 0           
7 Unknown 11 ACIS 5.0 NT 24 Fri Mar 26 02:45:22 1999 
-1 9.9999999999999995e-007 1e-010 
body $-1 $5 $-1 $6 #
body $-1 $7 $-1 $8 #
body $-1 $9 $-1 $10 #
body $-1 $11 $-1 $12 #
body $-1 $13 $-1 $14 #
lump $-1 $-1 $15 $0 #
transform $-1 1 0 0 0 1 0 0 0 1 77.967467268898588 50.950943933902963 23.528833986335218 1 rotate no_reflect no_shear #
lump $-1 $-1 $16 $1 #
transform $-1 1 0 0 0 1 0 0 0 1 77.967467268898588 50.950943933902963 23.528833986335218 1 rotate no_reflect no_shear #
lump $-1 $-1 $17 $2 #
transform $-1 1 0 0 0 1 0 0 0 1 77.967467268898588 50.950943933902963 23.528833986335218 1 rotate no_reflect no_shear #
lump $-1 $-1 $18 $3 #
transform $-1 1 0 0 0 1 0 0 0 1 77.967467268898588 50.950943933902963 23.528833986335218 1 rotate no_reflect no_shear #
lump $-1 $-1 $19 $4 #
transform $-1 1 0 0 0 1 0 0 0 1 77.967467268898588 50.950943933902963 23.528833986335218 1 rotate no_reflect no_shear #
shell $-1 $-1 $-1 $20 $-1 $5 #
shell $-1 $-1 $-1 $21 $-1 $7 #
shell $-1 $-1 $-1 $22 $-1 $9 #
shell $-1 $-1 $-1 $23 $-1 $11 #
shell $-1 $-1 $-1 $24 $-1 $13 #
face $-1 $25 $26 $15 $-1 $27 forward single #
face $-1 $28 $29 $16 $-1 $30 forward single #
face $-1 $31 $32 $17 $-1 $33 reversed single #
face $-1 $34 $35 $18 $-1 $36 reversed single #
face $-1 $37 $38 $19 $-1 $39 forward single #
face $-1 $40 $41 $15 $-1 $42 reversed single #
loop $-1 $-1 $43 $20 #
plane-surface $-1 0 0 23.528833986335218 0 0 1 1 0 0 forward_v I I I I #
face $-1 $44 $45 $16 $-1 $46 reversed single #
loop $-1 $-1 $47 $21 #
plane-surface $-1 0 -50.950943933902963 0 0 1 0 0 0 1 forward_v I I I I #
face $-1 $48 $49 $17 $-1 $50 reversed single #
loop $-1 $-1 $51 $22 #
plane-surface $-1 0 39.745511776240662 16.831155037266246 0 0 1 1 0 0 forward_v I I I I #
face $-1 $52 $53 $18 $-1 $54 reversed single #
loop $-1 $-1 $55 $23 #
plane-surface $-1 32.117681264694156 7.4976247679373955 218.6252001356153 0 -1 0 -0.54463904215088732 0 -0.83867056331134215 forward_v I I I I #
face $-1 $56 $57 $19 $-1 $58 forward single #
loop $-1 $59 $60 $24 #
cone-surface $-1 61.03959040669141 1.6956863718117887 11.592190984075234 -0.54463904215088732 0 -0.83867056331134215 1.2580058449670133 0 -0.81695856322633098 1 I I 0 1 1.5 forward I I I I #
face $-1 $61 $62 $15 $-1 $63 reversed single #
loop $-1 $-1 $64 $25 #
plane-surface $-1 0 0 -23.528833986335218 0 0 1 1 0 0 forward_v I I I I #
coedge $-1 $65 $66 $67 $68 forward $26 $-1 #
face $-1 $69 $70 $16 $-1 $71 reversed single #
loop $-1 $-1 $72 $28 #
plane-surface $-1 0 0 -23.528833986335218 0 0 1 1 0 0 forward_v I I I I #
coedge $-1 $73 $74 $75 $76 forward $29 $-1 #
face $-1 $77 $78 $17 $-1 $79 reversed single #
loop $-1 $-1 $80 $31 #
plane-surface $-1 0 28.540079618578361 20.179994511800732 0 1 0 0 0 1 forward_v I I I I #
coedge $-1 $81 $82 $83 $84 reversed $32 $-1 #
face $-1 $85 $86 $18 $-1 $87 reversed single #
loop $-1 $-1 $88 $34 #
plane-surface $-1 -52.810572119833012 1.6956863718117887 87.847160746883674 0.54463904215088732 0 0.83867056331134215 0.83867056331134215 0 -0.54463904215088732 forward_v I I I I #
coedge $-1 $89 $90 $91 $92 reversed $35 $-1 #
face $-1 $-1 $93 $19 $-1 $94 forward single #
loop $-1 $95 $96 $37 #
cone-surface $-1 59.571485924812151 1.6956863718117887 9.3315083713210889 -0.54463904215088732 0 -0.83867056331134215 0.62900292248350664 0 -0.40847928161316549 1 I I -0.70710678118654757 0.70710678118654757 0.75 forward I I I I #
loop $-1 $-1 $97 $24 #
coedge $-1 $60 $60 $98 $99 reversed $38 $-1 #
face $-1 $100 $101 $15 $-1 $102 reversed single #
loop $-1 $-1 $103 $40 #
plane-surface $-1 0 -50.950943933902963 0 0 1 0 0 0 1 forward_v I I I I #
coedge $-1 $104 $105 $106 $107 forward $41 $-1 #
coedge $-1 $108 $43 $109 $110 forward $26 $-1 #
coedge $-1 $43 $108 $111 $112 forward $26 $-1 #
coedge $-1 $113 $114 $43 $68 reversed $115 $-1 #
edge $-1 $116 -50.950943933902963 $117 50.950943933902963 $67 $118 forward 7 unknown #
face $-1 $119 $120 $16 $-1 $121 forward single #
loop $-1 $-1 $122 $44 #
plane-surface $-1 77.967467268898588 0 0 -1 0 0 0 0 1 forward_v I I I I #
coedge $-1 $123 $124 $125 $126 forward $45 $-1 #
coedge $-1 $125 $47 $122 $127 reversed $29 $-1 #
coedge $-1 $47 $125 $128 $129 reversed $29 $-1 #
coedge $-1 $130 $131 $47 $76 reversed $120 $-1 #
edge $-1 $132 -77.967467268898588 $133 77.967467268898588 $75 $134 forward 7 unknown #
face $-1 $135 $136 $17 $-1 $137 reversed single #
loop $-1 $-1 $138 $48 #
plane-surface $-1 0 50.950943933902963 0 0 -1 0 0 0 -1 forward_v I I I I #
coedge $-1 $139 $140 $141 $142 reversed $49 $-1 #
coedge $-1 $143 $51 $139 $144 forward $32 $-1 #
coedge $-1 $51 $143 $138 $145 reversed $32 $-1 #
coedge $-1 $146 $147 $51 $84 forward $148 $-1 #
edge $-1 $149 8.6673237304580297 $150 31.078188045782632 $83 $151 forward 7 unknown #
face $-1 $152 $153 $18 $-1 $154 forward single #
loop $-1 $-1 $155 $52 #
plane-surface $-1 32.117681264694156 -4.1062520243138181 218.6252001356153 0 1 0 0.54463904215088732 0 0.83867056331134215 forward_v I I I I #
coedge $-1 $156 $157 $158 $159 reversed $53 $-1 #
coedge $-1 $90 $55 $160 $161 reversed $35 $-1 #
coedge $-1 $55 $89 $156 $162 reversed $35 $-1 #
coedge $-1 $158 $163 $55 $92 forward $153 $-1 #
edge $-1 $164 -61.90862663655151 $165 -30.172123312669335 $91 $166 forward 7 unknown #
loop $-1 $-1 $98 $56 #
plane-surface $-1 -52.810572119833012 1.6956863718117887 87.847160746883674 0.54463904215088732 0 0.83867056331134215 0.83867056331134215 0 -0.54463904215088732 forward_v I I I I #
loop $-1 $-1 $167 $37 #
coedge $-1 $96 $96 $97 $168 reversed $57 $-1 #
coedge $-1 $97 $97 $96 $168 forward $59 $-1 #
coedge $-1 $98 $98 $60 $99 forward $93 $-1 #
edge $-1 $169 0 $169 6.2831853071796004 $98 $170 forward 7 unknown #
face $-1 $171 $172 $15 $-1 $173 reversed single #
loop $-1 $-1 $174 $61 #
plane-surface $-1 -77.967467268898588 0 0 1 0 0 0 0 -1 forward_v I I I I #
coedge $-1 $175 $111 $176 $177 forward $62 $-1 #
coedge $-1 $178 $64 $175 $179 forward $41 $-1 #
coedge $-1 $64 $178 $180 $181 forward $41 $-1 #
coedge $-1 $114 $113 $64 $107 reversed $115 $-1 #
edge $-1 $182 -50.950943933902963 $183 50.950943933902963 $106 $184 forward 7 unknown #
coedge $-1 $66 $65 $185 $186 forward $26 $-1 #
coedge $-1 $187 $188 $65 $110 reversed $172 $-1 #
edge $-1 $117 -77.967467268898588 $189 77.967467268898588 $109 $190 forward 7 unknown #
coedge $-1 $103 $191 $66 $112 reversed $62 $-1 #
edge $-1 $192 -77.967467268898588 $116 77.967467268898588 $111 $193 forward 7 unknown #
coedge $-1 $106 $67 $191 $194 forward $115 $-1 #
coedge $-1 $67 $106 $187 $195 reversed $115 $-1 #
loop $-1 $-1 $113 $171 #
vertex $-1 $68 $196 #
vertex $-1 $68 $197 #
straight-curve $-1 77.967467268898588 0 23.528833986335218 0 1 0 I I #
face $-1 $198 $199 $16 $-1 $200 reversed single #
loop $-1 $-1 $131 $69 #
plane-surface $-1 0 -59.652167686850007 -14.585909573584093 0 0 1 1 0 0 forward_v I I I I #
coedge $-1 $201 $202 $73 $127 forward $70 $-1 #
coedge $-1 $203 $72 $202 $204 forward $45 $-1 #
coedge $-1 $72 $203 $205 $206 forward $45 $-1 #
coedge $-1 $74 $73 $72 $126 reversed $29 $-1 #
edge $-1 $207 -77.967467268898588 $208 77.967467268898588 $72 $209 forward 7 unknown #
edge $-1 $208 -23.528833986335218 $133 -14.585909573584093 $122 $210 forward 7 unknown #
coedge $-1 $205 $211 $74 $129 forward $212 $-1 #
edge $-1 $132 14.585909573584093 $207 23.528833986335218 $128 $213 forward 7 unknown #
coedge $-1 $214 $75 $211 $215 forward $120 $-1 #
coedge $-1 $75 $214 $201 $216 forward $120 $-1 #
vertex $-1 $129 $217 #
vertex $-1 $216 $218 #
straight-curve $-1 0 -50.950943933902963 -14.585909573584093 1 0 0 I I #
face $-1 $219 $220 $17 $-1 $221 forward single #
loop $-1 $-1 $222 $77 #
plane-surface $-1 -77.967467268898588 0 0 1 0 0 0 0 -1 forward_v I I I I #
coedge $-1 $223 $224 $82 $145 forward $78 $-1 #
coedge $-1 $225 $80 $81 $144 reversed $49 $-1 #
coedge $-1 $80 $225 $226 $227 reversed $49 $-1 #
coedge $-1 $228 $222 $80 $142 forward $136 $-1 #
edge $-1 $229 6.7411577813658798 $230 13.438836730434852 $141 $231 forward 7 unknown #
coedge $-1 $82 $81 $222 $232 reversed $32 $-1 #
edge $-1 $149 -77.967467268898588 $229 77.967467268898588 $139 $233 forward 7 unknown #
edge $-1 $150 -77.967467268898588 $234 77.967467268898588 $138 $235 forward 7 unknown #
coedge $-1 $236 $83 $224 $237 reversed $148 $-1 #
coedge $-1 $83 $236 $225 $238 forward $148 $-1 #
loop $-1 $-1 $83 $219 #
vertex $-1 $84 $239 #
vertex $-1 $145 $240 #
straight-curve $-1 77.967467268898588 19.872755888120331 16.831155037266246 0 1 0 I I #
face $-1 $-1 $241 $18 $-1 $242 reversed single #
loop $-1 $-1 $91 $85 #
plane-surface $-1 0 0 23.528833986335218 0 0 1 1 0 0 forward_v I I I I #
coedge $-1 $243 $244 $245 $246 reversed $86 $-1 #
coedge $-1 $247 $88 $90 $162 forward $53 $-1 #
coedge $-1 $88 $247 $243 $248 forward $53 $-1 #
coedge $-1 $245 $91 $88 $159 forward $153 $-1 #
edge $-1 $165 -6.6497815820315012 $249 4.9540952102197124 $158 $250 forward 7 unknown #
coedge $-1 $251 $252 $89 $161 forward $241 $-1 #
edge $-1 $253 -106.39369270545113 $164 -85.783766081472436 $160 $254 forward 7 unknown #
edge $-1 $165 118.09349272234077 $253 155.93493453779715 $90 $255 forward 7 unknown #
coedge $-1 $91 $245 $251 $256 forward $153 $-1 #
vertex $-1 $161 $257 #
vertex $-1 $92 $258 #
straight-curve $-1 16.058840632347078 7.4976247679373955 23.528833986335215 -1 0 0 I I #
coedge $-1 $167 $167 $-1 $259 reversed $95 $-1 #
edge $-1 $260 0 $260 6.2831853071796004 $96 $261 forward 7 unknown #
vertex $-1 $99 $262 #
ellipse-curve $-1 62.099215606957493 1.6956863718117887 13.223870674345864 0.54463904215088732 0 0.83867056331134215 1.2580058449670133 0 -0.81695856322633098 1 I I #
face $-1 $-1 $115 $15 $-1 $263 reversed single #
loop $-1 $-1 $187 $100 #
plane-surface $-1 0 50.950943933902963 0 0 -1 0 0 0 -1 forward_v I I I I #
coedge $-1 $264 $185 $188 $265 forward $101 $-1 #
coedge $-1 $191 $103 $104 $179 reversed $62 $-1 #
coedge $-1 $185 $264 $103 $177 reversed $101 $-1 #
edge $-1 $192 -23.528833986335218 $266 23.528833986335218 $176 $267 forward 7 unknown #
coedge $-1 $105 $104 $264 $268 forward $41 $-1 #
edge $-1 $183 -77.967467268898588 $266 77.967467268898588 $175 $269 forward 7 unknown #
coedge $-1 $188 $187 $105 $181 reversed $172 $-1 #
edge $-1 $270 -77.967467268898588 $182 77.967467268898588 $180 $271 forward 7 unknown #
vertex $-1 $107 $272 #
vertex $-1 $194 $273 #
straight-curve $-1 77.967467268898588 0 -23.528833986335218 0 -1 0 I I #
coedge $-1 $174 $176 $108 $186 reversed $101 $-1 #
edge $-1 $189 -50.950943933902963 $192 50.950943933902963 $185 $274 forward 7 unknown #
coedge $-1 $180 $109 $114 $195 forward $172 $-1 #
coedge $-1 $109 $180 $174 $265 reversed $172 $-1 #
vertex $-1 $110 $275 #
straight-curve $-1 0 50.950943933902963 23.528833986335218 -1 0 0 I I #
coedge $-1 $111 $175 $113 $194 reversed $62 $-1 #
vertex $-1 $186 $276 #
straight-curve $-1 0 -50.950943933902963 23.528833986335218 1 0 0 I I #
edge $-1 $116 -23.528833986335218 $183 23.528833986335218 $113 $277 forward 7 unknown #
edge $-1 $117 -23.528833986335218 $182 23.528833986335218 $114 $278 forward 7 unknown #
point $-1 77.967467268898588 -50.950943933902963 23.528833986335218 #
point $-1 77.967467268898588 50.950943933902963 23.528833986335218 #
face $-1 $-1 $212 $16 $-1 $279 reversed single #
loop $-1 $-1 $280 $119 #
plane-surface $-1 0 -68.353391439797051 -19.057371779959656 0 1 0 0 0 1 forward_v I I I I #
coedge $-1 $281 $122 $131 $216 reversed $70 $-1 #
coedge $-1 $122 $281 $123 $204 reversed $70 $-1 #
coedge $-1 $124 $123 $282 $283 forward $45 $-1 #
edge $-1 $208 50.950943933902963 $284 68.353391439797051 $202 $285 forward 7 unknown #
coedge $-1 $286 $128 $124 $206 reversed $212 $-1 #
edge $-1 $287 -68.353391439797051 $207 -50.950943933902963 $205 $288 forward 7 unknown #
vertex $-1 $129 $289 #
vertex $-1 $204 $290 #
straight-curve $-1 0 -50.950943933902963 -23.528833986335218 1 0 0 I I #
straight-curve $-1 77.967467268898588 -50.950943933902963 0 0 0 1 I I #
coedge $-1 $128 $286 $130 $215 reversed $212 $-1 #
loop $-1 $-1 $128 $198 #
straight-curve $-1 -77.967467268898588 -50.950943933902963 0 0 0 -1 I I #
coedge $-1 $131 $130 $291 $292 forward $120 $-1 #
edge $-1 $132 -8.701223752947044 $293 8.701223752947044 $211 $294 forward 7 unknown #
edge $-1 $295 -8.701223752947044 $133 8.701223752947044 $201 $296 forward 7 unknown #
point $-1 -77.967467268898588 -50.950943933902963 -14.585909573584093 #
point $-1 77.967467268898588 -50.950943933902963 -14.585909573584093 #
face $-1 $-1 $148 $17 $-1 $297 reversed single #
loop $-1 $-1 $226 $135 #
plane-surface $-1 0 0 23.528833986335218 0 0 1 1 0 0 forward_v I I I I #
coedge $-1 $141 $298 $143 $232 forward $136 $-1 #
coedge $-1 $299 $138 $298 $300 reversed $78 $-1 #
coedge $-1 $138 $299 $146 $237 forward $78 $-1 #
coedge $-1 $140 $139 $147 $238 reversed $49 $-1 #
coedge $-1 $301 $302 $140 $227 forward $220 $-1 #
edge $-1 $230 -77.967467268898588 $303 77.967467268898588 $226 $304 forward 7 unknown #
coedge $-1 $298 $141 $302 $305 reversed $136 $-1 #
vertex $-1 $232 $306 #
vertex $-1 $142 $307 #
straight-curve $-1 -77.967467268898588 28.540079618578361 10.089997255900366 0 0 1 I I #
edge $-1 $234 -31.078188045782632 $229 -8.6673237304580297 $222 $308 forward 7 unknown #
straight-curve $-1 0 28.540079618578361 16.831155037266246 -1 0 0 I I #
vertex $-1 $145 $309 #
straight-curve $-1 0 50.950943933902963 16.831155037266246 -1 0 0 I I #
coedge $-1 $147 $146 $301 $310 reversed $148 $-1 #
edge $-1 $311 -23.528833986335218 $150 -16.831155037266246 $146 $312 forward 7 unknown #
edge $-1 $303 -13.438836730434852 $149 -6.7411577813658798 $147 $313 forward 7 unknown #
point $-1 77.967467268898588 28.540079618578361 16.831155037266246 #
point $-1 77.967467268898588 50.950943933902963 16.831155037266246 #
loop $-1 $-1 $160 $152 #
plane-surface $-1 77.967467268898588 0 0 -1 0 0 0 0 1 forward_v I I I I #
coedge $-1 $244 $155 $157 $248 reversed $86 $-1 #
coedge $-1 $155 $243 $314 $315 reversed $86 $-1 #
coedge $-1 $163 $158 $155 $246 forward $153 $-1 #
edge $-1 $249 30.172123312669335 $316 61.90862663655151 $245 $317 forward 7 unknown #
coedge $-1 $157 $156 $252 $318 reversed $53 $-1 #
edge $-1 $319 -155.93493453779715 $249 -118.09349272234077 $243 $320 forward 7 unknown #
vertex $-1 $159 $321 #
straight-curve $-1 46.230963945016413 0.84784318590589436 23.528833986335215 0 -1 0 I I #
coedge $-1 $314 $160 $163 $256 reversed $241 $-1 #
coedge $-1 $160 $314 $247 $318 forward $241 $-1 #
vertex $-1 $161 $322 #
straight-curve $-1 77.967467268898588 7.4976247679373955 109.31260006780765 0 0 1 I I #
straight-curve $-1 -52.810572119833012 7.4976247679373955 87.847160746883674 0.83867056331134215 0 -0.54463904215088732 I I #
edge $-1 $316 -4.1062520243138181 $164 7.4976247679373955 $251 $323 forward 7 unknown #
point $-1 77.967467268898588 7.4976247679373955 23.528833986335218 #
point $-1 46.230963945016413 7.4976247679373955 23.528833986335215 #
edge $-1 $324 1 $324 0 $167 $-1 forward 7 unknown #
vertex $-1 $168 $325 #
ellipse-curve $-1 59.979965206425319 1.6956863718117887 9.9605112938045952 0.54463904215088732 0 0.83867056331134215 1.2580058449670133 0 -0.81695856322633098 1 I I #
point $-1 63.357221451924516 1.6956863718117887 12.406912111119542 #
plane-surface $-1 77.967467268898588 0 0 -1 0 0 0 0 1 forward_v I I I I #
coedge $-1 $176 $174 $178 $268 reversed $101 $-1 #
edge $-1 $189 -23.528833986335218 $270 23.528833986335218 $188 $326 forward 7 unknown #
vertex $-1 $268 $327 #
straight-curve $-1 -77.967467268898588 -50.950943933902963 0 0 0 -1 I I #
edge $-1 $266 -50.950943933902963 $270 50.950943933902963 $264 $328 forward 7 unknown #
straight-curve $-1 0 -50.950943933902963 -23.528833986335218 -1 0 0 I I #
vertex $-1 $181 $329 #
straight-curve $-1 0 50.950943933902963 -23.528833986335218 1 0 0 I I #
point $-1 77.967467268898588 50.950943933902963 -23.528833986335218 #
point $-1 77.967467268898588 -50.950943933902963 -23.528833986335218 #
straight-curve $-1 -77.967467268898588 0 23.528833986335218 0 -1 0 I I #
point $-1 -77.967467268898588 50.950943933902963 23.528833986335218 #
point $-1 -77.967467268898588 -50.950943933902963 23.528833986335218 #
straight-curve $-1 77.967467268898588 -50.950943933902963 0 0 0 -1 I I #
straight-curve $-1 77.967467268898588 50.950943933902963 0 0 0 -1 I I #
plane-surface $-1 -77.967467268898588 0 0 1 0 0 0 0 -1 forward_v I I I I #
coedge $-1 $282 $291 $286 $330 forward $199 $-1 #
coedge $-1 $202 $201 $331 $332 forward $70 $-1 #
coedge $-1 $331 $280 $203 $283 reversed $199 $-1 #
edge $-1 $284 -77.967467268898588 $287 77.967467268898588 $282 $333 forward 7 unknown #
vertex $-1 $332 $334 #
straight-curve $-1 77.967467268898588 0 -23.528833986335218 0 -1 0 I I #
coedge $-1 $211 $205 $280 $330 reversed $212 $-1 #
vertex $-1 $206 $335 #
straight-curve $-1 -77.967467268898588 0 -23.528833986335218 0 1 0 I I #
point $-1 -77.967467268898588 -50.950943933902963 -23.528833986335218 #
point $-1 77.967467268898588 -50.950943933902963 -23.528833986335218 #
coedge $-1 $280 $331 $214 $292 reversed $199 $-1 #
edge $-1 $293 -77.967467268898588 $295 77.967467268898588 $291 $336 forward 7 unknown #
vertex $-1 $215 $337 #
straight-curve $-1 -77.967467268898588 -59.652167686850007 -14.585909573584093 0 -1 0 I I #
vertex $-1 $216 $338 #
straight-curve $-1 77.967467268898588 -59.652167686850007 -14.585909573584093 0 1 0 I I #
plane-surface $-1 77.967467268898588 0 0 -1 0 0 0 0 1 forward_v I I I I #
coedge $-1 $222 $228 $223 $300 forward $136 $-1 #
coedge $-1 $224 $223 $339 $340 reversed $78 $-1 #
edge $-1 $341 -23.528833986335218 $234 -16.831155037266246 $223 $342 forward 7 unknown #
coedge $-1 $339 $226 $236 $310 forward $220 $-1 #
coedge $-1 $226 $339 $228 $305 forward $220 $-1 #
vertex $-1 $310 $343 #
straight-curve $-1 0 28.540079618578361 23.528833986335218 1 0 0 I I #
edge $-1 $341 -50.950943933902963 $230 -28.540079618578361 $228 $344 forward 7 unknown #
point $-1 -77.967467268898588 28.540079618578361 16.831155037266246 #
point $-1 -77.967467268898588 28.540079618578361 23.528833986335218 #
straight-curve $-1 -77.967467268898588 19.872755888120331 16.831155037266246 0 -1 0 I I #
point $-1 -77.967467268898588 50.950943933902963 16.831155037266246 #
edge $-1 $303 28.540079618578361 $311 50.950943933902963 $236 $345 forward 7 unknown #
vertex $-1 $310 $346 #
straight-curve $-1 77.967467268898588 50.950943933902963 0 0 0 -1 I I #
straight-curve $-1 77.967467268898588 28.540079618578361 10.089997255900366 0 0 -1 I I #
coedge $-1 $252 $251 $244 $315 forward $241 $-1 #
edge $-1 $316 85.783766081472436 $319 106.39369270545113 $314 $347 forward 7 unknown #
vertex $-1 $256 $348 #
straight-curve $-1 16.058840632347078 -4.1062520243138181 23.528833986335215 1 0 0 I I #
edge $-1 $319 -4.9540952102197124 $253 6.6497815820315012 $252 $349 forward 7 unknown #
vertex $-1 $318 $350 #
straight-curve $-1 -52.810572119833012 -4.1062520243138181 87.847160746883674 -0.83867056331134215 0 0.54463904215088732 I I #
point $-1 46.230963945016413 -4.1062520243138181 23.528833986335215 #
point $-1 77.967467268898588 7.4976247679373955 2.9189073623565207 #
straight-curve $-1 77.967467268898588 0 23.528833986335218 0 1 0 I I #
vertex $-1 $259 $351 #
point $-1 61.237971051392329 1.6956863718117887 9.1435527305782642 #
straight-curve $-1 -77.967467268898588 50.950943933902963 0 0 0 -1 I I #
point $-1 -77.967467268898588 -50.950943933902963 -23.528833986335218 #
straight-curve $-1 -77.967467268898588 0 -23.528833986335218 0 1 0 I I #
point $-1 -77.967467268898588 50.950943933902963 -23.528833986335218 #
edge $-1 $293 -4.4714622063755627 $287 4.4714622063755627 $286 $352 forward 7 unknown #
coedge $-1 $291 $282 $281 $332 reversed $199 $-1 #
edge $-1 $295 -4.4714622063755627 $284 4.4714622063755627 $281 $353 forward 7 unknown #
straight-curve $-1 0 -68.353391439797051 -23.528833986335218 -1 0 0 I I #
point $-1 77.967467268898588 -68.353391439797051 -23.528833986335218 #
point $-1 -77.967467268898588 -68.353391439797051 -23.528833986335218 #
straight-curve $-1 0 -68.353391439797051 -14.585909573584093 1 0 0 I I #
point $-1 -77.967467268898588 -68.353391439797051 -14.585909573584093 #
point $-1 77.967467268898588 -68.353391439797051 -14.585909573584093 #
coedge $-1 $302 $301 $299 $340 forward $220 $-1 #
edge $-1 $311 -77.967467268898588 $341 77.967467268898588 $299 $354 forward 7 unknown #
vertex $-1 $340 $355 #
straight-curve $-1 -77.967467268898588 50.950943933902963 0 0 0 -1 I I #
point $-1 77.967467268898588 28.540079618578361 23.528833986335218 #
straight-curve $-1 -77.967467268898588 0 23.528833986335218 0 -1 0 I I #
straight-curve $-1 77.967467268898588 0 23.528833986335218 0 1 0 I I #
point $-1 77.967467268898588 50.950943933902963 23.528833986335218 #
straight-curve $-1 77.967467268898588 -4.1062520243138181 109.31260006780765 0 0 -1 I I #
point $-1 77.967467268898588 -4.1062520243138181 23.528833986335218 #
straight-curve $-1 77.967467268898574 0.84784318590589436 2.9189073623565207 0 1 0 I I #
point $-1 77.967467268898588 -4.1062520243138181 2.9189073623565207 #
point $-1 59.163006643198983 1.6956863718117887 8.7025054488375826 #
straight-curve $-1 -77.967467268898588 -68.353391439797051 -19.057371779959656 0 0 -1 I I #
straight-curve $-1 77.967467268898588 -68.353391439797051 -19.057371779959656 0 0 -1 I I #
straight-curve $-1 0 50.950943933902963 23.528833986335218 -1 0 0 I I #
point $-1 -77.967467268898588 50.950943933902963 23.528833986335218 #
End-of-ACIS-data 