500 0 4 0           
7 Unknown 11 ACIS 5.0 NT 24 Fri Mar 26 17:57:38 1999 
-1 9.9999999999999995e-007 1e-010 
body $-1 $4 $-1 $5 #
body $-1 $6 $-1 $7 #
body $-1 $8 $-1 $9 #
body $-1 $10 $-1 $11 #
lump $-1 $-1 $12 $0 #
transform $-1 1 0 0 0 1 0 0 0 1 42.27301858577227 17.434798052059804 8.6613705756108246 1 rotate no_reflect no_shear #
lump $-1 $-1 $13 $1 #
transform $-1 1 0 0 0 1 0 0 0 1 42.27301858577227 17.434798052059804 8.6613705756108246 1 rotate no_reflect no_shear #
lump $-1 $-1 $14 $2 #
transform $-1 1 0 0 0 1 0 0 0 1 42.27301858577227 17.434798052059804 8.6613705756108246 1 rotate no_reflect no_shear #
lump $-1 $-1 $15 $3 #
transform $-1 1 0 0 0 1 0 0 0 1 42.27301858577227 17.434798052059804 8.6613705756108246 1 rotate no_reflect no_shear #
shell $-1 $-1 $-1 $16 $-1 $4 #
shell $-1 $-1 $-1 $17 $-1 $6 #
shell $-1 $-1 $-1 $18 $-1 $8 #
shell $-1 $-1 $-1 $19 $-1 $10 #
face $-1 $20 $21 $12 $-1 $22 forward single #
face $-1 $23 $24 $13 $-1 $25 reversed single #
face $-1 $26 $27 $14 $-1 $28 reversed single #
face $-1 $29 $30 $15 $-1 $31 forward single #
face $-1 $32 $33 $12 $-1 $34 reversed single #
loop $-1 $-1 $35 $16 #
plane-surface $-1 0 0 8.6613705756108246 0 0 1 1 0 0 forward_v I I I I #
face $-1 $36 $37 $13 $-1 $38 reversed single #
loop $-1 $-1 $39 $17 #
plane-surface $-1 0 -14.093729928346157 4.6414605612740125 0 0 1 1 0 0 forward_v I I I I #
face $-1 $40 $41 $14 $-1 $42 reversed single #
loop $-1 $-1 $43 $18 #
plane-surface $-1 65.08731770338116 11.881364969248432 122.65600324785734 0 -1 0 -0.82903758062907751 0 -0.55919289150049634 forward_v I I I I #
face $-1 $44 $45 $15 $-1 $46 forward single #
loop $-1 $47 $48 $19 #
cone-surface $-1 40.720350203751927 8.6205391392545927 6.6943979163149336 -0.82903758062907751 0 -0.55919289150049634 0.27959644575024817 0 -0.41451879031453875 1 I I 0 1 0.5 forward I I I I #
face $-1 $49 $50 $12 $-1 $51 reversed single #
loop $-1 $-1 $52 $20 #
plane-surface $-1 0 0 -8.6613705756108246 0 0 1 1 0 0 forward_v I I I I #
coedge $-1 $53 $54 $55 $56 forward $21 $-1 #
face $-1 $57 $58 $13 $-1 $59 reversed single #
loop $-1 $-1 $60 $23 #
plane-surface $-1 0 -10.75266180463251 6.6514155684424185 0 -1 0 0 0 -1 forward_v I I I I #
coedge $-1 $61 $62 $63 $64 reversed $24 $-1 #
face $-1 $65 $66 $14 $-1 $67 reversed single #
loop $-1 $-1 $68 $26 #
plane-surface $-1 -5.0045244050921838 8.6205391392545891 75.378460256992895 0.82903758062907751 0 0.55919289150049634 0.55919289150049634 0 -0.82903758062907751 forward_v I I I I #
coedge $-1 $69 $70 $71 $72 reversed $27 $-1 #
face $-1 $-1 $73 $15 $-1 $74 forward single #
loop $-1 $75 $76 $29 #
cone-surface $-1 40.098572018280116 8.6205391392545927 6.2750032476895612 -0.82903758062907751 0 -0.55919289150049634 0.13979822287512408 0 -0.20725939515726938 1 I I -0.70710678118654746 0.70710678118654746 0.25 forward I I I I #
loop $-1 $-1 $77 $19 #
coedge $-1 $48 $48 $78 $79 reversed $30 $-1 #
face $-1 $80 $81 $12 $-1 $82 reversed single #
loop $-1 $-1 $83 $32 #
plane-surface $-1 0 -17.434798052059804 0 0 1 0 0 0 1 forward_v I I I I #
coedge $-1 $84 $85 $86 $87 forward $33 $-1 #
coedge $-1 $88 $35 $89 $90 forward $21 $-1 #
coedge $-1 $35 $88 $91 $92 forward $21 $-1 #
coedge $-1 $93 $94 $35 $56 reversed $95 $-1 #
edge $-1 $96 -17.434798052059804 $97 17.434798052059804 $55 $98 forward 7 unknown #
face $-1 $99 $100 $13 $-1 $101 reversed single #
loop $-1 $-1 $102 $36 #
plane-surface $-1 -42.27301858577227 0 0 1 0 0 0 0 -1 forward_v I I I I #
coedge $-1 $103 $104 $105 $106 reversed $37 $-1 #
coedge $-1 $107 $39 $108 $109 reversed $24 $-1 #
coedge $-1 $39 $107 $103 $110 forward $24 $-1 #
coedge $-1 $105 $111 $39 $64 forward $112 $-1 #
edge $-1 $113 -10.387933087886726 $114 -3.7057968404594313 $63 $115 forward 7 unknown #
face $-1 $116 $117 $14 $-1 $118 reversed single #
loop $-1 $-1 $119 $40 #
plane-surface $-1 65.08731770338116 5.3597133092607461 122.65600324785734 0 1 0 0.82903758062907751 0 0.55919289150049634 forward_v I I I I #
coedge $-1 $120 $121 $122 $123 reversed $41 $-1 #
coedge $-1 $70 $43 $124 $125 reversed $27 $-1 #
coedge $-1 $43 $69 $120 $126 reversed $27 $-1 #
coedge $-1 $122 $127 $43 $72 forward $128 $-1 #
edge $-1 $129 -9.7293597340816902 $130 -7.4530605506700951 $71 $131 forward 7 unknown #
loop $-1 $-1 $78 $44 #
plane-surface $-1 -5.0045244050921838 8.6205391392545891 75.378460256992895 0.82903758062907751 0 0.55919289150049634 0.55919289150049634 0 -0.82903758062907751 forward_v I I I I #
loop $-1 $-1 $132 $29 #
coedge $-1 $76 $76 $77 $133 reversed $45 $-1 #
coedge $-1 $77 $77 $76 $133 forward $47 $-1 #
coedge $-1 $78 $78 $48 $79 forward $73 $-1 #
edge $-1 $134 0 $134 6.2831853071796004 $78 $135 forward 7 unknown #
face $-1 $136 $137 $12 $-1 $138 reversed single #
loop $-1 $-1 $139 $49 #
plane-surface $-1 -42.27301858577227 0 0 1 0 0 0 0 -1 forward_v I I I I #
coedge $-1 $140 $91 $141 $142 forward $50 $-1 #
coedge $-1 $143 $52 $140 $144 forward $33 $-1 #
coedge $-1 $52 $143 $145 $146 forward $33 $-1 #
coedge $-1 $94 $93 $52 $87 reversed $95 $-1 #
edge $-1 $147 -17.434798052059804 $148 17.434798052059804 $86 $149 forward 7 unknown #
coedge $-1 $54 $53 $150 $151 forward $21 $-1 #
coedge $-1 $152 $153 $53 $90 reversed $137 $-1 #
edge $-1 $97 -42.27301858577227 $154 42.27301858577227 $89 $155 forward 7 unknown #
coedge $-1 $83 $156 $54 $92 reversed $50 $-1 #
edge $-1 $157 -42.27301858577227 $96 42.27301858577227 $91 $158 forward 7 unknown #
coedge $-1 $86 $55 $156 $159 forward $95 $-1 #
coedge $-1 $55 $86 $152 $160 reversed $95 $-1 #
loop $-1 $-1 $93 $136 #
vertex $-1 $56 $161 #
vertex $-1 $56 $162 #
straight-curve $-1 42.27301858577227 0 8.6613705756108246 0 1 0 I I #
face $-1 $163 $164 $13 $-1 $165 forward single #
loop $-1 $-1 $108 $57 #
plane-surface $-1 0 -17.434798052059804 0 0 1 0 0 0 1 forward_v I I I I #
coedge $-1 $166 $167 $168 $169 forward $58 $-1 #
coedge $-1 $168 $60 $62 $110 reversed $37 $-1 #
coedge $-1 $60 $168 $170 $171 reversed $37 $-1 #
coedge $-1 $172 $63 $60 $106 forward $112 $-1 #
edge $-1 $114 1.3157527770528032 $173 5.3356627913896153 $105 $174 forward 7 unknown #
coedge $-1 $62 $61 $166 $175 reversed $24 $-1 #
coedge $-1 $176 $177 $61 $109 forward $100 $-1 #
edge $-1 $178 -42.27301858577227 $113 42.27301858577227 $108 $179 forward 7 unknown #
edge $-1 $180 -42.27301858577227 $114 42.27301858577227 $103 $181 forward 7 unknown #
coedge $-1 $63 $172 $176 $182 forward $112 $-1 #
loop $-1 $-1 $105 $163 #
vertex $-1 $109 $183 #
vertex $-1 $64 $184 #
straight-curve $-1 42.27301858577227 -7.0468649641730785 4.6414605612740125 0 1 0 I I #
face $-1 $-1 $128 $14 $-1 $185 forward single #
loop $-1 $-1 $186 $65 #
plane-surface $-1 42.27301858577227 0 0 -1 0 0 0 0 1 forward_v I I I I #
coedge $-1 $187 $188 $189 $190 reversed $66 $-1 #
coedge $-1 $191 $68 $70 $126 forward $41 $-1 #
coedge $-1 $68 $191 $187 $192 forward $41 $-1 #
coedge $-1 $189 $71 $68 $123 forward $128 $-1 #
edge $-1 $130 -7.5710953996211376 $193 -1.0494437396334515 $122 $194 forward 7 unknown #
coedge $-1 $195 $196 $69 $125 forward $117 $-1 #
edge $-1 $197 -56.041383475409134 $129 -52.666631048317846 $124 $198 forward 7 unknown #
edge $-1 $130 80.475350261874553 $197 84.546037171544569 $70 $199 forward 7 unknown #
coedge $-1 $71 $189 $195 $200 forward $128 $-1 #
loop $-1 $-1 $189 $116 #
vertex $-1 $125 $201 #
vertex $-1 $72 $202 #
straight-curve $-1 32.54365885169058 11.881364969248432 8.6613705756108246 -1 0 0 I I #
coedge $-1 $132 $132 $-1 $203 reversed $75 $-1 #
edge $-1 $204 0 $204 6.2831853071796004 $76 $205 forward 7 unknown #
vertex $-1 $79 $206 #
ellipse-curve $-1 41.134868994066473 8.6205391392545927 6.9739943620651861 0.82903758062907751 0 0.55919289150049634 0.27959644575024817 0 -0.41451879031453875 1 I I #
face $-1 $-1 $95 $12 $-1 $207 reversed single #
loop $-1 $-1 $152 $80 #
plane-surface $-1 0 17.434798052059804 0 0 -1 0 0 0 -1 forward_v I I I I #
coedge $-1 $208 $150 $153 $209 forward $81 $-1 #
coedge $-1 $156 $83 $84 $144 reversed $50 $-1 #
coedge $-1 $150 $208 $83 $142 reversed $81 $-1 #
edge $-1 $157 -8.6613705756108246 $210 8.6613705756108246 $141 $211 forward 7 unknown #
coedge $-1 $85 $84 $208 $212 forward $33 $-1 #
edge $-1 $148 -42.27301858577227 $210 42.27301858577227 $140 $213 forward 7 unknown #
coedge $-1 $153 $152 $85 $146 reversed $137 $-1 #
edge $-1 $214 -42.27301858577227 $147 42.27301858577227 $145 $215 forward 7 unknown #
vertex $-1 $87 $216 #
vertex $-1 $159 $217 #
straight-curve $-1 42.27301858577227 0 -8.6613705756108246 0 -1 0 I I #
coedge $-1 $139 $141 $88 $151 reversed $81 $-1 #
edge $-1 $154 -17.434798052059804 $157 17.434798052059804 $150 $218 forward 7 unknown #
coedge $-1 $145 $89 $94 $160 forward $137 $-1 #
coedge $-1 $89 $145 $139 $209 reversed $137 $-1 #
vertex $-1 $90 $219 #
straight-curve $-1 0 17.434798052059804 8.6613705756108246 -1 0 0 I I #
coedge $-1 $91 $140 $93 $159 reversed $50 $-1 #
vertex $-1 $151 $220 #
straight-curve $-1 0 -17.434798052059804 8.6613705756108246 1 0 0 I I #
edge $-1 $96 -8.6613705756108246 $148 8.6613705756108246 $93 $221 forward 7 unknown #
edge $-1 $97 -8.6613705756108246 $147 8.6613705756108246 $94 $222 forward 7 unknown #
point $-1 42.27301858577227 -17.434798052059804 8.6613705756108246 #
point $-1 42.27301858577227 17.434798052059804 8.6613705756108246 #
face $-1 $-1 $112 $13 $-1 $223 reversed single #
loop $-1 $-1 $170 $99 #
plane-surface $-1 0 0 8.6613705756108246 0 0 1 1 0 0 forward_v I I I I #
coedge $-1 $224 $102 $107 $175 forward $58 $-1 #
coedge $-1 $102 $224 $225 $226 reversed $58 $-1 #
coedge $-1 $104 $103 $102 $169 reversed $37 $-1 #
edge $-1 $227 -5.3356627913896153 $180 -1.3157527770528032 $102 $228 forward 7 unknown #
coedge $-1 $225 $229 $104 $171 forward $164 $-1 #
edge $-1 $173 -42.27301858577227 $227 42.27301858577227 $170 $230 forward 7 unknown #
coedge $-1 $111 $105 $229 $231 reversed $112 $-1 #
vertex $-1 $106 $232 #
straight-curve $-1 42.27301858577227 -10.75266180463251 3.3257077842212093 0 0 1 I I #
edge $-1 $180 3.7057968404594313 $178 10.387933087886726 $166 $233 forward 7 unknown #
coedge $-1 $234 $108 $111 $182 reversed $100 $-1 #
coedge $-1 $108 $234 $224 $235 forward $100 $-1 #
vertex $-1 $109 $236 #
straight-curve $-1 0 -17.434798052059804 4.6414605612740125 1 0 0 I I #
vertex $-1 $175 $237 #
straight-curve $-1 0 -10.75266180463251 4.6414605612740125 1 0 0 I I #
edge $-1 $238 -8.6613705756108246 $113 -4.6414605612740125 $111 $239 forward 7 unknown #
point $-1 42.27301858577227 -17.434798052059804 4.6414605612740125 #
point $-1 42.27301858577227 -10.75266180463251 4.6414605612740125 #
plane-surface $-1 0 0 8.6613705756108246 0 0 1 1 0 0 forward_v I I I I #
coedge $-1 $196 $195 $188 $240 forward $117 $-1 #
coedge $-1 $188 $119 $121 $192 reversed $66 $-1 #
coedge $-1 $119 $187 $186 $240 reversed $66 $-1 #
coedge $-1 $127 $122 $119 $190 forward $128 $-1 #
edge $-1 $193 7.4530605506700951 $241 9.7293597340816902 $189 $242 forward 7 unknown #
coedge $-1 $121 $120 $196 $243 reversed $41 $-1 #
edge $-1 $244 -84.546037171544569 $193 -80.475350261874553 $187 $245 forward 7 unknown #
vertex $-1 $123 $246 #
straight-curve $-1 39.996719402360668 4.3102695696272946 8.6613705756108317 0 -1 0 I I #
coedge $-1 $186 $124 $127 $200 reversed $117 $-1 #
coedge $-1 $124 $186 $191 $243 forward $117 $-1 #
vertex $-1 $125 $247 #
straight-curve $-1 42.27301858577227 11.881364969248432 61.328001623928671 0 0 1 I I #
straight-curve $-1 -5.0045244050921838 11.881364969248432 75.378460256992895 0.55919289150049634 0 -0.82903758062907751 I I #
edge $-1 $241 5.3597133092607461 $129 11.881364969248432 $195 $248 forward 7 unknown #
point $-1 42.27301858577227 11.881364969248432 8.6613705756108246 #
point $-1 39.996719402360675 11.881364969248432 8.6613705756108175 #
edge $-1 $249 1 $249 0 $132 $-1 forward 7 unknown #
vertex $-1 $133 $250 #
ellipse-curve $-1 40.305831413437389 8.6205391392545927 6.4148014705646856 0.82903758062907751 0 0.55919289150049634 0.27959644575024817 0 -0.41451879031453875 1 I I #
point $-1 41.414465439816709 8.6205391392545927 6.5594755717506432 #
plane-surface $-1 42.27301858577227 0 0 -1 0 0 0 0 1 forward_v I I I I #
coedge $-1 $141 $139 $143 $212 reversed $81 $-1 #
edge $-1 $154 -8.6613705756108246 $214 8.6613705756108246 $153 $251 forward 7 unknown #
vertex $-1 $212 $252 #
straight-curve $-1 -42.27301858577227 -17.434798052059804 0 0 0 -1 I I #
edge $-1 $210 -17.434798052059804 $214 17.434798052059804 $208 $253 forward 7 unknown #
straight-curve $-1 0 -17.434798052059804 -8.6613705756108246 -1 0 0 I I #
vertex $-1 $146 $254 #
straight-curve $-1 0 17.434798052059804 -8.6613705756108246 1 0 0 I I #
point $-1 42.27301858577227 17.434798052059804 -8.6613705756108246 #
point $-1 42.27301858577227 -17.434798052059804 -8.6613705756108246 #
straight-curve $-1 -42.27301858577227 0 8.6613705756108246 0 -1 0 I I #
point $-1 -42.27301858577227 17.434798052059804 8.6613705756108246 #
point $-1 -42.27301858577227 -17.434798052059804 8.6613705756108246 #
straight-curve $-1 42.27301858577227 -17.434798052059804 0 0 0 -1 I I #
straight-curve $-1 42.27301858577227 17.434798052059804 0 0 0 -1 I I #
plane-surface $-1 42.27301858577227 0 0 -1 0 0 0 0 1 forward_v I I I I #
coedge $-1 $167 $166 $177 $235 reversed $58 $-1 #
coedge $-1 $255 $170 $167 $226 forward $164 $-1 #
edge $-1 $227 10.75266180463251 $256 17.434798052059804 $167 $257 forward 7 unknown #
vertex $-1 $226 $258 #
straight-curve $-1 -42.27301858577227 -10.75266180463251 3.3257077842212093 0 0 -1 I I #
coedge $-1 $170 $255 $172 $231 forward $164 $-1 #
straight-curve $-1 0 -10.75266180463251 8.6613705756108246 -1 0 0 I I #
edge $-1 $238 -17.434798052059804 $173 -10.75266180463251 $172 $259 forward 7 unknown #
point $-1 42.27301858577227 -10.75266180463251 8.6613705756108246 #
straight-curve $-1 -42.27301858577227 -7.0468649641730785 4.6414605612740125 0 -1 0 I I #
coedge $-1 $177 $176 $255 $260 reversed $100 $-1 #
edge $-1 $256 -8.6613705756108246 $178 -4.6414605612740125 $224 $261 forward 7 unknown #
point $-1 -42.27301858577227 -17.434798052059804 4.6414605612740125 #
point $-1 -42.27301858577227 -10.75266180463251 4.6414605612740125 #
vertex $-1 $231 $262 #
straight-curve $-1 42.27301858577227 -17.434798052059804 0 0 0 -1 I I #
edge $-1 $241 52.666631048317846 $244 56.041383475409134 $186 $263 forward 7 unknown #
vertex $-1 $200 $264 #
straight-curve $-1 32.54365885169058 5.3597133092607461 8.6613705756108246 1 0 0 I I #
edge $-1 $244 1.0494437396334515 $197 7.5710953996211376 $196 $265 forward 7 unknown #
vertex $-1 $243 $266 #
straight-curve $-1 -5.0045244050921838 5.3597133092607461 75.378460256992895 -0.55919289150049634 0 0.82903758062907751 I I #
point $-1 39.996719402360675 5.3597133092607461 8.6613705756108175 #
point $-1 42.27301858577227 11.881364969248432 5.2866181485195369 #
straight-curve $-1 42.27301858577227 0 8.6613705756108246 0 1 0 I I #
vertex $-1 $203 $267 #
point $-1 40.585427859187632 8.6205391392545927 6.0002826802501463 #
straight-curve $-1 -42.27301858577227 17.434798052059804 0 0 0 -1 I I #
point $-1 -42.27301858577227 -17.434798052059804 -8.6613705756108246 #
straight-curve $-1 -42.27301858577227 0 -8.6613705756108246 0 1 0 I I #
point $-1 -42.27301858577227 17.434798052059804 -8.6613705756108246 #
coedge $-1 $229 $225 $234 $260 forward $164 $-1 #
vertex $-1 $226 $268 #
straight-curve $-1 -42.27301858577227 0 8.6613705756108246 0 -1 0 I I #
point $-1 -42.27301858577227 -10.75266180463251 8.6613705756108246 #
straight-curve $-1 42.27301858577227 0 8.6613705756108246 0 1 0 I I #
edge $-1 $256 -42.27301858577227 $238 42.27301858577227 $234 $269 forward 7 unknown #
straight-curve $-1 -42.27301858577227 -17.434798052059804 0 0 0 -1 I I #
point $-1 42.27301858577227 -17.434798052059804 8.6613705756108246 #
straight-curve $-1 42.27301858577227 5.3597133092607461 61.328001623928671 0 0 -1 I I #
point $-1 42.27301858577227 5.3597133092607461 8.6613705756108246 #
straight-curve $-1 42.27301858577227 4.3102695696272946 5.2866181485195298 0 1 0 I I #
point $-1 42.27301858577227 5.3597133092607461 5.2866181485195369 #
point $-1 39.891312623122843 8.6205391392545927 6.1352050248144367 #
point $-1 -42.27301858577227 -17.434798052059804 8.6613705756108246 #
straight-curve $-1 0 -17.434798052059804 8.6613705756108246 1 0 0 I I #
End-of-ACIS-data 