500 0 4 0           
7 Unknown 11 ACIS 5.0 NT 24 Thu Mar 25 21:19:30 1999 
-1 9.9999999999999995e-007 1e-010 
body $-1 $4 $-1 $5 #
body $-1 $6 $-1 $7 #
body $-1 $8 $-1 $9 #
body $-1 $10 $-1 $11 #
lump $-1 $-1 $12 $0 #
transform $-1 1 0 0 0 1 0 0 0 1 65.211951048310794 32.493530831805487 13.297982699100571 1 rotate no_reflect no_shear #
lump $-1 $-1 $13 $1 #
transform $-1 1 0 0 0 1 0 0 0 1 65.211951048310794 32.493530831805487 13.297982699100571 1 rotate no_reflect no_shear #
lump $-1 $-1 $14 $2 #
transform $-1 1 0 0 0 1 0 0 0 1 65.211951048310794 32.493530831805487 13.297982699100571 1 rotate no_reflect no_shear #
lump $-1 $-1 $15 $3 #
transform $-1 1 0 0 0 1 0 0 0 1 65.211951048310794 32.493530831805487 13.297982699100571 1 rotate no_reflect no_shear #
shell $-1 $-1 $-1 $16 $-1 $4 #
shell $-1 $-1 $-1 $17 $-1 $6 #
shell $-1 $-1 $-1 $18 $-1 $8 #
shell $-1 $-1 $-1 $19 $-1 $10 #
face $-1 $20 $21 $12 $-1 $22 forward single #
face $-1 $23 $24 $13 $-1 $25 forward single #
face $-1 $26 $27 $14 $-1 $28 reversed single #
face $-1 $29 $30 $15 $-1 $31 forward single #
face $-1 $32 $33 $12 $-1 $34 reversed single #
loop $-1 $-1 $35 $16 #
plane-surface $-1 0 0 13.297982699100571 0 0 1 1 0 0 forward_v I I I I #
face $-1 $36 $37 $13 $-1 $38 reversed single #
loop $-1 $-1 $39 $17 #
plane-surface $-1 -58.589874650162969 0 0.96334143313874954 0 0 1 1 0 0 forward_v I I I I #
face $-1 $40 $41 $14 $-1 $42 reversed single #
loop $-1 $-1 $43 $18 #
plane-surface $-1 48.959416283297486 59.083620720262331 144.26792831017772 1 0 0 0 -0.6018150307709319 -0.79863550430605224 forward_v I I I I #
face $-1 $44 $45 $15 $-1 $46 forward single #
loop $-1 $47 $48 $19 #
cone-surface $-1 57.08568366580414 21.966991417296832 4.0097720243485391 0 -0.6018150307709319 -0.79863550430605224 2 0 0 1 I I 0 1 2 forward I I I I #
face $-1 $49 $50 $12 $-1 $51 reversed single #
loop $-1 $-1 $52 $20 #
plane-surface $-1 0 0 -13.297982699100571 0 0 1 1 0 0 forward_v I I I I #
coedge $-1 $53 $54 $55 $56 forward $21 $-1 #
face $-1 $57 $58 $13 $-1 $59 reversed single #
loop $-1 $-1 $60 $23 #
plane-surface $-1 -58.589874650162969 0 -3.2223555779389645 0 0 1 1 0 0 forward_v I I I I #
coedge $-1 $61 $62 $63 $64 forward $24 $-1 #
face $-1 $65 $66 $14 $-1 $67 forward single #
loop $-1 $-1 $68 $26 #
plane-surface $-1 57.08568366580414 -19.407443933281002 40.106769485679152 0 0.6018150307709319 0.79863550430605224 1 0 0 forward_v I I I I #
coedge $-1 $69 $70 $71 $72 reversed $27 $-1 #
face $-1 $-1 $73 $15 $-1 $74 forward single #
loop $-1 $75 $76 $29 #
cone-surface $-1 57.08568366580414 19.000893868105521 0.07362770940039276 0 -0.6018150307709319 -0.79863550430605224 1 0 0 1 I I -0.70710678118654746 0.70710678118654746 1 forward I I I I #
loop $-1 $-1 $77 $19 #
coedge $-1 $48 $48 $78 $79 reversed $30 $-1 #
face $-1 $80 $81 $12 $-1 $82 reversed single #
loop $-1 $-1 $83 $32 #
plane-surface $-1 0 -32.493530831805487 0 0 1 0 0 0 1 forward_v I I I I #
coedge $-1 $84 $85 $86 $87 forward $33 $-1 #
coedge $-1 $88 $35 $89 $90 forward $21 $-1 #
coedge $-1 $35 $88 $91 $92 forward $21 $-1 #
coedge $-1 $93 $94 $35 $56 reversed $95 $-1 #
edge $-1 $96 -32.493530831805487 $97 32.493530831805487 $55 $98 forward 7 unknown #
face $-1 $99 $100 $13 $-1 $101 reversed single #
loop $-1 $-1 $102 $36 #
plane-surface $-1 -51.967798252015143 0 -1.1295070724001075 -1 0 0 0 0 1 forward_v I I I I #
coedge $-1 $103 $104 $105 $106 forward $37 $-1 #
coedge $-1 $107 $39 $108 $109 reversed $24 $-1 #
coedge $-1 $39 $107 $110 $111 reversed $24 $-1 #
coedge $-1 $102 $112 $39 $64 reversed $58 $-1 #
edge $-1 $113 -32.493530831805487 $114 32.493530831805487 $63 $115 forward 7 unknown #
face $-1 $116 $117 $14 $-1 $118 reversed single #
loop $-1 $-1 $71 $40 #
plane-surface $-1 0 0 13.297982699100571 0 0 1 1 0 0 forward_v I I I I #
coedge $-1 $119 $120 $121 $122 reversed $41 $-1 #
coedge $-1 $70 $43 $123 $124 reversed $27 $-1 #
coedge $-1 $43 $69 $119 $125 reversed $27 $-1 #
coedge $-1 $121 $126 $43 $72 forward $66 $-1 #
edge $-1 $127 -2.9517204716743208 $128 13.372793320502289 $71 $129 forward 7 unknown #
loop $-1 $-1 $78 $44 #
plane-surface $-1 57.08568366580414 -19.407443933281002 40.106769485679152 0 0.6018150307709319 0.79863550430605224 1 0 0 forward_v I I I I #
loop $-1 $-1 $130 $29 #
coedge $-1 $76 $76 $77 $131 reversed $45 $-1 #
coedge $-1 $77 $77 $76 $131 forward $47 $-1 #
coedge $-1 $78 $78 $48 $79 forward $73 $-1 #
edge $-1 $132 -5.74855249120901e-016 $132 6.2831853071795996 $78 $133 forward 7 unknown #
face $-1 $134 $135 $12 $-1 $136 reversed single #
loop $-1 $-1 $137 $49 #
plane-surface $-1 -65.211951048310794 0 0 1 0 0 0 0 -1 forward_v I I I I #
coedge $-1 $138 $91 $139 $140 forward $50 $-1 #
coedge $-1 $141 $52 $138 $142 forward $33 $-1 #
coedge $-1 $52 $141 $143 $144 forward $33 $-1 #
coedge $-1 $94 $93 $52 $87 reversed $95 $-1 #
edge $-1 $145 -32.493530831805487 $146 32.493530831805487 $86 $147 forward 7 unknown #
coedge $-1 $54 $53 $148 $149 forward $21 $-1 #
coedge $-1 $150 $151 $53 $90 reversed $135 $-1 #
edge $-1 $97 -65.211951048310794 $152 65.211951048310794 $89 $153 forward 7 unknown #
coedge $-1 $83 $154 $54 $92 reversed $50 $-1 #
edge $-1 $155 -65.211951048310794 $96 65.211951048310794 $91 $156 forward 7 unknown #
coedge $-1 $86 $55 $154 $157 forward $95 $-1 #
coedge $-1 $55 $86 $150 $158 reversed $95 $-1 #
loop $-1 $-1 $93 $134 #
vertex $-1 $56 $159 #
vertex $-1 $56 $160 #
straight-curve $-1 65.211951048310794 0 13.297982699100571 0 1 0 I I #
face $-1 $161 $162 $13 $-1 $163 reversed single #
loop $-1 $-1 $164 $57 #
plane-surface $-1 0 -32.493530831805487 0 0 1 0 0 0 1 forward_v I I I I #
coedge $-1 $105 $63 $165 $166 reversed $58 $-1 #
coedge $-1 $167 $60 $164 $168 reversed $37 $-1 #
coedge $-1 $60 $167 $169 $170 reversed $37 $-1 #
coedge $-1 $112 $102 $60 $106 reversed $58 $-1 #
edge $-1 $171 -32.493530831805487 $172 32.493530831805487 $105 $173 forward 7 unknown #
coedge $-1 $62 $61 $174 $175 reversed $24 $-1 #
coedge $-1 $176 $177 $61 $109 forward $178 $-1 #
edge $-1 $179 -35.91701372322931 $114 -22.672860926933659 $108 $180 forward 7 unknown #
coedge $-1 $181 $165 $62 $111 forward $100 $-1 #
edge $-1 $113 22.672860926933659 $182 35.91701372322931 $110 $183 forward 7 unknown #
coedge $-1 $63 $105 $176 $184 reversed $58 $-1 #
vertex $-1 $111 $185 #
vertex $-1 $109 $186 #
straight-curve $-1 -51.967798252015143 0 0.96334143313874954 0 1 0 I I #
face $-1 $-1 $187 $14 $-1 $188 reversed single #
loop $-1 $-1 $189 $65 #
plane-surface $-1 65.211951048310794 0 0 -1 0 0 0 0 1 forward_v I I I I #
coedge $-1 $190 $68 $70 $125 forward $41 $-1 #
coedge $-1 $68 $190 $189 $191 reversed $41 $-1 #
coedge $-1 $192 $71 $68 $122 forward $66 $-1 #
edge $-1 $128 20.416574450395416 $193 36.669109215408724 $121 $194 forward 7 unknown #
coedge $-1 $195 $196 $69 $124 forward $187 $-1 #
edge $-1 $197 -71.137385184208213 $127 -58.835981455988289 $123 $198 forward 7 unknown #
edge $-1 $128 44.546555695420608 $197 64.987061663611016 $70 $199 forward 7 unknown #
coedge $-1 $71 $192 $195 $200 forward $66 $-1 #
vertex $-1 $124 $201 #
vertex $-1 $72 $202 #
straight-curve $-1 48.959416283297486 29.541810360131166 13.297982699100572 0 -1 0 I I #
coedge $-1 $130 $130 $-1 $203 reversed $75 $-1 #
edge $-1 $204 0 $204 6.2831853071796004 $76 $205 forward 7 unknown #
vertex $-1 $79 $206 #
ellipse-curve $-1 57.08568366580414 24.331273935717189 7.1472808349906032 0 0.6018150307709319 0.79863550430605224 2 0 0 1 I I #
face $-1 $-1 $95 $12 $-1 $207 reversed single #
loop $-1 $-1 $150 $80 #
plane-surface $-1 0 32.493530831805487 0 0 -1 0 0 0 -1 forward_v I I I I #
coedge $-1 $208 $148 $151 $209 forward $81 $-1 #
coedge $-1 $154 $83 $84 $142 reversed $50 $-1 #
coedge $-1 $148 $208 $83 $140 reversed $81 $-1 #
edge $-1 $155 -13.297982699100571 $210 13.297982699100571 $139 $211 forward 7 unknown #
coedge $-1 $85 $84 $208 $212 forward $33 $-1 #
edge $-1 $146 -65.211951048310794 $210 65.211951048310794 $138 $213 forward 7 unknown #
coedge $-1 $151 $150 $85 $144 reversed $135 $-1 #
edge $-1 $214 -65.211951048310794 $145 65.211951048310794 $143 $215 forward 7 unknown #
vertex $-1 $87 $216 #
vertex $-1 $157 $217 #
straight-curve $-1 65.211951048310794 0 -13.297982699100571 0 -1 0 I I #
coedge $-1 $137 $139 $88 $149 reversed $81 $-1 #
edge $-1 $152 -32.493530831805487 $155 32.493530831805487 $148 $218 forward 7 unknown #
coedge $-1 $143 $89 $94 $158 forward $135 $-1 #
coedge $-1 $89 $143 $137 $209 reversed $135 $-1 #
vertex $-1 $90 $219 #
straight-curve $-1 0 32.493530831805487 13.297982699100571 -1 0 0 I I #
coedge $-1 $91 $138 $93 $157 reversed $50 $-1 #
vertex $-1 $149 $220 #
straight-curve $-1 0 -32.493530831805487 13.297982699100571 1 0 0 I I #
edge $-1 $96 -13.297982699100571 $146 13.297982699100571 $93 $221 forward 7 unknown #
edge $-1 $97 -13.297982699100571 $145 13.297982699100571 $94 $222 forward 7 unknown #
point $-1 65.211951048310794 -32.493530831805487 13.297982699100571 #
point $-1 65.211951048310794 32.493530831805487 13.297982699100571 #
face $-1 $-1 $178 $13 $-1 $223 reversed single #
loop $-1 $-1 $224 $99 #
plane-surface $-1 -65.211951048310794 0 0 1 0 0 0 0 -1 forward_v I I I I #
coedge $-1 $165 $181 $103 $168 forward $100 $-1 #
coedge $-1 $110 $164 $102 $166 forward $100 $-1 #
edge $-1 $172 -2.6576020417389108 $113 1.5280949693388033 $165 $225 forward 7 unknown #
coedge $-1 $104 $103 $224 $226 reversed $37 $-1 #
edge $-1 $227 -35.91701372322931 $172 -22.672860926933659 $164 $228 forward 7 unknown #
coedge $-1 $177 $176 $104 $170 forward $178 $-1 #
edge $-1 $171 22.672860926933659 $229 35.91701372322931 $169 $230 forward 7 unknown #
vertex $-1 $170 $231 #
vertex $-1 $168 $232 #
straight-curve $-1 -51.967798252015143 0 -3.2223555779389645 0 -1 0 I I #
coedge $-1 $233 $234 $107 $175 forward $162 $-1 #
edge $-1 $182 -32.493530831805487 $179 32.493530831805487 $174 $235 forward 7 unknown #
coedge $-1 $169 $108 $112 $184 forward $178 $-1 #
coedge $-1 $108 $169 $233 $236 reversed $178 $-1 #
loop $-1 $-1 $169 $161 #
vertex $-1 $236 $237 #
straight-curve $-1 -29.294937325081484 32.493530831805487 0.96334143313874954 1 0 0 I I #
coedge $-1 $164 $110 $234 $238 forward $100 $-1 #
vertex $-1 $238 $239 #
straight-curve $-1 -29.294937325081484 -32.493530831805487 0.96334143313874954 -1 0 0 I I #
edge $-1 $114 -1.5280949693388033 $171 2.6576020417389108 $176 $240 forward 7 unknown #
point $-1 -51.967798252015143 -32.493530831805487 0.96334143313874954 #
point $-1 -51.967798252015143 32.493530831805487 0.96334143313874954 #
loop $-1 $-1 $123 $116 #
plane-surface $-1 0 32.493530831805487 0 0 -1 0 0 0 -1 forward_v I I I I #
coedge $-1 $241 $242 $120 $191 forward $117 $-1 #
coedge $-1 $120 $119 $196 $243 reversed $41 $-1 #
edge $-1 $193 24.728390452873619 $244 45.168896421064019 $189 $245 forward 7 unknown #
coedge $-1 $126 $121 $242 $246 forward $66 $-1 #
vertex $-1 $246 $247 #
straight-curve $-1 28.54284183290207 16.169017039628869 13.297982699100569 1 0 0 I I #
coedge $-1 $248 $123 $126 $200 reversed $187 $-1 #
coedge $-1 $123 $248 $190 $243 forward $187 $-1 #
vertex $-1 $124 $249 #
straight-curve $-1 48.959416283297486 32.493530831805487 72.133964155088862 0 0 1 I I #
straight-curve $-1 48.959416283297486 -19.407443933281002 40.106769485679152 0 0.79863550430605224 -0.6018150307709319 I I #
edge $-1 $250 -65.211951048310794 $127 -48.959416283297486 $195 $251 forward 7 unknown #
point $-1 48.959416283297486 32.493530831805487 13.297982699100571 #
point $-1 48.959416283297486 16.169017039628876 13.297982699100572 #
edge $-1 $252 1 $252 0 $130 $-1 forward 7 unknown #
vertex $-1 $131 $253 #
ellipse-curve $-1 57.08568366580414 19.602708898876454 0.872263213706445 0 0.6018150307709319 0.79863550430605224 2 0 0 1 I I #
point $-1 59.08568366580414 24.33127393571721 7.1472808349906334 #
plane-surface $-1 65.211951048310794 0 0 -1 0 0 0 0 1 forward_v I I I I #
coedge $-1 $139 $137 $141 $212 reversed $81 $-1 #
edge $-1 $152 -13.297982699100571 $214 13.297982699100571 $151 $254 forward 7 unknown #
vertex $-1 $212 $255 #
straight-curve $-1 -65.211951048310794 -32.493530831805487 0 0 0 -1 I I #
edge $-1 $210 -32.493530831805487 $214 32.493530831805487 $208 $256 forward 7 unknown #
straight-curve $-1 0 -32.493530831805487 -13.297982699100571 -1 0 0 I I #
vertex $-1 $144 $257 #
straight-curve $-1 0 32.493530831805487 -13.297982699100571 1 0 0 I I #
point $-1 65.211951048310794 32.493530831805487 -13.297982699100571 #
point $-1 65.211951048310794 -32.493530831805487 -13.297982699100571 #
straight-curve $-1 -65.211951048310794 0 13.297982699100571 0 -1 0 I I #
point $-1 -65.211951048310794 32.493530831805487 13.297982699100571 #
point $-1 -65.211951048310794 -32.493530831805487 13.297982699100571 #
straight-curve $-1 65.211951048310794 -32.493530831805487 0 0 0 -1 I I #
straight-curve $-1 65.211951048310794 32.493530831805487 0 0 0 -1 I I #
plane-surface $-1 0 32.493530831805487 0 0 -1 0 0 0 -1 forward_v I I I I #
coedge $-1 $234 $233 $167 $226 forward $162 $-1 #
straight-curve $-1 -51.967798252015143 -32.493530831805487 -0.56475353620005375 0 0 1 I I #
edge $-1 $229 -32.493530831805487 $227 32.493530831805487 $224 $258 forward 7 unknown #
vertex $-1 $168 $259 #
straight-curve $-1 -29.294937325081484 -32.493530831805487 -3.2223555779389645 1 0 0 I I #
vertex $-1 $170 $260 #
straight-curve $-1 -29.294937325081484 32.493530831805487 -3.2223555779389645 -1 0 0 I I #
point $-1 -51.967798252015143 32.493530831805487 -3.2223555779389645 #
point $-1 -51.967798252015143 -32.493530831805487 -3.2223555779389645 #
coedge $-1 $224 $174 $177 $236 forward $162 $-1 #
coedge $-1 $174 $224 $181 $238 reversed $162 $-1 #
straight-curve $-1 -65.211951048310794 0 0.96334143313874954 0 1 0 I I #
edge $-1 $179 -0.96334143313874954 $229 3.2223555779389645 $177 $261 forward 7 unknown #
point $-1 -65.211951048310794 32.493530831805487 0.96334143313874954 #
edge $-1 $182 -0.96334143313874954 $227 3.2223555779389645 $234 $262 forward 7 unknown #
point $-1 -65.211951048310794 -32.493530831805487 0.96334143313874954 #
straight-curve $-1 -51.967798252015143 32.493530831805487 -0.56475353620005375 0 0 -1 I I #
coedge $-1 $242 $189 $248 $263 reversed $117 $-1 #
coedge $-1 $189 $241 $192 $246 reversed $117 $-1 #
edge $-1 $244 -36.669109215408724 $197 -20.416574450395416 $196 $264 forward 7 unknown #
vertex $-1 $191 $265 #
straight-curve $-1 65.211951048310794 -3.5799535403788116 28.179899760412326 0 0.79863550430605224 -0.6018150307709319 I I #
edge $-1 $193 16.169017039628876 $250 32.493530831805487 $242 $266 forward 7 unknown #
point $-1 65.211951048310794 16.169017039628876 13.297982699100572 #
coedge $-1 $196 $195 $241 $263 forward $187 $-1 #
point $-1 48.959416283297486 32.493530831805487 0.99657897088064828 #
vertex $-1 $246 $267 #
straight-curve $-1 0 32.493530831805487 13.297982699100571 -1 0 0 I I #
vertex $-1 $203 $268 #
point $-1 59.08568366580414 19.602708898876454 0.872263213706445 #
straight-curve $-1 -65.211951048310794 32.493530831805487 0 0 0 -1 I I #
point $-1 -65.211951048310794 -32.493530831805487 -13.297982699100571 #
straight-curve $-1 -65.211951048310794 0 -13.297982699100571 0 1 0 I I #
point $-1 -65.211951048310794 32.493530831805487 -13.297982699100571 #
straight-curve $-1 -65.211951048310794 0 -3.2223555779389645 0 -1 0 I I #
point $-1 -65.211951048310794 -32.493530831805487 -3.2223555779389645 #
point $-1 -65.211951048310794 32.493530831805487 -3.2223555779389645 #
straight-curve $-1 -65.211951048310794 32.493530831805487 0 0 0 -1 I I #
straight-curve $-1 -65.211951048310794 -32.493530831805487 0 0 0 -1 I I #
edge $-1 $250 -13.297982699100571 $244 -0.99657897088064828 $241 $269 forward 7 unknown #
straight-curve $-1 28.54284183290207 32.493530831805479 0.99657897088064473 -1 0 0 I I #
point $-1 65.211951048310794 32.493530831805487 0.99657897088064828 #
straight-curve $-1 65.211951048310794 0 13.297982699100571 0 1 0 I I #
point $-1 65.211951048310794 32.493530831805487 13.297982699100571 #
point $-1 57.08568366580414 18.399078837334589 -0.72500779490565948 #
straight-curve $-1 65.211951048310794 32.493530831805487 0 0 0 -1 I I #
End-of-ACIS-data 