500 0 8 0           
7 Unknown 11 ACIS 5.0 NT 24 Fri Mar 26 14:58:11 1999 
-1 9.9999999999999995e-007 1e-010 
body $-1 $8 $-1 $9 #
body $-1 $10 $-1 $11 #
body $-1 $12 $-1 $13 #
body $-1 $14 $-1 $15 #
body $-1 $16 $-1 $17 #
body $-1 $18 $-1 $19 #
body $-1 $20 $-1 $21 #
body $-1 $22 $-1 $23 #
lump $-1 $-1 $24 $0 #
transform $-1 1 0 0 0 1 0 0 0 1 61.675466170232248 29.21523936159123 6.6799980108333896 1 rotate no_reflect no_shear #
lump $-1 $-1 $25 $1 #
transform $-1 1 0 0 0 1 0 0 0 1 61.675466170232248 29.21523936159123 6.6799980108333896 1 rotate no_reflect no_shear #
lump $-1 $-1 $26 $2 #
transform $-1 1 0 0 0 1 0 0 0 1 61.675466170232248 29.21523936159123 6.6799980108333896 1 rotate no_reflect no_shear #
lump $-1 $-1 $27 $3 #
transform $-1 1 0 0 0 1 0 0 0 1 61.675466170232248 29.21523936159123 6.6799980108333896 1 rotate no_reflect no_shear #
lump $-1 $-1 $28 $4 #
transform $-1 1 0 0 0 1 0 0 0 1 61.675466170232248 29.21523936159123 6.6799980108333896 1 rotate no_reflect no_shear #
lump $-1 $-1 $29 $5 #
transform $-1 1 0 0 0 1 0 0 0 1 61.675466170232248 29.21523936159123 6.6799980108333896 1 rotate no_reflect no_shear #
lump $-1 $-1 $30 $6 #
transform $-1 1 0 0 0 1 0 0 0 1 61.675466170232248 29.21523936159123 6.6799980108333896 1 rotate no_reflect no_shear #
lump $-1 $-1 $31 $7 #
transform $-1 1 0 0 0 1 0 0 0 1 61.675466170232248 29.21523936159123 6.6799980108333896 1 rotate no_reflect no_shear #
shell $-1 $-1 $-1 $32 $-1 $8 #
shell $-1 $-1 $-1 $33 $-1 $10 #
shell $-1 $-1 $-1 $34 $-1 $12 #
shell $-1 $-1 $-1 $35 $-1 $14 #
shell $-1 $-1 $-1 $36 $-1 $16 #
shell $-1 $-1 $-1 $37 $-1 $18 #
shell $-1 $-1 $-1 $38 $-1 $20 #
shell $-1 $-1 $-1 $39 $-1 $22 #
face $-1 $40 $41 $24 $-1 $42 reversed single #
face $-1 $43 $44 $25 $-1 $45 forward single #
face $-1 $46 $47 $26 $-1 $48 forward single #
face $-1 $49 $50 $27 $-1 $51 reversed single #
face $-1 $52 $53 $28 $-1 $54 forward single #
face $-1 $55 $56 $29 $-1 $57 forward single #
face $-1 $58 $59 $30 $-1 $60 reversed single #
face $-1 $61 $62 $31 $-1 $63 forward single #
face $-1 $64 $65 $24 $-1 $66 forward single #
loop $-1 $-1 $67 $32 #
plane-surface $-1 61.675466170232248 0 0 -1 0 0 0 0 1 forward_v I I I I #
face $-1 $68 $69 $25 $-1 $70 reversed single #
loop $-1 $-1 $71 $33 #
plane-surface $-1 -61.675466170232248 0 0 1 0 0 0 0 -1 forward_v I I I I #
face $-1 $72 $73 $26 $-1 $74 reversed single #
loop $-1 $-1 $75 $34 #
plane-surface $-1 61.675466170232248 0 0 -1 0 0 0 0 1 forward_v I I I I #
face $-1 $76 $77 $27 $-1 $78 reversed single #
loop $-1 $-1 $79 $35 #
plane-surface $-1 -33.652197210041535 54.44784921639507 136.09768644844218 1 0 0 0 -0.5877852598018023 -0.80901698891910034 forward_v I I I I #
face $-1 $80 $81 $28 $-1 $82 forward single #
loop $-1 $83 $84 $36 #
cone-surface $-1 -25.46730566148765 25.075625005344271 3.0931045732118689 0 -0.5877852598018023 -0.80901698891910034 1.5 0 0 1 I I 0 1 1.5 forward I I I I #
face $-1 $85 $86 $29 $-1 $87 forward single #
loop $-1 $88 $89 $37 #
cone-surface $-1 -13.189968338656826 25.075625005344271 3.0931045732118689 0 -0.5877852598018023 -0.80901698891910034 1.5 0 0 1 I I 0 1 1.5 forward I I I I #
face $-1 $90 $91 $30 $-1 $92 reversed single #
loop $-1 $-1 $93 $38 #
plane-surface $-1 -33.990971727330262 -137.10039662113536 60.393692721710025 -1 0 0 0 -0.87461971476443456 0.48480960649040278 forward_v I I I I #
face $-1 $94 $95 $31 $-1 $96 forward single #
loop $-1 $97 $98 $39 #
cone-surface $-1 -44.019063829790021 -26.374004103802648 2.9963628185264723 0 0.87461971476443456 -0.48480960649040278 1 0 0 1 I I 0 1 1 forward I I I I #
face $-1 $99 $100 $24 $-1 $101 reversed single #
loop $-1 $-1 $102 $40 #
plane-surface $-1 0 0 6.6799980108333896 0 0 1 1 0 0 forward_v I I I I #
coedge $-1 $103 $104 $105 $106 reversed $41 $-1 #
face $-1 $107 $108 $25 $-1 $109 forward single #
loop $-1 $-1 $110 $43 #
plane-surface $-1 0 29.21523936159123 0 0 -1 0 0 0 -1 forward_v I I I I #
coedge $-1 $111 $112 $113 $114 forward $44 $-1 #
face $-1 $115 $116 $26 $-1 $117 forward single #
loop $-1 $-1 $118 $46 #
plane-surface $-1 0 -29.21523936159123 0 0 1 0 0 0 1 forward_v I I I I #
coedge $-1 $119 $120 $121 $122 forward $47 $-1 #
face $-1 $123 $124 $27 $-1 $125 reversed single #
loop $-1 $-1 $126 $49 #
plane-surface $-1 -19.328637000072241 -18.056010596139387 36.30468658599591 0 0.5877852598018023 0.80901698891910034 1 0 0 forward_v I I I I #
coedge $-1 $127 $128 $129 $130 reversed $50 $-1 #
face $-1 $-1 $131 $28 $-1 $132 forward single #
loop $-1 $133 $134 $52 #
cone-surface $-1 -25.46730566148765 23.743354203841236 1.2593911646444953 0 -0.5877852598018023 -0.80901698891910034 0.75 0 0 1 I I -0.70710678118654757 0.70710678118654757 0.75 forward I I I I #
loop $-1 $-1 $135 $36 #
coedge $-1 $84 $84 $136 $137 reversed $53 $-1 #
face $-1 $-1 $138 $29 $-1 $139 forward single #
loop $-1 $140 $141 $55 #
cone-surface $-1 -13.189968338656826 23.743354203841236 1.2593911646444953 0 -0.5877852598018023 -0.80901698891910034 0.75 0 0 1 I I -0.70710678118654757 0.70710678118654757 0.75 forward I I I I #
loop $-1 $-1 $142 $37 #
coedge $-1 $89 $89 $143 $144 reversed $56 $-1 #
face $-1 $145 $146 $30 $-1 $147 reversed single #
loop $-1 $-1 $148 $58 #
plane-surface $-1 -44.019063829790028 -29.21523936159123 0.59197575350513176 0 -0.87461971476443456 0.48480960649040278 1 0 0 forward_v I I I I #
coedge $-1 $149 $150 $151 $152 reversed $59 $-1 #
face $-1 $-1 $153 $31 $-1 $154 forward single #
loop $-1 $155 $156 $61 #
cone-surface $-1 -44.019063829790021 -24.782781847387138 2.1143339516384794 0 0.87461971476443456 -0.48480960649040278 0.5 0 0 1 I I -0.70710678118654735 0.70710678118654768 0.5 forward I I I I #
loop $-1 $-1 $157 $39 #
coedge $-1 $98 $98 $158 $159 reversed $62 $-1 #
face $-1 $160 $161 $24 $-1 $162 reversed single #
loop $-1 $-1 $163 $64 #
plane-surface $-1 0 0 -6.6799980108333896 0 0 1 1 0 0 forward_v I I I I #
coedge $-1 $164 $165 $103 $166 forward $65 $-1 #
coedge $-1 $167 $67 $102 $166 reversed $41 $-1 #
coedge $-1 $67 $167 $163 $168 reversed $41 $-1 #
coedge $-1 $169 $170 $67 $106 forward $171 $-1 #
edge $-1 $172 -6.6799980108333896 $173 6.6799980108333896 $67 $174 forward 7 unknown #
face $-1 $175 $176 $25 $-1 $177 reversed single #
loop $-1 $-1 $113 $68 #
plane-surface $-1 -65.489621289223479 0 -2.1699622736746464 0 0 1 1 0 0 forward_v I I I I #
coedge $-1 $178 $179 $112 $180 forward $69 $-1 #
coedge $-1 $181 $71 $182 $183 reversed $44 $-1 #
coedge $-1 $71 $181 $110 $180 reversed $44 $-1 #
coedge $-1 $184 $185 $71 $114 reversed $108 $-1 #
edge $-1 $186 -29.21523936159123 $187 29.21523936159123 $113 $188 forward 7 unknown #
face $-1 $189 $190 $26 $-1 $191 reversed single #
loop $-1 $-1 $192 $72 #
plane-surface $-1 65.489621289223464 0 -2.1699622736746464 0 0 1 1 0 0 forward_v I I I I #
coedge $-1 $193 $194 $120 $195 forward $73 $-1 #
coedge $-1 $196 $75 $197 $198 reversed $47 $-1 #
coedge $-1 $75 $196 $118 $195 reversed $47 $-1 #
coedge $-1 $199 $200 $75 $122 reversed $116 $-1 #
edge $-1 $201 -29.21523936159123 $202 29.21523936159123 $121 $203 forward 7 unknown #
face $-1 $204 $205 $27 $-1 $206 reversed single #
loop $-1 $-1 $207 $76 #
plane-surface $-1 -5.0050767901029438 54.44784921639507 136.09768644844218 -1 0 0 0 0.5877852598018023 0.80901698891910034 forward_v I I I I #
coedge $-1 $208 $209 $210 $211 reversed $77 $-1 #
coedge $-1 $128 $79 $212 $213 reversed $50 $-1 #
coedge $-1 $79 $127 $208 $214 reversed $50 $-1 #
coedge $-1 $210 $215 $79 $130 forward $216 $-1 #
edge $-1 $217 -1.991314753393695 $218 4.5050502457968875 $129 $219 forward 7 unknown #
loop $-1 $-1 $136 $80 #
plane-surface $-1 -19.328637000072241 -18.056010596139387 36.30468658599591 0 0.5877852598018023 0.80901698891910034 1 0 0 forward_v I I I I #
loop $-1 $-1 $220 $52 #
coedge $-1 $134 $134 $135 $221 reversed $81 $-1 #
coedge $-1 $135 $135 $134 $221 forward $83 $-1 #
coedge $-1 $136 $136 $84 $137 forward $131 $-1 #
edge $-1 $222 -1.9122895279978898e-015 $222 6.2831853071795987 $136 $223 forward 7 unknown #
loop $-1 $-1 $143 $85 #
plane-surface $-1 -19.328637000072241 -18.056010596139387 36.30468658599591 0 0.5877852598018023 0.80901698891910034 1 0 0 forward_v I I I I #
loop $-1 $-1 $224 $55 #
coedge $-1 $141 $141 $142 $225 reversed $86 $-1 #
coedge $-1 $142 $142 $141 $225 forward $88 $-1 #
coedge $-1 $143 $143 $89 $144 forward $138 $-1 #
edge $-1 $226 -1.9122895279978898e-015 $226 6.2831853071795987 $143 $227 forward 7 unknown #
face $-1 $228 $229 $30 $-1 $230 forward single #
loop $-1 $-1 $231 $90 #
plane-surface $-1 -54.047155932249794 -137.10039662113536 60.393692721710025 1 0 0 0 0.87461971476443456 -0.48480960649040278 forward_v I I I I #
coedge $-1 $232 $233 $234 $235 reversed $91 $-1 #
coedge $-1 $150 $93 $236 $237 reversed $59 $-1 #
coedge $-1 $93 $149 $232 $238 reversed $59 $-1 #
coedge $-1 $234 $239 $93 $152 forward $229 $-1 #
edge $-1 $240 39.33495894897645 $241 42.709604666487031 $151 $242 forward 7 unknown #
loop $-1 $-1 $158 $94 #
plane-surface $-1 -44.019063829790028 -29.21523936159123 0.59197575350513176 0 -0.87461971476443456 0.48480960649040278 1 0 0 forward_v I I I I #
loop $-1 $-1 $243 $61 #
coedge $-1 $156 $156 $157 $244 reversed $95 $-1 #
coedge $-1 $157 $157 $156 $244 forward $97 $-1 #
coedge $-1 $158 $158 $98 $159 forward $153 $-1 #
edge $-1 $245 -9.4557136449429248e-016 $245 6.2831853071795996 $158 $246 forward 7 unknown #
face $-1 $247 $248 $24 $-1 $249 reversed single #
loop $-1 $-1 $250 $99 #
plane-surface $-1 0 -29.21523936159123 0 0 1 0 0 0 1 forward_v I I I I #
coedge $-1 $251 $252 $104 $168 forward $100 $-1 #
coedge $-1 $253 $102 $170 $254 forward $65 $-1 #
coedge $-1 $102 $253 $255 $256 forward $65 $-1 #
edge $-1 $257 -29.21523936159123 $172 29.21523936159123 $103 $258 forward 7 unknown #
coedge $-1 $104 $103 $259 $260 forward $41 $-1 #
edge $-1 $173 -29.21523936159123 $261 29.21523936159123 $104 $262 forward 7 unknown #
coedge $-1 $263 $105 $252 $264 reversed $171 $-1 #
coedge $-1 $105 $263 $164 $254 reversed $171 $-1 #
loop $-1 $-1 $105 $247 #
vertex $-1 $166 $265 #
vertex $-1 $168 $266 #
straight-curve $-1 61.675466170232248 29.21523936159123 0 0 0 -1 I I #
face $-1 $267 $268 $25 $-1 $269 reversed single #
loop $-1 $-1 $270 $107 #
plane-surface $-1 -65.489621289223479 0 -5.1699622736746464 0 0 1 1 0 0 forward_v I I I I #
coedge $-1 $271 $110 $272 $273 reversed $69 $-1 #
coedge $-1 $110 $271 $184 $274 reversed $69 $-1 #
edge $-1 $186 2.1699622736746464 $275 5.1699622736746464 $110 $276 forward 7 unknown #
coedge $-1 $112 $111 $270 $277 forward $44 $-1 #
coedge $-1 $278 $279 $111 $183 forward $280 $-1 #
edge $-1 $281 -5.1699622736746464 $187 -2.1699622736746464 $182 $282 forward 7 unknown #
coedge $-1 $283 $113 $179 $274 forward $108 $-1 #
coedge $-1 $113 $283 $278 $284 forward $108 $-1 #
vertex $-1 $180 $285 #
vertex $-1 $284 $286 #
straight-curve $-1 -61.675466170232248 0 -2.1699622736746464 0 -1 0 I I #
face $-1 $287 $288 $26 $-1 $289 reversed single #
loop $-1 $-1 $290 $115 #
plane-surface $-1 65.489621289223464 0 -5.1699622736746464 0 0 1 1 0 0 forward_v I I I I #
coedge $-1 $200 $199 $291 $292 forward $116 $-1 #
coedge $-1 $293 $118 $294 $295 reversed $73 $-1 #
coedge $-1 $118 $293 $199 $296 reversed $73 $-1 #
edge $-1 $201 2.1699622736746464 $297 5.1699622736746464 $118 $298 forward 7 unknown #
coedge $-1 $120 $119 $299 $300 forward $47 $-1 #
coedge $-1 $301 $302 $119 $198 forward $303 $-1 #
edge $-1 $304 -5.1699622736746464 $202 -2.1699622736746464 $197 $305 forward 7 unknown #
coedge $-1 $192 $121 $194 $296 forward $116 $-1 #
coedge $-1 $121 $192 $301 $306 forward $116 $-1 #
vertex $-1 $195 $307 #
vertex $-1 $306 $308 #
straight-curve $-1 61.675466170232248 0 -2.1699622736746464 0 1 0 I I #
face $-1 $-1 $216 $27 $-1 $309 forward single #
loop $-1 $-1 $310 $123 #
plane-surface $-1 0 29.21523936159123 0 0 -1 0 0 0 -1 forward_v I I I I #
coedge $-1 $311 $312 $313 $314 reversed $124 $-1 #
coedge $-1 $315 $126 $128 $214 forward $77 $-1 #
coedge $-1 $126 $315 $311 $316 forward $77 $-1 #
coedge $-1 $313 $129 $126 $211 forward $216 $-1 #
edge $-1 $218 -23.987878710005415 $317 4.6592417099331769 $210 $318 forward 7 unknown #
coedge $-1 $319 $320 $127 $213 forward $205 $-1 #
edge $-1 $321 -66.088730754874646 $217 -61.368845213387701 $212 $322 forward 7 unknown #
edge $-1 $218 50.400529923380162 $321 58.430478723182439 $128 $323 forward 7 unknown #
coedge $-1 $129 $313 $319 $324 forward $216 $-1 #
loop $-1 $-1 $313 $204 #
vertex $-1 $213 $325 #
vertex $-1 $130 $326 #
straight-curve $-1 -33.652197210041535 27.223924608197535 6.679998010833387 0 -1 0 I I #
coedge $-1 $220 $220 $-1 $327 reversed $133 $-1 #
edge $-1 $328 0 $328 6.2831853071796004 $134 $329 forward 7 unknown #
vertex $-1 $137 $330 #
ellipse-curve $-1 -25.46730566148765 25.96705686199595 4.3200552400899079 0 0.5877852598018023 0.80901698891910034 1.5 0 0 1 I I #
coedge $-1 $224 $224 $-1 $331 reversed $140 $-1 #
edge $-1 $332 0 $332 6.2831853071796004 $141 $333 forward 7 unknown #
vertex $-1 $144 $334 #
ellipse-curve $-1 -13.189968338656826 25.96705686199595 4.3200552400899079 0 0.5877852598018023 0.80901698891910034 1.5 0 0 1 I I #
face $-1 $-1 $335 $30 $-1 $336 reversed single #
loop $-1 $-1 $151 $145 #
plane-surface $-1 0 0 6.6799980108333896 0 0 1 1 0 0 forward_v I I I I #
coedge $-1 $337 $338 $339 $340 reversed $146 $-1 #
coedge $-1 $341 $148 $150 $238 forward $91 $-1 #
coedge $-1 $148 $341 $337 $342 forward $91 $-1 #
coedge $-1 $339 $151 $148 $235 forward $229 $-1 #
edge $-1 $241 11.981439812435248 $343 32.03762401735478 $234 $344 forward 7 unknown #
coedge $-1 $345 $346 $149 $237 forward $335 $-1 #
edge $-1 $347 -29.604870607349881 $240 -23.516848350021622 $236 $348 forward 7 unknown #
edge $-1 $241 -6.9607649525347979 $347 0 $150 $349 forward 7 unknown #
coedge $-1 $151 $339 $345 $350 forward $229 $-1 #
vertex $-1 $237 $351 #
vertex $-1 $152 $352 #
straight-curve $-1 -33.990971727330262 -68.55019831056768 6.6799980108333905 0 1 0 I I #
coedge $-1 $243 $243 $-1 $353 reversed $155 $-1 #
edge $-1 $354 0 $354 6.2831853071796004 $156 $355 forward 7 unknown #
vertex $-1 $159 $356 #
ellipse-curve $-1 -44.019063829790021 -27.527916502835936 3.6359868821692629 0 -0.87461971476443456 0.48480960649040278 1 0 0 1 I I #
face $-1 $-1 $171 $24 $-1 $357 reversed single #
loop $-1 $-1 $358 $160 #
plane-surface $-1 -61.675466170232248 0 0 1 0 0 0 0 -1 forward_v I I I I #
coedge $-1 $359 $255 $358 $360 forward $161 $-1 #
coedge $-1 $361 $163 $359 $362 forward $100 $-1 #
coedge $-1 $163 $361 $169 $264 forward $100 $-1 #
coedge $-1 $165 $164 $363 $364 forward $65 $-1 #
edge $-1 $172 -61.675466170232248 $365 61.675466170232248 $170 $366 forward 7 unknown #
coedge $-1 $250 $259 $165 $256 reversed $161 $-1 #
edge $-1 $367 -61.675466170232248 $257 61.675466170232248 $255 $368 forward 7 unknown #
vertex $-1 $166 $369 #
straight-curve $-1 61.675466170232248 0 6.6799980108333896 0 1 0 I I #
coedge $-1 $255 $359 $167 $260 reversed $161 $-1 #
edge $-1 $257 -6.6799980108333896 $261 6.6799980108333896 $167 $370 forward 7 unknown #
vertex $-1 $260 $371 #
straight-curve $-1 61.675466170232248 0 -6.6799980108333896 0 -1 0 I I #
coedge $-1 $170 $169 $372 $373 reversed $171 $-1 #
edge $-1 $374 -61.675466170232248 $173 61.675466170232248 $169 $375 forward 7 unknown #
point $-1 61.675466170232248 29.21523936159123 6.6799980108333896 #
point $-1 61.675466170232248 29.21523936159123 -6.6799980108333896 #
face $-1 $-1 $280 $25 $-1 $376 reversed single #
loop $-1 $-1 $377 $175 #
plane-surface $-1 -69.303776408214716 0 -3.6699622736746464 1 0 0 0 0 -1 forward_v I I I I #
coedge $-1 $378 $272 $181 $277 reversed $176 $-1 #
coedge $-1 $179 $178 $377 $379 reversed $69 $-1 #
coedge $-1 $270 $380 $178 $273 forward $176 $-1 #
edge $-1 $381 -3.8141551189912377 $275 3.8141551189912306 $178 $382 forward 7 unknown #
edge $-1 $186 -3.8141551189912306 $383 3.8141551189912377 $179 $384 forward 7 unknown #
vertex $-1 $180 $385 #
straight-curve $-1 -61.675466170232248 29.21523936159123 0 0 0 -1 I I #
edge $-1 $281 -29.21523936159123 $275 29.21523936159123 $270 $386 forward 7 unknown #
coedge $-1 $387 $182 $185 $284 reversed $280 $-1 #
coedge $-1 $182 $387 $378 $388 reversed $280 $-1 #
loop $-1 $-1 $182 $267 #
vertex $-1 $183 $389 #
straight-curve $-1 -61.675466170232248 -29.21523936159123 0 0 0 1 I I #
coedge $-1 $185 $184 $390 $391 forward $108 $-1 #
edge $-1 $392 -3.8141551189912377 $187 3.8141551189912306 $278 $393 forward 7 unknown #
point $-1 -61.675466170232248 29.21523936159123 -2.1699622736746464 #
point $-1 -61.675466170232248 -29.21523936159123 -2.1699622736746464 #
face $-1 $-1 $303 $26 $-1 $394 reversed single #
loop $-1 $-1 $395 $189 #
plane-surface $-1 69.303776408214702 0 -3.6699622736746464 -1 0 0 0 0 1 forward_v I I I I #
coedge $-1 $294 $396 $397 $398 forward $190 $-1 #
coedge $-1 $395 $399 $192 $292 reversed $288 $-1 #
edge $-1 $400 -29.21523936159123 $401 29.21523936159123 $291 $402 forward 7 unknown #
coedge $-1 $194 $193 $395 $403 reversed $73 $-1 #
coedge $-1 $299 $290 $193 $295 forward $190 $-1 #
edge $-1 $404 -3.8141551189912377 $297 3.8141551189912306 $193 $405 forward 7 unknown #
edge $-1 $201 -3.8141551189912306 $400 3.8141551189912377 $194 $406 forward 7 unknown #
vertex $-1 $195 $407 #
straight-curve $-1 61.675466170232248 -29.21523936159123 0 0 0 -1 I I #
coedge $-1 $396 $294 $196 $300 reversed $190 $-1 #
edge $-1 $304 -29.21523936159123 $297 29.21523936159123 $299 $408 forward 7 unknown #
coedge $-1 $409 $197 $200 $306 reversed $303 $-1 #
coedge $-1 $197 $409 $396 $410 reversed $303 $-1 #
loop $-1 $-1 $197 $287 #
vertex $-1 $198 $411 #
straight-curve $-1 61.675466170232248 29.21523936159123 0 0 0 1 I I #
edge $-1 $401 -3.8141551189912377 $202 3.8141551189912306 $301 $412 forward 7 unknown #
point $-1 61.675466170232234 -29.21523936159123 -2.1699622736746464 #
point $-1 61.675466170232234 29.21523936159123 -2.1699622736746464 #
plane-surface $-1 0 0 6.6799980108333896 0 0 1 1 0 0 forward_v I I I I #
coedge $-1 $320 $319 $312 $413 forward $205 $-1 #
coedge $-1 $312 $207 $209 $316 reversed $124 $-1 #
coedge $-1 $207 $311 $310 $413 reversed $124 $-1 #
coedge $-1 $215 $210 $207 $314 forward $216 $-1 #
edge $-1 $317 -4.5050502457968875 $414 1.991314753393695 $313 $415 forward 7 unknown #
coedge $-1 $209 $208 $320 $416 reversed $77 $-1 #
edge $-1 $417 -58.430478723182439 $317 -50.400529923380162 $311 $418 forward 7 unknown #
vertex $-1 $211 $419 #
straight-curve $-1 -9.6643185000361207 22.718874362400644 6.6799980108333905 1 0 0 I I #
coedge $-1 $310 $212 $215 $324 reversed $205 $-1 #
coedge $-1 $212 $310 $315 $416 forward $205 $-1 #
vertex $-1 $213 $420 #
straight-curve $-1 -33.652197210041535 29.21523936159123 68.048843224221088 0 0 1 I I #
straight-curve $-1 -33.652197210041535 -18.056010596139387 36.30468658599591 0 0.80901698891910034 -0.5877852598018023 I I #
edge $-1 $414 5.0050767901029438 $217 33.652197210041535 $319 $421 forward 7 unknown #
point $-1 -33.652197210041535 29.21523936159123 6.6799980108333896 #
point $-1 -33.652197210041535 22.718874362400648 6.6799980108333905 #
edge $-1 $422 1 $422 0 $220 $-1 forward 7 unknown #
vertex $-1 $221 $423 #
ellipse-curve $-1 -25.46730566148765 24.184193148692586 1.8661539063338206 0 0.5877852598018023 0.80901698891910034 1.5 0 0 1 I I #
point $-1 -23.96730566148765 25.967056861995953 4.3200552400899177 #
edge $-1 $424 1 $424 0 $224 $-1 forward 7 unknown #
vertex $-1 $225 $425 #
ellipse-curve $-1 -13.189968338656826 24.184193148692586 1.8661539063338206 0 0.5877852598018023 0.80901698891910034 1.5 0 0 1 I I #
point $-1 -11.689968338656826 25.967056861995953 4.3200552400899177 #
loop $-1 $-1 $236 $228 #
plane-surface $-1 0 -29.21523936159123 0 0 1 0 0 0 1 forward_v I I I I #
coedge $-1 $338 $231 $233 $342 reversed $146 $-1 #
coedge $-1 $231 $337 $426 $427 reversed $146 $-1 #
coedge $-1 $239 $234 $231 $340 forward $229 $-1 #
edge $-1 $343 -42.709604666487031 $428 -39.33495894897645 $339 $429 forward 7 unknown #
coedge $-1 $233 $232 $346 $430 reversed $91 $-1 #
edge $-1 $431 0 $343 6.9607649525347979 $337 $432 forward 7 unknown #
vertex $-1 $235 $433 #
straight-curve $-1 -22.009531914895014 -25.840593644080649 6.6799980108333896 -1 0 0 I I #
coedge $-1 $426 $236 $239 $350 reversed $335 $-1 #
coedge $-1 $236 $426 $341 $430 forward $335 $-1 #
vertex $-1 $237 $434 #
straight-curve $-1 -33.990971727330262 -29.21523936159123 30.196846360855012 0 0 1 I I #
straight-curve $-1 -33.990971727330262 -29.21523936159123 0.59197575350513176 0 -0.48480960649040278 -0.87461971476443456 I I #
edge $-1 $428 -54.047155932249794 $240 -33.990971727330262 $345 $435 forward 7 unknown #
point $-1 -33.990971727330262 -29.21523936159123 6.6799980108333896 #
point $-1 -33.990971727330262 -25.840593644080649 6.6799980108333896 #
edge $-1 $436 1 $436 0 $243 $-1 forward 7 unknown #
vertex $-1 $244 $437 #
ellipse-curve $-1 -44.019063829790021 -25.220091704769356 2.3567387548836809 0 -0.87461971476443456 0.48480960649040278 1 0 0 1 I I #
point $-1 -43.019063829790021 -27.527916502835939 3.6359868821692638 #
plane-surface $-1 0 29.21523936159123 0 0 -1 0 0 0 -1 forward_v I I I I #
coedge $-1 $363 $438 $250 $360 reversed $248 $-1 #
coedge $-1 $259 $250 $251 $362 reversed $161 $-1 #
edge $-1 $367 -6.6799980108333896 $439 6.6799980108333896 $358 $440 forward 7 unknown #
coedge $-1 $252 $251 $438 $441 forward $100 $-1 #
edge $-1 $261 -61.675466170232248 $439 61.675466170232248 $359 $442 forward 7 unknown #
coedge $-1 $372 $358 $253 $364 reversed $248 $-1 #
edge $-1 $365 -29.21523936159123 $367 29.21523936159123 $363 $443 forward 7 unknown #
vertex $-1 $254 $444 #
straight-curve $-1 0 29.21523936159123 6.6799980108333896 -1 0 0 I I #
vertex $-1 $364 $445 #
straight-curve $-1 0 -29.21523936159123 6.6799980108333896 1 0 0 I I #
point $-1 61.675466170232248 -29.21523936159123 6.6799980108333896 #
straight-curve $-1 61.675466170232248 -29.21523936159123 0 0 0 -1 I I #
point $-1 61.675466170232248 -29.21523936159123 -6.6799980108333896 #
coedge $-1 $438 $363 $263 $373 forward $248 $-1 #
edge $-1 $365 -6.6799980108333896 $374 6.6799980108333896 $263 $446 forward 7 unknown #
vertex $-1 $264 $447 #
straight-curve $-1 0 29.21523936159123 -6.6799980108333896 1 0 0 I I #
plane-surface $-1 0 -29.21523936159123 0 0 1 0 0 0 1 forward_v I I I I #
coedge $-1 $448 $390 $271 $379 forward $268 $-1 #
coedge $-1 $380 $270 $279 $388 forward $176 $-1 #
edge $-1 $383 -1.5 $381 1.5 $271 $449 forward 7 unknown #
coedge $-1 $272 $378 $448 $450 forward $176 $-1 #
vertex $-1 $273 $451 #
straight-curve $-1 -65.489621289223479 29.21523936159123 -5.1699622736746464 1 0 0 I I #
vertex $-1 $274 $452 #
straight-curve $-1 -65.489621289223479 29.21523936159123 -2.1699622736746464 -1 0 0 I I #
point $-1 -61.675466170232248 29.21523936159123 -5.1699622736746464 #
straight-curve $-1 -61.675466170232248 0 -5.1699622736746464 0 1 0 I I #
coedge $-1 $279 $278 $453 $454 forward $280 $-1 #
edge $-1 $281 -3.8141551189912306 $455 3.8141551189912377 $279 $456 forward 7 unknown #
point $-1 -61.675466170232248 -29.21523936159123 -5.1699622736746464 #
coedge $-1 $377 $453 $283 $391 reversed $268 $-1 #
edge $-1 $383 -29.21523936159123 $392 29.21523936159123 $390 $457 forward 7 unknown #
vertex $-1 $391 $458 #
straight-curve $-1 -65.489621289223479 -29.21523936159123 -2.1699622736746464 1 0 0 I I #
plane-surface $-1 0 29.21523936159123 0 0 -1 0 0 0 -1 forward_v I I I I #
coedge $-1 $397 $291 $293 $403 forward $288 $-1 #
coedge $-1 $290 $299 $302 $410 forward $190 $-1 #
coedge $-1 $399 $395 $290 $398 reversed $288 $-1 #
edge $-1 $459 -29.21523936159123 $404 29.21523936159123 $397 $460 forward 7 unknown #
coedge $-1 $291 $397 $409 $461 reversed $288 $-1 #
vertex $-1 $292 $462 #
vertex $-1 $292 $463 #
straight-curve $-1 69.303776408214702 0 -2.1699622736746464 0 1 0 I I #
edge $-1 $400 -1.5 $404 1.5 $395 $464 forward 7 unknown #
vertex $-1 $403 $465 #
straight-curve $-1 65.489621289223464 -29.21523936159123 -5.1699622736746464 -1 0 0 I I #
straight-curve $-1 65.489621289223464 -29.21523936159123 -2.1699622736746464 1 0 0 I I #
point $-1 61.675466170232234 -29.21523936159123 -5.1699622736746464 #
straight-curve $-1 61.675466170232248 0 -5.1699622736746464 0 -1 0 I I #
coedge $-1 $302 $301 $399 $461 forward $303 $-1 #
edge $-1 $304 -3.8141551189912306 $459 3.8141551189912377 $302 $466 forward 7 unknown #
point $-1 61.675466170232234 29.21523936159123 -5.1699622736746464 #
straight-curve $-1 65.489621289223464 29.21523936159123 -2.1699622736746464 -1 0 0 I I #
edge $-1 $414 61.368845213387701 $417 66.088730754874646 $310 $467 forward 7 unknown #
vertex $-1 $324 $468 #
straight-curve $-1 -5.0050767901029438 27.223924608197535 6.679998010833387 0 1 0 I I #
edge $-1 $417 -4.6592417099331769 $321 23.987878710005415 $320 $469 forward 7 unknown #
vertex $-1 $416 $470 #
straight-curve $-1 -5.0050767901029438 -18.056010596139387 36.30468658599591 0 -0.80901698891910034 0.5877852598018023 I I #
point $-1 -5.0050767901029438 22.718874362400648 6.6799980108333905 #
point $-1 -33.652197210041535 29.21523936159123 1.9601124693464413 #
straight-curve $-1 0 29.21523936159123 6.6799980108333896 -1 0 0 I I #
vertex $-1 $327 $471 #
point $-1 -23.96730566148765 24.184193148692586 1.8661539063338206 #
vertex $-1 $331 $472 #
point $-1 -11.689968338656826 24.184193148692586 1.8661539063338206 #
coedge $-1 $346 $345 $338 $427 forward $335 $-1 #
edge $-1 $428 23.516848350021622 $431 29.604870607349881 $426 $473 forward 7 unknown #
vertex $-1 $350 $474 #
straight-curve $-1 -54.047155932249794 -68.55019831056768 6.6799980108333905 0 -1 0 I I #
edge $-1 $431 -32.03762401735478 $347 -11.981439812435248 $346 $475 forward 7 unknown #
vertex $-1 $430 $476 #
straight-curve $-1 -54.047155932249794 -29.21523936159123 0.59197575350513176 0 0.48480960649040278 0.87461971476443456 I I #
point $-1 -54.047155932249794 -25.840593644080649 6.6799980108333896 #
point $-1 -33.990971727330262 -29.21523936159123 0.59197575350513176 #
straight-curve $-1 0 -29.21523936159123 6.6799980108333896 1 0 0 I I #
vertex $-1 $353 $477 #
point $-1 -43.019063829790021 -25.220091704769356 2.3567387548836809 #
coedge $-1 $358 $372 $361 $441 reversed $248 $-1 #
vertex $-1 $441 $478 #
straight-curve $-1 -61.675466170232248 -29.21523936159123 0 0 0 -1 I I #
edge $-1 $439 -29.21523936159123 $374 29.21523936159123 $438 $479 forward 7 unknown #
straight-curve $-1 0 -29.21523936159123 -6.6799980108333896 -1 0 0 I I #
straight-curve $-1 -61.675466170232248 0 6.6799980108333896 0 -1 0 I I #
point $-1 -61.675466170232248 29.21523936159123 6.6799980108333896 #
point $-1 -61.675466170232248 -29.21523936159123 6.6799980108333896 #
straight-curve $-1 -61.675466170232248 29.21523936159123 0 0 0 -1 I I #
point $-1 -61.675466170232248 29.21523936159123 -6.6799980108333896 #
coedge $-1 $453 $377 $380 $450 reversed $268 $-1 #
straight-curve $-1 -69.303776408214716 29.21523936159123 -3.6699622736746464 0 0 -1 I I #
edge $-1 $455 -29.21523936159123 $381 29.21523936159123 $448 $480 forward 7 unknown #
point $-1 -69.303776408214716 29.21523936159123 -5.1699622736746464 #
point $-1 -69.303776408214716 29.21523936159123 -2.1699622736746464 #
coedge $-1 $390 $448 $387 $454 reversed $268 $-1 #
edge $-1 $392 -1.5 $455 1.5 $453 $481 forward 7 unknown #
vertex $-1 $450 $482 #
straight-curve $-1 -65.489621289223479 -29.21523936159123 -5.1699622736746464 -1 0 0 I I #
straight-curve $-1 -69.303776408214716 0 -2.1699622736746464 0 -1 0 I I #
point $-1 -69.303776408214716 -29.21523936159123 -2.1699622736746464 #
vertex $-1 $398 $483 #
straight-curve $-1 69.303776408214702 0 -5.1699622736746464 0 -1 0 I I #
edge $-1 $401 -1.5 $459 1.5 $399 $484 forward 7 unknown #
point $-1 69.303776408214702 -29.21523936159123 -2.1699622736746464 #
point $-1 69.303776408214702 29.21523936159123 -2.1699622736746464 #
straight-curve $-1 69.303776408214702 -29.21523936159123 -3.6699622736746464 0 0 -1 I I #
point $-1 69.303776408214702 -29.21523936159123 -5.1699622736746464 #
straight-curve $-1 65.489621289223464 29.21523936159123 -5.1699622736746464 1 0 0 I I #
straight-curve $-1 -5.0050767901029438 29.21523936159123 68.048843224221088 0 0 -1 I I #
point $-1 -5.0050767901029438 29.21523936159123 6.6799980108333896 #
straight-curve $-1 -9.6643185000361207 29.21523936159123 1.9601124693464342 -1 0 0 I I #
point $-1 -5.0050767901029438 29.21523936159123 1.9601124693464413 #
point $-1 -25.46730566148765 23.302515258989885 0.65262842295516998 #
point $-1 -13.189968338656826 23.302515258989885 0.65262842295516998 #
straight-curve $-1 -54.047155932249794 -29.21523936159123 30.196846360855012 0 0 -1 I I #
point $-1 -54.047155932249794 -29.21523936159123 6.6799980108333896 #
straight-curve $-1 -22.009531914895014 -29.21523936159123 0.59197575350512999 1 0 0 I I #
point $-1 -54.047155932249794 -29.21523936159123 0.59197575350513176 #
point $-1 -44.019063829790021 -24.345471990004921 1.8719291483932778 #
point $-1 -61.675466170232248 -29.21523936159123 -6.6799980108333896 #
straight-curve $-1 -61.675466170232248 0 -6.6799980108333896 0 1 0 I I #
straight-curve $-1 -69.303776408214716 0 -5.1699622736746464 0 1 0 I I #
straight-curve $-1 -69.303776408214716 -29.21523936159123 -3.6699622736746464 0 0 -1 I I #
point $-1 -69.303776408214716 -29.21523936159123 -5.1699622736746464 #
point $-1 69.303776408214702 29.21523936159123 -5.1699622736746464 #
straight-curve $-1 69.303776408214702 29.21523936159123 -3.6699622736746464 0 0 -1 I I #
End-of-ACIS-data 