500 0 5 0           
7 Unknown 11 ACIS 5.0 NT 24 Thu Mar 25 18:43:56 1999 
-1 9.9999999999999995e-007 1e-010 
body $-1 $5 $-1 $6 #
body $-1 $7 $-1 $8 #
body $-1 $9 $-1 $10 #
body $-1 $11 $-1 $12 #
body $-1 $13 $-1 $14 #
lump $-1 $-1 $15 $0 #
transform $-1 1 0 0 0 1 0 0 0 1 67.632679219946894 38.730220020719855 7.8201546885306756 1 rotate no_reflect no_shear #
lump $-1 $-1 $16 $1 #
transform $-1 1 0 0 0 1 0 0 0 1 67.632679219946894 38.730220020719855 7.8201546885306756 1 rotate no_reflect no_shear #
lump $-1 $-1 $17 $2 #
transform $-1 1 0 0 0 1 0 0 0 1 67.632679219946894 38.730220020719855 7.8201546885306756 1 rotate no_reflect no_shear #
lump $-1 $-1 $18 $3 #
transform $-1 1 0 0 0 1 0 0 0 1 67.632679219946894 38.730220020719855 7.8201546885306756 1 rotate no_reflect no_shear #
lump $-1 $-1 $19 $4 #
transform $-1 1 0 0 0 1 0 0 0 1 67.632679219946894 38.730220020719855 7.8201546885306756 1 rotate no_reflect no_shear #
shell $-1 $-1 $-1 $20 $-1 $5 #
shell $-1 $-1 $-1 $21 $-1 $7 #
shell $-1 $-1 $-1 $22 $-1 $9 #
shell $-1 $-1 $-1 $23 $-1 $11 #
shell $-1 $-1 $-1 $24 $-1 $13 #
face $-1 $25 $26 $15 $-1 $27 forward single #
face $-1 $28 $29 $16 $-1 $30 forward single #
face $-1 $31 $32 $17 $-1 $33 forward single #
face $-1 $34 $35 $18 $-1 $36 reversed single #
face $-1 $37 $38 $19 $-1 $39 forward single #
face $-1 $40 $41 $15 $-1 $42 reversed single #
loop $-1 $-1 $43 $20 #
plane-surface $-1 0 0 7.8201546885306756 0 0 1 1 0 0 forward_v I I I I #
face $-1 $44 $45 $16 $-1 $46 reversed single #
loop $-1 $-1 $47 $21 #
plane-surface $-1 -67.632679219946894 0 0 1 0 0 0 0 -1 forward_v I I I I #
face $-1 $48 $49 $17 $-1 $50 reversed single #
loop $-1 $-1 $51 $22 #
plane-surface $-1 67.632679219946894 0 0 -1 0 0 0 0 1 forward_v I I I I #
face $-1 $52 $53 $18 $-1 $54 reversed single #
loop $-1 $-1 $55 $23 #
plane-surface $-1 15.251408633860194 84.829149343022735 149.62445326420305 1 0 0 0 -0.73135370988377701 -0.68199835119979291 forward_v I I I I #
face $-1 $56 $57 $19 $-1 $58 forward single #
loop $-1 $59 $60 $24 #
cone-surface $-1 30.573566252889634 34.441728398362514 3.3582634562632601 0 -0.73135370988377701 -0.68199835119979291 1 0 0 1 I I 0 1 1 forward I I I I #
face $-1 $61 $62 $15 $-1 $63 reversed single #
loop $-1 $-1 $64 $25 #
plane-surface $-1 0 0 -7.8201546885306756 0 0 1 1 0 0 forward_v I I I I #
coedge $-1 $65 $66 $67 $68 forward $26 $-1 #
face $-1 $69 $70 $16 $-1 $71 forward single #
loop $-1 $-1 $72 $28 #
plane-surface $-1 0 38.730220020719855 0 0 -1 0 0 0 -1 forward_v I I I I #
coedge $-1 $73 $74 $75 $76 forward $29 $-1 #
face $-1 $77 $78 $17 $-1 $79 forward single #
loop $-1 $-1 $80 $31 #
plane-surface $-1 0 -38.730220020719855 0 0 1 0 0 0 1 forward_v I I I I #
coedge $-1 $81 $82 $83 $84 forward $32 $-1 #
face $-1 $85 $86 $18 $-1 $87 reversed single #
loop $-1 $-1 $88 $34 #
plane-surface $-1 30.573566252889634 -14.097672370752449 57.373701833746495 0 0.73135370988377701 0.68199835119979291 1 0 0 forward_v I I I I #
coedge $-1 $89 $90 $91 $92 reversed $35 $-1 #
face $-1 $-1 $93 $19 $-1 $94 forward single #
loop $-1 $95 $96 $37 #
cone-surface $-1 30.573566252889634 33.096791535869102 2.1040895725564353 0 -0.73135370988377701 -0.68199835119979291 0.5 0 0 1 I I -0.70710678118654746 0.70710678118654746 0.5 forward I I I I #
loop $-1 $-1 $97 $24 #
coedge $-1 $60 $60 $98 $99 reversed $38 $-1 #
face $-1 $100 $101 $15 $-1 $102 reversed single #
loop $-1 $-1 $103 $40 #
plane-surface $-1 0 -38.730220020719855 0 0 1 0 0 0 1 forward_v I I I I #
coedge $-1 $104 $105 $106 $107 forward $41 $-1 #
coedge $-1 $108 $43 $109 $110 forward $26 $-1 #
coedge $-1 $43 $108 $111 $112 forward $26 $-1 #
coedge $-1 $113 $114 $43 $68 reversed $115 $-1 #
edge $-1 $116 -38.730220020719855 $117 38.730220020719855 $67 $118 forward 7 unknown #
face $-1 $119 $120 $16 $-1 $121 reversed single #
loop $-1 $-1 $75 $44 #
plane-surface $-1 -70.746046832101229 0 -2.0442012513123311 0 0 1 1 0 0 forward_v I I I I #
coedge $-1 $122 $123 $74 $124 forward $45 $-1 #
coedge $-1 $125 $47 $126 $127 reversed $29 $-1 #
coedge $-1 $47 $125 $72 $124 reversed $29 $-1 #
coedge $-1 $128 $129 $47 $76 reversed $70 $-1 #
edge $-1 $130 -38.730220020719855 $131 38.730220020719855 $75 $132 forward 7 unknown #
face $-1 $133 $134 $17 $-1 $135 reversed single #
loop $-1 $-1 $136 $48 #
plane-surface $-1 70.746046832101243 0 -2.0442012513123311 0 0 1 1 0 0 forward_v I I I I #
coedge $-1 $137 $138 $82 $139 forward $49 $-1 #
coedge $-1 $140 $51 $141 $142 reversed $32 $-1 #
coedge $-1 $51 $140 $80 $139 reversed $32 $-1 #
coedge $-1 $143 $144 $51 $84 reversed $78 $-1 #
edge $-1 $145 -38.730220020719855 $146 38.730220020719855 $83 $147 forward 7 unknown #
face $-1 $148 $149 $18 $-1 $150 reversed single #
loop $-1 $-1 $151 $52 #
plane-surface $-1 45.895723871919074 84.829149343022735 149.62445326420305 -1 0 0 0 0.73135370988377701 0.68199835119979291 forward_v I I I I #
coedge $-1 $152 $153 $154 $155 reversed $53 $-1 #
coedge $-1 $90 $55 $156 $157 reversed $35 $-1 #
coedge $-1 $55 $89 $152 $158 reversed $35 $-1 #
coedge $-1 $154 $159 $55 $92 forward $160 $-1 #
edge $-1 $161 3.6843546507915121 $162 10.302817880403154 $91 $163 forward 7 unknown #
loop $-1 $-1 $98 $56 #
plane-surface $-1 30.573566252889634 -14.097672370752449 57.373701833746495 0 0.73135370988377701 0.68199835119979291 1 0 0 forward_v I I I I #
loop $-1 $-1 $164 $37 #
coedge $-1 $96 $96 $97 $165 reversed $57 $-1 #
coedge $-1 $97 $97 $96 $165 forward $59 $-1 #
coedge $-1 $98 $98 $60 $99 forward $93 $-1 #
edge $-1 $166 -3.5069091583739096e-016 $166 6.2831853071796004 $98 $167 forward 7 unknown #
face $-1 $168 $169 $15 $-1 $170 reversed single #
loop $-1 $-1 $171 $61 #
plane-surface $-1 -67.632679219946894 0 0 1 0 0 0 0 -1 forward_v I I I I #
coedge $-1 $172 $111 $173 $174 forward $62 $-1 #
coedge $-1 $175 $64 $172 $176 forward $41 $-1 #
coedge $-1 $64 $175 $177 $178 forward $41 $-1 #
coedge $-1 $114 $113 $64 $107 reversed $115 $-1 #
edge $-1 $179 -38.730220020719855 $180 38.730220020719855 $106 $181 forward 7 unknown #
coedge $-1 $66 $65 $182 $183 forward $26 $-1 #
coedge $-1 $184 $185 $65 $110 reversed $169 $-1 #
edge $-1 $117 -67.632679219946894 $186 67.632679219946894 $109 $187 forward 7 unknown #
coedge $-1 $103 $188 $66 $112 reversed $62 $-1 #
edge $-1 $189 -67.632679219946894 $116 67.632679219946894 $111 $190 forward 7 unknown #
coedge $-1 $106 $67 $188 $191 forward $115 $-1 #
coedge $-1 $67 $106 $184 $192 reversed $115 $-1 #
loop $-1 $-1 $113 $168 #
vertex $-1 $68 $193 #
vertex $-1 $68 $194 #
straight-curve $-1 67.632679219946894 0 7.8201546885306756 0 1 0 I I #
face $-1 $195 $196 $16 $-1 $197 reversed single #
loop $-1 $-1 $198 $69 #
plane-surface $-1 -70.746046832101229 0 -5.0442012513123311 0 0 1 1 0 0 forward_v I I I I #
coedge $-1 $199 $72 $200 $201 reversed $45 $-1 #
coedge $-1 $72 $199 $128 $202 reversed $45 $-1 #
edge $-1 $130 2.0442012513123311 $203 5.0442012513123311 $72 $204 forward 7 unknown #
coedge $-1 $74 $73 $198 $205 forward $29 $-1 #
coedge $-1 $206 $207 $73 $127 forward $208 $-1 #
edge $-1 $209 -5.0442012513123311 $131 -2.0442012513123311 $126 $210 forward 7 unknown #
coedge $-1 $211 $75 $123 $202 forward $70 $-1 #
coedge $-1 $75 $211 $206 $212 forward $70 $-1 #
vertex $-1 $124 $213 #
vertex $-1 $212 $214 #
straight-curve $-1 -67.632679219946894 0 -2.0442012513123311 0 -1 0 I I #
face $-1 $215 $216 $17 $-1 $217 reversed single #
loop $-1 $-1 $218 $77 #
plane-surface $-1 70.746046832101243 0 -5.0442012513123311 0 0 1 1 0 0 forward_v I I I I #
coedge $-1 $144 $143 $219 $220 forward $78 $-1 #
coedge $-1 $221 $80 $222 $223 reversed $49 $-1 #
coedge $-1 $80 $221 $143 $224 reversed $49 $-1 #
edge $-1 $145 2.0442012513123311 $225 5.0442012513123311 $80 $226 forward 7 unknown #
coedge $-1 $82 $81 $227 $228 forward $32 $-1 #
coedge $-1 $229 $230 $81 $142 forward $231 $-1 #
edge $-1 $232 -5.0442012513123311 $146 -2.0442012513123311 $141 $233 forward 7 unknown #
coedge $-1 $136 $83 $138 $224 forward $78 $-1 #
coedge $-1 $83 $136 $229 $234 forward $78 $-1 #
vertex $-1 $139 $235 #
vertex $-1 $234 $236 #
straight-curve $-1 67.632679219946894 0 -2.0442012513123311 0 1 0 I I #
face $-1 $-1 $160 $18 $-1 $237 forward single #
loop $-1 $-1 $238 $85 #
plane-surface $-1 0 38.730220020719855 0 0 -1 0 0 0 -1 forward_v I I I I #
coedge $-1 $239 $240 $241 $242 reversed $86 $-1 #
coedge $-1 $243 $88 $90 $158 forward $53 $-1 #
coedge $-1 $88 $243 $239 $244 forward $53 $-1 #
coedge $-1 $241 $91 $88 $155 forward $160 $-1 #
edge $-1 $162 -0.035374492584622885 $245 30.608940745474257 $154 $246 forward 7 unknown #
coedge $-1 $247 $248 $89 $157 forward $149 $-1 #
edge $-1 $249 -74.089504991891829 $161 -66.992071943570849 $156 $250 forward 7 unknown #
edge $-1 $162 67.755925040826838 $249 77.460440041439711 $90 $251 forward 7 unknown #
coedge $-1 $91 $241 $247 $252 forward $160 $-1 #
loop $-1 $-1 $241 $148 #
vertex $-1 $157 $253 #
vertex $-1 $92 $254 #
straight-curve $-1 15.251408633860194 42.414574671511367 7.8201546885306783 0 -1 0 I I #
coedge $-1 $164 $164 $-1 $255 reversed $95 $-1 #
edge $-1 $256 0 $256 6.2831853071796004 $96 $257 forward 7 unknown #
vertex $-1 $99 $258 #
ellipse-curve $-1 30.573566252889634 35.420988405914031 4.2714381643701813 0 0.73135370988377701 0.68199835119979291 1 0 0 1 I I #
face $-1 $-1 $115 $15 $-1 $259 reversed single #
loop $-1 $-1 $184 $100 #
plane-surface $-1 0 38.730220020719855 0 0 -1 0 0 0 -1 forward_v I I I I #
coedge $-1 $260 $182 $185 $261 forward $101 $-1 #
coedge $-1 $188 $103 $104 $176 reversed $62 $-1 #
coedge $-1 $182 $260 $103 $174 reversed $101 $-1 #
edge $-1 $189 -7.8201546885306756 $262 7.8201546885306756 $173 $263 forward 7 unknown #
coedge $-1 $105 $104 $260 $264 forward $41 $-1 #
edge $-1 $180 -67.632679219946894 $262 67.632679219946894 $172 $265 forward 7 unknown #
coedge $-1 $185 $184 $105 $178 reversed $169 $-1 #
edge $-1 $266 -67.632679219946894 $179 67.632679219946894 $177 $267 forward 7 unknown #
vertex $-1 $107 $268 #
vertex $-1 $191 $269 #
straight-curve $-1 67.632679219946894 0 -7.8201546885306756 0 -1 0 I I #
coedge $-1 $171 $173 $108 $183 reversed $101 $-1 #
edge $-1 $186 -38.730220020719855 $189 38.730220020719855 $182 $270 forward 7 unknown #
coedge $-1 $177 $109 $114 $192 forward $169 $-1 #
coedge $-1 $109 $177 $171 $261 reversed $169 $-1 #
vertex $-1 $110 $271 #
straight-curve $-1 0 38.730220020719855 7.8201546885306756 -1 0 0 I I #
coedge $-1 $111 $172 $113 $191 reversed $62 $-1 #
vertex $-1 $183 $272 #
straight-curve $-1 0 -38.730220020719855 7.8201546885306756 1 0 0 I I #
edge $-1 $116 -7.8201546885306756 $180 7.8201546885306756 $113 $273 forward 7 unknown #
edge $-1 $117 -7.8201546885306756 $179 7.8201546885306756 $114 $274 forward 7 unknown #
point $-1 67.632679219946894 -38.730220020719855 7.8201546885306756 #
point $-1 67.632679219946894 38.730220020719855 7.8201546885306756 #
face $-1 $-1 $208 $16 $-1 $275 reversed single #
loop $-1 $-1 $276 $119 #
plane-surface $-1 -73.859414444255563 0 -3.5442012513123311 1 0 0 0 0 -1 forward_v I I I I #
coedge $-1 $277 $200 $125 $205 reversed $120 $-1 #
coedge $-1 $123 $122 $276 $278 reversed $45 $-1 #
coedge $-1 $198 $279 $122 $201 forward $120 $-1 #
edge $-1 $280 -3.1133676121543346 $203 3.1133676121543346 $122 $281 forward 7 unknown #
edge $-1 $130 -3.1133676121543346 $282 3.1133676121543346 $123 $283 forward 7 unknown #
vertex $-1 $124 $284 #
straight-curve $-1 -67.632679219946894 38.730220020719855 0 0 0 -1 I I #
edge $-1 $209 -38.730220020719855 $203 38.730220020719855 $198 $285 forward 7 unknown #
coedge $-1 $286 $126 $129 $212 reversed $208 $-1 #
coedge $-1 $126 $286 $277 $287 reversed $208 $-1 #
loop $-1 $-1 $126 $195 #
vertex $-1 $127 $288 #
straight-curve $-1 -67.632679219946894 -38.730220020719855 0 0 0 1 I I #
coedge $-1 $129 $128 $289 $290 forward $70 $-1 #
edge $-1 $291 -3.1133676121543346 $131 3.1133676121543346 $206 $292 forward 7 unknown #
point $-1 -67.632679219946894 38.730220020719855 -2.0442012513123311 #
point $-1 -67.632679219946894 -38.730220020719855 -2.0442012513123311 #
face $-1 $-1 $231 $17 $-1 $293 reversed single #
loop $-1 $-1 $294 $133 #
plane-surface $-1 73.859414444255577 0 -3.5442012513123311 -1 0 0 0 0 1 forward_v I I I I #
coedge $-1 $222 $295 $296 $297 forward $134 $-1 #
coedge $-1 $294 $298 $136 $220 reversed $216 $-1 #
edge $-1 $299 -38.730220020719855 $300 38.730220020719855 $219 $301 forward 7 unknown #
coedge $-1 $138 $137 $294 $302 reversed $49 $-1 #
coedge $-1 $227 $218 $137 $223 forward $134 $-1 #
edge $-1 $303 -3.1133676121543346 $225 3.1133676121543346 $137 $304 forward 7 unknown #
edge $-1 $145 -3.1133676121543346 $299 3.1133676121543346 $138 $305 forward 7 unknown #
vertex $-1 $139 $306 #
straight-curve $-1 67.632679219946894 -38.730220020719855 0 0 0 -1 I I #
coedge $-1 $295 $222 $140 $228 reversed $134 $-1 #
edge $-1 $232 -38.730220020719855 $225 38.730220020719855 $227 $307 forward 7 unknown #
coedge $-1 $308 $141 $144 $234 reversed $231 $-1 #
coedge $-1 $141 $308 $295 $309 reversed $231 $-1 #
loop $-1 $-1 $141 $215 #
vertex $-1 $142 $310 #
straight-curve $-1 67.632679219946894 38.730220020719855 0 0 0 1 I I #
edge $-1 $300 -3.1133676121543346 $146 3.1133676121543346 $229 $311 forward 7 unknown #
point $-1 67.632679219946908 -38.730220020719855 -2.0442012513123311 #
point $-1 67.632679219946908 38.730220020719855 -2.0442012513123311 #
plane-surface $-1 0 0 7.8201546885306756 0 0 1 1 0 0 forward_v I I I I #
coedge $-1 $248 $247 $240 $312 forward $149 $-1 #
coedge $-1 $240 $151 $153 $244 reversed $86 $-1 #
coedge $-1 $151 $239 $238 $312 reversed $86 $-1 #
coedge $-1 $159 $154 $151 $242 forward $160 $-1 #
edge $-1 $245 -10.302817880403154 $313 -3.6843546507915121 $241 $314 forward 7 unknown #
coedge $-1 $153 $152 $248 $315 reversed $53 $-1 #
edge $-1 $316 -77.460440041439711 $245 -67.755925040826838 $239 $317 forward 7 unknown #
vertex $-1 $155 $318 #
straight-curve $-1 15.286783126444817 32.11175679110822 7.8201546885306783 1 0 0 I I #
coedge $-1 $238 $156 $159 $252 reversed $149 $-1 #
coedge $-1 $156 $238 $243 $315 forward $149 $-1 #
vertex $-1 $157 $319 #
straight-curve $-1 15.251408633860194 38.730220020719855 74.812226632101527 0 0 1 I I #
straight-curve $-1 15.251408633860194 -14.097672370752449 57.373701833746495 0 0.68199835119979291 -0.73135370988377701 I I #
edge $-1 $313 -45.895723871919074 $161 -15.251408633860194 $247 $320 forward 7 unknown #
point $-1 15.251408633860194 38.730220020719855 7.8201546885306756 #
point $-1 15.251408633860194 32.111756791108213 7.8201546885306783 #
edge $-1 $321 1 $321 0 $164 $-1 forward 7 unknown #
vertex $-1 $165 $322 #
ellipse-curve $-1 30.573566252889634 33.46246839081099 2.4450887481563317 0 0.73135370988377701 0.68199835119979291 1 0 0 1 I I #
point $-1 31.573566252889634 35.420988405914038 4.2714381643701884 #
plane-surface $-1 67.632679219946894 0 0 -1 0 0 0 0 1 forward_v I I I I #
coedge $-1 $173 $171 $175 $264 reversed $101 $-1 #
edge $-1 $186 -7.8201546885306756 $266 7.8201546885306756 $185 $323 forward 7 unknown #
vertex $-1 $264 $324 #
straight-curve $-1 -67.632679219946894 -38.730220020719855 0 0 0 -1 I I #
edge $-1 $262 -38.730220020719855 $266 38.730220020719855 $260 $325 forward 7 unknown #
straight-curve $-1 0 -38.730220020719855 -7.8201546885306756 -1 0 0 I I #
vertex $-1 $178 $326 #
straight-curve $-1 0 38.730220020719855 -7.8201546885306756 1 0 0 I I #
point $-1 67.632679219946894 38.730220020719855 -7.8201546885306756 #
point $-1 67.632679219946894 -38.730220020719855 -7.8201546885306756 #
straight-curve $-1 -67.632679219946894 0 7.8201546885306756 0 -1 0 I I #
point $-1 -67.632679219946894 38.730220020719855 7.8201546885306756 #
point $-1 -67.632679219946894 -38.730220020719855 7.8201546885306756 #
straight-curve $-1 67.632679219946894 -38.730220020719855 0 0 0 -1 I I #
straight-curve $-1 67.632679219946894 38.730220020719855 0 0 0 -1 I I #
plane-surface $-1 0 -38.730220020719855 0 0 1 0 0 0 1 forward_v I I I I #
coedge $-1 $327 $289 $199 $278 forward $196 $-1 #
coedge $-1 $279 $198 $207 $287 forward $120 $-1 #
edge $-1 $282 -1.5 $280 1.5 $199 $328 forward 7 unknown #
coedge $-1 $200 $277 $327 $329 forward $120 $-1 #
vertex $-1 $201 $330 #
straight-curve $-1 -70.746046832101229 38.730220020719855 -5.0442012513123311 1 0 0 I I #
vertex $-1 $202 $331 #
straight-curve $-1 -70.746046832101229 38.730220020719855 -2.0442012513123311 -1 0 0 I I #
point $-1 -67.632679219946894 38.730220020719855 -5.0442012513123311 #
straight-curve $-1 -67.632679219946894 0 -5.0442012513123311 0 1 0 I I #
coedge $-1 $207 $206 $332 $333 forward $208 $-1 #
edge $-1 $209 -3.1133676121543346 $334 3.1133676121543346 $207 $335 forward 7 unknown #
point $-1 -67.632679219946894 -38.730220020719855 -5.0442012513123311 #
coedge $-1 $276 $332 $211 $290 reversed $196 $-1 #
edge $-1 $282 -38.730220020719855 $291 38.730220020719855 $289 $336 forward 7 unknown #
vertex $-1 $290 $337 #
straight-curve $-1 -70.746046832101229 -38.730220020719855 -2.0442012513123311 1 0 0 I I #
plane-surface $-1 0 38.730220020719855 0 0 -1 0 0 0 -1 forward_v I I I I #
coedge $-1 $296 $219 $221 $302 forward $216 $-1 #
coedge $-1 $218 $227 $230 $309 forward $134 $-1 #
coedge $-1 $298 $294 $218 $297 reversed $216 $-1 #
edge $-1 $338 -38.730220020719855 $303 38.730220020719855 $296 $339 forward 7 unknown #
coedge $-1 $219 $296 $308 $340 reversed $216 $-1 #
vertex $-1 $220 $341 #
vertex $-1 $220 $342 #
straight-curve $-1 73.859414444255577 0 -2.0442012513123311 0 1 0 I I #
edge $-1 $299 -1.5 $303 1.5 $294 $343 forward 7 unknown #
vertex $-1 $302 $344 #
straight-curve $-1 70.746046832101243 -38.730220020719855 -5.0442012513123311 -1 0 0 I I #
straight-curve $-1 70.746046832101243 -38.730220020719855 -2.0442012513123311 1 0 0 I I #
point $-1 67.632679219946908 -38.730220020719855 -5.0442012513123311 #
straight-curve $-1 67.632679219946894 0 -5.0442012513123311 0 -1 0 I I #
coedge $-1 $230 $229 $298 $340 forward $231 $-1 #
edge $-1 $232 -3.1133676121543346 $338 3.1133676121543346 $230 $345 forward 7 unknown #
point $-1 67.632679219946908 38.730220020719855 -5.0442012513123311 #
straight-curve $-1 70.746046832101243 38.730220020719855 -2.0442012513123311 -1 0 0 I I #
edge $-1 $313 66.992071943570849 $316 74.089504991891829 $238 $346 forward 7 unknown #
vertex $-1 $252 $347 #
straight-curve $-1 45.895723871919074 42.414574671511367 7.8201546885306783 0 1 0 I I #
edge $-1 $316 -30.608940745474257 $249 0.035374492584622885 $248 $348 forward 7 unknown #
vertex $-1 $315 $349 #
straight-curve $-1 45.895723871919074 -14.097672370752449 57.373701833746495 0 -0.68199835119979291 0.73135370988377701 I I #
point $-1 45.895723871919074 32.111756791108213 7.8201546885306783 #
point $-1 15.251408633860194 38.730220020719855 0.72272164020969143 #
straight-curve $-1 0 38.730220020719855 7.8201546885306756 -1 0 0 I I #
vertex $-1 $255 $350 #
point $-1 31.573566252889634 33.46246839081099 2.4450887481563317 #
straight-curve $-1 -67.632679219946894 38.730220020719855 0 0 0 -1 I I #
point $-1 -67.632679219946894 -38.730220020719855 -7.8201546885306756 #
straight-curve $-1 -67.632679219946894 0 -7.8201546885306756 0 1 0 I I #
point $-1 -67.632679219946894 38.730220020719855 -7.8201546885306756 #
coedge $-1 $332 $276 $279 $329 reversed $196 $-1 #
straight-curve $-1 -73.859414444255563 38.730220020719855 -3.5442012513123311 0 0 -1 I I #
edge $-1 $334 -38.730220020719855 $280 38.730220020719855 $327 $351 forward 7 unknown #
point $-1 -73.859414444255563 38.730220020719855 -5.0442012513123311 #
point $-1 -73.859414444255563 38.730220020719855 -2.0442012513123311 #
coedge $-1 $289 $327 $286 $333 reversed $196 $-1 #
edge $-1 $291 -1.5 $334 1.5 $332 $352 forward 7 unknown #
vertex $-1 $329 $353 #
straight-curve $-1 -70.746046832101229 -38.730220020719855 -5.0442012513123311 -1 0 0 I I #
straight-curve $-1 -73.859414444255563 0 -2.0442012513123311 0 -1 0 I I #
point $-1 -73.859414444255563 -38.730220020719855 -2.0442012513123311 #
vertex $-1 $297 $354 #
straight-curve $-1 73.859414444255577 0 -5.0442012513123311 0 -1 0 I I #
edge $-1 $300 -1.5 $338 1.5 $298 $355 forward 7 unknown #
point $-1 73.859414444255577 -38.730220020719855 -2.0442012513123311 #
point $-1 73.859414444255577 38.730220020719855 -2.0442012513123311 #
straight-curve $-1 73.859414444255577 -38.730220020719855 -3.5442012513123311 0 0 -1 I I #
point $-1 73.859414444255577 -38.730220020719855 -5.0442012513123311 #
straight-curve $-1 70.746046832101243 38.730220020719855 -5.0442012513123311 1 0 0 I I #
straight-curve $-1 45.895723871919074 38.730220020719855 74.812226632101527 0 0 -1 I I #
point $-1 45.895723871919074 38.730220020719855 7.8201546885306756 #
straight-curve $-1 15.286783126444817 38.730220020719855 0.72272164020968788 -1 0 0 I I #
point $-1 45.895723871919074 38.730220020719855 0.72272164020969143 #
point $-1 30.573566252889634 32.731114680927213 1.7630903969565388 #
straight-curve $-1 -73.859414444255563 0 -5.0442012513123311 0 1 0 I I #
straight-curve $-1 -73.859414444255563 -38.730220020719855 -3.5442012513123311 0 0 -1 I I #
point $-1 -73.859414444255563 -38.730220020719855 -5.0442012513123311 #
point $-1 73.859414444255577 38.730220020719855 -5.0442012513123311 #
straight-curve $-1 73.859414444255577 38.730220020719855 -3.5442012513123311 0 0 -1 I I #
End-of-ACIS-data 