500 0 14 0           
7 Unknown 11 ACIS 5.0 NT 24 Fri Mar 26 02:34:15 1999 
-1 9.9999999999999995e-007 1e-010 
body $-1 $14 $-1 $15 #
body $-1 $16 $-1 $17 #
body $-1 $18 $-1 $19 #
body $-1 $20 $-1 $21 #
body $-1 $22 $-1 $23 #
body $-1 $24 $-1 $25 #
body $-1 $26 $-1 $27 #
body $-1 $28 $-1 $29 #
body $-1 $30 $-1 $31 #
body $-1 $32 $-1 $33 #
body $-1 $34 $-1 $35 #
body $-1 $36 $-1 $37 #
body $-1 $38 $-1 $39 #
body $-1 $40 $-1 $41 #
lump $-1 $-1 $42 $0 #
transform $-1 1 0 0 0 1 0 0 0 1 48.603778191473126 23.369477371405377 11.006697908793143 1 rotate no_reflect no_shear #
lump $-1 $-1 $43 $1 #
transform $-1 1 0 0 0 1 0 0 0 1 48.603778191473126 23.369477371405377 11.006697908793143 1 rotate no_reflect no_shear #
lump $-1 $-1 $44 $2 #
transform $-1 1 0 0 0 1 0 0 0 1 48.603778191473126 23.369477371405377 11.006697908793143 1 rotate no_reflect no_shear #
lump $-1 $-1 $45 $3 #
transform $-1 1 0 0 0 1 0 0 0 1 48.603778191473126 23.369477371405377 11.006697908793143 1 rotate no_reflect no_shear #
lump $-1 $-1 $46 $4 #
transform $-1 1 0 0 0 1 0 0 0 1 48.603778191473126 23.369477371405377 11.006697908793143 1 rotate no_reflect no_shear #
lump $-1 $-1 $47 $5 #
transform $-1 1 0 0 0 1 0 0 0 1 48.603778191473126 23.369477371405377 11.006697908793143 1 rotate no_reflect no_shear #
lump $-1 $-1 $48 $6 #
transform $-1 1 0 0 0 1 0 0 0 1 48.603778191473126 23.369477371405377 11.006697908793143 1 rotate no_reflect no_shear #
lump $-1 $-1 $49 $7 #
transform $-1 1 0 0 0 1 0 0 0 1 48.603778191473126 23.369477371405377 11.006697908793143 1 rotate no_reflect no_shear #
lump $-1 $-1 $50 $8 #
transform $-1 1 0 0 0 1 0 0 0 1 48.603778191473126 23.369477371405377 11.006697908793143 1 rotate no_reflect no_shear #
lump $-1 $-1 $51 $9 #
transform $-1 1 0 0 0 1 0 0 0 1 48.603778191473126 23.369477371405377 11.006697908793143 1 rotate no_reflect no_shear #
lump $-1 $-1 $52 $10 #
transform $-1 1 0 0 0 1 0 0 0 1 48.603778191473126 23.369477371405377 11.006697908793143 1 rotate no_reflect no_shear #
lump $-1 $-1 $53 $11 #
transform $-1 1 0 0 0 1 0 0 0 1 48.603778191473126 23.369477371405377 11.006697908793143 1 rotate no_reflect no_shear #
lump $-1 $-1 $54 $12 #
transform $-1 1 0 0 0 1 0 0 0 1 48.603778191473126 23.369477371405377 11.006697908793143 1 rotate no_reflect no_shear #
lump $-1 $-1 $55 $13 #
transform $-1 1 0 0 0 1 0 0 0 1 48.603778191473126 23.369477371405377 11.006697908793143 1 rotate no_reflect no_shear #
shell $-1 $-1 $-1 $56 $-1 $14 #
shell $-1 $-1 $-1 $57 $-1 $16 #
shell $-1 $-1 $-1 $58 $-1 $18 #
shell $-1 $-1 $-1 $59 $-1 $20 #
shell $-1 $-1 $-1 $60 $-1 $22 #
shell $-1 $-1 $-1 $61 $-1 $24 #
shell $-1 $-1 $-1 $62 $-1 $26 #
shell $-1 $-1 $-1 $63 $-1 $28 #
shell $-1 $-1 $-1 $64 $-1 $30 #
shell $-1 $-1 $-1 $65 $-1 $32 #
shell $-1 $-1 $-1 $66 $-1 $34 #
shell $-1 $-1 $-1 $67 $-1 $36 #
shell $-1 $-1 $-1 $68 $-1 $38 #
shell $-1 $-1 $-1 $69 $-1 $40 #
face $-1 $70 $71 $42 $-1 $72 forward single #
face $-1 $73 $74 $43 $-1 $75 reversed single #
face $-1 $76 $77 $44 $-1 $78 reversed single #
face $-1 $79 $80 $45 $-1 $81 forward single #
face $-1 $82 $83 $46 $-1 $84 forward single #
face $-1 $85 $86 $47 $-1 $87 reversed single #
face $-1 $88 $89 $48 $-1 $90 forward single #
face $-1 $91 $92 $49 $-1 $93 forward single #
face $-1 $94 $95 $50 $-1 $96 reversed single #
face $-1 $97 $98 $51 $-1 $99 forward single #
face $-1 $100 $101 $52 $-1 $102 forward single #
face $-1 $103 $104 $53 $-1 $105 reversed single #
face $-1 $106 $107 $54 $-1 $108 forward single #
face $-1 $109 $110 $55 $-1 $111 forward single #
face $-1 $112 $113 $42 $-1 $114 reversed single #
loop $-1 $-1 $115 $56 #
plane-surface $-1 0 0 11.006697908793143 0 0 1 1 0 0 forward_v I I I I #
face $-1 $116 $117 $43 $-1 $118 reversed single #
loop $-1 $-1 $119 $57 #
plane-surface $-1 -42.197122006226678 -19.414805444892288 0 1 0 0 0 0 -1 forward_v I I I I #
face $-1 $120 $121 $44 $-1 $122 reversed single #
loop $-1 $-1 $123 $58 #
plane-surface $-1 -39.05056529013185 81.038289348721193 96.446843728924819 1 0 0 0 -0.84804810408105047 -0.52991925155115449 forward_v I I I I #
face $-1 $124 $125 $45 $-1 $126 forward single #
loop $-1 $127 $128 $59 #
cone-surface $-1 -36.029413143114205 19.995204191096899 7.1583239706878263 0 -0.84804810408105047 -0.52991925155115449 1 0 0 1 I I 0 1 1 forward I I I I #
face $-1 $129 $130 $46 $-1 $131 forward single #
loop $-1 $132 $133 $60 #
cone-surface $-1 -31.497684922587741 19.995204191096899 7.1583239706878263 0 -0.84804810408105047 -0.52991925155115449 1 0 0 1 I I 0 1 1 forward I I I I #
face $-1 $134 $135 $47 $-1 $136 reversed single #
loop $-1 $-1 $137 $61 #
plane-surface $-1 -16.541532601564533 81.038289348721193 96.446843728924819 1 0 0 0 -0.84804810408105047 -0.52991925155115449 forward_v I I I I #
face $-1 $138 $139 $48 $-1 $140 forward single #
loop $-1 $141 $142 $62 #
cone-surface $-1 -13.520380454546888 19.995204191096899 7.1583239706878263 0 -0.84804810408105047 -0.52991925155115449 1 0 0 1 I I 0 1 1 forward I I I I #
face $-1 $143 $144 $49 $-1 $145 forward single #
loop $-1 $146 $147 $63 #
cone-surface $-1 -8.9886522340204209 19.995204191096899 7.1583239706878263 0 -0.84804810408105047 -0.52991925155115449 1 0 0 1 I I 0 1 1 forward I I I I #
face $-1 $148 $149 $50 $-1 $150 reversed single #
loop $-1 $-1 $151 $64 #
plane-surface $-1 5.967500087002783 81.038289348721193 96.446843728924819 1 0 0 0 -0.84804810408105047 -0.52991925155115449 forward_v I I I I #
face $-1 $152 $153 $51 $-1 $154 forward single #
loop $-1 $155 $156 $65 #
cone-surface $-1 8.988652234020428 19.995204191096899 7.1583239706878263 0 -0.84804810408105047 -0.52991925155115449 1 0 0 1 I I 0 1 1 forward I I I I #
face $-1 $157 $158 $52 $-1 $159 forward single #
loop $-1 $160 $161 $66 #
cone-surface $-1 13.520380454546896 19.995204191096899 7.1583239706878263 0 -0.84804810408105047 -0.52991925155115449 1 0 0 1 I I 0 1 1 forward I I I I #
face $-1 $162 $163 $53 $-1 $164 reversed single #
loop $-1 $-1 $165 $67 #
plane-surface $-1 28.476532775570099 81.038289348721193 96.446843728924819 1 0 0 0 -0.84804810408105047 -0.52991925155115449 forward_v I I I I #
face $-1 $166 $167 $54 $-1 $168 forward single #
loop $-1 $169 $170 $68 #
cone-surface $-1 31.497684922587737 19.995204191096899 7.1583239706878263 0 -0.84804810408105047 -0.52991925155115449 1 0 0 1 I I 0 1 1 forward I I I I #
face $-1 $171 $172 $55 $-1 $173 forward single #
loop $-1 $174 $175 $69 #
cone-surface $-1 36.029413143114212 19.995204191096899 7.1583239706878263 0 -0.84804810408105047 -0.52991925155115449 1 0 0 1 I I 0 1 1 forward I I I I #
face $-1 $176 $177 $42 $-1 $178 reversed single #
loop $-1 $-1 $179 $70 #
plane-surface $-1 0 0 -11.006697908793143 0 0 1 1 0 0 forward_v I I I I #
coedge $-1 $180 $181 $182 $183 forward $71 $-1 #
face $-1 $184 $185 $43 $-1 $186 reversed single #
loop $-1 $-1 $187 $73 #
plane-surface $-1 -40.697122006226678 -15.460133518379198 0 0 -1 0 0 0 -1 forward_v I I I I #
coedge $-1 $188 $189 $190 $191 forward $74 $-1 #
face $-1 $192 $193 $44 $-1 $194 reversed single #
loop $-1 $-1 $195 $76 #
plane-surface $-1 -33.763549032850975 -1.3983945441881929 44.93468820535729 0 0.84804810408105047 0.52991925155115449 1 0 0 forward_v I I I I #
coedge $-1 $196 $197 $198 $199 reversed $77 $-1 #
face $-1 $-1 $200 $45 $-1 $201 forward single #
loop $-1 $202 $203 $79 #
cone-surface $-1 -36.029413143114205 17.980562615185857 5.8994362367101978 0 -0.84804810408105047 -0.52991925155115449 0.5 0 0 1 I I -0.70710678118654746 0.70710678118654746 0.5 forward I I I I #
loop $-1 $-1 $204 $59 #
coedge $-1 $128 $128 $205 $206 reversed $80 $-1 #
face $-1 $-1 $207 $46 $-1 $208 forward single #
loop $-1 $209 $210 $82 #
cone-surface $-1 -31.497684922587741 17.980562615185857 5.8994362367101978 0 -0.84804810408105047 -0.52991925155115449 0.5 0 0 1 I I -0.70710678118654746 0.70710678118654746 0.5 forward I I I I #
loop $-1 $-1 $211 $60 #
coedge $-1 $133 $133 $212 $213 reversed $83 $-1 #
face $-1 $214 $215 $47 $-1 $216 reversed single #
loop $-1 $-1 $217 $85 #
plane-surface $-1 -11.254516344283658 -1.3983945441881929 44.93468820535729 0 0.84804810408105047 0.52991925155115449 1 0 0 forward_v I I I I #
coedge $-1 $218 $219 $220 $221 reversed $86 $-1 #
face $-1 $-1 $222 $48 $-1 $223 forward single #
loop $-1 $224 $225 $88 #
cone-surface $-1 -13.520380454546888 17.980562615185857 5.8994362367101978 0 -0.84804810408105047 -0.52991925155115449 0.5 0 0 1 I I -0.70710678118654746 0.70710678118654746 0.5 forward I I I I #
loop $-1 $-1 $226 $62 #
coedge $-1 $142 $142 $227 $228 reversed $89 $-1 #
face $-1 $-1 $229 $49 $-1 $230 forward single #
loop $-1 $231 $232 $91 #
cone-surface $-1 -8.9886522340204209 17.980562615185857 5.8994362367101978 0 -0.84804810408105047 -0.52991925155115449 0.5 0 0 1 I I -0.70710678118654746 0.70710678118654746 0.5 forward I I I I #
loop $-1 $-1 $233 $63 #
coedge $-1 $147 $147 $234 $235 reversed $92 $-1 #
face $-1 $236 $237 $50 $-1 $238 reversed single #
loop $-1 $-1 $239 $94 #
plane-surface $-1 11.254516344283658 -1.3983945441881929 44.93468820535729 0 0.84804810408105047 0.52991925155115449 1 0 0 forward_v I I I I #
coedge $-1 $240 $241 $242 $243 reversed $95 $-1 #
face $-1 $-1 $244 $51 $-1 $245 forward single #
loop $-1 $246 $247 $97 #
cone-surface $-1 8.988652234020428 17.980562615185857 5.8994362367101978 0 -0.84804810408105047 -0.52991925155115449 0.5 0 0 1 I I -0.70710678118654746 0.70710678118654746 0.5 forward I I I I #
loop $-1 $-1 $248 $65 #
coedge $-1 $156 $156 $249 $250 reversed $98 $-1 #
face $-1 $-1 $251 $52 $-1 $252 forward single #
loop $-1 $253 $254 $100 #
cone-surface $-1 13.520380454546896 17.980562615185857 5.8994362367101978 0 -0.84804810408105047 -0.52991925155115449 0.5 0 0 1 I I -0.70710678118654746 0.70710678118654746 0.5 forward I I I I #
loop $-1 $-1 $255 $66 #
coedge $-1 $161 $161 $256 $257 reversed $101 $-1 #
face $-1 $258 $259 $53 $-1 $260 reversed single #
loop $-1 $-1 $261 $103 #
plane-surface $-1 33.763549032850975 -1.3983945441881929 44.93468820535729 0 0.84804810408105047 0.52991925155115449 1 0 0 forward_v I I I I #
coedge $-1 $262 $263 $264 $265 reversed $104 $-1 #
face $-1 $-1 $266 $54 $-1 $267 forward single #
loop $-1 $268 $269 $106 #
cone-surface $-1 31.497684922587737 17.980562615185857 5.8994362367101978 0 -0.84804810408105047 -0.52991925155115449 0.5 0 0 1 I I -0.70710678118654746 0.70710678118654746 0.5 forward I I I I #
loop $-1 $-1 $270 $68 #
coedge $-1 $170 $170 $271 $272 reversed $107 $-1 #
face $-1 $-1 $273 $55 $-1 $274 forward single #
loop $-1 $275 $276 $109 #
cone-surface $-1 36.029413143114212 17.980562615185857 5.8994362367101978 0 -0.84804810408105047 -0.52991925155115449 0.5 0 0 1 I I -0.70710678118654746 0.70710678118654746 0.5 forward I I I I #
loop $-1 $-1 $277 $69 #
coedge $-1 $175 $175 $278 $279 reversed $110 $-1 #
face $-1 $280 $281 $42 $-1 $282 reversed single #
loop $-1 $-1 $283 $112 #
plane-surface $-1 0 -23.369477371405377 0 0 1 0 0 0 1 forward_v I I I I #
coedge $-1 $284 $285 $286 $287 forward $113 $-1 #
coedge $-1 $288 $115 $289 $290 forward $71 $-1 #
coedge $-1 $115 $288 $291 $292 forward $71 $-1 #
coedge $-1 $293 $294 $115 $183 reversed $295 $-1 #
edge $-1 $296 -23.369477371405377 $297 23.369477371405377 $182 $298 forward 7 unknown #
face $-1 $299 $300 $43 $-1 $301 forward single #
loop $-1 $-1 $302 $116 #
plane-surface $-1 -39.197122006226678 -19.414805444892288 0 -1 0 0 0 0 1 forward_v I I I I #
coedge $-1 $303 $304 $305 $306 forward $117 $-1 #
coedge $-1 $307 $119 $308 $309 reversed $74 $-1 #
coedge $-1 $119 $307 $310 $311 reversed $74 $-1 #
coedge $-1 $304 $303 $119 $191 reversed $117 $-1 #
edge $-1 $312 -11.006697908793143 $313 11.006697908793143 $190 $314 forward 7 unknown #
face $-1 $315 $316 $44 $-1 $317 reversed single #
loop $-1 $-1 $318 $120 #
plane-surface $-1 -28.476532775570099 81.038289348721193 96.446843728924819 -1 0 0 0 0.84804810408105047 0.52991925155115449 forward_v I I I I #
coedge $-1 $319 $320 $321 $322 reversed $121 $-1 #
coedge $-1 $197 $123 $323 $324 reversed $77 $-1 #
coedge $-1 $123 $196 $319 $325 reversed $77 $-1 #
coedge $-1 $321 $326 $123 $199 forward $327 $-1 #
edge $-1 $328 17.149667302955219 $329 20.716978615831152 $198 $330 forward 7 unknown #
loop $-1 $-1 $205 $124 #
plane-surface $-1 -33.763549032850975 -1.3983945441881929 44.93468820535729 0 0.84804810408105047 0.52991925155115449 1 0 0 forward_v I I I I #
loop $-1 $-1 $331 $79 #
coedge $-1 $203 $203 $204 $332 reversed $125 $-1 #
coedge $-1 $204 $204 $203 $332 forward $127 $-1 #
coedge $-1 $205 $205 $128 $206 forward $200 $-1 #
edge $-1 $333 -7.5400540218334812e-016 $333 6.2831853071795996 $205 $334 forward 7 unknown #
loop $-1 $-1 $212 $129 #
plane-surface $-1 -33.763549032850975 -1.3983945441881929 44.93468820535729 0 0.84804810408105047 0.52991925155115449 1 0 0 forward_v I I I I #
loop $-1 $-1 $335 $82 #
coedge $-1 $210 $210 $211 $336 reversed $130 $-1 #
coedge $-1 $211 $211 $210 $336 forward $132 $-1 #
coedge $-1 $212 $212 $133 $213 forward $207 $-1 #
edge $-1 $337 -7.5400540218334812e-016 $337 6.2831853071795996 $212 $338 forward 7 unknown #
face $-1 $339 $340 $47 $-1 $341 forward single #
loop $-1 $-1 $342 $134 #
plane-surface $-1 -5.967500087002783 81.038289348721193 96.446843728924819 -1 0 0 0 0.84804810408105047 0.52991925155115449 forward_v I I I I #
coedge $-1 $343 $344 $345 $346 reversed $135 $-1 #
coedge $-1 $219 $137 $347 $348 reversed $86 $-1 #
coedge $-1 $137 $218 $343 $349 reversed $86 $-1 #
coedge $-1 $345 $350 $137 $221 forward $340 $-1 #
edge $-1 $351 17.149667302955219 $352 20.716978615831152 $220 $353 forward 7 unknown #
loop $-1 $-1 $227 $138 #
plane-surface $-1 -11.254516344283658 -1.3983945441881929 44.93468820535729 0 0.84804810408105047 0.52991925155115449 1 0 0 forward_v I I I I #
loop $-1 $-1 $354 $88 #
coedge $-1 $225 $225 $226 $355 reversed $139 $-1 #
coedge $-1 $226 $226 $225 $355 forward $141 $-1 #
coedge $-1 $227 $227 $142 $228 forward $222 $-1 #
edge $-1 $356 -7.5400540218334812e-016 $356 6.2831853071795996 $227 $357 forward 7 unknown #
loop $-1 $-1 $234 $143 #
plane-surface $-1 -11.254516344283658 -1.3983945441881929 44.93468820535729 0 0.84804810408105047 0.52991925155115449 1 0 0 forward_v I I I I #
loop $-1 $-1 $358 $91 #
coedge $-1 $232 $232 $233 $359 reversed $144 $-1 #
coedge $-1 $233 $233 $232 $359 forward $146 $-1 #
coedge $-1 $234 $234 $147 $235 forward $229 $-1 #
edge $-1 $360 -7.5400540218334812e-016 $360 6.2831853071795996 $234 $361 forward 7 unknown #
face $-1 $362 $363 $50 $-1 $364 forward single #
loop $-1 $-1 $365 $148 #
plane-surface $-1 16.541532601564533 81.038289348721193 96.446843728924819 -1 0 0 0 0.84804810408105047 0.52991925155115449 forward_v I I I I #
coedge $-1 $366 $367 $368 $369 reversed $149 $-1 #
coedge $-1 $241 $151 $370 $371 reversed $95 $-1 #
coedge $-1 $151 $240 $366 $372 reversed $95 $-1 #
coedge $-1 $368 $373 $151 $243 forward $363 $-1 #
edge $-1 $374 17.149667302955219 $375 20.716978615831152 $242 $376 forward 7 unknown #
loop $-1 $-1 $249 $152 #
plane-surface $-1 11.254516344283658 -1.3983945441881929 44.93468820535729 0 0.84804810408105047 0.52991925155115449 1 0 0 forward_v I I I I #
loop $-1 $-1 $377 $97 #
coedge $-1 $247 $247 $248 $378 reversed $153 $-1 #
coedge $-1 $248 $248 $247 $378 forward $155 $-1 #
coedge $-1 $249 $249 $156 $250 forward $244 $-1 #
edge $-1 $379 -7.5400540218334812e-016 $379 6.2831853071795996 $249 $380 forward 7 unknown #
loop $-1 $-1 $256 $157 #
plane-surface $-1 11.254516344283658 -1.3983945441881929 44.93468820535729 0 0.84804810408105047 0.52991925155115449 1 0 0 forward_v I I I I #
loop $-1 $-1 $381 $100 #
coedge $-1 $254 $254 $255 $382 reversed $158 $-1 #
coedge $-1 $255 $255 $254 $382 forward $160 $-1 #
coedge $-1 $256 $256 $161 $257 forward $251 $-1 #
edge $-1 $383 -7.5400540218334812e-016 $383 6.2831853071795996 $256 $384 forward 7 unknown #
face $-1 $385 $386 $53 $-1 $387 forward single #
loop $-1 $-1 $388 $162 #
plane-surface $-1 39.05056529013185 81.038289348721193 96.446843728924819 -1 0 0 0 0.84804810408105047 0.52991925155115449 forward_v I I I I #
coedge $-1 $389 $390 $391 $392 reversed $163 $-1 #
coedge $-1 $263 $165 $393 $394 reversed $104 $-1 #
coedge $-1 $165 $262 $389 $395 reversed $104 $-1 #
coedge $-1 $391 $396 $165 $265 forward $386 $-1 #
edge $-1 $397 17.149667302955219 $398 20.716978615831152 $264 $399 forward 7 unknown #
loop $-1 $-1 $271 $166 #
plane-surface $-1 33.763549032850975 -1.3983945441881929 44.93468820535729 0 0.84804810408105047 0.52991925155115449 1 0 0 forward_v I I I I #
loop $-1 $-1 $400 $106 #
coedge $-1 $269 $269 $270 $401 reversed $167 $-1 #
coedge $-1 $270 $270 $269 $401 forward $169 $-1 #
coedge $-1 $271 $271 $170 $272 forward $266 $-1 #
edge $-1 $402 -7.5400540218334812e-016 $402 6.2831853071795996 $271 $403 forward 7 unknown #
loop $-1 $-1 $278 $171 #
plane-surface $-1 33.763549032850975 -1.3983945441881929 44.93468820535729 0 0.84804810408105047 0.52991925155115449 1 0 0 forward_v I I I I #
loop $-1 $-1 $404 $109 #
coedge $-1 $276 $276 $277 $405 reversed $172 $-1 #
coedge $-1 $277 $277 $276 $405 forward $174 $-1 #
coedge $-1 $278 $278 $175 $279 forward $273 $-1 #
edge $-1 $406 -7.5400540218334812e-016 $406 6.2831853071795996 $278 $407 forward 7 unknown #
face $-1 $408 $409 $42 $-1 $410 reversed single #
loop $-1 $-1 $411 $176 #
plane-surface $-1 -48.603778191473126 0 0 1 0 0 0 0 -1 forward_v I I I I #
coedge $-1 $412 $291 $413 $414 forward $177 $-1 #
coedge $-1 $415 $179 $412 $416 forward $113 $-1 #
coedge $-1 $179 $415 $417 $418 forward $113 $-1 #
coedge $-1 $294 $293 $179 $287 reversed $295 $-1 #
edge $-1 $419 -23.369477371405377 $420 23.369477371405377 $286 $421 forward 7 unknown #
coedge $-1 $181 $180 $422 $423 forward $71 $-1 #
coedge $-1 $424 $425 $180 $290 reversed $409 $-1 #
edge $-1 $297 -48.603778191473126 $426 48.603778191473126 $289 $427 forward 7 unknown #
coedge $-1 $283 $428 $181 $292 reversed $177 $-1 #
edge $-1 $429 -48.603778191473126 $296 48.603778191473126 $291 $430 forward 7 unknown #
coedge $-1 $286 $182 $428 $431 forward $295 $-1 #
coedge $-1 $182 $286 $424 $432 reversed $295 $-1 #
loop $-1 $-1 $293 $408 #
vertex $-1 $183 $433 #
vertex $-1 $183 $434 #
straight-curve $-1 48.603778191473126 0 11.006697908793143 0 1 0 I I #
face $-1 $435 $436 $43 $-1 $437 reversed single #
loop $-1 $-1 $438 $184 #
plane-surface $-1 0 0 11.006697908793143 0 0 1 1 0 0 forward_v I I I I #
coedge $-1 $439 $440 $441 $442 reversed $185 $-1 #
coedge $-1 $190 $187 $443 $444 reversed $117 $-1 #
coedge $-1 $187 $190 $445 $446 reversed $117 $-1 #
coedge $-1 $440 $439 $187 $306 reversed $185 $-1 #
edge $-1 $447 -11.006697908793143 $448 11.006697908793143 $305 $449 forward 7 unknown #
coedge $-1 $189 $188 $450 $451 reversed $74 $-1 #
coedge $-1 $443 $452 $188 $309 forward $436 $-1 #
edge $-1 $453 -13.662074648959234 $313 -5.7527307959330543 $308 $454 forward 7 unknown #
coedge $-1 $455 $445 $189 $311 forward $300 $-1 #
edge $-1 $312 5.7527307959330543 $456 13.662074648959234 $310 $457 forward 7 unknown #
vertex $-1 $311 $458 #
vertex $-1 $309 $459 #
straight-curve $-1 -42.197122006226678 -15.460133518379198 0 0 0 -1 I I #
face $-1 $-1 $327 $44 $-1 $460 forward single #
loop $-1 $-1 $461 $192 #
plane-surface $-1 0 23.369477371405377 0 0 -1 0 0 0 -1 forward_v I I I I #
coedge $-1 $462 $463 $464 $465 reversed $193 $-1 #
coedge $-1 $466 $195 $197 $325 forward $121 $-1 #
coedge $-1 $195 $466 $462 $467 forward $121 $-1 #
coedge $-1 $464 $198 $195 $322 forward $327 $-1 #
edge $-1 $329 -22.168790773706363 $468 -11.594758259144612 $321 $469 forward 7 unknown #
coedge $-1 $470 $471 $196 $324 forward $316 $-1 #
edge $-1 $472 -42.92561561547582 $328 -37.216723955669266 $323 $473 forward 7 unknown #
edge $-1 $329 40.007153053338527 $472 46.738954742810776 $197 $474 forward 7 unknown #
coedge $-1 $198 $464 $470 $475 forward $327 $-1 #
loop $-1 $-1 $464 $315 #
vertex $-1 $324 $476 #
vertex $-1 $199 $477 #
straight-curve $-1 -39.05056529013185 40.519144674360597 11.006697908793143 0 -1 0 I I #
coedge $-1 $331 $331 $-1 $478 reversed $202 $-1 #
edge $-1 $479 0 $479 6.2831853071796004 $203 $480 forward 7 unknown #
vertex $-1 $206 $481 #
ellipse-curve $-1 -36.029413143114205 21.585821714967409 8.1522520788898731 0 0.84804810408105047 0.52991925155115449 1 0 0 1 I I #
coedge $-1 $335 $335 $-1 $482 reversed $209 $-1 #
edge $-1 $483 0 $483 6.2831853071796004 $210 $484 forward 7 unknown #
vertex $-1 $213 $485 #
ellipse-curve $-1 -31.497684922587741 21.585821714967409 8.1522520788898731 0 0.84804810408105047 0.52991925155115449 1 0 0 1 I I #
face $-1 $-1 $486 $47 $-1 $487 reversed single #
loop $-1 $-1 $220 $214 #
plane-surface $-1 0 0 11.006697908793143 0 0 1 1 0 0 forward_v I I I I #
coedge $-1 $488 $489 $490 $491 reversed $215 $-1 #
coedge $-1 $492 $217 $219 $349 forward $135 $-1 #
coedge $-1 $217 $492 $488 $493 forward $135 $-1 #
coedge $-1 $490 $220 $217 $346 forward $340 $-1 #
edge $-1 $352 -10.914274429422704 $494 -0.3402419148609539 $345 $495 forward 7 unknown #
coedge $-1 $496 $497 $218 $348 forward $486 $-1 #
edge $-1 $498 -42.92561561547582 $351 -37.216723955669266 $347 $499 forward 7 unknown #
edge $-1 $352 40.007153053338527 $498 46.738954742810776 $219 $500 forward 7 unknown #
coedge $-1 $220 $490 $496 $501 forward $340 $-1 #
vertex $-1 $348 $502 #
vertex $-1 $221 $503 #
straight-curve $-1 -16.541532601564533 40.519144674360597 11.006697908793143 0 -1 0 I I #
coedge $-1 $354 $354 $-1 $504 reversed $224 $-1 #
edge $-1 $505 0 $505 6.2831853071796004 $225 $506 forward 7 unknown #
vertex $-1 $228 $507 #
ellipse-curve $-1 -13.520380454546888 21.585821714967409 8.1522520788898731 0 0.84804810408105047 0.52991925155115449 1 0 0 1 I I #
coedge $-1 $358 $358 $-1 $508 reversed $231 $-1 #
edge $-1 $509 0 $509 6.2831853071796004 $232 $510 forward 7 unknown #
vertex $-1 $235 $511 #
ellipse-curve $-1 -8.9886522340204209 21.585821714967409 8.1522520788898731 0 0.84804810408105047 0.52991925155115449 1 0 0 1 I I #
face $-1 $-1 $512 $50 $-1 $513 reversed single #
loop $-1 $-1 $242 $236 #
plane-surface $-1 0 0 11.006697908793143 0 0 1 1 0 0 forward_v I I I I #
coedge $-1 $514 $515 $516 $517 reversed $237 $-1 #
coedge $-1 $518 $239 $241 $372 forward $149 $-1 #
coedge $-1 $239 $518 $514 $519 forward $149 $-1 #
coedge $-1 $516 $242 $239 $369 forward $363 $-1 #
edge $-1 $375 0.3402419148609539 $520 10.914274429422704 $368 $521 forward 7 unknown #
coedge $-1 $522 $523 $240 $371 forward $512 $-1 #
edge $-1 $524 -42.92561561547582 $374 -37.216723955669266 $370 $525 forward 7 unknown #
edge $-1 $375 40.007153053338527 $524 46.738954742810776 $241 $526 forward 7 unknown #
coedge $-1 $242 $516 $522 $527 forward $363 $-1 #
vertex $-1 $243 $528 #
vertex $-1 $243 $529 #
straight-curve $-1 5.967500087002783 40.519144674360597 11.006697908793143 0 -1 0 I I #
coedge $-1 $377 $377 $-1 $530 reversed $246 $-1 #
edge $-1 $531 0 $531 6.2831853071796004 $247 $532 forward 7 unknown #
vertex $-1 $250 $533 #
ellipse-curve $-1 8.988652234020428 21.585821714967409 8.1522520788898731 0 0.84804810408105047 0.52991925155115449 1 0 0 1 I I #
coedge $-1 $381 $381 $-1 $534 reversed $253 $-1 #
edge $-1 $535 0 $535 6.2831853071796004 $254 $536 forward 7 unknown #
vertex $-1 $257 $537 #
ellipse-curve $-1 13.520380454546896 21.585821714967409 8.1522520788898731 0 0.84804810408105047 0.52991925155115449 1 0 0 1 I I #
face $-1 $-1 $538 $53 $-1 $539 reversed single #
loop $-1 $-1 $264 $258 #
plane-surface $-1 0 0 11.006697908793143 0 0 1 1 0 0 forward_v I I I I #
coedge $-1 $540 $541 $542 $543 reversed $259 $-1 #
coedge $-1 $544 $261 $263 $395 forward $163 $-1 #
coedge $-1 $261 $544 $540 $545 forward $163 $-1 #
coedge $-1 $542 $264 $261 $392 forward $386 $-1 #
edge $-1 $398 11.594758259144612 $546 22.168790773706363 $391 $547 forward 7 unknown #
coedge $-1 $548 $549 $262 $394 forward $538 $-1 #
edge $-1 $550 -42.92561561547582 $397 -37.216723955669266 $393 $551 forward 7 unknown #
edge $-1 $398 40.007153053338527 $550 46.738954742810776 $263 $552 forward 7 unknown #
coedge $-1 $264 $542 $548 $553 forward $386 $-1 #
vertex $-1 $265 $554 #
vertex $-1 $265 $555 #
straight-curve $-1 28.476532775570099 40.519144674360597 11.006697908793143 0 -1 0 I I #
coedge $-1 $400 $400 $-1 $556 reversed $268 $-1 #
edge $-1 $557 0 $557 6.2831853071796004 $269 $558 forward 7 unknown #
vertex $-1 $272 $559 #
ellipse-curve $-1 31.497684922587737 21.585821714967409 8.1522520788898731 0 0.84804810408105047 0.52991925155115449 1 0 0 1 I I #
coedge $-1 $404 $404 $-1 $560 reversed $275 $-1 #
edge $-1 $561 0 $561 6.2831853071796004 $276 $562 forward 7 unknown #
vertex $-1 $279 $563 #
ellipse-curve $-1 36.029413143114212 21.585821714967409 8.1522520788898731 0 0.84804810408105047 0.52991925155115449 1 0 0 1 I I #
face $-1 $-1 $295 $42 $-1 $564 reversed single #
loop $-1 $-1 $424 $280 #
plane-surface $-1 0 23.369477371405377 0 0 -1 0 0 0 -1 forward_v I I I I #
coedge $-1 $565 $422 $425 $566 forward $281 $-1 #
coedge $-1 $428 $283 $284 $416 reversed $177 $-1 #
coedge $-1 $422 $565 $283 $414 reversed $281 $-1 #
edge $-1 $429 -11.006697908793143 $567 11.006697908793143 $413 $568 forward 7 unknown #
coedge $-1 $285 $284 $565 $569 forward $113 $-1 #
edge $-1 $420 -48.603778191473126 $567 48.603778191473126 $412 $570 forward 7 unknown #
coedge $-1 $425 $424 $285 $418 reversed $409 $-1 #
edge $-1 $571 -48.603778191473126 $419 48.603778191473126 $417 $572 forward 7 unknown #
vertex $-1 $287 $573 #
vertex $-1 $431 $574 #
straight-curve $-1 48.603778191473126 0 -11.006697908793143 0 -1 0 I I #
coedge $-1 $411 $413 $288 $423 reversed $281 $-1 #
edge $-1 $426 -23.369477371405377 $429 23.369477371405377 $422 $575 forward 7 unknown #
coedge $-1 $417 $289 $294 $432 forward $409 $-1 #
coedge $-1 $289 $417 $411 $566 reversed $409 $-1 #
vertex $-1 $290 $576 #
straight-curve $-1 0 23.369477371405377 11.006697908793143 -1 0 0 I I #
coedge $-1 $291 $412 $293 $431 reversed $177 $-1 #
vertex $-1 $423 $577 #
straight-curve $-1 0 -23.369477371405377 11.006697908793143 1 0 0 I I #
edge $-1 $296 -11.006697908793143 $420 11.006697908793143 $293 $578 forward 7 unknown #
edge $-1 $297 -11.006697908793143 $419 11.006697908793143 $294 $579 forward 7 unknown #
point $-1 48.603778191473126 -23.369477371405377 11.006697908793143 #
point $-1 48.603778191473126 23.369477371405377 11.006697908793143 #
face $-1 $-1 $580 $43 $-1 $581 reversed single #
loop $-1 $-1 $582 $299 #
plane-surface $-1 0 0 -11.006697908793143 0 0 1 1 0 0 forward_v I I I I #
coedge $-1 $445 $455 $440 $583 forward $300 $-1 #
coedge $-1 $305 $302 $582 $584 reversed $185 $-1 #
coedge $-1 $302 $305 $438 $583 reversed $185 $-1 #
coedge $-1 $585 $586 $302 $442 forward $580 $-1 #
edge $-1 $587 -11.006697908793143 $588 11.006697908793143 $441 $589 forward 7 unknown #
coedge $-1 $582 $308 $303 $444 forward $436 $-1 #
edge $-1 $313 -21.848561003113339 $448 -18.848561003113339 $443 $590 forward 7 unknown #
coedge $-1 $310 $438 $304 $446 forward $300 $-1 #
edge $-1 $447 18.848561003113339 $312 21.848561003113339 $445 $591 forward 7 unknown #
vertex $-1 $446 $592 #
vertex $-1 $444 $593 #
straight-curve $-1 -39.197122006226678 -15.460133518379198 0 0 0 -1 I I #
coedge $-1 $586 $585 $307 $451 forward $580 $-1 #
edge $-1 $456 -11.006697908793143 $453 11.006697908793143 $450 $594 forward 7 unknown #
coedge $-1 $308 $582 $586 $595 forward $436 $-1 #
vertex $-1 $309 $596 #
straight-curve $-1 -42.197122006226678 -9.7074027224461439 -11.006697908793143 0 1 0 I I #
coedge $-1 $438 $310 $585 $597 forward $300 $-1 #
vertex $-1 $597 $598 #
straight-curve $-1 -42.197122006226678 -9.7074027224461439 11.006697908793143 0 -1 0 I I #
point $-1 -42.197122006226678 -15.460133518379198 11.006697908793143 #
point $-1 -42.197122006226678 -15.460133518379198 -11.006697908793143 #
plane-surface $-1 0 0 11.006697908793143 0 0 1 1 0 0 forward_v I I I I #
coedge $-1 $471 $470 $463 $599 forward $316 $-1 #
coedge $-1 $463 $318 $320 $467 reversed $193 $-1 #
coedge $-1 $318 $462 $461 $599 reversed $193 $-1 #
coedge $-1 $326 $321 $318 $465 forward $327 $-1 #
edge $-1 $468 -20.716978615831152 $600 -17.149667302955219 $464 $601 forward 7 unknown #
coedge $-1 $320 $319 $471 $602 reversed $121 $-1 #
edge $-1 $603 -46.738954742810776 $468 -40.007153053338527 $462 $604 forward 7 unknown #
vertex $-1 $322 $605 #
straight-curve $-1 -16.881774516425487 19.802166058529444 11.006697908793143 1 0 0 I I #
coedge $-1 $461 $323 $326 $475 reversed $316 $-1 #
coedge $-1 $323 $461 $466 $602 forward $316 $-1 #
vertex $-1 $324 $606 #
straight-curve $-1 -39.05056529013185 23.369477371405377 48.223421864462409 0 0 1 I I #
straight-curve $-1 -39.05056529013185 -1.3983945441881929 44.93468820535729 0 0.52991925155115449 -0.84804810408105047 I I #
edge $-1 $600 28.476532775570099 $328 39.05056529013185 $470 $607 forward 7 unknown #
point $-1 -39.05056529013185 23.369477371405377 11.006697908793143 #
point $-1 -39.05056529013185 19.802166058529444 11.006697908793143 #
edge $-1 $608 1 $608 0 $331 $-1 forward 7 unknown #
vertex $-1 $332 $609 #
ellipse-curve $-1 -36.029413143114205 18.404586667226383 6.1643958624857751 0 0.84804810408105047 0.52991925155115449 1 0 0 1 I I #
point $-1 -35.029413143114205 21.585821714967416 8.1522520788898785 #
edge $-1 $610 1 $610 0 $335 $-1 forward 7 unknown #
vertex $-1 $336 $611 #
ellipse-curve $-1 -31.497684922587741 18.404586667226383 6.1643958624857751 0 0.84804810408105047 0.52991925155115449 1 0 0 1 I I #
point $-1 -30.497684922587741 21.585821714967416 8.1522520788898785 #
loop $-1 $-1 $347 $339 #
plane-surface $-1 0 23.369477371405377 0 0 -1 0 0 0 -1 forward_v I I I I #
coedge $-1 $489 $342 $344 $493 reversed $215 $-1 #
coedge $-1 $342 $488 $612 $613 reversed $215 $-1 #
coedge $-1 $350 $345 $342 $491 forward $340 $-1 #
edge $-1 $494 -20.716978615831152 $614 -17.149667302955219 $490 $615 forward 7 unknown #
coedge $-1 $344 $343 $497 $616 reversed $135 $-1 #
edge $-1 $617 -46.738954742810776 $494 -40.007153053338527 $488 $618 forward 7 unknown #
vertex $-1 $346 $619 #
straight-curve $-1 -5.6272581721418291 19.802166058529444 11.006697908793143 1 0 0 I I #
coedge $-1 $612 $347 $350 $501 reversed $486 $-1 #
coedge $-1 $347 $612 $492 $616 forward $486 $-1 #
vertex $-1 $348 $620 #
straight-curve $-1 -16.541532601564533 23.369477371405377 48.223421864462409 0 0 1 I I #
straight-curve $-1 -16.541532601564533 -1.3983945441881929 44.93468820535729 0 0.52991925155115449 -0.84804810408105047 I I #
edge $-1 $614 5.967500087002783 $351 16.541532601564533 $496 $621 forward 7 unknown #
point $-1 -16.541532601564533 23.369477371405377 11.006697908793143 #
point $-1 -16.541532601564533 19.802166058529444 11.006697908793143 #
edge $-1 $622 1 $622 0 $354 $-1 forward 7 unknown #
vertex $-1 $355 $623 #
ellipse-curve $-1 -13.520380454546888 18.404586667226383 6.1643958624857751 0 0.84804810408105047 0.52991925155115449 1 0 0 1 I I #
point $-1 -12.520380454546888 21.585821714967416 8.1522520788898785 #
edge $-1 $624 1 $624 0 $358 $-1 forward 7 unknown #
vertex $-1 $359 $625 #
ellipse-curve $-1 -8.9886522340204209 18.404586667226383 6.1643958624857751 0 0.84804810408105047 0.52991925155115449 1 0 0 1 I I #
point $-1 -7.9886522340204209 21.585821714967416 8.1522520788898785 #
loop $-1 $-1 $370 $362 #
plane-surface $-1 0 23.369477371405377 0 0 -1 0 0 0 -1 forward_v I I I I #
coedge $-1 $515 $365 $367 $519 reversed $237 $-1 #
coedge $-1 $365 $514 $626 $627 reversed $237 $-1 #
coedge $-1 $373 $368 $365 $517 forward $363 $-1 #
edge $-1 $520 -20.716978615831152 $628 -17.149667302955219 $516 $629 forward 7 unknown #
coedge $-1 $367 $366 $523 $630 reversed $149 $-1 #
edge $-1 $631 -46.738954742810776 $520 -40.007153053338527 $514 $632 forward 7 unknown #
vertex $-1 $369 $633 #
straight-curve $-1 5.6272581721418291 19.802166058529444 11.006697908793143 1 0 0 I I #
coedge $-1 $626 $370 $373 $527 reversed $512 $-1 #
coedge $-1 $370 $626 $518 $630 forward $512 $-1 #
vertex $-1 $371 $634 #
straight-curve $-1 5.967500087002783 23.369477371405377 48.223421864462409 0 0 1 I I #
straight-curve $-1 5.967500087002783 -1.3983945441881929 44.93468820535729 0 0.52991925155115449 -0.84804810408105047 I I #
edge $-1 $628 -16.541532601564533 $374 -5.967500087002783 $522 $635 forward 7 unknown #
point $-1 5.967500087002783 23.369477371405377 11.006697908793143 #
point $-1 5.967500087002783 19.802166058529444 11.006697908793143 #
edge $-1 $636 1 $636 0 $377 $-1 forward 7 unknown #
vertex $-1 $378 $637 #
ellipse-curve $-1 8.988652234020428 18.404586667226383 6.1643958624857751 0 0.84804810408105047 0.52991925155115449 1 0 0 1 I I #
point $-1 9.988652234020428 21.585821714967416 8.1522520788898785 #
edge $-1 $638 1 $638 0 $381 $-1 forward 7 unknown #
vertex $-1 $382 $639 #
ellipse-curve $-1 13.520380454546896 18.404586667226383 6.1643958624857751 0 0.84804810408105047 0.52991925155115449 1 0 0 1 I I #
point $-1 14.520380454546896 21.585821714967416 8.1522520788898785 #
loop $-1 $-1 $393 $385 #
plane-surface $-1 0 23.369477371405377 0 0 -1 0 0 0 -1 forward_v I I I I #
coedge $-1 $541 $388 $390 $545 reversed $259 $-1 #
coedge $-1 $388 $540 $640 $641 reversed $259 $-1 #
coedge $-1 $396 $391 $388 $543 forward $386 $-1 #
edge $-1 $546 -20.716978615831152 $642 -17.149667302955219 $542 $643 forward 7 unknown #
coedge $-1 $390 $389 $549 $644 reversed $163 $-1 #
edge $-1 $645 -46.738954742810776 $546 -40.007153053338527 $540 $646 forward 7 unknown #
vertex $-1 $392 $647 #
straight-curve $-1 16.881774516425487 19.802166058529444 11.006697908793143 1 0 0 I I #
coedge $-1 $640 $393 $396 $553 reversed $538 $-1 #
coedge $-1 $393 $640 $544 $644 forward $538 $-1 #
vertex $-1 $394 $648 #
straight-curve $-1 28.476532775570099 23.369477371405377 48.223421864462409 0 0 1 I I #
straight-curve $-1 28.476532775570099 -1.3983945441881929 44.93468820535729 0 0.52991925155115449 -0.84804810408105047 I I #
edge $-1 $642 -39.05056529013185 $397 -28.476532775570099 $548 $649 forward 7 unknown #
point $-1 28.476532775570099 23.369477371405377 11.006697908793143 #
point $-1 28.476532775570099 19.802166058529444 11.006697908793143 #
edge $-1 $650 1 $650 0 $400 $-1 forward 7 unknown #
vertex $-1 $401 $651 #
ellipse-curve $-1 31.497684922587737 18.404586667226383 6.1643958624857751 0 0.84804810408105047 0.52991925155115449 1 0 0 1 I I #
point $-1 32.497684922587737 21.585821714967416 8.1522520788898785 #
edge $-1 $652 1 $652 0 $404 $-1 forward 7 unknown #
vertex $-1 $405 $653 #
ellipse-curve $-1 36.029413143114212 18.404586667226383 6.1643958624857751 0 0.84804810408105047 0.52991925155115449 1 0 0 1 I I #
point $-1 37.029413143114212 21.585821714967416 8.1522520788898785 #
plane-surface $-1 48.603778191473126 0 0 -1 0 0 0 0 1 forward_v I I I I #
coedge $-1 $413 $411 $415 $569 reversed $281 $-1 #
edge $-1 $426 -11.006697908793143 $571 11.006697908793143 $425 $654 forward 7 unknown #
vertex $-1 $569 $655 #
straight-curve $-1 -48.603778191473126 -23.369477371405377 0 0 0 -1 I I #
edge $-1 $567 -23.369477371405377 $571 23.369477371405377 $565 $656 forward 7 unknown #
straight-curve $-1 0 -23.369477371405377 -11.006697908793143 -1 0 0 I I #
vertex $-1 $418 $657 #
straight-curve $-1 0 23.369477371405377 -11.006697908793143 1 0 0 I I #
point $-1 48.603778191473126 23.369477371405377 -11.006697908793143 #
point $-1 48.603778191473126 -23.369477371405377 -11.006697908793143 #
straight-curve $-1 -48.603778191473126 0 11.006697908793143 0 -1 0 I I #
point $-1 -48.603778191473126 23.369477371405377 11.006697908793143 #
point $-1 -48.603778191473126 -23.369477371405377 11.006697908793143 #
straight-curve $-1 48.603778191473126 -23.369477371405377 0 0 0 -1 I I #
straight-curve $-1 48.603778191473126 23.369477371405377 0 0 0 -1 I I #
loop $-1 $-1 $441 $435 #
plane-surface $-1 0 -23.369477371405377 0 0 1 0 0 0 1 forward_v I I I I #
coedge $-1 $452 $443 $439 $584 forward $436 $-1 #
edge $-1 $588 -13.662074648959234 $447 -5.7527307959330543 $438 $658 forward 7 unknown #
edge $-1 $448 5.7527307959330543 $587 13.662074648959234 $582 $659 forward 7 unknown #
coedge $-1 $450 $441 $455 $597 reversed $580 $-1 #
coedge $-1 $441 $450 $452 $595 reversed $580 $-1 #
vertex $-1 $595 $660 #
vertex $-1 $442 $661 #
straight-curve $-1 -39.197122006226678 -23.369477371405377 0 0 0 1 I I #
straight-curve $-1 -20.348561003113339 -15.460133518379198 -11.006697908793143 1 0 0 I I #
straight-curve $-1 -20.348561003113339 -15.460133518379198 11.006697908793143 -1 0 0 I I #
point $-1 -39.197122006226678 -15.460133518379198 11.006697908793143 #
point $-1 -39.197122006226678 -15.460133518379198 -11.006697908793143 #
straight-curve $-1 -42.197122006226678 -23.369477371405377 0 0 0 -1 I I #
edge $-1 $587 39.197122006226678 $453 42.197122006226678 $586 $662 forward 7 unknown #
point $-1 -42.197122006226678 -23.369477371405377 -11.006697908793143 #
edge $-1 $456 -42.197122006226678 $588 -39.197122006226678 $585 $663 forward 7 unknown #
point $-1 -42.197122006226678 -23.369477371405377 11.006697908793143 #
edge $-1 $600 37.216723955669266 $603 42.92561561547582 $461 $664 forward 7 unknown #
vertex $-1 $475 $665 #
straight-curve $-1 -28.476532775570099 40.519144674360597 11.006697908793143 0 1 0 I I #
edge $-1 $603 11.594758259144612 $472 22.168790773706363 $471 $666 forward 7 unknown #
vertex $-1 $602 $667 #
straight-curve $-1 -28.476532775570099 -1.3983945441881929 44.93468820535729 0 -0.52991925155115449 0.84804810408105047 I I #
point $-1 -28.476532775570099 19.802166058529444 11.006697908793143 #
point $-1 -39.05056529013185 23.369477371405377 5.2978062489865891 #
straight-curve $-1 0 23.369477371405377 11.006697908793143 -1 0 0 I I #
vertex $-1 $478 $668 #
point $-1 -35.029413143114205 18.404586667226383 6.1643958624857751 #
vertex $-1 $482 $669 #
point $-1 -30.497684922587741 18.404586667226383 6.1643958624857751 #
coedge $-1 $497 $496 $489 $613 forward $486 $-1 #
edge $-1 $614 37.216723955669266 $617 42.92561561547582 $612 $670 forward 7 unknown #
vertex $-1 $501 $671 #
straight-curve $-1 -5.967500087002783 40.519144674360597 11.006697908793143 0 1 0 I I #
edge $-1 $617 0.3402419148609539 $498 10.914274429422704 $497 $672 forward 7 unknown #
vertex $-1 $616 $673 #
straight-curve $-1 -5.967500087002783 -1.3983945441881929 44.93468820535729 0 -0.52991925155115449 0.84804810408105047 I I #
point $-1 -5.967500087002783 19.802166058529444 11.006697908793143 #
point $-1 -16.541532601564533 23.369477371405377 5.2978062489865891 #
straight-curve $-1 0 23.369477371405377 11.006697908793143 -1 0 0 I I #
vertex $-1 $504 $674 #
point $-1 -12.520380454546888 18.404586667226383 6.1643958624857751 #
vertex $-1 $508 $675 #
point $-1 -7.9886522340204209 18.404586667226383 6.1643958624857751 #
coedge $-1 $523 $522 $515 $627 forward $512 $-1 #
edge $-1 $628 37.216723955669266 $631 42.92561561547582 $626 $676 forward 7 unknown #
vertex $-1 $527 $677 #
straight-curve $-1 16.541532601564533 40.519144674360597 11.006697908793143 0 1 0 I I #
edge $-1 $631 -10.914274429422704 $524 -0.3402419148609539 $523 $678 forward 7 unknown #
vertex $-1 $630 $679 #
straight-curve $-1 16.541532601564533 -1.3983945441881929 44.93468820535729 0 -0.52991925155115449 0.84804810408105047 I I #
point $-1 16.541532601564533 19.802166058529444 11.006697908793143 #
point $-1 5.967500087002783 23.369477371405377 5.2978062489865891 #
straight-curve $-1 0 23.369477371405377 11.006697908793143 -1 0 0 I I #
vertex $-1 $530 $680 #
point $-1 9.988652234020428 18.404586667226383 6.1643958624857751 #
vertex $-1 $534 $681 #
point $-1 14.520380454546896 18.404586667226383 6.1643958624857751 #
coedge $-1 $549 $548 $541 $641 forward $538 $-1 #
edge $-1 $642 37.216723955669266 $645 42.92561561547582 $640 $682 forward 7 unknown #
vertex $-1 $553 $683 #
straight-curve $-1 39.05056529013185 40.519144674360597 11.006697908793143 0 1 0 I I #
edge $-1 $645 -22.168790773706363 $550 -11.594758259144612 $549 $684 forward 7 unknown #
vertex $-1 $644 $685 #
straight-curve $-1 39.05056529013185 -1.3983945441881929 44.93468820535729 0 -0.52991925155115449 0.84804810408105047 I I #
point $-1 39.05056529013185 19.802166058529444 11.006697908793143 #
point $-1 28.476532775570099 23.369477371405377 5.2978062489865891 #
straight-curve $-1 0 23.369477371405377 11.006697908793143 -1 0 0 I I #
vertex $-1 $556 $686 #
point $-1 32.497684922587737 18.404586667226383 6.1643958624857751 #
vertex $-1 $560 $687 #
point $-1 37.029413143114212 18.404586667226383 6.1643958624857751 #
straight-curve $-1 -48.603778191473126 23.369477371405377 0 0 0 -1 I I #
point $-1 -48.603778191473126 -23.369477371405377 -11.006697908793143 #
straight-curve $-1 -48.603778191473126 0 -11.006697908793143 0 1 0 I I #
point $-1 -48.603778191473126 23.369477371405377 -11.006697908793143 #
straight-curve $-1 -39.197122006226678 -9.7074027224461439 11.006697908793143 0 1 0 I I #
straight-curve $-1 -39.197122006226678 -9.7074027224461439 -11.006697908793143 0 -1 0 I I #
point $-1 -39.197122006226678 -23.369477371405377 -11.006697908793143 #
point $-1 -39.197122006226678 -23.369477371405377 11.006697908793143 #
straight-curve $-1 0 -23.369477371405377 -11.006697908793143 -1 0 0 I I #
straight-curve $-1 0 -23.369477371405377 11.006697908793143 1 0 0 I I #
straight-curve $-1 -28.476532775570099 23.369477371405377 48.223421864462409 0 0 -1 I I #
point $-1 -28.476532775570099 23.369477371405377 11.006697908793143 #
straight-curve $-1 -16.881774516425487 23.369477371405374 5.2978062489865927 -1 0 0 I I #
point $-1 -28.476532775570099 23.369477371405377 5.2978062489865891 #
point $-1 -36.029413143114205 17.556538563145331 5.6344766109346205 #
point $-1 -31.497684922587741 17.556538563145331 5.6344766109346205 #
straight-curve $-1 -5.967500087002783 23.369477371405377 48.223421864462409 0 0 -1 I I #
point $-1 -5.967500087002783 23.369477371405377 11.006697908793143 #
straight-curve $-1 -5.6272581721418291 23.369477371405374 5.2978062489865927 -1 0 0 I I #
point $-1 -5.967500087002783 23.369477371405377 5.2978062489865891 #
point $-1 -13.520380454546888 17.556538563145331 5.6344766109346205 #
point $-1 -8.9886522340204209 17.556538563145331 5.6344766109346205 #
straight-curve $-1 16.541532601564533 23.369477371405377 48.223421864462409 0 0 -1 I I #
point $-1 16.541532601564533 23.369477371405377 11.006697908793143 #
straight-curve $-1 5.6272581721418291 23.369477371405374 5.2978062489865927 -1 0 0 I I #
point $-1 16.541532601564533 23.369477371405377 5.2978062489865891 #
point $-1 8.988652234020428 17.556538563145331 5.6344766109346205 #
point $-1 13.520380454546896 17.556538563145331 5.6344766109346205 #
straight-curve $-1 39.05056529013185 23.369477371405377 48.223421864462409 0 0 -1 I I #
point $-1 39.05056529013185 23.369477371405377 11.006697908793143 #
straight-curve $-1 16.881774516425487 23.369477371405374 5.2978062489865927 -1 0 0 I I #
point $-1 39.05056529013185 23.369477371405377 5.2978062489865891 #
point $-1 31.497684922587737 17.556538563145331 5.6344766109346205 #
point $-1 36.029413143114212 17.556538563145331 5.6344766109346205 #
End-of-ACIS-data 