500 0 4 0           
7 Unknown 11 ACIS 5.0 NT 24 Thu Mar 25 16:13:37 1999 
-1 9.9999999999999995e-007 1e-010 
body $-1 $4 $-1 $5 #
body $-1 $6 $-1 $7 #
body $-1 $8 $-1 $9 #
body $-1 $10 $-1 $11 #
lump $-1 $-1 $12 $0 #
transform $-1 1 0 0 0 1 0 0 0 1 58.471022675252541 39.376175043761251 16.791023927547926 1 rotate no_reflect no_shear #
lump $-1 $-1 $13 $1 #
transform $-1 1 0 0 0 1 0 0 0 1 58.471022675252541 39.376175043761251 16.791023927547926 1 rotate no_reflect no_shear #
lump $-1 $-1 $14 $2 #
transform $-1 1 0 0 0 1 0 0 0 1 58.471022675252541 39.376175043761251 16.791023927547926 1 rotate no_reflect no_shear #
lump $-1 $-1 $15 $3 #
transform $-1 1 0 0 0 1 0 0 0 1 58.471022675252541 39.376175043761251 16.791023927547926 1 rotate no_reflect no_shear #
shell $-1 $-1 $-1 $16 $-1 $4 #
shell $-1 $-1 $-1 $17 $-1 $6 #
shell $-1 $-1 $-1 $18 $-1 $8 #
shell $-1 $-1 $-1 $19 $-1 $10 #
face $-1 $20 $21 $12 $-1 $22 forward single #
face $-1 $23 $24 $13 $-1 $25 reversed single #
face $-1 $26 $27 $14 $-1 $28 forward single #
face $-1 $29 $30 $15 $-1 $31 forward single #
face $-1 $32 $33 $12 $-1 $34 reversed single #
loop $-1 $-1 $35 $16 #
plane-surface $-1 0 0 16.791023927547926 0 0 1 1 0 0 forward_v I I I I #
face $-1 $36 $37 $13 $-1 $38 reversed single #
loop $-1 $-1 $39 $17 #
plane-surface $-1 26.914836568759782 23.517311490414372 168.4473976375067 0 1 0 0.55919291073839883 0 0.82903756765294845 forward_v I I I I #
face $-1 $40 $41 $14 $-1 $42 forward single #
loop $-1 $43 $44 $18 #
cone-surface $-1 49.840046822572802 28.04841536279919 10.396003054366659 -0.55919291073839883 0 -0.82903756765294845 0.82903756765294845 0 -0.55919291073839883 1 I I 0 1 1 forward I I I I #
face $-1 $45 $46 $15 $-1 $47 forward single #
loop $-1 $48 $49 $19 #
cone-surface $-1 49.840046822572802 34.845071171376432 10.396003054366659 -0.55919291073839883 0 -0.82903756765294845 0.82903756765294845 0 -0.55919291073839883 1 I I 0 1 1 forward I I I I #
face $-1 $50 $51 $12 $-1 $52 reversed single #
loop $-1 $-1 $53 $20 #
plane-surface $-1 0 0 -16.791023927547926 0 0 1 1 0 0 forward_v I I I I #
coedge $-1 $54 $55 $56 $57 forward $21 $-1 #
face $-1 $58 $59 $13 $-1 $60 forward single #
loop $-1 $-1 $61 $23 #
plane-surface $-1 -38.478326158491001 31.446743267087811 71.498048803763169 0.55919291073839883 0 0.82903756765294845 0.82903756765294845 0 -0.55919291073839883 forward_v I I I I #
coedge $-1 $62 $63 $64 $65 reversed $24 $-1 #
face $-1 $-1 $66 $14 $-1 $67 forward single #
loop $-1 $68 $69 $26 #
cone-surface $-1 48.850899805778212 28.04841536279919 8.9295323228766676 -0.55919291073839883 0 -0.82903756765294845 0.41451878382647422 0 -0.27959645536919941 1 I I -0.70710678118654746 0.70710678118654746 0.5 forward I I I I #
loop $-1 $-1 $70 $18 #
coedge $-1 $44 $44 $71 $72 reversed $27 $-1 #
face $-1 $-1 $73 $15 $-1 $74 forward single #
loop $-1 $75 $76 $29 #
cone-surface $-1 48.850899805778212 34.845071171376432 8.9295323228766676 -0.55919291073839883 0 -0.82903756765294845 0.41451878382647422 0 -0.27959645536919941 1 I I -0.70710678118654746 0.70710678118654746 0.5 forward I I I I #
loop $-1 $-1 $77 $19 #
coedge $-1 $49 $49 $78 $79 reversed $30 $-1 #
face $-1 $80 $81 $12 $-1 $82 reversed single #
loop $-1 $-1 $83 $32 #
plane-surface $-1 0 -39.376175043761251 0 0 1 0 0 0 1 forward_v I I I I #
coedge $-1 $84 $85 $86 $87 forward $33 $-1 #
coedge $-1 $88 $35 $89 $90 forward $21 $-1 #
coedge $-1 $35 $88 $91 $92 forward $21 $-1 #
coedge $-1 $93 $94 $35 $57 reversed $95 $-1 #
edge $-1 $96 -39.376175043761251 $97 39.376175043761251 $56 $98 forward 7 unknown #
face $-1 $99 $100 $13 $-1 $101 reversed single #
loop $-1 $-1 $102 $36 #
plane-surface $-1 0 0 16.791023927547926 0 0 1 1 0 0 forward_v I I I I #
coedge $-1 $103 $104 $105 $106 reversed $37 $-1 #
coedge $-1 $63 $39 $107 $108 reversed $24 $-1 #
coedge $-1 $39 $62 $103 $109 reversed $24 $-1 #
coedge $-1 $105 $110 $39 $65 forward $100 $-1 #
edge $-1 $111 67.432674891205423 $112 78.118812742240976 $64 $113 forward 7 unknown #
loop $-1 $-1 $71 $40 #
plane-surface $-1 -38.478326158491001 31.446743267087811 71.498048803763169 0.55919291073839883 0 0.82903756765294845 0.82903756765294845 0 -0.55919291073839883 forward_v I I I I #
loop $-1 $-1 $114 $26 #
coedge $-1 $69 $69 $70 $115 reversed $41 $-1 #
coedge $-1 $70 $70 $69 $115 forward $43 $-1 #
coedge $-1 $71 $71 $44 $72 forward $66 $-1 #
edge $-1 $116 0 $116 6.2831853071796004 $71 $117 forward 7 unknown #
loop $-1 $-1 $78 $45 #
plane-surface $-1 -38.478326158491001 31.446743267087811 71.498048803763169 0.55919291073839883 0 0.82903756765294845 0.82903756765294845 0 -0.55919291073839883 forward_v I I I I #
loop $-1 $-1 $118 $29 #
coedge $-1 $76 $76 $77 $119 reversed $46 $-1 #
coedge $-1 $77 $77 $76 $119 forward $48 $-1 #
coedge $-1 $78 $78 $49 $79 forward $73 $-1 #
edge $-1 $120 0 $120 6.2831853071796004 $78 $121 forward 7 unknown #
face $-1 $122 $123 $12 $-1 $124 reversed single #
loop $-1 $-1 $125 $50 #
plane-surface $-1 -58.471022675252541 0 0 1 0 0 0 0 -1 forward_v I I I I #
coedge $-1 $126 $91 $127 $128 forward $51 $-1 #
coedge $-1 $129 $53 $126 $130 forward $33 $-1 #
coedge $-1 $53 $129 $131 $132 forward $33 $-1 #
coedge $-1 $94 $93 $53 $87 reversed $95 $-1 #
edge $-1 $133 -39.376175043761251 $134 39.376175043761251 $86 $135 forward 7 unknown #
coedge $-1 $55 $54 $136 $137 forward $21 $-1 #
coedge $-1 $138 $139 $54 $90 reversed $123 $-1 #
edge $-1 $97 -58.471022675252541 $140 58.471022675252541 $89 $141 forward 7 unknown #
coedge $-1 $83 $142 $55 $92 reversed $51 $-1 #
edge $-1 $143 -58.471022675252541 $96 58.471022675252541 $91 $144 forward 7 unknown #
coedge $-1 $86 $56 $142 $145 forward $95 $-1 #
coedge $-1 $56 $86 $138 $146 reversed $95 $-1 #
loop $-1 $-1 $93 $122 #
vertex $-1 $57 $147 #
vertex $-1 $57 $148 #
straight-curve $-1 58.471022675252541 0 16.791023927547926 0 1 0 I I #
face $-1 $-1 $149 $13 $-1 $150 reversed single #
loop $-1 $-1 $64 $58 #
plane-surface $-1 58.471022675252541 0 0 -1 0 0 0 0 1 forward_v I I I I #
coedge $-1 $107 $151 $152 $153 forward $59 $-1 #
coedge $-1 $152 $61 $63 $109 forward $37 $-1 #
coedge $-1 $61 $152 $154 $155 reversed $37 $-1 #
coedge $-1 $156 $64 $61 $106 forward $100 $-1 #
edge $-1 $112 7.7939398568704661 $157 23.652803410217345 $105 $158 forward 7 unknown #
coedge $-1 $159 $102 $62 $108 forward $59 $-1 #
edge $-1 $160 29.170753808363877 $111 45.013604390872651 $107 $161 forward 7 unknown #
edge $-1 $112 -116.94204535050511 $160 -97.832114509420578 $63 $162 forward 7 unknown #
coedge $-1 $64 $156 $159 $163 reversed $100 $-1 #
vertex $-1 $163 $164 #
vertex $-1 $65 $165 #
straight-curve $-1 58.471022675252541 23.517311490414372 84.223698818753348 0 0 -1 I I #
coedge $-1 $114 $114 $-1 $166 reversed $68 $-1 #
edge $-1 $167 0 $167 6.2831853071796004 $69 $168 forward 7 unknown #
vertex $-1 $72 $169 #
ellipse-curve $-1 50.549597383998176 28.04841536279919 11.447955002030145 0.55919291073839883 0 0.82903756765294845 0.82903756765294845 0 -0.55919291073839883 1 I I #
coedge $-1 $118 $118 $-1 $170 reversed $75 $-1 #
edge $-1 $171 0 $171 6.2831853071796004 $76 $172 forward 7 unknown #
vertex $-1 $79 $173 #
ellipse-curve $-1 50.549597383998176 34.845071171376432 11.447955002030145 0.55919291073839883 0 0.82903756765294845 0.82903756765294845 0 -0.55919291073839883 1 I I #
face $-1 $-1 $95 $12 $-1 $174 reversed single #
loop $-1 $-1 $138 $80 #
plane-surface $-1 0 39.376175043761251 0 0 -1 0 0 0 -1 forward_v I I I I #
coedge $-1 $175 $136 $139 $176 forward $81 $-1 #
coedge $-1 $142 $83 $84 $130 reversed $51 $-1 #
coedge $-1 $136 $175 $83 $128 reversed $81 $-1 #
edge $-1 $143 -16.791023927547926 $177 16.791023927547926 $127 $178 forward 7 unknown #
coedge $-1 $85 $84 $175 $179 forward $33 $-1 #
edge $-1 $134 -58.471022675252541 $177 58.471022675252541 $126 $180 forward 7 unknown #
coedge $-1 $139 $138 $85 $132 reversed $123 $-1 #
edge $-1 $181 -58.471022675252541 $133 58.471022675252541 $131 $182 forward 7 unknown #
vertex $-1 $87 $183 #
vertex $-1 $145 $184 #
straight-curve $-1 58.471022675252541 0 -16.791023927547926 0 -1 0 I I #
coedge $-1 $125 $127 $88 $137 reversed $81 $-1 #
edge $-1 $140 -39.376175043761251 $143 39.376175043761251 $136 $185 forward 7 unknown #
coedge $-1 $131 $89 $94 $146 forward $123 $-1 #
coedge $-1 $89 $131 $125 $176 reversed $123 $-1 #
vertex $-1 $90 $186 #
straight-curve $-1 0 39.376175043761251 16.791023927547926 -1 0 0 I I #
coedge $-1 $91 $126 $93 $145 reversed $51 $-1 #
vertex $-1 $137 $187 #
straight-curve $-1 0 -39.376175043761251 16.791023927547926 1 0 0 I I #
edge $-1 $96 -16.791023927547926 $134 16.791023927547926 $93 $188 forward 7 unknown #
edge $-1 $97 -16.791023927547926 $133 16.791023927547926 $94 $189 forward 7 unknown #
point $-1 58.471022675252541 -39.376175043761251 16.791023927547926 #
point $-1 58.471022675252541 39.376175043761251 16.791023927547926 #
loop $-1 $-1 $154 $99 #
plane-surface $-1 0 39.376175043761251 0 0 -1 0 0 0 -1 forward_v I I I I #
coedge $-1 $102 $159 $190 $191 forward $59 $-1 #
coedge $-1 $104 $103 $102 $153 reversed $37 $-1 #
edge $-1 $192 -23.652803410217345 $160 -7.7939398568704661 $102 $193 forward 7 unknown #
coedge $-1 $190 $194 $104 $155 forward $149 $-1 #
edge $-1 $157 -81.001455376262783 $192 -61.89152453517827 $154 $195 forward 7 unknown #
coedge $-1 $110 $105 $194 $196 reversed $100 $-1 #
vertex $-1 $106 $197 #
straight-curve $-1 58.471022675252541 15.723371633543906 6.104886076512372 0 1 0 I I #
coedge $-1 $151 $107 $110 $163 forward $59 $-1 #
vertex $-1 $108 $198 #
straight-curve $-1 13.457418284379891 23.517311490414372 16.791023927547926 1 0 0 I I #
straight-curve $-1 -38.478326158491001 23.517311490414372 71.498048803763169 -0.82903756765294845 0 0.55919291073839883 I I #
edge $-1 $111 23.517311490414372 $199 39.376175043761251 $110 $200 forward 7 unknown #
point $-1 58.471022675252541 23.517311490414372 16.791023927547926 #
point $-1 58.471022675252541 23.517311490414372 6.104886076512372 #
edge $-1 $201 1 $201 0 $114 $-1 forward 7 unknown #
vertex $-1 $115 $202 #
ellipse-curve $-1 49.130496261147414 28.04841536279919 9.3440511067031427 0.55919291073839883 0 0.82903756765294845 0.82903756765294845 0 -0.55919291073839883 1 I I #
point $-1 51.378634951651144 28.04841536279919 10.888762091291776 #
edge $-1 $203 1 $203 0 $118 $-1 forward 7 unknown #
vertex $-1 $119 $204 #
ellipse-curve $-1 49.130496261147414 34.845071171376432 9.3440511067031427 0.55919291073839883 0 0.82903756765294845 0.82903756765294845 0 -0.55919291073839883 1 I I #
point $-1 51.378634951651144 34.845071171376432 10.888762091291776 #
plane-surface $-1 58.471022675252541 0 0 -1 0 0 0 0 1 forward_v I I I I #
coedge $-1 $127 $125 $129 $179 reversed $81 $-1 #
edge $-1 $140 -16.791023927547926 $181 16.791023927547926 $139 $205 forward 7 unknown #
vertex $-1 $179 $206 #
straight-curve $-1 -58.471022675252541 -39.376175043761251 0 0 0 -1 I I #
edge $-1 $177 -39.376175043761251 $181 39.376175043761251 $175 $207 forward 7 unknown #
straight-curve $-1 0 -39.376175043761251 -16.791023927547926 -1 0 0 I I #
vertex $-1 $132 $208 #
straight-curve $-1 0 39.376175043761251 -16.791023927547926 1 0 0 I I #
point $-1 58.471022675252541 39.376175043761251 -16.791023927547926 #
point $-1 58.471022675252541 -39.376175043761251 -16.791023927547926 #
straight-curve $-1 -58.471022675252541 0 16.791023927547926 0 -1 0 I I #
point $-1 -58.471022675252541 39.376175043761251 16.791023927547926 #
point $-1 -58.471022675252541 -39.376175043761251 16.791023927547926 #
straight-curve $-1 58.471022675252541 -39.376175043761251 0 0 0 -1 I I #
straight-curve $-1 58.471022675252541 39.376175043761251 0 0 0 -1 I I #
coedge $-1 $194 $154 $151 $191 reversed $149 $-1 #
edge $-1 $199 -58.471022675252541 $192 -42.628172092743768 $190 $209 forward 7 unknown #
vertex $-1 $155 $210 #
straight-curve $-1 42.628172092743775 15.723371633543906 16.791023927547926 0 -1 0 I I #
coedge $-1 $154 $190 $156 $196 forward $149 $-1 #
straight-curve $-1 -8.6822268662332096 39.376175043761251 51.400325682411292 -0.82903756765294845 0 0.55919291073839883 I I #
edge $-1 $199 -16.791023927547926 $157 -6.1048860765123765 $156 $211 forward 7 unknown #
point $-1 58.471022675252541 39.376175043761251 6.1048860765123765 #
point $-1 42.628172092743768 23.517311490414372 16.791023927547926 #
vertex $-1 $163 $212 #
straight-curve $-1 58.471022675252541 0 16.791023927547926 0 1 0 I I #
vertex $-1 $166 $213 #
point $-1 49.95953382880036 28.04841536279919 8.7848581959647429 #
vertex $-1 $170 $214 #
point $-1 49.95953382880036 34.845071171376432 8.7848581959647429 #
straight-curve $-1 -58.471022675252541 39.376175043761251 0 0 0 -1 I I #
point $-1 -58.471022675252541 -39.376175043761251 -16.791023927547926 #
straight-curve $-1 -58.471022675252541 0 -16.791023927547926 0 1 0 I I #
point $-1 -58.471022675252541 39.376175043761251 -16.791023927547926 #
straight-curve $-1 0 39.376175043761251 16.791023927547926 -1 0 0 I I #
point $-1 42.628172092743768 39.376175043761251 16.791023927547926 #
straight-curve $-1 58.471022675252541 39.376175043761251 0 0 0 -1 I I #
point $-1 58.471022675252541 39.376175043761251 16.791023927547926 #
point $-1 48.571303350409011 28.04841536279919 8.5150135390501926 #
point $-1 48.571303350409011 34.845071171376432 8.5150135390501926 #
End-of-ACIS-data 