500 0 14 0           
7 Unknown 11 ACIS 5.0 NT 24 Fri Mar 26 19:44:17 1999 
-1 9.9999999999999995e-007 1e-010 
body $-1 $14 $-1 $15 #
body $-1 $16 $-1 $17 #
body $-1 $18 $-1 $19 #
body $-1 $20 $-1 $21 #
body $-1 $22 $-1 $23 #
body $-1 $24 $-1 $25 #
body $-1 $26 $-1 $27 #
body $-1 $28 $-1 $29 #
body $-1 $30 $-1 $31 #
body $-1 $32 $-1 $33 #
body $-1 $34 $-1 $35 #
body $-1 $36 $-1 $37 #
body $-1 $38 $-1 $39 #
body $-1 $40 $-1 $41 #
lump $-1 $-1 $42 $0 #
transform $-1 1 0 0 0 1 0 0 0 1 71.894283883175149 43.017649763894525 14.951216294934317 1 rotate no_reflect no_shear #
lump $-1 $-1 $43 $1 #
transform $-1 1 0 0 0 1 0 0 0 1 71.894283883175149 6.5711067875181772 24.850568179559765 1 rotate no_reflect no_shear #
lump $-1 $-1 $44 $2 #
transform $-1 1 0 0 0 1 0 0 0 1 71.894283883175149 79.464192740270875 24.850568179559765 1 rotate no_reflect no_shear #
lump $-1 $-1 $45 $3 #
transform $-1 0.57357642473473569 0 -0.81915205242281985 0 1 0 0.81915205242281985 0 0.57357642473473569 179.0995355499424 17.938130113195335 226.48246165535488 1 rotate no_reflect no_shear #
lump $-1 $-1 $46 $4 #
transform $-1 0.57357642473473569 0 -0.81915205242281985 0 -1 0 -0.81915205242281985 0 -0.57357642473473569 141.47680465166235 17.938130113195335 27.346260082745829 1 rotate no_reflect no_shear #
lump $-1 $-1 $47 $5 #
transform $-1 0.57357642473473569 0 -0.81915205242281985 0 1 0 0.81915205242281985 0 0.57357642473473569 179.0995355499424 32.875848207624422 226.48246165535488 1 rotate no_reflect no_shear #
lump $-1 $-1 $48 $6 #
transform $-1 0.57357642473473569 0 -0.81915205242281985 0 -1 0 -0.81915205242281985 0 -0.57357642473473569 141.47680465166235 32.875848207624422 27.346260082745829 1 rotate no_reflect no_shear #
lump $-1 $-1 $49 $7 #
transform $-1 0.57357642473473569 0 -0.81915205242281985 0 1 0 0.81915205242281985 0 0.57357642473473569 179.0995355499424 47.813566302053509 226.48246165535488 1 rotate no_reflect no_shear #
lump $-1 $-1 $50 $8 #
transform $-1 0.57357642473473569 0 -0.81915205242281985 0 -1 0 -0.81915205242281985 0 -0.57357642473473569 141.47680465166235 47.813566302053509 27.346260082745829 1 rotate no_reflect no_shear #
lump $-1 $-1 $51 $9 #
transform $-1 0.57357642473473569 0 -0.81915205242281985 0 1 0 0.81915205242281985 0 0.57357642473473569 179.0995355499424 62.751284396482596 226.48246165535488 1 rotate no_reflect no_shear #
lump $-1 $-1 $52 $10 #
transform $-1 0.57357642473473569 0 -0.81915205242281985 0 -1 0 -0.81915205242281985 0 -0.57357642473473569 141.47680465166235 62.751284396482596 27.346260082745829 1 rotate no_reflect no_shear #
lump $-1 $-1 $53 $11 #
transform $-1 0.70710677298230451 0 0.70710678939079041 0 1 0 -0.70710678939079041 0 0.70710677298230451 -101.67387250436406 53.602124295839978 120.48943583552139 1 rotate no_reflect no_shear #
lump $-1 $-1 $54 $12 #
transform $-1 0.70710677298230451 0 0.70710678939079041 0 -1 0 0.70710678939079041 0 -0.70710677298230451 7.0100103943302923 50.733733659725161 22.892422100934468 1 rotate no_reflect no_shear #
lump $-1 $-1 $55 $13 #
transform $-1 0.70710677298230451 0 0.70710678939079041 0 -1 0 0.70710678939079041 0 -0.70710677298230451 7.0100103943302923 56.470514931954789 22.892422100934468 1 rotate no_reflect no_shear #
shell $-1 $-1 $-1 $56 $-1 $14 #
shell $-1 $-1 $-1 $57 $-1 $16 #
shell $-1 $-1 $-1 $58 $-1 $18 #
shell $-1 $-1 $-1 $59 $-1 $20 #
shell $-1 $-1 $-1 $60 $-1 $22 #
shell $-1 $-1 $-1 $61 $-1 $24 #
shell $-1 $-1 $-1 $62 $-1 $26 #
shell $-1 $-1 $-1 $63 $-1 $28 #
shell $-1 $-1 $-1 $64 $-1 $30 #
shell $-1 $-1 $-1 $65 $-1 $32 #
shell $-1 $-1 $-1 $66 $-1 $34 #
shell $-1 $-1 $-1 $67 $-1 $36 #
shell $-1 $-1 $-1 $68 $-1 $38 #
shell $-1 $-1 $-1 $69 $-1 $40 #
face $-1 $70 $71 $42 $-1 $72 forward single #
face $-1 $73 $74 $43 $-1 $75 forward single #
face $-1 $76 $77 $44 $-1 $78 forward single #
face $-1 $79 $80 $45 $-1 $81 forward single #
face $-1 $82 $83 $46 $-1 $84 forward single #
face $-1 $85 $86 $47 $-1 $87 forward single #
face $-1 $88 $89 $48 $-1 $90 forward single #
face $-1 $91 $92 $49 $-1 $93 forward single #
face $-1 $94 $95 $50 $-1 $96 forward single #
face $-1 $97 $98 $51 $-1 $99 forward single #
face $-1 $100 $101 $52 $-1 $102 forward single #
face $-1 $103 $104 $53 $-1 $105 forward single #
face $-1 $106 $107 $54 $-1 $108 forward single #
face $-1 $109 $110 $55 $-1 $111 forward single #
face $-1 $112 $113 $42 $-1 $114 reversed single #
loop $-1 $-1 $115 $56 #
plane-surface $-1 0 0 14.951216294934317 0 0 1 1 0 0 forward_v I I I I #
face $-1 $116 $117 $43 $-1 $118 reversed single #
loop $-1 $-1 $119 $57 #
plane-surface $-1 0 0 2.8174466767275295 0 0 1 1 0 0 forward_v I I I I #
face $-1 $120 $121 $44 $-1 $122 reversed single #
loop $-1 $-1 $123 $58 #
plane-surface $-1 0 0 2.8174466767275295 0 0 1 1 0 0 forward_v I I I I #
face $-1 $124 $125 $45 $-1 $126 reversed single #
loop $-1 $-1 $127 $59 #
plane-surface $-1 0 0 143.7885677663503 0 0 1 1 0 0 forward_v I I I I #
face $-1 $128 $129 $46 $-1 $130 forward single #
loop $-1 $131 $132 $60 #
cone-surface $-1 0 0 -0.75 0 0 1 0.5 0 0 1 I I 0 1 0.5 forward I I I I #
face $-1 $133 $134 $47 $-1 $135 reversed single #
loop $-1 $-1 $136 $61 #
plane-surface $-1 0 0 143.7885677663503 0 0 1 1 0 0 forward_v I I I I #
face $-1 $137 $138 $48 $-1 $139 forward single #
loop $-1 $140 $141 $62 #
cone-surface $-1 0 0 -0.75 0 0 1 0.5 0 0 1 I I 0 1 0.5 forward I I I I #
face $-1 $142 $143 $49 $-1 $144 reversed single #
loop $-1 $-1 $145 $63 #
plane-surface $-1 0 0 143.7885677663503 0 0 1 1 0 0 forward_v I I I I #
face $-1 $146 $147 $50 $-1 $148 forward single #
loop $-1 $149 $150 $64 #
cone-surface $-1 0 0 -0.75 0 0 1 0.5 0 0 1 I I 0 1 0.5 forward I I I I #
face $-1 $151 $152 $51 $-1 $153 reversed single #
loop $-1 $-1 $154 $65 #
plane-surface $-1 0 0 143.7885677663503 0 0 1 1 0 0 forward_v I I I I #
face $-1 $155 $156 $52 $-1 $157 forward single #
loop $-1 $158 $159 $66 #
cone-surface $-1 0 0 -0.75 0 0 1 0.5 0 0 1 I I 0 1 0.5 forward I I I I #
face $-1 $160 $161 $53 $-1 $162 reversed single #
loop $-1 $-1 $163 $67 #
plane-surface $-1 0 0 143.7885677663503 0 0 1 1 0 0 forward_v I I I I #
face $-1 $164 $165 $54 $-1 $166 forward single #
loop $-1 $167 $168 $68 #
cone-surface $-1 0 0 -1.2870265816217561 0 0 1 1 0 0 1 I I 0 1 1 forward I I I I #
face $-1 $169 $170 $55 $-1 $171 forward single #
loop $-1 $172 $173 $69 #
cone-surface $-1 0 0 -1.2870265816217561 0 0 1 1 0 0 1 I I 0 1 1 forward I I I I #
face $-1 $174 $175 $42 $-1 $176 reversed single #
loop $-1 $-1 $177 $70 #
plane-surface $-1 0 0 -14.951216294934317 0 0 1 1 0 0 forward_v I I I I #
coedge $-1 $178 $179 $180 $181 forward $71 $-1 #
face $-1 $182 $183 $43 $-1 $184 reversed single #
loop $-1 $-1 $185 $73 #
plane-surface $-1 0 0 -2.8174466767275295 0 0 1 1 0 0 forward_v I I I I #
coedge $-1 $186 $187 $188 $189 forward $74 $-1 #
face $-1 $190 $191 $44 $-1 $192 reversed single #
loop $-1 $-1 $193 $76 #
plane-surface $-1 0 0 -2.8174466767275295 0 0 1 1 0 0 forward_v I I I I #
coedge $-1 $194 $195 $196 $197 forward $77 $-1 #
face $-1 $198 $199 $45 $-1 $200 reversed single #
loop $-1 $-1 $201 $79 #
plane-surface $-1 0 0 -143.7885677663503 0 0 1 1 0 0 forward_v I I I I #
coedge $-1 $202 $203 $204 $205 forward $80 $-1 #
face $-1 $-1 $206 $46 $-1 $207 forward single #
loop $-1 $-1 $208 $82 #
plane-surface $-1 0 0 -1.25 0 0 -1 -1 0 0 forward_v I I I I #
loop $-1 $-1 $209 $60 #
coedge $-1 $132 $132 $208 $210 reversed $83 $-1 #
face $-1 $211 $212 $47 $-1 $213 reversed single #
loop $-1 $-1 $214 $85 #
plane-surface $-1 0 0 -143.7885677663503 0 0 1 1 0 0 forward_v I I I I #
coedge $-1 $215 $216 $217 $218 forward $86 $-1 #
face $-1 $-1 $219 $48 $-1 $220 forward single #
loop $-1 $-1 $221 $88 #
plane-surface $-1 0 0 -1.25 0 0 -1 -1 0 0 forward_v I I I I #
loop $-1 $-1 $222 $62 #
coedge $-1 $141 $141 $221 $223 reversed $89 $-1 #
face $-1 $224 $225 $49 $-1 $226 reversed single #
loop $-1 $-1 $227 $91 #
plane-surface $-1 0 0 -143.7885677663503 0 0 1 1 0 0 forward_v I I I I #
coedge $-1 $228 $229 $230 $231 forward $92 $-1 #
face $-1 $-1 $232 $50 $-1 $233 forward single #
loop $-1 $-1 $234 $94 #
plane-surface $-1 0 0 -1.25 0 0 -1 -1 0 0 forward_v I I I I #
loop $-1 $-1 $235 $64 #
coedge $-1 $150 $150 $234 $236 reversed $95 $-1 #
face $-1 $237 $238 $51 $-1 $239 reversed single #
loop $-1 $-1 $240 $97 #
plane-surface $-1 0 0 -143.7885677663503 0 0 1 1 0 0 forward_v I I I I #
coedge $-1 $241 $242 $243 $244 forward $98 $-1 #
face $-1 $-1 $245 $52 $-1 $246 forward single #
loop $-1 $-1 $247 $100 #
plane-surface $-1 0 0 -1.25 0 0 -1 -1 0 0 forward_v I I I I #
loop $-1 $-1 $248 $66 #
coedge $-1 $159 $159 $247 $249 reversed $101 $-1 #
face $-1 $250 $251 $53 $-1 $252 reversed single #
loop $-1 $-1 $253 $103 #
plane-surface $-1 0 0 -143.7885677663503 0 0 1 1 0 0 forward_v I I I I #
coedge $-1 $254 $255 $256 $257 forward $104 $-1 #
face $-1 $-1 $258 $54 $-1 $259 forward single #
loop $-1 $-1 $260 $106 #
plane-surface $-1 0 0 -2.0740531632435104 0 0 -1 -1 0 0 forward_v I I I I #
loop $-1 $-1 $261 $68 #
coedge $-1 $168 $168 $260 $262 reversed $107 $-1 #
face $-1 $-1 $263 $55 $-1 $264 forward single #
loop $-1 $-1 $265 $109 #
plane-surface $-1 0 0 -2.0740531632435104 0 0 -1 -1 0 0 forward_v I I I I #
loop $-1 $-1 $266 $69 #
coedge $-1 $173 $173 $265 $267 reversed $110 $-1 #
face $-1 $268 $269 $42 $-1 $270 reversed single #
loop $-1 $-1 $271 $112 #
plane-surface $-1 0 -43.017649763894525 0 0 1 0 0 0 1 forward_v I I I I #
coedge $-1 $272 $273 $274 $275 forward $113 $-1 #
coedge $-1 $276 $115 $277 $278 forward $71 $-1 #
coedge $-1 $115 $276 $279 $280 forward $71 $-1 #
coedge $-1 $281 $282 $115 $181 reversed $283 $-1 #
edge $-1 $284 -43.017649763894525 $285 43.017649763894525 $180 $286 forward 7 unknown #
face $-1 $287 $288 $43 $-1 $289 reversed single #
loop $-1 $-1 $290 $116 #
plane-surface $-1 0 -6.5711067875181772 0 0 1 0 0 0 1 forward_v I I I I #
coedge $-1 $291 $292 $293 $294 forward $117 $-1 #
coedge $-1 $295 $119 $296 $297 forward $74 $-1 #
coedge $-1 $119 $295 $298 $299 forward $74 $-1 #
coedge $-1 $300 $301 $119 $189 reversed $302 $-1 #
edge $-1 $303 -6.5711067875181772 $304 6.5711067875181772 $188 $305 forward 7 unknown #
face $-1 $306 $307 $44 $-1 $308 reversed single #
loop $-1 $-1 $309 $120 #
plane-surface $-1 0 -6.5711067875181755 0 0 1 0 0 0 1 forward_v I I I I #
coedge $-1 $310 $311 $312 $313 forward $121 $-1 #
coedge $-1 $314 $123 $315 $316 forward $77 $-1 #
coedge $-1 $123 $314 $317 $318 forward $77 $-1 #
coedge $-1 $319 $320 $123 $197 reversed $321 $-1 #
edge $-1 $322 -6.5711067875181755 $323 6.5711067875181755 $196 $324 forward 7 unknown #
face $-1 $325 $326 $45 $-1 $327 reversed single #
loop $-1 $-1 $328 $124 #
plane-surface $-1 0 -4.7959165381589788 0 0 1 0 0 0 1 forward_v I I I I #
coedge $-1 $329 $330 $331 $332 forward $125 $-1 #
coedge $-1 $333 $127 $334 $335 forward $80 $-1 #
coedge $-1 $127 $333 $336 $337 forward $80 $-1 #
coedge $-1 $338 $339 $127 $205 reversed $340 $-1 #
edge $-1 $341 -4.7959165381589788 $342 4.7959165381589788 $204 $343 forward 7 unknown #
loop $-1 $344 $345 $128 #
cone-surface $-1 0 0 0 0 0 1 0.25 0 0 1 I I -0.70710678118654746 0.70710678118654746 0.25 forward I I I I #
coedge $-1 $208 $208 $132 $210 forward $129 $-1 #
coedge $-1 $209 $209 $345 $346 forward $131 $-1 #
edge $-1 $347 0 $347 6.2831853071796004 $208 $348 forward 7 unknown #
face $-1 $349 $350 $47 $-1 $351 reversed single #
loop $-1 $-1 $352 $133 #
plane-surface $-1 0 -4.7959165381589788 0 0 1 0 0 0 1 forward_v I I I I #
coedge $-1 $353 $354 $355 $356 forward $134 $-1 #
coedge $-1 $357 $136 $358 $359 forward $86 $-1 #
coedge $-1 $136 $357 $360 $361 forward $86 $-1 #
coedge $-1 $362 $363 $136 $218 reversed $364 $-1 #
edge $-1 $365 -4.7959165381589788 $366 4.7959165381589788 $217 $367 forward 7 unknown #
loop $-1 $368 $369 $137 #
cone-surface $-1 0 0 0 0 0 1 0.25 0 0 1 I I -0.70710678118654746 0.70710678118654746 0.25 forward I I I I #
coedge $-1 $221 $221 $141 $223 forward $138 $-1 #
coedge $-1 $222 $222 $369 $370 forward $140 $-1 #
edge $-1 $371 0 $371 6.2831853071796004 $221 $372 forward 7 unknown #
face $-1 $373 $374 $49 $-1 $375 reversed single #
loop $-1 $-1 $376 $142 #
plane-surface $-1 0 -4.7959165381589788 0 0 1 0 0 0 1 forward_v I I I I #
coedge $-1 $377 $378 $379 $380 forward $143 $-1 #
coedge $-1 $381 $145 $382 $383 forward $92 $-1 #
coedge $-1 $145 $381 $384 $385 forward $92 $-1 #
coedge $-1 $386 $387 $145 $231 reversed $388 $-1 #
edge $-1 $389 -4.7959165381589788 $390 4.7959165381589788 $230 $391 forward 7 unknown #
loop $-1 $392 $393 $146 #
cone-surface $-1 0 0 0 0 0 1 0.25 0 0 1 I I -0.70710678118654746 0.70710678118654746 0.25 forward I I I I #
coedge $-1 $234 $234 $150 $236 forward $147 $-1 #
coedge $-1 $235 $235 $393 $394 forward $149 $-1 #
edge $-1 $395 0 $395 6.2831853071796004 $234 $396 forward 7 unknown #
face $-1 $397 $398 $51 $-1 $399 reversed single #
loop $-1 $-1 $400 $151 #
plane-surface $-1 0 -4.7959165381589788 0 0 1 0 0 0 1 forward_v I I I I #
coedge $-1 $401 $402 $403 $404 forward $152 $-1 #
coedge $-1 $405 $154 $406 $407 forward $98 $-1 #
coedge $-1 $154 $405 $408 $409 forward $98 $-1 #
coedge $-1 $410 $411 $154 $244 reversed $412 $-1 #
edge $-1 $413 -4.7959165381589788 $414 4.7959165381589788 $243 $415 forward 7 unknown #
loop $-1 $416 $417 $155 #
cone-surface $-1 0 0 0 0 0 1 0.25 0 0 1 I I -0.70710678118654746 0.70710678118654746 0.25 forward I I I I #
coedge $-1 $247 $247 $159 $249 forward $156 $-1 #
coedge $-1 $248 $248 $417 $418 forward $158 $-1 #
edge $-1 $419 0 $419 6.2831853071796004 $247 $420 forward 7 unknown #
face $-1 $421 $422 $53 $-1 $423 reversed single #
loop $-1 $-1 $424 $160 #
plane-surface $-1 0 -6.6929114842679027 0 0 1 0 0 0 1 forward_v I I I I #
coedge $-1 $425 $426 $427 $428 forward $161 $-1 #
coedge $-1 $429 $163 $430 $431 forward $104 $-1 #
coedge $-1 $163 $429 $432 $433 forward $104 $-1 #
coedge $-1 $434 $435 $163 $257 reversed $436 $-1 #
edge $-1 $437 -6.6929114842679027 $438 6.6929114842679027 $256 $439 forward 7 unknown #
loop $-1 $440 $441 $164 #
cone-surface $-1 0 0 0 0 0 1 0.5 0 0 1 I I -0.70710678118654746 0.70710678118654746 0.5 forward I I I I #
coedge $-1 $260 $260 $168 $262 forward $165 $-1 #
coedge $-1 $261 $261 $441 $442 forward $167 $-1 #
edge $-1 $443 0 $443 6.2831853071796004 $260 $444 forward 7 unknown #
loop $-1 $445 $446 $169 #
cone-surface $-1 0 0 0 0 0 1 0.5 0 0 1 I I -0.70710678118654746 0.70710678118654746 0.5 forward I I I I #
coedge $-1 $265 $265 $173 $267 forward $170 $-1 #
coedge $-1 $266 $266 $446 $447 forward $172 $-1 #
edge $-1 $448 0 $448 6.2831853071796004 $265 $449 forward 7 unknown #
face $-1 $450 $451 $42 $-1 $452 reversed single #
loop $-1 $-1 $453 $174 #
plane-surface $-1 -71.894283883175149 0 0 1 0 0 0 0 -1 forward_v I I I I #
coedge $-1 $454 $279 $455 $456 forward $175 $-1 #
coedge $-1 $457 $177 $454 $458 forward $113 $-1 #
coedge $-1 $177 $457 $459 $460 forward $113 $-1 #
coedge $-1 $282 $281 $177 $275 reversed $283 $-1 #
edge $-1 $461 -43.017649763894525 $462 43.017649763894525 $274 $463 forward 7 unknown #
coedge $-1 $179 $178 $464 $465 forward $71 $-1 #
coedge $-1 $466 $467 $178 $278 reversed $451 $-1 #
edge $-1 $285 -71.894283883175149 $468 71.894283883175149 $277 $469 forward 7 unknown #
coedge $-1 $271 $470 $179 $280 reversed $175 $-1 #
edge $-1 $471 -71.894283883175149 $284 71.894283883175149 $279 $472 forward 7 unknown #
coedge $-1 $274 $180 $470 $473 forward $283 $-1 #
coedge $-1 $180 $274 $466 $474 reversed $283 $-1 #
loop $-1 $-1 $281 $450 #
vertex $-1 $181 $475 #
vertex $-1 $181 $476 #
straight-curve $-1 71.894283883175149 0 14.951216294934317 0 1 0 I I #
face $-1 $477 $478 $43 $-1 $479 reversed single #
loop $-1 $-1 $480 $182 #
plane-surface $-1 -71.894283883175149 0 0 1 0 0 0 0 -1 forward_v I I I I #
coedge $-1 $481 $298 $482 $483 forward $183 $-1 #
coedge $-1 $484 $185 $481 $485 forward $117 $-1 #
coedge $-1 $185 $484 $486 $487 forward $117 $-1 #
coedge $-1 $301 $300 $185 $294 reversed $302 $-1 #
edge $-1 $488 -6.5711067875181772 $489 6.5711067875181772 $293 $490 forward 7 unknown #
coedge $-1 $187 $186 $491 $492 forward $74 $-1 #
coedge $-1 $493 $494 $186 $297 reversed $478 $-1 #
edge $-1 $304 -71.894283883175149 $495 71.894283883175149 $296 $496 forward 7 unknown #
coedge $-1 $290 $497 $187 $299 reversed $183 $-1 #
edge $-1 $498 -71.894283883175149 $303 71.894283883175149 $298 $499 forward 7 unknown #
coedge $-1 $293 $188 $497 $500 forward $302 $-1 #
coedge $-1 $188 $293 $493 $501 reversed $302 $-1 #
loop $-1 $-1 $300 $477 #
vertex $-1 $189 $502 #
vertex $-1 $189 $503 #
straight-curve $-1 71.894283883175149 0 2.8174466767275295 0 1 0 I I #
face $-1 $504 $505 $44 $-1 $506 reversed single #
loop $-1 $-1 $507 $190 #
plane-surface $-1 -71.894283883175149 0 0 1 0 0 0 0 -1 forward_v I I I I #
coedge $-1 $508 $317 $509 $510 forward $191 $-1 #
coedge $-1 $511 $193 $508 $512 forward $121 $-1 #
coedge $-1 $193 $511 $513 $514 forward $121 $-1 #
coedge $-1 $320 $319 $193 $313 reversed $321 $-1 #
edge $-1 $515 -6.5711067875181755 $516 6.5711067875181755 $312 $517 forward 7 unknown #
coedge $-1 $195 $194 $518 $519 forward $77 $-1 #
coedge $-1 $520 $521 $194 $316 reversed $505 $-1 #
edge $-1 $323 -71.894283883175149 $522 71.894283883175149 $315 $523 forward 7 unknown #
coedge $-1 $309 $524 $195 $318 reversed $191 $-1 #
edge $-1 $525 -71.894283883175149 $322 71.894283883175149 $317 $526 forward 7 unknown #
coedge $-1 $312 $196 $524 $527 forward $321 $-1 #
coedge $-1 $196 $312 $520 $528 reversed $321 $-1 #
loop $-1 $-1 $319 $504 #
vertex $-1 $197 $529 #
vertex $-1 $197 $530 #
straight-curve $-1 71.894283883175149 0 2.8174466767275295 0 1 0 I I #
face $-1 $531 $532 $45 $-1 $533 reversed single #
loop $-1 $-1 $534 $198 #
plane-surface $-1 -287.57713553270059 0 0 1 0 0 0 0 -1 forward_v I I I I #
coedge $-1 $535 $336 $536 $537 forward $199 $-1 #
coedge $-1 $538 $201 $535 $539 forward $125 $-1 #
coedge $-1 $201 $538 $540 $541 forward $125 $-1 #
coedge $-1 $339 $338 $201 $332 reversed $340 $-1 #
edge $-1 $542 -4.7959165381589788 $543 4.7959165381589788 $331 $544 forward 7 unknown #
coedge $-1 $203 $202 $545 $546 forward $80 $-1 #
coedge $-1 $547 $548 $202 $335 reversed $532 $-1 #
edge $-1 $342 -287.57713553270059 $549 287.57713553270059 $334 $550 forward 7 unknown #
coedge $-1 $328 $551 $203 $337 reversed $199 $-1 #
edge $-1 $552 -287.57713553270059 $341 287.57713553270059 $336 $553 forward 7 unknown #
coedge $-1 $331 $204 $551 $554 forward $340 $-1 #
coedge $-1 $204 $331 $547 $555 reversed $340 $-1 #
loop $-1 $-1 $338 $531 #
vertex $-1 $205 $556 #
vertex $-1 $205 $557 #
straight-curve $-1 287.57713553270059 0 143.7885677663503 0 1 0 I I #
loop $-1 $-1 $558 $128 #
coedge $-1 $345 $345 $209 $346 reversed $206 $-1 #
edge $-1 $559 0 $559 6.2831853071796004 $345 $560 forward 7 unknown #
vertex $-1 $210 $561 #
ellipse-curve $-1 0 0 -1.25 0 0 -1 0.5 0 0 1 I I #
face $-1 $562 $563 $47 $-1 $564 reversed single #
loop $-1 $-1 $565 $211 #
plane-surface $-1 -287.57713553270059 0 0 1 0 0 0 0 -1 forward_v I I I I #
coedge $-1 $566 $360 $567 $568 forward $212 $-1 #
coedge $-1 $569 $214 $566 $570 forward $134 $-1 #
coedge $-1 $214 $569 $571 $572 forward $134 $-1 #
coedge $-1 $363 $362 $214 $356 reversed $364 $-1 #
edge $-1 $573 -4.7959165381589788 $574 4.7959165381589788 $355 $575 forward 7 unknown #
coedge $-1 $216 $215 $576 $577 forward $86 $-1 #
coedge $-1 $578 $579 $215 $359 reversed $563 $-1 #
edge $-1 $366 -287.57713553270059 $580 287.57713553270059 $358 $581 forward 7 unknown #
coedge $-1 $352 $582 $216 $361 reversed $212 $-1 #
edge $-1 $583 -287.57713553270059 $365 287.57713553270059 $360 $584 forward 7 unknown #
coedge $-1 $355 $217 $582 $585 forward $364 $-1 #
coedge $-1 $217 $355 $578 $586 reversed $364 $-1 #
loop $-1 $-1 $362 $562 #
vertex $-1 $218 $587 #
vertex $-1 $218 $588 #
straight-curve $-1 287.57713553270059 0 143.7885677663503 0 1 0 I I #
loop $-1 $-1 $589 $137 #
coedge $-1 $369 $369 $222 $370 reversed $219 $-1 #
edge $-1 $590 0 $590 6.2831853071796004 $369 $591 forward 7 unknown #
vertex $-1 $223 $592 #
ellipse-curve $-1 0 0 -1.25 0 0 -1 0.5 0 0 1 I I #
face $-1 $593 $594 $49 $-1 $595 reversed single #
loop $-1 $-1 $596 $224 #
plane-surface $-1 -287.57713553270059 0 0 1 0 0 0 0 -1 forward_v I I I I #
coedge $-1 $597 $384 $598 $599 forward $225 $-1 #
coedge $-1 $600 $227 $597 $601 forward $143 $-1 #
coedge $-1 $227 $600 $602 $603 forward $143 $-1 #
coedge $-1 $387 $386 $227 $380 reversed $388 $-1 #
edge $-1 $604 -4.7959165381589788 $605 4.7959165381589788 $379 $606 forward 7 unknown #
coedge $-1 $229 $228 $607 $608 forward $92 $-1 #
coedge $-1 $609 $610 $228 $383 reversed $594 $-1 #
edge $-1 $390 -287.57713553270059 $611 287.57713553270059 $382 $612 forward 7 unknown #
coedge $-1 $376 $613 $229 $385 reversed $225 $-1 #
edge $-1 $614 -287.57713553270059 $389 287.57713553270059 $384 $615 forward 7 unknown #
coedge $-1 $379 $230 $613 $616 forward $388 $-1 #
coedge $-1 $230 $379 $609 $617 reversed $388 $-1 #
loop $-1 $-1 $386 $593 #
vertex $-1 $231 $618 #
vertex $-1 $231 $619 #
straight-curve $-1 287.57713553270059 0 143.7885677663503 0 1 0 I I #
loop $-1 $-1 $620 $146 #
coedge $-1 $393 $393 $235 $394 reversed $232 $-1 #
edge $-1 $621 0 $621 6.2831853071796004 $393 $622 forward 7 unknown #
vertex $-1 $236 $623 #
ellipse-curve $-1 0 0 -1.25 0 0 -1 0.5 0 0 1 I I #
face $-1 $624 $625 $51 $-1 $626 reversed single #
loop $-1 $-1 $627 $237 #
plane-surface $-1 -287.57713553270059 0 0 1 0 0 0 0 -1 forward_v I I I I #
coedge $-1 $628 $408 $629 $630 forward $238 $-1 #
coedge $-1 $631 $240 $628 $632 forward $152 $-1 #
coedge $-1 $240 $631 $633 $634 forward $152 $-1 #
coedge $-1 $411 $410 $240 $404 reversed $412 $-1 #
edge $-1 $635 -4.7959165381589788 $636 4.7959165381589788 $403 $637 forward 7 unknown #
coedge $-1 $242 $241 $638 $639 forward $98 $-1 #
coedge $-1 $640 $641 $241 $407 reversed $625 $-1 #
edge $-1 $414 -287.57713553270059 $642 287.57713553270059 $406 $643 forward 7 unknown #
coedge $-1 $400 $644 $242 $409 reversed $238 $-1 #
edge $-1 $645 -287.57713553270059 $413 287.57713553270059 $408 $646 forward 7 unknown #
coedge $-1 $403 $243 $644 $647 forward $412 $-1 #
coedge $-1 $243 $403 $640 $648 reversed $412 $-1 #
loop $-1 $-1 $410 $624 #
vertex $-1 $244 $649 #
vertex $-1 $244 $650 #
straight-curve $-1 287.57713553270059 0 143.7885677663503 0 1 0 I I #
loop $-1 $-1 $651 $155 #
coedge $-1 $417 $417 $248 $418 reversed $245 $-1 #
edge $-1 $652 0 $652 6.2831853071796004 $417 $653 forward 7 unknown #
vertex $-1 $249 $654 #
ellipse-curve $-1 0 0 -1.25 0 0 -1 0.5 0 0 1 I I #
face $-1 $655 $656 $53 $-1 $657 reversed single #
loop $-1 $-1 $658 $250 #
plane-surface $-1 -287.57713553270059 0 0 1 0 0 0 0 -1 forward_v I I I I #
coedge $-1 $659 $432 $660 $661 forward $251 $-1 #
coedge $-1 $662 $253 $659 $663 forward $161 $-1 #
coedge $-1 $253 $662 $664 $665 forward $161 $-1 #
coedge $-1 $435 $434 $253 $428 reversed $436 $-1 #
edge $-1 $666 -6.6929114842679027 $667 6.6929114842679027 $427 $668 forward 7 unknown #
coedge $-1 $255 $254 $669 $670 forward $104 $-1 #
coedge $-1 $671 $672 $254 $431 reversed $656 $-1 #
edge $-1 $438 -287.57713553270059 $673 287.57713553270059 $430 $674 forward 7 unknown #
coedge $-1 $424 $675 $255 $433 reversed $251 $-1 #
edge $-1 $676 -287.57713553270059 $437 287.57713553270059 $432 $677 forward 7 unknown #
coedge $-1 $427 $256 $675 $678 forward $436 $-1 #
coedge $-1 $256 $427 $671 $679 reversed $436 $-1 #
loop $-1 $-1 $434 $655 #
vertex $-1 $257 $680 #
vertex $-1 $257 $681 #
straight-curve $-1 287.57713553270059 0 143.7885677663503 0 1 0 I I #
loop $-1 $-1 $682 $164 #
coedge $-1 $441 $441 $261 $442 reversed $258 $-1 #
edge $-1 $683 0 $683 6.2831853071796004 $441 $684 forward 7 unknown #
vertex $-1 $262 $685 #
ellipse-curve $-1 0 0 -2.0740531632435104 0 0 -1 1 0 0 1 I I #
loop $-1 $-1 $686 $169 #
coedge $-1 $446 $446 $266 $447 reversed $263 $-1 #
edge $-1 $687 0 $687 6.2831853071796004 $446 $688 forward 7 unknown #
vertex $-1 $267 $689 #
ellipse-curve $-1 0 0 -2.0740531632435104 0 0 -1 1 0 0 1 I I #
face $-1 $-1 $283 $42 $-1 $690 reversed single #
loop $-1 $-1 $466 $268 #
plane-surface $-1 0 43.017649763894525 0 0 -1 0 0 0 -1 forward_v I I I I #
coedge $-1 $691 $464 $467 $692 forward $269 $-1 #
coedge $-1 $470 $271 $272 $458 reversed $175 $-1 #
coedge $-1 $464 $691 $271 $456 reversed $269 $-1 #
edge $-1 $471 -14.951216294934317 $693 14.951216294934317 $455 $694 forward 7 unknown #
coedge $-1 $273 $272 $691 $695 forward $113 $-1 #
edge $-1 $462 -71.894283883175149 $693 71.894283883175149 $454 $696 forward 7 unknown #
coedge $-1 $467 $466 $273 $460 reversed $451 $-1 #
edge $-1 $697 -71.894283883175149 $461 71.894283883175149 $459 $698 forward 7 unknown #
vertex $-1 $275 $699 #
vertex $-1 $473 $700 #
straight-curve $-1 71.894283883175149 0 -14.951216294934317 0 -1 0 I I #
coedge $-1 $453 $455 $276 $465 reversed $269 $-1 #
edge $-1 $468 -43.017649763894525 $471 43.017649763894525 $464 $701 forward 7 unknown #
coedge $-1 $459 $277 $282 $474 forward $451 $-1 #
coedge $-1 $277 $459 $453 $692 reversed $451 $-1 #
vertex $-1 $278 $702 #
straight-curve $-1 0 43.017649763894525 14.951216294934317 -1 0 0 I I #
coedge $-1 $279 $454 $281 $473 reversed $175 $-1 #
vertex $-1 $465 $703 #
straight-curve $-1 0 -43.017649763894525 14.951216294934317 1 0 0 I I #
edge $-1 $284 -14.951216294934317 $462 14.951216294934317 $281 $704 forward 7 unknown #
edge $-1 $285 -14.951216294934317 $461 14.951216294934317 $282 $705 forward 7 unknown #
point $-1 71.894283883175149 -43.017649763894525 14.951216294934317 #
point $-1 71.894283883175149 43.017649763894525 14.951216294934317 #
face $-1 $-1 $302 $43 $-1 $706 reversed single #
loop $-1 $-1 $493 $287 #
plane-surface $-1 0 6.5711067875181772 0 0 -1 0 0 0 -1 forward_v I I I I #
coedge $-1 $707 $491 $494 $708 forward $288 $-1 #
coedge $-1 $497 $290 $291 $485 reversed $183 $-1 #
coedge $-1 $491 $707 $290 $483 reversed $288 $-1 #
edge $-1 $498 -2.8174466767275295 $709 2.8174466767275295 $482 $710 forward 7 unknown #
coedge $-1 $292 $291 $707 $711 forward $117 $-1 #
edge $-1 $489 -71.894283883175149 $709 71.894283883175149 $481 $712 forward 7 unknown #
coedge $-1 $494 $493 $292 $487 reversed $478 $-1 #
edge $-1 $713 -71.894283883175149 $488 71.894283883175149 $486 $714 forward 7 unknown #
vertex $-1 $294 $715 #
vertex $-1 $500 $716 #
straight-curve $-1 71.894283883175149 0 -2.8174466767275295 0 -1 0 I I #
coedge $-1 $480 $482 $295 $492 reversed $288 $-1 #
edge $-1 $495 -6.5711067875181772 $498 6.5711067875181772 $491 $717 forward 7 unknown #
coedge $-1 $486 $296 $301 $501 forward $478 $-1 #
coedge $-1 $296 $486 $480 $708 reversed $478 $-1 #
vertex $-1 $297 $718 #
straight-curve $-1 0 6.5711067875181772 2.8174466767275295 -1 0 0 I I #
coedge $-1 $298 $481 $300 $500 reversed $183 $-1 #
vertex $-1 $492 $719 #
straight-curve $-1 0 -6.5711067875181772 2.8174466767275295 1 0 0 I I #
edge $-1 $303 -2.8174466767275295 $489 2.8174466767275295 $300 $720 forward 7 unknown #
edge $-1 $304 -2.8174466767275295 $488 2.8174466767275295 $301 $721 forward 7 unknown #
point $-1 71.894283883175149 -6.5711067875181772 2.8174466767275295 #
point $-1 71.894283883175149 6.5711067875181772 2.8174466767275295 #
face $-1 $-1 $321 $44 $-1 $722 reversed single #
loop $-1 $-1 $520 $306 #
plane-surface $-1 0 6.5711067875181755 0 0 -1 0 0 0 -1 forward_v I I I I #
coedge $-1 $723 $518 $521 $724 forward $307 $-1 #
coedge $-1 $524 $309 $310 $512 reversed $191 $-1 #
coedge $-1 $518 $723 $309 $510 reversed $307 $-1 #
edge $-1 $525 -2.8174466767275295 $725 2.8174466767275295 $509 $726 forward 7 unknown #
coedge $-1 $311 $310 $723 $727 forward $121 $-1 #
edge $-1 $516 -71.894283883175149 $725 71.894283883175149 $508 $728 forward 7 unknown #
coedge $-1 $521 $520 $311 $514 reversed $505 $-1 #
edge $-1 $729 -71.894283883175149 $515 71.894283883175149 $513 $730 forward 7 unknown #
vertex $-1 $313 $731 #
vertex $-1 $527 $732 #
straight-curve $-1 71.894283883175149 0 -2.8174466767275295 0 -1 0 I I #
coedge $-1 $507 $509 $314 $519 reversed $307 $-1 #
edge $-1 $522 -6.5711067875181755 $525 6.5711067875181755 $518 $733 forward 7 unknown #
coedge $-1 $513 $315 $320 $528 forward $505 $-1 #
coedge $-1 $315 $513 $507 $724 reversed $505 $-1 #
vertex $-1 $316 $734 #
straight-curve $-1 0 6.5711067875181755 2.8174466767275295 -1 0 0 I I #
coedge $-1 $317 $508 $319 $527 reversed $191 $-1 #
vertex $-1 $519 $735 #
straight-curve $-1 0 -6.5711067875181755 2.8174466767275295 1 0 0 I I #
edge $-1 $322 -2.8174466767275295 $516 2.8174466767275295 $319 $736 forward 7 unknown #
edge $-1 $323 -2.8174466767275295 $515 2.8174466767275295 $320 $737 forward 7 unknown #
point $-1 71.894283883175149 -6.5711067875181755 2.8174466767275295 #
point $-1 71.894283883175149 6.5711067875181755 2.8174466767275295 #
face $-1 $-1 $340 $45 $-1 $738 reversed single #
loop $-1 $-1 $547 $325 #
plane-surface $-1 0 4.7959165381589788 0 0 -1 0 0 0 -1 forward_v I I I I #
coedge $-1 $739 $545 $548 $740 forward $326 $-1 #
coedge $-1 $551 $328 $329 $539 reversed $199 $-1 #
coedge $-1 $545 $739 $328 $537 reversed $326 $-1 #
edge $-1 $552 -143.7885677663503 $741 143.7885677663503 $536 $742 forward 7 unknown #
coedge $-1 $330 $329 $739 $743 forward $125 $-1 #
edge $-1 $543 -287.57713553270059 $741 287.57713553270059 $535 $744 forward 7 unknown #
coedge $-1 $548 $547 $330 $541 reversed $532 $-1 #
edge $-1 $745 -287.57713553270059 $542 287.57713553270059 $540 $746 forward 7 unknown #
vertex $-1 $332 $747 #
vertex $-1 $554 $748 #
straight-curve $-1 287.57713553270059 0 -143.7885677663503 0 -1 0 I I #
coedge $-1 $534 $536 $333 $546 reversed $326 $-1 #
edge $-1 $549 -4.7959165381589788 $552 4.7959165381589788 $545 $749 forward 7 unknown #
coedge $-1 $540 $334 $339 $555 forward $532 $-1 #
coedge $-1 $334 $540 $534 $740 reversed $532 $-1 #
vertex $-1 $335 $750 #
straight-curve $-1 0 4.7959165381589788 143.7885677663503 -1 0 0 I I #
coedge $-1 $336 $535 $338 $554 reversed $199 $-1 #
vertex $-1 $546 $751 #
straight-curve $-1 0 -4.7959165381589788 143.7885677663503 1 0 0 I I #
edge $-1 $341 -143.7885677663503 $543 143.7885677663503 $338 $752 forward 7 unknown #
edge $-1 $342 -143.7885677663503 $542 143.7885677663503 $339 $753 forward 7 unknown #
point $-1 287.57713553270059 -4.7959165381589788 143.7885677663503 #
point $-1 287.57713553270059 4.7959165381589788 143.7885677663503 #
coedge $-1 $558 $558 $-1 $754 reversed $344 $-1 #
vertex $-1 $346 $755 #
ellipse-curve $-1 0 0 -0.25 0 0 -1 0.5 0 0 1 I I #
point $-1 0.5 0 -1.25 #
face $-1 $-1 $364 $47 $-1 $756 reversed single #
loop $-1 $-1 $578 $349 #
plane-surface $-1 0 4.7959165381589788 0 0 -1 0 0 0 -1 forward_v I I I I #
coedge $-1 $757 $576 $579 $758 forward $350 $-1 #
coedge $-1 $582 $352 $353 $570 reversed $212 $-1 #
coedge $-1 $576 $757 $352 $568 reversed $350 $-1 #
edge $-1 $583 -143.7885677663503 $759 143.7885677663503 $567 $760 forward 7 unknown #
coedge $-1 $354 $353 $757 $761 forward $134 $-1 #
edge $-1 $574 -287.57713553270059 $759 287.57713553270059 $566 $762 forward 7 unknown #
coedge $-1 $579 $578 $354 $572 reversed $563 $-1 #
edge $-1 $763 -287.57713553270059 $573 287.57713553270059 $571 $764 forward 7 unknown #
vertex $-1 $356 $765 #
vertex $-1 $585 $766 #
straight-curve $-1 287.57713553270059 0 -143.7885677663503 0 -1 0 I I #
coedge $-1 $565 $567 $357 $577 reversed $350 $-1 #
edge $-1 $580 -4.7959165381589788 $583 4.7959165381589788 $576 $767 forward 7 unknown #
coedge $-1 $571 $358 $363 $586 forward $563 $-1 #
coedge $-1 $358 $571 $565 $758 reversed $563 $-1 #
vertex $-1 $359 $768 #
straight-curve $-1 0 4.7959165381589788 143.7885677663503 -1 0 0 I I #
coedge $-1 $360 $566 $362 $585 reversed $212 $-1 #
vertex $-1 $577 $769 #
straight-curve $-1 0 -4.7959165381589788 143.7885677663503 1 0 0 I I #
edge $-1 $365 -143.7885677663503 $574 143.7885677663503 $362 $770 forward 7 unknown #
edge $-1 $366 -143.7885677663503 $573 143.7885677663503 $363 $771 forward 7 unknown #
point $-1 287.57713553270059 -4.7959165381589788 143.7885677663503 #
point $-1 287.57713553270059 4.7959165381589788 143.7885677663503 #
coedge $-1 $589 $589 $-1 $772 reversed $368 $-1 #
vertex $-1 $370 $773 #
ellipse-curve $-1 0 0 -0.25 0 0 -1 0.5 0 0 1 I I #
point $-1 0.5 0 -1.25 #
face $-1 $-1 $388 $49 $-1 $774 reversed single #
loop $-1 $-1 $609 $373 #
plane-surface $-1 0 4.7959165381589788 0 0 -1 0 0 0 -1 forward_v I I I I #
coedge $-1 $775 $607 $610 $776 forward $374 $-1 #
coedge $-1 $613 $376 $377 $601 reversed $225 $-1 #
coedge $-1 $607 $775 $376 $599 reversed $374 $-1 #
edge $-1 $614 -143.7885677663503 $777 143.7885677663503 $598 $778 forward 7 unknown #
coedge $-1 $378 $377 $775 $779 forward $143 $-1 #
edge $-1 $605 -287.57713553270059 $777 287.57713553270059 $597 $780 forward 7 unknown #
coedge $-1 $610 $609 $378 $603 reversed $594 $-1 #
edge $-1 $781 -287.57713553270059 $604 287.57713553270059 $602 $782 forward 7 unknown #
vertex $-1 $380 $783 #
vertex $-1 $616 $784 #
straight-curve $-1 287.57713553270059 0 -143.7885677663503 0 -1 0 I I #
coedge $-1 $596 $598 $381 $608 reversed $374 $-1 #
edge $-1 $611 -4.7959165381589788 $614 4.7959165381589788 $607 $785 forward 7 unknown #
coedge $-1 $602 $382 $387 $617 forward $594 $-1 #
coedge $-1 $382 $602 $596 $776 reversed $594 $-1 #
vertex $-1 $383 $786 #
straight-curve $-1 0 4.7959165381589788 143.7885677663503 -1 0 0 I I #
coedge $-1 $384 $597 $386 $616 reversed $225 $-1 #
vertex $-1 $608 $787 #
straight-curve $-1 0 -4.7959165381589788 143.7885677663503 1 0 0 I I #
edge $-1 $389 -143.7885677663503 $605 143.7885677663503 $386 $788 forward 7 unknown #
edge $-1 $390 -143.7885677663503 $604 143.7885677663503 $387 $789 forward 7 unknown #
point $-1 287.57713553270059 -4.7959165381589788 143.7885677663503 #
point $-1 287.57713553270059 4.7959165381589788 143.7885677663503 #
coedge $-1 $620 $620 $-1 $790 reversed $392 $-1 #
vertex $-1 $394 $791 #
ellipse-curve $-1 0 0 -0.25 0 0 -1 0.5 0 0 1 I I #
point $-1 0.5 0 -1.25 #
face $-1 $-1 $412 $51 $-1 $792 reversed single #
loop $-1 $-1 $640 $397 #
plane-surface $-1 0 4.7959165381589788 0 0 -1 0 0 0 -1 forward_v I I I I #
coedge $-1 $793 $638 $641 $794 forward $398 $-1 #
coedge $-1 $644 $400 $401 $632 reversed $238 $-1 #
coedge $-1 $638 $793 $400 $630 reversed $398 $-1 #
edge $-1 $645 -143.7885677663503 $795 143.7885677663503 $629 $796 forward 7 unknown #
coedge $-1 $402 $401 $793 $797 forward $152 $-1 #
edge $-1 $636 -287.57713553270059 $795 287.57713553270059 $628 $798 forward 7 unknown #
coedge $-1 $641 $640 $402 $634 reversed $625 $-1 #
edge $-1 $799 -287.57713553270059 $635 287.57713553270059 $633 $800 forward 7 unknown #
vertex $-1 $404 $801 #
vertex $-1 $647 $802 #
straight-curve $-1 287.57713553270059 0 -143.7885677663503 0 -1 0 I I #
coedge $-1 $627 $629 $405 $639 reversed $398 $-1 #
edge $-1 $642 -4.7959165381589788 $645 4.7959165381589788 $638 $803 forward 7 unknown #
coedge $-1 $633 $406 $411 $648 forward $625 $-1 #
coedge $-1 $406 $633 $627 $794 reversed $625 $-1 #
vertex $-1 $407 $804 #
straight-curve $-1 0 4.7959165381589788 143.7885677663503 -1 0 0 I I #
coedge $-1 $408 $628 $410 $647 reversed $238 $-1 #
vertex $-1 $639 $805 #
straight-curve $-1 0 -4.7959165381589788 143.7885677663503 1 0 0 I I #
edge $-1 $413 -143.7885677663503 $636 143.7885677663503 $410 $806 forward 7 unknown #
edge $-1 $414 -143.7885677663503 $635 143.7885677663503 $411 $807 forward 7 unknown #
point $-1 287.57713553270059 -4.7959165381589788 143.7885677663503 #
point $-1 287.57713553270059 4.7959165381589788 143.7885677663503 #
coedge $-1 $651 $651 $-1 $808 reversed $416 $-1 #
vertex $-1 $418 $809 #
ellipse-curve $-1 0 0 -0.25 0 0 -1 0.5 0 0 1 I I #
point $-1 0.5 0 -1.25 #
face $-1 $-1 $436 $53 $-1 $810 reversed single #
loop $-1 $-1 $671 $421 #
plane-surface $-1 0 6.6929114842679027 0 0 -1 0 0 0 -1 forward_v I I I I #
coedge $-1 $811 $669 $672 $812 forward $422 $-1 #
coedge $-1 $675 $424 $425 $663 reversed $251 $-1 #
coedge $-1 $669 $811 $424 $661 reversed $422 $-1 #
edge $-1 $676 -143.7885677663503 $813 143.7885677663503 $660 $814 forward 7 unknown #
coedge $-1 $426 $425 $811 $815 forward $161 $-1 #
edge $-1 $667 -287.57713553270059 $813 287.57713553270059 $659 $816 forward 7 unknown #
coedge $-1 $672 $671 $426 $665 reversed $656 $-1 #
edge $-1 $817 -287.57713553270059 $666 287.57713553270059 $664 $818 forward 7 unknown #
vertex $-1 $428 $819 #
vertex $-1 $678 $820 #
straight-curve $-1 287.57713553270059 0 -143.7885677663503 0 -1 0 I I #
coedge $-1 $658 $660 $429 $670 reversed $422 $-1 #
edge $-1 $673 -6.6929114842679027 $676 6.6929114842679027 $669 $821 forward 7 unknown #
coedge $-1 $664 $430 $435 $679 forward $656 $-1 #
coedge $-1 $430 $664 $658 $812 reversed $656 $-1 #
vertex $-1 $431 $822 #
straight-curve $-1 0 6.6929114842679027 143.7885677663503 -1 0 0 I I #
coedge $-1 $432 $659 $434 $678 reversed $251 $-1 #
vertex $-1 $670 $823 #
straight-curve $-1 0 -6.6929114842679027 143.7885677663503 1 0 0 I I #
edge $-1 $437 -143.7885677663503 $667 143.7885677663503 $434 $824 forward 7 unknown #
edge $-1 $438 -143.7885677663503 $666 143.7885677663503 $435 $825 forward 7 unknown #
point $-1 287.57713553270059 -6.6929114842679027 143.7885677663503 #
point $-1 287.57713553270059 6.6929114842679027 143.7885677663503 #
coedge $-1 $682 $682 $-1 $826 reversed $440 $-1 #
vertex $-1 $442 $827 #
ellipse-curve $-1 0 0 -0.5 0 0 -1 1 0 0 1 I I #
point $-1 1 0 -2.0740531632435104 #
coedge $-1 $686 $686 $-1 $828 reversed $445 $-1 #
vertex $-1 $447 $829 #
ellipse-curve $-1 0 0 -0.5 0 0 -1 1 0 0 1 I I #
point $-1 1 0 -2.0740531632435104 #
plane-surface $-1 71.894283883175149 0 0 -1 0 0 0 0 1 forward_v I I I I #
coedge $-1 $455 $453 $457 $695 reversed $269 $-1 #
edge $-1 $468 -14.951216294934317 $697 14.951216294934317 $467 $830 forward 7 unknown #
vertex $-1 $695 $831 #
straight-curve $-1 -71.894283883175149 -43.017649763894525 0 0 0 -1 I I #
edge $-1 $693 -43.017649763894525 $697 43.017649763894525 $691 $832 forward 7 unknown #
straight-curve $-1 0 -43.017649763894525 -14.951216294934317 -1 0 0 I I #
vertex $-1 $460 $833 #
straight-curve $-1 0 43.017649763894525 -14.951216294934317 1 0 0 I I #
point $-1 71.894283883175149 43.017649763894525 -14.951216294934317 #
point $-1 71.894283883175149 -43.017649763894525 -14.951216294934317 #
straight-curve $-1 -71.894283883175149 0 14.951216294934317 0 -1 0 I I #
point $-1 -71.894283883175149 43.017649763894525 14.951216294934317 #
point $-1 -71.894283883175149 -43.017649763894525 14.951216294934317 #
straight-curve $-1 71.894283883175149 -43.017649763894525 0 0 0 -1 I I #
straight-curve $-1 71.894283883175149 43.017649763894525 0 0 0 -1 I I #
plane-surface $-1 71.894283883175149 0 0 -1 0 0 0 0 1 forward_v I I I I #
coedge $-1 $482 $480 $484 $711 reversed $288 $-1 #
edge $-1 $495 -2.8174466767275295 $713 2.8174466767275295 $494 $834 forward 7 unknown #
vertex $-1 $711 $835 #
straight-curve $-1 -71.894283883175149 -6.5711067875181772 0 0 0 -1 I I #
edge $-1 $709 -6.5711067875181772 $713 6.5711067875181772 $707 $836 forward 7 unknown #
straight-curve $-1 0 -6.5711067875181772 -2.8174466767275295 -1 0 0 I I #
vertex $-1 $487 $837 #
straight-curve $-1 0 6.5711067875181772 -2.8174466767275295 1 0 0 I I #
point $-1 71.894283883175149 6.5711067875181772 -2.8174466767275295 #
point $-1 71.894283883175149 -6.5711067875181772 -2.8174466767275295 #
straight-curve $-1 -71.894283883175149 0 2.8174466767275295 0 -1 0 I I #
point $-1 -71.894283883175149 6.5711067875181772 2.8174466767275295 #
point $-1 -71.894283883175149 -6.5711067875181772 2.8174466767275295 #
straight-curve $-1 71.894283883175149 -6.5711067875181772 0 0 0 -1 I I #
straight-curve $-1 71.894283883175149 6.5711067875181772 0 0 0 -1 I I #
plane-surface $-1 71.894283883175149 0 0 -1 0 0 0 0 1 forward_v I I I I #
coedge $-1 $509 $507 $511 $727 reversed $307 $-1 #
edge $-1 $522 -2.8174466767275295 $729 2.8174466767275295 $521 $838 forward 7 unknown #
vertex $-1 $727 $839 #
straight-curve $-1 -71.894283883175149 -6.5711067875181755 0 0 0 -1 I I #
edge $-1 $725 -6.5711067875181755 $729 6.5711067875181755 $723 $840 forward 7 unknown #
straight-curve $-1 0 -6.5711067875181755 -2.8174466767275295 -1 0 0 I I #
vertex $-1 $514 $841 #
straight-curve $-1 0 6.5711067875181755 -2.8174466767275295 1 0 0 I I #
point $-1 71.894283883175149 6.5711067875181755 -2.8174466767275295 #
point $-1 71.894283883175149 -6.5711067875181755 -2.8174466767275295 #
straight-curve $-1 -71.894283883175149 0 2.8174466767275295 0 -1 0 I I #
point $-1 -71.894283883175149 6.5711067875181755 2.8174466767275295 #
point $-1 -71.894283883175149 -6.5711067875181755 2.8174466767275295 #
straight-curve $-1 71.894283883175149 -6.5711067875181755 0 0 0 -1 I I #
straight-curve $-1 71.894283883175149 6.5711067875181755 0 0 0 -1 I I #
plane-surface $-1 287.57713553270059 0 0 -1 0 0 0 0 1 forward_v I I I I #
coedge $-1 $536 $534 $538 $743 reversed $326 $-1 #
edge $-1 $549 -143.7885677663503 $745 143.7885677663503 $548 $842 forward 7 unknown #
vertex $-1 $743 $843 #
straight-curve $-1 -287.57713553270059 -4.7959165381589788 0 0 0 -1 I I #
edge $-1 $741 -4.7959165381589788 $745 4.7959165381589788 $739 $844 forward 7 unknown #
straight-curve $-1 0 -4.7959165381589788 -143.7885677663503 -1 0 0 I I #
vertex $-1 $541 $845 #
straight-curve $-1 0 4.7959165381589788 -143.7885677663503 1 0 0 I I #
point $-1 287.57713553270059 4.7959165381589788 -143.7885677663503 #
point $-1 287.57713553270059 -4.7959165381589788 -143.7885677663503 #
straight-curve $-1 -287.57713553270059 0 143.7885677663503 0 -1 0 I I #
point $-1 -287.57713553270059 4.7959165381589788 143.7885677663503 #
point $-1 -287.57713553270059 -4.7959165381589788 143.7885677663503 #
straight-curve $-1 287.57713553270059 -4.7959165381589788 0 0 0 -1 I I #
straight-curve $-1 287.57713553270059 4.7959165381589788 0 0 0 -1 I I #
edge $-1 $846 1 $846 0 $558 $-1 forward 7 unknown #
point $-1 0.5 0 -0.25 #
plane-surface $-1 287.57713553270059 0 0 -1 0 0 0 0 1 forward_v I I I I #
coedge $-1 $567 $565 $569 $761 reversed $350 $-1 #
edge $-1 $580 -143.7885677663503 $763 143.7885677663503 $579 $847 forward 7 unknown #
vertex $-1 $761 $848 #
straight-curve $-1 -287.57713553270059 -4.7959165381589788 0 0 0 -1 I I #
edge $-1 $759 -4.7959165381589788 $763 4.7959165381589788 $757 $849 forward 7 unknown #
straight-curve $-1 0 -4.7959165381589788 -143.7885677663503 -1 0 0 I I #
vertex $-1 $572 $850 #
straight-curve $-1 0 4.7959165381589788 -143.7885677663503 1 0 0 I I #
point $-1 287.57713553270059 4.7959165381589788 -143.7885677663503 #
point $-1 287.57713553270059 -4.7959165381589788 -143.7885677663503 #
straight-curve $-1 -287.57713553270059 0 143.7885677663503 0 -1 0 I I #
point $-1 -287.57713553270059 4.7959165381589788 143.7885677663503 #
point $-1 -287.57713553270059 -4.7959165381589788 143.7885677663503 #
straight-curve $-1 287.57713553270059 -4.7959165381589788 0 0 0 -1 I I #
straight-curve $-1 287.57713553270059 4.7959165381589788 0 0 0 -1 I I #
edge $-1 $851 1 $851 0 $589 $-1 forward 7 unknown #
point $-1 0.5 0 -0.25 #
plane-surface $-1 287.57713553270059 0 0 -1 0 0 0 0 1 forward_v I I I I #
coedge $-1 $598 $596 $600 $779 reversed $374 $-1 #
edge $-1 $611 -143.7885677663503 $781 143.7885677663503 $610 $852 forward 7 unknown #
vertex $-1 $779 $853 #
straight-curve $-1 -287.57713553270059 -4.7959165381589788 0 0 0 -1 I I #
edge $-1 $777 -4.7959165381589788 $781 4.7959165381589788 $775 $854 forward 7 unknown #
straight-curve $-1 0 -4.7959165381589788 -143.7885677663503 -1 0 0 I I #
vertex $-1 $603 $855 #
straight-curve $-1 0 4.7959165381589788 -143.7885677663503 1 0 0 I I #
point $-1 287.57713553270059 4.7959165381589788 -143.7885677663503 #
point $-1 287.57713553270059 -4.7959165381589788 -143.7885677663503 #
straight-curve $-1 -287.57713553270059 0 143.7885677663503 0 -1 0 I I #
point $-1 -287.57713553270059 4.7959165381589788 143.7885677663503 #
point $-1 -287.57713553270059 -4.7959165381589788 143.7885677663503 #
straight-curve $-1 287.57713553270059 -4.7959165381589788 0 0 0 -1 I I #
straight-curve $-1 287.57713553270059 4.7959165381589788 0 0 0 -1 I I #
edge $-1 $856 1 $856 0 $620 $-1 forward 7 unknown #
point $-1 0.5 0 -0.25 #
plane-surface $-1 287.57713553270059 0 0 -1 0 0 0 0 1 forward_v I I I I #
coedge $-1 $629 $627 $631 $797 reversed $398 $-1 #
edge $-1 $642 -143.7885677663503 $799 143.7885677663503 $641 $857 forward 7 unknown #
vertex $-1 $797 $858 #
straight-curve $-1 -287.57713553270059 -4.7959165381589788 0 0 0 -1 I I #
edge $-1 $795 -4.7959165381589788 $799 4.7959165381589788 $793 $859 forward 7 unknown #
straight-curve $-1 0 -4.7959165381589788 -143.7885677663503 -1 0 0 I I #
vertex $-1 $634 $860 #
straight-curve $-1 0 4.7959165381589788 -143.7885677663503 1 0 0 I I #
point $-1 287.57713553270059 4.7959165381589788 -143.7885677663503 #
point $-1 287.57713553270059 -4.7959165381589788 -143.7885677663503 #
straight-curve $-1 -287.57713553270059 0 143.7885677663503 0 -1 0 I I #
point $-1 -287.57713553270059 4.7959165381589788 143.7885677663503 #
point $-1 -287.57713553270059 -4.7959165381589788 143.7885677663503 #
straight-curve $-1 287.57713553270059 -4.7959165381589788 0 0 0 -1 I I #
straight-curve $-1 287.57713553270059 4.7959165381589788 0 0 0 -1 I I #
edge $-1 $861 1 $861 0 $651 $-1 forward 7 unknown #
point $-1 0.5 0 -0.25 #
plane-surface $-1 287.57713553270059 0 0 -1 0 0 0 0 1 forward_v I I I I #
coedge $-1 $660 $658 $662 $815 reversed $422 $-1 #
edge $-1 $673 -143.7885677663503 $817 143.7885677663503 $672 $862 forward 7 unknown #
vertex $-1 $815 $863 #
straight-curve $-1 -287.57713553270059 -6.6929114842679027 0 0 0 -1 I I #
edge $-1 $813 -6.6929114842679027 $817 6.6929114842679027 $811 $864 forward 7 unknown #
straight-curve $-1 0 -6.6929114842679027 -143.7885677663503 -1 0 0 I I #
vertex $-1 $665 $865 #
straight-curve $-1 0 6.6929114842679027 -143.7885677663503 1 0 0 I I #
point $-1 287.57713553270059 6.6929114842679027 -143.7885677663503 #
point $-1 287.57713553270059 -6.6929114842679027 -143.7885677663503 #
straight-curve $-1 -287.57713553270059 0 143.7885677663503 0 -1 0 I I #
point $-1 -287.57713553270059 6.6929114842679027 143.7885677663503 #
point $-1 -287.57713553270059 -6.6929114842679027 143.7885677663503 #
straight-curve $-1 287.57713553270059 -6.6929114842679027 0 0 0 -1 I I #
straight-curve $-1 287.57713553270059 6.6929114842679027 0 0 0 -1 I I #
edge $-1 $866 1 $866 0 $682 $-1 forward 7 unknown #
point $-1 1 0 -0.5 #
edge $-1 $867 1 $867 0 $686 $-1 forward 7 unknown #
point $-1 1 0 -0.5 #
straight-curve $-1 -71.894283883175149 43.017649763894525 0 0 0 -1 I I #
point $-1 -71.894283883175149 -43.017649763894525 -14.951216294934317 #
straight-curve $-1 -71.894283883175149 0 -14.951216294934317 0 1 0 I I #
point $-1 -71.894283883175149 43.017649763894525 -14.951216294934317 #
straight-curve $-1 -71.894283883175149 6.5711067875181772 0 0 0 -1 I I #
point $-1 -71.894283883175149 -6.5711067875181772 -2.8174466767275295 #
straight-curve $-1 -71.894283883175149 0 -2.8174466767275295 0 1 0 I I #
point $-1 -71.894283883175149 6.5711067875181772 -2.8174466767275295 #
straight-curve $-1 -71.894283883175149 6.5711067875181755 0 0 0 -1 I I #
point $-1 -71.894283883175149 -6.5711067875181755 -2.8174466767275295 #
straight-curve $-1 -71.894283883175149 0 -2.8174466767275295 0 1 0 I I #
point $-1 -71.894283883175149 6.5711067875181755 -2.8174466767275295 #
straight-curve $-1 -287.57713553270059 4.7959165381589788 0 0 0 -1 I I #
point $-1 -287.57713553270059 -4.7959165381589788 -143.7885677663503 #
straight-curve $-1 -287.57713553270059 0 -143.7885677663503 0 1 0 I I #
point $-1 -287.57713553270059 4.7959165381589788 -143.7885677663503 #
vertex $-1 $754 $868 #
straight-curve $-1 -287.57713553270059 4.7959165381589788 0 0 0 -1 I I #
point $-1 -287.57713553270059 -4.7959165381589788 -143.7885677663503 #
straight-curve $-1 -287.57713553270059 0 -143.7885677663503 0 1 0 I I #
point $-1 -287.57713553270059 4.7959165381589788 -143.7885677663503 #
vertex $-1 $772 $869 #
straight-curve $-1 -287.57713553270059 4.7959165381589788 0 0 0 -1 I I #
point $-1 -287.57713553270059 -4.7959165381589788 -143.7885677663503 #
straight-curve $-1 -287.57713553270059 0 -143.7885677663503 0 1 0 I I #
point $-1 -287.57713553270059 4.7959165381589788 -143.7885677663503 #
vertex $-1 $790 $870 #
straight-curve $-1 -287.57713553270059 4.7959165381589788 0 0 0 -1 I I #
point $-1 -287.57713553270059 -4.7959165381589788 -143.7885677663503 #
straight-curve $-1 -287.57713553270059 0 -143.7885677663503 0 1 0 I I #
point $-1 -287.57713553270059 4.7959165381589788 -143.7885677663503 #
vertex $-1 $808 $871 #
straight-curve $-1 -287.57713553270059 6.6929114842679027 0 0 0 -1 I I #
point $-1 -287.57713553270059 -6.6929114842679027 -143.7885677663503 #
straight-curve $-1 -287.57713553270059 0 -143.7885677663503 0 1 0 I I #
point $-1 -287.57713553270059 6.6929114842679027 -143.7885677663503 #
vertex $-1 $826 $872 #
vertex $-1 $828 $873 #
point $-1 0 0 0.25 #
point $-1 0 0 0.25 #
point $-1 0 0 0.25 #
point $-1 0 0 0.25 #
point $-1 0 0 0.5 #
point $-1 0 0 0.5 #
End-of-ACIS-data 