500 0 8 0           
7 Unknown 11 ACIS 5.0 NT 24 Thu Mar 25 23:56:36 1999 
-1 9.9999999999999995e-007 1e-010 
body $-1 $8 $-1 $9 #
body $-1 $10 $-1 $11 #
body $-1 $12 $-1 $13 #
body $-1 $14 $-1 $15 #
body $-1 $16 $-1 $17 #
body $-1 $18 $-1 $19 #
body $-1 $20 $-1 $21 #
body $-1 $22 $-1 $23 #
lump $-1 $-1 $24 $0 #
transform $-1 1 0 0 0 1 0 0 0 1 55.67186498611408 24.592498847667112 8.3960638861954777 1 rotate no_reflect no_shear #
lump $-1 $-1 $25 $1 #
transform $-1 1 0 0 0 1 0 0 0 1 55.67186498611408 24.592498847667112 8.3960638861954777 1 rotate no_reflect no_shear #
lump $-1 $-1 $26 $2 #
transform $-1 1 0 0 0 1 0 0 0 1 55.67186498611408 24.592498847667112 8.3960638861954777 1 rotate no_reflect no_shear #
lump $-1 $-1 $27 $3 #
transform $-1 1 0 0 0 1 0 0 0 1 55.67186498611408 24.592498847667112 8.3960638861954777 1 rotate no_reflect no_shear #
lump $-1 $-1 $28 $4 #
transform $-1 1 0 0 0 1 0 0 0 1 55.67186498611408 24.592498847667112 8.3960638861954777 1 rotate no_reflect no_shear #
lump $-1 $-1 $29 $5 #
transform $-1 1 0 0 0 1 0 0 0 1 55.67186498611408 24.592498847667112 8.3960638861954777 1 rotate no_reflect no_shear #
lump $-1 $-1 $30 $6 #
transform $-1 1 0 0 0 1 0 0 0 1 55.67186498611408 24.592498847667112 8.3960638861954777 1 rotate no_reflect no_shear #
lump $-1 $-1 $31 $7 #
transform $-1 1 0 0 0 1 0 0 0 1 55.67186498611408 24.592498847667112 8.3960638861954777 1 rotate no_reflect no_shear #
shell $-1 $-1 $-1 $32 $-1 $8 #
shell $-1 $-1 $-1 $33 $-1 $10 #
shell $-1 $-1 $-1 $34 $-1 $12 #
shell $-1 $-1 $-1 $35 $-1 $14 #
shell $-1 $-1 $-1 $36 $-1 $16 #
shell $-1 $-1 $-1 $37 $-1 $18 #
shell $-1 $-1 $-1 $38 $-1 $20 #
shell $-1 $-1 $-1 $39 $-1 $22 #
face $-1 $40 $41 $24 $-1 $42 forward single #
face $-1 $43 $44 $25 $-1 $45 reversed single #
face $-1 $46 $47 $26 $-1 $48 reversed single #
face $-1 $49 $50 $27 $-1 $51 forward single #
face $-1 $52 $53 $28 $-1 $54 forward single #
face $-1 $55 $56 $29 $-1 $57 reversed single #
face $-1 $58 $59 $30 $-1 $60 forward single #
face $-1 $61 $62 $31 $-1 $63 forward single #
face $-1 $64 $65 $24 $-1 $66 reversed single #
loop $-1 $-1 $67 $32 #
plane-surface $-1 0 0 8.3960638861954777 0 0 1 1 0 0 forward_v I I I I #
face $-1 $68 $69 $25 $-1 $70 reversed single #
loop $-1 $-1 $71 $33 #
plane-surface $-1 -51.261844408892763 -22.45172494034691 0 0 1 0 0 0 1 forward_v I I I I #
face $-1 $72 $73 $26 $-1 $74 reversed single #
loop $-1 $-1 $75 $34 #
plane-surface $-1 -46.851823831671446 46.078912448951911 123.22206226995563 1 0 0 0 -0.55919291073839883 -0.82903756765294845 forward_v I I I I #
face $-1 $76 $77 $27 $-1 $78 forward single #
loop $-1 $79 $80 $35 #
cone-surface $-1 -42.900954771508978 19.993497733173378 4.5643691036924654 0 -0.55919291073839883 -0.82903756765294845 1 0 0 1 I I 0 1 1 forward I I I I #
face $-1 $81 $82 $28 $-1 $83 forward single #
loop $-1 $84 $85 $36 #
cone-surface $-1 -36.974651181265266 19.993497733173378 4.5643691036924654 0 -0.55919291073839883 -0.82903756765294845 1 0 0 1 I I 0 1 1 forward I I I I #
face $-1 $86 $87 $29 $-1 $88 reversed single #
loop $-1 $-1 $89 $37 #
plane-surface $-1 -35.461797756553658 -112.33255633154339 71.923510139496457 -1 0 0 0 -0.78801076186113728 0.61566146476048833 forward_v I I I I #
face $-1 $90 $91 $30 $-1 $92 forward single #
loop $-1 $93 $94 $38 #
cone-surface $-1 -43.597530667352082 -21.588249450762209 5.0705031322829521 0 0.78801076186113728 -0.61566146476048833 1 0 0 1 I I 0 1 1 forward I I I I #
face $-1 $95 $96 $31 $-1 $97 forward single #
loop $-1 $98 $99 $39 #
cone-surface $-1 -38.716090920873029 -21.588249450762209 5.0705031322829521 0 0.78801076186113728 -0.61566146476048833 1 0 0 1 I I 0 1 1 forward I I I I #
face $-1 $100 $101 $24 $-1 $102 reversed single #
loop $-1 $-1 $103 $40 #
plane-surface $-1 0 0 -8.3960638861954777 0 0 1 1 0 0 forward_v I I I I #
coedge $-1 $104 $105 $106 $107 forward $41 $-1 #
face $-1 $108 $109 $25 $-1 $110 reversed single #
loop $-1 $-1 $111 $43 #
plane-surface $-1 -51.261844408892763 -18.810466800719556 0 0 -1 0 0 0 -1 forward_v I I I I #
coedge $-1 $112 $113 $114 $115 reversed $44 $-1 #
face $-1 $116 $117 $26 $-1 $118 reversed single #
loop $-1 $-1 $119 $46 #
plane-surface $-1 -39.937802976387118 -16.183712006688651 30.913927200372896 0 0.55919291073839883 0.82903756765294845 1 0 0 forward_v I I I I #
coedge $-1 $120 $121 $122 $123 reversed $47 $-1 #
face $-1 $-1 $124 $27 $-1 $125 forward single #
loop $-1 $126 $127 $49 #
cone-surface $-1 -42.900954771508978 18.810953284177398 2.8111748932319536 0 -0.55919291073839883 -0.82903756765294845 0.5 0 0 1 I I -0.70710678118654779 0.70710678118654713 0.5 forward I I I I #
loop $-1 $-1 $128 $35 #
coedge $-1 $80 $80 $129 $130 reversed $50 $-1 #
face $-1 $-1 $131 $28 $-1 $132 forward single #
loop $-1 $133 $134 $52 #
cone-surface $-1 -36.974651181265266 18.810953284177398 2.8111748932319536 0 -0.55919291073839883 -0.82903756765294845 0.5 0 0 1 I I -0.70710678118654779 0.70710678118654713 0.5 forward I I I I #
loop $-1 $-1 $135 $36 #
coedge $-1 $85 $85 $136 $137 reversed $53 $-1 #
face $-1 $138 $139 $29 $-1 $140 reversed single #
loop $-1 $-1 $141 $55 #
plane-surface $-1 -41.156810794112552 -24.59249884766713 3.3734662528981829 0 -0.78801076186113728 0.61566146476048833 1 0 0 forward_v I I I I #
coedge $-1 $142 $143 $144 $145 reversed $56 $-1 #
face $-1 $-1 $146 $30 $-1 $147 forward single #
loop $-1 $148 $149 $58 #
cone-surface $-1 -43.597530667352082 -20.152036288015299 3.9484104626388365 0 0.78801076186113728 -0.61566146476048833 0.5 0 0 1 I I -0.70710678118654746 0.70710678118654746 0.5 forward I I I I #
loop $-1 $-1 $150 $38 #
coedge $-1 $94 $94 $151 $152 reversed $59 $-1 #
face $-1 $-1 $153 $31 $-1 $154 forward single #
loop $-1 $155 $156 $61 #
cone-surface $-1 -38.716090920873029 -20.152036288015299 3.9484104626388365 0 0.78801076186113728 -0.61566146476048833 0.5 0 0 1 I I -0.70710678118654746 0.70710678118654746 0.5 forward I I I I #
loop $-1 $-1 $157 $39 #
coedge $-1 $99 $99 $158 $159 reversed $62 $-1 #
face $-1 $160 $161 $24 $-1 $162 reversed single #
loop $-1 $-1 $163 $64 #
plane-surface $-1 0 -24.592498847667112 0 0 1 0 0 0 1 forward_v I I I I #
coedge $-1 $164 $165 $166 $167 forward $65 $-1 #
coedge $-1 $168 $67 $169 $170 forward $41 $-1 #
coedge $-1 $67 $168 $171 $172 forward $41 $-1 #
coedge $-1 $173 $174 $67 $107 reversed $175 $-1 #
edge $-1 $176 -24.592498847667112 $177 24.592498847667112 $106 $178 forward 7 unknown #
face $-1 $179 $180 $25 $-1 $181 reversed single #
loop $-1 $-1 $182 $68 #
plane-surface $-1 -46.851823831671446 -20.631095870533233 0 -1 0 0 0 0 1 forward_v I I I I #
coedge $-1 $183 $184 $185 $186 forward $69 $-1 #
coedge $-1 $187 $71 $188 $189 reversed $44 $-1 #
coedge $-1 $71 $187 $190 $191 reversed $44 $-1 #
coedge $-1 $192 $193 $71 $115 forward $194 $-1 #
edge $-1 $195 -8.3960638861954777 $196 8.3960638861954777 $114 $197 forward 7 unknown #
face $-1 $198 $199 $26 $-1 $200 reversed single #
loop $-1 $-1 $201 $72 #
plane-surface $-1 -33.023782121102791 46.078912448951911 123.22206226995563 -1 0 0 0 0.55919291073839883 0.82903756765294845 forward_v I I I I #
coedge $-1 $202 $203 $204 $205 reversed $73 $-1 #
coedge $-1 $121 $75 $206 $207 reversed $47 $-1 #
coedge $-1 $75 $120 $202 $208 reversed $47 $-1 #
coedge $-1 $204 $209 $75 $123 forward $210 $-1 #
edge $-1 $211 -1.5530426231911569 $212 5.8390636185427738 $122 $213 forward 7 unknown #
loop $-1 $-1 $129 $76 #
plane-surface $-1 -39.937802976387118 -16.183712006688651 30.913927200372896 0 0.55919291073839883 0.82903756765294845 1 0 0 forward_v I I I I #
loop $-1 $-1 $214 $49 #
coedge $-1 $127 $127 $128 $215 reversed $77 $-1 #
coedge $-1 $128 $128 $127 $215 forward $79 $-1 #
coedge $-1 $129 $129 $80 $130 forward $124 $-1 #
edge $-1 $216 -2.021297650831317e-015 $216 6.2831853071795987 $129 $217 forward 7 unknown #
loop $-1 $-1 $136 $81 #
plane-surface $-1 -39.937802976387118 -16.183712006688651 30.913927200372896 0 0.55919291073839883 0.82903756765294845 1 0 0 forward_v I I I I #
loop $-1 $-1 $218 $52 #
coedge $-1 $134 $134 $135 $219 reversed $82 $-1 #
coedge $-1 $135 $135 $134 $219 forward $84 $-1 #
coedge $-1 $136 $136 $85 $137 forward $131 $-1 #
edge $-1 $220 -2.021297650831317e-015 $220 6.2831853071795987 $136 $221 forward 7 unknown #
face $-1 $222 $223 $29 $-1 $224 forward single #
loop $-1 $-1 $225 $86 #
plane-surface $-1 0 -24.592498847667112 0 0 1 0 0 0 1 forward_v I I I I #
coedge $-1 $226 $227 $228 $229 reversed $87 $-1 #
coedge $-1 $143 $89 $230 $231 reversed $56 $-1 #
coedge $-1 $89 $142 $226 $232 reversed $56 $-1 #
coedge $-1 $228 $233 $89 $145 forward $223 $-1 #
edge $-1 $234 31.573779318104581 $235 35.497862548281674 $144 $236 forward 7 unknown #
loop $-1 $-1 $151 $90 #
plane-surface $-1 -41.156810794112552 -24.59249884766713 3.3734662528981829 0 -0.78801076186113728 0.61566146476048833 1 0 0 forward_v I I I I #
loop $-1 $-1 $237 $58 #
coedge $-1 $149 $149 $150 $238 reversed $91 $-1 #
coedge $-1 $150 $150 $149 $238 forward $93 $-1 #
coedge $-1 $151 $151 $94 $152 forward $146 $-1 #
edge $-1 $239 -9.6185606717608536e-016 $239 6.2831853071795996 $151 $240 forward 7 unknown #
loop $-1 $-1 $158 $95 #
plane-surface $-1 -41.156810794112552 -24.59249884766713 3.3734662528981829 0 -0.78801076186113728 0.61566146476048833 1 0 0 forward_v I I I I #
loop $-1 $-1 $241 $61 #
coedge $-1 $156 $156 $157 $242 reversed $96 $-1 #
coedge $-1 $157 $157 $156 $242 forward $98 $-1 #
coedge $-1 $158 $158 $99 $159 forward $153 $-1 #
edge $-1 $243 -9.6185606717608536e-016 $243 6.2831853071795996 $158 $244 forward 7 unknown #
face $-1 $245 $246 $24 $-1 $247 reversed single #
loop $-1 $-1 $248 $100 #
plane-surface $-1 -55.67186498611408 0 0 1 0 0 0 0 -1 forward_v I I I I #
coedge $-1 $249 $171 $250 $251 forward $101 $-1 #
coedge $-1 $252 $103 $249 $253 forward $65 $-1 #
coedge $-1 $103 $252 $254 $255 forward $65 $-1 #
coedge $-1 $174 $173 $103 $167 reversed $175 $-1 #
edge $-1 $256 -24.592498847667112 $257 24.592498847667112 $166 $258 forward 7 unknown #
coedge $-1 $105 $104 $259 $260 forward $41 $-1 #
coedge $-1 $261 $262 $104 $170 reversed $246 $-1 #
edge $-1 $177 -55.67186498611408 $263 55.67186498611408 $169 $264 forward 7 unknown #
coedge $-1 $163 $265 $105 $172 reversed $101 $-1 #
edge $-1 $266 -55.67186498611408 $176 55.67186498611408 $171 $267 forward 7 unknown #
coedge $-1 $166 $106 $265 $268 forward $175 $-1 #
coedge $-1 $106 $166 $261 $269 reversed $175 $-1 #
loop $-1 $-1 $173 $245 #
vertex $-1 $107 $270 #
vertex $-1 $107 $271 #
straight-curve $-1 55.67186498611408 0 8.3960638861954777 0 1 0 I I #
face $-1 $272 $273 $25 $-1 $274 forward single #
loop $-1 $-1 $275 $108 #
plane-surface $-1 0 0 -8.3960638861954777 0 0 1 1 0 0 forward_v I I I I #
coedge $-1 $276 $277 $187 $278 forward $109 $-1 #
coedge $-1 $279 $111 $275 $280 reversed $69 $-1 #
coedge $-1 $111 $279 $281 $282 reversed $69 $-1 #
coedge $-1 $277 $276 $111 $186 reversed $109 $-1 #
edge $-1 $283 -8.3960638861954777 $284 8.3960638861954777 $185 $285 forward 7 unknown #
coedge $-1 $113 $112 $182 $278 reversed $44 $-1 #
coedge $-1 $286 $287 $112 $189 forward $180 $-1 #
edge $-1 $288 21.220901627225064 $195 30.040942781667699 $188 $289 forward 7 unknown #
coedge $-1 $290 $291 $113 $191 forward $273 $-1 #
edge $-1 $196 -30.040942781667699 $292 -21.220901627225064 $190 $293 forward 7 unknown #
coedge $-1 $294 $114 $291 $295 reversed $194 $-1 #
coedge $-1 $114 $294 $286 $296 reversed $194 $-1 #
loop $-1 $-1 $294 $272 #
vertex $-1 $296 $297 #
vertex $-1 $115 $298 #
straight-curve $-1 -55.67186498611408 -22.45172494034691 0 0 0 1 I I #
face $-1 $-1 $210 $26 $-1 $299 forward single #
loop $-1 $-1 $300 $116 #
plane-surface $-1 0 24.592498847667112 0 0 -1 0 0 0 -1 forward_v I I I I #
coedge $-1 $301 $302 $303 $304 reversed $117 $-1 #
coedge $-1 $305 $119 $121 $208 forward $73 $-1 #
coedge $-1 $119 $305 $301 $306 forward $73 $-1 #
coedge $-1 $303 $122 $119 $205 forward $210 $-1 #
edge $-1 $212 -26.882922343477887 $307 -13.054880632909232 $204 $308 forward 7 unknown #
coedge $-1 $309 $310 $120 $207 forward $199 $-1 #
edge $-1 $311 -58.201005960520305 $211 -53.214967248782337 $206 $312 forward 7 unknown #
edge $-1 $212 40.268506416583861 $311 49.184997695334225 $121 $313 forward 7 unknown #
coedge $-1 $122 $303 $309 $314 forward $210 $-1 #
loop $-1 $-1 $303 $198 #
vertex $-1 $207 $315 #
vertex $-1 $123 $316 #
straight-curve $-1 -46.851823831671446 23.039456224475956 8.3960638861954777 0 -1 0 I I #
coedge $-1 $214 $214 $-1 $317 reversed $126 $-1 #
edge $-1 $318 0 $318 6.2831853071796004 $127 $319 forward 7 unknown #
vertex $-1 $130 $320 #
ellipse-curve $-1 -42.900954771508978 20.896445726800152 5.9030445303264942 0 0.55919291073839883 0.82903756765294845 1 0 0 1 I I #
coedge $-1 $218 $218 $-1 $321 reversed $133 $-1 #
edge $-1 $322 0 $322 6.2831853071796004 $134 $323 forward 7 unknown #
vertex $-1 $137 $324 #
ellipse-curve $-1 -36.974651181265266 20.896445726800152 5.9030445303264942 0 0.55919291073839883 0.82903756765294845 1 0 0 1 I I #
face $-1 $-1 $325 $29 $-1 $326 forward single #
loop $-1 $-1 $327 $138 #
plane-surface $-1 0 0 8.3960638861954777 0 0 1 1 0 0 forward_v I I I I #
coedge $-1 $328 $329 $330 $331 forward $139 $-1 #
coedge $-1 $332 $141 $143 $232 forward $87 $-1 #
coedge $-1 $141 $332 $333 $334 reversed $87 $-1 #
coedge $-1 $327 $144 $141 $229 forward $223 $-1 #
edge $-1 $235 14.883392359497382 $335 26.27341843461517 $228 $336 forward 7 unknown #
coedge $-1 $329 $328 $142 $231 forward $139 $-1 #
edge $-1 $337 -32.588288816850024 $234 -27.565691183552751 $230 $338 forward 7 unknown #
edge $-1 $235 -6.3737678168694529 $337 -2.8783645442825868e-014 $143 $339 forward 7 unknown #
coedge $-1 $144 $327 $329 $340 forward $223 $-1 #
vertex $-1 $145 $341 #
vertex $-1 $145 $342 #
straight-curve $-1 -35.461797756553658 -56.166278165771693 8.3960638861954777 0 1 0 I I #
coedge $-1 $237 $237 $-1 $343 reversed $148 $-1 #
edge $-1 $344 0 $344 6.2831853071796004 $149 $345 forward 7 unknown #
vertex $-1 $152 $346 #
ellipse-curve $-1 -43.597530667352082 -22.630457232578571 5.8847650695468383 0 -0.78801076186113728 0.61566146476048833 1 0 0 1 I I #
coedge $-1 $241 $241 $-1 $347 reversed $155 $-1 #
edge $-1 $348 0 $348 6.2831853071796004 $156 $349 forward 7 unknown #
vertex $-1 $159 $350 #
ellipse-curve $-1 -38.716090920873029 -22.630457232578571 5.8847650695468383 0 -0.78801076186113728 0.61566146476048833 1 0 0 1 I I #
face $-1 $-1 $175 $24 $-1 $351 reversed single #
loop $-1 $-1 $261 $160 #
plane-surface $-1 0 24.592498847667112 0 0 -1 0 0 0 -1 forward_v I I I I #
coedge $-1 $352 $259 $262 $353 forward $161 $-1 #
coedge $-1 $265 $163 $164 $253 reversed $101 $-1 #
coedge $-1 $259 $352 $163 $251 reversed $161 $-1 #
edge $-1 $266 -8.3960638861954777 $354 8.3960638861954777 $250 $355 forward 7 unknown #
coedge $-1 $165 $164 $352 $356 forward $65 $-1 #
edge $-1 $257 -55.67186498611408 $354 55.67186498611408 $249 $357 forward 7 unknown #
coedge $-1 $262 $261 $165 $255 reversed $246 $-1 #
edge $-1 $358 -55.67186498611408 $256 55.67186498611408 $254 $359 forward 7 unknown #
vertex $-1 $167 $360 #
vertex $-1 $268 $361 #
straight-curve $-1 55.67186498611408 0 -8.3960638861954777 0 -1 0 I I #
coedge $-1 $248 $250 $168 $260 reversed $161 $-1 #
edge $-1 $263 -24.592498847667112 $266 24.592498847667112 $259 $362 forward 7 unknown #
coedge $-1 $254 $169 $174 $269 forward $246 $-1 #
coedge $-1 $169 $254 $248 $353 reversed $246 $-1 #
vertex $-1 $170 $363 #
straight-curve $-1 0 24.592498847667112 8.3960638861954777 -1 0 0 I I #
coedge $-1 $171 $249 $173 $268 reversed $101 $-1 #
vertex $-1 $260 $364 #
straight-curve $-1 0 -24.592498847667112 8.3960638861954777 1 0 0 I I #
edge $-1 $176 -8.3960638861954777 $257 8.3960638861954777 $173 $365 forward 7 unknown #
edge $-1 $177 -8.3960638861954777 $256 8.3960638861954777 $174 $366 forward 7 unknown #
point $-1 55.67186498611408 -24.592498847667112 8.3960638861954777 #
point $-1 55.67186498611408 24.592498847667112 8.3960638861954777 #
face $-1 $-1 $194 $25 $-1 $367 reversed single #
loop $-1 $-1 $281 $179 #
plane-surface $-1 0 0 8.3960638861954777 0 0 1 1 0 0 forward_v I I I I #
coedge $-1 $287 $286 $183 $280 forward $180 $-1 #
coedge $-1 $185 $182 $287 $368 reversed $109 $-1 #
coedge $-1 $182 $185 $290 $369 reversed $109 $-1 #
edge $-1 $292 -8.3960638861954777 $288 8.3960638861954777 $182 $370 forward 7 unknown #
coedge $-1 $184 $183 $294 $371 reversed $69 $-1 #
edge $-1 $372 -30.040942781667699 $284 -21.220901627225064 $275 $373 forward 7 unknown #
coedge $-1 $291 $290 $184 $282 forward $273 $-1 #
edge $-1 $283 21.220901627225064 $374 30.040942781667699 $281 $375 forward 7 unknown #
vertex $-1 $282 $376 #
vertex $-1 $280 $377 #
straight-curve $-1 -46.851823831671446 -18.810466800719556 0 0 0 -1 I I #
coedge $-1 $275 $188 $193 $296 forward $180 $-1 #
coedge $-1 $188 $275 $276 $368 forward $180 $-1 #
vertex $-1 $189 $378 #
straight-curve $-1 -25.630922204446382 -22.45172494034691 -8.3960638861954777 -1 0 0 I I #
coedge $-1 $281 $190 $277 $369 forward $273 $-1 #
coedge $-1 $190 $281 $192 $295 forward $273 $-1 #
vertex $-1 $191 $379 #
straight-curve $-1 -25.630922204446382 -22.45172494034691 8.3960638861954777 1 0 0 I I #
coedge $-1 $193 $192 $279 $371 forward $194 $-1 #
edge $-1 $374 18.810466800719556 $196 22.45172494034691 $192 $380 forward 7 unknown #
edge $-1 $195 -22.45172494034691 $372 -18.810466800719556 $193 $381 forward 7 unknown #
point $-1 -55.67186498611408 -22.45172494034691 -8.3960638861954777 #
point $-1 -55.67186498611408 -22.45172494034691 8.3960638861954777 #
plane-surface $-1 0 0 8.3960638861954777 0 0 1 1 0 0 forward_v I I I I #
coedge $-1 $310 $309 $302 $382 forward $199 $-1 #
coedge $-1 $302 $201 $203 $306 reversed $117 $-1 #
coedge $-1 $201 $301 $300 $382 reversed $117 $-1 #
coedge $-1 $209 $204 $201 $304 forward $210 $-1 #
edge $-1 $307 -5.8390636185427738 $383 1.5530426231911569 $303 $384 forward 7 unknown #
coedge $-1 $203 $202 $310 $385 reversed $73 $-1 #
edge $-1 $386 -49.184997695334225 $307 -40.268506416583861 $301 $387 forward 7 unknown #
vertex $-1 $205 $388 #
straight-curve $-1 -19.968901488193559 17.200392605933182 8.3960638861954759 1 0 0 I I #
coedge $-1 $300 $206 $209 $314 reversed $199 $-1 #
coedge $-1 $206 $300 $305 $385 forward $199 $-1 #
vertex $-1 $207 $389 #
straight-curve $-1 -46.851823831671446 24.592498847667112 61.611031134977814 0 0 1 I I #
straight-curve $-1 -46.851823831671446 -16.183712006688651 30.913927200372896 0 0.82903756765294845 -0.55919291073839883 I I #
edge $-1 $383 33.023782121102791 $211 46.851823831671446 $309 $390 forward 7 unknown #
point $-1 -46.851823831671446 24.592498847667112 8.3960638861954777 #
point $-1 -46.851823831671446 17.200392605933182 8.3960638861954777 #
edge $-1 $391 1 $391 0 $214 $-1 forward 7 unknown #
vertex $-1 $215 $392 #
ellipse-curve $-1 -42.900954771508978 19.090549739546596 3.2256936770584272 0 0.55919291073839883 0.82903756765294845 1 0 0 1 I I #
point $-1 -41.900954771508978 20.896445726800156 5.9030445303265031 #
edge $-1 $393 1 $393 0 $218 $-1 forward 7 unknown #
vertex $-1 $219 $394 #
ellipse-curve $-1 -36.974651181265266 19.090549739546596 3.2256936770584272 0 0.55919291073839883 0.82903756765294845 1 0 0 1 I I #
point $-1 -35.974651181265266 20.896445726800156 5.9030445303265031 #
loop $-1 $-1 $333 $222 #
plane-surface $-1 -46.851823831671446 -20.631095870533233 0 -1 0 0 0 0 1 forward_v I I I I #
coedge $-1 $233 $228 $395 $396 forward $223 $-1 #
coedge $-1 $230 $225 $332 $397 forward $139 $-1 #
coedge $-1 $225 $230 $233 $340 reversed $139 $-1 #
coedge $-1 $395 $333 $225 $331 reversed $325 $-1 #
edge $-1 $398 27.565691183552751 $399 32.588288816850024 $225 $400 forward 7 unknown #
coedge $-1 $227 $226 $328 $397 reversed $87 $-1 #
coedge $-1 $330 $395 $227 $334 forward $325 $-1 #
edge $-1 $335 -6.4834900931946091 $399 -0.10972227632518609 $333 $401 forward 7 unknown #
vertex $-1 $396 $402 #
straight-curve $-1 -20.578405397056276 -20.668415617490027 8.3960638861954777 -1 0 0 I I #
vertex $-1 $231 $403 #
straight-curve $-1 -35.461797756553658 -24.592498847667116 35.961755069748229 0 0 1 I I #
straight-curve $-1 -35.461797756553658 -24.59249884766713 3.3734662528981829 0 -0.61566146476048833 -0.78801076186113728 I I #
edge $-1 $398 -46.851823831671446 $234 -35.461797756553658 $329 $404 forward 7 unknown #
point $-1 -35.461797756553658 -24.592498847667112 8.3960638861954777 #
point $-1 -35.461797756553658 -20.668415617490023 8.3960638861954777 #
edge $-1 $405 1 $405 0 $237 $-1 forward 7 unknown #
vertex $-1 $238 $406 #
ellipse-curve $-1 -43.597530667352082 -20.546041668945868 4.256241195019081 0 -0.78801076186113728 0.61566146476048833 1 0 0 1 I I #
point $-1 -42.597530667352082 -22.630457232578554 5.8847650695468232 #
edge $-1 $407 1 $407 0 $241 $-1 forward 7 unknown #
vertex $-1 $242 $408 #
ellipse-curve $-1 -38.716090920873029 -20.546041668945868 4.256241195019081 0 -0.78801076186113728 0.61566146476048833 1 0 0 1 I I #
point $-1 -37.716090920873029 -22.630457232578554 5.8847650695468232 #
plane-surface $-1 55.67186498611408 0 0 -1 0 0 0 0 1 forward_v I I I I #
coedge $-1 $250 $248 $252 $356 reversed $161 $-1 #
edge $-1 $263 -8.3960638861954777 $358 8.3960638861954777 $262 $409 forward 7 unknown #
vertex $-1 $356 $410 #
straight-curve $-1 -55.67186498611408 -24.592498847667112 0 0 0 -1 I I #
edge $-1 $354 -24.592498847667112 $358 24.592498847667112 $352 $411 forward 7 unknown #
straight-curve $-1 0 -24.592498847667112 -8.3960638861954777 -1 0 0 I I #
vertex $-1 $255 $412 #
straight-curve $-1 0 24.592498847667112 -8.3960638861954777 1 0 0 I I #
point $-1 55.67186498611408 24.592498847667112 -8.3960638861954777 #
point $-1 55.67186498611408 -24.592498847667112 -8.3960638861954777 #
straight-curve $-1 -55.67186498611408 0 8.3960638861954777 0 -1 0 I I #
point $-1 -55.67186498611408 24.592498847667112 8.3960638861954777 #
point $-1 -55.67186498611408 -24.592498847667112 8.3960638861954777 #
straight-curve $-1 55.67186498611408 -24.592498847667112 0 0 0 -1 I I #
straight-curve $-1 55.67186498611408 24.592498847667112 0 0 0 -1 I I #
plane-surface $-1 -55.67186498611408 0 0 1 0 0 0 0 -1 forward_v I I I I #
edge $-1 $284 8.4949188654529397 $288 12.136177005080294 $287 $413 forward 7 unknown #
edge $-1 $292 -12.136177005080294 $283 -8.4949188654529397 $290 $414 forward 7 unknown #
straight-curve $-1 -46.851823831671446 -22.45172494034691 0 0 0 -1 I I #
edge $-1 $374 -8.3960638861954777 $372 8.3960638861954777 $294 $415 forward 7 unknown #
vertex $-1 $371 $416 #
straight-curve $-1 -25.630922204446382 -18.810466800719556 -8.3960638861954777 1 0 0 I I #
vertex $-1 $295 $417 #
straight-curve $-1 -25.630922204446382 -18.810466800719556 8.3960638861954777 -1 0 0 I I #
point $-1 -46.851823831671446 -18.810466800719556 8.3960638861954777 #
point $-1 -46.851823831671446 -18.810466800719556 -8.3960638861954777 #
point $-1 -46.851823831671446 -22.45172494034691 -8.3960638861954777 #
point $-1 -46.851823831671446 -22.45172494034691 8.3960638861954777 #
straight-curve $-1 -55.67186498611408 0 8.3960638861954777 0 -1 0 I I #
straight-curve $-1 -55.67186498611408 0 -8.3960638861954777 0 1 0 I I #
edge $-1 $383 53.214967248782337 $386 58.201005960520305 $300 $418 forward 7 unknown #
vertex $-1 $314 $419 #
straight-curve $-1 -33.023782121102791 23.039456224475956 8.3960638861954777 0 1 0 I I #
edge $-1 $386 13.054880632909232 $311 26.882922343477887 $310 $420 forward 7 unknown #
vertex $-1 $385 $421 #
straight-curve $-1 -33.023782121102791 -16.183712006688651 30.913927200372896 0 -0.82903756765294845 0.55919291073839883 I I #
point $-1 -33.023782121102791 17.200392605933182 8.3960638861954777 #
point $-1 -46.851823831671446 24.592498847667116 3.410025174457509 #
straight-curve $-1 0 24.592498847667112 8.3960638861954777 -1 0 0 I I #
vertex $-1 $317 $422 #
point $-1 -41.900954771508978 19.090549739546596 3.2256936770584272 #
vertex $-1 $321 $423 #
point $-1 -35.974651181265266 19.090549739546596 3.2256936770584272 #
coedge $-1 $333 $330 $327 $396 reversed $325 $-1 #
edge $-1 $335 -35.497862548281674 $398 -31.573779318104581 $327 $424 forward 7 unknown #
edge $-1 $399 -26.27341843461517 $337 -14.883392359497382 $328 $425 forward 7 unknown #
vertex $-1 $340 $426 #
vertex $-1 $331 $427 #
straight-curve $-1 -46.851823831671446 -24.592498847667116 35.961755069748229 0 0 -1 I I #
straight-curve $-1 -46.851823831671446 -24.660050625026329 3.2870039183380557 0 -0.61566146476048833 -0.78801076186113728 I I #
point $-1 -46.851823831671446 -20.668415617490023 8.3960638861954777 #
point $-1 -35.461797756553658 -24.592498847667112 3.3734662528982056 #
straight-curve $-1 0 -24.592498847667112 8.3960638861954777 1 0 0 I I #
vertex $-1 $343 $428 #
point $-1 -42.597530667352082 -20.546041668945868 4.256241195019081 #
vertex $-1 $347 $429 #
point $-1 -37.716090920873029 -20.546041668945868 4.256241195019081 #
straight-curve $-1 -55.67186498611408 24.592498847667112 0 0 0 -1 I I #
point $-1 -55.67186498611408 -24.592498847667112 -8.3960638861954777 #
straight-curve $-1 -55.67186498611408 0 -8.3960638861954777 0 1 0 I I #
point $-1 -55.67186498611408 24.592498847667112 -8.3960638861954777 #
straight-curve $-1 -46.851823831671446 -10.315547935266617 -8.3960638861954777 0 -1 0 I I #
straight-curve $-1 -46.851823831671446 -10.315547935266617 8.3960638861954777 0 1 0 I I #
straight-curve $-1 -55.67186498611408 -18.810466800719556 0 0 0 -1 I I #
point $-1 -55.67186498611408 -18.810466800719556 -8.3960638861954777 #
point $-1 -55.67186498611408 -18.810466800719556 8.3960638861954777 #
straight-curve $-1 -33.023782121102791 24.592498847667112 61.611031134977814 0 0 -1 I I #
point $-1 -33.023782121102791 24.592498847667112 8.3960638861954777 #
straight-curve $-1 -19.968901488193559 24.592498847667112 3.4100251744575125 -1 0 0 I I #
point $-1 -33.023782121102791 24.592498847667116 3.410025174457509 #
point $-1 -42.900954771508978 18.5313568288082 2.3966561094054799 #
point $-1 -36.974651181265266 18.5313568288082 2.3966561094054799 #
straight-curve $-1 -46.851823831671446 -56.166278165771693 8.3960638861954777 0 -1 0 I I #
straight-curve $-1 -20.578405397056276 -24.592498847667112 3.3734662528982078 1 0 0 I I #
point $-1 -46.851823831671446 -24.592498847667112 8.3960638861954777 #
point $-1 -46.851823831671446 -24.592498847667112 3.3734662528982056 #
point $-1 -43.597530667352082 -19.758030907084731 3.6405797302585925 #
point $-1 -38.716090920873029 -19.758030907084731 3.6405797302585925 #
End-of-ACIS-data 