500 0 9 0           
7 Unknown 11 ACIS 5.0 NT 24 Fri Mar 26 18:34:49 1999 
-1 9.9999999999999995e-007 1e-010 
body $-1 $9 $-1 $10 #
body $-1 $11 $-1 $12 #
body $-1 $13 $-1 $14 #
body $-1 $15 $-1 $16 #
body $-1 $17 $-1 $18 #
body $-1 $19 $-1 $20 #
body $-1 $21 $-1 $22 #
body $-1 $23 $-1 $24 #
body $-1 $25 $-1 $26 #
lump $-1 $-1 $27 $0 #
transform $-1 1 0 0 0 1 0 0 0 1 64.790795617542045 40.994756008810405 18.136929804636456 1 rotate no_reflect no_shear #
lump $-1 $-1 $28 $1 #
transform $-1 1 0 0 0 1 0 0 0 1 64.790795617542045 40.994756008810405 18.136929804636456 1 rotate no_reflect no_shear #
lump $-1 $-1 $29 $2 #
transform $-1 1 0 0 0 1 0 0 0 1 64.790795617542045 40.994756008810405 18.136929804636456 1 rotate no_reflect no_shear #
lump $-1 $-1 $30 $3 #
transform $-1 1 0 0 0 1 0 0 0 1 64.790795617542045 40.994756008810405 18.136929804636456 1 rotate no_reflect no_shear #
lump $-1 $-1 $31 $4 #
transform $-1 1 0 0 0 1 0 0 0 1 64.790795617542045 40.994756008810405 18.136929804636456 1 rotate no_reflect no_shear #
lump $-1 $-1 $32 $5 #
transform $-1 1 0 0 0 1 0 0 0 1 64.790795617542045 40.994756008810405 18.136929804636456 1 rotate no_reflect no_shear #
lump $-1 $-1 $33 $6 #
transform $-1 1 0 0 0 1 0 0 0 1 64.790795617542045 40.994756008810405 18.136929804636456 1 rotate no_reflect no_shear #
lump $-1 $-1 $34 $7 #
transform $-1 1 0 0 0 1 0 0 0 1 64.790795617542045 40.994756008810405 18.136929804636456 1 rotate no_reflect no_shear #
lump $-1 $-1 $35 $8 #
transform $-1 1 0 0 0 1 0 0 0 1 64.790795617542045 40.994756008810405 18.136929804636456 1 rotate no_reflect no_shear #
shell $-1 $-1 $-1 $36 $-1 $9 #
shell $-1 $-1 $-1 $37 $-1 $11 #
shell $-1 $-1 $-1 $38 $-1 $13 #
shell $-1 $-1 $-1 $39 $-1 $15 #
shell $-1 $-1 $-1 $40 $-1 $17 #
shell $-1 $-1 $-1 $41 $-1 $19 #
shell $-1 $-1 $-1 $42 $-1 $21 #
shell $-1 $-1 $-1 $43 $-1 $23 #
shell $-1 $-1 $-1 $44 $-1 $25 #
face $-1 $45 $46 $27 $-1 $47 forward single #
face $-1 $48 $49 $28 $-1 $50 forward single #
face $-1 $51 $52 $29 $-1 $53 reversed single #
face $-1 $54 $55 $30 $-1 $56 forward single #
face $-1 $57 $58 $31 $-1 $59 forward single #
face $-1 $60 $61 $32 $-1 $62 reversed single #
face $-1 $63 $64 $33 $-1 $65 forward single #
face $-1 $66 $67 $34 $-1 $68 forward single #
face $-1 $69 $70 $35 $-1 $71 forward single #
face $-1 $72 $73 $27 $-1 $74 reversed single #
loop $-1 $-1 $75 $36 #
plane-surface $-1 0 0 18.136929804636456 0 0 1 1 0 0 forward_v I I I I #
face $-1 $76 $77 $28 $-1 $78 reversed single #
loop $-1 $-1 $79 $37 #
plane-surface $-1 -58.32649427444052 0 -9.8046912987886721 0 0 1 1 0 0 forward_v I I I I #
face $-1 $80 $81 $29 $-1 $82 reversed single #
loop $-1 $-1 $83 $38 #
plane-surface $-1 2.9753677678063823 85.00126654856399 150.84671442074398 1 0 0 0 -0.75470958851134928 -0.65605901945558964 forward_v I I I I #
face $-1 $84 $85 $30 $-1 $86 forward single #
loop $-1 $87 $88 $39 #
cone-surface $-1 7.0111708856243666 33.980186712233746 10.306680450755501 0 -0.75470958851134928 -0.65605901945558964 1 0 0 1 I I 0 1 1 forward I I I I #
face $-1 $89 $90 $31 $-1 $91 forward single #
loop $-1 $92 $93 $40 #
cone-surface $-1 13.064875562351318 33.980186712233746 10.306680450755501 0 -0.75470958851134928 -0.65605901945558964 1 0 0 1 I I 0 1 1 forward I I I I #
face $-1 $94 $95 $32 $-1 $96 reversed single #
loop $-1 $-1 $97 $41 #
plane-surface $-1 34.157642701597865 -118.97890532529888 106.56693781858566 -1 0 0 0 -0.6018150307709319 0.79863550430605224 forward_v I I I I #
face $-1 $98 $99 $33 $-1 $100 forward single #
loop $-1 $101 $102 $42 #
cone-surface $-1 9.3029055387882238 -30.385815250915105 9.7884915301737525 0 0.6018150307709319 -0.79863550430605224 1.5 0 0 1 I I 0 1 1.5 forward I I I I #
face $-1 $103 $104 $34 $-1 $105 forward single #
loop $-1 $106 $107 $43 #
cone-surface $-1 18.62343197484185 -30.385815250915105 9.7884915301737525 0 0.6018150307709319 -0.79863550430605224 1.5 0 0 1 I I 0 1 1.5 forward I I I I #
face $-1 $108 $109 $35 $-1 $110 forward single #
loop $-1 $111 $112 $44 #
cone-surface $-1 27.943958410895476 -30.385815250915105 9.7884915301737525 0 0.6018150307709319 -0.79863550430605224 1.5 0 0 1 I I 0 1 1.5 forward I I I I #
face $-1 $113 $114 $27 $-1 $115 reversed single #
loop $-1 $-1 $116 $45 #
plane-surface $-1 0 0 -18.136929804636456 0 0 1 1 0 0 forward_v I I I I #
coedge $-1 $117 $118 $119 $120 forward $46 $-1 #
face $-1 $121 $122 $28 $-1 $123 reversed single #
loop $-1 $-1 $124 $48 #
plane-surface $-1 -51.862192931338996 0 -13.970810551712564 -1 0 0 0 0 1 forward_v I I I I #
coedge $-1 $125 $126 $127 $128 forward $49 $-1 #
face $-1 $129 $130 $29 $-1 $131 reversed single #
loop $-1 $-1 $132 $51 #
plane-surface $-1 10.038023223987835 -12.795202851112194 65.833542735559675 0 0.75470958851134928 0.65605901945558964 1 0 0 forward_v I I I I #
coedge $-1 $133 $134 $135 $136 reversed $52 $-1 #
face $-1 $-1 $137 $30 $-1 $138 forward single #
loop $-1 $139 $140 $54 #
cone-surface $-1 7.0111708856243666 32.752226050534652 9.239230560217603 0 -0.75470958851134928 -0.65605901945558964 0.5 0 0 1 I I -0.70710678118654746 0.70710678118654746 0.5 forward I I I I #
loop $-1 $-1 $141 $39 #
coedge $-1 $88 $88 $142 $143 reversed $55 $-1 #
face $-1 $-1 $144 $31 $-1 $145 forward single #
loop $-1 $146 $147 $57 #
cone-surface $-1 13.064875562351318 32.752226050534652 9.239230560217603 0 -0.75470958851134928 -0.65605901945558964 0.5 0 0 1 I I -0.70710678118654746 0.70710678118654746 0.5 forward I I I I #
loop $-1 $-1 $148 $40 #
coedge $-1 $93 $93 $149 $150 reversed $58 $-1 #
face $-1 $151 $152 $32 $-1 $153 reversed single #
loop $-1 $-1 $154 $60 #
plane-surface $-1 18.623431974841836 -40.994756008810427 3.078478353773562 0 -0.6018150307709319 0.79863550430605224 1 0 0 forward_v I I I I #
coedge $-1 $155 $156 $157 $158 reversed $61 $-1 #
face $-1 $-1 $159 $33 $-1 $160 forward single #
loop $-1 $161 $162 $63 #
cone-surface $-1 9.3029055387882238 -29.317133031366389 8.3703023529129688 0 0.6018150307709319 -0.79863550430605224 0.75 0 0 1 I I -0.70710678118654757 0.70710678118654757 0.75 forward I I I I #
loop $-1 $-1 $163 $42 #
coedge $-1 $102 $102 $164 $165 reversed $64 $-1 #
face $-1 $-1 $166 $34 $-1 $167 forward single #
loop $-1 $168 $169 $66 #
cone-surface $-1 18.62343197484185 -29.317133031366389 8.3703023529129688 0 0.6018150307709319 -0.79863550430605224 0.75 0 0 1 I I -0.70710678118654757 0.70710678118654757 0.75 forward I I I I #
loop $-1 $-1 $170 $43 #
coedge $-1 $107 $107 $171 $172 reversed $67 $-1 #
face $-1 $-1 $173 $35 $-1 $174 forward single #
loop $-1 $175 $176 $69 #
cone-surface $-1 27.943958410895476 -29.317133031366389 8.3703023529129688 0 0.6018150307709319 -0.79863550430605224 0.75 0 0 1 I I -0.70710678118654757 0.70710678118654757 0.75 forward I I I I #
loop $-1 $-1 $177 $44 #
coedge $-1 $112 $112 $178 $179 reversed $70 $-1 #
face $-1 $180 $181 $27 $-1 $182 reversed single #
loop $-1 $-1 $183 $72 #
plane-surface $-1 0 -40.994756008810405 0 0 1 0 0 0 1 forward_v I I I I #
coedge $-1 $184 $185 $186 $187 forward $73 $-1 #
coedge $-1 $188 $75 $189 $190 forward $46 $-1 #
coedge $-1 $75 $188 $191 $192 forward $46 $-1 #
coedge $-1 $193 $194 $75 $120 reversed $195 $-1 #
edge $-1 $196 -40.994756008810405 $197 40.994756008810405 $119 $198 forward 7 unknown #
face $-1 $199 $200 $28 $-1 $201 reversed single #
loop $-1 $-1 $202 $76 #
plane-surface $-1 0 0 -18.136929804636456 0 0 1 1 0 0 forward_v I I I I #
coedge $-1 $203 $127 $204 $205 reversed $77 $-1 #
coedge $-1 $206 $79 $207 $208 reversed $49 $-1 #
coedge $-1 $79 $206 $209 $210 reversed $49 $-1 #
coedge $-1 $124 $211 $79 $128 reversed $77 $-1 #
edge $-1 $212 -40.994756008810405 $213 40.994756008810405 $127 $214 forward 7 unknown #
face $-1 $215 $216 $29 $-1 $217 reversed single #
loop $-1 $-1 $218 $80 #
plane-surface $-1 17.100678680169288 85.00126654856399 150.84671442074398 -1 0 0 0 0.75470958851134928 0.65605901945558964 forward_v I I I I #
coedge $-1 $219 $220 $221 $222 reversed $81 $-1 #
coedge $-1 $134 $83 $223 $224 reversed $52 $-1 #
coedge $-1 $83 $133 $219 $225 reversed $52 $-1 #
coedge $-1 $221 $226 $83 $136 forward $227 $-1 #
edge $-1 $228 1.5058772654715895 $229 13.833804123738069 $135 $230 forward 7 unknown #
loop $-1 $-1 $142 $84 #
plane-surface $-1 10.038023223987835 -12.795202851112194 65.833542735559675 0 0.75470958851134928 0.65605901945558964 1 0 0 forward_v I I I I #
loop $-1 $-1 $231 $54 #
coedge $-1 $140 $140 $141 $232 reversed $85 $-1 #
coedge $-1 $141 $141 $140 $232 forward $87 $-1 #
coedge $-1 $142 $142 $88 $143 forward $137 $-1 #
edge $-1 $233 -3.3209461657275502e-015 $233 6.2831853071795969 $142 $234 forward 7 unknown #
loop $-1 $-1 $149 $89 #
plane-surface $-1 10.038023223987835 -12.795202851112194 65.833542735559675 0 0.75470958851134928 0.65605901945558964 1 0 0 forward_v I I I I #
loop $-1 $-1 $235 $57 #
coedge $-1 $147 $147 $148 $236 reversed $90 $-1 #
coedge $-1 $148 $148 $147 $236 forward $92 $-1 #
coedge $-1 $149 $149 $93 $150 forward $144 $-1 #
edge $-1 $237 -3.3209461657275502e-015 $237 6.2831853071795969 $149 $238 forward 7 unknown #
face $-1 $239 $240 $32 $-1 $241 forward single #
loop $-1 $-1 $242 $94 #
plane-surface $-1 3.0892212480858063 -118.97890532529888 106.56693781858566 1 0 0 0 0.6018150307709319 -0.79863550430605224 forward_v I I I I #
coedge $-1 $243 $244 $245 $246 reversed $95 $-1 #
coedge $-1 $156 $97 $247 $248 reversed $61 $-1 #
coedge $-1 $97 $155 $243 $249 reversed $61 $-1 #
coedge $-1 $245 $250 $97 $158 forward $240 $-1 #
edge $-1 $251 18.494696653839036 $252 38.477936276688538 $157 $253 forward 7 unknown #
loop $-1 $-1 $164 $98 #
plane-surface $-1 18.623431974841836 -40.994756008810427 3.078478353773562 0 -0.6018150307709319 0.79863550430605224 1 0 0 forward_v I I I I #
loop $-1 $-1 $254 $63 #
coedge $-1 $162 $162 $163 $255 reversed $99 $-1 #
coedge $-1 $163 $163 $162 $255 forward $101 $-1 #
coedge $-1 $164 $164 $102 $165 forward $159 $-1 #
edge $-1 $256 -1.9453303552012206e-015 $256 6.2831853071795987 $164 $257 forward 7 unknown #
loop $-1 $-1 $171 $103 #
plane-surface $-1 18.623431974841836 -40.994756008810427 3.078478353773562 0 -0.6018150307709319 0.79863550430605224 1 0 0 forward_v I I I I #
loop $-1 $-1 $258 $66 #
coedge $-1 $169 $169 $170 $259 reversed $104 $-1 #
coedge $-1 $170 $170 $169 $259 forward $106 $-1 #
coedge $-1 $171 $171 $107 $172 forward $166 $-1 #
edge $-1 $260 -1.9453303552012206e-015 $260 6.2831853071795987 $171 $261 forward 7 unknown #
loop $-1 $-1 $178 $108 #
plane-surface $-1 18.623431974841836 -40.994756008810427 3.078478353773562 0 -0.6018150307709319 0.79863550430605224 1 0 0 forward_v I I I I #
loop $-1 $-1 $262 $69 #
coedge $-1 $176 $176 $177 $263 reversed $109 $-1 #
coedge $-1 $177 $177 $176 $263 forward $111 $-1 #
coedge $-1 $178 $178 $112 $179 forward $173 $-1 #
edge $-1 $264 -1.9453303552012206e-015 $264 6.2831853071795987 $178 $265 forward 7 unknown #
face $-1 $266 $267 $27 $-1 $268 reversed single #
loop $-1 $-1 $269 $113 #
plane-surface $-1 -64.790795617542045 0 0 1 0 0 0 0 -1 forward_v I I I I #
coedge $-1 $270 $191 $271 $272 forward $114 $-1 #
coedge $-1 $273 $116 $270 $274 forward $73 $-1 #
coedge $-1 $116 $273 $275 $276 forward $73 $-1 #
coedge $-1 $194 $193 $116 $187 reversed $195 $-1 #
edge $-1 $277 -40.994756008810405 $278 40.994756008810405 $186 $279 forward 7 unknown #
coedge $-1 $118 $117 $280 $281 forward $46 $-1 #
coedge $-1 $282 $283 $117 $190 reversed $267 $-1 #
edge $-1 $197 -64.790795617542045 $284 64.790795617542045 $189 $285 forward 7 unknown #
coedge $-1 $183 $286 $118 $192 reversed $114 $-1 #
edge $-1 $287 -64.790795617542045 $196 64.790795617542045 $191 $288 forward 7 unknown #
coedge $-1 $186 $119 $286 $289 forward $195 $-1 #
coedge $-1 $119 $186 $282 $290 reversed $195 $-1 #
loop $-1 $-1 $193 $266 #
vertex $-1 $120 $291 #
vertex $-1 $120 $292 #
straight-curve $-1 64.790795617542045 0 18.136929804636456 0 1 0 I I #
face $-1 $293 $294 $28 $-1 $295 reversed single #
loop $-1 $-1 $204 $121 #
plane-surface $-1 0 -40.994756008810405 0 0 1 0 0 0 1 forward_v I I I I #
coedge $-1 $296 $297 $203 $298 forward $122 $-1 #
coedge $-1 $211 $124 $202 $298 reversed $77 $-1 #
coedge $-1 $209 $299 $124 $205 forward $200 $-1 #
edge $-1 $300 -11.151524528780174 $212 -2.8192860229323902 $204 $301 forward 7 unknown #
coedge $-1 $126 $125 $302 $303 reversed $49 $-1 #
coedge $-1 $304 $305 $125 $208 forward $306 $-1 #
edge $-1 $307 -35.627548480321785 $213 -22.698945794118735 $207 $308 forward 7 unknown #
coedge $-1 $309 $204 $126 $210 forward $200 $-1 #
edge $-1 $212 22.698945794118735 $310 35.627548480321785 $209 $311 forward 7 unknown #
coedge $-1 $127 $203 $304 $312 reversed $77 $-1 #
vertex $-1 $210 $313 #
vertex $-1 $208 $314 #
straight-curve $-1 -51.862192931338996 0 -9.8046912987886721 0 1 0 I I #
face $-1 $-1 $227 $29 $-1 $315 forward single #
loop $-1 $-1 $316 $129 #
plane-surface $-1 0 40.994756008810405 0 0 -1 0 0 0 -1 forward_v I I I I #
coedge $-1 $317 $318 $319 $320 reversed $130 $-1 #
coedge $-1 $321 $132 $134 $225 forward $81 $-1 #
coedge $-1 $132 $321 $317 $322 forward $81 $-1 #
coedge $-1 $319 $135 $132 $222 forward $227 $-1 #
edge $-1 $229 -2.0436438441875353 $323 12.081667068175371 $221 $324 forward 7 unknown #
coedge $-1 $325 $326 $133 $224 forward $216 $-1 #
edge $-1 $327 -71.468085351877249 $228 -57.286427405735537 $223 $328 forward 7 unknown #
edge $-1 $229 63.198631178124977 $327 81.989512017620839 $134 $329 forward 7 unknown #
coedge $-1 $135 $319 $325 $330 forward $227 $-1 #
loop $-1 $-1 $319 $215 #
vertex $-1 $224 $331 #
vertex $-1 $136 $332 #
straight-curve $-1 2.9753677678063823 42.500633274281995 18.136929804636452 0 -1 0 I I #
coedge $-1 $231 $231 $-1 $333 reversed $139 $-1 #
edge $-1 $334 0 $334 6.2831853071796004 $140 $335 forward 7 unknown #
vertex $-1 $143 $336 #
ellipse-curve $-1 7.0111708856243666 34.830792579677166 11.046100831565607 0 0.75470958851134928 0.65605901945558964 1 0 0 1 I I #
coedge $-1 $235 $235 $-1 $337 reversed $146 $-1 #
edge $-1 $338 0 $338 6.2831853071796004 $147 $339 forward 7 unknown #
vertex $-1 $150 $340 #
ellipse-curve $-1 13.064875562351318 34.830792579677166 11.046100831565607 0 0.75470958851134928 0.65605901945558964 1 0 0 1 I I #
face $-1 $-1 $341 $32 $-1 $342 reversed single #
loop $-1 $-1 $157 $151 #
plane-surface $-1 0 0 18.136929804636456 0 0 1 1 0 0 forward_v I I I I #
coedge $-1 $343 $344 $345 $346 reversed $152 $-1 #
coedge $-1 $347 $154 $156 $249 forward $95 $-1 #
coedge $-1 $154 $347 $343 $348 forward $95 $-1 #
coedge $-1 $345 $157 $154 $246 forward $240 $-1 #
edge $-1 $252 -24.845926714176947 $349 6.2224947393351115 $245 $350 forward 7 unknown #
coedge $-1 $351 $352 $155 $248 forward $341 $-1 #
edge $-1 $353 -50.204990555519252 $251 -35.14653910465637 $247 $354 forward 7 unknown #
edge $-1 $252 -25.021727077126751 $353 -2.6645283896817444e-014 $156 $355 forward 7 unknown #
coedge $-1 $157 $345 $351 $356 forward $240 $-1 #
vertex $-1 $158 $357 #
vertex $-1 $158 $358 #
straight-curve $-1 34.157642701597865 -59.489452662649441 18.136929804636459 0 1 0 I I #
coedge $-1 $254 $254 $-1 $359 reversed $161 $-1 #
edge $-1 $360 0 $360 6.2831853071796004 $162 $361 forward 7 unknown #
vertex $-1 $165 $362 #
ellipse-curve $-1 9.3029055387882238 -31.003136197385643 10.607704079205025 0 -0.6018150307709319 0.79863550430605224 1.5 0 0 1 I I #
coedge $-1 $258 $258 $-1 $363 reversed $168 $-1 #
edge $-1 $364 0 $364 6.2831853071796004 $169 $365 forward 7 unknown #
vertex $-1 $172 $366 #
ellipse-curve $-1 18.62343197484185 -31.003136197385643 10.607704079205025 0 -0.6018150307709319 0.79863550430605224 1.5 0 0 1 I I #
coedge $-1 $262 $262 $-1 $367 reversed $175 $-1 #
edge $-1 $368 0 $368 6.2831853071796004 $176 $369 forward 7 unknown #
vertex $-1 $179 $370 #
ellipse-curve $-1 27.943958410895476 -31.003136197385643 10.607704079205025 0 -0.6018150307709319 0.79863550430605224 1.5 0 0 1 I I #
face $-1 $-1 $195 $27 $-1 $371 reversed single #
loop $-1 $-1 $282 $180 #
plane-surface $-1 0 40.994756008810405 0 0 -1 0 0 0 -1 forward_v I I I I #
coedge $-1 $372 $280 $283 $373 forward $181 $-1 #
coedge $-1 $286 $183 $184 $274 reversed $114 $-1 #
coedge $-1 $280 $372 $183 $272 reversed $181 $-1 #
edge $-1 $287 -18.136929804636456 $374 18.136929804636456 $271 $375 forward 7 unknown #
coedge $-1 $185 $184 $372 $376 forward $73 $-1 #
edge $-1 $278 -64.790795617542045 $374 64.790795617542045 $270 $377 forward 7 unknown #
coedge $-1 $283 $282 $185 $276 reversed $267 $-1 #
edge $-1 $378 -64.790795617542045 $277 64.790795617542045 $275 $379 forward 7 unknown #
vertex $-1 $187 $380 #
vertex $-1 $289 $381 #
straight-curve $-1 64.790795617542045 0 -18.136929804636456 0 -1 0 I I #
coedge $-1 $269 $271 $188 $281 reversed $181 $-1 #
edge $-1 $284 -40.994756008810405 $287 40.994756008810405 $280 $382 forward 7 unknown #
coedge $-1 $275 $189 $194 $290 forward $267 $-1 #
coedge $-1 $189 $275 $269 $373 reversed $267 $-1 #
vertex $-1 $190 $383 #
straight-curve $-1 0 40.994756008810405 18.136929804636456 -1 0 0 I I #
coedge $-1 $191 $270 $193 $289 reversed $114 $-1 #
vertex $-1 $281 $384 #
straight-curve $-1 0 -40.994756008810405 18.136929804636456 1 0 0 I I #
edge $-1 $196 -18.136929804636456 $278 18.136929804636456 $193 $385 forward 7 unknown #
edge $-1 $197 -18.136929804636456 $277 18.136929804636456 $194 $386 forward 7 unknown #
point $-1 64.790795617542045 -40.994756008810405 18.136929804636456 #
point $-1 64.790795617542045 40.994756008810405 18.136929804636456 #
face $-1 $-1 $306 $28 $-1 $387 reversed single #
loop $-1 $-1 $302 $199 #
plane-surface $-1 -64.790795617542045 0 0 1 0 0 0 0 -1 forward_v I I I I #
coedge $-1 $388 $202 $299 $389 forward $122 $-1 #
coedge $-1 $202 $388 $390 $391 forward $122 $-1 #
edge $-1 $392 -40.994756008810405 $300 40.994756008810405 $202 $393 forward 7 unknown #
coedge $-1 $204 $309 $296 $389 reversed $200 $-1 #
vertex $-1 $389 $394 #
straight-curve $-1 -51.862192931338996 -40.994756008810405 -6.9854052758562819 0 0 1 I I #
coedge $-1 $395 $396 $206 $303 forward $294 $-1 #
edge $-1 $310 -40.994756008810405 $307 40.994756008810405 $302 $397 forward 7 unknown #
coedge $-1 $390 $207 $211 $312 forward $306 $-1 #
coedge $-1 $207 $390 $395 $398 reversed $306 $-1 #
loop $-1 $-1 $304 $293 #
vertex $-1 $398 $399 #
straight-curve $-1 -29.16324713722026 40.994756008810405 -9.8046912987886721 1 0 0 I I #
coedge $-1 $299 $209 $396 $400 forward $200 $-1 #
vertex $-1 $400 $401 #
straight-curve $-1 -29.16324713722026 -40.994756008810405 -9.8046912987886721 -1 0 0 I I #
edge $-1 $213 2.8192860229323902 $392 11.151524528780174 $304 $402 forward 7 unknown #
point $-1 -51.862192931338996 -40.994756008810405 -9.8046912987886721 #
point $-1 -51.862192931338996 40.994756008810405 -9.8046912987886721 #
plane-surface $-1 0 0 18.136929804636456 0 0 1 1 0 0 forward_v I I I I #
coedge $-1 $326 $325 $318 $403 forward $216 $-1 #
coedge $-1 $318 $218 $220 $322 reversed $130 $-1 #
coedge $-1 $218 $317 $316 $403 reversed $130 $-1 #
coedge $-1 $226 $221 $218 $320 forward $227 $-1 #
edge $-1 $323 -13.833804123738069 $404 -1.5058772654715895 $319 $405 forward 7 unknown #
coedge $-1 $220 $219 $326 $406 reversed $81 $-1 #
edge $-1 $407 -81.989512017620839 $323 -63.198631178124977 $317 $408 forward 7 unknown #
vertex $-1 $222 $409 #
straight-curve $-1 5.0190116119939177 28.666829150543926 18.136929804636452 1 0 0 I I #
coedge $-1 $316 $223 $226 $330 reversed $216 $-1 #
coedge $-1 $223 $316 $321 $406 forward $216 $-1 #
vertex $-1 $224 $410 #
straight-curve $-1 2.9753677678063823 40.994756008810405 75.423357210371989 0 0 1 I I #
straight-curve $-1 2.9753677678063823 -12.795202851112194 65.833542735559675 0 0.65605901945558964 -0.75470958851134928 I I #
edge $-1 $404 -17.100678680169288 $228 -2.9753677678063823 $325 $411 forward 7 unknown #
point $-1 2.9753677678063823 40.994756008810405 18.136929804636456 #
point $-1 2.9753677678063823 28.666829150543926 18.136929804636452 #
edge $-1 $412 1 $412 0 $231 $-1 forward 7 unknown #
vertex $-1 $232 $413 #
ellipse-curve $-1 7.0111708856243666 33.129580844790326 9.567260069945398 0 0.75470958851134928 0.65605901945558964 1 0 0 1 I I #
point $-1 8.0111708856243666 34.830792579677158 11.046100831565605 #
edge $-1 $414 1 $414 0 $235 $-1 forward 7 unknown #
vertex $-1 $236 $415 #
ellipse-curve $-1 13.064875562351318 33.129580844790326 9.567260069945398 0 0.75470958851134928 0.65605901945558964 1 0 0 1 I I #
point $-1 14.064875562351318 34.830792579677158 11.046100831565605 #
loop $-1 $-1 $247 $239 #
plane-surface $-1 0 -40.994756008810405 0 0 1 0 0 0 1 forward_v I I I I #
coedge $-1 $344 $242 $244 $348 reversed $152 $-1 #
coedge $-1 $242 $343 $416 $417 reversed $152 $-1 #
coedge $-1 $250 $245 $242 $346 forward $240 $-1 #
edge $-1 $349 -38.477936276688538 $418 -18.494696653839036 $345 $419 forward 7 unknown #
coedge $-1 $244 $243 $352 $420 reversed $95 $-1 #
edge $-1 $421 2.6645283896817444e-014 $349 25.021727077126751 $343 $422 forward 7 unknown #
vertex $-1 $246 $423 #
straight-curve $-1 9.3117159874209179 -21.011516385960906 18.136929804636456 -1 0 0 I I #
coedge $-1 $416 $247 $250 $356 reversed $341 $-1 #
coedge $-1 $247 $416 $347 $420 forward $341 $-1 #
vertex $-1 $248 $424 #
straight-curve $-1 34.157642701597865 -40.994756008810405 53.283468909292829 0 0 1 I I #
straight-curve $-1 34.157642701597865 -40.994756008810427 3.078478353773562 0 -0.79863550430605224 -0.6018150307709319 I I #
edge $-1 $418 3.0892212480858063 $251 34.157642701597865 $351 $425 forward 7 unknown #
point $-1 34.157642701597865 -40.994756008810405 18.136929804636456 #
point $-1 34.157642701597865 -21.011516385960903 18.136929804636456 #
edge $-1 $426 1 $426 0 $254 $-1 forward 7 unknown #
vertex $-1 $255 $427 #
ellipse-curve $-1 9.3029055387882238 -29.768494304444587 8.9692789811425087 0 -0.6018150307709319 0.79863550430605224 1.5 0 0 1 I I #
point $-1 10.802905538788224 -31.003136197385626 10.607704079204996 #
edge $-1 $428 1 $428 0 $258 $-1 forward 7 unknown #
vertex $-1 $259 $429 #
ellipse-curve $-1 18.62343197484185 -29.768494304444587 8.9692789811425087 0 -0.6018150307709319 0.79863550430605224 1.5 0 0 1 I I #
point $-1 20.12343197484185 -31.003136197385626 10.607704079204996 #
edge $-1 $430 1 $430 0 $262 $-1 forward 7 unknown #
vertex $-1 $263 $431 #
ellipse-curve $-1 27.943958410895476 -29.768494304444587 8.9692789811425087 0 -0.6018150307709319 0.79863550430605224 1.5 0 0 1 I I #
point $-1 29.443958410895476 -31.003136197385626 10.607704079204996 #
plane-surface $-1 64.790795617542045 0 0 -1 0 0 0 0 1 forward_v I I I I #
coedge $-1 $271 $269 $273 $376 reversed $181 $-1 #
edge $-1 $284 -18.136929804636456 $378 18.136929804636456 $283 $432 forward 7 unknown #
vertex $-1 $376 $433 #
straight-curve $-1 -64.790795617542045 -40.994756008810405 0 0 0 -1 I I #
edge $-1 $374 -40.994756008810405 $378 40.994756008810405 $372 $434 forward 7 unknown #
straight-curve $-1 0 -40.994756008810405 -18.136929804636456 -1 0 0 I I #
vertex $-1 $276 $435 #
straight-curve $-1 0 40.994756008810405 -18.136929804636456 1 0 0 I I #
point $-1 64.790795617542045 40.994756008810405 -18.136929804636456 #
point $-1 64.790795617542045 -40.994756008810405 -18.136929804636456 #
straight-curve $-1 -64.790795617542045 0 18.136929804636456 0 -1 0 I I #
point $-1 -64.790795617542045 40.994756008810405 18.136929804636456 #
point $-1 -64.790795617542045 -40.994756008810405 18.136929804636456 #
straight-curve $-1 64.790795617542045 -40.994756008810405 0 0 0 -1 I I #
straight-curve $-1 64.790795617542045 40.994756008810405 0 0 0 -1 I I #
plane-surface $-1 0 40.994756008810405 0 0 -1 0 0 0 -1 forward_v I I I I #
coedge $-1 $297 $296 $436 $437 forward $122 $-1 #
edge $-1 $300 51.862192931338996 $438 64.790795617542045 $299 $439 forward 7 unknown #
coedge $-1 $305 $304 $297 $391 reversed $306 $-1 #
edge $-1 $440 -64.790795617542045 $392 -51.862192931338996 $390 $441 forward 7 unknown #
vertex $-1 $312 $442 #
straight-curve $-1 -51.862192931338996 0 -18.136929804636456 0 -1 0 I I #
point $-1 -51.862192931338996 -40.994756008810405 -18.136929804636456 #
coedge $-1 $436 $302 $305 $398 forward $294 $-1 #
coedge $-1 $302 $436 $309 $400 reversed $294 $-1 #
straight-curve $-1 -64.790795617542045 0 -9.8046912987886721 0 1 0 I I #
edge $-1 $307 9.8046912987886721 $440 18.136929804636456 $305 $443 forward 7 unknown #
point $-1 -64.790795617542045 40.994756008810405 -9.8046912987886721 #
edge $-1 $310 9.8046912987886721 $438 18.136929804636456 $396 $444 forward 7 unknown #
point $-1 -64.790795617542045 -40.994756008810405 -9.8046912987886721 #
straight-curve $-1 -51.862192931338996 40.994756008810405 -6.9854052758562819 0 0 -1 I I #
edge $-1 $404 57.286427405735537 $407 71.468085351877249 $316 $445 forward 7 unknown #
vertex $-1 $330 $446 #
straight-curve $-1 17.100678680169288 42.500633274281995 18.136929804636452 0 1 0 I I #
edge $-1 $407 -12.081667068175371 $327 2.0436438441875353 $326 $447 forward 7 unknown #
vertex $-1 $406 $448 #
straight-curve $-1 17.100678680169288 -12.795202851112194 65.833542735559675 0 -0.65605901945558964 0.75470958851134928 I I #
point $-1 17.100678680169288 28.666829150543926 18.136929804636452 #
point $-1 2.9753677678063823 40.994756008810405 3.9552718584947399 #
straight-curve $-1 0 40.994756008810405 18.136929804636456 -1 0 0 I I #
vertex $-1 $333 $449 #
point $-1 8.0111708856243666 33.129580844790326 9.567260069945398 #
vertex $-1 $337 $450 #
point $-1 14.064875562351318 33.129580844790326 9.567260069945398 #
coedge $-1 $352 $351 $344 $417 forward $341 $-1 #
edge $-1 $418 35.14653910465637 $421 50.204990555519252 $416 $451 forward 7 unknown #
vertex $-1 $356 $452 #
straight-curve $-1 3.0892212480858063 -59.489452662649441 18.136929804636459 0 -1 0 I I #
edge $-1 $421 -6.2224947393351115 $353 24.845926714176947 $352 $453 forward 7 unknown #
vertex $-1 $420 $454 #
straight-curve $-1 3.0892212480858063 -40.994756008810427 3.078478353773562 0 0.79863550430605224 0.6018150307709319 I I #
point $-1 3.0892212480858063 -21.011516385960903 18.136929804636456 #
point $-1 34.157642701597865 -40.994756008810405 3.078478353773578 #
straight-curve $-1 0 -40.994756008810405 18.136929804636456 1 0 0 I I #
vertex $-1 $359 $455 #
point $-1 10.802905538788224 -29.768494304444587 8.9692789811425087 #
vertex $-1 $363 $456 #
point $-1 20.12343197484185 -29.768494304444587 8.9692789811425087 #
vertex $-1 $367 $457 #
point $-1 29.443958410895476 -29.768494304444587 8.9692789811425087 #
straight-curve $-1 -64.790795617542045 40.994756008810405 0 0 0 -1 I I #
point $-1 -64.790795617542045 -40.994756008810405 -18.136929804636456 #
straight-curve $-1 -64.790795617542045 0 -18.136929804636456 0 1 0 I I #
point $-1 -64.790795617542045 40.994756008810405 -18.136929804636456 #
coedge $-1 $396 $395 $388 $437 reversed $294 $-1 #
edge $-1 $438 -40.994756008810405 $440 40.994756008810405 $436 $458 forward 7 unknown #
vertex $-1 $437 $459 #
straight-curve $-1 0 -40.994756008810405 -18.136929804636456 -1 0 0 I I #
vertex $-1 $391 $460 #
straight-curve $-1 0 40.994756008810405 -18.136929804636456 1 0 0 I I #
point $-1 -51.862192931338996 40.994756008810405 -18.136929804636456 #
straight-curve $-1 -64.790795617542045 40.994756008810405 0 0 0 -1 I I #
straight-curve $-1 -64.790795617542045 -40.994756008810405 0 0 0 -1 I I #
straight-curve $-1 17.100678680169288 40.994756008810405 75.423357210371989 0 0 -1 I I #
point $-1 17.100678680169288 40.994756008810405 18.136929804636456 #
straight-curve $-1 5.0190116119939177 40.994756008810405 3.9552718584947364 -1 0 0 I I #
point $-1 17.100678680169288 40.994756008810405 3.9552718584947399 #
point $-1 7.0111708856243666 32.374871256278979 8.911201050489808 #
point $-1 13.064875562351318 32.374871256278979 8.911201050489808 #
straight-curve $-1 3.0892212480858063 -40.994756008810405 53.283468909292829 0 0 -1 I I #
point $-1 3.0892212480858063 -40.994756008810405 18.136929804636456 #
straight-curve $-1 9.3117159874209179 -40.994756008810405 3.0784783537735745 1 0 0 I I #
point $-1 3.0892212480858063 -40.994756008810405 3.078478353773578 #
point $-1 9.3029055387882238 -28.86577175828819 7.7713257246834297 #
point $-1 18.62343197484185 -28.86577175828819 7.7713257246834297 #
point $-1 27.943958410895476 -28.86577175828819 7.7713257246834297 #
straight-curve $-1 -64.790795617542045 0 -18.136929804636456 0 1 0 I I #
point $-1 -64.790795617542045 -40.994756008810405 -18.136929804636456 #
point $-1 -64.790795617542045 40.994756008810405 -18.136929804636456 #
End-of-ACIS-data 