500 0 14 0           
7 Unknown 11 ACIS 5.0 NT 24 Thu Mar 25 19:24:05 1999 
-1 9.9999999999999995e-007 1e-010 
body $-1 $14 $-1 $15 #
body $-1 $16 $-1 $17 #
body $-1 $18 $-1 $19 #
body $-1 $20 $-1 $21 #
body $-1 $22 $-1 $23 #
body $-1 $24 $-1 $25 #
body $-1 $26 $-1 $27 #
body $-1 $28 $-1 $29 #
body $-1 $30 $-1 $31 #
body $-1 $32 $-1 $33 #
body $-1 $34 $-1 $35 #
body $-1 $36 $-1 $37 #
body $-1 $38 $-1 $39 #
body $-1 $40 $-1 $41 #
lump $-1 $-1 $42 $0 #
transform $-1 1 0 0 0 1 0 0 0 1 58.794518875698117 33.676535784986498 14.229818909605108 1 rotate no_reflect no_shear #
lump $-1 $-1 $43 $1 #
transform $-1 1 0 0 0 1 0 0 0 1 58.794518875698117 33.676535784986498 14.229818909605108 1 rotate no_reflect no_shear #
lump $-1 $-1 $44 $2 #
transform $-1 1 0 0 0 1 0 0 0 1 58.794518875698117 33.676535784986498 14.229818909605108 1 rotate no_reflect no_shear #
lump $-1 $-1 $45 $3 #
transform $-1 1 0 0 0 1 0 0 0 1 58.794518875698117 33.676535784986498 14.229818909605108 1 rotate no_reflect no_shear #
lump $-1 $-1 $46 $4 #
transform $-1 1 0 0 0 1 0 0 0 1 58.794518875698117 33.676535784986498 14.229818909605108 1 rotate no_reflect no_shear #
lump $-1 $-1 $47 $5 #
transform $-1 1 0 0 0 1 0 0 0 1 58.794518875698117 33.676535784986498 14.229818909605108 1 rotate no_reflect no_shear #
lump $-1 $-1 $48 $6 #
transform $-1 1 0 0 0 1 0 0 0 1 58.794518875698117 33.676535784986498 14.229818909605108 1 rotate no_reflect no_shear #
lump $-1 $-1 $49 $7 #
transform $-1 1 0 0 0 1 0 0 0 1 58.794518875698117 33.676535784986498 14.229818909605108 1 rotate no_reflect no_shear #
lump $-1 $-1 $50 $8 #
transform $-1 1 0 0 0 1 0 0 0 1 58.794518875698117 33.676535784986498 14.229818909605108 1 rotate no_reflect no_shear #
lump $-1 $-1 $51 $9 #
transform $-1 1 0 0 0 1 0 0 0 1 58.794518875698117 33.676535784986498 14.229818909605108 1 rotate no_reflect no_shear #
lump $-1 $-1 $52 $10 #
transform $-1 1 0 0 0 1 0 0 0 1 58.794518875698117 33.676535784986498 14.229818909605108 1 rotate no_reflect no_shear #
lump $-1 $-1 $53 $11 #
transform $-1 1 0 0 0 1 0 0 0 1 58.794518875698117 33.676535784986498 14.229818909605108 1 rotate no_reflect no_shear #
lump $-1 $-1 $54 $12 #
transform $-1 1 0 0 0 1 0 0 0 1 58.794518875698117 33.676535784986498 14.229818909605108 1 rotate no_reflect no_shear #
lump $-1 $-1 $55 $13 #
transform $-1 1 0 0 0 1 0 0 0 1 58.794518875698117 33.676535784986498 14.229818909605108 1 rotate no_reflect no_shear #
shell $-1 $-1 $-1 $56 $-1 $14 #
shell $-1 $-1 $-1 $57 $-1 $16 #
shell $-1 $-1 $-1 $58 $-1 $18 #
shell $-1 $-1 $-1 $59 $-1 $20 #
shell $-1 $-1 $-1 $60 $-1 $22 #
shell $-1 $-1 $-1 $61 $-1 $24 #
shell $-1 $-1 $-1 $62 $-1 $26 #
shell $-1 $-1 $-1 $63 $-1 $28 #
shell $-1 $-1 $-1 $64 $-1 $30 #
shell $-1 $-1 $-1 $65 $-1 $32 #
shell $-1 $-1 $-1 $66 $-1 $34 #
shell $-1 $-1 $-1 $67 $-1 $36 #
shell $-1 $-1 $-1 $68 $-1 $38 #
shell $-1 $-1 $-1 $69 $-1 $40 #
face $-1 $70 $71 $42 $-1 $72 forward single #
face $-1 $73 $74 $43 $-1 $75 forward single #
face $-1 $76 $77 $44 $-1 $78 reversed single #
face $-1 $79 $80 $45 $-1 $81 forward single #
face $-1 $82 $83 $46 $-1 $84 forward single #
face $-1 $85 $86 $47 $-1 $87 reversed single #
face $-1 $88 $89 $48 $-1 $90 forward single #
face $-1 $91 $92 $49 $-1 $93 forward single #
face $-1 $94 $95 $50 $-1 $96 reversed single #
face $-1 $97 $98 $51 $-1 $99 forward single #
face $-1 $100 $101 $52 $-1 $102 forward single #
face $-1 $103 $104 $53 $-1 $105 reversed single #
face $-1 $106 $107 $54 $-1 $108 forward single #
face $-1 $109 $110 $55 $-1 $111 forward single #
face $-1 $112 $113 $42 $-1 $114 reversed single #
loop $-1 $-1 $115 $56 #
plane-surface $-1 0 0 14.229818909605108 0 0 1 1 0 0 forward_v I I I I #
face $-1 $116 $117 $43 $-1 $118 forward single #
loop $-1 $-1 $119 $57 #
plane-surface $-1 -58.794518875698117 0 0 1 0 0 0 0 -1 forward_v I I I I #
face $-1 $120 $121 $44 $-1 $122 reversed single #
loop $-1 $-1 $123 $58 #
plane-surface $-1 -29.708700555996106 -127.5873178925883 71.590055231676644 -1 0 0 0 -0.79863551827123203 0.60181501223851219 forward_v I I I I #
face $-1 $124 $125 $45 $-1 $126 forward single #
loop $-1 $127 $128 $59 #
cone-surface $-1 -43.682585612027239 -26.597793461602578 5.9987280495364779 0 0.79863551827123203 -0.60181501223851219 1.5 0 0 1 I I 0 1 1.5 forward I I I I #
face $-1 $129 $130 $46 $-1 $131 forward single #
loop $-1 $132 $133 $60 #
cone-surface $-1 -35.29825457840856 -26.597793461602578 5.9987280495364779 0 0.79863551827123203 -0.60181501223851219 1.5 0 0 1 I I 0 1 1.5 forward I I I I #
face $-1 $134 $135 $47 $-1 $136 reversed single #
loop $-1 $-1 $137 $61 #
plane-surface $-1 24.3246286990728 -127.5873178925883 71.590055231676644 -1 0 0 0 -0.79863551827123203 0.60181501223851219 forward_v I I I I #
face $-1 $138 $139 $48 $-1 $140 forward single #
loop $-1 $141 $142 $62 #
cone-surface $-1 10.350743643041667 -26.597793461602578 5.9987280495364779 0 0.79863551827123203 -0.60181501223851219 1.5 0 0 1 I I 0 1 1.5 forward I I I I #
face $-1 $143 $144 $49 $-1 $145 forward single #
loop $-1 $146 $147 $63 #
cone-surface $-1 18.735074676660346 -26.597793461602578 5.9987280495364779 0 0.79863551827123203 -0.60181501223851219 1.5 0 0 1 I I 0 1 1.5 forward I I I I #
face $-1 $148 $149 $50 $-1 $150 reversed single #
loop $-1 $-1 $151 $64 #
plane-surface $-1 -49.272139634439696 87.053228301403607 125.3806104521214 1 0 0 0 -0.79863551827123203 -0.60181501223851219 forward_v I I I I #
face $-1 $152 $153 $51 $-1 $154 forward single #
loop $-1 $155 $156 $65 #
cone-surface $-1 -43.682585612027239 26.597793461602571 5.9987280495364743 0 -0.79863551827123203 -0.60181501223851219 1.5 0 0 1 I I 0 1 1.5 forward I I I I #
face $-1 $157 $158 $52 $-1 $159 forward single #
loop $-1 $160 $161 $66 #
cone-surface $-1 -35.29825457840856 26.597793461602571 5.9987280495364743 0 -0.79863551827123203 -0.60181501223851219 1.5 0 0 1 I I 0 1 1.5 forward I I I I #
face $-1 $162 $163 $53 $-1 $164 reversed single #
loop $-1 $-1 $165 $67 #
plane-surface $-1 4.7611896206292137 87.053228301403607 125.3806104521214 1 0 0 0 -0.79863551827123203 -0.60181501223851219 forward_v I I I I #
face $-1 $166 $167 $54 $-1 $168 forward single #
loop $-1 $169 $170 $68 #
cone-surface $-1 10.350743643041667 26.597793461602571 5.9987280495364743 0 -0.79863551827123203 -0.60181501223851219 1.5 0 0 1 I I 0 1 1.5 forward I I I I #
face $-1 $171 $172 $55 $-1 $173 forward single #
loop $-1 $174 $175 $69 #
cone-surface $-1 18.735074676660346 26.597793461602571 5.9987280495364743 0 -0.79863551827123203 -0.60181501223851219 1.5 0 0 1 I I 0 1 1.5 forward I I I I #
face $-1 $176 $177 $42 $-1 $178 reversed single #
loop $-1 $-1 $179 $70 #
plane-surface $-1 0 0 -14.229818909605108 0 0 1 1 0 0 forward_v I I I I #
coedge $-1 $180 $181 $182 $183 forward $71 $-1 #
face $-1 $184 $185 $43 $-1 $186 reversed single #
loop $-1 $-1 $187 $73 #
plane-surface $-1 0 0 14.229818909605108 0 0 1 1 0 0 forward_v I I I I #
coedge $-1 $188 $189 $190 $191 forward $74 $-1 #
face $-1 $192 $193 $44 $-1 $194 reversed single #
loop $-1 $-1 $195 $76 #
plane-surface $-1 -39.4904200952179 -33.676535784986498 0.82320703820525409 0 -0.79863551827123203 0.60181501223851219 1 0 0 forward_v I I I I #
coedge $-1 $196 $197 $198 $199 reversed $77 $-1 #
face $-1 $-1 $200 $45 $-1 $201 forward single #
loop $-1 $202 $203 $79 #
cone-surface $-1 -43.682585612027239 -23.971377692822081 4.0195818659888936 0 0.79863551827123203 -0.60181501223851219 0.75 0 0 1 I I -0.70710678118654757 0.70710678118654757 0.75 forward I I I I #
loop $-1 $-1 $204 $59 #
coedge $-1 $128 $128 $205 $206 reversed $80 $-1 #
face $-1 $-1 $207 $46 $-1 $208 forward single #
loop $-1 $209 $210 $82 #
cone-surface $-1 -35.29825457840856 -23.971377692822081 4.0195818659888936 0 0.79863551827123203 -0.60181501223851219 0.75 0 0 1 I I -0.70710678118654757 0.70710678118654757 0.75 forward I I I I #
loop $-1 $-1 $211 $60 #
coedge $-1 $133 $133 $212 $213 reversed $83 $-1 #
face $-1 $214 $215 $47 $-1 $216 reversed single #
loop $-1 $-1 $217 $85 #
plane-surface $-1 14.542909159851007 -33.676535784986498 0.82320703820525409 0 -0.79863551827123203 0.60181501223851219 1 0 0 forward_v I I I I #
coedge $-1 $218 $219 $220 $221 reversed $86 $-1 #
face $-1 $-1 $222 $48 $-1 $223 forward single #
loop $-1 $224 $225 $88 #
cone-surface $-1 10.350743643041667 -23.971377692822081 4.0195818659888936 0 0.79863551827123203 -0.60181501223851219 0.75 0 0 1 I I -0.70710678118654757 0.70710678118654757 0.75 forward I I I I #
loop $-1 $-1 $226 $62 #
coedge $-1 $142 $142 $227 $228 reversed $89 $-1 #
face $-1 $-1 $229 $49 $-1 $230 forward single #
loop $-1 $231 $232 $91 #
cone-surface $-1 18.735074676660346 -23.971377692822081 4.0195818659888936 0 0.79863551827123203 -0.60181501223851219 0.75 0 0 1 I I -0.70710678118654757 0.70710678118654757 0.75 forward I I I I #
loop $-1 $-1 $233 $63 #
coedge $-1 $147 $147 $234 $235 reversed $92 $-1 #
face $-1 $236 $237 $50 $-1 $238 reversed single #
loop $-1 $-1 $239 $94 #
plane-surface $-1 -39.4904200952179 -6.8575538061981973 54.613762258650013 0 0.79863551827123203 0.60181501223851219 1 0 0 forward_v I I I I #
coedge $-1 $240 $241 $242 $243 reversed $95 $-1 #
face $-1 $-1 $244 $51 $-1 $245 forward single #
loop $-1 $246 $247 $97 #
cone-surface $-1 -43.682585612027239 23.971377692822074 4.01958186598889 0 -0.79863551827123203 -0.60181501223851219 0.75 0 0 1 I I -0.70710678118654757 0.70710678118654757 0.75 forward I I I I #
loop $-1 $-1 $248 $65 #
coedge $-1 $156 $156 $249 $250 reversed $98 $-1 #
face $-1 $-1 $251 $52 $-1 $252 forward single #
loop $-1 $253 $254 $100 #
cone-surface $-1 -35.29825457840856 23.971377692822074 4.01958186598889 0 -0.79863551827123203 -0.60181501223851219 0.75 0 0 1 I I -0.70710678118654757 0.70710678118654757 0.75 forward I I I I #
loop $-1 $-1 $255 $66 #
coedge $-1 $161 $161 $256 $257 reversed $101 $-1 #
face $-1 $258 $259 $53 $-1 $260 reversed single #
loop $-1 $-1 $261 $103 #
plane-surface $-1 14.542909159851007 -6.8575538061981973 54.613762258650013 0 0.79863551827123203 0.60181501223851219 1 0 0 forward_v I I I I #
coedge $-1 $262 $263 $264 $265 reversed $104 $-1 #
face $-1 $-1 $266 $54 $-1 $267 forward single #
loop $-1 $268 $269 $106 #
cone-surface $-1 10.350743643041667 23.971377692822074 4.01958186598889 0 -0.79863551827123203 -0.60181501223851219 0.75 0 0 1 I I -0.70710678118654757 0.70710678118654757 0.75 forward I I I I #
loop $-1 $-1 $270 $68 #
coedge $-1 $170 $170 $271 $272 reversed $107 $-1 #
face $-1 $-1 $273 $55 $-1 $274 forward single #
loop $-1 $275 $276 $109 #
cone-surface $-1 18.735074676660346 23.971377692822074 4.01958186598889 0 -0.79863551827123203 -0.60181501223851219 0.75 0 0 1 I I -0.70710678118654757 0.70710678118654757 0.75 forward I I I I #
loop $-1 $-1 $277 $69 #
coedge $-1 $175 $175 $278 $279 reversed $110 $-1 #
face $-1 $280 $281 $42 $-1 $282 reversed single #
loop $-1 $-1 $283 $112 #
plane-surface $-1 0 -33.676535784986498 0 0 1 0 0 0 1 forward_v I I I I #
coedge $-1 $284 $285 $286 $287 forward $113 $-1 #
coedge $-1 $288 $115 $289 $290 forward $71 $-1 #
coedge $-1 $115 $288 $291 $292 forward $71 $-1 #
coedge $-1 $293 $294 $115 $183 reversed $295 $-1 #
edge $-1 $296 -33.676535784986498 $297 33.676535784986498 $182 $298 forward 7 unknown #
face $-1 $299 $300 $43 $-1 $301 reversed single #
loop $-1 $-1 $302 $116 #
plane-surface $-1 -68.316898116956551 -30.066382045631713 0 1 0 0 0 0 -1 forward_v I I I I #
coedge $-1 $303 $304 $188 $305 forward $117 $-1 #
coedge $-1 $306 $119 $187 $305 reversed $74 $-1 #
coedge $-1 $119 $306 $307 $308 reversed $74 $-1 #
coedge $-1 $309 $310 $119 $191 reversed $300 $-1 #
edge $-1 $311 -14.229818909605108 $312 14.229818909605108 $190 $313 forward 7 unknown #
face $-1 $314 $315 $44 $-1 $316 forward single #
loop $-1 $-1 $317 $120 #
plane-surface $-1 -49.272139634439696 -127.5873178925883 71.590055231676644 1 0 0 0 0.79863551827123203 -0.60181501223851219 forward_v I I I I #
coedge $-1 $318 $319 $320 $321 reversed $121 $-1 #
coedge $-1 $197 $123 $322 $323 reversed $77 $-1 #
coedge $-1 $123 $196 $318 $324 reversed $77 $-1 #
coedge $-1 $320 $325 $123 $199 forward $315 $-1 #
edge $-1 $326 30.117123161307653 $327 40.219729547921347 $198 $328 forward 7 unknown #
loop $-1 $-1 $205 $124 #
plane-surface $-1 -39.4904200952179 -33.676535784986498 0.82320703820525409 0 -0.79863551827123203 0.60181501223851219 1 0 0 forward_v I I I I #
loop $-1 $-1 $329 $79 #
coedge $-1 $203 $203 $204 $330 reversed $125 $-1 #
coedge $-1 $204 $204 $203 $330 forward $127 $-1 #
coedge $-1 $205 $205 $128 $206 forward $200 $-1 #
edge $-1 $331 -4.7288722168968887e-016 $331 6.2831853071795996 $205 $332 forward 7 unknown #
loop $-1 $-1 $212 $129 #
plane-surface $-1 -39.4904200952179 -33.676535784986498 0.82320703820525409 0 -0.79863551827123203 0.60181501223851219 1 0 0 forward_v I I I I #
loop $-1 $-1 $333 $82 #
coedge $-1 $210 $210 $211 $334 reversed $130 $-1 #
coedge $-1 $211 $211 $210 $334 forward $132 $-1 #
coedge $-1 $212 $212 $133 $213 forward $207 $-1 #
edge $-1 $335 -4.7288722168968887e-016 $335 6.2831853071795996 $212 $336 forward 7 unknown #
face $-1 $337 $338 $47 $-1 $339 reversed single #
loop $-1 $-1 $340 $134 #
plane-surface $-1 4.7611896206292137 -127.5873178925883 71.590055231676644 1 0 0 0 0.79863551827123203 -0.60181501223851219 forward_v I I I I #
coedge $-1 $341 $342 $343 $344 reversed $135 $-1 #
coedge $-1 $219 $137 $345 $346 reversed $86 $-1 #
coedge $-1 $137 $218 $341 $347 reversed $86 $-1 #
coedge $-1 $343 $348 $137 $221 forward $349 $-1 #
edge $-1 $350 30.117123161307653 $351 40.219729547921347 $220 $352 forward 7 unknown #
loop $-1 $-1 $227 $138 #
plane-surface $-1 14.542909159851007 -33.676535784986498 0.82320703820525409 0 -0.79863551827123203 0.60181501223851219 1 0 0 forward_v I I I I #
loop $-1 $-1 $353 $88 #
coedge $-1 $225 $225 $226 $354 reversed $139 $-1 #
coedge $-1 $226 $226 $225 $354 forward $141 $-1 #
coedge $-1 $227 $227 $142 $228 forward $222 $-1 #
edge $-1 $355 -4.7288722168968887e-016 $355 6.2831853071795996 $227 $356 forward 7 unknown #
loop $-1 $-1 $234 $143 #
plane-surface $-1 14.542909159851007 -33.676535784986498 0.82320703820525409 0 -0.79863551827123203 0.60181501223851219 1 0 0 forward_v I I I I #
loop $-1 $-1 $357 $91 #
coedge $-1 $232 $232 $233 $358 reversed $144 $-1 #
coedge $-1 $233 $233 $232 $358 forward $146 $-1 #
coedge $-1 $234 $234 $147 $235 forward $229 $-1 #
edge $-1 $359 -4.7288722168968887e-016 $359 6.2831853071795996 $234 $360 forward 7 unknown #
face $-1 $361 $362 $50 $-1 $363 reversed single #
loop $-1 $-1 $364 $148 #
plane-surface $-1 -29.708700555996106 87.053228301403607 125.3806104521214 -1 0 0 0 0.79863551827123203 0.60181501223851219 forward_v I I I I #
coedge $-1 $365 $366 $367 $368 reversed $149 $-1 #
coedge $-1 $241 $151 $369 $370 reversed $95 $-1 #
coedge $-1 $151 $240 $365 $371 reversed $95 $-1 #
coedge $-1 $367 $372 $151 $243 forward $373 $-1 #
edge $-1 $374 9.850078365715305 $375 19.952684752329013 $242 $376 forward 7 unknown #
loop $-1 $-1 $249 $152 #
plane-surface $-1 -39.4904200952179 -6.8575538061981973 54.613762258650013 0 0.79863551827123203 0.60181501223851219 1 0 0 forward_v I I I I #
loop $-1 $-1 $377 $97 #
coedge $-1 $247 $247 $248 $378 reversed $153 $-1 #
coedge $-1 $248 $248 $247 $378 forward $155 $-1 #
coedge $-1 $249 $249 $156 $250 forward $244 $-1 #
edge $-1 $379 -4.6616460270058674e-016 $379 6.2831853071795996 $249 $380 forward 7 unknown #
loop $-1 $-1 $256 $157 #
plane-surface $-1 -39.4904200952179 -6.8575538061981973 54.613762258650013 0 0.79863551827123203 0.60181501223851219 1 0 0 forward_v I I I I #
loop $-1 $-1 $381 $100 #
coedge $-1 $254 $254 $255 $382 reversed $158 $-1 #
coedge $-1 $255 $255 $254 $382 forward $160 $-1 #
coedge $-1 $256 $256 $161 $257 forward $251 $-1 #
edge $-1 $383 -4.6616460270058674e-016 $383 6.2831853071795996 $256 $384 forward 7 unknown #
face $-1 $385 $386 $53 $-1 $387 forward single #
loop $-1 $-1 $388 $162 #
plane-surface $-1 24.3246286990728 87.053228301403607 125.3806104521214 -1 0 0 0 0.79863551827123203 0.60181501223851219 forward_v I I I I #
coedge $-1 $389 $390 $391 $392 reversed $163 $-1 #
coedge $-1 $263 $165 $393 $394 reversed $104 $-1 #
coedge $-1 $165 $262 $389 $395 reversed $104 $-1 #
coedge $-1 $391 $396 $165 $265 forward $386 $-1 #
edge $-1 $397 9.850078365715305 $398 19.952684752329013 $264 $399 forward 7 unknown #
loop $-1 $-1 $271 $166 #
plane-surface $-1 14.542909159851007 -6.8575538061981973 54.613762258650013 0 0.79863551827123203 0.60181501223851219 1 0 0 forward_v I I I I #
loop $-1 $-1 $400 $106 #
coedge $-1 $269 $269 $270 $401 reversed $167 $-1 #
coedge $-1 $270 $270 $269 $401 forward $169 $-1 #
coedge $-1 $271 $271 $170 $272 forward $266 $-1 #
edge $-1 $402 -4.6616460270058674e-016 $402 6.2831853071795996 $271 $403 forward 7 unknown #
loop $-1 $-1 $278 $171 #
plane-surface $-1 14.542909159851007 -6.8575538061981973 54.613762258650013 0 0.79863551827123203 0.60181501223851219 1 0 0 forward_v I I I I #
loop $-1 $-1 $404 $109 #
coedge $-1 $276 $276 $277 $405 reversed $172 $-1 #
coedge $-1 $277 $277 $276 $405 forward $174 $-1 #
coedge $-1 $278 $278 $175 $279 forward $273 $-1 #
edge $-1 $406 -4.6616460270058674e-016 $406 6.2831853071795996 $278 $407 forward 7 unknown #
face $-1 $408 $409 $42 $-1 $410 reversed single #
loop $-1 $-1 $411 $176 #
plane-surface $-1 -58.794518875698117 0 0 1 0 0 0 0 -1 forward_v I I I I #
coedge $-1 $412 $291 $413 $414 forward $177 $-1 #
coedge $-1 $415 $179 $412 $416 forward $113 $-1 #
coedge $-1 $179 $415 $417 $418 forward $113 $-1 #
coedge $-1 $294 $293 $179 $287 reversed $295 $-1 #
edge $-1 $419 -33.676535784986498 $420 33.676535784986498 $286 $421 forward 7 unknown #
coedge $-1 $181 $180 $411 $422 forward $71 $-1 #
coedge $-1 $423 $424 $180 $290 reversed $409 $-1 #
edge $-1 $297 -58.794518875698117 $425 58.794518875698117 $289 $426 forward 7 unknown #
coedge $-1 $283 $427 $181 $292 reversed $177 $-1 #
edge $-1 $428 -58.794518875698117 $296 58.794518875698117 $291 $429 forward 7 unknown #
coedge $-1 $286 $182 $427 $430 forward $295 $-1 #
coedge $-1 $182 $286 $423 $431 reversed $295 $-1 #
loop $-1 $-1 $293 $408 #
vertex $-1 $183 $432 #
vertex $-1 $183 $433 #
straight-curve $-1 58.794518875698117 0 14.229818909605108 0 1 0 I I #
face $-1 $434 $435 $43 $-1 $436 reversed single #
loop $-1 $-1 $190 $184 #
plane-surface $-1 -63.555708496327334 -26.456228306276927 0 0 -1 0 0 0 -1 forward_v I I I I #
coedge $-1 $437 $438 $439 $440 forward $185 $-1 #
coedge $-1 $441 $187 $310 $442 forward $117 $-1 #
coedge $-1 $187 $441 $443 $444 forward $117 $-1 #
edge $-1 $445 -33.676535784986498 $312 -26.456228306276927 $187 $446 forward 7 unknown #
coedge $-1 $189 $188 $447 $448 reversed $74 $-1 #
coedge $-1 $449 $450 $189 $308 forward $435 $-1 #
edge $-1 $311 26.456228306276927 $451 33.676535784986498 $307 $452 forward 7 unknown #
coedge $-1 $439 $190 $450 $453 reversed $300 $-1 #
coedge $-1 $190 $439 $303 $442 reversed $300 $-1 #
vertex $-1 $308 $454 #
vertex $-1 $442 $455 #
straight-curve $-1 -58.794518875698117 -26.456228306276927 0 0 0 1 I I #
face $-1 $-1 $456 $44 $-1 $457 reversed single #
loop $-1 $-1 $198 $192 #
plane-surface $-1 0 0 14.229818909605108 0 0 1 1 0 0 forward_v I I I I #
coedge $-1 $458 $459 $460 $461 reversed $193 $-1 #
coedge $-1 $462 $195 $197 $324 forward $121 $-1 #
coedge $-1 $195 $462 $458 $463 forward $121 $-1 #
coedge $-1 $460 $198 $195 $321 forward $315 $-1 #
edge $-1 $327 9.9634905083871566 $464 29.526929586830747 $320 $465 forward 7 unknown #
coedge $-1 $466 $467 $196 $323 forward $456 $-1 #
edge $-1 $468 -34.971820577633068 $326 -21.565208706233214 $322 $469 forward 7 unknown #
edge $-1 $327 -16.786896606377464 $468 0 $197 $470 forward 7 unknown #
coedge $-1 $198 $460 $466 $471 forward $315 $-1 #
vertex $-1 $199 $472 #
vertex $-1 $199 $473 #
straight-curve $-1 -29.708700555996106 -63.793658946294151 14.229818909605108 0 1 0 I I #
coedge $-1 $329 $329 $-1 $474 reversed $202 $-1 #
edge $-1 $475 0 $475 6.2831853071796004 $203 $476 forward 7 unknown #
vertex $-1 $206 $477 #
ellipse-curve $-1 -43.682585612027239 -28.625232591679652 7.5265129739051799 0 -0.79863551827123203 0.60181501223851219 1.5 0 0 1 I I #
coedge $-1 $333 $333 $-1 $478 reversed $209 $-1 #
edge $-1 $479 0 $479 6.2831853071796004 $210 $480 forward 7 unknown #
vertex $-1 $213 $481 #
ellipse-curve $-1 -35.29825457840856 -28.625232591679652 7.5265129739051799 0 -0.79863551827123203 0.60181501223851219 1.5 0 0 1 I I #
face $-1 $-1 $349 $47 $-1 $482 forward single #
loop $-1 $-1 $483 $214 #
plane-surface $-1 0 -33.676535784986498 0 0 1 0 0 0 1 forward_v I I I I #
coedge $-1 $484 $485 $486 $487 reversed $215 $-1 #
coedge $-1 $488 $217 $219 $347 forward $135 $-1 #
coedge $-1 $217 $488 $484 $489 forward $135 $-1 #
coedge $-1 $486 $220 $217 $344 forward $349 $-1 #
edge $-1 $351 -17.053174119147297 $490 2.5102649592962898 $343 $491 forward 7 unknown #
coedge $-1 $492 $493 $218 $346 forward $338 $-1 #
edge $-1 $494 -34.971820577633068 $350 -21.565208706233214 $345 $495 forward 7 unknown #
edge $-1 $351 -16.786896606377464 $494 0 $219 $496 forward 7 unknown #
coedge $-1 $220 $486 $492 $497 forward $349 $-1 #
loop $-1 $-1 $486 $337 #
vertex $-1 $346 $498 #
vertex $-1 $221 $499 #
straight-curve $-1 24.3246286990728 -63.793658946294151 14.229818909605108 0 1 0 I I #
coedge $-1 $353 $353 $-1 $500 reversed $224 $-1 #
edge $-1 $501 0 $501 6.2831853071796004 $225 $502 forward 7 unknown #
vertex $-1 $228 $503 #
ellipse-curve $-1 10.350743643041667 -28.625232591679652 7.5265129739051799 0 -0.79863551827123203 0.60181501223851219 1.5 0 0 1 I I #
coedge $-1 $357 $357 $-1 $504 reversed $231 $-1 #
edge $-1 $505 0 $505 6.2831853071796004 $232 $506 forward 7 unknown #
vertex $-1 $235 $507 #
ellipse-curve $-1 18.735074676660346 -28.625232591679652 7.5265129739051799 0 -0.79863551827123203 0.60181501223851219 1.5 0 0 1 I I #
face $-1 $-1 $373 $50 $-1 $508 forward single #
loop $-1 $-1 $509 $236 #
plane-surface $-1 0 33.676535784986498 0 0 -1 0 0 0 -1 forward_v I I I I #
coedge $-1 $510 $511 $512 $513 reversed $237 $-1 #
coedge $-1 $514 $239 $241 $371 forward $149 $-1 #
coedge $-1 $239 $514 $510 $515 forward $149 $-1 #
coedge $-1 $512 $242 $239 $368 forward $373 $-1 #
edge $-1 $375 -29.526929586830747 $516 -9.9634905083871566 $367 $517 forward 7 unknown #
coedge $-1 $518 $519 $240 $370 forward $362 $-1 #
edge $-1 $520 -61.867098187855468 $374 -48.460486316455594 $369 $521 forward 7 unknown #
edge $-1 $375 50.566174963595515 $520 67.353071569973011 $241 $522 forward 7 unknown #
coedge $-1 $242 $512 $518 $523 forward $373 $-1 #
loop $-1 $-1 $512 $361 #
vertex $-1 $370 $524 #
vertex $-1 $243 $525 #
straight-curve $-1 -49.272139634439696 43.526614150701803 14.229818909605108 0 -1 0 I I #
coedge $-1 $377 $377 $-1 $526 reversed $246 $-1 #
edge $-1 $527 0 $527 6.2831853071796004 $247 $528 forward 7 unknown #
vertex $-1 $250 $529 #
ellipse-curve $-1 -43.682585612027239 28.625232591679641 7.5265129739051719 0 0.79863551827123203 0.60181501223851219 1.5 0 0 1 I I #
coedge $-1 $381 $381 $-1 $530 reversed $253 $-1 #
edge $-1 $531 0 $531 6.2831853071796004 $254 $532 forward 7 unknown #
vertex $-1 $257 $533 #
ellipse-curve $-1 -35.29825457840856 28.625232591679641 7.5265129739051719 0 0.79863551827123203 0.60181501223851219 1.5 0 0 1 I I #
face $-1 $-1 $534 $53 $-1 $535 reversed single #
loop $-1 $-1 $264 $258 #
plane-surface $-1 0 0 14.229818909605108 0 0 1 1 0 0 forward_v I I I I #
coedge $-1 $536 $537 $538 $539 reversed $259 $-1 #
coedge $-1 $540 $261 $263 $395 forward $163 $-1 #
coedge $-1 $261 $540 $536 $541 forward $163 $-1 #
coedge $-1 $538 $264 $261 $392 forward $386 $-1 #
edge $-1 $398 -2.5102649592962898 $542 17.053174119147297 $391 $543 forward 7 unknown #
coedge $-1 $544 $545 $262 $394 forward $534 $-1 #
edge $-1 $546 -61.867098187855468 $397 -48.460486316455594 $393 $547 forward 7 unknown #
edge $-1 $398 50.566174963595515 $546 67.353071569973011 $263 $548 forward 7 unknown #
coedge $-1 $264 $538 $544 $549 forward $386 $-1 #
vertex $-1 $394 $550 #
vertex $-1 $265 $551 #
straight-curve $-1 4.7611896206292137 43.526614150701803 14.229818909605108 0 -1 0 I I #
coedge $-1 $400 $400 $-1 $552 reversed $268 $-1 #
edge $-1 $553 0 $553 6.2831853071796004 $269 $554 forward 7 unknown #
vertex $-1 $272 $555 #
ellipse-curve $-1 10.350743643041667 28.625232591679641 7.5265129739051719 0 0.79863551827123203 0.60181501223851219 1.5 0 0 1 I I #
coedge $-1 $404 $404 $-1 $556 reversed $275 $-1 #
edge $-1 $557 0 $557 6.2831853071796004 $276 $558 forward 7 unknown #
vertex $-1 $279 $559 #
ellipse-curve $-1 18.735074676660346 28.625232591679641 7.5265129739051719 0 0.79863551827123203 0.60181501223851219 1.5 0 0 1 I I #
face $-1 $-1 $295 $42 $-1 $560 reversed single #
loop $-1 $-1 $423 $280 #
plane-surface $-1 0 33.676535784986498 0 0 -1 0 0 0 -1 forward_v I I I I #
coedge $-1 $561 $413 $288 $422 reversed $281 $-1 #
coedge $-1 $427 $283 $284 $416 reversed $177 $-1 #
coedge $-1 $411 $562 $283 $414 reversed $281 $-1 #
edge $-1 $428 -14.229818909605108 $563 14.229818909605108 $413 $564 forward 7 unknown #
coedge $-1 $285 $284 $562 $565 forward $113 $-1 #
edge $-1 $420 -58.794518875698117 $563 58.794518875698117 $412 $566 forward 7 unknown #
coedge $-1 $424 $423 $285 $418 reversed $409 $-1 #
edge $-1 $567 -58.794518875698117 $419 58.794518875698117 $417 $568 forward 7 unknown #
vertex $-1 $287 $569 #
vertex $-1 $430 $570 #
straight-curve $-1 58.794518875698117 0 -14.229818909605108 0 -1 0 I I #
edge $-1 $425 -33.676535784986498 $428 33.676535784986498 $411 $571 forward 7 unknown #
coedge $-1 $417 $289 $294 $431 forward $409 $-1 #
coedge $-1 $289 $417 $561 $572 reversed $409 $-1 #
vertex $-1 $290 $573 #
straight-curve $-1 0 33.676535784986498 14.229818909605108 -1 0 0 I I #
coedge $-1 $291 $412 $293 $430 reversed $177 $-1 #
vertex $-1 $422 $574 #
straight-curve $-1 0 -33.676535784986498 14.229818909605108 1 0 0 I I #
edge $-1 $296 -14.229818909605108 $420 14.229818909605108 $293 $575 forward 7 unknown #
edge $-1 $297 -14.229818909605108 $419 14.229818909605108 $294 $576 forward 7 unknown #
point $-1 58.794518875698117 -33.676535784986498 14.229818909605108 #
point $-1 58.794518875698117 33.676535784986498 14.229818909605108 #
face $-1 $-1 $577 $43 $-1 $578 reversed single #
loop $-1 $-1 $307 $299 #
plane-surface $-1 0 0 -14.229818909605108 0 0 1 1 0 0 forward_v I I I I #
coedge $-1 $579 $302 $580 $581 reversed $185 $-1 #
coedge $-1 $302 $579 $441 $582 reversed $185 $-1 #
coedge $-1 $310 $309 $302 $440 reversed $300 $-1 #
edge $-1 $583 -14.229818909605108 $584 14.229818909605108 $439 $585 forward 7 unknown #
coedge $-1 $304 $303 $438 $582 forward $117 $-1 #
edge $-1 $312 -4.7611896206292172 $583 4.7611896206292172 $310 $586 forward 7 unknown #
coedge $-1 $587 $447 $304 $444 reversed $577 $-1 #
edge $-1 $588 -68.316898116956551 $445 -58.794518875698117 $443 $589 forward 7 unknown #
vertex $-1 $448 $590 #
straight-curve $-1 -58.794518875698117 0 14.229818909605108 0 1 0 I I #
coedge $-1 $443 $591 $306 $448 forward $577 $-1 #
edge $-1 $451 -14.229818909605108 $445 14.229818909605108 $447 $592 forward 7 unknown #
coedge $-1 $580 $307 $591 $593 forward $435 $-1 #
coedge $-1 $307 $580 $309 $453 forward $435 $-1 #
vertex $-1 $593 $594 #
straight-curve $-1 -58.794518875698117 0 -14.229818909605108 0 -1 0 I I #
edge $-1 $584 -4.7611896206292172 $311 4.7611896206292172 $309 $595 forward 7 unknown #
point $-1 -58.794518875698117 -26.456228306276927 -14.229818909605108 #
point $-1 -58.794518875698117 -26.456228306276927 14.229818909605108 #
loop $-1 $-1 $322 $314 #
plane-surface $-1 0 -33.676535784986498 0 0 1 0 0 0 1 forward_v I I I I #
coedge $-1 $459 $317 $319 $463 reversed $193 $-1 #
coedge $-1 $317 $458 $596 $597 reversed $193 $-1 #
coedge $-1 $325 $320 $317 $461 forward $315 $-1 #
edge $-1 $464 -40.219729547921347 $598 -30.117123161307653 $460 $599 forward 7 unknown #
coedge $-1 $319 $318 $467 $600 reversed $121 $-1 #
edge $-1 $601 0 $464 16.786896606377464 $458 $602 forward 7 unknown #
vertex $-1 $321 $603 #
straight-curve $-1 -19.74521004760895 -23.573929398372805 14.229818909605108 -1 0 0 I I #
coedge $-1 $596 $322 $325 $471 reversed $456 $-1 #
coedge $-1 $322 $596 $462 $600 forward $456 $-1 #
vertex $-1 $323 $604 #
straight-curve $-1 -29.708700555996106 -33.676535784986498 35.795027615838322 0 0 1 I I #
straight-curve $-1 -29.708700555996106 -33.676535784986498 0.82320703820525409 0 -0.60181501223851219 -0.79863551827123203 I I #
edge $-1 $598 -49.272139634439696 $326 -29.708700555996106 $466 $605 forward 7 unknown #
point $-1 -29.708700555996106 -33.676535784986498 14.229818909605108 #
point $-1 -29.708700555996106 -23.573929398372805 14.229818909605106 #
edge $-1 $606 1 $606 0 $329 $-1 forward 7 unknown #
vertex $-1 $330 $607 #
ellipse-curve $-1 -43.682585612027239 -24.570354331525504 4.4709431251677776 0 -0.79863551827123203 0.60181501223851219 1.5 0 0 1 I I #
point $-1 -42.182585612027239 -28.625232591679652 7.526512973905179 #
edge $-1 $608 1 $608 0 $333 $-1 forward 7 unknown #
vertex $-1 $334 $609 #
ellipse-curve $-1 -35.29825457840856 -24.570354331525504 4.4709431251677776 0 -0.79863551827123203 0.60181501223851219 1.5 0 0 1 I I #
point $-1 -33.79825457840856 -28.625232591679652 7.526512973905179 #
plane-surface $-1 0 0 14.229818909605108 0 0 1 1 0 0 forward_v I I I I #
coedge $-1 $493 $492 $485 $610 forward $338 $-1 #
coedge $-1 $485 $340 $342 $489 reversed $215 $-1 #
coedge $-1 $340 $484 $483 $610 reversed $215 $-1 #
coedge $-1 $348 $343 $340 $487 forward $349 $-1 #
edge $-1 $490 -40.219729547921347 $611 -30.117123161307653 $486 $612 forward 7 unknown #
coedge $-1 $342 $341 $493 $613 reversed $135 $-1 #
edge $-1 $614 0 $490 16.786896606377464 $484 $615 forward 7 unknown #
vertex $-1 $344 $616 #
straight-curve $-1 7.2714545799255035 -23.573929398372805 14.229818909605108 -1 0 0 I I #
coedge $-1 $483 $345 $348 $497 reversed $338 $-1 #
coedge $-1 $345 $483 $488 $613 forward $338 $-1 #
vertex $-1 $346 $617 #
straight-curve $-1 24.3246286990728 -33.676535784986498 35.795027615838322 0 0 1 I I #
straight-curve $-1 24.3246286990728 -33.676535784986498 0.82320703820525409 0 -0.60181501223851219 -0.79863551827123203 I I #
edge $-1 $611 4.7611896206292137 $350 24.3246286990728 $492 $618 forward 7 unknown #
point $-1 24.3246286990728 -33.676535784986498 14.229818909605108 #
point $-1 24.3246286990728 -23.573929398372805 14.229818909605106 #
edge $-1 $619 1 $619 0 $353 $-1 forward 7 unknown #
vertex $-1 $354 $620 #
ellipse-curve $-1 10.350743643041667 -24.570354331525504 4.4709431251677776 0 -0.79863551827123203 0.60181501223851219 1.5 0 0 1 I I #
point $-1 11.850743643041667 -28.625232591679652 7.526512973905179 #
edge $-1 $621 1 $621 0 $357 $-1 forward 7 unknown #
vertex $-1 $358 $622 #
ellipse-curve $-1 18.735074676660346 -24.570354331525504 4.4709431251677776 0 -0.79863551827123203 0.60181501223851219 1.5 0 0 1 I I #
point $-1 20.235074676660346 -28.625232591679652 7.526512973905179 #
plane-surface $-1 0 0 14.229818909605108 0 0 1 1 0 0 forward_v I I I I #
coedge $-1 $519 $518 $511 $623 forward $362 $-1 #
coedge $-1 $511 $364 $366 $515 reversed $237 $-1 #
coedge $-1 $364 $510 $509 $623 reversed $237 $-1 #
coedge $-1 $372 $367 $364 $513 forward $373 $-1 #
edge $-1 $516 -19.952684752329013 $624 -9.850078365715305 $512 $625 forward 7 unknown #
coedge $-1 $366 $365 $519 $626 reversed $149 $-1 #
edge $-1 $627 -67.353071569973011 $516 -50.566174963595515 $510 $628 forward 7 unknown #
vertex $-1 $368 $629 #
straight-curve $-1 -19.74521004760895 23.57392939837279 14.229818909605104 1 0 0 I I #
coedge $-1 $509 $369 $372 $523 reversed $362 $-1 #
coedge $-1 $369 $509 $514 $626 forward $362 $-1 #
vertex $-1 $370 $630 #
straight-curve $-1 -49.272139634439696 33.676535784986498 62.690305226060701 0 0 1 I I #
straight-curve $-1 -49.272139634439696 -6.8575538061981973 54.613762258650013 0 0.60181501223851219 -0.79863551827123203 I I #
edge $-1 $624 29.708700555996106 $374 49.272139634439696 $518 $631 forward 7 unknown #
point $-1 -49.272139634439696 33.676535784986498 14.229818909605108 #
point $-1 -49.272139634439696 23.57392939837279 14.229818909605108 #
edge $-1 $632 1 $632 0 $377 $-1 forward 7 unknown #
vertex $-1 $378 $633 #
ellipse-curve $-1 -43.682585612027239 24.570354331525497 4.470943125167774 0 0.79863551827123203 0.60181501223851219 1.5 0 0 1 I I #
point $-1 -42.182585612027239 28.625232591679644 7.5265129739051755 #
edge $-1 $634 1 $634 0 $381 $-1 forward 7 unknown #
vertex $-1 $382 $635 #
ellipse-curve $-1 -35.29825457840856 24.570354331525497 4.470943125167774 0 0.79863551827123203 0.60181501223851219 1.5 0 0 1 I I #
point $-1 -33.79825457840856 28.625232591679644 7.5265129739051755 #
loop $-1 $-1 $393 $385 #
plane-surface $-1 0 33.676535784986498 0 0 -1 0 0 0 -1 forward_v I I I I #
coedge $-1 $537 $388 $390 $541 reversed $259 $-1 #
coedge $-1 $388 $536 $636 $637 reversed $259 $-1 #
coedge $-1 $396 $391 $388 $539 forward $386 $-1 #
edge $-1 $542 -19.952684752329013 $638 -9.850078365715305 $538 $639 forward 7 unknown #
coedge $-1 $390 $389 $545 $640 reversed $163 $-1 #
edge $-1 $641 -67.353071569973011 $542 -50.566174963595515 $536 $642 forward 7 unknown #
vertex $-1 $392 $643 #
straight-curve $-1 7.2714545799255035 23.57392939837279 14.229818909605104 1 0 0 I I #
coedge $-1 $636 $393 $396 $549 reversed $534 $-1 #
coedge $-1 $393 $636 $540 $640 forward $534 $-1 #
vertex $-1 $394 $644 #
straight-curve $-1 4.7611896206292137 33.676535784986498 62.690305226060701 0 0 1 I I #
straight-curve $-1 4.7611896206292137 -6.8575538061981973 54.613762258650013 0 0.60181501223851219 -0.79863551827123203 I I #
edge $-1 $638 -24.3246286990728 $397 -4.7611896206292137 $544 $645 forward 7 unknown #
point $-1 4.7611896206292137 33.676535784986498 14.229818909605108 #
point $-1 4.7611896206292137 23.57392939837279 14.229818909605108 #
edge $-1 $646 1 $646 0 $400 $-1 forward 7 unknown #
vertex $-1 $401 $647 #
ellipse-curve $-1 10.350743643041667 24.570354331525497 4.470943125167774 0 0.79863551827123203 0.60181501223851219 1.5 0 0 1 I I #
point $-1 11.850743643041667 28.625232591679644 7.5265129739051755 #
edge $-1 $648 1 $648 0 $404 $-1 forward 7 unknown #
vertex $-1 $405 $649 #
ellipse-curve $-1 18.735074676660346 24.570354331525497 4.470943125167774 0 0.79863551827123203 0.60181501223851219 1.5 0 0 1 I I #
point $-1 20.235074676660346 28.625232591679644 7.5265129739051755 #
plane-surface $-1 58.794518875698117 0 0 -1 0 0 0 0 1 forward_v I I I I #
coedge $-1 $562 $411 $424 $572 forward $281 $-1 #
coedge $-1 $413 $561 $415 $565 reversed $281 $-1 #
vertex $-1 $565 $650 #
straight-curve $-1 -58.794518875698117 -33.676535784986498 0 0 0 -1 I I #
edge $-1 $563 -33.676535784986498 $567 33.676535784986498 $562 $651 forward 7 unknown #
straight-curve $-1 0 -33.676535784986498 -14.229818909605108 -1 0 0 I I #
vertex $-1 $418 $652 #
straight-curve $-1 0 33.676535784986498 -14.229818909605108 1 0 0 I I #
point $-1 58.794518875698117 33.676535784986498 -14.229818909605108 #
point $-1 58.794518875698117 -33.676535784986498 -14.229818909605108 #
straight-curve $-1 -58.794518875698117 0 14.229818909605108 0 -1 0 I I #
edge $-1 $425 -14.229818909605108 $567 14.229818909605108 $424 $653 forward 7 unknown #
point $-1 -58.794518875698117 33.676535784986498 14.229818909605108 #
point $-1 -58.794518875698117 -33.676535784986498 14.229818909605108 #
straight-curve $-1 58.794518875698117 -33.676535784986498 0 0 0 -1 I I #
straight-curve $-1 58.794518875698117 33.676535784986498 0 0 0 -1 I I #
loop $-1 $-1 $447 $434 #
plane-surface $-1 0 -33.676535784986498 0 0 1 0 0 0 1 forward_v I I I I #
coedge $-1 $438 $437 $587 $654 reversed $185 $-1 #
coedge $-1 $450 $449 $437 $581 forward $435 $-1 #
edge $-1 $655 -3.6101537393547858 $584 3.6101537393547858 $437 $656 forward 7 unknown #
edge $-1 $583 -3.6101537393547858 $588 3.6101537393547858 $438 $657 forward 7 unknown #
vertex $-1 $442 $658 #
vertex $-1 $453 $659 #
straight-curve $-1 -68.316898116956551 -26.456228306276927 0 0 0 -1 I I #
straight-curve $-1 -63.555708496327334 -26.456228306276927 14.229818909605108 -1 0 0 I I #
coedge $-1 $591 $443 $579 $654 forward $577 $-1 #
vertex $-1 $582 $660 #
straight-curve $-1 0 -33.676535784986498 14.229818909605108 1 0 0 I I #
point $-1 -58.794518875698117 -33.676535784986498 14.229818909605108 #
coedge $-1 $447 $587 $449 $593 reversed $577 $-1 #
straight-curve $-1 -58.794518875698117 -33.676535784986498 0 0 0 1 I I #
edge $-1 $451 -4.7611896206292172 $655 4.7611896206292172 $591 $661 forward 7 unknown #
point $-1 -58.794518875698117 -33.676535784986498 -14.229818909605108 #
straight-curve $-1 -63.555708496327334 -26.456228306276927 -14.229818909605108 1 0 0 I I #
coedge $-1 $467 $466 $459 $597 forward $456 $-1 #
edge $-1 $598 21.565208706233214 $601 34.971820577633068 $596 $662 forward 7 unknown #
vertex $-1 $471 $663 #
straight-curve $-1 -49.272139634439696 -63.793658946294151 14.229818909605108 0 -1 0 I I #
edge $-1 $601 -29.526929586830747 $468 -9.9634905083871566 $467 $664 forward 7 unknown #
vertex $-1 $600 $665 #
straight-curve $-1 -49.272139634439696 -33.676535784986498 0.82320703820525409 0 0.60181501223851219 0.79863551827123203 I I #
point $-1 -49.272139634439696 -23.573929398372805 14.229818909605106 #
point $-1 -29.708700555996106 -33.676535784986498 0.82320703820525409 #
straight-curve $-1 0 -33.676535784986498 14.229818909605108 1 0 0 I I #
vertex $-1 $474 $666 #
point $-1 -42.182585612027239 -24.570354331525504 4.4709431251677776 #
vertex $-1 $478 $667 #
point $-1 -33.79825457840856 -24.570354331525504 4.4709431251677776 #
edge $-1 $611 21.565208706233214 $614 34.971820577633068 $483 $668 forward 7 unknown #
vertex $-1 $497 $669 #
straight-curve $-1 4.7611896206292137 -63.793658946294151 14.229818909605108 0 -1 0 I I #
edge $-1 $614 -2.5102649592962898 $494 17.053174119147297 $493 $670 forward 7 unknown #
vertex $-1 $613 $671 #
straight-curve $-1 4.7611896206292137 -33.676535784986498 0.82320703820525409 0 0.60181501223851219 0.79863551827123203 I I #
point $-1 4.7611896206292137 -23.573929398372805 14.229818909605106 #
point $-1 24.3246286990728 -33.676535784986498 0.82320703820525409 #
straight-curve $-1 0 -33.676535784986498 14.229818909605108 1 0 0 I I #
vertex $-1 $500 $672 #
point $-1 11.850743643041667 -24.570354331525504 4.4709431251677776 #
vertex $-1 $504 $673 #
point $-1 20.235074676660346 -24.570354331525504 4.4709431251677776 #
edge $-1 $624 48.460486316455594 $627 61.867098187855468 $509 $674 forward 7 unknown #
vertex $-1 $523 $675 #
straight-curve $-1 -29.708700555996106 43.526614150701803 14.229818909605108 0 1 0 I I #
edge $-1 $627 9.9634905083871566 $520 29.526929586830747 $519 $676 forward 7 unknown #
vertex $-1 $626 $677 #
straight-curve $-1 -29.708700555996106 -6.8575538061981973 54.613762258650013 0 -0.60181501223851219 0.79863551827123203 I I #
point $-1 -29.708700555996106 23.57392939837279 14.229818909605108 #
point $-1 -49.272139634439696 33.676535784986498 0.82320703820523278 #
straight-curve $-1 0 33.676535784986498 14.229818909605108 -1 0 0 I I #
vertex $-1 $526 $678 #
point $-1 -42.182585612027239 24.570354331525497 4.470943125167774 #
vertex $-1 $530 $679 #
point $-1 -33.79825457840856 24.570354331525497 4.470943125167774 #
coedge $-1 $545 $544 $537 $637 forward $534 $-1 #
edge $-1 $638 48.460486316455594 $641 61.867098187855468 $636 $680 forward 7 unknown #
vertex $-1 $549 $681 #
straight-curve $-1 24.3246286990728 43.526614150701803 14.229818909605108 0 1 0 I I #
edge $-1 $641 -17.053174119147297 $546 2.5102649592962898 $545 $682 forward 7 unknown #
vertex $-1 $640 $683 #
straight-curve $-1 24.3246286990728 -6.8575538061981973 54.613762258650013 0 -0.60181501223851219 0.79863551827123203 I I #
point $-1 24.3246286990728 23.57392939837279 14.229818909605108 #
point $-1 4.7611896206292137 33.676535784986498 0.82320703820523278 #
straight-curve $-1 0 33.676535784986498 14.229818909605108 -1 0 0 I I #
vertex $-1 $552 $684 #
point $-1 11.850743643041667 24.570354331525497 4.470943125167774 #
vertex $-1 $556 $685 #
point $-1 20.235074676660346 24.570354331525497 4.470943125167774 #
point $-1 -58.794518875698117 -33.676535784986498 -14.229818909605108 #
straight-curve $-1 -58.794518875698117 0 -14.229818909605108 0 1 0 I I #
point $-1 -58.794518875698117 33.676535784986498 -14.229818909605108 #
straight-curve $-1 -58.794518875698117 33.676535784986498 0 0 0 -1 I I #
edge $-1 $588 -14.229818909605108 $655 14.229818909605108 $579 $686 forward 7 unknown #
vertex $-1 $581 $687 #
straight-curve $-1 -68.316898116956551 -30.066382045631713 -14.229818909605108 0 1 0 I I #
straight-curve $-1 -68.316898116956551 -30.066382045631713 14.229818909605108 0 -1 0 I I #
point $-1 -68.316898116956551 -26.456228306276927 14.229818909605108 #
point $-1 -68.316898116956551 -26.456228306276927 -14.229818909605108 #
point $-1 -68.316898116956551 -33.676535784986498 14.229818909605108 #
straight-curve $-1 -63.555708496327334 -33.676535784986498 -14.229818909605108 -1 0 0 I I #
straight-curve $-1 -49.272139634439696 -33.676535784986498 35.795027615838322 0 0 -1 I I #
point $-1 -49.272139634439696 -33.676535784986498 14.229818909605108 #
straight-curve $-1 -19.74521004760895 -33.676535784986498 0.82320703820524943 1 0 0 I I #
point $-1 -49.272139634439696 -33.676535784986498 0.82320703820525409 #
point $-1 -43.682585612027239 -23.372401054118658 3.5682206068100095 #
point $-1 -35.29825457840856 -23.372401054118658 3.5682206068100095 #
straight-curve $-1 4.7611896206292137 -33.676535784986498 35.795027615838322 0 0 -1 I I #
point $-1 4.7611896206292137 -33.676535784986498 14.229818909605108 #
straight-curve $-1 7.2714545799255035 -33.676535784986498 0.82320703820524943 1 0 0 I I #
point $-1 4.7611896206292137 -33.676535784986498 0.82320703820525409 #
point $-1 10.350743643041667 -23.372401054118658 3.5682206068100095 #
point $-1 18.735074676660346 -23.372401054118658 3.5682206068100095 #
straight-curve $-1 -29.708700555996106 33.676535784986498 62.690305226060701 0 0 -1 I I #
point $-1 -29.708700555996106 33.676535784986498 14.229818909605108 #
straight-curve $-1 -19.74521004760895 33.676535784986498 0.82320703820523633 -1 0 0 I I #
point $-1 -29.708700555996106 33.676535784986498 0.82320703820523278 #
point $-1 -43.682585612027239 23.372401054118651 3.568220606810006 #
point $-1 -35.29825457840856 23.372401054118651 3.568220606810006 #
straight-curve $-1 24.3246286990728 33.676535784986498 62.690305226060701 0 0 -1 I I #
point $-1 24.3246286990728 33.676535784986498 14.229818909605108 #
straight-curve $-1 7.2714545799255035 33.676535784986498 0.82320703820523633 -1 0 0 I I #
point $-1 24.3246286990728 33.676535784986498 0.82320703820523278 #
point $-1 10.350743643041667 23.372401054118651 3.568220606810006 #
point $-1 18.735074676660346 23.372401054118651 3.568220606810006 #
straight-curve $-1 -68.316898116956551 -33.676535784986498 0 0 0 -1 I I #
point $-1 -68.316898116956551 -33.676535784986498 -14.229818909605108 #
End-of-ACIS-data 