500 0 9 0           
7 Unknown 11 ACIS 5.0 NT 24 Thu Mar 25 15:54:12 1999 
-1 9.9999999999999995e-007 1e-010 
body $-1 $9 $-1 $10 #
body $-1 $11 $-1 $12 #
body $-1 $13 $-1 $14 #
body $-1 $15 $-1 $16 #
body $-1 $17 $-1 $18 #
body $-1 $19 $-1 $20 #
body $-1 $21 $-1 $22 #
body $-1 $23 $-1 $24 #
body $-1 $25 $-1 $26 #
lump $-1 $-1 $27 $0 #
transform $-1 1 0 0 0 1 0 0 0 1 67.95129245887631 30.653877979045134 13.550404235587001 1 rotate no_reflect no_shear #
lump $-1 $-1 $28 $1 #
transform $-1 1 0 0 0 1 0 0 0 1 67.95129245887631 30.653877979045134 13.550404235587001 1 rotate no_reflect no_shear #
lump $-1 $-1 $29 $2 #
transform $-1 1 0 0 0 1 0 0 0 1 67.95129245887631 30.653877979045134 13.550404235587001 1 rotate no_reflect no_shear #
lump $-1 $-1 $30 $3 #
transform $-1 1 0 0 0 1 0 0 0 1 67.95129245887631 30.653877979045134 13.550404235587001 1 rotate no_reflect no_shear #
lump $-1 $-1 $31 $4 #
transform $-1 1 0 0 0 1 0 0 0 1 67.95129245887631 30.653877979045134 13.550404235587001 1 rotate no_reflect no_shear #
lump $-1 $-1 $32 $5 #
transform $-1 1 0 0 0 1 0 0 0 1 67.95129245887631 30.653877979045134 13.550404235587001 1 rotate no_reflect no_shear #
lump $-1 $-1 $33 $6 #
transform $-1 1 0 0 0 1 0 0 0 1 67.95129245887631 30.653877979045134 13.550404235587001 1 rotate no_reflect no_shear #
lump $-1 $-1 $34 $7 #
transform $-1 1 0 0 0 1 0 0 0 1 67.95129245887631 30.653877979045134 13.550404235587001 1 rotate no_reflect no_shear #
lump $-1 $-1 $35 $8 #
transform $-1 1 0 0 0 1 0 0 0 1 67.95129245887631 30.653877979045134 13.550404235587001 1 rotate no_reflect no_shear #
shell $-1 $-1 $-1 $36 $-1 $9 #
shell $-1 $-1 $-1 $37 $-1 $11 #
shell $-1 $-1 $-1 $38 $-1 $13 #
shell $-1 $-1 $-1 $39 $-1 $15 #
shell $-1 $-1 $-1 $40 $-1 $17 #
shell $-1 $-1 $-1 $41 $-1 $19 #
shell $-1 $-1 $-1 $42 $-1 $21 #
shell $-1 $-1 $-1 $43 $-1 $23 #
shell $-1 $-1 $-1 $44 $-1 $25 #
face $-1 $45 $46 $27 $-1 $47 forward single #
face $-1 $48 $49 $28 $-1 $50 forward single #
face $-1 $51 $52 $29 $-1 $53 reversed single #
face $-1 $54 $55 $30 $-1 $56 forward single #
face $-1 $57 $58 $31 $-1 $59 reversed single #
face $-1 $60 $61 $32 $-1 $62 forward single #
face $-1 $63 $64 $33 $-1 $65 reversed single #
face $-1 $66 $67 $34 $-1 $68 forward single #
face $-1 $69 $70 $35 $-1 $71 forward single #
face $-1 $72 $73 $27 $-1 $74 reversed single #
loop $-1 $-1 $75 $36 #
plane-surface $-1 0 0 13.550404235587001 0 0 1 1 0 0 forward_v I I I I #
face $-1 $76 $77 $28 $-1 $78 reversed single #
loop $-1 $-1 $79 $37 #
plane-surface $-1 0 -22.084395902220393 0.46310793351539736 0 0 1 1 0 0 forward_v I I I I #
face $-1 $80 $81 $29 $-1 $82 reversed single #
loop $-1 $-1 $83 $38 #
plane-surface $-1 88.041172107585339 -13.514913825395652 198.33357228969885 0 1 0 0.77714596973225614 0 0.62932038083071107 forward_v I I I I #
face $-1 $84 $85 $30 $-1 $86 forward single #
loop $-1 $87 $88 $39 #
cone-surface $-1 63.926780748932934 -10.178685225793132 9.1968344860545095 -0.77714596973225614 0 -0.62932038083071107 0.9439805712460666 0 -1.1657189545983841 1 I I 0 1 1.5 forward I I I I #
face $-1 $89 $90 $31 $-1 $91 reversed single #
loop $-1 $-1 $92 $40 #
plane-surface $-1 88.041172107585339 23.981420779840093 198.33357228969885 0 1 0 0.77714596973225614 0 0.62932038083071107 forward_v I I I I #
face $-1 $93 $94 $32 $-1 $95 forward single #
loop $-1 $96 $97 $41 #
cone-surface $-1 63.926780748932934 27.317649379442614 9.1968344860545095 -0.77714596973225614 0 -0.62932038083071107 0.9439805712460666 0 -1.1657189545983841 1 I I 0 1 1.5 forward I I I I #
face $-1 $98 $99 $33 $-1 $100 reversed single #
loop $-1 $-1 $101 $42 #
plane-surface $-1 -164.0489329499776 18.632669216253102 96.594457430905194 0 1 0 -0.70710678939079041 0 0.70710677298230451 forward_v I I I I #
face $-1 $102 $103 $34 $-1 $104 forward single #
loop $-1 $105 $106 $43 #
cone-surface $-1 -61.070946682722074 20.60446005726341 6.6700583161821161 0.70710678939079041 0 -0.70710677298230451 0.35355338649115226 0 0.35355339469539521 1 I I 0 1 0.5 forward I I I I #
face $-1 $107 $108 $35 $-1 $109 forward single #
loop $-1 $110 $111 $44 #
cone-surface $-1 -61.070946682722074 23.562146318778865 6.6700583161821161 0.70710678939079041 0 -0.70710677298230451 0.35355338649115226 0 0.35355339469539521 1 I I 0 1 0.5 forward I I I I #
face $-1 $112 $113 $27 $-1 $114 reversed single #
loop $-1 $-1 $115 $45 #
plane-surface $-1 0 0 -13.550404235587001 0 0 1 1 0 0 forward_v I I I I #
coedge $-1 $116 $117 $118 $119 forward $46 $-1 #
face $-1 $120 $121 $28 $-1 $122 reversed single #
loop $-1 $-1 $123 $48 #
plane-surface $-1 0 -22.084395902220393 -4.483883420854335 0 0 1 1 0 0 forward_v I I I I #
coedge $-1 $124 $125 $126 $127 reversed $49 $-1 #
face $-1 $128 $129 $29 $-1 $130 reversed single #
loop $-1 $-1 $131 $51 #
plane-surface $-1 -17.574974037441805 -10.178685225793132 112.80730579338072 0.77714596973225614 0 0.62932038083071107 0.62932038083071107 0 -0.77714596973225614 forward_v I I I I #
coedge $-1 $132 $133 $134 $135 reversed $52 $-1 #
face $-1 $-1 $136 $30 $-1 $137 forward single #
loop $-1 $138 $139 $54 #
cone-surface $-1 61.894216857424112 -10.178685225793132 7.55089674451572 -0.77714596973225614 0 -0.62932038083071107 0.4719902856230333 0 -0.58285947729919207 1 I I -0.70710678118654757 0.70710678118654757 0.75 forward I I I I #
loop $-1 $-1 $140 $39 #
coedge $-1 $88 $88 $141 $142 reversed $55 $-1 #
face $-1 $143 $144 $31 $-1 $145 reversed single #
loop $-1 $-1 $146 $57 #
plane-surface $-1 -17.574974037441805 27.317649379442614 112.80730579338072 0.77714596973225614 0 0.62932038083071107 0.62932038083071107 0 -0.77714596973225614 forward_v I I I I #
coedge $-1 $147 $148 $149 $150 reversed $58 $-1 #
face $-1 $-1 $151 $32 $-1 $152 forward single #
loop $-1 $153 $154 $60 #
cone-surface $-1 61.894216857424112 27.317649379442614 7.55089674451572 -0.77714596973225614 0 -0.62932038083071107 0.4719902856230333 0 -0.58285947729919207 1 I I -0.70710678118654757 0.70710678118654757 0.75 forward I I I I #
loop $-1 $-1 $155 $41 #
coedge $-1 $97 $97 $156 $157 reversed $61 $-1 #
face $-1 $158 $159 $33 $-1 $160 reversed single #
loop $-1 $-1 $161 $63 #
plane-surface $-1 -67.951292458876281 22.083303188021134 0.496819169759533 -0.70710678939079041 0 0.70710677298230451 0.70710677298230451 0 0.70710678939079041 forward_v I I I I #
coedge $-1 $162 $163 $164 $165 reversed $64 $-1 #
face $-1 $-1 $166 $34 $-1 $167 forward single #
loop $-1 $168 $169 $66 #
cone-surface $-1 -60.540616590678979 20.60446005726341 6.1397282364453876 0.70710678939079041 0 -0.70710677298230451 0.17677669324557613 0 0.1767766973476976 1 I I -0.70710678118654746 0.70710678118654746 0.25 forward I I I I #
loop $-1 $-1 $170 $43 #
coedge $-1 $106 $106 $171 $172 reversed $67 $-1 #
face $-1 $-1 $173 $35 $-1 $174 forward single #
loop $-1 $175 $176 $69 #
cone-surface $-1 -60.540616590678979 23.562146318778865 6.1397282364453876 0.70710678939079041 0 -0.70710677298230451 0.17677669324557613 0 0.1767766973476976 1 I I -0.70710678118654746 0.70710678118654746 0.25 forward I I I I #
loop $-1 $-1 $177 $44 #
coedge $-1 $111 $111 $178 $179 reversed $70 $-1 #
face $-1 $180 $181 $27 $-1 $182 reversed single #
loop $-1 $-1 $183 $72 #
plane-surface $-1 0 -30.653877979045134 0 0 1 0 0 0 1 forward_v I I I I #
coedge $-1 $184 $185 $186 $187 forward $73 $-1 #
coedge $-1 $188 $75 $189 $190 forward $46 $-1 #
coedge $-1 $75 $188 $191 $192 forward $46 $-1 #
coedge $-1 $193 $194 $75 $119 reversed $195 $-1 #
edge $-1 $196 -30.653877979045134 $197 30.653877979045134 $118 $198 forward 7 unknown #
face $-1 $199 $200 $28 $-1 $201 reversed single #
loop $-1 $-1 $202 $76 #
plane-surface $-1 0 -13.514913825395652 -2.0103877436694688 0 -1 0 0 0 -1 forward_v I I I I #
coedge $-1 $203 $204 $205 $206 reversed $77 $-1 #
coedge $-1 $207 $79 $208 $209 forward $49 $-1 #
coedge $-1 $79 $207 $210 $211 reversed $49 $-1 #
coedge $-1 $212 $213 $79 $127 forward $214 $-1 #
edge $-1 $215 2.4727158742854556 $216 19.611680027934938 $126 $217 forward 7 unknown #
face $-1 $218 $219 $29 $-1 $220 forward single #
loop $-1 $-1 $221 $80 #
plane-surface $-1 88.041172107585339 -6.8424566261906108 198.33357228969885 0 -1 0 -0.77714596973225614 0 -0.62932038083071107 forward_v I I I I #
coedge $-1 $222 $223 $224 $225 reversed $81 $-1 #
coedge $-1 $133 $83 $226 $227 reversed $52 $-1 #
coedge $-1 $83 $132 $222 $228 reversed $52 $-1 #
coedge $-1 $224 $229 $83 $135 forward $230 $-1 #
edge $-1 $231 85.616381909262429 $232 91.975626496495835 $134 $233 forward 7 unknown #
loop $-1 $-1 $141 $84 #
plane-surface $-1 -17.574974037441805 -10.178685225793132 112.80730579338072 0.77714596973225614 0 0.62932038083071107 0.62932038083071107 0 -0.77714596973225614 forward_v I I I I #
loop $-1 $-1 $234 $54 #
coedge $-1 $139 $139 $140 $235 reversed $85 $-1 #
coedge $-1 $140 $140 $139 $235 forward $87 $-1 #
coedge $-1 $141 $141 $88 $142 forward $136 $-1 #
edge $-1 $236 0 $236 6.2831853071796004 $141 $237 forward 7 unknown #
face $-1 $238 $239 $31 $-1 $240 forward single #
loop $-1 $-1 $149 $89 #
plane-surface $-1 67.95129245887631 0 0 -1 0 0 0 0 1 forward_v I I I I #
coedge $-1 $241 $242 $243 $244 reversed $90 $-1 #
coedge $-1 $148 $92 $245 $246 reversed $58 $-1 #
coedge $-1 $92 $147 $241 $247 reversed $58 $-1 #
coedge $-1 $243 $248 $92 $150 forward $144 $-1 #
edge $-1 $249 85.616381909262429 $250 91.975626496495835 $149 $251 forward 7 unknown #
loop $-1 $-1 $156 $93 #
plane-surface $-1 -17.574974037441805 27.317649379442614 112.80730579338072 0.77714596973225614 0 0.62932038083071107 0.62932038083071107 0 -0.77714596973225614 forward_v I I I I #
loop $-1 $-1 $252 $60 #
coedge $-1 $154 $154 $155 $253 reversed $94 $-1 #
coedge $-1 $155 $155 $154 $253 forward $96 $-1 #
coedge $-1 $156 $156 $97 $157 forward $151 $-1 #
edge $-1 $254 0 $254 6.2831853071796004 $156 $255 forward 7 unknown #
face $-1 $256 $257 $33 $-1 $258 reversed single #
loop $-1 $-1 $259 $98 #
plane-surface $-1 -164.0489329499776 25.533937159789165 96.594457430905194 0 -1 0 0.70710678939079041 0 -0.70710677298230451 forward_v I I I I #
coedge $-1 $260 $261 $262 $263 reversed $99 $-1 #
coedge $-1 $163 $101 $264 $265 reversed $64 $-1 #
coedge $-1 $101 $162 $260 $266 reversed $64 $-1 #
coedge $-1 $262 $267 $101 $165 forward $268 $-1 #
edge $-1 $269 14.073174016112489 $270 27.126758779030197 $164 $271 forward 7 unknown #
loop $-1 $-1 $171 $102 #
plane-surface $-1 -67.951292458876281 22.083303188021134 0.496819169759533 -0.70710678939079041 0 0.70710677298230451 0.70710677298230451 0 0.70710678939079041 forward_v I I I I #
loop $-1 $-1 $272 $66 #
coedge $-1 $169 $169 $170 $273 reversed $103 $-1 #
coedge $-1 $170 $170 $169 $273 forward $105 $-1 #
coedge $-1 $171 $171 $106 $172 forward $166 $-1 #
edge $-1 $274 0 $274 6.2831853071796004 $171 $275 forward 7 unknown #
loop $-1 $-1 $178 $107 #
plane-surface $-1 -67.951292458876281 22.083303188021134 0.496819169759533 -0.70710678939079041 0 0.70710677298230451 0.70710677298230451 0 0.70710678939079041 forward_v I I I I #
loop $-1 $-1 $276 $69 #
coedge $-1 $176 $176 $177 $277 reversed $108 $-1 #
coedge $-1 $177 $177 $176 $277 forward $110 $-1 #
coedge $-1 $178 $178 $111 $179 forward $173 $-1 #
edge $-1 $278 0 $278 6.2831853071796004 $178 $279 forward 7 unknown #
face $-1 $280 $281 $27 $-1 $282 reversed single #
loop $-1 $-1 $283 $112 #
plane-surface $-1 -67.95129245887631 0 0 1 0 0 0 0 -1 forward_v I I I I #
coedge $-1 $284 $191 $285 $286 forward $113 $-1 #
coedge $-1 $287 $115 $284 $288 forward $73 $-1 #
coedge $-1 $115 $287 $289 $290 forward $73 $-1 #
coedge $-1 $194 $193 $115 $187 reversed $195 $-1 #
edge $-1 $291 -30.653877979045134 $292 30.653877979045134 $186 $293 forward 7 unknown #
coedge $-1 $117 $116 $294 $295 forward $46 $-1 #
coedge $-1 $296 $297 $116 $190 reversed $281 $-1 #
edge $-1 $197 -67.95129245887631 $298 67.95129245887631 $189 $299 forward 7 unknown #
coedge $-1 $183 $300 $117 $192 reversed $113 $-1 #
edge $-1 $301 -67.95129245887631 $196 67.95129245887631 $191 $302 forward 7 unknown #
coedge $-1 $186 $118 $300 $303 forward $195 $-1 #
coedge $-1 $118 $186 $296 $304 reversed $195 $-1 #
loop $-1 $-1 $193 $280 #
vertex $-1 $119 $305 #
vertex $-1 $119 $306 #
straight-curve $-1 67.95129245887631 0 13.550404235587001 0 1 0 I I #
face $-1 $307 $308 $28 $-1 $309 reversed single #
loop $-1 $-1 $310 $120 #
plane-surface $-1 -67.95129245887631 0 0 1 0 0 0 0 -1 forward_v I I I I #
coedge $-1 $311 $208 $213 $312 reversed $121 $-1 #
coedge $-1 $313 $123 $314 $315 reversed $77 $-1 #
coedge $-1 $123 $313 $311 $316 forward $77 $-1 #
coedge $-1 $213 $212 $123 $206 forward $214 $-1 #
edge $-1 $317 -19.611680027934938 $318 -2.4727158742854556 $205 $319 forward 7 unknown #
coedge $-1 $125 $124 $310 $320 reversed $49 $-1 #
coedge $-1 $202 $321 $124 $209 reversed $121 $-1 #
edge $-1 $215 -67.95129245887631 $322 67.95129245887631 $208 $323 forward 7 unknown #
coedge $-1 $324 $325 $125 $211 forward $308 $-1 #
edge $-1 $216 -67.95129245887631 $326 67.95129245887631 $210 $327 forward 7 unknown #
coedge $-1 $205 $126 $325 $328 forward $214 $-1 #
coedge $-1 $126 $205 $202 $312 forward $214 $-1 #
loop $-1 $-1 $126 $307 #
vertex $-1 $127 $329 #
vertex $-1 $328 $330 #
straight-curve $-1 67.95129245887631 -11.042197951110197 0.46310793351539736 0 -1 0 I I #
face $-1 $-1 $230 $29 $-1 $331 reversed single #
loop $-1 $-1 $332 $128 #
plane-surface $-1 0 0 13.550404235587001 0 0 1 1 0 0 forward_v I I I I #
coedge $-1 $333 $334 $335 $336 reversed $129 $-1 #
coedge $-1 $337 $131 $133 $228 forward $81 $-1 #
coedge $-1 $131 $337 $333 $338 forward $81 $-1 #
coedge $-1 $335 $134 $131 $225 forward $230 $-1 #
edge $-1 $232 -8.4255712124990865 $339 -1.753114013294045 $224 $340 forward 7 unknown #
coedge $-1 $341 $342 $132 $227 forward $219 $-1 #
edge $-1 $343 18.781091813616172 $231 23.93070640508364 $226 $344 forward 7 unknown #
edge $-1 $232 -135.90258491775259 $343 -127.7197662004088 $133 $345 forward 7 unknown #
coedge $-1 $134 $335 $341 $346 reversed $230 $-1 #
loop $-1 $-1 $335 $218 #
vertex $-1 $346 $347 #
vertex $-1 $135 $348 #
straight-curve $-1 67.95129245887631 -13.514913825395652 99.166786144849425 0 0 -1 I I #
coedge $-1 $234 $234 $-1 $349 reversed $138 $-1 #
edge $-1 $350 0 $350 6.2831853071796004 $139 $351 forward 7 unknown #
vertex $-1 $142 $352 #
ellipse-curve $-1 65.376485163142576 -10.178685225793132 10.370781941970282 0.77714596973225614 0 0.62932038083071107 0.9439805712460666 0 -1.1657189545983841 1 I I #
face $-1 $-1 $353 $31 $-1 $354 reversed single #
loop $-1 $-1 $245 $143 #
plane-surface $-1 0 0 13.550404235587001 0 0 1 1 0 0 forward_v I I I I #
coedge $-1 $355 $146 $148 $247 forward $90 $-1 #
coedge $-1 $146 $355 $356 $357 reversed $90 $-1 #
coedge $-1 $358 $149 $146 $244 forward $144 $-1 #
edge $-1 $250 10.322596090118786 $359 16.995053289323828 $243 $360 forward 7 unknown #
coedge $-1 $361 $362 $147 $246 forward $239 $-1 #
edge $-1 $363 18.781091813616172 $249 23.93070640508364 $245 $364 forward 7 unknown #
edge $-1 $250 -135.90258491775259 $363 -127.7197662004088 $148 $365 forward 7 unknown #
coedge $-1 $149 $358 $361 $366 reversed $144 $-1 #
vertex $-1 $366 $367 #
vertex $-1 $150 $368 #
straight-curve $-1 67.95129245887631 23.981420779840093 99.166786144849425 0 0 -1 I I #
coedge $-1 $252 $252 $-1 $369 reversed $153 $-1 #
edge $-1 $370 0 $370 6.2831853071796004 $154 $371 forward 7 unknown #
vertex $-1 $157 $372 #
ellipse-curve $-1 65.376485163142576 27.317649379442614 10.370781941970282 0.77714596973225614 0 0.62932038083071107 0.9439805712460666 0 -1.1657189545983841 1 I I #
face $-1 $-1 $268 $33 $-1 $373 forward single #
loop $-1 $-1 $374 $158 #
plane-surface $-1 -67.95129245887631 0 0 1 0 0 0 0 -1 forward_v I I I I #
coedge $-1 $375 $376 $377 $378 reversed $159 $-1 #
coedge $-1 $379 $161 $163 $266 forward $99 $-1 #
coedge $-1 $161 $379 $375 $380 forward $99 $-1 #
coedge $-1 $377 $164 $161 $263 forward $268 $-1 #
edge $-1 $270 7.5910176222425356 $381 14.492285565778598 $262 $382 forward 7 unknown #
coedge $-1 $383 $384 $162 $265 forward $257 $-1 #
edge $-1 $385 -47.800409545693093 $269 -34.746824479865595 $264 $386 forward 7 unknown #
edge $-1 $270 -18.460556823494539 $385 4.0194366942304651e-014 $163 $387 forward 7 unknown #
coedge $-1 $164 $377 $383 $388 forward $268 $-1 #
loop $-1 $-1 $377 $256 #
vertex $-1 $265 $389 #
vertex $-1 $165 $390 #
straight-curve $-1 -82.024466474988799 18.632669216253102 13.550404235587003 1 0 0 I I #
coedge $-1 $272 $272 $-1 $391 reversed $168 $-1 #
edge $-1 $392 0 $392 6.2831853071796004 $169 $393 forward 7 unknown #
vertex $-1 $172 $394 #
ellipse-curve $-1 -61.424500077417456 20.60446005726341 7.0236117026732536 -0.70710678939079041 0 0.70710677298230451 0.35355338649115226 0 0.35355339469539521 1 I I #
coedge $-1 $276 $276 $-1 $395 reversed $175 $-1 #
edge $-1 $396 0 $396 6.2831853071796004 $176 $397 forward 7 unknown #
vertex $-1 $179 $398 #
ellipse-curve $-1 -61.424500077417456 23.562146318778865 7.0236117026732536 -0.70710678939079041 0 0.70710677298230451 0.35355338649115226 0 0.35355339469539521 1 I I #
face $-1 $-1 $195 $27 $-1 $399 reversed single #
loop $-1 $-1 $296 $180 #
plane-surface $-1 0 30.653877979045134 0 0 -1 0 0 0 -1 forward_v I I I I #
coedge $-1 $400 $294 $297 $401 forward $181 $-1 #
coedge $-1 $300 $183 $184 $288 reversed $113 $-1 #
coedge $-1 $294 $400 $183 $286 reversed $181 $-1 #
edge $-1 $301 -13.550404235587001 $402 13.550404235587001 $285 $403 forward 7 unknown #
coedge $-1 $185 $184 $400 $404 forward $73 $-1 #
edge $-1 $292 -67.95129245887631 $402 67.95129245887631 $284 $405 forward 7 unknown #
coedge $-1 $297 $296 $185 $290 reversed $281 $-1 #
edge $-1 $406 -67.95129245887631 $291 67.95129245887631 $289 $407 forward 7 unknown #
vertex $-1 $187 $408 #
vertex $-1 $303 $409 #
straight-curve $-1 67.95129245887631 0 -13.550404235587001 0 -1 0 I I #
coedge $-1 $283 $285 $188 $295 reversed $181 $-1 #
edge $-1 $298 -30.653877979045134 $301 30.653877979045134 $294 $410 forward 7 unknown #
coedge $-1 $289 $189 $194 $304 forward $281 $-1 #
coedge $-1 $189 $289 $283 $401 reversed $281 $-1 #
vertex $-1 $190 $411 #
straight-curve $-1 0 30.653877979045134 13.550404235587001 -1 0 0 I I #
coedge $-1 $191 $284 $193 $303 reversed $113 $-1 #
vertex $-1 $295 $412 #
straight-curve $-1 0 -30.653877979045134 13.550404235587001 1 0 0 I I #
edge $-1 $196 -13.550404235587001 $292 13.550404235587001 $193 $413 forward 7 unknown #
edge $-1 $197 -13.550404235587001 $291 13.550404235587001 $194 $414 forward 7 unknown #
point $-1 67.95129245887631 -30.653877979045134 13.550404235587001 #
point $-1 67.95129245887631 30.653877979045134 13.550404235587001 #
face $-1 $-1 $214 $28 $-1 $415 reversed single #
loop $-1 $-1 $210 $199 #
plane-surface $-1 0 -30.653877979045134 0 0 1 0 0 0 1 forward_v I I I I #
coedge $-1 $416 $417 $207 $320 forward $200 $-1 #
coedge $-1 $321 $202 $204 $316 reversed $121 $-1 #
edge $-1 $318 -3.4786895490196006 $215 1.4683018053501318 $213 $418 forward 7 unknown #
coedge $-1 $204 $203 $419 $420 reversed $77 $-1 #
coedge $-1 $325 $324 $203 $315 forward $308 $-1 #
edge $-1 $421 -67.95129245887631 $317 67.95129245887631 $314 $422 forward 7 unknown #
edge $-1 $423 -67.95129245887631 $318 67.95129245887631 $311 $424 forward 7 unknown #
vertex $-1 $315 $425 #
vertex $-1 $206 $426 #
straight-curve $-1 67.95129245887631 -11.042197951110197 -4.483883420854335 0 1 0 I I #
edge $-1 $326 -19.611680027934938 $322 -2.4727158742854556 $310 $427 forward 7 unknown #
coedge $-1 $208 $311 $416 $428 reversed $121 $-1 #
vertex $-1 $320 $429 #
straight-curve $-1 0 -13.514913825395652 0.46310793351539736 -1 0 0 I I #
coedge $-1 $314 $210 $417 $430 forward $308 $-1 #
coedge $-1 $210 $314 $212 $328 reversed $308 $-1 #
vertex $-1 $430 $431 #
straight-curve $-1 0 -30.653877979045134 0.46310793351539736 -1 0 0 I I #
edge $-1 $216 -0.46310793351539736 $317 4.483883420854335 $212 $432 forward 7 unknown #
point $-1 67.95129245887631 -13.514913825395652 0.46310793351539736 #
point $-1 67.95129245887631 -30.653877979045134 0.46310793351539736 #
plane-surface $-1 67.95129245887631 0 0 -1 0 0 0 0 1 forward_v I I I I #
coedge $-1 $342 $341 $334 $433 forward $219 $-1 #
coedge $-1 $334 $221 $223 $338 reversed $129 $-1 #
coedge $-1 $221 $333 $332 $433 reversed $129 $-1 #
coedge $-1 $229 $224 $221 $336 forward $230 $-1 #
edge $-1 $339 -91.975626496495835 $434 -85.616381909262429 $335 $435 forward 7 unknown #
coedge $-1 $223 $222 $342 $436 reversed $81 $-1 #
edge $-1 $437 127.7197662004088 $339 135.90258491775259 $333 $438 forward 7 unknown #
vertex $-1 $225 $439 #
straight-curve $-1 67.95129245887631 -5.0893426128965658 7.1911596483535902 0 1 0 I I #
coedge $-1 $332 $226 $229 $346 forward $219 $-1 #
coedge $-1 $226 $332 $337 $436 forward $219 $-1 #
vertex $-1 $227 $440 #
straight-curve $-1 44.02058605379267 -13.514913825395652 13.550404235586996 1 0 0 I I #
straight-curve $-1 -17.574974037441805 -13.514913825395652 112.80730579338072 -0.62932038083071107 0 0.77714596973225614 I I #
edge $-1 $231 -13.514913825395652 $434 -6.8424566261906108 $229 $441 forward 7 unknown #
point $-1 67.95129245887631 -13.514913825395652 13.550404235587001 #
point $-1 67.95129245887631 -13.514913825395652 7.1911596483535902 #
edge $-1 $442 1 $442 0 $234 $-1 forward 7 unknown #
vertex $-1 $235 $443 #
ellipse-curve $-1 62.477076334723307 -10.178685225793132 8.0228870301387527 0.77714596973225614 0 0.62932038083071107 0.9439805712460666 0 -1.1657189545983841 1 I I #
point $-1 66.32046573438862 -10.178685225793132 9.2050629873718819 #
loop $-1 $-1 $356 $238 #
plane-surface $-1 0 30.653877979045134 0 0 -1 0 0 0 -1 forward_v I I I I #
coedge $-1 $242 $241 $362 $444 reversed $90 $-1 #
coedge $-1 $445 $446 $242 $357 forward $353 $-1 #
edge $-1 $359 -86.53856871374623 $447 -78.355749996402423 $356 $448 forward 7 unknown #
coedge $-1 $248 $243 $446 $449 reversed $144 $-1 #
vertex $-1 $357 $450 #
straight-curve $-1 67.95129245887631 13.658824689721307 7.1911596483535902 0 1 0 I I #
coedge $-1 $451 $245 $248 $366 forward $239 $-1 #
coedge $-1 $245 $451 $355 $444 forward $239 $-1 #
vertex $-1 $246 $452 #
straight-curve $-1 44.02058605379267 23.981420779840093 13.550404235586996 1 0 0 I I #
straight-curve $-1 -17.574974037441805 23.981420779840093 112.80730579338072 -0.62932038083071107 0 0.77714596973225614 I I #
edge $-1 $249 23.981420779840093 $453 30.653877979045134 $248 $454 forward 7 unknown #
point $-1 67.95129245887631 23.981420779840093 13.550404235587001 #
point $-1 67.95129245887631 23.981420779840093 7.1911596483535902 #
edge $-1 $455 1 $455 0 $252 $-1 forward 7 unknown #
vertex $-1 $253 $456 #
ellipse-curve $-1 62.477076334723307 27.317649379442614 8.0228870301387527 0.77714596973225614 0 0.62932038083071107 0.9439805712460666 0 -1.1657189545983841 1 I I #
point $-1 66.32046573438862 27.317649379442614 9.2050629873718819 #
plane-surface $-1 0 0 13.550404235587001 0 0 1 1 0 0 forward_v I I I I #
coedge $-1 $384 $383 $376 $457 forward $257 $-1 #
coedge $-1 $376 $259 $261 $380 reversed $159 $-1 #
coedge $-1 $259 $375 $374 $457 reversed $159 $-1 #
coedge $-1 $267 $262 $259 $378 forward $268 $-1 #
edge $-1 $381 -27.126758779030197 $458 -14.073174016112489 $377 $459 forward 7 unknown #
coedge $-1 $261 $260 $384 $460 reversed $99 $-1 #
edge $-1 $461 -4.0194366942304651e-014 $381 18.460556823494539 $375 $462 forward 7 unknown #
vertex $-1 $263 $463 #
straight-curve $-1 -54.897707695958601 11.041651594010567 13.550404235586999 0 1 0 I I #
coedge $-1 $374 $264 $267 $388 reversed $257 $-1 #
coedge $-1 $264 $374 $379 $460 forward $257 $-1 #
vertex $-1 $265 $464 #
straight-curve $-1 -67.95129245887631 18.632669216253102 48.297228715452597 0 0 1 I I #
straight-curve $-1 -67.951292458876281 18.632669216253102 0.496819169759533 -0.70710677298230451 0 -0.70710678939079041 I I #
edge $-1 $458 -25.533937159789165 $269 -18.632669216253102 $383 $465 forward 7 unknown #
point $-1 -67.95129245887631 18.632669216253102 13.550404235587001 #
point $-1 -54.897707695958601 18.632669216253102 13.550404235587001 #
edge $-1 $466 1 $466 0 $272 $-1 forward 7 unknown #
vertex $-1 $273 $467 #
ellipse-curve $-1 -60.717393288026678 20.60446005726341 6.3165049296909634 -0.70710678939079041 0 0.70710677298230451 0.35355338649115226 0 0.35355339469539521 1 I I #
point $-1 -61.070946690926313 20.60446005726341 7.3771650973686631 #
edge $-1 $468 1 $468 0 $276 $-1 forward 7 unknown #
vertex $-1 $277 $469 #
ellipse-curve $-1 -60.717393288026678 23.562146318778865 6.3165049296909634 -0.70710678939079041 0 0.70710677298230451 0.35355338649115226 0 0.35355339469539521 1 I I #
point $-1 -61.070946690926313 23.562146318778865 7.3771650973686631 #
plane-surface $-1 67.95129245887631 0 0 -1 0 0 0 0 1 forward_v I I I I #
coedge $-1 $285 $283 $287 $404 reversed $181 $-1 #
edge $-1 $298 -13.550404235587001 $406 13.550404235587001 $297 $470 forward 7 unknown #
vertex $-1 $404 $471 #
straight-curve $-1 -67.95129245887631 -30.653877979045134 0 0 0 -1 I I #
edge $-1 $402 -30.653877979045134 $406 30.653877979045134 $400 $472 forward 7 unknown #
straight-curve $-1 0 -30.653877979045134 -13.550404235587001 -1 0 0 I I #
vertex $-1 $290 $473 #
straight-curve $-1 0 30.653877979045134 -13.550404235587001 1 0 0 I I #
point $-1 67.95129245887631 30.653877979045134 -13.550404235587001 #
point $-1 67.95129245887631 -30.653877979045134 -13.550404235587001 #
straight-curve $-1 -67.95129245887631 0 13.550404235587001 0 -1 0 I I #
point $-1 -67.95129245887631 30.653877979045134 13.550404235587001 #
point $-1 -67.95129245887631 -30.653877979045134 13.550404235587001 #
straight-curve $-1 67.95129245887631 -30.653877979045134 0 0 0 -1 I I #
straight-curve $-1 67.95129245887631 30.653877979045134 0 0 0 -1 I I #
plane-surface $-1 67.95129245887631 0 0 -1 0 0 0 0 1 forward_v I I I I #
coedge $-1 $419 $310 $321 $428 forward $200 $-1 #
coedge $-1 $310 $419 $324 $430 reversed $200 $-1 #
straight-curve $-1 67.95129245887631 -13.514913825395652 -1.0051938718347344 0 0 1 I I #
coedge $-1 $417 $416 $313 $420 forward $200 $-1 #
edge $-1 $423 2.4727158742854556 $421 19.611680027934938 $419 $474 forward 7 unknown #
vertex $-1 $315 $475 #
straight-curve $-1 0 -30.653877979045134 -4.483883420854335 1 0 0 I I #
vertex $-1 $420 $476 #
straight-curve $-1 0 -13.514913825395652 -4.483883420854335 1 0 0 I I #
point $-1 67.95129245887631 -30.653877979045134 -4.483883420854335 #
point $-1 67.95129245887631 -13.514913825395652 -4.483883420854335 #
straight-curve $-1 -67.95129245887631 -11.042197951110197 0.46310793351539736 0 1 0 I I #
edge $-1 $322 -1.4683018053501318 $423 3.4786895490196006 $416 $477 forward 7 unknown #
point $-1 -67.95129245887631 -13.514913825395652 0.46310793351539736 #
edge $-1 $326 -0.46310793351539736 $421 4.483883420854335 $417 $478 forward 7 unknown #
point $-1 -67.95129245887631 -30.653877979045134 0.46310793351539736 #
straight-curve $-1 67.95129245887631 -30.653877979045134 0 0 0 -1 I I #
edge $-1 $434 -23.93070640508364 $437 -18.781091813616172 $332 $479 forward 7 unknown #
vertex $-1 $433 $480 #
straight-curve $-1 67.95129245887631 -6.8424566261906108 99.166786144849425 0 0 1 I I #
edge $-1 $437 1.753114013294045 $343 8.4255712124990865 $342 $481 forward 7 unknown #
vertex $-1 $436 $482 #
straight-curve $-1 -17.574974037441805 -6.8424566261906108 112.80730579338072 0.62932038083071107 0 -0.77714596973225614 I I #
point $-1 67.95129245887631 -6.8424566261906108 7.1911596483535902 #
point $-1 62.801677867408841 -13.514913825395652 13.550404235586996 #
straight-curve $-1 67.95129245887631 0 13.550404235587001 0 1 0 I I #
vertex $-1 $349 $483 #
point $-1 63.421056905969373 -10.178685225793132 6.8571680755403692 #
edge $-1 $447 -16.995053289323828 $363 -10.322596090118786 $362 $484 forward 7 unknown #
coedge $-1 $446 $356 $451 $485 reversed $353 $-1 #
coedge $-1 $356 $445 $358 $449 forward $353 $-1 #
vertex $-1 $357 $486 #
straight-curve $-1 13.490807439396878 30.653877979045134 74.444259550639373 -0.62932038083071107 0 0.77714596973225614 I I #
edge $-1 $453 -13.550404235587001 $359 -7.1911596483535902 $358 $487 forward 7 unknown #
point $-1 67.95129245887631 30.653877979045134 7.1911596483535902 #
coedge $-1 $362 $361 $445 $485 forward $239 $-1 #
point $-1 62.801677867408841 23.981420779840093 13.550404235586996 #
vertex $-1 $366 $488 #
straight-curve $-1 67.95129245887631 0 13.550404235587001 0 1 0 I I #
vertex $-1 $369 $489 #
point $-1 63.421056905969373 27.317649379442614 6.8571680755403692 #
edge $-1 $458 34.746824479865595 $461 47.800409545693093 $374 $490 forward 7 unknown #
vertex $-1 $388 $491 #
straight-curve $-1 -82.024466474988799 25.533937159789165 13.550404235587003 -1 0 0 I I #
edge $-1 $461 -14.492285565778598 $385 -7.5910176222425356 $384 $492 forward 7 unknown #
vertex $-1 $460 $493 #
straight-curve $-1 -67.951292458876281 25.533937159789165 0.496819169759533 0.70710677298230451 0 0.70710678939079041 I I #
point $-1 -54.897707695958601 25.533937159789165 13.550404235587001 #
point $-1 -67.95129245887631 18.632669216253102 0.49681916975950458 #
straight-curve $-1 -67.95129245887631 0 13.550404235587001 0 -1 0 I I #
vertex $-1 $391 $494 #
point $-1 -60.363839901535528 20.60446005726341 6.6700583243863587 #
vertex $-1 $395 $495 #
point $-1 -60.363839901535528 23.562146318778865 6.6700583243863587 #
straight-curve $-1 -67.95129245887631 30.653877979045134 0 0 0 -1 I I #
point $-1 -67.95129245887631 -30.653877979045134 -13.550404235587001 #
straight-curve $-1 -67.95129245887631 0 -13.550404235587001 0 1 0 I I #
point $-1 -67.95129245887631 30.653877979045134 -13.550404235587001 #
straight-curve $-1 -67.95129245887631 -11.042197951110197 -4.483883420854335 0 -1 0 I I #
point $-1 -67.95129245887631 -30.653877979045134 -4.483883420854335 #
point $-1 -67.95129245887631 -13.514913825395652 -4.483883420854335 #
straight-curve $-1 -67.95129245887631 -13.514913825395652 -1.0051938718347344 0 0 -1 I I #
straight-curve $-1 -67.95129245887631 -30.653877979045134 0 0 0 -1 I I #
straight-curve $-1 44.02058605379267 -6.8424566261906108 13.550404235586996 -1 0 0 I I #
point $-1 67.95129245887631 -6.8424566261906108 13.550404235587001 #
straight-curve $-1 62.801677867408841 -5.0893426128965658 13.550404235586996 0 -1 0 I I #
point $-1 62.801677867408841 -6.8424566261906108 13.550404235586996 #
point $-1 61.311357380124917 -10.178685225793132 7.0789064588926864 #
straight-curve $-1 62.801677867408841 13.658824689721307 13.550404235586996 0 -1 0 I I #
edge $-1 $453 -67.95129245887631 $447 -62.801677867408841 $445 $496 forward 7 unknown #
point $-1 62.801677867408841 30.653877979045134 13.550404235586996 #
straight-curve $-1 67.95129245887631 30.653877979045134 0 0 0 -1 I I #
point $-1 67.95129245887631 30.653877979045134 13.550404235587001 #
point $-1 61.311357380124917 27.317649379442614 7.0789064588926864 #
straight-curve $-1 -67.95129245887631 25.533937159789165 48.297228715452597 0 0 -1 I I #
point $-1 -67.95129245887631 25.533937159789165 13.550404235587001 #
straight-curve $-1 -67.95129245887631 11.041651594010567 0.49681916975949747 0 -1 0 I I #
point $-1 -67.95129245887631 25.533937159789165 0.49681916975950458 #
point $-1 -60.363839893331281 20.60446005726341 5.9629515431998117 #
point $-1 -60.363839893331281 23.562146318778865 5.9629515431998117 #
straight-curve $-1 0 30.653877979045134 13.550404235587001 -1 0 0 I I #
End-of-ACIS-data 