500 0 5 0           
7 Unknown 11 ACIS 5.0 NT 24 Fri Mar 26 00:43:51 1999 
-1 9.9999999999999995e-007 1e-010 
body $-1 $5 $-1 $6 #
body $-1 $7 $-1 $8 #
body $-1 $9 $-1 $10 #
body $-1 $11 $-1 $12 #
body $-1 $13 $-1 $14 #
lump $-1 $-1 $15 $0 #
transform $-1 1 0 0 0 1 0 0 0 1 40.078127384258551 20.585678125187695 9.9669687893453087 1 rotate no_reflect no_shear #
lump $-1 $-1 $16 $1 #
transform $-1 1 0 0 0 1 0 0 0 1 40.078127384258551 20.585678125187695 9.9669687893453087 1 rotate no_reflect no_shear #
lump $-1 $-1 $17 $2 #
transform $-1 1 0 0 0 1 0 0 0 1 40.078127384258551 20.585678125187695 9.9669687893453087 1 rotate no_reflect no_shear #
lump $-1 $-1 $18 $3 #
transform $-1 1 0 0 0 1 0 0 0 1 40.078127384258551 20.585678125187695 9.9669687893453087 1 rotate no_reflect no_shear #
lump $-1 $-1 $19 $4 #
transform $-1 1 0 0 0 1 0 0 0 1 40.078127384258551 20.585678125187695 9.9669687893453087 1 rotate no_reflect no_shear #
shell $-1 $-1 $-1 $20 $-1 $5 #
shell $-1 $-1 $-1 $21 $-1 $7 #
shell $-1 $-1 $-1 $22 $-1 $9 #
shell $-1 $-1 $-1 $23 $-1 $11 #
shell $-1 $-1 $-1 $24 $-1 $13 #
face $-1 $25 $26 $15 $-1 $27 forward single #
face $-1 $28 $29 $16 $-1 $30 forward single #
face $-1 $31 $32 $17 $-1 $33 reversed single #
face $-1 $34 $35 $18 $-1 $36 forward single #
face $-1 $37 $38 $19 $-1 $39 reversed single #
face $-1 $40 $41 $15 $-1 $42 reversed single #
loop $-1 $-1 $43 $20 #
plane-surface $-1 0 0 9.9669687893453087 0 0 1 1 0 0 forward_v I I I I #
face $-1 $44 $45 $16 $-1 $46 forward single #
loop $-1 $-1 $47 $21 #
plane-surface $-1 -29.052147370276888 31.275886500299205 91.969539878044316 -1 0 0 0 0.55919291073839883 0.82903756765294845 forward_v I I I I #
face $-1 $48 $49 $17 $-1 $50 reversed single #
loop $-1 $51 $52 $22 #
cone-surface $-1 -34.565137377267718 13.093112548816482 3.334885789950385 0 -0.55919291073839883 -0.82903756765294845 2.5 0 0 1 I I 0 1 2.5 forward I I I I #
face $-1 $53 $54 $18 $-1 $55 forward single #
loop $-1 $-1 $56 $23 #
plane-surface $-1 -29.052147370276888 -65.408487543083439 68.94680933734935 -1 0 0 0 -0.55919291073839883 0.82903756765294845 forward_v I I I I #
face $-1 $57 $58 $19 $-1 $59 reversed single #
loop $-1 $60 $61 $24 #
cone-surface $-1 -34.565137377267718 -13.093112548816485 3.334885789950385 0 0.55919291073839883 -0.82903756765294845 2.5 0 0 1 I I 0 1 2.5 forward I I I I #
face $-1 $62 $63 $15 $-1 $64 reversed single #
loop $-1 $-1 $65 $25 #
plane-surface $-1 0 0 -9.9669687893453087 0 0 1 1 0 0 forward_v I I I I #
coedge $-1 $66 $67 $68 $69 forward $26 $-1 #
face $-1 $70 $71 $16 $-1 $72 reversed single #
loop $-1 $-1 $73 $28 #
plane-surface $-1 -34.565137377267718 -13.546922917596536 25.516993392582847 0 0.55919291073839883 0.82903756765294845 1 0 0 forward_v I I I I #
coedge $-1 $74 $75 $76 $77 reversed $29 $-1 #
face $-1 $78 $79 $17 $-1 $80 forward single #
loop $-1 $81 $82 $31 #
cone-surface $-1 -34.565137377267718 10.440926805298474 -0.5971412002820049 0 -0.55919291073839883 -0.82903756765294845 1.25 0 0 1 I I -0.70710678118654746 0.70710678118654746 1.25 forward I I I I #
loop $-1 $-1 $83 $22 #
coedge $-1 $52 $52 $84 $85 reversed $32 $-1 #
face $-1 $86 $87 $18 $-1 $88 forward single #
loop $-1 $-1 $89 $34 #
plane-surface $-1 -34.565137377267718 -20.585678125187698 2.494262851887882 0 -0.55919291073839883 0.82903756765294845 1 0 0 forward_v I I I I #
coedge $-1 $90 $91 $92 $93 reversed $35 $-1 #
face $-1 $94 $95 $19 $-1 $96 forward single #
loop $-1 $97 $98 $37 #
cone-surface $-1 -34.565137377267718 -10.440926805298478 -0.5971412002820049 0 0.55919291073839883 -0.82903756765294845 1.25 0 0 1 I I -0.70710678118654746 0.70710678118654746 1.25 forward I I I I #
loop $-1 $-1 $99 $24 #
coedge $-1 $61 $61 $100 $101 reversed $38 $-1 #
face $-1 $102 $103 $15 $-1 $104 reversed single #
loop $-1 $-1 $105 $40 #
plane-surface $-1 0 -20.585678125187695 0 0 1 0 0 0 1 forward_v I I I I #
coedge $-1 $106 $107 $108 $109 forward $41 $-1 #
coedge $-1 $110 $43 $111 $112 forward $26 $-1 #
coedge $-1 $43 $110 $113 $114 forward $26 $-1 #
coedge $-1 $115 $116 $43 $69 reversed $117 $-1 #
edge $-1 $118 -20.585678125187695 $119 20.585678125187695 $68 $120 forward 7 unknown #
face $-1 $121 $122 $16 $-1 $123 forward single #
loop $-1 $-1 $124 $44 #
plane-surface $-1 0 20.585678125187695 0 0 -1 0 0 0 -1 forward_v I I I I #
coedge $-1 $125 $126 $124 $127 reversed $45 $-1 #
coedge $-1 $75 $47 $126 $128 forward $29 $-1 #
coedge $-1 $47 $74 $129 $130 reversed $29 $-1 #
coedge $-1 $131 $124 $47 $77 forward $71 $-1 #
edge $-1 $132 -43.49050708713429 $133 -36.017801149676849 $76 $134 forward 7 unknown #
face $-1 $135 $136 $17 $-1 $137 forward single #
loop $-1 $-1 $138 $48 #
plane-surface $-1 -29.052147370276888 31.275886500299205 91.969539878044316 -1 0 0 0 0.55919291073839883 0.82903756765294845 forward_v I I I I #
loop $-1 $-1 $139 $31 #
coedge $-1 $82 $82 $83 $140 forward $49 $-1 #
coedge $-1 $83 $83 $82 $140 reversed $51 $-1 #
coedge $-1 $84 $84 $52 $85 forward $136 $-1 #
edge $-1 $141 -1.8480709120176177e-016 $141 6.2831853071796004 $84 $142 forward 7 unknown #
face $-1 $143 $144 $18 $-1 $145 reversed single #
loop $-1 $-1 $146 $53 #
plane-surface $-1 0 0 9.9669687893453087 0 0 1 1 0 0 forward_v I I I I #
coedge $-1 $147 $148 $146 $149 reversed $54 $-1 #
coedge $-1 $91 $56 $148 $150 forward $35 $-1 #
coedge $-1 $56 $90 $151 $152 reversed $35 $-1 #
coedge $-1 $153 $146 $56 $93 forward $87 $-1 #
edge $-1 $154 -23.197307588906405 $155 -12.118565646354025 $92 $156 forward 7 unknown #
face $-1 $157 $158 $19 $-1 $159 forward single #
loop $-1 $-1 $160 $57 #
plane-surface $-1 -29.052147370276888 -65.408487543083439 68.94680933734935 -1 0 0 0 -0.55919291073839883 0.82903756765294845 forward_v I I I I #
loop $-1 $-1 $161 $37 #
coedge $-1 $98 $98 $99 $162 forward $58 $-1 #
coedge $-1 $99 $99 $98 $162 reversed $60 $-1 #
coedge $-1 $100 $100 $61 $101 forward $158 $-1 #
edge $-1 $163 4.1811766927135926e-016 $163 6.2831853071796004 $100 $164 forward 7 unknown #
face $-1 $165 $166 $15 $-1 $167 reversed single #
loop $-1 $-1 $168 $62 #
plane-surface $-1 -40.078127384258551 0 0 1 0 0 0 0 -1 forward_v I I I I #
coedge $-1 $169 $113 $170 $171 forward $63 $-1 #
coedge $-1 $172 $65 $169 $173 forward $41 $-1 #
coedge $-1 $65 $172 $174 $175 forward $41 $-1 #
coedge $-1 $116 $115 $65 $109 reversed $117 $-1 #
edge $-1 $176 -20.585678125187695 $177 20.585678125187695 $108 $178 forward 7 unknown #
coedge $-1 $67 $66 $179 $180 forward $26 $-1 #
coedge $-1 $181 $182 $66 $112 reversed $166 $-1 #
edge $-1 $119 -40.078127384258551 $183 40.078127384258551 $111 $184 forward 7 unknown #
coedge $-1 $105 $185 $67 $114 reversed $63 $-1 #
edge $-1 $186 -40.078127384258551 $118 40.078127384258551 $113 $187 forward 7 unknown #
coedge $-1 $108 $68 $185 $188 forward $117 $-1 #
coedge $-1 $68 $108 $181 $189 reversed $117 $-1 #
loop $-1 $-1 $115 $165 #
vertex $-1 $69 $190 #
vertex $-1 $69 $191 #
straight-curve $-1 40.078127384258551 0 9.9669687893453087 0 1 0 I I #
face $-1 $192 $193 $16 $-1 $194 reversed single #
loop $-1 $-1 $129 $70 #
plane-surface $-1 0 0 9.9669687893453087 0 0 1 1 0 0 forward_v I I I I #
coedge $-1 $76 $195 $73 $127 forward $71 $-1 #
coedge $-1 $196 $73 $197 $198 reversed $45 $-1 #
coedge $-1 $73 $196 $74 $128 reversed $45 $-1 #
edge $-1 $199 -22.795558695624692 $132 -11.769578681643029 $124 $200 forward 7 unknown #
edge $-1 $132 -41.171356250375389 $201 -27.80797879340809 $74 $202 forward 7 unknown #
coedge $-1 $203 $204 $75 $130 forward $122 $-1 #
edge $-1 $133 -4.9477348750380923 $201 6.1310070675143198 $129 $205 forward 7 unknown #
coedge $-1 $206 $76 $204 $207 reversed $71 $-1 #
vertex $-1 $127 $208 #
vertex $-1 $130 $209 #
straight-curve $-1 -29.052147370276888 20.585678125187695 45.984769939022158 0 0 1 I I #
face $-1 $210 $211 $17 $-1 $212 reversed single #
loop $-1 $213 $84 $78 #
plane-surface $-1 -34.565137377267718 -13.546922917596536 25.516993392582847 0 0.55919291073839883 0.82903756765294845 1 0 0 forward_v I I I I #
coedge $-1 $214 $215 $216 $217 reversed $79 $-1 #
coedge $-1 $139 $139 $-1 $218 forward $81 $-1 #
edge $-1 $219 0 $219 6.2831853071796004 $82 $220 forward 7 unknown #
vertex $-1 $85 $221 #
ellipse-curve $-1 -34.565137377267718 15.046307153911489 6.2306158206165847 0 -0.55919291073839883 -0.82903756765294845 2.5 0 0 1 I I #
face $-1 $222 $223 $18 $-1 $224 reversed single #
loop $-1 $-1 $151 $86 #
plane-surface $-1 0 -20.585678125187695 0 0 1 0 0 0 1 forward_v I I I I #
coedge $-1 $92 $225 $89 $149 forward $87 $-1 #
coedge $-1 $226 $89 $227 $228 reversed $54 $-1 #
coedge $-1 $89 $226 $90 $150 reversed $54 $-1 #
edge $-1 $229 -22.795558695624692 $154 -11.769578681643029 $146 $230 forward 7 unknown #
edge $-1 $154 -13.363377456967264 $231 -4.1869907962579859e-015 $90 $232 forward 7 unknown #
coedge $-1 $233 $234 $91 $152 forward $144 $-1 #
edge $-1 $155 24.506435879329366 $231 31.97914181678679 $151 $235 forward 7 unknown #
coedge $-1 $236 $92 $234 $237 forward $87 $-1 #
vertex $-1 $149 $238 #
vertex $-1 $237 $239 #
straight-curve $-1 -29.052147370276888 -32.704243771541719 9.9669687893453087 0 -1 0 I I #
face $-1 $240 $241 $19 $-1 $242 forward single #
loop $-1 $243 $100 $94 #
plane-surface $-1 -34.565137377267718 -20.585678125187698 2.494262851887882 0 -0.55919291073839883 0.82903756765294845 1 0 0 forward_v I I I I #
coedge $-1 $244 $245 $246 $247 reversed $95 $-1 #
coedge $-1 $161 $161 $-1 $248 forward $97 $-1 #
edge $-1 $249 0 $249 6.2831853071796004 $98 $250 forward 7 unknown #
vertex $-1 $101 $251 #
ellipse-curve $-1 -34.565137377267718 -15.046307153911501 6.2306158206165989 0 0.55919291073839883 -0.82903756765294845 2.5 0 0 1 I I #
face $-1 $-1 $117 $15 $-1 $252 reversed single #
loop $-1 $-1 $181 $102 #
plane-surface $-1 0 20.585678125187695 0 0 -1 0 0 0 -1 forward_v I I I I #
coedge $-1 $253 $179 $182 $254 forward $103 $-1 #
coedge $-1 $185 $105 $106 $173 reversed $63 $-1 #
coedge $-1 $179 $253 $105 $171 reversed $103 $-1 #
edge $-1 $186 -9.9669687893453087 $255 9.9669687893453087 $170 $256 forward 7 unknown #
coedge $-1 $107 $106 $253 $257 forward $41 $-1 #
edge $-1 $177 -40.078127384258551 $255 40.078127384258551 $169 $258 forward 7 unknown #
coedge $-1 $182 $181 $107 $175 reversed $166 $-1 #
edge $-1 $259 -40.078127384258551 $176 40.078127384258551 $174 $260 forward 7 unknown #
vertex $-1 $109 $261 #
vertex $-1 $188 $262 #
straight-curve $-1 40.078127384258551 0 -9.9669687893453087 0 -1 0 I I #
coedge $-1 $168 $170 $110 $180 reversed $103 $-1 #
edge $-1 $183 -20.585678125187695 $186 20.585678125187695 $179 $263 forward 7 unknown #
coedge $-1 $174 $111 $116 $189 forward $166 $-1 #
coedge $-1 $111 $174 $168 $254 reversed $166 $-1 #
vertex $-1 $112 $264 #
straight-curve $-1 0 20.585678125187695 9.9669687893453087 -1 0 0 I I #
coedge $-1 $113 $169 $115 $188 reversed $63 $-1 #
vertex $-1 $180 $265 #
straight-curve $-1 0 -20.585678125187695 9.9669687893453087 1 0 0 I I #
edge $-1 $118 -9.9669687893453087 $177 9.9669687893453087 $115 $266 forward 7 unknown #
edge $-1 $119 -9.9669687893453087 $176 9.9669687893453087 $116 $267 forward 7 unknown #
point $-1 40.078127384258551 -20.585678125187695 9.9669687893453087 #
point $-1 40.078127384258551 20.585678125187695 9.9669687893453087 #
face $-1 $268 $269 $16 $-1 $270 reversed single #
loop $-1 $-1 $271 $121 #
plane-surface $-1 0 0 -9.9669687893453087 0 0 1 1 0 0 forward_v I I I I #
coedge $-1 $124 $272 $273 $274 reversed $71 $-1 #
coedge $-1 $126 $125 $203 $275 reversed $45 $-1 #
coedge $-1 $273 $276 $125 $198 forward $277 $-1 #
edge $-1 $278 15.058063876769539 $199 28.421441333736837 $197 $279 forward 7 unknown #
vertex $-1 $274 $280 #
straight-curve $-1 -17.282568688633859 20.585678125187698 2.4942628518878625 1 0 0 I I #
vertex $-1 $275 $281 #
straight-curve $-1 -29.052147370276888 -13.546922917596536 25.516993392582847 0 -0.82903756765294845 0.55919291073839883 I I #
coedge $-1 $282 $129 $196 $275 forward $122 $-1 #
coedge $-1 $129 $283 $131 $207 forward $122 $-1 #
straight-curve $-1 -29.052147370276888 15.637943250149602 9.9669687893453087 0 -1 0 I I #
coedge $-1 $272 $131 $284 $285 forward $71 $-1 #
edge $-1 $286 -40.078127384258551 $133 29.052147370276888 $131 $287 forward 7 unknown #
point $-1 -29.052147370276888 20.585678125187695 2.4942628518878642 #
point $-1 -29.052147370276888 20.585678125187695 9.9669687893453087 #
face $-1 $288 $289 $17 $-1 $290 forward single #
loop $-1 $-1 $291 $135 #
plane-surface $-1 0 20.585678125187695 0 0 -1 0 0 0 -1 forward_v I I I I #
loop $-1 $-1 $292 $78 #
coedge $-1 $215 $138 $293 $294 forward $79 $-1 #
coedge $-1 $138 $214 $295 $296 reversed $79 $-1 #
coedge $-1 $297 $291 $138 $217 forward $211 $-1 #
edge $-1 $298 -43.49050708713429 $299 -36.017801149676849 $216 $300 forward 7 unknown #
edge $-1 $301 1 $301 0 $139 $-1 forward 7 unknown #
vertex $-1 $140 $302 #
ellipse-curve $-1 -34.565137377267718 11.139917943721473 0.4391557592841806 0 0.55919291073839883 0.82903756765294845 2.5 0 0 1 I I #
point $-1 -32.065137377267718 15.046307153911492 6.2306158206165891 #
face $-1 $303 $304 $18 $-1 $305 reversed single #
loop $-1 $306 $307 $143 #
cone-surface $-1 -34.565137377267718 13.093112548816482 3.334885789950385 0 -0.55919291073839883 -0.82903756765294845 2.5 0 0 1 I I 0 1 2.5 forward I I I I #
coedge $-1 $146 $308 $309 $310 forward $87 $-1 #
coedge $-1 $148 $147 $233 $311 reversed $54 $-1 #
coedge $-1 $309 $312 $147 $228 forward $313 $-1 #
edge $-1 $314 -7.8357632085491327 $229 5.5276142484181259 $227 $315 forward 7 unknown #
vertex $-1 $228 $316 #
straight-curve $-1 -17.282568688633859 -9.5069361826353145 9.9669687893453087 1 0 0 I I #
vertex $-1 $311 $317 #
straight-curve $-1 -29.052147370276888 -20.585678125187698 2.494262851887882 0 -0.82903756765294845 -0.55919291073839883 I I #
coedge $-1 $318 $151 $226 $311 forward $144 $-1 #
coedge $-1 $151 $319 $153 $237 reversed $144 $-1 #
straight-curve $-1 -29.052147370276888 -20.585678125187695 34.473404668674675 0 0 -1 I I #
coedge $-1 $320 $153 $321 $322 forward $87 $-1 #
edge $-1 $155 -29.052147370276888 $323 40.078127384258551 $234 $324 forward 7 unknown #
point $-1 -29.052147370276888 -9.5069361826353145 9.9669687893453087 #
point $-1 -29.052147370276888 -20.585678125187695 9.9669687893453087 #
face $-1 $325 $326 $19 $-1 $327 reversed single #
loop $-1 $-1 $328 $157 #
plane-surface $-1 0 0 9.9669687893453087 0 0 1 1 0 0 forward_v I I I I #
loop $-1 $-1 $329 $94 #
coedge $-1 $245 $160 $330 $331 forward $95 $-1 #
coedge $-1 $160 $244 $332 $333 reversed $95 $-1 #
coedge $-1 $334 $328 $160 $247 forward $241 $-1 #
edge $-1 $335 -23.197307588906405 $336 -12.118565646354025 $246 $337 forward 7 unknown #
edge $-1 $338 1 $338 0 $161 $-1 forward 7 unknown #
vertex $-1 $162 $339 #
ellipse-curve $-1 -34.565137377267718 -11.139917943721477 0.4391557592841806 0 -0.55919291073839883 0.82903756765294845 2.5 0 0 1 I I #
point $-1 -32.065137377267718 -15.046307153911496 6.2306158206165891 #
plane-surface $-1 40.078127384258551 0 0 -1 0 0 0 0 1 forward_v I I I I #
coedge $-1 $170 $168 $172 $257 reversed $103 $-1 #
edge $-1 $183 -9.9669687893453087 $259 9.9669687893453087 $182 $340 forward 7 unknown #
vertex $-1 $257 $341 #
straight-curve $-1 -40.078127384258551 -20.585678125187695 0 0 0 -1 I I #
edge $-1 $255 -20.585678125187695 $259 20.585678125187695 $253 $342 forward 7 unknown #
straight-curve $-1 0 -20.585678125187695 -9.9669687893453087 -1 0 0 I I #
vertex $-1 $175 $343 #
straight-curve $-1 0 20.585678125187695 -9.9669687893453087 1 0 0 I I #
point $-1 40.078127384258551 20.585678125187695 -9.9669687893453087 #
point $-1 40.078127384258551 -20.585678125187695 -9.9669687893453087 #
straight-curve $-1 -40.078127384258551 0 9.9669687893453087 0 -1 0 I I #
point $-1 -40.078127384258551 20.585678125187695 9.9669687893453087 #
point $-1 -40.078127384258551 -20.585678125187695 9.9669687893453087 #
straight-curve $-1 40.078127384258551 -20.585678125187695 0 0 0 -1 I I #
straight-curve $-1 40.078127384258551 20.585678125187695 0 0 0 -1 I I #
face $-1 $344 $277 $16 $-1 $345 reversed single #
loop $-1 $-1 $346 $192 #
plane-surface $-1 0 -20.585678125187695 0 0 1 0 0 0 1 forward_v I I I I #
coedge $-1 $347 $348 $349 $350 forward $193 $-1 #
coedge $-1 $195 $206 $348 $351 reversed $71 $-1 #
coedge $-1 $352 $197 $195 $274 forward $277 $-1 #
edge $-1 $199 -2.494262851887862 $353 9.9669687893453087 $195 $354 forward 7 unknown #
edge $-1 $201 11.769578681643029 $278 22.795558695624692 $203 $355 forward 7 unknown #
coedge $-1 $197 $356 $282 $357 reversed $277 $-1 #
loop $-1 $-1 $197 $268 #
vertex $-1 $357 $358 #
straight-curve $-1 -40.078127384258551 -2.9767644673244638 18.387331358680804 0 0.82903756765294845 -0.55919291073839883 I I #
point $-1 -40.078127384258551 20.585678125187695 2.494262851887862 #
point $-1 -29.052147370276888 9.5069361826352825 9.9669687893453087 #
coedge $-1 $359 $203 $276 $357 forward $122 $-1 #
coedge $-1 $204 $359 $360 $361 forward $122 $-1 #
coedge $-1 $360 $349 $206 $285 reversed $362 $-1 #
edge $-1 $286 -9.9669687893453087 $363 9.9669687893453087 $284 $364 forward 7 unknown #
vertex $-1 $361 $365 #
straight-curve $-1 0 20.585678125187695 9.9669687893453087 -1 0 0 I I #
face $-1 $366 $367 $17 $-1 $368 reversed single #
loop $-1 $-1 $295 $210 #
plane-surface $-1 0 0 9.9669687893453087 0 0 1 1 0 0 forward_v I I I I #
coedge $-1 $216 $369 $292 $370 forward $211 $-1 #
coedge $-1 $371 $293 $291 $370 reversed $213 $-1 #
coedge $-1 $292 $372 $214 $294 reversed $213 $-1 #
edge $-1 $298 -41.171356250375389 $373 -27.80797879340809 $214 $374 forward 7 unknown #
coedge $-1 $375 $376 $215 $296 forward $289 $-1 #
edge $-1 $299 -4.9477348750380923 $373 6.1310070675143198 $295 $377 forward 7 unknown #
coedge $-1 $378 $216 $376 $379 reversed $211 $-1 #
vertex $-1 $370 $380 #
vertex $-1 $296 $381 #
straight-curve $-1 -29.052147370276888 20.585678125187695 45.984769939022158 0 0 1 I I #
vertex $-1 $218 $382 #
point $-1 -32.065137377267718 11.139917943721473 0.4391557592841806 #
face $-1 $383 $384 $18 $-1 $385 forward single #
loop $-1 $386 $387 $222 #
cone-surface $-1 -34.565137377267718 10.440926805298474 -0.5971412002820049 0 -0.55919291073839883 -0.82903756765294845 1.25 0 0 1 I I -0.70710678118654746 0.70710678118654746 1.25 forward I I I I #
loop $-1 $-1 $388 $143 #
coedge $-1 $307 $307 $389 $390 reversed $223 $-1 #
coedge $-1 $225 $391 $392 $393 forward $87 $-1 #
coedge $-1 $394 $227 $225 $310 reversed $313 $-1 #
edge $-1 $395 -9.5069361826352825 $229 9.5069361826353145 $309 $396 forward 7 unknown #
edge $-1 $231 11.769578681643029 $314 22.795558695624692 $233 $397 forward 7 unknown #
coedge $-1 $227 $398 $318 $399 reversed $313 $-1 #
loop $-1 $-1 $227 $400 #
vertex $-1 $399 $401 #
straight-curve $-1 -40.078127384258551 -14.089536054067658 6.8759660883333282 0 0.82903756765294845 0.55919291073839883 I I #
point $-1 -40.078127384258551 -9.5069361826353145 9.9669687893453087 #
point $-1 -29.052147370276888 -20.585678125187695 2.4942628518878842 #
coedge $-1 $402 $233 $312 $399 forward $144 $-1 #
coedge $-1 $234 $402 $403 $404 reversed $144 $-1 #
coedge $-1 $391 $236 $405 $406 forward $87 $-1 #
coedge $-1 $403 $407 $236 $322 reversed $408 $-1 #
edge $-1 $323 -20.585678125187695 $409 20.585678125187695 $321 $410 forward 7 unknown #
vertex $-1 $322 $411 #
straight-curve $-1 0 -20.585678125187695 9.9669687893453087 1 0 0 I I #
face $-1 $412 $413 $19 $-1 $414 reversed single #
loop $-1 $-1 $332 $240 #
plane-surface $-1 0 -20.585678125187695 0 0 1 0 0 0 1 forward_v I I I I #
coedge $-1 $246 $415 $329 $416 forward $241 $-1 #
coedge $-1 $417 $330 $328 $416 reversed $243 $-1 #
coedge $-1 $329 $418 $244 $331 reversed $243 $-1 #
edge $-1 $335 -13.363377456967264 $419 -4.1869907962579859e-015 $244 $420 forward 7 unknown #
coedge $-1 $421 $422 $245 $333 forward $326 $-1 #
edge $-1 $336 24.506435879329366 $419 31.97914181678679 $332 $423 forward 7 unknown #
coedge $-1 $424 $246 $422 $425 forward $241 $-1 #
vertex $-1 $416 $426 #
vertex $-1 $425 $427 #
straight-curve $-1 -29.052147370276888 -32.704243771541719 9.9669687893453087 0 -1 0 I I #
vertex $-1 $248 $428 #
point $-1 -32.065137377267718 -11.139917943721477 0.4391557592841806 #
straight-curve $-1 -40.078127384258551 20.585678125187695 0 0 0 -1 I I #
point $-1 -40.078127384258551 -20.585678125187695 -9.9669687893453087 #
straight-curve $-1 -40.078127384258551 0 -9.9669687893453087 0 1 0 I I #
point $-1 -40.078127384258551 20.585678125187695 -9.9669687893453087 #
face $-1 $-1 $362 $16 $-1 $429 reversed single #
plane-surface $-1 -40.078127384258551 0 0 1 0 0 0 0 -1 forward_v I I I I #
coedge $-1 $430 $431 $356 $432 forward $269 $-1 #
coedge $-1 $433 $271 $430 $434 forward $193 $-1 #
coedge $-1 $271 $433 $272 $351 forward $193 $-1 #
coedge $-1 $284 $435 $271 $350 reversed $362 $-1 #
edge $-1 $363 -20.585678125187695 $436 20.585678125187695 $349 $437 forward 7 unknown #
edge $-1 $353 -40.078127384258551 $363 40.078127384258551 $272 $438 forward 7 unknown #
coedge $-1 $356 $273 $433 $439 reversed $277 $-1 #
vertex $-1 $351 $440 #
straight-curve $-1 -40.078127384258551 20.585678125187695 0 0 0 -1 I I #
straight-curve $-1 -17.282568688633859 9.5069361826352825 9.9669687893453069 -1 0 0 I I #
coedge $-1 $276 $352 $346 $432 reversed $277 $-1 #
edge $-1 $278 -9.5069361826352825 $441 20.585678125187695 $276 $442 forward 7 unknown #
point $-1 -40.078127384258551 9.5069361826352825 9.9669687893453087 #
coedge $-1 $283 $282 $431 $443 forward $122 $-1 #
coedge $-1 $435 $284 $283 $361 reversed $362 $-1 #
edge $-1 $444 -20.585678125187695 $286 20.585678125187695 $360 $445 forward 7 unknown #
loop $-1 $-1 $435 $344 #
vertex $-1 $350 $446 #
straight-curve $-1 40.078127384258551 20.585678125187695 0 0 0 -1 I I #
point $-1 40.078127384258551 20.585678125187695 9.9669687893453087 #
face $-1 $447 $448 $17 $-1 $449 reversed single #
loop $-1 $-1 $450 $288 #
plane-surface $-1 0 0 -9.9669687893453087 0 0 1 1 0 0 forward_v I I I I #
coedge $-1 $291 $451 $452 $453 reversed $211 $-1 #
edge $-1 $454 -22.795558695624692 $298 -11.769578681643029 $291 $455 forward 7 unknown #
coedge $-1 $372 $292 $456 $457 reversed $213 $-1 #
coedge $-1 $293 $371 $375 $458 reversed $213 $-1 #
vertex $-1 $458 $459 #
straight-curve $-1 -29.052147370276888 -13.546922917596536 25.516993392582847 0 -0.82903756765294845 0.55919291073839883 I I #
coedge $-1 $460 $295 $372 $458 forward $289 $-1 #
coedge $-1 $295 $461 $297 $379 forward $289 $-1 #
straight-curve $-1 -29.052147370276888 15.637943250149602 9.9669687893453087 0 -1 0 I I #
coedge $-1 $451 $297 $462 $463 forward $211 $-1 #
edge $-1 $464 -40.078127384258551 $299 29.052147370276888 $297 $465 forward 7 unknown #
point $-1 -29.052147370276888 20.585678125187695 2.4942628518878642 #
point $-1 -29.052147370276888 20.585678125187695 9.9669687893453087 #
point $-1 -34.565137377267718 9.7419356668754755 -1.6334381598481904 #
face $-1 $466 $467 $18 $-1 $468 forward single #
loop $-1 $-1 $469 $303 #
plane-surface $-1 -29.052147370276888 31.275886500299205 91.969539878044316 -1 0 0 0 0.55919291073839883 0.82903756765294845 forward_v I I I I #
loop $-1 $-1 $470 $222 #
coedge $-1 $387 $387 $388 $471 forward $304 $-1 #
coedge $-1 $388 $388 $387 $471 reversed $306 $-1 #
coedge $-1 $389 $389 $307 $390 forward $467 $-1 #
edge $-1 $472 -1.8480709120176177e-016 $472 6.2831853071796004 $389 $473 forward 7 unknown #
coedge $-1 $308 $320 $474 $475 forward $87 $-1 #
coedge $-1 $476 $477 $308 $393 reversed $478 $-1 #
edge $-1 $479 11.769578681643029 $395 22.795558695624692 $308 $480 forward 7 unknown #
coedge $-1 $481 $309 $477 $482 forward $313 $-1 #
vertex $-1 $310 $483 #
straight-curve $-1 -40.078127384258551 0 9.9669687893453087 0 -1 0 I I #
straight-curve $-1 -17.282568688633859 -20.585678125187695 2.4942628518878855 -1 0 0 I I #
coedge $-1 $312 $481 $484 $485 reversed $313 $-1 #
edge $-1 $314 -2.4942628518878842 $486 9.9669687893453087 $312 $487 forward 7 unknown #
face $-1 $488 $313 $18 $-1 $489 reversed single #
point $-1 -40.078127384258551 -20.585678125187695 2.4942628518878842 #
coedge $-1 $319 $318 $490 $491 reversed $144 $-1 #
coedge $-1 $492 $321 $319 $404 forward $408 $-1 #
edge $-1 $323 -9.9669687893453087 $493 9.9669687893453087 $403 $494 forward 7 unknown #
coedge $-1 $495 $496 $320 $406 reversed $497 $-1 #
edge $-1 $409 -40.078127384258551 $498 29.052147370276888 $405 $499 forward 7 unknown #
coedge $-1 $321 $492 $495 $500 reversed $408 $-1 #
loop $-1 $-1 $403 $488 #
vertex $-1 $322 $501 #
straight-curve $-1 40.078127384258551 0 9.9669687893453087 0 1 0 I I #
point $-1 40.078127384258551 -20.585678125187695 9.9669687893453087 #
face $-1 $502 $503 $19 $-1 $504 reversed single #
loop $-1 $505 $506 $325 #
cone-surface $-1 -34.565137377267718 13.093112548816482 3.334885789950385 0 -0.55919291073839883 -0.82903756765294845 2.5 0 0 1 I I 0 1 2.5 forward I I I I #
coedge $-1 $328 $507 $508 $509 forward $241 $-1 #
edge $-1 $510 -22.795558695624692 $335 -11.769578681643029 $328 $511 forward 7 unknown #
coedge $-1 $418 $329 $512 $513 reversed $243 $-1 #
coedge $-1 $330 $417 $421 $514 reversed $243 $-1 #
vertex $-1 $514 $515 #
straight-curve $-1 -29.052147370276888 -20.585678125187698 2.494262851887882 0 -0.82903756765294845 -0.55919291073839883 I I #
coedge $-1 $516 $332 $418 $514 forward $326 $-1 #
coedge $-1 $332 $517 $334 $425 reversed $326 $-1 #
straight-curve $-1 -29.052147370276888 -20.585678125187695 34.473404668674675 0 0 -1 I I #
coedge $-1 $518 $334 $519 $520 forward $241 $-1 #
edge $-1 $336 -29.052147370276888 $521 40.078127384258551 $422 $522 forward 7 unknown #
point $-1 -29.052147370276888 -9.5069361826353145 9.9669687893453087 #
point $-1 -29.052147370276888 -20.585678125187695 9.9669687893453087 #
point $-1 -34.565137377267718 -9.7419356668754791 -1.6334381598481904 #
plane-surface $-1 40.078127384258551 0 0 -1 0 0 0 0 1 forward_v I I I I #
coedge $-1 $523 $346 $347 $434 reversed $269 $-1 #
coedge $-1 $346 $523 $359 $443 reversed $269 $-1 #
edge $-1 $441 -9.9669687893453087 $524 9.9669687893453087 $356 $525 forward 7 unknown #
coedge $-1 $348 $347 $352 $439 forward $193 $-1 #
edge $-1 $436 -40.078127384258551 $524 40.078127384258551 $430 $526 forward 7 unknown #
coedge $-1 $349 $360 $523 $527 forward $362 $-1 #
vertex $-1 $527 $528 #
straight-curve $-1 40.078127384258551 0 -9.9669687893453087 0 -1 0 I I #
straight-curve $-1 0 20.585678125187695 -9.9669687893453087 1 0 0 I I #
edge $-1 $524 -20.585678125187695 $353 20.585678125187695 $352 $529 forward 7 unknown #
point $-1 -40.078127384258551 20.585678125187695 -9.9669687893453087 #
vertex $-1 $357 $530 #
straight-curve $-1 -40.078127384258551 0 9.9669687893453087 0 -1 0 I I #
edge $-1 $441 -40.078127384258551 $444 40.078127384258551 $431 $531 forward 7 unknown #
vertex $-1 $361 $532 #
straight-curve $-1 40.078127384258551 0 9.9669687893453087 0 1 0 I I #
point $-1 40.078127384258551 20.585678125187695 -9.9669687893453087 #
face $-1 $533 $534 $17 $-1 $535 reversed single #
loop $-1 $-1 $536 $366 #
plane-surface $-1 0 -20.585678125187695 0 0 1 0 0 0 1 forward_v I I I I #
coedge $-1 $537 $538 $539 $540 forward $367 $-1 #
coedge $-1 $369 $378 $538 $541 reversed $211 $-1 #
coedge $-1 $542 $456 $369 $453 forward $534 $-1 #
edge $-1 $454 -2.494262851887862 $543 9.9669687893453087 $369 $544 forward 7 unknown #
vertex $-1 $453 $545 #
straight-curve $-1 -17.282568688633859 20.585678125187698 2.4942628518878625 1 0 0 I I #
coedge $-1 $452 $546 $371 $457 forward $534 $-1 #
edge $-1 $547 15.058063876769539 $454 28.421441333736837 $456 $548 forward 7 unknown #
edge $-1 $373 11.769578681643029 $547 22.795558695624692 $375 $549 forward 7 unknown #
point $-1 -29.052147370276888 9.5069361826352825 9.9669687893453087 #
coedge $-1 $550 $375 $546 $551 forward $289 $-1 #
coedge $-1 $376 $550 $552 $553 forward $289 $-1 #
coedge $-1 $552 $539 $378 $463 reversed $554 $-1 #
edge $-1 $464 -9.9669687893453087 $555 9.9669687893453087 $462 $556 forward 7 unknown #
vertex $-1 $553 $557 #
straight-curve $-1 0 20.585678125187695 9.9669687893453087 -1 0 0 I I #
face $-1 $558 $497 $18 $-1 $559 reversed single #
loop $-1 $478 $389 $383 #
plane-surface $-1 -34.565137377267718 -13.546922917596536 25.516993392582847 0 0.55919291073839883 0.82903756765294845 1 0 0 forward_v I I I I #
coedge $-1 $560 $474 $496 $561 reversed $384 $-1 #
coedge $-1 $470 $470 $-1 $562 forward $386 $-1 #
edge $-1 $563 0 $563 6.2831853071796004 $387 $564 forward 7 unknown #
vertex $-1 $390 $565 #
ellipse-curve $-1 -34.565137377267718 15.046307153911489 6.2306158206165847 0 -0.55919291073839883 -0.82903756765294845 2.5 0 0 1 I I #
coedge $-1 $469 $560 $391 $475 reversed $384 $-1 #
edge $-1 $498 -4.9477348750380923 $479 6.1310070675143198 $391 $566 forward 7 unknown #
coedge $-1 $567 $392 $560 $568 reversed $478 $-1 #
coedge $-1 $392 $567 $394 $482 reversed $478 $-1 #
loop $-1 $-1 $567 $383 #
vertex $-1 $393 $569 #
straight-curve $-1 -17.282568688633859 9.5069361826352825 9.9669687893453069 -1 0 0 I I #
coedge $-1 $398 $394 $570 $571 forward $313 $-1 #
edge $-1 $395 15.058063876769539 $572 28.421441333736837 $394 $573 forward 7 unknown #
point $-1 -40.078127384258551 9.5069361826352825 9.9669687893453087 #
coedge $-1 $574 $490 $398 $485 forward $575 $-1 #
edge $-1 $486 -20.585678125187695 $576 20.585678125187695 $398 $577 forward 7 unknown #
vertex $-1 $485 $578 #
straight-curve $-1 -40.078127384258551 -20.585678125187695 0 0 0 -1 I I #
face $-1 $-1 $408 $18 $-1 $579 reversed single #
plane-surface $-1 -40.078127384258551 0 0 1 0 0 0 0 -1 forward_v I I I I #
coedge $-1 $484 $580 $402 $491 forward $575 $-1 #
edge $-1 $493 -40.078127384258551 $486 40.078127384258551 $402 $581 forward 7 unknown #
coedge $-1 $407 $403 $580 $582 reversed $408 $-1 #
vertex $-1 $404 $583 #
straight-curve $-1 40.078127384258551 -20.585678125187695 0 0 0 -1 I I #
coedge $-1 $584 $405 $407 $500 forward $497 $-1 #
coedge $-1 $405 $585 $469 $561 forward $497 $-1 #
loop $-1 $-1 $585 $466 #
vertex $-1 $475 $586 #
straight-curve $-1 0 20.585678125187695 9.9669687893453087 -1 0 0 I I #
edge $-1 $409 -9.9669687893453087 $587 9.9669687893453087 $407 $588 forward 7 unknown #
point $-1 40.078127384258551 20.585678125187695 9.9669687893453087 #
face $-1 $589 $590 $19 $-1 $591 forward single #
loop $-1 $592 $593 $412 #
cone-surface $-1 -34.565137377267718 10.440926805298474 -0.5971412002820049 0 -0.55919291073839883 -0.82903756765294845 1.25 0 0 1 I I -0.70710678118654746 0.70710678118654746 1.25 forward I I I I #
loop $-1 $-1 $594 $325 #
coedge $-1 $506 $506 $595 $596 reversed $413 $-1 #
coedge $-1 $415 $597 $598 $599 forward $241 $-1 #
coedge $-1 $600 $512 $415 $509 reversed $601 $-1 #
edge $-1 $602 -9.5069361826352825 $510 9.5069361826353145 $508 $603 forward 7 unknown #
vertex $-1 $513 $604 #
straight-curve $-1 -17.282568688633859 -9.5069361826353145 9.9669687893453087 1 0 0 I I #
coedge $-1 $508 $605 $417 $513 forward $601 $-1 #
edge $-1 $606 -7.8357632085491327 $510 5.5276142484181259 $512 $607 forward 7 unknown #
edge $-1 $419 11.769578681643029 $606 22.795558695624692 $421 $608 forward 7 unknown #
point $-1 -29.052147370276888 -20.585678125187695 2.4942628518878842 #
coedge $-1 $609 $421 $605 $610 forward $326 $-1 #
coedge $-1 $422 $609 $611 $612 reversed $326 $-1 #
coedge $-1 $597 $424 $613 $614 forward $241 $-1 #
coedge $-1 $611 $615 $424 $520 reversed $616 $-1 #
edge $-1 $521 -20.585678125187695 $617 20.585678125187695 $519 $618 forward 7 unknown #
vertex $-1 $520 $619 #
straight-curve $-1 0 -20.585678125187695 9.9669687893453087 1 0 0 I I #
coedge $-1 $431 $430 $435 $527 reversed $269 $-1 #
vertex $-1 $439 $620 #
straight-curve $-1 -40.078127384258551 -20.585678125187695 0 0 0 -1 I I #
straight-curve $-1 0 -20.585678125187695 -9.9669687893453087 -1 0 0 I I #
edge $-1 $444 -9.9669687893453087 $436 9.9669687893453087 $435 $621 forward 7 unknown #
point $-1 40.078127384258551 -20.585678125187695 -9.9669687893453087 #
straight-curve $-1 -40.078127384258551 0 -9.9669687893453087 0 1 0 I I #
point $-1 -40.078127384258551 -20.585678125187695 9.9669687893453087 #
straight-curve $-1 0 -20.585678125187695 9.9669687893453087 1 0 0 I I #
point $-1 40.078127384258551 -20.585678125187695 9.9669687893453087 #
face $-1 $-1 $554 $17 $-1 $622 reversed single #
loop $-1 $-1 $456 $447 #
plane-surface $-1 -40.078127384258551 0 0 1 0 0 0 0 -1 forward_v I I I I #
coedge $-1 $623 $624 $625 $626 forward $448 $-1 #
coedge $-1 $627 $450 $623 $628 forward $367 $-1 #
coedge $-1 $450 $627 $451 $541 forward $367 $-1 #
coedge $-1 $462 $629 $450 $540 reversed $554 $-1 #
edge $-1 $555 -20.585678125187695 $630 20.585678125187695 $539 $631 forward 7 unknown #
edge $-1 $543 -40.078127384258551 $555 40.078127384258551 $451 $632 forward 7 unknown #
coedge $-1 $625 $452 $627 $633 reversed $534 $-1 #
vertex $-1 $541 $634 #
straight-curve $-1 -40.078127384258551 20.585678125187695 0 0 0 -1 I I #
point $-1 -40.078127384258551 20.585678125187695 2.494262851887862 #
coedge $-1 $456 $625 $460 $551 reversed $534 $-1 #
vertex $-1 $551 $635 #
straight-curve $-1 -40.078127384258551 -2.9767644673244638 18.387331358680804 0 0.82903756765294845 -0.55919291073839883 I I #
straight-curve $-1 -17.282568688633859 9.5069361826352825 9.9669687893453069 -1 0 0 I I #
coedge $-1 $461 $460 $624 $636 forward $289 $-1 #
edge $-1 $547 -9.5069361826352825 $637 20.585678125187695 $546 $638 forward 7 unknown #
coedge $-1 $629 $462 $461 $553 reversed $554 $-1 #
edge $-1 $639 -20.585678125187695 $464 20.585678125187695 $552 $640 forward 7 unknown #
loop $-1 $-1 $629 $533 #
vertex $-1 $540 $641 #
straight-curve $-1 40.078127384258551 20.585678125187695 0 0 0 -1 I I #
point $-1 40.078127384258551 20.585678125187695 9.9669687893453087 #
face $-1 $400 $575 $18 $-1 $642 reversed single #
plane-surface $-1 0 20.585678125187695 0 0 -1 0 0 0 -1 forward_v I I I I #
coedge $-1 $474 $469 $476 $568 forward $384 $-1 #
edge $-1 $643 -43.49050708713429 $498 -36.017801149676849 $496 $644 forward 7 unknown #
edge $-1 $645 1 $645 0 $470 $-1 forward 7 unknown #
vertex $-1 $471 $646 #
ellipse-curve $-1 -34.565137377267718 11.139917943721473 0.4391557592841806 0 0.55919291073839883 0.82903756765294845 2.5 0 0 1 I I #
point $-1 -32.065137377267718 15.046307153911492 6.2306158206165891 #
straight-curve $-1 -29.052147370276888 15.637943250149602 9.9669687893453087 0 -1 0 I I #
coedge $-1 $477 $476 $585 $647 reversed $478 $-1 #
edge $-1 $643 -41.171356250375389 $479 -27.80797879340809 $560 $648 forward 7 unknown #
point $-1 -29.052147370276888 9.5069361826352825 9.9669687893453087 #
coedge $-1 $585 $584 $481 $571 reversed $497 $-1 #
edge $-1 $572 -2.494262851887862 $576 9.9669687893453087 $570 $649 forward 7 unknown #
vertex $-1 $571 $650 #
straight-curve $-1 -40.078127384258551 -2.9767644673244638 18.387331358680804 0 0.82903756765294845 -0.55919291073839883 I I #
coedge $-1 $580 $484 $584 $651 forward $575 $-1 #
loop $-1 $-1 $580 $558 #
vertex $-1 $651 $652 #
straight-curve $-1 -40.078127384258551 0 -9.9669687893453087 0 1 0 I I #
point $-1 -40.078127384258551 -20.585678125187695 -9.9669687893453087 #
plane-surface $-1 40.078127384258551 0 0 -1 0 0 0 0 1 forward_v I I I I #
coedge $-1 $490 $574 $492 $582 forward $575 $-1 #
straight-curve $-1 0 -20.585678125187695 -9.9669687893453087 -1 0 0 I I #
edge $-1 $587 -20.585678125187695 $493 20.585678125187695 $492 $653 forward 7 unknown #
point $-1 40.078127384258551 -20.585678125187695 -9.9669687893453087 #
coedge $-1 $570 $495 $574 $651 reversed $497 $-1 #
coedge $-1 $496 $570 $567 $647 forward $497 $-1 #
point $-1 -29.052147370276888 20.585678125187695 9.9669687893453087 #
vertex $-1 $582 $654 #
straight-curve $-1 40.078127384258551 20.585678125187695 0 0 0 -1 I I #
face $-1 $655 $656 $19 $-1 $657 forward single #
loop $-1 $-1 $658 $502 #
plane-surface $-1 -29.052147370276888 31.275886500299205 91.969539878044316 -1 0 0 0 0.55919291073839883 0.82903756765294845 forward_v I I I I #
loop $-1 $-1 $659 $412 #
coedge $-1 $593 $593 $594 $660 forward $503 $-1 #
coedge $-1 $594 $594 $593 $660 reversed $505 $-1 #
coedge $-1 $595 $595 $506 $596 forward $656 $-1 #
edge $-1 $661 -1.8480709120176177e-016 $661 6.2831853071796004 $595 $662 forward 7 unknown #
coedge $-1 $507 $518 $663 $664 forward $241 $-1 #
coedge $-1 $665 $666 $507 $599 reversed $667 $-1 #
edge $-1 $668 11.769578681643029 $602 22.795558695624692 $507 $669 forward 7 unknown #
coedge $-1 $670 $508 $666 $671 forward $601 $-1 #
loop $-1 $-1 $512 $672 #
vertex $-1 $509 $673 #
straight-curve $-1 -40.078127384258551 0 9.9669687893453087 0 -1 0 I I #
point $-1 -40.078127384258551 -9.5069361826353145 9.9669687893453087 #
coedge $-1 $512 $674 $516 $610 reversed $601 $-1 #
vertex $-1 $610 $675 #
straight-curve $-1 -40.078127384258551 -14.089536054067658 6.8759660883333282 0 0.82903756765294845 0.55919291073839883 I I #
straight-curve $-1 -17.282568688633859 -20.585678125187695 2.4942628518878855 -1 0 0 I I #
coedge $-1 $517 $516 $676 $677 reversed $326 $-1 #
edge $-1 $606 -2.4942628518878842 $678 9.9669687893453087 $605 $679 forward 7 unknown #
coedge $-1 $680 $519 $517 $612 forward $616 $-1 #
edge $-1 $521 -9.9669687893453087 $681 9.9669687893453087 $611 $682 forward 7 unknown #
coedge $-1 $683 $684 $518 $614 reversed $685 $-1 #
edge $-1 $617 -40.078127384258551 $686 29.052147370276888 $613 $687 forward 7 unknown #
coedge $-1 $519 $680 $683 $688 reversed $616 $-1 #
loop $-1 $-1 $611 $689 #
vertex $-1 $520 $690 #
straight-curve $-1 40.078127384258551 0 9.9669687893453087 0 1 0 I I #
point $-1 40.078127384258551 -20.585678125187695 9.9669687893453087 #
point $-1 -40.078127384258551 -20.585678125187695 -9.9669687893453087 #
straight-curve $-1 40.078127384258551 -20.585678125187695 0 0 0 -1 I I #
plane-surface $-1 40.078127384258551 0 0 -1 0 0 0 0 1 forward_v I I I I #
coedge $-1 $691 $536 $537 $628 reversed $448 $-1 #
coedge $-1 $536 $691 $550 $636 reversed $448 $-1 #
coedge $-1 $546 $542 $536 $626 reversed $534 $-1 #
edge $-1 $637 -9.9669687893453087 $692 9.9669687893453087 $625 $693 forward 7 unknown #
coedge $-1 $538 $537 $542 $633 forward $367 $-1 #
edge $-1 $630 -40.078127384258551 $692 40.078127384258551 $623 $694 forward 7 unknown #
coedge $-1 $539 $552 $691 $695 forward $554 $-1 #
vertex $-1 $695 $696 #
straight-curve $-1 40.078127384258551 0 -9.9669687893453087 0 -1 0 I I #
straight-curve $-1 0 20.585678125187695 -9.9669687893453087 1 0 0 I I #
edge $-1 $692 -20.585678125187695 $543 20.585678125187695 $542 $697 forward 7 unknown #
point $-1 -40.078127384258551 20.585678125187695 -9.9669687893453087 #
point $-1 -40.078127384258551 9.5069361826352825 9.9669687893453087 #
edge $-1 $637 -40.078127384258551 $639 40.078127384258551 $624 $698 forward 7 unknown #
vertex $-1 $551 $699 #
straight-curve $-1 -40.078127384258551 0 9.9669687893453087 0 -1 0 I I #
vertex $-1 $553 $700 #
straight-curve $-1 40.078127384258551 0 9.9669687893453087 0 1 0 I I #
point $-1 40.078127384258551 20.585678125187695 -9.9669687893453087 #
plane-surface $-1 0 0 -9.9669687893453087 0 0 1 1 0 0 forward_v I I I I #
vertex $-1 $647 $701 #
straight-curve $-1 -29.052147370276888 20.585678125187695 45.984769939022158 0 0 1 I I #
vertex $-1 $562 $702 #
point $-1 -32.065137377267718 11.139917943721473 0.4391557592841806 #
edge $-1 $572 -22.795558695624692 $643 -11.769578681643029 $585 $703 forward 7 unknown #
straight-curve $-1 -29.052147370276888 -13.546922917596536 25.516993392582847 0 -0.82903756765294845 0.55919291073839883 I I #
straight-curve $-1 -40.078127384258551 20.585678125187695 0 0 0 -1 I I #
point $-1 -40.078127384258551 20.585678125187695 2.494262851887862 #
edge $-1 $576 -40.078127384258551 $587 40.078127384258551 $584 $704 forward 7 unknown #
point $-1 -40.078127384258551 20.585678125187695 -9.9669687893453087 #
straight-curve $-1 40.078127384258551 0 -9.9669687893453087 0 -1 0 I I #
point $-1 40.078127384258551 20.585678125187695 -9.9669687893453087 #
face $-1 $705 $685 $19 $-1 $706 reversed single #
loop $-1 $667 $595 $589 #
plane-surface $-1 -34.565137377267718 -13.546922917596536 25.516993392582847 0 0.55919291073839883 0.82903756765294845 1 0 0 forward_v I I I I #
coedge $-1 $707 $663 $684 $708 reversed $590 $-1 #
coedge $-1 $659 $659 $-1 $709 forward $592 $-1 #
edge $-1 $710 0 $710 6.2831853071796004 $593 $711 forward 7 unknown #
vertex $-1 $596 $712 #
ellipse-curve $-1 -34.565137377267718 15.046307153911489 6.2306158206165847 0 -0.55919291073839883 -0.82903756765294845 2.5 0 0 1 I I #
coedge $-1 $658 $707 $597 $664 reversed $590 $-1 #
edge $-1 $686 -4.9477348750380923 $668 6.1310070675143198 $597 $713 forward 7 unknown #
coedge $-1 $714 $598 $707 $715 reversed $667 $-1 #
coedge $-1 $598 $714 $600 $671 reversed $667 $-1 #
loop $-1 $-1 $714 $589 #
vertex $-1 $599 $716 #
straight-curve $-1 -17.282568688633859 9.5069361826352825 9.9669687893453069 -1 0 0 I I #
coedge $-1 $674 $600 $717 $718 forward $601 $-1 #
edge $-1 $602 15.058063876769539 $719 28.421441333736837 $600 $720 forward 7 unknown #
face $-1 $689 $601 $19 $-1 $721 reversed single #
point $-1 -40.078127384258551 9.5069361826352825 9.9669687893453087 #
coedge $-1 $605 $670 $722 $723 reversed $601 $-1 #
point $-1 -40.078127384258551 -20.585678125187695 2.4942628518878842 #
coedge $-1 $722 $724 $609 $677 forward $725 $-1 #
edge $-1 $681 -40.078127384258551 $678 40.078127384258551 $609 $726 forward 7 unknown #
vertex $-1 $723 $727 #
straight-curve $-1 -40.078127384258551 -20.585678125187695 0 0 0 -1 I I #
coedge $-1 $615 $611 $724 $728 reversed $616 $-1 #
vertex $-1 $612 $729 #
straight-curve $-1 40.078127384258551 -20.585678125187695 0 0 0 -1 I I #
coedge $-1 $730 $613 $615 $688 forward $685 $-1 #
coedge $-1 $613 $731 $658 $708 forward $685 $-1 #
loop $-1 $-1 $731 $655 #
vertex $-1 $664 $732 #
straight-curve $-1 0 20.585678125187695 9.9669687893453087 -1 0 0 I I #
edge $-1 $617 -9.9669687893453087 $733 9.9669687893453087 $615 $734 forward 7 unknown #
face $-1 $-1 $616 $19 $-1 $735 reversed single #
point $-1 40.078127384258551 20.585678125187695 9.9669687893453087 #
coedge $-1 $624 $623 $629 $695 reversed $448 $-1 #
vertex $-1 $633 $736 #
straight-curve $-1 -40.078127384258551 -20.585678125187695 0 0 0 -1 I I #
straight-curve $-1 0 -20.585678125187695 -9.9669687893453087 -1 0 0 I I #
edge $-1 $639 -9.9669687893453087 $630 9.9669687893453087 $629 $737 forward 7 unknown #
point $-1 40.078127384258551 -20.585678125187695 -9.9669687893453087 #
straight-curve $-1 -40.078127384258551 0 -9.9669687893453087 0 1 0 I I #
straight-curve $-1 0 -20.585678125187695 9.9669687893453087 1 0 0 I I #
point $-1 -40.078127384258551 -20.585678125187695 9.9669687893453087 #
point $-1 40.078127384258551 -20.585678125187695 9.9669687893453087 #
point $-1 -29.052147370276888 20.585678125187695 2.4942628518878642 #
point $-1 -34.565137377267718 9.7419356668754755 -1.6334381598481904 #
straight-curve $-1 -17.282568688633859 20.585678125187698 2.4942628518878625 1 0 0 I I #
straight-curve $-1 0 20.585678125187695 -9.9669687893453087 1 0 0 I I #
face $-1 $672 $725 $19 $-1 $738 reversed single #
plane-surface $-1 0 20.585678125187695 0 0 -1 0 0 0 -1 forward_v I I I I #
coedge $-1 $663 $658 $665 $715 forward $590 $-1 #
edge $-1 $739 -43.49050708713429 $686 -36.017801149676849 $684 $740 forward 7 unknown #
edge $-1 $741 1 $741 0 $659 $-1 forward 7 unknown #
vertex $-1 $660 $742 #
ellipse-curve $-1 -34.565137377267718 11.139917943721473 0.4391557592841806 0 0.55919291073839883 0.82903756765294845 2.5 0 0 1 I I #
point $-1 -32.065137377267718 15.046307153911492 6.2306158206165891 #
straight-curve $-1 -29.052147370276888 15.637943250149602 9.9669687893453087 0 -1 0 I I #
coedge $-1 $666 $665 $731 $743 reversed $667 $-1 #
edge $-1 $739 -41.171356250375389 $668 -27.80797879340809 $707 $744 forward 7 unknown #
point $-1 -29.052147370276888 9.5069361826352825 9.9669687893453087 #
coedge $-1 $731 $730 $670 $718 reversed $685 $-1 #
edge $-1 $719 -2.494262851887862 $745 9.9669687893453087 $717 $746 forward 7 unknown #
vertex $-1 $718 $747 #
straight-curve $-1 -40.078127384258551 -2.9767644673244638 18.387331358680804 0 0.82903756765294845 -0.55919291073839883 I I #
plane-surface $-1 -40.078127384258551 0 0 1 0 0 0 0 -1 forward_v I I I I #
coedge $-1 $748 $676 $674 $723 forward $725 $-1 #
edge $-1 $678 -20.585678125187695 $745 20.585678125187695 $674 $749 forward 7 unknown #
coedge $-1 $676 $748 $680 $728 forward $725 $-1 #
loop $-1 $-1 $724 $705 #
straight-curve $-1 0 -20.585678125187695 -9.9669687893453087 -1 0 0 I I #
point $-1 -40.078127384258551 -20.585678125187695 -9.9669687893453087 #
edge $-1 $733 -20.585678125187695 $681 20.585678125187695 $680 $750 forward 7 unknown #
point $-1 40.078127384258551 -20.585678125187695 -9.9669687893453087 #
coedge $-1 $717 $683 $748 $751 reversed $685 $-1 #
coedge $-1 $684 $717 $714 $743 forward $685 $-1 #
point $-1 -29.052147370276888 20.585678125187695 9.9669687893453087 #
vertex $-1 $728 $752 #
straight-curve $-1 40.078127384258551 20.585678125187695 0 0 0 -1 I I #
plane-surface $-1 40.078127384258551 0 0 -1 0 0 0 0 1 forward_v I I I I #
point $-1 -40.078127384258551 -20.585678125187695 -9.9669687893453087 #
straight-curve $-1 40.078127384258551 -20.585678125187695 0 0 0 -1 I I #
plane-surface $-1 0 0 -9.9669687893453087 0 0 1 1 0 0 forward_v I I I I #
vertex $-1 $743 $753 #
straight-curve $-1 -29.052147370276888 20.585678125187695 45.984769939022158 0 0 1 I I #
vertex $-1 $709 $754 #
point $-1 -32.065137377267718 11.139917943721473 0.4391557592841806 #
edge $-1 $719 -22.795558695624692 $739 -11.769578681643029 $731 $755 forward 7 unknown #
straight-curve $-1 -29.052147370276888 -13.546922917596536 25.516993392582847 0 -0.82903756765294845 0.55919291073839883 I I #
vertex $-1 $751 $756 #
straight-curve $-1 -40.078127384258551 20.585678125187695 0 0 0 -1 I I #
point $-1 -40.078127384258551 20.585678125187695 2.494262851887862 #
coedge $-1 $724 $722 $730 $751 forward $725 $-1 #
straight-curve $-1 -40.078127384258551 0 -9.9669687893453087 0 1 0 I I #
straight-curve $-1 40.078127384258551 0 -9.9669687893453087 0 -1 0 I I #
edge $-1 $745 -40.078127384258551 $733 40.078127384258551 $730 $757 forward 7 unknown #
point $-1 40.078127384258551 20.585678125187695 -9.9669687893453087 #
point $-1 -29.052147370276888 20.585678125187695 2.4942628518878642 #
point $-1 -34.565137377267718 9.7419356668754755 -1.6334381598481904 #
straight-curve $-1 -17.282568688633859 20.585678125187698 2.4942628518878625 1 0 0 I I #
point $-1 -40.078127384258551 20.585678125187695 -9.9669687893453087 #
straight-curve $-1 0 20.585678125187695 -9.9669687893453087 1 0 0 I I #
End-of-ACIS-data 