500 0 3 0           
7 Unknown 11 ACIS 5.0 NT 24 Fri Mar 26 01:20:34 1999 
-1 9.9999999999999995e-007 1e-010 
body $-1 $3 $-1 $4 #
body $-1 $5 $-1 $6 #
body $-1 $7 $-1 $8 #
lump $-1 $-1 $9 $0 #
transform $-1 1 0 0 0 1 0 0 0 1 46.101260414441356 25.782207620308171 11.393364248849828 1 rotate no_reflect no_shear #
lump $-1 $-1 $10 $1 #
transform $-1 1 0 0 0 1 0 0 0 1 46.101260414441356 25.782207620308171 11.393364248849828 1 rotate no_reflect no_shear #
lump $-1 $-1 $11 $2 #
transform $-1 1 0 0 0 1 0 0 0 1 46.101260414441356 25.782207620308171 11.393364248849828 1 rotate no_reflect no_shear #
shell $-1 $-1 $-1 $12 $-1 $3 #
shell $-1 $-1 $-1 $13 $-1 $5 #
shell $-1 $-1 $-1 $14 $-1 $7 #
face $-1 $15 $16 $9 $-1 $17 reversed single #
face $-1 $18 $19 $10 $-1 $20 forward single #
face $-1 $21 $22 $11 $-1 $23 forward single #
face $-1 $24 $25 $9 $-1 $26 forward single #
loop $-1 $-1 $27 $12 #
plane-surface $-1 0 -25.782207620308171 0 0 1 0 0 0 1 forward_v I I I I #
face $-1 $28 $29 $10 $-1 $30 reversed single #
loop $-1 $-1 $31 $13 #
plane-surface $-1 0 -25.782207620308171 0 0 1 0 0 0 1 forward_v I I I I #
face $-1 $32 $33 $11 $-1 $34 reversed single #
loop $-1 $-1 $35 $14 #
plane-surface $-1 0 19.731881617085143 -2.1703451388947812 0 0 1 1 0 0 forward_v I I I I #
face $-1 $36 $37 $9 $-1 $38 reversed single #
loop $-1 $-1 $39 $15 #
plane-surface $-1 0 0 11.393364248849828 0 0 1 1 0 0 forward_v I I I I #
coedge $-1 $40 $41 $42 $43 reversed $16 $-1 #
face $-1 $44 $45 $10 $-1 $46 reversed single #
loop $-1 $-1 $47 $18 #
plane-surface $-1 0 0 -11.393364248849828 0 0 1 1 0 0 forward_v I I I I #
coedge $-1 $48 $49 $50 $51 forward $19 $-1 #
face $-1 $52 $53 $11 $-1 $54 reversed single #
loop $-1 $-1 $55 $21 #
plane-surface $-1 0 19.731881617085143 -5.4280260266011329 0 0 1 1 0 0 forward_v I I I I #
coedge $-1 $56 $57 $58 $59 reversed $22 $-1 #
face $-1 $60 $61 $9 $-1 $62 reversed single #
loop $-1 $-1 $63 $24 #
plane-surface $-1 0 0 -11.393364248849828 0 0 1 1 0 0 forward_v I I I I #
coedge $-1 $64 $65 $66 $67 forward $25 $-1 #
coedge $-1 $68 $27 $69 $70 reversed $16 $-1 #
coedge $-1 $27 $68 $71 $72 forward $16 $-1 #
coedge $-1 $73 $63 $27 $43 forward $37 $-1 #
edge $-1 $74 -46.101260414441356 $75 46.101260414441356 $27 $76 forward 7 unknown #
face $-1 $77 $78 $10 $-1 $79 reversed single #
loop $-1 $-1 $80 $28 #
plane-surface $-1 -25.169174257112807 -38.880671740088957 0 0 1 0 0 0 1 forward_v I I I I #
coedge $-1 $81 $82 $49 $83 forward $29 $-1 #
coedge $-1 $84 $31 $85 $86 reversed $19 $-1 #
coedge $-1 $31 $84 $47 $83 reversed $19 $-1 #
coedge $-1 $87 $88 $31 $51 reversed $78 $-1 #
edge $-1 $89 -11.393364248849828 $90 11.393364248849828 $50 $91 forward 7 unknown #
face $-1 $92 $93 $11 $-1 $94 reversed single #
loop $-1 $-1 $95 $32 #
plane-surface $-1 0 13.681555613862116 -3.799185582747957 0 1 0 0 0 1 forward_v I I I I #
coedge $-1 $96 $97 $98 $99 reversed $33 $-1 #
coedge $-1 $100 $35 $101 $102 reversed $22 $-1 #
coedge $-1 $35 $100 $103 $104 forward $22 $-1 #
coedge $-1 $105 $106 $35 $59 forward $107 $-1 #
edge $-1 $108 -15.916266811765599 $109 -3.8156148053195444 $58 $110 forward 7 unknown #
face $-1 $111 $112 $9 $-1 $113 reversed single #
loop $-1 $-1 $114 $36 #
plane-surface $-1 -46.101260414441356 0 0 1 0 0 0 0 -1 forward_v I I I I #
coedge $-1 $42 $115 $116 $117 forward $37 $-1 #
coedge $-1 $118 $39 $119 $120 forward $25 $-1 #
coedge $-1 $39 $118 $68 $121 forward $25 $-1 #
coedge $-1 $69 $122 $39 $67 reversed $123 $-1 #
edge $-1 $124 -25.782207620308171 $125 25.782207620308171 $66 $126 forward 7 unknown #
coedge $-1 $41 $40 $65 $121 reversed $16 $-1 #
coedge $-1 $116 $66 $40 $70 forward $123 $-1 #
edge $-1 $124 -11.393364248849828 $74 11.393364248849828 $69 $127 forward 7 unknown #
coedge $-1 $128 $129 $41 $72 reversed $61 $-1 #
edge $-1 $130 -11.393364248849828 $75 11.393364248849828 $71 $131 forward 7 unknown #
coedge $-1 $115 $42 $129 $132 forward $37 $-1 #
vertex $-1 $70 $133 #
vertex $-1 $132 $134 #
straight-curve $-1 0 -25.782207620308171 -11.393364248849828 -1 0 0 I I #
face $-1 $135 $136 $10 $-1 $137 reversed single #
loop $-1 $-1 $50 $44 #
plane-surface $-1 -27.023816597483915 -32.331439680198564 0 1 0 0 0 0 -1 forward_v I I I I #
coedge $-1 $138 $139 $140 $141 forward $45 $-1 #
coedge $-1 $142 $47 $143 $144 forward $29 $-1 #
coedge $-1 $47 $142 $87 $145 forward $29 $-1 #
edge $-1 $89 -27.023816597483915 $146 -23.3145319167417 $47 $147 forward 7 unknown #
coedge $-1 $49 $48 $148 $149 forward $19 $-1 #
coedge $-1 $150 $151 $48 $86 forward $152 $-1 #
edge $-1 $153 23.3145319167417 $90 27.023816597483915 $85 $154 forward 7 unknown #
coedge $-1 $140 $50 $82 $145 reversed $78 $-1 #
coedge $-1 $50 $140 $150 $155 reversed $78 $-1 #
vertex $-1 $83 $156 #
vertex $-1 $155 $157 #
straight-curve $-1 -27.023816597483915 -25.782207620308171 0 0 0 1 I I #
face $-1 $158 $107 $11 $-1 $159 reversed single #
loop $-1 $-1 $101 $52 #
plane-surface $-1 0 25.782207620308171 0 0 -1 0 0 0 -1 forward_v I I I I #
coedge $-1 $160 $103 $161 $162 reversed $53 $-1 #
coedge $-1 $163 $55 $160 $164 forward $33 $-1 #
coedge $-1 $55 $163 $165 $166 reversed $33 $-1 #
coedge $-1 $106 $105 $55 $99 forward $107 $-1 #
edge $-1 $167 3.8156148053195444 $168 15.916266811765599 $98 $169 forward 7 unknown #
coedge $-1 $57 $56 $170 $171 reversed $22 $-1 #
coedge $-1 $172 $173 $56 $102 forward $93 $-1 #
edge $-1 $174 -46.101260414441356 $108 46.101260414441356 $101 $175 forward 7 unknown #
coedge $-1 $95 $176 $57 $104 reversed $53 $-1 #
edge $-1 $177 -46.101260414441356 $109 46.101260414441356 $103 $178 forward 7 unknown #
coedge $-1 $98 $58 $176 $179 forward $107 $-1 #
coedge $-1 $58 $98 $172 $180 reversed $107 $-1 #
loop $-1 $-1 $58 $92 #
vertex $-1 $180 $181 #
vertex $-1 $59 $182 #
straight-curve $-1 46.101260414441356 9.8659408085425717 -2.1703451388947812 0 -1 0 I I #
face $-1 $-1 $123 $9 $-1 $183 reversed single #
loop $-1 $-1 $184 $60 #
plane-surface $-1 0 25.782207620308171 0 0 -1 0 0 0 -1 forward_v I I I I #
coedge $-1 $129 $128 $185 $186 forward $61 $-1 #
coedge $-1 $63 $73 $187 $188 forward $37 $-1 #
coedge $-1 $122 $69 $63 $117 reversed $123 $-1 #
edge $-1 $189 -25.782207620308171 $74 25.782207620308171 $116 $190 forward 7 unknown #
coedge $-1 $65 $64 $128 $191 forward $25 $-1 #
coedge $-1 $184 $185 $64 $120 reversed $112 $-1 #
edge $-1 $125 -46.101260414441356 $192 46.101260414441356 $119 $193 forward 7 unknown #
edge $-1 $130 -46.101260414441356 $124 46.101260414441356 $68 $194 forward 7 unknown #
coedge $-1 $66 $116 $184 $195 reversed $123 $-1 #
loop $-1 $-1 $69 $111 #
vertex $-1 $67 $196 #
vertex $-1 $67 $197 #
straight-curve $-1 46.101260414441356 0 11.393364248849828 0 1 0 I I #
straight-curve $-1 46.101260414441356 -25.782207620308171 0 0 0 -1 I I #
coedge $-1 $114 $71 $118 $191 reversed $61 $-1 #
coedge $-1 $71 $114 $73 $132 reversed $61 $-1 #
vertex $-1 $191 $198 #
straight-curve $-1 -46.101260414441356 -25.782207620308171 0 0 0 -1 I I #
edge $-1 $75 -25.782207620308171 $199 25.782207620308171 $129 $200 forward 7 unknown #
point $-1 46.101260414441356 -25.782207620308171 -11.393364248849828 #
point $-1 -46.101260414441356 -25.782207620308171 -11.393364248849828 #
face $-1 $-1 $152 $10 $-1 $201 forward single #
loop $-1 $-1 $202 $77 #
plane-surface $-1 -23.3145319167417 -32.331439680198564 0 -1 0 0 0 0 1 forward_v I I I I #
coedge $-1 $203 $80 $142 $204 reversed $45 $-1 #
coedge $-1 $80 $203 $205 $206 reversed $45 $-1 #
coedge $-1 $88 $87 $80 $141 reversed $78 $-1 #
edge $-1 $207 -11.393364248849828 $208 11.393364248849828 $140 $209 forward 7 unknown #
coedge $-1 $82 $81 $138 $204 forward $29 $-1 #
coedge $-1 $148 $202 $81 $144 reversed $136 $-1 #
edge $-1 $146 -6.549232059890393 $210 6.549232059890393 $143 $211 forward 7 unknown #
edge $-1 $208 -6.549232059890393 $89 6.549232059890393 $87 $212 forward 7 unknown #
vertex $-1 $144 $213 #
straight-curve $-1 0 -25.782207620308171 -11.393364248849828 1 0 0 I I #
coedge $-1 $214 $143 $84 $149 reversed $136 $-1 #
edge $-1 $153 -11.393364248849828 $146 11.393364248849828 $148 $215 forward 7 unknown #
coedge $-1 $205 $85 $88 $155 forward $152 $-1 #
coedge $-1 $85 $205 $214 $216 forward $152 $-1 #
loop $-1 $-1 $85 $135 #
vertex $-1 $86 $217 #
straight-curve $-1 0 -25.782207620308171 11.393364248849828 -1 0 0 I I #
edge $-1 $90 -6.549232059890393 $207 6.549232059890393 $88 $218 forward 7 unknown #
point $-1 -27.023816597483915 -25.782207620308171 -11.393364248849828 #
point $-1 -27.023816597483915 -25.782207620308171 11.393364248849828 #
face $-1 $-1 $219 $11 $-1 $220 reversed single #
plane-surface $-1 46.101260414441356 0 0 -1 0 0 0 0 1 forward_v I I I I #
coedge $-1 $176 $95 $96 $164 reversed $53 $-1 #
coedge $-1 $170 $221 $95 $162 forward $219 $-1 #
edge $-1 $222 -3.5284332352271544 $177 -0.27075234752080268 $161 $223 forward 7 unknown #
coedge $-1 $97 $96 $221 $224 reversed $33 $-1 #
edge $-1 $167 -46.101260414441356 $222 46.101260414441356 $160 $225 forward 7 unknown #
coedge $-1 $173 $172 $97 $166 forward $93 $-1 #
edge $-1 $168 -46.101260414441356 $226 46.101260414441356 $165 $227 forward 7 unknown #
vertex $-1 $99 $228 #
vertex $-1 $99 $229 #
straight-curve $-1 46.101260414441356 9.8659408085425717 -5.4280260266011329 0 1 0 I I #
coedge $-1 $230 $161 $100 $171 forward $219 $-1 #
edge $-1 $177 3.8156148053195444 $174 15.916266811765599 $170 $231 forward 7 unknown #
coedge $-1 $165 $101 $106 $180 forward $93 $-1 #
coedge $-1 $101 $165 $230 $232 reversed $93 $-1 #
vertex $-1 $232 $233 #
straight-curve $-1 0 25.782207620308171 -2.1703451388947812 1 0 0 I I #
coedge $-1 $103 $160 $105 $179 reversed $53 $-1 #
vertex $-1 $171 $234 #
straight-curve $-1 0 13.681555613862116 -2.1703451388947812 1 0 0 I I #
edge $-1 $109 0.27075234752080268 $167 3.5284332352271544 $105 $235 forward 7 unknown #
edge $-1 $108 2.1703451388947812 $168 5.4280260266011329 $106 $236 forward 7 unknown #
point $-1 46.101260414441356 25.782207620308171 -2.1703451388947812 #
point $-1 46.101260414441356 13.681555613862116 -2.1703451388947812 #
plane-surface $-1 46.101260414441356 0 0 -1 0 0 0 0 1 forward_v I I I I #
coedge $-1 $187 $119 $122 $195 forward $112 $-1 #
coedge $-1 $119 $187 $114 $186 reversed $112 $-1 #
edge $-1 $192 -11.393364248849828 $199 11.393364248849828 $185 $237 forward 7 unknown #
coedge $-1 $185 $184 $115 $188 reversed $112 $-1 #
edge $-1 $199 -46.101260414441356 $189 46.101260414441356 $187 $238 forward 7 unknown #
vertex $-1 $117 $239 #
straight-curve $-1 46.101260414441356 0 -11.393364248849828 0 -1 0 I I #
edge $-1 $192 -25.782207620308171 $130 25.782207620308171 $128 $240 forward 7 unknown #
vertex $-1 $120 $241 #
straight-curve $-1 0 25.782207620308171 11.393364248849828 -1 0 0 I I #
straight-curve $-1 0 -25.782207620308171 11.393364248849828 1 0 0 I I #
edge $-1 $125 -11.393364248849828 $189 11.393364248849828 $122 $242 forward 7 unknown #
point $-1 46.101260414441356 -25.782207620308171 11.393364248849828 #
point $-1 46.101260414441356 25.782207620308171 11.393364248849828 #
point $-1 -46.101260414441356 -25.782207620308171 11.393364248849828 #
vertex $-1 $188 $243 #
straight-curve $-1 -46.101260414441356 0 -11.393364248849828 0 1 0 I I #
plane-surface $-1 0 0 11.393364248849828 0 0 1 1 0 0 forward_v I I I I #
coedge $-1 $143 $214 $203 $244 forward $136 $-1 #
coedge $-1 $139 $138 $202 $244 reversed $45 $-1 #
edge $-1 $210 -1.8546423403711074 $208 1.8546423403711074 $138 $245 forward 7 unknown #
coedge $-1 $151 $150 $139 $206 forward $152 $-1 #
edge $-1 $207 -1.8546423403711074 $246 1.8546423403711074 $139 $247 forward 7 unknown #
vertex $-1 $155 $248 #
vertex $-1 $145 $249 #
straight-curve $-1 -27.023816597483915 -38.880671740088957 0 0 0 -1 I I #
vertex $-1 $244 $250 #
straight-curve $-1 -23.3145319167417 -32.331439680198564 -11.393364248849828 0 -1 0 I I #
straight-curve $-1 -27.023816597483915 -32.331439680198564 -11.393364248849828 0 1 0 I I #
point $-1 -23.3145319167417 -25.782207620308171 -11.393364248849828 #
coedge $-1 $202 $148 $151 $216 reversed $136 $-1 #
straight-curve $-1 -23.3145319167417 -25.782207620308171 0 0 0 -1 I I #
edge $-1 $246 -6.549232059890393 $153 6.549232059890393 $214 $251 forward 7 unknown #
point $-1 -23.3145319167417 -25.782207620308171 11.393364248849828 #
straight-curve $-1 -27.023816597483915 -32.331439680198564 11.393364248849828 0 -1 0 I I #
loop $-1 $-1 $170 $158 #
plane-surface $-1 -46.101260414441356 0 0 1 0 0 0 0 -1 forward_v I I I I #
coedge $-1 $161 $230 $163 $224 forward $219 $-1 #
vertex $-1 $224 $252 #
straight-curve $-1 -46.101260414441356 13.681555613862116 -1.8995927913739785 0 0 1 I I #
edge $-1 $226 -15.916266811765599 $222 -3.8156148053195444 $221 $253 forward 7 unknown #
straight-curve $-1 0 13.681555613862116 -5.4280260266011329 -1 0 0 I I #
vertex $-1 $166 $254 #
straight-curve $-1 0 25.782207620308171 -5.4280260266011329 -1 0 0 I I #
point $-1 46.101260414441356 13.681555613862116 -5.4280260266011329 #
point $-1 46.101260414441356 25.782207620308171 -5.4280260266011329 #
coedge $-1 $221 $170 $173 $232 forward $219 $-1 #
straight-curve $-1 -46.101260414441356 9.8659408085425717 -2.1703451388947812 0 1 0 I I #
edge $-1 $174 2.1703451388947812 $226 5.4280260266011329 $173 $255 forward 7 unknown #
point $-1 -46.101260414441356 25.782207620308171 -2.1703451388947812 #
point $-1 -46.101260414441356 13.681555613862116 -2.1703451388947812 #
straight-curve $-1 46.101260414441356 13.681555613862116 -1.8995927913739785 0 0 -1 I I #
straight-curve $-1 46.101260414441356 25.782207620308171 0 0 0 -1 I I #
straight-curve $-1 -46.101260414441356 25.782207620308171 0 0 0 -1 I I #
straight-curve $-1 0 25.782207620308171 -11.393364248849828 1 0 0 I I #
point $-1 46.101260414441356 25.782207620308171 -11.393364248849828 #
straight-curve $-1 -46.101260414441356 0 11.393364248849828 0 -1 0 I I #
point $-1 -46.101260414441356 25.782207620308171 11.393364248849828 #
straight-curve $-1 46.101260414441356 25.782207620308171 0 0 0 -1 I I #
point $-1 -46.101260414441356 25.782207620308171 -11.393364248849828 #
edge $-1 $246 -11.393364248849828 $210 11.393364248849828 $202 $256 forward 7 unknown #
straight-curve $-1 -25.169174257112807 -38.880671740088957 -11.393364248849828 -1 0 0 I I #
vertex $-1 $216 $257 #
straight-curve $-1 -25.169174257112807 -38.880671740088957 11.393364248849828 1 0 0 I I #
point $-1 -27.023816597483915 -38.880671740088957 11.393364248849828 #
point $-1 -27.023816597483915 -38.880671740088957 -11.393364248849828 #
point $-1 -23.3145319167417 -38.880671740088957 -11.393364248849828 #
straight-curve $-1 -23.3145319167417 -32.331439680198564 11.393364248849828 0 1 0 I I #
point $-1 -46.101260414441356 13.681555613862116 -5.4280260266011329 #
straight-curve $-1 -46.101260414441356 9.8659408085425717 -5.4280260266011329 0 -1 0 I I #
point $-1 -46.101260414441356 25.782207620308171 -5.4280260266011329 #
straight-curve $-1 -46.101260414441356 25.782207620308171 0 0 0 -1 I I #
straight-curve $-1 -23.3145319167417 -38.880671740088957 0 0 0 -1 I I #
point $-1 -23.3145319167417 -38.880671740088957 11.393364248849828 #
End-of-ACIS-data 