500 0 15 0           
7 Unknown 11 ACIS 5.0 NT 24 Thu Mar 25 21:37:44 1999 
-1 9.9999999999999995e-007 1e-010 
body $-1 $15 $-1 $16 #
body $-1 $17 $-1 $18 #
body $-1 $19 $-1 $20 #
body $-1 $21 $-1 $22 #
body $-1 $23 $-1 $24 #
body $-1 $25 $-1 $26 #
body $-1 $27 $-1 $28 #
body $-1 $29 $-1 $30 #
body $-1 $31 $-1 $32 #
body $-1 $33 $-1 $34 #
body $-1 $35 $-1 $36 #
body $-1 $37 $-1 $38 #
body $-1 $39 $-1 $40 #
body $-1 $41 $-1 $42 #
body $-1 $43 $-1 $44 #
lump $-1 $-1 $45 $0 #
transform $-1 1 0 0 0 1 0 0 0 1 42.50251777703177 27.143007789752911 7.4191605874246331 1 rotate no_reflect no_shear #
lump $-1 $-1 $46 $1 #
transform $-1 0.83867056331134215 0 0.54463904215088732 0 1 0 -0.54463904215088732 0 0.83867056331134215 -46.297061142167294 48.532105718862454 82.30510518174502 1 rotate no_reflect no_shear #
lump $-1 $-1 $47 $2 #
transform $-1 0.83867056331134215 0 0.54463904215088732 0 -1 0 0.54463904215088732 0 -0.83867056331134215 4.1217893828311842 48.532105718862454 11.113325712424546 1 rotate no_reflect no_shear #
lump $-1 $-1 $48 $3 #
transform $-1 0.81915203911291934 0 -0.57357644374324357 0 1 0 0.57357644374324357 0 0.81915203911291934 64.129873338453933 3.6634366125600257 127.23646265321204 1 rotate no_reflect no_shear #
lump $-1 $-1 $49 $4 #
transform $-1 0.81915203911291934 0 -0.57357644374324357 0 -1 0 -0.57357644374324357 0 -0.81915203911291934 79.68163692997517 2.0933923500343004 10.34975416653235 1 rotate no_reflect no_shear #
lump $-1 $-1 $50 $5 #
transform $-1 0.81915203911291934 0 -0.57357644374324357 0 -1 0 -0.57357644374324357 0 -0.81915203911291934 79.68163692997517 5.2334808750857515 10.34975416653235 1 rotate no_reflect no_shear #
lump $-1 $-1 $51 $6 #
transform $-1 0.81915203911291934 0 -0.57357644374324357 0 1 0 0.57357644374324357 0 0.81915203911291934 64.129873338453933 19.31648406402195 127.23646265321204 1 rotate no_reflect no_shear #
lump $-1 $-1 $52 $7 #
transform $-1 0.81915203911291934 0 -0.57357644374324357 0 -1 0 -0.57357644374324357 0 -0.81915203911291934 79.68163692997517 17.746439801496223 10.34975416653235 1 rotate no_reflect no_shear #
lump $-1 $-1 $53 $8 #
transform $-1 0.81915203911291934 0 -0.57357644374324357 0 -1 0 -0.57357644374324357 0 -0.81915203911291934 79.68163692997517 20.886528326547676 10.34975416653235 1 rotate no_reflect no_shear #
lump $-1 $-1 $54 $9 #
transform $-1 0.81915203911291934 0 -0.57357644374324357 0 1 0 0.57357644374324357 0 0.81915203911291934 64.129873338453933 34.969531515483872 127.23646265321204 1 rotate no_reflect no_shear #
lump $-1 $-1 $55 $10 #
transform $-1 0.81915203911291934 0 -0.57357644374324357 0 -1 0 -0.57357644374324357 0 -0.81915203911291934 79.68163692997517 33.399487252958146 10.34975416653235 1 rotate no_reflect no_shear #
lump $-1 $-1 $56 $11 #
transform $-1 0.81915203911291934 0 -0.57357644374324357 0 -1 0 -0.57357644374324357 0 -0.81915203911291934 79.68163692997517 36.539575778009599 10.34975416653235 1 rotate no_reflect no_shear #
lump $-1 $-1 $57 $12 #
transform $-1 0.81915203911291934 0 -0.57357644374324357 0 1 0 0.57357644374324357 0 0.81915203911291934 64.129873338453933 50.622578966945795 127.23646265321204 1 rotate no_reflect no_shear #
lump $-1 $-1 $58 $13 #
transform $-1 0.81915203911291934 0 -0.57357644374324357 0 -1 0 -0.57357644374324357 0 -0.81915203911291934 79.68163692997517 49.052534704420069 10.34975416653235 1 rotate no_reflect no_shear #
lump $-1 $-1 $59 $14 #
transform $-1 0.81915203911291934 0 -0.57357644374324357 0 -1 0 -0.57357644374324357 0 -0.81915203911291934 79.68163692997517 52.192623229471522 10.34975416653235 1 rotate no_reflect no_shear #
shell $-1 $-1 $-1 $60 $-1 $15 #
shell $-1 $-1 $-1 $61 $-1 $17 #
shell $-1 $-1 $-1 $62 $-1 $19 #
shell $-1 $-1 $-1 $63 $-1 $21 #
shell $-1 $-1 $-1 $64 $-1 $23 #
shell $-1 $-1 $-1 $65 $-1 $25 #
shell $-1 $-1 $-1 $66 $-1 $27 #
shell $-1 $-1 $-1 $67 $-1 $29 #
shell $-1 $-1 $-1 $68 $-1 $31 #
shell $-1 $-1 $-1 $69 $-1 $33 #
shell $-1 $-1 $-1 $70 $-1 $35 #
shell $-1 $-1 $-1 $71 $-1 $37 #
shell $-1 $-1 $-1 $72 $-1 $39 #
shell $-1 $-1 $-1 $73 $-1 $41 #
shell $-1 $-1 $-1 $74 $-1 $43 #
face $-1 $75 $76 $45 $-1 $77 forward single #
face $-1 $78 $79 $46 $-1 $80 forward single #
face $-1 $81 $82 $47 $-1 $83 forward single #
face $-1 $84 $85 $48 $-1 $86 forward single #
face $-1 $87 $88 $49 $-1 $89 forward single #
face $-1 $90 $91 $50 $-1 $92 forward single #
face $-1 $93 $94 $51 $-1 $95 forward single #
face $-1 $96 $97 $52 $-1 $98 forward single #
face $-1 $99 $100 $53 $-1 $101 forward single #
face $-1 $102 $103 $54 $-1 $104 forward single #
face $-1 $105 $106 $55 $-1 $107 forward single #
face $-1 $108 $109 $56 $-1 $110 forward single #
face $-1 $111 $112 $57 $-1 $113 forward single #
face $-1 $114 $115 $58 $-1 $116 forward single #
face $-1 $117 $118 $59 $-1 $119 forward single #
face $-1 $120 $121 $45 $-1 $122 reversed single #
loop $-1 $-1 $123 $60 #
plane-surface $-1 0 0 7.4191605874246331 0 0 1 1 0 0 forward_v I I I I #
face $-1 $124 $125 $46 $-1 $126 reversed single #
loop $-1 $-1 $127 $61 #
plane-surface $-1 0 0 85.005035554063539 0 0 1 1 0 0 forward_v I I I I #
face $-1 $128 $129 $47 $-1 $130 forward single #
loop $-1 $131 $132 $62 #
cone-surface $-1 0 0 -1.3307443464461173 0 0 1 1 0 0 1 I I 0 1 1 forward I I I I #
face $-1 $133 $134 $48 $-1 $135 reversed single #
loop $-1 $-1 $136 $63 #
plane-surface $-1 0 0 85.005035554063539 0 0 1 1 0 0 forward_v I I I I #
face $-1 $137 $138 $49 $-1 $139 forward single #
loop $-1 $140 $141 $64 #
cone-surface $-1 0 0 -1.1614123966185499 0 0 1 1 0 0 1 I I 0 1 1 forward I I I I #
face $-1 $142 $143 $50 $-1 $144 forward single #
loop $-1 $145 $146 $65 #
cone-surface $-1 0 0 -1.1614123966185499 0 0 1 1 0 0 1 I I 0 1 1 forward I I I I #
face $-1 $147 $148 $51 $-1 $149 reversed single #
loop $-1 $-1 $150 $66 #
plane-surface $-1 0 0 85.005035554063539 0 0 1 1 0 0 forward_v I I I I #
face $-1 $151 $152 $52 $-1 $153 forward single #
loop $-1 $154 $155 $67 #
cone-surface $-1 0 0 -1.1614123966185499 0 0 1 1 0 0 1 I I 0 1 1 forward I I I I #
face $-1 $156 $157 $53 $-1 $158 forward single #
loop $-1 $159 $160 $68 #
cone-surface $-1 0 0 -1.1614123966185499 0 0 1 1 0 0 1 I I 0 1 1 forward I I I I #
face $-1 $161 $162 $54 $-1 $163 reversed single #
loop $-1 $-1 $164 $69 #
plane-surface $-1 0 0 85.005035554063539 0 0 1 1 0 0 forward_v I I I I #
face $-1 $165 $166 $55 $-1 $167 forward single #
loop $-1 $168 $169 $70 #
cone-surface $-1 0 0 -1.1614123966185499 0 0 1 1 0 0 1 I I 0 1 1 forward I I I I #
face $-1 $170 $171 $56 $-1 $172 forward single #
loop $-1 $173 $174 $71 #
cone-surface $-1 0 0 -1.1614123966185499 0 0 1 1 0 0 1 I I 0 1 1 forward I I I I #
face $-1 $175 $176 $57 $-1 $177 reversed single #
loop $-1 $-1 $178 $72 #
plane-surface $-1 0 0 85.005035554063539 0 0 1 1 0 0 forward_v I I I I #
face $-1 $179 $180 $58 $-1 $181 forward single #
loop $-1 $182 $183 $73 #
cone-surface $-1 0 0 -1.1614123966185499 0 0 1 1 0 0 1 I I 0 1 1 forward I I I I #
face $-1 $184 $185 $59 $-1 $186 forward single #
loop $-1 $187 $188 $74 #
cone-surface $-1 0 0 -1.1614123966185499 0 0 1 1 0 0 1 I I 0 1 1 forward I I I I #
face $-1 $189 $190 $45 $-1 $191 reversed single #
loop $-1 $-1 $192 $75 #
plane-surface $-1 0 0 -7.4191605874246331 0 0 1 1 0 0 forward_v I I I I #
coedge $-1 $193 $194 $195 $196 forward $76 $-1 #
face $-1 $197 $198 $46 $-1 $199 reversed single #
loop $-1 $-1 $200 $78 #
plane-surface $-1 0 0 -85.005035554063539 0 0 1 1 0 0 forward_v I I I I #
coedge $-1 $201 $202 $203 $204 forward $79 $-1 #
face $-1 $-1 $205 $47 $-1 $206 forward single #
loop $-1 $-1 $207 $81 #
plane-surface $-1 0 0 -2.1614886928922372 0 0 -1 -1 0 0 forward_v I I I I #
loop $-1 $-1 $208 $62 #
coedge $-1 $132 $132 $207 $209 reversed $82 $-1 #
face $-1 $210 $211 $48 $-1 $212 reversed single #
loop $-1 $-1 $213 $84 #
plane-surface $-1 0 0 -85.005035554063539 0 0 1 1 0 0 forward_v I I I I #
coedge $-1 $214 $215 $216 $217 forward $85 $-1 #
face $-1 $-1 $218 $49 $-1 $219 forward single #
loop $-1 $-1 $220 $87 #
plane-surface $-1 0 0 -1.8228247932370989 0 0 -1 -1 0 0 forward_v I I I I #
loop $-1 $-1 $221 $64 #
coedge $-1 $141 $141 $220 $222 reversed $88 $-1 #
face $-1 $-1 $223 $50 $-1 $224 forward single #
loop $-1 $-1 $225 $90 #
plane-surface $-1 0 0 -1.8228247932370989 0 0 -1 -1 0 0 forward_v I I I I #
loop $-1 $-1 $226 $65 #
coedge $-1 $146 $146 $225 $227 reversed $91 $-1 #
face $-1 $228 $229 $51 $-1 $230 reversed single #
loop $-1 $-1 $231 $93 #
plane-surface $-1 0 0 -85.005035554063539 0 0 1 1 0 0 forward_v I I I I #
coedge $-1 $232 $233 $234 $235 forward $94 $-1 #
face $-1 $-1 $236 $52 $-1 $237 forward single #
loop $-1 $-1 $238 $96 #
plane-surface $-1 0 0 -1.8228247932370989 0 0 -1 -1 0 0 forward_v I I I I #
loop $-1 $-1 $239 $67 #
coedge $-1 $155 $155 $238 $240 reversed $97 $-1 #
face $-1 $-1 $241 $53 $-1 $242 forward single #
loop $-1 $-1 $243 $99 #
plane-surface $-1 0 0 -1.8228247932370989 0 0 -1 -1 0 0 forward_v I I I I #
loop $-1 $-1 $244 $68 #
coedge $-1 $160 $160 $243 $245 reversed $100 $-1 #
face $-1 $246 $247 $54 $-1 $248 reversed single #
loop $-1 $-1 $249 $102 #
plane-surface $-1 0 0 -85.005035554063539 0 0 1 1 0 0 forward_v I I I I #
coedge $-1 $250 $251 $252 $253 forward $103 $-1 #
face $-1 $-1 $254 $55 $-1 $255 forward single #
loop $-1 $-1 $256 $105 #
plane-surface $-1 0 0 -1.8228247932370989 0 0 -1 -1 0 0 forward_v I I I I #
loop $-1 $-1 $257 $70 #
coedge $-1 $169 $169 $256 $258 reversed $106 $-1 #
face $-1 $-1 $259 $56 $-1 $260 forward single #
loop $-1 $-1 $261 $108 #
plane-surface $-1 0 0 -1.8228247932370989 0 0 -1 -1 0 0 forward_v I I I I #
loop $-1 $-1 $262 $71 #
coedge $-1 $174 $174 $261 $263 reversed $109 $-1 #
face $-1 $264 $265 $57 $-1 $266 reversed single #
loop $-1 $-1 $267 $111 #
plane-surface $-1 0 0 -85.005035554063539 0 0 1 1 0 0 forward_v I I I I #
coedge $-1 $268 $269 $270 $271 forward $112 $-1 #
face $-1 $-1 $272 $58 $-1 $273 forward single #
loop $-1 $-1 $274 $114 #
plane-surface $-1 0 0 -1.8228247932370989 0 0 -1 -1 0 0 forward_v I I I I #
loop $-1 $-1 $275 $73 #
coedge $-1 $183 $183 $274 $276 reversed $115 $-1 #
face $-1 $-1 $277 $59 $-1 $278 forward single #
loop $-1 $-1 $279 $117 #
plane-surface $-1 0 0 -1.8228247932370989 0 0 -1 -1 0 0 forward_v I I I I #
loop $-1 $-1 $280 $74 #
coedge $-1 $188 $188 $279 $281 reversed $118 $-1 #
face $-1 $282 $283 $45 $-1 $284 reversed single #
loop $-1 $-1 $285 $120 #
plane-surface $-1 0 -27.143007789752911 0 0 1 0 0 0 1 forward_v I I I I #
coedge $-1 $286 $287 $288 $289 forward $121 $-1 #
coedge $-1 $290 $123 $291 $292 forward $76 $-1 #
coedge $-1 $123 $290 $293 $294 forward $76 $-1 #
coedge $-1 $295 $296 $123 $196 reversed $297 $-1 #
edge $-1 $298 -27.143007789752911 $299 27.143007789752911 $195 $300 forward 7 unknown #
face $-1 $301 $302 $46 $-1 $303 reversed single #
loop $-1 $-1 $304 $124 #
plane-surface $-1 0 -5.7539098606433718 0 0 1 0 0 0 1 forward_v I I I I #
coedge $-1 $305 $306 $307 $308 forward $125 $-1 #
coedge $-1 $309 $127 $310 $311 forward $79 $-1 #
coedge $-1 $127 $309 $312 $313 forward $79 $-1 #
coedge $-1 $314 $315 $127 $204 reversed $316 $-1 #
edge $-1 $317 -5.7539098606433718 $318 5.7539098606433718 $203 $319 forward 7 unknown #
loop $-1 $320 $321 $128 #
cone-surface $-1 0 0 0 0 0 1 0.5 0 0 1 I I -0.70710678118654813 0.70710678118654691 0.5 forward I I I I #
coedge $-1 $207 $207 $132 $209 forward $129 $-1 #
coedge $-1 $208 $208 $321 $322 forward $131 $-1 #
edge $-1 $323 0 $323 6.2831853071796004 $207 $324 forward 7 unknown #
face $-1 $325 $326 $48 $-1 $327 reversed single #
loop $-1 $-1 $328 $133 #
plane-surface $-1 0 -3.6634366125600257 0 0 1 0 0 0 1 forward_v I I I I #
coedge $-1 $329 $330 $331 $332 forward $134 $-1 #
coedge $-1 $333 $136 $334 $335 forward $85 $-1 #
coedge $-1 $136 $333 $336 $337 forward $85 $-1 #
coedge $-1 $338 $339 $136 $217 reversed $340 $-1 #
edge $-1 $341 -3.6634366125600257 $342 3.6634366125600257 $216 $343 forward 7 unknown #
loop $-1 $344 $345 $137 #
cone-surface $-1 0 0 0 0 0 1 0.5 0 0 1 I I -0.70710678118654746 0.70710678118654746 0.5 forward I I I I #
coedge $-1 $220 $220 $141 $222 forward $138 $-1 #
coedge $-1 $221 $221 $345 $346 forward $140 $-1 #
edge $-1 $347 0 $347 6.2831853071796004 $220 $348 forward 7 unknown #
loop $-1 $349 $350 $142 #
cone-surface $-1 0 0 0 0 0 1 0.5 0 0 1 I I -0.70710678118654746 0.70710678118654746 0.5 forward I I I I #
coedge $-1 $225 $225 $146 $227 forward $143 $-1 #
coedge $-1 $226 $226 $350 $351 forward $145 $-1 #
edge $-1 $352 0 $352 6.2831853071796004 $225 $353 forward 7 unknown #
face $-1 $354 $355 $51 $-1 $356 reversed single #
loop $-1 $-1 $357 $147 #
plane-surface $-1 0 -3.6634366125600257 0 0 1 0 0 0 1 forward_v I I I I #
coedge $-1 $358 $359 $360 $361 forward $148 $-1 #
coedge $-1 $362 $150 $363 $364 forward $94 $-1 #
coedge $-1 $150 $362 $365 $366 forward $94 $-1 #
coedge $-1 $367 $368 $150 $235 reversed $369 $-1 #
edge $-1 $370 -3.6634366125600257 $371 3.6634366125600257 $234 $372 forward 7 unknown #
loop $-1 $373 $374 $151 #
cone-surface $-1 0 0 0 0 0 1 0.5 0 0 1 I I -0.70710678118654746 0.70710678118654746 0.5 forward I I I I #
coedge $-1 $238 $238 $155 $240 forward $152 $-1 #
coedge $-1 $239 $239 $374 $375 forward $154 $-1 #
edge $-1 $376 0 $376 6.2831853071796004 $238 $377 forward 7 unknown #
loop $-1 $378 $379 $156 #
cone-surface $-1 0 0 0 0 0 1 0.5 0 0 1 I I -0.70710678118654746 0.70710678118654746 0.5 forward I I I I #
coedge $-1 $243 $243 $160 $245 forward $157 $-1 #
coedge $-1 $244 $244 $379 $380 forward $159 $-1 #
edge $-1 $381 0 $381 6.2831853071796004 $243 $382 forward 7 unknown #
face $-1 $383 $384 $54 $-1 $385 reversed single #
loop $-1 $-1 $386 $161 #
plane-surface $-1 0 -3.6634366125600257 0 0 1 0 0 0 1 forward_v I I I I #
coedge $-1 $387 $388 $389 $390 forward $162 $-1 #
coedge $-1 $391 $164 $392 $393 forward $103 $-1 #
coedge $-1 $164 $391 $394 $395 forward $103 $-1 #
coedge $-1 $396 $397 $164 $253 reversed $398 $-1 #
edge $-1 $399 -3.6634366125600257 $400 3.6634366125600257 $252 $401 forward 7 unknown #
loop $-1 $402 $403 $165 #
cone-surface $-1 0 0 0 0 0 1 0.5 0 0 1 I I -0.70710678118654746 0.70710678118654746 0.5 forward I I I I #
coedge $-1 $256 $256 $169 $258 forward $166 $-1 #
coedge $-1 $257 $257 $403 $404 forward $168 $-1 #
edge $-1 $405 0 $405 6.2831853071796004 $256 $406 forward 7 unknown #
loop $-1 $407 $408 $170 #
cone-surface $-1 0 0 0 0 0 1 0.5 0 0 1 I I -0.70710678118654746 0.70710678118654746 0.5 forward I I I I #
coedge $-1 $261 $261 $174 $263 forward $171 $-1 #
coedge $-1 $262 $262 $408 $409 forward $173 $-1 #
edge $-1 $410 0 $410 6.2831853071796004 $261 $411 forward 7 unknown #
face $-1 $412 $413 $57 $-1 $414 reversed single #
loop $-1 $-1 $415 $175 #
plane-surface $-1 0 -3.6634366125600257 0 0 1 0 0 0 1 forward_v I I I I #
coedge $-1 $416 $417 $418 $419 forward $176 $-1 #
coedge $-1 $420 $178 $421 $422 forward $112 $-1 #
coedge $-1 $178 $420 $423 $424 forward $112 $-1 #
coedge $-1 $425 $426 $178 $271 reversed $427 $-1 #
edge $-1 $428 -3.6634366125600257 $429 3.6634366125600257 $270 $430 forward 7 unknown #
loop $-1 $431 $432 $179 #
cone-surface $-1 0 0 0 0 0 1 0.5 0 0 1 I I -0.70710678118654746 0.70710678118654746 0.5 forward I I I I #
coedge $-1 $274 $274 $183 $276 forward $180 $-1 #
coedge $-1 $275 $275 $432 $433 forward $182 $-1 #
edge $-1 $434 0 $434 6.2831853071796004 $274 $435 forward 7 unknown #
loop $-1 $436 $437 $184 #
cone-surface $-1 0 0 0 0 0 1 0.5 0 0 1 I I -0.70710678118654746 0.70710678118654746 0.5 forward I I I I #
coedge $-1 $279 $279 $188 $281 forward $185 $-1 #
coedge $-1 $280 $280 $437 $438 forward $187 $-1 #
edge $-1 $439 0 $439 6.2831853071796004 $279 $440 forward 7 unknown #
face $-1 $441 $442 $45 $-1 $443 reversed single #
loop $-1 $-1 $444 $189 #
plane-surface $-1 -42.50251777703177 0 0 1 0 0 0 0 -1 forward_v I I I I #
coedge $-1 $445 $293 $446 $447 forward $190 $-1 #
coedge $-1 $448 $192 $445 $449 forward $121 $-1 #
coedge $-1 $192 $448 $450 $451 forward $121 $-1 #
coedge $-1 $296 $295 $192 $289 reversed $297 $-1 #
edge $-1 $452 -27.143007789752911 $453 27.143007789752911 $288 $454 forward 7 unknown #
coedge $-1 $194 $193 $455 $456 forward $76 $-1 #
coedge $-1 $457 $458 $193 $292 reversed $442 $-1 #
edge $-1 $299 -42.50251777703177 $459 42.50251777703177 $291 $460 forward 7 unknown #
coedge $-1 $285 $461 $194 $294 reversed $190 $-1 #
edge $-1 $462 -42.50251777703177 $298 42.50251777703177 $293 $463 forward 7 unknown #
coedge $-1 $288 $195 $461 $464 forward $297 $-1 #
coedge $-1 $195 $288 $457 $465 reversed $297 $-1 #
loop $-1 $-1 $295 $441 #
vertex $-1 $196 $466 #
vertex $-1 $196 $467 #
straight-curve $-1 42.50251777703177 0 7.4191605874246331 0 1 0 I I #
face $-1 $468 $469 $46 $-1 $470 reversed single #
loop $-1 $-1 $471 $197 #
plane-surface $-1 -170.01007110812708 0 0 1 0 0 0 0 -1 forward_v I I I I #
coedge $-1 $472 $312 $473 $474 forward $198 $-1 #
coedge $-1 $475 $200 $472 $476 forward $125 $-1 #
coedge $-1 $200 $475 $477 $478 forward $125 $-1 #
coedge $-1 $315 $314 $200 $308 reversed $316 $-1 #
edge $-1 $479 -5.7539098606433718 $480 5.7539098606433718 $307 $481 forward 7 unknown #
coedge $-1 $202 $201 $482 $483 forward $79 $-1 #
coedge $-1 $484 $485 $201 $311 reversed $469 $-1 #
edge $-1 $318 -170.01007110812708 $486 170.01007110812708 $310 $487 forward 7 unknown #
coedge $-1 $304 $488 $202 $313 reversed $198 $-1 #
edge $-1 $489 -170.01007110812708 $317 170.01007110812708 $312 $490 forward 7 unknown #
coedge $-1 $307 $203 $488 $491 forward $316 $-1 #
coedge $-1 $203 $307 $484 $492 reversed $316 $-1 #
loop $-1 $-1 $314 $468 #
vertex $-1 $204 $493 #
vertex $-1 $204 $494 #
straight-curve $-1 170.01007110812708 0 85.005035554063539 0 1 0 I I #
loop $-1 $-1 $495 $128 #
coedge $-1 $321 $321 $208 $322 reversed $205 $-1 #
edge $-1 $496 0 $496 6.2831853071796004 $321 $497 forward 7 unknown #
vertex $-1 $209 $498 #
ellipse-curve $-1 0 0 -2.1614886928922372 0 0 -1 1 0 0 1 I I #
face $-1 $499 $500 $48 $-1 $501 reversed single #
loop $-1 $-1 $502 $210 #
plane-surface $-1 -170.01007110812708 0 0 1 0 0 0 0 -1 forward_v I I I I #
coedge $-1 $503 $336 $504 $505 forward $211 $-1 #
coedge $-1 $506 $213 $503 $507 forward $134 $-1 #
coedge $-1 $213 $506 $508 $509 forward $134 $-1 #
coedge $-1 $339 $338 $213 $332 reversed $340 $-1 #
edge $-1 $510 -3.6634366125600257 $511 3.6634366125600257 $331 $512 forward 7 unknown #
coedge $-1 $215 $214 $513 $514 forward $85 $-1 #
coedge $-1 $515 $516 $214 $335 reversed $500 $-1 #
edge $-1 $342 -170.01007110812708 $517 170.01007110812708 $334 $518 forward 7 unknown #
coedge $-1 $328 $519 $215 $337 reversed $211 $-1 #
edge $-1 $520 -170.01007110812708 $341 170.01007110812708 $336 $521 forward 7 unknown #
coedge $-1 $331 $216 $519 $522 forward $340 $-1 #
coedge $-1 $216 $331 $515 $523 reversed $340 $-1 #
loop $-1 $-1 $338 $499 #
vertex $-1 $217 $524 #
vertex $-1 $217 $525 #
straight-curve $-1 170.01007110812708 0 85.005035554063539 0 1 0 I I #
loop $-1 $-1 $526 $137 #
coedge $-1 $345 $345 $221 $346 reversed $218 $-1 #
edge $-1 $527 0 $527 6.2831853071796004 $345 $528 forward 7 unknown #
vertex $-1 $222 $529 #
ellipse-curve $-1 0 0 -1.8228247932370989 0 0 -1 1 0 0 1 I I #
loop $-1 $-1 $530 $142 #
coedge $-1 $350 $350 $226 $351 reversed $223 $-1 #
edge $-1 $531 0 $531 6.2831853071796004 $350 $532 forward 7 unknown #
vertex $-1 $227 $533 #
ellipse-curve $-1 0 0 -1.8228247932370989 0 0 -1 1 0 0 1 I I #
face $-1 $534 $535 $51 $-1 $536 reversed single #
loop $-1 $-1 $537 $228 #
plane-surface $-1 -170.01007110812708 0 0 1 0 0 0 0 -1 forward_v I I I I #
coedge $-1 $538 $365 $539 $540 forward $229 $-1 #
coedge $-1 $541 $231 $538 $542 forward $148 $-1 #
coedge $-1 $231 $541 $543 $544 forward $148 $-1 #
coedge $-1 $368 $367 $231 $361 reversed $369 $-1 #
edge $-1 $545 -3.6634366125600257 $546 3.6634366125600257 $360 $547 forward 7 unknown #
coedge $-1 $233 $232 $548 $549 forward $94 $-1 #
coedge $-1 $550 $551 $232 $364 reversed $535 $-1 #
edge $-1 $371 -170.01007110812708 $552 170.01007110812708 $363 $553 forward 7 unknown #
coedge $-1 $357 $554 $233 $366 reversed $229 $-1 #
edge $-1 $555 -170.01007110812708 $370 170.01007110812708 $365 $556 forward 7 unknown #
coedge $-1 $360 $234 $554 $557 forward $369 $-1 #
coedge $-1 $234 $360 $550 $558 reversed $369 $-1 #
loop $-1 $-1 $367 $534 #
vertex $-1 $235 $559 #
vertex $-1 $235 $560 #
straight-curve $-1 170.01007110812708 0 85.005035554063539 0 1 0 I I #
loop $-1 $-1 $561 $151 #
coedge $-1 $374 $374 $239 $375 reversed $236 $-1 #
edge $-1 $562 0 $562 6.2831853071796004 $374 $563 forward 7 unknown #
vertex $-1 $240 $564 #
ellipse-curve $-1 0 0 -1.8228247932370989 0 0 -1 1 0 0 1 I I #
loop $-1 $-1 $565 $156 #
coedge $-1 $379 $379 $244 $380 reversed $241 $-1 #
edge $-1 $566 0 $566 6.2831853071796004 $379 $567 forward 7 unknown #
vertex $-1 $245 $568 #
ellipse-curve $-1 0 0 -1.8228247932370989 0 0 -1 1 0 0 1 I I #
face $-1 $569 $570 $54 $-1 $571 reversed single #
loop $-1 $-1 $572 $246 #
plane-surface $-1 -170.01007110812708 0 0 1 0 0 0 0 -1 forward_v I I I I #
coedge $-1 $573 $394 $574 $575 forward $247 $-1 #
coedge $-1 $576 $249 $573 $577 forward $162 $-1 #
coedge $-1 $249 $576 $578 $579 forward $162 $-1 #
coedge $-1 $397 $396 $249 $390 reversed $398 $-1 #
edge $-1 $580 -3.6634366125600257 $581 3.6634366125600257 $389 $582 forward 7 unknown #
coedge $-1 $251 $250 $583 $584 forward $103 $-1 #
coedge $-1 $585 $586 $250 $393 reversed $570 $-1 #
edge $-1 $400 -170.01007110812708 $587 170.01007110812708 $392 $588 forward 7 unknown #
coedge $-1 $386 $589 $251 $395 reversed $247 $-1 #
edge $-1 $590 -170.01007110812708 $399 170.01007110812708 $394 $591 forward 7 unknown #
coedge $-1 $389 $252 $589 $592 forward $398 $-1 #
coedge $-1 $252 $389 $585 $593 reversed $398 $-1 #
loop $-1 $-1 $396 $569 #
vertex $-1 $253 $594 #
vertex $-1 $253 $595 #
straight-curve $-1 170.01007110812708 0 85.005035554063539 0 1 0 I I #
loop $-1 $-1 $596 $165 #
coedge $-1 $403 $403 $257 $404 reversed $254 $-1 #
edge $-1 $597 0 $597 6.2831853071796004 $403 $598 forward 7 unknown #
vertex $-1 $258 $599 #
ellipse-curve $-1 0 0 -1.8228247932370989 0 0 -1 1 0 0 1 I I #
loop $-1 $-1 $600 $170 #
coedge $-1 $408 $408 $262 $409 reversed $259 $-1 #
edge $-1 $601 0 $601 6.2831853071796004 $408 $602 forward 7 unknown #
vertex $-1 $263 $603 #
ellipse-curve $-1 0 0 -1.8228247932370989 0 0 -1 1 0 0 1 I I #
face $-1 $604 $605 $57 $-1 $606 reversed single #
loop $-1 $-1 $607 $264 #
plane-surface $-1 -170.01007110812708 0 0 1 0 0 0 0 -1 forward_v I I I I #
coedge $-1 $608 $423 $609 $610 forward $265 $-1 #
coedge $-1 $611 $267 $608 $612 forward $176 $-1 #
coedge $-1 $267 $611 $613 $614 forward $176 $-1 #
coedge $-1 $426 $425 $267 $419 reversed $427 $-1 #
edge $-1 $615 -3.6634366125600257 $616 3.6634366125600257 $418 $617 forward 7 unknown #
coedge $-1 $269 $268 $618 $619 forward $112 $-1 #
coedge $-1 $620 $621 $268 $422 reversed $605 $-1 #
edge $-1 $429 -170.01007110812708 $622 170.01007110812708 $421 $623 forward 7 unknown #
coedge $-1 $415 $624 $269 $424 reversed $265 $-1 #
edge $-1 $625 -170.01007110812708 $428 170.01007110812708 $423 $626 forward 7 unknown #
coedge $-1 $418 $270 $624 $627 forward $427 $-1 #
coedge $-1 $270 $418 $620 $628 reversed $427 $-1 #
loop $-1 $-1 $425 $604 #
vertex $-1 $271 $629 #
vertex $-1 $271 $630 #
straight-curve $-1 170.01007110812708 0 85.005035554063539 0 1 0 I I #
loop $-1 $-1 $631 $179 #
coedge $-1 $432 $432 $275 $433 reversed $272 $-1 #
edge $-1 $632 0 $632 6.2831853071796004 $432 $633 forward 7 unknown #
vertex $-1 $276 $634 #
ellipse-curve $-1 0 0 -1.8228247932370989 0 0 -1 1 0 0 1 I I #
loop $-1 $-1 $635 $184 #
coedge $-1 $437 $437 $280 $438 reversed $277 $-1 #
edge $-1 $636 0 $636 6.2831853071796004 $437 $637 forward 7 unknown #
vertex $-1 $281 $638 #
ellipse-curve $-1 0 0 -1.8228247932370989 0 0 -1 1 0 0 1 I I #
face $-1 $-1 $297 $45 $-1 $639 reversed single #
loop $-1 $-1 $457 $282 #
plane-surface $-1 0 27.143007789752911 0 0 -1 0 0 0 -1 forward_v I I I I #
coedge $-1 $640 $455 $458 $641 forward $283 $-1 #
coedge $-1 $461 $285 $286 $449 reversed $190 $-1 #
coedge $-1 $455 $640 $285 $447 reversed $283 $-1 #
edge $-1 $462 -7.4191605874246331 $642 7.4191605874246331 $446 $643 forward 7 unknown #
coedge $-1 $287 $286 $640 $644 forward $121 $-1 #
edge $-1 $453 -42.50251777703177 $642 42.50251777703177 $445 $645 forward 7 unknown #
coedge $-1 $458 $457 $287 $451 reversed $442 $-1 #
edge $-1 $646 -42.50251777703177 $452 42.50251777703177 $450 $647 forward 7 unknown #
vertex $-1 $289 $648 #
vertex $-1 $464 $649 #
straight-curve $-1 42.50251777703177 0 -7.4191605874246331 0 -1 0 I I #
coedge $-1 $444 $446 $290 $456 reversed $283 $-1 #
edge $-1 $459 -27.143007789752911 $462 27.143007789752911 $455 $650 forward 7 unknown #
coedge $-1 $450 $291 $296 $465 forward $442 $-1 #
coedge $-1 $291 $450 $444 $641 reversed $442 $-1 #
vertex $-1 $292 $651 #
straight-curve $-1 0 27.143007789752911 7.4191605874246331 -1 0 0 I I #
coedge $-1 $293 $445 $295 $464 reversed $190 $-1 #
vertex $-1 $456 $652 #
straight-curve $-1 0 -27.143007789752911 7.4191605874246331 1 0 0 I I #
edge $-1 $298 -7.4191605874246331 $453 7.4191605874246331 $295 $653 forward 7 unknown #
edge $-1 $299 -7.4191605874246331 $452 7.4191605874246331 $296 $654 forward 7 unknown #
point $-1 42.50251777703177 -27.143007789752911 7.4191605874246331 #
point $-1 42.50251777703177 27.143007789752911 7.4191605874246331 #
face $-1 $-1 $316 $46 $-1 $655 reversed single #
loop $-1 $-1 $484 $301 #
plane-surface $-1 0 5.7539098606433718 0 0 -1 0 0 0 -1 forward_v I I I I #
coedge $-1 $656 $482 $485 $657 forward $302 $-1 #
coedge $-1 $488 $304 $305 $476 reversed $198 $-1 #
coedge $-1 $482 $656 $304 $474 reversed $302 $-1 #
edge $-1 $489 -85.005035554063539 $658 85.005035554063539 $473 $659 forward 7 unknown #
coedge $-1 $306 $305 $656 $660 forward $125 $-1 #
edge $-1 $480 -170.01007110812708 $658 170.01007110812708 $472 $661 forward 7 unknown #
coedge $-1 $485 $484 $306 $478 reversed $469 $-1 #
edge $-1 $662 -170.01007110812708 $479 170.01007110812708 $477 $663 forward 7 unknown #
vertex $-1 $308 $664 #
vertex $-1 $491 $665 #
straight-curve $-1 170.01007110812708 0 -85.005035554063539 0 -1 0 I I #
coedge $-1 $471 $473 $309 $483 reversed $302 $-1 #
edge $-1 $486 -5.7539098606433718 $489 5.7539098606433718 $482 $666 forward 7 unknown #
coedge $-1 $477 $310 $315 $492 forward $469 $-1 #
coedge $-1 $310 $477 $471 $657 reversed $469 $-1 #
vertex $-1 $311 $667 #
straight-curve $-1 0 5.7539098606433718 85.005035554063539 -1 0 0 I I #
coedge $-1 $312 $472 $314 $491 reversed $198 $-1 #
vertex $-1 $483 $668 #
straight-curve $-1 0 -5.7539098606433718 85.005035554063539 1 0 0 I I #
edge $-1 $317 -85.005035554063539 $480 85.005035554063539 $314 $669 forward 7 unknown #
edge $-1 $318 -85.005035554063539 $479 85.005035554063539 $315 $670 forward 7 unknown #
point $-1 170.01007110812708 -5.7539098606433718 85.005035554063539 #
point $-1 170.01007110812708 5.7539098606433718 85.005035554063539 #
coedge $-1 $495 $495 $-1 $671 reversed $320 $-1 #
vertex $-1 $322 $672 #
ellipse-curve $-1 0 0 -0.49999999999999911 0 0 -1 1 0 0 1 I I #
point $-1 1 0 -2.1614886928922372 #
face $-1 $-1 $340 $48 $-1 $673 reversed single #
loop $-1 $-1 $515 $325 #
plane-surface $-1 0 3.6634366125600257 0 0 -1 0 0 0 -1 forward_v I I I I #
coedge $-1 $674 $513 $516 $675 forward $326 $-1 #
coedge $-1 $519 $328 $329 $507 reversed $211 $-1 #
coedge $-1 $513 $674 $328 $505 reversed $326 $-1 #
edge $-1 $520 -85.005035554063539 $676 85.005035554063539 $504 $677 forward 7 unknown #
coedge $-1 $330 $329 $674 $678 forward $134 $-1 #
edge $-1 $511 -170.01007110812708 $676 170.01007110812708 $503 $679 forward 7 unknown #
coedge $-1 $516 $515 $330 $509 reversed $500 $-1 #
edge $-1 $680 -170.01007110812708 $510 170.01007110812708 $508 $681 forward 7 unknown #
vertex $-1 $332 $682 #
vertex $-1 $522 $683 #
straight-curve $-1 170.01007110812708 0 -85.005035554063539 0 -1 0 I I #
coedge $-1 $502 $504 $333 $514 reversed $326 $-1 #
edge $-1 $517 -3.6634366125600257 $520 3.6634366125600257 $513 $684 forward 7 unknown #
coedge $-1 $508 $334 $339 $523 forward $500 $-1 #
coedge $-1 $334 $508 $502 $675 reversed $500 $-1 #
vertex $-1 $335 $685 #
straight-curve $-1 0 3.6634366125600257 85.005035554063539 -1 0 0 I I #
coedge $-1 $336 $503 $338 $522 reversed $211 $-1 #
vertex $-1 $514 $686 #
straight-curve $-1 0 -3.6634366125600257 85.005035554063539 1 0 0 I I #
edge $-1 $341 -85.005035554063539 $511 85.005035554063539 $338 $687 forward 7 unknown #
edge $-1 $342 -85.005035554063539 $510 85.005035554063539 $339 $688 forward 7 unknown #
point $-1 170.01007110812708 -3.6634366125600257 85.005035554063539 #
point $-1 170.01007110812708 3.6634366125600257 85.005035554063539 #
coedge $-1 $526 $526 $-1 $689 reversed $344 $-1 #
vertex $-1 $346 $690 #
ellipse-curve $-1 0 0 -0.5 0 0 -1 1 0 0 1 I I #
point $-1 1 0 -1.8228247932370989 #
coedge $-1 $530 $530 $-1 $691 reversed $349 $-1 #
vertex $-1 $351 $692 #
ellipse-curve $-1 0 0 -0.5 0 0 -1 1 0 0 1 I I #
point $-1 1 0 -1.8228247932370989 #
face $-1 $-1 $369 $51 $-1 $693 reversed single #
loop $-1 $-1 $550 $354 #
plane-surface $-1 0 3.6634366125600257 0 0 -1 0 0 0 -1 forward_v I I I I #
coedge $-1 $694 $548 $551 $695 forward $355 $-1 #
coedge $-1 $554 $357 $358 $542 reversed $229 $-1 #
coedge $-1 $548 $694 $357 $540 reversed $355 $-1 #
edge $-1 $555 -85.005035554063539 $696 85.005035554063539 $539 $697 forward 7 unknown #
coedge $-1 $359 $358 $694 $698 forward $148 $-1 #
edge $-1 $546 -170.01007110812708 $696 170.01007110812708 $538 $699 forward 7 unknown #
coedge $-1 $551 $550 $359 $544 reversed $535 $-1 #
edge $-1 $700 -170.01007110812708 $545 170.01007110812708 $543 $701 forward 7 unknown #
vertex $-1 $361 $702 #
vertex $-1 $557 $703 #
straight-curve $-1 170.01007110812708 0 -85.005035554063539 0 -1 0 I I #
coedge $-1 $537 $539 $362 $549 reversed $355 $-1 #
edge $-1 $552 -3.6634366125600257 $555 3.6634366125600257 $548 $704 forward 7 unknown #
coedge $-1 $543 $363 $368 $558 forward $535 $-1 #
coedge $-1 $363 $543 $537 $695 reversed $535 $-1 #
vertex $-1 $364 $705 #
straight-curve $-1 0 3.6634366125600257 85.005035554063539 -1 0 0 I I #
coedge $-1 $365 $538 $367 $557 reversed $229 $-1 #
vertex $-1 $549 $706 #
straight-curve $-1 0 -3.6634366125600257 85.005035554063539 1 0 0 I I #
edge $-1 $370 -85.005035554063539 $546 85.005035554063539 $367 $707 forward 7 unknown #
edge $-1 $371 -85.005035554063539 $545 85.005035554063539 $368 $708 forward 7 unknown #
point $-1 170.01007110812708 -3.6634366125600257 85.005035554063539 #
point $-1 170.01007110812708 3.6634366125600257 85.005035554063539 #
coedge $-1 $561 $561 $-1 $709 reversed $373 $-1 #
vertex $-1 $375 $710 #
ellipse-curve $-1 0 0 -0.5 0 0 -1 1 0 0 1 I I #
point $-1 1 0 -1.8228247932370989 #
coedge $-1 $565 $565 $-1 $711 reversed $378 $-1 #
vertex $-1 $380 $712 #
ellipse-curve $-1 0 0 -0.5 0 0 -1 1 0 0 1 I I #
point $-1 1 0 -1.8228247932370989 #
face $-1 $-1 $398 $54 $-1 $713 reversed single #
loop $-1 $-1 $585 $383 #
plane-surface $-1 0 3.6634366125600257 0 0 -1 0 0 0 -1 forward_v I I I I #
coedge $-1 $714 $583 $586 $715 forward $384 $-1 #
coedge $-1 $589 $386 $387 $577 reversed $247 $-1 #
coedge $-1 $583 $714 $386 $575 reversed $384 $-1 #
edge $-1 $590 -85.005035554063539 $716 85.005035554063539 $574 $717 forward 7 unknown #
coedge $-1 $388 $387 $714 $718 forward $162 $-1 #
edge $-1 $581 -170.01007110812708 $716 170.01007110812708 $573 $719 forward 7 unknown #
coedge $-1 $586 $585 $388 $579 reversed $570 $-1 #
edge $-1 $720 -170.01007110812708 $580 170.01007110812708 $578 $721 forward 7 unknown #
vertex $-1 $390 $722 #
vertex $-1 $592 $723 #
straight-curve $-1 170.01007110812708 0 -85.005035554063539 0 -1 0 I I #
coedge $-1 $572 $574 $391 $584 reversed $384 $-1 #
edge $-1 $587 -3.6634366125600257 $590 3.6634366125600257 $583 $724 forward 7 unknown #
coedge $-1 $578 $392 $397 $593 forward $570 $-1 #
coedge $-1 $392 $578 $572 $715 reversed $570 $-1 #
vertex $-1 $393 $725 #
straight-curve $-1 0 3.6634366125600257 85.005035554063539 -1 0 0 I I #
coedge $-1 $394 $573 $396 $592 reversed $247 $-1 #
vertex $-1 $584 $726 #
straight-curve $-1 0 -3.6634366125600257 85.005035554063539 1 0 0 I I #
edge $-1 $399 -85.005035554063539 $581 85.005035554063539 $396 $727 forward 7 unknown #
edge $-1 $400 -85.005035554063539 $580 85.005035554063539 $397 $728 forward 7 unknown #
point $-1 170.01007110812708 -3.6634366125600257 85.005035554063539 #
point $-1 170.01007110812708 3.6634366125600257 85.005035554063539 #
coedge $-1 $596 $596 $-1 $729 reversed $402 $-1 #
vertex $-1 $404 $730 #
ellipse-curve $-1 0 0 -0.5 0 0 -1 1 0 0 1 I I #
point $-1 1 0 -1.8228247932370989 #
coedge $-1 $600 $600 $-1 $731 reversed $407 $-1 #
vertex $-1 $409 $732 #
ellipse-curve $-1 0 0 -0.5 0 0 -1 1 0 0 1 I I #
point $-1 1 0 -1.8228247932370989 #
face $-1 $-1 $427 $57 $-1 $733 reversed single #
loop $-1 $-1 $620 $412 #
plane-surface $-1 0 3.6634366125600257 0 0 -1 0 0 0 -1 forward_v I I I I #
coedge $-1 $734 $618 $621 $735 forward $413 $-1 #
coedge $-1 $624 $415 $416 $612 reversed $265 $-1 #
coedge $-1 $618 $734 $415 $610 reversed $413 $-1 #
edge $-1 $625 -85.005035554063539 $736 85.005035554063539 $609 $737 forward 7 unknown #
coedge $-1 $417 $416 $734 $738 forward $176 $-1 #
edge $-1 $616 -170.01007110812708 $736 170.01007110812708 $608 $739 forward 7 unknown #
coedge $-1 $621 $620 $417 $614 reversed $605 $-1 #
edge $-1 $740 -170.01007110812708 $615 170.01007110812708 $613 $741 forward 7 unknown #
vertex $-1 $419 $742 #
vertex $-1 $627 $743 #
straight-curve $-1 170.01007110812708 0 -85.005035554063539 0 -1 0 I I #
coedge $-1 $607 $609 $420 $619 reversed $413 $-1 #
edge $-1 $622 -3.6634366125600257 $625 3.6634366125600257 $618 $744 forward 7 unknown #
coedge $-1 $613 $421 $426 $628 forward $605 $-1 #
coedge $-1 $421 $613 $607 $735 reversed $605 $-1 #
vertex $-1 $422 $745 #
straight-curve $-1 0 3.6634366125600257 85.005035554063539 -1 0 0 I I #
coedge $-1 $423 $608 $425 $627 reversed $265 $-1 #
vertex $-1 $619 $746 #
straight-curve $-1 0 -3.6634366125600257 85.005035554063539 1 0 0 I I #
edge $-1 $428 -85.005035554063539 $616 85.005035554063539 $425 $747 forward 7 unknown #
edge $-1 $429 -85.005035554063539 $615 85.005035554063539 $426 $748 forward 7 unknown #
point $-1 170.01007110812708 -3.6634366125600257 85.005035554063539 #
point $-1 170.01007110812708 3.6634366125600257 85.005035554063539 #
coedge $-1 $631 $631 $-1 $749 reversed $431 $-1 #
vertex $-1 $433 $750 #
ellipse-curve $-1 0 0 -0.5 0 0 -1 1 0 0 1 I I #
point $-1 1 0 -1.8228247932370989 #
coedge $-1 $635 $635 $-1 $751 reversed $436 $-1 #
vertex $-1 $438 $752 #
ellipse-curve $-1 0 0 -0.5 0 0 -1 1 0 0 1 I I #
point $-1 1 0 -1.8228247932370989 #
plane-surface $-1 42.50251777703177 0 0 -1 0 0 0 0 1 forward_v I I I I #
coedge $-1 $446 $444 $448 $644 reversed $283 $-1 #
edge $-1 $459 -7.4191605874246331 $646 7.4191605874246331 $458 $753 forward 7 unknown #
vertex $-1 $644 $754 #
straight-curve $-1 -42.50251777703177 -27.143007789752911 0 0 0 -1 I I #
edge $-1 $642 -27.143007789752911 $646 27.143007789752911 $640 $755 forward 7 unknown #
straight-curve $-1 0 -27.143007789752911 -7.4191605874246331 -1 0 0 I I #
vertex $-1 $451 $756 #
straight-curve $-1 0 27.143007789752911 -7.4191605874246331 1 0 0 I I #
point $-1 42.50251777703177 27.143007789752911 -7.4191605874246331 #
point $-1 42.50251777703177 -27.143007789752911 -7.4191605874246331 #
straight-curve $-1 -42.50251777703177 0 7.4191605874246331 0 -1 0 I I #
point $-1 -42.50251777703177 27.143007789752911 7.4191605874246331 #
point $-1 -42.50251777703177 -27.143007789752911 7.4191605874246331 #
straight-curve $-1 42.50251777703177 -27.143007789752911 0 0 0 -1 I I #
straight-curve $-1 42.50251777703177 27.143007789752911 0 0 0 -1 I I #
plane-surface $-1 170.01007110812708 0 0 -1 0 0 0 0 1 forward_v I I I I #
coedge $-1 $473 $471 $475 $660 reversed $302 $-1 #
edge $-1 $486 -85.005035554063539 $662 85.005035554063539 $485 $757 forward 7 unknown #
vertex $-1 $660 $758 #
straight-curve $-1 -170.01007110812708 -5.7539098606433718 0 0 0 -1 I I #
edge $-1 $658 -5.7539098606433718 $662 5.7539098606433718 $656 $759 forward 7 unknown #
straight-curve $-1 0 -5.7539098606433718 -85.005035554063539 -1 0 0 I I #
vertex $-1 $478 $760 #
straight-curve $-1 0 5.7539098606433718 -85.005035554063539 1 0 0 I I #
point $-1 170.01007110812708 5.7539098606433718 -85.005035554063539 #
point $-1 170.01007110812708 -5.7539098606433718 -85.005035554063539 #
straight-curve $-1 -170.01007110812708 0 85.005035554063539 0 -1 0 I I #
point $-1 -170.01007110812708 5.7539098606433718 85.005035554063539 #
point $-1 -170.01007110812708 -5.7539098606433718 85.005035554063539 #
straight-curve $-1 170.01007110812708 -5.7539098606433718 0 0 0 -1 I I #
straight-curve $-1 170.01007110812708 5.7539098606433718 0 0 0 -1 I I #
edge $-1 $761 1 $761 0 $495 $-1 forward 7 unknown #
point $-1 1 0 -0.49999999999999911 #
plane-surface $-1 170.01007110812708 0 0 -1 0 0 0 0 1 forward_v I I I I #
coedge $-1 $504 $502 $506 $678 reversed $326 $-1 #
edge $-1 $517 -85.005035554063539 $680 85.005035554063539 $516 $762 forward 7 unknown #
vertex $-1 $678 $763 #
straight-curve $-1 -170.01007110812708 -3.6634366125600257 0 0 0 -1 I I #
edge $-1 $676 -3.6634366125600257 $680 3.6634366125600257 $674 $764 forward 7 unknown #
straight-curve $-1 0 -3.6634366125600257 -85.005035554063539 -1 0 0 I I #
vertex $-1 $509 $765 #
straight-curve $-1 0 3.6634366125600257 -85.005035554063539 1 0 0 I I #
point $-1 170.01007110812708 3.6634366125600257 -85.005035554063539 #
point $-1 170.01007110812708 -3.6634366125600257 -85.005035554063539 #
straight-curve $-1 -170.01007110812708 0 85.005035554063539 0 -1 0 I I #
point $-1 -170.01007110812708 3.6634366125600257 85.005035554063539 #
point $-1 -170.01007110812708 -3.6634366125600257 85.005035554063539 #
straight-curve $-1 170.01007110812708 -3.6634366125600257 0 0 0 -1 I I #
straight-curve $-1 170.01007110812708 3.6634366125600257 0 0 0 -1 I I #
edge $-1 $766 1 $766 0 $526 $-1 forward 7 unknown #
point $-1 1 0 -0.5 #
edge $-1 $767 1 $767 0 $530 $-1 forward 7 unknown #
point $-1 1 0 -0.5 #
plane-surface $-1 170.01007110812708 0 0 -1 0 0 0 0 1 forward_v I I I I #
coedge $-1 $539 $537 $541 $698 reversed $355 $-1 #
edge $-1 $552 -85.005035554063539 $700 85.005035554063539 $551 $768 forward 7 unknown #
vertex $-1 $698 $769 #
straight-curve $-1 -170.01007110812708 -3.6634366125600257 0 0 0 -1 I I #
edge $-1 $696 -3.6634366125600257 $700 3.6634366125600257 $694 $770 forward 7 unknown #
straight-curve $-1 0 -3.6634366125600257 -85.005035554063539 -1 0 0 I I #
vertex $-1 $544 $771 #
straight-curve $-1 0 3.6634366125600257 -85.005035554063539 1 0 0 I I #
point $-1 170.01007110812708 3.6634366125600257 -85.005035554063539 #
point $-1 170.01007110812708 -3.6634366125600257 -85.005035554063539 #
straight-curve $-1 -170.01007110812708 0 85.005035554063539 0 -1 0 I I #
point $-1 -170.01007110812708 3.6634366125600257 85.005035554063539 #
point $-1 -170.01007110812708 -3.6634366125600257 85.005035554063539 #
straight-curve $-1 170.01007110812708 -3.6634366125600257 0 0 0 -1 I I #
straight-curve $-1 170.01007110812708 3.6634366125600257 0 0 0 -1 I I #
edge $-1 $772 1 $772 0 $561 $-1 forward 7 unknown #
point $-1 1 0 -0.5 #
edge $-1 $773 1 $773 0 $565 $-1 forward 7 unknown #
point $-1 1 0 -0.5 #
plane-surface $-1 170.01007110812708 0 0 -1 0 0 0 0 1 forward_v I I I I #
coedge $-1 $574 $572 $576 $718 reversed $384 $-1 #
edge $-1 $587 -85.005035554063539 $720 85.005035554063539 $586 $774 forward 7 unknown #
vertex $-1 $718 $775 #
straight-curve $-1 -170.01007110812708 -3.6634366125600257 0 0 0 -1 I I #
edge $-1 $716 -3.6634366125600257 $720 3.6634366125600257 $714 $776 forward 7 unknown #
straight-curve $-1 0 -3.6634366125600257 -85.005035554063539 -1 0 0 I I #
vertex $-1 $579 $777 #
straight-curve $-1 0 3.6634366125600257 -85.005035554063539 1 0 0 I I #
point $-1 170.01007110812708 3.6634366125600257 -85.005035554063539 #
point $-1 170.01007110812708 -3.6634366125600257 -85.005035554063539 #
straight-curve $-1 -170.01007110812708 0 85.005035554063539 0 -1 0 I I #
point $-1 -170.01007110812708 3.6634366125600257 85.005035554063539 #
point $-1 -170.01007110812708 -3.6634366125600257 85.005035554063539 #
straight-curve $-1 170.01007110812708 -3.6634366125600257 0 0 0 -1 I I #
straight-curve $-1 170.01007110812708 3.6634366125600257 0 0 0 -1 I I #
edge $-1 $778 1 $778 0 $596 $-1 forward 7 unknown #
point $-1 1 0 -0.5 #
edge $-1 $779 1 $779 0 $600 $-1 forward 7 unknown #
point $-1 1 0 -0.5 #
plane-surface $-1 170.01007110812708 0 0 -1 0 0 0 0 1 forward_v I I I I #
coedge $-1 $609 $607 $611 $738 reversed $413 $-1 #
edge $-1 $622 -85.005035554063539 $740 85.005035554063539 $621 $780 forward 7 unknown #
vertex $-1 $738 $781 #
straight-curve $-1 -170.01007110812708 -3.6634366125600257 0 0 0 -1 I I #
edge $-1 $736 -3.6634366125600257 $740 3.6634366125600257 $734 $782 forward 7 unknown #
straight-curve $-1 0 -3.6634366125600257 -85.005035554063539 -1 0 0 I I #
vertex $-1 $614 $783 #
straight-curve $-1 0 3.6634366125600257 -85.005035554063539 1 0 0 I I #
point $-1 170.01007110812708 3.6634366125600257 -85.005035554063539 #
point $-1 170.01007110812708 -3.6634366125600257 -85.005035554063539 #
straight-curve $-1 -170.01007110812708 0 85.005035554063539 0 -1 0 I I #
point $-1 -170.01007110812708 3.6634366125600257 85.005035554063539 #
point $-1 -170.01007110812708 -3.6634366125600257 85.005035554063539 #
straight-curve $-1 170.01007110812708 -3.6634366125600257 0 0 0 -1 I I #
straight-curve $-1 170.01007110812708 3.6634366125600257 0 0 0 -1 I I #
edge $-1 $784 1 $784 0 $631 $-1 forward 7 unknown #
point $-1 1 0 -0.5 #
edge $-1 $785 1 $785 0 $635 $-1 forward 7 unknown #
point $-1 1 0 -0.5 #
straight-curve $-1 -42.50251777703177 27.143007789752911 0 0 0 -1 I I #
point $-1 -42.50251777703177 -27.143007789752911 -7.4191605874246331 #
straight-curve $-1 -42.50251777703177 0 -7.4191605874246331 0 1 0 I I #
point $-1 -42.50251777703177 27.143007789752911 -7.4191605874246331 #
straight-curve $-1 -170.01007110812708 5.7539098606433718 0 0 0 -1 I I #
point $-1 -170.01007110812708 -5.7539098606433718 -85.005035554063539 #
straight-curve $-1 -170.01007110812708 0 -85.005035554063539 0 1 0 I I #
point $-1 -170.01007110812708 5.7539098606433718 -85.005035554063539 #
vertex $-1 $671 $786 #
straight-curve $-1 -170.01007110812708 3.6634366125600257 0 0 0 -1 I I #
point $-1 -170.01007110812708 -3.6634366125600257 -85.005035554063539 #
straight-curve $-1 -170.01007110812708 0 -85.005035554063539 0 1 0 I I #
point $-1 -170.01007110812708 3.6634366125600257 -85.005035554063539 #
vertex $-1 $689 $787 #
vertex $-1 $691 $788 #
straight-curve $-1 -170.01007110812708 3.6634366125600257 0 0 0 -1 I I #
point $-1 -170.01007110812708 -3.6634366125600257 -85.005035554063539 #
straight-curve $-1 -170.01007110812708 0 -85.005035554063539 0 1 0 I I #
point $-1 -170.01007110812708 3.6634366125600257 -85.005035554063539 #
vertex $-1 $709 $789 #
vertex $-1 $711 $790 #
straight-curve $-1 -170.01007110812708 3.6634366125600257 0 0 0 -1 I I #
point $-1 -170.01007110812708 -3.6634366125600257 -85.005035554063539 #
straight-curve $-1 -170.01007110812708 0 -85.005035554063539 0 1 0 I I #
point $-1 -170.01007110812708 3.6634366125600257 -85.005035554063539 #
vertex $-1 $729 $791 #
vertex $-1 $731 $792 #
straight-curve $-1 -170.01007110812708 3.6634366125600257 0 0 0 -1 I I #
point $-1 -170.01007110812708 -3.6634366125600257 -85.005035554063539 #
straight-curve $-1 -170.01007110812708 0 -85.005035554063539 0 1 0 I I #
point $-1 -170.01007110812708 3.6634366125600257 -85.005035554063539 #
vertex $-1 $749 $793 #
vertex $-1 $751 $794 #
point $-1 0 0 0.49999999999999911 #
point $-1 0 0 0.5 #
point $-1 0 0 0.5 #
point $-1 0 0 0.5 #
point $-1 0 0 0.5 #
point $-1 0 0 0.5 #
point $-1 0 0 0.5 #
point $-1 0 0 0.5 #
point $-1 0 0 0.5 #
End-of-ACIS-data 