500 0 5 0           
7 Unknown 11 ACIS 5.0 NT 24 Thu Mar 25 15:54:48 1999 
-1 9.9999999999999995e-007 1e-010 
body $-1 $5 $-1 $6 #
body $-1 $7 $-1 $8 #
body $-1 $9 $-1 $10 #
body $-1 $11 $-1 $12 #
body $-1 $13 $-1 $14 #
lump $-1 $-1 $15 $0 #
transform $-1 1 0 0 0 1 0 0 0 1 51.849726859340194 22.817234456036314 6.3284801312266499 1 rotate no_reflect no_shear #
lump $-1 $-1 $16 $1 #
transform $-1 1 0 0 0 1 0 0 0 1 51.849726859340194 22.817234456036314 6.3284801312266499 1 rotate no_reflect no_shear #
lump $-1 $-1 $17 $2 #
transform $-1 1 0 0 0 1 0 0 0 1 51.849726859340194 22.817234456036314 6.3284801312266499 1 rotate no_reflect no_shear #
lump $-1 $-1 $18 $3 #
transform $-1 1 0 0 0 1 0 0 0 1 51.849726859340194 22.817234456036314 6.3284801312266499 1 rotate no_reflect no_shear #
lump $-1 $-1 $19 $4 #
transform $-1 1 0 0 0 1 0 0 0 1 51.849726859340194 22.817234456036314 6.3284801312266499 1 rotate no_reflect no_shear #
shell $-1 $-1 $-1 $20 $-1 $5 #
shell $-1 $-1 $-1 $21 $-1 $7 #
shell $-1 $-1 $-1 $22 $-1 $9 #
shell $-1 $-1 $-1 $23 $-1 $11 #
shell $-1 $-1 $-1 $24 $-1 $13 #
face $-1 $25 $26 $15 $-1 $27 forward single #
face $-1 $28 $29 $16 $-1 $30 reversed single #
face $-1 $31 $32 $17 $-1 $33 forward single #
face $-1 $34 $35 $18 $-1 $36 reversed single #
face $-1 $37 $38 $19 $-1 $39 reversed single #
face $-1 $40 $41 $15 $-1 $42 reversed single #
loop $-1 $-1 $43 $20 #
plane-surface $-1 0 0 6.3284801312266499 0 0 1 1 0 0 forward_v I I I I #
face $-1 $44 $45 $16 $-1 $46 forward single #
loop $-1 $-1 $47 $21 #
plane-surface $-1 -48.693324243713903 0 -0.23630989333357655 0 0 1 1 0 0 forward_v I I I I #
face $-1 $48 $49 $17 $-1 $50 forward single #
loop $-1 $-1 $51 $22 #
plane-surface $-1 44.174494355271122 -11.280010800750237 146.63280055366084 0 -1 0 -0.66913061440640931 0 -0.74314481823134659 forward_v I I I I #
face $-1 $52 $53 $18 $-1 $54 reversed single #
loop $-1 $55 $56 $23 #
cone-surface $-1 48.040039986958291 -19.520884840240292 2.8150355428970451 -0.66913061440640931 0 -0.74314481823134659 0.74314481823134659 0 -0.66913061440640931 1 I I 0 1 1 forward I I I I #
face $-1 $57 $58 $19 $-1 $59 reversed single #
loop $-1 $60 $61 $24 #
cone-surface $-1 48.040039986958291 -14.57636041654626 2.8150355428970451 -0.66913061440640931 0 -0.74314481823134659 0.74314481823134659 0 -0.66913061440640931 1 I I 0 1 1 forward I I I I #
face $-1 $62 $63 $15 $-1 $64 reversed single #
loop $-1 $-1 $65 $25 #
plane-surface $-1 0 0 -6.3284801312266499 0 0 1 1 0 0 forward_v I I I I #
coedge $-1 $66 $67 $68 $69 forward $26 $-1 #
face $-1 $70 $71 $16 $-1 $72 forward single #
loop $-1 $-1 $73 $28 #
plane-surface $-1 -48.693324243713903 0 -3.3798264896613208 0 0 1 1 0 0 forward_v I I I I #
coedge $-1 $74 $75 $76 $77 reversed $29 $-1 #
face $-1 $78 $79 $17 $-1 $80 reversed single #
loop $-1 $-1 $81 $31 #
plane-surface $-1 -25.213984825118487 -17.048622628393275 69.569088869202162 0.66913061440640931 0 0.74314481823134659 0.74314481823134659 0 -0.66913061440640931 forward_v I I I I #
coedge $-1 $82 $83 $84 $85 reversed $32 $-1 #
face $-1 $86 $87 $18 $-1 $88 forward single #
loop $-1 $89 $90 $34 #
cone-surface $-1 47.309738659473041 -19.520884840240292 2.0039537666588014 -0.66913061440640931 0 -0.74314481823134659 0.3715724091156733 0 -0.33456530720320465 1 I I -0.70710678118654746 0.70710678118654746 0.5 forward I I I I #
loop $-1 $-1 $91 $23 #
coedge $-1 $56 $56 $92 $93 reversed $35 $-1 #
face $-1 $94 $95 $19 $-1 $96 reversed single #
loop $-1 $97 $98 $37 #
cone-surface $-1 47.309738659473041 -14.57636041654626 2.0039537666588014 -0.66913061440640931 0 -0.74314481823134659 0.3715724091156733 0 -0.33456530720320465 1 I I -0.70710678118654746 0.70710678118654746 0.5 forward I I I I #
loop $-1 $-1 $99 $24 #
coedge $-1 $61 $61 $100 $101 reversed $38 $-1 #
face $-1 $102 $103 $15 $-1 $104 reversed single #
loop $-1 $-1 $105 $40 #
plane-surface $-1 0 -22.817234456036314 0 0 1 0 0 0 1 forward_v I I I I #
coedge $-1 $106 $107 $108 $109 forward $41 $-1 #
coedge $-1 $110 $43 $111 $112 forward $26 $-1 #
coedge $-1 $43 $110 $113 $114 forward $26 $-1 #
coedge $-1 $115 $116 $43 $69 reversed $117 $-1 #
edge $-1 $118 -22.817234456036314 $119 22.817234456036314 $68 $120 forward 7 unknown #
face $-1 $121 $122 $16 $-1 $123 reversed single #
loop $-1 $-1 $124 $44 #
plane-surface $-1 -45.536921628087612 0 -1.8080681914974486 -1 0 0 0 0 1 forward_v I I I I #
coedge $-1 $125 $126 $127 $128 reversed $45 $-1 #
coedge $-1 $129 $47 $130 $131 reversed $29 $-1 #
coedge $-1 $47 $129 $132 $133 reversed $29 $-1 #
coedge $-1 $134 $124 $47 $77 forward $71 $-1 #
edge $-1 $135 -22.817234456036314 $136 22.817234456036314 $76 $137 forward 7 unknown #
face $-1 $138 $139 $17 $-1 $140 reversed single #
loop $-1 $-1 $141 $48 #
plane-surface $-1 51.849726859340194 0 0 -1 0 0 0 0 1 forward_v I I I I #
coedge $-1 $142 $143 $144 $145 reversed $49 $-1 #
coedge $-1 $83 $51 $143 $146 forward $32 $-1 #
coedge $-1 $51 $82 $141 $147 reversed $32 $-1 #
coedge $-1 $148 $144 $51 $85 forward $149 $-1 #
edge $-1 $150 22.934577977504958 $151 29.762479681704633 $84 $152 forward 7 unknown #
face $-1 $153 $154 $18 $-1 $155 forward single #
loop $-1 $-1 $156 $52 #
plane-surface $-1 44.174494355271122 -11.280010800750237 146.63280055366084 0 -1 0 -0.66913061440640931 0 -0.74314481823134659 forward_v I I I I #
loop $-1 $-1 $157 $34 #
coedge $-1 $90 $90 $91 $158 forward $53 $-1 #
coedge $-1 $91 $91 $90 $158 reversed $55 $-1 #
coedge $-1 $92 $92 $56 $93 forward $154 $-1 #
edge $-1 $159 0 $159 6.2831853071796004 $92 $160 forward 7 unknown #
face $-1 $161 $162 $19 $-1 $163 reversed single #
loop $-1 $164 $165 $57 #
cone-surface $-1 48.040039986958291 -19.520884840240292 2.8150355428970451 -0.66913061440640931 0 -0.74314481823134659 0.74314481823134659 0 -0.66913061440640931 1 I I 0 1 1 forward I I I I #
loop $-1 $-1 $166 $37 #
coedge $-1 $98 $98 $99 $167 forward $58 $-1 #
coedge $-1 $99 $99 $98 $167 reversed $60 $-1 #
coedge $-1 $100 $100 $61 $101 forward $168 $-1 #
edge $-1 $169 0 $169 6.2831853071796004 $100 $170 forward 7 unknown #
face $-1 $171 $172 $15 $-1 $173 reversed single #
loop $-1 $-1 $174 $62 #
plane-surface $-1 -51.849726859340194 0 0 1 0 0 0 0 -1 forward_v I I I I #
coedge $-1 $175 $113 $176 $177 forward $63 $-1 #
coedge $-1 $178 $65 $175 $179 forward $41 $-1 #
coedge $-1 $65 $178 $180 $181 forward $41 $-1 #
coedge $-1 $116 $115 $65 $109 reversed $117 $-1 #
edge $-1 $182 -22.817234456036314 $183 22.817234456036314 $108 $184 forward 7 unknown #
coedge $-1 $67 $66 $185 $186 forward $26 $-1 #
coedge $-1 $187 $188 $66 $112 reversed $172 $-1 #
edge $-1 $119 -51.849726859340194 $189 51.849726859340194 $111 $190 forward 7 unknown #
coedge $-1 $105 $191 $67 $114 reversed $63 $-1 #
edge $-1 $192 -51.849726859340194 $118 51.849726859340194 $113 $193 forward 7 unknown #
coedge $-1 $108 $68 $191 $194 forward $117 $-1 #
coedge $-1 $68 $108 $187 $195 reversed $117 $-1 #
loop $-1 $-1 $115 $171 #
vertex $-1 $69 $196 #
vertex $-1 $69 $197 #
straight-curve $-1 51.849726859340194 0 6.3284801312266499 0 1 0 I I #
face $-1 $198 $199 $16 $-1 $123 reversed single #
loop $-1 $-1 $200 $70 #
plane-surface $-1 -51.849726859340194 0 0 1 0 0 0 0 -1 forward_v I I I I #
coedge $-1 $76 $127 $201 $202 reversed $71 $-1 #
coedge $-1 $203 $73 $204 $205 reversed $45 $-1 #
coedge $-1 $73 $203 $206 $207 reversed $45 $-1 #
coedge $-1 $124 $134 $73 $128 forward $71 $-1 #
edge $-1 $208 -22.817234456036314 $209 22.817234456036314 $127 $210 forward 7 unknown #
coedge $-1 $75 $74 $211 $212 reversed $29 $-1 #
coedge $-1 $201 $213 $74 $131 forward $214 $-1 #
edge $-1 $215 -27.503064737483243 $135 -21.19025950623066 $130 $216 forward 7 unknown #
coedge $-1 $217 $218 $75 $133 forward $219 $-1 #
edge $-1 $136 21.19025950623066 $220 27.503064737483243 $132 $221 forward 7 unknown #
coedge $-1 $127 $76 $218 $222 reversed $71 $-1 #
vertex $-1 $131 $223 #
vertex $-1 $133 $224 #
straight-curve $-1 -45.536921628087612 0 -0.23630989333357655 0 1 0 I I #
face $-1 $225 $226 $17 $-1 $227 forward single #
loop $-1 $-1 $228 $78 #
plane-surface $-1 -48.693324243713903 0 -0.23630989333357655 0 0 1 1 0 0 forward_v I I I I #
coedge $-1 $229 $230 $83 $147 forward $79 $-1 #
coedge $-1 $231 $81 $232 $233 reversed $49 $-1 #
coedge $-1 $81 $231 $82 $146 reversed $49 $-1 #
coedge $-1 $84 $234 $81 $145 forward $149 $-1 #
edge $-1 $235 -14.292923141839676 $150 -2.7556994865535991 $144 $236 forward 7 unknown #
edge $-1 $150 94.511605621387872 $237 103.69945371868039 $82 $238 forward 7 unknown #
edge $-1 $151 66.987920145603766 $237 73.135790588017883 $141 $239 forward 7 unknown #
coedge $-1 $240 $84 $230 $241 forward $149 $-1 #
loop $-1 $-1 $84 $242 #
vertex $-1 $145 $243 #
vertex $-1 $241 $244 #
straight-curve $-1 22.087247177635561 -11.280010800750237 6.3284801312266552 1 0 0 I I #
face $-1 $245 $246 $18 $-1 $247 reversed single #
loop $-1 $248 $92 $86 #
plane-surface $-1 -25.213984825118487 -17.048622628393275 69.569088869202162 0.66913061440640931 0 0.74314481823134659 0.74314481823134659 0 -0.66913061440640931 forward_v I I I I #
coedge $-1 $249 $250 $251 $252 reversed $87 $-1 #
coedge $-1 $157 $157 $-1 $253 forward $89 $-1 #
edge $-1 $254 0 $254 6.2831853071796004 $90 $255 forward 7 unknown #
vertex $-1 $93 $256 #
ellipse-curve $-1 48.435776007240328 -19.520884840240292 3.2545449100196082 -0.66913061440640931 0 -0.74314481823134659 0.74314481823134659 0 -0.66913061440640931 1 I I #
face $-1 $257 $258 $19 $-1 $259 forward single #
loop $-1 $260 $261 $94 #
cone-surface $-1 47.309738659473041 -19.520884840240292 2.0039537666588014 -0.66913061440640931 0 -0.74314481823134659 0.3715724091156733 0 -0.33456530720320465 1 I I -0.70710678118654746 0.70710678118654746 0.5 forward I I I I #
loop $-1 $-1 $262 $57 #
coedge $-1 $165 $165 $263 $264 reversed $95 $-1 #
coedge $-1 $166 $166 $-1 $265 forward $97 $-1 #
edge $-1 $266 0 $266 6.2831853071796004 $98 $267 forward 7 unknown #
loop $-1 $268 $100 $257 #
vertex $-1 $101 $269 #
ellipse-curve $-1 48.435776007240328 -14.57636041654626 3.2545449100196082 -0.66913061440640931 0 -0.74314481823134659 0.74314481823134659 0 -0.66913061440640931 1 I I #
face $-1 $-1 $117 $15 $-1 $270 reversed single #
loop $-1 $-1 $187 $102 #
plane-surface $-1 0 22.817234456036314 0 0 -1 0 0 0 -1 forward_v I I I I #
coedge $-1 $271 $185 $188 $272 forward $103 $-1 #
coedge $-1 $191 $105 $106 $179 reversed $63 $-1 #
coedge $-1 $185 $271 $105 $177 reversed $103 $-1 #
edge $-1 $192 -6.3284801312266499 $273 6.3284801312266499 $176 $274 forward 7 unknown #
coedge $-1 $107 $106 $271 $275 forward $41 $-1 #
edge $-1 $183 -51.849726859340194 $273 51.849726859340194 $175 $276 forward 7 unknown #
coedge $-1 $188 $187 $107 $181 reversed $172 $-1 #
edge $-1 $277 -51.849726859340194 $182 51.849726859340194 $180 $278 forward 7 unknown #
vertex $-1 $109 $279 #
vertex $-1 $194 $280 #
straight-curve $-1 51.849726859340194 0 -6.3284801312266499 0 -1 0 I I #
coedge $-1 $174 $176 $110 $186 reversed $103 $-1 #
edge $-1 $189 -22.817234456036314 $192 22.817234456036314 $185 $281 forward 7 unknown #
coedge $-1 $180 $111 $116 $195 forward $172 $-1 #
coedge $-1 $111 $180 $174 $272 reversed $172 $-1 #
vertex $-1 $112 $282 #
straight-curve $-1 0 22.817234456036314 6.3284801312266499 -1 0 0 I I #
coedge $-1 $113 $175 $115 $194 reversed $63 $-1 #
vertex $-1 $186 $283 #
straight-curve $-1 0 -22.817234456036314 6.3284801312266499 1 0 0 I I #
edge $-1 $118 -6.3284801312266499 $183 6.3284801312266499 $115 $284 forward 7 unknown #
edge $-1 $119 -6.3284801312266499 $182 6.3284801312266499 $116 $285 forward 7 unknown #
point $-1 51.849726859340194 -22.817234456036314 6.3284801312266499 #
point $-1 51.849726859340194 22.817234456036314 6.3284801312266499 #
face $-1 $286 $214 $16 $-1 $287 reversed single #
loop $-1 $-1 $211 $121 #
coedge $-1 $288 $289 $203 $290 forward $122 $-1 #
coedge $-1 $206 $130 $124 $202 forward $214 $-1 #
edge $-1 $135 -0.66772420241514774 $209 2.4757923939125965 $201 $291 forward 7 unknown #
coedge $-1 $126 $125 $200 $290 reversed $45 $-1 #
coedge $-1 $218 $292 $125 $205 forward $219 $-1 #
edge $-1 $293 -27.503064737483243 $208 -21.19025950623066 $204 $294 forward 7 unknown #
coedge $-1 $295 $201 $126 $207 forward $214 $-1 #
edge $-1 $209 21.19025950623066 $296 27.503064737483243 $206 $297 forward 7 unknown #
vertex $-1 $205 $298 #
vertex $-1 $207 $299 #
straight-curve $-1 -45.536921628087612 0 -3.3798264896613208 0 -1 0 I I #
coedge $-1 $300 $301 $129 $212 forward $199 $-1 #
edge $-1 $220 -22.817234456036314 $215 22.817234456036314 $211 $302 forward 7 unknown #
coedge $-1 $130 $303 $300 $304 forward $214 $-1 #
loop $-1 $-1 $130 $198 #
vertex $-1 $131 $305 #
straight-curve $-1 -24.346662121856951 -22.817234456036314 -0.23630989333357655 1 0 0 I I #
coedge $-1 $306 $132 $301 $307 reversed $219 $-1 #
coedge $-1 $132 $204 $134 $222 forward $219 $-1 #
loop $-1 $-1 $132 $308 #
vertex $-1 $212 $309 #
straight-curve $-1 -24.346662121856951 22.817234456036314 -0.23630989333357655 -1 0 0 I I #
edge $-1 $208 -2.4757923939125965 $136 0.66772420241514774 $218 $310 forward 7 unknown #
point $-1 -45.536921628087612 -22.817234456036314 -0.23630989333357655 #
point $-1 -45.536921628087612 22.817234456036314 -0.23630989333357655 #
face $-1 $311 $312 $17 $-1 $313 forward single #
loop $-1 $-1 $314 $138 #
plane-surface $-1 -48.693324243713903 0 -3.3798264896613208 0 0 1 1 0 0 forward_v I I I I #
coedge $-1 $315 $316 $317 $318 reversed $139 $-1 #
coedge $-1 $319 $141 $231 $320 forward $79 $-1 #
coedge $-1 $141 $321 $148 $241 reversed $79 $-1 #
coedge $-1 $143 $142 $229 $320 reversed $49 $-1 #
coedge $-1 $322 $323 $142 $233 forward $324 $-1 #
edge $-1 $325 -71.055229044433418 $235 -61.867380947140902 $232 $326 forward 7 unknown #
coedge $-1 $144 $327 $322 $328 forward $149 $-1 #
vertex $-1 $233 $329 #
straight-curve $-1 45.021825155140533 -8.5243113141966376 6.3284801312266481 0 1 0 I I #
vertex $-1 $320 $330 #
straight-curve $-1 -25.213984825118487 -11.280010800750237 69.569088869202162 0.74314481823134659 0 -0.66913061440640931 I I #
straight-curve $-1 51.849726859340194 -11.280010800750237 73.316400276830421 0 0 -1 I I #
coedge $-1 $327 $148 $331 $332 forward $149 $-1 #
edge $-1 $151 -11.280010800750237 $333 22.817234456036314 $230 $334 forward 7 unknown #
face $-1 $335 $149 $17 $-1 $336 forward single #
point $-1 45.021825155140519 -11.280010800750237 6.3284801312266481 #
point $-1 51.849726859340194 -11.280010800750237 6.3284801312266499 #
face $-1 $337 $338 $18 $-1 $339 reversed single #
loop $-1 $-1 $340 $153 #
plane-surface $-1 51.849726859340194 0 0 -1 0 0 0 0 1 forward_v I I I I #
loop $-1 $-1 $341 $86 #
coedge $-1 $250 $156 $342 $343 forward $87 $-1 #
coedge $-1 $156 $249 $340 $344 reversed $87 $-1 #
coedge $-1 $345 $346 $156 $252 forward $347 $-1 #
edge $-1 $348 22.934577977504958 $349 29.762479681704633 $251 $350 forward 7 unknown #
edge $-1 $351 1 $351 0 $157 $-1 forward 7 unknown #
vertex $-1 $158 $352 #
ellipse-curve $-1 47.644303966676247 -19.520884840240292 2.3755261757744748 0.66913061440640931 0 0.74314481823134659 0.74314481823134659 0 -0.66913061440640931 1 I I #
point $-1 49.178920825471685 -19.520884840240292 2.5854142956132065 #
face $-1 $353 $168 $19 $-1 $354 forward single #
loop $-1 $-1 $355 $161 #
plane-surface $-1 44.174494355271122 -11.280010800750237 146.63280055366084 0 -1 0 -0.66913061440640931 0 -0.74314481823134659 forward_v I I I I #
loop $-1 $-1 $356 $94 #
coedge $-1 $261 $261 $262 $357 forward $162 $-1 #
coedge $-1 $262 $262 $261 $357 reversed $164 $-1 #
coedge $-1 $263 $263 $165 $264 forward $268 $-1 #
edge $-1 $358 0 $358 6.2831853071796004 $263 $359 forward 7 unknown #
edge $-1 $360 1 $360 0 $166 $-1 forward 7 unknown #
vertex $-1 $167 $361 #
ellipse-curve $-1 47.644303966676247 -14.57636041654626 2.3755261757744748 0.66913061440640931 0 0.74314481823134659 0.74314481823134659 0 -0.66913061440640931 1 I I #
loop $-1 $362 $263 $257 #
point $-1 49.178920825471685 -14.57636041654626 2.5854142956132065 #
plane-surface $-1 51.849726859340194 0 0 -1 0 0 0 0 1 forward_v I I I I #
coedge $-1 $176 $174 $178 $275 reversed $103 $-1 #
edge $-1 $189 -6.3284801312266499 $277 6.3284801312266499 $188 $363 forward 7 unknown #
vertex $-1 $275 $364 #
straight-curve $-1 -51.849726859340194 -22.817234456036314 0 0 0 -1 I I #
edge $-1 $273 -22.817234456036314 $277 22.817234456036314 $271 $365 forward 7 unknown #
straight-curve $-1 0 -22.817234456036314 -6.3284801312266499 -1 0 0 I I #
vertex $-1 $181 $366 #
straight-curve $-1 0 22.817234456036314 -6.3284801312266499 1 0 0 I I #
point $-1 51.849726859340194 22.817234456036314 -6.3284801312266499 #
point $-1 51.849726859340194 -22.817234456036314 -6.3284801312266499 #
straight-curve $-1 -51.849726859340194 0 6.3284801312266499 0 -1 0 I I #
point $-1 -51.849726859340194 22.817234456036314 6.3284801312266499 #
point $-1 -51.849726859340194 -22.817234456036314 6.3284801312266499 #
straight-curve $-1 51.849726859340194 -22.817234456036314 0 0 0 -1 I I #
straight-curve $-1 51.849726859340194 22.817234456036314 0 0 0 -1 I I #
face $-1 $367 $368 $16 $-1 $369 forward single #
plane-surface $-1 0 -22.817234456036314 0 0 1 0 0 0 1 forward_v I I I I #
coedge $-1 $370 $200 $292 $371 forward $122 $-1 #
coedge $-1 $200 $370 $295 $372 reversed $122 $-1 #
edge $-1 $296 -22.817234456036314 $293 22.817234456036314 $200 $373 forward 7 unknown #
straight-curve $-1 -45.536921628087612 -22.817234456036314 -0.90403409574872429 0 0 -1 I I #
coedge $-1 $204 $374 $288 $371 reversed $219 $-1 #
vertex $-1 $371 $375 #
straight-curve $-1 -24.346662121856951 22.817234456036314 -3.3798264896613208 1 0 0 I I #
coedge $-1 $376 $206 $289 $372 forward $214 $-1 #
vertex $-1 $372 $377 #
straight-curve $-1 -24.346662121856951 -22.817234456036314 -3.3798264896613208 -1 0 0 I I #
point $-1 -45.536921628087612 22.817234456036314 -3.3798264896613208 #
point $-1 -45.536921628087612 -22.817234456036314 -3.3798264896613208 #
coedge $-1 $378 $211 $213 $304 reversed $199 $-1 #
coedge $-1 $211 $378 $217 $307 forward $199 $-1 #
straight-curve $-1 -51.849726859340194 0 -0.23630989333357655 0 -1 0 I I #
coedge $-1 $213 $379 $380 $381 reversed $214 $-1 #
edge $-1 $382 -6.3284801312266499 $215 0.23630989333357655 $300 $383 forward 7 unknown #
point $-1 -51.849726859340194 -22.817234456036314 -0.23630989333357655 #
coedge $-1 $384 $217 $385 $386 reversed $219 $-1 #
edge $-1 $387 -6.3284801312266499 $220 0.23630989333357655 $217 $388 forward 7 unknown #
face $-1 $389 $219 $16 $-1 $390 reversed single #
point $-1 -51.849726859340194 22.817234456036314 -0.23630989333357655 #
straight-curve $-1 -45.536921628087612 22.817234456036314 -0.90403409574872429 0 0 1 I I #
face $-1 $391 $392 $17 $-1 $393 reversed single #
loop $-1 $-1 $394 $225 #
plane-surface $-1 -45.536921628087612 0 -1.8080681914974486 -1 0 0 0 0 1 forward_v I I I I #
coedge $-1 $395 $396 $397 $398 reversed $226 $-1 #
coedge $-1 $399 $228 $400 $401 reversed $139 $-1 #
coedge $-1 $228 $399 $402 $403 reversed $139 $-1 #
coedge $-1 $404 $394 $228 $318 forward $312 $-1 #
edge $-1 $405 -22.817234456036314 $406 22.817234456036314 $317 $407 forward 7 unknown #
coedge $-1 $408 $229 $323 $409 forward $79 $-1 #
edge $-1 $237 2.7556994865535991 $325 14.292923141839676 $229 $410 forward 7 unknown #
coedge $-1 $230 $408 $411 $412 reversed $79 $-1 #
coedge $-1 $413 $232 $234 $328 reversed $324 $-1 #
coedge $-1 $232 $414 $319 $409 reversed $324 $-1 #
loop $-1 $-1 $232 $415 #
vertex $-1 $409 $416 #
straight-curve $-1 -0.95459841327198447 -22.817234456036314 47.725838756102419 -0.74314481823134659 0 0.66913061440640931 I I #
coedge $-1 $234 $240 $417 $418 forward $149 $-1 #
edge $-1 $419 -51.849726859340194 $235 45.021825155140512 $322 $420 forward 7 unknown #
point $-1 45.021825155140512 -22.817234456036314 6.3284801312266499 #
point $-1 51.849726859340194 -11.280010800750237 0.18060968881253814 #
coedge $-1 $411 $421 $240 $332 reversed $422 $-1 #
edge $-1 $333 -51.849726859340194 $423 51.849726859340194 $331 $424 forward 7 unknown #
vertex $-1 $241 $425 #
straight-curve $-1 51.849726859340194 0 6.3284801312266499 0 1 0 I I #
face $-1 $426 $427 $17 $-1 $428 reversed single #
plane-surface $-1 0 0 6.3284801312266499 0 0 1 1 0 0 forward_v I I I I #
face $-1 $429 $430 $18 $-1 $431 forward single #
loop $-1 $-1 $432 $245 #
plane-surface $-1 -48.693324243713903 0 -0.23630989333357655 0 0 1 1 0 0 forward_v I I I I #
coedge $-1 $433 $434 $250 $344 forward $246 $-1 #
coedge $-1 $435 $342 $346 $436 reversed $248 $-1 #
coedge $-1 $341 $437 $249 $343 reversed $248 $-1 #
edge $-1 $348 94.511605621387872 $438 103.69945371868039 $249 $439 forward 7 unknown #
edge $-1 $349 66.987920145603766 $438 73.135790588017883 $340 $440 forward 7 unknown #
coedge $-1 $441 $251 $434 $442 forward $347 $-1 #
coedge $-1 $251 $443 $341 $436 forward $347 $-1 #
loop $-1 $-1 $251 $444 #
vertex $-1 $436 $445 #
vertex $-1 $442 $446 #
straight-curve $-1 22.087247177635561 -11.280010800750237 6.3284801312266552 1 0 0 I I #
vertex $-1 $253 $447 #
point $-1 48.38744878490759 -19.520884840240292 1.7063955613680655 #
face $-1 $448 $449 $19 $-1 $450 reversed single #
plane-surface $-1 -25.213984825118487 -17.048622628393275 69.569088869202162 0.66913061440640931 0 0.74314481823134659 0.74314481823134659 0 -0.66913061440640931 forward_v I I I I #
coedge $-1 $451 $452 $453 $454 reversed $258 $-1 #
coedge $-1 $356 $356 $-1 $455 forward $260 $-1 #
edge $-1 $456 0 $456 6.2831853071796004 $261 $457 forward 7 unknown #
vertex $-1 $264 $458 #
ellipse-curve $-1 48.435776007240328 -19.520884840240292 3.2545449100196082 -0.66913061440640931 0 -0.74314481823134659 0.74314481823134659 0 -0.66913061440640931 1 I I #
vertex $-1 $265 $459 #
point $-1 48.38744878490759 -14.57636041654626 1.7063955613680655 #
loop $-1 $-1 $460 $257 #
straight-curve $-1 -51.849726859340194 22.817234456036314 0 0 0 -1 I I #
point $-1 -51.849726859340194 -22.817234456036314 -6.3284801312266499 #
straight-curve $-1 -51.849726859340194 0 -6.3284801312266499 0 1 0 I I #
point $-1 -51.849726859340194 22.817234456036314 -6.3284801312266499 #
face $-1 $308 $461 $16 $-1 $462 reversed single #
loop $-1 $-1 $463 $286 #
plane-surface $-1 0 0 6.3284801312266499 0 0 1 1 0 0 forward_v I I I I #
coedge $-1 $289 $288 $464 $465 reversed $122 $-1 #
edge $-1 $293 3.3798264896613208 $466 6.3284801312266499 $292 $388 forward 7 unknown #
edge $-1 $296 3.3798264896613208 $467 6.3284801312266499 $289 $383 forward 7 unknown #
straight-curve $-1 -51.849726859340194 0 -3.3798264896613208 0 1 0 I I #
coedge $-1 $292 $384 $468 $469 reversed $219 $-1 #
point $-1 -51.849726859340194 22.817234456036314 -3.3798264896613208 #
coedge $-1 $379 $295 $470 $471 reversed $214 $-1 #
point $-1 -51.849726859340194 -22.817234456036314 -3.3798264896613208 #
coedge $-1 $301 $300 $472 $473 reversed $199 $-1 #
coedge $-1 $303 $376 $474 $475 reversed $214 $-1 #
coedge $-1 $463 $472 $303 $381 forward $368 $-1 #
edge $-1 $382 -51.849726859340194 $476 51.849726859340194 $303 $477 forward 7 unknown #
vertex $-1 $473 $478 #
straight-curve $-1 -51.849726859340194 -22.817234456036314 0 0 0 -1 I I #
coedge $-1 $374 $306 $479 $480 forward $219 $-1 #
coedge $-1 $472 $463 $306 $386 forward $368 $-1 #
edge $-1 $481 -51.849726859340194 $387 51.849726859340194 $306 $482 forward 7 unknown #
vertex $-1 $386 $483 #
straight-curve $-1 -51.849726859340194 22.817234456036314 0 0 0 -1 I I #
face $-1 $-1 $484 $16 $-1 $485 reversed single #
plane-surface $-1 0 22.817234456036314 0 0 -1 0 0 0 -1 forward_v I I I I #
face $-1 $415 $486 $17 $-1 $393 reversed single #
loop $-1 $-1 $487 $311 #
plane-surface $-1 -51.849726859340194 0 0 1 0 0 0 0 -1 forward_v I I I I #
coedge $-1 $317 $397 $488 $489 reversed $312 $-1 #
coedge $-1 $490 $314 $491 $492 reversed $226 $-1 #
coedge $-1 $314 $490 $493 $494 reversed $226 $-1 #
coedge $-1 $394 $404 $314 $398 forward $312 $-1 #
edge $-1 $495 -22.817234456036314 $496 22.817234456036314 $397 $497 forward 7 unknown #
coedge $-1 $316 $315 $498 $499 reversed $139 $-1 #
coedge $-1 $488 $413 $315 $401 forward $324 $-1 #
edge $-1 $500 -27.503064737483243 $405 -21.19025950623066 $400 $501 forward 7 unknown #
coedge $-1 $421 $502 $316 $403 forward $422 $-1 #
edge $-1 $406 21.19025950623066 $503 27.503064737483243 $402 $504 forward 7 unknown #
coedge $-1 $397 $317 $502 $505 reversed $312 $-1 #
vertex $-1 $401 $506 #
vertex $-1 $403 $507 #
straight-curve $-1 -45.536921628087612 0 -0.23630989333357655 0 1 0 I I #
coedge $-1 $321 $319 $508 $509 reversed $79 $-1 #
edge $-1 $325 -0.180609688812539 $510 6.3284801312266499 $319 $511 forward 7 unknown #
straight-curve $-1 51.849726859340187 -8.5243113141966376 0.18060968881254524 0 -1 0 I I #
coedge $-1 $512 $331 $321 $412 forward $422 $-1 #
edge $-1 $333 -6.3284801312266499 $513 6.3284801312266499 $321 $514 forward 7 unknown #
coedge $-1 $400 $322 $515 $516 forward $324 $-1 #
coedge $-1 $323 $517 $518 $519 reversed $324 $-1 #
face $-1 $242 $324 $17 $-1 $520 reversed single #
point $-1 51.849726859340194 -22.817234456036314 0.180609688812539 #
coedge $-1 $521 $515 $327 $418 reversed $486 $-1 #
edge $-1 $423 -22.817234456036314 $419 22.817234456036314 $417 $522 forward 7 unknown #
vertex $-1 $418 $523 #
straight-curve $-1 0 -22.817234456036314 6.3284801312266499 1 0 0 I I #
coedge $-1 $331 $402 $521 $524 reversed $422 $-1 #
loop $-1 $-1 $402 $426 #
vertex $-1 $332 $525 #
straight-curve $-1 0 22.817234456036314 6.3284801312266499 -1 0 0 I I #
point $-1 51.849726859340194 22.817234456036314 6.3284801312266499 #
face $-1 $-1 $422 $17 $-1 $526 reversed single #
loop $-1 $-1 $508 $335 #
plane-surface $-1 0 0 -6.3284801312266499 0 0 1 1 0 0 forward_v I I I I #
face $-1 $527 $528 $18 $-1 $529 forward single #
loop $-1 $-1 $530 $337 #
plane-surface $-1 -48.693324243713903 0 -3.3798264896613208 0 0 1 1 0 0 forward_v I I I I #
coedge $-1 $531 $532 $533 $534 reversed $338 $-1 #
coedge $-1 $535 $340 $437 $536 forward $246 $-1 #
coedge $-1 $340 $537 $345 $442 reversed $246 $-1 #
coedge $-1 $437 $341 $538 $539 reversed $248 $-1 #
edge $-1 $540 -14.292923141839676 $348 -2.7556994865535991 $346 $541 forward 7 unknown #
coedge $-1 $342 $435 $433 $536 reversed $248 $-1 #
vertex $-1 $536 $542 #
straight-curve $-1 -25.213984825118487 -11.280010800750237 69.569088869202162 0.74314481823134659 0 -0.66913061440640931 I I #
straight-curve $-1 51.849726859340194 -11.280010800750237 73.316400276830421 0 0 -1 I I #
coedge $-1 $543 $345 $544 $545 forward $347 $-1 #
edge $-1 $349 -11.280010800750237 $546 22.817234456036314 $434 $547 forward 7 unknown #
coedge $-1 $346 $543 $548 $549 forward $347 $-1 #
face $-1 $550 $347 $18 $-1 $551 forward single #
point $-1 45.021825155140519 -11.280010800750237 6.3284801312266481 #
point $-1 51.849726859340194 -11.280010800750237 6.3284801312266499 #
point $-1 46.975173352269834 -19.520884840240292 1.6323813575431281 #
face $-1 $552 $553 $19 $-1 $554 reversed single #
loop $-1 $-1 $555 $353 #
plane-surface $-1 51.849726859340194 0 0 -1 0 0 0 0 1 forward_v I I I I #
coedge $-1 $452 $355 $556 $557 forward $258 $-1 #
coedge $-1 $355 $451 $555 $558 reversed $258 $-1 #
coedge $-1 $559 $560 $355 $454 forward $561 $-1 #
edge $-1 $562 22.934577977504958 $563 29.762479681704633 $453 $564 forward 7 unknown #
edge $-1 $565 1 $565 0 $356 $-1 forward 7 unknown #
vertex $-1 $357 $566 #
ellipse-curve $-1 47.644303966676247 -19.520884840240292 2.3755261757744748 0.66913061440640931 0 0.74314481823134659 0.74314481823134659 0 -0.66913061440640931 1 I I #
point $-1 49.178920825471685 -19.520884840240292 2.5854142956132065 #
point $-1 46.975173352269834 -14.57636041654626 1.6323813575431281 #
coedge $-1 $567 $556 $560 $568 reversed $362 $-1 #
loop $-1 $-1 $569 $367 #
plane-surface $-1 0 0 -6.3284801312266499 0 0 1 1 0 0 forward_v I I I I #
coedge $-1 $385 $380 $570 $571 forward $368 $-1 #
coedge $-1 $468 $470 $370 $465 forward $461 $-1 #
edge $-1 $467 -22.817234456036314 $466 22.817234456036314 $370 $572 forward 7 unknown #
vertex $-1 $469 $573 #
vertex $-1 $465 $574 #
coedge $-1 $569 $464 $374 $469 forward $461 $-1 #
edge $-1 $466 -51.849726859340194 $575 51.849726859340194 $374 $576 forward 7 unknown #
coedge $-1 $464 $569 $376 $471 forward $461 $-1 #
edge $-1 $577 -51.849726859340194 $467 51.849726859340194 $376 $578 forward 7 unknown #
coedge $-1 $380 $385 $378 $473 forward $368 $-1 #
edge $-1 $387 -22.817234456036314 $382 22.817234456036314 $378 $579 forward 7 unknown #
coedge $-1 $580 $570 $379 $475 forward $484 $-1 #
edge $-1 $476 -6.3284801312266499 $577 6.3284801312266499 $474 $581 forward 7 unknown #
vertex $-1 $571 $582 #
straight-curve $-1 0 -22.817234456036314 6.3284801312266499 1 0 0 I I #
point $-1 -51.849726859340194 -22.817234456036314 6.3284801312266499 #
coedge $-1 $570 $580 $384 $480 reversed $484 $-1 #
edge $-1 $481 -6.3284801312266499 $575 6.3284801312266499 $479 $583 forward 7 unknown #
vertex $-1 $571 $584 #
straight-curve $-1 0 22.817234456036314 6.3284801312266499 -1 0 0 I I #
point $-1 -51.849726859340194 22.817234456036314 6.3284801312266499 #
loop $-1 $-1 $474 $389 #
plane-surface $-1 51.849726859340194 0 0 -1 0 0 0 0 1 forward_v I I I I #
loop $-1 $-1 $498 $391 #
coedge $-1 $585 $586 $490 $587 forward $392 $-1 #
coedge $-1 $493 $400 $394 $489 forward $324 $-1 #
edge $-1 $405 -0.66772420241514774 $496 2.4757923939125965 $488 $588 forward 7 unknown #
coedge $-1 $396 $395 $487 $587 reversed $226 $-1 #
coedge $-1 $502 $589 $395 $492 forward $422 $-1 #
edge $-1 $590 -27.503064737483243 $495 -21.19025950623066 $491 $591 forward 7 unknown #
coedge $-1 $517 $488 $396 $494 forward $324 $-1 #
edge $-1 $496 21.19025950623066 $592 27.503064737483243 $493 $593 forward 7 unknown #
vertex $-1 $492 $594 #
vertex $-1 $494 $595 #
straight-curve $-1 -45.536921628087612 0 -3.3798264896613208 0 -1 0 I I #
coedge $-1 $515 $521 $399 $499 forward $486 $-1 #
edge $-1 $503 -22.817234456036314 $500 22.817234456036314 $498 $596 forward 7 unknown #
vertex $-1 $401 $597 #
straight-curve $-1 -24.346662121856951 -22.817234456036314 -0.23630989333357655 1 0 0 I I #
coedge $-1 $402 $491 $404 $505 forward $422 $-1 #
vertex $-1 $499 $598 #
straight-curve $-1 -24.346662121856951 22.817234456036314 -0.23630989333357655 -1 0 0 I I #
edge $-1 $495 -2.4757923939125965 $406 0.66772420241514774 $502 $599 forward 7 unknown #
point $-1 -45.536921628087612 -22.817234456036314 -0.23630989333357655 #
point $-1 -45.536921628087612 22.817234456036314 -0.23630989333357655 #
coedge $-1 $518 $600 $408 $509 forward $427 $-1 #
edge $-1 $513 -22.817234456036314 $510 22.817234456036314 $408 $601 forward 7 unknown #
vertex $-1 $409 $602 #
straight-curve $-1 51.849726859340194 -22.817234456036314 0 0 0 -1 I I #
coedge $-1 $589 $411 $600 $603 reversed $422 $-1 #
vertex $-1 $509 $604 #
straight-curve $-1 51.849726859340194 22.817234456036314 0 0 0 -1 I I #
coedge $-1 $417 $498 $413 $516 reversed $486 $-1 #
edge $-1 $419 -6.3284801312266499 $500 0.23630989333357655 $515 $605 forward 7 unknown #
coedge $-1 $414 $493 $586 $606 forward $324 $-1 #
coedge $-1 $607 $508 $414 $519 forward $427 $-1 #
edge $-1 $510 -51.849726859340194 $608 51.849726859340194 $414 $609 forward 7 unknown #
plane-surface $-1 0 -22.817234456036314 0 0 1 0 0 0 1 forward_v I I I I #
coedge $-1 $498 $417 $421 $524 forward $486 $-1 #
straight-curve $-1 -51.849726859340194 0 6.3284801312266499 0 -1 0 I I #
point $-1 -51.849726859340194 -22.817234456036314 6.3284801312266499 #
edge $-1 $423 -6.3284801312266499 $503 0.23630989333357655 $421 $610 forward 7 unknown #
point $-1 -51.849726859340194 22.817234456036314 6.3284801312266499 #
plane-surface $-1 0 22.817234456036314 0 0 -1 0 0 0 -1 forward_v I I I I #
face $-1 $611 $612 $18 $-1 $613 reversed single #
loop $-1 $-1 $614 $429 #
plane-surface $-1 -45.536921628087612 0 -1.8080681914974486 -1 0 0 0 0 1 forward_v I I I I #
coedge $-1 $615 $616 $617 $618 reversed $430 $-1 #
coedge $-1 $619 $432 $620 $621 reversed $338 $-1 #
coedge $-1 $432 $619 $622 $623 reversed $338 $-1 #
coedge $-1 $624 $614 $432 $534 forward $528 $-1 #
edge $-1 $625 -22.817234456036314 $626 22.817234456036314 $533 $627 forward 7 unknown #
coedge $-1 $628 $433 $629 $630 forward $246 $-1 #
edge $-1 $438 2.7556994865535991 $631 14.292923141839676 $433 $632 forward 7 unknown #
coedge $-1 $434 $628 $633 $634 reversed $246 $-1 #
coedge $-1 $548 $629 $435 $539 forward $635 $-1 #
edge $-1 $631 -71.055229044433418 $540 -61.867380947140902 $538 $636 forward 7 unknown #
vertex $-1 $539 $637 #
straight-curve $-1 45.021825155140533 -8.5243113141966376 6.3284801312266481 0 1 0 I I #
point $-1 51.849726859340194 -11.280010800750237 0.18060968881253814 #
coedge $-1 $443 $441 $638 $639 forward $347 $-1 #
coedge $-1 $633 $640 $441 $545 reversed $641 $-1 #
edge $-1 $546 -51.849726859340194 $642 51.849726859340194 $544 $643 forward 7 unknown #
vertex $-1 $442 $644 #
straight-curve $-1 51.849726859340194 0 6.3284801312266499 0 1 0 I I #
coedge $-1 $645 $538 $443 $549 reversed $635 $-1 #
edge $-1 $646 -51.849726859340194 $540 45.021825155140512 $548 $647 forward 7 unknown #
face $-1 $648 $649 $18 $-1 $650 reversed single #
plane-surface $-1 0 0 6.3284801312266499 0 0 1 1 0 0 forward_v I I I I #
face $-1 $651 $652 $19 $-1 $653 forward single #
loop $-1 $-1 $654 $448 #
plane-surface $-1 -48.693324243713903 0 -0.23630989333357655 0 0 1 1 0 0 forward_v I I I I #
coedge $-1 $655 $656 $452 $558 forward $449 $-1 #
coedge $-1 $460 $657 $451 $557 reversed $362 $-1 #
edge $-1 $562 94.511605621387872 $658 103.69945371868039 $451 $659 forward 7 unknown #
edge $-1 $563 66.987920145603766 $658 73.135790588017883 $555 $660 forward 7 unknown #
coedge $-1 $661 $453 $656 $662 forward $561 $-1 #
coedge $-1 $453 $663 $460 $568 forward $561 $-1 #
loop $-1 $-1 $453 $664 #
vertex $-1 $568 $665 #
vertex $-1 $662 $666 #
straight-curve $-1 22.087247177635561 -11.280010800750237 6.3284801312266552 1 0 0 I I #
vertex $-1 $455 $667 #
point $-1 48.38744878490759 -19.520884840240292 1.7063955613680655 #
coedge $-1 $657 $460 $668 $669 reversed $362 $-1 #
edge $-1 $670 -14.292923141839676 $562 -2.7556994865535991 $560 $671 forward 7 unknown #
coedge $-1 $470 $468 $580 $672 forward $461 $-1 #
coedge $-1 $474 $479 $463 $571 reversed $484 $-1 #
edge $-1 $476 -22.817234456036314 $481 22.817234456036314 $570 $673 forward 7 unknown #
straight-curve $-1 -51.849726859340194 0 -6.3284801312266499 0 1 0 I I #
point $-1 -51.849726859340194 22.817234456036314 -6.3284801312266499 #
point $-1 -51.849726859340194 -22.817234456036314 -6.3284801312266499 #
vertex $-1 $672 $674 #
straight-curve $-1 0 22.817234456036314 -6.3284801312266499 1 0 0 I I #
vertex $-1 $475 $675 #
straight-curve $-1 0 -22.817234456036314 -6.3284801312266499 -1 0 0 I I #
straight-curve $-1 -51.849726859340194 0 6.3284801312266499 0 -1 0 I I #
coedge $-1 $479 $474 $569 $672 reversed $484 $-1 #
straight-curve $-1 51.849726859340194 -22.817234456036314 0 0 0 -1 I I #
point $-1 51.849726859340194 -22.817234456036314 6.3284801312266499 #
straight-curve $-1 51.849726859340194 22.817234456036314 0 0 0 -1 I I #
point $-1 51.849726859340194 22.817234456036314 6.3284801312266499 #
coedge $-1 $676 $487 $589 $677 forward $392 $-1 #
coedge $-1 $487 $676 $517 $606 reversed $392 $-1 #
edge $-1 $592 -22.817234456036314 $590 22.817234456036314 $487 $678 forward 7 unknown #
straight-curve $-1 -45.536921628087612 -22.817234456036314 -0.90403409574872429 0 0 -1 I I #
coedge $-1 $491 $512 $585 $677 reversed $422 $-1 #
vertex $-1 $677 $679 #
straight-curve $-1 -24.346662121856951 22.817234456036314 -3.3798264896613208 1 0 0 I I #
vertex $-1 $606 $680 #
straight-curve $-1 -24.346662121856951 -22.817234456036314 -3.3798264896613208 -1 0 0 I I #
point $-1 -45.536921628087612 22.817234456036314 -3.3798264896613208 #
point $-1 -45.536921628087612 -22.817234456036314 -3.3798264896613208 #
straight-curve $-1 -51.849726859340194 0 -0.23630989333357655 0 -1 0 I I #
point $-1 -51.849726859340194 -22.817234456036314 -0.23630989333357655 #
point $-1 -51.849726859340194 22.817234456036314 -0.23630989333357655 #
straight-curve $-1 -45.536921628087612 22.817234456036314 -0.90403409574872429 0 0 1 I I #
coedge $-1 $508 $607 $512 $603 forward $427 $-1 #
straight-curve $-1 51.849726859340194 0 -6.3284801312266499 0 -1 0 I I #
point $-1 51.849726859340194 -22.817234456036314 -6.3284801312266499 #
edge $-1 $681 -51.849726859340194 $513 51.849726859340194 $512 $682 forward 7 unknown #
point $-1 51.849726859340194 22.817234456036314 -6.3284801312266499 #
straight-curve $-1 -51.849726859340194 -22.817234456036314 0 0 0 -1 I I #
edge $-1 $592 3.3798264896613208 $608 6.3284801312266499 $586 $605 forward 7 unknown #
coedge $-1 $600 $518 $676 $683 forward $427 $-1 #
vertex $-1 $683 $684 #
straight-curve $-1 0 -22.817234456036314 -6.3284801312266499 -1 0 0 I I #
straight-curve $-1 -51.849726859340194 22.817234456036314 0 0 0 -1 I I #
face $-1 $685 $686 $18 $-1 $613 reversed single #
loop $-1 $-1 $687 $527 #
plane-surface $-1 -51.849726859340194 0 0 1 0 0 0 0 -1 forward_v I I I I #
coedge $-1 $533 $617 $688 $689 reversed $528 $-1 #
coedge $-1 $690 $530 $691 $692 reversed $430 $-1 #
coedge $-1 $530 $690 $693 $694 reversed $430 $-1 #
coedge $-1 $614 $624 $530 $618 forward $528 $-1 #
edge $-1 $695 -22.817234456036314 $696 22.817234456036314 $617 $697 forward 7 unknown #
coedge $-1 $532 $531 $698 $699 reversed $338 $-1 #
coedge $-1 $688 $645 $531 $621 forward $635 $-1 #
edge $-1 $700 -27.503064737483243 $625 -21.19025950623066 $620 $701 forward 7 unknown #
coedge $-1 $640 $702 $532 $623 forward $641 $-1 #
edge $-1 $626 21.19025950623066 $703 27.503064737483243 $622 $704 forward 7 unknown #
coedge $-1 $617 $533 $702 $705 reversed $528 $-1 #
vertex $-1 $621 $706 #
vertex $-1 $623 $707 #
straight-curve $-1 -45.536921628087612 0 -0.23630989333357655 0 1 0 I I #
coedge $-1 $537 $535 $708 $709 reversed $246 $-1 #
coedge $-1 $538 $710 $535 $630 reversed $635 $-1 #
edge $-1 $631 -0.180609688812539 $711 6.3284801312266499 $535 $712 forward 7 unknown #
vertex $-1 $630 $713 #
straight-curve $-1 51.849726859340187 -8.5243113141966376 0.18060968881254524 0 -1 0 I I #
coedge $-1 $714 $544 $537 $634 forward $641 $-1 #
edge $-1 $546 -6.3284801312266499 $715 6.3284801312266499 $537 $716 forward 7 unknown #
loop $-1 $-1 $538 $685 #
straight-curve $-1 -0.95459841327198447 -22.817234456036314 47.725838756102419 -0.74314481823134659 0 0.66913061440640931 I I #
point $-1 45.021825155140512 -22.817234456036314 6.3284801312266499 #
coedge $-1 $717 $718 $543 $639 reversed $686 $-1 #
edge $-1 $642 -22.817234456036314 $646 22.817234456036314 $638 $719 forward 7 unknown #
coedge $-1 $544 $622 $717 $720 reversed $641 $-1 #
loop $-1 $-1 $622 $648 #
vertex $-1 $545 $721 #
straight-curve $-1 0 22.817234456036314 6.3284801312266499 -1 0 0 I I #
point $-1 51.849726859340194 22.817234456036314 6.3284801312266499 #
coedge $-1 $620 $548 $718 $722 forward $635 $-1 #
vertex $-1 $639 $723 #
straight-curve $-1 0 -22.817234456036314 6.3284801312266499 1 0 0 I I #
face $-1 $-1 $641 $18 $-1 $724 reversed single #
loop $-1 $-1 $708 $550 #
plane-surface $-1 0 0 -6.3284801312266499 0 0 1 1 0 0 forward_v I I I I #
face $-1 $725 $726 $19 $-1 $727 forward single #
loop $-1 $-1 $728 $552 #
plane-surface $-1 -48.693324243713903 0 -3.3798264896613208 0 0 1 1 0 0 forward_v I I I I #
coedge $-1 $729 $730 $731 $732 reversed $553 $-1 #
coedge $-1 $733 $555 $657 $734 forward $449 $-1 #
coedge $-1 $555 $735 $559 $662 reversed $449 $-1 #
coedge $-1 $556 $567 $655 $734 reversed $362 $-1 #
vertex $-1 $734 $736 #
straight-curve $-1 -25.213984825118487 -11.280010800750237 69.569088869202162 0.74314481823134659 0 -0.66913061440640931 I I #
straight-curve $-1 51.849726859340194 -11.280010800750237 73.316400276830421 0 0 -1 I I #
coedge $-1 $737 $559 $738 $739 forward $561 $-1 #
edge $-1 $563 -11.280010800750237 $740 22.817234456036314 $656 $741 forward 7 unknown #
coedge $-1 $560 $737 $742 $743 forward $561 $-1 #
face $-1 $744 $561 $19 $-1 $745 forward single #
point $-1 45.021825155140519 -11.280010800750237 6.3284801312266481 #
point $-1 51.849726859340194 -11.280010800750237 6.3284801312266499 #
point $-1 46.975173352269834 -19.520884840240292 1.6323813575431281 #
coedge $-1 $742 $746 $567 $669 forward $747 $-1 #
edge $-1 $748 -71.055229044433418 $670 -61.867380947140902 $668 $749 forward 7 unknown #
vertex $-1 $669 $750 #
straight-curve $-1 45.021825155140533 -8.5243113141966376 6.3284801312266481 0 1 0 I I #
edge $-1 $575 -22.817234456036314 $577 22.817234456036314 $580 $751 forward 7 unknown #
straight-curve $-1 51.849726859340194 0 6.3284801312266499 0 1 0 I I #
point $-1 51.849726859340194 22.817234456036314 -6.3284801312266499 #
point $-1 51.849726859340194 -22.817234456036314 -6.3284801312266499 #
coedge $-1 $586 $585 $607 $683 reversed $392 $-1 #
edge $-1 $590 3.3798264896613208 $681 6.3284801312266499 $589 $610 forward 7 unknown #
straight-curve $-1 -51.849726859340194 0 -3.3798264896613208 0 1 0 I I #
point $-1 -51.849726859340194 22.817234456036314 -3.3798264896613208 #
point $-1 -51.849726859340194 -22.817234456036314 -3.3798264896613208 #
vertex $-1 $603 $752 #
straight-curve $-1 0 22.817234456036314 -6.3284801312266499 1 0 0 I I #
edge $-1 $608 -22.817234456036314 $681 22.817234456036314 $676 $753 forward 7 unknown #
point $-1 -51.849726859340194 -22.817234456036314 -6.3284801312266499 #
face $-1 $444 $635 $18 $-1 $754 reversed single #
loop $-1 $-1 $698 $611 #
coedge $-1 $755 $756 $690 $757 forward $612 $-1 #
coedge $-1 $693 $620 $614 $689 forward $635 $-1 #
edge $-1 $625 -0.66772420241514774 $696 2.4757923939125965 $688 $758 forward 7 unknown #
coedge $-1 $616 $615 $687 $757 reversed $430 $-1 #
coedge $-1 $702 $759 $615 $692 forward $641 $-1 #
edge $-1 $760 -27.503064737483243 $695 -21.19025950623066 $691 $761 forward 7 unknown #
coedge $-1 $762 $688 $616 $694 forward $635 $-1 #
edge $-1 $696 21.19025950623066 $763 27.503064737483243 $693 $764 forward 7 unknown #
vertex $-1 $692 $765 #
vertex $-1 $694 $766 #
straight-curve $-1 -45.536921628087612 0 -3.3798264896613208 0 -1 0 I I #
coedge $-1 $718 $717 $619 $699 forward $686 $-1 #
edge $-1 $703 -22.817234456036314 $700 22.817234456036314 $698 $767 forward 7 unknown #
vertex $-1 $621 $768 #
straight-curve $-1 -24.346662121856951 -22.817234456036314 -0.23630989333357655 1 0 0 I I #
coedge $-1 $622 $691 $624 $705 forward $641 $-1 #
vertex $-1 $699 $769 #
straight-curve $-1 -24.346662121856951 22.817234456036314 -0.23630989333357655 -1 0 0 I I #
edge $-1 $695 -2.4757923939125965 $626 0.66772420241514774 $702 $770 forward 7 unknown #
point $-1 -45.536921628087612 -22.817234456036314 -0.23630989333357655 #
point $-1 -45.536921628087612 22.817234456036314 -0.23630989333357655 #
coedge $-1 $771 $772 $628 $709 forward $649 $-1 #
edge $-1 $715 -22.817234456036314 $711 22.817234456036314 $628 $773 forward 7 unknown #
coedge $-1 $629 $762 $771 $774 reversed $635 $-1 #
vertex $-1 $630 $775 #
straight-curve $-1 51.849726859340194 -22.817234456036314 0 0 0 -1 I I #
point $-1 51.849726859340194 -22.817234456036314 0.180609688812539 #
coedge $-1 $759 $633 $772 $776 reversed $641 $-1 #
vertex $-1 $709 $777 #
straight-curve $-1 51.849726859340194 22.817234456036314 0 0 0 -1 I I #
coedge $-1 $698 $638 $640 $720 forward $686 $-1 #
coedge $-1 $638 $698 $645 $722 reversed $686 $-1 #
straight-curve $-1 -51.849726859340194 0 6.3284801312266499 0 -1 0 I I #
edge $-1 $642 -6.3284801312266499 $703 0.23630989333357655 $640 $778 forward 7 unknown #
point $-1 -51.849726859340194 22.817234456036314 6.3284801312266499 #
edge $-1 $646 -6.3284801312266499 $700 0.23630989333357655 $718 $779 forward 7 unknown #
point $-1 -51.849726859340194 -22.817234456036314 6.3284801312266499 #
plane-surface $-1 0 22.817234456036314 0 0 -1 0 0 0 -1 forward_v I I I I #
face $-1 $780 $781 $19 $-1 $782 reversed single #
loop $-1 $-1 $783 $651 #
plane-surface $-1 -45.536921628087612 0 -1.8080681914974486 -1 0 0 0 0 1 forward_v I I I I #
coedge $-1 $784 $785 $786 $787 reversed $652 $-1 #
coedge $-1 $788 $654 $789 $790 reversed $553 $-1 #
coedge $-1 $654 $788 $791 $792 reversed $553 $-1 #
coedge $-1 $793 $783 $654 $732 forward $726 $-1 #
edge $-1 $794 -22.817234456036314 $795 22.817234456036314 $731 $796 forward 7 unknown #
coedge $-1 $797 $655 $746 $798 forward $449 $-1 #
edge $-1 $658 2.7556994865535991 $748 14.292923141839676 $655 $799 forward 7 unknown #
coedge $-1 $656 $797 $800 $801 reversed $449 $-1 #
point $-1 51.849726859340194 -11.280010800750237 0.18060968881253814 #
coedge $-1 $663 $661 $802 $803 forward $561 $-1 #
coedge $-1 $800 $804 $661 $739 reversed $805 $-1 #
edge $-1 $740 -51.849726859340194 $806 51.849726859340194 $738 $807 forward 7 unknown #
vertex $-1 $662 $808 #
straight-curve $-1 51.849726859340194 0 6.3284801312266499 0 1 0 I I #
coedge $-1 $809 $668 $663 $743 reversed $747 $-1 #
edge $-1 $810 -51.849726859340194 $670 45.021825155140512 $742 $811 forward 7 unknown #
face $-1 $812 $813 $19 $-1 $814 reversed single #
plane-surface $-1 0 0 6.3284801312266499 0 0 1 1 0 0 forward_v I I I I #
coedge $-1 $668 $815 $733 $798 reversed $747 $-1 #
loop $-1 $-1 $668 $816 #
vertex $-1 $798 $817 #
straight-curve $-1 -0.95459841327198447 -22.817234456036314 47.725838756102419 -0.74314481823134659 0 0.66913061440640931 I I #
point $-1 45.021825155140512 -22.817234456036314 6.3284801312266499 #
straight-curve $-1 51.849726859340194 0 -6.3284801312266499 0 -1 0 I I #
point $-1 -51.849726859340194 22.817234456036314 -6.3284801312266499 #
straight-curve $-1 -51.849726859340194 0 -6.3284801312266499 0 1 0 I I #
plane-surface $-1 0 -22.817234456036314 0 0 1 0 0 0 1 forward_v I I I I #
coedge $-1 $818 $687 $759 $819 forward $612 $-1 #
coedge $-1 $687 $818 $762 $820 reversed $612 $-1 #
edge $-1 $763 -22.817234456036314 $760 22.817234456036314 $687 $821 forward 7 unknown #
straight-curve $-1 -45.536921628087612 -22.817234456036314 -0.90403409574872429 0 0 -1 I I #
coedge $-1 $691 $714 $755 $819 reversed $641 $-1 #
vertex $-1 $819 $822 #
straight-curve $-1 -24.346662121856951 22.817234456036314 -3.3798264896613208 1 0 0 I I #
coedge $-1 $710 $693 $756 $820 forward $635 $-1 #
vertex $-1 $820 $823 #
straight-curve $-1 -24.346662121856951 -22.817234456036314 -3.3798264896613208 -1 0 0 I I #
point $-1 -45.536921628087612 22.817234456036314 -3.3798264896613208 #
point $-1 -45.536921628087612 -22.817234456036314 -3.3798264896613208 #
straight-curve $-1 -51.849726859340194 0 -0.23630989333357655 0 -1 0 I I #
point $-1 -51.849726859340194 -22.817234456036314 -0.23630989333357655 #
point $-1 -51.849726859340194 22.817234456036314 -0.23630989333357655 #
straight-curve $-1 -45.536921628087612 22.817234456036314 -0.90403409574872429 0 0 1 I I #
coedge $-1 $824 $708 $710 $774 forward $649 $-1 #
coedge $-1 $708 $824 $714 $776 forward $649 $-1 #
straight-curve $-1 51.849726859340194 0 -6.3284801312266499 0 -1 0 I I #
edge $-1 $711 -51.849726859340194 $825 51.849726859340194 $710 $826 forward 7 unknown #
point $-1 51.849726859340194 -22.817234456036314 -6.3284801312266499 #
edge $-1 $827 -51.849726859340194 $715 51.849726859340194 $714 $828 forward 7 unknown #
point $-1 51.849726859340194 22.817234456036314 -6.3284801312266499 #
straight-curve $-1 -51.849726859340194 22.817234456036314 0 0 0 -1 I I #
straight-curve $-1 -51.849726859340194 -22.817234456036314 0 0 0 -1 I I #
face $-1 $816 $829 $19 $-1 $782 reversed single #
loop $-1 $-1 $830 $725 #
plane-surface $-1 -51.849726859340194 0 0 1 0 0 0 0 -1 forward_v I I I I #
coedge $-1 $731 $786 $831 $832 reversed $726 $-1 #
coedge $-1 $833 $728 $834 $835 reversed $652 $-1 #
coedge $-1 $728 $833 $836 $837 reversed $652 $-1 #
coedge $-1 $783 $793 $728 $787 forward $726 $-1 #
edge $-1 $838 -22.817234456036314 $839 22.817234456036314 $786 $840 forward 7 unknown #
coedge $-1 $730 $729 $841 $842 reversed $553 $-1 #
coedge $-1 $831 $809 $729 $790 forward $747 $-1 #
edge $-1 $843 -27.503064737483243 $794 -21.19025950623066 $789 $844 forward 7 unknown #
coedge $-1 $804 $845 $730 $792 forward $805 $-1 #
edge $-1 $795 21.19025950623066 $846 27.503064737483243 $791 $847 forward 7 unknown #
coedge $-1 $786 $731 $845 $848 reversed $726 $-1 #
vertex $-1 $790 $849 #
vertex $-1 $792 $850 #
straight-curve $-1 -45.536921628087612 0 -0.23630989333357655 0 1 0 I I #
coedge $-1 $735 $733 $851 $852 reversed $449 $-1 #
edge $-1 $748 -0.180609688812539 $853 6.3284801312266499 $733 $854 forward 7 unknown #
straight-curve $-1 51.849726859340187 -8.5243113141966376 0.18060968881254524 0 -1 0 I I #
coedge $-1 $855 $738 $735 $801 forward $805 $-1 #
edge $-1 $740 -6.3284801312266499 $856 6.3284801312266499 $735 $857 forward 7 unknown #
coedge $-1 $858 $859 $737 $803 reversed $829 $-1 #
edge $-1 $806 -22.817234456036314 $810 22.817234456036314 $802 $860 forward 7 unknown #
coedge $-1 $738 $791 $858 $861 reversed $805 $-1 #
loop $-1 $-1 $791 $812 #
vertex $-1 $739 $862 #
straight-curve $-1 0 22.817234456036314 6.3284801312266499 -1 0 0 I I #
point $-1 51.849726859340194 22.817234456036314 6.3284801312266499 #
coedge $-1 $789 $742 $859 $863 forward $747 $-1 #
vertex $-1 $803 $864 #
straight-curve $-1 0 -22.817234456036314 6.3284801312266499 1 0 0 I I #
face $-1 $-1 $805 $19 $-1 $865 reversed single #
loop $-1 $-1 $851 $744 #
plane-surface $-1 0 0 -6.3284801312266499 0 0 1 1 0 0 forward_v I I I I #
coedge $-1 $746 $866 $867 $868 reversed $747 $-1 #
face $-1 $664 $747 $19 $-1 $869 reversed single #
point $-1 51.849726859340194 -22.817234456036314 0.180609688812539 #
coedge $-1 $756 $755 $824 $870 reversed $612 $-1 #
edge $-1 $760 3.3798264896613208 $827 6.3284801312266499 $759 $778 forward 7 unknown #
edge $-1 $763 3.3798264896613208 $825 6.3284801312266499 $756 $779 forward 7 unknown #
straight-curve $-1 -51.849726859340194 0 -3.3798264896613208 0 1 0 I I #
point $-1 -51.849726859340194 22.817234456036314 -3.3798264896613208 #
point $-1 -51.849726859340194 -22.817234456036314 -3.3798264896613208 #
coedge $-1 $772 $771 $818 $870 forward $649 $-1 #
vertex $-1 $870 $871 #
straight-curve $-1 0 -22.817234456036314 -6.3284801312266499 -1 0 0 I I #
vertex $-1 $776 $872 #
straight-curve $-1 0 22.817234456036314 -6.3284801312266499 1 0 0 I I #
loop $-1 $-1 $841 $780 #
coedge $-1 $873 $874 $833 $875 forward $781 $-1 #
coedge $-1 $836 $789 $783 $832 forward $747 $-1 #
edge $-1 $794 -0.66772420241514774 $839 2.4757923939125965 $831 $876 forward 7 unknown #
coedge $-1 $785 $784 $830 $875 reversed $652 $-1 #
coedge $-1 $845 $877 $784 $835 forward $805 $-1 #
edge $-1 $878 -27.503064737483243 $838 -21.19025950623066 $834 $879 forward 7 unknown #
coedge $-1 $866 $831 $785 $837 forward $747 $-1 #
edge $-1 $839 21.19025950623066 $880 27.503064737483243 $836 $881 forward 7 unknown #
vertex $-1 $835 $882 #
vertex $-1 $837 $883 #
straight-curve $-1 -45.536921628087612 0 -3.3798264896613208 0 -1 0 I I #
coedge $-1 $859 $858 $788 $842 forward $829 $-1 #
edge $-1 $846 -22.817234456036314 $843 22.817234456036314 $841 $884 forward 7 unknown #
vertex $-1 $790 $885 #
straight-curve $-1 -24.346662121856951 -22.817234456036314 -0.23630989333357655 1 0 0 I I #
coedge $-1 $791 $834 $793 $848 forward $805 $-1 #
vertex $-1 $842 $886 #
straight-curve $-1 -24.346662121856951 22.817234456036314 -0.23630989333357655 -1 0 0 I I #
edge $-1 $838 -2.4757923939125965 $795 0.66772420241514774 $845 $887 forward 7 unknown #
point $-1 -45.536921628087612 -22.817234456036314 -0.23630989333357655 #
point $-1 -45.536921628087612 22.817234456036314 -0.23630989333357655 #
coedge $-1 $867 $888 $797 $852 forward $813 $-1 #
edge $-1 $856 -22.817234456036314 $853 22.817234456036314 $797 $889 forward 7 unknown #
vertex $-1 $798 $890 #
straight-curve $-1 51.849726859340194 -22.817234456036314 0 0 0 -1 I I #
coedge $-1 $877 $800 $888 $891 reversed $805 $-1 #
vertex $-1 $852 $892 #
straight-curve $-1 51.849726859340194 22.817234456036314 0 0 0 -1 I I #
coedge $-1 $841 $802 $804 $861 forward $829 $-1 #
coedge $-1 $802 $841 $809 $863 reversed $829 $-1 #
straight-curve $-1 -51.849726859340194 0 6.3284801312266499 0 -1 0 I I #
edge $-1 $806 -6.3284801312266499 $846 0.23630989333357655 $804 $893 forward 7 unknown #
point $-1 -51.849726859340194 22.817234456036314 6.3284801312266499 #
edge $-1 $810 -6.3284801312266499 $843 0.23630989333357655 $859 $894 forward 7 unknown #
point $-1 -51.849726859340194 -22.817234456036314 6.3284801312266499 #
plane-surface $-1 0 22.817234456036314 0 0 -1 0 0 0 -1 forward_v I I I I #
coedge $-1 $815 $836 $874 $895 forward $747 $-1 #
coedge $-1 $896 $851 $815 $868 forward $813 $-1 #
edge $-1 $853 -51.849726859340194 $897 51.849726859340194 $815 $898 forward 7 unknown #
plane-surface $-1 0 -22.817234456036314 0 0 1 0 0 0 1 forward_v I I I I #
edge $-1 $825 -22.817234456036314 $827 22.817234456036314 $818 $899 forward 7 unknown #
point $-1 -51.849726859340194 -22.817234456036314 -6.3284801312266499 #
point $-1 -51.849726859340194 22.817234456036314 -6.3284801312266499 #
coedge $-1 $900 $830 $877 $901 forward $781 $-1 #
coedge $-1 $830 $900 $866 $895 reversed $781 $-1 #
edge $-1 $880 -22.817234456036314 $878 22.817234456036314 $830 $902 forward 7 unknown #
straight-curve $-1 -45.536921628087612 -22.817234456036314 -0.90403409574872429 0 0 -1 I I #
coedge $-1 $834 $855 $873 $901 reversed $805 $-1 #
vertex $-1 $901 $903 #
straight-curve $-1 -24.346662121856951 22.817234456036314 -3.3798264896613208 1 0 0 I I #
vertex $-1 $895 $904 #
straight-curve $-1 -24.346662121856951 -22.817234456036314 -3.3798264896613208 -1 0 0 I I #
point $-1 -45.536921628087612 22.817234456036314 -3.3798264896613208 #
point $-1 -45.536921628087612 -22.817234456036314 -3.3798264896613208 #
straight-curve $-1 -51.849726859340194 0 -0.23630989333357655 0 -1 0 I I #
point $-1 -51.849726859340194 -22.817234456036314 -0.23630989333357655 #
point $-1 -51.849726859340194 22.817234456036314 -0.23630989333357655 #
straight-curve $-1 -45.536921628087612 22.817234456036314 -0.90403409574872429 0 0 1 I I #
coedge $-1 $851 $896 $855 $891 forward $813 $-1 #
straight-curve $-1 51.849726859340194 0 -6.3284801312266499 0 -1 0 I I #
point $-1 51.849726859340194 -22.817234456036314 -6.3284801312266499 #
edge $-1 $905 -51.849726859340194 $856 51.849726859340194 $855 $906 forward 7 unknown #
point $-1 51.849726859340194 22.817234456036314 -6.3284801312266499 #
straight-curve $-1 -51.849726859340194 22.817234456036314 0 0 0 -1 I I #
straight-curve $-1 -51.849726859340194 -22.817234456036314 0 0 0 -1 I I #
edge $-1 $880 3.3798264896613208 $897 6.3284801312266499 $874 $894 forward 7 unknown #
coedge $-1 $888 $867 $900 $907 forward $813 $-1 #
vertex $-1 $907 $908 #
straight-curve $-1 0 -22.817234456036314 -6.3284801312266499 -1 0 0 I I #
straight-curve $-1 -51.849726859340194 0 -6.3284801312266499 0 1 0 I I #
coedge $-1 $874 $873 $896 $907 reversed $781 $-1 #
edge $-1 $878 3.3798264896613208 $905 6.3284801312266499 $877 $893 forward 7 unknown #
straight-curve $-1 -51.849726859340194 0 -3.3798264896613208 0 1 0 I I #
point $-1 -51.849726859340194 22.817234456036314 -3.3798264896613208 #
point $-1 -51.849726859340194 -22.817234456036314 -3.3798264896613208 #
vertex $-1 $891 $909 #
straight-curve $-1 0 22.817234456036314 -6.3284801312266499 1 0 0 I I #
edge $-1 $897 -22.817234456036314 $905 22.817234456036314 $900 $910 forward 7 unknown #
point $-1 -51.849726859340194 -22.817234456036314 -6.3284801312266499 #
point $-1 -51.849726859340194 22.817234456036314 -6.3284801312266499 #
straight-curve $-1 -51.849726859340194 0 -6.3284801312266499 0 1 0 I I #
End-of-ACIS-data 