500 0 11 0           
7 Unknown 11 ACIS 5.0 NT 24 Fri Mar 26 01:20:26 1999 
-1 9.9999999999999995e-007 1e-010 
body $-1 $11 $-1 $12 #
body $-1 $13 $-1 $14 #
body $-1 $15 $-1 $16 #
body $-1 $17 $-1 $18 #
body $-1 $19 $-1 $20 #
body $-1 $21 $-1 $22 #
body $-1 $23 $-1 $24 #
body $-1 $25 $-1 $26 #
body $-1 $27 $-1 $28 #
body $-1 $29 $-1 $30 #
body $-1 $31 $-1 $32 #
lump $-1 $-1 $33 $0 #
transform $-1 1 0 0 0 1 0 0 0 1 57.920468764305554 26.300103352659583 6.2239109905553818 1 rotate no_reflect no_shear #
lump $-1 $-1 $34 $1 #
transform $-1 1 0 0 0 1 0 0 0 1 57.920468764305554 26.300103352659583 6.2239109905553818 1 rotate no_reflect no_shear #
lump $-1 $-1 $35 $2 #
transform $-1 1 0 0 0 1 0 0 0 1 57.920468764305554 26.300103352659583 6.2239109905553818 1 rotate no_reflect no_shear #
lump $-1 $-1 $36 $3 #
transform $-1 1 0 0 0 1 0 0 0 1 57.920468764305554 26.300103352659583 6.2239109905553818 1 rotate no_reflect no_shear #
lump $-1 $-1 $37 $4 #
transform $-1 1 0 0 0 1 0 0 0 1 57.920468764305554 26.300103352659583 6.2239109905553818 1 rotate no_reflect no_shear #
lump $-1 $-1 $38 $5 #
transform $-1 1 0 0 0 1 0 0 0 1 57.920468764305554 26.300103352659583 6.2239109905553818 1 rotate no_reflect no_shear #
lump $-1 $-1 $39 $6 #
transform $-1 1 0 0 0 1 0 0 0 1 57.920468764305554 26.300103352659583 6.2239109905553818 1 rotate no_reflect no_shear #
lump $-1 $-1 $40 $7 #
transform $-1 1 0 0 0 1 0 0 0 1 57.920468764305554 26.300103352659583 6.2239109905553818 1 rotate no_reflect no_shear #
lump $-1 $-1 $41 $8 #
transform $-1 1 0 0 0 1 0 0 0 1 57.920468764305554 26.300103352659583 6.2239109905553818 1 rotate no_reflect no_shear #
lump $-1 $-1 $42 $9 #
transform $-1 1 0 0 0 1 0 0 0 1 57.920468764305554 26.300103352659583 6.2239109905553818 1 rotate no_reflect no_shear #
lump $-1 $-1 $43 $10 #
transform $-1 1 0 0 0 1 0 0 0 1 57.920468764305554 26.300103352659583 6.2239109905553818 1 rotate no_reflect no_shear #
shell $-1 $-1 $-1 $44 $-1 $11 #
shell $-1 $-1 $-1 $45 $-1 $13 #
shell $-1 $-1 $-1 $46 $-1 $15 #
shell $-1 $-1 $-1 $47 $-1 $17 #
shell $-1 $-1 $-1 $48 $-1 $19 #
shell $-1 $-1 $-1 $49 $-1 $21 #
shell $-1 $-1 $-1 $50 $-1 $23 #
shell $-1 $-1 $-1 $51 $-1 $25 #
shell $-1 $-1 $-1 $52 $-1 $27 #
shell $-1 $-1 $-1 $53 $-1 $29 #
shell $-1 $-1 $-1 $54 $-1 $31 #
face $-1 $55 $56 $33 $-1 $57 forward single #
face $-1 $58 $59 $34 $-1 $60 forward single #
face $-1 $61 $62 $35 $-1 $63 reversed single #
face $-1 $64 $65 $36 $-1 $66 forward single #
face $-1 $67 $68 $37 $-1 $69 forward single #
face $-1 $70 $71 $38 $-1 $72 reversed single #
face $-1 $73 $74 $39 $-1 $75 forward single #
face $-1 $76 $77 $40 $-1 $78 forward single #
face $-1 $79 $80 $41 $-1 $81 reversed single #
face $-1 $82 $83 $42 $-1 $84 forward single #
face $-1 $85 $86 $43 $-1 $87 forward single #
face $-1 $88 $89 $33 $-1 $90 reversed single #
loop $-1 $-1 $91 $44 #
plane-surface $-1 0 0 6.2239109905553818 0 0 1 1 0 0 forward_v I I I I #
face $-1 $92 $93 $34 $-1 $94 reversed single #
loop $-1 $-1 $95 $45 #
plane-surface $-1 0 -26.300103352659583 0 0 1 0 0 0 1 forward_v I I I I #
face $-1 $96 $97 $35 $-1 $98 reversed single #
loop $-1 $-1 $99 $46 #
plane-surface $-1 -122.69789980359462 -16.410858488553387 96.830487975345264 0 1 0 -0.55919291073839883 0 0.82903756765294845 forward_v I I I I #
face $-1 $100 $101 $36 $-1 $102 forward single #
loop $-1 $103 $104 $47 #
cone-surface $-1 -53.356624276423929 -13.803480318332555 2.7102153101790005 0.55919291073839883 0 -0.82903756765294845 0.82903756765294845 0 0.55919291073839883 1 I I 0 1 1 forward I I I I #
face $-1 $105 $106 $37 $-1 $107 forward single #
loop $-1 $108 $109 $48 #
cone-surface $-1 -53.356624276423929 -9.8924130630013067 2.7102153101790005 0.55919291073839883 0 -0.82903756765294845 0.82903756765294845 0 0.55919291073839883 1 I I 0 1 1 forward I I I I #
face $-1 $110 $111 $38 $-1 $112 reversed single #
loop $-1 $-1 $113 $49 #
plane-surface $-1 -122.69789980359462 6.2510747610891633 96.830487975345264 0 1 0 -0.55919291073839883 0 0.82903756765294845 forward_v I I I I #
face $-1 $114 $115 $39 $-1 $116 forward single #
loop $-1 $117 $118 $50 #
cone-surface $-1 -53.356624276423929 8.8584529313099978 2.7102153101790005 0.55919291073839883 0 -0.82903756765294845 0.82903756765294845 0 0.55919291073839883 1 I I 0 1 1 forward I I I I #
face $-1 $119 $120 $40 $-1 $121 forward single #
loop $-1 $122 $123 $51 #
cone-surface $-1 -53.356624276423929 12.769520186641245 2.7102153101790005 0.55919291073839883 0 -0.82903756765294845 0.82903756765294845 0 0.55919291073839883 1 I I 0 1 1 forward I I I I #
face $-1 $124 $125 $41 $-1 $126 reversed single #
loop $-1 $-1 $127 $52 #
plane-surface $-1 91.981359556972109 16.517637230622135 162.85689474831048 0 1 0 0.83867057594974714 0 0.54463902268945019 forward_v I I I I #
face $-1 $128 $129 $42 $-1 $130 forward single #
loop $-1 $131 $132 $53 #
cone-surface $-1 56.217656125173228 19.312627551204265 4.0740552045567684 -0.83867057594974714 0 -0.54463902268945019 0.2723195113447251 0 -0.41933528797487357 1 I I 0 1 0.5 forward I I I I #
face $-1 $133 $134 $43 $-1 $135 forward single #
loop $-1 $136 $137 $54 #
cone-surface $-1 56.217656125173228 23.50511303207746 4.0740552045567684 -0.83867057594974714 0 -0.54463902268945019 0.2723195113447251 0 -0.41933528797487357 1 I I 0 1 0.5 forward I I I I #
face $-1 $138 $139 $33 $-1 $140 reversed single #
loop $-1 $-1 $141 $55 #
plane-surface $-1 0 0 -6.2239109905553818 0 0 1 1 0 0 forward_v I I I I #
coedge $-1 $142 $143 $144 $145 forward $56 $-1 #
face $-1 $146 $147 $34 $-1 $148 reversed single #
loop $-1 $-1 $149 $58 #
plane-surface $-1 0 0 -6.2239109905553818 0 0 1 1 0 0 forward_v I I I I #
coedge $-1 $150 $151 $152 $153 forward $59 $-1 #
face $-1 $154 $155 $35 $-1 $156 reversed single #
loop $-1 $-1 $157 $61 #
plane-surface $-1 -57.920468764305554 -11.84794669066693 0.79399889198835183 -0.55919291073839883 0 0.82903756765294845 0.82903756765294845 0 0.55919291073839883 forward_v I I I I #
coedge $-1 $158 $159 $160 $161 reversed $62 $-1 #
face $-1 $-1 $162 $36 $-1 $163 forward single #
loop $-1 $164 $165 $64 #
cone-surface $-1 -52.538271126955301 -13.803480318332555 1.4969568952596655 0.55919291073839883 0 -0.82903756765294845 0.41451878382647422 0 0.27959645536919941 1 I I -0.70710678118654746 0.70710678118654746 0.5 forward I I I I #
loop $-1 $-1 $166 $47 #
coedge $-1 $104 $104 $167 $168 reversed $65 $-1 #
face $-1 $-1 $169 $37 $-1 $170 forward single #
loop $-1 $171 $172 $67 #
cone-surface $-1 -52.538271126955301 -9.8924130630013067 1.4969568952596655 0.55919291073839883 0 -0.82903756765294845 0.41451878382647422 0 0.27959645536919941 1 I I -0.70710678118654746 0.70710678118654746 0.5 forward I I I I #
loop $-1 $-1 $173 $48 #
coedge $-1 $109 $109 $174 $175 reversed $68 $-1 #
face $-1 $176 $177 $38 $-1 $178 reversed single #
loop $-1 $-1 $179 $70 #
plane-surface $-1 -57.920468764305554 10.813986558975621 0.79399889198835183 -0.55919291073839883 0 0.82903756765294845 0.82903756765294845 0 0.55919291073839883 forward_v I I I I #
coedge $-1 $180 $181 $182 $183 reversed $71 $-1 #
face $-1 $-1 $184 $39 $-1 $185 forward single #
loop $-1 $186 $187 $73 #
cone-surface $-1 -52.538271126955301 8.8584529313099978 1.4969568952596655 0.55919291073839883 0 -0.82903756765294845 0.41451878382647422 0 0.27959645536919941 1 I I -0.70710678118654746 0.70710678118654746 0.5 forward I I I I #
loop $-1 $-1 $188 $50 #
coedge $-1 $118 $118 $189 $190 reversed $74 $-1 #
face $-1 $-1 $191 $40 $-1 $192 forward single #
loop $-1 $193 $194 $76 #
cone-surface $-1 -52.538271126955301 12.769520186641245 1.4969568952596655 0.55919291073839883 0 -0.82903756765294845 0.41451878382647422 0 0.27959645536919941 1 I I -0.70710678118654746 0.70710678118654746 0.5 forward I I I I #
loop $-1 $-1 $195 $51 #
coedge $-1 $123 $123 $196 $197 reversed $77 $-1 #
face $-1 $198 $199 $41 $-1 $200 reversed single #
loop $-1 $-1 $201 $79 #
plane-surface $-1 -5.171026238706844 21.408870291640859 99.765399745298083 0.83867057594974714 0 0.54463902268945019 0.54463902268945019 0 -0.83867057594974714 forward_v I I I I #
coedge $-1 $202 $203 $204 $205 reversed $80 $-1 #
face $-1 $-1 $206 $42 $-1 $207 forward single #
loop $-1 $208 $209 $82 #
cone-surface $-1 55.477647782648646 19.312627551204265 3.5934881833539407 -0.83867057594974714 0 -0.54463902268945019 0.13615975567236255 0 -0.20966764398743679 1 I I -0.70710678118654746 0.70710678118654746 0.25 forward I I I I #
loop $-1 $-1 $210 $53 #
coedge $-1 $132 $132 $211 $212 reversed $83 $-1 #
face $-1 $-1 $213 $43 $-1 $214 forward single #
loop $-1 $215 $216 $85 #
cone-surface $-1 55.477647782648646 23.50511303207746 3.5934881833539407 -0.83867057594974714 0 -0.54463902268945019 0.13615975567236255 0 -0.20966764398743679 1 I I -0.70710678118654746 0.70710678118654746 0.25 forward I I I I #
loop $-1 $-1 $217 $54 #
coedge $-1 $137 $137 $218 $219 reversed $86 $-1 #
face $-1 $220 $221 $33 $-1 $222 reversed single #
loop $-1 $-1 $223 $88 #
plane-surface $-1 0 -26.300103352659583 0 0 1 0 0 0 1 forward_v I I I I #
coedge $-1 $224 $225 $226 $227 forward $89 $-1 #
coedge $-1 $228 $91 $229 $230 forward $56 $-1 #
coedge $-1 $91 $228 $231 $232 forward $56 $-1 #
coedge $-1 $233 $234 $91 $145 reversed $235 $-1 #
edge $-1 $236 -26.300103352659583 $237 26.300103352659583 $144 $238 forward 7 unknown #
face $-1 $239 $240 $34 $-1 $241 reversed single #
loop $-1 $-1 $242 $92 #
plane-surface $-1 -46.97264678319479 -33.576443558693647 0 0 1 0 0 0 1 forward_v I I I I #
coedge $-1 $243 $244 $151 $245 forward $93 $-1 #
coedge $-1 $246 $95 $247 $248 reversed $59 $-1 #
coedge $-1 $95 $246 $149 $245 reversed $59 $-1 #
coedge $-1 $249 $250 $95 $153 reversed $240 $-1 #
edge $-1 $251 -6.2239109905553818 $252 6.2239109905553818 $152 $253 forward 7 unknown #
face $-1 $254 $255 $35 $-1 $256 reversed single #
loop $-1 $-1 $257 $96 #
plane-surface $-1 -122.69789980359462 -7.2850348927804722 96.830487975345264 0 -1 0 0.55919291073839883 0 -0.82903756765294845 forward_v I I I I #
coedge $-1 $258 $259 $260 $261 reversed $97 $-1 #
coedge $-1 $159 $99 $262 $263 reversed $62 $-1 #
coedge $-1 $99 $158 $258 $264 reversed $62 $-1 #
coedge $-1 $260 $265 $99 $161 forward $266 $-1 #
edge $-1 $267 3.4284811374917581 $268 11.47865672505614 $160 $269 forward 7 unknown #
loop $-1 $-1 $167 $100 #
plane-surface $-1 -57.920468764305554 -11.84794669066693 0.79399889198835183 -0.55919291073839883 0 0.82903756765294845 0.82903756765294845 0 0.55919291073839883 forward_v I I I I #
loop $-1 $-1 $270 $64 #
coedge $-1 $165 $165 $166 $271 reversed $101 $-1 #
coedge $-1 $166 $166 $165 $271 forward $103 $-1 #
coedge $-1 $167 $167 $104 $168 forward $162 $-1 #
edge $-1 $272 0 $272 6.2831853071796004 $167 $273 forward 7 unknown #
loop $-1 $-1 $174 $105 #
plane-surface $-1 -57.920468764305554 -11.84794669066693 0.79399889198835183 -0.55919291073839883 0 0.82903756765294845 0.82903756765294845 0 0.55919291073839883 forward_v I I I I #
loop $-1 $-1 $274 $67 #
coedge $-1 $172 $172 $173 $275 reversed $106 $-1 #
coedge $-1 $173 $173 $172 $275 forward $108 $-1 #
coedge $-1 $174 $174 $109 $175 forward $169 $-1 #
edge $-1 $276 0 $276 6.2831853071796004 $174 $277 forward 7 unknown #
face $-1 $278 $279 $38 $-1 $280 forward single #
loop $-1 $-1 $281 $110 #
plane-surface $-1 -122.69789980359462 15.376898356862078 96.830487975345264 0 -1 0 0.55919291073839883 0 -0.82903756765294845 forward_v I I I I #
coedge $-1 $282 $283 $284 $285 reversed $111 $-1 #
coedge $-1 $181 $113 $286 $287 reversed $71 $-1 #
coedge $-1 $113 $180 $282 $288 reversed $71 $-1 #
coedge $-1 $284 $289 $113 $183 forward $279 $-1 #
edge $-1 $290 3.4284811374917581 $291 11.47865672505614 $182 $292 forward 7 unknown #
loop $-1 $-1 $189 $114 #
plane-surface $-1 -57.920468764305554 10.813986558975621 0.79399889198835183 -0.55919291073839883 0 0.82903756765294845 0.82903756765294845 0 0.55919291073839883 forward_v I I I I #
loop $-1 $-1 $293 $73 #
coedge $-1 $187 $187 $188 $294 reversed $115 $-1 #
coedge $-1 $188 $188 $187 $294 forward $117 $-1 #
coedge $-1 $189 $189 $118 $190 forward $184 $-1 #
edge $-1 $295 0 $295 6.2831853071796004 $189 $296 forward 7 unknown #
loop $-1 $-1 $196 $119 #
plane-surface $-1 -57.920468764305554 10.813986558975621 0.79399889198835183 -0.55919291073839883 0 0.82903756765294845 0.82903756765294845 0 0.55919291073839883 forward_v I I I I #
loop $-1 $-1 $297 $76 #
coedge $-1 $194 $194 $195 $298 reversed $120 $-1 #
coedge $-1 $195 $195 $194 $298 forward $122 $-1 #
coedge $-1 $196 $196 $123 $197 forward $191 $-1 #
edge $-1 $299 0 $299 6.2831853071796004 $196 $300 forward 7 unknown #
face $-1 $301 $302 $41 $-1 $303 forward single #
loop $-1 $-1 $304 $124 #
plane-surface $-1 0 26.300103352659583 0 0 -1 0 0 0 -1 forward_v I I I I #
coedge $-1 $305 $306 $307 $308 reversed $125 $-1 #
coedge $-1 $203 $127 $309 $310 reversed $80 $-1 #
coedge $-1 $127 $202 $305 $311 reversed $80 $-1 #
coedge $-1 $307 $312 $127 $205 forward $313 $-1 #
edge $-1 $314 75.204536383599859 $315 78.815433424536096 $204 $316 forward 7 unknown #
loop $-1 $-1 $211 $128 #
plane-surface $-1 -5.171026238706844 21.408870291640859 99.765399745298083 0.83867057594974714 0 0.54463902268945019 0.54463902268945019 0 -0.83867057594974714 forward_v I I I I #
loop $-1 $-1 $317 $82 #
coedge $-1 $209 $209 $210 $318 reversed $129 $-1 #
coedge $-1 $210 $210 $209 $318 forward $131 $-1 #
coedge $-1 $211 $211 $132 $212 forward $206 $-1 #
edge $-1 $319 0 $319 6.2831853071796004 $211 $320 forward 7 unknown #
loop $-1 $-1 $218 $133 #
plane-surface $-1 -5.171026238706844 21.408870291640859 99.765399745298083 0.83867057594974714 0 0.54463902268945019 0.54463902268945019 0 -0.83867057594974714 forward_v I I I I #
loop $-1 $-1 $321 $85 #
coedge $-1 $216 $216 $217 $322 reversed $134 $-1 #
coedge $-1 $217 $217 $216 $322 forward $136 $-1 #
coedge $-1 $218 $218 $137 $219 forward $213 $-1 #
edge $-1 $323 0 $323 6.2831853071796004 $218 $324 forward 7 unknown #
face $-1 $325 $326 $33 $-1 $327 reversed single #
loop $-1 $-1 $328 $138 #
plane-surface $-1 -57.920468764305554 0 0 1 0 0 0 0 -1 forward_v I I I I #
coedge $-1 $329 $231 $330 $331 forward $139 $-1 #
coedge $-1 $332 $141 $329 $333 forward $89 $-1 #
coedge $-1 $141 $332 $334 $335 forward $89 $-1 #
coedge $-1 $234 $233 $141 $227 reversed $235 $-1 #
edge $-1 $336 -26.300103352659583 $337 26.300103352659583 $226 $338 forward 7 unknown #
coedge $-1 $143 $142 $339 $340 forward $56 $-1 #
coedge $-1 $341 $342 $142 $230 reversed $326 $-1 #
edge $-1 $237 -57.920468764305554 $343 57.920468764305554 $229 $344 forward 7 unknown #
coedge $-1 $223 $345 $143 $232 reversed $139 $-1 #
edge $-1 $346 -57.920468764305554 $236 57.920468764305554 $231 $347 forward 7 unknown #
coedge $-1 $226 $144 $345 $348 forward $235 $-1 #
coedge $-1 $144 $226 $341 $349 reversed $235 $-1 #
loop $-1 $-1 $233 $325 #
vertex $-1 $145 $350 #
vertex $-1 $145 $351 #
straight-curve $-1 57.920468764305554 0 6.2239109905553818 0 1 0 I I #
face $-1 $352 $353 $34 $-1 $354 reversed single #
loop $-1 $-1 $152 $146 #
plane-surface $-1 -48.47264678319479 -29.938273455676615 0 1 0 0 0 0 -1 forward_v I I I I #
coedge $-1 $355 $356 $357 $358 forward $147 $-1 #
coedge $-1 $359 $149 $360 $361 forward $93 $-1 #
coedge $-1 $149 $359 $249 $362 forward $93 $-1 #
edge $-1 $251 -48.47264678319479 $363 -45.47264678319479 $149 $364 forward 7 unknown #
coedge $-1 $151 $150 $365 $366 forward $59 $-1 #
coedge $-1 $367 $368 $150 $248 forward $369 $-1 #
edge $-1 $370 45.47264678319479 $252 48.47264678319479 $247 $371 forward 7 unknown #
coedge $-1 $357 $152 $244 $362 reversed $240 $-1 #
coedge $-1 $152 $357 $367 $372 reversed $240 $-1 #
vertex $-1 $245 $373 #
vertex $-1 $372 $374 #
straight-curve $-1 -48.47264678319479 -26.300103352659583 0 0 0 1 I I #
face $-1 $-1 $266 $35 $-1 $375 forward single #
loop $-1 $-1 $376 $154 #
plane-surface $-1 -57.920468764305554 0 0 1 0 0 0 0 -1 forward_v I I I I #
coedge $-1 $377 $378 $379 $380 reversed $155 $-1 #
coedge $-1 $381 $157 $159 $264 forward $97 $-1 #
coedge $-1 $157 $381 $377 $382 forward $97 $-1 #
coedge $-1 $379 $160 $157 $261 forward $266 $-1 #
edge $-1 $268 -10.486885143219922 $383 -1.3610615474470071 $260 $384 forward 7 unknown #
coedge $-1 $385 $386 $158 $263 forward $255 $-1 #
edge $-1 $387 -47.62124509568428 $267 -42.19133299711725 $262 $388 forward 7 unknown #
edge $-1 $268 -9.7102663397448659 $387 0 $159 $389 forward 7 unknown #
coedge $-1 $160 $379 $385 $390 forward $266 $-1 #
loop $-1 $-1 $379 $254 #
vertex $-1 $263 $391 #
vertex $-1 $161 $392 #
straight-curve $-1 -61.348949901797312 -16.410858488553387 6.2239109905553818 1 0 0 I I #
coedge $-1 $270 $270 $-1 $393 reversed $164 $-1 #
edge $-1 $394 0 $394 6.2831853071796004 $165 $395 forward 7 unknown #
vertex $-1 $168 $396 #
ellipse-curve $-1 -53.895380970523362 -13.803480318332555 3.5089549412718686 -0.55919291073839883 0 0.82903756765294845 0.82903756765294845 0 0.55919291073839883 1 I I #
coedge $-1 $274 $274 $-1 $397 reversed $171 $-1 #
edge $-1 $398 0 $398 6.2831853071796004 $172 $399 forward 7 unknown #
vertex $-1 $175 $400 #
ellipse-curve $-1 -53.895380970523362 -9.8924130630013067 3.5089549412718686 -0.55919291073839883 0 0.82903756765294845 0.82903756765294845 0 0.55919291073839883 1 I I #
face $-1 $-1 $401 $38 $-1 $402 reversed single #
loop $-1 $-1 $182 $176 #
plane-surface $-1 0 0 6.2239109905553818 0 0 1 1 0 0 forward_v I I I I #
coedge $-1 $403 $404 $405 $406 reversed $177 $-1 #
coedge $-1 $407 $179 $181 $288 forward $111 $-1 #
coedge $-1 $179 $407 $403 $408 forward $111 $-1 #
coedge $-1 $405 $182 $179 $285 forward $279 $-1 #
edge $-1 $291 0.84408148160135266 $409 9.9699050773742677 $284 $410 forward 7 unknown #
coedge $-1 $411 $412 $180 $287 forward $401 $-1 #
edge $-1 $413 -47.62124509568428 $290 -42.19133299711725 $286 $414 forward 7 unknown #
edge $-1 $291 -9.7102663397448659 $413 0 $181 $415 forward 7 unknown #
coedge $-1 $182 $405 $411 $416 forward $279 $-1 #
vertex $-1 $183 $417 #
vertex $-1 $183 $418 #
straight-curve $-1 -61.348949901797312 6.2510747610891633 6.2239109905553818 1 0 0 I I #
coedge $-1 $293 $293 $-1 $419 reversed $186 $-1 #
edge $-1 $420 0 $420 6.2831853071796004 $187 $421 forward 7 unknown #
vertex $-1 $190 $422 #
ellipse-curve $-1 -53.895380970523362 8.8584529313099978 3.5089549412718686 -0.55919291073839883 0 0.82903756765294845 0.82903756765294845 0 0.55919291073839883 1 I I #
coedge $-1 $297 $297 $-1 $423 reversed $193 $-1 #
edge $-1 $424 0 $424 6.2831853071796004 $194 $425 forward 7 unknown #
vertex $-1 $197 $426 #
ellipse-curve $-1 -53.895380970523362 12.769520186641245 3.5089549412718686 -0.55919291073839883 0 0.82903756765294845 0.82903756765294845 0 0.55919291073839883 1 I I #
face $-1 $-1 $313 $41 $-1 $427 reversed single #
loop $-1 $-1 $428 $198 #
plane-surface $-1 0 0 6.2239109905553818 0 0 1 1 0 0 forward_v I I I I #
coedge $-1 $429 $430 $306 $431 forward $199 $-1 #
coedge $-1 $432 $201 $203 $311 forward $125 $-1 #
coedge $-1 $201 $432 $304 $431 reversed $125 $-1 #
coedge $-1 $433 $204 $201 $308 forward $313 $-1 #
edge $-1 $315 5.8132020848017056 $434 15.595668206839154 $307 $435 forward 7 unknown #
coedge $-1 $436 $428 $202 $310 forward $302 $-1 #
edge $-1 $437 9.5848451046291601 $314 11.929788985819499 $309 $438 forward 7 unknown #
edge $-1 $315 -115.84093752861108 $437 -111.53543648388074 $203 $439 forward 7 unknown #
coedge $-1 $204 $433 $436 $440 reversed $313 $-1 #
loop $-1 $-1 $307 $301 #
vertex $-1 $440 $441 #
vertex $-1 $205 $442 #
straight-curve $-1 57.920468764305554 16.517637230622135 81.42844737415524 0 0 -1 I I #
coedge $-1 $317 $317 $-1 $443 reversed $208 $-1 #
edge $-1 $444 0 $444 6.2831853071796004 $209 $445 forward 7 unknown #
vertex $-1 $212 $446 #
ellipse-curve $-1 56.747996823710388 19.312627551204265 4.4184624700872428 0.83867057594974714 0 0.54463902268945019 0.2723195113447251 0 -0.41933528797487357 1 I I #
coedge $-1 $321 $321 $-1 $447 reversed $215 $-1 #
edge $-1 $448 0 $448 6.2831853071796004 $216 $449 forward 7 unknown #
vertex $-1 $219 $450 #
ellipse-curve $-1 56.747996823710388 23.50511303207746 4.4184624700872428 0.83867057594974714 0 0.54463902268945019 0.2723195113447251 0 -0.41933528797487357 1 I I #
face $-1 $-1 $235 $33 $-1 $451 reversed single #
loop $-1 $-1 $341 $220 #
plane-surface $-1 0 26.300103352659583 0 0 -1 0 0 0 -1 forward_v I I I I #
coedge $-1 $452 $339 $342 $453 forward $221 $-1 #
coedge $-1 $345 $223 $224 $333 reversed $139 $-1 #
coedge $-1 $339 $452 $223 $331 reversed $221 $-1 #
edge $-1 $346 -6.2239109905553818 $454 6.2239109905553818 $330 $455 forward 7 unknown #
coedge $-1 $225 $224 $452 $456 forward $89 $-1 #
edge $-1 $337 -57.920468764305554 $454 57.920468764305554 $329 $457 forward 7 unknown #
coedge $-1 $342 $341 $225 $335 reversed $326 $-1 #
edge $-1 $458 -57.920468764305554 $336 57.920468764305554 $334 $459 forward 7 unknown #
vertex $-1 $227 $460 #
vertex $-1 $348 $461 #
straight-curve $-1 57.920468764305554 0 -6.2239109905553818 0 -1 0 I I #
coedge $-1 $328 $330 $228 $340 reversed $221 $-1 #
edge $-1 $343 -26.300103352659583 $346 26.300103352659583 $339 $462 forward 7 unknown #
coedge $-1 $334 $229 $234 $349 forward $326 $-1 #
coedge $-1 $229 $334 $328 $453 reversed $326 $-1 #
vertex $-1 $230 $463 #
straight-curve $-1 0 26.300103352659583 6.2239109905553818 -1 0 0 I I #
coedge $-1 $231 $329 $233 $348 reversed $139 $-1 #
vertex $-1 $340 $464 #
straight-curve $-1 0 -26.300103352659583 6.2239109905553818 1 0 0 I I #
edge $-1 $236 -6.2239109905553818 $337 6.2239109905553818 $233 $465 forward 7 unknown #
edge $-1 $237 -6.2239109905553818 $336 6.2239109905553818 $234 $466 forward 7 unknown #
point $-1 57.920468764305554 -26.300103352659583 6.2239109905553818 #
point $-1 57.920468764305554 26.300103352659583 6.2239109905553818 #
face $-1 $-1 $369 $34 $-1 $467 forward single #
loop $-1 $-1 $468 $239 #
plane-surface $-1 -45.47264678319479 -29.938273455676615 0 -1 0 0 0 0 1 forward_v I I I I #
coedge $-1 $469 $242 $359 $470 reversed $147 $-1 #
coedge $-1 $242 $469 $471 $472 reversed $147 $-1 #
coedge $-1 $250 $249 $242 $358 reversed $240 $-1 #
edge $-1 $473 -6.2239109905553818 $474 6.2239109905553818 $357 $475 forward 7 unknown #
coedge $-1 $244 $243 $355 $470 forward $93 $-1 #
coedge $-1 $365 $468 $243 $361 reversed $353 $-1 #
edge $-1 $363 -3.6381701030170319 $476 3.6381701030170319 $360 $477 forward 7 unknown #
edge $-1 $474 -3.6381701030170319 $251 3.6381701030170319 $249 $478 forward 7 unknown #
vertex $-1 $361 $479 #
straight-curve $-1 0 -26.300103352659583 -6.2239109905553818 1 0 0 I I #
coedge $-1 $480 $360 $246 $366 reversed $353 $-1 #
edge $-1 $370 -6.2239109905553818 $363 6.2239109905553818 $365 $481 forward 7 unknown #
coedge $-1 $471 $247 $250 $372 forward $369 $-1 #
coedge $-1 $247 $471 $480 $482 forward $369 $-1 #
loop $-1 $-1 $247 $352 #
vertex $-1 $248 $483 #
straight-curve $-1 0 -26.300103352659583 6.2239109905553818 -1 0 0 I I #
edge $-1 $252 -3.6381701030170319 $473 3.6381701030170319 $250 $484 forward 7 unknown #
point $-1 -48.47264678319479 -26.300103352659583 -6.2239109905553818 #
point $-1 -48.47264678319479 -26.300103352659583 6.2239109905553818 #
plane-surface $-1 0 0 6.2239109905553818 0 0 1 1 0 0 forward_v I I I I #
coedge $-1 $386 $385 $378 $485 forward $255 $-1 #
coedge $-1 $378 $257 $259 $382 reversed $155 $-1 #
coedge $-1 $257 $377 $376 $485 reversed $155 $-1 #
coedge $-1 $265 $260 $257 $380 forward $266 $-1 #
edge $-1 $383 -11.47865672505614 $486 -3.4284811374917581 $379 $487 forward 7 unknown #
coedge $-1 $259 $258 $386 $488 reversed $97 $-1 #
edge $-1 $489 0 $383 9.7102663397448659 $377 $490 forward 7 unknown #
vertex $-1 $261 $491 #
straight-curve $-1 -49.870293176741171 -5.9239733453334651 6.2239109905553818 0 1 0 I I #
coedge $-1 $376 $262 $265 $390 reversed $255 $-1 #
coedge $-1 $262 $376 $381 $488 forward $255 $-1 #
vertex $-1 $263 $492 #
straight-curve $-1 -57.920468764305554 -16.410858488553387 48.415243987672632 0 0 1 I I #
straight-curve $-1 -57.920468764305554 -16.410858488553387 0.79399889198835183 -0.82903756765294845 0 -0.55919291073839883 I I #
edge $-1 $486 7.2850348927804722 $267 16.410858488553387 $385 $493 forward 7 unknown #
point $-1 -57.920468764305554 -16.410858488553387 6.2239109905553818 #
point $-1 -49.870293176741171 -16.410858488553387 6.2239109905553809 #
edge $-1 $494 1 $494 0 $270 $-1 forward 7 unknown #
vertex $-1 $271 $495 #
ellipse-curve $-1 -52.817867582324503 -13.803480318332555 1.9114756790861396 -0.55919291073839883 0 0.82903756765294845 0.82903756765294845 0 0.55919291073839883 1 I I #
point $-1 -53.066343402870402 -13.803480318332555 4.0681478520102594 #
edge $-1 $496 1 $496 0 $274 $-1 forward 7 unknown #
vertex $-1 $275 $497 #
ellipse-curve $-1 -52.817867582324503 -9.8924130630013067 1.9114756790861396 -0.55919291073839883 0 0.82903756765294845 0.82903756765294845 0 0.55919291073839883 1 I I #
point $-1 -53.066343402870402 -9.8924130630013067 4.0681478520102594 #
loop $-1 $-1 $286 $278 #
plane-surface $-1 -57.920468764305554 0 0 1 0 0 0 0 -1 forward_v I I I I #
coedge $-1 $404 $281 $283 $408 reversed $177 $-1 #
coedge $-1 $281 $403 $498 $499 reversed $177 $-1 #
coedge $-1 $289 $284 $281 $406 forward $279 $-1 #
edge $-1 $409 -11.47865672505614 $500 -3.4284811374917581 $405 $501 forward 7 unknown #
coedge $-1 $283 $282 $412 $502 reversed $111 $-1 #
edge $-1 $503 0 $409 9.7102663397448659 $403 $504 forward 7 unknown #
vertex $-1 $285 $505 #
straight-curve $-1 -49.870293176741171 5.4069932794878106 6.2239109905553818 0 1 0 I I #
coedge $-1 $498 $286 $289 $416 reversed $401 $-1 #
coedge $-1 $286 $498 $407 $502 forward $401 $-1 #
vertex $-1 $287 $506 #
straight-curve $-1 -57.920468764305554 6.2510747610891633 48.415243987672632 0 0 1 I I #
straight-curve $-1 -57.920468764305554 6.2510747610891633 0.79399889198835183 -0.82903756765294845 0 -0.55919291073839883 I I #
edge $-1 $500 -15.376898356862078 $290 -6.2510747610891633 $411 $507 forward 7 unknown #
point $-1 -57.920468764305554 6.2510747610891633 6.2239109905553818 #
point $-1 -49.870293176741171 6.2510747610891633 6.2239109905553809 #
edge $-1 $508 1 $508 0 $293 $-1 forward 7 unknown #
vertex $-1 $294 $509 #
ellipse-curve $-1 -52.817867582324503 8.8584529313099978 1.9114756790861396 -0.55919291073839883 0 0.82903756765294845 0.82903756765294845 0 0.55919291073839883 1 I I #
point $-1 -53.066343402870402 8.8584529313099978 4.0681478520102594 #
edge $-1 $510 1 $510 0 $297 $-1 forward 7 unknown #
vertex $-1 $298 $511 #
ellipse-curve $-1 -52.817867582324503 12.769520186641245 1.9114756790861396 -0.55919291073839883 0 0.82903756765294845 0.82903756765294845 0 0.55919291073839883 1 I I #
point $-1 -53.066343402870402 12.769520186641245 4.0681478520102594 #
plane-surface $-1 57.920468764305554 0 0 -1 0 0 0 0 1 forward_v I I I I #
coedge $-1 $309 $512 $432 $513 forward $302 $-1 #
coedge $-1 $430 $304 $512 $514 reversed $199 $-1 #
coedge $-1 $304 $429 $433 $515 forward $199 $-1 #
edge $-1 $434 -72.597613558012739 $516 -68.29211251328239 $304 $517 forward 7 unknown #
coedge $-1 $306 $305 $428 $513 reversed $125 $-1 #
coedge $-1 $312 $307 $430 $515 reversed $313 $-1 #
vertex $-1 $308 $518 #
straight-curve $-1 57.920468764305554 10.70443514582043 2.6130139496191376 0 1 0 I I #
coedge $-1 $512 $309 $312 $440 forward $302 $-1 #
vertex $-1 $310 $519 #
straight-curve $-1 45.990679778486054 16.517637230622135 6.2239109905553818 1 0 0 I I #
straight-curve $-1 -5.171026238706844 16.517637230622135 99.765399745298083 -0.54463902268945019 0 0.83867057594974714 I I #
edge $-1 $314 16.517637230622135 $520 26.300103352659583 $312 $521 forward 7 unknown #
point $-1 57.920468764305554 16.517637230622135 6.2239109905553818 #
point $-1 57.920468764305554 16.517637230622135 2.6130139496191447 #
edge $-1 $522 1 $522 0 $317 $-1 forward 7 unknown #
vertex $-1 $318 $523 #
ellipse-curve $-1 55.687315426636083 19.312627551204265 3.7296479390263033 0.83867057594974714 0 0.54463902268945019 0.2723195113447251 0 -0.41933528797487357 1 I I #
point $-1 57.020316335055107 19.312627551204265 3.99912718211236 #
edge $-1 $524 1 $524 0 $321 $-1 forward 7 unknown #
vertex $-1 $322 $525 #
ellipse-curve $-1 55.687315426636083 23.50511303207746 3.7296479390263033 0.83867057594974714 0 0.54463902268945019 0.2723195113447251 0 -0.41933528797487357 1 I I #
point $-1 57.020316335055107 23.50511303207746 3.99912718211236 #
plane-surface $-1 57.920468764305554 0 0 -1 0 0 0 0 1 forward_v I I I I #
coedge $-1 $330 $328 $332 $456 reversed $221 $-1 #
edge $-1 $343 -6.2239109905553818 $458 6.2239109905553818 $342 $526 forward 7 unknown #
vertex $-1 $456 $527 #
straight-curve $-1 -57.920468764305554 -26.300103352659583 0 0 0 -1 I I #
edge $-1 $454 -26.300103352659583 $458 26.300103352659583 $452 $528 forward 7 unknown #
straight-curve $-1 0 -26.300103352659583 -6.2239109905553818 -1 0 0 I I #
vertex $-1 $335 $529 #
straight-curve $-1 0 26.300103352659583 -6.2239109905553818 1 0 0 I I #
point $-1 57.920468764305554 26.300103352659583 -6.2239109905553818 #
point $-1 57.920468764305554 -26.300103352659583 -6.2239109905553818 #
straight-curve $-1 -57.920468764305554 0 6.2239109905553818 0 -1 0 I I #
point $-1 -57.920468764305554 26.300103352659583 6.2239109905553818 #
point $-1 -57.920468764305554 -26.300103352659583 6.2239109905553818 #
straight-curve $-1 57.920468764305554 -26.300103352659583 0 0 0 -1 I I #
straight-curve $-1 57.920468764305554 26.300103352659583 0 0 0 -1 I I #
plane-surface $-1 0 0 6.2239109905553818 0 0 1 1 0 0 forward_v I I I I #
coedge $-1 $360 $480 $469 $530 forward $353 $-1 #
coedge $-1 $356 $355 $468 $530 reversed $147 $-1 #
edge $-1 $476 -1.5 $474 1.5 $355 $531 forward 7 unknown #
coedge $-1 $368 $367 $356 $472 forward $369 $-1 #
edge $-1 $473 -1.5 $532 1.5 $356 $533 forward 7 unknown #
vertex $-1 $372 $534 #
vertex $-1 $362 $535 #
straight-curve $-1 -48.47264678319479 -33.576443558693647 0 0 0 -1 I I #
vertex $-1 $530 $536 #
straight-curve $-1 -45.47264678319479 -29.938273455676615 -6.2239109905553818 0 -1 0 I I #
straight-curve $-1 -48.47264678319479 -29.938273455676615 -6.2239109905553818 0 1 0 I I #
point $-1 -45.47264678319479 -26.300103352659583 -6.2239109905553818 #
coedge $-1 $468 $365 $368 $482 reversed $353 $-1 #
straight-curve $-1 -45.47264678319479 -26.300103352659583 0 0 0 -1 I I #
edge $-1 $532 -3.6381701030170319 $370 3.6381701030170319 $480 $537 forward 7 unknown #
point $-1 -45.47264678319479 -26.300103352659583 6.2239109905553818 #
straight-curve $-1 -48.47264678319479 -29.938273455676615 6.2239109905553818 0 -1 0 I I #
edge $-1 $486 42.19133299711725 $489 47.62124509568428 $376 $538 forward 7 unknown #
vertex $-1 $390 $539 #
straight-curve $-1 -61.348949901797312 -7.2850348927804722 6.2239109905553818 -1 0 0 I I #
edge $-1 $489 1.3610615474470071 $387 10.486885143219922 $386 $540 forward 7 unknown #
vertex $-1 $488 $541 #
straight-curve $-1 -57.920468764305554 -7.2850348927804722 0.79399889198835183 0.82903756765294845 0 0.55919291073839883 I I #
point $-1 -49.870293176741171 -7.2850348927804722 6.2239109905553809 #
point $-1 -57.920468764305554 -16.410858488553387 0.79399889198835183 #
straight-curve $-1 -57.920468764305554 0 6.2239109905553818 0 -1 0 I I #
vertex $-1 $393 $542 #
point $-1 -51.988830014671549 -13.803480318332555 2.4706685898245384 #
vertex $-1 $397 $543 #
point $-1 -51.988830014671549 -9.8924130630013067 2.4706685898245384 #
coedge $-1 $412 $411 $404 $499 forward $401 $-1 #
edge $-1 $500 42.19133299711725 $503 47.62124509568428 $498 $544 forward 7 unknown #
vertex $-1 $416 $545 #
straight-curve $-1 -61.348949901797312 15.376898356862078 6.2239109905553818 -1 0 0 I I #
edge $-1 $503 -9.9699050773742677 $413 -0.84408148160135266 $412 $546 forward 7 unknown #
vertex $-1 $502 $547 #
straight-curve $-1 -57.920468764305554 15.376898356862078 0.79399889198835183 0.82903756765294845 0 0.55919291073839883 I I #
point $-1 -49.870293176741171 15.376898356862078 6.2239109905553809 #
point $-1 -57.920468764305554 6.2510747610891633 0.79399889198835183 #
straight-curve $-1 -57.920468764305554 0 6.2239109905553818 0 -1 0 I I #
vertex $-1 $419 $548 #
point $-1 -51.988830014671549 8.8584529313099978 2.4706685898245384 #
vertex $-1 $423 $549 #
point $-1 -51.988830014671549 12.769520186641245 2.4706685898245384 #
coedge $-1 $428 $436 $429 $514 forward $302 $-1 #
edge $-1 $516 -15.595668206839154 $437 -5.8132020848017056 $428 $550 forward 7 unknown #
edge $-1 $520 -57.920468764305554 $516 -55.575524883115214 $429 $551 forward 7 unknown #
edge $-1 $520 -6.2239109905553818 $434 -2.6130139496191469 $433 $552 forward 7 unknown #
vertex $-1 $513 $553 #
straight-curve $-1 18.380975466483115 26.300103352659583 63.498496324894859 -0.54463902268945019 0 0.83867057594974714 I I #
point $-1 57.920468764305554 26.300103352659583 2.6130139496191469 #
point $-1 55.575524883115214 16.517637230622135 6.2239109905553818 #
vertex $-1 $440 $554 #
straight-curve $-1 57.920468764305554 0 6.2239109905553818 0 1 0 I I #
vertex $-1 $443 $555 #
point $-1 55.959634937980809 19.312627551204265 3.3103126510514298 #
vertex $-1 $447 $556 #
point $-1 55.959634937980809 23.50511303207746 3.3103126510514298 #
straight-curve $-1 -57.920468764305554 26.300103352659583 0 0 0 -1 I I #
point $-1 -57.920468764305554 -26.300103352659583 -6.2239109905553818 #
straight-curve $-1 -57.920468764305554 0 -6.2239109905553818 0 1 0 I I #
point $-1 -57.920468764305554 26.300103352659583 -6.2239109905553818 #
edge $-1 $532 -6.2239109905553818 $476 6.2239109905553818 $468 $557 forward 7 unknown #
straight-curve $-1 -46.97264678319479 -33.576443558693647 -6.2239109905553818 -1 0 0 I I #
vertex $-1 $482 $558 #
straight-curve $-1 -46.97264678319479 -33.576443558693647 6.2239109905553818 1 0 0 I I #
point $-1 -48.47264678319479 -33.576443558693647 6.2239109905553818 #
point $-1 -48.47264678319479 -33.576443558693647 -6.2239109905553818 #
point $-1 -45.47264678319479 -33.576443558693647 -6.2239109905553818 #
straight-curve $-1 -45.47264678319479 -29.938273455676615 6.2239109905553818 0 1 0 I I #
straight-curve $-1 -57.920468764305554 -7.2850348927804722 48.415243987672632 0 0 -1 I I #
point $-1 -57.920468764305554 -7.2850348927804722 6.2239109905553818 #
straight-curve $-1 -57.920468764305554 -5.9239733453334651 0.79399889198835194 0 -1 0 I I #
point $-1 -57.920468764305554 -7.2850348927804722 0.79399889198835183 #
point $-1 -52.2586746715861 -13.803480318332555 1.0824381114331914 #
point $-1 -52.2586746715861 -9.8924130630013067 1.0824381114331914 #
straight-curve $-1 -57.920468764305554 15.376898356862078 48.415243987672632 0 0 -1 I I #
point $-1 -57.920468764305554 15.376898356862078 6.2239109905553818 #
straight-curve $-1 -57.920468764305554 5.4069932794878106 0.79399889198835194 0 -1 0 I I #
point $-1 -57.920468764305554 15.376898356862078 0.79399889198835183 #
point $-1 -52.2586746715861 8.8584529313099978 1.0824381114331914 #
point $-1 -52.2586746715861 12.769520186641245 1.0824381114331914 #
straight-curve $-1 55.575524883115207 10.70443514582043 6.2239109905553818 0 -1 0 I I #
straight-curve $-1 0 26.300103352659583 6.2239109905553818 -1 0 0 I I #
straight-curve $-1 57.920468764305554 26.300103352659583 0 0 0 -1 I I #
point $-1 55.575524883115214 26.300103352659583 6.2239109905553818 #
point $-1 57.920468764305554 26.300103352659583 6.2239109905553818 #
point $-1 55.267980138661208 19.312627551204265 3.4573284276815781 #
point $-1 55.267980138661208 23.50511303207746 3.4573284276815781 #
straight-curve $-1 -45.47264678319479 -33.576443558693647 0 0 0 -1 I I #
point $-1 -45.47264678319479 -33.576443558693647 6.2239109905553818 #
End-of-ACIS-data 