500 0 6 0           
7 Unknown 11 ACIS 5.0 NT 24 Thu Mar 25 21:09:22 1999 
-1 9.9999999999999995e-007 1e-010 
body $-1 $6 $-1 $7 #
body $-1 $8 $-1 $9 #
body $-1 $10 $-1 $11 #
body $-1 $12 $-1 $13 #
body $-1 $14 $-1 $15 #
body $-1 $16 $-1 $17 #
lump $-1 $-1 $18 $0 #
transform $-1 1 0 0 0 1 0 0 0 1 51.82775353251747 24.87975752252083 5.0442878849182069 1 rotate no_reflect no_shear #
lump $-1 $-1 $19 $1 #
transform $-1 1 0 0 0 1 0 0 0 1 51.82775353251747 24.87975752252083 5.0442878849182069 1 rotate no_reflect no_shear #
lump $-1 $-1 $20 $2 #
transform $-1 1 0 0 0 1 0 0 0 1 51.82775353251747 24.87975752252083 5.0442878849182069 1 rotate no_reflect no_shear #
lump $-1 $-1 $21 $3 #
transform $-1 1 0 0 0 1 0 0 0 1 51.82775353251747 24.87975752252083 5.0442878849182069 1 rotate no_reflect no_shear #
lump $-1 $-1 $22 $4 #
transform $-1 1 0 0 0 1 0 0 0 1 51.82775353251747 24.87975752252083 5.0442878849182069 1 rotate no_reflect no_shear #
lump $-1 $-1 $23 $5 #
transform $-1 1 0 0 0 1 0 0 0 1 51.82775353251747 24.87975752252083 5.0442878849182069 1 rotate no_reflect no_shear #
shell $-1 $-1 $-1 $24 $-1 $6 #
shell $-1 $-1 $-1 $25 $-1 $8 #
shell $-1 $-1 $-1 $26 $-1 $10 #
shell $-1 $-1 $-1 $27 $-1 $12 #
shell $-1 $-1 $-1 $28 $-1 $14 #
shell $-1 $-1 $-1 $29 $-1 $16 #
face $-1 $30 $31 $18 $-1 $32 forward single #
face $-1 $33 $34 $19 $-1 $35 reversed single #
face $-1 $36 $37 $20 $-1 $38 reversed single #
face $-1 $39 $40 $21 $-1 $41 forward single #
face $-1 $42 $43 $22 $-1 $44 reversed single #
face $-1 $45 $46 $23 $-1 $47 forward single #
face $-1 $48 $49 $18 $-1 $50 reversed single #
loop $-1 $-1 $51 $24 #
plane-surface $-1 0 0 5.0442878849182069 0 0 1 1 0 0 forward_v I I I I #
face $-1 $52 $53 $19 $-1 $54 reversed single #
loop $-1 $-1 $55 $25 #
plane-surface $-1 0 -22.341812752750467 2.0442878849182069 0 0 1 1 0 0 forward_v I I I I #
face $-1 $56 $57 $20 $-1 $58 reversed single #
loop $-1 $-1 $59 $26 #
plane-surface $-1 64.604004983807187 -6.568048517342767 148.02689135307918 0 -1 0 -0.7660444514056185 0 -0.64278759981090561 forward_v I I I I #
face $-1 $60 $61 $21 $-1 $62 forward single #
loop $-1 $63 $64 $27 #
cone-surface $-1 50.164853860147076 -13.185958250161438 3.1975954999322069 -0.7660444514056185 0 -0.64278759981090561 0.3213937999054528 0 -0.38302222570280925 1 I I 0 1 0.5 forward I I I I #
face $-1 $65 $66 $22 $-1 $67 reversed single #
loop $-1 $-1 $68 $28 #
plane-surface $-1 -51.827753532517477 -13.185958250161436 1.9936907147571077 -0.7660444514056185 0 0.64278759981090561 0.64278759981090561 0 0.7660444514056185 forward_v I I I I #
face $-1 $69 $70 $23 $-1 $71 forward single #
loop $-1 $72 $73 $29 #
cone-surface $-1 -50.164853860147069 -13.185958250161438 3.197595499932206 0.7660444514056185 0 -0.64278759981090561 0.3213937999054528 0 0.38302222570280925 1 I I 0 1 0.5 forward I I I I #
face $-1 $74 $75 $18 $-1 $76 reversed single #
loop $-1 $-1 $77 $30 #
plane-surface $-1 0 0 -5.0442878849182069 0 0 1 1 0 0 forward_v I I I I #
coedge $-1 $78 $79 $80 $81 forward $31 $-1 #
face $-1 $82 $83 $19 $-1 $84 reversed single #
loop $-1 $-1 $85 $33 #
plane-surface $-1 0 -19.803867982980105 3.5442878849182069 0 -1 0 0 0 -1 forward_v I I I I #
coedge $-1 $86 $87 $88 $89 reversed $34 $-1 #
face $-1 $90 $91 $20 $-1 $92 forward single #
loop $-1 $-1 $93 $36 #
plane-surface $-1 -14.800721060998711 -13.185958250161436 81.398416759563005 0.7660444514056185 0 0.64278759981090561 0.64278759981090561 0 -0.7660444514056185 forward_v I I I I #
coedge $-1 $94 $95 $96 $97 reversed $37 $-1 #
face $-1 $-1 $98 $21 $-1 $99 forward single #
loop $-1 $100 $101 $39 #
cone-surface $-1 49.590320521592865 -13.185958250161438 2.7155048000740276 -0.7660444514056185 0 -0.64278759981090561 0.1606968999527264 0 -0.19151111285140462 1 I I -0.70710678118654746 0.70710678118654746 0.25 forward I I I I #
loop $-1 $-1 $102 $27 #
coedge $-1 $64 $64 $103 $104 reversed $40 $-1 #
face $-1 $105 $106 $22 $-1 $107 forward single #
loop $-1 $-1 $108 $42 #
plane-surface $-1 -131.23247957732337 -6.568048517342767 68.622165308273281 0 -1 0 0.7660444514056185 0 -0.64278759981090561 forward_v I I I I #
coedge $-1 $109 $110 $111 $112 reversed $43 $-1 #
face $-1 $-1 $113 $23 $-1 $114 forward single #
loop $-1 $115 $116 $45 #
cone-surface $-1 -49.590320521592858 -13.185958250161438 2.7155048000740267 0.7660444514056185 0 -0.64278759981090561 0.1606968999527264 0 0.19151111285140462 1 I I -0.70710678118654746 0.70710678118654746 0.25 forward I I I I #
loop $-1 $-1 $117 $29 #
coedge $-1 $73 $73 $118 $119 reversed $46 $-1 #
face $-1 $120 $121 $18 $-1 $122 reversed single #
loop $-1 $-1 $123 $48 #
plane-surface $-1 0 -24.87975752252083 0 0 1 0 0 0 1 forward_v I I I I #
coedge $-1 $124 $125 $126 $127 forward $49 $-1 #
coedge $-1 $128 $51 $129 $130 forward $31 $-1 #
coedge $-1 $51 $128 $131 $132 forward $31 $-1 #
coedge $-1 $133 $134 $51 $81 reversed $135 $-1 #
edge $-1 $136 -24.87975752252083 $137 24.87975752252083 $80 $138 forward 7 unknown #
face $-1 $139 $140 $19 $-1 $141 reversed single #
loop $-1 $-1 $142 $52 #
plane-surface $-1 -51.82775353251747 0 0 1 0 0 0 0 -1 forward_v I I I I #
coedge $-1 $143 $144 $145 $146 reversed $53 $-1 #
coedge $-1 $147 $55 $148 $149 reversed $34 $-1 #
coedge $-1 $55 $147 $143 $150 forward $34 $-1 #
coedge $-1 $145 $151 $55 $89 forward $152 $-1 #
edge $-1 $153 -13.708851146145596 $154 -8.6329616066048711 $88 $155 forward 7 unknown #
face $-1 $156 $157 $20 $-1 $158 forward single #
loop $-1 $-1 $159 $56 #
plane-surface $-1 0 -19.803867982980105 3.5442878849182069 0 -1 0 0 0 -1 forward_v I I I I #
coedge $-1 $160 $161 $162 $163 reversed $57 $-1 #
coedge $-1 $95 $59 $164 $165 reversed $37 $-1 #
coedge $-1 $59 $94 $160 $166 reversed $37 $-1 #
coedge $-1 $162 $167 $59 $97 forward $157 $-1 #
edge $-1 $168 -19.525751040613876 $169 -16.965996147278702 $96 $170 forward 7 unknown #
loop $-1 $-1 $103 $60 #
plane-surface $-1 -14.800721060998711 -13.185958250161436 81.398416759563005 0.7660444514056185 0 0.64278759981090561 0.64278759981090561 0 -0.7660444514056185 forward_v I I I I #
loop $-1 $-1 $171 $39 #
coedge $-1 $101 $101 $102 $172 reversed $61 $-1 #
coedge $-1 $102 $102 $101 $172 forward $63 $-1 #
coedge $-1 $103 $103 $64 $104 forward $98 $-1 #
edge $-1 $173 0 $173 6.2831853071796004 $103 $174 forward 7 unknown #
face $-1 $175 $176 $22 $-1 $177 reversed single #
loop $-1 $-1 $111 $65 #
plane-surface $-1 0 0 5.0442878849182069 0 0 1 1 0 0 forward_v I I I I #
coedge $-1 $178 $179 $180 $181 reversed $66 $-1 #
coedge $-1 $182 $68 $183 $184 reversed $43 $-1 #
coedge $-1 $68 $182 $178 $185 forward $43 $-1 #
coedge $-1 $180 $186 $68 $112 forward $106 $-1 #
edge $-1 $187 -13.210888857899388 $188 0.024930607737950972 $111 $189 forward 7 unknown #
loop $-1 $-1 $118 $69 #
plane-surface $-1 -51.827753532517477 -13.185958250161436 1.9936907147571077 -0.7660444514056185 0 0.64278759981090561 0.64278759981090561 0 0.7660444514056185 forward_v I I I I #
loop $-1 $-1 $190 $45 #
coedge $-1 $116 $116 $117 $191 reversed $70 $-1 #
coedge $-1 $117 $117 $116 $191 forward $72 $-1 #
coedge $-1 $118 $118 $73 $119 forward $113 $-1 #
edge $-1 $192 0 $192 6.2831853071796004 $118 $193 forward 7 unknown #
face $-1 $194 $195 $18 $-1 $196 reversed single #
loop $-1 $-1 $197 $74 #
plane-surface $-1 -51.82775353251747 0 0 1 0 0 0 0 -1 forward_v I I I I #
coedge $-1 $198 $131 $199 $200 forward $75 $-1 #
coedge $-1 $201 $77 $198 $202 forward $49 $-1 #
coedge $-1 $77 $201 $203 $204 forward $49 $-1 #
coedge $-1 $134 $133 $77 $127 reversed $135 $-1 #
edge $-1 $205 -24.87975752252083 $206 24.87975752252083 $126 $207 forward 7 unknown #
coedge $-1 $79 $78 $208 $209 forward $31 $-1 #
coedge $-1 $210 $211 $78 $130 reversed $195 $-1 #
edge $-1 $137 -51.82775353251747 $212 51.82775353251747 $129 $213 forward 7 unknown #
coedge $-1 $123 $214 $79 $132 reversed $75 $-1 #
edge $-1 $215 -51.82775353251747 $136 51.82775353251747 $131 $216 forward 7 unknown #
coedge $-1 $126 $80 $214 $217 forward $135 $-1 #
coedge $-1 $80 $126 $210 $218 reversed $135 $-1 #
loop $-1 $-1 $133 $194 #
vertex $-1 $81 $219 #
vertex $-1 $81 $220 #
straight-curve $-1 51.82775353251747 0 5.0442878849182069 0 1 0 I I #
face $-1 $221 $222 $19 $-1 $223 forward single #
loop $-1 $-1 $148 $82 #
plane-surface $-1 0 -24.87975752252083 0 0 1 0 0 0 1 forward_v I I I I #
coedge $-1 $224 $225 $226 $227 forward $83 $-1 #
coedge $-1 $226 $85 $87 $150 reversed $53 $-1 #
coedge $-1 $85 $226 $228 $229 reversed $53 $-1 #
coedge $-1 $230 $88 $85 $146 forward $152 $-1 #
edge $-1 $154 0.27214394245910345 $231 3.2721439424591034 $145 $232 forward 7 unknown #
coedge $-1 $87 $86 $224 $233 reversed $34 $-1 #
coedge $-1 $234 $235 $86 $149 forward $140 $-1 #
edge $-1 $236 -51.82775353251747 $153 51.82775353251747 $148 $237 forward 7 unknown #
edge $-1 $238 -51.82775353251747 $154 51.82775353251747 $143 $239 forward 7 unknown #
coedge $-1 $88 $230 $234 $240 forward $152 $-1 #
loop $-1 $-1 $145 $221 #
vertex $-1 $149 $241 #
vertex $-1 $89 $242 #
straight-curve $-1 51.82775353251747 -11.170906376375234 2.0442878849182069 0 1 0 I I #
face $-1 $-1 $243 $20 $-1 $244 reversed single #
loop $-1 $-1 $162 $90 #
plane-surface $-1 0 0 5.0442878849182069 0 0 1 1 0 0 forward_v I I I I #
coedge $-1 $245 $246 $161 $247 reversed $91 $-1 #
coedge $-1 $248 $93 $95 $166 forward $57 $-1 #
coedge $-1 $93 $248 $159 $247 forward $57 $-1 #
coedge $-1 $249 $96 $93 $163 forward $157 $-1 #
edge $-1 $169 -0.024930607737950972 $250 13.210888857899388 $162 $251 forward 7 unknown #
coedge $-1 $252 $253 $94 $165 forward $243 $-1 #
edge $-1 $254 -72.019754961782496 $168 -68.969157791621384 $164 $255 forward 7 unknown #
edge $-1 $169 99.673235325368225 $254 103.65550706503497 $95 $256 forward 7 unknown #
coedge $-1 $96 $249 $252 $257 forward $157 $-1 #
vertex $-1 $165 $258 #
vertex $-1 $97 $259 #
straight-curve $-1 32.302002491903593 -6.568048517342767 5.0442878849182051 -1 0 0 I I #
coedge $-1 $171 $171 $-1 $260 reversed $100 $-1 #
edge $-1 $261 0 $261 6.2831853071796004 $101 $262 forward 7 unknown #
vertex $-1 $104 $263 #
ellipse-curve $-1 50.547876085849879 -13.185958250161438 3.5189892998376551 0.7660444514056185 0 0.64278759981090561 0.3213937999054528 0 -0.38302222570280925 1 I I #
face $-1 $-1 $264 $22 $-1 $265 forward single #
loop $-1 $-1 $266 $105 #
plane-surface $-1 -51.82775353251747 0 0 1 0 0 0 0 -1 forward_v I I I I #
coedge $-1 $179 $108 $110 $185 reversed $66 $-1 #
coedge $-1 $108 $178 $266 $267 reversed $66 $-1 #
coedge $-1 $268 $111 $108 $181 forward $106 $-1 #
edge $-1 $188 -16.348241149479392 $269 -13.788486256144218 $180 $270 forward 7 unknown #
coedge $-1 $110 $109 $271 $272 reversed $43 $-1 #
coedge $-1 $273 $274 $109 $184 forward $264 $-1 #
edge $-1 $275 -17.251031827662619 $187 -13.268760087995897 $183 $276 forward 7 unknown #
edge $-1 $277 1.1030930024383267e-014 $188 3.9822717396667344 $178 $278 forward 7 unknown #
coedge $-1 $111 $268 $273 $279 forward $106 $-1 #
vertex $-1 $184 $280 #
vertex $-1 $112 $281 #
straight-curve $-1 -49.267998639182295 -6.5929791250807179 5.0442878849182069 0 1 0 I I #
coedge $-1 $190 $190 $-1 $282 reversed $115 $-1 #
edge $-1 $283 0 $283 6.2831853071796004 $116 $284 forward 7 unknown #
vertex $-1 $119 $285 #
ellipse-curve $-1 -50.547876085849886 -13.185958250161438 3.5189892998376631 -0.7660444514056185 0 0.64278759981090561 0.3213937999054528 0 0.38302222570280925 1 I I #
face $-1 $-1 $135 $18 $-1 $286 reversed single #
loop $-1 $-1 $210 $120 #
plane-surface $-1 0 24.87975752252083 0 0 -1 0 0 0 -1 forward_v I I I I #
coedge $-1 $287 $208 $211 $288 forward $121 $-1 #
coedge $-1 $214 $123 $124 $202 reversed $75 $-1 #
coedge $-1 $208 $287 $123 $200 reversed $121 $-1 #
edge $-1 $215 -5.0442878849182069 $289 5.0442878849182069 $199 $290 forward 7 unknown #
coedge $-1 $125 $124 $287 $291 forward $49 $-1 #
edge $-1 $206 -51.82775353251747 $289 51.82775353251747 $198 $292 forward 7 unknown #
coedge $-1 $211 $210 $125 $204 reversed $195 $-1 #
edge $-1 $293 -51.82775353251747 $205 51.82775353251747 $203 $294 forward 7 unknown #
vertex $-1 $127 $295 #
vertex $-1 $217 $296 #
straight-curve $-1 51.82775353251747 0 -5.0442878849182069 0 -1 0 I I #
coedge $-1 $197 $199 $128 $209 reversed $121 $-1 #
edge $-1 $212 -24.87975752252083 $215 24.87975752252083 $208 $297 forward 7 unknown #
coedge $-1 $203 $129 $134 $218 forward $195 $-1 #
coedge $-1 $129 $203 $197 $288 reversed $195 $-1 #
vertex $-1 $130 $298 #
straight-curve $-1 0 24.87975752252083 5.0442878849182069 -1 0 0 I I #
coedge $-1 $131 $198 $133 $217 reversed $75 $-1 #
vertex $-1 $209 $299 #
straight-curve $-1 0 -24.87975752252083 5.0442878849182069 1 0 0 I I #
edge $-1 $136 -5.0442878849182069 $206 5.0442878849182069 $133 $300 forward 7 unknown #
edge $-1 $137 -5.0442878849182069 $205 5.0442878849182069 $134 $301 forward 7 unknown #
point $-1 51.82775353251747 -24.87975752252083 5.0442878849182069 #
point $-1 51.82775353251747 24.87975752252083 5.0442878849182069 #
face $-1 $-1 $152 $19 $-1 $302 reversed single #
loop $-1 $-1 $228 $139 #
plane-surface $-1 0 0 5.0442878849182069 0 0 1 1 0 0 forward_v I I I I #
coedge $-1 $303 $142 $147 $233 forward $83 $-1 #
coedge $-1 $142 $303 $304 $305 reversed $83 $-1 #
coedge $-1 $144 $143 $142 $227 reversed $53 $-1 #
edge $-1 $306 -3.2721439424591034 $238 -0.27214394245910345 $142 $307 forward 7 unknown #
coedge $-1 $304 $308 $144 $229 forward $222 $-1 #
edge $-1 $231 -51.82775353251747 $306 51.82775353251747 $228 $309 forward 7 unknown #
coedge $-1 $151 $145 $308 $310 reversed $152 $-1 #
vertex $-1 $146 $311 #
straight-curve $-1 51.82775353251747 -19.803867982980105 1.7721439424591034 0 0 1 I I #
edge $-1 $238 8.6329616066048711 $236 13.708851146145596 $224 $312 forward 7 unknown #
coedge $-1 $313 $148 $151 $240 reversed $140 $-1 #
coedge $-1 $148 $313 $303 $314 forward $140 $-1 #
vertex $-1 $149 $315 #
straight-curve $-1 0 -24.87975752252083 2.0442878849182069 1 0 0 I I #
vertex $-1 $233 $316 #
straight-curve $-1 0 -19.803867982980105 2.0442878849182069 1 0 0 I I #
edge $-1 $317 -5.0442878849182069 $153 -2.0442878849182069 $151 $318 forward 7 unknown #
point $-1 51.82775353251747 -24.87975752252083 2.0442878849182069 #
point $-1 51.82775353251747 -19.803867982980105 2.0442878849182069 #
loop $-1 $-1 $164 $156 #
plane-surface $-1 51.82775353251747 0 0 -1 0 0 0 0 1 forward_v I I I I #
coedge $-1 $246 $159 $319 $320 reversed $91 $-1 #
coedge $-1 $159 $245 $249 $321 reversed $91 $-1 #
edge $-1 $322 -103.65550706503497 $250 -99.673235325368225 $159 $323 forward 7 unknown #
coedge $-1 $161 $160 $253 $324 reversed $57 $-1 #
coedge $-1 $167 $162 $246 $321 forward $157 $-1 #
vertex $-1 $321 $325 #
straight-curve $-1 49.267998639182281 -6.5929791250807179 5.0442878849182051 0 -1 0 I I #
coedge $-1 $319 $164 $167 $257 reversed $243 $-1 #
coedge $-1 $164 $319 $248 $324 forward $243 $-1 #
vertex $-1 $165 $326 #
straight-curve $-1 51.82775353251747 -6.568048517342767 74.01344567653959 0 0 1 I I #
straight-curve $-1 -14.800721060998711 -6.568048517342767 81.398416759563005 0.64278759981090561 0 -0.7660444514056185 I I #
edge $-1 $327 -19.803867982980105 $168 -6.568048517342767 $252 $328 forward 7 unknown #
point $-1 51.82775353251747 -6.568048517342767 5.0442878849182069 #
point $-1 49.267998639182295 -6.568048517342767 5.0442878849182051 #
edge $-1 $329 1 $329 0 $171 $-1 forward 7 unknown #
vertex $-1 $172 $330 #
ellipse-curve $-1 49.781831634444266 -13.185958250161438 2.8762017000267539 0.7660444514056185 0 0.64278759981090561 0.3213937999054528 0 -0.38302222570280925 1 I I #
point $-1 50.869269885755344 -13.185958250161438 3.1359670741348502 #
loop $-1 $-1 $183 $175 #
plane-surface $-1 0 -19.803867982980105 3.5442878849182069 0 -1 0 0 0 -1 forward_v I I I I #
coedge $-1 $271 $331 $179 $267 forward $176 $-1 #
edge $-1 $269 29.266794769218436 $277 32.317391939379526 $266 $332 forward 7 unknown #
coedge $-1 $186 $180 $331 $333 forward $106 $-1 #
vertex $-1 $333 $334 #
straight-curve $-1 -65.616239788661687 -6.568048517342767 5.0442878849182051 -1 0 0 I I #
coedge $-1 $335 $266 $182 $272 forward $176 $-1 #
edge $-1 $277 -0.024930607737950972 $275 13.210888857899388 $271 $336 forward 7 unknown #
coedge $-1 $274 $183 $186 $279 reversed $264 $-1 #
coedge $-1 $183 $273 $335 $337 reversed $264 $-1 #
vertex $-1 $337 $338 #
straight-curve $-1 -40.739004189752677 -19.803867982980105 15.208747927359791 0.64278759981090572 0 0.76604445140561861 I I #
vertex $-1 $272 $339 #
straight-curve $-1 -51.827753532517477 -6.568048517342767 1.9936907147571077 0.64278759981090561 0 0.7660444514056185 I I #
edge $-1 $340 -51.82775353251747 $187 -49.267998639182295 $186 $341 forward 7 unknown #
point $-1 -49.267998639182295 -19.803867982980105 5.0442878849182069 #
point $-1 -49.267998639182295 -6.568048517342767 5.0442878849182069 #
edge $-1 $342 1 $342 0 $190 $-1 forward 7 unknown #
vertex $-1 $191 $343 #
ellipse-curve $-1 -49.781831634444259 -13.185958250161438 2.876201700026753 -0.7660444514056185 0 0.64278759981090561 0.3213937999054528 0 0.38302222570280925 1 I I #
point $-1 -50.226482285944428 -13.185958250161438 3.9020115255404679 #
plane-surface $-1 51.82775353251747 0 0 -1 0 0 0 0 1 forward_v I I I I #
coedge $-1 $199 $197 $201 $291 reversed $121 $-1 #
edge $-1 $212 -5.0442878849182069 $293 5.0442878849182069 $211 $344 forward 7 unknown #
vertex $-1 $291 $345 #
straight-curve $-1 -51.82775353251747 -24.87975752252083 0 0 0 -1 I I #
edge $-1 $289 -24.87975752252083 $293 24.87975752252083 $287 $346 forward 7 unknown #
straight-curve $-1 0 -24.87975752252083 -5.0442878849182069 -1 0 0 I I #
vertex $-1 $204 $347 #
straight-curve $-1 0 24.87975752252083 -5.0442878849182069 1 0 0 I I #
point $-1 51.82775353251747 24.87975752252083 -5.0442878849182069 #
point $-1 51.82775353251747 -24.87975752252083 -5.0442878849182069 #
straight-curve $-1 -51.82775353251747 0 5.0442878849182069 0 -1 0 I I #
point $-1 -51.82775353251747 24.87975752252083 5.0442878849182069 #
point $-1 -51.82775353251747 -24.87975752252083 5.0442878849182069 #
straight-curve $-1 51.82775353251747 -24.87975752252083 0 0 0 -1 I I #
straight-curve $-1 51.82775353251747 24.87975752252083 0 0 0 -1 I I #
plane-surface $-1 51.82775353251747 0 0 -1 0 0 0 0 1 forward_v I I I I #
coedge $-1 $225 $224 $235 $314 reversed $83 $-1 #
coedge $-1 $348 $228 $225 $305 forward $222 $-1 #
edge $-1 $306 19.803867982980105 $349 24.87975752252083 $225 $350 forward 7 unknown #
vertex $-1 $305 $351 #
straight-curve $-1 -51.82775353251747 -19.803867982980105 1.7721439424591034 0 0 -1 I I #
coedge $-1 $228 $348 $230 $310 forward $222 $-1 #
straight-curve $-1 0 -19.803867982980105 5.0442878849182069 -1 0 0 I I #
edge $-1 $317 -24.87975752252083 $231 -19.803867982980105 $230 $352 forward 7 unknown #
point $-1 51.82775353251747 -19.803867982980105 5.0442878849182069 #
straight-curve $-1 -51.82775353251747 -11.170906376375234 2.0442878849182069 0 -1 0 I I #
coedge $-1 $235 $234 $348 $353 reversed $140 $-1 #
edge $-1 $349 -5.0442878849182069 $236 -2.0442878849182069 $303 $354 forward 7 unknown #
point $-1 -51.82775353251747 -24.87975752252083 2.0442878849182069 #
point $-1 -51.82775353251747 -19.803867982980105 2.0442878849182069 #
vertex $-1 $310 $355 #
straight-curve $-1 51.82775353251747 -24.87975752252083 0 0 0 -1 I I #
coedge $-1 $253 $252 $245 $320 forward $243 $-1 #
edge $-1 $327 68.969157791621384 $322 72.019754961782496 $319 $356 forward 7 unknown #
edge $-1 $250 49.267998639182281 $327 51.82775353251747 $249 $357 forward 7 unknown #
vertex $-1 $320 $358 #
straight-curve $-1 -14.800721060998711 -19.803867982980105 81.398416759563005 -0.64278759981090561 0 0.7660444514056185 I I #
edge $-1 $322 -13.210888857899388 $254 0.024930607737950972 $253 $359 forward 7 unknown #
point $-1 49.267998639182281 -19.803867982980105 5.0442878849182069 #
point $-1 51.827753532517477 -6.568048517342767 1.9936907147570935 #
vertex $-1 $257 $360 #
straight-curve $-1 51.82775353251747 0 5.0442878849182069 0 1 0 I I #
vertex $-1 $260 $361 #
point $-1 50.103225434349724 -13.185958250161438 2.4931794743239446 #
coedge $-1 $266 $335 $268 $333 reversed $176 $-1 #
straight-curve $-1 -51.82775353251747 -6.568048517342767 34.311082654136641 0 0 -1 I I #
edge $-1 $269 6.568048517342767 $340 19.803867982980105 $331 $362 forward 7 unknown #
point $-1 -51.82775353251747 -6.568048517342767 5.0442878849182069 #
coedge $-1 $331 $271 $274 $337 forward $176 $-1 #
straight-curve $-1 -51.82775353251747 -6.5929791250807179 1.9936907147571215 0 -1 0 I I #
edge $-1 $275 -32.317391939379526 $340 -29.266794769218436 $335 $363 forward 7 unknown #
point $-1 -51.82775353251747 -19.803867982980105 1.9936907147571161 #
point $-1 -51.82775353251747 -6.568048517342767 1.9936907147571161 #
vertex $-1 $337 $364 #
straight-curve $-1 0 -19.803867982980105 5.0442878849182069 1 0 0 I I #
vertex $-1 $282 $365 #
point $-1 -49.460437834538808 -13.185958250161438 3.2592239257295623 #
straight-curve $-1 -51.82775353251747 24.87975752252083 0 0 0 -1 I I #
point $-1 -51.82775353251747 -24.87975752252083 -5.0442878849182069 #
straight-curve $-1 -51.82775353251747 0 -5.0442878849182069 0 1 0 I I #
point $-1 -51.82775353251747 24.87975752252083 -5.0442878849182069 #
coedge $-1 $308 $304 $313 $353 forward $222 $-1 #
vertex $-1 $305 $366 #
straight-curve $-1 -51.82775353251747 0 5.0442878849182069 0 -1 0 I I #
point $-1 -51.82775353251747 -19.803867982980105 5.0442878849182069 #
straight-curve $-1 51.82775353251747 0 5.0442878849182069 0 1 0 I I #
edge $-1 $349 -51.82775353251747 $317 51.82775353251747 $313 $367 forward 7 unknown #
straight-curve $-1 -51.82775353251747 -24.87975752252083 0 0 0 -1 I I #
point $-1 51.82775353251747 -24.87975752252083 5.0442878849182069 #
straight-curve $-1 51.82775353251747 -19.803867982980105 74.01344567653959 0 0 -1 I I #
straight-curve $-1 0 -19.803867982980105 5.0442878849182069 1 0 0 I I #
point $-1 51.827753532517477 -19.803867982980105 1.9936907147570935 #
straight-curve $-1 51.827753532517463 -6.5929791250807179 1.9936907147571006 0 1 0 I I #
point $-1 51.82775353251747 -19.803867982980105 5.0442878849182069 #
point $-1 49.398809408741464 -13.185958250161438 2.5548079001213013 #
straight-curve $-1 -51.82775353251747 0 5.0442878849182069 0 -1 0 I I #
straight-curve $-1 -51.82775353251747 -19.803867982980105 34.311082654136641 0 0 1 I I #
point $-1 -51.82775353251747 -19.803867982980105 5.0442878849182069 #
point $-1 -49.398809408741457 -13.185958250161438 2.5548079001213004 #
point $-1 -51.82775353251747 -24.87975752252083 5.0442878849182069 #
straight-curve $-1 0 -24.87975752252083 5.0442878849182069 1 0 0 I I #
End-of-ACIS-data 