500 0 5 0           
7 Unknown 11 ACIS 5.0 NT 24 Thu Mar 25 19:37:09 1999 
-1 9.9999999999999995e-007 1e-010 
body $-1 $5 $-1 $6 #
body $-1 $7 $-1 $8 #
body $-1 $9 $-1 $10 #
body $-1 $11 $-1 $12 #
body $-1 $13 $-1 $14 #
lump $-1 $-1 $15 $0 #
transform $-1 1 0 0 0 1 0 0 0 1 55.6755272072512 32.236142146937176 14.209402614980695 1 rotate no_reflect no_shear #
lump $-1 $-1 $16 $1 #
transform $-1 1 0 0 0 1 0 0 0 1 55.6755272072512 32.236142146937176 14.209402614980695 1 rotate no_reflect no_shear #
lump $-1 $-1 $17 $2 #
transform $-1 1 0 0 0 1 0 0 0 1 55.6755272072512 32.236142146937176 14.209402614980695 1 rotate no_reflect no_shear #
lump $-1 $-1 $18 $3 #
transform $-1 1 0 0 0 1 0 0 0 1 55.6755272072512 32.236142146937176 14.209402614980695 1 rotate no_reflect no_shear #
lump $-1 $-1 $19 $4 #
transform $-1 1 0 0 0 1 0 0 0 1 55.6755272072512 32.236142146937176 14.209402614980695 1 rotate no_reflect no_shear #
shell $-1 $-1 $-1 $20 $-1 $5 #
shell $-1 $-1 $-1 $21 $-1 $7 #
shell $-1 $-1 $-1 $22 $-1 $9 #
shell $-1 $-1 $-1 $23 $-1 $11 #
shell $-1 $-1 $-1 $24 $-1 $13 #
face $-1 $25 $26 $15 $-1 $27 forward single #
face $-1 $28 $29 $16 $-1 $30 forward single #
face $-1 $31 $32 $17 $-1 $33 reversed single #
face $-1 $34 $35 $18 $-1 $36 forward single #
face $-1 $37 $38 $19 $-1 $39 reversed single #
face $-1 $40 $41 $15 $-1 $42 reversed single #
loop $-1 $-1 $43 $20 #
plane-surface $-1 0 0 14.209402614980695 0 0 1 1 0 0 forward_v I I I I #
face $-1 $44 $45 $16 $-1 $46 reversed single #
loop $-1 $-1 $47 $21 #
plane-surface $-1 0 -40.737547029254515 -9.009681462748647 0 0 1 1 0 0 forward_v I I I I #
face $-1 $48 $49 $17 $-1 $50 reversed single #
loop $-1 $-1 $51 $22 #
plane-surface $-1 -53.944180427249663 42.066557872119517 0 0 -1 0 0 0 -1 forward_v I I I I #
face $-1 $52 $53 $18 $-1 $54 forward single #
loop $-1 $-1 $55 $23 #
plane-surface $-1 -150.10657779089584 12.423251461202568 69.144688713398921 0 1 0 -0.84804810408105047 0 0.52991925155115449 forward_v I I I I #
face $-1 $56 $57 $19 $-1 $58 reversed single #
loop $-1 $59 $60 $24 #
cone-surface $-1 -53.979337521412951 17.414488941478702 11.908552331031734 0.84804810408105047 0 -0.52991925155115449 0.26495962577557725 0 0.42402405204052523 1 I I 0 1 0.5 forward I I I I #
face $-1 $61 $62 $15 $-1 $63 reversed single #
loop $-1 $-1 $64 $25 #
plane-surface $-1 0 0 -14.209402614980695 0 0 1 1 0 0 forward_v I I I I #
coedge $-1 $65 $66 $67 $68 forward $26 $-1 #
face $-1 $69 $70 $16 $-1 $71 forward single #
loop $-1 $-1 $72 $28 #
plane-surface $-1 0 -49.238951911571853 -11.609542038864671 0 1 0 0 0 1 forward_v I I I I #
coedge $-1 $73 $74 $75 $76 forward $29 $-1 #
face $-1 $77 $78 $17 $-1 $79 forward single #
loop $-1 $-1 $80 $31 #
plane-surface $-1 -52.212833647248125 37.15135000952835 0 -1 0 0 0 0 1 forward_v I I I I #
coedge $-1 $81 $82 $83 $84 forward $32 $-1 #
face $-1 $85 $86 $18 $-1 $87 forward single #
loop $-1 $-1 $88 $34 #
plane-surface $-1 -55.675527207251207 17.414488941478702 10.137621298633938 -0.84804810408105047 0 0.52991925155115449 0.52991925155115449 0 0.84804810408105047 forward_v I I I I #
coedge $-1 $89 $90 $91 $92 reversed $35 $-1 #
face $-1 $93 $94 $19 $-1 $95 forward single #
loop $-1 $96 $97 $37 #
cone-surface $-1 -53.343301443352161 17.414488941478702 11.511112892368368 0.84804810408105047 0 -0.52991925155115449 0.13247981288778862 0 0.21201202602026262 1 I I -0.70710678118654746 0.70710678118654746 0.25 forward I I I I #
loop $-1 $-1 $98 $24 #
coedge $-1 $60 $60 $99 $100 reversed $38 $-1 #
face $-1 $101 $102 $15 $-1 $103 reversed single #
loop $-1 $-1 $104 $40 #
plane-surface $-1 0 -32.236142146937176 0 0 1 0 0 0 1 forward_v I I I I #
coedge $-1 $105 $106 $107 $108 forward $41 $-1 #
coedge $-1 $109 $43 $110 $111 forward $26 $-1 #
coedge $-1 $43 $109 $112 $113 forward $26 $-1 #
coedge $-1 $114 $115 $43 $68 reversed $116 $-1 #
edge $-1 $117 -32.236142146937176 $118 32.236142146937176 $67 $119 forward 7 unknown #
face $-1 $120 $121 $16 $-1 $122 reversed single #
loop $-1 $-1 $123 $44 #
plane-surface $-1 0 0 14.209402614980695 0 0 1 1 0 0 forward_v I I I I #
coedge $-1 $124 $125 $126 $127 forward $45 $-1 #
coedge $-1 $128 $47 $129 $130 reversed $29 $-1 #
coedge $-1 $47 $128 $125 $131 forward $29 $-1 #
coedge $-1 $132 $133 $47 $76 reversed $134 $-1 #
edge $-1 $135 -8.5014048823173383 $136 8.5014048823173383 $75 $137 forward 7 unknown #
face $-1 $138 $139 $17 $-1 $140 reversed single #
loop $-1 $-1 $141 $48 #
plane-surface $-1 0 -40.737547029254515 -9.009681462748647 0 0 1 1 0 0 forward_v I I I I #
coedge $-1 $142 $143 $144 $145 reversed $49 $-1 #
coedge $-1 $146 $51 $147 $148 reversed $32 $-1 #
coedge $-1 $51 $146 $149 $150 reversed $32 $-1 #
coedge $-1 $143 $142 $51 $84 reversed $49 $-1 #
edge $-1 $151 -14.209402614980695 $152 14.209402614980695 $83 $153 forward 7 unknown #
face $-1 $154 $155 $18 $-1 $156 forward single #
loop $-1 $-1 $157 $52 #
plane-surface $-1 -150.10657779089584 22.405726421754835 69.144688713398921 0 -1 0 0.84804810408105047 0 -0.52991925155115449 forward_v I I I I #
coedge $-1 $158 $159 $160 $161 reversed $53 $-1 #
coedge $-1 $90 $55 $159 $162 forward $35 $-1 #
coedge $-1 $55 $89 $163 $164 reversed $35 $-1 #
coedge $-1 $165 $160 $55 $92 forward $155 $-1 #
edge $-1 $166 -21.922092955792152 $167 -19.377761688196721 $91 $168 forward 7 unknown #
face $-1 $169 $170 $19 $-1 $171 forward single #
loop $-1 $-1 $172 $56 #
plane-surface $-1 -150.10657779089584 12.423251461202568 69.144688713398921 0 1 0 -0.84804810408105047 0 0.52991925155115449 forward_v I I I I #
loop $-1 $-1 $173 $37 #
coedge $-1 $97 $97 $98 $174 forward $57 $-1 #
coedge $-1 $98 $98 $97 $174 reversed $59 $-1 #
coedge $-1 $99 $99 $60 $100 forward $170 $-1 #
edge $-1 $175 0 $175 6.2831853071796004 $99 $176 forward 7 unknown #
face $-1 $177 $178 $15 $-1 $179 reversed single #
loop $-1 $-1 $180 $61 #
plane-surface $-1 -55.6755272072512 0 0 1 0 0 0 0 -1 forward_v I I I I #
coedge $-1 $181 $112 $182 $183 forward $62 $-1 #
coedge $-1 $184 $64 $181 $185 forward $41 $-1 #
coedge $-1 $64 $184 $186 $187 forward $41 $-1 #
coedge $-1 $115 $114 $64 $108 reversed $116 $-1 #
edge $-1 $188 -32.236142146937176 $189 32.236142146937176 $107 $190 forward 7 unknown #
coedge $-1 $66 $65 $191 $192 forward $26 $-1 #
coedge $-1 $193 $194 $65 $111 reversed $178 $-1 #
edge $-1 $118 -55.6755272072512 $195 55.6755272072512 $110 $196 forward 7 unknown #
coedge $-1 $104 $197 $66 $113 reversed $62 $-1 #
edge $-1 $198 -55.6755272072512 $117 55.6755272072512 $112 $199 forward 7 unknown #
coedge $-1 $107 $67 $197 $200 forward $116 $-1 #
coedge $-1 $67 $107 $193 $201 reversed $116 $-1 #
loop $-1 $-1 $114 $177 #
vertex $-1 $68 $202 #
vertex $-1 $68 $203 #
straight-curve $-1 55.6755272072512 0 14.209402614980695 0 1 0 I I #
face $-1 $204 $205 $16 $-1 $206 reversed single #
loop $-1 $-1 $207 $69 #
plane-surface $-1 0 0 -14.209402614980695 0 0 1 1 0 0 forward_v I I I I #
coedge $-1 $208 $209 $210 $211 forward $70 $-1 #
coedge $-1 $212 $72 $213 $214 reversed $45 $-1 #
coedge $-1 $72 $212 $74 $131 reversed $45 $-1 #
coedge $-1 $215 $216 $72 $127 reversed $217 $-1 #
edge $-1 $218 -2.5998605761160238 $219 2.5998605761160238 $126 $220 forward 7 unknown #
coedge $-1 $74 $73 $215 $221 forward $29 $-1 #
coedge $-1 $222 $223 $73 $130 forward $205 $-1 #
edge $-1 $224 -55.6755272072512 $136 55.6755272072512 $129 $225 forward 7 unknown #
edge $-1 $218 -55.6755272072512 $135 55.6755272072512 $125 $226 forward 7 unknown #
coedge $-1 $227 $75 $212 $228 forward $134 $-1 #
coedge $-1 $75 $210 $222 $229 forward $134 $-1 #
loop $-1 $-1 $133 $230 #
vertex $-1 $76 $231 #
vertex $-1 $76 $232 #
straight-curve $-1 55.6755272072512 -40.737547029254515 -9.009681462748647 0 1 0 I I #
face $-1 $233 $234 $17 $-1 $235 forward single #
loop $-1 $-1 $236 $77 #
plane-surface $-1 0 -49.238951911571853 -11.609542038864671 0 1 0 0 0 1 forward_v I I I I #
coedge $-1 $237 $238 $239 $240 forward $78 $-1 #
coedge $-1 $83 $80 $241 $242 reversed $49 $-1 #
coedge $-1 $80 $83 $243 $244 reversed $49 $-1 #
coedge $-1 $245 $246 $80 $145 forward $247 $-1 #
edge $-1 $248 -14.209402614980695 $249 14.209402614980695 $144 $250 forward 7 unknown #
coedge $-1 $82 $81 $251 $252 reversed $32 $-1 #
coedge $-1 $241 $253 $81 $148 forward $254 $-1 #
edge $-1 $255 -1.7313467800015374 $152 1.7313467800015374 $81 $256 forward 7 unknown #
coedge $-1 $257 $243 $82 $150 forward $234 $-1 #
edge $-1 $151 -1.7313467800015374 $258 1.7313467800015374 $82 $259 forward 7 unknown #
vertex $-1 $244 $260 #
vertex $-1 $242 $261 #
straight-curve $-1 -52.212833647248125 42.066557872119517 0 0 0 -1 I I #
face $-1 $262 $263 $18 $-1 $264 reversed single #
loop $-1 $-1 $265 $85 #
plane-surface $-1 0 0 14.209402614980695 0 0 1 1 0 0 forward_v I I I I #
coedge $-1 $266 $267 $265 $268 reversed $86 $-1 #
coedge $-1 $269 $88 $267 $270 reversed $53 $-1 #
coedge $-1 $88 $269 $89 $162 reversed $53 $-1 #
coedge $-1 $91 $265 $88 $161 forward $155 $-1 #
edge $-1 $271 -13.698481951015484 $166 -3.7160069904632174 $160 $272 forward 7 unknown #
edge $-1 $166 -4.8013565465828858 $273 -1.2803919046239758e-014 $89 $274 forward 7 unknown #
coedge $-1 $275 $276 $90 $164 forward $277 $-1 #
edge $-1 $167 20.362941741718764 $273 24.434723058065511 $163 $278 forward 7 unknown #
coedge $-1 $279 $91 $276 $280 forward $155 $-1 #
vertex $-1 $161 $281 #
vertex $-1 $280 $282 #
straight-curve $-1 -75.05328889544792 12.423251461202568 14.209402614980696 -1 0 0 I I #
face $-1 $283 $284 $19 $-1 $285 forward single #
loop $-1 $286 $99 $93 #
plane-surface $-1 -55.675527207251207 17.414488941478702 10.137621298633938 -0.84804810408105047 0 0.52991925155115449 0.52991925155115449 0 0.84804810408105047 forward_v I I I I #
coedge $-1 $287 $288 $289 $290 reversed $94 $-1 #
coedge $-1 $173 $173 $-1 $291 forward $96 $-1 #
edge $-1 $292 0 $292 6.2831853071796004 $97 $293 forward 7 unknown #
vertex $-1 $100 $294 #
ellipse-curve $-1 -54.403361573453488 17.414488941478702 12.173511956807317 0.84804810408105047 0 -0.52991925155115449 0.26495962577557725 0 0.42402405204052523 1 I I #
face $-1 $-1 $116 $15 $-1 $295 reversed single #
loop $-1 $-1 $193 $101 #
plane-surface $-1 0 32.236142146937176 0 0 -1 0 0 0 -1 forward_v I I I I #
coedge $-1 $296 $191 $194 $297 forward $102 $-1 #
coedge $-1 $197 $104 $105 $185 reversed $62 $-1 #
coedge $-1 $191 $296 $104 $183 reversed $102 $-1 #
edge $-1 $198 -14.209402614980695 $298 14.209402614980695 $182 $299 forward 7 unknown #
coedge $-1 $106 $105 $296 $300 forward $41 $-1 #
edge $-1 $189 -55.6755272072512 $298 55.6755272072512 $181 $301 forward 7 unknown #
coedge $-1 $194 $193 $106 $187 reversed $178 $-1 #
edge $-1 $302 -55.6755272072512 $188 55.6755272072512 $186 $303 forward 7 unknown #
vertex $-1 $108 $304 #
vertex $-1 $200 $305 #
straight-curve $-1 55.6755272072512 0 -14.209402614980695 0 -1 0 I I #
coedge $-1 $180 $182 $109 $192 reversed $102 $-1 #
edge $-1 $195 -32.236142146937176 $198 32.236142146937176 $191 $306 forward 7 unknown #
coedge $-1 $186 $110 $115 $201 forward $178 $-1 #
coedge $-1 $110 $186 $180 $297 reversed $178 $-1 #
vertex $-1 $111 $307 #
straight-curve $-1 0 32.236142146937176 14.209402614980695 -1 0 0 I I #
coedge $-1 $112 $181 $114 $200 reversed $62 $-1 #
vertex $-1 $192 $308 #
straight-curve $-1 0 -32.236142146937176 14.209402614980695 1 0 0 I I #
edge $-1 $117 -14.209402614980695 $189 14.209402614980695 $114 $309 forward 7 unknown #
edge $-1 $118 -14.209402614980695 $188 14.209402614980695 $115 $310 forward 7 unknown #
point $-1 55.6755272072512 -32.236142146937176 14.209402614980695 #
point $-1 55.6755272072512 32.236142146937176 14.209402614980695 #
face $-1 $311 $217 $16 $-1 $312 reversed single #
loop $-1 $-1 $129 $120 #
plane-surface $-1 0 -32.236142146937176 0 0 1 0 0 0 1 forward_v I I I I #
coedge $-1 $213 $313 $227 $314 forward $121 $-1 #
coedge $-1 $315 $123 $316 $317 forward $70 $-1 #
coedge $-1 $123 $315 $318 $319 forward $70 $-1 #
coedge $-1 $133 $320 $123 $211 reversed $134 $-1 #
edge $-1 $321 -32.236142146937176 $322 32.236142146937176 $210 $323 forward 7 unknown #
coedge $-1 $125 $124 $132 $228 reversed $45 $-1 #
coedge $-1 $324 $207 $124 $214 forward $121 $-1 #
edge $-1 $325 -55.6755272072512 $219 55.6755272072512 $124 $326 forward 7 unknown #
coedge $-1 $327 $126 $128 $221 reversed $217 $-1 #
coedge $-1 $126 $328 $324 $329 reversed $217 $-1 #
loop $-1 $-1 $328 $204 #
vertex $-1 $221 $330 #
vertex $-1 $329 $331 #
straight-curve $-1 -55.6755272072512 -49.238951911571853 -11.609542038864671 0 0 -1 I I #
edge $-1 $224 -8.5014048823173383 $218 8.5014048823173383 $215 $332 forward 7 unknown #
coedge $-1 $318 $129 $133 $229 reversed $205 $-1 #
coedge $-1 $129 $318 $327 $333 forward $205 $-1 #
vertex $-1 $333 $334 #
straight-curve $-1 0 -32.236142146937176 -9.009681462748647 1 0 0 I I #
straight-curve $-1 0 -49.238951911571853 -9.009681462748647 1 0 0 I I #
coedge $-1 $320 $132 $207 $314 reversed $134 $-1 #
edge $-1 $135 -2.5998605761160238 $325 2.5998605761160238 $132 $335 forward 7 unknown #
edge $-1 $321 -14.209402614980695 $136 9.009681462748647 $133 $336 forward 7 unknown #
face $-1 $-1 $134 $16 $-1 $337 reversed single #
point $-1 55.6755272072512 -49.238951911571853 -9.009681462748647 #
point $-1 55.6755272072512 -32.236142146937176 -9.009681462748647 #
face $-1 $338 $254 $17 $-1 $339 reversed single #
loop $-1 $-1 $340 $138 #
plane-surface $-1 0 0 14.209402614980695 0 0 1 1 0 0 forward_v I I I I #
coedge $-1 $341 $342 $343 $344 forward $139 $-1 #
coedge $-1 $345 $141 $346 $347 reversed $78 $-1 #
coedge $-1 $141 $345 $342 $348 forward $78 $-1 #
coedge $-1 $349 $350 $141 $240 reversed $351 $-1 #
edge $-1 $352 -8.5014048823173383 $353 8.5014048823173383 $239 $354 forward 7 unknown #
coedge $-1 $355 $147 $142 $242 forward $254 $-1 #
edge $-1 $152 -4.915207862591167 $248 4.915207862591167 $142 $356 forward 7 unknown #
coedge $-1 $149 $357 $143 $244 forward $234 $-1 #
edge $-1 $249 -4.915207862591167 $151 4.915207862591167 $143 $358 forward 7 unknown #
coedge $-1 $359 $144 $357 $360 reversed $247 $-1 #
coedge $-1 $144 $359 $355 $361 reversed $247 $-1 #
loop $-1 $-1 $144 $362 #
vertex $-1 $361 $363 #
vertex $-1 $244 $364 #
straight-curve $-1 -52.212833647248125 32.236142146937176 0 0 0 1 I I #
coedge $-1 $365 $366 $146 $252 forward $367 $-1 #
edge $-1 $258 -14.209402614980695 $255 14.209402614980695 $146 $368 forward 7 unknown #
coedge $-1 $147 $369 $365 $370 forward $254 $-1 #
loop $-1 $-1 $371 $233 #
vertex $-1 $148 $372 #
straight-curve $-1 -53.944180427249663 42.066557872119517 -14.209402614980695 1 0 0 I I #
coedge $-1 $373 $149 $366 $374 forward $234 $-1 #
vertex $-1 $150 $375 #
straight-curve $-1 -53.944180427249663 42.066557872119517 14.209402614980695 -1 0 0 I I #
point $-1 -52.212833647248125 42.066557872119517 14.209402614980695 #
point $-1 -52.212833647248125 42.066557872119517 -14.209402614980695 #
face $-1 $376 $377 $18 $-1 $378 reversed single #
loop $-1 $-1 $379 $154 #
plane-surface $-1 -53.944180427249663 42.066557872119517 0 0 -1 0 0 0 -1 forward_v I I I I #
coedge $-1 $160 $380 $157 $268 forward $155 $-1 #
coedge $-1 $267 $157 $381 $382 reversed $86 $-1 #
coedge $-1 $157 $266 $158 $270 forward $86 $-1 #
edge $-1 $383 19.377761688196721 $271 21.922092955792152 $265 $384 forward 7 unknown #
coedge $-1 $159 $158 $275 $385 reversed $53 $-1 #
edge $-1 $386 1.2803919046239758e-014 $271 4.8013565465828858 $267 $387 forward 7 unknown #
vertex $-1 $161 $388 #
straight-curve $-1 -53.131195939655775 8.7072444707393508 14.209402614980695 0 -1 0 I I #
vertex $-1 $385 $389 #
straight-curve $-1 -55.675527207251207 12.423251461202568 10.137621298633938 -0.52991925155115449 0 -0.84804810408105047 I I #
coedge $-1 $381 $163 $269 $385 forward $277 $-1 #
coedge $-1 $163 $390 $165 $280 reversed $277 $-1 #
loop $-1 $-1 $381 $391 #
straight-curve $-1 -55.6755272072512 12.423251461202568 34.57234435669946 0 0 -1 I I #
coedge $-1 $392 $165 $393 $394 forward $155 $-1 #
edge $-1 $167 -12.423251461202568 $395 32.236142146937176 $276 $396 forward 7 unknown #
point $-1 -53.131195939655768 12.423251461202568 14.209402614980695 #
point $-1 -55.6755272072512 12.423251461202568 14.209402614980695 #
face $-1 $397 $398 $19 $-1 $399 forward single #
loop $-1 $-1 $400 $169 #
plane-surface $-1 -150.10657779089584 22.405726421754835 69.144688713398921 0 -1 0 0.84804810408105047 0 -0.52991925155115449 forward_v I I I I #
loop $-1 $-1 $401 $93 #
coedge $-1 $288 $172 $402 $403 forward $94 $-1 #
coedge $-1 $172 $287 $404 $405 reversed $94 $-1 #
coedge $-1 $406 $407 $172 $290 forward $398 $-1 #
edge $-1 $408 -21.922092955792152 $409 -19.377761688196721 $289 $410 forward 7 unknown #
edge $-1 $411 1 $411 0 $173 $-1 forward 7 unknown #
vertex $-1 $174 $412 #
ellipse-curve $-1 -53.555313469372422 17.414488941478702 11.643592705256157 -0.84804810408105047 0 0.52991925155115449 0.26495962577557725 0 0.42402405204052523 1 I I #
point $-1 -54.138401947677899 17.414488941478702 12.597536008847836 #
plane-surface $-1 55.6755272072512 0 0 -1 0 0 0 0 1 forward_v I I I I #
coedge $-1 $182 $180 $184 $300 reversed $102 $-1 #
edge $-1 $195 -14.209402614980695 $302 14.209402614980695 $194 $413 forward 7 unknown #
vertex $-1 $300 $414 #
straight-curve $-1 -55.6755272072512 -32.236142146937176 0 0 0 -1 I I #
edge $-1 $298 -32.236142146937176 $302 32.236142146937176 $296 $415 forward 7 unknown #
straight-curve $-1 0 -32.236142146937176 -14.209402614980695 -1 0 0 I I #
vertex $-1 $187 $416 #
straight-curve $-1 0 32.236142146937176 -14.209402614980695 1 0 0 I I #
point $-1 55.6755272072512 32.236142146937176 -14.209402614980695 #
point $-1 55.6755272072512 -32.236142146937176 -14.209402614980695 #
straight-curve $-1 -55.6755272072512 0 14.209402614980695 0 -1 0 I I #
point $-1 -55.6755272072512 32.236142146937176 14.209402614980695 #
point $-1 -55.6755272072512 -32.236142146937176 14.209402614980695 #
straight-curve $-1 55.6755272072512 -32.236142146937176 0 0 0 -1 I I #
straight-curve $-1 55.6755272072512 32.236142146937176 0 0 0 -1 I I #
face $-1 $230 $417 $16 $-1 $418 reversed single #
plane-surface $-1 -55.6755272072512 0 0 1 0 0 0 0 -1 forward_v I I I I #
coedge $-1 $207 $324 $419 $420 forward $121 $-1 #
edge $-1 $421 -32.236142146937176 $325 49.238951911571853 $227 $422 forward 7 unknown #
coedge $-1 $209 $208 $423 $424 forward $70 $-1 #
coedge $-1 $425 $426 $208 $317 reversed $417 $-1 #
edge $-1 $322 -55.6755272072512 $427 55.6755272072512 $316 $428 forward 7 unknown #
coedge $-1 $223 $222 $209 $319 reversed $205 $-1 #
edge $-1 $429 -55.6755272072512 $321 55.6755272072512 $318 $430 forward 7 unknown #
coedge $-1 $210 $227 $425 $431 reversed $134 $-1 #
vertex $-1 $211 $432 #
vertex $-1 $211 $433 #
straight-curve $-1 55.6755272072512 0 14.209402614980695 0 1 0 I I #
coedge $-1 $313 $213 $216 $329 forward $121 $-1 #
vertex $-1 $228 $434 #
straight-curve $-1 0 -49.238951911571853 -14.209402614980695 -1 0 0 I I #
coedge $-1 $423 $215 $223 $333 reversed $217 $-1 #
coedge $-1 $216 $423 $426 $435 forward $217 $-1 #
edge $-1 $219 -49.238951911571853 $436 32.236142146937176 $216 $437 forward 7 unknown #
point $-1 -55.6755272072512 -49.238951911571853 -9.009681462748647 #
point $-1 -55.6755272072512 -49.238951911571853 -14.209402614980695 #
straight-curve $-1 -55.6755272072512 -40.737547029254515 -9.009681462748647 0 -1 0 I I #
edge $-1 $429 -14.209402614980695 $224 9.009681462748647 $327 $438 forward 7 unknown #
point $-1 -55.6755272072512 -32.236142146937176 -9.009681462748647 #
straight-curve $-1 55.6755272072512 -49.238951911571853 -11.609542038864671 0 0 -1 I I #
straight-curve $-1 55.6755272072512 -32.236142146937176 0 0 0 -1 I I #
plane-surface $-1 55.6755272072512 0 0 -1 0 0 0 0 1 forward_v I I I I #
face $-1 $439 $440 $17 $-1 $441 reversed single #
plane-surface $-1 0 0 -14.209402614980695 0 0 1 1 0 0 forward_v I I I I #
coedge $-1 $357 $373 $442 $443 forward $234 $-1 #
coedge $-1 $444 $236 $369 $445 reversed $139 $-1 #
coedge $-1 $236 $444 $238 $348 reversed $139 $-1 #
coedge $-1 $446 $365 $236 $344 reversed $367 $-1 #
edge $-1 $447 -2.5998605761160238 $448 2.5998605761160238 $343 $449 forward 7 unknown #
coedge $-1 $238 $237 $446 $450 forward $78 $-1 #
coedge $-1 $451 $452 $237 $347 forward $440 $-1 #
edge $-1 $453 -55.6755272072512 $353 55.6755272072512 $346 $454 forward 7 unknown #
edge $-1 $447 -55.6755272072512 $352 55.6755272072512 $342 $455 forward 7 unknown #
coedge $-1 $456 $239 $444 $457 forward $351 $-1 #
coedge $-1 $239 $442 $451 $458 forward $351 $-1 #
loop $-1 $-1 $350 $459 #
vertex $-1 $240 $460 #
vertex $-1 $240 $461 #
straight-curve $-1 55.6755272072512 -40.737547029254515 -9.009681462748647 0 1 0 I I #
coedge $-1 $371 $241 $246 $361 forward $254 $-1 #
straight-curve $-1 -52.212833647248125 37.15135000952835 -14.209402614980695 0 -1 0 I I #
coedge $-1 $243 $340 $245 $360 forward $234 $-1 #
straight-curve $-1 -52.212833647248125 37.15135000952835 14.209402614980695 0 1 0 I I #
coedge $-1 $246 $245 $462 $463 forward $247 $-1 #
edge $-1 $464 -55.6755272072512 $249 52.212833647248125 $245 $465 forward 7 unknown #
edge $-1 $248 -52.212833647248125 $466 55.6755272072512 $246 $467 forward 7 unknown #
face $-1 $459 $247 $17 $-1 $468 reversed single #
point $-1 -52.212833647248125 32.236142146937183 -14.209402614980695 #
point $-1 -52.212833647248125 32.236142146937183 14.209402614980695 #
coedge $-1 $343 $251 $253 $370 reversed $367 $-1 #
coedge $-1 $251 $469 $257 $374 reversed $367 $-1 #
loop $-1 $-1 $365 $439 #
straight-curve $-1 -55.6755272072512 42.066557872119517 0 0 0 -1 I I #
coedge $-1 $253 $371 $341 $445 forward $254 $-1 #
edge $-1 $448 -86.390301921100203 $255 4.915207862591167 $365 $470 forward 7 unknown #
coedge $-1 $369 $355 $456 $471 forward $254 $-1 #
point $-1 -55.6755272072512 42.066557872119517 -14.209402614980695 #
coedge $-1 $340 $257 $472 $473 forward $234 $-1 #
edge $-1 $258 -42.066557872119517 $474 32.236142146937176 $366 $475 forward 7 unknown #
point $-1 -55.6755272072512 42.066557872119517 14.209402614980695 #
face $-1 $476 $477 $18 $-1 $478 forward single #
loop $-1 $-1 $479 $262 #
plane-surface $-1 -52.212833647248125 37.15135000952835 0 -1 0 0 0 0 1 forward_v I I I I #
coedge $-1 $480 $481 $482 $483 forward $263 $-1 #
coedge $-1 $265 $484 $485 $486 forward $155 $-1 #
coedge $-1 $485 $275 $266 $382 forward $277 $-1 #
edge $-1 $386 -24.434723058065511 $383 -20.362941741718764 $381 $487 forward 7 unknown #
vertex $-1 $382 $488 #
straight-curve $-1 -75.05328889544792 22.405726421754835 14.209402614980696 1 0 0 I I #
edge $-1 $273 3.7160069904632174 $386 13.698481951015484 $275 $489 forward 7 unknown #
vertex $-1 $385 $490 #
straight-curve $-1 -55.675527207251207 22.405726421754835 10.137621298633938 0.52991925155115449 0 0.84804810408105047 I I #
point $-1 -53.131195939655768 22.405726421754835 14.209402614980695 #
point $-1 -55.6755272072512 12.423251461202568 10.137621298633949 #
coedge $-1 $276 $491 $492 $493 reversed $277 $-1 #
face $-1 $494 $277 $18 $-1 $495 reversed single #
coedge $-1 $496 $279 $497 $498 forward $155 $-1 #
coedge $-1 $492 $499 $279 $394 reversed $500 $-1 #
edge $-1 $395 -55.6755272072512 $501 55.6755272072512 $393 $502 forward 7 unknown #
vertex $-1 $280 $503 #
straight-curve $-1 -55.6755272072512 0 14.209402614980695 0 -1 0 I I #
face $-1 $504 $505 $19 $-1 $506 reversed single #
loop $-1 $-1 $507 $283 #
plane-surface $-1 0 0 14.209402614980695 0 0 1 1 0 0 forward_v I I I I #
coedge $-1 $508 $509 $507 $510 reversed $284 $-1 #
coedge $-1 $511 $402 $407 $512 reversed $286 $-1 #
coedge $-1 $401 $513 $287 $403 reversed $286 $-1 #
edge $-1 $408 -4.8013565465828858 $514 -1.2803919046239758e-014 $287 $515 forward 7 unknown #
coedge $-1 $516 $517 $288 $405 forward $518 $-1 #
edge $-1 $409 20.362941741718764 $514 24.434723058065511 $404 $519 forward 7 unknown #
coedge $-1 $520 $289 $517 $521 forward $398 $-1 #
coedge $-1 $289 $507 $401 $512 forward $398 $-1 #
vertex $-1 $512 $522 #
vertex $-1 $521 $523 #
straight-curve $-1 -75.05328889544792 12.423251461202568 14.209402614980696 -1 0 0 I I #
vertex $-1 $291 $524 #
point $-1 -53.290353843596847 17.414488941478702 12.067616757296681 #
straight-curve $-1 -55.6755272072512 32.236142146937176 0 0 0 -1 I I #
point $-1 -55.6755272072512 -32.236142146937176 -14.209402614980695 #
straight-curve $-1 -55.6755272072512 0 -14.209402614980695 0 1 0 I I #
point $-1 -55.6755272072512 32.236142146937176 -14.209402614980695 #
loop $-1 $-1 $425 $311 #
plane-surface $-1 0 32.236142146937176 0 0 -1 0 0 0 -1 forward_v I I I I #
coedge $-1 $426 $425 $313 $420 reversed $417 $-1 #
edge $-1 $436 -55.6755272072512 $421 55.6755272072512 $419 $525 forward 7 unknown #
vertex $-1 $314 $526 #
straight-curve $-1 55.6755272072512 0 -14.209402614980695 0 -1 0 I I #
coedge $-1 $328 $327 $315 $424 reversed $217 $-1 #
edge $-1 $427 -32.236142146937176 $429 32.236142146937176 $423 $527 forward 7 unknown #
coedge $-1 $419 $316 $320 $431 forward $417 $-1 #
coedge $-1 $316 $419 $328 $435 reversed $417 $-1 #
vertex $-1 $317 $528 #
straight-curve $-1 0 32.236142146937176 14.209402614980695 -1 0 0 I I #
vertex $-1 $424 $529 #
straight-curve $-1 0 -32.236142146937176 14.209402614980695 1 0 0 I I #
edge $-1 $322 -14.209402614980695 $421 14.209402614980695 $320 $530 forward 7 unknown #
point $-1 55.6755272072512 -32.236142146937176 14.209402614980695 #
point $-1 55.6755272072512 32.236142146937176 14.209402614980695 #
point $-1 55.6755272072512 -49.238951911571853 -14.209402614980695 #
edge $-1 $427 -14.209402614980695 $436 14.209402614980695 $426 $531 forward 7 unknown #
vertex $-1 $420 $532 #
straight-curve $-1 -55.6755272072512 0 -14.209402614980695 0 1 0 I I #
straight-curve $-1 -55.6755272072512 -32.236142146937176 0 0 0 -1 I I #
face $-1 $362 $367 $17 $-1 $533 reversed single #
loop $-1 $-1 $346 $338 #
plane-surface $-1 0 -32.236142146937176 0 0 1 0 0 0 1 forward_v I I I I #
coedge $-1 $350 $462 $340 $443 reversed $351 $-1 #
edge $-1 $534 -32.236142146937176 $464 32.236142146937176 $442 $535 forward 7 unknown #
coedge $-1 $342 $341 $349 $457 reversed $139 $-1 #
edge $-1 $536 -55.6755272072512 $448 55.6755272072512 $341 $537 forward 7 unknown #
coedge $-1 $469 $343 $345 $450 reversed $367 $-1 #
vertex $-1 $450 $538 #
vertex $-1 $370 $539 #
straight-curve $-1 -55.6755272072512 -49.238951911571853 -11.609542038864671 0 0 -1 I I #
edge $-1 $453 -8.5014048823173383 $447 8.5014048823173383 $446 $540 forward 7 unknown #
coedge $-1 $472 $346 $350 $458 reversed $440 $-1 #
coedge $-1 $346 $472 $469 $541 forward $440 $-1 #
vertex $-1 $541 $542 #
straight-curve $-1 0 -32.236142146937176 -9.009681462748647 1 0 0 I I #
straight-curve $-1 0 -49.238951911571853 -9.009681462748647 1 0 0 I I #
coedge $-1 $462 $349 $371 $471 reversed $351 $-1 #
edge $-1 $352 -2.5998605761160238 $536 2.5998605761160238 $349 $543 forward 7 unknown #
edge $-1 $534 -14.209402614980695 $353 9.009681462748647 $350 $544 forward 7 unknown #
face $-1 $-1 $351 $17 $-1 $545 reversed single #
point $-1 55.6755272072512 -49.238951911571853 -9.009681462748647 #
point $-1 55.6755272072512 -32.236142146937176 -9.009681462748647 #
coedge $-1 $442 $456 $359 $463 reversed $351 $-1 #
edge $-1 $464 -14.209402614980695 $466 14.209402614980695 $462 $546 forward 7 unknown #
vertex $-1 $443 $547 #
straight-curve $-1 0 32.236142146937176 14.209402614980695 -1 0 0 I I #
vertex $-1 $471 $548 #
straight-curve $-1 0 32.236142146937176 -14.209402614980695 1 0 0 I I #
plane-surface $-1 0 32.236142146937176 0 0 -1 0 0 0 -1 forward_v I I I I #
coedge $-1 $366 $446 $452 $541 reversed $367 $-1 #
straight-curve $-1 -55.6755272072512 37.15135000952835 -14.209402614980695 0 1 0 I I #
edge $-1 $466 -32.236142146937176 $536 49.238951911571853 $456 $549 forward 7 unknown #
coedge $-1 $452 $451 $373 $473 reversed $440 $-1 #
edge $-1 $474 -55.6755272072512 $534 55.6755272072512 $472 $550 forward 7 unknown #
vertex $-1 $374 $551 #
straight-curve $-1 -55.6755272072512 0 14.209402614980695 0 -1 0 I I #
face $-1 $552 $553 $18 $-1 $554 reversed single #
loop $-1 $-1 $555 $376 #
plane-surface $-1 0 -40.737547029254515 -9.009681462748647 0 0 1 1 0 0 forward_v I I I I #
coedge $-1 $556 $557 $558 $559 reversed $377 $-1 #
coedge $-1 $560 $379 $561 $562 reversed $263 $-1 #
coedge $-1 $379 $560 $484 $563 reversed $263 $-1 #
coedge $-1 $557 $556 $379 $483 reversed $377 $-1 #
edge $-1 $564 -14.209402614980695 $565 14.209402614980695 $482 $566 forward 7 unknown #
coedge $-1 $380 $567 $481 $563 forward $155 $-1 #
coedge $-1 $568 $381 $380 $486 reversed $277 $-1 #
edge $-1 $569 -42.066557872119517 $383 -22.405726421754835 $485 $396 forward 7 unknown #
straight-curve $-1 -55.6755272072512 22.405726421754835 34.57234435669946 0 0 1 I I #
point $-1 -55.6755272072512 22.405726421754835 14.209402614980695 #
straight-curve $-1 -55.6755272072512 8.7072444707393508 10.137621298633954 0 1 0 I I #
point $-1 -55.6755272072512 22.405726421754835 10.137621298633949 #
coedge $-1 $390 $570 $571 $572 reversed $277 $-1 #
coedge $-1 $573 $393 $390 $493 forward $500 $-1 #
edge $-1 $395 -14.209402614980695 $574 9.009681462748647 $390 $575 forward 7 unknown #
face $-1 $576 $577 $18 $-1 $578 reversed single #
plane-surface $-1 -55.6755272072512 0 0 1 0 0 0 0 -1 forward_v I I I I #
coedge $-1 $567 $392 $579 $580 forward $155 $-1 #
coedge $-1 $581 $582 $392 $498 reversed $583 $-1 #
edge $-1 $501 -32.236142146937176 $584 32.236142146937176 $497 $585 forward 7 unknown #
coedge $-1 $393 $573 $581 $586 reversed $500 $-1 #
loop $-1 $-1 $573 $587 #
vertex $-1 $498 $588 #
straight-curve $-1 0 -32.236142146937176 14.209402614980695 1 0 0 I I #
point $-1 -55.6755272072512 -32.236142146937176 14.209402614980695 #
face $-1 $589 $590 $19 $-1 $591 reversed single #
loop $-1 $-1 $592 $397 #
plane-surface $-1 -53.944180427249663 42.066557872119517 0 0 -1 0 0 0 -1 forward_v I I I I #
coedge $-1 $407 $593 $400 $510 forward $398 $-1 #
coedge $-1 $509 $400 $594 $595 reversed $284 $-1 #
coedge $-1 $400 $508 $511 $596 forward $284 $-1 #
edge $-1 $597 19.377761688196721 $598 21.922092955792152 $507 $599 forward 7 unknown #
coedge $-1 $513 $401 $509 $596 reversed $286 $-1 #
edge $-1 $598 -13.698481951015484 $408 -3.7160069904632174 $407 $600 forward 7 unknown #
coedge $-1 $402 $511 $516 $601 reversed $286 $-1 #
vertex $-1 $601 $602 #
straight-curve $-1 -55.675527207251207 12.423251461202568 10.137621298633938 -0.52991925155115449 0 -0.84804810408105047 I I #
coedge $-1 $594 $404 $513 $601 forward $518 $-1 #
coedge $-1 $404 $603 $406 $521 reversed $518 $-1 #
loop $-1 $-1 $594 $604 #
straight-curve $-1 -55.6755272072512 12.423251461202568 34.57234435669946 0 0 -1 I I #
coedge $-1 $605 $406 $606 $607 forward $398 $-1 #
edge $-1 $409 -12.423251461202568 $608 32.236142146937176 $517 $609 forward 7 unknown #
point $-1 -53.131195939655768 12.423251461202568 14.209402614980695 #
point $-1 -55.6755272072512 12.423251461202568 14.209402614980695 #
point $-1 -53.131289417331899 17.414488941478702 11.378633079480579 #
straight-curve $-1 0 32.236142146937176 -14.209402614980695 1 0 0 I I #
point $-1 55.6755272072512 32.236142146937176 -14.209402614980695 #
straight-curve $-1 -55.6755272072512 0 14.209402614980695 0 -1 0 I I #
point $-1 -55.6755272072512 32.236142146937176 14.209402614980695 #
point $-1 -55.6755272072512 -32.236142146937176 14.209402614980695 #
straight-curve $-1 55.6755272072512 32.236142146937176 0 0 0 -1 I I #
straight-curve $-1 -55.6755272072512 32.236142146937176 0 0 0 -1 I I #
point $-1 -55.6755272072512 32.236142146937176 -14.209402614980695 #
plane-surface $-1 -55.6755272072512 0 0 1 0 0 0 0 -1 forward_v I I I I #
vertex $-1 $443 $610 #
straight-curve $-1 55.6755272072512 0 14.209402614980695 0 1 0 I I #
vertex $-1 $457 $611 #
straight-curve $-1 0 -49.238951911571853 -14.209402614980695 -1 0 0 I I #
point $-1 -55.6755272072512 -49.238951911571853 -9.009681462748647 #
point $-1 -55.6755272072512 -49.238951911571853 -14.209402614980695 #
straight-curve $-1 -55.6755272072512 -40.737547029254515 -9.009681462748647 0 -1 0 I I #
edge $-1 $474 -14.209402614980695 $453 9.009681462748647 $469 $612 forward 7 unknown #
point $-1 -55.6755272072512 -32.236142146937176 -9.009681462748647 #
straight-curve $-1 55.6755272072512 -49.238951911571853 -11.609542038864671 0 0 -1 I I #
straight-curve $-1 55.6755272072512 -32.236142146937176 0 0 0 -1 I I #
plane-surface $-1 55.6755272072512 0 0 -1 0 0 0 0 1 forward_v I I I I #
straight-curve $-1 55.6755272072512 32.236142146937176 0 0 0 -1 I I #
point $-1 55.6755272072512 32.236142146937176 14.209402614980695 #
point $-1 55.6755272072512 32.236142146937176 -14.209402614980695 #
straight-curve $-1 55.6755272072512 0 -14.209402614980695 0 -1 0 I I #
straight-curve $-1 0 -32.236142146937176 14.209402614980695 1 0 0 I I #
point $-1 -55.6755272072512 -32.236142146937176 14.209402614980695 #
face $-1 $587 $613 $18 $-1 $614 reversed single #
loop $-1 $-1 $615 $476 #
plane-surface $-1 0 -49.238951911571853 -11.609542038864671 0 1 0 0 0 1 forward_v I I I I #
coedge $-1 $616 $617 $618 $619 forward $477 $-1 #
coedge $-1 $482 $479 $620 $621 reversed $377 $-1 #
coedge $-1 $479 $482 $567 $622 reversed $377 $-1 #
coedge $-1 $579 $623 $479 $559 forward $577 $-1 #
edge $-1 $624 -14.209402614980695 $625 14.209402614980695 $558 $626 forward 7 unknown #
coedge $-1 $481 $480 $568 $627 reversed $263 $-1 #
coedge $-1 $620 $628 $480 $562 forward $613 $-1 #
edge $-1 $629 -1.7313467800015374 $565 1.7313467800015374 $480 $630 forward 7 unknown #
edge $-1 $564 -1.7313467800015374 $569 1.7313467800015374 $481 $631 forward 7 unknown #
vertex $-1 $622 $632 #
vertex $-1 $621 $633 #
straight-curve $-1 -52.212833647248125 42.066557872119517 0 0 0 -1 I I #
coedge $-1 $484 $496 $557 $622 forward $155 $-1 #
coedge $-1 $634 $485 $560 $627 forward $277 $-1 #
vertex $-1 $563 $635 #
coedge $-1 $491 $634 $615 $636 reversed $277 $-1 #
coedge $-1 $617 $616 $491 $572 forward $477 $-1 #
edge $-1 $574 -8.5014048823173383 $637 8.5014048823173383 $491 $638 forward 7 unknown #
coedge $-1 $499 $492 $616 $639 forward $500 $-1 #
vertex $-1 $493 $640 #
straight-curve $-1 -55.6755272072512 -32.236142146937176 0 0 0 -1 I I #
face $-1 $-1 $583 $18 $-1 $641 reversed single #
loop $-1 $-1 $558 $494 #
plane-surface $-1 0 32.236142146937176 0 0 -1 0 0 0 -1 forward_v I I I I #
coedge $-1 $642 $558 $496 $580 reversed $577 $-1 #
edge $-1 $584 -55.6755272072512 $625 52.212833647248125 $579 $643 forward 7 unknown #
coedge $-1 $618 $497 $499 $586 forward $583 $-1 #
coedge $-1 $497 $644 $642 $645 reversed $583 $-1 #
loop $-1 $-1 $581 $576 #
vertex $-1 $498 $646 #
straight-curve $-1 55.6755272072512 0 14.209402614980695 0 1 0 I I #
edge $-1 $501 -14.209402614980695 $647 9.009681462748647 $581 $648 forward 7 unknown #
face $-1 $391 $500 $18 $-1 $649 reversed single #
point $-1 55.6755272072512 -32.236142146937176 14.209402614980695 #
face $-1 $650 $651 $19 $-1 $652 forward single #
loop $-1 $-1 $653 $504 #
plane-surface $-1 -52.212833647248125 37.15135000952835 0 -1 0 0 0 0 1 forward_v I I I I #
coedge $-1 $654 $655 $656 $657 forward $505 $-1 #
coedge $-1 $507 $658 $659 $660 forward $398 $-1 #
coedge $-1 $659 $516 $508 $595 forward $518 $-1 #
edge $-1 $661 -24.434723058065511 $597 -20.362941741718764 $594 $662 forward 7 unknown #
edge $-1 $661 1.2803919046239758e-014 $598 4.8013565465828858 $509 $663 forward 7 unknown #
vertex $-1 $595 $664 #
vertex $-1 $512 $665 #
straight-curve $-1 -75.05328889544792 22.405726421754835 14.209402614980696 1 0 0 I I #
straight-curve $-1 -53.131195939655775 8.7072444707393508 14.209402614980695 0 -1 0 I I #
edge $-1 $514 3.7160069904632174 $661 13.698481951015484 $516 $666 forward 7 unknown #
point $-1 -55.6755272072512 12.423251461202568 10.137621298633949 #
coedge $-1 $517 $667 $668 $669 reversed $518 $-1 #
face $-1 $670 $518 $19 $-1 $671 reversed single #
coedge $-1 $672 $520 $673 $674 forward $398 $-1 #
coedge $-1 $668 $675 $520 $607 reversed $676 $-1 #
edge $-1 $608 -55.6755272072512 $677 55.6755272072512 $606 $678 forward 7 unknown #
vertex $-1 $521 $679 #
straight-curve $-1 -55.6755272072512 0 14.209402614980695 0 -1 0 I I #
point $-1 55.6755272072512 -32.236142146937176 14.209402614980695 #
point $-1 55.6755272072512 -49.238951911571853 -14.209402614980695 #
straight-curve $-1 -55.6755272072512 -32.236142146937176 0 0 0 -1 I I #
loop $-1 $-1 $680 $552 #
plane-surface $-1 0 0 -14.209402614980695 0 0 1 1 0 0 forward_v I I I I #
coedge $-1 $681 $682 $570 $636 forward $553 $-1 #
coedge $-1 $571 $555 $573 $639 reversed $477 $-1 #
coedge $-1 $555 $571 $682 $683 forward $477 $-1 #
coedge $-1 $684 $581 $555 $619 reversed $583 $-1 #
edge $-1 $685 -8.5014048823173383 $647 8.5014048823173383 $618 $686 forward 7 unknown #
coedge $-1 $687 $561 $556 $621 forward $613 $-1 #
edge $-1 $565 -4.915207862591167 $624 4.915207862591167 $556 $688 forward 7 unknown #
edge $-1 $625 -4.915207862591167 $564 4.915207862591167 $557 $689 forward 7 unknown #
coedge $-1 $558 $642 $687 $690 reversed $577 $-1 #
vertex $-1 $690 $691 #
vertex $-1 $622 $692 #
straight-curve $-1 -52.212833647248125 32.236142146937176 0 0 0 1 I I #
edge $-1 $569 -14.209402614980695 $629 14.209402614980695 $560 $693 forward 7 unknown #
coedge $-1 $561 $694 $634 $695 forward $613 $-1 #
vertex $-1 $562 $696 #
straight-curve $-1 -53.944180427249663 42.066557872119517 -14.209402614980695 1 0 0 I I #
straight-curve $-1 -53.944180427249663 42.066557872119517 14.209402614980695 -1 0 0 I I #
point $-1 -52.212833647248125 42.066557872119517 14.209402614980695 #
point $-1 -52.212833647248125 42.066557872119517 -14.209402614980695 #
coedge $-1 $570 $568 $628 $695 reversed $277 $-1 #
point $-1 -55.6755272072512 42.066557872119517 14.209402614980695 #
edge $-1 $637 -2.5998605761160238 $697 2.5998605761160238 $570 $698 forward 7 unknown #
vertex $-1 $572 $699 #
straight-curve $-1 -55.6755272072512 -40.737547029254515 -9.009681462748647 0 -1 0 I I #
edge $-1 $574 -55.6755272072512 $647 55.6755272072512 $573 $700 forward 7 unknown #
point $-1 -55.6755272072512 -32.236142146937176 -9.009681462748647 #
plane-surface $-1 55.6755272072512 0 0 -1 0 0 0 0 1 forward_v I I I I #
coedge $-1 $623 $579 $582 $645 forward $577 $-1 #
straight-curve $-1 0 32.236142146937176 14.209402614980695 -1 0 0 I I #
coedge $-1 $582 $684 $680 $701 reversed $583 $-1 #
edge $-1 $584 -14.209402614980695 $702 14.209402614980695 $582 $703 forward 7 unknown #
point $-1 55.6755272072512 32.236142146937176 14.209402614980695 #
vertex $-1 $619 $704 #
straight-curve $-1 55.6755272072512 -32.236142146937176 0 0 0 -1 I I #
plane-surface $-1 0 -32.236142146937176 0 0 1 0 0 0 1 forward_v I I I I #
face $-1 $705 $706 $19 $-1 $707 reversed single #
loop $-1 $-1 $708 $589 #
plane-surface $-1 0 -40.737547029254515 -9.009681462748647 0 0 1 1 0 0 forward_v I I I I #
coedge $-1 $709 $710 $711 $712 reversed $590 $-1 #
coedge $-1 $713 $592 $714 $715 reversed $505 $-1 #
coedge $-1 $592 $713 $658 $716 reversed $505 $-1 #
coedge $-1 $710 $709 $592 $657 reversed $590 $-1 #
edge $-1 $717 -14.209402614980695 $718 14.209402614980695 $656 $719 forward 7 unknown #
coedge $-1 $593 $720 $655 $716 forward $398 $-1 #
coedge $-1 $721 $594 $593 $660 reversed $518 $-1 #
edge $-1 $722 -42.066557872119517 $597 -22.405726421754835 $659 $609 forward 7 unknown #
vertex $-1 $601 $723 #
straight-curve $-1 -55.6755272072512 22.405726421754835 34.57234435669946 0 0 1 I I #
straight-curve $-1 -55.675527207251207 22.405726421754835 10.137621298633938 0.52991925155115449 0 0.84804810408105047 I I #
point $-1 -55.6755272072512 22.405726421754835 14.209402614980695 #
point $-1 -53.131195939655768 22.405726421754835 14.209402614980695 #
straight-curve $-1 -55.6755272072512 8.7072444707393508 10.137621298633954 0 1 0 I I #
coedge $-1 $603 $724 $725 $726 reversed $518 $-1 #
coedge $-1 $727 $606 $603 $669 forward $676 $-1 #
edge $-1 $608 -14.209402614980695 $728 9.009681462748647 $603 $729 forward 7 unknown #
face $-1 $730 $731 $19 $-1 $732 reversed single #
plane-surface $-1 -55.6755272072512 0 0 1 0 0 0 0 -1 forward_v I I I I #
coedge $-1 $720 $605 $733 $734 forward $398 $-1 #
coedge $-1 $735 $736 $605 $674 reversed $737 $-1 #
edge $-1 $677 -32.236142146937176 $738 32.236142146937176 $673 $739 forward 7 unknown #
coedge $-1 $606 $727 $735 $740 reversed $676 $-1 #
loop $-1 $-1 $727 $741 #
vertex $-1 $674 $742 #
straight-curve $-1 0 -32.236142146937176 14.209402614980695 1 0 0 I I #
point $-1 -55.6755272072512 -32.236142146937176 14.209402614980695 #
coedge $-1 $694 $687 $644 $701 forward $613 $-1 #
coedge $-1 $743 $615 $694 $744 reversed $553 $-1 #
coedge $-1 $615 $743 $617 $683 reversed $553 $-1 #
edge $-1 $637 -55.6755272072512 $685 55.6755272072512 $682 $745 forward 7 unknown #
coedge $-1 $644 $618 $743 $746 forward $583 $-1 #
vertex $-1 $619 $747 #
straight-curve $-1 55.6755272072512 -40.737547029254515 -9.009681462748647 0 1 0 I I #
coedge $-1 $680 $620 $623 $690 forward $613 $-1 #
straight-curve $-1 -52.212833647248125 37.15135000952835 -14.209402614980695 0 -1 0 I I #
straight-curve $-1 -52.212833647248125 37.15135000952835 14.209402614980695 0 1 0 I I #
edge $-1 $624 -52.212833647248125 $702 55.6755272072512 $623 $748 forward 7 unknown #
point $-1 -52.212833647248125 32.236142146937183 -14.209402614980695 #
point $-1 -52.212833647248125 32.236142146937183 14.209402614980695 #
straight-curve $-1 -55.6755272072512 42.066557872119517 0 0 0 -1 I I #
coedge $-1 $628 $680 $681 $744 forward $613 $-1 #
edge $-1 $697 -86.390301921100203 $629 4.915207862591167 $634 $749 forward 7 unknown #
point $-1 -55.6755272072512 42.066557872119517 -14.209402614980695 #
vertex $-1 $695 $750 #
straight-curve $-1 -55.6755272072512 -49.238951911571853 -11.609542038864671 0 0 -1 I I #
point $-1 -55.6755272072512 -49.238951911571853 -9.009681462748647 #
straight-curve $-1 0 -32.236142146937176 -9.009681462748647 1 0 0 I I #
edge $-1 $702 -32.236142146937176 $751 49.238951911571853 $644 $752 forward 7 unknown #
vertex $-1 $701 $753 #
straight-curve $-1 55.6755272072512 32.236142146937176 0 0 0 -1 I I #
point $-1 55.6755272072512 -32.236142146937176 -9.009681462748647 #
face $-1 $741 $754 $19 $-1 $755 reversed single #
loop $-1 $-1 $756 $650 #
plane-surface $-1 0 -49.238951911571853 -11.609542038864671 0 1 0 0 0 1 forward_v I I I I #
coedge $-1 $757 $758 $759 $760 forward $651 $-1 #
coedge $-1 $656 $653 $761 $762 reversed $590 $-1 #
coedge $-1 $653 $656 $720 $763 reversed $590 $-1 #
coedge $-1 $733 $764 $653 $712 forward $731 $-1 #
edge $-1 $765 -14.209402614980695 $766 14.209402614980695 $711 $767 forward 7 unknown #
coedge $-1 $655 $654 $721 $768 reversed $505 $-1 #
coedge $-1 $761 $769 $654 $715 forward $754 $-1 #
edge $-1 $770 -1.7313467800015374 $718 1.7313467800015374 $654 $771 forward 7 unknown #
edge $-1 $717 -1.7313467800015374 $722 1.7313467800015374 $655 $772 forward 7 unknown #
vertex $-1 $763 $773 #
vertex $-1 $762 $774 #
straight-curve $-1 -52.212833647248125 42.066557872119517 0 0 0 -1 I I #
coedge $-1 $658 $672 $710 $763 forward $398 $-1 #
coedge $-1 $775 $659 $713 $768 forward $518 $-1 #
vertex $-1 $716 $776 #
point $-1 -55.6755272072512 22.405726421754835 10.137621298633949 #
coedge $-1 $667 $775 $756 $777 reversed $518 $-1 #
coedge $-1 $758 $757 $667 $726 forward $651 $-1 #
edge $-1 $728 -8.5014048823173383 $778 8.5014048823173383 $667 $779 forward 7 unknown #
coedge $-1 $675 $668 $757 $780 forward $676 $-1 #
vertex $-1 $669 $781 #
straight-curve $-1 -55.6755272072512 -32.236142146937176 0 0 0 -1 I I #
face $-1 $-1 $737 $19 $-1 $782 reversed single #
loop $-1 $-1 $711 $670 #
plane-surface $-1 0 32.236142146937176 0 0 -1 0 0 0 -1 forward_v I I I I #
coedge $-1 $783 $711 $672 $734 reversed $731 $-1 #
edge $-1 $738 -55.6755272072512 $766 52.212833647248125 $733 $784 forward 7 unknown #
coedge $-1 $759 $673 $675 $740 forward $737 $-1 #
coedge $-1 $673 $785 $783 $786 reversed $737 $-1 #
loop $-1 $-1 $735 $730 #
vertex $-1 $674 $787 #
straight-curve $-1 55.6755272072512 0 14.209402614980695 0 1 0 I I #
edge $-1 $677 -14.209402614980695 $788 9.009681462748647 $735 $789 forward 7 unknown #
face $-1 $604 $676 $19 $-1 $790 reversed single #
point $-1 55.6755272072512 -32.236142146937176 14.209402614980695 #
coedge $-1 $682 $681 $684 $746 reversed $553 $-1 #
edge $-1 $751 -55.6755272072512 $697 55.6755272072512 $681 $791 forward 7 unknown #
straight-curve $-1 0 -49.238951911571853 -9.009681462748647 1 0 0 I I #
edge $-1 $685 -2.5998605761160238 $751 2.5998605761160238 $684 $792 forward 7 unknown #
point $-1 55.6755272072512 -49.238951911571853 -9.009681462748647 #
straight-curve $-1 0 32.236142146937176 -14.209402614980695 1 0 0 I I #
straight-curve $-1 -55.6755272072512 37.15135000952835 -14.209402614980695 0 1 0 I I #
point $-1 -55.6755272072512 -49.238951911571853 -14.209402614980695 #
vertex $-1 $746 $793 #
straight-curve $-1 55.6755272072512 0 -14.209402614980695 0 -1 0 I I #
point $-1 55.6755272072512 32.236142146937176 -14.209402614980695 #
loop $-1 $-1 $794 $705 #
plane-surface $-1 0 0 -14.209402614980695 0 0 1 1 0 0 forward_v I I I I #
coedge $-1 $795 $796 $724 $777 forward $706 $-1 #
coedge $-1 $725 $708 $727 $780 reversed $651 $-1 #
coedge $-1 $708 $725 $796 $797 forward $651 $-1 #
coedge $-1 $798 $735 $708 $760 reversed $737 $-1 #
edge $-1 $799 -8.5014048823173383 $788 8.5014048823173383 $759 $800 forward 7 unknown #
coedge $-1 $801 $714 $709 $762 forward $754 $-1 #
edge $-1 $718 -4.915207862591167 $765 4.915207862591167 $709 $802 forward 7 unknown #
edge $-1 $766 -4.915207862591167 $717 4.915207862591167 $710 $803 forward 7 unknown #
coedge $-1 $711 $783 $801 $804 reversed $731 $-1 #
vertex $-1 $804 $805 #
vertex $-1 $763 $806 #
straight-curve $-1 -52.212833647248125 32.236142146937176 0 0 0 1 I I #
edge $-1 $722 -14.209402614980695 $770 14.209402614980695 $713 $807 forward 7 unknown #
coedge $-1 $714 $808 $775 $809 forward $754 $-1 #
vertex $-1 $715 $810 #
straight-curve $-1 -53.944180427249663 42.066557872119517 -14.209402614980695 1 0 0 I I #
straight-curve $-1 -53.944180427249663 42.066557872119517 14.209402614980695 -1 0 0 I I #
point $-1 -52.212833647248125 42.066557872119517 14.209402614980695 #
point $-1 -52.212833647248125 42.066557872119517 -14.209402614980695 #
coedge $-1 $724 $721 $769 $809 reversed $518 $-1 #
point $-1 -55.6755272072512 42.066557872119517 14.209402614980695 #
edge $-1 $778 -2.5998605761160238 $811 2.5998605761160238 $724 $812 forward 7 unknown #
vertex $-1 $726 $813 #
straight-curve $-1 -55.6755272072512 -40.737547029254515 -9.009681462748647 0 -1 0 I I #
edge $-1 $728 -55.6755272072512 $788 55.6755272072512 $727 $814 forward 7 unknown #
point $-1 -55.6755272072512 -32.236142146937176 -9.009681462748647 #
plane-surface $-1 55.6755272072512 0 0 -1 0 0 0 0 1 forward_v I I I I #
coedge $-1 $764 $733 $736 $786 forward $731 $-1 #
straight-curve $-1 0 32.236142146937176 14.209402614980695 -1 0 0 I I #
coedge $-1 $736 $798 $794 $815 reversed $737 $-1 #
edge $-1 $738 -14.209402614980695 $816 14.209402614980695 $736 $817 forward 7 unknown #
point $-1 55.6755272072512 32.236142146937176 14.209402614980695 #
vertex $-1 $760 $818 #
straight-curve $-1 55.6755272072512 -32.236142146937176 0 0 0 -1 I I #
plane-surface $-1 0 -32.236142146937176 0 0 1 0 0 0 1 forward_v I I I I #
straight-curve $-1 0 -49.238951911571853 -14.209402614980695 -1 0 0 I I #
straight-curve $-1 55.6755272072512 -49.238951911571853 -11.609542038864671 0 0 -1 I I #
point $-1 55.6755272072512 -49.238951911571853 -14.209402614980695 #
coedge $-1 $808 $801 $785 $815 forward $754 $-1 #
coedge $-1 $819 $756 $808 $820 reversed $706 $-1 #
coedge $-1 $756 $819 $758 $797 reversed $706 $-1 #
edge $-1 $778 -55.6755272072512 $799 55.6755272072512 $796 $821 forward 7 unknown #
coedge $-1 $785 $759 $819 $822 forward $737 $-1 #
vertex $-1 $760 $823 #
straight-curve $-1 55.6755272072512 -40.737547029254515 -9.009681462748647 0 1 0 I I #
coedge $-1 $794 $761 $764 $804 forward $754 $-1 #
straight-curve $-1 -52.212833647248125 37.15135000952835 -14.209402614980695 0 -1 0 I I #
straight-curve $-1 -52.212833647248125 37.15135000952835 14.209402614980695 0 1 0 I I #
edge $-1 $765 -52.212833647248125 $816 55.6755272072512 $764 $824 forward 7 unknown #
point $-1 -52.212833647248125 32.236142146937183 -14.209402614980695 #
point $-1 -52.212833647248125 32.236142146937183 14.209402614980695 #
straight-curve $-1 -55.6755272072512 42.066557872119517 0 0 0 -1 I I #
coedge $-1 $769 $794 $795 $820 forward $754 $-1 #
edge $-1 $811 -86.390301921100203 $770 4.915207862591167 $775 $825 forward 7 unknown #
point $-1 -55.6755272072512 42.066557872119517 -14.209402614980695 #
vertex $-1 $809 $826 #
straight-curve $-1 -55.6755272072512 -49.238951911571853 -11.609542038864671 0 0 -1 I I #
point $-1 -55.6755272072512 -49.238951911571853 -9.009681462748647 #
straight-curve $-1 0 -32.236142146937176 -9.009681462748647 1 0 0 I I #
edge $-1 $816 -32.236142146937176 $827 49.238951911571853 $785 $828 forward 7 unknown #
vertex $-1 $815 $829 #
straight-curve $-1 55.6755272072512 32.236142146937176 0 0 0 -1 I I #
point $-1 55.6755272072512 -32.236142146937176 -9.009681462748647 #
coedge $-1 $796 $795 $798 $822 reversed $706 $-1 #
edge $-1 $827 -55.6755272072512 $811 55.6755272072512 $795 $830 forward 7 unknown #
straight-curve $-1 0 -49.238951911571853 -9.009681462748647 1 0 0 I I #
edge $-1 $799 -2.5998605761160238 $827 2.5998605761160238 $798 $831 forward 7 unknown #
point $-1 55.6755272072512 -49.238951911571853 -9.009681462748647 #
straight-curve $-1 0 32.236142146937176 -14.209402614980695 1 0 0 I I #
straight-curve $-1 -55.6755272072512 37.15135000952835 -14.209402614980695 0 1 0 I I #
point $-1 -55.6755272072512 -49.238951911571853 -14.209402614980695 #
vertex $-1 $822 $832 #
straight-curve $-1 55.6755272072512 0 -14.209402614980695 0 -1 0 I I #
point $-1 55.6755272072512 32.236142146937176 -14.209402614980695 #
straight-curve $-1 0 -49.238951911571853 -14.209402614980695 -1 0 0 I I #
straight-curve $-1 55.6755272072512 -49.238951911571853 -11.609542038864671 0 0 -1 I I #
point $-1 55.6755272072512 -49.238951911571853 -14.209402614980695 #
End-of-ACIS-data 