500 0 10 0           
7 Unknown 11 ACIS 5.0 NT 24 Fri Mar 26 01:55:12 1999 
-1 9.9999999999999995e-007 1e-010 
body $-1 $10 $-1 $11 #
body $-1 $12 $-1 $13 #
body $-1 $14 $-1 $15 #
body $-1 $16 $-1 $17 #
body $-1 $18 $-1 $19 #
body $-1 $20 $-1 $21 #
body $-1 $22 $-1 $23 #
body $-1 $24 $-1 $25 #
body $-1 $26 $-1 $27 #
body $-1 $28 $-1 $29 #
lump $-1 $-1 $30 $0 #
transform $-1 1 0 0 0 1 0 0 0 1 70.641804254280217 30.959551682900209 14.768028342969048 1 rotate no_reflect no_shear #
lump $-1 $-1 $31 $1 #
transform $-1 1 0 0 0 1 0 0 0 1 70.641804254280217 30.959551682900209 14.768028342969048 1 rotate no_reflect no_shear #
lump $-1 $-1 $32 $2 #
transform $-1 1 0 0 0 1 0 0 0 1 70.641804254280217 30.959551682900209 14.768028342969048 1 rotate no_reflect no_shear #
lump $-1 $-1 $33 $3 #
transform $-1 1 0 0 0 1 0 0 0 1 70.641804254280217 30.959551682900209 14.768028342969048 1 rotate no_reflect no_shear #
lump $-1 $-1 $34 $4 #
transform $-1 1 0 0 0 1 0 0 0 1 70.641804254280217 30.959551682900209 14.768028342969048 1 rotate no_reflect no_shear #
lump $-1 $-1 $35 $5 #
transform $-1 1 0 0 0 1 0 0 0 1 70.641804254280217 30.959551682900209 14.768028342969048 1 rotate no_reflect no_shear #
lump $-1 $-1 $36 $6 #
transform $-1 1 0 0 0 1 0 0 0 1 70.641804254280217 30.959551682900209 14.768028342969048 1 rotate no_reflect no_shear #
lump $-1 $-1 $37 $7 #
transform $-1 1 0 0 0 1 0 0 0 1 70.641804254280217 30.959551682900209 14.768028342969048 1 rotate no_reflect no_shear #
lump $-1 $-1 $38 $8 #
transform $-1 1 0 0 0 1 0 0 0 1 70.641804254280217 30.959551682900209 14.768028342969048 1 rotate no_reflect no_shear #
lump $-1 $-1 $39 $9 #
transform $-1 1 0 0 0 1 0 0 0 1 70.641804254280217 30.959551682900209 14.768028342969048 1 rotate no_reflect no_shear #
shell $-1 $-1 $-1 $40 $-1 $10 #
shell $-1 $-1 $-1 $41 $-1 $12 #
shell $-1 $-1 $-1 $42 $-1 $14 #
shell $-1 $-1 $-1 $43 $-1 $16 #
shell $-1 $-1 $-1 $44 $-1 $18 #
shell $-1 $-1 $-1 $45 $-1 $20 #
shell $-1 $-1 $-1 $46 $-1 $22 #
shell $-1 $-1 $-1 $47 $-1 $24 #
shell $-1 $-1 $-1 $48 $-1 $26 #
shell $-1 $-1 $-1 $49 $-1 $28 #
face $-1 $50 $51 $30 $-1 $52 forward single #
face $-1 $53 $54 $31 $-1 $55 forward single #
face $-1 $56 $57 $32 $-1 $58 reversed single #
face $-1 $59 $60 $33 $-1 $61 forward single #
face $-1 $62 $63 $34 $-1 $64 reversed single #
face $-1 $65 $66 $35 $-1 $67 forward single #
face $-1 $68 $69 $36 $-1 $70 forward single #
face $-1 $71 $72 $37 $-1 $73 reversed single #
face $-1 $74 $75 $38 $-1 $76 forward single #
face $-1 $77 $78 $39 $-1 $79 forward single #
face $-1 $80 $81 $30 $-1 $82 reversed single #
loop $-1 $-1 $83 $40 #
plane-surface $-1 0 0 14.768028342969048 0 0 1 1 0 0 forward_v I I I I #
face $-1 $84 $85 $31 $-1 $86 reversed single #
loop $-1 $-1 $87 $41 #
plane-surface $-1 -70.641804254280217 0 0 1 0 0 0 0 -1 forward_v I I I I #
face $-1 $88 $89 $32 $-1 $90 reversed single #
loop $-1 $-1 $91 $42 #
plane-surface $-1 58.166469302832681 -30.959551682900241 6.3672406534775376 0 -0.6018150307709319 0.79863550430605224 1 0 0 forward_v I I I I #
face $-1 $92 $93 $33 $-1 $94 forward single #
loop $-1 $95 $96 $43 #
cone-surface $-1 58.166469302832681 -24.874200245834896 9.8891952581307851 0 0.6018150307709319 -0.79863550430605224 1.5 0 0 1 I I 0 1 1.5 forward I I I I #
face $-1 $97 $98 $34 $-1 $99 reversed single #
loop $-1 $-1 $100 $44 #
plane-surface $-1 -32.091314562623765 79.48187863396214 147.14156147033631 1 0 0 0 -0.66913061440640931 -0.74314481823134659 forward_v I I I I #
face $-1 $101 $102 $35 $-1 $103 forward single #
loop $-1 $104 $105 $45 #
cone-surface $-1 -24.382016636543092 21.942112317741728 6.3935101629155708 0 -0.66913061440640931 -0.74314481823134659 1.5 0 0 1 I I 0 1 1.5 forward I I I I #
face $-1 $106 $107 $36 $-1 $108 forward single #
loop $-1 $109 $110 $46 #
cone-surface $-1 -12.818069747422079 21.942112317741728 6.3935101629155708 0 -0.66913061440640931 -0.74314481823134659 1.5 0 0 1 I I 0 1 1.5 forward I I I I #
face $-1 $111 $112 $37 $-1 $113 reversed single #
loop $-1 $-1 $114 $47 #
plane-surface $-1 29.435695228926569 79.48187863396214 147.14156147033631 1 0 0 0 -0.66913061440640931 -0.74314481823134659 forward_v I I I I #
face $-1 $115 $116 $38 $-1 $117 forward single #
loop $-1 $118 $119 $48 #
cone-surface $-1 37.144993155007242 21.942112317741728 6.3935101629155708 0 -0.66913061440640931 -0.74314481823134659 1.5 0 0 1 I I 0 1 1.5 forward I I I I #
face $-1 $120 $121 $39 $-1 $122 forward single #
loop $-1 $123 $124 $49 #
cone-surface $-1 48.708940044128255 21.942112317741728 6.3935101629155708 0 -0.66913061440640931 -0.74314481823134659 1.5 0 0 1 I I 0 1 1.5 forward I I I I #
face $-1 $125 $126 $30 $-1 $127 reversed single #
loop $-1 $-1 $128 $50 #
plane-surface $-1 0 0 -14.768028342969048 0 0 1 1 0 0 forward_v I I I I #
coedge $-1 $129 $130 $131 $132 forward $51 $-1 #
face $-1 $133 $134 $31 $-1 $135 forward single #
loop $-1 $-1 $136 $53 #
plane-surface $-1 0 30.959551682900209 0 0 -1 0 0 0 -1 forward_v I I I I #
coedge $-1 $137 $138 $139 $140 forward $54 $-1 #
face $-1 $141 $142 $32 $-1 $143 reversed single #
loop $-1 $-1 $144 $56 #
plane-surface $-1 45.691134351385152 -115.98615088490783 119.20134658489056 1 0 0 0 0.6018150307709319 -0.79863550430605224 forward_v I I I I #
coedge $-1 $145 $146 $147 $148 reversed $57 $-1 #
face $-1 $-1 $149 $33 $-1 $150 forward single #
loop $-1 $151 $152 $59 #
cone-surface $-1 58.166469302832681 -23.911598325488889 8.6117793898087402 0 0.6018150307709319 -0.79863550430605224 0.75 0 0 1 I I -0.70710678118654757 0.70710678118654757 0.75 forward I I I I #
loop $-1 $-1 $153 $43 #
coedge $-1 $96 $96 $154 $155 reversed $60 $-1 #
face $-1 $156 $157 $34 $-1 $158 reversed single #
loop $-1 $-1 $159 $62 #
plane-surface $-1 -18.600043191982586 -15.055309132925501 42.147379906173441 0 0.66913061440640931 0.74314481823134659 1 0 0 forward_v I I I I #
coedge $-1 $160 $161 $162 $163 reversed $63 $-1 #
face $-1 $-1 $164 $35 $-1 $165 forward single #
loop $-1 $166 $167 $65 #
cone-surface $-1 -24.382016636543092 20.226330483791688 4.4879414269123981 0 -0.66913061440640931 -0.74314481823134659 0.75 0 0 1 I I -0.70710678118654757 0.70710678118654757 0.75 forward I I I I #
loop $-1 $-1 $168 $45 #
coedge $-1 $105 $105 $169 $170 reversed $66 $-1 #
face $-1 $-1 $171 $36 $-1 $172 forward single #
loop $-1 $173 $174 $68 #
cone-surface $-1 -12.818069747422079 20.226330483791688 4.4879414269123981 0 -0.66913061440640931 -0.74314481823134659 0.75 0 0 1 I I -0.70710678118654757 0.70710678118654757 0.75 forward I I I I #
loop $-1 $-1 $175 $46 #
coedge $-1 $110 $110 $176 $177 reversed $69 $-1 #
face $-1 $178 $179 $37 $-1 $180 reversed single #
loop $-1 $-1 $181 $71 #
plane-surface $-1 42.926966599567749 -15.055309132925501 42.147379906173441 0 0.66913061440640931 0.74314481823134659 1 0 0 forward_v I I I I #
coedge $-1 $182 $183 $184 $185 reversed $72 $-1 #
face $-1 $-1 $186 $38 $-1 $187 forward single #
loop $-1 $188 $189 $74 #
cone-surface $-1 37.144993155007242 20.226330483791688 4.4879414269123981 0 -0.66913061440640931 -0.74314481823134659 0.75 0 0 1 I I -0.70710678118654757 0.70710678118654757 0.75 forward I I I I #
loop $-1 $-1 $190 $48 #
coedge $-1 $119 $119 $191 $192 reversed $75 $-1 #
face $-1 $-1 $193 $39 $-1 $194 forward single #
loop $-1 $195 $196 $77 #
cone-surface $-1 48.708940044128255 20.226330483791688 4.4879414269123981 0 -0.66913061440640931 -0.74314481823134659 0.75 0 0 1 I I -0.70710678118654757 0.70710678118654757 0.75 forward I I I I #
loop $-1 $-1 $197 $49 #
coedge $-1 $124 $124 $198 $199 reversed $78 $-1 #
face $-1 $200 $201 $30 $-1 $202 reversed single #
loop $-1 $-1 $203 $80 #
plane-surface $-1 0 -30.959551682900209 0 0 1 0 0 0 1 forward_v I I I I #
coedge $-1 $204 $205 $206 $207 forward $81 $-1 #
coedge $-1 $208 $83 $209 $210 forward $51 $-1 #
coedge $-1 $83 $208 $211 $212 forward $51 $-1 #
coedge $-1 $213 $214 $83 $132 reversed $215 $-1 #
edge $-1 $216 -30.959551682900209 $217 30.959551682900209 $131 $218 forward 7 unknown #
face $-1 $219 $220 $31 $-1 $221 reversed single #
loop $-1 $-1 $139 $84 #
plane-surface $-1 -79.756598717010093 0 -0.782700945032067 0 0 1 1 0 0 forward_v I I I I #
coedge $-1 $222 $223 $138 $224 forward $85 $-1 #
coedge $-1 $225 $87 $226 $227 reversed $54 $-1 #
coedge $-1 $87 $225 $136 $224 reversed $54 $-1 #
coedge $-1 $228 $229 $87 $140 reversed $134 $-1 #
edge $-1 $230 -30.959551682900209 $231 30.959551682900209 $139 $232 forward 7 unknown #
face $-1 $233 $234 $32 $-1 $235 forward single #
loop $-1 $-1 $236 $88 #
plane-surface $-1 0 -30.959551682900209 0 0 1 0 0 0 1 forward_v I I I I #
coedge $-1 $237 $238 $239 $240 reversed $89 $-1 #
coedge $-1 $241 $91 $242 $243 reversed $57 $-1 #
coedge $-1 $91 $241 $237 $244 forward $57 $-1 #
coedge $-1 $239 $245 $91 $148 forward $234 $-1 #
edge $-1 $246 -41.558569602863862 $247 -16.607899699968812 $147 $248 forward 7 unknown #
loop $-1 $-1 $154 $92 #
plane-surface $-1 58.166469302832681 -30.959551682900241 6.3672406534775376 0 -0.6018150307709319 0.79863550430605224 1 0 0 forward_v I I I I #
loop $-1 $-1 $249 $59 #
coedge $-1 $152 $152 $153 $250 reversed $93 $-1 #
coedge $-1 $153 $153 $152 $250 forward $95 $-1 #
coedge $-1 $154 $154 $96 $155 forward $149 $-1 #
edge $-1 $251 9.054383007022908e-016 $251 6.2831853071796013 $154 $252 forward 7 unknown #
face $-1 $253 $254 $34 $-1 $255 forward single #
loop $-1 $-1 $256 $97 #
plane-surface $-1 -5.1087718213414064 79.48187863396214 147.14156147033631 -1 0 0 0 0.66913061440640931 0.74314481823134659 forward_v I I I I #
coedge $-1 $257 $258 $259 $260 reversed $98 $-1 #
coedge $-1 $161 $100 $261 $262 reversed $63 $-1 #
coedge $-1 $100 $160 $257 $263 reversed $63 $-1 #
coedge $-1 $259 $264 $100 $163 forward $254 $-1 #
edge $-1 $265 8.7813876340808612 $266 24.388398618107317 $162 $267 forward 7 unknown #
loop $-1 $-1 $169 $101 #
plane-surface $-1 -18.600043191982586 -15.055309132925501 42.147379906173441 0 0.66913061440640931 0.74314481823134659 1 0 0 forward_v I I I I #
loop $-1 $-1 $268 $65 #
coedge $-1 $167 $167 $168 $269 reversed $102 $-1 #
coedge $-1 $168 $168 $167 $269 forward $104 $-1 #
coedge $-1 $169 $169 $105 $170 forward $164 $-1 #
edge $-1 $270 -1.2727091622989161e-015 $270 6.2831853071795996 $169 $271 forward 7 unknown #
loop $-1 $-1 $176 $106 #
plane-surface $-1 -18.600043191982586 -15.055309132925501 42.147379906173441 0 0.66913061440640931 0.74314481823134659 1 0 0 forward_v I I I I #
loop $-1 $-1 $272 $68 #
coedge $-1 $174 $174 $175 $273 reversed $107 $-1 #
coedge $-1 $175 $175 $174 $273 forward $109 $-1 #
coedge $-1 $176 $176 $110 $177 forward $171 $-1 #
edge $-1 $274 -1.2727091622989161e-015 $274 6.2831853071795996 $176 $275 forward 7 unknown #
face $-1 $276 $277 $37 $-1 $278 forward single #
loop $-1 $-1 $279 $111 #
plane-surface $-1 56.418237970208928 79.48187863396214 147.14156147033631 -1 0 0 0 0.66913061440640931 0.74314481823134659 forward_v I I I I #
coedge $-1 $280 $281 $282 $283 reversed $112 $-1 #
coedge $-1 $183 $114 $284 $285 reversed $72 $-1 #
coedge $-1 $114 $182 $280 $286 reversed $72 $-1 #
coedge $-1 $282 $287 $114 $185 forward $277 $-1 #
edge $-1 $288 8.7813876340808612 $289 24.388398618107317 $184 $290 forward 7 unknown #
loop $-1 $-1 $191 $115 #
plane-surface $-1 42.926966599567749 -15.055309132925501 42.147379906173441 0 0.66913061440640931 0.74314481823134659 1 0 0 forward_v I I I I #
loop $-1 $-1 $291 $74 #
coedge $-1 $189 $189 $190 $292 reversed $116 $-1 #
coedge $-1 $190 $190 $189 $292 forward $118 $-1 #
coedge $-1 $191 $191 $119 $192 forward $186 $-1 #
edge $-1 $293 -1.2727091622989161e-015 $293 6.2831853071795996 $191 $294 forward 7 unknown #
loop $-1 $-1 $198 $120 #
plane-surface $-1 42.926966599567749 -15.055309132925501 42.147379906173441 0 0.66913061440640931 0.74314481823134659 1 0 0 forward_v I I I I #
loop $-1 $-1 $295 $77 #
coedge $-1 $196 $196 $197 $296 reversed $121 $-1 #
coedge $-1 $197 $197 $196 $296 forward $123 $-1 #
coedge $-1 $198 $198 $124 $199 forward $193 $-1 #
edge $-1 $297 -1.2727091622989161e-015 $297 6.2831853071795996 $198 $298 forward 7 unknown #
face $-1 $299 $300 $30 $-1 $301 reversed single #
loop $-1 $-1 $302 $125 #
plane-surface $-1 -70.641804254280217 0 0 1 0 0 0 0 -1 forward_v I I I I #
coedge $-1 $303 $211 $304 $305 forward $126 $-1 #
coedge $-1 $306 $128 $303 $307 forward $81 $-1 #
coedge $-1 $128 $306 $308 $309 forward $81 $-1 #
coedge $-1 $214 $213 $128 $207 reversed $215 $-1 #
edge $-1 $310 -30.959551682900209 $311 30.959551682900209 $206 $312 forward 7 unknown #
coedge $-1 $130 $129 $313 $314 forward $51 $-1 #
coedge $-1 $315 $316 $129 $210 reversed $300 $-1 #
edge $-1 $217 -70.641804254280217 $317 70.641804254280217 $209 $318 forward 7 unknown #
coedge $-1 $203 $319 $130 $212 reversed $126 $-1 #
edge $-1 $320 -70.641804254280217 $216 70.641804254280217 $211 $321 forward 7 unknown #
coedge $-1 $206 $131 $319 $322 forward $215 $-1 #
coedge $-1 $131 $206 $315 $323 reversed $215 $-1 #
loop $-1 $-1 $213 $299 #
vertex $-1 $132 $324 #
vertex $-1 $132 $325 #
straight-curve $-1 70.641804254280217 0 14.768028342969048 0 1 0 I I #
face $-1 $326 $327 $31 $-1 $328 reversed single #
loop $-1 $-1 $329 $133 #
plane-surface $-1 -79.756598717010093 0 -9.633061752273596 0 0 1 1 0 0 forward_v I I I I #
coedge $-1 $330 $136 $331 $332 reversed $85 $-1 #
coedge $-1 $136 $330 $228 $333 reversed $85 $-1 #
edge $-1 $230 0.782700945032067 $334 9.633061752273596 $136 $335 forward 7 unknown #
coedge $-1 $138 $137 $329 $336 forward $54 $-1 #
coedge $-1 $337 $338 $137 $227 forward $339 $-1 #
edge $-1 $340 -9.633061752273596 $231 -0.782700945032067 $226 $341 forward 7 unknown #
coedge $-1 $342 $139 $223 $333 forward $134 $-1 #
coedge $-1 $139 $342 $337 $343 forward $134 $-1 #
vertex $-1 $224 $344 #
vertex $-1 $343 $345 #
straight-curve $-1 -70.641804254280217 0 -0.782700945032067 0 -1 0 I I #
face $-1 $-1 $346 $32 $-1 $347 reversed single #
loop $-1 $-1 $239 $141 #
plane-surface $-1 0 0 14.768028342969048 0 0 1 1 0 0 forward_v I I I I #
coedge $-1 $348 $349 $238 $350 forward $142 $-1 #
coedge $-1 $238 $144 $146 $244 reversed $89 $-1 #
coedge $-1 $144 $237 $236 $350 reversed $89 $-1 #
coedge $-1 $351 $147 $144 $240 forward $234 $-1 #
edge $-1 $247 -38.181745339148662 $352 -27.033523759553706 $239 $353 forward 7 unknown #
coedge $-1 $146 $145 $348 $354 reversed $57 $-1 #
coedge $-1 $355 $356 $145 $243 forward $346 $-1 #
edge $-1 $357 -10.446748020781865 $246 3.5123378444049553 $242 $358 forward 7 unknown #
edge $-1 $359 3.9967925845226159e-014 $247 13.959085865186861 $237 $360 forward 7 unknown #
coedge $-1 $147 $351 $355 $361 forward $234 $-1 #
vertex $-1 $243 $362 #
vertex $-1 $148 $363 #
straight-curve $-1 29.08323465141634 -19.811330103305249 14.768028342969048 -1 0 0 I I #
coedge $-1 $249 $249 $-1 $364 reversed $151 $-1 #
edge $-1 $365 0 $365 6.2831853071796004 $152 $366 forward 7 unknown #
vertex $-1 $155 $367 #
ellipse-curve $-1 58.166469302832681 -25.385440893102722 10.567634498223311 0 -0.6018150307709319 0.79863550430605224 1.5 0 0 1 I I #
face $-1 $-1 $368 $34 $-1 $369 reversed single #
loop $-1 $-1 $162 $156 #
plane-surface $-1 0 0 14.768028342969048 0 0 1 1 0 0 forward_v I I I I #
coedge $-1 $370 $371 $372 $373 reversed $157 $-1 #
coedge $-1 $374 $159 $161 $263 forward $98 $-1 #
coedge $-1 $159 $374 $370 $375 forward $98 $-1 #
coedge $-1 $372 $162 $159 $260 forward $254 $-1 #
edge $-1 $266 -22.791292966632472 $376 4.1912497746498865 $259 $377 forward 7 unknown #
coedge $-1 $378 $379 $160 $262 forward $368 $-1 #
edge $-1 $380 -72.855368507646716 $265 -58.80275239219911 $261 $381 forward 7 unknown #
edge $-1 $266 40.917798369594578 $380 61.91910336580041 $161 $382 forward 7 unknown #
coedge $-1 $162 $372 $378 $383 forward $254 $-1 #
vertex $-1 $163 $384 #
vertex $-1 $163 $385 #
straight-curve $-1 -32.091314562623765 39.74093931698107 14.768028342969046 0 -1 0 I I #
coedge $-1 $268 $268 $-1 $386 reversed $166 $-1 #
edge $-1 $387 0 $387 6.2831853071796004 $167 $388 forward 7 unknown #
vertex $-1 $170 $389 #
ellipse-curve $-1 -24.382016636543092 23.156046190886975 7.7417202852452514 0 0.66913061440640931 0.74314481823134659 1.5 0 0 1 I I #
coedge $-1 $272 $272 $-1 $390 reversed $173 $-1 #
edge $-1 $391 0 $391 6.2831853071796004 $174 $392 forward 7 unknown #
vertex $-1 $177 $393 #
ellipse-curve $-1 -12.818069747422079 23.156046190886975 7.7417202852452514 0 0.66913061440640931 0.74314481823134659 1.5 0 0 1 I I #
face $-1 $-1 $394 $37 $-1 $395 reversed single #
loop $-1 $-1 $184 $178 #
plane-surface $-1 0 0 14.768028342969048 0 0 1 1 0 0 forward_v I I I I #
coedge $-1 $396 $397 $398 $399 reversed $179 $-1 #
coedge $-1 $400 $181 $183 $286 forward $112 $-1 #
coedge $-1 $181 $400 $396 $401 forward $112 $-1 #
coedge $-1 $398 $184 $181 $283 forward $277 $-1 #
edge $-1 $289 7.9722119291426949 $402 34.954754670425054 $282 $403 forward 7 unknown #
coedge $-1 $404 $405 $182 $285 forward $394 $-1 #
edge $-1 $406 -72.855368507646716 $288 -58.80275239219911 $284 $407 forward 7 unknown #
edge $-1 $289 40.917798369594578 $406 61.91910336580041 $183 $408 forward 7 unknown #
coedge $-1 $184 $398 $404 $409 forward $277 $-1 #
vertex $-1 $185 $410 #
vertex $-1 $185 $411 #
straight-curve $-1 29.435695228926569 39.74093931698107 14.768028342969046 0 -1 0 I I #
coedge $-1 $291 $291 $-1 $412 reversed $188 $-1 #
edge $-1 $413 0 $413 6.2831853071796004 $189 $414 forward 7 unknown #
vertex $-1 $192 $415 #
ellipse-curve $-1 37.144993155007242 23.156046190886975 7.7417202852452514 0 0.66913061440640931 0.74314481823134659 1.5 0 0 1 I I #
coedge $-1 $295 $295 $-1 $416 reversed $195 $-1 #
edge $-1 $417 0 $417 6.2831853071796004 $196 $418 forward 7 unknown #
vertex $-1 $199 $419 #
ellipse-curve $-1 48.708940044128255 23.156046190886975 7.7417202852452514 0 0.66913061440640931 0.74314481823134659 1.5 0 0 1 I I #
face $-1 $-1 $215 $30 $-1 $420 reversed single #
loop $-1 $-1 $315 $200 #
plane-surface $-1 0 30.959551682900209 0 0 -1 0 0 0 -1 forward_v I I I I #
coedge $-1 $421 $313 $316 $422 forward $201 $-1 #
coedge $-1 $319 $203 $204 $307 reversed $126 $-1 #
coedge $-1 $313 $421 $203 $305 reversed $201 $-1 #
edge $-1 $320 -14.768028342969048 $423 14.768028342969048 $304 $424 forward 7 unknown #
coedge $-1 $205 $204 $421 $425 forward $81 $-1 #
edge $-1 $311 -70.641804254280217 $423 70.641804254280217 $303 $426 forward 7 unknown #
coedge $-1 $316 $315 $205 $309 reversed $300 $-1 #
edge $-1 $427 -70.641804254280217 $310 70.641804254280217 $308 $428 forward 7 unknown #
vertex $-1 $207 $429 #
vertex $-1 $322 $430 #
straight-curve $-1 70.641804254280217 0 -14.768028342969048 0 -1 0 I I #
coedge $-1 $302 $304 $208 $314 reversed $201 $-1 #
edge $-1 $317 -30.959551682900209 $320 30.959551682900209 $313 $431 forward 7 unknown #
coedge $-1 $308 $209 $214 $323 forward $300 $-1 #
coedge $-1 $209 $308 $302 $422 reversed $300 $-1 #
vertex $-1 $210 $432 #
straight-curve $-1 0 30.959551682900209 14.768028342969048 -1 0 0 I I #
coedge $-1 $211 $303 $213 $322 reversed $126 $-1 #
vertex $-1 $314 $433 #
straight-curve $-1 0 -30.959551682900209 14.768028342969048 1 0 0 I I #
edge $-1 $216 -14.768028342969048 $311 14.768028342969048 $213 $434 forward 7 unknown #
edge $-1 $217 -14.768028342969048 $310 14.768028342969048 $214 $435 forward 7 unknown #
point $-1 70.641804254280217 -30.959551682900209 14.768028342969048 #
point $-1 70.641804254280217 30.959551682900209 14.768028342969048 #
face $-1 $-1 $339 $31 $-1 $436 reversed single #
loop $-1 $-1 $437 $219 #
plane-surface $-1 -88.871393179739968 0 -5.2078813486528315 1 0 0 0 0 -1 forward_v I I I I #
coedge $-1 $438 $331 $225 $336 reversed $220 $-1 #
coedge $-1 $223 $222 $437 $439 reversed $85 $-1 #
coedge $-1 $329 $440 $222 $332 forward $220 $-1 #
edge $-1 $441 -9.1147944627298756 $334 9.1147944627298756 $222 $442 forward 7 unknown #
edge $-1 $230 -9.1147944627298756 $443 9.1147944627298756 $223 $444 forward 7 unknown #
vertex $-1 $224 $445 #
straight-curve $-1 -70.641804254280217 30.959551682900209 0 0 0 -1 I I #
edge $-1 $340 -30.959551682900209 $334 30.959551682900209 $329 $446 forward 7 unknown #
coedge $-1 $447 $226 $229 $343 reversed $339 $-1 #
coedge $-1 $226 $447 $438 $448 reversed $339 $-1 #
loop $-1 $-1 $226 $326 #
vertex $-1 $227 $449 #
straight-curve $-1 -70.641804254280217 -30.959551682900209 0 0 0 1 I I #
coedge $-1 $229 $228 $450 $451 forward $134 $-1 #
edge $-1 $452 -9.1147944627298756 $231 9.1147944627298756 $337 $453 forward 7 unknown #
point $-1 -70.641804254280217 30.959551682900209 -0.782700945032067 #
point $-1 -70.641804254280217 -30.959551682900209 -0.782700945032067 #
loop $-1 $-1 $242 $233 #
plane-surface $-1 70.641804254280217 0 0 -1 0 0 0 0 1 forward_v I I I I #
coedge $-1 $454 $236 $241 $354 forward $142 $-1 #
coedge $-1 $236 $454 $351 $455 reversed $142 $-1 #
edge $-1 $352 44.832644949476233 $359 53.23343263896772 $236 $456 forward 7 unknown #
coedge $-1 $245 $239 $349 $455 forward $234 $-1 #
vertex $-1 $455 $457 #
straight-curve $-1 45.691134351385152 -57.993075442453915 14.768028342969046 0 -1 0 I I #
edge $-1 $359 16.607899699968812 $357 41.558569602863862 $348 $458 forward 7 unknown #
coedge $-1 $356 $242 $245 $361 reversed $346 $-1 #
coedge $-1 $242 $355 $454 $459 forward $346 $-1 #
vertex $-1 $354 $460 #
straight-curve $-1 70.641804254280217 -22.616407808964833 12.654250635060572 0 0.79863550430605224 0.6018150307709319 I I #
vertex $-1 $354 $461 #
straight-curve $-1 45.691134351385152 -30.959551682900241 6.3672406534775376 0 0.79863550430605224 0.6018150307709319 I I #
edge $-1 $462 -30.959551682900209 $246 -19.811330103305249 $355 $463 forward 7 unknown #
point $-1 70.641804254280203 -19.811330103305249 14.768028342969048 #
point $-1 45.691134351385152 -19.811330103305249 14.768028342969048 #
edge $-1 $464 1 $464 0 $249 $-1 forward 7 unknown #
vertex $-1 $250 $465 #
ellipse-curve $-1 58.166469302832681 -24.362959598567087 9.2107560180382801 0 -0.6018150307709319 0.79863550430605224 1.5 0 0 1 I I #
point $-1 59.666469302832681 -25.385440893102704 10.56763449822329 #
loop $-1 $-1 $261 $253 #
plane-surface $-1 0 30.959551682900209 0 0 -1 0 0 0 -1 forward_v I I I I #
coedge $-1 $371 $256 $258 $375 reversed $157 $-1 #
coedge $-1 $256 $370 $466 $467 reversed $157 $-1 #
coedge $-1 $264 $259 $256 $373 forward $254 $-1 #
edge $-1 $376 -24.388398618107317 $468 -8.7813876340808612 $372 $469 forward 7 unknown #
coedge $-1 $258 $257 $379 $470 reversed $98 $-1 #
edge $-1 $471 -61.91910336580041 $376 -40.917798369594578 $370 $472 forward 7 unknown #
vertex $-1 $260 $473 #
straight-curve $-1 -9.3000215959912929 15.352540698873756 14.768028342969043 1 0 0 I I #
coedge $-1 $466 $261 $264 $383 reversed $368 $-1 #
coedge $-1 $261 $466 $374 $470 forward $368 $-1 #
vertex $-1 $262 $474 #
straight-curve $-1 -32.091314562623765 30.959551682900209 73.570780735168157 0 0 1 I I #
straight-curve $-1 -32.091314562623765 -15.055309132925501 42.147379906173441 0 0.74314481823134659 -0.66913061440640931 I I #
edge $-1 $468 5.1087718213414064 $265 32.091314562623765 $378 $475 forward 7 unknown #
point $-1 -32.091314562623765 30.959551682900209 14.768028342969048 #
point $-1 -32.091314562623765 15.352540698873753 14.768028342969046 #
edge $-1 $476 1 $476 0 $268 $-1 forward 7 unknown #
vertex $-1 $269 $477 #
ellipse-curve $-1 -24.382016636543092 20.728178444596495 5.0453000405859081 0 0.66913061440640931 0.74314481823134659 1.5 0 0 1 I I #
point $-1 -22.882016636543092 23.156046190886958 7.7417202852452345 #
edge $-1 $478 1 $478 0 $272 $-1 forward 7 unknown #
vertex $-1 $273 $479 #
ellipse-curve $-1 -12.818069747422079 20.728178444596495 5.0453000405859081 0 0.66913061440640931 0.74314481823134659 1.5 0 0 1 I I #
point $-1 -11.318069747422079 23.156046190886958 7.7417202852452345 #
loop $-1 $-1 $284 $276 #
plane-surface $-1 0 30.959551682900209 0 0 -1 0 0 0 -1 forward_v I I I I #
coedge $-1 $397 $279 $281 $401 reversed $179 $-1 #
coedge $-1 $279 $396 $480 $481 reversed $179 $-1 #
coedge $-1 $287 $282 $279 $399 forward $277 $-1 #
edge $-1 $402 -24.388398618107317 $482 -8.7813876340808612 $398 $483 forward 7 unknown #
coedge $-1 $281 $280 $405 $484 reversed $112 $-1 #
edge $-1 $485 -61.91910336580041 $402 -40.917798369594578 $396 $486 forward 7 unknown #
vertex $-1 $283 $487 #
straight-curve $-1 21.463483299783874 15.352540698873756 14.768028342969043 1 0 0 I I #
coedge $-1 $480 $284 $287 $409 reversed $394 $-1 #
coedge $-1 $284 $480 $400 $484 forward $394 $-1 #
vertex $-1 $285 $488 #
straight-curve $-1 29.435695228926569 30.959551682900209 73.570780735168157 0 0 1 I I #
straight-curve $-1 29.435695228926569 -15.055309132925501 42.147379906173441 0 0.74314481823134659 -0.66913061440640931 I I #
edge $-1 $482 -56.418237970208928 $288 -29.435695228926569 $404 $489 forward 7 unknown #
point $-1 29.435695228926569 30.959551682900209 14.768028342969048 #
point $-1 29.435695228926569 15.352540698873753 14.768028342969046 #
edge $-1 $490 1 $490 0 $291 $-1 forward 7 unknown #
vertex $-1 $292 $491 #
ellipse-curve $-1 37.144993155007242 20.728178444596495 5.0453000405859081 0 0.66913061440640931 0.74314481823134659 1.5 0 0 1 I I #
point $-1 38.644993155007242 23.156046190886958 7.7417202852452345 #
edge $-1 $492 1 $492 0 $295 $-1 forward 7 unknown #
vertex $-1 $296 $493 #
ellipse-curve $-1 48.708940044128255 20.728178444596495 5.0453000405859081 0 0.66913061440640931 0.74314481823134659 1.5 0 0 1 I I #
point $-1 50.208940044128255 23.156046190886958 7.7417202852452345 #
plane-surface $-1 70.641804254280217 0 0 -1 0 0 0 0 1 forward_v I I I I #
coedge $-1 $304 $302 $306 $425 reversed $201 $-1 #
edge $-1 $317 -14.768028342969048 $427 14.768028342969048 $316 $494 forward 7 unknown #
vertex $-1 $425 $495 #
straight-curve $-1 -70.641804254280217 -30.959551682900209 0 0 0 -1 I I #
edge $-1 $423 -30.959551682900209 $427 30.959551682900209 $421 $496 forward 7 unknown #
straight-curve $-1 0 -30.959551682900209 -14.768028342969048 -1 0 0 I I #
vertex $-1 $309 $497 #
straight-curve $-1 0 30.959551682900209 -14.768028342969048 1 0 0 I I #
point $-1 70.641804254280217 30.959551682900209 -14.768028342969048 #
point $-1 70.641804254280217 -30.959551682900209 -14.768028342969048 #
straight-curve $-1 -70.641804254280217 0 14.768028342969048 0 -1 0 I I #
point $-1 -70.641804254280217 30.959551682900209 14.768028342969048 #
point $-1 -70.641804254280217 -30.959551682900209 14.768028342969048 #
straight-curve $-1 70.641804254280217 -30.959551682900209 0 0 0 -1 I I #
straight-curve $-1 70.641804254280217 30.959551682900209 0 0 0 -1 I I #
plane-surface $-1 0 -30.959551682900209 0 0 1 0 0 0 1 forward_v I I I I #
coedge $-1 $498 $450 $330 $439 forward $327 $-1 #
coedge $-1 $440 $329 $338 $448 forward $220 $-1 #
edge $-1 $443 -4.4251804036207645 $441 4.4251804036207645 $330 $499 forward 7 unknown #
coedge $-1 $331 $438 $498 $500 forward $220 $-1 #
vertex $-1 $332 $501 #
straight-curve $-1 -79.756598717010093 30.959551682900209 -9.633061752273596 1 0 0 I I #
vertex $-1 $333 $502 #
straight-curve $-1 -79.756598717010093 30.959551682900209 -0.782700945032067 -1 0 0 I I #
point $-1 -70.641804254280217 30.959551682900209 -9.633061752273596 #
straight-curve $-1 -70.641804254280217 0 -9.633061752273596 0 1 0 I I #
coedge $-1 $338 $337 $503 $504 forward $339 $-1 #
edge $-1 $340 -9.1147944627298756 $505 9.1147944627298756 $338 $506 forward 7 unknown #
point $-1 -70.641804254280217 -30.959551682900209 -9.633061752273596 #
coedge $-1 $437 $503 $342 $451 reversed $327 $-1 #
edge $-1 $443 -30.959551682900209 $452 30.959551682900209 $450 $507 forward 7 unknown #
vertex $-1 $451 $508 #
straight-curve $-1 -79.756598717010093 -30.959551682900209 -0.782700945032067 1 0 0 I I #
coedge $-1 $349 $348 $356 $459 reversed $142 $-1 #
edge $-1 $352 45.691134351385152 $462 70.641804254280217 $349 $509 forward 7 unknown #
straight-curve $-1 45.691134351385152 -30.959551682900212 59.600673292445279 0 0 -1 I I #
point $-1 45.691134351385152 -30.959551682900209 14.768028342969048 #
straight-curve $-1 29.08323465141634 -30.959551682900209 6.3672406534775634 1 0 0 I I #
edge $-1 $462 -14.768028342969048 $357 -6.3672406534775616 $356 $510 forward 7 unknown #
point $-1 70.641804254280203 -30.959551682900209 6.3672406534775616 #
point $-1 45.691134351385152 -30.959551682900209 6.3672406534775616 #
vertex $-1 $361 $511 #
straight-curve $-1 70.641804254280217 0 14.768028342969048 0 1 0 I I #
vertex $-1 $364 $512 #
point $-1 59.666469302832681 -24.362959598567087 9.2107560180382801 #
coedge $-1 $379 $378 $371 $467 forward $368 $-1 #
edge $-1 $468 58.80275239219911 $471 72.855368507646716 $466 $513 forward 7 unknown #
vertex $-1 $383 $514 #
straight-curve $-1 -5.1087718213414064 39.74093931698107 14.768028342969046 0 1 0 I I #
edge $-1 $471 -4.1912497746498865 $380 22.791292966632472 $379 $515 forward 7 unknown #
vertex $-1 $470 $516 #
straight-curve $-1 -5.1087718213414064 -15.055309132925501 42.147379906173441 0 -0.74314481823134659 0.66913061440640931 I I #
point $-1 -5.1087718213414064 15.352540698873753 14.768028342969046 #
point $-1 -32.091314562623765 30.959551682900212 0.71541222752144051 #
straight-curve $-1 0 30.959551682900209 14.768028342969048 -1 0 0 I I #
vertex $-1 $386 $517 #
point $-1 -22.882016636543092 20.728178444596495 5.0453000405859081 #
vertex $-1 $390 $518 #
point $-1 -11.318069747422079 20.728178444596495 5.0453000405859081 #
coedge $-1 $405 $404 $397 $481 forward $394 $-1 #
edge $-1 $482 58.80275239219911 $485 72.855368507646716 $480 $519 forward 7 unknown #
vertex $-1 $409 $520 #
straight-curve $-1 56.418237970208928 39.74093931698107 14.768028342969046 0 1 0 I I #
edge $-1 $485 -34.954754670425054 $406 -7.9722119291426949 $405 $521 forward 7 unknown #
vertex $-1 $484 $522 #
straight-curve $-1 56.418237970208928 -15.055309132925501 42.147379906173441 0 -0.74314481823134659 0.66913061440640931 I I #
point $-1 56.418237970208928 15.352540698873753 14.768028342969046 #
point $-1 29.435695228926569 30.959551682900212 0.71541222752144051 #
straight-curve $-1 0 30.959551682900209 14.768028342969048 -1 0 0 I I #
vertex $-1 $412 $523 #
point $-1 38.644993155007242 20.728178444596495 5.0453000405859081 #
vertex $-1 $416 $524 #
point $-1 50.208940044128255 20.728178444596495 5.0453000405859081 #
straight-curve $-1 -70.641804254280217 30.959551682900209 0 0 0 -1 I I #
point $-1 -70.641804254280217 -30.959551682900209 -14.768028342969048 #
straight-curve $-1 -70.641804254280217 0 -14.768028342969048 0 1 0 I I #
point $-1 -70.641804254280217 30.959551682900209 -14.768028342969048 #
coedge $-1 $503 $437 $440 $500 reversed $327 $-1 #
straight-curve $-1 -88.871393179739968 30.959551682900209 -5.2078813486528315 0 0 -1 I I #
edge $-1 $505 -30.959551682900209 $441 30.959551682900209 $498 $525 forward 7 unknown #
point $-1 -88.871393179739968 30.959551682900209 -9.633061752273596 #
point $-1 -88.871393179739968 30.959551682900209 -0.782700945032067 #
coedge $-1 $450 $498 $447 $504 reversed $327 $-1 #
edge $-1 $452 -4.4251804036207645 $505 4.4251804036207645 $503 $526 forward 7 unknown #
vertex $-1 $500 $527 #
straight-curve $-1 -79.756598717010093 -30.959551682900209 -9.633061752273596 -1 0 0 I I #
straight-curve $-1 -88.871393179739968 0 -0.782700945032067 0 -1 0 I I #
point $-1 -88.871393179739968 -30.959551682900209 -0.782700945032067 #
straight-curve $-1 0 -30.959551682900209 14.768028342969048 1 0 0 I I #
straight-curve $-1 70.641804254280217 -30.959551682900209 0 0 0 -1 I I #
point $-1 70.641804254280217 -30.959551682900209 14.768028342969048 #
point $-1 58.166469302832681 -23.46023705241069 8.0128027615792004 #
straight-curve $-1 -5.1087718213414064 30.959551682900209 73.570780735168157 0 0 -1 I I #
point $-1 -5.1087718213414064 30.959551682900209 14.768028342969048 #
straight-curve $-1 -9.3000215959912929 30.959551682900205 0.71541222752144051 -1 0 0 I I #
point $-1 -5.1087718213414064 30.959551682900212 0.71541222752144051 #
point $-1 -24.382016636543092 19.724482522986882 3.930582813238888 #
point $-1 -12.818069747422079 19.724482522986882 3.930582813238888 #
straight-curve $-1 56.418237970208928 30.959551682900209 73.570780735168157 0 0 -1 I I #
point $-1 56.418237970208928 30.959551682900209 14.768028342969048 #
straight-curve $-1 21.463483299783874 30.959551682900205 0.71541222752144051 -1 0 0 I I #
point $-1 56.418237970208928 30.959551682900212 0.71541222752144051 #
point $-1 37.144993155007242 19.724482522986882 3.930582813238888 #
point $-1 48.708940044128255 19.724482522986882 3.930582813238888 #
straight-curve $-1 -88.871393179739968 0 -9.633061752273596 0 1 0 I I #
straight-curve $-1 -88.871393179739968 -30.959551682900209 -5.2078813486528315 0 0 -1 I I #
point $-1 -88.871393179739968 -30.959551682900209 -9.633061752273596 #
End-of-ACIS-data 