500 0 6 0           
7 Unknown 11 ACIS 5.0 NT 24 Fri Mar 26 18:52:24 1999 
-1 9.9999999999999995e-007 1e-010 
body $-1 $6 $-1 $7 #
body $-1 $8 $-1 $9 #
body $-1 $10 $-1 $11 #
body $-1 $12 $-1 $13 #
body $-1 $14 $-1 $15 #
body $-1 $16 $-1 $17 #
lump $-1 $-1 $18 $0 #
transform $-1 1 0 0 0 1 0 0 0 1 69.930112613299968 33.66257674709626 7.2071425797777975 1 rotate no_reflect no_shear #
lump $-1 $-1 $19 $1 #
transform $-1 1 0 0 0 1 0 0 0 1 69.930112613299968 33.66257674709626 7.2071425797777975 1 rotate no_reflect no_shear #
lump $-1 $-1 $20 $2 #
transform $-1 1 0 0 0 1 0 0 0 1 69.930112613299968 33.66257674709626 7.2071425797777975 1 rotate no_reflect no_shear #
lump $-1 $-1 $21 $3 #
transform $-1 1 0 0 0 1 0 0 0 1 69.930112613299968 33.66257674709626 7.2071425797777975 1 rotate no_reflect no_shear #
lump $-1 $-1 $22 $4 #
transform $-1 1 0 0 0 1 0 0 0 1 69.930112613299968 33.66257674709626 7.2071425797777975 1 rotate no_reflect no_shear #
lump $-1 $-1 $23 $5 #
transform $-1 1 0 0 0 1 0 0 0 1 69.930112613299968 33.66257674709626 7.2071425797777975 1 rotate no_reflect no_shear #
shell $-1 $-1 $-1 $24 $-1 $6 #
shell $-1 $-1 $-1 $25 $-1 $8 #
shell $-1 $-1 $-1 $26 $-1 $10 #
shell $-1 $-1 $-1 $27 $-1 $12 #
shell $-1 $-1 $-1 $28 $-1 $14 #
shell $-1 $-1 $-1 $29 $-1 $16 #
face $-1 $30 $31 $18 $-1 $32 reversed single #
face $-1 $33 $34 $19 $-1 $35 forward single #
face $-1 $36 $37 $20 $-1 $38 reversed single #
face $-1 $39 $40 $21 $-1 $41 forward single #
face $-1 $42 $43 $22 $-1 $44 reversed single #
face $-1 $45 $46 $23 $-1 $47 forward single #
face $-1 $48 $49 $18 $-1 $50 forward single #
loop $-1 $-1 $51 $24 #
plane-surface $-1 0 -33.66257674709626 0 0 1 0 0 0 1 forward_v I I I I #
face $-1 $52 $53 $19 $-1 $54 reversed single #
loop $-1 $-1 $55 $25 #
plane-surface $-1 0 -33.66257674709626 0 0 1 0 0 0 1 forward_v I I I I #
face $-1 $56 $57 $20 $-1 $58 reversed single #
loop $-1 $-1 $59 $26 #
plane-surface $-1 121.12251098084596 9.341326910845936 194.40439013515433 0 -1 0 -0.86602541151947299 0 -0.49999998660252726 forward_v I I I I #
face $-1 $60 $61 $21 $-1 $62 forward single #
loop $-1 $63 $64 $27 #
cone-surface $-1 68.263352409711516 4.4529705556116923 4.9597140189541289 -0.86602541151947299 0 -0.49999998660252726 0.49999998660252726 0 -0.86602541151947299 1 I I 0 1 1 forward I I I I #
face $-1 $65 $66 $22 $-1 $67 reversed single #
loop $-1 $-1 $68 $28 #
plane-surface $-1 -191.05262172037237 -0.43538579962255142 73.281881028081941 0 1 0 -0.86602541151947299 0 0.49999998660252726 forward_v I I I I #
face $-1 $69 $70 $23 $-1 $71 forward single #
loop $-1 $72 $73 $29 #
cone-surface $-1 -68.26335240971153 4.4529705556116923 4.9597140189541253 0.86602541151947299 0 -0.49999998660252726 0.49999998660252726 0 0.86602541151947299 1 I I 0 1 1 forward I I I I #
face $-1 $74 $75 $18 $-1 $76 reversed single #
loop $-1 $-1 $77 $30 #
plane-surface $-1 0 0 7.2071425797777975 0 0 1 1 0 0 forward_v I I I I #
coedge $-1 $78 $79 $80 $81 reversed $31 $-1 #
face $-1 $82 $83 $19 $-1 $84 reversed single #
loop $-1 $-1 $85 $33 #
plane-surface $-1 0 0 -7.2071425797777975 0 0 1 1 0 0 forward_v I I I I #
coedge $-1 $86 $87 $88 $89 forward $34 $-1 #
face $-1 $90 $91 $20 $-1 $92 reversed single #
loop $-1 $-1 $93 $36 #
plane-surface $-1 1.8737735700824487e-006 4.4529705556116923 124.47427939562792 0.86602541151947299 0 0.49999998660252726 0.49999998660252726 0 -0.86602541151947299 forward_v I I I I #
coedge $-1 $94 $95 $96 $97 reversed $37 $-1 #
face $-1 $-1 $98 $21 $-1 $99 forward single #
loop $-1 $100 $101 $39 #
cone-surface $-1 67.276529575683128 4.4529705556116923 4.3899716104403241 -0.86602541151947299 0 -0.49999998660252726 0.24999999330126363 0 -0.43301270575973649 1 I I -0.70710678118654746 0.70710678118654746 0.5 forward I I I I #
loop $-1 $-1 $102 $27 #
coedge $-1 $64 $64 $103 $104 reversed $40 $-1 #
face $-1 $105 $106 $22 $-1 $107 reversed single #
loop $-1 $-1 $108 $42 #
plane-surface $-1 -69.930112613299983 4.4529705556116923 3.3517702885555281 -0.86602541151947299 0 0.49999998660252726 0.49999998660252726 0 0.86602541151947299 forward_v I I I I #
coedge $-1 $109 $110 $111 $112 reversed $43 $-1 #
face $-1 $-1 $113 $23 $-1 $114 forward single #
loop $-1 $115 $116 $45 #
cone-surface $-1 -67.276529575683142 4.4529705556116923 4.3899716104403206 0.86602541151947299 0 -0.49999998660252726 0.24999999330126363 0 0.43301270575973649 1 I I -0.70710678118654746 0.70710678118654746 0.5 forward I I I I #
loop $-1 $-1 $117 $29 #
coedge $-1 $73 $73 $118 $119 reversed $46 $-1 #
face $-1 $120 $121 $18 $-1 $122 reversed single #
loop $-1 $-1 $123 $48 #
plane-surface $-1 0 0 -7.2071425797777975 0 0 1 1 0 0 forward_v I I I I #
coedge $-1 $124 $125 $126 $127 forward $49 $-1 #
coedge $-1 $128 $51 $129 $130 reversed $31 $-1 #
coedge $-1 $51 $128 $131 $132 forward $31 $-1 #
coedge $-1 $133 $123 $51 $81 forward $75 $-1 #
edge $-1 $134 -69.930112613299968 $135 69.930112613299968 $51 $136 forward 7 unknown #
face $-1 $137 $138 $19 $-1 $139 reversed single #
loop $-1 $-1 $140 $52 #
plane-surface $-1 -57.015827453744372 -41.35806828723593 0 0 1 0 0 0 1 forward_v I I I I #
coedge $-1 $141 $142 $87 $143 forward $53 $-1 #
coedge $-1 $144 $55 $145 $146 reversed $34 $-1 #
coedge $-1 $55 $144 $85 $143 reversed $34 $-1 #
coedge $-1 $147 $148 $55 $89 reversed $138 $-1 #
edge $-1 $149 -7.2071425797777975 $150 7.2071425797777975 $88 $151 forward 7 unknown #
face $-1 $152 $153 $20 $-1 $154 forward single #
loop $-1 $-1 $155 $56 #
plane-surface $-1 121.12251098084596 -0.43538579962255142 194.40439013515433 0 1 0 0.86602541151947299 0 0.49999998660252726 forward_v I I I I #
coedge $-1 $156 $157 $158 $159 reversed $57 $-1 #
coedge $-1 $95 $59 $160 $161 reversed $37 $-1 #
coedge $-1 $59 $94 $156 $162 reversed $37 $-1 #
coedge $-1 $158 $163 $59 $97 forward $153 $-1 #
edge $-1 $164 -9.3688571228769888 $165 -7.1429569722374282 $96 $166 forward 7 unknown #
loop $-1 $-1 $103 $60 #
plane-surface $-1 1.8737735700824487e-006 4.4529705556116923 124.47427939562792 0.86602541151947299 0 0.49999998660252726 0.49999998660252726 0 -0.86602541151947299 forward_v I I I I #
loop $-1 $-1 $167 $39 #
coedge $-1 $101 $101 $102 $168 reversed $61 $-1 #
coedge $-1 $102 $102 $101 $168 forward $63 $-1 #
coedge $-1 $103 $103 $64 $104 forward $98 $-1 #
edge $-1 $169 0 $169 6.2831853071796004 $103 $170 forward 7 unknown #
face $-1 $171 $172 $22 $-1 $173 reversed single #
loop $-1 $-1 $174 $65 #
plane-surface $-1 -191.05262172037237 9.341326910845936 73.281881028081941 0 -1 0 0.86602541151947299 0 -0.49999998660252726 forward_v I I I I #
coedge $-1 $175 $176 $177 $178 reversed $66 $-1 #
coedge $-1 $110 $68 $179 $180 reversed $43 $-1 #
coedge $-1 $68 $109 $175 $181 reversed $43 $-1 #
coedge $-1 $177 $182 $68 $112 forward $183 $-1 #
edge $-1 $184 25.596198246886217 $185 27.822098397525778 $111 $186 forward 7 unknown #
loop $-1 $-1 $118 $69 #
plane-surface $-1 -69.930112613299983 4.4529705556116923 3.3517702885555281 -0.86602541151947299 0 0.49999998660252726 0.49999998660252726 0 0.86602541151947299 forward_v I I I I #
loop $-1 $-1 $187 $45 #
coedge $-1 $116 $116 $117 $188 reversed $70 $-1 #
coedge $-1 $117 $117 $116 $188 forward $72 $-1 #
coedge $-1 $118 $118 $73 $119 forward $113 $-1 #
edge $-1 $189 0 $189 6.2831853071796004 $118 $190 forward 7 unknown #
face $-1 $191 $192 $18 $-1 $193 reversed single #
loop $-1 $-1 $194 $74 #
plane-surface $-1 -69.930112613299968 0 0 1 0 0 0 0 -1 forward_v I I I I #
coedge $-1 $80 $195 $196 $197 forward $75 $-1 #
coedge $-1 $198 $77 $199 $200 forward $49 $-1 #
coedge $-1 $77 $198 $128 $201 forward $49 $-1 #
coedge $-1 $129 $202 $77 $127 reversed $203 $-1 #
edge $-1 $204 -33.66257674709626 $205 33.66257674709626 $126 $206 forward 7 unknown #
coedge $-1 $79 $78 $125 $201 reversed $31 $-1 #
coedge $-1 $196 $126 $78 $130 forward $203 $-1 #
edge $-1 $204 -7.2071425797777975 $134 7.2071425797777975 $129 $207 forward 7 unknown #
coedge $-1 $208 $209 $79 $132 reversed $121 $-1 #
edge $-1 $210 -7.2071425797777975 $135 7.2071425797777975 $131 $211 forward 7 unknown #
coedge $-1 $195 $80 $209 $212 forward $75 $-1 #
vertex $-1 $130 $213 #
vertex $-1 $212 $214 #
straight-curve $-1 0 -33.66257674709626 -7.2071425797777975 -1 0 0 I I #
face $-1 $215 $216 $19 $-1 $217 reversed single #
loop $-1 $-1 $88 $82 #
plane-surface $-1 -58.515827453744372 -37.510322517166095 0 1 0 0 0 0 -1 forward_v I I I I #
coedge $-1 $218 $219 $220 $221 forward $83 $-1 #
coedge $-1 $222 $85 $223 $224 forward $53 $-1 #
coedge $-1 $85 $222 $147 $225 forward $53 $-1 #
edge $-1 $149 -58.515827453744372 $226 -55.515827453744372 $85 $227 forward 7 unknown #
coedge $-1 $87 $86 $228 $229 forward $34 $-1 #
coedge $-1 $230 $231 $86 $146 forward $232 $-1 #
edge $-1 $233 55.515827453744372 $150 58.515827453744372 $145 $234 forward 7 unknown #
coedge $-1 $220 $88 $142 $225 reversed $138 $-1 #
coedge $-1 $88 $220 $230 $235 reversed $138 $-1 #
vertex $-1 $143 $236 #
vertex $-1 $235 $237 #
straight-curve $-1 -58.515827453744372 -33.66257674709626 0 0 0 1 I I #
face $-1 $-1 $238 $20 $-1 $239 reversed single #
loop $-1 $-1 $96 $90 #
plane-surface $-1 0 0 7.2071425797777975 0 0 1 1 0 0 forward_v I I I I #
coedge $-1 $240 $241 $242 $243 reversed $91 $-1 #
coedge $-1 $244 $93 $95 $162 forward $57 $-1 #
coedge $-1 $93 $244 $240 $245 forward $57 $-1 #
coedge $-1 $242 $96 $93 $159 forward $153 $-1 #
edge $-1 $165 -7.1148416330400899 $246 2.6618710774283976 $158 $247 forward 7 unknown #
coedge $-1 $248 $249 $94 $161 forward $238 $-1 #
edge $-1 $250 -93.850424779021608 $164 -89.99505248779937 $160 $251 forward 7 unknown #
edge $-1 $165 135.40842480603504 $250 139.86022522659991 $95 $252 forward 7 unknown #
coedge $-1 $96 $242 $248 $253 forward $153 $-1 #
vertex $-1 $97 $254 #
vertex $-1 $97 $255 #
straight-curve $-1 60.56125549042298 9.341326910845936 7.2071425797777948 -1 0 0 I I #
coedge $-1 $167 $167 $-1 $256 reversed $100 $-1 #
edge $-1 $257 0 $257 6.2831853071796004 $101 $258 forward 7 unknown #
vertex $-1 $104 $259 #
ellipse-curve $-1 68.817162537980181 4.4529705556116923 5.2794564341666792 0.86602541151947299 0 0.49999998660252726 0.49999998660252726 0 -0.86602541151947299 1 I I #
face $-1 $-1 $183 $22 $-1 $260 forward single #
loop $-1 $-1 $261 $105 #
plane-surface $-1 -69.930112613299968 0 0 1 0 0 0 0 -1 forward_v I I I I #
coedge $-1 $262 $263 $264 $265 reversed $106 $-1 #
coedge $-1 $266 $108 $110 $181 forward $66 $-1 #
coedge $-1 $108 $266 $262 $267 forward $66 $-1 #
coedge $-1 $264 $111 $108 $178 forward $183 $-1 #
edge $-1 $185 -2.6618710774283976 $268 7.1148416330400899 $177 $269 forward 7 unknown #
coedge $-1 $270 $271 $109 $180 forward $172 $-1 #
edge $-1 $272 -33.289170225485421 $184 -29.433797934263172 $179 $273 forward 7 unknown #
edge $-1 $185 -4.45180042056489 $272 -2.8258016906358157e-014 $110 $274 forward 7 unknown #
coedge $-1 $111 $264 $270 $275 forward $183 $-1 #
loop $-1 $-1 $264 $171 #
vertex $-1 $180 $276 #
vertex $-1 $112 $277 #
straight-curve $-1 -95.526310860186186 -0.43538579962255142 7.2071425797777948 1 0 0 I I #
coedge $-1 $187 $187 $-1 $278 reversed $115 $-1 #
edge $-1 $279 0 $279 6.2831853071796004 $116 $280 forward 7 unknown #
vertex $-1 $119 $281 #
ellipse-curve $-1 -68.817162537980195 4.4529705556116923 5.2794564341666712 -0.86602541151947299 0 0.49999998660252726 0.49999998660252726 0 0.86602541151947299 1 I I #
face $-1 $-1 $203 $18 $-1 $282 reversed single #
loop $-1 $-1 $283 $120 #
plane-surface $-1 0 33.66257674709626 0 0 -1 0 0 0 -1 forward_v I I I I #
coedge $-1 $209 $208 $284 $285 forward $121 $-1 #
coedge $-1 $123 $133 $286 $287 forward $75 $-1 #
coedge $-1 $202 $129 $123 $197 reversed $203 $-1 #
edge $-1 $288 -33.66257674709626 $134 33.66257674709626 $196 $289 forward 7 unknown #
coedge $-1 $125 $124 $208 $290 forward $49 $-1 #
coedge $-1 $283 $284 $124 $200 reversed $192 $-1 #
edge $-1 $205 -69.930112613299968 $291 69.930112613299968 $199 $292 forward 7 unknown #
edge $-1 $210 -69.930112613299968 $204 69.930112613299968 $128 $293 forward 7 unknown #
coedge $-1 $126 $196 $283 $294 reversed $203 $-1 #
loop $-1 $-1 $129 $191 #
vertex $-1 $127 $295 #
vertex $-1 $127 $296 #
straight-curve $-1 69.930112613299968 0 7.2071425797777975 0 1 0 I I #
straight-curve $-1 69.930112613299968 -33.66257674709626 0 0 0 -1 I I #
coedge $-1 $194 $131 $198 $290 reversed $121 $-1 #
coedge $-1 $131 $194 $133 $212 reversed $121 $-1 #
vertex $-1 $290 $297 #
straight-curve $-1 -69.930112613299968 -33.66257674709626 0 0 0 -1 I I #
edge $-1 $135 -33.66257674709626 $298 33.66257674709626 $209 $299 forward 7 unknown #
point $-1 69.930112613299968 -33.66257674709626 -7.2071425797777975 #
point $-1 -69.930112613299968 -33.66257674709626 -7.2071425797777975 #
face $-1 $-1 $232 $19 $-1 $300 forward single #
loop $-1 $-1 $301 $137 #
plane-surface $-1 -55.515827453744372 -37.510322517166095 0 -1 0 0 0 0 1 forward_v I I I I #
coedge $-1 $302 $140 $222 $303 reversed $83 $-1 #
coedge $-1 $140 $302 $304 $305 reversed $83 $-1 #
coedge $-1 $148 $147 $140 $221 reversed $138 $-1 #
edge $-1 $306 -7.2071425797777975 $307 7.2071425797777975 $220 $308 forward 7 unknown #
coedge $-1 $142 $141 $218 $303 forward $53 $-1 #
coedge $-1 $228 $301 $141 $224 reversed $216 $-1 #
edge $-1 $226 -3.8477457700698352 $309 3.8477457700698352 $223 $310 forward 7 unknown #
edge $-1 $307 -3.8477457700698352 $149 3.8477457700698352 $147 $311 forward 7 unknown #
vertex $-1 $224 $312 #
straight-curve $-1 0 -33.66257674709626 -7.2071425797777975 1 0 0 I I #
coedge $-1 $313 $223 $144 $229 reversed $216 $-1 #
edge $-1 $233 -7.2071425797777975 $226 7.2071425797777975 $228 $314 forward 7 unknown #
coedge $-1 $304 $145 $148 $235 forward $232 $-1 #
coedge $-1 $145 $304 $313 $315 forward $232 $-1 #
loop $-1 $-1 $145 $215 #
vertex $-1 $146 $316 #
straight-curve $-1 0 -33.66257674709626 7.2071425797777975 -1 0 0 I I #
edge $-1 $150 -3.8477457700698352 $306 3.8477457700698352 $148 $317 forward 7 unknown #
point $-1 -58.515827453744372 -33.66257674709626 -7.2071425797777975 #
point $-1 -58.515827453744372 -33.66257674709626 7.2071425797777975 #
loop $-1 $-1 $160 $152 #
plane-surface $-1 69.930112613299968 0 0 -1 0 0 0 0 1 forward_v I I I I #
coedge $-1 $241 $155 $157 $245 reversed $91 $-1 #
coedge $-1 $155 $240 $318 $319 reversed $91 $-1 #
coedge $-1 $163 $158 $155 $243 forward $153 $-1 #
edge $-1 $246 7.1429569722374282 $320 9.3688571228769888 $242 $321 forward 7 unknown #
coedge $-1 $157 $156 $249 $322 reversed $57 $-1 #
edge $-1 $323 -139.86022522659991 $246 -135.40842480603504 $240 $324 forward 7 unknown #
vertex $-1 $159 $325 #
straight-curve $-1 67.704212462660422 2.2264852778058462 7.2071425797777948 0 -1 0 I I #
coedge $-1 $318 $160 $163 $253 reversed $238 $-1 #
coedge $-1 $160 $318 $244 $322 forward $238 $-1 #
vertex $-1 $161 $326 #
straight-curve $-1 69.930112613299968 9.341326910845936 97.202195067577165 0 0 1 I I #
straight-curve $-1 1.8737735700824487e-006 9.341326910845936 124.47427939562792 0.49999998660252726 0 -0.86602541151947299 I I #
edge $-1 $320 -0.43538579962255142 $164 9.341326910845936 $248 $327 forward 7 unknown #
point $-1 69.930112613299968 9.341326910845936 7.2071425797777975 #
point $-1 67.704212462660408 9.341326910845936 7.207142579777809 #
edge $-1 $328 1 $328 0 $167 $-1 forward 7 unknown #
vertex $-1 $168 $329 #
ellipse-curve $-1 67.709542281442864 4.4529705556116923 4.6399716037415875 0.86602541151947299 0 0.49999998660252726 0.49999998660252726 0 -0.86602541151947299 1 I I #
point $-1 69.317162524582699 4.4529705556116923 4.413431022647198 #
plane-surface $-1 0 0 7.2071425797777975 0 0 1 1 0 0 forward_v I I I I #
coedge $-1 $271 $270 $263 $330 forward $172 $-1 #
coedge $-1 $263 $174 $176 $267 reversed $106 $-1 #
coedge $-1 $174 $262 $261 $330 reversed $106 $-1 #
coedge $-1 $182 $177 $174 $265 forward $183 $-1 #
edge $-1 $268 -27.822098397525778 $331 -25.596198246886217 $264 $332 forward 7 unknown #
coedge $-1 $176 $175 $271 $333 reversed $66 $-1 #
edge $-1 $334 2.8258016906358157e-014 $268 4.45180042056489 $262 $335 forward 7 unknown #
vertex $-1 $178 $336 #
straight-curve $-1 -67.704212462660408 2.2264852778058462 7.2071425797777984 0 1 0 I I #
coedge $-1 $261 $179 $182 $275 reversed $172 $-1 #
coedge $-1 $179 $261 $266 $333 forward $172 $-1 #
vertex $-1 $180 $337 #
straight-curve $-1 -69.930112613299968 -0.43538579962255142 36.64094051404097 0 0 1 I I #
straight-curve $-1 -69.930112613299983 -0.43538579962255142 3.3517702885555281 -0.49999998660252726 0 -0.86602541151947299 I I #
edge $-1 $331 -9.341326910845936 $184 0.43538579962255142 $270 $338 forward 7 unknown #
point $-1 -69.930112613299968 -0.43538579962255142 7.2071425797777975 #
point $-1 -67.704212462660408 -0.43538579962255142 7.2071425797777975 #
edge $-1 $339 1 $339 0 $187 $-1 forward 7 unknown #
vertex $-1 $188 $340 #
ellipse-curve $-1 -67.709542281442879 4.4529705556116923 4.6399716037415839 -0.86602541151947299 0 0.49999998660252726 0.49999998660252726 0 0.86602541151947299 1 I I #
point $-1 -68.317162551377663 4.4529705556116923 6.14548184568614 #
plane-surface $-1 69.930112613299968 0 0 -1 0 0 0 0 1 forward_v I I I I #
coedge $-1 $286 $199 $202 $294 forward $192 $-1 #
coedge $-1 $199 $286 $194 $285 reversed $192 $-1 #
edge $-1 $291 -7.2071425797777975 $298 7.2071425797777975 $284 $341 forward 7 unknown #
coedge $-1 $284 $283 $195 $287 reversed $192 $-1 #
edge $-1 $298 -69.930112613299968 $288 69.930112613299968 $286 $342 forward 7 unknown #
vertex $-1 $197 $343 #
straight-curve $-1 69.930112613299968 0 -7.2071425797777975 0 -1 0 I I #
edge $-1 $291 -33.66257674709626 $210 33.66257674709626 $208 $344 forward 7 unknown #
vertex $-1 $200 $345 #
straight-curve $-1 0 33.66257674709626 7.2071425797777975 -1 0 0 I I #
straight-curve $-1 0 -33.66257674709626 7.2071425797777975 1 0 0 I I #
edge $-1 $205 -7.2071425797777975 $288 7.2071425797777975 $202 $346 forward 7 unknown #
point $-1 69.930112613299968 -33.66257674709626 7.2071425797777975 #
point $-1 69.930112613299968 33.66257674709626 7.2071425797777975 #
point $-1 -69.930112613299968 -33.66257674709626 7.2071425797777975 #
vertex $-1 $287 $347 #
straight-curve $-1 -69.930112613299968 0 -7.2071425797777975 0 1 0 I I #
plane-surface $-1 0 0 7.2071425797777975 0 0 1 1 0 0 forward_v I I I I #
coedge $-1 $223 $313 $302 $348 forward $216 $-1 #
coedge $-1 $219 $218 $301 $348 reversed $83 $-1 #
edge $-1 $309 -1.5 $307 1.5 $218 $349 forward 7 unknown #
coedge $-1 $231 $230 $219 $305 forward $232 $-1 #
edge $-1 $306 -1.5 $350 1.5 $219 $351 forward 7 unknown #
vertex $-1 $235 $352 #
vertex $-1 $225 $353 #
straight-curve $-1 -58.515827453744372 -41.35806828723593 0 0 0 -1 I I #
vertex $-1 $348 $354 #
straight-curve $-1 -55.515827453744372 -37.510322517166095 -7.2071425797777975 0 -1 0 I I #
straight-curve $-1 -58.515827453744372 -37.510322517166095 -7.2071425797777975 0 1 0 I I #
point $-1 -55.515827453744372 -33.66257674709626 -7.2071425797777975 #
coedge $-1 $301 $228 $231 $315 reversed $216 $-1 #
straight-curve $-1 -55.515827453744372 -33.66257674709626 0 0 0 -1 I I #
edge $-1 $350 -3.8477457700698352 $233 3.8477457700698352 $313 $355 forward 7 unknown #
point $-1 -55.515827453744372 -33.66257674709626 7.2071425797777975 #
straight-curve $-1 -58.515827453744372 -37.510322517166095 7.2071425797777975 0 -1 0 I I #
coedge $-1 $249 $248 $241 $319 forward $238 $-1 #
edge $-1 $320 89.99505248779937 $323 93.850424779021608 $318 $356 forward 7 unknown #
vertex $-1 $253 $357 #
straight-curve $-1 60.56125549042298 -0.43538579962255142 7.2071425797777948 1 0 0 I I #
edge $-1 $323 -2.6618710774283976 $250 7.1148416330400899 $249 $358 forward 7 unknown #
vertex $-1 $322 $359 #
straight-curve $-1 1.8737735700824487e-006 -0.43538579962255142 124.47427939562792 -0.49999998660252726 0 0.86602541151947299 I I #
point $-1 67.704212462660408 -0.43538579962255142 7.207142579777809 #
point $-1 69.930112613299968 9.341326910845936 3.3517702885555565 #
straight-curve $-1 69.930112613299968 0 7.2071425797777975 0 1 0 I I #
vertex $-1 $256 $360 #
point $-1 68.209542268045396 4.4529705556116923 3.7739461922221147 #
edge $-1 $331 29.433797934263172 $334 33.289170225485421 $261 $361 forward 7 unknown #
vertex $-1 $275 $362 #
straight-curve $-1 -95.526310860186186 9.341326910845936 7.2071425797777948 -1 0 0 I I #
edge $-1 $334 -7.1148416330400899 $272 2.6618710774283976 $271 $363 forward 7 unknown #
vertex $-1 $333 $364 #
straight-curve $-1 -69.930112613299983 9.341326910845936 3.3517702885555281 0.49999998660252726 0 0.86602541151947299 I I #
point $-1 -67.704212462660408 9.341326910845936 7.2071425797777975 #
point $-1 -69.930112613299968 -0.43538579962255142 3.3517702885555525 #
straight-curve $-1 -69.930112613299968 0 7.2071425797777975 0 -1 0 I I #
vertex $-1 $278 $365 #
point $-1 -67.209542294840347 4.4529705556116923 5.5059970152610571 #
straight-curve $-1 -69.930112613299968 33.66257674709626 0 0 0 -1 I I #
straight-curve $-1 0 33.66257674709626 -7.2071425797777975 1 0 0 I I #
point $-1 69.930112613299968 33.66257674709626 -7.2071425797777975 #
straight-curve $-1 -69.930112613299968 0 7.2071425797777975 0 -1 0 I I #
point $-1 -69.930112613299968 33.66257674709626 7.2071425797777975 #
straight-curve $-1 69.930112613299968 33.66257674709626 0 0 0 -1 I I #
point $-1 -69.930112613299968 33.66257674709626 -7.2071425797777975 #
edge $-1 $350 -7.2071425797777975 $309 7.2071425797777975 $301 $366 forward 7 unknown #
straight-curve $-1 -57.015827453744372 -41.35806828723593 -7.2071425797777975 -1 0 0 I I #
vertex $-1 $315 $367 #
straight-curve $-1 -57.015827453744372 -41.35806828723593 7.2071425797777975 1 0 0 I I #
point $-1 -58.515827453744372 -41.35806828723593 7.2071425797777975 #
point $-1 -58.515827453744372 -41.35806828723593 -7.2071425797777975 #
point $-1 -55.515827453744372 -41.35806828723593 -7.2071425797777975 #
straight-curve $-1 -55.515827453744372 -37.510322517166095 7.2071425797777975 0 1 0 I I #
straight-curve $-1 69.930112613299968 -0.43538579962255142 97.202195067577165 0 0 -1 I I #
point $-1 69.930112613299968 -0.43538579962255142 7.2071425797777975 #
straight-curve $-1 69.930112613299968 2.2264852778058462 3.3517702885555423 0 1 0 I I #
point $-1 69.930112613299968 -0.43538579962255142 3.3517702885555565 #
point $-1 66.843516869923391 4.4529705556116923 4.1399716171390608 #
straight-curve $-1 -69.930112613299968 9.341326910845936 36.64094051404097 0 0 -1 I I #
point $-1 -69.930112613299968 9.341326910845936 7.2071425797777975 #
straight-curve $-1 -69.930112613299968 2.2264852778058462 3.3517702885555485 0 -1 0 I I #
point $-1 -69.930112613299968 9.341326910845936 3.3517702885555525 #
point $-1 -66.843516869923405 4.4529705556116923 4.1399716171390573 #
straight-curve $-1 -55.515827453744372 -41.35806828723593 0 0 0 -1 I I #
point $-1 -55.515827453744372 -41.35806828723593 7.2071425797777975 #
End-of-ACIS-data 