500 0 6 0           
7 Unknown 11 ACIS 5.0 NT 24 Thu Mar 25 15:39:59 1999 
-1 9.9999999999999995e-007 1e-010 
body $-1 $6 $-1 $7 #
body $-1 $8 $-1 $9 #
body $-1 $10 $-1 $11 #
body $-1 $12 $-1 $13 #
body $-1 $14 $-1 $15 #
body $-1 $16 $-1 $17 #
lump $-1 $-1 $18 $0 #
transform $-1 1 0 0 0 1 0 0 0 1 50.559404278695027 21.328239435489667 10.4530308768705 1 rotate no_reflect no_shear #
lump $-1 $-1 $19 $1 #
transform $-1 1 0 0 0 1 0 0 0 1 50.559404278695027 21.328239435489667 10.4530308768705 1 rotate no_reflect no_shear #
lump $-1 $-1 $20 $2 #
transform $-1 1 0 0 0 1 0 0 0 1 50.559404278695027 21.328239435489667 10.4530308768705 1 rotate no_reflect no_shear #
lump $-1 $-1 $21 $3 #
transform $-1 1 0 0 0 1 0 0 0 1 50.559404278695027 21.328239435489667 10.4530308768705 1 rotate no_reflect no_shear #
lump $-1 $-1 $22 $4 #
transform $-1 1 0 0 0 1 0 0 0 1 50.559404278695027 21.328239435489667 10.4530308768705 1 rotate no_reflect no_shear #
lump $-1 $-1 $23 $5 #
transform $-1 1 0 0 0 1 0 0 0 1 50.559404278695027 21.328239435489667 10.4530308768705 1 rotate no_reflect no_shear #
shell $-1 $-1 $-1 $24 $-1 $6 #
shell $-1 $-1 $-1 $25 $-1 $8 #
shell $-1 $-1 $-1 $26 $-1 $10 #
shell $-1 $-1 $-1 $27 $-1 $12 #
shell $-1 $-1 $-1 $28 $-1 $14 #
shell $-1 $-1 $-1 $29 $-1 $16 #
face $-1 $30 $31 $18 $-1 $32 forward single #
face $-1 $33 $34 $19 $-1 $35 forward single #
face $-1 $36 $37 $20 $-1 $38 forward single #
face $-1 $39 $40 $21 $-1 $41 reversed single #
face $-1 $42 $43 $22 $-1 $44 forward single #
face $-1 $45 $46 $23 $-1 $47 forward single #
face $-1 $48 $49 $18 $-1 $50 reversed single #
loop $-1 $-1 $51 $24 #
plane-surface $-1 0 0 10.4530308768705 0 0 1 1 0 0 forward_v I I I I #
face $-1 $52 $53 $19 $-1 $54 reversed single #
loop $-1 $-1 $55 $25 #
plane-surface $-1 0 -14.555988476231994 9.7016396933201641 0 0 1 1 0 0 forward_v I I I I #
face $-1 $56 $57 $20 $-1 $58 reversed single #
loop $-1 $-1 $59 $26 #
plane-surface $-1 0 14.555988476231992 9.7016396933201641 0 0 1 1 0 0 forward_v I I I I #
face $-1 $60 $61 $21 $-1 $62 reversed single #
loop $-1 $-1 $63 $27 #
plane-surface $-1 15.963705702996535 1.9317408607456983 143.24392277783841 0 1 0 0.51503808176128008 0 0.85716729658548041 forward_v I I I I #
face $-1 $64 $65 $22 $-1 $66 forward single #
loop $-1 $67 $68 $28 #
cone-surface $-1 45.338270751680462 3.6037399053824473 7.0420067018281731 -0.51503808176128008 0 -0.85716729658548041 0.4285836482927402 0 -0.25751904088064004 1 I I 0 1 0.5 forward I I I I #
face $-1 $69 $70 $23 $-1 $71 forward single #
loop $-1 $72 $73 $29 #
cone-surface $-1 45.338270751680462 6.1117384723375707 7.0420067018281731 -0.51503808176128008 0 -0.85716729658548041 0.4285836482927402 0 -0.25751904088064004 1 I I 0 1 0.5 forward I I I I #
face $-1 $74 $75 $18 $-1 $76 reversed single #
loop $-1 $-1 $77 $30 #
plane-surface $-1 0 0 -10.4530308768705 0 0 1 1 0 0 forward_v I I I I #
coedge $-1 $78 $79 $80 $81 forward $31 $-1 #
face $-1 $82 $83 $19 $-1 $84 reversed single #
loop $-1 $-1 $85 $33 #
plane-surface $-1 0 -14.555988476231994 6.7016396933201641 0 0 1 1 0 0 forward_v I I I I #
coedge $-1 $86 $87 $88 $89 reversed $34 $-1 #
face $-1 $90 $91 $20 $-1 $92 reversed single #
loop $-1 $-1 $93 $36 #
plane-surface $-1 0 14.555988476231992 6.7016396933201641 0 0 1 1 0 0 forward_v I I I I #
coedge $-1 $94 $95 $96 $97 reversed $37 $-1 #
face $-1 $98 $99 $21 $-1 $100 forward single #
loop $-1 $-1 $101 $39 #
plane-surface $-1 -36.11633148638775 4.857739188860009 56.568187012755629 0.51503808176128008 0 0.85716729658548041 0.85716729658548041 0 -0.51503808176128008 forward_v I I I I #
coedge $-1 $102 $103 $104 $105 reversed $40 $-1 #
face $-1 $-1 $106 $22 $-1 $107 forward single #
loop $-1 $108 $109 $42 #
cone-surface $-1 44.951992190359505 3.6037399053824473 6.399131229389063 -0.51503808176128008 0 -0.85716729658548041 0.2142918241463701 0 -0.12875952044032002 1 I I -0.70710678118654746 0.70710678118654746 0.25 forward I I I I #
loop $-1 $-1 $110 $28 #
coedge $-1 $68 $68 $111 $112 reversed $43 $-1 #
face $-1 $-1 $113 $23 $-1 $114 forward single #
loop $-1 $115 $116 $45 #
cone-surface $-1 44.951992190359505 6.1117384723375707 6.399131229389063 -0.51503808176128008 0 -0.85716729658548041 0.2142918241463701 0 -0.12875952044032002 1 I I -0.70710678118654746 0.70710678118654746 0.25 forward I I I I #
loop $-1 $-1 $117 $29 #
coedge $-1 $73 $73 $118 $119 reversed $46 $-1 #
face $-1 $120 $121 $18 $-1 $122 reversed single #
loop $-1 $-1 $123 $48 #
plane-surface $-1 0 -21.328239435489667 0 0 1 0 0 0 1 forward_v I I I I #
coedge $-1 $124 $125 $126 $127 forward $49 $-1 #
coedge $-1 $128 $51 $129 $130 forward $31 $-1 #
coedge $-1 $51 $128 $131 $132 forward $31 $-1 #
coedge $-1 $133 $134 $51 $81 reversed $135 $-1 #
edge $-1 $136 -21.328239435489667 $137 21.328239435489667 $80 $138 forward 7 unknown #
face $-1 $139 $140 $19 $-1 $141 reversed single #
loop $-1 $-1 $142 $52 #
plane-surface $-1 0 -7.7837375169743197 8.2016396933201641 0 -1 0 0 0 -1 forward_v I I I I #
coedge $-1 $143 $144 $145 $146 reversed $53 $-1 #
coedge $-1 $147 $55 $148 $149 forward $34 $-1 #
coedge $-1 $55 $147 $150 $151 reversed $34 $-1 #
coedge $-1 $152 $153 $55 $89 forward $154 $-1 #
edge $-1 $155 0.50574327885832293 $156 14.05024519737367 $88 $157 forward 7 unknown #
face $-1 $158 $159 $20 $-1 $160 reversed single #
loop $-1 $-1 $161 $56 #
plane-surface $-1 0 7.7837375169743179 8.2016396933201641 0 1 0 0 0 1 forward_v I I I I #
coedge $-1 $162 $163 $164 $165 reversed $57 $-1 #
coedge $-1 $166 $59 $167 $168 reversed $37 $-1 #
coedge $-1 $59 $166 $169 $170 forward $37 $-1 #
coedge $-1 $171 $172 $59 $97 forward $159 $-1 #
edge $-1 $173 -14.050245197373668 $174 -0.50574327885832204 $96 $175 forward 7 unknown #
face $-1 $176 $177 $21 $-1 $178 reversed single #
loop $-1 $-1 $179 $60 #
plane-surface $-1 0 0 10.4530308768705 0 0 1 1 0 0 forward_v I I I I #
coedge $-1 $180 $181 $182 $183 reversed $61 $-1 #
coedge $-1 $103 $63 $184 $185 reversed $40 $-1 #
coedge $-1 $63 $102 $180 $186 reversed $40 $-1 #
coedge $-1 $182 $187 $63 $105 forward $177 $-1 #
edge $-1 $188 61.168930512048703 $189 67.133811565547859 $104 $190 forward 7 unknown #
loop $-1 $-1 $111 $64 #
plane-surface $-1 -36.11633148638775 4.857739188860009 56.568187012755629 0.51503808176128008 0 0.85716729658548041 0.85716729658548041 0 -0.51503808176128008 forward_v I I I I #
loop $-1 $-1 $191 $42 #
coedge $-1 $109 $109 $110 $192 reversed $65 $-1 #
coedge $-1 $110 $110 $109 $192 forward $67 $-1 #
coedge $-1 $111 $111 $68 $112 forward $106 $-1 #
edge $-1 $193 0 $193 6.2831853071796004 $111 $194 forward 7 unknown #
loop $-1 $-1 $118 $69 #
plane-surface $-1 -36.11633148638775 4.857739188860009 56.568187012755629 0.51503808176128008 0 0.85716729658548041 0.85716729658548041 0 -0.51503808176128008 forward_v I I I I #
loop $-1 $-1 $195 $45 #
coedge $-1 $116 $116 $117 $196 reversed $70 $-1 #
coedge $-1 $117 $117 $116 $196 forward $72 $-1 #
coedge $-1 $118 $118 $73 $119 forward $113 $-1 #
edge $-1 $197 0 $197 6.2831853071796004 $118 $198 forward 7 unknown #
face $-1 $199 $200 $18 $-1 $201 reversed single #
loop $-1 $-1 $202 $74 #
plane-surface $-1 -50.559404278695027 0 0 1 0 0 0 0 -1 forward_v I I I I #
coedge $-1 $203 $131 $204 $205 forward $75 $-1 #
coedge $-1 $206 $77 $203 $207 forward $49 $-1 #
coedge $-1 $77 $206 $208 $209 forward $49 $-1 #
coedge $-1 $134 $133 $77 $127 reversed $135 $-1 #
edge $-1 $210 -21.328239435489667 $211 21.328239435489667 $126 $212 forward 7 unknown #
coedge $-1 $79 $78 $213 $214 forward $31 $-1 #
coedge $-1 $215 $216 $78 $130 reversed $200 $-1 #
edge $-1 $137 -50.559404278695027 $217 50.559404278695027 $129 $218 forward 7 unknown #
coedge $-1 $123 $219 $79 $132 reversed $75 $-1 #
edge $-1 $220 -50.559404278695027 $136 50.559404278695027 $131 $221 forward 7 unknown #
coedge $-1 $126 $80 $219 $222 forward $135 $-1 #
coedge $-1 $80 $126 $215 $223 reversed $135 $-1 #
loop $-1 $-1 $133 $199 #
vertex $-1 $81 $224 #
vertex $-1 $81 $225 #
straight-curve $-1 50.559404278695027 0 10.4530308768705 0 1 0 I I #
face $-1 $226 $227 $19 $-1 $228 reversed single #
loop $-1 $-1 $229 $82 #
plane-surface $-1 -50.559404278695027 0 0 1 0 0 0 0 -1 forward_v I I I I #
coedge $-1 $230 $148 $153 $231 reversed $83 $-1 #
coedge $-1 $232 $85 $233 $234 reversed $53 $-1 #
coedge $-1 $85 $232 $230 $235 forward $53 $-1 #
coedge $-1 $153 $152 $85 $146 forward $154 $-1 #
edge $-1 $236 -14.05024519737367 $237 -0.50574327885832293 $145 $238 forward 7 unknown #
coedge $-1 $87 $86 $229 $239 reversed $34 $-1 #
coedge $-1 $142 $240 $86 $149 reversed $83 $-1 #
edge $-1 $155 -50.559404278695027 $241 50.559404278695027 $148 $242 forward 7 unknown #
coedge $-1 $243 $244 $87 $151 forward $227 $-1 #
edge $-1 $156 -50.559404278695027 $245 50.559404278695027 $150 $246 forward 7 unknown #
coedge $-1 $145 $88 $244 $247 forward $154 $-1 #
coedge $-1 $88 $145 $142 $231 forward $154 $-1 #
loop $-1 $-1 $88 $226 #
vertex $-1 $89 $248 #
vertex $-1 $247 $249 #
straight-curve $-1 50.559404278695027 -7.2779942381159968 9.7016396933201641 0 -1 0 I I #
face $-1 $250 $251 $20 $-1 $252 reversed single #
loop $-1 $-1 $96 $90 #
plane-surface $-1 50.559404278695027 0 0 -1 0 0 0 0 1 forward_v I I I I #
coedge $-1 $253 $169 $254 $255 reversed $91 $-1 #
coedge $-1 $256 $93 $253 $257 forward $57 $-1 #
coedge $-1 $93 $256 $258 $259 reversed $57 $-1 #
coedge $-1 $172 $171 $93 $165 forward $159 $-1 #
edge $-1 $260 0.50574327885832204 $261 14.050245197373668 $164 $262 forward 7 unknown #
coedge $-1 $95 $94 $263 $264 reversed $37 $-1 #
coedge $-1 $265 $266 $94 $168 forward $267 $-1 #
edge $-1 $268 -50.559404278695027 $173 50.559404278695027 $167 $269 forward 7 unknown #
coedge $-1 $161 $270 $95 $170 reversed $91 $-1 #
edge $-1 $271 -50.559404278695027 $174 50.559404278695027 $169 $272 forward 7 unknown #
coedge $-1 $164 $96 $270 $273 forward $159 $-1 #
coedge $-1 $96 $164 $265 $274 reversed $159 $-1 #
vertex $-1 $274 $275 #
vertex $-1 $97 $276 #
straight-curve $-1 50.559404278695027 7.2779942381159959 9.7016396933201641 0 -1 0 I I #
face $-1 $-1 $277 $21 $-1 $278 forward single #
loop $-1 $-1 $279 $98 #
plane-surface $-1 50.559404278695027 0 0 -1 0 0 0 0 1 forward_v I I I I #
coedge $-1 $280 $281 $282 $283 forward $99 $-1 #
coedge $-1 $284 $101 $103 $186 forward $61 $-1 #
coedge $-1 $101 $284 $285 $286 forward $61 $-1 #
coedge $-1 $279 $104 $101 $183 forward $177 $-1 #
edge $-1 $189 -0.49712873368430621 $287 5.3548679225443152 $182 $288 forward 7 unknown #
coedge $-1 $281 $280 $102 $185 forward $99 $-1 #
edge $-1 $289 32.650322454928933 $188 42.577551427196759 $184 $290 forward 7 unknown #
edge $-1 $189 -101.11880855739005 $289 -89.537371640917769 $103 $291 forward 7 unknown #
coedge $-1 $104 $279 $281 $292 reversed $177 $-1 #
vertex $-1 $292 $293 #
vertex $-1 $105 $294 #
straight-curve $-1 50.559404278695027 1.9317408607456983 71.621961388919203 0 0 -1 I I #
coedge $-1 $191 $191 $-1 $295 reversed $108 $-1 #
edge $-1 $296 0 $296 6.2831853071796004 $109 $297 forward 7 unknown #
vertex $-1 $112 $298 #
ellipse-curve $-1 45.595789792561106 3.6037399053824473 7.4705903501209256 0.51503808176128008 0 0.85716729658548041 0.4285836482927402 0 -0.25751904088064004 1 I I #
coedge $-1 $195 $195 $-1 $299 reversed $115 $-1 #
edge $-1 $300 0 $300 6.2831853071796004 $116 $301 forward 7 unknown #
vertex $-1 $119 $302 #
ellipse-curve $-1 45.595789792561106 6.1117384723375707 7.4705903501209256 0.51503808176128008 0 0.85716729658548041 0.4285836482927402 0 -0.25751904088064004 1 I I #
face $-1 $-1 $135 $18 $-1 $303 reversed single #
loop $-1 $-1 $215 $120 #
plane-surface $-1 0 21.328239435489667 0 0 -1 0 0 0 -1 forward_v I I I I #
coedge $-1 $304 $213 $216 $305 forward $121 $-1 #
coedge $-1 $219 $123 $124 $207 reversed $75 $-1 #
coedge $-1 $213 $304 $123 $205 reversed $121 $-1 #
edge $-1 $220 -10.4530308768705 $306 10.4530308768705 $204 $307 forward 7 unknown #
coedge $-1 $125 $124 $304 $308 forward $49 $-1 #
edge $-1 $211 -50.559404278695027 $306 50.559404278695027 $203 $309 forward 7 unknown #
coedge $-1 $216 $215 $125 $209 reversed $200 $-1 #
edge $-1 $310 -50.559404278695027 $210 50.559404278695027 $208 $311 forward 7 unknown #
vertex $-1 $127 $312 #
vertex $-1 $222 $313 #
straight-curve $-1 50.559404278695027 0 -10.4530308768705 0 -1 0 I I #
coedge $-1 $202 $204 $128 $214 reversed $121 $-1 #
edge $-1 $217 -21.328239435489667 $220 21.328239435489667 $213 $314 forward 7 unknown #
coedge $-1 $208 $129 $134 $223 forward $200 $-1 #
coedge $-1 $129 $208 $202 $305 reversed $200 $-1 #
vertex $-1 $130 $315 #
straight-curve $-1 0 21.328239435489667 10.4530308768705 -1 0 0 I I #
coedge $-1 $131 $203 $133 $222 reversed $75 $-1 #
vertex $-1 $214 $316 #
straight-curve $-1 0 -21.328239435489667 10.4530308768705 1 0 0 I I #
edge $-1 $136 -10.4530308768705 $211 10.4530308768705 $133 $317 forward 7 unknown #
edge $-1 $137 -10.4530308768705 $210 10.4530308768705 $134 $318 forward 7 unknown #
point $-1 50.559404278695027 -21.328239435489667 10.4530308768705 #
point $-1 50.559404278695027 21.328239435489667 10.4530308768705 #
face $-1 $-1 $154 $19 $-1 $319 reversed single #
loop $-1 $-1 $150 $139 #
plane-surface $-1 0 -21.328239435489667 0 0 1 0 0 0 1 forward_v I I I I #
coedge $-1 $320 $321 $147 $239 forward $140 $-1 #
coedge $-1 $240 $142 $144 $235 reversed $83 $-1 #
edge $-1 $237 2.600819846660082 $155 5.600819846660082 $153 $322 forward 7 unknown #
coedge $-1 $144 $143 $323 $324 reversed $53 $-1 #
coedge $-1 $244 $243 $143 $234 forward $227 $-1 #
edge $-1 $325 -50.559404278695027 $236 50.559404278695027 $233 $326 forward 7 unknown #
edge $-1 $327 -50.559404278695027 $237 50.559404278695027 $230 $328 forward 7 unknown #
vertex $-1 $234 $329 #
vertex $-1 $146 $330 #
straight-curve $-1 50.559404278695027 -7.2779942381159968 6.7016396933201641 0 1 0 I I #
edge $-1 $245 -14.05024519737367 $241 -0.50574327885832293 $229 $331 forward 7 unknown #
coedge $-1 $148 $230 $320 $332 reversed $83 $-1 #
vertex $-1 $239 $333 #
straight-curve $-1 0 -7.7837375169743197 9.7016396933201641 -1 0 0 I I #
coedge $-1 $233 $150 $321 $334 forward $227 $-1 #
coedge $-1 $150 $233 $152 $247 reversed $227 $-1 #
vertex $-1 $334 $335 #
straight-curve $-1 0 -21.328239435489667 9.7016396933201641 -1 0 0 I I #
edge $-1 $156 -9.7016396933201641 $236 -6.7016396933201641 $152 $336 forward 7 unknown #
point $-1 50.559404278695027 -7.7837375169743197 9.7016396933201641 #
point $-1 50.559404278695027 -21.328239435489667 9.7016396933201641 #
face $-1 $-1 $267 $20 $-1 $337 reversed single #
loop $-1 $-1 $263 $158 #
plane-surface $-1 -50.559404278695027 0 0 1 0 0 0 0 -1 forward_v I I I I #
coedge $-1 $270 $161 $162 $257 reversed $91 $-1 #
coedge $-1 $263 $338 $161 $255 forward $251 $-1 #
edge $-1 $339 2.600819846660082 $271 5.600819846660082 $254 $340 forward 7 unknown #
coedge $-1 $163 $162 $338 $341 reversed $57 $-1 #
edge $-1 $260 -50.559404278695027 $339 50.559404278695027 $253 $342 forward 7 unknown #
coedge $-1 $266 $265 $163 $259 forward $267 $-1 #
edge $-1 $261 -50.559404278695027 $343 50.559404278695027 $258 $344 forward 7 unknown #
vertex $-1 $165 $345 #
vertex $-1 $259 $346 #
straight-curve $-1 50.559404278695027 7.2779942381159959 6.7016396933201641 0 1 0 I I #
coedge $-1 $347 $254 $166 $264 forward $251 $-1 #
edge $-1 $271 0.50574327885832204 $268 14.050245197373668 $263 $348 forward 7 unknown #
coedge $-1 $258 $167 $172 $274 forward $267 $-1 #
coedge $-1 $167 $258 $347 $349 reversed $267 $-1 #
loop $-1 $-1 $167 $250 #
vertex $-1 $349 $350 #
straight-curve $-1 0 21.328239435489667 9.7016396933201641 1 0 0 I I #
coedge $-1 $169 $253 $171 $273 reversed $91 $-1 #
vertex $-1 $264 $351 #
straight-curve $-1 0 7.7837375169743179 9.7016396933201641 1 0 0 I I #
edge $-1 $174 -5.600819846660082 $260 -2.600819846660082 $171 $352 forward 7 unknown #
edge $-1 $173 -9.7016396933201641 $261 -6.7016396933201641 $172 $353 forward 7 unknown #
point $-1 50.559404278695027 21.328239435489664 9.7016396933201641 #
point $-1 50.559404278695027 7.7837375169743179 9.7016396933201641 #
loop $-1 $-1 $285 $176 #
plane-surface $-1 0 7.7837375169743179 8.2016396933201641 0 1 0 0 0 1 forward_v I I I I #
coedge $-1 $187 $182 $354 $355 forward $177 $-1 #
coedge $-1 $184 $179 $284 $356 forward $99 $-1 #
coedge $-1 $179 $184 $187 $292 forward $99 $-1 #
coedge $-1 $354 $285 $179 $283 reversed $277 $-1 #
edge $-1 $357 -42.577551427196759 $358 -32.650322454928933 $179 $359 forward 7 unknown #
coedge $-1 $181 $180 $280 $356 reversed $61 $-1 #
coedge $-1 $282 $354 $181 $286 reversed $277 $-1 #
edge $-1 $358 89.537371640917769 $287 101.11880855739005 $285 $360 forward 7 unknown #
vertex $-1 $355 $361 #
straight-curve $-1 50.55940427869502 2.4288695944300045 4.4881498233713479 0 1 0 I I #
vertex $-1 $185 $362 #
straight-curve $-1 7.9818528514982674 1.9317408607456983 10.4530308768705 1 0 0 I I #
straight-curve $-1 -36.11633148638775 1.9317408607456983 56.568187012755629 -0.85716729658548041 0 0.51503808176128008 I I #
edge $-1 $188 1.9317408607456983 $357 7.7837375169743197 $187 $363 forward 7 unknown #
point $-1 50.559404278695027 1.9317408607456983 10.4530308768705 #
point $-1 50.559404278695027 1.9317408607456983 4.4881498233713444 #
edge $-1 $364 1 $364 0 $191 $-1 forward 7 unknown #
vertex $-1 $192 $365 #
ellipse-curve $-1 45.080751710799824 3.6037399053824473 6.613423053535433 0.51503808176128008 0 0.85716729658548041 0.4285836482927402 0 -0.25751904088064004 1 I I #
point $-1 46.024373440853843 3.6037399053824473 7.2130713092402736 #
edge $-1 $366 1 $366 0 $195 $-1 forward 7 unknown #
vertex $-1 $196 $367 #
ellipse-curve $-1 45.080751710799824 6.1117384723375707 6.613423053535433 0.51503808176128008 0 0.85716729658548041 0.4285836482927402 0 -0.25751904088064004 1 I I #
point $-1 46.024373440853843 6.1117384723375707 7.2130713092402736 #
plane-surface $-1 50.559404278695027 0 0 -1 0 0 0 0 1 forward_v I I I I #
coedge $-1 $204 $202 $206 $308 reversed $121 $-1 #
edge $-1 $217 -10.4530308768705 $310 10.4530308768705 $216 $368 forward 7 unknown #
vertex $-1 $308 $369 #
straight-curve $-1 -50.559404278695027 -21.328239435489667 0 0 0 -1 I I #
edge $-1 $306 -21.328239435489667 $310 21.328239435489667 $304 $370 forward 7 unknown #
straight-curve $-1 0 -21.328239435489667 -10.4530308768705 -1 0 0 I I #
vertex $-1 $209 $371 #
straight-curve $-1 0 21.328239435489667 -10.4530308768705 1 0 0 I I #
point $-1 50.559404278695027 21.328239435489667 -10.4530308768705 #
point $-1 50.559404278695027 -21.328239435489667 -10.4530308768705 #
straight-curve $-1 -50.559404278695027 0 10.4530308768705 0 -1 0 I I #
point $-1 -50.559404278695027 21.328239435489667 10.4530308768705 #
point $-1 -50.559404278695027 -21.328239435489667 10.4530308768705 #
straight-curve $-1 50.559404278695027 -21.328239435489667 0 0 0 -1 I I #
straight-curve $-1 50.559404278695027 21.328239435489667 0 0 0 -1 I I #
plane-surface $-1 50.559404278695027 0 0 -1 0 0 0 0 1 forward_v I I I I #
coedge $-1 $323 $229 $240 $332 forward $140 $-1 #
coedge $-1 $229 $323 $243 $334 reversed $140 $-1 #
straight-curve $-1 50.559404278695027 -7.7837375169743197 4.100819846660082 0 0 1 I I #
coedge $-1 $321 $320 $232 $324 forward $140 $-1 #
edge $-1 $327 0.50574327885832293 $325 14.05024519737367 $323 $372 forward 7 unknown #
vertex $-1 $234 $373 #
straight-curve $-1 0 -21.328239435489667 6.7016396933201641 1 0 0 I I #
vertex $-1 $324 $374 #
straight-curve $-1 0 -7.7837375169743197 6.7016396933201641 1 0 0 I I #
point $-1 50.559404278695027 -21.328239435489667 6.7016396933201641 #
point $-1 50.559404278695027 -7.7837375169743197 6.7016396933201641 #
straight-curve $-1 -50.559404278695027 -7.2779942381159968 9.7016396933201641 0 1 0 I I #
edge $-1 $241 -5.600819846660082 $327 -2.600819846660082 $320 $375 forward 7 unknown #
point $-1 -50.559404278695027 -7.7837375169743197 9.7016396933201641 #
edge $-1 $245 -9.7016396933201641 $325 -6.7016396933201641 $321 $376 forward 7 unknown #
point $-1 -50.559404278695027 -21.328239435489667 9.7016396933201641 #
straight-curve $-1 50.559404278695027 -21.328239435489667 0 0 0 -1 I I #
plane-surface $-1 0 21.328239435489667 0 0 -1 0 0 0 -1 forward_v I I I I #
coedge $-1 $254 $347 $256 $341 forward $251 $-1 #
vertex $-1 $341 $377 #
straight-curve $-1 -50.559404278695027 7.7837375169743179 4.100819846660082 0 0 1 I I #
edge $-1 $343 -14.050245197373668 $339 -0.50574327885832204 $338 $378 forward 7 unknown #
straight-curve $-1 0 7.7837375169743179 6.7016396933201641 -1 0 0 I I #
vertex $-1 $259 $379 #
straight-curve $-1 0 21.328239435489667 6.7016396933201641 -1 0 0 I I #
point $-1 50.559404278695027 7.7837375169743179 6.7016396933201641 #
point $-1 50.559404278695027 21.328239435489664 6.7016396933201641 #
coedge $-1 $338 $263 $266 $349 forward $251 $-1 #
straight-curve $-1 -50.559404278695027 7.2779942381159959 9.7016396933201641 0 1 0 I I #
edge $-1 $268 -9.7016396933201641 $343 -6.7016396933201641 $266 $380 forward 7 unknown #
point $-1 -50.559404278695027 21.328239435489664 9.7016396933201641 #
point $-1 -50.559404278695027 7.7837375169743179 9.7016396933201641 #
straight-curve $-1 50.559404278695027 7.7837375169743179 4.100819846660082 0 0 -1 I I #
straight-curve $-1 50.559404278695027 21.328239435489667 0 0 0 -1 I I #
coedge $-1 $285 $282 $279 $355 reversed $277 $-1 #
edge $-1 $287 -67.133811565547859 $357 -61.168930512048703 $279 $381 forward 7 unknown #
edge $-1 $358 -5.3548679225443152 $289 0.49712873368430621 $280 $382 forward 7 unknown #
vertex $-1 $283 $383 #
vertex $-1 $283 $384 #
straight-curve $-1 7.9818528514982674 7.7837375169743197 10.4530308768705 -1 0 0 I I #
straight-curve $-1 -36.11633148638775 7.7837375169743197 56.568187012755629 0.85716729658548041 0 -0.51503808176128008 I I #
point $-1 50.559404278695027 7.7837375169743197 4.4881498233713444 #
point $-1 40.6321753064272 1.9317408607456983 10.4530308768705 #
straight-curve $-1 50.559404278695027 0 10.4530308768705 0 1 0 I I #
vertex $-1 $295 $385 #
point $-1 45.509335359092567 3.6037399053824473 6.3559040126547934 #
vertex $-1 $299 $386 #
point $-1 45.509335359092567 6.1117384723375707 6.3559040126547934 #
straight-curve $-1 -50.559404278695027 21.328239435489667 0 0 0 -1 I I #
point $-1 -50.559404278695027 -21.328239435489667 -10.4530308768705 #
straight-curve $-1 -50.559404278695027 0 -10.4530308768705 0 1 0 I I #
point $-1 -50.559404278695027 21.328239435489667 -10.4530308768705 #
straight-curve $-1 -50.559404278695027 -7.2779942381159968 6.7016396933201641 0 -1 0 I I #
point $-1 -50.559404278695027 -21.328239435489667 6.7016396933201641 #
point $-1 -50.559404278695027 -7.7837375169743197 6.7016396933201641 #
straight-curve $-1 -50.559404278695027 -7.7837375169743197 4.100819846660082 0 0 -1 I I #
straight-curve $-1 -50.559404278695027 -21.328239435489667 0 0 0 -1 I I #
point $-1 -50.559404278695027 7.7837375169743179 6.7016396933201641 #
straight-curve $-1 -50.559404278695027 7.2779942381159959 6.7016396933201641 0 -1 0 I I #
point $-1 -50.559404278695027 21.328239435489664 6.7016396933201641 #
straight-curve $-1 -50.559404278695027 21.328239435489667 0 0 0 -1 I I #
straight-curve $-1 50.559404278695027 7.7837375169743197 71.621961388919203 0 0 1 I I #
straight-curve $-1 40.6321753064272 2.4288695944300045 10.453030876870493 0 -1 0 I I #
point $-1 50.559404278695027 7.7837375169743197 10.4530308768705 #
point $-1 40.6321753064272 7.7837375169743197 10.4530308768705 #
point $-1 44.823232669919186 3.6037399053824473 6.1848394052426929 #
point $-1 44.823232669919186 6.1117384723375707 6.1848394052426929 #
End-of-ACIS-data 