500 0 16 0           
7 Unknown 11 ACIS 5.0 NT 24 Fri Mar 26 01:59:24 1999 
-1 9.9999999999999995e-007 1e-010 
body $-1 $16 $-1 $17 #
body $-1 $18 $-1 $19 #
body $-1 $20 $-1 $21 #
body $-1 $22 $-1 $23 #
body $-1 $24 $-1 $25 #
body $-1 $26 $-1 $27 #
body $-1 $28 $-1 $29 #
body $-1 $30 $-1 $31 #
body $-1 $32 $-1 $33 #
body $-1 $34 $-1 $35 #
body $-1 $36 $-1 $37 #
body $-1 $38 $-1 $39 #
body $-1 $40 $-1 $41 #
body $-1 $42 $-1 $43 #
body $-1 $44 $-1 $45 #
body $-1 $46 $-1 $47 #
lump $-1 $-1 $48 $0 #
transform $-1 1 0 0 0 1 0 0 0 1 50.476393932920317 33.402195651914965 9.0752808383527128 1 rotate no_reflect no_shear #
lump $-1 $-1 $49 $1 #
transform $-1 1 0 0 0 1 0 0 0 1 50.476393932920317 33.402195651914965 9.0752808383527128 1 rotate no_reflect no_shear #
lump $-1 $-1 $50 $2 #
transform $-1 1 0 0 0 1 0 0 0 1 50.476393932920317 33.402195651914965 9.0752808383527128 1 rotate no_reflect no_shear #
lump $-1 $-1 $51 $3 #
transform $-1 1 0 0 0 1 0 0 0 1 50.476393932920317 33.402195651914965 9.0752808383527128 1 rotate no_reflect no_shear #
lump $-1 $-1 $52 $4 #
transform $-1 1 0 0 0 1 0 0 0 1 50.476393932920317 33.402195651914965 9.0752808383527128 1 rotate no_reflect no_shear #
lump $-1 $-1 $53 $5 #
transform $-1 1 0 0 0 1 0 0 0 1 50.476393932920317 33.402195651914965 9.0752808383527128 1 rotate no_reflect no_shear #
lump $-1 $-1 $54 $6 #
transform $-1 1 0 0 0 1 0 0 0 1 50.476393932920317 33.402195651914965 9.0752808383527128 1 rotate no_reflect no_shear #
lump $-1 $-1 $55 $7 #
transform $-1 1 0 0 0 1 0 0 0 1 50.476393932920317 33.402195651914965 9.0752808383527128 1 rotate no_reflect no_shear #
lump $-1 $-1 $56 $8 #
transform $-1 1 0 0 0 1 0 0 0 1 50.476393932920317 33.402195651914965 9.0752808383527128 1 rotate no_reflect no_shear #
lump $-1 $-1 $57 $9 #
transform $-1 1 0 0 0 1 0 0 0 1 50.476393932920317 33.402195651914965 9.0752808383527128 1 rotate no_reflect no_shear #
lump $-1 $-1 $58 $10 #
transform $-1 1 0 0 0 1 0 0 0 1 50.476393932920317 33.402195651914965 9.0752808383527128 1 rotate no_reflect no_shear #
lump $-1 $-1 $59 $11 #
transform $-1 1 0 0 0 1 0 0 0 1 50.476393932920317 33.402195651914965 9.0752808383527128 1 rotate no_reflect no_shear #
lump $-1 $-1 $60 $12 #
transform $-1 1 0 0 0 1 0 0 0 1 50.476393932920317 33.402195651914965 9.0752808383527128 1 rotate no_reflect no_shear #
lump $-1 $-1 $61 $13 #
transform $-1 1 0 0 0 1 0 0 0 1 50.476393932920317 33.402195651914965 9.0752808383527128 1 rotate no_reflect no_shear #
lump $-1 $-1 $62 $14 #
transform $-1 1 0 0 0 1 0 0 0 1 50.476393932920317 33.402195651914965 9.0752808383527128 1 rotate no_reflect no_shear #
lump $-1 $-1 $63 $15 #
transform $-1 1 0 0 0 1 0 0 0 1 50.476393932920317 33.402195651914965 9.0752808383527128 1 rotate no_reflect no_shear #
shell $-1 $-1 $-1 $64 $-1 $16 #
shell $-1 $-1 $-1 $65 $-1 $18 #
shell $-1 $-1 $-1 $66 $-1 $20 #
shell $-1 $-1 $-1 $67 $-1 $22 #
shell $-1 $-1 $-1 $68 $-1 $24 #
shell $-1 $-1 $-1 $69 $-1 $26 #
shell $-1 $-1 $-1 $70 $-1 $28 #
shell $-1 $-1 $-1 $71 $-1 $30 #
shell $-1 $-1 $-1 $72 $-1 $32 #
shell $-1 $-1 $-1 $73 $-1 $34 #
shell $-1 $-1 $-1 $74 $-1 $36 #
shell $-1 $-1 $-1 $75 $-1 $38 #
shell $-1 $-1 $-1 $76 $-1 $40 #
shell $-1 $-1 $-1 $77 $-1 $42 #
shell $-1 $-1 $-1 $78 $-1 $44 #
shell $-1 $-1 $-1 $79 $-1 $46 #
face $-1 $80 $81 $48 $-1 $82 forward single #
face $-1 $83 $84 $49 $-1 $85 forward single #
face $-1 $86 $87 $50 $-1 $88 reversed single #
face $-1 $89 $90 $51 $-1 $91 forward single #
face $-1 $92 $93 $52 $-1 $94 forward single #
face $-1 $95 $96 $53 $-1 $97 reversed single #
face $-1 $98 $99 $54 $-1 $100 forward single #
face $-1 $101 $102 $55 $-1 $103 forward single #
face $-1 $104 $105 $56 $-1 $106 reversed single #
face $-1 $107 $108 $57 $-1 $109 forward single #
face $-1 $110 $111 $58 $-1 $112 forward single #
face $-1 $113 $114 $59 $-1 $115 reversed single #
face $-1 $116 $117 $60 $-1 $118 forward single #
face $-1 $119 $120 $61 $-1 $121 forward single #
face $-1 $122 $123 $62 $-1 $124 reversed single #
face $-1 $125 $126 $63 $-1 $127 forward single #
face $-1 $128 $129 $48 $-1 $130 reversed single #
loop $-1 $-1 $131 $64 #
plane-surface $-1 0 0 9.0752808383527128 0 0 1 1 0 0 forward_v I I I I #
face $-1 $132 $133 $49 $-1 $134 reversed single #
loop $-1 $-1 $135 $65 #
plane-surface $-1 0 -29.224204122775369 -5.1877581202739638 0 0 1 1 0 0 forward_v I I I I #
face $-1 $136 $137 $50 $-1 $138 reversed single #
loop $-1 $-1 $139 $66 #
plane-surface $-1 -128.93144615609378 -25.046212593635772 65.484925619970454 0 1 0 -0.77714596973225614 0 0.62932038083071107 forward_v I I I I #
face $-1 $140 $141 $51 $-1 $142 forward single #
loop $-1 $143 $144 $67 #
cone-surface $-1 -47.204179223373401 -22.680278188523694 5.1996195859198187 0.77714596973225614 0 -0.62932038083071107 0.31466019041535553 0 0.38857298486612807 1 I I 0 1 0.5 forward I I I I #
face $-1 $145 $146 $52 $-1 $147 forward single #
loop $-1 $148 $149 $68 #
cone-surface $-1 -47.204179223373401 -19.131376580855576 5.1996195859198187 0.77714596973225614 0 -0.62932038083071107 0.31466019041535553 0 0.38857298486612807 1 I I 0 1 0.5 forward I I I I #
face $-1 $150 $151 $53 $-1 $152 reversed single #
loop $-1 $-1 $153 $69 #
plane-surface $-1 -128.93144615609378 -10.434110532248086 65.484925619970454 0 1 0 -0.77714596973225614 0 0.62932038083071107 forward_v I I I I #
face $-1 $154 $155 $54 $-1 $156 forward single #
loop $-1 $157 $158 $70 #
cone-surface $-1 -47.204179223373401 -8.0681761271360095 5.1996195859198187 0.77714596973225614 0 -0.62932038083071107 0.31466019041535553 0 0.38857298486612807 1 I I 0 1 0.5 forward I I I I #
face $-1 $159 $160 $55 $-1 $161 forward single #
loop $-1 $162 $163 $71 #
cone-surface $-1 -47.204179223373401 -4.519274519467892 5.1996195859198187 0.77714596973225614 0 -0.62932038083071107 0.31466019041535553 0 0.38857298486612807 1 I I 0 1 0.5 forward I I I I #
face $-1 $164 $165 $56 $-1 $166 reversed single #
loop $-1 $-1 $167 $72 #
plane-surface $-1 -128.93144615609378 4.1779915291395948 65.484925619970454 0 1 0 -0.77714596973225614 0 0.62932038083071107 forward_v I I I I #
face $-1 $168 $169 $57 $-1 $170 forward single #
loop $-1 $171 $172 $73 #
cone-surface $-1 -47.204179223373401 6.5439259342516749 5.1996195859198187 0.77714596973225614 0 -0.62932038083071107 0.31466019041535553 0 0.38857298486612807 1 I I 0 1 0.5 forward I I I I #
face $-1 $173 $174 $58 $-1 $175 forward single #
loop $-1 $176 $177 $74 #
cone-surface $-1 -47.204179223373401 10.092827541919789 5.1996195859198187 0.77714596973225614 0 -0.62932038083071107 0.31466019041535553 0 0.38857298486612807 1 I I 0 1 0.5 forward I I I I #
face $-1 $178 $179 $59 $-1 $180 reversed single #
loop $-1 $-1 $181 $75 #
plane-surface $-1 -128.93144615609378 18.790093590527285 65.484925619970454 0 1 0 -0.77714596973225614 0 0.62932038083071107 forward_v I I I I #
face $-1 $182 $183 $60 $-1 $184 forward single #
loop $-1 $185 $186 $76 #
cone-surface $-1 -47.204179223373401 21.156027995639363 5.1996195859198187 0.77714596973225614 0 -0.62932038083071107 0.31466019041535553 0 0.38857298486612807 1 I I 0 1 0.5 forward I I I I #
face $-1 $187 $188 $61 $-1 $189 forward single #
loop $-1 $190 $191 $77 #
cone-surface $-1 -47.204179223373401 24.704929603307477 5.1996195859198187 0.77714596973225614 0 -0.62932038083071107 0.31466019041535553 0 0.38857298486612807 1 I I 0 1 0.5 forward I I I I #
face $-1 $192 $193 $62 $-1 $194 reversed single #
loop $-1 $-1 $195 $78 #
plane-surface $-1 18.360402597520149 -12.93661537530838 144.67227317651631 0 -1 0 -0.52991927123019833 0 -0.84804809178421925 forward_v I I I I #
face $-1 $196 $197 $63 $-1 $198 forward single #
loop $-1 $199 $200 $79 #
cone-surface $-1 46.671997245100933 -18.991413984472075 5.7287242818609343 -0.52991927123019833 0 -0.84804809178421925 0.84804809178421925 0 -0.52991927123019833 1 I I 0 1 1 forward I I I I #
face $-1 $201 $202 $48 $-1 $203 reversed single #
loop $-1 $-1 $204 $80 #
plane-surface $-1 0 0 -9.0752808383527128 0 0 1 1 0 0 forward_v I I I I #
coedge $-1 $205 $206 $207 $208 forward $81 $-1 #
face $-1 $209 $210 $49 $-1 $211 reversed single #
loop $-1 $-1 $212 $83 #
plane-surface $-1 0 -25.046212593635772 -7.1315194793133383 0 -1 0 0 0 -1 forward_v I I I I #
coedge $-1 $213 $214 $215 $216 reversed $84 $-1 #
face $-1 $217 $218 $50 $-1 $219 reversed single #
loop $-1 $-1 $220 $86 #
plane-surface $-1 -50.476393932920331 -20.905827384689637 1.9532787143176407 -0.77714596973225614 0 0.62932038083071107 0.62932038083071107 0 0.77714596973225614 forward_v I I I I #
coedge $-1 $221 $222 $223 $224 reversed $87 $-1 #
face $-1 $-1 $225 $51 $-1 $226 forward single #
loop $-1 $227 $228 $89 #
cone-surface $-1 -46.621319746074207 -22.680278188523694 4.7276293002967851 0.77714596973225614 0 -0.62932038083071107 0.15733009520767777 0 0.19428649243306403 1 I I -0.70710678118654746 0.70710678118654746 0.25 forward I I I I #
loop $-1 $-1 $229 $67 #
coedge $-1 $144 $144 $230 $231 reversed $90 $-1 #
face $-1 $-1 $232 $52 $-1 $233 forward single #
loop $-1 $234 $235 $92 #
cone-surface $-1 -46.621319746074207 -19.131376580855576 4.7276293002967851 0.77714596973225614 0 -0.62932038083071107 0.15733009520767777 0 0.19428649243306403 1 I I -0.70710678118654746 0.70710678118654746 0.25 forward I I I I #
loop $-1 $-1 $236 $68 #
coedge $-1 $149 $149 $237 $238 reversed $93 $-1 #
face $-1 $239 $240 $53 $-1 $241 reversed single #
loop $-1 $-1 $242 $95 #
plane-surface $-1 -50.476393932920331 -6.293725323301949 1.9532787143176407 -0.77714596973225614 0 0.62932038083071107 0.62932038083071107 0 0.77714596973225614 forward_v I I I I #
coedge $-1 $243 $244 $245 $246 reversed $96 $-1 #
face $-1 $-1 $247 $54 $-1 $248 forward single #
loop $-1 $249 $250 $98 #
cone-surface $-1 -46.621319746074207 -8.0681761271360095 4.7276293002967851 0.77714596973225614 0 -0.62932038083071107 0.15733009520767777 0 0.19428649243306403 1 I I -0.70710678118654746 0.70710678118654746 0.25 forward I I I I #
loop $-1 $-1 $251 $70 #
coedge $-1 $158 $158 $252 $253 reversed $99 $-1 #
face $-1 $-1 $254 $55 $-1 $255 forward single #
loop $-1 $256 $257 $101 #
cone-surface $-1 -46.621319746074207 -4.519274519467892 4.7276293002967851 0.77714596973225614 0 -0.62932038083071107 0.15733009520767777 0 0.19428649243306403 1 I I -0.70710678118654746 0.70710678118654746 0.25 forward I I I I #
loop $-1 $-1 $258 $71 #
coedge $-1 $163 $163 $259 $260 reversed $102 $-1 #
face $-1 $261 $262 $56 $-1 $263 reversed single #
loop $-1 $-1 $264 $104 #
plane-surface $-1 -50.476393932920331 8.3183767380857319 1.9532787143176407 -0.77714596973225614 0 0.62932038083071107 0.62932038083071107 0 0.77714596973225614 forward_v I I I I #
coedge $-1 $265 $266 $267 $268 reversed $105 $-1 #
face $-1 $-1 $269 $57 $-1 $270 forward single #
loop $-1 $271 $272 $107 #
cone-surface $-1 -46.621319746074207 6.5439259342516749 4.7276293002967851 0.77714596973225614 0 -0.62932038083071107 0.15733009520767777 0 0.19428649243306403 1 I I -0.70710678118654746 0.70710678118654746 0.25 forward I I I I #
loop $-1 $-1 $273 $73 #
coedge $-1 $172 $172 $274 $275 reversed $108 $-1 #
face $-1 $-1 $276 $58 $-1 $277 forward single #
loop $-1 $278 $279 $110 #
cone-surface $-1 -46.621319746074207 10.092827541919789 4.7276293002967851 0.77714596973225614 0 -0.62932038083071107 0.15733009520767777 0 0.19428649243306403 1 I I -0.70710678118654746 0.70710678118654746 0.25 forward I I I I #
loop $-1 $-1 $280 $74 #
coedge $-1 $177 $177 $281 $282 reversed $111 $-1 #
face $-1 $283 $284 $59 $-1 $285 reversed single #
loop $-1 $-1 $286 $113 #
plane-surface $-1 -50.476393932920331 22.93047879947342 1.9532787143176407 -0.77714596973225614 0 0.62932038083071107 0.62932038083071107 0 0.77714596973225614 forward_v I I I I #
coedge $-1 $287 $288 $289 $290 reversed $114 $-1 #
face $-1 $-1 $291 $60 $-1 $292 forward single #
loop $-1 $293 $294 $116 #
cone-surface $-1 -46.621319746074207 21.156027995639363 4.7276293002967851 0.77714596973225614 0 -0.62932038083071107 0.15733009520767777 0 0.19428649243306403 1 I I -0.70710678118654746 0.70710678118654746 0.25 forward I I I I #
loop $-1 $-1 $295 $76 #
coedge $-1 $186 $186 $296 $297 reversed $117 $-1 #
face $-1 $-1 $298 $61 $-1 $299 forward single #
loop $-1 $300 $301 $119 #
cone-surface $-1 -46.621319746074207 24.704929603307477 4.7276293002967851 0.77714596973225614 0 -0.62932038083071107 0.15733009520767777 0 0.19428649243306403 1 I I -0.70710678118654746 0.70710678118654746 0.25 forward I I I I #
loop $-1 $-1 $302 $77 #
coedge $-1 $191 $191 $303 $304 reversed $120 $-1 #
face $-1 $305 $306 $62 $-1 $307 reversed single #
loop $-1 $-1 $308 $122 #
plane-surface $-1 -35.136425177002927 -18.991413984472075 59.059454066593077 0.52991927123019833 0 0.84804809178421925 0.84804809178421925 0 -0.52991927123019833 forward_v I I I I #
coedge $-1 $309 $310 $311 $312 reversed $123 $-1 #
face $-1 $-1 $313 $63 $-1 $314 forward single #
loop $-1 $315 $316 $125 #
cone-surface $-1 45.413352049567848 -18.991413984472075 3.7144709526183899 -0.52991927123019833 0 -0.84804809178421925 0.42402404589210962 0 -0.26495963561509916 1 I I -0.70710678118654746 0.70710678118654746 0.5 forward I I I I #
loop $-1 $-1 $317 $79 #
coedge $-1 $200 $200 $318 $319 reversed $126 $-1 #
face $-1 $320 $321 $48 $-1 $322 reversed single #
loop $-1 $-1 $323 $128 #
plane-surface $-1 0 -33.402195651914965 0 0 1 0 0 0 1 forward_v I I I I #
coedge $-1 $324 $325 $326 $327 forward $129 $-1 #
coedge $-1 $328 $131 $329 $330 forward $81 $-1 #
coedge $-1 $131 $328 $331 $332 forward $81 $-1 #
coedge $-1 $333 $334 $131 $208 reversed $335 $-1 #
edge $-1 $336 -33.402195651914965 $337 33.402195651914965 $207 $338 forward 7 unknown #
face $-1 $339 $340 $49 $-1 $341 reversed single #
loop $-1 $-1 $342 $132 #
plane-surface $-1 0 0 -9.0752808383527128 0 0 1 1 0 0 forward_v I I I I #
coedge $-1 $343 $344 $345 $346 reversed $133 $-1 #
coedge $-1 $347 $135 $344 $348 forward $84 $-1 #
coedge $-1 $135 $347 $349 $350 reversed $84 $-1 #
coedge $-1 $351 $345 $135 $216 forward $340 $-1 #
edge $-1 $352 10.434110532248088 $353 18.790093590527281 $215 $354 forward 7 unknown #
face $-1 $355 $356 $50 $-1 $357 forward single #
loop $-1 $-1 $358 $136 #
plane-surface $-1 -128.93144615609378 -16.765442175743502 65.484925619970454 0 -1 0 0.77714596973225614 0 -0.62932038083071107 forward_v I I I I #
coedge $-1 $359 $360 $361 $362 reversed $137 $-1 #
coedge $-1 $222 $139 $363 $364 reversed $87 $-1 #
coedge $-1 $139 $221 $359 $365 reversed $87 $-1 #
coedge $-1 $361 $366 $139 $224 forward $356 $-1 #
edge $-1 $367 13.989329145126575 $368 19.756612594488125 $223 $369 forward 7 unknown #
loop $-1 $-1 $230 $140 #
plane-surface $-1 -50.476393932920331 -20.905827384689637 1.9532787143176407 -0.77714596973225614 0 0.62932038083071107 0.62932038083071107 0 0.77714596973225614 forward_v I I I I #
loop $-1 $-1 $370 $89 #
coedge $-1 $228 $228 $229 $371 reversed $141 $-1 #
coedge $-1 $229 $229 $228 $371 forward $143 $-1 #
coedge $-1 $230 $230 $144 $231 forward $225 $-1 #
edge $-1 $372 0 $372 6.2831853071796004 $230 $373 forward 7 unknown #
loop $-1 $-1 $237 $145 #
plane-surface $-1 -50.476393932920331 -20.905827384689637 1.9532787143176407 -0.77714596973225614 0 0.62932038083071107 0.62932038083071107 0 0.77714596973225614 forward_v I I I I #
loop $-1 $-1 $374 $92 #
coedge $-1 $235 $235 $236 $375 reversed $146 $-1 #
coedge $-1 $236 $236 $235 $375 forward $148 $-1 #
coedge $-1 $237 $237 $149 $238 forward $232 $-1 #
edge $-1 $376 0 $376 6.2831853071796004 $237 $377 forward 7 unknown #
face $-1 $378 $379 $53 $-1 $380 forward single #
loop $-1 $-1 $381 $150 #
plane-surface $-1 -128.93144615609378 -2.153340114355812 65.484925619970454 0 -1 0 0.77714596973225614 0 -0.62932038083071107 forward_v I I I I #
coedge $-1 $382 $383 $384 $385 reversed $151 $-1 #
coedge $-1 $244 $153 $386 $387 reversed $96 $-1 #
coedge $-1 $153 $243 $382 $388 reversed $96 $-1 #
coedge $-1 $384 $389 $153 $246 forward $379 $-1 #
edge $-1 $390 13.989329145126575 $391 19.756612594488125 $245 $392 forward 7 unknown #
loop $-1 $-1 $252 $154 #
plane-surface $-1 -50.476393932920331 -6.293725323301949 1.9532787143176407 -0.77714596973225614 0 0.62932038083071107 0.62932038083071107 0 0.77714596973225614 forward_v I I I I #
loop $-1 $-1 $393 $98 #
coedge $-1 $250 $250 $251 $394 reversed $155 $-1 #
coedge $-1 $251 $251 $250 $394 forward $157 $-1 #
coedge $-1 $252 $252 $158 $253 forward $247 $-1 #
edge $-1 $395 0 $395 6.2831853071796004 $252 $396 forward 7 unknown #
loop $-1 $-1 $259 $159 #
plane-surface $-1 -50.476393932920331 -6.293725323301949 1.9532787143176407 -0.77714596973225614 0 0.62932038083071107 0.62932038083071107 0 0.77714596973225614 forward_v I I I I #
loop $-1 $-1 $397 $101 #
coedge $-1 $257 $257 $258 $398 reversed $160 $-1 #
coedge $-1 $258 $258 $257 $398 forward $162 $-1 #
coedge $-1 $259 $259 $163 $260 forward $254 $-1 #
edge $-1 $399 0 $399 6.2831853071796004 $259 $400 forward 7 unknown #
face $-1 $401 $402 $56 $-1 $403 forward single #
loop $-1 $-1 $404 $164 #
plane-surface $-1 -128.93144615609378 12.458761947031869 65.484925619970454 0 -1 0 0.77714596973225614 0 -0.62932038083071107 forward_v I I I I #
coedge $-1 $405 $406 $407 $408 reversed $165 $-1 #
coedge $-1 $266 $167 $409 $410 reversed $105 $-1 #
coedge $-1 $167 $265 $405 $411 reversed $105 $-1 #
coedge $-1 $407 $412 $167 $268 forward $402 $-1 #
edge $-1 $413 13.989329145126575 $414 19.756612594488125 $267 $415 forward 7 unknown #
loop $-1 $-1 $274 $168 #
plane-surface $-1 -50.476393932920331 8.3183767380857319 1.9532787143176407 -0.77714596973225614 0 0.62932038083071107 0.62932038083071107 0 0.77714596973225614 forward_v I I I I #
loop $-1 $-1 $416 $107 #
coedge $-1 $272 $272 $273 $417 reversed $169 $-1 #
coedge $-1 $273 $273 $272 $417 forward $171 $-1 #
coedge $-1 $274 $274 $172 $275 forward $269 $-1 #
edge $-1 $418 0 $418 6.2831853071796004 $274 $419 forward 7 unknown #
loop $-1 $-1 $281 $173 #
plane-surface $-1 -50.476393932920331 8.3183767380857319 1.9532787143176407 -0.77714596973225614 0 0.62932038083071107 0.62932038083071107 0 0.77714596973225614 forward_v I I I I #
loop $-1 $-1 $420 $110 #
coedge $-1 $279 $279 $280 $421 reversed $174 $-1 #
coedge $-1 $280 $280 $279 $421 forward $176 $-1 #
coedge $-1 $281 $281 $177 $282 forward $276 $-1 #
edge $-1 $422 0 $422 6.2831853071796004 $281 $423 forward 7 unknown #
face $-1 $424 $425 $59 $-1 $426 forward single #
loop $-1 $-1 $427 $178 #
plane-surface $-1 -128.93144615609378 27.070864008419555 65.484925619970454 0 -1 0 0.77714596973225614 0 -0.62932038083071107 forward_v I I I I #
coedge $-1 $428 $429 $430 $431 reversed $179 $-1 #
coedge $-1 $288 $181 $432 $433 reversed $114 $-1 #
coedge $-1 $181 $287 $428 $434 reversed $114 $-1 #
coedge $-1 $430 $435 $181 $290 forward $425 $-1 #
edge $-1 $436 13.989329145126575 $437 19.756612594488125 $289 $438 forward 7 unknown #
loop $-1 $-1 $296 $182 #
plane-surface $-1 -50.476393932920331 22.93047879947342 1.9532787143176407 -0.77714596973225614 0 0.62932038083071107 0.62932038083071107 0 0.77714596973225614 forward_v I I I I #
loop $-1 $-1 $439 $116 #
coedge $-1 $294 $294 $295 $440 reversed $183 $-1 #
coedge $-1 $295 $295 $294 $440 forward $185 $-1 #
coedge $-1 $296 $296 $186 $297 forward $291 $-1 #
edge $-1 $441 0 $441 6.2831853071796004 $296 $442 forward 7 unknown #
loop $-1 $-1 $303 $187 #
plane-surface $-1 -50.476393932920331 22.93047879947342 1.9532787143176407 -0.77714596973225614 0 0.62932038083071107 0.62932038083071107 0 0.77714596973225614 forward_v I I I I #
loop $-1 $-1 $443 $119 #
coedge $-1 $301 $301 $302 $444 reversed $188 $-1 #
coedge $-1 $302 $302 $301 $444 forward $190 $-1 #
coedge $-1 $303 $303 $191 $304 forward $298 $-1 #
edge $-1 $445 0 $445 6.2831853071796004 $303 $446 forward 7 unknown #
face $-1 $447 $448 $62 $-1 $449 reversed single #
loop $-1 $-1 $450 $192 #
plane-surface $-1 18.360402597520149 -25.046212593635772 144.67227317651631 0 1 0 0.52991927123019833 0 0.84804809178421925 forward_v I I I I #
coedge $-1 $451 $452 $453 $454 reversed $193 $-1 #
coedge $-1 $310 $195 $455 $456 reversed $123 $-1 #
coedge $-1 $195 $309 $451 $457 reversed $123 $-1 #
coedge $-1 $453 $458 $195 $312 forward $459 $-1 #
edge $-1 $460 -41.296192634160242 $461 -35.674770378357465 $311 $462 forward 7 unknown #
loop $-1 $-1 $318 $196 #
plane-surface $-1 -35.136425177002927 -18.991413984472075 59.059454066593077 0.52991927123019833 0 0.84804809178421925 0.84804809178421925 0 -0.52991927123019833 forward_v I I I I #
loop $-1 $-1 $463 $125 #
coedge $-1 $316 $316 $317 $464 reversed $197 $-1 #
coedge $-1 $317 $317 $316 $464 forward $199 $-1 #
coedge $-1 $318 $318 $200 $319 forward $313 $-1 #
edge $-1 $465 0 $465 6.2831853071796004 $318 $466 forward 7 unknown #
face $-1 $467 $468 $48 $-1 $469 reversed single #
loop $-1 $-1 $470 $201 #
plane-surface $-1 -50.476393932920317 0 0 1 0 0 0 0 -1 forward_v I I I I #
coedge $-1 $471 $331 $472 $473 forward $202 $-1 #
coedge $-1 $474 $204 $471 $475 forward $129 $-1 #
coedge $-1 $204 $474 $476 $477 forward $129 $-1 #
coedge $-1 $334 $333 $204 $327 reversed $335 $-1 #
edge $-1 $478 -33.402195651914965 $479 33.402195651914965 $326 $480 forward 7 unknown #
coedge $-1 $206 $205 $481 $482 forward $81 $-1 #
coedge $-1 $483 $484 $205 $330 reversed $468 $-1 #
edge $-1 $337 -50.476393932920317 $485 50.476393932920317 $329 $486 forward 7 unknown #
coedge $-1 $323 $487 $206 $332 reversed $202 $-1 #
edge $-1 $488 -50.476393932920317 $336 50.476393932920317 $331 $489 forward 7 unknown #
coedge $-1 $326 $207 $487 $490 forward $335 $-1 #
coedge $-1 $207 $326 $483 $491 reversed $335 $-1 #
loop $-1 $-1 $333 $467 #
vertex $-1 $208 $492 #
vertex $-1 $208 $493 #
straight-curve $-1 50.476393932920317 0 9.0752808383527128 0 1 0 I I #
face $-1 $494 $495 $49 $-1 $496 reversed single #
loop $-1 $-1 $345 $209 #
plane-surface $-1 50.476393932920317 0 0 -1 0 0 0 0 1 forward_v I I I I #
coedge $-1 $497 $498 $343 $499 forward $210 $-1 #
coedge $-1 $500 $212 $342 $499 reversed $133 $-1 #
coedge $-1 $212 $500 $213 $348 reversed $133 $-1 #
coedge $-1 $215 $501 $212 $346 forward $340 $-1 #
edge $-1 $502 -5.5095210986960437 $352 -1.6219983806172946 $345 $503 forward 7 unknown #
coedge $-1 $214 $213 $504 $505 reversed $84 $-1 #
edge $-1 $352 -50.476393932920317 $506 50.476393932920317 $344 $507 forward 7 unknown #
coedge $-1 $508 $509 $214 $350 forward $495 $-1 #
edge $-1 $353 -50.476393932920317 $510 50.476393932920317 $349 $511 forward 7 unknown #
coedge $-1 $501 $215 $509 $512 forward $340 $-1 #
vertex $-1 $216 $513 #
vertex $-1 $512 $514 #
straight-curve $-1 50.476393932920317 -14.612102061387684 -5.1877581202739638 0 -1 0 I I #
face $-1 $-1 $515 $50 $-1 $516 reversed single #
loop $-1 $-1 $223 $217 #
plane-surface $-1 0 0 9.0752808383527128 0 0 1 1 0 0 forward_v I I I I #
coedge $-1 $517 $518 $519 $520 reversed $218 $-1 #
coedge $-1 $521 $220 $222 $365 forward $137 $-1 #
coedge $-1 $220 $521 $517 $522 forward $137 $-1 #
coedge $-1 $519 $223 $220 $362 forward $356 $-1 #
edge $-1 $368 -14.593298901290954 $523 -6.3125284833986832 $361 $524 forward 7 unknown #
coedge $-1 $525 $526 $221 $364 forward $515 $-1 #
edge $-1 $527 -30.789184095667569 $367 -23.667181971632516 $363 $528 forward 7 unknown #
edge $-1 $368 -9.1643042638293011 $527 -2.2575505016944882e-014 $222 $529 forward 7 unknown #
coedge $-1 $223 $519 $525 $530 forward $356 $-1 #
vertex $-1 $364 $531 #
vertex $-1 $224 $532 #
straight-curve $-1 -64.465723078046892 -25.046212593635772 9.075280838352711 1 0 0 I I #
coedge $-1 $370 $370 $-1 $533 reversed $227 $-1 #
edge $-1 $534 0 $534 6.2831853071796004 $228 $535 forward 7 unknown #
vertex $-1 $231 $536 #
ellipse-curve $-1 -47.592752208239546 -22.680278188523694 5.5142797763351847 -0.77714596973225614 0 0.62932038083071107 0.31466019041535553 0 0.38857298486612807 1 I I #
coedge $-1 $374 $374 $-1 $537 reversed $234 $-1 #
edge $-1 $538 0 $538 6.2831853071796004 $235 $539 forward 7 unknown #
vertex $-1 $238 $540 #
ellipse-curve $-1 -47.592752208239546 -19.131376580855576 5.5142797763351847 -0.77714596973225614 0 0.62932038083071107 0.31466019041535553 0 0.38857298486612807 1 I I #
face $-1 $-1 $541 $53 $-1 $542 reversed single #
loop $-1 $-1 $245 $239 #
plane-surface $-1 0 0 9.0752808383527128 0 0 1 1 0 0 forward_v I I I I #
coedge $-1 $543 $544 $545 $546 reversed $240 $-1 #
coedge $-1 $547 $242 $244 $388 forward $151 $-1 #
coedge $-1 $242 $547 $543 $548 forward $151 $-1 #
coedge $-1 $545 $245 $242 $385 forward $379 $-1 #
edge $-1 $391 -7.2872478705971115 $549 0.99352254729516254 $384 $550 forward 7 unknown #
coedge $-1 $551 $552 $243 $387 forward $541 $-1 #
edge $-1 $553 -30.789184095667569 $390 -23.667181971632516 $386 $554 forward 7 unknown #
edge $-1 $391 -9.1643042638293011 $553 -2.2575505016944882e-014 $244 $555 forward 7 unknown #
coedge $-1 $245 $545 $551 $556 forward $379 $-1 #
vertex $-1 $246 $557 #
vertex $-1 $246 $558 #
straight-curve $-1 -64.465723078046892 -10.434110532248086 9.075280838352711 1 0 0 I I #
coedge $-1 $393 $393 $-1 $559 reversed $249 $-1 #
edge $-1 $560 0 $560 6.2831853071796004 $250 $561 forward 7 unknown #
vertex $-1 $253 $562 #
ellipse-curve $-1 -47.592752208239546 -8.0681761271360095 5.5142797763351847 -0.77714596973225614 0 0.62932038083071107 0.31466019041535553 0 0.38857298486612807 1 I I #
coedge $-1 $397 $397 $-1 $563 reversed $256 $-1 #
edge $-1 $564 0 $564 6.2831853071796004 $257 $565 forward 7 unknown #
vertex $-1 $260 $566 #
ellipse-curve $-1 -47.592752208239546 -4.519274519467892 5.5142797763351847 -0.77714596973225614 0 0.62932038083071107 0.31466019041535553 0 0.38857298486612807 1 I I #
face $-1 $-1 $567 $56 $-1 $568 reversed single #
loop $-1 $-1 $267 $261 #
plane-surface $-1 0 0 9.0752808383527128 0 0 1 1 0 0 forward_v I I I I #
coedge $-1 $569 $570 $571 $572 reversed $262 $-1 #
coedge $-1 $573 $264 $266 $411 forward $165 $-1 #
coedge $-1 $264 $573 $569 $574 forward $165 $-1 #
coedge $-1 $571 $267 $264 $408 forward $402 $-1 #
edge $-1 $414 0.018803160096728888 $575 8.299573577989003 $407 $576 forward 7 unknown #
coedge $-1 $577 $578 $265 $410 forward $567 $-1 #
edge $-1 $579 -30.789184095667569 $413 -23.667181971632516 $409 $580 forward 7 unknown #
edge $-1 $414 -9.1643042638293011 $579 -2.2575505016944882e-014 $266 $581 forward 7 unknown #
coedge $-1 $267 $571 $577 $582 forward $402 $-1 #
vertex $-1 $268 $583 #
vertex $-1 $268 $584 #
straight-curve $-1 -64.465723078046892 4.1779915291395948 9.075280838352711 1 0 0 I I #
coedge $-1 $416 $416 $-1 $585 reversed $271 $-1 #
edge $-1 $586 0 $586 6.2831853071796004 $272 $587 forward 7 unknown #
vertex $-1 $275 $588 #
ellipse-curve $-1 -47.592752208239546 6.5439259342516749 5.5142797763351847 -0.77714596973225614 0 0.62932038083071107 0.31466019041535553 0 0.38857298486612807 1 I I #
coedge $-1 $420 $420 $-1 $589 reversed $278 $-1 #
edge $-1 $590 0 $590 6.2831853071796004 $279 $591 forward 7 unknown #
vertex $-1 $282 $592 #
ellipse-curve $-1 -47.592752208239546 10.092827541919789 5.5142797763351847 -0.77714596973225614 0 0.62932038083071107 0.31466019041535553 0 0.38857298486612807 1 I I #
face $-1 $-1 $593 $59 $-1 $594 reversed single #
loop $-1 $-1 $289 $283 #
plane-surface $-1 0 0 9.0752808383527128 0 0 1 1 0 0 forward_v I I I I #
coedge $-1 $595 $596 $597 $598 reversed $284 $-1 #
coedge $-1 $599 $286 $288 $434 forward $179 $-1 #
coedge $-1 $286 $599 $595 $600 forward $179 $-1 #
coedge $-1 $597 $289 $286 $431 forward $425 $-1 #
edge $-1 $437 7.3248541907905746 $601 15.605624608682845 $430 $602 forward 7 unknown #
coedge $-1 $603 $604 $287 $433 forward $593 $-1 #
edge $-1 $605 -30.789184095667569 $436 -23.667181971632516 $432 $606 forward 7 unknown #
edge $-1 $437 -9.1643042638293011 $605 -2.2575505016944882e-014 $288 $607 forward 7 unknown #
coedge $-1 $289 $597 $603 $608 forward $425 $-1 #
vertex $-1 $290 $609 #
vertex $-1 $290 $610 #
straight-curve $-1 -64.465723078046892 18.790093590527285 9.075280838352711 1 0 0 I I #
coedge $-1 $439 $439 $-1 $611 reversed $293 $-1 #
edge $-1 $612 0 $612 6.2831853071796004 $294 $613 forward 7 unknown #
vertex $-1 $297 $614 #
ellipse-curve $-1 -47.592752208239546 21.156027995639363 5.5142797763351847 -0.77714596973225614 0 0.62932038083071107 0.31466019041535553 0 0.38857298486612807 1 I I #
coedge $-1 $443 $443 $-1 $615 reversed $300 $-1 #
edge $-1 $616 0 $616 6.2831853071796004 $301 $617 forward 7 unknown #
vertex $-1 $304 $618 #
ellipse-curve $-1 -47.592752208239546 24.704929603307477 5.5142797763351847 -0.77714596973225614 0 0.62932038083071107 0.31466019041535553 0 0.38857298486612807 1 I I #
face $-1 $-1 $459 $62 $-1 $619 forward single #
loop $-1 $-1 $620 $305 #
plane-surface $-1 50.476393932920317 0 0 -1 0 0 0 0 1 forward_v I I I I #
coedge $-1 $621 $622 $623 $624 reversed $306 $-1 #
coedge $-1 $625 $308 $310 $457 forward $193 $-1 #
coedge $-1 $308 $625 $621 $626 forward $193 $-1 #
coedge $-1 $623 $311 $308 $454 forward $459 $-1 #
edge $-1 $461 3.4409083830723421 $627 15.550505601399735 $453 $628 forward 7 unknown #
coedge $-1 $629 $630 $309 $456 forward $448 $-1 #
edge $-1 $631 -66.773510296188164 $460 -63.260855749905446 $455 $632 forward 7 unknown #
edge $-1 $461 94.324128111444196 $631 100.95278786584065 $310 $633 forward 7 unknown #
coedge $-1 $311 $623 $629 $634 forward $459 $-1 #
loop $-1 $-1 $623 $447 #
vertex $-1 $456 $635 #
vertex $-1 $312 $636 #
straight-curve $-1 9.1802012987600747 -12.93661537530838 9.075280838352711 -1 0 0 I I #
coedge $-1 $463 $463 $-1 $637 reversed $315 $-1 #
edge $-1 $638 0 $638 6.2831853071796004 $316 $639 forward 7 unknown #
vertex $-1 $319 $640 #
ellipse-curve $-1 47.665682805018918 -18.991413984472075 7.3189535652113591 0.52991927123019833 0 0.84804809178421925 0.84804809178421925 0 -0.52991927123019833 1 I I #
face $-1 $-1 $335 $48 $-1 $641 reversed single #
loop $-1 $-1 $483 $320 #
plane-surface $-1 0 33.402195651914965 0 0 -1 0 0 0 -1 forward_v I I I I #
coedge $-1 $642 $481 $484 $643 forward $321 $-1 #
coedge $-1 $487 $323 $324 $475 reversed $202 $-1 #
coedge $-1 $481 $642 $323 $473 reversed $321 $-1 #
edge $-1 $488 -9.0752808383527128 $644 9.0752808383527128 $472 $645 forward 7 unknown #
coedge $-1 $325 $324 $642 $646 forward $129 $-1 #
edge $-1 $479 -50.476393932920317 $644 50.476393932920317 $471 $647 forward 7 unknown #
coedge $-1 $484 $483 $325 $477 reversed $468 $-1 #
edge $-1 $648 -50.476393932920317 $478 50.476393932920317 $476 $649 forward 7 unknown #
vertex $-1 $327 $650 #
vertex $-1 $490 $651 #
straight-curve $-1 50.476393932920317 0 -9.0752808383527128 0 -1 0 I I #
coedge $-1 $470 $472 $328 $482 reversed $321 $-1 #
edge $-1 $485 -33.402195651914965 $488 33.402195651914965 $481 $652 forward 7 unknown #
coedge $-1 $476 $329 $334 $491 forward $468 $-1 #
coedge $-1 $329 $476 $470 $643 reversed $468 $-1 #
vertex $-1 $330 $653 #
straight-curve $-1 0 33.402195651914965 9.0752808383527128 -1 0 0 I I #
coedge $-1 $331 $471 $333 $490 reversed $202 $-1 #
vertex $-1 $482 $654 #
straight-curve $-1 0 -33.402195651914965 9.0752808383527128 1 0 0 I I #
edge $-1 $336 -9.0752808383527128 $479 9.0752808383527128 $333 $655 forward 7 unknown #
edge $-1 $337 -9.0752808383527128 $478 9.0752808383527128 $334 $656 forward 7 unknown #
point $-1 50.476393932920317 -33.402195651914965 9.0752808383527128 #
point $-1 50.476393932920317 33.402195651914965 9.0752808383527128 #
face $-1 $-1 $657 $49 $-1 $658 reversed single #
loop $-1 $-1 $349 $339 #
plane-surface $-1 0 -33.402195651914965 0 0 1 0 0 0 1 forward_v I I I I #
coedge $-1 $659 $342 $501 $660 forward $210 $-1 #
coedge $-1 $342 $659 $661 $662 forward $210 $-1 #
edge $-1 $663 -50.476393932920317 $502 50.476393932920317 $342 $664 forward 7 unknown #
coedge $-1 $344 $343 $665 $666 reversed $133 $-1 #
coedge $-1 $345 $351 $497 $660 reversed $340 $-1 #
vertex $-1 $660 $667 #
straight-curve $-1 50.476393932920317 -25.046212593635772 -3.5657597396566691 0 0 1 I I #
coedge $-1 $665 $668 $347 $505 forward $657 $-1 #
edge $-1 $510 -18.790093590527281 $506 -10.434110532248088 $504 $669 forward 7 unknown #
vertex $-1 $505 $670 #
straight-curve $-1 0 -25.046212593635772 -5.1877581202739638 -1 0 0 I I #
coedge $-1 $671 $349 $668 $672 forward $495 $-1 #
coedge $-1 $349 $671 $351 $512 reversed $495 $-1 #
vertex $-1 $672 $673 #
straight-curve $-1 0 -33.402195651914965 -5.1877581202739638 -1 0 0 I I #
edge $-1 $353 5.1877581202739638 $674 9.0752808383527128 $351 $675 forward 7 unknown #
point $-1 50.476393932920317 -25.046212593635772 -5.1877581202739638 #
point $-1 50.476393932920317 -33.402195651914965 -5.1877581202739638 #
loop $-1 $-1 $363 $355 #
plane-surface $-1 -50.476393932920317 0 0 1 0 0 0 0 -1 forward_v I I I I #
coedge $-1 $518 $358 $360 $522 reversed $218 $-1 #
coedge $-1 $358 $517 $676 $677 reversed $218 $-1 #
coedge $-1 $366 $361 $358 $520 forward $356 $-1 #
edge $-1 $523 -19.756612594488125 $678 -13.989329145126575 $519 $679 forward 7 unknown #
coedge $-1 $360 $359 $526 $680 reversed $137 $-1 #
edge $-1 $681 2.2575505016944882e-014 $523 9.1643042638293011 $517 $682 forward 7 unknown #
vertex $-1 $362 $683 #
straight-curve $-1 -44.709110483558767 -10.452913692344818 9.0752808383527146 0 1 0 I I #
coedge $-1 $676 $363 $366 $530 reversed $515 $-1 #
coedge $-1 $363 $676 $521 $680 forward $515 $-1 #
vertex $-1 $364 $684 #
straight-curve $-1 -50.476393932920317 -25.046212593635772 32.742462809985227 0 0 1 I I #
straight-curve $-1 -50.476393932920331 -25.046212593635772 1.9532787143176407 -0.62932038083071107 0 -0.77714596973225614 I I #
edge $-1 $678 16.765442175743502 $367 25.046212593635772 $525 $685 forward 7 unknown #
point $-1 -50.476393932920317 -25.046212593635772 9.0752808383527128 #
point $-1 -44.709110483558767 -25.046212593635772 9.0752808383527128 #
edge $-1 $686 1 $686 0 $370 $-1 forward 7 unknown #
vertex $-1 $371 $687 #
ellipse-curve $-1 -46.815606238507272 -22.680278188523694 4.8849593955044632 -0.77714596973225614 0 0.62932038083071107 0.31466019041535553 0 0.38857298486612807 1 I I #
point $-1 -47.278092017824171 -22.680278188523694 5.9028527612013022 #
edge $-1 $688 1 $688 0 $374 $-1 forward 7 unknown #
vertex $-1 $375 $689 #
ellipse-curve $-1 -46.815606238507272 -19.131376580855576 4.8849593955044632 -0.77714596973225614 0 0.62932038083071107 0.31466019041535553 0 0.38857298486612807 1 I I #
point $-1 -47.278092017824171 -19.131376580855576 5.9028527612013022 #
loop $-1 $-1 $386 $378 #
plane-surface $-1 -50.476393932920317 0 0 1 0 0 0 0 -1 forward_v I I I I #
coedge $-1 $544 $381 $383 $548 reversed $240 $-1 #
coedge $-1 $381 $543 $690 $691 reversed $240 $-1 #
coedge $-1 $389 $384 $381 $546 forward $379 $-1 #
edge $-1 $549 -19.756612594488125 $692 -13.989329145126575 $545 $693 forward 7 unknown #
coedge $-1 $383 $382 $552 $694 reversed $151 $-1 #
edge $-1 $695 2.2575505016944882e-014 $549 9.1643042638293011 $543 $696 forward 7 unknown #
vertex $-1 $385 $697 #
straight-curve $-1 -44.709110483558767 -3.1468626616509745 9.0752808383527146 0 1 0 I I #
coedge $-1 $690 $386 $389 $556 reversed $541 $-1 #
coedge $-1 $386 $690 $547 $694 forward $541 $-1 #
vertex $-1 $387 $698 #
straight-curve $-1 -50.476393932920317 -10.434110532248086 32.742462809985227 0 0 1 I I #
straight-curve $-1 -50.476393932920331 -10.434110532248086 1.9532787143176407 -0.62932038083071107 0 -0.77714596973225614 I I #
edge $-1 $692 2.153340114355812 $390 10.434110532248086 $551 $699 forward 7 unknown #
point $-1 -50.476393932920317 -10.434110532248086 9.0752808383527128 #
point $-1 -44.709110483558767 -10.434110532248086 9.0752808383527128 #
edge $-1 $700 1 $700 0 $393 $-1 forward 7 unknown #
vertex $-1 $394 $701 #
ellipse-curve $-1 -46.815606238507272 -8.0681761271360095 4.8849593955044632 -0.77714596973225614 0 0.62932038083071107 0.31466019041535553 0 0.38857298486612807 1 I I #
point $-1 -47.278092017824171 -8.0681761271360095 5.9028527612013022 #
edge $-1 $702 1 $702 0 $397 $-1 forward 7 unknown #
vertex $-1 $398 $703 #
ellipse-curve $-1 -46.815606238507272 -4.519274519467892 4.8849593955044632 -0.77714596973225614 0 0.62932038083071107 0.31466019041535553 0 0.38857298486612807 1 I I #
point $-1 -47.278092017824171 -4.519274519467892 5.9028527612013022 #
loop $-1 $-1 $409 $401 #
plane-surface $-1 -50.476393932920317 0 0 1 0 0 0 0 -1 forward_v I I I I #
coedge $-1 $570 $404 $406 $574 reversed $262 $-1 #
coedge $-1 $404 $569 $704 $705 reversed $262 $-1 #
coedge $-1 $412 $407 $404 $572 forward $402 $-1 #
edge $-1 $575 -19.756612594488125 $706 -13.989329145126575 $571 $707 forward 7 unknown #
coedge $-1 $406 $405 $578 $708 reversed $165 $-1 #
edge $-1 $709 2.2575505016944882e-014 $575 9.1643042638293011 $569 $710 forward 7 unknown #
vertex $-1 $408 $711 #
straight-curve $-1 -44.709110483558767 4.1591883690428659 9.0752808383527146 0 1 0 I I #
coedge $-1 $704 $409 $412 $582 reversed $567 $-1 #
coedge $-1 $409 $704 $573 $708 forward $567 $-1 #
vertex $-1 $410 $712 #
straight-curve $-1 -50.476393932920317 4.1779915291395948 32.742462809985227 0 0 1 I I #
straight-curve $-1 -50.476393932920331 4.1779915291395948 1.9532787143176407 -0.62932038083071107 0 -0.77714596973225614 I I #
edge $-1 $706 -12.458761947031869 $413 -4.1779915291395948 $577 $713 forward 7 unknown #
point $-1 -50.476393932920317 4.1779915291395948 9.0752808383527128 #
point $-1 -44.709110483558767 4.1779915291395948 9.0752808383527128 #
edge $-1 $714 1 $714 0 $416 $-1 forward 7 unknown #
vertex $-1 $417 $715 #
ellipse-curve $-1 -46.815606238507272 6.5439259342516749 4.8849593955044632 -0.77714596973225614 0 0.62932038083071107 0.31466019041535553 0 0.38857298486612807 1 I I #
point $-1 -47.278092017824171 6.5439259342516749 5.9028527612013022 #
edge $-1 $716 1 $716 0 $420 $-1 forward 7 unknown #
vertex $-1 $421 $717 #
ellipse-curve $-1 -46.815606238507272 10.092827541919789 4.8849593955044632 -0.77714596973225614 0 0.62932038083071107 0.31466019041535553 0 0.38857298486612807 1 I I #
point $-1 -47.278092017824171 10.092827541919789 5.9028527612013022 #
loop $-1 $-1 $432 $424 #
plane-surface $-1 -50.476393932920317 0 0 1 0 0 0 0 -1 forward_v I I I I #
coedge $-1 $596 $427 $429 $600 reversed $284 $-1 #
coedge $-1 $427 $595 $718 $719 reversed $284 $-1 #
coedge $-1 $435 $430 $427 $598 forward $425 $-1 #
edge $-1 $601 -19.756612594488125 $720 -13.989329145126575 $597 $721 forward 7 unknown #
coedge $-1 $429 $428 $604 $722 reversed $179 $-1 #
edge $-1 $723 2.2575505016944882e-014 $601 9.1643042638293011 $595 $724 forward 7 unknown #
vertex $-1 $431 $725 #
straight-curve $-1 -44.709110483558767 11.46523939973671 9.0752808383527146 0 1 0 I I #
coedge $-1 $718 $432 $435 $608 reversed $593 $-1 #
coedge $-1 $432 $718 $599 $722 forward $593 $-1 #
vertex $-1 $433 $726 #
straight-curve $-1 -50.476393932920317 18.790093590527285 32.742462809985227 0 0 1 I I #
straight-curve $-1 -50.476393932920331 18.790093590527285 1.9532787143176407 -0.62932038083071107 0 -0.77714596973225614 I I #
edge $-1 $720 -27.070864008419555 $436 -18.790093590527285 $603 $727 forward 7 unknown #
point $-1 -50.476393932920317 18.790093590527285 9.0752808383527128 #
point $-1 -44.709110483558767 18.790093590527285 9.0752808383527128 #
edge $-1 $728 1 $728 0 $439 $-1 forward 7 unknown #
vertex $-1 $440 $729 #
ellipse-curve $-1 -46.815606238507272 21.156027995639363 4.8849593955044632 -0.77714596973225614 0 0.62932038083071107 0.31466019041535553 0 0.38857298486612807 1 I I #
point $-1 -47.278092017824171 21.156027995639363 5.9028527612013022 #
edge $-1 $730 1 $730 0 $443 $-1 forward 7 unknown #
vertex $-1 $444 $731 #
ellipse-curve $-1 -46.815606238507272 24.704929603307477 4.8849593955044632 -0.77714596973225614 0 0.62932038083071107 0.31466019041535553 0 0.38857298486612807 1 I I #
point $-1 -47.278092017824171 24.704929603307477 5.9028527612013022 #
plane-surface $-1 0 0 9.0752808383527128 0 0 1 1 0 0 forward_v I I I I #
coedge $-1 $630 $629 $622 $732 forward $448 $-1 #
coedge $-1 $622 $450 $452 $626 reversed $306 $-1 #
coedge $-1 $450 $621 $620 $732 reversed $306 $-1 #
coedge $-1 $458 $453 $450 $624 forward $459 $-1 #
edge $-1 $627 35.674770378357465 $733 41.296192634160242 $623 $734 forward 7 unknown #
coedge $-1 $452 $451 $630 $735 reversed $193 $-1 #
edge $-1 $736 -100.95278786584065 $627 -94.324128111444196 $621 $737 forward 7 unknown #
vertex $-1 $454 $738 #
straight-curve $-1 44.854971677117561 -9.4957069922360375 9.0752808383527039 0 -1 0 I I #
coedge $-1 $620 $455 $458 $634 reversed $448 $-1 #
coedge $-1 $455 $620 $625 $735 forward $448 $-1 #
vertex $-1 $456 $739 #
straight-curve $-1 50.476393932920317 -12.93661537530838 72.336136588258157 0 0 1 I I #
straight-curve $-1 -35.136425177002927 -12.93661537530838 59.059454066593077 0.84804809178421925 0 -0.52991927123019833 I I #
edge $-1 $733 -25.046212593635772 $460 -12.93661537530838 $629 $740 forward 7 unknown #
point $-1 50.476393932920317 -12.93661537530838 9.0752808383527128 #
point $-1 44.85497167711754 -12.93661537530838 9.075280838352711 #
edge $-1 $741 1 $741 0 $463 $-1 forward 7 unknown #
vertex $-1 $464 $742 #
ellipse-curve $-1 45.678311685182948 -18.991413984472075 4.1384949985104997 0.52991927123019833 0 0.84804809178421925 0.84804809178421925 0 -0.52991927123019833 1 I I #
point $-1 48.513730896803139 -18.991413984472075 6.7890342939811692 #
plane-surface $-1 50.476393932920317 0 0 -1 0 0 0 0 1 forward_v I I I I #
coedge $-1 $472 $470 $474 $646 reversed $321 $-1 #
edge $-1 $485 -9.0752808383527128 $648 9.0752808383527128 $484 $743 forward 7 unknown #
vertex $-1 $646 $744 #
straight-curve $-1 -50.476393932920317 -33.402195651914965 0 0 0 -1 I I #
edge $-1 $644 -33.402195651914965 $648 33.402195651914965 $642 $745 forward 7 unknown #
straight-curve $-1 0 -33.402195651914965 -9.0752808383527128 -1 0 0 I I #
vertex $-1 $477 $746 #
straight-curve $-1 0 33.402195651914965 -9.0752808383527128 1 0 0 I I #
point $-1 50.476393932920317 33.402195651914965 -9.0752808383527128 #
point $-1 50.476393932920317 -33.402195651914965 -9.0752808383527128 #
straight-curve $-1 -50.476393932920317 0 9.0752808383527128 0 -1 0 I I #
point $-1 -50.476393932920317 33.402195651914965 9.0752808383527128 #
point $-1 -50.476393932920317 -33.402195651914965 9.0752808383527128 #
straight-curve $-1 50.476393932920317 -33.402195651914965 0 0 0 -1 I I #
straight-curve $-1 50.476393932920317 33.402195651914965 0 0 0 -1 I I #
loop $-1 $-1 $665 $494 #
plane-surface $-1 -50.476393932920317 0 0 1 0 0 0 0 -1 forward_v I I I I #
coedge $-1 $498 $497 $671 $747 forward $210 $-1 #
edge $-1 $502 25.046212593635772 $674 33.402195651914965 $501 $748 forward 7 unknown #
coedge $-1 $668 $665 $498 $662 reversed $657 $-1 #
edge $-1 $749 -33.402195651914965 $663 -25.046212593635772 $661 $750 forward 7 unknown #
vertex $-1 $666 $751 #
straight-curve $-1 0 -25.046212593635772 -9.0752808383527128 1 0 0 I I #
coedge $-1 $661 $504 $500 $666 forward $657 $-1 #
edge $-1 $506 1.6219983806172946 $663 5.5095210986960437 $665 $752 forward 7 unknown #
point $-1 50.476393932920317 -25.046212593635772 -9.0752808383527128 #
coedge $-1 $504 $661 $508 $672 reversed $657 $-1 #
straight-curve $-1 -50.476393932920317 -14.612102061387684 -5.1877581202739638 0 1 0 I I #
point $-1 -50.476393932920317 -25.046212593635772 -5.1877581202739638 #
coedge $-1 $509 $508 $659 $747 reversed $495 $-1 #
edge $-1 $510 5.1877581202739638 $749 9.0752808383527128 $668 $753 forward 7 unknown #
point $-1 -50.476393932920317 -33.402195651914965 -5.1877581202739638 #
vertex $-1 $512 $754 #
straight-curve $-1 50.476393932920317 -33.402195651914965 0 0 0 -1 I I #
coedge $-1 $526 $525 $518 $677 forward $515 $-1 #
edge $-1 $678 23.667181971632516 $681 30.789184095667569 $676 $755 forward 7 unknown #
vertex $-1 $530 $756 #
straight-curve $-1 -64.465723078046892 -16.765442175743502 9.075280838352711 -1 0 0 I I #
edge $-1 $681 6.3125284833986832 $527 14.593298901290954 $526 $757 forward 7 unknown #
vertex $-1 $680 $758 #
straight-curve $-1 -50.476393932920331 -16.765442175743502 1.9532787143176407 0.62932038083071107 0 0.77714596973225614 I I #
point $-1 -44.709110483558767 -16.765442175743502 9.0752808383527128 #
point $-1 -50.476393932920317 -25.046212593635772 1.9532787143176582 #
straight-curve $-1 -50.476393932920317 0 9.0752808383527128 0 -1 0 I I #
vertex $-1 $533 $759 #
point $-1 -46.500946048091912 -22.680278188523694 5.2735323803705914 #
vertex $-1 $537 $760 #
point $-1 -46.500946048091912 -19.131376580855576 5.2735323803705914 #
coedge $-1 $552 $551 $544 $691 forward $541 $-1 #
edge $-1 $692 23.667181971632516 $695 30.789184095667569 $690 $761 forward 7 unknown #
vertex $-1 $556 $762 #
straight-curve $-1 -64.465723078046892 -2.153340114355812 9.075280838352711 -1 0 0 I I #
edge $-1 $695 -0.99352254729516254 $553 7.2872478705971115 $552 $763 forward 7 unknown #
vertex $-1 $694 $764 #
straight-curve $-1 -50.476393932920331 -2.153340114355812 1.9532787143176407 0.62932038083071107 0 0.77714596973225614 I I #
point $-1 -44.709110483558767 -2.153340114355812 9.0752808383527128 #
point $-1 -50.476393932920317 -10.434110532248086 1.9532787143176582 #
straight-curve $-1 -50.476393932920317 0 9.0752808383527128 0 -1 0 I I #
vertex $-1 $559 $765 #
point $-1 -46.500946048091912 -8.0681761271360095 5.2735323803705914 #
vertex $-1 $563 $766 #
point $-1 -46.500946048091912 -4.519274519467892 5.2735323803705914 #
coedge $-1 $578 $577 $570 $705 forward $567 $-1 #
edge $-1 $706 23.667181971632516 $709 30.789184095667569 $704 $767 forward 7 unknown #
vertex $-1 $582 $768 #
straight-curve $-1 -64.465723078046892 12.458761947031869 9.075280838352711 -1 0 0 I I #
edge $-1 $709 -8.299573577989003 $579 -0.018803160096728888 $578 $769 forward 7 unknown #
vertex $-1 $708 $770 #
straight-curve $-1 -50.476393932920331 12.458761947031869 1.9532787143176407 0.62932038083071107 0 0.77714596973225614 I I #
point $-1 -44.709110483558767 12.458761947031869 9.0752808383527128 #
point $-1 -50.476393932920317 4.1779915291395948 1.9532787143176582 #
straight-curve $-1 -50.476393932920317 0 9.0752808383527128 0 -1 0 I I #
vertex $-1 $585 $771 #
point $-1 -46.500946048091912 6.5439259342516749 5.2735323803705914 #
vertex $-1 $589 $772 #
point $-1 -46.500946048091912 10.092827541919789 5.2735323803705914 #
coedge $-1 $604 $603 $596 $719 forward $593 $-1 #
edge $-1 $720 23.667181971632516 $723 30.789184095667569 $718 $773 forward 7 unknown #
vertex $-1 $608 $774 #
straight-curve $-1 -64.465723078046892 27.070864008419555 9.075280838352711 -1 0 0 I I #
edge $-1 $723 -15.605624608682845 $605 -7.3248541907905746 $604 $775 forward 7 unknown #
vertex $-1 $722 $776 #
straight-curve $-1 -50.476393932920331 27.070864008419555 1.9532787143176407 0.62932038083071107 0 0.77714596973225614 I I #
point $-1 -44.709110483558767 27.070864008419555 9.0752808383527128 #
point $-1 -50.476393932920317 18.790093590527285 1.9532787143176582 #
straight-curve $-1 -50.476393932920317 0 9.0752808383527128 0 -1 0 I I #
vertex $-1 $611 $777 #
point $-1 -46.500946048091912 21.156027995639363 5.2735323803705914 #
vertex $-1 $615 $778 #
point $-1 -46.500946048091912 24.704929603307477 5.2735323803705914 #
edge $-1 $733 63.260855749905446 $736 66.773510296188164 $620 $779 forward 7 unknown #
vertex $-1 $634 $780 #
straight-curve $-1 9.1802012987600747 -25.046212593635772 9.075280838352711 1 0 0 I I #
edge $-1 $736 -15.550505601399735 $631 -3.4409083830723421 $630 $781 forward 7 unknown #
vertex $-1 $735 $782 #
straight-curve $-1 -35.136425177002927 -25.046212593635772 59.059454066593077 -0.84804809178421925 0 0.52991927123019833 I I #
point $-1 44.85497167711754 -25.046212593635772 9.075280838352711 #
point $-1 50.47639393292031 -12.93661537530838 5.56262629207 #
straight-curve $-1 50.476393932920317 0 9.0752808383527128 0 1 0 I I #
vertex $-1 $637 $783 #
point $-1 46.526359776967169 -18.991413984472075 3.608575727280301 #
straight-curve $-1 -50.476393932920317 33.402195651914965 0 0 0 -1 I I #
point $-1 -50.476393932920317 -33.402195651914965 -9.0752808383527128 #
straight-curve $-1 -50.476393932920317 0 -9.0752808383527128 0 1 0 I I #
point $-1 -50.476393932920317 33.402195651914965 -9.0752808383527128 #
edge $-1 $674 -50.476393932920317 $749 50.476393932920317 $671 $784 forward 7 unknown #
straight-curve $-1 50.476393932920317 0 -9.0752808383527128 0 -1 0 I I #
vertex $-1 $662 $785 #
straight-curve $-1 -50.476393932920317 0 -9.0752808383527128 0 1 0 I I #
point $-1 -50.476393932920317 -25.046212593635772 -9.0752808383527128 #
straight-curve $-1 -50.476393932920317 -25.046212593635772 -3.5657597396566691 0 0 -1 I I #
straight-curve $-1 -50.476393932920317 -33.402195651914965 0 0 0 -1 I I #
point $-1 50.476393932920317 -33.402195651914965 -9.0752808383527128 #
straight-curve $-1 -50.476393932920317 -16.765442175743502 32.742462809985227 0 0 -1 I I #
point $-1 -50.476393932920317 -16.765442175743502 9.0752808383527128 #
straight-curve $-1 -50.476393932920317 -10.452913692344818 1.9532787143176567 0 -1 0 I I #
point $-1 -50.476393932920317 -16.765442175743502 1.9532787143176582 #
point $-1 -46.427033253641142 -22.680278188523694 4.5702992050891069 #
point $-1 -46.427033253641142 -19.131376580855576 4.5702992050891069 #
straight-curve $-1 -50.476393932920317 -2.153340114355812 32.742462809985227 0 0 -1 I I #
point $-1 -50.476393932920317 -2.153340114355812 9.0752808383527128 #
straight-curve $-1 -50.476393932920317 -3.1468626616509745 1.9532787143176567 0 -1 0 I I #
point $-1 -50.476393932920317 -2.153340114355812 1.9532787143176582 #
point $-1 -46.427033253641142 -8.0681761271360095 4.5702992050891069 #
point $-1 -46.427033253641142 -4.519274519467892 4.5702992050891069 #
straight-curve $-1 -50.476393932920317 12.458761947031869 32.742462809985227 0 0 -1 I I #
point $-1 -50.476393932920317 12.458761947031869 9.0752808383527128 #
straight-curve $-1 -50.476393932920317 4.1591883690428659 1.9532787143176567 0 -1 0 I I #
point $-1 -50.476393932920317 12.458761947031869 1.9532787143176582 #
point $-1 -46.427033253641142 6.5439259342516749 4.5702992050891069 #
point $-1 -46.427033253641142 10.092827541919789 4.5702992050891069 #
straight-curve $-1 -50.476393932920317 27.070864008419555 32.742462809985227 0 0 -1 I I #
point $-1 -50.476393932920317 27.070864008419555 9.0752808383527128 #
straight-curve $-1 -50.476393932920317 11.46523939973671 1.9532787143176567 0 -1 0 I I #
point $-1 -50.476393932920317 27.070864008419555 1.9532787143176582 #
point $-1 -46.427033253641142 21.156027995639363 4.5702992050891069 #
point $-1 -46.427033253641142 24.704929603307477 4.5702992050891069 #
straight-curve $-1 50.476393932920317 -25.046212593635772 72.336136588258157 0 0 -1 I I #
point $-1 50.476393932920317 -25.046212593635772 9.0752808383527128 #
straight-curve $-1 50.476393932920324 -9.4957069922360375 5.5626262920699929 0 1 0 I I #
point $-1 50.47639393292031 -25.046212593635772 5.56262629207 #
point $-1 45.148392413952749 -18.991413984472075 3.29044690672628 #
straight-curve $-1 0 -33.402195651914965 -9.0752808383527128 -1 0 0 I I #
point $-1 -50.476393932920317 -33.402195651914965 -9.0752808383527128 #
End-of-ACIS-data 