500 0 6 0           
7 Unknown 11 ACIS 5.0 NT 24 Thu Mar 25 17:00:01 1999 
-1 9.9999999999999995e-007 1e-010 
body $-1 $6 $-1 $7 #
body $-1 $8 $-1 $9 #
body $-1 $10 $-1 $11 #
body $-1 $12 $-1 $13 #
body $-1 $14 $-1 $15 #
body $-1 $16 $-1 $17 #
lump $-1 $-1 $18 $0 #
transform $-1 1 0 0 0 1 0 0 0 1 48.922391430402541 20.173637151076175 7.8177692356445583 1 rotate no_reflect no_shear #
lump $-1 $-1 $19 $1 #
transform $-1 1 0 0 0 1 0 0 0 1 48.922391430402541 20.173637151076175 7.8177692356445583 1 rotate no_reflect no_shear #
lump $-1 $-1 $20 $2 #
transform $-1 1 0 0 0 1 0 0 0 1 48.922391430402541 20.173637151076175 7.8177692356445583 1 rotate no_reflect no_shear #
lump $-1 $-1 $21 $3 #
transform $-1 1 0 0 0 1 0 0 0 1 48.922391430402541 20.173637151076175 7.8177692356445583 1 rotate no_reflect no_shear #
lump $-1 $-1 $22 $4 #
transform $-1 1 0 0 0 1 0 0 0 1 48.922391430402541 20.173637151076175 7.8177692356445583 1 rotate no_reflect no_shear #
lump $-1 $-1 $23 $5 #
transform $-1 1 0 0 0 1 0 0 0 1 48.922391430402541 20.173637151076175 7.8177692356445583 1 rotate no_reflect no_shear #
shell $-1 $-1 $-1 $24 $-1 $6 #
shell $-1 $-1 $-1 $25 $-1 $8 #
shell $-1 $-1 $-1 $26 $-1 $10 #
shell $-1 $-1 $-1 $27 $-1 $12 #
shell $-1 $-1 $-1 $28 $-1 $14 #
shell $-1 $-1 $-1 $29 $-1 $16 #
face $-1 $30 $31 $18 $-1 $32 forward single #
face $-1 $33 $34 $19 $-1 $35 forward single #
face $-1 $36 $37 $20 $-1 $38 reversed single #
face $-1 $39 $40 $21 $-1 $41 forward single #
face $-1 $42 $43 $22 $-1 $44 reversed single #
face $-1 $45 $46 $23 $-1 $47 forward single #
face $-1 $48 $49 $18 $-1 $50 reversed single #
loop $-1 $-1 $51 $24 #
plane-surface $-1 0 0 7.8177692356445583 0 0 1 1 0 0 forward_v I I I I #
face $-1 $52 $53 $19 $-1 $54 reversed single #
loop $-1 $-1 $55 $25 #
plane-surface $-1 -48.922391430402541 0 0 1 0 0 0 0 -1 forward_v I I I I #
face $-1 $56 $57 $20 $-1 $58 reversed single #
loop $-1 $-1 $59 $26 #
plane-surface $-1 -22.412557626265041 78.7287302299912 89.910243615131634 1 0 0 0 -0.82903758062907751 -0.55919289150049634 forward_v I I I I #
face $-1 $60 $61 $21 $-1 $62 forward single #
loop $-1 $63 $64 $27 #
cone-surface $-1 -11.60221945775907 16.76326484846199 3.8629696965072746 0 -0.82903758062907751 -0.55919289150049634 1 0 0 1 I I 0 1 1 forward I I I I #
face $-1 $65 $66 $22 $-1 $67 reversed single #
loop $-1 $-1 $68 $28 #
plane-surface $-1 -0.79188128925309975 -101.29063921117546 56.460836942697497 -1 0 0 0 -0.82903758062907751 0.55919289150049634 forward_v I I I I #
face $-1 $69 $70 $23 $-1 $71 forward single #
loop $-1 $72 $73 $29 #
cone-surface $-1 -11.60221945775907 -16.763264848461993 3.8629696965072817 0 0.82903758062907751 -0.55919289150049634 1 0 0 1 I I 0 1 1 forward I I I I #
face $-1 $74 $75 $18 $-1 $76 reversed single #
loop $-1 $-1 $77 $30 #
plane-surface $-1 0 0 -7.8177692356445583 0 0 1 1 0 0 forward_v I I I I #
coedge $-1 $78 $79 $80 $81 forward $31 $-1 #
face $-1 $82 $83 $19 $-1 $84 forward single #
loop $-1 $-1 $85 $33 #
plane-surface $-1 0 20.173637151076175 0 0 -1 0 0 0 -1 forward_v I I I I #
coedge $-1 $86 $87 $88 $89 forward $34 $-1 #
face $-1 $90 $91 $20 $-1 $92 reversed single #
loop $-1 $-1 $93 $36 #
plane-surface $-1 -11.60221945775907 -2.3882718301080814 35.196136568959837 0 0.82903758062907751 0.55919289150049634 1 0 0 forward_v I I I I #
coedge $-1 $94 $95 $96 $97 reversed $37 $-1 #
face $-1 $-1 $98 $21 $-1 $99 forward single #
loop $-1 $100 $101 $39 #
cone-surface $-1 -11.60221945775907 14.985857561924224 2.6640933811791818 0 -0.82903758062907751 -0.55919289150049634 0.5 0 0 1 I I -0.70710678118654746 0.70710678118654746 0.5 forward I I I I #
loop $-1 $-1 $102 $27 #
coedge $-1 $64 $64 $103 $104 reversed $40 $-1 #
face $-1 $105 $106 $22 $-1 $107 reversed single #
loop $-1 $-1 $108 $42 #
plane-surface $-1 -11.60221945775907 -20.173637151076178 1.7467298965257001 0 -0.82903758062907751 0.55919289150049634 1 0 0 forward_v I I I I #
coedge $-1 $109 $110 $111 $112 reversed $43 $-1 #
face $-1 $-1 $113 $23 $-1 $114 forward single #
loop $-1 $115 $116 $45 #
cone-surface $-1 -11.60221945775907 -14.985857561924227 2.6640933811791889 0 0.82903758062907751 -0.55919289150049634 0.5 0 0 1 I I -0.70710678118654746 0.70710678118654746 0.5 forward I I I I #
loop $-1 $-1 $117 $29 #
coedge $-1 $73 $73 $118 $119 reversed $46 $-1 #
face $-1 $120 $121 $18 $-1 $122 reversed single #
loop $-1 $-1 $123 $48 #
plane-surface $-1 0 -20.173637151076175 0 0 1 0 0 0 1 forward_v I I I I #
coedge $-1 $124 $125 $126 $127 forward $49 $-1 #
coedge $-1 $128 $51 $129 $130 forward $31 $-1 #
coedge $-1 $51 $128 $131 $132 forward $31 $-1 #
coedge $-1 $133 $134 $51 $81 reversed $135 $-1 #
edge $-1 $136 -20.173637151076175 $137 20.173637151076175 $80 $138 forward 7 unknown #
face $-1 $139 $140 $19 $-1 $141 reversed single #
loop $-1 $-1 $88 $52 #
plane-surface $-1 -52.333052217817702 0 -2.0772824452344674 0 0 1 1 0 0 forward_v I I I I #
coedge $-1 $142 $143 $87 $144 forward $53 $-1 #
coedge $-1 $145 $55 $146 $147 reversed $34 $-1 #
coedge $-1 $55 $145 $85 $144 reversed $34 $-1 #
coedge $-1 $148 $149 $55 $89 reversed $83 $-1 #
edge $-1 $150 -20.173637151076175 $151 20.173637151076175 $88 $152 forward 7 unknown #
face $-1 $153 $154 $20 $-1 $155 forward single #
loop $-1 $-1 $156 $56 #
plane-surface $-1 -0.79188128925309975 78.7287302299912 89.910243615131634 -1 0 0 0 0.82903758062907751 0.55919289150049634 forward_v I I I I #
coedge $-1 $157 $158 $159 $160 reversed $57 $-1 #
coedge $-1 $95 $59 $161 $162 reversed $37 $-1 #
coedge $-1 $59 $94 $157 $163 reversed $37 $-1 #
coedge $-1 $159 $164 $59 $97 forward $154 $-1 #
edge $-1 $165 19.190727963919425 $166 23.28569557670134 $96 $167 forward 7 unknown #
loop $-1 $-1 $103 $60 #
plane-surface $-1 -11.60221945775907 -2.3882718301080814 35.196136568959837 0 0.82903758062907751 0.55919289150049634 1 0 0 forward_v I I I I #
loop $-1 $-1 $168 $39 #
coedge $-1 $101 $101 $102 $169 reversed $61 $-1 #
coedge $-1 $102 $102 $101 $169 forward $63 $-1 #
coedge $-1 $103 $103 $64 $104 forward $98 $-1 #
edge $-1 $170 -7.3633328823514922e-016 $170 6.2831853071795996 $103 $171 forward 7 unknown #
face $-1 $172 $173 $22 $-1 $174 reversed single #
loop $-1 $-1 $175 $65 #
plane-surface $-1 -22.412557626265041 -101.29063921117546 56.460836942697497 1 0 0 0 0.82903758062907751 -0.55919289150049634 forward_v I I I I #
coedge $-1 $176 $177 $178 $179 reversed $66 $-1 #
coedge $-1 $110 $68 $180 $181 reversed $43 $-1 #
coedge $-1 $68 $109 $176 $182 reversed $43 $-1 #
coedge $-1 $178 $183 $68 $112 forward $184 $-1 #
edge $-1 $185 30.471682454511555 $186 34.566650067293452 $111 $187 forward 7 unknown #
loop $-1 $-1 $118 $69 #
plane-surface $-1 -11.60221945775907 -20.173637151076178 1.7467298965257001 0 -0.82903758062907751 0.55919289150049634 1 0 0 forward_v I I I I #
loop $-1 $-1 $188 $45 #
coedge $-1 $116 $116 $117 $189 reversed $70 $-1 #
coedge $-1 $117 $117 $116 $189 forward $72 $-1 #
coedge $-1 $118 $118 $73 $119 forward $113 $-1 #
edge $-1 $190 1.0279713165030387e-015 $190 6.2831853071796013 $118 $191 forward 7 unknown #
face $-1 $192 $193 $18 $-1 $194 reversed single #
loop $-1 $-1 $195 $74 #
plane-surface $-1 -48.922391430402541 0 0 1 0 0 0 0 -1 forward_v I I I I #
coedge $-1 $196 $131 $195 $197 forward $75 $-1 #
coedge $-1 $198 $77 $196 $199 forward $49 $-1 #
coedge $-1 $77 $198 $200 $201 forward $49 $-1 #
coedge $-1 $134 $133 $77 $127 reversed $135 $-1 #
edge $-1 $202 -20.173637151076175 $203 20.173637151076175 $126 $204 forward 7 unknown #
coedge $-1 $79 $78 $205 $206 forward $31 $-1 #
coedge $-1 $207 $208 $78 $130 reversed $193 $-1 #
edge $-1 $137 -48.922391430402541 $209 48.922391430402541 $129 $210 forward 7 unknown #
coedge $-1 $123 $211 $79 $132 reversed $75 $-1 #
edge $-1 $212 -48.922391430402541 $136 48.922391430402541 $131 $213 forward 7 unknown #
coedge $-1 $126 $80 $211 $214 forward $135 $-1 #
coedge $-1 $80 $126 $207 $215 reversed $135 $-1 #
loop $-1 $-1 $133 $192 #
vertex $-1 $81 $216 #
vertex $-1 $81 $217 #
straight-curve $-1 48.922391430402541 0 7.8177692356445583 0 1 0 I I #
face $-1 $218 $219 $19 $-1 $220 reversed single #
loop $-1 $-1 $221 $82 #
plane-surface $-1 -52.333052217817702 0 -6.5401414393573871 0 0 1 1 0 0 forward_v I I I I #
coedge $-1 $222 $85 $223 $224 reversed $53 $-1 #
coedge $-1 $85 $222 $148 $225 reversed $53 $-1 #
edge $-1 $150 2.0772824452344674 $226 6.5401414393573871 $85 $227 forward 7 unknown #
coedge $-1 $87 $86 $221 $228 forward $34 $-1 #
coedge $-1 $229 $230 $86 $147 forward $231 $-1 #
edge $-1 $232 -6.5401414393573871 $151 -2.0772824452344674 $146 $233 forward 7 unknown #
coedge $-1 $234 $88 $143 $225 forward $83 $-1 #
coedge $-1 $88 $234 $229 $235 forward $83 $-1 #
vertex $-1 $144 $236 #
vertex $-1 $235 $237 #
straight-curve $-1 -48.922391430402541 0 -2.0772824452344674 0 -1 0 I I #
face $-1 $-1 $238 $20 $-1 $239 reversed single #
loop $-1 $-1 $96 $90 #
plane-surface $-1 0 0 7.8177692356445583 0 0 1 1 0 0 forward_v I I I I #
coedge $-1 $240 $241 $242 $243 reversed $91 $-1 #
coedge $-1 $244 $93 $95 $163 forward $57 $-1 #
coedge $-1 $93 $244 $240 $245 forward $57 $-1 #
coedge $-1 $242 $96 $93 $160 forward $154 $-1 #
edge $-1 $166 -16.611447897385506 $246 5.009228439626435 $159 $247 forward 7 unknown #
coedge $-1 $248 $249 $94 $162 forward $238 $-1 #
edge $-1 $250 -43.208391911040131 $165 -37.137352571921255 $161 $251 forward 7 unknown #
edge $-1 $166 33.024277756552905 $250 40.347274302152371 $95 $252 forward 7 unknown #
coedge $-1 $96 $242 $248 $253 forward $154 $-1 #
vertex $-1 $162 $254 #
vertex $-1 $97 $255 #
straight-curve $-1 -22.412557626265041 39.3643651149956 7.8177692356445618 0 -1 0 I I #
coedge $-1 $168 $168 $-1 $256 reversed $100 $-1 #
edge $-1 $257 0 $257 6.2831853071796004 $101 $258 forward 7 unknown #
vertex $-1 $104 $259 #
ellipse-curve $-1 -11.60221945775907 18.126153344685218 4.7822495660851185 0 0.82903758062907751 0.55919289150049634 1 0 0 1 I I #
face $-1 $-1 $184 $22 $-1 $260 forward single #
loop $-1 $-1 $261 $105 #
plane-surface $-1 0 -20.173637151076175 0 0 1 0 0 0 1 forward_v I I I I #
coedge $-1 $262 $263 $264 $265 reversed $106 $-1 #
coedge $-1 $266 $108 $110 $182 forward $66 $-1 #
coedge $-1 $108 $266 $262 $267 forward $66 $-1 #
coedge $-1 $264 $111 $108 $179 forward $184 $-1 #
edge $-1 $186 -5.009228439626435 $268 16.611447897385506 $178 $269 forward 7 unknown #
coedge $-1 $270 $271 $109 $181 forward $173 $-1 #
edge $-1 $272 -26.483688574823042 $185 -20.41264923570419 $180 $273 forward 7 unknown #
edge $-1 $186 -7.3229965455994472 $272 -6.404651964132713e-015 $110 $274 forward 7 unknown #
coedge $-1 $111 $264 $270 $275 forward $184 $-1 #
loop $-1 $-1 $264 $172 #
vertex $-1 $181 $276 #
vertex $-1 $112 $277 #
straight-curve $-1 -0.79188128925309975 -50.64531960558773 7.8177692356445583 0 1 0 I I #
coedge $-1 $188 $188 $-1 $278 reversed $115 $-1 #
edge $-1 $279 0 $279 6.2831853071796004 $116 $280 forward 7 unknown #
vertex $-1 $119 $281 #
ellipse-curve $-1 -11.60221945775907 -18.126153344685228 4.7822495660851301 0 -0.82903758062907751 0.55919289150049634 1 0 0 1 I I #
face $-1 $-1 $135 $18 $-1 $282 reversed single #
loop $-1 $-1 $207 $120 #
plane-surface $-1 0 20.173637151076175 0 0 -1 0 0 0 -1 forward_v I I I I #
coedge $-1 $205 $283 $123 $197 reversed $121 $-1 #
coedge $-1 $211 $123 $124 $199 reversed $75 $-1 #
edge $-1 $212 -7.8177692356445583 $284 7.8177692356445583 $195 $285 forward 7 unknown #
coedge $-1 $125 $124 $283 $286 forward $49 $-1 #
edge $-1 $203 -48.922391430402541 $284 48.922391430402541 $196 $287 forward 7 unknown #
coedge $-1 $208 $207 $125 $201 reversed $193 $-1 #
edge $-1 $288 -48.922391430402541 $202 48.922391430402541 $200 $289 forward 7 unknown #
vertex $-1 $127 $290 #
vertex $-1 $214 $291 #
straight-curve $-1 48.922391430402541 0 -7.8177692356445583 0 -1 0 I I #
coedge $-1 $292 $195 $128 $206 reversed $121 $-1 #
edge $-1 $209 -20.173637151076175 $212 20.173637151076175 $205 $293 forward 7 unknown #
coedge $-1 $200 $129 $134 $215 forward $193 $-1 #
coedge $-1 $129 $200 $292 $294 reversed $193 $-1 #
vertex $-1 $130 $295 #
straight-curve $-1 0 20.173637151076175 7.8177692356445583 -1 0 0 I I #
coedge $-1 $131 $196 $133 $214 reversed $75 $-1 #
vertex $-1 $206 $296 #
straight-curve $-1 0 -20.173637151076175 7.8177692356445583 1 0 0 I I #
edge $-1 $136 -7.8177692356445583 $203 7.8177692356445583 $133 $297 forward 7 unknown #
edge $-1 $137 -7.8177692356445583 $202 7.8177692356445583 $134 $298 forward 7 unknown #
point $-1 48.922391430402541 -20.173637151076175 7.8177692356445583 #
point $-1 48.922391430402541 20.173637151076175 7.8177692356445583 #
face $-1 $-1 $231 $19 $-1 $299 reversed single #
loop $-1 $-1 $300 $139 #
plane-surface $-1 -55.743713005232863 0 -4.3087119422959272 1 0 0 0 0 -1 forward_v I I I I #
coedge $-1 $301 $223 $145 $228 reversed $140 $-1 #
coedge $-1 $143 $142 $300 $302 reversed $53 $-1 #
coedge $-1 $221 $303 $142 $224 forward $140 $-1 #
edge $-1 $304 -3.4106607874151607 $226 3.4106607874151607 $142 $305 forward 7 unknown #
edge $-1 $150 -3.4106607874151607 $306 3.4106607874151607 $143 $307 forward 7 unknown #
vertex $-1 $144 $308 #
straight-curve $-1 -48.922391430402541 20.173637151076175 0 0 0 -1 I I #
edge $-1 $232 -20.173637151076175 $226 20.173637151076175 $221 $309 forward 7 unknown #
coedge $-1 $310 $146 $149 $235 reversed $231 $-1 #
coedge $-1 $146 $310 $301 $311 reversed $231 $-1 #
loop $-1 $-1 $146 $218 #
vertex $-1 $147 $312 #
straight-curve $-1 -48.922391430402541 -20.173637151076175 0 0 0 1 I I #
coedge $-1 $149 $148 $313 $314 forward $83 $-1 #
edge $-1 $315 -3.4106607874151607 $151 3.4106607874151607 $229 $316 forward 7 unknown #
point $-1 -48.922391430402541 20.173637151076175 -2.0772824452344674 #
point $-1 -48.922391430402541 -20.173637151076175 -2.0772824452344674 #
loop $-1 $-1 $161 $153 #
plane-surface $-1 0 20.173637151076175 0 0 -1 0 0 0 -1 forward_v I I I I #
coedge $-1 $241 $156 $158 $245 reversed $91 $-1 #
coedge $-1 $156 $240 $317 $318 reversed $91 $-1 #
coedge $-1 $164 $159 $156 $243 forward $154 $-1 #
edge $-1 $246 -23.28569557670134 $319 -19.190727963919425 $242 $320 forward 7 unknown #
coedge $-1 $158 $157 $249 $321 reversed $57 $-1 #
edge $-1 $322 -40.347274302152371 $246 -33.024277756552905 $240 $323 forward 7 unknown #
vertex $-1 $160 $324 #
straight-curve $-1 -5.8011097288795348 16.07866953829426 7.8177692356445618 1 0 0 I I #
coedge $-1 $317 $161 $164 $253 reversed $238 $-1 #
coedge $-1 $161 $317 $244 $321 forward $238 $-1 #
vertex $-1 $162 $325 #
straight-curve $-1 -22.412557626265041 20.173637151076175 44.955121807565817 0 0 1 I I #
straight-curve $-1 -22.412557626265041 -2.3882718301080814 35.196136568959837 0 0.55919289150049634 -0.82903758062907751 I I #
edge $-1 $319 0.79188128925309975 $165 22.412557626265041 $248 $326 forward 7 unknown #
point $-1 -22.412557626265041 20.173637151076175 7.8177692356445583 #
point $-1 -22.412557626265041 16.07866953829426 7.8177692356445583 #
edge $-1 $327 1 $327 0 $168 $-1 forward 7 unknown #
vertex $-1 $169 $328 #
ellipse-curve $-1 -11.60221945775907 15.400376352238762 2.9436898269294298 0 0.82903758062907751 0.55919289150049634 1 0 0 1 I I #
point $-1 -10.60221945775907 18.126153344685218 4.7822495660851194 #
plane-surface $-1 0 0 7.8177692356445583 0 0 1 1 0 0 forward_v I I I I #
coedge $-1 $271 $270 $263 $329 forward $173 $-1 #
coedge $-1 $263 $175 $177 $267 reversed $106 $-1 #
coedge $-1 $175 $262 $261 $329 reversed $106 $-1 #
coedge $-1 $183 $178 $175 $265 forward $184 $-1 #
edge $-1 $268 -34.566650067293452 $330 -30.471682454511555 $264 $331 forward 7 unknown #
coedge $-1 $177 $176 $271 $332 reversed $66 $-1 #
edge $-1 $333 6.404651964132713e-015 $268 7.3229965455994472 $262 $334 forward 7 unknown #
vertex $-1 $179 $335 #
straight-curve $-1 -5.8011097288795348 -16.078669538294278 7.8177692356445583 -1 0 0 I I #
coedge $-1 $261 $180 $183 $275 reversed $173 $-1 #
coedge $-1 $180 $261 $266 $332 forward $173 $-1 #
vertex $-1 $181 $336 #
straight-curve $-1 -0.79188128925309975 -20.173637151076178 28.230418471348749 0 0 1 I I #
straight-curve $-1 -0.79188128925309975 -20.173637151076178 1.7467298965257001 0 -0.55919289150049634 -0.82903758062907751 I I #
edge $-1 $330 -22.412557626265041 $185 -0.79188128925309975 $270 $337 forward 7 unknown #
point $-1 -0.79188128925309975 -20.173637151076175 7.8177692356445583 #
point $-1 -0.79188128925309975 -16.078669538294278 7.8177692356445583 #
edge $-1 $338 1 $338 0 $188 $-1 forward 7 unknown #
vertex $-1 $189 $339 #
ellipse-curve $-1 -11.60221945775907 -15.400376352238766 2.9436898269294369 0 -0.82903758062907751 0.55919289150049634 1 0 0 1 I I #
point $-1 -10.60221945775907 -18.126153344685221 4.7822495660851265 #
plane-surface $-1 48.922391430402541 0 0 -1 0 0 0 0 1 forward_v I I I I #
coedge $-1 $195 $292 $198 $286 reversed $121 $-1 #
vertex $-1 $286 $340 #
straight-curve $-1 -48.922391430402541 -20.173637151076175 0 0 0 -1 I I #
edge $-1 $284 -20.173637151076175 $288 20.173637151076175 $283 $341 forward 7 unknown #
straight-curve $-1 0 -20.173637151076175 -7.8177692356445583 -1 0 0 I I #
vertex $-1 $201 $342 #
straight-curve $-1 0 20.173637151076175 -7.8177692356445583 1 0 0 I I #
point $-1 48.922391430402541 20.173637151076175 -7.8177692356445583 #
point $-1 48.922391430402541 -20.173637151076175 -7.8177692356445583 #
coedge $-1 $283 $205 $208 $294 forward $121 $-1 #
straight-curve $-1 -48.922391430402541 0 7.8177692356445583 0 -1 0 I I #
edge $-1 $209 -7.8177692356445583 $288 7.8177692356445583 $208 $343 forward 7 unknown #
point $-1 -48.922391430402541 20.173637151076175 7.8177692356445583 #
point $-1 -48.922391430402541 -20.173637151076175 7.8177692356445583 #
straight-curve $-1 48.922391430402541 -20.173637151076175 0 0 0 -1 I I #
straight-curve $-1 48.922391430402541 20.173637151076175 0 0 0 -1 I I #
plane-surface $-1 0 -20.173637151076175 0 0 1 0 0 0 1 forward_v I I I I #
coedge $-1 $344 $313 $222 $302 forward $219 $-1 #
coedge $-1 $303 $221 $230 $311 forward $140 $-1 #
edge $-1 $306 -2.2314294970614599 $304 2.2314294970614599 $222 $345 forward 7 unknown #
coedge $-1 $223 $301 $344 $346 forward $140 $-1 #
vertex $-1 $224 $347 #
straight-curve $-1 -52.333052217817702 20.173637151076175 -6.5401414393573871 1 0 0 I I #
vertex $-1 $225 $348 #
straight-curve $-1 -52.333052217817702 20.173637151076175 -2.0772824452344674 -1 0 0 I I #
point $-1 -48.922391430402541 20.173637151076175 -6.5401414393573871 #
straight-curve $-1 -48.922391430402541 0 -6.5401414393573871 0 1 0 I I #
coedge $-1 $230 $229 $349 $350 forward $231 $-1 #
edge $-1 $232 -3.4106607874151607 $351 3.4106607874151607 $230 $352 forward 7 unknown #
point $-1 -48.922391430402541 -20.173637151076175 -6.5401414393573871 #
coedge $-1 $300 $349 $234 $314 reversed $219 $-1 #
edge $-1 $306 -20.173637151076175 $315 20.173637151076175 $313 $353 forward 7 unknown #
vertex $-1 $314 $354 #
straight-curve $-1 -52.333052217817702 -20.173637151076175 -2.0772824452344674 1 0 0 I I #
coedge $-1 $249 $248 $241 $318 forward $238 $-1 #
edge $-1 $319 37.137352571921255 $322 43.208391911040131 $317 $355 forward 7 unknown #
vertex $-1 $253 $356 #
straight-curve $-1 -0.79188128925309975 39.3643651149956 7.8177692356445618 0 1 0 I I #
edge $-1 $322 -5.009228439626435 $250 16.611447897385506 $249 $357 forward 7 unknown #
vertex $-1 $321 $358 #
straight-curve $-1 -0.79188128925309975 -2.3882718301080814 35.196136568959837 0 -0.55919289150049634 0.82903758062907751 I I #
point $-1 -0.79188128925309975 16.07866953829426 7.8177692356445583 #
point $-1 -22.412557626265041 20.173637151076175 1.7467298965256859 #
straight-curve $-1 0 20.173637151076175 7.8177692356445583 -1 0 0 I I #
vertex $-1 $256 $359 #
point $-1 -10.60221945775907 15.400376352238762 2.9436898269294298 #
edge $-1 $330 20.41264923570419 $333 26.483688574823042 $261 $360 forward 7 unknown #
vertex $-1 $275 $361 #
straight-curve $-1 -22.412557626265041 -50.64531960558773 7.8177692356445583 0 -1 0 I I #
edge $-1 $333 -16.611447897385506 $272 5.009228439626435 $271 $362 forward 7 unknown #
vertex $-1 $332 $363 #
straight-curve $-1 -22.412557626265041 -20.173637151076178 1.7467298965257001 0 0.55919289150049634 0.82903758062907751 I I #
point $-1 -22.412557626265041 -16.078669538294278 7.8177692356445583 #
point $-1 -0.79188128925309975 -20.173637151076175 1.7467298965257054 #
straight-curve $-1 0 -20.173637151076175 7.8177692356445583 1 0 0 I I #
vertex $-1 $278 $364 #
point $-1 -10.60221945775907 -15.400376352238766 2.9436898269294369 #
point $-1 -48.922391430402541 -20.173637151076175 -7.8177692356445583 #
straight-curve $-1 -48.922391430402541 0 -7.8177692356445583 0 1 0 I I #
point $-1 -48.922391430402541 20.173637151076175 -7.8177692356445583 #
straight-curve $-1 -48.922391430402541 20.173637151076175 0 0 0 -1 I I #
coedge $-1 $349 $300 $303 $346 reversed $219 $-1 #
straight-curve $-1 -55.743713005232863 20.173637151076175 -4.3087119422959272 0 0 -1 I I #
edge $-1 $351 -20.173637151076175 $304 20.173637151076175 $344 $365 forward 7 unknown #
point $-1 -55.743713005232863 20.173637151076175 -6.5401414393573871 #
point $-1 -55.743713005232863 20.173637151076175 -2.0772824452344674 #
coedge $-1 $313 $344 $310 $350 reversed $219 $-1 #
edge $-1 $315 -2.2314294970614599 $351 2.2314294970614599 $349 $366 forward 7 unknown #
vertex $-1 $346 $367 #
straight-curve $-1 -52.333052217817702 -20.173637151076175 -6.5401414393573871 -1 0 0 I I #
straight-curve $-1 -55.743713005232863 0 -2.0772824452344674 0 -1 0 I I #
point $-1 -55.743713005232863 -20.173637151076175 -2.0772824452344674 #
straight-curve $-1 -0.79188128925309975 20.173637151076175 44.955121807565817 0 0 -1 I I #
point $-1 -0.79188128925309975 20.173637151076175 7.8177692356445583 #
straight-curve $-1 -5.8011097288795348 20.173637151076178 1.7467298965256823 -1 0 0 I I #
point $-1 -0.79188128925309975 20.173637151076175 1.7467298965256859 #
point $-1 -11.60221945775907 14.571338771609685 2.3844969354289338 #
straight-curve $-1 -22.412557626265041 -20.173637151076178 28.230418471348749 0 0 -1 I I #
point $-1 -22.412557626265041 -20.173637151076175 7.8177692356445583 #
straight-curve $-1 -5.8011097288795348 -20.173637151076175 1.7467298965257061 1 0 0 I I #
point $-1 -22.412557626265041 -20.173637151076175 1.7467298965257054 #
point $-1 -11.60221945775907 -14.571338771609689 2.3844969354289409 #
straight-curve $-1 -55.743713005232863 0 -6.5401414393573871 0 1 0 I I #
straight-curve $-1 -55.743713005232863 -20.173637151076175 -4.3087119422959272 0 0 -1 I I #
point $-1 -55.743713005232863 -20.173637151076175 -6.5401414393573871 #
End-of-ACIS-data 