500 0 6 0           
7 Unknown 11 ACIS 5.0 NT 24 Thu Mar 25 15:54:44 1999 
-1 9.9999999999999995e-007 1e-010 
body $-1 $6 $-1 $7 #
body $-1 $8 $-1 $9 #
body $-1 $10 $-1 $11 #
body $-1 $12 $-1 $13 #
body $-1 $14 $-1 $15 #
body $-1 $16 $-1 $17 #
lump $-1 $-1 $18 $0 #
transform $-1 1 0 0 0 1 0 0 0 1 52.063356425672168 28.19845573771444 7.676413618152 1 rotate no_reflect no_shear #
lump $-1 $-1 $19 $1 #
transform $-1 1 0 0 0 1 0 0 0 1 52.063356425672168 28.19845573771444 7.676413618152 1 rotate no_reflect no_shear #
lump $-1 $-1 $20 $2 #
transform $-1 1 0 0 0 1 0 0 0 1 52.063356425672168 28.19845573771444 7.676413618152 1 rotate no_reflect no_shear #
lump $-1 $-1 $21 $3 #
transform $-1 1 0 0 0 1 0 0 0 1 52.063356425672168 28.19845573771444 7.676413618152 1 rotate no_reflect no_shear #
lump $-1 $-1 $22 $4 #
transform $-1 1 0 0 0 1 0 0 0 1 52.063356425672168 28.19845573771444 7.676413618152 1 rotate no_reflect no_shear #
lump $-1 $-1 $23 $5 #
transform $-1 1 0 0 0 1 0 0 0 1 52.063356425672168 28.19845573771444 7.676413618152 1 rotate no_reflect no_shear #
shell $-1 $-1 $-1 $24 $-1 $6 #
shell $-1 $-1 $-1 $25 $-1 $8 #
shell $-1 $-1 $-1 $26 $-1 $10 #
shell $-1 $-1 $-1 $27 $-1 $12 #
shell $-1 $-1 $-1 $28 $-1 $14 #
shell $-1 $-1 $-1 $29 $-1 $16 #
face $-1 $30 $31 $18 $-1 $32 forward single #
face $-1 $33 $34 $19 $-1 $35 forward single #
face $-1 $36 $37 $20 $-1 $38 reversed single #
face $-1 $39 $40 $21 $-1 $41 forward single #
face $-1 $42 $43 $22 $-1 $44 forward single #
face $-1 $45 $46 $23 $-1 $47 forward single #
face $-1 $48 $49 $18 $-1 $50 reversed single #
loop $-1 $-1 $51 $24 #
plane-surface $-1 0 0 7.676413618152 0 0 1 1 0 0 forward_v I I I I #
face $-1 $52 $53 $19 $-1 $54 reversed single #
loop $-1 $-1 $55 $25 #
plane-surface $-1 0 -28.19845573771444 0 0 1 0 0 0 1 forward_v I I I I #
face $-1 $56 $57 $20 $-1 $58 reversed single #
loop $-1 $-1 $59 $26 #
plane-surface $-1 9.4098094809035118 43.776543197161018 118.04134229119163 1 0 0 0 -0.5877852598018023 -0.80901698891910034 forward_v I I I I #
face $-1 $60 $61 $21 $-1 $62 forward single #
loop $-1 $63 $64 $27 #
cone-surface $-1 11.854230699187482 22.723361934952987 3.2821008671799747 0 -0.5877852598018023 -0.80901698891910034 1 0 0 1 I I 0 1 1 forward I I I I #
face $-1 $65 $66 $22 $-1 $67 forward single #
loop $-1 $68 $69 $28 #
cone-surface $-1 15.520862526613456 22.723361934952987 3.2821008671799747 0 -0.5877852598018023 -0.80901698891910034 1 0 0 1 I I 0 1 1 forward I I I I #
face $-1 $70 $71 $23 $-1 $72 forward single #
loop $-1 $73 $74 $29 #
cone-surface $-1 19.187494354039416 22.723361934952987 3.2821008671799747 0 -0.5877852598018023 -0.80901698891910034 1 0 0 1 I I 0 1 1 forward I I I I #
face $-1 $75 $76 $18 $-1 $77 reversed single #
loop $-1 $-1 $78 $30 #
plane-surface $-1 0 0 -7.676413618152 0 0 1 1 0 0 forward_v I I I I #
coedge $-1 $79 $80 $81 $82 forward $31 $-1 #
face $-1 $83 $84 $19 $-1 $85 reversed single #
loop $-1 $-1 $86 $33 #
plane-surface $-1 0 0 -7.676413618152 0 0 1 1 0 0 forward_v I I I I #
coedge $-1 $87 $88 $89 $90 forward $34 $-1 #
face $-1 $91 $92 $20 $-1 $93 reversed single #
loop $-1 $-1 $94 $36 #
plane-surface $-1 15.520862526613456 -17.427603768474079 33.801062594153237 0 0.5877852598018023 0.80901698891910034 1 0 0 forward_v I I I I #
coedge $-1 $95 $96 $97 $98 reversed $37 $-1 #
face $-1 $-1 $99 $21 $-1 $100 forward single #
loop $-1 $101 $102 $39 #
cone-surface $-1 11.854230699187482 21.788658341707873 1.9955917655498867 0 -0.5877852598018023 -0.80901698891910034 0.5 0 0 1 I I -0.70710678118654746 0.70710678118654746 0.5 forward I I I I #
loop $-1 $-1 $103 $27 #
coedge $-1 $64 $64 $104 $105 reversed $40 $-1 #
face $-1 $-1 $106 $22 $-1 $107 forward single #
loop $-1 $108 $109 $42 #
cone-surface $-1 15.520862526613456 21.788658341707873 1.9955917655498867 0 -0.5877852598018023 -0.80901698891910034 0.5 0 0 1 I I -0.70710678118654746 0.70710678118654746 0.5 forward I I I I #
loop $-1 $-1 $110 $28 #
coedge $-1 $69 $69 $111 $112 reversed $43 $-1 #
face $-1 $-1 $113 $23 $-1 $114 forward single #
loop $-1 $115 $116 $45 #
cone-surface $-1 19.187494354039416 21.788658341707873 1.9955917655498867 0 -0.5877852598018023 -0.80901698891910034 0.5 0 0 1 I I -0.70710678118654746 0.70710678118654746 0.5 forward I I I I #
loop $-1 $-1 $117 $29 #
coedge $-1 $74 $74 $118 $119 reversed $46 $-1 #
face $-1 $120 $121 $18 $-1 $122 reversed single #
loop $-1 $-1 $123 $48 #
plane-surface $-1 0 -28.19845573771444 0 0 1 0 0 0 1 forward_v I I I I #
coedge $-1 $124 $125 $126 $127 forward $49 $-1 #
coedge $-1 $128 $51 $129 $130 forward $31 $-1 #
coedge $-1 $51 $128 $131 $132 forward $31 $-1 #
coedge $-1 $133 $134 $51 $82 reversed $135 $-1 #
edge $-1 $136 -28.19845573771444 $137 28.19845573771444 $81 $138 forward 7 unknown #
face $-1 $139 $140 $19 $-1 $141 forward single #
loop $-1 $-1 $142 $52 #
plane-surface $-1 52.063356425672168 0 0 -1 0 0 0 0 1 forward_v I I I I #
coedge $-1 $143 $144 $145 $146 forward $53 $-1 #
coedge $-1 $145 $55 $142 $147 reversed $34 $-1 #
coedge $-1 $55 $145 $148 $149 reversed $34 $-1 #
coedge $-1 $150 $151 $55 $90 reversed $140 $-1 #
edge $-1 $152 -52.063356425672168 $153 52.063356425672168 $89 $154 forward 7 unknown #
face $-1 $155 $156 $20 $-1 $157 forward single #
loop $-1 $-1 $158 $56 #
plane-surface $-1 21.6319155723234 43.776543197161018 118.04134229119163 -1 0 0 0 0.5877852598018023 0.80901698891910034 forward_v I I I I #
coedge $-1 $159 $160 $161 $162 reversed $57 $-1 #
coedge $-1 $96 $59 $163 $164 reversed $37 $-1 #
coedge $-1 $59 $95 $159 $165 reversed $37 $-1 #
coedge $-1 $161 $166 $59 $98 forward $156 $-1 #
edge $-1 $167 -6.3101841391339306 $168 3.3583815397005807 $97 $169 forward 7 unknown #
loop $-1 $-1 $104 $60 #
plane-surface $-1 15.520862526613456 -17.427603768474079 33.801062594153237 0 0.5877852598018023 0.80901698891910034 1 0 0 forward_v I I I I #
loop $-1 $-1 $170 $39 #
coedge $-1 $102 $102 $103 $171 reversed $61 $-1 #
coedge $-1 $103 $103 $102 $171 forward $63 $-1 #
coedge $-1 $104 $104 $64 $105 forward $99 $-1 #
edge $-1 $172 0 $172 6.2831853071796004 $104 $173 forward 7 unknown #
loop $-1 $-1 $111 $65 #
plane-surface $-1 15.520862526613456 -17.427603768474079 33.801062594153237 0 0.5877852598018023 0.80901698891910034 1 0 0 forward_v I I I I #
loop $-1 $-1 $174 $42 #
coedge $-1 $109 $109 $110 $175 reversed $66 $-1 #
coedge $-1 $110 $110 $109 $175 forward $68 $-1 #
coedge $-1 $111 $111 $69 $112 forward $106 $-1 #
edge $-1 $176 0 $176 6.2831853071796004 $111 $177 forward 7 unknown #
loop $-1 $-1 $118 $70 #
plane-surface $-1 15.520862526613456 -17.427603768474079 33.801062594153237 0 0.5877852598018023 0.80901698891910034 1 0 0 forward_v I I I I #
loop $-1 $-1 $178 $45 #
coedge $-1 $116 $116 $117 $179 reversed $71 $-1 #
coedge $-1 $117 $117 $116 $179 forward $73 $-1 #
coedge $-1 $118 $118 $74 $119 forward $113 $-1 #
edge $-1 $180 0 $180 6.2831853071796004 $118 $181 forward 7 unknown #
face $-1 $182 $183 $18 $-1 $184 reversed single #
loop $-1 $-1 $185 $75 #
plane-surface $-1 -52.063356425672168 0 0 1 0 0 0 0 -1 forward_v I I I I #
coedge $-1 $186 $131 $187 $188 forward $76 $-1 #
coedge $-1 $189 $78 $186 $190 forward $49 $-1 #
coedge $-1 $78 $189 $191 $192 forward $49 $-1 #
coedge $-1 $134 $133 $78 $127 reversed $135 $-1 #
edge $-1 $193 -28.19845573771444 $194 28.19845573771444 $126 $195 forward 7 unknown #
coedge $-1 $80 $79 $196 $197 forward $31 $-1 #
coedge $-1 $198 $199 $79 $130 reversed $183 $-1 #
edge $-1 $137 -52.063356425672168 $200 52.063356425672168 $129 $201 forward 7 unknown #
coedge $-1 $123 $202 $80 $132 reversed $76 $-1 #
edge $-1 $203 -52.063356425672168 $136 52.063356425672168 $131 $204 forward 7 unknown #
coedge $-1 $126 $81 $202 $205 forward $135 $-1 #
coedge $-1 $81 $126 $198 $206 reversed $135 $-1 #
loop $-1 $-1 $133 $182 #
vertex $-1 $82 $207 #
vertex $-1 $82 $208 #
straight-curve $-1 52.063356425672168 0 7.676413618152 0 1 0 I I #
face $-1 $209 $210 $19 $-1 $211 reversed single #
loop $-1 $-1 $151 $83 #
plane-surface $-1 0 -30.852430438547234 -3.9242551724277641 0 0 1 1 0 0 forward_v I I I I #
coedge $-1 $212 $213 $87 $147 forward $84 $-1 #
coedge $-1 $214 $86 $213 $215 forward $53 $-1 #
coedge $-1 $86 $214 $216 $217 forward $53 $-1 #
coedge $-1 $88 $87 $86 $146 reversed $34 $-1 #
edge $-1 $218 -52.063356425672168 $219 52.063356425672168 $86 $220 forward 7 unknown #
edge $-1 $219 -7.676413618152 $153 -3.9242551724277641 $142 $221 forward 7 unknown #
coedge $-1 $216 $222 $88 $149 forward $223 $-1 #
edge $-1 $152 3.9242551724277641 $218 7.676413618152 $148 $224 forward 7 unknown #
coedge $-1 $225 $89 $222 $226 forward $140 $-1 #
coedge $-1 $89 $225 $212 $227 forward $140 $-1 #
vertex $-1 $149 $228 #
vertex $-1 $227 $229 #
straight-curve $-1 0 -28.19845573771444 -3.9242551724277641 1 0 0 I I #
face $-1 $-1 $230 $20 $-1 $231 reversed single #
loop $-1 $-1 $97 $91 #
plane-surface $-1 0 0 7.676413618152 0 0 1 1 0 0 forward_v I I I I #
coedge $-1 $232 $233 $234 $235 reversed $92 $-1 #
coedge $-1 $236 $94 $96 $165 forward $57 $-1 #
coedge $-1 $94 $236 $232 $237 forward $57 $-1 #
coedge $-1 $234 $97 $94 $162 forward $156 $-1 #
edge $-1 $168 1.6493782175967837 $238 13.871484309016672 $161 $239 forward 7 unknown #
coedge $-1 $240 $241 $95 $164 forward $230 $-1 #
edge $-1 $242 -58.368881815046777 $167 -51.344257527443816 $163 $243 forward 7 unknown #
edge $-1 $168 44.445906970872848 $242 56.396911475428865 $96 $244 forward 7 unknown #
coedge $-1 $97 $234 $240 $245 forward $156 $-1 #
vertex $-1 $164 $246 #
vertex $-1 $98 $247 #
straight-curve $-1 9.4098094809035118 21.888271598580509 7.6764136181519973 0 -1 0 I I #
coedge $-1 $170 $170 $-1 $248 reversed $101 $-1 #
edge $-1 $249 0 $249 6.2831853071796004 $102 $250 forward 7 unknown #
vertex $-1 $105 $251 #
ellipse-curve $-1 11.854230699187482 23.364172898297198 4.1641014743505131 0 0.5877852598018023 0.80901698891910034 1 0 0 1 I I #
coedge $-1 $174 $174 $-1 $252 reversed $108 $-1 #
edge $-1 $253 0 $253 6.2831853071796004 $109 $254 forward 7 unknown #
vertex $-1 $112 $255 #
ellipse-curve $-1 15.520862526613456 23.364172898297198 4.1641014743505131 0 0.5877852598018023 0.80901698891910034 1 0 0 1 I I #
coedge $-1 $178 $178 $-1 $256 reversed $115 $-1 #
edge $-1 $257 0 $257 6.2831853071796004 $116 $258 forward 7 unknown #
vertex $-1 $119 $259 #
ellipse-curve $-1 19.187494354039416 23.364172898297198 4.1641014743505131 0 0.5877852598018023 0.80901698891910034 1 0 0 1 I I #
face $-1 $-1 $135 $18 $-1 $260 reversed single #
loop $-1 $-1 $198 $120 #
plane-surface $-1 0 28.19845573771444 0 0 -1 0 0 0 -1 forward_v I I I I #
coedge $-1 $261 $196 $199 $262 forward $121 $-1 #
coedge $-1 $202 $123 $124 $190 reversed $76 $-1 #
coedge $-1 $196 $261 $123 $188 reversed $121 $-1 #
edge $-1 $203 -7.676413618152 $263 7.676413618152 $187 $264 forward 7 unknown #
coedge $-1 $125 $124 $261 $265 forward $49 $-1 #
edge $-1 $194 -52.063356425672168 $263 52.063356425672168 $186 $266 forward 7 unknown #
coedge $-1 $199 $198 $125 $192 reversed $183 $-1 #
edge $-1 $267 -52.063356425672168 $193 52.063356425672168 $191 $268 forward 7 unknown #
vertex $-1 $127 $269 #
vertex $-1 $205 $270 #
straight-curve $-1 52.063356425672168 0 -7.676413618152 0 -1 0 I I #
coedge $-1 $185 $187 $128 $197 reversed $121 $-1 #
edge $-1 $200 -28.19845573771444 $203 28.19845573771444 $196 $271 forward 7 unknown #
coedge $-1 $191 $129 $134 $206 forward $183 $-1 #
coedge $-1 $129 $191 $185 $262 reversed $183 $-1 #
vertex $-1 $130 $272 #
straight-curve $-1 0 28.19845573771444 7.676413618152 -1 0 0 I I #
coedge $-1 $131 $186 $133 $205 reversed $76 $-1 #
vertex $-1 $197 $273 #
straight-curve $-1 0 -28.19845573771444 7.676413618152 1 0 0 I I #
edge $-1 $136 -7.676413618152 $194 7.676413618152 $133 $274 forward 7 unknown #
edge $-1 $137 -7.676413618152 $193 7.676413618152 $134 $275 forward 7 unknown #
point $-1 52.063356425672168 -28.19845573771444 7.676413618152 #
point $-1 52.063356425672168 28.19845573771444 7.676413618152 #
face $-1 $-1 $223 $19 $-1 $276 reversed single #
loop $-1 $-1 $277 $139 #
plane-surface $-1 0 -33.506405139380028 -5.800334395289882 0 1 0 0 0 1 forward_v I I I I #
coedge $-1 $278 $142 $151 $227 reversed $84 $-1 #
coedge $-1 $142 $278 $143 $215 reversed $84 $-1 #
coedge $-1 $144 $143 $279 $280 forward $53 $-1 #
edge $-1 $219 28.19845573771444 $281 33.506405139380028 $213 $282 forward 7 unknown #
coedge $-1 $283 $148 $144 $217 reversed $223 $-1 #
edge $-1 $284 -33.506405139380028 $218 -28.19845573771444 $216 $285 forward 7 unknown #
vertex $-1 $149 $286 #
vertex $-1 $215 $287 #
straight-curve $-1 0 -28.19845573771444 -7.676413618152 1 0 0 I I #
straight-curve $-1 52.063356425672168 -28.19845573771444 0 0 0 1 I I #
coedge $-1 $148 $283 $150 $226 reversed $223 $-1 #
loop $-1 $-1 $148 $209 #
straight-curve $-1 -52.063356425672168 -28.19845573771444 0 0 0 -1 I I #
coedge $-1 $151 $150 $288 $289 forward $140 $-1 #
edge $-1 $152 -2.6539747008327943 $290 2.6539747008327943 $222 $291 forward 7 unknown #
edge $-1 $292 -2.6539747008327943 $153 2.6539747008327943 $212 $293 forward 7 unknown #
point $-1 -52.063356425672168 -28.19845573771444 -3.9242551724277641 #
point $-1 52.063356425672168 -28.19845573771444 -3.9242551724277641 #
loop $-1 $-1 $163 $155 #
plane-surface $-1 0 28.19845573771444 0 0 -1 0 0 0 -1 forward_v I I I I #
coedge $-1 $233 $158 $160 $237 reversed $92 $-1 #
coedge $-1 $158 $232 $294 $295 reversed $92 $-1 #
coedge $-1 $166 $161 $158 $235 forward $156 $-1 #
edge $-1 $238 -3.3583815397005807 $296 6.3101841391339306 $234 $297 forward 7 unknown #
coedge $-1 $160 $159 $241 $298 reversed $57 $-1 #
edge $-1 $299 -56.396911475428865 $238 -44.445906970872848 $232 $300 forward 7 unknown #
vertex $-1 $162 $301 #
straight-curve $-1 7.7604312633067281 18.529890058879928 7.6764136181520009 1 0 0 I I #
coedge $-1 $294 $163 $166 $245 reversed $230 $-1 #
coedge $-1 $163 $294 $236 $298 forward $230 $-1 #
vertex $-1 $164 $302 #
straight-curve $-1 9.4098094809035118 28.19845573771444 59.020671145595813 0 0 1 I I #
straight-curve $-1 9.4098094809035118 -17.427603768474079 33.801062594153237 0 0.80901698891910034 -0.5877852598018023 I I #
edge $-1 $296 -21.6319155723234 $167 -9.4098094809035118 $240 $303 forward 7 unknown #
point $-1 9.4098094809035118 28.19845573771444 7.676413618152 #
point $-1 9.4098094809035118 18.529890058879928 7.6764136181520009 #
edge $-1 $304 1 $304 0 $170 $-1 forward 7 unknown #
vertex $-1 $171 $305 #
ellipse-curve $-1 11.854230699187482 22.082550971608775 2.4001002600094368 0 0.5877852598018023 0.80901698891910034 1 0 0 1 I I #
point $-1 12.854230699187482 23.364172898297198 4.1641014743505131 #
edge $-1 $306 1 $306 0 $174 $-1 forward 7 unknown #
vertex $-1 $175 $307 #
ellipse-curve $-1 15.520862526613456 22.082550971608775 2.4001002600094368 0 0.5877852598018023 0.80901698891910034 1 0 0 1 I I #
point $-1 16.520862526613456 23.364172898297198 4.1641014743505131 #
edge $-1 $308 1 $308 0 $178 $-1 forward 7 unknown #
vertex $-1 $179 $309 #
ellipse-curve $-1 19.187494354039416 22.082550971608775 2.4001002600094368 0 0.5877852598018023 0.80901698891910034 1 0 0 1 I I #
point $-1 20.187494354039416 23.364172898297198 4.1641014743505131 #
plane-surface $-1 52.063356425672168 0 0 -1 0 0 0 0 1 forward_v I I I I #
coedge $-1 $187 $185 $189 $265 reversed $121 $-1 #
edge $-1 $200 -7.676413618152 $267 7.676413618152 $199 $310 forward 7 unknown #
vertex $-1 $265 $311 #
straight-curve $-1 -52.063356425672168 -28.19845573771444 0 0 0 -1 I I #
edge $-1 $263 -28.19845573771444 $267 28.19845573771444 $261 $312 forward 7 unknown #
straight-curve $-1 0 -28.19845573771444 -7.676413618152 -1 0 0 I I #
vertex $-1 $192 $313 #
straight-curve $-1 0 28.19845573771444 -7.676413618152 1 0 0 I I #
point $-1 52.063356425672168 28.19845573771444 -7.676413618152 #
point $-1 52.063356425672168 -28.19845573771444 -7.676413618152 #
straight-curve $-1 -52.063356425672168 0 7.676413618152 0 -1 0 I I #
point $-1 -52.063356425672168 28.19845573771444 7.676413618152 #
point $-1 -52.063356425672168 -28.19845573771444 7.676413618152 #
straight-curve $-1 52.063356425672168 -28.19845573771444 0 0 0 -1 I I #
straight-curve $-1 52.063356425672168 28.19845573771444 0 0 0 -1 I I #
plane-surface $-1 -52.063356425672168 0 0 1 0 0 0 0 -1 forward_v I I I I #
coedge $-1 $279 $288 $283 $314 forward $210 $-1 #
coedge $-1 $213 $212 $315 $316 forward $84 $-1 #
coedge $-1 $315 $277 $214 $280 reversed $210 $-1 #
edge $-1 $281 -52.063356425672168 $284 52.063356425672168 $279 $317 forward 7 unknown #
vertex $-1 $316 $318 #
straight-curve $-1 52.063356425672168 0 -7.676413618152 0 -1 0 I I #
coedge $-1 $222 $216 $277 $314 reversed $223 $-1 #
vertex $-1 $217 $319 #
straight-curve $-1 -52.063356425672168 0 -7.676413618152 0 1 0 I I #
point $-1 -52.063356425672168 -28.19845573771444 -7.676413618152 #
point $-1 52.063356425672168 -28.19845573771444 -7.676413618152 #
coedge $-1 $277 $315 $225 $289 reversed $210 $-1 #
edge $-1 $290 -52.063356425672168 $292 52.063356425672168 $288 $320 forward 7 unknown #
vertex $-1 $226 $321 #
straight-curve $-1 -52.063356425672168 -30.852430438547234 -3.9242551724277641 0 -1 0 I I #
vertex $-1 $227 $322 #
straight-curve $-1 52.063356425672168 -30.852430438547234 -3.9242551724277641 0 1 0 I I #
coedge $-1 $241 $240 $233 $295 forward $230 $-1 #
edge $-1 $296 51.344257527443816 $299 58.368881815046777 $294 $323 forward 7 unknown #
vertex $-1 $245 $324 #
straight-curve $-1 21.6319155723234 21.888271598580509 7.6764136181519973 0 1 0 I I #
edge $-1 $299 -13.871484309016672 $242 -1.6493782175967837 $241 $325 forward 7 unknown #
vertex $-1 $298 $326 #
straight-curve $-1 21.6319155723234 -17.427603768474079 33.801062594153237 0 -0.80901698891910034 0.5877852598018023 I I #
point $-1 21.6319155723234 18.529890058879928 7.6764136181520009 #
point $-1 9.4098094809035118 28.19845573771444 0.65178933054903609 #
straight-curve $-1 0 28.19845573771444 7.676413618152 -1 0 0 I I #
vertex $-1 $248 $327 #
point $-1 12.854230699187482 22.082550971608775 2.4001002600094368 #
vertex $-1 $252 $328 #
point $-1 16.520862526613456 22.082550971608775 2.4001002600094368 #
vertex $-1 $256 $329 #
point $-1 20.187494354039416 22.082550971608775 2.4001002600094368 #
straight-curve $-1 -52.063356425672168 28.19845573771444 0 0 0 -1 I I #
point $-1 -52.063356425672168 -28.19845573771444 -7.676413618152 #
straight-curve $-1 -52.063356425672168 0 -7.676413618152 0 1 0 I I #
point $-1 -52.063356425672168 28.19845573771444 -7.676413618152 #
edge $-1 $290 -1.8760792228621179 $284 1.8760792228621179 $283 $330 forward 7 unknown #
coedge $-1 $288 $279 $278 $316 reversed $210 $-1 #
edge $-1 $292 -1.8760792228621179 $281 1.8760792228621179 $278 $331 forward 7 unknown #
straight-curve $-1 0 -33.506405139380028 -7.676413618152 -1 0 0 I I #
point $-1 52.063356425672168 -33.506405139380028 -7.676413618152 #
point $-1 -52.063356425672168 -33.506405139380028 -7.676413618152 #
straight-curve $-1 0 -33.506405139380028 -3.9242551724277641 1 0 0 I I #
point $-1 -52.063356425672168 -33.506405139380028 -3.9242551724277641 #
point $-1 52.063356425672168 -33.506405139380028 -3.9242551724277641 #
straight-curve $-1 21.6319155723234 28.19845573771444 59.020671145595813 0 0 -1 I I #
point $-1 21.6319155723234 28.19845573771444 7.676413618152 #
straight-curve $-1 7.7604312633067281 28.19845573771444 0.65178933054903254 -1 0 0 I I #
point $-1 21.6319155723234 28.19845573771444 0.65178933054903609 #
point $-1 11.854230699187482 21.49476571180697 1.5910832710903366 #
point $-1 15.520862526613456 21.49476571180697 1.5910832710903366 #
point $-1 19.187494354039416 21.49476571180697 1.5910832710903366 #
straight-curve $-1 -52.063356425672168 -33.506405139380028 -5.800334395289882 0 0 -1 I I #
straight-curve $-1 52.063356425672168 -33.506405139380028 -5.800334395289882 0 0 -1 I I #
End-of-ACIS-data 