500 0 10 0           
7 Unknown 11 ACIS 5.0 NT 24 Fri Mar 26 19:17:56 1999 
-1 9.9999999999999995e-007 1e-010 
body $-1 $10 $-1 $11 #
body $-1 $12 $-1 $13 #
body $-1 $14 $-1 $15 #
body $-1 $16 $-1 $17 #
body $-1 $18 $-1 $19 #
body $-1 $20 $-1 $21 #
body $-1 $22 $-1 $23 #
body $-1 $24 $-1 $25 #
body $-1 $26 $-1 $27 #
body $-1 $28 $-1 $29 #
lump $-1 $-1 $30 $0 #
transform $-1 1 0 0 0 1 0 0 0 1 76.237678151799059 39.895709549379831 18.299768820954739 1 rotate no_reflect no_shear #
lump $-1 $-1 $31 $1 #
transform $-1 1 0 0 0 1 0 0 0 1 76.237678151799059 39.895709549379831 18.299768820954739 1 rotate no_reflect no_shear #
lump $-1 $-1 $32 $2 #
transform $-1 1 0 0 0 1 0 0 0 1 76.237678151799059 39.895709549379831 18.299768820954739 1 rotate no_reflect no_shear #
lump $-1 $-1 $33 $3 #
transform $-1 1 0 0 0 1 0 0 0 1 76.237678151799059 39.895709549379831 18.299768820954739 1 rotate no_reflect no_shear #
lump $-1 $-1 $34 $4 #
transform $-1 1 0 0 0 1 0 0 0 1 76.237678151799059 39.895709549379831 18.299768820954739 1 rotate no_reflect no_shear #
lump $-1 $-1 $35 $5 #
transform $-1 1 0 0 0 1 0 0 0 1 76.237678151799059 39.895709549379831 18.299768820954739 1 rotate no_reflect no_shear #
lump $-1 $-1 $36 $6 #
transform $-1 1 0 0 0 1 0 0 0 1 76.237678151799059 39.895709549379831 18.299768820954739 1 rotate no_reflect no_shear #
lump $-1 $-1 $37 $7 #
transform $-1 1 0 0 0 1 0 0 0 1 76.237678151799059 39.895709549379831 18.299768820954739 1 rotate no_reflect no_shear #
lump $-1 $-1 $38 $8 #
transform $-1 1 0 0 0 1 0 0 0 1 76.237678151799059 39.895709549379831 18.299768820954739 1 rotate no_reflect no_shear #
lump $-1 $-1 $39 $9 #
transform $-1 1 0 0 0 1 0 0 0 1 76.237678151799059 39.895709549379831 18.299768820954739 1 rotate no_reflect no_shear #
shell $-1 $-1 $-1 $40 $-1 $10 #
shell $-1 $-1 $-1 $41 $-1 $12 #
shell $-1 $-1 $-1 $42 $-1 $14 #
shell $-1 $-1 $-1 $43 $-1 $16 #
shell $-1 $-1 $-1 $44 $-1 $18 #
shell $-1 $-1 $-1 $45 $-1 $20 #
shell $-1 $-1 $-1 $46 $-1 $22 #
shell $-1 $-1 $-1 $47 $-1 $24 #
shell $-1 $-1 $-1 $48 $-1 $26 #
shell $-1 $-1 $-1 $49 $-1 $28 #
face $-1 $50 $51 $30 $-1 $52 forward single #
face $-1 $53 $54 $31 $-1 $55 forward single #
face $-1 $56 $57 $32 $-1 $58 reversed single #
face $-1 $59 $60 $33 $-1 $61 forward single #
face $-1 $62 $63 $34 $-1 $64 forward single #
face $-1 $65 $66 $35 $-1 $67 forward single #
face $-1 $68 $69 $36 $-1 $70 reversed single #
face $-1 $71 $72 $37 $-1 $73 forward single #
face $-1 $74 $75 $38 $-1 $76 forward single #
face $-1 $77 $78 $39 $-1 $79 forward single #
face $-1 $80 $81 $30 $-1 $82 reversed single #
loop $-1 $-1 $83 $40 #
plane-surface $-1 0 0 18.299768820954739 0 0 1 1 0 0 forward_v I I I I #
face $-1 $84 $85 $31 $-1 $86 reversed single #
loop $-1 $-1 $87 $41 #
plane-surface $-1 0 -39.895709549379831 0 0 1 0 0 0 1 forward_v I I I I #
face $-1 $88 $89 $32 $-1 $90 reversed single #
loop $-1 $-1 $91 $42 #
plane-surface $-1 -71.002229392541537 108.17695192995657 161.78114948207593 1 0 0 0 -0.77714596973225614 -0.62932038083071107 forward_v I I I I #
face $-1 $92 $93 $33 $-1 $94 forward single #
loop $-1 $95 $96 $43 #
cone-surface $-1 -67.119312545897827 33.422054347422502 10.564440562117252 0 -0.77714596973225614 -0.62932038083071107 1 0 0 1 I I 0 1 1 forward I I I I #
face $-1 $97 $98 $34 $-1 $99 forward single #
loop $-1 $100 $101 $44 #
cone-surface $-1 -61.29493727593227 33.422054347422502 10.564440562117252 0 -0.77714596973225614 -0.62932038083071107 1 0 0 1 I I 0 1 1 forward I I I I #
face $-1 $102 $103 $35 $-1 $104 forward single #
loop $-1 $105 $106 $45 #
cone-surface $-1 -55.470562005966705 33.422054347422502 10.564440562117252 0 -0.77714596973225614 -0.62932038083071107 1 0 0 1 I I 0 1 1 forward I I I I #
face $-1 $107 $108 $36 $-1 $109 reversed single #
loop $-1 $-1 $110 $46 #
plane-surface $-1 5.2354487592575172 108.17695192995657 161.78114948207593 1 0 0 0 -0.77714596973225614 -0.62932038083071107 forward_v I I I I #
face $-1 $111 $112 $37 $-1 $113 forward single #
loop $-1 $114 $115 $47 #
cone-surface $-1 9.1183656059012321 33.422054347422502 10.564440562117252 0 -0.77714596973225614 -0.62932038083071107 1 0 0 1 I I 0 1 1 forward I I I I #
face $-1 $116 $117 $38 $-1 $118 forward single #
loop $-1 $119 $120 $48 #
cone-surface $-1 14.942740875866789 33.422054347422502 10.564440562117252 0 -0.77714596973225614 -0.62932038083071107 1 0 0 1 I I 0 1 1 forward I I I I #
face $-1 $121 $122 $39 $-1 $123 forward single #
loop $-1 $124 $125 $49 #
cone-surface $-1 20.767116145832347 33.422054347422502 10.564440562117252 0 -0.77714596973225614 -0.62932038083071107 1 0 0 1 I I 0 1 1 forward I I I I #
face $-1 $126 $127 $30 $-1 $128 reversed single #
loop $-1 $-1 $129 $50 #
plane-surface $-1 0 0 -18.299768820954739 0 0 1 1 0 0 forward_v I I I I #
coedge $-1 $130 $131 $132 $133 forward $51 $-1 #
face $-1 $134 $135 $31 $-1 $136 forward single #
loop $-1 $-1 $137 $53 #
plane-surface $-1 -76.237678151799059 0 0 1 0 0 0 0 -1 forward_v I I I I #
coedge $-1 $138 $139 $140 $141 forward $54 $-1 #
face $-1 $142 $143 $32 $-1 $144 reversed single #
loop $-1 $-1 $145 $56 #
plane-surface $-1 -61.29493727593227 -10.318656704874456 65.825300185797204 0 0.77714596973225614 0.62932038083071107 1 0 0 forward_v I I I I #
coedge $-1 $146 $147 $148 $149 reversed $57 $-1 #
face $-1 $-1 $150 $33 $-1 $151 forward single #
loop $-1 $152 $153 $59 #
cone-surface $-1 -67.119312545897827 32.424301570919269 9.7564763163524049 0 -0.77714596973225614 -0.62932038083071107 0.5 0 0 1 I I -0.70710678118654879 0.70710678118654635 0.5 forward I I I I #
loop $-1 $-1 $154 $43 #
coedge $-1 $96 $96 $155 $156 reversed $60 $-1 #
face $-1 $-1 $157 $34 $-1 $158 forward single #
loop $-1 $159 $160 $62 #
cone-surface $-1 -61.29493727593227 32.424301570919269 9.7564763163524049 0 -0.77714596973225614 -0.62932038083071107 0.5 0 0 1 I I -0.70710678118654879 0.70710678118654635 0.5 forward I I I I #
loop $-1 $-1 $161 $44 #
coedge $-1 $101 $101 $162 $163 reversed $63 $-1 #
face $-1 $-1 $164 $35 $-1 $165 forward single #
loop $-1 $166 $167 $65 #
cone-surface $-1 -55.470562005966705 32.424301570919269 9.7564763163524049 0 -0.77714596973225614 -0.62932038083071107 0.5 0 0 1 I I -0.70710678118654879 0.70710678118654635 0.5 forward I I I I #
loop $-1 $-1 $168 $45 #
coedge $-1 $106 $106 $169 $170 reversed $66 $-1 #
face $-1 $171 $172 $36 $-1 $173 reversed single #
loop $-1 $-1 $174 $68 #
plane-surface $-1 14.942740875866789 -10.318656704874456 65.825300185797204 0 0.77714596973225614 0.62932038083071107 1 0 0 forward_v I I I I #
coedge $-1 $175 $176 $177 $178 reversed $69 $-1 #
face $-1 $-1 $179 $37 $-1 $180 forward single #
loop $-1 $181 $182 $71 #
cone-surface $-1 9.1183656059012321 32.424301570919269 9.7564763163524049 0 -0.77714596973225614 -0.62932038083071107 0.5 0 0 1 I I -0.70710678118654879 0.70710678118654635 0.5 forward I I I I #
loop $-1 $-1 $183 $47 #
coedge $-1 $115 $115 $184 $185 reversed $72 $-1 #
face $-1 $-1 $186 $38 $-1 $187 forward single #
loop $-1 $188 $189 $74 #
cone-surface $-1 14.942740875866789 32.424301570919269 9.7564763163524049 0 -0.77714596973225614 -0.62932038083071107 0.5 0 0 1 I I -0.70710678118654879 0.70710678118654635 0.5 forward I I I I #
loop $-1 $-1 $190 $48 #
coedge $-1 $120 $120 $191 $192 reversed $75 $-1 #
face $-1 $-1 $193 $39 $-1 $194 forward single #
loop $-1 $195 $196 $77 #
cone-surface $-1 20.767116145832347 32.424301570919269 9.7564763163524049 0 -0.77714596973225614 -0.62932038083071107 0.5 0 0 1 I I -0.70710678118654879 0.70710678118654635 0.5 forward I I I I #
loop $-1 $-1 $197 $49 #
coedge $-1 $125 $125 $198 $199 reversed $78 $-1 #
face $-1 $200 $201 $30 $-1 $202 reversed single #
loop $-1 $-1 $203 $80 #
plane-surface $-1 0 -39.895709549379831 0 0 1 0 0 0 1 forward_v I I I I #
coedge $-1 $204 $205 $206 $207 forward $81 $-1 #
coedge $-1 $208 $83 $209 $210 forward $51 $-1 #
coedge $-1 $83 $208 $211 $212 forward $51 $-1 #
coedge $-1 $213 $214 $83 $133 reversed $215 $-1 #
edge $-1 $216 -39.895709549379831 $217 39.895709549379831 $132 $218 forward 7 unknown #
face $-1 $219 $220 $31 $-1 $221 reversed single #
loop $-1 $-1 $222 $84 #
plane-surface $-1 0 -48.926726721603714 10.362726157141196 0 0 1 1 0 0 forward_v I I I I #
coedge $-1 $223 $224 $139 $225 forward $85 $-1 #
coedge $-1 $226 $87 $227 $228 reversed $54 $-1 #
coedge $-1 $87 $226 $137 $225 reversed $54 $-1 #
coedge $-1 $229 $222 $87 $141 reversed $135 $-1 #
edge $-1 $230 -76.237678151799059 $231 76.237678151799059 $140 $232 forward 7 unknown #
face $-1 $233 $234 $32 $-1 $235 forward single #
loop $-1 $-1 $236 $88 #
plane-surface $-1 -51.587645159322996 108.17695192995657 161.78114948207593 -1 0 0 0 0.77714596973225614 0.62932038083071107 forward_v I I I I #
coedge $-1 $237 $238 $239 $240 reversed $89 $-1 #
coedge $-1 $147 $91 $241 $242 reversed $57 $-1 #
coedge $-1 $91 $146 $237 $243 reversed $57 $-1 #
coedge $-1 $239 $244 $91 $149 forward $234 $-1 #
edge $-1 $245 14.192766415598456 $246 25.921717236238905 $148 $247 forward 7 unknown #
loop $-1 $-1 $155 $92 #
plane-surface $-1 -61.29493727593227 -10.318656704874456 65.825300185797204 0 0.77714596973225614 0.62932038083071107 1 0 0 forward_v I I I I #
loop $-1 $-1 $248 $59 #
coedge $-1 $153 $153 $154 $249 reversed $93 $-1 #
coedge $-1 $154 $154 $153 $249 forward $95 $-1 #
coedge $-1 $155 $155 $96 $156 forward $150 $-1 #
edge $-1 $250 -3.4212262671158982e-015 $250 6.2831853071795969 $155 $251 forward 7 unknown #
loop $-1 $-1 $162 $97 #
plane-surface $-1 -61.29493727593227 -10.318656704874456 65.825300185797204 0 0.77714596973225614 0.62932038083071107 1 0 0 forward_v I I I I #
loop $-1 $-1 $252 $62 #
coedge $-1 $160 $160 $161 $253 reversed $98 $-1 #
coedge $-1 $161 $161 $160 $253 forward $100 $-1 #
coedge $-1 $162 $162 $101 $163 forward $157 $-1 #
edge $-1 $254 -3.4212262671158982e-015 $254 6.2831853071795969 $162 $255 forward 7 unknown #
loop $-1 $-1 $169 $102 #
plane-surface $-1 -61.29493727593227 -10.318656704874456 65.825300185797204 0 0.77714596973225614 0.62932038083071107 1 0 0 forward_v I I I I #
loop $-1 $-1 $256 $65 #
coedge $-1 $167 $167 $168 $257 reversed $103 $-1 #
coedge $-1 $168 $168 $167 $257 forward $105 $-1 #
coedge $-1 $169 $169 $106 $170 forward $164 $-1 #
edge $-1 $258 -3.4212262671158982e-015 $258 6.2831853071795969 $169 $259 forward 7 unknown #
face $-1 $260 $261 $36 $-1 $262 forward single #
loop $-1 $-1 $263 $107 #
plane-surface $-1 24.650032992476063 108.17695192995657 161.78114948207593 -1 0 0 0 0.77714596973225614 0.62932038083071107 forward_v I I I I #
coedge $-1 $264 $265 $266 $267 reversed $108 $-1 #
coedge $-1 $176 $110 $268 $269 reversed $69 $-1 #
coedge $-1 $110 $175 $264 $270 reversed $69 $-1 #
coedge $-1 $266 $271 $110 $178 forward $261 $-1 #
edge $-1 $272 14.192766415598456 $273 25.921717236238905 $177 $274 forward 7 unknown #
loop $-1 $-1 $184 $111 #
plane-surface $-1 14.942740875866789 -10.318656704874456 65.825300185797204 0 0.77714596973225614 0.62932038083071107 1 0 0 forward_v I I I I #
loop $-1 $-1 $275 $71 #
coedge $-1 $182 $182 $183 $276 reversed $112 $-1 #
coedge $-1 $183 $183 $182 $276 forward $114 $-1 #
coedge $-1 $184 $184 $115 $185 forward $179 $-1 #
edge $-1 $277 -3.4212262671158982e-015 $277 6.2831853071795969 $184 $278 forward 7 unknown #
loop $-1 $-1 $191 $116 #
plane-surface $-1 14.942740875866789 -10.318656704874456 65.825300185797204 0 0.77714596973225614 0.62932038083071107 1 0 0 forward_v I I I I #
loop $-1 $-1 $279 $74 #
coedge $-1 $189 $189 $190 $280 reversed $117 $-1 #
coedge $-1 $190 $190 $189 $280 forward $119 $-1 #
coedge $-1 $191 $191 $120 $192 forward $186 $-1 #
edge $-1 $281 -3.4212262671158982e-015 $281 6.2831853071795969 $191 $282 forward 7 unknown #
loop $-1 $-1 $198 $121 #
plane-surface $-1 14.942740875866789 -10.318656704874456 65.825300185797204 0 0.77714596973225614 0.62932038083071107 1 0 0 forward_v I I I I #
loop $-1 $-1 $283 $77 #
coedge $-1 $196 $196 $197 $284 reversed $122 $-1 #
coedge $-1 $197 $197 $196 $284 forward $124 $-1 #
coedge $-1 $198 $198 $125 $199 forward $193 $-1 #
edge $-1 $285 -3.4212262671158982e-015 $285 6.2831853071795969 $198 $286 forward 7 unknown #
face $-1 $287 $288 $30 $-1 $289 reversed single #
loop $-1 $-1 $290 $126 #
plane-surface $-1 -76.237678151799059 0 0 1 0 0 0 0 -1 forward_v I I I I #
coedge $-1 $291 $211 $292 $293 forward $127 $-1 #
coedge $-1 $294 $129 $291 $295 forward $81 $-1 #
coedge $-1 $129 $294 $296 $297 forward $81 $-1 #
coedge $-1 $214 $213 $129 $207 reversed $215 $-1 #
edge $-1 $298 -39.895709549379831 $299 39.895709549379831 $206 $300 forward 7 unknown #
coedge $-1 $131 $130 $301 $302 forward $51 $-1 #
coedge $-1 $303 $304 $130 $210 reversed $288 $-1 #
edge $-1 $217 -76.237678151799059 $305 76.237678151799059 $209 $306 forward 7 unknown #
coedge $-1 $203 $307 $131 $212 reversed $127 $-1 #
edge $-1 $308 -76.237678151799059 $216 76.237678151799059 $211 $309 forward 7 unknown #
coedge $-1 $206 $132 $307 $310 forward $215 $-1 #
coedge $-1 $132 $206 $303 $311 reversed $215 $-1 #
loop $-1 $-1 $213 $287 #
vertex $-1 $133 $312 #
vertex $-1 $133 $313 #
straight-curve $-1 76.237678151799059 0 18.299768820954739 0 1 0 I I #
face $-1 $314 $315 $31 $-1 $316 reversed single #
loop $-1 $-1 $317 $134 #
plane-surface $-1 0 -48.926726721603714 6.663008498176481 0 0 1 1 0 0 forward_v I I I I #
coedge $-1 $140 $318 $319 $320 forward $135 $-1 #
coedge $-1 $321 $137 $322 $323 reversed $85 $-1 #
coedge $-1 $137 $321 $229 $324 reversed $85 $-1 #
edge $-1 $230 -10.362726157141196 $325 -6.663008498176481 $137 $326 forward 7 unknown #
coedge $-1 $139 $138 $327 $328 forward $54 $-1 #
coedge $-1 $319 $329 $138 $228 forward $330 $-1 #
edge $-1 $331 6.663008498176481 $231 10.362726157141196 $227 $332 forward 7 unknown #
coedge $-1 $318 $140 $224 $324 forward $135 $-1 #
vertex $-1 $225 $333 #
vertex $-1 $320 $334 #
straight-curve $-1 0 -39.895709549379831 10.362726157141196 1 0 0 I I #
face $-1 $-1 $335 $32 $-1 $336 reversed single #
loop $-1 $-1 $148 $142 #
plane-surface $-1 0 0 18.299768820954739 0 0 1 1 0 0 forward_v I I I I #
coedge $-1 $337 $338 $339 $340 reversed $143 $-1 #
coedge $-1 $341 $145 $147 $243 forward $89 $-1 #
coedge $-1 $145 $341 $337 $342 forward $89 $-1 #
coedge $-1 $339 $148 $145 $240 forward $234 $-1 #
edge $-1 $246 -40.354760754575402 $343 -20.940176521356861 $239 $344 forward 7 unknown #
coedge $-1 $345 $346 $146 $242 forward $335 $-1 #
edge $-1 $347 -77.074854327059171 $245 -62.590805920083227 $241 $348 forward 7 unknown #
edge $-1 $246 61.153931456681235 $347 79.791419098759633 $147 $349 forward 7 unknown #
coedge $-1 $148 $339 $345 $350 forward $234 $-1 #
vertex $-1 $242 $351 #
vertex $-1 $149 $352 #
straight-curve $-1 -71.002229392541537 54.088475964978286 18.299768820954739 0 -1 0 I I #
coedge $-1 $248 $248 $-1 $353 reversed $152 $-1 #
edge $-1 $354 0 $354 6.2831853071796004 $153 $355 forward 7 unknown #
vertex $-1 $156 $356 #
ellipse-curve $-1 -67.119312545897827 34.03123413905962 11.057744617466753 0 0.77714596973225614 0.62932038083071107 1 0 0 1 I I #
coedge $-1 $252 $252 $-1 $357 reversed $159 $-1 #
edge $-1 $358 0 $358 6.2831853071796004 $160 $359 forward 7 unknown #
vertex $-1 $163 $360 #
ellipse-curve $-1 -61.29493727593227 34.03123413905962 11.057744617466753 0 0.77714596973225614 0.62932038083071107 1 0 0 1 I I #
coedge $-1 $256 $256 $-1 $361 reversed $166 $-1 #
edge $-1 $362 0 $362 6.2831853071796004 $167 $363 forward 7 unknown #
vertex $-1 $170 $364 #
ellipse-curve $-1 -55.470562005966705 34.03123413905962 11.057744617466753 0 0.77714596973225614 0.62932038083071107 1 0 0 1 I I #
face $-1 $-1 $365 $36 $-1 $366 reversed single #
loop $-1 $-1 $177 $171 #
plane-surface $-1 0 0 18.299768820954739 0 0 1 1 0 0 forward_v I I I I #
coedge $-1 $367 $368 $369 $370 reversed $172 $-1 #
coedge $-1 $371 $174 $176 $270 forward $108 $-1 #
coedge $-1 $174 $371 $367 $372 forward $108 $-1 #
coedge $-1 $369 $177 $174 $267 forward $261 $-1 #
edge $-1 $273 -2.2359216786758775 $373 17.178662554542669 $266 $374 forward 7 unknown #
coedge $-1 $375 $376 $175 $269 forward $365 $-1 #
edge $-1 $377 -77.074854327059171 $272 -62.590805920083227 $268 $378 forward 7 unknown #
edge $-1 $273 61.153931456681235 $377 79.791419098759633 $176 $379 forward 7 unknown #
coedge $-1 $177 $369 $375 $380 forward $261 $-1 #
vertex $-1 $178 $381 #
vertex $-1 $178 $382 #
straight-curve $-1 5.2354487592575172 54.088475964978286 18.299768820954739 0 -1 0 I I #
coedge $-1 $275 $275 $-1 $383 reversed $181 $-1 #
edge $-1 $384 0 $384 6.2831853071796004 $182 $385 forward 7 unknown #
vertex $-1 $185 $386 #
ellipse-curve $-1 9.1183656059012321 34.03123413905962 11.057744617466753 0 0.77714596973225614 0.62932038083071107 1 0 0 1 I I #
coedge $-1 $279 $279 $-1 $387 reversed $188 $-1 #
edge $-1 $388 0 $388 6.2831853071796004 $189 $389 forward 7 unknown #
vertex $-1 $192 $390 #
ellipse-curve $-1 14.942740875866789 34.03123413905962 11.057744617466753 0 0.77714596973225614 0.62932038083071107 1 0 0 1 I I #
coedge $-1 $283 $283 $-1 $391 reversed $195 $-1 #
edge $-1 $392 0 $392 6.2831853071796004 $196 $393 forward 7 unknown #
vertex $-1 $199 $394 #
ellipse-curve $-1 20.767116145832347 34.03123413905962 11.057744617466753 0 0.77714596973225614 0.62932038083071107 1 0 0 1 I I #
face $-1 $-1 $215 $30 $-1 $395 reversed single #
loop $-1 $-1 $303 $200 #
plane-surface $-1 0 39.895709549379831 0 0 -1 0 0 0 -1 forward_v I I I I #
coedge $-1 $396 $301 $304 $397 forward $201 $-1 #
coedge $-1 $307 $203 $204 $295 reversed $127 $-1 #
coedge $-1 $301 $396 $203 $293 reversed $201 $-1 #
edge $-1 $308 -18.299768820954739 $398 18.299768820954739 $292 $399 forward 7 unknown #
coedge $-1 $205 $204 $396 $400 forward $81 $-1 #
edge $-1 $299 -76.237678151799059 $398 76.237678151799059 $291 $401 forward 7 unknown #
coedge $-1 $304 $303 $205 $297 reversed $288 $-1 #
edge $-1 $402 -76.237678151799059 $298 76.237678151799059 $296 $403 forward 7 unknown #
vertex $-1 $207 $404 #
vertex $-1 $310 $405 #
straight-curve $-1 76.237678151799059 0 -18.299768820954739 0 -1 0 I I #
coedge $-1 $290 $292 $208 $302 reversed $201 $-1 #
edge $-1 $305 -39.895709549379831 $308 39.895709549379831 $301 $406 forward 7 unknown #
coedge $-1 $296 $209 $214 $311 forward $288 $-1 #
coedge $-1 $209 $296 $290 $397 reversed $288 $-1 #
vertex $-1 $210 $407 #
straight-curve $-1 0 39.895709549379831 18.299768820954739 -1 0 0 I I #
coedge $-1 $211 $291 $213 $310 reversed $127 $-1 #
vertex $-1 $302 $408 #
straight-curve $-1 0 -39.895709549379831 18.299768820954739 1 0 0 I I #
edge $-1 $216 -18.299768820954739 $299 18.299768820954739 $213 $409 forward 7 unknown #
edge $-1 $217 -18.299768820954739 $298 18.299768820954739 $214 $410 forward 7 unknown #
point $-1 76.237678151799059 -39.895709549379831 18.299768820954739 #
point $-1 76.237678151799059 39.895709549379831 18.299768820954739 #
face $-1 $-1 $330 $31 $-1 $411 reversed single #
loop $-1 $-1 $412 $219 #
plane-surface $-1 0 -57.957743893827598 8.5128673276588387 0 1 0 0 0 1 forward_v I I I I #
coedge $-1 $413 $327 $329 $414 forward $220 $-1 #
coedge $-1 $222 $229 $415 $416 forward $135 $-1 #
coedge $-1 $417 $227 $222 $320 reversed $330 $-1 #
edge $-1 $418 -9.0310171722238834 $231 9.0310171722238834 $319 $419 forward 7 unknown #
coedge $-1 $224 $223 $412 $420 reversed $85 $-1 #
coedge $-1 $327 $413 $223 $323 forward $220 $-1 #
edge $-1 $421 -9.0310171722238834 $325 9.0310171722238834 $223 $422 forward 7 unknown #
edge $-1 $230 -9.0310171722238834 $423 9.0310171722238834 $224 $424 forward 7 unknown #
vertex $-1 $225 $425 #
straight-curve $-1 -76.237678151799059 -39.895709549379831 0 0 0 -1 I I #
coedge $-1 $317 $322 $226 $328 reversed $220 $-1 #
edge $-1 $331 -76.237678151799059 $325 76.237678151799059 $327 $426 forward 7 unknown #
coedge $-1 $227 $417 $317 $414 reversed $330 $-1 #
loop $-1 $-1 $227 $314 #
vertex $-1 $228 $427 #
straight-curve $-1 76.237678151799059 -39.895709549379831 0 0 0 1 I I #
point $-1 -76.237678151799059 -39.895709549379831 10.362726157141196 #
point $-1 76.237678151799059 -39.895709549379831 10.362726157141196 #
loop $-1 $-1 $241 $233 #
plane-surface $-1 0 39.895709549379831 0 0 -1 0 0 0 -1 forward_v I I I I #
coedge $-1 $338 $236 $238 $342 reversed $143 $-1 #
coedge $-1 $236 $337 $428 $429 reversed $143 $-1 #
coedge $-1 $244 $239 $236 $340 forward $234 $-1 #
edge $-1 $343 -25.921717236238905 $430 -14.192766415598456 $339 $431 forward 7 unknown #
coedge $-1 $238 $237 $346 $432 reversed $89 $-1 #
edge $-1 $433 -79.791419098759633 $343 -61.153931456681235 $337 $434 forward 7 unknown #
vertex $-1 $240 $435 #
straight-curve $-1 -30.647468637966135 28.166758728739385 18.299768820954743 1 0 0 I I #
coedge $-1 $428 $241 $244 $350 reversed $335 $-1 #
coedge $-1 $241 $428 $341 $432 forward $335 $-1 #
vertex $-1 $242 $436 #
straight-curve $-1 -71.002229392541537 39.895709549379831 80.890574741037966 0 0 1 I I #
straight-curve $-1 -71.002229392541537 -10.318656704874456 65.825300185797204 0 0.62932038083071107 -0.77714596973225614 I I #
edge $-1 $430 51.587645159322996 $245 71.002229392541537 $345 $437 forward 7 unknown #
point $-1 -71.002229392541537 39.895709549379831 18.299768820954739 #
point $-1 -71.002229392541537 28.166758728739381 18.299768820954739 #
edge $-1 $438 1 $438 0 $248 $-1 forward 7 unknown #
vertex $-1 $249 $439 #
ellipse-curve $-1 -67.119312545897827 32.812874555785399 10.071136506767759 0 0.77714596973225614 0.62932038083071107 1 0 0 1 I I #
point $-1 -66.119312545897827 34.031234139059606 11.057744617466746 #
edge $-1 $440 1 $440 0 $252 $-1 forward 7 unknown #
vertex $-1 $253 $441 #
ellipse-curve $-1 -61.29493727593227 32.812874555785399 10.071136506767759 0 0.77714596973225614 0.62932038083071107 1 0 0 1 I I #
point $-1 -60.29493727593227 34.031234139059606 11.057744617466746 #
edge $-1 $442 1 $442 0 $256 $-1 forward 7 unknown #
vertex $-1 $257 $443 #
ellipse-curve $-1 -55.470562005966705 32.812874555785399 10.071136506767759 0 0.77714596973225614 0.62932038083071107 1 0 0 1 I I #
point $-1 -54.470562005966705 34.031234139059606 11.057744617466746 #
loop $-1 $-1 $268 $260 #
plane-surface $-1 0 39.895709549379831 0 0 -1 0 0 0 -1 forward_v I I I I #
coedge $-1 $368 $263 $265 $372 reversed $172 $-1 #
coedge $-1 $263 $367 $444 $445 reversed $172 $-1 #
coedge $-1 $271 $266 $263 $370 forward $261 $-1 #
edge $-1 $373 -25.921717236238905 $446 -14.192766415598456 $369 $447 forward 7 unknown #
coedge $-1 $265 $264 $376 $448 reversed $108 $-1 #
edge $-1 $449 -79.791419098759633 $373 -61.153931456681235 $367 $450 forward 7 unknown #
vertex $-1 $267 $451 #
straight-curve $-1 7.4713704379333947 28.166758728739385 18.299768820954743 1 0 0 I I #
coedge $-1 $444 $268 $271 $380 reversed $365 $-1 #
coedge $-1 $268 $444 $371 $448 forward $365 $-1 #
vertex $-1 $269 $452 #
straight-curve $-1 5.2354487592575172 39.895709549379831 80.890574741037966 0 0 1 I I #
straight-curve $-1 5.2354487592575172 -10.318656704874456 65.825300185797204 0 0.62932038083071107 -0.77714596973225614 I I #
edge $-1 $446 -24.650032992476063 $272 -5.2354487592575172 $375 $453 forward 7 unknown #
point $-1 5.2354487592575172 39.895709549379831 18.299768820954739 #
point $-1 5.2354487592575172 28.166758728739381 18.299768820954739 #
edge $-1 $454 1 $454 0 $275 $-1 forward 7 unknown #
vertex $-1 $276 $455 #
ellipse-curve $-1 9.1183656059012321 32.812874555785399 10.071136506767759 0 0.77714596973225614 0.62932038083071107 1 0 0 1 I I #
point $-1 10.118365605901232 34.031234139059606 11.057744617466746 #
edge $-1 $456 1 $456 0 $279 $-1 forward 7 unknown #
vertex $-1 $280 $457 #
ellipse-curve $-1 14.942740875866789 32.812874555785399 10.071136506767759 0 0.77714596973225614 0.62932038083071107 1 0 0 1 I I #
point $-1 15.942740875866789 34.031234139059606 11.057744617466746 #
edge $-1 $458 1 $458 0 $283 $-1 forward 7 unknown #
vertex $-1 $284 $459 #
ellipse-curve $-1 20.767116145832347 32.812874555785399 10.071136506767759 0 0.77714596973225614 0.62932038083071107 1 0 0 1 I I #
point $-1 21.767116145832347 34.031234139059606 11.057744617466746 #
plane-surface $-1 76.237678151799059 0 0 -1 0 0 0 0 1 forward_v I I I I #
coedge $-1 $292 $290 $294 $400 reversed $201 $-1 #
edge $-1 $305 -18.299768820954739 $402 18.299768820954739 $304 $460 forward 7 unknown #
vertex $-1 $400 $461 #
straight-curve $-1 -76.237678151799059 -39.895709549379831 0 0 0 -1 I I #
edge $-1 $398 -39.895709549379831 $402 39.895709549379831 $396 $462 forward 7 unknown #
straight-curve $-1 0 -39.895709549379831 -18.299768820954739 -1 0 0 I I #
vertex $-1 $297 $463 #
straight-curve $-1 0 39.895709549379831 -18.299768820954739 1 0 0 I I #
point $-1 76.237678151799059 39.895709549379831 -18.299768820954739 #
point $-1 76.237678151799059 -39.895709549379831 -18.299768820954739 #
straight-curve $-1 -76.237678151799059 0 18.299768820954739 0 -1 0 I I #
point $-1 -76.237678151799059 39.895709549379831 18.299768820954739 #
point $-1 -76.237678151799059 -39.895709549379831 18.299768820954739 #
straight-curve $-1 76.237678151799059 -39.895709549379831 0 0 0 -1 I I #
straight-curve $-1 76.237678151799059 39.895709549379831 0 0 0 -1 I I #
plane-surface $-1 76.237678151799059 0 0 -1 0 0 0 0 1 forward_v I I I I #
coedge $-1 $464 $415 $321 $420 forward $315 $-1 #
coedge $-1 $322 $317 $464 $465 forward $220 $-1 #
edge $-1 $331 -9.0310171722238834 $466 9.0310171722238834 $329 $467 forward 7 unknown #
coedge $-1 $412 $468 $318 $416 reversed $315 $-1 #
edge $-1 $423 -76.237678151799059 $418 76.237678151799059 $415 $469 forward 7 unknown #
coedge $-1 $329 $319 $468 $470 forward $330 $-1 #
vertex $-1 $320 $471 #
straight-curve $-1 76.237678151799059 -48.926726721603714 10.362726157141196 0 1 0 I I #
edge $-1 $423 -1.8498588294823577 $421 1.8498588294823577 $321 $472 forward 7 unknown #
vertex $-1 $323 $473 #
straight-curve $-1 -76.237678151799059 -48.926726721603714 6.663008498176481 0 1 0 I I #
vertex $-1 $324 $474 #
straight-curve $-1 -76.237678151799059 -48.926726721603714 10.362726157141196 0 -1 0 I I #
point $-1 -76.237678151799059 -39.895709549379831 6.663008498176481 #
straight-curve $-1 0 -39.895709549379831 6.663008498176481 -1 0 0 I I #
point $-1 76.237678151799059 -39.895709549379831 6.663008498176481 #
coedge $-1 $346 $345 $338 $429 forward $335 $-1 #
edge $-1 $430 62.590805920083227 $433 77.074854327059171 $428 $475 forward 7 unknown #
vertex $-1 $350 $476 #
straight-curve $-1 -51.587645159322996 54.088475964978286 18.299768820954739 0 1 0 I I #
edge $-1 $433 20.940176521356861 $347 40.354760754575402 $346 $477 forward 7 unknown #
vertex $-1 $432 $478 #
straight-curve $-1 -51.587645159322996 -10.318656704874456 65.825300185797204 0 -0.62932038083071107 0.77714596973225614 I I #
point $-1 -51.587645159322996 28.166758728739381 18.299768820954739 #
point $-1 -71.002229392541537 39.895709549379831 3.8157204139787879 #
straight-curve $-1 0 39.895709549379831 18.299768820954739 -1 0 0 I I #
vertex $-1 $353 $479 #
point $-1 -66.119312545897827 32.812874555785399 10.071136506767759 #
vertex $-1 $357 $480 #
point $-1 -60.29493727593227 32.812874555785399 10.071136506767759 #
vertex $-1 $361 $481 #
point $-1 -54.470562005966705 32.812874555785399 10.071136506767759 #
coedge $-1 $376 $375 $368 $445 forward $365 $-1 #
edge $-1 $446 62.590805920083227 $449 77.074854327059171 $444 $482 forward 7 unknown #
vertex $-1 $380 $483 #
straight-curve $-1 24.650032992476063 54.088475964978286 18.299768820954739 0 1 0 I I #
edge $-1 $449 -17.178662554542669 $377 2.2359216786758775 $376 $484 forward 7 unknown #
vertex $-1 $448 $485 #
straight-curve $-1 24.650032992476063 -10.318656704874456 65.825300185797204 0 -0.62932038083071107 0.77714596973225614 I I #
point $-1 24.650032992476063 28.166758728739381 18.299768820954739 #
point $-1 5.2354487592575172 39.895709549379831 3.8157204139787879 #
straight-curve $-1 0 39.895709549379831 18.299768820954739 -1 0 0 I I #
vertex $-1 $383 $486 #
point $-1 10.118365605901232 32.812874555785399 10.071136506767759 #
vertex $-1 $387 $487 #
point $-1 15.942740875866789 32.812874555785399 10.071136506767759 #
vertex $-1 $391 $488 #
point $-1 21.767116145832347 32.812874555785399 10.071136506767759 #
straight-curve $-1 -76.237678151799059 39.895709549379831 0 0 0 -1 I I #
point $-1 -76.237678151799059 -39.895709549379831 -18.299768820954739 #
straight-curve $-1 -76.237678151799059 0 -18.299768820954739 0 1 0 I I #
point $-1 -76.237678151799059 39.895709549379831 -18.299768820954739 #
coedge $-1 $468 $412 $413 $465 reversed $315 $-1 #
edge $-1 $466 -76.237678151799059 $421 76.237678151799059 $464 $489 forward 7 unknown #
vertex $-1 $470 $490 #
straight-curve $-1 76.237678151799059 -48.926726721603714 6.663008498176481 0 -1 0 I I #
coedge $-1 $415 $464 $417 $470 reversed $315 $-1 #
straight-curve $-1 0 -57.957743893827598 10.362726157141196 1 0 0 I I #
edge $-1 $418 -1.8498588294823577 $466 1.8498588294823577 $417 $491 forward 7 unknown #
point $-1 76.237678151799059 -57.957743893827598 10.362726157141196 #
straight-curve $-1 -76.237678151799059 -57.957743893827598 8.5128673276588387 0 0 -1 I I #
point $-1 -76.237678151799059 -57.957743893827598 6.663008498176481 #
point $-1 -76.237678151799059 -57.957743893827598 10.362726157141196 #
straight-curve $-1 -51.587645159322996 39.895709549379831 80.890574741037966 0 0 -1 I I #
point $-1 -51.587645159322996 39.895709549379831 18.299768820954739 #
straight-curve $-1 -30.647468637966135 39.895709549379823 3.8157204139787915 -1 0 0 I I #
point $-1 -51.587645159322996 39.895709549379831 3.8157204139787879 #
point $-1 -67.119312545897827 32.035728586053139 9.4418161259370503 #
point $-1 -61.29493727593227 32.035728586053139 9.4418161259370503 #
point $-1 -55.470562005966705 32.035728586053139 9.4418161259370503 #
straight-curve $-1 24.650032992476063 39.895709549379831 80.890574741037966 0 0 -1 I I #
point $-1 24.650032992476063 39.895709549379831 18.299768820954739 #
straight-curve $-1 7.4713704379333947 39.895709549379823 3.8157204139787915 -1 0 0 I I #
point $-1 24.650032992476063 39.895709549379831 3.8157204139787879 #
point $-1 9.1183656059012321 32.035728586053139 9.4418161259370503 #
point $-1 14.942740875866789 32.035728586053139 9.4418161259370503 #
point $-1 20.767116145832347 32.035728586053139 9.4418161259370503 #
straight-curve $-1 0 -57.957743893827598 6.663008498176481 -1 0 0 I I #
point $-1 76.237678151799059 -57.957743893827598 6.663008498176481 #
straight-curve $-1 76.237678151799059 -57.957743893827598 8.5128673276588387 0 0 -1 I I #
End-of-ACIS-data 