500 0 5 0           
7 Unknown 11 ACIS 5.0 NT 24 Fri Mar 26 14:37:58 1999 
-1 9.9999999999999995e-007 1e-010 
body $-1 $5 $-1 $6 #
body $-1 $7 $-1 $8 #
body $-1 $9 $-1 $10 #
body $-1 $11 $-1 $12 #
body $-1 $13 $-1 $14 #
lump $-1 $-1 $15 $0 #
transform $-1 1 0 0 0 1 0 0 0 1 56.611835077974789 39.548982719501957 19.506904779688305 1 rotate no_reflect no_shear #
lump $-1 $-1 $16 $1 #
transform $-1 1 0 0 0 1 0 0 0 1 56.611835077974789 39.548982719501957 19.506904779688305 1 rotate no_reflect no_shear #
lump $-1 $-1 $17 $2 #
transform $-1 1 0 0 0 1 0 0 0 1 56.611835077974789 39.548982719501957 19.506904779688305 1 rotate no_reflect no_shear #
lump $-1 $-1 $18 $3 #
transform $-1 1 0 0 0 1 0 0 0 1 56.611835077974789 39.548982719501957 19.506904779688305 1 rotate no_reflect no_shear #
lump $-1 $-1 $19 $4 #
transform $-1 1 0 0 0 1 0 0 0 1 56.611835077974789 39.548982719501957 19.506904779688305 1 rotate no_reflect no_shear #
shell $-1 $-1 $-1 $20 $-1 $5 #
shell $-1 $-1 $-1 $21 $-1 $7 #
shell $-1 $-1 $-1 $22 $-1 $9 #
shell $-1 $-1 $-1 $23 $-1 $11 #
shell $-1 $-1 $-1 $24 $-1 $13 #
face $-1 $25 $26 $15 $-1 $27 forward single #
face $-1 $28 $29 $16 $-1 $30 reversed single #
face $-1 $31 $32 $17 $-1 $33 forward single #
face $-1 $34 $35 $18 $-1 $36 forward single #
face $-1 $37 $38 $19 $-1 $39 forward single #
face $-1 $40 $41 $15 $-1 $42 reversed single #
loop $-1 $-1 $43 $20 #
plane-surface $-1 0 0 19.506904779688305 0 0 1 1 0 0 forward_v I I I I #
face $-1 $44 $45 $16 $-1 $46 reversed single #
loop $-1 $-1 $47 $21 #
plane-surface $-1 -30.934972058417131 54.134402979701711 150.2030570543354 -1 0 0 0 0.6560590369687036 0.75470957328743171 forward_v I I I I #
face $-1 $48 $49 $17 $-1 $50 forward single #
loop $-1 $51 $52 $22 #
cone-surface $-1 -51.476462474063254 33.970216642726655 14.164038384372761 0 -0.6560590369687036 -0.75470957328743171 2.5 0 0 1 I I 0 1 2.5 forward I I I I #
face $-1 $53 $54 $18 $-1 $55 forward single #
loop $-1 $56 $57 $23 #
cone-surface $-1 -43.77340356819596 33.970216642726655 14.164038384372761 0 -0.6560590369687036 -0.75470957328743171 2.5 0 0 1 I I 0 1 2.5 forward I I I I #
face $-1 $58 $59 $19 $-1 $60 forward single #
loop $-1 $61 $62 $24 #
cone-surface $-1 -36.070344662328665 33.970216642726655 14.164038384372761 0 -0.6560590369687036 -0.75470957328743171 2.5 0 0 1 I I 0 1 2.5 forward I I I I #
face $-1 $63 $64 $15 $-1 $65 reversed single #
loop $-1 $-1 $66 $25 #
plane-surface $-1 0 0 -19.506904779688305 0 0 1 1 0 0 forward_v I I I I #
coedge $-1 $67 $68 $69 $70 forward $26 $-1 #
face $-1 $71 $72 $16 $-1 $73 reversed single #
loop $-1 $-1 $74 $28 #
plane-surface $-1 -43.77340356819596 -20.147009024872709 64.752069264901778 0 0.6560590369687036 0.75470957328743171 1 0 0 forward_v I I I I #
coedge $-1 $75 $76 $77 $78 reversed $29 $-1 #
face $-1 $-1 $79 $17 $-1 $80 forward single #
loop $-1 $81 $82 $31 #
cone-surface $-1 -51.476462474063254 31.39506929589826 11.201670295889542 0 -0.6560590369687036 -0.75470957328743171 1.25 0 0 1 I I -0.70710678118654746 0.70710678118654746 1.25 forward I I I I #
loop $-1 $-1 $83 $22 #
coedge $-1 $52 $52 $84 $85 reversed $32 $-1 #
face $-1 $-1 $86 $18 $-1 $87 forward single #
loop $-1 $88 $89 $34 #
cone-surface $-1 -43.77340356819596 31.39506929589826 11.201670295889542 0 -0.6560590369687036 -0.75470957328743171 1.25 0 0 1 I I -0.70710678118654746 0.70710678118654746 1.25 forward I I I I #
loop $-1 $-1 $90 $23 #
coedge $-1 $57 $57 $91 $92 reversed $35 $-1 #
face $-1 $-1 $93 $19 $-1 $94 forward single #
loop $-1 $95 $96 $37 #
cone-surface $-1 -36.070344662328665 31.39506929589826 11.201670295889542 0 -0.6560590369687036 -0.75470957328743171 1.25 0 0 1 I I -0.70710678118654746 0.70710678118654746 1.25 forward I I I I #
loop $-1 $-1 $97 $24 #
coedge $-1 $62 $62 $98 $99 reversed $38 $-1 #
face $-1 $100 $101 $15 $-1 $102 reversed single #
loop $-1 $-1 $103 $40 #
plane-surface $-1 0 -39.548982719501957 0 0 1 0 0 0 1 forward_v I I I I #
coedge $-1 $104 $105 $106 $107 forward $41 $-1 #
coedge $-1 $108 $43 $109 $110 forward $26 $-1 #
coedge $-1 $43 $108 $111 $112 forward $26 $-1 #
coedge $-1 $113 $114 $43 $70 reversed $115 $-1 #
edge $-1 $116 -39.548982719501957 $117 39.548982719501957 $69 $118 forward 7 unknown #
face $-1 $119 $120 $16 $-1 $121 forward single #
loop $-1 $-1 $77 $44 #
plane-surface $-1 0 39.548982719501957 0 0 -1 0 0 0 -1 forward_v I I I I #
coedge $-1 $122 $123 $124 $125 reversed $45 $-1 #
coedge $-1 $76 $47 $126 $127 reversed $29 $-1 #
coedge $-1 $47 $75 $122 $128 reversed $29 $-1 #
coedge $-1 $124 $129 $47 $78 forward $72 $-1 #
edge $-1 $130 55.594623747479396 $131 62.242394294362633 $77 $132 forward 7 unknown #
loop $-1 $-1 $84 $48 #
plane-surface $-1 -43.77340356819596 -20.147009024872709 64.752069264901778 0 0.6560590369687036 0.75470957328743171 1 0 0 forward_v I I I I #
loop $-1 $-1 $133 $31 #
coedge $-1 $82 $82 $83 $134 reversed $49 $-1 #
coedge $-1 $83 $83 $82 $134 forward $51 $-1 #
coedge $-1 $84 $84 $52 $85 forward $79 $-1 #
edge $-1 $135 0 $135 6.2831853071796004 $84 $136 forward 7 unknown #
loop $-1 $-1 $91 $53 #
plane-surface $-1 -43.77340356819596 -20.147009024872709 64.752069264901778 0 0.6560590369687036 0.75470957328743171 1 0 0 forward_v I I I I #
loop $-1 $-1 $137 $34 #
coedge $-1 $89 $89 $90 $138 reversed $54 $-1 #
coedge $-1 $90 $90 $89 $138 forward $56 $-1 #
coedge $-1 $91 $91 $57 $92 forward $86 $-1 #
edge $-1 $139 0 $139 6.2831853071796004 $91 $140 forward 7 unknown #
loop $-1 $-1 $98 $58 #
plane-surface $-1 -43.77340356819596 -20.147009024872709 64.752069264901778 0 0.6560590369687036 0.75470957328743171 1 0 0 forward_v I I I I #
loop $-1 $-1 $141 $37 #
coedge $-1 $96 $96 $97 $142 reversed $59 $-1 #
coedge $-1 $97 $97 $96 $142 forward $61 $-1 #
coedge $-1 $98 $98 $62 $99 forward $93 $-1 #
edge $-1 $143 0 $143 6.2831853071796004 $98 $144 forward 7 unknown #
face $-1 $145 $146 $15 $-1 $147 reversed single #
loop $-1 $-1 $148 $63 #
plane-surface $-1 -56.611835077974789 0 0 1 0 0 0 0 -1 forward_v I I I I #
coedge $-1 $149 $111 $150 $151 forward $64 $-1 #
coedge $-1 $152 $66 $149 $153 forward $41 $-1 #
coedge $-1 $66 $152 $154 $155 forward $41 $-1 #
coedge $-1 $114 $113 $66 $107 reversed $115 $-1 #
edge $-1 $156 -39.548982719501957 $157 39.548982719501957 $106 $158 forward 7 unknown #
coedge $-1 $68 $67 $159 $160 forward $26 $-1 #
coedge $-1 $161 $162 $67 $110 reversed $146 $-1 #
edge $-1 $117 -56.611835077974789 $163 56.611835077974789 $109 $164 forward 7 unknown #
coedge $-1 $103 $165 $68 $112 reversed $64 $-1 #
edge $-1 $166 -56.611835077974789 $116 56.611835077974789 $111 $167 forward 7 unknown #
coedge $-1 $106 $69 $165 $168 forward $115 $-1 #
coedge $-1 $69 $106 $161 $169 reversed $115 $-1 #
loop $-1 $-1 $113 $145 #
vertex $-1 $70 $170 #
vertex $-1 $70 $171 #
straight-curve $-1 56.611835077974789 0 19.506904779688305 0 1 0 I I #
face $-1 $-1 $172 $16 $-1 $173 reversed single #
loop $-1 $-1 $126 $71 #
plane-surface $-1 0 0 19.506904779688305 0 0 1 1 0 0 forward_v I I I I #
coedge $-1 $174 $74 $76 $128 forward $45 $-1 #
coedge $-1 $74 $174 $175 $176 reversed $45 $-1 #
coedge $-1 $177 $77 $74 $125 forward $72 $-1 #
edge $-1 $131 9.048270274319151 $178 34.725133293876809 $124 $179 forward 7 unknown #
coedge $-1 $180 $181 $75 $127 forward $120 $-1 #
edge $-1 $182 4.8343961773355453 $130 12.481781229651101 $126 $183 forward 7 unknown #
edge $-1 $131 -79.097965439003929 $182 -68.965080786429027 $76 $184 forward 7 unknown #
coedge $-1 $77 $177 $180 $185 reversed $72 $-1 #
vertex $-1 $185 $186 #
vertex $-1 $78 $187 #
straight-curve $-1 -30.934972058417131 39.548982719501957 75.101528527167702 0 0 -1 I I #
coedge $-1 $133 $133 $-1 $188 reversed $81 $-1 #
edge $-1 $189 0 $189 6.2831853071796004 $82 $190 forward 7 unknown #
vertex $-1 $85 $191 #
ellipse-curve $-1 -51.476462474063254 35.725290193344172 16.183019506246691 0 0.6560590369687036 0.75470957328743171 2.5 0 0 1 I I #
coedge $-1 $137 $137 $-1 $192 reversed $88 $-1 #
edge $-1 $193 0 $193 6.2831853071796004 $89 $194 forward 7 unknown #
vertex $-1 $92 $195 #
ellipse-curve $-1 -43.77340356819596 35.725290193344172 16.183019506246691 0 0.6560590369687036 0.75470957328743171 2.5 0 0 1 I I #
coedge $-1 $141 $141 $-1 $196 reversed $95 $-1 #
edge $-1 $197 0 $197 6.2831853071796004 $96 $198 forward 7 unknown #
vertex $-1 $99 $199 #
ellipse-curve $-1 -36.070344662328665 35.725290193344172 16.183019506246691 0 0.6560590369687036 0.75470957328743171 2.5 0 0 1 I I #
face $-1 $-1 $115 $15 $-1 $200 reversed single #
loop $-1 $-1 $161 $100 #
plane-surface $-1 0 39.548982719501957 0 0 -1 0 0 0 -1 forward_v I I I I #
coedge $-1 $201 $159 $162 $202 forward $101 $-1 #
coedge $-1 $165 $103 $104 $153 reversed $64 $-1 #
coedge $-1 $159 $201 $103 $151 reversed $101 $-1 #
edge $-1 $166 -19.506904779688305 $203 19.506904779688305 $150 $204 forward 7 unknown #
coedge $-1 $105 $104 $201 $205 forward $41 $-1 #
edge $-1 $157 -56.611835077974789 $203 56.611835077974789 $149 $206 forward 7 unknown #
coedge $-1 $162 $161 $105 $155 reversed $146 $-1 #
edge $-1 $207 -56.611835077974789 $156 56.611835077974789 $154 $208 forward 7 unknown #
vertex $-1 $107 $209 #
vertex $-1 $168 $210 #
straight-curve $-1 56.611835077974789 0 -19.506904779688305 0 -1 0 I I #
coedge $-1 $148 $150 $108 $160 reversed $101 $-1 #
edge $-1 $163 -39.548982719501957 $166 39.548982719501957 $159 $211 forward 7 unknown #
coedge $-1 $154 $109 $114 $169 forward $146 $-1 #
coedge $-1 $109 $154 $148 $202 reversed $146 $-1 #
vertex $-1 $110 $212 #
straight-curve $-1 0 39.548982719501957 19.506904779688305 -1 0 0 I I #
coedge $-1 $111 $149 $113 $168 reversed $64 $-1 #
vertex $-1 $160 $213 #
straight-curve $-1 0 -39.548982719501957 19.506904779688305 1 0 0 I I #
edge $-1 $116 -19.506904779688305 $157 19.506904779688305 $113 $214 forward 7 unknown #
edge $-1 $117 -19.506904779688305 $156 19.506904779688305 $114 $215 forward 7 unknown #
point $-1 56.611835077974789 -39.548982719501957 19.506904779688305 #
point $-1 56.611835077974789 39.548982719501957 19.506904779688305 #
loop $-1 $-1 $175 $119 #
plane-surface $-1 -56.611835077974789 0 0 1 0 0 0 0 -1 forward_v I I I I #
coedge $-1 $123 $122 $181 $216 reversed $45 $-1 #
coedge $-1 $217 $218 $123 $176 forward $172 $-1 #
edge $-1 $178 -50.254805045082932 $219 -40.121920392508052 $175 $220 forward 7 unknown #
coedge $-1 $129 $124 $218 $221 reversed $72 $-1 #
vertex $-1 $125 $222 #
straight-curve $-1 -21.88670178409798 39.54898271950195 12.859134232805072 -1 0 0 I I #
coedge $-1 $223 $126 $129 $185 forward $120 $-1 #
coedge $-1 $126 $223 $174 $216 forward $120 $-1 #
vertex $-1 $127 $224 #
straight-curve $-1 -30.934972058417131 27.067201489850856 19.506904779688313 0 1 0 I I #
straight-curve $-1 -30.934972058417131 -20.147009024872709 64.752069264901778 0 -0.75470957328743171 0.6560590369687036 I I #
edge $-1 $130 30.934972058417131 $225 56.611835077974789 $129 $226 forward 7 unknown #
point $-1 -30.934972058417131 39.548982719501957 19.506904779688305 #
point $-1 -30.934972058417131 39.548982719501957 12.859134232805069 #
edge $-1 $227 1 $227 0 $133 $-1 forward 7 unknown #
vertex $-1 $134 $228 #
ellipse-curve $-1 -51.476462474063254 32.215143092109138 12.145057262498831 0 0.6560590369687036 0.75470957328743171 2.5 0 0 1 I I #
point $-1 -48.976462474063254 35.725290193344172 16.183019506246691 #
edge $-1 $229 1 $229 0 $137 $-1 forward 7 unknown #
vertex $-1 $138 $230 #
ellipse-curve $-1 -43.77340356819596 32.215143092109138 12.145057262498831 0 0.6560590369687036 0.75470957328743171 2.5 0 0 1 I I #
point $-1 -41.27340356819596 35.725290193344172 16.183019506246691 #
edge $-1 $231 1 $231 0 $141 $-1 forward 7 unknown #
vertex $-1 $142 $232 #
ellipse-curve $-1 -36.070344662328665 32.215143092109138 12.145057262498831 0 0.6560590369687036 0.75470957328743171 2.5 0 0 1 I I #
point $-1 -33.570344662328665 35.725290193344172 16.183019506246691 #
plane-surface $-1 56.611835077974789 0 0 -1 0 0 0 0 1 forward_v I I I I #
coedge $-1 $150 $148 $152 $205 reversed $101 $-1 #
edge $-1 $163 -19.506904779688305 $207 19.506904779688305 $162 $233 forward 7 unknown #
vertex $-1 $205 $234 #
straight-curve $-1 -56.611835077974789 -39.548982719501957 0 0 0 -1 I I #
edge $-1 $203 -39.548982719501957 $207 39.548982719501957 $201 $235 forward 7 unknown #
straight-curve $-1 0 -39.548982719501957 -19.506904779688305 -1 0 0 I I #
vertex $-1 $155 $236 #
straight-curve $-1 0 39.548982719501957 -19.506904779688305 1 0 0 I I #
point $-1 56.611835077974789 39.548982719501957 -19.506904779688305 #
point $-1 56.611835077974789 -39.548982719501957 -19.506904779688305 #
straight-curve $-1 -56.611835077974789 0 19.506904779688305 0 -1 0 I I #
point $-1 -56.611835077974789 39.548982719501957 19.506904779688305 #
point $-1 -56.611835077974789 -39.548982719501957 19.506904779688305 #
straight-curve $-1 56.611835077974789 -39.548982719501957 0 0 0 -1 I I #
straight-curve $-1 56.611835077974789 39.548982719501957 0 0 0 -1 I I #
edge $-1 $219 -34.725133293876809 $182 -9.048270274319151 $181 $237 forward 7 unknown #
coedge $-1 $218 $175 $223 $238 reversed $172 $-1 #
coedge $-1 $175 $217 $177 $221 forward $172 $-1 #
vertex $-1 $176 $239 #
straight-curve $-1 -56.611835077974789 1.6212002482843477 45.829253233732125 0 -0.75470957328743171 0.6560590369687036 I I #
edge $-1 $225 -19.506904779688305 $178 -12.859134232805074 $177 $240 forward 7 unknown #
point $-1 -56.611835077974789 39.548982719501957 12.859134232805074 #
coedge $-1 $181 $180 $217 $238 forward $120 $-1 #
point $-1 -30.934972058417131 31.901597667186401 19.506904779688305 #
vertex $-1 $185 $241 #
straight-curve $-1 0 39.548982719501957 19.506904779688305 -1 0 0 I I #
vertex $-1 $188 $242 #
point $-1 -48.976462474063254 32.215143092109138 12.145057262498831 #
vertex $-1 $192 $243 #
point $-1 -41.27340356819596 32.215143092109138 12.145057262498831 #
vertex $-1 $196 $244 #
point $-1 -33.570344662328665 32.215143092109138 12.145057262498831 #
straight-curve $-1 -56.611835077974789 39.548982719501957 0 0 0 -1 I I #
point $-1 -56.611835077974789 -39.548982719501957 -19.506904779688305 #
straight-curve $-1 -56.611835077974789 0 -19.506904779688305 0 1 0 I I #
point $-1 -56.611835077974789 39.548982719501957 -19.506904779688305 #
straight-curve $-1 -21.88670178409798 31.901597667186383 19.506904779688313 1 0 0 I I #
edge $-1 $225 -39.548982719501957 $219 -31.901597667186401 $217 $245 forward 7 unknown #
point $-1 -56.611835077974789 31.901597667186401 19.506904779688305 #
straight-curve $-1 -56.611835077974789 39.548982719501957 0 0 0 -1 I I #
point $-1 -56.611835077974789 39.548982719501957 19.506904779688305 #
point $-1 -51.476462474063254 30.574995499687379 10.258283329280253 #
point $-1 -43.77340356819596 30.574995499687379 10.258283329280253 #
point $-1 -36.070344662328665 30.574995499687379 10.258283329280253 #
straight-curve $-1 -56.611835077974789 0 19.506904779688305 0 -1 0 I I #
End-of-ACIS-data 