500 0 17 0           
7 Unknown 11 ACIS 5.0 NT 24 Fri Mar 26 03:29:22 1999 
-1 9.9999999999999995e-007 1e-010 
body $-1 $17 $-1 $18 #
body $-1 $19 $-1 $20 #
body $-1 $21 $-1 $22 #
body $-1 $23 $-1 $24 #
body $-1 $25 $-1 $26 #
body $-1 $27 $-1 $28 #
body $-1 $29 $-1 $30 #
body $-1 $31 $-1 $32 #
body $-1 $33 $-1 $34 #
body $-1 $35 $-1 $36 #
body $-1 $37 $-1 $38 #
body $-1 $39 $-1 $40 #
body $-1 $41 $-1 $42 #
body $-1 $43 $-1 $44 #
body $-1 $45 $-1 $46 #
body $-1 $47 $-1 $48 #
body $-1 $49 $-1 $50 #
lump $-1 $-1 $51 $0 #
transform $-1 1 0 0 0 1 0 0 0 1 68.316293832209226 38.126567390369182 11.785178313954718 1 rotate no_reflect no_shear #
lump $-1 $-1 $52 $1 #
transform $-1 1 0 0 0 1 0 0 0 1 68.316293832209226 38.126567390369182 11.785178313954718 1 rotate no_reflect no_shear #
lump $-1 $-1 $53 $2 #
transform $-1 1 0 0 0 1 0 0 0 1 68.316293832209226 38.126567390369182 11.785178313954718 1 rotate no_reflect no_shear #
lump $-1 $-1 $54 $3 #
transform $-1 1 0 0 0 1 0 0 0 1 68.316293832209226 38.126567390369182 11.785178313954718 1 rotate no_reflect no_shear #
lump $-1 $-1 $55 $4 #
transform $-1 1 0 0 0 1 0 0 0 1 68.316293832209226 38.126567390369182 11.785178313954718 1 rotate no_reflect no_shear #
lump $-1 $-1 $56 $5 #
transform $-1 1 0 0 0 1 0 0 0 1 68.316293832209226 38.126567390369182 11.785178313954718 1 rotate no_reflect no_shear #
lump $-1 $-1 $57 $6 #
transform $-1 1 0 0 0 1 0 0 0 1 68.316293832209226 38.126567390369182 11.785178313954718 1 rotate no_reflect no_shear #
lump $-1 $-1 $58 $7 #
transform $-1 1 0 0 0 1 0 0 0 1 68.316293832209226 38.126567390369182 11.785178313954718 1 rotate no_reflect no_shear #
lump $-1 $-1 $59 $8 #
transform $-1 1 0 0 0 1 0 0 0 1 68.316293832209226 38.126567390369182 11.785178313954718 1 rotate no_reflect no_shear #
lump $-1 $-1 $60 $9 #
transform $-1 1 0 0 0 1 0 0 0 1 68.316293832209226 38.126567390369182 11.785178313954718 1 rotate no_reflect no_shear #
lump $-1 $-1 $61 $10 #
transform $-1 1 0 0 0 1 0 0 0 1 68.316293832209226 38.126567390369182 11.785178313954718 1 rotate no_reflect no_shear #
lump $-1 $-1 $62 $11 #
transform $-1 1 0 0 0 1 0 0 0 1 68.316293832209226 38.126567390369182 11.785178313954718 1 rotate no_reflect no_shear #
lump $-1 $-1 $63 $12 #
transform $-1 1 0 0 0 1 0 0 0 1 68.316293832209226 38.126567390369182 11.785178313954718 1 rotate no_reflect no_shear #
lump $-1 $-1 $64 $13 #
transform $-1 1 0 0 0 1 0 0 0 1 68.316293832209226 38.126567390369182 11.785178313954718 1 rotate no_reflect no_shear #
lump $-1 $-1 $65 $14 #
transform $-1 1 0 0 0 1 0 0 0 1 68.316293832209226 38.126567390369182 11.785178313954718 1 rotate no_reflect no_shear #
lump $-1 $-1 $66 $15 #
transform $-1 1 0 0 0 1 0 0 0 1 68.316293832209226 38.126567390369182 11.785178313954718 1 rotate no_reflect no_shear #
lump $-1 $-1 $67 $16 #
transform $-1 1 0 0 0 1 0 0 0 1 68.316293832209226 38.126567390369182 11.785178313954718 1 rotate no_reflect no_shear #
shell $-1 $-1 $-1 $68 $-1 $17 #
shell $-1 $-1 $-1 $69 $-1 $19 #
shell $-1 $-1 $-1 $70 $-1 $21 #
shell $-1 $-1 $-1 $71 $-1 $23 #
shell $-1 $-1 $-1 $72 $-1 $25 #
shell $-1 $-1 $-1 $73 $-1 $27 #
shell $-1 $-1 $-1 $74 $-1 $29 #
shell $-1 $-1 $-1 $75 $-1 $31 #
shell $-1 $-1 $-1 $76 $-1 $33 #
shell $-1 $-1 $-1 $77 $-1 $35 #
shell $-1 $-1 $-1 $78 $-1 $37 #
shell $-1 $-1 $-1 $79 $-1 $39 #
shell $-1 $-1 $-1 $80 $-1 $41 #
shell $-1 $-1 $-1 $81 $-1 $43 #
shell $-1 $-1 $-1 $82 $-1 $45 #
shell $-1 $-1 $-1 $83 $-1 $47 #
shell $-1 $-1 $-1 $84 $-1 $49 #
face $-1 $85 $86 $51 $-1 $87 forward single #
face $-1 $88 $89 $52 $-1 $90 reversed single #
face $-1 $91 $92 $53 $-1 $93 reversed single #
face $-1 $94 $95 $54 $-1 $96 forward single #
face $-1 $97 $98 $55 $-1 $99 forward single #
face $-1 $100 $101 $56 $-1 $102 reversed single #
face $-1 $103 $104 $57 $-1 $105 forward single #
face $-1 $106 $107 $58 $-1 $108 forward single #
face $-1 $109 $110 $59 $-1 $111 reversed single #
face $-1 $112 $113 $60 $-1 $114 forward single #
face $-1 $115 $116 $61 $-1 $117 forward single #
face $-1 $118 $119 $62 $-1 $120 reversed single #
face $-1 $121 $122 $63 $-1 $123 forward single #
face $-1 $124 $125 $64 $-1 $126 forward single #
face $-1 $127 $128 $65 $-1 $129 reversed single #
face $-1 $130 $131 $66 $-1 $132 forward single #
face $-1 $133 $134 $67 $-1 $135 forward single #
face $-1 $136 $137 $51 $-1 $138 reversed single #
loop $-1 $-1 $139 $68 #
plane-surface $-1 0 0 11.785178313954718 0 0 1 1 0 0 forward_v I I I I #
face $-1 $140 $141 $52 $-1 $142 reversed single #
loop $-1 $-1 $143 $69 #
plane-surface $-1 -56.148763275323006 -32.84332809609775 0 1 0 0 0 0 -1 forward_v I I I I #
face $-1 $144 $145 $53 $-1 $146 reversed single #
loop $-1 $-1 $147 $70 #
plane-surface $-1 -180.23915844535844 -27.560088801826325 78.471113142909132 0 1 0 -0.81915205242281985 0 0.57357642473473569 forward_v I I I I #
face $-1 $148 $149 $54 $-1 $150 forward single #
loop $-1 $151 $152 $71 #
cone-surface $-1 -62.368204925329231 -22.080325226211556 4.6427385811293567 0.81915205242281985 0 -0.57357642473473569 1.1471528494694714 0 1.6383041048456397 1 I I 0 1 2 forward I I I I #
face $-1 $153 $154 $55 $-1 $155 forward single #
loop $-1 $156 $157 $72 #
cone-surface $-1 -62.368204925329231 -13.860679862789404 4.6427385811293567 0.81915205242281985 0 -0.57357642473473569 1.1471528494694714 0 1.6383041048456397 1 I I 0 1 2 forward I I I I #
face $-1 $158 $159 $56 $-1 $160 reversed single #
loop $-1 $-1 $161 $73 #
plane-surface $-1 31.446720090557122 -20.395889157877733 192.16022620820999 0 -1 0 -0.55919291073839883 0 -0.82903756765294845 forward_v I I I I #
face $-1 $162 $163 $57 $-1 $164 forward single #
loop $-1 $165 $166 $74 #
cone-surface $-1 61.14095459911433 -25.51317461784101 6.7194222086442217 -0.55919291073839883 0 -0.82903756765294845 0.41451878382647422 0 -0.27959645536919941 1 I I 0 1 0.5 forward I I I I #
face $-1 $167 $168 $58 $-1 $169 forward single #
loop $-1 $170 $171 $75 #
cone-surface $-1 61.14095459911433 -22.442803341863044 6.7194222086442217 -0.55919291073839883 0 -0.82903756765294845 0.41451878382647422 0 -0.27959645536919941 1 I I 0 1 0.5 forward I I I I #
face $-1 $172 $173 $59 $-1 $174 reversed single #
loop $-1 $-1 $175 $76 #
plane-surface $-1 31.446720090557122 -3.9742251098288586 192.16022620820999 0 -1 0 -0.55919291073839883 0 -0.82903756765294845 forward_v I I I I #
face $-1 $176 $177 $60 $-1 $178 forward single #
loop $-1 $179 $180 $77 #
cone-surface $-1 61.14095459911433 -9.0915105697921348 6.7194222086442217 -0.55919291073839883 0 -0.82903756765294845 0.41451878382647422 0 -0.27959645536919941 1 I I 0 1 0.5 forward I I I I #
face $-1 $181 $182 $61 $-1 $183 forward single #
loop $-1 $184 $185 $78 #
cone-surface $-1 61.14095459911433 -6.0211392938141657 6.7194222086442217 -0.55919291073839883 0 -0.82903756765294845 0.41451878382647422 0 -0.27959645536919941 1 I I 0 1 0.5 forward I I I I #
face $-1 $186 $187 $62 $-1 $188 reversed single #
loop $-1 $-1 $189 $79 #
plane-surface $-1 31.446720090557122 12.447438938220017 192.16022620820999 0 -1 0 -0.55919291073839883 0 -0.82903756765294845 forward_v I I I I #
face $-1 $190 $191 $63 $-1 $192 forward single #
loop $-1 $193 $194 $80 #
cone-surface $-1 61.14095459911433 7.3301534782567401 6.7194222086442217 -0.55919291073839883 0 -0.82903756765294845 0.41451878382647422 0 -0.27959645536919941 1 I I 0 1 0.5 forward I I I I #
face $-1 $195 $196 $64 $-1 $197 forward single #
loop $-1 $198 $199 $81 #
cone-surface $-1 61.14095459911433 10.400524754234709 6.7194222086442217 -0.55919291073839883 0 -0.82903756765294845 0.41451878382647422 0 -0.27959645536919941 1 I I 0 1 0.5 forward I I I I #
face $-1 $200 $201 $65 $-1 $202 reversed single #
loop $-1 $-1 $203 $82 #
plane-surface $-1 31.446720090557122 28.869102986268892 192.16022620820999 0 -1 0 -0.55919291073839883 0 -0.82903756765294845 forward_v I I I I #
face $-1 $204 $205 $66 $-1 $206 forward single #
loop $-1 $207 $208 $83 #
cone-surface $-1 61.14095459911433 23.751817526305615 6.7194222086442217 -0.55919291073839883 0 -0.82903756765294845 0.41451878382647422 0 -0.27959645536919941 1 I I 0 1 0.5 forward I I I I #
face $-1 $209 $210 $67 $-1 $211 forward single #
loop $-1 $212 $213 $84 #
cone-surface $-1 61.14095459911433 26.822188802283584 6.7194222086442217 -0.55919291073839883 0 -0.82903756765294845 0.41451878382647422 0 -0.27959645536919941 1 I I 0 1 0.5 forward I I I I #
face $-1 $214 $215 $51 $-1 $216 reversed single #
loop $-1 $-1 $217 $85 #
plane-surface $-1 0 0 -11.785178313954718 0 0 1 1 0 0 forward_v I I I I #
coedge $-1 $218 $219 $220 $221 forward $86 $-1 #
face $-1 $222 $223 $52 $-1 $224 reversed single #
loop $-1 $-1 $225 $88 #
plane-surface $-1 -54.465274273152289 -27.560088801826321 0 0 -1 0 0 0 -1 forward_v I I I I #
coedge $-1 $226 $227 $228 $229 forward $89 $-1 #
face $-1 $230 $231 $53 $-1 $232 reversed single #
loop $-1 $-1 $233 $91 #
plane-surface $-1 -68.316293832209212 -17.97050254450048 0.10188200809665204 -0.81915205242281985 0 0.57357642473473569 0.57357642473473569 0 0.81915205242281985 forward_v I I I I #
coedge $-1 $234 $235 $236 $237 reversed $92 $-1 #
face $-1 $-1 $238 $54 $-1 $239 forward single #
loop $-1 $240 $241 $94 #
cone-surface $-1 -59.69132991482077 -22.080325226211556 2.7683705764982935 0.81915205242281985 0 -0.57357642473473569 0.57357642473473569 0 0.81915205242281985 1 I I -0.70710678118654746 0.70710678118654746 1 forward I I I I #
loop $-1 $-1 $242 $71 #
coedge $-1 $152 $152 $243 $244 reversed $95 $-1 #
face $-1 $-1 $245 $55 $-1 $246 forward single #
loop $-1 $247 $248 $97 #
cone-surface $-1 -59.69132991482077 -13.860679862789404 2.7683705764982935 0.81915205242281985 0 -0.57357642473473569 0.57357642473473569 0 0.81915205242281985 1 I I -0.70710678118654746 0.70710678118654746 1 forward I I I I #
loop $-1 $-1 $249 $72 #
coedge $-1 $157 $157 $250 $251 reversed $98 $-1 #
face $-1 $252 $253 $56 $-1 $254 reversed single #
loop $-1 $-1 $255 $100 #
plane-surface $-1 -44.957254307228482 -23.977988979852029 78.88667806877227 0.55919291073839883 0 0.82903756765294845 0.82903756765294845 0 -0.55919291073839883 forward_v I I I I #
coedge $-1 $256 $257 $258 $259 reversed $101 $-1 #
face $-1 $-1 $260 $57 $-1 $261 forward single #
loop $-1 $262 $263 $103 #
cone-surface $-1 60.721559916060528 -25.51317461784101 6.0976440329045101 -0.55919291073839883 0 -0.82903756765294845 0.20725939191323711 0 -0.13979822768459971 1 I I -0.70710678118654746 0.70710678118654746 0.25 forward I I I I #
loop $-1 $-1 $264 $74 #
coedge $-1 $166 $166 $265 $266 reversed $104 $-1 #
face $-1 $-1 $267 $58 $-1 $268 forward single #
loop $-1 $269 $270 $106 #
cone-surface $-1 60.721559916060528 -22.442803341863044 6.0976440329045101 -0.55919291073839883 0 -0.82903756765294845 0.20725939191323711 0 -0.13979822768459971 1 I I -0.70710678118654746 0.70710678118654746 0.25 forward I I I I #
loop $-1 $-1 $271 $75 #
coedge $-1 $171 $171 $272 $273 reversed $107 $-1 #
face $-1 $274 $275 $59 $-1 $276 reversed single #
loop $-1 $-1 $277 $109 #
plane-surface $-1 -44.957254307228482 -7.5563249318031538 78.88667806877227 0.55919291073839883 0 0.82903756765294845 0.82903756765294845 0 -0.55919291073839883 forward_v I I I I #
coedge $-1 $278 $279 $280 $281 reversed $110 $-1 #
face $-1 $-1 $282 $60 $-1 $283 forward single #
loop $-1 $284 $285 $112 #
cone-surface $-1 60.721559916060528 -9.0915105697921348 6.0976440329045101 -0.55919291073839883 0 -0.82903756765294845 0.20725939191323711 0 -0.13979822768459971 1 I I -0.70710678118654746 0.70710678118654746 0.25 forward I I I I #
loop $-1 $-1 $286 $77 #
coedge $-1 $180 $180 $287 $288 reversed $113 $-1 #
face $-1 $-1 $289 $61 $-1 $290 forward single #
loop $-1 $291 $292 $115 #
cone-surface $-1 60.721559916060528 -6.0211392938141657 6.0976440329045101 -0.55919291073839883 0 -0.82903756765294845 0.20725939191323711 0 -0.13979822768459971 1 I I -0.70710678118654746 0.70710678118654746 0.25 forward I I I I #
loop $-1 $-1 $293 $78 #
coedge $-1 $185 $185 $294 $295 reversed $116 $-1 #
face $-1 $296 $297 $62 $-1 $298 reversed single #
loop $-1 $-1 $299 $118 #
plane-surface $-1 -44.957254307228482 8.8653391162457211 78.88667806877227 0.55919291073839883 0 0.82903756765294845 0.82903756765294845 0 -0.55919291073839883 forward_v I I I I #
coedge $-1 $300 $301 $302 $303 reversed $119 $-1 #
face $-1 $-1 $304 $63 $-1 $305 forward single #
loop $-1 $306 $307 $121 #
cone-surface $-1 60.721559916060528 7.3301534782567401 6.0976440329045101 -0.55919291073839883 0 -0.82903756765294845 0.20725939191323711 0 -0.13979822768459971 1 I I -0.70710678118654746 0.70710678118654746 0.25 forward I I I I #
loop $-1 $-1 $308 $80 #
coedge $-1 $194 $194 $309 $310 reversed $122 $-1 #
face $-1 $-1 $311 $64 $-1 $312 forward single #
loop $-1 $313 $314 $124 #
cone-surface $-1 60.721559916060528 10.400524754234709 6.0976440329045101 -0.55919291073839883 0 -0.82903756765294845 0.20725939191323711 0 -0.13979822768459971 1 I I -0.70710678118654746 0.70710678118654746 0.25 forward I I I I #
loop $-1 $-1 $315 $81 #
coedge $-1 $199 $199 $316 $317 reversed $125 $-1 #
face $-1 $318 $319 $65 $-1 $320 reversed single #
loop $-1 $-1 $321 $127 #
plane-surface $-1 -44.957254307228482 25.287003164294596 78.88667806877227 0.55919291073839883 0 0.82903756765294845 0.82903756765294845 0 -0.55919291073839883 forward_v I I I I #
coedge $-1 $322 $323 $324 $325 reversed $128 $-1 #
face $-1 $-1 $326 $66 $-1 $327 forward single #
loop $-1 $328 $329 $130 #
cone-surface $-1 60.721559916060528 23.751817526305615 6.0976440329045101 -0.55919291073839883 0 -0.82903756765294845 0.20725939191323711 0 -0.13979822768459971 1 I I -0.70710678118654746 0.70710678118654746 0.25 forward I I I I #
loop $-1 $-1 $330 $83 #
coedge $-1 $208 $208 $331 $332 reversed $131 $-1 #
face $-1 $-1 $333 $67 $-1 $334 forward single #
loop $-1 $335 $336 $133 #
cone-surface $-1 60.721559916060528 26.822188802283584 6.0976440329045101 -0.55919291073839883 0 -0.82903756765294845 0.20725939191323711 0 -0.13979822768459971 1 I I -0.70710678118654746 0.70710678118654746 0.25 forward I I I I #
loop $-1 $-1 $337 $84 #
coedge $-1 $213 $213 $338 $339 reversed $134 $-1 #
face $-1 $340 $341 $51 $-1 $342 reversed single #
loop $-1 $-1 $343 $136 #
plane-surface $-1 0 -38.126567390369182 0 0 1 0 0 0 1 forward_v I I I I #
coedge $-1 $344 $345 $346 $347 forward $137 $-1 #
coedge $-1 $348 $139 $349 $350 forward $86 $-1 #
coedge $-1 $139 $348 $351 $352 forward $86 $-1 #
coedge $-1 $353 $354 $139 $221 reversed $355 $-1 #
edge $-1 $356 -38.126567390369182 $357 38.126567390369182 $220 $358 forward 7 unknown #
face $-1 $359 $360 $52 $-1 $361 forward single #
loop $-1 $-1 $362 $140 #
plane-surface $-1 -52.781785270981572 -32.84332809609775 0 -1 0 0 0 0 1 forward_v I I I I #
coedge $-1 $363 $364 $365 $366 forward $141 $-1 #
coedge $-1 $367 $143 $368 $369 reversed $89 $-1 #
coedge $-1 $143 $367 $370 $371 reversed $89 $-1 #
coedge $-1 $364 $363 $143 $229 reversed $141 $-1 #
edge $-1 $372 -11.785178313954718 $373 11.785178313954718 $228 $374 forward 7 unknown #
face $-1 $375 $376 $53 $-1 $377 reversed single #
loop $-1 $-1 $378 $144 #
plane-surface $-1 -180.23915844535844 -8.3809162871746352 78.471113142909132 0 -1 0 0.81915205242281985 0 -0.57357642473473569 forward_v I I I I #
coedge $-1 $379 $380 $381 $382 reversed $145 $-1 #
coedge $-1 $235 $147 $383 $384 reversed $92 $-1 #
coedge $-1 $147 $234 $379 $385 reversed $92 $-1 #
coedge $-1 $381 $386 $147 $237 forward $387 $-1 #
edge $-1 $388 21.803285390469995 $389 29.984017288058709 $236 $390 forward 7 unknown #
loop $-1 $-1 $243 $148 #
plane-surface $-1 -68.316293832209212 -17.97050254450048 0.10188200809665204 -0.81915205242281985 0 0.57357642473473569 0.57357642473473569 0 0.81915205242281985 forward_v I I I I #
loop $-1 $-1 $391 $94 #
coedge $-1 $241 $241 $242 $392 reversed $149 $-1 #
coedge $-1 $242 $242 $241 $392 forward $151 $-1 #
coedge $-1 $243 $243 $152 $244 forward $238 $-1 #
edge $-1 $393 0 $393 6.2831853071796004 $243 $394 forward 7 unknown #
loop $-1 $-1 $250 $153 #
plane-surface $-1 -68.316293832209212 -17.97050254450048 0.10188200809665204 -0.81915205242281985 0 0.57357642473473569 0.57357642473473569 0 0.81915205242281985 forward_v I I I I #
loop $-1 $-1 $395 $97 #
coedge $-1 $248 $248 $249 $396 reversed $154 $-1 #
coedge $-1 $249 $249 $248 $396 forward $156 $-1 #
coedge $-1 $250 $250 $157 $251 forward $245 $-1 #
edge $-1 $397 0 $397 6.2831853071796004 $250 $398 forward 7 unknown #
face $-1 $399 $400 $56 $-1 $401 forward single #
loop $-1 $-1 $402 $158 #
plane-surface $-1 31.446720090557122 -27.560088801826325 192.16022620820999 0 1 0 0.55919291073839883 0 0.82903756765294845 forward_v I I I I #
coedge $-1 $403 $404 $405 $406 reversed $159 $-1 #
coedge $-1 $257 $161 $407 $408 reversed $101 $-1 #
coedge $-1 $161 $256 $403 $409 reversed $101 $-1 #
coedge $-1 $405 $410 $161 $259 forward $400 $-1 #
edge $-1 $411 -52.592933786930665 $412 -38.801448231479263 $258 $413 forward 7 unknown #
loop $-1 $-1 $265 $162 #
plane-surface $-1 -44.957254307228482 -23.977988979852029 78.88667806877227 0.55919291073839883 0 0.82903756765294845 0.82903756765294845 0 -0.55919291073839883 forward_v I I I I #
loop $-1 $-1 $414 $103 #
coedge $-1 $263 $263 $264 $415 reversed $163 $-1 #
coedge $-1 $264 $264 $263 $415 forward $165 $-1 #
coedge $-1 $265 $265 $166 $266 forward $260 $-1 #
edge $-1 $416 0 $416 6.2831853071796004 $265 $417 forward 7 unknown #
loop $-1 $-1 $272 $167 #
plane-surface $-1 -44.957254307228482 -23.977988979852029 78.88667806877227 0.55919291073839883 0 0.82903756765294845 0.82903756765294845 0 -0.55919291073839883 forward_v I I I I #
loop $-1 $-1 $418 $106 #
coedge $-1 $270 $270 $271 $419 reversed $168 $-1 #
coedge $-1 $271 $271 $270 $419 forward $170 $-1 #
coedge $-1 $272 $272 $171 $273 forward $267 $-1 #
edge $-1 $420 0 $420 6.2831853071796004 $272 $421 forward 7 unknown #
face $-1 $422 $423 $59 $-1 $424 reversed single #
loop $-1 $-1 $425 $172 #
plane-surface $-1 31.446720090557122 -11.13842475377745 192.16022620820999 0 1 0 0.55919291073839883 0 0.82903756765294845 forward_v I I I I #
coedge $-1 $426 $427 $428 $429 reversed $173 $-1 #
coedge $-1 $279 $175 $430 $431 reversed $110 $-1 #
coedge $-1 $175 $278 $426 $432 reversed $110 $-1 #
coedge $-1 $428 $433 $175 $281 forward $434 $-1 #
edge $-1 $435 -52.592933786930665 $436 -38.801448231479263 $280 $437 forward 7 unknown #
loop $-1 $-1 $287 $176 #
plane-surface $-1 -44.957254307228482 -7.5563249318031538 78.88667806877227 0.55919291073839883 0 0.82903756765294845 0.82903756765294845 0 -0.55919291073839883 forward_v I I I I #
loop $-1 $-1 $438 $112 #
coedge $-1 $285 $285 $286 $439 reversed $177 $-1 #
coedge $-1 $286 $286 $285 $439 forward $179 $-1 #
coedge $-1 $287 $287 $180 $288 forward $282 $-1 #
edge $-1 $440 0 $440 6.2831853071796004 $287 $441 forward 7 unknown #
loop $-1 $-1 $294 $181 #
plane-surface $-1 -44.957254307228482 -7.5563249318031538 78.88667806877227 0.55919291073839883 0 0.82903756765294845 0.82903756765294845 0 -0.55919291073839883 forward_v I I I I #
loop $-1 $-1 $442 $115 #
coedge $-1 $292 $292 $293 $443 reversed $182 $-1 #
coedge $-1 $293 $293 $292 $443 forward $184 $-1 #
coedge $-1 $294 $294 $185 $295 forward $289 $-1 #
edge $-1 $444 0 $444 6.2831853071796004 $294 $445 forward 7 unknown #
face $-1 $446 $447 $62 $-1 $448 reversed single #
loop $-1 $-1 $449 $186 #
plane-surface $-1 31.446720090557122 5.2832392942714259 192.16022620820999 0 1 0 0.55919291073839883 0 0.82903756765294845 forward_v I I I I #
coedge $-1 $450 $451 $452 $453 reversed $187 $-1 #
coedge $-1 $301 $189 $454 $455 reversed $119 $-1 #
coedge $-1 $189 $300 $450 $456 reversed $119 $-1 #
coedge $-1 $452 $457 $189 $303 forward $458 $-1 #
edge $-1 $459 -52.592933786930665 $460 -38.801448231479263 $302 $461 forward 7 unknown #
loop $-1 $-1 $309 $190 #
plane-surface $-1 -44.957254307228482 8.8653391162457211 78.88667806877227 0.55919291073839883 0 0.82903756765294845 0.82903756765294845 0 -0.55919291073839883 forward_v I I I I #
loop $-1 $-1 $462 $121 #
coedge $-1 $307 $307 $308 $463 reversed $191 $-1 #
coedge $-1 $308 $308 $307 $463 forward $193 $-1 #
coedge $-1 $309 $309 $194 $310 forward $304 $-1 #
edge $-1 $464 0 $464 6.2831853071796004 $309 $465 forward 7 unknown #
loop $-1 $-1 $316 $195 #
plane-surface $-1 -44.957254307228482 8.8653391162457211 78.88667806877227 0.55919291073839883 0 0.82903756765294845 0.82903756765294845 0 -0.55919291073839883 forward_v I I I I #
loop $-1 $-1 $466 $124 #
coedge $-1 $314 $314 $315 $467 reversed $196 $-1 #
coedge $-1 $315 $315 $314 $467 forward $198 $-1 #
coedge $-1 $316 $316 $199 $317 forward $311 $-1 #
edge $-1 $468 0 $468 6.2831853071796004 $316 $469 forward 7 unknown #
face $-1 $470 $471 $65 $-1 $472 reversed single #
loop $-1 $-1 $473 $200 #
plane-surface $-1 31.446720090557122 21.7049033423203 192.16022620820999 0 1 0 0.55919291073839883 0 0.82903756765294845 forward_v I I I I #
coedge $-1 $474 $475 $476 $477 reversed $201 $-1 #
coedge $-1 $323 $203 $478 $479 reversed $128 $-1 #
coedge $-1 $203 $322 $474 $480 reversed $128 $-1 #
coedge $-1 $476 $481 $203 $325 forward $482 $-1 #
edge $-1 $483 -52.592933786930665 $484 -38.801448231479263 $324 $485 forward 7 unknown #
loop $-1 $-1 $331 $204 #
plane-surface $-1 -44.957254307228482 25.287003164294596 78.88667806877227 0.55919291073839883 0 0.82903756765294845 0.82903756765294845 0 -0.55919291073839883 forward_v I I I I #
loop $-1 $-1 $486 $130 #
coedge $-1 $329 $329 $330 $487 reversed $205 $-1 #
coedge $-1 $330 $330 $329 $487 forward $207 $-1 #
coedge $-1 $331 $331 $208 $332 forward $326 $-1 #
edge $-1 $488 0 $488 6.2831853071796004 $331 $489 forward 7 unknown #
loop $-1 $-1 $338 $209 #
plane-surface $-1 -44.957254307228482 25.287003164294596 78.88667806877227 0.55919291073839883 0 0.82903756765294845 0.82903756765294845 0 -0.55919291073839883 forward_v I I I I #
loop $-1 $-1 $490 $133 #
coedge $-1 $336 $336 $337 $491 reversed $210 $-1 #
coedge $-1 $337 $337 $336 $491 forward $212 $-1 #
coedge $-1 $338 $338 $213 $339 forward $333 $-1 #
edge $-1 $492 0 $492 6.2831853071796004 $338 $493 forward 7 unknown #
face $-1 $494 $495 $51 $-1 $496 reversed single #
loop $-1 $-1 $497 $214 #
plane-surface $-1 -68.316293832209226 0 0 1 0 0 0 0 -1 forward_v I I I I #
coedge $-1 $498 $351 $499 $500 forward $215 $-1 #
coedge $-1 $501 $217 $498 $502 forward $137 $-1 #
coedge $-1 $217 $501 $503 $504 forward $137 $-1 #
coedge $-1 $354 $353 $217 $347 reversed $355 $-1 #
edge $-1 $505 -38.126567390369182 $506 38.126567390369182 $346 $507 forward 7 unknown #
coedge $-1 $219 $218 $508 $509 forward $86 $-1 #
coedge $-1 $510 $511 $218 $350 reversed $495 $-1 #
edge $-1 $357 -68.316293832209226 $512 68.316293832209226 $349 $513 forward 7 unknown #
coedge $-1 $343 $514 $219 $352 reversed $215 $-1 #
edge $-1 $515 -68.316293832209226 $356 68.316293832209226 $351 $516 forward 7 unknown #
coedge $-1 $346 $220 $514 $517 forward $355 $-1 #
coedge $-1 $220 $346 $510 $518 reversed $355 $-1 #
loop $-1 $-1 $353 $494 #
vertex $-1 $221 $519 #
vertex $-1 $221 $520 #
straight-curve $-1 68.316293832209226 0 11.785178313954718 0 1 0 I I #
face $-1 $521 $522 $52 $-1 $523 reversed single #
loop $-1 $-1 $524 $222 #
plane-surface $-1 0 0 11.785178313954718 0 0 1 1 0 0 forward_v I I I I #
coedge $-1 $525 $526 $527 $528 reversed $223 $-1 #
coedge $-1 $228 $225 $529 $530 reversed $141 $-1 #
coedge $-1 $225 $228 $531 $532 reversed $141 $-1 #
coedge $-1 $526 $525 $225 $366 reversed $223 $-1 #
edge $-1 $533 -11.785178313954718 $534 11.785178313954718 $365 $535 forward 7 unknown #
coedge $-1 $227 $226 $536 $537 reversed $89 $-1 #
coedge $-1 $529 $538 $226 $369 forward $522 $-1 #
edge $-1 $539 -21.704903342320307 $373 -11.138424753777446 $368 $540 forward 7 unknown #
coedge $-1 $541 $531 $227 $371 forward $360 $-1 #
edge $-1 $372 11.138424753777446 $542 21.704903342320307 $370 $543 forward 7 unknown #
vertex $-1 $371 $544 #
vertex $-1 $369 $545 #
straight-curve $-1 -56.148763275323006 -27.560088801826321 0 0 0 -1 I I #
face $-1 $-1 $387 $53 $-1 $546 forward single #
loop $-1 $-1 $547 $230 #
plane-surface $-1 -68.316293832209226 0 0 1 0 0 0 0 -1 forward_v I I I I #
coedge $-1 $548 $549 $550 $551 reversed $231 $-1 #
coedge $-1 $552 $233 $235 $385 forward $145 $-1 #
coedge $-1 $233 $552 $548 $553 forward $145 $-1 #
coedge $-1 $550 $236 $233 $382 forward $387 $-1 #
edge $-1 $389 -18.574837529576087 $554 0.60433498507560479 $381 $555 forward 7 unknown #
coedge $-1 $556 $557 $234 $384 forward $376 $-1 #
edge $-1 $558 -39.133674563357935 $388 -27.45037825749985 $383 $559 forward 7 unknown #
edge $-1 $389 -14.262671101539919 $558 2.4771054090857059e-014 $235 $560 forward 7 unknown #
coedge $-1 $236 $550 $556 $561 forward $387 $-1 #
loop $-1 $-1 $550 $375 #
vertex $-1 $384 $562 #
vertex $-1 $237 $563 #
straight-curve $-1 -90.119579222679221 -27.560088801826325 11.785178313954717 1 0 0 I I #
coedge $-1 $391 $391 $-1 $564 reversed $240 $-1 #
edge $-1 $565 0 $565 6.2831853071796004 $241 $566 forward 7 unknown #
vertex $-1 $244 $567 #
ellipse-curve $-1 -64.225927883414869 -22.080325226211556 5.9435301610256799 -0.81915205242281985 0 0.57357642473473569 1.1471528494694714 0 1.6383041048456397 1 I I #
coedge $-1 $395 $395 $-1 $568 reversed $247 $-1 #
edge $-1 $569 0 $569 6.2831853071796004 $248 $570 forward 7 unknown #
vertex $-1 $251 $571 #
ellipse-curve $-1 -64.225927883414869 -13.860679862789404 5.9435301610256799 -0.81915205242281985 0 0.57357642473473569 1.1471528494694714 0 1.6383041048456397 1 I I #
face $-1 $-1 $572 $56 $-1 $573 reversed single #
loop $-1 $-1 $258 $252 #
plane-surface $-1 0 0 11.785178313954718 0 0 1 1 0 0 forward_v I I I I #
coedge $-1 $574 $575 $576 $577 reversed $253 $-1 #
coedge $-1 $578 $255 $257 $409 forward $159 $-1 #
coedge $-1 $255 $578 $574 $579 forward $159 $-1 #
coedge $-1 $576 $258 $255 $406 forward $400 $-1 #
edge $-1 $412 8.4068946679517182 $580 15.57109431190031 $405 $581 forward 7 unknown #
coedge $-1 $582 $583 $256 $408 forward $572 $-1 #
edge $-1 $584 -93.597409433118315 $411 -84.294934790150279 $407 $585 forward 7 unknown #
edge $-1 $412 119.99705015253477 $584 136.63258766441842 $257 $586 forward 7 unknown #
coedge $-1 $258 $576 $582 $587 forward $400 $-1 #
vertex $-1 $408 $588 #
vertex $-1 $259 $589 #
straight-curve $-1 15.723360045278561 -20.395889157877733 11.785178313954717 -1 0 0 I I #
coedge $-1 $414 $414 $-1 $590 reversed $262 $-1 #
edge $-1 $591 0 $591 6.2831853071796004 $263 $592 forward 7 unknown #
vertex $-1 $266 $593 #
ellipse-curve $-1 61.420551054483525 -25.51317461784101 7.1339409924706896 0.55919291073839883 0 0.82903756765294845 0.41451878382647422 0 -0.27959645536919941 1 I I #
coedge $-1 $418 $418 $-1 $594 reversed $269 $-1 #
edge $-1 $595 0 $595 6.2831853071796004 $270 $596 forward 7 unknown #
vertex $-1 $273 $597 #
ellipse-curve $-1 61.420551054483525 -22.442803341863044 7.1339409924706896 0.55919291073839883 0 0.82903756765294845 0.41451878382647422 0 -0.27959645536919941 1 I I #
face $-1 $-1 $434 $59 $-1 $598 forward single #
loop $-1 $-1 $599 $274 #
plane-surface $-1 68.316293832209226 0 0 -1 0 0 0 0 1 forward_v I I I I #
coedge $-1 $600 $601 $602 $603 reversed $275 $-1 #
coedge $-1 $604 $277 $279 $432 forward $173 $-1 #
coedge $-1 $277 $604 $600 $605 forward $173 $-1 #
coedge $-1 $602 $280 $277 $429 forward $434 $-1 #
edge $-1 $436 0.19606264392728168 $606 7.360262287875873 $428 $607 forward 7 unknown #
coedge $-1 $608 $609 $278 $431 forward $423 $-1 #
edge $-1 $610 -93.597409433118315 $435 -84.294934790150279 $430 $611 forward 7 unknown #
edge $-1 $436 119.99705015253477 $610 136.63258766441842 $279 $612 forward 7 unknown #
coedge $-1 $280 $602 $608 $613 forward $434 $-1 #
loop $-1 $-1 $602 $422 #
vertex $-1 $431 $614 #
vertex $-1 $281 $615 #
straight-curve $-1 15.723360045278561 -3.9742251098288586 11.785178313954717 -1 0 0 I I #
coedge $-1 $438 $438 $-1 $616 reversed $284 $-1 #
edge $-1 $617 0 $617 6.2831853071796004 $285 $618 forward 7 unknown #
vertex $-1 $288 $619 #
ellipse-curve $-1 61.420551054483525 -9.0915105697921348 7.1339409924706896 0.55919291073839883 0 0.82903756765294845 0.41451878382647422 0 -0.27959645536919941 1 I I #
coedge $-1 $442 $442 $-1 $620 reversed $291 $-1 #
edge $-1 $621 0 $621 6.2831853071796004 $292 $622 forward 7 unknown #
vertex $-1 $295 $623 #
ellipse-curve $-1 61.420551054483525 -6.0211392938141657 7.1339409924706896 0.55919291073839883 0 0.82903756765294845 0.41451878382647422 0 -0.27959645536919941 1 I I #
face $-1 $-1 $458 $62 $-1 $624 forward single #
loop $-1 $-1 $625 $296 #
plane-surface $-1 68.316293832209226 0 0 -1 0 0 0 0 1 forward_v I I I I #
coedge $-1 $626 $627 $628 $629 reversed $297 $-1 #
coedge $-1 $630 $299 $301 $456 forward $187 $-1 #
coedge $-1 $299 $630 $626 $631 forward $187 $-1 #
coedge $-1 $628 $302 $299 $453 forward $458 $-1 #
edge $-1 $460 -8.0147693800971567 $632 -0.85056973614856535 $452 $633 forward 7 unknown #
coedge $-1 $634 $635 $300 $455 forward $447 $-1 #
edge $-1 $636 -93.597409433118315 $459 -84.294934790150279 $454 $637 forward 7 unknown #
edge $-1 $460 119.99705015253477 $636 136.63258766441842 $301 $638 forward 7 unknown #
coedge $-1 $302 $628 $634 $639 forward $458 $-1 #
loop $-1 $-1 $628 $446 #
vertex $-1 $455 $640 #
vertex $-1 $303 $641 #
straight-curve $-1 15.723360045278561 12.447438938220017 11.785178313954717 -1 0 0 I I #
coedge $-1 $462 $462 $-1 $642 reversed $306 $-1 #
edge $-1 $643 0 $643 6.2831853071796004 $307 $644 forward 7 unknown #
vertex $-1 $310 $645 #
ellipse-curve $-1 61.420551054483525 7.3301534782567401 7.1339409924706896 0.55919291073839883 0 0.82903756765294845 0.41451878382647422 0 -0.27959645536919941 1 I I #
coedge $-1 $466 $466 $-1 $646 reversed $313 $-1 #
edge $-1 $647 0 $647 6.2831853071796004 $314 $648 forward 7 unknown #
vertex $-1 $317 $649 #
ellipse-curve $-1 61.420551054483525 10.400524754234709 7.1339409924706896 0.55919291073839883 0 0.82903756765294845 0.41451878382647422 0 -0.27959645536919941 1 I I #
face $-1 $-1 $482 $65 $-1 $650 forward single #
loop $-1 $-1 $651 $318 #
plane-surface $-1 68.316293832209226 0 0 -1 0 0 0 0 1 forward_v I I I I #
coedge $-1 $652 $653 $654 $655 reversed $319 $-1 #
coedge $-1 $656 $321 $323 $480 forward $201 $-1 #
coedge $-1 $321 $656 $652 $657 forward $201 $-1 #
coedge $-1 $654 $324 $321 $477 forward $482 $-1 #
edge $-1 $484 -16.225601404121594 $658 -9.0614017601730019 $476 $659 forward 7 unknown #
coedge $-1 $660 $661 $322 $479 forward $471 $-1 #
edge $-1 $662 -93.597409433118315 $483 -84.294934790150279 $478 $663 forward 7 unknown #
edge $-1 $484 119.99705015253477 $662 136.63258766441842 $323 $664 forward 7 unknown #
coedge $-1 $324 $654 $660 $665 forward $482 $-1 #
loop $-1 $-1 $654 $470 #
vertex $-1 $479 $666 #
vertex $-1 $325 $667 #
straight-curve $-1 15.723360045278561 28.869102986268892 11.785178313954717 -1 0 0 I I #
coedge $-1 $486 $486 $-1 $668 reversed $328 $-1 #
edge $-1 $669 0 $669 6.2831853071796004 $329 $670 forward 7 unknown #
vertex $-1 $332 $671 #
ellipse-curve $-1 61.420551054483525 23.751817526305615 7.1339409924706896 0.55919291073839883 0 0.82903756765294845 0.41451878382647422 0 -0.27959645536919941 1 I I #
coedge $-1 $490 $490 $-1 $672 reversed $335 $-1 #
edge $-1 $673 0 $673 6.2831853071796004 $336 $674 forward 7 unknown #
vertex $-1 $339 $675 #
ellipse-curve $-1 61.420551054483525 26.822188802283584 7.1339409924706896 0.55919291073839883 0 0.82903756765294845 0.41451878382647422 0 -0.27959645536919941 1 I I #
face $-1 $-1 $355 $51 $-1 $676 reversed single #
loop $-1 $-1 $510 $340 #
plane-surface $-1 0 38.126567390369182 0 0 -1 0 0 0 -1 forward_v I I I I #
coedge $-1 $677 $508 $511 $678 forward $341 $-1 #
coedge $-1 $514 $343 $344 $502 reversed $215 $-1 #
coedge $-1 $508 $677 $343 $500 reversed $341 $-1 #
edge $-1 $515 -11.785178313954718 $679 11.785178313954718 $499 $680 forward 7 unknown #
coedge $-1 $345 $344 $677 $681 forward $137 $-1 #
edge $-1 $506 -68.316293832209226 $679 68.316293832209226 $498 $682 forward 7 unknown #
coedge $-1 $511 $510 $345 $504 reversed $495 $-1 #
edge $-1 $683 -68.316293832209226 $505 68.316293832209226 $503 $684 forward 7 unknown #
vertex $-1 $347 $685 #
vertex $-1 $517 $686 #
straight-curve $-1 68.316293832209226 0 -11.785178313954718 0 -1 0 I I #
coedge $-1 $497 $499 $348 $509 reversed $341 $-1 #
edge $-1 $512 -38.126567390369182 $515 38.126567390369182 $508 $687 forward 7 unknown #
coedge $-1 $503 $349 $354 $518 forward $495 $-1 #
coedge $-1 $349 $503 $497 $678 reversed $495 $-1 #
vertex $-1 $350 $688 #
straight-curve $-1 0 38.126567390369182 11.785178313954718 -1 0 0 I I #
coedge $-1 $351 $498 $353 $517 reversed $215 $-1 #
vertex $-1 $509 $689 #
straight-curve $-1 0 -38.126567390369182 11.785178313954718 1 0 0 I I #
edge $-1 $356 -11.785178313954718 $506 11.785178313954718 $353 $690 forward 7 unknown #
edge $-1 $357 -11.785178313954718 $505 11.785178313954718 $354 $691 forward 7 unknown #
point $-1 68.316293832209226 -38.126567390369182 11.785178313954718 #
point $-1 68.316293832209226 38.126567390369182 11.785178313954718 #
face $-1 $-1 $692 $52 $-1 $693 reversed single #
loop $-1 $-1 $694 $359 #
plane-surface $-1 0 0 -11.785178313954718 0 0 1 1 0 0 forward_v I I I I #
coedge $-1 $531 $541 $526 $695 forward $360 $-1 #
coedge $-1 $365 $362 $694 $696 reversed $223 $-1 #
coedge $-1 $362 $365 $524 $695 reversed $223 $-1 #
coedge $-1 $697 $698 $362 $528 forward $692 $-1 #
edge $-1 $699 -11.785178313954718 $700 11.785178313954718 $527 $701 forward 7 unknown #
coedge $-1 $694 $368 $363 $530 forward $522 $-1 #
edge $-1 $373 -28.916126138746861 $534 -25.549148134405428 $529 $702 forward 7 unknown #
coedge $-1 $370 $524 $364 $532 forward $360 $-1 #
edge $-1 $533 25.549148134405428 $372 28.916126138746861 $531 $703 forward 7 unknown #
vertex $-1 $532 $704 #
vertex $-1 $530 $705 #
straight-curve $-1 -52.781785270981572 -27.560088801826321 0 0 0 -1 I I #
coedge $-1 $698 $697 $367 $537 forward $692 $-1 #
edge $-1 $542 -11.785178313954718 $539 11.785178313954718 $536 $706 forward 7 unknown #
coedge $-1 $368 $694 $698 $707 forward $522 $-1 #
vertex $-1 $369 $708 #
straight-curve $-1 -56.148763275323006 -16.421664048048875 -11.785178313954718 0 1 0 I I #
coedge $-1 $524 $370 $697 $709 forward $360 $-1 #
vertex $-1 $709 $710 #
straight-curve $-1 -56.148763275323006 -16.421664048048875 11.785178313954718 0 -1 0 I I #
point $-1 -56.148763275323006 -27.560088801826321 11.785178313954718 #
point $-1 -56.148763275323006 -27.560088801826321 -11.785178313954718 #
plane-surface $-1 0 0 11.785178313954718 0 0 1 1 0 0 forward_v I I I I #
coedge $-1 $557 $556 $549 $711 forward $376 $-1 #
coedge $-1 $549 $378 $380 $553 reversed $231 $-1 #
coedge $-1 $378 $548 $547 $711 reversed $231 $-1 #
coedge $-1 $386 $381 $378 $551 forward $387 $-1 #
edge $-1 $554 -29.984017288058709 $712 -21.803285390469995 $550 $713 forward 7 unknown #
coedge $-1 $380 $379 $557 $714 reversed $145 $-1 #
edge $-1 $715 -2.4771054090857059e-014 $554 14.262671101539919 $548 $716 forward 7 unknown #
vertex $-1 $382 $717 #
straight-curve $-1 -60.135561934620512 -8.98525127225024 11.785178313954718 0 1 0 I I #
coedge $-1 $547 $383 $386 $561 reversed $376 $-1 #
coedge $-1 $383 $547 $552 $714 forward $376 $-1 #
vertex $-1 $384 $718 #
straight-curve $-1 -68.316293832209226 -27.560088801826325 39.235556571454566 0 0 1 I I #
straight-curve $-1 -68.316293832209212 -27.560088801826325 0.10188200809665204 -0.57357642473473569 0 -0.81915205242281985 I I #
edge $-1 $712 8.3809162871746352 $388 27.560088801826325 $556 $719 forward 7 unknown #
point $-1 -68.316293832209226 -27.560088801826325 11.785178313954718 #
point $-1 -60.135561934620512 -27.560088801826325 11.785178313954718 #
edge $-1 $720 1 $720 0 $391 $-1 forward 7 unknown #
vertex $-1 $392 $721 #
ellipse-curve $-1 -60.510481967243592 -22.080325226211556 3.341947001233029 -0.81915205242281985 0 0.57357642473473569 1.1471528494694714 0 1.6383041048456397 1 I I #
point $-1 -63.078775033945398 -22.080325226211556 7.5818342658713229 #
edge $-1 $722 1 $722 0 $395 $-1 forward 7 unknown #
vertex $-1 $396 $723 #
ellipse-curve $-1 -60.510481967243592 -13.860679862789404 3.341947001233029 -0.81915205242281985 0 0.57357642473473569 1.1471528494694714 0 1.6383041048456397 1 I I #
point $-1 -63.078775033945398 -13.860679862789404 7.5818342658713229 #
loop $-1 $-1 $407 $399 #
plane-surface $-1 68.316293832209226 0 0 -1 0 0 0 0 1 forward_v I I I I #
coedge $-1 $575 $402 $404 $579 reversed $253 $-1 #
coedge $-1 $402 $574 $724 $725 reversed $253 $-1 #
coedge $-1 $410 $405 $402 $577 forward $400 $-1 #
edge $-1 $580 38.801448231479263 $726 52.592933786930665 $576 $727 forward 7 unknown #
coedge $-1 $404 $403 $583 $728 reversed $159 $-1 #
edge $-1 $729 -136.63258766441842 $580 -119.99705015253477 $574 $730 forward 7 unknown #
vertex $-1 $406 $731 #
straight-curve $-1 54.524808276757838 -11.988994489926014 11.785178313954717 0 -1 0 I I #
coedge $-1 $724 $407 $410 $587 reversed $572 $-1 #
coedge $-1 $407 $724 $578 $728 forward $572 $-1 #
vertex $-1 $408 $732 #
straight-curve $-1 68.316293832209226 -20.395889157877733 96.080113104104996 0 0 1 I I #
straight-curve $-1 -44.957254307228482 -20.395889157877733 78.88667806877227 0.82903756765294845 0 -0.55919291073839883 I I #
edge $-1 $726 -27.560088801826325 $411 -20.395889157877733 $582 $733 forward 7 unknown #
point $-1 68.316293832209226 -20.395889157877733 11.785178313954718 #
point $-1 54.524808276757824 -20.395889157877733 11.785178313954717 #
edge $-1 $734 1 $734 0 $414 $-1 forward 7 unknown #
vertex $-1 $415 $735 #
ellipse-curve $-1 60.861358143745129 -25.51317461784101 6.3049034248177476 0.55919291073839883 0 0.82903756765294845 0.41451878382647422 0 -0.27959645536919941 1 I I #
point $-1 61.835069838309998 -25.51317461784101 6.8543445371014959 #
edge $-1 $736 1 $736 0 $418 $-1 forward 7 unknown #
vertex $-1 $419 $737 #
ellipse-curve $-1 60.861358143745129 -22.442803341863044 6.3049034248177476 0.55919291073839883 0 0.82903756765294845 0.41451878382647422 0 -0.27959645536919941 1 I I #
point $-1 61.835069838309998 -22.442803341863044 6.8543445371014959 #
plane-surface $-1 0 0 11.785178313954718 0 0 1 1 0 0 forward_v I I I I #
coedge $-1 $609 $608 $601 $738 forward $423 $-1 #
coedge $-1 $601 $425 $427 $605 reversed $275 $-1 #
coedge $-1 $425 $600 $599 $738 reversed $275 $-1 #
coedge $-1 $433 $428 $425 $603 forward $434 $-1 #
edge $-1 $606 38.801448231479263 $739 52.592933786930665 $602 $740 forward 7 unknown #
coedge $-1 $427 $426 $609 $741 reversed $173 $-1 #
edge $-1 $742 -136.63258766441842 $606 -119.99705015253477 $600 $743 forward 7 unknown #
vertex $-1 $429 $744 #
straight-curve $-1 54.524808276757838 -3.7781624659015769 11.785178313954717 0 -1 0 I I #
coedge $-1 $599 $430 $433 $613 reversed $423 $-1 #
coedge $-1 $430 $599 $604 $741 forward $423 $-1 #
vertex $-1 $431 $745 #
straight-curve $-1 68.316293832209226 -3.9742251098288586 96.080113104104996 0 0 1 I I #
straight-curve $-1 -44.957254307228482 -3.9742251098288586 78.88667806877227 0.82903756765294845 0 -0.55919291073839883 I I #
edge $-1 $739 -11.13842475377745 $435 -3.9742251098288586 $608 $746 forward 7 unknown #
point $-1 68.316293832209226 -3.9742251098288586 11.785178313954718 #
point $-1 54.524808276757824 -3.9742251098288586 11.785178313954717 #
edge $-1 $747 1 $747 0 $438 $-1 forward 7 unknown #
vertex $-1 $439 $748 #
ellipse-curve $-1 60.861358143745129 -9.0915105697921348 6.3049034248177476 0.55919291073839883 0 0.82903756765294845 0.41451878382647422 0 -0.27959645536919941 1 I I #
point $-1 61.835069838309998 -9.0915105697921348 6.8543445371014959 #
edge $-1 $749 1 $749 0 $442 $-1 forward 7 unknown #
vertex $-1 $443 $750 #
ellipse-curve $-1 60.861358143745129 -6.0211392938141657 6.3049034248177476 0.55919291073839883 0 0.82903756765294845 0.41451878382647422 0 -0.27959645536919941 1 I I #
point $-1 61.835069838309998 -6.0211392938141657 6.8543445371014959 #
plane-surface $-1 0 0 11.785178313954718 0 0 1 1 0 0 forward_v I I I I #
coedge $-1 $635 $634 $627 $751 forward $447 $-1 #
coedge $-1 $627 $449 $451 $631 reversed $297 $-1 #
coedge $-1 $449 $626 $625 $751 reversed $297 $-1 #
coedge $-1 $457 $452 $449 $629 forward $458 $-1 #
edge $-1 $632 38.801448231479263 $752 52.592933786930665 $628 $753 forward 7 unknown #
coedge $-1 $451 $450 $635 $754 reversed $187 $-1 #
edge $-1 $755 -136.63258766441842 $632 -119.99705015253477 $626 $756 forward 7 unknown #
vertex $-1 $453 $757 #
straight-curve $-1 54.524808276757838 4.4326695581228606 11.785178313954717 0 -1 0 I I #
coedge $-1 $625 $454 $457 $639 reversed $447 $-1 #
coedge $-1 $454 $625 $630 $754 forward $447 $-1 #
vertex $-1 $455 $758 #
straight-curve $-1 68.316293832209226 12.447438938220017 96.080113104104996 0 0 1 I I #
straight-curve $-1 -44.957254307228482 12.447438938220017 78.88667806877227 0.82903756765294845 0 -0.55919291073839883 I I #
edge $-1 $752 5.2832392942714259 $459 12.447438938220017 $634 $759 forward 7 unknown #
point $-1 68.316293832209226 12.447438938220017 11.785178313954718 #
point $-1 54.524808276757824 12.447438938220017 11.785178313954717 #
edge $-1 $760 1 $760 0 $462 $-1 forward 7 unknown #
vertex $-1 $463 $761 #
ellipse-curve $-1 60.861358143745129 7.3301534782567401 6.3049034248177476 0.55919291073839883 0 0.82903756765294845 0.41451878382647422 0 -0.27959645536919941 1 I I #
point $-1 61.835069838309998 7.3301534782567401 6.8543445371014959 #
edge $-1 $762 1 $762 0 $466 $-1 forward 7 unknown #
vertex $-1 $467 $763 #
ellipse-curve $-1 60.861358143745129 10.400524754234709 6.3049034248177476 0.55919291073839883 0 0.82903756765294845 0.41451878382647422 0 -0.27959645536919941 1 I I #
point $-1 61.835069838309998 10.400524754234709 6.8543445371014959 #
plane-surface $-1 0 0 11.785178313954718 0 0 1 1 0 0 forward_v I I I I #
coedge $-1 $661 $660 $653 $764 forward $471 $-1 #
coedge $-1 $653 $473 $475 $657 reversed $319 $-1 #
coedge $-1 $473 $652 $651 $764 reversed $319 $-1 #
coedge $-1 $481 $476 $473 $655 forward $482 $-1 #
edge $-1 $658 38.801448231479263 $765 52.592933786930665 $654 $766 forward 7 unknown #
coedge $-1 $475 $474 $661 $767 reversed $201 $-1 #
edge $-1 $768 -136.63258766441842 $658 -119.99705015253477 $652 $769 forward 7 unknown #
vertex $-1 $477 $770 #
straight-curve $-1 54.524808276757838 12.643501582147298 11.785178313954717 0 -1 0 I I #
coedge $-1 $651 $478 $481 $665 reversed $471 $-1 #
coedge $-1 $478 $651 $656 $767 forward $471 $-1 #
vertex $-1 $479 $771 #
straight-curve $-1 68.316293832209226 28.869102986268892 96.080113104104996 0 0 1 I I #
straight-curve $-1 -44.957254307228482 28.869102986268892 78.88667806877227 0.82903756765294845 0 -0.55919291073839883 I I #
edge $-1 $765 21.7049033423203 $483 28.869102986268892 $660 $772 forward 7 unknown #
point $-1 68.316293832209226 28.869102986268892 11.785178313954718 #
point $-1 54.524808276757824 28.869102986268892 11.785178313954717 #
edge $-1 $773 1 $773 0 $486 $-1 forward 7 unknown #
vertex $-1 $487 $774 #
ellipse-curve $-1 60.861358143745129 23.751817526305615 6.3049034248177476 0.55919291073839883 0 0.82903756765294845 0.41451878382647422 0 -0.27959645536919941 1 I I #
point $-1 61.835069838309998 23.751817526305615 6.8543445371014959 #
edge $-1 $775 1 $775 0 $490 $-1 forward 7 unknown #
vertex $-1 $491 $776 #
ellipse-curve $-1 60.861358143745129 26.822188802283584 6.3049034248177476 0.55919291073839883 0 0.82903756765294845 0.41451878382647422 0 -0.27959645536919941 1 I I #
point $-1 61.835069838309998 26.822188802283584 6.8543445371014959 #
plane-surface $-1 68.316293832209226 0 0 -1 0 0 0 0 1 forward_v I I I I #
coedge $-1 $499 $497 $501 $681 reversed $341 $-1 #
edge $-1 $512 -11.785178313954718 $683 11.785178313954718 $511 $777 forward 7 unknown #
vertex $-1 $681 $778 #
straight-curve $-1 -68.316293832209226 -38.126567390369182 0 0 0 -1 I I #
edge $-1 $679 -38.126567390369182 $683 38.126567390369182 $677 $779 forward 7 unknown #
straight-curve $-1 0 -38.126567390369182 -11.785178313954718 -1 0 0 I I #
vertex $-1 $504 $780 #
straight-curve $-1 0 38.126567390369182 -11.785178313954718 1 0 0 I I #
point $-1 68.316293832209226 38.126567390369182 -11.785178313954718 #
point $-1 68.316293832209226 -38.126567390369182 -11.785178313954718 #
straight-curve $-1 -68.316293832209226 0 11.785178313954718 0 -1 0 I I #
point $-1 -68.316293832209226 38.126567390369182 11.785178313954718 #
point $-1 -68.316293832209226 -38.126567390369182 11.785178313954718 #
straight-curve $-1 68.316293832209226 -38.126567390369182 0 0 0 -1 I I #
straight-curve $-1 68.316293832209226 38.126567390369182 0 0 0 -1 I I #
loop $-1 $-1 $527 $521 #
plane-surface $-1 0 -38.126567390369182 0 0 1 0 0 0 1 forward_v I I I I #
coedge $-1 $538 $529 $525 $696 forward $522 $-1 #
edge $-1 $700 -21.704903342320307 $533 -11.138424753777446 $524 $781 forward 7 unknown #
edge $-1 $534 11.138424753777446 $699 21.704903342320307 $694 $782 forward 7 unknown #
coedge $-1 $536 $527 $541 $709 reversed $692 $-1 #
coedge $-1 $527 $536 $538 $707 reversed $692 $-1 #
vertex $-1 $707 $783 #
vertex $-1 $528 $784 #
straight-curve $-1 -52.781785270981572 -38.126567390369182 0 0 0 1 I I #
straight-curve $-1 -27.232637136576145 -27.560088801826321 -11.785178313954718 1 0 0 I I #
straight-curve $-1 -27.232637136576145 -27.560088801826321 11.785178313954718 -1 0 0 I I #
point $-1 -52.781785270981572 -27.560088801826321 11.785178313954718 #
point $-1 -52.781785270981572 -27.560088801826321 -11.785178313954718 #
straight-curve $-1 -56.148763275323006 -38.126567390369182 0 0 0 -1 I I #
edge $-1 $699 52.781785270981572 $539 56.148763275323006 $698 $785 forward 7 unknown #
point $-1 -56.148763275323006 -38.126567390369182 -11.785178313954718 #
edge $-1 $542 -56.148763275323006 $700 -52.781785270981572 $697 $786 forward 7 unknown #
point $-1 -56.148763275323006 -38.126567390369182 11.785178313954718 #
edge $-1 $712 27.45037825749985 $715 39.133674563357935 $547 $787 forward 7 unknown #
vertex $-1 $561 $788 #
straight-curve $-1 -90.119579222679221 -8.3809162871746352 11.785178313954717 -1 0 0 I I #
edge $-1 $715 -0.60433498507560479 $558 18.574837529576087 $557 $789 forward 7 unknown #
vertex $-1 $714 $790 #
straight-curve $-1 -68.316293832209212 -8.3809162871746352 0.10188200809665204 0.57357642473473569 0 0.81915205242281985 I I #
point $-1 -60.135561934620512 -8.3809162871746352 11.785178313954718 #
point $-1 -68.316293832209226 -27.560088801826325 0.10188200809663175 #
straight-curve $-1 -68.316293832209226 0 11.785178313954718 0 -1 0 I I #
vertex $-1 $564 $791 #
point $-1 -59.363329117774121 -22.080325226211556 4.9802511060786685 #
vertex $-1 $568 $792 #
point $-1 -59.363329117774121 -13.860679862789404 4.9802511060786685 #
coedge $-1 $583 $582 $575 $725 forward $572 $-1 #
edge $-1 $726 84.294934790150279 $729 93.597409433118315 $724 $793 forward 7 unknown #
vertex $-1 $587 $794 #
straight-curve $-1 15.723360045278561 -27.560088801826325 11.785178313954717 1 0 0 I I #
edge $-1 $729 -15.57109431190031 $584 -8.4068946679517182 $583 $795 forward 7 unknown #
vertex $-1 $728 $796 #
straight-curve $-1 -44.957254307228482 -27.560088801826325 78.88667806877227 -0.82903756765294845 0 0.55919291073839883 I I #
point $-1 54.524808276757824 -27.560088801826325 11.785178313954717 #
point $-1 68.316293832209212 -20.395889157877733 2.4827036709866803 #
straight-curve $-1 68.316293832209226 0 11.785178313954718 0 1 0 I I #
vertex $-1 $590 $797 #
point $-1 61.275876927571602 -25.51317461784101 6.0253069694485477 #
vertex $-1 $594 $798 #
point $-1 61.275876927571602 -22.442803341863044 6.0253069694485477 #
edge $-1 $739 84.294934790150279 $742 93.597409433118315 $599 $799 forward 7 unknown #
vertex $-1 $613 $800 #
straight-curve $-1 15.723360045278561 -11.13842475377745 11.785178313954717 1 0 0 I I #
edge $-1 $742 -7.360262287875873 $610 -0.19606264392728168 $609 $801 forward 7 unknown #
vertex $-1 $741 $802 #
straight-curve $-1 -44.957254307228482 -11.13842475377745 78.88667806877227 -0.82903756765294845 0 0.55919291073839883 I I #
point $-1 54.524808276757824 -11.13842475377745 11.785178313954717 #
point $-1 68.316293832209212 -3.9742251098288586 2.4827036709866803 #
straight-curve $-1 68.316293832209226 0 11.785178313954718 0 1 0 I I #
vertex $-1 $616 $803 #
point $-1 61.275876927571602 -9.0915105697921348 6.0253069694485477 #
vertex $-1 $620 $804 #
point $-1 61.275876927571602 -6.0211392938141657 6.0253069694485477 #
edge $-1 $752 84.294934790150279 $755 93.597409433118315 $625 $805 forward 7 unknown #
vertex $-1 $639 $806 #
straight-curve $-1 15.723360045278561 5.2832392942714259 11.785178313954717 1 0 0 I I #
edge $-1 $755 0.85056973614856535 $636 8.0147693800971567 $635 $807 forward 7 unknown #
vertex $-1 $754 $808 #
straight-curve $-1 -44.957254307228482 5.2832392942714259 78.88667806877227 -0.82903756765294845 0 0.55919291073839883 I I #
point $-1 54.524808276757824 5.2832392942714259 11.785178313954717 #
point $-1 68.316293832209212 12.447438938220017 2.4827036709866803 #
straight-curve $-1 68.316293832209226 0 11.785178313954718 0 1 0 I I #
vertex $-1 $642 $809 #
point $-1 61.275876927571602 7.3301534782567401 6.0253069694485477 #
vertex $-1 $646 $810 #
point $-1 61.275876927571602 10.400524754234709 6.0253069694485477 #
edge $-1 $765 84.294934790150279 $768 93.597409433118315 $651 $811 forward 7 unknown #
vertex $-1 $665 $812 #
straight-curve $-1 15.723360045278561 21.7049033423203 11.785178313954717 1 0 0 I I #
edge $-1 $768 9.0614017601730019 $662 16.225601404121594 $661 $813 forward 7 unknown #
vertex $-1 $767 $814 #
straight-curve $-1 -44.957254307228482 21.7049033423203 78.88667806877227 -0.82903756765294845 0 0.55919291073839883 I I #
point $-1 54.524808276757824 21.7049033423203 11.785178313954717 #
point $-1 68.316293832209212 28.869102986268892 2.4827036709866803 #
straight-curve $-1 68.316293832209226 0 11.785178313954718 0 1 0 I I #
vertex $-1 $668 $815 #
point $-1 61.275876927571602 23.751817526305615 6.0253069694485477 #
vertex $-1 $672 $816 #
point $-1 61.275876927571602 26.822188802283584 6.0253069694485477 #
straight-curve $-1 -68.316293832209226 38.126567390369182 0 0 0 -1 I I #
point $-1 -68.316293832209226 -38.126567390369182 -11.785178313954718 #
straight-curve $-1 -68.316293832209226 0 -11.785178313954718 0 1 0 I I #
point $-1 -68.316293832209226 38.126567390369182 -11.785178313954718 #
straight-curve $-1 -52.781785270981572 -16.421664048048875 11.785178313954718 0 1 0 I I #
straight-curve $-1 -52.781785270981572 -16.421664048048875 -11.785178313954718 0 -1 0 I I #
point $-1 -52.781785270981572 -38.126567390369182 -11.785178313954718 #
point $-1 -52.781785270981572 -38.126567390369182 11.785178313954718 #
straight-curve $-1 0 -38.126567390369182 -11.785178313954718 -1 0 0 I I #
straight-curve $-1 0 -38.126567390369182 11.785178313954718 1 0 0 I I #
straight-curve $-1 -68.316293832209226 -8.3809162871746352 39.235556571454566 0 0 -1 I I #
point $-1 -68.316293832209226 -8.3809162871746352 11.785178313954718 #
straight-curve $-1 -68.316293832209226 -8.98525127225024 0.10188200809664383 0 -1 0 I I #
point $-1 -68.316293832209226 -8.3809162871746352 0.10188200809663175 #
point $-1 -58.872177862397947 -22.080325226211556 2.1947941517635581 #
point $-1 -58.872177862397947 -13.860679862789404 2.1947941517635581 #
straight-curve $-1 68.316293832209226 -27.560088801826325 96.080113104104996 0 0 -1 I I #
point $-1 68.316293832209226 -27.560088801826325 11.785178313954718 #
straight-curve $-1 68.316293832209226 -11.988994489926014 2.4827036709866803 0 1 0 I I #
point $-1 68.316293832209212 -27.560088801826325 2.4827036709866803 #
point $-1 60.581761688375927 -25.51317461784101 5.8903846409912726 #
point $-1 60.581761688375927 -22.442803341863044 5.8903846409912726 #
straight-curve $-1 68.316293832209226 -11.13842475377745 96.080113104104996 0 0 -1 I I #
point $-1 68.316293832209226 -11.13842475377745 11.785178313954718 #
straight-curve $-1 68.316293832209226 -3.7781624659015769 2.4827036709866803 0 1 0 I I #
point $-1 68.316293832209212 -11.13842475377745 2.4827036709866803 #
point $-1 60.581761688375927 -9.0915105697921348 5.8903846409912726 #
point $-1 60.581761688375927 -6.0211392938141657 5.8903846409912726 #
straight-curve $-1 68.316293832209226 5.2832392942714259 96.080113104104996 0 0 -1 I I #
point $-1 68.316293832209226 5.2832392942714259 11.785178313954718 #
straight-curve $-1 68.316293832209226 4.4326695581228606 2.4827036709866803 0 1 0 I I #
point $-1 68.316293832209212 5.2832392942714259 2.4827036709866803 #
point $-1 60.581761688375927 7.3301534782567401 5.8903846409912726 #
point $-1 60.581761688375927 10.400524754234709 5.8903846409912726 #
straight-curve $-1 68.316293832209226 21.7049033423203 96.080113104104996 0 0 -1 I I #
point $-1 68.316293832209226 21.7049033423203 11.785178313954718 #
straight-curve $-1 68.316293832209226 12.643501582147298 2.4827036709866803 0 1 0 I I #
point $-1 68.316293832209212 21.7049033423203 2.4827036709866803 #
point $-1 60.581761688375927 23.751817526305615 5.8903846409912726 #
point $-1 60.581761688375927 26.822188802283584 5.8903846409912726 #
End-of-ACIS-data 