500 0 11 0           
7 Unknown 11 ACIS 5.0 NT 24 Thu Mar 25 16:48:12 1999 
-1 9.9999999999999995e-007 1e-010 
body $-1 $11 $-1 $12 #
body $-1 $13 $-1 $14 #
body $-1 $15 $-1 $16 #
body $-1 $17 $-1 $18 #
body $-1 $19 $-1 $20 #
body $-1 $21 $-1 $22 #
body $-1 $23 $-1 $24 #
body $-1 $25 $-1 $26 #
body $-1 $27 $-1 $28 #
body $-1 $29 $-1 $30 #
body $-1 $31 $-1 $32 #
lump $-1 $-1 $33 $0 #
transform $-1 1 0 0 0 1 0 0 0 1 67.771843623157451 27.35507146139464 7.0062777102758389 1 rotate no_reflect no_shear #
lump $-1 $-1 $34 $1 #
transform $-1 1 0 0 0 1 0 0 0 1 67.771843623157451 27.35507146139464 7.0062777102758389 1 rotate no_reflect no_shear #
lump $-1 $-1 $35 $2 #
transform $-1 1 0 0 0 1 0 0 0 1 67.771843623157451 27.35507146139464 7.0062777102758389 1 rotate no_reflect no_shear #
lump $-1 $-1 $36 $3 #
transform $-1 1 0 0 0 1 0 0 0 1 67.771843623157451 27.35507146139464 7.0062777102758389 1 rotate no_reflect no_shear #
lump $-1 $-1 $37 $4 #
transform $-1 1 0 0 0 1 0 0 0 1 67.771843623157451 27.35507146139464 7.0062777102758389 1 rotate no_reflect no_shear #
lump $-1 $-1 $38 $5 #
transform $-1 1 0 0 0 1 0 0 0 1 67.771843623157451 27.35507146139464 7.0062777102758389 1 rotate no_reflect no_shear #
lump $-1 $-1 $39 $6 #
transform $-1 1 0 0 0 1 0 0 0 1 67.771843623157451 27.35507146139464 7.0062777102758389 1 rotate no_reflect no_shear #
lump $-1 $-1 $40 $7 #
transform $-1 1 0 0 0 1 0 0 0 1 67.771843623157451 27.35507146139464 7.0062777102758389 1 rotate no_reflect no_shear #
lump $-1 $-1 $41 $8 #
transform $-1 1 0 0 0 1 0 0 0 1 67.771843623157451 27.35507146139464 7.0062777102758389 1 rotate no_reflect no_shear #
lump $-1 $-1 $42 $9 #
transform $-1 1 0 0 0 1 0 0 0 1 67.771843623157451 27.35507146139464 7.0062777102758389 1 rotate no_reflect no_shear #
lump $-1 $-1 $43 $10 #
transform $-1 1 0 0 0 1 0 0 0 1 67.771843623157451 27.35507146139464 7.0062777102758389 1 rotate no_reflect no_shear #
shell $-1 $-1 $-1 $44 $-1 $11 #
shell $-1 $-1 $-1 $45 $-1 $13 #
shell $-1 $-1 $-1 $46 $-1 $15 #
shell $-1 $-1 $-1 $47 $-1 $17 #
shell $-1 $-1 $-1 $48 $-1 $19 #
shell $-1 $-1 $-1 $49 $-1 $21 #
shell $-1 $-1 $-1 $50 $-1 $23 #
shell $-1 $-1 $-1 $51 $-1 $25 #
shell $-1 $-1 $-1 $52 $-1 $27 #
shell $-1 $-1 $-1 $53 $-1 $29 #
shell $-1 $-1 $-1 $54 $-1 $31 #
face $-1 $55 $56 $33 $-1 $57 forward single #
face $-1 $58 $59 $34 $-1 $60 reversed single #
face $-1 $61 $62 $35 $-1 $63 reversed single #
face $-1 $64 $65 $36 $-1 $66 forward single #
face $-1 $67 $68 $37 $-1 $69 forward single #
face $-1 $70 $71 $38 $-1 $72 reversed single #
face $-1 $73 $74 $39 $-1 $75 forward single #
face $-1 $76 $77 $40 $-1 $78 forward single #
face $-1 $79 $80 $41 $-1 $81 reversed single #
face $-1 $82 $83 $42 $-1 $84 forward single #
face $-1 $85 $86 $43 $-1 $87 forward single #
face $-1 $88 $89 $33 $-1 $90 reversed single #
loop $-1 $-1 $91 $44 #
plane-surface $-1 0 0 7.0062777102758389 0 0 1 1 0 0 forward_v I I I I #
face $-1 $92 $93 $34 $-1 $94 reversed single #
loop $-1 $-1 $95 $45 #
plane-surface $-1 0 -23.021709972793726 4.0062777102758389 0 0 1 1 0 0 forward_v I I I I #
face $-1 $96 $97 $35 $-1 $98 reversed single #
loop $-1 $-1 $99 $46 #
plane-surface $-1 -43.25904417354522 23.733572629446275 78.800185236863413 0.57357644374324357 0 0.81915203911291934 0.81915203911291934 0 -0.57357644374324357 forward_v I I I I #
face $-1 $100 $101 $36 $-1 $102 forward single #
loop $-1 $103 $104 $47 #
cone-surface $-1 63.235773483441506 22.181501701468402 3.6213224027193154 -0.57357644374324357 0 -0.81915203911291934 0.20478800977822983 0 -0.14339411093581089 1 I I 0 1 0.25 forward I I I I #
face $-1 $105 $106 $37 $-1 $107 forward single #
loop $-1 $108 $109 $48 #
cone-surface $-1 63.235773483441506 25.285643557424148 3.6213224027193154 -0.57357644374324357 0 -0.81915203911291934 0.20478800977822983 0 -0.14339411093581089 1 I I 0 1 0.25 forward I I I I #
face $-1 $110 $111 $38 $-1 $112 reversed single #
loop $-1 $-1 $113 $49 #
plane-surface $-1 -67.771843623157437 -12.958484819173108 3.497530447711128 -0.80901700255871778 0 0.5877852410284794 0.5877852410284794 0 0.80901700255871778 forward_v I I I I #
face $-1 $114 $115 $39 $-1 $116 forward single #
loop $-1 $117 $118 $50 #
cone-surface $-1 -65.969165553292129 -15.414140675610124 4.8682525425029208 0.80901700255871778 0 -0.5877852410284794 0.2938926205142397 0 0.40450850127935889 1 I I 0 1 0.5 forward I I I I #
face $-1 $119 $120 $40 $-1 $121 forward single #
loop $-1 $122 $123 $51 #
cone-surface $-1 -65.969165553292129 -10.502828962736093 4.8682525425029208 0.80901700255871778 0 -0.5877852410284794 0.2938926205142397 0 0.40450850127935889 1 I I 0 1 0.5 forward I I I I #
face $-1 $124 $125 $41 $-1 $126 reversed single #
loop $-1 $-1 $127 $52 #
plane-surface $-1 -177.42899119492742 4.3333614886009117 83.168109325675161 0 1 0 -0.80901700255871778 0 0.5877852410284794 forward_v I I I I #
face $-1 $128 $129 $42 $-1 $130 forward single #
loop $-1 $131 $132 $53 #
cone-surface $-1 -65.969165553292129 7.6075692971836055 4.8682525425029208 0.80901700255871778 0 -0.5877852410284794 0.2938926205142397 0 0.40450850127935889 1 I I 0 1 0.5 forward I I I I #
face $-1 $133 $134 $43 $-1 $135 forward single #
loop $-1 $136 $137 $54 #
cone-surface $-1 -65.969165553292129 12.51888101005763 4.8682525425029208 0.80901700255871778 0 -0.5877852410284794 0.2938926205142397 0 0.40450850127935889 1 I I 0 1 0.5 forward I I I I #
face $-1 $138 $139 $33 $-1 $140 reversed single #
loop $-1 $-1 $141 $55 #
plane-surface $-1 0 0 -7.0062777102758389 0 0 1 1 0 0 forward_v I I I I #
coedge $-1 $142 $143 $144 $145 forward $56 $-1 #
face $-1 $146 $147 $34 $-1 $148 reversed single #
loop $-1 $-1 $149 $58 #
plane-surface $-1 0 -18.688348484192812 5.5062777102758389 0 -1 0 0 0 -1 forward_v I I I I #
coedge $-1 $150 $151 $152 $153 reversed $59 $-1 #
face $-1 $154 $155 $35 $-1 $156 reversed single #
loop $-1 $-1 $157 $61 #
plane-surface $-1 34.485621929042523 20.11207379749791 189.83107303356607 0 1 0 0.57357644374324357 0 0.81915203911291934 forward_v I I I I #
coedge $-1 $158 $159 $160 $161 reversed $62 $-1 #
face $-1 $-1 $162 $36 $-1 $163 forward single #
loop $-1 $164 $165 $64 #
cone-surface $-1 62.87728820610198 22.181501701468402 3.1093523782737407 -0.57357644374324357 0 -0.81915203911291934 0.10239400488911492 0 -0.071697055467905446 1 I I -0.70710678118654746 0.70710678118654746 0.125 forward I I I I #
loop $-1 $-1 $166 $47 #
coedge $-1 $104 $104 $167 $168 reversed $65 $-1 #
face $-1 $-1 $169 $37 $-1 $170 forward single #
loop $-1 $171 $172 $67 #
cone-surface $-1 62.87728820610198 25.285643557424148 3.1093523782737407 -0.57357644374324357 0 -0.81915203911291934 0.10239400488911492 0 -0.071697055467905446 1 I I -0.70710678118654746 0.70710678118654746 0.125 forward I I I I #
loop $-1 $-1 $173 $48 #
coedge $-1 $109 $109 $174 $175 reversed $68 $-1 #
face $-1 $176 $177 $38 $-1 $178 forward single #
loop $-1 $-1 $179 $70 #
plane-surface $-1 -177.42899119492742 -7.2286211541534025 83.168109325675161 0 -1 0 0.80901700255871778 0 -0.5877852410284794 forward_v I I I I #
coedge $-1 $180 $181 $182 $183 reversed $71 $-1 #
face $-1 $-1 $184 $39 $-1 $185 forward single #
loop $-1 $186 $187 $73 #
cone-surface $-1 -65.238860248604965 -15.414140675610124 4.3376546957552353 0.80901700255871778 0 -0.5877852410284794 0.14694631025711985 0 0.20225425063967944 1 I I -0.70710678118654746 0.70710678118654746 0.25 forward I I I I #
loop $-1 $-1 $188 $50 #
coedge $-1 $118 $118 $189 $190 reversed $74 $-1 #
face $-1 $-1 $191 $40 $-1 $192 forward single #
loop $-1 $193 $194 $76 #
cone-surface $-1 -65.238860248604965 -10.502828962736093 4.3376546957552353 0.80901700255871778 0 -0.5877852410284794 0.14694631025711985 0 0.20225425063967944 1 I I -0.70710678118654746 0.70710678118654746 0.25 forward I I I I #
loop $-1 $-1 $195 $51 #
coedge $-1 $123 $123 $196 $197 reversed $77 $-1 #
face $-1 $198 $199 $41 $-1 $200 reversed single #
loop $-1 $-1 $201 $79 #
plane-surface $-1 -67.771843623157437 10.063225153620618 3.497530447711128 -0.80901700255871778 0 0.5877852410284794 0.5877852410284794 0 0.80901700255871778 forward_v I I I I #
coedge $-1 $202 $203 $204 $205 reversed $80 $-1 #
face $-1 $-1 $206 $42 $-1 $207 forward single #
loop $-1 $208 $209 $82 #
cone-surface $-1 -65.238860248604965 7.6075692971836055 4.3376546957552353 0.80901700255871778 0 -0.5877852410284794 0.14694631025711985 0 0.20225425063967944 1 I I -0.70710678118654746 0.70710678118654746 0.25 forward I I I I #
loop $-1 $-1 $210 $53 #
coedge $-1 $132 $132 $211 $212 reversed $83 $-1 #
face $-1 $-1 $213 $43 $-1 $214 forward single #
loop $-1 $215 $216 $85 #
cone-surface $-1 -65.238860248604965 12.51888101005763 4.3376546957552353 0.80901700255871778 0 -0.5877852410284794 0.14694631025711985 0 0.20225425063967944 1 I I -0.70710678118654746 0.70710678118654746 0.25 forward I I I I #
loop $-1 $-1 $217 $54 #
coedge $-1 $137 $137 $218 $219 reversed $86 $-1 #
face $-1 $220 $221 $33 $-1 $222 reversed single #
loop $-1 $-1 $223 $88 #
plane-surface $-1 0 -27.35507146139464 0 0 1 0 0 0 1 forward_v I I I I #
coedge $-1 $224 $225 $226 $227 forward $89 $-1 #
coedge $-1 $228 $91 $229 $230 forward $56 $-1 #
coedge $-1 $91 $228 $231 $232 forward $56 $-1 #
coedge $-1 $233 $234 $91 $145 reversed $235 $-1 #
edge $-1 $236 -27.35507146139464 $237 27.35507146139464 $144 $238 forward 7 unknown #
face $-1 $239 $240 $34 $-1 $241 reversed single #
loop $-1 $-1 $242 $92 #
plane-surface $-1 -67.771843623157451 0 0 1 0 0 0 0 -1 forward_v I I I I #
coedge $-1 $243 $244 $245 $246 reversed $93 $-1 #
coedge $-1 $247 $95 $248 $249 reversed $59 $-1 #
coedge $-1 $95 $247 $250 $251 forward $59 $-1 #
coedge $-1 $252 $253 $95 $153 forward $254 $-1 #
edge $-1 $255 -15.844216474997777 $256 -7.1774934977959486 $152 $257 forward 7 unknown #
face $-1 $258 $259 $35 $-1 $260 forward single #
loop $-1 $-1 $261 $96 #
plane-surface $-1 0 27.35507146139464 0 0 -1 0 0 0 -1 forward_v I I I I #
coedge $-1 $262 $263 $264 $265 reversed $97 $-1 #
coedge $-1 $266 $99 $261 $267 reversed $62 $-1 #
coedge $-1 $99 $266 $262 $268 forward $62 $-1 #
coedge $-1 $264 $269 $99 $161 forward $259 $-1 #
edge $-1 $270 -15.488285146671503 $271 -8.2452874827747724 $160 $272 forward 7 unknown #
loop $-1 $-1 $167 $100 #
plane-surface $-1 -43.25904417354522 23.733572629446275 78.800185236863413 0.57357644374324357 0 0.81915203911291934 0.81915203911291934 0 -0.57357644374324357 forward_v I I I I #
loop $-1 $-1 $273 $64 #
coedge $-1 $165 $165 $166 $274 reversed $101 $-1 #
coedge $-1 $166 $166 $165 $274 forward $103 $-1 #
coedge $-1 $167 $167 $104 $168 forward $162 $-1 #
edge $-1 $275 0 $275 6.2831853071796004 $167 $276 forward 7 unknown #
loop $-1 $-1 $174 $105 #
plane-surface $-1 -43.25904417354522 23.733572629446275 78.800185236863413 0.57357644374324357 0 0.81915203911291934 0.81915203911291934 0 -0.57357644374324357 forward_v I I I I #
loop $-1 $-1 $277 $67 #
coedge $-1 $172 $172 $173 $278 reversed $106 $-1 #
coedge $-1 $173 $173 $172 $278 forward $108 $-1 #
coedge $-1 $174 $174 $109 $175 forward $169 $-1 #
edge $-1 $279 0 $279 6.2831853071796004 $174 $280 forward 7 unknown #
face $-1 $281 $282 $38 $-1 $283 forward single #
loop $-1 $-1 $284 $110 #
plane-surface $-1 0 -18.688348484192812 5.5062777102758389 0 -1 0 0 0 -1 forward_v I I I I #
coedge $-1 $285 $286 $287 $288 reversed $111 $-1 #
coedge $-1 $289 $113 $284 $290 reversed $71 $-1 #
coedge $-1 $113 $289 $285 $291 forward $71 $-1 #
coedge $-1 $287 $292 $113 $183 forward $282 $-1 #
edge $-1 $293 -12.209106074606261 $294 -0.74937874456684828 $182 $295 forward 7 unknown #
loop $-1 $-1 $189 $114 #
plane-surface $-1 -67.771843623157437 -12.958484819173108 3.497530447711128 -0.80901700255871778 0 0.5877852410284794 0.5877852410284794 0 0.80901700255871778 forward_v I I I I #
loop $-1 $-1 $296 $73 #
coedge $-1 $187 $187 $188 $297 reversed $115 $-1 #
coedge $-1 $188 $188 $187 $297 forward $117 $-1 #
coedge $-1 $189 $189 $118 $190 forward $184 $-1 #
edge $-1 $298 0 $298 6.2831853071796004 $189 $299 forward 7 unknown #
loop $-1 $-1 $196 $119 #
plane-surface $-1 -67.771843623157437 -12.958484819173108 3.497530447711128 -0.80901700255871778 0 0.5877852410284794 0.5877852410284794 0 0.80901700255871778 forward_v I I I I #
loop $-1 $-1 $300 $76 #
coedge $-1 $194 $194 $195 $301 reversed $120 $-1 #
coedge $-1 $195 $195 $194 $301 forward $122 $-1 #
coedge $-1 $196 $196 $123 $197 forward $191 $-1 #
edge $-1 $302 0 $302 6.2831853071796004 $196 $303 forward 7 unknown #
face $-1 $304 $305 $41 $-1 $306 reversed single #
loop $-1 $-1 $307 $124 #
plane-surface $-1 -177.42899119492742 15.793088818640324 83.168109325675161 0 -1 0 0.80901700255871778 0 -0.5877852410284794 forward_v I I I I #
coedge $-1 $308 $309 $310 $311 reversed $125 $-1 #
coedge $-1 $203 $127 $312 $313 reversed $80 $-1 #
coedge $-1 $127 $202 $308 $314 reversed $80 $-1 #
coedge $-1 $310 $315 $127 $205 forward $316 $-1 #
edge $-1 $317 20.942651974306258 $318 23.491906005941942 $204 $319 forward 7 unknown #
loop $-1 $-1 $211 $128 #
plane-surface $-1 -67.771843623157437 10.063225153620618 3.497530447711128 -0.80901700255871778 0 0.5877852410284794 0.5877852410284794 0 0.80901700255871778 forward_v I I I I #
loop $-1 $-1 $320 $82 #
coedge $-1 $209 $209 $210 $321 reversed $129 $-1 #
coedge $-1 $210 $210 $209 $321 forward $131 $-1 #
coedge $-1 $211 $211 $132 $212 forward $206 $-1 #
edge $-1 $322 0 $322 6.2831853071796004 $211 $323 forward 7 unknown #
loop $-1 $-1 $218 $133 #
plane-surface $-1 -67.771843623157437 10.063225153620618 3.497530447711128 -0.80901700255871778 0 0.5877852410284794 0.5877852410284794 0 0.80901700255871778 forward_v I I I I #
loop $-1 $-1 $324 $85 #
coedge $-1 $216 $216 $217 $325 reversed $134 $-1 #
coedge $-1 $217 $217 $216 $325 forward $136 $-1 #
coedge $-1 $218 $218 $137 $219 forward $213 $-1 #
edge $-1 $326 0 $326 6.2831853071796004 $218 $327 forward 7 unknown #
face $-1 $328 $329 $33 $-1 $330 reversed single #
loop $-1 $-1 $331 $138 #
plane-surface $-1 -67.771843623157451 0 0 1 0 0 0 0 -1 forward_v I I I I #
coedge $-1 $332 $231 $333 $334 forward $139 $-1 #
coedge $-1 $335 $141 $332 $336 forward $89 $-1 #
coedge $-1 $141 $335 $337 $338 forward $89 $-1 #
coedge $-1 $234 $233 $141 $227 reversed $235 $-1 #
edge $-1 $339 -27.35507146139464 $340 27.35507146139464 $226 $341 forward 7 unknown #
coedge $-1 $143 $142 $342 $343 forward $56 $-1 #
coedge $-1 $344 $345 $142 $230 reversed $329 $-1 #
edge $-1 $237 -67.771843623157451 $346 67.771843623157451 $229 $347 forward 7 unknown #
coedge $-1 $223 $348 $143 $232 reversed $139 $-1 #
edge $-1 $349 -67.771843623157451 $236 67.771843623157451 $231 $350 forward 7 unknown #
coedge $-1 $226 $144 $348 $351 forward $235 $-1 #
coedge $-1 $144 $226 $344 $352 reversed $235 $-1 #
loop $-1 $-1 $233 $328 #
vertex $-1 $145 $353 #
vertex $-1 $145 $354 #
straight-curve $-1 67.771843623157451 0 7.0062777102758389 0 1 0 I I #
face $-1 $355 $356 $34 $-1 $357 forward single #
loop $-1 $-1 $248 $146 #
plane-surface $-1 0 -27.35507146139464 0 0 1 0 0 0 1 forward_v I I I I #
coedge $-1 $358 $359 $244 $360 forward $147 $-1 #
coedge $-1 $250 $149 $252 $361 reversed $93 $-1 #
coedge $-1 $149 $250 $242 $360 reversed $93 $-1 #
coedge $-1 $362 $363 $149 $246 forward $356 $-1 #
edge $-1 $364 -67.771843623157451 $365 67.771843623157451 $245 $366 forward 7 unknown #
coedge $-1 $151 $150 $358 $367 reversed $59 $-1 #
coedge $-1 $368 $369 $150 $249 forward $240 $-1 #
edge $-1 $370 -67.771843623157451 $255 67.771843623157451 $248 $371 forward 7 unknown #
coedge $-1 $244 $243 $151 $251 reversed $93 $-1 #
edge $-1 $372 -67.771843623157451 $256 67.771843623157451 $250 $373 forward 7 unknown #
coedge $-1 $374 $152 $243 $361 forward $254 $-1 #
coedge $-1 $152 $374 $368 $375 forward $254 $-1 #
loop $-1 $-1 $252 $355 #
vertex $-1 $249 $376 #
vertex $-1 $153 $377 #
straight-curve $-1 67.771843623157451 -11.510854986396863 4.0062777102758389 0 1 0 I I #
face $-1 $-1 $378 $35 $-1 $379 reversed single #
loop $-1 $-1 $160 $154 #
plane-surface $-1 0 0 7.0062777102758389 0 0 1 1 0 0 forward_v I I I I #
coedge $-1 $380 $381 $158 $267 forward $155 $-1 #
coedge $-1 $263 $157 $159 $268 reversed $97 $-1 #
coedge $-1 $157 $262 $382 $383 reversed $97 $-1 #
coedge $-1 $384 $160 $157 $265 forward $259 $-1 #
edge $-1 $271 42.030468822947533 $385 50.52903265863619 $264 $386 forward 7 unknown #
coedge $-1 $159 $158 $387 $388 reversed $62 $-1 #
edge $-1 $389 -95.226855116662733 $270 -84.852024279530269 $261 $390 forward 7 unknown #
edge $-1 $391 -135.54368724631493 $271 -125.16885640918245 $262 $392 forward 7 unknown #
coedge $-1 $160 $384 $380 $393 forward $259 $-1 #
vertex $-1 $161 $394 #
vertex $-1 $161 $395 #
straight-curve $-1 59.273279787468788 11.866786314723138 7.0062777102758531 0 -1 0 I I #
coedge $-1 $273 $273 $-1 $396 reversed $164 $-1 #
edge $-1 $397 0 $397 6.2831853071796004 $165 $398 forward 7 unknown #
vertex $-1 $168 $399 #
ellipse-curve $-1 63.522561705313109 22.181501701468402 4.0308984222757518 0.57357644374324357 0 0.81915203911291934 0.20478800977822983 0 -0.14339411093581089 1 I I #
coedge $-1 $277 $277 $-1 $400 reversed $171 $-1 #
edge $-1 $401 0 $401 6.2831853071796004 $172 $402 forward 7 unknown #
vertex $-1 $175 $403 #
ellipse-curve $-1 63.522561705313109 25.285643557424148 4.0308984222757518 0.57357644374324357 0 0.81915203911291934 0.20478800977822983 0 -0.14339411093581089 1 I I #
face $-1 $-1 $404 $38 $-1 $405 reversed single #
loop $-1 $-1 $287 $176 #
plane-surface $-1 0 0 7.0062777102758389 0 0 1 1 0 0 forward_v I I I I #
coedge $-1 $406 $407 $180 $290 forward $177 $-1 #
coedge $-1 $286 $179 $181 $291 reversed $111 $-1 #
coedge $-1 $179 $285 $408 $409 reversed $111 $-1 #
coedge $-1 $410 $182 $179 $288 forward $282 $-1 #
edge $-1 $294 -23.491906005941942 $411 -20.942651974306258 $287 $412 forward 7 unknown #
coedge $-1 $181 $180 $413 $414 reversed $71 $-1 #
edge $-1 $415 -20.730200064120098 $293 -16.393149975596067 $284 $416 forward 7 unknown #
edge $-1 $417 -2.4161062406544664e-014 $294 4.3370500885240038 $285 $418 forward 7 unknown #
coedge $-1 $182 $410 $406 $419 forward $282 $-1 #
vertex $-1 $183 $420 #
vertex $-1 $183 $421 #
straight-curve $-1 -65.222589591521768 -6.4792424095865542 7.0062777102758389 0 1 0 I I #
coedge $-1 $296 $296 $-1 $422 reversed $186 $-1 #
edge $-1 $423 0 $423 6.2831853071796004 $187 $424 forward 7 unknown #
vertex $-1 $190 $425 #
ellipse-curve $-1 -66.49721660733961 -15.414140675610124 5.2519040789934799 -0.80901700255871778 0 0.5877852410284794 0.2938926205142397 0 0.40450850127935889 1 I I #
coedge $-1 $300 $300 $-1 $426 reversed $193 $-1 #
edge $-1 $427 0 $427 6.2831853071796004 $194 $428 forward 7 unknown #
vertex $-1 $197 $429 #
ellipse-curve $-1 -66.49721660733961 -10.502828962736093 5.2519040789934799 -0.80901700255871778 0 0.5877852410284794 0.2938926205142397 0 0.40450850127935889 1 I I #
face $-1 $-1 $316 $41 $-1 $430 forward single #
loop $-1 $-1 $431 $198 #
plane-surface $-1 -67.771843623157451 0 0 1 0 0 0 0 -1 forward_v I I I I #
coedge $-1 $432 $433 $434 $435 reversed $199 $-1 #
coedge $-1 $436 $201 $203 $314 forward $125 $-1 #
coedge $-1 $201 $436 $432 $437 forward $125 $-1 #
coedge $-1 $434 $204 $201 $311 forward $316 $-1 #
edge $-1 $318 -0.69825108820939707 $438 10.761476241830016 $310 $439 forward 7 unknown #
coedge $-1 $440 $441 $202 $313 forward $305 $-1 #
edge $-1 $442 -38.086524215126474 $317 -34.577776952561742 $312 $443 forward 7 unknown #
edge $-1 $318 -4.3370500885240038 $442 2.4161062406544664e-014 $203 $444 forward 7 unknown #
coedge $-1 $204 $434 $440 $445 forward $316 $-1 #
loop $-1 $-1 $434 $304 #
vertex $-1 $313 $446 #
vertex $-1 $205 $447 #
straight-curve $-1 -88.71449559746371 4.3333614886009117 7.0062777102758389 1 0 0 I I #
coedge $-1 $320 $320 $-1 $448 reversed $208 $-1 #
edge $-1 $449 0 $449 6.2831853071796004 $209 $450 forward 7 unknown #
vertex $-1 $212 $451 #
ellipse-curve $-1 -66.49721660733961 7.6075692971836055 5.2519040789934799 -0.80901700255871778 0 0.5877852410284794 0.2938926205142397 0 0.40450850127935889 1 I I #
coedge $-1 $324 $324 $-1 $452 reversed $215 $-1 #
edge $-1 $453 0 $453 6.2831853071796004 $216 $454 forward 7 unknown #
vertex $-1 $219 $455 #
ellipse-curve $-1 -66.49721660733961 12.51888101005763 5.2519040789934799 -0.80901700255871778 0 0.5877852410284794 0.2938926205142397 0 0.40450850127935889 1 I I #
face $-1 $-1 $235 $33 $-1 $456 reversed single #
loop $-1 $-1 $344 $220 #
plane-surface $-1 0 27.35507146139464 0 0 -1 0 0 0 -1 forward_v I I I I #
coedge $-1 $457 $342 $345 $458 forward $221 $-1 #
coedge $-1 $348 $223 $224 $336 reversed $139 $-1 #
coedge $-1 $342 $457 $223 $334 reversed $221 $-1 #
edge $-1 $349 -7.0062777102758389 $459 7.0062777102758389 $333 $460 forward 7 unknown #
coedge $-1 $225 $224 $457 $461 forward $89 $-1 #
edge $-1 $340 -67.771843623157451 $459 67.771843623157451 $332 $462 forward 7 unknown #
coedge $-1 $345 $344 $225 $338 reversed $329 $-1 #
edge $-1 $463 -67.771843623157451 $339 67.771843623157451 $337 $464 forward 7 unknown #
vertex $-1 $227 $465 #
vertex $-1 $351 $466 #
straight-curve $-1 67.771843623157451 0 -7.0062777102758389 0 -1 0 I I #
coedge $-1 $331 $333 $228 $343 reversed $221 $-1 #
edge $-1 $346 -27.35507146139464 $349 27.35507146139464 $342 $467 forward 7 unknown #
coedge $-1 $337 $229 $234 $352 forward $329 $-1 #
coedge $-1 $229 $337 $331 $458 reversed $329 $-1 #
vertex $-1 $230 $468 #
straight-curve $-1 0 27.35507146139464 7.0062777102758389 -1 0 0 I I #
coedge $-1 $231 $332 $233 $351 reversed $139 $-1 #
vertex $-1 $343 $469 #
straight-curve $-1 0 -27.35507146139464 7.0062777102758389 1 0 0 I I #
edge $-1 $236 -7.0062777102758389 $340 7.0062777102758389 $233 $470 forward 7 unknown #
edge $-1 $237 -7.0062777102758389 $339 7.0062777102758389 $234 $471 forward 7 unknown #
point $-1 67.771843623157451 -27.35507146139464 7.0062777102758389 #
point $-1 67.771843623157451 27.35507146139464 7.0062777102758389 #
face $-1 $-1 $254 $34 $-1 $472 reversed single #
loop $-1 $-1 $245 $239 #
plane-surface $-1 0 0 7.0062777102758389 0 0 1 1 0 0 forward_v I I I I #
coedge $-1 $473 $242 $247 $367 forward $147 $-1 #
coedge $-1 $242 $473 $362 $474 reversed $147 $-1 #
edge $-1 $365 -4.2531388551379194 $372 -1.2531388551379194 $242 $475 forward 7 unknown #
edge $-1 $256 1.2531388551379194 $364 4.2531388551379194 $252 $476 forward 7 unknown #
coedge $-1 $477 $245 $359 $474 forward $356 $-1 #
coedge $-1 $245 $477 $374 $478 forward $356 $-1 #
vertex $-1 $361 $479 #
vertex $-1 $474 $480 #
straight-curve $-1 0 -18.688348484192812 7.0062777102758389 -1 0 0 I I #
edge $-1 $372 7.1774934977959486 $370 15.844216474997777 $358 $481 forward 7 unknown #
coedge $-1 $482 $248 $253 $375 reversed $240 $-1 #
coedge $-1 $248 $482 $473 $483 forward $240 $-1 #
vertex $-1 $249 $484 #
straight-curve $-1 0 -27.35507146139464 4.0062777102758389 1 0 0 I I #
vertex $-1 $367 $485 #
straight-curve $-1 0 -18.688348484192812 4.0062777102758389 1 0 0 I I #
coedge $-1 $253 $252 $363 $478 reversed $254 $-1 #
edge $-1 $486 -7.0062777102758389 $255 -4.0062777102758389 $253 $487 forward 7 unknown #
point $-1 67.771843623157451 -27.35507146139464 4.0062777102758389 #
point $-1 67.771843623157451 -18.688348484192812 4.0062777102758389 #
loop $-1 $-1 $387 $258 #
plane-surface $-1 67.771843623157451 0 0 -1 0 0 0 0 1 forward_v I I I I #
coedge $-1 $381 $261 $269 $393 reversed $155 $-1 #
coedge $-1 $261 $380 $488 $489 forward $155 $-1 #
coedge $-1 $387 $490 $263 $383 forward $378 $-1 #
edge $-1 $385 87.909258806507196 $391 93.86001738250738 $382 $491 forward 7 unknown #
coedge $-1 $269 $264 $490 $492 forward $259 $-1 #
vertex $-1 $492 $493 #
straight-curve $-1 17.242810964521261 20.11207379749791 7.0062777102758389 1 0 0 I I #
coedge $-1 $488 $382 $266 $388 forward $378 $-1 #
edge $-1 $391 8.2452874827747724 $389 15.488285146671503 $387 $494 forward 7 unknown #
vertex $-1 $388 $495 #
straight-curve $-1 -10.233428923967368 27.35507146139464 55.675400040944169 -0.81915203911291934 0 0.57357644374324357 I I #
vertex $-1 $388 $496 #
straight-curve $-1 -43.25904417354522 20.11207379749791 78.800185236863413 -0.81915203911291934 0 0.57357644374324357 I I #
edge $-1 $497 -67.771843623157451 $270 -59.273279787468795 $380 $498 forward 7 unknown #
point $-1 59.273279787468795 27.35507146139464 7.0062777102758389 #
point $-1 59.273279787468795 20.11207379749791 7.0062777102758389 #
edge $-1 $499 1 $499 0 $273 $-1 forward 7 unknown #
vertex $-1 $274 $500 #
ellipse-curve $-1 62.948985261569888 22.181501701468402 3.2117463831628554 0.57357644374324357 0 0.81915203911291934 0.20478800977822983 0 -0.14339411093581089 1 I I #
point $-1 63.727349715091357 22.181501701468402 3.8875043113399639 #
edge $-1 $501 1 $501 0 $277 $-1 forward 7 unknown #
vertex $-1 $278 $502 #
ellipse-curve $-1 62.948985261569888 25.285643557424148 3.2117463831628554 0.57357644374324357 0 0.81915203911291934 0.20478800977822983 0 -0.14339411093581089 1 I I #
point $-1 63.727349715091357 25.285643557424148 3.8875043113399639 #
loop $-1 $-1 $503 $281 #
plane-surface $-1 -67.771843623157451 0 0 1 0 0 0 0 -1 forward_v I I I I #
coedge $-1 $407 $284 $292 $419 reversed $177 $-1 #
coedge $-1 $284 $406 $503 $504 reversed $177 $-1 #
coedge $-1 $413 $505 $286 $409 forward $404 $-1 #
edge $-1 $411 34.577776952561742 $417 38.086524215126474 $408 $506 forward 7 unknown #
coedge $-1 $292 $287 $505 $507 forward $282 $-1 #
vertex $-1 $507 $508 #
straight-curve $-1 -88.71449559746371 -7.2286211541534025 7.0062777102758389 -1 0 0 I I #
coedge $-1 $503 $408 $289 $414 forward $404 $-1 #
edge $-1 $417 0.74937874456684828 $415 12.209106074606261 $413 $509 forward 7 unknown #
vertex $-1 $504 $510 #
straight-curve $-1 -55.586937981900022 -18.688348484192812 20.268614766028087 0.5877852410284794 0 0.80901700255871778 I I #
vertex $-1 $414 $511 #
straight-curve $-1 -67.771843623157437 -7.2286211541534025 3.497530447711128 0.5877852410284794 0 0.80901700255871778 I I #
edge $-1 $512 -67.771843623157451 $293 -65.222589591521768 $292 $513 forward 7 unknown #
point $-1 -65.222589591521768 -18.688348484192815 7.0062777102758389 #
point $-1 -65.222589591521768 -7.2286211541534025 7.0062777102758389 #
edge $-1 $514 1 $514 0 $296 $-1 forward 7 unknown #
vertex $-1 $297 $515 #
ellipse-curve $-1 -65.441114499244648 -15.414140675610124 4.4846010060123556 -0.80901700255871778 0 0.5877852410284794 0.2938926205142397 0 0.40450850127935889 1 I I #
point $-1 -66.203323986825382 -15.414140675610124 5.6564125802728444 #
edge $-1 $516 1 $516 0 $300 $-1 forward 7 unknown #
vertex $-1 $301 $517 #
ellipse-curve $-1 -65.441114499244648 -10.502828962736093 4.4846010060123556 -0.80901700255871778 0 0.5877852410284794 0.2938926205142397 0 0.40450850127935889 1 I I #
point $-1 -66.203323986825382 -10.502828962736093 5.6564125802728444 #
plane-surface $-1 0 0 7.0062777102758389 0 0 1 1 0 0 forward_v I I I I #
coedge $-1 $441 $440 $433 $518 forward $305 $-1 #
coedge $-1 $433 $307 $309 $437 reversed $199 $-1 #
coedge $-1 $307 $432 $431 $518 reversed $199 $-1 #
coedge $-1 $315 $310 $307 $435 forward $316 $-1 #
edge $-1 $438 -23.491906005941942 $519 -20.942651974306258 $434 $520 forward 7 unknown #
coedge $-1 $309 $308 $441 $521 reversed $125 $-1 #
edge $-1 $522 -2.4161062406544664e-014 $438 4.3370500885240038 $432 $523 forward 7 unknown #
vertex $-1 $311 $524 #
straight-curve $-1 -65.222589591521768 5.0316125768103088 7.0062777102758389 0 1 0 I I #
coedge $-1 $431 $312 $315 $445 reversed $305 $-1 #
coedge $-1 $312 $431 $436 $521 forward $305 $-1 #
vertex $-1 $313 $525 #
straight-curve $-1 -67.771843623157451 4.3333614886009117 41.58405466283758 0 0 1 I I #
straight-curve $-1 -67.771843623157437 4.3333614886009117 3.497530447711128 -0.5877852410284794 0 -0.80901700255871778 I I #
edge $-1 $519 -15.793088818640324 $317 -4.3333614886009117 $440 $526 forward 7 unknown #
point $-1 -67.771843623157451 4.3333614886009117 7.0062777102758389 #
point $-1 -65.222589591521768 4.3333614886009117 7.0062777102758389 #
edge $-1 $527 1 $527 0 $320 $-1 forward 7 unknown #
vertex $-1 $321 $528 #
ellipse-curve $-1 -65.441114499244648 7.6075692971836055 4.4846010060123556 -0.80901700255871778 0 0.5877852410284794 0.2938926205142397 0 0.40450850127935889 1 I I #
point $-1 -66.203323986825382 7.6075692971836055 5.6564125802728444 #
edge $-1 $529 1 $529 0 $324 $-1 forward 7 unknown #
vertex $-1 $325 $530 #
ellipse-curve $-1 -65.441114499244648 12.51888101005763 4.4846010060123556 -0.80901700255871778 0 0.5877852410284794 0.2938926205142397 0 0.40450850127935889 1 I I #
point $-1 -66.203323986825382 12.51888101005763 5.6564125802728444 #
plane-surface $-1 67.771843623157451 0 0 -1 0 0 0 0 1 forward_v I I I I #
coedge $-1 $333 $331 $335 $461 reversed $221 $-1 #
edge $-1 $346 -7.0062777102758389 $463 7.0062777102758389 $345 $531 forward 7 unknown #
vertex $-1 $461 $532 #
straight-curve $-1 -67.771843623157451 -27.35507146139464 0 0 0 -1 I I #
edge $-1 $459 -27.35507146139464 $463 27.35507146139464 $457 $533 forward 7 unknown #
straight-curve $-1 0 -27.35507146139464 -7.0062777102758389 -1 0 0 I I #
vertex $-1 $338 $534 #
straight-curve $-1 0 27.35507146139464 -7.0062777102758389 1 0 0 I I #
point $-1 67.771843623157451 27.35507146139464 -7.0062777102758389 #
point $-1 67.771843623157451 -27.35507146139464 -7.0062777102758389 #
straight-curve $-1 -67.771843623157451 0 7.0062777102758389 0 -1 0 I I #
point $-1 -67.771843623157451 27.35507146139464 7.0062777102758389 #
point $-1 -67.771843623157451 -27.35507146139464 7.0062777102758389 #
straight-curve $-1 67.771843623157451 -27.35507146139464 0 0 0 -1 I I #
straight-curve $-1 67.771843623157451 27.35507146139464 0 0 0 -1 I I #
plane-surface $-1 67.771843623157451 0 0 -1 0 0 0 0 1 forward_v I I I I #
coedge $-1 $359 $358 $369 $483 reversed $147 $-1 #
edge $-1 $365 18.688348484192812 $535 27.35507146139464 $359 $536 forward 7 unknown #
straight-curve $-1 -67.771843623157451 -18.688348484192812 2.7531388551379194 0 0 -1 I I #
straight-curve $-1 67.771843623157451 -18.688348484192812 2.7531388551379194 0 0 1 I I #
coedge $-1 $363 $362 $482 $537 forward $356 $-1 #
edge $-1 $486 -27.35507146139464 $364 -18.688348484192812 $374 $538 forward 7 unknown #
point $-1 67.771843623157451 -18.688348484192812 7.0062777102758389 #
point $-1 -67.771843623157451 -18.688348484192812 7.0062777102758389 #
straight-curve $-1 -67.771843623157451 -11.510854986396863 4.0062777102758389 0 -1 0 I I #
coedge $-1 $369 $368 $477 $537 reversed $240 $-1 #
edge $-1 $535 -7.0062777102758389 $370 -4.0062777102758389 $473 $539 forward 7 unknown #
point $-1 -67.771843623157451 -27.35507146139464 4.0062777102758389 #
point $-1 -67.771843623157451 -18.688348484192812 4.0062777102758389 #
vertex $-1 $478 $540 #
straight-curve $-1 67.771843623157451 -27.35507146139464 0 0 0 -1 I I #
coedge $-1 $490 $387 $381 $489 reversed $378 $-1 #
edge $-1 $497 -7.0062777102758389 $389 -1.0555191342756558 $488 $541 forward 7 unknown #
coedge $-1 $382 $488 $384 $492 reversed $378 $-1 #
straight-curve $-1 67.771843623157451 20.11207379749791 94.915536516783035 0 0 -1 I I #
edge $-1 $385 20.11207379749791 $497 27.35507146139464 $490 $542 forward 7 unknown #
point $-1 67.771843623157451 20.11207379749791 7.0062777102758389 #
straight-curve $-1 67.771843623157451 11.866786314723138 1.0555191342756487 0 1 0 I I #
point $-1 67.771843623157451 27.35507146139464 1.0555191342756558 #
point $-1 67.771843623157451 20.11207379749791 1.0555191342756558 #
vertex $-1 $492 $543 #
straight-curve $-1 0 27.35507146139464 7.0062777102758389 -1 0 0 I I #
vertex $-1 $396 $544 #
point $-1 63.153773271348115 22.181501701468402 3.0683522722270449 #
vertex $-1 $400 $545 #
point $-1 63.153773271348115 25.285643557424148 3.0683522722270449 #
coedge $-1 $505 $413 $407 $504 forward $404 $-1 #
edge $-1 $415 -38.086524215126474 $512 -34.577776952561742 $503 $546 forward 7 unknown #
coedge $-1 $408 $503 $410 $507 reversed $404 $-1 #
straight-curve $-1 -67.771843623157451 -7.2286211541534025 41.58405466283758 0 0 -1 I I #
edge $-1 $411 7.2286211541534025 $512 18.688348484192812 $505 $547 forward 7 unknown #
point $-1 -67.771843623157451 -7.2286211541534025 7.0062777102758389 #
straight-curve $-1 -67.771843623157451 -6.4792424095865542 3.4975304477111226 0 -1 0 I I #
point $-1 -67.771843623157451 -18.688348484192815 3.4975304477111084 #
point $-1 -67.771843623157451 -7.2286211541534025 3.4975304477111084 #
vertex $-1 $504 $548 #
straight-curve $-1 0 -18.688348484192812 7.0062777102758389 1 0 0 I I #
vertex $-1 $422 $549 #
point $-1 -65.147221878730406 -15.414140675610124 4.8891095072917139 #
vertex $-1 $426 $550 #
point $-1 -65.147221878730406 -10.502828962736093 4.8891095072917139 #
edge $-1 $519 34.577776952561742 $522 38.086524215126474 $431 $551 forward 7 unknown #
vertex $-1 $445 $552 #
straight-curve $-1 -88.71449559746371 15.793088818640324 7.0062777102758389 -1 0 0 I I #
edge $-1 $522 -10.761476241830016 $442 0.69825108820939707 $441 $553 forward 7 unknown #
vertex $-1 $521 $554 #
straight-curve $-1 -67.771843623157437 15.793088818640324 3.497530447711128 0.5877852410284794 0 0.80901700255871778 I I #
point $-1 -65.222589591521768 15.793088818640324 7.0062777102758389 #
point $-1 -67.771843623157451 4.3333614886009117 3.4975304477111084 #
straight-curve $-1 -67.771843623157451 0 7.0062777102758389 0 -1 0 I I #
vertex $-1 $448 $555 #
point $-1 -65.147221878730406 7.6075692971836055 4.8891095072917139 #
vertex $-1 $452 $556 #
point $-1 -65.147221878730406 12.51888101005763 4.8891095072917139 #
straight-curve $-1 -67.771843623157451 27.35507146139464 0 0 0 -1 I I #
point $-1 -67.771843623157451 -27.35507146139464 -7.0062777102758389 #
straight-curve $-1 -67.771843623157451 0 -7.0062777102758389 0 1 0 I I #
point $-1 -67.771843623157451 27.35507146139464 -7.0062777102758389 #
vertex $-1 $474 $557 #
straight-curve $-1 -67.771843623157451 0 7.0062777102758389 0 -1 0 I I #
edge $-1 $535 -67.771843623157451 $486 67.771843623157451 $482 $558 forward 7 unknown #
straight-curve $-1 67.771843623157451 0 7.0062777102758389 0 1 0 I I #
straight-curve $-1 -67.771843623157451 -27.35507146139464 0 0 0 -1 I I #
point $-1 67.771843623157451 -27.35507146139464 7.0062777102758389 #
straight-curve $-1 67.771843623157451 27.35507146139464 0 0 0 -1 I I #
straight-curve $-1 67.771843623157451 0 7.0062777102758389 0 1 0 I I #
point $-1 67.771843623157451 27.35507146139464 7.0062777102758389 #
point $-1 62.805591150634072 22.181501701468402 3.0069583733846259 #
point $-1 62.805591150634072 25.285643557424148 3.0069583733846259 #
straight-curve $-1 -67.771843623157451 -18.688348484192815 41.58405466283758 0 0 1 I I #
straight-curve $-1 -67.771843623157451 0 7.0062777102758389 0 -1 0 I I #
point $-1 -67.771843623157451 -18.688348484192812 7.0062777102758389 #
point $-1 -65.036605997965282 -15.414140675610124 4.1907083854981151 #
point $-1 -65.036605997965282 -10.502828962736093 4.1907083854981151 #
straight-curve $-1 -67.771843623157451 15.793088818640324 41.58405466283758 0 0 -1 I I #
point $-1 -67.771843623157451 15.793088818640324 7.0062777102758389 #
straight-curve $-1 -67.771843623157451 5.0316125768103088 3.4975304477111226 0 -1 0 I I #
point $-1 -67.771843623157451 15.793088818640324 3.4975304477111084 #
point $-1 -65.036605997965282 7.6075692971836055 4.1907083854981151 #
point $-1 -65.036605997965282 12.51888101005763 4.1907083854981151 #
point $-1 -67.771843623157451 -27.35507146139464 7.0062777102758389 #
straight-curve $-1 0 -27.35507146139464 7.0062777102758389 1 0 0 I I #
End-of-ACIS-data 