500 0 3 0           
7 Unknown 11 ACIS 5.0 NT 24 Fri Mar 26 18:45:40 1999 
-1 9.9999999999999995e-007 1e-010 
body $-1 $3 $-1 $4 #
body $-1 $5 $-1 $6 #
body $-1 $7 $-1 $8 #
lump $-1 $-1 $9 $0 #
transform $-1 1 0 0 0 1 0 0 0 1 54.91378521073031 37.12039150004923 13.367849718916316 1 rotate no_reflect no_shear #
lump $-1 $-1 $10 $1 #
transform $-1 1 0 0 0 1 0 0 0 1 54.91378521073031 37.12039150004923 13.367849718916316 1 rotate no_reflect no_shear #
lump $-1 $-1 $11 $2 #
transform $-1 1 0 0 0 1 0 0 0 1 54.91378521073031 37.12039150004923 13.367849718916316 1 rotate no_reflect no_shear #
shell $-1 $-1 $-1 $12 $-1 $3 #
shell $-1 $-1 $-1 $13 $-1 $5 #
shell $-1 $-1 $-1 $14 $-1 $7 #
face $-1 $15 $16 $9 $-1 $17 forward single #
face $-1 $18 $19 $10 $-1 $20 reversed single #
face $-1 $21 $22 $11 $-1 $23 reversed single #
face $-1 $24 $25 $9 $-1 $26 reversed single #
loop $-1 $-1 $27 $12 #
plane-surface $-1 0 0 13.367849718916316 0 0 1 1 0 0 forward_v I I I I #
face $-1 $28 $29 $10 $-1 $30 forward single #
loop $-1 $-1 $31 $13 #
plane-surface $-1 0 -29.559084977256138 12.867849718916318 0 0 1 1 0 0 forward_v I I I I #
face $-1 $32 $33 $11 $-1 $34 forward single #
loop $-1 $-1 $35 $14 #
plane-surface $-1 0 29.559084977256141 12.867849718916318 0 0 1 1 0 0 forward_v I I I I #
face $-1 $36 $37 $9 $-1 $38 reversed single #
loop $-1 $-1 $39 $15 #
plane-surface $-1 0 0 -13.367849718916316 0 0 1 1 0 0 forward_v I I I I #
coedge $-1 $40 $41 $42 $43 forward $16 $-1 #
face $-1 $44 $45 $10 $-1 $46 forward single #
loop $-1 $-1 $47 $18 #
plane-surface $-1 0 -29.559084977256138 8.3719734570552511 0 0 1 1 0 0 forward_v I I I I #
coedge $-1 $48 $49 $50 $51 reversed $19 $-1 #
face $-1 $52 $53 $11 $-1 $54 forward single #
loop $-1 $-1 $55 $21 #
plane-surface $-1 0 29.559084977256141 8.3719734570552511 0 0 1 1 0 0 forward_v I I I I #
coedge $-1 $56 $57 $58 $59 reversed $22 $-1 #
face $-1 $60 $61 $9 $-1 $62 reversed single #
loop $-1 $-1 $63 $24 #
plane-surface $-1 0 -37.12039150004923 0 0 1 0 0 0 1 forward_v I I I I #
coedge $-1 $64 $65 $66 $67 forward $25 $-1 #
coedge $-1 $68 $27 $69 $70 forward $16 $-1 #
coedge $-1 $27 $68 $71 $72 forward $16 $-1 #
coedge $-1 $73 $74 $27 $43 reversed $75 $-1 #
edge $-1 $76 -37.12039150004923 $77 37.12039150004923 $42 $78 forward 7 unknown #
face $-1 $79 $80 $10 $-1 $81 reversed single #
loop $-1 $-1 $82 $28 #
plane-surface $-1 0 -21.997778454463045 10.619911587985785 0 -1 0 0 0 -1 forward_v I I I I #
coedge $-1 $83 $84 $85 $86 reversed $29 $-1 #
coedge $-1 $87 $31 $88 $89 reversed $19 $-1 #
coedge $-1 $31 $87 $90 $91 reversed $19 $-1 #
coedge $-1 $92 $93 $31 $51 forward $80 $-1 #
edge $-1 $94 -22.340849011421163 $95 -7.2182359658349764 $50 $96 forward 7 unknown #
face $-1 $97 $98 $11 $-1 $99 reversed single #
loop $-1 $-1 $100 $32 #
plane-surface $-1 0 21.997778454463049 10.619911587985785 0 1 0 0 0 1 forward_v I I I I #
coedge $-1 $101 $102 $103 $104 reversed $33 $-1 #
coedge $-1 $105 $35 $106 $107 reversed $22 $-1 #
coedge $-1 $35 $105 $108 $109 reversed $22 $-1 #
coedge $-1 $110 $111 $35 $59 forward $112 $-1 #
edge $-1 $113 7.2182359658349782 $114 22.340849011421167 $58 $115 forward 7 unknown #
face $-1 $116 $117 $9 $-1 $118 reversed single #
loop $-1 $-1 $119 $36 #
plane-surface $-1 -54.91378521073031 0 0 1 0 0 0 0 -1 forward_v I I I I #
coedge $-1 $120 $71 $121 $122 forward $37 $-1 #
coedge $-1 $123 $39 $120 $124 forward $25 $-1 #
coedge $-1 $39 $123 $125 $126 forward $25 $-1 #
coedge $-1 $74 $73 $39 $67 reversed $75 $-1 #
edge $-1 $127 -37.12039150004923 $128 37.12039150004923 $66 $129 forward 7 unknown #
coedge $-1 $41 $40 $130 $131 forward $16 $-1 #
coedge $-1 $132 $133 $40 $70 reversed $117 $-1 #
edge $-1 $77 -54.91378521073031 $134 54.91378521073031 $69 $135 forward 7 unknown #
coedge $-1 $63 $136 $41 $72 reversed $37 $-1 #
edge $-1 $137 -54.91378521073031 $76 54.91378521073031 $71 $138 forward 7 unknown #
coedge $-1 $66 $42 $136 $139 forward $75 $-1 #
coedge $-1 $42 $66 $132 $140 reversed $75 $-1 #
loop $-1 $-1 $73 $116 #
vertex $-1 $43 $141 #
vertex $-1 $43 $142 #
straight-curve $-1 54.91378521073031 0 13.367849718916316 0 1 0 I I #
face $-1 $143 $144 $10 $-1 $145 reversed single #
loop $-1 $-1 $50 $44 #
plane-surface $-1 54.91378521073031 0 0 -1 0 0 0 0 1 forward_v I I I I #
coedge $-1 $90 $146 $92 $147 reversed $45 $-1 #
coedge $-1 $148 $47 $146 $149 reversed $29 $-1 #
coedge $-1 $47 $148 $150 $151 reversed $29 $-1 #
coedge $-1 $152 $92 $47 $86 forward $80 $-1 #
edge $-1 $153 7.2182359658349764 $154 22.340849011421163 $85 $155 forward 7 unknown #
coedge $-1 $49 $48 $156 $157 reversed $19 $-1 #
coedge $-1 $158 $159 $48 $89 forward $160 $-1 #
edge $-1 $161 -54.91378521073031 $94 54.91378521073031 $88 $162 forward 7 unknown #
coedge $-1 $163 $82 $49 $91 forward $45 $-1 #
edge $-1 $95 -54.91378521073031 $164 54.91378521073031 $90 $165 forward 7 unknown #
coedge $-1 $85 $50 $82 $147 forward $80 $-1 #
coedge $-1 $50 $166 $158 $167 forward $80 $-1 #
vertex $-1 $89 $168 #
vertex $-1 $51 $169 #
straight-curve $-1 54.91378521073031 -14.779542488628069 12.867849718916318 0 1 0 I I #
face $-1 $170 $171 $11 $-1 $99 reversed single #
loop $-1 $-1 $172 $52 #
plane-surface $-1 0 37.12039150004923 0 0 -1 0 0 0 -1 forward_v I I I I #
coedge $-1 $106 $173 $174 $175 reversed $53 $-1 #
coedge $-1 $176 $55 $172 $177 reversed $33 $-1 #
coedge $-1 $55 $176 $173 $178 reversed $33 $-1 #
coedge $-1 $111 $179 $55 $104 forward $112 $-1 #
edge $-1 $180 -22.340849011421167 $181 -7.2182359658349782 $103 $182 forward 7 unknown #
coedge $-1 $57 $56 $183 $184 reversed $22 $-1 #
coedge $-1 $185 $100 $56 $107 forward $53 $-1 #
edge $-1 $186 -54.91378521073031 $113 54.91378521073031 $106 $187 forward 7 unknown #
coedge $-1 $188 $189 $57 $109 forward $171 $-1 #
edge $-1 $114 -54.91378521073031 $190 54.91378521073031 $108 $191 forward 7 unknown #
coedge $-1 $192 $58 $189 $193 reversed $112 $-1 #
coedge $-1 $58 $103 $185 $194 forward $112 $-1 #
loop $-1 $-1 $58 $195 #
vertex $-1 $59 $196 #
vertex $-1 $109 $197 #
straight-curve $-1 54.91378521073031 14.779542488628071 12.867849718916318 0 1 0 I I #
face $-1 $-1 $75 $9 $-1 $198 reversed single #
loop $-1 $-1 $132 $60 #
plane-surface $-1 0 37.12039150004923 0 0 -1 0 0 0 -1 forward_v I I I I #
coedge $-1 $199 $130 $133 $200 forward $61 $-1 #
coedge $-1 $136 $63 $64 $124 reversed $37 $-1 #
coedge $-1 $130 $199 $63 $122 reversed $61 $-1 #
edge $-1 $137 -13.367849718916316 $201 13.367849718916316 $121 $202 forward 7 unknown #
coedge $-1 $65 $64 $199 $203 forward $25 $-1 #
edge $-1 $128 -54.91378521073031 $201 54.91378521073031 $120 $204 forward 7 unknown #
coedge $-1 $133 $132 $65 $126 reversed $117 $-1 #
edge $-1 $205 -54.91378521073031 $127 54.91378521073031 $125 $206 forward 7 unknown #
vertex $-1 $67 $207 #
vertex $-1 $139 $208 #
straight-curve $-1 54.91378521073031 0 -13.367849718916316 0 -1 0 I I #
coedge $-1 $119 $121 $68 $131 reversed $61 $-1 #
edge $-1 $134 -37.12039150004923 $137 37.12039150004923 $130 $209 forward 7 unknown #
coedge $-1 $125 $69 $74 $140 forward $117 $-1 #
coedge $-1 $69 $125 $119 $200 reversed $117 $-1 #
vertex $-1 $70 $210 #
straight-curve $-1 0 37.12039150004923 13.367849718916316 -1 0 0 I I #
coedge $-1 $71 $120 $73 $139 reversed $37 $-1 #
vertex $-1 $131 $211 #
straight-curve $-1 0 -37.12039150004923 13.367849718916316 1 0 0 I I #
edge $-1 $76 -13.367849718916316 $128 13.367849718916316 $73 $212 forward 7 unknown #
edge $-1 $77 -13.367849718916316 $127 13.367849718916316 $74 $213 forward 7 unknown #
point $-1 54.91378521073031 -37.12039150004923 13.367849718916316 #
point $-1 54.91378521073031 37.12039150004923 13.367849718916316 #
face $-1 $214 $215 $10 $-1 $216 forward single #
loop $-1 $-1 $150 $79 #
plane-surface $-1 0 -37.12039150004923 0 0 1 0 0 0 1 forward_v I I I I #
coedge $-1 $82 $163 $83 $149 forward $45 $-1 #
edge $-1 $95 -7.5578939249234258 $153 -3.0620176630623588 $92 $217 forward 7 unknown #
coedge $-1 $84 $83 $218 $219 reversed $29 $-1 #
edge $-1 $220 -54.91378521073031 $153 54.91378521073031 $146 $221 forward 7 unknown #
coedge $-1 $222 $223 $84 $151 forward $144 $-1 #
edge $-1 $154 -54.91378521073031 $224 54.91378521073031 $150 $225 forward 7 unknown #
coedge $-1 $226 $85 $223 $227 forward $80 $-1 #
vertex $-1 $86 $228 #
vertex $-1 $227 $229 #
straight-curve $-1 54.91378521073031 -14.779542488628069 8.3719734570552511 0 -1 0 I I #
coedge $-1 $230 $231 $87 $157 forward $232 $-1 #
edge $-1 $164 7.2182359658349764 $161 22.340849011421163 $156 $233 forward 7 unknown #
coedge $-1 $234 $88 $93 $167 reversed $160 $-1 #
coedge $-1 $88 $234 $230 $235 forward $160 $-1 #
loop $-1 $-1 $88 $236 #
vertex $-1 $157 $237 #
straight-curve $-1 0 -37.12039150004923 12.867849718916318 1 0 0 I I #
coedge $-1 $146 $90 $231 $238 reversed $45 $-1 #
vertex $-1 $157 $239 #
straight-curve $-1 0 -21.997778454463045 12.867849718916318 -1 0 0 I I #
coedge $-1 $93 $240 $241 $242 reversed $80 $-1 #
edge $-1 $243 -13.367849718916316 $94 -12.867849718916318 $93 $244 forward 7 unknown #
point $-1 54.91378521073031 -37.12039150004923 12.867849718916318 #
point $-1 54.91378521073031 -21.997778454463045 12.867849718916318 #
face $-1 $245 $246 $11 $-1 $247 reversed single #
loop $-1 $-1 $108 $97 #
coedge $-1 $248 $249 $101 $177 forward $98 $-1 #
coedge $-1 $100 $185 $102 $178 forward $53 $-1 #
coedge $-1 $250 $183 $100 $175 forward $246 $-1 #
edge $-1 $186 -7.5578939249234258 $251 -3.0620176630623588 $174 $252 forward 7 unknown #
coedge $-1 $102 $101 $250 $253 reversed $33 $-1 #
edge $-1 $254 -54.91378521073031 $180 54.91378521073031 $172 $255 forward 7 unknown #
edge $-1 $181 -54.91378521073031 $251 54.91378521073031 $173 $256 forward 7 unknown #
coedge $-1 $103 $257 $248 $258 reversed $112 $-1 #
vertex $-1 $258 $259 #
vertex $-1 $104 $260 #
straight-curve $-1 54.91378521073031 14.779542488628071 8.3719734570552511 0 -1 0 I I #
coedge $-1 $174 $261 $105 $184 forward $246 $-1 #
edge $-1 $190 -22.340849011421167 $186 -7.2182359658349782 $183 $262 forward 7 unknown #
coedge $-1 $173 $106 $111 $194 reversed $53 $-1 #
vertex $-1 $184 $263 #
straight-curve $-1 0 21.997778454463049 12.867849718916318 1 0 0 I I #
coedge $-1 $264 $108 $261 $265 reversed $171 $-1 #
coedge $-1 $108 $264 $110 $193 forward $171 $-1 #
vertex $-1 $184 $266 #
straight-curve $-1 0 37.12039150004923 12.867849718916318 -1 0 0 I I #
coedge $-1 $267 $110 $268 $269 reversed $112 $-1 #
edge $-1 $270 -13.367849718916316 $114 -12.867849718916318 $110 $271 forward 7 unknown #
edge $-1 $181 3.0620176630623588 $113 7.5578939249234258 $111 $272 forward 7 unknown #
face $-1 $273 $112 $11 $-1 $274 reversed single #
point $-1 54.91378521073031 21.997778454463049 12.867849718916318 #
point $-1 54.91378521073031 37.120391500049237 12.867849718916318 #
plane-surface $-1 54.91378521073031 0 0 -1 0 0 0 0 1 forward_v I I I I #
coedge $-1 $121 $119 $123 $203 reversed $61 $-1 #
edge $-1 $134 -13.367849718916316 $205 13.367849718916316 $133 $275 forward 7 unknown #
vertex $-1 $203 $276 #
straight-curve $-1 -54.91378521073031 -37.12039150004923 0 0 0 -1 I I #
edge $-1 $201 -37.12039150004923 $205 37.12039150004923 $199 $277 forward 7 unknown #
straight-curve $-1 0 -37.12039150004923 -13.367849718916316 -1 0 0 I I #
vertex $-1 $126 $278 #
straight-curve $-1 0 37.12039150004923 -13.367849718916316 1 0 0 I I #
point $-1 54.91378521073031 37.12039150004923 -13.367849718916316 #
point $-1 54.91378521073031 -37.12039150004923 -13.367849718916316 #
straight-curve $-1 -54.91378521073031 0 13.367849718916316 0 -1 0 I I #
point $-1 -54.91378521073031 37.12039150004923 13.367849718916316 #
point $-1 -54.91378521073031 -37.12039150004923 13.367849718916316 #
straight-curve $-1 54.91378521073031 -37.12039150004923 0 0 0 -1 I I #
straight-curve $-1 54.91378521073031 37.12039150004923 0 0 0 -1 I I #
face $-1 $236 $279 $10 $-1 $280 reversed single #
loop $-1 $-1 $241 $143 #
plane-surface $-1 0 0 13.367849718916316 0 0 1 1 0 0 forward_v I I I I #
straight-curve $-1 54.91378521073031 -21.997778454463045 5.3099557939928923 0 0 -1 I I #
coedge $-1 $231 $281 $148 $219 forward $232 $-1 #
edge $-1 $224 -22.340849011421163 $220 -7.2182359658349764 $218 $282 forward 7 unknown #
vertex $-1 $219 $283 #
straight-curve $-1 0 -21.997778454463045 8.3719734570552511 1 0 0 I I #
coedge $-1 $284 $150 $281 $285 forward $144 $-1 #
coedge $-1 $150 $284 $152 $227 reversed $144 $-1 #
vertex $-1 $285 $286 #
straight-curve $-1 0 -37.12039150004923 8.3719734570552511 -1 0 0 I I #
coedge $-1 $240 $152 $287 $288 reversed $80 $-1 #
edge $-1 $154 -8.3719734570552511 $289 13.367849718916316 $152 $244 forward 7 unknown #
point $-1 54.91378521073031 -21.997778454463045 8.3719734570552511 #
point $-1 54.91378521073031 -37.12039150004923 8.3719734570552511 #
coedge $-1 $290 $156 $159 $235 reversed $232 $-1 #
coedge $-1 $156 $218 $163 $238 forward $232 $-1 #
loop $-1 $-1 $156 $291 #
straight-curve $-1 -54.91378521073031 -14.779542488628069 12.867849718916318 0 -1 0 I I #
coedge $-1 $159 $158 $292 $293 reversed $160 $-1 #
edge $-1 $294 -13.367849718916316 $161 -12.867849718916318 $230 $295 forward 7 unknown #
face $-1 $291 $160 $10 $-1 $145 reversed single #
point $-1 -54.91378521073031 -37.12039150004923 12.867849718916318 #
edge $-1 $220 3.0620176630623588 $164 7.5578939249234258 $231 $296 forward 7 unknown #
point $-1 -54.91378521073031 -21.997778454463045 12.867849718916318 #
coedge $-1 $166 $226 $297 $298 reversed $80 $-1 #
coedge $-1 $299 $292 $166 $242 forward $215 $-1 #
edge $-1 $243 -37.12039150004923 $300 37.12039150004923 $166 $301 forward 7 unknown #
vertex $-1 $242 $302 #
straight-curve $-1 54.91378521073031 -37.12039150004923 0 0 0 -1 I I #
face $-1 $303 $304 $11 $-1 $305 reversed single #
loop $-1 $-1 $183 $170 #
plane-surface $-1 -54.91378521073031 0 0 1 0 0 0 0 -1 forward_v I I I I #
coedge $-1 $306 $172 $179 $258 forward $98 $-1 #
coedge $-1 $172 $306 $307 $308 reversed $98 $-1 #
coedge $-1 $307 $174 $176 $253 forward $246 $-1 #
vertex $-1 $253 $309 #
straight-curve $-1 -54.91378521073031 21.997778454463049 5.3099557939928923 0 0 -1 I I #
edge $-1 $251 7.2182359658349782 $254 22.340849011421167 $250 $310 forward 7 unknown #
vertex $-1 $308 $311 #
straight-curve $-1 0 37.12039150004923 8.3719734570552511 1 0 0 I I #
straight-curve $-1 0 21.997778454463049 8.3719734570552511 -1 0 0 I I #
coedge $-1 $179 $312 $313 $314 reversed $112 $-1 #
edge $-1 $180 -8.3719734570552511 $315 13.367849718916316 $179 $271 forward 7 unknown #
point $-1 54.91378521073031 37.120391500049237 8.3719734570552511 #
point $-1 54.91378521073031 21.997778454463049 8.3719734570552511 #
coedge $-1 $183 $316 $188 $265 forward $246 $-1 #
straight-curve $-1 -54.91378521073031 14.779542488628071 12.867849718916318 0 -1 0 I I #
point $-1 -54.91378521073031 21.997778454463049 12.867849718916318 #
coedge $-1 $189 $188 $317 $318 reversed $171 $-1 #
edge $-1 $319 -13.367849718916316 $190 -12.867849718916318 $188 $320 forward 7 unknown #
point $-1 -54.91378521073031 37.120391500049237 12.867849718916318 #
coedge $-1 $321 $192 $322 $323 forward $112 $-1 #
coedge $-1 $317 $324 $192 $269 forward $325 $-1 #
edge $-1 $326 -37.12039150004923 $270 37.12039150004923 $192 $327 forward 7 unknown #
vertex $-1 $269 $328 #
straight-curve $-1 54.91378521073031 37.12039150004923 0 0 0 -1 I I #
straight-curve $-1 54.91378521073031 21.997778454463049 5.3099557939928923 0 0 1 I I #
face $-1 $329 $330 $11 $-1 $331 reversed single #
plane-surface $-1 54.91378521073031 0 0 -1 0 0 0 0 1 forward_v I I I I #
straight-curve $-1 -54.91378521073031 37.12039150004923 0 0 0 -1 I I #
point $-1 -54.91378521073031 -37.12039150004923 -13.367849718916316 #
straight-curve $-1 -54.91378521073031 0 -13.367849718916316 0 1 0 I I #
point $-1 -54.91378521073031 37.12039150004923 -13.367849718916316 #
loop $-1 $-1 $287 $214 #
plane-surface $-1 0 0 -13.367849718916316 0 0 1 1 0 0 forward_v I I I I #
coedge $-1 $218 $332 $222 $285 reversed $232 $-1 #
straight-curve $-1 -54.91378521073031 -14.779542488628069 8.3719734570552511 0 1 0 I I #
point $-1 -54.91378521073031 -21.997778454463045 8.3719734570552511 #
coedge $-1 $223 $222 $333 $334 reversed $144 $-1 #
edge $-1 $224 -8.3719734570552511 $335 13.367849718916316 $281 $295 forward 7 unknown #
point $-1 -54.91378521073031 -37.12039150004923 8.3719734570552511 #
coedge $-1 $333 $336 $226 $288 forward $279 $-1 #
edge $-1 $337 -37.12039150004923 $289 37.12039150004923 $226 $338 forward 7 unknown #
vertex $-1 $227 $339 #
coedge $-1 $340 $230 $341 $342 reversed $232 $-1 #
face $-1 $343 $232 $10 $-1 $344 reversed single #
coedge $-1 $241 $341 $234 $293 forward $215 $-1 #
edge $-1 $294 -54.91378521073031 $243 54.91378521073031 $234 $345 forward 7 unknown #
vertex $-1 $342 $346 #
straight-curve $-1 -54.91378521073031 -37.12039150004923 0 0 0 -1 I I #
straight-curve $-1 -54.91378521073031 -21.997778454463045 5.3099557939928923 0 0 1 I I #
coedge $-1 $347 $348 $240 $298 forward $349 $-1 #
edge $-1 $300 -13.367849718916316 $337 13.367849718916316 $240 $350 forward 7 unknown #
coedge $-1 $341 $241 $348 $351 forward $215 $-1 #
vertex $-1 $242 $352 #
straight-curve $-1 54.91378521073031 0 13.367849718916316 0 1 0 I I #
point $-1 54.91378521073031 -37.12039150004923 13.367849718916316 #
face $-1 $353 $354 $11 $-1 $355 forward single #
loop $-1 $-1 $356 $245 #
plane-surface $-1 0 -29.559084977256138 12.867849718916318 0 0 1 1 0 0 forward_v I I I I #
coedge $-1 $249 $248 $357 $358 reversed $98 $-1 #
coedge $-1 $359 $250 $249 $308 forward $246 $-1 #
edge $-1 $254 -8.3719734570552511 $360 13.367849718916316 $249 $320 forward 7 unknown #
point $-1 -54.91378521073031 21.997778454463049 8.3719734570552511 #
straight-curve $-1 -54.91378521073031 14.779542488628071 8.3719734570552511 0 1 0 I I #
point $-1 -54.91378521073031 37.120391500049237 8.3719734570552511 #
coedge $-1 $257 $361 $362 $363 forward $112 $-1 #
coedge $-1 $364 $357 $257 $314 forward $365 $-1 #
edge $-1 $315 -37.12039150004923 $366 37.12039150004923 $257 $367 forward 7 unknown #
vertex $-1 $314 $368 #
coedge $-1 $261 $369 $370 $371 reversed $246 $-1 #
coedge $-1 $370 $268 $264 $318 forward $325 $-1 #
edge $-1 $270 -54.91378521073031 $319 54.91378521073031 $264 $372 forward 7 unknown #
vertex $-1 $318 $373 #
straight-curve $-1 -54.91378521073031 37.12039150004923 0 0 0 -1 I I #
coedge $-1 $374 $267 $356 $375 forward $112 $-1 #
coedge $-1 $376 $377 $267 $323 reversed $378 $-1 #
edge $-1 $326 -13.367849718916316 $379 -12.867849718916318 $267 $380 forward 7 unknown #
coedge $-1 $268 $370 $376 $381 forward $325 $-1 #
loop $-1 $-1 $268 $329 #
vertex $-1 $269 $382 #
straight-curve $-1 54.91378521073031 0 13.367849718916316 0 1 0 I I #
point $-1 54.91378521073031 37.12039150004923 13.367849718916316 #
face $-1 $383 $325 $11 $-1 $384 forward single #
loop $-1 $-1 $385 $273 #
plane-surface $-1 0 -37.12039150004923 0 0 1 0 0 0 1 forward_v I I I I #
coedge $-1 $281 $340 $386 $387 reversed $232 $-1 #
coedge $-1 $386 $287 $284 $334 forward $279 $-1 #
edge $-1 $289 -54.91378521073031 $335 54.91378521073031 $284 $388 forward 7 unknown #
vertex $-1 $387 $389 #
coedge $-1 $287 $386 $347 $390 forward $279 $-1 #
vertex $-1 $288 $391 #
straight-curve $-1 54.91378521073031 0 -13.367849718916316 0 -1 0 I I #
point $-1 54.91378521073031 -37.12039150004923 -13.367849718916316 #
coedge $-1 $332 $290 $392 $393 forward $232 $-1 #
coedge $-1 $292 $299 $290 $342 forward $215 $-1 #
edge $-1 $394 -37.12039150004923 $294 37.12039150004923 $290 $395 forward 7 unknown #
face $-1 $-1 $349 $10 $-1 $396 reversed single #
plane-surface $-1 -54.91378521073031 0 0 1 0 0 0 0 -1 forward_v I I I I #
straight-curve $-1 0 -37.12039150004923 13.367849718916316 1 0 0 I I #
point $-1 -54.91378521073031 -37.12039150004923 13.367849718916316 #
coedge $-1 $392 $297 $336 $390 reversed $349 $-1 #
coedge $-1 $297 $392 $299 $351 reversed $349 $-1 #
loop $-1 $-1 $297 $343 #
straight-curve $-1 54.91378521073031 37.12039150004923 0 0 0 -1 I I #
edge $-1 $300 -54.91378521073031 $394 54.91378521073031 $348 $397 forward 7 unknown #
point $-1 54.91378521073031 37.12039150004923 13.367849718916316 #
face $-1 $195 $398 $11 $-1 $399 forward single #
loop $-1 $-1 $400 $303 #
plane-surface $-1 0 -29.559084977256138 8.3719734570552511 0 0 1 1 0 0 forward_v I I I I #
coedge $-1 $401 $402 $321 $375 reversed $304 $-1 #
coedge $-1 $313 $403 $306 $358 forward $365 $-1 #
edge $-1 $360 -54.91378521073031 $315 54.91378521073031 $306 $404 forward 7 unknown #
coedge $-1 $405 $307 $403 $406 reversed $246 $-1 #
vertex $-1 $358 $407 #
coedge $-1 $312 $374 $400 $408 forward $112 $-1 #
coedge $-1 $385 $409 $312 $363 reversed $330 $-1 #
edge $-1 $410 -8.3719734570552511 $366 13.367849718916316 $312 $380 forward 7 unknown #
coedge $-1 $403 $313 $409 $411 forward $365 $-1 #
loop $-1 $-1 $313 $383 #
vertex $-1 $363 $412 #
straight-curve $-1 54.91378521073031 0 -13.367849718916316 0 -1 0 I I #
point $-1 54.91378521073031 37.12039150004923 -13.367849718916316 #
coedge $-1 $316 $413 $414 $415 reversed $246 $-1 #
coedge $-1 $324 $317 $316 $371 forward $325 $-1 #
edge $-1 $319 -37.12039150004923 $416 37.12039150004923 $316 $417 forward 7 unknown #
straight-curve $-1 0 37.12039150004923 13.367849718916316 -1 0 0 I I #
point $-1 -54.91378521073031 37.12039150004923 13.367849718916316 #
coedge $-1 $361 $321 $418 $419 forward $112 $-1 #
edge $-1 $379 -22.340849011421163 $420 -7.2182359658349764 $321 $421 forward 7 unknown #
coedge $-1 $414 $322 $324 $381 reversed $378 $-1 #
coedge $-1 $322 $414 $401 $422 forward $378 $-1 #
loop $-1 $-1 $377 $423 #
vertex $-1 $422 $424 #
straight-curve $-1 54.91378521073031 -37.12039150004923 0 0 0 -1 I I #
edge $-1 $416 -54.91378521073031 $326 54.91378521073031 $376 $425 forward 7 unknown #
point $-1 54.91378521073031 -37.12039150004923 13.367849718916316 #
face $-1 $423 $365 $11 $-1 $426 reversed single #
plane-surface $-1 0 0 13.367849718916316 0 0 1 1 0 0 forward_v I I I I #
coedge $-1 $427 $362 $428 $429 forward $330 $-1 #
coedge $-1 $336 $333 $332 $387 forward $279 $-1 #
edge $-1 $335 -37.12039150004923 $430 37.12039150004923 $332 $431 forward 7 unknown #
straight-curve $-1 0 -37.12039150004923 -13.367849718916316 -1 0 0 I I #
point $-1 -54.91378521073031 -37.12039150004923 -13.367849718916316 #
edge $-1 $430 -54.91378521073031 $337 54.91378521073031 $347 $432 forward 7 unknown #
point $-1 54.91378521073031 37.12039150004923 -13.367849718916316 #
coedge $-1 $348 $347 $340 $393 reversed $349 $-1 #
edge $-1 $394 -13.367849718916316 $430 13.367849718916316 $392 $433 forward 7 unknown #
vertex $-1 $351 $434 #
straight-curve $-1 -54.91378521073031 0 13.367849718916316 0 -1 0 I I #
plane-surface $-1 0 37.12039150004923 0 0 -1 0 0 0 -1 forward_v I I I I #
straight-curve $-1 0 37.12039150004923 13.367849718916316 -1 0 0 I I #
loop $-1 $-1 $418 $353 #
plane-surface $-1 0 -21.997778454463045 10.619911587985785 0 -1 0 0 0 -1 forward_v I I I I #
coedge $-1 $435 $428 $361 $408 reversed $354 $-1 #
coedge $-1 $436 $356 $377 $422 reversed $304 $-1 #
coedge $-1 $356 $436 $437 $438 reversed $304 $-1 #
coedge $-1 $357 $364 $359 $406 forward $365 $-1 #
straight-curve $-1 0 37.12039150004923 -13.367849718916316 1 0 0 I I #
coedge $-1 $439 $359 $427 $440 reversed $246 $-1 #
edge $-1 $441 -37.12039150004923 $360 37.12039150004923 $359 $442 forward 7 unknown #
point $-1 -54.91378521073031 37.12039150004923 -13.367849718916316 #
edge $-1 $443 7.2182359658349764 $410 22.340849011421163 $361 $444 forward 7 unknown #
coedge $-1 $362 $427 $364 $411 reversed $330 $-1 #
vertex $-1 $363 $445 #
edge $-1 $366 -54.91378521073031 $441 54.91378521073031 $409 $446 forward 7 unknown #
point $-1 54.91378521073031 -37.12039150004923 -13.367849718916316 #
coedge $-1 $369 $447 $436 $448 forward $246 $-1 #
coedge $-1 $377 $376 $369 $415 forward $378 $-1 #
edge $-1 $416 -13.367849718916316 $449 -12.867849718916318 $369 $450 forward 7 unknown #
vertex $-1 $371 $451 #
straight-curve $-1 -54.91378521073031 0 13.367849718916316 0 -1 0 I I #
coedge $-1 $437 $452 $374 $419 reversed $398 $-1 #
edge $-1 $420 -7.5578939249234258 $443 -3.0620176630623588 $374 $453 forward 7 unknown #
vertex $-1 $375 $454 #
straight-curve $-1 54.91378521073031 -14.779542488628069 12.867849718916318 0 1 0 I I #
edge $-1 $449 -54.91378521073031 $379 54.91378521073031 $377 $455 forward 7 unknown #
face $-1 $-1 $378 $11 $-1 $331 reversed single #
point $-1 54.91378521073031 -37.12039150004923 12.867849718916318 #
straight-curve $-1 0 -37.12039150004923 13.367849718916316 1 0 0 I I #
plane-surface $-1 0 0 -13.367849718916316 0 0 1 1 0 0 forward_v I I I I #
coedge $-1 $409 $385 $405 $440 forward $330 $-1 #
coedge $-1 $400 $456 $385 $429 reversed $354 $-1 #
edge $-1 $410 -54.91378521073031 $457 54.91378521073031 $385 $458 forward 7 unknown #
vertex $-1 $390 $459 #
straight-curve $-1 -54.91378521073031 0 -13.367849718916316 0 1 0 I I #
straight-curve $-1 0 37.12039150004923 -13.367849718916316 1 0 0 I I #
straight-curve $-1 -54.91378521073031 37.12039150004923 0 0 0 -1 I I #
point $-1 -54.91378521073031 37.12039150004923 13.367849718916316 #
coedge $-1 $456 $400 $452 $460 reversed $354 $-1 #
coedge $-1 $402 $401 $413 $448 reversed $304 $-1 #
coedge $-1 $461 $418 $402 $438 forward $398 $-1 #
edge $-1 $420 -54.91378521073031 $462 54.91378521073031 $437 $463 forward 7 unknown #
coedge $-1 $447 $405 $456 $464 forward $246 $-1 #
edge $-1 $457 -8.3719734570552511 $441 13.367849718916316 $405 $450 forward 7 unknown #
vertex $-1 $406 $465 #
straight-curve $-1 -54.91378521073031 0 -13.367849718916316 0 1 0 I I #
vertex $-1 $408 $466 #
straight-curve $-1 54.91378521073031 -14.779542488628069 8.3719734570552511 0 -1 0 I I #
point $-1 54.91378521073031 -37.12039150004923 8.3719734570552511 #
straight-curve $-1 0 -37.12039150004923 -13.367849718916316 -1 0 0 I I #
coedge $-1 $413 $439 $461 $467 forward $246 $-1 #
edge $-1 $462 7.2182359658349764 $449 22.340849011421163 $413 $468 forward 7 unknown #
vertex $-1 $448 $469 #
straight-curve $-1 -54.91378521073031 -37.12039150004923 0 0 0 -1 I I #
point $-1 -54.91378521073031 -37.12039150004923 13.367849718916316 #
coedge $-1 $418 $461 $435 $460 forward $398 $-1 #
straight-curve $-1 54.91378521073031 -21.997778454463045 5.3099557939928923 0 0 -1 I I #
point $-1 54.91378521073031 -21.997778454463045 12.867849718916318 #
straight-curve $-1 0 -37.12039150004923 12.867849718916318 1 0 0 I I #
coedge $-1 $428 $435 $439 $464 reversed $354 $-1 #
vertex $-1 $440 $470 #
straight-curve $-1 0 -37.12039150004923 8.3719734570552511 -1 0 0 I I #
point $-1 -54.91378521073031 37.12039150004923 -13.367849718916316 #
edge $-1 $471 -54.91378521073031 $443 54.91378521073031 $452 $472 forward 7 unknown #
coedge $-1 $452 $437 $447 $467 reversed $398 $-1 #
vertex $-1 $448 $473 #
straight-curve $-1 0 -21.997778454463045 12.867849718916318 -1 0 0 I I #
edge $-1 $457 -22.340849011421163 $471 -7.2182359658349764 $439 $474 forward 7 unknown #
point $-1 -54.91378521073031 -37.12039150004923 -13.367849718916316 #
point $-1 54.91378521073031 -21.997778454463045 8.3719734570552511 #
edge $-1 $471 3.0620176630623588 $462 7.5578939249234258 $447 $475 forward 7 unknown #
straight-curve $-1 -54.91378521073031 -14.779542488628069 12.867849718916318 0 -1 0 I I #
point $-1 -54.91378521073031 -37.12039150004923 12.867849718916318 #
point $-1 -54.91378521073031 -37.12039150004923 8.3719734570552511 #
vertex $-1 $464 $476 #
straight-curve $-1 0 -21.997778454463045 8.3719734570552511 1 0 0 I I #
point $-1 -54.91378521073031 -21.997778454463045 12.867849718916318 #
straight-curve $-1 -54.91378521073031 -14.779542488628069 8.3719734570552511 0 1 0 I I #
straight-curve $-1 -54.91378521073031 -21.997778454463045 5.3099557939928923 0 0 1 I I #
point $-1 -54.91378521073031 -21.997778454463045 8.3719734570552511 #
End-of-ACIS-data 