500 0 7 0           
7 Unknown 11 ACIS 5.0 NT 24 Thu Mar 25 23:07:10 1999 
-1 9.9999999999999995e-007 1e-010 
body $-1 $7 $-1 $8 #
body $-1 $9 $-1 $10 #
body $-1 $11 $-1 $12 #
body $-1 $13 $-1 $14 #
body $-1 $15 $-1 $16 #
body $-1 $17 $-1 $18 #
body $-1 $19 $-1 $20 #
lump $-1 $-1 $21 $0 #
transform $-1 1 0 0 0 1 0 0 0 1 60.651264992217776 25.130654612043873 10.252742606424906 1 rotate no_reflect no_shear #
lump $-1 $-1 $22 $1 #
transform $-1 1 0 0 0 1 0 0 0 1 60.651264992217776 25.130654612043873 10.252742606424906 1 rotate no_reflect no_shear #
lump $-1 $-1 $23 $2 #
transform $-1 1 0 0 0 1 0 0 0 1 60.651264992217776 25.130654612043873 10.252742606424906 1 rotate no_reflect no_shear #
lump $-1 $-1 $24 $3 #
transform $-1 1 0 0 0 1 0 0 0 1 60.651264992217776 25.130654612043873 10.252742606424906 1 rotate no_reflect no_shear #
lump $-1 $-1 $25 $4 #
transform $-1 1 0 0 0 1 0 0 0 1 60.651264992217776 25.130654612043873 10.252742606424906 1 rotate no_reflect no_shear #
lump $-1 $-1 $26 $5 #
transform $-1 1 0 0 0 1 0 0 0 1 60.651264992217776 25.130654612043873 10.252742606424906 1 rotate no_reflect no_shear #
lump $-1 $-1 $27 $6 #
transform $-1 1 0 0 0 1 0 0 0 1 60.651264992217776 25.130654612043873 10.252742606424906 1 rotate no_reflect no_shear #
shell $-1 $-1 $-1 $28 $-1 $7 #
shell $-1 $-1 $-1 $29 $-1 $9 #
shell $-1 $-1 $-1 $30 $-1 $11 #
shell $-1 $-1 $-1 $31 $-1 $13 #
shell $-1 $-1 $-1 $32 $-1 $15 #
shell $-1 $-1 $-1 $33 $-1 $17 #
shell $-1 $-1 $-1 $34 $-1 $19 #
face $-1 $35 $36 $21 $-1 $37 forward single #
face $-1 $38 $39 $22 $-1 $40 forward single #
face $-1 $41 $42 $23 $-1 $43 reversed single #
face $-1 $44 $45 $24 $-1 $46 forward single #
face $-1 $47 $48 $25 $-1 $49 reversed single #
face $-1 $50 $51 $26 $-1 $52 forward single #
face $-1 $53 $54 $27 $-1 $55 forward single #
face $-1 $56 $57 $21 $-1 $58 reversed single #
loop $-1 $-1 $59 $28 #
plane-surface $-1 0 0 10.252742606424906 0 0 1 1 0 0 forward_v I I I I #
face $-1 $60 $61 $22 $-1 $62 reversed single #
loop $-1 $-1 $63 $29 #
plane-surface $-1 0 -25.130654612043873 0 0 1 0 0 0 1 forward_v I I I I #
face $-1 $64 $65 $23 $-1 $66 reversed single #
loop $-1 $-1 $67 $30 #
plane-surface $-1 -164.62782813770417 14.300522782040385 62.712478182619364 0 1 0 -0.85716730853699208 0 0.51503806187062418 forward_v I I I I #
face $-1 $68 $69 $24 $-1 $70 forward single #
loop $-1 $71 $72 $31 #
cone-surface $-1 -56.041918288741336 18.626358366030114 4.2833241885160591 0.85716730853699208 0 -0.51503806187062418 0.77255709280593621 0 1.2857509628054882 1 I I 0 1 1.5 forward I I I I #
face $-1 $73 $74 $25 $-1 $75 reversed single #
loop $-1 $-1 $76 $32 #
plane-surface $-1 54.66433909391796 -6.1155473949339898 173.66811967717828 0 -1 0 -0.68199836817093118 0 -0.7313536940579346 forward_v I I I I #
face $-1 $77 $78 $26 $-1 $79 forward single #
loop $-1 $80 $81 $33 #
cone-surface $-1 55.997235041806498 -11.564106445044985 5.8638899540932883 -0.68199836817093118 0 -0.7313536940579346 0.7313536940579346 0 -0.68199836817093118 1 I I 0 1 1 forward I I I I #
face $-1 $82 $83 $27 $-1 $84 forward single #
loop $-1 $85 $86 $34 #
cone-surface $-1 55.997235041806498 -8.2949710149783904 5.8638899540932883 -0.68199836817093118 0 -0.7313536940579346 0.7313536940579346 0 -0.68199836817093118 1 I I 0 1 1 forward I I I I #
face $-1 $87 $88 $21 $-1 $89 reversed single #
loop $-1 $-1 $90 $35 #
plane-surface $-1 0 0 -10.252742606424906 0 0 1 1 0 0 forward_v I I I I #
coedge $-1 $91 $92 $93 $94 forward $36 $-1 #
face $-1 $95 $96 $22 $-1 $97 reversed single #
loop $-1 $-1 $98 $38 #
plane-surface $-1 0 0 -10.252742606424906 0 0 1 1 0 0 forward_v I I I I #
coedge $-1 $99 $100 $101 $102 forward $39 $-1 #
face $-1 $103 $104 $23 $-1 $105 reversed single #
loop $-1 $-1 $106 $41 #
plane-surface $-1 -60.651264992217776 18.626358366030114 0.23705823943240034 -0.85716730853699208 0 0.51503806187062418 0.51503806187062418 0 0.85716730853699208 forward_v I I I I #
coedge $-1 $107 $108 $109 $110 reversed $42 $-1 #
face $-1 $-1 $111 $24 $-1 $112 forward single #
loop $-1 $113 $114 $44 #
cone-surface $-1 -53.79871115454587 18.626358366030114 2.9354694077005021 0.85716730853699208 0 -0.51503806187062418 0.3862785464029681 0 0.64287548140274409 1 I I -0.70710678118654757 0.70710678118654757 0.75 forward I I I I #
loop $-1 $-1 $115 $31 #
coedge $-1 $72 $72 $116 $117 reversed $45 $-1 #
face $-1 $118 $119 $25 $-1 $120 reversed single #
loop $-1 $-1 $121 $47 #
plane-surface $-1 -28.06378841047254 -9.9295387300116857 84.953066274487966 0.68199836817093118 0 0.7313536940579346 0.7313536940579346 0 -0.68199836817093118 forward_v I I I I #
coedge $-1 $122 $123 $124 $125 reversed $48 $-1 #
face $-1 $-1 $126 $26 $-1 $127 forward single #
loop $-1 $128 $129 $50 #
cone-surface $-1 55.306588633779157 -11.564106445044985 5.1232623728964306 -0.68199836817093118 0 -0.7313536940579346 0.3656768470289673 0 -0.34099918408546559 1 I I -0.70710678118654691 0.70710678118654813 0.5 forward I I I I #
loop $-1 $-1 $130 $33 #
coedge $-1 $81 $81 $131 $132 reversed $51 $-1 #
face $-1 $-1 $133 $27 $-1 $134 forward single #
loop $-1 $135 $136 $53 #
cone-surface $-1 55.306588633779157 -8.2949710149783904 5.1232623728964306 -0.68199836817093118 0 -0.7313536940579346 0.3656768470289673 0 -0.34099918408546559 1 I I -0.70710678118654691 0.70710678118654813 0.5 forward I I I I #
loop $-1 $-1 $137 $34 #
coedge $-1 $86 $86 $138 $139 reversed $54 $-1 #
face $-1 $140 $141 $21 $-1 $142 reversed single #
loop $-1 $-1 $143 $56 #
plane-surface $-1 0 -25.130654612043873 0 0 1 0 0 0 1 forward_v I I I I #
coedge $-1 $144 $145 $146 $147 forward $57 $-1 #
coedge $-1 $148 $59 $149 $150 forward $36 $-1 #
coedge $-1 $59 $148 $151 $152 forward $36 $-1 #
coedge $-1 $153 $154 $59 $94 reversed $155 $-1 #
edge $-1 $156 -25.130654612043873 $157 25.130654612043873 $93 $158 forward 7 unknown #
face $-1 $159 $160 $22 $-1 $161 forward single #
loop $-1 $-1 $162 $60 #
plane-surface $-1 60.651264992217776 0 0 -1 0 0 0 0 1 forward_v I I I I #
coedge $-1 $163 $164 $165 $166 forward $61 $-1 #
coedge $-1 $165 $63 $162 $167 reversed $39 $-1 #
coedge $-1 $63 $165 $168 $169 reversed $39 $-1 #
coedge $-1 $170 $171 $63 $102 reversed $160 $-1 #
edge $-1 $172 -60.651264992217776 $173 60.651264992217776 $101 $174 forward 7 unknown #
face $-1 $175 $176 $23 $-1 $177 forward single #
loop $-1 $-1 $178 $64 #
plane-surface $-1 -164.62782813770417 22.952193950019844 62.712478182619364 0 -1 0 0.85716730853699208 0 -0.51503806187062418 forward_v I I I I #
coedge $-1 $179 $180 $181 $182 reversed $65 $-1 #
coedge $-1 $108 $67 $183 $184 reversed $42 $-1 #
coedge $-1 $67 $107 $179 $185 reversed $42 $-1 #
coedge $-1 $181 $186 $67 $110 forward $176 $-1 #
edge $-1 $187 21.66264907663431 $188 27.680679178001753 $109 $189 forward 7 unknown #
loop $-1 $-1 $116 $68 #
plane-surface $-1 -60.651264992217776 18.626358366030114 0.23705823943240034 -0.85716730853699208 0 0.51503806187062418 0.51503806187062418 0 0.85716730853699208 forward_v I I I I #
loop $-1 $-1 $190 $44 #
coedge $-1 $114 $114 $115 $191 reversed $69 $-1 #
coedge $-1 $115 $115 $114 $191 forward $71 $-1 #
coedge $-1 $116 $116 $72 $117 forward $111 $-1 #
edge $-1 $192 0 $192 6.2831853071796004 $116 $193 forward 7 unknown #
face $-1 $194 $195 $25 $-1 $196 reversed single #
loop $-1 $-1 $197 $73 #
plane-surface $-1 54.66433909391796 -13.743530065089381 173.66811967717828 0 1 0 0.68199836817093118 0 0.7313536940579346 forward_v I I I I #
coedge $-1 $198 $199 $200 $201 reversed $74 $-1 #
coedge $-1 $123 $76 $202 $203 reversed $48 $-1 #
coedge $-1 $76 $122 $198 $204 reversed $48 $-1 #
coedge $-1 $200 $205 $76 $125 forward $206 $-1 #
edge $-1 $207 -33.319095445258796 $208 -24.710329992320027 $124 $209 forward 7 unknown #
loop $-1 $-1 $131 $77 #
plane-surface $-1 -28.06378841047254 -9.9295387300116857 84.953066274487966 0.68199836817093118 0 0.7313536940579346 0.7313536940579346 0 -0.68199836817093118 forward_v I I I I #
loop $-1 $-1 $210 $50 #
coedge $-1 $129 $129 $130 $211 reversed $78 $-1 #
coedge $-1 $130 $130 $129 $211 forward $80 $-1 #
coedge $-1 $131 $131 $81 $132 forward $126 $-1 #
edge $-1 $212 0 $212 6.2831853071796004 $131 $213 forward 7 unknown #
loop $-1 $-1 $138 $82 #
plane-surface $-1 -28.06378841047254 -9.9295387300116857 84.953066274487966 0.68199836817093118 0 0.7313536940579346 0.7313536940579346 0 -0.68199836817093118 forward_v I I I I #
loop $-1 $-1 $214 $53 #
coedge $-1 $136 $136 $137 $215 reversed $83 $-1 #
coedge $-1 $137 $137 $136 $215 forward $85 $-1 #
coedge $-1 $138 $138 $86 $139 forward $133 $-1 #
edge $-1 $216 0 $216 6.2831853071796004 $138 $217 forward 7 unknown #
face $-1 $218 $219 $21 $-1 $220 reversed single #
loop $-1 $-1 $221 $87 #
plane-surface $-1 -60.651264992217776 0 0 1 0 0 0 0 -1 forward_v I I I I #
coedge $-1 $222 $151 $223 $224 forward $88 $-1 #
coedge $-1 $225 $90 $222 $226 forward $57 $-1 #
coedge $-1 $90 $225 $227 $228 forward $57 $-1 #
coedge $-1 $154 $153 $90 $147 reversed $155 $-1 #
edge $-1 $229 -25.130654612043873 $230 25.130654612043873 $146 $231 forward 7 unknown #
coedge $-1 $92 $91 $232 $233 forward $36 $-1 #
coedge $-1 $234 $235 $91 $150 reversed $219 $-1 #
edge $-1 $157 -60.651264992217776 $236 60.651264992217776 $149 $237 forward 7 unknown #
coedge $-1 $143 $238 $92 $152 reversed $88 $-1 #
edge $-1 $239 -60.651264992217776 $156 60.651264992217776 $151 $240 forward 7 unknown #
coedge $-1 $146 $93 $238 $241 forward $155 $-1 #
coedge $-1 $93 $146 $234 $242 reversed $155 $-1 #
loop $-1 $-1 $153 $218 #
vertex $-1 $94 $243 #
vertex $-1 $94 $244 #
straight-curve $-1 60.651264992217776 0 10.252742606424906 0 1 0 I I #
face $-1 $245 $246 $22 $-1 $247 reversed single #
loop $-1 $-1 $171 $95 #
plane-surface $-1 0 -30.824216885521118 -5.203125286224509 0 0 1 1 0 0 forward_v I I I I #
coedge $-1 $248 $249 $99 $167 forward $96 $-1 #
coedge $-1 $250 $98 $249 $251 forward $61 $-1 #
coedge $-1 $98 $250 $252 $253 forward $61 $-1 #
coedge $-1 $100 $99 $98 $166 reversed $39 $-1 #
edge $-1 $254 -60.651264992217776 $255 60.651264992217776 $98 $256 forward 7 unknown #
edge $-1 $255 -10.252742606424906 $173 -5.203125286224509 $162 $257 forward 7 unknown #
coedge $-1 $252 $258 $100 $169 forward $259 $-1 #
edge $-1 $172 5.203125286224509 $254 10.252742606424906 $168 $260 forward 7 unknown #
coedge $-1 $261 $101 $258 $262 forward $160 $-1 #
coedge $-1 $101 $261 $248 $263 forward $160 $-1 #
vertex $-1 $169 $264 #
vertex $-1 $263 $265 #
straight-curve $-1 0 -25.130654612043873 -5.203125286224509 1 0 0 I I #
face $-1 $-1 $266 $23 $-1 $267 reversed single #
loop $-1 $-1 $109 $103 #
plane-surface $-1 0 0 10.252742606424906 0 0 1 1 0 0 forward_v I I I I #
coedge $-1 $268 $269 $270 $271 reversed $104 $-1 #
coedge $-1 $272 $106 $108 $185 forward $65 $-1 #
coedge $-1 $106 $272 $268 $273 forward $65 $-1 #
coedge $-1 $270 $109 $106 $182 forward $176 $-1 #
edge $-1 $188 4.9873435990253281 $274 13.639014767004786 $181 $275 forward 7 unknown #
coedge $-1 $276 $277 $107 $184 forward $266 $-1 #
edge $-1 $278 -31.119180851877282 $187 -21.103496484884776 $183 $279 forward 7 unknown #
edge $-1 $188 -11.684631771698362 $278 0 $108 $280 forward 7 unknown #
coedge $-1 $109 $270 $276 $281 forward $176 $-1 #
vertex $-1 $184 $282 #
vertex $-1 $110 $283 #
straight-curve $-1 -82.313914068852085 14.300522782040385 10.252742606424906 1 0 0 I I #
coedge $-1 $190 $190 $-1 $284 reversed $113 $-1 #
edge $-1 $285 0 $285 6.2831853071796004 $114 $286 forward 7 unknown #
vertex $-1 $117 $287 #
ellipse-curve $-1 -57.642249941534061 18.626358366030114 5.2449004229286498 -0.85716730853699208 0 0.51503806187062418 0.77255709280593621 0 1.2857509628054882 1 I I #
face $-1 $-1 $206 $25 $-1 $288 forward single #
loop $-1 $-1 $289 $118 #
plane-surface $-1 60.651264992217776 0 0 -1 0 0 0 0 1 forward_v I I I I #
coedge $-1 $290 $291 $292 $293 reversed $119 $-1 #
coedge $-1 $294 $121 $123 $204 forward $74 $-1 #
coedge $-1 $121 $294 $290 $295 forward $74 $-1 #
coedge $-1 $292 $124 $121 $201 forward $206 $-1 #
edge $-1 $208 1.1507780299281469 $296 8.7787607000835379 $200 $297 forward 7 unknown #
coedge $-1 $298 $299 $122 $203 forward $195 $-1 #
edge $-1 $300 -84.609121068491675 $207 -76.581317232164238 $202 $301 forward 7 unknown #
edge $-1 $208 109.5315284527788 $300 121.30252998443555 $123 $302 forward 7 unknown #
coedge $-1 $124 $292 $298 $303 forward $206 $-1 #
loop $-1 $-1 $292 $194 #
vertex $-1 $203 $304 #
vertex $-1 $125 $305 #
straight-curve $-1 27.33216954695898 -6.1155473949339898 10.252742606424903 -1 0 0 I I #
coedge $-1 $210 $210 $-1 $306 reversed $128 $-1 #
edge $-1 $307 0 $307 6.2831853071796004 $129 $308 forward 7 unknown #
vertex $-1 $132 $309 #
ellipse-curve $-1 56.346882265748377 -11.564106445044985 6.2388406882611829 0.68199836817093118 0 0.7313536940579346 0.7313536940579346 0 -0.68199836817093118 1 I I #
coedge $-1 $214 $214 $-1 $310 reversed $135 $-1 #
edge $-1 $311 0 $311 6.2831853071796004 $136 $312 forward 7 unknown #
vertex $-1 $139 $313 #
ellipse-curve $-1 56.346882265748377 -8.2949710149783904 6.2388406882611829 0.68199836817093118 0 0.7313536940579346 0.7313536940579346 0 -0.68199836817093118 1 I I #
face $-1 $-1 $155 $21 $-1 $314 reversed single #
loop $-1 $-1 $234 $140 #
plane-surface $-1 0 25.130654612043873 0 0 -1 0 0 0 -1 forward_v I I I I #
coedge $-1 $315 $232 $235 $316 forward $141 $-1 #
coedge $-1 $238 $143 $144 $226 reversed $88 $-1 #
coedge $-1 $232 $315 $143 $224 reversed $141 $-1 #
edge $-1 $239 -10.252742606424906 $317 10.252742606424906 $223 $318 forward 7 unknown #
coedge $-1 $145 $144 $315 $319 forward $57 $-1 #
edge $-1 $230 -60.651264992217776 $317 60.651264992217776 $222 $320 forward 7 unknown #
coedge $-1 $235 $234 $145 $228 reversed $219 $-1 #
edge $-1 $321 -60.651264992217776 $229 60.651264992217776 $227 $322 forward 7 unknown #
vertex $-1 $147 $323 #
vertex $-1 $241 $324 #
straight-curve $-1 60.651264992217776 0 -10.252742606424906 0 -1 0 I I #
coedge $-1 $221 $223 $148 $233 reversed $141 $-1 #
edge $-1 $236 -25.130654612043873 $239 25.130654612043873 $232 $325 forward 7 unknown #
coedge $-1 $227 $149 $154 $242 forward $219 $-1 #
coedge $-1 $149 $227 $221 $316 reversed $219 $-1 #
vertex $-1 $150 $326 #
straight-curve $-1 0 25.130654612043873 10.252742606424906 -1 0 0 I I #
coedge $-1 $151 $222 $153 $241 reversed $88 $-1 #
vertex $-1 $233 $327 #
straight-curve $-1 0 -25.130654612043873 10.252742606424906 1 0 0 I I #
edge $-1 $156 -10.252742606424906 $230 10.252742606424906 $153 $328 forward 7 unknown #
edge $-1 $157 -10.252742606424906 $229 10.252742606424906 $154 $329 forward 7 unknown #
point $-1 60.651264992217776 -25.130654612043873 10.252742606424906 #
point $-1 60.651264992217776 25.130654612043873 10.252742606424906 #
face $-1 $-1 $259 $22 $-1 $330 reversed single #
loop $-1 $-1 $331 $159 #
plane-surface $-1 0 -36.517779158998366 -7.7279339463247076 0 1 0 0 0 1 forward_v I I I I #
coedge $-1 $332 $162 $171 $263 reversed $96 $-1 #
coedge $-1 $162 $332 $163 $251 reversed $96 $-1 #
coedge $-1 $164 $163 $333 $334 forward $61 $-1 #
edge $-1 $255 25.130654612043873 $335 36.517779158998366 $249 $336 forward 7 unknown #
coedge $-1 $337 $168 $164 $253 reversed $259 $-1 #
edge $-1 $338 -36.517779158998366 $254 -25.130654612043873 $252 $339 forward 7 unknown #
vertex $-1 $169 $340 #
vertex $-1 $251 $341 #
straight-curve $-1 0 -25.130654612043873 -10.252742606424906 1 0 0 I I #
straight-curve $-1 60.651264992217776 -25.130654612043873 0 0 0 1 I I #
coedge $-1 $168 $337 $170 $262 reversed $259 $-1 #
loop $-1 $-1 $168 $245 #
straight-curve $-1 -60.651264992217776 -25.130654612043873 0 0 0 -1 I I #
coedge $-1 $171 $170 $342 $343 forward $160 $-1 #
edge $-1 $172 -5.6935622734772444 $344 5.693562273477248 $258 $345 forward 7 unknown #
edge $-1 $346 -5.693562273477248 $173 5.6935622734772444 $248 $347 forward 7 unknown #
point $-1 -60.651264992217776 -25.130654612043873 -5.203125286224509 #
point $-1 60.651264992217776 -25.130654612043873 -5.203125286224509 #
loop $-1 $-1 $183 $175 #
plane-surface $-1 -60.651264992217776 0 0 1 0 0 0 0 -1 forward_v I I I I #
coedge $-1 $269 $178 $180 $273 reversed $104 $-1 #
coedge $-1 $178 $268 $348 $349 reversed $104 $-1 #
coedge $-1 $186 $181 $178 $271 forward $176 $-1 #
edge $-1 $274 -27.680679178001753 $350 -21.66264907663431 $270 $351 forward 7 unknown #
coedge $-1 $180 $179 $277 $352 reversed $65 $-1 #
edge $-1 $353 0 $274 11.684631771698362 $268 $354 forward 7 unknown #
vertex $-1 $182 $355 #
straight-curve $-1 -54.633234890850332 9.3131791830150572 10.252742606424906 0 1 0 I I #
coedge $-1 $348 $183 $186 $281 reversed $266 $-1 #
coedge $-1 $183 $348 $272 $352 forward $266 $-1 #
vertex $-1 $184 $356 #
straight-curve $-1 -60.651264992217776 14.300522782040385 31.356239091309682 0 0 1 I I #
straight-curve $-1 -60.651264992217776 14.300522782040385 0.23705823943240034 -0.51503806187062418 0 -0.85716730853699208 I I #
edge $-1 $350 -22.952193950019844 $187 -14.300522782040385 $276 $357 forward 7 unknown #
point $-1 -60.651264992217776 14.300522782040385 10.252742606424906 #
point $-1 -54.633234890850332 14.300522782040385 10.252742606424906 #
edge $-1 $358 1 $358 0 $190 $-1 forward 7 unknown #
vertex $-1 $191 $359 #
ellipse-curve $-1 -54.441586635948617 18.626358366030114 3.3217479541034702 -0.85716730853699208 0 0.51503806187062418 0.77255709280593621 0 1.2857509628054882 1 I I #
point $-1 -56.869692848728114 18.626358366030114 6.5306513857341359 #
plane-surface $-1 0 0 10.252742606424906 0 0 1 1 0 0 forward_v I I I I #
coedge $-1 $299 $298 $291 $360 forward $195 $-1 #
coedge $-1 $291 $197 $199 $295 reversed $119 $-1 #
coedge $-1 $197 $290 $289 $360 reversed $119 $-1 #
coedge $-1 $205 $200 $197 $293 forward $206 $-1 #
edge $-1 $296 24.710329992320027 $361 33.319095445258796 $292 $362 forward 7 unknown #
coedge $-1 $199 $198 $299 $363 reversed $74 $-1 #
edge $-1 $364 -121.30252998443555 $296 -109.5315284527788 $290 $365 forward 7 unknown #
vertex $-1 $201 $366 #
straight-curve $-1 52.042499539279021 -4.9647693650058429 10.252742606424903 0 -1 0 I I #
coedge $-1 $289 $202 $205 $303 reversed $195 $-1 #
coedge $-1 $202 $289 $294 $363 forward $195 $-1 #
vertex $-1 $203 $367 #
straight-curve $-1 60.651264992217776 -6.1155473949339898 86.834059838589141 0 0 1 I I #
straight-curve $-1 -28.06378841047254 -6.1155473949339898 84.953066274487966 0.7313536940579346 0 -0.68199836817093118 I I #
edge $-1 $361 -13.743530065089381 $207 -6.1155473949339898 $298 $368 forward 7 unknown #
point $-1 60.651264992217776 -6.1155473949339898 10.252742606424906 #
point $-1 52.042499539279007 -6.1155473949339898 10.252742606424903 #
edge $-1 $369 1 $369 0 $210 $-1 forward 7 unknown #
vertex $-1 $211 $370 #
ellipse-curve $-1 55.647587817864625 -11.564106445044985 5.488939219925399 0.68199836817093118 0 0.7313536940579346 0.7313536940579346 0 -0.68199836817093118 1 I I #
point $-1 57.078235959806314 -11.564106445044985 5.5568423200902473 #
edge $-1 $371 1 $371 0 $214 $-1 forward 7 unknown #
vertex $-1 $215 $372 #
ellipse-curve $-1 55.647587817864625 -8.2949710149783904 5.488939219925399 0.68199836817093118 0 0.7313536940579346 0.7313536940579346 0 -0.68199836817093118 1 I I #
point $-1 57.078235959806314 -8.2949710149783904 5.5568423200902473 #
plane-surface $-1 60.651264992217776 0 0 -1 0 0 0 0 1 forward_v I I I I #
coedge $-1 $223 $221 $225 $319 reversed $141 $-1 #
edge $-1 $236 -10.252742606424906 $321 10.252742606424906 $235 $373 forward 7 unknown #
vertex $-1 $319 $374 #
straight-curve $-1 -60.651264992217776 -25.130654612043873 0 0 0 -1 I I #
edge $-1 $317 -25.130654612043873 $321 25.130654612043873 $315 $375 forward 7 unknown #
straight-curve $-1 0 -25.130654612043873 -10.252742606424906 -1 0 0 I I #
vertex $-1 $228 $376 #
straight-curve $-1 0 25.130654612043873 -10.252742606424906 1 0 0 I I #
point $-1 60.651264992217776 25.130654612043873 -10.252742606424906 #
point $-1 60.651264992217776 -25.130654612043873 -10.252742606424906 #
straight-curve $-1 -60.651264992217776 0 10.252742606424906 0 -1 0 I I #
point $-1 -60.651264992217776 25.130654612043873 10.252742606424906 #
point $-1 -60.651264992217776 -25.130654612043873 10.252742606424906 #
straight-curve $-1 60.651264992217776 -25.130654612043873 0 0 0 -1 I I #
straight-curve $-1 60.651264992217776 25.130654612043873 0 0 0 -1 I I #
plane-surface $-1 -60.651264992217776 0 0 1 0 0 0 0 -1 forward_v I I I I #
coedge $-1 $333 $342 $337 $377 forward $246 $-1 #
coedge $-1 $249 $248 $378 $379 forward $96 $-1 #
coedge $-1 $378 $331 $250 $334 reversed $246 $-1 #
edge $-1 $335 -60.651264992217776 $338 60.651264992217776 $333 $380 forward 7 unknown #
vertex $-1 $379 $381 #
straight-curve $-1 60.651264992217776 0 -10.252742606424906 0 -1 0 I I #
coedge $-1 $258 $252 $331 $377 reversed $259 $-1 #
vertex $-1 $253 $382 #
straight-curve $-1 -60.651264992217776 0 -10.252742606424906 0 1 0 I I #
point $-1 -60.651264992217776 -25.130654612043873 -10.252742606424906 #
point $-1 60.651264992217776 -25.130654612043873 -10.252742606424906 #
coedge $-1 $331 $378 $261 $343 reversed $246 $-1 #
edge $-1 $344 -60.651264992217776 $346 60.651264992217776 $342 $383 forward 7 unknown #
vertex $-1 $262 $384 #
straight-curve $-1 -60.651264992217776 -30.824216885521118 -5.203125286224509 0 -1 0 I I #
vertex $-1 $263 $385 #
straight-curve $-1 60.651264992217776 -30.824216885521118 -5.203125286224509 0 1 0 I I #
coedge $-1 $277 $276 $269 $349 forward $266 $-1 #
edge $-1 $350 21.103496484884776 $353 31.119180851877282 $348 $386 forward 7 unknown #
vertex $-1 $281 $387 #
straight-curve $-1 -82.313914068852085 22.952193950019844 10.252742606424906 -1 0 0 I I #
edge $-1 $353 -13.639014767004786 $278 -4.9873435990253281 $277 $388 forward 7 unknown #
vertex $-1 $352 $389 #
straight-curve $-1 -60.651264992217776 22.952193950019844 0.23705823943240034 0.51503806187062418 0 0.85716730853699208 I I #
point $-1 -54.633234890850332 22.952193950019844 10.252742606424906 #
point $-1 -60.651264992217776 14.300522782040385 0.23705823943240034 #
straight-curve $-1 -60.651264992217776 0 10.252742606424906 0 -1 0 I I #
vertex $-1 $284 $390 #
point $-1 -53.669029543142678 18.626358366030114 4.6074989169089582 #
edge $-1 $361 76.581317232164238 $364 84.609121068491675 $289 $391 forward 7 unknown #
vertex $-1 $303 $392 #
straight-curve $-1 27.33216954695898 -13.743530065089381 10.252742606424903 1 0 0 I I #
edge $-1 $364 -8.7787607000835379 $300 -1.1507780299281469 $299 $393 forward 7 unknown #
vertex $-1 $363 $394 #
straight-curve $-1 -28.06378841047254 -13.743530065089381 84.953066274487966 -0.7313536940579346 0 0.68199836817093118 I I #
point $-1 52.042499539279007 -13.743530065089381 10.252742606424903 #
point $-1 60.651264992217776 -6.1155473949339898 2.2249387700974665 #
straight-curve $-1 60.651264992217776 0 10.252742606424906 0 1 0 I I #
vertex $-1 $306 $395 #
point $-1 56.378941511922555 -11.564106445044985 4.8069408517544669 #
vertex $-1 $310 $396 #
point $-1 56.378941511922555 -8.2949710149783904 4.8069408517544669 #
straight-curve $-1 -60.651264992217776 25.130654612043873 0 0 0 -1 I I #
point $-1 -60.651264992217776 -25.130654612043873 -10.252742606424906 #
straight-curve $-1 -60.651264992217776 0 -10.252742606424906 0 1 0 I I #
point $-1 -60.651264992217776 25.130654612043873 -10.252742606424906 #
edge $-1 $344 -2.5248086601001987 $338 2.5248086601001987 $337 $397 forward 7 unknown #
coedge $-1 $342 $333 $332 $379 reversed $246 $-1 #
edge $-1 $346 -2.5248086601001987 $335 2.5248086601001987 $332 $398 forward 7 unknown #
straight-curve $-1 0 -36.517779158998366 -10.252742606424906 -1 0 0 I I #
point $-1 60.651264992217776 -36.517779158998366 -10.252742606424906 #
point $-1 -60.651264992217776 -36.517779158998366 -10.252742606424906 #
straight-curve $-1 0 -36.517779158998366 -5.203125286224509 1 0 0 I I #
point $-1 -60.651264992217776 -36.517779158998366 -5.203125286224509 #
point $-1 60.651264992217776 -36.517779158998366 -5.203125286224509 #
straight-curve $-1 -60.651264992217776 22.952193950019844 31.356239091309682 0 0 -1 I I #
point $-1 -60.651264992217776 22.952193950019844 10.252742606424906 #
straight-curve $-1 -60.651264992217776 9.3131791830150572 0.2370582394323999 0 -1 0 I I #
point $-1 -60.651264992217776 22.952193950019844 0.23705823943240034 #
point $-1 -53.155835673143123 18.626358366030114 2.549190861297534 #
straight-curve $-1 60.651264992217776 -13.743530065089381 86.834059838589141 0 0 -1 I I #
point $-1 60.651264992217776 -13.743530065089381 10.252742606424906 #
straight-curve $-1 60.651264992217776 -4.9647693650058429 2.2249387700974665 0 1 0 I I #
point $-1 60.651264992217776 -13.743530065089381 2.2249387700974665 #
point $-1 54.965589449693688 -11.564106445044985 4.7575855258674622 #
point $-1 54.965589449693688 -8.2949710149783904 4.7575855258674622 #
straight-curve $-1 -60.651264992217776 -36.517779158998366 -7.7279339463247076 0 0 -1 I I #
straight-curve $-1 60.651264992217776 -36.517779158998366 -7.7279339463247076 0 0 -1 I I #
End-of-ACIS-data 