500 0 9 0           
7 Unknown 11 ACIS 5.0 NT 24 Fri Mar 26 19:23:45 1999 
-1 9.9999999999999995e-007 1e-010 
body $-1 $9 $-1 $10 #
body $-1 $11 $-1 $12 #
body $-1 $13 $-1 $14 #
body $-1 $15 $-1 $16 #
body $-1 $17 $-1 $18 #
body $-1 $19 $-1 $20 #
body $-1 $21 $-1 $22 #
body $-1 $23 $-1 $24 #
body $-1 $25 $-1 $26 #
lump $-1 $-1 $27 $0 #
transform $-1 1 0 0 0 1 0 0 0 1 76.79799798577838 48.697482319086589 20.369508733341494 1 rotate no_reflect no_shear #
lump $-1 $-1 $28 $1 #
transform $-1 1 0 0 0 1 0 0 0 1 76.79799798577838 7.637903720899816 6.3777174760942099 1 rotate no_reflect no_shear #
lump $-1 $-1 $29 $2 #
transform $-1 1 0 0 0 1 0 0 0 1 76.79799798577838 88.617283492656924 37.078946158070821 1 rotate no_reflect no_shear #
lump $-1 $-1 $30 $3 #
transform $-1 0.68199835119979291 0 0.73135370988377701 0 1 0 -0.73135370988377701 0 0.68199835119979291 -112.33300147709171 27.92025359183927 135.52477075544425 1 rotate no_reflect no_shear #
lump $-1 $-1 $31 $4 #
transform $-1 0.68199835119979291 0 0.73135370988377701 0 -1 0 0.73135370988377701 0 -0.68199835119979291 11.647802554169491 27.92025359183927 29.2273747400967 1 rotate no_reflect no_shear #
lump $-1 $-1 $32 $5 #
transform $-1 0.68199835119979291 0 0.73135370988377701 0 1 0 -0.73135370988377701 0 0.68199835119979291 -112.33300147709171 67.195156197101028 135.52477075544425 1 rotate no_reflect no_shear #
lump $-1 $-1 $33 $6 #
transform $-1 0.68199835119979291 0 0.73135370988377701 0 -1 0 0.73135370988377701 0 -0.68199835119979291 11.647802554169491 67.195156197101028 29.2273747400967 1 rotate no_reflect no_shear #
lump $-1 $-1 $34 $7 #
transform $-1 0.5877852410284794 0 -0.80901700255871778 0 1 0 0.80901700255871778 0 0.5877852410284794 187.57630872433566 27.803939035137191 238.88312597379257 1 rotate no_reflect no_shear #
lump $-1 $-1 $35 $8 #
transform $-1 0.5877852410284794 0 -0.80901700255871778 0 -1 0 -0.80901700255871778 0 -0.5877852410284794 145.18554226609137 27.803939035137194 30.757157231714771 1 rotate no_reflect no_shear #
shell $-1 $-1 $-1 $36 $-1 $9 #
shell $-1 $-1 $-1 $37 $-1 $11 #
shell $-1 $-1 $-1 $38 $-1 $13 #
shell $-1 $-1 $-1 $39 $-1 $15 #
shell $-1 $-1 $-1 $40 $-1 $17 #
shell $-1 $-1 $-1 $41 $-1 $19 #
shell $-1 $-1 $-1 $42 $-1 $21 #
shell $-1 $-1 $-1 $43 $-1 $23 #
shell $-1 $-1 $-1 $44 $-1 $25 #
face $-1 $45 $46 $27 $-1 $47 forward single #
face $-1 $48 $49 $28 $-1 $50 forward single #
face $-1 $51 $52 $29 $-1 $53 forward single #
face $-1 $54 $55 $30 $-1 $56 forward single #
face $-1 $57 $58 $31 $-1 $59 forward single #
face $-1 $60 $61 $32 $-1 $62 forward single #
face $-1 $63 $64 $33 $-1 $65 forward single #
face $-1 $66 $67 $34 $-1 $68 forward single #
face $-1 $69 $70 $35 $-1 $71 forward single #
face $-1 $72 $73 $27 $-1 $74 reversed single #
loop $-1 $-1 $75 $36 #
plane-surface $-1 0 0 20.369508733341494 0 0 1 1 0 0 forward_v I I I I #
face $-1 $76 $77 $28 $-1 $78 reversed single #
loop $-1 $-1 $79 $37 #
plane-surface $-1 0 0 2.4738444167709122 0 0 1 1 0 0 forward_v I I I I #
face $-1 $80 $81 $29 $-1 $82 reversed single #
loop $-1 $-1 $83 $38 #
plane-surface $-1 0 0 3.6600713086121601 0 0 1 1 0 0 forward_v I I I I #
face $-1 $84 $85 $30 $-1 $86 reversed single #
loop $-1 $-1 $87 $39 #
plane-surface $-1 0 0 153.59599597155676 0 0 1 1 0 0 forward_v I I I I #
face $-1 $88 $89 $31 $-1 $90 forward single #
loop $-1 $91 $92 $40 #
cone-surface $-1 0 0 -5.4112369151890611 0 0 1 2.5 0 0 1 I I 0 1 2.5 forward I I I I #
face $-1 $93 $94 $32 $-1 $95 reversed single #
loop $-1 $-1 $96 $41 #
plane-surface $-1 0 0 153.59599597155676 0 0 1 1 0 0 forward_v I I I I #
face $-1 $97 $98 $33 $-1 $99 forward single #
loop $-1 $100 $101 $42 #
cone-surface $-1 0 0 -5.4112369151890611 0 0 1 2.5 0 0 1 I I 0 1 2.5 forward I I I I #
face $-1 $102 $103 $34 $-1 $104 reversed single #
loop $-1 $-1 $105 $43 #
plane-surface $-1 0 0 153.59599597155676 0 0 1 1 0 0 forward_v I I I I #
face $-1 $106 $107 $35 $-1 $108 forward single #
loop $-1 $109 $110 $44 #
cone-surface $-1 0 0 -2.0161137730033261 0 0 1 2 0 0 1 I I 0 1 2 forward I I I I #
face $-1 $111 $112 $27 $-1 $113 reversed single #
loop $-1 $-1 $114 $45 #
plane-surface $-1 0 0 -20.369508733341494 0 0 1 1 0 0 forward_v I I I I #
coedge $-1 $115 $116 $117 $118 forward $46 $-1 #
face $-1 $119 $120 $28 $-1 $121 reversed single #
loop $-1 $-1 $122 $48 #
plane-surface $-1 0 0 -2.4738444167709122 0 0 1 1 0 0 forward_v I I I I #
coedge $-1 $123 $124 $125 $126 forward $49 $-1 #
face $-1 $127 $128 $29 $-1 $129 reversed single #
loop $-1 $-1 $130 $51 #
plane-surface $-1 0 0 -3.6600713086121601 0 0 1 1 0 0 forward_v I I I I #
coedge $-1 $131 $132 $133 $134 forward $52 $-1 #
face $-1 $135 $136 $30 $-1 $137 reversed single #
loop $-1 $-1 $138 $54 #
plane-surface $-1 0 0 -153.59599597155676 0 0 1 1 0 0 forward_v I I I I #
coedge $-1 $139 $140 $141 $142 forward $55 $-1 #
face $-1 $-1 $143 $31 $-1 $144 forward single #
loop $-1 $-1 $145 $57 #
plane-surface $-1 0 0 -9.5724738303781223 0 0 -1 -1 0 0 forward_v I I I I #
loop $-1 $-1 $146 $40 #
coedge $-1 $92 $92 $145 $147 reversed $58 $-1 #
face $-1 $148 $149 $32 $-1 $150 reversed single #
loop $-1 $-1 $151 $60 #
plane-surface $-1 0 0 -153.59599597155676 0 0 1 1 0 0 forward_v I I I I #
coedge $-1 $152 $153 $154 $155 forward $61 $-1 #
face $-1 $-1 $156 $33 $-1 $157 forward single #
loop $-1 $-1 $158 $63 #
plane-surface $-1 0 0 -9.5724738303781223 0 0 -1 -1 0 0 forward_v I I I I #
loop $-1 $-1 $159 $42 #
coedge $-1 $101 $101 $158 $160 reversed $64 $-1 #
face $-1 $161 $162 $34 $-1 $163 reversed single #
loop $-1 $-1 $164 $66 #
plane-surface $-1 0 0 -153.59599597155676 0 0 1 1 0 0 forward_v I I I I #
coedge $-1 $165 $166 $167 $168 forward $67 $-1 #
face $-1 $-1 $169 $35 $-1 $170 forward single #
loop $-1 $-1 $171 $69 #
plane-surface $-1 0 0 -3.0322275460066521 0 0 -1 -1 0 0 forward_v I I I I #
loop $-1 $-1 $172 $44 #
coedge $-1 $110 $110 $171 $173 reversed $70 $-1 #
face $-1 $174 $175 $27 $-1 $176 reversed single #
loop $-1 $-1 $177 $72 #
plane-surface $-1 0 -48.697482319086589 0 0 1 0 0 0 1 forward_v I I I I #
coedge $-1 $178 $179 $180 $181 forward $73 $-1 #
coedge $-1 $182 $75 $183 $184 forward $46 $-1 #
coedge $-1 $75 $182 $185 $186 forward $46 $-1 #
coedge $-1 $187 $188 $75 $118 reversed $189 $-1 #
edge $-1 $190 -48.697482319086589 $191 48.697482319086589 $117 $192 forward 7 unknown #
face $-1 $193 $194 $28 $-1 $195 reversed single #
loop $-1 $-1 $196 $76 #
plane-surface $-1 0 -7.637903720899816 0 0 1 0 0 0 1 forward_v I I I I #
coedge $-1 $197 $198 $199 $200 forward $77 $-1 #
coedge $-1 $201 $79 $202 $203 forward $49 $-1 #
coedge $-1 $79 $201 $204 $205 forward $49 $-1 #
coedge $-1 $206 $207 $79 $126 reversed $208 $-1 #
edge $-1 $209 -7.637903720899816 $210 7.637903720899816 $125 $211 forward 7 unknown #
face $-1 $212 $213 $29 $-1 $214 reversed single #
loop $-1 $-1 $215 $80 #
plane-surface $-1 0 -8.7776811455162544 0 0 1 0 0 0 1 forward_v I I I I #
coedge $-1 $216 $217 $218 $219 forward $81 $-1 #
coedge $-1 $220 $83 $221 $222 forward $52 $-1 #
coedge $-1 $83 $220 $223 $224 forward $52 $-1 #
coedge $-1 $225 $226 $83 $134 reversed $227 $-1 #
edge $-1 $228 -8.7776811455162544 $229 8.7776811455162544 $133 $230 forward 7 unknown #
face $-1 $231 $232 $30 $-1 $233 reversed single #
loop $-1 $-1 $234 $84 #
plane-surface $-1 0 -5.2574952164121296 0 0 1 0 0 0 1 forward_v I I I I #
coedge $-1 $235 $236 $237 $238 forward $85 $-1 #
coedge $-1 $239 $87 $240 $241 forward $55 $-1 #
coedge $-1 $87 $239 $242 $243 forward $55 $-1 #
coedge $-1 $244 $245 $87 $142 reversed $246 $-1 #
edge $-1 $247 -5.2574952164121296 $248 5.2574952164121296 $141 $249 forward 7 unknown #
loop $-1 $250 $251 $88 #
cone-surface $-1 0 0 0 0 0 1 1.25 0 0 1 I I -0.70710678118654746 0.70710678118654746 1.25 forward I I I I #
coedge $-1 $145 $145 $92 $147 forward $89 $-1 #
coedge $-1 $146 $146 $251 $252 forward $91 $-1 #
edge $-1 $253 0 $253 6.2831853071796004 $145 $254 forward 7 unknown #
face $-1 $255 $256 $32 $-1 $257 reversed single #
loop $-1 $-1 $258 $93 #
plane-surface $-1 0 -5.2574952164121296 0 0 1 0 0 0 1 forward_v I I I I #
coedge $-1 $259 $260 $261 $262 forward $94 $-1 #
coedge $-1 $263 $96 $264 $265 forward $61 $-1 #
coedge $-1 $96 $263 $266 $267 forward $61 $-1 #
coedge $-1 $268 $269 $96 $155 reversed $270 $-1 #
edge $-1 $271 -5.2574952164121296 $272 5.2574952164121296 $154 $273 forward 7 unknown #
loop $-1 $274 $275 $97 #
cone-surface $-1 0 0 0 0 0 1 1.25 0 0 1 I I -0.70710678118654746 0.70710678118654746 1.25 forward I I I I #
coedge $-1 $158 $158 $101 $160 forward $98 $-1 #
coedge $-1 $159 $159 $275 $276 forward $100 $-1 #
edge $-1 $277 0 $277 6.2831853071796004 $158 $278 forward 7 unknown #
face $-1 $279 $280 $34 $-1 $281 reversed single #
loop $-1 $-1 $282 $102 #
plane-surface $-1 0 -7.7860977128879778 0 0 1 0 0 0 1 forward_v I I I I #
coedge $-1 $283 $284 $285 $286 forward $103 $-1 #
coedge $-1 $287 $105 $288 $289 forward $67 $-1 #
coedge $-1 $105 $287 $290 $291 forward $67 $-1 #
coedge $-1 $292 $293 $105 $168 reversed $294 $-1 #
edge $-1 $295 -7.7860977128879778 $296 7.7860977128879778 $167 $297 forward 7 unknown #
loop $-1 $298 $299 $106 #
cone-surface $-1 0 0 0 0 0 1 1 0 0 1 I I -0.70710678118654746 0.70710678118654746 1 forward I I I I #
coedge $-1 $171 $171 $110 $173 forward $107 $-1 #
coedge $-1 $172 $172 $299 $300 forward $109 $-1 #
edge $-1 $301 0 $301 6.2831853071796004 $171 $302 forward 7 unknown #
face $-1 $303 $304 $27 $-1 $305 reversed single #
loop $-1 $-1 $306 $111 #
plane-surface $-1 -76.79799798577838 0 0 1 0 0 0 0 -1 forward_v I I I I #
coedge $-1 $307 $185 $308 $309 forward $112 $-1 #
coedge $-1 $310 $114 $307 $311 forward $73 $-1 #
coedge $-1 $114 $310 $312 $313 forward $73 $-1 #
coedge $-1 $188 $187 $114 $181 reversed $189 $-1 #
edge $-1 $314 -48.697482319086589 $315 48.697482319086589 $180 $316 forward 7 unknown #
coedge $-1 $116 $115 $317 $318 forward $46 $-1 #
coedge $-1 $319 $320 $115 $184 reversed $304 $-1 #
edge $-1 $191 -76.79799798577838 $321 76.79799798577838 $183 $322 forward 7 unknown #
coedge $-1 $177 $323 $116 $186 reversed $112 $-1 #
edge $-1 $324 -76.79799798577838 $190 76.79799798577838 $185 $325 forward 7 unknown #
coedge $-1 $180 $117 $323 $326 forward $189 $-1 #
coedge $-1 $117 $180 $319 $327 reversed $189 $-1 #
loop $-1 $-1 $187 $303 #
vertex $-1 $118 $328 #
vertex $-1 $118 $329 #
straight-curve $-1 76.79799798577838 0 20.369508733341494 0 1 0 I I #
face $-1 $330 $331 $28 $-1 $332 reversed single #
loop $-1 $-1 $333 $119 #
plane-surface $-1 -76.79799798577838 0 0 1 0 0 0 0 -1 forward_v I I I I #
coedge $-1 $334 $204 $335 $336 forward $120 $-1 #
coedge $-1 $337 $122 $334 $338 forward $77 $-1 #
coedge $-1 $122 $337 $339 $340 forward $77 $-1 #
coedge $-1 $207 $206 $122 $200 reversed $208 $-1 #
edge $-1 $341 -7.637903720899816 $342 7.637903720899816 $199 $343 forward 7 unknown #
coedge $-1 $124 $123 $344 $345 forward $49 $-1 #
coedge $-1 $346 $347 $123 $203 reversed $331 $-1 #
edge $-1 $210 -76.79799798577838 $348 76.79799798577838 $202 $349 forward 7 unknown #
coedge $-1 $196 $350 $124 $205 reversed $120 $-1 #
edge $-1 $351 -76.79799798577838 $209 76.79799798577838 $204 $352 forward 7 unknown #
coedge $-1 $199 $125 $350 $353 forward $208 $-1 #
coedge $-1 $125 $199 $346 $354 reversed $208 $-1 #
loop $-1 $-1 $206 $330 #
vertex $-1 $126 $355 #
vertex $-1 $126 $356 #
straight-curve $-1 76.79799798577838 0 2.4738444167709122 0 1 0 I I #
face $-1 $357 $358 $29 $-1 $359 reversed single #
loop $-1 $-1 $360 $127 #
plane-surface $-1 -76.79799798577838 0 0 1 0 0 0 0 -1 forward_v I I I I #
coedge $-1 $361 $223 $362 $363 forward $128 $-1 #
coedge $-1 $364 $130 $361 $365 forward $81 $-1 #
coedge $-1 $130 $364 $366 $367 forward $81 $-1 #
coedge $-1 $226 $225 $130 $219 reversed $227 $-1 #
edge $-1 $368 -8.7776811455162544 $369 8.7776811455162544 $218 $370 forward 7 unknown #
coedge $-1 $132 $131 $371 $372 forward $52 $-1 #
coedge $-1 $373 $374 $131 $222 reversed $358 $-1 #
edge $-1 $229 -76.79799798577838 $375 76.79799798577838 $221 $376 forward 7 unknown #
coedge $-1 $215 $377 $132 $224 reversed $128 $-1 #
edge $-1 $378 -76.79799798577838 $228 76.79799798577838 $223 $379 forward 7 unknown #
coedge $-1 $218 $133 $377 $380 forward $227 $-1 #
coedge $-1 $133 $218 $373 $381 reversed $227 $-1 #
loop $-1 $-1 $225 $357 #
vertex $-1 $134 $382 #
vertex $-1 $134 $383 #
straight-curve $-1 76.79799798577838 0 3.6600713086121601 0 1 0 I I #
face $-1 $384 $385 $30 $-1 $386 reversed single #
loop $-1 $-1 $387 $135 #
plane-surface $-1 -307.19199194311352 0 0 1 0 0 0 0 -1 forward_v I I I I #
coedge $-1 $388 $242 $389 $390 forward $136 $-1 #
coedge $-1 $391 $138 $388 $392 forward $85 $-1 #
coedge $-1 $138 $391 $393 $394 forward $85 $-1 #
coedge $-1 $245 $244 $138 $238 reversed $246 $-1 #
edge $-1 $395 -5.2574952164121296 $396 5.2574952164121296 $237 $397 forward 7 unknown #
coedge $-1 $140 $139 $398 $399 forward $55 $-1 #
coedge $-1 $400 $401 $139 $241 reversed $385 $-1 #
edge $-1 $248 -307.19199194311352 $402 307.19199194311352 $240 $403 forward 7 unknown #
coedge $-1 $234 $404 $140 $243 reversed $136 $-1 #
edge $-1 $405 -307.19199194311352 $247 307.19199194311352 $242 $406 forward 7 unknown #
coedge $-1 $237 $141 $404 $407 forward $246 $-1 #
coedge $-1 $141 $237 $400 $408 reversed $246 $-1 #
loop $-1 $-1 $244 $384 #
vertex $-1 $142 $409 #
vertex $-1 $142 $410 #
straight-curve $-1 307.19199194311352 0 153.59599597155676 0 1 0 I I #
loop $-1 $-1 $411 $88 #
coedge $-1 $251 $251 $146 $252 reversed $143 $-1 #
edge $-1 $412 0 $412 6.2831853071796004 $251 $413 forward 7 unknown #
vertex $-1 $147 $414 #
ellipse-curve $-1 0 0 -9.5724738303781223 0 0 -1 2.5 0 0 1 I I #
face $-1 $415 $416 $32 $-1 $417 reversed single #
loop $-1 $-1 $418 $148 #
plane-surface $-1 -307.19199194311352 0 0 1 0 0 0 0 -1 forward_v I I I I #
coedge $-1 $419 $266 $420 $421 forward $149 $-1 #
coedge $-1 $422 $151 $419 $423 forward $94 $-1 #
coedge $-1 $151 $422 $424 $425 forward $94 $-1 #
coedge $-1 $269 $268 $151 $262 reversed $270 $-1 #
edge $-1 $426 -5.2574952164121296 $427 5.2574952164121296 $261 $428 forward 7 unknown #
coedge $-1 $153 $152 $429 $430 forward $61 $-1 #
coedge $-1 $431 $432 $152 $265 reversed $416 $-1 #
edge $-1 $272 -307.19199194311352 $433 307.19199194311352 $264 $434 forward 7 unknown #
coedge $-1 $258 $435 $153 $267 reversed $149 $-1 #
edge $-1 $436 -307.19199194311352 $271 307.19199194311352 $266 $437 forward 7 unknown #
coedge $-1 $261 $154 $435 $438 forward $270 $-1 #
coedge $-1 $154 $261 $431 $439 reversed $270 $-1 #
loop $-1 $-1 $268 $415 #
vertex $-1 $155 $440 #
vertex $-1 $155 $441 #
straight-curve $-1 307.19199194311352 0 153.59599597155676 0 1 0 I I #
loop $-1 $-1 $442 $97 #
coedge $-1 $275 $275 $159 $276 reversed $156 $-1 #
edge $-1 $443 0 $443 6.2831853071796004 $275 $444 forward 7 unknown #
vertex $-1 $160 $445 #
ellipse-curve $-1 0 0 -9.5724738303781223 0 0 -1 2.5 0 0 1 I I #
face $-1 $446 $447 $34 $-1 $448 reversed single #
loop $-1 $-1 $449 $161 #
plane-surface $-1 -307.19199194311352 0 0 1 0 0 0 0 -1 forward_v I I I I #
coedge $-1 $450 $290 $451 $452 forward $162 $-1 #
coedge $-1 $453 $164 $450 $454 forward $103 $-1 #
coedge $-1 $164 $453 $455 $456 forward $103 $-1 #
coedge $-1 $293 $292 $164 $286 reversed $294 $-1 #
edge $-1 $457 -7.7860977128879778 $458 7.7860977128879778 $285 $459 forward 7 unknown #
coedge $-1 $166 $165 $460 $461 forward $67 $-1 #
coedge $-1 $462 $463 $165 $289 reversed $447 $-1 #
edge $-1 $296 -307.19199194311352 $464 307.19199194311352 $288 $465 forward 7 unknown #
coedge $-1 $282 $466 $166 $291 reversed $162 $-1 #
edge $-1 $467 -307.19199194311352 $295 307.19199194311352 $290 $468 forward 7 unknown #
coedge $-1 $285 $167 $466 $469 forward $294 $-1 #
coedge $-1 $167 $285 $462 $470 reversed $294 $-1 #
loop $-1 $-1 $292 $446 #
vertex $-1 $168 $471 #
vertex $-1 $168 $472 #
straight-curve $-1 307.19199194311352 0 153.59599597155676 0 1 0 I I #
loop $-1 $-1 $473 $106 #
coedge $-1 $299 $299 $172 $300 reversed $169 $-1 #
edge $-1 $474 0 $474 6.2831853071796004 $299 $475 forward 7 unknown #
vertex $-1 $173 $476 #
ellipse-curve $-1 0 0 -3.0322275460066521 0 0 -1 2 0 0 1 I I #
face $-1 $-1 $189 $27 $-1 $477 reversed single #
loop $-1 $-1 $319 $174 #
plane-surface $-1 0 48.697482319086589 0 0 -1 0 0 0 -1 forward_v I I I I #
coedge $-1 $478 $317 $320 $479 forward $175 $-1 #
coedge $-1 $323 $177 $178 $311 reversed $112 $-1 #
coedge $-1 $317 $478 $177 $309 reversed $175 $-1 #
edge $-1 $324 -20.369508733341494 $480 20.369508733341494 $308 $481 forward 7 unknown #
coedge $-1 $179 $178 $478 $482 forward $73 $-1 #
edge $-1 $315 -76.79799798577838 $480 76.79799798577838 $307 $483 forward 7 unknown #
coedge $-1 $320 $319 $179 $313 reversed $304 $-1 #
edge $-1 $484 -76.79799798577838 $314 76.79799798577838 $312 $485 forward 7 unknown #
vertex $-1 $181 $486 #
vertex $-1 $326 $487 #
straight-curve $-1 76.79799798577838 0 -20.369508733341494 0 -1 0 I I #
coedge $-1 $306 $308 $182 $318 reversed $175 $-1 #
edge $-1 $321 -48.697482319086589 $324 48.697482319086589 $317 $488 forward 7 unknown #
coedge $-1 $312 $183 $188 $327 forward $304 $-1 #
coedge $-1 $183 $312 $306 $479 reversed $304 $-1 #
vertex $-1 $184 $489 #
straight-curve $-1 0 48.697482319086589 20.369508733341494 -1 0 0 I I #
coedge $-1 $185 $307 $187 $326 reversed $112 $-1 #
vertex $-1 $318 $490 #
straight-curve $-1 0 -48.697482319086589 20.369508733341494 1 0 0 I I #
edge $-1 $190 -20.369508733341494 $315 20.369508733341494 $187 $491 forward 7 unknown #
edge $-1 $191 -20.369508733341494 $314 20.369508733341494 $188 $492 forward 7 unknown #
point $-1 76.79799798577838 -48.697482319086589 20.369508733341494 #
point $-1 76.79799798577838 48.697482319086589 20.369508733341494 #
face $-1 $-1 $208 $28 $-1 $493 reversed single #
loop $-1 $-1 $346 $193 #
plane-surface $-1 0 7.637903720899816 0 0 -1 0 0 0 -1 forward_v I I I I #
coedge $-1 $494 $344 $347 $495 forward $194 $-1 #
coedge $-1 $350 $196 $197 $338 reversed $120 $-1 #
coedge $-1 $344 $494 $196 $336 reversed $194 $-1 #
edge $-1 $351 -2.4738444167709122 $496 2.4738444167709122 $335 $497 forward 7 unknown #
coedge $-1 $198 $197 $494 $498 forward $77 $-1 #
edge $-1 $342 -76.79799798577838 $496 76.79799798577838 $334 $499 forward 7 unknown #
coedge $-1 $347 $346 $198 $340 reversed $331 $-1 #
edge $-1 $500 -76.79799798577838 $341 76.79799798577838 $339 $501 forward 7 unknown #
vertex $-1 $200 $502 #
vertex $-1 $353 $503 #
straight-curve $-1 76.79799798577838 0 -2.4738444167709122 0 -1 0 I I #
coedge $-1 $333 $335 $201 $345 reversed $194 $-1 #
edge $-1 $348 -7.637903720899816 $351 7.637903720899816 $344 $504 forward 7 unknown #
coedge $-1 $339 $202 $207 $354 forward $331 $-1 #
coedge $-1 $202 $339 $333 $495 reversed $331 $-1 #
vertex $-1 $203 $505 #
straight-curve $-1 0 7.637903720899816 2.4738444167709122 -1 0 0 I I #
coedge $-1 $204 $334 $206 $353 reversed $120 $-1 #
vertex $-1 $345 $506 #
straight-curve $-1 0 -7.637903720899816 2.4738444167709122 1 0 0 I I #
edge $-1 $209 -2.4738444167709122 $342 2.4738444167709122 $206 $507 forward 7 unknown #
edge $-1 $210 -2.4738444167709122 $341 2.4738444167709122 $207 $508 forward 7 unknown #
point $-1 76.79799798577838 -7.637903720899816 2.4738444167709122 #
point $-1 76.79799798577838 7.637903720899816 2.4738444167709122 #
face $-1 $-1 $227 $29 $-1 $509 reversed single #
loop $-1 $-1 $373 $212 #
plane-surface $-1 0 8.7776811455162544 0 0 -1 0 0 0 -1 forward_v I I I I #
coedge $-1 $510 $371 $374 $511 forward $213 $-1 #
coedge $-1 $377 $215 $216 $365 reversed $128 $-1 #
coedge $-1 $371 $510 $215 $363 reversed $213 $-1 #
edge $-1 $378 -3.6600713086121601 $512 3.6600713086121601 $362 $513 forward 7 unknown #
coedge $-1 $217 $216 $510 $514 forward $81 $-1 #
edge $-1 $369 -76.79799798577838 $512 76.79799798577838 $361 $515 forward 7 unknown #
coedge $-1 $374 $373 $217 $367 reversed $358 $-1 #
edge $-1 $516 -76.79799798577838 $368 76.79799798577838 $366 $517 forward 7 unknown #
vertex $-1 $219 $518 #
vertex $-1 $380 $519 #
straight-curve $-1 76.79799798577838 0 -3.6600713086121601 0 -1 0 I I #
coedge $-1 $360 $362 $220 $372 reversed $213 $-1 #
edge $-1 $375 -8.7776811455162544 $378 8.7776811455162544 $371 $520 forward 7 unknown #
coedge $-1 $366 $221 $226 $381 forward $358 $-1 #
coedge $-1 $221 $366 $360 $511 reversed $358 $-1 #
vertex $-1 $222 $521 #
straight-curve $-1 0 8.7776811455162544 3.6600713086121601 -1 0 0 I I #
coedge $-1 $223 $361 $225 $380 reversed $128 $-1 #
vertex $-1 $372 $522 #
straight-curve $-1 0 -8.7776811455162544 3.6600713086121601 1 0 0 I I #
edge $-1 $228 -3.6600713086121601 $369 3.6600713086121601 $225 $523 forward 7 unknown #
edge $-1 $229 -3.6600713086121601 $368 3.6600713086121601 $226 $524 forward 7 unknown #
point $-1 76.79799798577838 -8.7776811455162544 3.6600713086121601 #
point $-1 76.79799798577838 8.7776811455162544 3.6600713086121601 #
face $-1 $-1 $246 $30 $-1 $525 reversed single #
loop $-1 $-1 $400 $231 #
plane-surface $-1 0 5.2574952164121296 0 0 -1 0 0 0 -1 forward_v I I I I #
coedge $-1 $526 $398 $401 $527 forward $232 $-1 #
coedge $-1 $404 $234 $235 $392 reversed $136 $-1 #
coedge $-1 $398 $526 $234 $390 reversed $232 $-1 #
edge $-1 $405 -153.59599597155676 $528 153.59599597155676 $389 $529 forward 7 unknown #
coedge $-1 $236 $235 $526 $530 forward $85 $-1 #
edge $-1 $396 -307.19199194311352 $528 307.19199194311352 $388 $531 forward 7 unknown #
coedge $-1 $401 $400 $236 $394 reversed $385 $-1 #
edge $-1 $532 -307.19199194311352 $395 307.19199194311352 $393 $533 forward 7 unknown #
vertex $-1 $238 $534 #
vertex $-1 $407 $535 #
straight-curve $-1 307.19199194311352 0 -153.59599597155676 0 -1 0 I I #
coedge $-1 $387 $389 $239 $399 reversed $232 $-1 #
edge $-1 $402 -5.2574952164121296 $405 5.2574952164121296 $398 $536 forward 7 unknown #
coedge $-1 $393 $240 $245 $408 forward $385 $-1 #
coedge $-1 $240 $393 $387 $527 reversed $385 $-1 #
vertex $-1 $241 $537 #
straight-curve $-1 0 5.2574952164121296 153.59599597155676 -1 0 0 I I #
coedge $-1 $242 $388 $244 $407 reversed $136 $-1 #
vertex $-1 $399 $538 #
straight-curve $-1 0 -5.2574952164121296 153.59599597155676 1 0 0 I I #
edge $-1 $247 -153.59599597155676 $396 153.59599597155676 $244 $539 forward 7 unknown #
edge $-1 $248 -153.59599597155676 $395 153.59599597155676 $245 $540 forward 7 unknown #
point $-1 307.19199194311352 -5.2574952164121296 153.59599597155676 #
point $-1 307.19199194311352 5.2574952164121296 153.59599597155676 #
coedge $-1 $411 $411 $-1 $541 reversed $250 $-1 #
vertex $-1 $252 $542 #
ellipse-curve $-1 0 0 -1.25 0 0 -1 2.5 0 0 1 I I #
point $-1 2.5 0 -9.5724738303781223 #
face $-1 $-1 $270 $32 $-1 $543 reversed single #
loop $-1 $-1 $431 $255 #
plane-surface $-1 0 5.2574952164121296 0 0 -1 0 0 0 -1 forward_v I I I I #
coedge $-1 $544 $429 $432 $545 forward $256 $-1 #
coedge $-1 $435 $258 $259 $423 reversed $149 $-1 #
coedge $-1 $429 $544 $258 $421 reversed $256 $-1 #
edge $-1 $436 -153.59599597155676 $546 153.59599597155676 $420 $547 forward 7 unknown #
coedge $-1 $260 $259 $544 $548 forward $94 $-1 #
edge $-1 $427 -307.19199194311352 $546 307.19199194311352 $419 $549 forward 7 unknown #
coedge $-1 $432 $431 $260 $425 reversed $416 $-1 #
edge $-1 $550 -307.19199194311352 $426 307.19199194311352 $424 $551 forward 7 unknown #
vertex $-1 $262 $552 #
vertex $-1 $438 $553 #
straight-curve $-1 307.19199194311352 0 -153.59599597155676 0 -1 0 I I #
coedge $-1 $418 $420 $263 $430 reversed $256 $-1 #
edge $-1 $433 -5.2574952164121296 $436 5.2574952164121296 $429 $554 forward 7 unknown #
coedge $-1 $424 $264 $269 $439 forward $416 $-1 #
coedge $-1 $264 $424 $418 $545 reversed $416 $-1 #
vertex $-1 $265 $555 #
straight-curve $-1 0 5.2574952164121296 153.59599597155676 -1 0 0 I I #
coedge $-1 $266 $419 $268 $438 reversed $149 $-1 #
vertex $-1 $430 $556 #
straight-curve $-1 0 -5.2574952164121296 153.59599597155676 1 0 0 I I #
edge $-1 $271 -153.59599597155676 $427 153.59599597155676 $268 $557 forward 7 unknown #
edge $-1 $272 -153.59599597155676 $426 153.59599597155676 $269 $558 forward 7 unknown #
point $-1 307.19199194311352 -5.2574952164121296 153.59599597155676 #
point $-1 307.19199194311352 5.2574952164121296 153.59599597155676 #
coedge $-1 $442 $442 $-1 $559 reversed $274 $-1 #
vertex $-1 $276 $560 #
ellipse-curve $-1 0 0 -1.25 0 0 -1 2.5 0 0 1 I I #
point $-1 2.5 0 -9.5724738303781223 #
face $-1 $-1 $294 $34 $-1 $561 reversed single #
loop $-1 $-1 $462 $279 #
plane-surface $-1 0 7.7860977128879778 0 0 -1 0 0 0 -1 forward_v I I I I #
coedge $-1 $562 $460 $463 $563 forward $280 $-1 #
coedge $-1 $466 $282 $283 $454 reversed $162 $-1 #
coedge $-1 $460 $562 $282 $452 reversed $280 $-1 #
edge $-1 $467 -153.59599597155676 $564 153.59599597155676 $451 $565 forward 7 unknown #
coedge $-1 $284 $283 $562 $566 forward $103 $-1 #
edge $-1 $458 -307.19199194311352 $564 307.19199194311352 $450 $567 forward 7 unknown #
coedge $-1 $463 $462 $284 $456 reversed $447 $-1 #
edge $-1 $568 -307.19199194311352 $457 307.19199194311352 $455 $569 forward 7 unknown #
vertex $-1 $286 $570 #
vertex $-1 $469 $571 #
straight-curve $-1 307.19199194311352 0 -153.59599597155676 0 -1 0 I I #
coedge $-1 $449 $451 $287 $461 reversed $280 $-1 #
edge $-1 $464 -7.7860977128879778 $467 7.7860977128879778 $460 $572 forward 7 unknown #
coedge $-1 $455 $288 $293 $470 forward $447 $-1 #
coedge $-1 $288 $455 $449 $563 reversed $447 $-1 #
vertex $-1 $289 $573 #
straight-curve $-1 0 7.7860977128879778 153.59599597155676 -1 0 0 I I #
coedge $-1 $290 $450 $292 $469 reversed $162 $-1 #
vertex $-1 $461 $574 #
straight-curve $-1 0 -7.7860977128879778 153.59599597155676 1 0 0 I I #
edge $-1 $295 -153.59599597155676 $458 153.59599597155676 $292 $575 forward 7 unknown #
edge $-1 $296 -153.59599597155676 $457 153.59599597155676 $293 $576 forward 7 unknown #
point $-1 307.19199194311352 -7.7860977128879778 153.59599597155676 #
point $-1 307.19199194311352 7.7860977128879778 153.59599597155676 #
coedge $-1 $473 $473 $-1 $577 reversed $298 $-1 #
vertex $-1 $300 $578 #
ellipse-curve $-1 0 0 -1 0 0 -1 2 0 0 1 I I #
point $-1 2 0 -3.0322275460066521 #
plane-surface $-1 76.79799798577838 0 0 -1 0 0 0 0 1 forward_v I I I I #
coedge $-1 $308 $306 $310 $482 reversed $175 $-1 #
edge $-1 $321 -20.369508733341494 $484 20.369508733341494 $320 $579 forward 7 unknown #
vertex $-1 $482 $580 #
straight-curve $-1 -76.79799798577838 -48.697482319086589 0 0 0 -1 I I #
edge $-1 $480 -48.697482319086589 $484 48.697482319086589 $478 $581 forward 7 unknown #
straight-curve $-1 0 -48.697482319086589 -20.369508733341494 -1 0 0 I I #
vertex $-1 $313 $582 #
straight-curve $-1 0 48.697482319086589 -20.369508733341494 1 0 0 I I #
point $-1 76.79799798577838 48.697482319086589 -20.369508733341494 #
point $-1 76.79799798577838 -48.697482319086589 -20.369508733341494 #
straight-curve $-1 -76.79799798577838 0 20.369508733341494 0 -1 0 I I #
point $-1 -76.79799798577838 48.697482319086589 20.369508733341494 #
point $-1 -76.79799798577838 -48.697482319086589 20.369508733341494 #
straight-curve $-1 76.79799798577838 -48.697482319086589 0 0 0 -1 I I #
straight-curve $-1 76.79799798577838 48.697482319086589 0 0 0 -1 I I #
plane-surface $-1 76.79799798577838 0 0 -1 0 0 0 0 1 forward_v I I I I #
coedge $-1 $335 $333 $337 $498 reversed $194 $-1 #
edge $-1 $348 -2.4738444167709122 $500 2.4738444167709122 $347 $583 forward 7 unknown #
vertex $-1 $498 $584 #
straight-curve $-1 -76.79799798577838 -7.637903720899816 0 0 0 -1 I I #
edge $-1 $496 -7.637903720899816 $500 7.637903720899816 $494 $585 forward 7 unknown #
straight-curve $-1 0 -7.637903720899816 -2.4738444167709122 -1 0 0 I I #
vertex $-1 $340 $586 #
straight-curve $-1 0 7.637903720899816 -2.4738444167709122 1 0 0 I I #
point $-1 76.79799798577838 7.637903720899816 -2.4738444167709122 #
point $-1 76.79799798577838 -7.637903720899816 -2.4738444167709122 #
straight-curve $-1 -76.79799798577838 0 2.4738444167709122 0 -1 0 I I #
point $-1 -76.79799798577838 7.637903720899816 2.4738444167709122 #
point $-1 -76.79799798577838 -7.637903720899816 2.4738444167709122 #
straight-curve $-1 76.79799798577838 -7.637903720899816 0 0 0 -1 I I #
straight-curve $-1 76.79799798577838 7.637903720899816 0 0 0 -1 I I #
plane-surface $-1 76.79799798577838 0 0 -1 0 0 0 0 1 forward_v I I I I #
coedge $-1 $362 $360 $364 $514 reversed $213 $-1 #
edge $-1 $375 -3.6600713086121601 $516 3.6600713086121601 $374 $587 forward 7 unknown #
vertex $-1 $514 $588 #
straight-curve $-1 -76.79799798577838 -8.7776811455162544 0 0 0 -1 I I #
edge $-1 $512 -8.7776811455162544 $516 8.7776811455162544 $510 $589 forward 7 unknown #
straight-curve $-1 0 -8.7776811455162544 -3.6600713086121601 -1 0 0 I I #
vertex $-1 $367 $590 #
straight-curve $-1 0 8.7776811455162544 -3.6600713086121601 1 0 0 I I #
point $-1 76.79799798577838 8.7776811455162544 -3.6600713086121601 #
point $-1 76.79799798577838 -8.7776811455162544 -3.6600713086121601 #
straight-curve $-1 -76.79799798577838 0 3.6600713086121601 0 -1 0 I I #
point $-1 -76.79799798577838 8.7776811455162544 3.6600713086121601 #
point $-1 -76.79799798577838 -8.7776811455162544 3.6600713086121601 #
straight-curve $-1 76.79799798577838 -8.7776811455162544 0 0 0 -1 I I #
straight-curve $-1 76.79799798577838 8.7776811455162544 0 0 0 -1 I I #
plane-surface $-1 307.19199194311352 0 0 -1 0 0 0 0 1 forward_v I I I I #
coedge $-1 $389 $387 $391 $530 reversed $232 $-1 #
edge $-1 $402 -153.59599597155676 $532 153.59599597155676 $401 $591 forward 7 unknown #
vertex $-1 $530 $592 #
straight-curve $-1 -307.19199194311352 -5.2574952164121296 0 0 0 -1 I I #
edge $-1 $528 -5.2574952164121296 $532 5.2574952164121296 $526 $593 forward 7 unknown #
straight-curve $-1 0 -5.2574952164121296 -153.59599597155676 -1 0 0 I I #
vertex $-1 $394 $594 #
straight-curve $-1 0 5.2574952164121296 -153.59599597155676 1 0 0 I I #
point $-1 307.19199194311352 5.2574952164121296 -153.59599597155676 #
point $-1 307.19199194311352 -5.2574952164121296 -153.59599597155676 #
straight-curve $-1 -307.19199194311352 0 153.59599597155676 0 -1 0 I I #
point $-1 -307.19199194311352 5.2574952164121296 153.59599597155676 #
point $-1 -307.19199194311352 -5.2574952164121296 153.59599597155676 #
straight-curve $-1 307.19199194311352 -5.2574952164121296 0 0 0 -1 I I #
straight-curve $-1 307.19199194311352 5.2574952164121296 0 0 0 -1 I I #
edge $-1 $595 1 $595 0 $411 $-1 forward 7 unknown #
point $-1 2.5 0 -1.25 #
plane-surface $-1 307.19199194311352 0 0 -1 0 0 0 0 1 forward_v I I I I #
coedge $-1 $420 $418 $422 $548 reversed $256 $-1 #
edge $-1 $433 -153.59599597155676 $550 153.59599597155676 $432 $596 forward 7 unknown #
vertex $-1 $548 $597 #
straight-curve $-1 -307.19199194311352 -5.2574952164121296 0 0 0 -1 I I #
edge $-1 $546 -5.2574952164121296 $550 5.2574952164121296 $544 $598 forward 7 unknown #
straight-curve $-1 0 -5.2574952164121296 -153.59599597155676 -1 0 0 I I #
vertex $-1 $425 $599 #
straight-curve $-1 0 5.2574952164121296 -153.59599597155676 1 0 0 I I #
point $-1 307.19199194311352 5.2574952164121296 -153.59599597155676 #
point $-1 307.19199194311352 -5.2574952164121296 -153.59599597155676 #
straight-curve $-1 -307.19199194311352 0 153.59599597155676 0 -1 0 I I #
point $-1 -307.19199194311352 5.2574952164121296 153.59599597155676 #
point $-1 -307.19199194311352 -5.2574952164121296 153.59599597155676 #
straight-curve $-1 307.19199194311352 -5.2574952164121296 0 0 0 -1 I I #
straight-curve $-1 307.19199194311352 5.2574952164121296 0 0 0 -1 I I #
edge $-1 $600 1 $600 0 $442 $-1 forward 7 unknown #
point $-1 2.5 0 -1.25 #
plane-surface $-1 307.19199194311352 0 0 -1 0 0 0 0 1 forward_v I I I I #
coedge $-1 $451 $449 $453 $566 reversed $280 $-1 #
edge $-1 $464 -153.59599597155676 $568 153.59599597155676 $463 $601 forward 7 unknown #
vertex $-1 $566 $602 #
straight-curve $-1 -307.19199194311352 -7.7860977128879778 0 0 0 -1 I I #
edge $-1 $564 -7.7860977128879778 $568 7.7860977128879778 $562 $603 forward 7 unknown #
straight-curve $-1 0 -7.7860977128879778 -153.59599597155676 -1 0 0 I I #
vertex $-1 $456 $604 #
straight-curve $-1 0 7.7860977128879778 -153.59599597155676 1 0 0 I I #
point $-1 307.19199194311352 7.7860977128879778 -153.59599597155676 #
point $-1 307.19199194311352 -7.7860977128879778 -153.59599597155676 #
straight-curve $-1 -307.19199194311352 0 153.59599597155676 0 -1 0 I I #
point $-1 -307.19199194311352 7.7860977128879778 153.59599597155676 #
point $-1 -307.19199194311352 -7.7860977128879778 153.59599597155676 #
straight-curve $-1 307.19199194311352 -7.7860977128879778 0 0 0 -1 I I #
straight-curve $-1 307.19199194311352 7.7860977128879778 0 0 0 -1 I I #
edge $-1 $605 1 $605 0 $473 $-1 forward 7 unknown #
point $-1 2 0 -1 #
straight-curve $-1 -76.79799798577838 48.697482319086589 0 0 0 -1 I I #
point $-1 -76.79799798577838 -48.697482319086589 -20.369508733341494 #
straight-curve $-1 -76.79799798577838 0 -20.369508733341494 0 1 0 I I #
point $-1 -76.79799798577838 48.697482319086589 -20.369508733341494 #
straight-curve $-1 -76.79799798577838 7.637903720899816 0 0 0 -1 I I #
point $-1 -76.79799798577838 -7.637903720899816 -2.4738444167709122 #
straight-curve $-1 -76.79799798577838 0 -2.4738444167709122 0 1 0 I I #
point $-1 -76.79799798577838 7.637903720899816 -2.4738444167709122 #
straight-curve $-1 -76.79799798577838 8.7776811455162544 0 0 0 -1 I I #
point $-1 -76.79799798577838 -8.7776811455162544 -3.6600713086121601 #
straight-curve $-1 -76.79799798577838 0 -3.6600713086121601 0 1 0 I I #
point $-1 -76.79799798577838 8.7776811455162544 -3.6600713086121601 #
straight-curve $-1 -307.19199194311352 5.2574952164121296 0 0 0 -1 I I #
point $-1 -307.19199194311352 -5.2574952164121296 -153.59599597155676 #
straight-curve $-1 -307.19199194311352 0 -153.59599597155676 0 1 0 I I #
point $-1 -307.19199194311352 5.2574952164121296 -153.59599597155676 #
vertex $-1 $541 $606 #
straight-curve $-1 -307.19199194311352 5.2574952164121296 0 0 0 -1 I I #
point $-1 -307.19199194311352 -5.2574952164121296 -153.59599597155676 #
straight-curve $-1 -307.19199194311352 0 -153.59599597155676 0 1 0 I I #
point $-1 -307.19199194311352 5.2574952164121296 -153.59599597155676 #
vertex $-1 $559 $607 #
straight-curve $-1 -307.19199194311352 7.7860977128879778 0 0 0 -1 I I #
point $-1 -307.19199194311352 -7.7860977128879778 -153.59599597155676 #
straight-curve $-1 -307.19199194311352 0 -153.59599597155676 0 1 0 I I #
point $-1 -307.19199194311352 7.7860977128879778 -153.59599597155676 #
vertex $-1 $577 $608 #
point $-1 0 0 1.25 #
point $-1 0 0 1.25 #
point $-1 0 0 1 #
End-of-ACIS-data 