500 0 5 0           
7 Unknown 11 ACIS 5.0 NT 24 Thu Mar 25 16:49:47 1999 
-1 9.9999999999999995e-007 1e-010 
body $-1 $5 $-1 $6 #
body $-1 $7 $-1 $8 #
body $-1 $9 $-1 $10 #
body $-1 $11 $-1 $12 #
body $-1 $13 $-1 $14 #
lump $-1 $-1 $15 $0 #
transform $-1 1 0 0 0 1 0 0 0 1 49.001739555040132 33.341580972549544 6.9027563402686116 1 rotate no_reflect no_shear #
lump $-1 $-1 $16 $1 #
transform $-1 1 0 0 0 1 0 0 0 1 49.001739555040132 33.341580972549544 6.9027563402686116 1 rotate no_reflect no_shear #
lump $-1 $-1 $17 $2 #
transform $-1 1 0 0 0 1 0 0 0 1 49.001739555040132 33.341580972549544 6.9027563402686116 1 rotate no_reflect no_shear #
lump $-1 $-1 $18 $3 #
transform $-1 1 0 0 0 1 0 0 0 1 49.001739555040132 33.341580972549544 6.9027563402686116 1 rotate no_reflect no_shear #
lump $-1 $-1 $19 $4 #
transform $-1 1 0 0 0 1 0 0 0 1 49.001739555040132 33.341580972549544 6.9027563402686116 1 rotate no_reflect no_shear #
shell $-1 $-1 $-1 $20 $-1 $5 #
shell $-1 $-1 $-1 $21 $-1 $7 #
shell $-1 $-1 $-1 $22 $-1 $9 #
shell $-1 $-1 $-1 $23 $-1 $11 #
shell $-1 $-1 $-1 $24 $-1 $13 #
face $-1 $25 $26 $15 $-1 $27 forward single #
face $-1 $28 $29 $16 $-1 $30 forward single #
face $-1 $31 $32 $17 $-1 $33 reversed single #
face $-1 $34 $35 $18 $-1 $36 forward single #
face $-1 $37 $38 $19 $-1 $39 forward single #
face $-1 $40 $41 $15 $-1 $42 reversed single #
loop $-1 $-1 $43 $20 #
plane-surface $-1 0 0 6.9027563402686116 0 0 1 1 0 0 forward_v I I I I #
face $-1 $44 $45 $16 $-1 $46 reversed single #
loop $-1 $-1 $47 $21 #
plane-surface $-1 -49.001739555040132 0 0 1 0 0 0 0 -1 forward_v I I I I #
face $-1 $48 $49 $17 $-1 $50 reversed single #
loop $-1 $-1 $51 $22 #
plane-surface $-1 10.209242851755246 47.311228400048826 121.53175593971008 1 0 0 0 -0.6560590369687036 -0.75470957328743171 forward_v I I I I #
face $-1 $52 $53 $18 $-1 $54 forward single #
loop $-1 $55 $56 $23 #
cone-surface $-1 16.978564601383269 31.240071699099822 4.983727834331992 0 -0.6560590369687036 -0.75470957328743171 0.5 0 0 1 I I 0 1 0.5 forward I I I I #
face $-1 $57 $58 $19 $-1 $59 forward single #
loop $-1 $60 $61 $24 #
cone-surface $-1 27.132547225825306 31.240071699099822 4.983727834331992 0 -0.6560590369687036 -0.75470957328743171 0.5 0 0 1 I I 0 1 0.5 forward I I I I #
face $-1 $62 $63 $15 $-1 $64 reversed single #
loop $-1 $-1 $65 $25 #
plane-surface $-1 0 0 -6.9027563402686116 0 0 1 1 0 0 forward_v I I I I #
coedge $-1 $66 $67 $68 $69 forward $26 $-1 #
face $-1 $70 $71 $16 $-1 $72 reversed single #
loop $-1 $-1 $73 $28 #
plane-surface $-1 0 33.341580972549544 0 0 -1 0 0 0 -1 forward_v I I I I #
coedge $-1 $74 $75 $76 $77 forward $29 $-1 #
face $-1 $78 $79 $17 $-1 $80 reversed single #
loop $-1 $-1 $81 $31 #
plane-surface $-1 22.055555913604294 -16.984839724492893 47.567592039857672 0 0.6560590369687036 0.75470957328743171 1 0 0 forward_v I I I I #
coedge $-1 $82 $83 $84 $85 reversed $32 $-1 #
face $-1 $-1 $86 $18 $-1 $87 forward single #
loop $-1 $88 $89 $34 #
cone-surface $-1 16.978564601383269 30.747987377485423 4.4176495891438901 0 -0.6560590369687036 -0.75470957328743171 0.25 0 0 1 I I -0.70710678118654746 0.70710678118654746 0.25 forward I I I I #
loop $-1 $-1 $90 $23 #
coedge $-1 $56 $56 $91 $92 reversed $35 $-1 #
face $-1 $-1 $93 $19 $-1 $94 forward single #
loop $-1 $95 $96 $37 #
cone-surface $-1 27.132547225825306 30.747987377485423 4.4176495891438901 0 -0.6560590369687036 -0.75470957328743171 0.25 0 0 1 I I -0.70710678118654746 0.70710678118654746 0.25 forward I I I I #
loop $-1 $-1 $97 $24 #
coedge $-1 $61 $61 $98 $99 reversed $38 $-1 #
face $-1 $100 $101 $15 $-1 $102 reversed single #
loop $-1 $-1 $103 $40 #
plane-surface $-1 0 -33.341580972549544 0 0 1 0 0 0 1 forward_v I I I I #
coedge $-1 $104 $105 $106 $107 forward $41 $-1 #
coedge $-1 $108 $43 $109 $110 forward $26 $-1 #
coedge $-1 $43 $108 $111 $112 forward $26 $-1 #
coedge $-1 $113 $114 $43 $69 reversed $115 $-1 #
edge $-1 $116 -33.341580972549544 $117 33.341580972549544 $68 $118 forward 7 unknown #
face $-1 $119 $120 $16 $-1 $121 reversed single #
loop $-1 $-1 $76 $44 #
plane-surface $-1 -51.989640622472784 0 3.9027563402686116 0 0 1 1 0 0 forward_v I I I I #
coedge $-1 $122 $123 $74 $124 forward $45 $-1 #
coedge $-1 $125 $47 $73 $124 reversed $29 $-1 #
coedge $-1 $47 $125 $126 $127 reversed $29 $-1 #
coedge $-1 $128 $129 $47 $77 reversed $71 $-1 #
edge $-1 $130 -33.341580972549544 $131 33.341580972549544 $76 $132 forward 7 unknown #
face $-1 $133 $134 $17 $-1 $135 forward single #
loop $-1 $-1 $136 $48 #
plane-surface $-1 33.90186897545334 47.311228400048826 121.53175593971008 -1 0 0 0 0.6560590369687036 0.75470957328743171 forward_v I I I I #
coedge $-1 $137 $138 $139 $140 reversed $49 $-1 #
coedge $-1 $83 $51 $141 $142 reversed $32 $-1 #
coedge $-1 $51 $82 $137 $143 reversed $32 $-1 #
coedge $-1 $139 $144 $51 $85 forward $134 $-1 #
edge $-1 $145 -9.6859667725251306 $146 -6.1390873503701435 $84 $147 forward 7 unknown #
loop $-1 $-1 $91 $52 #
plane-surface $-1 22.055555913604294 -16.984839724492893 47.567592039857672 0 0.6560590369687036 0.75470957328743171 1 0 0 forward_v I I I I #
loop $-1 $-1 $148 $34 #
coedge $-1 $89 $89 $90 $149 reversed $53 $-1 #
coedge $-1 $90 $90 $89 $149 forward $55 $-1 #
coedge $-1 $91 $91 $56 $92 forward $86 $-1 #
edge $-1 $150 3.4961848721090956e-015 $150 6.283185307179604 $91 $151 forward 7 unknown #
loop $-1 $-1 $98 $57 #
plane-surface $-1 22.055555913604294 -16.984839724492893 47.567592039857672 0 0.6560590369687036 0.75470957328743171 1 0 0 forward_v I I I I #
loop $-1 $-1 $152 $37 #
coedge $-1 $96 $96 $97 $153 reversed $58 $-1 #
coedge $-1 $97 $97 $96 $153 forward $60 $-1 #
coedge $-1 $98 $98 $61 $99 forward $93 $-1 #
edge $-1 $154 3.4961848721090956e-015 $154 6.283185307179604 $98 $155 forward 7 unknown #
face $-1 $156 $157 $15 $-1 $158 reversed single #
loop $-1 $-1 $159 $62 #
plane-surface $-1 -49.001739555040132 0 0 1 0 0 0 0 -1 forward_v I I I I #
coedge $-1 $160 $111 $161 $162 forward $63 $-1 #
coedge $-1 $163 $65 $160 $164 forward $41 $-1 #
coedge $-1 $65 $163 $165 $166 forward $41 $-1 #
coedge $-1 $114 $113 $65 $107 reversed $115 $-1 #
edge $-1 $167 -33.341580972549544 $168 33.341580972549544 $106 $169 forward 7 unknown #
coedge $-1 $67 $66 $170 $171 forward $26 $-1 #
coedge $-1 $172 $173 $66 $110 reversed $157 $-1 #
edge $-1 $117 -49.001739555040132 $174 49.001739555040132 $109 $175 forward 7 unknown #
coedge $-1 $103 $176 $67 $112 reversed $63 $-1 #
edge $-1 $177 -49.001739555040132 $116 49.001739555040132 $111 $178 forward 7 unknown #
coedge $-1 $106 $68 $176 $179 forward $115 $-1 #
coedge $-1 $68 $106 $172 $180 reversed $115 $-1 #
loop $-1 $-1 $113 $156 #
vertex $-1 $69 $181 #
vertex $-1 $69 $182 #
straight-curve $-1 49.001739555040132 0 6.9027563402686116 0 1 0 I I #
face $-1 $183 $184 $16 $-1 $185 forward single #
loop $-1 $-1 $186 $70 #
plane-surface $-1 -54.977541689905436 0 5.4027563402686116 1 0 0 0 0 -1 forward_v I I I I #
coedge $-1 $187 $73 $129 $188 reversed $45 $-1 #
coedge $-1 $73 $187 $189 $190 reversed $45 $-1 #
edge $-1 $191 -6.9027563402686116 $131 -3.9027563402686116 $73 $192 forward 7 unknown #
coedge $-1 $75 $74 $193 $194 reversed $29 $-1 #
coedge $-1 $195 $196 $75 $127 forward $197 $-1 #
edge $-1 $130 3.9027563402686116 $198 6.9027563402686116 $126 $199 forward 7 unknown #
coedge $-1 $200 $76 $196 $201 forward $71 $-1 #
coedge $-1 $76 $200 $122 $188 forward $71 $-1 #
vertex $-1 $127 $202 #
vertex $-1 $124 $203 #
straight-curve $-1 -49.001739555040132 0 3.9027563402686116 0 1 0 I I #
face $-1 $-1 $204 $17 $-1 $205 reversed single #
loop $-1 $-1 $84 $78 #
plane-surface $-1 0 0 6.9027563402686116 0 0 1 1 0 0 forward_v I I I I #
coedge $-1 $206 $207 $208 $209 reversed $79 $-1 #
coedge $-1 $210 $81 $83 $143 forward $49 $-1 #
coedge $-1 $81 $210 $206 $211 forward $49 $-1 #
coedge $-1 $208 $84 $81 $140 forward $134 $-1 #
edge $-1 $146 -0.81853510504690163 $212 22.874091018651193 $139 $213 forward 7 unknown #
coedge $-1 $214 $215 $82 $142 forward $204 $-1 #
edge $-1 $216 -56.94637693772718 $145 -53.863121629586431 $141 $217 forward 7 unknown #
edge $-1 $146 61.983500581715063 $216 66.683161945099101 $83 $218 forward 7 unknown #
coedge $-1 $84 $208 $214 $219 forward $134 $-1 #
vertex $-1 $142 $220 #
vertex $-1 $85 $221 #
straight-curve $-1 10.209242851755246 23.655614200024413 6.9027563402686098 0 -1 0 I I #
coedge $-1 $148 $148 $-1 $222 reversed $88 $-1 #
edge $-1 $223 0 $223 6.2831853071796004 $89 $224 forward 7 unknown #
vertex $-1 $92 $225 #
ellipse-curve $-1 16.978564601383269 31.56814126147205 5.3611286861982386 0 0.6560590369687036 0.75470957328743171 0.5 0 0 1 I I #
coedge $-1 $152 $152 $-1 $226 reversed $95 $-1 #
edge $-1 $227 0 $227 6.2831853071796004 $96 $228 forward 7 unknown #
vertex $-1 $99 $229 #
ellipse-curve $-1 27.132547225825306 31.56814126147205 5.3611286861982386 0 0.6560590369687036 0.75470957328743171 0.5 0 0 1 I I #
face $-1 $-1 $115 $15 $-1 $230 reversed single #
loop $-1 $-1 $172 $100 #
plane-surface $-1 0 33.341580972549544 0 0 -1 0 0 0 -1 forward_v I I I I #
coedge $-1 $231 $170 $173 $232 forward $101 $-1 #
coedge $-1 $176 $103 $104 $164 reversed $63 $-1 #
coedge $-1 $170 $231 $103 $162 reversed $101 $-1 #
edge $-1 $177 -6.9027563402686116 $233 6.9027563402686116 $161 $234 forward 7 unknown #
coedge $-1 $105 $104 $231 $235 forward $41 $-1 #
edge $-1 $168 -49.001739555040132 $233 49.001739555040132 $160 $236 forward 7 unknown #
coedge $-1 $173 $172 $105 $166 reversed $157 $-1 #
edge $-1 $237 -49.001739555040132 $167 49.001739555040132 $165 $238 forward 7 unknown #
vertex $-1 $107 $239 #
vertex $-1 $179 $240 #
straight-curve $-1 49.001739555040132 0 -6.9027563402686116 0 -1 0 I I #
coedge $-1 $159 $161 $108 $171 reversed $101 $-1 #
edge $-1 $174 -33.341580972549544 $177 33.341580972549544 $170 $241 forward 7 unknown #
coedge $-1 $165 $109 $114 $180 forward $157 $-1 #
coedge $-1 $109 $165 $159 $232 reversed $157 $-1 #
vertex $-1 $110 $242 #
straight-curve $-1 0 33.341580972549544 6.9027563402686116 -1 0 0 I I #
coedge $-1 $111 $160 $113 $179 reversed $63 $-1 #
vertex $-1 $171 $243 #
straight-curve $-1 0 -33.341580972549544 6.9027563402686116 1 0 0 I I #
edge $-1 $116 -6.9027563402686116 $168 6.9027563402686116 $113 $244 forward 7 unknown #
edge $-1 $117 -6.9027563402686116 $167 6.9027563402686116 $114 $245 forward 7 unknown #
point $-1 49.001739555040132 -33.341580972549544 6.9027563402686116 #
point $-1 49.001739555040132 33.341580972549544 6.9027563402686116 #
face $-1 $-1 $197 $16 $-1 $246 reversed single #
loop $-1 $-1 $193 $119 #
plane-surface $-1 0 0 6.9027563402686116 0 0 1 1 0 0 forward_v I I I I #
coedge $-1 $247 $248 $187 $249 forward $120 $-1 #
coedge $-1 $123 $122 $186 $249 reversed $45 $-1 #
edge $-1 $250 -2.9879010674326523 $131 2.9879010674326523 $122 $251 forward 7 unknown #
coedge $-1 $252 $193 $123 $190 forward $184 $-1 #
edge $-1 $191 49.001739555040132 $253 54.977541689905436 $123 $254 forward 7 unknown #
vertex $-1 $190 $255 #
straight-curve $-1 -49.001739555040132 33.341580972549544 0 0 0 -1 I I #
coedge $-1 $189 $256 $125 $194 forward $184 $-1 #
edge $-1 $198 -33.341580972549544 $191 33.341580972549544 $193 $257 forward 7 unknown #
coedge $-1 $258 $126 $256 $259 reversed $197 $-1 #
coedge $-1 $126 $258 $128 $201 reversed $197 $-1 #
loop $-1 $-1 $126 $183 #
vertex $-1 $127 $260 #
straight-curve $-1 -49.001739555040132 -33.341580972549544 0 0 0 1 I I #
coedge $-1 $129 $128 $247 $261 forward $71 $-1 #
edge $-1 $130 -2.9879010674326523 $262 2.9879010674326523 $196 $263 forward 7 unknown #
point $-1 -49.001739555040132 -33.341580972549544 3.9027563402686116 #
point $-1 -49.001739555040132 33.341580972549544 3.9027563402686116 #
loop $-1 $-1 $141 $133 #
plane-surface $-1 0 33.341580972549544 0 0 -1 0 0 0 -1 forward_v I I I I #
coedge $-1 $207 $136 $138 $211 reversed $79 $-1 #
coedge $-1 $136 $206 $264 $265 reversed $79 $-1 #
coedge $-1 $144 $139 $136 $209 forward $134 $-1 #
edge $-1 $212 6.1390873503701435 $266 9.6859667725251306 $208 $267 forward 7 unknown #
coedge $-1 $138 $137 $215 $268 reversed $49 $-1 #
edge $-1 $269 -66.683161945099101 $212 -61.983500581715063 $206 $270 forward 7 unknown #
vertex $-1 $140 $271 #
straight-curve $-1 11.027777956802147 29.794701550394549 6.902756340268617 1 0 0 I I #
coedge $-1 $264 $141 $144 $219 reversed $204 $-1 #
coedge $-1 $141 $264 $210 $268 forward $204 $-1 #
vertex $-1 $142 $272 #
straight-curve $-1 10.209242851755246 33.341580972549544 60.76587796985504 0 0 1 I I #
straight-curve $-1 10.209242851755246 -16.984839724492893 47.567592039857672 0 0.75470957328743171 -0.6560590369687036 I I #
edge $-1 $266 -33.90186897545334 $145 -10.209242851755246 $214 $273 forward 7 unknown #
point $-1 10.209242851755246 33.341580972549544 6.9027563402686116 #
point $-1 10.209242851755246 29.794701550394556 6.9027563402686098 #
edge $-1 $274 1 $274 0 $148 $-1 forward 7 unknown #
vertex $-1 $149 $275 #
ellipse-curve $-1 16.978564601383269 30.912002136727597 4.606326982465748 0 0.6560590369687036 0.75470957328743171 0.5 0 0 1 I I #
point $-1 17.478564601383269 31.56814126147205 5.3611286861982359 #
edge $-1 $276 1 $276 0 $152 $-1 forward 7 unknown #
vertex $-1 $153 $277 #
ellipse-curve $-1 27.132547225825306 30.912002136727597 4.606326982465748 0 0.6560590369687036 0.75470957328743171 0.5 0 0 1 I I #
point $-1 27.632547225825306 31.56814126147205 5.3611286861982359 #
plane-surface $-1 49.001739555040132 0 0 -1 0 0 0 0 1 forward_v I I I I #
coedge $-1 $161 $159 $163 $235 reversed $101 $-1 #
edge $-1 $174 -6.9027563402686116 $237 6.9027563402686116 $173 $278 forward 7 unknown #
vertex $-1 $235 $279 #
straight-curve $-1 -49.001739555040132 -33.341580972549544 0 0 0 -1 I I #
edge $-1 $233 -33.341580972549544 $237 33.341580972549544 $231 $280 forward 7 unknown #
straight-curve $-1 0 -33.341580972549544 -6.9027563402686116 -1 0 0 I I #
vertex $-1 $166 $281 #
straight-curve $-1 0 33.341580972549544 -6.9027563402686116 1 0 0 I I #
point $-1 49.001739555040132 33.341580972549544 -6.9027563402686116 #
point $-1 49.001739555040132 -33.341580972549544 -6.9027563402686116 #
straight-curve $-1 -49.001739555040132 0 6.9027563402686116 0 -1 0 I I #
point $-1 -49.001739555040132 33.341580972549544 6.9027563402686116 #
point $-1 -49.001739555040132 -33.341580972549544 6.9027563402686116 #
straight-curve $-1 49.001739555040132 -33.341580972549544 0 0 0 -1 I I #
straight-curve $-1 49.001739555040132 33.341580972549544 0 0 0 -1 I I #
plane-surface $-1 0 -33.341580972549544 0 0 1 0 0 0 1 forward_v I I I I #
coedge $-1 $282 $186 $200 $261 reversed $120 $-1 #
coedge $-1 $186 $282 $252 $283 reversed $120 $-1 #
edge $-1 $253 -1.5 $250 1.5 $187 $284 forward 7 unknown #
vertex $-1 $188 $285 #
straight-curve $-1 -51.989640622472784 33.341580972549544 3.9027563402686116 1 0 0 I I #
coedge $-1 $256 $189 $248 $283 forward $184 $-1 #
vertex $-1 $190 $286 #
straight-curve $-1 0 33.341580972549544 6.9027563402686116 -1 0 0 I I #
point $-1 -49.001739555040132 33.341580972549544 6.9027563402686116 #
coedge $-1 $193 $252 $195 $259 forward $184 $-1 #
straight-curve $-1 -49.001739555040132 0 6.9027563402686116 0 1 0 I I #
coedge $-1 $196 $195 $282 $287 forward $197 $-1 #
edge $-1 $288 -54.977541689905436 $198 -49.001739555040132 $195 $289 forward 7 unknown #
point $-1 -49.001739555040132 -33.341580972549544 6.9027563402686116 #
edge $-1 $262 -33.341580972549544 $250 33.341580972549544 $247 $290 forward 7 unknown #
vertex $-1 $261 $291 #
straight-curve $-1 -51.989640622472784 -33.341580972549544 3.9027563402686116 -1 0 0 I I #
coedge $-1 $215 $214 $207 $265 forward $204 $-1 #
edge $-1 $266 53.863121629586431 $269 56.94637693772718 $264 $292 forward 7 unknown #
vertex $-1 $219 $293 #
straight-curve $-1 33.90186897545334 23.655614200024413 6.9027563402686098 0 1 0 I I #
edge $-1 $269 -22.874091018651193 $216 0.81853510504690163 $215 $294 forward 7 unknown #
vertex $-1 $268 $295 #
straight-curve $-1 33.90186897545334 -16.984839724492893 47.567592039857672 0 -0.75470957328743171 0.6560590369687036 I I #
point $-1 33.90186897545334 29.794701550394556 6.9027563402686098 #
point $-1 10.209242851755246 33.341580972549544 3.8195010321278602 #
straight-curve $-1 0 33.341580972549544 6.9027563402686116 -1 0 0 I I #
vertex $-1 $222 $296 #
point $-1 17.478564601383269 30.912002136727597 4.606326982465748 #
vertex $-1 $226 $297 #
point $-1 27.632547225825306 30.912002136727597 4.606326982465748 #
straight-curve $-1 -49.001739555040132 33.341580972549544 0 0 0 -1 I I #
point $-1 -49.001739555040132 -33.341580972549544 -6.9027563402686116 #
straight-curve $-1 -49.001739555040132 0 -6.9027563402686116 0 1 0 I I #
point $-1 -49.001739555040132 33.341580972549544 -6.9027563402686116 #
coedge $-1 $248 $247 $258 $287 reversed $120 $-1 #
edge $-1 $253 -33.341580972549544 $288 33.341580972549544 $248 $298 forward 7 unknown #
straight-curve $-1 -54.977541689905436 33.341580972549544 5.4027563402686116 0 0 -1 I I #
point $-1 -54.977541689905436 33.341580972549544 3.9027563402686116 #
point $-1 -54.977541689905436 33.341580972549544 6.9027563402686116 #
edge $-1 $288 -1.5 $262 1.5 $282 $299 forward 7 unknown #
vertex $-1 $283 $300 #
straight-curve $-1 0 -33.341580972549544 6.9027563402686116 1 0 0 I I #
straight-curve $-1 -54.977541689905436 0 3.9027563402686116 0 1 0 I I #
point $-1 -54.977541689905436 -33.341580972549544 3.9027563402686116 #
straight-curve $-1 33.90186897545334 33.341580972549544 60.76587796985504 0 0 -1 I I #
point $-1 33.90186897545334 33.341580972549544 6.9027563402686116 #
straight-curve $-1 11.027777956802147 33.341580972549551 3.8195010321278602 -1 0 0 I I #
point $-1 33.90186897545334 33.341580972549544 3.8195010321278602 #
point $-1 16.978564601383269 30.583972618243248 4.2289721958220321 #
point $-1 27.132547225825306 30.583972618243248 4.2289721958220321 #
straight-curve $-1 -54.977541689905436 0 6.9027563402686116 0 -1 0 I I #
straight-curve $-1 -54.977541689905436 -33.341580972549544 5.4027563402686116 0 0 -1 I I #
point $-1 -54.977541689905436 -33.341580972549544 6.9027563402686116 #
End-of-ACIS-data 