500 0 8 0           
7 Unknown 11 ACIS 5.0 NT 24 Fri Mar 26 16:29:22 1999 
-1 9.9999999999999995e-007 1e-010 
body $-1 $8 $-1 $9 #
body $-1 $10 $-1 $11 #
body $-1 $12 $-1 $13 #
body $-1 $14 $-1 $15 #
body $-1 $16 $-1 $17 #
body $-1 $18 $-1 $19 #
body $-1 $20 $-1 $21 #
body $-1 $22 $-1 $23 #
lump $-1 $-1 $24 $0 #
transform $-1 1 0 0 0 1 0 0 0 1 47.874996185186319 19.380555876278649 8.5486308861543083 1 rotate no_reflect no_shear #
lump $-1 $-1 $25 $1 #
transform $-1 1 0 0 0 1 0 0 0 1 47.874996185186319 19.380555876278649 8.5486308861543083 1 rotate no_reflect no_shear #
lump $-1 $-1 $26 $2 #
transform $-1 1 0 0 0 1 0 0 0 1 47.874996185186319 19.380555876278649 8.5486308861543083 1 rotate no_reflect no_shear #
lump $-1 $-1 $27 $3 #
transform $-1 1 0 0 0 1 0 0 0 1 47.874996185186319 19.380555876278649 8.5486308861543083 1 rotate no_reflect no_shear #
lump $-1 $-1 $28 $4 #
transform $-1 1 0 0 0 1 0 0 0 1 47.874996185186319 19.380555876278649 8.5486308861543083 1 rotate no_reflect no_shear #
lump $-1 $-1 $29 $5 #
transform $-1 1 0 0 0 1 0 0 0 1 47.874996185186319 19.380555876278649 8.5486308861543083 1 rotate no_reflect no_shear #
lump $-1 $-1 $30 $6 #
transform $-1 1 0 0 0 1 0 0 0 1 47.874996185186319 19.380555876278649 8.5486308861543083 1 rotate no_reflect no_shear #
lump $-1 $-1 $31 $7 #
transform $-1 1 0 0 0 1 0 0 0 1 47.874996185186319 19.380555876278649 8.5486308861543083 1 rotate no_reflect no_shear #
shell $-1 $-1 $-1 $32 $-1 $8 #
shell $-1 $-1 $-1 $33 $-1 $10 #
shell $-1 $-1 $-1 $34 $-1 $12 #
shell $-1 $-1 $-1 $35 $-1 $14 #
shell $-1 $-1 $-1 $36 $-1 $16 #
shell $-1 $-1 $-1 $37 $-1 $18 #
shell $-1 $-1 $-1 $38 $-1 $20 #
shell $-1 $-1 $-1 $39 $-1 $22 #
face $-1 $40 $41 $24 $-1 $42 forward single #
face $-1 $43 $44 $25 $-1 $45 forward single #
face $-1 $46 $47 $26 $-1 $48 reversed single #
face $-1 $49 $50 $27 $-1 $51 forward single #
face $-1 $52 $53 $28 $-1 $54 forward single #
face $-1 $55 $56 $29 $-1 $57 reversed single #
face $-1 $58 $59 $30 $-1 $60 forward single #
face $-1 $61 $62 $31 $-1 $63 forward single #
face $-1 $64 $65 $24 $-1 $66 reversed single #
loop $-1 $-1 $67 $32 #
plane-surface $-1 0 0 8.5486308861543083 0 0 1 1 0 0 forward_v I I I I #
face $-1 $68 $69 $25 $-1 $70 reversed single #
loop $-1 $-1 $71 $33 #
plane-surface $-1 -42.64331078495286 0 3.0840034971052752 0 0 1 1 0 0 forward_v I I I I #
face $-1 $72 $73 $26 $-1 $74 reversed single #
loop $-1 $-1 $75 $34 #
plane-surface $-1 -16.807496973143714 77.085959737578619 85.78635508863178 1 0 0 0 -0.82903758062907751 -0.55919289150049634 forward_v I I I I #
face $-1 $76 $77 $27 $-1 $78 forward single #
loop $-1 $79 $80 $35 #
cone-surface $-1 -14.01586036391344 16.00075666826935 3.9690270300985757 0 -0.82903758062907751 -0.55919289150049634 1 0 0 1 I I 0 1 1 forward I I I I #
face $-1 $81 $82 $28 $-1 $83 forward single #
loop $-1 $84 $85 $36 #
cone-surface $-1 -9.8284054500680327 16.00075666826935 3.9690270300985757 0 -0.82903758062907751 -0.55919289150049634 1 0 0 1 I I 0 1 1 forward I I I I #
face $-1 $86 $87 $29 $-1 $88 reversed single #
loop $-1 $-1 $89 $37 #
plane-surface $-1 -16.158814596281299 -75.660990017718717 80.451303253289439 -1 0 0 0 -0.5877852598018023 0.80901698891910034 forward_v I I I I #
face $-1 $90 $91 $30 $-1 $92 forward single #
loop $-1 $93 $94 $38 #
cone-surface $-1 -31.339393730879941 -14.899119243685 4.8672822549600276 0 0.5877852598018023 -0.80901698891910034 1 0 0 1 I I 0 1 1 forward I I I I #
face $-1 $95 $96 $31 $-1 $97 forward single #
loop $-1 $98 $99 $39 #
cone-surface $-1 -22.231046250120755 -14.899119243685 4.8672822549600276 0 0.5877852598018023 -0.80901698891910034 1 0 0 1 I I 0 1 1 forward I I I I #
face $-1 $100 $101 $24 $-1 $102 reversed single #
loop $-1 $-1 $103 $40 #
plane-surface $-1 0 0 -8.5486308861543083 0 0 1 1 0 0 forward_v I I I I #
coedge $-1 $104 $105 $106 $107 forward $41 $-1 #
face $-1 $108 $109 $25 $-1 $110 reversed single #
loop $-1 $-1 $111 $43 #
plane-surface $-1 -42.64331078495286 0 -0.90111374847738546 0 0 1 1 0 0 forward_v I I I I #
coedge $-1 $112 $113 $114 $115 forward $44 $-1 #
face $-1 $116 $117 $26 $-1 $118 reversed single #
loop $-1 $-1 $119 $46 #
plane-surface $-1 -11.92213290699074 -2.2943822824077387 32.243639993892643 0 0.82903758062907751 0.55919289150049634 1 0 0 forward_v I I I I #
coedge $-1 $120 $121 $122 $123 reversed $47 $-1 #
face $-1 $-1 $124 $27 $-1 $125 forward single #
loop $-1 $126 $127 $49 #
cone-surface $-1 -14.01586036391344 15.052665273264523 3.329531329340119 0 -0.82903758062907751 -0.55919289150049634 0.5 0 0 1 I I -0.70710678118654746 0.70710678118654746 0.5 forward I I I I #
loop $-1 $-1 $128 $35 #
coedge $-1 $80 $80 $129 $130 reversed $50 $-1 #
face $-1 $-1 $131 $28 $-1 $132 forward single #
loop $-1 $133 $134 $52 #
cone-surface $-1 -9.8284054500680327 15.052665273264523 3.329531329340119 0 -0.82903758062907751 -0.55919289150049634 0.5 0 0 1 I I -0.70710678118654746 0.70710678118654746 0.5 forward I I I I #
loop $-1 $-1 $135 $36 #
coedge $-1 $85 $85 $136 $137 reversed $53 $-1 #
face $-1 $138 $139 $29 $-1 $140 forward single #
loop $-1 $-1 $141 $55 #
plane-surface $-1 -26.785219990500348 -19.380555876278649 2.9879327367837334 0 -0.5877852598018023 0.80901698891910034 1 0 0 forward_v I I I I #
coedge $-1 $142 $143 $144 $145 reversed $56 $-1 #
face $-1 $-1 $146 $30 $-1 $147 forward single #
loop $-1 $148 $149 $58 #
cone-surface $-1 -31.339393730879941 -13.950612105488641 3.5617742039914813 0 0.5877852598018023 -0.80901698891910034 0.5 0 0 1 I I -0.70710678118654746 0.70710678118654746 0.5 forward I I I I #
loop $-1 $-1 $150 $38 #
coedge $-1 $94 $94 $151 $152 reversed $59 $-1 #
face $-1 $-1 $153 $31 $-1 $154 forward single #
loop $-1 $155 $156 $61 #
cone-surface $-1 -22.231046250120755 -13.950612105488641 3.5617742039914813 0 0.5877852598018023 -0.80901698891910034 0.5 0 0 1 I I -0.70710678118654746 0.70710678118654746 0.5 forward I I I I #
loop $-1 $-1 $157 $39 #
coedge $-1 $99 $99 $158 $159 reversed $62 $-1 #
face $-1 $160 $161 $24 $-1 $162 reversed single #
loop $-1 $-1 $163 $64 #
plane-surface $-1 0 -19.380555876278649 0 0 1 0 0 0 1 forward_v I I I I #
coedge $-1 $164 $165 $166 $167 forward $65 $-1 #
coedge $-1 $168 $67 $169 $170 forward $41 $-1 #
coedge $-1 $67 $168 $171 $172 forward $41 $-1 #
coedge $-1 $173 $174 $67 $107 reversed $175 $-1 #
edge $-1 $176 -19.380555876278649 $177 19.380555876278649 $106 $178 forward 7 unknown #
face $-1 $179 $180 $25 $-1 $181 reversed single #
loop $-1 $-1 $182 $68 #
plane-surface $-1 -37.4116253847194 0 1.0914448743139449 -1 0 0 0 0 1 forward_v I I I I #
coedge $-1 $183 $184 $185 $186 forward $69 $-1 #
coedge $-1 $187 $71 $188 $189 reversed $44 $-1 #
coedge $-1 $71 $187 $190 $191 reversed $44 $-1 #
coedge $-1 $182 $192 $71 $115 reversed $109 $-1 #
edge $-1 $193 -19.380555876278649 $194 19.380555876278649 $114 $195 forward 7 unknown #
face $-1 $196 $197 $26 $-1 $198 forward single #
loop $-1 $-1 $199 $72 #
plane-surface $-1 -7.036768840837766 77.085959737578619 85.78635508863178 -1 0 0 0 0.82903758062907751 0.55919289150049634 forward_v I I I I #
coedge $-1 $200 $201 $202 $203 reversed $73 $-1 #
coedge $-1 $121 $75 $204 $205 reversed $47 $-1 #
coedge $-1 $75 $120 $200 $206 reversed $47 $-1 #
coedge $-1 $202 $207 $75 $123 forward $197 $-1 #
edge $-1 $208 19.162423992510661 $209 24.854877199148707 $122 $210 forward 7 unknown #
loop $-1 $-1 $129 $76 #
plane-surface $-1 -11.92213290699074 -2.2943822824077387 32.243639993892643 0 0.82903758062907751 0.55919289150049634 1 0 0 forward_v I I I I #
loop $-1 $-1 $211 $49 #
coedge $-1 $127 $127 $128 $212 reversed $77 $-1 #
coedge $-1 $128 $128 $127 $212 forward $79 $-1 #
coedge $-1 $129 $129 $80 $130 forward $124 $-1 #
edge $-1 $213 -1.403376178186039e-015 $213 6.2831853071795987 $129 $214 forward 7 unknown #
loop $-1 $-1 $136 $81 #
plane-surface $-1 -11.92213290699074 -2.2943822824077387 32.243639993892643 0 0.82903758062907751 0.55919289150049634 1 0 0 forward_v I I I I #
loop $-1 $-1 $215 $52 #
coedge $-1 $134 $134 $135 $216 reversed $82 $-1 #
coedge $-1 $135 $135 $134 $216 forward $84 $-1 #
coedge $-1 $136 $136 $85 $137 forward $131 $-1 #
edge $-1 $217 -1.403376178186039e-015 $217 6.2831853071795987 $136 $218 forward 7 unknown #
face $-1 $219 $220 $29 $-1 $221 forward single #
loop $-1 $-1 $144 $86 #
plane-surface $-1 0 0 8.5486308861543083 0 0 1 1 0 0 forward_v I I I I #
coedge $-1 $222 $223 $224 $225 reversed $87 $-1 #
coedge $-1 $143 $89 $226 $227 reversed $56 $-1 #
coedge $-1 $89 $142 $222 $228 reversed $56 $-1 #
coedge $-1 $224 $229 $89 $145 forward $139 $-1 #
edge $-1 $230 18.44993913258071 $231 26.103583381177096 $144 $232 forward 7 unknown #
loop $-1 $-1 $151 $90 #
plane-surface $-1 -26.785219990500348 -19.380555876278649 2.9879327367837334 0 -0.5877852598018023 0.80901698891910034 1 0 0 forward_v I I I I #
loop $-1 $-1 $233 $58 #
coedge $-1 $149 $149 $150 $234 reversed $91 $-1 #
coedge $-1 $150 $150 $149 $234 forward $93 $-1 #
coedge $-1 $151 $151 $94 $152 forward $146 $-1 #
edge $-1 $235 -1.3080311733935042e-015 $235 6.2831853071795996 $151 $236 forward 7 unknown #
loop $-1 $-1 $158 $95 #
plane-surface $-1 -26.785219990500348 -19.380555876278649 2.9879327367837334 0 -0.5877852598018023 0.80901698891910034 1 0 0 forward_v I I I I #
loop $-1 $-1 $237 $61 #
coedge $-1 $156 $156 $157 $238 reversed $96 $-1 #
coedge $-1 $157 $157 $156 $238 forward $98 $-1 #
coedge $-1 $158 $158 $99 $159 forward $153 $-1 #
edge $-1 $239 -1.3080311733935042e-015 $239 6.2831853071795996 $158 $240 forward 7 unknown #
face $-1 $241 $242 $24 $-1 $243 reversed single #
loop $-1 $-1 $244 $100 #
plane-surface $-1 -47.874996185186319 0 0 1 0 0 0 0 -1 forward_v I I I I #
coedge $-1 $245 $171 $246 $247 forward $101 $-1 #
coedge $-1 $248 $103 $245 $249 forward $65 $-1 #
coedge $-1 $103 $248 $250 $251 forward $65 $-1 #
coedge $-1 $174 $173 $103 $167 reversed $175 $-1 #
edge $-1 $252 -19.380555876278649 $253 19.380555876278649 $166 $254 forward 7 unknown #
coedge $-1 $105 $104 $255 $256 forward $41 $-1 #
coedge $-1 $257 $258 $104 $170 reversed $242 $-1 #
edge $-1 $177 -47.874996185186319 $259 47.874996185186319 $169 $260 forward 7 unknown #
coedge $-1 $163 $261 $105 $172 reversed $101 $-1 #
edge $-1 $262 -47.874996185186319 $176 47.874996185186319 $171 $263 forward 7 unknown #
coedge $-1 $166 $106 $261 $264 forward $175 $-1 #
coedge $-1 $106 $166 $257 $265 reversed $175 $-1 #
loop $-1 $-1 $173 $241 #
vertex $-1 $107 $266 #
vertex $-1 $107 $267 #
straight-curve $-1 47.874996185186319 0 8.5486308861543083 0 1 0 I I #
face $-1 $268 $269 $25 $-1 $270 reversed single #
loop $-1 $-1 $271 $108 #
plane-surface $-1 0 -19.380555876278649 0 0 1 0 0 0 1 forward_v I I I I #
coedge $-1 $185 $114 $272 $273 reversed $109 $-1 #
coedge $-1 $274 $111 $271 $275 reversed $69 $-1 #
coedge $-1 $111 $274 $276 $277 reversed $69 $-1 #
coedge $-1 $192 $182 $111 $186 reversed $109 $-1 #
edge $-1 $278 -19.380555876278649 $279 19.380555876278649 $185 $280 forward 7 unknown #
coedge $-1 $113 $112 $281 $282 reversed $44 $-1 #
coedge $-1 $283 $284 $112 $189 forward $285 $-1 #
edge $-1 $286 -26.553340792709889 $194 -16.08996999224297 $188 $287 forward 7 unknown #
coedge $-1 $288 $272 $113 $191 forward $180 $-1 #
edge $-1 $193 16.08996999224297 $289 26.553340792709889 $190 $290 forward 7 unknown #
coedge $-1 $114 $185 $283 $291 reversed $109 $-1 #
vertex $-1 $191 $292 #
vertex $-1 $189 $293 #
straight-curve $-1 -37.4116253847194 0 3.0840034971052752 0 1 0 I I #
face $-1 $-1 $294 $26 $-1 $295 reversed single #
loop $-1 $-1 $122 $116 #
plane-surface $-1 0 0 8.5486308861543083 0 0 1 1 0 0 forward_v I I I I #
coedge $-1 $296 $297 $298 $299 reversed $117 $-1 #
coedge $-1 $300 $119 $121 $206 forward $73 $-1 #
coedge $-1 $119 $300 $296 $301 forward $73 $-1 #
coedge $-1 $298 $122 $119 $203 forward $197 $-1 #
edge $-1 $209 -10.846430519648344 $302 -1.0757023873423961 $202 $303 forward 7 unknown #
coedge $-1 $304 $305 $120 $205 forward $294 $-1 #
edge $-1 $306 -42.783955860256654 $208 -34.344546658161583 $204 $307 forward 7 unknown #
edge $-1 $209 28.581344997362429 $306 38.761111752557305 $121 $308 forward 7 unknown #
coedge $-1 $122 $298 $304 $309 forward $197 $-1 #
vertex $-1 $205 $310 #
vertex $-1 $123 $311 #
straight-curve $-1 -16.807496973143714 38.54297986878931 8.5486308861543066 0 -1 0 I I #
coedge $-1 $211 $211 $-1 $312 reversed $126 $-1 #
edge $-1 $313 0 $313 6.2831853071796004 $127 $314 forward 7 unknown #
vertex $-1 $130 $315 #
ellipse-curve $-1 -14.01586036391344 16.534329272959624 4.3289262851067756 0 0.82903758062907751 0.55919289150049634 1 0 0 1 I I #
coedge $-1 $215 $215 $-1 $316 reversed $133 $-1 #
edge $-1 $317 0 $317 6.2831853071796004 $134 $318 forward 7 unknown #
vertex $-1 $137 $319 #
ellipse-curve $-1 -9.8284054500680327 16.534329272959624 4.3289262851067756 0 0.82903758062907751 0.55919289150049634 1 0 0 1 I I #
face $-1 $-1 $320 $29 $-1 $321 reversed single #
loop $-1 $-1 $322 $138 #
plane-surface $-1 -37.4116253847194 0 1.0914448743139449 -1 0 0 0 0 1 forward_v I I I I #
coedge $-1 $323 $141 $143 $228 forward $87 $-1 #
coedge $-1 $141 $323 $322 $324 reversed $87 $-1 #
coedge $-1 $325 $144 $141 $225 forward $139 $-1 #
edge $-1 $231 2.7662046010311254 $326 24.019015389469224 $224 $327 forward 7 unknown #
coedge $-1 $328 $329 $142 $227 forward $320 $-1 #
edge $-1 $330 -37.237718889860986 $230 -31.677020740490413 $226 $331 forward 7 unknown #
edge $-1 $231 -9.4604246306646225 $330 0 $143 $332 forward 7 unknown #
coedge $-1 $144 $325 $328 $333 forward $139 $-1 #
vertex $-1 $227 $334 #
vertex $-1 $145 $335 #
straight-curve $-1 -16.158814596281299 -37.830495008859359 8.5486308861543066 0 1 0 I I #
coedge $-1 $233 $233 $-1 $336 reversed $148 $-1 #
edge $-1 $337 0 $337 6.2831853071796004 $149 $338 forward 7 unknown #
vertex $-1 $152 $339 #
ellipse-curve $-1 -31.339393730879941 -15.553733751980456 5.7682818114690209 0 -0.5877852598018023 0.80901698891910034 1 0 0 1 I I #
coedge $-1 $237 $237 $-1 $340 reversed $155 $-1 #
edge $-1 $341 0 $341 6.2831853071796004 $156 $342 forward 7 unknown #
vertex $-1 $159 $343 #
ellipse-curve $-1 -22.231046250120755 -15.553733751980456 5.7682818114690209 0 -0.5877852598018023 0.80901698891910034 1 0 0 1 I I #
face $-1 $-1 $175 $24 $-1 $344 reversed single #
loop $-1 $-1 $257 $160 #
plane-surface $-1 0 19.380555876278649 0 0 -1 0 0 0 -1 forward_v I I I I #
coedge $-1 $345 $255 $258 $346 forward $161 $-1 #
coedge $-1 $261 $163 $164 $249 reversed $101 $-1 #
coedge $-1 $255 $345 $163 $247 reversed $161 $-1 #
edge $-1 $262 -8.5486308861543083 $347 8.5486308861543083 $246 $348 forward 7 unknown #
coedge $-1 $165 $164 $345 $349 forward $65 $-1 #
edge $-1 $253 -47.874996185186319 $347 47.874996185186319 $245 $350 forward 7 unknown #
coedge $-1 $258 $257 $165 $251 reversed $242 $-1 #
edge $-1 $351 -47.874996185186319 $252 47.874996185186319 $250 $352 forward 7 unknown #
vertex $-1 $167 $353 #
vertex $-1 $264 $354 #
straight-curve $-1 47.874996185186319 0 -8.5486308861543083 0 -1 0 I I #
coedge $-1 $244 $246 $168 $256 reversed $161 $-1 #
edge $-1 $259 -19.380555876278649 $262 19.380555876278649 $255 $355 forward 7 unknown #
coedge $-1 $250 $169 $174 $265 forward $242 $-1 #
coedge $-1 $169 $250 $244 $346 reversed $242 $-1 #
vertex $-1 $170 $356 #
straight-curve $-1 0 19.380555876278649 8.5486308861543083 -1 0 0 I I #
coedge $-1 $171 $245 $173 $264 reversed $101 $-1 #
vertex $-1 $256 $357 #
straight-curve $-1 0 -19.380555876278649 8.5486308861543083 1 0 0 I I #
edge $-1 $176 -8.5486308861543083 $253 8.5486308861543083 $173 $358 forward 7 unknown #
edge $-1 $177 -8.5486308861543083 $252 8.5486308861543083 $174 $359 forward 7 unknown #
point $-1 47.874996185186319 -19.380555876278649 8.5486308861543083 #
point $-1 47.874996185186319 19.380555876278649 8.5486308861543083 #
face $-1 $-1 $285 $25 $-1 $360 reversed single #
loop $-1 $-1 $361 $179 #
plane-surface $-1 -47.874996185186319 0 0 1 0 0 0 0 -1 forward_v I I I I #
coedge $-1 $272 $288 $183 $275 forward $180 $-1 #
coedge $-1 $190 $271 $182 $273 forward $180 $-1 #
edge $-1 $279 -1.4468361856343579 $193 2.5382810599483028 $272 $362 forward 7 unknown #
coedge $-1 $184 $183 $361 $363 reversed $69 $-1 #
edge $-1 $364 -26.553340792709889 $279 -16.08996999224297 $271 $365 forward 7 unknown #
coedge $-1 $284 $283 $184 $277 forward $285 $-1 #
edge $-1 $278 16.08996999224297 $366 26.553340792709889 $276 $367 forward 7 unknown #
vertex $-1 $277 $368 #
vertex $-1 $275 $369 #
straight-curve $-1 -37.4116253847194 0 -0.90111374847738546 0 -1 0 I I #
coedge $-1 $370 $371 $187 $282 forward $269 $-1 #
edge $-1 $289 -19.380555876278649 $286 19.380555876278649 $281 $372 forward 7 unknown #
coedge $-1 $276 $188 $192 $291 forward $285 $-1 #
coedge $-1 $188 $276 $370 $373 reversed $285 $-1 #
loop $-1 $-1 $276 $268 #
vertex $-1 $373 $374 #
straight-curve $-1 -21.32165539247643 19.380555876278649 3.0840034971052752 1 0 0 I I #
coedge $-1 $271 $190 $371 $375 forward $180 $-1 #
vertex $-1 $375 $376 #
straight-curve $-1 -21.32165539247643 -19.380555876278649 3.0840034971052752 -1 0 0 I I #
edge $-1 $194 -2.5382810599483028 $278 1.4468361856343579 $283 $377 forward 7 unknown #
point $-1 -37.4116253847194 -19.380555876278649 3.0840034971052752 #
point $-1 -37.4116253847194 19.380555876278649 3.0840034971052752 #
loop $-1 $-1 $204 $196 #
plane-surface $-1 0 19.380555876278649 0 0 -1 0 0 0 -1 forward_v I I I I #
coedge $-1 $297 $199 $201 $301 reversed $117 $-1 #
coedge $-1 $199 $296 $378 $379 reversed $117 $-1 #
coedge $-1 $207 $202 $199 $299 forward $197 $-1 #
edge $-1 $302 -24.854877199148707 $380 -19.162423992510661 $298 $381 forward 7 unknown #
coedge $-1 $201 $200 $305 $382 reversed $73 $-1 #
edge $-1 $383 -38.761111752557305 $302 -28.581344997362429 $296 $384 forward 7 unknown #
vertex $-1 $203 $385 #
straight-curve $-1 -5.9610664534953699 13.688102669640603 8.5486308861543083 1 0 0 I I #
coedge $-1 $378 $204 $207 $309 reversed $294 $-1 #
coedge $-1 $204 $378 $300 $382 forward $294 $-1 #
vertex $-1 $205 $386 #
straight-curve $-1 -16.807496973143714 19.380555876278649 42.89317754431589 0 0 1 I I #
straight-curve $-1 -16.807496973143714 -2.2943822824077387 32.243639993892643 0 0.55919289150049634 -0.82903758062907751 I I #
edge $-1 $380 7.036768840837766 $208 16.807496973143714 $304 $387 forward 7 unknown #
point $-1 -16.807496973143714 19.380555876278649 8.5486308861543083 #
point $-1 -16.807496973143714 13.688102669640603 8.5486308861543066 #
edge $-1 $388 1 $388 0 $211 $-1 forward 7 unknown #
vertex $-1 $212 $389 #
ellipse-curve $-1 -14.01586036391344 15.467184063579062 3.609127775090367 0 0.82903758062907751 0.55919289150049634 1 0 0 1 I I #
point $-1 -13.01586036391344 16.534329272959635 4.3289262851067845 #
edge $-1 $390 1 $390 0 $215 $-1 forward 7 unknown #
vertex $-1 $216 $391 #
ellipse-curve $-1 -9.8284054500680327 15.467184063579062 3.609127775090367 0 0.82903758062907751 0.55919289150049634 1 0 0 1 I I #
point $-1 -8.8284054500680327 16.534329272959635 4.3289262851067845 #
loop $-1 $-1 $226 $219 #
plane-surface $-1 0 -19.380555876278649 0 0 1 0 0 0 1 forward_v I I I I #
coedge $-1 $392 $393 $223 $324 forward $220 $-1 #
coedge $-1 $223 $222 $329 $394 reversed $87 $-1 #
edge $-1 $326 -2.1781889568383428 $395 7.2822356738262801 $322 $396 forward 7 unknown #
coedge $-1 $229 $224 $393 $397 forward $139 $-1 #
vertex $-1 $225 $398 #
straight-curve $-1 -13.392609995250174 -11.726911627682261 8.5486308861543083 -1 0 0 I I #
coedge $-1 $399 $226 $229 $333 reversed $320 $-1 #
coedge $-1 $226 $399 $323 $394 forward $320 $-1 #
vertex $-1 $227 $400 #
straight-curve $-1 -16.158814596281299 -19.380555876278649 40.225651626644719 0 0 1 I I #
straight-curve $-1 -16.158814596281299 -19.380555876278649 2.9879327367837334 0 -0.80901698891910034 -0.5877852598018023 I I #
edge $-1 $401 -37.4116253847194 $230 -16.158814596281299 $328 $402 forward 7 unknown #
point $-1 -16.158814596281299 -19.380555876278649 8.5486308861543083 #
point $-1 -16.158814596281299 -11.726911627682263 8.5486308861543083 #
edge $-1 $403 1 $403 0 $233 $-1 forward 7 unknown #
vertex $-1 $234 $404 #
ellipse-curve $-1 -31.339393730879941 -14.244504735389542 3.9662826984510313 0 -0.5877852598018023 0.80901698891910034 1 0 0 1 I I #
point $-1 -30.339393730879941 -15.553733751980459 5.7682818114690235 #
edge $-1 $405 1 $405 0 $237 $-1 forward 7 unknown #
vertex $-1 $238 $406 #
ellipse-curve $-1 -22.231046250120755 -14.244504735389542 3.9662826984510313 0 -0.5877852598018023 0.80901698891910034 1 0 0 1 I I #
point $-1 -21.231046250120755 -15.553733751980459 5.7682818114690235 #
plane-surface $-1 47.874996185186319 0 0 -1 0 0 0 0 1 forward_v I I I I #
coedge $-1 $246 $244 $248 $349 reversed $161 $-1 #
edge $-1 $259 -8.5486308861543083 $351 8.5486308861543083 $258 $407 forward 7 unknown #
vertex $-1 $349 $408 #
straight-curve $-1 -47.874996185186319 -19.380555876278649 0 0 0 -1 I I #
edge $-1 $347 -19.380555876278649 $351 19.380555876278649 $345 $409 forward 7 unknown #
straight-curve $-1 0 -19.380555876278649 -8.5486308861543083 -1 0 0 I I #
vertex $-1 $251 $410 #
straight-curve $-1 0 19.380555876278649 -8.5486308861543083 1 0 0 I I #
point $-1 47.874996185186319 19.380555876278649 -8.5486308861543083 #
point $-1 47.874996185186319 -19.380555876278649 -8.5486308861543083 #
straight-curve $-1 -47.874996185186319 0 8.5486308861543083 0 -1 0 I I #
point $-1 -47.874996185186319 19.380555876278649 8.5486308861543083 #
point $-1 -47.874996185186319 -19.380555876278649 8.5486308861543083 #
straight-curve $-1 47.874996185186319 -19.380555876278649 0 0 0 -1 I I #
straight-curve $-1 47.874996185186319 19.380555876278649 0 0 0 -1 I I #
plane-surface $-1 0 19.380555876278649 0 0 -1 0 0 0 -1 forward_v I I I I #
coedge $-1 $371 $370 $274 $363 forward $269 $-1 #
straight-curve $-1 -37.4116253847194 -19.380555876278649 0.54572243715697244 0 0 1 I I #
edge $-1 $366 -19.380555876278649 $364 19.380555876278649 $361 $411 forward 7 unknown #
vertex $-1 $275 $412 #
straight-curve $-1 -21.32165539247643 -19.380555876278649 -0.90111374847738546 1 0 0 I I #
vertex $-1 $277 $413 #
straight-curve $-1 -21.32165539247643 19.380555876278649 -0.90111374847738546 -1 0 0 I I #
point $-1 -37.4116253847194 19.380555876278649 -0.90111374847738546 #
point $-1 -37.4116253847194 -19.380555876278649 -0.90111374847738546 #
coedge $-1 $361 $281 $284 $373 forward $269 $-1 #
coedge $-1 $281 $361 $288 $375 reversed $269 $-1 #
straight-curve $-1 -47.874996185186319 0 3.0840034971052752 0 1 0 I I #
edge $-1 $286 -3.0840034971052752 $366 0.90111374847738546 $284 $414 forward 7 unknown #
point $-1 -47.874996185186319 19.380555876278649 3.0840034971052752 #
edge $-1 $289 -3.0840034971052752 $364 0.90111374847738546 $371 $415 forward 7 unknown #
point $-1 -47.874996185186319 -19.380555876278649 3.0840034971052752 #
straight-curve $-1 -37.4116253847194 19.380555876278649 0.54572243715697244 0 0 -1 I I #
coedge $-1 $305 $304 $297 $379 forward $294 $-1 #
edge $-1 $380 34.344546658161583 $383 42.783955860256654 $378 $416 forward 7 unknown #
vertex $-1 $309 $417 #
straight-curve $-1 -7.036768840837766 38.54297986878931 8.5486308861543066 0 1 0 I I #
edge $-1 $383 1.0757023873423961 $306 10.846430519648344 $305 $418 forward 7 unknown #
vertex $-1 $382 $419 #
straight-curve $-1 -7.036768840837766 -2.2943822824077387 32.243639993892643 0 -0.55919289150049634 0.82903758062907751 I I #
point $-1 -7.036768840837766 13.688102669640603 8.5486308861543066 #
point $-1 -16.807496973143714 19.380555876278649 0.10922168405923571 #
straight-curve $-1 0 19.380555876278649 8.5486308861543083 -1 0 0 I I #
vertex $-1 $312 $420 #
point $-1 -13.01586036391344 15.467184063579062 3.609127775090367 #
vertex $-1 $316 $421 #
point $-1 -8.8284054500680327 15.467184063579062 3.609127775090367 #
coedge $-1 $393 $322 $399 $422 reversed $220 $-1 #
coedge $-1 $322 $392 $325 $397 reversed $220 $-1 #
edge $-1 $395 -24.019015389469224 $330 -2.7662046010311254 $329 $423 forward 7 unknown #
vertex $-1 $324 $424 #
straight-curve $-1 -37.4116253847194 -13.489103498840455 7.2683235242616657 0 -0.80901698891910034 -0.5877852598018023 I I #
edge $-1 $326 -26.103583381177096 $401 -18.44993913258071 $325 $425 forward 7 unknown #
point $-1 -37.4116253847194 -11.726911627682263 8.5486308861543083 #
coedge $-1 $329 $328 $392 $422 forward $320 $-1 #
point $-1 -16.158814596281299 -19.380555876278649 2.9879327367837334 #
vertex $-1 $333 $426 #
straight-curve $-1 0 -19.380555876278649 8.5486308861543083 1 0 0 I I #
vertex $-1 $336 $427 #
point $-1 -30.339393730879941 -14.244504735389542 3.9662826984510313 #
vertex $-1 $340 $428 #
point $-1 -21.231046250120755 -14.244504735389542 3.9662826984510313 #
straight-curve $-1 -47.874996185186319 19.380555876278649 0 0 0 -1 I I #
point $-1 -47.874996185186319 -19.380555876278649 -8.5486308861543083 #
straight-curve $-1 -47.874996185186319 0 -8.5486308861543083 0 1 0 I I #
point $-1 -47.874996185186319 19.380555876278649 -8.5486308861543083 #
straight-curve $-1 -47.874996185186319 0 -0.90111374847738546 0 -1 0 I I #
point $-1 -47.874996185186319 -19.380555876278649 -0.90111374847738546 #
point $-1 -47.874996185186319 19.380555876278649 -0.90111374847738546 #
straight-curve $-1 -47.874996185186319 19.380555876278649 0 0 0 -1 I I #
straight-curve $-1 -47.874996185186319 -19.380555876278649 0 0 0 -1 I I #
straight-curve $-1 -7.036768840837766 19.380555876278649 42.89317754431589 0 0 -1 I I #
point $-1 -7.036768840837766 19.380555876278649 8.5486308861543083 #
straight-curve $-1 -5.9610664534953699 19.380555876278649 0.10922168405923216 -1 0 0 I I #
point $-1 -7.036768840837766 19.380555876278649 0.10922168405923571 #
point $-1 -14.01586036391344 14.638146482949985 3.049934883589871 #
point $-1 -9.8284054500680327 14.638146482949985 3.049934883589871 #
edge $-1 $401 31.677020740490413 $395 37.237718889860986 $399 $429 forward 7 unknown #
straight-curve $-1 -13.392609995250174 -19.380555876278649 2.9879327367837321 1 0 0 I I #
point $-1 -37.4116253847194 -19.380555876278649 2.9879327367837334 #
straight-curve $-1 -37.4116253847194 -37.830495008859359 8.5486308861543066 0 -1 0 I I #
point $-1 -37.4116253847194 -19.380555876278649 8.5486308861543083 #
point $-1 -31.339393730879941 -13.656719475587741 3.1572657095319312 #
point $-1 -22.231046250120755 -13.656719475587741 3.1572657095319312 #
straight-curve $-1 -37.4116253847194 -19.380555876278649 40.225651626644719 0 0 -1 I I #
End-of-ACIS-data 