500 0 7 0           
7 Unknown 11 ACIS 5.0 NT 24 Fri Mar 26 00:57:42 1999 
-1 9.9999999999999995e-007 1e-010 
body $-1 $7 $-1 $8 #
body $-1 $9 $-1 $10 #
body $-1 $11 $-1 $12 #
body $-1 $13 $-1 $14 #
body $-1 $15 $-1 $16 #
body $-1 $17 $-1 $18 #
body $-1 $19 $-1 $20 #
lump $-1 $-1 $21 $0 #
transform $-1 1 0 0 0 1 0 0 0 1 56.577654347361673 23.215883404872322 8.6547129903725359 1 rotate no_reflect no_shear #
lump $-1 $-1 $22 $1 #
transform $-1 1 0 0 0 1 0 0 0 1 56.577654347361673 23.215883404872322 8.6547129903725359 1 rotate no_reflect no_shear #
lump $-1 $-1 $23 $2 #
transform $-1 1 0 0 0 1 0 0 0 1 56.577654347361673 23.215883404872322 8.6547129903725359 1 rotate no_reflect no_shear #
lump $-1 $-1 $24 $3 #
transform $-1 1 0 0 0 1 0 0 0 1 56.577654347361673 23.215883404872322 8.6547129903725359 1 rotate no_reflect no_shear #
lump $-1 $-1 $25 $4 #
transform $-1 1 0 0 0 1 0 0 0 1 56.577654347361673 23.215883404872322 8.6547129903725359 1 rotate no_reflect no_shear #
lump $-1 $-1 $26 $5 #
transform $-1 1 0 0 0 1 0 0 0 1 56.577654347361673 23.215883404872322 8.6547129903725359 1 rotate no_reflect no_shear #
lump $-1 $-1 $27 $6 #
transform $-1 1 0 0 0 1 0 0 0 1 56.577654347361673 23.215883404872322 8.6547129903725359 1 rotate no_reflect no_shear #
shell $-1 $-1 $-1 $28 $-1 $7 #
shell $-1 $-1 $-1 $29 $-1 $9 #
shell $-1 $-1 $-1 $30 $-1 $11 #
shell $-1 $-1 $-1 $31 $-1 $13 #
shell $-1 $-1 $-1 $32 $-1 $15 #
shell $-1 $-1 $-1 $33 $-1 $17 #
shell $-1 $-1 $-1 $34 $-1 $19 #
face $-1 $35 $36 $21 $-1 $37 forward single #
face $-1 $38 $39 $22 $-1 $40 reversed single #
face $-1 $41 $42 $23 $-1 $43 forward single #
face $-1 $44 $45 $24 $-1 $46 forward single #
face $-1 $47 $48 $25 $-1 $49 reversed single #
face $-1 $50 $51 $26 $-1 $52 forward single #
face $-1 $53 $54 $27 $-1 $55 forward single #
face $-1 $56 $57 $21 $-1 $58 reversed single #
loop $-1 $-1 $59 $28 #
plane-surface $-1 0 0 8.6547129903725359 0 0 1 1 0 0 forward_v I I I I #
face $-1 $60 $61 $22 $-1 $62 reversed single #
loop $-1 $-1 $63 $29 #
plane-surface $-1 -153.5706857478902 -15.399934631957585 61.205100507223769 0 -1 0 0.85716730853699208 0 -0.51503806187062418 forward_v I I I I #
face $-1 $64 $65 $23 $-1 $66 forward single #
loop $-1 $67 $68 $30 #
cone-surface $-1 -54.427934541683534 -20.98275518403954 5.5327422776115931 0.85716730853699208 0 -0.51503806187062418 0.25751903093531209 0 0.42858365426849604 1 I I 0 1 0.5 forward I I I I #
face $-1 $69 $70 $24 $-1 $71 forward single #
loop $-1 $72 $73 $31 #
cone-surface $-1 -54.427934541683534 -17.633062852790367 5.5327422776115931 0.85716730853699208 0 -0.51503806187062418 0.25751903093531209 0 0.42858365426849604 1 I I 0 1 0.5 forward I I I I #
face $-1 $74 $75 $25 $-1 $76 reversed single #
loop $-1 $-1 $77 $32 #
plane-surface $-1 59.370491062099461 9.5958680848377824 161.61858492092935 0 1 0 0.71933980857756763 0 0.69465836192734942 forward_v I I I I #
face $-1 $78 $79 $26 $-1 $80 forward single #
loop $-1 $81 $82 $33 #
cone-surface $-1 51.137385389963747 13.487301033419079 3.1637826032027228 -0.71933980857756763 0 -0.69465836192734942 1.0419875428910241 0 -1.0790097128663514 1 I I 0 1 1.5 forward I I I I #
face $-1 $83 $84 $27 $-1 $85 forward single #
loop $-1 $86 $87 $34 #
cone-surface $-1 51.137385389963747 19.324450456291025 3.1637826032027228 -0.71933980857756763 0 -0.69465836192734942 1.0419875428910241 0 -1.0790097128663514 1 I I 0 1 1.5 forward I I I I #
face $-1 $88 $89 $21 $-1 $90 reversed single #
loop $-1 $-1 $91 $35 #
plane-surface $-1 0 0 -8.6547129903725359 0 0 1 1 0 0 forward_v I I I I #
coedge $-1 $92 $93 $94 $95 forward $36 $-1 #
face $-1 $96 $97 $22 $-1 $98 forward single #
loop $-1 $-1 $99 $38 #
plane-surface $-1 -56.577654347361687 -19.307909018414954 2.9258096267212679 -0.85716730853699208 0 0.51503806187062418 0.51503806187062418 0 0.85716730853699208 forward_v I I I I #
coedge $-1 $100 $101 $102 $103 reversed $39 $-1 #
face $-1 $-1 $104 $23 $-1 $105 forward single #
loop $-1 $106 $107 $41 #
cone-surface $-1 -53.785059060280787 -20.98275518403954 5.146463731208625 0.85716730853699208 0 -0.51503806187062418 0.12875951546765604 0 0.21429182713424802 1 I I -0.70710678118654746 0.70710678118654746 0.25 forward I I I I #
loop $-1 $-1 $108 $30 #
coedge $-1 $68 $68 $109 $110 reversed $42 $-1 #
face $-1 $-1 $111 $24 $-1 $112 forward single #
loop $-1 $113 $114 $44 #
cone-surface $-1 -53.785059060280787 -17.633062852790367 5.146463731208625 0.85716730853699208 0 -0.51503806187062418 0.12875951546765604 0 0.21429182713424802 1 I I -0.70710678118654746 0.70710678118654746 0.25 forward I I I I #
loop $-1 $-1 $115 $31 #
coedge $-1 $73 $73 $116 $117 reversed $45 $-1 #
face $-1 $118 $119 $25 $-1 $120 reversed single #
loop $-1 $-1 $121 $47 #
plane-surface $-1 -22.026627033898407 16.405875744855052 83.014303539669271 0.71933980857756763 0 0.69465836192734942 0.69465836192734942 0 -0.71933980857756763 forward_v I I I I #
coedge $-1 $122 $123 $124 $125 reversed $48 $-1 #
face $-1 $-1 $126 $26 $-1 $127 forward single #
loop $-1 $128 $129 $50 #
cone-surface $-1 48.555642172602035 13.487301033419079 0.67062221793795551 -0.71933980857756763 0 -0.69465836192734942 0.52099377144551207 0 -0.53950485643317569 1 I I -0.70710678118654757 0.70710678118654757 0.75 forward I I I I #
loop $-1 $-1 $130 $33 #
coedge $-1 $82 $82 $131 $132 reversed $51 $-1 #
face $-1 $-1 $133 $27 $-1 $134 forward single #
loop $-1 $135 $136 $53 #
cone-surface $-1 48.555642172602035 19.324450456291025 0.67062221793795551 -0.71933980857756763 0 -0.69465836192734942 0.52099377144551207 0 -0.53950485643317569 1 I I -0.70710678118654757 0.70710678118654757 0.75 forward I I I I #
loop $-1 $-1 $137 $34 #
coedge $-1 $87 $87 $138 $139 reversed $54 $-1 #
face $-1 $140 $141 $21 $-1 $142 reversed single #
loop $-1 $-1 $143 $56 #
plane-surface $-1 0 -23.215883404872322 0 0 1 0 0 0 1 forward_v I I I I #
coedge $-1 $144 $145 $146 $147 forward $57 $-1 #
coedge $-1 $148 $59 $149 $150 forward $36 $-1 #
coedge $-1 $59 $148 $151 $152 forward $36 $-1 #
coedge $-1 $153 $154 $59 $95 reversed $155 $-1 #
edge $-1 $156 -23.215883404872322 $157 23.215883404872322 $94 $158 forward 7 unknown #
face $-1 $159 $160 $22 $-1 $161 reversed single #
loop $-1 $-1 $162 $60 #
plane-surface $-1 0 0 8.6547129903725359 0 0 1 1 0 0 forward_v I I I I #
coedge $-1 $163 $164 $165 $166 reversed $61 $-1 #
coedge $-1 $101 $63 $167 $168 reversed $39 $-1 #
coedge $-1 $63 $100 $163 $169 reversed $39 $-1 #
coedge $-1 $165 $170 $63 $103 forward $160 $-1 #
edge $-1 $171 21.94783726323935 $172 27.676740626890592 $102 $173 forward 7 unknown #
loop $-1 $-1 $109 $64 #
plane-surface $-1 -56.577654347361687 -19.307909018414954 2.9258096267212679 -0.85716730853699208 0 0.51503806187062418 0.51503806187062418 0 0.85716730853699208 forward_v I I I I #
loop $-1 $-1 $174 $41 #
coedge $-1 $107 $107 $108 $175 reversed $65 $-1 #
coedge $-1 $108 $108 $107 $175 forward $67 $-1 #
coedge $-1 $109 $109 $68 $110 forward $104 $-1 #
edge $-1 $176 0 $176 6.2831853071796004 $109 $177 forward 7 unknown #
loop $-1 $-1 $116 $69 #
plane-surface $-1 -56.577654347361687 -19.307909018414954 2.9258096267212679 -0.85716730853699208 0 0.51503806187062418 0.51503806187062418 0 0.85716730853699208 forward_v I I I I #
loop $-1 $-1 $178 $44 #
coedge $-1 $114 $114 $115 $179 reversed $70 $-1 #
coedge $-1 $115 $115 $114 $179 forward $72 $-1 #
coedge $-1 $116 $116 $73 $117 forward $111 $-1 #
edge $-1 $180 0 $180 6.2831853071796004 $116 $181 forward 7 unknown #
face $-1 $182 $183 $25 $-1 $184 reversed single #
loop $-1 $-1 $124 $74 #
plane-surface $-1 56.577654347361673 0 0 -1 0 0 0 0 1 forward_v I I I I #
coedge $-1 $185 $186 $187 $188 reversed $75 $-1 #
coedge $-1 $123 $77 $189 $190 reversed $48 $-1 #
coedge $-1 $77 $122 $185 $191 reversed $48 $-1 #
coedge $-1 $187 $192 $77 $125 forward $119 $-1 #
edge $-1 $193 72.154579470092145 $194 79.192107016793273 $124 $195 forward 7 unknown #
loop $-1 $-1 $131 $78 #
plane-surface $-1 -22.026627033898407 16.405875744855052 83.014303539669271 0.71933980857756763 0 0.69465836192734942 0.69465836192734942 0 -0.71933980857756763 forward_v I I I I #
loop $-1 $-1 $196 $50 #
coedge $-1 $129 $129 $130 $197 reversed $79 $-1 #
coedge $-1 $130 $130 $129 $197 forward $81 $-1 #
coedge $-1 $131 $131 $82 $132 forward $126 $-1 #
edge $-1 $198 0 $198 6.2831853071796004 $131 $199 forward 7 unknown #
loop $-1 $-1 $138 $83 #
plane-surface $-1 -22.026627033898407 16.405875744855052 83.014303539669271 0.71933980857756763 0 0.69465836192734942 0.69465836192734942 0 -0.71933980857756763 forward_v I I I I #
loop $-1 $-1 $200 $53 #
coedge $-1 $136 $136 $137 $201 reversed $84 $-1 #
coedge $-1 $137 $137 $136 $201 forward $86 $-1 #
coedge $-1 $138 $138 $87 $139 forward $133 $-1 #
edge $-1 $202 0 $202 6.2831853071796004 $138 $203 forward 7 unknown #
face $-1 $204 $205 $21 $-1 $206 reversed single #
loop $-1 $-1 $207 $88 #
plane-surface $-1 -56.577654347361673 0 0 1 0 0 0 0 -1 forward_v I I I I #
coedge $-1 $208 $151 $209 $210 forward $89 $-1 #
coedge $-1 $211 $91 $208 $212 forward $57 $-1 #
coedge $-1 $91 $211 $213 $214 forward $57 $-1 #
coedge $-1 $154 $153 $91 $147 reversed $155 $-1 #
edge $-1 $215 -23.215883404872322 $216 23.215883404872322 $146 $217 forward 7 unknown #
coedge $-1 $93 $92 $218 $219 forward $36 $-1 #
coedge $-1 $220 $221 $92 $150 reversed $205 $-1 #
edge $-1 $157 -56.577654347361673 $222 56.577654347361673 $149 $223 forward 7 unknown #
coedge $-1 $143 $224 $93 $152 reversed $89 $-1 #
edge $-1 $225 -56.577654347361673 $156 56.577654347361673 $151 $226 forward 7 unknown #
coedge $-1 $146 $94 $224 $227 forward $155 $-1 #
coedge $-1 $94 $146 $220 $228 reversed $155 $-1 #
loop $-1 $-1 $153 $204 #
vertex $-1 $95 $229 #
vertex $-1 $95 $230 #
straight-curve $-1 56.577654347361673 0 8.6547129903725359 0 1 0 I I #
face $-1 $-1 $231 $22 $-1 $232 reversed single #
loop $-1 $-1 $102 $96 #
plane-surface $-1 -56.577654347361673 0 0 1 0 0 0 0 -1 forward_v I I I I #
coedge $-1 $167 $233 $234 $235 forward $97 $-1 #
coedge $-1 $234 $99 $101 $169 forward $61 $-1 #
coedge $-1 $99 $234 $236 $237 reversed $61 $-1 #
coedge $-1 $238 $102 $99 $166 forward $160 $-1 #
edge $-1 $172 5.7459801227501082 $239 13.561928895664845 $165 $240 forward 7 unknown #
coedge $-1 $241 $162 $100 $168 forward $97 $-1 #
edge $-1 $242 -23.649960829402708 $171 -20.207688526583425 $167 $243 forward 7 unknown #
edge $-1 $172 2.7494044966190042e-014 $242 6.6835299323644612 $101 $244 forward 7 unknown #
coedge $-1 $102 $238 $241 $245 reversed $160 $-1 #
vertex $-1 $245 $246 #
vertex $-1 $103 $247 #
straight-curve $-1 -56.577654347361673 -15.399934631957585 30.602550253611884 0 0 -1 I I #
coedge $-1 $174 $174 $-1 $248 reversed $106 $-1 #
edge $-1 $249 0 $249 6.2831853071796004 $107 $250 forward 7 unknown #
vertex $-1 $110 $251 #
ellipse-curve $-1 -54.856518195952034 -20.98275518403954 5.7902613085469081 -0.85716730853699208 0 0.51503806187062418 0.25751903093531209 0 0.42858365426849604 1 I I #
coedge $-1 $178 $178 $-1 $252 reversed $113 $-1 #
edge $-1 $253 0 $253 6.2831853071796004 $114 $254 forward 7 unknown #
vertex $-1 $117 $255 #
ellipse-curve $-1 -54.856518195952034 -17.633062852790367 5.7902613085469081 -0.85716730853699208 0 0.51503806187062418 0.25751903093531209 0 0.42858365426849604 1 I I #
face $-1 $-1 $256 $25 $-1 $257 forward single #
loop $-1 $-1 $258 $118 #
plane-surface $-1 0 23.215883404872322 0 0 -1 0 0 0 -1 forward_v I I I I #
coedge $-1 $259 $121 $123 $191 forward $75 $-1 #
coedge $-1 $121 $259 $258 $260 reversed $75 $-1 #
coedge $-1 $261 $124 $121 $188 forward $119 $-1 #
edge $-1 $194 1.3929302124102563 $262 15.012945532444796 $187 $263 forward 7 unknown #
coedge $-1 $264 $265 $122 $190 forward $256 $-1 #
edge $-1 $266 20.096347623373177 $193 26.892408816311942 $189 $267 forward 7 unknown #
edge $-1 $194 -113.15530869472335 $266 -103.37199424057513 $123 $268 forward 7 unknown #
coedge $-1 $124 $261 $264 $269 reversed $119 $-1 #
vertex $-1 $269 $270 #
vertex $-1 $125 $271 #
straight-curve $-1 56.577654347361673 9.5958680848377824 80.809292460464675 0 0 -1 I I #
coedge $-1 $196 $196 $-1 $272 reversed $128 $-1 #
edge $-1 $273 0 $273 6.2831853071796004 $129 $274 forward 7 unknown #
vertex $-1 $132 $275 #
ellipse-curve $-1 53.17962375089229 13.487301033419079 5.1359492170219863 0.71933980857756763 0 0.69465836192734942 1.0419875428910241 0 -1.0790097128663514 1 I I #
coedge $-1 $200 $200 $-1 $276 reversed $135 $-1 #
edge $-1 $277 0 $277 6.2831853071796004 $136 $278 forward 7 unknown #
vertex $-1 $139 $279 #
ellipse-curve $-1 53.17962375089229 19.324450456291025 5.1359492170219863 0.71933980857756763 0 0.69465836192734942 1.0419875428910241 0 -1.0790097128663514 1 I I #
face $-1 $-1 $155 $21 $-1 $280 reversed single #
loop $-1 $-1 $220 $140 #
plane-surface $-1 0 23.215883404872322 0 0 -1 0 0 0 -1 forward_v I I I I #
coedge $-1 $281 $218 $221 $282 forward $141 $-1 #
coedge $-1 $224 $143 $144 $212 reversed $89 $-1 #
coedge $-1 $218 $281 $143 $210 reversed $141 $-1 #
edge $-1 $225 -8.6547129903725359 $283 8.6547129903725359 $209 $284 forward 7 unknown #
coedge $-1 $145 $144 $281 $285 forward $57 $-1 #
edge $-1 $216 -56.577654347361673 $283 56.577654347361673 $208 $286 forward 7 unknown #
coedge $-1 $221 $220 $145 $214 reversed $205 $-1 #
edge $-1 $287 -56.577654347361673 $215 56.577654347361673 $213 $288 forward 7 unknown #
vertex $-1 $147 $289 #
vertex $-1 $227 $290 #
straight-curve $-1 56.577654347361673 0 -8.6547129903725359 0 -1 0 I I #
coedge $-1 $207 $209 $148 $219 reversed $141 $-1 #
edge $-1 $222 -23.215883404872322 $225 23.215883404872322 $218 $291 forward 7 unknown #
coedge $-1 $213 $149 $154 $228 forward $205 $-1 #
coedge $-1 $149 $213 $207 $282 reversed $205 $-1 #
vertex $-1 $150 $292 #
straight-curve $-1 0 23.215883404872322 8.6547129903725359 -1 0 0 I I #
coedge $-1 $151 $208 $153 $227 reversed $89 $-1 #
vertex $-1 $219 $293 #
straight-curve $-1 0 -23.215883404872322 8.6547129903725359 1 0 0 I I #
edge $-1 $156 -8.6547129903725359 $216 8.6547129903725359 $153 $294 forward 7 unknown #
edge $-1 $157 -8.6547129903725359 $215 8.6547129903725359 $154 $295 forward 7 unknown #
point $-1 56.577654347361673 -23.215883404872322 8.6547129903725359 #
point $-1 56.577654347361673 23.215883404872322 8.6547129903725359 #
loop $-1 $-1 $236 $159 #
plane-surface $-1 0 -23.215883404872322 0 0 1 0 0 0 1 forward_v I I I I #
coedge $-1 $162 $241 $296 $297 forward $97 $-1 #
coedge $-1 $164 $163 $162 $235 reversed $61 $-1 #
edge $-1 $298 -13.561928895664845 $242 -5.7459801227501082 $162 $299 forward 7 unknown #
coedge $-1 $296 $300 $164 $237 forward $231 $-1 #
edge $-1 $239 -13.315868538611459 $298 -6.6323386062470266 $236 $301 forward 7 unknown #
coedge $-1 $170 $165 $300 $302 reversed $160 $-1 #
vertex $-1 $166 $303 #
straight-curve $-1 -56.577654347361673 -9.6539545092074768 2.9258096267212883 0 -1 0 I I #
coedge $-1 $233 $167 $170 $245 forward $97 $-1 #
vertex $-1 $168 $304 #
straight-curve $-1 -76.785342873945098 -15.399934631957585 8.6547129903725377 -1 0 0 I I #
straight-curve $-1 -56.577654347361687 -15.399934631957585 2.9258096267212679 0.51503806187062418 0 0.85716730853699208 I I #
edge $-1 $171 15.399934631957585 $305 23.215883404872322 $170 $306 forward 7 unknown #
point $-1 -56.577654347361673 -15.399934631957585 8.6547129903725359 #
point $-1 -56.577654347361673 -15.399934631957585 2.9258096267212914 #
edge $-1 $307 1 $307 0 $174 $-1 forward 7 unknown #
vertex $-1 $175 $308 #
ellipse-curve $-1 -53.999350887415034 -20.98275518403954 5.2752232466762807 -0.85716730853699208 0 0.51503806187062418 0.25751903093531209 0 0.42858365426849604 1 I I #
point $-1 -54.598999165016714 -20.98275518403954 6.2188449628154014 #
edge $-1 $309 1 $309 0 $178 $-1 forward 7 unknown #
vertex $-1 $179 $310 #
ellipse-curve $-1 -53.999350887415034 -17.633062852790367 5.2752232466762807 -0.85716730853699208 0 0.51503806187062418 0.25751903093531209 0 0.42858365426849604 1 I I #
point $-1 -54.598999165016714 -17.633062852790367 6.2188449628154014 #
loop $-1 $-1 $189 $182 #
plane-surface $-1 0 0 8.6547129903725359 0 0 1 1 0 0 forward_v I I I I #
coedge $-1 $311 $312 $186 $260 forward $183 $-1 #
coedge $-1 $186 $185 $265 $313 reversed $75 $-1 #
edge $-1 $262 -75.647071758934189 $314 -65.863757304785963 $258 $315 forward 7 unknown #
coedge $-1 $192 $187 $312 $316 reversed $119 $-1 #
vertex $-1 $260 $317 #
straight-curve $-1 56.577654347361673 8.2029378724275261 1.6171854436714028 0 1 0 I I #
coedge $-1 $318 $189 $192 $269 forward $256 $-1 #
coedge $-1 $189 $318 $259 $313 forward $256 $-1 #
vertex $-1 $190 $319 #
straight-curve $-1 29.685245531049731 9.5958680848377824 8.6547129903725306 1 0 0 I I #
straight-curve $-1 -22.026627033898407 9.5958680848377824 83.014303539669271 -0.69465836192734942 0 0.71933980857756763 I I #
edge $-1 $193 9.5958680848377824 $320 23.215883404872322 $192 $321 forward 7 unknown #
point $-1 56.577654347361673 9.5958680848377824 8.6547129903725359 #
point $-1 56.577654347361673 9.5958680848377824 1.6171854436714028 #
edge $-1 $322 1 $322 0 $196 $-1 forward 7 unknown #
vertex $-1 $197 $323 #
ellipse-curve $-1 49.095147029035211 13.487301033419079 1.1916159893834677 0.71933980857756763 0 0.69465836192734942 1.0419875428910241 0 -1.0790097128663514 1 I I #
point $-1 54.221611293783312 13.487301033419079 4.0569395041556273 #
edge $-1 $324 1 $324 0 $200 $-1 forward 7 unknown #
vertex $-1 $201 $325 #
ellipse-curve $-1 49.095147029035211 19.324450456291025 1.1916159893834677 0.71933980857756763 0 0.69465836192734942 1.0419875428910241 0 -1.0790097128663514 1 I I #
point $-1 54.221611293783312 19.324450456291025 4.0569395041556273 #
plane-surface $-1 56.577654347361673 0 0 -1 0 0 0 0 1 forward_v I I I I #
coedge $-1 $209 $207 $211 $285 reversed $141 $-1 #
edge $-1 $222 -8.6547129903725359 $287 8.6547129903725359 $221 $326 forward 7 unknown #
vertex $-1 $285 $327 #
straight-curve $-1 -56.577654347361673 -23.215883404872322 0 0 0 -1 I I #
edge $-1 $283 -23.215883404872322 $287 23.215883404872322 $281 $328 forward 7 unknown #
straight-curve $-1 0 -23.215883404872322 -8.6547129903725359 -1 0 0 I I #
vertex $-1 $214 $329 #
straight-curve $-1 0 23.215883404872322 -8.6547129903725359 1 0 0 I I #
point $-1 56.577654347361673 23.215883404872322 -8.6547129903725359 #
point $-1 56.577654347361673 -23.215883404872322 -8.6547129903725359 #
straight-curve $-1 -56.577654347361673 0 8.6547129903725359 0 -1 0 I I #
point $-1 -56.577654347361673 23.215883404872322 8.6547129903725359 #
point $-1 -56.577654347361673 -23.215883404872322 8.6547129903725359 #
straight-curve $-1 56.577654347361673 -23.215883404872322 0 0 0 -1 I I #
straight-curve $-1 56.577654347361673 23.215883404872322 0 0 0 -1 I I #
coedge $-1 $300 $236 $233 $297 reversed $231 $-1 #
edge $-1 $305 -56.577654347361673 $298 -53.135382044542389 $296 $330 forward 7 unknown #
vertex $-1 $237 $331 #
straight-curve $-1 -53.135382044542389 -9.6539545092074768 8.6547129903725359 0 1 0 I I #
coedge $-1 $236 $296 $238 $302 forward $231 $-1 #
straight-curve $-1 -49.719475223111203 -23.215883404872322 14.339736822795285 0.51503806187062429 0 0.85716730853699219 I I #
edge $-1 $305 -8.6547129903725359 $239 -2.9258096267212914 $238 $332 forward 7 unknown #
point $-1 -56.577654347361673 -23.215883404872322 2.9258096267212914 #
point $-1 -53.135382044542389 -15.399934631957585 8.6547129903725359 #
vertex $-1 $245 $333 #
straight-curve $-1 -56.577654347361673 0 8.6547129903725359 0 -1 0 I I #
vertex $-1 $248 $334 #
point $-1 -53.74183185647972 -20.98275518403954 5.7038069009447767 #
vertex $-1 $252 $335 #
point $-1 -53.74183185647972 -17.633062852790367 5.7038069009447767 #
coedge $-1 $312 $258 $318 $336 reversed $183 $-1 #
coedge $-1 $258 $311 $261 $316 forward $183 $-1 #
edge $-1 $314 -15.012945532444796 $266 -1.3929302124102563 $265 $337 forward 7 unknown #
vertex $-1 $260 $338 #
straight-curve $-1 4.0287833946997953 23.215883404872322 56.033135562196641 -0.69465836192734942 0 0.71933980857756763 I I #
edge $-1 $320 -8.6547129903725359 $262 -1.6171854436714057 $261 $339 forward 7 unknown #
point $-1 56.577654347361673 23.215883404872322 1.6171854436714057 #
coedge $-1 $265 $264 $311 $336 forward $256 $-1 #
point $-1 49.781593154422907 9.5958680848377824 8.6547129903725306 #
vertex $-1 $269 $340 #
straight-curve $-1 56.577654347361673 0 8.6547129903725359 0 1 0 I I #
vertex $-1 $272 $341 #
point $-1 50.137134571926232 13.487301033419079 0.11260627651711619 #
vertex $-1 $276 $342 #
point $-1 50.137134571926232 19.324450456291025 0.11260627651711619 #
straight-curve $-1 -56.577654347361673 23.215883404872322 0 0 0 -1 I I #
point $-1 -56.577654347361673 -23.215883404872322 -8.6547129903725359 #
straight-curve $-1 -56.577654347361673 0 -8.6547129903725359 0 1 0 I I #
point $-1 -56.577654347361673 23.215883404872322 -8.6547129903725359 #
straight-curve $-1 0 -23.215883404872322 8.6547129903725359 1 0 0 I I #
point $-1 -53.135382044542389 -23.215883404872322 8.6547129903725359 #
straight-curve $-1 -56.577654347361673 -23.215883404872322 0 0 0 -1 I I #
point $-1 -56.577654347361673 -23.215883404872322 8.6547129903725359 #
point $-1 -53.57076723314654 -20.98275518403954 5.0177042157409693 #
point $-1 -53.57076723314654 -17.633062852790367 5.0177042157409693 #
edge $-1 $320 -56.577654347361673 $314 -49.781593154422907 $311 $343 forward 7 unknown #
straight-curve $-1 49.781593154422907 8.2029378724275261 8.6547129903725377 0 -1 0 I I #
point $-1 49.781593154422907 23.215883404872322 8.6547129903725306 #
straight-curve $-1 56.577654347361673 23.215883404872322 0 0 0 -1 I I #
point $-1 56.577654347361673 23.215883404872322 8.6547129903725359 #
point $-1 48.016137316168859 13.487301033419079 0.14962844649244345 #
point $-1 48.016137316168859 19.324450456291025 0.14962844649244345 #
straight-curve $-1 0 23.215883404872322 8.6547129903725359 -1 0 0 I I #
End-of-ACIS-data 