500 0 8 0           
7 Unknown 11 ACIS 5.0 NT 24 Thu Mar 25 17:04:36 1999 
-1 9.9999999999999995e-007 1e-010 
body $-1 $8 $-1 $9 #
body $-1 $10 $-1 $11 #
body $-1 $12 $-1 $13 #
body $-1 $14 $-1 $15 #
body $-1 $16 $-1 $17 #
body $-1 $18 $-1 $19 #
body $-1 $20 $-1 $21 #
body $-1 $22 $-1 $23 #
lump $-1 $-1 $24 $0 #
transform $-1 1 0 0 0 1 0 0 0 1 59.265724662007507 33.706058288486616 13.238734079012236 1 rotate no_reflect no_shear #
lump $-1 $-1 $25 $1 #
transform $-1 1 0 0 0 1 0 0 0 1 59.265724662007507 33.706058288486616 13.238734079012236 1 rotate no_reflect no_shear #
lump $-1 $-1 $26 $2 #
transform $-1 1 0 0 0 1 0 0 0 1 59.265724662007507 33.706058288486616 13.238734079012236 1 rotate no_reflect no_shear #
lump $-1 $-1 $27 $3 #
transform $-1 1 0 0 0 1 0 0 0 1 59.265724662007507 33.706058288486616 13.238734079012236 1 rotate no_reflect no_shear #
lump $-1 $-1 $28 $4 #
transform $-1 1 0 0 0 1 0 0 0 1 59.265724662007507 33.706058288486616 13.238734079012236 1 rotate no_reflect no_shear #
lump $-1 $-1 $29 $5 #
transform $-1 1 0 0 0 1 0 0 0 1 59.265724662007507 33.706058288486616 13.238734079012236 1 rotate no_reflect no_shear #
lump $-1 $-1 $30 $6 #
transform $-1 1 0 0 0 1 0 0 0 1 59.265724662007507 33.706058288486616 13.238734079012236 1 rotate no_reflect no_shear #
lump $-1 $-1 $31 $7 #
transform $-1 1 0 0 0 1 0 0 0 1 59.265724662007507 33.706058288486616 13.238734079012236 1 rotate no_reflect no_shear #
shell $-1 $-1 $-1 $32 $-1 $8 #
shell $-1 $-1 $-1 $33 $-1 $10 #
shell $-1 $-1 $-1 $34 $-1 $12 #
shell $-1 $-1 $-1 $35 $-1 $14 #
shell $-1 $-1 $-1 $36 $-1 $16 #
shell $-1 $-1 $-1 $37 $-1 $18 #
shell $-1 $-1 $-1 $38 $-1 $20 #
shell $-1 $-1 $-1 $39 $-1 $22 #
face $-1 $40 $41 $24 $-1 $42 forward single #
face $-1 $43 $44 $25 $-1 $45 forward single #
face $-1 $46 $47 $26 $-1 $48 reversed single #
face $-1 $49 $50 $27 $-1 $51 forward single #
face $-1 $52 $53 $28 $-1 $54 forward single #
face $-1 $55 $56 $29 $-1 $57 reversed single #
face $-1 $58 $59 $30 $-1 $60 forward single #
face $-1 $61 $62 $31 $-1 $63 forward single #
face $-1 $64 $65 $24 $-1 $66 reversed single #
loop $-1 $-1 $67 $32 #
plane-surface $-1 0 0 13.238734079012236 0 0 1 1 0 0 forward_v I I I I #
face $-1 $68 $69 $25 $-1 $70 forward single #
loop $-1 $-1 $71 $33 #
plane-surface $-1 0 -33.706058288486616 0 0 1 0 0 0 1 forward_v I I I I #
face $-1 $72 $73 $26 $-1 $74 reversed single #
loop $-1 $-1 $75 $34 #
plane-surface $-1 -120.31393495023258 22.863873032233457 107.20888480288806 0 1 0 -0.51503808176128008 0 0.85716729658548041 forward_v I I I I #
face $-1 $76 $77 $27 $-1 $78 forward single #
loop $-1 $79 $80 $35 #
cone-surface $-1 -51.46267731127854 25.961640248305784 7.0051703222506809 0.51503808176128008 0 -0.85716729658548041 1.2857509448782207 0 0.77255712264192011 1 I I 0 1 1.5 forward I I I I #
face $-1 $81 $82 $28 $-1 $83 forward single #
loop $-1 $84 $85 $36 #
cone-surface $-1 -51.46267731127854 30.608291072414275 7.0051703222506809 0.51503808176128008 0 -0.85716729658548041 1.2857509448782207 0 0.77255712264192011 1 I I 0 1 1.5 forward I I I I #
face $-1 $86 $87 $29 $-1 $88 reversed single #
loop $-1 $-1 $89 $37 #
plane-surface $-1 99.818800125505533 27.898778054131821 170.63780996012747 0 -1 0 -0.85716730853699208 0 -0.51503806187062418 forward_v I I I I #
face $-1 $90 $91 $30 $-1 $92 forward single #
loop $-1 $93 $94 $38 #
cone-surface $-1 56.796734530609321 21.596265719726155 10.077795293029686 -0.85716730853699208 0 -0.51503806187062418 0.51503806187062418 0 -0.85716730853699208 1 I I 0 1 1 forward I I I I #
face $-1 $95 $96 $31 $-1 $97 forward single #
loop $-1 $98 $99 $39 #
cone-surface $-1 56.796734530609321 25.377773120369554 10.077795293029686 -0.85716730853699208 0 -0.51503806187062418 0.51503806187062418 0 -0.85716730853699208 1 I I 0 1 1 forward I I I I #
face $-1 $100 $101 $24 $-1 $102 reversed single #
loop $-1 $-1 $103 $40 #
plane-surface $-1 0 0 -13.238734079012236 0 0 1 1 0 0 forward_v I I I I #
coedge $-1 $104 $105 $106 $107 forward $41 $-1 #
face $-1 $108 $109 $25 $-1 $110 reversed single #
loop $-1 $-1 $111 $43 #
plane-surface $-1 0 0 13.238734079012236 0 0 1 1 0 0 forward_v I I I I #
coedge $-1 $112 $113 $114 $115 forward $44 $-1 #
face $-1 $116 $117 $26 $-1 $118 forward single #
loop $-1 $-1 $119 $46 #
plane-surface $-1 -59.265724662007507 28.284965660360037 5.6076028254632462 -0.51503808176128008 0 0.85716729658548041 0.85716729658548041 0 0.51503808176128008 forward_v I I I I #
coedge $-1 $120 $121 $122 $123 reversed $47 $-1 #
face $-1 $-1 $124 $27 $-1 $125 forward single #
loop $-1 $126 $127 $49 #
cone-surface $-1 -49.62351887046173 25.961640248305784 3.9442967198245178 0.51503808176128008 0 -0.85716729658548041 0.64287547243911036 0 0.38627856132096006 1 I I -0.70710678118654757 0.70710678118654757 0.75 forward I I I I #
loop $-1 $-1 $128 $35 #
coedge $-1 $80 $80 $129 $130 reversed $50 $-1 #
face $-1 $-1 $131 $28 $-1 $132 forward single #
loop $-1 $133 $134 $52 #
cone-surface $-1 -49.62351887046173 30.608291072414275 3.9442967198245178 0.51503808176128008 0 -0.85716729658548041 0.64287547243911036 0 0.38627856132096006 1 I I -0.70710678118654757 0.70710678118654757 0.75 forward I I I I #
loop $-1 $-1 $135 $36 #
coedge $-1 $85 $85 $136 $137 reversed $53 $-1 #
face $-1 $138 $139 $29 $-1 $140 reversed single #
loop $-1 $-1 $141 $55 #
plane-surface $-1 -1.7824832685492709 23.487019420047858 109.58960202957067 0.85716730853699208 0 0.51503806187062418 0.51503806187062418 0 -0.85716730853699208 forward_v I I I I #
coedge $-1 $142 $143 $144 $145 reversed $56 $-1 #
face $-1 $-1 $146 $30 $-1 $147 forward single #
loop $-1 $148 $149 $58 #
cone-surface $-1 55.476544627354933 21.596265719726155 9.2845451978600089 -0.85716730853699208 0 -0.51503806187062418 0.25751903093531209 0 -0.42858365426849604 1 I I -0.70710678118654746 0.70710678118654746 0.5 forward I I I I #
loop $-1 $-1 $150 $38 #
coedge $-1 $94 $94 $151 $152 reversed $59 $-1 #
face $-1 $-1 $153 $31 $-1 $154 forward single #
loop $-1 $155 $156 $61 #
cone-surface $-1 55.476544627354933 25.377773120369554 9.2845451978600089 -0.85716730853699208 0 -0.51503806187062418 0.25751903093531209 0 -0.42858365426849604 1 I I -0.70710678118654746 0.70710678118654746 0.5 forward I I I I #
loop $-1 $-1 $157 $39 #
coedge $-1 $99 $99 $158 $159 reversed $62 $-1 #
face $-1 $160 $161 $24 $-1 $162 reversed single #
loop $-1 $-1 $163 $64 #
plane-surface $-1 0 -33.706058288486616 0 0 1 0 0 0 1 forward_v I I I I #
coedge $-1 $164 $165 $166 $167 forward $65 $-1 #
coedge $-1 $168 $67 $169 $170 forward $41 $-1 #
coedge $-1 $67 $168 $171 $172 forward $41 $-1 #
coedge $-1 $173 $174 $67 $107 reversed $175 $-1 #
edge $-1 $176 -33.706058288486616 $177 33.706058288486616 $106 $178 forward 7 unknown #
face $-1 $179 $180 $25 $-1 $181 reversed single #
loop $-1 $-1 $182 $68 #
plane-surface $-1 -59.265724662007507 0 0 1 0 0 0 0 -1 forward_v I I I I #
coedge $-1 $183 $184 $185 $186 forward $69 $-1 #
coedge $-1 $185 $71 $182 $187 reversed $44 $-1 #
coedge $-1 $71 $185 $188 $189 reversed $44 $-1 #
coedge $-1 $190 $191 $71 $115 reversed $180 $-1 #
edge $-1 $192 -59.265724662007507 $193 59.265724662007507 $114 $194 forward 7 unknown #
face $-1 $195 $196 $26 $-1 $197 reversed single #
loop $-1 $-1 $122 $72 #
plane-surface $-1 0 0 13.238734079012236 0 0 1 1 0 0 forward_v I I I I #
coedge $-1 $198 $199 $200 $201 reversed $73 $-1 #
coedge $-1 $121 $75 $202 $203 reversed $47 $-1 #
coedge $-1 $75 $120 $198 $204 reversed $47 $-1 #
coedge $-1 $200 $205 $75 $123 forward $117 $-1 #
edge $-1 $206 0.89124281310878217 $207 13.591577755574995 $122 $208 forward 7 unknown #
loop $-1 $-1 $129 $76 #
plane-surface $-1 -59.265724662007507 28.284965660360037 5.6076028254632462 -0.51503808176128008 0 0.85716729658548041 0.85716729658548041 0 0.51503808176128008 forward_v I I I I #
loop $-1 $-1 $209 $49 #
coedge $-1 $127 $127 $128 $210 reversed $77 $-1 #
coedge $-1 $128 $128 $127 $210 forward $79 $-1 #
coedge $-1 $129 $129 $80 $130 forward $124 $-1 #
edge $-1 $211 0 $211 6.2831853071796004 $129 $212 forward 7 unknown #
loop $-1 $-1 $136 $81 #
plane-surface $-1 -59.265724662007507 28.284965660360037 5.6076028254632462 -0.51503808176128008 0 0.85716729658548041 0.85716729658548041 0 0.51503808176128008 forward_v I I I I #
loop $-1 $-1 $213 $52 #
coedge $-1 $134 $134 $135 $214 reversed $82 $-1 #
coedge $-1 $135 $135 $134 $214 forward $84 $-1 #
coedge $-1 $136 $136 $85 $137 forward $131 $-1 #
edge $-1 $215 0 $215 6.2831853071796004 $136 $216 forward 7 unknown #
face $-1 $217 $218 $29 $-1 $219 reversed single #
loop $-1 $-1 $220 $86 #
plane-surface $-1 99.818800125505533 19.075260785963895 170.63780996012747 0 1 0 0.85716730853699208 0 0.51503806187062418 forward_v I I I I #
coedge $-1 $221 $222 $223 $224 reversed $87 $-1 #
coedge $-1 $143 $89 $225 $226 reversed $56 $-1 #
coedge $-1 $89 $142 $221 $227 reversed $56 $-1 #
coedge $-1 $223 $228 $89 $145 forward $229 $-1 #
edge $-1 $230 -9.3563245992547408 $231 -6.2015568344301641 $144 $232 forward 7 unknown #
loop $-1 $-1 $151 $90 #
plane-surface $-1 -1.7824832685492709 23.487019420047858 109.58960202957067 0.85716730853699208 0 0.51503806187062418 0.51503806187062418 0 -0.85716730853699208 forward_v I I I I #
loop $-1 $-1 $233 $58 #
coedge $-1 $149 $149 $150 $234 reversed $91 $-1 #
coedge $-1 $150 $150 $149 $234 forward $93 $-1 #
coedge $-1 $151 $151 $94 $152 forward $146 $-1 #
edge $-1 $235 0 $235 6.2831853071796004 $151 $236 forward 7 unknown #
loop $-1 $-1 $158 $95 #
plane-surface $-1 -1.7824832685492709 23.487019420047858 109.58960202957067 0.85716730853699208 0 0.51503806187062418 0.51503806187062418 0 -0.85716730853699208 forward_v I I I I #
loop $-1 $-1 $237 $61 #
coedge $-1 $156 $156 $157 $238 reversed $96 $-1 #
coedge $-1 $157 $157 $156 $238 forward $98 $-1 #
coedge $-1 $158 $158 $99 $159 forward $153 $-1 #
edge $-1 $239 0 $239 6.2831853071796004 $158 $240 forward 7 unknown #
face $-1 $241 $242 $24 $-1 $243 reversed single #
loop $-1 $-1 $244 $100 #
plane-surface $-1 -59.265724662007507 0 0 1 0 0 0 0 -1 forward_v I I I I #
coedge $-1 $245 $171 $246 $247 forward $101 $-1 #
coedge $-1 $248 $103 $245 $249 forward $65 $-1 #
coedge $-1 $103 $248 $250 $251 forward $65 $-1 #
coedge $-1 $174 $173 $103 $167 reversed $175 $-1 #
edge $-1 $252 -33.706058288486616 $253 33.706058288486616 $166 $254 forward 7 unknown #
coedge $-1 $105 $104 $255 $256 forward $41 $-1 #
coedge $-1 $257 $258 $104 $170 reversed $242 $-1 #
edge $-1 $177 -59.265724662007507 $259 59.265724662007507 $169 $260 forward 7 unknown #
coedge $-1 $163 $261 $105 $172 reversed $101 $-1 #
edge $-1 $262 -59.265724662007507 $176 59.265724662007507 $171 $263 forward 7 unknown #
coedge $-1 $166 $106 $261 $264 forward $175 $-1 #
coedge $-1 $106 $166 $257 $265 reversed $175 $-1 #
loop $-1 $-1 $173 $241 #
vertex $-1 $107 $266 #
vertex $-1 $107 $267 #
straight-curve $-1 59.265724662007507 0 13.238734079012236 0 1 0 I I #
face $-1 $268 $269 $25 $-1 $270 reversed single #
loop $-1 $-1 $190 $108 #
plane-surface $-1 0 -39.976908087967807 10.238734079012236 0 0 1 1 0 0 forward_v I I I I #
coedge $-1 $271 $272 $112 $187 forward $109 $-1 #
coedge $-1 $273 $111 $272 $274 forward $69 $-1 #
coedge $-1 $111 $273 $275 $276 forward $69 $-1 #
coedge $-1 $113 $112 $111 $186 reversed $44 $-1 #
edge $-1 $277 -59.265724662007507 $278 59.265724662007507 $111 $279 forward 7 unknown #
edge $-1 $278 -13.238734079012236 $193 -10.238734079012236 $182 $280 forward 7 unknown #
coedge $-1 $275 $281 $113 $189 forward $282 $-1 #
edge $-1 $192 10.238734079012236 $277 13.238734079012236 $188 $283 forward 7 unknown #
coedge $-1 $284 $114 $281 $285 forward $180 $-1 #
coedge $-1 $114 $284 $271 $286 forward $180 $-1 #
vertex $-1 $189 $287 #
vertex $-1 $187 $288 #
straight-curve $-1 0 -33.706058288486616 10.238734079012236 -1 0 0 I I #
face $-1 $-1 $289 $26 $-1 $290 reversed single #
loop $-1 $-1 $291 $116 #
plane-surface $-1 0 33.706058288486616 0 0 -1 0 0 0 -1 forward_v I I I I #
coedge $-1 $292 $119 $121 $204 forward $73 $-1 #
coedge $-1 $119 $292 $291 $293 reversed $73 $-1 #
coedge $-1 $294 $122 $119 $201 forward $117 $-1 #
edge $-1 $207 8.7213902020534384 $295 19.563575458306598 $200 $296 forward 7 unknown #
coedge $-1 $297 $298 $120 $203 forward $289 $-1 #
edge $-1 $299 -47.996839575980786 $206 -40.3657083224318 $202 $300 forward 7 unknown #
edge $-1 $207 -14.816634970860301 $299 0 $121 $301 forward 7 unknown #
coedge $-1 $122 $294 $297 $302 forward $117 $-1 #
vertex $-1 $203 $303 #
vertex $-1 $123 $304 #
straight-curve $-1 -60.156967475116289 22.863873032233457 13.238734079012232 1 0 0 I I #
coedge $-1 $209 $209 $-1 $305 reversed $126 $-1 #
edge $-1 $306 0 $306 6.2831853071796004 $127 $307 forward 7 unknown #
vertex $-1 $130 $308 #
ellipse-curve $-1 -52.915557190774393 25.961640248305784 9.4231684522377446 -0.51503808176128008 0 0.85716729658548041 1.2857509448782207 0 0.77255712264192011 1 I I #
coedge $-1 $213 $213 $-1 $309 reversed $133 $-1 #
edge $-1 $310 0 $310 6.2831853071796004 $134 $311 forward 7 unknown #
vertex $-1 $137 $312 #
ellipse-curve $-1 -52.915557190774393 30.608291072414275 9.4231684522377446 -0.51503808176128008 0 0.85716729658548041 1.2857509448782207 0 0.77255712264192011 1 I I #
face $-1 $-1 $229 $29 $-1 $313 forward single #
loop $-1 $-1 $314 $138 #
plane-surface $-1 59.265724662007507 0 0 -1 0 0 0 0 1 forward_v I I I I #
coedge $-1 $315 $316 $317 $318 reversed $139 $-1 #
coedge $-1 $319 $141 $143 $227 forward $87 $-1 #
coedge $-1 $141 $319 $315 $320 forward $87 $-1 #
coedge $-1 $317 $144 $141 $224 forward $229 $-1 #
edge $-1 $231 -16.155268344107892 $321 -7.331751075939966 $223 $322 forward 7 unknown #
coedge $-1 $323 $324 $142 $226 forward $218 $-1 #
edge $-1 $325 -77.330586344547839 $230 -72.080170901051503 $225 $326 forward 7 unknown #
edge $-1 $231 112.406139374365 $325 118.53144932401499 $143 $327 forward 7 unknown #
coedge $-1 $144 $317 $323 $328 forward $229 $-1 #
loop $-1 $-1 $317 $217 #
vertex $-1 $226 $329 #
vertex $-1 $145 $330 #
straight-curve $-1 49.909400062752766 27.898778054131821 13.238734079012232 -1 0 0 I I #
coedge $-1 $233 $233 $-1 $331 reversed $148 $-1 #
edge $-1 $332 0 $332 6.2831853071796004 $149 $333 forward 7 unknown #
vertex $-1 $152 $334 #
ellipse-curve $-1 57.688340779595222 21.596265719726155 10.613526357264057 0.85716730853699208 0 0.51503806187062418 0.51503806187062418 0 -0.85716730853699208 1 I I #
coedge $-1 $237 $237 $-1 $335 reversed $155 $-1 #
edge $-1 $336 0 $336 6.2831853071796004 $156 $337 forward 7 unknown #
vertex $-1 $159 $338 #
ellipse-curve $-1 57.688340779595222 25.377773120369554 10.613526357264057 0.85716730853699208 0 0.51503806187062418 0.51503806187062418 0 -0.85716730853699208 1 I I #
face $-1 $-1 $175 $24 $-1 $339 reversed single #
loop $-1 $-1 $257 $160 #
plane-surface $-1 0 33.706058288486616 0 0 -1 0 0 0 -1 forward_v I I I I #
coedge $-1 $340 $255 $258 $341 forward $161 $-1 #
coedge $-1 $261 $163 $164 $249 reversed $101 $-1 #
coedge $-1 $255 $340 $163 $247 reversed $161 $-1 #
edge $-1 $262 -13.238734079012236 $342 13.238734079012236 $246 $343 forward 7 unknown #
coedge $-1 $165 $164 $340 $344 forward $65 $-1 #
edge $-1 $253 -59.265724662007507 $342 59.265724662007507 $245 $345 forward 7 unknown #
coedge $-1 $258 $257 $165 $251 reversed $242 $-1 #
edge $-1 $346 -59.265724662007507 $252 59.265724662007507 $250 $347 forward 7 unknown #
vertex $-1 $167 $348 #
vertex $-1 $264 $349 #
straight-curve $-1 59.265724662007507 0 -13.238734079012236 0 -1 0 I I #
coedge $-1 $244 $246 $168 $256 reversed $161 $-1 #
edge $-1 $259 -33.706058288486616 $262 33.706058288486616 $255 $350 forward 7 unknown #
coedge $-1 $250 $169 $174 $265 forward $242 $-1 #
coedge $-1 $169 $250 $244 $341 reversed $242 $-1 #
vertex $-1 $170 $351 #
straight-curve $-1 0 33.706058288486616 13.238734079012236 -1 0 0 I I #
coedge $-1 $171 $245 $173 $264 reversed $101 $-1 #
vertex $-1 $256 $352 #
straight-curve $-1 0 -33.706058288486616 13.238734079012236 1 0 0 I I #
edge $-1 $176 -13.238734079012236 $253 13.238734079012236 $173 $353 forward 7 unknown #
edge $-1 $177 -13.238734079012236 $252 13.238734079012236 $174 $354 forward 7 unknown #
point $-1 59.265724662007507 -33.706058288486616 13.238734079012236 #
point $-1 59.265724662007507 33.706058288486616 13.238734079012236 #
face $-1 $-1 $282 $25 $-1 $355 reversed single #
loop $-1 $-1 $356 $179 #
plane-surface $-1 0 -46.247757887448998 11.738734079012236 0 1 0 0 0 1 forward_v I I I I #
coedge $-1 $357 $182 $191 $286 reversed $109 $-1 #
coedge $-1 $182 $357 $183 $274 reversed $109 $-1 #
coedge $-1 $184 $183 $358 $359 forward $69 $-1 #
edge $-1 $278 33.706058288486616 $360 46.247757887448998 $272 $361 forward 7 unknown #
coedge $-1 $362 $188 $184 $276 reversed $282 $-1 #
edge $-1 $363 -46.247757887448998 $277 -33.706058288486616 $275 $364 forward 7 unknown #
vertex $-1 $189 $365 #
vertex $-1 $274 $366 #
straight-curve $-1 0 -33.706058288486616 13.238734079012236 -1 0 0 I I #
straight-curve $-1 -59.265724662007507 -33.706058288486616 0 0 0 -1 I I #
coedge $-1 $188 $362 $190 $285 reversed $282 $-1 #
loop $-1 $-1 $188 $268 #
straight-curve $-1 59.265724662007507 -33.706058288486616 0 0 0 1 I I #
coedge $-1 $191 $190 $367 $368 forward $180 $-1 #
edge $-1 $192 -6.2708497994811907 $369 6.2708497994811907 $281 $370 forward 7 unknown #
edge $-1 $371 -6.2708497994811907 $193 6.2708497994811907 $271 $372 forward 7 unknown #
point $-1 59.265724662007507 -33.706058288486616 10.238734079012236 #
point $-1 -59.265724662007507 -33.706058288486616 10.238734079012236 #
loop $-1 $-1 $202 $195 #
plane-surface $-1 -59.265724662007507 0 0 1 0 0 0 0 -1 forward_v I I I I #
coedge $-1 $373 $374 $199 $293 forward $196 $-1 #
coedge $-1 $199 $198 $298 $375 reversed $73 $-1 #
edge $-1 $295 9.1396210222430412 $376 23.956255993103344 $291 $377 forward 7 unknown #
coedge $-1 $205 $200 $374 $378 forward $117 $-1 #
vertex $-1 $378 $379 #
straight-curve $-1 -46.565389719541294 14.142482830180018 13.238734079012236 0 1 0 I I #
coedge $-1 $380 $202 $205 $302 reversed $289 $-1 #
coedge $-1 $202 $380 $292 $375 forward $289 $-1 #
vertex $-1 $203 $381 #
straight-curve $-1 -59.265724662007507 22.863873032233457 53.604442401444032 0 0 1 I I #
straight-curve $-1 -59.265724662007507 22.863873032233457 5.6076028254632462 -0.85716729658548041 0 -0.51503808176128008 I I #
edge $-1 $382 -33.706058288486616 $206 -22.863873032233457 $297 $383 forward 7 unknown #
point $-1 -59.265724662007507 22.863873032233457 13.238734079012236 #
point $-1 -46.565389719541294 22.863873032233457 13.238734079012236 #
edge $-1 $384 1 $384 0 $209 $-1 forward 7 unknown #
vertex $-1 $210 $385 #
ellipse-curve $-1 -50.009797431782687 25.961640248305784 4.5871721922636279 -0.51503808176128008 0 0.85716729658548041 1.2857509448782207 0 0.77255712264192011 1 I I #
point $-1 -51.629806245896162 25.961640248305784 10.195725574879653 #
edge $-1 $386 1 $386 0 $213 $-1 forward 7 unknown #
vertex $-1 $214 $387 #
ellipse-curve $-1 -50.009797431782687 30.608291072414275 4.5871721922636279 -0.51503808176128008 0 0.85716729658548041 1.2857509448782207 0 0.77255712264192011 1 I I #
point $-1 -51.629806245896162 30.608291072414275 10.195725574879653 #
plane-surface $-1 0 0 13.238734079012236 0 0 1 1 0 0 forward_v I I I I #
coedge $-1 $324 $323 $316 $388 forward $218 $-1 #
coedge $-1 $316 $220 $222 $320 reversed $139 $-1 #
coedge $-1 $220 $315 $314 $388 reversed $139 $-1 #
coedge $-1 $228 $223 $220 $318 forward $229 $-1 #
edge $-1 $321 6.2015568344301641 $389 9.3563245992547408 $317 $390 forward 7 unknown #
coedge $-1 $222 $221 $324 $391 reversed $87 $-1 #
edge $-1 $392 -118.53144932401499 $321 -112.406139374365 $315 $393 forward 7 unknown #
vertex $-1 $224 $394 #
straight-curve $-1 56.110956897182916 11.743509710023929 13.238734079012232 0 -1 0 I I #
coedge $-1 $314 $225 $228 $328 reversed $218 $-1 #
coedge $-1 $225 $314 $319 $391 forward $218 $-1 #
vertex $-1 $226 $395 #
straight-curve $-1 59.265724662007507 27.898778054131821 85.318904980063735 0 0 1 I I #
straight-curve $-1 -1.7824832685492709 27.898778054131821 109.58960202957067 0.51503806187062418 0 -0.85716730853699208 I I #
edge $-1 $389 19.075260785963895 $230 27.898778054131821 $323 $396 forward 7 unknown #
point $-1 59.265724662007507 27.898778054131821 13.238734079012236 #
point $-1 56.11095689718293 27.898778054131821 13.238734079012232 #
edge $-1 $397 1 $397 0 $233 $-1 forward 7 unknown #
vertex $-1 $234 $398 #
ellipse-curve $-1 55.905128281623426 21.596265719726155 9.5420642287953203 0.85716730853699208 0 0.51503806187062418 0.51503806187062418 0 -0.85716730853699208 1 I I #
point $-1 58.203378841465828 21.596265719726155 9.7563590487270595 #
edge $-1 $399 1 $399 0 $237 $-1 forward 7 unknown #
vertex $-1 $238 $400 #
ellipse-curve $-1 55.905128281623426 25.377773120369554 9.5420642287953203 0.85716730853699208 0 0.51503806187062418 0.51503806187062418 0 -0.85716730853699208 1 I I #
point $-1 58.203378841465828 25.377773120369554 9.7563590487270595 #
plane-surface $-1 59.265724662007507 0 0 -1 0 0 0 0 1 forward_v I I I I #
coedge $-1 $246 $244 $248 $344 reversed $161 $-1 #
edge $-1 $259 -13.238734079012236 $346 13.238734079012236 $258 $401 forward 7 unknown #
vertex $-1 $344 $402 #
straight-curve $-1 -59.265724662007507 -33.706058288486616 0 0 0 -1 I I #
edge $-1 $342 -33.706058288486616 $346 33.706058288486616 $340 $403 forward 7 unknown #
straight-curve $-1 0 -33.706058288486616 -13.238734079012236 -1 0 0 I I #
vertex $-1 $251 $404 #
straight-curve $-1 0 33.706058288486616 -13.238734079012236 1 0 0 I I #
point $-1 59.265724662007507 33.706058288486616 -13.238734079012236 #
point $-1 59.265724662007507 -33.706058288486616 -13.238734079012236 #
straight-curve $-1 -59.265724662007507 0 13.238734079012236 0 -1 0 I I #
point $-1 -59.265724662007507 33.706058288486616 13.238734079012236 #
point $-1 -59.265724662007507 -33.706058288486616 13.238734079012236 #
straight-curve $-1 59.265724662007507 -33.706058288486616 0 0 0 -1 I I #
straight-curve $-1 59.265724662007507 33.706058288486616 0 0 0 -1 I I #
plane-surface $-1 59.265724662007507 0 0 -1 0 0 0 0 1 forward_v I I I I #
coedge $-1 $367 $358 $357 $405 forward $269 $-1 #
coedge $-1 $272 $271 $356 $405 reversed $109 $-1 #
coedge $-1 $356 $406 $273 $359 reversed $269 $-1 #
edge $-1 $360 -59.265724662007507 $363 59.265724662007507 $358 $407 forward 7 unknown #
vertex $-1 $274 $408 #
straight-curve $-1 -59.265724662007507 0 13.238734079012236 0 -1 0 I I #
coedge $-1 $281 $275 $406 $409 forward $282 $-1 #
vertex $-1 $276 $410 #
straight-curve $-1 59.265724662007507 0 13.238734079012236 0 1 0 I I #
point $-1 59.265724662007507 -33.706058288486616 13.238734079012236 #
point $-1 -59.265724662007507 -33.706058288486616 13.238734079012236 #
coedge $-1 $406 $356 $284 $368 reversed $269 $-1 #
edge $-1 $369 -59.265724662007507 $371 59.265724662007507 $367 $411 forward 7 unknown #
vertex $-1 $409 $412 #
straight-curve $-1 59.265724662007507 -39.976908087967807 10.238734079012236 0 -1 0 I I #
vertex $-1 $286 $413 #
straight-curve $-1 -59.265724662007507 -39.976908087967807 10.238734079012236 0 1 0 I I #
coedge $-1 $374 $291 $380 $414 reversed $196 $-1 #
coedge $-1 $291 $373 $294 $378 reversed $196 $-1 #
edge $-1 $376 -19.563575458306598 $299 -8.7213902020534384 $298 $415 forward 7 unknown #
vertex $-1 $293 $416 #
straight-curve $-1 -38.7312054760894 33.706058288486616 17.945986958333361 -0.85716729658548041 0 -0.51503808176128008 I I #
edge $-1 $295 46.565389719541294 $382 59.265724662007507 $374 $417 forward 7 unknown #
point $-1 -46.565389719541294 33.706058288486616 13.238734079012236 #
coedge $-1 $298 $297 $373 $414 forward $289 $-1 #
point $-1 -59.265724662007507 22.863873032233457 5.6076028254632462 #
vertex $-1 $378 $418 #
straight-curve $-1 -59.265724662007507 0 13.238734079012236 0 -1 0 I I #
vertex $-1 $305 $419 #
point $-1 -48.72404648690447 25.961640248305784 5.3597293149055485 #
vertex $-1 $309 $420 #
point $-1 -48.72404648690447 30.608291072414275 5.3597293149055485 #
edge $-1 $389 72.080170901051503 $392 77.330586344547839 $314 $421 forward 7 unknown #
vertex $-1 $328 $422 #
straight-curve $-1 49.909400062752766 19.075260785963895 13.238734079012232 1 0 0 I I #
edge $-1 $392 7.331751075939966 $325 16.155268344107892 $324 $423 forward 7 unknown #
vertex $-1 $391 $424 #
straight-curve $-1 -1.7824832685492709 19.075260785963895 109.58960202957067 -0.51503806187062418 0 0.85716730853699208 I I #
point $-1 56.11095689718293 19.075260785963895 13.238734079012232 #
point $-1 59.265724662007507 27.898778054131821 7.9883186355158955 #
straight-curve $-1 59.265724662007507 0 13.238734079012236 0 1 0 I I #
vertex $-1 $331 $425 #
point $-1 56.420166343494053 21.596265719726155 8.6848969202583284 #
vertex $-1 $335 $426 #
point $-1 56.420166343494053 25.377773120369554 8.6848969202583284 #
straight-curve $-1 -59.265724662007507 33.706058288486616 0 0 0 -1 I I #
point $-1 -59.265724662007507 -33.706058288486616 -13.238734079012236 #
straight-curve $-1 -59.265724662007507 0 -13.238734079012236 0 1 0 I I #
point $-1 -59.265724662007507 33.706058288486616 -13.238734079012236 #
edge $-1 $360 -1.5 $371 1.5 $357 $427 forward 7 unknown #
coedge $-1 $358 $367 $362 $409 reversed $269 $-1 #
straight-curve $-1 0 -46.247757887448998 13.238734079012236 1 0 0 I I #
point $-1 -59.265724662007507 -46.247757887448998 13.238734079012236 #
edge $-1 $363 -1.5 $369 1.5 $362 $428 forward 7 unknown #
point $-1 59.265724662007507 -46.247757887448998 13.238734079012236 #
straight-curve $-1 0 -46.247757887448998 10.238734079012236 -1 0 0 I I #
point $-1 59.265724662007507 -46.247757887448998 10.238734079012236 #
point $-1 -59.265724662007507 -46.247757887448998 10.238734079012236 #
edge $-1 $382 -13.238734079012236 $376 -5.6076028254632462 $373 $429 forward 7 unknown #
straight-curve $-1 -59.265724662007507 14.142482830180018 5.607602825463248 0 -1 0 I I #
point $-1 -59.265724662007507 33.706058288486616 5.6076028254632462 #
straight-curve $-1 0 33.706058288486616 13.238734079012236 -1 0 0 I I #
point $-1 -59.265724662007507 33.706058288486616 13.238734079012236 #
point $-1 -49.237240309140773 25.961640248305784 3.3014212473854077 #
point $-1 -49.237240309140773 30.608291072414275 3.3014212473854077 #
straight-curve $-1 59.265724662007507 19.075260785963895 85.318904980063735 0 0 -1 I I #
point $-1 59.265724662007507 19.075260785963895 13.238734079012236 #
straight-curve $-1 59.265724662007507 11.743509710023929 7.9883186355158813 0 1 0 I I #
point $-1 59.265724662007507 19.075260785963895 7.9883186355158955 #
point $-1 55.04796097308644 21.596265719726155 9.0270261669246974 #
point $-1 55.04796097308644 25.377773120369554 9.0270261669246974 #
straight-curve $-1 -59.265724662007507 -46.247757887448998 11.738734079012236 0 0 -1 I I #
straight-curve $-1 59.265724662007507 -46.247757887448998 11.738734079012236 0 0 -1 I I #
straight-curve $-1 -59.265724662007507 33.706058288486616 0 0 0 -1 I I #
End-of-ACIS-data 