500 0 5 0           
7 Unknown 11 ACIS 5.0 NT 24 Thu Mar 25 15:37:06 1999 
-1 9.9999999999999995e-007 1e-010 
body $-1 $5 $-1 $6 #
body $-1 $7 $-1 $8 #
body $-1 $9 $-1 $10 #
body $-1 $11 $-1 $12 #
body $-1 $13 $-1 $14 #
lump $-1 $-1 $15 $0 #
transform $-1 1 0 0 0 1 0 0 0 1 69.701834162419516 48.292243711828874 23.516511378492236 1 rotate no_reflect no_shear #
lump $-1 $-1 $16 $1 #
transform $-1 1 0 0 0 1 0 0 0 1 69.701834162419516 48.292243711828874 23.516511378492236 1 rotate no_reflect no_shear #
lump $-1 $-1 $17 $2 #
transform $-1 1 0 0 0 1 0 0 0 1 69.701834162419516 48.292243711828874 23.516511378492236 1 rotate no_reflect no_shear #
lump $-1 $-1 $18 $3 #
transform $-1 1 0 0 0 1 0 0 0 1 69.701834162419516 48.292243711828874 23.516511378492236 1 rotate no_reflect no_shear #
lump $-1 $-1 $19 $4 #
transform $-1 1 0 0 0 1 0 0 0 1 69.701834162419516 48.292243711828874 23.516511378492236 1 rotate no_reflect no_shear #
shell $-1 $-1 $-1 $20 $-1 $5 #
shell $-1 $-1 $-1 $21 $-1 $7 #
shell $-1 $-1 $-1 $22 $-1 $9 #
shell $-1 $-1 $-1 $23 $-1 $11 #
shell $-1 $-1 $-1 $24 $-1 $13 #
face $-1 $25 $26 $15 $-1 $27 forward single #
face $-1 $28 $29 $16 $-1 $30 reversed single #
face $-1 $31 $32 $17 $-1 $33 reversed single #
face $-1 $34 $35 $18 $-1 $36 forward single #
face $-1 $37 $38 $19 $-1 $39 forward single #
face $-1 $40 $41 $15 $-1 $42 reversed single #
loop $-1 $-1 $43 $20 #
plane-surface $-1 0 0 23.516511378492236 0 0 1 1 0 0 forward_v I I I I #
face $-1 $44 $45 $16 $-1 $46 reversed single #
loop $-1 $-1 $47 $21 #
plane-surface $-1 0 -38.39931164783065 12.902036449886491 0 0 1 1 0 0 forward_v I I I I #
face $-1 $48 $49 $17 $-1 $50 reversed single #
loop $-1 $-1 $51 $22 #
plane-surface $-1 23.435569456041833 75.653104786009237 184.23046963999155 1 0 0 0 -0.69465837861970381 -0.71933979245794832 forward_v I I I I #
face $-1 $52 $53 $18 $-1 $54 forward single #
loop $-1 $55 $56 $23 #
cone-surface $-1 32.286042270066275 43.869578599070415 19.177466233463676 0 -0.69465837861970381 -0.71933979245794832 2 0 0 1 I I 0 1 2 forward I I I I #
face $-1 $57 $58 $19 $-1 $59 forward single #
loop $-1 $60 $61 $24 #
cone-surface $-1 45.561751491102925 43.869578599070415 19.177466233463676 0 -0.69465837861970381 -0.71933979245794832 2 0 0 1 I I 0 1 2 forward I I I I #
face $-1 $62 $63 $15 $-1 $64 reversed single #
loop $-1 $-1 $65 $25 #
plane-surface $-1 0 0 -23.516511378492236 0 0 1 1 0 0 forward_v I I I I #
coedge $-1 $66 $67 $68 $69 forward $26 $-1 #
face $-1 $70 $71 $16 $-1 $72 reversed single #
loop $-1 $-1 $73 $28 #
plane-surface $-1 0 -28.506379583832427 18.209273914189364 0 -1 0 0 0 -1 forward_v I I I I #
coedge $-1 $74 $75 $76 $77 reversed $29 $-1 #
face $-1 $78 $79 $17 $-1 $80 reversed single #
loop $-1 $-1 $81 $31 #
plane-surface $-1 38.923896880584593 -21.184821426162401 83.951863799325182 0 0.69465837861970381 0.71933979245794832 1 0 0 forward_v I I I I #
coedge $-1 $82 $83 $84 $85 reversed $32 $-1 #
face $-1 $-1 $86 $18 $-1 $87 forward single #
loop $-1 $88 $89 $34 #
cone-surface $-1 32.286042270066275 42.199468658908614 17.448016802327327 0 -0.69465837861970381 -0.71933979245794832 1 0 0 1 I I -0.70710678118654746 0.70710678118654746 1 forward I I I I #
loop $-1 $-1 $90 $23 #
coedge $-1 $56 $56 $91 $92 reversed $35 $-1 #
face $-1 $-1 $93 $19 $-1 $94 forward single #
loop $-1 $95 $96 $37 #
cone-surface $-1 45.561751491102925 42.199468658908614 17.448016802327327 0 -0.69465837861970381 -0.71933979245794832 1 0 0 1 I I -0.70710678118654746 0.70710678118654746 1 forward I I I I #
loop $-1 $-1 $97 $24 #
coedge $-1 $61 $61 $98 $99 reversed $38 $-1 #
face $-1 $100 $101 $15 $-1 $102 reversed single #
loop $-1 $-1 $103 $40 #
plane-surface $-1 0 -48.292243711828874 0 0 1 0 0 0 1 forward_v I I I I #
coedge $-1 $104 $105 $106 $107 forward $41 $-1 #
coedge $-1 $108 $43 $109 $110 forward $26 $-1 #
coedge $-1 $43 $108 $111 $112 forward $26 $-1 #
coedge $-1 $113 $114 $43 $69 reversed $115 $-1 #
edge $-1 $116 -48.292243711828874 $117 48.292243711828874 $68 $118 forward 7 unknown #
face $-1 $119 $120 $16 $-1 $121 reversed single #
loop $-1 $-1 $122 $44 #
plane-surface $-1 -69.701834162419516 0 0 1 0 0 0 0 -1 forward_v I I I I #
coedge $-1 $123 $124 $125 $126 reversed $45 $-1 #
coedge $-1 $127 $47 $128 $129 reversed $29 $-1 #
coedge $-1 $47 $127 $123 $130 forward $29 $-1 #
coedge $-1 $125 $131 $47 $77 forward $132 $-1 #
edge $-1 $133 -29.092587887913549 $134 -9.3067237599171015 $76 $135 forward 7 unknown #
face $-1 $136 $137 $17 $-1 $138 forward single #
loop $-1 $-1 $139 $48 #
plane-surface $-1 54.412224305127353 75.653104786009237 184.23046963999155 -1 0 0 0 0.69465837861970381 0.71933979245794832 forward_v I I I I #
coedge $-1 $140 $141 $142 $143 reversed $49 $-1 #
coedge $-1 $83 $51 $144 $145 reversed $32 $-1 #
coedge $-1 $51 $82 $140 $146 reversed $32 $-1 #
coedge $-1 $142 $147 $51 $85 forward $137 $-1 #
edge $-1 $148 -10.465691318824256 $149 -3.5712642163915618 $84 $150 forward 7 unknown #
loop $-1 $-1 $91 $52 #
plane-surface $-1 38.923896880584593 -21.184821426162401 83.951863799325182 0 0.69465837861970381 0.71933979245794832 1 0 0 forward_v I I I I #
loop $-1 $-1 $151 $34 #
coedge $-1 $89 $89 $90 $152 reversed $53 $-1 #
coedge $-1 $90 $90 $89 $152 forward $55 $-1 #
coedge $-1 $91 $91 $56 $92 forward $86 $-1 #
edge $-1 $153 -1.7537199311053519e-016 $153 6.2831853071796004 $91 $154 forward 7 unknown #
loop $-1 $-1 $98 $57 #
plane-surface $-1 38.923896880584593 -21.184821426162401 83.951863799325182 0 0.69465837861970381 0.71933979245794832 1 0 0 forward_v I I I I #
loop $-1 $-1 $155 $37 #
coedge $-1 $96 $96 $97 $156 reversed $58 $-1 #
coedge $-1 $97 $97 $96 $156 forward $60 $-1 #
coedge $-1 $98 $98 $61 $99 forward $93 $-1 #
edge $-1 $157 -1.7537199311053519e-016 $157 6.2831853071796004 $98 $158 forward 7 unknown #
face $-1 $159 $160 $15 $-1 $161 reversed single #
loop $-1 $-1 $162 $62 #
plane-surface $-1 -69.701834162419516 0 0 1 0 0 0 0 -1 forward_v I I I I #
coedge $-1 $163 $111 $164 $165 forward $63 $-1 #
coedge $-1 $166 $65 $163 $167 forward $41 $-1 #
coedge $-1 $65 $166 $168 $169 forward $41 $-1 #
coedge $-1 $114 $113 $65 $107 reversed $115 $-1 #
edge $-1 $170 -48.292243711828874 $171 48.292243711828874 $106 $172 forward 7 unknown #
coedge $-1 $67 $66 $173 $174 forward $26 $-1 #
coedge $-1 $175 $176 $66 $110 reversed $160 $-1 #
edge $-1 $117 -69.701834162419516 $177 69.701834162419516 $109 $178 forward 7 unknown #
coedge $-1 $103 $179 $67 $112 reversed $63 $-1 #
edge $-1 $180 -69.701834162419516 $116 69.701834162419516 $111 $181 forward 7 unknown #
coedge $-1 $106 $68 $179 $182 forward $115 $-1 #
coedge $-1 $68 $106 $175 $183 reversed $115 $-1 #
loop $-1 $-1 $113 $159 #
vertex $-1 $69 $184 #
vertex $-1 $69 $185 #
straight-curve $-1 69.701834162419516 0 23.516511378492236 0 1 0 I I #
face $-1 $186 $187 $16 $-1 $188 forward single #
loop $-1 $-1 $128 $70 #
plane-surface $-1 0 -48.292243711828874 0 0 1 0 0 0 1 forward_v I I I I #
coedge $-1 $189 $190 $191 $192 forward $71 $-1 #
coedge $-1 $191 $73 $75 $130 reversed $45 $-1 #
coedge $-1 $73 $191 $193 $194 reversed $45 $-1 #
coedge $-1 $195 $76 $73 $126 forward $132 $-1 #
edge $-1 $134 3.7973994927918095 $196 14.411874421397554 $125 $197 forward 7 unknown #
coedge $-1 $75 $74 $189 $198 reversed $29 $-1 #
coedge $-1 $199 $200 $74 $129 forward $120 $-1 #
edge $-1 $201 -69.701834162419516 $133 69.701834162419516 $128 $202 forward 7 unknown #
edge $-1 $203 -69.701834162419516 $134 69.701834162419516 $123 $204 forward 7 unknown #
coedge $-1 $76 $195 $199 $205 forward $132 $-1 #
loop $-1 $-1 $125 $186 #
vertex $-1 $129 $206 #
vertex $-1 $77 $207 #
straight-curve $-1 69.701834162419516 -19.199655823915325 12.902036449886491 0 1 0 I I #
face $-1 $-1 $208 $17 $-1 $209 reversed single #
loop $-1 $-1 $84 $78 #
plane-surface $-1 0 0 23.516511378492236 0 0 1 1 0 0 forward_v I I I I #
coedge $-1 $210 $211 $212 $213 reversed $79 $-1 #
coedge $-1 $214 $81 $83 $146 forward $49 $-1 #
coedge $-1 $81 $214 $210 $215 forward $49 $-1 #
coedge $-1 $212 $84 $81 $143 forward $137 $-1 #
edge $-1 $149 3.9736210157495364 $216 34.950275864835056 $142 $217 forward 7 unknown #
coedge $-1 $218 $219 $82 $145 forward $208 $-1 #
edge $-1 $220 -75.256594454203849 $148 -68.598723441503537 $144 $221 forward 7 unknown #
edge $-1 $149 87.000105779935808 $220 96.58448742365772 $83 $222 forward 7 unknown #
coedge $-1 $84 $212 $218 $223 forward $137 $-1 #
vertex $-1 $145 $224 #
vertex $-1 $85 $225 #
straight-curve $-1 23.435569456041833 37.826552393004619 23.51651137849224 0 -1 0 I I #
coedge $-1 $151 $151 $-1 $226 reversed $88 $-1 #
edge $-1 $227 0 $227 6.2831853071796004 $89 $228 forward 7 unknown #
vertex $-1 $92 $229 #
ellipse-curve $-1 32.286042270066275 44.845030160612524 20.187575872142091 0 0.69465837861970381 0.71933979245794832 2 0 0 1 I I #
coedge $-1 $155 $155 $-1 $230 reversed $95 $-1 #
edge $-1 $231 0 $231 6.2831853071796004 $96 $232 forward 7 unknown #
vertex $-1 $99 $233 #
ellipse-curve $-1 45.561751491102925 44.845030160612524 20.187575872142091 0 0.69465837861970381 0.71933979245794832 2 0 0 1 I I #
face $-1 $-1 $115 $15 $-1 $234 reversed single #
loop $-1 $-1 $175 $100 #
plane-surface $-1 0 48.292243711828874 0 0 -1 0 0 0 -1 forward_v I I I I #
coedge $-1 $235 $173 $176 $236 forward $101 $-1 #
coedge $-1 $179 $103 $104 $167 reversed $63 $-1 #
coedge $-1 $173 $235 $103 $165 reversed $101 $-1 #
edge $-1 $180 -23.516511378492236 $237 23.516511378492236 $164 $238 forward 7 unknown #
coedge $-1 $105 $104 $235 $239 forward $41 $-1 #
edge $-1 $171 -69.701834162419516 $237 69.701834162419516 $163 $240 forward 7 unknown #
coedge $-1 $176 $175 $105 $169 reversed $160 $-1 #
edge $-1 $241 -69.701834162419516 $170 69.701834162419516 $168 $242 forward 7 unknown #
vertex $-1 $107 $243 #
vertex $-1 $182 $244 #
straight-curve $-1 69.701834162419516 0 -23.516511378492236 0 -1 0 I I #
coedge $-1 $162 $164 $108 $174 reversed $101 $-1 #
edge $-1 $177 -48.292243711828874 $180 48.292243711828874 $173 $245 forward 7 unknown #
coedge $-1 $168 $109 $114 $183 forward $160 $-1 #
coedge $-1 $109 $168 $162 $236 reversed $160 $-1 #
vertex $-1 $110 $246 #
straight-curve $-1 0 48.292243711828874 23.516511378492236 -1 0 0 I I #
coedge $-1 $111 $163 $113 $182 reversed $63 $-1 #
vertex $-1 $174 $247 #
straight-curve $-1 0 -48.292243711828874 23.516511378492236 1 0 0 I I #
edge $-1 $116 -23.516511378492236 $171 23.516511378492236 $113 $248 forward 7 unknown #
edge $-1 $117 -23.516511378492236 $170 23.516511378492236 $114 $249 forward 7 unknown #
point $-1 69.701834162419516 -48.292243711828874 23.516511378492236 #
point $-1 69.701834162419516 48.292243711828874 23.516511378492236 #
face $-1 $-1 $132 $16 $-1 $250 reversed single #
loop $-1 $-1 $193 $119 #
plane-surface $-1 0 0 23.516511378492236 0 0 1 1 0 0 forward_v I I I I #
coedge $-1 $251 $122 $127 $198 forward $71 $-1 #
coedge $-1 $122 $251 $252 $253 reversed $71 $-1 #
coedge $-1 $124 $123 $122 $192 reversed $45 $-1 #
edge $-1 $254 -14.411874421397554 $203 -3.7973994927918095 $122 $255 forward 7 unknown #
coedge $-1 $252 $256 $124 $194 forward $187 $-1 #
edge $-1 $196 -69.701834162419516 $254 69.701834162419516 $193 $257 forward 7 unknown #
coedge $-1 $131 $125 $256 $258 reversed $132 $-1 #
vertex $-1 $126 $259 #
straight-curve $-1 69.701834162419516 -28.506379583832427 9.1046369570946819 0 0 1 I I #
edge $-1 $203 9.3067237599171015 $201 29.092587887913549 $189 $260 forward 7 unknown #
coedge $-1 $261 $128 $131 $205 reversed $120 $-1 #
coedge $-1 $128 $261 $251 $262 forward $120 $-1 #
vertex $-1 $129 $263 #
straight-curve $-1 0 -48.292243711828874 12.902036449886491 1 0 0 I I #
vertex $-1 $198 $264 #
straight-curve $-1 0 -28.506379583832427 12.902036449886491 1 0 0 I I #
edge $-1 $265 -23.516511378492236 $133 -12.902036449886491 $131 $266 forward 7 unknown #
point $-1 69.701834162419516 -48.292243711828874 12.902036449886491 #
point $-1 69.701834162419516 -28.506379583832427 12.902036449886491 #
loop $-1 $-1 $144 $136 #
plane-surface $-1 0 48.292243711828874 0 0 -1 0 0 0 -1 forward_v I I I I #
coedge $-1 $211 $139 $141 $215 reversed $79 $-1 #
coedge $-1 $139 $210 $267 $268 reversed $79 $-1 #
coedge $-1 $147 $142 $139 $213 forward $137 $-1 #
edge $-1 $216 3.5712642163915618 $269 10.465691318824256 $212 $270 forward 7 unknown #
coedge $-1 $141 $140 $219 $271 reversed $49 $-1 #
edge $-1 $272 -96.58448742365772 $216 -87.000105779935808 $210 $273 forward 7 unknown #
vertex $-1 $143 $274 #
straight-curve $-1 19.461948440292296 41.397816609396187 23.51651137849224 1 0 0 I I #
coedge $-1 $267 $144 $147 $223 reversed $208 $-1 #
coedge $-1 $144 $267 $214 $271 forward $208 $-1 #
vertex $-1 $145 $275 #
straight-curve $-1 23.435569456041833 48.292243711828874 92.115234819995777 0 0 1 I I #
straight-curve $-1 23.435569456041833 -21.184821426162401 83.951863799325182 0 0.71933979245794832 -0.69465837861970381 I I #
edge $-1 $269 -54.412224305127353 $148 -23.435569456041833 $218 $276 forward 7 unknown #
point $-1 23.435569456041833 48.292243711828874 23.516511378492236 #
point $-1 23.435569456041833 41.39781660939618 23.51651137849224 #
edge $-1 $277 1 $277 0 $151 $-1 forward 7 unknown #
vertex $-1 $152 $278 #
ellipse-curve $-1 32.286042270066275 42.894127037528321 18.167356594785275 0 0.69465837861970381 0.71933979245794832 2 0 0 1 I I #
point $-1 34.286042270066275 44.845030160612509 20.187575872142077 #
edge $-1 $279 1 $279 0 $155 $-1 forward 7 unknown #
vertex $-1 $156 $280 #
ellipse-curve $-1 45.561751491102925 42.894127037528321 18.167356594785275 0 0.69465837861970381 0.71933979245794832 2 0 0 1 I I #
point $-1 47.561751491102925 44.845030160612509 20.187575872142077 #
plane-surface $-1 69.701834162419516 0 0 -1 0 0 0 0 1 forward_v I I I I #
coedge $-1 $164 $162 $166 $239 reversed $101 $-1 #
edge $-1 $177 -23.516511378492236 $241 23.516511378492236 $176 $281 forward 7 unknown #
vertex $-1 $239 $282 #
straight-curve $-1 -69.701834162419516 -48.292243711828874 0 0 0 -1 I I #
edge $-1 $237 -48.292243711828874 $241 48.292243711828874 $235 $283 forward 7 unknown #
straight-curve $-1 0 -48.292243711828874 -23.516511378492236 -1 0 0 I I #
vertex $-1 $169 $284 #
straight-curve $-1 0 48.292243711828874 -23.516511378492236 1 0 0 I I #
point $-1 69.701834162419516 48.292243711828874 -23.516511378492236 #
point $-1 69.701834162419516 -48.292243711828874 -23.516511378492236 #
straight-curve $-1 -69.701834162419516 0 23.516511378492236 0 -1 0 I I #
point $-1 -69.701834162419516 48.292243711828874 23.516511378492236 #
point $-1 -69.701834162419516 -48.292243711828874 23.516511378492236 #
straight-curve $-1 69.701834162419516 -48.292243711828874 0 0 0 -1 I I #
straight-curve $-1 69.701834162419516 48.292243711828874 0 0 0 -1 I I #
plane-surface $-1 69.701834162419516 0 0 -1 0 0 0 0 1 forward_v I I I I #
coedge $-1 $190 $189 $200 $262 reversed $71 $-1 #
coedge $-1 $285 $193 $190 $253 forward $187 $-1 #
edge $-1 $254 28.506379583832427 $286 48.292243711828874 $190 $287 forward 7 unknown #
vertex $-1 $253 $288 #
straight-curve $-1 -69.701834162419516 -28.506379583832427 9.1046369570946819 0 0 -1 I I #
coedge $-1 $193 $285 $195 $258 forward $187 $-1 #
straight-curve $-1 0 -28.506379583832427 23.516511378492236 -1 0 0 I I #
edge $-1 $265 -48.292243711828874 $196 -28.506379583832427 $195 $289 forward 7 unknown #
point $-1 69.701834162419516 -28.506379583832427 23.516511378492236 #
straight-curve $-1 -69.701834162419516 -19.199655823915325 12.902036449886491 0 -1 0 I I #
coedge $-1 $200 $199 $285 $290 reversed $120 $-1 #
edge $-1 $286 -23.516511378492236 $201 -12.902036449886491 $251 $291 forward 7 unknown #
point $-1 -69.701834162419516 -48.292243711828874 12.902036449886491 #
point $-1 -69.701834162419516 -28.506379583832427 12.902036449886491 #
vertex $-1 $258 $292 #
straight-curve $-1 69.701834162419516 -48.292243711828874 0 0 0 -1 I I #
coedge $-1 $219 $218 $211 $268 forward $208 $-1 #
edge $-1 $269 68.598723441503537 $272 75.256594454203849 $267 $293 forward 7 unknown #
vertex $-1 $223 $294 #
straight-curve $-1 54.412224305127353 37.826552393004619 23.51651137849224 0 1 0 I I #
edge $-1 $272 -34.950275864835056 $220 -3.9736210157495364 $219 $295 forward 7 unknown #
vertex $-1 $271 $296 #
straight-curve $-1 54.412224305127353 -21.184821426162401 83.951863799325182 0 -0.71933979245794832 0.69465837861970381 I I #
point $-1 54.412224305127353 41.39781660939618 23.51651137849224 #
point $-1 23.435569456041833 48.292243711828874 16.858640365791928 #
straight-curve $-1 0 48.292243711828874 23.516511378492236 -1 0 0 I I #
vertex $-1 $226 $297 #
point $-1 34.286042270066275 42.894127037528321 18.167356594785275 #
vertex $-1 $230 $298 #
point $-1 47.561751491102925 42.894127037528321 18.167356594785275 #
straight-curve $-1 -69.701834162419516 48.292243711828874 0 0 0 -1 I I #
point $-1 -69.701834162419516 -48.292243711828874 -23.516511378492236 #
straight-curve $-1 -69.701834162419516 0 -23.516511378492236 0 1 0 I I #
point $-1 -69.701834162419516 48.292243711828874 -23.516511378492236 #
coedge $-1 $256 $252 $261 $290 forward $187 $-1 #
vertex $-1 $253 $299 #
straight-curve $-1 -69.701834162419516 0 23.516511378492236 0 -1 0 I I #
point $-1 -69.701834162419516 -28.506379583832427 23.516511378492236 #
straight-curve $-1 69.701834162419516 0 23.516511378492236 0 1 0 I I #
edge $-1 $286 -69.701834162419516 $265 69.701834162419516 $261 $300 forward 7 unknown #
straight-curve $-1 -69.701834162419516 -48.292243711828874 0 0 0 -1 I I #
point $-1 69.701834162419516 -48.292243711828874 23.516511378492236 #
straight-curve $-1 54.412224305127353 48.292243711828874 92.115234819995777 0 0 -1 I I #
point $-1 54.412224305127353 48.292243711828874 23.516511378492236 #
straight-curve $-1 19.461948440292296 48.292243711828874 16.858640365791928 -1 0 0 I I #
point $-1 54.412224305127353 48.292243711828874 16.858640365791928 #
point $-1 32.286042270066275 41.504810280288908 16.728677009869379 #
point $-1 45.561751491102925 41.504810280288908 16.728677009869379 #
point $-1 -69.701834162419516 -48.292243711828874 23.516511378492236 #
straight-curve $-1 0 -48.292243711828874 23.516511378492236 1 0 0 I I #
End-of-ACIS-data 