500 0 13 0           
7 Unknown 11 ACIS 5.0 NT 24 Thu Mar 25 21:23:07 1999 
-1 9.9999999999999995e-007 1e-010 
body $-1 $13 $-1 $14 #
body $-1 $15 $-1 $16 #
body $-1 $17 $-1 $18 #
body $-1 $19 $-1 $20 #
body $-1 $21 $-1 $22 #
body $-1 $23 $-1 $24 #
body $-1 $25 $-1 $26 #
body $-1 $27 $-1 $28 #
body $-1 $29 $-1 $30 #
body $-1 $31 $-1 $32 #
body $-1 $33 $-1 $34 #
body $-1 $35 $-1 $36 #
body $-1 $37 $-1 $38 #
lump $-1 $-1 $39 $0 #
transform $-1 1 0 0 0 1 0 0 0 1 74.857020783104957 35.625791952270639 13.258530916506226 1 rotate no_reflect no_shear #
lump $-1 $-1 $40 $1 #
transform $-1 1 0 0 0 1 0 0 0 1 74.857020783104957 35.625791952270639 13.258530916506226 1 rotate no_reflect no_shear #
lump $-1 $-1 $41 $2 #
transform $-1 1 0 0 0 1 0 0 0 1 74.857020783104957 35.625791952270639 13.258530916506226 1 rotate no_reflect no_shear #
lump $-1 $-1 $42 $3 #
transform $-1 1 0 0 0 1 0 0 0 1 74.857020783104957 35.625791952270639 13.258530916506226 1 rotate no_reflect no_shear #
lump $-1 $-1 $43 $4 #
transform $-1 1 0 0 0 1 0 0 0 1 74.857020783104957 35.625791952270639 13.258530916506226 1 rotate no_reflect no_shear #
lump $-1 $-1 $44 $5 #
transform $-1 1 0 0 0 1 0 0 0 1 74.857020783104957 35.625791952270639 13.258530916506226 1 rotate no_reflect no_shear #
lump $-1 $-1 $45 $6 #
transform $-1 1 0 0 0 1 0 0 0 1 74.857020783104957 35.625791952270639 13.258530916506226 1 rotate no_reflect no_shear #
lump $-1 $-1 $46 $7 #
transform $-1 1 0 0 0 1 0 0 0 1 74.857020783104957 35.625791952270639 13.258530916506226 1 rotate no_reflect no_shear #
lump $-1 $-1 $47 $8 #
transform $-1 1 0 0 0 1 0 0 0 1 74.857020783104957 35.625791952270639 13.258530916506226 1 rotate no_reflect no_shear #
lump $-1 $-1 $48 $9 #
transform $-1 1 0 0 0 1 0 0 0 1 74.857020783104957 35.625791952270639 13.258530916506226 1 rotate no_reflect no_shear #
lump $-1 $-1 $49 $10 #
transform $-1 1 0 0 0 1 0 0 0 1 74.857020783104957 35.625791952270639 13.258530916506226 1 rotate no_reflect no_shear #
lump $-1 $-1 $50 $11 #
transform $-1 1 0 0 0 1 0 0 0 1 74.857020783104957 35.625791952270639 13.258530916506226 1 rotate no_reflect no_shear #
lump $-1 $-1 $51 $12 #
transform $-1 1 0 0 0 1 0 0 0 1 74.857020783104957 35.625791952270639 13.258530916506226 1 rotate no_reflect no_shear #
shell $-1 $-1 $-1 $52 $-1 $13 #
shell $-1 $-1 $-1 $53 $-1 $15 #
shell $-1 $-1 $-1 $54 $-1 $17 #
shell $-1 $-1 $-1 $55 $-1 $19 #
shell $-1 $-1 $-1 $56 $-1 $21 #
shell $-1 $-1 $-1 $57 $-1 $23 #
shell $-1 $-1 $-1 $58 $-1 $25 #
shell $-1 $-1 $-1 $59 $-1 $27 #
shell $-1 $-1 $-1 $60 $-1 $29 #
shell $-1 $-1 $-1 $61 $-1 $31 #
shell $-1 $-1 $-1 $62 $-1 $33 #
shell $-1 $-1 $-1 $63 $-1 $35 #
shell $-1 $-1 $-1 $64 $-1 $37 #
face $-1 $65 $66 $39 $-1 $67 forward single #
face $-1 $68 $69 $40 $-1 $70 forward single #
face $-1 $71 $72 $41 $-1 $73 reversed single #
face $-1 $74 $75 $42 $-1 $76 forward single #
face $-1 $77 $78 $43 $-1 $79 forward single #
face $-1 $80 $81 $44 $-1 $82 reversed single #
face $-1 $83 $84 $45 $-1 $85 forward single #
face $-1 $86 $87 $46 $-1 $88 reversed single #
face $-1 $89 $90 $47 $-1 $91 forward single #
face $-1 $92 $93 $48 $-1 $94 reversed single #
face $-1 $95 $96 $49 $-1 $97 forward single #
face $-1 $98 $99 $50 $-1 $100 reversed single #
face $-1 $101 $102 $51 $-1 $103 forward single #
face $-1 $104 $105 $39 $-1 $106 reversed single #
loop $-1 $-1 $107 $52 #
plane-surface $-1 0 0 13.258530916506226 0 0 1 1 0 0 forward_v I I I I #
face $-1 $108 $109 $40 $-1 $110 reversed single #
loop $-1 $-1 $111 $53 #
plane-surface $-1 0 -30.596589651633842 -9.0933444316790588 0 0 1 1 0 0 forward_v I I I I #
face $-1 $112 $113 $41 $-1 $114 reversed single #
loop $-1 $-1 $115 $54 #
plane-surface $-1 41.735524494273307 27.532126991107525 213.48298491667958 0 1 0 0.5877852598018023 0 0.80901698891910034 forward_v I I I I #
face $-1 $116 $117 $42 $-1 $118 forward single #
loop $-1 $119 $120 $55 #
cone-surface $-1 68.195571839603673 29.844602694296988 8.0684489177713949 -0.5877852598018023 0 -0.80901698891910034 0.40450849445955017 0 -0.29389262990090115 1 I I 0 1 0.5 forward I I I I #
face $-1 $121 $122 $43 $-1 $123 forward single #
loop $-1 $124 $125 $56 #
cone-surface $-1 68.195571839603673 33.313316249081176 8.0684489177713949 -0.5877852598018023 0 -0.80901698891910034 0.40450849445955017 0 -0.29389262990090115 1 I I 0 1 0.5 forward I I I I #
face $-1 $126 $127 $44 $-1 $128 reversed single #
loop $-1 $-1 $129 $57 #
plane-surface $-1 -203.18700284260848 -20.201340700828169 79.753601094730826 0 1 0 -0.85716730853699208 0 0.51503806187062418 forward_v I I I I #
face $-1 $130 $131 $45 $-1 $132 forward single #
loop $-1 $133 $134 $58 #
cone-surface $-1 -70.896166143061549 -16.661331058717192 7.4878185816466507 0.85716730853699208 0 -0.51503806187062418 0.51503806187062418 0 0.85716730853699208 1 I I 0 1 1 forward I I I I #
face $-1 $135 $136 $46 $-1 $137 reversed single #
loop $-1 $-1 $138 $59 #
plane-surface $-1 -203.18700284260848 -5.740985127925514 79.753601094730826 0 1 0 -0.85716730853699208 0 0.51503806187062418 forward_v I I I I #
face $-1 $139 $140 $47 $-1 $141 forward single #
loop $-1 $142 $143 $60 #
cone-surface $-1 -70.896166143061549 -2.2009754858145314 7.4878185816466507 0.85716730853699208 0 -0.51503806187062418 0.51503806187062418 0 0.85716730853699208 1 I I 0 1 1 forward I I I I #
face $-1 $144 $145 $48 $-1 $146 reversed single #
loop $-1 $-1 $147 $61 #
plane-surface $-1 -203.18700284260848 8.7193704449771428 79.753601094730826 0 1 0 -0.85716730853699208 0 0.51503806187062418 forward_v I I I I #
face $-1 $148 $149 $49 $-1 $150 forward single #
loop $-1 $151 $152 $62 #
cone-surface $-1 -70.896166143061549 12.259380087088125 7.4878185816466507 0.85716730853699208 0 -0.51503806187062418 0.51503806187062418 0 0.85716730853699208 1 I I 0 1 1 forward I I I I #
face $-1 $153 $154 $50 $-1 $155 reversed single #
loop $-1 $-1 $156 $63 #
plane-surface $-1 -203.18700284260848 23.179726017879801 79.753601094730826 0 1 0 -0.85716730853699208 0 0.51503806187062418 forward_v I I I I #
face $-1 $157 $158 $51 $-1 $159 forward single #
loop $-1 $160 $161 $64 #
cone-surface $-1 -70.896166143061549 26.719735659990782 7.4878185816466507 0.85716730853699208 0 -0.51503806187062418 0.51503806187062418 0 0.85716730853699208 1 I I 0 1 1 forward I I I I #
face $-1 $162 $163 $39 $-1 $164 reversed single #
loop $-1 $-1 $165 $65 #
plane-surface $-1 0 0 -13.258530916506226 0 0 1 1 0 0 forward_v I I I I #
coedge $-1 $166 $167 $168 $169 forward $66 $-1 #
face $-1 $170 $171 $40 $-1 $172 reversed single #
loop $-1 $-1 $173 $68 #
plane-surface $-1 0 -25.567387350997045 -11.175937674092642 0 -1 0 0 0 -1 forward_v I I I I #
coedge $-1 $174 $175 $176 $177 reversed $69 $-1 #
face $-1 $178 $179 $41 $-1 $180 forward single #
loop $-1 $-1 $181 $71 #
plane-surface $-1 -46.264182323699217 31.578959471689082 92.36178180987541 0.5877852598018023 0 0.80901698891910034 0.80901698891910034 0 -0.5877852598018023 forward_v I I I I #
coedge $-1 $182 $183 $184 $185 reversed $72 $-1 #
face $-1 $-1 $186 $42 $-1 $187 forward single #
loop $-1 $188 $189 $74 #
cone-surface $-1 67.509637007091357 29.844602694296988 7.124340634108469 -0.5877852598018023 0 -0.80901698891910034 0.20225424722977509 0 -0.14694631495045057 1 I I -0.70710678118654624 0.70710678118654879 0.25 forward I I I I #
loop $-1 $-1 $190 $55 #
coedge $-1 $120 $120 $191 $192 reversed $75 $-1 #
face $-1 $-1 $193 $43 $-1 $194 forward single #
loop $-1 $195 $196 $77 #
cone-surface $-1 67.509637007091357 33.313316249081176 7.124340634108469 -0.5877852598018023 0 -0.80901698891910034 0.20225424722977509 0 -0.14694631495045057 1 I I -0.70710678118654624 0.70710678118654879 0.25 forward I I I I #
loop $-1 $-1 $197 $56 #
coedge $-1 $125 $125 $198 $199 reversed $78 $-1 #
face $-1 $200 $201 $44 $-1 $202 reversed single #
loop $-1 $-1 $203 $80 #
plane-surface $-1 -74.857020783104957 -16.661331058717195 2.6451712916520052 -0.85716730853699208 0 0.51503806187062418 0.51503806187062418 0 0.85716730853699208 forward_v I I I I #
coedge $-1 $204 $205 $206 $207 reversed $81 $-1 #
face $-1 $-1 $208 $45 $-1 $209 forward single #
loop $-1 $210 $211 $83 #
cone-surface $-1 -69.695302655954251 -16.661331058717192 6.7662670282788735 0.85716730853699208 0 -0.51503806187062418 0.25751903093531209 0 0.42858365426849604 1 I I -0.70710678118654746 0.70710678118654746 0.5 forward I I I I #
loop $-1 $-1 $212 $58 #
coedge $-1 $134 $134 $213 $214 reversed $84 $-1 #
face $-1 $215 $216 $46 $-1 $217 reversed single #
loop $-1 $-1 $218 $86 #
plane-surface $-1 -74.857020783104957 -2.2009754858145385 2.6451712916520052 -0.85716730853699208 0 0.51503806187062418 0.51503806187062418 0 0.85716730853699208 forward_v I I I I #
coedge $-1 $219 $220 $221 $222 reversed $87 $-1 #
face $-1 $-1 $223 $47 $-1 $224 forward single #
loop $-1 $225 $226 $89 #
cone-surface $-1 -69.695302655954251 -2.2009754858145314 6.7662670282788735 0.85716730853699208 0 -0.51503806187062418 0.25751903093531209 0 0.42858365426849604 1 I I -0.70710678118654746 0.70710678118654746 0.5 forward I I I I #
loop $-1 $-1 $227 $60 #
coedge $-1 $143 $143 $228 $229 reversed $90 $-1 #
face $-1 $230 $231 $48 $-1 $232 reversed single #
loop $-1 $-1 $233 $92 #
plane-surface $-1 -74.857020783104957 12.259380087088118 2.6451712916520052 -0.85716730853699208 0 0.51503806187062418 0.51503806187062418 0 0.85716730853699208 forward_v I I I I #
coedge $-1 $234 $235 $236 $237 reversed $93 $-1 #
face $-1 $-1 $238 $49 $-1 $239 forward single #
loop $-1 $240 $241 $95 #
cone-surface $-1 -69.695302655954251 12.259380087088125 6.7662670282788735 0.85716730853699208 0 -0.51503806187062418 0.25751903093531209 0 0.42858365426849604 1 I I -0.70710678118654746 0.70710678118654746 0.5 forward I I I I #
loop $-1 $-1 $242 $62 #
coedge $-1 $152 $152 $243 $244 reversed $96 $-1 #
face $-1 $245 $246 $50 $-1 $247 reversed single #
loop $-1 $-1 $248 $98 #
plane-surface $-1 -74.857020783104957 26.719735659990775 2.6451712916520052 -0.85716730853699208 0 0.51503806187062418 0.51503806187062418 0 0.85716730853699208 forward_v I I I I #
coedge $-1 $249 $250 $251 $252 reversed $99 $-1 #
face $-1 $-1 $253 $51 $-1 $254 forward single #
loop $-1 $255 $256 $101 #
cone-surface $-1 -69.695302655954251 26.719735659990782 6.7662670282788735 0.85716730853699208 0 -0.51503806187062418 0.25751903093531209 0 0.42858365426849604 1 I I -0.70710678118654746 0.70710678118654746 0.5 forward I I I I #
loop $-1 $-1 $257 $64 #
coedge $-1 $161 $161 $258 $259 reversed $102 $-1 #
face $-1 $260 $261 $39 $-1 $262 reversed single #
loop $-1 $-1 $263 $104 #
plane-surface $-1 0 -35.625791952270639 0 0 1 0 0 0 1 forward_v I I I I #
coedge $-1 $264 $265 $266 $267 forward $105 $-1 #
coedge $-1 $268 $107 $269 $270 forward $66 $-1 #
coedge $-1 $107 $268 $271 $272 forward $66 $-1 #
coedge $-1 $273 $274 $107 $169 reversed $275 $-1 #
edge $-1 $276 -35.625791952270639 $277 35.625791952270639 $168 $278 forward 7 unknown #
face $-1 $279 $280 $40 $-1 $281 reversed single #
loop $-1 $-1 $282 $108 #
plane-surface $-1 0 0 -13.258530916506226 0 0 1 1 0 0 forward_v I I I I #
coedge $-1 $283 $284 $285 $286 reversed $109 $-1 #
coedge $-1 $287 $111 $284 $288 forward $69 $-1 #
coedge $-1 $111 $287 $289 $290 reversed $69 $-1 #
coedge $-1 $291 $285 $111 $177 forward $280 $-1 #
edge $-1 $292 10.269092525180124 $293 20.327497126453718 $176 $294 forward 7 unknown #
face $-1 $295 $296 $41 $-1 $297 reversed single #
loop $-1 $-1 $298 $112 #
plane-surface $-1 0 0 13.258530916506226 0 0 1 1 0 0 forward_v I I I I #
coedge $-1 $299 $300 $301 $302 reversed $113 $-1 #
coedge $-1 $183 $115 $303 $304 reversed $72 $-1 #
coedge $-1 $115 $182 $299 $305 reversed $72 $-1 #
coedge $-1 $301 $306 $115 $185 forward $307 $-1 #
edge $-1 $308 93.482961541833561 $309 102.37941746643691 $184 $310 forward 7 unknown #
loop $-1 $-1 $191 $116 #
plane-surface $-1 -46.264182323699217 31.578959471689082 92.36178180987541 0.5877852598018023 0 0.80901698891910034 0.80901698891910034 0 -0.5877852598018023 forward_v I I I I #
loop $-1 $-1 $311 $74 #
coedge $-1 $189 $189 $190 $312 reversed $117 $-1 #
coedge $-1 $190 $190 $189 $312 forward $119 $-1 #
coedge $-1 $191 $191 $120 $192 forward $186 $-1 #
edge $-1 $313 0 $313 6.2831853071796004 $191 $314 forward 7 unknown #
loop $-1 $-1 $198 $121 #
plane-surface $-1 -46.264182323699217 31.578959471689082 92.36178180987541 0.5877852598018023 0 0.80901698891910034 0.80901698891910034 0 -0.5877852598018023 forward_v I I I I #
loop $-1 $-1 $315 $77 #
coedge $-1 $196 $196 $197 $316 reversed $122 $-1 #
coedge $-1 $197 $197 $196 $316 forward $124 $-1 #
coedge $-1 $198 $198 $125 $199 forward $193 $-1 #
edge $-1 $317 0 $317 6.2831853071796004 $198 $318 forward 7 unknown #
face $-1 $319 $320 $44 $-1 $321 reversed single #
loop $-1 $-1 $322 $126 #
plane-surface $-1 -203.18700284260848 -13.12132141660622 79.753601094730826 0 -1 0 0.85716730853699208 0 -0.51503806187062418 forward_v I I I I #
coedge $-1 $323 $324 $325 $326 reversed $127 $-1 #
coedge $-1 $205 $129 $327 $328 reversed $81 $-1 #
coedge $-1 $129 $204 $323 $329 reversed $81 $-1 #
coedge $-1 $325 $330 $129 $207 forward $331 $-1 #
edge $-1 $332 26.736480638199282 $333 33.113630252608488 $206 $334 forward 7 unknown #
loop $-1 $-1 $213 $130 #
plane-surface $-1 -74.857020783104957 -16.661331058717195 2.6451712916520052 -0.85716730853699208 0 0.51503806187062418 0.51503806187062418 0 0.85716730853699208 forward_v I I I I #
loop $-1 $-1 $335 $83 #
coedge $-1 $211 $211 $212 $336 reversed $131 $-1 #
coedge $-1 $212 $212 $211 $336 forward $133 $-1 #
coedge $-1 $213 $213 $134 $214 forward $208 $-1 #
edge $-1 $337 0 $337 6.2831853071796004 $213 $338 forward 7 unknown #
face $-1 $339 $340 $46 $-1 $341 forward single #
loop $-1 $-1 $342 $135 #
plane-surface $-1 -203.18700284260848 1.339034156296437 79.753601094730826 0 -1 0 0.85716730853699208 0 -0.51503806187062418 forward_v I I I I #
coedge $-1 $343 $344 $345 $346 reversed $136 $-1 #
coedge $-1 $220 $138 $347 $348 reversed $87 $-1 #
coedge $-1 $138 $219 $343 $349 reversed $87 $-1 #
coedge $-1 $345 $350 $138 $222 forward $340 $-1 #
edge $-1 $351 26.736480638199282 $352 33.113630252608488 $221 $353 forward 7 unknown #
loop $-1 $-1 $228 $139 #
plane-surface $-1 -74.857020783104957 -2.2009754858145385 2.6451712916520052 -0.85716730853699208 0 0.51503806187062418 0.51503806187062418 0 0.85716730853699208 forward_v I I I I #
loop $-1 $-1 $354 $89 #
coedge $-1 $226 $226 $227 $355 reversed $140 $-1 #
coedge $-1 $227 $227 $226 $355 forward $142 $-1 #
coedge $-1 $228 $228 $143 $229 forward $223 $-1 #
edge $-1 $356 0 $356 6.2831853071796004 $228 $357 forward 7 unknown #
face $-1 $358 $359 $48 $-1 $360 forward single #
loop $-1 $-1 $361 $144 #
plane-surface $-1 -203.18700284260848 15.799389729199094 79.753601094730826 0 -1 0 0.85716730853699208 0 -0.51503806187062418 forward_v I I I I #
coedge $-1 $362 $363 $364 $365 reversed $145 $-1 #
coedge $-1 $235 $147 $366 $367 reversed $93 $-1 #
coedge $-1 $147 $234 $362 $368 reversed $93 $-1 #
coedge $-1 $364 $369 $147 $237 forward $359 $-1 #
edge $-1 $370 26.736480638199282 $371 33.113630252608488 $236 $372 forward 7 unknown #
loop $-1 $-1 $243 $148 #
plane-surface $-1 -74.857020783104957 12.259380087088118 2.6451712916520052 -0.85716730853699208 0 0.51503806187062418 0.51503806187062418 0 0.85716730853699208 forward_v I I I I #
loop $-1 $-1 $373 $95 #
coedge $-1 $241 $241 $242 $374 reversed $149 $-1 #
coedge $-1 $242 $242 $241 $374 forward $151 $-1 #
coedge $-1 $243 $243 $152 $244 forward $238 $-1 #
edge $-1 $375 0 $375 6.2831853071796004 $243 $376 forward 7 unknown #
face $-1 $377 $378 $50 $-1 $379 forward single #
loop $-1 $-1 $380 $153 #
plane-surface $-1 -203.18700284260848 30.259745302101749 79.753601094730826 0 -1 0 0.85716730853699208 0 -0.51503806187062418 forward_v I I I I #
coedge $-1 $381 $382 $383 $384 reversed $154 $-1 #
coedge $-1 $250 $156 $385 $386 reversed $99 $-1 #
coedge $-1 $156 $249 $381 $387 reversed $99 $-1 #
coedge $-1 $383 $388 $156 $252 forward $378 $-1 #
edge $-1 $389 26.736480638199282 $390 33.113630252608488 $251 $391 forward 7 unknown #
loop $-1 $-1 $258 $157 #
plane-surface $-1 -74.857020783104957 26.719735659990775 2.6451712916520052 -0.85716730853699208 0 0.51503806187062418 0.51503806187062418 0 0.85716730853699208 forward_v I I I I #
loop $-1 $-1 $392 $101 #
coedge $-1 $256 $256 $257 $393 reversed $158 $-1 #
coedge $-1 $257 $257 $256 $393 forward $160 $-1 #
coedge $-1 $258 $258 $161 $259 forward $253 $-1 #
edge $-1 $394 0 $394 6.2831853071796004 $258 $395 forward 7 unknown #
face $-1 $396 $397 $39 $-1 $398 reversed single #
loop $-1 $-1 $399 $162 #
plane-surface $-1 -74.857020783104957 0 0 1 0 0 0 0 -1 forward_v I I I I #
coedge $-1 $400 $271 $401 $402 forward $163 $-1 #
coedge $-1 $403 $165 $400 $404 forward $105 $-1 #
coedge $-1 $165 $403 $405 $406 forward $105 $-1 #
coedge $-1 $274 $273 $165 $267 reversed $275 $-1 #
edge $-1 $407 -35.625791952270639 $408 35.625791952270639 $266 $409 forward 7 unknown #
coedge $-1 $167 $166 $410 $411 forward $66 $-1 #
coedge $-1 $412 $413 $166 $270 reversed $397 $-1 #
edge $-1 $277 -74.857020783104957 $414 74.857020783104957 $269 $415 forward 7 unknown #
coedge $-1 $263 $416 $167 $272 reversed $163 $-1 #
edge $-1 $417 -74.857020783104957 $276 74.857020783104957 $271 $418 forward 7 unknown #
coedge $-1 $266 $168 $416 $419 forward $275 $-1 #
coedge $-1 $168 $266 $412 $420 reversed $275 $-1 #
loop $-1 $-1 $273 $396 #
vertex $-1 $169 $421 #
vertex $-1 $169 $422 #
straight-curve $-1 74.857020783104957 0 13.258530916506226 0 1 0 I I #
face $-1 $423 $424 $40 $-1 $425 reversed single #
loop $-1 $-1 $285 $170 #
plane-surface $-1 74.857020783104957 0 0 -1 0 0 0 0 1 forward_v I I I I #
coedge $-1 $426 $427 $283 $428 forward $171 $-1 #
coedge $-1 $429 $173 $282 $428 reversed $109 $-1 #
coedge $-1 $173 $429 $174 $288 reversed $109 $-1 #
coedge $-1 $176 $430 $173 $286 forward $280 $-1 #
edge $-1 $431 -7.6705620794599048 $292 -3.5053755946327376 $285 $432 forward 7 unknown #
coedge $-1 $175 $174 $433 $434 reversed $69 $-1 #
edge $-1 $292 -74.857020783104957 $435 74.857020783104957 $284 $436 forward 7 unknown #
coedge $-1 $437 $438 $175 $290 forward $424 $-1 #
edge $-1 $293 -74.857020783104957 $439 74.857020783104957 $289 $440 forward 7 unknown #
coedge $-1 $430 $176 $438 $441 forward $280 $-1 #
vertex $-1 $177 $442 #
vertex $-1 $441 $443 #
straight-curve $-1 74.857020783104957 -15.298294825816921 -9.0933444316790588 0 -1 0 I I #
face $-1 $-1 $307 $41 $-1 $444 reversed single #
loop $-1 $-1 $445 $178 #
plane-surface $-1 0 35.625791952270639 0 0 -1 0 0 0 -1 forward_v I I I I #
coedge $-1 $303 $446 $447 $448 forward $179 $-1 #
coedge $-1 $447 $181 $183 $305 forward $113 $-1 #
coedge $-1 $181 $447 $445 $449 reversed $113 $-1 #
coedge $-1 $450 $184 $181 $302 forward $307 $-1 #
edge $-1 $309 11.742647255262984 $451 19.836312216426098 $301 $452 forward 7 unknown #
coedge $-1 $453 $298 $182 $304 forward $179 $-1 #
edge $-1 $454 41.744337684089516 $308 53.989258535968304 $303 $455 forward 7 unknown #
edge $-1 $309 -149.71404156620991 $454 -134.57848691211197 $183 $456 forward 7 unknown #
coedge $-1 $184 $450 $453 $457 reversed $307 $-1 #
loop $-1 $-1 $301 $295 #
vertex $-1 $457 $458 #
vertex $-1 $185 $459 #
straight-curve $-1 74.857020783104957 27.532126991107525 106.74149245833979 0 0 -1 I I #
coedge $-1 $311 $311 $-1 $460 reversed $188 $-1 #
edge $-1 $461 0 $461 6.2831853071796004 $189 $462 forward 7 unknown #
vertex $-1 $192 $463 #
ellipse-curve $-1 68.734560357165563 29.844602694296988 8.8103029542045626 0.5877852598018023 0 0.80901698891910034 0.40450849445955017 0 -0.29389262990090115 1 I I #
coedge $-1 $315 $315 $-1 $464 reversed $195 $-1 #
edge $-1 $465 0 $465 6.2831853071796004 $196 $466 forward 7 unknown #
vertex $-1 $199 $467 #
ellipse-curve $-1 68.734560357165563 33.313316249081176 8.8103029542045626 0.5877852598018023 0 0.80901698891910034 0.40450849445955017 0 -0.29389262990090115 1 I I #
face $-1 $-1 $331 $44 $-1 $468 forward single #
loop $-1 $-1 $469 $200 #
plane-surface $-1 -74.857020783104957 0 0 1 0 0 0 0 -1 forward_v I I I I #
coedge $-1 $470 $471 $472 $473 reversed $201 $-1 #
coedge $-1 $474 $203 $205 $329 forward $127 $-1 #
coedge $-1 $203 $474 $470 $475 forward $127 $-1 #
coedge $-1 $472 $206 $203 $326 forward $331 $-1 #
edge $-1 $333 -11.870675171469571 $476 -4.7906558872476221 $325 $477 forward 7 unknown #
coedge $-1 $478 $479 $204 $328 forward $320 $-1 #
edge $-1 $480 -37.231629255713408 $332 -26.618269630859189 $327 $481 forward 7 unknown #
edge $-1 $333 -12.381899681835792 $480 0 $205 $482 forward 7 unknown #
coedge $-1 $206 $472 $478 $483 forward $331 $-1 #
loop $-1 $-1 $472 $319 #
vertex $-1 $328 $484 #
vertex $-1 $207 $485 #
straight-curve $-1 -101.59350142130424 -20.201340700828169 13.258530916506224 1 0 0 I I #
coedge $-1 $335 $335 $-1 $486 reversed $210 $-1 #
edge $-1 $487 0 $487 6.2831853071796004 $211 $488 forward 7 unknown #
vertex $-1 $214 $489 #
ellipse-curve $-1 -71.668445975900354 -16.661331058717192 7.9518511040791164 -0.85716730853699208 0 0.51503806187062418 0.51503806187062418 0 0.85716730853699208 1 I I #
face $-1 $-1 $490 $46 $-1 $491 reversed single #
loop $-1 $-1 $221 $215 #
plane-surface $-1 0 0 13.258530916506226 0 0 1 1 0 0 forward_v I I I I #
coedge $-1 $492 $493 $494 $495 reversed $216 $-1 #
coedge $-1 $496 $218 $220 $349 forward $136 $-1 #
coedge $-1 $218 $496 $492 $497 forward $136 $-1 #
coedge $-1 $494 $221 $218 $346 forward $340 $-1 #
edge $-1 $352 -4.6404973850182447 $498 2.4395218992037062 $345 $499 forward 7 unknown #
coedge $-1 $500 $501 $219 $348 forward $490 $-1 #
edge $-1 $502 -37.231629255713408 $351 -26.618269630859189 $347 $503 forward 7 unknown #
edge $-1 $352 -12.381899681835792 $502 0 $220 $504 forward 7 unknown #
coedge $-1 $221 $494 $500 $505 forward $340 $-1 #
vertex $-1 $348 $506 #
vertex $-1 $222 $507 #
straight-curve $-1 -101.59350142130424 -5.740985127925514 13.258530916506224 1 0 0 I I #
coedge $-1 $354 $354 $-1 $508 reversed $225 $-1 #
edge $-1 $509 0 $509 6.2831853071796004 $226 $510 forward 7 unknown #
vertex $-1 $229 $511 #
ellipse-curve $-1 -71.668445975900354 -2.2009754858145314 7.9518511040791164 -0.85716730853699208 0 0.51503806187062418 0.51503806187062418 0 0.85716730853699208 1 I I #
face $-1 $-1 $512 $48 $-1 $513 reversed single #
loop $-1 $-1 $236 $230 #
plane-surface $-1 0 0 13.258530916506226 0 0 1 1 0 0 forward_v I I I I #
coedge $-1 $514 $515 $516 $517 reversed $231 $-1 #
coedge $-1 $518 $233 $235 $368 forward $145 $-1 #
coedge $-1 $233 $518 $514 $519 forward $145 $-1 #
coedge $-1 $516 $236 $233 $365 forward $359 $-1 #
edge $-1 $371 2.5896804014330836 $520 9.6696996856550346 $364 $521 forward 7 unknown #
coedge $-1 $522 $523 $234 $367 forward $512 $-1 #
edge $-1 $524 -37.231629255713408 $370 -26.618269630859189 $366 $525 forward 7 unknown #
edge $-1 $371 -12.381899681835792 $524 0 $235 $526 forward 7 unknown #
coedge $-1 $236 $516 $522 $527 forward $359 $-1 #
vertex $-1 $237 $528 #
vertex $-1 $237 $529 #
straight-curve $-1 -101.59350142130424 8.7193704449771428 13.258530916506224 1 0 0 I I #
coedge $-1 $373 $373 $-1 $530 reversed $240 $-1 #
edge $-1 $531 0 $531 6.2831853071796004 $241 $532 forward 7 unknown #
vertex $-1 $244 $533 #
ellipse-curve $-1 -71.668445975900354 12.259380087088125 7.9518511040791164 -0.85716730853699208 0 0.51503806187062418 0.51503806187062418 0 0.85716730853699208 1 I I #
face $-1 $-1 $534 $50 $-1 $535 reversed single #
loop $-1 $-1 $251 $245 #
plane-surface $-1 0 0 13.258530916506226 0 0 1 1 0 0 forward_v I I I I #
coedge $-1 $536 $537 $538 $539 reversed $246 $-1 #
coedge $-1 $540 $248 $250 $387 forward $154 $-1 #
coedge $-1 $248 $540 $536 $541 forward $154 $-1 #
coedge $-1 $538 $251 $248 $384 forward $378 $-1 #
edge $-1 $390 9.8198581878844138 $542 16.899877472106361 $383 $543 forward 7 unknown #
coedge $-1 $544 $545 $249 $386 forward $534 $-1 #
edge $-1 $546 -37.231629255713408 $389 -26.618269630859189 $385 $547 forward 7 unknown #
edge $-1 $390 -12.381899681835792 $546 0 $250 $548 forward 7 unknown #
coedge $-1 $251 $538 $544 $549 forward $378 $-1 #
vertex $-1 $252 $550 #
vertex $-1 $252 $551 #
straight-curve $-1 -101.59350142130424 23.179726017879801 13.258530916506224 1 0 0 I I #
coedge $-1 $392 $392 $-1 $552 reversed $255 $-1 #
edge $-1 $553 0 $553 6.2831853071796004 $256 $554 forward 7 unknown #
vertex $-1 $259 $555 #
ellipse-curve $-1 -71.668445975900354 26.719735659990782 7.9518511040791164 -0.85716730853699208 0 0.51503806187062418 0.51503806187062418 0 0.85716730853699208 1 I I #
face $-1 $-1 $275 $39 $-1 $556 reversed single #
loop $-1 $-1 $412 $260 #
plane-surface $-1 0 35.625791952270639 0 0 -1 0 0 0 -1 forward_v I I I I #
coedge $-1 $557 $410 $413 $558 forward $261 $-1 #
coedge $-1 $416 $263 $264 $404 reversed $163 $-1 #
coedge $-1 $410 $557 $263 $402 reversed $261 $-1 #
edge $-1 $417 -13.258530916506226 $559 13.258530916506226 $401 $560 forward 7 unknown #
coedge $-1 $265 $264 $557 $561 forward $105 $-1 #
edge $-1 $408 -74.857020783104957 $559 74.857020783104957 $400 $562 forward 7 unknown #
coedge $-1 $413 $412 $265 $406 reversed $397 $-1 #
edge $-1 $563 -74.857020783104957 $407 74.857020783104957 $405 $564 forward 7 unknown #
vertex $-1 $267 $565 #
vertex $-1 $419 $566 #
straight-curve $-1 74.857020783104957 0 -13.258530916506226 0 -1 0 I I #
coedge $-1 $399 $401 $268 $411 reversed $261 $-1 #
edge $-1 $414 -35.625791952270639 $417 35.625791952270639 $410 $567 forward 7 unknown #
coedge $-1 $405 $269 $274 $420 forward $397 $-1 #
coedge $-1 $269 $405 $399 $558 reversed $397 $-1 #
vertex $-1 $270 $568 #
straight-curve $-1 0 35.625791952270639 13.258530916506226 -1 0 0 I I #
coedge $-1 $271 $400 $273 $419 reversed $163 $-1 #
vertex $-1 $411 $569 #
straight-curve $-1 0 -35.625791952270639 13.258530916506226 1 0 0 I I #
edge $-1 $276 -13.258530916506226 $408 13.258530916506226 $273 $570 forward 7 unknown #
edge $-1 $277 -13.258530916506226 $407 13.258530916506226 $274 $571 forward 7 unknown #
point $-1 74.857020783104957 -35.625791952270639 13.258530916506226 #
point $-1 74.857020783104957 35.625791952270639 13.258530916506226 #
face $-1 $-1 $572 $40 $-1 $573 reversed single #
loop $-1 $-1 $289 $279 #
plane-surface $-1 0 -35.625791952270639 0 0 1 0 0 0 1 forward_v I I I I #
coedge $-1 $574 $282 $430 $575 forward $171 $-1 #
coedge $-1 $282 $574 $576 $577 forward $171 $-1 #
edge $-1 $578 -74.857020783104957 $431 74.857020783104957 $282 $579 forward 7 unknown #
coedge $-1 $284 $283 $580 $581 reversed $109 $-1 #
coedge $-1 $285 $291 $426 $575 reversed $280 $-1 #
vertex $-1 $575 $582 #
straight-curve $-1 74.857020783104957 -25.567387350997045 -5.5879688370463212 0 0 1 I I #
coedge $-1 $580 $583 $287 $434 forward $572 $-1 #
edge $-1 $439 -20.327497126453718 $435 -10.269092525180124 $433 $584 forward 7 unknown #
vertex $-1 $434 $585 #
straight-curve $-1 0 -25.567387350997045 -9.0933444316790588 -1 0 0 I I #
coedge $-1 $586 $289 $583 $587 forward $424 $-1 #
coedge $-1 $289 $586 $291 $441 reversed $424 $-1 #
vertex $-1 $587 $588 #
straight-curve $-1 0 -35.625791952270639 -9.0933444316790588 -1 0 0 I I #
edge $-1 $293 9.0933444316790588 $589 13.258530916506226 $291 $590 forward 7 unknown #
point $-1 74.857020783104957 -25.567387350997045 -9.0933444316790588 #
point $-1 74.857020783104957 -35.625791952270639 -9.0933444316790588 #
plane-surface $-1 74.857020783104957 0 0 -1 0 0 0 0 1 forward_v I I I I #
coedge $-1 $591 $592 $300 $449 forward $296 $-1 #
coedge $-1 $298 $453 $591 $593 forward $179 $-1 #
coedge $-1 $300 $299 $298 $448 reversed $113 $-1 #
edge $-1 $594 -19.836312216426098 $454 -11.742647255262984 $298 $595 forward 7 unknown #
edge $-1 $451 -103.8553398686107 $594 -88.719785214512768 $445 $596 forward 7 unknown #
coedge $-1 $306 $301 $592 $597 reversed $307 $-1 #
vertex $-1 $302 $598 #
straight-curve $-1 74.857020783104957 15.789479735844541 4.3620749919028938 0 1 0 I I #
coedge $-1 $446 $303 $306 $457 forward $179 $-1 #
vertex $-1 $304 $599 #
straight-curve $-1 20.867762247136653 27.532126991107525 13.258530916506231 1 0 0 I I #
straight-curve $-1 -46.264182323699217 27.532126991107525 92.36178180987541 -0.80901698891910034 0 0.5877852598018023 I I #
edge $-1 $308 27.532126991107525 $600 35.625791952270639 $306 $601 forward 7 unknown #
point $-1 74.857020783104957 27.532126991107525 13.258530916506226 #
point $-1 74.857020783104957 27.532126991107525 4.3620749919028867 #
edge $-1 $602 1 $602 0 $311 $-1 forward 7 unknown #
vertex $-1 $312 $603 #
ellipse-curve $-1 67.656583322041811 29.844602694296988 7.3265948813382451 0.5877852598018023 0 0.80901698891910034 0.40450849445955017 0 -0.29389262990090115 1 I I #
point $-1 69.139068851625098 29.844602694296988 8.5164103243036422 #
edge $-1 $604 1 $604 0 $315 $-1 forward 7 unknown #
vertex $-1 $316 $605 #
ellipse-curve $-1 67.656583322041811 33.313316249081176 7.3265948813382451 0.5877852598018023 0 0.80901698891910034 0.40450849445955017 0 -0.29389262990090115 1 I I #
point $-1 69.139068851625098 33.313316249081176 8.5164103243036422 #
plane-surface $-1 0 0 13.258530916506226 0 0 1 1 0 0 forward_v I I I I #
coedge $-1 $479 $478 $471 $606 forward $320 $-1 #
coedge $-1 $471 $322 $324 $475 reversed $201 $-1 #
coedge $-1 $322 $470 $469 $606 reversed $201 $-1 #
coedge $-1 $330 $325 $322 $473 forward $331 $-1 #
edge $-1 $476 -33.113630252608488 $607 -26.736480638199282 $472 $608 forward 7 unknown #
coedge $-1 $324 $323 $479 $609 reversed $127 $-1 #
edge $-1 $610 0 $476 12.381899681835792 $470 $611 forward 7 unknown #
vertex $-1 $326 $612 #
straight-curve $-1 -68.479871168695752 -8.3306655293585976 13.258530916506226 0 1 0 I I #
coedge $-1 $469 $327 $330 $483 reversed $320 $-1 #
coedge $-1 $327 $469 $474 $609 forward $320 $-1 #
vertex $-1 $328 $613 #
straight-curve $-1 -74.857020783104957 -20.201340700828169 39.876800547365413 0 0 1 I I #
straight-curve $-1 -74.857020783104957 -20.201340700828169 2.6451712916520052 -0.51503806187062418 0 -0.85716730853699208 I I #
edge $-1 $607 13.12132141660622 $332 20.201340700828169 $478 $614 forward 7 unknown #
point $-1 -74.857020783104957 -20.201340700828169 13.258530916506226 #
point $-1 -68.479871168695752 -20.201340700828169 13.258530916506226 #
edge $-1 $615 1 $615 0 $335 $-1 forward 7 unknown #
vertex $-1 $336 $616 #
ellipse-curve $-1 -70.123886310222744 -16.661331058717192 7.0237860592141859 -0.85716730853699208 0 0.51503806187062418 0.51503806187062418 0 0.85716730853699208 1 I I #
point $-1 -71.153407914029728 -16.661331058717192 8.8090184126161084 #
loop $-1 $-1 $347 $339 #
plane-surface $-1 -74.857020783104957 0 0 1 0 0 0 0 -1 forward_v I I I I #
coedge $-1 $493 $342 $344 $497 reversed $216 $-1 #
coedge $-1 $342 $492 $617 $618 reversed $216 $-1 #
coedge $-1 $350 $345 $342 $495 forward $340 $-1 #
edge $-1 $498 -33.113630252608488 $619 -26.736480638199282 $494 $620 forward 7 unknown #
coedge $-1 $344 $343 $501 $621 reversed $136 $-1 #
edge $-1 $622 0 $498 12.381899681835792 $492 $623 forward 7 unknown #
vertex $-1 $346 $624 #
straight-curve $-1 -68.479871168695752 -1.1004877429072693 13.258530916506226 0 1 0 I I #
coedge $-1 $617 $347 $350 $505 reversed $490 $-1 #
coedge $-1 $347 $617 $496 $621 forward $490 $-1 #
vertex $-1 $348 $625 #
straight-curve $-1 -74.857020783104957 -5.740985127925514 39.876800547365413 0 0 1 I I #
straight-curve $-1 -74.857020783104957 -5.740985127925514 2.6451712916520052 -0.51503806187062418 0 -0.85716730853699208 I I #
edge $-1 $619 -1.339034156296437 $351 5.740985127925514 $500 $626 forward 7 unknown #
point $-1 -74.857020783104957 -5.740985127925514 13.258530916506226 #
point $-1 -68.479871168695752 -5.740985127925514 13.258530916506226 #
edge $-1 $627 1 $627 0 $354 $-1 forward 7 unknown #
vertex $-1 $355 $628 #
ellipse-curve $-1 -70.123886310222744 -2.2009754858145314 7.0237860592141859 -0.85716730853699208 0 0.51503806187062418 0.51503806187062418 0 0.85716730853699208 1 I I #
point $-1 -71.153407914029728 -2.2009754858145314 8.8090184126161084 #
loop $-1 $-1 $366 $358 #
plane-surface $-1 -74.857020783104957 0 0 1 0 0 0 0 -1 forward_v I I I I #
coedge $-1 $515 $361 $363 $519 reversed $231 $-1 #
coedge $-1 $361 $514 $629 $630 reversed $231 $-1 #
coedge $-1 $369 $364 $361 $517 forward $359 $-1 #
edge $-1 $520 -33.113630252608488 $631 -26.736480638199282 $516 $632 forward 7 unknown #
coedge $-1 $363 $362 $523 $633 reversed $145 $-1 #
edge $-1 $634 0 $520 12.381899681835792 $514 $635 forward 7 unknown #
vertex $-1 $365 $636 #
straight-curve $-1 -68.479871168695752 6.1296900435440591 13.258530916506226 0 1 0 I I #
coedge $-1 $629 $366 $369 $527 reversed $512 $-1 #
coedge $-1 $366 $629 $518 $633 forward $512 $-1 #
vertex $-1 $367 $637 #
straight-curve $-1 -74.857020783104957 8.7193704449771428 39.876800547365413 0 0 1 I I #
straight-curve $-1 -74.857020783104957 8.7193704449771428 2.6451712916520052 -0.51503806187062418 0 -0.85716730853699208 I I #
edge $-1 $631 -15.799389729199094 $370 -8.7193704449771428 $522 $638 forward 7 unknown #
point $-1 -74.857020783104957 8.7193704449771428 13.258530916506226 #
point $-1 -68.479871168695752 8.7193704449771428 13.258530916506226 #
edge $-1 $639 1 $639 0 $373 $-1 forward 7 unknown #
vertex $-1 $374 $640 #
ellipse-curve $-1 -70.123886310222744 12.259380087088125 7.0237860592141859 -0.85716730853699208 0 0.51503806187062418 0.51503806187062418 0 0.85716730853699208 1 I I #
point $-1 -71.153407914029728 12.259380087088125 8.8090184126161084 #
loop $-1 $-1 $385 $377 #
plane-surface $-1 -74.857020783104957 0 0 1 0 0 0 0 -1 forward_v I I I I #
coedge $-1 $537 $380 $382 $541 reversed $246 $-1 #
coedge $-1 $380 $536 $641 $642 reversed $246 $-1 #
coedge $-1 $388 $383 $380 $539 forward $378 $-1 #
edge $-1 $542 -33.113630252608488 $643 -26.736480638199282 $538 $644 forward 7 unknown #
coedge $-1 $382 $381 $545 $645 reversed $154 $-1 #
edge $-1 $646 0 $542 12.381899681835792 $536 $647 forward 7 unknown #
vertex $-1 $384 $648 #
straight-curve $-1 -68.479871168695752 13.359867829995387 13.258530916506226 0 1 0 I I #
coedge $-1 $641 $385 $388 $549 reversed $534 $-1 #
coedge $-1 $385 $641 $540 $645 forward $534 $-1 #
vertex $-1 $386 $649 #
straight-curve $-1 -74.857020783104957 23.179726017879801 39.876800547365413 0 0 1 I I #
straight-curve $-1 -74.857020783104957 23.179726017879801 2.6451712916520052 -0.51503806187062418 0 -0.85716730853699208 I I #
edge $-1 $643 -30.259745302101749 $389 -23.179726017879801 $544 $650 forward 7 unknown #
point $-1 -74.857020783104957 23.179726017879801 13.258530916506226 #
point $-1 -68.479871168695752 23.179726017879801 13.258530916506226 #
edge $-1 $651 1 $651 0 $392 $-1 forward 7 unknown #
vertex $-1 $393 $652 #
ellipse-curve $-1 -70.123886310222744 26.719735659990782 7.0237860592141859 -0.85716730853699208 0 0.51503806187062418 0.51503806187062418 0 0.85716730853699208 1 I I #
point $-1 -71.153407914029728 26.719735659990782 8.8090184126161084 #
plane-surface $-1 74.857020783104957 0 0 -1 0 0 0 0 1 forward_v I I I I #
coedge $-1 $401 $399 $403 $561 reversed $261 $-1 #
edge $-1 $414 -13.258530916506226 $563 13.258530916506226 $413 $653 forward 7 unknown #
vertex $-1 $561 $654 #
straight-curve $-1 -74.857020783104957 -35.625791952270639 0 0 0 -1 I I #
edge $-1 $559 -35.625791952270639 $563 35.625791952270639 $557 $655 forward 7 unknown #
straight-curve $-1 0 -35.625791952270639 -13.258530916506226 -1 0 0 I I #
vertex $-1 $406 $656 #
straight-curve $-1 0 35.625791952270639 -13.258530916506226 1 0 0 I I #
point $-1 74.857020783104957 35.625791952270639 -13.258530916506226 #
point $-1 74.857020783104957 -35.625791952270639 -13.258530916506226 #
straight-curve $-1 -74.857020783104957 0 13.258530916506226 0 -1 0 I I #
point $-1 -74.857020783104957 35.625791952270639 13.258530916506226 #
point $-1 -74.857020783104957 -35.625791952270639 13.258530916506226 #
straight-curve $-1 74.857020783104957 -35.625791952270639 0 0 0 -1 I I #
straight-curve $-1 74.857020783104957 35.625791952270639 0 0 0 -1 I I #
loop $-1 $-1 $580 $423 #
plane-surface $-1 -74.857020783104957 0 0 1 0 0 0 0 -1 forward_v I I I I #
coedge $-1 $427 $426 $586 $657 forward $171 $-1 #
edge $-1 $431 25.567387350997045 $589 35.625791952270639 $430 $658 forward 7 unknown #
coedge $-1 $583 $580 $427 $577 reversed $572 $-1 #
edge $-1 $659 -35.625791952270639 $578 -25.567387350997045 $576 $660 forward 7 unknown #
vertex $-1 $581 $661 #
straight-curve $-1 0 -25.567387350997045 -13.258530916506226 1 0 0 I I #
coedge $-1 $576 $433 $429 $581 forward $572 $-1 #
edge $-1 $435 3.5053755946327376 $578 7.6705620794599048 $580 $662 forward 7 unknown #
point $-1 74.857020783104957 -25.567387350997045 -13.258530916506226 #
coedge $-1 $433 $576 $437 $587 reversed $572 $-1 #
straight-curve $-1 -74.857020783104957 -15.298294825816921 -9.0933444316790588 0 1 0 I I #
point $-1 -74.857020783104957 -25.567387350997045 -9.0933444316790588 #
coedge $-1 $438 $437 $574 $657 reversed $424 $-1 #
edge $-1 $439 9.0933444316790588 $659 13.258530916506226 $583 $663 forward 7 unknown #
point $-1 -74.857020783104957 -35.625791952270639 -9.0933444316790588 #
vertex $-1 $441 $664 #
straight-curve $-1 74.857020783104957 -35.625791952270639 0 0 0 -1 I I #
coedge $-1 $592 $445 $446 $593 reversed $296 $-1 #
coedge $-1 $445 $591 $450 $597 forward $296 $-1 #
edge $-1 $600 -74.857020783104957 $594 -62.612099931226169 $591 $665 forward 7 unknown #
vertex $-1 $448 $666 #
straight-curve $-1 62.612099931226183 15.789479735844541 13.258530916506217 0 -1 0 I I #
straight-curve $-1 -9.1637135605682722 35.625791952270639 65.406712918378716 -0.80901698891910034 0 0.5877852598018023 I I #
edge $-1 $600 -13.258530916506226 $451 -4.3620749919028929 $450 $667 forward 7 unknown #
point $-1 74.857020783104957 35.625791952270639 4.3620749919028929 #
point $-1 62.612099931226169 27.532126991107525 13.258530916506231 #
vertex $-1 $457 $668 #
straight-curve $-1 74.857020783104957 0 13.258530916506226 0 1 0 I I #
vertex $-1 $460 $669 #
point $-1 68.06109181650136 29.844602694296988 7.0327022514373434 #
vertex $-1 $464 $670 #
point $-1 68.06109181650136 33.313316249081176 7.0327022514373434 #
edge $-1 $607 26.618269630859189 $610 37.231629255713408 $469 $671 forward 7 unknown #
vertex $-1 $483 $672 #
straight-curve $-1 -101.59350142130424 -13.12132141660622 13.258530916506224 -1 0 0 I I #
edge $-1 $610 4.7906558872476221 $480 11.870675171469571 $479 $673 forward 7 unknown #
vertex $-1 $609 $674 #
straight-curve $-1 -74.857020783104957 -13.12132141660622 2.6451712916520052 0.51503806187062418 0 0.85716730853699208 I I #
point $-1 -68.479871168695752 -13.12132141660622 13.258530916506226 #
point $-1 -74.857020783104957 -20.201340700828169 2.6451712916520052 #
straight-curve $-1 -74.857020783104957 0 13.258530916506226 0 -1 0 I I #
vertex $-1 $486 $675 #
point $-1 -69.608848248352118 -16.661331058717192 7.8809533677511778 #
coedge $-1 $501 $500 $493 $618 forward $490 $-1 #
edge $-1 $619 26.618269630859189 $622 37.231629255713408 $617 $676 forward 7 unknown #
vertex $-1 $505 $677 #
straight-curve $-1 -101.59350142130424 1.339034156296437 13.258530916506224 -1 0 0 I I #
edge $-1 $622 -2.4395218992037062 $502 4.6404973850182447 $501 $678 forward 7 unknown #
vertex $-1 $621 $679 #
straight-curve $-1 -74.857020783104957 1.339034156296437 2.6451712916520052 0.51503806187062418 0 0.85716730853699208 I I #
point $-1 -68.479871168695752 1.339034156296437 13.258530916506226 #
point $-1 -74.857020783104957 -5.740985127925514 2.6451712916520052 #
straight-curve $-1 -74.857020783104957 0 13.258530916506226 0 -1 0 I I #
vertex $-1 $508 $680 #
point $-1 -69.608848248352118 -2.2009754858145314 7.8809533677511778 #
coedge $-1 $523 $522 $515 $630 forward $512 $-1 #
edge $-1 $631 26.618269630859189 $634 37.231629255713408 $629 $681 forward 7 unknown #
vertex $-1 $527 $682 #
straight-curve $-1 -101.59350142130424 15.799389729199094 13.258530916506224 -1 0 0 I I #
edge $-1 $634 -9.6696996856550346 $524 -2.5896804014330836 $523 $683 forward 7 unknown #
vertex $-1 $633 $684 #
straight-curve $-1 -74.857020783104957 15.799389729199094 2.6451712916520052 0.51503806187062418 0 0.85716730853699208 I I #
point $-1 -68.479871168695752 15.799389729199094 13.258530916506226 #
point $-1 -74.857020783104957 8.7193704449771428 2.6451712916520052 #
straight-curve $-1 -74.857020783104957 0 13.258530916506226 0 -1 0 I I #
vertex $-1 $530 $685 #
point $-1 -69.608848248352118 12.259380087088125 7.8809533677511778 #
coedge $-1 $545 $544 $537 $642 forward $534 $-1 #
edge $-1 $643 26.618269630859189 $646 37.231629255713408 $641 $686 forward 7 unknown #
vertex $-1 $549 $687 #
straight-curve $-1 -101.59350142130424 30.259745302101749 13.258530916506224 -1 0 0 I I #
edge $-1 $646 -16.899877472106361 $546 -9.8198581878844138 $545 $688 forward 7 unknown #
vertex $-1 $645 $689 #
straight-curve $-1 -74.857020783104957 30.259745302101749 2.6451712916520052 0.51503806187062418 0 0.85716730853699208 I I #
point $-1 -68.479871168695752 30.259745302101749 13.258530916506226 #
point $-1 -74.857020783104957 23.179726017879801 2.6451712916520052 #
straight-curve $-1 -74.857020783104957 0 13.258530916506226 0 -1 0 I I #
vertex $-1 $552 $690 #
point $-1 -69.608848248352118 26.719735659990782 7.8809533677511778 #
straight-curve $-1 -74.857020783104957 35.625791952270639 0 0 0 -1 I I #
point $-1 -74.857020783104957 -35.625791952270639 -13.258530916506226 #
straight-curve $-1 -74.857020783104957 0 -13.258530916506226 0 1 0 I I #
point $-1 -74.857020783104957 35.625791952270639 -13.258530916506226 #
edge $-1 $589 -74.857020783104957 $659 74.857020783104957 $586 $691 forward 7 unknown #
straight-curve $-1 74.857020783104957 0 -13.258530916506226 0 -1 0 I I #
vertex $-1 $577 $692 #
straight-curve $-1 -74.857020783104957 0 -13.258530916506226 0 1 0 I I #
point $-1 -74.857020783104957 -25.567387350997045 -13.258530916506226 #
straight-curve $-1 -74.857020783104957 -25.567387350997045 -5.5879688370463212 0 0 -1 I I #
straight-curve $-1 -74.857020783104957 -35.625791952270639 0 0 0 -1 I I #
point $-1 74.857020783104957 -35.625791952270639 -13.258530916506226 #
straight-curve $-1 0 35.625791952270639 13.258530916506226 -1 0 0 I I #
point $-1 62.612099931226169 35.625791952270639 13.258530916506231 #
straight-curve $-1 74.857020783104957 35.625791952270639 0 0 0 -1 I I #
point $-1 74.857020783104957 35.625791952270639 13.258530916506226 #
point $-1 67.362690692140902 29.844602694296988 6.9220863868786928 #
point $-1 67.362690692140902 33.313316249081176 6.9220863868786928 #
straight-curve $-1 -74.857020783104957 -13.12132141660622 39.876800547365413 0 0 -1 I I #
point $-1 -74.857020783104957 -13.12132141660622 13.258530916506226 #
straight-curve $-1 -74.857020783104957 -8.3306655293585976 2.6451712916520167 0 -1 0 I I #
point $-1 -74.857020783104957 -13.12132141660622 2.6451712916520052 #
point $-1 -69.266719001685757 -16.661331058717192 6.5087479973435611 #
straight-curve $-1 -74.857020783104957 1.339034156296437 39.876800547365413 0 0 -1 I I #
point $-1 -74.857020783104957 1.339034156296437 13.258530916506226 #
straight-curve $-1 -74.857020783104957 -1.1004877429072693 2.6451712916520167 0 -1 0 I I #
point $-1 -74.857020783104957 1.339034156296437 2.6451712916520052 #
point $-1 -69.266719001685757 -2.2009754858145314 6.5087479973435611 #
straight-curve $-1 -74.857020783104957 15.799389729199094 39.876800547365413 0 0 -1 I I #
point $-1 -74.857020783104957 15.799389729199094 13.258530916506226 #
straight-curve $-1 -74.857020783104957 6.1296900435440591 2.6451712916520167 0 -1 0 I I #
point $-1 -74.857020783104957 15.799389729199094 2.6451712916520052 #
point $-1 -69.266719001685757 12.259380087088125 6.5087479973435611 #
straight-curve $-1 -74.857020783104957 30.259745302101749 39.876800547365413 0 0 -1 I I #
point $-1 -74.857020783104957 30.259745302101749 13.258530916506226 #
straight-curve $-1 -74.857020783104957 13.359867829995387 2.6451712916520167 0 -1 0 I I #
point $-1 -74.857020783104957 30.259745302101749 2.6451712916520052 #
point $-1 -69.266719001685757 26.719735659990782 6.5087479973435611 #
straight-curve $-1 0 -35.625791952270639 -13.258530916506226 -1 0 0 I I #
point $-1 -74.857020783104957 -35.625791952270639 -13.258530916506226 #
End-of-ACIS-data 