600 0 4 0           
108 GICL ACIS Healer - Source: /gicl/data5/repository/Drexel/CICIRELLO-THESISDATA/Part1000.smdg.deltas.sat - 6 0 18 ACIS 6.0.3 Solaris 24 Fri Apr 12 10:10:35 2002 
1 9.999999999999999547e-07 1.000000000000000036e-10 
body $-1 $4 $-1 $-1 #
body $-1 $5 $-1 $-1 #
body $-1 $6 $-1 $-1 #
body $-1 $7 $-1 $-1 #
lump $-1 $-1 $8 $0 #
lump $-1 $-1 $9 $1 #
lump $-1 $-1 $10 $2 #
lump $-1 $-1 $11 $3 #
shell $-1 $-1 $-1 $12 $-1 $4 #
shell $-1 $-1 $-1 $13 $-1 $5 #
shell $-1 $-1 $-1 $14 $-1 $6 #
shell $-1 $-1 $-1 $15 $-1 $7 #
face $-1 $16 $17 $8 $-1 $18 forward single #
face $-1 $19 $20 $9 $-1 $21 reversed single #
face $-1 $22 $23 $10 $-1 $24 reversed single #
face $-1 $25 $26 $11 $-1 $27 forward single #
face $-1 $28 $29 $8 $-1 $30 reversed single #
loop $-1 $-1 $31 $12 #
plane-surface $-1 46.69820245979186524 24.11042145310894824 10.32450232176131166 0 0 1 1 0 0 forward_v I I I I #
face $-1 $32 $33 $9 $-1 $34 reversed single #
loop $-1 $-1 $35 $13 #
plane-surface $-1 46.69820245979186524 3.333208559330689269 7.253114911200907677 0 0 1 1 0 0 forward_v I I I I #
face $-1 $36 $37 $10 $-1 $38 reversed single #
loop $-1 $-1 $39 $14 #
plane-surface $-1 69.17450957408874501 97.06836101316386589 100.3604326485608595 1 0 0 0 -0.8191520524228198541 -0.5735764247347356903 forward_v I I I I #
face $-1 $40 $41 $11 $-1 $42 forward single #
loop $-1 $43 $44 $15 #
cone-surface $-1 75.32307535283808875 46.58264486594089249 8.404131293450802787 0 -0.8191520524228198541 -0.5735764247347356903 0.5 0 0 1 I I 0 1 0.5 forward I I I I #
face $-1 $45 $46 $8 $-1 $47 reversed single #
loop $-1 $-1 $48 $16 #
plane-surface $-1 46.69820245979186524 24.11042145310894824 0 0 0 1 1 0 0 forward_v I I I I #
coedge $-1 $49 $50 $51 $52 forward $17 $-1 #
face $-1 $53 $54 $9 $-1 $55 reversed single #
loop $-1 $-1 $56 $19 #
plane-surface $-1 46.69820245979186524 6.666417118661378538 8.788808616481109226 0 -1 0 0 0 -1 forward_v I I I I #
coedge $-1 $57 $58 $59 $60 reversed $20 $-1 #
face $-1 $61 $62 $10 $-1 $63 reversed single #
loop $-1 $-1 $64 $22 #
plane-surface $-1 75.32307535283808875 20.5625042343740958 46.79045663170834501 0 0.8191520524228198541 0.5735764247347356903 1 0 0 forward_v I I I I #
coedge $-1 $65 $66 $67 $68 reversed $23 $-1 #
face $-1 $-1 $69 $11 $-1 $70 forward single #
loop $-1 $71 $72 $25 #
cone-surface $-1 75.32307535283808875 45.80196048589166935 7.857490222076478403 0 -0.8191520524228198541 -0.5735764247347356903 0.25 0 0 1 I I -0.7071067811865474617 0.7071067811865474617 0.25 forward I I I I #
loop $-1 $-1 $73 $15 #
coedge $-1 $44 $44 $74 $75 reversed $26 $-1 #
face $-1 $76 $77 $8 $-1 $78 reversed single #
loop $-1 $-1 $79 $28 #
plane-surface $-1 46.69820245979186524 0 5.162251160880655831 0 1 0 0 0 1 forward_v I I I I #
coedge $-1 $80 $81 $82 $83 forward $29 $-1 #
coedge $-1 $84 $31 $85 $86 forward $17 $-1 #
coedge $-1 $31 $84 $87 $88 forward $17 $-1 #
coedge $-1 $89 $90 $31 $52 reversed $91 $-1 #
edge $-1 $92 -24.11042145310894824 $93 24.11042145310894824 $51 $94 forward 7 unknown #
face $-1 $95 $96 $9 $-1 $97 reversed single #
loop $-1 $-1 $98 $32 #
plane-surface $-1 0 24.11042145310894824 5.162251160880655831 1 0 0 0 0 -1 forward_v I I I I #
coedge $-1 $99 $100 $101 $102 reversed $33 $-1 #
coedge $-1 $103 $35 $104 $105 reversed $20 $-1 #
coedge $-1 $35 $103 $99 $106 forward $20 $-1 #
coedge $-1 $101 $107 $35 $60 forward $108 $-1 #
edge $-1 $109 -13.72181500621981876 $110 -7.055397887558440218 $59 $111 forward 7 unknown #
face $-1 $112 $113 $10 $-1 $114 forward single #
loop $-1 $-1 $115 $36 #
plane-surface $-1 81.47164113158743248 97.06836101316386589 100.3604326485608595 -1 0 0 0 0.8191520524228198541 0.5735764247347356903 forward_v I I I I #
coedge $-1 $116 $117 $118 $119 reversed $37 $-1 #
coedge $-1 $66 $39 $120 $121 reversed $23 $-1 #
coedge $-1 $39 $65 $116 $122 reversed $23 $-1 #
coedge $-1 $118 $123 $39 $68 forward $113 $-1 #
edge $-1 $124 12.36854832691850703 $125 14.49315167358549417 $67 $126 forward 7 unknown #
loop $-1 $-1 $74 $40 #
plane-surface $-1 75.32307535283808875 20.5625042343740958 46.79045663170834501 0 0.8191520524228198541 0.5735764247347356903 1 0 0 forward_v I I I I #
loop $-1 $-1 $127 $25 #
coedge $-1 $72 $72 $73 $128 reversed $41 $-1 #
coedge $-1 $73 $73 $72 $128 forward $43 $-1 #
coedge $-1 $74 $74 $44 $75 forward $69 $-1 #
edge $-1 $129 1.048159707662053832e-14 $129 6.28318530717959689 $74 $130 forward 7 unknown #
face $-1 $131 $132 $8 $-1 $133 reversed single #
loop $-1 $-1 $134 $45 #
plane-surface $-1 0 24.11042145310894824 5.162251160880655831 1 0 0 0 0 -1 forward_v I I I I #
coedge $-1 $135 $87 $136 $137 forward $46 $-1 #
coedge $-1 $138 $48 $135 $139 forward $29 $-1 #
coedge $-1 $48 $138 $140 $141 forward $29 $-1 #
coedge $-1 $90 $89 $48 $83 reversed $91 $-1 #
edge $-1 $142 -24.11042145310894824 $143 24.11042145310894824 $82 $144 forward 7 unknown #
coedge $-1 $50 $49 $145 $146 forward $17 $-1 #
coedge $-1 $147 $148 $49 $86 reversed $132 $-1 #
edge $-1 $93 -46.69820245979186524 $149 46.69820245979186524 $85 $150 forward 7 unknown #
coedge $-1 $79 $151 $50 $88 reversed $46 $-1 #
edge $-1 $152 -46.69820245979186524 $92 46.69820245979186524 $87 $153 forward 7 unknown #
coedge $-1 $82 $51 $151 $154 forward $91 $-1 #
coedge $-1 $51 $82 $147 $155 reversed $91 $-1 #
loop $-1 $-1 $89 $131 #
vertex $-1 $52 $156 #
vertex $-1 $52 $157 #
straight-curve $-1 93.39640491958373048 24.11042145310894824 10.32450232176131166 0 1 0 I I #
face $-1 $158 $159 $9 $-1 $160 forward single #
loop $-1 $-1 $104 $53 #
plane-surface $-1 46.69820245979186524 0 5.162251160880655831 0 1 0 0 0 1 forward_v I I I I #
coedge $-1 $161 $162 $163 $164 forward $54 $-1 #
coedge $-1 $163 $56 $58 $106 reversed $33 $-1 #
coedge $-1 $56 $163 $165 $166 reversed $33 $-1 #
coedge $-1 $167 $59 $56 $102 forward $108 $-1 #
edge $-1 $110 0.2775850225200251487 $168 3.348972433080429134 $101 $169 forward 7 unknown #
coedge $-1 $58 $57 $161 $170 reversed $20 $-1 #
coedge $-1 $171 $172 $57 $105 forward $96 $-1 #
edge $-1 $173 -46.69820245979186524 $109 46.69820245979186524 $104 $174 forward 7 unknown #
edge $-1 $175 -46.69820245979186524 $110 46.69820245979186524 $99 $176 forward 7 unknown #
coedge $-1 $59 $167 $171 $177 forward $108 $-1 #
loop $-1 $-1 $101 $158 #
vertex $-1 $105 $178 #
vertex $-1 $60 $179 #
straight-curve $-1 93.39640491958373048 13.72181500621981876 7.253114911200907677 0 1 0 I I #
face $-1 $-1 $180 $10 $-1 $181 reversed single #
loop $-1 $-1 $67 $61 #
plane-surface $-1 46.69820245979186524 24.11042145310894824 10.32450232176131166 0 0 1 1 0 0 forward_v I I I I #
coedge $-1 $182 $183 $184 $185 reversed $62 $-1 #
coedge $-1 $186 $64 $66 $122 forward $37 $-1 #
coedge $-1 $64 $186 $182 $187 forward $37 $-1 #
coedge $-1 $184 $67 $64 $119 forward $113 $-1 #
edge $-1 $125 8.163870667773764467 $188 20.46100222527245194 $118 $189 forward 7 unknown #
coedge $-1 $190 $191 $65 $121 forward $180 $-1 #
edge $-1 $192 -45.47108770919916765 $124 -42.43683958295945047 $120 $193 forward 7 unknown #
edge $-1 $125 44.51670993448782099 $192 48.22084290621789648 $66 $194 forward 7 unknown #
coedge $-1 $67 $184 $190 $195 forward $113 $-1 #
vertex $-1 $121 $196 #
vertex $-1 $68 $197 #
straight-curve $-1 69.17450957408874501 60.58939123313640351 10.32450232176131344 0 -1 0 I I #
coedge $-1 $127 $127 $-1 $198 reversed $71 $-1 #
edge $-1 $199 0 $199 6.283185307179586232 $72 $200 forward 7 unknown #
vertex $-1 $75 $201 #
ellipse-curve $-1 75.32307535283808875 47.15854123288440292 8.807378258641442415 0 0.8191520524228198541 0.5735764247347356903 0.5 0 0 1 I I #
face $-1 $-1 $91 $8 $-1 $202 reversed single #
loop $-1 $-1 $147 $76 #
plane-surface $-1 46.69820245979186524 48.22084290621789648 5.162251160880655831 0 -1 0 0 0 -1 forward_v I I I I #
coedge $-1 $203 $145 $148 $204 forward $77 $-1 #
coedge $-1 $151 $79 $80 $139 reversed $46 $-1 #
coedge $-1 $145 $203 $79 $137 reversed $77 $-1 #
edge $-1 $152 -5.162251160880655831 $205 5.162251160880655831 $136 $206 forward 7 unknown #
coedge $-1 $81 $80 $203 $207 forward $29 $-1 #
edge $-1 $143 -46.69820245979186524 $205 46.69820245979186524 $135 $208 forward 7 unknown #
coedge $-1 $148 $147 $81 $141 reversed $132 $-1 #
edge $-1 $209 -46.69820245979186524 $142 46.69820245979186524 $140 $210 forward 7 unknown #
vertex $-1 $83 $211 #
vertex $-1 $154 $212 #
straight-curve $-1 93.39640491958373048 24.11042145310894824 0 0 -1 0 I I #
coedge $-1 $134 $136 $84 $146 reversed $77 $-1 #
edge $-1 $149 -24.11042145310894824 $152 24.11042145310894824 $145 $213 forward 7 unknown #
coedge $-1 $140 $85 $90 $155 forward $132 $-1 #
coedge $-1 $85 $140 $134 $204 reversed $132 $-1 #
vertex $-1 $86 $214 #
straight-curve $-1 46.69820245979186524 48.22084290621789648 10.32450232176131166 -1 0 0 I I #
coedge $-1 $87 $135 $89 $154 reversed $46 $-1 #
vertex $-1 $146 $215 #
straight-curve $-1 46.69820245979186524 0 10.32450232176131166 1 0 0 I I #
edge $-1 $92 -5.162251160880655831 $143 5.162251160880655831 $89 $216 forward 7 unknown #
edge $-1 $93 -5.162251160880655831 $142 5.162251160880655831 $90 $217 forward 7 unknown #
point $-1 93.39640491958373048 0 10.32450232176131166 #
point $-1 93.39640491958373048 48.22084290621789648 10.32450232176131166 #
face $-1 $-1 $108 $9 $-1 $218 reversed single #
loop $-1 $-1 $165 $95 #
plane-surface $-1 46.69820245979186524 24.11042145310894824 10.32450232176131166 0 0 1 1 0 0 forward_v I I I I #
coedge $-1 $219 $98 $103 $170 forward $54 $-1 #
coedge $-1 $98 $219 $220 $221 reversed $54 $-1 #
coedge $-1 $100 $99 $98 $164 reversed $33 $-1 #
edge $-1 $222 -3.348972433080429134 $175 -0.2775850225200251487 $98 $223 forward 7 unknown #
coedge $-1 $220 $224 $100 $166 forward $159 $-1 #
edge $-1 $168 -46.69820245979186524 $222 46.69820245979186524 $165 $225 forward 7 unknown #
coedge $-1 $107 $101 $224 $226 reversed $108 $-1 #
vertex $-1 $102 $227 #
straight-curve $-1 93.39640491958373048 6.666417118661378538 6.975529888680882529 0 0 1 I I #
edge $-1 $175 7.055397887558440218 $173 13.72181500621981876 $161 $228 forward 7 unknown #
coedge $-1 $229 $104 $107 $177 reversed $96 $-1 #
coedge $-1 $104 $229 $219 $230 forward $96 $-1 #
vertex $-1 $105 $231 #
straight-curve $-1 46.69820245979186524 0 7.253114911200907677 1 0 0 I I #
vertex $-1 $170 $232 #
straight-curve $-1 46.69820245979186524 6.666417118661378538 7.253114911200907677 1 0 0 I I #
edge $-1 $233 -5.162251160880655831 $109 -2.090863750320251846 $107 $234 forward 7 unknown #
point $-1 93.39640491958373048 0 7.253114911200907677 #
point $-1 93.39640491958373048 6.666417118661378538 7.253114911200907677 #
loop $-1 $-1 $120 $112 #
plane-surface $-1 46.69820245979186524 48.22084290621789648 5.162251160880655831 0 -1 0 0 0 -1 forward_v I I I I #
coedge $-1 $183 $115 $117 $187 reversed $62 $-1 #
coedge $-1 $115 $182 $235 $236 reversed $62 $-1 #
coedge $-1 $123 $118 $115 $185 forward $113 $-1 #
edge $-1 $188 -14.49315167358549417 $237 -12.36854832691850703 $184 $238 forward 7 unknown #
coedge $-1 $117 $116 $191 $239 reversed $37 $-1 #
edge $-1 $240 -48.22084290621789648 $188 -44.51670993448782099 $182 $241 forward 7 unknown #
vertex $-1 $119 $242 #
straight-curve $-1 61.01063890631498055 46.09623955955090935 10.32450232176130989 1 0 0 I I #
coedge $-1 $235 $120 $123 $195 reversed $180 $-1 #
coedge $-1 $120 $235 $186 $239 forward $180 $-1 #
vertex $-1 $121 $243 #
straight-curve $-1 69.17450957408874501 48.22084290621789648 52.76134190472075858 0 0 1 I I #
straight-curve $-1 69.17450957408874501 20.5625042343740958 46.79045663170834501 0 0.5735764247347356903 -0.8191520524228198541 I I #
edge $-1 $237 -34.77343867179556725 $124 -22.47630711429687977 $190 $244 forward 7 unknown #
point $-1 69.17450957408874501 48.22084290621789648 10.32450232176131166 #
point $-1 69.17450957408874501 46.09623955955090935 10.32450232176131344 #
edge $-1 $245 1 $245 0 $127 $-1 forward 7 unknown #
vertex $-1 $128 $246 #
ellipse-curve $-1 75.32307535283808875 46.00674849899737495 8.000884328260163159 0 0.8191520524228198541 0.5735764247347356903 0.5 0 0 1 I I #
point $-1 75.82307535283808875 47.15854123288441713 8.807378258641445967 #
plane-surface $-1 93.39640491958373048 24.11042145310894824 5.162251160880655831 -1 0 0 0 0 1 forward_v I I I I #
coedge $-1 $136 $134 $138 $207 reversed $77 $-1 #
edge $-1 $149 -5.162251160880655831 $209 5.162251160880655831 $148 $247 forward 7 unknown #
vertex $-1 $207 $248 #
straight-curve $-1 0 0 5.162251160880655831 0 0 -1 I I #
edge $-1 $205 -24.11042145310894824 $209 24.11042145310894824 $203 $249 forward 7 unknown #
straight-curve $-1 46.69820245979186524 0 0 -1 0 0 I I #
vertex $-1 $141 $250 #
straight-curve $-1 46.69820245979186524 48.22084290621789648 0 1 0 0 I I #
point $-1 93.39640491958373048 48.22084290621789648 0 #
point $-1 93.39640491958373048 0 0 #
straight-curve $-1 0 24.11042145310894824 10.32450232176131166 0 -1 0 I I #
point $-1 0 48.22084290621789648 10.32450232176131166 #
point $-1 0 0 10.32450232176131166 #
straight-curve $-1 93.39640491958373048 0 5.162251160880655831 0 0 -1 I I #
straight-curve $-1 93.39640491958373048 48.22084290621789648 5.162251160880655831 0 0 -1 I I #
plane-surface $-1 93.39640491958373048 24.11042145310894824 5.162251160880655831 -1 0 0 0 0 1 forward_v I I I I #
coedge $-1 $162 $161 $172 $230 reversed $54 $-1 #
coedge $-1 $251 $165 $162 $221 forward $159 $-1 #
edge $-1 $222 17.4440043344475697 $252 24.11042145310894824 $162 $253 forward 7 unknown #
vertex $-1 $221 $254 #
straight-curve $-1 0 6.666417118661378538 6.975529888680882529 0 0 -1 I I #
coedge $-1 $165 $251 $167 $226 forward $159 $-1 #
straight-curve $-1 46.69820245979186524 6.666417118661378538 10.32450232176131166 -1 0 0 I I #
edge $-1 $233 -24.11042145310894824 $168 -17.4440043344475697 $167 $255 forward 7 unknown #
point $-1 93.39640491958373048 6.666417118661378538 10.32450232176131166 #
straight-curve $-1 0 13.72181500621981876 7.253114911200907677 0 -1 0 I I #
coedge $-1 $172 $171 $251 $256 reversed $96 $-1 #
edge $-1 $252 -5.162251160880655831 $173 -2.090863750320251846 $219 $257 forward 7 unknown #
point $-1 0 0 7.253114911200907677 #
point $-1 0 6.666417118661378538 7.253114911200907677 #
vertex $-1 $226 $258 #
straight-curve $-1 93.39640491958373048 0 5.162251160880655831 0 0 -1 I I #
coedge $-1 $191 $190 $183 $236 forward $180 $-1 #
edge $-1 $237 42.43683958295945047 $240 45.47108770919916765 $235 $259 forward 7 unknown #
vertex $-1 $195 $260 #
straight-curve $-1 81.47164113158743248 60.58939123313640351 10.32450232176131344 0 1 0 I I #
edge $-1 $240 -20.46100222527245194 $192 -8.163870667773764467 $191 $261 forward 7 unknown #
vertex $-1 $239 $262 #
straight-curve $-1 81.47164113158743248 20.5625042343740958 46.79045663170834501 0 -0.5735764247347356903 0.8191520524228198541 I I #
point $-1 81.47164113158743248 46.09623955955090935 10.32450232176131344 #
point $-1 69.17450957408874501 48.22084290621789648 7.290254195521589153 #
straight-curve $-1 46.69820245979186524 48.22084290621789648 10.32450232176131166 -1 0 0 I I #
vertex $-1 $198 $263 #
point $-1 75.82307535283808875 46.00674849899737495 8.000884328260163159 #
straight-curve $-1 0 48.22084290621789648 5.162251160880655831 0 0 -1 I I #
point $-1 0 0 0 #
straight-curve $-1 0 24.11042145310894824 0 0 1 0 I I #
point $-1 0 48.22084290621789648 0 #
coedge $-1 $224 $220 $229 $256 forward $159 $-1 #
vertex $-1 $221 $264 #
straight-curve $-1 0 24.11042145310894824 10.32450232176131166 0 -1 0 I I #
point $-1 0 6.666417118661378538 10.32450232176131166 #
straight-curve $-1 93.39640491958373048 24.11042145310894824 10.32450232176131166 0 1 0 I I #
edge $-1 $252 -46.69820245979186524 $233 46.69820245979186524 $229 $265 forward 7 unknown #
straight-curve $-1 0 0 5.162251160880655831 0 0 -1 I I #
point $-1 93.39640491958373048 0 10.32450232176131166 #
straight-curve $-1 81.47164113158743248 48.22084290621789648 52.76134190472075858 0 0 -1 I I #
point $-1 81.47164113158743248 48.22084290621789648 10.32450232176131166 #
straight-curve $-1 61.01063890631498055 48.22084290621789648 7.290254195521582048 -1 0 0 I I #
point $-1 81.47164113158743248 48.22084290621789648 7.290254195521589153 #
point $-1 75.32307535283808875 45.59717247278596375 7.714096115892794536 #
point $-1 0 0 10.32450232176131166 #
straight-curve $-1 46.69820245979186524 0 10.32450232176131166 1 0 0 I I #
End-of-ACIS-data 