500 0 12 0           
7 Unknown 11 ACIS 5.0 NT 24 Thu Mar 25 19:56:22 1999 
-1 9.9999999999999995e-007 1e-010 
body $-1 $12 $-1 $13 #
body $-1 $14 $-1 $15 #
body $-1 $16 $-1 $17 #
body $-1 $18 $-1 $19 #
body $-1 $20 $-1 $21 #
body $-1 $22 $-1 $23 #
body $-1 $24 $-1 $25 #
body $-1 $26 $-1 $27 #
body $-1 $28 $-1 $29 #
body $-1 $30 $-1 $31 #
body $-1 $32 $-1 $33 #
body $-1 $34 $-1 $35 #
lump $-1 $-1 $36 $0 #
transform $-1 1 0 0 0 1 0 0 0 1 40.690939054536578 21.70514570057717 4.9791274357594046 1 rotate no_reflect no_shear #
lump $-1 $-1 $37 $1 #
transform $-1 1 0 0 0 0.55919289150049634 0.82903758062907751 0 -0.82903758062907751 0.55919289150049634 10.405271120126056 -67.468635334596499 51.023103743431925 1 rotate no_reflect no_shear #
lump $-1 $-1 $38 $2 #
transform $-1 1 0 0 0 -0.55919289150049634 -0.82903758062907751 0 0.82903758062907751 -0.55919289150049634 10.405271120126056 2.5348251374002166 7.0376043253229623 1 rotate no_reflect no_shear #
lump $-1 $-1 $39 $3 #
transform $-1 1 0 0 0 0.55919289150049634 0.82903758062907751 0 -0.82903758062907751 0.55919289150049634 30.595716409733068 -67.468635334596499 51.023103743431925 1 rotate no_reflect no_shear #
lump $-1 $-1 $40 $4 #
transform $-1 1 0 0 0 -0.55919289150049634 -0.82903758062907751 0 0.82903758062907751 -0.55919289150049634 30.595716409733068 2.5348251374002166 7.0376043253229623 1 rotate no_reflect no_shear #
lump $-1 $-1 $41 $5 #
transform $-1 1 0 0 0 0.55919289150049634 0.82903758062907751 0 -0.82903758062907751 0.55919289150049634 50.786161699340084 -67.468635334596499 51.023103743431925 1 rotate no_reflect no_shear #
lump $-1 $-1 $42 $6 #
transform $-1 1 0 0 0 -0.55919289150049634 -0.82903758062907751 0 0.82903758062907751 -0.55919289150049634 50.786161699340084 2.5348251374002166 7.0376043253229623 1 rotate no_reflect no_shear #
lump $-1 $-1 $43 $7 #
transform $-1 1 0 0 0 0.55919289150049634 0.82903758062907751 0 -0.82903758062907751 0.55919289150049634 70.976606988947097 -67.468635334596499 51.023103743431925 1 rotate no_reflect no_shear #
lump $-1 $-1 $44 $8 #
transform $-1 1 0 0 0 -0.55919289150049634 -0.82903758062907751 0 0.82903758062907751 -0.55919289150049634 70.976606988947097 2.5348251374002166 7.0376043253229623 1 rotate no_reflect no_shear #
lump $-1 $-1 $45 $9 #
transform $-1 1 0 0 0 0.57357642473473569 -0.81915205242281985 0 0.81915205242281985 0.57357642473473569 75.827559339908277 85.175304145658217 87.865273625378961 1 rotate no_reflect no_shear #
lump $-1 $-1 $46 $10 #
transform $-1 1 0 0 0 -0.57357642473473569 0.81915205242281985 0 -0.81915205242281985 -0.57357642473473569 73.447137010266175 38.395934448895616 5.3433027189559965 1 rotate no_reflect no_shear #
lump $-1 $-1 $47 $11 #
transform $-1 1 0 0 0 -0.57357642473473569 0.81915205242281985 0 -0.81915205242281985 -0.57357642473473569 78.207981669550364 38.395934448895616 5.3433027189559965 1 rotate no_reflect no_shear #
shell $-1 $-1 $-1 $48 $-1 $12 #
shell $-1 $-1 $-1 $49 $-1 $14 #
shell $-1 $-1 $-1 $50 $-1 $16 #
shell $-1 $-1 $-1 $51 $-1 $18 #
shell $-1 $-1 $-1 $52 $-1 $20 #
shell $-1 $-1 $-1 $53 $-1 $22 #
shell $-1 $-1 $-1 $54 $-1 $24 #
shell $-1 $-1 $-1 $55 $-1 $26 #
shell $-1 $-1 $-1 $56 $-1 $28 #
shell $-1 $-1 $-1 $57 $-1 $30 #
shell $-1 $-1 $-1 $58 $-1 $32 #
shell $-1 $-1 $-1 $59 $-1 $34 #
face $-1 $60 $61 $36 $-1 $62 forward single #
face $-1 $63 $64 $37 $-1 $65 forward single #
face $-1 $66 $67 $38 $-1 $68 forward single #
face $-1 $69 $70 $39 $-1 $71 forward single #
face $-1 $72 $73 $40 $-1 $74 forward single #
face $-1 $75 $76 $41 $-1 $77 forward single #
face $-1 $78 $79 $42 $-1 $80 forward single #
face $-1 $81 $82 $43 $-1 $83 forward single #
face $-1 $84 $85 $44 $-1 $86 forward single #
face $-1 $87 $88 $45 $-1 $89 forward single #
face $-1 $90 $91 $46 $-1 $92 forward single #
face $-1 $93 $94 $47 $-1 $95 forward single #
face $-1 $96 $97 $36 $-1 $98 reversed single #
loop $-1 $-1 $99 $48 #
plane-surface $-1 0 0 4.9791274357594046 0 0 1 1 0 0 forward_v I I I I #
face $-1 $100 $101 $37 $-1 $102 reversed single #
loop $-1 $-1 $103 $49 #
plane-surface $-1 0 0 81.381878109073156 0 0 1 1 0 0 forward_v I I I I #
face $-1 $104 $105 $38 $-1 $106 forward single #
loop $-1 $107 $108 $50 #
cone-surface $-1 0 0 -0.75 0 0 1 0.5 0 0 1 I I 0 1 0.5 forward I I I I #
face $-1 $109 $110 $39 $-1 $111 reversed single #
loop $-1 $-1 $112 $51 #
plane-surface $-1 0 0 81.381878109073156 0 0 1 1 0 0 forward_v I I I I #
face $-1 $113 $114 $40 $-1 $115 forward single #
loop $-1 $116 $117 $52 #
cone-surface $-1 0 0 -0.75 0 0 1 0.5 0 0 1 I I 0 1 0.5 forward I I I I #
face $-1 $118 $119 $41 $-1 $120 reversed single #
loop $-1 $-1 $121 $53 #
plane-surface $-1 0 0 81.381878109073156 0 0 1 1 0 0 forward_v I I I I #
face $-1 $122 $123 $42 $-1 $124 forward single #
loop $-1 $125 $126 $54 #
cone-surface $-1 0 0 -0.75 0 0 1 0.5 0 0 1 I I 0 1 0.5 forward I I I I #
face $-1 $127 $128 $43 $-1 $129 reversed single #
loop $-1 $-1 $130 $55 #
plane-surface $-1 0 0 81.381878109073156 0 0 1 1 0 0 forward_v I I I I #
face $-1 $131 $132 $44 $-1 $133 forward single #
loop $-1 $134 $135 $56 #
cone-surface $-1 0 0 -0.75 0 0 1 0.5 0 0 1 I I 0 1 0.5 forward I I I I #
face $-1 $136 $137 $45 $-1 $138 reversed single #
loop $-1 $-1 $139 $57 #
plane-surface $-1 0 0 81.381878109073156 0 0 1 1 0 0 forward_v I I I I #
face $-1 $140 $141 $46 $-1 $142 forward single #
loop $-1 $143 $144 $58 #
cone-surface $-1 0 0 -2.3850978118228703 0 0 1 1 0 0 1 I I 0 1 1 forward I I I I #
face $-1 $145 $146 $47 $-1 $147 forward single #
loop $-1 $148 $149 $59 #
cone-surface $-1 0 0 -2.3850978118228703 0 0 1 1 0 0 1 I I 0 1 1 forward I I I I #
face $-1 $150 $151 $36 $-1 $152 reversed single #
loop $-1 $-1 $153 $60 #
plane-surface $-1 0 0 -4.9791274357594046 0 0 1 1 0 0 forward_v I I I I #
coedge $-1 $154 $155 $156 $157 forward $61 $-1 #
face $-1 $158 $159 $37 $-1 $160 reversed single #
loop $-1 $-1 $161 $63 #
plane-surface $-1 0 0 -81.381878109073156 0 0 1 1 0 0 forward_v I I I I #
coedge $-1 $162 $163 $164 $165 forward $64 $-1 #
face $-1 $-1 $166 $38 $-1 $167 forward single #
loop $-1 $-1 $168 $66 #
plane-surface $-1 0 0 -1.25 0 0 -1 -1 0 0 forward_v I I I I #
loop $-1 $-1 $169 $50 #
coedge $-1 $108 $108 $168 $170 reversed $67 $-1 #
face $-1 $171 $172 $39 $-1 $173 reversed single #
loop $-1 $-1 $174 $69 #
plane-surface $-1 0 0 -81.381878109073156 0 0 1 1 0 0 forward_v I I I I #
coedge $-1 $175 $176 $177 $178 forward $70 $-1 #
face $-1 $-1 $179 $40 $-1 $180 forward single #
loop $-1 $-1 $181 $72 #
plane-surface $-1 0 0 -1.25 0 0 -1 -1 0 0 forward_v I I I I #
loop $-1 $-1 $182 $52 #
coedge $-1 $117 $117 $181 $183 reversed $73 $-1 #
face $-1 $184 $185 $41 $-1 $186 reversed single #
loop $-1 $-1 $187 $75 #
plane-surface $-1 0 0 -81.381878109073156 0 0 1 1 0 0 forward_v I I I I #
coedge $-1 $188 $189 $190 $191 forward $76 $-1 #
face $-1 $-1 $192 $42 $-1 $193 forward single #
loop $-1 $-1 $194 $78 #
plane-surface $-1 0 0 -1.25 0 0 -1 -1 0 0 forward_v I I I I #
loop $-1 $-1 $195 $54 #
coedge $-1 $126 $126 $194 $196 reversed $79 $-1 #
face $-1 $197 $198 $43 $-1 $199 reversed single #
loop $-1 $-1 $200 $81 #
plane-surface $-1 0 0 -81.381878109073156 0 0 1 1 0 0 forward_v I I I I #
coedge $-1 $201 $202 $203 $204 forward $82 $-1 #
face $-1 $-1 $205 $44 $-1 $206 forward single #
loop $-1 $-1 $207 $84 #
plane-surface $-1 0 0 -1.25 0 0 -1 -1 0 0 forward_v I I I I #
loop $-1 $-1 $208 $56 #
coedge $-1 $135 $135 $207 $209 reversed $85 $-1 #
face $-1 $210 $211 $45 $-1 $212 reversed single #
loop $-1 $-1 $213 $87 #
plane-surface $-1 0 0 -81.381878109073156 0 0 1 1 0 0 forward_v I I I I #
coedge $-1 $214 $215 $216 $217 forward $88 $-1 #
face $-1 $-1 $218 $46 $-1 $219 forward single #
loop $-1 $-1 $220 $90 #
plane-surface $-1 0 0 -4.2701956236457406 0 0 -1 -1 0 0 forward_v I I I I #
loop $-1 $-1 $221 $58 #
coedge $-1 $144 $144 $220 $222 reversed $91 $-1 #
face $-1 $-1 $223 $47 $-1 $224 forward single #
loop $-1 $-1 $225 $93 #
plane-surface $-1 0 0 -4.2701956236457406 0 0 -1 -1 0 0 forward_v I I I I #
loop $-1 $-1 $226 $59 #
coedge $-1 $149 $149 $225 $227 reversed $94 $-1 #
face $-1 $228 $229 $36 $-1 $230 reversed single #
loop $-1 $-1 $231 $96 #
plane-surface $-1 0 -21.70514570057717 0 0 1 0 0 0 1 forward_v I I I I #
coedge $-1 $232 $233 $234 $235 forward $97 $-1 #
coedge $-1 $236 $99 $237 $238 forward $61 $-1 #
coedge $-1 $99 $236 $239 $240 forward $61 $-1 #
coedge $-1 $241 $242 $99 $157 reversed $243 $-1 #
edge $-1 $244 -21.70514570057717 $245 21.70514570057717 $156 $246 forward 7 unknown #
face $-1 $247 $248 $37 $-1 $249 reversed single #
loop $-1 $-1 $250 $100 #
plane-surface $-1 0 -162.76375621814631 0 0 1 0 0 0 1 forward_v I I I I #
coedge $-1 $251 $252 $253 $254 forward $101 $-1 #
coedge $-1 $255 $103 $256 $257 forward $64 $-1 #
coedge $-1 $103 $255 $258 $259 forward $64 $-1 #
coedge $-1 $260 $261 $103 $165 reversed $262 $-1 #
edge $-1 $263 -162.76375621814631 $264 162.76375621814631 $164 $265 forward 7 unknown #
loop $-1 $266 $267 $104 #
cone-surface $-1 0 0 0 0 0 1 0.25 0 0 1 I I -0.70710678118654746 0.70710678118654746 0.25 forward I I I I #
coedge $-1 $168 $168 $108 $170 forward $105 $-1 #
coedge $-1 $169 $169 $267 $268 forward $107 $-1 #
edge $-1 $269 0 $269 6.2831853071796004 $168 $270 forward 7 unknown #
face $-1 $271 $272 $39 $-1 $273 reversed single #
loop $-1 $-1 $274 $109 #
plane-surface $-1 0 -162.76375621814631 0 0 1 0 0 0 1 forward_v I I I I #
coedge $-1 $275 $276 $277 $278 forward $110 $-1 #
coedge $-1 $279 $112 $280 $281 forward $70 $-1 #
coedge $-1 $112 $279 $282 $283 forward $70 $-1 #
coedge $-1 $284 $285 $112 $178 reversed $286 $-1 #
edge $-1 $287 -162.76375621814631 $288 162.76375621814631 $177 $289 forward 7 unknown #
loop $-1 $290 $291 $113 #
cone-surface $-1 0 0 0 0 0 1 0.25 0 0 1 I I -0.70710678118654746 0.70710678118654746 0.25 forward I I I I #
coedge $-1 $181 $181 $117 $183 forward $114 $-1 #
coedge $-1 $182 $182 $291 $292 forward $116 $-1 #
edge $-1 $293 0 $293 6.2831853071796004 $181 $294 forward 7 unknown #
face $-1 $295 $296 $41 $-1 $297 reversed single #
loop $-1 $-1 $298 $118 #
plane-surface $-1 0 -162.76375621814631 0 0 1 0 0 0 1 forward_v I I I I #
coedge $-1 $299 $300 $301 $302 forward $119 $-1 #
coedge $-1 $303 $121 $304 $305 forward $76 $-1 #
coedge $-1 $121 $303 $306 $307 forward $76 $-1 #
coedge $-1 $308 $309 $121 $191 reversed $310 $-1 #
edge $-1 $311 -162.76375621814631 $312 162.76375621814631 $190 $313 forward 7 unknown #
loop $-1 $314 $315 $122 #
cone-surface $-1 0 0 0 0 0 1 0.25 0 0 1 I I -0.70710678118654746 0.70710678118654746 0.25 forward I I I I #
coedge $-1 $194 $194 $126 $196 forward $123 $-1 #
coedge $-1 $195 $195 $315 $316 forward $125 $-1 #
edge $-1 $317 0 $317 6.2831853071796004 $194 $318 forward 7 unknown #
face $-1 $319 $320 $43 $-1 $321 reversed single #
loop $-1 $-1 $322 $127 #
plane-surface $-1 0 -162.76375621814631 0 0 1 0 0 0 1 forward_v I I I I #
coedge $-1 $323 $324 $325 $326 forward $128 $-1 #
coedge $-1 $327 $130 $328 $329 forward $82 $-1 #
coedge $-1 $130 $327 $330 $331 forward $82 $-1 #
coedge $-1 $332 $333 $130 $204 reversed $334 $-1 #
edge $-1 $335 -162.76375621814631 $336 162.76375621814631 $203 $337 forward 7 unknown #
loop $-1 $338 $339 $131 #
cone-surface $-1 0 0 0 0 0 1 0.25 0 0 1 I I -0.70710678118654746 0.70710678118654746 0.25 forward I I I I #
coedge $-1 $207 $207 $135 $209 forward $132 $-1 #
coedge $-1 $208 $208 $339 $340 forward $134 $-1 #
edge $-1 $341 0 $341 6.2831853071796004 $207 $342 forward 7 unknown #
face $-1 $343 $344 $45 $-1 $345 reversed single #
loop $-1 $-1 $346 $136 #
plane-surface $-1 0 -162.76375621814631 0 0 1 0 0 0 1 forward_v I I I I #
coedge $-1 $347 $348 $349 $350 forward $137 $-1 #
coedge $-1 $351 $139 $352 $353 forward $88 $-1 #
coedge $-1 $139 $351 $354 $355 forward $88 $-1 #
coedge $-1 $356 $357 $139 $217 reversed $358 $-1 #
edge $-1 $359 -162.76375621814631 $360 162.76375621814631 $216 $361 forward 7 unknown #
loop $-1 $362 $363 $140 #
cone-surface $-1 0 0 0 0 0 1 0.5 0 0 1 I I -0.70710678118654768 0.70710678118654735 0.5 forward I I I I #
coedge $-1 $220 $220 $144 $222 forward $141 $-1 #
coedge $-1 $221 $221 $363 $364 forward $143 $-1 #
edge $-1 $365 0 $365 6.2831853071796004 $220 $366 forward 7 unknown #
loop $-1 $367 $368 $145 #
cone-surface $-1 0 0 0 0 0 1 0.5 0 0 1 I I -0.70710678118654768 0.70710678118654735 0.5 forward I I I I #
coedge $-1 $225 $225 $149 $227 forward $146 $-1 #
coedge $-1 $226 $226 $368 $369 forward $148 $-1 #
edge $-1 $370 0 $370 6.2831853071796004 $225 $371 forward 7 unknown #
face $-1 $372 $373 $36 $-1 $374 reversed single #
loop $-1 $-1 $375 $150 #
plane-surface $-1 -40.690939054536578 0 0 1 0 0 0 0 -1 forward_v I I I I #
coedge $-1 $376 $239 $377 $378 forward $151 $-1 #
coedge $-1 $379 $153 $376 $380 forward $97 $-1 #
coedge $-1 $153 $379 $381 $382 forward $97 $-1 #
coedge $-1 $242 $241 $153 $235 reversed $243 $-1 #
edge $-1 $383 -21.70514570057717 $384 21.70514570057717 $234 $385 forward 7 unknown #
coedge $-1 $155 $154 $386 $387 forward $61 $-1 #
coedge $-1 $388 $389 $154 $238 reversed $373 $-1 #
edge $-1 $245 -40.690939054536578 $390 40.690939054536578 $237 $391 forward 7 unknown #
coedge $-1 $231 $392 $155 $240 reversed $151 $-1 #
edge $-1 $393 -40.690939054536578 $244 40.690939054536578 $239 $394 forward 7 unknown #
coedge $-1 $234 $156 $392 $395 forward $243 $-1 #
coedge $-1 $156 $234 $388 $396 reversed $243 $-1 #
loop $-1 $-1 $241 $372 #
vertex $-1 $157 $397 #
vertex $-1 $157 $398 #
straight-curve $-1 40.690939054536578 0 4.9791274357594046 0 1 0 I I #
face $-1 $399 $400 $37 $-1 $401 reversed single #
loop $-1 $-1 $402 $158 #
plane-surface $-1 -4.7265480638736541 0 0 1 0 0 0 0 -1 forward_v I I I I #
coedge $-1 $403 $258 $404 $405 forward $159 $-1 #
coedge $-1 $406 $161 $403 $407 forward $101 $-1 #
coedge $-1 $161 $406 $408 $409 forward $101 $-1 #
coedge $-1 $261 $260 $161 $254 reversed $262 $-1 #
edge $-1 $410 -162.76375621814631 $411 162.76375621814631 $253 $412 forward 7 unknown #
coedge $-1 $163 $162 $413 $414 forward $64 $-1 #
coedge $-1 $415 $416 $162 $257 reversed $400 $-1 #
edge $-1 $264 -4.7265480638736541 $417 4.7265480638736541 $256 $418 forward 7 unknown #
coedge $-1 $250 $419 $163 $259 reversed $159 $-1 #
edge $-1 $420 -4.7265480638736541 $263 4.7265480638736541 $258 $421 forward 7 unknown #
coedge $-1 $253 $164 $419 $422 forward $262 $-1 #
coedge $-1 $164 $253 $415 $423 reversed $262 $-1 #
loop $-1 $-1 $260 $399 #
vertex $-1 $165 $424 #
vertex $-1 $165 $425 #
straight-curve $-1 4.7265480638736541 0 81.381878109073156 0 1 0 I I #
loop $-1 $-1 $426 $104 #
coedge $-1 $267 $267 $169 $268 reversed $166 $-1 #
edge $-1 $427 0 $427 6.2831853071796004 $267 $428 forward 7 unknown #
vertex $-1 $170 $429 #
ellipse-curve $-1 0 0 -1.25 0 0 -1 0.5 0 0 1 I I #
face $-1 $430 $431 $39 $-1 $432 reversed single #
loop $-1 $-1 $433 $171 #
plane-surface $-1 -4.7265480638736541 0 0 1 0 0 0 0 -1 forward_v I I I I #
coedge $-1 $434 $282 $435 $436 forward $172 $-1 #
coedge $-1 $437 $174 $434 $438 forward $110 $-1 #
coedge $-1 $174 $437 $439 $440 forward $110 $-1 #
coedge $-1 $285 $284 $174 $278 reversed $286 $-1 #
edge $-1 $441 -162.76375621814631 $442 162.76375621814631 $277 $443 forward 7 unknown #
coedge $-1 $176 $175 $444 $445 forward $70 $-1 #
coedge $-1 $446 $447 $175 $281 reversed $431 $-1 #
edge $-1 $288 -4.7265480638736541 $448 4.7265480638736541 $280 $449 forward 7 unknown #
coedge $-1 $274 $450 $176 $283 reversed $172 $-1 #
edge $-1 $451 -4.7265480638736541 $287 4.7265480638736541 $282 $452 forward 7 unknown #
coedge $-1 $277 $177 $450 $453 forward $286 $-1 #
coedge $-1 $177 $277 $446 $454 reversed $286 $-1 #
loop $-1 $-1 $284 $430 #
vertex $-1 $178 $455 #
vertex $-1 $178 $456 #
straight-curve $-1 4.7265480638736541 0 81.381878109073156 0 1 0 I I #
loop $-1 $-1 $457 $113 #
coedge $-1 $291 $291 $182 $292 reversed $179 $-1 #
edge $-1 $458 0 $458 6.2831853071796004 $291 $459 forward 7 unknown #
vertex $-1 $183 $460 #
ellipse-curve $-1 0 0 -1.25 0 0 -1 0.5 0 0 1 I I #
face $-1 $461 $462 $41 $-1 $463 reversed single #
loop $-1 $-1 $464 $184 #
plane-surface $-1 -4.7265480638736541 0 0 1 0 0 0 0 -1 forward_v I I I I #
coedge $-1 $465 $306 $466 $467 forward $185 $-1 #
coedge $-1 $468 $187 $465 $469 forward $119 $-1 #
coedge $-1 $187 $468 $470 $471 forward $119 $-1 #
coedge $-1 $309 $308 $187 $302 reversed $310 $-1 #
edge $-1 $472 -162.76375621814631 $473 162.76375621814631 $301 $474 forward 7 unknown #
coedge $-1 $189 $188 $475 $476 forward $76 $-1 #
coedge $-1 $477 $478 $188 $305 reversed $462 $-1 #
edge $-1 $312 -4.7265480638736541 $479 4.7265480638736541 $304 $480 forward 7 unknown #
coedge $-1 $298 $481 $189 $307 reversed $185 $-1 #
edge $-1 $482 -4.7265480638736541 $311 4.7265480638736541 $306 $483 forward 7 unknown #
coedge $-1 $301 $190 $481 $484 forward $310 $-1 #
coedge $-1 $190 $301 $477 $485 reversed $310 $-1 #
loop $-1 $-1 $308 $461 #
vertex $-1 $191 $486 #
vertex $-1 $191 $487 #
straight-curve $-1 4.7265480638736541 0 81.381878109073156 0 1 0 I I #
loop $-1 $-1 $488 $122 #
coedge $-1 $315 $315 $195 $316 reversed $192 $-1 #
edge $-1 $489 0 $489 6.2831853071796004 $315 $490 forward 7 unknown #
vertex $-1 $196 $491 #
ellipse-curve $-1 0 0 -1.25 0 0 -1 0.5 0 0 1 I I #
face $-1 $492 $493 $43 $-1 $494 reversed single #
loop $-1 $-1 $495 $197 #
plane-surface $-1 -4.7265480638736541 0 0 1 0 0 0 0 -1 forward_v I I I I #
coedge $-1 $496 $330 $497 $498 forward $198 $-1 #
coedge $-1 $499 $200 $496 $500 forward $128 $-1 #
coedge $-1 $200 $499 $501 $502 forward $128 $-1 #
coedge $-1 $333 $332 $200 $326 reversed $334 $-1 #
edge $-1 $503 -162.76375621814631 $504 162.76375621814631 $325 $505 forward 7 unknown #
coedge $-1 $202 $201 $506 $507 forward $82 $-1 #
coedge $-1 $508 $509 $201 $329 reversed $493 $-1 #
edge $-1 $336 -4.7265480638736541 $510 4.7265480638736541 $328 $511 forward 7 unknown #
coedge $-1 $322 $512 $202 $331 reversed $198 $-1 #
edge $-1 $513 -4.7265480638736541 $335 4.7265480638736541 $330 $514 forward 7 unknown #
coedge $-1 $325 $203 $512 $515 forward $334 $-1 #
coedge $-1 $203 $325 $508 $516 reversed $334 $-1 #
loop $-1 $-1 $332 $492 #
vertex $-1 $204 $517 #
vertex $-1 $204 $518 #
straight-curve $-1 4.7265480638736541 0 81.381878109073156 0 1 0 I I #
loop $-1 $-1 $519 $131 #
coedge $-1 $339 $339 $208 $340 reversed $205 $-1 #
edge $-1 $520 0 $520 6.2831853071796004 $339 $521 forward 7 unknown #
vertex $-1 $209 $522 #
ellipse-curve $-1 0 0 -1.25 0 0 -1 0.5 0 0 1 I I #
face $-1 $523 $524 $45 $-1 $525 reversed single #
loop $-1 $-1 $526 $210 #
plane-surface $-1 -5.5543187691648868 0 0 1 0 0 0 0 -1 forward_v I I I I #
coedge $-1 $527 $354 $528 $529 forward $211 $-1 #
coedge $-1 $530 $213 $527 $531 forward $137 $-1 #
coedge $-1 $213 $530 $532 $533 forward $137 $-1 #
coedge $-1 $357 $356 $213 $350 reversed $358 $-1 #
edge $-1 $534 -162.76375621814631 $535 162.76375621814631 $349 $536 forward 7 unknown #
coedge $-1 $215 $214 $537 $538 forward $88 $-1 #
coedge $-1 $539 $540 $214 $353 reversed $524 $-1 #
edge $-1 $360 -5.5543187691648868 $541 5.5543187691648868 $352 $542 forward 7 unknown #
coedge $-1 $346 $543 $215 $355 reversed $211 $-1 #
edge $-1 $544 -5.5543187691648868 $359 5.5543187691648868 $354 $545 forward 7 unknown #
coedge $-1 $349 $216 $543 $546 forward $358 $-1 #
coedge $-1 $216 $349 $539 $547 reversed $358 $-1 #
loop $-1 $-1 $356 $523 #
vertex $-1 $217 $548 #
vertex $-1 $217 $549 #
straight-curve $-1 5.5543187691648868 0 81.381878109073156 0 1 0 I I #
loop $-1 $-1 $550 $140 #
coedge $-1 $363 $363 $221 $364 reversed $218 $-1 #
edge $-1 $551 0 $551 6.2831853071796004 $363 $552 forward 7 unknown #
vertex $-1 $222 $553 #
ellipse-curve $-1 0 0 -4.2701956236457406 0 0 -1 1 0 0 1 I I #
loop $-1 $-1 $554 $145 #
coedge $-1 $368 $368 $226 $369 reversed $223 $-1 #
edge $-1 $555 0 $555 6.2831853071796004 $368 $556 forward 7 unknown #
vertex $-1 $227 $557 #
ellipse-curve $-1 0 0 -4.2701956236457406 0 0 -1 1 0 0 1 I I #
face $-1 $-1 $243 $36 $-1 $558 reversed single #
loop $-1 $-1 $388 $228 #
plane-surface $-1 0 21.70514570057717 0 0 -1 0 0 0 -1 forward_v I I I I #
coedge $-1 $559 $386 $389 $560 forward $229 $-1 #
coedge $-1 $392 $231 $232 $380 reversed $151 $-1 #
coedge $-1 $386 $559 $231 $378 reversed $229 $-1 #
edge $-1 $393 -4.9791274357594046 $561 4.9791274357594046 $377 $562 forward 7 unknown #
coedge $-1 $233 $232 $559 $563 forward $97 $-1 #
edge $-1 $384 -40.690939054536578 $561 40.690939054536578 $376 $564 forward 7 unknown #
coedge $-1 $389 $388 $233 $382 reversed $373 $-1 #
edge $-1 $565 -40.690939054536578 $383 40.690939054536578 $381 $566 forward 7 unknown #
vertex $-1 $235 $567 #
vertex $-1 $395 $568 #
straight-curve $-1 40.690939054536578 0 -4.9791274357594046 0 -1 0 I I #
coedge $-1 $375 $377 $236 $387 reversed $229 $-1 #
edge $-1 $390 -21.70514570057717 $393 21.70514570057717 $386 $569 forward 7 unknown #
coedge $-1 $381 $237 $242 $396 forward $373 $-1 #
coedge $-1 $237 $381 $375 $560 reversed $373 $-1 #
vertex $-1 $238 $570 #
straight-curve $-1 0 21.70514570057717 4.9791274357594046 -1 0 0 I I #
coedge $-1 $239 $376 $241 $395 reversed $151 $-1 #
vertex $-1 $387 $571 #
straight-curve $-1 0 -21.70514570057717 4.9791274357594046 1 0 0 I I #
edge $-1 $244 -4.9791274357594046 $384 4.9791274357594046 $241 $572 forward 7 unknown #
edge $-1 $245 -4.9791274357594046 $383 4.9791274357594046 $242 $573 forward 7 unknown #
point $-1 40.690939054536578 -21.70514570057717 4.9791274357594046 #
point $-1 40.690939054536578 21.70514570057717 4.9791274357594046 #
face $-1 $-1 $262 $37 $-1 $574 reversed single #
loop $-1 $-1 $415 $247 #
plane-surface $-1 0 162.76375621814631 0 0 -1 0 0 0 -1 forward_v I I I I #
coedge $-1 $575 $413 $416 $576 forward $248 $-1 #
coedge $-1 $419 $250 $251 $407 reversed $159 $-1 #
coedge $-1 $413 $575 $250 $405 reversed $248 $-1 #
edge $-1 $420 -81.381878109073156 $577 81.381878109073156 $404 $578 forward 7 unknown #
coedge $-1 $252 $251 $575 $579 forward $101 $-1 #
edge $-1 $411 -4.7265480638736541 $577 4.7265480638736541 $403 $580 forward 7 unknown #
coedge $-1 $416 $415 $252 $409 reversed $400 $-1 #
edge $-1 $581 -4.7265480638736541 $410 4.7265480638736541 $408 $582 forward 7 unknown #
vertex $-1 $254 $583 #
vertex $-1 $422 $584 #
straight-curve $-1 4.7265480638736541 0 -81.381878109073156 0 -1 0 I I #
coedge $-1 $402 $404 $255 $414 reversed $248 $-1 #
edge $-1 $417 -162.76375621814631 $420 162.76375621814631 $413 $585 forward 7 unknown #
coedge $-1 $408 $256 $261 $423 forward $400 $-1 #
coedge $-1 $256 $408 $402 $576 reversed $400 $-1 #
vertex $-1 $257 $586 #
straight-curve $-1 0 162.76375621814631 81.381878109073156 -1 0 0 I I #
coedge $-1 $258 $403 $260 $422 reversed $159 $-1 #
vertex $-1 $414 $587 #
straight-curve $-1 0 -162.76375621814631 81.381878109073156 1 0 0 I I #
edge $-1 $263 -81.381878109073156 $411 81.381878109073156 $260 $588 forward 7 unknown #
edge $-1 $264 -81.381878109073156 $410 81.381878109073156 $261 $589 forward 7 unknown #
point $-1 4.7265480638736541 -162.76375621814631 81.381878109073156 #
point $-1 4.7265480638736541 162.76375621814631 81.381878109073156 #
coedge $-1 $426 $426 $-1 $590 reversed $266 $-1 #
vertex $-1 $268 $591 #
ellipse-curve $-1 0 0 -0.25 0 0 -1 0.5 0 0 1 I I #
point $-1 0.5 0 -1.25 #
face $-1 $-1 $286 $39 $-1 $592 reversed single #
loop $-1 $-1 $446 $271 #
plane-surface $-1 0 162.76375621814631 0 0 -1 0 0 0 -1 forward_v I I I I #
coedge $-1 $593 $444 $447 $594 forward $272 $-1 #
coedge $-1 $450 $274 $275 $438 reversed $172 $-1 #
coedge $-1 $444 $593 $274 $436 reversed $272 $-1 #
edge $-1 $451 -81.381878109073156 $595 81.381878109073156 $435 $596 forward 7 unknown #
coedge $-1 $276 $275 $593 $597 forward $110 $-1 #
edge $-1 $442 -4.7265480638736541 $595 4.7265480638736541 $434 $598 forward 7 unknown #
coedge $-1 $447 $446 $276 $440 reversed $431 $-1 #
edge $-1 $599 -4.7265480638736541 $441 4.7265480638736541 $439 $600 forward 7 unknown #
vertex $-1 $278 $601 #
vertex $-1 $453 $602 #
straight-curve $-1 4.7265480638736541 0 -81.381878109073156 0 -1 0 I I #
coedge $-1 $433 $435 $279 $445 reversed $272 $-1 #
edge $-1 $448 -162.76375621814631 $451 162.76375621814631 $444 $603 forward 7 unknown #
coedge $-1 $439 $280 $285 $454 forward $431 $-1 #
coedge $-1 $280 $439 $433 $594 reversed $431 $-1 #
vertex $-1 $281 $604 #
straight-curve $-1 0 162.76375621814631 81.381878109073156 -1 0 0 I I #
coedge $-1 $282 $434 $284 $453 reversed $172 $-1 #
vertex $-1 $445 $605 #
straight-curve $-1 0 -162.76375621814631 81.381878109073156 1 0 0 I I #
edge $-1 $287 -81.381878109073156 $442 81.381878109073156 $284 $606 forward 7 unknown #
edge $-1 $288 -81.381878109073156 $441 81.381878109073156 $285 $607 forward 7 unknown #
point $-1 4.7265480638736541 -162.76375621814631 81.381878109073156 #
point $-1 4.7265480638736541 162.76375621814631 81.381878109073156 #
coedge $-1 $457 $457 $-1 $608 reversed $290 $-1 #
vertex $-1 $292 $609 #
ellipse-curve $-1 0 0 -0.25 0 0 -1 0.5 0 0 1 I I #
point $-1 0.5 0 -1.25 #
face $-1 $-1 $310 $41 $-1 $610 reversed single #
loop $-1 $-1 $477 $295 #
plane-surface $-1 0 162.76375621814631 0 0 -1 0 0 0 -1 forward_v I I I I #
coedge $-1 $611 $475 $478 $612 forward $296 $-1 #
coedge $-1 $481 $298 $299 $469 reversed $185 $-1 #
coedge $-1 $475 $611 $298 $467 reversed $296 $-1 #
edge $-1 $482 -81.381878109073156 $613 81.381878109073156 $466 $614 forward 7 unknown #
coedge $-1 $300 $299 $611 $615 forward $119 $-1 #
edge $-1 $473 -4.7265480638736541 $613 4.7265480638736541 $465 $616 forward 7 unknown #
coedge $-1 $478 $477 $300 $471 reversed $462 $-1 #
edge $-1 $617 -4.7265480638736541 $472 4.7265480638736541 $470 $618 forward 7 unknown #
vertex $-1 $302 $619 #
vertex $-1 $484 $620 #
straight-curve $-1 4.7265480638736541 0 -81.381878109073156 0 -1 0 I I #
coedge $-1 $464 $466 $303 $476 reversed $296 $-1 #
edge $-1 $479 -162.76375621814631 $482 162.76375621814631 $475 $621 forward 7 unknown #
coedge $-1 $470 $304 $309 $485 forward $462 $-1 #
coedge $-1 $304 $470 $464 $612 reversed $462 $-1 #
vertex $-1 $305 $622 #
straight-curve $-1 0 162.76375621814631 81.381878109073156 -1 0 0 I I #
coedge $-1 $306 $465 $308 $484 reversed $185 $-1 #
vertex $-1 $476 $623 #
straight-curve $-1 0 -162.76375621814631 81.381878109073156 1 0 0 I I #
edge $-1 $311 -81.381878109073156 $473 81.381878109073156 $308 $624 forward 7 unknown #
edge $-1 $312 -81.381878109073156 $472 81.381878109073156 $309 $625 forward 7 unknown #
point $-1 4.7265480638736541 -162.76375621814631 81.381878109073156 #
point $-1 4.7265480638736541 162.76375621814631 81.381878109073156 #
coedge $-1 $488 $488 $-1 $626 reversed $314 $-1 #
vertex $-1 $316 $627 #
ellipse-curve $-1 0 0 -0.25 0 0 -1 0.5 0 0 1 I I #
point $-1 0.5 0 -1.25 #
face $-1 $-1 $334 $43 $-1 $628 reversed single #
loop $-1 $-1 $508 $319 #
plane-surface $-1 0 162.76375621814631 0 0 -1 0 0 0 -1 forward_v I I I I #
coedge $-1 $629 $506 $509 $630 forward $320 $-1 #
coedge $-1 $512 $322 $323 $500 reversed $198 $-1 #
coedge $-1 $506 $629 $322 $498 reversed $320 $-1 #
edge $-1 $513 -81.381878109073156 $631 81.381878109073156 $497 $632 forward 7 unknown #
coedge $-1 $324 $323 $629 $633 forward $128 $-1 #
edge $-1 $504 -4.7265480638736541 $631 4.7265480638736541 $496 $634 forward 7 unknown #
coedge $-1 $509 $508 $324 $502 reversed $493 $-1 #
edge $-1 $635 -4.7265480638736541 $503 4.7265480638736541 $501 $636 forward 7 unknown #
vertex $-1 $326 $637 #
vertex $-1 $515 $638 #
straight-curve $-1 4.7265480638736541 0 -81.381878109073156 0 -1 0 I I #
coedge $-1 $495 $497 $327 $507 reversed $320 $-1 #
edge $-1 $510 -162.76375621814631 $513 162.76375621814631 $506 $639 forward 7 unknown #
coedge $-1 $501 $328 $333 $516 forward $493 $-1 #
coedge $-1 $328 $501 $495 $630 reversed $493 $-1 #
vertex $-1 $329 $640 #
straight-curve $-1 0 162.76375621814631 81.381878109073156 -1 0 0 I I #
coedge $-1 $330 $496 $332 $515 reversed $198 $-1 #
vertex $-1 $507 $641 #
straight-curve $-1 0 -162.76375621814631 81.381878109073156 1 0 0 I I #
edge $-1 $335 -81.381878109073156 $504 81.381878109073156 $332 $642 forward 7 unknown #
edge $-1 $336 -81.381878109073156 $503 81.381878109073156 $333 $643 forward 7 unknown #
point $-1 4.7265480638736541 -162.76375621814631 81.381878109073156 #
point $-1 4.7265480638736541 162.76375621814631 81.381878109073156 #
coedge $-1 $519 $519 $-1 $644 reversed $338 $-1 #
vertex $-1 $340 $645 #
ellipse-curve $-1 0 0 -0.25 0 0 -1 0.5 0 0 1 I I #
point $-1 0.5 0 -1.25 #
face $-1 $-1 $358 $45 $-1 $646 reversed single #
loop $-1 $-1 $539 $343 #
plane-surface $-1 0 162.76375621814631 0 0 -1 0 0 0 -1 forward_v I I I I #
coedge $-1 $647 $537 $540 $648 forward $344 $-1 #
coedge $-1 $543 $346 $347 $531 reversed $211 $-1 #
coedge $-1 $537 $647 $346 $529 reversed $344 $-1 #
edge $-1 $544 -81.381878109073156 $649 81.381878109073156 $528 $650 forward 7 unknown #
coedge $-1 $348 $347 $647 $651 forward $137 $-1 #
edge $-1 $535 -5.5543187691648868 $649 5.5543187691648868 $527 $652 forward 7 unknown #
coedge $-1 $540 $539 $348 $533 reversed $524 $-1 #
edge $-1 $653 -5.5543187691648868 $534 5.5543187691648868 $532 $654 forward 7 unknown #
vertex $-1 $350 $655 #
vertex $-1 $546 $656 #
straight-curve $-1 5.5543187691648868 0 -81.381878109073156 0 -1 0 I I #
coedge $-1 $526 $528 $351 $538 reversed $344 $-1 #
edge $-1 $541 -162.76375621814631 $544 162.76375621814631 $537 $657 forward 7 unknown #
coedge $-1 $532 $352 $357 $547 forward $524 $-1 #
coedge $-1 $352 $532 $526 $648 reversed $524 $-1 #
vertex $-1 $353 $658 #
straight-curve $-1 0 162.76375621814631 81.381878109073156 -1 0 0 I I #
coedge $-1 $354 $527 $356 $546 reversed $211 $-1 #
vertex $-1 $538 $659 #
straight-curve $-1 0 -162.76375621814631 81.381878109073156 1 0 0 I I #
edge $-1 $359 -81.381878109073156 $535 81.381878109073156 $356 $660 forward 7 unknown #
edge $-1 $360 -81.381878109073156 $534 81.381878109073156 $357 $661 forward 7 unknown #
point $-1 5.5543187691648868 -162.76375621814631 81.381878109073156 #
point $-1 5.5543187691648868 162.76375621814631 81.381878109073156 #
coedge $-1 $550 $550 $-1 $662 reversed $362 $-1 #
vertex $-1 $364 $663 #
ellipse-curve $-1 0 0 -0.49999999999999978 0 0 -1 1 0 0 1 I I #
point $-1 1 0 -4.2701956236457406 #
coedge $-1 $554 $554 $-1 $664 reversed $367 $-1 #
vertex $-1 $369 $665 #
ellipse-curve $-1 0 0 -0.49999999999999978 0 0 -1 1 0 0 1 I I #
point $-1 1 0 -4.2701956236457406 #
plane-surface $-1 40.690939054536578 0 0 -1 0 0 0 0 1 forward_v I I I I #
coedge $-1 $377 $375 $379 $563 reversed $229 $-1 #
edge $-1 $390 -4.9791274357594046 $565 4.9791274357594046 $389 $666 forward 7 unknown #
vertex $-1 $563 $667 #
straight-curve $-1 -40.690939054536578 -21.70514570057717 0 0 0 -1 I I #
edge $-1 $561 -21.70514570057717 $565 21.70514570057717 $559 $668 forward 7 unknown #
straight-curve $-1 0 -21.70514570057717 -4.9791274357594046 -1 0 0 I I #
vertex $-1 $382 $669 #
straight-curve $-1 0 21.70514570057717 -4.9791274357594046 1 0 0 I I #
point $-1 40.690939054536578 21.70514570057717 -4.9791274357594046 #
point $-1 40.690939054536578 -21.70514570057717 -4.9791274357594046 #
straight-curve $-1 -40.690939054536578 0 4.9791274357594046 0 -1 0 I I #
point $-1 -40.690939054536578 21.70514570057717 4.9791274357594046 #
point $-1 -40.690939054536578 -21.70514570057717 4.9791274357594046 #
straight-curve $-1 40.690939054536578 -21.70514570057717 0 0 0 -1 I I #
straight-curve $-1 40.690939054536578 21.70514570057717 0 0 0 -1 I I #
plane-surface $-1 4.7265480638736541 0 0 -1 0 0 0 0 1 forward_v I I I I #
coedge $-1 $404 $402 $406 $579 reversed $248 $-1 #
edge $-1 $417 -81.381878109073156 $581 81.381878109073156 $416 $670 forward 7 unknown #
vertex $-1 $579 $671 #
straight-curve $-1 -4.7265480638736541 -162.76375621814631 0 0 0 -1 I I #
edge $-1 $577 -162.76375621814631 $581 162.76375621814631 $575 $672 forward 7 unknown #
straight-curve $-1 0 -162.76375621814631 -81.381878109073156 -1 0 0 I I #
vertex $-1 $409 $673 #
straight-curve $-1 0 162.76375621814631 -81.381878109073156 1 0 0 I I #
point $-1 4.7265480638736541 162.76375621814631 -81.381878109073156 #
point $-1 4.7265480638736541 -162.76375621814631 -81.381878109073156 #
straight-curve $-1 -4.7265480638736541 0 81.381878109073156 0 -1 0 I I #
point $-1 -4.7265480638736541 162.76375621814631 81.381878109073156 #
point $-1 -4.7265480638736541 -162.76375621814631 81.381878109073156 #
straight-curve $-1 4.7265480638736541 -162.76375621814631 0 0 0 -1 I I #
straight-curve $-1 4.7265480638736541 162.76375621814631 0 0 0 -1 I I #
edge $-1 $674 1 $674 0 $426 $-1 forward 7 unknown #
point $-1 0.5 0 -0.25 #
plane-surface $-1 4.7265480638736541 0 0 -1 0 0 0 0 1 forward_v I I I I #
coedge $-1 $435 $433 $437 $597 reversed $272 $-1 #
edge $-1 $448 -81.381878109073156 $599 81.381878109073156 $447 $675 forward 7 unknown #
vertex $-1 $597 $676 #
straight-curve $-1 -4.7265480638736541 -162.76375621814631 0 0 0 -1 I I #
edge $-1 $595 -162.76375621814631 $599 162.76375621814631 $593 $677 forward 7 unknown #
straight-curve $-1 0 -162.76375621814631 -81.381878109073156 -1 0 0 I I #
vertex $-1 $440 $678 #
straight-curve $-1 0 162.76375621814631 -81.381878109073156 1 0 0 I I #
point $-1 4.7265480638736541 162.76375621814631 -81.381878109073156 #
point $-1 4.7265480638736541 -162.76375621814631 -81.381878109073156 #
straight-curve $-1 -4.7265480638736541 0 81.381878109073156 0 -1 0 I I #
point $-1 -4.7265480638736541 162.76375621814631 81.381878109073156 #
point $-1 -4.7265480638736541 -162.76375621814631 81.381878109073156 #
straight-curve $-1 4.7265480638736541 -162.76375621814631 0 0 0 -1 I I #
straight-curve $-1 4.7265480638736541 162.76375621814631 0 0 0 -1 I I #
edge $-1 $679 1 $679 0 $457 $-1 forward 7 unknown #
point $-1 0.5 0 -0.25 #
plane-surface $-1 4.7265480638736541 0 0 -1 0 0 0 0 1 forward_v I I I I #
coedge $-1 $466 $464 $468 $615 reversed $296 $-1 #
edge $-1 $479 -81.381878109073156 $617 81.381878109073156 $478 $680 forward 7 unknown #
vertex $-1 $615 $681 #
straight-curve $-1 -4.7265480638736541 -162.76375621814631 0 0 0 -1 I I #
edge $-1 $613 -162.76375621814631 $617 162.76375621814631 $611 $682 forward 7 unknown #
straight-curve $-1 0 -162.76375621814631 -81.381878109073156 -1 0 0 I I #
vertex $-1 $471 $683 #
straight-curve $-1 0 162.76375621814631 -81.381878109073156 1 0 0 I I #
point $-1 4.7265480638736541 162.76375621814631 -81.381878109073156 #
point $-1 4.7265480638736541 -162.76375621814631 -81.381878109073156 #
straight-curve $-1 -4.7265480638736541 0 81.381878109073156 0 -1 0 I I #
point $-1 -4.7265480638736541 162.76375621814631 81.381878109073156 #
point $-1 -4.7265480638736541 -162.76375621814631 81.381878109073156 #
straight-curve $-1 4.7265480638736541 -162.76375621814631 0 0 0 -1 I I #
straight-curve $-1 4.7265480638736541 162.76375621814631 0 0 0 -1 I I #
edge $-1 $684 1 $684 0 $488 $-1 forward 7 unknown #
point $-1 0.5 0 -0.25 #
plane-surface $-1 4.7265480638736541 0 0 -1 0 0 0 0 1 forward_v I I I I #
coedge $-1 $497 $495 $499 $633 reversed $320 $-1 #
edge $-1 $510 -81.381878109073156 $635 81.381878109073156 $509 $685 forward 7 unknown #
vertex $-1 $633 $686 #
straight-curve $-1 -4.7265480638736541 -162.76375621814631 0 0 0 -1 I I #
edge $-1 $631 -162.76375621814631 $635 162.76375621814631 $629 $687 forward 7 unknown #
straight-curve $-1 0 -162.76375621814631 -81.381878109073156 -1 0 0 I I #
vertex $-1 $502 $688 #
straight-curve $-1 0 162.76375621814631 -81.381878109073156 1 0 0 I I #
point $-1 4.7265480638736541 162.76375621814631 -81.381878109073156 #
point $-1 4.7265480638736541 -162.76375621814631 -81.381878109073156 #
straight-curve $-1 -4.7265480638736541 0 81.381878109073156 0 -1 0 I I #
point $-1 -4.7265480638736541 162.76375621814631 81.381878109073156 #
point $-1 -4.7265480638736541 -162.76375621814631 81.381878109073156 #
straight-curve $-1 4.7265480638736541 -162.76375621814631 0 0 0 -1 I I #
straight-curve $-1 4.7265480638736541 162.76375621814631 0 0 0 -1 I I #
edge $-1 $689 1 $689 0 $519 $-1 forward 7 unknown #
point $-1 0.5 0 -0.25 #
plane-surface $-1 5.5543187691648868 0 0 -1 0 0 0 0 1 forward_v I I I I #
coedge $-1 $528 $526 $530 $651 reversed $344 $-1 #
edge $-1 $541 -81.381878109073156 $653 81.381878109073156 $540 $690 forward 7 unknown #
vertex $-1 $651 $691 #
straight-curve $-1 -5.5543187691648868 -162.76375621814631 0 0 0 -1 I I #
edge $-1 $649 -162.76375621814631 $653 162.76375621814631 $647 $692 forward 7 unknown #
straight-curve $-1 0 -162.76375621814631 -81.381878109073156 -1 0 0 I I #
vertex $-1 $533 $693 #
straight-curve $-1 0 162.76375621814631 -81.381878109073156 1 0 0 I I #
point $-1 5.5543187691648868 162.76375621814631 -81.381878109073156 #
point $-1 5.5543187691648868 -162.76375621814631 -81.381878109073156 #
straight-curve $-1 -5.5543187691648868 0 81.381878109073156 0 -1 0 I I #
point $-1 -5.5543187691648868 162.76375621814631 81.381878109073156 #
point $-1 -5.5543187691648868 -162.76375621814631 81.381878109073156 #
straight-curve $-1 5.5543187691648868 -162.76375621814631 0 0 0 -1 I I #
straight-curve $-1 5.5543187691648868 162.76375621814631 0 0 0 -1 I I #
edge $-1 $694 1 $694 0 $550 $-1 forward 7 unknown #
point $-1 1 0 -0.49999999999999978 #
edge $-1 $695 1 $695 0 $554 $-1 forward 7 unknown #
point $-1 1 0 -0.49999999999999978 #
straight-curve $-1 -40.690939054536578 21.70514570057717 0 0 0 -1 I I #
point $-1 -40.690939054536578 -21.70514570057717 -4.9791274357594046 #
straight-curve $-1 -40.690939054536578 0 -4.9791274357594046 0 1 0 I I #
point $-1 -40.690939054536578 21.70514570057717 -4.9791274357594046 #
straight-curve $-1 -4.7265480638736541 162.76375621814631 0 0 0 -1 I I #
point $-1 -4.7265480638736541 -162.76375621814631 -81.381878109073156 #
straight-curve $-1 -4.7265480638736541 0 -81.381878109073156 0 1 0 I I #
point $-1 -4.7265480638736541 162.76375621814631 -81.381878109073156 #
vertex $-1 $590 $696 #
straight-curve $-1 -4.7265480638736541 162.76375621814631 0 0 0 -1 I I #
point $-1 -4.7265480638736541 -162.76375621814631 -81.381878109073156 #
straight-curve $-1 -4.7265480638736541 0 -81.381878109073156 0 1 0 I I #
point $-1 -4.7265480638736541 162.76375621814631 -81.381878109073156 #
vertex $-1 $608 $697 #
straight-curve $-1 -4.7265480638736541 162.76375621814631 0 0 0 -1 I I #
point $-1 -4.7265480638736541 -162.76375621814631 -81.381878109073156 #
straight-curve $-1 -4.7265480638736541 0 -81.381878109073156 0 1 0 I I #
point $-1 -4.7265480638736541 162.76375621814631 -81.381878109073156 #
vertex $-1 $626 $698 #
straight-curve $-1 -4.7265480638736541 162.76375621814631 0 0 0 -1 I I #
point $-1 -4.7265480638736541 -162.76375621814631 -81.381878109073156 #
straight-curve $-1 -4.7265480638736541 0 -81.381878109073156 0 1 0 I I #
point $-1 -4.7265480638736541 162.76375621814631 -81.381878109073156 #
vertex $-1 $644 $699 #
straight-curve $-1 -5.5543187691648868 162.76375621814631 0 0 0 -1 I I #
point $-1 -5.5543187691648868 -162.76375621814631 -81.381878109073156 #
straight-curve $-1 -5.5543187691648868 0 -81.381878109073156 0 1 0 I I #
point $-1 -5.5543187691648868 162.76375621814631 -81.381878109073156 #
vertex $-1 $662 $700 #
vertex $-1 $664 $701 #
point $-1 0 0 0.25 #
point $-1 0 0 0.25 #
point $-1 0 0 0.25 #
point $-1 0 0 0.25 #
point $-1 0 0 0.49999999999999978 #
point $-1 0 0 0.49999999999999978 #
End-of-ACIS-data 