500 0 6 0           
7 Unknown 11 ACIS 5.0 NT 24 Fri Mar 26 14:40:27 1999 
-1 9.9999999999999995e-007 1e-010 
body $-1 $6 $-1 $7 #
body $-1 $8 $-1 $9 #
body $-1 $10 $-1 $11 #
body $-1 $12 $-1 $13 #
body $-1 $14 $-1 $15 #
body $-1 $16 $-1 $17 #
lump $-1 $-1 $18 $0 #
transform $-1 1 0 0 0 1 0 0 0 1 41.580858790856652 21.276450969478379 7.4476344288376453 1 rotate no_reflect no_shear #
lump $-1 $-1 $19 $1 #
transform $-1 1 0 0 0 1 0 0 0 1 41.580858790856652 21.276450969478379 7.4476344288376453 1 rotate no_reflect no_shear #
lump $-1 $-1 $20 $2 #
transform $-1 1 0 0 0 1 0 0 0 1 41.580858790856652 21.276450969478379 7.4476344288376453 1 rotate no_reflect no_shear #
lump $-1 $-1 $21 $3 #
transform $-1 1 0 0 0 1 0 0 0 1 41.580858790856652 21.276450969478379 7.4476344288376453 1 rotate no_reflect no_shear #
lump $-1 $-1 $22 $4 #
transform $-1 1 0 0 0 1 0 0 0 1 41.580858790856652 21.276450969478379 7.4476344288376453 1 rotate no_reflect no_shear #
lump $-1 $-1 $23 $5 #
transform $-1 1 0 0 0 1 0 0 0 1 41.580858790856652 21.276450969478379 7.4476344288376453 1 rotate no_reflect no_shear #
shell $-1 $-1 $-1 $24 $-1 $6 #
shell $-1 $-1 $-1 $25 $-1 $8 #
shell $-1 $-1 $-1 $26 $-1 $10 #
shell $-1 $-1 $-1 $27 $-1 $12 #
shell $-1 $-1 $-1 $28 $-1 $14 #
shell $-1 $-1 $-1 $29 $-1 $16 #
face $-1 $30 $31 $18 $-1 $32 forward single #
face $-1 $33 $34 $19 $-1 $35 forward single #
face $-1 $36 $37 $20 $-1 $38 reversed single #
face $-1 $39 $40 $21 $-1 $41 forward single #
face $-1 $42 $43 $22 $-1 $44 reversed single #
face $-1 $45 $46 $23 $-1 $47 forward single #
face $-1 $48 $49 $18 $-1 $50 reversed single #
loop $-1 $-1 $51 $24 #
plane-surface $-1 0 0 7.4476344288376453 0 0 1 1 0 0 forward_v I I I I #
face $-1 $52 $53 $19 $-1 $54 forward single #
loop $-1 $-1 $55 $25 #
plane-surface $-1 0 -21.276450969478379 0 0 1 0 0 0 1 forward_v I I I I #
face $-1 $56 $57 $20 $-1 $58 reversed single #
loop $-1 $-1 $59 $26 #
plane-surface $-1 11.141558412310381 -7.0903311079186757 116.03570088080885 0 -1 0 -0.50000000669873634 0 -0.8660253999169214 forward_v I I I I #
face $-1 $60 $61 $21 $-1 $62 forward single #
loop $-1 $63 $64 $27 #
cone-surface $-1 36.628747611076136 -10.742118895799468 3.8832787677485712 -0.50000000669873634 0 -0.8660253999169214 1.2990380998753821 0 -0.75000001004810457 1 I I 0 1 1.5 forward I I I I #
face $-1 $65 $66 $22 $-1 $67 reversed single #
loop $-1 $-1 $68 $28 #
plane-surface $-1 -106.20965244549726 14.484061809789711 53.052316965287488 0 1 0 -0.77714596973225614 0 0.62932038083071107 forward_v I I I I #
face $-1 $69 $70 $23 $-1 $71 forward single #
loop $-1 $72 $73 $29 #
cone-surface $-1 -38.193021094305713 17.880256389634045 3.5456996084900227 0.77714596973225614 0 -0.62932038083071107 0.9439805712460666 0 1.1657189545983841 1 I I 0 1 1.5 forward I I I I #
face $-1 $74 $75 $18 $-1 $76 reversed single #
loop $-1 $-1 $77 $30 #
plane-surface $-1 0 0 -7.4476344288376453 0 0 1 1 0 0 forward_v I I I I #
coedge $-1 $78 $79 $80 $81 forward $31 $-1 #
face $-1 $82 $83 $19 $-1 $84 reversed single #
loop $-1 $-1 $85 $33 #
plane-surface $-1 0 0 7.4476344288376453 0 0 1 1 0 0 forward_v I I I I #
coedge $-1 $86 $87 $88 $89 forward $34 $-1 #
face $-1 $90 $91 $20 $-1 $92 reversed single #
loop $-1 $-1 $93 $36 #
plane-surface $-1 -30.439300935624694 -10.742118895799468 44.015541154327508 0.50000000669873634 0 0.8660253999169214 0.8660253999169214 0 -0.50000000669873634 forward_v I I I I #
coedge $-1 $94 $95 $96 $97 reversed $37 $-1 #
face $-1 $-1 $98 $21 $-1 $99 forward single #
loop $-1 $100 $101 $39 #
cone-surface $-1 35.642980667726221 -10.742118895799468 2.1758803679444085 -0.50000000669873634 0 -0.8660253999169214 0.64951904993769105 0 -0.37500000502405229 1 I I -0.70710678118654757 0.70710678118654757 0.75 forward I I I I #
loop $-1 $-1 $102 $27 #
coedge $-1 $64 $64 $103 $104 reversed $40 $-1 #
face $-1 $105 $106 $22 $-1 $107 forward single #
loop $-1 $-1 $108 $42 #
plane-surface $-1 -41.580858790856652 17.880256389634045 0.71695318622763438 -0.77714596973225614 0 0.62932038083071107 0.62932038083071107 0 0.77714596973225614 forward_v I I I I #
coedge $-1 $109 $110 $111 $112 reversed $43 $-1 #
face $-1 $-1 $113 $23 $-1 $114 forward single #
loop $-1 $115 $116 $45 #
cone-surface $-1 -36.947522948579461 17.880256389634045 2.5371151238243783 0.77714596973225614 0 -0.62932038083071107 0.4719902856230333 0 0.58285947729919207 1 I I -0.70710678118654757 0.70710678118654757 0.75 forward I I I I #
loop $-1 $-1 $117 $29 #
coedge $-1 $73 $73 $118 $119 reversed $46 $-1 #
face $-1 $120 $121 $18 $-1 $122 reversed single #
loop $-1 $-1 $123 $48 #
plane-surface $-1 0 -21.276450969478379 0 0 1 0 0 0 1 forward_v I I I I #
coedge $-1 $124 $125 $126 $127 forward $49 $-1 #
coedge $-1 $128 $51 $129 $130 forward $31 $-1 #
coedge $-1 $51 $128 $131 $132 forward $31 $-1 #
coedge $-1 $133 $134 $51 $81 reversed $135 $-1 #
edge $-1 $136 -21.276450969478379 $137 21.276450969478379 $80 $138 forward 7 unknown #
face $-1 $139 $140 $19 $-1 $141 reversed single #
loop $-1 $-1 $142 $52 #
plane-surface $-1 -41.580858790856652 0 0 1 0 0 0 0 -1 forward_v I I I I #
coedge $-1 $143 $144 $145 $146 forward $53 $-1 #
coedge $-1 $145 $55 $142 $147 reversed $34 $-1 #
coedge $-1 $55 $145 $148 $149 reversed $34 $-1 #
coedge $-1 $150 $151 $55 $89 reversed $140 $-1 #
edge $-1 $152 -41.580858790856652 $153 41.580858790856652 $88 $154 forward 7 unknown #
face $-1 $155 $156 $20 $-1 $157 reversed single #
loop $-1 $-1 $158 $56 #
plane-surface $-1 11.141558412310381 -14.39390668368026 116.03570088080885 0 1 0 0.50000000669873634 0 0.8660253999169214 forward_v I I I I #
coedge $-1 $159 $160 $161 $162 reversed $57 $-1 #
coedge $-1 $95 $59 $163 $164 reversed $37 $-1 #
coedge $-1 $59 $94 $159 $165 reversed $37 $-1 #
coedge $-1 $161 $166 $59 $97 forward $167 $-1 #
edge $-1 $168 -36.010079584701458 $169 -27.327391101792148 $96 $170 forward 7 unknown #
loop $-1 $-1 $103 $60 #
plane-surface $-1 -30.439300935624694 -10.742118895799468 44.015541154327508 0.50000000669873634 0 0.8660253999169214 0.8660253999169214 0 -0.50000000669873634 forward_v I I I I #
loop $-1 $-1 $171 $39 #
coedge $-1 $101 $101 $102 $172 reversed $61 $-1 #
coedge $-1 $102 $102 $101 $172 forward $63 $-1 #
coedge $-1 $103 $103 $64 $104 forward $98 $-1 #
edge $-1 $173 0 $173 6.2831853071796004 $103 $174 forward 7 unknown #
face $-1 $175 $176 $22 $-1 $177 reversed single #
loop $-1 $-1 $111 $65 #
plane-surface $-1 0 0 7.4476344288376453 0 0 1 1 0 0 forward_v I I I I #
coedge $-1 $178 $179 $180 $181 reversed $66 $-1 #
coedge $-1 $110 $68 $182 $183 reversed $43 $-1 #
coedge $-1 $68 $109 $178 $184 reversed $43 $-1 #
coedge $-1 $180 $185 $68 $112 forward $106 $-1 #
edge $-1 $186 11.523967431891975 $187 16.974365488139718 $111 $188 forward 7 unknown #
loop $-1 $-1 $118 $69 #
plane-surface $-1 -41.580858790856652 17.880256389634045 0.71695318622763438 -0.77714596973225614 0 0.62932038083071107 0.62932038083071107 0 0.77714596973225614 forward_v I I I I #
loop $-1 $-1 $189 $45 #
coedge $-1 $116 $116 $117 $190 reversed $70 $-1 #
coedge $-1 $117 $117 $116 $190 forward $72 $-1 #
coedge $-1 $118 $118 $73 $119 forward $113 $-1 #
edge $-1 $191 0 $191 6.2831853071796004 $118 $192 forward 7 unknown #
face $-1 $193 $194 $18 $-1 $195 reversed single #
loop $-1 $-1 $196 $74 #
plane-surface $-1 -41.580858790856652 0 0 1 0 0 0 0 -1 forward_v I I I I #
coedge $-1 $197 $131 $198 $199 forward $75 $-1 #
coedge $-1 $200 $77 $197 $201 forward $49 $-1 #
coedge $-1 $77 $200 $202 $203 forward $49 $-1 #
coedge $-1 $134 $133 $77 $127 reversed $135 $-1 #
edge $-1 $204 -21.276450969478379 $205 21.276450969478379 $126 $206 forward 7 unknown #
coedge $-1 $79 $78 $207 $208 forward $31 $-1 #
coedge $-1 $209 $210 $78 $130 reversed $194 $-1 #
edge $-1 $137 -41.580858790856652 $211 41.580858790856652 $129 $212 forward 7 unknown #
coedge $-1 $123 $213 $79 $132 reversed $75 $-1 #
edge $-1 $214 -41.580858790856652 $136 41.580858790856652 $131 $215 forward 7 unknown #
coedge $-1 $126 $80 $213 $216 forward $135 $-1 #
coedge $-1 $80 $126 $209 $217 reversed $135 $-1 #
loop $-1 $-1 $133 $193 #
vertex $-1 $81 $218 #
vertex $-1 $81 $219 #
straight-curve $-1 41.580858790856652 0 7.4476344288376453 0 1 0 I I #
face $-1 $220 $221 $19 $-1 $222 reversed single #
loop $-1 $-1 $150 $82 #
plane-surface $-1 0 -24.717723112377438 4.4476344288376453 0 0 1 1 0 0 forward_v I I I I #
coedge $-1 $223 $224 $86 $147 forward $83 $-1 #
coedge $-1 $225 $85 $224 $226 forward $53 $-1 #
coedge $-1 $85 $225 $227 $228 forward $53 $-1 #
coedge $-1 $87 $86 $85 $146 reversed $34 $-1 #
edge $-1 $229 -41.580858790856652 $230 41.580858790856652 $85 $231 forward 7 unknown #
edge $-1 $230 -7.4476344288376453 $153 -4.4476344288376453 $142 $232 forward 7 unknown #
coedge $-1 $227 $233 $87 $149 forward $234 $-1 #
edge $-1 $152 4.4476344288376453 $229 7.4476344288376453 $148 $235 forward 7 unknown #
coedge $-1 $236 $88 $233 $237 forward $140 $-1 #
coedge $-1 $88 $236 $223 $238 forward $140 $-1 #
vertex $-1 $149 $239 #
vertex $-1 $147 $240 #
straight-curve $-1 0 -21.276450969478379 4.4476344288376453 -1 0 0 I I #
face $-1 $-1 $167 $20 $-1 $241 forward single #
loop $-1 $-1 $242 $90 #
plane-surface $-1 41.580858790856652 0 0 -1 0 0 0 0 1 forward_v I I I I #
coedge $-1 $243 $244 $245 $246 reversed $91 $-1 #
coedge $-1 $247 $93 $95 $165 forward $57 $-1 #
coedge $-1 $93 $247 $243 $248 forward $57 $-1 #
coedge $-1 $245 $96 $93 $162 forward $167 $-1 #
edge $-1 $169 1.7192716600189417 $249 9.0228472357805263 $161 $250 forward 7 unknown #
coedge $-1 $251 $252 $94 $164 forward $156 $-1 #
edge $-1 $253 -55.583168634011997 $168 -50.570216011566778 $163 $254 forward 7 unknown #
edge $-1 $169 73.135812471144675 $253 83.161717581713333 $95 $255 forward 7 unknown #
coedge $-1 $96 $245 $251 $256 forward $167 $-1 #
loop $-1 $-1 $245 $155 #
vertex $-1 $164 $257 #
vertex $-1 $97 $258 #
straight-curve $-1 5.5707792061551906 -7.0903311079186757 7.4476344288376453 -1 0 0 I I #
coedge $-1 $171 $171 $-1 $259 reversed $100 $-1 #
edge $-1 $260 0 $260 6.2831853071796004 $101 $261 forward 7 unknown #
vertex $-1 $104 $262 #
ellipse-curve $-1 37.239514549401996 -10.742118895799468 4.9411581176150374 0.50000000669873634 0 0.8660253999169214 1.2990380998753821 0 -0.75000001004810457 1 I I #
face $-1 $-1 $263 $22 $-1 $264 reversed single #
loop $-1 $-1 $265 $105 #
plane-surface $-1 0 21.276450969478379 0 0 -1 0 0 0 -1 forward_v I I I I #
coedge $-1 $266 $108 $110 $184 forward $66 $-1 #
coedge $-1 $108 $266 $265 $267 reversed $66 $-1 #
coedge $-1 $268 $111 $108 $181 forward $106 $-1 #
edge $-1 $187 5.5439336149726888 $269 12.336322774661356 $180 $270 forward 7 unknown #
coedge $-1 $271 $272 $109 $183 forward $263 $-1 #
edge $-1 $273 -25.80920529641611 $186 -19.078524053806099 $182 $274 forward 7 unknown #
edge $-1 $187 -8.6607683816836598 $273 0 $110 $275 forward 7 unknown #
coedge $-1 $111 $268 $271 $276 forward $106 $-1 #
vertex $-1 $183 $277 #
vertex $-1 $112 $278 #
straight-curve $-1 -53.104826222748628 14.484061809789711 7.4476344288376453 1 0 0 I I #
coedge $-1 $189 $189 $-1 $279 reversed $115 $-1 #
edge $-1 $280 0 $280 6.2831853071796004 $116 $281 forward 7 unknown #
vertex $-1 $119 $282 #
ellipse-curve $-1 -38.855659762732785 17.880256389634045 4.0822938075326398 -0.77714596973225614 0 0.62932038083071107 0.9439805712460666 0 1.1657189545983841 1 I I #
face $-1 $-1 $135 $18 $-1 $283 reversed single #
loop $-1 $-1 $209 $120 #
plane-surface $-1 0 21.276450969478379 0 0 -1 0 0 0 -1 forward_v I I I I #
coedge $-1 $284 $207 $210 $285 forward $121 $-1 #
coedge $-1 $213 $123 $124 $201 reversed $75 $-1 #
coedge $-1 $207 $284 $123 $199 reversed $121 $-1 #
edge $-1 $214 -7.4476344288376453 $286 7.4476344288376453 $198 $287 forward 7 unknown #
coedge $-1 $125 $124 $284 $288 forward $49 $-1 #
edge $-1 $205 -41.580858790856652 $286 41.580858790856652 $197 $289 forward 7 unknown #
coedge $-1 $210 $209 $125 $203 reversed $194 $-1 #
edge $-1 $290 -41.580858790856652 $204 41.580858790856652 $202 $291 forward 7 unknown #
vertex $-1 $127 $292 #
vertex $-1 $216 $293 #
straight-curve $-1 41.580858790856652 0 -7.4476344288376453 0 -1 0 I I #
coedge $-1 $196 $198 $128 $208 reversed $121 $-1 #
edge $-1 $211 -21.276450969478379 $214 21.276450969478379 $207 $294 forward 7 unknown #
coedge $-1 $202 $129 $134 $217 forward $194 $-1 #
coedge $-1 $129 $202 $196 $285 reversed $194 $-1 #
vertex $-1 $130 $295 #
straight-curve $-1 0 21.276450969478379 7.4476344288376453 -1 0 0 I I #
coedge $-1 $131 $197 $133 $216 reversed $75 $-1 #
vertex $-1 $208 $296 #
straight-curve $-1 0 -21.276450969478379 7.4476344288376453 1 0 0 I I #
edge $-1 $136 -7.4476344288376453 $205 7.4476344288376453 $133 $297 forward 7 unknown #
edge $-1 $137 -7.4476344288376453 $204 7.4476344288376453 $134 $298 forward 7 unknown #
point $-1 41.580858790856652 -21.276450969478379 7.4476344288376453 #
point $-1 41.580858790856652 21.276450969478379 7.4476344288376453 #
face $-1 $-1 $234 $19 $-1 $299 reversed single #
loop $-1 $-1 $300 $139 #
plane-surface $-1 0 -28.158995255276498 5.9476344288376453 0 1 0 0 0 1 forward_v I I I I #
coedge $-1 $301 $142 $151 $238 reversed $83 $-1 #
coedge $-1 $142 $301 $143 $226 reversed $83 $-1 #
coedge $-1 $144 $143 $302 $303 forward $53 $-1 #
edge $-1 $230 21.276450969478379 $304 28.158995255276498 $224 $305 forward 7 unknown #
coedge $-1 $306 $148 $144 $228 reversed $234 $-1 #
edge $-1 $307 -28.158995255276498 $229 -21.276450969478379 $227 $308 forward 7 unknown #
vertex $-1 $149 $309 #
vertex $-1 $226 $310 #
straight-curve $-1 0 -21.276450969478379 7.4476344288376453 -1 0 0 I I #
straight-curve $-1 -41.580858790856652 -21.276450969478379 0 0 0 -1 I I #
coedge $-1 $148 $306 $150 $237 reversed $234 $-1 #
loop $-1 $-1 $148 $220 #
straight-curve $-1 41.580858790856652 -21.276450969478379 0 0 0 1 I I #
coedge $-1 $151 $150 $311 $312 forward $140 $-1 #
edge $-1 $152 -3.4412721428990594 $313 3.4412721428990594 $233 $314 forward 7 unknown #
edge $-1 $315 -3.4412721428990594 $153 3.4412721428990594 $223 $316 forward 7 unknown #
point $-1 41.580858790856652 -21.276450969478379 4.4476344288376453 #
point $-1 -41.580858790856652 -21.276450969478379 4.4476344288376453 #
plane-surface $-1 0 0 7.4476344288376453 0 0 1 1 0 0 forward_v I I I I #
coedge $-1 $252 $251 $244 $317 forward $156 $-1 #
coedge $-1 $244 $158 $160 $248 reversed $91 $-1 #
coedge $-1 $158 $243 $242 $317 reversed $91 $-1 #
coedge $-1 $166 $161 $158 $246 forward $167 $-1 #
edge $-1 $249 27.327391101792148 $318 36.010079584701458 $245 $319 forward 7 unknown #
coedge $-1 $160 $159 $252 $320 reversed $57 $-1 #
edge $-1 $321 -83.161717581713333 $249 -73.135812471144675 $243 $322 forward 7 unknown #
vertex $-1 $162 $323 #
straight-curve $-1 32.898170307947346 -5.371059447899734 7.4476344288376488 0 -1 0 I I #
coedge $-1 $242 $163 $166 $256 reversed $156 $-1 #
coedge $-1 $163 $242 $247 $320 forward $156 $-1 #
vertex $-1 $164 $324 #
straight-curve $-1 41.580858790856652 -7.0903311079186757 58.017850440404423 0 0 1 I I #
straight-curve $-1 -30.439300935624694 -7.0903311079186757 44.015541154327508 0.8660253999169214 0 -0.50000000669873634 I I #
edge $-1 $318 -14.39390668368026 $168 -7.0903311079186757 $251 $325 forward 7 unknown #
point $-1 41.580858790856652 -7.0903311079186757 7.4476344288376453 #
point $-1 32.898170307947339 -7.0903311079186757 7.4476344288376453 #
edge $-1 $326 1 $326 0 $171 $-1 forward 7 unknown #
vertex $-1 $172 $327 #
ellipse-curve $-1 36.017980672750269 -10.742118895799468 2.8253994178820996 0.50000000669873634 0 0.8660253999169214 1.2990380998753821 0 -0.75000001004810457 1 I I #
point $-1 38.538552649277385 -10.742118895799468 4.1911581075669382 #
loop $-1 $-1 $182 $175 #
plane-surface $-1 -41.580858790856652 0 0 1 0 0 0 0 -1 forward_v I I I I #
coedge $-1 $328 $329 $179 $267 forward $176 $-1 #
coedge $-1 $179 $178 $272 $330 reversed $66 $-1 #
edge $-1 $269 4.1444839234995525 $331 12.805252305183213 $265 $332 forward 7 unknown #
coedge $-1 $185 $180 $329 $333 forward $106 $-1 #
vertex $-1 $333 $334 #
straight-curve $-1 -36.13046073460891 8.9401281948170226 7.4476344288376453 0 1 0 I I #
coedge $-1 $335 $182 $185 $276 reversed $263 $-1 #
coedge $-1 $182 $335 $266 $330 forward $263 $-1 #
vertex $-1 $183 $336 #
straight-curve $-1 -41.580858790856652 14.484061809789711 26.526158482643744 0 0 1 I I #
straight-curve $-1 -41.580858790856652 14.484061809789711 0.71695318622763438 -0.62932038083071107 0 -0.77714596973225614 I I #
edge $-1 $337 -21.276450969478379 $186 -14.484061809789711 $271 $338 forward 7 unknown #
point $-1 -41.580858790856652 14.484061809789711 7.4476344288376453 #
point $-1 -36.13046073460891 14.484061809789711 7.4476344288376453 #
edge $-1 $339 1 $339 0 $189 $-1 forward 7 unknown #
vertex $-1 $190 $340 #
ellipse-curve $-1 -37.530382425878656 17.880256389634045 3.0091054094474114 -0.77714596973225614 0 0.62932038083071107 0.9439805712460666 0 1.1657189545983841 1 I I #
point $-1 -37.911679191486712 17.880256389634045 5.248012762131018 #
plane-surface $-1 41.580858790856652 0 0 -1 0 0 0 0 1 forward_v I I I I #
coedge $-1 $198 $196 $200 $288 reversed $121 $-1 #
edge $-1 $211 -7.4476344288376453 $290 7.4476344288376453 $210 $341 forward 7 unknown #
vertex $-1 $288 $342 #
straight-curve $-1 -41.580858790856652 -21.276450969478379 0 0 0 -1 I I #
edge $-1 $286 -21.276450969478379 $290 21.276450969478379 $284 $343 forward 7 unknown #
straight-curve $-1 0 -21.276450969478379 -7.4476344288376453 -1 0 0 I I #
vertex $-1 $203 $344 #
straight-curve $-1 0 21.276450969478379 -7.4476344288376453 1 0 0 I I #
point $-1 41.580858790856652 21.276450969478379 -7.4476344288376453 #
point $-1 41.580858790856652 -21.276450969478379 -7.4476344288376453 #
straight-curve $-1 -41.580858790856652 0 7.4476344288376453 0 -1 0 I I #
point $-1 -41.580858790856652 21.276450969478379 7.4476344288376453 #
point $-1 -41.580858790856652 -21.276450969478379 7.4476344288376453 #
straight-curve $-1 41.580858790856652 -21.276450969478379 0 0 0 -1 I I #
straight-curve $-1 41.580858790856652 21.276450969478379 0 0 0 -1 I I #
plane-surface $-1 41.580858790856652 0 0 -1 0 0 0 0 1 forward_v I I I I #
coedge $-1 $311 $302 $301 $345 forward $221 $-1 #
coedge $-1 $224 $223 $300 $345 reversed $83 $-1 #
coedge $-1 $300 $346 $225 $303 reversed $221 $-1 #
edge $-1 $304 -41.580858790856652 $307 41.580858790856652 $302 $347 forward 7 unknown #
vertex $-1 $226 $348 #
straight-curve $-1 -41.580858790856652 0 7.4476344288376453 0 -1 0 I I #
coedge $-1 $233 $227 $346 $349 forward $234 $-1 #
vertex $-1 $228 $350 #
straight-curve $-1 41.580858790856652 0 7.4476344288376453 0 1 0 I I #
point $-1 41.580858790856652 -21.276450969478379 7.4476344288376453 #
point $-1 -41.580858790856652 -21.276450969478379 7.4476344288376453 #
coedge $-1 $346 $300 $236 $312 reversed $221 $-1 #
edge $-1 $313 -41.580858790856652 $315 41.580858790856652 $311 $351 forward 7 unknown #
vertex $-1 $349 $352 #
straight-curve $-1 41.580858790856652 -24.717723112377438 4.4476344288376453 0 -1 0 I I #
vertex $-1 $238 $353 #
straight-curve $-1 -41.580858790856652 -24.717723112377438 4.4476344288376453 0 1 0 I I #
edge $-1 $318 50.570216011566778 $321 55.583168634011997 $242 $354 forward 7 unknown #
vertex $-1 $256 $355 #
straight-curve $-1 5.5707792061551906 -14.39390668368026 7.4476344288376453 1 0 0 I I #
edge $-1 $321 -9.0228472357805263 $253 -1.7192716600189417 $252 $356 forward 7 unknown #
vertex $-1 $320 $357 #
straight-curve $-1 -30.439300935624694 -14.39390668368026 44.015541154327508 -0.8660253999169214 0 0.50000000669873634 I I #
point $-1 32.898170307947339 -14.39390668368026 7.4476344288376453 #
point $-1 41.580858790856659 -7.0903311079186757 2.434681806392426 #
straight-curve $-1 41.580858790856652 0 7.4476344288376453 0 1 0 I I #
vertex $-1 $259 $358 #
point $-1 37.317018772625659 -10.742118895799468 2.075399407833995 #
coedge $-1 $329 $265 $335 $359 reversed $176 $-1 #
coedge $-1 $265 $328 $268 $333 reversed $176 $-1 #
edge $-1 $331 -12.336322774661356 $273 -5.5439336149726888 $272 $360 forward 7 unknown #
vertex $-1 $267 $361 #
straight-curve $-1 -33.52225253352541 21.276450969478379 10.668503406605449 -0.62932038083071107 0 -0.77714596973225614 I I #
edge $-1 $269 36.13046073460891 $337 41.580858790856652 $329 $362 forward 7 unknown #
point $-1 -36.13046073460891 21.276450969478379 7.4476344288376453 #
coedge $-1 $272 $271 $328 $359 forward $263 $-1 #
point $-1 -41.580858790856652 14.484061809789711 0.71695318622763438 #
vertex $-1 $333 $363 #
straight-curve $-1 -41.580858790856652 0 7.4476344288376453 0 -1 0 I I #
vertex $-1 $279 $364 #
point $-1 -36.586401854632584 17.880256389634045 4.1748243640457954 #
straight-curve $-1 -41.580858790856652 21.276450969478379 0 0 0 -1 I I #
point $-1 -41.580858790856652 -21.276450969478379 -7.4476344288376453 #
straight-curve $-1 -41.580858790856652 0 -7.4476344288376453 0 1 0 I I #
point $-1 -41.580858790856652 21.276450969478379 -7.4476344288376453 #
edge $-1 $304 -1.5 $315 1.5 $301 $365 forward 7 unknown #
coedge $-1 $302 $311 $306 $349 reversed $221 $-1 #
straight-curve $-1 0 -28.158995255276498 7.4476344288376453 1 0 0 I I #
point $-1 -41.580858790856652 -28.158995255276498 7.4476344288376453 #
edge $-1 $307 -1.5 $313 1.5 $306 $366 forward 7 unknown #
point $-1 41.580858790856652 -28.158995255276498 7.4476344288376453 #
straight-curve $-1 0 -28.158995255276498 4.4476344288376453 -1 0 0 I I #
point $-1 41.580858790856652 -28.158995255276498 4.4476344288376453 #
point $-1 -41.580858790856652 -28.158995255276498 4.4476344288376453 #
straight-curve $-1 41.580858790856652 -14.39390668368026 58.017850440404423 0 0 -1 I I #
point $-1 41.580858790856652 -14.39390668368026 7.4476344288376453 #
straight-curve $-1 41.580858790856652 -5.371059447899734 2.4346818063924331 0 1 0 I I #
point $-1 41.580858790856659 -14.39390668368026 2.434681806392426 #
point $-1 35.267980662702172 -10.742118895799468 1.5263613180067175 #
edge $-1 $337 -7.4476344288376453 $331 -0.71695318622763438 $328 $367 forward 7 unknown #
straight-curve $-1 -41.580858790856652 8.9401281948170226 0.71695318622763105 0 -1 0 I I #
point $-1 -41.580858790856652 21.276450969478379 0.71695318622763438 #
straight-curve $-1 0 21.276450969478379 7.4476344288376453 -1 0 0 I I #
point $-1 -41.580858790856652 21.276450969478379 7.4476344288376453 #
point $-1 -36.364663471280267 17.880256389634045 2.0651248382013452 #
straight-curve $-1 -41.580858790856652 -28.158995255276498 5.9476344288376453 0 0 -1 I I #
straight-curve $-1 41.580858790856652 -28.158995255276498 5.9476344288376453 0 0 -1 I I #
straight-curve $-1 -41.580858790856652 21.276450969478379 0 0 0 -1 I I #
End-of-ACIS-data 