500 0 18 0           
7 Unknown 11 ACIS 5.0 NT 24 Thu Mar 25 17:30:22 1999 
-1 9.9999999999999995e-007 1e-010 
body $-1 $18 $-1 $19 #
body $-1 $20 $-1 $21 #
body $-1 $22 $-1 $23 #
body $-1 $24 $-1 $25 #
body $-1 $26 $-1 $27 #
body $-1 $28 $-1 $29 #
body $-1 $30 $-1 $31 #
body $-1 $32 $-1 $33 #
body $-1 $34 $-1 $35 #
body $-1 $36 $-1 $37 #
body $-1 $38 $-1 $39 #
body $-1 $40 $-1 $41 #
body $-1 $42 $-1 $43 #
body $-1 $44 $-1 $45 #
body $-1 $46 $-1 $47 #
body $-1 $48 $-1 $49 #
body $-1 $50 $-1 $51 #
body $-1 $52 $-1 $53 #
lump $-1 $-1 $54 $0 #
transform $-1 1 0 0 0 1 0 0 0 1 62.265083773308511 27.189738995903262 7.167064841316436 1 rotate no_reflect no_shear #
lump $-1 $-1 $55 $1 #
transform $-1 1 0 0 0 1 0 0 0 1 62.265083773308511 27.189738995903262 7.167064841316436 1 rotate no_reflect no_shear #
lump $-1 $-1 $56 $2 #
transform $-1 1 0 0 0 1 0 0 0 1 62.265083773308511 27.189738995903262 7.167064841316436 1 rotate no_reflect no_shear #
lump $-1 $-1 $57 $3 #
transform $-1 1 0 0 0 1 0 0 0 1 62.265083773308511 27.189738995903262 7.167064841316436 1 rotate no_reflect no_shear #
lump $-1 $-1 $58 $4 #
transform $-1 1 0 0 0 1 0 0 0 1 62.265083773308511 27.189738995903262 7.167064841316436 1 rotate no_reflect no_shear #
lump $-1 $-1 $59 $5 #
transform $-1 1 0 0 0 1 0 0 0 1 62.265083773308511 27.189738995903262 7.167064841316436 1 rotate no_reflect no_shear #
lump $-1 $-1 $60 $6 #
transform $-1 1 0 0 0 1 0 0 0 1 62.265083773308511 27.189738995903262 7.167064841316436 1 rotate no_reflect no_shear #
lump $-1 $-1 $61 $7 #
transform $-1 1 0 0 0 1 0 0 0 1 62.265083773308511 27.189738995903262 7.167064841316436 1 rotate no_reflect no_shear #
lump $-1 $-1 $62 $8 #
transform $-1 1 0 0 0 1 0 0 0 1 62.265083773308511 27.189738995903262 7.167064841316436 1 rotate no_reflect no_shear #
lump $-1 $-1 $63 $9 #
transform $-1 1 0 0 0 1 0 0 0 1 62.265083773308511 27.189738995903262 7.167064841316436 1 rotate no_reflect no_shear #
lump $-1 $-1 $64 $10 #
transform $-1 1 0 0 0 1 0 0 0 1 62.265083773308511 27.189738995903262 7.167064841316436 1 rotate no_reflect no_shear #
lump $-1 $-1 $65 $11 #
transform $-1 1 0 0 0 1 0 0 0 1 62.265083773308511 27.189738995903262 7.167064841316436 1 rotate no_reflect no_shear #
lump $-1 $-1 $66 $12 #
transform $-1 1 0 0 0 1 0 0 0 1 62.265083773308511 27.189738995903262 7.167064841316436 1 rotate no_reflect no_shear #
lump $-1 $-1 $67 $13 #
transform $-1 1 0 0 0 1 0 0 0 1 62.265083773308511 27.189738995903262 7.167064841316436 1 rotate no_reflect no_shear #
lump $-1 $-1 $68 $14 #
transform $-1 1 0 0 0 1 0 0 0 1 62.265083773308511 27.189738995903262 7.167064841316436 1 rotate no_reflect no_shear #
lump $-1 $-1 $69 $15 #
transform $-1 1 0 0 0 1 0 0 0 1 62.265083773308511 27.189738995903262 7.167064841316436 1 rotate no_reflect no_shear #
lump $-1 $-1 $70 $16 #
transform $-1 1 0 0 0 1 0 0 0 1 62.265083773308511 27.189738995903262 7.167064841316436 1 rotate no_reflect no_shear #
lump $-1 $-1 $71 $17 #
transform $-1 1 0 0 0 1 0 0 0 1 62.265083773308511 27.189738995903262 7.167064841316436 1 rotate no_reflect no_shear #
shell $-1 $-1 $-1 $72 $-1 $18 #
shell $-1 $-1 $-1 $73 $-1 $20 #
shell $-1 $-1 $-1 $74 $-1 $22 #
shell $-1 $-1 $-1 $75 $-1 $24 #
shell $-1 $-1 $-1 $76 $-1 $26 #
shell $-1 $-1 $-1 $77 $-1 $28 #
shell $-1 $-1 $-1 $78 $-1 $30 #
shell $-1 $-1 $-1 $79 $-1 $32 #
shell $-1 $-1 $-1 $80 $-1 $34 #
shell $-1 $-1 $-1 $81 $-1 $36 #
shell $-1 $-1 $-1 $82 $-1 $38 #
shell $-1 $-1 $-1 $83 $-1 $40 #
shell $-1 $-1 $-1 $84 $-1 $42 #
shell $-1 $-1 $-1 $85 $-1 $44 #
shell $-1 $-1 $-1 $86 $-1 $46 #
shell $-1 $-1 $-1 $87 $-1 $48 #
shell $-1 $-1 $-1 $88 $-1 $50 #
shell $-1 $-1 $-1 $89 $-1 $52 #
face $-1 $90 $91 $54 $-1 $92 forward single #
face $-1 $93 $94 $55 $-1 $95 forward single #
face $-1 $96 $97 $56 $-1 $98 reversed single #
face $-1 $99 $100 $57 $-1 $101 forward single #
face $-1 $102 $103 $58 $-1 $104 forward single #
face $-1 $105 $106 $59 $-1 $107 forward single #
face $-1 $108 $109 $60 $-1 $110 reversed single #
face $-1 $111 $112 $61 $-1 $113 forward single #
face $-1 $114 $115 $62 $-1 $116 forward single #
face $-1 $117 $118 $63 $-1 $119 forward single #
face $-1 $120 $121 $64 $-1 $122 reversed single #
face $-1 $123 $124 $65 $-1 $125 forward single #
face $-1 $126 $127 $66 $-1 $128 forward single #
face $-1 $129 $130 $67 $-1 $131 forward single #
face $-1 $132 $133 $68 $-1 $134 reversed single #
face $-1 $135 $136 $69 $-1 $137 forward single #
face $-1 $138 $139 $70 $-1 $140 forward single #
face $-1 $141 $142 $71 $-1 $143 forward single #
face $-1 $144 $145 $54 $-1 $146 reversed single #
loop $-1 $-1 $147 $72 #
plane-surface $-1 0 0 7.167064841316436 0 0 1 1 0 0 forward_v I I I I #
face $-1 $148 $149 $55 $-1 $150 reversed single #
loop $-1 $-1 $151 $73 #
plane-surface $-1 0 -24.495465498802517 6.4022782960635523 0 0 1 1 0 0 forward_v I I I I #
face $-1 $152 $153 $56 $-1 $154 reversed single #
loop $-1 $-1 $155 $74 #
plane-surface $-1 -62.265083773308504 -17.447424414777458 0.9375164650466985 -0.82903758062907751 0 0.55919289150049634 0.55919289150049634 0 0.82903758062907751 forward_v I I I I #
face $-1 $156 $157 $57 $-1 $158 forward single #
loop $-1 $159 $160 $75 #
cone-surface $-1 -59.406794898912366 -20.059684966932046 3.5414535177181343 0.82903758062907751 0 -0.55919289150049634 0.27959644575024817 0 0.41451879031453875 1 I I 0 1 0.5 forward I I I I #
face $-1 $161 $162 $58 $-1 $163 forward single #
loop $-1 $164 $165 $76 #
cone-surface $-1 -59.406794898912366 -17.447424414777458 3.5414535177181343 0.82903758062907751 0 -0.55919289150049634 0.27959644575024817 0 0.41451879031453875 1 I I 0 1 0.5 forward I I I I #
face $-1 $166 $167 $59 $-1 $168 forward single #
loop $-1 $169 $170 $77 #
cone-surface $-1 -59.406794898912366 -14.835163862622871 3.5414535177181343 0.82903758062907751 0 -0.55919289150049634 0.27959644575024817 0 0.41451879031453875 1 I I 0 1 0.5 forward I I I I #
face $-1 $171 $172 $60 $-1 $173 reversed single #
loop $-1 $-1 $174 $78 #
plane-surface $-1 -62.265083773308504 22.835971408978949 0.9375164650466985 -0.82903758062907751 0 0.55919289150049634 0.55919289150049634 0 0.82903758062907751 forward_v I I I I #
face $-1 $175 $176 $61 $-1 $177 forward single #
loop $-1 $178 $179 $79 #
cone-surface $-1 -59.406794898912366 20.223710856824361 3.5414535177181343 0.82903758062907751 0 -0.55919289150049634 0.27959644575024817 0 0.41451879031453875 1 I I 0 1 0.5 forward I I I I #
face $-1 $180 $181 $62 $-1 $182 forward single #
loop $-1 $183 $184 $80 #
cone-surface $-1 -59.406794898912366 22.835971408978949 3.5414535177181343 0.82903758062907751 0 -0.55919289150049634 0.27959644575024817 0 0.41451879031453875 1 I I 0 1 0.5 forward I I I I #
face $-1 $185 $186 $63 $-1 $187 forward single #
loop $-1 $188 $189 $81 #
cone-surface $-1 -59.406794898912366 25.448231961133537 3.5414535177181343 0.82903758062907751 0 -0.55919289150049634 0.27959644575024817 0 0.41451879031453875 1 I I 0 1 0.5 forward I I I I #
face $-1 $190 $191 $64 $-1 $192 reversed single #
loop $-1 $-1 $193 $82 #
plane-surface $-1 -7.3713006961255303 -17.447424414777458 104.17770528322772 0.82903758062907751 0 0.55919289150049634 0.55919289150049634 0 -0.82903758062907751 forward_v I I I I #
face $-1 $194 $195 $65 $-1 $196 forward single #
loop $-1 $197 $198 $83 #
cone-surface $-1 59.406794898912352 -20.059684966932046 3.5414535177181237 -0.82903758062907751 0 -0.55919289150049634 0.27959644575024817 0 -0.41451879031453875 1 I I 0 1 0.5 forward I I I I #
face $-1 $199 $200 $66 $-1 $201 forward single #
loop $-1 $202 $203 $84 #
cone-surface $-1 59.406794898912352 -17.447424414777458 3.5414535177181237 -0.82903758062907751 0 -0.55919289150049634 0.27959644575024817 0 -0.41451879031453875 1 I I 0 1 0.5 forward I I I I #
face $-1 $204 $205 $67 $-1 $206 forward single #
loop $-1 $207 $208 $85 #
cone-surface $-1 59.406794898912352 -14.835163862622871 3.5414535177181237 -0.82903758062907751 0 -0.55919289150049634 0.27959644575024817 0 -0.41451879031453875 1 I I 0 1 0.5 forward I I I I #
face $-1 $209 $210 $68 $-1 $211 reversed single #
loop $-1 $-1 $212 $86 #
plane-surface $-1 95.868888122055523 18.482203822054636 173.81408975266177 0 1 0 0.82903758062907751 0 0.55919289150049634 forward_v I I I I #
face $-1 $213 $214 $69 $-1 $215 forward single #
loop $-1 $216 $217 $87 #
cone-surface $-1 59.406794898912352 20.223710856824361 3.5414535177181237 -0.82903758062907751 0 -0.55919289150049634 0.27959644575024817 0 -0.41451879031453875 1 I I 0 1 0.5 forward I I I I #
face $-1 $218 $219 $70 $-1 $220 forward single #
loop $-1 $221 $222 $88 #
cone-surface $-1 59.406794898912352 22.835971408978949 3.5414535177181237 -0.82903758062907751 0 -0.55919289150049634 0.27959644575024817 0 -0.41451879031453875 1 I I 0 1 0.5 forward I I I I #
face $-1 $223 $224 $71 $-1 $225 forward single #
loop $-1 $226 $227 $89 #
cone-surface $-1 59.406794898912352 25.448231961133537 3.5414535177181237 -0.82903758062907751 0 -0.55919289150049634 0.27959644575024817 0 -0.41451879031453875 1 I I 0 1 0.5 forward I I I I #
face $-1 $228 $229 $54 $-1 $230 reversed single #
loop $-1 $-1 $231 $90 #
plane-surface $-1 0 0 -7.167064841316436 0 0 1 1 0 0 forward_v I I I I #
coedge $-1 $232 $233 $234 $235 forward $91 $-1 #
face $-1 $236 $237 $55 $-1 $238 reversed single #
loop $-1 $-1 $239 $93 #
plane-surface $-1 0 -24.495465498802517 3.4022782960635523 0 0 1 1 0 0 forward_v I I I I #
coedge $-1 $240 $241 $242 $243 reversed $94 $-1 #
face $-1 $244 $245 $56 $-1 $246 forward single #
loop $-1 $-1 $247 $96 #
plane-surface $-1 -165.50527259148956 -13.093656827853145 70.573900934480747 0 -1 0 0.82903758062907751 0 -0.55919289150049634 forward_v I I I I #
coedge $-1 $248 $249 $250 $251 reversed $97 $-1 #
face $-1 $-1 $252 $57 $-1 $253 forward single #
loop $-1 $254 $255 $99 #
cone-surface $-1 -58.442188281862322 -20.059684966932046 2.8908181593795836 0.82903758062907751 0 -0.55919289150049634 0.13979822287512408 0 0.20725939515726938 1 I I -0.70710678118654746 0.70710678118654746 0.25 forward I I I I #
loop $-1 $-1 $256 $75 #
coedge $-1 $160 $160 $257 $258 reversed $100 $-1 #
face $-1 $-1 $259 $58 $-1 $260 forward single #
loop $-1 $261 $262 $102 #
cone-surface $-1 -58.442188281862322 -17.447424414777458 2.8908181593795836 0.82903758062907751 0 -0.55919289150049634 0.13979822287512408 0 0.20725939515726938 1 I I -0.70710678118654746 0.70710678118654746 0.25 forward I I I I #
loop $-1 $-1 $263 $76 #
coedge $-1 $165 $165 $264 $265 reversed $103 $-1 #
face $-1 $-1 $266 $59 $-1 $267 forward single #
loop $-1 $268 $269 $105 #
cone-surface $-1 -58.442188281862322 -14.835163862622871 2.8908181593795836 0.82903758062907751 0 -0.55919289150049634 0.13979822287512408 0 0.20725939515726938 1 I I -0.70710678118654746 0.70710678118654746 0.25 forward I I I I #
loop $-1 $-1 $270 $77 #
coedge $-1 $170 $170 $271 $272 reversed $106 $-1 #
face $-1 $273 $274 $60 $-1 $275 reversed single #
loop $-1 $-1 $276 $108 #
plane-surface $-1 -165.50527259148956 18.482203822054636 70.573900934480747 0 1 0 -0.82903758062907751 0 0.55919289150049634 forward_v I I I I #
coedge $-1 $277 $278 $279 $280 reversed $109 $-1 #
face $-1 $-1 $281 $61 $-1 $282 forward single #
loop $-1 $283 $284 $111 #
cone-surface $-1 -58.442188281862322 20.223710856824361 2.8908181593795836 0.82903758062907751 0 -0.55919289150049634 0.13979822287512408 0 0.20725939515726938 1 I I -0.70710678118654746 0.70710678118654746 0.25 forward I I I I #
loop $-1 $-1 $285 $79 #
coedge $-1 $179 $179 $286 $287 reversed $112 $-1 #
face $-1 $-1 $288 $62 $-1 $289 forward single #
loop $-1 $290 $291 $114 #
cone-surface $-1 -58.442188281862322 22.835971408978949 2.8908181593795836 0.82903758062907751 0 -0.55919289150049634 0.13979822287512408 0 0.20725939515726938 1 I I -0.70710678118654746 0.70710678118654746 0.25 forward I I I I #
loop $-1 $-1 $292 $80 #
coedge $-1 $184 $184 $293 $294 reversed $115 $-1 #
face $-1 $-1 $295 $63 $-1 $296 forward single #
loop $-1 $297 $298 $117 #
cone-surface $-1 -58.442188281862322 25.448231961133537 2.8908181593795836 0.82903758062907751 0 -0.55919289150049634 0.13979822287512408 0 0.20725939515726938 1 I I -0.70710678118654746 0.70710678118654746 0.25 forward I I I I #
loop $-1 $-1 $299 $81 #
coedge $-1 $189 $189 $300 $301 reversed $118 $-1 #
face $-1 $302 $303 $64 $-1 $304 forward single #
loop $-1 $-1 $305 $120 #
plane-surface $-1 95.868888122055523 -13.093656827853145 173.81408975266177 0 -1 0 -0.82903758062907751 0 -0.55919289150049634 forward_v I I I I #
coedge $-1 $306 $307 $308 $309 reversed $121 $-1 #
face $-1 $-1 $310 $65 $-1 $311 forward single #
loop $-1 $312 $313 $123 #
cone-surface $-1 58.442188281862308 -20.059684966932046 2.890818159379573 -0.82903758062907751 0 -0.55919289150049634 0.13979822287512408 0 -0.20725939515726938 1 I I -0.70710678118654746 0.70710678118654746 0.25 forward I I I I #
loop $-1 $-1 $314 $83 #
coedge $-1 $198 $198 $315 $316 reversed $124 $-1 #
face $-1 $-1 $317 $66 $-1 $318 forward single #
loop $-1 $319 $320 $126 #
cone-surface $-1 58.442188281862308 -17.447424414777458 2.890818159379573 -0.82903758062907751 0 -0.55919289150049634 0.13979822287512408 0 -0.20725939515726938 1 I I -0.70710678118654746 0.70710678118654746 0.25 forward I I I I #
loop $-1 $-1 $321 $84 #
coedge $-1 $203 $203 $322 $323 reversed $127 $-1 #
face $-1 $-1 $324 $67 $-1 $325 forward single #
loop $-1 $326 $327 $129 #
cone-surface $-1 58.442188281862308 -14.835163862622871 2.890818159379573 -0.82903758062907751 0 -0.55919289150049634 0.13979822287512408 0 -0.20725939515726938 1 I I -0.70710678118654746 0.70710678118654746 0.25 forward I I I I #
loop $-1 $-1 $328 $85 #
coedge $-1 $208 $208 $329 $330 reversed $130 $-1 #
face $-1 $331 $332 $68 $-1 $333 reversed single #
loop $-1 $-1 $334 $132 #
plane-surface $-1 -7.3713006961255303 22.835971408978949 104.17770528322772 0.82903758062907751 0 0.55919289150049634 0.55919289150049634 0 -0.82903758062907751 forward_v I I I I #
coedge $-1 $335 $336 $337 $338 reversed $133 $-1 #
face $-1 $-1 $339 $69 $-1 $340 forward single #
loop $-1 $341 $342 $135 #
cone-surface $-1 58.442188281862308 20.223710856824361 2.890818159379573 -0.82903758062907751 0 -0.55919289150049634 0.13979822287512408 0 -0.20725939515726938 1 I I -0.70710678118654746 0.70710678118654746 0.25 forward I I I I #
loop $-1 $-1 $343 $87 #
coedge $-1 $217 $217 $344 $345 reversed $136 $-1 #
face $-1 $-1 $346 $70 $-1 $347 forward single #
loop $-1 $348 $349 $138 #
cone-surface $-1 58.442188281862308 22.835971408978949 2.890818159379573 -0.82903758062907751 0 -0.55919289150049634 0.13979822287512408 0 -0.20725939515726938 1 I I -0.70710678118654746 0.70710678118654746 0.25 forward I I I I #
loop $-1 $-1 $350 $88 #
coedge $-1 $222 $222 $351 $352 reversed $139 $-1 #
face $-1 $-1 $353 $71 $-1 $354 forward single #
loop $-1 $355 $356 $141 #
cone-surface $-1 58.442188281862308 25.448231961133537 2.890818159379573 -0.82903758062907751 0 -0.55919289150049634 0.13979822287512408 0 -0.20725939515726938 1 I I -0.70710678118654746 0.70710678118654746 0.25 forward I I I I #
loop $-1 $-1 $357 $89 #
coedge $-1 $227 $227 $358 $359 reversed $142 $-1 #
face $-1 $360 $361 $54 $-1 $362 reversed single #
loop $-1 $-1 $363 $144 #
plane-surface $-1 0 -27.189738995903262 0 0 1 0 0 0 1 forward_v I I I I #
coedge $-1 $364 $365 $366 $367 forward $145 $-1 #
coedge $-1 $368 $147 $369 $370 forward $91 $-1 #
coedge $-1 $147 $368 $371 $372 forward $91 $-1 #
coedge $-1 $373 $374 $147 $235 reversed $375 $-1 #
edge $-1 $376 -27.189738995903262 $377 27.189738995903262 $234 $378 forward 7 unknown #
face $-1 $379 $380 $55 $-1 $381 reversed single #
loop $-1 $-1 $382 $148 #
plane-surface $-1 0 -21.801192001701772 4.9022782960635523 0 -1 0 0 0 -1 forward_v I I I I #
coedge $-1 $383 $384 $385 $386 reversed $149 $-1 #
coedge $-1 $387 $151 $388 $389 forward $94 $-1 #
coedge $-1 $151 $387 $390 $391 reversed $94 $-1 #
coedge $-1 $392 $393 $151 $243 forward $394 $-1 #
edge $-1 $395 9.5534592523005131 $396 14.942006246502004 $242 $397 forward 7 unknown #
face $-1 $398 $399 $56 $-1 $400 forward single #
loop $-1 $-1 $401 $152 #
plane-surface $-1 0 -21.801192001701772 4.9022782960635523 0 -1 0 0 0 -1 forward_v I I I I #
coedge $-1 $402 $403 $404 $405 reversed $153 $-1 #
coedge $-1 $406 $155 $401 $407 forward $97 $-1 #
coedge $-1 $155 $406 $402 $408 forward $97 $-1 #
coedge $-1 $404 $409 $155 $251 forward $399 $-1 #
edge $-1 $410 -13.077479794313042 $411 -4.3699446204644161 $250 $412 forward 7 unknown #
loop $-1 $-1 $257 $156 #
plane-surface $-1 -62.265083773308504 -17.447424414777458 0.9375164650466985 -0.82903758062907751 0 0.55919289150049634 0.55919289150049634 0 0.82903758062907751 forward_v I I I I #
loop $-1 $-1 $413 $99 #
coedge $-1 $255 $255 $256 $414 reversed $157 $-1 #
coedge $-1 $256 $256 $255 $414 forward $159 $-1 #
coedge $-1 $257 $257 $160 $258 forward $252 $-1 #
edge $-1 $415 0 $415 6.2831853071796004 $257 $416 forward 7 unknown #
loop $-1 $-1 $264 $161 #
plane-surface $-1 -62.265083773308504 -17.447424414777458 0.9375164650466985 -0.82903758062907751 0 0.55919289150049634 0.55919289150049634 0 0.82903758062907751 forward_v I I I I #
loop $-1 $-1 $417 $102 #
coedge $-1 $262 $262 $263 $418 reversed $162 $-1 #
coedge $-1 $263 $263 $262 $418 forward $164 $-1 #
coedge $-1 $264 $264 $165 $265 forward $259 $-1 #
edge $-1 $419 0 $419 6.2831853071796004 $264 $420 forward 7 unknown #
loop $-1 $-1 $271 $166 #
plane-surface $-1 -62.265083773308504 -17.447424414777458 0.9375164650466985 -0.82903758062907751 0 0.55919289150049634 0.55919289150049634 0 0.82903758062907751 forward_v I I I I #
loop $-1 $-1 $421 $105 #
coedge $-1 $269 $269 $270 $422 reversed $167 $-1 #
coedge $-1 $270 $270 $269 $422 forward $169 $-1 #
coedge $-1 $271 $271 $170 $272 forward $266 $-1 #
edge $-1 $423 0 $423 6.2831853071796004 $271 $424 forward 7 unknown #
face $-1 $425 $426 $60 $-1 $427 forward single #
loop $-1 $-1 $279 $171 #
plane-surface $-1 -62.265083773308511 0 0 1 0 0 0 0 -1 forward_v I I I I #
coedge $-1 $428 $429 $430 $431 reversed $172 $-1 #
coedge $-1 $432 $174 $433 $434 reversed $109 $-1 #
coedge $-1 $174 $432 $428 $435 forward $109 $-1 #
coedge $-1 $430 $436 $174 $280 forward $274 $-1 #
edge $-1 $437 -15.771753291413788 $438 -7.0642181175651615 $279 $439 forward 7 unknown #
loop $-1 $-1 $286 $175 #
plane-surface $-1 -62.265083773308504 22.835971408978949 0.9375164650466985 -0.82903758062907751 0 0.55919289150049634 0.55919289150049634 0 0.82903758062907751 forward_v I I I I #
loop $-1 $-1 $440 $111 #
coedge $-1 $284 $284 $285 $441 reversed $176 $-1 #
coedge $-1 $285 $285 $284 $441 forward $178 $-1 #
coedge $-1 $286 $286 $179 $287 forward $281 $-1 #
edge $-1 $442 0 $442 6.2831853071796004 $286 $443 forward 7 unknown #
loop $-1 $-1 $293 $180 #
plane-surface $-1 -62.265083773308504 22.835971408978949 0.9375164650466985 -0.82903758062907751 0 0.55919289150049634 0.55919289150049634 0 0.82903758062907751 forward_v I I I I #
loop $-1 $-1 $444 $114 #
coedge $-1 $291 $291 $292 $445 reversed $181 $-1 #
coedge $-1 $292 $292 $291 $445 forward $183 $-1 #
coedge $-1 $293 $293 $184 $294 forward $288 $-1 #
edge $-1 $446 0 $446 6.2831853071796004 $293 $447 forward 7 unknown #
loop $-1 $-1 $300 $185 #
plane-surface $-1 -62.265083773308504 22.835971408978949 0.9375164650466985 -0.82903758062907751 0 0.55919289150049634 0.55919289150049634 0 0.82903758062907751 forward_v I I I I #
loop $-1 $-1 $448 $117 #
coedge $-1 $298 $298 $299 $449 reversed $186 $-1 #
coedge $-1 $299 $299 $298 $449 forward $188 $-1 #
coedge $-1 $300 $300 $189 $301 forward $295 $-1 #
edge $-1 $450 0 $450 6.2831853071796004 $300 $451 forward 7 unknown #
face $-1 $452 $453 $64 $-1 $454 forward single #
loop $-1 $-1 $455 $190 #
plane-surface $-1 0 0 7.167064841316436 0 0 1 1 0 0 forward_v I I I I #
coedge $-1 $456 $457 $458 $459 reversed $191 $-1 #
coedge $-1 $460 $193 $461 $462 forward $121 $-1 #
coedge $-1 $193 $460 $456 $463 forward $121 $-1 #
coedge $-1 $458 $464 $193 $309 forward $465 $-1 #
edge $-1 $466 -13.077479794313042 $467 -4.3699446204644161 $308 $468 forward 7 unknown #
loop $-1 $-1 $315 $194 #
plane-surface $-1 -7.3713006961255303 -17.447424414777458 104.17770528322772 0.82903758062907751 0 0.55919289150049634 0.55919289150049634 0 -0.82903758062907751 forward_v I I I I #
loop $-1 $-1 $469 $123 #
coedge $-1 $313 $313 $314 $470 reversed $195 $-1 #
coedge $-1 $314 $314 $313 $470 forward $197 $-1 #
coedge $-1 $315 $315 $198 $316 forward $310 $-1 #
edge $-1 $471 0 $471 6.2831853071796004 $315 $472 forward 7 unknown #
loop $-1 $-1 $322 $199 #
plane-surface $-1 -7.3713006961255303 -17.447424414777458 104.17770528322772 0.82903758062907751 0 0.55919289150049634 0.55919289150049634 0 -0.82903758062907751 forward_v I I I I #
loop $-1 $-1 $473 $126 #
coedge $-1 $320 $320 $321 $474 reversed $200 $-1 #
coedge $-1 $321 $321 $320 $474 forward $202 $-1 #
coedge $-1 $322 $322 $203 $323 forward $317 $-1 #
edge $-1 $475 0 $475 6.2831853071796004 $322 $476 forward 7 unknown #
loop $-1 $-1 $329 $204 #
plane-surface $-1 -7.3713006961255303 -17.447424414777458 104.17770528322772 0.82903758062907751 0 0.55919289150049634 0.55919289150049634 0 -0.82903758062907751 forward_v I I I I #
loop $-1 $-1 $477 $129 #
coedge $-1 $327 $327 $328 $478 reversed $205 $-1 #
coedge $-1 $328 $328 $327 $478 forward $207 $-1 #
coedge $-1 $329 $329 $208 $330 forward $324 $-1 #
edge $-1 $479 0 $479 6.2831853071796004 $329 $480 forward 7 unknown #
face $-1 $481 $482 $68 $-1 $483 reversed single #
loop $-1 $-1 $337 $209 #
plane-surface $-1 62.265083773308511 0 0 -1 0 0 0 0 1 forward_v I I I I #
coedge $-1 $484 $485 $486 $487 reversed $210 $-1 #
coedge $-1 $336 $212 $488 $489 reversed $133 $-1 #
coedge $-1 $212 $335 $484 $490 reversed $133 $-1 #
coedge $-1 $486 $491 $212 $338 forward $332 $-1 #
edge $-1 $492 79.739980035014455 $493 85.969528411284188 $337 $494 forward 7 unknown #
loop $-1 $-1 $344 $213 #
plane-surface $-1 -7.3713006961255303 22.835971408978949 104.17770528322772 0.82903758062907751 0 0.55919289150049634 0.55919289150049634 0 -0.82903758062907751 forward_v I I I I #
loop $-1 $-1 $495 $135 #
coedge $-1 $342 $342 $343 $496 reversed $214 $-1 #
coedge $-1 $343 $343 $342 $496 forward $216 $-1 #
coedge $-1 $344 $344 $217 $345 forward $339 $-1 #
edge $-1 $497 0 $497 6.2831853071796004 $344 $498 forward 7 unknown #
loop $-1 $-1 $351 $218 #
plane-surface $-1 -7.3713006961255303 22.835971408978949 104.17770528322772 0.82903758062907751 0 0.55919289150049634 0.55919289150049634 0 -0.82903758062907751 forward_v I I I I #
loop $-1 $-1 $499 $138 #
coedge $-1 $349 $349 $350 $500 reversed $219 $-1 #
coedge $-1 $350 $350 $349 $500 forward $221 $-1 #
coedge $-1 $351 $351 $222 $352 forward $346 $-1 #
edge $-1 $501 0 $501 6.2831853071796004 $351 $502 forward 7 unknown #
loop $-1 $-1 $358 $223 #
plane-surface $-1 -7.3713006961255303 22.835971408978949 104.17770528322772 0.82903758062907751 0 0.55919289150049634 0.55919289150049634 0 -0.82903758062907751 forward_v I I I I #
loop $-1 $-1 $503 $141 #
coedge $-1 $356 $356 $357 $504 reversed $224 $-1 #
coedge $-1 $357 $357 $356 $504 forward $226 $-1 #
coedge $-1 $358 $358 $227 $359 forward $353 $-1 #
edge $-1 $505 0 $505 6.2831853071796004 $358 $506 forward 7 unknown #
face $-1 $507 $508 $54 $-1 $509 reversed single #
loop $-1 $-1 $510 $228 #
plane-surface $-1 -62.265083773308511 0 0 1 0 0 0 0 -1 forward_v I I I I #
coedge $-1 $511 $371 $512 $513 forward $229 $-1 #
coedge $-1 $514 $231 $511 $515 forward $145 $-1 #
coedge $-1 $231 $514 $516 $517 forward $145 $-1 #
coedge $-1 $374 $373 $231 $367 reversed $375 $-1 #
edge $-1 $518 -27.189738995903262 $519 27.189738995903262 $366 $520 forward 7 unknown #
coedge $-1 $233 $232 $521 $522 forward $91 $-1 #
coedge $-1 $523 $524 $232 $370 reversed $508 $-1 #
edge $-1 $377 -62.265083773308511 $525 62.265083773308511 $369 $526 forward 7 unknown #
coedge $-1 $363 $527 $233 $372 reversed $229 $-1 #
edge $-1 $528 -62.265083773308511 $376 62.265083773308511 $371 $529 forward 7 unknown #
coedge $-1 $366 $234 $527 $530 forward $375 $-1 #
coedge $-1 $234 $366 $523 $531 reversed $375 $-1 #
loop $-1 $-1 $373 $507 #
vertex $-1 $235 $532 #
vertex $-1 $235 $533 #
straight-curve $-1 62.265083773308511 0 7.167064841316436 0 1 0 I I #
face $-1 $534 $535 $55 $-1 $536 reversed single #
loop $-1 $-1 $537 $236 #
plane-surface $-1 -62.265083773308511 0 0 1 0 0 0 0 -1 forward_v I I I I #
coedge $-1 $538 $388 $393 $539 reversed $237 $-1 #
coedge $-1 $540 $239 $541 $542 reversed $149 $-1 #
coedge $-1 $239 $540 $538 $543 forward $149 $-1 #
coedge $-1 $393 $392 $239 $386 forward $394 $-1 #
edge $-1 $544 -14.942006246502004 $545 -9.5534592523005131 $385 $546 forward 7 unknown #
coedge $-1 $241 $240 $537 $547 reversed $94 $-1 #
coedge $-1 $382 $548 $240 $389 reversed $237 $-1 #
edge $-1 $395 -62.265083773308511 $549 62.265083773308511 $388 $550 forward 7 unknown #
coedge $-1 $551 $552 $241 $391 forward $535 $-1 #
edge $-1 $396 -62.265083773308511 $553 62.265083773308511 $390 $554 forward 7 unknown #
coedge $-1 $385 $242 $552 $555 forward $394 $-1 #
coedge $-1 $242 $385 $382 $539 forward $394 $-1 #
loop $-1 $-1 $242 $534 #
vertex $-1 $243 $556 #
vertex $-1 $555 $557 #
straight-curve $-1 62.265083773308511 -12.247732749401258 6.4022782960635523 0 -1 0 I I #
face $-1 $-1 $558 $56 $-1 $559 reversed single #
loop $-1 $-1 $404 $244 #
plane-surface $-1 0 0 7.167064841316436 0 0 1 1 0 0 forward_v I I I I #
coedge $-1 $560 $561 $248 $407 reversed $245 $-1 #
coedge $-1 $403 $247 $249 $408 reversed $153 $-1 #
coedge $-1 $247 $402 $562 $563 reversed $153 $-1 #
coedge $-1 $564 $250 $247 $405 forward $399 $-1 #
edge $-1 $411 -24.689435827443013 $565 -20.487552522436268 $404 $566 forward 7 unknown #
coedge $-1 $249 $248 $567 $568 reversed $97 $-1 #
edge $-1 $410 -7.5141929893488424 $569 1.2717262267236031e-014 $401 $570 forward 7 unknown #
edge $-1 $571 -1.2717262267236031e-014 $411 7.5141929893488424 $402 $572 forward 7 unknown #
coedge $-1 $250 $564 $560 $573 forward $399 $-1 #
vertex $-1 $573 $574 #
vertex $-1 $251 $575 #
straight-curve $-1 -58.063200468301766 -8.7237122073887292 7.1670648413164333 0 1 0 I I #
coedge $-1 $413 $413 $-1 $576 reversed $254 $-1 #
edge $-1 $577 0 $577 6.2831853071796004 $255 $578 forward 7 unknown #
vertex $-1 $258 $579 #
ellipse-curve $-1 -60.164142120805138 -20.059684966932046 4.0522906531815615 -0.82903758062907751 0 0.55919289150049634 0.27959644575024817 0 0.41451879031453875 1 I I #
coedge $-1 $417 $417 $-1 $580 reversed $261 $-1 #
edge $-1 $581 0 $581 6.2831853071796004 $262 $582 forward 7 unknown #
vertex $-1 $265 $583 #
ellipse-curve $-1 -60.164142120805138 -17.447424414777458 4.0522906531815615 -0.82903758062907751 0 0.55919289150049634 0.27959644575024817 0 0.41451879031453875 1 I I #
coedge $-1 $421 $421 $-1 $584 reversed $268 $-1 #
edge $-1 $585 0 $585 6.2831853071796004 $269 $586 forward 7 unknown #
vertex $-1 $272 $587 #
ellipse-curve $-1 -60.164142120805138 -14.835163862622871 4.0522906531815615 -0.82903758062907751 0 0.55919289150049634 0.27959644575024817 0 0.41451879031453875 1 I I #
face $-1 $-1 $588 $60 $-1 $589 reversed single #
loop $-1 $-1 $590 $273 #
plane-surface $-1 0 0 7.167064841316436 0 0 1 1 0 0 forward_v I I I I #
coedge $-1 $429 $276 $278 $435 reversed $172 $-1 #
coedge $-1 $276 $428 $591 $592 reversed $172 $-1 #
coedge $-1 $593 $279 $276 $431 forward $274 $-1 #
edge $-1 $438 -34.349434002193682 $594 -28.119885625923938 $430 $595 forward 7 unknown #
coedge $-1 $278 $277 $590 $596 reversed $109 $-1 #
coedge $-1 $597 $598 $277 $434 forward $588 $-1 #
edge $-1 $599 9.5062849370185454 $437 17.020477926367398 $433 $600 forward 7 unknown #
edge $-1 $601 -7.5141929893488424 $438 1.2717262267236031e-014 $428 $602 forward 7 unknown #
coedge $-1 $279 $593 $597 $603 forward $274 $-1 #
vertex $-1 $434 $604 #
vertex $-1 $280 $605 #
straight-curve $-1 -62.265083773308511 11.417985704489475 0.93751646504667774 0 -1 0 I I #
coedge $-1 $440 $440 $-1 $606 reversed $283 $-1 #
edge $-1 $607 0 $607 6.2831853071796004 $284 $608 forward 7 unknown #
vertex $-1 $287 $609 #
ellipse-curve $-1 -60.164142120805138 20.223710856824361 4.0522906531815615 -0.82903758062907751 0 0.55919289150049634 0.27959644575024817 0 0.41451879031453875 1 I I #
coedge $-1 $444 $444 $-1 $610 reversed $290 $-1 #
edge $-1 $611 0 $611 6.2831853071796004 $291 $612 forward 7 unknown #
vertex $-1 $294 $613 #
ellipse-curve $-1 -60.164142120805138 22.835971408978949 4.0522906531815615 -0.82903758062907751 0 0.55919289150049634 0.27959644575024817 0 0.41451879031453875 1 I I #
coedge $-1 $448 $448 $-1 $614 reversed $297 $-1 #
edge $-1 $615 0 $615 6.2831853071796004 $298 $616 forward 7 unknown #
vertex $-1 $301 $617 #
ellipse-curve $-1 -60.164142120805138 25.448231961133537 4.0522906531815615 -0.82903758062907751 0 0.55919289150049634 0.27959644575024817 0 0.41451879031453875 1 I I #
face $-1 $-1 $465 $64 $-1 $618 reversed single #
loop $-1 $-1 $461 $302 #
plane-surface $-1 0 -21.801192001701772 4.9022782960635523 0 -1 0 0 0 -1 forward_v I I I I #
coedge $-1 $619 $620 $457 $621 forward $303 $-1 #
coedge $-1 $457 $305 $307 $463 reversed $191 $-1 #
coedge $-1 $305 $456 $455 $621 reversed $191 $-1 #
coedge $-1 $622 $308 $305 $459 forward $465 $-1 #
edge $-1 $467 -85.969528411284188 $623 -79.739980035014455 $458 $624 forward 7 unknown #
coedge $-1 $307 $306 $619 $625 reversed $121 $-1 #
coedge $-1 $626 $627 $306 $462 reversed $453 $-1 #
edge $-1 $466 -124.53016754661701 $628 -117.01597455726818 $461 $629 forward 7 unknown #
edge $-1 $630 117.01597455726818 $467 124.53016754661701 $456 $631 forward 7 unknown #
coedge $-1 $308 $622 $626 $632 forward $465 $-1 #
loop $-1 $-1 $458 $452 #
vertex $-1 $309 $633 #
vertex $-1 $309 $634 #
straight-curve $-1 62.265083773308511 -8.7237122073887292 0.93751646504668429 0 1 0 I I #
coedge $-1 $469 $469 $-1 $635 reversed $312 $-1 #
edge $-1 $636 0 $636 6.2831853071796004 $313 $637 forward 7 unknown #
vertex $-1 $316 $638 #
ellipse-curve $-1 60.164142120805138 -20.059684966932046 4.0522906531815597 0.82903758062907751 0 0.55919289150049634 0.27959644575024817 0 -0.41451879031453875 1 I I #
coedge $-1 $473 $473 $-1 $639 reversed $319 $-1 #
edge $-1 $640 0 $640 6.2831853071796004 $320 $641 forward 7 unknown #
vertex $-1 $323 $642 #
ellipse-curve $-1 60.164142120805138 -17.447424414777458 4.0522906531815597 0.82903758062907751 0 0.55919289150049634 0.27959644575024817 0 -0.41451879031453875 1 I I #
coedge $-1 $477 $477 $-1 $643 reversed $326 $-1 #
edge $-1 $644 0 $644 6.2831853071796004 $327 $645 forward 7 unknown #
vertex $-1 $330 $646 #
ellipse-curve $-1 60.164142120805138 -14.835163862622871 4.0522906531815597 0.82903758062907751 0 0.55919289150049634 0.27959644575024817 0 -0.41451879031453875 1 I I #
face $-1 $-1 $647 $68 $-1 $648 forward single #
loop $-1 $-1 $649 $331 #
plane-surface $-1 0 27.189738995903262 0 0 -1 0 0 0 -1 forward_v I I I I #
coedge $-1 $650 $334 $336 $490 forward $210 $-1 #
coedge $-1 $334 $650 $649 $651 reversed $210 $-1 #
coedge $-1 $652 $337 $334 $487 forward $332 $-1 #
edge $-1 $493 7.0642181175651615 $653 15.771753291413788 $486 $654 forward 7 unknown #
coedge $-1 $655 $656 $335 $489 forward $647 $-1 #
edge $-1 $657 10.128756407274011 $492 14.33063971228075 $488 $658 forward 7 unknown #
edge $-1 $493 -124.53016754661701 $657 -117.01597455726818 $336 $659 forward 7 unknown #
coedge $-1 $337 $652 $655 $660 reversed $332 $-1 #
vertex $-1 $660 $661 #
vertex $-1 $338 $662 #
straight-curve $-1 62.265083773308511 18.482203822054636 86.907044876330886 0 0 -1 I I #
coedge $-1 $495 $495 $-1 $663 reversed $341 $-1 #
edge $-1 $664 0 $664 6.2831853071796004 $342 $665 forward 7 unknown #
vertex $-1 $345 $666 #
ellipse-curve $-1 60.164142120805138 20.223710856824361 4.0522906531815597 0.82903758062907751 0 0.55919289150049634 0.27959644575024817 0 -0.41451879031453875 1 I I #
coedge $-1 $499 $499 $-1 $667 reversed $348 $-1 #
edge $-1 $668 0 $668 6.2831853071796004 $349 $669 forward 7 unknown #
vertex $-1 $352 $670 #
ellipse-curve $-1 60.164142120805138 22.835971408978949 4.0522906531815597 0.82903758062907751 0 0.55919289150049634 0.27959644575024817 0 -0.41451879031453875 1 I I #
coedge $-1 $503 $503 $-1 $671 reversed $355 $-1 #
edge $-1 $672 0 $672 6.2831853071796004 $356 $673 forward 7 unknown #
vertex $-1 $359 $674 #
ellipse-curve $-1 60.164142120805138 25.448231961133537 4.0522906531815597 0.82903758062907751 0 0.55919289150049634 0.27959644575024817 0 -0.41451879031453875 1 I I #
face $-1 $-1 $375 $54 $-1 $675 reversed single #
loop $-1 $-1 $523 $360 #
plane-surface $-1 0 27.189738995903262 0 0 -1 0 0 0 -1 forward_v I I I I #
coedge $-1 $676 $521 $524 $677 forward $361 $-1 #
coedge $-1 $527 $363 $364 $515 reversed $229 $-1 #
coedge $-1 $521 $676 $363 $513 reversed $361 $-1 #
edge $-1 $528 -7.167064841316436 $678 7.167064841316436 $512 $679 forward 7 unknown #
coedge $-1 $365 $364 $676 $680 forward $145 $-1 #
edge $-1 $519 -62.265083773308511 $678 62.265083773308511 $511 $681 forward 7 unknown #
coedge $-1 $524 $523 $365 $517 reversed $508 $-1 #
edge $-1 $682 -62.265083773308511 $518 62.265083773308511 $516 $683 forward 7 unknown #
vertex $-1 $367 $684 #
vertex $-1 $530 $685 #
straight-curve $-1 62.265083773308511 0 -7.167064841316436 0 -1 0 I I #
coedge $-1 $510 $512 $368 $522 reversed $361 $-1 #
edge $-1 $525 -27.189738995903262 $528 27.189738995903262 $521 $686 forward 7 unknown #
coedge $-1 $516 $369 $374 $531 forward $508 $-1 #
coedge $-1 $369 $516 $510 $677 reversed $508 $-1 #
vertex $-1 $370 $687 #
straight-curve $-1 0 27.189738995903262 7.167064841316436 -1 0 0 I I #
coedge $-1 $371 $511 $373 $530 reversed $229 $-1 #
vertex $-1 $522 $688 #
straight-curve $-1 0 -27.189738995903262 7.167064841316436 1 0 0 I I #
edge $-1 $376 -7.167064841316436 $519 7.167064841316436 $373 $689 forward 7 unknown #
edge $-1 $377 -7.167064841316436 $518 7.167064841316436 $374 $690 forward 7 unknown #
point $-1 62.265083773308511 -27.189738995903262 7.167064841316436 #
point $-1 62.265083773308511 27.189738995903262 7.167064841316436 #
face $-1 $-1 $394 $55 $-1 $691 reversed single #
loop $-1 $-1 $390 $379 #
plane-surface $-1 0 -27.189738995903262 0 0 1 0 0 0 1 forward_v I I I I #
coedge $-1 $692 $693 $387 $547 forward $380 $-1 #
coedge $-1 $548 $382 $384 $543 reversed $237 $-1 #
edge $-1 $545 0.95113914803177613 $395 3.9511391480317761 $393 $694 forward 7 unknown #
coedge $-1 $384 $383 $695 $696 reversed $149 $-1 #
coedge $-1 $552 $551 $383 $542 forward $535 $-1 #
edge $-1 $697 -62.265083773308511 $544 62.265083773308511 $541 $698 forward 7 unknown #
edge $-1 $699 -62.265083773308511 $545 62.265083773308511 $538 $700 forward 7 unknown #
vertex $-1 $542 $701 #
vertex $-1 $386 $702 #
straight-curve $-1 62.265083773308511 -12.247732749401258 3.4022782960635523 0 1 0 I I #
edge $-1 $553 -14.942006246502004 $549 -9.5534592523005131 $537 $703 forward 7 unknown #
coedge $-1 $388 $538 $692 $704 reversed $237 $-1 #
vertex $-1 $547 $705 #
straight-curve $-1 0 -21.801192001701772 6.4022782960635523 -1 0 0 I I #
coedge $-1 $541 $390 $693 $706 forward $535 $-1 #
coedge $-1 $390 $541 $392 $555 reversed $535 $-1 #
vertex $-1 $706 $707 #
straight-curve $-1 0 -27.189738995903262 6.4022782960635523 -1 0 0 I I #
edge $-1 $396 -6.4022782960635523 $544 -3.4022782960635523 $392 $708 forward 7 unknown #
point $-1 62.265083773308511 -21.801192001701772 6.4022782960635523 #
point $-1 62.265083773308511 -27.189738995903262 6.4022782960635523 #
loop $-1 $-1 $709 $398 #
plane-surface $-1 -62.265083773308511 0 0 1 0 0 0 0 -1 forward_v I I I I #
coedge $-1 $561 $401 $409 $573 reversed $245 $-1 #
coedge $-1 $401 $560 $709 $710 reversed $245 $-1 #
coedge $-1 $567 $711 $403 $563 forward $558 $-1 #
edge $-1 $565 28.119885625923938 $571 34.349434002193682 $562 $712 forward 7 unknown #
coedge $-1 $409 $404 $711 $713 forward $399 $-1 #
vertex $-1 $713 $714 #
straight-curve $-1 -82.752636295744779 -13.093656827853145 7.1670648413164351 -1 0 0 I I #
coedge $-1 $709 $562 $406 $568 forward $558 $-1 #
edge $-1 $571 4.3699446204644161 $569 13.077479794313042 $567 $715 forward 7 unknown #
vertex $-1 $710 $716 #
straight-curve $-1 -62.265083773308504 -21.801192001701772 0.9375164650466985 -0.55919289150049634 0 -0.82903758062907751 I I #
vertex $-1 $568 $717 #
straight-curve $-1 -62.265083773308504 -13.093656827853145 0.9375164650466985 0.55919289150049634 0 0.82903758062907751 I I #
edge $-1 $718 20.487552522436268 $410 24.689435827443013 $409 $719 forward 7 unknown #
point $-1 -58.063200468301766 -21.801192001701772 7.167064841316436 #
point $-1 -58.063200468301766 -13.093656827853145 7.167064841316436 #
edge $-1 $720 1 $720 0 $413 $-1 forward 7 unknown #
vertex $-1 $414 $721 #
ellipse-curve $-1 -58.649447677019594 -20.059684966932046 3.0306163822547076 -0.82903758062907751 0 0.55919289150049634 0.27959644575024817 0 0.41451879031453875 1 I I #
point $-1 -59.884545675054888 -20.059684966932046 4.4668094434960999 #
edge $-1 $722 1 $722 0 $417 $-1 forward 7 unknown #
vertex $-1 $418 $723 #
ellipse-curve $-1 -58.649447677019594 -17.447424414777458 3.0306163822547076 -0.82903758062907751 0 0.55919289150049634 0.27959644575024817 0 0.41451879031453875 1 I I #
point $-1 -59.884545675054888 -17.447424414777458 4.4668094434960999 #
edge $-1 $724 1 $724 0 $421 $-1 forward 7 unknown #
vertex $-1 $422 $725 #
ellipse-curve $-1 -58.649447677019594 -14.835163862622871 3.0306163822547076 -0.82903758062907751 0 0.55919289150049634 0.27959644575024817 0 0.41451879031453875 1 I I #
point $-1 -59.884545675054888 -14.835163862622871 4.4668094434960999 #
loop $-1 $-1 $433 $425 #
plane-surface $-1 0 27.189738995903262 0 0 -1 0 0 0 -1 forward_v I I I I #
coedge $-1 $726 $591 $432 $596 forward $426 $-1 #
coedge $-1 $590 $727 $429 $592 forward $426 $-1 #
edge $-1 $594 20.487552522436268 $601 24.689435827443013 $591 $728 forward 7 unknown #
coedge $-1 $436 $430 $727 $729 reversed $274 $-1 #
vertex $-1 $592 $730 #
straight-curve $-1 -62.265083773308511 18.482203822054636 35.286950467240374 0 0 1 I I #
edge $-1 $601 7.0642181175651615 $599 15.771753291413788 $590 $731 forward 7 unknown #
coedge $-1 $598 $433 $436 $603 reversed $588 $-1 #
coedge $-1 $433 $597 $726 $732 reversed $588 $-1 #
vertex $-1 $732 $733 #
straight-curve $-1 -52.747353506942758 27.189738995903262 15.048132306272937 -0.55919289150049634 0 -0.82903758062907751 I I #
vertex $-1 $596 $734 #
straight-curve $-1 -62.265083773308504 18.482203822054636 0.9375164650466985 -0.55919289150049634 0 -0.82903758062907751 I I #
edge $-1 $735 -7.167064841316436 $437 -0.93751646504668795 $597 $736 forward 7 unknown #
point $-1 -62.265083773308511 27.189738995903262 0.93751646504668795 #
point $-1 -62.265083773308511 18.482203822054636 0.93751646504668795 #
edge $-1 $737 1 $737 0 $440 $-1 forward 7 unknown #
vertex $-1 $441 $738 #
ellipse-curve $-1 -58.649447677019594 20.223710856824361 3.0306163822547076 -0.82903758062907751 0 0.55919289150049634 0.27959644575024817 0 0.41451879031453875 1 I I #
point $-1 -59.884545675054888 20.223710856824361 4.4668094434960999 #
edge $-1 $739 1 $739 0 $444 $-1 forward 7 unknown #
vertex $-1 $445 $740 #
ellipse-curve $-1 -58.649447677019594 22.835971408978949 3.0306163822547076 -0.82903758062907751 0 0.55919289150049634 0.27959644575024817 0 0.41451879031453875 1 I I #
point $-1 -59.884545675054888 22.835971408978949 4.4668094434960999 #
edge $-1 $741 1 $741 0 $448 $-1 forward 7 unknown #
vertex $-1 $449 $742 #
ellipse-curve $-1 -58.649447677019594 25.448231961133537 3.0306163822547076 -0.82903758062907751 0 0.55919289150049634 0.27959644575024817 0 0.41451879031453875 1 I I #
point $-1 -59.884545675054888 25.448231961133537 4.4668094434960999 #
plane-surface $-1 62.265083773308511 0 0 -1 0 0 0 0 1 forward_v I I I I #
coedge $-1 $743 $455 $460 $625 forward $303 $-1 #
coedge $-1 $455 $743 $622 $744 forward $303 $-1 #
edge $-1 $623 -14.33063971228075 $630 -10.128756407274011 $455 $745 forward 7 unknown #
coedge $-1 $464 $458 $620 $744 reversed $465 $-1 #
vertex $-1 $621 $746 #
straight-curve $-1 62.265083773308511 -13.093656827853145 86.907044876330886 0 0 1 I I #
edge $-1 $630 4.3699446204644161 $628 13.077479794313042 $619 $747 forward 7 unknown #
coedge $-1 $627 $461 $464 $632 reversed $453 $-1 #
coedge $-1 $461 $626 $743 $748 reversed $453 $-1 #
vertex $-1 $748 $749 #
straight-curve $-1 -7.3713006961255303 -21.801192001701772 104.17770528322772 -0.55919289150049634 0 0.82903758062907751 I I #
vertex $-1 $625 $750 #
straight-curve $-1 -7.3713006961255303 -13.093656827853145 104.17770528322772 0.55919289150049634 0 -0.82903758062907751 I I #
edge $-1 $751 79.739980035014455 $466 85.969528411284188 $464 $752 forward 7 unknown #
point $-1 62.265083773308504 -21.801192001701772 0.9375164650466985 #
point $-1 62.265083773308504 -13.093656827853145 0.9375164650466985 #
edge $-1 $753 1 $753 0 $469 $-1 forward 7 unknown #
vertex $-1 $470 $754 #
ellipse-curve $-1 58.64944767701958 -20.059684966932046 3.030616382254697 0.82903758062907751 0 0.55919289150049634 0.27959644575024817 0 -0.41451879031453875 1 I I #
point $-1 60.443738566555368 -20.059684966932046 3.6377718628670119 #
edge $-1 $755 1 $755 0 $473 $-1 forward 7 unknown #
vertex $-1 $474 $756 #
ellipse-curve $-1 58.64944767701958 -17.447424414777458 3.030616382254697 0.82903758062907751 0 0.55919289150049634 0.27959644575024817 0 -0.41451879031453875 1 I I #
point $-1 60.443738566555368 -17.447424414777458 3.6377718628670119 #
edge $-1 $757 1 $757 0 $477 $-1 forward 7 unknown #
vertex $-1 $478 $758 #
ellipse-curve $-1 58.64944767701958 -14.835163862622871 3.030616382254697 0.82903758062907751 0 0.55919289150049634 0.27959644575024817 0 -0.41451879031453875 1 I I #
point $-1 60.443738566555368 -14.835163862622871 3.6377718628670119 #
loop $-1 $-1 $488 $481 #
plane-surface $-1 0 0 7.167064841316436 0 0 1 1 0 0 forward_v I I I I #
coedge $-1 $759 $760 $485 $651 forward $482 $-1 #
coedge $-1 $485 $484 $656 $761 reversed $210 $-1 #
edge $-1 $653 -79.28556169967591 $762 -71.771368710327053 $649 $763 forward 7 unknown #
coedge $-1 $491 $486 $760 $764 reversed $332 $-1 #
vertex $-1 $487 $765 #
straight-curve $-1 62.265083773308511 11.417985704489475 0.93751646504668429 0 1 0 I I #
coedge $-1 $766 $488 $491 $660 forward $647 $-1 #
coedge $-1 $488 $766 $650 $761 forward $647 $-1 #
vertex $-1 $489 $767 #
straight-curve $-1 47.934444061027762 18.482203822054636 7.1670648413164315 1 0 0 I I #
straight-curve $-1 -7.3713006961255303 18.482203822054636 104.17770528322772 -0.55919289150049634 0 0.82903758062907751 I I #
edge $-1 $492 18.482203822054636 $768 27.189738995903262 $491 $769 forward 7 unknown #
point $-1 62.265083773308511 18.482203822054636 7.167064841316436 #
point $-1 62.265083773308504 18.482203822054636 0.9375164650466985 #
edge $-1 $770 1 $770 0 $495 $-1 forward 7 unknown #
vertex $-1 $496 $771 #
ellipse-curve $-1 58.64944767701958 20.223710856824361 3.030616382254697 0.82903758062907751 0 0.55919289150049634 0.27959644575024817 0 -0.41451879031453875 1 I I #
point $-1 60.443738566555368 20.223710856824361 3.6377718628670119 #
edge $-1 $772 1 $772 0 $499 $-1 forward 7 unknown #
vertex $-1 $500 $773 #
ellipse-curve $-1 58.64944767701958 22.835971408978949 3.030616382254697 0.82903758062907751 0 0.55919289150049634 0.27959644575024817 0 -0.41451879031453875 1 I I #
point $-1 60.443738566555368 22.835971408978949 3.6377718628670119 #
edge $-1 $774 1 $774 0 $503 $-1 forward 7 unknown #
vertex $-1 $504 $775 #
ellipse-curve $-1 58.64944767701958 25.448231961133537 3.030616382254697 0.82903758062907751 0 0.55919289150049634 0.27959644575024817 0 -0.41451879031453875 1 I I #
point $-1 60.443738566555368 25.448231961133537 3.6377718628670119 #
plane-surface $-1 62.265083773308511 0 0 -1 0 0 0 0 1 forward_v I I I I #
coedge $-1 $512 $510 $514 $680 reversed $361 $-1 #
edge $-1 $525 -7.167064841316436 $682 7.167064841316436 $524 $776 forward 7 unknown #
vertex $-1 $680 $777 #
straight-curve $-1 -62.265083773308511 -27.189738995903262 0 0 0 -1 I I #
edge $-1 $678 -27.189738995903262 $682 27.189738995903262 $676 $778 forward 7 unknown #
straight-curve $-1 0 -27.189738995903262 -7.167064841316436 -1 0 0 I I #
vertex $-1 $517 $779 #
straight-curve $-1 0 27.189738995903262 -7.167064841316436 1 0 0 I I #
point $-1 62.265083773308511 27.189738995903262 -7.167064841316436 #
point $-1 62.265083773308511 -27.189738995903262 -7.167064841316436 #
straight-curve $-1 -62.265083773308511 0 7.167064841316436 0 -1 0 I I #
point $-1 -62.265083773308511 27.189738995903262 7.167064841316436 #
point $-1 -62.265083773308511 -27.189738995903262 7.167064841316436 #
straight-curve $-1 62.265083773308511 -27.189738995903262 0 0 0 -1 I I #
straight-curve $-1 62.265083773308511 27.189738995903262 0 0 0 -1 I I #
plane-surface $-1 62.265083773308511 0 0 -1 0 0 0 0 1 forward_v I I I I #
coedge $-1 $695 $537 $548 $704 forward $380 $-1 #
coedge $-1 $537 $695 $551 $706 reversed $380 $-1 #
straight-curve $-1 62.265083773308511 -21.801192001701772 2.4511391480317761 0 0 1 I I #
coedge $-1 $693 $692 $540 $696 forward $380 $-1 #
edge $-1 $699 9.5534592523005131 $697 14.942006246502004 $695 $780 forward 7 unknown #
vertex $-1 $542 $781 #
straight-curve $-1 0 -27.189738995903262 3.4022782960635523 1 0 0 I I #
vertex $-1 $696 $782 #
straight-curve $-1 0 -21.801192001701772 3.4022782960635523 1 0 0 I I #
point $-1 62.265083773308511 -27.189738995903262 3.4022782960635523 #
point $-1 62.265083773308511 -21.801192001701772 3.4022782960635523 #
straight-curve $-1 -62.265083773308511 -12.247732749401258 6.4022782960635523 0 1 0 I I #
edge $-1 $549 -3.9511391480317761 $699 -0.95113914803177613 $692 $783 forward 7 unknown #
point $-1 -62.265083773308511 -21.801192001701772 6.4022782960635523 #
edge $-1 $553 -6.4022782960635523 $697 -3.4022782960635523 $693 $784 forward 7 unknown #
point $-1 -62.265083773308511 -27.189738995903262 6.4022782960635523 #
straight-curve $-1 62.265083773308511 -27.189738995903262 0 0 0 -1 I I #
coedge $-1 $711 $567 $561 $710 forward $558 $-1 #
edge $-1 $569 -34.349434002193682 $718 -28.119885625923938 $709 $785 forward 7 unknown #
coedge $-1 $562 $709 $564 $713 reversed $558 $-1 #
straight-curve $-1 -62.265083773308511 -13.093656827853145 35.286950467240374 0 0 -1 I I #
edge $-1 $565 13.093656827853145 $718 21.801192001701772 $711 $786 forward 7 unknown #
point $-1 -62.265083773308511 -13.093656827853145 7.167064841316436 #
straight-curve $-1 -62.265083773308511 -8.7237122073887292 0.93751646504667774 0 -1 0 I I #
point $-1 -62.265083773308511 -21.801192001701772 0.93751646504668795 #
point $-1 -62.265083773308511 -13.093656827853145 0.93751646504668795 #
vertex $-1 $710 $787 #
straight-curve $-1 -82.752636295744779 -21.801192001701772 7.1670648413164351 1 0 0 I I #
vertex $-1 $576 $788 #
point $-1 -58.369851231269344 -20.059684966932046 3.4451351725692465 #
vertex $-1 $580 $789 #
point $-1 -58.369851231269344 -17.447424414777458 3.4451351725692465 #
vertex $-1 $584 $790 #
point $-1 -58.369851231269344 -14.835163862622871 3.4451351725692465 #
coedge $-1 $727 $590 $598 $732 forward $426 $-1 #
coedge $-1 $591 $726 $593 $729 forward $426 $-1 #
straight-curve $-1 -82.752636295744779 18.482203822054636 7.1670648413164351 1 0 0 I I #
edge $-1 $735 -27.189738995903262 $594 -18.482203822054636 $593 $791 forward 7 unknown #
point $-1 -62.265083773308511 18.482203822054636 7.167064841316436 #
straight-curve $-1 -58.063200468301766 11.417985704489475 7.1670648413164333 0 1 0 I I #
edge $-1 $599 58.063200468301766 $735 62.265083773308511 $598 $792 forward 7 unknown #
point $-1 -58.063200468301766 27.189738995903262 7.167064841316436 #
point $-1 -58.063200468301766 18.482203822054636 7.167064841316436 #
vertex $-1 $732 $793 #
straight-curve $-1 -62.265083773308511 27.189738995903262 0 0 0 -1 I I #
vertex $-1 $606 $794 #
point $-1 -58.369851231269344 20.223710856824361 3.4451351725692465 #
vertex $-1 $610 $795 #
point $-1 -58.369851231269344 22.835971408978949 3.4451351725692465 #
vertex $-1 $614 $796 #
point $-1 -58.369851231269344 25.448231961133537 3.4451351725692465 #
coedge $-1 $620 $619 $627 $748 forward $303 $-1 #
edge $-1 $751 -21.801192001701772 $623 -13.093656827853145 $622 $797 forward 7 unknown #
straight-curve $-1 47.934444061027762 -13.093656827853145 7.1670648413164315 -1 0 0 I I #
point $-1 62.265083773308511 -13.093656827853145 7.167064841316436 #
straight-curve $-1 58.063200468301773 -8.7237122073887292 7.1670648413164386 0 -1 0 I I #
edge $-1 $628 10.128756407274011 $751 14.33063971228075 $743 $798 forward 7 unknown #
point $-1 58.063200468301773 -21.801192001701772 7.1670648413164315 #
point $-1 58.063200468301773 -13.093656827853145 7.1670648413164315 #
vertex $-1 $744 $799 #
straight-curve $-1 62.265083773308511 -21.801192001701772 86.907044876330886 0 0 -1 I I #
vertex $-1 $635 $800 #
point $-1 58.929044122769824 -20.059684966932046 2.6160975919401581 #
vertex $-1 $639 $801 #
point $-1 58.929044122769824 -17.447424414777458 2.6160975919401581 #
vertex $-1 $643 $802 #
point $-1 58.929044122769824 -14.835163862622871 2.6160975919401581 #
coedge $-1 $760 $649 $766 $803 reversed $482 $-1 #
coedge $-1 $649 $759 $652 $764 forward $482 $-1 #
edge $-1 $762 -15.771753291413788 $657 -7.0642181175651615 $656 $804 forward 7 unknown #
vertex $-1 $651 $805 #
straight-curve $-1 17.929161272225738 27.189738995903262 66.668226715363446 -0.55919289150049634 0 0.82903758062907751 I I #
edge $-1 $768 -7.167064841316436 $653 -0.93751646504668673 $652 $806 forward 7 unknown #
point $-1 62.265083773308511 27.189738995903262 0.93751646504668673 #
coedge $-1 $656 $655 $759 $803 forward $647 $-1 #
point $-1 58.063200468301773 18.482203822054636 7.1670648413164315 #
vertex $-1 $660 $807 #
straight-curve $-1 62.265083773308511 0 7.167064841316436 0 1 0 I I #
vertex $-1 $663 $808 #
point $-1 58.929044122769824 20.223710856824361 2.6160975919401581 #
vertex $-1 $667 $809 #
point $-1 58.929044122769824 22.835971408978949 2.6160975919401581 #
vertex $-1 $671 $810 #
point $-1 58.929044122769824 25.448231961133537 2.6160975919401581 #
straight-curve $-1 -62.265083773308511 27.189738995903262 0 0 0 -1 I I #
point $-1 -62.265083773308511 -27.189738995903262 -7.167064841316436 #
straight-curve $-1 -62.265083773308511 0 -7.167064841316436 0 1 0 I I #
point $-1 -62.265083773308511 27.189738995903262 -7.167064841316436 #
straight-curve $-1 -62.265083773308511 -12.247732749401258 3.4022782960635523 0 -1 0 I I #
point $-1 -62.265083773308511 -27.189738995903262 3.4022782960635523 #
point $-1 -62.265083773308511 -21.801192001701772 3.4022782960635523 #
straight-curve $-1 -62.265083773308511 -21.801192001701772 2.4511391480317761 0 0 -1 I I #
straight-curve $-1 -62.265083773308511 -27.189738995903262 0 0 0 -1 I I #
straight-curve $-1 -62.265083773308511 -21.801192001701772 35.286950467240374 0 0 1 I I #
straight-curve $-1 -62.265083773308511 0 7.167064841316436 0 -1 0 I I #
point $-1 -62.265083773308511 -21.801192001701772 7.167064841316436 #
point $-1 -58.234928886705049 -20.059684966932046 2.7510199365044596 #
point $-1 -58.234928886705049 -17.447424414777458 2.7510199365044596 #
point $-1 -58.234928886705049 -14.835163862622871 2.7510199365044596 #
straight-curve $-1 -62.265083773308511 0 7.167064841316436 0 -1 0 I I #
straight-curve $-1 0 27.189738995903262 7.167064841316436 -1 0 0 I I #
point $-1 -62.265083773308511 27.189738995903262 7.167064841316436 #
point $-1 -58.234928886705049 20.223710856824361 2.7510199365044596 #
point $-1 -58.234928886705049 22.835971408978949 2.7510199365044596 #
point $-1 -58.234928886705049 25.448231961133537 2.7510199365044596 #
straight-curve $-1 62.265083773308511 0 7.167064841316436 0 1 0 I I #
straight-curve $-1 47.934444061027762 -21.801192001701772 7.1670648413164315 1 0 0 I I #
point $-1 62.265083773308511 -21.801192001701772 7.167064841316436 #
point $-1 58.234928886705035 -20.059684966932046 2.751019936504449 #
point $-1 58.234928886705035 -17.447424414777458 2.751019936504449 #
point $-1 58.234928886705035 -14.835163862622871 2.751019936504449 #
edge $-1 $768 -62.265083773308511 $762 -58.063200468301773 $759 $811 forward 7 unknown #
straight-curve $-1 58.063200468301773 11.417985704489475 7.1670648413164386 0 -1 0 I I #
point $-1 58.063200468301773 27.189738995903262 7.167064841316436 #
straight-curve $-1 62.265083773308511 27.189738995903262 0 0 0 -1 I I #
point $-1 62.265083773308511 27.189738995903262 7.167064841316436 #
point $-1 58.234928886705035 20.223710856824361 2.751019936504449 #
point $-1 58.234928886705035 22.835971408978949 2.751019936504449 #
point $-1 58.234928886705035 25.448231961133537 2.751019936504449 #
straight-curve $-1 0 27.189738995903262 7.167064841316436 -1 0 0 I I #
End-of-ACIS-data 