500 0 4 0           
7 Unknown 11 ACIS 5.0 NT 24 Fri Mar 26 17:10:15 1999 
-1 9.9999999999999995e-007 1e-010 
body $-1 $4 $-1 $5 #
body $-1 $6 $-1 $7 #
body $-1 $8 $-1 $9 #
body $-1 $10 $-1 $11 #
lump $-1 $-1 $12 $0 #
transform $-1 1 0 0 0 1 0 0 0 1 70.627155369731739 30.748796360911346 13.719328990669016 1 rotate no_reflect no_shear #
lump $-1 $-1 $13 $1 #
transform $-1 1 0 0 0 1 0 0 0 1 70.627155369731739 30.748796360911346 13.719328990669016 1 rotate no_reflect no_shear #
lump $-1 $-1 $14 $2 #
transform $-1 1 0 0 0 1 0 0 0 1 70.627155369731739 30.748796360911346 13.719328990669016 1 rotate no_reflect no_shear #
lump $-1 $-1 $15 $3 #
transform $-1 1 0 0 0 1 0 0 0 1 70.627155369731739 30.748796360911346 13.719328990669016 1 rotate no_reflect no_shear #
shell $-1 $-1 $-1 $16 $-1 $4 #
shell $-1 $-1 $-1 $17 $-1 $6 #
shell $-1 $-1 $-1 $18 $-1 $8 #
shell $-1 $-1 $-1 $19 $-1 $10 #
face $-1 $20 $21 $12 $-1 $22 forward single #
face $-1 $23 $24 $13 $-1 $25 forward single #
face $-1 $26 $27 $14 $-1 $28 reversed single #
face $-1 $29 $30 $15 $-1 $31 forward single #
face $-1 $32 $33 $12 $-1 $34 reversed single #
loop $-1 $-1 $35 $16 #
plane-surface $-1 0 0 13.719328990669016 0 0 1 1 0 0 forward_v I I I I #
face $-1 $36 $37 $13 $-1 $38 reversed single #
loop $-1 $-1 $39 $17 #
plane-surface $-1 -70.627155369731739 0 0 1 0 0 0 0 -1 forward_v I I I I #
face $-1 $40 $41 $14 $-1 $42 reversed single #
loop $-1 $-1 $43 $18 #
plane-surface $-1 50.856677167459019 97.008728714587903 139.98917818446003 1 0 0 0 -0.75470958851134928 -0.65605901945558964 forward_v I I I I #
face $-1 $44 $45 $15 $-1 $46 forward single #
loop $-1 $47 $48 $19 #
cone-surface $-1 60.741916268595375 24.146002090694811 6.4141004864105096 0 -0.75470958851134928 -0.65605901945558964 2.5 0 0 1 I I 0 1 2.5 forward I I I I #
face $-1 $49 $50 $12 $-1 $51 reversed single #
loop $-1 $-1 $52 $20 #
plane-surface $-1 0 0 -13.719328990669016 0 0 1 1 0 0 forward_v I I I I #
coedge $-1 $53 $54 $55 $56 forward $21 $-1 #
face $-1 $57 $58 $13 $-1 $59 forward single #
loop $-1 $-1 $60 $23 #
plane-surface $-1 0 30.748796360911346 0 0 -1 0 0 0 -1 forward_v I I I I #
coedge $-1 $61 $62 $63 $64 forward $24 $-1 #
face $-1 $65 $66 $14 $-1 $67 forward single #
loop $-1 $-1 $68 $26 #
plane-surface $-1 60.741916268595375 -9.5972540190468436 47.318013586852459 0 0.75470958851134928 0.65605901945558964 1 0 0 forward_v I I I I #
coedge $-1 $69 $70 $71 $72 reversed $27 $-1 #
face $-1 $-1 $73 $15 $-1 $74 forward single #
loop $-1 $75 $76 $29 #
cone-surface $-1 60.741916268595375 22.169400933674861 4.6958673585034667 0 -0.75470958851134928 -0.65605901945558964 1.25 0 0 1 I I -0.70710678118654746 0.70710678118654746 1.25 forward I I I I #
loop $-1 $-1 $77 $19 #
coedge $-1 $48 $48 $78 $79 reversed $30 $-1 #
face $-1 $80 $81 $12 $-1 $82 reversed single #
loop $-1 $-1 $83 $32 #
plane-surface $-1 0 -30.748796360911346 0 0 1 0 0 0 1 forward_v I I I I #
coedge $-1 $84 $85 $86 $87 forward $33 $-1 #
coedge $-1 $88 $35 $89 $90 forward $21 $-1 #
coedge $-1 $35 $88 $91 $92 forward $21 $-1 #
coedge $-1 $93 $94 $35 $56 reversed $95 $-1 #
edge $-1 $96 -30.748796360911346 $97 30.748796360911346 $55 $98 forward 7 unknown #
face $-1 $99 $100 $13 $-1 $101 reversed single #
loop $-1 $-1 $63 $36 #
plane-surface $-1 -79.215730818194999 0 -5.7849643497577752 0 0 1 1 0 0 forward_v I I I I #
coedge $-1 $102 $103 $62 $104 forward $37 $-1 #
coedge $-1 $105 $39 $106 $107 reversed $24 $-1 #
coedge $-1 $39 $105 $60 $104 reversed $24 $-1 #
coedge $-1 $108 $109 $39 $64 reversed $58 $-1 #
edge $-1 $110 -30.748796360911346 $111 30.748796360911346 $63 $112 forward 7 unknown #
face $-1 $113 $114 $14 $-1 $115 reversed single #
loop $-1 $-1 $71 $40 #
plane-surface $-1 0 0 13.719328990669016 0 0 1 1 0 0 forward_v I I I I #
coedge $-1 $116 $117 $118 $119 reversed $41 $-1 #
coedge $-1 $70 $43 $120 $121 reversed $27 $-1 #
coedge $-1 $43 $69 $116 $122 reversed $27 $-1 #
coedge $-1 $118 $123 $43 $72 forward $66 $-1 #
edge $-1 $124 17.755567996382606 $125 28.894728194054132 $71 $126 forward 7 unknown #
loop $-1 $-1 $78 $44 #
plane-surface $-1 60.741916268595375 -9.5972540190468436 47.318013586852459 0 0.75470958851134928 0.65605901945558964 1 0 0 forward_v I I I I #
loop $-1 $-1 $127 $29 #
coedge $-1 $76 $76 $77 $128 reversed $45 $-1 #
coedge $-1 $77 $77 $76 $128 forward $47 $-1 #
coedge $-1 $78 $78 $48 $79 forward $73 $-1 #
edge $-1 $129 6.7644430616757411e-016 $129 6.2831853071796013 $78 $130 forward 7 unknown #
face $-1 $131 $132 $12 $-1 $133 reversed single #
loop $-1 $-1 $134 $49 #
plane-surface $-1 -70.627155369731739 0 0 1 0 0 0 0 -1 forward_v I I I I #
coedge $-1 $135 $91 $134 $136 forward $50 $-1 #
coedge $-1 $137 $52 $135 $138 forward $33 $-1 #
coedge $-1 $52 $137 $139 $140 forward $33 $-1 #
coedge $-1 $94 $93 $52 $87 reversed $95 $-1 #
edge $-1 $141 -30.748796360911346 $142 30.748796360911346 $86 $143 forward 7 unknown #
coedge $-1 $54 $53 $144 $145 forward $21 $-1 #
coedge $-1 $146 $147 $53 $90 reversed $132 $-1 #
edge $-1 $97 -70.627155369731739 $148 70.627155369731739 $89 $149 forward 7 unknown #
coedge $-1 $83 $150 $54 $92 reversed $50 $-1 #
edge $-1 $151 -70.627155369731739 $96 70.627155369731739 $91 $152 forward 7 unknown #
coedge $-1 $86 $55 $150 $153 forward $95 $-1 #
coedge $-1 $55 $86 $146 $154 reversed $95 $-1 #
loop $-1 $-1 $93 $131 #
vertex $-1 $56 $155 #
vertex $-1 $56 $156 #
straight-curve $-1 70.627155369731739 0 13.719328990669016 0 1 0 I I #
face $-1 $157 $158 $13 $-1 $159 reversed single #
loop $-1 $-1 $160 $57 #
plane-surface $-1 -79.215730818194999 0 -10.085532476066494 0 0 1 1 0 0 forward_v I I I I #
coedge $-1 $161 $60 $162 $163 reversed $37 $-1 #
coedge $-1 $60 $161 $108 $164 reversed $37 $-1 #
edge $-1 $110 5.7849643497577752 $165 10.085532476066494 $60 $166 forward 7 unknown #
coedge $-1 $62 $61 $160 $167 forward $24 $-1 #
coedge $-1 $168 $169 $61 $107 forward $170 $-1 #
edge $-1 $171 -10.085532476066494 $111 -5.7849643497577752 $106 $172 forward 7 unknown #
coedge $-1 $173 $63 $103 $164 forward $58 $-1 #
coedge $-1 $63 $173 $168 $174 forward $58 $-1 #
vertex $-1 $104 $175 #
vertex $-1 $174 $176 #
straight-curve $-1 -70.627155369731739 0 -5.7849643497577752 0 -1 0 I I #
face $-1 $-1 $177 $14 $-1 $178 reversed single #
loop $-1 $-1 $179 $65 #
plane-surface $-1 70.627155369731739 0 0 -1 0 0 0 0 1 forward_v I I I I #
coedge $-1 $180 $68 $70 $122 forward $41 $-1 #
coedge $-1 $68 $180 $179 $181 reversed $41 $-1 #
coedge $-1 $182 $71 $68 $119 forward $66 $-1 #
edge $-1 $125 20.485719033161331 $183 40.256197235434037 $118 $184 forward 7 unknown #
coedge $-1 $185 $186 $69 $121 forward $177 $-1 #
edge $-1 $187 -69.089398402902887 $124 -56.275260101561003 $120 $188 forward 7 unknown #
edge $-1 $125 44.518693160446311 $187 61.497592721822677 $70 $189 forward 7 unknown #
coedge $-1 $71 $182 $185 $190 forward $66 $-1 #
vertex $-1 $121 $191 #
vertex $-1 $72 $192 #
straight-curve $-1 50.856677167459019 48.504364357293952 13.719328990669013 0 -1 0 I I #
coedge $-1 $127 $127 $-1 $193 reversed $75 $-1 #
edge $-1 $194 0 $194 6.2831853071796004 $76 $195 forward 7 unknown #
vertex $-1 $79 $196 #
ellipse-curve $-1 60.741916268595375 25.179216262075581 7.3122598399980703 0 0.75470958851134928 0.65605901945558964 2.5 0 0 1 I I #
face $-1 $-1 $95 $12 $-1 $197 reversed single #
loop $-1 $-1 $146 $80 #
plane-surface $-1 0 30.748796360911346 0 0 -1 0 0 0 -1 forward_v I I I I #
coedge $-1 $144 $198 $83 $136 reversed $81 $-1 #
coedge $-1 $150 $83 $84 $138 reversed $50 $-1 #
edge $-1 $151 -13.719328990669016 $199 13.719328990669016 $134 $200 forward 7 unknown #
coedge $-1 $85 $84 $198 $201 forward $33 $-1 #
edge $-1 $142 -70.627155369731739 $199 70.627155369731739 $135 $202 forward 7 unknown #
coedge $-1 $147 $146 $85 $140 reversed $132 $-1 #
edge $-1 $203 -70.627155369731739 $141 70.627155369731739 $139 $204 forward 7 unknown #
vertex $-1 $87 $205 #
vertex $-1 $153 $206 #
straight-curve $-1 70.627155369731739 0 -13.719328990669016 0 -1 0 I I #
coedge $-1 $207 $134 $88 $145 reversed $81 $-1 #
edge $-1 $148 -30.748796360911346 $151 30.748796360911346 $144 $208 forward 7 unknown #
coedge $-1 $139 $89 $94 $154 forward $132 $-1 #
coedge $-1 $89 $139 $207 $209 reversed $132 $-1 #
vertex $-1 $90 $210 #
straight-curve $-1 0 30.748796360911346 13.719328990669016 -1 0 0 I I #
coedge $-1 $91 $135 $93 $153 reversed $50 $-1 #
vertex $-1 $145 $211 #
straight-curve $-1 0 -30.748796360911346 13.719328990669016 1 0 0 I I #
edge $-1 $96 -13.719328990669016 $142 13.719328990669016 $93 $212 forward 7 unknown #
edge $-1 $97 -13.719328990669016 $141 13.719328990669016 $94 $213 forward 7 unknown #
point $-1 70.627155369731739 -30.748796360911346 13.719328990669016 #
point $-1 70.627155369731739 30.748796360911346 13.719328990669016 #
face $-1 $-1 $170 $13 $-1 $214 reversed single #
loop $-1 $-1 $215 $99 #
plane-surface $-1 -87.804306266658244 0 -7.9352484129121343 1 0 0 0 0 -1 forward_v I I I I #
coedge $-1 $216 $162 $105 $167 reversed $100 $-1 #
coedge $-1 $103 $102 $215 $217 reversed $37 $-1 #
coedge $-1 $160 $218 $102 $163 forward $100 $-1 #
edge $-1 $219 -8.5885754484632457 $165 8.5885754484632457 $102 $220 forward 7 unknown #
edge $-1 $110 -8.5885754484632457 $221 8.5885754484632457 $103 $222 forward 7 unknown #
vertex $-1 $104 $223 #
straight-curve $-1 -70.627155369731739 30.748796360911346 0 0 0 -1 I I #
edge $-1 $171 -30.748796360911346 $165 30.748796360911346 $160 $224 forward 7 unknown #
coedge $-1 $225 $106 $109 $174 reversed $170 $-1 #
coedge $-1 $106 $225 $216 $226 reversed $170 $-1 #
loop $-1 $-1 $106 $157 #
vertex $-1 $107 $227 #
straight-curve $-1 -70.627155369731739 -30.748796360911346 0 0 0 1 I I #
coedge $-1 $109 $108 $228 $229 forward $58 $-1 #
edge $-1 $230 -8.5885754484632457 $111 8.5885754484632457 $168 $231 forward 7 unknown #
point $-1 -70.627155369731753 30.748796360911346 -5.7849643497577752 #
point $-1 -70.627155369731753 -30.748796360911346 -5.7849643497577752 #
loop $-1 $-1 $120 $113 #
plane-surface $-1 0 30.748796360911346 0 0 -1 0 0 0 -1 forward_v I I I I #
coedge $-1 $232 $233 $117 $181 forward $114 $-1 #
coedge $-1 $117 $116 $186 $234 reversed $41 $-1 #
edge $-1 $183 23.514831348191329 $235 40.493730909567702 $179 $236 forward 7 unknown #
coedge $-1 $123 $118 $233 $237 forward $66 $-1 #
vertex $-1 $237 $238 #
straight-curve $-1 30.370958134297688 19.60963616323982 13.719328990669013 1 0 0 I I #
coedge $-1 $239 $120 $123 $190 reversed $177 $-1 #
coedge $-1 $120 $239 $180 $234 forward $177 $-1 #
vertex $-1 $121 $240 #
straight-curve $-1 50.856677167459019 30.748796360911342 69.994589092230015 0 0 1 I I #
straight-curve $-1 50.856677167459019 -9.5972540190468436 47.318013586852459 0 0.65605901945558964 -0.75470958851134928 I I #
edge $-1 $241 -70.627155369731739 $124 -50.856677167459019 $185 $242 forward 7 unknown #
point $-1 50.856677167459019 30.748796360911346 13.719328990669016 #
point $-1 50.856677167459019 19.60963616323982 13.719328990669013 #
edge $-1 $243 1 $243 0 $127 $-1 forward 7 unknown #
vertex $-1 $128 $244 #
ellipse-curve $-1 60.741916268595375 23.112787919314048 5.5159411328229542 0 0.75470958851134928 0.65605901945558964 2.5 0 0 1 I I #
point $-1 63.241916268595375 25.179216262075578 7.3122598399980649 #
plane-surface $-1 70.627155369731739 0 0 -1 0 0 0 0 1 forward_v I I I I #
coedge $-1 $134 $207 $137 $201 reversed $81 $-1 #
vertex $-1 $201 $245 #
straight-curve $-1 -70.627155369731739 -30.748796360911346 0 0 0 -1 I I #
edge $-1 $199 -30.748796360911346 $203 30.748796360911346 $198 $246 forward 7 unknown #
straight-curve $-1 0 -30.748796360911346 -13.719328990669016 -1 0 0 I I #
vertex $-1 $140 $247 #
straight-curve $-1 0 30.748796360911346 -13.719328990669016 1 0 0 I I #
point $-1 70.627155369731739 30.748796360911346 -13.719328990669016 #
point $-1 70.627155369731739 -30.748796360911346 -13.719328990669016 #
coedge $-1 $198 $144 $147 $209 forward $81 $-1 #
straight-curve $-1 -70.627155369731739 0 13.719328990669016 0 -1 0 I I #
edge $-1 $148 -13.719328990669016 $203 13.719328990669016 $147 $248 forward 7 unknown #
point $-1 -70.627155369731739 30.748796360911346 13.719328990669016 #
point $-1 -70.627155369731739 -30.748796360911346 13.719328990669016 #
straight-curve $-1 70.627155369731739 -30.748796360911346 0 0 0 -1 I I #
straight-curve $-1 70.627155369731739 30.748796360911346 0 0 0 -1 I I #
plane-surface $-1 0 -30.748796360911346 0 0 1 0 0 0 1 forward_v I I I I #
coedge $-1 $249 $228 $161 $217 forward $158 $-1 #
coedge $-1 $218 $160 $169 $226 forward $100 $-1 #
edge $-1 $221 -2.1502840631543592 $219 2.1502840631543592 $161 $250 forward 7 unknown #
coedge $-1 $162 $216 $249 $251 forward $100 $-1 #
vertex $-1 $163 $252 #
straight-curve $-1 -79.215730818194999 30.748796360911346 -10.085532476066494 1 0 0 I I #
vertex $-1 $164 $253 #
straight-curve $-1 -79.215730818194999 30.748796360911346 -5.7849643497577752 -1 0 0 I I #
point $-1 -70.627155369731753 30.748796360911346 -10.085532476066494 #
straight-curve $-1 -70.627155369731739 0 -10.085532476066494 0 1 0 I I #
coedge $-1 $169 $168 $254 $255 forward $170 $-1 #
edge $-1 $171 -8.5885754484632457 $256 8.5885754484632457 $169 $257 forward 7 unknown #
point $-1 -70.627155369731753 -30.748796360911346 -10.085532476066494 #
coedge $-1 $215 $254 $173 $229 reversed $158 $-1 #
edge $-1 $221 -30.748796360911346 $230 30.748796360911346 $228 $258 forward 7 unknown #
vertex $-1 $229 $259 #
straight-curve $-1 -79.215730818194999 -30.748796360911346 -5.7849643497577752 1 0 0 I I #
coedge $-1 $233 $179 $239 $260 reversed $114 $-1 #
coedge $-1 $179 $232 $182 $237 reversed $114 $-1 #
edge $-1 $235 -40.256197235434037 $187 -20.485719033161331 $186 $261 forward 7 unknown #
vertex $-1 $181 $262 #
straight-curve $-1 70.627155369731739 4.1825189662818563 31.466197681376265 0 0.65605901945558975 -0.75470958851134939 I I #
edge $-1 $183 19.60963616323982 $241 30.748796360911346 $233 $263 forward 7 unknown #
point $-1 70.627155369731724 19.60963616323982 13.719328990669013 #
coedge $-1 $186 $185 $232 $260 forward $177 $-1 #
point $-1 50.856677167459019 30.748796360911342 0.90519068932712798 #
vertex $-1 $237 $264 #
straight-curve $-1 0 30.748796360911346 13.719328990669016 -1 0 0 I I #
vertex $-1 $193 $265 #
point $-1 63.241916268595375 23.112787919314048 5.5159411328229542 #
point $-1 -70.627155369731739 -30.748796360911346 -13.719328990669016 #
straight-curve $-1 -70.627155369731739 0 -13.719328990669016 0 1 0 I I #
point $-1 -70.627155369731739 30.748796360911346 -13.719328990669016 #
straight-curve $-1 -70.627155369731739 30.748796360911346 0 0 0 -1 I I #
coedge $-1 $254 $215 $218 $251 reversed $158 $-1 #
straight-curve $-1 -87.804306266658244 30.748796360911346 -7.9352484129121343 0 0 -1 I I #
edge $-1 $256 -30.748796360911346 $219 30.748796360911346 $249 $266 forward 7 unknown #
point $-1 -87.804306266658244 30.748796360911346 -10.085532476066494 #
point $-1 -87.804306266658244 30.748796360911346 -5.7849643497577752 #
coedge $-1 $228 $249 $225 $255 reversed $158 $-1 #
edge $-1 $230 -2.1502840631543592 $256 2.1502840631543592 $254 $267 forward 7 unknown #
vertex $-1 $251 $268 #
straight-curve $-1 -79.215730818194999 -30.748796360911346 -10.085532476066494 -1 0 0 I I #
straight-curve $-1 -87.804306266658244 0 -5.7849643497577752 0 -1 0 I I #
point $-1 -87.804306266658244 -30.748796360911346 -5.7849643497577752 #
edge $-1 $241 -13.719328990669016 $235 -0.90519068932712798 $232 $269 forward 7 unknown #
straight-curve $-1 30.370958134297688 30.748796360911342 0.90519068932712443 -1 0 0 I I #
point $-1 70.627155369731724 30.748796360911342 0.90519068932712798 #
straight-curve $-1 70.627155369731739 0 13.719328990669016 0 1 0 I I #
point $-1 70.627155369731739 30.748796360911346 13.719328990669016 #
point $-1 60.741916268595375 21.226013948035675 3.8757935841839797 #
straight-curve $-1 -87.804306266658244 0 -10.085532476066494 0 1 0 I I #
straight-curve $-1 -87.804306266658244 -30.748796360911346 -7.9352484129121343 0 0 -1 I I #
point $-1 -87.804306266658244 -30.748796360911346 -10.085532476066494 #
straight-curve $-1 70.627155369731739 30.748796360911346 0 0 0 -1 I I #
End-of-ACIS-data 