500 0 15 0           
7 Unknown 11 ACIS 5.0 NT 24 Thu Mar 25 23:58:35 1999 
-1 9.9999999999999995e-007 1e-010 
body $-1 $15 $-1 $16 #
body $-1 $17 $-1 $18 #
body $-1 $19 $-1 $20 #
body $-1 $21 $-1 $22 #
body $-1 $23 $-1 $24 #
body $-1 $25 $-1 $26 #
body $-1 $27 $-1 $28 #
body $-1 $29 $-1 $30 #
body $-1 $31 $-1 $32 #
body $-1 $33 $-1 $34 #
body $-1 $35 $-1 $36 #
body $-1 $37 $-1 $38 #
body $-1 $39 $-1 $40 #
body $-1 $41 $-1 $42 #
body $-1 $43 $-1 $44 #
lump $-1 $-1 $45 $0 #
transform $-1 1 0 0 0 1 0 0 0 1 45.028229621265297 28.471110342271885 7.9083424753935914 1 rotate no_reflect no_shear #
lump $-1 $-1 $46 $1 #
transform $-1 1 0 0 0 1 0 0 0 1 45.028229621265297 28.471110342271885 7.9083424753935914 1 rotate no_reflect no_shear #
lump $-1 $-1 $47 $2 #
transform $-1 1 0 0 0 1 0 0 0 1 45.028229621265297 28.471110342271885 7.9083424753935914 1 rotate no_reflect no_shear #
lump $-1 $-1 $48 $3 #
transform $-1 1 0 0 0 1 0 0 0 1 45.028229621265297 28.471110342271885 7.9083424753935914 1 rotate no_reflect no_shear #
lump $-1 $-1 $49 $4 #
transform $-1 1 0 0 0 1 0 0 0 1 45.028229621265297 28.471110342271885 7.9083424753935914 1 rotate no_reflect no_shear #
lump $-1 $-1 $50 $5 #
transform $-1 1 0 0 0 1 0 0 0 1 45.028229621265297 28.471110342271885 7.9083424753935914 1 rotate no_reflect no_shear #
lump $-1 $-1 $51 $6 #
transform $-1 1 0 0 0 1 0 0 0 1 45.028229621265297 28.471110342271885 7.9083424753935914 1 rotate no_reflect no_shear #
lump $-1 $-1 $52 $7 #
transform $-1 1 0 0 0 1 0 0 0 1 45.028229621265297 28.471110342271885 7.9083424753935914 1 rotate no_reflect no_shear #
lump $-1 $-1 $53 $8 #
transform $-1 1 0 0 0 1 0 0 0 1 45.028229621265297 28.471110342271885 7.9083424753935914 1 rotate no_reflect no_shear #
lump $-1 $-1 $54 $9 #
transform $-1 1 0 0 0 1 0 0 0 1 45.028229621265297 28.471110342271885 7.9083424753935914 1 rotate no_reflect no_shear #
lump $-1 $-1 $55 $10 #
transform $-1 1 0 0 0 1 0 0 0 1 45.028229621265297 28.471110342271885 7.9083424753935914 1 rotate no_reflect no_shear #
lump $-1 $-1 $56 $11 #
transform $-1 1 0 0 0 1 0 0 0 1 45.028229621265297 28.471110342271885 7.9083424753935914 1 rotate no_reflect no_shear #
lump $-1 $-1 $57 $12 #
transform $-1 1 0 0 0 1 0 0 0 1 45.028229621265297 28.471110342271885 7.9083424753935914 1 rotate no_reflect no_shear #
lump $-1 $-1 $58 $13 #
transform $-1 1 0 0 0 1 0 0 0 1 45.028229621265297 28.471110342271885 7.9083424753935914 1 rotate no_reflect no_shear #
lump $-1 $-1 $59 $14 #
transform $-1 1 0 0 0 1 0 0 0 1 45.028229621265297 28.471110342271885 7.9083424753935914 1 rotate no_reflect no_shear #
shell $-1 $-1 $-1 $60 $-1 $15 #
shell $-1 $-1 $-1 $61 $-1 $17 #
shell $-1 $-1 $-1 $62 $-1 $19 #
shell $-1 $-1 $-1 $63 $-1 $21 #
shell $-1 $-1 $-1 $64 $-1 $23 #
shell $-1 $-1 $-1 $65 $-1 $25 #
shell $-1 $-1 $-1 $66 $-1 $27 #
shell $-1 $-1 $-1 $67 $-1 $29 #
shell $-1 $-1 $-1 $68 $-1 $31 #
shell $-1 $-1 $-1 $69 $-1 $33 #
shell $-1 $-1 $-1 $70 $-1 $35 #
shell $-1 $-1 $-1 $71 $-1 $37 #
shell $-1 $-1 $-1 $72 $-1 $39 #
shell $-1 $-1 $-1 $73 $-1 $41 #
shell $-1 $-1 $-1 $74 $-1 $43 #
face $-1 $75 $76 $45 $-1 $77 forward single #
face $-1 $78 $79 $46 $-1 $80 forward single #
face $-1 $81 $82 $47 $-1 $83 forward single #
face $-1 $84 $85 $48 $-1 $86 reversed single #
face $-1 $87 $88 $49 $-1 $89 forward single #
face $-1 $90 $91 $50 $-1 $92 forward single #
face $-1 $93 $94 $51 $-1 $95 forward single #
face $-1 $96 $97 $52 $-1 $98 reversed single #
face $-1 $99 $100 $53 $-1 $101 forward single #
face $-1 $102 $103 $54 $-1 $104 reversed single #
face $-1 $105 $106 $55 $-1 $107 forward single #
face $-1 $108 $109 $56 $-1 $110 reversed single #
face $-1 $111 $112 $57 $-1 $113 forward single #
face $-1 $114 $115 $58 $-1 $116 reversed single #
face $-1 $117 $118 $59 $-1 $119 forward single #
face $-1 $120 $121 $45 $-1 $122 reversed single #
loop $-1 $-1 $123 $60 #
plane-surface $-1 0 0 7.9083424753935914 0 0 1 1 0 0 forward_v I I I I #
face $-1 $124 $125 $46 $-1 $126 reversed single #
loop $-1 $-1 $127 $61 #
plane-surface $-1 -45.028229621265297 0 0 1 0 0 0 0 -1 forward_v I I I I #
face $-1 $128 $129 $47 $-1 $130 reversed single #
loop $-1 $-1 $131 $62 #
plane-surface $-1 45.028229621265297 0 0 -1 0 0 0 0 1 forward_v I I I I #
face $-1 $132 $133 $48 $-1 $134 reversed single #
loop $-1 $-1 $135 $63 #
plane-surface $-1 -18.805696043693018 -85.145477193102536 72.751035841745335 -1 0 0 0 -0.62932039886446345 0.77714595512881146 forward_v I I I I #
face $-1 $136 $137 $49 $-1 $138 forward single #
loop $-1 $139 $140 $64 #
cone-surface $-1 -32.419228794065035 -24.190791626380701 3.9728982985873156 0 0.62932039886446345 -0.77714595512881146 1 0 0 1 I I 0 1 1 forward I I I I #
face $-1 $141 $142 $50 $-1 $143 forward single #
loop $-1 $144 $145 $65 #
cone-surface $-1 -27.31415401267553 -24.190791626380701 3.9728982985873156 0 0.62932039886446345 -0.77714595512881146 1 0 0 1 I I 0 1 1 forward I I I I #
face $-1 $146 $147 $51 $-1 $148 forward single #
loop $-1 $149 $150 $66 #
cone-surface $-1 -22.209079231286022 -24.190791626380701 3.9728982985873156 0 0.62932039886446345 -0.77714595512881146 1 0 0 1 I I 0 1 1 forward I I I I #
face $-1 $151 $152 $52 $-1 $153 reversed single #
loop $-1 $-1 $154 $67 #
plane-surface $-1 -33.526634603546228 50.068779094605219 108.98203712705524 1 0 0 0 -0.69465837861970381 -0.71933979245794832 forward_v I I I I #
face $-1 $155 $156 $53 $-1 $157 forward single #
loop $-1 $158 $159 $68 #
cone-surface $-1 -29.752835528272765 26.412258517096408 5.8943300416820463 0 -0.69465837861970381 -0.71933979245794832 0.5 0 0 1 I I 0 1 0.5 forward I I I I #
face $-1 $160 $161 $54 $-1 $162 reversed single #
loop $-1 $-1 $163 $69 #
plane-surface $-1 -13.691410918031044 50.068779094605219 108.98203712705524 1 0 0 0 -0.69465837861970381 -0.71933979245794832 forward_v I I I I #
face $-1 $164 $165 $55 $-1 $166 forward single #
loop $-1 $167 $168 $70 #
cone-surface $-1 -9.9176118427575872 26.412258517096408 5.8943300416820463 0 -0.69465837861970381 -0.71933979245794832 0.5 0 0 1 I I 0 1 0.5 forward I I I I #
face $-1 $169 $170 $56 $-1 $171 reversed single #
loop $-1 $-1 $172 $71 #
plane-surface $-1 6.1438127674841372 50.068779094605219 108.98203712705524 1 0 0 0 -0.69465837861970381 -0.71933979245794832 forward_v I I I I #
face $-1 $173 $174 $57 $-1 $175 forward single #
loop $-1 $176 $177 $72 #
cone-surface $-1 9.9176118427575943 26.412258517096408 5.8943300416820463 0 -0.69465837861970381 -0.71933979245794832 0.5 0 0 1 I I 0 1 0.5 forward I I I I #
face $-1 $178 $179 $58 $-1 $180 reversed single #
loop $-1 $-1 $181 $73 #
plane-surface $-1 25.97903645299931 50.068779094605219 108.98203712705524 1 0 0 0 -0.69465837861970381 -0.71933979245794832 forward_v I I I I #
face $-1 $182 $183 $59 $-1 $184 forward single #
loop $-1 $185 $186 $74 #
cone-surface $-1 29.752835528272769 26.412258517096408 5.8943300416820463 0 -0.69465837861970381 -0.71933979245794832 0.5 0 0 1 I I 0 1 0.5 forward I I I I #
face $-1 $187 $188 $45 $-1 $189 reversed single #
loop $-1 $-1 $190 $75 #
plane-surface $-1 0 0 -7.9083424753935914 0 0 1 1 0 0 forward_v I I I I #
coedge $-1 $191 $192 $193 $194 forward $76 $-1 #
face $-1 $195 $196 $46 $-1 $197 forward single #
loop $-1 $-1 $198 $78 #
plane-surface $-1 0 28.471110342271885 0 0 -1 0 0 0 -1 forward_v I I I I #
coedge $-1 $199 $200 $201 $202 forward $79 $-1 #
face $-1 $203 $204 $47 $-1 $205 forward single #
loop $-1 $-1 $206 $81 #
plane-surface $-1 0 -28.471110342271885 0 0 1 0 0 0 1 forward_v I I I I #
coedge $-1 $207 $208 $209 $210 forward $82 $-1 #
face $-1 $211 $212 $48 $-1 $213 reversed single #
loop $-1 $-1 $214 $84 #
plane-surface $-1 -27.31415401267553 -28.471110342271885 2.7640228081900204 0 -0.62932039886446345 0.77714595512881146 1 0 0 forward_v I I I I #
coedge $-1 $215 $216 $217 $218 reversed $85 $-1 #
face $-1 $-1 $219 $49 $-1 $220 forward single #
loop $-1 $221 $222 $87 #
cone-surface $-1 -32.419228794065035 -22.772165510418766 2.2210409778184159 0 0.62932039886446345 -0.77714595512881146 0.5 0 0 1 I I -0.70710678118654746 0.70710678118654746 0.5 forward I I I I #
loop $-1 $-1 $223 $64 #
coedge $-1 $140 $140 $224 $225 reversed $88 $-1 #
face $-1 $-1 $226 $50 $-1 $227 forward single #
loop $-1 $228 $229 $90 #
cone-surface $-1 -27.31415401267553 -22.772165510418766 2.2210409778184159 0 0.62932039886446345 -0.77714595512881146 0.5 0 0 1 I I -0.70710678118654746 0.70710678118654746 0.5 forward I I I I #
loop $-1 $-1 $230 $65 #
coedge $-1 $145 $145 $231 $232 reversed $91 $-1 #
face $-1 $-1 $233 $51 $-1 $234 forward single #
loop $-1 $235 $236 $93 #
cone-surface $-1 -22.209079231286022 -22.772165510418766 2.2210409778184159 0 0.62932039886446345 -0.77714595512881146 0.5 0 0 1 I I -0.70710678118654746 0.70710678118654746 0.5 forward I I I I #
loop $-1 $-1 $237 $66 #
coedge $-1 $150 $150 $238 $239 reversed $94 $-1 #
face $-1 $240 $241 $52 $-1 $242 reversed single #
loop $-1 $-1 $243 $96 #
plane-surface $-1 -29.752835528272769 -12.489694867042523 44.200842426035592 0 0.69465837861970381 0.71933979245794832 1 0 0 forward_v I I I I #
coedge $-1 $244 $245 $246 $247 reversed $97 $-1 #
face $-1 $-1 $248 $53 $-1 $249 forward single #
loop $-1 $250 $251 $99 #
cone-surface $-1 -29.752835528272765 25.869153197473793 5.3319280324002749 0 -0.69465837861970381 -0.71933979245794832 0.25 0 0 1 I I -0.70710678118654746 0.70710678118654746 0.25 forward I I I I #
loop $-1 $-1 $252 $68 #
coedge $-1 $159 $159 $253 $254 reversed $100 $-1 #
face $-1 $255 $256 $54 $-1 $257 reversed single #
loop $-1 $-1 $258 $102 #
plane-surface $-1 -9.9176118427575872 -12.489694867042523 44.200842426035592 0 0.69465837861970381 0.71933979245794832 1 0 0 forward_v I I I I #
coedge $-1 $259 $260 $261 $262 reversed $103 $-1 #
face $-1 $-1 $263 $55 $-1 $264 forward single #
loop $-1 $265 $266 $105 #
cone-surface $-1 -9.9176118427575872 25.869153197473793 5.3319280324002749 0 -0.69465837861970381 -0.71933979245794832 0.25 0 0 1 I I -0.70710678118654746 0.70710678118654746 0.25 forward I I I I #
loop $-1 $-1 $267 $70 #
coedge $-1 $168 $168 $268 $269 reversed $106 $-1 #
face $-1 $270 $271 $56 $-1 $272 reversed single #
loop $-1 $-1 $273 $108 #
plane-surface $-1 9.9176118427575943 -12.489694867042523 44.200842426035592 0 0.69465837861970381 0.71933979245794832 1 0 0 forward_v I I I I #
coedge $-1 $274 $275 $276 $277 reversed $109 $-1 #
face $-1 $-1 $278 $57 $-1 $279 forward single #
loop $-1 $280 $281 $111 #
cone-surface $-1 9.9176118427575943 25.869153197473793 5.3319280324002749 0 -0.69465837861970381 -0.71933979245794832 0.25 0 0 1 I I -0.70710678118654746 0.70710678118654746 0.25 forward I I I I #
loop $-1 $-1 $282 $72 #
coedge $-1 $177 $177 $283 $284 reversed $112 $-1 #
face $-1 $285 $286 $58 $-1 $287 reversed single #
loop $-1 $-1 $288 $114 #
plane-surface $-1 29.752835528272769 -12.489694867042523 44.200842426035592 0 0.69465837861970381 0.71933979245794832 1 0 0 forward_v I I I I #
coedge $-1 $289 $290 $291 $292 reversed $115 $-1 #
face $-1 $-1 $293 $59 $-1 $294 forward single #
loop $-1 $295 $296 $117 #
cone-surface $-1 29.752835528272769 25.869153197473793 5.3319280324002749 0 -0.69465837861970381 -0.71933979245794832 0.25 0 0 1 I I -0.70710678118654746 0.70710678118654746 0.25 forward I I I I #
loop $-1 $-1 $297 $74 #
coedge $-1 $186 $186 $298 $299 reversed $118 $-1 #
face $-1 $300 $301 $45 $-1 $302 reversed single #
loop $-1 $-1 $303 $120 #
plane-surface $-1 0 -28.471110342271885 0 0 1 0 0 0 1 forward_v I I I I #
coedge $-1 $304 $305 $306 $307 forward $121 $-1 #
coedge $-1 $308 $123 $309 $310 forward $76 $-1 #
coedge $-1 $123 $308 $311 $312 forward $76 $-1 #
coedge $-1 $313 $314 $123 $194 reversed $315 $-1 #
edge $-1 $316 -28.471110342271885 $317 28.471110342271885 $193 $318 forward 7 unknown #
face $-1 $319 $320 $46 $-1 $321 reversed single #
loop $-1 $-1 $201 $124 #
plane-surface $-1 -49.631038441068924 0 -2.7136215897810274 0 0 1 1 0 0 forward_v I I I I #
coedge $-1 $322 $323 $200 $324 forward $125 $-1 #
coedge $-1 $325 $127 $326 $327 reversed $79 $-1 #
coedge $-1 $127 $325 $198 $324 reversed $79 $-1 #
coedge $-1 $328 $329 $127 $202 reversed $196 $-1 #
edge $-1 $330 -28.471110342271885 $331 28.471110342271885 $201 $332 forward 7 unknown #
face $-1 $333 $334 $47 $-1 $335 reversed single #
loop $-1 $-1 $336 $128 #
plane-surface $-1 49.631038441068924 0 -2.7136215897810274 0 0 1 1 0 0 forward_v I I I I #
coedge $-1 $337 $338 $208 $339 forward $129 $-1 #
coedge $-1 $340 $131 $341 $342 reversed $82 $-1 #
coedge $-1 $131 $340 $206 $339 reversed $82 $-1 #
coedge $-1 $343 $344 $131 $210 reversed $204 $-1 #
edge $-1 $345 -28.471110342271885 $346 28.471110342271885 $209 $347 forward 7 unknown #
face $-1 $348 $349 $48 $-1 $350 forward single #
loop $-1 $-1 $351 $132 #
plane-surface $-1 -35.822611981658042 -85.145477193102536 72.751035841745335 1 0 0 0 0.62932039886446345 -0.77714595512881146 forward_v I I I I #
coedge $-1 $352 $353 $354 $355 reversed $133 $-1 #
coedge $-1 $216 $135 $356 $357 reversed $85 $-1 #
coedge $-1 $135 $215 $352 $358 reversed $85 $-1 #
coedge $-1 $354 $359 $135 $218 forward $349 $-1 #
edge $-1 $360 14.101628254279383 $361 20.454333853002353 $217 $362 forward 7 unknown #
loop $-1 $-1 $224 $136 #
plane-surface $-1 -27.31415401267553 -28.471110342271885 2.7640228081900204 0 -0.62932039886446345 0.77714595512881146 1 0 0 forward_v I I I I #
loop $-1 $-1 $363 $87 #
coedge $-1 $222 $222 $223 $364 reversed $137 $-1 #
coedge $-1 $223 $223 $222 $364 forward $139 $-1 #
coedge $-1 $224 $224 $140 $225 forward $219 $-1 #
edge $-1 $365 -5.2518187581664207e-016 $365 6.2831853071795996 $224 $366 forward 7 unknown #
loop $-1 $-1 $231 $141 #
plane-surface $-1 -27.31415401267553 -28.471110342271885 2.7640228081900204 0 -0.62932039886446345 0.77714595512881146 1 0 0 forward_v I I I I #
loop $-1 $-1 $367 $90 #
coedge $-1 $229 $229 $230 $368 reversed $142 $-1 #
coedge $-1 $230 $230 $229 $368 forward $144 $-1 #
coedge $-1 $231 $231 $145 $232 forward $226 $-1 #
edge $-1 $369 -5.2518187581664207e-016 $369 6.2831853071795996 $231 $370 forward 7 unknown #
loop $-1 $-1 $238 $146 #
plane-surface $-1 -27.31415401267553 -28.471110342271885 2.7640228081900204 0 -0.62932039886446345 0.77714595512881146 1 0 0 forward_v I I I I #
loop $-1 $-1 $371 $93 #
coedge $-1 $236 $236 $237 $372 reversed $147 $-1 #
coedge $-1 $237 $237 $236 $372 forward $149 $-1 #
coedge $-1 $238 $238 $150 $239 forward $233 $-1 #
edge $-1 $373 -5.2518187581664207e-016 $373 6.2831853071795996 $238 $374 forward 7 unknown #
face $-1 $375 $376 $52 $-1 $377 reversed single #
loop $-1 $-1 $378 $151 #
plane-surface $-1 -25.97903645299931 50.068779094605219 108.98203712705524 -1 0 0 0 0.69465837861970381 0.71933979245794832 forward_v I I I I #
coedge $-1 $379 $380 $381 $382 reversed $152 $-1 #
coedge $-1 $245 $154 $383 $384 reversed $97 $-1 #
coedge $-1 $154 $244 $379 $385 reversed $97 $-1 #
coedge $-1 $381 $386 $154 $247 forward $387 $-1 #
edge $-1 $388 -3.4367207949692755 $389 -0.057898594553698501 $246 $390 forward 7 unknown #
loop $-1 $-1 $253 $155 #
plane-surface $-1 -29.752835528272769 -12.489694867042523 44.200842426035592 0 0.69465837861970381 0.71933979245794832 1 0 0 forward_v I I I I #
loop $-1 $-1 $391 $99 #
coedge $-1 $251 $251 $252 $392 reversed $156 $-1 #
coedge $-1 $252 $252 $251 $392 forward $158 $-1 #
coedge $-1 $253 $253 $159 $254 forward $248 $-1 #
edge $-1 $393 -3.5265114926128642e-015 $393 6.2831853071795969 $253 $394 forward 7 unknown #
face $-1 $395 $396 $54 $-1 $397 forward single #
loop $-1 $-1 $398 $160 #
plane-surface $-1 -6.1438127674841301 50.068779094605219 108.98203712705524 -1 0 0 0 0.69465837861970381 0.71933979245794832 forward_v I I I I #
coedge $-1 $399 $400 $401 $402 reversed $161 $-1 #
coedge $-1 $260 $163 $403 $404 reversed $103 $-1 #
coedge $-1 $163 $259 $399 $405 reversed $103 $-1 #
coedge $-1 $401 $406 $163 $262 forward $396 $-1 #
edge $-1 $407 -3.4367207949692755 $408 -0.057898594553698501 $261 $409 forward 7 unknown #
loop $-1 $-1 $268 $164 #
plane-surface $-1 -9.9176118427575872 -12.489694867042523 44.200842426035592 0 0.69465837861970381 0.71933979245794832 1 0 0 forward_v I I I I #
loop $-1 $-1 $410 $105 #
coedge $-1 $266 $266 $267 $411 reversed $165 $-1 #
coedge $-1 $267 $267 $266 $411 forward $167 $-1 #
coedge $-1 $268 $268 $168 $269 forward $263 $-1 #
edge $-1 $412 -3.5265114926128642e-015 $412 6.2831853071795969 $268 $413 forward 7 unknown #
face $-1 $414 $415 $56 $-1 $416 forward single #
loop $-1 $-1 $417 $169 #
plane-surface $-1 13.691410918031051 50.068779094605219 108.98203712705524 -1 0 0 0 0.69465837861970381 0.71933979245794832 forward_v I I I I #
coedge $-1 $418 $419 $420 $421 reversed $170 $-1 #
coedge $-1 $275 $172 $422 $423 reversed $109 $-1 #
coedge $-1 $172 $274 $418 $424 reversed $109 $-1 #
coedge $-1 $420 $425 $172 $277 forward $415 $-1 #
edge $-1 $426 -3.4367207949692755 $427 -0.057898594553698501 $276 $428 forward 7 unknown #
loop $-1 $-1 $283 $173 #
plane-surface $-1 9.9176118427575943 -12.489694867042523 44.200842426035592 0 0.69465837861970381 0.71933979245794832 1 0 0 forward_v I I I I #
loop $-1 $-1 $429 $111 #
coedge $-1 $281 $281 $282 $430 reversed $174 $-1 #
coedge $-1 $282 $282 $281 $430 forward $176 $-1 #
coedge $-1 $283 $283 $177 $284 forward $278 $-1 #
edge $-1 $431 -3.5265114926128642e-015 $431 6.2831853071795969 $283 $432 forward 7 unknown #
face $-1 $433 $434 $58 $-1 $435 forward single #
loop $-1 $-1 $436 $178 #
plane-surface $-1 33.526634603546228 50.068779094605219 108.98203712705524 -1 0 0 0 0.69465837861970381 0.71933979245794832 forward_v I I I I #
coedge $-1 $437 $438 $439 $440 reversed $179 $-1 #
coedge $-1 $290 $181 $441 $442 reversed $115 $-1 #
coedge $-1 $181 $289 $437 $443 reversed $115 $-1 #
coedge $-1 $439 $444 $181 $292 forward $434 $-1 #
edge $-1 $445 -3.4367207949692755 $446 -0.057898594553698501 $291 $447 forward 7 unknown #
loop $-1 $-1 $298 $182 #
plane-surface $-1 29.752835528272769 -12.489694867042523 44.200842426035592 0 0.69465837861970381 0.71933979245794832 1 0 0 forward_v I I I I #
loop $-1 $-1 $448 $117 #
coedge $-1 $296 $296 $297 $449 reversed $183 $-1 #
coedge $-1 $297 $297 $296 $449 forward $185 $-1 #
coedge $-1 $298 $298 $186 $299 forward $293 $-1 #
edge $-1 $450 -3.5265114926128642e-015 $450 6.2831853071795969 $298 $451 forward 7 unknown #
face $-1 $452 $453 $45 $-1 $454 reversed single #
loop $-1 $-1 $455 $187 #
plane-surface $-1 -45.028229621265297 0 0 1 0 0 0 0 -1 forward_v I I I I #
coedge $-1 $456 $311 $457 $458 forward $188 $-1 #
coedge $-1 $459 $190 $456 $460 forward $121 $-1 #
coedge $-1 $190 $459 $461 $462 forward $121 $-1 #
coedge $-1 $314 $313 $190 $307 reversed $315 $-1 #
edge $-1 $463 -28.471110342271885 $464 28.471110342271885 $306 $465 forward 7 unknown #
coedge $-1 $192 $191 $466 $467 forward $76 $-1 #
coedge $-1 $468 $469 $191 $310 reversed $453 $-1 #
edge $-1 $317 -45.028229621265297 $470 45.028229621265297 $309 $471 forward 7 unknown #
coedge $-1 $303 $472 $192 $312 reversed $188 $-1 #
edge $-1 $473 -45.028229621265297 $316 45.028229621265297 $311 $474 forward 7 unknown #
coedge $-1 $306 $193 $472 $475 forward $315 $-1 #
coedge $-1 $193 $306 $468 $476 reversed $315 $-1 #
loop $-1 $-1 $313 $452 #
vertex $-1 $194 $477 #
vertex $-1 $194 $478 #
straight-curve $-1 45.028229621265297 0 7.9083424753935914 0 1 0 I I #
face $-1 $479 $480 $46 $-1 $481 reversed single #
loop $-1 $-1 $482 $195 #
plane-surface $-1 -49.631038441068924 0 -5.7136215897810274 0 0 1 1 0 0 forward_v I I I I #
coedge $-1 $483 $198 $484 $485 reversed $125 $-1 #
coedge $-1 $198 $483 $328 $486 reversed $125 $-1 #
edge $-1 $330 2.7136215897810274 $487 5.7136215897810274 $198 $488 forward 7 unknown #
coedge $-1 $200 $199 $482 $489 forward $79 $-1 #
coedge $-1 $490 $491 $199 $327 forward $492 $-1 #
edge $-1 $493 -5.7136215897810274 $331 -2.7136215897810274 $326 $494 forward 7 unknown #
coedge $-1 $495 $201 $323 $486 forward $196 $-1 #
coedge $-1 $201 $495 $490 $496 forward $196 $-1 #
vertex $-1 $324 $497 #
vertex $-1 $496 $498 #
straight-curve $-1 -45.028229621265297 0 -2.7136215897810274 0 -1 0 I I #
face $-1 $499 $500 $47 $-1 $501 reversed single #
loop $-1 $-1 $502 $203 #
plane-surface $-1 49.631038441068924 0 -5.7136215897810274 0 0 1 1 0 0 forward_v I I I I #
coedge $-1 $344 $343 $503 $504 forward $204 $-1 #
coedge $-1 $505 $206 $506 $507 reversed $129 $-1 #
coedge $-1 $206 $505 $343 $508 reversed $129 $-1 #
edge $-1 $345 2.7136215897810274 $509 5.7136215897810274 $206 $510 forward 7 unknown #
coedge $-1 $208 $207 $511 $512 forward $82 $-1 #
coedge $-1 $513 $514 $207 $342 forward $515 $-1 #
edge $-1 $516 -5.7136215897810274 $346 -2.7136215897810274 $341 $517 forward 7 unknown #
coedge $-1 $336 $209 $338 $508 forward $204 $-1 #
coedge $-1 $209 $336 $513 $518 forward $204 $-1 #
vertex $-1 $339 $519 #
vertex $-1 $518 $520 #
straight-curve $-1 45.028229621265297 0 -2.7136215897810274 0 1 0 I I #
face $-1 $-1 $521 $48 $-1 $522 reversed single #
loop $-1 $-1 $217 $211 #
plane-surface $-1 0 0 7.9083424753935914 0 0 1 1 0 0 forward_v I I I I #
coedge $-1 $523 $524 $525 $526 reversed $212 $-1 #
coedge $-1 $527 $214 $216 $358 forward $133 $-1 #
coedge $-1 $214 $527 $523 $528 forward $133 $-1 #
coedge $-1 $525 $217 $214 $355 forward $349 $-1 #
edge $-1 $361 5.1486190373552532 $529 22.165534975320277 $354 $530 forward 7 unknown #
coedge $-1 $531 $532 $215 $357 forward $521 $-1 #
edge $-1 $533 -33.611495112682647 $360 -28.467175445479075 $356 $534 forward 7 unknown #
edge $-1 $361 -8.1744047650225653 $533 0 $216 $535 forward 7 unknown #
coedge $-1 $217 $525 $531 $536 forward $349 $-1 #
vertex $-1 $357 $537 #
vertex $-1 $218 $538 #
straight-curve $-1 -18.805696043693018 -42.572738596551268 7.9083424753935887 0 1 0 I I #
coedge $-1 $363 $363 $-1 $539 reversed $221 $-1 #
edge $-1 $540 0 $540 6.2831853071796004 $222 $541 forward 7 unknown #
vertex $-1 $225 $542 #
ellipse-curve $-1 -32.419228794065035 -25.2947575429104 5.3361826417918055 0 -0.62932039886446345 0.77714595512881146 1 0 0 1 I I #
coedge $-1 $367 $367 $-1 $543 reversed $228 $-1 #
edge $-1 $544 0 $544 6.2831853071796004 $229 $545 forward 7 unknown #
vertex $-1 $232 $546 #
ellipse-curve $-1 -27.31415401267553 -25.2947575429104 5.3361826417918055 0 -0.62932039886446345 0.77714595512881146 1 0 0 1 I I #
coedge $-1 $371 $371 $-1 $547 reversed $235 $-1 #
edge $-1 $548 0 $548 6.2831853071796004 $236 $549 forward 7 unknown #
vertex $-1 $239 $550 #
ellipse-curve $-1 -22.209079231286022 -25.2947575429104 5.3361826417918055 0 -0.62932039886446345 0.77714595512881146 1 0 0 1 I I #
face $-1 $-1 $387 $52 $-1 $551 forward single #
loop $-1 $-1 $552 $240 #
plane-surface $-1 0 28.471110342271885 0 0 -1 0 0 0 -1 forward_v I I I I #
coedge $-1 $553 $554 $555 $556 reversed $241 $-1 #
coedge $-1 $557 $243 $245 $385 forward $152 $-1 #
coedge $-1 $243 $557 $553 $558 forward $152 $-1 #
coedge $-1 $555 $246 $243 $382 forward $387 $-1 #
edge $-1 $389 -18.650216839409843 $559 -11.102618688862925 $381 $560 forward 7 unknown #
coedge $-1 $561 $562 $244 $384 forward $376 $-1 #
edge $-1 $563 -49.845566833222563 $388 -46.582676088134029 $383 $564 forward 7 unknown #
edge $-1 $389 52.245105029548085 $563 56.94222068454377 $245 $565 forward 7 unknown #
coedge $-1 $246 $555 $561 $566 forward $387 $-1 #
loop $-1 $-1 $555 $375 #
vertex $-1 $384 $567 #
vertex $-1 $247 $568 #
straight-curve $-1 -33.526634603546228 25.034389547302609 7.9083424753935887 0 -1 0 I I #
coedge $-1 $391 $391 $-1 $569 reversed $250 $-1 #
edge $-1 $570 0 $570 6.2831853071796004 $251 $571 forward 7 unknown #
vertex $-1 $254 $572 #
ellipse-curve $-1 -29.752835528272765 26.781699242064093 6.2768971028493254 0 0.69465837861970381 0.71933979245794832 0.5 0 0 1 I I #
face $-1 $-1 $573 $54 $-1 $574 reversed single #
loop $-1 $-1 $261 $255 #
plane-surface $-1 0 0 7.9083424753935914 0 0 1 1 0 0 forward_v I I I I #
coedge $-1 $575 $576 $577 $578 reversed $256 $-1 #
coedge $-1 $579 $258 $260 $405 forward $161 $-1 #
coedge $-1 $258 $579 $575 $580 forward $161 $-1 #
coedge $-1 $577 $261 $258 $402 forward $396 $-1 #
edge $-1 $408 -8.7326049966522508 $581 -1.1850068461053365 $401 $582 forward 7 unknown #
coedge $-1 $583 $584 $259 $404 forward $573 $-1 #
edge $-1 $585 -49.845566833222563 $407 -46.582676088134029 $403 $586 forward 7 unknown #
edge $-1 $408 52.245105029548085 $585 56.94222068454377 $260 $587 forward 7 unknown #
coedge $-1 $261 $577 $583 $588 forward $396 $-1 #
vertex $-1 $262 $589 #
vertex $-1 $262 $590 #
straight-curve $-1 -13.691410918031044 25.034389547302609 7.9083424753935887 0 -1 0 I I #
coedge $-1 $410 $410 $-1 $591 reversed $265 $-1 #
edge $-1 $592 0 $592 6.2831853071796004 $266 $593 forward 7 unknown #
vertex $-1 $269 $594 #
ellipse-curve $-1 -9.9176118427575872 26.781699242064093 6.2768971028493254 0 0.69465837861970381 0.71933979245794832 0.5 0 0 1 I I #
face $-1 $-1 $595 $56 $-1 $596 reversed single #
loop $-1 $-1 $276 $270 #
plane-surface $-1 0 0 7.9083424753935914 0 0 1 1 0 0 forward_v I I I I #
coedge $-1 $597 $598 $599 $600 reversed $271 $-1 #
coedge $-1 $601 $273 $275 $424 forward $170 $-1 #
coedge $-1 $273 $601 $597 $602 forward $170 $-1 #
coedge $-1 $599 $276 $273 $421 forward $415 $-1 #
edge $-1 $427 1.18500684610534 $603 8.7326049966522543 $420 $604 forward 7 unknown #
coedge $-1 $605 $606 $274 $423 forward $595 $-1 #
edge $-1 $607 -49.845566833222563 $426 -46.582676088134029 $422 $608 forward 7 unknown #
edge $-1 $427 52.245105029548085 $607 56.94222068454377 $275 $609 forward 7 unknown #
coedge $-1 $276 $599 $605 $610 forward $415 $-1 #
vertex $-1 $277 $611 #
vertex $-1 $277 $612 #
straight-curve $-1 6.1438127674841372 25.034389547302609 7.9083424753935887 0 -1 0 I I #
coedge $-1 $429 $429 $-1 $613 reversed $280 $-1 #
edge $-1 $614 0 $614 6.2831853071796004 $281 $615 forward 7 unknown #
vertex $-1 $284 $616 #
ellipse-curve $-1 9.9176118427575943 26.781699242064093 6.2768971028493254 0 0.69465837861970381 0.71933979245794832 0.5 0 0 1 I I #
face $-1 $-1 $617 $58 $-1 $618 reversed single #
loop $-1 $-1 $291 $285 #
plane-surface $-1 0 0 7.9083424753935914 0 0 1 1 0 0 forward_v I I I I #
coedge $-1 $619 $620 $621 $622 reversed $286 $-1 #
coedge $-1 $623 $288 $290 $443 forward $179 $-1 #
coedge $-1 $288 $623 $619 $624 forward $179 $-1 #
coedge $-1 $621 $291 $288 $440 forward $434 $-1 #
edge $-1 $446 11.102618688862925 $625 18.650216839409843 $439 $626 forward 7 unknown #
coedge $-1 $627 $628 $289 $442 forward $617 $-1 #
edge $-1 $629 -49.845566833222563 $445 -46.582676088134029 $441 $630 forward 7 unknown #
edge $-1 $446 52.245105029548085 $629 56.94222068454377 $290 $631 forward 7 unknown #
coedge $-1 $291 $621 $627 $632 forward $434 $-1 #
vertex $-1 $292 $633 #
vertex $-1 $292 $634 #
straight-curve $-1 25.97903645299931 25.034389547302609 7.9083424753935887 0 -1 0 I I #
coedge $-1 $448 $448 $-1 $635 reversed $295 $-1 #
edge $-1 $636 0 $636 6.2831853071796004 $296 $637 forward 7 unknown #
vertex $-1 $299 $638 #
ellipse-curve $-1 29.752835528272769 26.781699242064093 6.2768971028493254 0 0.69465837861970381 0.71933979245794832 0.5 0 0 1 I I #
face $-1 $-1 $315 $45 $-1 $639 reversed single #
loop $-1 $-1 $468 $300 #
plane-surface $-1 0 28.471110342271885 0 0 -1 0 0 0 -1 forward_v I I I I #
coedge $-1 $640 $466 $469 $641 forward $301 $-1 #
coedge $-1 $472 $303 $304 $460 reversed $188 $-1 #
coedge $-1 $466 $640 $303 $458 reversed $301 $-1 #
edge $-1 $473 -7.9083424753935914 $642 7.9083424753935914 $457 $643 forward 7 unknown #
coedge $-1 $305 $304 $640 $644 forward $121 $-1 #
edge $-1 $464 -45.028229621265297 $642 45.028229621265297 $456 $645 forward 7 unknown #
coedge $-1 $469 $468 $305 $462 reversed $453 $-1 #
edge $-1 $646 -45.028229621265297 $463 45.028229621265297 $461 $647 forward 7 unknown #
vertex $-1 $307 $648 #
vertex $-1 $475 $649 #
straight-curve $-1 45.028229621265297 0 -7.9083424753935914 0 -1 0 I I #
coedge $-1 $455 $457 $308 $467 reversed $301 $-1 #
edge $-1 $470 -28.471110342271885 $473 28.471110342271885 $466 $650 forward 7 unknown #
coedge $-1 $461 $309 $314 $476 forward $453 $-1 #
coedge $-1 $309 $461 $455 $641 reversed $453 $-1 #
vertex $-1 $310 $651 #
straight-curve $-1 0 28.471110342271885 7.9083424753935914 -1 0 0 I I #
coedge $-1 $311 $456 $313 $475 reversed $188 $-1 #
vertex $-1 $467 $652 #
straight-curve $-1 0 -28.471110342271885 7.9083424753935914 1 0 0 I I #
edge $-1 $316 -7.9083424753935914 $464 7.9083424753935914 $313 $653 forward 7 unknown #
edge $-1 $317 -7.9083424753935914 $463 7.9083424753935914 $314 $654 forward 7 unknown #
point $-1 45.028229621265297 -28.471110342271885 7.9083424753935914 #
point $-1 45.028229621265297 28.471110342271885 7.9083424753935914 #
face $-1 $-1 $492 $46 $-1 $655 reversed single #
loop $-1 $-1 $656 $319 #
plane-surface $-1 -54.233847260872551 0 -4.2136215897810274 1 0 0 0 0 -1 forward_v I I I I #
coedge $-1 $657 $484 $325 $489 reversed $320 $-1 #
coedge $-1 $323 $322 $656 $658 reversed $125 $-1 #
coedge $-1 $482 $659 $322 $485 forward $320 $-1 #
edge $-1 $660 -4.6028088198036272 $487 4.6028088198036272 $322 $661 forward 7 unknown #
edge $-1 $330 -4.6028088198036272 $662 4.6028088198036272 $323 $663 forward 7 unknown #
vertex $-1 $324 $664 #
straight-curve $-1 -45.028229621265297 28.471110342271885 0 0 0 -1 I I #
edge $-1 $493 -28.471110342271885 $487 28.471110342271885 $482 $665 forward 7 unknown #
coedge $-1 $666 $326 $329 $496 reversed $492 $-1 #
coedge $-1 $326 $666 $657 $667 reversed $492 $-1 #
loop $-1 $-1 $326 $479 #
vertex $-1 $327 $668 #
straight-curve $-1 -45.028229621265297 -28.471110342271885 0 0 0 1 I I #
coedge $-1 $329 $328 $669 $670 forward $196 $-1 #
edge $-1 $671 -4.6028088198036272 $331 4.6028088198036272 $490 $672 forward 7 unknown #
point $-1 -45.028229621265297 28.471110342271885 -2.7136215897810274 #
point $-1 -45.028229621265297 -28.471110342271885 -2.7136215897810274 #
face $-1 $-1 $515 $47 $-1 $673 reversed single #
loop $-1 $-1 $674 $333 #
plane-surface $-1 54.233847260872551 0 -4.2136215897810274 -1 0 0 0 0 1 forward_v I I I I #
coedge $-1 $506 $675 $676 $677 forward $334 $-1 #
coedge $-1 $674 $678 $336 $504 reversed $500 $-1 #
edge $-1 $679 -28.471110342271885 $680 28.471110342271885 $503 $681 forward 7 unknown #
coedge $-1 $338 $337 $674 $682 reversed $129 $-1 #
coedge $-1 $511 $502 $337 $507 forward $334 $-1 #
edge $-1 $683 -4.6028088198036272 $509 4.6028088198036272 $337 $684 forward 7 unknown #
edge $-1 $345 -4.6028088198036272 $679 4.6028088198036272 $338 $685 forward 7 unknown #
vertex $-1 $339 $686 #
straight-curve $-1 45.028229621265297 -28.471110342271885 0 0 0 -1 I I #
coedge $-1 $675 $506 $340 $512 reversed $334 $-1 #
edge $-1 $516 -28.471110342271885 $509 28.471110342271885 $511 $687 forward 7 unknown #
coedge $-1 $688 $341 $344 $518 reversed $515 $-1 #
coedge $-1 $341 $688 $675 $689 reversed $515 $-1 #
loop $-1 $-1 $341 $499 #
vertex $-1 $342 $690 #
straight-curve $-1 45.028229621265297 28.471110342271885 0 0 0 1 I I #
edge $-1 $680 -4.6028088198036272 $346 4.6028088198036272 $513 $691 forward 7 unknown #
point $-1 45.028229621265297 -28.471110342271885 -2.7136215897810274 #
point $-1 45.028229621265297 28.471110342271885 -2.7136215897810274 #
loop $-1 $-1 $356 $348 #
plane-surface $-1 0 -28.471110342271885 0 0 1 0 0 0 1 forward_v I I I I #
coedge $-1 $524 $351 $353 $528 reversed $212 $-1 #
coedge $-1 $351 $523 $692 $693 reversed $212 $-1 #
coedge $-1 $359 $354 $351 $526 forward $349 $-1 #
edge $-1 $529 -20.454333853002353 $694 -14.101628254279383 $525 $695 forward 7 unknown #
coedge $-1 $353 $352 $532 $696 reversed $133 $-1 #
edge $-1 $697 0 $529 8.1744047650225653 $523 $698 forward 7 unknown #
vertex $-1 $355 $699 #
straight-curve $-1 -13.657077006337765 -22.118404743548918 7.9083424753935914 -1 0 0 I I #
coedge $-1 $692 $356 $359 $536 reversed $521 $-1 #
coedge $-1 $356 $692 $527 $696 forward $521 $-1 #
vertex $-1 $357 $700 #
straight-curve $-1 -18.805696043693018 -28.471110342271885 36.375517920872667 0 0 1 I I #
straight-curve $-1 -18.805696043693018 -28.471110342271885 2.7640228081900204 0 -0.77714595512881146 -0.62932039886446345 I I #
edge $-1 $694 -35.822611981658042 $360 -18.805696043693018 $531 $701 forward 7 unknown #
point $-1 -18.805696043693018 -28.471110342271885 7.9083424753935914 #
point $-1 -18.805696043693018 -22.118404743548915 7.9083424753935923 #
edge $-1 $702 1 $702 0 $363 $-1 forward 7 unknown #
vertex $-1 $364 $703 #
ellipse-curve $-1 -32.419228794065035 -23.086825709850999 2.6096139553828217 0 -0.62932039886446345 0.77714595512881146 1 0 0 1 I I #
point $-1 -31.419228794065035 -25.294757542910403 5.336182641791809 #
edge $-1 $704 1 $704 0 $367 $-1 forward 7 unknown #
vertex $-1 $368 $705 #
ellipse-curve $-1 -27.31415401267553 -23.086825709850999 2.6096139553828217 0 -0.62932039886446345 0.77714595512881146 1 0 0 1 I I #
point $-1 -26.31415401267553 -25.294757542910403 5.336182641791809 #
edge $-1 $706 1 $706 0 $371 $-1 forward 7 unknown #
vertex $-1 $372 $707 #
ellipse-curve $-1 -22.209079231286022 -23.086825709850999 2.6096139553828217 0 -0.62932039886446345 0.77714595512881146 1 0 0 1 I I #
point $-1 -21.209079231286022 -25.294757542910403 5.336182641791809 #
plane-surface $-1 0 0 7.9083424753935914 0 0 1 1 0 0 forward_v I I I I #
coedge $-1 $562 $561 $554 $708 forward $376 $-1 #
coedge $-1 $554 $378 $380 $558 reversed $241 $-1 #
coedge $-1 $378 $553 $552 $708 reversed $241 $-1 #
coedge $-1 $386 $381 $378 $556 forward $387 $-1 #
edge $-1 $559 0.057898594553698501 $709 3.4367207949692755 $555 $710 forward 7 unknown #
coedge $-1 $380 $379 $562 $711 reversed $152 $-1 #
edge $-1 $712 -56.94222068454377 $559 -52.245105029548085 $553 $713 forward 7 unknown #
vertex $-1 $382 $714 #
straight-curve $-1 -14.876417764136384 25.092288141856297 7.9083424753935923 1 0 0 I I #
coedge $-1 $552 $383 $386 $566 reversed $376 $-1 #
coedge $-1 $383 $552 $557 $711 forward $376 $-1 #
vertex $-1 $384 $715 #
straight-curve $-1 -33.526634603546228 28.471110342271885 54.491018563527618 0 0 1 I I #
straight-curve $-1 -33.526634603546228 -12.489694867042523 44.200842426035592 0 0.71933979245794832 -0.69465837861970381 I I #
edge $-1 $709 25.97903645299931 $388 33.526634603546228 $561 $716 forward 7 unknown #
point $-1 -33.526634603546228 28.471110342271885 7.9083424753935914 #
point $-1 -33.526634603546228 25.092288141856308 7.9083424753935887 #
edge $-1 $717 1 $717 0 $391 $-1 forward 7 unknown #
vertex $-1 $392 $718 #
ellipse-curve $-1 -29.752835528272765 26.042817792128719 5.5117629805147619 0 0.69465837861970381 0.71933979245794832 0.5 0 0 1 I I #
point $-1 -29.252835528272765 26.781699242064096 6.2768971028493317 #
loop $-1 $-1 $403 $395 #
plane-surface $-1 0 28.471110342271885 0 0 -1 0 0 0 -1 forward_v I I I I #
coedge $-1 $576 $398 $400 $580 reversed $256 $-1 #
coedge $-1 $398 $575 $719 $720 reversed $256 $-1 #
coedge $-1 $406 $401 $398 $578 forward $396 $-1 #
edge $-1 $581 0.057898594553698501 $721 3.4367207949692755 $577 $722 forward 7 unknown #
coedge $-1 $400 $399 $584 $723 reversed $161 $-1 #
edge $-1 $724 -56.94222068454377 $581 -52.245105029548085 $575 $725 forward 7 unknown #
vertex $-1 $402 $726 #
straight-curve $-1 -4.9588059213787936 25.092288141856297 7.9083424753935923 1 0 0 I I #
coedge $-1 $719 $403 $406 $588 reversed $573 $-1 #
coedge $-1 $403 $719 $579 $723 forward $573 $-1 #
vertex $-1 $404 $727 #
straight-curve $-1 -13.691410918031044 28.471110342271885 54.491018563527618 0 0 1 I I #
straight-curve $-1 -13.691410918031044 -12.489694867042523 44.200842426035592 0 0.71933979245794832 -0.69465837861970381 I I #
edge $-1 $721 6.1438127674841301 $407 13.691410918031044 $583 $728 forward 7 unknown #
point $-1 -13.691410918031044 28.471110342271885 7.9083424753935914 #
point $-1 -13.691410918031044 25.092288141856308 7.9083424753935887 #
edge $-1 $729 1 $729 0 $410 $-1 forward 7 unknown #
vertex $-1 $411 $730 #
ellipse-curve $-1 -9.9176118427575872 26.042817792128719 5.5117629805147619 0 0.69465837861970381 0.71933979245794832 0.5 0 0 1 I I #
point $-1 -9.4176118427575872 26.781699242064096 6.2768971028493317 #
loop $-1 $-1 $422 $414 #
plane-surface $-1 0 28.471110342271885 0 0 -1 0 0 0 -1 forward_v I I I I #
coedge $-1 $598 $417 $419 $602 reversed $271 $-1 #
coedge $-1 $417 $597 $731 $732 reversed $271 $-1 #
coedge $-1 $425 $420 $417 $600 forward $415 $-1 #
edge $-1 $603 0.057898594553698501 $733 3.4367207949692755 $599 $734 forward 7 unknown #
coedge $-1 $419 $418 $606 $735 reversed $170 $-1 #
edge $-1 $736 -56.94222068454377 $603 -52.245105029548085 $597 $737 forward 7 unknown #
vertex $-1 $421 $738 #
straight-curve $-1 4.9588059213787972 25.092288141856297 7.9083424753935923 1 0 0 I I #
coedge $-1 $731 $422 $425 $610 reversed $595 $-1 #
coedge $-1 $422 $731 $601 $735 forward $595 $-1 #
vertex $-1 $423 $739 #
straight-curve $-1 6.1438127674841372 28.471110342271885 54.491018563527618 0 0 1 I I #
straight-curve $-1 6.1438127674841372 -12.489694867042523 44.200842426035592 0 0.71933979245794832 -0.69465837861970381 I I #
edge $-1 $733 -13.691410918031051 $426 -6.1438127674841372 $605 $740 forward 7 unknown #
point $-1 6.1438127674841372 28.471110342271885 7.9083424753935914 #
point $-1 6.1438127674841372 25.092288141856308 7.9083424753935887 #
edge $-1 $741 1 $741 0 $429 $-1 forward 7 unknown #
vertex $-1 $430 $742 #
ellipse-curve $-1 9.9176118427575943 26.042817792128719 5.5117629805147619 0 0.69465837861970381 0.71933979245794832 0.5 0 0 1 I I #
point $-1 10.417611842757594 26.781699242064096 6.2768971028493317 #
loop $-1 $-1 $441 $433 #
plane-surface $-1 0 28.471110342271885 0 0 -1 0 0 0 -1 forward_v I I I I #
coedge $-1 $620 $436 $438 $624 reversed $286 $-1 #
coedge $-1 $436 $619 $743 $744 reversed $286 $-1 #
coedge $-1 $444 $439 $436 $622 forward $434 $-1 #
edge $-1 $625 0.057898594553698501 $745 3.4367207949692755 $621 $746 forward 7 unknown #
coedge $-1 $438 $437 $628 $747 reversed $179 $-1 #
edge $-1 $748 -56.94222068454377 $625 -52.245105029548085 $619 $749 forward 7 unknown #
vertex $-1 $440 $750 #
straight-curve $-1 14.876417764136384 25.092288141856297 7.9083424753935923 1 0 0 I I #
coedge $-1 $743 $441 $444 $632 reversed $617 $-1 #
coedge $-1 $441 $743 $623 $747 forward $617 $-1 #
vertex $-1 $442 $751 #
straight-curve $-1 25.97903645299931 28.471110342271885 54.491018563527618 0 0 1 I I #
straight-curve $-1 25.97903645299931 -12.489694867042523 44.200842426035592 0 0.71933979245794832 -0.69465837861970381 I I #
edge $-1 $745 -33.526634603546228 $445 -25.97903645299931 $627 $752 forward 7 unknown #
point $-1 25.97903645299931 28.471110342271885 7.9083424753935914 #
point $-1 25.97903645299931 25.092288141856308 7.9083424753935887 #
edge $-1 $753 1 $753 0 $448 $-1 forward 7 unknown #
vertex $-1 $449 $754 #
ellipse-curve $-1 29.752835528272769 26.042817792128719 5.5117629805147619 0 0.69465837861970381 0.71933979245794832 0.5 0 0 1 I I #
point $-1 30.252835528272769 26.781699242064096 6.2768971028493317 #
plane-surface $-1 45.028229621265297 0 0 -1 0 0 0 0 1 forward_v I I I I #
coedge $-1 $457 $455 $459 $644 reversed $301 $-1 #
edge $-1 $470 -7.9083424753935914 $646 7.9083424753935914 $469 $755 forward 7 unknown #
vertex $-1 $644 $756 #
straight-curve $-1 -45.028229621265297 -28.471110342271885 0 0 0 -1 I I #
edge $-1 $642 -28.471110342271885 $646 28.471110342271885 $640 $757 forward 7 unknown #
straight-curve $-1 0 -28.471110342271885 -7.9083424753935914 -1 0 0 I I #
vertex $-1 $462 $758 #
straight-curve $-1 0 28.471110342271885 -7.9083424753935914 1 0 0 I I #
point $-1 45.028229621265297 28.471110342271885 -7.9083424753935914 #
point $-1 45.028229621265297 -28.471110342271885 -7.9083424753935914 #
straight-curve $-1 -45.028229621265297 0 7.9083424753935914 0 -1 0 I I #
point $-1 -45.028229621265297 28.471110342271885 7.9083424753935914 #
point $-1 -45.028229621265297 -28.471110342271885 7.9083424753935914 #
straight-curve $-1 45.028229621265297 -28.471110342271885 0 0 0 -1 I I #
straight-curve $-1 45.028229621265297 28.471110342271885 0 0 0 -1 I I #
plane-surface $-1 0 -28.471110342271885 0 0 1 0 0 0 1 forward_v I I I I #
coedge $-1 $759 $669 $483 $658 forward $480 $-1 #
coedge $-1 $659 $482 $491 $667 forward $320 $-1 #
edge $-1 $662 -1.5 $660 1.5 $483 $760 forward 7 unknown #
coedge $-1 $484 $657 $759 $761 forward $320 $-1 #
vertex $-1 $485 $762 #
straight-curve $-1 -49.631038441068924 28.471110342271885 -5.7136215897810274 1 0 0 I I #
vertex $-1 $486 $763 #
straight-curve $-1 -49.631038441068924 28.471110342271885 -2.7136215897810274 -1 0 0 I I #
point $-1 -45.028229621265297 28.471110342271885 -5.7136215897810274 #
straight-curve $-1 -45.028229621265297 0 -5.7136215897810274 0 1 0 I I #
coedge $-1 $491 $490 $764 $765 forward $492 $-1 #
edge $-1 $493 -4.6028088198036272 $766 4.6028088198036272 $491 $767 forward 7 unknown #
point $-1 -45.028229621265297 -28.471110342271885 -5.7136215897810274 #
coedge $-1 $656 $764 $495 $670 reversed $480 $-1 #
edge $-1 $662 -28.471110342271885 $671 28.471110342271885 $669 $768 forward 7 unknown #
vertex $-1 $670 $769 #
straight-curve $-1 -49.631038441068924 -28.471110342271885 -2.7136215897810274 1 0 0 I I #
plane-surface $-1 0 28.471110342271885 0 0 -1 0 0 0 -1 forward_v I I I I #
coedge $-1 $676 $503 $505 $682 forward $500 $-1 #
coedge $-1 $502 $511 $514 $689 forward $334 $-1 #
coedge $-1 $678 $674 $502 $677 reversed $500 $-1 #
edge $-1 $770 -28.471110342271885 $683 28.471110342271885 $676 $771 forward 7 unknown #
coedge $-1 $503 $676 $688 $772 reversed $500 $-1 #
vertex $-1 $504 $773 #
vertex $-1 $504 $774 #
straight-curve $-1 54.233847260872551 0 -2.7136215897810274 0 1 0 I I #
edge $-1 $679 -1.5 $683 1.5 $674 $775 forward 7 unknown #
vertex $-1 $682 $776 #
straight-curve $-1 49.631038441068924 -28.471110342271885 -5.7136215897810274 -1 0 0 I I #
straight-curve $-1 49.631038441068924 -28.471110342271885 -2.7136215897810274 1 0 0 I I #
point $-1 45.028229621265297 -28.471110342271885 -5.7136215897810274 #
straight-curve $-1 45.028229621265297 0 -5.7136215897810274 0 -1 0 I I #
coedge $-1 $514 $513 $678 $772 forward $515 $-1 #
edge $-1 $516 -4.6028088198036272 $770 4.6028088198036272 $514 $777 forward 7 unknown #
point $-1 45.028229621265297 28.471110342271885 -5.7136215897810274 #
straight-curve $-1 49.631038441068924 28.471110342271885 -2.7136215897810274 -1 0 0 I I #
coedge $-1 $532 $531 $524 $693 forward $521 $-1 #
edge $-1 $694 28.467175445479075 $697 33.611495112682647 $692 $778 forward 7 unknown #
vertex $-1 $536 $779 #
straight-curve $-1 -35.822611981658042 -42.572738596551268 7.9083424753935887 0 -1 0 I I #
edge $-1 $697 -22.165534975320277 $533 -5.1486190373552532 $532 $780 forward 7 unknown #
vertex $-1 $696 $781 #
straight-curve $-1 -35.822611981658042 -28.471110342271885 2.7640228081900204 0 0.77714595512881146 0.62932039886446345 I I #
point $-1 -35.822611981658042 -22.118404743548915 7.9083424753935923 #
point $-1 -18.805696043693018 -28.471110342271885 2.7640228081900204 #
straight-curve $-1 0 -28.471110342271885 7.9083424753935914 1 0 0 I I #
vertex $-1 $539 $782 #
point $-1 -31.419228794065035 -23.086825709850999 2.6096139553828217 #
vertex $-1 $543 $783 #
point $-1 -26.31415401267553 -23.086825709850999 2.6096139553828217 #
vertex $-1 $547 $784 #
point $-1 -21.209079231286022 -23.086825709850999 2.6096139553828217 #
edge $-1 $709 46.582676088134029 $712 49.845566833222563 $552 $785 forward 7 unknown #
vertex $-1 $566 $786 #
straight-curve $-1 -25.97903645299931 25.034389547302609 7.9083424753935887 0 1 0 I I #
edge $-1 $712 11.102618688862925 $563 18.650216839409843 $562 $787 forward 7 unknown #
vertex $-1 $711 $788 #
straight-curve $-1 -25.97903645299931 -12.489694867042523 44.200842426035592 0 -0.71933979245794832 0.69465837861970381 I I #
point $-1 -25.97903645299931 25.092288141856308 7.9083424753935887 #
point $-1 -33.526634603546228 28.471110342271885 4.6454517303050551 #
straight-curve $-1 0 28.471110342271885 7.9083424753935914 -1 0 0 I I #
vertex $-1 $569 $789 #
point $-1 -29.252835528272765 26.042817792128719 5.5117629805147619 #
coedge $-1 $584 $583 $576 $720 forward $573 $-1 #
edge $-1 $721 46.582676088134029 $724 49.845566833222563 $719 $790 forward 7 unknown #
vertex $-1 $588 $791 #
straight-curve $-1 -6.1438127674841301 25.034389547302609 7.9083424753935887 0 1 0 I I #
edge $-1 $724 1.1850068461053365 $585 8.7326049966522508 $584 $792 forward 7 unknown #
vertex $-1 $723 $793 #
straight-curve $-1 -6.1438127674841301 -12.489694867042523 44.200842426035592 0 -0.71933979245794832 0.69465837861970381 I I #
point $-1 -6.1438127674841301 25.092288141856308 7.9083424753935887 #
point $-1 -13.691410918031044 28.471110342271885 4.6454517303050551 #
straight-curve $-1 0 28.471110342271885 7.9083424753935914 -1 0 0 I I #
vertex $-1 $591 $794 #
point $-1 -9.4176118427575872 26.042817792128719 5.5117629805147619 #
coedge $-1 $606 $605 $598 $732 forward $595 $-1 #
edge $-1 $733 46.582676088134029 $736 49.845566833222563 $731 $795 forward 7 unknown #
vertex $-1 $610 $796 #
straight-curve $-1 13.691410918031051 25.034389547302609 7.9083424753935887 0 1 0 I I #
edge $-1 $736 -8.7326049966522543 $607 -1.18500684610534 $606 $797 forward 7 unknown #
vertex $-1 $735 $798 #
straight-curve $-1 13.691410918031051 -12.489694867042523 44.200842426035592 0 -0.71933979245794832 0.69465837861970381 I I #
point $-1 13.691410918031051 25.092288141856308 7.9083424753935887 #
point $-1 6.1438127674841372 28.471110342271885 4.6454517303050551 #
straight-curve $-1 0 28.471110342271885 7.9083424753935914 -1 0 0 I I #
vertex $-1 $613 $799 #
point $-1 10.417611842757594 26.042817792128719 5.5117629805147619 #
coedge $-1 $628 $627 $620 $744 forward $617 $-1 #
edge $-1 $745 46.582676088134029 $748 49.845566833222563 $743 $800 forward 7 unknown #
vertex $-1 $632 $801 #
straight-curve $-1 33.526634603546228 25.034389547302609 7.9083424753935887 0 1 0 I I #
edge $-1 $748 -18.650216839409843 $629 -11.102618688862925 $628 $802 forward 7 unknown #
vertex $-1 $747 $803 #
straight-curve $-1 33.526634603546228 -12.489694867042523 44.200842426035592 0 -0.71933979245794832 0.69465837861970381 I I #
point $-1 33.526634603546228 25.092288141856308 7.9083424753935887 #
point $-1 25.97903645299931 28.471110342271885 4.6454517303050551 #
straight-curve $-1 0 28.471110342271885 7.9083424753935914 -1 0 0 I I #
vertex $-1 $635 $804 #
point $-1 30.252835528272769 26.042817792128719 5.5117629805147619 #
straight-curve $-1 -45.028229621265297 28.471110342271885 0 0 0 -1 I I #
point $-1 -45.028229621265297 -28.471110342271885 -7.9083424753935914 #
straight-curve $-1 -45.028229621265297 0 -7.9083424753935914 0 1 0 I I #
point $-1 -45.028229621265297 28.471110342271885 -7.9083424753935914 #
coedge $-1 $764 $656 $659 $761 reversed $480 $-1 #
straight-curve $-1 -54.233847260872551 28.471110342271885 -4.2136215897810274 0 0 -1 I I #
edge $-1 $766 -28.471110342271885 $660 28.471110342271885 $759 $805 forward 7 unknown #
point $-1 -54.233847260872551 28.471110342271885 -5.7136215897810274 #
point $-1 -54.233847260872551 28.471110342271885 -2.7136215897810274 #
coedge $-1 $669 $759 $666 $765 reversed $480 $-1 #
edge $-1 $671 -1.5 $766 1.5 $764 $806 forward 7 unknown #
vertex $-1 $761 $807 #
straight-curve $-1 -49.631038441068924 -28.471110342271885 -5.7136215897810274 -1 0 0 I I #
straight-curve $-1 -54.233847260872551 0 -2.7136215897810274 0 -1 0 I I #
point $-1 -54.233847260872551 -28.471110342271885 -2.7136215897810274 #
vertex $-1 $677 $808 #
straight-curve $-1 54.233847260872551 0 -5.7136215897810274 0 -1 0 I I #
edge $-1 $680 -1.5 $770 1.5 $678 $809 forward 7 unknown #
point $-1 54.233847260872551 -28.471110342271885 -2.7136215897810274 #
point $-1 54.233847260872551 28.471110342271885 -2.7136215897810274 #
straight-curve $-1 54.233847260872551 -28.471110342271885 -4.2136215897810274 0 0 -1 I I #
point $-1 54.233847260872551 -28.471110342271885 -5.7136215897810274 #
straight-curve $-1 49.631038441068924 28.471110342271885 -5.7136215897810274 1 0 0 I I #
straight-curve $-1 -35.822611981658042 -28.471110342271885 36.375517920872667 0 0 -1 I I #
point $-1 -35.822611981658042 -28.471110342271885 7.9083424753935914 #
straight-curve $-1 -13.657077006337765 -28.471110342271885 2.7640228081900213 1 0 0 I I #
point $-1 -35.822611981658042 -28.471110342271885 2.7640228081900204 #
point $-1 -32.419228794065035 -22.457505310986534 1.8324680002540101 #
point $-1 -27.31415401267553 -22.457505310986534 1.8324680002540101 #
point $-1 -22.209079231286022 -22.457505310986534 1.8324680002540101 #
straight-curve $-1 -25.97903645299931 28.471110342271885 54.491018563527618 0 0 -1 I I #
point $-1 -25.97903645299931 28.471110342271885 7.9083424753935914 #
straight-curve $-1 -14.876417764136384 28.471110342271885 4.6454517303050586 -1 0 0 I I #
point $-1 -25.97903645299931 28.471110342271885 4.6454517303050551 #
point $-1 -29.752835528272765 25.695488602818866 5.1520930842857879 #
straight-curve $-1 -6.1438127674841301 28.471110342271885 54.491018563527618 0 0 -1 I I #
point $-1 -6.1438127674841301 28.471110342271885 7.9083424753935914 #
straight-curve $-1 -4.9588059213787936 28.471110342271885 4.6454517303050586 -1 0 0 I I #
point $-1 -6.1438127674841301 28.471110342271885 4.6454517303050551 #
point $-1 -9.9176118427575872 25.695488602818866 5.1520930842857879 #
straight-curve $-1 13.691410918031051 28.471110342271885 54.491018563527618 0 0 -1 I I #
point $-1 13.691410918031051 28.471110342271885 7.9083424753935914 #
straight-curve $-1 4.9588059213787972 28.471110342271885 4.6454517303050586 -1 0 0 I I #
point $-1 13.691410918031051 28.471110342271885 4.6454517303050551 #
point $-1 9.9176118427575943 25.695488602818866 5.1520930842857879 #
straight-curve $-1 33.526634603546228 28.471110342271885 54.491018563527618 0 0 -1 I I #
point $-1 33.526634603546228 28.471110342271885 7.9083424753935914 #
straight-curve $-1 14.876417764136384 28.471110342271885 4.6454517303050586 -1 0 0 I I #
point $-1 33.526634603546228 28.471110342271885 4.6454517303050551 #
point $-1 29.752835528272769 25.695488602818866 5.1520930842857879 #
straight-curve $-1 -54.233847260872551 0 -5.7136215897810274 0 1 0 I I #
straight-curve $-1 -54.233847260872551 -28.471110342271885 -4.2136215897810274 0 0 -1 I I #
point $-1 -54.233847260872551 -28.471110342271885 -5.7136215897810274 #
point $-1 54.233847260872551 28.471110342271885 -5.7136215897810274 #
straight-curve $-1 54.233847260872551 28.471110342271885 -4.2136215897810274 0 0 -1 I I #
End-of-ACIS-data 