500 0 12 0           
7 Unknown 11 ACIS 5.0 NT 24 Fri Mar 26 15:45:17 1999 
-1 9.9999999999999995e-007 1e-010 
body $-1 $12 $-1 $13 #
body $-1 $14 $-1 $15 #
body $-1 $16 $-1 $17 #
body $-1 $18 $-1 $19 #
body $-1 $20 $-1 $21 #
body $-1 $22 $-1 $23 #
body $-1 $24 $-1 $25 #
body $-1 $26 $-1 $27 #
body $-1 $28 $-1 $29 #
body $-1 $30 $-1 $31 #
body $-1 $32 $-1 $33 #
body $-1 $34 $-1 $35 #
lump $-1 $-1 $36 $0 #
transform $-1 1 0 0 0 1 0 0 0 1 40.423596911526843 17.818606047283218 4.8592095112982161 1 rotate no_reflect no_shear #
lump $-1 $-1 $37 $1 #
transform $-1 1 0 0 0 1 0 0 0 1 40.423596911526843 17.818606047283218 4.8592095112982161 1 rotate no_reflect no_shear #
lump $-1 $-1 $38 $2 #
transform $-1 1 0 0 0 1 0 0 0 1 40.423596911526843 17.818606047283218 4.8592095112982161 1 rotate no_reflect no_shear #
lump $-1 $-1 $39 $3 #
transform $-1 1 0 0 0 1 0 0 0 1 40.423596911526843 17.818606047283218 4.8592095112982161 1 rotate no_reflect no_shear #
lump $-1 $-1 $40 $4 #
transform $-1 1 0 0 0 1 0 0 0 1 40.423596911526843 17.818606047283218 4.8592095112982161 1 rotate no_reflect no_shear #
lump $-1 $-1 $41 $5 #
transform $-1 1 0 0 0 1 0 0 0 1 40.423596911526843 17.818606047283218 4.8592095112982161 1 rotate no_reflect no_shear #
lump $-1 $-1 $42 $6 #
transform $-1 1 0 0 0 1 0 0 0 1 40.423596911526843 17.818606047283218 4.8592095112982161 1 rotate no_reflect no_shear #
lump $-1 $-1 $43 $7 #
transform $-1 1 0 0 0 1 0 0 0 1 40.423596911526843 17.818606047283218 4.8592095112982161 1 rotate no_reflect no_shear #
lump $-1 $-1 $44 $8 #
transform $-1 1 0 0 0 1 0 0 0 1 40.423596911526843 17.818606047283218 4.8592095112982161 1 rotate no_reflect no_shear #
lump $-1 $-1 $45 $9 #
transform $-1 1 0 0 0 1 0 0 0 1 40.423596911526843 17.818606047283218 4.8592095112982161 1 rotate no_reflect no_shear #
lump $-1 $-1 $46 $10 #
transform $-1 1 0 0 0 1 0 0 0 1 40.423596911526843 17.818606047283218 4.8592095112982161 1 rotate no_reflect no_shear #
lump $-1 $-1 $47 $11 #
transform $-1 1 0 0 0 1 0 0 0 1 40.423596911526843 17.818606047283218 4.8592095112982161 1 rotate no_reflect no_shear #
shell $-1 $-1 $-1 $48 $-1 $12 #
shell $-1 $-1 $-1 $49 $-1 $14 #
shell $-1 $-1 $-1 $50 $-1 $16 #
shell $-1 $-1 $-1 $51 $-1 $18 #
shell $-1 $-1 $-1 $52 $-1 $20 #
shell $-1 $-1 $-1 $53 $-1 $22 #
shell $-1 $-1 $-1 $54 $-1 $24 #
shell $-1 $-1 $-1 $55 $-1 $26 #
shell $-1 $-1 $-1 $56 $-1 $28 #
shell $-1 $-1 $-1 $57 $-1 $30 #
shell $-1 $-1 $-1 $58 $-1 $32 #
shell $-1 $-1 $-1 $59 $-1 $34 #
face $-1 $60 $61 $36 $-1 $62 reversed single #
face $-1 $63 $64 $37 $-1 $65 forward single #
face $-1 $66 $67 $38 $-1 $68 forward single #
face $-1 $69 $70 $39 $-1 $71 reversed single #
face $-1 $72 $73 $40 $-1 $74 forward single #
face $-1 $75 $76 $41 $-1 $77 reversed single #
face $-1 $78 $79 $42 $-1 $80 forward single #
face $-1 $81 $82 $43 $-1 $83 reversed single #
face $-1 $84 $85 $44 $-1 $86 forward single #
face $-1 $87 $88 $45 $-1 $89 reversed single #
face $-1 $90 $91 $46 $-1 $92 forward single #
face $-1 $93 $94 $47 $-1 $95 forward single #
face $-1 $96 $97 $36 $-1 $98 forward single #
loop $-1 $-1 $99 $48 #
plane-surface $-1 0 17.818606047283218 0 0 -1 0 0 0 -1 forward_v I I I I #
face $-1 $100 $101 $37 $-1 $102 forward single #
loop $-1 $-1 $103 $49 #
plane-surface $-1 0 -17.818606047283218 0 0 1 0 0 0 1 forward_v I I I I #
face $-1 $104 $105 $38 $-1 $106 reversed single #
loop $-1 $-1 $107 $50 #
plane-surface $-1 0 17.818606047283218 0 0 -1 0 0 0 -1 forward_v I I I I #
face $-1 $108 $109 $39 $-1 $110 reversed single #
loop $-1 $-1 $111 $51 #
plane-surface $-1 -94.520929387380818 -8.2740464013918604 61.27674808452376 0 1 0 -0.66913061440640931 0 0.74314481823134659 forward_v I I I I #
face $-1 $112 $113 $40 $-1 $114 forward single #
loop $-1 $115 $116 $52 #
cone-surface $-1 -38.005459827935191 -5.594683531436166 2.6012525184630508 0.66913061440640931 0 -0.74314481823134659 0.74314481823134659 0 0.66913061440640931 1 I I 0 1 1 forward I I I I #
face $-1 $117 $118 $41 $-1 $119 reversed single #
loop $-1 $-1 $120 $53 #
plane-surface $-1 -94.520929387380818 0.43833587201193946 61.27674808452376 0 1 0 -0.66913061440640931 0 0.74314481823134659 forward_v I I I I #
face $-1 $121 $122 $42 $-1 $123 forward single #
loop $-1 $124 $125 $54 #
cone-surface $-1 -38.005459827935191 3.117698741967633 2.6012525184630508 0.66913061440640931 0 -0.74314481823134659 0.74314481823134659 0 0.66913061440640931 1 I I 0 1 1 forward I I I I #
face $-1 $126 $127 $43 $-1 $128 reversed single #
loop $-1 $-1 $129 $55 #
plane-surface $-1 -94.520929387380818 9.1507181454157376 61.27674808452376 0 1 0 -0.66913061440640931 0 0.74314481823134659 forward_v I I I I #
face $-1 $130 $131 $44 $-1 $132 forward single #
loop $-1 $133 $134 $56 #
cone-surface $-1 -38.005459827935191 11.830081015371434 2.6012525184630508 0.66913061440640931 0 -0.74314481823134659 0.74314481823134659 0 0.66913061440640931 1 I I 0 1 1 forward I I I I #
face $-1 $135 $136 $45 $-1 $137 reversed single #
loop $-1 $-1 $138 $57 #
plane-surface $-1 50.388567482423966 -4.1808930944323812 115.14687258859445 0 -1 0 -0.7660444514056185 0 -0.64278759981090561 forward_v I I I I #
face $-1 $139 $140 $46 $-1 $141 forward single #
loop $-1 $142 $143 $58 #
cone-surface $-1 38.520189056734324 -9.5000429804694431 2.7275766355958333 -0.7660444514056185 0 -0.64278759981090561 0.3213937999054528 0 -0.38302222570280925 1 I I 0 1 0.5 forward I I I I #
face $-1 $144 $145 $47 $-1 $146 forward single #
loop $-1 $147 $148 $59 #
cone-surface $-1 38.520189056734324 -6.3085530488472052 2.7275766355958333 -0.7660444514056185 0 -0.64278759981090561 0.3213937999054528 0 -0.38302222570280925 1 I I 0 1 0.5 forward I I I I #
face $-1 $149 $150 $36 $-1 $151 reversed single #
loop $-1 $-1 $152 $60 #
plane-surface $-1 0 0 4.8592095112982161 0 0 1 1 0 0 forward_v I I I I #
coedge $-1 $153 $154 $155 $156 reversed $61 $-1 #
face $-1 $157 $158 $37 $-1 $159 reversed single #
loop $-1 $-1 $160 $63 #
plane-surface $-1 0 0 4.8592095112982161 0 0 1 1 0 0 forward_v I I I I #
coedge $-1 $161 $162 $163 $164 forward $64 $-1 #
face $-1 $165 $166 $38 $-1 $167 reversed single #
loop $-1 $-1 $168 $66 #
plane-surface $-1 0 0 -4.8592095112982161 0 0 1 1 0 0 forward_v I I I I #
coedge $-1 $169 $170 $171 $172 forward $67 $-1 #
face $-1 $173 $174 $39 $-1 $175 reversed single #
loop $-1 $-1 $176 $69 #
plane-surface $-1 -40.423596911526843 -5.5946835314361643 1.1955749263760822 -0.66913061440640931 0 0.74314481823134659 0.74314481823134659 0 0.66913061440640931 forward_v I I I I #
coedge $-1 $177 $178 $179 $180 reversed $70 $-1 #
face $-1 $-1 $181 $40 $-1 $182 forward single #
loop $-1 $183 $184 $72 #
cone-surface $-1 -37.287196602723341 -5.594683531436166 1.8035404089732854 0.66913061440640931 0 -0.74314481823134659 0.3715724091156733 0 0.33456530720320465 1 I I -0.70710678118654746 0.70710678118654746 0.5 forward I I I I #
loop $-1 $-1 $185 $52 #
coedge $-1 $116 $116 $186 $187 reversed $73 $-1 #
face $-1 $188 $189 $41 $-1 $190 reversed single #
loop $-1 $-1 $191 $75 #
plane-surface $-1 -40.423596911526843 3.1176987419676365 1.1955749263760822 -0.66913061440640931 0 0.74314481823134659 0.74314481823134659 0 0.66913061440640931 forward_v I I I I #
coedge $-1 $192 $193 $194 $195 reversed $76 $-1 #
face $-1 $-1 $196 $42 $-1 $197 forward single #
loop $-1 $198 $199 $78 #
cone-surface $-1 -37.287196602723341 3.117698741967633 1.8035404089732854 0.66913061440640931 0 -0.74314481823134659 0.3715724091156733 0 0.33456530720320465 1 I I -0.70710678118654746 0.70710678118654746 0.5 forward I I I I #
loop $-1 $-1 $200 $54 #
coedge $-1 $125 $125 $201 $202 reversed $79 $-1 #
face $-1 $203 $204 $43 $-1 $205 reversed single #
loop $-1 $-1 $206 $81 #
plane-surface $-1 -40.423596911526843 11.830081015371434 1.1955749263760822 -0.66913061440640931 0 0.74314481823134659 0.74314481823134659 0 0.66913061440640931 forward_v I I I I #
coedge $-1 $207 $208 $209 $210 reversed $82 $-1 #
face $-1 $-1 $211 $44 $-1 $212 forward single #
loop $-1 $213 $214 $84 #
cone-surface $-1 -37.287196602723341 11.830081015371434 1.8035404089732854 0.66913061440640931 0 -0.74314481823134659 0.3715724091156733 0 0.33456530720320465 1 I I -0.70710678118654746 0.70710678118654746 0.5 forward I I I I #
loop $-1 $-1 $215 $56 #
coedge $-1 $134 $134 $216 $217 reversed $85 $-1 #
face $-1 $218 $219 $45 $-1 $220 reversed single #
loop $-1 $-1 $221 $87 #
plane-surface $-1 -11.543976757440902 -7.904298014658325 63.179298919626696 0.7660444514056185 0 0.64278759981090561 0.64278759981090561 0 -0.7660444514056185 forward_v I I I I #
coedge $-1 $222 $223 $224 $225 reversed $88 $-1 #
face $-1 $-1 $226 $46 $-1 $227 forward single #
loop $-1 $228 $229 $90 #
cone-surface $-1 37.940874807803439 -9.5000429804694431 2.2414742757089261 -0.7660444514056185 0 -0.64278759981090561 0.1606968999527264 0 -0.19151111285140462 1 I I -0.70710678118654746 0.70710678118654746 0.25 forward I I I I #
loop $-1 $-1 $230 $58 #
coedge $-1 $143 $143 $231 $232 reversed $91 $-1 #
face $-1 $-1 $233 $47 $-1 $234 forward single #
loop $-1 $235 $236 $93 #
cone-surface $-1 37.940874807803439 -6.3085530488472052 2.2414742757089261 -0.7660444514056185 0 -0.64278759981090561 0.1606968999527264 0 -0.19151111285140462 1 I I -0.70710678118654746 0.70710678118654746 0.25 forward I I I I #
loop $-1 $-1 $237 $59 #
coedge $-1 $148 $148 $238 $239 reversed $94 $-1 #
face $-1 $240 $241 $36 $-1 $242 reversed single #
loop $-1 $-1 $243 $96 #
plane-surface $-1 0 0 -4.8592095112982161 0 0 1 1 0 0 forward_v I I I I #
coedge $-1 $244 $245 $246 $247 forward $97 $-1 #
coedge $-1 $248 $99 $249 $250 reversed $61 $-1 #
coedge $-1 $99 $248 $251 $252 forward $61 $-1 #
coedge $-1 $243 $253 $99 $156 forward $150 $-1 #
edge $-1 $254 -40.423596911526843 $255 40.423596911526843 $99 $256 forward 7 unknown #
face $-1 $257 $258 $37 $-1 $259 reversed single #
loop $-1 $-1 $260 $100 #
plane-surface $-1 -40.423596911526843 0 0 1 0 0 0 0 -1 forward_v I I I I #
coedge $-1 $261 $262 $263 $264 forward $101 $-1 #
coedge $-1 $263 $103 $260 $265 reversed $64 $-1 #
coedge $-1 $103 $263 $266 $267 reversed $64 $-1 #
coedge $-1 $268 $269 $103 $164 reversed $258 $-1 #
edge $-1 $270 -40.423596911526843 $271 40.423596911526843 $163 $272 forward 7 unknown #
face $-1 $273 $274 $38 $-1 $275 reversed single #
loop $-1 $-1 $276 $104 #
plane-surface $-1 -33.705177888930407 19.473187128261266 0 1 0 0 0 0 -1 forward_v I I I I #
coedge $-1 $277 $278 $170 $279 forward $105 $-1 #
coedge $-1 $280 $107 $281 $282 reversed $67 $-1 #
coedge $-1 $107 $280 $168 $279 reversed $67 $-1 #
coedge $-1 $283 $284 $107 $172 reversed $285 $-1 #
edge $-1 $286 -4.8592095112982161 $287 4.8592095112982161 $171 $288 forward 7 unknown #
face $-1 $289 $290 $39 $-1 $291 forward single #
loop $-1 $-1 $292 $108 #
plane-surface $-1 -94.520929387380818 -2.9153206614804672 61.27674808452376 0 -1 0 0.66913061440640931 0 -0.74314481823134659 forward_v I I I I #
coedge $-1 $293 $294 $295 $296 reversed $109 $-1 #
coedge $-1 $178 $111 $297 $298 reversed $70 $-1 #
coedge $-1 $111 $177 $293 $299 reversed $70 $-1 #
coedge $-1 $295 $300 $111 $180 forward $290 $-1 #
edge $-1 $301 6.8368677821635657 $302 10.90574611332957 $179 $303 forward 7 unknown #
loop $-1 $-1 $186 $112 #
plane-surface $-1 -40.423596911526843 -5.5946835314361643 1.1955749263760822 -0.66913061440640931 0 0.74314481823134659 0.74314481823134659 0 0.66913061440640931 forward_v I I I I #
loop $-1 $-1 $304 $72 #
coedge $-1 $184 $184 $185 $305 reversed $113 $-1 #
coedge $-1 $185 $185 $184 $305 forward $115 $-1 #
coedge $-1 $186 $186 $116 $187 forward $181 $-1 #
edge $-1 $306 0 $306 6.2831853071796004 $186 $307 forward 7 unknown #
face $-1 $308 $309 $41 $-1 $310 forward single #
loop $-1 $-1 $311 $117 #
plane-surface $-1 -94.520929387380818 5.7970616119233336 61.27674808452376 0 -1 0 0.66913061440640931 0 -0.74314481823134659 forward_v I I I I #
coedge $-1 $312 $313 $314 $315 reversed $118 $-1 #
coedge $-1 $193 $120 $316 $317 reversed $76 $-1 #
coedge $-1 $120 $192 $312 $318 reversed $76 $-1 #
coedge $-1 $314 $319 $120 $195 forward $309 $-1 #
edge $-1 $320 6.8368677821635657 $321 10.90574611332957 $194 $322 forward 7 unknown #
loop $-1 $-1 $201 $121 #
plane-surface $-1 -40.423596911526843 3.1176987419676365 1.1955749263760822 -0.66913061440640931 0 0.74314481823134659 0.74314481823134659 0 0.66913061440640931 forward_v I I I I #
loop $-1 $-1 $323 $78 #
coedge $-1 $199 $199 $200 $324 reversed $122 $-1 #
coedge $-1 $200 $200 $199 $324 forward $124 $-1 #
coedge $-1 $201 $201 $125 $202 forward $196 $-1 #
edge $-1 $325 0 $325 6.2831853071796004 $201 $326 forward 7 unknown #
face $-1 $327 $328 $43 $-1 $329 forward single #
loop $-1 $-1 $330 $126 #
plane-surface $-1 -94.520929387380818 14.50944388532713 61.27674808452376 0 -1 0 0.66913061440640931 0 -0.74314481823134659 forward_v I I I I #
coedge $-1 $331 $332 $333 $334 reversed $127 $-1 #
coedge $-1 $208 $129 $335 $336 reversed $82 $-1 #
coedge $-1 $129 $207 $331 $337 reversed $82 $-1 #
coedge $-1 $333 $338 $129 $210 forward $328 $-1 #
edge $-1 $339 6.8368677821635657 $340 10.90574611332957 $209 $341 forward 7 unknown #
loop $-1 $-1 $216 $130 #
plane-surface $-1 -40.423596911526843 11.830081015371434 1.1955749263760822 -0.66913061440640931 0 0.74314481823134659 0.74314481823134659 0 0.66913061440640931 forward_v I I I I #
loop $-1 $-1 $342 $84 #
coedge $-1 $214 $214 $215 $343 reversed $131 $-1 #
coedge $-1 $215 $215 $214 $343 forward $133 $-1 #
coedge $-1 $216 $216 $134 $217 forward $211 $-1 #
edge $-1 $344 0 $344 6.2831853071796004 $216 $345 forward 7 unknown #
face $-1 $346 $347 $45 $-1 $348 reversed single #
loop $-1 $-1 $349 $135 #
plane-surface $-1 50.388567482423966 -11.627702934884269 115.14687258859445 0 1 0 0.7660444514056185 0 0.64278759981090561 forward_v I I I I #
coedge $-1 $350 $351 $352 $353 reversed $136 $-1 #
coedge $-1 $223 $138 $354 $355 reversed $88 $-1 #
coedge $-1 $138 $222 $350 $356 reversed $88 $-1 #
coedge $-1 $352 $357 $138 $225 forward $358 $-1 #
edge $-1 $359 -15.22931317031486 $360 -12.198103732888804 $224 $361 forward 7 unknown #
loop $-1 $-1 $231 $139 #
plane-surface $-1 -11.543976757440902 -7.904298014658325 63.179298919626696 0.7660444514056185 0 0.64278759981090561 0.64278759981090561 0 -0.7660444514056185 forward_v I I I I #
loop $-1 $-1 $362 $90 #
coedge $-1 $229 $229 $230 $363 reversed $140 $-1 #
coedge $-1 $230 $230 $229 $363 forward $142 $-1 #
coedge $-1 $231 $231 $143 $232 forward $226 $-1 #
edge $-1 $364 0 $364 6.2831853071796004 $231 $365 forward 7 unknown #
loop $-1 $-1 $238 $144 #
plane-surface $-1 -11.543976757440902 -7.904298014658325 63.179298919626696 0.7660444514056185 0 0.64278759981090561 0.64278759981090561 0 -0.7660444514056185 forward_v I I I I #
loop $-1 $-1 $366 $93 #
coedge $-1 $236 $236 $237 $367 reversed $145 $-1 #
coedge $-1 $237 $237 $236 $367 forward $147 $-1 #
coedge $-1 $238 $238 $148 $239 forward $233 $-1 #
edge $-1 $368 0 $368 6.2831853071796004 $238 $369 forward 7 unknown #
face $-1 $370 $371 $36 $-1 $372 reversed single #
loop $-1 $-1 $373 $149 #
plane-surface $-1 0 -17.818606047283218 0 0 1 0 0 0 1 forward_v I I I I #
coedge $-1 $374 $155 $375 $376 forward $150 $-1 #
coedge $-1 $377 $152 $248 $378 forward $97 $-1 #
coedge $-1 $152 $377 $379 $380 forward $97 $-1 #
coedge $-1 $381 $251 $152 $247 reversed $382 $-1 #
edge $-1 $383 -17.818606047283218 $384 17.818606047283218 $246 $385 forward 7 unknown #
coedge $-1 $154 $153 $244 $378 reversed $61 $-1 #
coedge $-1 $386 $387 $153 $250 forward $371 $-1 #
edge $-1 $388 -4.8592095112982161 $254 4.8592095112982161 $153 $389 forward 7 unknown #
coedge $-1 $246 $375 $154 $252 reversed $382 $-1 #
edge $-1 $384 -4.8592095112982161 $255 4.8592095112982161 $251 $390 forward 7 unknown #
coedge $-1 $155 $374 $386 $391 forward $150 $-1 #
vertex $-1 $156 $392 #
vertex $-1 $376 $393 #
straight-curve $-1 0 17.818606047283218 -4.8592095112982161 1 0 0 I I #
face $-1 $394 $395 $37 $-1 $396 reversed single #
loop $-1 $-1 $268 $157 #
plane-surface $-1 0 -20.914057603482693 1.8592095112982161 0 0 1 1 0 0 forward_v I I I I #
coedge $-1 $397 $398 $161 $265 forward $158 $-1 #
coedge $-1 $399 $160 $398 $400 forward $101 $-1 #
coedge $-1 $160 $399 $401 $402 forward $101 $-1 #
coedge $-1 $162 $161 $160 $264 reversed $64 $-1 #
edge $-1 $403 -40.423596911526843 $404 40.423596911526843 $160 $405 forward 7 unknown #
edge $-1 $404 -4.8592095112982161 $271 -1.8592095112982161 $260 $406 forward 7 unknown #
coedge $-1 $401 $407 $162 $267 forward $408 $-1 #
edge $-1 $270 1.8592095112982161 $403 4.8592095112982161 $266 $409 forward 7 unknown #
coedge $-1 $410 $163 $407 $411 forward $258 $-1 #
coedge $-1 $163 $410 $397 $412 forward $258 $-1 #
vertex $-1 $267 $413 #
vertex $-1 $265 $414 #
straight-curve $-1 0 -17.818606047283218 1.8592095112982161 -1 0 0 I I #
face $-1 $415 $285 $38 $-1 $416 reversed single #
loop $-1 $-1 $417 $165 #
plane-surface $-1 -32.205177888930407 21.12776820923931 0 0 -1 0 0 0 -1 forward_v I I I I #
coedge $-1 $418 $419 $420 $421 forward $166 $-1 #
coedge $-1 $422 $168 $418 $423 forward $105 $-1 #
coedge $-1 $168 $422 $283 $424 forward $105 $-1 #
edge $-1 $286 30.705177888930407 $425 33.705177888930407 $168 $426 forward 7 unknown #
coedge $-1 $170 $169 $427 $428 forward $67 $-1 #
coedge $-1 $429 $430 $169 $282 forward $431 $-1 #
edge $-1 $432 -33.705177888930407 $287 -30.705177888930407 $281 $433 forward 7 unknown #
coedge $-1 $434 $171 $278 $424 reversed $285 $-1 #
coedge $-1 $171 $434 $429 $435 reversed $285 $-1 #
loop $-1 $-1 $171 $273 #
vertex $-1 $279 $436 #
vertex $-1 $435 $437 #
straight-curve $-1 -30.705177888930407 17.818606047283218 0 0 0 1 I I #
face $-1 $-1 $438 $39 $-1 $439 reversed single #
loop $-1 $-1 $179 $173 #
plane-surface $-1 0 0 4.8592095112982161 0 0 1 1 0 0 forward_v I I I I #
coedge $-1 $440 $441 $442 $443 reversed $174 $-1 #
coedge $-1 $444 $176 $178 $299 forward $109 $-1 #
coedge $-1 $176 $444 $440 $445 forward $109 $-1 #
coedge $-1 $442 $179 $176 $296 forward $290 $-1 #
edge $-1 $302 -5.4767046356737783 $446 -0.11797889576238507 $295 $447 forward 7 unknown #
coedge $-1 $448 $449 $177 $298 forward $438 $-1 #
edge $-1 $450 -29.442799115885798 $301 -25.779164530963662 $297 $451 forward 7 unknown #
edge $-1 $302 -5.4752159085893428 $450 0 $178 $452 forward 7 unknown #
coedge $-1 $179 $442 $448 $453 forward $290 $-1 #
vertex $-1 $298 $454 #
vertex $-1 $180 $455 #
straight-curve $-1 -47.260464693690409 -8.2740464013918604 4.8592095112982179 1 0 0 I I #
coedge $-1 $304 $304 $-1 $456 reversed $183 $-1 #
edge $-1 $457 0 $457 6.2831853071796004 $184 $458 forward 7 unknown #
vertex $-1 $187 $459 #
ellipse-curve $-1 -38.389157745943841 -5.594683531436166 3.0273922188371496 -0.66913061440640931 0 0.74314481823134659 0.74314481823134659 0 0.66913061440640931 1 I I #
face $-1 $-1 $460 $41 $-1 $461 reversed single #
loop $-1 $-1 $194 $188 #
plane-surface $-1 0 0 4.8592095112982161 0 0 1 1 0 0 forward_v I I I I #
coedge $-1 $462 $463 $464 $465 reversed $189 $-1 #
coedge $-1 $466 $191 $193 $318 forward $118 $-1 #
coedge $-1 $191 $466 $462 $467 forward $118 $-1 #
coedge $-1 $464 $194 $191 $315 forward $309 $-1 #
edge $-1 $321 -1.1205134989718788 $468 4.2382122409395153 $314 $469 forward 7 unknown #
coedge $-1 $470 $471 $192 $317 forward $460 $-1 #
edge $-1 $472 -29.442799115885798 $320 -25.779164530963662 $316 $473 forward 7 unknown #
edge $-1 $321 -5.4752159085893428 $472 0 $193 $474 forward 7 unknown #
coedge $-1 $194 $464 $470 $475 forward $309 $-1 #
vertex $-1 $195 $476 #
vertex $-1 $195 $477 #
straight-curve $-1 -47.260464693690409 0.43833587201193946 4.8592095112982179 1 0 0 I I #
coedge $-1 $323 $323 $-1 $478 reversed $198 $-1 #
edge $-1 $479 0 $479 6.2831853071796004 $199 $480 forward 7 unknown #
vertex $-1 $202 $481 #
ellipse-curve $-1 -38.389157745943841 3.117698741967633 3.0273922188371496 -0.66913061440640931 0 0.74314481823134659 0.74314481823134659 0 0.66913061440640931 1 I I #
face $-1 $-1 $482 $43 $-1 $483 reversed single #
loop $-1 $-1 $209 $203 #
plane-surface $-1 0 0 4.8592095112982161 0 0 1 1 0 0 forward_v I I I I #
coedge $-1 $484 $485 $486 $487 reversed $204 $-1 #
coedge $-1 $488 $206 $208 $337 forward $127 $-1 #
coedge $-1 $206 $488 $484 $489 forward $127 $-1 #
coedge $-1 $486 $209 $206 $334 forward $328 $-1 #
edge $-1 $340 3.2356776377300207 $490 8.594403377641413 $333 $491 forward 7 unknown #
coedge $-1 $492 $493 $207 $336 forward $482 $-1 #
edge $-1 $494 -29.442799115885798 $339 -25.779164530963662 $335 $495 forward 7 unknown #
edge $-1 $340 -5.4752159085893428 $494 0 $208 $496 forward 7 unknown #
coedge $-1 $209 $486 $492 $497 forward $328 $-1 #
vertex $-1 $210 $498 #
vertex $-1 $210 $499 #
straight-curve $-1 -47.260464693690409 9.1507181454157376 4.8592095112982179 1 0 0 I I #
coedge $-1 $342 $342 $-1 $500 reversed $213 $-1 #
edge $-1 $501 0 $501 6.2831853071796004 $214 $502 forward 7 unknown #
vertex $-1 $217 $503 #
ellipse-curve $-1 -38.389157745943841 11.830081015371434 3.0273922188371496 -0.66913061440640931 0 0.74314481823134659 0.74314481823134659 0 0.66913061440640931 1 I I #
face $-1 $-1 $358 $45 $-1 $504 forward single #
loop $-1 $-1 $505 $218 #
plane-surface $-1 40.423596911526843 0 0 -1 0 0 0 0 1 forward_v I I I I #
coedge $-1 $506 $507 $508 $509 reversed $219 $-1 #
coedge $-1 $510 $221 $223 $356 forward $136 $-1 #
coedge $-1 $221 $510 $506 $511 forward $136 $-1 #
coedge $-1 $508 $224 $221 $353 forward $358 $-1 #
edge $-1 $360 0.2287440871032187 $512 7.6755539275551063 $352 $513 forward 7 unknown #
coedge $-1 $514 $515 $222 $355 forward $347 $-1 #
edge $-1 $516 -56.326681614535381 $359 -52.714226782999006 $354 $517 forward 7 unknown #
edge $-1 $360 76.131469004594578 $516 80.847193823053701 $223 $518 forward 7 unknown #
coedge $-1 $224 $508 $514 $519 forward $358 $-1 #
loop $-1 $-1 $508 $346 #
vertex $-1 $355 $520 #
vertex $-1 $225 $521 #
straight-curve $-1 25.194283741211983 -4.1808930944323812 4.8592095112982179 -1 0 0 I I #
coedge $-1 $362 $362 $-1 $522 reversed $228 $-1 #
edge $-1 $523 0 $523 6.2831853071796004 $229 $524 forward 7 unknown #
vertex $-1 $232 $525 #
ellipse-curve $-1 38.907992192813815 -9.5000429804694431 3.0529820955300231 0.7660444514056185 0 0.64278759981090561 0.3213937999054528 0 -0.38302222570280925 1 I I #
coedge $-1 $366 $366 $-1 $526 reversed $235 $-1 #
edge $-1 $527 0 $527 6.2831853071796004 $236 $528 forward 7 unknown #
vertex $-1 $239 $529 #
ellipse-curve $-1 38.907992192813815 -6.3085530488472052 3.0529820955300231 0.7660444514056185 0 0.64278759981090561 0.3213937999054528 0 -0.38302222570280925 1 I I #
face $-1 $-1 $382 $36 $-1 $530 reversed single #
loop $-1 $-1 $249 $240 #
plane-surface $-1 -40.423596911526843 0 0 1 0 0 0 0 -1 forward_v I I I I #
coedge $-1 $531 $379 $532 $533 forward $241 $-1 #
coedge $-1 $253 $243 $531 $534 forward $150 $-1 #
coedge $-1 $251 $381 $243 $376 reversed $382 $-1 #
edge $-1 $255 -17.818606047283218 $535 17.818606047283218 $375 $536 forward 7 unknown #
coedge $-1 $245 $244 $387 $537 forward $97 $-1 #
edge $-1 $384 -40.423596911526843 $388 40.423596911526843 $248 $538 forward 7 unknown #
coedge $-1 $373 $539 $245 $380 reversed $241 $-1 #
edge $-1 $540 -40.423596911526843 $383 40.423596911526843 $379 $541 forward 7 unknown #
coedge $-1 $375 $246 $539 $542 forward $382 $-1 #
loop $-1 $-1 $381 $370 #
vertex $-1 $247 $543 #
vertex $-1 $247 $544 #
straight-curve $-1 40.423596911526843 0 4.8592095112982161 0 1 0 I I #
coedge $-1 $532 $249 $253 $391 reversed $371 $-1 #
coedge $-1 $249 $532 $377 $537 reversed $371 $-1 #
vertex $-1 $378 $545 #
straight-curve $-1 -40.423596911526843 17.818606047283218 0 0 0 -1 I I #
straight-curve $-1 40.423596911526843 17.818606047283218 0 0 0 -1 I I #
edge $-1 $546 -17.818606047283218 $254 17.818606047283218 $386 $547 forward 7 unknown #
point $-1 -40.423596911526843 17.818606047283218 -4.8592095112982161 #
point $-1 40.423596911526843 17.818606047283218 -4.8592095112982161 #
face $-1 $-1 $408 $37 $-1 $548 reversed single #
loop $-1 $-1 $549 $257 #
plane-surface $-1 0 -24.009509159682167 3.3592095112982161 0 1 0 0 0 1 forward_v I I I I #
coedge $-1 $550 $260 $269 $412 reversed $158 $-1 #
coedge $-1 $260 $550 $261 $400 reversed $158 $-1 #
coedge $-1 $262 $261 $551 $552 forward $101 $-1 #
edge $-1 $404 17.818606047283218 $553 24.009509159682167 $398 $554 forward 7 unknown #
coedge $-1 $555 $266 $262 $402 reversed $408 $-1 #
edge $-1 $556 -24.009509159682167 $403 -17.818606047283218 $401 $557 forward 7 unknown #
vertex $-1 $267 $558 #
vertex $-1 $400 $559 #
straight-curve $-1 0 -17.818606047283218 4.8592095112982161 -1 0 0 I I #
straight-curve $-1 -40.423596911526843 -17.818606047283218 0 0 0 -1 I I #
coedge $-1 $266 $555 $268 $411 reversed $408 $-1 #
loop $-1 $-1 $266 $394 #
straight-curve $-1 40.423596911526843 -17.818606047283218 0 0 0 1 I I #
coedge $-1 $269 $268 $560 $561 forward $258 $-1 #
edge $-1 $270 -3.0954515561994747 $562 3.0954515561994747 $407 $563 forward 7 unknown #
edge $-1 $564 -3.0954515561994747 $271 3.0954515561994747 $397 $565 forward 7 unknown #
point $-1 40.423596911526843 -17.818606047283218 1.8592095112982161 #
point $-1 -40.423596911526843 -17.818606047283218 1.8592095112982161 #
face $-1 $-1 $431 $38 $-1 $566 forward single #
plane-surface $-1 -30.705177888930407 19.473187128261266 0 -1 0 0 0 0 1 forward_v I I I I #
coedge $-1 $567 $568 $434 $569 forward $274 $-1 #
coedge $-1 $427 $276 $277 $423 reversed $166 $-1 #
coedge $-1 $276 $427 $430 $570 reversed $166 $-1 #
coedge $-1 $568 $567 $276 $421 reversed $274 $-1 #
edge $-1 $571 -4.8592095112982161 $572 4.8592095112982161 $420 $573 forward 7 unknown #
coedge $-1 $278 $277 $567 $574 forward $105 $-1 #
edge $-1 $425 -1.6545810809780441 $572 1.6545810809780441 $418 $575 forward 7 unknown #
edge $-1 $576 -1.6545810809780441 $286 1.6545810809780441 $283 $577 forward 7 unknown #
vertex $-1 $423 $578 #
straight-curve $-1 0 17.818606047283218 -4.8592095112982161 -1 0 0 I I #
coedge $-1 $419 $418 $280 $428 reversed $166 $-1 #
edge $-1 $432 -4.8592095112982161 $425 4.8592095112982161 $427 $579 forward 7 unknown #
coedge $-1 $580 $281 $284 $435 forward $431 $-1 #
coedge $-1 $281 $580 $419 $570 forward $431 $-1 #
loop $-1 $-1 $281 $415 #
vertex $-1 $282 $581 #
straight-curve $-1 0 17.818606047283218 4.8592095112982161 1 0 0 I I #
coedge $-1 $284 $283 $417 $569 reversed $285 $-1 #
edge $-1 $287 -1.6545810809780441 $582 1.6545810809780441 $284 $583 forward 7 unknown #
point $-1 -30.705177888930407 17.818606047283222 -4.8592095112982161 #
point $-1 -30.705177888930407 17.818606047283222 4.8592095112982161 #
loop $-1 $-1 $297 $289 #
plane-surface $-1 -40.423596911526843 0 0 1 0 0 0 0 -1 forward_v I I I I #
coedge $-1 $441 $292 $294 $445 reversed $174 $-1 #
coedge $-1 $292 $440 $584 $585 reversed $174 $-1 #
coedge $-1 $300 $295 $292 $443 forward $290 $-1 #
edge $-1 $446 -10.90574611332957 $586 -6.8368677821635657 $442 $587 forward 7 unknown #
coedge $-1 $294 $293 $449 $588 reversed $109 $-1 #
edge $-1 $589 0 $446 5.4752159085893428 $440 $590 forward 7 unknown #
vertex $-1 $296 $591 #
straight-curve $-1 -36.354718580360846 -2.7973417657180821 4.8592095112982152 0 1 0 I I #
coedge $-1 $584 $297 $300 $453 reversed $438 $-1 #
coedge $-1 $297 $584 $444 $588 forward $438 $-1 #
vertex $-1 $298 $592 #
straight-curve $-1 -40.423596911526843 -8.2740464013918604 30.63837404226188 0 0 1 I I #
straight-curve $-1 -40.423596911526843 -8.2740464013918604 1.1955749263760822 -0.74314481823134659 0 -0.66913061440640931 I I #
edge $-1 $586 2.9153206614804672 $301 8.2740464013918604 $448 $593 forward 7 unknown #
point $-1 -40.423596911526843 -8.2740464013918604 4.8592095112982161 #
point $-1 -36.354718580360839 -8.2740464013918604 4.8592095112982161 #
edge $-1 $594 1 $594 0 $304 $-1 forward 7 unknown #
vertex $-1 $305 $595 #
ellipse-curve $-1 -37.621761909926548 -5.594683531436166 2.1751128180889587 -0.66913061440640931 0 0.74314481823134659 0.74314481823134659 0 0.66913061440640931 1 I I #
point $-1 -37.646012927712484 -5.594683531436166 3.6965228332435527 #
loop $-1 $-1 $316 $308 #
plane-surface $-1 -40.423596911526843 0 0 1 0 0 0 0 -1 forward_v I I I I #
coedge $-1 $463 $311 $313 $467 reversed $189 $-1 #
coedge $-1 $311 $462 $596 $597 reversed $189 $-1 #
coedge $-1 $319 $314 $311 $465 forward $309 $-1 #
edge $-1 $468 -10.90574611332957 $598 -6.8368677821635657 $464 $599 forward 7 unknown #
coedge $-1 $313 $312 $471 $600 reversed $118 $-1 #
edge $-1 $601 0 $468 5.4752159085893428 $462 $602 forward 7 unknown #
vertex $-1 $315 $603 #
straight-curve $-1 -36.354718580360846 1.5588493709838183 4.8592095112982152 0 1 0 I I #
coedge $-1 $596 $316 $319 $475 reversed $460 $-1 #
coedge $-1 $316 $596 $466 $600 forward $460 $-1 #
vertex $-1 $317 $604 #
straight-curve $-1 -40.423596911526843 0.43833587201193946 30.63837404226188 0 0 1 I I #
straight-curve $-1 -40.423596911526843 0.43833587201193946 1.1955749263760822 -0.74314481823134659 0 -0.66913061440640931 I I #
edge $-1 $598 -5.7970616119233336 $320 -0.43833587201193946 $470 $605 forward 7 unknown #
point $-1 -40.423596911526843 0.43833587201193946 4.8592095112982161 #
point $-1 -36.354718580360839 0.43833587201193946 4.8592095112982161 #
edge $-1 $606 1 $606 0 $323 $-1 forward 7 unknown #
vertex $-1 $324 $607 #
ellipse-curve $-1 -37.621761909926548 3.117698741967633 2.1751128180889587 -0.66913061440640931 0 0.74314481823134659 0.74314481823134659 0 0.66913061440640931 1 I I #
point $-1 -37.646012927712484 3.117698741967633 3.6965228332435527 #
loop $-1 $-1 $335 $327 #
plane-surface $-1 -40.423596911526843 0 0 1 0 0 0 0 -1 forward_v I I I I #
coedge $-1 $485 $330 $332 $489 reversed $204 $-1 #
coedge $-1 $330 $484 $608 $609 reversed $204 $-1 #
coedge $-1 $338 $333 $330 $487 forward $328 $-1 #
edge $-1 $490 -10.90574611332957 $610 -6.8368677821635657 $486 $611 forward 7 unknown #
coedge $-1 $332 $331 $493 $612 reversed $127 $-1 #
edge $-1 $613 0 $490 5.4752159085893428 $484 $614 forward 7 unknown #
vertex $-1 $334 $615 #
straight-curve $-1 -36.354718580360846 5.9150405076857169 4.8592095112982152 0 1 0 I I #
coedge $-1 $608 $335 $338 $497 reversed $482 $-1 #
coedge $-1 $335 $608 $488 $612 forward $482 $-1 #
vertex $-1 $336 $616 #
straight-curve $-1 -40.423596911526843 9.1507181454157376 30.63837404226188 0 0 1 I I #
straight-curve $-1 -40.423596911526843 9.1507181454157376 1.1955749263760822 -0.74314481823134659 0 -0.66913061440640931 I I #
edge $-1 $610 -14.50944388532713 $339 -9.1507181454157376 $492 $617 forward 7 unknown #
point $-1 -40.423596911526843 9.1507181454157376 4.8592095112982161 #
point $-1 -36.354718580360839 9.1507181454157376 4.8592095112982161 #
edge $-1 $618 1 $618 0 $342 $-1 forward 7 unknown #
vertex $-1 $343 $619 #
ellipse-curve $-1 -37.621761909926548 11.830081015371434 2.1751128180889587 -0.66913061440640931 0 0.74314481823134659 0.74314481823134659 0 0.66913061440640931 1 I I #
point $-1 -37.646012927712484 11.830081015371434 3.6965228332435527 #
plane-surface $-1 0 0 4.8592095112982161 0 0 1 1 0 0 forward_v I I I I #
coedge $-1 $515 $514 $507 $620 forward $347 $-1 #
coedge $-1 $507 $349 $351 $511 reversed $219 $-1 #
coedge $-1 $349 $506 $505 $620 reversed $219 $-1 #
coedge $-1 $357 $352 $349 $509 forward $358 $-1 #
edge $-1 $512 12.198103732888804 $621 15.22931317031486 $508 $622 forward 7 unknown #
coedge $-1 $351 $350 $515 $623 reversed $136 $-1 #
edge $-1 $624 -80.847193823053701 $512 -76.131469004594578 $506 $625 forward 7 unknown #
vertex $-1 $353 $626 #
straight-curve $-1 37.392387474100779 -3.9521490073291625 4.8592095112982179 0 -1 0 I I #
coedge $-1 $505 $354 $357 $519 reversed $347 $-1 #
coedge $-1 $354 $505 $510 $623 forward $347 $-1 #
vertex $-1 $355 $627 #
straight-curve $-1 40.423596911526843 -4.1808930944323812 57.573436294297224 0 0 1 I I #
straight-curve $-1 -11.543976757440902 -4.1808930944323812 63.179298919626696 0.64278759981090561 0 -0.7660444514056185 I I #
edge $-1 $621 -11.627702934884269 $359 -4.1808930944323812 $514 $628 forward 7 unknown #
point $-1 40.423596911526843 -4.1808930944323812 4.8592095112982161 #
point $-1 37.392387474100786 -4.1808930944323812 4.8592095112982179 #
edge $-1 $629 1 $629 0 $362 $-1 forward 7 unknown #
vertex $-1 $363 $630 #
ellipse-curve $-1 38.132385920654841 -9.5000429804694431 2.4021711756616524 0.7660444514056185 0 0.64278759981090561 0.3213937999054528 0 -0.38302222570280925 1 I I #
point $-1 39.229385992719259 -9.5000429804694431 2.6699598698272045 #
edge $-1 $631 1 $631 0 $366 $-1 forward 7 unknown #
vertex $-1 $367 $632 #
ellipse-curve $-1 38.132385920654841 -6.3085530488472052 2.4021711756616524 0.7660444514056185 0 0.64278759981090561 0.3213937999054528 0 -0.38302222570280925 1 I I #
point $-1 39.229385992719259 -6.3085530488472052 2.6699598698272045 #
plane-surface $-1 40.423596911526843 0 0 -1 0 0 0 0 1 forward_v I I I I #
coedge $-1 $539 $373 $374 $534 reversed $241 $-1 #
coedge $-1 $387 $386 $373 $533 reversed $371 $-1 #
edge $-1 $540 -4.8592095112982161 $546 4.8592095112982161 $532 $633 forward 7 unknown #
edge $-1 $535 -40.423596911526843 $546 40.423596911526843 $531 $634 forward 7 unknown #
vertex $-1 $542 $635 #
straight-curve $-1 40.423596911526843 0 -4.8592095112982161 0 -1 0 I I #
edge $-1 $388 -17.818606047283218 $540 17.818606047283218 $387 $636 forward 7 unknown #
straight-curve $-1 0 17.818606047283218 4.8592095112982161 -1 0 0 I I #
coedge $-1 $379 $531 $381 $542 reversed $241 $-1 #
vertex $-1 $537 $637 #
straight-curve $-1 0 -17.818606047283218 4.8592095112982161 1 0 0 I I #
edge $-1 $383 -4.8592095112982161 $535 4.8592095112982161 $381 $638 forward 7 unknown #
point $-1 40.423596911526843 -17.818606047283218 4.8592095112982161 #
point $-1 40.423596911526843 17.818606047283218 4.8592095112982161 #
point $-1 -40.423596911526843 17.818606047283218 4.8592095112982161 #
vertex $-1 $391 $639 #
straight-curve $-1 -40.423596911526843 0 -4.8592095112982161 0 1 0 I I #
plane-surface $-1 40.423596911526843 0 0 -1 0 0 0 0 1 forward_v I I I I #
coedge $-1 $560 $551 $550 $640 forward $395 $-1 #
coedge $-1 $398 $397 $549 $640 reversed $158 $-1 #
coedge $-1 $549 $641 $399 $552 reversed $395 $-1 #
edge $-1 $553 -40.423596911526843 $556 40.423596911526843 $551 $642 forward 7 unknown #
vertex $-1 $400 $643 #
straight-curve $-1 -40.423596911526843 0 4.8592095112982161 0 -1 0 I I #
coedge $-1 $407 $401 $641 $644 forward $408 $-1 #
vertex $-1 $402 $645 #
straight-curve $-1 40.423596911526843 0 4.8592095112982161 0 1 0 I I #
point $-1 40.423596911526843 -17.818606047283218 4.8592095112982161 #
point $-1 -40.423596911526843 -17.818606047283218 4.8592095112982161 #
coedge $-1 $641 $549 $410 $561 reversed $395 $-1 #
edge $-1 $562 -40.423596911526843 $564 40.423596911526843 $560 $646 forward 7 unknown #
vertex $-1 $644 $647 #
straight-curve $-1 40.423596911526843 -20.914057603482693 1.8592095112982161 0 -1 0 I I #
vertex $-1 $412 $648 #
straight-curve $-1 -40.423596911526843 -20.914057603482693 1.8592095112982161 0 1 0 I I #
plane-surface $-1 0 0 4.8592095112982161 0 0 1 1 0 0 forward_v I I I I #
coedge $-1 $420 $417 $422 $574 reversed $274 $-1 #
coedge $-1 $417 $420 $580 $649 reversed $274 $-1 #
edge $-1 $582 -4.8592095112982161 $576 4.8592095112982161 $434 $650 forward 7 unknown #
edge $-1 $571 -1.6545810809780441 $432 1.6545810809780441 $419 $651 forward 7 unknown #
vertex $-1 $649 $652 #
vertex $-1 $574 $653 #
straight-curve $-1 -33.705177888930407 21.12776820923931 0 0 0 -1 I I #
edge $-1 $572 -1.5 $576 1.5 $567 $654 forward 7 unknown #
straight-curve $-1 -33.705177888930407 19.473187128261266 -4.8592095112982161 0 1 0 I I #
vertex $-1 $424 $655 #
straight-curve $-1 -30.705177888930407 19.473187128261266 -4.8592095112982161 0 -1 0 I I #
point $-1 -33.705177888930407 17.818606047283222 -4.8592095112982161 #
straight-curve $-1 -33.705177888930407 17.818606047283218 0 0 0 -1 I I #
coedge $-1 $430 $429 $568 $649 forward $431 $-1 #
point $-1 -33.705177888930407 17.818606047283222 4.8592095112982161 #
vertex $-1 $435 $656 #
straight-curve $-1 -30.705177888930407 19.473187128261266 4.8592095112982161 0 1 0 I I #
coedge $-1 $449 $448 $441 $585 forward $438 $-1 #
edge $-1 $586 25.779164530963662 $589 29.442799115885798 $584 $657 forward 7 unknown #
vertex $-1 $453 $658 #
straight-curve $-1 -47.260464693690409 -2.9153206614804672 4.8592095112982179 -1 0 0 I I #
edge $-1 $589 0.11797889576238507 $450 5.4767046356737783 $449 $659 forward 7 unknown #
vertex $-1 $588 $660 #
straight-curve $-1 -40.423596911526843 -2.9153206614804672 1.1955749263760822 0.74314481823134659 0 0.66913061440640931 I I #
point $-1 -36.354718580360839 -2.9153206614804672 4.8592095112982161 #
point $-1 -40.423596911526843 -8.2740464013918604 1.1955749263760822 #
straight-curve $-1 -40.423596911526843 0 4.8592095112982161 0 -1 0 I I #
vertex $-1 $456 $661 #
point $-1 -36.878617091695197 -5.594683531436166 2.844243432495368 #
coedge $-1 $471 $470 $463 $597 forward $460 $-1 #
edge $-1 $598 25.779164530963662 $601 29.442799115885798 $596 $662 forward 7 unknown #
vertex $-1 $475 $663 #
straight-curve $-1 -47.260464693690409 5.7970616119233336 4.8592095112982179 -1 0 0 I I #
edge $-1 $601 -4.2382122409395153 $472 1.1205134989718788 $471 $664 forward 7 unknown #
vertex $-1 $600 $665 #
straight-curve $-1 -40.423596911526843 5.7970616119233336 1.1955749263760822 0.74314481823134659 0 0.66913061440640931 I I #
point $-1 -36.354718580360839 5.7970616119233336 4.8592095112982161 #
point $-1 -40.423596911526843 0.43833587201193946 1.1955749263760822 #
straight-curve $-1 -40.423596911526843 0 4.8592095112982161 0 -1 0 I I #
vertex $-1 $478 $666 #
point $-1 -36.878617091695197 3.117698741967633 2.844243432495368 #
coedge $-1 $493 $492 $485 $609 forward $482 $-1 #
edge $-1 $610 25.779164530963662 $613 29.442799115885798 $608 $667 forward 7 unknown #
vertex $-1 $497 $668 #
straight-curve $-1 -47.260464693690409 14.50944388532713 4.8592095112982179 -1 0 0 I I #
edge $-1 $613 -8.594403377641413 $494 -3.2356776377300207 $493 $669 forward 7 unknown #
vertex $-1 $612 $670 #
straight-curve $-1 -40.423596911526843 14.50944388532713 1.1955749263760822 0.74314481823134659 0 0.66913061440640931 I I #
point $-1 -36.354718580360839 14.50944388532713 4.8592095112982161 #
point $-1 -40.423596911526843 9.1507181454157376 1.1955749263760822 #
straight-curve $-1 -40.423596911526843 0 4.8592095112982161 0 -1 0 I I #
vertex $-1 $500 $671 #
point $-1 -36.878617091695197 11.830081015371434 2.844243432495368 #
edge $-1 $621 52.714226782999006 $624 56.326681614535381 $505 $672 forward 7 unknown #
vertex $-1 $519 $673 #
straight-curve $-1 25.194283741211983 -11.627702934884269 4.8592095112982179 1 0 0 I I #
edge $-1 $624 -7.6755539275551063 $516 -0.2287440871032187 $515 $674 forward 7 unknown #
vertex $-1 $623 $675 #
straight-curve $-1 -11.543976757440902 -11.627702934884269 63.179298919626696 -0.64278759981090561 0 0.7660444514056185 I I #
point $-1 37.392387474100786 -11.627702934884269 4.8592095112982179 #
point $-1 40.423596911526843 -4.1808930944323812 1.2467546797618425 #
straight-curve $-1 40.423596911526843 0 4.8592095112982161 0 1 0 I I #
vertex $-1 $522 $676 #
point $-1 38.453779720560298 -9.5000429804694431 2.0191489499588431 #
vertex $-1 $526 $677 #
point $-1 38.453779720560298 -6.3085530488472052 2.0191489499588431 #
straight-curve $-1 -40.423596911526843 -17.818606047283218 0 0 0 -1 I I #
straight-curve $-1 0 -17.818606047283218 -4.8592095112982161 -1 0 0 I I #
point $-1 40.423596911526843 -17.818606047283218 -4.8592095112982161 #
straight-curve $-1 -40.423596911526843 0 4.8592095112982161 0 -1 0 I I #
point $-1 -40.423596911526843 -17.818606047283218 4.8592095112982161 #
straight-curve $-1 40.423596911526843 -17.818606047283218 0 0 0 -1 I I #
point $-1 -40.423596911526843 -17.818606047283218 -4.8592095112982161 #
edge $-1 $553 -1.5 $564 1.5 $550 $678 forward 7 unknown #
coedge $-1 $551 $560 $555 $644 reversed $395 $-1 #
straight-curve $-1 0 -24.009509159682167 4.8592095112982161 1 0 0 I I #
point $-1 -40.423596911526843 -24.009509159682167 4.8592095112982161 #
edge $-1 $556 -1.5 $562 1.5 $555 $679 forward 7 unknown #
point $-1 40.423596911526843 -24.009509159682167 4.8592095112982161 #
straight-curve $-1 0 -24.009509159682167 1.8592095112982161 -1 0 0 I I #
point $-1 40.423596911526843 -24.009509159682167 1.8592095112982161 #
point $-1 -40.423596911526843 -24.009509159682167 1.8592095112982161 #
edge $-1 $582 -1.5 $571 1.5 $568 $680 forward 7 unknown #
straight-curve $-1 -30.705177888930407 21.12776820923931 0 0 0 -1 I I #
straight-curve $-1 -33.705177888930407 19.473187128261266 4.8592095112982161 0 -1 0 I I #
point $-1 -33.705177888930407 21.12776820923931 4.8592095112982161 #
point $-1 -33.705177888930407 21.12776820923931 -4.8592095112982161 #
straight-curve $-1 -32.205177888930407 21.12776820923931 -4.8592095112982161 1 0 0 I I #
point $-1 -30.705177888930407 21.12776820923931 -4.8592095112982161 #
point $-1 -30.705177888930407 21.12776820923931 4.8592095112982161 #
straight-curve $-1 -40.423596911526843 -2.9153206614804672 30.63837404226188 0 0 -1 I I #
point $-1 -40.423596911526843 -2.9153206614804672 4.8592095112982161 #
straight-curve $-1 -40.423596911526843 -2.7973417657180821 1.1955749263760795 0 -1 0 I I #
point $-1 -40.423596911526843 -2.9153206614804672 1.1955749263760822 #
point $-1 -36.952631295520135 -5.594683531436166 1.431967999857612 #
straight-curve $-1 -40.423596911526843 5.7970616119233336 30.63837404226188 0 0 -1 I I #
point $-1 -40.423596911526843 5.7970616119233336 4.8592095112982161 #
straight-curve $-1 -40.423596911526843 1.5588493709838183 1.1955749263760795 0 -1 0 I I #
point $-1 -40.423596911526843 5.7970616119233336 1.1955749263760822 #
point $-1 -36.952631295520135 3.117698741967633 1.431967999857612 #
straight-curve $-1 -40.423596911526843 14.50944388532713 30.63837404226188 0 0 -1 I I #
point $-1 -40.423596911526843 14.50944388532713 4.8592095112982161 #
straight-curve $-1 -40.423596911526843 5.9150405076857169 1.1955749263760795 0 -1 0 I I #
point $-1 -40.423596911526843 14.50944388532713 1.1955749263760822 #
point $-1 -36.952631295520135 11.830081015371434 1.431967999857612 #
straight-curve $-1 40.423596911526843 -11.627702934884269 57.573436294297224 0 0 -1 I I #
point $-1 40.423596911526843 -11.627702934884269 4.8592095112982161 #
straight-curve $-1 40.423596911526843 -3.9521490073291625 1.2467546797618425 0 1 0 I I #
point $-1 40.423596911526843 -11.627702934884269 1.2467546797618425 #
point $-1 37.749363694952038 -9.5000429804694431 2.0807773757561998 #
point $-1 37.749363694952038 -6.3085530488472052 2.0807773757561998 #
straight-curve $-1 -40.423596911526843 -24.009509159682167 3.3592095112982161 0 0 -1 I I #
straight-curve $-1 40.423596911526843 -24.009509159682167 3.3592095112982161 0 0 -1 I I #
straight-curve $-1 -32.205177888930407 21.12776820923931 4.8592095112982161 -1 0 0 I I #
End-of-ACIS-data 