500 0 9 0           
7 Unknown 11 ACIS 5.0 NT 24 Thu Mar 25 16:09:08 1999 
-1 9.9999999999999995e-007 1e-010 
body $-1 $9 $-1 $10 #
body $-1 $11 $-1 $12 #
body $-1 $13 $-1 $14 #
body $-1 $15 $-1 $16 #
body $-1 $17 $-1 $18 #
body $-1 $19 $-1 $20 #
body $-1 $21 $-1 $22 #
body $-1 $23 $-1 $24 #
body $-1 $25 $-1 $26 #
lump $-1 $-1 $27 $0 #
transform $-1 1 0 0 0 1 0 0 0 1 48.425550096133307 33.021357043305251 15.461597657304935 1 rotate no_reflect no_shear #
lump $-1 $-1 $28 $1 #
transform $-1 1 0 0 0 1 0 0 0 1 48.425550096133307 33.021357043305251 15.461597657304935 1 rotate no_reflect no_shear #
lump $-1 $-1 $29 $2 #
transform $-1 1 0 0 0 1 0 0 0 1 48.425550096133307 33.021357043305251 15.461597657304935 1 rotate no_reflect no_shear #
lump $-1 $-1 $30 $3 #
transform $-1 1 0 0 0 1 0 0 0 1 48.425550096133307 33.021357043305251 15.461597657304935 1 rotate no_reflect no_shear #
lump $-1 $-1 $31 $4 #
transform $-1 1 0 0 0 1 0 0 0 1 48.425550096133307 33.021357043305251 15.461597657304935 1 rotate no_reflect no_shear #
lump $-1 $-1 $32 $5 #
transform $-1 1 0 0 0 1 0 0 0 1 48.425550096133307 33.021357043305251 15.461597657304935 1 rotate no_reflect no_shear #
lump $-1 $-1 $33 $6 #
transform $-1 1 0 0 0 1 0 0 0 1 48.425550096133307 33.021357043305251 15.461597657304935 1 rotate no_reflect no_shear #
lump $-1 $-1 $34 $7 #
transform $-1 1 0 0 0 1 0 0 0 1 48.425550096133307 33.021357043305251 15.461597657304935 1 rotate no_reflect no_shear #
lump $-1 $-1 $35 $8 #
transform $-1 1 0 0 0 1 0 0 0 1 48.425550096133307 33.021357043305251 15.461597657304935 1 rotate no_reflect no_shear #
shell $-1 $-1 $-1 $36 $-1 $9 #
shell $-1 $-1 $-1 $37 $-1 $11 #
shell $-1 $-1 $-1 $38 $-1 $13 #
shell $-1 $-1 $-1 $39 $-1 $15 #
shell $-1 $-1 $-1 $40 $-1 $17 #
shell $-1 $-1 $-1 $41 $-1 $19 #
shell $-1 $-1 $-1 $42 $-1 $21 #
shell $-1 $-1 $-1 $43 $-1 $23 #
shell $-1 $-1 $-1 $44 $-1 $25 #
face $-1 $45 $46 $27 $-1 $47 forward single #
face $-1 $48 $49 $28 $-1 $50 forward single #
face $-1 $51 $52 $29 $-1 $53 reversed single #
face $-1 $54 $55 $30 $-1 $56 forward single #
face $-1 $57 $58 $31 $-1 $59 forward single #
face $-1 $60 $61 $32 $-1 $62 reversed single #
face $-1 $63 $64 $33 $-1 $65 forward single #
face $-1 $66 $67 $34 $-1 $68 forward single #
face $-1 $69 $70 $35 $-1 $71 forward single #
face $-1 $72 $73 $27 $-1 $74 reversed single #
loop $-1 $-1 $75 $36 #
plane-surface $-1 0 0 15.461597657304935 0 0 1 1 0 0 forward_v I I I I #
face $-1 $76 $77 $28 $-1 $78 reversed single #
loop $-1 $-1 $79 $37 #
plane-surface $-1 0 -33.021357043305251 0 0 1 0 0 0 1 forward_v I I I I #
face $-1 $80 $81 $29 $-1 $82 reversed single #
loop $-1 $-1 $83 $38 #
plane-surface $-1 -113.23158627372138 -14.043574065277118 77.271722688135739 0 1 0 -0.66913061440640931 0 0.74314481823134659 forward_v I I I I #
face $-1 $84 $85 $30 $-1 $86 forward single #
loop $-1 $87 $88 $39 #
cone-surface $-1 -42.24610897272369 -10.516081969773882 9.785108719863759 0.66913061440640931 0 -0.74314481823134659 1.1147172273470198 0 1.003695921609614 1 I I 0 1 1.5 forward I I I I #
face $-1 $89 $90 $31 $-1 $91 forward single #
loop $-1 $92 $93 $40 #
cone-surface $-1 -42.24610897272369 -5.2248438265190238 9.785108719863759 0.66913061440640931 0 -0.74314481823134659 1.1147172273470198 0 1.003695921609614 1 I I 0 1 1.5 forward I I I I #
face $-1 $94 $95 $32 $-1 $96 reversed single #
loop $-1 $-1 $97 $41 #
plane-surface $-1 38.871137119107317 20.442677707765913 144.67499306286174 0 1 0 0.6560590369687036 0 0.75470957328743171 forward_v I I I I #
face $-1 $98 $99 $33 $-1 $100 forward single #
loop $-1 $101 $102 $42 #
cone-surface $-1 43.066307190356007 22.958413574873781 10.496290269938036 -0.6560590369687036 0 -0.75470957328743171 0.75470957328743171 0 -0.6560590369687036 1 I I 0 1 1 forward I I I I #
face $-1 $103 $104 $34 $-1 $105 forward single #
loop $-1 $106 $107 $43 #
cone-surface $-1 43.066307190356007 26.732017375535584 10.496290269938036 -0.6560590369687036 0 -0.75470957328743171 0.75470957328743171 0 -0.6560590369687036 1 I I 0 1 1 forward I I I I #
face $-1 $108 $109 $35 $-1 $110 forward single #
loop $-1 $111 $112 $44 #
cone-surface $-1 43.066307190356007 30.505621176197387 10.496290269938036 -0.6560590369687036 0 -0.75470957328743171 0.75470957328743171 0 -0.6560590369687036 1 I I 0 1 1 forward I I I I #
face $-1 $113 $114 $27 $-1 $115 reversed single #
loop $-1 $-1 $116 $45 #
plane-surface $-1 0 0 -15.461597657304935 0 0 1 1 0 0 forward_v I I I I #
coedge $-1 $117 $118 $119 $120 forward $46 $-1 #
face $-1 $121 $122 $28 $-1 $123 forward single #
loop $-1 $-1 $124 $48 #
plane-surface $-1 -48.425550096133307 0 0 1 0 0 0 0 -1 forward_v I I I I #
coedge $-1 $125 $126 $127 $128 forward $49 $-1 #
face $-1 $129 $130 $29 $-1 $131 reversed single #
loop $-1 $-1 $132 $51 #
plane-surface $-1 -48.425550096133307 -7.8704628981464495 5.2973294402478359 -0.66913061440640931 0 0.74314481823134659 0.74314481823134659 0 0.66913061440640931 forward_v I I I I #
coedge $-1 $133 $134 $135 $136 reversed $52 $-1 #
face $-1 $-1 $137 $30 $-1 $138 forward single #
loop $-1 $139 $140 $54 #
cone-surface $-1 -41.209101508563627 -10.516081969773882 8.6333952772776286 0.66913061440640931 0 -0.74314481823134659 0.55735861367350992 0 0.50184796080480698 1 I I -0.70710678118654757 0.70710678118654757 0.75 forward I I I I #
loop $-1 $-1 $141 $39 #
coedge $-1 $88 $88 $142 $143 reversed $55 $-1 #
face $-1 $-1 $144 $31 $-1 $145 forward single #
loop $-1 $146 $147 $57 #
cone-surface $-1 -41.209101508563627 -5.2248438265190238 8.6333952772776286 0.66913061440640931 0 -0.74314481823134659 0.55735861367350992 0 0.50184796080480698 1 I I -0.70710678118654757 0.70710678118654757 0.75 forward I I I I #
loop $-1 $-1 $148 $40 #
coedge $-1 $93 $93 $149 $150 reversed $58 $-1 #
face $-1 $151 $152 $32 $-1 $153 reversed single #
loop $-1 $-1 $154 $60 #
plane-surface $-1 -24.668902402390543 26.732017375535584 71.580540564337909 0.6560590369687036 0 0.75470957328743171 0.75470957328743171 0 -0.6560590369687036 forward_v I I I I #
coedge $-1 $155 $156 $157 $158 reversed $61 $-1 #
face $-1 $-1 $159 $33 $-1 $160 forward single #
loop $-1 $161 $162 $63 #
cone-surface $-1 41.64753222106863 22.958413574873781 8.8641764031598527 -0.6560590369687036 0 -0.75470957328743171 0.37735478664371586 0 -0.3280295184843518 1 I I -0.70710678118654746 0.70710678118654746 0.5 forward I I I I #
loop $-1 $-1 $163 $42 #
coedge $-1 $102 $102 $164 $165 reversed $64 $-1 #
face $-1 $-1 $166 $34 $-1 $167 forward single #
loop $-1 $168 $169 $66 #
cone-surface $-1 41.64753222106863 26.732017375535584 8.8641764031598527 -0.6560590369687036 0 -0.75470957328743171 0.37735478664371586 0 -0.3280295184843518 1 I I -0.70710678118654746 0.70710678118654746 0.5 forward I I I I #
loop $-1 $-1 $170 $43 #
coedge $-1 $107 $107 $171 $172 reversed $67 $-1 #
face $-1 $-1 $173 $35 $-1 $174 forward single #
loop $-1 $175 $176 $69 #
cone-surface $-1 41.64753222106863 30.505621176197387 8.8641764031598527 -0.6560590369687036 0 -0.75470957328743171 0.37735478664371586 0 -0.3280295184843518 1 I I -0.70710678118654746 0.70710678118654746 0.5 forward I I I I #
loop $-1 $-1 $177 $44 #
coedge $-1 $112 $112 $178 $179 reversed $70 $-1 #
face $-1 $180 $181 $27 $-1 $182 reversed single #
loop $-1 $-1 $183 $72 #
plane-surface $-1 0 -33.021357043305251 0 0 1 0 0 0 1 forward_v I I I I #
coedge $-1 $184 $185 $186 $187 forward $73 $-1 #
coedge $-1 $188 $75 $189 $190 forward $46 $-1 #
coedge $-1 $75 $188 $191 $192 forward $46 $-1 #
coedge $-1 $193 $194 $75 $120 reversed $195 $-1 #
edge $-1 $196 -33.021357043305251 $197 33.021357043305251 $119 $198 forward 7 unknown #
face $-1 $199 $200 $28 $-1 $201 reversed single #
loop $-1 $-1 $202 $76 #
plane-surface $-1 0 -40.074331359406514 9.2581656118372564 0 0 1 1 0 0 forward_v I I I I #
coedge $-1 $203 $204 $126 $205 forward $77 $-1 #
coedge $-1 $206 $79 $207 $208 reversed $49 $-1 #
coedge $-1 $79 $206 $124 $205 reversed $49 $-1 #
coedge $-1 $209 $202 $79 $128 reversed $122 $-1 #
edge $-1 $210 -48.425550096133307 $211 48.425550096133307 $127 $212 forward 7 unknown #
face $-1 $213 $214 $29 $-1 $215 forward single #
loop $-1 $-1 $216 $80 #
plane-surface $-1 -113.23158627372138 -1.6973517310157806 77.271722688135739 0 -1 0 0.66913061440640931 0 -0.74314481823134659 forward_v I I I I #
coedge $-1 $217 $218 $219 $220 reversed $81 $-1 #
coedge $-1 $134 $83 $221 $222 reversed $52 $-1 #
coedge $-1 $83 $133 $217 $223 reversed $52 $-1 #
coedge $-1 $219 $224 $83 $136 forward $214 $-1 #
edge $-1 $225 8.1902430407273812 $226 19.478806280836096 $135 $227 forward 7 unknown #
loop $-1 $-1 $142 $84 #
plane-surface $-1 -48.425550096133307 -7.8704628981464495 5.2973294402478359 -0.66913061440640931 0 0.74314481823134659 0.74314481823134659 0 0.66913061440640931 forward_v I I I I #
loop $-1 $-1 $228 $54 #
coedge $-1 $140 $140 $141 $229 reversed $85 $-1 #
coedge $-1 $141 $141 $140 $229 forward $87 $-1 #
coedge $-1 $142 $142 $88 $143 forward $137 $-1 #
edge $-1 $230 0 $230 6.2831853071796004 $142 $231 forward 7 unknown #
loop $-1 $-1 $149 $89 #
plane-surface $-1 -48.425550096133307 -7.8704628981464495 5.2973294402478359 -0.66913061440640931 0 0.74314481823134659 0.74314481823134659 0 0.66913061440640931 forward_v I I I I #
loop $-1 $-1 $232 $57 #
coedge $-1 $147 $147 $148 $233 reversed $90 $-1 #
coedge $-1 $148 $148 $147 $233 forward $92 $-1 #
coedge $-1 $149 $149 $93 $150 forward $144 $-1 #
edge $-1 $234 0 $234 6.2831853071796004 $149 $235 forward 7 unknown #
face $-1 $236 $237 $32 $-1 $238 forward single #
loop $-1 $-1 $239 $94 #
plane-surface $-1 0 33.021357043305251 0 0 -1 0 0 0 -1 forward_v I I I I #
coedge $-1 $240 $241 $242 $243 reversed $95 $-1 #
coedge $-1 $156 $97 $244 $245 reversed $61 $-1 #
coedge $-1 $97 $155 $240 $246 reversed $61 $-1 #
coedge $-1 $242 $247 $97 $158 forward $248 $-1 #
edge $-1 $249 56.875898874125937 $250 64.296995488590838 $157 $251 forward 7 unknown #
loop $-1 $-1 $164 $98 #
plane-surface $-1 -24.668902402390543 26.732017375535584 71.580540564337909 0.6560590369687036 0 0.75470957328743171 0.75470957328743171 0 -0.6560590369687036 forward_v I I I I #
loop $-1 $-1 $252 $63 #
coedge $-1 $162 $162 $163 $253 reversed $99 $-1 #
coedge $-1 $163 $163 $162 $253 forward $101 $-1 #
coedge $-1 $164 $164 $102 $165 forward $159 $-1 #
edge $-1 $254 0 $254 6.2831853071796004 $164 $255 forward 7 unknown #
loop $-1 $-1 $171 $103 #
plane-surface $-1 -24.668902402390543 26.732017375535584 71.580540564337909 0.6560590369687036 0 0.75470957328743171 0.75470957328743171 0 -0.6560590369687036 forward_v I I I I #
loop $-1 $-1 $256 $66 #
coedge $-1 $169 $169 $170 $257 reversed $104 $-1 #
coedge $-1 $170 $170 $169 $257 forward $106 $-1 #
coedge $-1 $171 $171 $107 $172 forward $166 $-1 #
edge $-1 $258 0 $258 6.2831853071796004 $171 $259 forward 7 unknown #
loop $-1 $-1 $178 $108 #
plane-surface $-1 -24.668902402390543 26.732017375535584 71.580540564337909 0.6560590369687036 0 0.75470957328743171 0.75470957328743171 0 -0.6560590369687036 forward_v I I I I #
loop $-1 $-1 $260 $69 #
coedge $-1 $176 $176 $177 $261 reversed $109 $-1 #
coedge $-1 $177 $177 $176 $261 forward $111 $-1 #
coedge $-1 $178 $178 $112 $179 forward $173 $-1 #
edge $-1 $262 0 $262 6.2831853071796004 $178 $263 forward 7 unknown #
face $-1 $264 $265 $27 $-1 $266 reversed single #
loop $-1 $-1 $267 $113 #
plane-surface $-1 -48.425550096133307 0 0 1 0 0 0 0 -1 forward_v I I I I #
coedge $-1 $268 $191 $269 $270 forward $114 $-1 #
coedge $-1 $271 $116 $268 $272 forward $73 $-1 #
coedge $-1 $116 $271 $273 $274 forward $73 $-1 #
coedge $-1 $194 $193 $116 $187 reversed $195 $-1 #
edge $-1 $275 -33.021357043305251 $276 33.021357043305251 $186 $277 forward 7 unknown #
coedge $-1 $118 $117 $278 $279 forward $46 $-1 #
coedge $-1 $280 $281 $117 $190 reversed $265 $-1 #
edge $-1 $197 -48.425550096133307 $282 48.425550096133307 $189 $283 forward 7 unknown #
coedge $-1 $183 $284 $118 $192 reversed $114 $-1 #
edge $-1 $285 -48.425550096133307 $196 48.425550096133307 $191 $286 forward 7 unknown #
coedge $-1 $186 $119 $284 $287 forward $195 $-1 #
coedge $-1 $119 $186 $280 $288 reversed $195 $-1 #
loop $-1 $-1 $193 $264 #
vertex $-1 $120 $289 #
vertex $-1 $120 $290 #
straight-curve $-1 48.425550096133307 0 15.461597657304935 0 1 0 I I #
face $-1 $291 $292 $28 $-1 $293 reversed single #
loop $-1 $-1 $294 $121 #
plane-surface $-1 0 -40.074331359406514 5.9191551030137077 0 0 1 1 0 0 forward_v I I I I #
coedge $-1 $127 $295 $296 $297 forward $122 $-1 #
coedge $-1 $298 $124 $299 $300 reversed $77 $-1 #
coedge $-1 $124 $298 $209 $301 reversed $77 $-1 #
edge $-1 $210 -9.2581656118372564 $302 -5.9191551030137077 $124 $303 forward 7 unknown #
coedge $-1 $126 $125 $304 $305 forward $49 $-1 #
coedge $-1 $296 $306 $125 $208 forward $307 $-1 #
edge $-1 $308 5.9191551030137077 $211 9.2581656118372564 $207 $309 forward 7 unknown #
coedge $-1 $295 $127 $204 $301 forward $122 $-1 #
vertex $-1 $205 $310 #
vertex $-1 $297 $311 #
straight-curve $-1 0 -33.021357043305251 9.2581656118372564 1 0 0 I I #
face $-1 $-1 $312 $29 $-1 $313 reversed single #
loop $-1 $-1 $135 $129 #
plane-surface $-1 0 0 15.461597657304935 0 0 1 1 0 0 forward_v I I I I #
coedge $-1 $314 $315 $316 $317 reversed $130 $-1 #
coedge $-1 $318 $132 $134 $223 forward $81 $-1 #
coedge $-1 $132 $318 $314 $319 forward $81 $-1 #
coedge $-1 $316 $135 $132 $220 forward $214 $-1 #
edge $-1 $226 -10.108342616203894 $320 2.2378797180574441 $219 $321 forward 7 unknown #
coedge $-1 $322 $323 $133 $222 forward $312 $-1 #
edge $-1 $324 -33.338531903820034 $225 -23.174263686762934 $221 $325 forward 7 unknown #
edge $-1 $226 -15.190260314234607 $324 0 $134 $326 forward 7 unknown #
coedge $-1 $135 $316 $322 $327 forward $214 $-1 #
vertex $-1 $222 $328 #
vertex $-1 $136 $329 #
straight-curve $-1 -56.615793136860688 -14.043574065277118 15.461597657304935 1 0 0 I I #
coedge $-1 $228 $228 $-1 $330 reversed $139 $-1 #
edge $-1 $331 0 $331 6.2831853071796004 $140 $332 forward 7 unknown #
vertex $-1 $143 $333 #
ellipse-curve $-1 -42.781268476078949 -10.516081969773882 10.379463548776386 -0.66913061440640931 0 0.74314481823134659 1.1147172273470198 0 1.003695921609614 1 I I #
coedge $-1 $232 $232 $-1 $334 reversed $146 $-1 #
edge $-1 $335 0 $335 6.2831853071796004 $147 $336 forward 7 unknown #
vertex $-1 $150 $337 #
ellipse-curve $-1 -42.781268476078949 -5.2248438265190238 10.379463548776386 -0.66913061440640931 0 0.74314481823134659 1.1147172273470198 0 1.003695921609614 1 I I #
face $-1 $-1 $248 $32 $-1 $338 reversed single #
loop $-1 $-1 $339 $151 #
plane-surface $-1 0 0 15.461597657304935 0 0 1 1 0 0 forward_v I I I I #
coedge $-1 $340 $341 $241 $342 forward $152 $-1 #
coedge $-1 $343 $154 $156 $246 forward $95 $-1 #
coedge $-1 $154 $343 $239 $342 reversed $95 $-1 #
coedge $-1 $344 $157 $154 $243 forward $248 $-1 #
edge $-1 $250 7.0766690199981213 $345 19.655348355537459 $242 $346 forward 7 unknown #
coedge $-1 $347 $339 $155 $245 forward $237 $-1 #
edge $-1 $348 20.452986626631045 $249 28.989981536579648 $244 $349 forward 7 unknown #
edge $-1 $250 -96.851100192266642 $348 -85.539470908484816 $156 $350 forward 7 unknown #
coedge $-1 $157 $344 $347 $351 reversed $248 $-1 #
loop $-1 $-1 $242 $236 #
vertex $-1 $351 $352 #
vertex $-1 $158 $353 #
straight-curve $-1 48.425550096133307 20.442677707765913 72.337496531430872 0 0 -1 I I #
coedge $-1 $252 $252 $-1 $354 reversed $161 $-1 #
edge $-1 $355 0 $355 6.2831853071796004 $162 $356 forward 7 unknown #
vertex $-1 $165 $357 #
ellipse-curve $-1 44.157052641159012 22.958413574873781 11.751049350072483 0.6560590369687036 0 0.75470957328743171 0.75470957328743171 0 -0.6560590369687036 1 I I #
coedge $-1 $256 $256 $-1 $358 reversed $168 $-1 #
edge $-1 $359 0 $359 6.2831853071796004 $169 $360 forward 7 unknown #
vertex $-1 $172 $361 #
ellipse-curve $-1 44.157052641159012 26.732017375535584 11.751049350072483 0.6560590369687036 0 0.75470957328743171 0.75470957328743171 0 -0.6560590369687036 1 I I #
coedge $-1 $260 $260 $-1 $362 reversed $175 $-1 #
edge $-1 $363 0 $363 6.2831853071796004 $176 $364 forward 7 unknown #
vertex $-1 $179 $365 #
ellipse-curve $-1 44.157052641159012 30.505621176197387 11.751049350072483 0.6560590369687036 0 0.75470957328743171 0.75470957328743171 0 -0.6560590369687036 1 I I #
face $-1 $-1 $195 $27 $-1 $366 reversed single #
loop $-1 $-1 $280 $180 #
plane-surface $-1 0 33.021357043305251 0 0 -1 0 0 0 -1 forward_v I I I I #
coedge $-1 $367 $278 $281 $368 forward $181 $-1 #
coedge $-1 $284 $183 $184 $272 reversed $114 $-1 #
coedge $-1 $278 $367 $183 $270 reversed $181 $-1 #
edge $-1 $285 -15.461597657304935 $369 15.461597657304935 $269 $370 forward 7 unknown #
coedge $-1 $185 $184 $367 $371 forward $73 $-1 #
edge $-1 $276 -48.425550096133307 $369 48.425550096133307 $268 $372 forward 7 unknown #
coedge $-1 $281 $280 $185 $274 reversed $265 $-1 #
edge $-1 $373 -48.425550096133307 $275 48.425550096133307 $273 $374 forward 7 unknown #
vertex $-1 $187 $375 #
vertex $-1 $287 $376 #
straight-curve $-1 48.425550096133307 0 -15.461597657304935 0 -1 0 I I #
coedge $-1 $267 $269 $188 $279 reversed $181 $-1 #
edge $-1 $282 -33.021357043305251 $285 33.021357043305251 $278 $377 forward 7 unknown #
coedge $-1 $273 $189 $194 $288 forward $265 $-1 #
coedge $-1 $189 $273 $267 $368 reversed $265 $-1 #
vertex $-1 $190 $378 #
straight-curve $-1 0 33.021357043305251 15.461597657304935 -1 0 0 I I #
coedge $-1 $191 $268 $193 $287 reversed $114 $-1 #
vertex $-1 $279 $379 #
straight-curve $-1 0 -33.021357043305251 15.461597657304935 1 0 0 I I #
edge $-1 $196 -15.461597657304935 $276 15.461597657304935 $193 $380 forward 7 unknown #
edge $-1 $197 -15.461597657304935 $275 15.461597657304935 $194 $381 forward 7 unknown #
point $-1 48.425550096133307 -33.021357043305251 15.461597657304935 #
point $-1 48.425550096133307 33.021357043305251 15.461597657304935 #
face $-1 $-1 $307 $28 $-1 $382 reversed single #
loop $-1 $-1 $383 $199 #
plane-surface $-1 0 -47.127305675507777 7.5886603574254821 0 1 0 0 0 1 forward_v I I I I #
coedge $-1 $384 $304 $306 $385 forward $200 $-1 #
coedge $-1 $202 $209 $386 $387 forward $122 $-1 #
coedge $-1 $388 $207 $202 $297 reversed $307 $-1 #
edge $-1 $389 -7.0529743161012632 $211 7.0529743161012632 $296 $390 forward 7 unknown #
coedge $-1 $204 $203 $383 $391 reversed $77 $-1 #
coedge $-1 $304 $384 $203 $300 forward $200 $-1 #
edge $-1 $392 -7.0529743161012632 $302 7.0529743161012632 $203 $393 forward 7 unknown #
edge $-1 $210 -7.0529743161012632 $394 7.0529743161012632 $204 $395 forward 7 unknown #
vertex $-1 $205 $396 #
straight-curve $-1 -48.425550096133307 -33.021357043305251 0 0 0 -1 I I #
coedge $-1 $294 $299 $206 $305 reversed $200 $-1 #
edge $-1 $308 -48.425550096133307 $302 48.425550096133307 $304 $397 forward 7 unknown #
coedge $-1 $207 $388 $294 $385 reversed $307 $-1 #
loop $-1 $-1 $207 $291 #
vertex $-1 $208 $398 #
straight-curve $-1 48.425550096133307 -33.021357043305251 0 0 0 1 I I #
point $-1 -48.425550096133307 -33.021357043305251 9.2581656118372564 #
point $-1 48.425550096133307 -33.021357043305251 9.2581656118372564 #
loop $-1 $-1 $221 $213 #
plane-surface $-1 -48.425550096133307 0 0 1 0 0 0 0 -1 forward_v I I I I #
coedge $-1 $315 $216 $218 $319 reversed $130 $-1 #
coedge $-1 $216 $314 $399 $400 reversed $130 $-1 #
coedge $-1 $224 $219 $216 $317 forward $214 $-1 #
edge $-1 $320 -19.478806280836096 $401 -8.1902430407273812 $316 $402 forward 7 unknown #
coedge $-1 $218 $217 $323 $403 reversed $81 $-1 #
edge $-1 $404 0 $320 15.190260314234607 $314 $405 forward 7 unknown #
vertex $-1 $220 $406 #
straight-curve $-1 -37.136986856024592 -3.9352314490732248 15.461597657304935 0 1 0 I I #
coedge $-1 $399 $221 $224 $327 reversed $312 $-1 #
coedge $-1 $221 $399 $318 $403 forward $312 $-1 #
vertex $-1 $222 $407 #
straight-curve $-1 -48.425550096133307 -14.043574065277118 38.63586134406787 0 0 1 I I #
straight-curve $-1 -48.425550096133307 -14.043574065277118 5.2973294402478359 -0.74314481823134659 0 -0.66913061440640931 I I #
edge $-1 $401 1.6973517310157806 $225 14.043574065277118 $322 $408 forward 7 unknown #
point $-1 -48.425550096133307 -14.043574065277118 15.461597657304935 #
point $-1 -37.136986856024592 -14.043574065277118 15.461597657304935 #
edge $-1 $409 1 $409 0 $228 $-1 forward 7 unknown #
vertex $-1 $229 $410 #
ellipse-curve $-1 -41.710949469368437 -10.516081969773882 9.1907538909511377 -0.66913061440640931 0 0.74314481823134659 1.1147172273470198 0 1.003695921609614 1 I I #
point $-1 -41.666551248731921 -10.516081969773882 11.383159470385992 #
edge $-1 $411 1 $411 0 $232 $-1 forward 7 unknown #
vertex $-1 $233 $412 #
ellipse-curve $-1 -41.710949469368437 -5.2248438265190238 9.1907538909511377 -0.66913061440640931 0 0.74314481823134659 1.1147172273470198 0 1.003695921609614 1 I I #
point $-1 -41.666551248731921 -5.2248438265190238 11.383159470385992 #
plane-surface $-1 48.425550096133307 0 0 -1 0 0 0 0 1 forward_v I I I I #
coedge $-1 $244 $413 $343 $414 forward $237 $-1 #
coedge $-1 $341 $239 $413 $415 reversed $152 $-1 #
coedge $-1 $239 $340 $344 $416 forward $152 $-1 #
edge $-1 $345 -64.061641535308539 $417 -52.750012251526698 $239 $418 forward 7 unknown #
coedge $-1 $241 $240 $339 $414 reversed $95 $-1 #
coedge $-1 $247 $242 $341 $416 reversed $248 $-1 #
vertex $-1 $342 $419 #
straight-curve $-1 48.425550096133307 13.366008687767792 8.0405010428400274 0 1 0 I I #
coedge $-1 $413 $244 $247 $351 forward $237 $-1 #
vertex $-1 $245 $420 #
straight-curve $-1 19.435568559553658 20.442677707765913 15.461597657304935 1 0 0 I I #
straight-curve $-1 -24.668902402390543 20.442677707765913 71.580540564337909 -0.75470957328743171 0 0.6560590369687036 I I #
edge $-1 $249 20.442677707765913 $421 33.021357043305251 $247 $422 forward 7 unknown #
point $-1 48.425550096133307 20.442677707765913 15.461597657304935 #
point $-1 48.425550096133307 20.442677707765913 8.0405010428400345 #
edge $-1 $423 1 $423 0 $252 $-1 forward 7 unknown #
vertex $-1 $253 $424 #
ellipse-curve $-1 41.97556173955298 22.958413574873781 9.2415311898035686 0.6560590369687036 0 0.75470957328743171 0.75470957328743171 0 -0.6560590369687036 1 I I #
point $-1 44.911762214446455 22.958413574873781 11.0949903131038 #
edge $-1 $425 1 $425 0 $256 $-1 forward 7 unknown #
vertex $-1 $257 $426 #
ellipse-curve $-1 41.97556173955298 26.732017375535584 9.2415311898035686 0.6560590369687036 0 0.75470957328743171 0.75470957328743171 0 -0.6560590369687036 1 I I #
point $-1 44.911762214446455 26.732017375535584 11.0949903131038 #
edge $-1 $427 1 $427 0 $260 $-1 forward 7 unknown #
vertex $-1 $261 $428 #
ellipse-curve $-1 41.97556173955298 30.505621176197387 9.2415311898035686 0.6560590369687036 0 0.75470957328743171 0.75470957328743171 0 -0.6560590369687036 1 I I #
point $-1 44.911762214446455 30.505621176197387 11.0949903131038 #
plane-surface $-1 48.425550096133307 0 0 -1 0 0 0 0 1 forward_v I I I I #
coedge $-1 $269 $267 $271 $371 reversed $181 $-1 #
edge $-1 $282 -15.461597657304935 $373 15.461597657304935 $281 $429 forward 7 unknown #
vertex $-1 $371 $430 #
straight-curve $-1 -48.425550096133307 -33.021357043305251 0 0 0 -1 I I #
edge $-1 $369 -33.021357043305251 $373 33.021357043305251 $367 $431 forward 7 unknown #
straight-curve $-1 0 -33.021357043305251 -15.461597657304935 -1 0 0 I I #
vertex $-1 $274 $432 #
straight-curve $-1 0 33.021357043305251 -15.461597657304935 1 0 0 I I #
point $-1 48.425550096133307 33.021357043305251 -15.461597657304935 #
point $-1 48.425550096133307 -33.021357043305251 -15.461597657304935 #
straight-curve $-1 -48.425550096133307 0 15.461597657304935 0 -1 0 I I #
point $-1 -48.425550096133307 33.021357043305251 15.461597657304935 #
point $-1 -48.425550096133307 -33.021357043305251 15.461597657304935 #
straight-curve $-1 48.425550096133307 -33.021357043305251 0 0 0 -1 I I #
straight-curve $-1 48.425550096133307 33.021357043305251 0 0 0 -1 I I #
plane-surface $-1 48.425550096133307 0 0 -1 0 0 0 0 1 forward_v I I I I #
coedge $-1 $433 $386 $298 $391 forward $292 $-1 #
coedge $-1 $299 $294 $433 $434 forward $200 $-1 #
edge $-1 $308 -7.0529743161012632 $435 7.0529743161012632 $306 $436 forward 7 unknown #
coedge $-1 $383 $437 $295 $387 reversed $292 $-1 #
edge $-1 $394 -48.425550096133307 $389 48.425550096133307 $386 $438 forward 7 unknown #
coedge $-1 $306 $296 $437 $439 forward $307 $-1 #
vertex $-1 $297 $440 #
straight-curve $-1 48.425550096133307 -40.074331359406514 9.2581656118372564 0 1 0 I I #
edge $-1 $394 -1.6695052544117743 $392 1.6695052544117743 $298 $441 forward 7 unknown #
vertex $-1 $300 $442 #
straight-curve $-1 -48.425550096133307 -40.074331359406514 5.9191551030137077 0 1 0 I I #
vertex $-1 $301 $443 #
straight-curve $-1 -48.425550096133307 -40.074331359406514 9.2581656118372564 0 -1 0 I I #
point $-1 -48.425550096133307 -33.021357043305251 5.9191551030137077 #
straight-curve $-1 0 -33.021357043305251 5.9191551030137077 -1 0 0 I I #
point $-1 48.425550096133307 -33.021357043305251 5.9191551030137077 #
coedge $-1 $323 $322 $315 $400 forward $312 $-1 #
edge $-1 $401 23.174263686762934 $404 33.338531903820034 $399 $444 forward 7 unknown #
vertex $-1 $327 $445 #
straight-curve $-1 -56.615793136860688 -1.6973517310157806 15.461597657304935 -1 0 0 I I #
edge $-1 $404 -2.2378797180574441 $324 10.108342616203894 $323 $446 forward 7 unknown #
vertex $-1 $403 $447 #
straight-curve $-1 -48.425550096133307 -1.6973517310157806 5.2973294402478359 0.74314481823134659 0 0.66913061440640931 I I #
point $-1 -37.136986856024592 -1.6973517310157806 15.461597657304935 #
point $-1 -48.425550096133307 -14.043574065277118 5.2973294402478359 #
straight-curve $-1 -48.425550096133307 0 15.461597657304935 0 -1 0 I I #
vertex $-1 $330 $448 #
point $-1 -40.596232242021415 -10.516081969773882 10.194449812560752 #
vertex $-1 $334 $449 #
point $-1 -40.596232242021415 -5.2248438265190238 10.194449812560752 #
coedge $-1 $339 $347 $340 $415 forward $237 $-1 #
edge $-1 $417 -19.655348355537466 $348 -7.0766690199981213 $339 $450 forward 7 unknown #
edge $-1 $421 -48.425550096133307 $417 -39.888555186184703 $340 $451 forward 7 unknown #
edge $-1 $421 -15.461597657304935 $345 -8.0405010428400292 $344 $452 forward 7 unknown #
vertex $-1 $342 $453 #
straight-curve $-1 0.07761594892819268 33.021357043305251 50.068719895128851 -0.75470957328743171 0 0.6560590369687036 I I #
point $-1 48.425550096133307 33.021357043305251 8.0405010428400292 #
point $-1 39.888555186184703 20.442677707765913 15.461597657304935 #
vertex $-1 $351 $454 #
straight-curve $-1 48.425550096133307 0 15.461597657304935 0 1 0 I I #
vertex $-1 $354 $455 #
point $-1 42.730271312840415 22.958413574873781 8.5854721528348641 #
vertex $-1 $358 $456 #
point $-1 42.730271312840415 26.732017375535584 8.5854721528348641 #
vertex $-1 $362 $457 #
point $-1 42.730271312840415 30.505621176197387 8.5854721528348641 #
straight-curve $-1 -48.425550096133307 33.021357043305251 0 0 0 -1 I I #
point $-1 -48.425550096133307 -33.021357043305251 -15.461597657304935 #
straight-curve $-1 -48.425550096133307 0 -15.461597657304935 0 1 0 I I #
point $-1 -48.425550096133307 33.021357043305251 -15.461597657304935 #
coedge $-1 $437 $383 $384 $434 reversed $292 $-1 #
edge $-1 $435 -48.425550096133307 $392 48.425550096133307 $433 $458 forward 7 unknown #
vertex $-1 $439 $459 #
straight-curve $-1 48.425550096133307 -40.074331359406514 5.9191551030137077 0 -1 0 I I #
coedge $-1 $386 $433 $388 $439 reversed $292 $-1 #
straight-curve $-1 0 -47.127305675507777 9.2581656118372564 1 0 0 I I #
edge $-1 $389 -1.6695052544117743 $435 1.6695052544117743 $388 $460 forward 7 unknown #
point $-1 48.425550096133307 -47.127305675507777 9.2581656118372564 #
straight-curve $-1 -48.425550096133307 -47.127305675507777 7.5886603574254821 0 0 -1 I I #
point $-1 -48.425550096133307 -47.127305675507777 5.9191551030137077 #
point $-1 -48.425550096133307 -47.127305675507777 9.2581656118372564 #
straight-curve $-1 -48.425550096133307 -1.6973517310157806 38.63586134406787 0 0 -1 I I #
point $-1 -48.425550096133307 -1.6973517310157806 15.461597657304935 #
straight-curve $-1 -48.425550096133307 -3.9352314490732248 5.2973294402478341 0 -1 0 I I #
point $-1 -48.425550096133307 -1.6973517310157806 5.2973294402478359 #
point $-1 -40.707253547758818 -10.516081969773882 8.0760366636041194 #
point $-1 -40.707253547758818 -5.2248438265190238 8.0760366636041194 #
straight-curve $-1 39.888555186184703 13.366008687767792 15.461597657304935 0 -1 0 I I #
straight-curve $-1 0 33.021357043305251 15.461597657304935 -1 0 0 I I #
straight-curve $-1 48.425550096133307 33.021357043305251 0 0 0 -1 I I #
point $-1 39.888555186184703 33.021357043305258 15.461597657304935 #
point $-1 48.425550096133307 33.021357043305251 15.461597657304935 #
point $-1 41.31950270258428 22.958413574873781 8.4868216165161368 #
point $-1 41.31950270258428 26.732017375535584 8.4868216165161368 #
point $-1 41.31950270258428 30.505621176197387 8.4868216165161368 #
straight-curve $-1 0 -47.127305675507777 5.9191551030137077 -1 0 0 I I #
point $-1 48.425550096133307 -47.127305675507777 5.9191551030137077 #
straight-curve $-1 48.425550096133307 -47.127305675507777 7.5886603574254821 0 0 -1 I I #
End-of-ACIS-data 