500 0 4 0           
7 Unknown 11 ACIS 5.0 NT 24 Thu Mar 25 23:12:25 1999 
-1 9.9999999999999995e-007 1e-010 
body $-1 $4 $-1 $5 #
body $-1 $6 $-1 $7 #
body $-1 $8 $-1 $9 #
body $-1 $10 $-1 $11 #
lump $-1 $-1 $12 $0 #
transform $-1 1 0 0 0 1 0 0 0 1 50.115054780724506 26.279241485605716 12.285968451251032 1 rotate no_reflect no_shear #
lump $-1 $-1 $13 $1 #
transform $-1 1 0 0 0 1 0 0 0 1 50.115054780724506 26.279241485605716 12.285968451251032 1 rotate no_reflect no_shear #
lump $-1 $-1 $14 $2 #
transform $-1 1 0 0 0 1 0 0 0 1 50.115054780724506 26.279241485605716 12.285968451251032 1 rotate no_reflect no_shear #
lump $-1 $-1 $15 $3 #
transform $-1 1 0 0 0 1 0 0 0 1 50.115054780724506 26.279241485605716 12.285968451251032 1 rotate no_reflect no_shear #
shell $-1 $-1 $-1 $16 $-1 $4 #
shell $-1 $-1 $-1 $17 $-1 $6 #
shell $-1 $-1 $-1 $18 $-1 $8 #
shell $-1 $-1 $-1 $19 $-1 $10 #
face $-1 $20 $21 $12 $-1 $22 forward single #
face $-1 $23 $24 $13 $-1 $25 forward single #
face $-1 $26 $27 $14 $-1 $28 reversed single #
face $-1 $29 $30 $15 $-1 $31 forward single #
face $-1 $32 $33 $12 $-1 $34 reversed single #
loop $-1 $-1 $35 $16 #
plane-surface $-1 0 0 12.285968451251032 0 0 1 1 0 0 forward_v I I I I #
face $-1 $36 $37 $13 $-1 $38 forward single #
loop $-1 $-1 $39 $17 #
plane-surface $-1 0 -26.279241485605716 0 0 1 0 0 0 1 forward_v I I I I #
face $-1 $40 $41 $14 $-1 $42 reversed single #
loop $-1 $-1 $43 $18 #
plane-surface $-1 -7.4368574316807603 46.570409926572701 120.39450597163436 1 0 0 0 -0.61566148304635926 -0.78801074757464917 forward_v I I I I #
face $-1 $44 $45 $15 $-1 $46 forward single #
loop $-1 $47 $48 $19 #
cone-surface $-1 5.094276890500403 23.748684295662741 10.078447640312834 0 -0.61566148304635926 -0.78801074757464917 1 0 0 1 I I 0 1 1 forward I I I I #
face $-1 $49 $50 $12 $-1 $51 reversed single #
loop $-1 $-1 $52 $20 #
plane-surface $-1 0 0 -12.285968451251032 0 0 1 1 0 0 forward_v I I I I #
coedge $-1 $53 $54 $55 $56 forward $21 $-1 #
face $-1 $57 $58 $13 $-1 $59 reversed single #
loop $-1 $-1 $60 $23 #
plane-surface $-1 0 0 12.285968451251032 0 0 1 1 0 0 forward_v I I I I #
coedge $-1 $61 $62 $63 $64 forward $24 $-1 #
face $-1 $65 $66 $14 $-1 $67 reversed single #
loop $-1 $-1 $68 $26 #
plane-surface $-1 5.0942768905003959 -15.13740797192807 41.412102406627938 0 0.61566148304635926 0.78801074757464917 1 0 0 forward_v I I I I #
coedge $-1 $69 $70 $71 $72 reversed $27 $-1 #
face $-1 $-1 $73 $15 $-1 $74 forward single #
loop $-1 $75 $76 $29 #
cone-surface $-1 5.094276890500403 22.978745752241807 9.0929712642602833 0 -0.61566148304635926 -0.78801074757464917 0.5 0 0 1 I I -0.70710678118654746 0.70710678118654746 0.5 forward I I I I #
loop $-1 $-1 $77 $19 #
coedge $-1 $48 $48 $78 $79 reversed $30 $-1 #
face $-1 $80 $81 $12 $-1 $82 reversed single #
loop $-1 $-1 $83 $32 #
plane-surface $-1 0 -26.279241485605716 0 0 1 0 0 0 1 forward_v I I I I #
coedge $-1 $84 $85 $86 $87 forward $33 $-1 #
coedge $-1 $88 $35 $89 $90 forward $21 $-1 #
coedge $-1 $35 $88 $91 $92 forward $21 $-1 #
coedge $-1 $93 $94 $35 $56 reversed $95 $-1 #
edge $-1 $96 -26.279241485605716 $97 26.279241485605716 $55 $98 forward 7 unknown #
face $-1 $99 $100 $13 $-1 $101 reversed single #
loop $-1 $-1 $102 $36 #
plane-surface $-1 -50.115054780724506 0 0 1 0 0 0 0 -1 forward_v I I I I #
coedge $-1 $103 $104 $105 $106 forward $37 $-1 #
coedge $-1 $105 $39 $102 $107 reversed $24 $-1 #
coedge $-1 $39 $105 $108 $109 reversed $24 $-1 #
coedge $-1 $110 $111 $39 $64 reversed $100 $-1 #
edge $-1 $112 -50.115054780724506 $113 50.115054780724506 $63 $114 forward 7 unknown #
face $-1 $115 $116 $14 $-1 $117 reversed single #
loop $-1 $-1 $118 $40 #
plane-surface $-1 17.625411212681552 46.570409926572701 120.39450597163436 -1 0 0 0 0.61566148304635926 0.78801074757464917 forward_v I I I I #
coedge $-1 $119 $120 $121 $122 reversed $41 $-1 #
coedge $-1 $70 $43 $123 $124 reversed $27 $-1 #
coedge $-1 $43 $69 $119 $125 reversed $27 $-1 #
coedge $-1 $121 $126 $43 $72 forward $127 $-1 #
edge $-1 $128 -2.9940365223193659 $129 1.1428622537710815 $71 $130 forward 7 unknown #
loop $-1 $-1 $78 $44 #
plane-surface $-1 5.0942768905003959 -15.13740797192807 41.412102406627938 0 0.61566148304635926 0.78801074757464917 1 0 0 forward_v I I I I #
loop $-1 $-1 $131 $29 #
coedge $-1 $76 $76 $77 $132 reversed $45 $-1 #
coedge $-1 $77 $77 $76 $132 forward $47 $-1 #
coedge $-1 $78 $78 $48 $79 forward $73 $-1 #
edge $-1 $133 -3.8932110481149662e-015 $133 6.2831853071795969 $78 $134 forward 7 unknown #
face $-1 $135 $136 $12 $-1 $137 reversed single #
loop $-1 $-1 $138 $49 #
plane-surface $-1 -50.115054780724506 0 0 1 0 0 0 0 -1 forward_v I I I I #
coedge $-1 $139 $91 $140 $141 forward $50 $-1 #
coedge $-1 $142 $52 $139 $143 forward $33 $-1 #
coedge $-1 $52 $142 $144 $145 forward $33 $-1 #
coedge $-1 $94 $93 $52 $87 reversed $95 $-1 #
edge $-1 $146 -26.279241485605716 $147 26.279241485605716 $86 $148 forward 7 unknown #
coedge $-1 $54 $53 $149 $150 forward $21 $-1 #
coedge $-1 $151 $152 $53 $90 reversed $136 $-1 #
edge $-1 $97 -50.115054780724506 $153 50.115054780724506 $89 $154 forward 7 unknown #
coedge $-1 $83 $155 $54 $92 reversed $50 $-1 #
edge $-1 $156 -50.115054780724506 $96 50.115054780724506 $91 $157 forward 7 unknown #
coedge $-1 $86 $55 $155 $158 forward $95 $-1 #
coedge $-1 $55 $86 $151 $159 reversed $95 $-1 #
loop $-1 $-1 $93 $135 #
vertex $-1 $56 $160 #
vertex $-1 $56 $161 #
straight-curve $-1 50.115054780724506 0 12.285968451251032 0 1 0 I I #
face $-1 $162 $163 $13 $-1 $164 reversed single #
loop $-1 $-1 $110 $57 #
plane-surface $-1 0 -31.765453015584246 8.2422886710037773 0 0 1 1 0 0 forward_v I I I I #
coedge $-1 $165 $166 $61 $107 forward $58 $-1 #
coedge $-1 $167 $60 $166 $168 forward $37 $-1 #
coedge $-1 $60 $167 $169 $170 forward $37 $-1 #
coedge $-1 $62 $61 $60 $106 reversed $24 $-1 #
edge $-1 $171 -50.115054780724506 $172 50.115054780724506 $60 $173 forward 7 unknown #
edge $-1 $172 -12.285968451251032 $113 -8.2422886710037773 $102 $174 forward 7 unknown #
coedge $-1 $169 $175 $62 $109 forward $176 $-1 #
edge $-1 $112 8.2422886710037773 $171 12.285968451251032 $108 $177 forward 7 unknown #
coedge $-1 $178 $63 $175 $179 forward $100 $-1 #
coedge $-1 $63 $178 $165 $180 forward $100 $-1 #
vertex $-1 $109 $181 #
vertex $-1 $107 $182 #
straight-curve $-1 0 -26.279241485605716 8.2422886710037773 -1 0 0 I I #
face $-1 $-1 $127 $14 $-1 $183 forward single #
loop $-1 $-1 $184 $65 #
plane-surface $-1 0 26.279241485605716 0 0 -1 0 0 0 -1 forward_v I I I I #
coedge $-1 $185 $186 $187 $188 reversed $66 $-1 #
coedge $-1 $189 $68 $70 $125 forward $41 $-1 #
coedge $-1 $68 $189 $185 $190 forward $41 $-1 #
coedge $-1 $187 $71 $68 $122 forward $127 $-1 #
edge $-1 $129 -9.9839958769309582 $191 15.078272767431354 $121 $192 forward 7 unknown #
coedge $-1 $193 $194 $69 $124 forward $116 $-1 #
edge $-1 $195 -51.143384151912088 $128 -47.91128453456615 $123 $196 forward 7 unknown #
edge $-1 $129 47.308683030254969 $195 52.558482971211433 $70 $197 forward 7 unknown #
coedge $-1 $71 $187 $193 $198 forward $127 $-1 #
loop $-1 $-1 $187 $115 #
vertex $-1 $124 $199 #
vertex $-1 $72 $200 #
straight-curve $-1 -7.4368574316807603 23.28520496328635 12.28596845125103 0 -1 0 I I #
coedge $-1 $131 $131 $-1 $201 reversed $75 $-1 #
edge $-1 $202 0 $202 6.2831853071796004 $76 $203 forward 7 unknown #
vertex $-1 $79 $204 #
ellipse-curve $-1 5.094276890500403 24.210792097560496 10.669918642578061 0 0.61566148304635926 0.78801074757464917 1 0 0 1 I I #
face $-1 $-1 $95 $12 $-1 $205 reversed single #
loop $-1 $-1 $151 $80 #
plane-surface $-1 0 26.279241485605716 0 0 -1 0 0 0 -1 forward_v I I I I #
coedge $-1 $206 $149 $152 $207 forward $81 $-1 #
coedge $-1 $155 $83 $84 $143 reversed $50 $-1 #
coedge $-1 $149 $206 $83 $141 reversed $81 $-1 #
edge $-1 $156 -12.285968451251032 $208 12.285968451251032 $140 $209 forward 7 unknown #
coedge $-1 $85 $84 $206 $210 forward $33 $-1 #
edge $-1 $147 -50.115054780724506 $208 50.115054780724506 $139 $211 forward 7 unknown #
coedge $-1 $152 $151 $85 $145 reversed $136 $-1 #
edge $-1 $212 -50.115054780724506 $146 50.115054780724506 $144 $213 forward 7 unknown #
vertex $-1 $87 $214 #
vertex $-1 $158 $215 #
straight-curve $-1 50.115054780724506 0 -12.285968451251032 0 -1 0 I I #
coedge $-1 $138 $140 $88 $150 reversed $81 $-1 #
edge $-1 $153 -26.279241485605716 $156 26.279241485605716 $149 $216 forward 7 unknown #
coedge $-1 $144 $89 $94 $159 forward $136 $-1 #
coedge $-1 $89 $144 $138 $207 reversed $136 $-1 #
vertex $-1 $90 $217 #
straight-curve $-1 0 26.279241485605716 12.285968451251032 -1 0 0 I I #
coedge $-1 $91 $139 $93 $158 reversed $50 $-1 #
vertex $-1 $150 $218 #
straight-curve $-1 0 -26.279241485605716 12.285968451251032 1 0 0 I I #
edge $-1 $96 -12.285968451251032 $147 12.285968451251032 $93 $219 forward 7 unknown #
edge $-1 $97 -12.285968451251032 $146 12.285968451251032 $94 $220 forward 7 unknown #
point $-1 50.115054780724506 -26.279241485605716 12.285968451251032 #
point $-1 50.115054780724506 26.279241485605716 12.285968451251032 #
face $-1 $-1 $176 $13 $-1 $221 reversed single #
loop $-1 $-1 $222 $99 #
plane-surface $-1 0 -37.251664545562775 10.264128561127405 0 1 0 0 0 1 forward_v I I I I #
coedge $-1 $223 $102 $111 $180 reversed $58 $-1 #
coedge $-1 $102 $223 $103 $168 reversed $58 $-1 #
coedge $-1 $104 $103 $224 $225 forward $37 $-1 #
edge $-1 $172 26.279241485605716 $226 37.251664545562775 $166 $227 forward 7 unknown #
coedge $-1 $228 $108 $104 $170 reversed $176 $-1 #
edge $-1 $229 -37.251664545562775 $171 -26.279241485605716 $169 $230 forward 7 unknown #
vertex $-1 $109 $231 #
vertex $-1 $168 $232 #
straight-curve $-1 0 -26.279241485605716 12.285968451251032 -1 0 0 I I #
straight-curve $-1 -50.115054780724506 -26.279241485605716 0 0 0 -1 I I #
coedge $-1 $108 $228 $110 $179 reversed $176 $-1 #
loop $-1 $-1 $108 $162 #
straight-curve $-1 50.115054780724506 -26.279241485605716 0 0 0 1 I I #
coedge $-1 $111 $110 $233 $234 forward $100 $-1 #
edge $-1 $112 -5.4862115299785295 $235 5.4862115299785295 $175 $236 forward 7 unknown #
edge $-1 $237 -5.4862115299785295 $113 5.4862115299785295 $165 $238 forward 7 unknown #
point $-1 50.115054780724506 -26.279241485605716 8.2422886710037773 #
point $-1 -50.115054780724506 -26.279241485605716 8.2422886710037773 #
plane-surface $-1 0 0 12.285968451251032 0 0 1 1 0 0 forward_v I I I I #
coedge $-1 $194 $193 $186 $239 forward $116 $-1 #
coedge $-1 $186 $118 $120 $190 reversed $66 $-1 #
coedge $-1 $118 $185 $184 $239 reversed $66 $-1 #
coedge $-1 $126 $121 $118 $188 forward $127 $-1 #
edge $-1 $191 -1.1428622537710815 $240 2.9940365223193659 $187 $241 forward 7 unknown #
coedge $-1 $120 $119 $194 $242 reversed $41 $-1 #
edge $-1 $243 -52.558482971211433 $191 -47.308683030254969 $185 $244 forward 7 unknown #
vertex $-1 $122 $245 #
straight-curve $-1 2.5471384452501979 22.142342709515283 12.285968451251026 1 0 0 I I #
coedge $-1 $184 $123 $126 $198 reversed $116 $-1 #
coedge $-1 $123 $184 $189 $242 forward $116 $-1 #
vertex $-1 $124 $246 #
straight-curve $-1 -7.4368574316807603 26.279241485605716 60.19725298581718 0 0 1 I I #
straight-curve $-1 -7.4368574316807603 -15.13740797192807 41.412102406627938 0 0.78801074757464917 -0.61566148304635926 I I #
edge $-1 $240 -17.625411212681552 $128 7.4368574316807603 $193 $247 forward 7 unknown #
point $-1 -7.4368574316807603 26.279241485605716 12.285968451251032 #
point $-1 -7.4368574316807603 22.142342709515269 12.28596845125103 #
edge $-1 $248 1 $248 0 $131 $-1 forward 7 unknown #
vertex $-1 $132 $249 #
ellipse-curve $-1 5.094276890500403 23.286576493764986 9.4869766380476079 0 0.61566148304635926 0.78801074757464917 1 0 0 1 I I #
point $-1 6.094276890500403 24.210792097560493 10.669918642578063 #
plane-surface $-1 50.115054780724506 0 0 -1 0 0 0 0 1 forward_v I I I I #
coedge $-1 $140 $138 $142 $210 reversed $81 $-1 #
edge $-1 $153 -12.285968451251032 $212 12.285968451251032 $152 $250 forward 7 unknown #
vertex $-1 $210 $251 #
straight-curve $-1 -50.115054780724506 -26.279241485605716 0 0 0 -1 I I #
edge $-1 $208 -26.279241485605716 $212 26.279241485605716 $206 $252 forward 7 unknown #
straight-curve $-1 0 -26.279241485605716 -12.285968451251032 -1 0 0 I I #
vertex $-1 $145 $253 #
straight-curve $-1 0 26.279241485605716 -12.285968451251032 1 0 0 I I #
point $-1 50.115054780724506 26.279241485605716 -12.285968451251032 #
point $-1 50.115054780724506 -26.279241485605716 -12.285968451251032 #
straight-curve $-1 -50.115054780724506 0 12.285968451251032 0 -1 0 I I #
point $-1 -50.115054780724506 26.279241485605716 12.285968451251032 #
point $-1 -50.115054780724506 -26.279241485605716 12.285968451251032 #
straight-curve $-1 50.115054780724506 -26.279241485605716 0 0 0 -1 I I #
straight-curve $-1 50.115054780724506 26.279241485605716 0 0 0 -1 I I #
plane-surface $-1 50.115054780724506 0 0 -1 0 0 0 0 1 forward_v I I I I #
coedge $-1 $233 $224 $223 $254 forward $163 $-1 #
coedge $-1 $166 $165 $222 $254 reversed $58 $-1 #
coedge $-1 $222 $255 $167 $225 reversed $163 $-1 #
edge $-1 $226 -50.115054780724506 $229 50.115054780724506 $224 $256 forward 7 unknown #
vertex $-1 $168 $257 #
straight-curve $-1 -50.115054780724506 0 12.285968451251032 0 -1 0 I I #
coedge $-1 $175 $169 $255 $258 forward $176 $-1 #
vertex $-1 $170 $259 #
straight-curve $-1 50.115054780724506 0 12.285968451251032 0 1 0 I I #
point $-1 50.115054780724506 -26.279241485605716 12.285968451251032 #
point $-1 -50.115054780724506 -26.279241485605716 12.285968451251032 #
coedge $-1 $255 $222 $178 $234 reversed $163 $-1 #
edge $-1 $235 -50.115054780724506 $237 50.115054780724506 $233 $260 forward 7 unknown #
vertex $-1 $258 $261 #
straight-curve $-1 50.115054780724506 -31.765453015584246 8.2422886710037773 0 -1 0 I I #
vertex $-1 $180 $262 #
straight-curve $-1 -50.115054780724506 -31.765453015584246 8.2422886710037773 0 1 0 I I #
edge $-1 $240 47.91128453456615 $243 51.143384151912088 $184 $263 forward 7 unknown #
vertex $-1 $198 $264 #
straight-curve $-1 17.625411212681552 23.28520496328635 12.28596845125103 0 1 0 I I #
edge $-1 $243 -15.078272767431354 $195 9.9839958769309582 $194 $265 forward 7 unknown #
vertex $-1 $242 $266 #
straight-curve $-1 17.625411212681552 -15.13740797192807 41.412102406627938 0 -0.78801074757464917 0.61566148304635926 I I #
point $-1 17.625411212681552 22.142342709515269 12.28596845125103 #
point $-1 -7.4368574316807603 26.279241485605716 9.0538688339050921 #
straight-curve $-1 0 26.279241485605716 12.285968451251032 -1 0 0 I I #
vertex $-1 $201 $267 #
point $-1 6.094276890500403 23.286576493764986 9.4869766380476079 #
straight-curve $-1 -50.115054780724506 26.279241485605716 0 0 0 -1 I I #
point $-1 -50.115054780724506 -26.279241485605716 -12.285968451251032 #
straight-curve $-1 -50.115054780724506 0 -12.285968451251032 0 1 0 I I #
point $-1 -50.115054780724506 26.279241485605716 -12.285968451251032 #
edge $-1 $226 -2.0218398901236281 $237 2.0218398901236281 $223 $268 forward 7 unknown #
coedge $-1 $224 $233 $228 $258 reversed $163 $-1 #
straight-curve $-1 0 -37.251664545562775 12.285968451251033 1 0 0 I I #
point $-1 -50.115054780724506 -37.251664545562775 12.285968451251033 #
edge $-1 $229 -2.0218398901236281 $235 2.0218398901236281 $228 $269 forward 7 unknown #
point $-1 50.115054780724506 -37.251664545562775 12.285968451251033 #
straight-curve $-1 0 -37.251664545562775 8.2422886710037773 -1 0 0 I I #
point $-1 50.115054780724506 -37.251664545562775 8.2422886710037773 #
point $-1 -50.115054780724506 -37.251664545562775 8.2422886710037773 #
straight-curve $-1 17.625411212681552 26.279241485605716 60.19725298581718 0 0 -1 I I #
point $-1 17.625411212681552 26.279241485605716 12.285968451251032 #
straight-curve $-1 2.5471384452501979 26.279241485605716 9.0538688339050921 -1 0 0 I I #
point $-1 17.625411212681552 26.279241485605716 9.0538688339050921 #
point $-1 5.094276890500403 22.670915010718627 8.6989658904729588 #
straight-curve $-1 -50.115054780724506 -37.251664545562775 10.264128561127405 0 0 -1 I I #
straight-curve $-1 50.115054780724506 -37.251664545562775 10.264128561127405 0 0 -1 I I #
End-of-ACIS-data 