500 0 7 0           
7 Unknown 11 ACIS 5.0 NT 24 Fri Mar 26 20:14:47 1999 
-1 9.9999999999999995e-007 1e-010 
body $-1 $7 $-1 $8 #
body $-1 $9 $-1 $10 #
body $-1 $11 $-1 $12 #
body $-1 $13 $-1 $14 #
body $-1 $15 $-1 $16 #
body $-1 $17 $-1 $18 #
body $-1 $19 $-1 $20 #
lump $-1 $-1 $21 $0 #
transform $-1 1 0 0 0 1 0 0 0 1 58.225653859065524 27.717024716748682 7.3197577344252771 1 rotate no_reflect no_shear #
lump $-1 $-1 $22 $1 #
transform $-1 1 0 0 0 1 0 0 0 1 58.225653859065524 27.717024716748682 7.3197577344252771 1 rotate no_reflect no_shear #
lump $-1 $-1 $23 $2 #
transform $-1 1 0 0 0 1 0 0 0 1 58.225653859065524 27.717024716748682 7.3197577344252771 1 rotate no_reflect no_shear #
lump $-1 $-1 $24 $3 #
transform $-1 1 0 0 0 1 0 0 0 1 58.225653859065524 27.717024716748682 7.3197577344252771 1 rotate no_reflect no_shear #
lump $-1 $-1 $25 $4 #
transform $-1 1 0 0 0 1 0 0 0 1 58.225653859065524 27.717024716748682 7.3197577344252771 1 rotate no_reflect no_shear #
lump $-1 $-1 $26 $5 #
transform $-1 1 0 0 0 1 0 0 0 1 58.225653859065524 27.717024716748682 7.3197577344252771 1 rotate no_reflect no_shear #
lump $-1 $-1 $27 $6 #
transform $-1 1 0 0 0 1 0 0 0 1 58.225653859065524 27.717024716748682 7.3197577344252771 1 rotate no_reflect no_shear #
shell $-1 $-1 $-1 $28 $-1 $7 #
shell $-1 $-1 $-1 $29 $-1 $9 #
shell $-1 $-1 $-1 $30 $-1 $11 #
shell $-1 $-1 $-1 $31 $-1 $13 #
shell $-1 $-1 $-1 $32 $-1 $15 #
shell $-1 $-1 $-1 $33 $-1 $17 #
shell $-1 $-1 $-1 $34 $-1 $19 #
face $-1 $35 $36 $21 $-1 $37 forward single #
face $-1 $38 $39 $22 $-1 $40 forward single #
face $-1 $41 $42 $23 $-1 $43 reversed single #
face $-1 $44 $45 $24 $-1 $46 forward single #
face $-1 $47 $48 $25 $-1 $49 forward single #
face $-1 $50 $51 $26 $-1 $52 reversed single #
face $-1 $53 $54 $27 $-1 $55 forward single #
face $-1 $56 $57 $21 $-1 $58 reversed single #
loop $-1 $-1 $59 $28 #
plane-surface $-1 0 0 7.3197577344252771 0 0 1 1 0 0 forward_v I I I I #
face $-1 $60 $61 $22 $-1 $62 reversed single #
loop $-1 $-1 $63 $29 #
plane-surface $-1 0 -24.262817035439788 -4.3197577344252771 0 0 1 1 0 0 forward_v I I I I #
face $-1 $64 $65 $23 $-1 $66 reversed single #
loop $-1 $-1 $67 $30 #
plane-surface $-1 -156.98196458718556 -20.808609354130894 65.844190972873434 0 1 0 -0.84804810408105047 0 0.52991925155115449 forward_v I I I I #
face $-1 $68 $69 $24 $-1 $70 forward single #
loop $-1 $71 $72 $31 #
cone-surface $-1 -56.512326318566373 -18.57086844840984 5.2783534496123536 0.84804810408105047 0 -0.52991925155115449 0.26495962577557725 0 0.42402405204052523 1 I I 0 1 0.5 forward I I I I #
face $-1 $73 $74 $25 $-1 $75 forward single #
loop $-1 $76 $77 $32 #
cone-surface $-1 -56.512326318566373 -15.214257089828262 5.2783534496123536 0.84804810408105047 0 -0.52991925155115449 0.26495962577557725 0 0.42402405204052523 1 I I 0 1 0.5 forward I I I I #
face $-1 $78 $79 $26 $-1 $80 reversed single #
loop $-1 $-1 $81 $33 #
plane-surface $-1 52.47816161666946 17.969333368839319 167.70690911675754 0 -1 0 -0.68199836817093118 0 -0.7313536940579346 forward_v I I I I #
face $-1 $82 $83 $27 $-1 $84 forward single #
loop $-1 $85 $86 $34 #
cone-surface $-1 54.721800055862154 10.928281676782802 3.8772471385941261 -0.68199836817093118 0 -0.7313536940579346 1.0970305410869019 0 -1.0229975522563968 1 I I 0 1 1.5 forward I I I I #
face $-1 $87 $88 $21 $-1 $89 reversed single #
loop $-1 $-1 $90 $35 #
plane-surface $-1 0 0 -7.3197577344252771 0 0 1 1 0 0 forward_v I I I I #
coedge $-1 $91 $92 $93 $94 forward $36 $-1 #
face $-1 $95 $96 $22 $-1 $97 reversed single #
loop $-1 $-1 $98 $38 #
plane-surface $-1 0 -20.808609354130894 -5.8197577344252771 0 -1 0 0 0 -1 forward_v I I I I #
coedge $-1 $99 $100 $101 $102 reversed $39 $-1 #
face $-1 $103 $104 $23 $-1 $105 reversed single #
loop $-1 $-1 $106 $41 #
plane-surface $-1 -58.225653859065517 -16.892562769119053 4.1344011447282512 -0.84804810408105047 0 0.52991925155115449 0.52991925155115449 0 0.84804810408105047 forward_v I I I I #
coedge $-1 $107 $108 $109 $110 reversed $42 $-1 #
face $-1 $-1 $111 $24 $-1 $112 forward single #
loop $-1 $113 $114 $44 #
cone-surface $-1 -55.582202572831619 -18.57086844840984 4.697147646760147 0.84804810408105047 0 -0.52991925155115449 0.13247981288778862 0 0.21201202602026262 1 I I -0.70710678118654746 0.70710678118654746 0.25 forward I I I I #
loop $-1 $-1 $115 $31 #
coedge $-1 $72 $72 $116 $117 reversed $45 $-1 #
face $-1 $-1 $118 $25 $-1 $119 forward single #
loop $-1 $120 $121 $47 #
cone-surface $-1 -55.582202572831619 -15.214257089828262 4.697147646760147 0.84804810408105047 0 -0.52991925155115449 0.13247981288778862 0 0.21201202602026262 1 I I -0.70710678118654746 0.70710678118654746 0.25 forward I I I I #
loop $-1 $-1 $122 $32 #
coedge $-1 $77 $77 $123 $124 reversed $48 $-1 #
face $-1 $125 $126 $26 $-1 $127 reversed single #
loop $-1 $-1 $128 $50 #
plane-surface $-1 -26.941440218466873 10.928281676782802 82.539815039225132 0.68199836817093118 0 0.7313536940579346 0.7313536940579346 0 -0.68199836817093118 forward_v I I I I #
coedge $-1 $129 $130 $131 $132 reversed $51 $-1 #
face $-1 $-1 $133 $27 $-1 $134 forward single #
loop $-1 $135 $136 $53 #
cone-surface $-1 52.958177501823407 10.928281676782802 1.985993537387774 -0.68199836817093118 0 -0.7313536940579346 0.54851527054345095 0 -0.51149877612819838 1 I I -0.70710678118654757 0.70710678118654757 0.75 forward I I I I #
loop $-1 $-1 $137 $34 #
coedge $-1 $86 $86 $138 $139 reversed $54 $-1 #
face $-1 $140 $141 $21 $-1 $142 reversed single #
loop $-1 $-1 $143 $56 #
plane-surface $-1 0 -27.717024716748682 0 0 1 0 0 0 1 forward_v I I I I #
coedge $-1 $144 $145 $146 $147 forward $57 $-1 #
coedge $-1 $148 $59 $149 $150 forward $36 $-1 #
coedge $-1 $59 $148 $151 $152 forward $36 $-1 #
coedge $-1 $153 $154 $59 $94 reversed $155 $-1 #
edge $-1 $156 -27.717024716748682 $157 27.717024716748682 $93 $158 forward 7 unknown #
face $-1 $159 $160 $22 $-1 $161 reversed single #
loop $-1 $-1 $162 $60 #
plane-surface $-1 0 0 -7.3197577344252771 0 0 1 1 0 0 forward_v I I I I #
coedge $-1 $163 $164 $165 $166 reversed $61 $-1 #
coedge $-1 $167 $63 $164 $168 forward $39 $-1 #
coedge $-1 $63 $167 $169 $170 reversed $39 $-1 #
coedge $-1 $171 $165 $63 $102 forward $160 $-1 #
edge $-1 $172 8.677200836411 $173 15.585616199028788 $101 $174 forward 7 unknown #
face $-1 $175 $176 $23 $-1 $177 forward single #
loop $-1 $-1 $178 $64 #
plane-surface $-1 -156.98196458718556 -12.976516184107211 65.844190972873434 0 -1 0 0.84804810408105047 0 -0.52991925155115449 forward_v I I I I #
coedge $-1 $179 $180 $181 $182 reversed $65 $-1 #
coedge $-1 $108 $67 $183 $184 reversed $42 $-1 #
coedge $-1 $67 $107 $179 $185 reversed $42 $-1 #
coedge $-1 $181 $186 $67 $110 forward $176 $-1 #
edge $-1 $187 20.265328434527255 $188 22.255760076096571 $109 $189 forward 7 unknown #
loop $-1 $-1 $116 $68 #
plane-surface $-1 -58.225653859065517 -16.892562769119053 4.1344011447282512 -0.84804810408105047 0 0.52991925155115449 0.52991925155115449 0 0.84804810408105047 forward_v I I I I #
loop $-1 $-1 $190 $44 #
coedge $-1 $114 $114 $115 $191 reversed $69 $-1 #
coedge $-1 $115 $115 $114 $191 forward $71 $-1 #
coedge $-1 $116 $116 $72 $117 forward $111 $-1 #
edge $-1 $192 0 $192 6.2831853071796004 $116 $193 forward 7 unknown #
loop $-1 $-1 $123 $73 #
plane-surface $-1 -58.225653859065517 -16.892562769119053 4.1344011447282512 -0.84804810408105047 0 0.52991925155115449 0.52991925155115449 0 0.84804810408105047 forward_v I I I I #
loop $-1 $-1 $194 $47 #
coedge $-1 $121 $121 $122 $195 reversed $74 $-1 #
coedge $-1 $122 $122 $121 $195 forward $76 $-1 #
coedge $-1 $123 $123 $77 $124 forward $118 $-1 #
edge $-1 $196 0 $196 6.2831853071796004 $123 $197 forward 7 unknown #
face $-1 $198 $199 $26 $-1 $200 reversed single #
loop $-1 $-1 $201 $78 #
plane-surface $-1 52.47816161666946 3.8872299847262859 167.70690911675754 0 1 0 0.68199836817093118 0 0.7313536940579346 forward_v I I I I #
coedge $-1 $202 $203 $204 $205 reversed $79 $-1 #
coedge $-1 $130 $81 $206 $207 reversed $51 $-1 #
coedge $-1 $81 $129 $202 $208 reversed $51 $-1 #
coedge $-1 $204 $209 $81 $132 forward $210 $-1 #
edge $-1 $211 -31.986573050730794 $212 -27.483113000145178 $131 $213 forward 7 unknown #
loop $-1 $-1 $138 $82 #
plane-surface $-1 -26.941440218466873 10.928281676782802 82.539815039225132 0.68199836817093118 0 0.7313536940579346 0.7313536940579346 0 -0.68199836817093118 forward_v I I I I #
loop $-1 $-1 $214 $53 #
coedge $-1 $136 $136 $137 $215 reversed $83 $-1 #
coedge $-1 $137 $137 $136 $215 forward $85 $-1 #
coedge $-1 $138 $138 $86 $139 forward $133 $-1 #
edge $-1 $216 0 $216 6.2831853071796004 $138 $217 forward 7 unknown #
face $-1 $218 $219 $21 $-1 $220 reversed single #
loop $-1 $-1 $221 $87 #
plane-surface $-1 -58.225653859065524 0 0 1 0 0 0 0 -1 forward_v I I I I #
coedge $-1 $222 $151 $223 $224 forward $88 $-1 #
coedge $-1 $225 $90 $222 $226 forward $57 $-1 #
coedge $-1 $90 $225 $227 $228 forward $57 $-1 #
coedge $-1 $154 $153 $90 $147 reversed $155 $-1 #
edge $-1 $229 -27.717024716748682 $230 27.717024716748682 $146 $231 forward 7 unknown #
coedge $-1 $92 $91 $232 $233 forward $36 $-1 #
coedge $-1 $234 $235 $91 $150 reversed $219 $-1 #
edge $-1 $157 -58.225653859065524 $236 58.225653859065524 $149 $237 forward 7 unknown #
coedge $-1 $143 $238 $92 $152 reversed $88 $-1 #
edge $-1 $239 -58.225653859065524 $156 58.225653859065524 $151 $240 forward 7 unknown #
coedge $-1 $146 $93 $238 $241 forward $155 $-1 #
coedge $-1 $93 $146 $234 $242 reversed $155 $-1 #
loop $-1 $-1 $153 $218 #
vertex $-1 $94 $243 #
vertex $-1 $94 $244 #
straight-curve $-1 58.225653859065524 0 7.3197577344252771 0 1 0 I I #
face $-1 $245 $246 $22 $-1 $247 reversed single #
loop $-1 $-1 $165 $95 #
plane-surface $-1 58.225653859065524 0 0 -1 0 0 0 0 1 forward_v I I I I #
coedge $-1 $248 $249 $163 $250 forward $96 $-1 #
coedge $-1 $251 $98 $162 $250 reversed $61 $-1 #
coedge $-1 $98 $251 $99 $168 reversed $61 $-1 #
coedge $-1 $101 $252 $98 $166 forward $160 $-1 #
edge $-1 $253 -4.4098788672126386 $172 -1.4098788672126386 $165 $254 forward 7 unknown #
coedge $-1 $100 $99 $255 $256 reversed $39 $-1 #
edge $-1 $172 -58.225653859065524 $257 58.225653859065524 $164 $258 forward 7 unknown #
coedge $-1 $259 $260 $100 $170 forward $246 $-1 #
edge $-1 $173 -58.225653859065524 $261 58.225653859065524 $169 $262 forward 7 unknown #
coedge $-1 $252 $101 $260 $263 forward $160 $-1 #
vertex $-1 $102 $264 #
vertex $-1 $263 $265 #
straight-curve $-1 58.225653859065524 -12.131408517719894 -4.3197577344252771 0 -1 0 I I #
face $-1 $-1 $266 $23 $-1 $267 reversed single #
loop $-1 $-1 $109 $103 #
plane-surface $-1 0 0 7.3197577344252771 0 0 1 1 0 0 forward_v I I I I #
coedge $-1 $268 $269 $270 $271 reversed $104 $-1 #
coedge $-1 $272 $106 $108 $185 forward $65 $-1 #
coedge $-1 $106 $272 $268 $273 forward $65 $-1 #
coedge $-1 $270 $109 $106 $182 forward $176 $-1 #
edge $-1 $188 -12.362327969571368 $274 -4.530234799547685 $181 $275 forward 7 unknown #
coedge $-1 $276 $277 $107 $184 forward $266 $-1 #
edge $-1 $278 -28.787694341708477 $187 -25.60233775201144 $183 $279 forward 7 unknown #
edge $-1 $188 -3.7561036624787878 $278 1.3557137071152151e-014 $108 $280 forward 7 unknown #
coedge $-1 $109 $270 $276 $281 forward $176 $-1 #
vertex $-1 $184 $282 #
vertex $-1 $110 $283 #
straight-curve $-1 -78.490982293592779 -20.808609354130894 7.3197577344252771 1 0 0 I I #
coedge $-1 $190 $190 $-1 $284 reversed $113 $-1 #
edge $-1 $285 0 $285 6.2831853071796004 $114 $286 forward 7 unknown #
vertex $-1 $117 $287 #
ellipse-curve $-1 -57.230438038280859 -18.57086844840984 5.7270794395767668 -0.84804810408105047 0 0.52991925155115449 0.26495962577557725 0 0.42402405204052523 1 I I #
coedge $-1 $194 $194 $-1 $288 reversed $120 $-1 #
edge $-1 $289 0 $289 6.2831853071796004 $121 $290 forward 7 unknown #
vertex $-1 $124 $291 #
ellipse-curve $-1 -57.230438038280859 -15.214257089828262 5.7270794395767668 -0.84804810408105047 0 0.52991925155115449 0.26495962577557725 0 0.42402405204052523 1 I I #
face $-1 $-1 $210 $26 $-1 $292 forward single #
loop $-1 $-1 $293 $125 #
plane-surface $-1 58.225653859065524 0 0 -1 0 0 0 0 1 forward_v I I I I #
coedge $-1 $294 $295 $296 $297 reversed $126 $-1 #
coedge $-1 $298 $128 $130 $208 forward $79 $-1 #
coedge $-1 $128 $298 $294 $299 forward $79 $-1 #
coedge $-1 $296 $131 $128 $205 forward $210 $-1 #
edge $-1 $212 -12.505192530447918 $300 1.5769108536651153 $204 $301 forward 7 unknown #
coedge $-1 $302 $303 $129 $207 forward $199 $-1 #
edge $-1 $304 -80.733241354289973 $211 -76.533696823953491 $206 $305 forward 7 unknown #
edge $-1 $212 110.29360305734227 $304 116.45130771813103 $130 $306 forward 7 unknown #
coedge $-1 $131 $296 $302 $307 forward $210 $-1 #
loop $-1 $-1 $296 $198 #
vertex $-1 $207 $308 #
vertex $-1 $132 $309 #
straight-curve $-1 26.23908080833473 17.969333368839319 7.3197577344252807 -1 0 0 I I #
coedge $-1 $214 $214 $-1 $310 reversed $135 $-1 #
edge $-1 $311 0 $311 6.2831853071796004 $136 $312 forward 7 unknown #
vertex $-1 $139 $313 #
ellipse-curve $-1 55.973923833772716 10.928281676782802 5.2199854692570415 0.68199836817093118 0 0.7313536940579346 1.0970305410869019 0 -1.0229975522563968 1 I I #
face $-1 $-1 $155 $21 $-1 $314 reversed single #
loop $-1 $-1 $234 $140 #
plane-surface $-1 0 27.717024716748682 0 0 -1 0 0 0 -1 forward_v I I I I #
coedge $-1 $315 $232 $235 $316 forward $141 $-1 #
coedge $-1 $238 $143 $144 $226 reversed $88 $-1 #
coedge $-1 $232 $315 $143 $224 reversed $141 $-1 #
edge $-1 $239 -7.3197577344252771 $317 7.3197577344252771 $223 $318 forward 7 unknown #
coedge $-1 $145 $144 $315 $319 forward $57 $-1 #
edge $-1 $230 -58.225653859065524 $317 58.225653859065524 $222 $320 forward 7 unknown #
coedge $-1 $235 $234 $145 $228 reversed $219 $-1 #
edge $-1 $321 -58.225653859065524 $229 58.225653859065524 $227 $322 forward 7 unknown #
vertex $-1 $147 $323 #
vertex $-1 $241 $324 #
straight-curve $-1 58.225653859065524 0 -7.3197577344252771 0 -1 0 I I #
coedge $-1 $221 $223 $148 $233 reversed $141 $-1 #
edge $-1 $236 -27.717024716748682 $239 27.717024716748682 $232 $325 forward 7 unknown #
coedge $-1 $227 $149 $154 $242 forward $219 $-1 #
coedge $-1 $149 $227 $221 $316 reversed $219 $-1 #
vertex $-1 $150 $326 #
straight-curve $-1 0 27.717024716748682 7.3197577344252771 -1 0 0 I I #
coedge $-1 $151 $222 $153 $241 reversed $88 $-1 #
vertex $-1 $233 $327 #
straight-curve $-1 0 -27.717024716748682 7.3197577344252771 1 0 0 I I #
edge $-1 $156 -7.3197577344252771 $230 7.3197577344252771 $153 $328 forward 7 unknown #
edge $-1 $157 -7.3197577344252771 $229 7.3197577344252771 $154 $329 forward 7 unknown #
point $-1 58.225653859065524 -27.717024716748682 7.3197577344252771 #
point $-1 58.225653859065524 27.717024716748682 7.3197577344252771 #
face $-1 $-1 $330 $22 $-1 $331 reversed single #
loop $-1 $-1 $169 $159 #
plane-surface $-1 0 -27.717024716748682 0 0 1 0 0 0 1 forward_v I I I I #
coedge $-1 $332 $162 $252 $333 forward $96 $-1 #
coedge $-1 $162 $332 $334 $335 forward $96 $-1 #
edge $-1 $336 -58.225653859065524 $253 58.225653859065524 $162 $337 forward 7 unknown #
coedge $-1 $164 $163 $338 $339 reversed $61 $-1 #
coedge $-1 $165 $171 $248 $333 reversed $160 $-1 #
vertex $-1 $333 $340 #
straight-curve $-1 58.225653859065524 -20.808609354130894 -2.9098788672126386 0 0 1 I I #
coedge $-1 $338 $341 $167 $256 forward $330 $-1 #
edge $-1 $261 -15.585616199028788 $257 -8.677200836411 $255 $342 forward 7 unknown #
vertex $-1 $256 $343 #
straight-curve $-1 0 -20.808609354130894 -4.3197577344252771 -1 0 0 I I #
coedge $-1 $344 $169 $341 $345 forward $246 $-1 #
coedge $-1 $169 $344 $171 $263 reversed $246 $-1 #
vertex $-1 $345 $346 #
straight-curve $-1 0 -27.717024716748682 -4.3197577344252771 -1 0 0 I I #
edge $-1 $173 4.3197577344252771 $347 7.3197577344252771 $171 $348 forward 7 unknown #
point $-1 58.225653859065524 -20.808609354130894 -4.3197577344252771 #
point $-1 58.225653859065524 -27.717024716748682 -4.3197577344252771 #
loop $-1 $-1 $183 $175 #
plane-surface $-1 -58.225653859065524 0 0 1 0 0 0 0 -1 forward_v I I I I #
coedge $-1 $269 $178 $180 $273 reversed $104 $-1 #
coedge $-1 $178 $268 $349 $350 reversed $104 $-1 #
coedge $-1 $186 $181 $178 $271 forward $176 $-1 #
edge $-1 $274 -22.255760076096571 $351 -20.265328434527255 $270 $352 forward 7 unknown #
coedge $-1 $180 $179 $277 $353 reversed $65 $-1 #
edge $-1 $354 -1.3557137071152151e-014 $274 3.7561036624787878 $268 $355 forward 7 unknown #
vertex $-1 $182 $356 #
straight-curve $-1 -56.235222217496208 -8.4462813845595264 7.3197577344252771 0 1 0 I I #
coedge $-1 $349 $183 $186 $281 reversed $266 $-1 #
coedge $-1 $183 $349 $272 $353 forward $266 $-1 #
vertex $-1 $184 $357 #
straight-curve $-1 -58.225653859065524 -20.808609354130894 32.922095486436717 0 0 1 I I #
straight-curve $-1 -58.225653859065517 -20.808609354130894 4.1344011447282512 -0.52991925155115449 0 -0.84804810408105047 I I #
edge $-1 $351 12.976516184107211 $187 20.808609354130894 $276 $358 forward 7 unknown #
point $-1 -58.225653859065524 -20.808609354130894 7.3197577344252771 #
point $-1 -56.235222217496208 -20.808609354130894 7.3197577344252771 #
edge $-1 $359 1 $359 0 $190 $-1 forward 7 unknown #
vertex $-1 $191 $360 #
ellipse-curve $-1 -55.79421459885188 -18.57086844840984 4.8296274596479352 -0.84804810408105047 0 0.52991925155115449 0.26495962577557725 0 0.42402405204052523 1 I I #
point $-1 -56.965478412505291 -18.57086844840984 6.1511034916172971 #
edge $-1 $361 1 $361 0 $194 $-1 forward 7 unknown #
vertex $-1 $195 $362 #
ellipse-curve $-1 -55.79421459885188 -15.214257089828262 4.8296274596479352 -0.84804810408105047 0 0.52991925155115449 0.26495962577557725 0 0.42402405204052523 1 I I #
point $-1 -56.965478412505291 -15.214257089828262 6.1511034916172971 #
plane-surface $-1 0 0 7.3197577344252771 0 0 1 1 0 0 forward_v I I I I #
coedge $-1 $303 $302 $295 $363 forward $199 $-1 #
coedge $-1 $295 $201 $203 $299 reversed $126 $-1 #
coedge $-1 $201 $294 $293 $363 reversed $126 $-1 #
coedge $-1 $209 $204 $201 $297 forward $210 $-1 #
edge $-1 $300 27.483113000145178 $364 31.986573050730794 $296 $365 forward 7 unknown #
coedge $-1 $203 $202 $303 $366 reversed $79 $-1 #
edge $-1 $367 -116.45130771813103 $300 -110.29360305734227 $294 $368 forward 7 unknown #
vertex $-1 $205 $369 #
straight-curve $-1 53.722193808479901 5.4641408383914012 7.3197577344252807 0 -1 0 I I #
coedge $-1 $293 $206 $209 $307 reversed $199 $-1 #
coedge $-1 $206 $293 $298 $366 forward $199 $-1 #
vertex $-1 $207 $370 #
straight-curve $-1 58.225653859065524 17.969333368839319 83.853454558378772 0 0 1 I I #
straight-curve $-1 -26.941440218466873 17.969333368839319 82.539815039225132 0.7313536940579346 0 -0.68199836817093118 I I #
edge $-1 $364 3.8872299847262859 $211 17.969333368839319 $302 $371 forward 7 unknown #
point $-1 58.225653859065524 17.969333368839319 7.3197577344252771 #
point $-1 53.722193808479908 17.969333368839319 7.3197577344252807 #
edge $-1 $372 1 $372 0 $214 $-1 forward 7 unknown #
vertex $-1 $215 $373 #
ellipse-curve $-1 53.469676277951606 10.928281676782802 2.5345088079312248 0.68199836817093118 0 0.7313536940579346 1.0970305410869019 0 -1.0229975522563968 1 I I #
point $-1 57.07095437485961 10.928281676782802 4.196987917000631 #
plane-surface $-1 58.225653859065524 0 0 -1 0 0 0 0 1 forward_v I I I I #
coedge $-1 $223 $221 $225 $319 reversed $141 $-1 #
edge $-1 $236 -7.3197577344252771 $321 7.3197577344252771 $235 $374 forward 7 unknown #
vertex $-1 $319 $375 #
straight-curve $-1 -58.225653859065524 -27.717024716748682 0 0 0 -1 I I #
edge $-1 $317 -27.717024716748682 $321 27.717024716748682 $315 $376 forward 7 unknown #
straight-curve $-1 0 -27.717024716748682 -7.3197577344252771 -1 0 0 I I #
vertex $-1 $228 $377 #
straight-curve $-1 0 27.717024716748682 -7.3197577344252771 1 0 0 I I #
point $-1 58.225653859065524 27.717024716748682 -7.3197577344252771 #
point $-1 58.225653859065524 -27.717024716748682 -7.3197577344252771 #
straight-curve $-1 -58.225653859065524 0 7.3197577344252771 0 -1 0 I I #
point $-1 -58.225653859065524 27.717024716748682 7.3197577344252771 #
point $-1 -58.225653859065524 -27.717024716748682 7.3197577344252771 #
straight-curve $-1 58.225653859065524 -27.717024716748682 0 0 0 -1 I I #
straight-curve $-1 58.225653859065524 27.717024716748682 0 0 0 -1 I I #
loop $-1 $-1 $338 $245 #
plane-surface $-1 -58.225653859065524 0 0 1 0 0 0 0 -1 forward_v I I I I #
coedge $-1 $249 $248 $344 $378 forward $96 $-1 #
edge $-1 $253 20.808609354130894 $347 27.717024716748682 $252 $379 forward 7 unknown #
coedge $-1 $341 $338 $249 $335 reversed $330 $-1 #
edge $-1 $380 -27.717024716748682 $336 -20.808609354130894 $334 $381 forward 7 unknown #
vertex $-1 $339 $382 #
straight-curve $-1 0 -20.808609354130894 -7.3197577344252771 1 0 0 I I #
coedge $-1 $334 $255 $251 $339 forward $330 $-1 #
edge $-1 $257 1.4098788672126386 $336 4.4098788672126386 $338 $383 forward 7 unknown #
point $-1 58.225653859065524 -20.808609354130894 -7.3197577344252771 #
coedge $-1 $255 $334 $259 $345 reversed $330 $-1 #
straight-curve $-1 -58.225653859065524 -12.131408517719894 -4.3197577344252771 0 1 0 I I #
point $-1 -58.225653859065524 -20.808609354130894 -4.3197577344252771 #
coedge $-1 $260 $259 $332 $378 reversed $246 $-1 #
edge $-1 $261 4.3197577344252771 $380 7.3197577344252771 $341 $384 forward 7 unknown #
point $-1 -58.225653859065524 -27.717024716748682 -4.3197577344252771 #
vertex $-1 $263 $385 #
straight-curve $-1 58.225653859065524 -27.717024716748682 0 0 0 -1 I I #
coedge $-1 $277 $276 $269 $350 forward $266 $-1 #
edge $-1 $351 25.60233775201144 $354 28.787694341708477 $349 $386 forward 7 unknown #
vertex $-1 $281 $387 #
straight-curve $-1 -78.490982293592779 -12.976516184107211 7.3197577344252771 -1 0 0 I I #
edge $-1 $354 4.530234799547685 $278 12.362327969571368 $277 $388 forward 7 unknown #
vertex $-1 $353 $389 #
straight-curve $-1 -58.225653859065517 -12.976516184107211 4.1344011447282512 0.52991925155115449 0 0.84804810408105047 I I #
point $-1 -56.235222217496208 -12.976516184107211 7.3197577344252771 #
point $-1 -58.225653859065524 -20.808609354130894 4.1344011447282396 #
straight-curve $-1 -58.225653859065524 0 7.3197577344252771 0 -1 0 I I #
vertex $-1 $284 $390 #
point $-1 -55.529254973076306 -18.57086844840984 5.253651511688461 #
vertex $-1 $288 $391 #
point $-1 -55.529254973076306 -15.214257089828262 5.253651511688461 #
edge $-1 $364 76.533696823953491 $367 80.733241354289973 $293 $392 forward 7 unknown #
vertex $-1 $307 $393 #
straight-curve $-1 26.23908080833473 3.8872299847262859 7.3197577344252807 1 0 0 I I #
edge $-1 $367 -1.5769108536651153 $304 12.505192530447918 $303 $394 forward 7 unknown #
vertex $-1 $366 $395 #
straight-curve $-1 -26.941440218466873 3.8872299847262859 82.539815039225132 -0.7313536940579346 0 0.68199836817093118 I I #
point $-1 53.722193808479908 3.8872299847262859 7.3197577344252807 #
point $-1 58.225653859065524 17.969333368839319 3.1202132040887989 #
straight-curve $-1 58.225653859065524 0 7.3197577344252771 0 1 0 I I #
vertex $-1 $310 $396 #
point $-1 54.566706819038508 10.928281676782802 1.511511255674828 #
straight-curve $-1 -58.225653859065524 27.717024716748682 0 0 0 -1 I I #
point $-1 -58.225653859065524 -27.717024716748682 -7.3197577344252771 #
straight-curve $-1 -58.225653859065524 0 -7.3197577344252771 0 1 0 I I #
point $-1 -58.225653859065524 27.717024716748682 -7.3197577344252771 #
edge $-1 $347 -58.225653859065524 $380 58.225653859065524 $344 $397 forward 7 unknown #
straight-curve $-1 58.225653859065524 0 -7.3197577344252771 0 -1 0 I I #
vertex $-1 $335 $398 #
straight-curve $-1 -58.225653859065524 0 -7.3197577344252771 0 1 0 I I #
point $-1 -58.225653859065524 -20.808609354130894 -7.3197577344252771 #
straight-curve $-1 -58.225653859065524 -20.808609354130894 -2.9098788672126386 0 0 -1 I I #
straight-curve $-1 -58.225653859065524 -27.717024716748682 0 0 0 -1 I I #
point $-1 58.225653859065524 -27.717024716748682 -7.3197577344252771 #
straight-curve $-1 -58.225653859065524 -12.976516184107211 32.922095486436717 0 0 -1 I I #
point $-1 -58.225653859065524 -12.976516184107211 7.3197577344252771 #
straight-curve $-1 -58.225653859065524 -8.4462813845595264 4.1344011447282387 0 -1 0 I I #
point $-1 -58.225653859065524 -12.976516184107211 4.1344011447282396 #
point $-1 -55.370190546811358 -18.57086844840984 4.5646678338723587 #
point $-1 -55.370190546811358 -15.214257089828262 4.5646678338723587 #
straight-curve $-1 58.225653859065524 3.8872299847262859 83.853454558378772 0 0 -1 I I #
point $-1 58.225653859065524 3.8872299847262859 7.3197577344252771 #
straight-curve $-1 58.225653859065517 5.4641408383914012 3.1202132040888202 0 1 0 I I #
point $-1 58.225653859065524 3.8872299847262859 3.1202132040887989 #
point $-1 52.446678725695207 10.928281676782802 1.4374782668443231 #
straight-curve $-1 0 -27.717024716748682 -7.3197577344252771 -1 0 0 I I #
point $-1 -58.225653859065524 -27.717024716748682 -7.3197577344252771 #
End-of-ACIS-data 