500 0 9 0           
7 Unknown 11 ACIS 5.0 NT 24 Thu Mar 25 15:40:24 1999 
-1 9.9999999999999995e-007 1e-010 
body $-1 $9 $-1 $10 #
body $-1 $11 $-1 $12 #
body $-1 $13 $-1 $14 #
body $-1 $15 $-1 $16 #
body $-1 $17 $-1 $18 #
body $-1 $19 $-1 $20 #
body $-1 $21 $-1 $22 #
body $-1 $23 $-1 $24 #
body $-1 $25 $-1 $26 #
lump $-1 $-1 $27 $0 #
transform $-1 1 0 0 0 1 0 0 0 1 77.772148808252211 51.642871431614523 17.457739746504341 1 rotate no_reflect no_shear #
lump $-1 $-1 $28 $1 #
transform $-1 1 0 0 0 1 0 0 0 1 77.772148808252211 51.642871431614523 17.457739746504341 1 rotate no_reflect no_shear #
lump $-1 $-1 $29 $2 #
transform $-1 1 0 0 0 1 0 0 0 1 77.772148808252211 51.642871431614523 17.457739746504341 1 rotate no_reflect no_shear #
lump $-1 $-1 $30 $3 #
transform $-1 1 0 0 0 1 0 0 0 1 77.772148808252211 51.642871431614523 17.457739746504341 1 rotate no_reflect no_shear #
lump $-1 $-1 $31 $4 #
transform $-1 1 0 0 0 1 0 0 0 1 77.772148808252211 51.642871431614523 17.457739746504341 1 rotate no_reflect no_shear #
lump $-1 $-1 $32 $5 #
transform $-1 1 0 0 0 1 0 0 0 1 77.772148808252211 51.642871431614523 17.457739746504341 1 rotate no_reflect no_shear #
lump $-1 $-1 $33 $6 #
transform $-1 1 0 0 0 1 0 0 0 1 77.772148808252211 51.642871431614523 17.457739746504341 1 rotate no_reflect no_shear #
lump $-1 $-1 $34 $7 #
transform $-1 1 0 0 0 1 0 0 0 1 77.772148808252211 51.642871431614523 17.457739746504341 1 rotate no_reflect no_shear #
lump $-1 $-1 $35 $8 #
transform $-1 1 0 0 0 1 0 0 0 1 77.772148808252211 51.642871431614523 17.457739746504341 1 rotate no_reflect no_shear #
shell $-1 $-1 $-1 $36 $-1 $9 #
shell $-1 $-1 $-1 $37 $-1 $11 #
shell $-1 $-1 $-1 $38 $-1 $13 #
shell $-1 $-1 $-1 $39 $-1 $15 #
shell $-1 $-1 $-1 $40 $-1 $17 #
shell $-1 $-1 $-1 $41 $-1 $19 #
shell $-1 $-1 $-1 $42 $-1 $21 #
shell $-1 $-1 $-1 $43 $-1 $23 #
shell $-1 $-1 $-1 $44 $-1 $25 #
face $-1 $45 $46 $27 $-1 $47 forward single #
face $-1 $48 $49 $28 $-1 $50 reversed single #
face $-1 $51 $52 $29 $-1 $53 forward single #
face $-1 $54 $55 $30 $-1 $56 reversed single #
face $-1 $57 $58 $31 $-1 $59 forward single #
face $-1 $60 $61 $32 $-1 $62 reversed single #
face $-1 $63 $64 $33 $-1 $65 forward single #
face $-1 $66 $67 $34 $-1 $68 reversed single #
face $-1 $69 $70 $35 $-1 $71 forward single #
face $-1 $72 $73 $27 $-1 $74 reversed single #
loop $-1 $-1 $75 $36 #
plane-surface $-1 0 0 17.457739746504341 0 0 1 1 0 0 forward_v I I I I #
face $-1 $76 $77 $28 $-1 $78 reversed single #
loop $-1 $-1 $79 $37 #
plane-surface $-1 119.74495144430136 -3.5402923466313307 225.4151026955048 0 -1 0 -0.82903758062907751 0 -0.55919289150049634 forward_v I I I I #
face $-1 $80 $81 $29 $-1 $82 forward single #
loop $-1 $83 $84 $38 #
cone-surface $-1 73.107872615123725 -12.250722277388007 12.138586135108945 -0.82903758062907751 0 -0.55919289150049634 1.1183857830009927 0 -1.658075161258155 1 I I 0 1 2 forward I I I I #
face $-1 $85 $86 $30 $-1 $87 reversed single #
loop $-1 $-1 $88 $39 #
plane-surface $-1 119.74495144430136 48.102579084983191 225.4151026955048 0 -1 0 -0.82903758062907751 0 -0.55919289150049634 forward_v I I I I #
face $-1 $89 $90 $31 $-1 $91 forward single #
loop $-1 $92 $93 $40 #
cone-surface $-1 73.107872615123725 39.392149154226516 12.138586135108945 -0.82903758062907751 0 -0.55919289150049634 1.1183857830009927 0 -1.658075161258155 1 I I 0 1 2 forward I I I I #
face $-1 $94 $95 $32 $-1 $96 reversed single #
loop $-1 $-1 $97 $41 #
plane-surface $-1 -206.72421698488822 -20.961152208144682 96.463034518868795 0 1 0 -0.82903758062907751 0 0.55919289150049634 forward_v I I I I #
face $-1 $98 $99 $33 $-1 $100 forward single #
loop $-1 $101 $102 $42 #
cone-surface $-1 -73.107872615123711 -12.250722277388007 12.138586135108977 0.82903758062907751 0 -0.55919289150049634 1.1183857830009927 0 1.658075161258155 1 I I 0 1 2 forward I I I I #
face $-1 $103 $104 $34 $-1 $105 reversed single #
loop $-1 $-1 $106 $43 #
plane-surface $-1 -206.72421698488822 30.681719223469841 96.463034518868795 0 1 0 -0.82903758062907751 0 0.55919289150049634 forward_v I I I I #
face $-1 $107 $108 $35 $-1 $109 forward single #
loop $-1 $110 $111 $44 #
cone-surface $-1 -73.107872615123711 39.392149154226516 12.138586135108977 0.82903758062907751 0 -0.55919289150049634 1.1183857830009927 0 1.658075161258155 1 I I 0 1 2 forward I I I I #
face $-1 $112 $113 $27 $-1 $114 reversed single #
loop $-1 $-1 $115 $45 #
plane-surface $-1 0 0 -17.457739746504341 0 0 1 1 0 0 forward_v I I I I #
coedge $-1 $116 $117 $118 $119 forward $46 $-1 #
face $-1 $120 $121 $28 $-1 $122 reversed single #
loop $-1 $-1 $123 $48 #
plane-surface $-1 -9.2071167323346401 -12.250722277388007 138.43583715491792 0.82903758062907751 0 0.55919289150049634 0.55919289150049634 0 -0.82903758062907751 forward_v I I I I #
coedge $-1 $124 $125 $126 $127 reversed $49 $-1 #
face $-1 $-1 $128 $29 $-1 $129 forward single #
loop $-1 $130 $131 $51 #
cone-surface $-1 70.303814355717634 -12.250722277388007 10.247225016324283 -0.82903758062907751 0 -0.55919289150049634 0.55919289150049634 0 -0.82903758062907751 1 I I -0.70710678118654746 0.70710678118654746 1 forward I I I I #
loop $-1 $-1 $132 $38 #
coedge $-1 $84 $84 $133 $134 reversed $52 $-1 #
face $-1 $135 $136 $30 $-1 $137 reversed single #
loop $-1 $-1 $138 $54 #
plane-surface $-1 -9.2071167323346401 39.392149154226516 138.43583715491792 0.82903758062907751 0 0.55919289150049634 0.55919289150049634 0 -0.82903758062907751 forward_v I I I I #
coedge $-1 $139 $140 $141 $142 reversed $55 $-1 #
face $-1 $-1 $143 $31 $-1 $144 forward single #
loop $-1 $145 $146 $57 #
cone-surface $-1 70.303814355717634 39.392149154226516 10.247225016324283 -0.82903758062907751 0 -0.55919289150049634 0.55919289150049634 0 -0.82903758062907751 1 I I -0.70710678118654746 0.70710678118654746 1 forward I I I I #
loop $-1 $-1 $147 $40 #
coedge $-1 $93 $93 $148 $149 reversed $58 $-1 #
face $-1 $150 $151 $32 $-1 $152 reversed single #
loop $-1 $-1 $153 $60 #
plane-surface $-1 -77.772148808252211 -12.250722277388007 9.4837689782819297 -0.82903758062907751 0 0.55919289150049634 0.55919289150049634 0 0.82903758062907751 forward_v I I I I #
coedge $-1 $154 $155 $156 $157 reversed $61 $-1 #
face $-1 $-1 $158 $33 $-1 $159 forward single #
loop $-1 $160 $161 $63 #
cone-surface $-1 -70.30381435571762 -12.250722277388007 10.247225016324315 0.82903758062907751 0 -0.55919289150049634 0.55919289150049634 0 0.82903758062907751 1 I I -0.70710678118654746 0.70710678118654746 1 forward I I I I #
loop $-1 $-1 $162 $42 #
coedge $-1 $102 $102 $163 $164 reversed $64 $-1 #
face $-1 $165 $166 $34 $-1 $167 reversed single #
loop $-1 $-1 $168 $66 #
plane-surface $-1 -77.772148808252211 39.392149154226516 9.4837689782819297 -0.82903758062907751 0 0.55919289150049634 0.55919289150049634 0 0.82903758062907751 forward_v I I I I #
coedge $-1 $169 $170 $171 $172 reversed $67 $-1 #
face $-1 $-1 $173 $35 $-1 $174 forward single #
loop $-1 $175 $176 $69 #
cone-surface $-1 -70.30381435571762 39.392149154226516 10.247225016324315 0.82903758062907751 0 -0.55919289150049634 0.55919289150049634 0 0.82903758062907751 1 I I -0.70710678118654746 0.70710678118654746 1 forward I I I I #
loop $-1 $-1 $177 $44 #
coedge $-1 $111 $111 $178 $179 reversed $70 $-1 #
face $-1 $180 $181 $27 $-1 $182 reversed single #
loop $-1 $-1 $183 $72 #
plane-surface $-1 0 -51.642871431614523 0 0 1 0 0 0 1 forward_v I I I I #
coedge $-1 $184 $185 $186 $187 forward $73 $-1 #
coedge $-1 $188 $75 $189 $190 forward $46 $-1 #
coedge $-1 $75 $188 $191 $192 forward $46 $-1 #
coedge $-1 $193 $194 $75 $119 reversed $195 $-1 #
edge $-1 $196 -51.642871431614523 $197 51.642871431614523 $118 $198 forward 7 unknown #
face $-1 $199 $200 $28 $-1 $201 forward single #
loop $-1 $-1 $202 $76 #
plane-surface $-1 119.74495144430136 -20.961152208144682 225.4151026955048 0 1 0 0.82903758062907751 0 0.55919289150049634 forward_v I I I I #
coedge $-1 $203 $204 $205 $206 reversed $77 $-1 #
coedge $-1 $125 $79 $207 $208 reversed $49 $-1 #
coedge $-1 $79 $124 $203 $209 reversed $49 $-1 #
coedge $-1 $205 $210 $79 $127 forward $200 $-1 #
edge $-1 $211 -17.899673086101529 $212 -12.521162057398541 $126 $213 forward 7 unknown #
loop $-1 $-1 $133 $80 #
plane-surface $-1 -9.2071167323346401 -12.250722277388007 138.43583715491792 0.82903758062907751 0 0.55919289150049634 0.55919289150049634 0 -0.82903758062907751 forward_v I I I I #
loop $-1 $-1 $214 $51 #
coedge $-1 $131 $131 $132 $215 reversed $81 $-1 #
coedge $-1 $132 $132 $131 $215 forward $83 $-1 #
coedge $-1 $133 $133 $84 $134 forward $128 $-1 #
edge $-1 $216 0 $216 6.2831853071796004 $133 $217 forward 7 unknown #
face $-1 $218 $219 $30 $-1 $220 reversed single #
loop $-1 $-1 $221 $85 #
plane-surface $-1 119.74495144430136 30.681719223469841 225.4151026955048 0 1 0 0.82903758062907751 0 0.55919289150049634 forward_v I I I I #
coedge $-1 $222 $223 $224 $225 reversed $86 $-1 #
coedge $-1 $140 $88 $226 $227 reversed $55 $-1 #
coedge $-1 $88 $139 $222 $228 reversed $55 $-1 #
coedge $-1 $224 $229 $88 $142 forward $230 $-1 #
edge $-1 $231 -17.899673086101529 $232 -12.521162057398541 $141 $233 forward 7 unknown #
loop $-1 $-1 $148 $89 #
plane-surface $-1 -9.2071167323346401 39.392149154226516 138.43583715491792 0.82903758062907751 0 0.55919289150049634 0.55919289150049634 0 -0.82903758062907751 forward_v I I I I #
loop $-1 $-1 $234 $57 #
coedge $-1 $146 $146 $147 $235 reversed $90 $-1 #
coedge $-1 $147 $147 $146 $235 forward $92 $-1 #
coedge $-1 $148 $148 $93 $149 forward $143 $-1 #
edge $-1 $236 0 $236 6.2831853071796004 $148 $237 forward 7 unknown #
face $-1 $238 $239 $32 $-1 $240 reversed single #
loop $-1 $-1 $241 $94 #
plane-surface $-1 -206.72421698488822 -3.5402923466313307 96.463034518868795 0 -1 0 0.82903758062907751 0 -0.55919289150049634 forward_v I I I I #
coedge $-1 $242 $243 $244 $245 reversed $95 $-1 #
coedge $-1 $155 $97 $246 $247 reversed $61 $-1 #
coedge $-1 $97 $154 $242 $248 reversed $61 $-1 #
coedge $-1 $244 $249 $97 $157 forward $250 $-1 #
edge $-1 $251 25.589959684191896 $252 30.96847071289487 $156 $253 forward 7 unknown #
loop $-1 $-1 $163 $98 #
plane-surface $-1 -77.772148808252211 -12.250722277388007 9.4837689782819297 -0.82903758062907751 0 0.55919289150049634 0.55919289150049634 0 0.82903758062907751 forward_v I I I I #
loop $-1 $-1 $254 $63 #
coedge $-1 $161 $161 $162 $255 reversed $99 $-1 #
coedge $-1 $162 $162 $161 $255 forward $101 $-1 #
coedge $-1 $163 $163 $102 $164 forward $158 $-1 #
edge $-1 $256 0 $256 6.2831853071796004 $163 $257 forward 7 unknown #
face $-1 $258 $259 $34 $-1 $260 forward single #
loop $-1 $-1 $261 $103 #
plane-surface $-1 -206.72421698488822 48.102579084983191 96.463034518868795 0 -1 0 0.82903758062907751 0 -0.55919289150049634 forward_v I I I I #
coedge $-1 $262 $263 $264 $265 reversed $104 $-1 #
coedge $-1 $170 $106 $266 $267 reversed $67 $-1 #
coedge $-1 $106 $169 $262 $268 reversed $67 $-1 #
coedge $-1 $264 $269 $106 $172 forward $259 $-1 #
edge $-1 $270 25.589959684191896 $271 30.96847071289487 $171 $272 forward 7 unknown #
loop $-1 $-1 $178 $107 #
plane-surface $-1 -77.772148808252211 39.392149154226516 9.4837689782819297 -0.82903758062907751 0 0.55919289150049634 0.55919289150049634 0 0.82903758062907751 forward_v I I I I #
loop $-1 $-1 $273 $69 #
coedge $-1 $176 $176 $177 $274 reversed $108 $-1 #
coedge $-1 $177 $177 $176 $274 forward $110 $-1 #
coedge $-1 $178 $178 $111 $179 forward $173 $-1 #
edge $-1 $275 0 $275 6.2831853071796004 $178 $276 forward 7 unknown #
face $-1 $277 $278 $27 $-1 $279 reversed single #
loop $-1 $-1 $280 $112 #
plane-surface $-1 -77.772148808252211 0 0 1 0 0 0 0 -1 forward_v I I I I #
coedge $-1 $281 $191 $282 $283 forward $113 $-1 #
coedge $-1 $284 $115 $281 $285 forward $73 $-1 #
coedge $-1 $115 $284 $286 $287 forward $73 $-1 #
coedge $-1 $194 $193 $115 $187 reversed $195 $-1 #
edge $-1 $288 -51.642871431614523 $289 51.642871431614523 $186 $290 forward 7 unknown #
coedge $-1 $117 $116 $291 $292 forward $46 $-1 #
coedge $-1 $293 $294 $116 $190 reversed $278 $-1 #
edge $-1 $197 -77.772148808252211 $295 77.772148808252211 $189 $296 forward 7 unknown #
coedge $-1 $183 $297 $117 $192 reversed $113 $-1 #
edge $-1 $298 -77.772148808252211 $196 77.772148808252211 $191 $299 forward 7 unknown #
coedge $-1 $186 $118 $297 $300 forward $195 $-1 #
coedge $-1 $118 $186 $293 $301 reversed $195 $-1 #
loop $-1 $-1 $193 $277 #
vertex $-1 $119 $302 #
vertex $-1 $119 $303 #
straight-curve $-1 77.772148808252211 0 17.457739746504341 0 1 0 I I #
face $-1 $-1 $304 $28 $-1 $305 reversed single #
loop $-1 $-1 $126 $120 #
plane-surface $-1 0 0 17.457739746504341 0 0 1 1 0 0 forward_v I I I I #
coedge $-1 $306 $307 $308 $309 reversed $121 $-1 #
coedge $-1 $310 $123 $125 $209 forward $77 $-1 #
coedge $-1 $123 $310 $306 $311 forward $77 $-1 #
coedge $-1 $308 $126 $123 $206 forward $200 $-1 #
edge $-1 $212 -2.5850687920626729 $312 14.835791069450678 $205 $313 forward 7 unknown #
coedge $-1 $314 $315 $124 $208 forward $304 $-1 #
edge $-1 $316 -103.22378236947048 $211 -95.249811601248055 $207 $317 forward 7 unknown #
edge $-1 $212 145.92595104870256 $316 155.54429761650442 $125 $318 forward 7 unknown #
coedge $-1 $126 $308 $314 $319 forward $200 $-1 #
vertex $-1 $208 $320 #
vertex $-1 $127 $321 #
straight-curve $-1 59.872475722150682 -3.5402923466313307 17.457739746504345 -1 0 0 I I #
coedge $-1 $214 $214 $-1 $322 reversed $130 $-1 #
edge $-1 $323 0 $323 6.2831853071796004 $131 $324 forward 7 unknown #
vertex $-1 $134 $325 #
ellipse-curve $-1 75.082893293900739 -12.250722277388007 13.470754362393112 0.82903758062907751 0 0.55919289150049634 1.1183857830009927 0 -1.658075161258155 1 I I #
face $-1 $-1 $230 $30 $-1 $326 forward single #
loop $-1 $-1 $327 $135 #
plane-surface $-1 77.772148808252211 0 0 -1 0 0 0 0 1 forward_v I I I I #
coedge $-1 $328 $329 $330 $331 reversed $136 $-1 #
coedge $-1 $332 $138 $140 $228 forward $86 $-1 #
coedge $-1 $138 $332 $328 $333 forward $86 $-1 #
coedge $-1 $330 $141 $138 $225 forward $230 $-1 #
edge $-1 $232 -28.406504507869933 $334 -10.985644646356583 $224 $335 forward 7 unknown #
coedge $-1 $336 $337 $139 $227 forward $219 $-1 #
edge $-1 $338 -103.22378236947048 $231 -95.249811601248055 $226 $339 forward 7 unknown #
edge $-1 $232 145.92595104870256 $338 155.54429761650442 $140 $340 forward 7 unknown #
coedge $-1 $141 $330 $336 $341 forward $230 $-1 #
loop $-1 $-1 $330 $218 #
vertex $-1 $227 $342 #
vertex $-1 $142 $343 #
straight-curve $-1 59.872475722150682 48.102579084983191 17.457739746504345 -1 0 0 I I #
coedge $-1 $234 $234 $-1 $344 reversed $145 $-1 #
edge $-1 $345 0 $345 6.2831853071796004 $146 $346 forward 7 unknown #
vertex $-1 $149 $347 #
ellipse-curve $-1 75.082893293900739 39.392149154226516 13.470754362393112 0.82903758062907751 0 0.55919289150049634 1.1183857830009927 0 -1.658075161258155 1 I I #
face $-1 $-1 $250 $32 $-1 $348 forward single #
loop $-1 $-1 $349 $150 #
plane-surface $-1 -77.772148808252211 0 0 1 0 0 0 0 -1 forward_v I I I I #
coedge $-1 $350 $351 $352 $353 reversed $151 $-1 #
coedge $-1 $354 $153 $155 $248 forward $95 $-1 #
coedge $-1 $153 $354 $350 $355 forward $95 $-1 #
coedge $-1 $352 $156 $153 $245 forward $250 $-1 #
edge $-1 $252 -14.835791069450678 $356 2.5850687920626729 $244 $357 forward 7 unknown #
coedge $-1 $358 $359 $154 $247 forward $239 $-1 #
edge $-1 $360 -38.747748281152468 $251 -30.773777512930057 $246 $361 forward 7 unknown #
edge $-1 $252 -9.6183465678018187 $360 0 $155 $362 forward 7 unknown #
coedge $-1 $156 $352 $358 $363 forward $250 $-1 #
loop $-1 $-1 $352 $238 #
vertex $-1 $247 $364 #
vertex $-1 $157 $365 #
straight-curve $-1 -103.36210849244411 -20.961152208144682 17.457739746504338 1 0 0 I I #
coedge $-1 $254 $254 $-1 $366 reversed $160 $-1 #
edge $-1 $367 0 $367 6.2831853071796004 $161 $368 forward 7 unknown #
vertex $-1 $164 $369 #
ellipse-curve $-1 -75.082893293900725 -12.250722277388007 13.470754362393141 -0.82903758062907751 0 0.55919289150049634 1.1183857830009927 0 1.658075161258155 1 I I #
face $-1 $-1 $370 $34 $-1 $371 reversed single #
loop $-1 $-1 $171 $165 #
plane-surface $-1 0 0 17.457739746504341 0 0 1 1 0 0 forward_v I I I I #
coedge $-1 $372 $373 $374 $375 reversed $166 $-1 #
coedge $-1 $376 $168 $170 $268 forward $104 $-1 #
coedge $-1 $168 $376 $372 $377 forward $104 $-1 #
coedge $-1 $374 $171 $168 $265 forward $259 $-1 #
edge $-1 $271 10.985644646356583 $378 28.406504507869933 $264 $379 forward 7 unknown #
coedge $-1 $380 $381 $169 $267 forward $370 $-1 #
edge $-1 $382 -38.747748281152468 $270 -30.773777512930057 $266 $383 forward 7 unknown #
edge $-1 $271 -9.6183465678018187 $382 0 $170 $384 forward 7 unknown #
coedge $-1 $171 $374 $380 $385 forward $259 $-1 #
vertex $-1 $172 $386 #
vertex $-1 $172 $387 #
straight-curve $-1 -103.36210849244411 30.681719223469841 17.457739746504338 1 0 0 I I #
coedge $-1 $273 $273 $-1 $388 reversed $175 $-1 #
edge $-1 $389 0 $389 6.2831853071796004 $176 $390 forward 7 unknown #
vertex $-1 $179 $391 #
ellipse-curve $-1 -75.082893293900725 39.392149154226516 13.470754362393141 -0.82903758062907751 0 0.55919289150049634 1.1183857830009927 0 1.658075161258155 1 I I #
face $-1 $-1 $195 $27 $-1 $392 reversed single #
loop $-1 $-1 $293 $180 #
plane-surface $-1 0 51.642871431614523 0 0 -1 0 0 0 -1 forward_v I I I I #
coedge $-1 $393 $291 $294 $394 forward $181 $-1 #
coedge $-1 $297 $183 $184 $285 reversed $113 $-1 #
coedge $-1 $291 $393 $183 $283 reversed $181 $-1 #
edge $-1 $298 -17.457739746504341 $395 17.457739746504341 $282 $396 forward 7 unknown #
coedge $-1 $185 $184 $393 $397 forward $73 $-1 #
edge $-1 $289 -77.772148808252211 $395 77.772148808252211 $281 $398 forward 7 unknown #
coedge $-1 $294 $293 $185 $287 reversed $278 $-1 #
edge $-1 $399 -77.772148808252211 $288 77.772148808252211 $286 $400 forward 7 unknown #
vertex $-1 $187 $401 #
vertex $-1 $300 $402 #
straight-curve $-1 77.772148808252211 0 -17.457739746504341 0 -1 0 I I #
coedge $-1 $280 $282 $188 $292 reversed $181 $-1 #
edge $-1 $295 -51.642871431614523 $298 51.642871431614523 $291 $403 forward 7 unknown #
coedge $-1 $286 $189 $194 $301 forward $278 $-1 #
coedge $-1 $189 $286 $280 $394 reversed $278 $-1 #
vertex $-1 $190 $404 #
straight-curve $-1 0 51.642871431614523 17.457739746504341 -1 0 0 I I #
coedge $-1 $191 $281 $193 $300 reversed $113 $-1 #
vertex $-1 $292 $405 #
straight-curve $-1 0 -51.642871431614523 17.457739746504341 1 0 0 I I #
edge $-1 $196 -17.457739746504341 $289 17.457739746504341 $193 $406 forward 7 unknown #
edge $-1 $197 -17.457739746504341 $288 17.457739746504341 $194 $407 forward 7 unknown #
point $-1 77.772148808252211 -51.642871431614523 17.457739746504341 #
point $-1 77.772148808252211 51.642871431614523 17.457739746504341 #
loop $-1 $-1 $207 $199 #
plane-surface $-1 77.772148808252211 0 0 -1 0 0 0 0 1 forward_v I I I I #
coedge $-1 $307 $202 $204 $311 reversed $121 $-1 #
coedge $-1 $202 $306 $408 $409 reversed $121 $-1 #
coedge $-1 $210 $205 $202 $309 forward $200 $-1 #
edge $-1 $312 12.521162057398541 $410 17.899673086101529 $308 $411 forward 7 unknown #
coedge $-1 $204 $203 $315 $412 reversed $77 $-1 #
edge $-1 $413 -155.54429761650442 $312 -145.92595104870256 $306 $414 forward 7 unknown #
vertex $-1 $206 $415 #
straight-curve $-1 72.393637779549252 -6.1253611386940037 17.457739746504345 0 -1 0 I I #
coedge $-1 $408 $207 $210 $319 reversed $304 $-1 #
coedge $-1 $207 $408 $310 $412 forward $304 $-1 #
vertex $-1 $208 $416 #
straight-curve $-1 77.772148808252211 -3.5402923466313307 112.7075513477524 0 0 1 I I #
straight-curve $-1 -9.2071167323346401 -3.5402923466313307 138.43583715491792 0.55919289150049634 0 -0.82903758062907751 I I #
edge $-1 $410 -20.961152208144682 $211 -3.5402923466313307 $314 $417 forward 7 unknown #
point $-1 77.772148808252211 -3.5402923466313307 17.457739746504341 #
point $-1 72.393637779549223 -3.5402923466313307 17.457739746504359 #
edge $-1 $418 1 $418 0 $214 $-1 forward 7 unknown #
vertex $-1 $215 $419 #
ellipse-curve $-1 71.132851936346711 -12.250722277388007 10.806417907824779 0.82903758062907751 0 0.55919289150049634 1.1183857830009927 0 -1.658075161258155 1 I I #
point $-1 76.201279076901727 -12.250722277388007 11.812679201134955 #
plane-surface $-1 0 0 17.457739746504341 0 0 1 1 0 0 forward_v I I I I #
coedge $-1 $337 $336 $329 $420 forward $219 $-1 #
coedge $-1 $329 $221 $223 $333 reversed $136 $-1 #
coedge $-1 $221 $328 $327 $420 reversed $136 $-1 #
coedge $-1 $229 $224 $221 $331 forward $230 $-1 #
edge $-1 $334 12.521162057398541 $421 17.899673086101529 $330 $422 forward 7 unknown #
coedge $-1 $223 $222 $337 $423 reversed $86 $-1 #
edge $-1 $424 -155.54429761650442 $334 -145.92595104870256 $328 $425 forward 7 unknown #
vertex $-1 $225 $426 #
straight-curve $-1 72.393637779549252 19.696074577113258 17.457739746504345 0 -1 0 I I #
coedge $-1 $327 $226 $229 $341 reversed $219 $-1 #
coedge $-1 $226 $327 $332 $423 forward $219 $-1 #
vertex $-1 $227 $427 #
straight-curve $-1 77.772148808252211 48.102579084983191 112.7075513477524 0 0 1 I I #
straight-curve $-1 -9.2071167323346401 48.102579084983191 138.43583715491792 0.55919289150049634 0 -0.82903758062907751 I I #
edge $-1 $421 30.681719223469841 $231 48.102579084983191 $336 $428 forward 7 unknown #
point $-1 77.772148808252211 48.102579084983191 17.457739746504341 #
point $-1 72.393637779549223 48.102579084983191 17.457739746504359 #
edge $-1 $429 1 $429 0 $234 $-1 forward 7 unknown #
vertex $-1 $235 $430 #
ellipse-curve $-1 71.132851936346711 39.392149154226516 10.806417907824779 0.82903758062907751 0 0.55919289150049634 1.1183857830009927 0 -1.658075161258155 1 I I #
point $-1 76.201279076901727 39.392149154226516 11.812679201134955 #
plane-surface $-1 0 0 17.457739746504341 0 0 1 1 0 0 forward_v I I I I #
coedge $-1 $359 $358 $351 $431 forward $239 $-1 #
coedge $-1 $351 $241 $243 $355 reversed $151 $-1 #
coedge $-1 $241 $350 $349 $431 reversed $151 $-1 #
coedge $-1 $249 $244 $241 $353 forward $250 $-1 #
edge $-1 $356 -30.96847071289487 $432 -25.589959684191896 $352 $433 forward 7 unknown #
coedge $-1 $243 $242 $359 $434 reversed $95 $-1 #
edge $-1 $435 0 $356 9.6183465678018187 $350 $436 forward 7 unknown #
vertex $-1 $245 $437 #
straight-curve $-1 -72.393637779549238 -6.1253611386940037 17.457739746504341 0 1 0 I I #
coedge $-1 $349 $246 $249 $363 reversed $239 $-1 #
coedge $-1 $246 $349 $354 $434 forward $239 $-1 #
vertex $-1 $247 $438 #
straight-curve $-1 -77.772148808252211 -20.961152208144682 48.231517259434398 0 0 1 I I #
straight-curve $-1 -77.772148808252211 -20.961152208144682 9.4837689782819297 -0.55919289150049634 0 -0.82903758062907751 I I #
edge $-1 $432 3.5402923466313307 $251 20.961152208144682 $358 $439 forward 7 unknown #
point $-1 -77.772148808252211 -20.961152208144682 17.457739746504341 #
point $-1 -72.393637779549238 -20.961152208144682 17.457739746504341 #
edge $-1 $440 1 $440 0 $254 $-1 forward 7 unknown #
vertex $-1 $255 $441 #
ellipse-curve $-1 -71.132851936346697 -12.250722277388007 10.806417907824811 -0.82903758062907751 0 0.55919289150049634 1.1183857830009927 0 1.658075161258155 1 I I #
point $-1 -73.964507510899736 -12.250722277388007 15.128829523651296 #
loop $-1 $-1 $266 $258 #
plane-surface $-1 -77.772148808252211 0 0 1 0 0 0 0 -1 forward_v I I I I #
coedge $-1 $373 $261 $263 $377 reversed $166 $-1 #
coedge $-1 $261 $372 $442 $443 reversed $166 $-1 #
coedge $-1 $269 $264 $261 $375 forward $259 $-1 #
edge $-1 $378 -30.96847071289487 $444 -25.589959684191896 $374 $445 forward 7 unknown #
coedge $-1 $263 $262 $381 $446 reversed $104 $-1 #
edge $-1 $447 0 $378 9.6183465678018187 $372 $448 forward 7 unknown #
vertex $-1 $265 $449 #
straight-curve $-1 -72.393637779549238 19.696074577113258 17.457739746504341 0 1 0 I I #
coedge $-1 $442 $266 $269 $385 reversed $370 $-1 #
coedge $-1 $266 $442 $376 $446 forward $370 $-1 #
vertex $-1 $267 $450 #
straight-curve $-1 -77.772148808252211 30.681719223469841 48.231517259434398 0 0 1 I I #
straight-curve $-1 -77.772148808252211 30.681719223469841 9.4837689782819297 -0.55919289150049634 0 -0.82903758062907751 I I #
edge $-1 $444 -48.102579084983191 $270 -30.681719223469841 $380 $451 forward 7 unknown #
point $-1 -77.772148808252211 30.681719223469841 17.457739746504341 #
point $-1 -72.393637779549238 30.681719223469841 17.457739746504341 #
edge $-1 $452 1 $452 0 $273 $-1 forward 7 unknown #
vertex $-1 $274 $453 #
ellipse-curve $-1 -71.132851936346697 39.392149154226516 10.806417907824811 -0.82903758062907751 0 0.55919289150049634 1.1183857830009927 0 1.658075161258155 1 I I #
point $-1 -73.964507510899736 39.392149154226516 15.128829523651296 #
plane-surface $-1 77.772148808252211 0 0 -1 0 0 0 0 1 forward_v I I I I #
coedge $-1 $282 $280 $284 $397 reversed $181 $-1 #
edge $-1 $295 -17.457739746504341 $399 17.457739746504341 $294 $454 forward 7 unknown #
vertex $-1 $397 $455 #
straight-curve $-1 -77.772148808252211 -51.642871431614523 0 0 0 -1 I I #
edge $-1 $395 -51.642871431614523 $399 51.642871431614523 $393 $456 forward 7 unknown #
straight-curve $-1 0 -51.642871431614523 -17.457739746504341 -1 0 0 I I #
vertex $-1 $287 $457 #
straight-curve $-1 0 51.642871431614523 -17.457739746504341 1 0 0 I I #
point $-1 77.772148808252211 51.642871431614523 -17.457739746504341 #
point $-1 77.772148808252211 -51.642871431614523 -17.457739746504341 #
straight-curve $-1 -77.772148808252211 0 17.457739746504341 0 -1 0 I I #
point $-1 -77.772148808252211 51.642871431614523 17.457739746504341 #
point $-1 -77.772148808252211 -51.642871431614523 17.457739746504341 #
straight-curve $-1 77.772148808252211 -51.642871431614523 0 0 0 -1 I I #
straight-curve $-1 77.772148808252211 51.642871431614523 0 0 0 -1 I I #
coedge $-1 $315 $314 $307 $409 forward $304 $-1 #
edge $-1 $410 95.249811601248055 $413 103.22378236947048 $408 $458 forward 7 unknown #
vertex $-1 $319 $459 #
straight-curve $-1 59.872475722150682 -20.961152208144682 17.457739746504345 1 0 0 I I #
edge $-1 $413 -14.835791069450678 $316 2.5850687920626729 $315 $460 forward 7 unknown #
vertex $-1 $412 $461 #
straight-curve $-1 -9.2071167323346401 -20.961152208144682 138.43583715491792 -0.55919289150049634 0 0.82903758062907751 I I #
point $-1 72.393637779549223 -20.961152208144682 17.457739746504359 #
point $-1 77.772148808252211 -3.5402923466313307 9.4837689782819155 #
straight-curve $-1 77.772148808252211 0 17.457739746504341 0 1 0 I I #
vertex $-1 $322 $462 #
point $-1 72.251237719347699 -12.250722277388007 9.1483427465666232 #
edge $-1 $421 95.249811601248055 $424 103.22378236947048 $327 $463 forward 7 unknown #
vertex $-1 $341 $464 #
straight-curve $-1 59.872475722150682 30.681719223469841 17.457739746504345 1 0 0 I I #
edge $-1 $424 10.985644646356583 $338 28.406504507869933 $337 $465 forward 7 unknown #
vertex $-1 $423 $466 #
straight-curve $-1 -9.2071167323346401 30.681719223469841 138.43583715491792 -0.55919289150049634 0 0.82903758062907751 I I #
point $-1 72.393637779549223 30.681719223469841 17.457739746504359 #
point $-1 77.772148808252211 48.102579084983191 9.4837689782819155 #
straight-curve $-1 77.772148808252211 0 17.457739746504341 0 1 0 I I #
vertex $-1 $344 $467 #
point $-1 72.251237719347699 39.392149154226516 9.1483427465666232 #
edge $-1 $432 30.773777512930057 $435 38.747748281152468 $349 $468 forward 7 unknown #
vertex $-1 $363 $469 #
straight-curve $-1 -103.36210849244411 -3.5402923466313307 17.457739746504338 -1 0 0 I I #
edge $-1 $435 -2.5850687920626729 $360 14.835791069450678 $359 $470 forward 7 unknown #
vertex $-1 $434 $471 #
straight-curve $-1 -77.772148808252211 -3.5402923466313307 9.4837689782819297 0.55919289150049634 0 0.82903758062907751 I I #
point $-1 -72.393637779549238 -3.5402923466313307 17.457739746504341 #
point $-1 -77.772148808252211 -20.961152208144682 9.4837689782819297 #
straight-curve $-1 -77.772148808252211 0 17.457739746504341 0 -1 0 I I #
vertex $-1 $366 $472 #
point $-1 -70.014466153345708 -12.250722277388007 12.464493069082966 #
coedge $-1 $381 $380 $373 $443 forward $370 $-1 #
edge $-1 $444 30.773777512930057 $447 38.747748281152468 $442 $473 forward 7 unknown #
vertex $-1 $385 $474 #
straight-curve $-1 -103.36210849244411 48.102579084983191 17.457739746504338 -1 0 0 I I #
edge $-1 $447 -28.406504507869933 $382 -10.985644646356583 $381 $475 forward 7 unknown #
vertex $-1 $446 $476 #
straight-curve $-1 -77.772148808252211 48.102579084983191 9.4837689782819297 0.55919289150049634 0 0.82903758062907751 I I #
point $-1 -72.393637779549238 48.102579084983191 17.457739746504341 #
point $-1 -77.772148808252211 30.681719223469841 9.4837689782819297 #
straight-curve $-1 -77.772148808252211 0 17.457739746504341 0 -1 0 I I #
vertex $-1 $388 $477 #
point $-1 -70.014466153345708 39.392149154226516 12.464493069082966 #
straight-curve $-1 -77.772148808252211 51.642871431614523 0 0 0 -1 I I #
point $-1 -77.772148808252211 -51.642871431614523 -17.457739746504341 #
straight-curve $-1 -77.772148808252211 0 -17.457739746504341 0 1 0 I I #
point $-1 -77.772148808252211 51.642871431614523 -17.457739746504341 #
straight-curve $-1 77.772148808252211 -20.961152208144682 112.7075513477524 0 0 -1 I I #
point $-1 77.772148808252211 -20.961152208144682 17.457739746504341 #
straight-curve $-1 77.772148808252211 -6.1253611386940037 9.4837689782819297 0 1 0 I I #
point $-1 77.772148808252211 -20.961152208144682 9.4837689782819155 #
point $-1 69.474776775088557 -12.250722277388007 9.6880321248237866 #
straight-curve $-1 77.772148808252211 30.681719223469841 112.7075513477524 0 0 -1 I I #
point $-1 77.772148808252211 30.681719223469841 17.457739746504341 #
straight-curve $-1 77.772148808252211 19.696074577113258 9.4837689782819297 0 1 0 I I #
point $-1 77.772148808252211 30.681719223469841 9.4837689782819155 #
point $-1 69.474776775088557 39.392149154226516 9.6880321248237866 #
straight-curve $-1 -77.772148808252211 -3.5402923466313307 48.231517259434398 0 0 -1 I I #
point $-1 -77.772148808252211 -3.5402923466313307 17.457739746504341 #
straight-curve $-1 -77.772148808252211 -6.1253611386940037 9.4837689782819332 0 -1 0 I I #
point $-1 -77.772148808252211 -3.5402923466313307 9.4837689782819297 #
point $-1 -69.474776775088543 -12.250722277388007 9.6880321248238186 #
straight-curve $-1 -77.772148808252211 48.102579084983191 48.231517259434398 0 0 -1 I I #
point $-1 -77.772148808252211 48.102579084983191 17.457739746504341 #
straight-curve $-1 -77.772148808252211 19.696074577113258 9.4837689782819332 0 -1 0 I I #
point $-1 -77.772148808252211 48.102579084983191 9.4837689782819297 #
point $-1 -69.474776775088543 39.392149154226516 9.6880321248238186 #
End-of-ACIS-data 