500 0 8 0           
7 Unknown 11 ACIS 5.0 NT 24 Thu Mar 25 17:22:43 1999 
-1 9.9999999999999995e-007 1e-010 
body $-1 $8 $-1 $9 #
body $-1 $10 $-1 $11 #
body $-1 $12 $-1 $13 #
body $-1 $14 $-1 $15 #
body $-1 $16 $-1 $17 #
body $-1 $18 $-1 $19 #
body $-1 $20 $-1 $21 #
body $-1 $22 $-1 $23 #
lump $-1 $-1 $24 $0 #
transform $-1 1 0 0 0 1 0 0 0 1 44.46546830652791 28.458062558555767 6.4683099617711663 1 rotate no_reflect no_shear #
lump $-1 $-1 $25 $1 #
transform $-1 1 0 0 0 1 0 0 0 1 44.46546830652791 28.458062558555767 6.4683099617711663 1 rotate no_reflect no_shear #
lump $-1 $-1 $26 $2 #
transform $-1 1 0 0 0 1 0 0 0 1 44.46546830652791 28.458062558555767 6.4683099617711663 1 rotate no_reflect no_shear #
lump $-1 $-1 $27 $3 #
transform $-1 1 0 0 0 1 0 0 0 1 44.46546830652791 28.458062558555767 6.4683099617711663 1 rotate no_reflect no_shear #
lump $-1 $-1 $28 $4 #
transform $-1 1 0 0 0 1 0 0 0 1 44.46546830652791 28.458062558555767 6.4683099617711663 1 rotate no_reflect no_shear #
lump $-1 $-1 $29 $5 #
transform $-1 1 0 0 0 1 0 0 0 1 44.46546830652791 28.458062558555767 6.4683099617711663 1 rotate no_reflect no_shear #
lump $-1 $-1 $30 $6 #
transform $-1 1 0 0 0 1 0 0 0 1 44.46546830652791 28.458062558555767 6.4683099617711663 1 rotate no_reflect no_shear #
lump $-1 $-1 $31 $7 #
transform $-1 1 0 0 0 1 0 0 0 1 44.46546830652791 28.458062558555767 6.4683099617711663 1 rotate no_reflect no_shear #
shell $-1 $-1 $-1 $32 $-1 $8 #
shell $-1 $-1 $-1 $33 $-1 $10 #
shell $-1 $-1 $-1 $34 $-1 $12 #
shell $-1 $-1 $-1 $35 $-1 $14 #
shell $-1 $-1 $-1 $36 $-1 $16 #
shell $-1 $-1 $-1 $37 $-1 $18 #
shell $-1 $-1 $-1 $38 $-1 $20 #
shell $-1 $-1 $-1 $39 $-1 $22 #
face $-1 $40 $41 $24 $-1 $42 forward single #
face $-1 $43 $44 $25 $-1 $45 forward single #
face $-1 $46 $47 $26 $-1 $48 reversed single #
face $-1 $49 $50 $27 $-1 $51 forward single #
face $-1 $52 $53 $28 $-1 $54 forward single #
face $-1 $55 $56 $29 $-1 $57 reversed single #
face $-1 $58 $59 $30 $-1 $60 forward single #
face $-1 $61 $62 $31 $-1 $63 forward single #
face $-1 $64 $65 $24 $-1 $66 reversed single #
loop $-1 $-1 $67 $32 #
plane-surface $-1 0 0 6.4683099617711663 0 0 1 1 0 0 forward_v I I I I #
face $-1 $68 $69 $25 $-1 $70 reversed single #
loop $-1 $-1 $71 $33 #
plane-surface $-1 -40.283219416108544 0 -3.4683099617711663 0 0 1 1 0 0 forward_v I I I I #
face $-1 $72 $73 $26 $-1 $74 reversed single #
loop $-1 $-1 $75 $34 #
plane-surface $-1 26.112980862222614 75.372783371339594 97.518686890627535 1 0 0 0 -0.85716730853699208 -0.51503806187062418 forward_v I I I I #
face $-1 $76 $77 $27 $-1 $78 forward single #
loop $-1 $79 $80 $35 #
cone-surface $-1 31.356548703452702 26.902042618989515 4.4026813705475947 0 -0.85716730853699208 -0.51503806187062418 0.5 0 0 1 I I 0 1 0.5 forward I I I I #
face $-1 $81 $82 $28 $-1 $83 forward single #
loop $-1 $84 $85 $36 #
cone-surface $-1 39.221900465297821 26.902042618989515 4.4026813705475947 0 -0.85716730853699208 -0.51503806187062418 0.5 0 0 1 I I 0 1 0.5 forward I I I I #
face $-1 $86 $87 $29 $-1 $88 reversed single #
loop $-1 $-1 $89 $37 #
plane-surface $-1 35.289224584375262 -28.458062558555767 2.9292278781107584 0 -0.85716730853699208 0.51503806187062418 1 0 0 forward_v I I I I #
face $-1 $90 $91 $30 $-1 $92 forward single #
loop $-1 $93 $94 $38 #
cone-surface $-1 31.356548703452702 -26.902042618989515 4.4026813705475965 0 0.85716730853699208 -0.51503806187062418 0.5 0 0 1 I I 0 1 0.5 forward I I I I #
face $-1 $95 $96 $31 $-1 $97 forward single #
loop $-1 $98 $99 $39 #
cone-surface $-1 39.221900465297821 -26.902042618989515 4.4026813705475965 0 0.85716730853699208 -0.51503806187062418 0.5 0 0 1 I I 0 1 0.5 forward I I I I #
face $-1 $100 $101 $24 $-1 $102 reversed single #
loop $-1 $-1 $103 $40 #
plane-surface $-1 0 0 -6.4683099617711663 0 0 1 1 0 0 forward_v I I I I #
coedge $-1 $104 $105 $106 $107 forward $41 $-1 #
face $-1 $108 $109 $25 $-1 $110 reversed single #
loop $-1 $-1 $111 $43 #
plane-surface $-1 -36.100970525689178 0 -4.9683099617711663 -1 0 0 0 0 1 forward_v I I I I #
coedge $-1 $112 $113 $114 $115 forward $44 $-1 #
face $-1 $116 $117 $26 $-1 $118 reversed single #
loop $-1 $-1 $119 $46 #
plane-surface $-1 35.289224584375262 -0.85590821094730529 51.715869657099937 0 0.85716730853699208 0.51503806187062418 1 0 0 forward_v I I I I #
coedge $-1 $120 $121 $122 $123 reversed $47 $-1 #
face $-1 $-1 $124 $27 $-1 $125 forward single #
loop $-1 $126 $127 $49 #
cone-surface $-1 31.356548703452702 26.194978341440567 3.9778343056865735 0 -0.85716730853699208 -0.51503806187062418 0.25 0 0 1 I I -0.70710678118654691 0.70710678118654813 0.25 forward I I I I #
loop $-1 $-1 $128 $35 #
coedge $-1 $80 $80 $129 $130 reversed $50 $-1 #
face $-1 $-1 $131 $28 $-1 $132 forward single #
loop $-1 $133 $134 $52 #
cone-surface $-1 39.221900465297821 26.194978341440567 3.9778343056865735 0 -0.85716730853699208 -0.51503806187062418 0.25 0 0 1 I I -0.70710678118654691 0.70710678118654813 0.25 forward I I I I #
loop $-1 $-1 $135 $36 #
coedge $-1 $85 $85 $136 $137 reversed $53 $-1 #
face $-1 $138 $139 $29 $-1 $140 forward single #
loop $-1 $-1 $141 $55 #
plane-surface $-1 26.112980862222614 -104.68675414084267 48.732045111638357 1 0 0 0 0.85716730853699208 -0.51503806187062418 forward_v I I I I #
coedge $-1 $142 $143 $144 $145 reversed $56 $-1 #
face $-1 $-1 $146 $30 $-1 $147 forward single #
loop $-1 $148 $149 $58 #
cone-surface $-1 31.356548703452702 -26.194978341440567 3.9778343056865753 0 0.85716730853699208 -0.51503806187062418 0.25 0 0 1 I I -0.70710678118654691 0.70710678118654813 0.25 forward I I I I #
loop $-1 $-1 $150 $38 #
coedge $-1 $94 $94 $151 $152 reversed $59 $-1 #
face $-1 $-1 $153 $31 $-1 $154 forward single #
loop $-1 $155 $156 $61 #
cone-surface $-1 39.221900465297821 -26.194978341440567 3.9778343056865753 0 0.85716730853699208 -0.51503806187062418 0.25 0 0 1 I I -0.70710678118654691 0.70710678118654813 0.25 forward I I I I #
loop $-1 $-1 $157 $39 #
coedge $-1 $99 $99 $158 $159 reversed $62 $-1 #
face $-1 $160 $161 $24 $-1 $162 reversed single #
loop $-1 $-1 $163 $64 #
plane-surface $-1 0 -28.458062558555767 0 0 1 0 0 0 1 forward_v I I I I #
coedge $-1 $164 $165 $166 $167 forward $65 $-1 #
coedge $-1 $168 $67 $169 $170 forward $41 $-1 #
coedge $-1 $67 $168 $171 $172 forward $41 $-1 #
coedge $-1 $173 $174 $67 $107 reversed $175 $-1 #
edge $-1 $176 -28.458062558555767 $177 28.458062558555767 $106 $178 forward 7 unknown #
face $-1 $179 $180 $25 $-1 $181 reversed single #
loop $-1 $-1 $182 $68 #
plane-surface $-1 0 0 -6.4683099617711663 0 0 1 1 0 0 forward_v I I I I #
coedge $-1 $183 $114 $184 $185 reversed $69 $-1 #
coedge $-1 $186 $71 $187 $188 reversed $44 $-1 #
coedge $-1 $71 $186 $189 $190 reversed $44 $-1 #
coedge $-1 $111 $191 $71 $115 reversed $69 $-1 #
edge $-1 $192 -28.458062558555767 $193 28.458062558555767 $114 $194 forward 7 unknown #
face $-1 $195 $196 $26 $-1 $197 reversed single #
loop $-1 $-1 $198 $72 #
plane-surface $-1 44.46546830652791 0 0 -1 0 0 0 0 1 forward_v I I I I #
coedge $-1 $199 $200 $201 $202 reversed $73 $-1 #
coedge $-1 $121 $75 $203 $204 reversed $47 $-1 #
coedge $-1 $75 $120 $199 $205 reversed $47 $-1 #
coedge $-1 $201 $206 $75 $123 forward $207 $-1 #
edge $-1 $208 9.22832912711403 $209 11.354824105417141 $122 $210 forward 7 unknown #
loop $-1 $-1 $129 $76 #
plane-surface $-1 35.289224584375262 -0.85590821094730529 51.715869657099937 0 0.85716730853699208 0.51503806187062418 1 0 0 forward_v I I I I #
loop $-1 $-1 $211 $49 #
coedge $-1 $127 $127 $128 $212 reversed $77 $-1 #
coedge $-1 $128 $128 $127 $212 forward $79 $-1 #
coedge $-1 $129 $129 $80 $130 forward $124 $-1 #
edge $-1 $213 -3.0452700220599808e-015 $213 6.2831853071795978 $129 $214 forward 7 unknown #
loop $-1 $-1 $136 $81 #
plane-surface $-1 35.289224584375262 -0.85590821094730529 51.715869657099937 0 0.85716730853699208 0.51503806187062418 1 0 0 forward_v I I I I #
loop $-1 $-1 $215 $52 #
coedge $-1 $134 $134 $135 $216 reversed $82 $-1 #
coedge $-1 $135 $135 $134 $216 forward $84 $-1 #
coedge $-1 $136 $136 $85 $137 forward $131 $-1 #
edge $-1 $217 -3.0452700220599808e-015 $217 6.2831853071795978 $136 $218 forward 7 unknown #
face $-1 $219 $220 $29 $-1 $221 reversed single #
loop $-1 $-1 $144 $86 #
plane-surface $-1 0 0 6.4683099617711663 0 0 1 1 0 0 forward_v I I I I #
coedge $-1 $222 $223 $224 $225 reversed $87 $-1 #
coedge $-1 $226 $89 $227 $228 reversed $56 $-1 #
coedge $-1 $89 $226 $222 $229 forward $56 $-1 #
coedge $-1 $224 $230 $89 $145 forward $139 $-1 #
edge $-1 $231 -26.820856014340279 $232 -8.4683685700349827 $144 $233 forward 7 unknown #
loop $-1 $-1 $151 $90 #
plane-surface $-1 35.289224584375262 -28.458062558555767 2.9292278781107584 0 -0.85716730853699208 0.51503806187062418 1 0 0 forward_v I I I I #
loop $-1 $-1 $234 $58 #
coedge $-1 $149 $149 $150 $235 reversed $91 $-1 #
coedge $-1 $150 $150 $149 $235 forward $93 $-1 #
coedge $-1 $151 $151 $94 $152 forward $146 $-1 #
edge $-1 $236 3.0452700220599808e-015 $236 6.2831853071796031 $151 $237 forward 7 unknown #
loop $-1 $-1 $158 $95 #
plane-surface $-1 35.289224584375262 -28.458062558555767 2.9292278781107584 0 -0.85716730853699208 0.51503806187062418 1 0 0 forward_v I I I I #
loop $-1 $-1 $238 $61 #
coedge $-1 $156 $156 $157 $239 reversed $96 $-1 #
coedge $-1 $157 $157 $156 $239 forward $98 $-1 #
coedge $-1 $158 $158 $99 $159 forward $153 $-1 #
edge $-1 $240 3.0452700220599808e-015 $240 6.2831853071796031 $158 $241 forward 7 unknown #
face $-1 $242 $243 $24 $-1 $244 reversed single #
loop $-1 $-1 $245 $100 #
plane-surface $-1 -44.46546830652791 0 0 1 0 0 0 0 -1 forward_v I I I I #
coedge $-1 $246 $171 $247 $248 forward $101 $-1 #
coedge $-1 $249 $103 $246 $250 forward $65 $-1 #
coedge $-1 $103 $249 $251 $252 forward $65 $-1 #
coedge $-1 $174 $173 $103 $167 reversed $175 $-1 #
edge $-1 $253 -28.458062558555767 $254 28.458062558555767 $166 $255 forward 7 unknown #
coedge $-1 $105 $104 $256 $257 forward $41 $-1 #
coedge $-1 $258 $259 $104 $170 reversed $243 $-1 #
edge $-1 $177 -44.46546830652791 $260 44.46546830652791 $169 $261 forward 7 unknown #
coedge $-1 $163 $262 $105 $172 reversed $101 $-1 #
edge $-1 $263 -44.46546830652791 $176 44.46546830652791 $171 $264 forward 7 unknown #
coedge $-1 $166 $106 $262 $265 forward $175 $-1 #
coedge $-1 $106 $166 $258 $266 reversed $175 $-1 #
loop $-1 $-1 $173 $242 #
vertex $-1 $107 $267 #
vertex $-1 $107 $268 #
straight-curve $-1 44.46546830652791 0 6.4683099617711663 0 1 0 I I #
face $-1 $269 $270 $25 $-1 $271 reversed single #
loop $-1 $-1 $184 $108 #
plane-surface $-1 0 -28.458062558555767 0 0 1 0 0 0 1 forward_v I I I I #
coedge $-1 $272 $273 $183 $274 forward $109 $-1 #
coedge $-1 $191 $111 $182 $274 reversed $69 $-1 #
coedge $-1 $189 $275 $111 $185 forward $180 $-1 #
edge $-1 $276 -3.9841549808855832 $192 -0.98415498088558317 $184 $277 forward 7 unknown #
coedge $-1 $113 $112 $278 $279 reversed $44 $-1 #
coedge $-1 $280 $281 $112 $188 forward $282 $-1 #
edge $-1 $283 -24.323858598473638 $193 -15.959360817634906 $187 $284 forward 7 unknown #
coedge $-1 $285 $184 $113 $190 forward $180 $-1 #
edge $-1 $192 15.959360817634906 $286 24.323858598473638 $189 $287 forward 7 unknown #
coedge $-1 $114 $183 $280 $288 reversed $69 $-1 #
vertex $-1 $190 $289 #
vertex $-1 $188 $290 #
straight-curve $-1 -36.100970525689178 0 -3.4683099617711663 0 1 0 I I #
face $-1 $-1 $207 $26 $-1 $291 forward single #
loop $-1 $-1 $292 $116 #
plane-surface $-1 0 28.458062558555767 0 0 -1 0 0 0 -1 forward_v I I I I #
coedge $-1 $293 $294 $200 $295 forward $117 $-1 #
coedge $-1 $296 $119 $121 $205 forward $73 $-1 #
coedge $-1 $119 $296 $198 $295 reversed $73 $-1 #
coedge $-1 $297 $122 $119 $202 forward $207 $-1 #
edge $-1 $209 8.4683685700349827 $298 26.820856014340279 $201 $299 forward 7 unknown #
coedge $-1 $300 $292 $120 $204 forward $196 $-1 #
edge $-1 $301 -45.830115567203002 $208 -42.291033483542599 $203 $302 forward 7 unknown #
edge $-1 $209 52.787313800565997 $301 56.916125117111527 $121 $303 forward 7 unknown #
coedge $-1 $122 $297 $300 $304 forward $207 $-1 #
loop $-1 $-1 $201 $195 #
vertex $-1 $204 $305 #
vertex $-1 $123 $306 #
straight-curve $-1 26.112980862222614 37.686391685669797 6.468309961771169 0 -1 0 I I #
coedge $-1 $211 $211 $-1 $307 reversed $126 $-1 #
edge $-1 $308 0 $308 6.2831853071796004 $127 $309 forward 7 unknown #
vertex $-1 $130 $310 #
ellipse-curve $-1 31.356548703452702 27.394815069404213 4.6987689199409592 0 0.85716730853699208 0.51503806187062418 0.5 0 0 1 I I #
coedge $-1 $215 $215 $-1 $311 reversed $133 $-1 #
edge $-1 $312 0 $312 6.2831853071796004 $134 $313 forward 7 unknown #
vertex $-1 $137 $314 #
ellipse-curve $-1 39.221900465297821 27.394815069404213 4.6987689199409592 0 0.85716730853699208 0.51503806187062418 0.5 0 0 1 I I #
face $-1 $-1 $315 $29 $-1 $316 reversed single #
loop $-1 $-1 $317 $138 #
plane-surface $-1 0 -28.458062558555767 0 0 1 0 0 0 1 forward_v I I I I #
coedge $-1 $223 $141 $143 $229 reversed $87 $-1 #
coedge $-1 $141 $222 $318 $319 reversed $87 $-1 #
coedge $-1 $320 $144 $141 $225 forward $139 $-1 #
edge $-1 $232 -26.011809490168677 $321 -23.885314511865566 $224 $322 forward 7 unknown #
coedge $-1 $143 $142 $317 $323 reversed $56 $-1 #
coedge $-1 $324 $325 $142 $228 forward $315 $-1 #
edge $-1 $326 -6.0730735041899075 $231 -1.9442621876443766 $227 $327 forward 7 unknown #
edge $-1 $328 0 $232 4.1288113165455327 $222 $329 forward 7 unknown #
coedge $-1 $144 $320 $324 $330 forward $139 $-1 #
vertex $-1 $228 $331 #
vertex $-1 $145 $332 #
straight-curve $-1 17.644612292187631 -26.331567580252653 6.4683099617711663 -1 0 0 I I #
coedge $-1 $234 $234 $-1 $333 reversed $148 $-1 #
edge $-1 $334 0 $334 6.2831853071796004 $149 $335 forward 7 unknown #
vertex $-1 $152 $336 #
ellipse-curve $-1 31.356548703452702 -27.394815069404213 4.698768919940961 0 -0.85716730853699208 0.51503806187062418 0.5 0 0 1 I I #
coedge $-1 $238 $238 $-1 $337 reversed $155 $-1 #
edge $-1 $338 0 $338 6.2831853071796004 $156 $339 forward 7 unknown #
vertex $-1 $159 $340 #
ellipse-curve $-1 39.221900465297821 -27.394815069404213 4.698768919940961 0 -0.85716730853699208 0.51503806187062418 0.5 0 0 1 I I #
face $-1 $-1 $175 $24 $-1 $341 reversed single #
loop $-1 $-1 $258 $160 #
plane-surface $-1 0 28.458062558555767 0 0 -1 0 0 0 -1 forward_v I I I I #
coedge $-1 $342 $256 $259 $343 forward $161 $-1 #
coedge $-1 $262 $163 $164 $250 reversed $101 $-1 #
coedge $-1 $256 $342 $163 $248 reversed $161 $-1 #
edge $-1 $263 -6.4683099617711663 $344 6.4683099617711663 $247 $345 forward 7 unknown #
coedge $-1 $165 $164 $342 $346 forward $65 $-1 #
edge $-1 $254 -44.46546830652791 $344 44.46546830652791 $246 $347 forward 7 unknown #
coedge $-1 $259 $258 $165 $252 reversed $243 $-1 #
edge $-1 $348 -44.46546830652791 $253 44.46546830652791 $251 $349 forward 7 unknown #
vertex $-1 $167 $350 #
vertex $-1 $265 $351 #
straight-curve $-1 44.46546830652791 0 -6.4683099617711663 0 -1 0 I I #
coedge $-1 $245 $247 $168 $257 reversed $161 $-1 #
edge $-1 $260 -28.458062558555767 $263 28.458062558555767 $256 $352 forward 7 unknown #
coedge $-1 $251 $169 $174 $266 forward $243 $-1 #
coedge $-1 $169 $251 $245 $343 reversed $243 $-1 #
vertex $-1 $170 $353 #
straight-curve $-1 0 28.458062558555767 6.4683099617711663 -1 0 0 I I #
coedge $-1 $171 $246 $173 $265 reversed $101 $-1 #
vertex $-1 $257 $354 #
straight-curve $-1 0 -28.458062558555767 6.4683099617711663 1 0 0 I I #
edge $-1 $176 -6.4683099617711663 $254 6.4683099617711663 $173 $355 forward 7 unknown #
edge $-1 $177 -6.4683099617711663 $253 6.4683099617711663 $174 $356 forward 7 unknown #
point $-1 44.46546830652791 -28.458062558555767 6.4683099617711663 #
point $-1 44.46546830652791 28.458062558555767 6.4683099617711663 #
face $-1 $-1 $282 $25 $-1 $357 reversed single #
loop $-1 $-1 $278 $179 #
plane-surface $-1 -44.46546830652791 0 0 1 0 0 0 0 -1 forward_v I I I I #
coedge $-1 $358 $182 $275 $359 forward $109 $-1 #
coedge $-1 $182 $358 $360 $361 forward $109 $-1 #
edge $-1 $362 -28.458062558555767 $276 28.458062558555767 $182 $363 forward 7 unknown #
coedge $-1 $184 $285 $272 $359 reversed $180 $-1 #
vertex $-1 $359 $364 #
straight-curve $-1 -36.100970525689178 -28.458062558555767 -2.4841549808855832 0 0 1 I I #
coedge $-1 $365 $366 $186 $279 forward $270 $-1 #
edge $-1 $286 -28.458062558555767 $283 28.458062558555767 $278 $367 forward 7 unknown #
coedge $-1 $360 $187 $191 $288 forward $282 $-1 #
coedge $-1 $187 $360 $365 $368 reversed $282 $-1 #
loop $-1 $-1 $280 $269 #
vertex $-1 $368 $369 #
straight-curve $-1 -20.141609708054272 28.458062558555767 -3.4683099617711663 1 0 0 I I #
coedge $-1 $275 $189 $366 $370 forward $180 $-1 #
vertex $-1 $370 $371 #
straight-curve $-1 -20.141609708054272 -28.458062558555767 -3.4683099617711663 -1 0 0 I I #
edge $-1 $193 0.98415498088558317 $362 3.9841549808855832 $280 $372 forward 7 unknown #
point $-1 -36.100970525689178 -28.458062558555767 -3.4683099617711663 #
point $-1 -36.100970525689178 28.458062558555767 -3.4683099617711663 #
plane-surface $-1 0 0 6.4683099617711663 0 0 1 1 0 0 forward_v I I I I #
coedge $-1 $203 $373 $296 $374 forward $196 $-1 #
coedge $-1 $294 $198 $373 $375 reversed $117 $-1 #
coedge $-1 $198 $293 $297 $376 reversed $117 $-1 #
edge $-1 $298 30.402324746200136 $377 34.531136062745666 $198 $378 forward 7 unknown #
coedge $-1 $200 $199 $292 $374 reversed $73 $-1 #
coedge $-1 $206 $201 $294 $376 forward $207 $-1 #
vertex $-1 $376 $379 #
straight-curve $-1 17.644612292187631 26.331567580252653 6.4683099617711655 1 0 0 I I #
coedge $-1 $373 $203 $206 $304 reversed $196 $-1 #
vertex $-1 $204 $380 #
straight-curve $-1 26.112980862222614 28.458062558555767 48.759343445313768 0 0 1 I I #
straight-curve $-1 26.112980862222614 -0.85590821094730529 51.715869657099937 0 0.51503806187062418 -0.85716730853699208 I I #
edge $-1 $381 -44.46546830652791 $208 -26.112980862222614 $300 $382 forward 7 unknown #
point $-1 26.112980862222614 28.458062558555767 6.4683099617711663 #
point $-1 26.112980862222614 26.331567580252656 6.468309961771169 #
edge $-1 $383 1 $383 0 $211 $-1 forward 7 unknown #
vertex $-1 $212 $384 #
ellipse-curve $-1 31.356548703452702 26.409270168574814 4.1065938211542301 0 0.85716730853699208 0.51503806187062418 0.5 0 0 1 I I #
point $-1 31.856548703452702 27.394815069404213 4.698768919940961 #
edge $-1 $385 1 $385 0 $215 $-1 forward 7 unknown #
vertex $-1 $216 $386 #
ellipse-curve $-1 39.221900465297821 26.409270168574814 4.1065938211542301 0 0.85716730853699208 0.51503806187062418 0.5 0 0 1 I I #
point $-1 39.721900465297821 27.394815069404213 4.698768919940961 #
loop $-1 $-1 $227 $219 #
plane-surface $-1 44.46546830652791 0 0 -1 0 0 0 0 1 forward_v I I I I #
coedge $-1 $387 $318 $226 $323 forward $220 $-1 #
coedge $-1 $317 $388 $223 $319 forward $220 $-1 #
edge $-1 $321 17.897712594048013 $328 21.43679467770842 $318 $389 forward 7 unknown #
coedge $-1 $230 $224 $388 $390 forward $139 $-1 #
vertex $-1 $390 $391 #
straight-curve $-1 26.112980862222614 -52.343377070421333 6.4683099617711655 0 -1 0 I I #
edge $-1 $328 8.4683685700349827 $326 26.820856014340279 $317 $392 forward 7 unknown #
coedge $-1 $325 $227 $230 $330 reversed $315 $-1 #
coedge $-1 $227 $324 $387 $393 forward $315 $-1 #
vertex $-1 $323 $394 #
straight-curve $-1 44.46546830652791 -25.330198551359956 8.1348679482445405 0 0.51503806187062429 0.85716730853699219 I I #
vertex $-1 $323 $395 #
straight-curve $-1 26.112980862222614 -28.458062558555767 2.9292278781107584 0 0.51503806187062418 0.85716730853699208 I I #
edge $-1 $396 -28.458062558555767 $231 -26.331567580252656 $324 $397 forward 7 unknown #
point $-1 44.46546830652791 -26.331567580252656 6.4683099617711663 #
point $-1 26.112980862222614 -26.331567580252656 6.4683099617711663 #
edge $-1 $398 1 $398 0 $234 $-1 forward 7 unknown #
vertex $-1 $235 $399 #
ellipse-curve $-1 31.356548703452702 -26.409270168574814 4.1065938211542319 0 -0.85716730853699208 0.51503806187062418 0.5 0 0 1 I I #
point $-1 31.856548703452702 -27.394815069404213 4.6987689199409628 #
edge $-1 $400 1 $400 0 $238 $-1 forward 7 unknown #
vertex $-1 $239 $401 #
ellipse-curve $-1 39.221900465297821 -26.409270168574814 4.1065938211542319 0 -0.85716730853699208 0.51503806187062418 0.5 0 0 1 I I #
point $-1 39.721900465297821 -27.394815069404213 4.6987689199409628 #
plane-surface $-1 44.46546830652791 0 0 -1 0 0 0 0 1 forward_v I I I I #
coedge $-1 $247 $245 $249 $346 reversed $161 $-1 #
edge $-1 $260 -6.4683099617711663 $348 6.4683099617711663 $259 $402 forward 7 unknown #
vertex $-1 $346 $403 #
straight-curve $-1 -44.46546830652791 -28.458062558555767 0 0 0 -1 I I #
edge $-1 $344 -28.458062558555767 $348 28.458062558555767 $342 $404 forward 7 unknown #
straight-curve $-1 0 -28.458062558555767 -6.4683099617711663 -1 0 0 I I #
vertex $-1 $252 $405 #
straight-curve $-1 0 28.458062558555767 -6.4683099617711663 1 0 0 I I #
point $-1 44.46546830652791 28.458062558555767 -6.4683099617711663 #
point $-1 44.46546830652791 -28.458062558555767 -6.4683099617711663 #
straight-curve $-1 -44.46546830652791 0 6.4683099617711663 0 -1 0 I I #
point $-1 -44.46546830652791 28.458062558555767 6.4683099617711663 #
point $-1 -44.46546830652791 -28.458062558555767 6.4683099617711663 #
straight-curve $-1 44.46546830652791 -28.458062558555767 0 0 0 -1 I I #
straight-curve $-1 44.46546830652791 28.458062558555767 0 0 0 -1 I I #
plane-surface $-1 0 28.458062558555767 0 0 -1 0 0 0 -1 forward_v I I I I #
coedge $-1 $273 $272 $406 $407 forward $109 $-1 #
edge $-1 $276 36.100970525689178 $408 44.46546830652791 $275 $409 forward 7 unknown #
coedge $-1 $281 $280 $273 $361 reversed $282 $-1 #
edge $-1 $410 -44.46546830652791 $362 -36.100970525689178 $360 $411 forward 7 unknown #
vertex $-1 $288 $412 #
straight-curve $-1 -36.100970525689178 0 -6.4683099617711663 0 -1 0 I I #
point $-1 -36.100970525689178 -28.458062558555767 -6.4683099617711663 #
coedge $-1 $406 $278 $281 $368 forward $270 $-1 #
coedge $-1 $278 $406 $285 $370 reversed $270 $-1 #
straight-curve $-1 -44.46546830652791 0 -3.4683099617711663 0 1 0 I I #
edge $-1 $283 3.4683099617711663 $410 6.4683099617711663 $281 $413 forward 7 unknown #
point $-1 -44.46546830652791 28.458062558555767 -3.4683099617711663 #
edge $-1 $286 3.4683099617711663 $408 6.4683099617711663 $366 $414 forward 7 unknown #
point $-1 -44.46546830652791 -28.458062558555767 -3.4683099617711663 #
straight-curve $-1 -36.100970525689178 28.458062558555767 -2.4841549808855832 0 0 -1 I I #
coedge $-1 $292 $300 $293 $375 forward $196 $-1 #
edge $-1 $377 -26.820856014340279 $301 -8.4683685700349827 $292 $415 forward 7 unknown #
edge $-1 $381 -6.4683099617711663 $377 -2.9292278781107655 $293 $416 forward 7 unknown #
edge $-1 $298 26.331567580252656 $381 28.458062558555767 $294 $417 forward 7 unknown #
vertex $-1 $295 $418 #
straight-curve $-1 44.46546830652791 10.673213166608418 32.52818883773913 0 0.51503806187062429 -0.85716730853699219 I I #
point $-1 44.46546830652791 26.331567580252656 6.468309961771169 #
point $-1 26.112980862222614 28.458062558555767 2.9292278781107655 #
vertex $-1 $376 $419 #
straight-curve $-1 0 28.458062558555767 6.4683099617711663 -1 0 0 I I #
vertex $-1 $307 $420 #
point $-1 31.856548703452702 26.409270168574814 4.1065938211542301 #
vertex $-1 $311 $421 #
point $-1 39.721900465297821 26.409270168574814 4.1065938211542301 #
coedge $-1 $388 $317 $325 $393 reversed $220 $-1 #
coedge $-1 $318 $387 $320 $390 reversed $220 $-1 #
straight-curve $-1 26.112980862222614 -28.458062558555767 24.366022555819178 0 0 -1 I I #
edge $-1 $321 26.112980862222614 $396 44.46546830652791 $388 $422 forward 7 unknown #
point $-1 26.112980862222614 -28.458062558555767 6.4683099617711663 #
straight-curve $-1 17.644612292187631 -28.458062558555767 2.9292278781107606 1 0 0 I I #
edge $-1 $396 -6.4683099617711663 $326 -2.9292278781107584 $325 $423 forward 7 unknown #
point $-1 44.46546830652791 -28.458062558555767 2.9292278781107584 #
point $-1 26.112980862222614 -28.458062558555767 2.9292278781107584 #
vertex $-1 $330 $424 #
straight-curve $-1 44.46546830652791 0 6.4683099617711663 0 1 0 I I #
vertex $-1 $333 $425 #
point $-1 31.856548703452702 -26.409270168574814 4.1065938211542319 #
vertex $-1 $337 $426 #
point $-1 39.721900465297821 -26.409270168574814 4.1065938211542319 #
straight-curve $-1 -44.46546830652791 28.458062558555767 0 0 0 -1 I I #
point $-1 -44.46546830652791 -28.458062558555767 -6.4683099617711663 #
straight-curve $-1 -44.46546830652791 0 -6.4683099617711663 0 1 0 I I #
point $-1 -44.46546830652791 28.458062558555767 -6.4683099617711663 #
coedge $-1 $366 $365 $358 $407 reversed $270 $-1 #
edge $-1 $408 -28.458062558555767 $410 28.458062558555767 $406 $427 forward 7 unknown #
vertex $-1 $407 $428 #
straight-curve $-1 0 -28.458062558555767 -6.4683099617711663 -1 0 0 I I #
vertex $-1 $361 $429 #
straight-curve $-1 0 28.458062558555767 -6.4683099617711663 1 0 0 I I #
point $-1 -36.100970525689178 28.458062558555767 -6.4683099617711663 #
straight-curve $-1 -44.46546830652791 28.458062558555767 0 0 0 -1 I I #
straight-curve $-1 -44.46546830652791 -28.458062558555767 0 0 0 -1 I I #
straight-curve $-1 17.644612292187631 28.458062558555767 2.9292278781107548 -1 0 0 I I #
straight-curve $-1 44.46546830652791 28.458062558555767 0 0 0 -1 I I #
straight-curve $-1 44.46546830652791 0 6.4683099617711663 0 1 0 I I #
point $-1 44.46546830652791 28.458062558555767 2.9292278781107655 #
point $-1 44.46546830652791 28.458062558555767 6.4683099617711663 #
point $-1 31.356548703452702 25.980686514306321 3.8490747902189173 #
point $-1 39.221900465297821 25.980686514306321 3.8490747902189173 #
straight-curve $-1 0 -28.458062558555767 6.4683099617711663 1 0 0 I I #
straight-curve $-1 44.46546830652791 -28.458062558555767 0 0 0 -1 I I #
point $-1 44.46546830652791 -28.458062558555767 6.4683099617711663 #
point $-1 31.356548703452702 -25.980686514306321 3.8490747902189191 #
point $-1 39.221900465297821 -25.980686514306321 3.8490747902189191 #
straight-curve $-1 -44.46546830652791 0 -6.4683099617711663 0 1 0 I I #
point $-1 -44.46546830652791 -28.458062558555767 -6.4683099617711663 #
point $-1 -44.46546830652791 28.458062558555767 -6.4683099617711663 #
End-of-ACIS-data 