500 0 3 0           
7 Unknown 11 ACIS 5.0 NT 24 Fri Mar 26 20:14:38 1999 
-1 9.9999999999999995e-007 1e-010 
body $-1 $3 $-1 $4 #
body $-1 $5 $-1 $6 #
body $-1 $7 $-1 $8 #
lump $-1 $-1 $9 $0 #
transform $-1 1 0 0 0 1 0 0 0 1 42.04596087527085 27.155554558400048 9.8417027070779728 1 rotate no_reflect no_shear #
lump $-1 $-1 $10 $1 #
transform $-1 1 0 0 0 1 0 0 0 1 42.04596087527085 27.155554558400048 9.8417027070779728 1 rotate no_reflect no_shear #
lump $-1 $-1 $11 $2 #
transform $-1 1 0 0 0 1 0 0 0 1 42.04596087527085 27.155554558400048 9.8417027070779728 1 rotate no_reflect no_shear #
shell $-1 $-1 $-1 $12 $-1 $3 #
shell $-1 $-1 $-1 $13 $-1 $5 #
shell $-1 $-1 $-1 $14 $-1 $7 #
face $-1 $15 $16 $9 $-1 $17 forward single #
face $-1 $18 $19 $10 $-1 $20 reversed single #
face $-1 $21 $22 $11 $-1 $23 forward single #
face $-1 $24 $25 $9 $-1 $26 reversed single #
loop $-1 $-1 $27 $12 #
plane-surface $-1 0 0 9.8417027070779728 0 0 1 1 0 0 forward_v I I I I #
face $-1 $28 $29 $10 $-1 $30 reversed single #
loop $-1 $-1 $31 $13 #
plane-surface $-1 13.275657713699928 -6.7863411315370215 116.72581895543482 0 -1 0 -0.51503808176128008 0 -0.85716729658548041 forward_v I I I I #
face $-1 $32 $33 $11 $-1 $34 forward single #
loop $-1 $35 $36 $14 #
cone-surface $-1 33.93172671265414 -14.770912717988256 3.8655446737148731 -0.51503808176128008 0 -0.85716729658548041 1.2857509448782207 0 -0.77255712264192011 1 I I 0 1 1.5 forward I I I I #
face $-1 $37 $38 $9 $-1 $39 reversed single #
loop $-1 $-1 $40 $15 #
plane-surface $-1 0 0 -9.8417027070779728 0 0 1 1 0 0 forward_v I I I I #
coedge $-1 $41 $42 $43 $44 forward $16 $-1 #
face $-1 $45 $46 $10 $-1 $47 reversed single #
loop $-1 $-1 $48 $18 #
plane-surface $-1 -30.034884356318734 -14.770912717988256 44.644973723845226 0.51503808176128008 0 0.85716729658548041 0.85716729658548041 0 -0.51503808176128008 forward_v I I I I #
coedge $-1 $49 $50 $51 $52 reversed $19 $-1 #
face $-1 $-1 $53 $11 $-1 $54 forward single #
loop $-1 $55 $56 $21 #
cone-surface $-1 32.510452192907479 -14.770912717988256 1.5001466945383708 -0.51503808176128008 0 -0.85716729658548041 0.64287547243911036 0 -0.38627856132096006 1 I I -0.70710678118654757 0.70710678118654757 0.75 forward I I I I #
loop $-1 $-1 $57 $14 #
coedge $-1 $36 $36 $58 $59 reversed $22 $-1 #
face $-1 $60 $61 $9 $-1 $62 reversed single #
loop $-1 $-1 $63 $24 #
plane-surface $-1 0 -27.155554558400048 0 0 1 0 0 0 1 forward_v I I I I #
coedge $-1 $64 $65 $66 $67 forward $25 $-1 #
coedge $-1 $68 $27 $69 $70 forward $16 $-1 #
coedge $-1 $27 $68 $71 $72 forward $16 $-1 #
coedge $-1 $73 $74 $27 $44 reversed $75 $-1 #
edge $-1 $76 -27.155554558400048 $77 27.155554558400048 $43 $78 forward 7 unknown #
face $-1 $79 $80 $10 $-1 $81 forward single #
loop $-1 $-1 $82 $28 #
plane-surface $-1 13.275657713699928 -22.755484304439491 116.72581895543482 0 1 0 0.51503808176128008 0 0.85716729658548041 forward_v I I I I #
coedge $-1 $83 $84 $85 $86 reversed $29 $-1 #
coedge $-1 $50 $31 $87 $88 reversed $19 $-1 #
coedge $-1 $31 $49 $83 $89 reversed $19 $-1 #
coedge $-1 $85 $90 $31 $52 forward $80 $-1 #
edge $-1 $91 -35.408132018420886 $92 -21.249655610038857 $51 $93 forward 7 unknown #
loop $-1 $-1 $58 $32 #
plane-surface $-1 -30.034884356318734 -14.770912717988256 44.644973723845226 0.51503808176128008 0 0.85716729658548041 0.85716729658548041 0 -0.51503808176128008 forward_v I I I I #
loop $-1 $-1 $94 $21 #
coedge $-1 $56 $56 $57 $95 reversed $33 $-1 #
coedge $-1 $57 $57 $56 $95 forward $35 $-1 #
coedge $-1 $58 $58 $36 $59 forward $53 $-1 #
edge $-1 $96 0 $96 6.2831853071796004 $58 $97 forward 7 unknown #
face $-1 $98 $99 $9 $-1 $100 reversed single #
loop $-1 $-1 $101 $37 #
plane-surface $-1 -42.04596087527085 0 0 1 0 0 0 0 -1 forward_v I I I I #
coedge $-1 $102 $71 $103 $104 forward $38 $-1 #
coedge $-1 $105 $40 $102 $106 forward $25 $-1 #
coedge $-1 $40 $105 $107 $108 forward $25 $-1 #
coedge $-1 $74 $73 $40 $67 reversed $75 $-1 #
edge $-1 $109 -27.155554558400048 $110 27.155554558400048 $66 $111 forward 7 unknown #
coedge $-1 $42 $41 $112 $113 forward $16 $-1 #
coedge $-1 $114 $115 $41 $70 reversed $99 $-1 #
edge $-1 $77 -42.04596087527085 $116 42.04596087527085 $69 $117 forward 7 unknown #
coedge $-1 $63 $118 $42 $72 reversed $38 $-1 #
edge $-1 $119 -42.04596087527085 $76 42.04596087527085 $71 $120 forward 7 unknown #
coedge $-1 $66 $43 $118 $121 forward $75 $-1 #
coedge $-1 $43 $66 $114 $122 reversed $75 $-1 #
loop $-1 $-1 $73 $98 #
vertex $-1 $44 $123 #
vertex $-1 $44 $124 #
straight-curve $-1 42.04596087527085 0 9.8417027070779728 0 1 0 I I #
face $-1 $-1 $125 $10 $-1 $126 reversed single #
loop $-1 $-1 $51 $45 #
plane-surface $-1 0 0 9.8417027070779728 0 0 1 1 0 0 forward_v I I I I #
coedge $-1 $127 $128 $129 $130 reversed $46 $-1 #
coedge $-1 $131 $48 $50 $89 forward $29 $-1 #
coedge $-1 $48 $131 $127 $132 forward $29 $-1 #
coedge $-1 $129 $51 $48 $86 forward $80 $-1 #
edge $-1 $92 -0.59911522745710677 $133 15.370027945445363 $85 $134 forward 7 unknown #
coedge $-1 $135 $136 $49 $88 forward $125 $-1 #
edge $-1 $137 -57.028477823890846 $91 -48.521206770639438 $87 $138 forward 7 unknown #
edge $-1 $92 67.574170239509698 $137 84.091921750541701 $50 $139 forward 7 unknown #
coedge $-1 $51 $129 $135 $140 forward $80 $-1 #
vertex $-1 $88 $141 #
vertex $-1 $52 $142 #
straight-curve $-1 6.6378288568499642 -6.7863411315370215 9.841702707077971 -1 0 0 I I #
coedge $-1 $94 $94 $-1 $143 reversed $55 $-1 #
edge $-1 $144 0 $144 6.2831853071796004 $56 $145 forward 7 unknown #
vertex $-1 $59 $146 #
ellipse-curve $-1 34.966722671079843 -14.770912717988256 5.5880671804522652 0.51503808176128008 0 0.85716729658548041 1.2857509448782207 0 -0.77255712264192011 1 I I #
face $-1 $-1 $75 $9 $-1 $147 reversed single #
loop $-1 $-1 $114 $60 #
plane-surface $-1 0 27.155554558400048 0 0 -1 0 0 0 -1 forward_v I I I I #
coedge $-1 $148 $112 $115 $149 forward $61 $-1 #
coedge $-1 $118 $63 $64 $106 reversed $38 $-1 #
coedge $-1 $112 $148 $63 $104 reversed $61 $-1 #
edge $-1 $119 -9.8417027070779728 $150 9.8417027070779728 $103 $151 forward 7 unknown #
coedge $-1 $65 $64 $148 $152 forward $25 $-1 #
edge $-1 $110 -42.04596087527085 $150 42.04596087527085 $102 $153 forward 7 unknown #
coedge $-1 $115 $114 $65 $108 reversed $99 $-1 #
edge $-1 $154 -42.04596087527085 $109 42.04596087527085 $107 $155 forward 7 unknown #
vertex $-1 $67 $156 #
vertex $-1 $121 $157 #
straight-curve $-1 42.04596087527085 0 -9.8417027070779728 0 -1 0 I I #
coedge $-1 $101 $103 $68 $113 reversed $61 $-1 #
edge $-1 $116 -27.155554558400048 $119 27.155554558400048 $112 $158 forward 7 unknown #
coedge $-1 $107 $69 $74 $122 forward $99 $-1 #
coedge $-1 $69 $107 $101 $149 reversed $99 $-1 #
vertex $-1 $70 $159 #
straight-curve $-1 0 27.155554558400048 9.8417027070779728 -1 0 0 I I #
coedge $-1 $71 $102 $73 $121 reversed $38 $-1 #
vertex $-1 $113 $160 #
straight-curve $-1 0 -27.155554558400048 9.8417027070779728 1 0 0 I I #
edge $-1 $76 -9.8417027070779728 $110 9.8417027070779728 $73 $161 forward 7 unknown #
edge $-1 $77 -9.8417027070779728 $109 9.8417027070779728 $74 $162 forward 7 unknown #
point $-1 42.04596087527085 -27.155554558400048 9.8417027070779728 #
point $-1 42.04596087527085 27.155554558400048 9.8417027070779728 #
loop $-1 $-1 $87 $79 #
plane-surface $-1 42.04596087527085 0 0 -1 0 0 0 0 1 forward_v I I I I #
coedge $-1 $128 $82 $84 $132 reversed $46 $-1 #
coedge $-1 $82 $127 $163 $164 reversed $46 $-1 #
coedge $-1 $90 $85 $82 $130 forward $80 $-1 #
edge $-1 $133 21.249655610038857 $165 35.408132018420886 $129 $166 forward 7 unknown #
coedge $-1 $84 $83 $136 $167 reversed $29 $-1 #
edge $-1 $168 -84.091921750541701 $133 -67.574170239509698 $127 $169 forward 7 unknown #
vertex $-1 $86 $170 #
straight-curve $-1 27.887484466888825 -7.3854563589941282 9.841702707077971 0 -1 0 I I #
coedge $-1 $163 $87 $90 $140 reversed $125 $-1 #
coedge $-1 $87 $163 $131 $167 forward $125 $-1 #
vertex $-1 $88 $171 #
straight-curve $-1 42.04596087527085 -6.7863411315370215 58.362909477717409 0 0 1 I I #
straight-curve $-1 -30.034884356318734 -6.7863411315370215 44.644973723845226 0.85716729658548041 0 -0.51503808176128008 I I #
edge $-1 $165 -22.755484304439491 $91 -6.7863411315370215 $135 $172 forward 7 unknown #
point $-1 42.04596087527085 -6.7863411315370215 9.8417027070779728 #
point $-1 27.887484466888822 -6.7863411315370215 9.841702707077971 #
edge $-1 $173 1 $173 0 $94 $-1 forward 7 unknown #
vertex $-1 $95 $174 #
ellipse-curve $-1 32.896730754228436 -14.770912717988256 2.1430221669774809 0.51503808176128008 0 0.85716729658548041 1.2857509448782207 0 -0.77255712264192011 1 I I #
point $-1 36.252473615958067 -14.770912717988256 4.8155100578103447 #
plane-surface $-1 42.04596087527085 0 0 -1 0 0 0 0 1 forward_v I I I I #
coedge $-1 $103 $101 $105 $152 reversed $61 $-1 #
edge $-1 $116 -9.8417027070779728 $154 9.8417027070779728 $115 $175 forward 7 unknown #
vertex $-1 $152 $176 #
straight-curve $-1 -42.04596087527085 -27.155554558400048 0 0 0 -1 I I #
edge $-1 $150 -27.155554558400048 $154 27.155554558400048 $148 $177 forward 7 unknown #
straight-curve $-1 0 -27.155554558400048 -9.8417027070779728 -1 0 0 I I #
vertex $-1 $108 $178 #
straight-curve $-1 0 27.155554558400048 -9.8417027070779728 1 0 0 I I #
point $-1 42.04596087527085 27.155554558400048 -9.8417027070779728 #
point $-1 42.04596087527085 -27.155554558400048 -9.8417027070779728 #
straight-curve $-1 -42.04596087527085 0 9.8417027070779728 0 -1 0 I I #
point $-1 -42.04596087527085 27.155554558400048 9.8417027070779728 #
point $-1 -42.04596087527085 -27.155554558400048 9.8417027070779728 #
straight-curve $-1 42.04596087527085 -27.155554558400048 0 0 0 -1 I I #
straight-curve $-1 42.04596087527085 27.155554558400048 0 0 0 -1 I I #
coedge $-1 $136 $135 $128 $164 forward $125 $-1 #
edge $-1 $165 48.521206770639438 $168 57.028477823890846 $163 $179 forward 7 unknown #
vertex $-1 $140 $180 #
straight-curve $-1 6.6378288568499642 -22.755484304439491 9.841702707077971 1 0 0 I I #
edge $-1 $168 -15.370027945445363 $137 0.59911522745710677 $136 $181 forward 7 unknown #
vertex $-1 $167 $182 #
straight-curve $-1 -30.034884356318734 -22.755484304439491 44.644973723845226 -0.85716729658548041 0 0.51503808176128008 I I #
point $-1 27.887484466888822 -22.755484304439491 9.841702707077971 #
point $-1 42.045960875270858 -6.7863411315370215 1.334431653826563 #
straight-curve $-1 42.04596087527085 0 9.8417027070779728 0 1 0 I I #
vertex $-1 $143 $183 #
point $-1 34.18248169910666 -14.770912717988256 1.370465044335561 #
straight-curve $-1 -42.04596087527085 27.155554558400048 0 0 0 -1 I I #
point $-1 -42.04596087527085 -27.155554558400048 -9.8417027070779728 #
straight-curve $-1 -42.04596087527085 0 -9.8417027070779728 0 1 0 I I #
point $-1 -42.04596087527085 27.155554558400048 -9.8417027070779728 #
straight-curve $-1 42.04596087527085 -22.755484304439491 58.362909477717409 0 0 -1 I I #
point $-1 42.04596087527085 -22.755484304439491 9.8417027070779728 #
straight-curve $-1 42.045960875270843 -7.3854563589941282 1.334431653826563 0 1 0 I I #
point $-1 42.045960875270858 -22.755484304439491 1.334431653826563 #
point $-1 32.124173631586523 -14.770912717988256 0.85727122209926043 #
End-of-ACIS-data 