500 0 9 0           
7 Unknown 11 ACIS 5.0 NT 24 Fri Mar 26 15:46:34 1999 
-1 9.9999999999999995e-007 1e-010 
body $-1 $9 $-1 $10 #
body $-1 $11 $-1 $12 #
body $-1 $13 $-1 $14 #
body $-1 $15 $-1 $16 #
body $-1 $17 $-1 $18 #
body $-1 $19 $-1 $20 #
body $-1 $21 $-1 $22 #
body $-1 $23 $-1 $24 #
body $-1 $25 $-1 $26 #
lump $-1 $-1 $27 $0 #
transform $-1 1 0 0 0 1 0 0 0 1 52.430799279763178 26.408212876162345 9.9052357161747491 1 rotate no_reflect no_shear #
lump $-1 $-1 $28 $1 #
transform $-1 1 0 0 0 1 0 0 0 1 52.430799279763178 26.408212876162345 9.9052357161747491 1 rotate no_reflect no_shear #
lump $-1 $-1 $29 $2 #
transform $-1 1 0 0 0 1 0 0 0 1 52.430799279763178 26.408212876162345 9.9052357161747491 1 rotate no_reflect no_shear #
lump $-1 $-1 $30 $3 #
transform $-1 1 0 0 0 1 0 0 0 1 52.430799279763178 26.408212876162345 9.9052357161747491 1 rotate no_reflect no_shear #
lump $-1 $-1 $31 $4 #
transform $-1 1 0 0 0 1 0 0 0 1 52.430799279763178 26.408212876162345 9.9052357161747491 1 rotate no_reflect no_shear #
lump $-1 $-1 $32 $5 #
transform $-1 1 0 0 0 1 0 0 0 1 52.430799279763178 26.408212876162345 9.9052357161747491 1 rotate no_reflect no_shear #
lump $-1 $-1 $33 $6 #
transform $-1 1 0 0 0 1 0 0 0 1 52.430799279763178 26.408212876162345 9.9052357161747491 1 rotate no_reflect no_shear #
lump $-1 $-1 $34 $7 #
transform $-1 1 0 0 0 1 0 0 0 1 52.430799279763178 26.408212876162345 9.9052357161747491 1 rotate no_reflect no_shear #
lump $-1 $-1 $35 $8 #
transform $-1 1 0 0 0 1 0 0 0 1 52.430799279763178 26.408212876162345 9.9052357161747491 1 rotate no_reflect no_shear #
shell $-1 $-1 $-1 $36 $-1 $9 #
shell $-1 $-1 $-1 $37 $-1 $11 #
shell $-1 $-1 $-1 $38 $-1 $13 #
shell $-1 $-1 $-1 $39 $-1 $15 #
shell $-1 $-1 $-1 $40 $-1 $17 #
shell $-1 $-1 $-1 $41 $-1 $19 #
shell $-1 $-1 $-1 $42 $-1 $21 #
shell $-1 $-1 $-1 $43 $-1 $23 #
shell $-1 $-1 $-1 $44 $-1 $25 #
face $-1 $45 $46 $27 $-1 $47 forward single #
face $-1 $48 $49 $28 $-1 $50 reversed single #
face $-1 $51 $52 $29 $-1 $53 reversed single #
face $-1 $54 $55 $30 $-1 $56 forward single #
face $-1 $57 $58 $31 $-1 $59 reversed single #
face $-1 $60 $61 $32 $-1 $62 forward single #
face $-1 $63 $64 $33 $-1 $65 reversed single #
face $-1 $66 $67 $34 $-1 $68 forward single #
face $-1 $69 $70 $35 $-1 $71 forward single #
face $-1 $72 $73 $27 $-1 $74 reversed single #
loop $-1 $-1 $75 $36 #
plane-surface $-1 0 0 9.9052357161747491 0 0 1 1 0 0 forward_v I I I I #
face $-1 $76 $77 $28 $-1 $78 reversed single #
loop $-1 $-1 $79 $37 #
plane-surface $-1 -48.196127368082706 0 6.9052357161747491 0 0 1 1 0 0 forward_v I I I I #
face $-1 $80 $81 $29 $-1 $82 reversed single #
loop $-1 $-1 $83 $38 #
plane-surface $-1 -12.38796899570124 68.994481601744383 115.36927094516841 1 0 0 0 -0.74314483375859142 -0.66913059716165679 forward_v I I I I #
face $-1 $84 $85 $30 $-1 $86 forward single #
loop $-1 $87 $88 $39 #
cone-surface $-1 -4.076648542010382 23.981534660608126 7.3462116929140464 0 -0.74314483375859142 -0.66913059716165679 1 0 0 1 I I 0 1 1 forward I I I I #
face $-1 $89 $90 $31 $-1 $91 reversed single #
loop $-1 $-1 $92 $40 #
plane-surface $-1 -4.0766485420103891 -8.9328736274349865 45.203166881706608 0 0.74314483375859142 0.66913059716165679 1 0 0 forward_v I I I I #
face $-1 $93 $94 $32 $-1 $95 forward single #
loop $-1 $96 $97 $41 #
cone-surface $-1 12.545992365371319 23.981534660608126 7.3462116929140464 0 -0.74314483375859142 -0.66913059716165679 1 0 0 1 I I 0 1 1 forward I I I I #
face $-1 $98 $99 $33 $-1 $100 reversed single #
loop $-1 $-1 $101 $42 #
plane-surface $-1 24.774079331490647 -111.24302902630589 62.396651627354636 -1 0 0 0 -0.80901700255871778 0.5877852410284794 forward_v I I I I #
face $-1 $102 $103 $34 $-1 $104 forward single #
loop $-1 $105 $106 $43 #
cone-surface $-1 16.809717034787766 -22.021999260595127 4.5596978655884204 0 0.80901700255871778 -0.5877852410284794 1 0 0 1 I I 0 1 1 forward I I I I #
face $-1 $107 $108 $35 $-1 $109 forward single #
loop $-1 $110 $111 $44 #
cone-surface $-1 21.588334412809488 -22.021999260595127 4.5596978655884204 0 0.80901700255871778 -0.5877852410284794 1 0 0 1 I I 0 1 1 forward I I I I #
face $-1 $112 $113 $27 $-1 $114 reversed single #
loop $-1 $-1 $115 $45 #
plane-surface $-1 0 0 -9.9052357161747491 0 0 1 1 0 0 forward_v I I I I #
coedge $-1 $116 $117 $118 $119 forward $46 $-1 #
face $-1 $120 $121 $28 $-1 $122 reversed single #
loop $-1 $-1 $123 $48 #
plane-surface $-1 -43.961455456402234 0 8.4052357161747491 -1 0 0 0 0 1 forward_v I I I I #
coedge $-1 $124 $125 $126 $127 forward $49 $-1 #
face $-1 $128 $129 $29 $-1 $130 reversed single #
loop $-1 $-1 $131 $51 #
plane-surface $-1 -4.0766485420103891 -8.9328736274349865 45.203166881706608 0 0.74314483375859142 0.66913059716165679 1 0 0 forward_v I I I I #
coedge $-1 $132 $133 $134 $135 reversed $52 $-1 #
face $-1 $-1 $136 $30 $-1 $137 forward single #
loop $-1 $138 $139 $54 #
cone-surface $-1 -4.076648542010382 22.962627687084812 6.4287837560237424 0 -0.74314483375859142 -0.66913059716165679 0.5 0 0 1 I I -0.70710678118654746 0.70710678118654746 0.5 forward I I I I #
loop $-1 $-1 $140 $39 #
coedge $-1 $88 $88 $141 $142 reversed $55 $-1 #
face $-1 $143 $144 $31 $-1 $145 forward single #
loop $-1 $-1 $146 $57 #
plane-surface $-1 20.857312819062155 68.994481601744383 115.36927094516841 -1 0 0 0 0.74314483375859142 0.66913059716165679 forward_v I I I I #
coedge $-1 $147 $148 $149 $150 reversed $58 $-1 #
face $-1 $-1 $151 $32 $-1 $152 forward single #
loop $-1 $153 $154 $60 #
cone-surface $-1 12.545992365371319 22.962627687084812 6.4287837560237424 0 -0.74314483375859142 -0.66913059716165679 0.5 0 0 1 I I -0.70710678118654746 0.70710678118654746 0.5 forward I I I I #
loop $-1 $-1 $155 $41 #
coedge $-1 $97 $97 $156 $157 reversed $61 $-1 #
face $-1 $158 $159 $33 $-1 $160 reversed single #
loop $-1 $-1 $161 $63 #
plane-surface $-1 19.199025723798641 -26.408212876162324 0.76055164341178738 0 -0.80901700255871778 0.5877852410284794 1 0 0 forward_v I I I I #
coedge $-1 $162 $163 $164 $165 reversed $64 $-1 #
face $-1 $-1 $166 $34 $-1 $167 forward single #
loop $-1 $168 $169 $66 #
cone-surface $-1 16.809717034787766 -20.553277988500973 3.4926094308693241 0 0.80901700255871778 -0.5877852410284794 0.5 0 0 1 I I -0.70710678118654746 0.70710678118654746 0.5 forward I I I I #
loop $-1 $-1 $170 $43 #
coedge $-1 $106 $106 $171 $172 reversed $67 $-1 #
face $-1 $-1 $173 $35 $-1 $174 forward single #
loop $-1 $175 $176 $69 #
cone-surface $-1 21.588334412809488 -20.553277988500973 3.4926094308693241 0 0.80901700255871778 -0.5877852410284794 0.5 0 0 1 I I -0.70710678118654746 0.70710678118654746 0.5 forward I I I I #
loop $-1 $-1 $177 $44 #
coedge $-1 $111 $111 $178 $179 reversed $70 $-1 #
face $-1 $180 $181 $27 $-1 $182 reversed single #
loop $-1 $-1 $183 $72 #
plane-surface $-1 0 -26.408212876162345 0 0 1 0 0 0 1 forward_v I I I I #
coedge $-1 $184 $185 $186 $187 forward $73 $-1 #
coedge $-1 $188 $75 $189 $190 forward $46 $-1 #
coedge $-1 $75 $188 $191 $192 forward $46 $-1 #
coedge $-1 $193 $194 $75 $119 reversed $195 $-1 #
edge $-1 $196 -26.408212876162345 $197 26.408212876162345 $118 $198 forward 7 unknown #
face $-1 $199 $200 $28 $-1 $201 reversed single #
loop $-1 $-1 $202 $76 #
plane-surface $-1 0 26.408212876162345 0 0 -1 0 0 0 -1 forward_v I I I I #
coedge $-1 $126 $203 $204 $205 reversed $77 $-1 #
coedge $-1 $206 $79 $207 $208 reversed $49 $-1 #
coedge $-1 $79 $206 $209 $210 reversed $49 $-1 #
coedge $-1 $211 $123 $79 $127 reversed $77 $-1 #
edge $-1 $212 -26.408212876162345 $213 26.408212876162345 $126 $214 forward 7 unknown #
face $-1 $215 $216 $29 $-1 $217 forward single #
loop $-1 $-1 $218 $80 #
plane-surface $-1 4.2346719116804614 68.994481601744383 115.36927094516841 -1 0 0 0 0.74314483375859142 0.66913059716165679 forward_v I I I I #
coedge $-1 $219 $220 $221 $222 reversed $81 $-1 #
coedge $-1 $133 $83 $223 $224 reversed $52 $-1 #
coedge $-1 $83 $132 $219 $225 reversed $52 $-1 #
coedge $-1 $221 $226 $83 $135 forward $216 $-1 #
edge $-1 $227 8.0890279247098462 $228 11.64771524253025 $134 $229 forward 7 unknown #
loop $-1 $-1 $141 $84 #
plane-surface $-1 -4.0766485420103891 -8.9328736274349865 45.203166881706608 0 0.74314483375859142 0.66913059716165679 1 0 0 forward_v I I I I #
loop $-1 $-1 $230 $54 #
coedge $-1 $139 $139 $140 $231 reversed $85 $-1 #
coedge $-1 $140 $140 $139 $231 forward $87 $-1 #
coedge $-1 $141 $141 $88 $142 forward $136 $-1 #
edge $-1 $232 3.9709381327211182e-016 $232 6.2831853071796004 $141 $233 forward 7 unknown #
face $-1 $234 $235 $31 $-1 $236 forward single #
loop $-1 $-1 $237 $89 #
plane-surface $-1 0 0 9.9052357161747491 0 0 1 1 0 0 forward_v I I I I #
coedge $-1 $238 $239 $240 $241 reversed $90 $-1 #
coedge $-1 $242 $92 $243 $244 reversed $58 $-1 #
coedge $-1 $92 $242 $237 $245 reversed $58 $-1 #
coedge $-1 $246 $247 $92 $150 forward $235 $-1 #
edge $-1 $248 -52.81642575232469 $249 -47.498050934440442 $149 $250 forward 7 unknown #
loop $-1 $-1 $156 $93 #
plane-surface $-1 -4.0766485420103891 -8.9328736274349865 45.203166881706608 0 0.74314483375859142 0.66913059716165679 1 0 0 forward_v I I I I #
loop $-1 $-1 $251 $60 #
coedge $-1 $154 $154 $155 $252 reversed $94 $-1 #
coedge $-1 $155 $155 $154 $252 forward $96 $-1 #
coedge $-1 $156 $156 $97 $157 forward $151 $-1 #
edge $-1 $253 3.9709381327211182e-016 $253 6.2831853071796004 $156 $254 forward 7 unknown #
face $-1 $255 $256 $33 $-1 $257 reversed single #
loop $-1 $-1 $258 $98 #
plane-surface $-1 13.623972116106636 -111.24302902630589 62.396651627354636 1 0 0 0 0.80901700255871778 -0.5877852410284794 forward_v I I I I #
coedge $-1 $259 $260 $261 $262 reversed $99 $-1 #
coedge $-1 $163 $101 $263 $264 reversed $64 $-1 #
coedge $-1 $101 $162 $259 $265 reversed $64 $-1 #
coedge $-1 $261 $266 $101 $165 forward $267 $-1 #
edge $-1 $268 29.2133016369906 $269 35.857303326495476 $164 $270 forward 7 unknown #
loop $-1 $-1 $171 $102 #
plane-surface $-1 19.199025723798641 -26.408212876162324 0.76055164341178738 0 -0.80901700255871778 0.5877852410284794 1 0 0 forward_v I I I I #
loop $-1 $-1 $271 $66 #
coedge $-1 $169 $169 $170 $272 reversed $103 $-1 #
coedge $-1 $170 $170 $169 $272 forward $105 $-1 #
coedge $-1 $171 $171 $106 $172 forward $166 $-1 #
edge $-1 $273 4.0452997518284518e-016 $273 6.2831853071796004 $171 $274 forward 7 unknown #
loop $-1 $-1 $178 $107 #
plane-surface $-1 19.199025723798641 -26.408212876162324 0.76055164341178738 0 -0.80901700255871778 0.5877852410284794 1 0 0 forward_v I I I I #
loop $-1 $-1 $275 $69 #
coedge $-1 $176 $176 $177 $276 reversed $108 $-1 #
coedge $-1 $177 $177 $176 $276 forward $110 $-1 #
coedge $-1 $178 $178 $111 $179 forward $173 $-1 #
edge $-1 $277 4.0452997518284518e-016 $277 6.2831853071796004 $178 $278 forward 7 unknown #
face $-1 $279 $280 $27 $-1 $281 reversed single #
loop $-1 $-1 $282 $112 #
plane-surface $-1 -52.430799279763178 0 0 1 0 0 0 0 -1 forward_v I I I I #
coedge $-1 $283 $191 $284 $285 forward $113 $-1 #
coedge $-1 $286 $115 $283 $287 forward $73 $-1 #
coedge $-1 $115 $286 $288 $289 forward $73 $-1 #
coedge $-1 $194 $193 $115 $187 reversed $195 $-1 #
edge $-1 $290 -26.408212876162345 $291 26.408212876162345 $186 $292 forward 7 unknown #
coedge $-1 $117 $116 $293 $294 forward $46 $-1 #
coedge $-1 $295 $296 $116 $190 reversed $280 $-1 #
edge $-1 $197 -52.430799279763178 $297 52.430799279763178 $189 $298 forward 7 unknown #
coedge $-1 $183 $299 $117 $192 reversed $113 $-1 #
edge $-1 $300 -52.430799279763178 $196 52.430799279763178 $191 $301 forward 7 unknown #
coedge $-1 $186 $118 $299 $302 forward $195 $-1 #
coedge $-1 $118 $186 $295 $303 reversed $195 $-1 #
loop $-1 $-1 $193 $279 #
vertex $-1 $119 $304 #
vertex $-1 $119 $305 #
straight-curve $-1 52.430799279763178 0 9.9052357161747491 0 1 0 I I #
face $-1 $306 $307 $28 $-1 $308 forward single #
loop $-1 $-1 $309 $120 #
plane-surface $-1 -52.430799279763178 0 0 1 0 0 0 0 -1 forward_v I I I I #
coedge $-1 $209 $310 $211 $311 forward $121 $-1 #
coedge $-1 $123 $211 $312 $313 reversed $77 $-1 #
coedge $-1 $314 $207 $123 $205 forward $315 $-1 #
edge $-1 $213 2.7026178580873745 $316 5.7026178580873745 $204 $317 forward 7 unknown #
coedge $-1 $125 $124 $309 $318 reversed $49 $-1 #
coedge $-1 $204 $319 $124 $208 forward $315 $-1 #
edge $-1 $320 -28.332735595721825 $213 -19.863391772360881 $207 $321 forward 7 unknown #
coedge $-1 $322 $202 $125 $210 forward $121 $-1 #
edge $-1 $212 19.863391772360881 $323 28.332735595721825 $209 $324 forward 7 unknown #
coedge $-1 $203 $126 $202 $311 reversed $77 $-1 #
vertex $-1 $210 $325 #
vertex $-1 $208 $326 #
straight-curve $-1 -43.961455456402234 0 6.9052357161747491 0 -1 0 I I #
face $-1 $-1 $327 $29 $-1 $328 reversed single #
loop $-1 $-1 $134 $128 #
plane-surface $-1 0 0 9.9052357161747491 0 0 1 1 0 0 forward_v I I I I #
coedge $-1 $329 $330 $331 $332 reversed $129 $-1 #
coedge $-1 $333 $131 $133 $225 forward $81 $-1 #
coedge $-1 $131 $333 $329 $334 forward $81 $-1 #
coedge $-1 $331 $134 $131 $222 forward $216 $-1 #
edge $-1 $228 -10.349644724696045 $335 6.272996182685656 $221 $336 forward 7 unknown #
coedge $-1 $337 $338 $132 $224 forward $327 $-1 #
edge $-1 $339 -51.73172252631192 $227 -47.779399756409454 $223 $340 forward 7 unknown #
edge $-1 $228 47.498050934440442 $339 52.81642575232469 $133 $341 forward 7 unknown #
coedge $-1 $134 $331 $337 $342 forward $216 $-1 #
vertex $-1 $224 $343 #
vertex $-1 $135 $344 #
straight-curve $-1 -12.38796899570124 34.497240800872191 9.9052357161747508 0 -1 0 I I #
coedge $-1 $230 $230 $-1 $345 reversed $138 $-1 #
edge $-1 $346 0 $346 6.2831853071796004 $139 $347 forward 7 unknown #
vertex $-1 $142 $348 #
ellipse-curve $-1 -4.076648542010382 24.628869217252145 7.9290743312235197 0 0.74314483375859142 0.66913059716165679 1 0 0 1 I I #
face $-1 $-1 $349 $31 $-1 $350 reversed single #
loop $-1 $-1 $246 $143 #
plane-surface $-1 4.2346719116804614 68.994481601744383 115.36927094516841 -1 0 0 0 0.74314483375859142 0.66913059716165679 forward_v I I I I #
coedge $-1 $240 $351 $148 $245 forward $144 $-1 #
coedge $-1 $239 $146 $242 $352 reversed $90 $-1 #
coedge $-1 $146 $238 $353 $354 reversed $90 $-1 #
coedge $-1 $355 $237 $146 $241 forward $144 $-1 #
edge $-1 $356 -11.64771524253025 $357 -8.0890279247098462 $240 $358 forward 7 unknown #
coedge $-1 $148 $147 $238 $352 forward $58 $-1 #
coedge $-1 $359 $353 $147 $244 forward $349 $-1 #
edge $-1 $360 -22.89563709006735 $248 -6.272996182685656 $243 $361 forward 7 unknown #
edge $-1 $249 6.272996182685656 $356 22.89563709006735 $237 $362 forward 7 unknown #
coedge $-1 $247 $149 $351 $363 reversed $235 $-1 #
coedge $-1 $149 $246 $359 $364 reversed $235 $-1 #
vertex $-1 $244 $365 #
vertex $-1 $245 $366 #
straight-curve $-1 4.2346719116804614 -8.9328736274349865 45.203166881706608 0 -0.66913059716165679 0.74314483375859142 I I #
coedge $-1 $251 $251 $-1 $367 reversed $153 $-1 #
edge $-1 $368 0 $368 6.2831853071796004 $154 $369 forward 7 unknown #
vertex $-1 $157 $370 #
ellipse-curve $-1 12.545992365371319 24.628869217252145 7.9290743312235197 0 0.74314483375859142 0.66913059716165679 1 0 0 1 I I #
face $-1 $-1 $267 $33 $-1 $371 forward single #
loop $-1 $-1 $372 $158 #
plane-surface $-1 0 -26.408212876162345 0 0 1 0 0 0 1 forward_v I I I I #
coedge $-1 $373 $374 $375 $376 reversed $159 $-1 #
coedge $-1 $377 $161 $163 $265 forward $99 $-1 #
coedge $-1 $161 $377 $373 $378 forward $99 $-1 #
coedge $-1 $375 $164 $161 $262 forward $267 $-1 #
edge $-1 $269 -15.174566469591326 $379 -4.024459254207315 $261 $380 forward 7 unknown #
coedge $-1 $381 $382 $162 $264 forward $256 $-1 #
edge $-1 $383 -30.437774170265559 $268 -21.293090097502571 $263 $384 forward 7 unknown #
edge $-1 $269 -11.303451032352374 $383 3.6241593609816998e-014 $163 $385 forward 7 unknown #
coedge $-1 $164 $375 $381 $386 forward $267 $-1 #
loop $-1 $-1 $375 $255 #
vertex $-1 $264 $387 #
vertex $-1 $165 $388 #
straight-curve $-1 24.774079331490647 -55.621514513152945 9.9052357161747508 0 1 0 I I #
coedge $-1 $271 $271 $-1 $389 reversed $168 $-1 #
edge $-1 $390 0 $390 6.2831853071796004 $169 $391 forward 7 unknown #
vertex $-1 $172 $392 #
ellipse-curve $-1 16.809717034787766 -23.0862120314099 5.332893679793262 0 -0.80901700255871778 0.5877852410284794 1 0 0 1 I I #
coedge $-1 $275 $275 $-1 $393 reversed $175 $-1 #
edge $-1 $394 0 $394 6.2831853071796004 $176 $395 forward 7 unknown #
vertex $-1 $179 $396 #
ellipse-curve $-1 21.588334412809488 -23.0862120314099 5.332893679793262 0 -0.80901700255871778 0.5877852410284794 1 0 0 1 I I #
face $-1 $-1 $195 $27 $-1 $397 reversed single #
loop $-1 $-1 $295 $180 #
plane-surface $-1 0 26.408212876162345 0 0 -1 0 0 0 -1 forward_v I I I I #
coedge $-1 $398 $293 $296 $399 forward $181 $-1 #
coedge $-1 $299 $183 $184 $287 reversed $113 $-1 #
coedge $-1 $293 $398 $183 $285 reversed $181 $-1 #
edge $-1 $300 -9.9052357161747491 $400 9.9052357161747491 $284 $401 forward 7 unknown #
coedge $-1 $185 $184 $398 $402 forward $73 $-1 #
edge $-1 $291 -52.430799279763178 $400 52.430799279763178 $283 $403 forward 7 unknown #
coedge $-1 $296 $295 $185 $289 reversed $280 $-1 #
edge $-1 $404 -52.430799279763178 $290 52.430799279763178 $288 $405 forward 7 unknown #
vertex $-1 $187 $406 #
vertex $-1 $302 $407 #
straight-curve $-1 52.430799279763178 0 -9.9052357161747491 0 -1 0 I I #
coedge $-1 $282 $284 $188 $294 reversed $181 $-1 #
edge $-1 $297 -26.408212876162345 $300 26.408212876162345 $293 $408 forward 7 unknown #
coedge $-1 $288 $189 $194 $303 forward $280 $-1 #
coedge $-1 $189 $288 $282 $399 reversed $280 $-1 #
vertex $-1 $190 $409 #
straight-curve $-1 0 26.408212876162345 9.9052357161747491 -1 0 0 I I #
coedge $-1 $191 $283 $193 $302 reversed $113 $-1 #
vertex $-1 $294 $410 #
straight-curve $-1 0 -26.408212876162345 9.9052357161747491 1 0 0 I I #
edge $-1 $196 -9.9052357161747491 $291 9.9052357161747491 $193 $411 forward 7 unknown #
edge $-1 $197 -9.9052357161747491 $290 9.9052357161747491 $194 $412 forward 7 unknown #
point $-1 52.430799279763178 -26.408212876162345 9.9052357161747491 #
point $-1 52.430799279763178 26.408212876162345 9.9052357161747491 #
face $-1 $-1 $315 $28 $-1 $413 reversed single #
loop $-1 $-1 $312 $199 #
plane-surface $-1 0 0 9.9052357161747491 0 0 1 1 0 0 forward_v I I I I #
coedge $-1 $414 $415 $206 $318 forward $200 $-1 #
coedge $-1 $202 $322 $416 $417 reversed $121 $-1 #
edge $-1 $418 -5.7026178580873745 $212 -2.7026178580873745 $202 $419 forward 7 unknown #
coedge $-1 $416 $420 $203 $313 forward $307 $-1 #
edge $-1 $316 -26.408212876162345 $418 26.408212876162345 $312 $421 forward 7 unknown #
coedge $-1 $319 $204 $420 $422 reversed $315 $-1 #
loop $-1 $-1 $204 $306 #
vertex $-1 $205 $423 #
straight-curve $-1 -43.961455456402234 -26.408212876162345 4.2026178580873745 0 0 1 I I #
edge $-1 $323 -26.408212876162345 $320 26.408212876162345 $309 $424 forward 7 unknown #
coedge $-1 $207 $314 $414 $425 forward $315 $-1 #
vertex $-1 $318 $426 #
straight-curve $-1 -24.098063684041353 -26.408212876162345 6.9052357161747491 1 0 0 I I #
coedge $-1 $310 $209 $415 $427 reversed $121 $-1 #
vertex $-1 $318 $428 #
straight-curve $-1 -24.098063684041353 26.408212876162345 6.9052357161747491 -1 0 0 I I #
point $-1 -43.961455456402234 26.408212876162345 6.9052357161747491 #
point $-1 -43.961455456402234 -26.408212876162345 6.9052357161747491 #
loop $-1 $-1 $223 $215 #
plane-surface $-1 0 26.408212876162345 0 0 -1 0 0 0 -1 forward_v I I I I #
coedge $-1 $330 $218 $220 $334 reversed $129 $-1 #
coedge $-1 $218 $329 $429 $430 reversed $129 $-1 #
coedge $-1 $226 $221 $218 $332 forward $216 $-1 #
edge $-1 $335 -11.64771524253025 $431 -8.0890279247098462 $331 $432 forward 7 unknown #
coedge $-1 $220 $219 $338 $433 reversed $81 $-1 #
edge $-1 $434 -52.81642575232469 $335 -47.498050934440442 $329 $435 forward 7 unknown #
vertex $-1 $222 $436 #
straight-curve $-1 -2.0383242710051945 22.849525558341938 9.9052357161747508 1 0 0 I I #
coedge $-1 $429 $223 $226 $342 reversed $327 $-1 #
coedge $-1 $223 $429 $333 $433 forward $327 $-1 #
vertex $-1 $224 $437 #
straight-curve $-1 -12.38796899570124 26.408212876162345 57.684635472584205 0 0 1 I I #
straight-curve $-1 -12.38796899570124 -8.9328736274349865 45.203166881706608 0 0.66913059716165679 -0.74314483375859142 I I #
edge $-1 $431 -4.2346719116804614 $227 12.38796899570124 $337 $438 forward 7 unknown #
point $-1 -12.38796899570124 26.408212876162345 9.9052357161747491 #
point $-1 -12.38796899570124 22.849525558341941 9.9052357161747508 #
edge $-1 $439 1 $439 0 $230 $-1 forward 7 unknown #
vertex $-1 $231 $440 #
ellipse-curve $-1 -4.076648542010382 23.334200103964108 6.7633490546045705 0 0.74314483375859142 0.66913059716165679 1 0 0 1 I I #
point $-1 -3.076648542010382 24.628869217252149 7.9290743312235223 #
loop $-1 $-1 $243 $234 #
plane-surface $-1 0 26.408212876162345 0 0 -1 0 0 0 -1 forward_v I I I I #
coedge $-1 $237 $355 $246 $363 forward $144 $-1 #
edge $-1 $360 -52.81642575232469 $356 -47.498050934440442 $238 $441 forward 7 unknown #
coedge $-1 $243 $442 $239 $354 forward $349 $-1 #
edge $-1 $357 47.779399756409454 $360 51.73172252631192 $353 $443 forward 7 unknown #
coedge $-1 $351 $240 $442 $444 forward $144 $-1 #
vertex $-1 $241 $445 #
vertex $-1 $444 $446 #
straight-curve $-1 20.857312819062155 34.497240800872191 9.9052357161747508 0 1 0 I I #
coedge $-1 $442 $243 $247 $364 forward $349 $-1 #
vertex $-1 $354 $447 #
straight-curve $-1 -2.0383242710051945 26.408212876162345 5.952912946272285 -1 0 0 I I #
straight-curve $-1 -2.0383242710051945 22.849525558341938 9.9052357161747508 1 0 0 I I #
edge $-1 $448 8.0890279247098462 $249 11.64771524253025 $351 $449 forward 7 unknown #
edge $-1 $248 -51.73172252631192 $448 -47.779399756409454 $359 $450 forward 7 unknown #
point $-1 4.2346719116804614 26.408212876162345 5.952912946272285 #
point $-1 4.2346719116804614 22.849525558341941 9.9052357161747508 #
edge $-1 $451 1 $451 0 $251 $-1 forward 7 unknown #
vertex $-1 $252 $452 #
ellipse-curve $-1 12.545992365371319 23.334200103964108 6.7633490546045705 0 0.74314483375859142 0.66913059716165679 1 0 0 1 I I #
point $-1 13.545992365371319 24.628869217252149 7.9290743312235223 #
plane-surface $-1 0 0 9.9052357161747491 0 0 1 1 0 0 forward_v I I I I #
coedge $-1 $382 $381 $374 $453 forward $256 $-1 #
coedge $-1 $374 $258 $260 $378 reversed $159 $-1 #
coedge $-1 $258 $373 $372 $453 reversed $159 $-1 #
coedge $-1 $266 $261 $258 $376 forward $267 $-1 #
edge $-1 $379 -35.857303326495476 $454 -29.2133016369906 $375 $455 forward 7 unknown #
coedge $-1 $260 $259 $382 $456 reversed $99 $-1 #
edge $-1 $457 -3.6241593609816998e-014 $379 11.303451032352374 $373 $458 forward 7 unknown #
vertex $-1 $262 $459 #
straight-curve $-1 9.5995128618993206 -19.764211186657466 9.9052357161747491 -1 0 0 I I #
coedge $-1 $372 $263 $266 $386 reversed $256 $-1 #
coedge $-1 $263 $372 $377 $456 forward $256 $-1 #
vertex $-1 $264 $460 #
straight-curve $-1 24.774079331490647 -26.408212876162345 31.198325813677318 0 0 1 I I #
straight-curve $-1 24.774079331490647 -26.408212876162324 0.76055164341178738 0 -0.5877852410284794 -0.80901700255871778 I I #
edge $-1 $454 13.623972116106636 $268 24.774079331490647 $381 $461 forward 7 unknown #
point $-1 24.774079331490647 -26.408212876162345 9.9052357161747491 #
point $-1 24.774079331490647 -19.764211186657469 9.9052357161747491 #
edge $-1 $462 1 $462 0 $271 $-1 forward 7 unknown #
vertex $-1 $272 $463 #
ellipse-curve $-1 16.809717034787766 -20.957786489780332 3.7865020513835637 0 -0.80901700255871778 0.5877852410284794 1 0 0 1 I I #
point $-1 17.809717034787766 -23.086212031409922 5.332893679793278 #
edge $-1 $464 1 $464 0 $275 $-1 forward 7 unknown #
vertex $-1 $276 $465 #
ellipse-curve $-1 21.588334412809488 -20.957786489780332 3.7865020513835637 0 -0.80901700255871778 0.5877852410284794 1 0 0 1 I I #
point $-1 22.588334412809488 -23.086212031409922 5.332893679793278 #
plane-surface $-1 52.430799279763178 0 0 -1 0 0 0 0 1 forward_v I I I I #
coedge $-1 $284 $282 $286 $402 reversed $181 $-1 #
edge $-1 $297 -9.9052357161747491 $404 9.9052357161747491 $296 $466 forward 7 unknown #
vertex $-1 $402 $467 #
straight-curve $-1 -52.430799279763178 -26.408212876162345 0 0 0 -1 I I #
edge $-1 $400 -26.408212876162345 $404 26.408212876162345 $398 $468 forward 7 unknown #
straight-curve $-1 0 -26.408212876162345 -9.9052357161747491 -1 0 0 I I #
vertex $-1 $289 $469 #
straight-curve $-1 0 26.408212876162345 -9.9052357161747491 1 0 0 I I #
point $-1 52.430799279763178 26.408212876162345 -9.9052357161747491 #
point $-1 52.430799279763178 -26.408212876162345 -9.9052357161747491 #
straight-curve $-1 -52.430799279763178 0 9.9052357161747491 0 -1 0 I I #
point $-1 -52.430799279763178 26.408212876162345 9.9052357161747491 #
point $-1 -52.430799279763178 -26.408212876162345 9.9052357161747491 #
straight-curve $-1 52.430799279763178 -26.408212876162345 0 0 0 -1 I I #
straight-curve $-1 52.430799279763178 26.408212876162345 0 0 0 -1 I I #
plane-surface $-1 0 -26.408212876162345 0 0 1 0 0 0 1 forward_v I I I I #
coedge $-1 $470 $309 $319 $425 reversed $200 $-1 #
coedge $-1 $309 $470 $322 $427 forward $200 $-1 #
coedge $-1 $471 $312 $310 $417 forward $307 $-1 #
edge $-1 $418 43.961455456402234 $472 52.430799279763178 $310 $473 forward 7 unknown #
vertex $-1 $417 $474 #
straight-curve $-1 -43.961455456402234 26.408212876162345 4.2026178580873745 0 0 -1 I I #
coedge $-1 $312 $471 $314 $422 forward $307 $-1 #
straight-curve $-1 -43.961455456402234 0 9.9052357161747491 0 1 0 I I #
edge $-1 $475 -52.430799279763178 $316 -43.961455456402234 $314 $476 forward 7 unknown #
point $-1 -43.961455456402234 -26.408212876162345 9.9052357161747491 #
straight-curve $-1 -52.430799279763178 0 6.9052357161747491 0 -1 0 I I #
edge $-1 $475 -9.9052357161747491 $320 -6.9052357161747491 $414 $477 forward 7 unknown #
point $-1 -52.430799279763178 -26.408212876162345 6.9052357161747491 #
edge $-1 $472 -9.9052357161747491 $323 -6.9052357161747491 $322 $478 forward 7 unknown #
point $-1 -52.430799279763178 26.408212876162345 6.9052357161747491 #
coedge $-1 $338 $337 $330 $430 forward $327 $-1 #
edge $-1 $431 47.779399756409454 $434 51.73172252631192 $429 $479 forward 7 unknown #
vertex $-1 $342 $480 #
straight-curve $-1 4.2346719116804614 34.497240800872191 9.9052357161747508 0 1 0 I I #
edge $-1 $434 -6.272996182685656 $339 10.349644724696045 $338 $481 forward 7 unknown #
vertex $-1 $433 $482 #
straight-curve $-1 4.2346719116804614 -8.9328736274349865 45.203166881706608 0 -0.66913059716165679 0.74314483375859142 I I #
point $-1 4.2346719116804614 22.849525558341941 9.9052357161747508 #
point $-1 -12.38796899570124 26.408212876162345 5.952912946272285 #
straight-curve $-1 0 26.408212876162345 9.9052357161747491 -1 0 0 I I #
vertex $-1 $345 $483 #
point $-1 -3.076648542010382 23.334200103964108 6.7633490546045705 #
straight-curve $-1 20.857312819062155 -8.9328736274349865 45.203166881706608 0 -0.66913059716165679 0.74314483375859142 I I #
coedge $-1 $353 $359 $355 $444 reversed $349 $-1 #
straight-curve $-1 20.857312819062155 26.408212876162345 57.684635472584205 0 0 -1 I I #
edge $-1 $357 -20.857312819062155 $448 -4.2346719116804614 $442 $484 forward 7 unknown #
point $-1 20.857312819062155 22.849525558341941 9.9052357161747508 #
point $-1 20.857312819062155 26.408212876162345 9.9052357161747491 #
point $-1 20.857312819062155 26.408212876162345 5.952912946272285 #
vertex $-1 $364 $485 #
straight-curve $-1 4.2346719116804614 34.497240800872191 9.9052357161747508 0 -1 0 I I #
straight-curve $-1 4.2346719116804614 26.408212876162345 57.684635472584205 0 0 1 I I #
vertex $-1 $367 $486 #
point $-1 13.545992365371319 23.334200103964108 6.7633490546045705 #
edge $-1 $454 21.293090097502571 $457 30.437774170265559 $372 $487 forward 7 unknown #
vertex $-1 $386 $488 #
straight-curve $-1 13.623972116106636 -55.621514513152945 9.9052357161747508 0 -1 0 I I #
edge $-1 $457 4.024459254207315 $383 15.174566469591326 $382 $489 forward 7 unknown #
vertex $-1 $456 $490 #
straight-curve $-1 13.623972116106636 -26.408212876162324 0.76055164341178738 0 0.5877852410284794 0.80901700255871778 I I #
point $-1 13.623972116106636 -19.764211186657469 9.9052357161747491 #
point $-1 24.774079331490647 -26.408212876162345 0.76055164341175807 #
straight-curve $-1 0 -26.408212876162345 9.9052357161747491 1 0 0 I I #
vertex $-1 $389 $491 #
point $-1 17.809717034787766 -20.957786489780332 3.7865020513835637 #
vertex $-1 $393 $492 #
point $-1 22.588334412809488 -20.957786489780332 3.7865020513835637 #
straight-curve $-1 -52.430799279763178 26.408212876162345 0 0 0 -1 I I #
point $-1 -52.430799279763178 -26.408212876162345 -9.9052357161747491 #
straight-curve $-1 -52.430799279763178 0 -9.9052357161747491 0 1 0 I I #
point $-1 -52.430799279763178 26.408212876162345 -9.9052357161747491 #
coedge $-1 $415 $414 $471 $493 reversed $200 $-1 #
coedge $-1 $420 $416 $470 $493 forward $307 $-1 #
vertex $-1 $417 $494 #
straight-curve $-1 0 26.408212876162345 9.9052357161747491 -1 0 0 I I #
point $-1 -43.961455456402234 26.408212876162345 9.9052357161747491 #
vertex $-1 $493 $495 #
straight-curve $-1 0 -26.408212876162345 9.9052357161747491 1 0 0 I I #
straight-curve $-1 -52.430799279763178 -26.408212876162345 0 0 0 -1 I I #
straight-curve $-1 -52.430799279763178 26.408212876162345 0 0 0 -1 I I #
straight-curve $-1 4.2346719116804614 26.408212876162345 57.684635472584205 0 0 -1 I I #
point $-1 4.2346719116804614 26.408212876162345 9.9052357161747491 #
straight-curve $-1 -2.0383242710051945 26.408212876162345 5.952912946272285 -1 0 0 I I #
point $-1 4.2346719116804614 26.408212876162345 5.952912946272285 #
point $-1 -4.076648542010382 22.591055270205516 6.0942184574429143 #
straight-curve $-1 0 26.408212876162345 9.9052357161747491 -1 0 0 I I #
point $-1 4.2346719116804614 26.408212876162345 9.9052357161747491 #
point $-1 12.545992365371319 22.591055270205516 6.0942184574429143 #
straight-curve $-1 13.623972116106636 -26.408212876162345 31.198325813677318 0 0 -1 I I #
point $-1 13.623972116106636 -26.408212876162345 9.9052357161747491 #
straight-curve $-1 9.5995128618993206 -26.408212876162345 0.76055164341175652 1 0 0 I I #
point $-1 13.623972116106636 -26.408212876162345 0.76055164341175807 #
point $-1 16.809717034787766 -20.148769487221614 3.1987168103550845 #
point $-1 21.588334412809488 -20.148769487221614 3.1987168103550845 #
edge $-1 $472 -26.408212876162345 $475 26.408212876162345 $470 $496 forward 7 unknown #
point $-1 -52.430799279763178 26.408212876162345 9.9052357161747491 #
point $-1 -52.430799279763178 -26.408212876162345 9.9052357161747491 #
straight-curve $-1 -52.430799279763178 0 9.9052357161747491 0 -1 0 I I #
End-of-ACIS-data 