500 0 10 0           
7 Unknown 11 ACIS 5.0 NT 24 Thu Mar 25 18:35:16 1999 
-1 9.9999999999999995e-007 1e-010 
body $-1 $10 $-1 $11 #
body $-1 $12 $-1 $13 #
body $-1 $14 $-1 $15 #
body $-1 $16 $-1 $17 #
body $-1 $18 $-1 $19 #
body $-1 $20 $-1 $21 #
body $-1 $22 $-1 $23 #
body $-1 $24 $-1 $25 #
body $-1 $26 $-1 $27 #
body $-1 $28 $-1 $29 #
lump $-1 $-1 $30 $0 #
transform $-1 1 0 0 0 1 0 0 0 1 54.029969176305428 30.639792511986826 7.8408395083929543 1 rotate no_reflect no_shear #
lump $-1 $-1 $31 $1 #
transform $-1 1 0 0 0 1 0 0 0 1 54.029969176305428 30.639792511986826 7.8408395083929543 1 rotate no_reflect no_shear #
lump $-1 $-1 $32 $2 #
transform $-1 1 0 0 0 1 0 0 0 1 54.029969176305428 30.639792511986826 7.8408395083929543 1 rotate no_reflect no_shear #
lump $-1 $-1 $33 $3 #
transform $-1 1 0 0 0 1 0 0 0 1 54.029969176305428 30.639792511986826 7.8408395083929543 1 rotate no_reflect no_shear #
lump $-1 $-1 $34 $4 #
transform $-1 1 0 0 0 1 0 0 0 1 54.029969176305428 30.639792511986826 7.8408395083929543 1 rotate no_reflect no_shear #
lump $-1 $-1 $35 $5 #
transform $-1 1 0 0 0 1 0 0 0 1 54.029969176305428 30.639792511986826 7.8408395083929543 1 rotate no_reflect no_shear #
lump $-1 $-1 $36 $6 #
transform $-1 1 0 0 0 1 0 0 0 1 54.029969176305428 30.639792511986826 7.8408395083929543 1 rotate no_reflect no_shear #
lump $-1 $-1 $37 $7 #
transform $-1 1 0 0 0 1 0 0 0 1 54.029969176305428 30.639792511986826 7.8408395083929543 1 rotate no_reflect no_shear #
lump $-1 $-1 $38 $8 #
transform $-1 1 0 0 0 1 0 0 0 1 54.029969176305428 30.639792511986826 7.8408395083929543 1 rotate no_reflect no_shear #
lump $-1 $-1 $39 $9 #
transform $-1 1 0 0 0 1 0 0 0 1 54.029969176305428 30.639792511986826 7.8408395083929543 1 rotate no_reflect no_shear #
shell $-1 $-1 $-1 $40 $-1 $10 #
shell $-1 $-1 $-1 $41 $-1 $12 #
shell $-1 $-1 $-1 $42 $-1 $14 #
shell $-1 $-1 $-1 $43 $-1 $16 #
shell $-1 $-1 $-1 $44 $-1 $18 #
shell $-1 $-1 $-1 $45 $-1 $20 #
shell $-1 $-1 $-1 $46 $-1 $22 #
shell $-1 $-1 $-1 $47 $-1 $24 #
shell $-1 $-1 $-1 $48 $-1 $26 #
shell $-1 $-1 $-1 $49 $-1 $28 #
face $-1 $50 $51 $30 $-1 $52 forward single #
face $-1 $53 $54 $31 $-1 $55 reversed single #
face $-1 $56 $57 $32 $-1 $58 reversed single #
face $-1 $59 $60 $33 $-1 $61 forward single #
face $-1 $62 $63 $34 $-1 $64 forward single #
face $-1 $65 $66 $35 $-1 $67 forward single #
face $-1 $68 $69 $36 $-1 $70 reversed single #
face $-1 $71 $72 $37 $-1 $73 forward single #
face $-1 $74 $75 $38 $-1 $76 forward single #
face $-1 $77 $78 $39 $-1 $79 forward single #
face $-1 $80 $81 $30 $-1 $82 reversed single #
loop $-1 $-1 $83 $40 #
plane-surface $-1 0 0 7.8408395083929543 0 0 1 1 0 0 forward_v I I I I #
face $-1 $84 $85 $31 $-1 $86 reversed single #
loop $-1 $-1 $87 $41 #
plane-surface $-1 -49.641042092372246 -27.639792511986826 0 0 -1 0 0 0 -1 forward_v I I I I #
face $-1 $88 $89 $32 $-1 $90 reversed single #
loop $-1 $-1 $91 $42 #
plane-surface $-1 37.540726024909276 46.731835347481535 124.19176034266313 1 0 0 0 -0.6018150307709319 -0.79863550430605224 forward_v I I I I #
face $-1 $92 $93 $33 $-1 $94 forward single #
loop $-1 $95 $96 $43 #
cone-surface $-1 40.838574655188509 24.476968405467542 2.2609256300097198 0 -0.6018150307709319 -0.79863550430605224 1.5 0 0 1 I I 0 1 1.5 forward I I I I #
face $-1 $97 $98 $34 $-1 $99 forward single #
loop $-1 $100 $101 $44 #
cone-surface $-1 45.785347600607352 24.476968405467542 2.2609256300097198 0 -0.6018150307709319 -0.79863550430605224 1.5 0 0 1 I I 0 1 1.5 forward I I I I #
face $-1 $102 $103 $35 $-1 $104 forward single #
loop $-1 $105 $106 $45 #
cone-surface $-1 50.732120546026195 24.476968405467542 2.2609256300097198 0 -0.6018150307709319 -0.79863550430605224 1.5 0 0 1 I I 0 1 1.5 forward I I I I #
face $-1 $107 $108 $36 $-1 $109 reversed single #
loop $-1 $-1 $110 $46 #
plane-surface $-1 45.785347600607352 -30.639792511986826 1.0122816343122025 0 -0.6018150307709319 0.79863550430605224 1 0 0 forward_v I I I I #
face $-1 $111 $112 $37 $-1 $113 forward single #
loop $-1 $114 $115 $47 #
cone-surface $-1 40.838574655188509 -24.476968405467542 2.2609256300097216 0 0.6018150307709319 -0.79863550430605224 1.5 0 0 1 I I 0 1 1.5 forward I I I I #
face $-1 $116 $117 $38 $-1 $118 forward single #
loop $-1 $119 $120 $48 #
cone-surface $-1 45.785347600607352 -24.476968405467542 2.2609256300097216 0 0.6018150307709319 -0.79863550430605224 1.5 0 0 1 I I 0 1 1.5 forward I I I I #
face $-1 $121 $122 $39 $-1 $123 forward single #
loop $-1 $124 $125 $49 #
cone-surface $-1 50.732120546026195 -24.476968405467542 2.2609256300097216 0 0.6018150307709319 -0.79863550430605224 1.5 0 0 1 I I 0 1 1.5 forward I I I I #
face $-1 $126 $127 $30 $-1 $128 reversed single #
loop $-1 $-1 $129 $50 #
plane-surface $-1 0 0 -7.8408395083929543 0 0 1 1 0 0 forward_v I I I I #
coedge $-1 $130 $131 $132 $133 forward $51 $-1 #
face $-1 $134 $135 $31 $-1 $136 forward single #
loop $-1 $-1 $137 $53 #
plane-surface $-1 -45.252115008439063 -29.139792511986826 0 -1 0 0 0 0 1 forward_v I I I I #
coedge $-1 $138 $139 $140 $141 forward $54 $-1 #
face $-1 $142 $143 $32 $-1 $144 forward single #
loop $-1 $-1 $145 $56 #
plane-surface $-1 45.785347600607352 -18.300259777299971 37.891256981144849 0 0.6018150307709319 0.79863550430605224 1 0 0 forward_v I I I I #
coedge $-1 $146 $147 $148 $149 reversed $57 $-1 #
face $-1 $-1 $150 $33 $-1 $151 forward single #
loop $-1 $152 $153 $59 #
cone-surface $-1 40.838574655188509 22.393684118904822 -0.50368593956268715 0 -0.6018150307709319 -0.79863550430605224 0.75 0 0 1 I I -0.70710678118654757 0.70710678118654757 0.75 forward I I I I #
loop $-1 $-1 $154 $43 #
coedge $-1 $96 $96 $155 $156 reversed $60 $-1 #
face $-1 $-1 $157 $34 $-1 $158 forward single #
loop $-1 $159 $160 $62 #
cone-surface $-1 45.785347600607352 22.393684118904822 -0.50368593956268715 0 -0.6018150307709319 -0.79863550430605224 0.75 0 0 1 I I -0.70710678118654757 0.70710678118654757 0.75 forward I I I I #
loop $-1 $-1 $161 $44 #
coedge $-1 $101 $101 $162 $163 reversed $63 $-1 #
face $-1 $-1 $164 $35 $-1 $165 forward single #
loop $-1 $166 $167 $65 #
cone-surface $-1 50.732120546026195 22.393684118904822 -0.50368593956268715 0 -0.6018150307709319 -0.79863550430605224 0.75 0 0 1 I I -0.70710678118654757 0.70710678118654757 0.75 forward I I I I #
loop $-1 $-1 $168 $45 #
coedge $-1 $106 $106 $169 $170 reversed $66 $-1 #
face $-1 $171 $172 $36 $-1 $173 forward single #
loop $-1 $-1 $174 $68 #
plane-surface $-1 37.540726024909276 -95.671887636768332 87.312784995830484 1 0 0 0 0.6018150307709319 -0.79863550430605224 forward_v I I I I #
coedge $-1 $175 $176 $177 $178 reversed $69 $-1 #
face $-1 $-1 $179 $37 $-1 $180 forward single #
loop $-1 $181 $182 $71 #
cone-surface $-1 40.838574655188509 -22.393684118904822 -0.50368593956268537 0 0.6018150307709319 -0.79863550430605224 0.75 0 0 1 I I -0.70710678118654757 0.70710678118654757 0.75 forward I I I I #
loop $-1 $-1 $183 $47 #
coedge $-1 $115 $115 $184 $185 reversed $72 $-1 #
face $-1 $-1 $186 $38 $-1 $187 forward single #
loop $-1 $188 $189 $74 #
cone-surface $-1 45.785347600607352 -22.393684118904822 -0.50368593956268537 0 0.6018150307709319 -0.79863550430605224 0.75 0 0 1 I I -0.70710678118654757 0.70710678118654757 0.75 forward I I I I #
loop $-1 $-1 $190 $48 #
coedge $-1 $120 $120 $191 $192 reversed $75 $-1 #
face $-1 $-1 $193 $39 $-1 $194 forward single #
loop $-1 $195 $196 $77 #
cone-surface $-1 50.732120546026195 -22.393684118904822 -0.50368593956268537 0 0.6018150307709319 -0.79863550430605224 0.75 0 0 1 I I -0.70710678118654757 0.70710678118654757 0.75 forward I I I I #
loop $-1 $-1 $197 $49 #
coedge $-1 $125 $125 $198 $199 reversed $78 $-1 #
face $-1 $200 $201 $30 $-1 $202 reversed single #
loop $-1 $-1 $203 $80 #
plane-surface $-1 0 -30.639792511986826 0 0 1 0 0 0 1 forward_v I I I I #
coedge $-1 $204 $205 $206 $207 forward $81 $-1 #
coedge $-1 $208 $83 $209 $210 forward $51 $-1 #
coedge $-1 $83 $208 $211 $212 forward $51 $-1 #
coedge $-1 $213 $214 $83 $133 reversed $215 $-1 #
edge $-1 $216 -30.639792511986826 $217 30.639792511986826 $132 $218 forward 7 unknown #
face $-1 $219 $220 $31 $-1 $221 reversed single #
loop $-1 $-1 $222 $84 #
plane-surface $-1 0 0 7.8408395083929543 0 0 1 1 0 0 forward_v I I I I #
coedge $-1 $223 $224 $225 $226 reversed $85 $-1 #
coedge $-1 $227 $87 $228 $229 reversed $54 $-1 #
coedge $-1 $87 $227 $230 $231 reversed $54 $-1 #
coedge $-1 $224 $223 $87 $141 reversed $85 $-1 #
edge $-1 $232 -7.8408395083929543 $233 7.8408395083929543 $140 $234 forward 7 unknown #
face $-1 $235 $236 $32 $-1 $237 reversed single #
loop $-1 $-1 $148 $88 #
plane-surface $-1 0 0 7.8408395083929543 0 0 1 1 0 0 forward_v I I I I #
coedge $-1 $238 $239 $240 $241 reversed $89 $-1 #
coedge $-1 $147 $91 $242 $243 reversed $57 $-1 #
coedge $-1 $91 $146 $238 $244 reversed $57 $-1 #
coedge $-1 $240 $245 $91 $149 forward $143 $-1 #
edge $-1 $246 -7.2738748382460585 $247 1.7879273478234765 $148 $248 forward 7 unknown #
loop $-1 $-1 $155 $92 #
plane-surface $-1 45.785347600607352 -18.300259777299971 37.891256981144849 0 0.6018150307709319 0.79863550430605224 1 0 0 forward_v I I I I #
loop $-1 $-1 $249 $59 #
coedge $-1 $153 $153 $154 $250 reversed $93 $-1 #
coedge $-1 $154 $154 $153 $250 forward $95 $-1 #
coedge $-1 $155 $155 $96 $156 forward $150 $-1 #
edge $-1 $251 -9.5921980222094703e-016 $251 6.2831853071795996 $155 $252 forward 7 unknown #
loop $-1 $-1 $162 $97 #
plane-surface $-1 45.785347600607352 -18.300259777299971 37.891256981144849 0 0.6018150307709319 0.79863550430605224 1 0 0 forward_v I I I I #
loop $-1 $-1 $253 $62 #
coedge $-1 $160 $160 $161 $254 reversed $98 $-1 #
coedge $-1 $161 $161 $160 $254 forward $100 $-1 #
coedge $-1 $162 $162 $101 $163 forward $157 $-1 #
edge $-1 $255 -9.5921980222094703e-016 $255 6.2831853071795996 $162 $256 forward 7 unknown #
loop $-1 $-1 $169 $102 #
plane-surface $-1 45.785347600607352 -18.300259777299971 37.891256981144849 0 0.6018150307709319 0.79863550430605224 1 0 0 forward_v I I I I #
loop $-1 $-1 $257 $65 #
coedge $-1 $167 $167 $168 $258 reversed $103 $-1 #
coedge $-1 $168 $168 $167 $258 forward $105 $-1 #
coedge $-1 $169 $169 $106 $170 forward $164 $-1 #
edge $-1 $259 -9.5921980222094703e-016 $259 6.2831853071795996 $169 $260 forward 7 unknown #
face $-1 $261 $262 $36 $-1 $263 reversed single #
loop $-1 $-1 $177 $107 #
plane-surface $-1 0 0 7.8408395083929543 0 0 1 1 0 0 forward_v I I I I #
coedge $-1 $264 $265 $266 $267 reversed $108 $-1 #
coedge $-1 $268 $110 $269 $270 reversed $69 $-1 #
coedge $-1 $110 $268 $264 $271 forward $69 $-1 #
coedge $-1 $266 $272 $110 $178 forward $172 $-1 #
edge $-1 $273 -31.137295376001752 $274 -14.6480522246056 $177 $275 forward 7 unknown #
loop $-1 $-1 $184 $111 #
plane-surface $-1 45.785347600607352 -30.639792511986826 1.0122816343122025 0 -0.6018150307709319 0.79863550430605224 1 0 0 forward_v I I I I #
loop $-1 $-1 $276 $71 #
coedge $-1 $182 $182 $183 $277 reversed $112 $-1 #
coedge $-1 $183 $183 $182 $277 forward $114 $-1 #
coedge $-1 $184 $184 $115 $185 forward $179 $-1 #
edge $-1 $278 1.2057474404660152e-015 $278 6.2831853071796013 $184 $279 forward 7 unknown #
loop $-1 $-1 $191 $116 #
plane-surface $-1 45.785347600607352 -30.639792511986826 1.0122816343122025 0 -0.6018150307709319 0.79863550430605224 1 0 0 forward_v I I I I #
loop $-1 $-1 $280 $74 #
coedge $-1 $189 $189 $190 $281 reversed $117 $-1 #
coedge $-1 $190 $190 $189 $281 forward $119 $-1 #
coedge $-1 $191 $191 $120 $192 forward $186 $-1 #
edge $-1 $282 1.2057474404660152e-015 $282 6.2831853071796013 $191 $283 forward 7 unknown #
loop $-1 $-1 $198 $121 #
plane-surface $-1 45.785347600607352 -30.639792511986826 1.0122816343122025 0 -0.6018150307709319 0.79863550430605224 1 0 0 forward_v I I I I #
loop $-1 $-1 $284 $77 #
coedge $-1 $196 $196 $197 $285 reversed $122 $-1 #
coedge $-1 $197 $197 $196 $285 forward $124 $-1 #
coedge $-1 $198 $198 $125 $199 forward $193 $-1 #
edge $-1 $286 1.2057474404660152e-015 $286 6.2831853071796013 $198 $287 forward 7 unknown #
face $-1 $288 $289 $30 $-1 $290 reversed single #
loop $-1 $-1 $291 $126 #
plane-surface $-1 -54.029969176305428 0 0 1 0 0 0 0 -1 forward_v I I I I #
coedge $-1 $292 $211 $293 $294 forward $127 $-1 #
coedge $-1 $295 $129 $292 $296 forward $81 $-1 #
coedge $-1 $129 $295 $297 $298 forward $81 $-1 #
coedge $-1 $214 $213 $129 $207 reversed $215 $-1 #
edge $-1 $299 -30.639792511986826 $300 30.639792511986826 $206 $301 forward 7 unknown #
coedge $-1 $131 $130 $302 $303 forward $51 $-1 #
coedge $-1 $304 $305 $130 $210 reversed $289 $-1 #
edge $-1 $217 -54.029969176305428 $306 54.029969176305428 $209 $307 forward 7 unknown #
coedge $-1 $203 $308 $131 $212 reversed $127 $-1 #
edge $-1 $309 -54.029969176305428 $216 54.029969176305428 $211 $310 forward 7 unknown #
coedge $-1 $206 $132 $308 $311 forward $215 $-1 #
coedge $-1 $132 $206 $304 $312 reversed $215 $-1 #
loop $-1 $-1 $213 $288 #
vertex $-1 $133 $313 #
vertex $-1 $133 $314 #
straight-curve $-1 54.029969176305428 0 7.8408395083929543 0 1 0 I I #
face $-1 $315 $316 $31 $-1 $317 reversed single #
loop $-1 $-1 $318 $134 #
plane-surface $-1 -54.029969176305428 0 0 1 0 0 0 0 -1 forward_v I I I I #
coedge $-1 $230 $319 $224 $320 forward $135 $-1 #
coedge $-1 $140 $137 $321 $322 reversed $85 $-1 #
coedge $-1 $137 $140 $222 $320 reversed $85 $-1 #
coedge $-1 $323 $324 $137 $226 forward $325 $-1 #
edge $-1 $326 -7.8408395083929543 $327 7.8408395083929543 $225 $328 forward 7 unknown #
coedge $-1 $139 $138 $318 $329 reversed $54 $-1 #
coedge $-1 $321 $330 $138 $229 forward $316 $-1 #
edge $-1 $331 -29.209448130119306 $233 -20.43159396225294 $228 $332 forward 7 unknown #
coedge $-1 $333 $222 $139 $231 forward $135 $-1 #
edge $-1 $232 20.43159396225294 $334 29.209448130119306 $230 $335 forward 7 unknown #
vertex $-1 $231 $336 #
vertex $-1 $229 $337 #
straight-curve $-1 -45.252115008439063 -27.639792511986826 0 0 0 -1 I I #
face $-1 $-1 $338 $32 $-1 $339 reversed single #
loop $-1 $-1 $340 $142 #
plane-surface $-1 54.029969176305428 0 0 -1 0 0 0 0 1 forward_v I I I I #
coedge $-1 $341 $145 $147 $244 forward $89 $-1 #
coedge $-1 $145 $341 $340 $342 reversed $89 $-1 #
coedge $-1 $343 $148 $145 $241 forward $143 $-1 #
edge $-1 $247 14.6480522246056 $344 31.137295376001752 $240 $345 forward 7 unknown #
coedge $-1 $346 $347 $146 $243 forward $338 $-1 #
edge $-1 $348 -61.083598537019355 $246 -54.255040662938612 $242 $349 forward 7 unknown #
edge $-1 $247 49.932979298069327 $348 61.279585023973652 $147 $350 forward 7 unknown #
coedge $-1 $148 $343 $346 $351 forward $143 $-1 #
vertex $-1 $243 $352 #
vertex $-1 $149 $353 #
straight-curve $-1 37.540726024909276 23.365917673740768 7.8408395083929534 0 -1 0 I I #
coedge $-1 $249 $249 $-1 $354 reversed $152 $-1 #
edge $-1 $355 0 $355 6.2831853071796004 $153 $356 forward 7 unknown #
vertex $-1 $156 $357 #
ellipse-curve $-1 40.838574655188509 26.108891418952059 4.4265605713525797 0 0.6018150307709319 0.79863550430605224 1.5 0 0 1 I I #
coedge $-1 $253 $253 $-1 $358 reversed $159 $-1 #
edge $-1 $359 0 $359 6.2831853071796004 $160 $360 forward 7 unknown #
vertex $-1 $163 $361 #
ellipse-curve $-1 45.785347600607352 26.108891418952059 4.4265605713525797 0 0.6018150307709319 0.79863550430605224 1.5 0 0 1 I I #
coedge $-1 $257 $257 $-1 $362 reversed $166 $-1 #
edge $-1 $363 0 $363 6.2831853071796004 $167 $364 forward 7 unknown #
vertex $-1 $170 $365 #
ellipse-curve $-1 50.732120546026195 26.108891418952059 4.4265605713525797 0 0.6018150307709319 0.79863550430605224 1.5 0 0 1 I I #
face $-1 $-1 $366 $36 $-1 $367 reversed single #
loop $-1 $-1 $368 $171 #
plane-surface $-1 0 -30.639792511986826 0 0 1 0 0 0 1 forward_v I I I I #
coedge $-1 $265 $174 $176 $271 reversed $108 $-1 #
coedge $-1 $174 $264 $369 $370 reversed $108 $-1 #
coedge $-1 $371 $177 $174 $267 forward $172 $-1 #
edge $-1 $274 -26.257953492466893 $372 -17.19615130639734 $266 $373 forward 7 unknown #
coedge $-1 $176 $175 $368 $374 reversed $69 $-1 #
coedge $-1 $375 $376 $175 $270 forward $366 $-1 #
edge $-1 $377 -11.930409920870479 $273 -0.58380419496613767 $269 $378 forward 7 unknown #
edge $-1 $379 0 $274 11.346605725904341 $264 $380 forward 7 unknown #
coedge $-1 $177 $371 $375 $381 forward $172 $-1 #
vertex $-1 $178 $382 #
vertex $-1 $178 $383 #
straight-curve $-1 22.892673800303676 -21.577990325917277 7.8408395083929543 -1 0 0 I I #
coedge $-1 $276 $276 $-1 $384 reversed $181 $-1 #
edge $-1 $385 0 $385 6.2831853071796004 $182 $386 forward 7 unknown #
vertex $-1 $185 $387 #
ellipse-curve $-1 40.838574655188509 -26.108891418952055 4.4265605713525762 0 -0.6018150307709319 0.79863550430605224 1.5 0 0 1 I I #
coedge $-1 $280 $280 $-1 $388 reversed $188 $-1 #
edge $-1 $389 0 $389 6.2831853071796004 $189 $390 forward 7 unknown #
vertex $-1 $192 $391 #
ellipse-curve $-1 45.785347600607352 -26.108891418952055 4.4265605713525762 0 -0.6018150307709319 0.79863550430605224 1.5 0 0 1 I I #
coedge $-1 $284 $284 $-1 $392 reversed $195 $-1 #
edge $-1 $393 0 $393 6.2831853071796004 $196 $394 forward 7 unknown #
vertex $-1 $199 $395 #
ellipse-curve $-1 50.732120546026195 -26.108891418952055 4.4265605713525762 0 -0.6018150307709319 0.79863550430605224 1.5 0 0 1 I I #
face $-1 $-1 $215 $30 $-1 $396 reversed single #
loop $-1 $-1 $304 $200 #
plane-surface $-1 0 30.639792511986826 0 0 -1 0 0 0 -1 forward_v I I I I #
coedge $-1 $397 $302 $305 $398 forward $201 $-1 #
coedge $-1 $308 $203 $204 $296 reversed $127 $-1 #
coedge $-1 $302 $397 $203 $294 reversed $201 $-1 #
edge $-1 $309 -7.8408395083929543 $399 7.8408395083929543 $293 $400 forward 7 unknown #
coedge $-1 $205 $204 $397 $401 forward $81 $-1 #
edge $-1 $300 -54.029969176305428 $399 54.029969176305428 $292 $402 forward 7 unknown #
coedge $-1 $305 $304 $205 $298 reversed $289 $-1 #
edge $-1 $403 -54.029969176305428 $299 54.029969176305428 $297 $404 forward 7 unknown #
vertex $-1 $207 $405 #
vertex $-1 $311 $406 #
straight-curve $-1 54.029969176305428 0 -7.8408395083929543 0 -1 0 I I #
coedge $-1 $291 $293 $208 $303 reversed $201 $-1 #
edge $-1 $306 -30.639792511986826 $309 30.639792511986826 $302 $407 forward 7 unknown #
coedge $-1 $297 $209 $214 $312 forward $289 $-1 #
coedge $-1 $209 $297 $291 $398 reversed $289 $-1 #
vertex $-1 $210 $408 #
straight-curve $-1 0 30.639792511986826 7.8408395083929543 -1 0 0 I I #
coedge $-1 $211 $292 $213 $311 reversed $127 $-1 #
vertex $-1 $303 $409 #
straight-curve $-1 0 -30.639792511986826 7.8408395083929543 1 0 0 I I #
edge $-1 $216 -7.8408395083929543 $300 7.8408395083929543 $213 $410 forward 7 unknown #
edge $-1 $217 -7.8408395083929543 $299 7.8408395083929543 $214 $411 forward 7 unknown #
point $-1 54.029969176305428 -30.639792511986826 7.8408395083929543 #
point $-1 54.029969176305428 30.639792511986826 7.8408395083929543 #
face $-1 $-1 $325 $31 $-1 $412 reversed single #
loop $-1 $-1 $321 $219 #
plane-surface $-1 0 0 -7.8408395083929543 0 0 1 1 0 0 forward_v I I I I #
coedge $-1 $413 $414 $227 $329 forward $220 $-1 #
coedge $-1 $222 $333 $323 $415 forward $135 $-1 #
edge $-1 $327 -16.069896255993413 $232 -13.069896255993413 $222 $416 forward 7 unknown #
coedge $-1 $417 $228 $223 $322 forward $316 $-1 #
edge $-1 $233 13.069896255993413 $326 16.069896255993413 $321 $418 forward 7 unknown #
coedge $-1 $419 $225 $319 $415 reversed $325 $-1 #
coedge $-1 $225 $419 $417 $420 reversed $325 $-1 #
loop $-1 $-1 $225 $315 #
vertex $-1 $420 $421 #
vertex $-1 $226 $422 #
straight-curve $-1 -45.252115008439063 -30.639792511986826 0 0 0 1 I I #
edge $-1 $334 -7.8408395083929543 $331 7.8408395083929543 $318 $423 forward 7 unknown #
coedge $-1 $228 $417 $413 $424 forward $316 $-1 #
vertex $-1 $229 $425 #
straight-curve $-1 -24.820521046186123 -27.639792511986826 -7.8408395083929543 1 0 0 I I #
coedge $-1 $319 $230 $414 $426 forward $135 $-1 #
vertex $-1 $426 $427 #
straight-curve $-1 -24.820521046186123 -27.639792511986826 7.8408395083929543 -1 0 0 I I #
point $-1 -45.252115008439063 -27.639792511986826 7.8408395083929543 #
point $-1 -45.252115008439063 -27.639792511986826 -7.8408395083929543 #
loop $-1 $-1 $242 $235 #
plane-surface $-1 0 30.639792511986826 0 0 -1 0 0 0 -1 forward_v I I I I #
coedge $-1 $428 $429 $239 $342 forward $236 $-1 #
coedge $-1 $239 $238 $347 $430 reversed $89 $-1 #
edge $-1 $344 31.223596706952982 $431 42.5702024328573 $340 $432 forward 7 unknown #
coedge $-1 $245 $240 $429 $433 forward $143 $-1 #
vertex $-1 $433 $434 #
straight-curve $-1 22.892673800303676 21.577990325917291 7.8408395083929534 1 0 0 I I #
coedge $-1 $435 $242 $245 $351 reversed $338 $-1 #
coedge $-1 $242 $435 $341 $430 forward $338 $-1 #
vertex $-1 $243 $436 #
straight-curve $-1 37.540726024909276 30.639792511986826 62.095880171331565 0 0 1 I I #
straight-curve $-1 37.540726024909276 -18.300259777299971 37.891256981144849 0 0.79863550430605224 -0.6018150307709319 I I #
edge $-1 $437 -54.029969176305428 $246 -37.540726024909276 $346 $438 forward 7 unknown #
point $-1 37.540726024909276 30.639792511986826 7.8408395083929543 #
point $-1 37.540726024909276 21.577990325917291 7.8408395083929499 #
edge $-1 $439 1 $439 0 $249 $-1 forward 7 unknown #
vertex $-1 $250 $440 #
ellipse-curve $-1 40.838574655188509 22.845045391983021 0.095290688666852086 0 0.6018150307709319 0.79863550430605224 1.5 0 0 1 I I #
point $-1 42.338574655188509 26.108891418952062 4.4265605713525868 #
edge $-1 $441 1 $441 0 $253 $-1 forward 7 unknown #
vertex $-1 $254 $442 #
ellipse-curve $-1 45.785347600607352 22.845045391983021 0.095290688666852086 0 0.6018150307709319 0.79863550430605224 1.5 0 0 1 I I #
point $-1 47.285347600607352 26.108891418952062 4.4265605713525868 #
edge $-1 $443 1 $443 0 $257 $-1 forward 7 unknown #
vertex $-1 $258 $444 #
ellipse-curve $-1 50.732120546026195 22.845045391983021 0.095290688666852086 0 0.6018150307709319 0.79863550430605224 1.5 0 0 1 I I #
point $-1 52.232120546026195 26.108891418952062 4.4265605713525868 #
loop $-1 $-1 $269 $261 #
plane-surface $-1 54.029969176305428 0 0 -1 0 0 0 0 1 forward_v I I I I #
coedge $-1 $445 $369 $268 $374 forward $262 $-1 #
coedge $-1 $368 $446 $265 $370 forward $262 $-1 #
edge $-1 $372 35.815552989522288 $379 42.644110863603039 $369 $447 forward 7 unknown #
coedge $-1 $272 $266 $446 $448 forward $172 $-1 #
vertex $-1 $448 $449 #
straight-curve $-1 37.540726024909276 -47.835943818384166 7.8408395083929534 0 -1 0 I I #
edge $-1 $379 14.6480522246056 $377 31.137295376001752 $368 $450 forward 7 unknown #
coedge $-1 $376 $269 $272 $381 reversed $366 $-1 #
coedge $-1 $269 $375 $445 $451 forward $366 $-1 #
vertex $-1 $374 $452 #
straight-curve $-1 54.029969176305428 -21.111743568254504 8.1921816479507008 0 0.79863550430605224 0.6018150307709319 I I #
vertex $-1 $374 $453 #
straight-curve $-1 37.540726024909276 -30.639792511986826 1.0122816343122025 0 0.79863550430605224 0.6018150307709319 I I #
edge $-1 $454 -30.639792511986826 $273 -21.577990325917273 $375 $455 forward 7 unknown #
point $-1 54.029969176305428 -21.577990325917273 7.8408395083929552 #
point $-1 37.540726024909276 -21.577990325917273 7.8408395083929552 #
edge $-1 $456 1 $456 0 $276 $-1 forward 7 unknown #
vertex $-1 $277 $457 #
ellipse-curve $-1 40.838574655188509 -22.845045391983021 0.095290688666853862 0 -0.6018150307709319 0.79863550430605224 1.5 0 0 1 I I #
point $-1 42.338574655188509 -26.108891418952062 4.4265605713525886 #
edge $-1 $458 1 $458 0 $280 $-1 forward 7 unknown #
vertex $-1 $281 $459 #
ellipse-curve $-1 45.785347600607352 -22.845045391983021 0.095290688666853862 0 -0.6018150307709319 0.79863550430605224 1.5 0 0 1 I I #
point $-1 47.285347600607352 -26.108891418952062 4.4265605713525886 #
edge $-1 $460 1 $460 0 $284 $-1 forward 7 unknown #
vertex $-1 $285 $461 #
ellipse-curve $-1 50.732120546026195 -22.845045391983021 0.095290688666853862 0 -0.6018150307709319 0.79863550430605224 1.5 0 0 1 I I #
point $-1 52.232120546026195 -26.108891418952062 4.4265605713525886 #
plane-surface $-1 54.029969176305428 0 0 -1 0 0 0 0 1 forward_v I I I I #
coedge $-1 $293 $291 $295 $401 reversed $201 $-1 #
edge $-1 $306 -7.8408395083929543 $403 7.8408395083929543 $305 $462 forward 7 unknown #
vertex $-1 $401 $463 #
straight-curve $-1 -54.029969176305428 -30.639792511986826 0 0 0 -1 I I #
edge $-1 $399 -30.639792511986826 $403 30.639792511986826 $397 $464 forward 7 unknown #
straight-curve $-1 0 -30.639792511986826 -7.8408395083929543 -1 0 0 I I #
vertex $-1 $298 $465 #
straight-curve $-1 0 30.639792511986826 -7.8408395083929543 1 0 0 I I #
point $-1 54.029969176305428 30.639792511986826 -7.8408395083929543 #
point $-1 54.029969176305428 -30.639792511986826 -7.8408395083929543 #
straight-curve $-1 -54.029969176305428 0 7.8408395083929543 0 -1 0 I I #
point $-1 -54.029969176305428 30.639792511986826 7.8408395083929543 #
point $-1 -54.029969176305428 -30.639792511986826 7.8408395083929543 #
straight-curve $-1 54.029969176305428 -30.639792511986826 0 0 0 -1 I I #
straight-curve $-1 54.029969176305428 30.639792511986826 0 0 0 -1 I I #
plane-surface $-1 0 -30.639792511986826 0 0 1 0 0 0 1 forward_v I I I I #
coedge $-1 $466 $318 $330 $424 reversed $220 $-1 #
coedge $-1 $318 $466 $333 $426 reversed $220 $-1 #
edge $-1 $467 -54.029969176305428 $327 -45.252115008439063 $323 $468 forward 7 unknown #
straight-curve $-1 -45.252115008439063 -14.569896255993413 7.8408395083929543 0 1 0 I I #
coedge $-1 $330 $321 $324 $420 forward $316 $-1 #
straight-curve $-1 -45.252115008439063 -14.569896255993413 -7.8408395083929543 0 -1 0 I I #
coedge $-1 $324 $323 $466 $469 forward $325 $-1 #
edge $-1 $326 45.252115008439063 $470 54.029969176305428 $324 $471 forward 7 unknown #
point $-1 -45.252115008439063 -30.639792511986826 -7.8408395083929543 #
point $-1 -45.252115008439063 -30.639792511986826 7.8408395083929543 #
straight-curve $-1 -54.029969176305428 -27.639792511986826 0 0 0 -1 I I #
edge $-1 $470 -30.639792511986826 $331 -27.639792511986826 $413 $472 forward 7 unknown #
point $-1 -54.029969176305428 -27.639792511986826 -7.8408395083929543 #
edge $-1 $334 27.639792511986826 $467 30.639792511986826 $414 $473 forward 7 unknown #
point $-1 -54.029969176305428 -27.639792511986826 7.8408395083929543 #
coedge $-1 $429 $340 $435 $474 reversed $236 $-1 #
coedge $-1 $340 $428 $343 $433 reversed $236 $-1 #
edge $-1 $431 -31.137295376001752 $348 -14.6480522246056 $347 $475 forward 7 unknown #
vertex $-1 $342 $476 #
straight-curve $-1 54.029969176305428 -3.3582825763888904 26.631669321367028 0 0.79863550430605224 -0.6018150307709319 I I #
edge $-1 $344 21.577990325917291 $437 30.639792511986826 $429 $477 forward 7 unknown #
point $-1 54.029969176305428 21.577990325917291 7.8408395083929499 #
coedge $-1 $347 $346 $428 $474 forward $338 $-1 #
point $-1 37.540726024909276 30.639792511986826 1.0122816343122096 #
vertex $-1 $433 $478 #
straight-curve $-1 0 30.639792511986826 7.8408395083929543 -1 0 0 I I #
vertex $-1 $354 $479 #
point $-1 42.338574655188509 22.845045391983021 0.095290688666852086 #
vertex $-1 $358 $480 #
point $-1 47.285347600607352 22.845045391983021 0.095290688666852086 #
vertex $-1 $362 $481 #
point $-1 52.232120546026195 22.845045391983021 0.095290688666852086 #
coedge $-1 $446 $368 $376 $451 reversed $262 $-1 #
coedge $-1 $369 $445 $371 $448 reversed $262 $-1 #
straight-curve $-1 37.540726024909276 -30.639792511986826 43.656392497915242 0 0 -1 I I #
edge $-1 $372 37.540726024909276 $454 54.029969176305428 $446 $482 forward 7 unknown #
point $-1 37.540726024909276 -30.639792511986826 7.8408395083929543 #
straight-curve $-1 22.892673800303676 -30.639792511986826 1.0122816343122036 1 0 0 I I #
edge $-1 $454 -7.8408395083929543 $377 -1.0122816343122025 $376 $483 forward 7 unknown #
point $-1 54.029969176305428 -30.639792511986826 1.0122816343122025 #
point $-1 37.540726024909276 -30.639792511986826 1.0122816343122025 #
vertex $-1 $381 $484 #
straight-curve $-1 54.029969176305428 0 7.8408395083929543 0 1 0 I I #
vertex $-1 $384 $485 #
point $-1 42.338574655188509 -22.845045391983021 0.095290688666853862 #
vertex $-1 $388 $486 #
point $-1 47.285347600607352 -22.845045391983021 0.095290688666853862 #
vertex $-1 $392 $487 #
point $-1 52.232120546026195 -22.845045391983021 0.095290688666853862 #
straight-curve $-1 -54.029969176305428 30.639792511986826 0 0 0 -1 I I #
point $-1 -54.029969176305428 -30.639792511986826 -7.8408395083929543 #
straight-curve $-1 -54.029969176305428 0 -7.8408395083929543 0 1 0 I I #
point $-1 -54.029969176305428 30.639792511986826 -7.8408395083929543 #
coedge $-1 $414 $413 $419 $469 reversed $220 $-1 #
vertex $-1 $426 $488 #
straight-curve $-1 0 -30.639792511986826 7.8408395083929543 1 0 0 I I #
edge $-1 $467 -7.8408395083929543 $470 7.8408395083929543 $466 $489 forward 7 unknown #
vertex $-1 $424 $490 #
straight-curve $-1 0 -30.639792511986826 -7.8408395083929543 -1 0 0 I I #
straight-curve $-1 -54.029969176305428 0 -7.8408395083929543 0 1 0 I I #
straight-curve $-1 -54.029969176305428 0 7.8408395083929543 0 -1 0 I I #
edge $-1 $437 -7.8408395083929543 $431 -1.0122816343122096 $428 $491 forward 7 unknown #
straight-curve $-1 22.892673800303676 30.639792511986819 1.0122816343122203 -1 0 0 I I #
point $-1 54.029969176305428 30.639792511986826 1.0122816343122096 #
straight-curve $-1 54.029969176305428 0 7.8408395083929543 0 1 0 I I #
point $-1 54.029969176305428 30.639792511986826 7.8408395083929543 #
point $-1 40.838574655188509 21.942322845826624 -1.1026625677922264 #
point $-1 45.785347600607352 21.942322845826624 -1.1026625677922264 #
point $-1 50.732120546026195 21.942322845826624 -1.1026625677922264 #
straight-curve $-1 0 -30.639792511986826 7.8408395083929543 1 0 0 I I #
straight-curve $-1 54.029969176305428 -30.639792511986826 0 0 0 -1 I I #
point $-1 54.029969176305428 -30.639792511986826 7.8408395083929543 #
point $-1 40.838574655188509 -21.942322845826624 -1.1026625677922246 #
point $-1 45.785347600607352 -21.942322845826624 -1.1026625677922246 #
point $-1 50.732120546026195 -21.942322845826624 -1.1026625677922246 #
point $-1 -54.029969176305428 -30.639792511986826 7.8408395083929543 #
straight-curve $-1 -54.029969176305428 -30.639792511986826 0 0 0 -1 I I #
point $-1 -54.029969176305428 -30.639792511986826 -7.8408395083929543 #
straight-curve $-1 54.029969176305428 30.639792511986826 0 0 0 -1 I I #
End-of-ACIS-data 