500 0 15 0           
7 Unknown 11 ACIS 5.0 NT 24 Thu Mar 25 20:03:17 1999 
-1 9.9999999999999995e-007 1e-010 
body $-1 $15 $-1 $16 #
body $-1 $17 $-1 $18 #
body $-1 $19 $-1 $20 #
body $-1 $21 $-1 $22 #
body $-1 $23 $-1 $24 #
body $-1 $25 $-1 $26 #
body $-1 $27 $-1 $28 #
body $-1 $29 $-1 $30 #
body $-1 $31 $-1 $32 #
body $-1 $33 $-1 $34 #
body $-1 $35 $-1 $36 #
body $-1 $37 $-1 $38 #
body $-1 $39 $-1 $40 #
body $-1 $41 $-1 $42 #
body $-1 $43 $-1 $44 #
lump $-1 $-1 $45 $0 #
transform $-1 1 0 0 0 1 0 0 0 1 63.096407971434672 41.851556448034771 17.976870068640856 1 rotate no_reflect no_shear #
lump $-1 $-1 $46 $1 #
transform $-1 1 0 0 0 1 0 0 0 1 63.096407971434672 6.9465924292432852 32.802150729972304 1 rotate no_reflect no_shear #
lump $-1 $-1 $47 $2 #
transform $-1 1 0 0 0 1 0 0 0 1 63.096407971434672 76.75652046682626 32.802150729972304 1 rotate no_reflect no_shear #
lump $-1 $-1 $48 $3 #
transform $-1 0.51503806187062418 0 0.85716730853699208 0 1 0 -0.85716730853699208 0 0.51503806187062418 -108.16835639845331 16.923502209218995 95.705906543296067 1 rotate no_reflect no_shear #
lump $-1 $-1 $49 $4 #
transform $-1 0.51503806187062418 0 0.85716730853699208 0 -1 0 0.85716730853699208 0 -0.51503806187062418 2.646295818500576 15.624794773190814 32.688974090344701 1 rotate no_reflect no_shear #
lump $-1 $-1 $50 $5 #
transform $-1 0.51503806187062418 0 0.85716730853699208 0 -1 0 0.85716730853699208 0 -0.51503806187062418 2.646295818500576 18.22220964524718 32.688974090344701 1 rotate no_reflect no_shear #
lump $-1 $-1 $51 $6 #
transform $-1 0.51503806187062418 0 0.85716730853699208 0 1 0 -0.85716730853699208 0 0.51503806187062418 -108.16835639845331 44.881873798767202 95.705906543296067 1 rotate no_reflect no_shear #
lump $-1 $-1 $52 $7 #
transform $-1 0.51503806187062418 0 0.85716730853699208 0 -1 0 0.85716730853699208 0 -0.51503806187062418 2.646295818500576 43.583166362739021 32.688974090344701 1 rotate no_reflect no_shear #
lump $-1 $-1 $53 $8 #
transform $-1 0.51503806187062418 0 0.85716730853699208 0 -1 0 0.85716730853699208 0 -0.51503806187062418 2.646295818500576 46.180581234795383 32.688974090344701 1 rotate no_reflect no_shear #
lump $-1 $-1 $54 $9 #
transform $-1 0.51503806187062418 0 -0.85716730853699208 0 1 0 0.85716730853699208 0 0.51503806187062418 169.36706899611085 16.923502209218995 203.87426294174941 1 rotate no_reflect no_shear #
lump $-1 $-1 $55 $10 #
transform $-1 0.51503806187062418 0 -0.85716730853699208 0 -1 0 -0.85716730853699208 0 -0.51503806187062418 123.54652012436877 15.624794773190814 32.688974090344701 1 rotate no_reflect no_shear #
lump $-1 $-1 $56 $11 #
transform $-1 0.51503806187062418 0 -0.85716730853699208 0 -1 0 -0.85716730853699208 0 -0.51503806187062418 123.54652012436877 18.22220964524718 32.688974090344701 1 rotate no_reflect no_shear #
lump $-1 $-1 $57 $12 #
transform $-1 0.51503806187062418 0 -0.85716730853699208 0 1 0 0.85716730853699208 0 0.51503806187062418 169.36706899611085 44.881873798767202 203.87426294174941 1 rotate no_reflect no_shear #
lump $-1 $-1 $58 $13 #
transform $-1 0.51503806187062418 0 -0.85716730853699208 0 -1 0 -0.85716730853699208 0 -0.51503806187062418 123.54652012436877 43.583166362739021 32.688974090344701 1 rotate no_reflect no_shear #
lump $-1 $-1 $59 $14 #
transform $-1 0.51503806187062418 0 -0.85716730853699208 0 -1 0 -0.85716730853699208 0 -0.51503806187062418 123.54652012436877 46.180581234795383 32.688974090344701 1 rotate no_reflect no_shear #
shell $-1 $-1 $-1 $60 $-1 $15 #
shell $-1 $-1 $-1 $61 $-1 $17 #
shell $-1 $-1 $-1 $62 $-1 $19 #
shell $-1 $-1 $-1 $63 $-1 $21 #
shell $-1 $-1 $-1 $64 $-1 $23 #
shell $-1 $-1 $-1 $65 $-1 $25 #
shell $-1 $-1 $-1 $66 $-1 $27 #
shell $-1 $-1 $-1 $67 $-1 $29 #
shell $-1 $-1 $-1 $68 $-1 $31 #
shell $-1 $-1 $-1 $69 $-1 $33 #
shell $-1 $-1 $-1 $70 $-1 $35 #
shell $-1 $-1 $-1 $71 $-1 $37 #
shell $-1 $-1 $-1 $72 $-1 $39 #
shell $-1 $-1 $-1 $73 $-1 $41 #
shell $-1 $-1 $-1 $74 $-1 $43 #
face $-1 $75 $76 $45 $-1 $77 forward single #
face $-1 $78 $79 $46 $-1 $80 forward single #
face $-1 $81 $82 $47 $-1 $83 forward single #
face $-1 $84 $85 $48 $-1 $86 forward single #
face $-1 $87 $88 $49 $-1 $89 forward single #
face $-1 $90 $91 $50 $-1 $92 forward single #
face $-1 $93 $94 $51 $-1 $95 forward single #
face $-1 $96 $97 $52 $-1 $98 forward single #
face $-1 $99 $100 $53 $-1 $101 forward single #
face $-1 $102 $103 $54 $-1 $104 forward single #
face $-1 $105 $106 $55 $-1 $107 forward single #
face $-1 $108 $109 $56 $-1 $110 forward single #
face $-1 $111 $112 $57 $-1 $113 forward single #
face $-1 $114 $115 $58 $-1 $116 forward single #
face $-1 $117 $118 $59 $-1 $119 forward single #
face $-1 $120 $121 $45 $-1 $122 reversed single #
loop $-1 $-1 $123 $60 #
plane-surface $-1 0 0 17.976870068640856 0 0 1 1 0 0 forward_v I I I I #
face $-1 $124 $125 $46 $-1 $126 reversed single #
loop $-1 $-1 $127 $61 #
plane-surface $-1 0 0 3.1515894073094088 0 0 1 1 0 0 forward_v I I I I #
face $-1 $128 $129 $47 $-1 $130 reversed single #
loop $-1 $-1 $131 $62 #
plane-surface $-1 0 0 3.1515894073094088 0 0 1 1 0 0 forward_v I I I I #
face $-1 $132 $133 $48 $-1 $134 reversed single #
loop $-1 $-1 $135 $63 #
plane-surface $-1 0 0 126.19281594286933 0 0 1 1 0 0 forward_v I I I I #
face $-1 $136 $137 $49 $-1 $138 forward single #
loop $-1 $139 $140 $64 #
cone-surface $-1 0 0 -0.75 0 0 1 0.5 0 0 1 I I 0 1 0.5 forward I I I I #
face $-1 $141 $142 $50 $-1 $143 forward single #
loop $-1 $144 $145 $65 #
cone-surface $-1 0 0 -0.75 0 0 1 0.5 0 0 1 I I 0 1 0.5 forward I I I I #
face $-1 $146 $147 $51 $-1 $148 reversed single #
loop $-1 $-1 $149 $66 #
plane-surface $-1 0 0 126.19281594286933 0 0 1 1 0 0 forward_v I I I I #
face $-1 $150 $151 $52 $-1 $152 forward single #
loop $-1 $153 $154 $67 #
cone-surface $-1 0 0 -0.75 0 0 1 0.5 0 0 1 I I 0 1 0.5 forward I I I I #
face $-1 $155 $156 $53 $-1 $157 forward single #
loop $-1 $158 $159 $68 #
cone-surface $-1 0 0 -0.75 0 0 1 0.5 0 0 1 I I 0 1 0.5 forward I I I I #
face $-1 $160 $161 $54 $-1 $162 reversed single #
loop $-1 $-1 $163 $69 #
plane-surface $-1 0 0 126.19281594286933 0 0 1 1 0 0 forward_v I I I I #
face $-1 $164 $165 $55 $-1 $166 forward single #
loop $-1 $167 $168 $70 #
cone-surface $-1 0 0 -0.75 0 0 1 0.5 0 0 1 I I 0 1 0.5 forward I I I I #
face $-1 $169 $170 $56 $-1 $171 forward single #
loop $-1 $172 $173 $71 #
cone-surface $-1 0 0 -0.75 0 0 1 0.5 0 0 1 I I 0 1 0.5 forward I I I I #
face $-1 $174 $175 $57 $-1 $176 reversed single #
loop $-1 $-1 $177 $72 #
plane-surface $-1 0 0 126.19281594286933 0 0 1 1 0 0 forward_v I I I I #
face $-1 $178 $179 $58 $-1 $180 forward single #
loop $-1 $181 $182 $73 #
cone-surface $-1 0 0 -0.75 0 0 1 0.5 0 0 1 I I 0 1 0.5 forward I I I I #
face $-1 $183 $184 $59 $-1 $185 forward single #
loop $-1 $186 $187 $74 #
cone-surface $-1 0 0 -0.75 0 0 1 0.5 0 0 1 I I 0 1 0.5 forward I I I I #
face $-1 $188 $189 $45 $-1 $190 reversed single #
loop $-1 $-1 $191 $75 #
plane-surface $-1 0 0 -17.976870068640856 0 0 1 1 0 0 forward_v I I I I #
coedge $-1 $192 $193 $194 $195 forward $76 $-1 #
face $-1 $196 $197 $46 $-1 $198 reversed single #
loop $-1 $-1 $199 $78 #
plane-surface $-1 0 0 -3.1515894073094088 0 0 1 1 0 0 forward_v I I I I #
coedge $-1 $200 $201 $202 $203 forward $79 $-1 #
face $-1 $204 $205 $47 $-1 $206 reversed single #
loop $-1 $-1 $207 $81 #
plane-surface $-1 0 0 -3.1515894073094088 0 0 1 1 0 0 forward_v I I I I #
coedge $-1 $208 $209 $210 $211 forward $82 $-1 #
face $-1 $212 $213 $48 $-1 $214 reversed single #
loop $-1 $-1 $215 $84 #
plane-surface $-1 0 0 -126.19281594286933 0 0 1 1 0 0 forward_v I I I I #
coedge $-1 $216 $217 $218 $219 forward $85 $-1 #
face $-1 $-1 $220 $49 $-1 $221 forward single #
loop $-1 $-1 $222 $87 #
plane-surface $-1 0 0 -1.25 0 0 -1 -1 0 0 forward_v I I I I #
loop $-1 $-1 $223 $64 #
coedge $-1 $140 $140 $222 $224 reversed $88 $-1 #
face $-1 $-1 $225 $50 $-1 $226 forward single #
loop $-1 $-1 $227 $90 #
plane-surface $-1 0 0 -1.25 0 0 -1 -1 0 0 forward_v I I I I #
loop $-1 $-1 $228 $65 #
coedge $-1 $145 $145 $227 $229 reversed $91 $-1 #
face $-1 $230 $231 $51 $-1 $232 reversed single #
loop $-1 $-1 $233 $93 #
plane-surface $-1 0 0 -126.19281594286933 0 0 1 1 0 0 forward_v I I I I #
coedge $-1 $234 $235 $236 $237 forward $94 $-1 #
face $-1 $-1 $238 $52 $-1 $239 forward single #
loop $-1 $-1 $240 $96 #
plane-surface $-1 0 0 -1.25 0 0 -1 -1 0 0 forward_v I I I I #
loop $-1 $-1 $241 $67 #
coedge $-1 $154 $154 $240 $242 reversed $97 $-1 #
face $-1 $-1 $243 $53 $-1 $244 forward single #
loop $-1 $-1 $245 $99 #
plane-surface $-1 0 0 -1.25 0 0 -1 -1 0 0 forward_v I I I I #
loop $-1 $-1 $246 $68 #
coedge $-1 $159 $159 $245 $247 reversed $100 $-1 #
face $-1 $248 $249 $54 $-1 $250 reversed single #
loop $-1 $-1 $251 $102 #
plane-surface $-1 0 0 -126.19281594286933 0 0 1 1 0 0 forward_v I I I I #
coedge $-1 $252 $253 $254 $255 forward $103 $-1 #
face $-1 $-1 $256 $55 $-1 $257 forward single #
loop $-1 $-1 $258 $105 #
plane-surface $-1 0 0 -1.25 0 0 -1 -1 0 0 forward_v I I I I #
loop $-1 $-1 $259 $70 #
coedge $-1 $168 $168 $258 $260 reversed $106 $-1 #
face $-1 $-1 $261 $56 $-1 $262 forward single #
loop $-1 $-1 $263 $108 #
plane-surface $-1 0 0 -1.25 0 0 -1 -1 0 0 forward_v I I I I #
loop $-1 $-1 $264 $71 #
coedge $-1 $173 $173 $263 $265 reversed $109 $-1 #
face $-1 $266 $267 $57 $-1 $268 reversed single #
loop $-1 $-1 $269 $111 #
plane-surface $-1 0 0 -126.19281594286933 0 0 1 1 0 0 forward_v I I I I #
coedge $-1 $270 $271 $272 $273 forward $112 $-1 #
face $-1 $-1 $274 $58 $-1 $275 forward single #
loop $-1 $-1 $276 $114 #
plane-surface $-1 0 0 -1.25 0 0 -1 -1 0 0 forward_v I I I I #
loop $-1 $-1 $277 $73 #
coedge $-1 $182 $182 $276 $278 reversed $115 $-1 #
face $-1 $-1 $279 $59 $-1 $280 forward single #
loop $-1 $-1 $281 $117 #
plane-surface $-1 0 0 -1.25 0 0 -1 -1 0 0 forward_v I I I I #
loop $-1 $-1 $282 $74 #
coedge $-1 $187 $187 $281 $283 reversed $118 $-1 #
face $-1 $284 $285 $45 $-1 $286 reversed single #
loop $-1 $-1 $287 $120 #
plane-surface $-1 0 -41.851556448034771 0 0 1 0 0 0 1 forward_v I I I I #
coedge $-1 $288 $289 $290 $291 forward $121 $-1 #
coedge $-1 $292 $123 $293 $294 forward $76 $-1 #
coedge $-1 $123 $292 $295 $296 forward $76 $-1 #
coedge $-1 $297 $298 $123 $195 reversed $299 $-1 #
edge $-1 $300 -41.851556448034771 $301 41.851556448034771 $194 $302 forward 7 unknown #
face $-1 $303 $304 $46 $-1 $305 reversed single #
loop $-1 $-1 $306 $124 #
plane-surface $-1 0 -6.9465924292432852 0 0 1 0 0 0 1 forward_v I I I I #
coedge $-1 $307 $308 $309 $310 forward $125 $-1 #
coedge $-1 $311 $127 $312 $313 forward $79 $-1 #
coedge $-1 $127 $311 $314 $315 forward $79 $-1 #
coedge $-1 $316 $317 $127 $203 reversed $318 $-1 #
edge $-1 $319 -6.9465924292432852 $320 6.9465924292432852 $202 $321 forward 7 unknown #
face $-1 $322 $323 $47 $-1 $324 reversed single #
loop $-1 $-1 $325 $128 #
plane-surface $-1 0 -6.9465924292432817 0 0 1 0 0 0 1 forward_v I I I I #
coedge $-1 $326 $327 $328 $329 forward $129 $-1 #
coedge $-1 $330 $131 $331 $332 forward $82 $-1 #
coedge $-1 $131 $330 $333 $334 forward $82 $-1 #
coedge $-1 $335 $336 $131 $211 reversed $337 $-1 #
edge $-1 $338 -6.9465924292432817 $339 6.9465924292432817 $210 $340 forward 7 unknown #
face $-1 $341 $342 $48 $-1 $343 reversed single #
loop $-1 $-1 $344 $132 #
plane-surface $-1 0 -3.0303173507324246 0 0 1 0 0 0 1 forward_v I I I I #
coedge $-1 $345 $346 $347 $348 forward $133 $-1 #
coedge $-1 $349 $135 $350 $351 forward $85 $-1 #
coedge $-1 $135 $349 $352 $353 forward $85 $-1 #
coedge $-1 $354 $355 $135 $219 reversed $356 $-1 #
edge $-1 $357 -3.0303173507324246 $358 3.0303173507324246 $218 $359 forward 7 unknown #
loop $-1 $360 $361 $136 #
cone-surface $-1 0 0 0 0 0 1 0.25 0 0 1 I I -0.70710678118654746 0.70710678118654746 0.25 forward I I I I #
coedge $-1 $222 $222 $140 $224 forward $137 $-1 #
coedge $-1 $223 $223 $361 $362 forward $139 $-1 #
edge $-1 $363 0 $363 6.2831853071796004 $222 $364 forward 7 unknown #
loop $-1 $365 $366 $141 #
cone-surface $-1 0 0 0 0 0 1 0.25 0 0 1 I I -0.70710678118654746 0.70710678118654746 0.25 forward I I I I #
coedge $-1 $227 $227 $145 $229 forward $142 $-1 #
coedge $-1 $228 $228 $366 $367 forward $144 $-1 #
edge $-1 $368 0 $368 6.2831853071796004 $227 $369 forward 7 unknown #
face $-1 $370 $371 $51 $-1 $372 reversed single #
loop $-1 $-1 $373 $146 #
plane-surface $-1 0 -3.0303173507324246 0 0 1 0 0 0 1 forward_v I I I I #
coedge $-1 $374 $375 $376 $377 forward $147 $-1 #
coedge $-1 $378 $149 $379 $380 forward $94 $-1 #
coedge $-1 $149 $378 $381 $382 forward $94 $-1 #
coedge $-1 $383 $384 $149 $237 reversed $385 $-1 #
edge $-1 $386 -3.0303173507324246 $387 3.0303173507324246 $236 $388 forward 7 unknown #
loop $-1 $389 $390 $150 #
cone-surface $-1 0 0 0 0 0 1 0.25 0 0 1 I I -0.70710678118654746 0.70710678118654746 0.25 forward I I I I #
coedge $-1 $240 $240 $154 $242 forward $151 $-1 #
coedge $-1 $241 $241 $390 $391 forward $153 $-1 #
edge $-1 $392 0 $392 6.2831853071796004 $240 $393 forward 7 unknown #
loop $-1 $394 $395 $155 #
cone-surface $-1 0 0 0 0 0 1 0.25 0 0 1 I I -0.70710678118654746 0.70710678118654746 0.25 forward I I I I #
coedge $-1 $245 $245 $159 $247 forward $156 $-1 #
coedge $-1 $246 $246 $395 $396 forward $158 $-1 #
edge $-1 $397 0 $397 6.2831853071796004 $245 $398 forward 7 unknown #
face $-1 $399 $400 $54 $-1 $401 reversed single #
loop $-1 $-1 $402 $160 #
plane-surface $-1 0 -3.0303173507324246 0 0 1 0 0 0 1 forward_v I I I I #
coedge $-1 $403 $404 $405 $406 forward $161 $-1 #
coedge $-1 $407 $163 $408 $409 forward $103 $-1 #
coedge $-1 $163 $407 $410 $411 forward $103 $-1 #
coedge $-1 $412 $413 $163 $255 reversed $414 $-1 #
edge $-1 $415 -3.0303173507324246 $416 3.0303173507324246 $254 $417 forward 7 unknown #
loop $-1 $418 $419 $164 #
cone-surface $-1 0 0 0 0 0 1 0.25 0 0 1 I I -0.70710678118654746 0.70710678118654746 0.25 forward I I I I #
coedge $-1 $258 $258 $168 $260 forward $165 $-1 #
coedge $-1 $259 $259 $419 $420 forward $167 $-1 #
edge $-1 $421 0 $421 6.2831853071796004 $258 $422 forward 7 unknown #
loop $-1 $423 $424 $169 #
cone-surface $-1 0 0 0 0 0 1 0.25 0 0 1 I I -0.70710678118654746 0.70710678118654746 0.25 forward I I I I #
coedge $-1 $263 $263 $173 $265 forward $170 $-1 #
coedge $-1 $264 $264 $424 $425 forward $172 $-1 #
edge $-1 $426 0 $426 6.2831853071796004 $263 $427 forward 7 unknown #
face $-1 $428 $429 $57 $-1 $430 reversed single #
loop $-1 $-1 $431 $174 #
plane-surface $-1 0 -3.0303173507324246 0 0 1 0 0 0 1 forward_v I I I I #
coedge $-1 $432 $433 $434 $435 forward $175 $-1 #
coedge $-1 $436 $177 $437 $438 forward $112 $-1 #
coedge $-1 $177 $436 $439 $440 forward $112 $-1 #
coedge $-1 $441 $442 $177 $273 reversed $443 $-1 #
edge $-1 $444 -3.0303173507324246 $445 3.0303173507324246 $272 $446 forward 7 unknown #
loop $-1 $447 $448 $178 #
cone-surface $-1 0 0 0 0 0 1 0.25 0 0 1 I I -0.70710678118654746 0.70710678118654746 0.25 forward I I I I #
coedge $-1 $276 $276 $182 $278 forward $179 $-1 #
coedge $-1 $277 $277 $448 $449 forward $181 $-1 #
edge $-1 $450 0 $450 6.2831853071796004 $276 $451 forward 7 unknown #
loop $-1 $452 $453 $183 #
cone-surface $-1 0 0 0 0 0 1 0.25 0 0 1 I I -0.70710678118654746 0.70710678118654746 0.25 forward I I I I #
coedge $-1 $281 $281 $187 $283 forward $184 $-1 #
coedge $-1 $282 $282 $453 $454 forward $186 $-1 #
edge $-1 $455 0 $455 6.2831853071796004 $281 $456 forward 7 unknown #
face $-1 $457 $458 $45 $-1 $459 reversed single #
loop $-1 $-1 $460 $188 #
plane-surface $-1 -63.096407971434672 0 0 1 0 0 0 0 -1 forward_v I I I I #
coedge $-1 $461 $295 $462 $463 forward $189 $-1 #
coedge $-1 $464 $191 $461 $465 forward $121 $-1 #
coedge $-1 $191 $464 $466 $467 forward $121 $-1 #
coedge $-1 $298 $297 $191 $291 reversed $299 $-1 #
edge $-1 $468 -41.851556448034771 $469 41.851556448034771 $290 $470 forward 7 unknown #
coedge $-1 $193 $192 $471 $472 forward $76 $-1 #
coedge $-1 $473 $474 $192 $294 reversed $458 $-1 #
edge $-1 $301 -63.096407971434672 $475 63.096407971434672 $293 $476 forward 7 unknown #
coedge $-1 $287 $477 $193 $296 reversed $189 $-1 #
edge $-1 $478 -63.096407971434672 $300 63.096407971434672 $295 $479 forward 7 unknown #
coedge $-1 $290 $194 $477 $480 forward $299 $-1 #
coedge $-1 $194 $290 $473 $481 reversed $299 $-1 #
loop $-1 $-1 $297 $457 #
vertex $-1 $195 $482 #
vertex $-1 $195 $483 #
straight-curve $-1 63.096407971434672 0 17.976870068640856 0 1 0 I I #
face $-1 $484 $485 $46 $-1 $486 reversed single #
loop $-1 $-1 $487 $196 #
plane-surface $-1 -63.096407971434672 0 0 1 0 0 0 0 -1 forward_v I I I I #
coedge $-1 $488 $314 $489 $490 forward $197 $-1 #
coedge $-1 $491 $199 $488 $492 forward $125 $-1 #
coedge $-1 $199 $491 $493 $494 forward $125 $-1 #
coedge $-1 $317 $316 $199 $310 reversed $318 $-1 #
edge $-1 $495 -6.9465924292432852 $496 6.9465924292432852 $309 $497 forward 7 unknown #
coedge $-1 $201 $200 $498 $499 forward $79 $-1 #
coedge $-1 $500 $501 $200 $313 reversed $485 $-1 #
edge $-1 $320 -63.096407971434672 $502 63.096407971434672 $312 $503 forward 7 unknown #
coedge $-1 $306 $504 $201 $315 reversed $197 $-1 #
edge $-1 $505 -63.096407971434672 $319 63.096407971434672 $314 $506 forward 7 unknown #
coedge $-1 $309 $202 $504 $507 forward $318 $-1 #
coedge $-1 $202 $309 $500 $508 reversed $318 $-1 #
loop $-1 $-1 $316 $484 #
vertex $-1 $203 $509 #
vertex $-1 $203 $510 #
straight-curve $-1 63.096407971434672 0 3.1515894073094088 0 1 0 I I #
face $-1 $511 $512 $47 $-1 $513 reversed single #
loop $-1 $-1 $514 $204 #
plane-surface $-1 -63.096407971434672 0 0 1 0 0 0 0 -1 forward_v I I I I #
coedge $-1 $515 $333 $516 $517 forward $205 $-1 #
coedge $-1 $518 $207 $515 $519 forward $129 $-1 #
coedge $-1 $207 $518 $520 $521 forward $129 $-1 #
coedge $-1 $336 $335 $207 $329 reversed $337 $-1 #
edge $-1 $522 -6.9465924292432817 $523 6.9465924292432817 $328 $524 forward 7 unknown #
coedge $-1 $209 $208 $525 $526 forward $82 $-1 #
coedge $-1 $527 $528 $208 $332 reversed $512 $-1 #
edge $-1 $339 -63.096407971434672 $529 63.096407971434672 $331 $530 forward 7 unknown #
coedge $-1 $325 $531 $209 $334 reversed $205 $-1 #
edge $-1 $532 -63.096407971434672 $338 63.096407971434672 $333 $533 forward 7 unknown #
coedge $-1 $328 $210 $531 $534 forward $337 $-1 #
coedge $-1 $210 $328 $527 $535 reversed $337 $-1 #
loop $-1 $-1 $335 $511 #
vertex $-1 $211 $536 #
vertex $-1 $211 $537 #
straight-curve $-1 63.096407971434672 0 3.1515894073094088 0 1 0 I I #
face $-1 $538 $539 $48 $-1 $540 reversed single #
loop $-1 $-1 $541 $212 #
plane-surface $-1 -252.38563188573869 0 0 1 0 0 0 0 -1 forward_v I I I I #
coedge $-1 $542 $352 $543 $544 forward $213 $-1 #
coedge $-1 $545 $215 $542 $546 forward $133 $-1 #
coedge $-1 $215 $545 $547 $548 forward $133 $-1 #
coedge $-1 $355 $354 $215 $348 reversed $356 $-1 #
edge $-1 $549 -3.0303173507324246 $550 3.0303173507324246 $347 $551 forward 7 unknown #
coedge $-1 $217 $216 $552 $553 forward $85 $-1 #
coedge $-1 $554 $555 $216 $351 reversed $539 $-1 #
edge $-1 $358 -252.38563188573869 $556 252.38563188573869 $350 $557 forward 7 unknown #
coedge $-1 $344 $558 $217 $353 reversed $213 $-1 #
edge $-1 $559 -252.38563188573869 $357 252.38563188573869 $352 $560 forward 7 unknown #
coedge $-1 $347 $218 $558 $561 forward $356 $-1 #
coedge $-1 $218 $347 $554 $562 reversed $356 $-1 #
loop $-1 $-1 $354 $538 #
vertex $-1 $219 $563 #
vertex $-1 $219 $564 #
straight-curve $-1 252.38563188573869 0 126.19281594286933 0 1 0 I I #
loop $-1 $-1 $565 $136 #
coedge $-1 $361 $361 $223 $362 reversed $220 $-1 #
edge $-1 $566 0 $566 6.2831853071796004 $361 $567 forward 7 unknown #
vertex $-1 $224 $568 #
ellipse-curve $-1 0 0 -1.25 0 0 -1 0.5 0 0 1 I I #
loop $-1 $-1 $569 $141 #
coedge $-1 $366 $366 $228 $367 reversed $225 $-1 #
edge $-1 $570 0 $570 6.2831853071796004 $366 $571 forward 7 unknown #
vertex $-1 $229 $572 #
ellipse-curve $-1 0 0 -1.25 0 0 -1 0.5 0 0 1 I I #
face $-1 $573 $574 $51 $-1 $575 reversed single #
loop $-1 $-1 $576 $230 #
plane-surface $-1 -252.38563188573869 0 0 1 0 0 0 0 -1 forward_v I I I I #
coedge $-1 $577 $381 $578 $579 forward $231 $-1 #
coedge $-1 $580 $233 $577 $581 forward $147 $-1 #
coedge $-1 $233 $580 $582 $583 forward $147 $-1 #
coedge $-1 $384 $383 $233 $377 reversed $385 $-1 #
edge $-1 $584 -3.0303173507324246 $585 3.0303173507324246 $376 $586 forward 7 unknown #
coedge $-1 $235 $234 $587 $588 forward $94 $-1 #
coedge $-1 $589 $590 $234 $380 reversed $574 $-1 #
edge $-1 $387 -252.38563188573869 $591 252.38563188573869 $379 $592 forward 7 unknown #
coedge $-1 $373 $593 $235 $382 reversed $231 $-1 #
edge $-1 $594 -252.38563188573869 $386 252.38563188573869 $381 $595 forward 7 unknown #
coedge $-1 $376 $236 $593 $596 forward $385 $-1 #
coedge $-1 $236 $376 $589 $597 reversed $385 $-1 #
loop $-1 $-1 $383 $573 #
vertex $-1 $237 $598 #
vertex $-1 $237 $599 #
straight-curve $-1 252.38563188573869 0 126.19281594286933 0 1 0 I I #
loop $-1 $-1 $600 $150 #
coedge $-1 $390 $390 $241 $391 reversed $238 $-1 #
edge $-1 $601 0 $601 6.2831853071796004 $390 $602 forward 7 unknown #
vertex $-1 $242 $603 #
ellipse-curve $-1 0 0 -1.25 0 0 -1 0.5 0 0 1 I I #
loop $-1 $-1 $604 $155 #
coedge $-1 $395 $395 $246 $396 reversed $243 $-1 #
edge $-1 $605 0 $605 6.2831853071796004 $395 $606 forward 7 unknown #
vertex $-1 $247 $607 #
ellipse-curve $-1 0 0 -1.25 0 0 -1 0.5 0 0 1 I I #
face $-1 $608 $609 $54 $-1 $610 reversed single #
loop $-1 $-1 $611 $248 #
plane-surface $-1 -252.38563188573869 0 0 1 0 0 0 0 -1 forward_v I I I I #
coedge $-1 $612 $410 $613 $614 forward $249 $-1 #
coedge $-1 $615 $251 $612 $616 forward $161 $-1 #
coedge $-1 $251 $615 $617 $618 forward $161 $-1 #
coedge $-1 $413 $412 $251 $406 reversed $414 $-1 #
edge $-1 $619 -3.0303173507324246 $620 3.0303173507324246 $405 $621 forward 7 unknown #
coedge $-1 $253 $252 $622 $623 forward $103 $-1 #
coedge $-1 $624 $625 $252 $409 reversed $609 $-1 #
edge $-1 $416 -252.38563188573869 $626 252.38563188573869 $408 $627 forward 7 unknown #
coedge $-1 $402 $628 $253 $411 reversed $249 $-1 #
edge $-1 $629 -252.38563188573869 $415 252.38563188573869 $410 $630 forward 7 unknown #
coedge $-1 $405 $254 $628 $631 forward $414 $-1 #
coedge $-1 $254 $405 $624 $632 reversed $414 $-1 #
loop $-1 $-1 $412 $608 #
vertex $-1 $255 $633 #
vertex $-1 $255 $634 #
straight-curve $-1 252.38563188573869 0 126.19281594286933 0 1 0 I I #
loop $-1 $-1 $635 $164 #
coedge $-1 $419 $419 $259 $420 reversed $256 $-1 #
edge $-1 $636 0 $636 6.2831853071796004 $419 $637 forward 7 unknown #
vertex $-1 $260 $638 #
ellipse-curve $-1 0 0 -1.25 0 0 -1 0.5 0 0 1 I I #
loop $-1 $-1 $639 $169 #
coedge $-1 $424 $424 $264 $425 reversed $261 $-1 #
edge $-1 $640 0 $640 6.2831853071796004 $424 $641 forward 7 unknown #
vertex $-1 $265 $642 #
ellipse-curve $-1 0 0 -1.25 0 0 -1 0.5 0 0 1 I I #
face $-1 $643 $644 $57 $-1 $645 reversed single #
loop $-1 $-1 $646 $266 #
plane-surface $-1 -252.38563188573869 0 0 1 0 0 0 0 -1 forward_v I I I I #
coedge $-1 $647 $439 $648 $649 forward $267 $-1 #
coedge $-1 $650 $269 $647 $651 forward $175 $-1 #
coedge $-1 $269 $650 $652 $653 forward $175 $-1 #
coedge $-1 $442 $441 $269 $435 reversed $443 $-1 #
edge $-1 $654 -3.0303173507324246 $655 3.0303173507324246 $434 $656 forward 7 unknown #
coedge $-1 $271 $270 $657 $658 forward $112 $-1 #
coedge $-1 $659 $660 $270 $438 reversed $644 $-1 #
edge $-1 $445 -252.38563188573869 $661 252.38563188573869 $437 $662 forward 7 unknown #
coedge $-1 $431 $663 $271 $440 reversed $267 $-1 #
edge $-1 $664 -252.38563188573869 $444 252.38563188573869 $439 $665 forward 7 unknown #
coedge $-1 $434 $272 $663 $666 forward $443 $-1 #
coedge $-1 $272 $434 $659 $667 reversed $443 $-1 #
loop $-1 $-1 $441 $643 #
vertex $-1 $273 $668 #
vertex $-1 $273 $669 #
straight-curve $-1 252.38563188573869 0 126.19281594286933 0 1 0 I I #
loop $-1 $-1 $670 $178 #
coedge $-1 $448 $448 $277 $449 reversed $274 $-1 #
edge $-1 $671 0 $671 6.2831853071796004 $448 $672 forward 7 unknown #
vertex $-1 $278 $673 #
ellipse-curve $-1 0 0 -1.25 0 0 -1 0.5 0 0 1 I I #
loop $-1 $-1 $674 $183 #
coedge $-1 $453 $453 $282 $454 reversed $279 $-1 #
edge $-1 $675 0 $675 6.2831853071796004 $453 $676 forward 7 unknown #
vertex $-1 $283 $677 #
ellipse-curve $-1 0 0 -1.25 0 0 -1 0.5 0 0 1 I I #
face $-1 $-1 $299 $45 $-1 $678 reversed single #
loop $-1 $-1 $473 $284 #
plane-surface $-1 0 41.851556448034771 0 0 -1 0 0 0 -1 forward_v I I I I #
coedge $-1 $679 $471 $474 $680 forward $285 $-1 #
coedge $-1 $477 $287 $288 $465 reversed $189 $-1 #
coedge $-1 $471 $679 $287 $463 reversed $285 $-1 #
edge $-1 $478 -17.976870068640856 $681 17.976870068640856 $462 $682 forward 7 unknown #
coedge $-1 $289 $288 $679 $683 forward $121 $-1 #
edge $-1 $469 -63.096407971434672 $681 63.096407971434672 $461 $684 forward 7 unknown #
coedge $-1 $474 $473 $289 $467 reversed $458 $-1 #
edge $-1 $685 -63.096407971434672 $468 63.096407971434672 $466 $686 forward 7 unknown #
vertex $-1 $291 $687 #
vertex $-1 $480 $688 #
straight-curve $-1 63.096407971434672 0 -17.976870068640856 0 -1 0 I I #
coedge $-1 $460 $462 $292 $472 reversed $285 $-1 #
edge $-1 $475 -41.851556448034771 $478 41.851556448034771 $471 $689 forward 7 unknown #
coedge $-1 $466 $293 $298 $481 forward $458 $-1 #
coedge $-1 $293 $466 $460 $680 reversed $458 $-1 #
vertex $-1 $294 $690 #
straight-curve $-1 0 41.851556448034771 17.976870068640856 -1 0 0 I I #
coedge $-1 $295 $461 $297 $480 reversed $189 $-1 #
vertex $-1 $472 $691 #
straight-curve $-1 0 -41.851556448034771 17.976870068640856 1 0 0 I I #
edge $-1 $300 -17.976870068640856 $469 17.976870068640856 $297 $692 forward 7 unknown #
edge $-1 $301 -17.976870068640856 $468 17.976870068640856 $298 $693 forward 7 unknown #
point $-1 63.096407971434672 -41.851556448034771 17.976870068640856 #
point $-1 63.096407971434672 41.851556448034771 17.976870068640856 #
face $-1 $-1 $318 $46 $-1 $694 reversed single #
loop $-1 $-1 $500 $303 #
plane-surface $-1 0 6.9465924292432852 0 0 -1 0 0 0 -1 forward_v I I I I #
coedge $-1 $695 $498 $501 $696 forward $304 $-1 #
coedge $-1 $504 $306 $307 $492 reversed $197 $-1 #
coedge $-1 $498 $695 $306 $490 reversed $304 $-1 #
edge $-1 $505 -3.1515894073094088 $697 3.1515894073094088 $489 $698 forward 7 unknown #
coedge $-1 $308 $307 $695 $699 forward $125 $-1 #
edge $-1 $496 -63.096407971434672 $697 63.096407971434672 $488 $700 forward 7 unknown #
coedge $-1 $501 $500 $308 $494 reversed $485 $-1 #
edge $-1 $701 -63.096407971434672 $495 63.096407971434672 $493 $702 forward 7 unknown #
vertex $-1 $310 $703 #
vertex $-1 $507 $704 #
straight-curve $-1 63.096407971434672 0 -3.1515894073094088 0 -1 0 I I #
coedge $-1 $487 $489 $311 $499 reversed $304 $-1 #
edge $-1 $502 -6.9465924292432852 $505 6.9465924292432852 $498 $705 forward 7 unknown #
coedge $-1 $493 $312 $317 $508 forward $485 $-1 #
coedge $-1 $312 $493 $487 $696 reversed $485 $-1 #
vertex $-1 $313 $706 #
straight-curve $-1 0 6.9465924292432852 3.1515894073094088 -1 0 0 I I #
coedge $-1 $314 $488 $316 $507 reversed $197 $-1 #
vertex $-1 $499 $707 #
straight-curve $-1 0 -6.9465924292432852 3.1515894073094088 1 0 0 I I #
edge $-1 $319 -3.1515894073094088 $496 3.1515894073094088 $316 $708 forward 7 unknown #
edge $-1 $320 -3.1515894073094088 $495 3.1515894073094088 $317 $709 forward 7 unknown #
point $-1 63.096407971434672 -6.9465924292432852 3.1515894073094088 #
point $-1 63.096407971434672 6.9465924292432852 3.1515894073094088 #
face $-1 $-1 $337 $47 $-1 $710 reversed single #
loop $-1 $-1 $527 $322 #
plane-surface $-1 0 6.9465924292432817 0 0 -1 0 0 0 -1 forward_v I I I I #
coedge $-1 $711 $525 $528 $712 forward $323 $-1 #
coedge $-1 $531 $325 $326 $519 reversed $205 $-1 #
coedge $-1 $525 $711 $325 $517 reversed $323 $-1 #
edge $-1 $532 -3.1515894073094088 $713 3.1515894073094088 $516 $714 forward 7 unknown #
coedge $-1 $327 $326 $711 $715 forward $129 $-1 #
edge $-1 $523 -63.096407971434672 $713 63.096407971434672 $515 $716 forward 7 unknown #
coedge $-1 $528 $527 $327 $521 reversed $512 $-1 #
edge $-1 $717 -63.096407971434672 $522 63.096407971434672 $520 $718 forward 7 unknown #
vertex $-1 $329 $719 #
vertex $-1 $534 $720 #
straight-curve $-1 63.096407971434672 0 -3.1515894073094088 0 -1 0 I I #
coedge $-1 $514 $516 $330 $526 reversed $323 $-1 #
edge $-1 $529 -6.9465924292432817 $532 6.9465924292432817 $525 $721 forward 7 unknown #
coedge $-1 $520 $331 $336 $535 forward $512 $-1 #
coedge $-1 $331 $520 $514 $712 reversed $512 $-1 #
vertex $-1 $332 $722 #
straight-curve $-1 0 6.9465924292432817 3.1515894073094088 -1 0 0 I I #
coedge $-1 $333 $515 $335 $534 reversed $205 $-1 #
vertex $-1 $526 $723 #
straight-curve $-1 0 -6.9465924292432817 3.1515894073094088 1 0 0 I I #
edge $-1 $338 -3.1515894073094088 $523 3.1515894073094088 $335 $724 forward 7 unknown #
edge $-1 $339 -3.1515894073094088 $522 3.1515894073094088 $336 $725 forward 7 unknown #
point $-1 63.096407971434672 -6.9465924292432817 3.1515894073094088 #
point $-1 63.096407971434672 6.9465924292432817 3.1515894073094088 #
face $-1 $-1 $356 $48 $-1 $726 reversed single #
loop $-1 $-1 $554 $341 #
plane-surface $-1 0 3.0303173507324246 0 0 -1 0 0 0 -1 forward_v I I I I #
coedge $-1 $727 $552 $555 $728 forward $342 $-1 #
coedge $-1 $558 $344 $345 $546 reversed $213 $-1 #
coedge $-1 $552 $727 $344 $544 reversed $342 $-1 #
edge $-1 $559 -126.19281594286933 $729 126.19281594286933 $543 $730 forward 7 unknown #
coedge $-1 $346 $345 $727 $731 forward $133 $-1 #
edge $-1 $550 -252.38563188573869 $729 252.38563188573869 $542 $732 forward 7 unknown #
coedge $-1 $555 $554 $346 $548 reversed $539 $-1 #
edge $-1 $733 -252.38563188573869 $549 252.38563188573869 $547 $734 forward 7 unknown #
vertex $-1 $348 $735 #
vertex $-1 $561 $736 #
straight-curve $-1 252.38563188573869 0 -126.19281594286933 0 -1 0 I I #
coedge $-1 $541 $543 $349 $553 reversed $342 $-1 #
edge $-1 $556 -3.0303173507324246 $559 3.0303173507324246 $552 $737 forward 7 unknown #
coedge $-1 $547 $350 $355 $562 forward $539 $-1 #
coedge $-1 $350 $547 $541 $728 reversed $539 $-1 #
vertex $-1 $351 $738 #
straight-curve $-1 0 3.0303173507324246 126.19281594286933 -1 0 0 I I #
coedge $-1 $352 $542 $354 $561 reversed $213 $-1 #
vertex $-1 $553 $739 #
straight-curve $-1 0 -3.0303173507324246 126.19281594286933 1 0 0 I I #
edge $-1 $357 -126.19281594286933 $550 126.19281594286933 $354 $740 forward 7 unknown #
edge $-1 $358 -126.19281594286933 $549 126.19281594286933 $355 $741 forward 7 unknown #
point $-1 252.38563188573869 -3.0303173507324246 126.19281594286933 #
point $-1 252.38563188573869 3.0303173507324246 126.19281594286933 #
coedge $-1 $565 $565 $-1 $742 reversed $360 $-1 #
vertex $-1 $362 $743 #
ellipse-curve $-1 0 0 -0.25 0 0 -1 0.5 0 0 1 I I #
point $-1 0.5 0 -1.25 #
coedge $-1 $569 $569 $-1 $744 reversed $365 $-1 #
vertex $-1 $367 $745 #
ellipse-curve $-1 0 0 -0.25 0 0 -1 0.5 0 0 1 I I #
point $-1 0.5 0 -1.25 #
face $-1 $-1 $385 $51 $-1 $746 reversed single #
loop $-1 $-1 $589 $370 #
plane-surface $-1 0 3.0303173507324246 0 0 -1 0 0 0 -1 forward_v I I I I #
coedge $-1 $747 $587 $590 $748 forward $371 $-1 #
coedge $-1 $593 $373 $374 $581 reversed $231 $-1 #
coedge $-1 $587 $747 $373 $579 reversed $371 $-1 #
edge $-1 $594 -126.19281594286933 $749 126.19281594286933 $578 $750 forward 7 unknown #
coedge $-1 $375 $374 $747 $751 forward $147 $-1 #
edge $-1 $585 -252.38563188573869 $749 252.38563188573869 $577 $752 forward 7 unknown #
coedge $-1 $590 $589 $375 $583 reversed $574 $-1 #
edge $-1 $753 -252.38563188573869 $584 252.38563188573869 $582 $754 forward 7 unknown #
vertex $-1 $377 $755 #
vertex $-1 $596 $756 #
straight-curve $-1 252.38563188573869 0 -126.19281594286933 0 -1 0 I I #
coedge $-1 $576 $578 $378 $588 reversed $371 $-1 #
edge $-1 $591 -3.0303173507324246 $594 3.0303173507324246 $587 $757 forward 7 unknown #
coedge $-1 $582 $379 $384 $597 forward $574 $-1 #
coedge $-1 $379 $582 $576 $748 reversed $574 $-1 #
vertex $-1 $380 $758 #
straight-curve $-1 0 3.0303173507324246 126.19281594286933 -1 0 0 I I #
coedge $-1 $381 $577 $383 $596 reversed $231 $-1 #
vertex $-1 $588 $759 #
straight-curve $-1 0 -3.0303173507324246 126.19281594286933 1 0 0 I I #
edge $-1 $386 -126.19281594286933 $585 126.19281594286933 $383 $760 forward 7 unknown #
edge $-1 $387 -126.19281594286933 $584 126.19281594286933 $384 $761 forward 7 unknown #
point $-1 252.38563188573869 -3.0303173507324246 126.19281594286933 #
point $-1 252.38563188573869 3.0303173507324246 126.19281594286933 #
coedge $-1 $600 $600 $-1 $762 reversed $389 $-1 #
vertex $-1 $391 $763 #
ellipse-curve $-1 0 0 -0.25 0 0 -1 0.5 0 0 1 I I #
point $-1 0.5 0 -1.25 #
coedge $-1 $604 $604 $-1 $764 reversed $394 $-1 #
vertex $-1 $396 $765 #
ellipse-curve $-1 0 0 -0.25 0 0 -1 0.5 0 0 1 I I #
point $-1 0.5 0 -1.25 #
face $-1 $-1 $414 $54 $-1 $766 reversed single #
loop $-1 $-1 $624 $399 #
plane-surface $-1 0 3.0303173507324246 0 0 -1 0 0 0 -1 forward_v I I I I #
coedge $-1 $767 $622 $625 $768 forward $400 $-1 #
coedge $-1 $628 $402 $403 $616 reversed $249 $-1 #
coedge $-1 $622 $767 $402 $614 reversed $400 $-1 #
edge $-1 $629 -126.19281594286933 $769 126.19281594286933 $613 $770 forward 7 unknown #
coedge $-1 $404 $403 $767 $771 forward $161 $-1 #
edge $-1 $620 -252.38563188573869 $769 252.38563188573869 $612 $772 forward 7 unknown #
coedge $-1 $625 $624 $404 $618 reversed $609 $-1 #
edge $-1 $773 -252.38563188573869 $619 252.38563188573869 $617 $774 forward 7 unknown #
vertex $-1 $406 $775 #
vertex $-1 $631 $776 #
straight-curve $-1 252.38563188573869 0 -126.19281594286933 0 -1 0 I I #
coedge $-1 $611 $613 $407 $623 reversed $400 $-1 #
edge $-1 $626 -3.0303173507324246 $629 3.0303173507324246 $622 $777 forward 7 unknown #
coedge $-1 $617 $408 $413 $632 forward $609 $-1 #
coedge $-1 $408 $617 $611 $768 reversed $609 $-1 #
vertex $-1 $409 $778 #
straight-curve $-1 0 3.0303173507324246 126.19281594286933 -1 0 0 I I #
coedge $-1 $410 $612 $412 $631 reversed $249 $-1 #
vertex $-1 $623 $779 #
straight-curve $-1 0 -3.0303173507324246 126.19281594286933 1 0 0 I I #
edge $-1 $415 -126.19281594286933 $620 126.19281594286933 $412 $780 forward 7 unknown #
edge $-1 $416 -126.19281594286933 $619 126.19281594286933 $413 $781 forward 7 unknown #
point $-1 252.38563188573869 -3.0303173507324246 126.19281594286933 #
point $-1 252.38563188573869 3.0303173507324246 126.19281594286933 #
coedge $-1 $635 $635 $-1 $782 reversed $418 $-1 #
vertex $-1 $420 $783 #
ellipse-curve $-1 0 0 -0.25 0 0 -1 0.5 0 0 1 I I #
point $-1 0.5 0 -1.25 #
coedge $-1 $639 $639 $-1 $784 reversed $423 $-1 #
vertex $-1 $425 $785 #
ellipse-curve $-1 0 0 -0.25 0 0 -1 0.5 0 0 1 I I #
point $-1 0.5 0 -1.25 #
face $-1 $-1 $443 $57 $-1 $786 reversed single #
loop $-1 $-1 $659 $428 #
plane-surface $-1 0 3.0303173507324246 0 0 -1 0 0 0 -1 forward_v I I I I #
coedge $-1 $787 $657 $660 $788 forward $429 $-1 #
coedge $-1 $663 $431 $432 $651 reversed $267 $-1 #
coedge $-1 $657 $787 $431 $649 reversed $429 $-1 #
edge $-1 $664 -126.19281594286933 $789 126.19281594286933 $648 $790 forward 7 unknown #
coedge $-1 $433 $432 $787 $791 forward $175 $-1 #
edge $-1 $655 -252.38563188573869 $789 252.38563188573869 $647 $792 forward 7 unknown #
coedge $-1 $660 $659 $433 $653 reversed $644 $-1 #
edge $-1 $793 -252.38563188573869 $654 252.38563188573869 $652 $794 forward 7 unknown #
vertex $-1 $435 $795 #
vertex $-1 $666 $796 #
straight-curve $-1 252.38563188573869 0 -126.19281594286933 0 -1 0 I I #
coedge $-1 $646 $648 $436 $658 reversed $429 $-1 #
edge $-1 $661 -3.0303173507324246 $664 3.0303173507324246 $657 $797 forward 7 unknown #
coedge $-1 $652 $437 $442 $667 forward $644 $-1 #
coedge $-1 $437 $652 $646 $788 reversed $644 $-1 #
vertex $-1 $438 $798 #
straight-curve $-1 0 3.0303173507324246 126.19281594286933 -1 0 0 I I #
coedge $-1 $439 $647 $441 $666 reversed $267 $-1 #
vertex $-1 $658 $799 #
straight-curve $-1 0 -3.0303173507324246 126.19281594286933 1 0 0 I I #
edge $-1 $444 -126.19281594286933 $655 126.19281594286933 $441 $800 forward 7 unknown #
edge $-1 $445 -126.19281594286933 $654 126.19281594286933 $442 $801 forward 7 unknown #
point $-1 252.38563188573869 -3.0303173507324246 126.19281594286933 #
point $-1 252.38563188573869 3.0303173507324246 126.19281594286933 #
coedge $-1 $670 $670 $-1 $802 reversed $447 $-1 #
vertex $-1 $449 $803 #
ellipse-curve $-1 0 0 -0.25 0 0 -1 0.5 0 0 1 I I #
point $-1 0.5 0 -1.25 #
coedge $-1 $674 $674 $-1 $804 reversed $452 $-1 #
vertex $-1 $454 $805 #
ellipse-curve $-1 0 0 -0.25 0 0 -1 0.5 0 0 1 I I #
point $-1 0.5 0 -1.25 #
plane-surface $-1 63.096407971434672 0 0 -1 0 0 0 0 1 forward_v I I I I #
coedge $-1 $462 $460 $464 $683 reversed $285 $-1 #
edge $-1 $475 -17.976870068640856 $685 17.976870068640856 $474 $806 forward 7 unknown #
vertex $-1 $683 $807 #
straight-curve $-1 -63.096407971434672 -41.851556448034771 0 0 0 -1 I I #
edge $-1 $681 -41.851556448034771 $685 41.851556448034771 $679 $808 forward 7 unknown #
straight-curve $-1 0 -41.851556448034771 -17.976870068640856 -1 0 0 I I #
vertex $-1 $467 $809 #
straight-curve $-1 0 41.851556448034771 -17.976870068640856 1 0 0 I I #
point $-1 63.096407971434672 41.851556448034771 -17.976870068640856 #
point $-1 63.096407971434672 -41.851556448034771 -17.976870068640856 #
straight-curve $-1 -63.096407971434672 0 17.976870068640856 0 -1 0 I I #
point $-1 -63.096407971434672 41.851556448034771 17.976870068640856 #
point $-1 -63.096407971434672 -41.851556448034771 17.976870068640856 #
straight-curve $-1 63.096407971434672 -41.851556448034771 0 0 0 -1 I I #
straight-curve $-1 63.096407971434672 41.851556448034771 0 0 0 -1 I I #
plane-surface $-1 63.096407971434672 0 0 -1 0 0 0 0 1 forward_v I I I I #
coedge $-1 $489 $487 $491 $699 reversed $304 $-1 #
edge $-1 $502 -3.1515894073094088 $701 3.1515894073094088 $501 $810 forward 7 unknown #
vertex $-1 $699 $811 #
straight-curve $-1 -63.096407971434672 -6.9465924292432852 0 0 0 -1 I I #
edge $-1 $697 -6.9465924292432852 $701 6.9465924292432852 $695 $812 forward 7 unknown #
straight-curve $-1 0 -6.9465924292432852 -3.1515894073094088 -1 0 0 I I #
vertex $-1 $494 $813 #
straight-curve $-1 0 6.9465924292432852 -3.1515894073094088 1 0 0 I I #
point $-1 63.096407971434672 6.9465924292432852 -3.1515894073094088 #
point $-1 63.096407971434672 -6.9465924292432852 -3.1515894073094088 #
straight-curve $-1 -63.096407971434672 0 3.1515894073094088 0 -1 0 I I #
point $-1 -63.096407971434672 6.9465924292432852 3.1515894073094088 #
point $-1 -63.096407971434672 -6.9465924292432852 3.1515894073094088 #
straight-curve $-1 63.096407971434672 -6.9465924292432852 0 0 0 -1 I I #
straight-curve $-1 63.096407971434672 6.9465924292432852 0 0 0 -1 I I #
plane-surface $-1 63.096407971434672 0 0 -1 0 0 0 0 1 forward_v I I I I #
coedge $-1 $516 $514 $518 $715 reversed $323 $-1 #
edge $-1 $529 -3.1515894073094088 $717 3.1515894073094088 $528 $814 forward 7 unknown #
vertex $-1 $715 $815 #
straight-curve $-1 -63.096407971434672 -6.9465924292432817 0 0 0 -1 I I #
edge $-1 $713 -6.9465924292432817 $717 6.9465924292432817 $711 $816 forward 7 unknown #
straight-curve $-1 0 -6.9465924292432817 -3.1515894073094088 -1 0 0 I I #
vertex $-1 $521 $817 #
straight-curve $-1 0 6.9465924292432817 -3.1515894073094088 1 0 0 I I #
point $-1 63.096407971434672 6.9465924292432817 -3.1515894073094088 #
point $-1 63.096407971434672 -6.9465924292432817 -3.1515894073094088 #
straight-curve $-1 -63.096407971434672 0 3.1515894073094088 0 -1 0 I I #
point $-1 -63.096407971434672 6.9465924292432817 3.1515894073094088 #
point $-1 -63.096407971434672 -6.9465924292432817 3.1515894073094088 #
straight-curve $-1 63.096407971434672 -6.9465924292432817 0 0 0 -1 I I #
straight-curve $-1 63.096407971434672 6.9465924292432817 0 0 0 -1 I I #
plane-surface $-1 252.38563188573869 0 0 -1 0 0 0 0 1 forward_v I I I I #
coedge $-1 $543 $541 $545 $731 reversed $342 $-1 #
edge $-1 $556 -126.19281594286933 $733 126.19281594286933 $555 $818 forward 7 unknown #
vertex $-1 $731 $819 #
straight-curve $-1 -252.38563188573869 -3.0303173507324246 0 0 0 -1 I I #
edge $-1 $729 -3.0303173507324246 $733 3.0303173507324246 $727 $820 forward 7 unknown #
straight-curve $-1 0 -3.0303173507324246 -126.19281594286933 -1 0 0 I I #
vertex $-1 $548 $821 #
straight-curve $-1 0 3.0303173507324246 -126.19281594286933 1 0 0 I I #
point $-1 252.38563188573869 3.0303173507324246 -126.19281594286933 #
point $-1 252.38563188573869 -3.0303173507324246 -126.19281594286933 #
straight-curve $-1 -252.38563188573869 0 126.19281594286933 0 -1 0 I I #
point $-1 -252.38563188573869 3.0303173507324246 126.19281594286933 #
point $-1 -252.38563188573869 -3.0303173507324246 126.19281594286933 #
straight-curve $-1 252.38563188573869 -3.0303173507324246 0 0 0 -1 I I #
straight-curve $-1 252.38563188573869 3.0303173507324246 0 0 0 -1 I I #
edge $-1 $822 1 $822 0 $565 $-1 forward 7 unknown #
point $-1 0.5 0 -0.25 #
edge $-1 $823 1 $823 0 $569 $-1 forward 7 unknown #
point $-1 0.5 0 -0.25 #
plane-surface $-1 252.38563188573869 0 0 -1 0 0 0 0 1 forward_v I I I I #
coedge $-1 $578 $576 $580 $751 reversed $371 $-1 #
edge $-1 $591 -126.19281594286933 $753 126.19281594286933 $590 $824 forward 7 unknown #
vertex $-1 $751 $825 #
straight-curve $-1 -252.38563188573869 -3.0303173507324246 0 0 0 -1 I I #
edge $-1 $749 -3.0303173507324246 $753 3.0303173507324246 $747 $826 forward 7 unknown #
straight-curve $-1 0 -3.0303173507324246 -126.19281594286933 -1 0 0 I I #
vertex $-1 $583 $827 #
straight-curve $-1 0 3.0303173507324246 -126.19281594286933 1 0 0 I I #
point $-1 252.38563188573869 3.0303173507324246 -126.19281594286933 #
point $-1 252.38563188573869 -3.0303173507324246 -126.19281594286933 #
straight-curve $-1 -252.38563188573869 0 126.19281594286933 0 -1 0 I I #
point $-1 -252.38563188573869 3.0303173507324246 126.19281594286933 #
point $-1 -252.38563188573869 -3.0303173507324246 126.19281594286933 #
straight-curve $-1 252.38563188573869 -3.0303173507324246 0 0 0 -1 I I #
straight-curve $-1 252.38563188573869 3.0303173507324246 0 0 0 -1 I I #
edge $-1 $828 1 $828 0 $600 $-1 forward 7 unknown #
point $-1 0.5 0 -0.25 #
edge $-1 $829 1 $829 0 $604 $-1 forward 7 unknown #
point $-1 0.5 0 -0.25 #
plane-surface $-1 252.38563188573869 0 0 -1 0 0 0 0 1 forward_v I I I I #
coedge $-1 $613 $611 $615 $771 reversed $400 $-1 #
edge $-1 $626 -126.19281594286933 $773 126.19281594286933 $625 $830 forward 7 unknown #
vertex $-1 $771 $831 #
straight-curve $-1 -252.38563188573869 -3.0303173507324246 0 0 0 -1 I I #
edge $-1 $769 -3.0303173507324246 $773 3.0303173507324246 $767 $832 forward 7 unknown #
straight-curve $-1 0 -3.0303173507324246 -126.19281594286933 -1 0 0 I I #
vertex $-1 $618 $833 #
straight-curve $-1 0 3.0303173507324246 -126.19281594286933 1 0 0 I I #
point $-1 252.38563188573869 3.0303173507324246 -126.19281594286933 #
point $-1 252.38563188573869 -3.0303173507324246 -126.19281594286933 #
straight-curve $-1 -252.38563188573869 0 126.19281594286933 0 -1 0 I I #
point $-1 -252.38563188573869 3.0303173507324246 126.19281594286933 #
point $-1 -252.38563188573869 -3.0303173507324246 126.19281594286933 #
straight-curve $-1 252.38563188573869 -3.0303173507324246 0 0 0 -1 I I #
straight-curve $-1 252.38563188573869 3.0303173507324246 0 0 0 -1 I I #
edge $-1 $834 1 $834 0 $635 $-1 forward 7 unknown #
point $-1 0.5 0 -0.25 #
edge $-1 $835 1 $835 0 $639 $-1 forward 7 unknown #
point $-1 0.5 0 -0.25 #
plane-surface $-1 252.38563188573869 0 0 -1 0 0 0 0 1 forward_v I I I I #
coedge $-1 $648 $646 $650 $791 reversed $429 $-1 #
edge $-1 $661 -126.19281594286933 $793 126.19281594286933 $660 $836 forward 7 unknown #
vertex $-1 $791 $837 #
straight-curve $-1 -252.38563188573869 -3.0303173507324246 0 0 0 -1 I I #
edge $-1 $789 -3.0303173507324246 $793 3.0303173507324246 $787 $838 forward 7 unknown #
straight-curve $-1 0 -3.0303173507324246 -126.19281594286933 -1 0 0 I I #
vertex $-1 $653 $839 #
straight-curve $-1 0 3.0303173507324246 -126.19281594286933 1 0 0 I I #
point $-1 252.38563188573869 3.0303173507324246 -126.19281594286933 #
point $-1 252.38563188573869 -3.0303173507324246 -126.19281594286933 #
straight-curve $-1 -252.38563188573869 0 126.19281594286933 0 -1 0 I I #
point $-1 -252.38563188573869 3.0303173507324246 126.19281594286933 #
point $-1 -252.38563188573869 -3.0303173507324246 126.19281594286933 #
straight-curve $-1 252.38563188573869 -3.0303173507324246 0 0 0 -1 I I #
straight-curve $-1 252.38563188573869 3.0303173507324246 0 0 0 -1 I I #
edge $-1 $840 1 $840 0 $670 $-1 forward 7 unknown #
point $-1 0.5 0 -0.25 #
edge $-1 $841 1 $841 0 $674 $-1 forward 7 unknown #
point $-1 0.5 0 -0.25 #
straight-curve $-1 -63.096407971434672 41.851556448034771 0 0 0 -1 I I #
point $-1 -63.096407971434672 -41.851556448034771 -17.976870068640856 #
straight-curve $-1 -63.096407971434672 0 -17.976870068640856 0 1 0 I I #
point $-1 -63.096407971434672 41.851556448034771 -17.976870068640856 #
straight-curve $-1 -63.096407971434672 6.9465924292432852 0 0 0 -1 I I #
point $-1 -63.096407971434672 -6.9465924292432852 -3.1515894073094088 #
straight-curve $-1 -63.096407971434672 0 -3.1515894073094088 0 1 0 I I #
point $-1 -63.096407971434672 6.9465924292432852 -3.1515894073094088 #
straight-curve $-1 -63.096407971434672 6.9465924292432817 0 0 0 -1 I I #
point $-1 -63.096407971434672 -6.9465924292432817 -3.1515894073094088 #
straight-curve $-1 -63.096407971434672 0 -3.1515894073094088 0 1 0 I I #
point $-1 -63.096407971434672 6.9465924292432817 -3.1515894073094088 #
straight-curve $-1 -252.38563188573869 3.0303173507324246 0 0 0 -1 I I #
point $-1 -252.38563188573869 -3.0303173507324246 -126.19281594286933 #
straight-curve $-1 -252.38563188573869 0 -126.19281594286933 0 1 0 I I #
point $-1 -252.38563188573869 3.0303173507324246 -126.19281594286933 #
vertex $-1 $742 $842 #
vertex $-1 $744 $843 #
straight-curve $-1 -252.38563188573869 3.0303173507324246 0 0 0 -1 I I #
point $-1 -252.38563188573869 -3.0303173507324246 -126.19281594286933 #
straight-curve $-1 -252.38563188573869 0 -126.19281594286933 0 1 0 I I #
point $-1 -252.38563188573869 3.0303173507324246 -126.19281594286933 #
vertex $-1 $762 $844 #
vertex $-1 $764 $845 #
straight-curve $-1 -252.38563188573869 3.0303173507324246 0 0 0 -1 I I #
point $-1 -252.38563188573869 -3.0303173507324246 -126.19281594286933 #
straight-curve $-1 -252.38563188573869 0 -126.19281594286933 0 1 0 I I #
point $-1 -252.38563188573869 3.0303173507324246 -126.19281594286933 #
vertex $-1 $782 $846 #
vertex $-1 $784 $847 #
straight-curve $-1 -252.38563188573869 3.0303173507324246 0 0 0 -1 I I #
point $-1 -252.38563188573869 -3.0303173507324246 -126.19281594286933 #
straight-curve $-1 -252.38563188573869 0 -126.19281594286933 0 1 0 I I #
point $-1 -252.38563188573869 3.0303173507324246 -126.19281594286933 #
vertex $-1 $802 $848 #
vertex $-1 $804 $849 #
point $-1 0 0 0.25 #
point $-1 0 0 0.25 #
point $-1 0 0 0.25 #
point $-1 0 0 0.25 #
point $-1 0 0 0.25 #
point $-1 0 0 0.25 #
point $-1 0 0 0.25 #
point $-1 0 0 0.25 #
End-of-ACIS-data 