500 0 5 0           
7 Unknown 11 ACIS 5.0 NT 24 Fri Mar 26 02:39:38 1999 
-1 9.9999999999999995e-007 1e-010 
body $-1 $5 $-1 $6 #
body $-1 $7 $-1 $8 #
body $-1 $9 $-1 $10 #
body $-1 $11 $-1 $12 #
body $-1 $13 $-1 $14 #
lump $-1 $-1 $15 $0 #
transform $-1 1 0 0 0 1 0 0 0 1 73.045442060609759 51.112415071690194 17.608333843615849 1 rotate no_reflect no_shear #
lump $-1 $-1 $16 $1 #
transform $-1 1 0 0 0 1 0 0 0 1 73.045442060609759 51.112415071690194 17.608333843615849 1 rotate no_reflect no_shear #
lump $-1 $-1 $17 $2 #
transform $-1 1 0 0 0 1 0 0 0 1 73.045442060609759 51.112415071690194 17.608333843615849 1 rotate no_reflect no_shear #
lump $-1 $-1 $18 $3 #
transform $-1 1 0 0 0 1 0 0 0 1 73.045442060609759 51.112415071690194 17.608333843615849 1 rotate no_reflect no_shear #
lump $-1 $-1 $19 $4 #
transform $-1 1 0 0 0 1 0 0 0 1 73.045442060609759 51.112415071690194 17.608333843615849 1 rotate no_reflect no_shear #
shell $-1 $-1 $-1 $20 $-1 $5 #
shell $-1 $-1 $-1 $21 $-1 $7 #
shell $-1 $-1 $-1 $22 $-1 $9 #
shell $-1 $-1 $-1 $23 $-1 $11 #
shell $-1 $-1 $-1 $24 $-1 $13 #
face $-1 $25 $26 $15 $-1 $27 forward single #
face $-1 $28 $29 $16 $-1 $30 reversed single #
face $-1 $31 $32 $17 $-1 $33 forward single #
face $-1 $34 $35 $18 $-1 $36 reversed single #
face $-1 $37 $38 $19 $-1 $39 forward single #
face $-1 $40 $41 $15 $-1 $42 reversed single #
loop $-1 $-1 $43 $20 #
plane-surface $-1 0 0 17.608333843615849 0 0 1 1 0 0 forward_v I I I I #
face $-1 $44 $45 $16 $-1 $46 reversed single #
loop $-1 $-1 $47 $21 #
plane-surface $-1 -63.399103788570258 -49.643398033646328 0 0 1 0 0 0 1 forward_v I I I I #
face $-1 $48 $49 $17 $-1 $50 reversed single #
loop $-1 $-1 $51 $22 #
plane-surface $-1 62.379425042628895 0 13.433546734774673 0 0 1 1 0 0 forward_v I I I I #
face $-1 $52 $53 $18 $-1 $54 reversed single #
loop $-1 $-1 $55 $23 #
plane-surface $-1 24.490215507971612 -163.02452625369159 105.78262125670896 1 0 0 0 0.7660444514056185 -0.64278759981090561 forward_v I I I I #
face $-1 $56 $57 $19 $-1 $58 forward single #
loop $-1 $59 $60 $24 #
cone-surface $-1 38.101811766309822 -47.701425704083768 13.898220650251968 0 0.7660444514056185 -0.64278759981090561 1.5 0 0 1 I I 0 1 1.5 forward I I I I #
face $-1 $61 $62 $15 $-1 $63 reversed single #
loop $-1 $-1 $64 $25 #
plane-surface $-1 0 0 -17.608333843615849 0 0 1 1 0 0 forward_v I I I I #
coedge $-1 $65 $66 $67 $68 forward $26 $-1 #
face $-1 $69 $70 $16 $-1 $71 reversed single #
loop $-1 $-1 $72 $28 #
plane-surface $-1 -63.399103788570258 -41.683401516054111 0 0 -1 0 0 0 -1 forward_v I I I I #
coedge $-1 $73 $74 $75 $76 reversed $29 $-1 #
face $-1 $77 $78 $17 $-1 $79 reversed single #
loop $-1 $-1 $80 $31 #
plane-surface $-1 62.379425042628895 0 5.9475194682603458 0 0 1 1 0 0 forward_v I I I I #
coedge $-1 $81 $82 $83 $84 reversed $32 $-1 #
face $-1 $85 $86 $18 $-1 $87 forward single #
loop $-1 $-1 $88 $34 #
plane-surface $-1 38.101811766309822 -51.112415071690208 11.87721249817713 0 -0.7660444514056185 0.64278759981090561 1 0 0 forward_v I I I I #
coedge $-1 $89 $90 $91 $92 reversed $35 $-1 #
face $-1 $-1 $93 $19 $-1 $94 forward single #
loop $-1 $95 $96 $37 #
cone-surface $-1 38.101811766309822 -46.120393838565612 12.571577429749265 0 0.7660444514056185 -0.64278759981090561 0.75 0 0 1 I I -0.70710678118654757 0.70710678118654757 0.75 forward I I I I #
loop $-1 $-1 $97 $24 #
coedge $-1 $60 $60 $98 $99 reversed $38 $-1 #
face $-1 $100 $101 $15 $-1 $102 reversed single #
loop $-1 $-1 $103 $40 #
plane-surface $-1 0 -51.112415071690194 0 0 1 0 0 0 1 forward_v I I I I #
coedge $-1 $104 $105 $106 $107 forward $41 $-1 #
coedge $-1 $108 $43 $109 $110 forward $26 $-1 #
coedge $-1 $43 $108 $111 $112 forward $26 $-1 #
coedge $-1 $113 $114 $43 $68 reversed $115 $-1 #
edge $-1 $116 -51.112415071690194 $117 51.112415071690194 $67 $118 forward 7 unknown #
face $-1 $119 $120 $16 $-1 $121 reversed single #
loop $-1 $-1 $122 $44 #
plane-surface $-1 -53.752765516530758 -45.66339977485022 0 -1 0 0 0 0 1 forward_v I I I I #
coedge $-1 $123 $124 $125 $126 forward $45 $-1 #
coedge $-1 $127 $47 $128 $129 reversed $29 $-1 #
coedge $-1 $47 $127 $130 $131 reversed $29 $-1 #
coedge $-1 $132 $133 $47 $76 forward $134 $-1 #
edge $-1 $135 -17.608333843615849 $136 17.608333843615849 $75 $137 forward 7 unknown #
face $-1 $138 $139 $17 $-1 $140 reversed single #
loop $-1 $-1 $141 $48 #
plane-surface $-1 51.713408024648025 0 9.6905331015175094 1 0 0 0 0 -1 forward_v I I I I #
coedge $-1 $142 $143 $144 $145 reversed $49 $-1 #
coedge $-1 $146 $51 $147 $148 reversed $32 $-1 #
coedge $-1 $51 $146 $149 $150 reversed $32 $-1 #
coedge $-1 $151 $152 $51 $84 forward $139 $-1 #
edge $-1 $153 -51.112415071690194 $154 51.112415071690194 $83 $155 forward 7 unknown #
face $-1 $156 $157 $18 $-1 $158 forward single #
loop $-1 $-1 $159 $52 #
plane-surface $-1 51.713408024648025 0 9.6905331015175094 1 0 0 0 0 -1 forward_v I I I I #
coedge $-1 $160 $161 $162 $163 reversed $53 $-1 #
coedge $-1 $90 $55 $164 $165 reversed $35 $-1 #
coedge $-1 $55 $89 $160 $166 reversed $35 $-1 #
coedge $-1 $162 $167 $55 $92 forward $168 $-1 #
edge $-1 $169 35.282976784738636 $170 41.014098130177331 $91 $171 forward 7 unknown #
loop $-1 $-1 $98 $56 #
plane-surface $-1 38.101811766309822 -51.112415071690208 11.87721249817713 0 -0.7660444514056185 0.64278759981090561 1 0 0 forward_v I I I I #
loop $-1 $-1 $172 $37 #
coedge $-1 $96 $96 $97 $173 reversed $57 $-1 #
coedge $-1 $97 $97 $96 $173 forward $59 $-1 #
coedge $-1 $98 $98 $60 $99 forward $93 $-1 #
edge $-1 $174 -1.4910406039145479e-015 $174 6.2831853071795987 $98 $175 forward 7 unknown #
face $-1 $176 $177 $15 $-1 $178 reversed single #
loop $-1 $-1 $179 $61 #
plane-surface $-1 -73.045442060609759 0 0 1 0 0 0 0 -1 forward_v I I I I #
coedge $-1 $180 $111 $181 $182 forward $62 $-1 #
coedge $-1 $183 $64 $180 $184 forward $41 $-1 #
coedge $-1 $64 $183 $185 $186 forward $41 $-1 #
coedge $-1 $114 $113 $64 $107 reversed $115 $-1 #
edge $-1 $187 -51.112415071690194 $188 51.112415071690194 $106 $189 forward 7 unknown #
coedge $-1 $66 $65 $190 $191 forward $26 $-1 #
coedge $-1 $192 $193 $65 $110 reversed $177 $-1 #
edge $-1 $117 -73.045442060609759 $194 73.045442060609759 $109 $195 forward 7 unknown #
coedge $-1 $103 $196 $66 $112 reversed $62 $-1 #
edge $-1 $197 -73.045442060609759 $116 73.045442060609759 $111 $198 forward 7 unknown #
coedge $-1 $106 $67 $196 $199 forward $115 $-1 #
coedge $-1 $67 $106 $192 $200 reversed $115 $-1 #
loop $-1 $-1 $113 $176 #
vertex $-1 $68 $201 #
vertex $-1 $68 $202 #
straight-curve $-1 73.045442060609759 0 17.608333843615849 0 1 0 I I #
face $-1 $203 $204 $16 $-1 $205 forward single #
loop $-1 $-1 $206 $69 #
plane-surface $-1 0 0 -17.608333843615849 0 0 1 1 0 0 forward_v I I I I #
coedge $-1 $207 $208 $127 $209 forward $70 $-1 #
coedge $-1 $210 $72 $206 $211 reversed $45 $-1 #
coedge $-1 $72 $210 $212 $213 reversed $45 $-1 #
coedge $-1 $208 $207 $72 $126 reversed $70 $-1 #
edge $-1 $214 -17.608333843615849 $215 17.608333843615849 $125 $216 forward 7 unknown #
coedge $-1 $74 $73 $122 $209 reversed $29 $-1 #
coedge $-1 $217 $218 $73 $129 forward $120 $-1 #
edge $-1 $219 22.053213622245629 $135 41.345890166324629 $128 $220 forward 7 unknown #
coedge $-1 $221 $222 $74 $131 forward $204 $-1 #
edge $-1 $136 -41.345890166324629 $223 -22.053213622245629 $130 $224 forward 7 unknown #
coedge $-1 $225 $75 $222 $226 reversed $134 $-1 #
coedge $-1 $75 $225 $217 $227 reversed $134 $-1 #
loop $-1 $-1 $225 $203 #
vertex $-1 $227 $228 #
vertex $-1 $76 $229 #
straight-curve $-1 -73.045442060609759 -49.643398033646328 0 0 0 1 I I #
face $-1 $230 $231 $17 $-1 $232 reversed single #
loop $-1 $-1 $144 $77 #
plane-surface $-1 73.045442060609759 0 0 -1 0 0 0 0 1 forward_v I I I I #
coedge $-1 $233 $234 $146 $235 reversed $78 $-1 #
coedge $-1 $236 $80 $237 $238 reversed $49 $-1 #
coedge $-1 $80 $236 $239 $240 reversed $49 $-1 #
coedge $-1 $152 $151 $80 $145 forward $139 $-1 #
edge $-1 $241 -51.112415071690194 $242 51.112415071690194 $144 $243 forward 7 unknown #
coedge $-1 $82 $81 $141 $235 forward $32 $-1 #
coedge $-1 $244 $245 $81 $148 forward $231 $-1 #
edge $-1 $246 20.523695503333578 $153 41.855729539295311 $147 $247 forward 7 unknown #
coedge $-1 $248 $249 $82 $150 forward $250 $-1 #
edge $-1 $154 -41.855729539295311 $251 -20.523695503333578 $149 $252 forward 7 unknown #
coedge $-1 $144 $83 $249 $253 forward $139 $-1 #
coedge $-1 $83 $144 $244 $254 reversed $139 $-1 #
vertex $-1 $254 $255 #
vertex $-1 $253 $256 #
straight-curve $-1 73.045442060609759 0 13.433546734774673 0 -1 0 I I #
face $-1 $-1 $168 $18 $-1 $257 reversed single #
loop $-1 $-1 $258 $85 #
plane-surface $-1 0 0 17.608333843615849 0 0 1 1 0 0 forward_v I I I I #
coedge $-1 $259 $260 $161 $261 reversed $86 $-1 #
coedge $-1 $262 $88 $90 $166 forward $53 $-1 #
coedge $-1 $88 $262 $159 $261 forward $53 $-1 #
coedge $-1 $263 $91 $88 $163 forward $168 $-1 #
edge $-1 $170 5.4393096248167012 $264 32.662502141493114 $162 $265 forward 7 unknown #
coedge $-1 $266 $267 $89 $165 forward $157 $-1 #
edge $-1 $268 -35.208829736440542 $169 -30.399848055155601 $164 $269 forward 7 unknown #
edge $-1 $170 2.2742244199036027e-014 $268 7.481447499453405 $90 $270 forward 7 unknown #
coedge $-1 $91 $263 $266 $271 reversed $168 $-1 #
loop $-1 $-1 $162 $156 #
vertex $-1 $271 $272 #
vertex $-1 $92 $273 #
straight-curve $-1 24.490215507971612 -51.112415071690194 52.891310628354482 0 0 -1 I I #
coedge $-1 $172 $172 $-1 $274 reversed $95 $-1 #
edge $-1 $275 0 $275 6.2831853071796004 $96 $276 forward 7 unknown #
vertex $-1 $99 $277 #
ellipse-curve $-1 38.101811766309822 -48.70792423104772 14.742773170896498 0 -0.7660444514056185 0.64278759981090561 1.5 0 0 1 I I #
face $-1 $-1 $115 $15 $-1 $278 reversed single #
loop $-1 $-1 $192 $100 #
plane-surface $-1 0 51.112415071690194 0 0 -1 0 0 0 -1 forward_v I I I I #
coedge $-1 $279 $190 $193 $280 forward $101 $-1 #
coedge $-1 $196 $103 $104 $184 reversed $62 $-1 #
coedge $-1 $190 $279 $103 $182 reversed $101 $-1 #
edge $-1 $197 -17.608333843615849 $281 17.608333843615849 $181 $282 forward 7 unknown #
coedge $-1 $105 $104 $279 $283 forward $41 $-1 #
edge $-1 $188 -73.045442060609759 $281 73.045442060609759 $180 $284 forward 7 unknown #
coedge $-1 $193 $192 $105 $186 reversed $177 $-1 #
edge $-1 $285 -73.045442060609759 $187 73.045442060609759 $185 $286 forward 7 unknown #
vertex $-1 $107 $287 #
vertex $-1 $199 $288 #
straight-curve $-1 73.045442060609759 0 -17.608333843615849 0 -1 0 I I #
coedge $-1 $179 $181 $108 $191 reversed $101 $-1 #
edge $-1 $194 -51.112415071690194 $197 51.112415071690194 $190 $289 forward 7 unknown #
coedge $-1 $185 $109 $114 $200 forward $177 $-1 #
coedge $-1 $109 $185 $179 $280 reversed $177 $-1 #
vertex $-1 $110 $290 #
straight-curve $-1 0 51.112415071690194 17.608333843615849 -1 0 0 I I #
coedge $-1 $111 $180 $113 $199 reversed $62 $-1 #
vertex $-1 $191 $291 #
straight-curve $-1 0 -51.112415071690194 17.608333843615849 1 0 0 I I #
edge $-1 $116 -17.608333843615849 $188 17.608333843615849 $113 $292 forward 7 unknown #
edge $-1 $117 -17.608333843615849 $187 17.608333843615849 $114 $293 forward 7 unknown #
point $-1 73.045442060609759 -51.112415071690194 17.608333843615849 #
point $-1 73.045442060609759 51.112415071690194 17.608333843615849 #
face $-1 $-1 $134 $16 $-1 $294 reversed single #
loop $-1 $-1 $212 $119 #
plane-surface $-1 0 0 17.608333843615849 0 0 1 1 0 0 forward_v I I I I #
coedge $-1 $218 $217 $123 $211 forward $120 $-1 #
coedge $-1 $125 $122 $218 $295 reversed $70 $-1 #
coedge $-1 $122 $125 $221 $296 reversed $70 $-1 #
edge $-1 $223 -17.608333843615849 $219 17.608333843615849 $122 $297 forward 7 unknown #
coedge $-1 $124 $123 $225 $298 reversed $45 $-1 #
edge $-1 $299 -41.345890166324629 $215 -22.053213622245629 $206 $300 forward 7 unknown #
coedge $-1 $222 $221 $124 $213 forward $204 $-1 #
edge $-1 $214 22.053213622245629 $301 41.345890166324629 $212 $302 forward 7 unknown #
vertex $-1 $213 $303 #
vertex $-1 $211 $304 #
straight-curve $-1 -53.752765516530758 -41.683401516054111 0 0 0 -1 I I #
coedge $-1 $206 $128 $133 $227 forward $120 $-1 #
coedge $-1 $128 $206 $207 $295 forward $120 $-1 #
vertex $-1 $129 $305 #
straight-curve $-1 -31.699551894285129 -49.643398033646328 -17.608333843615849 -1 0 0 I I #
coedge $-1 $212 $130 $208 $296 forward $204 $-1 #
coedge $-1 $130 $212 $132 $226 forward $204 $-1 #
vertex $-1 $131 $306 #
straight-curve $-1 -31.699551894285129 -49.643398033646328 17.608333843615849 1 0 0 I I #
coedge $-1 $133 $132 $210 $298 forward $134 $-1 #
edge $-1 $301 41.683401516054111 $136 49.643398033646328 $132 $307 forward 7 unknown #
edge $-1 $135 -49.643398033646328 $299 -41.683401516054111 $133 $308 forward 7 unknown #
point $-1 -73.045442060609759 -49.643398033646328 -17.608333843615849 #
point $-1 -73.045442060609759 -49.643398033646328 17.608333843615849 #
face $-1 $-1 $250 $17 $-1 $309 reversed single #
loop $-1 $-1 $239 $138 #
plane-surface $-1 0 51.112415071690194 0 0 -1 0 0 0 -1 forward_v I I I I #
coedge $-1 $310 $141 $245 $311 reversed $78 $-1 #
coedge $-1 $141 $310 $248 $312 reversed $78 $-1 #
edge $-1 $246 -51.112415071690194 $251 51.112415071690194 $141 $313 forward 7 unknown #
coedge $-1 $143 $142 $310 $314 forward $49 $-1 #
coedge $-1 $249 $248 $142 $238 forward $250 $-1 #
edge $-1 $315 20.523695503333578 $241 41.855729539295311 $237 $316 forward 7 unknown #
coedge $-1 $245 $244 $143 $240 forward $231 $-1 #
edge $-1 $242 -41.855729539295311 $317 -20.523695503333578 $239 $318 forward 7 unknown #
vertex $-1 $145 $319 #
vertex $-1 $145 $320 #
straight-curve $-1 73.045442060609759 0 5.9475194682603458 0 1 0 I I #
coedge $-1 $239 $147 $152 $254 forward $231 $-1 #
coedge $-1 $147 $239 $233 $311 forward $231 $-1 #
vertex $-1 $148 $321 #
straight-curve $-1 31.189712521314448 51.112415071690194 13.433546734774673 1 0 0 I I #
coedge $-1 $237 $149 $234 $312 forward $250 $-1 #
coedge $-1 $149 $237 $151 $253 reversed $250 $-1 #
loop $-1 $-1 $237 $230 #
vertex $-1 $150 $322 #
straight-curve $-1 31.189712521314448 -51.112415071690194 13.433546734774673 -1 0 0 I I #
edge $-1 $154 -13.433546734774673 $241 -5.9475194682603458 $151 $323 forward 7 unknown #
edge $-1 $153 -13.433546734774673 $242 -5.9475194682603458 $152 $324 forward 7 unknown #
point $-1 73.045442060609759 51.112415071690194 13.433546734774673 #
point $-1 73.045442060609759 -51.112415071690194 13.433546734774673 #
plane-surface $-1 0 -51.112415071690194 0 0 1 0 0 0 1 forward_v I I I I #
coedge $-1 $267 $266 $259 $325 forward $157 $-1 #
coedge $-1 $260 $159 $258 $325 reversed $86 $-1 #
coedge $-1 $159 $259 $263 $326 reversed $86 $-1 #
edge $-1 $327 -7.481447499453405 $264 -2.2742244199036027e-014 $159 $328 forward 7 unknown #
coedge $-1 $161 $160 $267 $329 reversed $53 $-1 #
coedge $-1 $167 $162 $260 $326 forward $168 $-1 #
vertex $-1 $326 $330 #
straight-curve $-1 19.050905883154911 -51.112415071690194 11.877212498177146 1 0 0 I I #
coedge $-1 $258 $164 $167 $271 forward $157 $-1 #
coedge $-1 $164 $258 $262 $329 forward $157 $-1 #
vertex $-1 $165 $331 #
straight-curve $-1 24.490215507971612 -81.512263126845795 17.608333843615853 0 -1 0 I I #
straight-curve $-1 24.490215507971612 -51.112415071690208 11.87721249817713 0 0.64278759981090561 0.7660444514056185 I I #
edge $-1 $169 24.490215507971612 $332 51.713408024648032 $167 $333 forward 7 unknown #
point $-1 24.490215507971612 -51.112415071690194 17.608333843615849 #
point $-1 24.490215507971612 -51.112415071690194 11.877212498177148 #
edge $-1 $334 1 $334 0 $172 $-1 forward 7 unknown #
vertex $-1 $173 $335 #
ellipse-curve $-1 38.101811766309822 -46.694927177119823 13.053668129607445 0 -0.7660444514056185 0.64278759981090561 1.5 0 0 1 I I #
point $-1 39.601811766309822 -48.707924231047713 14.74277317089649 #
plane-surface $-1 73.045442060609759 0 0 -1 0 0 0 0 1 forward_v I I I I #
coedge $-1 $181 $179 $183 $283 reversed $101 $-1 #
edge $-1 $194 -17.608333843615849 $285 17.608333843615849 $193 $336 forward 7 unknown #
vertex $-1 $283 $337 #
straight-curve $-1 -73.045442060609759 -51.112415071690194 0 0 0 -1 I I #
edge $-1 $281 -51.112415071690194 $285 51.112415071690194 $279 $338 forward 7 unknown #
straight-curve $-1 0 -51.112415071690194 -17.608333843615849 -1 0 0 I I #
vertex $-1 $186 $339 #
straight-curve $-1 0 51.112415071690194 -17.608333843615849 1 0 0 I I #
point $-1 73.045442060609759 51.112415071690194 -17.608333843615849 #
point $-1 73.045442060609759 -51.112415071690194 -17.608333843615849 #
straight-curve $-1 -73.045442060609759 0 17.608333843615849 0 -1 0 I I #
point $-1 -73.045442060609759 51.112415071690194 17.608333843615849 #
point $-1 -73.045442060609759 -51.112415071690194 17.608333843615849 #
straight-curve $-1 73.045442060609759 -51.112415071690194 0 0 0 -1 I I #
straight-curve $-1 73.045442060609759 51.112415071690194 0 0 0 -1 I I #
plane-surface $-1 -73.045442060609759 0 0 1 0 0 0 0 -1 forward_v I I I I #
edge $-1 $215 18.851701628629002 $219 26.811698146221218 $218 $340 forward 7 unknown #
edge $-1 $223 -26.811698146221218 $214 -18.851701628629002 $221 $341 forward 7 unknown #
straight-curve $-1 -53.752765516530758 -49.643398033646328 0 0 0 -1 I I #
edge $-1 $301 -17.608333843615849 $299 17.608333843615849 $225 $342 forward 7 unknown #
vertex $-1 $298 $343 #
straight-curve $-1 -31.699551894285129 -41.683401516054111 -17.608333843615849 1 0 0 I I #
vertex $-1 $226 $344 #
straight-curve $-1 -31.699551894285129 -41.683401516054111 17.608333843615849 -1 0 0 I I #
point $-1 -53.752765516530758 -41.683401516054111 17.608333843615849 #
point $-1 -53.752765516530758 -41.683401516054111 -17.608333843615849 #
point $-1 -53.752765516530758 -49.643398033646328 -17.608333843615849 #
point $-1 -53.752765516530758 -49.643398033646328 17.608333843615849 #
straight-curve $-1 -73.045442060609759 0 17.608333843615849 0 -1 0 I I #
straight-curve $-1 -73.045442060609759 0 -17.608333843615849 0 1 0 I I #
plane-surface $-1 0 -51.112415071690194 0 0 1 0 0 0 1 forward_v I I I I #
coedge $-1 $234 $233 $236 $314 reversed $78 $-1 #
edge $-1 $317 1.1022529175015912 $246 8.5882801840159182 $245 $345 forward 7 unknown #
edge $-1 $251 -8.5882801840159182 $315 -1.1022529175015912 $248 $346 forward 7 unknown #
straight-curve $-1 51.713408024648025 0 13.433546734774673 0 -1 0 I I #
edge $-1 $315 -51.112415071690194 $317 51.112415071690194 $310 $347 forward 7 unknown #
vertex $-1 $238 $348 #
straight-curve $-1 31.189712521314448 -51.112415071690194 5.9475194682603458 1 0 0 I I #
vertex $-1 $240 $349 #
straight-curve $-1 31.189712521314448 51.112415071690194 5.9475194682603458 -1 0 0 I I #
point $-1 73.045442060609759 -51.112415071690194 5.9475194682603458 #
point $-1 73.045442060609759 51.112415071690194 5.9475194682603458 #
point $-1 51.713408024648025 51.112415071690194 13.433546734774673 #
point $-1 51.713408024648025 -51.112415071690194 13.433546734774673 #
straight-curve $-1 73.045442060609759 -51.112415071690194 0 0 0 -1 I I #
straight-curve $-1 73.045442060609759 51.112415071690194 0 0 0 -1 I I #
edge $-1 $332 30.399848055155601 $327 35.208829736440542 $258 $350 forward 7 unknown #
edge $-1 $264 -41.014098130177331 $332 -35.282976784738636 $263 $351 forward 7 unknown #
vertex $-1 $329 $352 #
straight-curve $-1 51.713408024648032 -51.112415071690208 11.87721249817713 0 -0.64278759981090561 -0.7660444514056185 I I #
edge $-1 $327 -32.662502141493121 $268 -5.4393096248167012 $267 $353 forward 7 unknown #
point $-1 51.713408024648025 -51.112415071690194 11.877212498177148 #
point $-1 24.490215507971612 -46.303433390405253 17.608333843615849 #
vertex $-1 $326 $354 #
straight-curve $-1 0 -51.112415071690194 17.608333843615849 1 0 0 I I #
vertex $-1 $274 $355 #
point $-1 39.601811766309822 -46.694927177119823 13.053668129607445 #
straight-curve $-1 -73.045442060609759 51.112415071690194 0 0 0 -1 I I #
point $-1 -73.045442060609759 -51.112415071690194 -17.608333843615849 #
straight-curve $-1 -73.045442060609759 0 -17.608333843615849 0 1 0 I I #
point $-1 -73.045442060609759 51.112415071690194 -17.608333843615849 #
straight-curve $-1 -53.752765516530758 -22.83169988742511 -17.608333843615849 0 -1 0 I I #
straight-curve $-1 -53.752765516530758 -22.83169988742511 17.608333843615849 0 1 0 I I #
straight-curve $-1 -73.045442060609759 -41.683401516054111 0 0 0 -1 I I #
point $-1 -73.045442060609759 -41.683401516054111 -17.608333843615849 #
point $-1 -73.045442060609759 -41.683401516054111 17.608333843615849 #
straight-curve $-1 51.713408024648025 51.112415071690194 4.8452665507587547 0 0 1 I I #
straight-curve $-1 51.713408024648025 -51.112415071690194 4.8452665507587547 0 0 -1 I I #
straight-curve $-1 51.713408024648025 0 5.9475194682603458 0 1 0 I I #
point $-1 51.713408024648025 -51.112415071690194 5.9475194682603458 #
point $-1 51.713408024648025 51.112415071690194 5.9475194682603458 #
straight-curve $-1 51.713408024648032 -81.512263126845795 17.608333843615853 0 1 0 I I #
straight-curve $-1 51.713408024648032 -51.112415071690194 52.891310628354482 0 0 1 I I #
point $-1 51.713408024648032 -46.303433390405253 17.608333843615849 #
straight-curve $-1 19.050905883154911 -46.303433390405246 17.608333843615849 -1 0 0 I I #
point $-1 51.713408024648032 -51.112415071690194 17.608333843615849 #
point $-1 38.101811766309822 -45.545860500011401 12.089486729891085 #
End-of-ACIS-data 