500 0 5 0           
7 Unknown 11 ACIS 5.0 NT 24 Fri Mar 26 15:36:35 1999 
-1 9.9999999999999995e-007 1e-010 
body $-1 $5 $-1 $6 #
body $-1 $7 $-1 $8 #
body $-1 $9 $-1 $10 #
body $-1 $11 $-1 $12 #
body $-1 $13 $-1 $14 #
lump $-1 $-1 $15 $0 #
transform $-1 1 0 0 0 1 0 0 0 1 56.550798059022796 35.557951676066111 16.693908670428499 1 rotate no_reflect no_shear #
lump $-1 $-1 $16 $1 #
transform $-1 1 0 0 0 1 0 0 0 1 56.550798059022796 35.557951676066111 16.693908670428499 1 rotate no_reflect no_shear #
lump $-1 $-1 $17 $2 #
transform $-1 1 0 0 0 1 0 0 0 1 56.550798059022796 35.557951676066111 16.693908670428499 1 rotate no_reflect no_shear #
lump $-1 $-1 $18 $3 #
transform $-1 1 0 0 0 1 0 0 0 1 56.550798059022796 35.557951676066111 16.693908670428499 1 rotate no_reflect no_shear #
lump $-1 $-1 $19 $4 #
transform $-1 1 0 0 0 1 0 0 0 1 56.550798059022796 35.557951676066111 16.693908670428499 1 rotate no_reflect no_shear #
shell $-1 $-1 $-1 $20 $-1 $5 #
shell $-1 $-1 $-1 $21 $-1 $7 #
shell $-1 $-1 $-1 $22 $-1 $9 #
shell $-1 $-1 $-1 $23 $-1 $11 #
shell $-1 $-1 $-1 $24 $-1 $13 #
face $-1 $25 $26 $15 $-1 $27 forward single #
face $-1 $28 $29 $16 $-1 $30 forward single #
face $-1 $31 $32 $17 $-1 $33 reversed single #
face $-1 $34 $35 $18 $-1 $36 reversed single #
face $-1 $37 $38 $19 $-1 $39 reversed single #
face $-1 $40 $41 $15 $-1 $42 reversed single #
loop $-1 $-1 $43 $20 #
plane-surface $-1 0 0 16.693908670428499 0 0 1 1 0 0 forward_v I I I I #
face $-1 $44 $45 $16 $-1 $46 forward single #
loop $-1 $-1 $47 $21 #
plane-surface $-1 59.34230906966485 26.450940290956638 173.43505696497982 0 1 0 0.71933980857756763 0 0.69465836192734942 forward_v I I I I #
face $-1 $48 $49 $17 $-1 $50 reversed single #
loop $-1 $51 $52 $22 #
cone-surface $-1 54.449973790840168 28.272342567978534 14.557783317631046 -0.71933980857756763 0 -0.69465836192734942 0.34732918096367471 0 -0.35966990428878381 1 I I 0 1 0.5 forward I I I I #
face $-1 $53 $54 $18 $-1 $55 reversed single #
loop $-1 $56 $57 $23 #
cone-surface $-1 54.449973790840168 31.004445983511374 14.557783317631046 -0.71933980857756763 0 -0.69465836192734942 0.34732918096367471 0 -0.35966990428878381 1 I I 0 1 0.5 forward I I I I #
face $-1 $58 $59 $19 $-1 $60 reversed single #
loop $-1 $61 $62 $24 #
cone-surface $-1 54.449973790840168 33.736549399044222 14.557783317631046 -0.71933980857756763 0 -0.69465836192734942 0.34732918096367471 0 -0.35966990428878381 1 I I 0 1 0.5 forward I I I I #
face $-1 $63 $64 $15 $-1 $65 reversed single #
loop $-1 $-1 $66 $25 #
plane-surface $-1 0 0 -16.693908670428499 0 0 1 1 0 0 forward_v I I I I #
coedge $-1 $67 $68 $69 $70 forward $26 $-1 #
face $-1 $71 $72 $16 $-1 $73 reversed single #
loop $-1 $-1 $74 $28 #
plane-surface $-1 -22.016171431707434 31.004445983511374 94.868087474249606 0.71933980857756763 0 0.69465836192734942 0.69465836192734942 0 -0.71933980857756763 forward_v I I I I #
coedge $-1 $75 $76 $77 $78 reversed $29 $-1 #
face $-1 $79 $80 $17 $-1 $81 forward single #
loop $-1 $82 $83 $31 #
cone-surface $-1 53.706836736481847 28.272342567978534 13.840144223127346 -0.71933980857756763 0 -0.69465836192734942 0.17366459048183736 0 -0.17983495214439191 1 I I -0.70710678118654746 0.70710678118654746 0.25 forward I I I I #
loop $-1 $-1 $84 $22 #
coedge $-1 $52 $52 $85 $86 reversed $32 $-1 #
face $-1 $87 $88 $18 $-1 $89 reversed single #
loop $-1 $90 $91 $34 #
cone-surface $-1 53.706836736481847 31.004445983511374 13.840144223127346 -0.71933980857756763 0 -0.69465836192734942 0.17366459048183736 0 -0.17983495214439191 1 I I -0.70710678118654746 0.70710678118654746 0.25 forward I I I I #
loop $-1 $-1 $92 $23 #
coedge $-1 $57 $57 $93 $94 reversed $35 $-1 #
face $-1 $95 $96 $19 $-1 $97 reversed single #
loop $-1 $98 $99 $37 #
cone-surface $-1 53.706836736481847 33.736549399044222 13.840144223127346 -0.71933980857756763 0 -0.69465836192734942 0.17366459048183736 0 -0.17983495214439191 1 I I -0.70710678118654746 0.70710678118654746 0.25 forward I I I I #
loop $-1 $-1 $100 $24 #
coedge $-1 $62 $62 $101 $102 reversed $38 $-1 #
face $-1 $103 $104 $15 $-1 $105 reversed single #
loop $-1 $-1 $106 $40 #
plane-surface $-1 0 -35.557951676066111 0 0 1 0 0 0 1 forward_v I I I I #
coedge $-1 $107 $108 $109 $110 forward $41 $-1 #
coedge $-1 $111 $43 $112 $113 forward $26 $-1 #
coedge $-1 $43 $111 $114 $115 forward $26 $-1 #
coedge $-1 $116 $117 $43 $70 reversed $118 $-1 #
edge $-1 $119 -35.557951676066111 $120 35.557951676066111 $69 $121 forward 7 unknown #
face $-1 $122 $123 $16 $-1 $124 forward single #
loop $-1 $-1 $125 $44 #
plane-surface $-1 56.550798059022796 0 0 -1 0 0 0 0 1 forward_v I I I I #
coedge $-1 $126 $127 $125 $128 reversed $45 $-1 #
coedge $-1 $76 $47 $127 $129 forward $29 $-1 #
coedge $-1 $47 $75 $130 $131 reversed $29 $-1 #
coedge $-1 $132 $125 $47 $78 forward $72 $-1 #
edge $-1 $133 -73.207921509612603 $134 -70.023619812061412 $77 $135 forward 7 unknown #
face $-1 $136 $137 $17 $-1 $138 forward single #
loop $-1 $-1 $139 $48 #
plane-surface $-1 59.34230906966485 26.450940290956638 173.43505696497982 0 1 0 0.71933980857756763 0 0.69465836192734942 forward_v I I I I #
loop $-1 $-1 $140 $31 #
coedge $-1 $83 $83 $84 $141 forward $49 $-1 #
coedge $-1 $84 $84 $83 $141 reversed $51 $-1 #
coedge $-1 $85 $85 $52 $86 forward $137 $-1 #
edge $-1 $142 0 $142 6.2831853071796004 $85 $143 forward 7 unknown #
face $-1 $144 $145 $18 $-1 $146 reversed single #
loop $-1 $147 $148 $53 #
cone-surface $-1 54.449973790840168 28.272342567978534 14.557783317631046 -0.71933980857756763 0 -0.69465836192734942 0.34732918096367471 0 -0.35966990428878381 1 I I 0 1 0.5 forward I I I I #
loop $-1 $-1 $149 $34 #
coedge $-1 $91 $91 $92 $150 forward $54 $-1 #
coedge $-1 $92 $92 $91 $150 reversed $56 $-1 #
coedge $-1 $93 $93 $57 $94 forward $151 $-1 #
edge $-1 $152 0 $152 6.2831853071796004 $93 $153 forward 7 unknown #
face $-1 $154 $155 $19 $-1 $156 reversed single #
loop $-1 $157 $158 $58 #
cone-surface $-1 54.449973790840168 31.004445983511374 14.557783317631046 -0.71933980857756763 0 -0.69465836192734942 0.34732918096367471 0 -0.35966990428878381 1 I I 0 1 0.5 forward I I I I #
loop $-1 $-1 $159 $37 #
coedge $-1 $99 $99 $100 $160 forward $59 $-1 #
coedge $-1 $100 $100 $99 $160 reversed $61 $-1 #
coedge $-1 $101 $101 $62 $102 forward $161 $-1 #
edge $-1 $162 0 $162 6.2831853071796004 $101 $163 forward 7 unknown #
face $-1 $164 $165 $15 $-1 $166 reversed single #
loop $-1 $-1 $167 $63 #
plane-surface $-1 -56.550798059022796 0 0 1 0 0 0 0 -1 forward_v I I I I #
coedge $-1 $168 $114 $169 $170 forward $64 $-1 #
coedge $-1 $171 $66 $168 $172 forward $41 $-1 #
coedge $-1 $66 $171 $173 $174 forward $41 $-1 #
coedge $-1 $117 $116 $66 $110 reversed $118 $-1 #
edge $-1 $175 -35.557951676066111 $176 35.557951676066111 $109 $177 forward 7 unknown #
coedge $-1 $68 $67 $178 $179 forward $26 $-1 #
coedge $-1 $180 $181 $67 $113 reversed $165 $-1 #
edge $-1 $120 -56.550798059022796 $182 56.550798059022796 $112 $183 forward 7 unknown #
coedge $-1 $106 $184 $68 $115 reversed $64 $-1 #
edge $-1 $185 -56.550798059022796 $119 56.550798059022796 $114 $186 forward 7 unknown #
coedge $-1 $109 $69 $184 $187 forward $118 $-1 #
coedge $-1 $69 $109 $180 $188 reversed $118 $-1 #
loop $-1 $-1 $116 $164 #
vertex $-1 $70 $189 #
vertex $-1 $70 $190 #
straight-curve $-1 56.550798059022796 0 16.693908670428499 0 1 0 I I #
face $-1 $191 $192 $16 $-1 $193 reversed single #
loop $-1 $-1 $130 $71 #
plane-surface $-1 0 0 16.693908670428499 0 0 1 1 0 0 forward_v I I I I #
coedge $-1 $77 $194 $74 $128 forward $72 $-1 #
coedge $-1 $195 $74 $196 $197 reversed $45 $-1 #
coedge $-1 $74 $195 $75 $129 reversed $45 $-1 #
edge $-1 $198 -20.055728684310424 $133 -10.94871729920095 $125 $199 forward 7 unknown #
edge $-1 $133 -113.10159611804562 $200 -108.6748958859983 $75 $201 forward 7 unknown #
coedge $-1 $202 $203 $76 $131 forward $123 $-1 #
edge $-1 $134 -26.879643524190371 $200 -23.804599192252965 $130 $204 forward 7 unknown #
coedge $-1 $205 $77 $203 $206 reversed $72 $-1 #
vertex $-1 $128 $207 #
vertex $-1 $131 $208 #
straight-curve $-1 56.550798059022796 26.450940290956638 86.717528482489911 0 0 1 I I #
face $-1 $209 $210 $17 $-1 $211 reversed single #
loop $-1 $212 $85 $79 #
plane-surface $-1 -22.016171431707434 31.004445983511374 94.868087474249606 0.71933980857756763 0 0.69465836192734942 0.69465836192734942 0 -0.71933980857756763 forward_v I I I I #
coedge $-1 $213 $214 $215 $216 reversed $80 $-1 #
coedge $-1 $140 $140 $-1 $217 forward $82 $-1 #
edge $-1 $218 0 $218 6.2831853071796004 $83 $219 forward 7 unknown #
vertex $-1 $86 $220 #
ellipse-curve $-1 55.013275893054093 28.272342567978534 15.101757821652901 -0.71933980857756763 0 -0.69465836192734942 0.34732918096367471 0 -0.35966990428878381 1 I I #
face $-1 $221 $222 $18 $-1 $223 forward single #
loop $-1 $224 $225 $87 #
cone-surface $-1 53.706836736481847 28.272342567978534 13.840144223127346 -0.71933980857756763 0 -0.69465836192734942 0.17366459048183736 0 -0.17983495214439191 1 I I -0.70710678118654746 0.70710678118654746 0.25 forward I I I I #
loop $-1 $-1 $226 $53 #
coedge $-1 $148 $148 $227 $228 reversed $88 $-1 #
coedge $-1 $149 $149 $-1 $229 forward $90 $-1 #
edge $-1 $230 0 $230 6.2831853071796004 $91 $231 forward 7 unknown #
loop $-1 $232 $93 $221 #
vertex $-1 $94 $233 #
ellipse-curve $-1 55.013275893054093 31.004445983511374 15.101757821652901 -0.71933980857756763 0 -0.69465836192734942 0.34732918096367471 0 -0.35966990428878381 1 I I #
face $-1 $234 $235 $19 $-1 $236 reversed single #
loop $-1 $237 $238 $95 #
cone-surface $-1 53.706836736481847 31.004445983511374 13.840144223127346 -0.71933980857756763 0 -0.69465836192734942 0.17366459048183736 0 -0.17983495214439191 1 I I -0.70710678118654746 0.70710678118654746 0.25 forward I I I I #
loop $-1 $-1 $239 $58 #
coedge $-1 $158 $158 $240 $241 reversed $96 $-1 #
coedge $-1 $159 $159 $-1 $242 forward $98 $-1 #
edge $-1 $243 0 $243 6.2831853071796004 $99 $244 forward 7 unknown #
loop $-1 $245 $101 $246 #
vertex $-1 $102 $247 #
ellipse-curve $-1 55.013275893054093 33.736549399044222 15.101757821652901 -0.71933980857756763 0 -0.69465836192734942 0.34732918096367471 0 -0.35966990428878381 1 I I #
face $-1 $-1 $118 $15 $-1 $248 reversed single #
loop $-1 $-1 $180 $103 #
plane-surface $-1 0 35.557951676066111 0 0 -1 0 0 0 -1 forward_v I I I I #
coedge $-1 $249 $178 $181 $250 forward $104 $-1 #
coedge $-1 $184 $106 $107 $172 reversed $64 $-1 #
coedge $-1 $178 $249 $106 $170 reversed $104 $-1 #
edge $-1 $185 -16.693908670428499 $251 16.693908670428499 $169 $252 forward 7 unknown #
coedge $-1 $108 $107 $249 $253 forward $41 $-1 #
edge $-1 $176 -56.550798059022796 $251 56.550798059022796 $168 $254 forward 7 unknown #
coedge $-1 $181 $180 $108 $174 reversed $165 $-1 #
edge $-1 $255 -56.550798059022796 $175 56.550798059022796 $173 $256 forward 7 unknown #
vertex $-1 $110 $257 #
vertex $-1 $187 $258 #
straight-curve $-1 56.550798059022796 0 -16.693908670428499 0 -1 0 I I #
coedge $-1 $167 $169 $111 $179 reversed $104 $-1 #
edge $-1 $182 -35.557951676066111 $185 35.557951676066111 $178 $259 forward 7 unknown #
coedge $-1 $173 $112 $117 $188 forward $165 $-1 #
coedge $-1 $112 $173 $167 $250 reversed $165 $-1 #
vertex $-1 $113 $260 #
straight-curve $-1 0 35.557951676066111 16.693908670428499 -1 0 0 I I #
coedge $-1 $114 $168 $116 $187 reversed $64 $-1 #
vertex $-1 $179 $261 #
straight-curve $-1 0 -35.557951676066111 16.693908670428499 1 0 0 I I #
edge $-1 $119 -16.693908670428499 $176 16.693908670428499 $116 $262 forward 7 unknown #
edge $-1 $120 -16.693908670428499 $175 16.693908670428499 $117 $263 forward 7 unknown #
point $-1 56.550798059022796 -35.557951676066111 16.693908670428499 #
point $-1 56.550798059022796 35.557951676066111 16.693908670428499 #
face $-1 $264 $265 $16 $-1 $266 reversed single #
loop $-1 $-1 $267 $122 #
plane-surface $-1 0 0 -16.693908670428499 0 0 1 1 0 0 forward_v I I I I #
coedge $-1 $125 $268 $269 $270 reversed $72 $-1 #
coedge $-1 $127 $126 $202 $271 reversed $45 $-1 #
coedge $-1 $269 $272 $126 $197 forward $273 $-1 #
edge $-1 $274 66.906841152744192 $198 71.333541384791488 $196 $275 forward 7 unknown #
vertex $-1 $270 $276 #
straight-curve $-1 56.550798059022796 15.502222991755687 13.509606972877307 0 -1 0 I I #
vertex $-1 $271 $277 #
straight-curve $-1 -22.016171431707434 26.450940290956638 94.868087474249606 -0.69465836192734942 0 0.71933980857756763 I I #
coedge $-1 $278 $130 $195 $271 forward $123 $-1 #
coedge $-1 $130 $279 $132 $206 forward $123 $-1 #
straight-curve $-1 29.671154534832425 26.450940290956638 16.693908670428499 -1 0 0 I I #
coedge $-1 $268 $132 $280 $281 forward $72 $-1 #
edge $-1 $282 -35.557951676066111 $134 26.450940290956638 $132 $283 forward 7 unknown #
point $-1 56.550798059022796 26.450940290956638 13.509606972877307 #
point $-1 56.550798059022796 26.450940290956638 16.693908670428499 #
face $-1 $284 $285 $17 $-1 $286 forward single #
loop $-1 $-1 $287 $136 #
plane-surface $-1 56.550798059022796 0 0 -1 0 0 0 0 1 forward_v I I I I #
loop $-1 $-1 $288 $79 #
coedge $-1 $214 $139 $289 $290 forward $80 $-1 #
coedge $-1 $139 $213 $291 $292 reversed $80 $-1 #
coedge $-1 $293 $287 $139 $216 forward $210 $-1 #
edge $-1 $294 -73.207921509612603 $295 -70.023619812061412 $215 $296 forward 7 unknown #
edge $-1 $297 1 $297 0 $140 $-1 forward 7 unknown #
vertex $-1 $141 $298 #
ellipse-curve $-1 53.886671688626237 28.272342567978534 14.013808813609185 0.71933980857756763 0 0.69465836192734942 0.34732918096367471 0 -0.35966990428878381 1 I I #
point $-1 55.360605074017776 28.272342567978534 14.742087917364122 #
face $-1 $299 $151 $18 $-1 $300 forward single #
loop $-1 $-1 $301 $144 #
plane-surface $-1 59.34230906966485 26.450940290956638 173.43505696497982 0 1 0 0.71933980857756763 0 0.69465836192734942 forward_v I I I I #
loop $-1 $-1 $302 $87 #
coedge $-1 $225 $225 $226 $303 forward $145 $-1 #
coedge $-1 $226 $226 $225 $303 reversed $147 $-1 #
coedge $-1 $227 $227 $148 $228 forward $232 $-1 #
edge $-1 $304 0 $304 6.2831853071796004 $227 $305 forward 7 unknown #
edge $-1 $306 1 $306 0 $149 $-1 forward 7 unknown #
vertex $-1 $150 $307 #
ellipse-curve $-1 53.886671688626237 31.004445983511374 14.013808813609185 0.71933980857756763 0 0.69465836192734942 0.34732918096367471 0 -0.35966990428878381 1 I I #
loop $-1 $308 $227 $221 #
point $-1 55.360605074017776 31.004445983511374 14.742087917364122 #
face $-1 $309 $310 $19 $-1 $311 reversed single #
loop $-1 $312 $313 $154 #
cone-surface $-1 54.449973790840168 28.272342567978534 14.557783317631046 -0.71933980857756763 0 -0.69465836192734942 0.34732918096367471 0 -0.35966990428878381 1 I I 0 1 0.5 forward I I I I #
loop $-1 $-1 $314 $95 #
coedge $-1 $238 $238 $239 $315 forward $155 $-1 #
coedge $-1 $239 $239 $238 $315 reversed $157 $-1 #
coedge $-1 $240 $240 $158 $241 forward $245 $-1 #
edge $-1 $316 0 $316 6.2831853071796004 $240 $317 forward 7 unknown #
edge $-1 $318 1 $318 0 $159 $-1 forward 7 unknown #
vertex $-1 $160 $319 #
ellipse-curve $-1 53.886671688626237 33.736549399044222 14.013808813609185 0.71933980857756763 0 0.69465836192734942 0.34732918096367471 0 -0.35966990428878381 1 I I #
loop $-1 $320 $240 $246 #
face $-1 $321 $161 $19 $-1 $322 forward single #
point $-1 55.360605074017776 33.736549399044222 14.742087917364122 #
plane-surface $-1 56.550798059022796 0 0 -1 0 0 0 0 1 forward_v I I I I #
coedge $-1 $169 $167 $171 $253 reversed $104 $-1 #
edge $-1 $182 -16.693908670428499 $255 16.693908670428499 $181 $323 forward 7 unknown #
vertex $-1 $253 $324 #
straight-curve $-1 -56.550798059022796 -35.557951676066111 0 0 0 -1 I I #
edge $-1 $251 -35.557951676066111 $255 35.557951676066111 $249 $325 forward 7 unknown #
straight-curve $-1 0 -35.557951676066111 -16.693908670428499 -1 0 0 I I #
vertex $-1 $174 $326 #
straight-curve $-1 0 35.557951676066111 -16.693908670428499 1 0 0 I I #
point $-1 56.550798059022796 35.557951676066111 -16.693908670428499 #
point $-1 56.550798059022796 -35.557951676066111 -16.693908670428499 #
straight-curve $-1 -56.550798059022796 0 16.693908670428499 0 -1 0 I I #
point $-1 -56.550798059022796 35.557951676066111 16.693908670428499 #
point $-1 -56.550798059022796 -35.557951676066111 16.693908670428499 #
straight-curve $-1 56.550798059022796 -35.557951676066111 0 0 0 -1 I I #
straight-curve $-1 56.550798059022796 35.557951676066111 0 0 0 -1 I I #
face $-1 $327 $328 $16 $-1 $329 reversed single #
loop $-1 $-1 $330 $191 #
plane-surface $-1 0 -35.557951676066111 0 0 1 0 0 0 1 forward_v I I I I #
coedge $-1 $331 $332 $268 $333 forward $192 $-1 #
coedge $-1 $194 $205 $267 $333 reversed $72 $-1 #
coedge $-1 $334 $196 $194 $270 forward $273 $-1 #
edge $-1 $198 -13.509606972877299 $335 16.693908670428499 $194 $336 forward 7 unknown #
edge $-1 $200 10.94871729920095 $274 20.055728684310424 $202 $337 forward 7 unknown #
coedge $-1 $196 $338 $278 $339 reversed $273 $-1 #
loop $-1 $-1 $196 $327 #
vertex $-1 $339 $340 #
straight-curve $-1 6.9983570501867476 35.557951676066111 64.82266297777322 0.69465836192734942 0 -0.71933980857756763 I I #
point $-1 56.550798059022796 35.557951676066111 13.509606972877299 #
point $-1 53.47575372708539 26.450940290956638 16.693908670428499 #
coedge $-1 $341 $202 $272 $339 forward $123 $-1 #
coedge $-1 $203 $341 $342 $343 forward $123 $-1 #
coedge $-1 $342 $344 $205 $281 reversed $265 $-1 #
edge $-1 $282 -16.693908670428499 $345 16.693908670428499 $205 $346 forward 7 unknown #
vertex $-1 $206 $347 #
straight-curve $-1 56.550798059022796 0 16.693908670428499 0 1 0 I I #
face $-1 $348 $349 $17 $-1 $350 reversed single #
loop $-1 $-1 $291 $209 #
plane-surface $-1 0 0 16.693908670428499 0 0 1 1 0 0 forward_v I I I I #
coedge $-1 $215 $351 $288 $352 forward $210 $-1 #
coedge $-1 $353 $289 $287 $352 reversed $212 $-1 #
coedge $-1 $288 $354 $213 $290 reversed $212 $-1 #
edge $-1 $294 -113.10159611804562 $355 -108.6748958859983 $213 $356 forward 7 unknown #
coedge $-1 $357 $358 $214 $292 forward $285 $-1 #
edge $-1 $295 -26.879643524190371 $355 -23.804599192252965 $291 $359 forward 7 unknown #
coedge $-1 $360 $215 $358 $361 reversed $210 $-1 #
vertex $-1 $352 $362 #
vertex $-1 $292 $363 #
straight-curve $-1 56.550798059022796 26.450940290956638 86.717528482489911 0 0 1 I I #
vertex $-1 $217 $364 #
point $-1 54.234000869589913 28.272342567978534 13.6541389093204 #
face $-1 $365 $366 $18 $-1 $367 reversed single #
plane-surface $-1 -22.016171431707434 31.004445983511374 94.868087474249606 0.71933980857756763 0 0.69465836192734942 0.69465836192734942 0 -0.71933980857756763 forward_v I I I I #
coedge $-1 $368 $369 $370 $371 reversed $222 $-1 #
coedge $-1 $302 $302 $-1 $372 forward $224 $-1 #
edge $-1 $373 0 $373 6.2831853071796004 $225 $374 forward 7 unknown #
vertex $-1 $228 $375 #
ellipse-curve $-1 55.013275893054093 28.272342567978534 15.101757821652901 -0.71933980857756763 0 -0.69465836192734942 0.34732918096367471 0 -0.35966990428878381 1 I I #
vertex $-1 $229 $376 #
point $-1 54.234000869589913 31.004445983511374 13.6541389093204 #
loop $-1 $-1 $377 $221 #
face $-1 $246 $378 $19 $-1 $379 forward single #
loop $-1 $380 $381 $234 #
cone-surface $-1 53.706836736481847 28.272342567978534 13.840144223127346 -0.71933980857756763 0 -0.69465836192734942 0.17366459048183736 0 -0.17983495214439191 1 I I -0.70710678118654746 0.70710678118654746 0.25 forward I I I I #
loop $-1 $-1 $382 $154 #
coedge $-1 $313 $313 $383 $384 reversed $235 $-1 #
coedge $-1 $314 $314 $-1 $385 forward $237 $-1 #
edge $-1 $386 0 $386 6.2831853071796004 $238 $387 forward 7 unknown #
vertex $-1 $241 $388 #
ellipse-curve $-1 55.013275893054093 31.004445983511374 15.101757821652901 -0.71933980857756763 0 -0.69465836192734942 0.34732918096367471 0 -0.35966990428878381 1 I I #
vertex $-1 $242 $389 #
point $-1 54.234000869589913 33.736549399044222 13.6541389093204 #
loop $-1 $390 $383 $246 #
face $-1 $391 $392 $19 $-1 $393 reversed single #
plane-surface $-1 -22.016171431707434 31.004445983511374 94.868087474249606 0.71933980857756763 0 0.69465836192734942 0.69465836192734942 0 -0.71933980857756763 forward_v I I I I #
straight-curve $-1 -56.550798059022796 35.557951676066111 0 0 0 -1 I I #
point $-1 -56.550798059022796 -35.557951676066111 -16.693908670428499 #
straight-curve $-1 -56.550798059022796 0 -16.693908670428499 0 1 0 I I #
point $-1 -56.550798059022796 35.557951676066111 -16.693908670428499 #
face $-1 $-1 $273 $16 $-1 $394 reversed single #
loop $-1 $-1 $395 $264 #
plane-surface $-1 -56.550798059022796 0 0 1 0 0 0 0 -1 forward_v I I I I #
coedge $-1 $344 $342 $396 $397 forward $265 $-1 #
coedge $-1 $398 $267 $344 $399 forward $192 $-1 #
coedge $-1 $267 $398 $334 $400 forward $192 $-1 #
edge $-1 $335 -35.557951676066111 $345 35.557951676066111 $268 $401 forward 7 unknown #
coedge $-1 $338 $269 $332 $400 reversed $273 $-1 #
vertex $-1 $333 $402 #
straight-curve $-1 56.550798059022796 35.557951676066111 0 0 0 -1 I I #
straight-curve $-1 53.475753727085376 15.502222991755687 16.693908670428506 0 1 0 I I #
coedge $-1 $272 $334 $395 $403 reversed $273 $-1 #
edge $-1 $274 -53.47575372708539 $404 56.550798059022796 $272 $405 forward 7 unknown #
point $-1 53.47575372708539 35.557951676066111 16.693908670428499 #
coedge $-1 $279 $278 $406 $407 forward $123 $-1 #
coedge $-1 $330 $280 $279 $343 reversed $265 $-1 #
edge $-1 $408 -56.550798059022796 $282 56.550798059022796 $342 $409 forward 7 unknown #
coedge $-1 $280 $330 $331 $399 reversed $265 $-1 #
vertex $-1 $281 $410 #
straight-curve $-1 56.550798059022796 -35.557951676066111 0 0 0 -1 I I #
point $-1 56.550798059022796 -35.557951676066111 16.693908670428499 #
face $-1 $411 $412 $17 $-1 $413 reversed single #
loop $-1 $-1 $414 $284 #
plane-surface $-1 0 0 -16.693908670428499 0 0 1 1 0 0 forward_v I I I I #
coedge $-1 $287 $415 $416 $417 reversed $210 $-1 #
edge $-1 $418 -20.055728684310424 $294 -10.94871729920095 $287 $419 forward 7 unknown #
coedge $-1 $354 $288 $420 $421 reversed $212 $-1 #
coedge $-1 $289 $353 $357 $422 reversed $212 $-1 #
vertex $-1 $422 $423 #
straight-curve $-1 -22.016171431707434 26.450940290956638 94.868087474249606 -0.69465836192734942 0 0.71933980857756763 I I #
coedge $-1 $424 $291 $354 $422 forward $285 $-1 #
coedge $-1 $291 $425 $293 $361 forward $285 $-1 #
straight-curve $-1 29.671154534832425 26.450940290956638 16.693908670428499 -1 0 0 I I #
coedge $-1 $415 $293 $426 $427 forward $210 $-1 #
edge $-1 $428 -35.557951676066111 $295 26.450940290956638 $293 $429 forward 7 unknown #
point $-1 56.550798059022796 26.450940290956638 13.509606972877307 #
point $-1 56.550798059022796 26.450940290956638 16.693908670428499 #
point $-1 53.527001784337457 28.272342567978534 13.666479632645508 #
face $-1 $430 $431 $18 $-1 $432 forward single #
loop $-1 $-1 $433 $299 #
plane-surface $-1 56.550798059022796 0 0 -1 0 0 0 0 1 forward_v I I I I #
coedge $-1 $369 $301 $434 $435 forward $222 $-1 #
coedge $-1 $301 $368 $436 $437 reversed $222 $-1 #
coedge $-1 $438 $433 $301 $371 forward $366 $-1 #
edge $-1 $439 -73.207921509612603 $440 -70.023619812061412 $370 $441 forward 7 unknown #
edge $-1 $442 1 $442 0 $302 $-1 forward 7 unknown #
vertex $-1 $303 $443 #
ellipse-curve $-1 53.886671688626237 28.272342567978534 14.013808813609185 0.71933980857756763 0 0.69465836192734942 0.34732918096367471 0 -0.35966990428878381 1 I I #
point $-1 55.360605074017776 28.272342567978534 14.742087917364122 #
point $-1 53.527001784337457 31.004445983511374 13.666479632645508 #
coedge $-1 $444 $434 $433 $445 reversed $308 $-1 #
loop $-1 $-1 $446 $309 #
plane-surface $-1 59.34230906966485 26.450940290956638 173.43505696497982 0 1 0 0.71933980857756763 0 0.69465836192734942 forward_v I I I I #
loop $-1 $-1 $447 $234 #
coedge $-1 $381 $381 $382 $448 forward $310 $-1 #
coedge $-1 $382 $382 $381 $448 reversed $312 $-1 #
coedge $-1 $383 $383 $313 $384 forward $320 $-1 #
edge $-1 $449 0 $449 6.2831853071796004 $383 $450 forward 7 unknown #
edge $-1 $451 1 $451 0 $314 $-1 forward 7 unknown #
vertex $-1 $315 $452 #
ellipse-curve $-1 53.886671688626237 31.004445983511374 14.013808813609185 0.71933980857756763 0 0.69465836192734942 0.34732918096367471 0 -0.35966990428878381 1 I I #
point $-1 55.360605074017776 31.004445983511374 14.742087917364122 #
point $-1 53.527001784337457 33.736549399044222 13.666479632645508 #
loop $-1 $-1 $453 $246 #
face $-1 $454 $455 $19 $-1 $456 forward single #
loop $-1 $-1 $457 $321 #
plane-surface $-1 56.550798059022796 0 0 -1 0 0 0 0 1 forward_v I I I I #
plane-surface $-1 0 35.557951676066111 0 0 -1 0 0 0 -1 forward_v I I I I #
coedge $-1 $458 $406 $338 $403 forward $328 $-1 #
coedge $-1 $406 $458 $330 $397 reversed $328 $-1 #
edge $-1 $408 -16.693908670428499 $459 16.693908670428499 $396 $460 forward 7 unknown #
coedge $-1 $332 $331 $458 $461 forward $192 $-1 #
edge $-1 $345 -56.550798059022796 $459 56.550798059022796 $344 $462 forward 7 unknown #
edge $-1 $463 -56.550798059022796 $335 56.550798059022796 $334 $464 forward 7 unknown #
straight-curve $-1 56.550798059022796 0 -16.693908670428499 0 -1 0 I I #
point $-1 56.550798059022796 35.557951676066111 -16.693908670428499 #
edge $-1 $404 -16.693908670428499 $463 16.693908670428499 $338 $465 forward 7 unknown #
vertex $-1 $339 $466 #
straight-curve $-1 0 35.557951676066111 16.693908670428499 -1 0 0 I I #
coedge $-1 $395 $396 $341 $407 reversed $328 $-1 #
edge $-1 $404 -35.557951676066111 $408 35.557951676066111 $406 $467 forward 7 unknown #
vertex $-1 $407 $468 #
straight-curve $-1 0 -35.557951676066111 16.693908670428499 1 0 0 I I #
point $-1 56.550798059022796 -35.557951676066111 -16.693908670428499 #
face $-1 $469 $470 $17 $-1 $471 reversed single #
loop $-1 $-1 $472 $348 #
plane-surface $-1 0 -35.557951676066111 0 0 1 0 0 0 1 forward_v I I I I #
coedge $-1 $473 $474 $415 $475 forward $349 $-1 #
coedge $-1 $351 $360 $414 $475 reversed $210 $-1 #
coedge $-1 $476 $420 $351 $417 forward $477 $-1 #
edge $-1 $418 -13.509606972877299 $478 16.693908670428499 $351 $479 forward 7 unknown #
vertex $-1 $417 $480 #
straight-curve $-1 56.550798059022796 15.502222991755687 13.509606972877307 0 -1 0 I I #
coedge $-1 $416 $481 $353 $421 forward $477 $-1 #
edge $-1 $482 66.906841152744192 $418 71.333541384791488 $420 $483 forward 7 unknown #
edge $-1 $355 10.94871729920095 $482 20.055728684310424 $357 $484 forward 7 unknown #
point $-1 53.47575372708539 26.450940290956638 16.693908670428499 #
coedge $-1 $485 $357 $481 $486 forward $285 $-1 #
coedge $-1 $358 $485 $487 $488 forward $285 $-1 #
coedge $-1 $487 $489 $360 $427 reversed $412 $-1 #
edge $-1 $428 -16.693908670428499 $490 16.693908670428499 $360 $491 forward 7 unknown #
vertex $-1 $361 $492 #
straight-curve $-1 56.550798059022796 0 16.693908670428499 0 1 0 I I #
face $-1 $493 $494 $18 $-1 $495 reversed single #
loop $-1 $-1 $436 $365 #
plane-surface $-1 0 0 16.693908670428499 0 0 1 1 0 0 forward_v I I I I #
coedge $-1 $370 $496 $377 $445 forward $366 $-1 #
coedge $-1 $377 $497 $368 $435 reversed $308 $-1 #
edge $-1 $439 -113.10159611804562 $498 -108.6748958859983 $368 $499 forward 7 unknown #
coedge $-1 $500 $501 $369 $437 forward $431 $-1 #
edge $-1 $440 -26.879643524190371 $498 -23.804599192252965 $436 $502 forward 7 unknown #
coedge $-1 $503 $370 $501 $504 reversed $366 $-1 #
vertex $-1 $445 $505 #
vertex $-1 $437 $506 #
straight-curve $-1 56.550798059022796 26.450940290956638 86.717528482489911 0 0 1 I I #
vertex $-1 $372 $507 #
point $-1 54.234000869589913 28.272342567978534 13.6541389093204 #
coedge $-1 $497 $377 $508 $509 reversed $308 $-1 #
edge $-1 $510 -20.055728684310424 $439 -10.94871729920095 $433 $511 forward 7 unknown #
coedge $-1 $512 $513 $514 $515 reversed $378 $-1 #
coedge $-1 $447 $447 $-1 $516 forward $380 $-1 #
edge $-1 $517 0 $517 6.2831853071796004 $381 $518 forward 7 unknown #
vertex $-1 $384 $519 #
ellipse-curve $-1 55.013275893054093 28.272342567978534 15.101757821652901 -0.71933980857756763 0 -0.69465836192734942 0.34732918096367471 0 -0.35966990428878381 1 I I #
vertex $-1 $385 $520 #
point $-1 54.234000869589913 31.004445983511374 13.6541389093204 #
coedge $-1 $521 $522 $457 $523 reversed $390 $-1 #
face $-1 $524 $525 $19 $-1 $526 reversed single #
loop $-1 $-1 $527 $391 #
plane-surface $-1 0 0 16.693908670428499 0 0 1 1 0 0 forward_v I I I I #
coedge $-1 $514 $528 $453 $523 forward $392 $-1 #
coedge $-1 $396 $395 $398 $461 reversed $328 $-1 #
vertex $-1 $461 $529 #
straight-curve $-1 -56.550798059022796 -35.557951676066111 0 0 0 -1 I I #
edge $-1 $459 -35.557951676066111 $463 35.557951676066111 $458 $530 forward 7 unknown #
straight-curve $-1 0 -35.557951676066111 -16.693908670428499 -1 0 0 I I #
vertex $-1 $400 $531 #
straight-curve $-1 0 35.557951676066111 -16.693908670428499 1 0 0 I I #
straight-curve $-1 -56.550798059022796 35.557951676066111 0 0 0 -1 I I #
point $-1 -56.550798059022796 35.557951676066111 16.693908670428499 #
straight-curve $-1 -56.550798059022796 0 16.693908670428499 0 -1 0 I I #
point $-1 -56.550798059022796 -35.557951676066111 16.693908670428499 #
face $-1 $-1 $477 $17 $-1 $532 reversed single #
loop $-1 $-1 $533 $411 #
plane-surface $-1 -56.550798059022796 0 0 1 0 0 0 0 -1 forward_v I I I I #
coedge $-1 $489 $487 $534 $535 forward $412 $-1 #
coedge $-1 $536 $414 $489 $537 forward $349 $-1 #
coedge $-1 $414 $536 $476 $538 forward $349 $-1 #
edge $-1 $478 -35.557951676066111 $490 35.557951676066111 $415 $539 forward 7 unknown #
coedge $-1 $540 $416 $474 $538 reversed $477 $-1 #
loop $-1 $-1 $420 $469 #
vertex $-1 $475 $541 #
straight-curve $-1 56.550798059022796 35.557951676066111 0 0 0 -1 I I #
point $-1 56.550798059022796 35.557951676066111 13.509606972877299 #
coedge $-1 $420 $540 $424 $486 reversed $477 $-1 #
vertex $-1 $486 $542 #
straight-curve $-1 6.9983570501867476 35.557951676066111 64.82266297777322 0.69465836192734942 0 -0.71933980857756763 I I #
straight-curve $-1 53.475753727085376 15.502222991755687 16.693908670428506 0 1 0 I I #
coedge $-1 $425 $424 $543 $544 forward $285 $-1 #
edge $-1 $482 -53.47575372708539 $545 56.550798059022796 $481 $546 forward 7 unknown #
coedge $-1 $472 $426 $425 $488 reversed $412 $-1 #
edge $-1 $547 -56.550798059022796 $428 56.550798059022796 $487 $548 forward 7 unknown #
coedge $-1 $426 $472 $473 $537 reversed $412 $-1 #
vertex $-1 $427 $549 #
straight-curve $-1 56.550798059022796 -35.557951676066111 0 0 0 -1 I I #
point $-1 56.550798059022796 -35.557951676066111 16.693908670428499 #
face $-1 $550 $551 $18 $-1 $552 reversed single #
loop $-1 $-1 $553 $430 #
plane-surface $-1 0 0 -16.693908670428499 0 0 1 1 0 0 forward_v I I I I #
coedge $-1 $433 $554 $555 $556 reversed $366 $-1 #
coedge $-1 $434 $444 $500 $557 reversed $308 $-1 #
vertex $-1 $557 $558 #
straight-curve $-1 -22.016171431707434 26.450940290956638 94.868087474249606 -0.69465836192734942 0 0.71933980857756763 I I #
coedge $-1 $559 $436 $497 $557 forward $431 $-1 #
coedge $-1 $436 $560 $438 $504 forward $431 $-1 #
straight-curve $-1 29.671154534832425 26.450940290956638 16.693908670428499 -1 0 0 I I #
coedge $-1 $554 $438 $561 $562 forward $366 $-1 #
edge $-1 $563 -35.557951676066111 $440 26.450940290956638 $438 $564 forward 7 unknown #
point $-1 56.550798059022796 26.450940290956638 13.509606972877307 #
point $-1 56.550798059022796 26.450940290956638 16.693908670428499 #
point $-1 53.527001784337457 28.272342567978534 13.666479632645508 #
coedge $-1 $555 $565 $444 $509 forward $566 $-1 #
edge $-1 $567 66.906841152744192 $510 71.333541384791488 $508 $568 forward 7 unknown #
vertex $-1 $556 $569 #
straight-curve $-1 56.550798059022796 15.502222991755687 13.509606972877307 0 -1 0 I I #
coedge $-1 $513 $446 $522 $570 forward $378 $-1 #
coedge $-1 $446 $512 $527 $571 reversed $378 $-1 #
coedge $-1 $572 $457 $446 $515 forward $392 $-1 #
edge $-1 $573 -73.207921509612603 $574 -70.023619812061412 $514 $575 forward 7 unknown #
edge $-1 $576 1 $576 0 $447 $-1 forward 7 unknown #
vertex $-1 $448 $577 #
ellipse-curve $-1 53.886671688626237 28.272342567978534 14.013808813609185 0.71933980857756763 0 0.69465836192734942 0.34732918096367471 0 -0.35966990428878381 1 I I #
point $-1 55.360605074017776 28.272342567978534 14.742087917364122 #
point $-1 53.527001784337457 31.004445983511374 13.666479632645508 #
coedge $-1 $578 $453 $579 $580 reversed $390 $-1 #
coedge $-1 $453 $578 $512 $570 reversed $390 $-1 #
edge $-1 $581 -20.055728684310424 $573 -10.94871729920095 $457 $582 forward 7 unknown #
face $-1 $583 $584 $19 $-1 $585 reversed single #
loop $-1 $-1 $586 $454 #
plane-surface $-1 0 0 -16.693908670428499 0 0 1 1 0 0 forward_v I I I I #
coedge $-1 $587 $588 $513 $571 forward $455 $-1 #
coedge $-1 $457 $589 $590 $591 reversed $392 $-1 #
point $-1 -56.550798059022796 -35.557951676066111 -16.693908670428499 #
straight-curve $-1 -56.550798059022796 0 -16.693908670428499 0 1 0 I I #
point $-1 -56.550798059022796 35.557951676066111 -16.693908670428499 #
plane-surface $-1 0 35.557951676066111 0 0 -1 0 0 0 -1 forward_v I I I I #
coedge $-1 $592 $543 $540 $593 forward $470 $-1 #
coedge $-1 $543 $592 $472 $535 reversed $470 $-1 #
edge $-1 $547 -16.693908670428499 $594 16.693908670428499 $534 $595 forward 7 unknown #
coedge $-1 $474 $473 $592 $596 forward $349 $-1 #
edge $-1 $490 -56.550798059022796 $594 56.550798059022796 $489 $597 forward 7 unknown #
edge $-1 $598 -56.550798059022796 $478 56.550798059022796 $476 $599 forward 7 unknown #
straight-curve $-1 56.550798059022796 0 -16.693908670428499 0 -1 0 I I #
coedge $-1 $481 $476 $533 $593 reversed $477 $-1 #
point $-1 56.550798059022796 35.557951676066111 -16.693908670428499 #
point $-1 53.47575372708539 35.557951676066111 16.693908670428499 #
coedge $-1 $533 $534 $485 $544 reversed $470 $-1 #
edge $-1 $545 -35.557951676066111 $547 35.557951676066111 $543 $600 forward 7 unknown #
vertex $-1 $486 $601 #
straight-curve $-1 0 35.557951676066111 16.693908670428499 -1 0 0 I I #
vertex $-1 $544 $602 #
straight-curve $-1 0 -35.557951676066111 16.693908670428499 1 0 0 I I #
point $-1 56.550798059022796 -35.557951676066111 -16.693908670428499 #
face $-1 $603 $604 $18 $-1 $605 reversed single #
loop $-1 $-1 $606 $493 #
plane-surface $-1 0 -35.557951676066111 0 0 1 0 0 0 1 forward_v I I I I #
coedge $-1 $607 $608 $554 $609 forward $494 $-1 #
coedge $-1 $496 $503 $553 $609 reversed $366 $-1 #
coedge $-1 $610 $508 $496 $556 forward $566 $-1 #
edge $-1 $510 -13.509606972877299 $611 16.693908670428499 $496 $612 forward 7 unknown #
edge $-1 $498 10.94871729920095 $567 20.055728684310424 $500 $613 forward 7 unknown #
point $-1 53.47575372708539 26.450940290956638 16.693908670428499 #
coedge $-1 $614 $500 $565 $615 forward $431 $-1 #
coedge $-1 $501 $614 $616 $617 forward $431 $-1 #
coedge $-1 $616 $618 $503 $562 reversed $551 $-1 #
edge $-1 $563 -16.693908670428499 $619 16.693908670428499 $503 $620 forward 7 unknown #
vertex $-1 $504 $621 #
straight-curve $-1 56.550798059022796 0 16.693908670428499 0 1 0 I I #
coedge $-1 $508 $622 $559 $615 reversed $566 $-1 #
loop $-1 $-1 $508 $603 #
vertex $-1 $615 $623 #
straight-curve $-1 6.9983570501867476 35.557951676066111 64.82266297777322 0.69465836192734942 0 -0.71933980857756763 I I #
point $-1 56.550798059022796 35.557951676066111 13.509606972877299 #
edge $-1 $573 -113.10159611804562 $624 -108.6748958859983 $512 $625 forward 7 unknown #
edge $-1 $574 -26.879643524190371 $624 -23.804599192252965 $527 $626 forward 7 unknown #
coedge $-1 $627 $514 $588 $628 reversed $392 $-1 #
vertex $-1 $523 $629 #
vertex $-1 $571 $630 #
straight-curve $-1 56.550798059022796 26.450940290956638 86.717528482489911 0 0 1 I I #
vertex $-1 $516 $631 #
point $-1 54.234000869589913 28.272342567978534 13.6541389093204 #
coedge $-1 $522 $521 $587 $632 reversed $390 $-1 #
coedge $-1 $590 $633 $521 $580 forward $634 $-1 #
edge $-1 $635 66.906841152744192 $581 71.333541384791488 $579 $636 forward 7 unknown #
vertex $-1 $591 $637 #
straight-curve $-1 56.550798059022796 15.502222991755687 13.509606972877307 0 -1 0 I I #
face $-1 $638 $639 $19 $-1 $640 reversed single #
loop $-1 $-1 $641 $524 #
plane-surface $-1 0 -35.557951676066111 0 0 1 0 0 0 1 forward_v I I I I #
coedge $-1 $642 $643 $589 $644 forward $525 $-1 #
coedge $-1 $645 $527 $578 $632 forward $455 $-1 #
coedge $-1 $527 $646 $572 $628 forward $455 $-1 #
coedge $-1 $528 $627 $586 $644 reversed $392 $-1 #
coedge $-1 $647 $579 $528 $591 forward $634 $-1 #
edge $-1 $581 -13.509606972877299 $648 16.693908670428499 $528 $649 forward 7 unknown #
coedge $-1 $534 $533 $536 $596 reversed $470 $-1 #
edge $-1 $545 -16.693908670428499 $598 16.693908670428499 $540 $650 forward 7 unknown #
vertex $-1 $596 $651 #
straight-curve $-1 -56.550798059022796 -35.557951676066111 0 0 0 -1 I I #
edge $-1 $594 -35.557951676066111 $598 35.557951676066111 $592 $652 forward 7 unknown #
straight-curve $-1 0 -35.557951676066111 -16.693908670428499 -1 0 0 I I #
vertex $-1 $538 $653 #
straight-curve $-1 0 35.557951676066111 -16.693908670428499 1 0 0 I I #
straight-curve $-1 -56.550798059022796 0 16.693908670428499 0 -1 0 I I #
point $-1 -56.550798059022796 35.557951676066111 16.693908670428499 #
point $-1 -56.550798059022796 -35.557951676066111 16.693908670428499 #
face $-1 $-1 $566 $18 $-1 $654 reversed single #
loop $-1 $-1 $655 $550 #
plane-surface $-1 -56.550798059022796 0 0 1 0 0 0 0 -1 forward_v I I I I #
coedge $-1 $618 $616 $656 $657 forward $551 $-1 #
coedge $-1 $658 $553 $618 $659 forward $494 $-1 #
coedge $-1 $553 $658 $610 $660 forward $494 $-1 #
edge $-1 $611 -35.557951676066111 $619 35.557951676066111 $554 $661 forward 7 unknown #
coedge $-1 $622 $555 $608 $660 reversed $566 $-1 #
vertex $-1 $609 $662 #
straight-curve $-1 56.550798059022796 35.557951676066111 0 0 0 -1 I I #
straight-curve $-1 53.475753727085376 15.502222991755687 16.693908670428506 0 1 0 I I #
coedge $-1 $560 $559 $663 $664 forward $431 $-1 #
edge $-1 $567 -53.47575372708539 $665 56.550798059022796 $565 $666 forward 7 unknown #
coedge $-1 $606 $561 $560 $617 reversed $551 $-1 #
edge $-1 $667 -56.550798059022796 $563 56.550798059022796 $616 $668 forward 7 unknown #
coedge $-1 $561 $606 $607 $659 reversed $551 $-1 #
vertex $-1 $562 $669 #
straight-curve $-1 56.550798059022796 -35.557951676066111 0 0 0 -1 I I #
point $-1 56.550798059022796 -35.557951676066111 16.693908670428499 #
coedge $-1 $565 $610 $655 $670 reversed $566 $-1 #
point $-1 53.47575372708539 35.557951676066111 16.693908670428499 #
vertex $-1 $632 $671 #
straight-curve $-1 -22.016171431707434 26.450940290956638 94.868087474249606 -0.69465836192734942 0 0.71933980857756763 I I #
straight-curve $-1 29.671154534832425 26.450940290956638 16.693908670428499 -1 0 0 I I #
coedge $-1 $589 $572 $672 $673 forward $392 $-1 #
edge $-1 $674 -35.557951676066111 $574 26.450940290956638 $572 $675 forward 7 unknown #
point $-1 56.550798059022796 26.450940290956638 13.509606972877307 #
point $-1 56.550798059022796 26.450940290956638 16.693908670428499 #
point $-1 53.527001784337457 28.272342567978534 13.666479632645508 #
edge $-1 $624 10.94871729920095 $635 20.055728684310424 $587 $676 forward 7 unknown #
coedge $-1 $579 $677 $645 $678 reversed $634 $-1 #
loop $-1 $-1 $579 $638 #
vertex $-1 $678 $679 #
straight-curve $-1 6.9983570501867476 35.557951676066111 64.82266297777322 0.69465836192734942 0 -0.71933980857756763 I I #
point $-1 56.550798059022796 35.557951676066111 13.509606972877299 #
face $-1 $-1 $634 $19 $-1 $680 reversed single #
loop $-1 $-1 $681 $583 #
plane-surface $-1 -56.550798059022796 0 0 1 0 0 0 0 -1 forward_v I I I I #
coedge $-1 $682 $683 $684 $685 forward $584 $-1 #
coedge $-1 $686 $586 $682 $687 forward $525 $-1 #
coedge $-1 $586 $686 $647 $688 forward $525 $-1 #
edge $-1 $648 -35.557951676066111 $689 35.557951676066111 $589 $690 forward 7 unknown #
coedge $-1 $691 $587 $633 $678 forward $455 $-1 #
coedge $-1 $588 $691 $683 $692 forward $455 $-1 #
coedge $-1 $677 $590 $643 $688 reversed $634 $-1 #
vertex $-1 $644 $693 #
straight-curve $-1 56.550798059022796 35.557951676066111 0 0 0 -1 I I #
straight-curve $-1 -56.550798059022796 35.557951676066111 0 0 0 -1 I I #
point $-1 -56.550798059022796 -35.557951676066111 -16.693908670428499 #
straight-curve $-1 -56.550798059022796 0 -16.693908670428499 0 1 0 I I #
point $-1 -56.550798059022796 35.557951676066111 -16.693908670428499 #
plane-surface $-1 0 35.557951676066111 0 0 -1 0 0 0 -1 forward_v I I I I #
coedge $-1 $694 $663 $622 $670 forward $604 $-1 #
coedge $-1 $663 $694 $606 $657 reversed $604 $-1 #
edge $-1 $667 -16.693908670428499 $695 16.693908670428499 $656 $696 forward 7 unknown #
coedge $-1 $608 $607 $694 $697 forward $494 $-1 #
edge $-1 $619 -56.550798059022796 $695 56.550798059022796 $618 $698 forward 7 unknown #
edge $-1 $699 -56.550798059022796 $611 56.550798059022796 $610 $700 forward 7 unknown #
straight-curve $-1 56.550798059022796 0 -16.693908670428499 0 -1 0 I I #
point $-1 56.550798059022796 35.557951676066111 -16.693908670428499 #
coedge $-1 $655 $656 $614 $664 reversed $604 $-1 #
edge $-1 $665 -35.557951676066111 $667 35.557951676066111 $663 $701 forward 7 unknown #
vertex $-1 $615 $702 #
straight-curve $-1 0 35.557951676066111 16.693908670428499 -1 0 0 I I #
vertex $-1 $664 $703 #
straight-curve $-1 0 -35.557951676066111 16.693908670428499 1 0 0 I I #
point $-1 56.550798059022796 -35.557951676066111 -16.693908670428499 #
edge $-1 $665 -16.693908670428499 $699 16.693908670428499 $622 $704 forward 7 unknown #
point $-1 53.47575372708539 26.450940290956638 16.693908670428499 #
coedge $-1 $683 $682 $627 $673 reversed $584 $-1 #
edge $-1 $674 -16.693908670428499 $689 16.693908670428499 $627 $705 forward 7 unknown #
vertex $-1 $628 $706 #
straight-curve $-1 56.550798059022796 0 16.693908670428499 0 1 0 I I #
straight-curve $-1 53.475753727085376 15.502222991755687 16.693908670428506 0 1 0 I I #
coedge $-1 $633 $647 $681 $707 reversed $634 $-1 #
edge $-1 $635 -53.47575372708539 $708 56.550798059022796 $633 $709 forward 7 unknown #
point $-1 53.47575372708539 35.557951676066111 16.693908670428499 #
plane-surface $-1 0 35.557951676066111 0 0 -1 0 0 0 -1 forward_v I I I I #
coedge $-1 $710 $711 $677 $707 forward $639 $-1 #
coedge $-1 $672 $641 $642 $687 reversed $584 $-1 #
coedge $-1 $641 $672 $646 $692 reversed $584 $-1 #
coedge $-1 $711 $710 $641 $685 reversed $639 $-1 #
edge $-1 $712 -16.693908670428499 $713 16.693908670428499 $684 $714 forward 7 unknown #
coedge $-1 $643 $642 $710 $715 forward $525 $-1 #
edge $-1 $689 -56.550798059022796 $713 56.550798059022796 $682 $716 forward 7 unknown #
edge $-1 $717 -56.550798059022796 $648 56.550798059022796 $647 $718 forward 7 unknown #
vertex $-1 $673 $719 #
straight-curve $-1 56.550798059022796 0 -16.693908670428499 0 -1 0 I I #
coedge $-1 $646 $645 $711 $720 forward $455 $-1 #
edge $-1 $712 -56.550798059022796 $674 56.550798059022796 $683 $721 forward 7 unknown #
point $-1 56.550798059022796 35.557951676066111 -16.693908670428499 #
coedge $-1 $656 $655 $658 $697 reversed $604 $-1 #
vertex $-1 $697 $722 #
straight-curve $-1 -56.550798059022796 -35.557951676066111 0 0 0 -1 I I #
edge $-1 $695 -35.557951676066111 $699 35.557951676066111 $694 $723 forward 7 unknown #
straight-curve $-1 0 -35.557951676066111 -16.693908670428499 -1 0 0 I I #
vertex $-1 $660 $724 #
straight-curve $-1 0 35.557951676066111 -16.693908670428499 1 0 0 I I #
straight-curve $-1 -56.550798059022796 0 16.693908670428499 0 -1 0 I I #
point $-1 -56.550798059022796 35.557951676066111 16.693908670428499 #
point $-1 -56.550798059022796 -35.557951676066111 16.693908670428499 #
straight-curve $-1 -56.550798059022796 35.557951676066111 0 0 0 -1 I I #
straight-curve $-1 56.550798059022796 -35.557951676066111 0 0 0 -1 I I #
point $-1 56.550798059022796 -35.557951676066111 16.693908670428499 #
edge $-1 $708 -16.693908670428499 $717 16.693908670428499 $677 $725 forward 7 unknown #
vertex $-1 $678 $726 #
straight-curve $-1 0 35.557951676066111 16.693908670428499 -1 0 0 I I #
coedge $-1 $684 $681 $686 $715 reversed $639 $-1 #
coedge $-1 $681 $684 $691 $720 reversed $639 $-1 #
vertex $-1 $720 $727 #
vertex $-1 $715 $728 #
straight-curve $-1 -56.550798059022796 -35.557951676066111 0 0 0 -1 I I #
edge $-1 $713 -35.557951676066111 $717 35.557951676066111 $710 $729 forward 7 unknown #
straight-curve $-1 0 -35.557951676066111 -16.693908670428499 -1 0 0 I I #
vertex $-1 $688 $730 #
straight-curve $-1 0 35.557951676066111 -16.693908670428499 1 0 0 I I #
point $-1 56.550798059022796 -35.557951676066111 -16.693908670428499 #
edge $-1 $708 -35.557951676066111 $712 35.557951676066111 $711 $731 forward 7 unknown #
straight-curve $-1 0 -35.557951676066111 16.693908670428499 1 0 0 I I #
point $-1 -56.550798059022796 -35.557951676066111 -16.693908670428499 #
straight-curve $-1 -56.550798059022796 0 -16.693908670428499 0 1 0 I I #
point $-1 -56.550798059022796 35.557951676066111 -16.693908670428499 #
straight-curve $-1 -56.550798059022796 35.557951676066111 0 0 0 -1 I I #
point $-1 -56.550798059022796 35.557951676066111 16.693908670428499 #
point $-1 -56.550798059022796 -35.557951676066111 16.693908670428499 #
point $-1 -56.550798059022796 -35.557951676066111 -16.693908670428499 #
straight-curve $-1 -56.550798059022796 0 -16.693908670428499 0 1 0 I I #
point $-1 -56.550798059022796 35.557951676066111 -16.693908670428499 #
straight-curve $-1 -56.550798059022796 0 16.693908670428499 0 -1 0 I I #
End-of-ACIS-data 