500 0 11 0           
7 Unknown 11 ACIS 5.0 NT 24 Fri Mar 26 17:29:55 1999 
-1 9.9999999999999995e-007 1e-010 
body $-1 $11 $-1 $12 #
body $-1 $13 $-1 $14 #
body $-1 $15 $-1 $16 #
body $-1 $17 $-1 $18 #
body $-1 $19 $-1 $20 #
body $-1 $21 $-1 $22 #
body $-1 $23 $-1 $24 #
body $-1 $25 $-1 $26 #
body $-1 $27 $-1 $28 #
body $-1 $29 $-1 $30 #
body $-1 $31 $-1 $32 #
lump $-1 $-1 $33 $0 #
transform $-1 1 0 0 0 1 0 0 0 1 41.632129886776333 18.950134404989178 7.4227480410521292 1 rotate no_reflect no_shear #
lump $-1 $-1 $34 $1 #
transform $-1 1 0 0 0 1 0 0 0 1 41.632129886776333 18.950134404989178 7.4227480410521292 1 rotate no_reflect no_shear #
lump $-1 $-1 $35 $2 #
transform $-1 1 0 0 0 1 0 0 0 1 41.632129886776333 18.950134404989178 7.4227480410521292 1 rotate no_reflect no_shear #
lump $-1 $-1 $36 $3 #
transform $-1 1 0 0 0 1 0 0 0 1 41.632129886776333 18.950134404989178 7.4227480410521292 1 rotate no_reflect no_shear #
lump $-1 $-1 $37 $4 #
transform $-1 1 0 0 0 1 0 0 0 1 41.632129886776333 18.950134404989178 7.4227480410521292 1 rotate no_reflect no_shear #
lump $-1 $-1 $38 $5 #
transform $-1 1 0 0 0 1 0 0 0 1 41.632129886776333 18.950134404989178 7.4227480410521292 1 rotate no_reflect no_shear #
lump $-1 $-1 $39 $6 #
transform $-1 1 0 0 0 1 0 0 0 1 41.632129886776333 18.950134404989178 7.4227480410521292 1 rotate no_reflect no_shear #
lump $-1 $-1 $40 $7 #
transform $-1 1 0 0 0 1 0 0 0 1 41.632129886776333 18.950134404989178 7.4227480410521292 1 rotate no_reflect no_shear #
lump $-1 $-1 $41 $8 #
transform $-1 1 0 0 0 1 0 0 0 1 41.632129886776333 18.950134404989178 7.4227480410521292 1 rotate no_reflect no_shear #
lump $-1 $-1 $42 $9 #
transform $-1 1 0 0 0 1 0 0 0 1 41.632129886776333 18.950134404989178 7.4227480410521292 1 rotate no_reflect no_shear #
lump $-1 $-1 $43 $10 #
transform $-1 1 0 0 0 1 0 0 0 1 41.632129886776333 18.950134404989178 7.4227480410521292 1 rotate no_reflect no_shear #
shell $-1 $-1 $-1 $44 $-1 $11 #
shell $-1 $-1 $-1 $45 $-1 $13 #
shell $-1 $-1 $-1 $46 $-1 $15 #
shell $-1 $-1 $-1 $47 $-1 $17 #
shell $-1 $-1 $-1 $48 $-1 $19 #
shell $-1 $-1 $-1 $49 $-1 $21 #
shell $-1 $-1 $-1 $50 $-1 $23 #
shell $-1 $-1 $-1 $51 $-1 $25 #
shell $-1 $-1 $-1 $52 $-1 $27 #
shell $-1 $-1 $-1 $53 $-1 $29 #
shell $-1 $-1 $-1 $54 $-1 $31 #
face $-1 $55 $56 $33 $-1 $57 forward single #
face $-1 $58 $59 $34 $-1 $60 reversed single #
face $-1 $61 $62 $35 $-1 $63 forward single #
face $-1 $64 $65 $36 $-1 $66 reversed single #
face $-1 $67 $68 $37 $-1 $69 forward single #
face $-1 $70 $71 $38 $-1 $72 reversed single #
face $-1 $73 $74 $39 $-1 $75 forward single #
face $-1 $76 $77 $40 $-1 $78 reversed single #
face $-1 $79 $80 $41 $-1 $81 forward single #
face $-1 $82 $83 $42 $-1 $84 reversed single #
face $-1 $85 $86 $43 $-1 $87 forward single #
face $-1 $88 $89 $33 $-1 $90 reversed single #
loop $-1 $-1 $91 $44 #
plane-surface $-1 0 0 7.4227480410521292 0 0 1 1 0 0 forward_v I I I I #
face $-1 $92 $93 $34 $-1 $94 reversed single #
loop $-1 $-1 $95 $45 #
plane-surface $-1 41.632131253016759 -2.4862408728191818 119.17365951663908 0 -1 0 -0.70710678939079041 0 -0.70710677298230451 forward_v I I I I #
face $-1 $96 $97 $35 $-1 $98 forward single #
loop $-1 $99 $100 $46 #
cone-surface $-1 37.514769566278467 -7.2009728917264297 3.305387676808603 -0.70710678939079041 0 -0.70710677298230451 1.0606601594734568 0 -1.0606601840861856 1 I I 0 1 1.5 forward I I I I #
face $-1 $101 $102 $36 $-1 $103 reversed single #
loop $-1 $-1 $104 $47 #
plane-surface $-1 41.632131253016759 16.463893532169998 119.17365951663908 0 -1 0 -0.70710678939079041 0 -0.70710677298230451 forward_v I I I I #
face $-1 $105 $106 $37 $-1 $107 forward single #
loop $-1 $108 $109 $48 #
cone-surface $-1 37.514769566278467 11.749161513262749 3.305387676808603 -0.70710678939079041 0 -0.70710677298230451 1.0606601594734568 0 -1.0606601840861856 1 I I 0 1 1.5 forward I I I I #
face $-1 $110 $111 $38 $-1 $112 reversed single #
loop $-1 $-1 $113 $49 #
plane-surface $-1 -92.894727543719085 -12.832996417977247 65.706534759583576 0 1 0 -0.61566148304635926 0 0.78801074757464917 forward_v I I I I #
face $-1 $114 $115 $39 $-1 $116 forward single #
loop $-1 $117 $118 $50 #
cone-surface $-1 -35.812499714156566 -9.5748539431534869 2.3129403215094313 0.61566148304635926 0 -0.78801074757464917 1.1820161213619738 0 0.92349222456953894 1 I I 0 1 1.5 forward I I I I #
face $-1 $119 $120 $40 $-1 $121 reversed single #
loop $-1 $-1 $122 $51 #
plane-surface $-1 -92.894727543719085 -3.2581424748237606 65.706534759583576 0 1 0 -0.61566148304635926 0 0.78801074757464917 forward_v I I I I #
face $-1 $123 $124 $41 $-1 $125 forward single #
loop $-1 $126 $127 $52 #
cone-surface $-1 -35.812499714156566 0 2.3129403215094313 0.61566148304635926 0 -0.78801074757464917 1.1820161213619738 0 0.92349222456953894 1 I I 0 1 1.5 forward I I I I #
face $-1 $128 $129 $42 $-1 $130 reversed single #
loop $-1 $-1 $131 $53 #
plane-surface $-1 -92.894727543719085 6.3167114683297285 65.706534759583576 0 1 0 -0.61566148304635926 0 0.78801074757464917 forward_v I I I I #
face $-1 $132 $133 $43 $-1 $134 forward single #
loop $-1 $135 $136 $54 #
cone-surface $-1 -35.812499714156566 9.5748539431534887 2.3129403215094313 0.61566148304635926 0 -0.78801074757464917 1.1820161213619738 0 0.92349222456953894 1 I I 0 1 1.5 forward I I I I #
face $-1 $137 $138 $33 $-1 $139 reversed single #
loop $-1 $-1 $140 $55 #
plane-surface $-1 0 0 -7.4227480410521292 0 0 1 1 0 0 forward_v I I I I #
coedge $-1 $141 $142 $143 $144 forward $56 $-1 #
face $-1 $145 $146 $34 $-1 $147 reversed single #
loop $-1 $-1 $148 $58 #
plane-surface $-1 -17.244592146460811 -7.2009728917264297 60.29693748340194 0.70710678939079041 0 0.70710677298230451 0.70710677298230451 0 -0.70710678939079041 forward_v I I I I #
coedge $-1 $149 $150 $151 $152 reversed $59 $-1 #
face $-1 $-1 $153 $35 $-1 $154 forward single #
loop $-1 $155 $156 $61 #
cone-surface $-1 35.868346062656663 -7.2009728917264297 1.6589642113922256 -0.70710678939079041 0 -0.70710677298230451 0.53033007973672841 0 -0.53033009204309278 1 I I -0.70710678118654757 0.70710678118654757 0.75 forward I I I I #
loop $-1 $-1 $157 $46 #
coedge $-1 $100 $100 $158 $159 reversed $62 $-1 #
face $-1 $160 $161 $36 $-1 $162 reversed single #
loop $-1 $-1 $163 $64 #
plane-surface $-1 -17.244592146460811 11.749161513262749 60.29693748340194 0.70710678939079041 0 0.70710677298230451 0.70710677298230451 0 -0.70710678939079041 forward_v I I I I #
coedge $-1 $164 $165 $166 $167 reversed $65 $-1 #
face $-1 $-1 $168 $37 $-1 $169 forward single #
loop $-1 $170 $171 $67 #
cone-surface $-1 35.868346062656663 11.749161513262749 1.6589642113922256 -0.70710678939079041 0 -0.70710677298230451 0.53033007973672841 0 -0.53033009204309278 1 I I -0.70710678118654757 0.70710678118654757 0.75 forward I I I I #
loop $-1 $-1 $172 $48 #
coedge $-1 $109 $109 $173 $174 reversed $68 $-1 #
face $-1 $175 $176 $38 $-1 $177 reversed single #
loop $-1 $-1 $178 $70 #
plane-surface $-1 -41.63212988677634 -9.5748539431534869 0.093403169176554002 -0.61566148304635926 0 0.78801074757464917 0.78801074757464917 0 0.61566148304635926 forward_v I I I I #
coedge $-1 $179 $180 $181 $182 reversed $71 $-1 #
face $-1 $-1 $183 $39 $-1 $184 forward single #
loop $-1 $185 $186 $73 #
cone-surface $-1 -34.221690153631791 -9.5748539431534869 0.2767969772235368 0.61566148304635926 0 -0.78801074757464917 0.59100806068098688 0 0.46174611228476947 1 I I -0.70710678118654757 0.70710678118654757 0.75 forward I I I I #
loop $-1 $-1 $187 $50 #
coedge $-1 $118 $118 $188 $189 reversed $74 $-1 #
face $-1 $190 $191 $40 $-1 $192 reversed single #
loop $-1 $-1 $193 $76 #
plane-surface $-1 -41.63212988677634 0 0.093403169176554002 -0.61566148304635926 0 0.78801074757464917 0.78801074757464917 0 0.61566148304635926 forward_v I I I I #
coedge $-1 $194 $195 $196 $197 reversed $77 $-1 #
face $-1 $-1 $198 $41 $-1 $199 forward single #
loop $-1 $200 $201 $79 #
cone-surface $-1 -34.221690153631791 0 0.2767969772235368 0.61566148304635926 0 -0.78801074757464917 0.59100806068098688 0 0.46174611228476947 1 I I -0.70710678118654757 0.70710678118654757 0.75 forward I I I I #
loop $-1 $-1 $202 $52 #
coedge $-1 $127 $127 $203 $204 reversed $80 $-1 #
face $-1 $205 $206 $42 $-1 $207 reversed single #
loop $-1 $-1 $208 $82 #
plane-surface $-1 -41.63212988677634 9.5748539431534887 0.093403169176554002 -0.61566148304635926 0 0.78801074757464917 0.78801074757464917 0 0.61566148304635926 forward_v I I I I #
coedge $-1 $209 $210 $211 $212 reversed $83 $-1 #
face $-1 $-1 $213 $43 $-1 $214 forward single #
loop $-1 $215 $216 $85 #
cone-surface $-1 -34.221690153631791 9.5748539431534887 0.2767969772235368 0.61566148304635926 0 -0.78801074757464917 0.59100806068098688 0 0.46174611228476947 1 I I -0.70710678118654757 0.70710678118654757 0.75 forward I I I I #
loop $-1 $-1 $217 $54 #
coedge $-1 $136 $136 $218 $219 reversed $86 $-1 #
face $-1 $220 $221 $33 $-1 $222 reversed single #
loop $-1 $-1 $223 $88 #
plane-surface $-1 0 -18.950134404989178 0 0 1 0 0 0 1 forward_v I I I I #
coedge $-1 $224 $225 $226 $227 forward $89 $-1 #
coedge $-1 $228 $91 $229 $230 forward $56 $-1 #
coedge $-1 $91 $228 $231 $232 forward $56 $-1 #
coedge $-1 $233 $234 $91 $144 reversed $235 $-1 #
edge $-1 $236 -18.950134404989178 $237 18.950134404989178 $143 $238 forward 7 unknown #
face $-1 $239 $240 $34 $-1 $241 forward single #
loop $-1 $-1 $242 $92 #
plane-surface $-1 41.632131253016759 -11.915704910633679 119.17365951663908 0 1 0 0.70710678939079041 0 0.70710677298230451 forward_v I I I I #
coedge $-1 $243 $244 $245 $246 reversed $93 $-1 #
coedge $-1 $150 $95 $247 $248 reversed $59 $-1 #
coedge $-1 $95 $149 $243 $249 reversed $59 $-1 #
coedge $-1 $245 $250 $95 $152 forward $240 $-1 #
edge $-1 $251 -20.816064260267954 $252 -14.813530442429599 $151 $253 forward 7 unknown #
loop $-1 $-1 $158 $96 #
plane-surface $-1 -17.244592146460811 -7.2009728917264297 60.29693748340194 0.70710678939079041 0 0.70710677298230451 0.70710677298230451 0 -0.70710678939079041 forward_v I I I I #
loop $-1 $-1 $254 $61 #
coedge $-1 $156 $156 $157 $255 reversed $97 $-1 #
coedge $-1 $157 $157 $156 $255 forward $99 $-1 #
coedge $-1 $158 $158 $100 $159 forward $153 $-1 #
edge $-1 $256 0 $256 6.2831853071796004 $158 $257 forward 7 unknown #
face $-1 $258 $259 $36 $-1 $260 reversed single #
loop $-1 $-1 $261 $101 #
plane-surface $-1 41.632131253016759 7.0344294943555008 119.17365951663908 0 1 0 0.70710678939079041 0 0.70710677298230451 forward_v I I I I #
coedge $-1 $262 $263 $264 $265 reversed $102 $-1 #
coedge $-1 $165 $104 $266 $267 reversed $65 $-1 #
coedge $-1 $104 $164 $262 $268 reversed $65 $-1 #
coedge $-1 $264 $269 $104 $167 forward $270 $-1 #
edge $-1 $271 -20.816064260267954 $272 -14.813530442429599 $166 $273 forward 7 unknown #
loop $-1 $-1 $173 $105 #
plane-surface $-1 -17.244592146460811 11.749161513262749 60.29693748340194 0.70710678939079041 0 0.70710677298230451 0.70710677298230451 0 -0.70710678939079041 forward_v I I I I #
loop $-1 $-1 $274 $67 #
coedge $-1 $171 $171 $172 $275 reversed $106 $-1 #
coedge $-1 $172 $172 $171 $275 forward $108 $-1 #
coedge $-1 $173 $173 $109 $174 forward $168 $-1 #
edge $-1 $276 0 $276 6.2831853071796004 $173 $277 forward 7 unknown #
face $-1 $278 $279 $38 $-1 $280 reversed single #
loop $-1 $-1 $281 $110 #
plane-surface $-1 -92.894727543719085 -6.3167114683297267 65.706534759583576 0 -1 0 0.61566148304635926 0 -0.78801074757464917 forward_v I I I I #
coedge $-1 $282 $283 $284 $285 reversed $111 $-1 #
coedge $-1 $180 $113 $286 $287 reversed $71 $-1 #
coedge $-1 $113 $179 $282 $288 reversed $71 $-1 #
coedge $-1 $284 $289 $113 $182 forward $290 $-1 #
edge $-1 $291 4.8152338850832095 $292 14.196367333842723 $181 $293 forward 7 unknown #
loop $-1 $-1 $188 $114 #
plane-surface $-1 -41.63212988677634 -9.5748539431534869 0.093403169176554002 -0.61566148304635926 0 0.78801074757464917 0.78801074757464917 0 0.61566148304635926 forward_v I I I I #
loop $-1 $-1 $294 $73 #
coedge $-1 $186 $186 $187 $295 reversed $115 $-1 #
coedge $-1 $187 $187 $186 $295 forward $117 $-1 #
coedge $-1 $188 $188 $118 $189 forward $183 $-1 #
edge $-1 $296 0 $296 6.2831853071796004 $188 $297 forward 7 unknown #
face $-1 $298 $299 $40 $-1 $300 forward single #
loop $-1 $-1 $301 $119 #
plane-surface $-1 -92.894727543719085 3.2581424748237606 65.706534759583576 0 -1 0 0.61566148304635926 0 -0.78801074757464917 forward_v I I I I #
coedge $-1 $302 $303 $304 $305 reversed $120 $-1 #
coedge $-1 $195 $122 $306 $307 reversed $77 $-1 #
coedge $-1 $122 $194 $302 $308 reversed $77 $-1 #
coedge $-1 $304 $309 $122 $197 forward $299 $-1 #
edge $-1 $310 4.8152338850832095 $311 14.196367333842723 $196 $312 forward 7 unknown #
loop $-1 $-1 $203 $123 #
plane-surface $-1 -41.63212988677634 0 0.093403169176554002 -0.61566148304635926 0 0.78801074757464917 0.78801074757464917 0 0.61566148304635926 forward_v I I I I #
loop $-1 $-1 $313 $79 #
coedge $-1 $201 $201 $202 $314 reversed $124 $-1 #
coedge $-1 $202 $202 $201 $314 forward $126 $-1 #
coedge $-1 $203 $203 $127 $204 forward $198 $-1 #
edge $-1 $315 0 $315 6.2831853071796004 $203 $316 forward 7 unknown #
face $-1 $317 $318 $42 $-1 $319 forward single #
loop $-1 $-1 $320 $128 #
plane-surface $-1 -92.894727543719085 12.832996417977249 65.706534759583576 0 -1 0 0.61566148304635926 0 -0.78801074757464917 forward_v I I I I #
coedge $-1 $321 $322 $323 $324 reversed $129 $-1 #
coedge $-1 $210 $131 $325 $326 reversed $83 $-1 #
coedge $-1 $131 $209 $321 $327 reversed $83 $-1 #
coedge $-1 $323 $328 $131 $212 forward $318 $-1 #
edge $-1 $329 4.8152338850832095 $330 14.196367333842723 $211 $331 forward 7 unknown #
loop $-1 $-1 $218 $132 #
plane-surface $-1 -41.63212988677634 9.5748539431534887 0.093403169176554002 -0.61566148304635926 0 0.78801074757464917 0.78801074757464917 0 0.61566148304635926 forward_v I I I I #
loop $-1 $-1 $332 $85 #
coedge $-1 $216 $216 $217 $333 reversed $133 $-1 #
coedge $-1 $217 $217 $216 $333 forward $135 $-1 #
coedge $-1 $218 $218 $136 $219 forward $213 $-1 #
edge $-1 $334 0 $334 6.2831853071796004 $218 $335 forward 7 unknown #
face $-1 $336 $337 $33 $-1 $338 reversed single #
loop $-1 $-1 $339 $137 #
plane-surface $-1 -41.632129886776333 0 0 1 0 0 0 0 -1 forward_v I I I I #
coedge $-1 $340 $231 $341 $342 forward $138 $-1 #
coedge $-1 $343 $140 $340 $344 forward $89 $-1 #
coedge $-1 $140 $343 $345 $346 forward $89 $-1 #
coedge $-1 $234 $233 $140 $227 reversed $235 $-1 #
edge $-1 $347 -18.950134404989178 $348 18.950134404989178 $226 $349 forward 7 unknown #
coedge $-1 $142 $141 $350 $351 forward $56 $-1 #
coedge $-1 $352 $353 $141 $230 reversed $337 $-1 #
edge $-1 $237 -41.632129886776333 $354 41.632129886776333 $229 $355 forward 7 unknown #
coedge $-1 $223 $356 $142 $232 reversed $138 $-1 #
edge $-1 $357 -41.632129886776333 $236 41.632129886776333 $231 $358 forward 7 unknown #
coedge $-1 $226 $143 $356 $359 forward $235 $-1 #
coedge $-1 $143 $226 $352 $360 reversed $235 $-1 #
loop $-1 $-1 $233 $336 #
vertex $-1 $144 $361 #
vertex $-1 $144 $362 #
straight-curve $-1 41.632129886776333 0 7.4227480410521292 0 1 0 I I #
face $-1 $-1 $363 $34 $-1 $364 reversed single #
loop $-1 $-1 $151 $145 #
plane-surface $-1 0 0 7.4227480410521292 0 0 1 1 0 0 forward_v I I I I #
coedge $-1 $365 $366 $367 $368 reversed $146 $-1 #
coedge $-1 $369 $148 $150 $249 forward $93 $-1 #
coedge $-1 $148 $369 $365 $370 forward $93 $-1 #
coedge $-1 $367 $151 $148 $246 forward $240 $-1 #
edge $-1 $252 -1.114245573044033 $371 8.3152184647704637 $245 $372 forward 7 unknown #
coedge $-1 $373 $374 $149 $248 forward $363 $-1 #
edge $-1 $375 -58.166615674395175 $251 -52.164081717267408 $247 $376 forward 7 unknown #
edge $-1 $252 74.775394941270051 $375 83.264259773552695 $150 $377 forward 7 unknown #
coedge $-1 $151 $367 $373 $378 forward $240 $-1 #
vertex $-1 $248 $379 #
vertex $-1 $152 $380 #
straight-curve $-1 20.816065626508379 -2.4862408728191818 7.4227480410521309 -1 0 0 I I #
coedge $-1 $254 $254 $-1 $381 reversed $155 $-1 #
edge $-1 $382 0 $382 6.2831853071796004 $156 $383 forward 7 unknown #
vertex $-1 $159 $384 #
ellipse-curve $-1 38.63086297785717 -7.2009728917264297 4.4214810624882457 0.70710678939079041 0 0.70710677298230451 1.0606601594734568 0 -1.0606601840861856 1 I I #
face $-1 $-1 $270 $36 $-1 $385 forward single #
loop $-1 $-1 $386 $160 #
plane-surface $-1 41.632129886776333 0 0 -1 0 0 0 0 1 forward_v I I I I #
coedge $-1 $387 $388 $389 $390 reversed $161 $-1 #
coedge $-1 $391 $163 $165 $268 forward $102 $-1 #
coedge $-1 $163 $391 $387 $392 forward $102 $-1 #
coedge $-1 $389 $166 $163 $265 forward $270 $-1 #
edge $-1 $272 -10.589312775538623 $393 -1.1598487377241264 $264 $394 forward 7 unknown #
coedge $-1 $395 $396 $164 $267 forward $259 $-1 #
edge $-1 $397 -58.166615674395175 $271 -52.164081717267408 $266 $398 forward 7 unknown #
edge $-1 $272 74.775394941270051 $397 83.264259773552695 $165 $399 forward 7 unknown #
coedge $-1 $166 $389 $395 $400 forward $270 $-1 #
loop $-1 $-1 $389 $258 #
vertex $-1 $267 $401 #
vertex $-1 $167 $402 #
straight-curve $-1 20.816065626508379 16.463893532169998 7.4227480410521309 -1 0 0 I I #
coedge $-1 $274 $274 $-1 $403 reversed $170 $-1 #
edge $-1 $404 0 $404 6.2831853071796004 $171 $405 forward 7 unknown #
vertex $-1 $174 $406 #
ellipse-curve $-1 38.63086297785717 11.749161513262749 4.4214810624882457 0.70710678939079041 0 0.70710677298230451 1.0606601594734568 0 -1.0606601840861856 1 I I #
face $-1 $-1 $290 $38 $-1 $407 forward single #
loop $-1 $-1 $408 $175 #
plane-surface $-1 -41.632129886776333 0 0 1 0 0 0 0 -1 forward_v I I I I #
coedge $-1 $409 $410 $411 $412 reversed $176 $-1 #
coedge $-1 $413 $178 $180 $288 forward $111 $-1 #
coedge $-1 $178 $413 $409 $414 forward $111 $-1 #
coedge $-1 $411 $181 $178 $285 forward $290 $-1 #
edge $-1 $292 -8.0455694464005028 $415 -1.5292844967529833 $284 $416 forward 7 unknown #
coedge $-1 $417 $418 $179 $287 forward $279 $-1 #
edge $-1 $419 -32.759864210615227 $291 -25.430519338739657 $286 $420 forward 7 unknown #
edge $-1 $292 -11.90482931563168 $419 -9.0167608931652224e-015 $180 $421 forward 7 unknown #
coedge $-1 $181 $411 $417 $422 forward $290 $-1 #
loop $-1 $-1 $411 $278 #
vertex $-1 $287 $423 #
vertex $-1 $182 $424 #
straight-curve $-1 -46.447363771859543 -12.832996417977247 7.4227480410521309 1 0 0 I I #
coedge $-1 $294 $294 $-1 $425 reversed $185 $-1 #
edge $-1 $426 0 $426 6.2831853071796004 $186 $427 forward 7 unknown #
vertex $-1 $189 $428 #
ellipse-curve $-1 -36.941563162396577 -9.5748539431534869 3.7580756051143442 -0.61566148304635926 0 0.78801074757464917 1.1820161213619738 0 0.92349222456953894 1 I I #
face $-1 $-1 $429 $40 $-1 $430 reversed single #
loop $-1 $-1 $196 $190 #
plane-surface $-1 0 0 7.4227480410521292 0 0 1 1 0 0 forward_v I I I I #
coedge $-1 $431 $432 $433 $434 reversed $191 $-1 #
coedge $-1 $435 $193 $195 $308 forward $120 $-1 #
coedge $-1 $193 $435 $431 $436 forward $120 $-1 #
coedge $-1 $433 $196 $193 $305 forward $299 $-1 #
edge $-1 $311 -3.2581424748237606 $437 3.2581424748237606 $304 $438 forward 7 unknown #
coedge $-1 $439 $440 $194 $307 forward $429 $-1 #
edge $-1 $441 -32.759864210615227 $310 -25.430519338739657 $306 $442 forward 7 unknown #
edge $-1 $311 -11.90482931563168 $441 -9.0167608931652224e-015 $195 $443 forward 7 unknown #
coedge $-1 $196 $433 $439 $444 forward $299 $-1 #
vertex $-1 $197 $445 #
vertex $-1 $197 $446 #
straight-curve $-1 -46.447363771859543 -3.2581424748237606 7.4227480410521309 1 0 0 I I #
coedge $-1 $313 $313 $-1 $447 reversed $200 $-1 #
edge $-1 $448 0 $448 6.2831853071796004 $201 $449 forward 7 unknown #
vertex $-1 $204 $450 #
ellipse-curve $-1 -36.941563162396577 0 3.7580756051143442 -0.61566148304635926 0 0.78801074757464917 1.1820161213619738 0 0.92349222456953894 1 I I #
face $-1 $-1 $451 $42 $-1 $452 reversed single #
loop $-1 $-1 $211 $205 #
plane-surface $-1 0 0 7.4227480410521292 0 0 1 1 0 0 forward_v I I I I #
coedge $-1 $453 $454 $455 $456 reversed $206 $-1 #
coedge $-1 $457 $208 $210 $327 forward $129 $-1 #
coedge $-1 $208 $457 $453 $458 forward $129 $-1 #
coedge $-1 $455 $211 $208 $324 forward $318 $-1 #
edge $-1 $330 1.5292844967529842 $459 8.0455694464005045 $323 $460 forward 7 unknown #
coedge $-1 $461 $462 $209 $326 forward $451 $-1 #
edge $-1 $463 -32.759864210615227 $329 -25.430519338739657 $325 $464 forward 7 unknown #
edge $-1 $330 -11.90482931563168 $463 -9.0167608931652224e-015 $210 $465 forward 7 unknown #
coedge $-1 $211 $455 $461 $466 forward $318 $-1 #
vertex $-1 $212 $467 #
vertex $-1 $212 $468 #
straight-curve $-1 -46.447363771859543 6.3167114683297285 7.4227480410521309 1 0 0 I I #
coedge $-1 $332 $332 $-1 $469 reversed $215 $-1 #
edge $-1 $470 0 $470 6.2831853071796004 $216 $471 forward 7 unknown #
vertex $-1 $219 $472 #
ellipse-curve $-1 -36.941563162396577 9.5748539431534887 3.7580756051143442 -0.61566148304635926 0 0.78801074757464917 1.1820161213619738 0 0.92349222456953894 1 I I #
face $-1 $-1 $235 $33 $-1 $473 reversed single #
loop $-1 $-1 $352 $220 #
plane-surface $-1 0 18.950134404989178 0 0 -1 0 0 0 -1 forward_v I I I I #
coedge $-1 $474 $350 $353 $475 forward $221 $-1 #
coedge $-1 $356 $223 $224 $344 reversed $138 $-1 #
coedge $-1 $350 $474 $223 $342 reversed $221 $-1 #
edge $-1 $357 -7.4227480410521292 $476 7.4227480410521292 $341 $477 forward 7 unknown #
coedge $-1 $225 $224 $474 $478 forward $89 $-1 #
edge $-1 $348 -41.632129886776333 $476 41.632129886776333 $340 $479 forward 7 unknown #
coedge $-1 $353 $352 $225 $346 reversed $337 $-1 #
edge $-1 $480 -41.632129886776333 $347 41.632129886776333 $345 $481 forward 7 unknown #
vertex $-1 $227 $482 #
vertex $-1 $359 $483 #
straight-curve $-1 41.632129886776333 0 -7.4227480410521292 0 -1 0 I I #
coedge $-1 $339 $341 $228 $351 reversed $221 $-1 #
edge $-1 $354 -18.950134404989178 $357 18.950134404989178 $350 $484 forward 7 unknown #
coedge $-1 $345 $229 $234 $360 forward $337 $-1 #
coedge $-1 $229 $345 $339 $475 reversed $337 $-1 #
vertex $-1 $230 $485 #
straight-curve $-1 0 18.950134404989178 7.4227480410521292 -1 0 0 I I #
coedge $-1 $231 $340 $233 $359 reversed $138 $-1 #
vertex $-1 $351 $486 #
straight-curve $-1 0 -18.950134404989178 7.4227480410521292 1 0 0 I I #
edge $-1 $236 -7.4227480410521292 $348 7.4227480410521292 $233 $487 forward 7 unknown #
edge $-1 $237 -7.4227480410521292 $347 7.4227480410521292 $234 $488 forward 7 unknown #
point $-1 41.632129886776333 -18.950134404989178 7.4227480410521292 #
point $-1 41.632129886776333 18.950134404989178 7.4227480410521292 #
loop $-1 $-1 $247 $239 #
plane-surface $-1 41.632129886776333 0 0 -1 0 0 0 0 1 forward_v I I I I #
coedge $-1 $366 $242 $244 $370 reversed $146 $-1 #
coedge $-1 $242 $365 $489 $490 reversed $146 $-1 #
coedge $-1 $250 $245 $242 $368 forward $240 $-1 #
edge $-1 $371 14.813530442429599 $491 20.816064260267954 $367 $492 forward 7 unknown #
coedge $-1 $244 $243 $374 $493 reversed $93 $-1 #
edge $-1 $494 -83.264259773552695 $371 -74.775394941270051 $365 $495 forward 7 unknown #
vertex $-1 $246 $496 #
straight-curve $-1 35.629596068937992 -3.6004864458632149 7.4227480410521238 0 -1 0 I I #
coedge $-1 $489 $247 $250 $378 reversed $363 $-1 #
coedge $-1 $247 $489 $369 $493 forward $363 $-1 #
vertex $-1 $248 $497 #
straight-curve $-1 41.632129886776333 -2.4862408728191818 59.586829758319539 0 0 1 I I #
straight-curve $-1 -17.244592146460811 -2.4862408728191818 60.29693748340194 0.70710677298230451 0 -0.70710678939079041 I I #
edge $-1 $491 -11.915704910633679 $251 -2.4862408728191818 $373 $498 forward 7 unknown #
point $-1 41.632129886776333 -2.4862408728191818 7.4227480410521292 #
point $-1 35.629596068937978 -2.4862408728191818 7.422748041052138 #
edge $-1 $499 1 $499 0 $254 $-1 forward 7 unknown #
vertex $-1 $255 $500 #
ellipse-curve $-1 36.398676154699757 -7.2009728917264297 2.1892942911289541 0.70710678939079041 0 0.70710677298230451 1.0606601594734568 0 -1.0606601840861856 1 I I #
point $-1 39.691523137330634 -7.2009728917264297 3.3608208784020661 #
plane-surface $-1 0 0 7.4227480410521292 0 0 1 1 0 0 forward_v I I I I #
coedge $-1 $396 $395 $388 $501 forward $259 $-1 #
coedge $-1 $388 $261 $263 $392 reversed $161 $-1 #
coedge $-1 $261 $387 $386 $501 reversed $161 $-1 #
coedge $-1 $269 $264 $261 $390 forward $270 $-1 #
edge $-1 $393 14.813530442429599 $502 20.816064260267954 $389 $503 forward 7 unknown #
coedge $-1 $263 $262 $396 $504 reversed $102 $-1 #
edge $-1 $505 -83.264259773552695 $393 -74.775394941270051 $387 $506 forward 7 unknown #
vertex $-1 $265 $507 #
straight-curve $-1 35.629596068937992 5.8745807566313744 7.4227480410521238 0 -1 0 I I #
coedge $-1 $386 $266 $269 $400 reversed $259 $-1 #
coedge $-1 $266 $386 $391 $504 forward $259 $-1 #
vertex $-1 $267 $508 #
straight-curve $-1 41.632129886776333 16.463893532169998 59.586829758319539 0 0 1 I I #
straight-curve $-1 -17.244592146460811 16.463893532169998 60.29693748340194 0.70710677298230451 0 -0.70710678939079041 I I #
edge $-1 $502 7.0344294943555008 $271 16.463893532169998 $395 $509 forward 7 unknown #
point $-1 41.632129886776333 16.463893532169998 7.4227480410521292 #
point $-1 35.629596068937978 16.463893532169998 7.422748041052138 #
edge $-1 $510 1 $510 0 $274 $-1 forward 7 unknown #
vertex $-1 $275 $511 #
ellipse-curve $-1 36.398676154699757 11.749161513262749 2.1892942911289541 0.70710678939079041 0 0.70710677298230451 1.0606601594734568 0 -1.0606601840861856 1 I I #
point $-1 39.691523137330634 11.749161513262749 3.3608208784020661 #
plane-surface $-1 0 0 7.4227480410521292 0 0 1 1 0 0 forward_v I I I I #
coedge $-1 $418 $417 $410 $512 forward $279 $-1 #
coedge $-1 $410 $281 $283 $414 reversed $176 $-1 #
coedge $-1 $281 $409 $408 $512 reversed $176 $-1 #
coedge $-1 $289 $284 $281 $412 forward $290 $-1 #
edge $-1 $415 -14.196367333842723 $513 -4.8152338850832095 $411 $514 forward 7 unknown #
coedge $-1 $283 $282 $418 $515 reversed $111 $-1 #
edge $-1 $516 9.0167608931652224e-015 $415 11.90482931563168 $409 $517 forward 7 unknown #
vertex $-1 $285 $518 #
straight-curve $-1 -32.25099643801682 -4.7874269715767435 7.4227480410521292 0 1 0 I I #
coedge $-1 $408 $286 $289 $422 reversed $279 $-1 #
coedge $-1 $286 $408 $413 $515 forward $279 $-1 #
vertex $-1 $287 $519 #
straight-curve $-1 -41.632129886776333 -12.832996417977247 32.853267379791788 0 0 1 I I #
straight-curve $-1 -41.63212988677634 -12.832996417977247 0.093403169176554002 -0.78801074757464917 0 -0.61566148304635926 I I #
edge $-1 $513 6.3167114683297267 $291 12.832996417977247 $417 $520 forward 7 unknown #
point $-1 -41.632129886776333 -12.832996417977247 7.4227480410521292 #
point $-1 -32.25099643801682 -12.832996417977247 7.4227480410521292 #
edge $-1 $521 1 $521 0 $294 $-1 forward 7 unknown #
vertex $-1 $295 $522 #
ellipse-curve $-1 -34.683436265916562 -9.5748539431534869 0.86780503790452368 -0.61566148304635926 0 0.78801074757464917 1.1820161213619738 0 0.92349222456953894 1 I I #
point $-1 -35.759547041034601 -9.5748539431534869 4.6815678296838783 #
loop $-1 $-1 $306 $298 #
plane-surface $-1 -41.632129886776333 0 0 1 0 0 0 0 -1 forward_v I I I I #
coedge $-1 $432 $301 $303 $436 reversed $191 $-1 #
coedge $-1 $301 $431 $523 $524 reversed $191 $-1 #
coedge $-1 $309 $304 $301 $434 forward $299 $-1 #
edge $-1 $437 -14.196367333842723 $525 -4.8152338850832095 $433 $526 forward 7 unknown #
coedge $-1 $303 $302 $440 $527 reversed $120 $-1 #
edge $-1 $528 9.0167608931652224e-015 $437 11.90482931563168 $431 $529 forward 7 unknown #
vertex $-1 $305 $530 #
straight-curve $-1 -32.25099643801682 0 7.4227480410521292 0 1 0 I I #
coedge $-1 $523 $306 $309 $444 reversed $429 $-1 #
coedge $-1 $306 $523 $435 $527 forward $429 $-1 #
vertex $-1 $307 $531 #
straight-curve $-1 -41.632129886776333 -3.2581424748237606 32.853267379791788 0 0 1 I I #
straight-curve $-1 -41.63212988677634 -3.2581424748237606 0.093403169176554002 -0.78801074757464917 0 -0.61566148304635926 I I #
edge $-1 $525 -3.2581424748237606 $310 3.2581424748237606 $439 $532 forward 7 unknown #
point $-1 -41.632129886776333 -3.2581424748237606 7.4227480410521292 #
point $-1 -32.25099643801682 -3.2581424748237606 7.4227480410521292 #
edge $-1 $533 1 $533 0 $313 $-1 forward 7 unknown #
vertex $-1 $314 $534 #
ellipse-curve $-1 -34.683436265916562 0 0.86780503790452368 -0.61566148304635926 0 0.78801074757464917 1.1820161213619738 0 0.92349222456953894 1 I I #
point $-1 -35.759547041034601 0 4.6815678296838783 #
loop $-1 $-1 $325 $317 #
plane-surface $-1 -41.632129886776333 0 0 1 0 0 0 0 -1 forward_v I I I I #
coedge $-1 $454 $320 $322 $458 reversed $206 $-1 #
coedge $-1 $320 $453 $535 $536 reversed $206 $-1 #
coedge $-1 $328 $323 $320 $456 forward $318 $-1 #
edge $-1 $459 -14.196367333842723 $537 -4.8152338850832095 $455 $538 forward 7 unknown #
coedge $-1 $322 $321 $462 $539 reversed $129 $-1 #
edge $-1 $540 9.0167608931652224e-015 $459 11.90482931563168 $453 $541 forward 7 unknown #
vertex $-1 $324 $542 #
straight-curve $-1 -32.25099643801682 4.7874269715767444 7.4227480410521292 0 1 0 I I #
coedge $-1 $535 $325 $328 $466 reversed $451 $-1 #
coedge $-1 $325 $535 $457 $539 forward $451 $-1 #
vertex $-1 $326 $543 #
straight-curve $-1 -41.632129886776333 6.3167114683297285 32.853267379791788 0 0 1 I I #
straight-curve $-1 -41.63212988677634 6.3167114683297285 0.093403169176554002 -0.78801074757464917 0 -0.61566148304635926 I I #
edge $-1 $537 -12.832996417977249 $329 -6.3167114683297285 $461 $544 forward 7 unknown #
point $-1 -41.632129886776333 6.3167114683297285 7.4227480410521292 #
point $-1 -32.25099643801682 6.3167114683297285 7.4227480410521292 #
edge $-1 $545 1 $545 0 $332 $-1 forward 7 unknown #
vertex $-1 $333 $546 #
ellipse-curve $-1 -34.683436265916562 9.5748539431534887 0.86780503790452368 -0.61566148304635926 0 0.78801074757464917 1.1820161213619738 0 0.92349222456953894 1 I I #
point $-1 -35.759547041034601 9.5748539431534887 4.6815678296838783 #
plane-surface $-1 41.632129886776333 0 0 -1 0 0 0 0 1 forward_v I I I I #
coedge $-1 $341 $339 $343 $478 reversed $221 $-1 #
edge $-1 $354 -7.4227480410521292 $480 7.4227480410521292 $353 $547 forward 7 unknown #
vertex $-1 $478 $548 #
straight-curve $-1 -41.632129886776333 -18.950134404989178 0 0 0 -1 I I #
edge $-1 $476 -18.950134404989178 $480 18.950134404989178 $474 $549 forward 7 unknown #
straight-curve $-1 0 -18.950134404989178 -7.4227480410521292 -1 0 0 I I #
vertex $-1 $346 $550 #
straight-curve $-1 0 18.950134404989178 -7.4227480410521292 1 0 0 I I #
point $-1 41.632129886776333 18.950134404989178 -7.4227480410521292 #
point $-1 41.632129886776333 -18.950134404989178 -7.4227480410521292 #
straight-curve $-1 -41.632129886776333 0 7.4227480410521292 0 -1 0 I I #
point $-1 -41.632129886776333 18.950134404989178 7.4227480410521292 #
point $-1 -41.632129886776333 -18.950134404989178 7.4227480410521292 #
straight-curve $-1 41.632129886776333 -18.950134404989178 0 0 0 -1 I I #
straight-curve $-1 41.632129886776333 18.950134404989178 0 0 0 -1 I I #
coedge $-1 $374 $373 $366 $490 forward $363 $-1 #
edge $-1 $491 52.164081717267408 $494 58.166615674395175 $489 $551 forward 7 unknown #
vertex $-1 $378 $552 #
straight-curve $-1 20.816065626508379 -11.915704910633679 7.4227480410521309 1 0 0 I I #
edge $-1 $494 -8.3152184647704637 $375 1.114245573044033 $374 $553 forward 7 unknown #
vertex $-1 $493 $554 #
straight-curve $-1 -17.244592146460811 -11.915704910633679 60.29693748340194 -0.70710677298230451 0 0.70710678939079041 I I #
point $-1 35.629596068937978 -11.915704910633679 7.422748041052138 #
point $-1 41.632129886776333 -2.4862408728191818 1.420214083924364 #
straight-curve $-1 41.632129886776333 0 7.4227480410521292 0 1 0 I I #
vertex $-1 $381 $555 #
point $-1 37.459336314173214 -7.2009728917264297 1.1286341070427683 #
edge $-1 $502 52.164081717267408 $505 58.166615674395175 $386 $556 forward 7 unknown #
vertex $-1 $400 $557 #
straight-curve $-1 20.816065626508379 7.0344294943555008 7.4227480410521309 1 0 0 I I #
edge $-1 $505 1.1598487377241264 $397 10.589312775538623 $396 $558 forward 7 unknown #
vertex $-1 $504 $559 #
straight-curve $-1 -17.244592146460811 7.0344294943555008 60.29693748340194 -0.70710677298230451 0 0.70710678939079041 I I #
point $-1 35.629596068937978 7.0344294943555008 7.422748041052138 #
point $-1 41.632129886776333 16.463893532169998 1.420214083924364 #
straight-curve $-1 41.632129886776333 0 7.4227480410521292 0 1 0 I I #
vertex $-1 $403 $560 #
point $-1 37.459336314173214 11.749161513262749 1.1286341070427683 #
edge $-1 $513 25.430519338739657 $516 32.759864210615227 $408 $561 forward 7 unknown #
vertex $-1 $422 $562 #
straight-curve $-1 -46.447363771859543 -6.3167114683297267 7.4227480410521309 -1 0 0 I I #
edge $-1 $516 1.5292844967529833 $419 8.0455694464005028 $418 $563 forward 7 unknown #
vertex $-1 $515 $564 #
straight-curve $-1 -41.63212988677634 -6.3167114683297267 0.093403169176554002 0.78801074757464917 0 0.61566148304635926 I I #
point $-1 -32.25099643801682 -6.3167114683297267 7.4227480410521292 #
point $-1 -41.632129886776333 -12.832996417977247 0.093403169176559553 #
straight-curve $-1 -41.632129886776333 0 7.4227480410521292 0 -1 0 I I #
vertex $-1 $425 $565 #
point $-1 -33.501420144554586 -9.5748539431534869 1.7912972624740626 #
coedge $-1 $440 $439 $432 $524 forward $429 $-1 #
edge $-1 $525 25.430519338739657 $528 32.759864210615227 $523 $566 forward 7 unknown #
vertex $-1 $444 $567 #
straight-curve $-1 -46.447363771859543 3.2581424748237606 7.4227480410521309 -1 0 0 I I #
edge $-1 $528 -3.2581424748237606 $441 3.2581424748237606 $440 $568 forward 7 unknown #
vertex $-1 $527 $569 #
straight-curve $-1 -41.63212988677634 3.2581424748237606 0.093403169176554002 0.78801074757464917 0 0.61566148304635926 I I #
point $-1 -32.25099643801682 3.2581424748237606 7.4227480410521292 #
point $-1 -41.632129886776333 -3.2581424748237606 0.093403169176559553 #
straight-curve $-1 -41.632129886776333 0 7.4227480410521292 0 -1 0 I I #
vertex $-1 $447 $570 #
point $-1 -33.501420144554586 0 1.7912972624740626 #
coedge $-1 $462 $461 $454 $536 forward $451 $-1 #
edge $-1 $537 25.430519338739657 $540 32.759864210615227 $535 $571 forward 7 unknown #
vertex $-1 $466 $572 #
straight-curve $-1 -46.447363771859543 12.832996417977249 7.4227480410521309 -1 0 0 I I #
edge $-1 $540 -8.0455694464005045 $463 -1.5292844967529842 $462 $573 forward 7 unknown #
vertex $-1 $539 $574 #
straight-curve $-1 -41.63212988677634 12.832996417977249 0.093403169176554002 0.78801074757464917 0 0.61566148304635926 I I #
point $-1 -32.25099643801682 12.832996417977249 7.4227480410521292 #
point $-1 -41.632129886776333 6.3167114683297285 0.093403169176559553 #
straight-curve $-1 -41.632129886776333 0 7.4227480410521292 0 -1 0 I I #
vertex $-1 $469 $575 #
point $-1 -33.501420144554586 9.5748539431534887 1.7912972624740626 #
straight-curve $-1 -41.632129886776333 18.950134404989178 0 0 0 -1 I I #
point $-1 -41.632129886776333 -18.950134404989178 -7.4227480410521292 #
straight-curve $-1 -41.632129886776333 0 -7.4227480410521292 0 1 0 I I #
point $-1 -41.632129886776333 18.950134404989178 -7.4227480410521292 #
straight-curve $-1 41.632129886776333 -11.915704910633679 59.586829758319539 0 0 -1 I I #
point $-1 41.632129886776333 -11.915704910633679 7.4227480410521292 #
straight-curve $-1 41.632129886776333 -3.6004864458632149 1.4202140839243604 0 1 0 I I #
point $-1 41.632129886776333 -11.915704910633679 1.420214083924364 #
point $-1 35.338015970613569 -7.2009728917264297 1.1286341316554971 #
straight-curve $-1 41.632129886776333 7.0344294943555008 59.586829758319539 0 0 -1 I I #
point $-1 41.632129886776333 7.0344294943555008 7.4227480410521292 #
straight-curve $-1 41.632129886776333 5.8745807566313744 1.4202140839243604 0 1 0 I I #
point $-1 41.632129886776333 7.0344294943555008 1.420214083924364 #
point $-1 35.338015970613569 11.749161513262749 1.1286341316554971 #
straight-curve $-1 -41.632129886776333 -6.3167114683297267 32.853267379791788 0 0 -1 I I #
point $-1 -41.632129886776333 -6.3167114683297267 7.4227480410521292 #
straight-curve $-1 -41.632129886776333 -4.7874269715767435 0.093403169176562578 0 -1 0 I I #
point $-1 -41.632129886776333 -6.3167114683297267 0.093403169176559553 #
point $-1 -33.759944041347019 -9.5748539431534869 -0.31421108345745008 #
straight-curve $-1 -41.632129886776333 3.2581424748237606 32.853267379791788 0 0 -1 I I #
point $-1 -41.632129886776333 3.2581424748237606 7.4227480410521292 #
straight-curve $-1 -41.632129886776333 0 0.093403169176562578 0 -1 0 I I #
point $-1 -41.632129886776333 3.2581424748237606 0.093403169176559553 #
point $-1 -33.759944041347019 0 -0.31421108345745008 #
straight-curve $-1 -41.632129886776333 12.832996417977249 32.853267379791788 0 0 -1 I I #
point $-1 -41.632129886776333 12.832996417977249 7.4227480410521292 #
straight-curve $-1 -41.632129886776333 4.7874269715767444 0.093403169176562578 0 -1 0 I I #
point $-1 -41.632129886776333 12.832996417977249 0.093403169176559553 #
point $-1 -33.759944041347019 9.5748539431534887 -0.31421108345745008 #
End-of-ACIS-data 