500 0 8 0           
7 Unknown 11 ACIS 5.0 NT 24 Fri Mar 26 15:50:30 1999 
-1 9.9999999999999995e-007 1e-010 
body $-1 $8 $-1 $9 #
body $-1 $10 $-1 $11 #
body $-1 $12 $-1 $13 #
body $-1 $14 $-1 $15 #
body $-1 $16 $-1 $17 #
body $-1 $18 $-1 $19 #
body $-1 $20 $-1 $21 #
body $-1 $22 $-1 $23 #
lump $-1 $-1 $24 $0 #
transform $-1 1 0 0 0 1 0 0 0 1 51.713003936887723 27.038576615153325 5.9189125096235022 1 rotate no_reflect no_shear #
lump $-1 $-1 $25 $1 #
transform $-1 1 0 0 0 1 0 0 0 1 51.713003936887723 27.038576615153325 5.9189125096235022 1 rotate no_reflect no_shear #
lump $-1 $-1 $26 $2 #
transform $-1 1 0 0 0 1 0 0 0 1 51.713003936887723 27.038576615153325 5.9189125096235022 1 rotate no_reflect no_shear #
lump $-1 $-1 $27 $3 #
transform $-1 1 0 0 0 1 0 0 0 1 51.713003936887723 27.038576615153325 5.9189125096235022 1 rotate no_reflect no_shear #
lump $-1 $-1 $28 $4 #
transform $-1 1 0 0 0 1 0 0 0 1 51.713003936887723 27.038576615153325 5.9189125096235022 1 rotate no_reflect no_shear #
lump $-1 $-1 $29 $5 #
transform $-1 1 0 0 0 1 0 0 0 1 51.713003936887723 27.038576615153325 5.9189125096235022 1 rotate no_reflect no_shear #
lump $-1 $-1 $30 $6 #
transform $-1 1 0 0 0 1 0 0 0 1 51.713003936887723 27.038576615153325 5.9189125096235022 1 rotate no_reflect no_shear #
lump $-1 $-1 $31 $7 #
transform $-1 1 0 0 0 1 0 0 0 1 51.713003936887723 27.038576615153325 5.9189125096235022 1 rotate no_reflect no_shear #
shell $-1 $-1 $-1 $32 $-1 $8 #
shell $-1 $-1 $-1 $33 $-1 $10 #
shell $-1 $-1 $-1 $34 $-1 $12 #
shell $-1 $-1 $-1 $35 $-1 $14 #
shell $-1 $-1 $-1 $36 $-1 $16 #
shell $-1 $-1 $-1 $37 $-1 $18 #
shell $-1 $-1 $-1 $38 $-1 $20 #
shell $-1 $-1 $-1 $39 $-1 $22 #
face $-1 $40 $41 $24 $-1 $42 forward single #
face $-1 $43 $44 $25 $-1 $45 reversed single #
face $-1 $46 $47 $26 $-1 $48 reversed single #
face $-1 $49 $50 $27 $-1 $51 reversed single #
face $-1 $52 $53 $28 $-1 $54 forward single #
face $-1 $55 $56 $29 $-1 $57 forward single #
face $-1 $58 $59 $30 $-1 $60 reversed single #
face $-1 $61 $62 $31 $-1 $63 forward single #
face $-1 $64 $65 $24 $-1 $66 reversed single #
loop $-1 $-1 $67 $32 #
plane-surface $-1 0 0 5.9189125096235022 0 0 1 1 0 0 forward_v I I I I #
face $-1 $68 $69 $25 $-1 $70 reversed single #
loop $-1 $-1 $71 $33 #
plane-surface $-1 -46.528229305551775 -24.737630311018549 0 1 0 0 0 0 -1 forward_v I I I I #
face $-1 $72 $73 $26 $-1 $74 reversed single #
loop $-1 $-1 $75 $34 #
plane-surface $-1 -45.028229305551775 22.436684006883773 0 0 1 0 0 0 1 forward_v I I I I #
face $-1 $76 $77 $27 $-1 $78 reversed single #
loop $-1 $-1 $79 $35 #
plane-surface $-1 -135.3864028135439 -12.747335159085313 61.82677698324941 0 1 0 -0.80901700255871778 0 0.5877852410284794 forward_v I I I I #
face $-1 $80 $81 $28 $-1 $82 forward single #
loop $-1 $83 $84 $36 #
cone-surface $-1 -48.406035378849346 -9.6596457537133453 2.3632048855023022 0.80901700255871778 0 -0.5877852410284794 0.8816778615427191 0 1.2135255038380768 1 I I 0 1 1.5 forward I I I I #
face $-1 $85 $86 $29 $-1 $87 forward single #
loop $-1 $88 $89 $37 #
cone-surface $-1 -48.406035378849346 -5.0281116456553931 2.3632048855023022 0.80901700255871778 0 -0.5877852410284794 0.8816778615427191 0 1.2135255038380768 1 I I 0 1 1.5 forward I I I I #
face $-1 $90 $91 $30 $-1 $92 reversed single #
loop $-1 $-1 $93 $38 #
plane-surface $-1 77.111910739762834 6.8275998896583801 146.12999659827523 0 -1 0 -0.81915205242281985 0 -0.57357642473473569 forward_v I I I I #
face $-1 $94 $95 $31 $-1 $96 forward single #
loop $-1 $97 $98 $39 #
cone-surface $-1 49.909589803496644 1.3972713569004789 3.6792233859868895 -0.81915205242281985 0 -0.57357642473473569 0.28678821236736785 0 -0.40957602621140993 1 I I 0 1 0.5 forward I I I I #
face $-1 $99 $100 $24 $-1 $101 reversed single #
loop $-1 $-1 $102 $40 #
plane-surface $-1 0 0 -5.9189125096235022 0 0 1 1 0 0 forward_v I I I I #
coedge $-1 $103 $104 $105 $106 forward $41 $-1 #
face $-1 $107 $108 $25 $-1 $109 reversed single #
loop $-1 $-1 $110 $43 #
plane-surface $-1 -45.028229305551775 -22.436684006883773 0 0 -1 0 0 0 -1 forward_v I I I I #
coedge $-1 $111 $112 $113 $114 forward $44 $-1 #
face $-1 $115 $116 $26 $-1 $117 reversed single #
loop $-1 $-1 $118 $46 #
plane-surface $-1 -46.528229305551775 24.737630311018549 0 1 0 0 0 0 -1 forward_v I I I I #
coedge $-1 $119 $120 $121 $122 forward $47 $-1 #
face $-1 $123 $124 $27 $-1 $125 reversed single #
loop $-1 $-1 $126 $49 #
plane-surface $-1 -51.713003936887745 -7.3438786996843675 1.0344960165488999 -0.80901700255871778 0 0.5877852410284794 0.5877852410284794 0 0.80901700255871778 forward_v I I I I #
coedge $-1 $127 $128 $129 $130 reversed $50 $-1 #
face $-1 $-1 $131 $28 $-1 $132 forward single #
loop $-1 $133 $134 $52 #
cone-surface $-1 -46.26667217029469 -9.6596457537133453 0.80886657714704491 0.80901700255871778 0 -0.5877852410284794 0.44083893077135955 0 0.60676275191903839 1 I I -0.70710678118654746 0.70710678118654768 0.75 forward I I I I #
loop $-1 $-1 $135 $36 #
coedge $-1 $84 $84 $136 $137 reversed $53 $-1 #
face $-1 $-1 $138 $29 $-1 $139 forward single #
loop $-1 $140 $141 $55 #
cone-surface $-1 -46.26667217029469 -5.0281116456553931 0.80886657714704491 0.80901700255871778 0 -0.5877852410284794 0.44083893077135955 0 0.60676275191903839 1 I I -0.70710678118654746 0.70710678118654768 0.75 forward I I I I #
loop $-1 $-1 $142 $37 #
coedge $-1 $89 $89 $143 $144 reversed $56 $-1 #
face $-1 $145 $146 $30 $-1 $147 reversed single #
loop $-1 $-1 $148 $58 #
plane-surface $-1 -7.609715883939046 1.3972713569004789 86.807276777448493 0.81915205242281985 0 0.57357642473473569 0.57357642473473569 0 -0.81915205242281985 forward_v I I I I #
coedge $-1 $149 $150 $151 $152 reversed $59 $-1 #
face $-1 $-1 $153 $31 $-1 $154 forward single #
loop $-1 $155 $156 $61 #
cone-surface $-1 49.243427215254691 1.3972713569004789 3.2127713341050361 -0.81915205242281985 0 -0.57357642473473569 0.14339410618368392 0 -0.20478801310570496 1 I I -0.70710678118654746 0.70710678118654746 0.25 forward I I I I #
loop $-1 $-1 $157 $39 #
coedge $-1 $98 $98 $158 $159 reversed $62 $-1 #
face $-1 $160 $161 $24 $-1 $162 reversed single #
loop $-1 $-1 $163 $64 #
plane-surface $-1 0 -27.038576615153325 0 0 1 0 0 0 1 forward_v I I I I #
coedge $-1 $164 $165 $166 $167 forward $65 $-1 #
coedge $-1 $168 $67 $169 $170 forward $41 $-1 #
coedge $-1 $67 $168 $171 $172 forward $41 $-1 #
coedge $-1 $173 $174 $67 $106 reversed $175 $-1 #
edge $-1 $176 -27.038576615153325 $177 27.038576615153325 $105 $178 forward 7 unknown #
face $-1 $179 $180 $25 $-1 $181 forward single #
loop $-1 $-1 $182 $68 #
plane-surface $-1 -43.528229305551775 -24.737630311018549 0 -1 0 0 0 0 1 forward_v I I I I #
coedge $-1 $183 $184 $185 $186 forward $69 $-1 #
coedge $-1 $187 $71 $188 $189 reversed $44 $-1 #
coedge $-1 $71 $187 $190 $191 reversed $44 $-1 #
coedge $-1 $184 $183 $71 $114 reversed $69 $-1 #
edge $-1 $192 -5.9189125096235022 $193 5.9189125096235022 $113 $194 forward 7 unknown #
face $-1 $195 $196 $26 $-1 $197 reversed single #
loop $-1 $-1 $198 $72 #
plane-surface $-1 -43.528229305551775 24.737630311018549 0 -1 0 0 0 0 1 forward_v I I I I #
coedge $-1 $199 $200 $201 $202 reversed $73 $-1 #
coedge $-1 $203 $75 $204 $205 reversed $47 $-1 #
coedge $-1 $75 $203 $206 $207 reversed $47 $-1 #
coedge $-1 $200 $199 $75 $122 reversed $73 $-1 #
edge $-1 $208 -5.9189125096235022 $209 5.9189125096235022 $121 $210 forward 7 unknown #
face $-1 $211 $212 $27 $-1 $213 reversed single #
loop $-1 $-1 $214 $76 #
plane-surface $-1 -135.3864028135439 -1.9404222402834215 61.82677698324941 0 -1 0 0.80901700255871778 0 -0.5877852410284794 forward_v I I I I #
coedge $-1 $215 $216 $217 $218 reversed $77 $-1 #
coedge $-1 $128 $79 $219 $220 reversed $50 $-1 #
coedge $-1 $79 $127 $215 $221 reversed $50 $-1 #
coedge $-1 $217 $222 $79 $130 forward $223 $-1 #
edge $-1 $224 15.980197469884224 $225 19.528933672689732 $129 $226 forward 7 unknown #
loop $-1 $-1 $136 $80 #
plane-surface $-1 -51.713003936887745 -7.3438786996843675 1.0344960165488999 -0.80901700255871778 0 0.5877852410284794 0.5877852410284794 0 0.80901700255871778 forward_v I I I I #
loop $-1 $-1 $227 $52 #
coedge $-1 $134 $134 $135 $228 reversed $81 $-1 #
coedge $-1 $135 $135 $134 $228 forward $83 $-1 #
coedge $-1 $136 $136 $84 $137 forward $131 $-1 #
edge $-1 $229 0 $229 6.2831853071796004 $136 $230 forward 7 unknown #
loop $-1 $-1 $143 $85 #
plane-surface $-1 -51.713003936887745 -7.3438786996843675 1.0344960165488999 -0.80901700255871778 0 0.5877852410284794 0.5877852410284794 0 0.80901700255871778 forward_v I I I I #
loop $-1 $-1 $231 $55 #
coedge $-1 $141 $141 $142 $232 reversed $86 $-1 #
coedge $-1 $142 $142 $141 $232 forward $88 $-1 #
coedge $-1 $143 $143 $89 $144 forward $138 $-1 #
edge $-1 $233 0 $233 6.2831853071796004 $143 $234 forward 7 unknown #
face $-1 $235 $236 $30 $-1 $237 forward single #
loop $-1 $-1 $238 $90 #
plane-surface $-1 77.111910739762834 -4.0330571758574223 146.12999659827523 0 1 0 0.81915205242281985 0 0.57357642473473569 forward_v I I I I #
coedge $-1 $239 $240 $241 $242 reversed $91 $-1 #
coedge $-1 $150 $93 $243 $244 reversed $59 $-1 #
coedge $-1 $93 $149 $239 $245 reversed $59 $-1 #
coedge $-1 $241 $246 $93 $152 forward $236 $-1 #
edge $-1 $247 -13.157048567006306 $248 -10.47296945049662 $151 $249 forward 7 unknown #
loop $-1 $-1 $158 $94 #
plane-surface $-1 -7.609715883939046 1.3972713569004789 86.807276777448493 0.81915205242281985 0 0.57357642473473569 0.57357642473473569 0 -0.81915205242281985 forward_v I I I I #
loop $-1 $-1 $250 $61 #
coedge $-1 $156 $156 $157 $251 reversed $95 $-1 #
coedge $-1 $157 $157 $156 $251 forward $97 $-1 #
coedge $-1 $158 $158 $98 $159 forward $153 $-1 #
edge $-1 $252 0 $252 6.2831853071796004 $158 $253 forward 7 unknown #
face $-1 $254 $255 $24 $-1 $256 reversed single #
loop $-1 $-1 $257 $99 #
plane-surface $-1 -51.713003936887723 0 0 1 0 0 0 0 -1 forward_v I I I I #
coedge $-1 $258 $171 $259 $260 forward $100 $-1 #
coedge $-1 $261 $102 $258 $262 forward $65 $-1 #
coedge $-1 $102 $261 $263 $264 forward $65 $-1 #
coedge $-1 $174 $173 $102 $167 reversed $175 $-1 #
edge $-1 $265 -27.038576615153325 $266 27.038576615153325 $166 $267 forward 7 unknown #
coedge $-1 $104 $103 $268 $269 forward $41 $-1 #
coedge $-1 $270 $271 $103 $170 reversed $255 $-1 #
edge $-1 $177 -51.713003936887723 $272 51.713003936887723 $169 $273 forward 7 unknown #
coedge $-1 $163 $274 $104 $172 reversed $100 $-1 #
edge $-1 $275 -51.713003936887723 $176 51.713003936887723 $171 $276 forward 7 unknown #
coedge $-1 $166 $105 $274 $277 forward $175 $-1 #
coedge $-1 $105 $166 $270 $278 reversed $175 $-1 #
loop $-1 $-1 $173 $254 #
vertex $-1 $106 $279 #
vertex $-1 $106 $280 #
straight-curve $-1 51.713003936887723 0 5.9189125096235022 0 1 0 I I #
face $-1 $281 $282 $25 $-1 $283 reversed single #
loop $-1 $-1 $284 $107 #
plane-surface $-1 0 0 5.9189125096235022 0 0 1 1 0 0 forward_v I I I I #
coedge $-1 $285 $286 $287 $288 reversed $108 $-1 #
coedge $-1 $113 $110 $289 $290 reversed $69 $-1 #
coedge $-1 $110 $113 $291 $292 reversed $69 $-1 #
coedge $-1 $286 $285 $110 $186 reversed $108 $-1 #
edge $-1 $293 -5.9189125096235022 $294 5.9189125096235022 $185 $295 forward 7 unknown #
coedge $-1 $112 $111 $296 $297 reversed $44 $-1 #
coedge $-1 $289 $298 $111 $189 forward $282 $-1 #
edge $-1 $299 -14.66976145964405 $193 -10.067868851374499 $188 $300 forward 7 unknown #
coedge $-1 $301 $291 $112 $191 forward $180 $-1 #
edge $-1 $192 10.067868851374499 $302 14.66976145964405 $190 $303 forward 7 unknown #
vertex $-1 $191 $304 #
vertex $-1 $189 $305 #
straight-curve $-1 -46.528229305551775 -22.436684006883773 0 0 0 -1 I I #
face $-1 $306 $307 $26 $-1 $308 forward single #
loop $-1 $-1 $309 $115 #
plane-surface $-1 0 0 -5.9189125096235022 0 0 1 1 0 0 forward_v I I I I #
coedge $-1 $310 $311 $203 $312 forward $116 $-1 #
coedge $-1 $121 $118 $313 $314 reversed $73 $-1 #
coedge $-1 $118 $121 $315 $316 reversed $73 $-1 #
coedge $-1 $317 $318 $118 $202 forward $319 $-1 #
edge $-1 $320 -5.9189125096235022 $321 5.9189125096235022 $201 $322 forward 7 unknown #
coedge $-1 $120 $119 $198 $312 reversed $47 $-1 #
coedge $-1 $313 $309 $119 $205 forward $196 $-1 #
edge $-1 $323 21.014114652775888 $209 24.014114652775888 $204 $324 forward 7 unknown #
coedge $-1 $325 $315 $120 $207 forward $307 $-1 #
edge $-1 $208 -24.014114652775888 $326 -21.014114652775888 $206 $327 forward 7 unknown #
vertex $-1 $207 $328 #
vertex $-1 $205 $329 #
straight-curve $-1 -46.528229305551775 22.436684006883773 0 0 0 -1 I I #
face $-1 $-1 $223 $27 $-1 $330 forward single #
loop $-1 $-1 $331 $123 #
plane-surface $-1 -51.713003936887723 0 0 1 0 0 0 0 -1 forward_v I I I I #
coedge $-1 $332 $333 $334 $335 reversed $124 $-1 #
coedge $-1 $336 $126 $128 $221 forward $77 $-1 #
coedge $-1 $126 $336 $332 $337 forward $77 $-1 #
coedge $-1 $334 $129 $126 $218 forward $223 $-1 #
edge $-1 $225 -9.0753958092431297 $338 1.7315171095587623 $217 $339 forward 7 unknown #
coedge $-1 $340 $341 $127 $220 forward $212 $-1 #
edge $-1 $342 -29.878892475075777 $224 -24.994475982001202 $219 $343 forward 7 unknown #
edge $-1 $225 -6.0374707547881172 $342 -3.6241593609816998e-014 $128 $344 forward 7 unknown #
coedge $-1 $129 $334 $340 $345 forward $223 $-1 #
loop $-1 $-1 $334 $211 #
vertex $-1 $220 $346 #
vertex $-1 $130 $347 #
straight-curve $-1 -67.693201406771948 -12.747335159085313 5.9189125096235031 1 0 0 I I #
coedge $-1 $227 $227 $-1 $348 reversed $133 $-1 #
edge $-1 $349 0 $349 6.2831853071796004 $134 $350 forward 7 unknown #
vertex $-1 $137 $351 #
ellipse-curve $-1 -49.938635835484973 -9.6596457537133453 3.4767042630862095 -0.80901700255871778 0 0.5877852410284794 0.8816778615427191 0 1.2135255038380768 1 I I #
coedge $-1 $231 $231 $-1 $352 reversed $140 $-1 #
edge $-1 $353 0 $353 6.2831853071796004 $141 $354 forward 7 unknown #
vertex $-1 $144 $355 #
ellipse-curve $-1 -49.938635835484973 -5.0281116456553931 3.4767042630862095 -0.80901700255871778 0 0.5877852410284794 0.8816778615427191 0 1.2135255038380768 1 I I #
face $-1 $-1 $356 $30 $-1 $357 reversed single #
loop $-1 $-1 $151 $145 #
plane-surface $-1 0 0 5.9189125096235022 0 0 1 1 0 0 forward_v I I I I #
coedge $-1 $358 $359 $360 $361 reversed $146 $-1 #
coedge $-1 $362 $148 $150 $245 forward $91 $-1 #
coedge $-1 $148 $362 $358 $363 forward $91 $-1 #
coedge $-1 $360 $151 $148 $242 forward $236 $-1 #
edge $-1 $248 -6.1289642112081406 $364 4.7316928543076617 $241 $365 forward 7 unknown #
coedge $-1 $366 $367 $149 $244 forward $356 $-1 #
edge $-1 $368 -70.979348145391043 $247 -67.146085789514117 $243 $369 forward 7 unknown #
edge $-1 $248 98.746458644130996 $368 103.4260078737755 $150 $370 forward 7 unknown #
coedge $-1 $151 $360 $366 $371 forward $236 $-1 #
vertex $-1 $152 $372 #
vertex $-1 $152 $373 #
straight-curve $-1 38.555955369881417 6.8275998896583801 5.918912509623496 -1 0 0 I I #
coedge $-1 $250 $250 $-1 $374 reversed $155 $-1 #
edge $-1 $375 0 $375 6.2831853071796004 $156 $376 forward 7 unknown #
vertex $-1 $159 $377 #
ellipse-curve $-1 50.370964378632877 1.3972713569004789 4.0022813316850492 0.81915205242281985 0 0.57357642473473569 0.28678821236736785 0 -0.40957602621140993 1 I I #
face $-1 $-1 $175 $24 $-1 $378 reversed single #
loop $-1 $-1 $270 $160 #
plane-surface $-1 0 27.038576615153325 0 0 -1 0 0 0 -1 forward_v I I I I #
coedge $-1 $379 $268 $271 $380 forward $161 $-1 #
coedge $-1 $274 $163 $164 $262 reversed $100 $-1 #
coedge $-1 $268 $379 $163 $260 reversed $161 $-1 #
edge $-1 $275 -5.9189125096235022 $381 5.9189125096235022 $259 $382 forward 7 unknown #
coedge $-1 $165 $164 $379 $383 forward $65 $-1 #
edge $-1 $266 -51.713003936887723 $381 51.713003936887723 $258 $384 forward 7 unknown #
coedge $-1 $271 $270 $165 $264 reversed $255 $-1 #
edge $-1 $385 -51.713003936887723 $265 51.713003936887723 $263 $386 forward 7 unknown #
vertex $-1 $167 $387 #
vertex $-1 $277 $388 #
straight-curve $-1 51.713003936887723 0 -5.9189125096235022 0 -1 0 I I #
coedge $-1 $257 $259 $168 $269 reversed $161 $-1 #
edge $-1 $272 -27.038576615153325 $275 27.038576615153325 $268 $389 forward 7 unknown #
coedge $-1 $263 $169 $174 $278 forward $255 $-1 #
coedge $-1 $169 $263 $257 $380 reversed $255 $-1 #
vertex $-1 $170 $390 #
straight-curve $-1 0 27.038576615153325 5.9189125096235022 -1 0 0 I I #
coedge $-1 $171 $258 $173 $277 reversed $100 $-1 #
vertex $-1 $269 $391 #
straight-curve $-1 0 -27.038576615153325 5.9189125096235022 1 0 0 I I #
edge $-1 $176 -5.9189125096235022 $266 5.9189125096235022 $173 $392 forward 7 unknown #
edge $-1 $177 -5.9189125096235022 $265 5.9189125096235022 $174 $393 forward 7 unknown #
point $-1 51.713003936887723 -27.038576615153325 5.9189125096235022 #
point $-1 51.713003936887723 27.038576615153325 5.9189125096235022 #
face $-1 $-1 $394 $25 $-1 $395 reversed single #
loop $-1 $-1 $396 $179 #
plane-surface $-1 0 0 -5.9189125096235022 0 0 1 1 0 0 forward_v I I I I #
coedge $-1 $291 $301 $286 $397 forward $180 $-1 #
coedge $-1 $185 $182 $396 $398 reversed $108 $-1 #
coedge $-1 $182 $185 $284 $397 reversed $108 $-1 #
coedge $-1 $399 $400 $182 $288 forward $394 $-1 #
edge $-1 $401 -5.9189125096235022 $402 5.9189125096235022 $287 $403 forward 7 unknown #
coedge $-1 $396 $188 $183 $290 forward $282 $-1 #
edge $-1 $193 -24.014114652775888 $294 -21.014114652775888 $289 $404 forward 7 unknown #
coedge $-1 $190 $284 $184 $292 forward $180 $-1 #
edge $-1 $293 21.014114652775888 $192 24.014114652775888 $291 $405 forward 7 unknown #
vertex $-1 $292 $406 #
vertex $-1 $290 $407 #
straight-curve $-1 -43.528229305551775 -22.436684006883773 0 0 0 -1 I I #
coedge $-1 $400 $399 $187 $297 forward $394 $-1 #
edge $-1 $302 -5.9189125096235022 $299 5.9189125096235022 $296 $408 forward 7 unknown #
coedge $-1 $188 $396 $400 $409 forward $282 $-1 #
vertex $-1 $189 $410 #
straight-curve $-1 -46.528229305551775 -12.368815155509274 -5.9189125096235022 0 1 0 I I #
coedge $-1 $284 $190 $399 $411 forward $180 $-1 #
vertex $-1 $411 $412 #
straight-curve $-1 -46.528229305551775 -12.368815155509274 5.9189125096235022 0 -1 0 I I #
point $-1 -46.528229305551775 -22.436684006883773 5.9189125096235022 #
point $-1 -46.528229305551775 -22.436684006883773 -5.9189125096235022 #
face $-1 $-1 $319 $26 $-1 $413 reversed single #
loop $-1 $-1 $325 $195 #
plane-surface $-1 0 0 5.9189125096235022 0 0 1 1 0 0 forward_v I I I I #
coedge $-1 $204 $414 $310 $415 forward $196 $-1 #
coedge $-1 $416 $198 $309 $415 reversed $116 $-1 #
coedge $-1 $198 $416 $325 $417 reversed $116 $-1 #
edge $-1 $326 -5.9189125096235022 $323 5.9189125096235022 $198 $418 forward 7 unknown #
coedge $-1 $414 $204 $199 $314 forward $196 $-1 #
edge $-1 $209 10.067868851374499 $320 14.66976145964405 $313 $419 forward 7 unknown #
coedge $-1 $206 $420 $200 $316 forward $307 $-1 #
edge $-1 $321 -14.66976145964405 $208 -10.067868851374499 $315 $421 forward 7 unknown #
coedge $-1 $422 $201 $420 $423 reversed $319 $-1 #
coedge $-1 $201 $422 $414 $424 reversed $319 $-1 #
loop $-1 $-1 $422 $306 #
vertex $-1 $424 $425 #
vertex $-1 $202 $426 #
straight-curve $-1 -46.528229305551775 27.038576615153325 0 0 0 1 I I #
vertex $-1 $205 $427 #
straight-curve $-1 -22.514114652775888 22.436684006883773 -5.9189125096235022 -1 0 0 I I #
coedge $-1 $420 $206 $311 $417 forward $307 $-1 #
vertex $-1 $207 $428 #
straight-curve $-1 -22.514114652775888 22.436684006883773 5.9189125096235022 1 0 0 I I #
point $-1 -46.528229305551775 22.436684006883773 5.9189125096235022 #
point $-1 -46.528229305551775 22.436684006883773 -5.9189125096235022 #
plane-surface $-1 0 0 5.9189125096235022 0 0 1 1 0 0 forward_v I I I I #
coedge $-1 $341 $340 $333 $429 forward $212 $-1 #
coedge $-1 $333 $214 $216 $337 reversed $124 $-1 #
coedge $-1 $214 $332 $331 $429 reversed $124 $-1 #
coedge $-1 $222 $217 $214 $335 forward $223 $-1 #
edge $-1 $338 -19.528933672689732 $430 -15.980197469884224 $334 $431 forward 7 unknown #
coedge $-1 $216 $215 $341 $432 reversed $77 $-1 #
edge $-1 $433 3.6241593609816998e-014 $338 6.0374707547881172 $332 $434 forward 7 unknown #
vertex $-1 $218 $435 #
straight-curve $-1 -48.164267734082216 -3.6719393498421837 5.9189125096235031 0 1 0 I I #
coedge $-1 $331 $219 $222 $345 reversed $212 $-1 #
coedge $-1 $219 $331 $336 $432 forward $212 $-1 #
vertex $-1 $220 $436 #
straight-curve $-1 -51.713003936887723 -12.747335159085313 30.913388491624705 0 0 1 I I #
straight-curve $-1 -51.713003936887745 -12.747335159085313 1.0344960165488999 -0.5877852410284794 0 -0.80901700255871778 I I #
edge $-1 $430 1.9404222402834215 $224 12.747335159085313 $340 $437 forward 7 unknown #
point $-1 -51.713003936887723 -12.747335159085313 5.9189125096235022 #
point $-1 -48.164267734082216 -12.747335159085313 5.9189125096235022 #
edge $-1 $438 1 $438 0 $227 $-1 forward 7 unknown #
vertex $-1 $228 $439 #
ellipse-curve $-1 -46.873434922213725 -9.6596457537133453 1.2497055079184045 -0.80901700255871778 0 0.5877852410284794 0.8816778615427191 0 1.2135255038380768 1 I I #
point $-1 -49.056957973942239 -9.6596457537133453 4.6902297669242774 #
edge $-1 $440 1 $440 0 $231 $-1 forward 7 unknown #
vertex $-1 $232 $441 #
ellipse-curve $-1 -46.873434922213725 -5.0281116456553931 1.2497055079184045 -0.80901700255871778 0 0.5877852410284794 0.8816778615427191 0 1.2135255038380768 1 I I #
point $-1 -49.056957973942239 -5.0281116456553931 4.6902297669242774 #
loop $-1 $-1 $243 $235 #
plane-surface $-1 51.713003936887723 0 0 -1 0 0 0 0 1 forward_v I I I I #
coedge $-1 $359 $238 $240 $363 reversed $146 $-1 #
coedge $-1 $238 $358 $442 $443 reversed $146 $-1 #
coedge $-1 $246 $241 $238 $361 forward $236 $-1 #
edge $-1 $364 10.47296945049662 $444 13.157048567006306 $360 $445 forward 7 unknown #
coedge $-1 $240 $239 $367 $446 reversed $91 $-1 #
edge $-1 $447 -103.4260078737755 $364 -98.746458644130996 $358 $448 forward 7 unknown #
vertex $-1 $242 $449 #
straight-curve $-1 49.028924820378037 0.69863567845023944 5.9189125096235031 0 -1 0 I I #
coedge $-1 $442 $243 $246 $371 reversed $356 $-1 #
coedge $-1 $243 $442 $362 $446 forward $356 $-1 #
vertex $-1 $244 $450 #
straight-curve $-1 51.713003936887723 6.8275998896583801 73.064998299137613 0 0 1 I I #
straight-curve $-1 -7.609715883939046 6.8275998896583801 86.807276777448493 0.57357642473473569 0 -0.81915205242281985 I I #
edge $-1 $444 -4.0330571758574223 $247 6.8275998896583801 $366 $451 forward 7 unknown #
point $-1 51.713003936887723 6.8275998896583801 5.9189125096235022 #
point $-1 49.028924820378037 6.8275998896583801 5.918912509623496 #
edge $-1 $452 1 $452 0 $250 $-1 forward 7 unknown #
vertex $-1 $251 $453 #
ellipse-curve $-1 49.448215228360397 1.3972713569004789 3.35616544028872 0.81915205242281985 0 0.57357642473473569 0.28678821236736785 0 -0.40957602621140993 1 I I #
point $-1 50.657752591000254 1.3972713569004789 3.5927053054736486 #
plane-surface $-1 51.713003936887723 0 0 -1 0 0 0 0 1 forward_v I I I I #
coedge $-1 $259 $257 $261 $383 reversed $161 $-1 #
edge $-1 $272 -5.9189125096235022 $385 5.9189125096235022 $271 $454 forward 7 unknown #
vertex $-1 $383 $455 #
straight-curve $-1 -51.713003936887723 -27.038576615153325 0 0 0 -1 I I #
edge $-1 $381 -27.038576615153325 $385 27.038576615153325 $379 $456 forward 7 unknown #
straight-curve $-1 0 -27.038576615153325 -5.9189125096235022 -1 0 0 I I #
vertex $-1 $264 $457 #
straight-curve $-1 0 27.038576615153325 -5.9189125096235022 1 0 0 I I #
point $-1 51.713003936887723 27.038576615153325 -5.9189125096235022 #
point $-1 51.713003936887723 -27.038576615153325 -5.9189125096235022 #
straight-curve $-1 -51.713003936887723 0 5.9189125096235022 0 -1 0 I I #
point $-1 -51.713003936887723 27.038576615153325 5.9189125096235022 #
point $-1 -51.713003936887723 -27.038576615153325 5.9189125096235022 #
straight-curve $-1 51.713003936887723 -27.038576615153325 0 0 0 -1 I I #
straight-curve $-1 51.713003936887723 27.038576615153325 0 0 0 -1 I I #
loop $-1 $-1 $287 $281 #
plane-surface $-1 0 -27.038576615153325 0 0 1 0 0 0 1 forward_v I I I I #
coedge $-1 $298 $289 $285 $398 forward $282 $-1 #
edge $-1 $402 -14.66976145964405 $293 -10.067868851374499 $284 $458 forward 7 unknown #
edge $-1 $294 10.067868851374499 $401 14.66976145964405 $396 $459 forward 7 unknown #
coedge $-1 $296 $287 $301 $411 reversed $394 $-1 #
coedge $-1 $287 $296 $298 $409 reversed $394 $-1 #
vertex $-1 $409 $460 #
vertex $-1 $288 $461 #
straight-curve $-1 -43.528229305551775 -27.038576615153325 0 0 0 1 I I #
straight-curve $-1 -22.514114652775888 -22.436684006883773 -5.9189125096235022 1 0 0 I I #
straight-curve $-1 -22.514114652775888 -22.436684006883773 5.9189125096235022 -1 0 0 I I #
point $-1 -43.528229305551775 -22.436684006883773 5.9189125096235022 #
point $-1 -43.528229305551775 -22.436684006883773 -5.9189125096235022 #
straight-curve $-1 -46.528229305551775 -27.038576615153325 0 0 0 -1 I I #
edge $-1 $401 43.528229305551775 $299 46.528229305551775 $400 $462 forward 7 unknown #
point $-1 -46.528229305551775 -27.038576615153325 -5.9189125096235022 #
edge $-1 $302 -46.528229305551775 $402 -43.528229305551775 $399 $463 forward 7 unknown #
point $-1 -46.528229305551775 -27.038576615153325 5.9189125096235022 #
plane-surface $-1 0 27.038576615153325 0 0 -1 0 0 0 -1 forward_v I I I I #
coedge $-1 $309 $313 $318 $424 forward $196 $-1 #
edge $-1 $464 -14.66976145964405 $323 -10.067868851374499 $309 $465 forward 7 unknown #
coedge $-1 $311 $310 $422 $466 reversed $116 $-1 #
edge $-1 $326 10.067868851374499 $467 14.66976145964405 $325 $468 forward 7 unknown #
straight-curve $-1 -43.528229305551775 22.436684006883773 0 0 0 -1 I I #
straight-curve $-1 -46.528229305551775 12.368815155509274 -5.9189125096235022 0 1 0 I I #
coedge $-1 $315 $325 $317 $423 forward $307 $-1 #
straight-curve $-1 -46.528229305551775 12.368815155509274 5.9189125096235022 0 -1 0 I I #
coedge $-1 $318 $317 $416 $466 forward $319 $-1 #
edge $-1 $467 43.528229305551775 $321 46.528229305551775 $317 $469 forward 7 unknown #
edge $-1 $320 -46.528229305551775 $464 -43.528229305551775 $318 $470 forward 7 unknown #
point $-1 -46.528229305551775 27.038576615153325 -5.9189125096235022 #
point $-1 -46.528229305551775 27.038576615153325 5.9189125096235022 #
point $-1 -43.528229305551775 22.436684006883773 -5.9189125096235022 #
point $-1 -43.528229305551775 22.436684006883773 5.9189125096235022 #
edge $-1 $430 24.994475982001202 $433 29.878892475075777 $331 $471 forward 7 unknown #
vertex $-1 $345 $472 #
straight-curve $-1 -67.693201406771948 -1.9404222402834215 5.9189125096235031 -1 0 0 I I #
edge $-1 $433 -1.7315171095587623 $342 9.0753958092431297 $341 $473 forward 7 unknown #
vertex $-1 $432 $474 #
straight-curve $-1 -51.713003936887745 -1.9404222402834215 1.0344960165488999 0.5877852410284794 0 0.80901700255871778 I I #
point $-1 -48.164267734082216 -1.9404222402834215 5.9189125096235022 #
point $-1 -51.713003936887723 -12.747335159085313 1.0344960165489292 #
straight-curve $-1 -51.713003936887723 0 5.9189125096235022 0 -1 0 I I #
vertex $-1 $348 $475 #
point $-1 -45.991757060671013 -9.6596457537133453 2.4632310117564815 #
vertex $-1 $352 $476 #
point $-1 -45.991757060671013 -5.0281116456553931 2.4632310117564815 #
coedge $-1 $367 $366 $359 $443 forward $356 $-1 #
edge $-1 $444 67.146085789514117 $447 70.979348145391043 $442 $477 forward 7 unknown #
vertex $-1 $371 $478 #
straight-curve $-1 38.555955369881417 -4.0330571758574223 5.918912509623496 1 0 0 I I #
edge $-1 $447 -4.7316928543076617 $368 6.1289642112081406 $367 $479 forward 7 unknown #
vertex $-1 $446 $480 #
straight-curve $-1 -7.609715883939046 -4.0330571758574223 86.807276777448493 -0.57357642473473569 0 0.81915205242281985 I I #
point $-1 49.028924820378037 -4.0330571758574223 5.918912509623496 #
point $-1 51.713003936887723 6.8275998896583801 2.0856501537465704 #
straight-curve $-1 51.713003936887723 0 5.9189125096235022 0 1 0 I I #
vertex $-1 $374 $481 #
point $-1 49.735003440727766 1.3972713569004789 2.9465894140773101 #
straight-curve $-1 -51.713003936887723 27.038576615153325 0 0 0 -1 I I #
point $-1 -51.713003936887723 -27.038576615153325 -5.9189125096235022 #
straight-curve $-1 -51.713003936887723 0 -5.9189125096235022 0 1 0 I I #
point $-1 -51.713003936887723 27.038576615153325 -5.9189125096235022 #
straight-curve $-1 -43.528229305551775 -12.368815155509274 5.9189125096235022 0 1 0 I I #
straight-curve $-1 -43.528229305551775 -12.368815155509274 -5.9189125096235022 0 -1 0 I I #
point $-1 -43.528229305551775 -27.038576615153325 -5.9189125096235022 #
point $-1 -43.528229305551775 -27.038576615153325 5.9189125096235022 #
straight-curve $-1 0 -27.038576615153325 -5.9189125096235022 -1 0 0 I I #
straight-curve $-1 0 -27.038576615153325 5.9189125096235022 1 0 0 I I #
vertex $-1 $466 $482 #
straight-curve $-1 -43.528229305551775 12.368815155509274 -5.9189125096235022 0 -1 0 I I #
edge $-1 $467 -5.9189125096235022 $464 5.9189125096235022 $422 $483 forward 7 unknown #
vertex $-1 $423 $484 #
straight-curve $-1 -43.528229305551775 12.368815155509274 5.9189125096235022 0 1 0 I I #
straight-curve $-1 0 27.038576615153325 5.9189125096235022 -1 0 0 I I #
straight-curve $-1 0 27.038576615153325 -5.9189125096235022 1 0 0 I I #
straight-curve $-1 -51.713003936887723 -1.9404222402834215 30.913388491624705 0 0 -1 I I #
point $-1 -51.713003936887723 -1.9404222402834215 5.9189125096235022 #
straight-curve $-1 -51.713003936887723 -3.6719393498421837 1.0344960165489216 0 -1 0 I I #
point $-1 -51.713003936887723 -1.9404222402834215 1.0344960165489292 #
point $-1 -45.659909418375655 -9.6596457537133453 0.36802764637568525 #
point $-1 -45.659909418375655 -5.0281116456553931 0.36802764637568525 #
straight-curve $-1 51.713003936887723 -4.0330571758574223 73.064998299137613 0 0 -1 I I #
point $-1 51.713003936887723 -4.0330571758574223 5.9189125096235022 #
straight-curve $-1 51.713003936887731 0.69863567845023944 2.0856501537465704 0 1 0 I I #
point $-1 51.713003936887723 -4.0330571758574223 2.0856501537465704 #
point $-1 49.038639202148985 1.3972713569004789 3.0693772279213523 #
point $-1 -43.528229305551775 27.038576615153325 -5.9189125096235022 #
straight-curve $-1 -43.528229305551775 27.038576615153325 0 0 0 -1 I I #
point $-1 -43.528229305551775 27.038576615153325 5.9189125096235022 #
End-of-ACIS-data 