500 0 5 0           
7 Unknown 11 ACIS 5.0 NT 24 Fri Mar 26 20:03:59 1999 
-1 9.9999999999999995e-007 1e-010 
body $-1 $5 $-1 $6 #
body $-1 $7 $-1 $8 #
body $-1 $9 $-1 $10 #
body $-1 $11 $-1 $12 #
body $-1 $13 $-1 $14 #
lump $-1 $-1 $15 $0 #
transform $-1 1 0 0 0 1 0 0 0 1 44.16272469252602 20.863777413640921 7.9740418732868648 1 rotate no_reflect no_shear #
lump $-1 $-1 $16 $1 #
transform $-1 1 0 0 0 1 0 0 0 1 44.16272469252602 20.863777413640921 7.9740418732868648 1 rotate no_reflect no_shear #
lump $-1 $-1 $17 $2 #
transform $-1 1 0 0 0 1 0 0 0 1 44.16272469252602 20.863777413640921 7.9740418732868648 1 rotate no_reflect no_shear #
lump $-1 $-1 $18 $3 #
transform $-1 1 0 0 0 1 0 0 0 1 44.16272469252602 20.863777413640921 7.9740418732868648 1 rotate no_reflect no_shear #
lump $-1 $-1 $19 $4 #
transform $-1 1 0 0 0 1 0 0 0 1 44.16272469252602 20.863777413640921 7.9740418732868648 1 rotate no_reflect no_shear #
shell $-1 $-1 $-1 $20 $-1 $5 #
shell $-1 $-1 $-1 $21 $-1 $7 #
shell $-1 $-1 $-1 $22 $-1 $9 #
shell $-1 $-1 $-1 $23 $-1 $11 #
shell $-1 $-1 $-1 $24 $-1 $13 #
face $-1 $25 $26 $15 $-1 $27 reversed single #
face $-1 $28 $29 $16 $-1 $30 forward single #
face $-1 $31 $32 $17 $-1 $33 reversed single #
face $-1 $34 $35 $18 $-1 $36 forward single #
face $-1 $37 $38 $19 $-1 $39 forward single #
face $-1 $40 $41 $15 $-1 $42 forward single #
loop $-1 $-1 $43 $20 #
plane-surface $-1 0 -20.863777413640921 0 0 1 0 0 0 1 forward_v I I I I #
face $-1 $44 $45 $16 $-1 $46 reversed single #
loop $-1 $-1 $47 $21 #
plane-surface $-1 0 -20.863777413640921 0 0 1 0 0 0 1 forward_v I I I I #
face $-1 $48 $49 $17 $-1 $50 reversed single #
loop $-1 $-1 $51 $22 #
plane-surface $-1 -16.80872734188231 66.291349540747632 89.546752127313596 1 0 0 0 -0.79863551827123203 -0.60181501223851219 forward_v I I I I #
face $-1 $52 $53 $18 $-1 $54 forward single #
loop $-1 $55 $56 $23 #
cone-surface $-1 -10.321744117249906 18.377199544245958 5.0397641189467741 0 -0.79863551827123203 -0.60181501223851219 1.5 0 0 1 I I 0 1 1.5 forward I I I I #
face $-1 $57 $58 $19 $-1 $59 forward single #
loop $-1 $60 $61 $24 #
cone-surface $-1 -0.59126928030130443 18.377199544245958 5.0397641189467741 0 -0.79863551827123203 -0.60181501223851219 1.5 0 0 1 I I 0 1 1.5 forward I I I I #
face $-1 $62 $63 $15 $-1 $64 reversed single #
loop $-1 $-1 $65 $25 #
plane-surface $-1 0 0 7.9740418732868648 0 0 1 1 0 0 forward_v I I I I #
coedge $-1 $66 $67 $68 $69 reversed $26 $-1 #
face $-1 $70 $71 $16 $-1 $72 reversed single #
loop $-1 $-1 $73 $28 #
plane-surface $-1 0 0 -7.9740418732868648 0 0 1 1 0 0 forward_v I I I I #
coedge $-1 $74 $75 $76 $77 forward $29 $-1 #
face $-1 $78 $79 $17 $-1 $80 reversed single #
loop $-1 $-1 $81 $31 #
plane-surface $-1 -5.4565066987756055 -4.2484915054228765 36.391170724676414 0 0.79863551827123203 0.60181501223851219 1 0 0 forward_v I I I I #
coedge $-1 $82 $83 $84 $85 reversed $32 $-1 #
face $-1 $-1 $86 $18 $-1 $87 forward single #
loop $-1 $88 $89 $34 #
cone-surface $-1 -10.321744117249906 17.140858530968348 4.1081143675717726 0 -0.79863551827123203 -0.60181501223851219 0.75 0 0 1 I I -0.70710678118654768 0.70710678118654735 0.75 forward I I I I #
loop $-1 $-1 $90 $23 #
coedge $-1 $56 $56 $91 $92 reversed $35 $-1 #
face $-1 $-1 $93 $19 $-1 $94 forward single #
loop $-1 $95 $96 $37 #
cone-surface $-1 -0.59126928030130443 17.140858530968348 4.1081143675717726 0 -0.79863551827123203 -0.60181501223851219 0.75 0 0 1 I I -0.70710678118654768 0.70710678118654735 0.75 forward I I I I #
loop $-1 $-1 $97 $24 #
coedge $-1 $61 $61 $98 $99 reversed $38 $-1 #
face $-1 $100 $101 $15 $-1 $102 reversed single #
loop $-1 $-1 $103 $40 #
plane-surface $-1 0 0 -7.9740418732868648 0 0 1 1 0 0 forward_v I I I I #
coedge $-1 $104 $105 $106 $107 forward $41 $-1 #
coedge $-1 $108 $43 $109 $110 reversed $26 $-1 #
coedge $-1 $43 $108 $111 $112 forward $26 $-1 #
coedge $-1 $113 $103 $43 $69 forward $63 $-1 #
edge $-1 $114 -44.16272469252602 $115 44.16272469252602 $43 $116 forward 7 unknown #
face $-1 $117 $118 $16 $-1 $119 reversed single #
loop $-1 $-1 $120 $44 #
plane-surface $-1 -36.044095895011289 -30.087568502889798 0 0 1 0 0 0 1 forward_v I I I I #
coedge $-1 $121 $122 $75 $123 forward $45 $-1 #
coedge $-1 $124 $47 $125 $126 reversed $29 $-1 #
coedge $-1 $47 $124 $73 $123 reversed $29 $-1 #
coedge $-1 $127 $128 $47 $77 reversed $118 $-1 #
edge $-1 $129 -7.9740418732868648 $130 7.9740418732868648 $76 $131 forward 7 unknown #
face $-1 $132 $133 $17 $-1 $134 forward single #
loop $-1 $-1 $135 $48 #
plane-surface $-1 5.8957139443310993 66.291349540747632 89.546752127313596 -1 0 0 0 0.79863551827123203 0.60181501223851219 forward_v I I I I #
coedge $-1 $136 $137 $138 $139 reversed $49 $-1 #
coedge $-1 $83 $51 $140 $141 reversed $32 $-1 #
coedge $-1 $51 $82 $136 $142 reversed $32 $-1 #
coedge $-1 $138 $143 $51 $85 forward $133 $-1 #
edge $-1 $144 12.281897356732895 $145 15.980324346374442 $84 $146 forward 7 unknown #
loop $-1 $-1 $91 $52 #
plane-surface $-1 -5.4565066987756055 -4.2484915054228765 36.391170724676414 0 0.79863551827123203 0.60181501223851219 1 0 0 forward_v I I I I #
loop $-1 $-1 $147 $34 #
coedge $-1 $89 $89 $90 $148 reversed $53 $-1 #
coedge $-1 $90 $90 $89 $148 forward $55 $-1 #
coedge $-1 $91 $91 $56 $92 forward $86 $-1 #
edge $-1 $149 -2.0167856967305835e-017 $149 6.2831853071796004 $91 $150 forward 7 unknown #
loop $-1 $-1 $98 $57 #
plane-surface $-1 -5.4565066987756055 -4.2484915054228765 36.391170724676414 0 0.79863551827123203 0.60181501223851219 1 0 0 forward_v I I I I #
loop $-1 $-1 $151 $37 #
coedge $-1 $96 $96 $97 $152 reversed $58 $-1 #
coedge $-1 $97 $97 $96 $152 forward $60 $-1 #
coedge $-1 $98 $98 $61 $99 forward $93 $-1 #
edge $-1 $153 -2.0167856967305835e-017 $153 6.2831853071796004 $98 $154 forward 7 unknown #
face $-1 $155 $156 $15 $-1 $157 reversed single #
loop $-1 $-1 $158 $62 #
plane-surface $-1 -44.16272469252602 0 0 1 0 0 0 0 -1 forward_v I I I I #
coedge $-1 $68 $159 $160 $161 forward $63 $-1 #
coedge $-1 $162 $65 $163 $164 forward $41 $-1 #
coedge $-1 $65 $162 $108 $165 forward $41 $-1 #
coedge $-1 $109 $166 $65 $107 reversed $167 $-1 #
edge $-1 $168 -20.863777413640921 $169 20.863777413640921 $106 $170 forward 7 unknown #
coedge $-1 $67 $66 $105 $165 reversed $26 $-1 #
coedge $-1 $160 $106 $66 $110 forward $167 $-1 #
edge $-1 $168 -7.9740418732868648 $114 7.9740418732868648 $109 $171 forward 7 unknown #
coedge $-1 $172 $173 $67 $112 reversed $101 $-1 #
edge $-1 $174 -7.9740418732868648 $115 7.9740418732868648 $111 $175 forward 7 unknown #
coedge $-1 $159 $68 $173 $176 forward $63 $-1 #
vertex $-1 $110 $177 #
vertex $-1 $176 $178 #
straight-curve $-1 0 -20.863777413640921 -7.9740418732868648 -1 0 0 I I #
face $-1 $179 $180 $16 $-1 $181 reversed single #
loop $-1 $-1 $76 $70 #
plane-surface $-1 -37.55472747338063 -25.47567295826536 0 1 0 0 0 0 -1 forward_v I I I I #
coedge $-1 $182 $183 $184 $185 forward $71 $-1 #
coedge $-1 $186 $73 $187 $188 forward $45 $-1 #
coedge $-1 $73 $186 $127 $189 forward $45 $-1 #
edge $-1 $129 -37.55472747338063 $190 -34.533464316641947 $73 $191 forward 7 unknown #
coedge $-1 $75 $74 $192 $193 forward $29 $-1 #
coedge $-1 $194 $195 $74 $126 forward $196 $-1 #
edge $-1 $197 34.533464316641947 $130 37.55472747338063 $125 $198 forward 7 unknown #
coedge $-1 $184 $76 $122 $189 reversed $118 $-1 #
coedge $-1 $76 $184 $194 $199 reversed $118 $-1 #
vertex $-1 $123 $200 #
vertex $-1 $199 $201 #
straight-curve $-1 -37.55472747338063 -20.863777413640921 0 0 0 1 I I #
face $-1 $-1 $202 $17 $-1 $203 reversed single #
loop $-1 $-1 $84 $78 #
plane-surface $-1 0 0 7.9740418732868648 0 0 1 1 0 0 forward_v I I I I #
coedge $-1 $204 $205 $206 $207 reversed $79 $-1 #
coedge $-1 $208 $81 $83 $142 forward $49 $-1 #
coedge $-1 $81 $208 $204 $209 forward $49 $-1 #
coedge $-1 $206 $84 $81 $139 forward $133 $-1 #
edge $-1 $145 -14.080473992494507 $210 8.623967293718902 $138 $211 forward 7 unknown #
coedge $-1 $212 $213 $82 $141 forward $202 $-1 #
edge $-1 $214 -41.707312714657853 $144 -36.799334190369933 $140 $215 forward 7 unknown #
edge $-1 $145 35.582099970838691 $214 41.727554827281821 $83 $216 forward 7 unknown #
coedge $-1 $84 $206 $212 $217 forward $133 $-1 #
vertex $-1 $141 $218 #
vertex $-1 $85 $219 #
straight-curve $-1 -16.80872734188231 33.145674770373816 7.9740418732868648 0 -1 0 I I #
coedge $-1 $147 $147 $-1 $220 reversed $88 $-1 #
edge $-1 $221 0 $221 6.2831853071796004 $89 $222 forward 7 unknown #
vertex $-1 $92 $223 #
ellipse-curve $-1 -10.321744117249906 19.014563918820151 5.5200526111428987 0 0.79863551827123203 0.60181501223851219 1.5 0 0 1 I I #
coedge $-1 $151 $151 $-1 $224 reversed $95 $-1 #
edge $-1 $225 0 $225 6.2831853071796004 $96 $226 forward 7 unknown #
vertex $-1 $99 $227 #
ellipse-curve $-1 -0.59126928030130443 19.014563918820151 5.5200526111428987 0 0.79863551827123203 0.60181501223851219 1.5 0 0 1 I I #
face $-1 $-1 $167 $15 $-1 $228 reversed single #
loop $-1 $-1 $229 $100 #
plane-surface $-1 0 20.863777413640921 0 0 -1 0 0 0 -1 forward_v I I I I #
coedge $-1 $173 $172 $230 $231 forward $101 $-1 #
coedge $-1 $103 $113 $232 $233 forward $63 $-1 #
coedge $-1 $166 $109 $103 $161 reversed $167 $-1 #
edge $-1 $234 -20.863777413640921 $114 20.863777413640921 $160 $235 forward 7 unknown #
coedge $-1 $105 $104 $172 $236 forward $41 $-1 #
coedge $-1 $229 $230 $104 $164 reversed $156 $-1 #
edge $-1 $169 -44.16272469252602 $237 44.16272469252602 $163 $238 forward 7 unknown #
edge $-1 $174 -44.16272469252602 $168 44.16272469252602 $108 $239 forward 7 unknown #
coedge $-1 $106 $160 $229 $240 reversed $167 $-1 #
loop $-1 $-1 $109 $155 #
vertex $-1 $107 $241 #
vertex $-1 $107 $242 #
straight-curve $-1 44.16272469252602 0 7.9740418732868648 0 1 0 I I #
straight-curve $-1 44.16272469252602 -20.863777413640921 0 0 0 -1 I I #
coedge $-1 $158 $111 $162 $236 reversed $101 $-1 #
coedge $-1 $111 $158 $113 $176 reversed $101 $-1 #
vertex $-1 $236 $243 #
straight-curve $-1 -44.16272469252602 -20.863777413640921 0 0 0 -1 I I #
edge $-1 $115 -20.863777413640921 $244 20.863777413640921 $173 $245 forward 7 unknown #
point $-1 44.16272469252602 -20.863777413640921 -7.9740418732868648 #
point $-1 -44.16272469252602 -20.863777413640921 -7.9740418732868648 #
face $-1 $-1 $196 $16 $-1 $246 forward single #
loop $-1 $-1 $247 $117 #
plane-surface $-1 -34.533464316641947 -25.47567295826536 0 -1 0 0 0 0 1 forward_v I I I I #
coedge $-1 $248 $120 $186 $249 reversed $71 $-1 #
coedge $-1 $120 $248 $250 $251 reversed $71 $-1 #
coedge $-1 $128 $127 $120 $185 reversed $118 $-1 #
edge $-1 $252 -7.9740418732868648 $253 7.9740418732868648 $184 $254 forward 7 unknown #
coedge $-1 $122 $121 $182 $249 forward $45 $-1 #
coedge $-1 $192 $247 $121 $188 reversed $180 $-1 #
edge $-1 $190 -4.6118955446244385 $255 4.6118955446244385 $187 $256 forward 7 unknown #
edge $-1 $253 -4.6118955446244385 $129 4.6118955446244385 $127 $257 forward 7 unknown #
vertex $-1 $188 $258 #
straight-curve $-1 0 -20.863777413640921 -7.9740418732868648 1 0 0 I I #
coedge $-1 $259 $187 $124 $193 reversed $180 $-1 #
edge $-1 $197 -7.9740418732868648 $190 7.9740418732868648 $192 $260 forward 7 unknown #
coedge $-1 $250 $125 $128 $199 forward $196 $-1 #
coedge $-1 $125 $250 $259 $261 forward $196 $-1 #
loop $-1 $-1 $125 $179 #
vertex $-1 $126 $262 #
straight-curve $-1 0 -20.863777413640921 7.9740418732868648 -1 0 0 I I #
edge $-1 $130 -4.6118955446244385 $252 4.6118955446244385 $128 $263 forward 7 unknown #
point $-1 -37.55472747338063 -20.863777413640921 -7.9740418732868648 #
point $-1 -37.55472747338063 -20.863777413640921 7.9740418732868648 #
loop $-1 $-1 $140 $132 #
plane-surface $-1 0 20.863777413640921 0 0 -1 0 0 0 -1 forward_v I I I I #
coedge $-1 $205 $135 $137 $209 reversed $79 $-1 #
coedge $-1 $135 $204 $264 $265 reversed $79 $-1 #
coedge $-1 $143 $138 $135 $207 forward $133 $-1 #
edge $-1 $210 -15.980324346374442 $266 -12.281897356732895 $206 $267 forward 7 unknown #
coedge $-1 $137 $136 $213 $268 reversed $49 $-1 #
edge $-1 $269 -41.727554827281821 $210 -35.582099970838691 $204 $270 forward 7 unknown #
vertex $-1 $139 $271 #
straight-curve $-1 -2.7282533493878027 17.165350423999378 7.9740418732868648 1 0 0 I I #
coedge $-1 $264 $140 $143 $217 reversed $202 $-1 #
coedge $-1 $140 $264 $208 $268 forward $202 $-1 #
vertex $-1 $141 $272 #
straight-curve $-1 -16.80872734188231 20.863777413640921 44.773376063656798 0 0 1 I I #
straight-curve $-1 -16.80872734188231 -4.2484915054228765 36.391170724676414 0 0.60181501223851219 -0.79863551827123203 I I #
edge $-1 $266 -5.8957139443310993 $144 16.80872734188231 $212 $273 forward 7 unknown #
point $-1 -16.80872734188231 20.863777413640921 7.9740418732868648 #
point $-1 -16.80872734188231 17.165350423999374 7.9740418732868648 #
edge $-1 $274 1 $274 0 $147 $-1 forward 7 unknown #
vertex $-1 $148 $275 #
ellipse-curve $-1 -10.321744117249906 17.739835169671771 4.5594756267506567 0 0.79863551827123203 0.60181501223851219 1.5 0 0 1 I I #
point $-1 -8.8217441172499065 19.014563918820141 5.5200526111428907 #
edge $-1 $276 1 $276 0 $151 $-1 forward 7 unknown #
vertex $-1 $152 $277 #
ellipse-curve $-1 -0.59126928030130443 17.739835169671771 4.5594756267506567 0 0.79863551827123203 0.60181501223851219 1.5 0 0 1 I I #
point $-1 0.90873071969869557 19.014563918820141 5.5200526111428907 #
plane-surface $-1 44.16272469252602 0 0 -1 0 0 0 0 1 forward_v I I I I #
coedge $-1 $232 $163 $166 $240 forward $156 $-1 #
coedge $-1 $163 $232 $158 $231 reversed $156 $-1 #
edge $-1 $237 -7.9740418732868648 $244 7.9740418732868648 $230 $278 forward 7 unknown #
coedge $-1 $230 $229 $159 $233 reversed $156 $-1 #
edge $-1 $244 -44.16272469252602 $234 44.16272469252602 $232 $279 forward 7 unknown #
vertex $-1 $161 $280 #
straight-curve $-1 44.16272469252602 0 -7.9740418732868648 0 -1 0 I I #
edge $-1 $237 -20.863777413640921 $174 20.863777413640921 $172 $281 forward 7 unknown #
vertex $-1 $164 $282 #
straight-curve $-1 0 20.863777413640921 7.9740418732868648 -1 0 0 I I #
straight-curve $-1 0 -20.863777413640921 7.9740418732868648 1 0 0 I I #
edge $-1 $169 -7.9740418732868648 $234 7.9740418732868648 $166 $283 forward 7 unknown #
point $-1 44.16272469252602 -20.863777413640921 7.9740418732868648 #
point $-1 44.16272469252602 20.863777413640921 7.9740418732868648 #
point $-1 -44.16272469252602 -20.863777413640921 7.9740418732868648 #
vertex $-1 $233 $284 #
straight-curve $-1 -44.16272469252602 0 -7.9740418732868648 0 1 0 I I #
plane-surface $-1 0 0 7.9740418732868648 0 0 1 1 0 0 forward_v I I I I #
coedge $-1 $187 $259 $248 $285 forward $180 $-1 #
coedge $-1 $183 $182 $247 $285 reversed $71 $-1 #
edge $-1 $255 -1.5106315783693418 $253 1.5106315783693418 $182 $286 forward 7 unknown #
coedge $-1 $195 $194 $183 $251 forward $196 $-1 #
edge $-1 $252 -1.5106315783693418 $287 1.5106315783693418 $183 $288 forward 7 unknown #
vertex $-1 $199 $289 #
vertex $-1 $189 $290 #
straight-curve $-1 -37.55472747338063 -30.087568502889798 0 0 0 -1 I I #
vertex $-1 $285 $291 #
straight-curve $-1 -34.533464316641947 -25.47567295826536 -7.9740418732868648 0 -1 0 I I #
straight-curve $-1 -37.55472747338063 -25.47567295826536 -7.9740418732868648 0 1 0 I I #
point $-1 -34.533464316641947 -20.863777413640921 -7.9740418732868648 #
coedge $-1 $247 $192 $195 $261 reversed $180 $-1 #
straight-curve $-1 -34.533464316641947 -20.863777413640921 0 0 0 -1 I I #
edge $-1 $287 -4.6118955446244385 $197 4.6118955446244385 $259 $292 forward 7 unknown #
point $-1 -34.533464316641947 -20.863777413640921 7.9740418732868648 #
straight-curve $-1 -37.55472747338063 -25.47567295826536 7.9740418732868648 0 -1 0 I I #
coedge $-1 $213 $212 $205 $265 forward $202 $-1 #
edge $-1 $266 36.799334190369933 $269 41.707312714657853 $264 $293 forward 7 unknown #
vertex $-1 $217 $294 #
straight-curve $-1 5.8957139443310993 33.145674770373816 7.9740418732868648 0 1 0 I I #
edge $-1 $269 -8.623967293718902 $214 14.080473992494507 $213 $295 forward 7 unknown #
vertex $-1 $268 $296 #
straight-curve $-1 5.8957139443310993 -4.2484915054228765 36.391170724676414 0 -0.60181501223851219 0.79863551827123203 I I #
point $-1 5.8957139443310993 17.165350423999374 7.9740418732868648 #
point $-1 -16.80872734188231 20.863777413640921 3.0660633489989451 #
straight-curve $-1 0 20.863777413640921 7.9740418732868648 -1 0 0 I I #
vertex $-1 $220 $297 #
point $-1 -8.8217441172499065 17.739835169671771 4.5594756267506567 #
vertex $-1 $224 $298 #
point $-1 0.90873071969869557 17.739835169671771 4.5594756267506567 #
straight-curve $-1 -44.16272469252602 20.863777413640921 0 0 0 -1 I I #
straight-curve $-1 0 20.863777413640921 -7.9740418732868648 1 0 0 I I #
point $-1 44.16272469252602 20.863777413640921 -7.9740418732868648 #
straight-curve $-1 -44.16272469252602 0 7.9740418732868648 0 -1 0 I I #
point $-1 -44.16272469252602 20.863777413640921 7.9740418732868648 #
straight-curve $-1 44.16272469252602 20.863777413640921 0 0 0 -1 I I #
point $-1 -44.16272469252602 20.863777413640921 -7.9740418732868648 #
edge $-1 $287 -7.9740418732868648 $255 7.9740418732868648 $247 $299 forward 7 unknown #
straight-curve $-1 -36.044095895011289 -30.087568502889798 -7.9740418732868648 -1 0 0 I I #
vertex $-1 $261 $300 #
straight-curve $-1 -36.044095895011289 -30.087568502889798 7.9740418732868648 1 0 0 I I #
point $-1 -37.55472747338063 -30.087568502889798 7.9740418732868648 #
point $-1 -37.55472747338063 -30.087568502889798 -7.9740418732868648 #
point $-1 -34.533464316641947 -30.087568502889798 -7.9740418732868648 #
straight-curve $-1 -34.533464316641947 -25.47567295826536 7.9740418732868648 0 1 0 I I #
straight-curve $-1 5.8957139443310993 20.863777413640921 44.773376063656798 0 0 -1 I I #
point $-1 5.8957139443310993 20.863777413640921 7.9740418732868648 #
straight-curve $-1 -2.7282533493878027 20.863777413640921 3.0660633489989451 -1 0 0 I I #
point $-1 5.8957139443310993 20.863777413640921 3.0660633489989451 #
point $-1 -10.321744117249906 16.541881892264925 3.6567531083928886 #
point $-1 -0.59126928030130443 16.541881892264925 3.6567531083928886 #
straight-curve $-1 -34.533464316641947 -30.087568502889798 0 0 0 -1 I I #
point $-1 -34.533464316641947 -30.087568502889798 7.9740418732868648 #
End-of-ACIS-data 