500 0 3 0           
7 Unknown 11 ACIS 5.0 NT 24 Fri Mar 26 19:54:42 1999 
-1 9.9999999999999995e-007 1e-010 
body $-1 $3 $-1 $4 #
body $-1 $5 $-1 $6 #
body $-1 $7 $-1 $8 #
lump $-1 $-1 $9 $0 #
transform $-1 1 0 0 0 1 0 0 0 1 73.209021271401099 40.335675085398108 15.310125789349708 1 rotate no_reflect no_shear #
lump $-1 $-1 $10 $1 #
transform $-1 1 0 0 0 1 0 0 0 1 73.209021271401099 40.335675085398108 15.310125789349708 1 rotate no_reflect no_shear #
lump $-1 $-1 $11 $2 #
transform $-1 1 0 0 0 1 0 0 0 1 73.209021271401099 40.335675085398108 15.310125789349708 1 rotate no_reflect no_shear #
shell $-1 $-1 $-1 $12 $-1 $3 #
shell $-1 $-1 $-1 $13 $-1 $5 #
shell $-1 $-1 $-1 $14 $-1 $7 #
face $-1 $15 $16 $9 $-1 $17 forward single #
face $-1 $18 $19 $10 $-1 $20 forward single #
face $-1 $21 $22 $11 $-1 $23 reversed single #
face $-1 $24 $25 $9 $-1 $26 reversed single #
loop $-1 $-1 $27 $12 #
plane-surface $-1 0 0 15.310125789349708 0 0 1 1 0 0 forward_v I I I I #
face $-1 $28 $29 $10 $-1 $30 forward single #
loop $-1 $-1 $31 $13 #
plane-surface $-1 91.256048211887645 19.506183275955028 214.13366422345669 0 1 0 0.7660444514056185 0 0.64278759981090561 forward_v I I I I #
face $-1 $32 $33 $11 $-1 $34 reversed single #
loop $-1 $35 $36 $14 #
cone-surface $-1 68.645909647066048 29.920929180676566 10.378225067619161 -0.7660444514056185 0 -0.64278759981090561 0.96418139971635841 0 -1.1490666771084277 1 I I 0 1 1.5 forward I I I I #
face $-1 $37 $38 $9 $-1 $39 reversed single #
loop $-1 $-1 $40 $15 #
plane-surface $-1 0 0 -15.310125789349708 0 0 1 1 0 0 forward_v I I I I #
coedge $-1 $41 $42 $43 $44 forward $16 $-1 #
face $-1 $45 $46 $10 $-1 $47 reversed single #
loop $-1 $-1 $48 $18 #
plane-surface $-1 -20.906680863697773 29.920929180676566 120.01796208835781 0.7660444514056185 0 0.64278759981090561 0.64278759981090561 0 -0.7660444514056185 forward_v I I I I #
coedge $-1 $49 $50 $51 $52 reversed $19 $-1 #
face $-1 $53 $54 $11 $-1 $55 forward single #
loop $-1 $56 $57 $21 #
cone-surface $-1 66.635963491935996 29.920929180676566 8.6916800343191092 -0.7660444514056185 0 -0.64278759981090561 0.48209069985817921 0 -0.57453333855421385 1 I I -0.70710678118654757 0.70710678118654757 0.75 forward I I I I #
loop $-1 $-1 $58 $14 #
coedge $-1 $36 $36 $59 $60 reversed $22 $-1 #
face $-1 $61 $62 $9 $-1 $63 reversed single #
loop $-1 $-1 $64 $24 #
plane-surface $-1 0 -40.335675085398108 0 0 1 0 0 0 1 forward_v I I I I #
coedge $-1 $65 $66 $67 $68 forward $25 $-1 #
coedge $-1 $69 $27 $70 $71 forward $16 $-1 #
coedge $-1 $27 $69 $72 $73 forward $16 $-1 #
coedge $-1 $74 $75 $27 $44 reversed $76 $-1 #
edge $-1 $77 -40.335675085398108 $78 40.335675085398108 $43 $79 forward 7 unknown #
face $-1 $80 $81 $10 $-1 $82 forward single #
loop $-1 $-1 $83 $28 #
plane-surface $-1 73.209021271401099 0 0 -1 0 0 0 0 1 forward_v I I I I #
coedge $-1 $84 $85 $83 $86 reversed $29 $-1 #
coedge $-1 $50 $31 $85 $87 forward $19 $-1 #
coedge $-1 $31 $49 $88 $89 reversed $19 $-1 #
coedge $-1 $90 $83 $31 $52 forward $46 $-1 #
edge $-1 $91 -99.211599098955929 $92 -91.756706322378633 $51 $93 forward 7 unknown #
face $-1 $94 $95 $11 $-1 $96 forward single #
loop $-1 $-1 $97 $32 #
plane-surface $-1 91.256048211887645 19.506183275955028 214.13366422345669 0 1 0 0.7660444514056185 0 0.64278759981090561 forward_v I I I I #
loop $-1 $-1 $98 $21 #
coedge $-1 $57 $57 $58 $99 forward $33 $-1 #
coedge $-1 $58 $58 $57 $99 reversed $35 $-1 #
coedge $-1 $59 $59 $36 $60 forward $95 $-1 #
edge $-1 $100 0 $100 6.2831853071796004 $59 $101 forward 7 unknown #
face $-1 $102 $103 $9 $-1 $104 reversed single #
loop $-1 $-1 $105 $37 #
plane-surface $-1 -73.209021271401099 0 0 1 0 0 0 0 -1 forward_v I I I I #
coedge $-1 $106 $72 $107 $108 forward $38 $-1 #
coedge $-1 $109 $40 $106 $110 forward $25 $-1 #
coedge $-1 $40 $109 $111 $112 forward $25 $-1 #
coedge $-1 $75 $74 $40 $68 reversed $76 $-1 #
edge $-1 $113 -40.335675085398108 $114 40.335675085398108 $67 $115 forward 7 unknown #
coedge $-1 $42 $41 $116 $117 forward $16 $-1 #
coedge $-1 $118 $119 $41 $71 reversed $103 $-1 #
edge $-1 $78 -73.209021271401099 $120 73.209021271401099 $70 $121 forward 7 unknown #
coedge $-1 $64 $122 $42 $73 reversed $38 $-1 #
edge $-1 $123 -73.209021271401099 $77 73.209021271401099 $72 $124 forward 7 unknown #
coedge $-1 $67 $43 $122 $125 forward $76 $-1 #
coedge $-1 $43 $67 $118 $126 reversed $76 $-1 #
loop $-1 $-1 $74 $102 #
vertex $-1 $44 $127 #
vertex $-1 $44 $128 #
straight-curve $-1 73.209021271401099 0 15.310125789349708 0 1 0 I I #
face $-1 $129 $130 $10 $-1 $131 reversed single #
loop $-1 $-1 $88 $45 #
plane-surface $-1 0 0 15.310125789349708 0 0 1 1 0 0 forward_v I I I I #
coedge $-1 $51 $132 $48 $86 forward $46 $-1 #
coedge $-1 $133 $48 $134 $135 reversed $29 $-1 #
coedge $-1 $48 $133 $49 $87 reversed $29 $-1 #
edge $-1 $136 -25.375210495059825 $91 -4.5457186856167446 $83 $137 forward 7 unknown #
edge $-1 $91 -146.41804254280223 $138 -136.68637127633943 $49 $139 forward 7 unknown #
coedge $-1 $140 $141 $50 $89 forward $81 $-1 #
edge $-1 $92 -27.580997165457276 $138 -21.325599549938914 $88 $142 forward 7 unknown #
coedge $-1 $143 $51 $141 $144 reversed $46 $-1 #
vertex $-1 $86 $145 #
vertex $-1 $89 $146 #
straight-curve $-1 73.209021271401099 19.506183275955028 107.06683211172835 0 0 1 I I #
face $-1 $147 $148 $11 $-1 $149 reversed single #
loop $-1 $150 $59 $53 #
plane-surface $-1 -20.906680863697773 29.920929180676566 120.01796208835781 0.7660444514056185 0 0.64278759981090561 0.64278759981090561 0 -0.7660444514056185 forward_v I I I I #
coedge $-1 $151 $152 $153 $154 reversed $54 $-1 #
coedge $-1 $98 $98 $-1 $155 forward $56 $-1 #
edge $-1 $156 0 $156 6.2831853071796004 $57 $157 forward 7 unknown #
vertex $-1 $60 $158 #
ellipse-curve $-1 70.081322463641925 29.920929180676566 11.582679401061059 -0.7660444514056185 0 -0.64278759981090561 0.96418139971635841 0 -1.1490666771084277 1 I I #
face $-1 $-1 $76 $9 $-1 $159 reversed single #
loop $-1 $-1 $118 $61 #
plane-surface $-1 0 40.335675085398108 0 0 -1 0 0 0 -1 forward_v I I I I #
coedge $-1 $160 $116 $119 $161 forward $62 $-1 #
coedge $-1 $122 $64 $65 $110 reversed $38 $-1 #
coedge $-1 $116 $160 $64 $108 reversed $62 $-1 #
edge $-1 $123 -15.310125789349708 $162 15.310125789349708 $107 $163 forward 7 unknown #
coedge $-1 $66 $65 $160 $164 forward $25 $-1 #
edge $-1 $114 -73.209021271401099 $162 73.209021271401099 $106 $165 forward 7 unknown #
coedge $-1 $119 $118 $66 $112 reversed $103 $-1 #
edge $-1 $166 -73.209021271401099 $113 73.209021271401099 $111 $167 forward 7 unknown #
vertex $-1 $68 $168 #
vertex $-1 $125 $169 #
straight-curve $-1 73.209021271401099 0 -15.310125789349708 0 -1 0 I I #
coedge $-1 $105 $107 $69 $117 reversed $62 $-1 #
edge $-1 $120 -40.335675085398108 $123 40.335675085398108 $116 $170 forward 7 unknown #
coedge $-1 $111 $70 $75 $126 forward $103 $-1 #
coedge $-1 $70 $111 $105 $161 reversed $103 $-1 #
vertex $-1 $71 $171 #
straight-curve $-1 0 40.335675085398108 15.310125789349708 -1 0 0 I I #
coedge $-1 $72 $106 $74 $125 reversed $38 $-1 #
vertex $-1 $117 $172 #
straight-curve $-1 0 -40.335675085398108 15.310125789349708 1 0 0 I I #
edge $-1 $77 -15.310125789349708 $114 15.310125789349708 $74 $173 forward 7 unknown #
edge $-1 $78 -15.310125789349708 $113 15.310125789349708 $75 $174 forward 7 unknown #
point $-1 73.209021271401099 -40.335675085398108 15.310125789349708 #
point $-1 73.209021271401099 40.335675085398108 15.310125789349708 #
face $-1 $175 $176 $10 $-1 $177 reversed single #
loop $-1 $-1 $178 $80 #
plane-surface $-1 0 0 -15.310125789349708 0 0 1 1 0 0 forward_v I I I I #
coedge $-1 $83 $179 $180 $181 reversed $46 $-1 #
coedge $-1 $85 $84 $140 $182 reversed $29 $-1 #
coedge $-1 $180 $183 $84 $135 forward $184 $-1 #
edge $-1 $185 83.99754670674676 $136 93.729217973209529 $134 $186 forward 7 unknown #
vertex $-1 $181 $187 #
straight-curve $-1 73.209021271401099 14.960464590338283 7.855233012772409 0 -1 0 I I #
vertex $-1 $182 $188 #
straight-curve $-1 -20.906680863697773 19.506183275955028 120.01796208835781 -0.64278759981090561 0 0.7660444514056185 I I #
coedge $-1 $189 $88 $133 $182 forward $81 $-1 #
coedge $-1 $88 $190 $90 $144 forward $81 $-1 #
straight-curve $-1 45.628024105943823 19.506183275955028 15.310125789349712 -1 0 0 I I #
coedge $-1 $179 $90 $191 $192 forward $46 $-1 #
edge $-1 $193 -40.335675085398108 $92 19.506183275955028 $90 $194 forward 7 unknown #
point $-1 73.209021271401099 19.506183275955028 7.8552330127724161 #
point $-1 73.209021271401099 19.506183275955028 15.310125789349708 #
face $-1 $195 $196 $11 $-1 $197 forward single #
loop $-1 $-1 $198 $94 #
plane-surface $-1 73.209021271401099 0 0 -1 0 0 0 0 1 forward_v I I I I #
loop $-1 $-1 $199 $53 #
coedge $-1 $152 $97 $200 $201 forward $54 $-1 #
coedge $-1 $97 $151 $202 $203 reversed $54 $-1 #
coedge $-1 $204 $198 $97 $154 forward $148 $-1 #
edge $-1 $205 -99.211599098955929 $206 -91.756706322378633 $153 $207 forward 7 unknown #
edge $-1 $208 1 $208 0 $98 $-1 forward 7 unknown #
vertex $-1 $99 $209 #
ellipse-curve $-1 67.210496830490214 29.920929180676566 9.1737707341772889 0.7660444514056185 0 0.64278759981090561 0.96418139971635841 0 -1.1490666771084277 1 I I #
point $-1 71.045503863358263 29.920929180676566 10.433612723952606 #
plane-surface $-1 73.209021271401099 0 0 -1 0 0 0 0 1 forward_v I I I I #
coedge $-1 $107 $105 $109 $164 reversed $62 $-1 #
edge $-1 $120 -15.310125789349708 $166 15.310125789349708 $119 $210 forward 7 unknown #
vertex $-1 $164 $211 #
straight-curve $-1 -73.209021271401099 -40.335675085398108 0 0 0 -1 I I #
edge $-1 $162 -40.335675085398108 $166 40.335675085398108 $160 $212 forward 7 unknown #
straight-curve $-1 0 -40.335675085398108 -15.310125789349708 -1 0 0 I I #
vertex $-1 $112 $213 #
straight-curve $-1 0 40.335675085398108 -15.310125789349708 1 0 0 I I #
point $-1 73.209021271401099 40.335675085398108 -15.310125789349708 #
point $-1 73.209021271401099 -40.335675085398108 -15.310125789349708 #
straight-curve $-1 -73.209021271401099 0 15.310125789349708 0 -1 0 I I #
point $-1 -73.209021271401099 40.335675085398108 15.310125789349708 #
point $-1 -73.209021271401099 -40.335675085398108 15.310125789349708 #
straight-curve $-1 73.209021271401099 -40.335675085398108 0 0 0 -1 I I #
straight-curve $-1 73.209021271401099 40.335675085398108 0 0 0 -1 I I #
face $-1 $214 $215 $10 $-1 $216 reversed single #
loop $-1 $-1 $217 $129 #
plane-surface $-1 0 -40.335675085398108 0 0 1 0 0 0 1 forward_v I I I I #
coedge $-1 $218 $219 $179 $220 forward $130 $-1 #
coedge $-1 $132 $143 $178 $220 reversed $46 $-1 #
coedge $-1 $221 $134 $132 $181 forward $184 $-1 #
edge $-1 $136 -7.8552330127724099 $222 15.310125789349708 $132 $223 forward 7 unknown #
edge $-1 $138 4.5457186856167446 $185 25.375210495059825 $140 $224 forward 7 unknown #
coedge $-1 $134 $225 $189 $226 reversed $184 $-1 #
loop $-1 $-1 $134 $214 #
vertex $-1 $226 $227 #
straight-curve $-1 12.961042218248544 40.335675085398108 79.655980375737343 0.64278759981090572 0 -0.76604445140561861 I I #
point $-1 73.209021271401099 40.335675085398108 7.8552330127724099 #
point $-1 66.953623655882737 19.506183275955028 15.310125789349712 #
coedge $-1 $228 $140 $183 $226 forward $81 $-1 #
coedge $-1 $141 $228 $229 $230 forward $81 $-1 #
coedge $-1 $229 $231 $143 $192 reversed $176 $-1 #
edge $-1 $193 -15.310125789349708 $232 15.310125789349708 $143 $233 forward 7 unknown #
vertex $-1 $144 $234 #
straight-curve $-1 73.209021271401099 0 15.310125789349708 0 1 0 I I #
face $-1 $235 $236 $11 $-1 $237 reversed single #
loop $-1 $-1 $202 $147 #
plane-surface $-1 0 0 15.310125789349708 0 0 1 1 0 0 forward_v I I I I #
coedge $-1 $153 $238 $199 $239 forward $148 $-1 #
coedge $-1 $240 $200 $198 $239 reversed $150 $-1 #
coedge $-1 $199 $241 $151 $201 reversed $150 $-1 #
edge $-1 $205 -146.41804254280223 $242 -136.68637127633943 $151 $243 forward 7 unknown #
coedge $-1 $244 $245 $152 $203 forward $196 $-1 #
edge $-1 $206 -27.580997165457276 $242 -21.325599549938914 $202 $246 forward 7 unknown #
coedge $-1 $247 $153 $245 $248 reversed $148 $-1 #
vertex $-1 $239 $249 #
vertex $-1 $203 $250 #
straight-curve $-1 73.209021271401099 19.506183275955028 107.06683211172835 0 0 1 I I #
vertex $-1 $155 $251 #
point $-1 68.174678230206567 29.920929180676566 8.0247040570688615 #
straight-curve $-1 -73.209021271401099 40.335675085398108 0 0 0 -1 I I #
point $-1 -73.209021271401099 -40.335675085398108 -15.310125789349708 #
straight-curve $-1 -73.209021271401099 0 -15.310125789349708 0 1 0 I I #
point $-1 -73.209021271401099 40.335675085398108 -15.310125789349708 #
face $-1 $-1 $184 $10 $-1 $252 reversed single #
loop $-1 $-1 $253 $175 #
plane-surface $-1 -73.209021271401099 0 0 1 0 0 0 0 -1 forward_v I I I I #
coedge $-1 $231 $229 $254 $255 forward $176 $-1 #
coedge $-1 $256 $178 $231 $257 forward $130 $-1 #
coedge $-1 $178 $256 $221 $258 forward $130 $-1 #
edge $-1 $222 -40.335675085398108 $232 40.335675085398108 $179 $259 forward 7 unknown #
coedge $-1 $225 $180 $219 $258 reversed $184 $-1 #
vertex $-1 $220 $260 #
straight-curve $-1 73.209021271401099 40.335675085398108 0 0 0 -1 I I #
straight-curve $-1 66.953623655882723 14.960464590338283 15.310125789349712 0 1 0 I I #
coedge $-1 $183 $221 $253 $261 reversed $184 $-1 #
edge $-1 $185 -66.953623655882737 $262 73.209021271401099 $183 $263 forward 7 unknown #
point $-1 66.953623655882737 40.335675085398108 15.310125789349712 #
coedge $-1 $190 $189 $264 $265 forward $81 $-1 #
coedge $-1 $217 $191 $190 $230 reversed $176 $-1 #
edge $-1 $266 -73.209021271401099 $193 73.209021271401099 $229 $267 forward 7 unknown #
coedge $-1 $191 $217 $218 $257 reversed $176 $-1 #
vertex $-1 $192 $268 #
straight-curve $-1 73.209021271401099 -40.335675085398108 0 0 0 -1 I I #
point $-1 73.209021271401099 -40.335675085398108 15.310125789349708 #
face $-1 $269 $270 $11 $-1 $271 reversed single #
loop $-1 $-1 $272 $195 #
plane-surface $-1 0 0 -15.310125789349708 0 0 1 1 0 0 forward_v I I I I #
coedge $-1 $198 $273 $274 $275 reversed $148 $-1 #
edge $-1 $276 -25.375210495059825 $205 -4.5457186856167446 $198 $277 forward 7 unknown #
coedge $-1 $241 $199 $278 $279 reversed $150 $-1 #
coedge $-1 $200 $240 $244 $280 reversed $150 $-1 #
vertex $-1 $280 $281 #
straight-curve $-1 -20.906680863697773 19.506183275955028 120.01796208835781 -0.64278759981090561 0 0.7660444514056185 I I #
coedge $-1 $282 $202 $241 $280 forward $196 $-1 #
coedge $-1 $202 $283 $204 $248 forward $196 $-1 #
straight-curve $-1 45.628024105943823 19.506183275955028 15.310125789349712 -1 0 0 I I #
coedge $-1 $273 $204 $284 $285 forward $148 $-1 #
edge $-1 $286 -40.335675085398108 $206 19.506183275955028 $204 $287 forward 7 unknown #
point $-1 73.209021271401099 19.506183275955028 7.8552330127724161 #
point $-1 73.209021271401099 19.506183275955028 15.310125789349708 #
point $-1 66.061430153381778 29.920929180676566 8.2095893344609294 #
plane-surface $-1 0 40.335675085398108 0 0 -1 0 0 0 -1 forward_v I I I I #
coedge $-1 $288 $264 $225 $261 forward $215 $-1 #
coedge $-1 $264 $288 $217 $255 reversed $215 $-1 #
edge $-1 $266 -15.310125789349708 $289 15.310125789349708 $254 $290 forward 7 unknown #
coedge $-1 $219 $218 $288 $291 forward $130 $-1 #
edge $-1 $232 -73.209021271401099 $289 73.209021271401099 $231 $292 forward 7 unknown #
edge $-1 $293 -73.209021271401099 $222 73.209021271401099 $221 $294 forward 7 unknown #
straight-curve $-1 73.209021271401099 0 -15.310125789349708 0 -1 0 I I #
point $-1 73.209021271401099 40.335675085398108 -15.310125789349708 #
edge $-1 $262 -15.310125789349708 $293 15.310125789349708 $225 $295 forward 7 unknown #
vertex $-1 $226 $296 #
straight-curve $-1 0 40.335675085398108 15.310125789349708 -1 0 0 I I #
coedge $-1 $253 $254 $228 $265 reversed $215 $-1 #
edge $-1 $262 -40.335675085398108 $266 40.335675085398108 $264 $297 forward 7 unknown #
vertex $-1 $265 $298 #
straight-curve $-1 0 -40.335675085398108 15.310125789349708 1 0 0 I I #
point $-1 73.209021271401099 -40.335675085398108 -15.310125789349708 #
face $-1 $299 $300 $11 $-1 $301 reversed single #
loop $-1 $-1 $302 $235 #
plane-surface $-1 0 -40.335675085398108 0 0 1 0 0 0 1 forward_v I I I I #
coedge $-1 $303 $304 $273 $305 forward $236 $-1 #
coedge $-1 $238 $247 $272 $305 reversed $148 $-1 #
coedge $-1 $306 $278 $238 $275 forward $307 $-1 #
edge $-1 $276 -7.8552330127724099 $308 15.310125789349708 $238 $309 forward 7 unknown #
vertex $-1 $275 $310 #
straight-curve $-1 73.209021271401099 14.960464590338283 7.855233012772409 0 -1 0 I I #
coedge $-1 $274 $311 $240 $279 forward $307 $-1 #
edge $-1 $312 83.99754670674676 $276 93.729217973209529 $278 $313 forward 7 unknown #
edge $-1 $242 4.5457186856167446 $312 25.375210495059825 $244 $314 forward 7 unknown #
point $-1 66.953623655882737 19.506183275955028 15.310125789349712 #
coedge $-1 $315 $244 $311 $316 forward $196 $-1 #
coedge $-1 $245 $315 $317 $318 forward $196 $-1 #
coedge $-1 $317 $319 $247 $285 reversed $270 $-1 #
edge $-1 $286 -15.310125789349708 $320 15.310125789349708 $247 $321 forward 7 unknown #
vertex $-1 $248 $322 #
straight-curve $-1 73.209021271401099 0 15.310125789349708 0 1 0 I I #
coedge $-1 $254 $253 $256 $291 reversed $215 $-1 #
vertex $-1 $291 $323 #
straight-curve $-1 -73.209021271401099 -40.335675085398108 0 0 0 -1 I I #
edge $-1 $289 -40.335675085398108 $293 40.335675085398108 $288 $324 forward 7 unknown #
straight-curve $-1 0 -40.335675085398108 -15.310125789349708 -1 0 0 I I #
vertex $-1 $258 $325 #
straight-curve $-1 0 40.335675085398108 -15.310125789349708 1 0 0 I I #
straight-curve $-1 -73.209021271401099 40.335675085398108 0 0 0 -1 I I #
point $-1 -73.209021271401099 40.335675085398108 15.310125789349708 #
straight-curve $-1 -73.209021271401099 0 15.310125789349708 0 -1 0 I I #
point $-1 -73.209021271401099 -40.335675085398108 15.310125789349708 #
face $-1 $-1 $307 $11 $-1 $326 reversed single #
loop $-1 $-1 $327 $269 #
plane-surface $-1 -73.209021271401099 0 0 1 0 0 0 0 -1 forward_v I I I I #
coedge $-1 $319 $317 $328 $329 forward $270 $-1 #
coedge $-1 $330 $272 $319 $331 forward $236 $-1 #
coedge $-1 $272 $330 $306 $332 forward $236 $-1 #
edge $-1 $308 -40.335675085398108 $320 40.335675085398108 $273 $333 forward 7 unknown #
coedge $-1 $334 $274 $304 $332 reversed $307 $-1 #
loop $-1 $-1 $278 $299 #
vertex $-1 $305 $335 #
straight-curve $-1 73.209021271401099 40.335675085398108 0 0 0 -1 I I #
point $-1 73.209021271401099 40.335675085398108 7.8552330127724099 #
coedge $-1 $278 $334 $282 $316 reversed $307 $-1 #
vertex $-1 $316 $336 #
straight-curve $-1 12.961042218248544 40.335675085398108 79.655980375737343 0.64278759981090572 0 -0.76604445140561861 I I #
straight-curve $-1 66.953623655882723 14.960464590338283 15.310125789349712 0 1 0 I I #
coedge $-1 $283 $282 $337 $338 forward $196 $-1 #
edge $-1 $312 -66.953623655882737 $339 73.209021271401099 $311 $340 forward 7 unknown #
coedge $-1 $302 $284 $283 $318 reversed $270 $-1 #
edge $-1 $341 -73.209021271401099 $286 73.209021271401099 $317 $342 forward 7 unknown #
coedge $-1 $284 $302 $303 $331 reversed $270 $-1 #
vertex $-1 $285 $343 #
straight-curve $-1 73.209021271401099 -40.335675085398108 0 0 0 -1 I I #
point $-1 73.209021271401099 -40.335675085398108 15.310125789349708 #
point $-1 -73.209021271401099 -40.335675085398108 -15.310125789349708 #
straight-curve $-1 -73.209021271401099 0 -15.310125789349708 0 1 0 I I #
point $-1 -73.209021271401099 40.335675085398108 -15.310125789349708 #
plane-surface $-1 0 40.335675085398108 0 0 -1 0 0 0 -1 forward_v I I I I #
coedge $-1 $344 $337 $334 $345 forward $300 $-1 #
coedge $-1 $337 $344 $302 $329 reversed $300 $-1 #
edge $-1 $341 -15.310125789349708 $346 15.310125789349708 $328 $347 forward 7 unknown #
coedge $-1 $304 $303 $344 $348 forward $236 $-1 #
edge $-1 $320 -73.209021271401099 $346 73.209021271401099 $319 $349 forward 7 unknown #
edge $-1 $350 -73.209021271401099 $308 73.209021271401099 $306 $351 forward 7 unknown #
straight-curve $-1 73.209021271401099 0 -15.310125789349708 0 -1 0 I I #
coedge $-1 $311 $306 $327 $345 reversed $307 $-1 #
point $-1 73.209021271401099 40.335675085398108 -15.310125789349708 #
point $-1 66.953623655882737 40.335675085398108 15.310125789349712 #
coedge $-1 $327 $328 $315 $338 reversed $300 $-1 #
edge $-1 $339 -40.335675085398108 $341 40.335675085398108 $337 $352 forward 7 unknown #
vertex $-1 $316 $353 #
straight-curve $-1 0 40.335675085398108 15.310125789349708 -1 0 0 I I #
vertex $-1 $338 $354 #
straight-curve $-1 0 -40.335675085398108 15.310125789349708 1 0 0 I I #
point $-1 73.209021271401099 -40.335675085398108 -15.310125789349708 #
coedge $-1 $328 $327 $330 $348 reversed $300 $-1 #
edge $-1 $339 -15.310125789349708 $350 15.310125789349708 $334 $355 forward 7 unknown #
vertex $-1 $348 $356 #
straight-curve $-1 -73.209021271401099 -40.335675085398108 0 0 0 -1 I I #
edge $-1 $346 -40.335675085398108 $350 40.335675085398108 $344 $357 forward 7 unknown #
straight-curve $-1 0 -40.335675085398108 -15.310125789349708 -1 0 0 I I #
vertex $-1 $332 $358 #
straight-curve $-1 0 40.335675085398108 -15.310125789349708 1 0 0 I I #
straight-curve $-1 -73.209021271401099 0 15.310125789349708 0 -1 0 I I #
point $-1 -73.209021271401099 40.335675085398108 15.310125789349708 #
point $-1 -73.209021271401099 -40.335675085398108 15.310125789349708 #
straight-curve $-1 -73.209021271401099 40.335675085398108 0 0 0 -1 I I #
point $-1 -73.209021271401099 -40.335675085398108 -15.310125789349708 #
straight-curve $-1 -73.209021271401099 0 -15.310125789349708 0 1 0 I I #
point $-1 -73.209021271401099 40.335675085398108 -15.310125789349708 #
End-of-ACIS-data 