500 0 18 0           
7 Unknown 11 ACIS 5.0 NT 24 Fri Mar 26 18:57:07 1999 
-1 9.9999999999999995e-007 1e-010 
body $-1 $18 $-1 $19 #
body $-1 $20 $-1 $21 #
body $-1 $22 $-1 $23 #
body $-1 $24 $-1 $25 #
body $-1 $26 $-1 $27 #
body $-1 $28 $-1 $29 #
body $-1 $30 $-1 $31 #
body $-1 $32 $-1 $33 #
body $-1 $34 $-1 $35 #
body $-1 $36 $-1 $37 #
body $-1 $38 $-1 $39 #
body $-1 $40 $-1 $41 #
body $-1 $42 $-1 $43 #
body $-1 $44 $-1 $45 #
body $-1 $46 $-1 $47 #
body $-1 $48 $-1 $49 #
body $-1 $50 $-1 $51 #
body $-1 $52 $-1 $53 #
lump $-1 $-1 $54 $0 #
transform $-1 1 0 0 0 1 0 0 0 1 51.450544755394148 24.839997035642835 6.9888882311776621 1 rotate no_reflect no_shear #
lump $-1 $-1 $55 $1 #
transform $-1 1 0 0 0 1 0 0 0 1 51.450544755394148 24.839997035642835 6.9888882311776621 1 rotate no_reflect no_shear #
lump $-1 $-1 $56 $2 #
transform $-1 1 0 0 0 1 0 0 0 1 51.450544755394148 24.839997035642835 6.9888882311776621 1 rotate no_reflect no_shear #
lump $-1 $-1 $57 $3 #
transform $-1 1 0 0 0 1 0 0 0 1 51.450544755394148 24.839997035642835 6.9888882311776621 1 rotate no_reflect no_shear #
lump $-1 $-1 $58 $4 #
transform $-1 1 0 0 0 1 0 0 0 1 51.450544755394148 24.839997035642835 6.9888882311776621 1 rotate no_reflect no_shear #
lump $-1 $-1 $59 $5 #
transform $-1 1 0 0 0 1 0 0 0 1 51.450544755394148 24.839997035642835 6.9888882311776621 1 rotate no_reflect no_shear #
lump $-1 $-1 $60 $6 #
transform $-1 1 0 0 0 1 0 0 0 1 51.450544755394148 24.839997035642835 6.9888882311776621 1 rotate no_reflect no_shear #
lump $-1 $-1 $61 $7 #
transform $-1 1 0 0 0 1 0 0 0 1 51.450544755394148 24.839997035642835 6.9888882311776621 1 rotate no_reflect no_shear #
lump $-1 $-1 $62 $8 #
transform $-1 1 0 0 0 1 0 0 0 1 51.450544755394148 24.839997035642835 6.9888882311776621 1 rotate no_reflect no_shear #
lump $-1 $-1 $63 $9 #
transform $-1 1 0 0 0 1 0 0 0 1 51.450544755394148 24.839997035642835 6.9888882311776621 1 rotate no_reflect no_shear #
lump $-1 $-1 $64 $10 #
transform $-1 1 0 0 0 1 0 0 0 1 51.450544755394148 24.839997035642835 6.9888882311776621 1 rotate no_reflect no_shear #
lump $-1 $-1 $65 $11 #
transform $-1 1 0 0 0 1 0 0 0 1 51.450544755394148 24.839997035642835 6.9888882311776621 1 rotate no_reflect no_shear #
lump $-1 $-1 $66 $12 #
transform $-1 1 0 0 0 1 0 0 0 1 51.450544755394148 24.839997035642835 6.9888882311776621 1 rotate no_reflect no_shear #
lump $-1 $-1 $67 $13 #
transform $-1 1 0 0 0 1 0 0 0 1 51.450544755394148 24.839997035642835 6.9888882311776621 1 rotate no_reflect no_shear #
lump $-1 $-1 $68 $14 #
transform $-1 1 0 0 0 1 0 0 0 1 51.450544755394148 24.839997035642835 6.9888882311776621 1 rotate no_reflect no_shear #
lump $-1 $-1 $69 $15 #
transform $-1 1 0 0 0 1 0 0 0 1 51.450544755394148 24.839997035642835 6.9888882311776621 1 rotate no_reflect no_shear #
lump $-1 $-1 $70 $16 #
transform $-1 1 0 0 0 1 0 0 0 1 51.450544755394148 24.839997035642835 6.9888882311776621 1 rotate no_reflect no_shear #
lump $-1 $-1 $71 $17 #
transform $-1 1 0 0 0 1 0 0 0 1 51.450544755394148 24.839997035642835 6.9888882311776621 1 rotate no_reflect no_shear #
shell $-1 $-1 $-1 $72 $-1 $18 #
shell $-1 $-1 $-1 $73 $-1 $20 #
shell $-1 $-1 $-1 $74 $-1 $22 #
shell $-1 $-1 $-1 $75 $-1 $24 #
shell $-1 $-1 $-1 $76 $-1 $26 #
shell $-1 $-1 $-1 $77 $-1 $28 #
shell $-1 $-1 $-1 $78 $-1 $30 #
shell $-1 $-1 $-1 $79 $-1 $32 #
shell $-1 $-1 $-1 $80 $-1 $34 #
shell $-1 $-1 $-1 $81 $-1 $36 #
shell $-1 $-1 $-1 $82 $-1 $38 #
shell $-1 $-1 $-1 $83 $-1 $40 #
shell $-1 $-1 $-1 $84 $-1 $42 #
shell $-1 $-1 $-1 $85 $-1 $44 #
shell $-1 $-1 $-1 $86 $-1 $46 #
shell $-1 $-1 $-1 $87 $-1 $48 #
shell $-1 $-1 $-1 $88 $-1 $50 #
shell $-1 $-1 $-1 $89 $-1 $52 #
face $-1 $90 $91 $54 $-1 $92 forward single #
face $-1 $93 $94 $55 $-1 $95 reversed single #
face $-1 $96 $97 $56 $-1 $98 forward single #
face $-1 $99 $100 $57 $-1 $101 reversed single #
face $-1 $102 $103 $58 $-1 $104 forward single #
face $-1 $105 $106 $59 $-1 $107 forward single #
face $-1 $108 $109 $60 $-1 $110 reversed single #
face $-1 $111 $112 $61 $-1 $113 forward single #
face $-1 $114 $115 $62 $-1 $116 forward single #
face $-1 $117 $118 $63 $-1 $119 reversed single #
face $-1 $120 $121 $64 $-1 $122 forward single #
face $-1 $123 $124 $65 $-1 $125 forward single #
face $-1 $126 $127 $66 $-1 $128 reversed single #
face $-1 $129 $130 $67 $-1 $131 forward single #
face $-1 $132 $133 $68 $-1 $134 forward single #
face $-1 $135 $136 $69 $-1 $137 reversed single #
face $-1 $138 $139 $70 $-1 $140 forward single #
face $-1 $141 $142 $71 $-1 $143 forward single #
face $-1 $144 $145 $54 $-1 $146 reversed single #
loop $-1 $-1 $147 $72 #
plane-surface $-1 0 0 6.9888882311776621 0 0 1 1 0 0 forward_v I I I I #
face $-1 $148 $149 $55 $-1 $150 reversed single #
loop $-1 $-1 $151 $73 #
plane-surface $-1 -48.545650378663048 0 3.9888882311776621 0 0 1 1 0 0 forward_v I I I I #
face $-1 $152 $153 $56 $-1 $154 reversed single #
loop $-1 $-1 $155 $74 #
plane-surface $-1 51.450544755394148 0 0 -1 0 0 0 0 1 forward_v I I I I #
face $-1 $156 $157 $57 $-1 $158 reversed single #
loop $-1 $-1 $159 $75 #
plane-surface $-1 -13.623478582995453 -86.767419385940315 83.020191015889097 -1 0 0 0 -0.6018150307709319 0.79863550430605224 forward_v I I I I #
face $-1 $160 $161 $58 $-1 $162 forward single #
loop $-1 $163 $164 $76 #
cone-surface $-1 -23.449991768259988 -19.799608014337874 2.6399691097732845 0 0.6018150307709319 -0.79863550430605224 1 0 0 1 I I 0 1 1 forward I I I I #
face $-1 $165 $166 $59 $-1 $167 forward single #
loop $-1 $168 $169 $77 #
cone-surface $-1 -17.554083857101269 -19.799608014337874 2.6399691097732845 0 0.6018150307709319 -0.79863550430605224 1 0 0 1 I I 0 1 1 forward I I I I #
face $-1 $170 $171 $60 $-1 $172 reversed single #
loop $-1 $-1 $173 $78 #
plane-surface $-1 -42.592577135849353 84.082449623309429 99.226158679719447 1 0 0 0 -0.83867057594974714 -0.54463902268945019 forward_v I I I I #
face $-1 $174 $175 $61 $-1 $176 forward single #
loop $-1 $177 $178 $79 #
cone-surface $-1 -38.868748153260285 22.122568943704891 3.6420735063799055 0 -0.83867057594974714 -0.54463902268945019 1 0 0 1 I I 0 1 1 forward I I I I #
face $-1 $179 $180 $62 $-1 $181 forward single #
loop $-1 $182 $183 $80 #
cone-surface $-1 -33.283004679376688 22.122568943704891 3.6420735063799055 0 -0.83867057594974714 -0.54463902268945019 1 0 0 1 I I 0 1 1 forward I I I I #
face $-1 $184 $185 $63 $-1 $186 reversed single #
loop $-1 $-1 $187 $81 #
plane-surface $-1 -18.781351669021557 84.082449623309429 99.226158679719447 1 0 0 0 -0.83867057594974714 -0.54463902268945019 forward_v I I I I #
face $-1 $188 $189 $64 $-1 $190 forward single #
loop $-1 $191 $192 $82 #
cone-surface $-1 -15.057522686432492 22.122568943704891 3.6420735063799055 0 -0.83867057594974714 -0.54463902268945019 1 0 0 1 I I 0 1 1 forward I I I I #
face $-1 $193 $194 $65 $-1 $195 forward single #
loop $-1 $196 $197 $83 #
cone-surface $-1 -9.4717792125488955 22.122568943704891 3.6420735063799055 0 -0.83867057594974714 -0.54463902268945019 1 0 0 1 I I 0 1 1 forward I I I I #
face $-1 $198 $199 $66 $-1 $200 reversed single #
loop $-1 $-1 $201 $84 #
plane-surface $-1 5.0298737978062427 84.082449623309429 99.226158679719447 1 0 0 0 -0.83867057594974714 -0.54463902268945019 forward_v I I I I #
face $-1 $202 $203 $67 $-1 $204 forward single #
loop $-1 $205 $206 $85 #
cone-surface $-1 8.7537027803953009 22.122568943704891 3.6420735063799055 0 -0.83867057594974714 -0.54463902268945019 1 0 0 1 I I 0 1 1 forward I I I I #
face $-1 $207 $208 $68 $-1 $209 forward single #
loop $-1 $210 $211 $86 #
cone-surface $-1 14.339446254278897 22.122568943704891 3.6420735063799055 0 -0.83867057594974714 -0.54463902268945019 1 0 0 1 I I 0 1 1 forward I I I I #
face $-1 $212 $213 $69 $-1 $214 reversed single #
loop $-1 $-1 $215 $87 #
plane-surface $-1 28.841099264634035 84.082449623309429 99.226158679719447 1 0 0 0 -0.83867057594974714 -0.54463902268945019 forward_v I I I I #
face $-1 $216 $217 $70 $-1 $218 forward single #
loop $-1 $219 $220 $88 #
cone-surface $-1 32.564928247223094 22.122568943704891 3.6420735063799055 0 -0.83867057594974714 -0.54463902268945019 1 0 0 1 I I 0 1 1 forward I I I I #
face $-1 $221 $222 $71 $-1 $223 forward single #
loop $-1 $224 $225 $89 #
cone-surface $-1 38.15067172110669 22.122568943704891 3.6420735063799055 0 -0.83867057594974714 -0.54463902268945019 1 0 0 1 I I 0 1 1 forward I I I I #
face $-1 $226 $227 $54 $-1 $228 reversed single #
loop $-1 $-1 $229 $90 #
plane-surface $-1 0 0 -6.9888882311776621 0 0 1 1 0 0 forward_v I I I I #
coedge $-1 $230 $231 $232 $233 forward $91 $-1 #
face $-1 $234 $235 $55 $-1 $236 reversed single #
loop $-1 $-1 $237 $93 #
plane-surface $-1 -45.640756001931948 0 5.4888882311776621 -1 0 0 0 0 1 forward_v I I I I #
coedge $-1 $238 $239 $240 $241 forward $94 $-1 #
face $-1 $242 $243 $56 $-1 $244 forward single #
loop $-1 $-1 $245 $96 #
plane-surface $-1 0 -24.839997035642835 0 0 1 0 0 0 1 forward_v I I I I #
coedge $-1 $246 $247 $248 $249 forward $97 $-1 #
face $-1 $250 $251 $57 $-1 $252 reversed single #
loop $-1 $-1 $253 $99 #
plane-surface $-1 -20.502037812680626 -24.839997035642838 0.83972750079846037 0 -0.6018150307709319 0.79863550430605224 1 0 0 forward_v I I I I #
coedge $-1 $254 $255 $256 $257 reversed $100 $-1 #
face $-1 $-1 $258 $58 $-1 $259 forward single #
loop $-1 $260 $261 $102 #
cone-surface $-1 -23.449991768259988 -18.538417348943472 0.96631260140547592 0 0.6018150307709319 -0.79863550430605224 0.5 0 0 1 I I -0.70710678118654746 0.70710678118654746 0.5 forward I I I I #
loop $-1 $-1 $262 $76 #
coedge $-1 $164 $164 $263 $264 reversed $103 $-1 #
face $-1 $-1 $265 $59 $-1 $266 forward single #
loop $-1 $267 $268 $105 #
cone-surface $-1 -17.554083857101269 -18.538417348943472 0.96631260140547592 0 0.6018150307709319 -0.79863550430605224 0.5 0 0 1 I I -0.70710678118654746 0.70710678118654746 0.5 forward I I I I #
loop $-1 $-1 $269 $77 #
coedge $-1 $169 $169 $270 $271 reversed $106 $-1 #
face $-1 $272 $273 $60 $-1 $274 reversed single #
loop $-1 $-1 $275 $108 #
plane-surface $-1 -36.075876416318494 -2.2176663825598695 43.182209854884078 0 0.83867057594974714 0.54463902268945019 1 0 0 forward_v I I I I #
coedge $-1 $276 $277 $278 $279 reversed $109 $-1 #
face $-1 $-1 $280 $61 $-1 $281 forward single #
loop $-1 $282 $283 $111 #
cone-surface $-1 -38.868748153260285 20.762528708277731 2.7588530788568084 0 -0.83867057594974714 -0.54463902268945019 0.5 0 0 1 I I -0.70710678118654746 0.70710678118654746 0.5 forward I I I I #
loop $-1 $-1 $284 $79 #
coedge $-1 $178 $178 $285 $286 reversed $112 $-1 #
face $-1 $-1 $287 $62 $-1 $288 forward single #
loop $-1 $289 $290 $114 #
cone-surface $-1 -33.283004679376688 20.762528708277731 2.7588530788568084 0 -0.83867057594974714 -0.54463902268945019 0.5 0 0 1 I I -0.70710678118654746 0.70710678118654746 0.5 forward I I I I #
loop $-1 $-1 $291 $80 #
coedge $-1 $183 $183 $292 $293 reversed $115 $-1 #
face $-1 $294 $295 $63 $-1 $296 reversed single #
loop $-1 $-1 $297 $117 #
plane-surface $-1 -12.264650949490694 -2.2176663825598695 43.182209854884078 0 0.83867057594974714 0.54463902268945019 1 0 0 forward_v I I I I #
coedge $-1 $298 $299 $300 $301 reversed $118 $-1 #
face $-1 $-1 $302 $64 $-1 $303 forward single #
loop $-1 $304 $305 $120 #
cone-surface $-1 -15.057522686432492 20.762528708277731 2.7588530788568084 0 -0.83867057594974714 -0.54463902268945019 0.5 0 0 1 I I -0.70710678118654746 0.70710678118654746 0.5 forward I I I I #
loop $-1 $-1 $306 $82 #
coedge $-1 $192 $192 $307 $308 reversed $121 $-1 #
face $-1 $-1 $309 $65 $-1 $310 forward single #
loop $-1 $311 $312 $123 #
cone-surface $-1 -9.4717792125488955 20.762528708277731 2.7588530788568084 0 -0.83867057594974714 -0.54463902268945019 0.5 0 0 1 I I -0.70710678118654746 0.70710678118654746 0.5 forward I I I I #
loop $-1 $-1 $313 $83 #
coedge $-1 $197 $197 $314 $315 reversed $124 $-1 #
face $-1 $316 $317 $66 $-1 $318 reversed single #
loop $-1 $-1 $319 $126 #
plane-surface $-1 11.546574517337106 -2.2176663825598695 43.182209854884078 0 0.83867057594974714 0.54463902268945019 1 0 0 forward_v I I I I #
coedge $-1 $320 $321 $322 $323 reversed $127 $-1 #
face $-1 $-1 $324 $67 $-1 $325 forward single #
loop $-1 $326 $327 $129 #
cone-surface $-1 8.7537027803953009 20.762528708277731 2.7588530788568084 0 -0.83867057594974714 -0.54463902268945019 0.5 0 0 1 I I -0.70710678118654746 0.70710678118654746 0.5 forward I I I I #
loop $-1 $-1 $328 $85 #
coedge $-1 $206 $206 $329 $330 reversed $130 $-1 #
face $-1 $-1 $331 $68 $-1 $332 forward single #
loop $-1 $333 $334 $132 #
cone-surface $-1 14.339446254278897 20.762528708277731 2.7588530788568084 0 -0.83867057594974714 -0.54463902268945019 0.5 0 0 1 I I -0.70710678118654746 0.70710678118654746 0.5 forward I I I I #
loop $-1 $-1 $335 $86 #
coedge $-1 $211 $211 $336 $337 reversed $133 $-1 #
face $-1 $338 $339 $69 $-1 $340 reversed single #
loop $-1 $-1 $341 $135 #
plane-surface $-1 35.357799984164899 -2.2176663825598695 43.182209854884078 0 0.83867057594974714 0.54463902268945019 1 0 0 forward_v I I I I #
coedge $-1 $342 $343 $344 $345 reversed $136 $-1 #
face $-1 $-1 $346 $70 $-1 $347 forward single #
loop $-1 $348 $349 $138 #
cone-surface $-1 32.564928247223094 20.762528708277731 2.7588530788568084 0 -0.83867057594974714 -0.54463902268945019 0.5 0 0 1 I I -0.70710678118654746 0.70710678118654746 0.5 forward I I I I #
loop $-1 $-1 $350 $88 #
coedge $-1 $220 $220 $351 $352 reversed $139 $-1 #
face $-1 $-1 $353 $71 $-1 $354 forward single #
loop $-1 $355 $356 $141 #
cone-surface $-1 38.15067172110669 20.762528708277731 2.7588530788568084 0 -0.83867057594974714 -0.54463902268945019 0.5 0 0 1 I I -0.70710678118654746 0.70710678118654746 0.5 forward I I I I #
loop $-1 $-1 $357 $89 #
coedge $-1 $225 $225 $358 $359 reversed $142 $-1 #
face $-1 $360 $361 $54 $-1 $362 reversed single #
loop $-1 $-1 $363 $144 #
plane-surface $-1 0 -24.839997035642835 0 0 1 0 0 0 1 forward_v I I I I #
coedge $-1 $364 $365 $366 $367 forward $145 $-1 #
coedge $-1 $368 $147 $369 $370 forward $91 $-1 #
coedge $-1 $147 $368 $371 $372 forward $91 $-1 #
coedge $-1 $373 $374 $147 $233 reversed $375 $-1 #
edge $-1 $376 -24.839997035642835 $377 24.839997035642835 $232 $378 forward 7 unknown #
face $-1 $379 $380 $55 $-1 $381 reversed single #
loop $-1 $-1 $382 $148 #
plane-surface $-1 0 24.839997035642835 0 0 -1 0 0 0 -1 forward_v I I I I #
coedge $-1 $240 $383 $384 $385 reversed $149 $-1 #
coedge $-1 $386 $151 $387 $388 reversed $94 $-1 #
coedge $-1 $151 $386 $389 $390 reversed $94 $-1 #
coedge $-1 $391 $237 $151 $241 reversed $149 $-1 #
edge $-1 $392 -24.839997035642835 $393 24.839997035642835 $240 $394 forward 7 unknown #
face $-1 $395 $396 $56 $-1 $397 reversed single #
loop $-1 $-1 $398 $152 #
plane-surface $-1 54.714477348202038 0 -3.9888882311776621 0 0 1 1 0 0 forward_v I I I I #
coedge $-1 $399 $400 $247 $401 forward $153 $-1 #
coedge $-1 $402 $155 $403 $404 reversed $97 $-1 #
coedge $-1 $155 $402 $245 $401 reversed $97 $-1 #
coedge $-1 $405 $406 $155 $249 reversed $243 $-1 #
edge $-1 $407 -24.839997035642835 $408 24.839997035642835 $248 $409 forward 7 unknown #
face $-1 $410 $411 $57 $-1 $412 forward single #
loop $-1 $-1 $413 $156 #
plane-surface $-1 -27.3805970423658 -86.767419385940315 83.020191015889097 1 0 0 0 0.6018150307709319 -0.79863550430605224 forward_v I I I I #
coedge $-1 $414 $415 $416 $417 reversed $157 $-1 #
coedge $-1 $255 $159 $418 $419 reversed $100 $-1 #
coedge $-1 $159 $254 $414 $420 reversed $100 $-1 #
coedge $-1 $416 $421 $159 $257 forward $411 $-1 #
edge $-1 $422 18.543712657327323 $423 26.703924399919387 $256 $424 forward 7 unknown #
loop $-1 $-1 $263 $160 #
plane-surface $-1 -20.502037812680626 -24.839997035642838 0.83972750079846037 0 -0.6018150307709319 0.79863550430605224 1 0 0 forward_v I I I I #
loop $-1 $-1 $425 $102 #
coedge $-1 $261 $261 $262 $426 reversed $161 $-1 #
coedge $-1 $262 $262 $261 $426 forward $163 $-1 #
coedge $-1 $263 $263 $164 $264 forward $258 $-1 #
edge $-1 $427 1.1715701418404661e-015 $427 6.2831853071796013 $263 $428 forward 7 unknown #
loop $-1 $-1 $270 $165 #
plane-surface $-1 -20.502037812680626 -24.839997035642838 0.83972750079846037 0 -0.6018150307709319 0.79863550430605224 1 0 0 forward_v I I I I #
loop $-1 $-1 $429 $105 #
coedge $-1 $268 $268 $269 $430 reversed $166 $-1 #
coedge $-1 $269 $269 $268 $430 forward $168 $-1 #
coedge $-1 $270 $270 $169 $271 forward $265 $-1 #
edge $-1 $431 1.1715701418404661e-015 $431 6.2831853071796013 $270 $432 forward 7 unknown #
face $-1 $433 $434 $60 $-1 $435 reversed single #
loop $-1 $-1 $436 $170 #
plane-surface $-1 -29.55917569678763 84.082449623309429 99.226158679719447 -1 0 0 0 0.83867057594974714 0.54463902268945019 forward_v I I I I #
coedge $-1 $437 $438 $439 $440 reversed $171 $-1 #
coedge $-1 $277 $173 $441 $442 reversed $109 $-1 #
coedge $-1 $173 $276 $437 $443 reversed $109 $-1 #
coedge $-1 $439 $444 $173 $279 forward $445 $-1 #
edge $-1 $446 17.20122777601188 $447 20.754674064983188 $278 $448 forward 7 unknown #
loop $-1 $-1 $285 $174 #
plane-surface $-1 -36.075876416318494 -2.2176663825598695 43.182209854884078 0 0.83867057594974714 0.54463902268945019 1 0 0 forward_v I I I I #
loop $-1 $-1 $449 $111 #
coedge $-1 $283 $283 $284 $450 reversed $175 $-1 #
coedge $-1 $284 $284 $283 $450 forward $177 $-1 #
coedge $-1 $285 $285 $178 $286 forward $280 $-1 #
edge $-1 $451 -2.3801147982426114e-015 $451 6.2831853071795978 $285 $452 forward 7 unknown #
loop $-1 $-1 $292 $179 #
plane-surface $-1 -36.075876416318494 -2.2176663825598695 43.182209854884078 0 0.83867057594974714 0.54463902268945019 1 0 0 forward_v I I I I #
loop $-1 $-1 $453 $114 #
coedge $-1 $290 $290 $291 $454 reversed $180 $-1 #
coedge $-1 $291 $291 $290 $454 forward $182 $-1 #
coedge $-1 $292 $292 $183 $293 forward $287 $-1 #
edge $-1 $455 -2.3801147982426114e-015 $455 6.2831853071795978 $292 $456 forward 7 unknown #
face $-1 $457 $458 $63 $-1 $459 reversed single #
loop $-1 $-1 $460 $184 #
plane-surface $-1 -5.7479502299598302 84.082449623309429 99.226158679719447 -1 0 0 0 0.83867057594974714 0.54463902268945019 forward_v I I I I #
coedge $-1 $461 $462 $463 $464 reversed $185 $-1 #
coedge $-1 $299 $187 $465 $466 reversed $118 $-1 #
coedge $-1 $187 $298 $461 $467 reversed $118 $-1 #
coedge $-1 $463 $468 $187 $301 forward $469 $-1 #
edge $-1 $470 17.20122777601188 $471 20.754674064983188 $300 $472 forward 7 unknown #
loop $-1 $-1 $307 $188 #
plane-surface $-1 -12.264650949490694 -2.2176663825598695 43.182209854884078 0 0.83867057594974714 0.54463902268945019 1 0 0 forward_v I I I I #
loop $-1 $-1 $473 $120 #
coedge $-1 $305 $305 $306 $474 reversed $189 $-1 #
coedge $-1 $306 $306 $305 $474 forward $191 $-1 #
coedge $-1 $307 $307 $192 $308 forward $302 $-1 #
edge $-1 $475 -2.3801147982426114e-015 $475 6.2831853071795978 $307 $476 forward 7 unknown #
loop $-1 $-1 $314 $193 #
plane-surface $-1 -12.264650949490694 -2.2176663825598695 43.182209854884078 0 0.83867057594974714 0.54463902268945019 1 0 0 forward_v I I I I #
loop $-1 $-1 $477 $123 #
coedge $-1 $312 $312 $313 $478 reversed $194 $-1 #
coedge $-1 $313 $313 $312 $478 forward $196 $-1 #
coedge $-1 $314 $314 $197 $315 forward $309 $-1 #
edge $-1 $479 -2.3801147982426114e-015 $479 6.2831853071795978 $314 $480 forward 7 unknown #
face $-1 $481 $482 $66 $-1 $483 forward single #
loop $-1 $-1 $484 $198 #
plane-surface $-1 18.06327523686797 84.082449623309429 99.226158679719447 -1 0 0 0 0.83867057594974714 0.54463902268945019 forward_v I I I I #
coedge $-1 $485 $486 $487 $488 reversed $199 $-1 #
coedge $-1 $321 $201 $489 $490 reversed $127 $-1 #
coedge $-1 $201 $320 $485 $491 reversed $127 $-1 #
coedge $-1 $487 $492 $201 $323 forward $482 $-1 #
edge $-1 $493 17.20122777601188 $494 20.754674064983188 $322 $495 forward 7 unknown #
loop $-1 $-1 $329 $202 #
plane-surface $-1 11.546574517337106 -2.2176663825598695 43.182209854884078 0 0.83867057594974714 0.54463902268945019 1 0 0 forward_v I I I I #
loop $-1 $-1 $496 $129 #
coedge $-1 $327 $327 $328 $497 reversed $203 $-1 #
coedge $-1 $328 $328 $327 $497 forward $205 $-1 #
coedge $-1 $329 $329 $206 $330 forward $324 $-1 #
edge $-1 $498 -2.3801147982426114e-015 $498 6.2831853071795978 $329 $499 forward 7 unknown #
loop $-1 $-1 $336 $207 #
plane-surface $-1 11.546574517337106 -2.2176663825598695 43.182209854884078 0 0.83867057594974714 0.54463902268945019 1 0 0 forward_v I I I I #
loop $-1 $-1 $500 $132 #
coedge $-1 $334 $334 $335 $501 reversed $208 $-1 #
coedge $-1 $335 $335 $334 $501 forward $210 $-1 #
coedge $-1 $336 $336 $211 $337 forward $331 $-1 #
edge $-1 $502 -2.3801147982426114e-015 $502 6.2831853071795978 $336 $503 forward 7 unknown #
face $-1 $504 $505 $69 $-1 $506 forward single #
loop $-1 $-1 $507 $212 #
plane-surface $-1 41.874500703695759 84.082449623309429 99.226158679719447 -1 0 0 0 0.83867057594974714 0.54463902268945019 forward_v I I I I #
coedge $-1 $508 $509 $510 $511 reversed $213 $-1 #
coedge $-1 $343 $215 $512 $513 reversed $136 $-1 #
coedge $-1 $215 $342 $508 $514 reversed $136 $-1 #
coedge $-1 $510 $515 $215 $345 forward $505 $-1 #
edge $-1 $516 17.20122777601188 $517 20.754674064983188 $344 $518 forward 7 unknown #
loop $-1 $-1 $351 $216 #
plane-surface $-1 35.357799984164899 -2.2176663825598695 43.182209854884078 0 0.83867057594974714 0.54463902268945019 1 0 0 forward_v I I I I #
loop $-1 $-1 $519 $138 #
coedge $-1 $349 $349 $350 $520 reversed $217 $-1 #
coedge $-1 $350 $350 $349 $520 forward $219 $-1 #
coedge $-1 $351 $351 $220 $352 forward $346 $-1 #
edge $-1 $521 -2.3801147982426114e-015 $521 6.2831853071795978 $351 $522 forward 7 unknown #
loop $-1 $-1 $358 $221 #
plane-surface $-1 35.357799984164899 -2.2176663825598695 43.182209854884078 0 0.83867057594974714 0.54463902268945019 1 0 0 forward_v I I I I #
loop $-1 $-1 $523 $141 #
coedge $-1 $356 $356 $357 $524 reversed $222 $-1 #
coedge $-1 $357 $357 $356 $524 forward $224 $-1 #
coedge $-1 $358 $358 $225 $359 forward $353 $-1 #
edge $-1 $525 -2.3801147982426114e-015 $525 6.2831853071795978 $358 $526 forward 7 unknown #
face $-1 $527 $528 $54 $-1 $529 reversed single #
loop $-1 $-1 $530 $226 #
plane-surface $-1 -51.450544755394148 0 0 1 0 0 0 0 -1 forward_v I I I I #
coedge $-1 $531 $371 $532 $533 forward $227 $-1 #
coedge $-1 $534 $229 $531 $535 forward $145 $-1 #
coedge $-1 $229 $534 $536 $537 forward $145 $-1 #
coedge $-1 $374 $373 $229 $367 reversed $375 $-1 #
edge $-1 $538 -24.839997035642835 $539 24.839997035642835 $366 $540 forward 7 unknown #
coedge $-1 $231 $230 $541 $542 forward $91 $-1 #
coedge $-1 $543 $544 $230 $370 reversed $528 $-1 #
edge $-1 $377 -51.450544755394148 $545 51.450544755394148 $369 $546 forward 7 unknown #
coedge $-1 $363 $547 $231 $372 reversed $227 $-1 #
edge $-1 $548 -51.450544755394148 $376 51.450544755394148 $371 $549 forward 7 unknown #
coedge $-1 $366 $232 $547 $550 forward $375 $-1 #
coedge $-1 $232 $366 $543 $551 reversed $375 $-1 #
loop $-1 $-1 $373 $527 #
vertex $-1 $233 $552 #
vertex $-1 $233 $553 #
straight-curve $-1 51.450544755394148 0 6.9888882311776621 0 1 0 I I #
face $-1 $554 $555 $55 $-1 $556 forward single #
loop $-1 $-1 $557 $234 #
plane-surface $-1 -51.450544755394148 0 0 1 0 0 0 0 -1 forward_v I I I I #
coedge $-1 $389 $558 $391 $559 forward $235 $-1 #
coedge $-1 $237 $391 $560 $561 reversed $149 $-1 #
coedge $-1 $562 $387 $237 $385 forward $563 $-1 #
edge $-1 $393 1.2444441155888311 $564 4.2444441155888306 $384 $565 forward 7 unknown #
coedge $-1 $239 $238 $557 $566 reversed $94 $-1 #
coedge $-1 $384 $567 $238 $388 forward $563 $-1 #
edge $-1 $568 -27.177719566062624 $393 -21.367930812600424 $387 $569 forward 7 unknown #
coedge $-1 $570 $382 $239 $390 forward $235 $-1 #
edge $-1 $392 21.367930812600424 $571 27.177719566062624 $389 $572 forward 7 unknown #
coedge $-1 $383 $240 $382 $559 reversed $149 $-1 #
vertex $-1 $390 $573 #
vertex $-1 $388 $574 #
straight-curve $-1 -45.640756001931948 0 3.9888882311776621 0 -1 0 I I #
face $-1 $575 $576 $56 $-1 $577 reversed single #
loop $-1 $-1 $578 $242 #
plane-surface $-1 57.978409941009936 0 -5.4888882311776621 -1 0 0 0 0 1 forward_v I I I I #
coedge $-1 $406 $405 $579 $580 forward $243 $-1 #
coedge $-1 $581 $245 $582 $583 reversed $153 $-1 #
coedge $-1 $245 $581 $405 $584 reversed $153 $-1 #
edge $-1 $407 3.9888882311776621 $585 6.9888882311776621 $245 $586 forward 7 unknown #
coedge $-1 $247 $246 $587 $588 reversed $97 $-1 #
coedge $-1 $589 $590 $246 $404 forward $591 $-1 #
edge $-1 $592 -6.9888882311776621 $408 -3.9888882311776621 $403 $593 forward 7 unknown #
coedge $-1 $398 $248 $400 $584 forward $243 $-1 #
coedge $-1 $248 $398 $589 $594 forward $243 $-1 #
vertex $-1 $401 $595 #
vertex $-1 $594 $596 #
straight-curve $-1 51.450544755394148 0 -3.9888882311776621 0 1 0 I I #
face $-1 $-1 $597 $57 $-1 $598 reversed single #
loop $-1 $-1 $256 $250 #
plane-surface $-1 0 0 6.9888882311776621 0 0 1 1 0 0 forward_v I I I I #
coedge $-1 $599 $600 $601 $602 reversed $251 $-1 #
coedge $-1 $603 $253 $255 $420 forward $157 $-1 #
coedge $-1 $253 $603 $599 $604 forward $157 $-1 #
coedge $-1 $601 $256 $253 $417 forward $411 $-1 #
edge $-1 $423 3.37245967665514 $605 17.129578136025486 $416 $606 forward 7 unknown #
coedge $-1 $607 $608 $254 $419 forward $597 $-1 #
edge $-1 $609 -40.670368007146088 $422 -34.521207276766887 $418 $610 forward 7 unknown #
edge $-1 $423 -10.217692174457751 $609 -4.4408806494695735e-015 $255 $611 forward 7 unknown #
coedge $-1 $256 $601 $607 $612 forward $411 $-1 #
vertex $-1 $257 $613 #
vertex $-1 $257 $614 #
straight-curve $-1 -13.623478582995453 -43.383709692970157 6.9888882311776612 0 1 0 I I #
coedge $-1 $425 $425 $-1 $615 reversed $260 $-1 #
edge $-1 $616 0 $616 6.2831853071796004 $261 $617 forward 7 unknown #
vertex $-1 $264 $618 #
ellipse-curve $-1 -23.449991768259988 -20.759891164346804 3.9143078659880608 0 -0.6018150307709319 0.79863550430605224 1 0 0 1 I I #
coedge $-1 $429 $429 $-1 $619 reversed $267 $-1 #
edge $-1 $620 0 $620 6.2831853071796004 $268 $621 forward 7 unknown #
vertex $-1 $271 $622 #
ellipse-curve $-1 -17.554083857101269 -20.759891164346804 3.9143078659880608 0 -0.6018150307709319 0.79863550430605224 1 0 0 1 I I #
face $-1 $-1 $445 $60 $-1 $623 forward single #
loop $-1 $-1 $624 $272 #
plane-surface $-1 0 24.839997035642835 0 0 -1 0 0 0 -1 forward_v I I I I #
coedge $-1 $625 $626 $627 $628 reversed $273 $-1 #
coedge $-1 $629 $275 $277 $443 forward $171 $-1 #
coedge $-1 $275 $629 $625 $630 forward $171 $-1 #
coedge $-1 $627 $278 $275 $440 forward $445 $-1 #
edge $-1 $447 -24.554638927690107 $631 -11.521237488628383 $439 $632 forward 7 unknown #
coedge $-1 $633 $634 $276 $442 forward $434 $-1 #
edge $-1 $635 -48.096018725920814 $446 -42.624191108682062 $441 $636 forward 7 unknown #
edge $-1 $447 43.155587738033518 $635 49.679994071285662 $277 $637 forward 7 unknown #
coedge $-1 $278 $627 $633 $638 forward $445 $-1 #
loop $-1 $-1 $627 $433 #
vertex $-1 $442 $639 #
vertex $-1 $279 $640 #
straight-curve $-1 -42.592577135849353 42.041224811654715 6.9888882311776612 0 -1 0 I I #
coedge $-1 $449 $449 $-1 $641 reversed $282 $-1 #
edge $-1 $642 0 $642 6.2831853071796004 $283 $643 forward 7 unknown #
vertex $-1 $286 $644 #
ellipse-curve $-1 -38.868748153260285 23.063273891157181 4.2529744225582791 0 0.83867057594974714 0.54463902268945019 1 0 0 1 I I #
coedge $-1 $453 $453 $-1 $645 reversed $289 $-1 #
edge $-1 $646 0 $646 6.2831853071796004 $290 $647 forward 7 unknown #
vertex $-1 $293 $648 #
ellipse-curve $-1 -33.283004679376688 23.063273891157181 4.2529744225582791 0 0.83867057594974714 0.54463902268945019 1 0 0 1 I I #
face $-1 $-1 $469 $63 $-1 $649 forward single #
loop $-1 $-1 $650 $294 #
plane-surface $-1 0 24.839997035642835 0 0 -1 0 0 0 -1 forward_v I I I I #
coedge $-1 $651 $652 $653 $654 reversed $295 $-1 #
coedge $-1 $655 $297 $299 $467 forward $185 $-1 #
coedge $-1 $297 $655 $651 $656 forward $185 $-1 #
coedge $-1 $653 $300 $297 $464 forward $469 $-1 #
edge $-1 $471 -12.64902619427621 $657 0.38437524478551666 $463 $658 forward 7 unknown #
coedge $-1 $659 $660 $298 $466 forward $458 $-1 #
edge $-1 $661 -48.096018725920814 $470 -42.624191108682062 $465 $662 forward 7 unknown #
edge $-1 $471 43.155587738033518 $661 49.679994071285662 $299 $663 forward 7 unknown #
coedge $-1 $300 $653 $659 $664 forward $469 $-1 #
loop $-1 $-1 $653 $457 #
vertex $-1 $466 $665 #
vertex $-1 $301 $666 #
straight-curve $-1 -18.781351669021557 42.041224811654715 6.9888882311776612 0 -1 0 I I #
coedge $-1 $473 $473 $-1 $667 reversed $304 $-1 #
edge $-1 $668 0 $668 6.2831853071796004 $305 $669 forward 7 unknown #
vertex $-1 $308 $670 #
ellipse-curve $-1 -15.057522686432492 23.063273891157181 4.2529744225582791 0 0.83867057594974714 0.54463902268945019 1 0 0 1 I I #
coedge $-1 $477 $477 $-1 $671 reversed $311 $-1 #
edge $-1 $672 0 $672 6.2831853071796004 $312 $673 forward 7 unknown #
vertex $-1 $315 $674 #
ellipse-curve $-1 -9.4717792125488955 23.063273891157181 4.2529744225582791 0 0.83867057594974714 0.54463902268945019 1 0 0 1 I I #
face $-1 $-1 $675 $66 $-1 $676 reversed single #
loop $-1 $-1 $322 $316 #
plane-surface $-1 0 0 6.9888882311776621 0 0 1 1 0 0 forward_v I I I I #
coedge $-1 $677 $678 $679 $680 reversed $317 $-1 #
coedge $-1 $681 $319 $321 $491 forward $199 $-1 #
coedge $-1 $319 $681 $677 $682 forward $199 $-1 #
coedge $-1 $679 $322 $319 $488 forward $482 $-1 #
edge $-1 $494 -0.74341346086231042 $683 12.289987978199417 $487 $684 forward 7 unknown #
coedge $-1 $685 $686 $320 $490 forward $675 $-1 #
edge $-1 $687 -48.096018725920814 $493 -42.624191108682062 $489 $688 forward 7 unknown #
edge $-1 $494 43.155587738033518 $687 49.679994071285662 $321 $689 forward 7 unknown #
coedge $-1 $322 $679 $685 $690 forward $482 $-1 #
vertex $-1 $323 $691 #
vertex $-1 $323 $692 #
straight-curve $-1 5.0298737978062427 42.041224811654715 6.9888882311776612 0 -1 0 I I #
coedge $-1 $496 $496 $-1 $693 reversed $326 $-1 #
edge $-1 $694 0 $694 6.2831853071796004 $327 $695 forward 7 unknown #
vertex $-1 $330 $696 #
ellipse-curve $-1 8.7537027803953009 23.063273891157181 4.2529744225582791 0 0.83867057594974714 0.54463902268945019 1 0 0 1 I I #
coedge $-1 $500 $500 $-1 $697 reversed $333 $-1 #
edge $-1 $698 0 $698 6.2831853071796004 $334 $699 forward 7 unknown #
vertex $-1 $337 $700 #
ellipse-curve $-1 14.339446254278897 23.063273891157181 4.2529744225582791 0 0.83867057594974714 0.54463902268945019 1 0 0 1 I I #
face $-1 $-1 $701 $69 $-1 $702 reversed single #
loop $-1 $-1 $344 $338 #
plane-surface $-1 0 0 6.9888882311776621 0 0 1 1 0 0 forward_v I I I I #
coedge $-1 $703 $704 $705 $706 reversed $339 $-1 #
coedge $-1 $707 $341 $343 $514 forward $213 $-1 #
coedge $-1 $341 $707 $703 $708 forward $213 $-1 #
coedge $-1 $705 $344 $341 $511 forward $505 $-1 #
edge $-1 $517 11.162199272551586 $709 24.195600711613309 $510 $710 forward 7 unknown #
coedge $-1 $711 $712 $342 $513 forward $701 $-1 #
edge $-1 $713 -48.096018725920814 $516 -42.624191108682062 $512 $714 forward 7 unknown #
edge $-1 $517 43.155587738033518 $713 49.679994071285662 $343 $715 forward 7 unknown #
coedge $-1 $344 $705 $711 $716 forward $505 $-1 #
vertex $-1 $345 $717 #
vertex $-1 $345 $718 #
straight-curve $-1 28.841099264634035 42.041224811654715 6.9888882311776612 0 -1 0 I I #
coedge $-1 $519 $519 $-1 $719 reversed $348 $-1 #
edge $-1 $720 0 $720 6.2831853071796004 $349 $721 forward 7 unknown #
vertex $-1 $352 $722 #
ellipse-curve $-1 32.564928247223094 23.063273891157181 4.2529744225582791 0 0.83867057594974714 0.54463902268945019 1 0 0 1 I I #
coedge $-1 $523 $523 $-1 $723 reversed $355 $-1 #
edge $-1 $724 0 $724 6.2831853071796004 $356 $725 forward 7 unknown #
vertex $-1 $359 $726 #
ellipse-curve $-1 38.15067172110669 23.063273891157181 4.2529744225582791 0 0.83867057594974714 0.54463902268945019 1 0 0 1 I I #
face $-1 $-1 $375 $54 $-1 $727 reversed single #
loop $-1 $-1 $543 $360 #
plane-surface $-1 0 24.839997035642835 0 0 -1 0 0 0 -1 forward_v I I I I #
coedge $-1 $728 $541 $544 $729 forward $361 $-1 #
coedge $-1 $547 $363 $364 $535 reversed $227 $-1 #
coedge $-1 $541 $728 $363 $533 reversed $361 $-1 #
edge $-1 $548 -6.9888882311776621 $730 6.9888882311776621 $532 $731 forward 7 unknown #
coedge $-1 $365 $364 $728 $732 forward $145 $-1 #
edge $-1 $539 -51.450544755394148 $730 51.450544755394148 $531 $733 forward 7 unknown #
coedge $-1 $544 $543 $365 $537 reversed $528 $-1 #
edge $-1 $734 -51.450544755394148 $538 51.450544755394148 $536 $735 forward 7 unknown #
vertex $-1 $367 $736 #
vertex $-1 $550 $737 #
straight-curve $-1 51.450544755394148 0 -6.9888882311776621 0 -1 0 I I #
coedge $-1 $530 $532 $368 $542 reversed $361 $-1 #
edge $-1 $545 -24.839997035642835 $548 24.839997035642835 $541 $738 forward 7 unknown #
coedge $-1 $536 $369 $374 $551 forward $528 $-1 #
coedge $-1 $369 $536 $530 $729 reversed $528 $-1 #
vertex $-1 $370 $739 #
straight-curve $-1 0 24.839997035642835 6.9888882311776621 -1 0 0 I I #
coedge $-1 $371 $531 $373 $550 reversed $227 $-1 #
vertex $-1 $542 $740 #
straight-curve $-1 0 -24.839997035642835 6.9888882311776621 1 0 0 I I #
edge $-1 $376 -6.9888882311776621 $539 6.9888882311776621 $373 $741 forward 7 unknown #
edge $-1 $377 -6.9888882311776621 $538 6.9888882311776621 $374 $742 forward 7 unknown #
point $-1 51.450544755394148 -24.839997035642835 6.9888882311776621 #
point $-1 51.450544755394148 24.839997035642835 6.9888882311776621 #
face $-1 $-1 $563 $55 $-1 $743 reversed single #
loop $-1 $-1 $560 $379 #
plane-surface $-1 0 0 6.9888882311776621 0 0 1 1 0 0 forward_v I I I I #
coedge $-1 $744 $745 $386 $566 forward $380 $-1 #
coedge $-1 $382 $570 $746 $747 reversed $235 $-1 #
edge $-1 $748 -4.2444441155888306 $392 -1.2444441155888311 $382 $749 forward 7 unknown #
coedge $-1 $746 $750 $383 $561 forward $555 $-1 #
edge $-1 $564 -24.839997035642835 $748 24.839997035642835 $560 $751 forward 7 unknown #
coedge $-1 $567 $384 $750 $752 reversed $563 $-1 #
loop $-1 $-1 $384 $554 #
vertex $-1 $385 $753 #
straight-curve $-1 -45.640756001931948 -24.839997035642835 2.7444441155888311 0 0 1 I I #
edge $-1 $571 -24.839997035642835 $568 24.839997035642835 $557 $754 forward 7 unknown #
coedge $-1 $387 $562 $744 $755 forward $563 $-1 #
vertex $-1 $566 $756 #
straight-curve $-1 -24.272825189331524 -24.839997035642835 3.9888882311776621 1 0 0 I I #
coedge $-1 $558 $389 $745 $757 reversed $235 $-1 #
vertex $-1 $566 $758 #
straight-curve $-1 -24.272825189331524 24.839997035642835 3.9888882311776621 -1 0 0 I I #
point $-1 -45.640756001931948 24.839997035642835 3.9888882311776621 #
point $-1 -45.640756001931948 -24.839997035642835 3.9888882311776621 #
face $-1 $-1 $591 $56 $-1 $759 reversed single #
loop $-1 $-1 $587 $395 #
plane-surface $-1 0 0 -6.9888882311776621 0 0 1 1 0 0 forward_v I I I I #
coedge $-1 $760 $579 $581 $761 forward $396 $-1 #
coedge $-1 $578 $762 $398 $580 reversed $396 $-1 #
edge $-1 $763 -24.839997035642835 $764 24.839997035642835 $579 $765 forward 7 unknown #
coedge $-1 $400 $399 $578 $761 reversed $153 $-1 #
coedge $-1 $587 $766 $399 $583 forward $576 $-1 #
edge $-1 $767 -3.2639325928078975 $585 3.2639325928078904 $399 $768 forward 7 unknown #
edge $-1 $407 -3.2639325928078975 $763 3.2639325928078975 $400 $769 forward 7 unknown #
vertex $-1 $588 $770 #
straight-curve $-1 51.450544755394148 -24.839997035642835 0 0 0 -1 I I #
coedge $-1 $771 $582 $402 $588 forward $576 $-1 #
edge $-1 $585 -24.839997035642835 $592 24.839997035642835 $587 $772 forward 7 unknown #
coedge $-1 $773 $403 $406 $594 reversed $591 $-1 #
coedge $-1 $403 $773 $771 $774 reversed $591 $-1 #
loop $-1 $-1 $403 $575 #
vertex $-1 $774 $775 #
straight-curve $-1 51.450544755394148 24.839997035642835 0 0 0 1 I I #
edge $-1 $764 -3.2639325928078975 $408 3.2639325928078975 $589 $776 forward 7 unknown #
point $-1 51.450544755394141 -24.839997035642835 -3.9888882311776621 #
point $-1 51.450544755394141 24.839997035642835 -3.9888882311776621 #
loop $-1 $-1 $418 $410 #
plane-surface $-1 0 -24.839997035642835 0 0 1 0 0 0 1 forward_v I I I I #
coedge $-1 $600 $413 $415 $604 reversed $251 $-1 #
coedge $-1 $413 $599 $777 $778 reversed $251 $-1 #
coedge $-1 $421 $416 $413 $602 forward $411 $-1 #
edge $-1 $605 -26.703924399919387 $779 -18.543712657327323 $601 $780 forward 7 unknown #
coedge $-1 $415 $414 $608 $781 reversed $157 $-1 #
edge $-1 $782 4.4408806494695735e-015 $605 10.217692174457751 $599 $783 forward 7 unknown #
vertex $-1 $417 $784 #
straight-curve $-1 -10.251018906340313 -16.67978529305077 6.9888882311776621 -1 0 0 I I #
coedge $-1 $777 $418 $421 $612 reversed $597 $-1 #
coedge $-1 $418 $777 $603 $781 forward $597 $-1 #
vertex $-1 $419 $785 #
straight-curve $-1 -13.623478582995453 -24.839997035642835 41.510095507944548 0 0 1 I I #
straight-curve $-1 -13.623478582995453 -24.839997035642838 0.83972750079846037 0 -0.79863550430605224 -0.6018150307709319 I I #
edge $-1 $779 -27.3805970423658 $422 -13.623478582995453 $607 $786 forward 7 unknown #
point $-1 -13.623478582995453 -24.839997035642835 6.9888882311776621 #
point $-1 -13.623478582995453 -16.67978529305077 6.9888882311776621 #
edge $-1 $787 1 $787 0 $425 $-1 forward 7 unknown #
vertex $-1 $426 $788 #
ellipse-curve $-1 -23.449991768259988 -18.839324864328937 1.3656303535585019 0 -0.6018150307709319 0.79863550430605224 1 0 0 1 I I #
point $-1 -22.449991768259988 -20.759891164346808 3.9143078659880675 #
edge $-1 $789 1 $789 0 $429 $-1 forward 7 unknown #
vertex $-1 $430 $790 #
ellipse-curve $-1 -17.554083857101269 -18.839324864328937 1.3656303535585019 0 -0.6018150307709319 0.79863550430605224 1 0 0 1 I I #
point $-1 -16.554083857101269 -20.759891164346808 3.9143078659880675 #
plane-surface $-1 0 0 6.9888882311776621 0 0 1 1 0 0 forward_v I I I I #
coedge $-1 $634 $633 $626 $791 forward $434 $-1 #
coedge $-1 $626 $436 $438 $630 reversed $273 $-1 #
coedge $-1 $436 $625 $624 $791 reversed $273 $-1 #
coedge $-1 $444 $439 $436 $628 forward $445 $-1 #
edge $-1 $631 -20.754674064983188 $792 -17.20122777601188 $627 $793 forward 7 unknown #
coedge $-1 $438 $437 $634 $794 reversed $171 $-1 #
edge $-1 $795 -49.679994071285662 $631 -43.155587738033518 $625 $796 forward 7 unknown #
vertex $-1 $440 $797 #
straight-curve $-1 -18.037938208159247 21.286550746671526 6.9888882311776612 1 0 0 I I #
coedge $-1 $624 $441 $444 $638 reversed $434 $-1 #
coedge $-1 $441 $624 $629 $794 forward $434 $-1 #
vertex $-1 $442 $798 #
straight-curve $-1 -42.592577135849353 24.839997035642835 49.613079339859723 0 0 1 I I #
straight-curve $-1 -42.592577135849353 -2.2176663825598695 43.182209854884078 0 0.54463902268945019 -0.83867057594974714 I I #
edge $-1 $792 29.55917569678763 $446 42.592577135849353 $633 $799 forward 7 unknown #
point $-1 -42.592577135849353 24.839997035642835 6.9888882311776621 #
point $-1 -42.592577135849353 21.286550746671526 6.9888882311776612 #
edge $-1 $800 1 $800 0 $449 $-1 forward 7 unknown #
vertex $-1 $450 $801 #
ellipse-curve $-1 -38.868748153260285 21.181863996252606 3.0311725902015336 0 0.83867057594974714 0.54463902268945019 1 0 0 1 I I #
point $-1 -37.868748153260285 23.063273891157174 4.2529744225582773 #
edge $-1 $802 1 $802 0 $453 $-1 forward 7 unknown #
vertex $-1 $454 $803 #
ellipse-curve $-1 -33.283004679376688 21.181863996252606 3.0311725902015336 0 0.83867057594974714 0.54463902268945019 1 0 0 1 I I #
point $-1 -32.283004679376688 23.063273891157174 4.2529744225582773 #
plane-surface $-1 0 0 6.9888882311776621 0 0 1 1 0 0 forward_v I I I I #
coedge $-1 $660 $659 $652 $804 forward $458 $-1 #
coedge $-1 $652 $460 $462 $656 reversed $295 $-1 #
coedge $-1 $460 $651 $650 $804 reversed $295 $-1 #
coedge $-1 $468 $463 $460 $654 forward $469 $-1 #
edge $-1 $657 -20.754674064983188 $805 -17.20122777601188 $653 $806 forward 7 unknown #
coedge $-1 $462 $461 $660 $807 reversed $185 $-1 #
edge $-1 $808 -49.679994071285662 $657 -43.155587738033518 $651 $809 forward 7 unknown #
vertex $-1 $464 $810 #
straight-curve $-1 -6.1323254747453468 21.286550746671526 6.9888882311776612 1 0 0 I I #
coedge $-1 $650 $465 $468 $664 reversed $458 $-1 #
coedge $-1 $465 $650 $655 $807 forward $458 $-1 #
vertex $-1 $466 $811 #
straight-curve $-1 -18.781351669021557 24.839997035642835 49.613079339859723 0 0 1 I I #
straight-curve $-1 -18.781351669021557 -2.2176663825598695 43.182209854884078 0 0.54463902268945019 -0.83867057594974714 I I #
edge $-1 $805 5.7479502299598302 $470 18.781351669021557 $659 $812 forward 7 unknown #
point $-1 -18.781351669021557 24.839997035642835 6.9888882311776621 #
point $-1 -18.781351669021557 21.286550746671526 6.9888882311776612 #
edge $-1 $813 1 $813 0 $473 $-1 forward 7 unknown #
vertex $-1 $474 $814 #
ellipse-curve $-1 -15.057522686432492 21.181863996252606 3.0311725902015336 0 0.83867057594974714 0.54463902268945019 1 0 0 1 I I #
point $-1 -14.057522686432492 23.063273891157174 4.2529744225582773 #
edge $-1 $815 1 $815 0 $477 $-1 forward 7 unknown #
vertex $-1 $478 $816 #
ellipse-curve $-1 -9.4717792125488955 21.181863996252606 3.0311725902015336 0 0.83867057594974714 0.54463902268945019 1 0 0 1 I I #
point $-1 -8.4717792125488955 23.063273891157174 4.2529744225582773 #
loop $-1 $-1 $489 $481 #
plane-surface $-1 0 24.839997035642835 0 0 -1 0 0 0 -1 forward_v I I I I #
coedge $-1 $678 $484 $486 $682 reversed $317 $-1 #
coedge $-1 $484 $677 $817 $818 reversed $317 $-1 #
coedge $-1 $492 $487 $484 $680 forward $482 $-1 #
edge $-1 $683 -20.754674064983188 $819 -17.20122777601188 $679 $820 forward 7 unknown #
coedge $-1 $486 $485 $686 $821 reversed $199 $-1 #
edge $-1 $822 -49.679994071285662 $683 -43.155587738033518 $677 $823 forward 7 unknown #
vertex $-1 $488 $824 #
straight-curve $-1 5.7732872586685531 21.286550746671526 6.9888882311776612 1 0 0 I I #
coedge $-1 $817 $489 $492 $690 reversed $675 $-1 #
coedge $-1 $489 $817 $681 $821 forward $675 $-1 #
vertex $-1 $490 $825 #
straight-curve $-1 5.0298737978062427 24.839997035642835 49.613079339859723 0 0 1 I I #
straight-curve $-1 5.0298737978062427 -2.2176663825598695 43.182209854884078 0 0.54463902268945019 -0.83867057594974714 I I #
edge $-1 $819 -18.06327523686797 $493 -5.0298737978062427 $685 $826 forward 7 unknown #
point $-1 5.0298737978062427 24.839997035642835 6.9888882311776621 #
point $-1 5.0298737978062427 21.286550746671526 6.9888882311776612 #
edge $-1 $827 1 $827 0 $496 $-1 forward 7 unknown #
vertex $-1 $497 $828 #
ellipse-curve $-1 8.7537027803953009 21.181863996252606 3.0311725902015336 0 0.83867057594974714 0.54463902268945019 1 0 0 1 I I #
point $-1 9.7537027803953009 23.063273891157174 4.2529744225582773 #
edge $-1 $829 1 $829 0 $500 $-1 forward 7 unknown #
vertex $-1 $501 $830 #
ellipse-curve $-1 14.339446254278897 21.181863996252606 3.0311725902015336 0 0.83867057594974714 0.54463902268945019 1 0 0 1 I I #
point $-1 15.339446254278897 23.063273891157174 4.2529744225582773 #
loop $-1 $-1 $512 $504 #
plane-surface $-1 0 24.839997035642835 0 0 -1 0 0 0 -1 forward_v I I I I #
coedge $-1 $704 $507 $509 $708 reversed $339 $-1 #
coedge $-1 $507 $703 $831 $832 reversed $339 $-1 #
coedge $-1 $515 $510 $507 $706 forward $505 $-1 #
edge $-1 $709 -20.754674064983188 $833 -17.20122777601188 $705 $834 forward 7 unknown #
coedge $-1 $509 $508 $712 $835 reversed $213 $-1 #
edge $-1 $836 -49.679994071285662 $709 -43.155587738033518 $703 $837 forward 7 unknown #
vertex $-1 $511 $838 #
straight-curve $-1 17.678899992082449 21.286550746671526 6.9888882311776612 1 0 0 I I #
coedge $-1 $831 $512 $515 $716 reversed $701 $-1 #
coedge $-1 $512 $831 $707 $835 forward $701 $-1 #
vertex $-1 $513 $839 #
straight-curve $-1 28.841099264634035 24.839997035642835 49.613079339859723 0 0 1 I I #
straight-curve $-1 28.841099264634035 -2.2176663825598695 43.182209854884078 0 0.54463902268945019 -0.83867057594974714 I I #
edge $-1 $833 -41.874500703695759 $516 -28.841099264634035 $711 $840 forward 7 unknown #
point $-1 28.841099264634035 24.839997035642835 6.9888882311776621 #
point $-1 28.841099264634035 21.286550746671526 6.9888882311776612 #
edge $-1 $841 1 $841 0 $519 $-1 forward 7 unknown #
vertex $-1 $520 $842 #
ellipse-curve $-1 32.564928247223094 21.181863996252606 3.0311725902015336 0 0.83867057594974714 0.54463902268945019 1 0 0 1 I I #
point $-1 33.564928247223094 23.063273891157174 4.2529744225582773 #
edge $-1 $843 1 $843 0 $523 $-1 forward 7 unknown #
vertex $-1 $524 $844 #
ellipse-curve $-1 38.15067172110669 21.181863996252606 3.0311725902015336 0 0.83867057594974714 0.54463902268945019 1 0 0 1 I I #
point $-1 39.15067172110669 23.063273891157174 4.2529744225582773 #
plane-surface $-1 51.450544755394148 0 0 -1 0 0 0 0 1 forward_v I I I I #
coedge $-1 $532 $530 $534 $732 reversed $361 $-1 #
edge $-1 $545 -6.9888882311776621 $734 6.9888882311776621 $544 $845 forward 7 unknown #
vertex $-1 $732 $846 #
straight-curve $-1 -51.450544755394148 -24.839997035642835 0 0 0 -1 I I #
edge $-1 $730 -24.839997035642835 $734 24.839997035642835 $728 $847 forward 7 unknown #
straight-curve $-1 0 -24.839997035642835 -6.9888882311776621 -1 0 0 I I #
vertex $-1 $537 $848 #
straight-curve $-1 0 24.839997035642835 -6.9888882311776621 1 0 0 I I #
point $-1 51.450544755394148 24.839997035642835 -6.9888882311776621 #
point $-1 51.450544755394148 -24.839997035642835 -6.9888882311776621 #
straight-curve $-1 -51.450544755394148 0 6.9888882311776621 0 -1 0 I I #
point $-1 -51.450544755394148 24.839997035642835 6.9888882311776621 #
point $-1 -51.450544755394148 -24.839997035642835 6.9888882311776621 #
straight-curve $-1 51.450544755394148 -24.839997035642835 0 0 0 -1 I I #
straight-curve $-1 51.450544755394148 24.839997035642835 0 0 0 -1 I I #
plane-surface $-1 0 -24.839997035642835 0 0 1 0 0 0 1 forward_v I I I I #
coedge $-1 $849 $557 $567 $755 reversed $380 $-1 #
coedge $-1 $557 $849 $570 $757 forward $380 $-1 #
coedge $-1 $850 $560 $558 $747 forward $555 $-1 #
edge $-1 $748 45.640756001931948 $851 51.450544755394148 $558 $852 forward 7 unknown #
vertex $-1 $747 $853 #
straight-curve $-1 -45.640756001931948 24.839997035642835 2.7444441155888311 0 0 -1 I I #
coedge $-1 $560 $850 $562 $752 forward $555 $-1 #
straight-curve $-1 -45.640756001931948 0 6.9888882311776621 0 1 0 I I #
edge $-1 $854 -51.450544755394148 $564 -45.640756001931948 $562 $855 forward 7 unknown #
point $-1 -45.640756001931948 -24.839997035642835 6.9888882311776621 #
straight-curve $-1 -51.450544755394148 0 3.9888882311776621 0 -1 0 I I #
edge $-1 $854 -6.9888882311776621 $568 -3.9888882311776621 $744 $856 forward 7 unknown #
point $-1 -51.450544755394148 -24.839997035642835 3.9888882311776621 #
edge $-1 $851 -6.9888882311776621 $571 -3.9888882311776621 $570 $857 forward 7 unknown #
point $-1 -51.450544755394148 24.839997035642835 3.9888882311776621 #
plane-surface $-1 0 24.839997035642835 0 0 -1 0 0 0 -1 forward_v I I I I #
coedge $-1 $762 $578 $766 $858 reversed $396 $-1 #
edge $-1 $763 -1.5 $767 1.5 $578 $859 forward 7 unknown #
coedge $-1 $579 $760 $773 $860 reversed $396 $-1 #
vertex $-1 $580 $861 #
vertex $-1 $580 $862 #
straight-curve $-1 57.978409941009936 0 -3.9888882311776621 0 1 0 I I #
coedge $-1 $582 $771 $760 $858 forward $576 $-1 #
vertex $-1 $761 $863 #
straight-curve $-1 54.714477348202038 -24.839997035642835 -6.9888882311776621 -1 0 0 I I #
straight-curve $-1 54.714477348202038 -24.839997035642835 -3.9888882311776621 1 0 0 I I #
point $-1 51.450544755394148 -24.839997035642835 -6.9888882311776621 #
coedge $-1 $766 $587 $590 $774 forward $576 $-1 #
straight-curve $-1 51.450544755394148 0 -6.9888882311776621 0 1 0 I I #
coedge $-1 $590 $589 $762 $860 forward $591 $-1 #
edge $-1 $592 -3.2639325928078904 $864 3.2639325928078975 $590 $865 forward 7 unknown #
point $-1 51.450544755394148 24.839997035642835 -6.9888882311776621 #
straight-curve $-1 54.714477348202038 24.839997035642835 -3.9888882311776621 -1 0 0 I I #
coedge $-1 $608 $607 $600 $778 forward $597 $-1 #
edge $-1 $779 34.521207276766887 $782 40.670368007146088 $777 $866 forward 7 unknown #
vertex $-1 $612 $867 #
straight-curve $-1 -27.3805970423658 -43.383709692970157 6.9888882311776612 0 -1 0 I I #
edge $-1 $782 -17.129578136025486 $609 -3.37245967665514 $608 $868 forward 7 unknown #
vertex $-1 $781 $869 #
straight-curve $-1 -27.3805970423658 -24.839997035642838 0.83972750079846037 0 0.79863550430605224 0.6018150307709319 I I #
point $-1 -27.3805970423658 -16.67978529305077 6.9888882311776621 #
point $-1 -13.623478582995453 -24.839997035642835 0.83972750079846303 #
straight-curve $-1 0 -24.839997035642835 6.9888882311776621 1 0 0 I I #
vertex $-1 $615 $870 #
point $-1 -22.449991768259988 -18.839324864328937 1.3656303535585019 #
vertex $-1 $619 $871 #
point $-1 -16.554083857101269 -18.839324864328937 1.3656303535585019 #
edge $-1 $792 42.624191108682062 $795 48.096018725920814 $624 $872 forward 7 unknown #
vertex $-1 $638 $873 #
straight-curve $-1 -29.55917569678763 42.041224811654715 6.9888882311776612 0 1 0 I I #
edge $-1 $795 11.521237488628383 $635 24.554638927690107 $634 $874 forward 7 unknown #
vertex $-1 $794 $875 #
straight-curve $-1 -29.55917569678763 -2.2176663825598695 43.182209854884078 0 -0.54463902268945019 0.83867057594974714 I I #
point $-1 -29.55917569678763 21.286550746671526 6.9888882311776612 #
point $-1 -42.592577135849353 24.839997035642835 1.5170606139389093 #
straight-curve $-1 0 24.839997035642835 6.9888882311776621 -1 0 0 I I #
vertex $-1 $641 $876 #
point $-1 -37.868748153260285 21.181863996252606 3.0311725902015336 #
vertex $-1 $645 $877 #
point $-1 -32.283004679376688 21.181863996252606 3.0311725902015336 #
edge $-1 $805 42.624191108682062 $808 48.096018725920814 $650 $878 forward 7 unknown #
vertex $-1 $664 $879 #
straight-curve $-1 -5.7479502299598302 42.041224811654715 6.9888882311776612 0 1 0 I I #
edge $-1 $808 -0.38437524478551666 $661 12.64902619427621 $660 $880 forward 7 unknown #
vertex $-1 $807 $881 #
straight-curve $-1 -5.7479502299598302 -2.2176663825598695 43.182209854884078 0 -0.54463902268945019 0.83867057594974714 I I #
point $-1 -5.7479502299598302 21.286550746671526 6.9888882311776612 #
point $-1 -18.781351669021557 24.839997035642835 1.5170606139389093 #
straight-curve $-1 0 24.839997035642835 6.9888882311776621 -1 0 0 I I #
vertex $-1 $667 $882 #
point $-1 -14.057522686432492 21.181863996252606 3.0311725902015336 #
vertex $-1 $671 $883 #
point $-1 -8.4717792125488955 21.181863996252606 3.0311725902015336 #
coedge $-1 $686 $685 $678 $818 forward $675 $-1 #
edge $-1 $819 42.624191108682062 $822 48.096018725920814 $817 $884 forward 7 unknown #
vertex $-1 $690 $885 #
straight-curve $-1 18.06327523686797 42.041224811654715 6.9888882311776612 0 1 0 I I #
edge $-1 $822 -12.289987978199417 $687 0.74341346086231042 $686 $886 forward 7 unknown #
vertex $-1 $821 $887 #
straight-curve $-1 18.06327523686797 -2.2176663825598695 43.182209854884078 0 -0.54463902268945019 0.83867057594974714 I I #
point $-1 18.06327523686797 21.286550746671526 6.9888882311776612 #
point $-1 5.0298737978062427 24.839997035642835 1.5170606139389093 #
straight-curve $-1 0 24.839997035642835 6.9888882311776621 -1 0 0 I I #
vertex $-1 $693 $888 #
point $-1 9.7537027803953009 21.181863996252606 3.0311725902015336 #
vertex $-1 $697 $889 #
point $-1 15.339446254278897 21.181863996252606 3.0311725902015336 #
coedge $-1 $712 $711 $704 $832 forward $701 $-1 #
edge $-1 $833 42.624191108682062 $836 48.096018725920814 $831 $890 forward 7 unknown #
vertex $-1 $716 $891 #
straight-curve $-1 41.874500703695759 42.041224811654715 6.9888882311776612 0 1 0 I I #
edge $-1 $836 -24.195600711613309 $713 -11.162199272551586 $712 $892 forward 7 unknown #
vertex $-1 $835 $893 #
straight-curve $-1 41.874500703695759 -2.2176663825598695 43.182209854884078 0 -0.54463902268945019 0.83867057594974714 I I #
point $-1 41.874500703695759 21.286550746671526 6.9888882311776612 #
point $-1 28.841099264634035 24.839997035642835 1.5170606139389093 #
straight-curve $-1 0 24.839997035642835 6.9888882311776621 -1 0 0 I I #
vertex $-1 $719 $894 #
point $-1 33.564928247223094 21.181863996252606 3.0311725902015336 #
vertex $-1 $723 $895 #
point $-1 39.15067172110669 21.181863996252606 3.0311725902015336 #
straight-curve $-1 -51.450544755394148 24.839997035642835 0 0 0 -1 I I #
point $-1 -51.450544755394148 -24.839997035642835 -6.9888882311776621 #
straight-curve $-1 -51.450544755394148 0 -6.9888882311776621 0 1 0 I I #
point $-1 -51.450544755394148 24.839997035642835 -6.9888882311776621 #
coedge $-1 $745 $744 $850 $896 reversed $380 $-1 #
coedge $-1 $750 $746 $849 $896 forward $555 $-1 #
vertex $-1 $747 $897 #
straight-curve $-1 0 24.839997035642835 6.9888882311776621 -1 0 0 I I #
point $-1 -45.640756001931948 24.839997035642835 6.9888882311776621 #
vertex $-1 $896 $898 #
straight-curve $-1 0 -24.839997035642835 6.9888882311776621 1 0 0 I I #
straight-curve $-1 -51.450544755394148 -24.839997035642835 0 0 0 -1 I I #
straight-curve $-1 -51.450544755394148 24.839997035642835 0 0 0 -1 I I #
edge $-1 $864 -24.839997035642835 $767 24.839997035642835 $760 $899 forward 7 unknown #
straight-curve $-1 57.978409941009936 -24.839997035642835 -5.4888882311776621 0 0 -1 I I #
edge $-1 $764 -1.5 $864 1.5 $762 $900 forward 7 unknown #
point $-1 57.978409941009936 -24.839997035642835 -3.9888882311776621 #
point $-1 57.978409941009936 24.839997035642835 -3.9888882311776621 #
point $-1 57.978409941009936 -24.839997035642835 -6.9888882311776621 #
vertex $-1 $858 $901 #
straight-curve $-1 54.714477348202038 24.839997035642835 -6.9888882311776621 1 0 0 I I #
straight-curve $-1 -27.3805970423658 -24.839997035642835 41.510095507944548 0 0 -1 I I #
point $-1 -27.3805970423658 -24.839997035642835 6.9888882311776621 #
straight-curve $-1 -10.251018906340313 -24.839997035642835 0.83972750079846437 1 0 0 I I #
point $-1 -27.3805970423658 -24.839997035642835 0.83972750079846303 #
point $-1 -23.449991768259988 -18.237509833558008 0.56699484925244981 #
point $-1 -17.554083857101269 -18.237509833558008 0.56699484925244981 #
straight-curve $-1 -29.55917569678763 24.839997035642835 49.613079339859723 0 0 -1 I I #
point $-1 -29.55917569678763 24.839997035642835 6.9888882311776621 #
straight-curve $-1 -18.037938208159247 24.839997035642835 1.5170606139389093 -1 0 0 I I #
point $-1 -29.55917569678763 24.839997035642835 1.5170606139389093 #
point $-1 -38.868748153260285 20.343193420302857 2.4865335675120832 #
point $-1 -33.283004679376688 20.343193420302857 2.4865335675120832 #
straight-curve $-1 -5.7479502299598302 24.839997035642835 49.613079339859723 0 0 -1 I I #
point $-1 -5.7479502299598302 24.839997035642835 6.9888882311776621 #
straight-curve $-1 -6.1323254747453468 24.839997035642835 1.5170606139389093 -1 0 0 I I #
point $-1 -5.7479502299598302 24.839997035642835 1.5170606139389093 #
point $-1 -15.057522686432492 20.343193420302857 2.4865335675120832 #
point $-1 -9.4717792125488955 20.343193420302857 2.4865335675120832 #
straight-curve $-1 18.06327523686797 24.839997035642835 49.613079339859723 0 0 -1 I I #
point $-1 18.06327523686797 24.839997035642835 6.9888882311776621 #
straight-curve $-1 5.7732872586685531 24.839997035642835 1.5170606139389093 -1 0 0 I I #
point $-1 18.06327523686797 24.839997035642835 1.5170606139389093 #
point $-1 8.7537027803953009 20.343193420302857 2.4865335675120832 #
point $-1 14.339446254278897 20.343193420302857 2.4865335675120832 #
straight-curve $-1 41.874500703695759 24.839997035642835 49.613079339859723 0 0 -1 I I #
point $-1 41.874500703695759 24.839997035642835 6.9888882311776621 #
straight-curve $-1 17.678899992082449 24.839997035642835 1.5170606139389093 -1 0 0 I I #
point $-1 41.874500703695759 24.839997035642835 1.5170606139389093 #
point $-1 32.564928247223094 20.343193420302857 2.4865335675120832 #
point $-1 38.15067172110669 20.343193420302857 2.4865335675120832 #
edge $-1 $851 -24.839997035642835 $854 24.839997035642835 $849 $902 forward 7 unknown #
point $-1 -51.450544755394148 24.839997035642835 6.9888882311776621 #
point $-1 -51.450544755394148 -24.839997035642835 6.9888882311776621 #
straight-curve $-1 57.978409941009936 0 -6.9888882311776621 0 -1 0 I I #
straight-curve $-1 57.978409941009936 24.839997035642835 -5.4888882311776621 0 0 -1 I I #
point $-1 57.978409941009936 24.839997035642835 -6.9888882311776621 #
straight-curve $-1 -51.450544755394148 0 6.9888882311776621 0 -1 0 I I #
End-of-ACIS-data 