500 0 7 0           
7 Unknown 11 ACIS 5.0 NT 24 Thu Mar 25 23:09:10 1999 
-1 9.9999999999999995e-007 1e-010 
body $-1 $7 $-1 $8 #
body $-1 $9 $-1 $10 #
body $-1 $11 $-1 $12 #
body $-1 $13 $-1 $14 #
body $-1 $15 $-1 $16 #
body $-1 $17 $-1 $18 #
body $-1 $19 $-1 $20 #
lump $-1 $-1 $21 $0 #
transform $-1 1 0 0 0 1 0 0 0 1 58.428296761986147 28.569363319524701 8.5610437787432812 1 rotate no_reflect no_shear #
lump $-1 $-1 $22 $1 #
transform $-1 1 0 0 0 1 0 0 0 1 58.428296761986147 28.569363319524701 8.5610437787432812 1 rotate no_reflect no_shear #
lump $-1 $-1 $23 $2 #
transform $-1 1 0 0 0 1 0 0 0 1 58.428296761986147 28.569363319524701 8.5610437787432812 1 rotate no_reflect no_shear #
lump $-1 $-1 $24 $3 #
transform $-1 1 0 0 0 1 0 0 0 1 58.428296761986147 28.569363319524701 8.5610437787432812 1 rotate no_reflect no_shear #
lump $-1 $-1 $25 $4 #
transform $-1 1 0 0 0 1 0 0 0 1 58.428296761986147 28.569363319524701 8.5610437787432812 1 rotate no_reflect no_shear #
lump $-1 $-1 $26 $5 #
transform $-1 1 0 0 0 1 0 0 0 1 58.428296761986147 28.569363319524701 8.5610437787432812 1 rotate no_reflect no_shear #
lump $-1 $-1 $27 $6 #
transform $-1 1 0 0 0 1 0 0 0 1 58.428296761986147 28.569363319524701 8.5610437787432812 1 rotate no_reflect no_shear #
shell $-1 $-1 $-1 $28 $-1 $7 #
shell $-1 $-1 $-1 $29 $-1 $9 #
shell $-1 $-1 $-1 $30 $-1 $11 #
shell $-1 $-1 $-1 $31 $-1 $13 #
shell $-1 $-1 $-1 $32 $-1 $15 #
shell $-1 $-1 $-1 $33 $-1 $17 #
shell $-1 $-1 $-1 $34 $-1 $19 #
face $-1 $35 $36 $21 $-1 $37 forward single #
face $-1 $38 $39 $22 $-1 $40 reversed single #
face $-1 $41 $42 $23 $-1 $43 reversed single #
face $-1 $44 $45 $24 $-1 $46 forward single #
face $-1 $47 $48 $25 $-1 $49 reversed single #
face $-1 $50 $51 $26 $-1 $52 forward single #
face $-1 $53 $54 $27 $-1 $55 forward single #
face $-1 $56 $57 $21 $-1 $58 reversed single #
loop $-1 $-1 $59 $28 #
plane-surface $-1 0 0 8.5610437787432812 0 0 1 1 0 0 forward_v I I I I #
face $-1 $60 $61 $22 $-1 $62 reversed single #
loop $-1 $-1 $63 $29 #
plane-surface $-1 -56.840165269658776 -22.14154970181033 0 0 -1 0 0 0 -1 forward_v I I I I #
face $-1 $64 $65 $23 $-1 $66 reversed single #
loop $-1 $-1 $67 $30 #
plane-surface $-1 38.288148812848192 12.990942233912669 166.34835616298369 0 -1 0 -0.61566148304635926 0 -0.78801074757464917 forward_v I I I I #
face $-1 $68 $69 $24 $-1 $70 forward single #
loop $-1 $71 $72 $31 #
cone-surface $-1 52.874225428162681 6.3431133504419002 3.443831221836942 -0.61566148304635926 0 -0.78801074757464917 1.9700268689366229 0 -1.5391537076158981 1 I I 0 1 2.5 forward I I I I #
face $-1 $73 $74 $25 $-1 $75 reversed single #
loop $-1 $-1 $76 $32 #
plane-surface $-1 -151.75412289441448 18.92420560223059 72.376715794558805 0 1 0 -0.79863551827123203 0 0.60181501223851219 forward_v I I I I #
face $-1 $77 $78 $26 $-1 $79 forward single #
loop $-1 $80 $81 $33 #
cone-surface $-1 -55.158834082020782 21.679964950028907 4.6905760011086741 0.79863551827123203 0 -0.60181501223851219 0.60181501223851219 0 0.79863551827123203 1 I I 0 1 1 forward I I I I #
face $-1 $82 $83 $27 $-1 $84 forward single #
loop $-1 $85 $86 $34 #
cone-surface $-1 -55.158834082020782 25.813603971726383 4.6905760011086741 0.79863551827123203 0 -0.60181501223851219 0.60181501223851219 0 0.79863551827123203 1 I I 0 1 1 forward I I I I #
face $-1 $87 $88 $21 $-1 $89 reversed single #
loop $-1 $-1 $90 $35 #
plane-surface $-1 0 0 -8.5610437787432812 0 0 1 1 0 0 forward_v I I I I #
coedge $-1 $91 $92 $93 $94 forward $36 $-1 #
face $-1 $95 $96 $22 $-1 $97 forward single #
loop $-1 $-1 $98 $38 #
plane-surface $-1 -55.252033777331405 -25.355456510667516 0 -1 0 0 0 0 1 forward_v I I I I #
coedge $-1 $99 $100 $101 $102 forward $39 $-1 #
face $-1 $103 $104 $23 $-1 $105 reversed single #
loop $-1 $-1 $106 $41 #
plane-surface $-1 -33.655954859866171 6.3431133504418931 74.264104541131374 0.61566148304635926 0 0.78801074757464917 0.78801074757464917 0 -0.61566148304635926 forward_v I I I I #
coedge $-1 $107 $108 $109 $110 reversed $42 $-1 #
face $-1 $-1 $111 $24 $-1 $112 forward single #
loop $-1 $113 $114 $44 #
cone-surface $-1 50.544662484484505 6.3431133504419002 0.4621266856254227 -0.61566148304635926 0 -0.78801074757464917 0.98501343446831147 0 -0.76957685380794905 1 I I -0.70710678118654746 0.70710678118654746 1.25 forward I I I I #
loop $-1 $-1 $115 $31 #
coedge $-1 $72 $72 $116 $117 reversed $45 $-1 #
face $-1 $118 $119 $25 $-1 $120 reversed single #
loop $-1 $-1 $121 $47 #
plane-surface $-1 -58.428296761986175 23.746784460877645 2.0506635327785716 -0.79863551827123203 0 0.60181501223851219 0.60181501223851219 0 0.79863551827123203 forward_v I I I I #
coedge $-1 $122 $123 $124 $125 reversed $48 $-1 #
face $-1 $-1 $126 $26 $-1 $127 forward single #
loop $-1 $128 $129 $50 #
cone-surface $-1 -53.943015274205507 21.679964950028907 3.7743908403371709 0.79863551827123203 0 -0.60181501223851219 0.3009075061192561 0 0.39931775913561601 1 I I -0.70710678118654746 0.70710678118654746 0.5 forward I I I I #
loop $-1 $-1 $130 $33 #
coedge $-1 $81 $81 $131 $132 reversed $51 $-1 #
face $-1 $-1 $133 $27 $-1 $134 forward single #
loop $-1 $135 $136 $53 #
cone-surface $-1 -53.943015274205507 25.813603971726383 3.7743908403371709 0.79863551827123203 0 -0.60181501223851219 0.3009075061192561 0 0.39931775913561601 1 I I -0.70710678118654746 0.70710678118654746 0.5 forward I I I I #
loop $-1 $-1 $137 $34 #
coedge $-1 $86 $86 $138 $139 reversed $54 $-1 #
face $-1 $140 $141 $21 $-1 $142 reversed single #
loop $-1 $-1 $143 $56 #
plane-surface $-1 0 -28.569363319524701 0 0 1 0 0 0 1 forward_v I I I I #
coedge $-1 $144 $145 $146 $147 forward $57 $-1 #
coedge $-1 $148 $59 $149 $150 forward $36 $-1 #
coedge $-1 $59 $148 $151 $152 forward $36 $-1 #
coedge $-1 $153 $154 $59 $94 reversed $155 $-1 #
edge $-1 $156 -28.569363319524701 $157 28.569363319524701 $93 $158 forward 7 unknown #
face $-1 $159 $160 $22 $-1 $161 reversed single #
loop $-1 $-1 $162 $60 #
plane-surface $-1 0 0 8.5610437787432812 0 0 1 1 0 0 forward_v I I I I #
coedge $-1 $163 $164 $165 $166 reversed $61 $-1 #
coedge $-1 $167 $63 $168 $169 reversed $39 $-1 #
coedge $-1 $63 $167 $170 $171 reversed $39 $-1 #
coedge $-1 $164 $163 $63 $102 reversed $61 $-1 #
edge $-1 $172 -8.5610437787432812 $173 8.5610437787432812 $101 $174 forward 7 unknown #
face $-1 $175 $176 $23 $-1 $177 reversed single #
loop $-1 $-1 $178 $64 #
plane-surface $-1 38.288148812848192 -0.3047155330288831 166.34835616298369 0 1 0 0.61566148304635926 0 0.78801074757464917 forward_v I I I I #
coedge $-1 $179 $180 $181 $182 reversed $65 $-1 #
coedge $-1 $108 $67 $183 $184 reversed $42 $-1 #
coedge $-1 $67 $107 $179 $185 reversed $42 $-1 #
coedge $-1 $181 $186 $67 $110 forward $187 $-1 #
edge $-1 $188 -39.284222355562051 $189 -31.296051867655564 $109 $190 forward 7 unknown #
loop $-1 $-1 $116 $68 #
plane-surface $-1 -33.655954859866171 6.3431133504418931 74.264104541131374 0.61566148304635926 0 0.78801074757464917 0.78801074757464917 0 -0.61566148304635926 forward_v I I I I #
loop $-1 $-1 $191 $44 #
coedge $-1 $114 $114 $115 $192 reversed $69 $-1 #
coedge $-1 $115 $115 $114 $192 forward $71 $-1 #
coedge $-1 $116 $116 $72 $117 forward $111 $-1 #
edge $-1 $193 0 $193 6.2831853071796004 $116 $194 forward 7 unknown #
face $-1 $195 $196 $25 $-1 $197 reversed single #
loop $-1 $-1 $198 $73 #
plane-surface $-1 0 28.569363319524701 0 0 -1 0 0 0 -1 forward_v I I I I #
coedge $-1 $199 $200 $201 $202 reversed $74 $-1 #
coedge $-1 $123 $76 $203 $204 reversed $48 $-1 #
coedge $-1 $76 $122 $199 $205 reversed $48 $-1 #
coedge $-1 $201 $206 $76 $125 forward $207 $-1 #
edge $-1 $208 17.448764685221093 $209 22.354687947792485 $124 $210 forward 7 unknown #
loop $-1 $-1 $131 $77 #
plane-surface $-1 -58.428296761986175 23.746784460877645 2.0506635327785716 -0.79863551827123203 0 0.60181501223851219 0.60181501223851219 0 0.79863551827123203 forward_v I I I I #
loop $-1 $-1 $211 $50 #
coedge $-1 $129 $129 $130 $212 reversed $78 $-1 #
coedge $-1 $130 $130 $129 $212 forward $80 $-1 #
coedge $-1 $131 $131 $81 $132 forward $126 $-1 #
edge $-1 $213 0 $213 6.2831853071796004 $131 $214 forward 7 unknown #
loop $-1 $-1 $138 $82 #
plane-surface $-1 -58.428296761986175 23.746784460877645 2.0506635327785716 -0.79863551827123203 0 0.60181501223851219 0.60181501223851219 0 0.79863551827123203 forward_v I I I I #
loop $-1 $-1 $215 $53 #
coedge $-1 $136 $136 $137 $216 reversed $83 $-1 #
coedge $-1 $137 $137 $136 $216 forward $85 $-1 #
coedge $-1 $138 $138 $86 $139 forward $133 $-1 #
edge $-1 $217 0 $217 6.2831853071796004 $138 $218 forward 7 unknown #
face $-1 $219 $220 $21 $-1 $221 reversed single #
loop $-1 $-1 $222 $87 #
plane-surface $-1 -58.428296761986147 0 0 1 0 0 0 0 -1 forward_v I I I I #
coedge $-1 $223 $151 $224 $225 forward $88 $-1 #
coedge $-1 $226 $90 $223 $227 forward $57 $-1 #
coedge $-1 $90 $226 $228 $229 forward $57 $-1 #
coedge $-1 $154 $153 $90 $147 reversed $155 $-1 #
edge $-1 $230 -28.569363319524701 $231 28.569363319524701 $146 $232 forward 7 unknown #
coedge $-1 $92 $91 $233 $234 forward $36 $-1 #
coedge $-1 $235 $236 $91 $150 reversed $220 $-1 #
edge $-1 $157 -58.428296761986147 $237 58.428296761986147 $149 $238 forward 7 unknown #
coedge $-1 $143 $239 $92 $152 reversed $88 $-1 #
edge $-1 $240 -58.428296761986147 $156 58.428296761986147 $151 $241 forward 7 unknown #
coedge $-1 $146 $93 $239 $242 forward $155 $-1 #
coedge $-1 $93 $146 $235 $243 reversed $155 $-1 #
loop $-1 $-1 $153 $219 #
vertex $-1 $94 $244 #
vertex $-1 $94 $245 #
straight-curve $-1 58.428296761986147 0 8.5610437787432812 0 1 0 I I #
face $-1 $246 $247 $22 $-1 $248 reversed single #
loop $-1 $-1 $249 $95 #
plane-surface $-1 -58.428296761986147 0 0 1 0 0 0 0 -1 forward_v I I I I #
coedge $-1 $170 $250 $164 $251 forward $96 $-1 #
coedge $-1 $101 $98 $252 $253 reversed $61 $-1 #
coedge $-1 $98 $101 $162 $251 reversed $61 $-1 #
coedge $-1 $254 $255 $98 $166 forward $256 $-1 #
edge $-1 $257 -8.5610437787432812 $258 8.5610437787432812 $165 $259 forward 7 unknown #
coedge $-1 $100 $99 $249 $260 reversed $39 $-1 #
coedge $-1 $252 $261 $99 $169 forward $247 $-1 #
edge $-1 $262 -30.008214127156759 $173 -26.831951142502017 $168 $263 forward 7 unknown #
coedge $-1 $264 $162 $100 $171 forward $96 $-1 #
edge $-1 $172 26.831951142502017 $265 30.008214127156759 $170 $266 forward 7 unknown #
vertex $-1 $171 $267 #
vertex $-1 $169 $268 #
straight-curve $-1 -55.252033777331405 -22.14154970181033 0 0 0 -1 I I #
face $-1 $-1 $187 $23 $-1 $269 forward single #
loop $-1 $-1 $270 $103 #
plane-surface $-1 58.428296761986147 0 0 -1 0 0 0 0 1 forward_v I I I I #
coedge $-1 $271 $272 $273 $274 reversed $104 $-1 #
coedge $-1 $275 $106 $108 $185 forward $65 $-1 #
coedge $-1 $106 $275 $271 $276 forward $65 $-1 #
coedge $-1 $273 $109 $106 $182 forward $187 $-1 #
edge $-1 $189 -9.8193855586917227 $277 3.4762722082498296 $181 $278 forward 7 unknown #
coedge $-1 $279 $280 $107 $184 forward $176 $-1 #
edge $-1 $281 -80.854177213074834 $188 -74.613134302748563 $183 $282 forward 7 unknown #
edge $-1 $189 106.71945959211592 $281 116.85659352397229 $108 $283 forward 7 unknown #
coedge $-1 $109 $273 $279 $284 forward $187 $-1 #
loop $-1 $-1 $273 $175 #
vertex $-1 $184 $285 #
vertex $-1 $110 $286 #
straight-curve $-1 19.144074406424096 12.990942233912669 8.5610437787432829 -1 0 0 I I #
coedge $-1 $191 $191 $-1 $287 reversed $113 $-1 #
edge $-1 $288 0 $288 6.2831853071796004 $114 $289 forward 7 unknown #
vertex $-1 $117 $290 #
ellipse-curve $-1 54.434211518032903 6.3431133504419002 5.4405223235801445 0.61566148304635926 0 0.78801074757464917 1.9700268689366229 0 -1.5391537076158981 1 I I #
face $-1 $-1 $207 $25 $-1 $291 forward single #
loop $-1 $-1 $292 $118 #
plane-surface $-1 -58.428296761986147 0 0 1 0 0 0 0 -1 forward_v I I I I #
coedge $-1 $293 $294 $200 $295 forward $119 $-1 #
coedge $-1 $296 $121 $123 $205 forward $74 $-1 #
coedge $-1 $121 $296 $198 $295 reversed $74 $-1 #
coedge $-1 $297 $124 $121 $202 forward $207 $-1 #
edge $-1 $209 7.0508133717917669 $298 16.69597108908588 $201 $299 forward 7 unknown #
coedge $-1 $300 $292 $122 $204 forward $196 $-1 #
edge $-1 $301 -34.137694364500796 $208 -27.62731411853612 $203 $302 forward 7 unknown #
edge $-1 $209 -8.1518791701844382 $301 -4.7251171791415696e-014 $123 $303 forward 7 unknown #
coedge $-1 $124 $297 $300 $304 forward $207 $-1 #
loop $-1 $-1 $201 $195 #
vertex $-1 $204 $305 #
vertex $-1 $125 $306 #
straight-curve $-1 -75.87706144720724 18.92420560223059 8.5610437787432829 1 0 0 I I #
coedge $-1 $211 $211 $-1 $307 reversed $128 $-1 #
edge $-1 $308 0 $308 6.2831853071796004 $129 $309 forward 7 unknown #
vertex $-1 $132 $310 #
ellipse-curve $-1 -55.975335130700458 21.679964950028907 5.3058536557609361 -0.79863551827123203 0 0.60181501223851219 0.60181501223851219 0 0.79863551827123203 1 I I #
coedge $-1 $215 $215 $-1 $311 reversed $135 $-1 #
edge $-1 $312 0 $312 6.2831853071796004 $136 $313 forward 7 unknown #
vertex $-1 $139 $314 #
ellipse-curve $-1 -55.975335130700458 25.813603971726383 5.3058536557609361 -0.79863551827123203 0 0.60181501223851219 0.60181501223851219 0 0.79863551827123203 1 I I #
face $-1 $-1 $155 $21 $-1 $315 reversed single #
loop $-1 $-1 $235 $140 #
plane-surface $-1 0 28.569363319524701 0 0 -1 0 0 0 -1 forward_v I I I I #
coedge $-1 $316 $233 $236 $317 forward $141 $-1 #
coedge $-1 $239 $143 $144 $227 reversed $88 $-1 #
coedge $-1 $233 $316 $143 $225 reversed $141 $-1 #
edge $-1 $240 -8.5610437787432812 $318 8.5610437787432812 $224 $319 forward 7 unknown #
coedge $-1 $145 $144 $316 $320 forward $57 $-1 #
edge $-1 $231 -58.428296761986147 $318 58.428296761986147 $223 $321 forward 7 unknown #
coedge $-1 $236 $235 $145 $229 reversed $220 $-1 #
edge $-1 $322 -58.428296761986147 $230 58.428296761986147 $228 $323 forward 7 unknown #
vertex $-1 $147 $324 #
vertex $-1 $242 $325 #
straight-curve $-1 58.428296761986147 0 -8.5610437787432812 0 -1 0 I I #
coedge $-1 $222 $224 $148 $234 reversed $141 $-1 #
edge $-1 $237 -28.569363319524701 $240 28.569363319524701 $233 $326 forward 7 unknown #
coedge $-1 $228 $149 $154 $243 forward $220 $-1 #
coedge $-1 $149 $228 $222 $317 reversed $220 $-1 #
vertex $-1 $150 $327 #
straight-curve $-1 0 28.569363319524701 8.5610437787432812 -1 0 0 I I #
coedge $-1 $151 $223 $153 $242 reversed $88 $-1 #
vertex $-1 $234 $328 #
straight-curve $-1 0 -28.569363319524701 8.5610437787432812 1 0 0 I I #
edge $-1 $156 -8.5610437787432812 $231 8.5610437787432812 $153 $329 forward 7 unknown #
edge $-1 $157 -8.5610437787432812 $230 8.5610437787432812 $154 $330 forward 7 unknown #
point $-1 58.428296761986147 -28.569363319524701 8.5610437787432812 #
point $-1 58.428296761986147 28.569363319524701 8.5610437787432812 #
face $-1 $-1 $256 $22 $-1 $331 reversed single #
loop $-1 $-1 $252 $159 #
plane-surface $-1 0 0 -8.5610437787432812 0 0 1 1 0 0 forward_v I I I I #
coedge $-1 $332 $333 $167 $260 forward $160 $-1 #
coedge $-1 $162 $264 $254 $334 forward $96 $-1 #
edge $-1 $258 -15.891635064190943 $172 -9.4638214464765724 $162 $335 forward 7 unknown #
coedge $-1 $336 $168 $163 $253 forward $247 $-1 #
edge $-1 $173 9.4638214464765724 $257 15.891635064190943 $252 $337 forward 7 unknown #
coedge $-1 $338 $165 $250 $334 reversed $256 $-1 #
coedge $-1 $165 $338 $336 $339 reversed $256 $-1 #
loop $-1 $-1 $165 $246 #
vertex $-1 $339 $340 #
vertex $-1 $166 $341 #
straight-curve $-1 -55.252033777331405 -28.569363319524701 0 0 0 1 I I #
edge $-1 $265 -8.5610437787432812 $262 8.5610437787432812 $249 $342 forward 7 unknown #
coedge $-1 $168 $336 $332 $343 forward $247 $-1 #
vertex $-1 $169 $344 #
straight-curve $-1 -28.420082634829388 -22.14154970181033 -8.5610437787432812 1 0 0 I I #
coedge $-1 $250 $170 $333 $345 forward $96 $-1 #
vertex $-1 $345 $346 #
straight-curve $-1 -28.420082634829388 -22.14154970181033 8.5610437787432812 -1 0 0 I I #
point $-1 -55.252033777331405 -22.14154970181033 8.5610437787432812 #
point $-1 -55.252033777331405 -22.14154970181033 -8.5610437787432812 #
plane-surface $-1 0 0 8.5610437787432812 0 0 1 1 0 0 forward_v I I I I #
coedge $-1 $280 $279 $272 $347 forward $176 $-1 #
coedge $-1 $272 $178 $180 $276 reversed $104 $-1 #
coedge $-1 $178 $271 $270 $347 reversed $104 $-1 #
coedge $-1 $186 $181 $178 $274 forward $187 $-1 #
edge $-1 $277 31.296051867655564 $348 39.284222355562051 $273 $349 forward 7 unknown #
coedge $-1 $180 $179 $280 $350 reversed $65 $-1 #
edge $-1 $351 -116.85659352397229 $277 -106.71945959211592 $271 $352 forward 7 unknown #
vertex $-1 $182 $353 #
straight-curve $-1 50.44012627407966 3.1715566752209465 8.5610437787432758 0 -1 0 I I #
coedge $-1 $270 $183 $186 $284 reversed $176 $-1 #
coedge $-1 $183 $270 $275 $350 forward $176 $-1 #
vertex $-1 $184 $354 #
straight-curve $-1 58.428296761986147 12.990942233912669 83.174178081491846 0 0 1 I I #
straight-curve $-1 -33.655954859866171 12.990942233912669 74.264104541131374 0.78801074757464917 0 -0.61566148304635926 I I #
edge $-1 $348 -0.3047155330288831 $188 12.990942233912669 $279 $355 forward 7 unknown #
point $-1 58.428296761986147 12.990942233912669 8.5610437787432812 #
point $-1 50.44012627407966 12.990942233912669 8.5610437787432829 #
edge $-1 $356 1 $356 0 $191 $-1 forward 7 unknown #
vertex $-1 $192 $357 #
ellipse-curve $-1 51.314239338292452 6.3431133504419002 1.4471401200937342 0.61566148304635926 0 0.78801074757464917 1.9700268689366229 0 -1.5391537076158981 1 I I #
point $-1 56.404238386969531 6.3431133504419002 3.9013686159642527 #
plane-surface $-1 0 0 8.5610437787432812 0 0 1 1 0 0 forward_v I I I I #
coedge $-1 $203 $358 $296 $359 forward $196 $-1 #
coedge $-1 $294 $198 $358 $360 reversed $119 $-1 #
coedge $-1 $198 $293 $297 $361 reversed $119 $-1 #
edge $-1 $298 8.6107675286103653 $362 16.762646698794757 $198 $363 forward 7 unknown #
coedge $-1 $200 $199 $292 $359 reversed $74 $-1 #
coedge $-1 $206 $201 $294 $361 forward $207 $-1 #
vertex $-1 $361 $364 #
straight-curve $-1 -53.522373499414755 11.873392230438823 8.5610437787432812 0 1 0 I I #
coedge $-1 $358 $203 $206 $304 reversed $196 $-1 #
vertex $-1 $204 $365 #
straight-curve $-1 -58.428296761986147 18.92420560223059 36.188357897279403 0 0 1 I I #
straight-curve $-1 -58.428296761986175 18.92420560223059 2.0506635327785716 -0.60181501223851219 0 -0.79863551827123203 I I #
edge $-1 $366 -28.569363319524701 $208 -18.92420560223059 $300 $367 forward 7 unknown #
point $-1 -58.428296761986147 18.92420560223059 8.5610437787432812 #
point $-1 -53.522373499414755 18.92420560223059 8.5610437787432812 #
edge $-1 $368 1 $368 0 $211 $-1 forward 7 unknown #
vertex $-1 $212 $369 #
ellipse-curve $-1 -54.34233303334112 21.679964950028907 4.0752983464564272 -0.79863551827123203 0 0.60181501223851219 0.60181501223851219 0 0.79863551827123203 1 I I #
point $-1 -55.373520118461926 21.679964950028907 6.1044891740321532 #
edge $-1 $370 1 $370 0 $215 $-1 forward 7 unknown #
vertex $-1 $216 $371 #
ellipse-curve $-1 -54.34233303334112 25.813603971726383 4.0752983464564272 -0.79863551827123203 0 0.60181501223851219 0.60181501223851219 0 0.79863551827123203 1 I I #
point $-1 -55.373520118461926 25.813603971726383 6.1044891740321532 #
plane-surface $-1 58.428296761986147 0 0 -1 0 0 0 0 1 forward_v I I I I #
coedge $-1 $224 $222 $226 $320 reversed $141 $-1 #
edge $-1 $237 -8.5610437787432812 $322 8.5610437787432812 $236 $372 forward 7 unknown #
vertex $-1 $320 $373 #
straight-curve $-1 -58.428296761986147 -28.569363319524701 0 0 0 -1 I I #
edge $-1 $318 -28.569363319524701 $322 28.569363319524701 $316 $374 forward 7 unknown #
straight-curve $-1 0 -28.569363319524701 -8.5610437787432812 -1 0 0 I I #
vertex $-1 $229 $375 #
straight-curve $-1 0 28.569363319524701 -8.5610437787432812 1 0 0 I I #
point $-1 58.428296761986147 28.569363319524701 -8.5610437787432812 #
point $-1 58.428296761986147 -28.569363319524701 -8.5610437787432812 #
straight-curve $-1 -58.428296761986147 0 8.5610437787432812 0 -1 0 I I #
point $-1 -58.428296761986147 28.569363319524701 8.5610437787432812 #
point $-1 -58.428296761986147 -28.569363319524701 8.5610437787432812 #
straight-curve $-1 58.428296761986147 -28.569363319524701 0 0 0 -1 I I #
straight-curve $-1 58.428296761986147 28.569363319524701 0 0 0 -1 I I #
plane-surface $-1 0 -28.569363319524701 0 0 1 0 0 0 1 forward_v I I I I #
coedge $-1 $376 $249 $261 $343 reversed $160 $-1 #
coedge $-1 $249 $376 $264 $345 reversed $160 $-1 #
edge $-1 $377 -58.428296761986147 $258 -55.252033777331405 $254 $378 forward 7 unknown #
straight-curve $-1 -55.252033777331405 -12.677728255333758 8.5610437787432812 0 1 0 I I #
coedge $-1 $261 $252 $255 $339 forward $247 $-1 #
straight-curve $-1 -55.252033777331405 -12.677728255333758 -8.5610437787432812 0 -1 0 I I #
coedge $-1 $255 $254 $376 $379 forward $256 $-1 #
edge $-1 $257 55.252033777331405 $380 58.428296761986147 $255 $381 forward 7 unknown #
point $-1 -55.252033777331405 -28.569363319524701 -8.5610437787432812 #
point $-1 -55.252033777331405 -28.569363319524701 8.5610437787432812 #
straight-curve $-1 -58.428296761986147 -22.14154970181033 0 0 0 -1 I I #
edge $-1 $380 -28.569363319524701 $262 -22.14154970181033 $332 $382 forward 7 unknown #
point $-1 -58.428296761986147 -22.14154970181033 -8.5610437787432812 #
edge $-1 $265 22.14154970181033 $377 28.569363319524701 $333 $383 forward 7 unknown #
point $-1 -58.428296761986147 -22.14154970181033 8.5610437787432812 #
edge $-1 $348 74.613134302748563 $351 80.854177213074834 $270 $384 forward 7 unknown #
vertex $-1 $284 $385 #
straight-curve $-1 19.144074406424096 -0.3047155330288831 8.5610437787432829 1 0 0 I I #
edge $-1 $351 -3.4762722082498296 $281 9.8193855586917227 $280 $386 forward 7 unknown #
vertex $-1 $350 $387 #
straight-curve $-1 -33.655954859866171 -0.3047155330288831 74.264104541131374 -0.78801074757464917 0 0.61566148304635926 I I #
point $-1 50.44012627407966 -0.3047155330288831 8.5610437787432829 #
point $-1 58.428296761986147 12.990942233912669 2.3200008684170115 #
straight-curve $-1 58.428296761986147 0 8.5610437787432812 0 1 0 I I #
vertex $-1 $287 $388 #
point $-1 53.284266207229074 6.3431133504419002 -0.092013587522163931 #
coedge $-1 $292 $300 $293 $360 forward $196 $-1 #
edge $-1 $362 -16.69597108908588 $301 -7.0508133717917669 $292 $389 forward 7 unknown #
edge $-1 $366 -8.5610437787432812 $362 -2.0506635327786094 $293 $390 forward 7 unknown #
edge $-1 $298 53.522373499414755 $366 58.428296761986147 $294 $391 forward 7 unknown #
vertex $-1 $359 $392 #
straight-curve $-1 -48.340284333801122 28.569363319524701 15.437908566668115 -0.60181501223851219 0 -0.79863551827123203 I I #
point $-1 -53.522373499414755 28.569363319524701 8.5610437787432812 #
point $-1 -58.428296761986147 18.92420560223059 2.0506635327786094 #
vertex $-1 $361 $393 #
straight-curve $-1 -58.428296761986147 0 8.5610437787432812 0 -1 0 I I #
vertex $-1 $307 $394 #
point $-1 -53.740518021102609 21.679964950028907 4.8739338647276593 #
vertex $-1 $311 $395 #
point $-1 -53.740518021102609 25.813603971726383 4.8739338647276593 #
straight-curve $-1 -58.428296761986147 28.569363319524701 0 0 0 -1 I I #
point $-1 -58.428296761986147 -28.569363319524701 -8.5610437787432812 #
straight-curve $-1 -58.428296761986147 0 -8.5610437787432812 0 1 0 I I #
point $-1 -58.428296761986147 28.569363319524701 -8.5610437787432812 #
coedge $-1 $333 $332 $338 $379 reversed $160 $-1 #
vertex $-1 $345 $396 #
straight-curve $-1 0 -28.569363319524701 8.5610437787432812 1 0 0 I I #
edge $-1 $377 -8.5610437787432812 $380 8.5610437787432812 $376 $397 forward 7 unknown #
vertex $-1 $343 $398 #
straight-curve $-1 0 -28.569363319524701 -8.5610437787432812 -1 0 0 I I #
straight-curve $-1 -58.428296761986147 0 -8.5610437787432812 0 1 0 I I #
straight-curve $-1 -58.428296761986147 0 8.5610437787432812 0 -1 0 I I #
straight-curve $-1 58.428296761986147 -0.3047155330288831 83.174178081491846 0 0 -1 I I #
point $-1 58.428296761986147 -0.3047155330288831 8.5610437787432812 #
straight-curve $-1 58.428296761986154 3.1715566752209465 2.3200008684170044 0 1 0 I I #
point $-1 58.428296761986147 -0.3047155330288831 2.3200008684170115 #
point $-1 49.775085630676557 6.3431133504419002 -0.52288674884288877 #
straight-curve $-1 -58.428296761986147 11.873392230438823 2.0506635327786111 0 -1 0 I I #
straight-curve $-1 -58.428296761986147 28.569363319524701 0 0 0 -1 I I #
straight-curve $-1 0 28.569363319524701 8.5610437787432812 -1 0 0 I I #
point $-1 -58.428296761986147 28.569363319524701 2.0506635327786094 #
point $-1 -58.428296761986147 28.569363319524701 8.5610437787432812 #
point $-1 -53.543697515069894 21.679964950028907 3.4734833342179146 #
point $-1 -53.543697515069894 25.813603971726383 3.4734833342179146 #
point $-1 -58.428296761986147 -28.569363319524701 8.5610437787432812 #
straight-curve $-1 -58.428296761986147 -28.569363319524701 0 0 0 -1 I I #
point $-1 -58.428296761986147 -28.569363319524701 -8.5610437787432812 #
End-of-ACIS-data 