500 0 9 0           
7 Unknown 11 ACIS 5.0 NT 24 Fri Mar 26 17:08:23 1999 
-1 9.9999999999999995e-007 1e-010 
body $-1 $9 $-1 $10 #
body $-1 $11 $-1 $12 #
body $-1 $13 $-1 $14 #
body $-1 $15 $-1 $16 #
body $-1 $17 $-1 $18 #
body $-1 $19 $-1 $20 #
body $-1 $21 $-1 $22 #
body $-1 $23 $-1 $24 #
body $-1 $25 $-1 $26 #
lump $-1 $-1 $27 $0 #
transform $-1 1 0 0 0 1 0 0 0 1 71.591540269173251 28.921085804103104 13.098735495601446 1 rotate no_reflect no_shear #
lump $-1 $-1 $28 $1 #
transform $-1 1 0 0 0 1 0 0 0 1 71.591540269173251 28.921085804103104 13.098735495601446 1 rotate no_reflect no_shear #
lump $-1 $-1 $29 $2 #
transform $-1 1 0 0 0 1 0 0 0 1 71.591540269173251 28.921085804103104 13.098735495601446 1 rotate no_reflect no_shear #
lump $-1 $-1 $30 $3 #
transform $-1 1 0 0 0 1 0 0 0 1 71.591540269173251 28.921085804103104 13.098735495601446 1 rotate no_reflect no_shear #
lump $-1 $-1 $31 $4 #
transform $-1 1 0 0 0 1 0 0 0 1 71.591540269173251 28.921085804103104 13.098735495601446 1 rotate no_reflect no_shear #
lump $-1 $-1 $32 $5 #
transform $-1 1 0 0 0 1 0 0 0 1 71.591540269173251 28.921085804103104 13.098735495601446 1 rotate no_reflect no_shear #
lump $-1 $-1 $33 $6 #
transform $-1 1 0 0 0 1 0 0 0 1 71.591540269173251 28.921085804103104 13.098735495601446 1 rotate no_reflect no_shear #
lump $-1 $-1 $34 $7 #
transform $-1 1 0 0 0 1 0 0 0 1 71.591540269173251 28.921085804103104 13.098735495601446 1 rotate no_reflect no_shear #
lump $-1 $-1 $35 $8 #
transform $-1 1 0 0 0 1 0 0 0 1 71.591540269173251 28.921085804103104 13.098735495601446 1 rotate no_reflect no_shear #
shell $-1 $-1 $-1 $36 $-1 $9 #
shell $-1 $-1 $-1 $37 $-1 $11 #
shell $-1 $-1 $-1 $38 $-1 $13 #
shell $-1 $-1 $-1 $39 $-1 $15 #
shell $-1 $-1 $-1 $40 $-1 $17 #
shell $-1 $-1 $-1 $41 $-1 $19 #
shell $-1 $-1 $-1 $42 $-1 $21 #
shell $-1 $-1 $-1 $43 $-1 $23 #
shell $-1 $-1 $-1 $44 $-1 $25 #
face $-1 $45 $46 $27 $-1 $47 forward single #
face $-1 $48 $49 $28 $-1 $50 forward single #
face $-1 $51 $52 $29 $-1 $53 reversed single #
face $-1 $54 $55 $30 $-1 $56 forward single #
face $-1 $57 $58 $31 $-1 $59 forward single #
face $-1 $60 $61 $32 $-1 $62 forward single #
face $-1 $63 $64 $33 $-1 $65 reversed single #
face $-1 $66 $67 $34 $-1 $68 forward single #
face $-1 $69 $70 $35 $-1 $71 forward single #
face $-1 $72 $73 $27 $-1 $74 reversed single #
loop $-1 $-1 $75 $36 #
plane-surface $-1 0 0 13.098735495601446 0 0 1 1 0 0 forward_v I I I I #
face $-1 $76 $77 $28 $-1 $78 reversed single #
loop $-1 $-1 $79 $37 #
plane-surface $-1 0 -28.921085804103104 0 0 1 0 0 0 1 forward_v I I I I #
face $-1 $80 $81 $29 $-1 $82 reversed single #
loop $-1 $-1 $83 $38 #
plane-surface $-1 -151.65850384390183 5.6864466118902968 120.55087736123629 0 1 0 -0.55919291073839883 0 0.82903756765294845 forward_v I I I I #
face $-1 $84 $85 $30 $-1 $86 forward single #
loop $-1 $87 $88 $39 #
cone-surface $-1 -62.971047843480136 7.46313380764445 7.0582112353088835 0.55919291073839883 0 -0.82903756765294845 0.41451878382647422 0 0.27959645536919941 1 I I 0 1 0.5 forward I I I I #
face $-1 $89 $90 $31 $-1 $91 forward single #
loop $-1 $92 $93 $40 #
cone-surface $-1 -62.971047843480136 10.128164601275675 7.0582112353088835 0.55919291073839883 0 -0.82903756765294845 0.41451878382647422 0 0.27959645536919941 1 I I 0 1 0.5 forward I I I I #
face $-1 $94 $95 $32 $-1 $96 forward single #
loop $-1 $97 $98 $41 #
cone-surface $-1 -62.971047843480136 12.793195394906899 7.0582112353088835 0.55919291073839883 0 -0.82903756765294845 0.41451878382647422 0 0.27959645536919941 1 I I 0 1 0.5 forward I I I I #
face $-1 $99 $100 $33 $-1 $101 reversed single #
loop $-1 $-1 $102 $42 #
plane-surface $-1 96.269043556662851 19.985014838453665 207.57262709537309 0 -1 0 -0.78801076186113728 0 -0.61566146476048833 forward_v I I I I #
face $-1 $103 $104 $34 $-1 $105 forward single #
loop $-1 $106 $107 $43 #
cone-surface $-1 68.465615365884247 14.656783388308884 9.3887171635937303 -0.78801076186113728 0 -0.61566146476048833 0.61566146476048833 0 -0.78801076186113728 1 I I 0 1 1 forward I I I I #
face $-1 $108 $109 $35 $-1 $110 forward single #
loop $-1 $111 $112 $44 #
cone-surface $-1 68.465615365884247 17.853722258395752 9.3887171635937303 -0.78801076186113728 0 -0.61566146476048833 0.61566146476048833 0 -0.78801076186113728 1 I I 0 1 1 forward I I I I #
face $-1 $113 $114 $27 $-1 $115 reversed single #
loop $-1 $-1 $116 $45 #
plane-surface $-1 0 0 -13.098735495601446 0 0 1 1 0 0 forward_v I I I I #
coedge $-1 $117 $118 $119 $120 forward $46 $-1 #
face $-1 $121 $122 $28 $-1 $123 reversed single #
loop $-1 $-1 $124 $48 #
plane-surface $-1 0 0 -13.098735495601446 0 0 1 1 0 0 forward_v I I I I #
coedge $-1 $125 $126 $127 $128 forward $49 $-1 #
face $-1 $129 $130 $29 $-1 $131 reversed single #
loop $-1 $-1 $132 $51 #
plane-surface $-1 -71.591540269173265 10.128164601275667 1.8467245426692784 -0.55919291073839883 0 0.82903756765294845 0.82903756765294845 0 0.55919291073839883 forward_v I I I I #
coedge $-1 $133 $134 $135 $136 reversed $52 $-1 #
face $-1 $-1 $137 $30 $-1 $138 forward single #
loop $-1 $139 $140 $54 #
cone-surface $-1 -62.551653160426333 7.46313380764445 6.4364330595691719 0.55919291073839883 0 -0.82903756765294845 0.20725939191323711 0 0.13979822768459971 1 I I -0.70710678118654746 0.70710678118654746 0.25 forward I I I I #
loop $-1 $-1 $141 $39 #
coedge $-1 $88 $88 $142 $143 reversed $55 $-1 #
face $-1 $-1 $144 $31 $-1 $145 forward single #
loop $-1 $146 $147 $57 #
cone-surface $-1 -62.551653160426333 10.128164601275675 6.4364330595691719 0.55919291073839883 0 -0.82903756765294845 0.20725939191323711 0 0.13979822768459971 1 I I -0.70710678118654746 0.70710678118654746 0.25 forward I I I I #
loop $-1 $-1 $148 $40 #
coedge $-1 $93 $93 $149 $150 reversed $58 $-1 #
face $-1 $-1 $151 $32 $-1 $152 forward single #
loop $-1 $153 $154 $60 #
cone-surface $-1 -62.551653160426333 12.793195394906899 6.4364330595691719 0.55919291073839883 0 -0.82903756765294845 0.20725939191323711 0 0.13979822768459971 1 I I -0.70710678118654746 0.70710678118654746 0.25 forward I I I I #
loop $-1 $-1 $155 $41 #
coedge $-1 $98 $98 $156 $157 reversed $61 $-1 #
face $-1 $158 $159 $33 $-1 $160 reversed single #
loop $-1 $-1 $161 $63 #
plane-surface $-1 -16.560764823984172 16.255252823352318 119.4203220022157 0.78801076186113728 0 0.61566146476048833 0.61566146476048833 0 -0.78801076186113728 forward_v I I I I #
coedge $-1 $162 $163 $164 $165 reversed $64 $-1 #
face $-1 $-1 $166 $34 $-1 $167 forward single #
loop $-1 $168 $169 $66 #
cone-surface $-1 67.488075113553194 14.656783388308884 8.6249790362221574 -0.78801076186113728 0 -0.61566146476048833 0.30783073238024417 0 -0.39400538093056864 1 I I -0.70710678118654746 0.70710678118654746 0.5 forward I I I I #
loop $-1 $-1 $170 $43 #
coedge $-1 $107 $107 $171 $172 reversed $67 $-1 #
face $-1 $-1 $173 $35 $-1 $174 forward single #
loop $-1 $175 $176 $69 #
cone-surface $-1 67.488075113553194 17.853722258395752 8.6249790362221574 -0.78801076186113728 0 -0.61566146476048833 0.30783073238024417 0 -0.39400538093056864 1 I I -0.70710678118654746 0.70710678118654746 0.5 forward I I I I #
loop $-1 $-1 $177 $44 #
coedge $-1 $112 $112 $178 $179 reversed $70 $-1 #
face $-1 $180 $181 $27 $-1 $182 reversed single #
loop $-1 $-1 $183 $72 #
plane-surface $-1 0 -28.921085804103104 0 0 1 0 0 0 1 forward_v I I I I #
coedge $-1 $184 $185 $186 $187 forward $73 $-1 #
coedge $-1 $188 $75 $189 $190 forward $46 $-1 #
coedge $-1 $75 $188 $191 $192 forward $46 $-1 #
coedge $-1 $193 $194 $75 $120 reversed $195 $-1 #
edge $-1 $196 -28.921085804103104 $197 28.921085804103104 $119 $198 forward 7 unknown #
face $-1 $199 $200 $28 $-1 $201 forward single #
loop $-1 $-1 $202 $76 #
plane-surface $-1 71.591540269173251 0 0 -1 0 0 0 0 1 forward_v I I I I #
coedge $-1 $203 $204 $205 $206 forward $77 $-1 #
coedge $-1 $205 $79 $202 $207 reversed $49 $-1 #
coedge $-1 $79 $205 $208 $209 reversed $49 $-1 #
coedge $-1 $210 $211 $79 $128 reversed $200 $-1 #
edge $-1 $212 -71.591540269173251 $213 71.591540269173251 $127 $214 forward 7 unknown #
face $-1 $215 $216 $29 $-1 $217 forward single #
loop $-1 $-1 $218 $80 #
plane-surface $-1 -151.65850384390183 14.569882590661038 120.55087736123629 0 -1 0 0.55919291073839883 0 -0.82903756765294845 forward_v I I I I #
coedge $-1 $219 $220 $221 $222 reversed $81 $-1 #
coedge $-1 $134 $83 $223 $224 reversed $52 $-1 #
coedge $-1 $83 $133 $219 $225 reversed $52 $-1 #
coedge $-1 $221 $226 $83 $136 forward $216 $-1 #
edge $-1 $227 4.2377116527776622 $228 20.919503593425475 $135 $229 forward 7 unknown #
loop $-1 $-1 $142 $84 #
plane-surface $-1 -71.591540269173265 10.128164601275667 1.8467245426692784 -0.55919291073839883 0 0.82903756765294845 0.82903756765294845 0 0.55919291073839883 forward_v I I I I #
loop $-1 $-1 $230 $54 #
coedge $-1 $140 $140 $141 $231 reversed $85 $-1 #
coedge $-1 $141 $141 $140 $231 forward $87 $-1 #
coedge $-1 $142 $142 $88 $143 forward $137 $-1 #
edge $-1 $232 0 $232 6.2831853071796004 $142 $233 forward 7 unknown #
loop $-1 $-1 $149 $89 #
plane-surface $-1 -71.591540269173265 10.128164601275667 1.8467245426692784 -0.55919291073839883 0 0.82903756765294845 0.82903756765294845 0 0.55919291073839883 forward_v I I I I #
loop $-1 $-1 $234 $57 #
coedge $-1 $147 $147 $148 $235 reversed $90 $-1 #
coedge $-1 $148 $148 $147 $235 forward $92 $-1 #
coedge $-1 $149 $149 $93 $150 forward $144 $-1 #
edge $-1 $236 0 $236 6.2831853071796004 $149 $237 forward 7 unknown #
loop $-1 $-1 $156 $94 #
plane-surface $-1 -71.591540269173265 10.128164601275667 1.8467245426692784 -0.55919291073839883 0 0.82903756765294845 0.82903756765294845 0 0.55919291073839883 forward_v I I I I #
loop $-1 $-1 $238 $60 #
coedge $-1 $154 $154 $155 $239 reversed $95 $-1 #
coedge $-1 $155 $155 $154 $239 forward $97 $-1 #
coedge $-1 $156 $156 $98 $157 forward $151 $-1 #
edge $-1 $240 0 $240 6.2831853071796004 $156 $241 forward 7 unknown #
face $-1 $242 $243 $33 $-1 $244 reversed single #
loop $-1 $-1 $245 $99 #
plane-surface $-1 96.269043556662851 12.525490808250971 207.57262709537309 0 1 0 0.78801076186113728 0 0.61566146476048833 forward_v I I I I #
coedge $-1 $246 $247 $248 $249 reversed $100 $-1 #
coedge $-1 $163 $102 $250 $251 reversed $64 $-1 #
coedge $-1 $102 $162 $246 $252 reversed $64 $-1 #
coedge $-1 $248 $253 $102 $165 forward $254 $-1 #
edge $-1 $255 -23.457018490841826 $256 -18.372238427064751 $164 $257 forward 7 unknown #
loop $-1 $-1 $171 $103 #
plane-surface $-1 -16.560764823984172 16.255252823352318 119.4203220022157 0.78801076186113728 0 0.61566146476048833 0.61566146476048833 0 -0.78801076186113728 forward_v I I I I #
loop $-1 $-1 $258 $66 #
coedge $-1 $169 $169 $170 $259 reversed $104 $-1 #
coedge $-1 $170 $170 $169 $259 forward $106 $-1 #
coedge $-1 $171 $171 $107 $172 forward $166 $-1 #
edge $-1 $260 0 $260 6.2831853071796004 $171 $261 forward 7 unknown #
loop $-1 $-1 $178 $108 #
plane-surface $-1 -16.560764823984172 16.255252823352318 119.4203220022157 0.78801076186113728 0 0.61566146476048833 0.61566146476048833 0 -0.78801076186113728 forward_v I I I I #
loop $-1 $-1 $262 $69 #
coedge $-1 $176 $176 $177 $263 reversed $109 $-1 #
coedge $-1 $177 $177 $176 $263 forward $111 $-1 #
coedge $-1 $178 $178 $112 $179 forward $173 $-1 #
edge $-1 $264 0 $264 6.2831853071796004 $178 $265 forward 7 unknown #
face $-1 $266 $267 $27 $-1 $268 reversed single #
loop $-1 $-1 $269 $113 #
plane-surface $-1 -71.591540269173251 0 0 1 0 0 0 0 -1 forward_v I I I I #
coedge $-1 $270 $191 $271 $272 forward $114 $-1 #
coedge $-1 $273 $116 $270 $274 forward $73 $-1 #
coedge $-1 $116 $273 $275 $276 forward $73 $-1 #
coedge $-1 $194 $193 $116 $187 reversed $195 $-1 #
edge $-1 $277 -28.921085804103104 $278 28.921085804103104 $186 $279 forward 7 unknown #
coedge $-1 $118 $117 $280 $281 forward $46 $-1 #
coedge $-1 $282 $283 $117 $190 reversed $267 $-1 #
edge $-1 $197 -71.591540269173251 $284 71.591540269173251 $189 $285 forward 7 unknown #
coedge $-1 $183 $286 $118 $192 reversed $114 $-1 #
edge $-1 $287 -71.591540269173251 $196 71.591540269173251 $191 $288 forward 7 unknown #
coedge $-1 $186 $119 $286 $289 forward $195 $-1 #
coedge $-1 $119 $186 $282 $290 reversed $195 $-1 #
loop $-1 $-1 $193 $266 #
vertex $-1 $120 $291 #
vertex $-1 $120 $292 #
straight-curve $-1 71.591540269173251 0 13.098735495601446 0 1 0 I I #
face $-1 $293 $294 $28 $-1 $295 reversed single #
loop $-1 $-1 $211 $121 #
plane-surface $-1 0 -37.441983739023094 -9.5125434081036424 0 0 1 1 0 0 forward_v I I I I #
coedge $-1 $296 $297 $125 $207 forward $122 $-1 #
coedge $-1 $298 $124 $297 $299 forward $77 $-1 #
coedge $-1 $124 $298 $300 $301 forward $77 $-1 #
coedge $-1 $126 $125 $124 $206 reversed $49 $-1 #
edge $-1 $302 -71.591540269173251 $303 71.591540269173251 $124 $304 forward 7 unknown #
edge $-1 $303 -13.098735495601446 $213 -9.5125434081036424 $202 $305 forward 7 unknown #
coedge $-1 $300 $306 $126 $209 forward $307 $-1 #
edge $-1 $212 9.5125434081036424 $302 13.098735495601446 $208 $308 forward 7 unknown #
coedge $-1 $309 $127 $306 $310 forward $200 $-1 #
coedge $-1 $127 $309 $296 $311 forward $200 $-1 #
vertex $-1 $209 $312 #
vertex $-1 $311 $313 #
straight-curve $-1 0 -28.921085804103104 -9.5125434081036424 1 0 0 I I #
face $-1 $-1 $314 $29 $-1 $315 reversed single #
loop $-1 $-1 $135 $129 #
plane-surface $-1 0 0 13.098735495601446 0 0 1 1 0 0 forward_v I I I I #
coedge $-1 $316 $317 $318 $319 reversed $130 $-1 #
coedge $-1 $320 $132 $134 $225 forward $81 $-1 #
coedge $-1 $132 $320 $316 $321 forward $81 $-1 #
coedge $-1 $318 $135 $132 $222 forward $216 $-1 #
edge $-1 $228 0.62236431125246305 $322 9.5058002900232044 $221 $323 forward 7 unknown #
coedge $-1 $324 $325 $133 $224 forward $314 $-1 #
edge $-1 $326 -58.428714137948859 $227 -47.176703185016699 $223 $327 forward 7 unknown #
edge $-1 $228 -20.121876970997718 $326 -1.7120460491857305e-014 $134 $328 forward 7 unknown #
coedge $-1 $135 $318 $324 $329 forward $216 $-1 #
vertex $-1 $224 $330 #
vertex $-1 $136 $331 #
straight-curve $-1 -75.829251921950913 5.6864466118902968 13.098735495601446 1 0 0 I I #
coedge $-1 $230 $230 $-1 $332 reversed $139 $-1 #
edge $-1 $333 0 $333 6.2831853071796004 $140 $334 forward 7 unknown #
vertex $-1 $143 $335 #
ellipse-curve $-1 -63.250644298849345 7.46313380764445 7.4727300191353692 -0.55919291073839883 0 0.82903756765294845 0.41451878382647422 0 0.27959645536919941 1 I I #
coedge $-1 $234 $234 $-1 $336 reversed $146 $-1 #
edge $-1 $337 0 $337 6.2831853071796004 $147 $338 forward 7 unknown #
vertex $-1 $150 $339 #
ellipse-curve $-1 -63.250644298849345 10.128164601275675 7.4727300191353692 -0.55919291073839883 0 0.82903756765294845 0.41451878382647422 0 0.27959645536919941 1 I I #
coedge $-1 $238 $238 $-1 $340 reversed $153 $-1 #
edge $-1 $341 0 $341 6.2831853071796004 $154 $342 forward 7 unknown #
vertex $-1 $157 $343 #
ellipse-curve $-1 -63.250644298849345 12.793195394906899 7.4727300191353692 -0.55919291073839883 0 0.82903756765294845 0.41451878382647422 0 0.27959645536919941 1 I I #
face $-1 $-1 $254 $33 $-1 $344 forward single #
loop $-1 $-1 $345 $158 #
plane-surface $-1 71.591540269173251 0 0 -1 0 0 0 0 1 forward_v I I I I #
coedge $-1 $346 $347 $348 $349 reversed $159 $-1 #
coedge $-1 $350 $161 $163 $252 forward $100 $-1 #
coedge $-1 $161 $350 $346 $351 forward $100 $-1 #
coedge $-1 $348 $164 $161 $249 forward $254 $-1 #
edge $-1 $256 -11.857388426777506 $352 -4.3978643965748123 $248 $353 forward 7 unknown #
coedge $-1 $354 $355 $162 $251 forward $243 $-1 #
edge $-1 $356 -97.195799926117914 $255 -90.687578052085101 $250 $357 forward 7 unknown #
edge $-1 $256 134.92402851897873 $356 143.18308053834659 $163 $358 forward 7 unknown #
coedge $-1 $164 $348 $354 $359 forward $254 $-1 #
loop $-1 $-1 $348 $242 #
vertex $-1 $251 $360 #
vertex $-1 $165 $361 #
straight-curve $-1 48.134521778331425 19.985014838453665 13.098735495601446 -1 0 0 I I #
coedge $-1 $258 $258 $-1 $362 reversed $168 $-1 #
edge $-1 $363 0 $363 6.2831853071796004 $169 $364 forward 7 unknown #
vertex $-1 $172 $365 #
ellipse-curve $-1 69.049150237284721 14.656783388308884 9.8446245585850551 0.78801076186113728 0 0.61566146476048833 0.61566146476048833 0 -0.78801076186113728 1 I I #
coedge $-1 $262 $262 $-1 $366 reversed $175 $-1 #
edge $-1 $367 0 $367 6.2831853071796004 $176 $368 forward 7 unknown #
vertex $-1 $179 $369 #
ellipse-curve $-1 69.049150237284721 17.853722258395752 9.8446245585850551 0.78801076186113728 0 0.61566146476048833 0.61566146476048833 0 -0.78801076186113728 1 I I #
face $-1 $-1 $195 $27 $-1 $370 reversed single #
loop $-1 $-1 $282 $180 #
plane-surface $-1 0 28.921085804103104 0 0 -1 0 0 0 -1 forward_v I I I I #
coedge $-1 $371 $280 $283 $372 forward $181 $-1 #
coedge $-1 $286 $183 $184 $274 reversed $114 $-1 #
coedge $-1 $280 $371 $183 $272 reversed $181 $-1 #
edge $-1 $287 -13.098735495601446 $373 13.098735495601446 $271 $374 forward 7 unknown #
coedge $-1 $185 $184 $371 $375 forward $73 $-1 #
edge $-1 $278 -71.591540269173251 $373 71.591540269173251 $270 $376 forward 7 unknown #
coedge $-1 $283 $282 $185 $276 reversed $267 $-1 #
edge $-1 $377 -71.591540269173251 $277 71.591540269173251 $275 $378 forward 7 unknown #
vertex $-1 $187 $379 #
vertex $-1 $289 $380 #
straight-curve $-1 71.591540269173251 0 -13.098735495601446 0 -1 0 I I #
coedge $-1 $269 $271 $188 $281 reversed $181 $-1 #
edge $-1 $284 -28.921085804103104 $287 28.921085804103104 $280 $381 forward 7 unknown #
coedge $-1 $275 $189 $194 $290 forward $267 $-1 #
coedge $-1 $189 $275 $269 $372 reversed $267 $-1 #
vertex $-1 $190 $382 #
straight-curve $-1 0 28.921085804103104 13.098735495601446 -1 0 0 I I #
coedge $-1 $191 $270 $193 $289 reversed $114 $-1 #
vertex $-1 $281 $383 #
straight-curve $-1 0 -28.921085804103104 13.098735495601446 1 0 0 I I #
edge $-1 $196 -13.098735495601446 $278 13.098735495601446 $193 $384 forward 7 unknown #
edge $-1 $197 -13.098735495601446 $277 13.098735495601446 $194 $385 forward 7 unknown #
point $-1 71.591540269173251 -28.921085804103104 13.098735495601446 #
point $-1 71.591540269173251 28.921085804103104 13.098735495601446 #
face $-1 $-1 $307 $28 $-1 $386 reversed single #
loop $-1 $-1 $387 $199 #
plane-surface $-1 0 -45.96288167394308 -11.305639451852544 0 1 0 0 0 1 forward_v I I I I #
coedge $-1 $388 $202 $211 $311 reversed $122 $-1 #
coedge $-1 $202 $388 $203 $299 reversed $122 $-1 #
coedge $-1 $204 $203 $389 $390 forward $77 $-1 #
edge $-1 $303 28.921085804103104 $391 45.96288167394308 $297 $392 forward 7 unknown #
coedge $-1 $393 $208 $204 $301 reversed $307 $-1 #
edge $-1 $394 -45.96288167394308 $302 -28.921085804103104 $300 $395 forward 7 unknown #
vertex $-1 $209 $396 #
vertex $-1 $299 $397 #
straight-curve $-1 0 -28.921085804103104 -13.098735495601446 1 0 0 I I #
straight-curve $-1 71.591540269173251 -28.921085804103104 0 0 0 1 I I #
coedge $-1 $208 $393 $210 $310 reversed $307 $-1 #
loop $-1 $-1 $208 $293 #
straight-curve $-1 -71.591540269173251 -28.921085804103104 0 0 0 -1 I I #
coedge $-1 $211 $210 $398 $399 forward $200 $-1 #
edge $-1 $212 -8.5208979349199865 $400 8.5208979349199865 $306 $401 forward 7 unknown #
edge $-1 $402 -8.5208979349199865 $213 8.5208979349199865 $296 $403 forward 7 unknown #
point $-1 -71.591540269173251 -28.921085804103107 -9.5125434081036424 #
point $-1 71.591540269173251 -28.921085804103107 -9.5125434081036424 #
loop $-1 $-1 $223 $215 #
plane-surface $-1 -71.591540269173251 0 0 1 0 0 0 0 -1 forward_v I I I I #
coedge $-1 $317 $218 $220 $321 reversed $130 $-1 #
coedge $-1 $218 $316 $404 $405 reversed $130 $-1 #
coedge $-1 $226 $221 $218 $319 forward $216 $-1 #
edge $-1 $322 -20.919503593425475 $406 -4.2377116527776622 $318 $407 forward 7 unknown #
coedge $-1 $220 $219 $325 $408 reversed $81 $-1 #
edge $-1 $409 1.7120460491857305e-014 $322 20.121876970997718 $316 $410 forward 7 unknown #
vertex $-1 $222 $411 #
straight-curve $-1 -54.909748328525438 5.0640823006378337 13.098735495601446 0 1 0 I I #
coedge $-1 $404 $223 $226 $329 reversed $314 $-1 #
coedge $-1 $223 $404 $320 $408 forward $314 $-1 #
vertex $-1 $224 $412 #
straight-curve $-1 -71.591540269173251 5.6864466118902968 60.275438680618144 0 0 1 I I #
straight-curve $-1 -71.591540269173265 5.6864466118902968 1.8467245426692784 -0.82903756765294845 0 -0.55919291073839883 I I #
edge $-1 $406 -14.569882590661038 $227 -5.6864466118902968 $324 $413 forward 7 unknown #
point $-1 -71.591540269173251 5.6864466118902968 13.098735495601446 #
point $-1 -54.909748328525438 5.6864466118902968 13.098735495601446 #
edge $-1 $414 1 $414 0 $230 $-1 forward 7 unknown #
vertex $-1 $231 $415 #
ellipse-curve $-1 -62.691451388110934 7.46313380764445 6.6436924514824094 -0.55919291073839883 0 0.82903756765294845 0.41451878382647422 0 0.27959645536919941 1 I I #
point $-1 -62.836125515022857 7.46313380764445 7.7523264745045566 #
edge $-1 $416 1 $416 0 $234 $-1 forward 7 unknown #
vertex $-1 $235 $417 #
ellipse-curve $-1 -62.691451388110934 10.128164601275675 6.6436924514824094 -0.55919291073839883 0 0.82903756765294845 0.41451878382647422 0 0.27959645536919941 1 I I #
point $-1 -62.836125515022857 10.128164601275675 7.7523264745045566 #
edge $-1 $418 1 $418 0 $238 $-1 forward 7 unknown #
vertex $-1 $239 $419 #
ellipse-curve $-1 -62.691451388110934 12.793195394906899 6.6436924514824094 -0.55919291073839883 0 0.82903756765294845 0.41451878382647422 0 0.27959645536919941 1 I I #
point $-1 -62.836125515022857 12.793195394906899 7.7523264745045566 #
plane-surface $-1 0 0 13.098735495601446 0 0 1 1 0 0 forward_v I I I I #
coedge $-1 $355 $354 $347 $420 forward $243 $-1 #
coedge $-1 $347 $245 $247 $351 reversed $159 $-1 #
coedge $-1 $245 $346 $345 $420 reversed $159 $-1 #
coedge $-1 $253 $248 $245 $349 forward $254 $-1 #
edge $-1 $352 18.372238427064751 $421 23.457018490841826 $348 $422 forward 7 unknown #
coedge $-1 $247 $246 $355 $423 reversed $100 $-1 #
edge $-1 $424 -143.18308053834659 $352 -134.92402851897873 $346 $425 forward 7 unknown #
vertex $-1 $249 $426 #
straight-curve $-1 66.506760205396176 8.1276264116761592 13.098735495601446 0 -1 0 I I #
coedge $-1 $345 $250 $253 $359 reversed $243 $-1 #
coedge $-1 $250 $345 $350 $423 forward $243 $-1 #
vertex $-1 $251 $427 #
straight-curve $-1 71.591540269173251 19.985014838453665 103.78631354768655 0 0 1 I I #
straight-curve $-1 -16.560764823984172 19.985014838453665 119.4203220022157 0.61566146476048833 0 -0.78801076186113728 I I #
edge $-1 $421 12.525490808250971 $255 19.985014838453665 $354 $428 forward 7 unknown #
point $-1 71.591540269173251 19.985014838453665 13.098735495601446 #
point $-1 66.506760205396176 19.985014838453665 13.09873549560146 #
edge $-1 $429 1 $429 0 $258 $-1 forward 7 unknown #
vertex $-1 $259 $430 #
ellipse-curve $-1 67.882080494483759 14.656783388308884 8.9328097686024019 0.78801076186113728 0 0.61566146476048833 0.61566146476048833 0 -0.78801076186113728 1 I I #
point $-1 69.664811702045213 14.656783388308884 9.0566137967239229 #
edge $-1 $431 1 $431 0 $262 $-1 forward 7 unknown #
vertex $-1 $263 $432 #
ellipse-curve $-1 67.882080494483759 17.853722258395752 8.9328097686024019 0.78801076186113728 0 0.61566146476048833 0.61566146476048833 0 -0.78801076186113728 1 I I #
point $-1 69.664811702045213 17.853722258395752 9.0566137967239229 #
plane-surface $-1 71.591540269173251 0 0 -1 0 0 0 0 1 forward_v I I I I #
coedge $-1 $271 $269 $273 $375 reversed $181 $-1 #
edge $-1 $284 -13.098735495601446 $377 13.098735495601446 $283 $433 forward 7 unknown #
vertex $-1 $375 $434 #
straight-curve $-1 -71.591540269173251 -28.921085804103104 0 0 0 -1 I I #
edge $-1 $373 -28.921085804103104 $377 28.921085804103104 $371 $435 forward 7 unknown #
straight-curve $-1 0 -28.921085804103104 -13.098735495601446 -1 0 0 I I #
vertex $-1 $276 $436 #
straight-curve $-1 0 28.921085804103104 -13.098735495601446 1 0 0 I I #
point $-1 71.591540269173251 28.921085804103104 -13.098735495601446 #
point $-1 71.591540269173251 -28.921085804103104 -13.098735495601446 #
straight-curve $-1 -71.591540269173251 0 13.098735495601446 0 -1 0 I I #
point $-1 -71.591540269173251 28.921085804103104 13.098735495601446 #
point $-1 -71.591540269173251 -28.921085804103104 13.098735495601446 #
straight-curve $-1 71.591540269173251 -28.921085804103104 0 0 0 -1 I I #
straight-curve $-1 71.591540269173251 28.921085804103104 0 0 0 -1 I I #
plane-surface $-1 -71.591540269173251 0 0 1 0 0 0 0 -1 forward_v I I I I #
coedge $-1 $389 $398 $393 $437 forward $294 $-1 #
coedge $-1 $297 $296 $438 $439 forward $122 $-1 #
coedge $-1 $438 $387 $298 $390 reversed $294 $-1 #
edge $-1 $391 -71.591540269173251 $394 71.591540269173251 $389 $440 forward 7 unknown #
vertex $-1 $439 $441 #
straight-curve $-1 71.591540269173251 0 -13.098735495601446 0 -1 0 I I #
coedge $-1 $306 $300 $387 $437 reversed $307 $-1 #
vertex $-1 $301 $442 #
straight-curve $-1 -71.591540269173251 0 -13.098735495601446 0 1 0 I I #
point $-1 -71.591540269173251 -28.921085804103104 -13.098735495601446 #
point $-1 71.591540269173251 -28.921085804103104 -13.098735495601446 #
coedge $-1 $387 $438 $309 $399 reversed $294 $-1 #
edge $-1 $400 -71.591540269173251 $402 71.591540269173251 $398 $443 forward 7 unknown #
vertex $-1 $310 $444 #
straight-curve $-1 -71.591540269173251 -37.441983739023094 -9.5125434081036424 0 -1 0 I I #
vertex $-1 $311 $445 #
straight-curve $-1 71.591540269173251 -37.441983739023094 -9.5125434081036424 0 1 0 I I #
coedge $-1 $325 $324 $317 $405 forward $314 $-1 #
edge $-1 $406 47.176703185016699 $409 58.428714137948859 $404 $446 forward 7 unknown #
vertex $-1 $329 $447 #
straight-curve $-1 -75.829251921950913 14.569882590661038 13.098735495601446 -1 0 0 I I #
edge $-1 $409 -9.5058002900232044 $326 -0.62236431125246305 $325 $448 forward 7 unknown #
vertex $-1 $408 $449 #
straight-curve $-1 -71.591540269173265 14.569882590661038 1.8467245426692784 0.82903756765294845 0 0.55919291073839883 I I #
point $-1 -54.909748328525438 14.569882590661038 13.098735495601446 #
point $-1 -71.591540269173251 5.6864466118902968 1.846724542669288 #
straight-curve $-1 -71.591540269173251 0 13.098735495601446 0 -1 0 I I #
vertex $-1 $332 $450 #
point $-1 -62.276932604284461 7.46313380764445 6.9232889068516084 #
vertex $-1 $336 $451 #
point $-1 -62.276932604284461 10.128164601275675 6.9232889068516084 #
vertex $-1 $340 $452 #
point $-1 -62.276932604284461 12.793195394906899 6.9232889068516084 #
edge $-1 $421 90.687578052085101 $424 97.195799926117914 $345 $453 forward 7 unknown #
vertex $-1 $359 $454 #
straight-curve $-1 48.134521778331425 12.525490808250971 13.098735495601446 1 0 0 I I #
edge $-1 $424 4.3978643965748123 $356 11.857388426777506 $355 $455 forward 7 unknown #
vertex $-1 $423 $456 #
straight-curve $-1 -16.560764823984172 12.525490808250971 119.4203220022157 -0.61566146476048833 0 0.78801076186113728 I I #
point $-1 66.506760205396176 12.525490808250971 13.09873549560146 #
point $-1 71.591540269173251 19.985014838453665 6.5905136215686326 #
straight-curve $-1 71.591540269173251 0 13.098735495601446 0 1 0 I I #
vertex $-1 $362 $457 #
point $-1 68.497741959244252 14.656783388308884 8.1447990067412643 #
vertex $-1 $366 $458 #
point $-1 68.497741959244252 17.853722258395752 8.1447990067412643 #
straight-curve $-1 -71.591540269173251 28.921085804103104 0 0 0 -1 I I #
point $-1 -71.591540269173251 -28.921085804103104 -13.098735495601446 #
straight-curve $-1 -71.591540269173251 0 -13.098735495601446 0 1 0 I I #
point $-1 -71.591540269173251 28.921085804103104 -13.098735495601446 #
edge $-1 $400 -1.7930960437489016 $394 1.7930960437489016 $393 $459 forward 7 unknown #
coedge $-1 $398 $389 $388 $439 reversed $294 $-1 #
edge $-1 $402 -1.7930960437489016 $391 1.7930960437489016 $388 $460 forward 7 unknown #
straight-curve $-1 0 -45.96288167394308 -13.098735495601446 -1 0 0 I I #
point $-1 71.591540269173251 -45.96288167394308 -13.098735495601446 #
point $-1 -71.591540269173251 -45.96288167394308 -13.098735495601446 #
straight-curve $-1 0 -45.96288167394308 -9.5125434081036424 1 0 0 I I #
point $-1 -71.591540269173251 -45.96288167394308 -9.5125434081036424 #
point $-1 71.591540269173251 -45.96288167394308 -9.5125434081036424 #
straight-curve $-1 -71.591540269173251 14.569882590661038 60.275438680618144 0 0 -1 I I #
point $-1 -71.591540269173251 14.569882590661038 13.098735495601446 #
straight-curve $-1 -71.591540269173251 5.0640823006378337 1.8467245426692946 0 -1 0 I I #
point $-1 -71.591540269173251 14.569882590661038 1.846724542669288 #
point $-1 -62.411854932741733 7.46313380764445 6.2291736676559344 #
point $-1 -62.411854932741733 10.128164601275675 6.2291736676559344 #
point $-1 -62.411854932741733 12.793195394906899 6.2291736676559344 #
straight-curve $-1 71.591540269173251 12.525490808250971 103.78631354768655 0 0 -1 I I #
point $-1 71.591540269173251 12.525490808250971 13.098735495601446 #
straight-curve $-1 71.591540269173251 8.1276264116761592 6.5905136215686326 0 1 0 I I #
point $-1 71.591540269173251 12.525490808250971 6.5905136215686326 #
point $-1 67.094069732622629 14.656783388308884 8.3171483038419129 #
point $-1 67.094069732622629 17.853722258395752 8.3171483038419129 #
straight-curve $-1 -71.591540269173251 -45.96288167394308 -11.305639451852544 0 0 -1 I I #
straight-curve $-1 71.591540269173251 -45.96288167394308 -11.305639451852544 0 0 -1 I I #
End-of-ACIS-data 