500 0 19 0           
7 Unknown 11 ACIS 5.0 NT 24 Fri Mar 26 18:48:23 1999 
-1 9.9999999999999995e-007 1e-010 
body $-1 $19 $-1 $20 #
body $-1 $21 $-1 $22 #
body $-1 $23 $-1 $24 #
body $-1 $25 $-1 $26 #
body $-1 $27 $-1 $28 #
body $-1 $29 $-1 $30 #
body $-1 $31 $-1 $32 #
body $-1 $33 $-1 $34 #
body $-1 $35 $-1 $36 #
body $-1 $37 $-1 $38 #
body $-1 $39 $-1 $40 #
body $-1 $41 $-1 $42 #
body $-1 $43 $-1 $44 #
body $-1 $45 $-1 $46 #
body $-1 $47 $-1 $48 #
body $-1 $49 $-1 $50 #
body $-1 $51 $-1 $52 #
body $-1 $53 $-1 $54 #
body $-1 $55 $-1 $56 #
lump $-1 $-1 $57 $0 #
transform $-1 1 0 0 0 1 0 0 0 1 57.250282296212653 39.016398477995999 17.67139097787685 1 rotate no_reflect no_shear #
lump $-1 $-1 $58 $1 #
transform $-1 1 0 0 0 1 0 0 0 1 57.250282296212653 39.016398477995999 17.67139097787685 1 rotate no_reflect no_shear #
lump $-1 $-1 $59 $2 #
transform $-1 1 0 0 0 1 0 0 0 1 57.250282296212653 39.016398477995999 17.67139097787685 1 rotate no_reflect no_shear #
lump $-1 $-1 $60 $3 #
transform $-1 1 0 0 0 1 0 0 0 1 57.250282296212653 39.016398477995999 17.67139097787685 1 rotate no_reflect no_shear #
lump $-1 $-1 $61 $4 #
transform $-1 1 0 0 0 1 0 0 0 1 57.250282296212653 39.016398477995999 17.67139097787685 1 rotate no_reflect no_shear #
lump $-1 $-1 $62 $5 #
transform $-1 1 0 0 0 1 0 0 0 1 57.250282296212653 39.016398477995999 17.67139097787685 1 rotate no_reflect no_shear #
lump $-1 $-1 $63 $6 #
transform $-1 1 0 0 0 1 0 0 0 1 57.250282296212653 39.016398477995999 17.67139097787685 1 rotate no_reflect no_shear #
lump $-1 $-1 $64 $7 #
transform $-1 1 0 0 0 1 0 0 0 1 57.250282296212653 39.016398477995999 17.67139097787685 1 rotate no_reflect no_shear #
lump $-1 $-1 $65 $8 #
transform $-1 1 0 0 0 1 0 0 0 1 57.250282296212653 39.016398477995999 17.67139097787685 1 rotate no_reflect no_shear #
lump $-1 $-1 $66 $9 #
transform $-1 1 0 0 0 1 0 0 0 1 57.250282296212653 39.016398477995999 17.67139097787685 1 rotate no_reflect no_shear #
lump $-1 $-1 $67 $10 #
transform $-1 1 0 0 0 1 0 0 0 1 57.250282296212653 39.016398477995999 17.67139097787685 1 rotate no_reflect no_shear #
lump $-1 $-1 $68 $11 #
transform $-1 1 0 0 0 1 0 0 0 1 57.250282296212653 39.016398477995999 17.67139097787685 1 rotate no_reflect no_shear #
lump $-1 $-1 $69 $12 #
transform $-1 1 0 0 0 1 0 0 0 1 57.250282296212653 39.016398477995999 17.67139097787685 1 rotate no_reflect no_shear #
lump $-1 $-1 $70 $13 #
transform $-1 1 0 0 0 1 0 0 0 1 57.250282296212653 39.016398477995999 17.67139097787685 1 rotate no_reflect no_shear #
lump $-1 $-1 $71 $14 #
transform $-1 1 0 0 0 1 0 0 0 1 57.250282296212653 39.016398477995999 17.67139097787685 1 rotate no_reflect no_shear #
lump $-1 $-1 $72 $15 #
transform $-1 1 0 0 0 1 0 0 0 1 57.250282296212653 39.016398477995999 17.67139097787685 1 rotate no_reflect no_shear #
lump $-1 $-1 $73 $16 #
transform $-1 1 0 0 0 1 0 0 0 1 57.250282296212653 39.016398477995999 17.67139097787685 1 rotate no_reflect no_shear #
lump $-1 $-1 $74 $17 #
transform $-1 1 0 0 0 1 0 0 0 1 57.250282296212653 39.016398477995999 17.67139097787685 1 rotate no_reflect no_shear #
lump $-1 $-1 $75 $18 #
transform $-1 1 0 0 0 1 0 0 0 1 57.250282296212653 39.016398477995999 17.67139097787685 1 rotate no_reflect no_shear #
shell $-1 $-1 $-1 $76 $-1 $19 #
shell $-1 $-1 $-1 $77 $-1 $21 #
shell $-1 $-1 $-1 $78 $-1 $23 #
shell $-1 $-1 $-1 $79 $-1 $25 #
shell $-1 $-1 $-1 $80 $-1 $27 #
shell $-1 $-1 $-1 $81 $-1 $29 #
shell $-1 $-1 $-1 $82 $-1 $31 #
shell $-1 $-1 $-1 $83 $-1 $33 #
shell $-1 $-1 $-1 $84 $-1 $35 #
shell $-1 $-1 $-1 $85 $-1 $37 #
shell $-1 $-1 $-1 $86 $-1 $39 #
shell $-1 $-1 $-1 $87 $-1 $41 #
shell $-1 $-1 $-1 $88 $-1 $43 #
shell $-1 $-1 $-1 $89 $-1 $45 #
shell $-1 $-1 $-1 $90 $-1 $47 #
shell $-1 $-1 $-1 $91 $-1 $49 #
shell $-1 $-1 $-1 $92 $-1 $51 #
shell $-1 $-1 $-1 $93 $-1 $53 #
shell $-1 $-1 $-1 $94 $-1 $55 #
face $-1 $95 $96 $57 $-1 $97 forward single #
face $-1 $98 $99 $58 $-1 $100 reversed single #
face $-1 $101 $102 $59 $-1 $103 reversed single #
face $-1 $104 $105 $60 $-1 $106 reversed single #
face $-1 $107 $108 $61 $-1 $109 forward single #
face $-1 $110 $111 $62 $-1 $112 forward single #
face $-1 $113 $114 $63 $-1 $115 forward single #
face $-1 $116 $117 $64 $-1 $118 reversed single #
face $-1 $119 $120 $65 $-1 $121 forward single #
face $-1 $122 $123 $66 $-1 $124 forward single #
face $-1 $125 $126 $67 $-1 $127 forward single #
face $-1 $128 $129 $68 $-1 $130 reversed single #
face $-1 $131 $132 $69 $-1 $133 forward single #
face $-1 $134 $135 $70 $-1 $136 forward single #
face $-1 $137 $138 $71 $-1 $139 forward single #
face $-1 $140 $141 $72 $-1 $142 reversed single #
face $-1 $143 $144 $73 $-1 $145 forward single #
face $-1 $146 $147 $74 $-1 $148 forward single #
face $-1 $149 $150 $75 $-1 $151 forward single #
face $-1 $152 $153 $57 $-1 $154 reversed single #
loop $-1 $-1 $155 $76 #
plane-surface $-1 0 0 17.67139097787685 0 0 1 1 0 0 forward_v I I I I #
face $-1 $156 $157 $58 $-1 $158 reversed single #
loop $-1 $-1 $159 $77 #
plane-surface $-1 -55.99854230442547 -30.426296871238286 0 1 0 0 0 0 -1 forward_v I I I I #
face $-1 $160 $161 $59 $-1 $162 reversed single #
loop $-1 $-1 $163 $78 #
plane-surface $-1 -43.128924775079412 17.243488817757353 0 0 1 0 0 0 1 forward_v I I I I #
face $-1 $164 $165 $60 $-1 $166 reversed single #
loop $-1 $-1 $167 $79 #
plane-surface $-1 -153.27853674951322 -11.268846264750044 73.632213036967158 0 1 0 -0.83867057594974714 0 0.54463902268945019 forward_v I I I I #
face $-1 $168 $169 $61 $-1 $170 forward single #
loop $-1 $171 $172 $80 #
cone-surface $-1 -54.752630570631787 -9.4743476564723572 14.198744697572886 0.83867057594974714 0 -0.54463902268945019 0.2723195113447251 0 0.41933528797487357 1 I I 0 1 0.5 forward I I I I #
face $-1 $173 $174 $62 $-1 $175 forward single #
loop $-1 $176 $177 $81 #
cone-surface $-1 -54.752630570631787 -6.7825997440558297 14.198744697572886 0.83867057594974714 0 -0.54463902268945019 0.2723195113447251 0 0.41933528797487357 1 I I 0 1 0.5 forward I I I I #
face $-1 $178 $179 $63 $-1 $180 forward single #
loop $-1 $181 $182 $82 #
cone-surface $-1 -54.752630570631787 -4.0908518316392986 14.198744697572886 0.83867057594974714 0 -0.54463902268945019 0.2723195113447251 0 0.41933528797487357 1 I I 0 1 0.5 forward I I I I #
face $-1 $183 $184 $64 $-1 $185 reversed single #
loop $-1 $-1 $186 $83 #
plane-surface $-1 -57.25028229621266 -6.7825997440558297 11.270737439958374 -0.83867057594974714 0 0.54463902268945019 0.54463902268945019 0 0.83867057594974714 forward_v I I I I #
face $-1 $187 $188 $65 $-1 $189 forward single #
loop $-1 $190 $191 $84 #
cone-surface $-1 -54.752630570631787 -0.50185461508392137 14.198744697572886 0.83867057594974714 0 -0.54463902268945019 0.2723195113447251 0 0.41933528797487357 1 I I 0 1 0.5 forward I I I I #
face $-1 $192 $193 $66 $-1 $194 forward single #
loop $-1 $195 $196 $85 #
cone-surface $-1 -54.752630570631787 2.1898932973326026 14.198744697572886 0.83867057594974714 0 -0.54463902268945019 0.2723195113447251 0 0.41933528797487357 1 I I 0 1 0.5 forward I I I I #
face $-1 $197 $198 $67 $-1 $199 forward single #
loop $-1 $200 $201 $86 #
cone-surface $-1 -54.752630570631787 4.8816412097491337 14.198744697572886 0.83867057594974714 0 -0.54463902268945019 0.2723195113447251 0 0.41933528797487357 1 I I 0 1 0.5 forward I I I I #
face $-1 $202 $203 $68 $-1 $204 reversed single #
loop $-1 $-1 $205 $87 #
plane-surface $-1 90.917061152504431 -2.2963532233616153 169.66046749026771 0 -1 0 -0.83867057594974714 0 -0.54463902268945019 forward_v I I I I #
face $-1 $206 $207 $69 $-1 $208 forward single #
loop $-1 $209 $210 $88 #
cone-surface $-1 54.75263057063178 -9.4743476564723572 14.198744697572897 -0.83867057594974714 0 -0.54463902268945019 0.2723195113447251 0 -0.41933528797487357 1 I I 0 1 0.5 forward I I I I #
face $-1 $211 $212 $70 $-1 $213 forward single #
loop $-1 $214 $215 $89 #
cone-surface $-1 54.75263057063178 -6.7825997440558297 14.198744697572897 -0.83867057594974714 0 -0.54463902268945019 0.2723195113447251 0 -0.41933528797487357 1 I I 0 1 0.5 forward I I I I #
face $-1 $216 $217 $71 $-1 $218 forward single #
loop $-1 $219 $220 $90 #
cone-surface $-1 54.75263057063178 -4.0908518316392986 14.198744697572897 -0.83867057594974714 0 -0.54463902268945019 0.2723195113447251 0 -0.41933528797487357 1 I I 0 1 0.5 forward I I I I #
face $-1 $221 $222 $72 $-1 $223 reversed single #
loop $-1 $-1 $224 $91 #
plane-surface $-1 90.917061152504431 6.676139818026817 169.66046749026771 0 -1 0 -0.83867057594974714 0 -0.54463902268945019 forward_v I I I I #
face $-1 $225 $226 $73 $-1 $227 forward single #
loop $-1 $228 $229 $92 #
cone-surface $-1 54.75263057063178 -0.50185461508392137 14.198744697572897 -0.83867057594974714 0 -0.54463902268945019 0.2723195113447251 0 -0.41933528797487357 1 I I 0 1 0.5 forward I I I I #
face $-1 $230 $231 $74 $-1 $232 forward single #
loop $-1 $233 $234 $93 #
cone-surface $-1 54.75263057063178 2.1898932973326026 14.198744697572897 -0.83867057594974714 0 -0.54463902268945019 0.2723195113447251 0 -0.41933528797487357 1 I I 0 1 0.5 forward I I I I #
face $-1 $235 $236 $75 $-1 $237 forward single #
loop $-1 $238 $239 $94 #
cone-surface $-1 54.75263057063178 4.8816412097491337 14.198744697572897 -0.83867057594974714 0 -0.54463902268945019 0.2723195113447251 0 -0.41933528797487357 1 I I 0 1 0.5 forward I I I I #
face $-1 $240 $241 $57 $-1 $242 reversed single #
loop $-1 $-1 $243 $95 #
plane-surface $-1 0 0 -17.67139097787685 0 0 1 1 0 0 forward_v I I I I #
coedge $-1 $244 $245 $246 $247 forward $96 $-1 #
face $-1 $248 $249 $58 $-1 $250 reversed single #
loop $-1 $-1 $251 $98 #
plane-surface $-1 -52.913127255030311 -21.836195264480573 0 0 -1 0 0 0 -1 forward_v I I I I #
coedge $-1 $252 $253 $254 $255 forward $99 $-1 #
face $-1 $256 $257 $59 $-1 $258 reversed single #
loop $-1 $-1 $259 $101 #
plane-surface $-1 -46.963757375756586 28.129943647876679 0 1 0 0 0 0 -1 forward_v I I I I #
coedge $-1 $260 $261 $262 $263 forward $102 $-1 #
face $-1 $264 $265 $60 $-1 $266 reversed single #
loop $-1 $-1 $267 $104 #
plane-surface $-1 -57.25028229621266 -6.7825997440558297 11.270737439958374 -0.83867057594974714 0 0.54463902268945019 0.54463902268945019 0 0.83867057594974714 forward_v I I I I #
coedge $-1 $268 $269 $270 $271 reversed $105 $-1 #
face $-1 $-1 $272 $61 $-1 $273 forward single #
loop $-1 $274 $275 $107 #
cone-surface $-1 -54.123627638669475 -9.4743476564723572 13.790265430555799 0.83867057594974714 0 -0.54463902268945019 0.13615975567236255 0 0.20966764398743679 1 I I -0.70710678118654746 0.70710678118654746 0.25 forward I I I I #
loop $-1 $-1 $276 $80 #
coedge $-1 $172 $172 $277 $278 reversed $108 $-1 #
face $-1 $-1 $279 $62 $-1 $280 forward single #
loop $-1 $281 $282 $110 #
cone-surface $-1 -54.123627638669475 -6.7825997440558297 13.790265430555799 0.83867057594974714 0 -0.54463902268945019 0.13615975567236255 0 0.20966764398743679 1 I I -0.70710678118654746 0.70710678118654746 0.25 forward I I I I #
loop $-1 $-1 $283 $81 #
coedge $-1 $177 $177 $284 $285 reversed $111 $-1 #
face $-1 $-1 $286 $63 $-1 $287 forward single #
loop $-1 $288 $289 $113 #
cone-surface $-1 -54.123627638669475 -4.0908518316392986 13.790265430555799 0.83867057594974714 0 -0.54463902268945019 0.13615975567236255 0 0.20966764398743679 1 I I -0.70710678118654746 0.70710678118654746 0.25 forward I I I I #
loop $-1 $-1 $290 $82 #
coedge $-1 $182 $182 $291 $292 reversed $114 $-1 #
face $-1 $293 $294 $64 $-1 $295 reversed single #
loop $-1 $-1 $296 $116 #
plane-surface $-1 -153.27853674951322 6.676139818026817 73.632213036967158 0 -1 0 0.83867057594974714 0 -0.54463902268945019 forward_v I I I I #
coedge $-1 $297 $298 $299 $300 reversed $117 $-1 #
face $-1 $-1 $301 $65 $-1 $302 forward single #
loop $-1 $303 $304 $119 #
cone-surface $-1 -54.123627638669475 -0.50185461508392137 13.790265430555799 0.83867057594974714 0 -0.54463902268945019 0.13615975567236255 0 0.20966764398743679 1 I I -0.70710678118654746 0.70710678118654746 0.25 forward I I I I #
loop $-1 $-1 $305 $84 #
coedge $-1 $191 $191 $306 $307 reversed $120 $-1 #
face $-1 $-1 $308 $66 $-1 $309 forward single #
loop $-1 $310 $311 $122 #
cone-surface $-1 -54.123627638669475 2.1898932973326026 13.790265430555799 0.83867057594974714 0 -0.54463902268945019 0.13615975567236255 0 0.20966764398743679 1 I I -0.70710678118654746 0.70710678118654746 0.25 forward I I I I #
loop $-1 $-1 $312 $85 #
coedge $-1 $196 $196 $313 $314 reversed $123 $-1 #
face $-1 $-1 $315 $67 $-1 $316 forward single #
loop $-1 $317 $318 $125 #
cone-surface $-1 -54.123627638669475 4.8816412097491337 13.790265430555799 0.83867057594974714 0 -0.54463902268945019 0.13615975567236255 0 0.20966764398743679 1 I I -0.70710678118654746 0.70710678118654746 0.25 forward I I I I #
loop $-1 $-1 $319 $86 #
coedge $-1 $201 $201 $320 $321 reversed $126 $-1 #
face $-1 $322 $323 $68 $-1 $324 reversed single #
loop $-1 $-1 $325 $128 #
plane-surface $-1 -5.1111933007961312 -6.7825997440558297 107.29899189325891 0.83867057594974714 0 0.54463902268945019 0.54463902268945019 0 -0.83867057594974714 forward_v I I I I #
coedge $-1 $326 $327 $328 $329 reversed $129 $-1 #
face $-1 $-1 $330 $69 $-1 $331 forward single #
loop $-1 $332 $333 $131 #
cone-surface $-1 54.123627638669468 -9.4743476564723572 13.790265430555809 -0.83867057594974714 0 -0.54463902268945019 0.13615975567236255 0 -0.20966764398743679 1 I I -0.70710678118654746 0.70710678118654746 0.25 forward I I I I #
loop $-1 $-1 $334 $88 #
coedge $-1 $210 $210 $335 $336 reversed $132 $-1 #
face $-1 $-1 $337 $70 $-1 $338 forward single #
loop $-1 $339 $340 $134 #
cone-surface $-1 54.123627638669468 -6.7825997440558297 13.790265430555809 -0.83867057594974714 0 -0.54463902268945019 0.13615975567236255 0 -0.20966764398743679 1 I I -0.70710678118654746 0.70710678118654746 0.25 forward I I I I #
loop $-1 $-1 $341 $89 #
coedge $-1 $215 $215 $342 $343 reversed $135 $-1 #
face $-1 $-1 $344 $71 $-1 $345 forward single #
loop $-1 $346 $347 $137 #
cone-surface $-1 54.123627638669468 -4.0908518316392986 13.790265430555809 -0.83867057594974714 0 -0.54463902268945019 0.13615975567236255 0 -0.20966764398743679 1 I I -0.70710678118654746 0.70710678118654746 0.25 forward I I I I #
loop $-1 $-1 $348 $90 #
coedge $-1 $220 $220 $349 $350 reversed $138 $-1 #
face $-1 $351 $352 $72 $-1 $353 forward single #
loop $-1 $-1 $354 $140 #
plane-surface $-1 -5.1111933007961312 -6.7825997440558297 107.29899189325891 0.83867057594974714 0 0.54463902268945019 0.54463902268945019 0 -0.83867057594974714 forward_v I I I I #
coedge $-1 $355 $356 $357 $358 reversed $141 $-1 #
face $-1 $-1 $359 $73 $-1 $360 forward single #
loop $-1 $361 $362 $143 #
cone-surface $-1 54.123627638669468 -0.50185461508392137 13.790265430555809 -0.83867057594974714 0 -0.54463902268945019 0.13615975567236255 0 -0.20966764398743679 1 I I -0.70710678118654746 0.70710678118654746 0.25 forward I I I I #
loop $-1 $-1 $363 $92 #
coedge $-1 $229 $229 $364 $365 reversed $144 $-1 #
face $-1 $-1 $366 $74 $-1 $367 forward single #
loop $-1 $368 $369 $146 #
cone-surface $-1 54.123627638669468 2.1898932973326026 13.790265430555809 -0.83867057594974714 0 -0.54463902268945019 0.13615975567236255 0 -0.20966764398743679 1 I I -0.70710678118654746 0.70710678118654746 0.25 forward I I I I #
loop $-1 $-1 $370 $93 #
coedge $-1 $234 $234 $371 $372 reversed $147 $-1 #
face $-1 $-1 $373 $75 $-1 $374 forward single #
loop $-1 $375 $376 $149 #
cone-surface $-1 54.123627638669468 4.8816412097491337 13.790265430555809 -0.83867057594974714 0 -0.54463902268945019 0.13615975567236255 0 -0.20966764398743679 1 I I -0.70710678118654746 0.70710678118654746 0.25 forward I I I I #
loop $-1 $-1 $377 $94 #
coedge $-1 $239 $239 $378 $379 reversed $150 $-1 #
face $-1 $380 $381 $57 $-1 $382 reversed single #
loop $-1 $-1 $383 $152 #
plane-surface $-1 0 -39.016398477995999 0 0 1 0 0 0 1 forward_v I I I I #
coedge $-1 $384 $385 $386 $387 forward $153 $-1 #
coedge $-1 $388 $155 $389 $390 forward $96 $-1 #
coedge $-1 $155 $388 $391 $392 forward $96 $-1 #
coedge $-1 $393 $394 $155 $247 reversed $395 $-1 #
edge $-1 $396 -39.016398477995999 $397 39.016398477995999 $246 $398 forward 7 unknown #
face $-1 $399 $400 $58 $-1 $401 forward single #
loop $-1 $-1 $402 $156 #
plane-surface $-1 -49.827712205635152 -30.426296871238286 0 -1 0 0 0 0 1 forward_v I I I I #
coedge $-1 $403 $404 $405 $406 forward $157 $-1 #
coedge $-1 $407 $159 $408 $409 reversed $99 $-1 #
coedge $-1 $159 $407 $410 $411 reversed $99 $-1 #
coedge $-1 $404 $403 $159 $255 reversed $157 $-1 #
edge $-1 $412 -17.67139097787685 $413 17.67139097787685 $254 $414 forward 7 unknown #
face $-1 $415 $416 $59 $-1 $417 reversed single #
loop $-1 $-1 $418 $160 #
plane-surface $-1 -39.294092174402238 28.129943647876679 0 -1 0 0 0 0 1 forward_v I I I I #
coedge $-1 $419 $420 $421 $422 reversed $161 $-1 #
coedge $-1 $423 $163 $424 $425 reversed $102 $-1 #
coedge $-1 $163 $423 $426 $427 reversed $102 $-1 #
coedge $-1 $420 $419 $163 $263 reversed $161 $-1 #
edge $-1 $428 -17.67139097787685 $429 17.67139097787685 $262 $430 forward 7 unknown #
face $-1 $431 $432 $60 $-1 $433 reversed single #
loop $-1 $-1 $434 $164 #
plane-surface $-1 -153.27853674951322 -2.2963532233616153 73.632213036967158 0 -1 0 0.83867057594974714 0 -0.54463902268945019 forward_v I I I I #
coedge $-1 $435 $436 $437 $438 reversed $165 $-1 #
coedge $-1 $269 $167 $439 $440 reversed $105 $-1 #
coedge $-1 $167 $268 $435 $441 reversed $105 $-1 #
coedge $-1 $437 $442 $167 $271 forward $443 $-1 #
edge $-1 $444 19.388986078543958 $445 23.545618953755934 $270 $446 forward 7 unknown #
loop $-1 $-1 $277 $168 #
plane-surface $-1 -57.25028229621266 -6.7825997440558297 11.270737439958374 -0.83867057594974714 0 0.54463902268945019 0.54463902268945019 0 0.83867057594974714 forward_v I I I I #
loop $-1 $-1 $447 $107 #
coedge $-1 $275 $275 $276 $448 reversed $169 $-1 #
coedge $-1 $276 $276 $275 $448 forward $171 $-1 #
coedge $-1 $277 $277 $172 $278 forward $272 $-1 #
edge $-1 $449 0 $449 6.2831853071796004 $277 $450 forward 7 unknown #
loop $-1 $-1 $284 $173 #
plane-surface $-1 -57.25028229621266 -6.7825997440558297 11.270737439958374 -0.83867057594974714 0 0.54463902268945019 0.54463902268945019 0 0.83867057594974714 forward_v I I I I #
loop $-1 $-1 $451 $110 #
coedge $-1 $282 $282 $283 $452 reversed $174 $-1 #
coedge $-1 $283 $283 $282 $452 forward $176 $-1 #
coedge $-1 $284 $284 $177 $285 forward $279 $-1 #
edge $-1 $453 0 $453 6.2831853071796004 $284 $454 forward 7 unknown #
loop $-1 $-1 $291 $178 #
plane-surface $-1 -57.25028229621266 -6.7825997440558297 11.270737439958374 -0.83867057594974714 0 0.54463902268945019 0.54463902268945019 0 0.83867057594974714 forward_v I I I I #
loop $-1 $-1 $455 $113 #
coedge $-1 $289 $289 $290 $456 reversed $179 $-1 #
coedge $-1 $290 $290 $289 $456 forward $181 $-1 #
coedge $-1 $291 $291 $182 $292 forward $286 $-1 #
edge $-1 $457 0 $457 6.2831853071796004 $291 $458 forward 7 unknown #
face $-1 $459 $460 $64 $-1 $461 forward single #
loop $-1 $-1 $462 $183 #
plane-surface $-1 -57.250282296212653 0 0 1 0 0 0 0 -1 forward_v I I I I #
coedge $-1 $463 $464 $465 $466 reversed $184 $-1 #
coedge $-1 $467 $186 $468 $469 reversed $117 $-1 #
coedge $-1 $186 $467 $470 $471 reversed $117 $-1 #
coedge $-1 $472 $473 $186 $300 forward $460 $-1 #
edge $-1 $474 1.2808562293387176e-014 $475 7.6319042559351686 $299 $476 forward 7 unknown #
loop $-1 $-1 $306 $187 #
plane-surface $-1 -57.25028229621266 -6.7825997440558297 11.270737439958374 -0.83867057594974714 0 0.54463902268945019 0.54463902268945019 0 0.83867057594974714 forward_v I I I I #
loop $-1 $-1 $477 $119 #
coedge $-1 $304 $304 $305 $478 reversed $188 $-1 #
coedge $-1 $305 $305 $304 $478 forward $190 $-1 #
coedge $-1 $306 $306 $191 $307 forward $301 $-1 #
edge $-1 $479 0 $479 6.2831853071796004 $306 $480 forward 7 unknown #
loop $-1 $-1 $313 $192 #
plane-surface $-1 -57.25028229621266 -6.7825997440558297 11.270737439958374 -0.83867057594974714 0 0.54463902268945019 0.54463902268945019 0 0.83867057594974714 forward_v I I I I #
loop $-1 $-1 $481 $122 #
coedge $-1 $311 $311 $312 $482 reversed $193 $-1 #
coedge $-1 $312 $312 $311 $482 forward $195 $-1 #
coedge $-1 $313 $313 $196 $314 forward $308 $-1 #
edge $-1 $483 0 $483 6.2831853071796004 $313 $484 forward 7 unknown #
loop $-1 $-1 $320 $197 #
plane-surface $-1 -57.25028229621266 -6.7825997440558297 11.270737439958374 -0.83867057594974714 0 0.54463902268945019 0.54463902268945019 0 0.83867057594974714 forward_v I I I I #
loop $-1 $-1 $485 $125 #
coedge $-1 $318 $318 $319 $486 reversed $198 $-1 #
coedge $-1 $319 $319 $318 $486 forward $200 $-1 #
coedge $-1 $320 $320 $201 $321 forward $315 $-1 #
edge $-1 $487 0 $487 6.2831853071796004 $320 $488 forward 7 unknown #
face $-1 $489 $490 $68 $-1 $491 forward single #
loop $-1 $-1 $492 $202 #
plane-surface $-1 90.917061152504431 -11.268846264750044 169.66046749026771 0 1 0 0.83867057594974714 0 0.54463902268945019 forward_v I I I I #
coedge $-1 $493 $494 $495 $496 reversed $203 $-1 #
coedge $-1 $327 $205 $497 $498 reversed $129 $-1 #
coedge $-1 $205 $326 $493 $499 reversed $129 $-1 #
coedge $-1 $495 $500 $205 $329 forward $490 $-1 #
edge $-1 $501 -11.791751719960438 $502 -7.6351188447484333 $328 $503 forward 7 unknown #
loop $-1 $-1 $335 $206 #
plane-surface $-1 -5.1111933007961312 -6.7825997440558297 107.29899189325891 0.83867057594974714 0 0.54463902268945019 0.54463902268945019 0 -0.83867057594974714 forward_v I I I I #
loop $-1 $-1 $504 $131 #
coedge $-1 $333 $333 $334 $505 reversed $207 $-1 #
coedge $-1 $334 $334 $333 $505 forward $209 $-1 #
coedge $-1 $335 $335 $210 $336 forward $330 $-1 #
edge $-1 $506 0 $506 6.2831853071796004 $335 $507 forward 7 unknown #
loop $-1 $-1 $342 $211 #
plane-surface $-1 -5.1111933007961312 -6.7825997440558297 107.29899189325891 0.83867057594974714 0 0.54463902268945019 0.54463902268945019 0 -0.83867057594974714 forward_v I I I I #
loop $-1 $-1 $508 $134 #
coedge $-1 $340 $340 $341 $509 reversed $212 $-1 #
coedge $-1 $341 $341 $340 $509 forward $214 $-1 #
coedge $-1 $342 $342 $215 $343 forward $337 $-1 #
edge $-1 $510 0 $510 6.2831853071796004 $342 $511 forward 7 unknown #
loop $-1 $-1 $349 $216 #
plane-surface $-1 -5.1111933007961312 -6.7825997440558297 107.29899189325891 0.83867057594974714 0 0.54463902268945019 0.54463902268945019 0 -0.83867057594974714 forward_v I I I I #
loop $-1 $-1 $512 $137 #
coedge $-1 $347 $347 $348 $513 reversed $217 $-1 #
coedge $-1 $348 $348 $347 $513 forward $219 $-1 #
coedge $-1 $349 $349 $220 $350 forward $344 $-1 #
edge $-1 $514 0 $514 6.2831853071796004 $349 $515 forward 7 unknown #
face $-1 $516 $517 $72 $-1 $518 forward single #
loop $-1 $-1 $519 $221 #
plane-surface $-1 0 0 17.67139097787685 0 0 1 1 0 0 forward_v I I I I #
coedge $-1 $520 $521 $522 $523 reversed $222 $-1 #
coedge $-1 $356 $224 $524 $525 reversed $141 $-1 #
coedge $-1 $224 $355 $519 $526 reversed $141 $-1 #
coedge $-1 $527 $528 $224 $358 forward $529 $-1 #
edge $-1 $530 -73.5594963051755 $531 -67.158842767256999 $357 $532 forward 7 unknown #
loop $-1 $-1 $364 $225 #
plane-surface $-1 -5.1111933007961312 -6.7825997440558297 107.29899189325891 0.83867057594974714 0 0.54463902268945019 0.54463902268945019 0 -0.83867057594974714 forward_v I I I I #
loop $-1 $-1 $533 $143 #
coedge $-1 $362 $362 $363 $534 reversed $226 $-1 #
coedge $-1 $363 $363 $362 $534 forward $228 $-1 #
coedge $-1 $364 $364 $229 $365 forward $359 $-1 #
edge $-1 $535 0 $535 6.2831853071796004 $364 $536 forward 7 unknown #
loop $-1 $-1 $371 $230 #
plane-surface $-1 -5.1111933007961312 -6.7825997440558297 107.29899189325891 0.83867057594974714 0 0.54463902268945019 0.54463902268945019 0 -0.83867057594974714 forward_v I I I I #
loop $-1 $-1 $537 $146 #
coedge $-1 $369 $369 $370 $538 reversed $231 $-1 #
coedge $-1 $370 $370 $369 $538 forward $233 $-1 #
coedge $-1 $371 $371 $234 $372 forward $366 $-1 #
edge $-1 $539 0 $539 6.2831853071796004 $371 $540 forward 7 unknown #
loop $-1 $-1 $378 $235 #
plane-surface $-1 -5.1111933007961312 -6.7825997440558297 107.29899189325891 0.83867057594974714 0 0.54463902268945019 0.54463902268945019 0 -0.83867057594974714 forward_v I I I I #
loop $-1 $-1 $541 $149 #
coedge $-1 $376 $376 $377 $542 reversed $236 $-1 #
coedge $-1 $377 $377 $376 $542 forward $238 $-1 #
coedge $-1 $378 $378 $239 $379 forward $373 $-1 #
edge $-1 $543 0 $543 6.2831853071796004 $378 $544 forward 7 unknown #
face $-1 $545 $546 $57 $-1 $547 reversed single #
loop $-1 $-1 $548 $240 #
plane-surface $-1 -57.250282296212653 0 0 1 0 0 0 0 -1 forward_v I I I I #
coedge $-1 $549 $391 $550 $551 forward $241 $-1 #
coedge $-1 $552 $243 $549 $553 forward $153 $-1 #
coedge $-1 $243 $552 $554 $555 forward $153 $-1 #
coedge $-1 $394 $393 $243 $387 reversed $395 $-1 #
edge $-1 $556 -39.016398477995999 $557 39.016398477995999 $386 $558 forward 7 unknown #
coedge $-1 $245 $244 $559 $560 forward $96 $-1 #
coedge $-1 $561 $562 $244 $390 reversed $546 $-1 #
edge $-1 $397 -57.250282296212653 $563 57.250282296212653 $389 $564 forward 7 unknown #
coedge $-1 $383 $565 $245 $392 reversed $241 $-1 #
edge $-1 $566 -57.250282296212653 $396 57.250282296212653 $391 $567 forward 7 unknown #
coedge $-1 $386 $246 $565 $568 forward $395 $-1 #
coedge $-1 $246 $386 $561 $569 reversed $395 $-1 #
loop $-1 $-1 $393 $545 #
vertex $-1 $247 $570 #
vertex $-1 $247 $571 #
straight-curve $-1 57.250282296212653 0 17.67139097787685 0 1 0 I I #
face $-1 $572 $573 $58 $-1 $574 reversed single #
loop $-1 $-1 $575 $248 #
plane-surface $-1 0 0 17.67139097787685 0 0 1 1 0 0 forward_v I I I I #
coedge $-1 $576 $577 $578 $579 reversed $249 $-1 #
coedge $-1 $254 $251 $580 $581 reversed $157 $-1 #
coedge $-1 $251 $254 $582 $583 reversed $157 $-1 #
coedge $-1 $577 $576 $251 $406 reversed $249 $-1 #
edge $-1 $584 -17.67139097787685 $585 17.67139097787685 $405 $586 forward 7 unknown #
coedge $-1 $253 $252 $587 $588 reversed $99 $-1 #
coedge $-1 $580 $589 $252 $409 forward $573 $-1 #
edge $-1 $590 -23.803250042376856 $413 -6.6230468288614297 $408 $591 forward 7 unknown #
coedge $-1 $592 $582 $253 $411 forward $400 $-1 #
edge $-1 $412 6.6230468288614297 $593 23.803250042376856 $410 $594 forward 7 unknown #
vertex $-1 $411 $595 #
vertex $-1 $409 $596 #
straight-curve $-1 -55.99854230442547 -21.836195264480573 0 0 0 -1 I I #
face $-1 $597 $598 $59 $-1 $599 forward single #
loop $-1 $-1 $600 $256 #
plane-surface $-1 0 0 -17.67139097787685 0 0 1 1 0 0 forward_v I I I I #
coedge $-1 $601 $602 $423 $603 forward $257 $-1 #
coedge $-1 $262 $259 $604 $605 reversed $161 $-1 #
coedge $-1 $259 $262 $606 $607 reversed $161 $-1 #
coedge $-1 $608 $609 $259 $422 forward $610 $-1 #
edge $-1 $611 -17.67139097787685 $612 17.67139097787685 $421 $613 forward 7 unknown #
coedge $-1 $261 $260 $418 $603 reversed $102 $-1 #
coedge $-1 $604 $600 $260 $425 forward $416 $-1 #
edge $-1 $614 17.729629786862532 $429 25.39929498821688 $424 $615 forward 7 unknown #
coedge $-1 $616 $606 $261 $427 forward $598 $-1 #
edge $-1 $428 -25.39929498821688 $617 -17.729629786862532 $426 $618 forward 7 unknown #
vertex $-1 $427 $619 #
vertex $-1 $425 $620 #
straight-curve $-1 -46.963757375756586 17.243488817757353 0 0 0 -1 I I #
face $-1 $-1 $443 $60 $-1 $621 forward single #
loop $-1 $-1 $622 $264 #
plane-surface $-1 -57.250282296212653 0 0 1 0 0 0 0 -1 forward_v I I I I #
coedge $-1 $623 $624 $625 $626 reversed $265 $-1 #
coedge $-1 $627 $267 $269 $441 forward $165 $-1 #
coedge $-1 $267 $627 $623 $628 forward $165 $-1 #
coedge $-1 $625 $270 $267 $438 forward $443 $-1 #
edge $-1 $445 -7.8775463927221292 $629 1.0949466486662995 $437 $630 forward 7 unknown #
coedge $-1 $631 $632 $268 $440 forward $432 $-1 #
edge $-1 $633 -25.545369078525194 $444 -19.144715540606729 $439 $634 forward 7 unknown #
edge $-1 $445 -7.6319042559351686 $633 -1.2808562293387176e-014 $269 $635 forward 7 unknown #
coedge $-1 $270 $625 $631 $636 forward $443 $-1 #
loop $-1 $-1 $625 $431 #
vertex $-1 $440 $637 #
vertex $-1 $271 $638 #
straight-curve $-1 -76.639268374756611 -11.268846264750044 17.67139097787685 1 0 0 I I #
coedge $-1 $447 $447 $-1 $639 reversed $274 $-1 #
edge $-1 $640 0 $640 6.2831853071796004 $275 $641 forward 7 unknown #
vertex $-1 $278 $642 #
ellipse-curve $-1 -55.171965858606669 -9.4743476564723572 14.471064208917614 -0.83867057594974714 0 0.54463902268945019 0.2723195113447251 0 0.41933528797487357 1 I I #
coedge $-1 $451 $451 $-1 $643 reversed $281 $-1 #
edge $-1 $644 0 $644 6.2831853071796004 $282 $645 forward 7 unknown #
vertex $-1 $285 $646 #
ellipse-curve $-1 -55.171965858606669 -6.7825997440558297 14.471064208917614 -0.83867057594974714 0 0.54463902268945019 0.2723195113447251 0 0.41933528797487357 1 I I #
coedge $-1 $455 $455 $-1 $647 reversed $288 $-1 #
edge $-1 $648 0 $648 6.2831853071796004 $289 $649 forward 7 unknown #
vertex $-1 $292 $650 #
ellipse-curve $-1 -55.171965858606669 -4.0908518316392986 14.471064208917614 -0.83867057594974714 0 0.54463902268945019 0.2723195113447251 0 0.41933528797487357 1 I I #
face $-1 $-1 $651 $64 $-1 $652 forward single #
loop $-1 $-1 $472 $293 #
plane-surface $-1 -153.27853674951322 -2.2963532233616153 73.632213036967158 0 -1 0 0.83867057594974714 0 -0.54463902268945019 forward_v I I I I #
coedge $-1 $468 $653 $464 $654 forward $294 $-1 #
coedge $-1 $464 $296 $467 $655 reversed $184 $-1 #
coedge $-1 $296 $463 $462 $654 reversed $184 $-1 #
coedge $-1 $656 $470 $296 $466 forward $651 $-1 #
edge $-1 $657 -23.545618953755934 $658 -19.388986078543958 $465 $659 forward 7 unknown #
coedge $-1 $298 $297 $463 $655 forward $117 $-1 #
coedge $-1 $660 $462 $297 $469 forward $294 $-1 #
edge $-1 $661 -10.067439690054732 $474 -1.0949466486662995 $468 $662 forward 7 unknown #
coedge $-1 $465 $663 $298 $471 forward $651 $-1 #
edge $-1 $475 1.0949466486662995 $657 10.067439690054732 $470 $664 forward 7 unknown #
coedge $-1 $473 $299 $663 $665 reversed $460 $-1 #
coedge $-1 $299 $472 $660 $666 reversed $460 $-1 #
vertex $-1 $469 $667 #
vertex $-1 $471 $668 #
straight-curve $-1 -57.25028229621266 -2.2963532233616153 11.270737439958374 0.54463902268945019 0 0.83867057594974714 I I #
coedge $-1 $477 $477 $-1 $669 reversed $303 $-1 #
edge $-1 $670 0 $670 6.2831853071796004 $304 $671 forward 7 unknown #
vertex $-1 $307 $672 #
ellipse-curve $-1 -55.171965858606669 -0.50185461508392137 14.471064208917614 -0.83867057594974714 0 0.54463902268945019 0.2723195113447251 0 0.41933528797487357 1 I I #
coedge $-1 $481 $481 $-1 $673 reversed $310 $-1 #
edge $-1 $674 0 $674 6.2831853071796004 $311 $675 forward 7 unknown #
vertex $-1 $314 $676 #
ellipse-curve $-1 -55.171965858606669 2.1898932973326026 14.471064208917614 -0.83867057594974714 0 0.54463902268945019 0.2723195113447251 0 0.41933528797487357 1 I I #
coedge $-1 $485 $485 $-1 $677 reversed $317 $-1 #
edge $-1 $678 0 $678 6.2831853071796004 $318 $679 forward 7 unknown #
vertex $-1 $321 $680 #
ellipse-curve $-1 -55.171965858606669 4.8816412097491337 14.471064208917614 -0.83867057594974714 0 0.54463902268945019 0.2723195113447251 0 0.41933528797487357 1 I I #
face $-1 $-1 $681 $68 $-1 $682 reversed single #
loop $-1 $-1 $328 $322 #
plane-surface $-1 0 0 17.67139097787685 0 0 1 1 0 0 forward_v I I I I #
coedge $-1 $683 $684 $685 $686 reversed $323 $-1 #
coedge $-1 $687 $325 $327 $499 forward $203 $-1 #
coedge $-1 $325 $687 $683 $688 forward $203 $-1 #
coedge $-1 $685 $328 $325 $496 forward $490 $-1 #
edge $-1 $502 -1.0949466486662995 $689 7.8775463927221292 $495 $690 forward 7 unknown #
coedge $-1 $691 $692 $326 $498 forward $681 $-1 #
edge $-1 $693 -73.5594963051755 $501 -67.158842767256999 $497 $694 forward 7 unknown #
edge $-1 $502 106.86866033649011 $693 114.50056459242532 $327 $695 forward 7 unknown #
coedge $-1 $328 $685 $691 $696 forward $490 $-1 #
vertex $-1 $329 $697 #
vertex $-1 $329 $698 #
straight-curve $-1 45.458530576252215 -2.2963532233616153 17.671390977876854 -1 0 0 I I #
coedge $-1 $504 $504 $-1 $699 reversed $332 $-1 #
edge $-1 $700 0 $700 6.2831853071796004 $333 $701 forward 7 unknown #
vertex $-1 $336 $702 #
ellipse-curve $-1 55.171965858606647 -9.4743476564723572 14.471064208917618 0.83867057594974714 0 0.54463902268945019 0.2723195113447251 0 -0.41933528797487357 1 I I #
coedge $-1 $508 $508 $-1 $703 reversed $339 $-1 #
edge $-1 $704 0 $704 6.2831853071796004 $340 $705 forward 7 unknown #
vertex $-1 $343 $706 #
ellipse-curve $-1 55.171965858606647 -6.7825997440558297 14.471064208917618 0.83867057594974714 0 0.54463902268945019 0.2723195113447251 0 -0.41933528797487357 1 I I #
coedge $-1 $512 $512 $-1 $707 reversed $346 $-1 #
edge $-1 $708 0 $708 6.2831853071796004 $347 $709 forward 7 unknown #
vertex $-1 $350 $710 #
ellipse-curve $-1 55.171965858606647 -4.0908518316392986 14.471064208917618 0.83867057594974714 0 0.54463902268945019 0.2723195113447251 0 -0.41933528797487357 1 I I #
face $-1 $-1 $529 $72 $-1 $711 reversed single #
loop $-1 $-1 $712 $351 #
plane-surface $-1 90.917061152504431 -2.2963532233616153 169.66046749026771 0 -1 0 -0.83867057594974714 0 -0.54463902268945019 forward_v I I I I #
coedge $-1 $713 $714 $356 $526 forward $352 $-1 #
coedge $-1 $524 $354 $713 $715 reversed $222 $-1 #
coedge $-1 $354 $524 $528 $716 reversed $222 $-1 #
coedge $-1 $717 $712 $354 $523 forward $517 $-1 #
edge $-1 $718 106.86866033649011 $719 114.50056459242532 $522 $720 forward 7 unknown #
coedge $-1 $521 $520 $355 $525 forward $222 $-1 #
edge $-1 $721 106.86866033649011 $530 114.50056459242532 $355 $722 forward 7 unknown #
edge $-1 $531 -11.791751719960438 $721 -7.6351188447484333 $519 $723 forward 7 unknown #
coedge $-1 $724 $357 $714 $725 reversed $529 $-1 #
coedge $-1 $357 $724 $521 $716 forward $529 $-1 #
loop $-1 $-1 $357 $516 #
vertex $-1 $358 $726 #
vertex $-1 $358 $727 #
straight-curve $-1 57.250282296212653 6.676139818026817 84.830233745133853 0 0 1 I I #
coedge $-1 $533 $533 $-1 $728 reversed $361 $-1 #
edge $-1 $729 0 $729 6.2831853071796004 $362 $730 forward 7 unknown #
vertex $-1 $365 $731 #
ellipse-curve $-1 55.171965858606647 -0.50185461508392137 14.471064208917618 0.83867057594974714 0 0.54463902268945019 0.2723195113447251 0 -0.41933528797487357 1 I I #
coedge $-1 $537 $537 $-1 $732 reversed $368 $-1 #
edge $-1 $733 0 $733 6.2831853071796004 $369 $734 forward 7 unknown #
vertex $-1 $372 $735 #
ellipse-curve $-1 55.171965858606647 2.1898932973326026 14.471064208917618 0.83867057594974714 0 0.54463902268945019 0.2723195113447251 0 -0.41933528797487357 1 I I #
coedge $-1 $541 $541 $-1 $736 reversed $375 $-1 #
edge $-1 $737 0 $737 6.2831853071796004 $376 $738 forward 7 unknown #
vertex $-1 $379 $739 #
ellipse-curve $-1 55.171965858606647 4.8816412097491337 14.471064208917618 0.83867057594974714 0 0.54463902268945019 0.2723195113447251 0 -0.41933528797487357 1 I I #
face $-1 $-1 $395 $57 $-1 $740 reversed single #
loop $-1 $-1 $561 $380 #
plane-surface $-1 0 39.016398477995999 0 0 -1 0 0 0 -1 forward_v I I I I #
coedge $-1 $741 $559 $562 $742 forward $381 $-1 #
coedge $-1 $565 $383 $384 $553 reversed $241 $-1 #
coedge $-1 $559 $741 $383 $551 reversed $381 $-1 #
edge $-1 $566 -17.67139097787685 $743 17.67139097787685 $550 $744 forward 7 unknown #
coedge $-1 $385 $384 $741 $745 forward $153 $-1 #
edge $-1 $557 -57.250282296212653 $743 57.250282296212653 $549 $746 forward 7 unknown #
coedge $-1 $562 $561 $385 $555 reversed $546 $-1 #
edge $-1 $747 -57.250282296212653 $556 57.250282296212653 $554 $748 forward 7 unknown #
vertex $-1 $387 $749 #
vertex $-1 $568 $750 #
straight-curve $-1 57.250282296212653 0 -17.67139097787685 0 -1 0 I I #
coedge $-1 $548 $550 $388 $560 reversed $381 $-1 #
edge $-1 $563 -39.016398477995999 $566 39.016398477995999 $559 $751 forward 7 unknown #
coedge $-1 $554 $389 $394 $569 forward $546 $-1 #
coedge $-1 $389 $554 $548 $742 reversed $546 $-1 #
vertex $-1 $390 $752 #
straight-curve $-1 0 39.016398477995999 17.67139097787685 -1 0 0 I I #
coedge $-1 $391 $549 $393 $568 reversed $241 $-1 #
vertex $-1 $560 $753 #
straight-curve $-1 0 -39.016398477995999 17.67139097787685 1 0 0 I I #
edge $-1 $396 -17.67139097787685 $557 17.67139097787685 $393 $754 forward 7 unknown #
edge $-1 $397 -17.67139097787685 $556 17.67139097787685 $394 $755 forward 7 unknown #
point $-1 57.250282296212653 -39.016398477995999 17.67139097787685 #
point $-1 57.250282296212653 39.016398477995999 17.67139097787685 #
face $-1 $-1 $756 $58 $-1 $757 reversed single #
loop $-1 $-1 $758 $399 #
plane-surface $-1 0 0 -17.67139097787685 0 0 1 1 0 0 forward_v I I I I #
coedge $-1 $582 $592 $577 $759 forward $400 $-1 #
coedge $-1 $405 $402 $758 $760 reversed $249 $-1 #
coedge $-1 $402 $405 $575 $759 reversed $249 $-1 #
coedge $-1 $761 $762 $402 $579 forward $756 $-1 #
edge $-1 $763 -17.67139097787685 $764 17.67139097787685 $578 $765 forward 7 unknown #
coedge $-1 $758 $408 $403 $581 forward $573 $-1 #
edge $-1 $413 -29.541978676910315 $585 -23.371148578119996 $580 $766 forward 7 unknown #
coedge $-1 $410 $575 $404 $583 forward $400 $-1 #
edge $-1 $584 23.371148578119996 $412 29.541978676910315 $582 $767 forward 7 unknown #
vertex $-1 $583 $768 #
vertex $-1 $581 $769 #
straight-curve $-1 -49.827712205635152 -21.836195264480573 0 0 0 -1 I I #
coedge $-1 $762 $761 $407 $588 forward $756 $-1 #
edge $-1 $593 -17.67139097787685 $590 17.67139097787685 $587 $770 forward 7 unknown #
coedge $-1 $408 $758 $762 $771 forward $573 $-1 #
vertex $-1 $409 $772 #
straight-curve $-1 -55.99854230442547 -15.213148435619143 -17.67139097787685 0 1 0 I I #
coedge $-1 $575 $410 $761 $773 forward $400 $-1 #
vertex $-1 $773 $774 #
straight-curve $-1 -55.99854230442547 -15.213148435619143 17.67139097787685 0 -1 0 I I #
point $-1 -55.99854230442547 -21.836195264480573 17.67139097787685 #
point $-1 -55.99854230442547 -21.836195264480573 -17.67139097787685 #
face $-1 $-1 $610 $59 $-1 $775 reversed single #
loop $-1 $-1 $616 $415 #
plane-surface $-1 0 0 17.67139097787685 0 0 1 1 0 0 forward_v I I I I #
coedge $-1 $424 $776 $601 $777 forward $416 $-1 #
coedge $-1 $778 $418 $600 $777 reversed $257 $-1 #
coedge $-1 $418 $778 $616 $779 reversed $257 $-1 #
edge $-1 $617 -17.67139097787685 $614 17.67139097787685 $418 $780 forward 7 unknown #
coedge $-1 $776 $424 $419 $605 forward $416 $-1 #
edge $-1 $429 3.178516993819013 $611 24.951426654057666 $604 $781 forward 7 unknown #
coedge $-1 $426 $782 $420 $607 forward $598 $-1 #
edge $-1 $612 -24.951426654057666 $428 -3.178516993819013 $606 $783 forward 7 unknown #
coedge $-1 $784 $421 $782 $785 reversed $610 $-1 #
coedge $-1 $421 $784 $776 $786 reversed $610 $-1 #
loop $-1 $-1 $784 $597 #
vertex $-1 $786 $787 #
vertex $-1 $422 $788 #
straight-curve $-1 -46.963757375756586 39.016398477995999 0 0 0 1 I I #
vertex $-1 $425 $789 #
straight-curve $-1 -21.564462387539706 17.243488817757353 -17.67139097787685 -1 0 0 I I #
coedge $-1 $782 $426 $602 $779 forward $598 $-1 #
vertex $-1 $427 $790 #
straight-curve $-1 -21.564462387539706 17.243488817757353 17.67139097787685 1 0 0 I I #
point $-1 -46.963757375756586 17.243488817757353 17.67139097787685 #
point $-1 -46.963757375756586 17.243488817757353 -17.67139097787685 #
plane-surface $-1 0 0 17.67139097787685 0 0 1 1 0 0 forward_v I I I I #
coedge $-1 $632 $631 $624 $791 forward $432 $-1 #
coedge $-1 $624 $434 $436 $628 reversed $265 $-1 #
coedge $-1 $434 $623 $622 $791 reversed $265 $-1 #
coedge $-1 $442 $437 $434 $626 forward $443 $-1 #
edge $-1 $629 -23.545618953755934 $792 -19.388986078543958 $625 $793 forward 7 unknown #
coedge $-1 $436 $435 $632 $794 reversed $165 $-1 #
edge $-1 $795 1.2808562293387176e-014 $629 7.6319042559351686 $623 $796 forward 7 unknown #
vertex $-1 $438 $797 #
straight-curve $-1 -53.093649421000677 -3.3912998720279148 17.67139097787685 0 1 0 I I #
coedge $-1 $622 $439 $442 $636 reversed $432 $-1 #
coedge $-1 $439 $622 $627 $794 forward $432 $-1 #
vertex $-1 $440 $798 #
straight-curve $-1 -57.250282296212653 -11.268846264750044 36.816106518483579 0 0 1 I I #
straight-curve $-1 -57.25028229621266 -11.268846264750044 11.270737439958374 -0.54463902268945019 0 -0.83867057594974714 I I #
edge $-1 $792 2.2963532233616153 $444 11.268846264750044 $631 $799 forward 7 unknown #
point $-1 -57.250282296212653 -11.268846264750044 17.67139097787685 #
point $-1 -53.093649421000677 -11.268846264750044 17.67139097787685 #
edge $-1 $800 1 $800 0 $447 $-1 forward 7 unknown #
vertex $-1 $448 $801 #
ellipse-curve $-1 -54.333295282656913 -9.4743476564723572 13.926425186228162 -0.83867057594974714 0 0.54463902268945019 0.2723195113447251 0 0.41933528797487357 1 I I #
point $-1 -54.899646347261935 -9.4743476564723572 14.890399496892485 #
edge $-1 $802 1 $802 0 $451 $-1 forward 7 unknown #
vertex $-1 $452 $803 #
ellipse-curve $-1 -54.333295282656913 -6.7825997440558297 13.926425186228162 -0.83867057594974714 0 0.54463902268945019 0.2723195113447251 0 0.41933528797487357 1 I I #
point $-1 -54.899646347261935 -6.7825997440558297 14.890399496892485 #
edge $-1 $804 1 $804 0 $455 $-1 forward 7 unknown #
vertex $-1 $456 $805 #
ellipse-curve $-1 -54.333295282656913 -4.0908518316392986 13.926425186228162 -0.83867057594974714 0 0.54463902268945019 0.2723195113447251 0 0.41933528797487357 1 I I #
point $-1 -54.899646347261935 -4.0908518316392986 14.890399496892485 #
loop $-1 $-1 $465 $459 #
plane-surface $-1 0 0 17.67139097787685 0 0 1 1 0 0 forward_v I I I I #
coedge $-1 $462 $660 $656 $806 reversed $294 $-1 #
edge $-1 $658 19.144715540606729 $661 25.545369078525194 $462 $807 forward 7 unknown #
edge $-1 $661 1.2808562293387176e-014 $657 7.6319042559351686 $463 $808 forward 7 unknown #
coedge $-1 $663 $465 $653 $806 forward $651 $-1 #
vertex $-1 $466 $809 #
vertex $-1 $806 $810 #
straight-curve $-1 -76.639268374756611 6.676139818026817 17.67139097787685 -1 0 0 I I #
coedge $-1 $653 $468 $473 $666 forward $294 $-1 #
vertex $-1 $654 $811 #
straight-curve $-1 -57.250282296212653 -3.3912998720279148 11.270737439958388 0 -1 0 I I #
coedge $-1 $470 $656 $472 $665 forward $651 $-1 #
straight-curve $-1 -53.093649421000677 -3.3912998720279148 17.67139097787685 0 1 0 I I #
edge $-1 $812 19.388986078543958 $475 23.545618953755934 $663 $813 forward 7 unknown #
edge $-1 $474 -25.545369078525194 $812 -19.144715540606729 $660 $814 forward 7 unknown #
point $-1 -57.250282296212653 -2.2963532233616153 11.270737439958385 #
point $-1 -53.093649421000677 -2.2963532233616153 17.67139097787685 #
edge $-1 $815 1 $815 0 $477 $-1 forward 7 unknown #
vertex $-1 $478 $816 #
ellipse-curve $-1 -54.333295282656913 -0.50185461508392137 13.926425186228162 -0.83867057594974714 0 0.54463902268945019 0.2723195113447251 0 0.41933528797487357 1 I I #
point $-1 -54.899646347261935 -0.50185461508392137 14.890399496892485 #
edge $-1 $817 1 $817 0 $481 $-1 forward 7 unknown #
vertex $-1 $482 $818 #
ellipse-curve $-1 -54.333295282656913 2.1898932973326026 13.926425186228162 -0.83867057594974714 0 0.54463902268945019 0.2723195113447251 0 0.41933528797487357 1 I I #
point $-1 -54.899646347261935 2.1898932973326026 14.890399496892485 #
edge $-1 $819 1 $819 0 $485 $-1 forward 7 unknown #
vertex $-1 $486 $820 #
ellipse-curve $-1 -54.333295282656913 4.8816412097491337 13.926425186228162 -0.83867057594974714 0 0.54463902268945019 0.2723195113447251 0 0.41933528797487357 1 I I #
point $-1 -54.899646347261935 4.8816412097491337 14.890399496892485 #
loop $-1 $-1 $497 $489 #
plane-surface $-1 57.250282296212653 0 0 -1 0 0 0 0 1 forward_v I I I I #
coedge $-1 $684 $492 $494 $688 reversed $323 $-1 #
coedge $-1 $492 $683 $821 $822 reversed $323 $-1 #
coedge $-1 $500 $495 $492 $686 forward $490 $-1 #
edge $-1 $689 7.6351188447484333 $823 11.791751719960438 $685 $824 forward 7 unknown #
coedge $-1 $494 $493 $692 $825 reversed $203 $-1 #
edge $-1 $826 -114.50056459242532 $689 -106.86866033649011 $683 $827 forward 7 unknown #
vertex $-1 $496 $828 #
straight-curve $-1 53.093649421000663 -3.3912998720279148 17.671390977876854 0 -1 0 I I #
coedge $-1 $821 $497 $500 $696 reversed $681 $-1 #
coedge $-1 $497 $821 $687 $825 forward $681 $-1 #
vertex $-1 $498 $829 #
straight-curve $-1 57.250282296212653 -2.2963532233616153 84.830233745133853 0 0 1 I I #
straight-curve $-1 -5.1111933007961312 -2.2963532233616153 107.29899189325891 0.54463902268945019 0 -0.83867057594974714 I I #
edge $-1 $823 -11.268846264750044 $501 -2.2963532233616153 $691 $830 forward 7 unknown #
point $-1 57.250282296212653 -2.2963532233616153 17.67139097787685 #
point $-1 53.093649421000649 -2.2963532233616153 17.671390977876854 #
edge $-1 $831 1 $831 0 $504 $-1 forward 7 unknown #
vertex $-1 $505 $832 #
ellipse-curve $-1 54.333295282656906 -9.4743476564723572 13.926425186228172 0.83867057594974714 0 0.54463902268945019 0.2723195113447251 0 -0.41933528797487357 1 I I #
point $-1 55.44428536995138 -9.4743476564723572 14.051728920942749 #
edge $-1 $833 1 $833 0 $508 $-1 forward 7 unknown #
vertex $-1 $509 $834 #
ellipse-curve $-1 54.333295282656906 -6.7825997440558297 13.926425186228172 0.83867057594974714 0 0.54463902268945019 0.2723195113447251 0 -0.41933528797487357 1 I I #
point $-1 55.44428536995138 -6.7825997440558297 14.051728920942749 #
edge $-1 $835 1 $835 0 $512 $-1 forward 7 unknown #
vertex $-1 $513 $836 #
ellipse-curve $-1 54.333295282656906 -4.0908518316392986 13.926425186228172 0.83867057594974714 0 0.54463902268945019 0.2723195113447251 0 -0.41933528797487357 1 I I #
point $-1 55.44428536995138 -4.0908518316392986 14.051728920942749 #
plane-surface $-1 57.250282296212653 0 0 -1 0 0 0 0 1 forward_v I I I I #
coedge $-1 $522 $717 $837 $838 reversed $517 $-1 #
coedge $-1 $837 $519 $520 $715 forward $352 $-1 #
coedge $-1 $519 $837 $527 $725 forward $352 $-1 #
edge $-1 $721 -10.067439690054732 $718 -1.0949466486662995 $713 $839 forward 7 unknown #
edge $-1 $719 1.0949466486662995 $530 10.067439690054732 $528 $840 forward 7 unknown #
coedge $-1 $712 $522 $724 $841 reversed $517 $-1 #
vertex $-1 $715 $842 #
vertex $-1 $716 $843 #
straight-curve $-1 -5.1111933007961312 -2.2963532233616153 107.29899189325891 0.54463902268945019 0 -0.83867057594974714 I I #
vertex $-1 $526 $844 #
straight-curve $-1 -5.1111933007961312 6.676139818026817 107.29899189325891 0.54463902268945019 0 -0.83867057594974714 I I #
straight-curve $-1 45.458530576252215 6.676139818026817 17.671390977876854 -1 0 0 I I #
coedge $-1 $528 $527 $717 $841 forward $529 $-1 #
edge $-1 $845 -2.2963532233616153 $531 6.676139818026817 $527 $846 forward 7 unknown #
point $-1 57.250282296212653 6.676139818026817 11.270737439958353 #
point $-1 57.250282296212653 6.676139818026817 17.67139097787685 #
edge $-1 $847 1 $847 0 $533 $-1 forward 7 unknown #
vertex $-1 $534 $848 #
ellipse-curve $-1 54.333295282656906 -0.50185461508392137 13.926425186228172 0.83867057594974714 0 0.54463902268945019 0.2723195113447251 0 -0.41933528797487357 1 I I #
point $-1 55.44428536995138 -0.50185461508392137 14.051728920942749 #
edge $-1 $849 1 $849 0 $537 $-1 forward 7 unknown #
vertex $-1 $538 $850 #
ellipse-curve $-1 54.333295282656906 2.1898932973326026 13.926425186228172 0.83867057594974714 0 0.54463902268945019 0.2723195113447251 0 -0.41933528797487357 1 I I #
point $-1 55.44428536995138 2.1898932973326026 14.051728920942749 #
edge $-1 $851 1 $851 0 $541 $-1 forward 7 unknown #
vertex $-1 $542 $852 #
ellipse-curve $-1 54.333295282656906 4.8816412097491337 13.926425186228172 0.83867057594974714 0 0.54463902268945019 0.2723195113447251 0 -0.41933528797487357 1 I I #
point $-1 55.44428536995138 4.8816412097491337 14.051728920942749 #
plane-surface $-1 57.250282296212653 0 0 -1 0 0 0 0 1 forward_v I I I I #
coedge $-1 $550 $548 $552 $745 reversed $381 $-1 #
edge $-1 $563 -17.67139097787685 $747 17.67139097787685 $562 $853 forward 7 unknown #
vertex $-1 $745 $854 #
straight-curve $-1 -57.250282296212653 -39.016398477995999 0 0 0 -1 I I #
edge $-1 $743 -39.016398477995999 $747 39.016398477995999 $741 $855 forward 7 unknown #
straight-curve $-1 0 -39.016398477995999 -17.67139097787685 -1 0 0 I I #
vertex $-1 $555 $856 #
straight-curve $-1 0 39.016398477995999 -17.67139097787685 1 0 0 I I #
point $-1 57.250282296212653 39.016398477995999 -17.67139097787685 #
point $-1 57.250282296212653 -39.016398477995999 -17.67139097787685 #
straight-curve $-1 -57.250282296212653 0 17.67139097787685 0 -1 0 I I #
point $-1 -57.250282296212653 39.016398477995999 17.67139097787685 #
point $-1 -57.250282296212653 -39.016398477995999 17.67139097787685 #
straight-curve $-1 57.250282296212653 -39.016398477995999 0 0 0 -1 I I #
straight-curve $-1 57.250282296212653 39.016398477995999 0 0 0 -1 I I #
loop $-1 $-1 $578 $572 #
plane-surface $-1 0 -39.016398477995999 0 0 1 0 0 0 1 forward_v I I I I #
coedge $-1 $589 $580 $576 $760 forward $573 $-1 #
edge $-1 $764 -23.803250042376856 $584 -6.6230468288614297 $575 $857 forward 7 unknown #
edge $-1 $585 6.6230468288614297 $763 23.803250042376856 $758 $858 forward 7 unknown #
coedge $-1 $587 $578 $592 $773 reversed $756 $-1 #
coedge $-1 $578 $587 $589 $771 reversed $756 $-1 #
vertex $-1 $771 $859 #
vertex $-1 $579 $860 #
straight-curve $-1 -49.827712205635152 -39.016398477995999 0 0 0 1 I I #
straight-curve $-1 -26.456563627515155 -21.836195264480573 -17.67139097787685 1 0 0 I I #
straight-curve $-1 -26.456563627515155 -21.836195264480573 17.67139097787685 -1 0 0 I I #
point $-1 -49.827712205635152 -21.836195264480573 17.67139097787685 #
point $-1 -49.827712205635152 -21.836195264480573 -17.67139097787685 #
straight-curve $-1 -55.99854230442547 -39.016398477995999 0 0 0 -1 I I #
edge $-1 $763 49.827712205635152 $590 55.99854230442547 $762 $861 forward 7 unknown #
point $-1 -55.99854230442547 -39.016398477995999 -17.67139097787685 #
edge $-1 $593 -55.99854230442547 $764 -49.827712205635152 $761 $862 forward 7 unknown #
point $-1 -55.99854230442547 -39.016398477995999 17.67139097787685 #
plane-surface $-1 0 39.016398477995999 0 0 -1 0 0 0 -1 forward_v I I I I #
coedge $-1 $600 $604 $609 $786 forward $416 $-1 #
edge $-1 $863 -24.951426654057666 $614 -3.178516993819013 $600 $864 forward 7 unknown #
coedge $-1 $602 $601 $784 $865 reversed $257 $-1 #
edge $-1 $617 3.178516993819013 $866 24.951426654057666 $616 $867 forward 7 unknown #
straight-curve $-1 -39.294092174402238 17.243488817757353 0 0 0 -1 I I #
straight-curve $-1 -46.963757375756586 14.06497182393834 -17.67139097787685 0 1 0 I I #
coedge $-1 $606 $616 $608 $785 forward $598 $-1 #
straight-curve $-1 -46.963757375756586 14.06497182393834 17.67139097787685 0 -1 0 I I #
coedge $-1 $609 $608 $778 $865 forward $610 $-1 #
edge $-1 $866 39.294092174402238 $612 46.963757375756586 $608 $868 forward 7 unknown #
edge $-1 $611 -46.963757375756586 $863 -39.294092174402238 $609 $869 forward 7 unknown #
point $-1 -46.963757375756586 39.016398477996006 -17.67139097787685 #
point $-1 -46.963757375756586 39.016398477996006 17.67139097787685 #
point $-1 -39.294092174402238 17.243488817757353 -17.67139097787685 #
point $-1 -39.294092174402238 17.243488817757353 17.67139097787685 #
edge $-1 $792 19.144715540606729 $795 25.545369078525194 $622 $870 forward 7 unknown #
vertex $-1 $636 $871 #
straight-curve $-1 -76.639268374756611 -2.2963532233616153 17.67139097787685 -1 0 0 I I #
edge $-1 $795 -1.0949466486662995 $633 7.8775463927221292 $632 $872 forward 7 unknown #
vertex $-1 $794 $873 #
straight-curve $-1 -57.25028229621266 -2.2963532233616153 11.270737439958374 0.54463902268945019 0 0.83867057594974714 I I #
point $-1 -53.093649421000677 -2.2963532233616153 17.67139097787685 #
point $-1 -57.250282296212653 -11.268846264750044 11.270737439958385 #
straight-curve $-1 -57.250282296212653 0 17.67139097787685 0 -1 0 I I #
vertex $-1 $639 $874 #
point $-1 -54.060975771312187 -9.4743476564723572 14.345760474203034 #
vertex $-1 $643 $875 #
point $-1 -54.060975771312187 -6.7825997440558297 14.345760474203034 #
vertex $-1 $647 $876 #
point $-1 -54.060975771312187 -4.0908518316392986 14.345760474203034 #
edge $-1 $658 -6.676139818026817 $812 2.2963532233616153 $653 $877 forward 7 unknown #
straight-curve $-1 -57.250282296212653 6.676139818026817 36.816106518483579 0 0 -1 I I #
straight-curve $-1 -57.25028229621266 6.676139818026817 11.270737439958374 0.54463902268945019 0 0.83867057594974714 I I #
point $-1 -53.093649421000677 6.676139818026817 17.67139097787685 #
point $-1 -57.250282296212653 6.676139818026817 17.67139097787685 #
point $-1 -57.250282296212653 6.676139818026817 11.270737439958385 #
vertex $-1 $666 $878 #
straight-curve $-1 -76.639268374756611 -2.2963532233616153 17.67139097787685 1 0 0 I I #
straight-curve $-1 -57.250282296212653 -2.2963532233616153 36.816106518483579 0 0 1 I I #
vertex $-1 $669 $879 #
point $-1 -54.060975771312187 -0.50185461508392137 14.345760474203034 #
vertex $-1 $673 $880 #
point $-1 -54.060975771312187 2.1898932973326026 14.345760474203034 #
vertex $-1 $677 $881 #
point $-1 -54.060975771312187 4.8816412097491337 14.345760474203034 #
coedge $-1 $692 $691 $684 $822 forward $681 $-1 #
edge $-1 $823 67.158842767256999 $826 73.5594963051755 $821 $882 forward 7 unknown #
vertex $-1 $696 $883 #
straight-curve $-1 45.458530576252215 -11.268846264750044 17.671390977876854 1 0 0 I I #
edge $-1 $826 -7.8775463927221292 $693 1.0949466486662995 $692 $884 forward 7 unknown #
vertex $-1 $825 $885 #
straight-curve $-1 -5.1111933007961312 -11.268846264750044 107.29899189325891 -0.54463902268945019 0 0.83867057594974714 I I #
point $-1 53.093649421000649 -11.268846264750044 17.671390977876854 #
point $-1 57.250282296212653 -2.2963532233616153 11.270737439958353 #
straight-curve $-1 57.250282296212653 0 17.67139097787685 0 1 0 I I #
vertex $-1 $699 $886 #
point $-1 54.605614794001632 -9.4743476564723572 13.507089898253298 #
vertex $-1 $703 $887 #
point $-1 54.605614794001632 -6.7825997440558297 13.507089898253298 #
vertex $-1 $707 $888 #
point $-1 54.605614794001632 -4.0908518316392986 13.507089898253298 #
coedge $-1 $714 $713 $712 $838 forward $352 $-1 #
edge $-1 $718 7.6351188447484333 $845 11.791751719960438 $837 $889 forward 7 unknown #
straight-curve $-1 53.093649421000663 -3.3912998720279148 17.671390977876854 0 -1 0 I I #
straight-curve $-1 57.250282296212653 -3.3912998720279148 11.27073743995836 0 1 0 I I #
edge $-1 $845 67.158842767256999 $719 73.5594963051755 $724 $890 forward 7 unknown #
point $-1 53.093649421000649 -2.2963532233616153 17.671390977876854 #
point $-1 57.250282296212653 -2.2963532233616153 11.270737439958353 #
point $-1 53.093649421000649 6.676139818026817 17.671390977876854 #
vertex $-1 $725 $891 #
straight-curve $-1 57.250282296212653 0 17.67139097787685 0 1 0 I I #
vertex $-1 $728 $892 #
point $-1 54.605614794001632 -0.50185461508392137 13.507089898253298 #
vertex $-1 $732 $893 #
point $-1 54.605614794001632 2.1898932973326026 13.507089898253298 #
vertex $-1 $736 $894 #
point $-1 54.605614794001632 4.8816412097491337 13.507089898253298 #
straight-curve $-1 -57.250282296212653 39.016398477995999 0 0 0 -1 I I #
point $-1 -57.250282296212653 -39.016398477995999 -17.67139097787685 #
straight-curve $-1 -57.250282296212653 0 -17.67139097787685 0 1 0 I I #
point $-1 -57.250282296212653 39.016398477995999 -17.67139097787685 #
straight-curve $-1 -49.827712205635152 -15.213148435619143 17.67139097787685 0 1 0 I I #
straight-curve $-1 -49.827712205635152 -15.213148435619143 -17.67139097787685 0 -1 0 I I #
point $-1 -49.827712205635152 -39.016398477995999 -17.67139097787685 #
point $-1 -49.827712205635152 -39.016398477995999 17.67139097787685 #
straight-curve $-1 0 -39.016398477995999 -17.67139097787685 -1 0 0 I I #
straight-curve $-1 0 -39.016398477995999 17.67139097787685 1 0 0 I I #
vertex $-1 $865 $895 #
straight-curve $-1 -39.294092174402238 14.06497182393834 -17.67139097787685 0 -1 0 I I #
edge $-1 $866 -17.67139097787685 $863 17.67139097787685 $784 $896 forward 7 unknown #
vertex $-1 $785 $897 #
straight-curve $-1 -39.294092174402238 14.06497182393834 17.67139097787685 0 1 0 I I #
straight-curve $-1 0 39.016398477995999 17.67139097787685 -1 0 0 I I #
straight-curve $-1 0 39.016398477995999 -17.67139097787685 1 0 0 I I #
straight-curve $-1 -57.250282296212653 -2.2963532233616153 36.816106518483579 0 0 -1 I I #
point $-1 -57.250282296212653 -2.2963532233616153 17.67139097787685 #
straight-curve $-1 -57.250282296212653 -3.3912998720279148 11.270737439958388 0 -1 0 I I #
point $-1 -57.250282296212653 -2.2963532233616153 11.270737439958385 #
point $-1 -53.913959994682038 -9.4743476564723572 13.654105674883436 #
point $-1 -53.913959994682038 -6.7825997440558297 13.654105674883436 #
point $-1 -53.913959994682038 -4.0908518316392986 13.654105674883436 #
straight-curve $-1 -57.250282296212653 0 17.67139097787685 0 -1 0 I I #
point $-1 -57.250282296212653 -2.2963532233616153 17.67139097787685 #
point $-1 -53.913959994682038 -0.50185461508392137 13.654105674883436 #
point $-1 -53.913959994682038 2.1898932973326026 13.654105674883436 #
point $-1 -53.913959994682038 4.8816412097491337 13.654105674883436 #
straight-curve $-1 57.250282296212653 -11.268846264750044 84.830233745133853 0 0 -1 I I #
point $-1 57.250282296212653 -11.268846264750044 17.67139097787685 #
straight-curve $-1 57.250282296212653 -3.3912998720279148 11.27073743995836 0 1 0 I I #
point $-1 57.250282296212653 -11.268846264750044 11.270737439958353 #
point $-1 53.913959994682031 -9.4743476564723572 13.654105674883446 #
point $-1 53.913959994682031 -6.7825997440558297 13.654105674883446 #
point $-1 53.913959994682031 -4.0908518316392986 13.654105674883446 #
straight-curve $-1 45.458530576252215 -2.2963532233616153 17.671390977876854 1 0 0 I I #
straight-curve $-1 57.250282296212653 -2.2963532233616153 84.830233745133853 0 0 -1 I I #
point $-1 57.250282296212653 -2.2963532233616153 17.67139097787685 #
point $-1 53.913959994682031 -0.50185461508392137 13.654105674883446 #
point $-1 53.913959994682031 2.1898932973326026 13.654105674883446 #
point $-1 53.913959994682031 4.8816412097491337 13.654105674883446 #
point $-1 -39.294092174402238 39.016398477996006 -17.67139097787685 #
straight-curve $-1 -39.294092174402238 39.016398477995999 0 0 0 -1 I I #
point $-1 -39.294092174402238 39.016398477996006 17.67139097787685 #
End-of-ACIS-data 