500 0 5 0           
7 Unknown 11 ACIS 5.0 NT 24 Thu Mar 25 16:08:04 1999 
-1 9.9999999999999995e-007 1e-010 
body $-1 $5 $-1 $6 #
body $-1 $7 $-1 $8 #
body $-1 $9 $-1 $10 #
body $-1 $11 $-1 $12 #
body $-1 $13 $-1 $14 #
lump $-1 $-1 $15 $0 #
transform $-1 1 0 0 0 1 0 0 0 1 73.460493789483323 30.265266092692862 9.8888826675679056 1 rotate no_reflect no_shear #
lump $-1 $-1 $16 $1 #
transform $-1 1 0 0 0 1 0 0 0 1 73.460493789483323 30.265266092692862 9.8888826675679056 1 rotate no_reflect no_shear #
lump $-1 $-1 $17 $2 #
transform $-1 1 0 0 0 1 0 0 0 1 73.460493789483323 30.265266092692862 9.8888826675679056 1 rotate no_reflect no_shear #
lump $-1 $-1 $18 $3 #
transform $-1 1 0 0 0 1 0 0 0 1 73.460493789483323 30.265266092692862 9.8888826675679056 1 rotate no_reflect no_shear #
lump $-1 $-1 $19 $4 #
transform $-1 1 0 0 0 1 0 0 0 1 73.460493789483323 30.265266092692862 9.8888826675679056 1 rotate no_reflect no_shear #
shell $-1 $-1 $-1 $20 $-1 $5 #
shell $-1 $-1 $-1 $21 $-1 $7 #
shell $-1 $-1 $-1 $22 $-1 $9 #
shell $-1 $-1 $-1 $23 $-1 $11 #
shell $-1 $-1 $-1 $24 $-1 $13 #
face $-1 $25 $26 $15 $-1 $27 forward single #
face $-1 $28 $29 $16 $-1 $30 forward single #
face $-1 $31 $32 $17 $-1 $33 forward single #
face $-1 $34 $35 $18 $-1 $36 reversed single #
face $-1 $37 $38 $19 $-1 $39 forward single #
face $-1 $40 $41 $15 $-1 $42 reversed single #
loop $-1 $-1 $43 $20 #
plane-surface $-1 0 0 9.8888826675679056 0 0 1 1 0 0 forward_v I I I I #
face $-1 $44 $45 $16 $-1 $46 reversed single #
loop $-1 $-1 $47 $21 #
plane-surface $-1 -73.460493789483323 0 0 1 0 0 0 0 -1 forward_v I I I I #
face $-1 $48 $49 $17 $-1 $50 reversed single #
loop $-1 $-1 $51 $22 #
plane-surface $-1 73.460493789483323 0 0 -1 0 0 0 0 1 forward_v I I I I #
face $-1 $52 $53 $18 $-1 $54 reversed single #
loop $-1 $-1 $55 $23 #
plane-surface $-1 -60.690209151053942 101.43634257942665 142.53076258131492 1 0 0 0 -0.75470958851134928 -0.65605901945558964 forward_v I I I I #
face $-1 $56 $57 $19 $-1 $58 forward single #
loop $-1 $59 $60 $24 #
cone-surface $-1 -44.202705418642161 23.93828989668129 3.2368686393244288 0 -0.75470958851134928 -0.65605901945558964 1.5 0 0 1 I I 0 1 1.5 forward I I I I #
face $-1 $61 $62 $15 $-1 $63 reversed single #
loop $-1 $-1 $64 $25 #
plane-surface $-1 0 0 -9.8888826675679056 0 0 1 1 0 0 forward_v I I I I #
coedge $-1 $65 $66 $67 $68 forward $26 $-1 #
face $-1 $69 $70 $16 $-1 $71 reversed single #
loop $-1 $-1 $72 $28 #
plane-surface $-1 0 0 -9.8888826675679056 0 0 1 1 0 0 forward_v I I I I #
coedge $-1 $73 $74 $75 $76 forward $29 $-1 #
face $-1 $77 $78 $17 $-1 $79 reversed single #
loop $-1 $-1 $80 $31 #
plane-surface $-1 0 0 -9.8888826675679056 0 0 1 1 0 0 forward_v I I I I #
coedge $-1 $81 $82 $83 $84 forward $32 $-1 #
face $-1 $85 $86 $18 $-1 $87 reversed single #
loop $-1 $-1 $88 $34 #
plane-surface $-1 -44.202705418642161 -9.4463354999763283 46.141923532811191 0 0.75470958851134928 0.65605901945558964 1 0 0 forward_v I I I I #
coedge $-1 $89 $90 $91 $92 reversed $35 $-1 #
face $-1 $-1 $93 $19 $-1 $94 forward single #
loop $-1 $95 $96 $37 #
cone-surface $-1 -44.202705418642161 21.143938892848787 0.80777643287033385 0 -0.75470958851134928 -0.65605901945558964 0.75 0 0 1 I I -0.70710678118654757 0.70710678118654757 0.75 forward I I I I #
loop $-1 $-1 $97 $24 #
coedge $-1 $60 $60 $98 $99 reversed $38 $-1 #
face $-1 $100 $101 $15 $-1 $102 reversed single #
loop $-1 $-1 $103 $40 #
plane-surface $-1 0 -30.265266092692862 0 0 1 0 0 0 1 forward_v I I I I #
coedge $-1 $104 $105 $106 $107 forward $41 $-1 #
coedge $-1 $108 $43 $109 $110 forward $26 $-1 #
coedge $-1 $43 $108 $111 $112 forward $26 $-1 #
coedge $-1 $113 $114 $43 $68 reversed $115 $-1 #
edge $-1 $116 -30.265266092692862 $117 30.265266092692862 $67 $118 forward 7 unknown #
face $-1 $119 $120 $16 $-1 $121 reversed single #
loop $-1 $-1 $122 $44 #
plane-surface $-1 -79.845636108698017 -14.914395630370754 0 0 1 0 0 0 1 forward_v I I I I #
coedge $-1 $123 $124 $74 $125 forward $45 $-1 #
coedge $-1 $126 $47 $127 $128 reversed $29 $-1 #
coedge $-1 $47 $126 $72 $125 reversed $29 $-1 #
coedge $-1 $129 $130 $47 $76 reversed $131 $-1 #
edge $-1 $132 -9.8888826675679056 $133 9.8888826675679056 $75 $134 forward 7 unknown #
face $-1 $135 $136 $17 $-1 $137 reversed single #
loop $-1 $-1 $83 $48 #
plane-surface $-1 79.845636108698002 -14.914395630370754 0 0 1 0 0 0 1 forward_v I I I I #
coedge $-1 $138 $139 $82 $140 forward $49 $-1 #
coedge $-1 $141 $51 $142 $143 reversed $32 $-1 #
coedge $-1 $51 $141 $80 $140 reversed $32 $-1 #
coedge $-1 $144 $145 $51 $84 reversed $78 $-1 #
edge $-1 $146 -9.8888826675679056 $147 9.8888826675679056 $83 $148 forward 7 unknown #
face $-1 $149 $150 $18 $-1 $151 reversed single #
loop $-1 $-1 $152 $52 #
plane-surface $-1 -27.71520168623038 101.43634257942665 142.53076258131492 -1 0 0 0 0.75470958851134928 0.65605901945558964 forward_v I I I I #
coedge $-1 $153 $154 $155 $156 reversed $53 $-1 #
coedge $-1 $90 $55 $157 $158 reversed $35 $-1 #
coedge $-1 $55 $89 $153 $159 reversed $35 $-1 #
coedge $-1 $155 $160 $55 $92 forward $161 $-1 #
edge $-1 $162 20.452905197020463 $163 28.650219964145677 $91 $164 forward 7 unknown #
loop $-1 $-1 $98 $56 #
plane-surface $-1 -44.202705418642161 -9.4463354999763283 46.141923532811191 0 0.75470958851134928 0.65605901945558964 1 0 0 forward_v I I I I #
loop $-1 $-1 $165 $37 #
coedge $-1 $96 $96 $97 $166 reversed $57 $-1 #
coedge $-1 $97 $97 $96 $166 forward $59 $-1 #
coedge $-1 $98 $98 $60 $99 forward $93 $-1 #
edge $-1 $167 -2.9492684918088669e-016 $167 6.2831853071796004 $98 $168 forward 7 unknown #
face $-1 $169 $170 $15 $-1 $171 reversed single #
loop $-1 $-1 $172 $61 #
plane-surface $-1 -73.460493789483323 0 0 1 0 0 0 0 -1 forward_v I I I I #
coedge $-1 $173 $111 $174 $175 forward $62 $-1 #
coedge $-1 $176 $64 $173 $177 forward $41 $-1 #
coedge $-1 $64 $176 $178 $179 forward $41 $-1 #
coedge $-1 $114 $113 $64 $107 reversed $115 $-1 #
edge $-1 $180 -30.265266092692862 $181 30.265266092692862 $106 $182 forward 7 unknown #
coedge $-1 $66 $65 $183 $184 forward $26 $-1 #
coedge $-1 $185 $186 $65 $110 reversed $170 $-1 #
edge $-1 $117 -73.460493789483323 $187 73.460493789483323 $109 $188 forward 7 unknown #
coedge $-1 $103 $189 $66 $112 reversed $62 $-1 #
edge $-1 $190 -73.460493789483323 $116 73.460493789483323 $111 $191 forward 7 unknown #
coedge $-1 $106 $67 $189 $192 forward $115 $-1 #
coedge $-1 $67 $106 $185 $193 reversed $115 $-1 #
loop $-1 $-1 $113 $169 #
vertex $-1 $68 $194 #
vertex $-1 $68 $195 #
straight-curve $-1 73.460493789483323 0 9.8888826675679056 0 1 0 I I #
face $-1 $196 $131 $16 $-1 $197 reversed single #
loop $-1 $-1 $198 $69 #
plane-surface $-1 -86.230778427912711 -12.700948193963903 0 1 0 0 0 0 -1 forward_v I I I I #
coedge $-1 $199 $200 $201 $202 forward $70 $-1 #
coedge $-1 $203 $72 $199 $204 forward $45 $-1 #
coedge $-1 $72 $203 $129 $205 forward $45 $-1 #
edge $-1 $132 10.487500757557052 $206 14.914395630370754 $72 $207 forward 7 unknown #
coedge $-1 $74 $73 $208 $209 forward $29 $-1 #
coedge $-1 $210 $211 $73 $128 forward $212 $-1 #
edge $-1 $213 -14.914395630370754 $133 -10.487500757557052 $127 $214 forward 7 unknown #
coedge $-1 $215 $75 $124 $205 reversed $131 $-1 #
coedge $-1 $75 $215 $210 $216 reversed $131 $-1 #
loop $-1 $-1 $75 $119 #
vertex $-1 $125 $217 #
vertex $-1 $216 $218 #
straight-curve $-1 -73.460493789483323 -10.487500757557052 0 0 0 1 I I #
face $-1 $219 $220 $17 $-1 $221 reversed single #
loop $-1 $-1 $222 $77 #
plane-surface $-1 79.845636108698002 -10.487500757557052 0 0 -1 0 0 0 -1 forward_v I I I I #
coedge $-1 $223 $80 $224 $225 forward $49 $-1 #
coedge $-1 $80 $223 $144 $226 forward $49 $-1 #
edge $-1 $146 -14.914395630370754 $227 -10.487500757557052 $80 $228 forward 7 unknown #
coedge $-1 $82 $81 $229 $230 forward $32 $-1 #
coedge $-1 $231 $232 $81 $143 forward $233 $-1 #
edge $-1 $234 10.487500757557052 $147 14.914395630370754 $142 $235 forward 7 unknown #
coedge $-1 $236 $83 $139 $226 reversed $78 $-1 #
coedge $-1 $83 $236 $231 $237 reversed $78 $-1 #
vertex $-1 $140 $238 #
vertex $-1 $237 $239 #
straight-curve $-1 73.460493789483323 -14.914395630370754 0 0 0 1 I I #
face $-1 $-1 $161 $18 $-1 $240 forward single #
loop $-1 $-1 $241 $85 #
plane-surface $-1 0 30.265266092692862 0 0 -1 0 0 0 -1 forward_v I I I I #
coedge $-1 $242 $243 $244 $245 reversed $86 $-1 #
coedge $-1 $246 $88 $90 $159 forward $53 $-1 #
coedge $-1 $88 $246 $242 $247 forward $53 $-1 #
coedge $-1 $244 $91 $88 $156 forward $161 $-1 #
edge $-1 $163 -38.588856441732858 $248 -5.6138489769092992 $155 $249 forward 7 unknown #
coedge $-1 $250 $251 $89 $158 forward $150 $-1 #
edge $-1 $252 -70.806430795851725 $162 -61.376498623089553 $157 $253 forward 7 unknown #
edge $-1 $163 48.035749667301495 $252 60.530532185385766 $90 $254 forward 7 unknown #
coedge $-1 $91 $244 $250 $255 forward $161 $-1 #
loop $-1 $-1 $244 $149 #
vertex $-1 $158 $256 #
vertex $-1 $92 $257 #
straight-curve $-1 -60.690209151053942 50.718171289713325 9.8888826675679127 0 -1 0 I I #
coedge $-1 $165 $165 $-1 $258 reversed $95 $-1 #
edge $-1 $259 0 $259 6.2831853071796004 $96 $260 forward 7 unknown #
vertex $-1 $99 $261 #
ellipse-curve $-1 -44.202705418642161 26.166608709130259 5.1739165811868091 0 0.75470958851134928 0.65605901945558964 1.5 0 0 1 I I #
face $-1 $-1 $115 $15 $-1 $262 reversed single #
loop $-1 $-1 $185 $100 #
plane-surface $-1 0 30.265266092692862 0 0 -1 0 0 0 -1 forward_v I I I I #
coedge $-1 $263 $183 $186 $264 forward $101 $-1 #
coedge $-1 $189 $103 $104 $177 reversed $62 $-1 #
coedge $-1 $183 $263 $103 $175 reversed $101 $-1 #
edge $-1 $190 -9.8888826675679056 $265 9.8888826675679056 $174 $266 forward 7 unknown #
coedge $-1 $105 $104 $263 $267 forward $41 $-1 #
edge $-1 $181 -73.460493789483323 $265 73.460493789483323 $173 $268 forward 7 unknown #
coedge $-1 $186 $185 $105 $179 reversed $170 $-1 #
edge $-1 $269 -73.460493789483323 $180 73.460493789483323 $178 $270 forward 7 unknown #
vertex $-1 $107 $271 #
vertex $-1 $192 $272 #
straight-curve $-1 73.460493789483323 0 -9.8888826675679056 0 -1 0 I I #
coedge $-1 $172 $174 $108 $184 reversed $101 $-1 #
edge $-1 $187 -30.265266092692862 $190 30.265266092692862 $183 $273 forward 7 unknown #
coedge $-1 $178 $109 $114 $193 forward $170 $-1 #
coedge $-1 $109 $178 $172 $264 reversed $170 $-1 #
vertex $-1 $110 $274 #
straight-curve $-1 0 30.265266092692862 9.8888826675679056 -1 0 0 I I #
coedge $-1 $111 $173 $113 $192 reversed $62 $-1 #
vertex $-1 $184 $275 #
straight-curve $-1 0 -30.265266092692862 9.8888826675679056 1 0 0 I I #
edge $-1 $116 -9.8888826675679056 $181 9.8888826675679056 $113 $276 forward 7 unknown #
edge $-1 $117 -9.8888826675679056 $180 9.8888826675679056 $114 $277 forward 7 unknown #
point $-1 73.460493789483323 -30.265266092692862 9.8888826675679056 #
point $-1 73.460493789483323 30.265266092692862 9.8888826675679056 #
face $-1 $-1 $212 $16 $-1 $278 forward single #
plane-surface $-1 -79.845636108698017 -10.487500757557052 0 0 -1 0 0 0 -1 forward_v I I I I #
coedge $-1 $279 $280 $215 $281 forward $120 $-1 #
coedge $-1 $208 $122 $123 $204 reversed $70 $-1 #
coedge $-1 $122 $208 $211 $282 reversed $70 $-1 #
coedge $-1 $280 $279 $122 $202 reversed $120 $-1 #
edge $-1 $283 -9.8888826675679056 $284 9.8888826675679056 $201 $285 forward 7 unknown #
coedge $-1 $124 $123 $279 $286 forward $45 $-1 #
edge $-1 $206 -6.3851423192146939 $284 6.3851423192146939 $199 $287 forward 7 unknown #
edge $-1 $288 -6.3851423192146939 $132 6.3851423192146939 $129 $289 forward 7 unknown #
vertex $-1 $204 $290 #
straight-curve $-1 -73.460493789483323 0 -9.8888826675679056 0 -1 0 I I #
coedge $-1 $200 $199 $126 $209 reversed $70 $-1 #
edge $-1 $213 -9.8888826675679056 $206 9.8888826675679056 $208 $291 forward 7 unknown #
coedge $-1 $292 $127 $130 $216 forward $212 $-1 #
coedge $-1 $127 $292 $200 $282 forward $212 $-1 #
loop $-1 $-1 $127 $196 #
vertex $-1 $128 $293 #
straight-curve $-1 -73.460493789483323 0 9.8888826675679056 0 1 0 I I #
coedge $-1 $130 $129 $198 $281 reversed $131 $-1 #
edge $-1 $133 -6.3851423192146939 $294 6.3851423192146939 $130 $295 forward 7 unknown #
point $-1 -73.460493789483323 -10.487500757557052 -9.8888826675679056 #
point $-1 -73.460493789483323 -10.487500757557052 9.8888826675679056 #
face $-1 $-1 $233 $17 $-1 $296 forward single #
loop $-1 $-1 $297 $135 #
plane-surface $-1 86.230778427912696 -12.700948193963903 0 -1 0 0 0 0 1 forward_v I I I I #
coedge $-1 $224 $298 $299 $300 forward $136 $-1 #
coedge $-1 $139 $138 $301 $302 forward $49 $-1 #
coedge $-1 $229 $222 $138 $225 reversed $136 $-1 #
edge $-1 $227 -6.3851423192146939 $303 6.3851423192146939 $224 $304 forward 7 unknown #
edge $-1 $305 -6.3851423192146939 $146 6.3851423192146939 $144 $306 forward 7 unknown #
vertex $-1 $225 $307 #
straight-curve $-1 73.460493789483323 0 -9.8888826675679056 0 1 0 I I #
coedge $-1 $298 $224 $141 $230 reversed $136 $-1 #
edge $-1 $234 -9.8888826675679056 $227 9.8888826675679056 $229 $308 forward 7 unknown #
coedge $-1 $309 $142 $145 $237 forward $233 $-1 #
coedge $-1 $142 $309 $298 $310 forward $233 $-1 #
loop $-1 $-1 $142 $219 #
vertex $-1 $143 $311 #
straight-curve $-1 73.460493789483323 0 9.8888826675679056 0 -1 0 I I #
coedge $-1 $145 $144 $297 $312 reversed $78 $-1 #
edge $-1 $147 -6.3851423192146939 $313 6.3851423192146939 $145 $314 forward 7 unknown #
point $-1 73.460493789483309 -14.914395630370754 -9.8888826675679056 #
point $-1 73.460493789483309 -14.914395630370754 9.8888826675679056 #
plane-surface $-1 0 0 9.8888826675679056 0 0 1 1 0 0 forward_v I I I I #
coedge $-1 $251 $250 $243 $315 forward $150 $-1 #
coedge $-1 $243 $152 $154 $247 reversed $86 $-1 #
coedge $-1 $152 $242 $241 $315 reversed $86 $-1 #
coedge $-1 $160 $155 $152 $245 forward $161 $-1 #
edge $-1 $248 -28.650219964145677 $316 -20.452905197020463 $244 $317 forward 7 unknown #
coedge $-1 $154 $153 $251 $318 reversed $53 $-1 #
edge $-1 $319 -60.530532185385766 $248 -48.035749667301495 $242 $320 forward 7 unknown #
vertex $-1 $156 $321 #
straight-curve $-1 -22.10135270932108 22.067951325567648 9.8888826675679056 1 0 0 I I #
coedge $-1 $241 $157 $160 $255 reversed $150 $-1 #
coedge $-1 $157 $241 $246 $318 forward $150 $-1 #
vertex $-1 $158 $322 #
straight-curve $-1 -60.690209151053942 30.265266092692862 71.265381290657459 0 0 1 I I #
straight-curve $-1 -60.690209151053942 -9.4463354999763283 46.141923532811191 0 0.65605901945558964 -0.75470958851134928 I I #
edge $-1 $316 27.71520168623038 $162 60.690209151053942 $250 $323 forward 7 unknown #
point $-1 -60.690209151053942 30.265266092692862 9.8888826675679056 #
point $-1 -60.690209151053942 22.067951325567648 9.8888826675679056 #
edge $-1 $324 1 $324 0 $165 $-1 forward 7 unknown #
vertex $-1 $166 $325 #
ellipse-curve $-1 -44.202705418642161 21.709971084232301 1.2998206974620261 0 0.75470958851134928 0.65605901945558964 1.5 0 0 1 I I #
point $-1 -42.702705418642161 26.166608709130283 5.1739165811868313 #
plane-surface $-1 73.460493789483323 0 0 -1 0 0 0 0 1 forward_v I I I I #
coedge $-1 $174 $172 $176 $267 reversed $101 $-1 #
edge $-1 $187 -9.8888826675679056 $269 9.8888826675679056 $186 $326 forward 7 unknown #
vertex $-1 $267 $327 #
straight-curve $-1 -73.460493789483323 -30.265266092692862 0 0 0 -1 I I #
edge $-1 $265 -30.265266092692862 $269 30.265266092692862 $263 $328 forward 7 unknown #
straight-curve $-1 0 -30.265266092692862 -9.8888826675679056 -1 0 0 I I #
vertex $-1 $179 $329 #
straight-curve $-1 0 30.265266092692862 -9.8888826675679056 1 0 0 I I #
point $-1 73.460493789483323 30.265266092692862 -9.8888826675679056 #
point $-1 73.460493789483323 -30.265266092692862 -9.8888826675679056 #
straight-curve $-1 -73.460493789483323 0 9.8888826675679056 0 -1 0 I I #
point $-1 -73.460493789483323 30.265266092692862 9.8888826675679056 #
point $-1 -73.460493789483323 -30.265266092692862 9.8888826675679056 #
straight-curve $-1 73.460493789483323 -30.265266092692862 0 0 0 -1 I I #
straight-curve $-1 73.460493789483323 30.265266092692862 0 0 0 -1 I I #
plane-surface $-1 0 0 9.8888826675679056 0 0 1 1 0 0 forward_v I I I I #
coedge $-1 $201 $198 $203 $286 reversed $120 $-1 #
coedge $-1 $198 $201 $292 $330 reversed $120 $-1 #
edge $-1 $294 -9.8888826675679056 $288 9.8888826675679056 $215 $331 forward 7 unknown #
edge $-1 $283 -6.3851423192146939 $213 6.3851423192146939 $200 $332 forward 7 unknown #
vertex $-1 $330 $333 #
vertex $-1 $286 $334 #
straight-curve $-1 -86.230778427912711 -14.914395630370754 0 0 0 -1 I I #
edge $-1 $284 -2.2134474364068506 $288 2.2134474364068506 $279 $335 forward 7 unknown #
straight-curve $-1 -79.845636108698017 -14.914395630370754 -9.8888826675679056 -1 0 0 I I #
vertex $-1 $205 $336 #
straight-curve $-1 -79.845636108698017 -10.487500757557052 -9.8888826675679056 1 0 0 I I #
point $-1 -73.460493789483323 -14.914395630370754 -9.8888826675679056 #
straight-curve $-1 -73.460493789483323 -14.914395630370754 0 0 0 -1 I I #
coedge $-1 $211 $210 $280 $330 forward $212 $-1 #
point $-1 -73.460493789483323 -14.914395630370754 9.8888826675679056 #
vertex $-1 $216 $337 #
straight-curve $-1 -79.845636108698017 -10.487500757557052 9.8888826675679056 -1 0 0 I I #
plane-surface $-1 0 0 9.8888826675679056 0 0 1 1 0 0 forward_v I I I I #
coedge $-1 $301 $338 $236 $312 forward $220 $-1 #
coedge $-1 $222 $229 $232 $310 reversed $136 $-1 #
coedge $-1 $338 $301 $222 $300 reversed $220 $-1 #
edge $-1 $339 -9.8888826675679056 $303 9.8888826675679056 $299 $340 forward 7 unknown #
coedge $-1 $299 $297 $223 $302 reversed $220 $-1 #
edge $-1 $303 -2.2134474364068506 $305 2.2134474364068506 $301 $341 forward 7 unknown #
vertex $-1 $302 $342 #
straight-curve $-1 79.845636108698002 -10.487500757557052 -9.8888826675679056 1 0 0 I I #
vertex $-1 $312 $343 #
straight-curve $-1 79.845636108698002 -14.914395630370754 -9.8888826675679056 -1 0 0 I I #
point $-1 73.460493789483309 -10.487500757557052 -9.8888826675679056 #
straight-curve $-1 73.460493789483323 -10.487500757557052 0 0 0 -1 I I #
coedge $-1 $232 $231 $338 $344 forward $233 $-1 #
edge $-1 $339 -6.3851423192146939 $234 6.3851423192146939 $298 $345 forward 7 unknown #
point $-1 73.460493789483309 -10.487500757557052 9.8888826675679056 #
edge $-1 $313 -9.8888826675679056 $305 9.8888826675679056 $297 $346 forward 7 unknown #
vertex $-1 $344 $347 #
straight-curve $-1 79.845636108698002 -14.914395630370754 9.8888826675679056 1 0 0 I I #
edge $-1 $316 61.376498623089553 $319 70.806430795851725 $241 $348 forward 7 unknown #
vertex $-1 $255 $349 #
straight-curve $-1 -27.71520168623038 50.718171289713325 9.8888826675679127 0 1 0 I I #
edge $-1 $319 5.6138489769092992 $252 38.588856441732858 $251 $350 forward 7 unknown #
vertex $-1 $318 $351 #
straight-curve $-1 -27.71520168623038 -9.4463354999763283 46.141923532811191 0 -0.65605901945558964 0.75470958851134928 I I #
point $-1 -27.71520168623038 22.067951325567648 9.8888826675679056 #
point $-1 -60.690209151053942 30.265266092692862 0.45895049480572681 #
straight-curve $-1 0 30.265266092692862 9.8888826675679056 -1 0 0 I I #
vertex $-1 $258 $352 #
point $-1 -42.702705418642161 21.709971084232301 1.2998206974620261 #
straight-curve $-1 -73.460493789483323 30.265266092692862 0 0 0 -1 I I #
point $-1 -73.460493789483323 -30.265266092692862 -9.8888826675679056 #
straight-curve $-1 -73.460493789483323 0 -9.8888826675679056 0 1 0 I I #
point $-1 -73.460493789483323 30.265266092692862 -9.8888826675679056 #
edge $-1 $294 -2.2134474364068506 $283 2.2134474364068506 $280 $353 forward 7 unknown #
straight-curve $-1 -86.230778427912711 -10.487500757557052 0 0 0 -1 I I #
straight-curve $-1 -79.845636108698017 -14.914395630370754 9.8888826675679056 1 0 0 I I #
point $-1 -86.230778427912711 -14.914395630370754 9.8888826675679056 #
point $-1 -86.230778427912711 -14.914395630370754 -9.8888826675679056 #
straight-curve $-1 -86.230778427912711 -12.700948193963903 -9.8888826675679056 0 1 0 I I #
point $-1 -86.230778427912711 -10.487500757557052 -9.8888826675679056 #
point $-1 -86.230778427912711 -10.487500757557052 9.8888826675679056 #
coedge $-1 $297 $299 $309 $344 reversed $220 $-1 #
vertex $-1 $344 $354 #
straight-curve $-1 86.230778427912696 -10.487500757557052 0 0 0 -1 I I #
straight-curve $-1 86.230778427912696 -12.700948193963903 -9.8888826675679056 0 -1 0 I I #
point $-1 86.230778427912696 -10.487500757557052 -9.8888826675679056 #
point $-1 86.230778427912696 -14.914395630370754 -9.8888826675679056 #
edge $-1 $313 -2.2134474364068506 $339 2.2134474364068506 $338 $355 forward 7 unknown #
straight-curve $-1 79.845636108698002 -10.487500757557052 9.8888826675679056 -1 0 0 I I #
straight-curve $-1 86.230778427912696 -14.914395630370754 0 0 0 -1 I I #
point $-1 86.230778427912696 -14.914395630370754 9.8888826675679056 #
straight-curve $-1 -27.71520168623038 30.265266092692862 71.265381290657459 0 0 -1 I I #
point $-1 -27.71520168623038 30.265266092692862 9.8888826675679056 #
straight-curve $-1 -22.10135270932108 30.265266092692862 0.45895049480572681 -1 0 0 I I #
point $-1 -27.71520168623038 30.265266092692862 0.45895049480572681 #
point $-1 -44.202705418642161 20.577906701465274 0.31573216827864159 #
straight-curve $-1 -86.230778427912711 -12.700948193963903 9.8888826675679056 0 -1 0 I I #
point $-1 86.230778427912696 -10.487500757557052 9.8888826675679056 #
straight-curve $-1 86.230778427912696 -12.700948193963903 9.8888826675679056 0 1 0 I I #
End-of-ACIS-data 