500 0 5 0           
7 Unknown 11 ACIS 5.0 NT 24 Fri Mar 26 15:17:18 1999 
-1 9.9999999999999995e-007 1e-010 
body $-1 $5 $-1 $6 #
body $-1 $7 $-1 $8 #
body $-1 $9 $-1 $10 #
body $-1 $11 $-1 $12 #
body $-1 $13 $-1 $14 #
lump $-1 $-1 $15 $0 #
transform $-1 1 0 0 0 1 0 0 0 1 68.639790032654801 33.139484185814965 11.076195225616923 1 rotate no_reflect no_shear #
lump $-1 $-1 $16 $1 #
transform $-1 1 0 0 0 1 0 0 0 1 68.639790032654801 33.139484185814965 11.076195225616923 1 rotate no_reflect no_shear #
lump $-1 $-1 $17 $2 #
transform $-1 1 0 0 0 1 0 0 0 1 68.639790032654801 33.139484185814965 11.076195225616923 1 rotate no_reflect no_shear #
lump $-1 $-1 $18 $3 #
transform $-1 1 0 0 0 1 0 0 0 1 68.639790032654801 33.139484185814965 11.076195225616923 1 rotate no_reflect no_shear #
lump $-1 $-1 $19 $4 #
transform $-1 1 0 0 0 1 0 0 0 1 68.639790032654801 33.139484185814965 11.076195225616923 1 rotate no_reflect no_shear #
shell $-1 $-1 $-1 $20 $-1 $5 #
shell $-1 $-1 $-1 $21 $-1 $7 #
shell $-1 $-1 $-1 $22 $-1 $9 #
shell $-1 $-1 $-1 $23 $-1 $11 #
shell $-1 $-1 $-1 $24 $-1 $13 #
face $-1 $25 $26 $15 $-1 $27 forward single #
face $-1 $28 $29 $16 $-1 $30 reversed single #
face $-1 $31 $32 $17 $-1 $33 forward single #
face $-1 $34 $35 $18 $-1 $36 forward single #
face $-1 $37 $38 $19 $-1 $39 forward single #
face $-1 $40 $41 $15 $-1 $42 reversed single #
loop $-1 $-1 $43 $20 #
plane-surface $-1 0 0 11.076195225616923 0 0 1 1 0 0 forward_v I I I I #
face $-1 $44 $45 $16 $-1 $46 reversed single #
loop $-1 $-1 $47 $21 #
plane-surface $-1 -1.0045773900133774 -103.8436957676461 118.964073243074 -1 0 0 0 -0.51503808176128008 0.85716729658548041 forward_v I I I I #
face $-1 $48 $49 $17 $-1 $50 forward single #
loop $-1 $51 $52 $22 #
cone-surface $-1 -18.235098173917919 -24.623979564992514 5.5617294697235451 0 0.51503808176128008 -0.85716729658548041 1 0 0 1 I I 0 1 1 forward I I I I #
face $-1 $53 $54 $18 $-1 $55 forward single #
loop $-1 $56 $57 $23 #
cone-surface $-1 -11.773652879953715 -24.623979564992514 5.5617294697235451 0 0.51503808176128008 -0.85716729658548041 1 0 0 1 I I 0 1 1 forward I I I I #
face $-1 $58 $59 $19 $-1 $60 forward single #
loop $-1 $61 $62 $24 #
cone-surface $-1 -5.3122075859895119 -24.623979564992514 5.5617294697235451 0 0.51503808176128008 -0.85716729658548041 1 0 0 1 I I 0 1 1 forward I I I I #
face $-1 $63 $64 $15 $-1 $65 reversed single #
loop $-1 $-1 $66 $25 #
plane-surface $-1 0 0 -11.076195225616923 0 0 1 1 0 0 forward_v I I I I #
coedge $-1 $67 $68 $69 $70 forward $26 $-1 #
face $-1 $71 $72 $16 $-1 $73 reversed single #
loop $-1 $-1 $74 $28 #
plane-surface $-1 -11.773652879953715 -33.139484185814979 1.2925067221025586 0 -0.51503808176128008 0.85716729658548041 1 0 0 forward_v I I I I #
coedge $-1 $75 $76 $77 $78 reversed $29 $-1 #
face $-1 $-1 $79 $17 $-1 $80 forward single #
loop $-1 $81 $82 $31 #
cone-surface $-1 -18.235098173917919 -23.992351774943497 4.5105243172945997 0 0.51503808176128008 -0.85716729658548041 0.5 0 0 1 I I -0.70710678118654746 0.70710678118654746 0.5 forward I I I I #
loop $-1 $-1 $83 $22 #
coedge $-1 $52 $52 $84 $85 reversed $32 $-1 #
face $-1 $-1 $86 $18 $-1 $87 forward single #
loop $-1 $88 $89 $34 #
cone-surface $-1 -11.773652879953715 -23.992351774943497 4.5105243172945997 0 0.51503808176128008 -0.85716729658548041 0.5 0 0 1 I I -0.70710678118654746 0.70710678118654746 0.5 forward I I I I #
loop $-1 $-1 $90 $23 #
coedge $-1 $57 $57 $91 $92 reversed $35 $-1 #
face $-1 $-1 $93 $19 $-1 $94 forward single #
loop $-1 $95 $96 $37 #
cone-surface $-1 -5.3122075859895119 -23.992351774943497 4.5105243172945997 0 0.51503808176128008 -0.85716729658548041 0.5 0 0 1 I I -0.70710678118654746 0.70710678118654746 0.5 forward I I I I #
loop $-1 $-1 $97 $24 #
coedge $-1 $62 $62 $98 $99 reversed $38 $-1 #
face $-1 $100 $101 $15 $-1 $102 reversed single #
loop $-1 $-1 $103 $40 #
plane-surface $-1 0 -33.139484185814965 0 0 1 0 0 0 1 forward_v I I I I #
coedge $-1 $104 $105 $106 $107 forward $41 $-1 #
coedge $-1 $108 $43 $109 $110 forward $26 $-1 #
coedge $-1 $43 $108 $111 $112 forward $26 $-1 #
coedge $-1 $113 $114 $43 $70 reversed $115 $-1 #
edge $-1 $116 -33.139484185814965 $117 33.139484185814965 $69 $118 forward 7 unknown #
face $-1 $119 $120 $16 $-1 $121 reversed single #
loop $-1 $-1 $122 $44 #
plane-surface $-1 -22.542728369894053 -103.8436957676461 118.964073243074 1 0 0 0 0.51503808176128008 -0.85716729658548041 forward_v I I I I #
coedge $-1 $123 $124 $125 $126 reversed $45 $-1 #
coedge $-1 $76 $47 $127 $128 reversed $29 $-1 #
coedge $-1 $47 $75 $123 $129 reversed $29 $-1 #
coedge $-1 $125 $130 $47 $78 forward $131 $-1 #
edge $-1 $132 18.782363698008083 $133 35.065155441316243 $77 $134 forward 7 unknown #
loop $-1 $-1 $84 $48 #
plane-surface $-1 -11.773652879953715 -33.139484185814979 1.2925067221025586 0 -0.51503808176128008 0.85716729658548041 1 0 0 forward_v I I I I #
loop $-1 $-1 $135 $31 #
coedge $-1 $82 $82 $83 $136 reversed $49 $-1 #
coedge $-1 $83 $83 $82 $136 forward $51 $-1 #
coedge $-1 $84 $84 $52 $85 forward $79 $-1 #
edge $-1 $137 1.5684998720914107e-016 $137 6.2831853071796004 $84 $138 forward 7 unknown #
loop $-1 $-1 $91 $53 #
plane-surface $-1 -11.773652879953715 -33.139484185814979 1.2925067221025586 0 -0.51503808176128008 0.85716729658548041 1 0 0 forward_v I I I I #
loop $-1 $-1 $139 $34 #
coedge $-1 $89 $89 $90 $140 reversed $54 $-1 #
coedge $-1 $90 $90 $89 $140 forward $56 $-1 #
coedge $-1 $91 $91 $57 $92 forward $86 $-1 #
edge $-1 $141 1.5684998720914107e-016 $141 6.2831853071796004 $91 $142 forward 7 unknown #
loop $-1 $-1 $98 $58 #
plane-surface $-1 -11.773652879953715 -33.139484185814979 1.2925067221025586 0 -0.51503808176128008 0.85716729658548041 1 0 0 forward_v I I I I #
loop $-1 $-1 $143 $37 #
coedge $-1 $96 $96 $97 $144 reversed $59 $-1 #
coedge $-1 $97 $97 $96 $144 forward $61 $-1 #
coedge $-1 $98 $98 $62 $99 forward $93 $-1 #
edge $-1 $145 1.5684998720914107e-016 $145 6.2831853071796004 $98 $146 forward 7 unknown #
face $-1 $147 $148 $15 $-1 $149 reversed single #
loop $-1 $-1 $150 $63 #
plane-surface $-1 -68.639790032654801 0 0 1 0 0 0 0 -1 forward_v I I I I #
coedge $-1 $151 $111 $152 $153 forward $64 $-1 #
coedge $-1 $154 $66 $151 $155 forward $41 $-1 #
coedge $-1 $66 $154 $156 $157 forward $41 $-1 #
coedge $-1 $114 $113 $66 $107 reversed $115 $-1 #
edge $-1 $158 -33.139484185814965 $159 33.139484185814965 $106 $160 forward 7 unknown #
coedge $-1 $68 $67 $161 $162 forward $26 $-1 #
coedge $-1 $163 $164 $67 $110 reversed $148 $-1 #
edge $-1 $117 -68.639790032654801 $165 68.639790032654801 $109 $166 forward 7 unknown #
coedge $-1 $103 $167 $68 $112 reversed $64 $-1 #
edge $-1 $168 -68.639790032654801 $116 68.639790032654801 $111 $169 forward 7 unknown #
coedge $-1 $106 $69 $167 $170 forward $115 $-1 #
coedge $-1 $69 $106 $163 $171 reversed $115 $-1 #
loop $-1 $-1 $113 $147 #
vertex $-1 $70 $172 #
vertex $-1 $70 $173 #
straight-curve $-1 68.639790032654801 0 11.076195225616923 0 1 0 I I #
face $-1 $-1 $131 $16 $-1 $174 forward single #
loop $-1 $-1 $175 $71 #
plane-surface $-1 0 -33.139484185814965 0 0 1 0 0 0 1 forward_v I I I I #
coedge $-1 $176 $177 $178 $179 reversed $72 $-1 #
coedge $-1 $180 $74 $76 $129 forward $45 $-1 #
coedge $-1 $74 $180 $176 $181 forward $45 $-1 #
coedge $-1 $178 $77 $74 $126 forward $131 $-1 #
edge $-1 $133 -4.8822490499634803 $182 16.655901929917196 $125 $183 forward 7 unknown #
coedge $-1 $184 $185 $75 $128 forward $120 $-1 #
edge $-1 $186 -58.189529899434433 $132 -48.405841395920078 $127 $187 forward 7 unknown #
edge $-1 $133 -18.996048738875778 $186 -1.6526814159067847e-014 $76 $188 forward 7 unknown #
coedge $-1 $77 $178 $184 $189 forward $131 $-1 #
loop $-1 $-1 $178 $119 #
vertex $-1 $128 $190 #
vertex $-1 $78 $191 #
straight-curve $-1 -1.0045773900133774 -51.921847883823048 11.076195225616921 0 1 0 I I #
coedge $-1 $135 $135 $-1 $192 reversed $81 $-1 #
edge $-1 $193 0 $193 6.2831853071796004 $82 $194 forward 7 unknown #
vertex $-1 $85 $195 #
ellipse-curve $-1 -18.235098173917919 -24.998088314160889 6.1843509738597433 0 -0.51503808176128008 0.85716729658548041 1 0 0 1 I I #
coedge $-1 $139 $139 $-1 $196 reversed $88 $-1 #
edge $-1 $197 0 $197 6.2831853071796004 $89 $198 forward 7 unknown #
vertex $-1 $92 $199 #
ellipse-curve $-1 -11.773652879953715 -24.998088314160889 6.1843509738597433 0 -0.51503808176128008 0.85716729658548041 1 0 0 1 I I #
coedge $-1 $143 $143 $-1 $200 reversed $95 $-1 #
edge $-1 $201 0 $201 6.2831853071796004 $96 $202 forward 7 unknown #
vertex $-1 $99 $203 #
ellipse-curve $-1 -5.3122075859895119 -24.998088314160889 6.1843509738597433 0 -0.51503808176128008 0.85716729658548041 1 0 0 1 I I #
face $-1 $-1 $115 $15 $-1 $204 reversed single #
loop $-1 $-1 $163 $100 #
plane-surface $-1 0 33.139484185814965 0 0 -1 0 0 0 -1 forward_v I I I I #
coedge $-1 $205 $161 $164 $206 forward $101 $-1 #
coedge $-1 $167 $103 $104 $155 reversed $64 $-1 #
coedge $-1 $161 $205 $103 $153 reversed $101 $-1 #
edge $-1 $168 -11.076195225616923 $207 11.076195225616923 $152 $208 forward 7 unknown #
coedge $-1 $105 $104 $205 $209 forward $41 $-1 #
edge $-1 $159 -68.639790032654801 $207 68.639790032654801 $151 $210 forward 7 unknown #
coedge $-1 $164 $163 $105 $157 reversed $148 $-1 #
edge $-1 $211 -68.639790032654801 $158 68.639790032654801 $156 $212 forward 7 unknown #
vertex $-1 $107 $213 #
vertex $-1 $170 $214 #
straight-curve $-1 68.639790032654801 0 -11.076195225616923 0 -1 0 I I #
coedge $-1 $150 $152 $108 $162 reversed $101 $-1 #
edge $-1 $165 -33.139484185814965 $168 33.139484185814965 $161 $215 forward 7 unknown #
coedge $-1 $156 $109 $114 $171 forward $148 $-1 #
coedge $-1 $109 $156 $150 $206 reversed $148 $-1 #
vertex $-1 $110 $216 #
straight-curve $-1 0 33.139484185814965 11.076195225616923 -1 0 0 I I #
coedge $-1 $111 $151 $113 $170 reversed $64 $-1 #
vertex $-1 $162 $217 #
straight-curve $-1 0 -33.139484185814965 11.076195225616923 1 0 0 I I #
edge $-1 $116 -11.076195225616923 $159 11.076195225616923 $113 $218 forward 7 unknown #
edge $-1 $117 -11.076195225616923 $158 11.076195225616923 $114 $219 forward 7 unknown #
point $-1 68.639790032654801 -33.139484185814965 11.076195225616923 #
point $-1 68.639790032654801 33.139484185814965 11.076195225616923 #
plane-surface $-1 0 0 11.076195225616923 0 0 1 1 0 0 forward_v I I I I #
coedge $-1 $185 $184 $177 $220 forward $120 $-1 #
coedge $-1 $177 $122 $124 $181 reversed $72 $-1 #
coedge $-1 $122 $176 $175 $220 reversed $72 $-1 #
coedge $-1 $130 $125 $122 $179 forward $131 $-1 #
edge $-1 $182 -35.065155441316243 $221 -18.782363698008083 $178 $222 forward 7 unknown #
coedge $-1 $124 $123 $185 $223 reversed $45 $-1 #
edge $-1 $224 1.6526814159067847e-014 $182 18.996048738875778 $176 $225 forward 7 unknown #
vertex $-1 $126 $226 #
straight-curve $-1 -5.8868264399768577 -16.856692442506802 11.076195225616923 -1 0 0 I I #
coedge $-1 $175 $127 $130 $189 reversed $120 $-1 #
coedge $-1 $127 $175 $180 $223 forward $120 $-1 #
vertex $-1 $128 $227 #
straight-curve $-1 -1.0045773900133774 -33.139484185814965 59.482036621536999 0 0 1 I I #
straight-curve $-1 -1.0045773900133774 -33.139484185814979 1.2925067221025586 0 -0.85716729658548041 -0.51503808176128008 I I #
edge $-1 $221 -22.542728369894053 $132 -1.0045773900133774 $184 $228 forward 7 unknown #
point $-1 -1.0045773900133774 -33.139484185814965 11.076195225616923 #
point $-1 -1.0045773900133774 -16.856692442506805 11.076195225616923 #
edge $-1 $229 1 $229 0 $135 $-1 forward 7 unknown #
vertex $-1 $136 $230 #
ellipse-curve $-1 -18.235098173917919 -24.249870815824139 4.9391079655873398 0 -0.51503808176128008 0.85716729658548041 1 0 0 1 I I #
point $-1 -17.235098173917919 -24.998088314160892 6.1843509738597495 #
edge $-1 $231 1 $231 0 $139 $-1 forward 7 unknown #
vertex $-1 $140 $232 #
ellipse-curve $-1 -11.773652879953715 -24.249870815824139 4.9391079655873398 0 -0.51503808176128008 0.85716729658548041 1 0 0 1 I I #
point $-1 -10.773652879953715 -24.998088314160892 6.1843509738597495 #
edge $-1 $233 1 $233 0 $143 $-1 forward 7 unknown #
vertex $-1 $144 $234 #
ellipse-curve $-1 -5.3122075859895119 -24.249870815824139 4.9391079655873398 0 -0.51503808176128008 0.85716729658548041 1 0 0 1 I I #
point $-1 -4.3122075859895119 -24.998088314160892 6.1843509738597495 #
plane-surface $-1 68.639790032654801 0 0 -1 0 0 0 0 1 forward_v I I I I #
coedge $-1 $152 $150 $154 $209 reversed $101 $-1 #
edge $-1 $165 -11.076195225616923 $211 11.076195225616923 $164 $235 forward 7 unknown #
vertex $-1 $209 $236 #
straight-curve $-1 -68.639790032654801 -33.139484185814965 0 0 0 -1 I I #
edge $-1 $207 -33.139484185814965 $211 33.139484185814965 $205 $237 forward 7 unknown #
straight-curve $-1 0 -33.139484185814965 -11.076195225616923 -1 0 0 I I #
vertex $-1 $157 $238 #
straight-curve $-1 0 33.139484185814965 -11.076195225616923 1 0 0 I I #
point $-1 68.639790032654801 33.139484185814965 -11.076195225616923 #
point $-1 68.639790032654801 -33.139484185814965 -11.076195225616923 #
straight-curve $-1 -68.639790032654801 0 11.076195225616923 0 -1 0 I I #
point $-1 -68.639790032654801 33.139484185814965 11.076195225616923 #
point $-1 -68.639790032654801 -33.139484185814965 11.076195225616923 #
straight-curve $-1 68.639790032654801 -33.139484185814965 0 0 0 -1 I I #
straight-curve $-1 68.639790032654801 33.139484185814965 0 0 0 -1 I I #
edge $-1 $221 48.405841395920078 $224 58.189529899434433 $175 $239 forward 7 unknown #
vertex $-1 $189 $240 #
straight-curve $-1 -22.542728369894053 -51.921847883823048 11.076195225616921 0 -1 0 I I #
edge $-1 $224 -16.655901929917196 $186 4.8822490499634803 $185 $241 forward 7 unknown #
vertex $-1 $223 $242 #
straight-curve $-1 -22.542728369894053 -33.139484185814979 1.2925067221025586 0 0.85716729658548041 0.51503808176128008 I I #
point $-1 -22.542728369894053 -16.856692442506805 11.076195225616923 #
point $-1 -1.0045773900133774 -33.139484185814965 1.292506722102567 #
straight-curve $-1 0 -33.139484185814965 11.076195225616923 1 0 0 I I #
vertex $-1 $192 $243 #
point $-1 -17.235098173917919 -24.249870815824139 4.9391079655873398 #
vertex $-1 $196 $244 #
point $-1 -10.773652879953715 -24.249870815824139 4.9391079655873398 #
vertex $-1 $200 $245 #
point $-1 -4.3122075859895119 -24.249870815824139 4.9391079655873398 #
straight-curve $-1 -68.639790032654801 33.139484185814965 0 0 0 -1 I I #
point $-1 -68.639790032654801 -33.139484185814965 -11.076195225616923 #
straight-curve $-1 -68.639790032654801 0 -11.076195225616923 0 1 0 I I #
point $-1 -68.639790032654801 33.139484185814965 -11.076195225616923 #
straight-curve $-1 -22.542728369894053 -33.139484185814965 59.482036621536999 0 0 -1 I I #
point $-1 -22.542728369894053 -33.139484185814965 11.076195225616923 #
straight-curve $-1 -5.8868264399768577 -33.139484185814965 1.2925067221025663 1 0 0 I I #
point $-1 -22.542728369894053 -33.139484185814965 1.292506722102567 #
point $-1 -18.235098173917919 -23.734832734062856 4.0819406690018596 #
point $-1 -11.773652879953715 -23.734832734062856 4.0819406690018596 #
point $-1 -5.3122075859895119 -23.734832734062856 4.0819406690018596 #
End-of-ACIS-data 