500 0 10 0           
7 Unknown 11 ACIS 5.0 NT 24 Thu Mar 25 15:21:03 1999 
-1 9.9999999999999995e-007 1e-010 
body $-1 $10 $-1 $11 #
body $-1 $12 $-1 $13 #
body $-1 $14 $-1 $15 #
body $-1 $16 $-1 $17 #
body $-1 $18 $-1 $19 #
body $-1 $20 $-1 $21 #
body $-1 $22 $-1 $23 #
body $-1 $24 $-1 $25 #
body $-1 $26 $-1 $27 #
body $-1 $28 $-1 $29 #
lump $-1 $-1 $30 $0 #
transform $-1 1 0 0 0 1 0 0 0 1 64.394054994354079 31.907355458047189 12.164758386781047 1 rotate no_reflect no_shear #
lump $-1 $-1 $31 $1 #
transform $-1 1 0 0 0 1 0 0 0 1 64.394054994354079 31.907355458047189 12.164758386781047 1 rotate no_reflect no_shear #
lump $-1 $-1 $32 $2 #
transform $-1 1 0 0 0 1 0 0 0 1 64.394054994354079 31.907355458047189 12.164758386781047 1 rotate no_reflect no_shear #
lump $-1 $-1 $33 $3 #
transform $-1 1 0 0 0 1 0 0 0 1 64.394054994354079 31.907355458047189 12.164758386781047 1 rotate no_reflect no_shear #
lump $-1 $-1 $34 $4 #
transform $-1 1 0 0 0 1 0 0 0 1 64.394054994354079 31.907355458047189 12.164758386781047 1 rotate no_reflect no_shear #
lump $-1 $-1 $35 $5 #
transform $-1 1 0 0 0 1 0 0 0 1 64.394054994354079 31.907355458047189 12.164758386781047 1 rotate no_reflect no_shear #
lump $-1 $-1 $36 $6 #
transform $-1 1 0 0 0 1 0 0 0 1 64.394054994354079 31.907355458047189 12.164758386781047 1 rotate no_reflect no_shear #
lump $-1 $-1 $37 $7 #
transform $-1 1 0 0 0 1 0 0 0 1 64.394054994354079 31.907355458047189 12.164758386781047 1 rotate no_reflect no_shear #
lump $-1 $-1 $38 $8 #
transform $-1 1 0 0 0 1 0 0 0 1 64.394054994354079 31.907355458047189 12.164758386781047 1 rotate no_reflect no_shear #
lump $-1 $-1 $39 $9 #
transform $-1 1 0 0 0 1 0 0 0 1 64.394054994354079 31.907355458047189 12.164758386781047 1 rotate no_reflect no_shear #
shell $-1 $-1 $-1 $40 $-1 $10 #
shell $-1 $-1 $-1 $41 $-1 $12 #
shell $-1 $-1 $-1 $42 $-1 $14 #
shell $-1 $-1 $-1 $43 $-1 $16 #
shell $-1 $-1 $-1 $44 $-1 $18 #
shell $-1 $-1 $-1 $45 $-1 $20 #
shell $-1 $-1 $-1 $46 $-1 $22 #
shell $-1 $-1 $-1 $47 $-1 $24 #
shell $-1 $-1 $-1 $48 $-1 $26 #
shell $-1 $-1 $-1 $49 $-1 $28 #
face $-1 $50 $51 $30 $-1 $52 forward single #
face $-1 $53 $54 $31 $-1 $55 forward single #
face $-1 $56 $57 $32 $-1 $58 reversed single #
face $-1 $59 $60 $33 $-1 $61 forward single #
face $-1 $62 $63 $34 $-1 $64 reversed single #
face $-1 $65 $66 $35 $-1 $67 forward single #
face $-1 $68 $69 $36 $-1 $70 reversed single #
face $-1 $71 $72 $37 $-1 $73 forward single #
face $-1 $74 $75 $38 $-1 $76 reversed single #
face $-1 $77 $78 $39 $-1 $79 forward single #
face $-1 $80 $81 $30 $-1 $82 reversed single #
loop $-1 $-1 $83 $40 #
plane-surface $-1 0 0 12.164758386781047 0 0 1 1 0 0 forward_v I I I I #
face $-1 $84 $85 $31 $-1 $86 reversed single #
loop $-1 $-1 $87 $41 #
plane-surface $-1 -64.394054994354079 0 0 1 0 0 0 0 -1 forward_v I I I I #
face $-1 $88 $89 $32 $-1 $90 reversed single #
loop $-1 $-1 $91 $42 #
plane-surface $-1 -23.183538202601369 73.069511746439716 144.77404092381181 1 0 0 0 -0.68199836817093118 -0.7313536940579346 forward_v I I I I #
face $-1 $92 $93 $33 $-1 $94 forward single #
loop $-1 $95 $96 $43 #
cone-surface $-1 -9.2027734587659396 28.41490244336201 8.8021393016902536 0 -0.68199836817093118 -0.7313536940579346 1.5 0 0 1 I I 0 1 1.5 forward I I I I #
face $-1 $97 $98 $34 $-1 $99 reversed single #
loop $-1 $-1 $100 $44 #
plane-surface $-1 -9.2027734587659396 -14.763769105677653 50.584380932830513 0 0.68199836817093118 0.7313536940579346 1 0 0 forward_v I I I I #
face $-1 $101 $102 $35 $-1 $103 forward single #
loop $-1 $104 $105 $45 #
cone-surface $-1 18.758756028904926 28.41490244336201 8.8021393016902536 0 -0.68199836817093118 -0.7313536940579346 1.5 0 0 1 I I 0 1 1.5 forward I I I I #
face $-1 $106 $107 $36 $-1 $108 reversed single #
loop $-1 $-1 $109 $46 #
plane-surface $-1 4.7779912850694899 -119.74063631016455 101.25251221373574 -1 0 0 0 -0.68199836817093118 0.7313536940579346 forward_v I I I I #
face $-1 $110 $111 $37 $-1 $112 forward single #
loop $-1 $113 $114 $47 #
cone-surface $-1 -9.2027734587659396 -28.414902443362013 8.8021393016902536 0 0.68199836817093118 -0.7313536940579346 1.5 0 0 1 I I 0 1 1.5 forward I I I I #
face $-1 $115 $116 $38 $-1 $117 reversed single #
loop $-1 $-1 $118 $48 #
plane-surface $-1 32.739520772740356 -119.74063631016455 101.25251221373574 -1 0 0 0 -0.68199836817093118 0.7313536940579346 forward_v I I I I #
face $-1 $119 $120 $39 $-1 $121 forward single #
loop $-1 $122 $123 $49 #
cone-surface $-1 18.758756028904926 -28.414902443362013 8.8021393016902536 0 0.68199836817093118 -0.7313536940579346 1.5 0 0 1 I I 0 1 1.5 forward I I I I #
face $-1 $124 $125 $30 $-1 $126 reversed single #
loop $-1 $-1 $127 $50 #
plane-surface $-1 0 0 -12.164758386781047 0 0 1 1 0 0 forward_v I I I I #
coedge $-1 $128 $129 $130 $131 forward $51 $-1 #
face $-1 $132 $133 $31 $-1 $134 reversed single #
loop $-1 $-1 $135 $53 #
plane-surface $-1 0 0 -12.164758386781047 0 0 1 1 0 0 forward_v I I I I #
coedge $-1 $136 $137 $138 $139 forward $54 $-1 #
face $-1 $140 $141 $32 $-1 $142 reversed single #
loop $-1 $-1 $143 $56 #
plane-surface $-1 -9.2027734587659396 -14.763769105677653 50.584380932830513 0 0.68199836817093118 0.7313536940579346 1 0 0 forward_v I I I I #
coedge $-1 $144 $145 $146 $147 reversed $57 $-1 #
face $-1 $-1 $148 $33 $-1 $149 forward single #
loop $-1 $150 $151 $59 #
cone-surface $-1 -9.2027734587659396 27.146512857634885 7.4419580280693065 0 -0.68199836817093118 -0.7313536940579346 0.75 0 0 1 I I -0.70710678118654757 0.70710678118654757 0.75 forward I I I I #
loop $-1 $-1 $152 $43 #
coedge $-1 $96 $96 $153 $154 reversed $60 $-1 #
face $-1 $155 $156 $34 $-1 $157 forward single #
loop $-1 $-1 $158 $62 #
plane-surface $-1 32.739520772740356 73.069511746439716 144.77404092381181 -1 0 0 0 0.68199836817093118 0.7313536940579346 forward_v I I I I #
coedge $-1 $159 $160 $161 $162 reversed $63 $-1 #
face $-1 $-1 $163 $35 $-1 $164 forward single #
loop $-1 $165 $166 $65 #
cone-surface $-1 18.758756028904926 27.146512857634885 7.4419580280693065 0 -0.68199836817093118 -0.7313536940579346 0.75 0 0 1 I I -0.70710678118654757 0.70710678118654757 0.75 forward I I I I #
loop $-1 $-1 $167 $45 #
coedge $-1 $105 $105 $168 $169 reversed $66 $-1 #
face $-1 $170 $171 $36 $-1 $172 reversed single #
loop $-1 $-1 $173 $68 #
plane-surface $-1 -9.2027734587659396 -31.907355458047178 7.0628522227544437 0 -0.68199836817093118 0.7313536940579346 1 0 0 forward_v I I I I #
coedge $-1 $174 $175 $176 $177 reversed $69 $-1 #
face $-1 $-1 $178 $37 $-1 $179 forward single #
loop $-1 $180 $181 $71 #
cone-surface $-1 -9.2027734587659396 -27.146512857634889 7.4419580280693065 0 0.68199836817093118 -0.7313536940579346 0.75 0 0 1 I I -0.70710678118654757 0.70710678118654757 0.75 forward I I I I #
loop $-1 $-1 $182 $47 #
coedge $-1 $114 $114 $183 $184 reversed $72 $-1 #
face $-1 $185 $186 $38 $-1 $187 forward single #
loop $-1 $-1 $188 $74 #
plane-surface $-1 -9.2027734587659396 -31.907355458047178 7.0628522227544437 0 -0.68199836817093118 0.7313536940579346 1 0 0 forward_v I I I I #
coedge $-1 $189 $190 $191 $192 reversed $75 $-1 #
face $-1 $-1 $193 $39 $-1 $194 forward single #
loop $-1 $195 $196 $77 #
cone-surface $-1 18.758756028904926 -27.146512857634889 7.4419580280693065 0 0.68199836817093118 -0.7313536940579346 0.75 0 0 1 I I -0.70710678118654757 0.70710678118654757 0.75 forward I I I I #
loop $-1 $-1 $197 $49 #
coedge $-1 $123 $123 $198 $199 reversed $78 $-1 #
face $-1 $200 $201 $30 $-1 $202 reversed single #
loop $-1 $-1 $203 $80 #
plane-surface $-1 0 -31.907355458047189 0 0 1 0 0 0 1 forward_v I I I I #
coedge $-1 $204 $205 $206 $207 forward $81 $-1 #
coedge $-1 $208 $83 $209 $210 forward $51 $-1 #
coedge $-1 $83 $208 $211 $212 forward $51 $-1 #
coedge $-1 $213 $214 $83 $131 reversed $215 $-1 #
edge $-1 $216 -31.907355458047189 $217 31.907355458047189 $130 $218 forward 7 unknown #
face $-1 $219 $220 $31 $-1 $221 reversed single #
loop $-1 $-1 $222 $84 #
plane-surface $-1 -69.172046279423569 -11.741559232936408 0 0 1 0 0 0 1 forward_v I I I I #
coedge $-1 $223 $224 $137 $225 forward $85 $-1 #
coedge $-1 $226 $87 $227 $228 reversed $54 $-1 #
coedge $-1 $87 $226 $135 $225 reversed $54 $-1 #
coedge $-1 $229 $230 $87 $139 reversed $231 $-1 #
edge $-1 $232 -12.164758386781047 $233 12.164758386781047 $138 $234 forward 7 unknown #
face $-1 $235 $236 $32 $-1 $237 forward single #
loop $-1 $-1 $238 $88 #
plane-surface $-1 4.7779912850694899 73.069511746439716 144.77404092381181 -1 0 0 0 0.68199836817093118 0.7313536940579346 forward_v I I I I #
coedge $-1 $239 $240 $241 $242 reversed $89 $-1 #
coedge $-1 $145 $91 $243 $244 reversed $57 $-1 #
coedge $-1 $91 $144 $239 $245 reversed $57 $-1 #
coedge $-1 $241 $246 $91 $147 forward $236 $-1 #
edge $-1 $247 4.6274004151726693 $248 10.098524825345201 $146 $249 forward 7 unknown #
loop $-1 $-1 $153 $92 #
plane-surface $-1 -9.2027734587659396 -14.763769105677653 50.584380932830513 0 0.68199836817093118 0.7313536940579346 1 0 0 forward_v I I I I #
loop $-1 $-1 $250 $59 #
coedge $-1 $151 $151 $152 $251 reversed $93 $-1 #
coedge $-1 $152 $152 $151 $251 forward $95 $-1 #
coedge $-1 $153 $153 $96 $154 forward $148 $-1 #
edge $-1 $252 -2.0722542487196611e-015 $252 6.2831853071795987 $153 $253 forward 7 unknown #
face $-1 $254 $255 $34 $-1 $256 forward single #
loop $-1 $-1 $257 $97 #
plane-surface $-1 0 0 12.164758386781047 0 0 1 1 0 0 forward_v I I I I #
coedge $-1 $258 $259 $260 $261 reversed $98 $-1 #
coedge $-1 $262 $100 $263 $264 reversed $63 $-1 #
coedge $-1 $100 $262 $257 $265 reversed $63 $-1 #
coedge $-1 $266 $267 $100 $162 forward $255 $-1 #
edge $-1 $268 -63.814710916094398 $269 -56.333892189636806 $161 $270 forward 7 unknown #
loop $-1 $-1 $168 $101 #
plane-surface $-1 -9.2027734587659396 -14.763769105677653 50.584380932830513 0 0.68199836817093118 0.7313536940579346 1 0 0 forward_v I I I I #
loop $-1 $-1 $271 $65 #
coedge $-1 $166 $166 $167 $272 reversed $102 $-1 #
coedge $-1 $167 $167 $166 $272 forward $104 $-1 #
coedge $-1 $168 $168 $105 $169 forward $163 $-1 #
edge $-1 $273 -2.0722542487196611e-015 $273 6.2831853071795987 $168 $274 forward 7 unknown #
face $-1 $275 $276 $36 $-1 $277 forward single #
loop $-1 $-1 $278 $106 #
plane-surface $-1 -23.183538202601369 -119.74063631016455 101.25251221373574 1 0 0 0 0.68199836817093118 -0.7313536940579346 forward_v I I I I #
coedge $-1 $279 $280 $281 $282 reversed $107 $-1 #
coedge $-1 $175 $109 $283 $284 reversed $69 $-1 #
coedge $-1 $109 $174 $279 $285 reversed $69 $-1 #
coedge $-1 $281 $286 $109 $177 forward $276 $-1 #
edge $-1 $287 27.962962697035085 $288 33.43408710720761 $176 $289 forward 7 unknown #
loop $-1 $-1 $183 $110 #
plane-surface $-1 -9.2027734587659396 -31.907355458047178 7.0628522227544437 0 -0.68199836817093118 0.7313536940579346 1 0 0 forward_v I I I I #
loop $-1 $-1 $290 $71 #
coedge $-1 $181 $181 $182 $291 reversed $111 $-1 #
coedge $-1 $182 $182 $181 $291 forward $113 $-1 #
coedge $-1 $183 $183 $114 $184 forward $178 $-1 #
edge $-1 $292 -3.5069068280082758e-016 $292 6.2831853071796004 $183 $293 forward 7 unknown #
face $-1 $294 $295 $38 $-1 $296 forward single #
loop $-1 $-1 $297 $115 #
plane-surface $-1 0 0 12.164758386781047 0 0 1 1 0 0 forward_v I I I I #
coedge $-1 $298 $299 $300 $301 reversed $116 $-1 #
coedge $-1 $190 $118 $302 $303 reversed $75 $-1 #
coedge $-1 $118 $189 $297 $304 reversed $75 $-1 #
coedge $-1 $305 $306 $118 $192 forward $307 $-1 #
edge $-1 $308 -43.563403884113434 $309 -38.461497720086825 $191 $310 forward 7 unknown #
loop $-1 $-1 $198 $119 #
plane-surface $-1 -9.2027734587659396 -31.907355458047178 7.0628522227544437 0 -0.68199836817093118 0.7313536940579346 1 0 0 forward_v I I I I #
loop $-1 $-1 $311 $77 #
coedge $-1 $196 $196 $197 $312 reversed $120 $-1 #
coedge $-1 $197 $197 $196 $312 forward $122 $-1 #
coedge $-1 $198 $198 $123 $199 forward $193 $-1 #
edge $-1 $313 -3.5069068280082758e-016 $313 6.2831853071796004 $198 $314 forward 7 unknown #
face $-1 $315 $316 $30 $-1 $317 reversed single #
loop $-1 $-1 $318 $124 #
plane-surface $-1 -64.394054994354079 0 0 1 0 0 0 0 -1 forward_v I I I I #
coedge $-1 $319 $211 $320 $321 forward $125 $-1 #
coedge $-1 $322 $127 $319 $323 forward $81 $-1 #
coedge $-1 $127 $322 $324 $325 forward $81 $-1 #
coedge $-1 $214 $213 $127 $207 reversed $215 $-1 #
edge $-1 $326 -31.907355458047189 $327 31.907355458047189 $206 $328 forward 7 unknown #
coedge $-1 $129 $128 $329 $330 forward $51 $-1 #
coedge $-1 $331 $332 $128 $210 reversed $316 $-1 #
edge $-1 $217 -64.394054994354079 $333 64.394054994354079 $209 $334 forward 7 unknown #
coedge $-1 $203 $335 $129 $212 reversed $125 $-1 #
edge $-1 $336 -64.394054994354079 $216 64.394054994354079 $211 $337 forward 7 unknown #
coedge $-1 $206 $130 $335 $338 forward $215 $-1 #
coedge $-1 $130 $206 $331 $339 reversed $215 $-1 #
loop $-1 $-1 $213 $315 #
vertex $-1 $131 $340 #
vertex $-1 $131 $341 #
straight-curve $-1 64.394054994354079 0 12.164758386781047 0 1 0 I I #
face $-1 $342 $231 $31 $-1 $343 reversed single #
loop $-1 $-1 $344 $132 #
plane-surface $-1 -73.950037564493059 -9.6596989587107522 0 1 0 0 0 0 -1 forward_v I I I I #
coedge $-1 $345 $346 $347 $348 forward $133 $-1 #
coedge $-1 $349 $135 $345 $350 forward $85 $-1 #
coedge $-1 $135 $349 $229 $351 forward $85 $-1 #
edge $-1 $232 7.577838684485096 $352 11.741559232936408 $135 $353 forward 7 unknown #
coedge $-1 $137 $136 $354 $355 forward $54 $-1 #
coedge $-1 $356 $357 $136 $228 forward $358 $-1 #
edge $-1 $359 -11.741559232936408 $233 -7.577838684485096 $227 $360 forward 7 unknown #
coedge $-1 $361 $138 $224 $351 reversed $231 $-1 #
coedge $-1 $138 $361 $356 $362 reversed $231 $-1 #
loop $-1 $-1 $138 $219 #
vertex $-1 $225 $363 #
vertex $-1 $362 $364 #
straight-curve $-1 -64.394054994354079 -7.577838684485096 0 0 0 1 I I #
face $-1 $-1 $365 $32 $-1 $366 reversed single #
loop $-1 $-1 $146 $140 #
plane-surface $-1 0 0 12.164758386781047 0 0 1 1 0 0 forward_v I I I I #
coedge $-1 $367 $368 $369 $370 reversed $141 $-1 #
coedge $-1 $371 $143 $145 $245 forward $89 $-1 #
coedge $-1 $143 $371 $367 $372 forward $89 $-1 #
coedge $-1 $369 $146 $143 $242 forward $236 $-1 #
edge $-1 $248 -18.582151473218399 $373 9.3793780144524597 $241 $374 forward 7 unknown #
coedge $-1 $375 $376 $144 $244 forward $365 $-1 #
edge $-1 $377 -65.324168239151476 $247 -60.22226207512486 $243 $378 forward 7 unknown #
edge $-1 $248 56.333892189636806 $377 63.814710916094398 $145 $379 forward 7 unknown #
coedge $-1 $146 $369 $375 $380 forward $236 $-1 #
vertex $-1 $244 $381 #
vertex $-1 $147 $382 #
straight-curve $-1 -23.183538202601369 36.534755873219858 12.164758386781045 0 -1 0 I I #
coedge $-1 $250 $250 $-1 $383 reversed $150 $-1 #
edge $-1 $384 0 $384 6.2831853071796004 $151 $385 forward 7 unknown #
vertex $-1 $154 $386 #
ellipse-curve $-1 -9.2027734587659396 29.171793252960921 9.6138053047677339 0 0.68199836817093118 0.7313536940579346 1.5 0 0 1 I I #
face $-1 $-1 $387 $34 $-1 $388 reversed single #
loop $-1 $-1 $266 $155 #
plane-surface $-1 4.7779912850694899 73.069511746439716 144.77404092381181 -1 0 0 0 0.68199836817093118 0.7313536940579346 forward_v I I I I #
coedge $-1 $260 $389 $160 $265 forward $156 $-1 #
coedge $-1 $259 $158 $262 $390 reversed $98 $-1 #
coedge $-1 $158 $258 $391 $392 reversed $98 $-1 #
coedge $-1 $393 $257 $158 $261 forward $156 $-1 #
edge $-1 $394 -10.098524825345201 $395 -4.6274004151726693 $260 $396 forward 7 unknown #
coedge $-1 $160 $159 $258 $390 forward $63 $-1 #
coedge $-1 $397 $391 $159 $264 forward $387 $-1 #
edge $-1 $398 -37.340907502123329 $268 -9.3793780144524597 $263 $399 forward 7 unknown #
edge $-1 $269 9.3793780144524597 $394 37.340907502123329 $257 $400 forward 7 unknown #
coedge $-1 $267 $161 $389 $401 reversed $255 $-1 #
coedge $-1 $161 $266 $397 $402 reversed $255 $-1 #
vertex $-1 $264 $403 #
vertex $-1 $265 $404 #
straight-curve $-1 4.7779912850694899 -14.763769105677653 50.584380932830513 0 -0.7313536940579346 0.68199836817093118 I I #
coedge $-1 $271 $271 $-1 $405 reversed $165 $-1 #
edge $-1 $406 0 $406 6.2831853071796004 $166 $407 forward 7 unknown #
vertex $-1 $169 $408 #
ellipse-curve $-1 18.758756028904926 29.171793252960921 9.6138053047677339 0 0.68199836817093118 0.7313536940579346 1.5 0 0 1 I I #
face $-1 $-1 $409 $36 $-1 $410 reversed single #
loop $-1 $-1 $176 $170 #
plane-surface $-1 0 0 12.164758386781047 0 0 1 1 0 0 forward_v I I I I #
coedge $-1 $411 $412 $413 $414 reversed $171 $-1 #
coedge $-1 $415 $173 $175 $285 forward $107 $-1 #
coedge $-1 $173 $415 $411 $416 forward $107 $-1 #
coedge $-1 $413 $176 $173 $282 forward $276 $-1 #
edge $-1 $288 -9.3793780144524597 $417 18.582151473218399 $281 $418 forward 7 unknown #
coedge $-1 $419 $420 $174 $284 forward $409 $-1 #
edge $-1 $421 -43.563403884113434 $287 -38.461497720086825 $283 $422 forward 7 unknown #
edge $-1 $288 -7.4808187264575654 $421 1.4457969380444042e-014 $175 $423 forward 7 unknown #
coedge $-1 $176 $413 $419 $424 forward $276 $-1 #
vertex $-1 $177 $425 #
vertex $-1 $177 $426 #
straight-curve $-1 4.7779912850694899 -59.870318155082273 12.164758386781045 0 1 0 I I #
coedge $-1 $290 $290 $-1 $427 reversed $180 $-1 #
edge $-1 $428 0 $428 6.2831853071796004 $181 $429 forward 7 unknown #
vertex $-1 $184 $430 #
ellipse-curve $-1 -9.2027734587659396 -29.171793252960928 9.6138053047677392 0 -0.68199836817093118 0.7313536940579346 1.5 0 0 1 I I #
face $-1 $-1 $307 $38 $-1 $431 reversed single #
loop $-1 $-1 $432 $185 #
plane-surface $-1 4.7779912850694899 -119.74063631016455 101.25251221373574 -1 0 0 0 -0.68199836817093118 0.7313536940579346 forward_v I I I I #
coedge $-1 $433 $434 $190 $304 forward $186 $-1 #
coedge $-1 $302 $188 $433 $435 reversed $116 $-1 #
coedge $-1 $188 $302 $306 $436 reversed $116 $-1 #
coedge $-1 $437 $432 $188 $301 forward $295 $-1 #
edge $-1 $438 -7.4808187264575654 $439 1.4457969380444042e-014 $300 $440 forward 7 unknown #
coedge $-1 $299 $298 $189 $303 forward $116 $-1 #
edge $-1 $441 -7.4808187264575654 $308 1.4457969380444042e-014 $189 $442 forward 7 unknown #
edge $-1 $309 27.962962697035085 $441 33.43408710720761 $297 $443 forward 7 unknown #
coedge $-1 $444 $191 $434 $445 reversed $307 $-1 #
coedge $-1 $191 $444 $299 $436 forward $307 $-1 #
loop $-1 $-1 $191 $294 #
vertex $-1 $192 $446 #
vertex $-1 $304 $447 #
straight-curve $-1 32.739520772740356 -31.907355458047192 50.626256106867871 0 0 1 I I #
coedge $-1 $311 $311 $-1 $448 reversed $195 $-1 #
edge $-1 $449 0 $449 6.2831853071796004 $196 $450 forward 7 unknown #
vertex $-1 $199 $451 #
ellipse-curve $-1 18.758756028904926 -29.171793252960928 9.6138053047677392 0 -0.68199836817093118 0.7313536940579346 1.5 0 0 1 I I #
face $-1 $-1 $215 $30 $-1 $452 reversed single #
loop $-1 $-1 $331 $200 #
plane-surface $-1 0 31.907355458047189 0 0 -1 0 0 0 -1 forward_v I I I I #
coedge $-1 $453 $329 $332 $454 forward $201 $-1 #
coedge $-1 $335 $203 $204 $323 reversed $125 $-1 #
coedge $-1 $329 $453 $203 $321 reversed $201 $-1 #
edge $-1 $336 -12.164758386781047 $455 12.164758386781047 $320 $456 forward 7 unknown #
coedge $-1 $205 $204 $453 $457 forward $81 $-1 #
edge $-1 $327 -64.394054994354079 $455 64.394054994354079 $319 $458 forward 7 unknown #
coedge $-1 $332 $331 $205 $325 reversed $316 $-1 #
edge $-1 $459 -64.394054994354079 $326 64.394054994354079 $324 $460 forward 7 unknown #
vertex $-1 $207 $461 #
vertex $-1 $338 $462 #
straight-curve $-1 64.394054994354079 0 -12.164758386781047 0 -1 0 I I #
coedge $-1 $318 $320 $208 $330 reversed $201 $-1 #
edge $-1 $333 -31.907355458047189 $336 31.907355458047189 $329 $463 forward 7 unknown #
coedge $-1 $324 $209 $214 $339 forward $316 $-1 #
coedge $-1 $209 $324 $318 $454 reversed $316 $-1 #
vertex $-1 $210 $464 #
straight-curve $-1 0 31.907355458047189 12.164758386781047 -1 0 0 I I #
coedge $-1 $211 $319 $213 $338 reversed $125 $-1 #
vertex $-1 $330 $465 #
straight-curve $-1 0 -31.907355458047189 12.164758386781047 1 0 0 I I #
edge $-1 $216 -12.164758386781047 $327 12.164758386781047 $213 $466 forward 7 unknown #
edge $-1 $217 -12.164758386781047 $326 12.164758386781047 $214 $467 forward 7 unknown #
point $-1 64.394054994354079 -31.907355458047189 12.164758386781047 #
point $-1 64.394054994354079 31.907355458047189 12.164758386781047 #
face $-1 $-1 $358 $31 $-1 $468 forward single #
plane-surface $-1 -69.172046279423569 -7.577838684485096 0 0 -1 0 0 0 -1 forward_v I I I I #
coedge $-1 $469 $470 $361 $471 forward $220 $-1 #
coedge $-1 $354 $222 $223 $350 reversed $133 $-1 #
coedge $-1 $222 $354 $357 $472 reversed $133 $-1 #
coedge $-1 $470 $469 $222 $348 reversed $220 $-1 #
edge $-1 $473 -12.164758386781047 $474 12.164758386781047 $347 $475 forward 7 unknown #
coedge $-1 $224 $223 $469 $476 forward $85 $-1 #
edge $-1 $352 -4.7779912850694899 $474 4.7779912850694899 $345 $477 forward 7 unknown #
edge $-1 $478 -4.7779912850694899 $232 4.7779912850694899 $229 $479 forward 7 unknown #
vertex $-1 $350 $480 #
straight-curve $-1 -64.394054994354079 0 -12.164758386781047 0 -1 0 I I #
coedge $-1 $346 $345 $226 $355 reversed $133 $-1 #
edge $-1 $359 -12.164758386781047 $352 12.164758386781047 $354 $481 forward 7 unknown #
coedge $-1 $482 $227 $230 $362 forward $358 $-1 #
coedge $-1 $227 $482 $346 $472 forward $358 $-1 #
loop $-1 $-1 $227 $342 #
vertex $-1 $228 $483 #
straight-curve $-1 -64.394054994354079 0 12.164758386781047 0 1 0 I I #
coedge $-1 $230 $229 $344 $471 reversed $231 $-1 #
edge $-1 $233 -4.7779912850694899 $484 4.7779912850694899 $230 $485 forward 7 unknown #
point $-1 -64.394054994354079 -7.577838684485096 -12.164758386781047 #
point $-1 -64.394054994354079 -7.577838684485096 12.164758386781047 #
loop $-1 $-1 $243 $235 #
plane-surface $-1 0 31.907355458047189 0 0 -1 0 0 0 -1 forward_v I I I I #
coedge $-1 $368 $238 $240 $372 reversed $141 $-1 #
coedge $-1 $238 $367 $486 $487 reversed $141 $-1 #
coedge $-1 $246 $241 $238 $370 forward $236 $-1 #
edge $-1 $373 -10.098524825345201 $488 -4.6274004151726693 $369 $489 forward 7 unknown #
coedge $-1 $240 $239 $376 $490 reversed $89 $-1 #
edge $-1 $491 -63.814710916094398 $373 -56.333892189636806 $367 $492 forward 7 unknown #
vertex $-1 $242 $493 #
straight-curve $-1 -4.6013867293829698 26.43623104787466 12.164758386781045 1 0 0 I I #
coedge $-1 $486 $243 $246 $380 reversed $365 $-1 #
coedge $-1 $243 $486 $371 $490 forward $365 $-1 #
vertex $-1 $244 $494 #
straight-curve $-1 -23.183538202601369 31.907355458047189 72.387020461905905 0 0 1 I I #
straight-curve $-1 -23.183538202601369 -14.763769105677653 50.584380932830513 0 0.7313536940579346 -0.68199836817093118 I I #
edge $-1 $488 -4.7779912850694899 $247 23.183538202601369 $375 $495 forward 7 unknown #
point $-1 -23.183538202601369 31.907355458047189 12.164758386781047 #
point $-1 -23.183538202601369 26.436231047874656 12.164758386781045 #
edge $-1 $496 1 $496 0 $250 $-1 forward 7 unknown #
vertex $-1 $251 $497 #
ellipse-curve $-1 -9.2027734587659396 27.658011633763085 7.9904732986127573 0 0.68199836817093118 0.7313536940579346 1.5 0 0 1 I I #
point $-1 -7.7027734587659396 29.171793252960931 9.6138053047677499 #
loop $-1 $-1 $263 $254 #
plane-surface $-1 0 31.907355458047189 0 0 -1 0 0 0 -1 forward_v I I I I #
coedge $-1 $257 $393 $266 $401 forward $156 $-1 #
edge $-1 $398 -63.814710916094398 $394 -56.333892189636806 $258 $498 forward 7 unknown #
coedge $-1 $263 $499 $259 $392 forward $387 $-1 #
edge $-1 $395 60.22226207512486 $398 65.324168239151476 $391 $500 forward 7 unknown #
coedge $-1 $389 $260 $499 $501 forward $156 $-1 #
vertex $-1 $261 $502 #
vertex $-1 $501 $503 #
straight-curve $-1 32.739520772740356 36.534755873219858 12.164758386781045 0 1 0 I I #
coedge $-1 $499 $263 $267 $402 forward $387 $-1 #
vertex $-1 $392 $504 #
straight-curve $-1 -4.6013867293829698 31.907355458047189 7.0628522227544259 -1 0 0 I I #
straight-curve $-1 -4.6013867293829698 26.43623104787466 12.164758386781045 1 0 0 I I #
edge $-1 $505 4.6274004151726693 $269 10.098524825345201 $389 $506 forward 7 unknown #
edge $-1 $268 -65.324168239151476 $505 -60.22226207512486 $397 $507 forward 7 unknown #
point $-1 4.7779912850694899 31.907355458047192 7.0628522227544224 #
point $-1 4.7779912850694899 26.436231047874656 12.164758386781045 #
edge $-1 $508 1 $508 0 $271 $-1 forward 7 unknown #
vertex $-1 $272 $509 #
ellipse-curve $-1 18.758756028904926 27.658011633763085 7.9904732986127573 0 0.68199836817093118 0.7313536940579346 1.5 0 0 1 I I #
point $-1 20.258756028904926 29.171793252960931 9.6138053047677499 #
loop $-1 $-1 $283 $275 #
plane-surface $-1 0 -31.907355458047189 0 0 1 0 0 0 1 forward_v I I I I #
coedge $-1 $412 $278 $280 $416 reversed $171 $-1 #
coedge $-1 $278 $411 $510 $511 reversed $171 $-1 #
coedge $-1 $286 $281 $278 $414 forward $276 $-1 #
edge $-1 $417 -33.43408710720761 $512 -27.962962697035085 $413 $513 forward 7 unknown #
coedge $-1 $280 $279 $420 $514 reversed $107 $-1 #
edge $-1 $515 -1.4457969380444042e-014 $417 7.4808187264575654 $411 $516 forward 7 unknown #
vertex $-1 $282 $517 #
straight-curve $-1 -4.6013867293829698 -26.436231047874664 12.164758386781047 -1 0 0 I I #
coedge $-1 $510 $283 $286 $424 reversed $409 $-1 #
coedge $-1 $283 $510 $415 $514 forward $409 $-1 #
vertex $-1 $284 $518 #
straight-curve $-1 4.7779912850694899 -31.907355458047192 50.626256106867871 0 0 1 I I #
straight-curve $-1 4.7779912850694899 -31.907355458047178 7.0628522227544437 0 -0.7313536940579346 -0.68199836817093118 I I #
edge $-1 $512 -23.183538202601369 $287 4.7779912850694899 $419 $519 forward 7 unknown #
point $-1 4.7779912850694899 -31.907355458047189 12.164758386781047 #
point $-1 4.7779912850694899 -26.436231047874664 12.164758386781047 #
edge $-1 $520 1 $520 0 $290 $-1 forward 7 unknown #
vertex $-1 $291 $521 #
ellipse-curve $-1 -9.2027734587659396 -27.658011633763088 7.9904732986127573 0 -0.68199836817093118 0.7313536940579346 1.5 0 0 1 I I #
point $-1 -7.7027734587659396 -29.171793252960939 9.6138053047677499 #
plane-surface $-1 0 -31.907355458047189 0 0 1 0 0 0 1 forward_v I I I I #
coedge $-1 $300 $437 $522 $523 reversed $295 $-1 #
coedge $-1 $522 $297 $298 $435 forward $186 $-1 #
coedge $-1 $297 $522 $305 $445 forward $186 $-1 #
edge $-1 $441 -37.340907502123329 $438 -9.3793780144524597 $433 $524 forward 7 unknown #
edge $-1 $439 9.3793780144524597 $308 37.340907502123329 $306 $525 forward 7 unknown #
coedge $-1 $432 $300 $444 $526 reversed $295 $-1 #
vertex $-1 $435 $527 #
vertex $-1 $436 $528 #
straight-curve $-1 4.7779912850694899 -31.907355458047178 7.0628522227544437 0 -0.7313536940579346 -0.68199836817093118 I I #
vertex $-1 $304 $529 #
straight-curve $-1 32.739520772740356 -31.907355458047178 7.0628522227544437 0 -0.7313536940579346 -0.68199836817093118 I I #
straight-curve $-1 32.739520772740356 -59.870318155082273 12.164758386781045 0 1 0 I I #
coedge $-1 $306 $305 $437 $526 forward $307 $-1 #
edge $-1 $530 4.7779912850694899 $309 32.739520772740356 $305 $531 forward 7 unknown #
point $-1 32.739520772740356 -31.907355458047189 7.0628522227544339 #
point $-1 32.739520772740356 -31.907355458047189 12.164758386781047 #
edge $-1 $532 1 $532 0 $311 $-1 forward 7 unknown #
vertex $-1 $312 $533 #
ellipse-curve $-1 18.758756028904926 -27.658011633763088 7.9904732986127573 0 -0.68199836817093118 0.7313536940579346 1.5 0 0 1 I I #
point $-1 20.258756028904926 -29.171793252960939 9.6138053047677499 #
plane-surface $-1 64.394054994354079 0 0 -1 0 0 0 0 1 forward_v I I I I #
coedge $-1 $320 $318 $322 $457 reversed $201 $-1 #
edge $-1 $333 -12.164758386781047 $459 12.164758386781047 $332 $534 forward 7 unknown #
vertex $-1 $457 $535 #
straight-curve $-1 -64.394054994354079 -31.907355458047189 0 0 0 -1 I I #
edge $-1 $455 -31.907355458047189 $459 31.907355458047189 $453 $536 forward 7 unknown #
straight-curve $-1 0 -31.907355458047189 -12.164758386781047 -1 0 0 I I #
vertex $-1 $325 $537 #
straight-curve $-1 0 31.907355458047189 -12.164758386781047 1 0 0 I I #
point $-1 64.394054994354079 31.907355458047189 -12.164758386781047 #
point $-1 64.394054994354079 -31.907355458047189 -12.164758386781047 #
straight-curve $-1 -64.394054994354079 0 12.164758386781047 0 -1 0 I I #
point $-1 -64.394054994354079 31.907355458047189 12.164758386781047 #
point $-1 -64.394054994354079 -31.907355458047189 12.164758386781047 #
straight-curve $-1 64.394054994354079 -31.907355458047189 0 0 0 -1 I I #
straight-curve $-1 64.394054994354079 31.907355458047189 0 0 0 -1 I I #
plane-surface $-1 0 0 12.164758386781047 0 0 1 1 0 0 forward_v I I I I #
coedge $-1 $347 $344 $349 $476 reversed $220 $-1 #
coedge $-1 $344 $347 $482 $538 reversed $220 $-1 #
edge $-1 $484 -12.164758386781047 $478 12.164758386781047 $361 $539 forward 7 unknown #
edge $-1 $473 -4.7779912850694899 $359 4.7779912850694899 $346 $540 forward 7 unknown #
vertex $-1 $538 $541 #
vertex $-1 $476 $542 #
straight-curve $-1 -73.950037564493059 -11.741559232936408 0 0 0 -1 I I #
edge $-1 $474 -2.0818602742256562 $478 2.0818602742256562 $469 $543 forward 7 unknown #
straight-curve $-1 -69.172046279423569 -11.741559232936408 -12.164758386781047 -1 0 0 I I #
vertex $-1 $351 $544 #
straight-curve $-1 -69.172046279423569 -7.577838684485096 -12.164758386781047 1 0 0 I I #
point $-1 -64.394054994354079 -11.741559232936408 -12.164758386781047 #
straight-curve $-1 -64.394054994354079 -11.741559232936408 0 0 0 -1 I I #
coedge $-1 $357 $356 $470 $538 forward $358 $-1 #
point $-1 -64.394054994354079 -11.741559232936408 12.164758386781047 #
vertex $-1 $362 $545 #
straight-curve $-1 -69.172046279423569 -7.577838684485096 12.164758386781047 -1 0 0 I I #
coedge $-1 $376 $375 $368 $487 forward $365 $-1 #
edge $-1 $488 60.22226207512486 $491 65.324168239151476 $486 $546 forward 7 unknown #
vertex $-1 $380 $547 #
straight-curve $-1 4.7779912850694899 36.534755873219858 12.164758386781045 0 1 0 I I #
edge $-1 $491 -9.3793780144524597 $377 18.582151473218399 $376 $548 forward 7 unknown #
vertex $-1 $490 $549 #
straight-curve $-1 4.7779912850694899 -14.763769105677653 50.584380932830513 0 -0.7313536940579346 0.68199836817093118 I I #
point $-1 4.7779912850694899 26.436231047874656 12.164758386781045 #
point $-1 -23.183538202601369 31.907355458047192 7.0628522227544224 #
straight-curve $-1 0 31.907355458047189 12.164758386781047 -1 0 0 I I #
vertex $-1 $383 $550 #
point $-1 -7.7027734587659396 27.658011633763085 7.9904732986127573 #
straight-curve $-1 32.739520772740356 -14.763769105677653 50.584380932830513 0 -0.7313536940579346 0.68199836817093118 I I #
coedge $-1 $391 $397 $393 $501 reversed $387 $-1 #
straight-curve $-1 32.739520772740356 31.907355458047189 72.387020461905905 0 0 -1 I I #
edge $-1 $395 -32.739520772740356 $505 -4.7779912850694899 $499 $551 forward 7 unknown #
point $-1 32.739520772740356 26.436231047874656 12.164758386781045 #
point $-1 32.739520772740356 31.907355458047189 12.164758386781047 #
point $-1 32.739520772740356 31.907355458047192 7.0628522227544224 #
vertex $-1 $402 $552 #
straight-curve $-1 4.7779912850694899 36.534755873219858 12.164758386781045 0 -1 0 I I #
straight-curve $-1 4.7779912850694899 31.907355458047189 72.387020461905905 0 0 1 I I #
vertex $-1 $405 $553 #
point $-1 20.258756028904926 27.658011633763085 7.9904732986127573 #
coedge $-1 $420 $419 $412 $511 forward $409 $-1 #
edge $-1 $512 38.461497720086825 $515 43.563403884113434 $510 $554 forward 7 unknown #
vertex $-1 $424 $555 #
straight-curve $-1 -23.183538202601369 -59.870318155082273 12.164758386781045 0 -1 0 I I #
edge $-1 $515 -18.582151473218399 $421 9.3793780144524597 $420 $556 forward 7 unknown #
vertex $-1 $514 $557 #
straight-curve $-1 -23.183538202601369 -31.907355458047178 7.0628522227544437 0 0.7313536940579346 0.68199836817093118 I I #
point $-1 -23.183538202601369 -26.436231047874664 12.164758386781047 #
point $-1 4.7779912850694899 -31.907355458047189 7.0628522227544339 #
straight-curve $-1 0 -31.907355458047189 12.164758386781047 1 0 0 I I #
vertex $-1 $427 $558 #
point $-1 -7.7027734587659396 -27.658011633763088 7.9904732986127573 #
coedge $-1 $434 $433 $432 $523 forward $186 $-1 #
edge $-1 $438 -33.43408710720761 $530 -27.962962697035085 $522 $559 forward 7 unknown #
straight-curve $-1 -4.6013867293829698 -26.436231047874664 12.164758386781047 -1 0 0 I I #
straight-curve $-1 -4.6013867293829698 -31.907355458047189 7.0628522227544384 1 0 0 I I #
edge $-1 $530 38.461497720086825 $439 43.563403884113434 $444 $560 forward 7 unknown #
point $-1 4.7779912850694899 -26.436231047874664 12.164758386781047 #
point $-1 4.7779912850694899 -31.907355458047189 7.0628522227544339 #
point $-1 32.739520772740356 -26.436231047874664 12.164758386781047 #
vertex $-1 $445 $561 #
straight-curve $-1 0 -31.907355458047189 12.164758386781047 1 0 0 I I #
vertex $-1 $448 $562 #
point $-1 20.258756028904926 -27.658011633763088 7.9904732986127573 #
straight-curve $-1 -64.394054994354079 31.907355458047189 0 0 0 -1 I I #
point $-1 -64.394054994354079 -31.907355458047189 -12.164758386781047 #
straight-curve $-1 -64.394054994354079 0 -12.164758386781047 0 1 0 I I #
point $-1 -64.394054994354079 31.907355458047189 -12.164758386781047 #
edge $-1 $484 -2.0818602742256562 $473 2.0818602742256562 $470 $563 forward 7 unknown #
straight-curve $-1 -73.950037564493059 -7.577838684485096 0 0 0 -1 I I #
straight-curve $-1 -69.172046279423569 -11.741559232936408 12.164758386781047 1 0 0 I I #
point $-1 -73.950037564493059 -11.741559232936408 12.164758386781047 #
point $-1 -73.950037564493059 -11.741559232936408 -12.164758386781047 #
straight-curve $-1 -73.950037564493059 -9.6596989587107522 -12.164758386781047 0 1 0 I I #
point $-1 -73.950037564493059 -7.577838684485096 -12.164758386781047 #
point $-1 -73.950037564493059 -7.577838684485096 12.164758386781047 #
straight-curve $-1 4.7779912850694899 31.907355458047189 72.387020461905905 0 0 -1 I I #
point $-1 4.7779912850694899 31.907355458047189 12.164758386781047 #
straight-curve $-1 -4.6013867293829698 31.907355458047189 7.0628522227544259 -1 0 0 I I #
point $-1 4.7779912850694899 31.907355458047192 7.0628522227544224 #
point $-1 -9.2027734587659396 26.635014081506686 6.8934427575258557 #
straight-curve $-1 0 31.907355458047189 12.164758386781047 -1 0 0 I I #
point $-1 4.7779912850694899 31.907355458047189 12.164758386781047 #
point $-1 18.758756028904926 26.635014081506686 6.8934427575258557 #
straight-curve $-1 -23.183538202601369 -31.907355458047192 50.626256106867871 0 0 -1 I I #
point $-1 -23.183538202601369 -31.907355458047189 12.164758386781047 #
straight-curve $-1 -4.6013867293829698 -31.907355458047189 7.0628522227544384 1 0 0 I I #
point $-1 -23.183538202601369 -31.907355458047189 7.0628522227544339 #
point $-1 -9.2027734587659396 -26.635014081506689 6.8934427575258557 #
straight-curve $-1 4.7779912850694899 -59.870318155082273 12.164758386781045 0 -1 0 I I #
straight-curve $-1 4.7779912850694899 -31.907355458047192 50.626256106867871 0 0 -1 I I #
point $-1 4.7779912850694899 -31.907355458047189 12.164758386781047 #
point $-1 18.758756028904926 -26.635014081506689 6.8934427575258557 #
straight-curve $-1 -73.950037564493059 -9.6596989587107522 12.164758386781047 0 -1 0 I I #
End-of-ACIS-data 