500 0 9 0           
7 Unknown 11 ACIS 5.0 NT 24 Thu Mar 25 17:32:13 1999 
-1 9.9999999999999995e-007 1e-010 
body $-1 $9 $-1 $10 #
body $-1 $11 $-1 $12 #
body $-1 $13 $-1 $14 #
body $-1 $15 $-1 $16 #
body $-1 $17 $-1 $18 #
body $-1 $19 $-1 $20 #
body $-1 $21 $-1 $22 #
body $-1 $23 $-1 $24 #
body $-1 $25 $-1 $26 #
lump $-1 $-1 $27 $0 #
transform $-1 1 0 0 0 1 0 0 0 1 41.053498947111422 23.375699675156 6.9929489576631729 1 rotate no_reflect no_shear #
lump $-1 $-1 $28 $1 #
transform $-1 1 0 0 0 1 0 0 0 1 41.053498947111422 23.375699675156 6.9929489576631729 1 rotate no_reflect no_shear #
lump $-1 $-1 $29 $2 #
transform $-1 1 0 0 0 1 0 0 0 1 41.053498947111422 23.375699675156 6.9929489576631729 1 rotate no_reflect no_shear #
lump $-1 $-1 $30 $3 #
transform $-1 1 0 0 0 1 0 0 0 1 41.053498947111422 23.375699675156 6.9929489576631729 1 rotate no_reflect no_shear #
lump $-1 $-1 $31 $4 #
transform $-1 1 0 0 0 1 0 0 0 1 41.053498947111422 23.375699675156 6.9929489576631729 1 rotate no_reflect no_shear #
lump $-1 $-1 $32 $5 #
transform $-1 1 0 0 0 1 0 0 0 1 41.053498947111422 23.375699675156 6.9929489576631729 1 rotate no_reflect no_shear #
lump $-1 $-1 $33 $6 #
transform $-1 1 0 0 0 1 0 0 0 1 41.053498947111422 23.375699675156 6.9929489576631729 1 rotate no_reflect no_shear #
lump $-1 $-1 $34 $7 #
transform $-1 1 0 0 0 1 0 0 0 1 41.053498947111422 23.375699675156 6.9929489576631729 1 rotate no_reflect no_shear #
lump $-1 $-1 $35 $8 #
transform $-1 1 0 0 0 1 0 0 0 1 41.053498947111422 23.375699675156 6.9929489576631729 1 rotate no_reflect no_shear #
shell $-1 $-1 $-1 $36 $-1 $9 #
shell $-1 $-1 $-1 $37 $-1 $11 #
shell $-1 $-1 $-1 $38 $-1 $13 #
shell $-1 $-1 $-1 $39 $-1 $15 #
shell $-1 $-1 $-1 $40 $-1 $17 #
shell $-1 $-1 $-1 $41 $-1 $19 #
shell $-1 $-1 $-1 $42 $-1 $21 #
shell $-1 $-1 $-1 $43 $-1 $23 #
shell $-1 $-1 $-1 $44 $-1 $25 #
face $-1 $45 $46 $27 $-1 $47 forward single #
face $-1 $48 $49 $28 $-1 $50 reversed single #
face $-1 $51 $52 $29 $-1 $53 reversed single #
face $-1 $54 $55 $30 $-1 $56 forward single #
face $-1 $57 $58 $31 $-1 $59 forward single #
face $-1 $60 $61 $32 $-1 $62 forward single #
face $-1 $63 $64 $33 $-1 $65 reversed single #
face $-1 $66 $67 $34 $-1 $68 forward single #
face $-1 $69 $70 $35 $-1 $71 forward single #
face $-1 $72 $73 $27 $-1 $74 reversed single #
loop $-1 $-1 $75 $36 #
plane-surface $-1 0 0 6.9929489576631729 0 0 1 1 0 0 forward_v I I I I #
face $-1 $76 $77 $28 $-1 $78 reversed single #
loop $-1 $-1 $79 $37 #
plane-surface $-1 -38.967693513665544 -16.50148594140974 0 0 -1 0 0 0 -1 forward_v I I I I #
face $-1 $80 $81 $29 $-1 $82 reversed single #
loop $-1 $-1 $83 $38 #
plane-surface $-1 22.888825830342149 15.240450624228245 115.28958759289668 0 1 0 0.5877852598018023 0 0.80901698891910034 forward_v I I I I #
face $-1 $84 $85 $30 $-1 $86 forward single #
loop $-1 $87 $88 $39 #
cone-surface $-1 36.361652798960762 16.867500434413799 3.393140133633938 -0.5877852598018023 0 -0.80901698891910034 0.40450849445955017 0 -0.29389262990090115 1 I I 0 1 0.5 forward I I I I #
face $-1 $89 $90 $31 $-1 $91 forward single #
loop $-1 $92 $93 $40 #
cone-surface $-1 36.361652798960762 19.308075149692122 3.393140133633938 -0.5877852598018023 0 -0.80901698891910034 0.40450849445955017 0 -0.29389262990090115 1 I I 0 1 0.5 forward I I I I #
face $-1 $94 $95 $32 $-1 $96 forward single #
loop $-1 $97 $98 $41 #
cone-surface $-1 36.361652798960762 21.748649864970446 3.393140133633938 -0.5877852598018023 0 -0.80901698891910034 0.40450849445955017 0 -0.29389262990090115 1 I I 0 1 0.5 forward I I I I #
face $-1 $99 $100 $33 $-1 $101 reversed single #
loop $-1 $-1 $102 $42 #
plane-surface $-1 -108.31161479044022 13.634964633664481 49.975868961495429 0 1 0 -0.81915205242281985 0 0.57357642473473569 forward_v I I I I #
face $-1 $103 $104 $34 $-1 $105 forward single #
loop $-1 $106 $107 $43 #
cone-surface $-1 -39.156321238834167 16.418031788376346 4.6166400648811967 0.81915205242281985 0 -0.57357642473473569 0.57357642473473569 0 0.81915205242281985 1 I I 0 1 1 forward I I I I #
face $-1 $108 $109 $35 $-1 $110 forward single #
loop $-1 $111 $112 $44 #
cone-surface $-1 -39.156321238834167 20.592632520444141 4.6166400648811967 0.81915205242281985 0 -0.57357642473473569 0.57357642473473569 0 0.81915205242281985 1 I I 0 1 1 forward I I I I #
face $-1 $113 $114 $27 $-1 $115 reversed single #
loop $-1 $-1 $116 $45 #
plane-surface $-1 0 0 -6.9929489576631729 0 0 1 1 0 0 forward_v I I I I #
coedge $-1 $117 $118 $119 $120 forward $46 $-1 #
face $-1 $121 $122 $28 $-1 $123 forward single #
loop $-1 $-1 $124 $48 #
plane-surface $-1 -36.881888080219667 -19.93859280828287 0 -1 0 0 0 0 1 forward_v I I I I #
coedge $-1 $125 $126 $127 $128 forward $49 $-1 #
face $-1 $129 $130 $29 $-1 $131 reversed single #
loop $-1 $-1 $132 $51 #
plane-surface $-1 -25.372457258459661 19.308075149692122 48.863631387325597 0.5877852598018023 0 0.80901698891910034 0.80901698891910034 0 -0.5877852598018023 forward_v I I I I #
coedge $-1 $133 $134 $135 $136 reversed $52 $-1 #
face $-1 $-1 $137 $30 $-1 $138 forward single #
loop $-1 $139 $140 $54 #
cone-surface $-1 35.920813854109412 16.867500434413799 2.7863773919446126 -0.5877852598018023 0 -0.80901698891910034 0.20225424722977509 0 -0.14694631495045057 1 I I -0.70710678118654746 0.70710678118654746 0.25 forward I I I I #
loop $-1 $-1 $141 $39 #
coedge $-1 $88 $88 $142 $143 reversed $55 $-1 #
face $-1 $-1 $144 $31 $-1 $145 forward single #
loop $-1 $146 $147 $57 #
cone-surface $-1 35.920813854109412 19.308075149692122 2.7863773919446126 -0.5877852598018023 0 -0.80901698891910034 0.20225424722977509 0 -0.14694631495045057 1 I I -0.70710678118654746 0.70710678118654746 0.25 forward I I I I #
loop $-1 $-1 $148 $40 #
coedge $-1 $93 $93 $149 $150 reversed $58 $-1 #
face $-1 $-1 $151 $32 $-1 $152 forward single #
loop $-1 $153 $154 $60 #
cone-surface $-1 35.920813854109412 21.748649864970446 2.7863773919446126 -0.5877852598018023 0 -0.80901698891910034 0.20225424722977509 0 -0.14694631495045057 1 I I -0.70710678118654746 0.70710678118654746 0.25 forward I I I I #
loop $-1 $-1 $155 $41 #
coedge $-1 $98 $98 $156 $157 reversed $61 $-1 #
face $-1 $158 $159 $33 $-1 $160 reversed single #
loop $-1 $-1 $161 $63 #
plane-surface $-1 -41.053498947111422 18.50533215441024 2.8812306636246205 -0.81915205242281985 0 0.57357642473473569 0.57357642473473569 0 0.81915205242281985 forward_v I I I I #
coedge $-1 $162 $163 $164 $165 reversed $64 $-1 #
face $-1 $-1 $166 $34 $-1 $167 forward single #
loop $-1 $168 $169 $66 #
cone-surface $-1 -38.28909553313796 16.418031788376346 4.0094021067511276 0.81915205242281985 0 -0.57357642473473569 0.28678821236736785 0 0.40957602621140993 1 I I -0.70710678118654746 0.70710678118654746 0.5 forward I I I I #
loop $-1 $-1 $170 $43 #
coedge $-1 $107 $107 $171 $172 reversed $67 $-1 #
face $-1 $-1 $173 $35 $-1 $174 forward single #
loop $-1 $175 $176 $69 #
cone-surface $-1 -38.28909553313796 20.592632520444141 4.0094021067511276 0.81915205242281985 0 -0.57357642473473569 0.28678821236736785 0 0.40957602621140993 1 I I -0.70710678118654746 0.70710678118654746 0.5 forward I I I I #
loop $-1 $-1 $177 $44 #
coedge $-1 $112 $112 $178 $179 reversed $70 $-1 #
face $-1 $180 $181 $27 $-1 $182 reversed single #
loop $-1 $-1 $183 $72 #
plane-surface $-1 0 -23.375699675156 0 0 1 0 0 0 1 forward_v I I I I #
coedge $-1 $184 $185 $186 $187 forward $73 $-1 #
coedge $-1 $188 $75 $189 $190 forward $46 $-1 #
coedge $-1 $75 $188 $191 $192 forward $46 $-1 #
coedge $-1 $193 $194 $75 $120 reversed $195 $-1 #
edge $-1 $196 -23.375699675156 $197 23.375699675156 $119 $198 forward 7 unknown #
face $-1 $199 $200 $28 $-1 $201 reversed single #
loop $-1 $-1 $202 $76 #
plane-surface $-1 0 0 6.9929489576631729 0 0 1 1 0 0 forward_v I I I I #
coedge $-1 $203 $204 $205 $206 reversed $77 $-1 #
coedge $-1 $207 $79 $208 $209 reversed $49 $-1 #
coedge $-1 $79 $207 $210 $211 reversed $49 $-1 #
coedge $-1 $204 $203 $79 $128 reversed $77 $-1 #
edge $-1 $212 -6.9929489576631729 $213 6.9929489576631729 $127 $214 forward 7 unknown #
face $-1 $215 $216 $29 $-1 $217 reversed single #
loop $-1 $-1 $135 $80 #
plane-surface $-1 41.053498947111422 0 0 -1 0 0 0 0 1 forward_v I I I I #
coedge $-1 $218 $219 $220 $221 reversed $81 $-1 #
coedge $-1 $134 $83 $222 $223 reversed $52 $-1 #
coedge $-1 $83 $133 $218 $224 reversed $52 $-1 #
coedge $-1 $220 $225 $83 $136 forward $130 $-1 #
edge $-1 $226 50.651844838785166 $227 57.042445497924561 $135 $228 forward 7 unknown #
loop $-1 $-1 $142 $84 #
plane-surface $-1 -25.372457258459661 19.308075149692122 48.863631387325597 0.5877852598018023 0 0.80901698891910034 0.80901698891910034 0 -0.5877852598018023 forward_v I I I I #
loop $-1 $-1 $229 $54 #
coedge $-1 $140 $140 $141 $230 reversed $85 $-1 #
coedge $-1 $141 $141 $140 $230 forward $87 $-1 #
coedge $-1 $142 $142 $88 $143 forward $137 $-1 #
edge $-1 $231 0 $231 6.2831853071796004 $142 $232 forward 7 unknown #
loop $-1 $-1 $149 $89 #
plane-surface $-1 -25.372457258459661 19.308075149692122 48.863631387325597 0.5877852598018023 0 0.80901698891910034 0.80901698891910034 0 -0.5877852598018023 forward_v I I I I #
loop $-1 $-1 $233 $57 #
coedge $-1 $147 $147 $148 $234 reversed $90 $-1 #
coedge $-1 $148 $148 $147 $234 forward $92 $-1 #
coedge $-1 $149 $149 $93 $150 forward $144 $-1 #
edge $-1 $235 0 $235 6.2831853071796004 $149 $236 forward 7 unknown #
loop $-1 $-1 $156 $94 #
plane-surface $-1 -25.372457258459661 19.308075149692122 48.863631387325597 0.5877852598018023 0 0.80901698891910034 0.80901698891910034 0 -0.5877852598018023 forward_v I I I I #
loop $-1 $-1 $237 $60 #
coedge $-1 $154 $154 $155 $238 reversed $95 $-1 #
coedge $-1 $155 $155 $154 $238 forward $97 $-1 #
coedge $-1 $156 $156 $98 $157 forward $151 $-1 #
edge $-1 $239 0 $239 6.2831853071796004 $156 $240 forward 7 unknown #
face $-1 $241 $242 $33 $-1 $243 reversed single #
loop $-1 $-1 $244 $99 #
plane-surface $-1 0 23.375699675156 0 0 -1 0 0 0 -1 forward_v I I I I #
coedge $-1 $245 $246 $247 $248 reversed $100 $-1 #
coedge $-1 $163 $102 $249 $250 reversed $64 $-1 #
coedge $-1 $102 $162 $245 $251 reversed $64 $-1 #
coedge $-1 $247 $252 $102 $165 forward $253 $-1 #
edge $-1 $254 13.102308448108687 $255 15.981364505693605 $164 $256 forward 7 unknown #
loop $-1 $-1 $171 $103 #
plane-surface $-1 -41.053498947111422 18.50533215441024 2.8812306636246205 -0.81915205242281985 0 0.57357642473473569 0.57357642473473569 0 0.81915205242281985 forward_v I I I I #
loop $-1 $-1 $257 $66 #
coedge $-1 $169 $169 $170 $258 reversed $104 $-1 #
coedge $-1 $170 $170 $169 $258 forward $106 $-1 #
coedge $-1 $171 $171 $107 $172 forward $166 $-1 #
edge $-1 $259 0 $259 6.2831853071796004 $171 $260 forward 7 unknown #
loop $-1 $-1 $178 $108 #
plane-surface $-1 -41.053498947111422 18.50533215441024 2.8812306636246205 -0.81915205242281985 0 0.57357642473473569 0.57357642473473569 0 0.81915205242281985 forward_v I I I I #
loop $-1 $-1 $261 $69 #
coedge $-1 $176 $176 $177 $262 reversed $109 $-1 #
coedge $-1 $177 $177 $176 $262 forward $111 $-1 #
coedge $-1 $178 $178 $112 $179 forward $173 $-1 #
edge $-1 $263 0 $263 6.2831853071796004 $178 $264 forward 7 unknown #
face $-1 $265 $266 $27 $-1 $267 reversed single #
loop $-1 $-1 $268 $113 #
plane-surface $-1 -41.053498947111422 0 0 1 0 0 0 0 -1 forward_v I I I I #
coedge $-1 $269 $191 $270 $271 forward $114 $-1 #
coedge $-1 $272 $116 $269 $273 forward $73 $-1 #
coedge $-1 $116 $272 $274 $275 forward $73 $-1 #
coedge $-1 $194 $193 $116 $187 reversed $195 $-1 #
edge $-1 $276 -23.375699675156 $277 23.375699675156 $186 $278 forward 7 unknown #
coedge $-1 $118 $117 $279 $280 forward $46 $-1 #
coedge $-1 $281 $282 $117 $190 reversed $266 $-1 #
edge $-1 $197 -41.053498947111422 $283 41.053498947111422 $189 $284 forward 7 unknown #
coedge $-1 $183 $285 $118 $192 reversed $114 $-1 #
edge $-1 $286 -41.053498947111422 $196 41.053498947111422 $191 $287 forward 7 unknown #
coedge $-1 $186 $119 $285 $288 forward $195 $-1 #
coedge $-1 $119 $186 $281 $289 reversed $195 $-1 #
loop $-1 $-1 $193 $265 #
vertex $-1 $120 $290 #
vertex $-1 $120 $291 #
straight-curve $-1 41.053498947111422 0 6.9929489576631729 0 1 0 I I #
face $-1 $292 $293 $28 $-1 $294 reversed single #
loop $-1 $-1 $295 $121 #
plane-surface $-1 -41.053498947111422 0 0 1 0 0 0 0 -1 forward_v I I I I #
coedge $-1 $210 $296 $204 $297 forward $122 $-1 #
coedge $-1 $127 $124 $298 $299 reversed $77 $-1 #
coedge $-1 $124 $127 $202 $297 reversed $77 $-1 #
coedge $-1 $300 $301 $124 $206 forward $302 $-1 #
edge $-1 $303 -6.9929489576631729 $304 6.9929489576631729 $205 $305 forward 7 unknown #
coedge $-1 $126 $125 $295 $306 reversed $49 $-1 #
coedge $-1 $298 $307 $125 $209 forward $293 $-1 #
edge $-1 $308 -21.569652190278649 $213 -17.398041323386895 $208 $309 forward 7 unknown #
coedge $-1 $310 $202 $126 $211 forward $122 $-1 #
edge $-1 $212 17.398041323386895 $311 21.569652190278649 $210 $312 forward 7 unknown #
vertex $-1 $211 $313 #
vertex $-1 $209 $314 #
straight-curve $-1 -36.881888080219667 -16.50148594140974 0 0 0 -1 I I #
face $-1 $-1 $315 $29 $-1 $316 forward single #
loop $-1 $-1 $317 $129 #
plane-surface $-1 0 23.375699675156 0 0 -1 0 0 0 -1 forward_v I I I I #
coedge $-1 $318 $132 $134 $224 forward $81 $-1 #
coedge $-1 $132 $318 $317 $319 reversed $81 $-1 #
coedge $-1 $320 $135 $132 $221 forward $130 $-1 #
edge $-1 $227 5.586413049382184 $321 13.721662100309938 $220 $322 forward 7 unknown #
coedge $-1 $323 $324 $133 $223 forward $315 $-1 #
edge $-1 $325 20.813178995440833 $226 29.609086031940347 $222 $326 forward 7 unknown #
edge $-1 $227 -82.106997894222843 $325 -71.234658800019872 $134 $327 forward 7 unknown #
coedge $-1 $135 $320 $323 $328 reversed $130 $-1 #
vertex $-1 $328 $329 #
vertex $-1 $136 $330 #
straight-curve $-1 41.053498947111422 15.240450624228245 57.64479379644834 0 0 -1 I I #
coedge $-1 $229 $229 $-1 $331 reversed $139 $-1 #
edge $-1 $332 0 $332 6.2831853071796004 $140 $333 forward 7 unknown #
vertex $-1 $143 $334 #
ellipse-curve $-1 36.655545428861657 16.867500434413799 3.7976486280934822 0.5877852598018023 0 0.80901698891910034 0.40450849445955017 0 -0.29389262990090115 1 I I #
coedge $-1 $233 $233 $-1 $335 reversed $146 $-1 #
edge $-1 $336 0 $336 6.2831853071796004 $147 $337 forward 7 unknown #
vertex $-1 $150 $338 #
ellipse-curve $-1 36.655545428861657 19.308075149692122 3.7976486280934822 0.5877852598018023 0 0.80901698891910034 0.40450849445955017 0 -0.29389262990090115 1 I I #
coedge $-1 $237 $237 $-1 $339 reversed $153 $-1 #
edge $-1 $340 0 $340 6.2831853071796004 $154 $341 forward 7 unknown #
vertex $-1 $157 $342 #
ellipse-curve $-1 36.655545428861657 21.748649864970446 3.7976486280934822 0.5877852598018023 0 0.80901698891910034 0.40450849445955017 0 -0.29389262990090115 1 I I #
face $-1 $-1 $253 $33 $-1 $343 forward single #
loop $-1 $-1 $344 $158 #
plane-surface $-1 -41.053498947111422 0 0 1 0 0 0 0 -1 forward_v I I I I #
coedge $-1 $345 $346 $246 $347 forward $159 $-1 #
coedge $-1 $348 $161 $163 $251 forward $100 $-1 #
coedge $-1 $161 $348 $244 $347 reversed $100 $-1 #
coedge $-1 $349 $164 $161 $248 forward $253 $-1 #
edge $-1 $255 4.3822985564593608 $350 14.123033597950879 $247 $351 forward 7 unknown #
coedge $-1 $352 $344 $162 $250 forward $242 $-1 #
edge $-1 $353 -22.106703817123094 $254 -17.994985523084541 $249 $354 forward 7 unknown #
edge $-1 $255 -5.0194811596665767 $353 0 $163 $355 forward 7 unknown #
coedge $-1 $164 $349 $352 $356 forward $253 $-1 #
loop $-1 $-1 $247 $241 #
vertex $-1 $250 $357 #
vertex $-1 $165 $358 #
straight-curve $-1 -54.155807395220108 13.634964633664481 6.9929489576631738 1 0 0 I I #
coedge $-1 $257 $257 $-1 $359 reversed $168 $-1 #
edge $-1 $360 0 $360 6.2831853071796004 $169 $361 forward 7 unknown #
vertex $-1 $172 $362 #
ellipse-curve $-1 -39.613970918318962 16.418031788376346 4.9370898106438963 -0.81915205242281985 0 0.57357642473473569 0.57357642473473569 0 0.81915205242281985 1 I I #
coedge $-1 $261 $261 $-1 $363 reversed $175 $-1 #
edge $-1 $364 0 $364 6.2831853071796004 $176 $365 forward 7 unknown #
vertex $-1 $179 $366 #
ellipse-curve $-1 -39.613970918318962 20.592632520444141 4.9370898106438963 -0.81915205242281985 0 0.57357642473473569 0.57357642473473569 0 0.81915205242281985 1 I I #
face $-1 $-1 $195 $27 $-1 $367 reversed single #
loop $-1 $-1 $281 $180 #
plane-surface $-1 0 23.375699675156 0 0 -1 0 0 0 -1 forward_v I I I I #
coedge $-1 $368 $279 $282 $369 forward $181 $-1 #
coedge $-1 $285 $183 $184 $273 reversed $114 $-1 #
coedge $-1 $279 $368 $183 $271 reversed $181 $-1 #
edge $-1 $286 -6.9929489576631729 $370 6.9929489576631729 $270 $371 forward 7 unknown #
coedge $-1 $185 $184 $368 $372 forward $73 $-1 #
edge $-1 $277 -41.053498947111422 $370 41.053498947111422 $269 $373 forward 7 unknown #
coedge $-1 $282 $281 $185 $275 reversed $266 $-1 #
edge $-1 $374 -41.053498947111422 $276 41.053498947111422 $274 $375 forward 7 unknown #
vertex $-1 $187 $376 #
vertex $-1 $288 $377 #
straight-curve $-1 41.053498947111422 0 -6.9929489576631729 0 -1 0 I I #
coedge $-1 $268 $270 $188 $280 reversed $181 $-1 #
edge $-1 $283 -23.375699675156 $286 23.375699675156 $279 $378 forward 7 unknown #
coedge $-1 $274 $189 $194 $289 forward $266 $-1 #
coedge $-1 $189 $274 $268 $369 reversed $266 $-1 #
vertex $-1 $190 $379 #
straight-curve $-1 0 23.375699675156 6.9929489576631729 -1 0 0 I I #
coedge $-1 $191 $269 $193 $288 reversed $114 $-1 #
vertex $-1 $280 $380 #
straight-curve $-1 0 -23.375699675156 6.9929489576631729 1 0 0 I I #
edge $-1 $196 -6.9929489576631729 $277 6.9929489576631729 $193 $381 forward 7 unknown #
edge $-1 $197 -6.9929489576631729 $276 6.9929489576631729 $194 $382 forward 7 unknown #
point $-1 41.053498947111422 -23.375699675156 6.9929489576631729 #
point $-1 41.053498947111422 23.375699675156 6.9929489576631729 #
face $-1 $-1 $302 $28 $-1 $383 reversed single #
loop $-1 $-1 $298 $199 #
plane-surface $-1 0 0 -6.9929489576631729 0 0 1 1 0 0 forward_v I I I I #
coedge $-1 $384 $385 $207 $306 forward $200 $-1 #
coedge $-1 $202 $310 $300 $386 forward $122 $-1 #
edge $-1 $304 -13.406403271014565 $212 -6.5321895372683052 $202 $387 forward 7 unknown #
coedge $-1 $388 $208 $203 $299 forward $293 $-1 #
edge $-1 $213 6.5321895372683052 $303 13.406403271014565 $298 $389 forward 7 unknown #
coedge $-1 $390 $205 $296 $386 reversed $302 $-1 #
coedge $-1 $205 $390 $388 $391 reversed $302 $-1 #
loop $-1 $-1 $205 $292 #
vertex $-1 $391 $392 #
vertex $-1 $206 $393 #
straight-curve $-1 -36.881888080219667 -23.375699675156 0 0 0 1 I I #
edge $-1 $311 -6.9929489576631729 $308 6.9929489576631729 $295 $394 forward 7 unknown #
coedge $-1 $208 $388 $384 $395 forward $293 $-1 #
vertex $-1 $209 $396 #
straight-curve $-1 -19.483846756832772 -16.50148594140974 -6.9929489576631729 1 0 0 I I #
coedge $-1 $296 $210 $385 $397 forward $122 $-1 #
vertex $-1 $397 $398 #
straight-curve $-1 -19.483846756832772 -16.50148594140974 6.9929489576631729 -1 0 0 I I #
point $-1 -36.881888080219667 -16.50148594140974 6.9929489576631729 #
point $-1 -36.881888080219667 -16.50148594140974 -6.9929489576631729 #
loop $-1 $-1 $222 $215 #
plane-surface $-1 0 0 6.9929489576631729 0 0 1 1 0 0 forward_v I I I I #
coedge $-1 $399 $400 $219 $319 forward $216 $-1 #
coedge $-1 $219 $218 $324 $401 reversed $81 $-1 #
edge $-1 $321 -57.482962272934714 $402 -46.610623178731728 $317 $403 forward 7 unknown #
coedge $-1 $225 $220 $400 $404 reversed $130 $-1 #
vertex $-1 $319 $405 #
straight-curve $-1 41.053498947111422 9.6540375748460612 0.60234829852377914 0 1 0 I I #
coedge $-1 $406 $222 $225 $328 forward $315 $-1 #
coedge $-1 $222 $406 $318 $401 forward $315 $-1 #
vertex $-1 $223 $407 #
straight-curve $-1 11.444412915171075 15.240450624228245 6.9929489576631738 1 0 0 I I #
straight-curve $-1 -25.372457258459661 15.240450624228245 48.863631387325597 -0.80901698891910034 0 0.5877852598018023 I I #
edge $-1 $226 15.240450624228245 $408 23.375699675156 $225 $409 forward 7 unknown #
point $-1 41.053498947111422 15.240450624228245 6.9929489576631729 #
point $-1 41.053498947111422 15.240450624228245 0.60234829852377914 #
edge $-1 $410 1 $410 0 $229 $-1 forward 7 unknown #
vertex $-1 $230 $411 #
ellipse-curve $-1 36.067760169059859 16.867500434413799 2.9886316391743879 0.5877852598018023 0 0.80901698891910034 0.40450849445955017 0 -0.29389262990090115 1 I I #
point $-1 37.060053923321213 16.867500434413799 3.5037559981925868 #
edge $-1 $412 1 $412 0 $233 $-1 forward 7 unknown #
vertex $-1 $234 $413 #
ellipse-curve $-1 36.067760169059859 19.308075149692122 2.9886316391743879 0.5877852598018023 0 0.80901698891910034 0.40450849445955017 0 -0.29389262990090115 1 I I #
point $-1 37.060053923321213 19.308075149692122 3.5037559981925868 #
edge $-1 $414 1 $414 0 $237 $-1 forward 7 unknown #
vertex $-1 $238 $415 #
ellipse-curve $-1 36.067760169059859 21.748649864970446 2.9886316391743879 0.5877852598018023 0 0.80901698891910034 0.40450849445955017 0 -0.29389262990090115 1 I I #
point $-1 37.060053923321213 21.748649864970446 3.5037559981925868 #
plane-surface $-1 0 0 6.9929489576631729 0 0 1 1 0 0 forward_v I I I I #
coedge $-1 $249 $416 $348 $417 forward $242 $-1 #
coedge $-1 $346 $244 $416 $418 reversed $159 $-1 #
coedge $-1 $244 $345 $349 $419 reversed $159 $-1 #
edge $-1 $350 5.5740954089952908 $420 10.593576568661868 $244 $421 forward 7 unknown #
coedge $-1 $246 $245 $344 $417 reversed $100 $-1 #
coedge $-1 $252 $247 $346 $419 forward $253 $-1 #
vertex $-1 $419 $422 #
straight-curve $-1 -38.17444288952651 9.2526660772051201 6.9929489576631738 0 1 0 I I #
coedge $-1 $416 $249 $252 $356 reversed $242 $-1 #
vertex $-1 $250 $423 #
straight-curve $-1 -41.053498947111422 13.634964633664481 24.987934480747715 0 0 1 I I #
straight-curve $-1 -41.053498947111422 13.634964633664481 2.8812306636246205 -0.57357642473473569 0 -0.81915205242281985 I I #
edge $-1 $424 -23.375699675156 $254 -13.634964633664481 $352 $425 forward 7 unknown #
point $-1 -41.053498947111422 13.634964633664481 6.9929489576631729 #
point $-1 -38.174442889526503 13.634964633664481 6.9929489576631729 #
edge $-1 $426 1 $426 0 $257 $-1 forward 7 unknown #
vertex $-1 $258 $427 #
ellipse-curve $-1 -38.698671559349371 16.418031788376346 4.2961903191184954 -0.81915205242281985 0 0.57357642473473569 0.57357642473473569 0 0.81915205242281985 1 I I #
point $-1 -39.04039449358423 16.418031788376346 5.7562418630667178 #
edge $-1 $428 1 $428 0 $261 $-1 forward 7 unknown #
vertex $-1 $262 $429 #
ellipse-curve $-1 -38.698671559349371 20.592632520444141 4.2961903191184954 -0.81915205242281985 0 0.57357642473473569 0.57357642473473569 0 0.81915205242281985 1 I I #
point $-1 -39.04039449358423 20.592632520444141 5.7562418630667178 #
plane-surface $-1 41.053498947111422 0 0 -1 0 0 0 0 1 forward_v I I I I #
coedge $-1 $270 $268 $272 $372 reversed $181 $-1 #
edge $-1 $283 -6.9929489576631729 $374 6.9929489576631729 $282 $430 forward 7 unknown #
vertex $-1 $372 $431 #
straight-curve $-1 -41.053498947111422 -23.375699675156 0 0 0 -1 I I #
edge $-1 $370 -23.375699675156 $374 23.375699675156 $368 $432 forward 7 unknown #
straight-curve $-1 0 -23.375699675156 -6.9929489576631729 -1 0 0 I I #
vertex $-1 $275 $433 #
straight-curve $-1 0 23.375699675156 -6.9929489576631729 1 0 0 I I #
point $-1 41.053498947111422 23.375699675156 -6.9929489576631729 #
point $-1 41.053498947111422 -23.375699675156 -6.9929489576631729 #
straight-curve $-1 -41.053498947111422 0 6.9929489576631729 0 -1 0 I I #
point $-1 -41.053498947111422 23.375699675156 6.9929489576631729 #
point $-1 -41.053498947111422 -23.375699675156 6.9929489576631729 #
straight-curve $-1 41.053498947111422 -23.375699675156 0 0 0 -1 I I #
straight-curve $-1 41.053498947111422 23.375699675156 0 0 0 -1 I I #
plane-surface $-1 0 -23.375699675156 0 0 1 0 0 0 1 forward_v I I I I #
coedge $-1 $434 $295 $307 $395 reversed $200 $-1 #
coedge $-1 $295 $434 $310 $397 reversed $200 $-1 #
edge $-1 $435 -41.053498947111422 $304 -36.881888080219667 $300 $436 forward 7 unknown #
straight-curve $-1 -36.881888080219667 -9.9692964041414349 6.9929489576631729 0 1 0 I I #
coedge $-1 $307 $298 $301 $391 forward $293 $-1 #
straight-curve $-1 -36.881888080219667 -9.9692964041414349 -6.9929489576631729 0 -1 0 I I #
coedge $-1 $301 $300 $434 $437 forward $302 $-1 #
edge $-1 $303 36.881888080219667 $438 41.053498947111422 $301 $439 forward 7 unknown #
point $-1 -36.881888080219667 -23.375699675156 -6.9929489576631729 #
point $-1 -36.881888080219667 -23.375699675156 6.9929489576631729 #
straight-curve $-1 -41.053498947111422 -16.50148594140974 0 0 0 -1 I I #
edge $-1 $438 -23.375699675156 $308 -16.50148594140974 $384 $440 forward 7 unknown #
point $-1 -41.053498947111422 -16.50148594140974 -6.9929489576631729 #
edge $-1 $311 16.50148594140974 $435 23.375699675156 $385 $441 forward 7 unknown #
point $-1 -41.053498947111422 -16.50148594140974 6.9929489576631729 #
coedge $-1 $400 $317 $406 $442 reversed $216 $-1 #
coedge $-1 $317 $399 $320 $404 forward $216 $-1 #
edge $-1 $402 -13.721662100309938 $325 -5.586413049382184 $324 $443 forward 7 unknown #
vertex $-1 $319 $444 #
straight-curve $-1 -5.4511941050884616 23.375699675156 34.389986212297913 -0.80901698891910034 0 0.5877852598018023 I I #
edge $-1 $408 -6.9929489576631729 $321 -0.60234829852378124 $320 $445 forward 7 unknown #
point $-1 41.053498947111422 23.375699675156 0.60234829852378124 #
coedge $-1 $324 $323 $399 $442 forward $315 $-1 #
point $-1 32.257591910611907 15.240450624228245 6.9929489576631738 #
vertex $-1 $328 $446 #
straight-curve $-1 41.053498947111422 0 6.9929489576631729 0 1 0 I I #
vertex $-1 $331 $447 #
point $-1 36.472268663519415 16.867500434413799 2.6947390092734866 #
vertex $-1 $335 $448 #
point $-1 36.472268663519415 19.308075149692122 2.6947390092734866 #
vertex $-1 $339 $449 #
point $-1 36.472268663519415 21.748649864970446 2.6947390092734866 #
coedge $-1 $344 $352 $345 $418 forward $242 $-1 #
edge $-1 $420 -14.123033597950879 $353 -4.3822985564593608 $344 $450 forward 7 unknown #
edge $-1 $424 -6.9929489576631729 $420 -2.8812306636246205 $345 $451 forward 7 unknown #
edge $-1 $350 38.174442889526503 $424 41.053498947111422 $346 $452 forward 7 unknown #
vertex $-1 $417 $453 #
straight-curve $-1 -34.977273173704681 23.375699675156 11.558980652342283 -0.57357642473473569 0 -0.81915205242281985 I I #
point $-1 -38.174442889526503 23.375699675156 6.9929489576631729 #
point $-1 -41.053498947111422 13.634964633664481 2.8812306636246205 #
vertex $-1 $419 $454 #
straight-curve $-1 -41.053498947111422 0 6.9929489576631729 0 -1 0 I I #
vertex $-1 $359 $455 #
point $-1 -38.125095134614632 16.418031788376346 5.1153423715413151 #
vertex $-1 $363 $456 #
point $-1 -38.125095134614632 20.592632520444141 5.1153423715413151 #
straight-curve $-1 -41.053498947111422 23.375699675156 0 0 0 -1 I I #
point $-1 -41.053498947111422 -23.375699675156 -6.9929489576631729 #
straight-curve $-1 -41.053498947111422 0 -6.9929489576631729 0 1 0 I I #
point $-1 -41.053498947111422 23.375699675156 -6.9929489576631729 #
coedge $-1 $385 $384 $390 $437 reversed $200 $-1 #
vertex $-1 $397 $457 #
straight-curve $-1 0 -23.375699675156 6.9929489576631729 1 0 0 I I #
edge $-1 $435 -6.9929489576631729 $438 6.9929489576631729 $434 $458 forward 7 unknown #
vertex $-1 $395 $459 #
straight-curve $-1 0 -23.375699675156 -6.9929489576631729 -1 0 0 I I #
straight-curve $-1 -41.053498947111422 0 -6.9929489576631729 0 1 0 I I #
straight-curve $-1 -41.053498947111422 0 6.9929489576631729 0 -1 0 I I #
edge $-1 $408 -41.053498947111422 $402 -32.257591910611907 $399 $460 forward 7 unknown #
straight-curve $-1 32.257591910611907 9.6540375748460612 6.9929489576631703 0 -1 0 I I #
point $-1 32.257591910611907 23.375699675156 6.9929489576631738 #
straight-curve $-1 41.053498947111422 23.375699675156 0 0 0 -1 I I #
point $-1 41.053498947111422 23.375699675156 6.9929489576631729 #
point $-1 35.773867539158964 16.867500434413799 2.5841231447148374 #
point $-1 35.773867539158964 19.308075149692122 2.5841231447148374 #
point $-1 35.773867539158964 21.748649864970446 2.5841231447148374 #
straight-curve $-1 -41.053498947111422 9.2526660772051201 2.8812306636246183 0 -1 0 I I #
straight-curve $-1 -41.053498947111422 23.375699675156 0 0 0 -1 I I #
straight-curve $-1 0 23.375699675156 6.9929489576631729 -1 0 0 I I #
point $-1 -41.053498947111422 23.375699675156 2.8812306636246205 #
point $-1 -41.053498947111422 23.375699675156 6.9929489576631729 #
point $-1 -37.879519506926549 16.418031788376346 3.7226138943837599 #
point $-1 -37.879519506926549 20.592632520444141 3.7226138943837599 #
point $-1 -41.053498947111422 -23.375699675156 6.9929489576631729 #
straight-curve $-1 -41.053498947111422 -23.375699675156 0 0 0 -1 I I #
point $-1 -41.053498947111422 -23.375699675156 -6.9929489576631729 #
straight-curve $-1 0 23.375699675156 6.9929489576631729 -1 0 0 I I #
End-of-ACIS-data 