500 0 10 0           
7 Unknown 11 ACIS 5.0 NT 24 Thu Mar 25 16:36:57 1999 
-1 9.9999999999999995e-007 1e-010 
body $-1 $10 $-1 $11 #
body $-1 $12 $-1 $13 #
body $-1 $14 $-1 $15 #
body $-1 $16 $-1 $17 #
body $-1 $18 $-1 $19 #
body $-1 $20 $-1 $21 #
body $-1 $22 $-1 $23 #
body $-1 $24 $-1 $25 #
body $-1 $26 $-1 $27 #
body $-1 $28 $-1 $29 #
lump $-1 $-1 $30 $0 #
transform $-1 1 0 0 0 1 0 0 0 1 57.908261360515155 40.496549473488464 17.506072399887753 1 rotate no_reflect no_shear #
lump $-1 $-1 $31 $1 #
transform $-1 1 0 0 0 1 0 0 0 1 57.908261360515155 40.496549473488464 17.506072399887753 1 rotate no_reflect no_shear #
lump $-1 $-1 $32 $2 #
transform $-1 1 0 0 0 1 0 0 0 1 57.908261360515155 40.496549473488464 17.506072399887753 1 rotate no_reflect no_shear #
lump $-1 $-1 $33 $3 #
transform $-1 1 0 0 0 1 0 0 0 1 57.908261360515155 40.496549473488464 17.506072399887753 1 rotate no_reflect no_shear #
lump $-1 $-1 $34 $4 #
transform $-1 1 0 0 0 1 0 0 0 1 57.908261360515155 40.496549473488464 17.506072399887753 1 rotate no_reflect no_shear #
lump $-1 $-1 $35 $5 #
transform $-1 1 0 0 0 1 0 0 0 1 57.908261360515155 40.496549473488464 17.506072399887753 1 rotate no_reflect no_shear #
lump $-1 $-1 $36 $6 #
transform $-1 1 0 0 0 1 0 0 0 1 57.908261360515155 40.496549473488464 17.506072399887753 1 rotate no_reflect no_shear #
lump $-1 $-1 $37 $7 #
transform $-1 1 0 0 0 1 0 0 0 1 57.908261360515155 40.496549473488464 17.506072399887753 1 rotate no_reflect no_shear #
lump $-1 $-1 $38 $8 #
transform $-1 1 0 0 0 1 0 0 0 1 57.908261360515155 40.496549473488464 17.506072399887753 1 rotate no_reflect no_shear #
lump $-1 $-1 $39 $9 #
transform $-1 1 0 0 0 1 0 0 0 1 57.908261360515155 40.496549473488464 17.506072399887753 1 rotate no_reflect no_shear #
shell $-1 $-1 $-1 $40 $-1 $10 #
shell $-1 $-1 $-1 $41 $-1 $12 #
shell $-1 $-1 $-1 $42 $-1 $14 #
shell $-1 $-1 $-1 $43 $-1 $16 #
shell $-1 $-1 $-1 $44 $-1 $18 #
shell $-1 $-1 $-1 $45 $-1 $20 #
shell $-1 $-1 $-1 $46 $-1 $22 #
shell $-1 $-1 $-1 $47 $-1 $24 #
shell $-1 $-1 $-1 $48 $-1 $26 #
shell $-1 $-1 $-1 $49 $-1 $28 #
face $-1 $50 $51 $30 $-1 $52 forward single #
face $-1 $53 $54 $31 $-1 $55 forward single #
face $-1 $56 $57 $32 $-1 $58 reversed single #
face $-1 $59 $60 $33 $-1 $61 forward single #
face $-1 $62 $63 $34 $-1 $64 forward single #
face $-1 $65 $66 $35 $-1 $67 forward single #
face $-1 $68 $69 $36 $-1 $70 reversed single #
face $-1 $71 $72 $37 $-1 $73 forward single #
face $-1 $74 $75 $38 $-1 $76 forward single #
face $-1 $77 $78 $39 $-1 $79 forward single #
face $-1 $80 $81 $30 $-1 $82 reversed single #
loop $-1 $-1 $83 $40 #
plane-surface $-1 0 0 17.506072399887753 0 0 1 1 0 0 forward_v I I I I #
face $-1 $84 $85 $31 $-1 $86 reversed single #
loop $-1 $-1 $87 $41 #
plane-surface $-1 0 -40.496549473488464 0 0 1 0 0 0 1 forward_v I I I I #
face $-1 $88 $89 $32 $-1 $90 reversed single #
loop $-1 $-1 $91 $42 #
plane-surface $-1 63.624427380943388 17.159177738480839 170.69442186691271 0 -1 0 -0.73135370988377701 0 -0.68199835119979291 forward_v I I I I #
face $-1 $92 $93 $33 $-1 $94 forward single #
loop $-1 $95 $96 $43 #
cone-surface $-1 52.282147135172188 12.260892161035912 11.574877540557631 -0.73135370988377701 0 -0.68199835119979291 0.34099917559989645 0 -0.36567685494188851 1 I I 0 1 0.5 forward I I I I #
face $-1 $97 $98 $34 $-1 $99 forward single #
loop $-1 $100 $101 $44 #
cone-surface $-1 52.282147135172188 14.097749252577756 11.574877540557631 -0.73135370988377701 0 -0.68199835119979291 0.34099917559989645 0 -0.36567685494188851 1 I I 0 1 0.5 forward I I I I #
face $-1 $102 $103 $35 $-1 $104 forward single #
loop $-1 $105 $106 $45 #
cone-surface $-1 52.282147135172188 15.934606344119601 11.574877540557631 -0.73135370988377701 0 -0.68199835119979291 0.34099917559989645 0 -0.36567685494188851 1 I I 0 1 0.5 forward I I I I #
face $-1 $107 $108 $36 $-1 $109 reversed single #
loop $-1 $-1 $110 $46 #
plane-surface $-1 -146.62886597205318 26.825670219171364 80.487444865018546 0 1 0 -0.7660444514056185 0 0.64278759981090561 forward_v I I I I #
face $-1 $111 $112 $37 $-1 $113 forward single #
loop $-1 $114 $115 $47 #
cone-surface $-1 -52.440531639566466 29.559846070034787 11.221928105219185 0.7660444514056185 0 -0.64278759981090561 0.64278759981090561 0 0.7660444514056185 1 I I 0 1 1 forward I I I I #
face $-1 $116 $117 $38 $-1 $118 forward single #
loop $-1 $119 $120 $48 #
cone-surface $-1 -52.440531639566466 33.661109846329914 11.221928105219185 0.7660444514056185 0 -0.64278759981090561 0.64278759981090561 0 0.7660444514056185 1 I I 0 1 1 forward I I I I #
face $-1 $121 $122 $39 $-1 $123 forward single #
loop $-1 $124 $125 $49 #
cone-surface $-1 -52.440531639566466 37.762373622625041 11.221928105219185 0.7660444514056185 0 -0.64278759981090561 0.64278759981090561 0 0.7660444514056185 1 I I 0 1 1 forward I I I I #
face $-1 $126 $127 $30 $-1 $128 reversed single #
loop $-1 $-1 $129 $50 #
plane-surface $-1 0 0 -17.506072399887753 0 0 1 1 0 0 forward_v I I I I #
coedge $-1 $130 $131 $132 $133 forward $51 $-1 #
face $-1 $134 $135 $31 $-1 $136 reversed single #
loop $-1 $-1 $137 $53 #
plane-surface $-1 0 0 -17.506072399887753 0 0 1 1 0 0 forward_v I I I I #
coedge $-1 $138 $139 $140 $141 forward $54 $-1 #
face $-1 $142 $143 $32 $-1 $144 reversed single #
loop $-1 $-1 $145 $56 #
plane-surface $-1 -21.078416176920882 14.097749252577763 91.707744329476682 0.73135370988377701 0 0.68199835119979291 0.68199835119979291 0 -0.73135370988377701 forward_v I I I I #
coedge $-1 $146 $147 $148 $149 reversed $57 $-1 #
face $-1 $-1 $150 $33 $-1 $151 forward single #
loop $-1 $152 $153 $59 #
cone-surface $-1 51.369444846144589 12.260892161035912 10.723768907565233 -0.73135370988377701 0 -0.68199835119979291 0.17049958779994823 0 -0.18283842747094425 1 I I -0.70710678118654746 0.70710678118654746 0.25 forward I I I I #
loop $-1 $-1 $154 $43 #
coedge $-1 $96 $96 $155 $156 reversed $60 $-1 #
face $-1 $-1 $157 $34 $-1 $158 forward single #
loop $-1 $159 $160 $62 #
cone-surface $-1 51.369444846144589 14.097749252577756 10.723768907565233 -0.73135370988377701 0 -0.68199835119979291 0.17049958779994823 0 -0.18283842747094425 1 I I -0.70710678118654746 0.70710678118654746 0.25 forward I I I I #
loop $-1 $-1 $161 $44 #
coedge $-1 $101 $101 $162 $163 reversed $63 $-1 #
face $-1 $-1 $164 $35 $-1 $165 forward single #
loop $-1 $166 $167 $65 #
cone-surface $-1 51.369444846144589 15.934606344119601 10.723768907565233 -0.73135370988377701 0 -0.68199835119979291 0.17049958779994823 0 -0.18283842747094425 1 I I -0.70710678118654746 0.70710678118654746 0.25 forward I I I I #
loop $-1 $-1 $168 $45 #
coedge $-1 $106 $106 $169 $170 reversed $66 $-1 #
face $-1 $171 $172 $36 $-1 $173 reversed single #
loop $-1 $-1 $174 $68 #
plane-surface $-1 -57.908261360515169 33.661109846329914 6.0420202067222561 -0.7660444514056185 0 0.64278759981090561 0.64278759981090561 0 0.7660444514056185 forward_v I I I I #
coedge $-1 $175 $176 $177 $178 reversed $69 $-1 #
face $-1 $-1 $179 $37 $-1 $180 forward single #
loop $-1 $181 $182 $71 #
cone-surface $-1 -51.399520550531307 29.559846070034787 10.348416107227916 0.7660444514056185 0 -0.64278759981090561 0.3213937999054528 0 0.38302222570280925 1 I I -0.70710678118654746 0.70710678118654746 0.5 forward I I I I #
loop $-1 $-1 $183 $47 #
coedge $-1 $115 $115 $184 $185 reversed $72 $-1 #
face $-1 $-1 $186 $38 $-1 $187 forward single #
loop $-1 $188 $189 $74 #
cone-surface $-1 -51.399520550531307 33.661109846329914 10.348416107227916 0.7660444514056185 0 -0.64278759981090561 0.3213937999054528 0 0.38302222570280925 1 I I -0.70710678118654746 0.70710678118654746 0.5 forward I I I I #
loop $-1 $-1 $190 $48 #
coedge $-1 $120 $120 $191 $192 reversed $75 $-1 #
face $-1 $-1 $193 $39 $-1 $194 forward single #
loop $-1 $195 $196 $77 #
cone-surface $-1 -51.399520550531307 37.762373622625041 10.348416107227916 0.7660444514056185 0 -0.64278759981090561 0.3213937999054528 0 0.38302222570280925 1 I I -0.70710678118654746 0.70710678118654746 0.5 forward I I I I #
loop $-1 $-1 $197 $49 #
coedge $-1 $125 $125 $198 $199 reversed $78 $-1 #
face $-1 $200 $201 $30 $-1 $202 reversed single #
loop $-1 $-1 $203 $80 #
plane-surface $-1 0 -40.496549473488464 0 0 1 0 0 0 1 forward_v I I I I #
coedge $-1 $204 $205 $206 $207 forward $81 $-1 #
coedge $-1 $208 $83 $209 $210 forward $51 $-1 #
coedge $-1 $83 $208 $211 $212 forward $51 $-1 #
coedge $-1 $213 $214 $83 $133 reversed $215 $-1 #
edge $-1 $216 -40.496549473488464 $217 40.496549473488464 $132 $218 forward 7 unknown #
face $-1 $219 $220 $31 $-1 $221 forward single #
loop $-1 $-1 $222 $84 #
plane-surface $-1 57.908261360515155 0 0 -1 0 0 0 0 1 forward_v I I I I #
coedge $-1 $223 $224 $225 $226 forward $85 $-1 #
coedge $-1 $225 $87 $222 $227 reversed $54 $-1 #
coedge $-1 $87 $225 $228 $229 reversed $54 $-1 #
coedge $-1 $230 $231 $87 $141 reversed $220 $-1 #
edge $-1 $232 -57.908261360515155 $233 57.908261360515155 $140 $234 forward 7 unknown #
face $-1 $235 $236 $32 $-1 $237 reversed single #
loop $-1 $-1 $238 $88 #
plane-surface $-1 63.624427380943388 11.036320766674688 170.69442186691271 0 1 0 0.73135370988377701 0 0.68199835119979291 forward_v I I I I #
coedge $-1 $239 $240 $241 $242 reversed $89 $-1 #
coedge $-1 $147 $91 $243 $244 reversed $57 $-1 #
coedge $-1 $91 $146 $239 $245 reversed $57 $-1 #
coedge $-1 $241 $246 $91 $149 forward $247 $-1 #
edge $-1 $248 -26.096047670043461 $249 -16.303546942470817 $148 $250 forward 7 unknown #
loop $-1 $-1 $155 $92 #
plane-surface $-1 -21.078416176920882 14.097749252577763 91.707744329476682 0.73135370988377701 0 0.68199835119979291 0.68199835119979291 0 -0.73135370988377701 forward_v I I I I #
loop $-1 $-1 $251 $59 #
coedge $-1 $153 $153 $154 $252 reversed $93 $-1 #
coedge $-1 $154 $154 $153 $252 forward $95 $-1 #
coedge $-1 $155 $155 $96 $156 forward $150 $-1 #
edge $-1 $253 0 $253 6.2831853071796004 $155 $254 forward 7 unknown #
loop $-1 $-1 $162 $97 #
plane-surface $-1 -21.078416176920882 14.097749252577763 91.707744329476682 0.73135370988377701 0 0.68199835119979291 0.68199835119979291 0 -0.73135370988377701 forward_v I I I I #
loop $-1 $-1 $255 $62 #
coedge $-1 $160 $160 $161 $256 reversed $98 $-1 #
coedge $-1 $161 $161 $160 $256 forward $100 $-1 #
coedge $-1 $162 $162 $101 $163 forward $157 $-1 #
edge $-1 $257 0 $257 6.2831853071796004 $162 $258 forward 7 unknown #
loop $-1 $-1 $169 $102 #
plane-surface $-1 -21.078416176920882 14.097749252577763 91.707744329476682 0.73135370988377701 0 0.68199835119979291 0.68199835119979291 0 -0.73135370988377701 forward_v I I I I #
loop $-1 $-1 $259 $65 #
coedge $-1 $167 $167 $168 $260 reversed $103 $-1 #
coedge $-1 $168 $168 $167 $260 forward $105 $-1 #
coedge $-1 $169 $169 $106 $170 forward $164 $-1 #
edge $-1 $261 0 $261 6.2831853071796004 $169 $262 forward 7 unknown #
face $-1 $263 $264 $36 $-1 $265 reversed single #
loop $-1 $-1 $266 $107 #
plane-surface $-1 0 40.496549473488464 0 0 -1 0 0 0 -1 forward_v I I I I #
coedge $-1 $267 $268 $269 $270 reversed $108 $-1 #
coedge $-1 $176 $110 $271 $272 reversed $69 $-1 #
coedge $-1 $110 $175 $267 $273 reversed $69 $-1 #
coedge $-1 $269 $274 $110 $178 forward $275 $-1 #
edge $-1 $276 15.406171625511433 $277 25.0256533407441 $177 $278 forward 7 unknown #
loop $-1 $-1 $184 $111 #
plane-surface $-1 -57.908261360515169 33.661109846329914 6.0420202067222561 -0.7660444514056185 0 0.64278759981090561 0.64278759981090561 0 0.7660444514056185 forward_v I I I I #
loop $-1 $-1 $279 $71 #
coedge $-1 $182 $182 $183 $280 reversed $112 $-1 #
coedge $-1 $183 $183 $182 $280 forward $114 $-1 #
coedge $-1 $184 $184 $115 $185 forward $179 $-1 #
edge $-1 $281 0 $281 6.2831853071796004 $184 $282 forward 7 unknown #
loop $-1 $-1 $191 $116 #
plane-surface $-1 -57.908261360515169 33.661109846329914 6.0420202067222561 -0.7660444514056185 0 0.64278759981090561 0.64278759981090561 0 0.7660444514056185 forward_v I I I I #
loop $-1 $-1 $283 $74 #
coedge $-1 $189 $189 $190 $284 reversed $117 $-1 #
coedge $-1 $190 $190 $189 $284 forward $119 $-1 #
coedge $-1 $191 $191 $120 $192 forward $186 $-1 #
edge $-1 $285 0 $285 6.2831853071796004 $191 $286 forward 7 unknown #
loop $-1 $-1 $198 $121 #
plane-surface $-1 -57.908261360515169 33.661109846329914 6.0420202067222561 -0.7660444514056185 0 0.64278759981090561 0.64278759981090561 0 0.7660444514056185 forward_v I I I I #
loop $-1 $-1 $287 $77 #
coedge $-1 $196 $196 $197 $288 reversed $122 $-1 #
coedge $-1 $197 $197 $196 $288 forward $124 $-1 #
coedge $-1 $198 $198 $125 $199 forward $193 $-1 #
edge $-1 $289 0 $289 6.2831853071796004 $198 $290 forward 7 unknown #
face $-1 $291 $292 $30 $-1 $293 reversed single #
loop $-1 $-1 $294 $126 #
plane-surface $-1 -57.908261360515155 0 0 1 0 0 0 0 -1 forward_v I I I I #
coedge $-1 $211 $295 $213 $296 reversed $127 $-1 #
coedge $-1 $297 $129 $295 $298 forward $81 $-1 #
coedge $-1 $129 $297 $299 $300 forward $81 $-1 #
coedge $-1 $214 $213 $129 $207 reversed $215 $-1 #
edge $-1 $301 -40.496549473488464 $302 40.496549473488464 $206 $303 forward 7 unknown #
coedge $-1 $131 $130 $304 $305 forward $51 $-1 #
coedge $-1 $306 $307 $130 $210 reversed $292 $-1 #
edge $-1 $217 -57.908261360515155 $308 57.908261360515155 $209 $309 forward 7 unknown #
coedge $-1 $310 $203 $131 $212 reversed $127 $-1 #
edge $-1 $311 -57.908261360515155 $216 57.908261360515155 $211 $312 forward 7 unknown #
coedge $-1 $206 $132 $203 $296 forward $215 $-1 #
coedge $-1 $132 $206 $306 $313 reversed $215 $-1 #
loop $-1 $-1 $213 $291 #
vertex $-1 $133 $314 #
vertex $-1 $133 $315 #
straight-curve $-1 57.908261360515155 0 17.506072399887753 0 1 0 I I #
face $-1 $316 $317 $31 $-1 $318 reversed single #
loop $-1 $-1 $231 $134 #
plane-surface $-1 0 -50.641875928736624 -11.750070238508602 0 0 1 1 0 0 forward_v I I I I #
coedge $-1 $319 $320 $138 $227 forward $135 $-1 #
coedge $-1 $321 $137 $320 $322 forward $85 $-1 #
coedge $-1 $137 $321 $323 $324 forward $85 $-1 #
coedge $-1 $139 $138 $137 $226 reversed $54 $-1 #
edge $-1 $325 -57.908261360515155 $326 57.908261360515155 $137 $327 forward 7 unknown #
edge $-1 $326 -17.506072399887753 $233 -11.750070238508602 $222 $328 forward 7 unknown #
coedge $-1 $323 $329 $139 $229 forward $330 $-1 #
edge $-1 $232 11.750070238508602 $325 17.506072399887753 $228 $331 forward 7 unknown #
coedge $-1 $332 $140 $329 $333 forward $220 $-1 #
coedge $-1 $140 $332 $319 $334 forward $220 $-1 #
vertex $-1 $229 $335 #
vertex $-1 $334 $336 #
straight-curve $-1 0 -40.496549473488464 -11.750070238508602 1 0 0 I I #
face $-1 $-1 $247 $32 $-1 $337 forward single #
loop $-1 $-1 $338 $142 #
plane-surface $-1 57.908261360515155 0 0 -1 0 0 0 0 1 forward_v I I I I #
coedge $-1 $339 $340 $341 $342 reversed $143 $-1 #
coedge $-1 $343 $145 $147 $245 forward $89 $-1 #
coedge $-1 $145 $343 $339 $344 forward $89 $-1 #
coedge $-1 $341 $148 $145 $242 forward $247 $-1 #
edge $-1 $249 -10.110303112191957 $345 -3.9874461403858064 $241 $346 forward 7 unknown #
coedge $-1 $347 $348 $146 $244 forward $236 $-1 #
edge $-1 $349 -78.342310161843955 $248 -67.841138533568596 $243 $350 forward 7 unknown #
edge $-1 $249 101.45798254223756 $349 115.81652272103031 $147 $351 forward 7 unknown #
coedge $-1 $148 $341 $347 $352 forward $247 $-1 #
loop $-1 $-1 $341 $235 #
vertex $-1 $244 $353 #
vertex $-1 $149 $354 #
straight-curve $-1 31.812213690471694 17.159177738480839 17.506072399887756 -1 0 0 I I #
coedge $-1 $251 $251 $-1 $355 reversed $152 $-1 #
edge $-1 $356 0 $356 6.2831853071796004 $153 $357 forward 7 unknown #
vertex $-1 $156 $358 #
ellipse-curve $-1 53.01201099672884 12.260892161035912 12.255486585750077 0.73135370988377701 0 0.68199835119979291 0.34099917559989645 0 -0.36567685494188851 1 I I #
coedge $-1 $255 $255 $-1 $359 reversed $159 $-1 #
edge $-1 $360 0 $360 6.2831853071796004 $160 $361 forward 7 unknown #
vertex $-1 $163 $362 #
ellipse-curve $-1 53.01201099672884 14.097749252577756 12.255486585750077 0.73135370988377701 0 0.68199835119979291 0.34099917559989645 0 -0.36567685494188851 1 I I #
coedge $-1 $259 $259 $-1 $363 reversed $166 $-1 #
edge $-1 $364 0 $364 6.2831853071796004 $167 $365 forward 7 unknown #
vertex $-1 $170 $366 #
ellipse-curve $-1 53.01201099672884 15.934606344119601 12.255486585750077 0.73135370988377701 0 0.68199835119979291 0.34099917559989645 0 -0.36567685494188851 1 I I #
face $-1 $-1 $275 $36 $-1 $367 forward single #
loop $-1 $-1 $368 $171 #
plane-surface $-1 -57.908261360515155 0 0 1 0 0 0 0 -1 forward_v I I I I #
coedge $-1 $369 $370 $268 $371 forward $172 $-1 #
coedge $-1 $372 $174 $176 $273 forward $108 $-1 #
coedge $-1 $174 $372 $266 $371 reversed $108 $-1 #
coedge $-1 $373 $177 $174 $270 forward $275 $-1 #
edge $-1 $277 9.9951152960064071 $374 23.665994550323507 $269 $375 forward 7 unknown #
coedge $-1 $376 $368 $175 $272 forward $264 $-1 #
edge $-1 $377 -34.201702225787002 $276 -22.73765003262152 $271 $378 forward 7 unknown #
edge $-1 $277 -14.965257136358153 $377 -2.2061860048766535e-014 $176 $379 forward 7 unknown #
coedge $-1 $177 $373 $376 $380 forward $275 $-1 #
loop $-1 $-1 $269 $263 #
vertex $-1 $272 $381 #
vertex $-1 $178 $382 #
straight-curve $-1 -73.314432986026588 26.825670219171364 17.506072399887753 1 0 0 I I #
coedge $-1 $279 $279 $-1 $383 reversed $181 $-1 #
edge $-1 $384 0 $384 6.2831853071796004 $182 $385 forward 7 unknown #
vertex $-1 $185 $386 #
ellipse-curve $-1 -53.098520502898822 29.559846070034787 11.774046303305008 -0.7660444514056185 0 0.64278759981090561 0.64278759981090561 0 0.7660444514056185 1 I I #
coedge $-1 $283 $283 $-1 $387 reversed $188 $-1 #
edge $-1 $388 0 $388 6.2831853071796004 $189 $389 forward 7 unknown #
vertex $-1 $192 $390 #
ellipse-curve $-1 -53.098520502898822 33.661109846329914 11.774046303305008 -0.7660444514056185 0 0.64278759981090561 0.64278759981090561 0 0.7660444514056185 1 I I #
coedge $-1 $287 $287 $-1 $391 reversed $195 $-1 #
edge $-1 $392 0 $392 6.2831853071796004 $196 $393 forward 7 unknown #
vertex $-1 $199 $394 #
ellipse-curve $-1 -53.098520502898822 37.762373622625041 11.774046303305008 -0.7660444514056185 0 0.64278759981090561 0.64278759981090561 0 0.7660444514056185 1 I I #
face $-1 $-1 $215 $30 $-1 $395 reversed single #
loop $-1 $-1 $306 $200 #
plane-surface $-1 0 40.496549473488464 0 0 -1 0 0 0 -1 forward_v I I I I #
coedge $-1 $396 $304 $307 $397 forward $201 $-1 #
coedge $-1 $203 $310 $204 $298 reversed $127 $-1 #
edge $-1 $216 -17.506072399887753 $302 17.506072399887753 $213 $398 forward 7 unknown #
coedge $-1 $205 $204 $396 $399 forward $81 $-1 #
edge $-1 $302 -57.908261360515155 $400 57.908261360515155 $295 $401 forward 7 unknown #
coedge $-1 $307 $306 $205 $300 reversed $292 $-1 #
edge $-1 $402 -57.908261360515155 $301 57.908261360515155 $299 $403 forward 7 unknown #
vertex $-1 $207 $404 #
vertex $-1 $296 $405 #
straight-curve $-1 57.908261360515155 0 -17.506072399887753 0 -1 0 I I #
coedge $-1 $294 $406 $208 $305 reversed $201 $-1 #
edge $-1 $308 -40.496549473488464 $311 40.496549473488464 $304 $407 forward 7 unknown #
coedge $-1 $299 $209 $214 $313 forward $292 $-1 #
coedge $-1 $209 $299 $294 $397 reversed $292 $-1 #
vertex $-1 $210 $408 #
straight-curve $-1 0 40.496549473488464 17.506072399887753 -1 0 0 I I #
coedge $-1 $295 $211 $406 $409 forward $127 $-1 #
vertex $-1 $305 $410 #
straight-curve $-1 0 -40.496549473488464 17.506072399887753 1 0 0 I I #
edge $-1 $217 -17.506072399887753 $301 17.506072399887753 $214 $411 forward 7 unknown #
point $-1 57.908261360515155 -40.496549473488464 17.506072399887753 #
point $-1 57.908261360515155 40.496549473488464 17.506072399887753 #
face $-1 $-1 $330 $31 $-1 $412 reversed single #
loop $-1 $-1 $413 $219 #
plane-surface $-1 0 -60.787202383984784 -14.628071319198177 0 1 0 0 0 1 forward_v I I I I #
coedge $-1 $414 $222 $231 $334 reversed $135 $-1 #
coedge $-1 $222 $414 $223 $322 reversed $135 $-1 #
coedge $-1 $224 $223 $415 $416 forward $85 $-1 #
edge $-1 $326 40.496549473488464 $417 60.787202383984784 $320 $418 forward 7 unknown #
coedge $-1 $419 $228 $224 $324 reversed $330 $-1 #
edge $-1 $420 -60.787202383984784 $325 -40.496549473488464 $323 $421 forward 7 unknown #
vertex $-1 $229 $422 #
vertex $-1 $322 $423 #
straight-curve $-1 0 -40.496549473488464 -17.506072399887753 1 0 0 I I #
straight-curve $-1 57.908261360515155 -40.496549473488464 0 0 0 1 I I #
coedge $-1 $228 $419 $230 $333 reversed $330 $-1 #
loop $-1 $-1 $228 $316 #
straight-curve $-1 -57.908261360515155 -40.496549473488464 0 0 0 -1 I I #
coedge $-1 $231 $230 $424 $425 forward $220 $-1 #
edge $-1 $232 -10.14532645524816 $426 10.14532645524816 $329 $427 forward 7 unknown #
edge $-1 $428 -10.14532645524816 $233 10.14532645524816 $319 $429 forward 7 unknown #
point $-1 -57.908261360515155 -40.496549473488464 -11.750070238508602 #
point $-1 57.908261360515155 -40.496549473488464 -11.750070238508602 #
plane-surface $-1 0 0 17.506072399887753 0 0 1 1 0 0 forward_v I I I I #
coedge $-1 $348 $347 $340 $430 forward $236 $-1 #
coedge $-1 $340 $238 $240 $344 reversed $143 $-1 #
coedge $-1 $238 $339 $338 $430 reversed $143 $-1 #
coedge $-1 $246 $241 $238 $342 forward $247 $-1 #
edge $-1 $345 16.303546942470817 $431 26.096047670043461 $341 $432 forward 7 unknown #
coedge $-1 $240 $239 $348 $433 reversed $89 $-1 #
edge $-1 $434 -115.81652272103031 $345 -101.45798254223756 $339 $435 forward 7 unknown #
vertex $-1 $242 $436 #
straight-curve $-1 48.115760632942504 7.0488746262888817 17.506072399887763 0 -1 0 I I #
coedge $-1 $338 $243 $246 $352 reversed $236 $-1 #
coedge $-1 $243 $338 $343 $433 forward $236 $-1 #
vertex $-1 $244 $437 #
straight-curve $-1 57.908261360515155 17.159177738480839 85.347210933456353 0 0 1 I I #
straight-curve $-1 -21.078416176920882 17.159177738480839 91.707744329476682 0.68199835119979291 0 -0.73135370988377701 I I #
edge $-1 $431 11.036320766674688 $248 17.159177738480839 $347 $438 forward 7 unknown #
point $-1 57.908261360515155 17.159177738480839 17.506072399887753 #
point $-1 48.115760632942511 17.159177738480839 17.506072399887756 #
edge $-1 $439 1 $439 0 $251 $-1 forward 7 unknown #
vertex $-1 $252 $440 #
ellipse-curve $-1 51.552283273615529 12.260892161035912 10.894268495365182 0.73135370988377701 0 0.68199835119979291 0.34099917559989645 0 -0.36567685494188851 1 I I #
point $-1 53.353010172328744 12.260892161035912 11.889809730808194 #
edge $-1 $441 1 $441 0 $255 $-1 forward 7 unknown #
vertex $-1 $256 $442 #
ellipse-curve $-1 51.552283273615529 14.097749252577756 10.894268495365182 0.73135370988377701 0 0.68199835119979291 0.34099917559989645 0 -0.36567685494188851 1 I I #
point $-1 53.353010172328744 14.097749252577756 11.889809730808194 #
edge $-1 $443 1 $443 0 $259 $-1 forward 7 unknown #
vertex $-1 $260 $444 #
ellipse-curve $-1 51.552283273615529 15.934606344119601 10.894268495365182 0.73135370988377701 0 0.68199835119979291 0.34099917559989645 0 -0.36567685494188851 1 I I #
point $-1 53.353010172328744 15.934606344119601 11.889809730808194 #
plane-surface $-1 0 0 17.506072399887753 0 0 1 1 0 0 forward_v I I I I #
coedge $-1 $271 $445 $372 $446 forward $264 $-1 #
coedge $-1 $370 $266 $445 $447 reversed $172 $-1 #
coedge $-1 $266 $369 $373 $448 reversed $172 $-1 #
edge $-1 $374 1.3318710008958199 $449 16.297128137253949 $266 $450 forward 7 unknown #
coedge $-1 $268 $267 $368 $446 reversed $108 $-1 #
coedge $-1 $274 $269 $370 $448 forward $275 $-1 #
vertex $-1 $448 $451 #
straight-curve $-1 -48.288779645282482 16.830554923164957 17.506072399887753 0 1 0 I I #
coedge $-1 $445 $271 $274 $380 reversed $264 $-1 #
vertex $-1 $272 $452 #
straight-curve $-1 -57.908261360515155 26.825670219171364 40.243722432509273 0 0 1 I I #
straight-curve $-1 -57.908261360515169 26.825670219171364 6.0420202067222561 -0.64278759981090561 0 -0.7660444514056185 I I #
edge $-1 $453 -40.496549473488464 $276 -26.825670219171364 $376 $454 forward 7 unknown #
point $-1 -57.908261360515155 26.825670219171364 17.506072399887753 #
point $-1 -48.288779645282489 26.825670219171364 17.506072399887753 #
edge $-1 $455 1 $455 0 $279 $-1 forward 7 unknown #
vertex $-1 $280 $456 #
ellipse-curve $-1 -51.782542776234116 29.559846070034787 10.669809907133368 -0.7660444514056185 0 0.64278759981090561 0.64278759981090561 0 0.7660444514056185 1 I I #
point $-1 -52.455732903087913 29.559846070034787 12.54009075471062 #
edge $-1 $457 1 $457 0 $283 $-1 forward 7 unknown #
vertex $-1 $284 $458 #
ellipse-curve $-1 -51.782542776234116 33.661109846329914 10.669809907133368 -0.7660444514056185 0 0.64278759981090561 0.64278759981090561 0 0.7660444514056185 1 I I #
point $-1 -52.455732903087913 33.661109846329914 12.54009075471062 #
edge $-1 $459 1 $459 0 $287 $-1 forward 7 unknown #
vertex $-1 $288 $460 #
ellipse-curve $-1 -51.782542776234116 37.762373622625041 10.669809907133368 -0.7660444514056185 0 0.64278759981090561 0.64278759981090561 0 0.7660444514056185 1 I I #
point $-1 -52.455732903087913 37.762373622625041 12.54009075471062 #
plane-surface $-1 57.908261360515155 0 0 -1 0 0 0 0 1 forward_v I I I I #
coedge $-1 $406 $294 $297 $399 reversed $201 $-1 #
edge $-1 $308 -17.506072399887753 $402 17.506072399887753 $307 $461 forward 7 unknown #
straight-curve $-1 57.908261360515155 -40.496549473488464 0 0 0 -1 I I #
edge $-1 $400 -40.496549473488464 $402 40.496549473488464 $396 $462 forward 7 unknown #
vertex $-1 $399 $463 #
straight-curve $-1 0 -40.496549473488464 -17.506072399887753 -1 0 0 I I #
vertex $-1 $300 $464 #
straight-curve $-1 0 40.496549473488464 -17.506072399887753 1 0 0 I I #
point $-1 57.908261360515155 40.496549473488464 -17.506072399887753 #
point $-1 57.908261360515155 -40.496549473488464 -17.506072399887753 #
coedge $-1 $304 $396 $310 $409 reversed $201 $-1 #
straight-curve $-1 -57.908261360515155 0 17.506072399887753 0 -1 0 I I #
point $-1 -57.908261360515155 40.496549473488464 17.506072399887753 #
edge $-1 $311 -17.506072399887753 $400 17.506072399887753 $406 $465 forward 7 unknown #
point $-1 -57.908261360515155 -40.496549473488464 17.506072399887753 #
straight-curve $-1 57.908261360515155 40.496549473488464 0 0 0 -1 I I #
plane-surface $-1 -57.908261360515155 0 0 1 0 0 0 0 -1 forward_v I I I I #
coedge $-1 $415 $424 $419 $466 forward $317 $-1 #
coedge $-1 $320 $319 $467 $468 forward $135 $-1 #
coedge $-1 $467 $413 $321 $416 reversed $317 $-1 #
edge $-1 $417 -57.908261360515155 $420 57.908261360515155 $415 $469 forward 7 unknown #
vertex $-1 $468 $470 #
straight-curve $-1 57.908261360515155 0 -17.506072399887753 0 -1 0 I I #
coedge $-1 $329 $323 $413 $466 reversed $330 $-1 #
vertex $-1 $324 $471 #
straight-curve $-1 -57.908261360515155 0 -17.506072399887753 0 1 0 I I #
point $-1 -57.908261360515155 -40.496549473488464 -17.506072399887753 #
point $-1 57.908261360515155 -40.496549473488464 -17.506072399887753 #
coedge $-1 $413 $467 $332 $425 reversed $317 $-1 #
edge $-1 $426 -57.908261360515155 $428 57.908261360515155 $424 $472 forward 7 unknown #
vertex $-1 $333 $473 #
straight-curve $-1 -57.908261360515155 -50.641875928736624 -11.750070238508602 0 -1 0 I I #
vertex $-1 $334 $474 #
straight-curve $-1 57.908261360515155 -50.641875928736624 -11.750070238508602 0 1 0 I I #
edge $-1 $431 67.841138533568596 $434 78.342310161843955 $338 $475 forward 7 unknown #
vertex $-1 $352 $476 #
straight-curve $-1 31.812213690471694 11.036320766674688 17.506072399887756 1 0 0 I I #
edge $-1 $434 3.9874461403858064 $349 10.110303112191957 $348 $477 forward 7 unknown #
vertex $-1 $433 $478 #
straight-curve $-1 -21.078416176920882 11.036320766674688 91.707744329476682 -0.68199835119979291 0 0.73135370988377701 I I #
point $-1 48.115760632942511 11.036320766674688 17.506072399887756 #
point $-1 57.908261360515155 17.159177738480839 7.0049007716123981 #
straight-curve $-1 57.908261360515155 0 17.506072399887753 0 1 0 I I #
vertex $-1 $355 $479 #
point $-1 51.893282449215427 12.260892161035912 10.528591640423294 #
vertex $-1 $359 $480 #
point $-1 51.893282449215427 14.097749252577756 10.528591640423294 #
vertex $-1 $363 $481 #
point $-1 51.893282449215427 15.934606344119601 10.528591640423294 #
coedge $-1 $368 $376 $369 $447 forward $264 $-1 #
edge $-1 $449 -23.665994550323507 $377 -9.9951152960064071 $368 $482 forward 7 unknown #
edge $-1 $453 -17.506072399887753 $449 -6.042020206722273 $369 $483 forward 7 unknown #
edge $-1 $374 48.288779645282489 $453 57.908261360515155 $370 $484 forward 7 unknown #
vertex $-1 $371 $485 #
straight-curve $-1 -47.432669481358914 40.496549473488464 18.526344790112041 -0.64278759981090572 0 -0.76604445140561861 I I #
point $-1 -48.288779645282489 40.496549473488464 17.506072399887753 #
point $-1 -57.908261360515155 26.825670219171364 6.042020206722273 #
vertex $-1 $448 $486 #
straight-curve $-1 -57.908261360515155 0 17.506072399887753 0 -1 0 I I #
vertex $-1 $383 $487 #
point $-1 -51.139755176423208 29.559846070034787 11.435854358538986 #
vertex $-1 $387 $488 #
point $-1 -51.139755176423208 33.661109846329914 11.435854358538986 #
vertex $-1 $391 $489 #
point $-1 -51.139755176423208 37.762373622625041 11.435854358538986 #
straight-curve $-1 -57.908261360515155 40.496549473488464 0 0 0 -1 I I #
straight-curve $-1 -57.908261360515155 0 -17.506072399887753 0 1 0 I I #
point $-1 -57.908261360515155 -40.496549473488464 -17.506072399887753 #
point $-1 -57.908261360515155 40.496549473488464 -17.506072399887753 #
straight-curve $-1 -57.908261360515155 -40.496549473488464 0 0 0 -1 I I #
edge $-1 $426 -2.8780010806895753 $420 2.8780010806895753 $419 $490 forward 7 unknown #
coedge $-1 $424 $415 $414 $468 reversed $317 $-1 #
edge $-1 $428 -2.8780010806895753 $417 2.8780010806895753 $414 $491 forward 7 unknown #
straight-curve $-1 0 -60.787202383984784 -17.506072399887753 -1 0 0 I I #
point $-1 57.908261360515155 -60.787202383984784 -17.506072399887753 #
point $-1 -57.908261360515155 -60.787202383984784 -17.506072399887753 #
straight-curve $-1 0 -60.787202383984784 -11.750070238508602 1 0 0 I I #
point $-1 -57.908261360515155 -60.787202383984784 -11.750070238508602 #
point $-1 57.908261360515155 -60.787202383984784 -11.750070238508602 #
straight-curve $-1 57.908261360515155 11.036320766674688 85.347210933456353 0 0 -1 I I #
point $-1 57.908261360515155 11.036320766674688 17.506072399887753 #
straight-curve $-1 57.908261360515141 7.0488746262888817 7.0049007716124052 0 1 0 I I #
point $-1 57.908261360515155 11.036320766674688 7.0049007716123981 #
point $-1 51.186606418673648 12.260892161035912 10.553269319765285 #
point $-1 51.186606418673648 14.097749252577756 10.553269319765285 #
point $-1 51.186606418673648 15.934606344119601 10.553269319765285 #
straight-curve $-1 -57.908261360515155 16.830554923164957 6.0420202067222704 0 -1 0 I I #
straight-curve $-1 -57.908261360515155 40.496549473488464 0 0 0 -1 I I #
straight-curve $-1 0 40.496549473488464 17.506072399887753 -1 0 0 I I #
point $-1 -57.908261360515155 40.496549473488464 6.042020206722273 #
point $-1 -57.908261360515155 40.496549473488464 17.506072399887753 #
point $-1 -51.016498324828497 29.559846070034787 10.027022307322463 #
point $-1 -51.016498324828497 33.661109846329914 10.027022307322463 #
point $-1 -51.016498324828497 37.762373622625041 10.027022307322463 #
straight-curve $-1 -57.908261360515155 -60.787202383984784 -14.628071319198177 0 0 -1 I I #
straight-curve $-1 57.908261360515155 -60.787202383984784 -14.628071319198177 0 0 -1 I I #
End-of-ACIS-data 