500 0 15 0           
7 Unknown 11 ACIS 5.0 NT 24 Fri Mar 26 00:06:07 1999 
-1 9.9999999999999995e-007 1e-010 
body $-1 $15 $-1 $16 #
body $-1 $17 $-1 $18 #
body $-1 $19 $-1 $20 #
body $-1 $21 $-1 $22 #
body $-1 $23 $-1 $24 #
body $-1 $25 $-1 $26 #
body $-1 $27 $-1 $28 #
body $-1 $29 $-1 $30 #
body $-1 $31 $-1 $32 #
body $-1 $33 $-1 $34 #
body $-1 $35 $-1 $36 #
body $-1 $37 $-1 $38 #
body $-1 $39 $-1 $40 #
body $-1 $41 $-1 $42 #
body $-1 $43 $-1 $44 #
lump $-1 $-1 $45 $0 #
transform $-1 1 0 0 0 1 0 0 0 1 44.737693411053804 30.742947745211865 15.015978926450936 1 rotate no_reflect no_shear #
lump $-1 $-1 $46 $1 #
transform $-1 1 0 0 0 1 0 0 0 1 44.737693411053804 30.742947745211865 15.015978926450936 1 rotate no_reflect no_shear #
lump $-1 $-1 $47 $2 #
transform $-1 1 0 0 0 1 0 0 0 1 44.737693411053804 30.742947745211865 15.015978926450936 1 rotate no_reflect no_shear #
lump $-1 $-1 $48 $3 #
transform $-1 1 0 0 0 1 0 0 0 1 44.737693411053804 30.742947745211865 15.015978926450936 1 rotate no_reflect no_shear #
lump $-1 $-1 $49 $4 #
transform $-1 1 0 0 0 1 0 0 0 1 44.737693411053804 30.742947745211865 15.015978926450936 1 rotate no_reflect no_shear #
lump $-1 $-1 $50 $5 #
transform $-1 1 0 0 0 1 0 0 0 1 44.737693411053804 30.742947745211865 15.015978926450936 1 rotate no_reflect no_shear #
lump $-1 $-1 $51 $6 #
transform $-1 1 0 0 0 1 0 0 0 1 44.737693411053804 30.742947745211865 15.015978926450936 1 rotate no_reflect no_shear #
lump $-1 $-1 $52 $7 #
transform $-1 1 0 0 0 1 0 0 0 1 44.737693411053804 30.742947745211865 15.015978926450936 1 rotate no_reflect no_shear #
lump $-1 $-1 $53 $8 #
transform $-1 1 0 0 0 1 0 0 0 1 44.737693411053804 30.742947745211865 15.015978926450936 1 rotate no_reflect no_shear #
lump $-1 $-1 $54 $9 #
transform $-1 1 0 0 0 1 0 0 0 1 44.737693411053804 30.742947745211865 15.015978926450936 1 rotate no_reflect no_shear #
lump $-1 $-1 $55 $10 #
transform $-1 1 0 0 0 1 0 0 0 1 44.737693411053804 30.742947745211865 15.015978926450936 1 rotate no_reflect no_shear #
lump $-1 $-1 $56 $11 #
transform $-1 1 0 0 0 1 0 0 0 1 44.737693411053804 30.742947745211865 15.015978926450936 1 rotate no_reflect no_shear #
lump $-1 $-1 $57 $12 #
transform $-1 1 0 0 0 1 0 0 0 1 44.737693411053804 30.742947745211865 15.015978926450936 1 rotate no_reflect no_shear #
lump $-1 $-1 $58 $13 #
transform $-1 1 0 0 0 1 0 0 0 1 44.737693411053804 30.742947745211865 15.015978926450936 1 rotate no_reflect no_shear #
lump $-1 $-1 $59 $14 #
transform $-1 1 0 0 0 1 0 0 0 1 44.737693411053804 30.742947745211865 15.015978926450936 1 rotate no_reflect no_shear #
shell $-1 $-1 $-1 $60 $-1 $15 #
shell $-1 $-1 $-1 $61 $-1 $17 #
shell $-1 $-1 $-1 $62 $-1 $19 #
shell $-1 $-1 $-1 $63 $-1 $21 #
shell $-1 $-1 $-1 $64 $-1 $23 #
shell $-1 $-1 $-1 $65 $-1 $25 #
shell $-1 $-1 $-1 $66 $-1 $27 #
shell $-1 $-1 $-1 $67 $-1 $29 #
shell $-1 $-1 $-1 $68 $-1 $31 #
shell $-1 $-1 $-1 $69 $-1 $33 #
shell $-1 $-1 $-1 $70 $-1 $35 #
shell $-1 $-1 $-1 $71 $-1 $37 #
shell $-1 $-1 $-1 $72 $-1 $39 #
shell $-1 $-1 $-1 $73 $-1 $41 #
shell $-1 $-1 $-1 $74 $-1 $43 #
face $-1 $75 $76 $45 $-1 $77 forward single #
face $-1 $78 $79 $46 $-1 $80 forward single #
face $-1 $81 $82 $47 $-1 $83 forward single #
face $-1 $84 $85 $48 $-1 $86 reversed single #
face $-1 $87 $88 $49 $-1 $89 forward single #
face $-1 $90 $91 $50 $-1 $92 reversed single #
face $-1 $93 $94 $51 $-1 $95 forward single #
face $-1 $96 $97 $52 $-1 $98 reversed single #
face $-1 $99 $100 $53 $-1 $101 forward single #
face $-1 $102 $103 $54 $-1 $104 reversed single #
face $-1 $105 $106 $55 $-1 $107 forward single #
face $-1 $108 $109 $56 $-1 $110 reversed single #
face $-1 $111 $112 $57 $-1 $113 forward single #
face $-1 $114 $115 $58 $-1 $116 reversed single #
face $-1 $117 $118 $59 $-1 $119 forward single #
face $-1 $120 $121 $45 $-1 $122 reversed single #
loop $-1 $-1 $123 $60 #
plane-surface $-1 0 0 15.015978926450936 0 0 1 1 0 0 forward_v I I I I #
face $-1 $124 $125 $46 $-1 $126 reversed single #
loop $-1 $-1 $127 $61 #
plane-surface $-1 0 -24.102546138780028 1.362270581840014 0 0 1 1 0 0 forward_v I I I I #
face $-1 $128 $129 $47 $-1 $130 reversed single #
loop $-1 $-1 $131 $62 #
plane-surface $-1 0 24.102546138780028 1.362270581840014 0 0 1 1 0 0 forward_v I I I I #
face $-1 $132 $133 $48 $-1 $134 reversed single #
loop $-1 $-1 $135 $63 #
plane-surface $-1 -112.26562578146044 -5.8207148441160594 60.132402763469777 0 -1 0 0.75470958851134928 0 -0.65605901945558964 forward_v I I I I #
face $-1 $136 $137 $49 $-1 $138 forward single #
loop $-1 $139 $140 $64 #
cone-surface $-1 -38.037786679140567 -9.005912315883208 7.5321907850384067 0.75470958851134928 0 -0.65605901945558964 0.98408852918338452 0 1.132064382767024 1 I I 0 1 1.5 forward I I I I #
face $-1 $141 $142 $50 $-1 $143 reversed single #
loop $-1 $-1 $144 $65 #
plane-surface $-1 -112.26562578146044 3.1851974717671521 60.132402763469777 0 -1 0 0.75470958851134928 0 -0.65605901945558964 forward_v I I I I #
face $-1 $145 $146 $51 $-1 $147 forward single #
loop $-1 $148 $149 $66 #
cone-surface $-1 -38.037786679140567 3.5527136788005009e-015 7.5321907850384067 0.75470958851134928 0 -0.65605901945558964 0.98408852918338452 0 1.132064382767024 1 I I 0 1 1.5 forward I I I I #
face $-1 $150 $151 $52 $-1 $152 reversed single #
loop $-1 $-1 $153 $67 #
plane-surface $-1 -112.26562578146044 12.191109787650364 60.132402763469777 0 -1 0 0.75470958851134928 0 -0.65605901945558964 forward_v I I I I #
face $-1 $154 $155 $53 $-1 $156 forward single #
loop $-1 $157 $158 $68 #
cone-surface $-1 -38.037786679140567 9.0059123158832151 7.5321907850384067 0.75470958851134928 0 -0.65605901945558964 0.98408852918338452 0 1.132064382767024 1 I I 0 1 1.5 forward I I I I #
face $-1 $159 $160 $54 $-1 $161 reversed single #
loop $-1 $-1 $162 $69 #
plane-surface $-1 53.564491237538938 -12.191109787650356 127.6603351338764 0 1 0 0.75470958851134928 0 0.65605901945558964 forward_v I I I I #
face $-1 $163 $164 $55 $-1 $165 forward single #
loop $-1 $166 $167 $70 #
cone-surface $-1 38.037786679140559 -9.005912315883208 7.5321907850383996 -0.75470958851134928 0 -0.65605901945558964 0.98408852918338452 0 -1.132064382767024 1 I I 0 1 1.5 forward I I I I #
face $-1 $168 $169 $56 $-1 $170 reversed single #
loop $-1 $-1 $171 $71 #
plane-surface $-1 53.564491237538938 -3.185197471767145 127.6603351338764 0 1 0 0.75470958851134928 0 0.65605901945558964 forward_v I I I I #
face $-1 $172 $173 $57 $-1 $174 forward single #
loop $-1 $175 $176 $72 #
cone-surface $-1 38.037786679140559 3.5527136788005009e-015 7.5321907850383996 -0.75470958851134928 0 -0.65605901945558964 0.98408852918338452 0 -1.132064382767024 1 I I 0 1 1.5 forward I I I I #
face $-1 $177 $178 $58 $-1 $179 reversed single #
loop $-1 $-1 $180 $73 #
plane-surface $-1 53.564491237538938 5.8207148441160665 127.6603351338764 0 1 0 0.75470958851134928 0 0.65605901945558964 forward_v I I I I #
face $-1 $181 $182 $59 $-1 $183 forward single #
loop $-1 $184 $185 $74 #
cone-surface $-1 38.037786679140559 9.0059123158832151 7.5321907850383996 -0.75470958851134928 0 -0.65605901945558964 0.98408852918338452 0 -1.132064382767024 1 I I 0 1 1.5 forward I I I I #
face $-1 $186 $187 $45 $-1 $188 reversed single #
loop $-1 $-1 $189 $75 #
plane-surface $-1 0 0 -15.015978926450936 0 0 1 1 0 0 forward_v I I I I #
coedge $-1 $190 $191 $192 $193 forward $76 $-1 #
face $-1 $194 $195 $46 $-1 $196 reversed single #
loop $-1 $-1 $197 $78 #
plane-surface $-1 0 -24.102546138780028 -5.7711786556526006 0 0 1 1 0 0 forward_v I I I I #
coedge $-1 $198 $199 $200 $201 reversed $79 $-1 #
face $-1 $202 $203 $47 $-1 $204 reversed single #
loop $-1 $-1 $205 $81 #
plane-surface $-1 0 24.102546138780028 -5.7711786556526006 0 0 1 1 0 0 forward_v I I I I #
coedge $-1 $206 $207 $208 $209 reversed $82 $-1 #
face $-1 $210 $211 $48 $-1 $212 reversed single #
loop $-1 $-1 $213 $84 #
plane-surface $-1 -44.737693411053812 -9.005912315883208 1.4312682195482722 -0.75470958851134928 0 0.65605901945558964 0.65605901945558964 0 0.75470958851134928 forward_v I I I I #
coedge $-1 $214 $215 $216 $217 reversed $85 $-1 #
face $-1 $-1 $218 $49 $-1 $219 forward single #
loop $-1 $220 $221 $87 #
cone-surface $-1 -36.676352032474185 -9.005912315883208 6.3487137324855194 0.75470958851134928 0 -0.65605901945558964 0.49204426459169226 0 0.56603219138351202 1 I I -0.70710678118654757 0.70710678118654757 0.75 forward I I I I #
loop $-1 $-1 $222 $64 #
coedge $-1 $140 $140 $223 $224 reversed $88 $-1 #
face $-1 $225 $226 $50 $-1 $227 reversed single #
loop $-1 $-1 $228 $90 #
plane-surface $-1 -44.737693411053812 3.5527136788005009e-015 1.4312682195482722 -0.75470958851134928 0 0.65605901945558964 0.65605901945558964 0 0.75470958851134928 forward_v I I I I #
coedge $-1 $229 $230 $231 $232 reversed $91 $-1 #
face $-1 $-1 $233 $51 $-1 $234 forward single #
loop $-1 $235 $236 $93 #
cone-surface $-1 -36.676352032474185 3.5527136788005009e-015 6.3487137324855194 0.75470958851134928 0 -0.65605901945558964 0.49204426459169226 0 0.56603219138351202 1 I I -0.70710678118654757 0.70710678118654757 0.75 forward I I I I #
loop $-1 $-1 $237 $66 #
coedge $-1 $149 $149 $238 $239 reversed $94 $-1 #
face $-1 $240 $241 $52 $-1 $242 reversed single #
loop $-1 $-1 $243 $96 #
plane-surface $-1 -44.737693411053812 9.0059123158832151 1.4312682195482722 -0.75470958851134928 0 0.65605901945558964 0.65605901945558964 0 0.75470958851134928 forward_v I I I I #
coedge $-1 $244 $245 $246 $247 reversed $97 $-1 #
face $-1 $-1 $248 $53 $-1 $249 forward single #
loop $-1 $250 $251 $99 #
cone-surface $-1 -36.676352032474185 9.0059123158832151 6.3487137324855194 0.75470958851134928 0 -0.65605901945558964 0.49204426459169226 0 0.56603219138351202 1 I I -0.70710678118654757 0.70710678118654757 0.75 forward I I I I #
loop $-1 $-1 $252 $68 #
coedge $-1 $158 $158 $253 $254 reversed $100 $-1 #
face $-1 $255 $256 $54 $-1 $257 reversed single #
loop $-1 $-1 $258 $102 #
plane-surface $-1 -13.963441132867693 -9.005912315883208 68.959200589954889 0.75470958851134928 0 0.65605901945558964 0.65605901945558964 0 -0.75470958851134928 forward_v I I I I #
coedge $-1 $259 $260 $261 $262 reversed $103 $-1 #
face $-1 $-1 $263 $55 $-1 $264 forward single #
loop $-1 $265 $266 $105 #
cone-surface $-1 36.676352032474178 -9.005912315883208 6.3487137324855123 -0.75470958851134928 0 -0.65605901945558964 0.49204426459169226 0 -0.56603219138351202 1 I I -0.70710678118654757 0.70710678118654757 0.75 forward I I I I #
loop $-1 $-1 $267 $70 #
coedge $-1 $167 $167 $268 $269 reversed $106 $-1 #
face $-1 $270 $271 $56 $-1 $272 reversed single #
loop $-1 $-1 $273 $108 #
plane-surface $-1 -13.963441132867693 3.5527136788005009e-015 68.959200589954889 0.75470958851134928 0 0.65605901945558964 0.65605901945558964 0 -0.75470958851134928 forward_v I I I I #
coedge $-1 $274 $275 $276 $277 reversed $109 $-1 #
face $-1 $-1 $278 $57 $-1 $279 forward single #
loop $-1 $280 $281 $111 #
cone-surface $-1 36.676352032474178 3.5527136788005009e-015 6.3487137324855123 -0.75470958851134928 0 -0.65605901945558964 0.49204426459169226 0 -0.56603219138351202 1 I I -0.70710678118654757 0.70710678118654757 0.75 forward I I I I #
loop $-1 $-1 $282 $72 #
coedge $-1 $176 $176 $283 $284 reversed $112 $-1 #
face $-1 $285 $286 $58 $-1 $287 reversed single #
loop $-1 $-1 $288 $114 #
plane-surface $-1 -13.963441132867693 9.0059123158832151 68.959200589954889 0.75470958851134928 0 0.65605901945558964 0.65605901945558964 0 -0.75470958851134928 forward_v I I I I #
coedge $-1 $289 $290 $291 $292 reversed $115 $-1 #
face $-1 $-1 $293 $59 $-1 $294 forward single #
loop $-1 $295 $296 $117 #
cone-surface $-1 36.676352032474178 9.0059123158832151 6.3487137324855123 -0.75470958851134928 0 -0.65605901945558964 0.49204426459169226 0 -0.56603219138351202 1 I I -0.70710678118654757 0.70710678118654757 0.75 forward I I I I #
loop $-1 $-1 $297 $74 #
coedge $-1 $185 $185 $298 $299 reversed $118 $-1 #
face $-1 $300 $301 $45 $-1 $302 reversed single #
loop $-1 $-1 $303 $120 #
plane-surface $-1 0 -30.742947745211865 0 0 1 0 0 0 1 forward_v I I I I #
coedge $-1 $304 $305 $306 $307 forward $121 $-1 #
coedge $-1 $308 $123 $309 $310 forward $76 $-1 #
coedge $-1 $123 $308 $311 $312 forward $76 $-1 #
coedge $-1 $313 $314 $123 $193 reversed $315 $-1 #
edge $-1 $316 -30.742947745211865 $317 30.742947745211865 $192 $318 forward 7 unknown #
face $-1 $319 $320 $46 $-1 $321 reversed single #
loop $-1 $-1 $322 $124 #
plane-surface $-1 0 -17.462144532348191 -2.2044540369062933 0 -1 0 0 0 -1 forward_v I I I I #
coedge $-1 $323 $324 $325 $326 reversed $125 $-1 #
coedge $-1 $327 $127 $328 $329 forward $79 $-1 #
coedge $-1 $127 $327 $330 $331 reversed $79 $-1 #
coedge $-1 $332 $333 $127 $201 forward $334 $-1 #
edge $-1 $335 5.4108714629581769 $336 18.691674675821851 $200 $337 forward 7 unknown #
face $-1 $338 $339 $47 $-1 $340 reversed single #
loop $-1 $-1 $341 $128 #
plane-surface $-1 0 17.462144532348191 -2.2044540369062933 0 1 0 0 0 1 forward_v I I I I #
coedge $-1 $342 $343 $344 $345 reversed $129 $-1 #
coedge $-1 $346 $131 $347 $348 reversed $82 $-1 #
coedge $-1 $131 $346 $349 $350 forward $82 $-1 #
coedge $-1 $351 $352 $131 $209 forward $339 $-1 #
edge $-1 $353 -18.691674675821851 $354 -5.4108714629581769 $208 $355 forward 7 unknown #
face $-1 $356 $357 $48 $-1 $358 reversed single #
loop $-1 $-1 $359 $132 #
plane-surface $-1 -112.26562578146044 -12.191109787650356 60.132402763469777 0 1 0 -0.75470958851134928 0 0.65605901945558964 forward_v I I I I #
coedge $-1 $360 $361 $362 $363 reversed $133 $-1 #
coedge $-1 $215 $135 $364 $365 reversed $85 $-1 #
coedge $-1 $135 $214 $360 $366 reversed $85 $-1 #
coedge $-1 $362 $367 $135 $217 forward $357 $-1 #
edge $-1 $368 15.050222455283953 $369 28.634933162186609 $216 $370 forward 7 unknown #
loop $-1 $-1 $223 $136 #
plane-surface $-1 -44.737693411053812 -9.005912315883208 1.4312682195482722 -0.75470958851134928 0 0.65605901945558964 0.65605901945558964 0 0.75470958851134928 forward_v I I I I #
loop $-1 $-1 $371 $87 #
coedge $-1 $221 $221 $222 $372 reversed $137 $-1 #
coedge $-1 $222 $222 $221 $372 forward $139 $-1 #
coedge $-1 $223 $223 $140 $224 forward $218 $-1 #
edge $-1 $373 0 $373 6.2831853071796004 $223 $374 forward 7 unknown #
face $-1 $375 $376 $50 $-1 $377 forward single #
loop $-1 $-1 $378 $141 #
plane-surface $-1 -112.26562578146044 -3.185197471767145 60.132402763469777 0 1 0 -0.75470958851134928 0 0.65605901945558964 forward_v I I I I #
coedge $-1 $379 $380 $381 $382 reversed $142 $-1 #
coedge $-1 $230 $144 $383 $384 reversed $91 $-1 #
coedge $-1 $144 $229 $379 $385 reversed $91 $-1 #
coedge $-1 $381 $386 $144 $232 forward $387 $-1 #
edge $-1 $388 15.050222455283953 $389 28.634933162186609 $231 $390 forward 7 unknown #
loop $-1 $-1 $238 $145 #
plane-surface $-1 -44.737693411053812 3.5527136788005009e-015 1.4312682195482722 -0.75470958851134928 0 0.65605901945558964 0.65605901945558964 0 0.75470958851134928 forward_v I I I I #
loop $-1 $-1 $391 $93 #
coedge $-1 $236 $236 $237 $392 reversed $146 $-1 #
coedge $-1 $237 $237 $236 $392 forward $148 $-1 #
coedge $-1 $238 $238 $149 $239 forward $233 $-1 #
edge $-1 $393 0 $393 6.2831853071796004 $238 $394 forward 7 unknown #
face $-1 $395 $396 $52 $-1 $397 forward single #
loop $-1 $-1 $398 $150 #
plane-surface $-1 -112.26562578146044 5.8207148441160665 60.132402763469777 0 1 0 -0.75470958851134928 0 0.65605901945558964 forward_v I I I I #
coedge $-1 $399 $400 $401 $402 reversed $151 $-1 #
coedge $-1 $245 $153 $403 $404 reversed $97 $-1 #
coedge $-1 $153 $244 $399 $405 reversed $97 $-1 #
coedge $-1 $401 $406 $153 $247 forward $407 $-1 #
edge $-1 $408 15.050222455283953 $409 28.634933162186609 $246 $410 forward 7 unknown #
loop $-1 $-1 $253 $154 #
plane-surface $-1 -44.737693411053812 9.0059123158832151 1.4312682195482722 -0.75470958851134928 0 0.65605901945558964 0.65605901945558964 0 0.75470958851134928 forward_v I I I I #
loop $-1 $-1 $411 $99 #
coedge $-1 $251 $251 $252 $412 reversed $155 $-1 #
coedge $-1 $252 $252 $251 $412 forward $157 $-1 #
coedge $-1 $253 $253 $158 $254 forward $248 $-1 #
edge $-1 $413 0 $413 6.2831853071796004 $253 $414 forward 7 unknown #
face $-1 $415 $416 $54 $-1 $417 forward single #
loop $-1 $-1 $418 $159 #
plane-surface $-1 53.564491237538938 -5.8207148441160594 127.6603351338764 0 -1 0 -0.75470958851134928 0 -0.65605901945558964 forward_v I I I I #
coedge $-1 $419 $420 $421 $422 reversed $160 $-1 #
coedge $-1 $260 $162 $423 $424 reversed $103 $-1 #
coedge $-1 $162 $259 $419 $425 reversed $103 $-1 #
coedge $-1 $421 $426 $162 $262 forward $427 $-1 #
edge $-1 $428 48.814188640487266 $429 62.398899347389943 $261 $430 forward 7 unknown #
loop $-1 $-1 $268 $163 #
plane-surface $-1 -13.963441132867693 -9.005912315883208 68.959200589954889 0.75470958851134928 0 0.65605901945558964 0.65605901945558964 0 -0.75470958851134928 forward_v I I I I #
loop $-1 $-1 $431 $105 #
coedge $-1 $266 $266 $267 $432 reversed $164 $-1 #
coedge $-1 $267 $267 $266 $432 forward $166 $-1 #
coedge $-1 $268 $268 $167 $269 forward $263 $-1 #
edge $-1 $433 0 $433 6.2831853071796004 $268 $434 forward 7 unknown #
face $-1 $435 $436 $56 $-1 $437 reversed single #
loop $-1 $-1 $438 $168 #
plane-surface $-1 53.564491237538938 3.1851974717671521 127.6603351338764 0 -1 0 -0.75470958851134928 0 -0.65605901945558964 forward_v I I I I #
coedge $-1 $439 $440 $441 $442 reversed $169 $-1 #
coedge $-1 $275 $171 $443 $444 reversed $109 $-1 #
coedge $-1 $171 $274 $439 $445 reversed $109 $-1 #
coedge $-1 $441 $446 $171 $277 forward $436 $-1 #
edge $-1 $447 48.814188640487266 $448 62.398899347389943 $276 $449 forward 7 unknown #
loop $-1 $-1 $283 $172 #
plane-surface $-1 -13.963441132867693 3.5527136788005009e-015 68.959200589954889 0.75470958851134928 0 0.65605901945558964 0.65605901945558964 0 -0.75470958851134928 forward_v I I I I #
loop $-1 $-1 $450 $111 #
coedge $-1 $281 $281 $282 $451 reversed $173 $-1 #
coedge $-1 $282 $282 $281 $451 forward $175 $-1 #
coedge $-1 $283 $283 $176 $284 forward $278 $-1 #
edge $-1 $452 0 $452 6.2831853071796004 $283 $453 forward 7 unknown #
face $-1 $454 $455 $58 $-1 $456 reversed single #
loop $-1 $-1 $457 $177 #
plane-surface $-1 53.564491237538938 12.191109787650364 127.6603351338764 0 -1 0 -0.75470958851134928 0 -0.65605901945558964 forward_v I I I I #
coedge $-1 $458 $459 $460 $461 reversed $178 $-1 #
coedge $-1 $290 $180 $462 $463 reversed $115 $-1 #
coedge $-1 $180 $289 $458 $464 reversed $115 $-1 #
coedge $-1 $460 $465 $180 $292 forward $455 $-1 #
edge $-1 $466 48.814188640487266 $467 62.398899347389943 $291 $468 forward 7 unknown #
loop $-1 $-1 $298 $181 #
plane-surface $-1 -13.963441132867693 9.0059123158832151 68.959200589954889 0.75470958851134928 0 0.65605901945558964 0.65605901945558964 0 -0.75470958851134928 forward_v I I I I #
loop $-1 $-1 $469 $117 #
coedge $-1 $296 $296 $297 $470 reversed $182 $-1 #
coedge $-1 $297 $297 $296 $470 forward $184 $-1 #
coedge $-1 $298 $298 $185 $299 forward $293 $-1 #
edge $-1 $471 0 $471 6.2831853071796004 $298 $472 forward 7 unknown #
face $-1 $473 $474 $45 $-1 $475 reversed single #
loop $-1 $-1 $476 $186 #
plane-surface $-1 -44.737693411053804 0 0 1 0 0 0 0 -1 forward_v I I I I #
coedge $-1 $477 $311 $478 $479 forward $187 $-1 #
coedge $-1 $480 $189 $477 $481 forward $121 $-1 #
coedge $-1 $189 $480 $482 $483 forward $121 $-1 #
coedge $-1 $314 $313 $189 $307 reversed $315 $-1 #
edge $-1 $484 -30.742947745211865 $485 30.742947745211865 $306 $486 forward 7 unknown #
coedge $-1 $191 $190 $487 $488 forward $76 $-1 #
coedge $-1 $489 $490 $190 $310 reversed $474 $-1 #
edge $-1 $317 -44.737693411053804 $491 44.737693411053804 $309 $492 forward 7 unknown #
coedge $-1 $303 $493 $191 $312 reversed $187 $-1 #
edge $-1 $494 -44.737693411053804 $316 44.737693411053804 $311 $495 forward 7 unknown #
coedge $-1 $306 $192 $493 $496 forward $315 $-1 #
coedge $-1 $192 $306 $489 $497 reversed $315 $-1 #
loop $-1 $-1 $313 $473 #
vertex $-1 $193 $498 #
vertex $-1 $193 $499 #
straight-curve $-1 44.737693411053804 0 15.015978926450936 0 1 0 I I #
face $-1 $500 $501 $46 $-1 $502 reversed single #
loop $-1 $-1 $503 $194 #
plane-surface $-1 -44.737693411053804 0 0 1 0 0 0 0 -1 forward_v I I I I #
coedge $-1 $504 $328 $333 $505 reversed $195 $-1 #
coedge $-1 $506 $197 $507 $508 reversed $125 $-1 #
coedge $-1 $197 $506 $504 $509 forward $125 $-1 #
coedge $-1 $333 $332 $197 $326 forward $334 $-1 #
edge $-1 $510 -18.691674675821851 $511 -5.4108714629581769 $325 $512 forward 7 unknown #
coedge $-1 $199 $198 $503 $513 reversed $79 $-1 #
coedge $-1 $322 $514 $198 $329 reversed $195 $-1 #
edge $-1 $335 -44.737693411053804 $515 44.737693411053804 $328 $516 forward 7 unknown #
coedge $-1 $517 $518 $199 $331 forward $501 $-1 #
edge $-1 $336 -44.737693411053804 $519 44.737693411053804 $330 $520 forward 7 unknown #
coedge $-1 $325 $200 $518 $521 forward $334 $-1 #
coedge $-1 $200 $325 $322 $505 forward $334 $-1 #
loop $-1 $-1 $200 $500 #
vertex $-1 $201 $522 #
vertex $-1 $521 $523 #
straight-curve $-1 44.737693411053804 -12.051273069390014 1.362270581840014 0 -1 0 I I #
face $-1 $524 $525 $47 $-1 $526 reversed single #
loop $-1 $-1 $208 $202 #
plane-surface $-1 44.737693411053804 0 0 -1 0 0 0 0 1 forward_v I I I I #
coedge $-1 $527 $349 $528 $529 reversed $203 $-1 #
coedge $-1 $530 $205 $527 $531 forward $129 $-1 #
coedge $-1 $205 $530 $532 $533 reversed $129 $-1 #
coedge $-1 $352 $351 $205 $345 forward $339 $-1 #
edge $-1 $534 5.4108714629581769 $535 18.691674675821851 $344 $536 forward 7 unknown #
coedge $-1 $207 $206 $537 $538 reversed $82 $-1 #
coedge $-1 $539 $540 $206 $348 forward $541 $-1 #
edge $-1 $542 -44.737693411053804 $353 44.737693411053804 $347 $543 forward 7 unknown #
coedge $-1 $341 $544 $207 $350 reversed $203 $-1 #
edge $-1 $545 -44.737693411053804 $354 44.737693411053804 $349 $546 forward 7 unknown #
coedge $-1 $344 $208 $544 $547 forward $339 $-1 #
coedge $-1 $208 $344 $539 $548 reversed $339 $-1 #
vertex $-1 $548 $549 #
vertex $-1 $209 $550 #
straight-curve $-1 44.737693411053804 12.051273069390014 1.362270581840014 0 -1 0 I I #
face $-1 $-1 $551 $48 $-1 $552 forward single #
loop $-1 $-1 $216 $210 #
plane-surface $-1 -44.737693411053804 0 0 1 0 0 0 0 -1 forward_v I I I I #
coedge $-1 $553 $554 $555 $556 reversed $211 $-1 #
coedge $-1 $557 $213 $215 $366 forward $133 $-1 #
coedge $-1 $213 $557 $553 $558 forward $133 $-1 #
coedge $-1 $555 $216 $213 $363 forward $357 $-1 #
edge $-1 $369 1.3177586861744555 $559 7.6881536297087525 $362 $560 forward 7 unknown #
coedge $-1 $561 $562 $214 $365 forward $551 $-1 #
edge $-1 $563 -23.204128032937142 $368 -11.395119479676417 $364 $564 forward 7 unknown #
edge $-1 $369 1.086200982436365e-014 $563 17.999917999847145 $215 $565 forward 7 unknown #
coedge $-1 $216 $555 $561 $566 reversed $357 $-1 #
vertex $-1 $566 $567 #
vertex $-1 $217 $568 #
straight-curve $-1 -44.737693411053804 -5.8207148441160594 30.066201381734889 0 0 -1 I I #
coedge $-1 $371 $371 $-1 $569 reversed $220 $-1 #
edge $-1 $570 0 $570 6.2831853071796004 $221 $571 forward 7 unknown #
vertex $-1 $224 $572 #
ellipse-curve $-1 -38.833189134423442 -9.005912315883208 8.2236235729996068 -0.75470958851134928 0 0.65605901945558964 0.98408852918338452 0 1.132064382767024 1 I I #
face $-1 $-1 $387 $50 $-1 $573 reversed single #
loop $-1 $-1 $574 $225 #
plane-surface $-1 0 0 15.015978926450936 0 0 1 1 0 0 forward_v I I I I #
coedge $-1 $575 $576 $577 $578 reversed $226 $-1 #
coedge $-1 $579 $228 $230 $385 forward $142 $-1 #
coedge $-1 $228 $579 $575 $580 forward $142 $-1 #
coedge $-1 $577 $231 $228 $382 forward $387 $-1 #
edge $-1 $389 -3.1851974717671503 $581 3.1851974717671467 $381 $582 forward 7 unknown #
coedge $-1 $583 $584 $229 $384 forward $376 $-1 #
edge $-1 $585 -23.204128032937142 $388 -11.395119479676417 $383 $586 forward 7 unknown #
edge $-1 $389 1.086200982436365e-014 $585 17.999917999847145 $230 $587 forward 7 unknown #
coedge $-1 $231 $577 $583 $588 reversed $387 $-1 #
loop $-1 $-1 $577 $375 #
vertex $-1 $588 $589 #
vertex $-1 $232 $590 #
straight-curve $-1 -44.737693411053804 3.1851974717671521 30.066201381734889 0 0 -1 I I #
coedge $-1 $391 $391 $-1 $591 reversed $235 $-1 #
edge $-1 $592 0 $592 6.2831853071796004 $236 $593 forward 7 unknown #
vertex $-1 $239 $594 #
ellipse-curve $-1 -38.833189134423442 3.5527136788005009e-015 8.2236235729996068 -0.75470958851134928 0 0.65605901945558964 0.98408852918338452 0 1.132064382767024 1 I I #
face $-1 $-1 $407 $52 $-1 $595 reversed single #
loop $-1 $-1 $596 $240 #
plane-surface $-1 0 0 15.015978926450936 0 0 1 1 0 0 forward_v I I I I #
coedge $-1 $597 $598 $599 $600 reversed $241 $-1 #
coedge $-1 $601 $243 $245 $405 forward $151 $-1 #
coedge $-1 $243 $601 $597 $602 forward $151 $-1 #
coedge $-1 $599 $246 $243 $402 forward $407 $-1 #
edge $-1 $409 -7.688153629708756 $603 -1.317758686174459 $401 $604 forward 7 unknown #
coedge $-1 $605 $606 $244 $404 forward $396 $-1 #
edge $-1 $607 -23.204128032937142 $408 -11.395119479676417 $403 $608 forward 7 unknown #
edge $-1 $409 1.086200982436365e-014 $607 17.999917999847145 $245 $609 forward 7 unknown #
coedge $-1 $246 $599 $605 $610 reversed $407 $-1 #
loop $-1 $-1 $599 $395 #
vertex $-1 $610 $611 #
vertex $-1 $247 $612 #
straight-curve $-1 -44.737693411053804 12.191109787650364 30.066201381734889 0 0 -1 I I #
coedge $-1 $411 $411 $-1 $613 reversed $250 $-1 #
edge $-1 $614 0 $614 6.2831853071796004 $251 $615 forward 7 unknown #
vertex $-1 $254 $616 #
ellipse-curve $-1 -38.833189134423442 9.0059123158832151 8.2236235729996068 -0.75470958851134928 0 0.65605901945558964 0.98408852918338452 0 1.132064382767024 1 I I #
face $-1 $-1 $427 $54 $-1 $617 reversed single #
loop $-1 $-1 $618 $255 #
plane-surface $-1 0 0 15.015978926450936 0 0 1 1 0 0 forward_v I I I I #
coedge $-1 $619 $620 $621 $622 reversed $256 $-1 #
coedge $-1 $623 $258 $260 $425 forward $160 $-1 #
coedge $-1 $258 $623 $619 $624 forward $160 $-1 #
coedge $-1 $621 $261 $258 $422 forward $427 $-1 #
edge $-1 $429 -7.6881536297087525 $625 -1.3177586861744555 $421 $626 forward 7 unknown #
coedge $-1 $627 $628 $259 $424 forward $416 $-1 #
edge $-1 $629 6.1464392390235965 $428 17.955447792284335 $423 $630 forward 7 unknown #
edge $-1 $429 -89.475386822107623 $629 -71.475468822260467 $260 $631 forward 7 unknown #
coedge $-1 $261 $621 $627 $632 reversed $427 $-1 #
loop $-1 $-1 $621 $415 #
vertex $-1 $632 $633 #
vertex $-1 $262 $634 #
straight-curve $-1 44.737693411053804 -12.191109787650356 63.830167566938201 0 0 -1 I I #
coedge $-1 $431 $431 $-1 $635 reversed $265 $-1 #
edge $-1 $636 0 $636 6.2831853071796004 $266 $637 forward 7 unknown #
vertex $-1 $269 $638 #
ellipse-curve $-1 38.833189134423435 -9.005912315883208 8.2236235729995979 0.75470958851134928 0 0.65605901945558964 0.98408852918338452 0 -1.132064382767024 1 I I #
face $-1 $-1 $639 $56 $-1 $640 forward single #
loop $-1 $-1 $276 $270 #
plane-surface $-1 44.737693411053804 0 0 -1 0 0 0 0 1 forward_v I I I I #
coedge $-1 $641 $642 $643 $644 reversed $271 $-1 #
coedge $-1 $645 $273 $275 $445 forward $169 $-1 #
coedge $-1 $273 $645 $641 $646 forward $169 $-1 #
coedge $-1 $643 $276 $273 $442 forward $436 $-1 #
edge $-1 $448 -3.1851974717671467 $647 3.1851974717671503 $441 $648 forward 7 unknown #
coedge $-1 $649 $650 $274 $444 forward $639 $-1 #
edge $-1 $651 6.1464392390235965 $447 17.955447792284335 $443 $652 forward 7 unknown #
edge $-1 $448 -89.475386822107623 $651 -71.475468822260467 $275 $653 forward 7 unknown #
coedge $-1 $276 $643 $649 $654 reversed $436 $-1 #
vertex $-1 $654 $655 #
vertex $-1 $277 $656 #
straight-curve $-1 44.737693411053804 -3.185197471767145 63.830167566938201 0 0 -1 I I #
coedge $-1 $450 $450 $-1 $657 reversed $280 $-1 #
edge $-1 $658 0 $658 6.2831853071796004 $281 $659 forward 7 unknown #
vertex $-1 $284 $660 #
ellipse-curve $-1 38.833189134423435 3.5527136788005009e-015 8.2236235729995979 0.75470958851134928 0 0.65605901945558964 0.98408852918338452 0 -1.132064382767024 1 I I #
face $-1 $-1 $661 $58 $-1 $662 forward single #
loop $-1 $-1 $291 $285 #
plane-surface $-1 44.737693411053804 0 0 -1 0 0 0 0 1 forward_v I I I I #
coedge $-1 $663 $664 $665 $666 reversed $286 $-1 #
coedge $-1 $667 $288 $290 $464 forward $178 $-1 #
coedge $-1 $288 $667 $663 $668 forward $178 $-1 #
coedge $-1 $665 $291 $288 $461 forward $455 $-1 #
edge $-1 $467 1.317758686174459 $669 7.688153629708756 $460 $670 forward 7 unknown #
coedge $-1 $671 $672 $289 $463 forward $661 $-1 #
edge $-1 $673 6.1464392390235965 $466 17.955447792284335 $462 $674 forward 7 unknown #
edge $-1 $467 -89.475386822107623 $673 -71.475468822260467 $290 $675 forward 7 unknown #
coedge $-1 $291 $665 $671 $676 reversed $455 $-1 #
vertex $-1 $676 $677 #
vertex $-1 $292 $678 #
straight-curve $-1 44.737693411053804 5.8207148441160665 63.830167566938201 0 0 -1 I I #
coedge $-1 $469 $469 $-1 $679 reversed $295 $-1 #
edge $-1 $680 0 $680 6.2831853071796004 $296 $681 forward 7 unknown #
vertex $-1 $299 $682 #
ellipse-curve $-1 38.833189134423435 9.0059123158832151 8.2236235729995979 0.75470958851134928 0 0.65605901945558964 0.98408852918338452 0 -1.132064382767024 1 I I #
face $-1 $-1 $315 $45 $-1 $683 reversed single #
loop $-1 $-1 $489 $300 #
plane-surface $-1 0 30.742947745211865 0 0 -1 0 0 0 -1 forward_v I I I I #
coedge $-1 $684 $487 $490 $685 forward $301 $-1 #
coedge $-1 $493 $303 $304 $481 reversed $187 $-1 #
coedge $-1 $487 $684 $303 $479 reversed $301 $-1 #
edge $-1 $494 -15.015978926450936 $686 15.015978926450936 $478 $687 forward 7 unknown #
coedge $-1 $305 $304 $684 $688 forward $121 $-1 #
edge $-1 $485 -44.737693411053804 $686 44.737693411053804 $477 $689 forward 7 unknown #
coedge $-1 $490 $489 $305 $483 reversed $474 $-1 #
edge $-1 $690 -44.737693411053804 $484 44.737693411053804 $482 $691 forward 7 unknown #
vertex $-1 $307 $692 #
vertex $-1 $496 $693 #
straight-curve $-1 44.737693411053804 0 -15.015978926450936 0 -1 0 I I #
coedge $-1 $476 $478 $308 $488 reversed $301 $-1 #
edge $-1 $491 -30.742947745211865 $494 30.742947745211865 $487 $694 forward 7 unknown #
coedge $-1 $482 $309 $314 $497 forward $474 $-1 #
coedge $-1 $309 $482 $476 $685 reversed $474 $-1 #
vertex $-1 $310 $695 #
straight-curve $-1 0 30.742947745211865 15.015978926450936 -1 0 0 I I #
coedge $-1 $311 $477 $313 $496 reversed $187 $-1 #
vertex $-1 $488 $696 #
straight-curve $-1 0 -30.742947745211865 15.015978926450936 1 0 0 I I #
edge $-1 $316 -15.015978926450936 $485 15.015978926450936 $313 $697 forward 7 unknown #
edge $-1 $317 -15.015978926450936 $484 15.015978926450936 $314 $698 forward 7 unknown #
point $-1 44.737693411053804 -30.742947745211865 15.015978926450936 #
point $-1 44.737693411053804 30.742947745211865 15.015978926450936 #
face $-1 $-1 $334 $46 $-1 $699 reversed single #
loop $-1 $-1 $330 $319 #
plane-surface $-1 0 -30.742947745211865 0 0 1 0 0 0 1 forward_v I I I I #
coedge $-1 $700 $701 $327 $513 forward $320 $-1 #
coedge $-1 $514 $322 $324 $509 reversed $195 $-1 #
edge $-1 $511 -4.6689516371994539 $335 2.4644976002931607 $333 $702 forward 7 unknown #
coedge $-1 $324 $323 $703 $704 reversed $125 $-1 #
coedge $-1 $518 $517 $323 $508 forward $501 $-1 #
edge $-1 $705 -44.737693411053804 $510 44.737693411053804 $507 $706 forward 7 unknown #
edge $-1 $707 -44.737693411053804 $511 44.737693411053804 $504 $708 forward 7 unknown #
vertex $-1 $508 $709 #
vertex $-1 $326 $710 #
straight-curve $-1 44.737693411053804 -12.051273069390014 -5.7711786556526006 0 1 0 I I #
edge $-1 $519 -18.691674675821851 $515 -5.4108714629581769 $503 $711 forward 7 unknown #
coedge $-1 $328 $504 $700 $712 reversed $195 $-1 #
vertex $-1 $513 $713 #
straight-curve $-1 0 -17.462144532348191 1.362270581840014 -1 0 0 I I #
coedge $-1 $507 $330 $701 $714 forward $501 $-1 #
coedge $-1 $330 $507 $332 $521 reversed $501 $-1 #
vertex $-1 $714 $715 #
straight-curve $-1 0 -30.742947745211865 1.362270581840014 -1 0 0 I I #
edge $-1 $336 -1.362270581840014 $510 5.7711786556526006 $332 $716 forward 7 unknown #
point $-1 44.737693411053804 -17.462144532348191 1.362270581840014 #
point $-1 44.737693411053804 -30.742947745211865 1.362270581840014 #
face $-1 $-1 $541 $47 $-1 $717 reversed single #
loop $-1 $-1 $537 $338 #
plane-surface $-1 -44.737693411053804 0 0 1 0 0 0 0 -1 forward_v I I I I #
coedge $-1 $544 $341 $342 $531 reversed $203 $-1 #
coedge $-1 $537 $718 $341 $529 forward $525 $-1 #
edge $-1 $719 -4.6689516371994539 $545 2.4644976002931607 $528 $720 forward 7 unknown #
coedge $-1 $343 $342 $718 $721 reversed $129 $-1 #
edge $-1 $534 -44.737693411053804 $719 44.737693411053804 $527 $722 forward 7 unknown #
coedge $-1 $540 $539 $343 $533 forward $541 $-1 #
edge $-1 $535 -44.737693411053804 $723 44.737693411053804 $532 $724 forward 7 unknown #
vertex $-1 $345 $725 #
vertex $-1 $533 $726 #
straight-curve $-1 44.737693411053804 12.051273069390014 -5.7711786556526006 0 1 0 I I #
coedge $-1 $727 $528 $346 $538 forward $525 $-1 #
edge $-1 $545 5.4108714629581769 $542 18.691674675821851 $537 $728 forward 7 unknown #
coedge $-1 $532 $347 $352 $548 forward $541 $-1 #
coedge $-1 $347 $532 $727 $729 reversed $541 $-1 #
loop $-1 $-1 $347 $524 #
vertex $-1 $729 $730 #
straight-curve $-1 0 30.742947745211865 1.362270581840014 1 0 0 I I #
coedge $-1 $349 $527 $351 $547 reversed $203 $-1 #
vertex $-1 $538 $731 #
straight-curve $-1 0 17.462144532348191 1.362270581840014 1 0 0 I I #
edge $-1 $354 -2.4644976002931607 $534 4.6689516371994539 $351 $732 forward 7 unknown #
edge $-1 $353 -1.362270581840014 $535 5.7711786556526006 $352 $733 forward 7 unknown #
point $-1 44.737693411053804 30.742947745211865 1.362270581840014 #
point $-1 44.737693411053804 17.462144532348191 1.362270581840014 #
loop $-1 $-1 $364 $356 #
plane-surface $-1 0 0 15.015978926450936 0 0 1 1 0 0 forward_v I I I I #
coedge $-1 $554 $359 $361 $558 reversed $211 $-1 #
coedge $-1 $359 $553 $734 $735 reversed $211 $-1 #
coedge $-1 $367 $362 $359 $556 forward $357 $-1 #
edge $-1 $559 -28.634933162186609 $736 -15.050222455283953 $555 $737 forward 7 unknown #
coedge $-1 $361 $360 $562 $738 reversed $133 $-1 #
edge $-1 $739 -17.999917999847145 $559 -1.086200982436365e-014 $553 $740 forward 7 unknown #
vertex $-1 $363 $741 #
straight-curve $-1 -44.737693411053804 -4.502956157941604 1.4312682195482807 0 -1 0 I I #
coedge $-1 $734 $364 $367 $566 forward $551 $-1 #
coedge $-1 $364 $734 $557 $738 forward $551 $-1 #
vertex $-1 $365 $742 #
straight-curve $-1 -56.132812890730222 -5.8207148441160594 15.015978926450934 -1 0 0 I I #
straight-curve $-1 -44.737693411053812 -5.8207148441160594 1.4312682195482722 0.65605901945558964 0 0.75470958851134928 I I #
edge $-1 $368 5.8207148441160594 $736 12.191109787650356 $367 $743 forward 7 unknown #
point $-1 -44.737693411053804 -5.8207148441160594 15.015978926450936 #
point $-1 -44.737693411053804 -5.8207148441160594 1.4312682195482804 #
edge $-1 $744 1 $744 0 $371 $-1 forward 7 unknown #
vertex $-1 $372 $745 #
ellipse-curve $-1 -37.242384223857698 -9.005912315883208 6.8407579970772119 -0.75470958851134928 0 0.65605901945558964 0.98408852918338452 0 1.132064382767024 1 I I #
point $-1 -37.849100605240054 -9.005912315883208 9.3556879557666264 #
plane-surface $-1 -44.737693411053804 0 0 1 0 0 0 0 -1 forward_v I I I I #
coedge $-1 $584 $583 $576 $746 forward $376 $-1 #
coedge $-1 $576 $378 $380 $580 reversed $226 $-1 #
coedge $-1 $378 $575 $574 $746 reversed $226 $-1 #
coedge $-1 $386 $381 $378 $578 forward $387 $-1 #
edge $-1 $581 -28.634933162186609 $747 -15.050222455283953 $577 $748 forward 7 unknown #
coedge $-1 $380 $379 $584 $749 reversed $142 $-1 #
edge $-1 $750 -17.999917999847145 $581 -1.086200982436365e-014 $575 $751 forward 7 unknown #
vertex $-1 $382 $752 #
straight-curve $-1 -44.737693411053804 1.7763568394002505e-015 1.4312682195482807 0 -1 0 I I #
coedge $-1 $574 $383 $386 $588 forward $376 $-1 #
coedge $-1 $383 $574 $579 $749 forward $376 $-1 #
vertex $-1 $384 $753 #
straight-curve $-1 -56.132812890730222 3.1851974717671521 15.015978926450934 -1 0 0 I I #
straight-curve $-1 -44.737693411053812 3.1851974717671521 1.4312682195482722 0.65605901945558964 0 0.75470958851134928 I I #
edge $-1 $388 -3.1851974717671521 $747 3.185197471767145 $386 $754 forward 7 unknown #
point $-1 -44.737693411053804 3.1851974717671521 15.015978926450936 #
point $-1 -44.737693411053804 3.1851974717671521 1.4312682195482804 #
edge $-1 $755 1 $755 0 $391 $-1 forward 7 unknown #
vertex $-1 $392 $756 #
ellipse-curve $-1 -37.242384223857698 3.5527136788005009e-015 6.8407579970772119 -0.75470958851134928 0 0.65605901945558964 0.98408852918338452 0 1.132064382767024 1 I I #
point $-1 -37.849100605240054 3.5527136788005009e-015 9.3556879557666264 #
plane-surface $-1 -44.737693411053804 0 0 1 0 0 0 0 -1 forward_v I I I I #
coedge $-1 $606 $605 $598 $757 forward $396 $-1 #
coedge $-1 $598 $398 $400 $602 reversed $241 $-1 #
coedge $-1 $398 $597 $596 $757 reversed $241 $-1 #
coedge $-1 $406 $401 $398 $600 forward $407 $-1 #
edge $-1 $603 -28.634933162186609 $758 -15.050222455283953 $599 $759 forward 7 unknown #
coedge $-1 $400 $399 $606 $760 reversed $151 $-1 #
edge $-1 $761 -17.999917999847145 $603 -1.086200982436365e-014 $597 $762 forward 7 unknown #
vertex $-1 $402 $763 #
straight-curve $-1 -44.737693411053804 4.5029561579416075 1.4312682195482807 0 -1 0 I I #
coedge $-1 $596 $403 $406 $610 forward $396 $-1 #
coedge $-1 $403 $596 $601 $760 forward $396 $-1 #
vertex $-1 $404 $764 #
straight-curve $-1 -56.132812890730222 12.191109787650364 15.015978926450934 -1 0 0 I I #
straight-curve $-1 -44.737693411053812 12.191109787650364 1.4312682195482722 0.65605901945558964 0 0.75470958851134928 I I #
edge $-1 $408 -12.191109787650364 $758 -5.8207148441160665 $406 $765 forward 7 unknown #
point $-1 -44.737693411053804 12.191109787650364 15.015978926450936 #
point $-1 -44.737693411053804 12.191109787650364 1.4312682195482804 #
edge $-1 $766 1 $766 0 $411 $-1 forward 7 unknown #
vertex $-1 $412 $767 #
ellipse-curve $-1 -37.242384223857698 9.0059123158832151 6.8407579970772119 -0.75470958851134928 0 0.65605901945558964 0.98408852918338452 0 1.132064382767024 1 I I #
point $-1 -37.849100605240054 9.0059123158832151 9.3556879557666264 #
plane-surface $-1 44.737693411053804 0 0 -1 0 0 0 0 1 forward_v I I I I #
coedge $-1 $628 $627 $620 $768 forward $416 $-1 #
coedge $-1 $620 $418 $420 $624 reversed $256 $-1 #
coedge $-1 $418 $619 $618 $768 reversed $256 $-1 #
coedge $-1 $426 $421 $418 $622 forward $427 $-1 #
edge $-1 $625 -62.398899347389943 $769 -48.814188640487266 $621 $770 forward 7 unknown #
coedge $-1 $420 $419 $628 $771 reversed $160 $-1 #
edge $-1 $772 71.475468822260467 $625 89.475386822107623 $619 $773 forward 7 unknown #
vertex $-1 $422 $774 #
straight-curve $-1 44.737693411053804 -4.502956157941604 1.4312682195482651 0 1 0 I I #
coedge $-1 $618 $423 $426 $632 forward $416 $-1 #
coedge $-1 $423 $618 $623 $771 forward $416 $-1 #
vertex $-1 $424 $775 #
straight-curve $-1 26.782245618769469 -12.191109787650356 15.015978926450934 1 0 0 I I #
straight-curve $-1 -13.963441132867693 -12.191109787650356 68.959200589954889 -0.65605901945558964 0 0.75470958851134928 I I #
edge $-1 $428 -12.191109787650356 $769 -5.8207148441160594 $426 $776 forward 7 unknown #
point $-1 44.737693411053804 -12.191109787650356 15.015978926450936 #
point $-1 44.737693411053804 -12.191109787650356 1.431268219548258 #
edge $-1 $777 1 $777 0 $431 $-1 forward 7 unknown #
vertex $-1 $432 $778 #
ellipse-curve $-1 37.242384223857691 -9.005912315883208 6.8407579970772048 0.75470958851134928 0 0.65605901945558964 0.98408852918338452 0 -1.132064382767024 1 I I #
point $-1 39.817277663606816 -9.005912315883208 7.0915591902325703 #
loop $-1 $-1 $443 $435 #
plane-surface $-1 0 0 15.015978926450936 0 0 1 1 0 0 forward_v I I I I #
coedge $-1 $642 $438 $440 $646 reversed $271 $-1 #
coedge $-1 $438 $641 $779 $780 reversed $271 $-1 #
coedge $-1 $446 $441 $438 $644 forward $436 $-1 #
edge $-1 $647 -62.398899347389943 $781 -48.814188640487266 $643 $782 forward 7 unknown #
coedge $-1 $440 $439 $650 $783 reversed $169 $-1 #
edge $-1 $784 71.475468822260467 $647 89.475386822107623 $641 $785 forward 7 unknown #
vertex $-1 $442 $786 #
straight-curve $-1 44.737693411053804 1.7763568394002505e-015 1.4312682195482651 0 1 0 I I #
coedge $-1 $779 $443 $446 $654 forward $639 $-1 #
coedge $-1 $443 $779 $645 $783 forward $639 $-1 #
vertex $-1 $444 $787 #
straight-curve $-1 26.782245618769469 -3.185197471767145 15.015978926450934 1 0 0 I I #
straight-curve $-1 -13.963441132867693 -3.185197471767145 68.959200589954889 -0.65605901945558964 0 0.75470958851134928 I I #
edge $-1 $447 -3.185197471767145 $781 3.1851974717671521 $446 $788 forward 7 unknown #
point $-1 44.737693411053804 -3.185197471767145 15.015978926450936 #
point $-1 44.737693411053804 -3.185197471767145 1.431268219548258 #
edge $-1 $789 1 $789 0 $450 $-1 forward 7 unknown #
vertex $-1 $451 $790 #
ellipse-curve $-1 37.242384223857691 3.5527136788005009e-015 6.8407579970772048 0.75470958851134928 0 0.65605901945558964 0.98408852918338452 0 -1.132064382767024 1 I I #
point $-1 39.817277663606816 3.5527136788005009e-015 7.0915591902325703 #
loop $-1 $-1 $462 $454 #
plane-surface $-1 0 0 15.015978926450936 0 0 1 1 0 0 forward_v I I I I #
coedge $-1 $664 $457 $459 $668 reversed $286 $-1 #
coedge $-1 $457 $663 $791 $792 reversed $286 $-1 #
coedge $-1 $465 $460 $457 $666 forward $455 $-1 #
edge $-1 $669 -62.398899347389943 $793 -48.814188640487266 $665 $794 forward 7 unknown #
coedge $-1 $459 $458 $672 $795 reversed $178 $-1 #
edge $-1 $796 71.475468822260467 $669 89.475386822107623 $663 $797 forward 7 unknown #
vertex $-1 $461 $798 #
straight-curve $-1 44.737693411053804 4.5029561579416075 1.4312682195482651 0 1 0 I I #
coedge $-1 $791 $462 $465 $676 forward $661 $-1 #
coedge $-1 $462 $791 $667 $795 forward $661 $-1 #
vertex $-1 $463 $799 #
straight-curve $-1 26.782245618769469 5.8207148441160665 15.015978926450934 1 0 0 I I #
straight-curve $-1 -13.963441132867693 5.8207148441160665 68.959200589954889 -0.65605901945558964 0 0.75470958851134928 I I #
edge $-1 $466 5.8207148441160665 $793 12.191109787650364 $465 $800 forward 7 unknown #
point $-1 44.737693411053804 5.8207148441160665 15.015978926450936 #
point $-1 44.737693411053804 5.8207148441160665 1.431268219548258 #
edge $-1 $801 1 $801 0 $469 $-1 forward 7 unknown #
vertex $-1 $470 $802 #
ellipse-curve $-1 37.242384223857691 9.0059123158832151 6.8407579970772048 0.75470958851134928 0 0.65605901945558964 0.98408852918338452 0 -1.132064382767024 1 I I #
point $-1 39.817277663606816 9.0059123158832151 7.0915591902325703 #
plane-surface $-1 44.737693411053804 0 0 -1 0 0 0 0 1 forward_v I I I I #
coedge $-1 $478 $476 $480 $688 reversed $301 $-1 #
edge $-1 $491 -15.015978926450936 $690 15.015978926450936 $490 $803 forward 7 unknown #
vertex $-1 $688 $804 #
straight-curve $-1 -44.737693411053804 -30.742947745211865 0 0 0 -1 I I #
edge $-1 $686 -30.742947745211865 $690 30.742947745211865 $684 $805 forward 7 unknown #
straight-curve $-1 0 -30.742947745211865 -15.015978926450936 -1 0 0 I I #
vertex $-1 $483 $806 #
straight-curve $-1 0 30.742947745211865 -15.015978926450936 1 0 0 I I #
point $-1 44.737693411053804 30.742947745211865 -15.015978926450936 #
point $-1 44.737693411053804 -30.742947745211865 -15.015978926450936 #
straight-curve $-1 -44.737693411053804 0 15.015978926450936 0 -1 0 I I #
point $-1 -44.737693411053804 30.742947745211865 15.015978926450936 #
point $-1 -44.737693411053804 -30.742947745211865 15.015978926450936 #
straight-curve $-1 44.737693411053804 -30.742947745211865 0 0 0 -1 I I #
straight-curve $-1 44.737693411053804 30.742947745211865 0 0 0 -1 I I #
plane-surface $-1 44.737693411053804 0 0 -1 0 0 0 0 1 forward_v I I I I #
coedge $-1 $703 $503 $514 $712 forward $320 $-1 #
coedge $-1 $503 $703 $517 $714 reversed $320 $-1 #
straight-curve $-1 44.737693411053804 -17.462144532348191 -1.1022270184531466 0 0 1 I I #
coedge $-1 $701 $700 $506 $704 forward $320 $-1 #
edge $-1 $707 5.4108714629581769 $705 18.691674675821851 $703 $807 forward 7 unknown #
vertex $-1 $508 $808 #
straight-curve $-1 0 -30.742947745211865 -5.7711786556526006 1 0 0 I I #
vertex $-1 $704 $809 #
straight-curve $-1 0 -17.462144532348191 -5.7711786556526006 1 0 0 I I #
point $-1 44.737693411053804 -30.742947745211865 -5.7711786556526006 #
point $-1 44.737693411053804 -17.462144532348191 -5.7711786556526006 #
straight-curve $-1 -44.737693411053804 -12.051273069390014 1.362270581840014 0 1 0 I I #
edge $-1 $515 -2.4644976002931607 $707 4.6689516371994539 $700 $810 forward 7 unknown #
point $-1 -44.737693411053804 -17.462144532348191 1.362270581840014 #
edge $-1 $519 -1.362270581840014 $705 5.7711786556526006 $701 $811 forward 7 unknown #
point $-1 -44.737693411053804 -30.742947745211865 1.362270581840014 #
straight-curve $-1 44.737693411053804 -30.742947745211865 0 0 0 -1 I I #
plane-surface $-1 0 30.742947745211865 0 0 -1 0 0 0 -1 forward_v I I I I #
coedge $-1 $528 $727 $530 $721 forward $525 $-1 #
vertex $-1 $721 $812 #
straight-curve $-1 -44.737693411053804 17.462144532348191 -1.1022270184531466 0 0 1 I I #
edge $-1 $723 -18.691674675821851 $719 -5.4108714629581769 $718 $813 forward 7 unknown #
straight-curve $-1 0 17.462144532348191 -5.7711786556526006 -1 0 0 I I #
vertex $-1 $533 $814 #
straight-curve $-1 0 30.742947745211865 -5.7711786556526006 -1 0 0 I I #
point $-1 44.737693411053804 17.462144532348191 -5.7711786556526006 #
point $-1 44.737693411053804 30.742947745211865 -5.7711786556526006 #
coedge $-1 $718 $537 $540 $729 forward $525 $-1 #
straight-curve $-1 -44.737693411053804 12.051273069390014 1.362270581840014 0 1 0 I I #
edge $-1 $542 -1.362270581840014 $723 5.7711786556526006 $540 $815 forward 7 unknown #
point $-1 -44.737693411053804 30.742947745211865 1.362270581840014 #
point $-1 -44.737693411053804 17.462144532348191 1.362270581840014 #
straight-curve $-1 44.737693411053804 17.462144532348191 -1.1022270184531466 0 0 -1 I I #
straight-curve $-1 44.737693411053804 30.742947745211865 0 0 0 -1 I I #
coedge $-1 $562 $561 $554 $735 forward $551 $-1 #
edge $-1 $736 11.395119479676417 $739 23.204128032937142 $734 $816 forward 7 unknown #
vertex $-1 $735 $817 #
straight-curve $-1 -44.737693411053804 -12.191109787650356 30.066201381734889 0 0 1 I I #
edge $-1 $739 -7.6881536297087525 $563 -1.3177586861744555 $562 $818 forward 7 unknown #
vertex $-1 $738 $819 #
straight-curve $-1 -44.737693411053812 -12.191109787650356 1.4312682195482722 -0.65605901945558964 0 -0.75470958851134928 I I #
point $-1 -44.737693411053804 -12.191109787650356 1.4312682195482804 #
point $-1 -32.92868485779308 -5.8207148441160594 15.015978926450938 #
straight-curve $-1 -44.737693411053804 0 15.015978926450936 0 -1 0 I I #
vertex $-1 $569 $820 #
point $-1 -36.25829569467431 -9.005912315883208 7.9728223798442359 #
edge $-1 $747 11.395119479676417 $750 23.204128032937142 $574 $821 forward 7 unknown #
vertex $-1 $746 $822 #
straight-curve $-1 -44.737693411053804 -3.185197471767145 30.066201381734889 0 0 1 I I #
edge $-1 $750 -3.1851974717671467 $585 3.1851974717671503 $584 $823 forward 7 unknown #
vertex $-1 $749 $824 #
straight-curve $-1 -44.737693411053812 -3.185197471767145 1.4312682195482722 -0.65605901945558964 0 -0.75470958851134928 I I #
point $-1 -44.737693411053804 -3.185197471767145 1.4312682195482804 #
point $-1 -32.92868485779308 3.1851974717671521 15.015978926450938 #
straight-curve $-1 -44.737693411053804 0 15.015978926450936 0 -1 0 I I #
vertex $-1 $591 $825 #
point $-1 -36.25829569467431 3.5527136788005009e-015 7.9728223798442359 #
edge $-1 $758 11.395119479676417 $761 23.204128032937142 $596 $826 forward 7 unknown #
vertex $-1 $600 $827 #
straight-curve $-1 -44.737693411053804 5.8207148441160665 30.066201381734889 0 0 1 I I #
edge $-1 $761 1.317758686174459 $607 7.688153629708756 $606 $828 forward 7 unknown #
vertex $-1 $760 $829 #
straight-curve $-1 -44.737693411053812 5.8207148441160665 1.4312682195482722 -0.65605901945558964 0 -0.75470958851134928 I I #
point $-1 -44.737693411053804 5.8207148441160665 1.4312682195482804 #
point $-1 -32.92868485779308 12.191109787650364 15.015978926450938 #
straight-curve $-1 -44.737693411053804 0 15.015978926450936 0 -1 0 I I #
vertex $-1 $613 $830 #
point $-1 -36.25829569467431 9.0059123158832151 7.9728223798442359 #
edge $-1 $769 -17.955447792284335 $772 -6.1464392390235965 $618 $831 forward 7 unknown #
vertex $-1 $622 $832 #
straight-curve $-1 44.737693411053804 -5.8207148441160594 63.830167566938201 0 0 1 I I #
edge $-1 $772 1.3177586861744555 $629 7.6881536297087525 $628 $833 forward 7 unknown #
vertex $-1 $771 $834 #
straight-curve $-1 -13.963441132867693 -5.8207148441160594 68.959200589954889 0.65605901945558964 0 -0.75470958851134928 I I #
point $-1 44.737693411053804 -5.8207148441160594 1.431268219548258 #
point $-1 32.928684857793066 -12.191109787650356 15.015978926450934 #
straight-curve $-1 44.737693411053804 0 15.015978926450936 0 1 0 I I #
vertex $-1 $635 $835 #
point $-1 38.226472753041072 -9.005912315883208 5.7086936143101807 #
coedge $-1 $650 $649 $642 $780 forward $639 $-1 #
edge $-1 $781 -17.955447792284335 $784 -6.1464392390235965 $779 $836 forward 7 unknown #
vertex $-1 $780 $837 #
straight-curve $-1 44.737693411053804 3.1851974717671521 63.830167566938201 0 0 1 I I #
edge $-1 $784 -3.1851974717671503 $651 3.1851974717671467 $650 $838 forward 7 unknown #
vertex $-1 $783 $839 #
straight-curve $-1 -13.963441132867693 3.1851974717671521 68.959200589954889 0.65605901945558964 0 -0.75470958851134928 I I #
point $-1 44.737693411053804 3.1851974717671521 1.431268219548258 #
point $-1 32.928684857793066 -3.185197471767145 15.015978926450934 #
straight-curve $-1 44.737693411053804 0 15.015978926450936 0 1 0 I I #
vertex $-1 $657 $840 #
point $-1 38.226472753041072 3.5527136788005009e-015 5.7086936143101807 #
coedge $-1 $672 $671 $664 $792 forward $661 $-1 #
edge $-1 $793 -17.955447792284335 $796 -6.1464392390235965 $791 $841 forward 7 unknown #
vertex $-1 $792 $842 #
straight-curve $-1 44.737693411053804 12.191109787650364 63.830167566938201 0 0 1 I I #
edge $-1 $796 -7.688153629708756 $673 -1.317758686174459 $672 $843 forward 7 unknown #
vertex $-1 $795 $844 #
straight-curve $-1 -13.963441132867693 12.191109787650364 68.959200589954889 0.65605901945558964 0 -0.75470958851134928 I I #
point $-1 44.737693411053804 12.191109787650364 1.431268219548258 #
point $-1 32.928684857793066 5.8207148441160665 15.015978926450934 #
straight-curve $-1 44.737693411053804 0 15.015978926450936 0 1 0 I I #
vertex $-1 $679 $845 #
point $-1 38.226472753041072 9.0059123158832151 5.7086936143101807 #
straight-curve $-1 -44.737693411053804 30.742947745211865 0 0 0 -1 I I #
point $-1 -44.737693411053804 -30.742947745211865 -15.015978926450936 #
straight-curve $-1 -44.737693411053804 0 -15.015978926450936 0 1 0 I I #
point $-1 -44.737693411053804 30.742947745211865 -15.015978926450936 #
straight-curve $-1 -44.737693411053804 -12.051273069390014 -5.7711786556526006 0 -1 0 I I #
point $-1 -44.737693411053804 -30.742947745211865 -5.7711786556526006 #
point $-1 -44.737693411053804 -17.462144532348191 -5.7711786556526006 #
straight-curve $-1 -44.737693411053804 -17.462144532348191 -1.1022270184531466 0 0 -1 I I #
straight-curve $-1 -44.737693411053804 -30.742947745211865 0 0 0 -1 I I #
point $-1 -44.737693411053804 17.462144532348191 -5.7711786556526006 #
straight-curve $-1 -44.737693411053804 12.051273069390014 -5.7711786556526006 0 -1 0 I I #
point $-1 -44.737693411053804 30.742947745211865 -5.7711786556526006 #
straight-curve $-1 -44.737693411053804 30.742947745211865 0 0 0 -1 I I #
straight-curve $-1 -56.132812890730222 -12.191109787650356 15.015978926450934 1 0 0 I I #
point $-1 -44.737693411053804 -12.191109787650356 15.015978926450936 #
straight-curve $-1 -32.928684857793073 -4.502956157941604 15.015978926450936 0 1 0 I I #
point $-1 -32.92868485779308 -12.191109787650356 15.015978926450938 #
point $-1 -36.110319841090671 -9.005912315883208 5.8566694678938269 #
straight-curve $-1 -56.132812890730222 -3.185197471767145 15.015978926450934 1 0 0 I I #
point $-1 -44.737693411053804 -3.185197471767145 15.015978926450936 #
straight-curve $-1 -32.928684857793073 1.7763568394002505e-015 15.015978926450936 0 1 0 I I #
point $-1 -32.92868485779308 -3.185197471767145 15.015978926450938 #
point $-1 -36.110319841090671 3.5527136788005009e-015 5.8566694678938269 #
straight-curve $-1 -56.132812890730222 5.8207148441160665 15.015978926450934 1 0 0 I I #
point $-1 -44.737693411053804 5.8207148441160665 15.015978926450936 #
straight-curve $-1 -32.928684857793073 4.5029561579416075 15.015978926450936 0 1 0 I I #
point $-1 -32.92868485779308 5.8207148441160665 15.015978926450938 #
point $-1 -36.110319841090671 9.0059123158832151 5.8566694678938269 #
straight-curve $-1 26.782245618769469 -5.8207148441160594 15.015978926450934 -1 0 0 I I #
point $-1 44.737693411053804 -5.8207148441160594 15.015978926450936 #
straight-curve $-1 32.928684857793066 -4.502956157941604 15.015978926450927 0 -1 0 I I #
point $-1 32.928684857793066 -5.8207148441160594 15.015978926450934 #
point $-1 36.110319841090664 -9.005912315883208 5.8566694678938198 #
straight-curve $-1 26.782245618769469 3.1851974717671521 15.015978926450934 -1 0 0 I I #
point $-1 44.737693411053804 3.1851974717671521 15.015978926450936 #
straight-curve $-1 32.928684857793066 1.7763568394002505e-015 15.015978926450927 0 -1 0 I I #
point $-1 32.928684857793066 3.1851974717671521 15.015978926450934 #
point $-1 36.110319841090664 3.5527136788005009e-015 5.8566694678938198 #
straight-curve $-1 26.782245618769469 12.191109787650364 15.015978926450934 -1 0 0 I I #
point $-1 44.737693411053804 12.191109787650364 15.015978926450936 #
straight-curve $-1 32.928684857793066 4.5029561579416075 15.015978926450927 0 -1 0 I I #
point $-1 32.928684857793066 12.191109787650364 15.015978926450934 #
point $-1 36.110319841090664 9.0059123158832151 5.8566694678938198 #
End-of-ACIS-data 