500 0 6 0           
7 Unknown 11 ACIS 5.0 NT 24 Fri Mar 26 03:02:20 1999 
-1 9.9999999999999995e-007 1e-010 
body $-1 $6 $-1 $7 #
body $-1 $8 $-1 $9 #
body $-1 $10 $-1 $11 #
body $-1 $12 $-1 $13 #
body $-1 $14 $-1 $15 #
body $-1 $16 $-1 $17 #
lump $-1 $-1 $18 $0 #
transform $-1 1 0 0 0 1 0 0 0 1 50.848719748527486 35.005185426051632 13.87847115660205 1 rotate no_reflect no_shear #
lump $-1 $-1 $19 $1 #
transform $-1 1 0 0 0 1 0 0 0 1 50.848719748527486 35.005185426051632 13.87847115660205 1 rotate no_reflect no_shear #
lump $-1 $-1 $20 $2 #
transform $-1 1 0 0 0 1 0 0 0 1 50.848719748527486 35.005185426051632 13.87847115660205 1 rotate no_reflect no_shear #
lump $-1 $-1 $21 $3 #
transform $-1 1 0 0 0 1 0 0 0 1 50.848719748527486 35.005185426051632 13.87847115660205 1 rotate no_reflect no_shear #
lump $-1 $-1 $22 $4 #
transform $-1 1 0 0 0 1 0 0 0 1 50.848719748527486 35.005185426051632 13.87847115660205 1 rotate no_reflect no_shear #
lump $-1 $-1 $23 $5 #
transform $-1 1 0 0 0 1 0 0 0 1 50.848719748527486 35.005185426051632 13.87847115660205 1 rotate no_reflect no_shear #
shell $-1 $-1 $-1 $24 $-1 $6 #
shell $-1 $-1 $-1 $25 $-1 $8 #
shell $-1 $-1 $-1 $26 $-1 $10 #
shell $-1 $-1 $-1 $27 $-1 $12 #
shell $-1 $-1 $-1 $28 $-1 $14 #
shell $-1 $-1 $-1 $29 $-1 $16 #
face $-1 $30 $31 $18 $-1 $32 forward single #
face $-1 $33 $34 $19 $-1 $35 reversed single #
face $-1 $36 $37 $20 $-1 $38 reversed single #
face $-1 $39 $40 $21 $-1 $41 forward single #
face $-1 $42 $43 $22 $-1 $44 forward single #
face $-1 $45 $46 $23 $-1 $47 forward single #
face $-1 $48 $49 $18 $-1 $50 reversed single #
loop $-1 $-1 $51 $24 #
plane-surface $-1 0 0 13.87847115660205 0 0 1 1 0 0 forward_v I I I I #
face $-1 $52 $53 $19 $-1 $54 reversed single #
loop $-1 $-1 $55 $25 #
plane-surface $-1 -27.832575422806123 -26.844761285839596 0 1 0 0 0 0 -1 forward_v I I I I #
face $-1 $56 $57 $20 $-1 $58 reversed single #
loop $-1 $-1 $59 $26 #
plane-surface $-1 68.376201962780684 24.343946388881161 151.11647040721775 0 1 0 0.78801076186113728 0 0.61566146476048833 forward_v I I I I #
face $-1 $60 $61 $21 $-1 $62 forward single #
loop $-1 $63 $64 $27 #
cone-surface $-1 48.223123711587689 26.476194196315255 10.75343791844942 -0.78801076186113728 0 -0.61566146476048833 0.30783073238024417 0 -0.39400538093056864 1 I I 0 1 0.5 forward I I I I #
face $-1 $65 $66 $22 $-1 $67 forward single #
loop $-1 $68 $69 $28 #
cone-surface $-1 48.223123711587689 29.674565907466395 10.75343791844942 -0.78801076186113728 0 -0.61566146476048833 0.30783073238024417 0 -0.39400538093056864 1 I I 0 1 0.5 forward I I I I #
face $-1 $70 $71 $23 $-1 $72 forward single #
loop $-1 $73 $74 $29 #
cone-surface $-1 48.223123711587689 32.872937618617534 10.75343791844942 -0.78801076186113728 0 -0.61566146476048833 0.30783073238024417 0 -0.39400538093056864 1 I I 0 1 0.5 forward I I I I #
face $-1 $75 $76 $18 $-1 $77 reversed single #
loop $-1 $-1 $78 $30 #
plane-surface $-1 0 0 -13.87847115660205 0 0 1 1 0 0 forward_v I I I I #
coedge $-1 $79 $80 $81 $82 forward $31 $-1 #
face $-1 $83 $84 $19 $-1 $85 reversed single #
loop $-1 $-1 $86 $33 #
plane-surface $-1 -25.462176429064755 -18.684337145627559 0 0 -1 0 0 0 -1 forward_v I I I I #
coedge $-1 $87 $88 $89 $90 forward $34 $-1 #
face $-1 $91 $92 $20 $-1 $93 reversed single #
loop $-1 $-1 $94 $36 #
plane-surface $-1 -11.762474814620518 29.674565907466395 88.505275844069743 0.78801076186113728 0 0.61566146476048833 0.61566146476048833 0 -0.78801076186113728 forward_v I I I I #
coedge $-1 $95 $96 $97 $98 reversed $37 $-1 #
face $-1 $-1 $99 $21 $-1 $100 forward single #
loop $-1 $101 $102 $39 #
cone-surface $-1 47.553698144182476 26.476194196315255 10.230425359073433 -0.78801076186113728 0 -0.61566146476048833 0.15391536619012208 0 -0.19700269046528432 1 I I -0.70710678118654746 0.70710678118654746 0.25 forward I I I I #
loop $-1 $-1 $103 $27 #
coedge $-1 $64 $64 $104 $105 reversed $40 $-1 #
face $-1 $-1 $106 $22 $-1 $107 forward single #
loop $-1 $108 $109 $42 #
cone-surface $-1 47.553698144182476 29.674565907466395 10.230425359073433 -0.78801076186113728 0 -0.61566146476048833 0.15391536619012208 0 -0.19700269046528432 1 I I -0.70710678118654746 0.70710678118654746 0.25 forward I I I I #
loop $-1 $-1 $110 $28 #
coedge $-1 $69 $69 $111 $112 reversed $43 $-1 #
face $-1 $-1 $113 $23 $-1 $114 forward single #
loop $-1 $115 $116 $45 #
cone-surface $-1 47.553698144182476 32.872937618617534 10.230425359073433 -0.78801076186113728 0 -0.61566146476048833 0.15391536619012208 0 -0.19700269046528432 1 I I -0.70710678118654746 0.70710678118654746 0.25 forward I I I I #
loop $-1 $-1 $117 $29 #
coedge $-1 $74 $74 $118 $119 reversed $46 $-1 #
face $-1 $120 $121 $18 $-1 $122 reversed single #
loop $-1 $-1 $123 $48 #
plane-surface $-1 0 -35.005185426051632 0 0 1 0 0 0 1 forward_v I I I I #
coedge $-1 $124 $125 $126 $127 forward $49 $-1 #
coedge $-1 $128 $51 $129 $130 forward $31 $-1 #
coedge $-1 $51 $128 $131 $132 forward $31 $-1 #
coedge $-1 $133 $134 $51 $82 reversed $135 $-1 #
edge $-1 $136 -35.005185426051632 $137 35.005185426051632 $81 $138 forward 7 unknown #
face $-1 $139 $140 $19 $-1 $141 forward single #
loop $-1 $-1 $142 $52 #
plane-surface $-1 -23.091777435323387 -26.844761285839596 0 -1 0 0 0 0 1 forward_v I I I I #
coedge $-1 $143 $144 $145 $146 forward $53 $-1 #
coedge $-1 $147 $55 $148 $149 reversed $34 $-1 #
coedge $-1 $55 $147 $150 $151 reversed $34 $-1 #
coedge $-1 $144 $143 $55 $90 reversed $53 $-1 #
edge $-1 $152 -13.87847115660205 $153 13.87847115660205 $89 $154 forward 7 unknown #
face $-1 $155 $156 $20 $-1 $157 reversed single #
loop $-1 $-1 $97 $56 #
plane-surface $-1 50.848719748527486 0 0 -1 0 0 0 0 1 forward_v I I I I #
coedge $-1 $158 $159 $160 $161 reversed $57 $-1 #
coedge $-1 $96 $59 $162 $163 reversed $37 $-1 #
coedge $-1 $59 $95 $158 $164 reversed $37 $-1 #
coedge $-1 $160 $165 $59 $98 forward $92 $-1 #
edge $-1 $166 61.679764047006827 $167 67.191636136940332 $97 $168 forward 7 unknown #
loop $-1 $-1 $104 $60 #
plane-surface $-1 -11.762474814620518 29.674565907466395 88.505275844069743 0.78801076186113728 0 0.61566146476048833 0.61566146476048833 0 -0.78801076186113728 forward_v I I I I #
loop $-1 $-1 $169 $39 #
coedge $-1 $102 $102 $103 $170 reversed $61 $-1 #
coedge $-1 $103 $103 $102 $170 forward $63 $-1 #
coedge $-1 $104 $104 $64 $105 forward $99 $-1 #
edge $-1 $171 0 $171 6.2831853071796004 $104 $172 forward 7 unknown #
loop $-1 $-1 $111 $65 #
plane-surface $-1 -11.762474814620518 29.674565907466395 88.505275844069743 0.78801076186113728 0 0.61566146476048833 0.61566146476048833 0 -0.78801076186113728 forward_v I I I I #
loop $-1 $-1 $173 $42 #
coedge $-1 $109 $109 $110 $174 reversed $66 $-1 #
coedge $-1 $110 $110 $109 $174 forward $68 $-1 #
coedge $-1 $111 $111 $69 $112 forward $106 $-1 #
edge $-1 $175 0 $175 6.2831853071796004 $111 $176 forward 7 unknown #
loop $-1 $-1 $118 $70 #
plane-surface $-1 -11.762474814620518 29.674565907466395 88.505275844069743 0.78801076186113728 0 0.61566146476048833 0.61566146476048833 0 -0.78801076186113728 forward_v I I I I #
loop $-1 $-1 $177 $45 #
coedge $-1 $116 $116 $117 $178 reversed $71 $-1 #
coedge $-1 $117 $117 $116 $178 forward $73 $-1 #
coedge $-1 $118 $118 $74 $119 forward $113 $-1 #
edge $-1 $179 0 $179 6.2831853071796004 $118 $180 forward 7 unknown #
face $-1 $181 $182 $18 $-1 $183 reversed single #
loop $-1 $-1 $184 $75 #
plane-surface $-1 -50.848719748527486 0 0 1 0 0 0 0 -1 forward_v I I I I #
coedge $-1 $185 $131 $186 $187 forward $76 $-1 #
coedge $-1 $188 $78 $185 $189 forward $49 $-1 #
coedge $-1 $78 $188 $190 $191 forward $49 $-1 #
coedge $-1 $134 $133 $78 $127 reversed $135 $-1 #
edge $-1 $192 -35.005185426051632 $193 35.005185426051632 $126 $194 forward 7 unknown #
coedge $-1 $80 $79 $195 $196 forward $31 $-1 #
coedge $-1 $197 $198 $79 $130 reversed $182 $-1 #
edge $-1 $137 -50.848719748527486 $199 50.848719748527486 $129 $200 forward 7 unknown #
coedge $-1 $123 $201 $80 $132 reversed $76 $-1 #
edge $-1 $202 -50.848719748527486 $136 50.848719748527486 $131 $203 forward 7 unknown #
coedge $-1 $126 $81 $201 $204 forward $135 $-1 #
coedge $-1 $81 $126 $197 $205 reversed $135 $-1 #
loop $-1 $-1 $133 $181 #
vertex $-1 $82 $206 #
vertex $-1 $82 $207 #
straight-curve $-1 50.848719748527486 0 13.87847115660205 0 1 0 I I #
face $-1 $208 $209 $19 $-1 $210 reversed single #
loop $-1 $-1 $211 $83 #
plane-surface $-1 0 0 13.87847115660205 0 0 1 1 0 0 forward_v I I I I #
coedge $-1 $212 $213 $214 $215 reversed $84 $-1 #
coedge $-1 $89 $86 $216 $217 reversed $53 $-1 #
coedge $-1 $86 $89 $218 $219 reversed $53 $-1 #
coedge $-1 $213 $212 $86 $146 reversed $84 $-1 #
edge $-1 $220 -13.87847115660205 $221 13.87847115660205 $145 $222 forward 7 unknown #
coedge $-1 $88 $87 $223 $224 reversed $34 $-1 #
coedge $-1 $216 $225 $87 $149 forward $209 $-1 #
edge $-1 $226 -21.582804783131834 $153 -5.2619565027077613 $148 $227 forward 7 unknown #
coedge $-1 $228 $218 $88 $151 forward $140 $-1 #
edge $-1 $152 5.2619565027077613 $229 21.582804783131834 $150 $230 forward 7 unknown #
vertex $-1 $151 $231 #
vertex $-1 $149 $232 #
straight-curve $-1 -27.832575422806123 -18.684337145627559 0 0 0 -1 I I #
face $-1 $-1 $233 $20 $-1 $234 forward single #
loop $-1 $-1 $235 $91 #
plane-surface $-1 0 35.005185426051632 0 0 -1 0 0 0 -1 forward_v I I I I #
coedge $-1 $236 $94 $96 $164 forward $57 $-1 #
coedge $-1 $94 $236 $235 $237 reversed $57 $-1 #
coedge $-1 $238 $97 $94 $161 forward $92 $-1 #
edge $-1 $167 9.5066634351479635 $239 20.167902472318435 $160 $240 forward 7 unknown #
coedge $-1 $241 $242 $95 $163 forward $233 $-1 #
edge $-1 $243 12.354272447137383 $166 16.660618767137144 $162 $244 forward 7 unknown #
edge $-1 $167 -101.69743949705497 $243 -94.70277348904834 $96 $245 forward 7 unknown #
coedge $-1 $97 $238 $241 $246 reversed $92 $-1 #
vertex $-1 $246 $247 #
vertex $-1 $98 $248 #
straight-curve $-1 50.848719748527486 24.343946388881161 75.558235203608874 0 0 -1 I I #
coedge $-1 $169 $169 $-1 $249 reversed $101 $-1 #
edge $-1 $250 0 $250 6.2831853071796004 $102 $251 forward 7 unknown #
vertex $-1 $105 $252 #
ellipse-curve $-1 48.695546588527613 26.476194196315255 11.122535111635282 0.78801076186113728 0 0.61566146476048833 0.30783073238024417 0 -0.39400538093056864 1 I I #
coedge $-1 $173 $173 $-1 $253 reversed $108 $-1 #
edge $-1 $254 0 $254 6.2831853071796004 $109 $255 forward 7 unknown #
vertex $-1 $112 $256 #
ellipse-curve $-1 48.695546588527613 29.674565907466395 11.122535111635282 0.78801076186113728 0 0.61566146476048833 0.30783073238024417 0 -0.39400538093056864 1 I I #
coedge $-1 $177 $177 $-1 $257 reversed $115 $-1 #
edge $-1 $258 0 $258 6.2831853071796004 $116 $259 forward 7 unknown #
vertex $-1 $119 $260 #
ellipse-curve $-1 48.695546588527613 32.872937618617534 11.122535111635282 0.78801076186113728 0 0.61566146476048833 0.30783073238024417 0 -0.39400538093056864 1 I I #
face $-1 $-1 $135 $18 $-1 $261 reversed single #
loop $-1 $-1 $197 $120 #
plane-surface $-1 0 35.005185426051632 0 0 -1 0 0 0 -1 forward_v I I I I #
coedge $-1 $262 $195 $198 $263 forward $121 $-1 #
coedge $-1 $201 $123 $124 $189 reversed $76 $-1 #
coedge $-1 $195 $262 $123 $187 reversed $121 $-1 #
edge $-1 $202 -13.87847115660205 $264 13.87847115660205 $186 $265 forward 7 unknown #
coedge $-1 $125 $124 $262 $266 forward $49 $-1 #
edge $-1 $193 -50.848719748527486 $264 50.848719748527486 $185 $267 forward 7 unknown #
coedge $-1 $198 $197 $125 $191 reversed $182 $-1 #
edge $-1 $268 -50.848719748527486 $192 50.848719748527486 $190 $269 forward 7 unknown #
vertex $-1 $127 $270 #
vertex $-1 $204 $271 #
straight-curve $-1 50.848719748527486 0 -13.87847115660205 0 -1 0 I I #
coedge $-1 $184 $186 $128 $196 reversed $121 $-1 #
edge $-1 $199 -35.005185426051632 $202 35.005185426051632 $195 $272 forward 7 unknown #
coedge $-1 $190 $129 $134 $205 forward $182 $-1 #
coedge $-1 $129 $190 $184 $263 reversed $182 $-1 #
vertex $-1 $130 $273 #
straight-curve $-1 0 35.005185426051632 13.87847115660205 -1 0 0 I I #
coedge $-1 $131 $185 $133 $204 reversed $76 $-1 #
vertex $-1 $196 $274 #
straight-curve $-1 0 -35.005185426051632 13.87847115660205 1 0 0 I I #
edge $-1 $136 -13.87847115660205 $193 13.87847115660205 $133 $275 forward 7 unknown #
edge $-1 $137 -13.87847115660205 $192 13.87847115660205 $134 $276 forward 7 unknown #
point $-1 50.848719748527486 -35.005185426051632 13.87847115660205 #
point $-1 50.848719748527486 35.005185426051632 13.87847115660205 #
face $-1 $-1 $277 $19 $-1 $278 reversed single #
loop $-1 $-1 $279 $139 #
plane-surface $-1 0 0 -13.87847115660205 0 0 1 1 0 0 forward_v I I I I #
coedge $-1 $218 $228 $213 $280 forward $140 $-1 #
coedge $-1 $145 $142 $279 $281 reversed $84 $-1 #
coedge $-1 $142 $145 $211 $280 reversed $84 $-1 #
coedge $-1 $282 $283 $142 $215 forward $277 $-1 #
edge $-1 $284 -13.87847115660205 $285 13.87847115660205 $214 $286 forward 7 unknown #
coedge $-1 $279 $148 $143 $217 forward $209 $-1 #
edge $-1 $153 -15.101487208273745 $221 -10.360689220791009 $216 $287 forward 7 unknown #
coedge $-1 $150 $211 $144 $219 forward $140 $-1 #
edge $-1 $220 10.360689220791009 $152 15.101487208273745 $218 $288 forward 7 unknown #
vertex $-1 $219 $289 #
vertex $-1 $217 $290 #
straight-curve $-1 -23.091777435323387 -18.684337145627559 0 0 0 -1 I I #
coedge $-1 $283 $282 $147 $224 forward $277 $-1 #
edge $-1 $229 -13.87847115660205 $226 13.87847115660205 $223 $291 forward 7 unknown #
coedge $-1 $148 $279 $283 $292 forward $209 $-1 #
vertex $-1 $149 $293 #
straight-curve $-1 -27.832575422806123 -13.422380642919798 -13.87847115660205 0 1 0 I I #
coedge $-1 $211 $150 $282 $294 forward $140 $-1 #
vertex $-1 $294 $295 #
straight-curve $-1 -27.832575422806123 -13.422380642919798 13.87847115660205 0 -1 0 I I #
point $-1 -27.832575422806123 -18.684337145627559 13.87847115660205 #
point $-1 -27.832575422806123 -18.684337145627559 -13.87847115660205 #
loop $-1 $-1 $162 $155 #
plane-surface $-1 0 0 13.87847115660205 0 0 1 1 0 0 forward_v I I I I #
coedge $-1 $296 $297 $159 $237 forward $156 $-1 #
coedge $-1 $159 $158 $242 $298 reversed $57 $-1 #
edge $-1 $239 -63.205033336958408 $299 -56.210367328951776 $235 $300 forward 7 unknown #
coedge $-1 $165 $160 $297 $301 reversed $92 $-1 #
vertex $-1 $237 $302 #
straight-curve $-1 50.848719748527493 14.837282953733197 8.3665990666685275 0 1 0 I I #
coedge $-1 $303 $162 $165 $246 forward $233 $-1 #
coedge $-1 $162 $303 $236 $298 forward $233 $-1 #
vertex $-1 $163 $304 #
straight-curve $-1 34.188100981390342 24.343946388881161 13.878471156602046 1 0 0 I I #
straight-curve $-1 -11.762474814620518 24.343946388881161 88.505275844069743 -0.61566146476048833 0 0.78801076186113728 I I #
edge $-1 $166 24.343946388881161 $305 35.005185426051632 $165 $306 forward 7 unknown #
point $-1 50.848719748527486 24.343946388881161 13.87847115660205 #
point $-1 50.848719748527486 24.343946388881161 8.3665990666685417 #
edge $-1 $307 1 $307 0 $169 $-1 forward 7 unknown #
vertex $-1 $170 $308 #
ellipse-curve $-1 47.750700834647759 26.476194196315255 10.384340725263554 0.78801076186113728 0 0.61566146476048833 0.30783073238024417 0 -0.39400538093056864 1 I I #
point $-1 49.003377320907866 26.476194196315255 10.728529730704716 #
edge $-1 $309 1 $309 0 $173 $-1 forward 7 unknown #
vertex $-1 $174 $310 #
ellipse-curve $-1 47.750700834647759 29.674565907466395 10.384340725263554 0.78801076186113728 0 0.61566146476048833 0.30783073238024417 0 -0.39400538093056864 1 I I #
point $-1 49.003377320907866 29.674565907466395 10.728529730704716 #
edge $-1 $311 1 $311 0 $177 $-1 forward 7 unknown #
vertex $-1 $178 $312 #
ellipse-curve $-1 47.750700834647759 32.872937618617534 10.384340725263554 0.78801076186113728 0 0.61566146476048833 0.30783073238024417 0 -0.39400538093056864 1 I I #
point $-1 49.003377320907866 32.872937618617534 10.728529730704716 #
plane-surface $-1 50.848719748527486 0 0 -1 0 0 0 0 1 forward_v I I I I #
coedge $-1 $186 $184 $188 $266 reversed $121 $-1 #
edge $-1 $199 -13.87847115660205 $268 13.87847115660205 $198 $313 forward 7 unknown #
vertex $-1 $266 $314 #
straight-curve $-1 -50.848719748527486 -35.005185426051632 0 0 0 -1 I I #
edge $-1 $264 -35.005185426051632 $268 35.005185426051632 $262 $315 forward 7 unknown #
straight-curve $-1 0 -35.005185426051632 -13.87847115660205 -1 0 0 I I #
vertex $-1 $191 $316 #
straight-curve $-1 0 35.005185426051632 -13.87847115660205 1 0 0 I I #
point $-1 50.848719748527486 35.005185426051632 -13.87847115660205 #
point $-1 50.848719748527486 -35.005185426051632 -13.87847115660205 #
straight-curve $-1 -50.848719748527486 0 13.87847115660205 0 -1 0 I I #
point $-1 -50.848719748527486 35.005185426051632 13.87847115660205 #
point $-1 -50.848719748527486 -35.005185426051632 13.87847115660205 #
straight-curve $-1 50.848719748527486 -35.005185426051632 0 0 0 -1 I I #
straight-curve $-1 50.848719748527486 35.005185426051632 0 0 0 -1 I I #
loop $-1 $-1 $214 $208 #
plane-surface $-1 0 -35.005185426051632 0 0 1 0 0 0 1 forward_v I I I I #
coedge $-1 $225 $216 $212 $281 forward $209 $-1 #
edge $-1 $285 -21.582804783131834 $220 -5.2619565027077613 $211 $317 forward 7 unknown #
edge $-1 $221 5.2619565027077613 $284 21.582804783131834 $279 $318 forward 7 unknown #
coedge $-1 $223 $214 $228 $294 reversed $277 $-1 #
coedge $-1 $214 $223 $225 $292 reversed $277 $-1 #
vertex $-1 $292 $319 #
vertex $-1 $215 $320 #
straight-curve $-1 -23.091777435323387 -35.005185426051632 0 0 0 1 I I #
straight-curve $-1 -12.731088214532377 -18.684337145627559 -13.87847115660205 1 0 0 I I #
straight-curve $-1 -12.731088214532377 -18.684337145627559 13.87847115660205 -1 0 0 I I #
point $-1 -23.091777435323387 -18.684337145627559 13.87847115660205 #
point $-1 -23.091777435323387 -18.684337145627559 -13.87847115660205 #
straight-curve $-1 -27.832575422806123 -35.005185426051632 0 0 0 -1 I I #
edge $-1 $284 23.091777435323387 $226 27.832575422806123 $283 $321 forward 7 unknown #
point $-1 -27.832575422806123 -35.005185426051632 -13.87847115660205 #
edge $-1 $229 -27.832575422806123 $285 -23.091777435323387 $282 $322 forward 7 unknown #
point $-1 -27.832575422806123 -35.005185426051632 13.87847115660205 #
coedge $-1 $297 $235 $303 $323 reversed $156 $-1 #
coedge $-1 $235 $296 $238 $301 forward $156 $-1 #
edge $-1 $299 -20.167902472318428 $243 -9.5066634351479635 $242 $324 forward 7 unknown #
vertex $-1 $237 $325 #
straight-curve $-1 11.935816344060179 35.005185426051632 58.172845539983719 -0.61566146476048833 0 0.78801076186113728 I I #
edge $-1 $305 -13.87847115660205 $239 -8.3665990666685435 $238 $326 forward 7 unknown #
point $-1 50.848719748527486 35.005185426051632 8.3665990666685435 #
coedge $-1 $242 $241 $296 $323 forward $233 $-1 #
point $-1 46.542373428527725 24.343946388881161 13.878471156602046 #
vertex $-1 $246 $327 #
straight-curve $-1 50.848719748527486 0 13.87847115660205 0 1 0 I I #
vertex $-1 $249 $328 #
point $-1 48.058531567028005 26.476194196315255 9.990335344332987 #
vertex $-1 $253 $329 #
point $-1 48.058531567028005 29.674565907466395 9.990335344332987 #
vertex $-1 $257 $330 #
point $-1 48.058531567028005 32.872937618617534 9.990335344332987 #
straight-curve $-1 -50.848719748527486 35.005185426051632 0 0 0 -1 I I #
point $-1 -50.848719748527486 -35.005185426051632 -13.87847115660205 #
straight-curve $-1 -50.848719748527486 0 -13.87847115660205 0 1 0 I I #
point $-1 -50.848719748527486 35.005185426051632 -13.87847115660205 #
straight-curve $-1 -23.091777435323387 -13.422380642919798 13.87847115660205 0 1 0 I I #
straight-curve $-1 -23.091777435323387 -13.422380642919798 -13.87847115660205 0 -1 0 I I #
point $-1 -23.091777435323387 -35.005185426051632 -13.87847115660205 #
point $-1 -23.091777435323387 -35.005185426051632 13.87847115660205 #
straight-curve $-1 0 -35.005185426051632 -13.87847115660205 -1 0 0 I I #
straight-curve $-1 0 -35.005185426051632 13.87847115660205 1 0 0 I I #
edge $-1 $305 -50.848719748527486 $299 -46.542373428527725 $296 $331 forward 7 unknown #
straight-curve $-1 46.542373428527732 14.837282953733197 13.878471156602046 0 -1 0 I I #
point $-1 46.542373428527725 35.005185426051625 13.878471156602046 #
straight-curve $-1 50.848719748527486 35.005185426051632 0 0 0 -1 I I #
point $-1 50.848719748527486 35.005185426051632 13.87847115660205 #
point $-1 47.356695453717194 26.476194196315255 10.076509992883311 #
point $-1 47.356695453717194 29.674565907466395 10.076509992883311 #
point $-1 47.356695453717194 32.872937618617534 10.076509992883311 #
straight-curve $-1 0 35.005185426051632 13.87847115660205 -1 0 0 I I #
End-of-ACIS-data 