500 0 15 0           
7 Unknown 11 ACIS 5.0 NT 24 Thu Mar 25 23:31:34 1999 
-1 9.9999999999999995e-007 1e-010 
body $-1 $15 $-1 $16 #
body $-1 $17 $-1 $18 #
body $-1 $19 $-1 $20 #
body $-1 $21 $-1 $22 #
body $-1 $23 $-1 $24 #
body $-1 $25 $-1 $26 #
body $-1 $27 $-1 $28 #
body $-1 $29 $-1 $30 #
body $-1 $31 $-1 $32 #
body $-1 $33 $-1 $34 #
body $-1 $35 $-1 $36 #
body $-1 $37 $-1 $38 #
body $-1 $39 $-1 $40 #
body $-1 $41 $-1 $42 #
body $-1 $43 $-1 $44 #
lump $-1 $-1 $45 $0 #
transform $-1 1 0 0 0 1 0 0 0 1 55.272682882168034 25.61753145318831 10.572635978298333 1 rotate no_reflect no_shear #
lump $-1 $-1 $46 $1 #
transform $-1 1 0 0 0 1 0 0 0 1 55.272682882168034 25.61753145318831 10.572635978298333 1 rotate no_reflect no_shear #
lump $-1 $-1 $47 $2 #
transform $-1 1 0 0 0 1 0 0 0 1 55.272682882168034 25.61753145318831 10.572635978298333 1 rotate no_reflect no_shear #
lump $-1 $-1 $48 $3 #
transform $-1 1 0 0 0 1 0 0 0 1 55.272682882168034 25.61753145318831 10.572635978298333 1 rotate no_reflect no_shear #
lump $-1 $-1 $49 $4 #
transform $-1 1 0 0 0 1 0 0 0 1 55.272682882168034 25.61753145318831 10.572635978298333 1 rotate no_reflect no_shear #
lump $-1 $-1 $50 $5 #
transform $-1 1 0 0 0 1 0 0 0 1 55.272682882168034 25.61753145318831 10.572635978298333 1 rotate no_reflect no_shear #
lump $-1 $-1 $51 $6 #
transform $-1 1 0 0 0 1 0 0 0 1 55.272682882168034 25.61753145318831 10.572635978298333 1 rotate no_reflect no_shear #
lump $-1 $-1 $52 $7 #
transform $-1 1 0 0 0 1 0 0 0 1 55.272682882168034 25.61753145318831 10.572635978298333 1 rotate no_reflect no_shear #
lump $-1 $-1 $53 $8 #
transform $-1 1 0 0 0 1 0 0 0 1 55.272682882168034 25.61753145318831 10.572635978298333 1 rotate no_reflect no_shear #
lump $-1 $-1 $54 $9 #
transform $-1 1 0 0 0 1 0 0 0 1 55.272682882168034 25.61753145318831 10.572635978298333 1 rotate no_reflect no_shear #
lump $-1 $-1 $55 $10 #
transform $-1 1 0 0 0 1 0 0 0 1 55.272682882168034 25.61753145318831 10.572635978298333 1 rotate no_reflect no_shear #
lump $-1 $-1 $56 $11 #
transform $-1 1 0 0 0 1 0 0 0 1 55.272682882168034 25.61753145318831 10.572635978298333 1 rotate no_reflect no_shear #
lump $-1 $-1 $57 $12 #
transform $-1 1 0 0 0 1 0 0 0 1 55.272682882168034 25.61753145318831 10.572635978298333 1 rotate no_reflect no_shear #
lump $-1 $-1 $58 $13 #
transform $-1 1 0 0 0 1 0 0 0 1 55.272682882168034 25.61753145318831 10.572635978298333 1 rotate no_reflect no_shear #
lump $-1 $-1 $59 $14 #
transform $-1 1 0 0 0 1 0 0 0 1 55.272682882168034 25.61753145318831 10.572635978298333 1 rotate no_reflect no_shear #
shell $-1 $-1 $-1 $60 $-1 $15 #
shell $-1 $-1 $-1 $61 $-1 $17 #
shell $-1 $-1 $-1 $62 $-1 $19 #
shell $-1 $-1 $-1 $63 $-1 $21 #
shell $-1 $-1 $-1 $64 $-1 $23 #
shell $-1 $-1 $-1 $65 $-1 $25 #
shell $-1 $-1 $-1 $66 $-1 $27 #
shell $-1 $-1 $-1 $67 $-1 $29 #
shell $-1 $-1 $-1 $68 $-1 $31 #
shell $-1 $-1 $-1 $69 $-1 $33 #
shell $-1 $-1 $-1 $70 $-1 $35 #
shell $-1 $-1 $-1 $71 $-1 $37 #
shell $-1 $-1 $-1 $72 $-1 $39 #
shell $-1 $-1 $-1 $73 $-1 $41 #
shell $-1 $-1 $-1 $74 $-1 $43 #
face $-1 $75 $76 $45 $-1 $77 reversed single #
face $-1 $78 $79 $46 $-1 $80 forward single #
face $-1 $81 $82 $47 $-1 $83 forward single #
face $-1 $84 $85 $48 $-1 $86 reversed single #
face $-1 $87 $88 $49 $-1 $89 forward single #
face $-1 $90 $91 $50 $-1 $92 forward single #
face $-1 $93 $94 $51 $-1 $95 reversed single #
face $-1 $96 $97 $52 $-1 $98 forward single #
face $-1 $99 $100 $53 $-1 $101 forward single #
face $-1 $102 $103 $54 $-1 $104 reversed single #
face $-1 $105 $106 $55 $-1 $107 forward single #
face $-1 $108 $109 $56 $-1 $110 forward single #
face $-1 $111 $112 $57 $-1 $113 reversed single #
face $-1 $114 $115 $58 $-1 $116 forward single #
face $-1 $117 $118 $59 $-1 $119 forward single #
face $-1 $120 $121 $45 $-1 $122 forward single #
loop $-1 $-1 $123 $60 #
plane-surface $-1 55.272682882168034 0 0 -1 0 0 0 0 1 forward_v I I I I #
face $-1 $124 $125 $46 $-1 $126 reversed single #
loop $-1 $-1 $127 $61 #
plane-surface $-1 -55.272682882168034 0 0 1 0 0 0 0 -1 forward_v I I I I #
face $-1 $128 $129 $47 $-1 $130 reversed single #
loop $-1 $-1 $131 $62 #
plane-surface $-1 55.272682882168034 0 0 -1 0 0 0 0 1 forward_v I I I I #
face $-1 $132 $133 $48 $-1 $134 reversed single #
loop $-1 $-1 $135 $63 #
plane-surface $-1 -35.082371693151096 -118.32867702733949 63.121098909299576 -1 0 0 0 -0.83867057594974714 0.54463902268945019 forward_v I I I I #
face $-1 $136 $137 $49 $-1 $138 forward single #
loop $-1 $139 $140 $64 #
cone-surface $-1 -43.047034800769808 -21.991554373364995 6.0034561215045041 0 0.83867057594974714 -0.54463902268945019 1 0 0 1 I I 0 1 1 forward I I I I #
face $-1 $141 $142 $50 $-1 $143 forward single #
loop $-1 $144 $145 $65 #
cone-surface $-1 -38.268236936198576 -21.991554373364995 6.0034561215045041 0 0.83867057594974714 -0.54463902268945019 1 0 0 1 I I 0 1 1 forward I I I I #
face $-1 $146 $147 $51 $-1 $148 reversed single #
loop $-1 $-1 $149 $66 #
plane-surface $-1 46.232900043817281 -118.32867702733949 63.121098909299576 -1 0 0 0 -0.83867057594974714 0.54463902268945019 forward_v I I I I #
face $-1 $150 $151 $52 $-1 $152 forward single #
loop $-1 $153 $154 $67 #
cone-surface $-1 38.268236936198569 -21.991554373364995 6.0034561215045041 0 0.83867057594974714 -0.54463902268945019 1 0 0 1 I I 0 1 1 forward I I I I #
face $-1 $155 $156 $53 $-1 $157 forward single #
loop $-1 $158 $159 $68 #
cone-surface $-1 43.047034800769801 -21.991554373364995 6.0034561215045041 0 0.83867057594974714 -0.54463902268945019 1 0 0 1 I I 0 1 1 forward I I I I #
face $-1 $160 $161 $54 $-1 $162 reversed single #
loop $-1 $-1 $163 $69 #
plane-surface $-1 -46.232900043817288 90.424062438578048 106.09043862581198 1 0 0 0 -0.83867057594974714 -0.54463902268945019 forward_v I I I I #
face $-1 $164 $165 $55 $-1 $166 forward single #
loop $-1 $167 $168 $70 #
cone-surface $-1 -43.047034800769808 21.991554373364995 6.0034561215045112 0 -0.83867057594974714 -0.54463902268945019 1 0 0 1 I I 0 1 1 forward I I I I #
face $-1 $169 $170 $56 $-1 $171 forward single #
loop $-1 $172 $173 $71 #
cone-surface $-1 -38.268236936198576 21.991554373364995 6.0034561215045112 0 -0.83867057594974714 -0.54463902268945019 1 0 0 1 I I 0 1 1 forward I I I I #
face $-1 $174 $175 $57 $-1 $176 reversed single #
loop $-1 $-1 $177 $72 #
plane-surface $-1 35.082371693151089 90.424062438578048 106.09043862581198 1 0 0 0 -0.83867057594974714 -0.54463902268945019 forward_v I I I I #
face $-1 $178 $179 $58 $-1 $180 forward single #
loop $-1 $181 $182 $73 #
cone-surface $-1 38.268236936198569 21.991554373364995 6.0034561215045112 0 -0.83867057594974714 -0.54463902268945019 1 0 0 1 I I 0 1 1 forward I I I I #
face $-1 $183 $184 $59 $-1 $185 forward single #
loop $-1 $186 $187 $74 #
cone-surface $-1 43.047034800769801 21.991554373364995 6.0034561215045112 0 -0.83867057594974714 -0.54463902268945019 1 0 0 1 I I 0 1 1 forward I I I I #
face $-1 $188 $189 $45 $-1 $190 reversed single #
loop $-1 $-1 $191 $75 #
plane-surface $-1 0 0 10.572635978298333 0 0 1 1 0 0 forward_v I I I I #
coedge $-1 $192 $193 $194 $195 reversed $76 $-1 #
face $-1 $196 $197 $46 $-1 $198 forward single #
loop $-1 $-1 $199 $78 #
plane-surface $-1 0 25.61753145318831 0 0 -1 0 0 0 -1 forward_v I I I I #
coedge $-1 $200 $201 $202 $203 forward $79 $-1 #
face $-1 $204 $205 $47 $-1 $206 forward single #
loop $-1 $-1 $207 $81 #
plane-surface $-1 0 -25.61753145318831 0 0 1 0 0 0 1 forward_v I I I I #
coedge $-1 $208 $209 $210 $211 forward $82 $-1 #
face $-1 $212 $213 $48 $-1 $214 reversed single #
loop $-1 $-1 $215 $84 #
plane-surface $-1 -40.657635868484192 -25.617531453188306 2.913778936563773 0 -0.83867057594974714 0.54463902268945019 1 0 0 forward_v I I I I #
coedge $-1 $216 $217 $218 $219 reversed $85 $-1 #
face $-1 $-1 $220 $49 $-1 $221 forward single #
loop $-1 $222 $223 $87 #
cone-surface $-1 -43.047034800769808 -20.433101884610938 4.9913852742332274 0 0.83867057594974714 -0.54463902268945019 0.5 0 0 1 I I -0.70710678118654746 0.70710678118654746 0.5 forward I I I I #
loop $-1 $-1 $224 $64 #
coedge $-1 $140 $140 $225 $226 reversed $88 $-1 #
face $-1 $-1 $227 $50 $-1 $228 forward single #
loop $-1 $229 $230 $90 #
cone-surface $-1 -38.268236936198576 -20.433101884610938 4.9913852742332274 0 0.83867057594974714 -0.54463902268945019 0.5 0 0 1 I I -0.70710678118654746 0.70710678118654746 0.5 forward I I I I #
loop $-1 $-1 $231 $65 #
coedge $-1 $145 $145 $232 $233 reversed $91 $-1 #
face $-1 $234 $235 $51 $-1 $236 reversed single #
loop $-1 $-1 $237 $93 #
plane-surface $-1 40.657635868484185 -25.617531453188306 2.913778936563773 0 -0.83867057594974714 0.54463902268945019 1 0 0 forward_v I I I I #
coedge $-1 $238 $239 $240 $241 reversed $94 $-1 #
face $-1 $-1 $242 $52 $-1 $243 forward single #
loop $-1 $244 $245 $96 #
cone-surface $-1 38.268236936198569 -20.433101884610938 4.9913852742332274 0 0.83867057594974714 -0.54463902268945019 0.5 0 0 1 I I -0.70710678118654746 0.70710678118654746 0.5 forward I I I I #
loop $-1 $-1 $246 $67 #
coedge $-1 $154 $154 $247 $248 reversed $97 $-1 #
face $-1 $-1 $249 $53 $-1 $250 forward single #
loop $-1 $251 $252 $99 #
cone-surface $-1 43.047034800769801 -20.433101884610938 4.9913852742332274 0 0.83867057594974714 -0.54463902268945019 0.5 0 0 1 I I -0.70710678118654746 0.70710678118654746 0.5 forward I I I I #
loop $-1 $-1 $253 $68 #
coedge $-1 $159 $159 $254 $255 reversed $100 $-1 #
face $-1 $256 $257 $54 $-1 $258 reversed single #
loop $-1 $-1 $259 $102 #
plane-surface $-1 -40.657635868484192 -2.2870831355731411 45.883118653076181 0 0.83867057594974714 0.54463902268945019 1 0 0 forward_v I I I I #
coedge $-1 $260 $261 $262 $263 reversed $103 $-1 #
face $-1 $-1 $264 $55 $-1 $265 forward single #
loop $-1 $266 $267 $105 #
cone-surface $-1 -43.047034800769808 20.433101884610938 4.9913852742332345 0 -0.83867057594974714 -0.54463902268945019 0.5 0 0 1 I I -0.70710678118654746 0.70710678118654746 0.5 forward I I I I #
loop $-1 $-1 $268 $70 #
coedge $-1 $168 $168 $269 $270 reversed $106 $-1 #
face $-1 $-1 $271 $56 $-1 $272 forward single #
loop $-1 $273 $274 $108 #
cone-surface $-1 -38.268236936198576 20.433101884610938 4.9913852742332345 0 -0.83867057594974714 -0.54463902268945019 0.5 0 0 1 I I -0.70710678118654746 0.70710678118654746 0.5 forward I I I I #
loop $-1 $-1 $275 $71 #
coedge $-1 $173 $173 $276 $277 reversed $109 $-1 #
face $-1 $278 $279 $57 $-1 $280 reversed single #
loop $-1 $-1 $281 $111 #
plane-surface $-1 40.657635868484185 -2.2870831355731411 45.883118653076181 0 0.83867057594974714 0.54463902268945019 1 0 0 forward_v I I I I #
coedge $-1 $282 $283 $284 $285 reversed $112 $-1 #
face $-1 $-1 $286 $58 $-1 $287 forward single #
loop $-1 $288 $289 $114 #
cone-surface $-1 38.268236936198569 20.433101884610938 4.9913852742332345 0 -0.83867057594974714 -0.54463902268945019 0.5 0 0 1 I I -0.70710678118654746 0.70710678118654746 0.5 forward I I I I #
loop $-1 $-1 $290 $73 #
coedge $-1 $182 $182 $291 $292 reversed $115 $-1 #
face $-1 $-1 $293 $59 $-1 $294 forward single #
loop $-1 $295 $296 $117 #
cone-surface $-1 43.047034800769801 20.433101884610938 4.9913852742332345 0 -0.83867057594974714 -0.54463902268945019 0.5 0 0 1 I I -0.70710678118654746 0.70710678118654746 0.5 forward I I I I #
loop $-1 $-1 $297 $74 #
coedge $-1 $187 $187 $298 $299 reversed $118 $-1 #
face $-1 $300 $301 $45 $-1 $302 reversed single #
loop $-1 $-1 $303 $120 #
plane-surface $-1 0 0 -10.572635978298333 0 0 1 1 0 0 forward_v I I I I #
coedge $-1 $304 $305 $192 $306 forward $121 $-1 #
coedge $-1 $307 $123 $191 $306 reversed $76 $-1 #
coedge $-1 $123 $307 $303 $308 reversed $76 $-1 #
coedge $-1 $309 $310 $123 $195 forward $311 $-1 #
edge $-1 $312 -10.572635978298333 $313 10.572635978298333 $123 $314 forward 7 unknown #
face $-1 $315 $316 $46 $-1 $317 reversed single #
loop $-1 $-1 $202 $124 #
plane-surface $-1 -59.792574301343407 0 3.5845713461831652 0 0 1 1 0 0 forward_v I I I I #
coedge $-1 $318 $319 $201 $320 forward $125 $-1 #
coedge $-1 $321 $127 $322 $323 reversed $79 $-1 #
coedge $-1 $127 $321 $199 $320 reversed $79 $-1 #
coedge $-1 $324 $325 $127 $203 reversed $197 $-1 #
edge $-1 $326 -25.61753145318831 $327 25.61753145318831 $202 $328 forward 7 unknown #
face $-1 $329 $330 $47 $-1 $331 reversed single #
loop $-1 $-1 $332 $128 #
plane-surface $-1 59.792574301343414 0 3.5845713461831652 0 0 1 1 0 0 forward_v I I I I #
coedge $-1 $333 $334 $209 $335 forward $129 $-1 #
coedge $-1 $336 $131 $337 $338 reversed $82 $-1 #
coedge $-1 $131 $336 $207 $335 reversed $82 $-1 #
coedge $-1 $339 $340 $131 $211 reversed $205 $-1 #
edge $-1 $341 -25.61753145318831 $342 25.61753145318831 $210 $343 forward 7 unknown #
face $-1 $344 $345 $48 $-1 $346 forward single #
loop $-1 $-1 $347 $132 #
plane-surface $-1 -46.232900043817288 -118.32867702733949 63.121098909299576 1 0 0 0 0.83867057594974714 -0.54463902268945019 forward_v I I I I #
coedge $-1 $348 $349 $350 $351 reversed $133 $-1 #
coedge $-1 $217 $135 $352 $353 reversed $85 $-1 #
coedge $-1 $135 $216 $348 $354 reversed $85 $-1 #
coedge $-1 $350 $355 $135 $219 forward $345 $-1 #
edge $-1 $356 33.546807060481441 $357 38.520526818569707 $218 $358 forward 7 unknown #
loop $-1 $-1 $225 $136 #
plane-surface $-1 -40.657635868484192 -25.617531453188306 2.913778936563773 0 -0.83867057594974714 0.54463902268945019 1 0 0 forward_v I I I I #
loop $-1 $-1 $359 $87 #
coedge $-1 $223 $223 $224 $360 reversed $137 $-1 #
coedge $-1 $224 $224 $223 $360 forward $139 $-1 #
coedge $-1 $225 $225 $140 $226 forward $220 $-1 #
edge $-1 $361 1.0446099212668148e-015 $361 6.2831853071796013 $225 $362 forward 7 unknown #
loop $-1 $-1 $232 $141 #
plane-surface $-1 -40.657635868484192 -25.617531453188306 2.913778936563773 0 -0.83867057594974714 0.54463902268945019 1 0 0 forward_v I I I I #
loop $-1 $-1 $363 $90 #
coedge $-1 $230 $230 $231 $364 reversed $142 $-1 #
coedge $-1 $231 $231 $230 $364 forward $144 $-1 #
coedge $-1 $232 $232 $145 $233 forward $227 $-1 #
edge $-1 $365 1.0446099212668148e-015 $365 6.2831853071796013 $232 $366 forward 7 unknown #
face $-1 $367 $368 $51 $-1 $369 reversed single #
loop $-1 $-1 $370 $146 #
plane-surface $-1 35.082371693151089 -118.32867702733949 63.121098909299576 1 0 0 0 0.83867057594974714 -0.54463902268945019 forward_v I I I I #
coedge $-1 $371 $372 $373 $374 reversed $147 $-1 #
coedge $-1 $239 $149 $375 $376 reversed $94 $-1 #
coedge $-1 $149 $238 $371 $377 reversed $94 $-1 #
coedge $-1 $373 $378 $149 $241 forward $379 $-1 #
edge $-1 $380 33.546807060481441 $381 38.520526818569707 $240 $382 forward 7 unknown #
loop $-1 $-1 $247 $150 #
plane-surface $-1 40.657635868484185 -25.617531453188306 2.913778936563773 0 -0.83867057594974714 0.54463902268945019 1 0 0 forward_v I I I I #
loop $-1 $-1 $383 $96 #
coedge $-1 $245 $245 $246 $384 reversed $151 $-1 #
coedge $-1 $246 $246 $245 $384 forward $153 $-1 #
coedge $-1 $247 $247 $154 $248 forward $242 $-1 #
edge $-1 $385 1.0446099212668148e-015 $385 6.2831853071796013 $247 $386 forward 7 unknown #
loop $-1 $-1 $254 $155 #
plane-surface $-1 40.657635868484185 -25.617531453188306 2.913778936563773 0 -0.83867057594974714 0.54463902268945019 1 0 0 forward_v I I I I #
loop $-1 $-1 $387 $99 #
coedge $-1 $252 $252 $253 $388 reversed $156 $-1 #
coedge $-1 $253 $253 $252 $388 forward $158 $-1 #
coedge $-1 $254 $254 $159 $255 forward $249 $-1 #
edge $-1 $389 1.0446099212668148e-015 $389 6.2831853071796013 $254 $390 forward 7 unknown #
face $-1 $391 $392 $54 $-1 $393 reversed single #
loop $-1 $-1 $394 $160 #
plane-surface $-1 -35.082371693151096 90.424062438578048 106.09043862581198 -1 0 0 0 0.83867057594974714 0.54463902268945019 forward_v I I I I #
coedge $-1 $395 $396 $397 $398 reversed $161 $-1 #
coedge $-1 $261 $163 $399 $400 reversed $103 $-1 #
coedge $-1 $163 $260 $395 $401 reversed $103 $-1 #
coedge $-1 $397 $402 $163 $263 forward $403 $-1 #
edge $-1 $404 19.594499766100714 $405 24.568219524188969 $262 $406 forward 7 unknown #
loop $-1 $-1 $269 $164 #
plane-surface $-1 -40.657635868484192 -2.2870831355731411 45.883118653076181 0 0.83867057594974714 0.54463902268945019 1 0 0 forward_v I I I I #
loop $-1 $-1 $407 $105 #
coedge $-1 $267 $267 $268 $408 reversed $165 $-1 #
coedge $-1 $268 $268 $267 $408 forward $167 $-1 #
coedge $-1 $269 $269 $168 $270 forward $264 $-1 #
edge $-1 $409 -4.4516829232526574e-016 $409 6.2831853071795996 $269 $410 forward 7 unknown #
loop $-1 $-1 $276 $169 #
plane-surface $-1 -40.657635868484192 -2.2870831355731411 45.883118653076181 0 0.83867057594974714 0.54463902268945019 1 0 0 forward_v I I I I #
loop $-1 $-1 $411 $108 #
coedge $-1 $274 $274 $275 $412 reversed $170 $-1 #
coedge $-1 $275 $275 $274 $412 forward $172 $-1 #
coedge $-1 $276 $276 $173 $277 forward $271 $-1 #
edge $-1 $413 -4.4516829232526574e-016 $413 6.2831853071795996 $276 $414 forward 7 unknown #
face $-1 $415 $416 $57 $-1 $417 forward single #
loop $-1 $-1 $418 $174 #
plane-surface $-1 46.232900043817281 90.424062438578048 106.09043862581198 -1 0 0 0 0.83867057594974714 0.54463902268945019 forward_v I I I I #
coedge $-1 $419 $420 $421 $422 reversed $175 $-1 #
coedge $-1 $283 $177 $423 $424 reversed $112 $-1 #
coedge $-1 $177 $282 $419 $425 reversed $112 $-1 #
coedge $-1 $421 $426 $177 $285 forward $416 $-1 #
edge $-1 $427 19.594499766100714 $428 24.568219524188969 $284 $429 forward 7 unknown #
loop $-1 $-1 $291 $178 #
plane-surface $-1 40.657635868484185 -2.2870831355731411 45.883118653076181 0 0.83867057594974714 0.54463902268945019 1 0 0 forward_v I I I I #
loop $-1 $-1 $430 $114 #
coedge $-1 $289 $289 $290 $431 reversed $179 $-1 #
coedge $-1 $290 $290 $289 $431 forward $181 $-1 #
coedge $-1 $291 $291 $182 $292 forward $286 $-1 #
edge $-1 $432 -4.4516829232526574e-016 $432 6.2831853071795996 $291 $433 forward 7 unknown #
loop $-1 $-1 $298 $183 #
plane-surface $-1 40.657635868484185 -2.2870831355731411 45.883118653076181 0 0.83867057594974714 0.54463902268945019 1 0 0 forward_v I I I I #
loop $-1 $-1 $434 $117 #
coedge $-1 $296 $296 $297 $435 reversed $184 $-1 #
coedge $-1 $297 $297 $296 $435 forward $186 $-1 #
coedge $-1 $298 $298 $187 $299 forward $293 $-1 #
edge $-1 $436 -4.4516829232526574e-016 $436 6.2831853071795996 $298 $437 forward 7 unknown #
face $-1 $438 $439 $45 $-1 $440 reversed single #
loop $-1 $-1 $441 $188 #
plane-surface $-1 0 -25.61753145318831 0 0 1 0 0 0 1 forward_v I I I I #
coedge $-1 $442 $443 $193 $308 forward $189 $-1 #
coedge $-1 $444 $191 $310 $445 forward $121 $-1 #
coedge $-1 $191 $444 $446 $447 forward $121 $-1 #
edge $-1 $448 -25.61753145318831 $312 25.61753145318831 $192 $449 forward 7 unknown #
coedge $-1 $193 $192 $450 $451 forward $76 $-1 #
edge $-1 $313 -25.61753145318831 $452 25.61753145318831 $193 $453 forward 7 unknown #
coedge $-1 $454 $194 $443 $455 reversed $311 $-1 #
coedge $-1 $194 $454 $304 $445 reversed $311 $-1 #
loop $-1 $-1 $194 $438 #
vertex $-1 $306 $456 #
vertex $-1 $308 $457 #
straight-curve $-1 55.272682882168034 25.61753145318831 0 0 0 -1 I I #
face $-1 $458 $459 $46 $-1 $460 reversed single #
loop $-1 $-1 $461 $196 #
plane-surface $-1 -59.792574301343407 0 -0.95004309858776725 0 0 1 1 0 0 forward_v I I I I #
coedge $-1 $462 $199 $463 $464 reversed $125 $-1 #
coedge $-1 $199 $462 $324 $465 reversed $125 $-1 #
edge $-1 $326 -3.5845713461831652 $466 0.95004309858776725 $199 $467 forward 7 unknown #
coedge $-1 $201 $200 $461 $468 forward $79 $-1 #
coedge $-1 $469 $470 $200 $323 forward $471 $-1 #
edge $-1 $472 -0.95004309858776725 $327 3.5845713461831652 $322 $473 forward 7 unknown #
coedge $-1 $474 $202 $319 $465 forward $197 $-1 #
coedge $-1 $202 $474 $469 $475 forward $197 $-1 #
vertex $-1 $320 $476 #
vertex $-1 $475 $477 #
straight-curve $-1 -55.272682882168034 0 3.5845713461831652 0 -1 0 I I #
face $-1 $478 $479 $47 $-1 $480 reversed single #
loop $-1 $-1 $481 $204 #
plane-surface $-1 59.792574301343414 0 -0.95004309858776725 0 0 1 1 0 0 forward_v I I I I #
coedge $-1 $340 $339 $482 $483 forward $205 $-1 #
coedge $-1 $484 $207 $485 $486 reversed $129 $-1 #
coedge $-1 $207 $484 $339 $487 reversed $129 $-1 #
edge $-1 $341 -3.5845713461831652 $488 0.95004309858776725 $207 $489 forward 7 unknown #
coedge $-1 $209 $208 $490 $491 forward $82 $-1 #
coedge $-1 $492 $493 $208 $338 forward $494 $-1 #
edge $-1 $495 -0.95004309858776725 $342 3.5845713461831652 $337 $496 forward 7 unknown #
coedge $-1 $332 $210 $334 $487 forward $205 $-1 #
coedge $-1 $210 $332 $492 $497 forward $205 $-1 #
vertex $-1 $335 $498 #
vertex $-1 $497 $499 #
straight-curve $-1 55.272682882168034 0 3.5845713461831652 0 1 0 I I #
face $-1 $-1 $500 $48 $-1 $501 reversed single #
loop $-1 $-1 $218 $212 #
plane-surface $-1 0 0 10.572635978298333 0 0 1 1 0 0 forward_v I I I I #
coedge $-1 $502 $503 $504 $505 reversed $213 $-1 #
coedge $-1 $506 $215 $217 $354 forward $133 $-1 #
coedge $-1 $215 $506 $502 $507 forward $133 $-1 #
coedge $-1 $504 $218 $215 $351 forward $345 $-1 #
edge $-1 $357 14.753553758909 $508 25.904082109575192 $350 $509 forward 7 unknown #
coedge $-1 $510 $511 $216 $353 forward $500 $-1 #
edge $-1 $512 -28.646770518086022 $356 -20.987913476351455 $352 $513 forward 7 unknown #
edge $-1 $357 -9.1321399144847017 $512 6.4042811466935879e-015 $217 $514 forward 7 unknown #
coedge $-1 $218 $504 $510 $515 forward $345 $-1 #
vertex $-1 $353 $516 #
vertex $-1 $219 $517 #
straight-curve $-1 -35.082371693151096 -59.164338513669747 10.572635978298333 0 1 0 I I #
coedge $-1 $359 $359 $-1 $518 reversed $222 $-1 #
edge $-1 $519 0 $519 6.2831853071796004 $223 $520 forward 7 unknown #
vertex $-1 $226 $521 #
ellipse-curve $-1 -43.047034800769808 -23.130671574144174 6.743207457431053 0 -0.83867057594974714 0.54463902268945019 1 0 0 1 I I #
coedge $-1 $363 $363 $-1 $522 reversed $229 $-1 #
edge $-1 $523 0 $523 6.2831853071796004 $230 $524 forward 7 unknown #
vertex $-1 $233 $525 #
ellipse-curve $-1 -38.268236936198576 -23.130671574144174 6.743207457431053 0 -0.83867057594974714 0.54463902268945019 1 0 0 1 I I #
face $-1 $-1 $379 $51 $-1 $526 forward single #
loop $-1 $-1 $527 $234 #
plane-surface $-1 0 -25.61753145318831 0 0 1 0 0 0 1 forward_v I I I I #
coedge $-1 $528 $529 $530 $531 reversed $235 $-1 #
coedge $-1 $532 $237 $239 $377 forward $147 $-1 #
coedge $-1 $237 $532 $528 $533 forward $147 $-1 #
coedge $-1 $530 $240 $237 $374 forward $379 $-1 #
edge $-1 $381 -25.904082109575189 $534 -14.753553758908996 $373 $535 forward 7 unknown #
coedge $-1 $536 $537 $238 $376 forward $368 $-1 #
edge $-1 $538 -28.646770518086022 $380 -20.987913476351455 $375 $539 forward 7 unknown #
edge $-1 $381 -9.1321399144847017 $538 6.4042811466935879e-015 $239 $540 forward 7 unknown #
coedge $-1 $240 $530 $536 $541 forward $379 $-1 #
loop $-1 $-1 $530 $367 #
vertex $-1 $376 $542 #
vertex $-1 $241 $543 #
straight-curve $-1 46.232900043817281 -59.164338513669747 10.572635978298333 0 1 0 I I #
coedge $-1 $383 $383 $-1 $544 reversed $244 $-1 #
edge $-1 $545 0 $545 6.2831853071796004 $245 $546 forward 7 unknown #
vertex $-1 $248 $547 #
ellipse-curve $-1 38.268236936198569 -23.130671574144174 6.743207457431053 0 -0.83867057594974714 0.54463902268945019 1 0 0 1 I I #
coedge $-1 $387 $387 $-1 $548 reversed $251 $-1 #
edge $-1 $549 0 $549 6.2831853071796004 $252 $550 forward 7 unknown #
vertex $-1 $255 $551 #
ellipse-curve $-1 43.047034800769801 -23.130671574144174 6.743207457431053 0 -0.83867057594974714 0.54463902268945019 1 0 0 1 I I #
face $-1 $-1 $403 $54 $-1 $552 forward single #
loop $-1 $-1 $553 $256 #
plane-surface $-1 0 25.61753145318831 0 0 -1 0 0 0 -1 forward_v I I I I #
coedge $-1 $554 $555 $556 $557 reversed $257 $-1 #
coedge $-1 $558 $259 $261 $401 forward $161 $-1 #
coedge $-1 $259 $558 $554 $559 forward $161 $-1 #
coedge $-1 $556 $262 $259 $398 forward $403 $-1 #
edge $-1 $405 -25.904082109575192 $560 -14.753553758909 $397 $561 forward 7 unknown #
coedge $-1 $562 $563 $260 $400 forward $392 $-1 #
edge $-1 $564 -50.131440376342198 $404 -42.472583334607663 $399 $565 forward 7 unknown #
edge $-1 $405 42.102922991891916 $564 51.235062906376598 $261 $566 forward 7 unknown #
coedge $-1 $262 $556 $562 $567 forward $403 $-1 #
loop $-1 $-1 $556 $391 #
vertex $-1 $400 $568 #
vertex $-1 $263 $569 #
straight-curve $-1 -46.232900043817288 45.212031219289024 10.572635978298329 0 -1 0 I I #
coedge $-1 $407 $407 $-1 $570 reversed $266 $-1 #
edge $-1 $571 0 $571 6.2831853071796004 $267 $572 forward 7 unknown #
vertex $-1 $270 $573 #
ellipse-curve $-1 -43.047034800769808 23.130671574144181 6.7432074574310654 0 0.83867057594974714 0.54463902268945019 1 0 0 1 I I #
coedge $-1 $411 $411 $-1 $574 reversed $273 $-1 #
edge $-1 $575 0 $575 6.2831853071796004 $274 $576 forward 7 unknown #
vertex $-1 $277 $577 #
ellipse-curve $-1 -38.268236936198576 23.130671574144181 6.7432074574310654 0 0.83867057594974714 0.54463902268945019 1 0 0 1 I I #
face $-1 $-1 $578 $57 $-1 $579 reversed single #
loop $-1 $-1 $284 $278 #
plane-surface $-1 0 0 10.572635978298333 0 0 1 1 0 0 forward_v I I I I #
coedge $-1 $580 $581 $582 $583 reversed $279 $-1 #
coedge $-1 $584 $281 $283 $425 forward $175 $-1 #
coedge $-1 $281 $584 $580 $585 forward $175 $-1 #
coedge $-1 $582 $284 $281 $422 forward $416 $-1 #
edge $-1 $428 14.753553758908996 $586 25.904082109575189 $421 $587 forward 7 unknown #
coedge $-1 $588 $589 $282 $424 forward $578 $-1 #
edge $-1 $590 -50.131440376342198 $427 -42.472583334607663 $423 $591 forward 7 unknown #
edge $-1 $428 42.102922991891916 $590 51.235062906376598 $283 $592 forward 7 unknown #
coedge $-1 $284 $582 $588 $593 forward $416 $-1 #
vertex $-1 $285 $594 #
vertex $-1 $285 $595 #
straight-curve $-1 35.082371693151089 45.212031219289024 10.572635978298329 0 -1 0 I I #
coedge $-1 $430 $430 $-1 $596 reversed $288 $-1 #
edge $-1 $597 0 $597 6.2831853071796004 $289 $598 forward 7 unknown #
vertex $-1 $292 $599 #
ellipse-curve $-1 38.268236936198569 23.130671574144181 6.7432074574310654 0 0.83867057594974714 0.54463902268945019 1 0 0 1 I I #
coedge $-1 $434 $434 $-1 $600 reversed $295 $-1 #
edge $-1 $601 0 $601 6.2831853071796004 $296 $602 forward 7 unknown #
vertex $-1 $299 $603 #
ellipse-curve $-1 43.047034800769801 23.130671574144181 6.7432074574310654 0 0.83867057594974714 0.54463902268945019 1 0 0 1 I I #
face $-1 $-1 $311 $45 $-1 $604 reversed single #
loop $-1 $-1 $605 $300 #
plane-surface $-1 -55.272682882168034 0 0 1 0 0 0 0 -1 forward_v I I I I #
coedge $-1 $606 $446 $605 $607 forward $301 $-1 #
coedge $-1 $608 $303 $606 $609 forward $189 $-1 #
coedge $-1 $303 $608 $309 $455 forward $189 $-1 #
coedge $-1 $305 $304 $610 $611 forward $121 $-1 #
edge $-1 $312 -55.272682882168034 $612 55.272682882168034 $310 $613 forward 7 unknown #
coedge $-1 $441 $450 $305 $447 reversed $301 $-1 #
edge $-1 $614 -55.272682882168034 $448 55.272682882168034 $446 $615 forward 7 unknown #
vertex $-1 $306 $616 #
straight-curve $-1 55.272682882168034 0 10.572635978298333 0 1 0 I I #
coedge $-1 $446 $606 $307 $451 reversed $301 $-1 #
edge $-1 $448 -10.572635978298333 $452 10.572635978298333 $307 $617 forward 7 unknown #
vertex $-1 $451 $618 #
straight-curve $-1 55.272682882168034 0 -10.572635978298333 0 -1 0 I I #
coedge $-1 $310 $309 $619 $620 reversed $311 $-1 #
edge $-1 $621 -55.272682882168034 $313 55.272682882168034 $309 $622 forward 7 unknown #
point $-1 55.272682882168034 25.61753145318831 10.572635978298333 #
point $-1 55.272682882168034 25.61753145318831 -10.572635978298333 #
face $-1 $-1 $471 $46 $-1 $623 reversed single #
loop $-1 $-1 $624 $315 #
plane-surface $-1 -64.312465720518773 0 1.317264123797699 1 0 0 0 0 -1 forward_v I I I I #
coedge $-1 $625 $463 $321 $468 reversed $316 $-1 #
coedge $-1 $319 $318 $624 $626 reversed $125 $-1 #
coedge $-1 $461 $627 $318 $464 forward $316 $-1 #
edge $-1 $628 -4.5198914191753659 $466 4.519891419175373 $318 $629 forward 7 unknown #
edge $-1 $326 -4.519891419175373 $630 4.5198914191753659 $319 $631 forward 7 unknown #
vertex $-1 $320 $632 #
straight-curve $-1 -55.272682882168034 25.61753145318831 0 0 0 -1 I I #
edge $-1 $472 -25.61753145318831 $466 25.61753145318831 $461 $633 forward 7 unknown #
coedge $-1 $634 $322 $325 $475 reversed $471 $-1 #
coedge $-1 $322 $634 $625 $635 reversed $471 $-1 #
loop $-1 $-1 $322 $458 #
vertex $-1 $323 $636 #
straight-curve $-1 -55.272682882168034 -25.61753145318831 0 0 0 1 I I #
coedge $-1 $325 $324 $637 $638 forward $197 $-1 #
edge $-1 $639 -4.5198914191753659 $327 4.519891419175373 $469 $640 forward 7 unknown #
point $-1 -55.272682882168034 25.61753145318831 3.5845713461831652 #
point $-1 -55.272682882168034 -25.61753145318831 3.5845713461831652 #
face $-1 $-1 $494 $47 $-1 $641 reversed single #
loop $-1 $-1 $642 $329 #
plane-surface $-1 64.312465720518787 0 1.317264123797699 -1 0 0 0 0 1 forward_v I I I I #
coedge $-1 $485 $643 $644 $645 forward $330 $-1 #
coedge $-1 $642 $646 $332 $483 reversed $479 $-1 #
edge $-1 $647 -25.61753145318831 $648 25.61753145318831 $482 $649 forward 7 unknown #
coedge $-1 $334 $333 $642 $650 reversed $129 $-1 #
coedge $-1 $490 $481 $333 $486 forward $330 $-1 #
edge $-1 $651 -4.519891419175373 $488 4.519891419175373 $333 $652 forward 7 unknown #
edge $-1 $341 -4.519891419175373 $647 4.519891419175373 $334 $653 forward 7 unknown #
vertex $-1 $335 $654 #
straight-curve $-1 55.272682882168034 -25.61753145318831 0 0 0 -1 I I #
coedge $-1 $643 $485 $336 $491 reversed $330 $-1 #
edge $-1 $495 -25.61753145318831 $488 25.61753145318831 $490 $655 forward 7 unknown #
coedge $-1 $656 $337 $340 $497 reversed $494 $-1 #
coedge $-1 $337 $656 $643 $657 reversed $494 $-1 #
loop $-1 $-1 $337 $478 #
vertex $-1 $338 $658 #
straight-curve $-1 55.272682882168034 25.61753145318831 0 0 0 1 I I #
edge $-1 $648 -4.519891419175373 $342 4.519891419175373 $492 $659 forward 7 unknown #
point $-1 55.272682882168041 -25.61753145318831 3.5845713461831652 #
point $-1 55.272682882168041 25.61753145318831 3.5845713461831652 #
loop $-1 $-1 $352 $344 #
plane-surface $-1 0 -25.61753145318831 0 0 1 0 0 0 1 forward_v I I I I #
coedge $-1 $503 $347 $349 $507 reversed $213 $-1 #
coedge $-1 $347 $502 $660 $661 reversed $213 $-1 #
coedge $-1 $355 $350 $347 $505 forward $345 $-1 #
edge $-1 $508 -38.520526818569707 $662 -33.546807060481441 $504 $663 forward 7 unknown #
coedge $-1 $349 $348 $511 $664 reversed $133 $-1 #
edge $-1 $665 -6.4042811466935879e-015 $508 9.1321399144847017 $502 $666 forward 7 unknown #
vertex $-1 $351 $667 #
straight-curve $-1 -20.328817934242096 -20.643811695100041 10.572635978298333 -1 0 0 I I #
coedge $-1 $660 $352 $355 $515 reversed $500 $-1 #
coedge $-1 $352 $660 $506 $664 forward $500 $-1 #
vertex $-1 $353 $668 #
straight-curve $-1 -35.082371693151096 -25.617531453188306 31.560549454649788 0 0 1 I I #
straight-curve $-1 -35.082371693151096 -25.617531453188306 2.913778936563773 0 -0.54463902268945019 -0.83867057594974714 I I #
edge $-1 $662 -46.232900043817288 $356 -35.082371693151096 $510 $669 forward 7 unknown #
point $-1 -35.082371693151096 -25.61753145318831 10.572635978298333 #
point $-1 -35.082371693151096 -20.643811695100041 10.572635978298333 #
edge $-1 $670 1 $670 0 $359 $-1 forward 7 unknown #
vertex $-1 $360 $671 #
ellipse-curve $-1 -43.047034800769808 -20.852437172585812 5.2637047855779526 0 -0.83867057594974714 0.54463902268945019 1 0 0 1 I I #
point $-1 -42.047034800769808 -23.130671574144177 6.7432074574310565 #
edge $-1 $672 1 $672 0 $363 $-1 forward 7 unknown #
vertex $-1 $364 $673 #
ellipse-curve $-1 -38.268236936198576 -20.852437172585812 5.2637047855779526 0 -0.83867057594974714 0.54463902268945019 1 0 0 1 I I #
point $-1 -37.268236936198576 -23.130671574144177 6.7432074574310565 #
plane-surface $-1 0 0 10.572635978298333 0 0 1 1 0 0 forward_v I I I I #
coedge $-1 $537 $536 $529 $674 forward $368 $-1 #
coedge $-1 $529 $370 $372 $533 reversed $235 $-1 #
coedge $-1 $370 $528 $527 $674 reversed $235 $-1 #
coedge $-1 $378 $373 $370 $531 forward $379 $-1 #
edge $-1 $534 -38.520526818569707 $675 -33.546807060481441 $530 $676 forward 7 unknown #
coedge $-1 $372 $371 $537 $677 reversed $147 $-1 #
edge $-1 $678 -6.4042811466935879e-015 $534 9.1321399144847017 $528 $679 forward 7 unknown #
vertex $-1 $374 $680 #
straight-curve $-1 20.328817934242092 -20.643811695100041 10.572635978298333 -1 0 0 I I #
coedge $-1 $527 $375 $378 $541 reversed $368 $-1 #
coedge $-1 $375 $527 $532 $677 forward $368 $-1 #
vertex $-1 $376 $681 #
straight-curve $-1 46.232900043817281 -25.617531453188306 31.560549454649788 0 0 1 I I #
straight-curve $-1 46.232900043817281 -25.617531453188306 2.913778936563773 0 -0.54463902268945019 -0.83867057594974714 I I #
edge $-1 $675 35.082371693151089 $380 46.232900043817281 $536 $682 forward 7 unknown #
point $-1 46.232900043817281 -25.61753145318831 10.572635978298333 #
point $-1 46.232900043817281 -20.643811695100041 10.572635978298333 #
edge $-1 $683 1 $683 0 $383 $-1 forward 7 unknown #
vertex $-1 $384 $684 #
ellipse-curve $-1 38.268236936198569 -20.852437172585812 5.2637047855779526 0 -0.83867057594974714 0.54463902268945019 1 0 0 1 I I #
point $-1 39.268236936198569 -23.130671574144177 6.7432074574310565 #
edge $-1 $685 1 $685 0 $387 $-1 forward 7 unknown #
vertex $-1 $388 $686 #
ellipse-curve $-1 43.047034800769801 -20.852437172585812 5.2637047855779526 0 -0.83867057594974714 0.54463902268945019 1 0 0 1 I I #
point $-1 44.047034800769801 -23.130671574144177 6.7432074574310565 #
plane-surface $-1 0 0 10.572635978298333 0 0 1 1 0 0 forward_v I I I I #
coedge $-1 $563 $562 $555 $687 forward $392 $-1 #
coedge $-1 $555 $394 $396 $559 reversed $257 $-1 #
coedge $-1 $394 $554 $553 $687 reversed $257 $-1 #
coedge $-1 $402 $397 $394 $557 forward $403 $-1 #
edge $-1 $560 -24.568219524188969 $688 -19.594499766100714 $556 $689 forward 7 unknown #
coedge $-1 $396 $395 $563 $690 reversed $161 $-1 #
edge $-1 $691 -51.235062906376598 $560 -42.102922991891916 $554 $692 forward 7 unknown #
vertex $-1 $398 $693 #
straight-curve $-1 -20.328817934242096 20.643811695100055 10.572635978298333 1 0 0 I I #
coedge $-1 $553 $399 $402 $567 reversed $392 $-1 #
coedge $-1 $399 $553 $558 $690 forward $392 $-1 #
vertex $-1 $400 $694 #
straight-curve $-1 -46.232900043817288 25.617531453188306 53.045219312905992 0 0 1 I I #
straight-curve $-1 -46.232900043817288 -2.2870831355731411 45.883118653076181 0 0.54463902268945019 -0.83867057594974714 I I #
edge $-1 $688 35.082371693151096 $404 46.232900043817288 $562 $695 forward 7 unknown #
point $-1 -46.232900043817288 25.61753145318831 10.572635978298333 #
point $-1 -46.232900043817288 20.643811695100055 10.572635978298337 #
edge $-1 $696 1 $696 0 $407 $-1 forward 7 unknown #
vertex $-1 $408 $697 #
ellipse-curve $-1 -43.047034800769808 20.852437172585812 5.2637047855779597 0 0.83867057594974714 0.54463902268945019 1 0 0 1 I I #
point $-1 -42.047034800769808 23.130671574144177 6.7432074574310636 #
edge $-1 $698 1 $698 0 $411 $-1 forward 7 unknown #
vertex $-1 $412 $699 #
ellipse-curve $-1 -38.268236936198576 20.852437172585812 5.2637047855779597 0 0.83867057594974714 0.54463902268945019 1 0 0 1 I I #
point $-1 -37.268236936198576 23.130671574144177 6.7432074574310636 #
loop $-1 $-1 $423 $415 #
plane-surface $-1 0 25.61753145318831 0 0 -1 0 0 0 -1 forward_v I I I I #
coedge $-1 $581 $418 $420 $585 reversed $279 $-1 #
coedge $-1 $418 $580 $700 $701 reversed $279 $-1 #
coedge $-1 $426 $421 $418 $583 forward $416 $-1 #
edge $-1 $586 -24.568219524188969 $702 -19.594499766100714 $582 $703 forward 7 unknown #
coedge $-1 $420 $419 $589 $704 reversed $175 $-1 #
edge $-1 $705 -51.235062906376598 $586 -42.102922991891916 $580 $706 forward 7 unknown #
vertex $-1 $422 $707 #
straight-curve $-1 20.328817934242092 20.643811695100055 10.572635978298333 1 0 0 I I #
coedge $-1 $700 $423 $426 $593 reversed $578 $-1 #
coedge $-1 $423 $700 $584 $704 forward $578 $-1 #
vertex $-1 $424 $708 #
straight-curve $-1 35.082371693151089 25.617531453188306 53.045219312905992 0 0 1 I I #
straight-curve $-1 35.082371693151089 -2.2870831355731411 45.883118653076181 0 0.54463902268945019 -0.83867057594974714 I I #
edge $-1 $702 -46.232900043817281 $427 -35.082371693151089 $588 $709 forward 7 unknown #
point $-1 35.082371693151089 25.61753145318831 10.572635978298333 #
point $-1 35.082371693151089 20.643811695100055 10.572635978298337 #
edge $-1 $710 1 $710 0 $430 $-1 forward 7 unknown #
vertex $-1 $431 $711 #
ellipse-curve $-1 38.268236936198569 20.852437172585812 5.2637047855779597 0 0.83867057594974714 0.54463902268945019 1 0 0 1 I I #
point $-1 39.268236936198569 23.130671574144177 6.7432074574310636 #
edge $-1 $712 1 $712 0 $434 $-1 forward 7 unknown #
vertex $-1 $435 $713 #
ellipse-curve $-1 43.047034800769801 20.852437172585812 5.2637047855779597 0 0.83867057594974714 0.54463902268945019 1 0 0 1 I I #
point $-1 44.047034800769801 23.130671574144177 6.7432074574310636 #
plane-surface $-1 0 25.61753145318831 0 0 -1 0 0 0 -1 forward_v I I I I #
coedge $-1 $610 $714 $441 $607 reversed $439 $-1 #
coedge $-1 $450 $441 $442 $609 reversed $301 $-1 #
edge $-1 $614 -10.572635978298333 $715 10.572635978298333 $605 $716 forward 7 unknown #
coedge $-1 $443 $442 $714 $717 forward $189 $-1 #
edge $-1 $452 -55.272682882168034 $715 55.272682882168034 $606 $718 forward 7 unknown #
coedge $-1 $619 $605 $444 $611 reversed $439 $-1 #
edge $-1 $612 -25.61753145318831 $614 25.61753145318831 $610 $719 forward 7 unknown #
vertex $-1 $445 $720 #
straight-curve $-1 0 25.61753145318831 10.572635978298333 -1 0 0 I I #
vertex $-1 $611 $721 #
straight-curve $-1 0 -25.61753145318831 10.572635978298333 1 0 0 I I #
point $-1 55.272682882168034 -25.61753145318831 10.572635978298333 #
straight-curve $-1 55.272682882168034 -25.61753145318831 0 0 0 -1 I I #
point $-1 55.272682882168034 -25.61753145318831 -10.572635978298333 #
coedge $-1 $714 $610 $454 $620 forward $439 $-1 #
edge $-1 $612 -10.572635978298333 $621 10.572635978298333 $454 $722 forward 7 unknown #
vertex $-1 $455 $723 #
straight-curve $-1 0 25.61753145318831 -10.572635978298333 1 0 0 I I #
plane-surface $-1 0 -25.61753145318831 0 0 1 0 0 0 1 forward_v I I I I #
coedge $-1 $724 $637 $462 $626 forward $459 $-1 #
coedge $-1 $627 $461 $470 $635 forward $316 $-1 #
edge $-1 $630 -2.2673072223854662 $628 2.2673072223854662 $462 $725 forward 7 unknown #
coedge $-1 $463 $625 $724 $726 forward $316 $-1 #
vertex $-1 $464 $727 #
straight-curve $-1 -59.792574301343407 25.61753145318831 -0.95004309858776725 1 0 0 I I #
vertex $-1 $465 $728 #
straight-curve $-1 -59.792574301343407 25.61753145318831 3.5845713461831652 -1 0 0 I I #
point $-1 -55.272682882168034 25.61753145318831 -0.95004309858776725 #
straight-curve $-1 -55.272682882168034 0 -0.95004309858776725 0 1 0 I I #
coedge $-1 $470 $469 $729 $730 forward $471 $-1 #
edge $-1 $472 -4.519891419175373 $731 4.5198914191753659 $470 $732 forward 7 unknown #
point $-1 -55.272682882168034 -25.61753145318831 -0.95004309858776725 #
coedge $-1 $624 $729 $474 $638 reversed $459 $-1 #
edge $-1 $630 -25.61753145318831 $639 25.61753145318831 $637 $733 forward 7 unknown #
vertex $-1 $638 $734 #
straight-curve $-1 -59.792574301343407 -25.61753145318831 3.5845713461831652 1 0 0 I I #
plane-surface $-1 0 25.61753145318831 0 0 -1 0 0 0 -1 forward_v I I I I #
coedge $-1 $644 $482 $484 $650 forward $479 $-1 #
coedge $-1 $481 $490 $493 $657 forward $330 $-1 #
coedge $-1 $646 $642 $481 $645 reversed $479 $-1 #
edge $-1 $735 -25.61753145318831 $651 25.61753145318831 $644 $736 forward 7 unknown #
coedge $-1 $482 $644 $656 $737 reversed $479 $-1 #
vertex $-1 $483 $738 #
vertex $-1 $483 $739 #
straight-curve $-1 64.312465720518787 0 3.5845713461831652 0 1 0 I I #
edge $-1 $647 -2.2673072223854662 $651 2.2673072223854662 $642 $740 forward 7 unknown #
vertex $-1 $650 $741 #
straight-curve $-1 59.792574301343414 -25.61753145318831 -0.95004309858776725 -1 0 0 I I #
straight-curve $-1 59.792574301343414 -25.61753145318831 3.5845713461831652 1 0 0 I I #
point $-1 55.272682882168041 -25.61753145318831 -0.95004309858776725 #
straight-curve $-1 55.272682882168034 0 -0.95004309858776725 0 -1 0 I I #
coedge $-1 $493 $492 $646 $737 forward $494 $-1 #
edge $-1 $495 -4.519891419175373 $735 4.519891419175373 $493 $742 forward 7 unknown #
point $-1 55.272682882168041 25.61753145318831 -0.95004309858776725 #
straight-curve $-1 59.792574301343414 25.61753145318831 3.5845713461831652 -1 0 0 I I #
coedge $-1 $511 $510 $503 $661 forward $500 $-1 #
edge $-1 $662 20.987913476351455 $665 28.646770518086022 $660 $743 forward 7 unknown #
vertex $-1 $515 $744 #
straight-curve $-1 -46.232900043817288 -59.164338513669747 10.572635978298333 0 -1 0 I I #
edge $-1 $665 -25.904082109575192 $512 -14.753553758909 $511 $745 forward 7 unknown #
vertex $-1 $664 $746 #
straight-curve $-1 -46.232900043817288 -25.617531453188306 2.913778936563773 0 0.54463902268945019 0.83867057594974714 I I #
point $-1 -46.232900043817288 -20.643811695100041 10.572635978298333 #
point $-1 -35.082371693151096 -25.61753145318831 2.9137789365637676 #
straight-curve $-1 0 -25.61753145318831 10.572635978298333 1 0 0 I I #
vertex $-1 $518 $747 #
point $-1 -42.047034800769808 -20.852437172585812 5.2637047855779526 #
vertex $-1 $522 $748 #
point $-1 -37.268236936198576 -20.852437172585812 5.2637047855779526 #
edge $-1 $675 20.987913476351455 $678 28.646770518086022 $527 $749 forward 7 unknown #
vertex $-1 $541 $750 #
straight-curve $-1 35.082371693151089 -59.164338513669747 10.572635978298333 0 -1 0 I I #
edge $-1 $678 14.753553758908996 $538 25.904082109575189 $537 $751 forward 7 unknown #
vertex $-1 $677 $752 #
straight-curve $-1 35.082371693151089 -25.617531453188306 2.913778936563773 0 0.54463902268945019 0.83867057594974714 I I #
point $-1 35.082371693151089 -20.643811695100041 10.572635978298333 #
point $-1 46.232900043817281 -25.61753145318831 2.9137789365637676 #
straight-curve $-1 0 -25.61753145318831 10.572635978298333 1 0 0 I I #
vertex $-1 $544 $753 #
point $-1 39.268236936198569 -20.852437172585812 5.2637047855779526 #
vertex $-1 $548 $754 #
point $-1 44.047034800769801 -20.852437172585812 5.2637047855779526 #
edge $-1 $688 42.472583334607663 $691 50.131440376342198 $553 $755 forward 7 unknown #
vertex $-1 $567 $756 #
straight-curve $-1 -35.082371693151096 45.212031219289024 10.572635978298329 0 1 0 I I #
edge $-1 $691 14.753553758909 $564 25.904082109575192 $563 $757 forward 7 unknown #
vertex $-1 $690 $758 #
straight-curve $-1 -35.082371693151096 -2.2870831355731411 45.883118653076181 0 -0.54463902268945019 0.83867057594974714 I I #
point $-1 -35.082371693151096 20.643811695100055 10.572635978298337 #
point $-1 -46.232900043817288 25.61753145318831 2.9137789365637943 #
straight-curve $-1 0 25.61753145318831 10.572635978298333 -1 0 0 I I #
vertex $-1 $570 $759 #
point $-1 -42.047034800769808 20.852437172585812 5.2637047855779597 #
vertex $-1 $574 $760 #
point $-1 -37.268236936198576 20.852437172585812 5.2637047855779597 #
coedge $-1 $589 $588 $581 $701 forward $578 $-1 #
edge $-1 $702 42.472583334607663 $705 50.131440376342198 $700 $761 forward 7 unknown #
vertex $-1 $593 $762 #
straight-curve $-1 46.232900043817281 45.212031219289024 10.572635978298329 0 1 0 I I #
edge $-1 $705 -25.904082109575189 $590 -14.753553758908996 $589 $763 forward 7 unknown #
vertex $-1 $704 $764 #
straight-curve $-1 46.232900043817281 -2.2870831355731411 45.883118653076181 0 -0.54463902268945019 0.83867057594974714 I I #
point $-1 46.232900043817281 20.643811695100055 10.572635978298337 #
point $-1 35.082371693151089 25.61753145318831 2.9137789365637943 #
straight-curve $-1 0 25.61753145318831 10.572635978298333 -1 0 0 I I #
vertex $-1 $596 $765 #
point $-1 39.268236936198569 20.852437172585812 5.2637047855779597 #
vertex $-1 $600 $766 #
point $-1 44.047034800769801 20.852437172585812 5.2637047855779597 #
coedge $-1 $605 $619 $608 $717 reversed $439 $-1 #
vertex $-1 $717 $767 #
straight-curve $-1 -55.272682882168034 -25.61753145318831 0 0 0 -1 I I #
edge $-1 $715 -25.61753145318831 $621 25.61753145318831 $714 $768 forward 7 unknown #
straight-curve $-1 0 -25.61753145318831 -10.572635978298333 -1 0 0 I I #
straight-curve $-1 -55.272682882168034 0 10.572635978298333 0 -1 0 I I #
point $-1 -55.272682882168034 25.61753145318831 10.572635978298333 #
point $-1 -55.272682882168034 -25.61753145318831 10.572635978298333 #
straight-curve $-1 -55.272682882168034 25.61753145318831 0 0 0 -1 I I #
point $-1 -55.272682882168034 25.61753145318831 -10.572635978298333 #
coedge $-1 $729 $624 $627 $726 reversed $459 $-1 #
straight-curve $-1 -64.312465720518773 25.61753145318831 1.317264123797699 0 0 -1 I I #
edge $-1 $731 -25.61753145318831 $628 25.61753145318831 $724 $769 forward 7 unknown #
point $-1 -64.312465720518773 25.61753145318831 -0.95004309858776725 #
point $-1 -64.312465720518773 25.61753145318831 3.5845713461831652 #
coedge $-1 $637 $724 $634 $730 reversed $459 $-1 #
edge $-1 $639 -2.2673072223854662 $731 2.2673072223854662 $729 $770 forward 7 unknown #
vertex $-1 $726 $771 #
straight-curve $-1 -59.792574301343407 -25.61753145318831 -0.95004309858776725 -1 0 0 I I #
straight-curve $-1 -64.312465720518773 0 3.5845713461831652 0 -1 0 I I #
point $-1 -64.312465720518773 -25.61753145318831 3.5845713461831652 #
vertex $-1 $645 $772 #
straight-curve $-1 64.312465720518787 0 -0.95004309858776725 0 -1 0 I I #
edge $-1 $648 -2.2673072223854662 $735 2.2673072223854662 $646 $773 forward 7 unknown #
point $-1 64.312465720518787 -25.61753145318831 3.5845713461831652 #
point $-1 64.312465720518787 25.61753145318831 3.5845713461831652 #
straight-curve $-1 64.312465720518787 -25.61753145318831 1.317264123797699 0 0 -1 I I #
point $-1 64.312465720518787 -25.61753145318831 -0.95004309858776725 #
straight-curve $-1 59.792574301343414 25.61753145318831 -0.95004309858776725 1 0 0 I I #
straight-curve $-1 -46.232900043817288 -25.617531453188306 31.560549454649788 0 0 -1 I I #
point $-1 -46.232900043817288 -25.61753145318831 10.572635978298333 #
straight-curve $-1 -20.328817934242096 -25.61753145318831 2.9137789365637623 1 0 0 I I #
point $-1 -46.232900043817288 -25.61753145318831 2.9137789365637676 #
point $-1 -43.047034800769808 -20.013766596636064 4.7190657628885022 #
point $-1 -38.268236936198576 -20.013766596636064 4.7190657628885022 #
straight-curve $-1 35.082371693151089 -25.617531453188306 31.560549454649788 0 0 -1 I I #
point $-1 35.082371693151089 -25.61753145318831 10.572635978298333 #
straight-curve $-1 20.328817934242092 -25.61753145318831 2.9137789365637623 1 0 0 I I #
point $-1 35.082371693151089 -25.61753145318831 2.9137789365637676 #
point $-1 38.268236936198569 -20.013766596636064 4.7190657628885022 #
point $-1 43.047034800769801 -20.013766596636064 4.7190657628885022 #
straight-curve $-1 -35.082371693151096 25.617531453188306 53.045219312905992 0 0 -1 I I #
point $-1 -35.082371693151096 25.61753145318831 10.572635978298333 #
straight-curve $-1 -20.328817934242096 25.617531453188306 2.9137789365637943 -1 0 0 I I #
point $-1 -35.082371693151096 25.61753145318831 2.9137789365637943 #
point $-1 -43.047034800769808 20.013766596636064 4.7190657628885093 #
point $-1 -38.268236936198576 20.013766596636064 4.7190657628885093 #
straight-curve $-1 46.232900043817281 25.617531453188306 53.045219312905992 0 0 -1 I I #
point $-1 46.232900043817281 25.61753145318831 10.572635978298333 #
straight-curve $-1 20.328817934242092 25.617531453188306 2.9137789365637943 -1 0 0 I I #
point $-1 46.232900043817281 25.61753145318831 2.9137789365637943 #
point $-1 38.268236936198569 20.013766596636064 4.7190657628885093 #
point $-1 43.047034800769801 20.013766596636064 4.7190657628885093 #
point $-1 -55.272682882168034 -25.61753145318831 -10.572635978298333 #
straight-curve $-1 -55.272682882168034 0 -10.572635978298333 0 1 0 I I #
straight-curve $-1 -64.312465720518773 0 -0.95004309858776725 0 1 0 I I #
straight-curve $-1 -64.312465720518773 -25.61753145318831 1.317264123797699 0 0 -1 I I #
point $-1 -64.312465720518773 -25.61753145318831 -0.95004309858776725 #
point $-1 64.312465720518787 25.61753145318831 -0.95004309858776725 #
straight-curve $-1 64.312465720518787 25.61753145318831 1.317264123797699 0 0 -1 I I #
End-of-ACIS-data 