500 0 13 0           
7 Unknown 11 ACIS 5.0 NT 24 Fri Mar 26 17:46:56 1999 
-1 9.9999999999999995e-007 1e-010 
body $-1 $13 $-1 $14 #
body $-1 $15 $-1 $16 #
body $-1 $17 $-1 $18 #
body $-1 $19 $-1 $20 #
body $-1 $21 $-1 $22 #
body $-1 $23 $-1 $24 #
body $-1 $25 $-1 $26 #
body $-1 $27 $-1 $28 #
body $-1 $29 $-1 $30 #
body $-1 $31 $-1 $32 #
body $-1 $33 $-1 $34 #
body $-1 $35 $-1 $36 #
body $-1 $37 $-1 $38 #
lump $-1 $-1 $39 $0 #
transform $-1 1 0 0 0 1 0 0 0 1 49.286172063356425 21.653005113536601 5.0262435436283681 1 rotate no_reflect no_shear #
lump $-1 $-1 $40 $1 #
transform $-1 1 0 0 0 1 0 0 0 1 49.286172063356425 21.653005113536601 5.0262435436283681 1 rotate no_reflect no_shear #
lump $-1 $-1 $41 $2 #
transform $-1 1 0 0 0 1 0 0 0 1 49.286172063356425 21.653005113536601 5.0262435436283681 1 rotate no_reflect no_shear #
lump $-1 $-1 $42 $3 #
transform $-1 1 0 0 0 1 0 0 0 1 49.286172063356425 21.653005113536601 5.0262435436283681 1 rotate no_reflect no_shear #
lump $-1 $-1 $43 $4 #
transform $-1 1 0 0 0 1 0 0 0 1 49.286172063356425 21.653005113536601 5.0262435436283681 1 rotate no_reflect no_shear #
lump $-1 $-1 $44 $5 #
transform $-1 1 0 0 0 1 0 0 0 1 49.286172063356425 21.653005113536601 5.0262435436283681 1 rotate no_reflect no_shear #
lump $-1 $-1 $45 $6 #
transform $-1 1 0 0 0 1 0 0 0 1 49.286172063356425 21.653005113536601 5.0262435436283681 1 rotate no_reflect no_shear #
lump $-1 $-1 $46 $7 #
transform $-1 1 0 0 0 1 0 0 0 1 49.286172063356425 21.653005113536601 5.0262435436283681 1 rotate no_reflect no_shear #
lump $-1 $-1 $47 $8 #
transform $-1 1 0 0 0 1 0 0 0 1 49.286172063356425 21.653005113536601 5.0262435436283681 1 rotate no_reflect no_shear #
lump $-1 $-1 $48 $9 #
transform $-1 1 0 0 0 1 0 0 0 1 49.286172063356425 21.653005113536601 5.0262435436283681 1 rotate no_reflect no_shear #
lump $-1 $-1 $49 $10 #
transform $-1 1 0 0 0 1 0 0 0 1 49.286172063356425 21.653005113536601 5.0262435436283681 1 rotate no_reflect no_shear #
lump $-1 $-1 $50 $11 #
transform $-1 1 0 0 0 1 0 0 0 1 49.286172063356425 21.653005113536601 5.0262435436283681 1 rotate no_reflect no_shear #
lump $-1 $-1 $51 $12 #
transform $-1 1 0 0 0 1 0 0 0 1 49.286172063356425 21.653005113536601 5.0262435436283681 1 rotate no_reflect no_shear #
shell $-1 $-1 $-1 $52 $-1 $13 #
shell $-1 $-1 $-1 $53 $-1 $15 #
shell $-1 $-1 $-1 $54 $-1 $17 #
shell $-1 $-1 $-1 $55 $-1 $19 #
shell $-1 $-1 $-1 $56 $-1 $21 #
shell $-1 $-1 $-1 $57 $-1 $23 #
shell $-1 $-1 $-1 $58 $-1 $25 #
shell $-1 $-1 $-1 $59 $-1 $27 #
shell $-1 $-1 $-1 $60 $-1 $29 #
shell $-1 $-1 $-1 $61 $-1 $31 #
shell $-1 $-1 $-1 $62 $-1 $33 #
shell $-1 $-1 $-1 $63 $-1 $35 #
shell $-1 $-1 $-1 $64 $-1 $37 #
face $-1 $65 $66 $39 $-1 $67 forward single #
face $-1 $68 $69 $40 $-1 $70 reversed single #
face $-1 $71 $72 $41 $-1 $73 reversed single #
face $-1 $74 $75 $42 $-1 $76 reversed single #
face $-1 $77 $78 $43 $-1 $79 forward single #
face $-1 $80 $81 $44 $-1 $82 forward single #
face $-1 $83 $84 $45 $-1 $85 forward single #
face $-1 $86 $87 $46 $-1 $88 reversed single #
face $-1 $89 $90 $47 $-1 $91 forward single #
face $-1 $92 $93 $48 $-1 $94 forward single #
face $-1 $95 $96 $49 $-1 $97 reversed single #
face $-1 $98 $99 $50 $-1 $100 forward single #
face $-1 $101 $102 $51 $-1 $103 forward single #
face $-1 $104 $105 $39 $-1 $106 reversed single #
loop $-1 $-1 $107 $52 #
plane-surface $-1 0 0 5.0262435436283681 0 0 1 1 0 0 forward_v I I I I #
face $-1 $108 $109 $40 $-1 $110 reversed single #
loop $-1 $-1 $111 $53 #
plane-surface $-1 -46.779021898987338 0 2.0262435436283681 0 0 1 1 0 0 forward_v I I I I #
face $-1 $112 $113 $41 $-1 $114 reversed single #
loop $-1 $-1 $115 $54 #
plane-surface $-1 46.779021898987331 0 2.0262435436283681 0 0 1 1 0 0 forward_v I I I I #
face $-1 $116 $117 $42 $-1 $118 reversed single #
loop $-1 $-1 $119 $55 #
plane-surface $-1 -30.798857709432351 -70.939177837203175 87.243986248024711 -1 0 0 0 -0.50000000669873634 0.8660253999169214 forward_v I I I I #
face $-1 $120 $121 $43 $-1 $122 forward single #
loop $-1 $123 $124 $56 #
cone-surface $-1 -41.577268929581066 -17.927087874258028 1.7211765656470668 0 0.50000000669873634 -0.8660253999169214 1 0 0 1 I I 0 1 1 forward I I I I #
face $-1 $125 $126 $44 $-1 $127 forward single #
loop $-1 $128 $129 $57 #
cone-surface $-1 -37.535364722025299 -17.927087874258028 1.7211765656470668 0 0.50000000669873634 -0.8660253999169214 1 0 0 1 I I 0 1 1 forward I I I I #
face $-1 $130 $131 $45 $-1 $132 forward single #
loop $-1 $133 $134 $58 #
cone-surface $-1 -33.493460514469533 -17.927087874258028 1.7211765656470668 0 0.50000000669873634 -0.8660253999169214 1 0 0 1 I I 0 1 1 forward I I I I #
face $-1 $135 $136 $46 $-1 $137 reversed single #
loop $-1 $-1 $138 $59 #
plane-surface $-1 -15.528243555881041 72.667231417933209 94.897884877643889 1 0 0 0 -0.78801076186113728 -0.61566146476048833 forward_v I I I I #
face $-1 $139 $140 $47 $-1 $141 forward single #
loop $-1 $142 $143 $60 #
cone-surface $-1 -12.408604223199028 18.735414419824565 1.7842528070043902 0 -0.78801076186113728 -0.61566146476048833 1.5 0 0 1 I I 0 1 1.5 forward I I I I #
face $-1 $144 $145 $48 $-1 $146 forward single #
loop $-1 $147 $148 $61 #
cone-surface $-1 -7.7291452241760084 18.735414419824565 1.7842528070043902 0 -0.78801076186113728 -0.61566146476048833 1.5 0 0 1 I I 0 1 1.5 forward I I I I #
face $-1 $149 $150 $49 $-1 $151 reversed single #
loop $-1 $-1 $152 $62 #
plane-surface $-1 4.6095058914939884 72.667231417933209 94.897884877643889 1 0 0 0 -0.78801076186113728 -0.61566146476048833 forward_v I I I I #
face $-1 $153 $154 $50 $-1 $155 forward single #
loop $-1 $156 $157 $63 #
cone-surface $-1 7.7291452241760012 18.735414419824565 1.7842528070043902 0 -0.78801076186113728 -0.61566146476048833 1.5 0 0 1 I I 0 1 1.5 forward I I I I #
face $-1 $158 $159 $51 $-1 $160 forward single #
loop $-1 $161 $162 $64 #
cone-surface $-1 12.408604223199021 18.735414419824565 1.7842528070043902 0 -0.78801076186113728 -0.61566146476048833 1.5 0 0 1 I I 0 1 1.5 forward I I I I #
face $-1 $163 $164 $39 $-1 $165 reversed single #
loop $-1 $-1 $166 $65 #
plane-surface $-1 0 0 -5.0262435436283681 0 0 1 1 0 0 forward_v I I I I #
coedge $-1 $167 $168 $169 $170 forward $66 $-1 #
face $-1 $171 $172 $40 $-1 $173 reversed single #
loop $-1 $-1 $174 $68 #
plane-surface $-1 -44.271871734618252 0 3.5262435436283681 -1 0 0 0 0 1 forward_v I I I I #
coedge $-1 $175 $176 $177 $178 forward $69 $-1 #
face $-1 $179 $180 $41 $-1 $181 forward single #
loop $-1 $-1 $182 $71 #
plane-surface $-1 44.271871734618244 0 3.5262435436283681 1 0 0 0 0 -1 forward_v I I I I #
coedge $-1 $183 $184 $185 $186 reversed $72 $-1 #
face $-1 $187 $188 $42 $-1 $189 forward single #
loop $-1 $-1 $190 $74 #
plane-surface $-1 -37.535364722025299 -21.653005113536608 1.8778325049398177 0 -0.50000000669873634 0.8660253999169214 1 0 0 forward_v I I I I #
coedge $-1 $191 $192 $193 $194 reversed $75 $-1 #
face $-1 $-1 $195 $43 $-1 $196 forward single #
loop $-1 $197 $198 $77 #
cone-surface $-1 -41.577268929581066 -16.677774523983597 -0.44269759294841471 0 0.50000000669873634 -0.8660253999169214 0.5 0 0 1 I I -0.70710678118654746 0.70710678118654746 0.5 forward I I I I #
loop $-1 $-1 $199 $56 #
coedge $-1 $124 $124 $200 $201 reversed $78 $-1 #
face $-1 $-1 $202 $44 $-1 $203 forward single #
loop $-1 $204 $205 $80 #
cone-surface $-1 -37.535364722025299 -16.677774523983597 -0.44269759294841471 0 0.50000000669873634 -0.8660253999169214 0.5 0 0 1 I I -0.70710678118654746 0.70710678118654746 0.5 forward I I I I #
loop $-1 $-1 $206 $57 #
coedge $-1 $129 $129 $207 $208 reversed $81 $-1 #
face $-1 $-1 $209 $45 $-1 $210 forward single #
loop $-1 $211 $212 $83 #
cone-surface $-1 -33.493460514469533 -16.677774523983597 -0.44269759294841471 0 0.50000000669873634 -0.8660253999169214 0.5 0 0 1 I I -0.70710678118654746 0.70710678118654746 0.5 forward I I I I #
loop $-1 $-1 $213 $58 #
coedge $-1 $134 $134 $214 $215 reversed $84 $-1 #
face $-1 $216 $217 $46 $-1 $218 reversed single #
loop $-1 $-1 $219 $86 #
plane-surface $-1 -10.068874723687514 -5.0088365757959821 34.21069110771694 0 0.78801076186113728 0.61566146476048833 1 0 0 forward_v I I I I #
coedge $-1 $220 $221 $222 $223 reversed $87 $-1 #
face $-1 $-1 $224 $47 $-1 $225 forward single #
loop $-1 $226 $227 $89 #
cone-surface $-1 -12.408604223199028 17.157042114768267 0.55109324586683783 0 -0.78801076186113728 -0.61566146476048833 0.75 0 0 1 I I -0.70710678118654757 0.70710678118654757 0.75 forward I I I I #
loop $-1 $-1 $228 $60 #
coedge $-1 $143 $143 $229 $230 reversed $90 $-1 #
face $-1 $-1 $231 $48 $-1 $232 forward single #
loop $-1 $233 $234 $92 #
cone-surface $-1 -7.7291452241760084 17.157042114768267 0.55109324586683783 0 -0.78801076186113728 -0.61566146476048833 0.75 0 0 1 I I -0.70710678118654757 0.70710678118654757 0.75 forward I I I I #
loop $-1 $-1 $235 $61 #
coedge $-1 $148 $148 $236 $237 reversed $93 $-1 #
face $-1 $238 $239 $49 $-1 $240 reversed single #
loop $-1 $-1 $241 $95 #
plane-surface $-1 10.068874723687514 -5.0088365757959821 34.21069110771694 0 0.78801076186113728 0.61566146476048833 1 0 0 forward_v I I I I #
coedge $-1 $242 $243 $244 $245 reversed $96 $-1 #
face $-1 $-1 $246 $50 $-1 $247 forward single #
loop $-1 $248 $249 $98 #
cone-surface $-1 7.7291452241760012 17.157042114768267 0.55109324586683783 0 -0.78801076186113728 -0.61566146476048833 0.75 0 0 1 I I -0.70710678118654757 0.70710678118654757 0.75 forward I I I I #
loop $-1 $-1 $250 $63 #
coedge $-1 $157 $157 $251 $252 reversed $99 $-1 #
face $-1 $-1 $253 $51 $-1 $254 forward single #
loop $-1 $255 $256 $101 #
cone-surface $-1 12.408604223199021 17.157042114768267 0.55109324586683783 0 -0.78801076186113728 -0.61566146476048833 0.75 0 0 1 I I -0.70710678118654757 0.70710678118654757 0.75 forward I I I I #
loop $-1 $-1 $257 $64 #
coedge $-1 $162 $162 $258 $259 reversed $102 $-1 #
face $-1 $260 $261 $39 $-1 $262 reversed single #
loop $-1 $-1 $263 $104 #
plane-surface $-1 0 -21.653005113536601 0 0 1 0 0 0 1 forward_v I I I I #
coedge $-1 $264 $265 $266 $267 forward $105 $-1 #
coedge $-1 $268 $107 $269 $270 forward $66 $-1 #
coedge $-1 $107 $268 $271 $272 forward $66 $-1 #
coedge $-1 $273 $274 $107 $170 reversed $275 $-1 #
edge $-1 $276 -21.653005113536601 $277 21.653005113536601 $169 $278 forward 7 unknown #
face $-1 $279 $280 $40 $-1 $281 reversed single #
loop $-1 $-1 $282 $108 #
plane-surface $-1 0 21.653005113536601 0 0 -1 0 0 0 -1 forward_v I I I I #
coedge $-1 $177 $283 $284 $285 reversed $109 $-1 #
coedge $-1 $286 $111 $287 $288 reversed $69 $-1 #
coedge $-1 $111 $286 $289 $290 reversed $69 $-1 #
coedge $-1 $291 $174 $111 $178 reversed $109 $-1 #
edge $-1 $292 -21.653005113536601 $293 21.653005113536601 $177 $294 forward 7 unknown #
face $-1 $295 $296 $41 $-1 $297 reversed single #
loop $-1 $-1 $298 $112 #
plane-surface $-1 0 0 5.0262435436283681 0 0 1 1 0 0 forward_v I I I I #
coedge $-1 $299 $300 $301 $302 reversed $113 $-1 #
coedge $-1 $303 $115 $304 $305 reversed $72 $-1 #
coedge $-1 $115 $303 $306 $307 reversed $72 $-1 #
coedge $-1 $308 $309 $115 $186 forward $310 $-1 #
edge $-1 $311 -21.653005113536601 $312 21.653005113536601 $185 $313 forward 7 unknown #
face $-1 $314 $315 $42 $-1 $316 forward single #
loop $-1 $-1 $193 $116 #
plane-surface $-1 0 0 5.0262435436283681 0 0 1 1 0 0 forward_v I I I I #
coedge $-1 $317 $318 $319 $320 reversed $117 $-1 #
coedge $-1 $192 $119 $321 $322 reversed $75 $-1 #
coedge $-1 $119 $191 $317 $323 reversed $75 $-1 #
coedge $-1 $319 $324 $119 $194 forward $188 $-1 #
edge $-1 $325 13.816583805064987 $326 19.26979158977198 $193 $327 forward 7 unknown #
loop $-1 $-1 $200 $120 #
plane-surface $-1 -37.535364722025299 -21.653005113536608 1.8778325049398177 0 -0.50000000669873634 0.8660253999169214 1 0 0 forward_v I I I I #
loop $-1 $-1 $328 $77 #
coedge $-1 $198 $198 $199 $329 reversed $121 $-1 #
coedge $-1 $199 $199 $198 $329 forward $123 $-1 #
coedge $-1 $200 $200 $124 $201 forward $195 $-1 #
edge $-1 $330 1.0464545872500812e-015 $330 6.2831853071796013 $200 $331 forward 7 unknown #
loop $-1 $-1 $207 $125 #
plane-surface $-1 -37.535364722025299 -21.653005113536608 1.8778325049398177 0 -0.50000000669873634 0.8660253999169214 1 0 0 forward_v I I I I #
loop $-1 $-1 $332 $80 #
coedge $-1 $205 $205 $206 $333 reversed $126 $-1 #
coedge $-1 $206 $206 $205 $333 forward $128 $-1 #
coedge $-1 $207 $207 $129 $208 forward $202 $-1 #
edge $-1 $334 1.0464545872500812e-015 $334 6.2831853071796013 $207 $335 forward 7 unknown #
loop $-1 $-1 $214 $130 #
plane-surface $-1 -37.535364722025299 -21.653005113536608 1.8778325049398177 0 -0.50000000669873634 0.8660253999169214 1 0 0 forward_v I I I I #
loop $-1 $-1 $336 $83 #
coedge $-1 $212 $212 $213 $337 reversed $131 $-1 #
coedge $-1 $213 $213 $212 $337 forward $133 $-1 #
coedge $-1 $214 $214 $134 $215 forward $209 $-1 #
edge $-1 $338 1.0464545872500812e-015 $338 6.2831853071796013 $214 $339 forward 7 unknown #
face $-1 $340 $341 $46 $-1 $342 reversed single #
loop $-1 $-1 $343 $135 #
plane-surface $-1 -4.6095058914939884 72.667231417933209 94.897884877643889 -1 0 0 0 0.78801076186113728 0.61566146476048833 forward_v I I I I #
coedge $-1 $344 $345 $346 $347 reversed $136 $-1 #
coedge $-1 $221 $138 $348 $349 reversed $87 $-1 #
coedge $-1 $138 $220 $344 $350 reversed $87 $-1 #
coedge $-1 $346 $351 $138 $223 forward $352 $-1 #
edge $-1 $353 14.680610595430004 $354 18.541063515533189 $222 $355 forward 7 unknown #
loop $-1 $-1 $229 $139 #
plane-surface $-1 -10.068874723687514 -5.0088365757959821 34.21069110771694 0 0.78801076186113728 0.61566146476048833 1 0 0 forward_v I I I I #
loop $-1 $-1 $356 $89 #
coedge $-1 $227 $227 $228 $357 reversed $140 $-1 #
coedge $-1 $228 $228 $227 $357 forward $142 $-1 #
coedge $-1 $229 $229 $143 $230 forward $224 $-1 #
edge $-1 $358 -8.748012390117625e-016 $358 6.2831853071795996 $229 $359 forward 7 unknown #
loop $-1 $-1 $236 $144 #
plane-surface $-1 -10.068874723687514 -5.0088365757959821 34.21069110771694 0 0.78801076186113728 0.61566146476048833 1 0 0 forward_v I I I I #
loop $-1 $-1 $360 $92 #
coedge $-1 $234 $234 $235 $361 reversed $145 $-1 #
coedge $-1 $235 $235 $234 $361 forward $147 $-1 #
coedge $-1 $236 $236 $148 $237 forward $231 $-1 #
edge $-1 $362 -8.748012390117625e-016 $362 6.2831853071795996 $236 $363 forward 7 unknown #
face $-1 $364 $365 $49 $-1 $366 forward single #
loop $-1 $-1 $367 $149 #
plane-surface $-1 15.528243555881041 72.667231417933209 94.897884877643889 -1 0 0 0 0.78801076186113728 0.61566146476048833 forward_v I I I I #
coedge $-1 $368 $369 $370 $371 reversed $150 $-1 #
coedge $-1 $243 $152 $372 $373 reversed $96 $-1 #
coedge $-1 $152 $242 $368 $374 reversed $96 $-1 #
coedge $-1 $370 $375 $152 $245 forward $365 $-1 #
edge $-1 $376 14.680610595430004 $377 18.541063515533189 $244 $378 forward 7 unknown #
loop $-1 $-1 $251 $153 #
plane-surface $-1 10.068874723687514 -5.0088365757959821 34.21069110771694 0 0.78801076186113728 0.61566146476048833 1 0 0 forward_v I I I I #
loop $-1 $-1 $379 $98 #
coedge $-1 $249 $249 $250 $380 reversed $154 $-1 #
coedge $-1 $250 $250 $249 $380 forward $156 $-1 #
coedge $-1 $251 $251 $157 $252 forward $246 $-1 #
edge $-1 $381 -8.748012390117625e-016 $381 6.2831853071795996 $251 $382 forward 7 unknown #
loop $-1 $-1 $258 $158 #
plane-surface $-1 10.068874723687514 -5.0088365757959821 34.21069110771694 0 0.78801076186113728 0.61566146476048833 1 0 0 forward_v I I I I #
loop $-1 $-1 $383 $101 #
coedge $-1 $256 $256 $257 $384 reversed $159 $-1 #
coedge $-1 $257 $257 $256 $384 forward $161 $-1 #
coedge $-1 $258 $258 $162 $259 forward $253 $-1 #
edge $-1 $385 -8.748012390117625e-016 $385 6.2831853071795996 $258 $386 forward 7 unknown #
face $-1 $387 $388 $39 $-1 $389 reversed single #
loop $-1 $-1 $390 $163 #
plane-surface $-1 -49.286172063356425 0 0 1 0 0 0 0 -1 forward_v I I I I #
coedge $-1 $391 $271 $392 $393 forward $164 $-1 #
coedge $-1 $394 $166 $391 $395 forward $105 $-1 #
coedge $-1 $166 $394 $396 $397 forward $105 $-1 #
coedge $-1 $274 $273 $166 $267 reversed $275 $-1 #
edge $-1 $398 -21.653005113536601 $399 21.653005113536601 $266 $400 forward 7 unknown #
coedge $-1 $168 $167 $401 $402 forward $66 $-1 #
coedge $-1 $403 $404 $167 $270 reversed $388 $-1 #
edge $-1 $277 -49.286172063356425 $405 49.286172063356425 $269 $406 forward 7 unknown #
coedge $-1 $263 $407 $168 $272 reversed $164 $-1 #
edge $-1 $408 -49.286172063356425 $276 49.286172063356425 $271 $409 forward 7 unknown #
coedge $-1 $266 $169 $407 $410 forward $275 $-1 #
coedge $-1 $169 $266 $403 $411 reversed $275 $-1 #
loop $-1 $-1 $273 $387 #
vertex $-1 $170 $412 #
vertex $-1 $170 $413 #
straight-curve $-1 49.286172063356425 0 5.0262435436283681 0 1 0 I I #
face $-1 $414 $415 $40 $-1 $416 forward single #
loop $-1 $-1 $417 $171 #
plane-surface $-1 -49.286172063356425 0 0 1 0 0 0 0 -1 forward_v I I I I #
coedge $-1 $289 $418 $291 $419 forward $172 $-1 #
coedge $-1 $174 $291 $420 $421 reversed $109 $-1 #
coedge $-1 $422 $287 $174 $285 forward $423 $-1 #
edge $-1 $293 0.26312177181418406 $424 3.2631217718141841 $284 $425 forward 7 unknown #
coedge $-1 $176 $175 $417 $426 reversed $69 $-1 #
coedge $-1 $284 $427 $175 $288 forward $423 $-1 #
edge $-1 $428 -25.896661113862756 $293 -20.882360785124582 $287 $429 forward 7 unknown #
coedge $-1 $430 $282 $176 $290 forward $172 $-1 #
edge $-1 $292 20.882360785124582 $431 25.896661113862756 $289 $432 forward 7 unknown #
coedge $-1 $283 $177 $282 $419 reversed $109 $-1 #
vertex $-1 $290 $433 #
vertex $-1 $288 $434 #
straight-curve $-1 -44.271871734618252 0 2.0262435436283681 0 -1 0 I I #
face $-1 $435 $436 $41 $-1 $437 reversed single #
loop $-1 $-1 $438 $179 #
plane-surface $-1 0 -21.653005113536601 0 0 1 0 0 0 1 forward_v I I I I #
coedge $-1 $439 $440 $300 $441 forward $180 $-1 #
coedge $-1 $442 $182 $303 $443 reversed $113 $-1 #
coedge $-1 $182 $442 $298 $441 reversed $113 $-1 #
coedge $-1 $444 $306 $182 $302 forward $436 $-1 #
edge $-1 $445 0.26312177181418406 $446 3.2631217718141841 $301 $447 forward 7 unknown #
coedge $-1 $184 $183 $299 $443 forward $72 $-1 #
coedge $-1 $448 $438 $183 $305 forward $296 $-1 #
edge $-1 $449 20.882360785124579 $311 25.896661113862752 $304 $450 forward 7 unknown #
coedge $-1 $301 $451 $184 $307 forward $436 $-1 #
edge $-1 $312 -25.896661113862752 $445 -20.882360785124579 $306 $452 forward 7 unknown #
coedge $-1 $453 $185 $451 $454 reversed $310 $-1 #
coedge $-1 $185 $453 $448 $455 forward $310 $-1 #
loop $-1 $-1 $185 $435 #
vertex $-1 $305 $456 #
vertex $-1 $186 $457 #
straight-curve $-1 49.286172063356425 0 2.0262435436283681 0 1 0 I I #
face $-1 $-1 $458 $42 $-1 $459 reversed single #
loop $-1 $-1 $460 $187 #
plane-surface $-1 -44.271871734618252 0 3.5262435436283681 -1 0 0 0 0 1 forward_v I I I I #
coedge $-1 $461 $190 $192 $323 forward $117 $-1 #
coedge $-1 $190 $461 $460 $462 forward $117 $-1 #
coedge $-1 $463 $193 $190 $320 forward $188 $-1 #
edge $-1 $326 12.031175348419701 $464 25.504189373605595 $319 $465 forward 7 unknown #
coedge $-1 $466 $467 $191 $322 forward $458 $-1 #
edge $-1 $468 -41.744160619072531 $325 -38.595749580383988 $321 $469 forward 7 unknown #
edge $-1 $326 -6.2968219930156 $468 -8.1518820400458524e-015 $192 $470 forward 7 unknown #
coedge $-1 $193 $463 $466 $471 forward $188 $-1 #
vertex $-1 $322 $472 #
vertex $-1 $194 $473 #
straight-curve $-1 -30.798857709432351 -35.469588918601588 5.0262435436283681 0 1 0 I I #
coedge $-1 $328 $328 $-1 $474 reversed $197 $-1 #
edge $-1 $475 0 $475 6.2831853071796004 $198 $476 forward 7 unknown #
vertex $-1 $201 $477 #
ellipse-curve $-1 -41.577268929581066 -18.926401221183099 3.4520380242840982 0 -0.50000000669873634 0.8660253999169214 1 0 0 1 I I #
coedge $-1 $332 $332 $-1 $478 reversed $204 $-1 #
edge $-1 $479 0 $479 6.2831853071796004 $205 $480 forward 7 unknown #
vertex $-1 $208 $481 #
ellipse-curve $-1 -37.535364722025299 -18.926401221183099 3.4520380242840982 0 -0.50000000669873634 0.8660253999169214 1 0 0 1 I I #
coedge $-1 $336 $336 $-1 $482 reversed $211 $-1 #
edge $-1 $483 0 $483 6.2831853071796004 $212 $484 forward 7 unknown #
vertex $-1 $215 $485 #
ellipse-curve $-1 -33.493460514469533 -18.926401221183099 3.4520380242840982 0 -0.50000000669873634 0.8660253999169214 1 0 0 1 I I #
face $-1 $-1 $352 $46 $-1 $486 forward single #
loop $-1 $-1 $487 $216 #
plane-surface $-1 0 21.653005113536601 0 0 -1 0 0 0 -1 forward_v I I I I #
coedge $-1 $488 $489 $490 $491 reversed $217 $-1 #
coedge $-1 $492 $219 $221 $350 forward $136 $-1 #
coedge $-1 $219 $492 $488 $493 forward $136 $-1 #
coedge $-1 $490 $222 $219 $347 forward $352 $-1 #
edge $-1 $354 -10.493806194037283 $494 0.42493147034976886 $346 $495 forward 7 unknown #
coedge $-1 $496 $497 $220 $349 forward $341 $-1 #
edge $-1 $498 -47.363853443307171 $353 -42.422698895193577 $348 $499 forward 7 unknown #
edge $-1 $354 37.035595167710966 $498 43.306010227073216 $221 $500 forward 7 unknown #
coedge $-1 $222 $490 $496 $501 forward $352 $-1 #
loop $-1 $-1 $490 $340 #
vertex $-1 $349 $502 #
vertex $-1 $223 $503 #
straight-curve $-1 -15.528243555881041 36.333615708966605 5.0262435436283681 0 -1 0 I I #
coedge $-1 $356 $356 $-1 $504 reversed $226 $-1 #
edge $-1 $505 0 $505 6.2831853071796004 $227 $506 forward 7 unknown #
vertex $-1 $230 $507 #
ellipse-curve $-1 -12.408604223199028 19.722778653485005 2.5556662695715717 0 0.78801076186113728 0.61566146476048833 1.5 0 0 1 I I #
coedge $-1 $360 $360 $-1 $508 reversed $233 $-1 #
edge $-1 $509 0 $509 6.2831853071796004 $234 $510 forward 7 unknown #
vertex $-1 $237 $511 #
ellipse-curve $-1 -7.7291452241760084 19.722778653485005 2.5556662695715717 0 0.78801076186113728 0.61566146476048833 1.5 0 0 1 I I #
face $-1 $-1 $512 $49 $-1 $513 reversed single #
loop $-1 $-1 $244 $238 #
plane-surface $-1 0 0 5.0262435436283681 0 0 1 1 0 0 forward_v I I I I #
coedge $-1 $514 $515 $516 $517 reversed $239 $-1 #
coedge $-1 $518 $241 $243 $374 forward $150 $-1 #
coedge $-1 $241 $518 $514 $519 forward $150 $-1 #
coedge $-1 $516 $244 $241 $371 forward $365 $-1 #
edge $-1 $377 -0.42493147034976886 $520 10.493806194037283 $370 $521 forward 7 unknown #
coedge $-1 $522 $523 $242 $373 forward $512 $-1 #
edge $-1 $524 -47.363853443307171 $376 -42.422698895193577 $372 $525 forward 7 unknown #
edge $-1 $377 37.035595167710966 $524 43.306010227073216 $243 $526 forward 7 unknown #
coedge $-1 $244 $516 $522 $527 forward $365 $-1 #
vertex $-1 $245 $528 #
vertex $-1 $245 $529 #
straight-curve $-1 4.6095058914939884 36.333615708966605 5.0262435436283681 0 -1 0 I I #
coedge $-1 $379 $379 $-1 $530 reversed $248 $-1 #
edge $-1 $531 0 $531 6.2831853071796004 $249 $532 forward 7 unknown #
vertex $-1 $252 $533 #
ellipse-curve $-1 7.7291452241760012 19.722778653485005 2.5556662695715717 0 0.78801076186113728 0.61566146476048833 1.5 0 0 1 I I #
coedge $-1 $383 $383 $-1 $534 reversed $255 $-1 #
edge $-1 $535 0 $535 6.2831853071796004 $256 $536 forward 7 unknown #
vertex $-1 $259 $537 #
ellipse-curve $-1 12.408604223199021 19.722778653485005 2.5556662695715717 0 0.78801076186113728 0.61566146476048833 1.5 0 0 1 I I #
face $-1 $-1 $275 $39 $-1 $538 reversed single #
loop $-1 $-1 $403 $260 #
plane-surface $-1 0 21.653005113536601 0 0 -1 0 0 0 -1 forward_v I I I I #
coedge $-1 $539 $401 $404 $540 forward $261 $-1 #
coedge $-1 $407 $263 $264 $395 reversed $164 $-1 #
coedge $-1 $401 $539 $263 $393 reversed $261 $-1 #
edge $-1 $408 -5.0262435436283681 $541 5.0262435436283681 $392 $542 forward 7 unknown #
coedge $-1 $265 $264 $539 $543 forward $105 $-1 #
edge $-1 $399 -49.286172063356425 $541 49.286172063356425 $391 $544 forward 7 unknown #
coedge $-1 $404 $403 $265 $397 reversed $388 $-1 #
edge $-1 $545 -49.286172063356425 $398 49.286172063356425 $396 $546 forward 7 unknown #
vertex $-1 $267 $547 #
vertex $-1 $410 $548 #
straight-curve $-1 49.286172063356425 0 -5.0262435436283681 0 -1 0 I I #
coedge $-1 $390 $392 $268 $402 reversed $261 $-1 #
edge $-1 $405 -21.653005113536601 $408 21.653005113536601 $401 $549 forward 7 unknown #
coedge $-1 $396 $269 $274 $411 forward $388 $-1 #
coedge $-1 $269 $396 $390 $540 reversed $388 $-1 #
vertex $-1 $270 $550 #
straight-curve $-1 0 21.653005113536601 5.0262435436283681 -1 0 0 I I #
coedge $-1 $271 $391 $273 $410 reversed $164 $-1 #
vertex $-1 $402 $551 #
straight-curve $-1 0 -21.653005113536601 5.0262435436283681 1 0 0 I I #
edge $-1 $276 -5.0262435436283681 $399 5.0262435436283681 $273 $552 forward 7 unknown #
edge $-1 $277 -5.0262435436283681 $398 5.0262435436283681 $274 $553 forward 7 unknown #
point $-1 49.286172063356425 -21.653005113536601 5.0262435436283681 #
point $-1 49.286172063356425 21.653005113536601 5.0262435436283681 #
face $-1 $-1 $423 $40 $-1 $554 reversed single #
loop $-1 $-1 $420 $279 #
plane-surface $-1 0 0 5.0262435436283681 0 0 1 1 0 0 forward_v I I I I #
coedge $-1 $555 $556 $286 $426 forward $280 $-1 #
coedge $-1 $282 $430 $557 $558 reversed $172 $-1 #
edge $-1 $559 -3.2631217718141841 $292 -0.26312177181418406 $282 $560 forward 7 unknown #
coedge $-1 $557 $561 $283 $421 forward $415 $-1 #
edge $-1 $424 -21.653005113536601 $559 21.653005113536601 $420 $562 forward 7 unknown #
coedge $-1 $427 $284 $561 $563 reversed $423 $-1 #
loop $-1 $-1 $284 $414 #
vertex $-1 $285 $564 #
straight-curve $-1 -44.271871734618252 -21.653005113536601 1.7631217718141841 0 0 1 I I #
edge $-1 $431 -21.653005113536601 $428 21.653005113536601 $417 $565 forward 7 unknown #
coedge $-1 $287 $422 $555 $566 forward $423 $-1 #
vertex $-1 $426 $567 #
straight-curve $-1 -23.389510949493669 -21.653005113536601 2.0262435436283681 1 0 0 I I #
coedge $-1 $418 $289 $556 $568 reversed $172 $-1 #
vertex $-1 $426 $569 #
straight-curve $-1 -23.389510949493669 21.653005113536601 2.0262435436283681 -1 0 0 I I #
point $-1 -44.271871734618252 21.653005113536601 2.0262435436283681 #
point $-1 -44.271871734618252 -21.653005113536601 2.0262435436283681 #
face $-1 $-1 $310 $41 $-1 $570 reversed single #
loop $-1 $-1 $301 $295 #
plane-surface $-1 0 21.653005113536601 0 0 -1 0 0 0 -1 forward_v I I I I #
coedge $-1 $304 $571 $442 $572 forward $296 $-1 #
coedge $-1 $573 $298 $571 $574 forward $180 $-1 #
coedge $-1 $298 $573 $444 $575 forward $180 $-1 #
edge $-1 $446 -21.653005113536601 $576 21.653005113536601 $298 $577 forward 7 unknown #
coedge $-1 $300 $299 $438 $572 reversed $113 $-1 #
edge $-1 $449 -21.653005113536601 $445 21.653005113536601 $299 $578 forward 7 unknown #
coedge $-1 $451 $301 $440 $575 reversed $436 $-1 #
vertex $-1 $307 $579 #
vertex $-1 $302 $580 #
straight-curve $-1 44.271871734618244 21.653005113536601 1.7631217718141841 0 0 1 I I #
coedge $-1 $571 $304 $309 $455 reversed $296 $-1 #
vertex $-1 $305 $581 #
straight-curve $-1 23.389510949493665 -21.653005113536601 2.0262435436283681 1 0 0 I I #
coedge $-1 $306 $444 $308 $454 forward $436 $-1 #
straight-curve $-1 23.389510949493665 21.653005113536601 2.0262435436283681 -1 0 0 I I #
coedge $-1 $309 $308 $573 $582 reversed $310 $-1 #
edge $-1 $583 -5.0262435436283681 $312 -2.0262435436283681 $308 $584 forward 7 unknown #
edge $-1 $585 -5.0262435436283681 $311 -2.0262435436283681 $309 $586 forward 7 unknown #
point $-1 49.286172063356418 -21.653005113536601 2.0262435436283681 #
point $-1 49.286172063356418 21.653005113536601 2.0262435436283681 #
loop $-1 $-1 $321 $314 #
plane-surface $-1 0 -21.653005113536601 0 0 1 0 0 0 1 forward_v I I I I #
coedge $-1 $587 $588 $318 $462 reversed $315 $-1 #
coedge $-1 $318 $317 $467 $589 reversed $117 $-1 #
edge $-1 $590 8.1518820400458524e-015 $464 6.2968219930156 $460 $591 forward 7 unknown #
coedge $-1 $324 $319 $588 $592 forward $188 $-1 #
vertex $-1 $592 $593 #
straight-curve $-1 -18.76768236101265 -16.199797328829604 5.0262435436283681 -1 0 0 I I #
coedge $-1 $594 $321 $324 $471 reversed $458 $-1 #
coedge $-1 $321 $594 $461 $589 forward $458 $-1 #
vertex $-1 $322 $595 #
straight-curve $-1 -30.798857709432351 -21.653005113536601 43.621993124012356 0 0 1 I I #
straight-curve $-1 -30.798857709432351 -21.653005113536608 1.8778325049398177 0 -0.8660253999169214 -0.50000000669873634 I I #
edge $-1 $596 -44.271871734618252 $325 -30.798857709432351 $466 $597 forward 7 unknown #
point $-1 -30.798857709432351 -21.653005113536601 5.0262435436283681 #
point $-1 -30.798857709432351 -16.199797328829607 5.0262435436283681 #
edge $-1 $598 1 $598 0 $328 $-1 forward 7 unknown #
vertex $-1 $329 $599 #
ellipse-curve $-1 -41.577268929581066 -16.927774527332964 -0.0096848929899540082 0 -0.50000000669873634 0.8660253999169214 1 0 0 1 I I #
point $-1 -40.577268929581066 -18.926401221183092 3.452038024284088 #
edge $-1 $600 1 $600 0 $332 $-1 forward 7 unknown #
vertex $-1 $333 $601 #
ellipse-curve $-1 -37.535364722025299 -16.927774527332964 -0.0096848929899540082 0 -0.50000000669873634 0.8660253999169214 1 0 0 1 I I #
point $-1 -36.535364722025299 -18.926401221183092 3.452038024284088 #
edge $-1 $602 1 $602 0 $336 $-1 forward 7 unknown #
vertex $-1 $337 $603 #
ellipse-curve $-1 -33.493460514469533 -16.927774527332964 -0.0096848929899540082 0 -0.50000000669873634 0.8660253999169214 1 0 0 1 I I #
point $-1 -32.493460514469533 -18.926401221183092 3.452038024284088 #
plane-surface $-1 0 0 5.0262435436283681 0 0 1 1 0 0 forward_v I I I I #
coedge $-1 $497 $496 $489 $604 forward $341 $-1 #
coedge $-1 $489 $343 $345 $493 reversed $217 $-1 #
coedge $-1 $343 $488 $487 $604 reversed $217 $-1 #
coedge $-1 $351 $346 $343 $491 forward $352 $-1 #
edge $-1 $494 -18.541063515533189 $605 -14.680610595430004 $490 $606 forward 7 unknown #
coedge $-1 $345 $344 $497 $607 reversed $136 $-1 #
edge $-1 $608 -43.306010227073216 $494 -37.035595167710966 $488 $609 forward 7 unknown #
vertex $-1 $347 $610 #
straight-curve $-1 -5.0344373618437572 17.792552193433416 5.0262435436283681 1 0 0 I I #
coedge $-1 $487 $348 $351 $501 reversed $341 $-1 #
coedge $-1 $348 $487 $492 $607 forward $341 $-1 #
vertex $-1 $349 $611 #
straight-curve $-1 -15.528243555881041 21.653005113536601 47.448942438821945 0 0 1 I I #
straight-curve $-1 -15.528243555881041 -5.0088365757959821 34.21069110771694 0 0.61566146476048833 -0.78801076186113728 I I #
edge $-1 $605 4.6095058914939884 $353 15.528243555881041 $496 $612 forward 7 unknown #
point $-1 -15.528243555881041 21.653005113536601 5.0262435436283681 #
point $-1 -15.528243555881041 17.792552193433416 5.0262435436283681 #
edge $-1 $613 1 $613 0 $356 $-1 forward 7 unknown #
vertex $-1 $357 $614 #
ellipse-curve $-1 -12.408604223199028 17.748050186164118 1.0128393444372041 0 0.78801076186113728 0.61566146476048833 1.5 0 0 1 I I #
point $-1 -10.908604223199028 19.722778653485008 2.5556662695715762 #
edge $-1 $615 1 $615 0 $360 $-1 forward 7 unknown #
vertex $-1 $361 $616 #
ellipse-curve $-1 -7.7291452241760084 17.748050186164118 1.0128393444372041 0 0.78801076186113728 0.61566146476048833 1.5 0 0 1 I I #
point $-1 -6.2291452241760084 19.722778653485008 2.5556662695715762 #
loop $-1 $-1 $372 $364 #
plane-surface $-1 0 21.653005113536601 0 0 -1 0 0 0 -1 forward_v I I I I #
coedge $-1 $515 $367 $369 $519 reversed $239 $-1 #
coedge $-1 $367 $514 $617 $618 reversed $239 $-1 #
coedge $-1 $375 $370 $367 $517 forward $365 $-1 #
edge $-1 $520 -18.541063515533189 $619 -14.680610595430004 $516 $620 forward 7 unknown #
coedge $-1 $369 $368 $523 $621 reversed $150 $-1 #
edge $-1 $622 -43.306010227073216 $520 -37.035595167710966 $514 $623 forward 7 unknown #
vertex $-1 $371 $624 #
straight-curve $-1 5.0344373618437572 17.792552193433416 5.0262435436283681 1 0 0 I I #
coedge $-1 $617 $372 $375 $527 reversed $512 $-1 #
coedge $-1 $372 $617 $518 $621 forward $512 $-1 #
vertex $-1 $373 $625 #
straight-curve $-1 4.6095058914939884 21.653005113536601 47.448942438821945 0 0 1 I I #
straight-curve $-1 4.6095058914939884 -5.0088365757959821 34.21069110771694 0 0.61566146476048833 -0.78801076186113728 I I #
edge $-1 $619 -15.528243555881041 $376 -4.6095058914939884 $522 $626 forward 7 unknown #
point $-1 4.6095058914939884 21.653005113536601 5.0262435436283681 #
point $-1 4.6095058914939884 17.792552193433416 5.0262435436283681 #
edge $-1 $627 1 $627 0 $379 $-1 forward 7 unknown #
vertex $-1 $380 $628 #
ellipse-curve $-1 7.7291452241760012 17.748050186164118 1.0128393444372041 0 0.78801076186113728 0.61566146476048833 1.5 0 0 1 I I #
point $-1 9.2291452241760012 19.722778653485008 2.5556662695715762 #
edge $-1 $629 1 $629 0 $383 $-1 forward 7 unknown #
vertex $-1 $384 $630 #
ellipse-curve $-1 12.408604223199021 17.748050186164118 1.0128393444372041 0 0.78801076186113728 0.61566146476048833 1.5 0 0 1 I I #
point $-1 13.908604223199021 19.722778653485008 2.5556662695715762 #
plane-surface $-1 49.286172063356425 0 0 -1 0 0 0 0 1 forward_v I I I I #
coedge $-1 $392 $390 $394 $543 reversed $261 $-1 #
edge $-1 $405 -5.0262435436283681 $545 5.0262435436283681 $404 $631 forward 7 unknown #
vertex $-1 $543 $632 #
straight-curve $-1 -49.286172063356425 -21.653005113536601 0 0 0 -1 I I #
edge $-1 $541 -21.653005113536601 $545 21.653005113536601 $539 $633 forward 7 unknown #
straight-curve $-1 0 -21.653005113536601 -5.0262435436283681 -1 0 0 I I #
vertex $-1 $397 $634 #
straight-curve $-1 0 21.653005113536601 -5.0262435436283681 1 0 0 I I #
point $-1 49.286172063356425 21.653005113536601 -5.0262435436283681 #
point $-1 49.286172063356425 -21.653005113536601 -5.0262435436283681 #
straight-curve $-1 -49.286172063356425 0 5.0262435436283681 0 -1 0 I I #
point $-1 -49.286172063356425 21.653005113536601 5.0262435436283681 #
point $-1 -49.286172063356425 -21.653005113536601 5.0262435436283681 #
straight-curve $-1 49.286172063356425 -21.653005113536601 0 0 0 -1 I I #
straight-curve $-1 49.286172063356425 21.653005113536601 0 0 0 -1 I I #
plane-surface $-1 0 -21.653005113536601 0 0 1 0 0 0 1 forward_v I I I I #
coedge $-1 $635 $417 $427 $566 reversed $280 $-1 #
coedge $-1 $417 $635 $430 $568 forward $280 $-1 #
coedge $-1 $636 $420 $418 $558 forward $415 $-1 #
edge $-1 $559 44.271871734618252 $637 49.286172063356425 $418 $638 forward 7 unknown #
vertex $-1 $558 $639 #
straight-curve $-1 -44.271871734618252 21.653005113536601 1.7631217718141841 0 0 -1 I I #
coedge $-1 $420 $636 $422 $563 forward $415 $-1 #
straight-curve $-1 -44.271871734618252 0 5.0262435436283681 0 1 0 I I #
edge $-1 $640 -49.286172063356425 $424 -44.271871734618252 $422 $641 forward 7 unknown #
point $-1 -44.271871734618252 -21.653005113536601 5.0262435436283681 #
straight-curve $-1 -49.286172063356425 0 2.0262435436283681 0 -1 0 I I #
edge $-1 $640 -5.0262435436283681 $428 -2.0262435436283681 $555 $642 forward 7 unknown #
point $-1 -49.286172063356425 -21.653005113536601 2.0262435436283681 #
edge $-1 $637 -5.0262435436283681 $431 -2.0262435436283681 $430 $643 forward 7 unknown #
point $-1 -49.286172063356425 21.653005113536601 2.0262435436283681 #
plane-surface $-1 49.286172063356425 0 0 -1 0 0 0 0 1 forward_v I I I I #
coedge $-1 $438 $448 $439 $574 reversed $296 $-1 #
edge $-1 $576 -3.2631217718141841 $449 -0.26312177181418406 $438 $644 forward 7 unknown #
coedge $-1 $440 $439 $453 $582 forward $180 $-1 #
edge $-1 $576 44.271871734618244 $585 49.286172063356425 $571 $645 forward 7 unknown #
edge $-1 $583 -49.286172063356425 $446 -44.271871734618244 $444 $646 forward 7 unknown #
vertex $-1 $574 $647 #
straight-curve $-1 44.271871734618244 0 5.0262435436283681 0 -1 0 I I #
straight-curve $-1 44.271871734618244 0 2.0262435436283681 0 1 0 I I #
point $-1 44.271871734618244 21.653005113536601 2.0262435436283681 #
point $-1 44.271871734618244 21.653005113536601 5.0262435436283681 #
point $-1 44.271871734618244 -21.653005113536601 2.0262435436283681 #
edge $-1 $585 -21.653005113536601 $583 21.653005113536601 $453 $648 forward 7 unknown #
vertex $-1 $582 $649 #
straight-curve $-1 49.286172063356425 21.653005113536601 0 0 0 -1 I I #
vertex $-1 $582 $650 #
straight-curve $-1 49.286172063356425 -21.653005113536601 0 0 0 -1 I I #
coedge $-1 $588 $460 $594 $651 reversed $315 $-1 #
coedge $-1 $460 $587 $463 $592 reversed $315 $-1 #
edge $-1 $590 -25.504189373605595 $468 -12.031175348419701 $467 $652 forward 7 unknown #
vertex $-1 $651 $653 #
straight-curve $-1 -44.271871734618244 -21.653005113536608 1.8778325049398177 0 0.8660253999169214 0.50000000669873634 I I #
edge $-1 $464 16.199797328829607 $596 21.653005113536601 $463 $654 forward 7 unknown #
point $-1 -44.271871734618244 -16.199797328829607 5.0262435436283681 #
coedge $-1 $467 $466 $587 $651 forward $458 $-1 #
point $-1 -30.798857709432351 -21.653005113536601 1.8778325049398217 #
vertex $-1 $471 $655 #
straight-curve $-1 0 -21.653005113536601 5.0262435436283681 1 0 0 I I #
vertex $-1 $474 $656 #
point $-1 -40.577268929581066 -16.927774527332964 -0.0096848929899540082 #
vertex $-1 $478 $657 #
point $-1 -36.535364722025299 -16.927774527332964 -0.0096848929899540082 #
vertex $-1 $482 $658 #
point $-1 -32.493460514469533 -16.927774527332964 -0.0096848929899540082 #
edge $-1 $605 42.422698895193577 $608 47.363853443307171 $487 $659 forward 7 unknown #
vertex $-1 $501 $660 #
straight-curve $-1 -4.6095058914939884 36.333615708966605 5.0262435436283681 0 1 0 I I #
edge $-1 $608 -0.42493147034976886 $498 10.493806194037283 $497 $661 forward 7 unknown #
vertex $-1 $607 $662 #
straight-curve $-1 -4.6095058914939884 -5.0088365757959821 34.21069110771694 0 -0.61566146476048833 0.78801076186113728 I I #
point $-1 -4.6095058914939884 17.792552193433416 5.0262435436283681 #
point $-1 -15.528243555881041 21.653005113536601 0.085088995514773558 #
straight-curve $-1 0 21.653005113536601 5.0262435436283681 -1 0 0 I I #
vertex $-1 $504 $663 #
point $-1 -10.908604223199028 17.748050186164118 1.0128393444372041 #
vertex $-1 $508 $664 #
point $-1 -6.2291452241760084 17.748050186164118 1.0128393444372041 #
coedge $-1 $523 $522 $515 $618 forward $512 $-1 #
edge $-1 $619 42.422698895193577 $622 47.363853443307171 $617 $665 forward 7 unknown #
vertex $-1 $527 $666 #
straight-curve $-1 15.528243555881041 36.333615708966605 5.0262435436283681 0 1 0 I I #
edge $-1 $622 -10.493806194037283 $524 0.42493147034976886 $523 $667 forward 7 unknown #
vertex $-1 $621 $668 #
straight-curve $-1 15.528243555881041 -5.0088365757959821 34.21069110771694 0 -0.61566146476048833 0.78801076186113728 I I #
point $-1 15.528243555881041 17.792552193433416 5.0262435436283681 #
point $-1 4.6095058914939884 21.653005113536601 0.085088995514773558 #
straight-curve $-1 0 21.653005113536601 5.0262435436283681 -1 0 0 I I #
vertex $-1 $530 $669 #
point $-1 9.2291452241760012 17.748050186164118 1.0128393444372041 #
vertex $-1 $534 $670 #
point $-1 13.908604223199021 17.748050186164118 1.0128393444372041 #
straight-curve $-1 -49.286172063356425 21.653005113536601 0 0 0 -1 I I #
point $-1 -49.286172063356425 -21.653005113536601 -5.0262435436283681 #
straight-curve $-1 -49.286172063356425 0 -5.0262435436283681 0 1 0 I I #
point $-1 -49.286172063356425 21.653005113536601 -5.0262435436283681 #
coedge $-1 $556 $555 $636 $671 reversed $280 $-1 #
coedge $-1 $561 $557 $635 $671 forward $415 $-1 #
vertex $-1 $558 $672 #
straight-curve $-1 0 21.653005113536601 5.0262435436283681 -1 0 0 I I #
point $-1 -44.271871734618252 21.653005113536601 5.0262435436283681 #
vertex $-1 $671 $673 #
straight-curve $-1 0 -21.653005113536601 5.0262435436283681 1 0 0 I I #
straight-curve $-1 -49.286172063356425 -21.653005113536601 0 0 0 -1 I I #
straight-curve $-1 -49.286172063356425 21.653005113536601 0 0 0 -1 I I #
straight-curve $-1 44.271871734618244 -21.653005113536601 1.7631217718141841 0 0 -1 I I #
straight-curve $-1 0 -21.653005113536601 5.0262435436283681 1 0 0 I I #
straight-curve $-1 0 21.653005113536601 5.0262435436283681 -1 0 0 I I #
point $-1 44.271871734618244 -21.653005113536601 5.0262435436283681 #
straight-curve $-1 49.286172063356425 0 5.0262435436283681 0 1 0 I I #
point $-1 49.286172063356425 21.653005113536601 5.0262435436283681 #
point $-1 49.286172063356425 -21.653005113536601 5.0262435436283681 #
edge $-1 $596 38.595749580383988 $590 41.744160619072531 $594 $674 forward 7 unknown #
straight-curve $-1 -18.76768236101265 -21.653005113536601 1.877832504939821 1 0 0 I I #
point $-1 -44.271871734618244 -21.653005113536601 1.8778325049398217 #
straight-curve $-1 -44.271871734618252 0 5.0262435436283681 0 -1 0 I I #
point $-1 -44.271871734618252 -21.653005113536601 5.0262435436283681 #
point $-1 -41.577268929581066 -16.42777452063423 -0.87571029290687541 #
point $-1 -37.535364722025299 -16.42777452063423 -0.87571029290687541 #
point $-1 -33.493460514469533 -16.42777452063423 -0.87571029290687541 #
straight-curve $-1 -4.6095058914939884 21.653005113536601 47.448942438821945 0 0 -1 I I #
point $-1 -4.6095058914939884 21.653005113536601 5.0262435436283681 #
straight-curve $-1 -5.0344373618437572 21.653005113536601 0.085088995514773558 -1 0 0 I I #
point $-1 -4.6095058914939884 21.653005113536601 0.085088995514773558 #
point $-1 -12.408604223199028 16.566034043372415 0.089347147296471585 #
point $-1 -7.7291452241760084 16.566034043372415 0.089347147296471585 #
straight-curve $-1 15.528243555881041 21.653005113536601 47.448942438821945 0 0 -1 I I #
point $-1 15.528243555881041 21.653005113536601 5.0262435436283681 #
straight-curve $-1 5.0344373618437572 21.653005113536601 0.085088995514773558 -1 0 0 I I #
point $-1 15.528243555881041 21.653005113536601 0.085088995514773558 #
point $-1 7.7291452241760012 16.566034043372415 0.089347147296471585 #
point $-1 12.408604223199021 16.566034043372415 0.089347147296471585 #
edge $-1 $637 -21.653005113536601 $640 21.653005113536601 $635 $675 forward 7 unknown #
point $-1 -49.286172063356425 21.653005113536601 5.0262435436283681 #
point $-1 -49.286172063356425 -21.653005113536601 5.0262435436283681 #
straight-curve $-1 -44.271871734618244 -21.653005113536601 43.621993124012356 0 0 -1 I I #
straight-curve $-1 -49.286172063356425 0 5.0262435436283681 0 -1 0 I I #
End-of-ACIS-data 