500 0 10 0           
7 Unknown 11 ACIS 5.0 NT 24 Fri Mar 26 18:47:52 1999 
-1 9.9999999999999995e-007 1e-010 
body $-1 $10 $-1 $11 #
body $-1 $12 $-1 $13 #
body $-1 $14 $-1 $15 #
body $-1 $16 $-1 $17 #
body $-1 $18 $-1 $19 #
body $-1 $20 $-1 $21 #
body $-1 $22 $-1 $23 #
body $-1 $24 $-1 $25 #
body $-1 $26 $-1 $27 #
body $-1 $28 $-1 $29 #
lump $-1 $-1 $30 $0 #
transform $-1 1 0 0 0 1 0 0 0 1 75.687124240852071 45.388944976505847 12.662001621623657 1 rotate no_reflect no_shear #
lump $-1 $-1 $31 $1 #
transform $-1 1 0 0 0 1 0 0 0 1 75.687124240852071 45.388944976505847 12.662001621623657 1 rotate no_reflect no_shear #
lump $-1 $-1 $32 $2 #
transform $-1 1 0 0 0 1 0 0 0 1 75.687124240852071 45.388944976505847 12.662001621623657 1 rotate no_reflect no_shear #
lump $-1 $-1 $33 $3 #
transform $-1 1 0 0 0 1 0 0 0 1 75.687124240852071 45.388944976505847 12.662001621623657 1 rotate no_reflect no_shear #
lump $-1 $-1 $34 $4 #
transform $-1 1 0 0 0 1 0 0 0 1 75.687124240852071 45.388944976505847 12.662001621623657 1 rotate no_reflect no_shear #
lump $-1 $-1 $35 $5 #
transform $-1 1 0 0 0 1 0 0 0 1 75.687124240852071 45.388944976505847 12.662001621623657 1 rotate no_reflect no_shear #
lump $-1 $-1 $36 $6 #
transform $-1 1 0 0 0 1 0 0 0 1 75.687124240852071 45.388944976505847 12.662001621623657 1 rotate no_reflect no_shear #
lump $-1 $-1 $37 $7 #
transform $-1 1 0 0 0 1 0 0 0 1 75.687124240852071 45.388944976505847 12.662001621623657 1 rotate no_reflect no_shear #
lump $-1 $-1 $38 $8 #
transform $-1 1 0 0 0 1 0 0 0 1 75.687124240852071 45.388944976505847 12.662001621623657 1 rotate no_reflect no_shear #
lump $-1 $-1 $39 $9 #
transform $-1 1 0 0 0 1 0 0 0 1 75.687124240852071 45.388944976505847 12.662001621623657 1 rotate no_reflect no_shear #
shell $-1 $-1 $-1 $40 $-1 $10 #
shell $-1 $-1 $-1 $41 $-1 $12 #
shell $-1 $-1 $-1 $42 $-1 $14 #
shell $-1 $-1 $-1 $43 $-1 $16 #
shell $-1 $-1 $-1 $44 $-1 $18 #
shell $-1 $-1 $-1 $45 $-1 $20 #
shell $-1 $-1 $-1 $46 $-1 $22 #
shell $-1 $-1 $-1 $47 $-1 $24 #
shell $-1 $-1 $-1 $48 $-1 $26 #
shell $-1 $-1 $-1 $49 $-1 $28 #
face $-1 $50 $51 $30 $-1 $52 forward single #
face $-1 $53 $54 $31 $-1 $55 forward single #
face $-1 $56 $57 $32 $-1 $58 reversed single #
face $-1 $59 $60 $33 $-1 $61 forward single #
face $-1 $62 $63 $34 $-1 $64 forward single #
face $-1 $65 $66 $35 $-1 $67 forward single #
face $-1 $68 $69 $36 $-1 $70 reversed single #
face $-1 $71 $72 $37 $-1 $73 forward single #
face $-1 $74 $75 $38 $-1 $76 forward single #
face $-1 $77 $78 $39 $-1 $79 forward single #
face $-1 $80 $81 $30 $-1 $82 reversed single #
loop $-1 $-1 $83 $40 #
plane-surface $-1 0 0 12.662001621623657 0 0 1 1 0 0 forward_v I I I I #
face $-1 $84 $85 $31 $-1 $86 reversed single #
loop $-1 $-1 $87 $41 #
plane-surface $-1 -68.166354351002383 0 -3.8271848452074533 0 0 1 1 0 0 forward_v I I I I #
face $-1 $88 $89 $32 $-1 $90 reversed single #
loop $-1 $-1 $91 $42 #
plane-surface $-1 -60.645584461152708 60.923641757411922 177.08605667701821 1 0 0 0 -0.5877852598018023 -0.80901698891910034 forward_v I I I I #
face $-1 $92 $93 $33 $-1 $94 forward single #
loop $-1 $95 $96 $43 #
cone-surface $-1 -55.211831267065847 36.214615378681152 5.1320452664785847 0 -0.5877852598018023 -0.80901698891910034 1.5 0 0 1 I I 0 1 1.5 forward I I I I #
face $-1 $97 $98 $34 $-1 $99 forward single #
loop $-1 $100 $101 $44 #
cone-surface $-1 -47.061201475935555 36.214615378681152 5.1320452664785847 0 -0.5877852598018023 -0.80901698891910034 1.5 0 0 1 I I 0 1 1.5 forward I I I I #
face $-1 $102 $103 $35 $-1 $104 forward single #
loop $-1 $105 $106 $45 #
cone-surface $-1 -38.910571684805262 36.214615378681152 5.1320452664785847 0 -0.5877852598018023 -0.80901698891910034 1.5 0 0 1 I I 0 1 1.5 forward I I I I #
face $-1 $107 $108 $36 $-1 $109 reversed single #
loop $-1 $-1 $110 $46 #
plane-surface $-1 65.790760085355558 -45.388944976505869 8.3480614004879214 0 -0.52991927123019833 0.84804809178421925 1 0 0 forward_v I I I I #
face $-1 $111 $112 $37 $-1 $113 forward single #
loop $-1 $114 $115 $47 #
cone-surface $-1 59.852941592057661 -40.983044370126791 8.9782693114505161 0 0.52991927123019833 -0.84804809178421925 1.5 0 0 1 I I 0 1 1.5 forward I I I I #
face $-1 $116 $117 $38 $-1 $118 forward single #
loop $-1 $119 $120 $48 #
cone-surface $-1 65.790760085355558 -40.983044370126791 8.9782693114505161 0 0.52991927123019833 -0.84804809178421925 1.5 0 0 1 I I 0 1 1.5 forward I I I I #
face $-1 $121 $122 $39 $-1 $123 forward single #
loop $-1 $124 $125 $49 #
cone-surface $-1 71.728578578653455 -40.983044370126791 8.9782693114505161 0 0.52991927123019833 -0.84804809178421925 1.5 0 0 1 I I 0 1 1.5 forward I I I I #
face $-1 $126 $127 $30 $-1 $128 reversed single #
loop $-1 $-1 $129 $50 #
plane-surface $-1 0 0 -12.662001621623657 0 0 1 1 0 0 forward_v I I I I #
coedge $-1 $130 $131 $132 $133 forward $51 $-1 #
face $-1 $134 $135 $31 $-1 $136 reversed single #
loop $-1 $-1 $137 $53 #
plane-surface $-1 -68.166354351002383 0 -10.932852688425939 0 0 1 1 0 0 forward_v I I I I #
coedge $-1 $138 $139 $140 $141 forward $54 $-1 #
face $-1 $142 $143 $32 $-1 $144 reversed single #
loop $-1 $-1 $145 $56 #
plane-surface $-1 -47.061201475935555 -28.051910213709128 54.621717970458221 0 0.5877852598018023 0.80901698891910034 1 0 0 forward_v I I I I #
coedge $-1 $146 $147 $148 $149 reversed $57 $-1 #
face $-1 $-1 $150 $33 $-1 $151 forward single #
loop $-1 $152 $153 $59 #
cone-surface $-1 -55.211831267065847 34.443577509444204 2.6944208103721028 0 -0.5877852598018023 -0.80901698891910034 0.75 0 0 1 I I -0.70710678118654724 0.70710678118654768 0.75 forward I I I I #
loop $-1 $-1 $154 $43 #
coedge $-1 $96 $96 $155 $156 reversed $60 $-1 #
face $-1 $-1 $157 $34 $-1 $158 forward single #
loop $-1 $159 $160 $62 #
cone-surface $-1 -47.061201475935555 34.443577509444204 2.6944208103721028 0 -0.5877852598018023 -0.80901698891910034 0.75 0 0 1 I I -0.70710678118654724 0.70710678118654768 0.75 forward I I I I #
loop $-1 $-1 $161 $44 #
coedge $-1 $101 $101 $162 $163 reversed $63 $-1 #
face $-1 $-1 $164 $35 $-1 $165 forward single #
loop $-1 $166 $167 $65 #
cone-surface $-1 -38.910571684805262 34.443577509444204 2.6944208103721028 0 -0.5877852598018023 -0.80901698891910034 0.75 0 0 1 I I -0.70710678118654724 0.70710678118654768 0.75 forward I I I I #
loop $-1 $-1 $168 $45 #
coedge $-1 $106 $106 $169 $170 reversed $66 $-1 #
face $-1 $171 $172 $36 $-1 $173 reversed single #
loop $-1 $-1 $174 $68 #
plane-surface $-1 55.894395929859073 -125.60507641494948 136.72070397066736 1 0 0 0 0.52991927123019833 -0.84804809178421925 forward_v I I I I #
coedge $-1 $175 $176 $177 $178 reversed $69 $-1 #
face $-1 $-1 $179 $37 $-1 $180 forward single #
loop $-1 $181 $182 $71 #
cone-surface $-1 59.852941592057661 -39.631577993001684 6.8154710430070811 0 0.52991927123019833 -0.84804809178421925 0.75 0 0 1 I I -0.70710678118654757 0.70710678118654757 0.75 forward I I I I #
loop $-1 $-1 $183 $47 #
coedge $-1 $115 $115 $184 $185 reversed $72 $-1 #
face $-1 $-1 $186 $38 $-1 $187 forward single #
loop $-1 $188 $189 $74 #
cone-surface $-1 65.790760085355558 -39.631577993001684 6.8154710430070811 0 0.52991927123019833 -0.84804809178421925 0.75 0 0 1 I I -0.70710678118654757 0.70710678118654757 0.75 forward I I I I #
loop $-1 $-1 $190 $48 #
coedge $-1 $120 $120 $191 $192 reversed $75 $-1 #
face $-1 $-1 $193 $39 $-1 $194 forward single #
loop $-1 $195 $196 $77 #
cone-surface $-1 71.728578578653455 -39.631577993001684 6.8154710430070811 0 0.52991927123019833 -0.84804809178421925 0.75 0 0 1 I I -0.70710678118654757 0.70710678118654757 0.75 forward I I I I #
loop $-1 $-1 $197 $49 #
coedge $-1 $125 $125 $198 $199 reversed $78 $-1 #
face $-1 $200 $201 $30 $-1 $202 reversed single #
loop $-1 $-1 $203 $80 #
plane-surface $-1 0 -45.388944976505847 0 0 1 0 0 0 1 forward_v I I I I #
coedge $-1 $204 $205 $206 $207 forward $81 $-1 #
coedge $-1 $208 $83 $209 $210 forward $51 $-1 #
coedge $-1 $83 $208 $211 $212 forward $51 $-1 #
coedge $-1 $213 $214 $83 $133 reversed $215 $-1 #
edge $-1 $216 -45.388944976505847 $217 45.388944976505847 $132 $218 forward 7 unknown #
face $-1 $219 $220 $31 $-1 $221 reversed single #
loop $-1 $-1 $222 $84 #
plane-surface $-1 -60.645584461152701 0 -7.3800187668166961 -1 0 0 0 0 1 forward_v I I I I #
coedge $-1 $223 $224 $225 $226 forward $85 $-1 #
coedge $-1 $227 $87 $228 $229 reversed $54 $-1 #
coedge $-1 $87 $227 $230 $231 reversed $54 $-1 #
coedge $-1 $222 $232 $87 $141 reversed $135 $-1 #
edge $-1 $233 -45.388944976505847 $234 45.388944976505847 $140 $235 forward 7 unknown #
face $-1 $236 $237 $32 $-1 $238 forward single #
loop $-1 $-1 $239 $88 #
plane-surface $-1 -33.476818490718401 60.923641757411922 177.08605667701821 -1 0 0 0 0.5877852598018023 0.80901698891910034 forward_v I I I I #
coedge $-1 $240 $241 $242 $243 reversed $89 $-1 #
coedge $-1 $147 $91 $244 $245 reversed $57 $-1 #
coedge $-1 $91 $146 $240 $246 reversed $57 $-1 #
coedge $-1 $242 $247 $91 $149 forward $237 $-1 #
edge $-1 $248 -14.927124097799886 $249 0.76113724907829905 $148 $250 forward 7 unknown #
loop $-1 $-1 $155 $92 #
plane-surface $-1 -47.061201475935555 -28.051910213709128 54.621717970458221 0 0.5877852598018023 0.80901698891910034 1 0 0 forward_v I I I I #
loop $-1 $-1 $251 $59 #
coedge $-1 $153 $153 $154 $252 reversed $93 $-1 #
coedge $-1 $154 $154 $153 $252 forward $95 $-1 #
coedge $-1 $155 $155 $96 $156 forward $150 $-1 #
edge $-1 $253 3.4803878878252819e-016 $253 6.2831853071796004 $155 $254 forward 7 unknown #
loop $-1 $-1 $162 $97 #
plane-surface $-1 -47.061201475935555 -28.051910213709128 54.621717970458221 0 0.5877852598018023 0.80901698891910034 1 0 0 forward_v I I I I #
loop $-1 $-1 $255 $62 #
coedge $-1 $160 $160 $161 $256 reversed $98 $-1 #
coedge $-1 $161 $161 $160 $256 forward $100 $-1 #
coedge $-1 $162 $162 $101 $163 forward $157 $-1 #
edge $-1 $257 3.4803878878252819e-016 $257 6.2831853071796004 $162 $258 forward 7 unknown #
loop $-1 $-1 $169 $102 #
plane-surface $-1 -47.061201475935555 -28.051910213709128 54.621717970458221 0 0.5877852598018023 0.80901698891910034 1 0 0 forward_v I I I I #
loop $-1 $-1 $259 $65 #
coedge $-1 $167 $167 $168 $260 reversed $103 $-1 #
coedge $-1 $168 $168 $167 $260 forward $105 $-1 #
coedge $-1 $169 $169 $106 $170 forward $164 $-1 #
edge $-1 $261 3.4803878878252819e-016 $261 6.2831853071796004 $169 $262 forward 7 unknown #
face $-1 $263 $264 $36 $-1 $265 forward single #
loop $-1 $-1 $266 $107 #
plane-surface $-1 0 -45.388944976505847 0 0 1 0 0 0 1 forward_v I I I I #
coedge $-1 $267 $268 $269 $270 reversed $108 $-1 #
coedge $-1 $271 $110 $272 $273 reversed $69 $-1 #
coedge $-1 $110 $271 $267 $274 forward $69 $-1 #
coedge $-1 $269 $275 $110 $178 forward $264 $-1 #
edge $-1 $276 -42.791744198174264 $277 -22.999015887181294 $177 $278 forward 7 unknown #
loop $-1 $-1 $184 $111 #
plane-surface $-1 65.790760085355558 -45.388944976505869 8.3480614004879214 0 -0.52991927123019833 0.84804809178421925 1 0 0 forward_v I I I I #
loop $-1 $-1 $279 $71 #
coedge $-1 $182 $182 $183 $280 reversed $112 $-1 #
coedge $-1 $183 $183 $182 $280 forward $114 $-1 #
coedge $-1 $184 $184 $115 $185 forward $179 $-1 #
edge $-1 $281 1.1312701895149883e-015 $281 6.2831853071796013 $184 $282 forward 7 unknown #
loop $-1 $-1 $191 $116 #
plane-surface $-1 65.790760085355558 -45.388944976505869 8.3480614004879214 0 -0.52991927123019833 0.84804809178421925 1 0 0 forward_v I I I I #
loop $-1 $-1 $283 $74 #
coedge $-1 $189 $189 $190 $284 reversed $117 $-1 #
coedge $-1 $190 $190 $189 $284 forward $119 $-1 #
coedge $-1 $191 $191 $120 $192 forward $186 $-1 #
edge $-1 $285 1.1312701895149883e-015 $285 6.2831853071796013 $191 $286 forward 7 unknown #
loop $-1 $-1 $198 $121 #
plane-surface $-1 65.790760085355558 -45.388944976505869 8.3480614004879214 0 -0.52991927123019833 0.84804809178421925 1 0 0 forward_v I I I I #
loop $-1 $-1 $287 $77 #
coedge $-1 $196 $196 $197 $288 reversed $122 $-1 #
coedge $-1 $197 $197 $196 $288 forward $124 $-1 #
coedge $-1 $198 $198 $125 $199 forward $193 $-1 #
edge $-1 $289 1.1312701895149883e-015 $289 6.2831853071796013 $198 $290 forward 7 unknown #
face $-1 $291 $292 $30 $-1 $293 reversed single #
loop $-1 $-1 $294 $126 #
plane-surface $-1 -75.687124240852071 0 0 1 0 0 0 0 -1 forward_v I I I I #
coedge $-1 $295 $211 $296 $297 forward $127 $-1 #
coedge $-1 $298 $129 $295 $299 forward $81 $-1 #
coedge $-1 $129 $298 $300 $301 forward $81 $-1 #
coedge $-1 $214 $213 $129 $207 reversed $215 $-1 #
edge $-1 $302 -45.388944976505847 $303 45.388944976505847 $206 $304 forward 7 unknown #
coedge $-1 $131 $130 $305 $306 forward $51 $-1 #
coedge $-1 $307 $308 $130 $210 reversed $292 $-1 #
edge $-1 $217 -75.687124240852071 $309 75.687124240852071 $209 $310 forward 7 unknown #
coedge $-1 $203 $311 $131 $212 reversed $127 $-1 #
edge $-1 $312 -75.687124240852071 $216 75.687124240852071 $211 $313 forward 7 unknown #
coedge $-1 $206 $132 $311 $314 forward $215 $-1 #
coedge $-1 $132 $206 $307 $315 reversed $215 $-1 #
loop $-1 $-1 $213 $291 #
vertex $-1 $133 $316 #
vertex $-1 $133 $317 #
straight-curve $-1 75.687124240852071 0 12.662001621623657 0 1 0 I I #
face $-1 $318 $319 $31 $-1 $320 reversed single #
loop $-1 $-1 $321 $134 #
plane-surface $-1 0 -45.388944976505847 0 0 1 0 0 0 1 forward_v I I I I #
coedge $-1 $225 $140 $322 $323 reversed $135 $-1 #
coedge $-1 $324 $137 $321 $325 reversed $85 $-1 #
coedge $-1 $137 $324 $326 $327 reversed $85 $-1 #
coedge $-1 $232 $222 $137 $226 reversed $135 $-1 #
edge $-1 $328 -45.388944976505847 $329 45.388944976505847 $225 $330 forward 7 unknown #
coedge $-1 $139 $138 $331 $332 reversed $54 $-1 #
coedge $-1 $333 $334 $138 $229 forward $335 $-1 #
edge $-1 $336 -41.603947065350866 $234 -26.56240728565151 $228 $337 forward 7 unknown #
coedge $-1 $338 $322 $139 $231 forward $220 $-1 #
edge $-1 $233 26.56240728565151 $339 41.603947065350866 $230 $340 forward 7 unknown #
coedge $-1 $140 $225 $333 $341 reversed $135 $-1 #
vertex $-1 $231 $342 #
vertex $-1 $229 $343 #
straight-curve $-1 -60.645584461152701 0 -3.8271848452074533 0 1 0 I I #
face $-1 $-1 $344 $32 $-1 $345 reversed single #
loop $-1 $-1 $148 $142 #
plane-surface $-1 0 0 12.662001621623657 0 0 1 1 0 0 forward_v I I I I #
coedge $-1 $346 $347 $348 $349 reversed $143 $-1 #
coedge $-1 $350 $145 $147 $246 forward $89 $-1 #
coedge $-1 $145 $350 $346 $351 forward $89 $-1 #
coedge $-1 $348 $148 $145 $243 forward $237 $-1 #
edge $-1 $249 -37.114983723184935 $352 -9.9462177527506235 $242 $353 forward 7 unknown #
coedge $-1 $354 $355 $146 $245 forward $344 $-1 #
edge $-1 $356 -87.279215998341272 $248 -75.881026716885444 $244 $357 forward 7 unknown #
edge $-1 $249 71.386132348713758 $356 90.77788995301168 $147 $358 forward 7 unknown #
coedge $-1 $148 $348 $354 $359 forward $237 $-1 #
vertex $-1 $245 $360 #
vertex $-1 $149 $361 #
straight-curve $-1 -60.645584461152708 30.461820878705961 12.662001621623659 0 -1 0 I I #
coedge $-1 $251 $251 $-1 $362 reversed $152 $-1 #
edge $-1 $363 0 $363 6.2831853071796004 $153 $364 forward 7 unknown #
vertex $-1 $156 $365 #
ellipse-curve $-1 -55.211831267065847 37.544814303066751 6.9629069808957409 0 0.5877852598018023 0.80901698891910034 1.5 0 0 1 I I #
coedge $-1 $255 $255 $-1 $366 reversed $159 $-1 #
edge $-1 $367 0 $367 6.2831853071796004 $160 $368 forward 7 unknown #
vertex $-1 $163 $369 #
ellipse-curve $-1 -47.061201475935555 37.544814303066751 6.9629069808957409 0 0.5877852598018023 0.80901698891910034 1.5 0 0 1 I I #
coedge $-1 $259 $259 $-1 $370 reversed $166 $-1 #
edge $-1 $371 0 $371 6.2831853071796004 $167 $372 forward 7 unknown #
vertex $-1 $170 $373 #
ellipse-curve $-1 -38.910571684805262 37.544814303066751 6.9629069808957409 0 0.5877852598018023 0.80901698891910034 1.5 0 0 1 I I #
face $-1 $-1 $374 $36 $-1 $375 reversed single #
loop $-1 $-1 $269 $171 #
plane-surface $-1 0 0 12.662001621623657 0 0 1 1 0 0 forward_v I I I I #
coedge $-1 $376 $377 $268 $378 forward $172 $-1 #
coedge $-1 $268 $174 $176 $274 reversed $108 $-1 #
coedge $-1 $174 $267 $266 $378 reversed $108 $-1 #
coedge $-1 $379 $177 $174 $270 forward $264 $-1 #
edge $-1 $277 -24.31734059632204 $380 -17.413593230968893 $269 $381 forward 7 unknown #
coedge $-1 $176 $175 $376 $382 reversed $69 $-1 #
coedge $-1 $383 $384 $175 $273 forward $374 $-1 #
edge $-1 $385 -17.034104780946585 $276 -8.893354943483633 $272 $386 forward 7 unknown #
edge $-1 $387 2.4666512388233064e-014 $277 8.1407498374629768 $267 $388 forward 7 unknown #
coedge $-1 $177 $379 $383 $389 forward $264 $-1 #
vertex $-1 $273 $390 #
vertex $-1 $178 $391 #
straight-curve $-1 32.895380042677779 -38.485197611152699 12.662001621623656 -1 0 0 I I #
coedge $-1 $279 $279 $-1 $392 reversed $181 $-1 #
edge $-1 $393 0 $393 6.2831853071796004 $182 $394 forward 7 unknown #
vertex $-1 $185 $395 #
ellipse-curve $-1 59.852941592057661 -41.937071293829263 10.505031511055803 0 -0.52991927123019833 0.84804809178421925 1.5 0 0 1 I I #
coedge $-1 $283 $283 $-1 $396 reversed $188 $-1 #
edge $-1 $397 0 $397 6.2831853071796004 $189 $398 forward 7 unknown #
vertex $-1 $192 $399 #
ellipse-curve $-1 65.790760085355558 -41.937071293829263 10.505031511055803 0 -0.52991927123019833 0.84804809178421925 1.5 0 0 1 I I #
coedge $-1 $287 $287 $-1 $400 reversed $195 $-1 #
edge $-1 $401 0 $401 6.2831853071796004 $196 $402 forward 7 unknown #
vertex $-1 $199 $403 #
ellipse-curve $-1 71.728578578653455 -41.937071293829263 10.505031511055803 0 -0.52991927123019833 0.84804809178421925 1.5 0 0 1 I I #
face $-1 $-1 $215 $30 $-1 $404 reversed single #
loop $-1 $-1 $307 $200 #
plane-surface $-1 0 45.388944976505847 0 0 -1 0 0 0 -1 forward_v I I I I #
coedge $-1 $405 $305 $308 $406 forward $201 $-1 #
coedge $-1 $311 $203 $204 $299 reversed $127 $-1 #
coedge $-1 $305 $405 $203 $297 reversed $201 $-1 #
edge $-1 $312 -12.662001621623657 $407 12.662001621623657 $296 $408 forward 7 unknown #
coedge $-1 $205 $204 $405 $409 forward $81 $-1 #
edge $-1 $303 -75.687124240852071 $407 75.687124240852071 $295 $410 forward 7 unknown #
coedge $-1 $308 $307 $205 $301 reversed $292 $-1 #
edge $-1 $411 -75.687124240852071 $302 75.687124240852071 $300 $412 forward 7 unknown #
vertex $-1 $207 $413 #
vertex $-1 $314 $414 #
straight-curve $-1 75.687124240852071 0 -12.662001621623657 0 -1 0 I I #
coedge $-1 $294 $296 $208 $306 reversed $201 $-1 #
edge $-1 $309 -45.388944976505847 $312 45.388944976505847 $305 $415 forward 7 unknown #
coedge $-1 $300 $209 $214 $315 forward $292 $-1 #
coedge $-1 $209 $300 $294 $406 reversed $292 $-1 #
vertex $-1 $210 $416 #
straight-curve $-1 0 45.388944976505847 12.662001621623657 -1 0 0 I I #
coedge $-1 $211 $295 $213 $314 reversed $127 $-1 #
vertex $-1 $306 $417 #
straight-curve $-1 0 -45.388944976505847 12.662001621623657 1 0 0 I I #
edge $-1 $216 -12.662001621623657 $303 12.662001621623657 $213 $418 forward 7 unknown #
edge $-1 $217 -12.662001621623657 $302 12.662001621623657 $214 $419 forward 7 unknown #
point $-1 75.687124240852071 -45.388944976505847 12.662001621623657 #
point $-1 75.687124240852071 45.388944976505847 12.662001621623657 #
face $-1 $-1 $335 $31 $-1 $420 reversed single #
loop $-1 $-1 $421 $219 #
plane-surface $-1 -75.687124240852071 0 0 1 0 0 0 0 -1 forward_v I I I I #
coedge $-1 $322 $338 $223 $325 forward $220 $-1 #
coedge $-1 $230 $321 $222 $323 forward $220 $-1 #
edge $-1 $329 -7.2428433050175904 $233 -0.13717546179910522 $322 $422 forward 7 unknown #
coedge $-1 $224 $223 $421 $423 reversed $85 $-1 #
edge $-1 $424 -41.603947065350866 $329 -26.56240728565151 $321 $425 forward 7 unknown #
coedge $-1 $334 $333 $224 $327 forward $335 $-1 #
edge $-1 $328 26.56240728565151 $426 41.603947065350866 $326 $427 forward 7 unknown #
vertex $-1 $327 $428 #
vertex $-1 $325 $429 #
straight-curve $-1 -60.645584461152701 0 -10.932852688425939 0 -1 0 I I #
coedge $-1 $430 $431 $227 $332 forward $319 $-1 #
edge $-1 $339 -45.388944976505847 $336 45.388944976505847 $331 $432 forward 7 unknown #
coedge $-1 $326 $228 $232 $341 forward $335 $-1 #
coedge $-1 $228 $326 $430 $433 reversed $335 $-1 #
loop $-1 $-1 $326 $318 #
vertex $-1 $433 $434 #
straight-curve $-1 -34.083177175501191 45.388944976505847 -3.8271848452074533 1 0 0 I I #
coedge $-1 $321 $230 $431 $435 forward $220 $-1 #
vertex $-1 $435 $436 #
straight-curve $-1 -34.083177175501191 -45.388944976505847 -3.8271848452074533 -1 0 0 I I #
edge $-1 $234 0.13717546179910522 $328 7.2428433050175904 $333 $437 forward 7 unknown #
point $-1 -60.645584461152701 -45.388944976505847 -3.8271848452074533 #
point $-1 -60.645584461152701 45.388944976505847 -3.8271848452074533 #
loop $-1 $-1 $244 $236 #
plane-surface $-1 0 45.388944976505847 0 0 -1 0 0 0 -1 forward_v I I I I #
coedge $-1 $347 $239 $241 $351 reversed $143 $-1 #
coedge $-1 $239 $346 $438 $439 reversed $143 $-1 #
coedge $-1 $247 $242 $239 $349 forward $237 $-1 #
edge $-1 $352 -0.76113724907829905 $440 14.927124097799886 $348 $441 forward 7 unknown #
coedge $-1 $241 $240 $355 $442 reversed $89 $-1 #
edge $-1 $443 -90.77788995301168 $352 -71.386132348713758 $346 $444 forward 7 unknown #
vertex $-1 $243 $445 #
straight-curve $-1 -23.530600737967777 29.700683629627658 12.662001621623659 1 0 0 I I #
coedge $-1 $438 $244 $247 $359 reversed $344 $-1 #
coedge $-1 $244 $438 $350 $442 forward $344 $-1 #
vertex $-1 $245 $446 #
straight-curve $-1 -60.645584461152708 45.388944976505847 88.543028338509103 0 0 1 I I #
straight-curve $-1 -60.645584461152708 -28.051910213709128 54.621717970458221 0 0.80901698891910034 -0.5877852598018023 I I #
edge $-1 $440 33.476818490718401 $248 60.645584461152708 $354 $447 forward 7 unknown #
point $-1 -60.645584461152708 45.388944976505847 12.662001621623657 #
point $-1 -60.645584461152708 29.700683629627662 12.662001621623659 #
edge $-1 $448 1 $448 0 $251 $-1 forward 7 unknown #
vertex $-1 $252 $449 #
ellipse-curve $-1 -55.211831267065847 34.884416454295554 3.3011835520614285 0 0.5877852598018023 0.80901698891910034 1.5 0 0 1 I I #
point $-1 -53.711831267065847 37.544814303066751 6.96290698089574 #
edge $-1 $450 1 $450 0 $255 $-1 forward 7 unknown #
vertex $-1 $256 $451 #
ellipse-curve $-1 -47.061201475935555 34.884416454295554 3.3011835520614285 0 0.5877852598018023 0.80901698891910034 1.5 0 0 1 I I #
point $-1 -45.561201475935555 37.544814303066751 6.96290698089574 #
edge $-1 $452 1 $452 0 $259 $-1 forward 7 unknown #
vertex $-1 $260 $453 #
ellipse-curve $-1 -38.910571684805262 34.884416454295554 3.3011835520614285 0 0.5877852598018023 0.80901698891910034 1.5 0 0 1 I I #
point $-1 -37.410571684805262 37.544814303066751 6.96290698089574 #
loop $-1 $-1 $272 $263 #
plane-surface $-1 75.687124240852071 0 0 -1 0 0 0 0 1 forward_v I I I I #
coedge $-1 $454 $266 $271 $382 forward $172 $-1 #
coedge $-1 $266 $454 $379 $455 reversed $172 $-1 #
edge $-1 $380 55.69835036371002 $387 60.012290584845744 $266 $456 forward 7 unknown #
coedge $-1 $275 $269 $377 $455 forward $264 $-1 #
vertex $-1 $455 $457 #
straight-curve $-1 55.894395929859073 -62.80253820747474 12.662001621623659 0 -1 0 I I #
edge $-1 $387 22.999015887181294 $385 42.791744198174264 $376 $458 forward 7 unknown #
coedge $-1 $384 $272 $275 $389 reversed $374 $-1 #
coedge $-1 $272 $383 $454 $459 forward $374 $-1 #
vertex $-1 $382 $460 #
straight-curve $-1 75.687124240852071 -30.943204921771652 17.374761792065986 0 0.84804809178421925 0.52991927123019833 I I #
vertex $-1 $382 $461 #
straight-curve $-1 55.894395929859073 -45.388944976505869 8.3480614004879214 0 0.84804809178421925 0.52991927123019833 I I #
edge $-1 $462 -45.388944976505847 $276 -38.485197611152699 $383 $463 forward 7 unknown #
point $-1 75.687124240852043 -38.485197611152699 12.662001621623657 #
point $-1 55.894395929859073 -38.485197611152699 12.662001621623657 #
edge $-1 $464 1 $464 0 $279 $-1 forward 7 unknown #
vertex $-1 $280 $465 #
ellipse-curve $-1 59.852941592057661 -40.029017446424334 7.4515071118452454 0 -0.52991927123019833 0.84804809178421925 1.5 0 0 1 I I #
point $-1 61.352941592057661 -41.937071293829248 10.505031511055783 #
edge $-1 $466 1 $466 0 $283 $-1 forward 7 unknown #
vertex $-1 $284 $467 #
ellipse-curve $-1 65.790760085355558 -40.029017446424334 7.4515071118452454 0 -0.52991927123019833 0.84804809178421925 1.5 0 0 1 I I #
point $-1 67.290760085355558 -41.937071293829248 10.505031511055783 #
edge $-1 $468 1 $468 0 $287 $-1 forward 7 unknown #
vertex $-1 $288 $469 #
ellipse-curve $-1 71.728578578653455 -40.029017446424334 7.4515071118452454 0 -0.52991927123019833 0.84804809178421925 1.5 0 0 1 I I #
point $-1 73.228578578653455 -41.937071293829248 10.505031511055783 #
plane-surface $-1 75.687124240852071 0 0 -1 0 0 0 0 1 forward_v I I I I #
coedge $-1 $296 $294 $298 $409 reversed $201 $-1 #
edge $-1 $309 -12.662001621623657 $411 12.662001621623657 $308 $470 forward 7 unknown #
vertex $-1 $409 $471 #
straight-curve $-1 -75.687124240852071 -45.388944976505847 0 0 0 -1 I I #
edge $-1 $407 -45.388944976505847 $411 45.388944976505847 $405 $472 forward 7 unknown #
straight-curve $-1 0 -45.388944976505847 -12.662001621623657 -1 0 0 I I #
vertex $-1 $301 $473 #
straight-curve $-1 0 45.388944976505847 -12.662001621623657 1 0 0 I I #
point $-1 75.687124240852071 45.388944976505847 -12.662001621623657 #
point $-1 75.687124240852071 -45.388944976505847 -12.662001621623657 #
straight-curve $-1 -75.687124240852071 0 12.662001621623657 0 -1 0 I I #
point $-1 -75.687124240852071 45.388944976505847 12.662001621623657 #
point $-1 -75.687124240852071 -45.388944976505847 12.662001621623657 #
straight-curve $-1 75.687124240852071 -45.388944976505847 0 0 0 -1 I I #
straight-curve $-1 75.687124240852071 45.388944976505847 0 0 0 -1 I I #
plane-surface $-1 0 45.388944976505847 0 0 -1 0 0 0 -1 forward_v I I I I #
coedge $-1 $431 $430 $324 $423 forward $319 $-1 #
straight-curve $-1 -60.645584461152701 -45.388944976505847 -3.6900093834083481 0 0 1 I I #
edge $-1 $426 -45.388944976505847 $424 45.388944976505847 $421 $474 forward 7 unknown #
vertex $-1 $325 $475 #
straight-curve $-1 -34.083177175501191 -45.388944976505847 -10.932852688425939 1 0 0 I I #
vertex $-1 $327 $476 #
straight-curve $-1 -34.083177175501191 45.388944976505847 -10.932852688425939 -1 0 0 I I #
point $-1 -60.645584461152701 45.388944976505847 -10.932852688425939 #
point $-1 -60.645584461152701 -45.388944976505847 -10.932852688425939 #
coedge $-1 $421 $331 $334 $433 forward $319 $-1 #
coedge $-1 $331 $421 $338 $435 reversed $319 $-1 #
straight-curve $-1 -75.687124240852071 0 -3.8271848452074533 0 1 0 I I #
edge $-1 $336 3.8271848452074533 $426 10.932852688425939 $334 $477 forward 7 unknown #
point $-1 -75.687124240852057 45.388944976505847 -3.8271848452074533 #
edge $-1 $339 3.8271848452074533 $424 10.932852688425939 $431 $478 forward 7 unknown #
point $-1 -75.687124240852057 -45.388944976505847 -3.8271848452074533 #
straight-curve $-1 -60.645584461152701 45.388944976505847 -3.6900093834083481 0 0 -1 I I #
coedge $-1 $355 $354 $347 $439 forward $344 $-1 #
edge $-1 $440 75.881026716885444 $443 87.279215998341272 $438 $479 forward 7 unknown #
vertex $-1 $359 $480 #
straight-curve $-1 -33.476818490718401 30.461820878705961 12.662001621623659 0 1 0 I I #
edge $-1 $443 9.9462177527506235 $356 37.114983723184935 $355 $481 forward 7 unknown #
vertex $-1 $442 $482 #
straight-curve $-1 -33.476818490718401 -28.051910213709128 54.621717970458221 0 -0.80901698891910034 0.5877852598018023 I I #
point $-1 -33.476818490718401 29.700683629627662 12.662001621623659 #
point $-1 -60.645584461152708 45.388944976505847 1.2638123401678243 #
straight-curve $-1 0 45.388944976505847 12.662001621623657 -1 0 0 I I #
vertex $-1 $362 $483 #
point $-1 -53.711831267065847 34.884416454295554 3.3011835520614285 #
vertex $-1 $366 $484 #
point $-1 -45.561201475935555 34.884416454295554 3.3011835520614285 #
vertex $-1 $370 $485 #
point $-1 -37.410571684805262 34.884416454295554 3.3011835520614285 #
coedge $-1 $377 $376 $384 $459 reversed $172 $-1 #
edge $-1 $380 55.894395929859073 $462 75.687124240852071 $377 $486 forward 7 unknown #
straight-curve $-1 55.894395929859073 -45.388944976505847 68.360351985333679 0 0 -1 I I #
point $-1 55.894395929859073 -45.388944976505847 12.662001621623657 #
straight-curve $-1 32.895380042677779 -45.388944976505847 8.3480614004879339 1 0 0 I I #
edge $-1 $462 -12.662001621623657 $385 -8.3480614004879339 $384 $487 forward 7 unknown #
point $-1 75.687124240852043 -45.388944976505847 8.3480614004879339 #
point $-1 55.894395929859073 -45.388944976505847 8.3480614004879339 #
vertex $-1 $389 $488 #
straight-curve $-1 75.687124240852071 0 12.662001621623657 0 1 0 I I #
vertex $-1 $392 $489 #
point $-1 61.352941592057661 -40.029017446424334 7.4515071118452454 #
vertex $-1 $396 $490 #
point $-1 67.290760085355558 -40.029017446424334 7.4515071118452454 #
vertex $-1 $400 $491 #
point $-1 73.228578578653455 -40.029017446424334 7.4515071118452454 #
straight-curve $-1 -75.687124240852071 45.388944976505847 0 0 0 -1 I I #
point $-1 -75.687124240852071 -45.388944976505847 -12.662001621623657 #
straight-curve $-1 -75.687124240852071 0 -12.662001621623657 0 1 0 I I #
point $-1 -75.687124240852071 45.388944976505847 -12.662001621623657 #
straight-curve $-1 -75.687124240852071 0 -10.932852688425939 0 -1 0 I I #
point $-1 -75.687124240852057 -45.388944976505847 -10.932852688425939 #
point $-1 -75.687124240852057 45.388944976505847 -10.932852688425939 #
straight-curve $-1 -75.687124240852071 45.388944976505847 0 0 0 -1 I I #
straight-curve $-1 -75.687124240852071 -45.388944976505847 0 0 0 -1 I I #
straight-curve $-1 -33.476818490718401 45.388944976505847 88.543028338509103 0 0 -1 I I #
point $-1 -33.476818490718401 45.388944976505847 12.662001621623657 #
straight-curve $-1 -23.530600737967777 45.38894497650584 1.2638123401678243 -1 0 0 I I #
point $-1 -33.476818490718401 45.388944976505847 1.2638123401678243 #
point $-1 -55.211831267065847 34.002738564592853 2.087658068682777 #
point $-1 -47.061201475935555 34.002738564592853 2.087658068682777 #
point $-1 -38.910571684805262 34.002738564592853 2.087658068682777 #
straight-curve $-1 0 -45.388944976505847 12.662001621623657 1 0 0 I I #
straight-curve $-1 75.687124240852071 -45.388944976505847 0 0 0 -1 I I #
point $-1 75.687124240852071 -45.388944976505847 12.662001621623657 #
point $-1 59.852941592057661 -39.234138539579035 6.1794349741689167 #
point $-1 65.790760085355558 -39.234138539579035 6.1794349741689167 #
point $-1 71.728578578653455 -39.234138539579035 6.1794349741689167 #
End-of-ACIS-data 