500 0 12 0           
7 Unknown 11 ACIS 5.0 NT 24 Thu Mar 25 18:14:16 1999 
-1 9.9999999999999995e-007 1e-010 
body $-1 $12 $-1 $13 #
body $-1 $14 $-1 $15 #
body $-1 $16 $-1 $17 #
body $-1 $18 $-1 $19 #
body $-1 $20 $-1 $21 #
body $-1 $22 $-1 $23 #
body $-1 $24 $-1 $25 #
body $-1 $26 $-1 $27 #
body $-1 $28 $-1 $29 #
body $-1 $30 $-1 $31 #
body $-1 $32 $-1 $33 #
body $-1 $34 $-1 $35 #
lump $-1 $-1 $36 $0 #
transform $-1 1 0 0 0 1 0 0 0 1 62.147892696920685 35.379366936918551 10.406394803858181 1 rotate no_reflect no_shear #
lump $-1 $-1 $37 $1 #
transform $-1 1 0 0 0 1 0 0 0 1 62.147892696920685 35.379366936918551 10.406394803858181 1 rotate no_reflect no_shear #
lump $-1 $-1 $38 $2 #
transform $-1 1 0 0 0 1 0 0 0 1 62.147892696920685 35.379366936918551 10.406394803858181 1 rotate no_reflect no_shear #
lump $-1 $-1 $39 $3 #
transform $-1 1 0 0 0 1 0 0 0 1 62.147892696920685 35.379366936918551 10.406394803858181 1 rotate no_reflect no_shear #
lump $-1 $-1 $40 $4 #
transform $-1 1 0 0 0 1 0 0 0 1 62.147892696920685 35.379366936918551 10.406394803858181 1 rotate no_reflect no_shear #
lump $-1 $-1 $41 $5 #
transform $-1 1 0 0 0 1 0 0 0 1 62.147892696920685 35.379366936918551 10.406394803858181 1 rotate no_reflect no_shear #
lump $-1 $-1 $42 $6 #
transform $-1 1 0 0 0 1 0 0 0 1 62.147892696920685 35.379366936918551 10.406394803858181 1 rotate no_reflect no_shear #
lump $-1 $-1 $43 $7 #
transform $-1 1 0 0 0 1 0 0 0 1 62.147892696920685 35.379366936918551 10.406394803858181 1 rotate no_reflect no_shear #
lump $-1 $-1 $44 $8 #
transform $-1 1 0 0 0 1 0 0 0 1 62.147892696920685 35.379366936918551 10.406394803858181 1 rotate no_reflect no_shear #
lump $-1 $-1 $45 $9 #
transform $-1 1 0 0 0 1 0 0 0 1 62.147892696920685 35.379366936918551 10.406394803858181 1 rotate no_reflect no_shear #
lump $-1 $-1 $46 $10 #
transform $-1 1 0 0 0 1 0 0 0 1 62.147892696920685 35.379366936918551 10.406394803858181 1 rotate no_reflect no_shear #
lump $-1 $-1 $47 $11 #
transform $-1 1 0 0 0 1 0 0 0 1 62.147892696920685 35.379366936918551 10.406394803858181 1 rotate no_reflect no_shear #
shell $-1 $-1 $-1 $48 $-1 $12 #
shell $-1 $-1 $-1 $49 $-1 $14 #
shell $-1 $-1 $-1 $50 $-1 $16 #
shell $-1 $-1 $-1 $51 $-1 $18 #
shell $-1 $-1 $-1 $52 $-1 $20 #
shell $-1 $-1 $-1 $53 $-1 $22 #
shell $-1 $-1 $-1 $54 $-1 $24 #
shell $-1 $-1 $-1 $55 $-1 $26 #
shell $-1 $-1 $-1 $56 $-1 $28 #
shell $-1 $-1 $-1 $57 $-1 $30 #
shell $-1 $-1 $-1 $58 $-1 $32 #
shell $-1 $-1 $-1 $59 $-1 $34 #
face $-1 $60 $61 $36 $-1 $62 forward single #
face $-1 $63 $64 $37 $-1 $65 forward single #
face $-1 $66 $67 $38 $-1 $68 reversed single #
face $-1 $69 $70 $39 $-1 $71 forward single #
face $-1 $72 $73 $40 $-1 $74 forward single #
face $-1 $75 $76 $41 $-1 $77 reversed single #
face $-1 $78 $79 $42 $-1 $80 forward single #
face $-1 $81 $82 $43 $-1 $83 forward single #
face $-1 $84 $85 $44 $-1 $86 reversed single #
face $-1 $87 $88 $45 $-1 $89 forward single #
face $-1 $90 $91 $46 $-1 $92 forward single #
face $-1 $93 $94 $47 $-1 $95 forward single #
face $-1 $96 $97 $36 $-1 $98 reversed single #
loop $-1 $-1 $99 $48 #
plane-surface $-1 0 0 10.406394803858181 0 0 1 1 0 0 forward_v I I I I #
face $-1 $100 $101 $37 $-1 $102 reversed single #
loop $-1 $-1 $103 $49 #
plane-surface $-1 0 -29.330922685577661 -0.84936502302991412 0 0 1 1 0 0 forward_v I I I I #
face $-1 $104 $105 $38 $-1 $106 reversed single #
loop $-1 $-1 $107 $50 #
plane-surface $-1 -168.69017652545125 -4.0281598503190068 68.465146694290084 0 1 0 -0.85716730853699208 0 0.51503806187062418 forward_v I I I I #
face $-1 $108 $109 $39 $-1 $110 forward single #
loop $-1 $111 $112 $51 #
cone-surface $-1 -59.421850498997827 -1.1491301069876059 6.8648435648012374 0.85716730853699208 0 -0.51503806187062418 0.51503806187062418 0 0.85716730853699208 1 I I 0 1 1 forward I I I I #
face $-1 $113 $114 $40 $-1 $115 forward single #
loop $-1 $116 $117 $52 #
cone-surface $-1 -59.421850498997827 3.1694145080094884 6.8648435648012374 0.85716730853699208 0 -0.51503806187062418 0.51503806187062418 0 0.85716730853699208 1 I I 0 1 1 forward I I I I #
face $-1 $118 $119 $41 $-1 $120 reversed single #
loop $-1 $-1 $121 $53 #
plane-surface $-1 -62.147892696920678 1.0101422005109413 4.4480862863590005 -0.85716730853699208 0 0.51503806187062418 0.51503806187062418 0 0.85716730853699208 forward_v I I I I #
face $-1 $122 $123 $42 $-1 $124 forward single #
loop $-1 $125 $126 $54 #
cone-surface $-1 -59.421850498997827 8.9274739946722903 6.8648435648012374 0.85716730853699208 0 -0.51503806187062418 0.51503806187062418 0 0.85716730853699208 1 I I 0 1 1 forward I I I I #
face $-1 $127 $128 $43 $-1 $129 forward single #
loop $-1 $130 $131 $55 #
cone-surface $-1 -59.421850498997827 13.246018609669385 6.8648435648012374 0.85716730853699208 0 -0.51503806187062418 0.51503806187062418 0 0.85716730853699208 1 I I 0 1 1 forward I I I I #
face $-1 $132 $133 $44 $-1 $134 reversed single #
loop $-1 $-1 $135 $56 #
plane-surface $-1 -17.747896862998019 31.385594566428246 101.93422370205009 0.7660444514056185 0 0.64278759981090561 0.64278759981090561 0 -0.7660444514056185 forward_v I I I I #
face $-1 $136 $137 $45 $-1 $138 forward single #
loop $-1 $139 $140 $57 #
cone-surface $-1 60.038372999773806 28.989331144134077 8.0905965787589071 -0.7660444514056185 0 -0.64278759981090561 0.3213937999054528 0 -0.38302222570280925 1 I I 0 1 0.5 forward I I I I #
face $-1 $141 $142 $46 $-1 $143 forward single #
loop $-1 $144 $145 $58 #
cone-surface $-1 60.038372999773806 31.38559456642826 8.0905965787589071 -0.7660444514056185 0 -0.64278759981090561 0.3213937999054528 0 -0.38302222570280925 1 I I 0 1 0.5 forward I I I I #
face $-1 $146 $147 $47 $-1 $148 forward single #
loop $-1 $149 $150 $59 #
cone-surface $-1 60.038372999773806 33.781857988722443 8.0905965787589071 -0.7660444514056185 0 -0.64278759981090561 0.3213937999054528 0 -0.38302222570280925 1 I I 0 1 0.5 forward I I I I #
face $-1 $151 $152 $36 $-1 $153 reversed single #
loop $-1 $-1 $154 $60 #
plane-surface $-1 0 0 -10.406394803858181 0 0 1 1 0 0 forward_v I I I I #
coedge $-1 $155 $156 $157 $158 forward $61 $-1 #
face $-1 $159 $160 $37 $-1 $161 reversed single #
loop $-1 $-1 $162 $63 #
plane-surface $-1 0 -29.330922685577661 -5.9007237654624198 0 0 1 1 0 0 forward_v I I I I #
coedge $-1 $163 $164 $165 $166 reversed $64 $-1 #
face $-1 $167 $168 $38 $-1 $169 reversed single #
loop $-1 $-1 $170 $66 #
plane-surface $-1 -62.147892696920678 1.0101422005109413 4.4480862863590005 -0.85716730853699208 0 0.51503806187062418 0.51503806187062418 0 0.85716730853699208 forward_v I I I I #
coedge $-1 $171 $172 $173 $174 reversed $67 $-1 #
face $-1 $-1 $175 $39 $-1 $176 forward single #
loop $-1 $177 $178 $69 #
cone-surface $-1 -58.057281057215874 -1.1491301069876059 6.0449275535585762 0.85716730853699208 0 -0.51503806187062418 0.25751903093531209 0 0.42858365426849604 1 I I -0.70710678118654746 0.70710678118654746 0.5 forward I I I I #
loop $-1 $-1 $179 $51 #
coedge $-1 $112 $112 $180 $181 reversed $70 $-1 #
face $-1 $-1 $182 $40 $-1 $183 forward single #
loop $-1 $184 $185 $72 #
cone-surface $-1 -58.057281057215874 3.1694145080094884 6.0449275535585762 0.85716730853699208 0 -0.51503806187062418 0.25751903093531209 0 0.42858365426849604 1 I I -0.70710678118654746 0.70710678118654746 0.5 forward I I I I #
loop $-1 $-1 $186 $52 #
coedge $-1 $117 $117 $187 $188 reversed $73 $-1 #
face $-1 $189 $190 $41 $-1 $191 forward single #
loop $-1 $-1 $192 $75 #
plane-surface $-1 -168.69017652545125 16.125048353000786 68.465146694290084 0 -1 0 0.85716730853699208 0 -0.51503806187062418 forward_v I I I I #
coedge $-1 $193 $194 $195 $196 reversed $76 $-1 #
face $-1 $-1 $197 $42 $-1 $198 forward single #
loop $-1 $199 $200 $78 #
cone-surface $-1 -58.057281057215874 8.9274739946722903 6.0449275535585762 0.85716730853699208 0 -0.51503806187062418 0.25751903093531209 0 0.42858365426849604 1 I I -0.70710678118654746 0.70710678118654746 0.5 forward I I I I #
loop $-1 $-1 $201 $54 #
coedge $-1 $126 $126 $202 $203 reversed $79 $-1 #
face $-1 $-1 $204 $43 $-1 $205 forward single #
loop $-1 $206 $207 $81 #
cone-surface $-1 -58.057281057215874 13.246018609669385 6.0449275535585762 0.85716730853699208 0 -0.51503806187062418 0.25751903093531209 0 0.42858365426849604 1 I I -0.70710678118654746 0.70710678118654746 0.5 forward I I I I #
loop $-1 $-1 $208 $55 #
coedge $-1 $131 $131 $209 $210 reversed $82 $-1 #
face $-1 $211 $212 $44 $-1 $213 forward single #
loop $-1 $-1 $214 $84 #
plane-surface $-1 77.468199871057692 27.391822195937948 181.83001326196882 0 1 0 0.7660444514056185 0 0.64278759981090561 forward_v I I I I #
coedge $-1 $215 $216 $217 $218 reversed $85 $-1 #
face $-1 $-1 $219 $45 $-1 $220 forward single #
loop $-1 $221 $222 $87 #
cone-surface $-1 59.28475423964057 28.989331144134077 7.4582353716388035 -0.7660444514056185 0 -0.64278759981090561 0.1606968999527264 0 -0.19151111285140462 1 I I -0.70710678118654746 0.70710678118654746 0.25 forward I I I I #
loop $-1 $-1 $223 $57 #
coedge $-1 $140 $140 $224 $225 reversed $88 $-1 #
face $-1 $-1 $226 $46 $-1 $227 forward single #
loop $-1 $228 $229 $90 #
cone-surface $-1 59.28475423964057 31.38559456642826 7.4582353716388035 -0.7660444514056185 0 -0.64278759981090561 0.1606968999527264 0 -0.19151111285140462 1 I I -0.70710678118654746 0.70710678118654746 0.25 forward I I I I #
loop $-1 $-1 $230 $58 #
coedge $-1 $145 $145 $231 $232 reversed $91 $-1 #
face $-1 $-1 $233 $47 $-1 $234 forward single #
loop $-1 $235 $236 $93 #
cone-surface $-1 59.28475423964057 33.781857988722443 7.4582353716388035 -0.7660444514056185 0 -0.64278759981090561 0.1606968999527264 0 -0.19151111285140462 1 I I -0.70710678118654746 0.70710678118654746 0.25 forward I I I I #
loop $-1 $-1 $237 $59 #
coedge $-1 $150 $150 $238 $239 reversed $94 $-1 #
face $-1 $240 $241 $36 $-1 $242 reversed single #
loop $-1 $-1 $243 $96 #
plane-surface $-1 0 -35.379366936918551 0 0 1 0 0 0 1 forward_v I I I I #
coedge $-1 $244 $245 $246 $247 forward $97 $-1 #
coedge $-1 $248 $99 $249 $250 forward $61 $-1 #
coedge $-1 $99 $248 $251 $252 forward $61 $-1 #
coedge $-1 $253 $254 $99 $158 reversed $255 $-1 #
edge $-1 $256 -35.379366936918551 $257 35.379366936918551 $157 $258 forward 7 unknown #
face $-1 $259 $260 $37 $-1 $261 reversed single #
loop $-1 $-1 $262 $100 #
plane-surface $-1 0 -23.282478434236772 -3.3750443942461672 0 -1 0 0 0 -1 forward_v I I I I #
coedge $-1 $263 $264 $265 $266 reversed $101 $-1 #
coedge $-1 $267 $103 $268 $269 forward $64 $-1 #
coedge $-1 $103 $267 $270 $271 reversed $64 $-1 #
coedge $-1 $272 $273 $103 $166 forward $274 $-1 #
edge $-1 $275 8.6170170914479414 $276 20.71390559412972 $165 $277 forward 7 unknown #
face $-1 $278 $279 $38 $-1 $280 reversed single #
loop $-1 $-1 $281 $104 #
plane-surface $-1 -168.69017652545125 6.0484442513408894 68.465146694290084 0 -1 0 0.85716730853699208 0 -0.51503806187062418 forward_v I I I I #
coedge $-1 $282 $283 $284 $285 reversed $105 $-1 #
coedge $-1 $172 $107 $286 $287 reversed $67 $-1 #
coedge $-1 $107 $171 $282 $288 reversed $67 $-1 #
coedge $-1 $284 $289 $107 $174 forward $290 $-1 #
edge $-1 $291 22.19719556580494 $292 25.777308386623723 $173 $293 forward 7 unknown #
loop $-1 $-1 $180 $108 #
plane-surface $-1 -62.147892696920678 1.0101422005109413 4.4480862863590005 -0.85716730853699208 0 0.51503806187062418 0.51503806187062418 0 0.85716730853699208 forward_v I I I I #
loop $-1 $-1 $294 $69 #
coedge $-1 $178 $178 $179 $295 reversed $109 $-1 #
coedge $-1 $179 $179 $178 $295 forward $111 $-1 #
coedge $-1 $180 $180 $112 $181 forward $175 $-1 #
edge $-1 $296 0 $296 6.2831853071796004 $180 $297 forward 7 unknown #
loop $-1 $-1 $187 $113 #
plane-surface $-1 -62.147892696920678 1.0101422005109413 4.4480862863590005 -0.85716730853699208 0 0.51503806187062418 0.51503806187062418 0 0.85716730853699208 forward_v I I I I #
loop $-1 $-1 $298 $72 #
coedge $-1 $185 $185 $186 $299 reversed $114 $-1 #
coedge $-1 $186 $186 $185 $299 forward $116 $-1 #
coedge $-1 $187 $187 $117 $188 forward $182 $-1 #
edge $-1 $300 0 $300 6.2831853071796004 $187 $301 forward 7 unknown #
face $-1 $302 $303 $41 $-1 $304 forward single #
loop $-1 $-1 $305 $118 #
plane-surface $-1 0 0 10.406394803858181 0 0 1 1 0 0 forward_v I I I I #
coedge $-1 $306 $307 $308 $309 reversed $119 $-1 #
coedge $-1 $310 $121 $311 $312 reversed $76 $-1 #
coedge $-1 $121 $310 $305 $313 reversed $76 $-1 #
coedge $-1 $314 $315 $121 $196 forward $303 $-1 #
edge $-1 $316 -1.3556693106716273e-014 $317 6.9511616438904849 $195 $318 forward 7 unknown #
loop $-1 $-1 $202 $122 #
plane-surface $-1 -62.147892696920678 1.0101422005109413 4.4480862863590005 -0.85716730853699208 0 0.51503806187062418 0.51503806187062418 0 0.85716730853699208 forward_v I I I I #
loop $-1 $-1 $319 $78 #
coedge $-1 $200 $200 $201 $320 reversed $123 $-1 #
coedge $-1 $201 $201 $200 $320 forward $125 $-1 #
coedge $-1 $202 $202 $126 $203 forward $197 $-1 #
edge $-1 $321 0 $321 6.2831853071796004 $202 $322 forward 7 unknown #
loop $-1 $-1 $209 $127 #
plane-surface $-1 -62.147892696920678 1.0101422005109413 4.4480862863590005 -0.85716730853699208 0 0.51503806187062418 0.51503806187062418 0 0.85716730853699208 forward_v I I I I #
loop $-1 $-1 $323 $81 #
coedge $-1 $207 $207 $208 $324 reversed $128 $-1 #
coedge $-1 $208 $208 $207 $324 forward $130 $-1 #
coedge $-1 $209 $209 $131 $210 forward $204 $-1 #
edge $-1 $325 0 $325 6.2831853071796004 $209 $326 forward 7 unknown #
face $-1 $327 $328 $44 $-1 $329 reversed single #
loop $-1 $-1 $217 $132 #
plane-surface $-1 0 0 10.406394803858181 0 0 1 1 0 0 forward_v I I I I #
coedge $-1 $330 $331 $332 $333 reversed $133 $-1 #
coedge $-1 $334 $135 $335 $336 reversed $85 $-1 #
coedge $-1 $135 $334 $330 $337 forward $85 $-1 #
coedge $-1 $332 $338 $135 $218 forward $212 $-1 #
edge $-1 $339 -19.686569653704421 $340 -11.699024912723825 $217 $341 forward 7 unknown #
loop $-1 $-1 $224 $136 #
plane-surface $-1 -17.747896862998019 31.385594566428246 101.93422370205009 0.7660444514056185 0 0.64278759981090561 0.64278759981090561 0 -0.7660444514056185 forward_v I I I I #
loop $-1 $-1 $342 $87 #
coedge $-1 $222 $222 $223 $343 reversed $137 $-1 #
coedge $-1 $223 $223 $222 $343 forward $139 $-1 #
coedge $-1 $224 $224 $140 $225 forward $219 $-1 #
edge $-1 $344 0 $344 6.2831853071796004 $224 $345 forward 7 unknown #
loop $-1 $-1 $231 $141 #
plane-surface $-1 -17.747896862998019 31.385594566428246 101.93422370205009 0.7660444514056185 0 0.64278759981090561 0.64278759981090561 0 -0.7660444514056185 forward_v I I I I #
loop $-1 $-1 $346 $90 #
coedge $-1 $229 $229 $230 $347 reversed $142 $-1 #
coedge $-1 $230 $230 $229 $347 forward $144 $-1 #
coedge $-1 $231 $231 $145 $232 forward $226 $-1 #
edge $-1 $348 0 $348 6.2831853071796004 $231 $349 forward 7 unknown #
loop $-1 $-1 $238 $146 #
plane-surface $-1 -17.747896862998019 31.385594566428246 101.93422370205009 0.7660444514056185 0 0.64278759981090561 0.64278759981090561 0 -0.7660444514056185 forward_v I I I I #
loop $-1 $-1 $350 $93 #
coedge $-1 $236 $236 $237 $351 reversed $147 $-1 #
coedge $-1 $237 $237 $236 $351 forward $149 $-1 #
coedge $-1 $238 $238 $150 $239 forward $233 $-1 #
edge $-1 $352 0 $352 6.2831853071796004 $238 $353 forward 7 unknown #
face $-1 $354 $355 $36 $-1 $356 reversed single #
loop $-1 $-1 $357 $151 #
plane-surface $-1 -62.147892696920685 0 0 1 0 0 0 0 -1 forward_v I I I I #
coedge $-1 $358 $251 $359 $360 forward $152 $-1 #
coedge $-1 $361 $154 $358 $362 forward $97 $-1 #
coedge $-1 $154 $361 $363 $364 forward $97 $-1 #
coedge $-1 $254 $253 $154 $247 reversed $255 $-1 #
edge $-1 $365 -35.379366936918551 $366 35.379366936918551 $246 $367 forward 7 unknown #
coedge $-1 $156 $155 $368 $369 forward $61 $-1 #
coedge $-1 $370 $371 $155 $250 reversed $355 $-1 #
edge $-1 $257 -62.147892696920685 $372 62.147892696920685 $249 $373 forward 7 unknown #
coedge $-1 $243 $374 $156 $252 reversed $152 $-1 #
edge $-1 $375 -62.147892696920685 $256 62.147892696920685 $251 $376 forward 7 unknown #
coedge $-1 $246 $157 $374 $377 forward $255 $-1 #
coedge $-1 $157 $246 $370 $378 reversed $255 $-1 #
loop $-1 $-1 $253 $354 #
vertex $-1 $158 $379 #
vertex $-1 $158 $380 #
straight-curve $-1 62.147892696920685 0 10.406394803858181 0 1 0 I I #
face $-1 $381 $382 $37 $-1 $383 reversed single #
loop $-1 $-1 $384 $159 #
plane-surface $-1 -62.147892696920685 0 0 1 0 0 0 0 -1 forward_v I I I I #
coedge $-1 $385 $268 $273 $386 reversed $160 $-1 #
coedge $-1 $387 $162 $388 $389 reversed $101 $-1 #
coedge $-1 $162 $387 $385 $390 forward $101 $-1 #
coedge $-1 $273 $272 $162 $266 forward $274 $-1 #
edge $-1 $391 -20.71390559412972 $392 -8.6170170914479414 $265 $393 forward 7 unknown #
coedge $-1 $164 $163 $384 $394 reversed $64 $-1 #
coedge $-1 $262 $395 $163 $269 reversed $160 $-1 #
edge $-1 $275 -62.147892696920685 $396 62.147892696920685 $268 $397 forward 7 unknown #
coedge $-1 $398 $399 $164 $271 forward $382 $-1 #
edge $-1 $276 -62.147892696920685 $400 62.147892696920685 $270 $401 forward 7 unknown #
coedge $-1 $265 $165 $399 $402 forward $274 $-1 #
coedge $-1 $165 $265 $262 $386 forward $274 $-1 #
loop $-1 $-1 $165 $381 #
vertex $-1 $166 $403 #
vertex $-1 $402 $404 #
straight-curve $-1 62.147892696920685 -14.665461342788831 -0.84936502302991412 0 -1 0 I I #
face $-1 $-1 $290 $38 $-1 $405 forward single #
loop $-1 $-1 $406 $167 #
plane-surface $-1 -62.147892696920685 0 0 1 0 0 0 0 -1 forward_v I I I I #
coedge $-1 $407 $408 $409 $410 reversed $168 $-1 #
coedge $-1 $411 $170 $172 $288 forward $105 $-1 #
coedge $-1 $170 $411 $407 $412 forward $105 $-1 #
coedge $-1 $409 $173 $170 $285 forward $290 $-1 #
edge $-1 $292 -4.5332309505744774 $413 5.5433731510854187 $284 $414 forward 7 unknown #
coedge $-1 $415 $416 $171 $287 forward $279 $-1 #
edge $-1 $417 -29.784487060786052 $291 -23.826178543286861 $286 $418 forward 7 unknown #
edge $-1 $292 -6.9511616438904849 $417 1.3556693106716273e-014 $172 $419 forward 7 unknown #
coedge $-1 $173 $409 $415 $420 forward $290 $-1 #
loop $-1 $-1 $409 $278 #
vertex $-1 $287 $421 #
vertex $-1 $174 $422 #
straight-curve $-1 -84.345088262725625 -4.0281598503190068 10.406394803858181 1 0 0 I I #
coedge $-1 $294 $294 $-1 $423 reversed $177 $-1 #
edge $-1 $424 0 $424 6.2831853071796004 $178 $425 forward 7 unknown #
vertex $-1 $181 $426 #
ellipse-curve $-1 -60.357836286511294 -1.1491301069876059 7.4272405451085888 -0.85716730853699208 0 0.51503806187062418 0.51503806187062418 0 0.85716730853699208 1 I I #
coedge $-1 $298 $298 $-1 $427 reversed $184 $-1 #
edge $-1 $428 0 $428 6.2831853071796004 $185 $429 forward 7 unknown #
vertex $-1 $188 $430 #
ellipse-curve $-1 -60.357836286511294 3.1694145080094884 7.4272405451085888 -0.85716730853699208 0 0.51503806187062418 0.51503806187062418 0 0.85716730853699208 1 I I #
face $-1 $-1 $431 $41 $-1 $432 reversed single #
loop $-1 $-1 $314 $189 #
plane-surface $-1 -168.69017652545125 6.0484442513408894 68.465146694290084 0 -1 0 0.85716730853699208 0 -0.51503806187062418 forward_v I I I I #
coedge $-1 $308 $433 $194 $313 forward $190 $-1 #
coedge $-1 $307 $192 $310 $434 reversed $119 $-1 #
coedge $-1 $192 $306 $435 $436 reversed $119 $-1 #
coedge $-1 $437 $305 $192 $309 forward $190 $-1 #
edge $-1 $438 -25.777308386623723 $439 -22.19719556580494 $308 $440 forward 7 unknown #
coedge $-1 $194 $193 $306 $434 forward $76 $-1 #
coedge $-1 $441 $435 $193 $312 forward $431 $-1 #
edge $-1 $442 -15.619977252745315 $316 -5.5433731510854187 $311 $443 forward 7 unknown #
edge $-1 $317 5.5433731510854187 $438 15.619977252745315 $305 $444 forward 7 unknown #
coedge $-1 $315 $195 $433 $445 reversed $303 $-1 #
coedge $-1 $195 $314 $441 $446 reversed $303 $-1 #
vertex $-1 $312 $447 #
vertex $-1 $313 $448 #
straight-curve $-1 -62.147892696920678 6.0484442513408894 4.4480862863590005 0.51503806187062418 0 0.85716730853699208 I I #
coedge $-1 $319 $319 $-1 $449 reversed $199 $-1 #
edge $-1 $450 0 $450 6.2831853071796004 $200 $451 forward 7 unknown #
vertex $-1 $203 $452 #
ellipse-curve $-1 -60.357836286511294 8.9274739946722903 7.4272405451085888 -0.85716730853699208 0 0.51503806187062418 0.51503806187062418 0 0.85716730853699208 1 I I #
coedge $-1 $323 $323 $-1 $453 reversed $206 $-1 #
edge $-1 $454 0 $454 6.2831853071796004 $207 $455 forward 7 unknown #
vertex $-1 $210 $456 #
ellipse-curve $-1 -60.357836286511294 13.246018609669385 7.4272405451085888 -0.85716730853699208 0 0.51503806187062418 0.51503806187062418 0 0.85716730853699208 1 I I #
face $-1 $-1 $457 $44 $-1 $458 reversed single #
loop $-1 $-1 $459 $211 #
plane-surface $-1 62.147892696920685 0 0 -1 0 0 0 0 1 forward_v I I I I #
coedge $-1 $331 $214 $216 $337 reversed $133 $-1 #
coedge $-1 $214 $330 $460 $461 reversed $133 $-1 #
coedge $-1 $462 $217 $214 $333 forward $212 $-1 #
edge $-1 $340 20.318968661661728 $463 23.413792761391839 $332 $464 forward 7 unknown #
coedge $-1 $216 $215 $459 $465 reversed $85 $-1 #
coedge $-1 $466 $467 $215 $336 forward $457 $-1 #
edge $-1 $468 -79.548648143065094 $339 -74.73395647720136 $335 $469 forward 7 unknown #
edge $-1 $470 -124.29578539384138 $340 -119.48109372797767 $330 $471 forward 7 unknown #
coedge $-1 $217 $462 $466 $472 forward $212 $-1 #
vertex $-1 $336 $473 #
vertex $-1 $218 $474 #
straight-curve $-1 59.053068597190567 15.692797283214123 10.406394803858177 0 -1 0 I I #
coedge $-1 $342 $342 $-1 $475 reversed $221 $-1 #
edge $-1 $476 0 $476 6.2831853071796004 $222 $477 forward 7 unknown #
vertex $-1 $225 $478 #
ellipse-curve $-1 60.600480647055633 28.989331144134077 8.5622608859262801 0.7660444514056185 0 0.64278759981090561 0.3213937999054528 0 -0.38302222570280925 1 I I #
coedge $-1 $346 $346 $-1 $479 reversed $228 $-1 #
edge $-1 $480 0 $480 6.2831853071796004 $229 $481 forward 7 unknown #
vertex $-1 $232 $482 #
ellipse-curve $-1 60.600480647055633 31.38559456642826 8.5622608859262801 0.7660444514056185 0 0.64278759981090561 0.3213937999054528 0 -0.38302222570280925 1 I I #
coedge $-1 $350 $350 $-1 $483 reversed $235 $-1 #
edge $-1 $484 0 $484 6.2831853071796004 $236 $485 forward 7 unknown #
vertex $-1 $239 $486 #
ellipse-curve $-1 60.600480647055633 33.781857988722443 8.5622608859262801 0.7660444514056185 0 0.64278759981090561 0.3213937999054528 0 -0.38302222570280925 1 I I #
face $-1 $-1 $255 $36 $-1 $487 reversed single #
loop $-1 $-1 $370 $240 #
plane-surface $-1 0 35.379366936918551 0 0 -1 0 0 0 -1 forward_v I I I I #
coedge $-1 $488 $368 $371 $489 forward $241 $-1 #
coedge $-1 $374 $243 $244 $362 reversed $152 $-1 #
coedge $-1 $368 $488 $243 $360 reversed $241 $-1 #
edge $-1 $375 -10.406394803858181 $490 10.406394803858181 $359 $491 forward 7 unknown #
coedge $-1 $245 $244 $488 $492 forward $97 $-1 #
edge $-1 $366 -62.147892696920685 $490 62.147892696920685 $358 $493 forward 7 unknown #
coedge $-1 $371 $370 $245 $364 reversed $355 $-1 #
edge $-1 $494 -62.147892696920685 $365 62.147892696920685 $363 $495 forward 7 unknown #
vertex $-1 $247 $496 #
vertex $-1 $377 $497 #
straight-curve $-1 62.147892696920685 0 -10.406394803858181 0 -1 0 I I #
coedge $-1 $357 $359 $248 $369 reversed $241 $-1 #
edge $-1 $372 -35.379366936918551 $375 35.379366936918551 $368 $498 forward 7 unknown #
coedge $-1 $363 $249 $254 $378 forward $355 $-1 #
coedge $-1 $249 $363 $357 $489 reversed $355 $-1 #
vertex $-1 $250 $499 #
straight-curve $-1 0 35.379366936918551 10.406394803858181 -1 0 0 I I #
coedge $-1 $251 $358 $253 $377 reversed $152 $-1 #
vertex $-1 $369 $500 #
straight-curve $-1 0 -35.379366936918551 10.406394803858181 1 0 0 I I #
edge $-1 $256 -10.406394803858181 $366 10.406394803858181 $253 $501 forward 7 unknown #
edge $-1 $257 -10.406394803858181 $365 10.406394803858181 $254 $502 forward 7 unknown #
point $-1 62.147892696920685 -35.379366936918551 10.406394803858181 #
point $-1 62.147892696920685 35.379366936918551 10.406394803858181 #
face $-1 $-1 $274 $37 $-1 $503 reversed single #
loop $-1 $-1 $270 $259 #
plane-surface $-1 0 -35.379366936918551 0 0 1 0 0 0 1 forward_v I I I I #
coedge $-1 $504 $505 $267 $394 forward $260 $-1 #
coedge $-1 $395 $262 $264 $390 reversed $160 $-1 #
edge $-1 $392 -4.2132015683393362 $275 0.83815717409316948 $273 $506 forward 7 unknown #
coedge $-1 $264 $263 $507 $508 reversed $101 $-1 #
coedge $-1 $399 $398 $263 $389 forward $382 $-1 #
edge $-1 $509 -62.147892696920685 $391 62.147892696920685 $388 $510 forward 7 unknown #
edge $-1 $511 -62.147892696920685 $392 62.147892696920685 $385 $512 forward 7 unknown #
vertex $-1 $389 $513 #
vertex $-1 $266 $514 #
straight-curve $-1 62.147892696920685 -14.665461342788831 -5.9007237654624198 0 1 0 I I #
edge $-1 $400 -20.71390559412972 $396 -8.6170170914479414 $384 $515 forward 7 unknown #
coedge $-1 $268 $385 $504 $516 reversed $160 $-1 #
vertex $-1 $394 $517 #
straight-curve $-1 0 -23.282478434236772 -0.84936502302991412 -1 0 0 I I #
coedge $-1 $388 $270 $505 $518 forward $382 $-1 #
coedge $-1 $270 $388 $272 $402 reversed $382 $-1 #
vertex $-1 $518 $519 #
straight-curve $-1 0 -35.379366936918551 -0.84936502302991412 -1 0 0 I I #
edge $-1 $276 0.84936502302991412 $391 5.9007237654624198 $272 $520 forward 7 unknown #
point $-1 62.147892696920685 -23.282478434236772 -0.84936502302991412 #
point $-1 62.147892696920685 -35.379366936918551 -0.84936502302991412 #
plane-surface $-1 0 0 10.406394803858181 0 0 1 1 0 0 forward_v I I I I #
coedge $-1 $416 $415 $408 $521 forward $279 $-1 #
coedge $-1 $408 $281 $283 $412 reversed $168 $-1 #
coedge $-1 $281 $407 $406 $521 reversed $168 $-1 #
coedge $-1 $289 $284 $281 $410 forward $290 $-1 #
edge $-1 $413 -25.777308386623723 $522 -22.19719556580494 $409 $523 forward 7 unknown #
coedge $-1 $283 $282 $416 $524 reversed $105 $-1 #
edge $-1 $525 -1.3556693106716273e-014 $413 6.9511616438904849 $407 $526 forward 7 unknown #
vertex $-1 $285 $527 #
straight-curve $-1 -58.567779876101902 0.50507110025547064 10.406394803858181 0 1 0 I I #
coedge $-1 $406 $286 $289 $420 reversed $279 $-1 #
coedge $-1 $286 $406 $411 $524 forward $279 $-1 #
vertex $-1 $287 $528 #
straight-curve $-1 -62.147892696920685 -4.0281598503190068 34.232573347145042 0 0 1 I I #
straight-curve $-1 -62.147892696920678 -4.0281598503190068 4.4480862863590005 -0.51503806187062418 0 -0.85716730853699208 I I #
edge $-1 $522 -6.0484442513408894 $291 4.0281598503190068 $415 $529 forward 7 unknown #
point $-1 -62.147892696920685 -4.0281598503190068 10.406394803858181 #
point $-1 -58.567779876101902 -4.0281598503190068 10.406394803858181 #
edge $-1 $530 1 $530 0 $294 $-1 forward 7 unknown #
vertex $-1 $295 $531 #
ellipse-curve $-1 -58.485864711484368 -1.1491301069876059 6.3024465844938886 -0.85716730853699208 0 0.51503806187062418 0.51503806187062418 0 0.85716730853699208 1 I I #
point $-1 -59.842798224640667 -1.1491301069876059 8.284407853645579 #
edge $-1 $532 1 $532 0 $298 $-1 forward 7 unknown #
vertex $-1 $299 $533 #
ellipse-curve $-1 -58.485864711484368 3.1694145080094884 6.3024465844938886 -0.85716730853699208 0 0.51503806187062418 0.51503806187062418 0 0.85716730853699208 1 I I #
point $-1 -59.842798224640667 3.1694145080094884 8.284407853645579 #
loop $-1 $-1 $311 $302 #
plane-surface $-1 -62.147892696920685 0 0 1 0 0 0 0 -1 forward_v I I I I #
coedge $-1 $305 $437 $314 $445 forward $190 $-1 #
edge $-1 $442 -1.3556693106716273e-014 $438 6.9511616438904849 $306 $534 forward 7 unknown #
coedge $-1 $311 $535 $307 $436 forward $431 $-1 #
edge $-1 $439 23.826178543286861 $442 29.784487060786052 $435 $536 forward 7 unknown #
coedge $-1 $433 $308 $535 $537 forward $190 $-1 #
vertex $-1 $309 $538 #
vertex $-1 $537 $539 #
straight-curve $-1 -84.345088262725625 16.125048353000786 10.406394803858181 -1 0 0 I I #
coedge $-1 $535 $311 $315 $446 forward $431 $-1 #
vertex $-1 $436 $540 #
straight-curve $-1 -62.147892696920685 0.50507110025547064 4.4480862863589836 0 -1 0 I I #
straight-curve $-1 -58.567779876101902 0.50507110025547064 10.406394803858181 0 1 0 I I #
edge $-1 $541 22.19719556580494 $317 25.777308386623723 $433 $542 forward 7 unknown #
edge $-1 $316 -29.784487060786052 $541 -23.826178543286861 $441 $543 forward 7 unknown #
point $-1 -62.147892696920685 6.0484442513408894 4.4480862863589889 #
point $-1 -58.567779876101902 6.0484442513408894 10.406394803858181 #
edge $-1 $544 1 $544 0 $319 $-1 forward 7 unknown #
vertex $-1 $320 $545 #
ellipse-curve $-1 -58.485864711484368 8.9274739946722903 6.3024465844938886 -0.85716730853699208 0 0.51503806187062418 0.51503806187062418 0 0.85716730853699208 1 I I #
point $-1 -59.842798224640667 8.9274739946722903 8.284407853645579 #
edge $-1 $546 1 $546 0 $323 $-1 forward 7 unknown #
vertex $-1 $324 $547 #
ellipse-curve $-1 -58.485864711484368 13.246018609669385 6.3024465844938886 -0.85716730853699208 0 0.51503806187062418 0.51503806187062418 0 0.85716730853699208 1 I I #
point $-1 -59.842798224640667 13.246018609669385 8.284407853645579 #
loop $-1 $-1 $335 $327 #
plane-surface $-1 0 35.379366936918551 0 0 -1 0 0 0 -1 forward_v I I I I #
coedge $-1 $548 $460 $334 $465 forward $328 $-1 #
coedge $-1 $459 $549 $331 $461 forward $328 $-1 #
edge $-1 $463 80.508611827126231 $470 84.196879662990014 $460 $550 forward 7 unknown #
coedge $-1 $338 $332 $549 $551 forward $212 $-1 #
vertex $-1 $551 $552 #
straight-curve $-1 38.734099935528846 27.391822195937948 10.406394803858177 1 0 0 I I #
edge $-1 $470 11.699024912723825 $468 19.686569653704421 $459 $553 forward 7 unknown #
coedge $-1 $467 $335 $338 $472 reversed $457 $-1 #
coedge $-1 $335 $466 $548 $554 forward $457 $-1 #
vertex $-1 $336 $555 #
straight-curve $-1 11.015008088837629 35.379366936918551 67.655927494807258 -0.64278759981090572 0 0.76604445140561861 I I #
vertex $-1 $465 $556 #
straight-curve $-1 -17.747896862998019 27.391822195937948 101.93422370205009 -0.64278759981090561 0 0.7660444514056185 I I #
edge $-1 $557 -62.147892696920685 $339 -59.053068597190574 $466 $558 forward 7 unknown #
point $-1 59.053068597190574 35.379366936918544 10.406394803858177 #
point $-1 59.053068597190574 27.391822195937948 10.406394803858177 #
edge $-1 $559 1 $559 0 $342 $-1 forward 7 unknown #
vertex $-1 $343 $560 #
ellipse-curve $-1 59.476265352491971 28.989331144134077 7.6189322715915297 0.7660444514056185 0 0.64278759981090561 0.3213937999054528 0 -0.38302222570280925 1 I I #
point $-1 60.921874446961098 28.989331144134077 8.1792386602234757 #
edge $-1 $561 1 $561 0 $346 $-1 forward 7 unknown #
vertex $-1 $347 $562 #
ellipse-curve $-1 59.476265352491971 31.38559456642826 7.6189322715915297 0.7660444514056185 0 0.64278759981090561 0.3213937999054528 0 -0.38302222570280925 1 I I #
point $-1 60.921874446961098 31.38559456642826 8.1792386602234757 #
edge $-1 $563 1 $563 0 $350 $-1 forward 7 unknown #
vertex $-1 $351 $564 #
ellipse-curve $-1 59.476265352491971 33.781857988722443 7.6189322715915297 0.7660444514056185 0 0.64278759981090561 0.3213937999054528 0 -0.38302222570280925 1 I I #
point $-1 60.921874446961098 33.781857988722443 8.1792386602234757 #
plane-surface $-1 62.147892696920685 0 0 -1 0 0 0 0 1 forward_v I I I I #
coedge $-1 $359 $357 $361 $492 reversed $241 $-1 #
edge $-1 $372 -10.406394803858181 $494 10.406394803858181 $371 $565 forward 7 unknown #
vertex $-1 $492 $566 #
straight-curve $-1 -62.147892696920685 -35.379366936918551 0 0 0 -1 I I #
edge $-1 $490 -35.379366936918551 $494 35.379366936918551 $488 $567 forward 7 unknown #
straight-curve $-1 0 -35.379366936918551 -10.406394803858181 -1 0 0 I I #
vertex $-1 $364 $568 #
straight-curve $-1 0 35.379366936918551 -10.406394803858181 1 0 0 I I #
point $-1 62.147892696920685 35.379366936918551 -10.406394803858181 #
point $-1 62.147892696920685 -35.379366936918551 -10.406394803858181 #
straight-curve $-1 -62.147892696920685 0 10.406394803858181 0 -1 0 I I #
point $-1 -62.147892696920685 35.379366936918551 10.406394803858181 #
point $-1 -62.147892696920685 -35.379366936918551 10.406394803858181 #
straight-curve $-1 62.147892696920685 -35.379366936918551 0 0 0 -1 I I #
straight-curve $-1 62.147892696920685 35.379366936918551 0 0 0 -1 I I #
plane-surface $-1 62.147892696920685 0 0 -1 0 0 0 0 1 forward_v I I I I #
coedge $-1 $507 $384 $395 $516 forward $260 $-1 #
coedge $-1 $384 $507 $398 $518 reversed $260 $-1 #
straight-curve $-1 62.147892696920685 -23.282478434236772 -1.6875221971230836 0 0 1 I I #
coedge $-1 $505 $504 $387 $508 forward $260 $-1 #
edge $-1 $511 8.6170170914479414 $509 20.71390559412972 $507 $569 forward 7 unknown #
vertex $-1 $389 $570 #
straight-curve $-1 0 -35.379366936918551 -5.9007237654624198 1 0 0 I I #
vertex $-1 $508 $571 #
straight-curve $-1 0 -23.282478434236772 -5.9007237654624198 1 0 0 I I #
point $-1 62.147892696920685 -35.379366936918551 -5.9007237654624198 #
point $-1 62.147892696920685 -23.282478434236772 -5.9007237654624198 #
straight-curve $-1 -62.147892696920685 -14.665461342788831 -0.84936502302991412 0 1 0 I I #
edge $-1 $396 -0.83815717409316948 $511 4.2132015683393362 $504 $572 forward 7 unknown #
point $-1 -62.147892696920685 -23.282478434236772 -0.84936502302991412 #
edge $-1 $400 0.84936502302991412 $509 5.9007237654624198 $505 $573 forward 7 unknown #
point $-1 -62.147892696920685 -35.379366936918551 -0.84936502302991412 #
straight-curve $-1 62.147892696920685 -35.379366936918551 0 0 0 -1 I I #
edge $-1 $522 23.826178543286861 $525 29.784487060786052 $406 $574 forward 7 unknown #
vertex $-1 $420 $575 #
straight-curve $-1 -84.345088262725625 6.0484442513408894 10.406394803858181 -1 0 0 I I #
edge $-1 $525 -5.5433731510854187 $417 4.5332309505744774 $416 $576 forward 7 unknown #
vertex $-1 $524 $577 #
straight-curve $-1 -62.147892696920678 6.0484442513408894 4.4480862863590005 0.51503806187062418 0 0.85716730853699208 I I #
point $-1 -58.567779876101902 6.0484442513408894 10.406394803858181 #
point $-1 -62.147892696920685 -4.0281598503190068 4.4480862863589889 #
straight-curve $-1 -62.147892696920685 0 10.406394803858181 0 -1 0 I I #
vertex $-1 $423 $578 #
point $-1 -57.970826649613748 -1.1491301069876059 7.1596138930308806 #
vertex $-1 $427 $579 #
point $-1 -57.970826649613748 3.1694145080094884 7.1596138930308806 #
straight-curve $-1 -62.147892696920678 16.125048353000786 4.4480862863590005 0.51503806187062418 0 0.85716730853699208 I I #
coedge $-1 $435 $441 $437 $537 reversed $431 $-1 #
straight-curve $-1 -62.147892696920685 16.125048353000786 34.232573347145042 0 0 -1 I I #
edge $-1 $439 -16.125048353000786 $541 -6.0484442513408894 $535 $580 forward 7 unknown #
point $-1 -58.567779876101902 16.125048353000786 10.406394803858181 #
point $-1 -62.147892696920685 16.125048353000786 10.406394803858181 #
point $-1 -62.147892696920685 16.125048353000786 4.4480862863589889 #
vertex $-1 $446 $581 #
straight-curve $-1 -84.345088262725625 6.0484442513408894 10.406394803858181 1 0 0 I I #
straight-curve $-1 -62.147892696920685 6.0484442513408894 34.232573347145042 0 0 1 I I #
vertex $-1 $449 $582 #
point $-1 -57.970826649613748 8.9274739946722903 7.1596138930308806 #
vertex $-1 $453 $583 #
point $-1 -57.970826649613748 13.246018609669385 7.1596138930308806 #
coedge $-1 $549 $459 $467 $554 reversed $328 $-1 #
coedge $-1 $460 $548 $462 $551 reversed $328 $-1 #
straight-curve $-1 62.147892696920685 27.391822195937948 90.915006630984408 0 0 -1 I I #
edge $-1 $463 27.391822195937948 $557 35.379366936918551 $549 $584 forward 7 unknown #
point $-1 62.147892696920685 27.391822195937948 10.406394803858181 #
straight-curve $-1 62.147892696920692 15.692797283214123 6.7181269679943938 0 1 0 I I #
edge $-1 $557 -10.406394803858181 $468 -6.7181269679943938 $548 $585 forward 7 unknown #
point $-1 62.147892696920692 35.379366936918544 6.7181269679943938 #
point $-1 62.147892696920692 27.391822195937948 6.7181269679943938 #
vertex $-1 $551 $586 #
straight-curve $-1 0 35.379366936918551 10.406394803858181 -1 0 0 I I #
vertex $-1 $475 $587 #
point $-1 59.797659152397429 28.989331144134077 7.2359100458887209 #
vertex $-1 $479 $588 #
point $-1 59.797659152397429 31.38559456642826 7.2359100458887209 #
vertex $-1 $483 $589 #
point $-1 59.797659152397429 33.781857988722443 7.2359100458887209 #
straight-curve $-1 -62.147892696920685 35.379366936918551 0 0 0 -1 I I #
point $-1 -62.147892696920685 -35.379366936918551 -10.406394803858181 #
straight-curve $-1 -62.147892696920685 0 -10.406394803858181 0 1 0 I I #
point $-1 -62.147892696920685 35.379366936918551 -10.406394803858181 #
straight-curve $-1 -62.147892696920685 -14.665461342788831 -5.9007237654624198 0 -1 0 I I #
point $-1 -62.147892696920685 -35.379366936918551 -5.9007237654624198 #
point $-1 -62.147892696920685 -23.282478434236772 -5.9007237654624198 #
straight-curve $-1 -62.147892696920685 -23.282478434236772 -1.6875221971230836 0 0 -1 I I #
straight-curve $-1 -62.147892696920685 -35.379366936918551 0 0 0 -1 I I #
straight-curve $-1 -62.147892696920685 6.0484442513408894 34.232573347145042 0 0 -1 I I #
point $-1 -62.147892696920685 6.0484442513408894 10.406394803858181 #
straight-curve $-1 -62.147892696920685 0.50507110025547064 4.4480862863589836 0 -1 0 I I #
point $-1 -62.147892696920685 6.0484442513408894 4.4480862863589889 #
point $-1 -57.628697402947381 -1.1491301069876059 5.7874085226232639 #
point $-1 -57.628697402947381 3.1694145080094884 5.7874085226232639 #
straight-curve $-1 -62.147892696920685 0 10.406394803858181 0 -1 0 I I #
point $-1 -62.147892696920685 6.0484442513408894 10.406394803858181 #
point $-1 -57.628697402947381 8.9274739946722903 5.7874085226232639 #
point $-1 -57.628697402947381 13.246018609669385 5.7874085226232639 #
straight-curve $-1 62.147892696920685 0 10.406394803858181 0 1 0 I I #
straight-curve $-1 62.147892696920685 35.379366936918551 0 0 0 -1 I I #
point $-1 62.147892696920685 35.379366936918551 10.406394803858181 #
point $-1 59.093243126789169 28.989331144134077 7.2975384716860772 #
point $-1 59.093243126789169 31.38559456642826 7.2975384716860772 #
point $-1 59.093243126789169 33.781857988722443 7.2975384716860772 #
End-of-ACIS-data 