500 0 8 0           
7 Unknown 11 ACIS 5.0 NT 24 Fri Mar 26 00:00:00 1999 
-1 9.9999999999999995e-007 1e-010 
body $-1 $8 $-1 $9 #
body $-1 $10 $-1 $11 #
body $-1 $12 $-1 $13 #
body $-1 $14 $-1 $15 #
body $-1 $16 $-1 $17 #
body $-1 $18 $-1 $19 #
body $-1 $20 $-1 $21 #
body $-1 $22 $-1 $23 #
lump $-1 $-1 $24 $0 #
transform $-1 1 0 0 0 1 0 0 0 1 68.101443525498212 42.505260234912384 17.984082364719942 1 rotate no_reflect no_shear #
lump $-1 $-1 $25 $1 #
transform $-1 1 0 0 0 1 0 0 0 1 68.101443525498212 42.505260234912384 17.984082364719942 1 rotate no_reflect no_shear #
lump $-1 $-1 $26 $2 #
transform $-1 1 0 0 0 1 0 0 0 1 68.101443525498212 42.505260234912384 17.984082364719942 1 rotate no_reflect no_shear #
lump $-1 $-1 $27 $3 #
transform $-1 1 0 0 0 1 0 0 0 1 68.101443525498212 42.505260234912384 17.984082364719942 1 rotate no_reflect no_shear #
lump $-1 $-1 $28 $4 #
transform $-1 1 0 0 0 1 0 0 0 1 68.101443525498212 42.505260234912384 17.984082364719942 1 rotate no_reflect no_shear #
lump $-1 $-1 $29 $5 #
transform $-1 1 0 0 0 1 0 0 0 1 68.101443525498212 42.505260234912384 17.984082364719942 1 rotate no_reflect no_shear #
lump $-1 $-1 $30 $6 #
transform $-1 1 0 0 0 1 0 0 0 1 68.101443525498212 42.505260234912384 17.984082364719942 1 rotate no_reflect no_shear #
lump $-1 $-1 $31 $7 #
transform $-1 1 0 0 0 1 0 0 0 1 68.101443525498212 42.505260234912384 17.984082364719942 1 rotate no_reflect no_shear #
shell $-1 $-1 $-1 $32 $-1 $8 #
shell $-1 $-1 $-1 $33 $-1 $10 #
shell $-1 $-1 $-1 $34 $-1 $12 #
shell $-1 $-1 $-1 $35 $-1 $14 #
shell $-1 $-1 $-1 $36 $-1 $16 #
shell $-1 $-1 $-1 $37 $-1 $18 #
shell $-1 $-1 $-1 $38 $-1 $20 #
shell $-1 $-1 $-1 $39 $-1 $22 #
face $-1 $40 $41 $24 $-1 $42 forward single #
face $-1 $43 $44 $25 $-1 $45 reversed single #
face $-1 $46 $47 $26 $-1 $48 forward single #
face $-1 $49 $50 $27 $-1 $51 forward single #
face $-1 $52 $53 $28 $-1 $54 reversed single #
face $-1 $55 $56 $29 $-1 $57 forward single #
face $-1 $58 $59 $30 $-1 $60 forward single #
face $-1 $61 $62 $31 $-1 $63 forward single #
face $-1 $64 $65 $24 $-1 $66 reversed single #
loop $-1 $-1 $67 $32 #
plane-surface $-1 0 0 17.984082364719942 0 0 1 1 0 0 forward_v I I I I #
face $-1 $68 $69 $25 $-1 $70 reversed single #
loop $-1 $-1 $71 $33 #
plane-surface $-1 63.774213363480726 -148.35478497249193 88.195603795845543 -1 0 0 0 -0.77714596973225614 0.62932038083071107 forward_v I I I I #
face $-1 $72 $73 $26 $-1 $74 forward single #
loop $-1 $75 $76 $34 #
cone-surface $-1 36.922763306518021 -34.703189156862898 8.9975113218408787 0 0.77714596973225614 -0.62932038083071107 1.5 0 0 1 I I 0 1 1.5 forward I I I I #
face $-1 $77 $78 $27 $-1 $79 forward single #
loop $-1 $80 $81 $35 #
cone-surface $-1 53.033633340695644 -34.703189156862898 8.9975113218408787 0 0.77714596973225614 -0.62932038083071107 1.5 0 0 1 I I 0 1 1.5 forward I I I I #
face $-1 $82 $83 $28 $-1 $84 reversed single #
loop $-1 $-1 $85 $36 #
plane-surface $-1 49.937871775056017 53.788354288994682 166.22618610984892 1 0 0 0 -0.5877852598018023 -0.80901698891910034 forward_v I I I I #
face $-1 $86 $87 $29 $-1 $88 forward single #
loop $-1 $89 $90 $37 #
cone-surface $-1 53.570586125144459 33.88618392611663 11.450062291728869 0 -0.5877852598018023 -0.80901698891910034 0.5 0 0 1 I I 0 1 0.5 forward I I I I #
face $-1 $91 $92 $30 $-1 $93 forward single #
loop $-1 $94 $95 $38 #
cone-surface $-1 59.019657650277111 33.88618392611663 11.450062291728869 0 -0.5877852598018023 -0.80901698891910034 0.5 0 0 1 I I 0 1 0.5 forward I I I I #
face $-1 $96 $97 $31 $-1 $98 forward single #
loop $-1 $99 $100 $39 #
cone-surface $-1 64.468729175409777 33.88618392611663 11.450062291728869 0 -0.5877852598018023 -0.80901698891910034 0.5 0 0 1 I I 0 1 0.5 forward I I I I #
face $-1 $101 $102 $24 $-1 $103 reversed single #
loop $-1 $-1 $104 $40 #
plane-surface $-1 0 0 -17.984082364719942 0 0 1 1 0 0 forward_v I I I I #
coedge $-1 $105 $106 $107 $108 forward $41 $-1 #
face $-1 $109 $110 $25 $-1 $111 reversed single #
loop $-1 $-1 $112 $43 #
plane-surface $-1 44.978198323606833 -42.505260234912356 2.480351046670151 0 -0.77714596973225614 0.62932038083071107 1 0 0 forward_v I I I I #
coedge $-1 $113 $114 $115 $116 reversed $44 $-1 #
face $-1 $-1 $117 $26 $-1 $118 forward single #
loop $-1 $119 $120 $46 #
cone-surface $-1 36.922763306518021 -32.595595470888668 7.2908156523636762 0 0.77714596973225614 -0.62932038083071107 0.75 0 0 1 I I -0.70710678118654791 0.70710678118654702 0.75 forward I I I I #
loop $-1 $-1 $121 $34 #
coedge $-1 $76 $76 $122 $123 reversed $47 $-1 #
face $-1 $-1 $124 $27 $-1 $125 forward single #
loop $-1 $126 $127 $49 #
cone-surface $-1 53.033633340695644 -32.595595470888668 7.2908156523636762 0 0.77714596973225614 -0.62932038083071107 0.75 0 0 1 I I -0.70710678118654791 0.70710678118654702 0.75 forward I I I I #
loop $-1 $-1 $128 $35 #
coedge $-1 $81 $81 $129 $130 reversed $50 $-1 #
face $-1 $131 $132 $28 $-1 $133 forward single #
loop $-1 $-1 $134 $52 #
plane-surface $-1 59.019657650277111 -26.269695062030777 56.03573654576347 0 0.5877852598018023 0.80901698891910034 1 0 0 forward_v I I I I #
coedge $-1 $135 $136 $137 $138 reversed $53 $-1 #
face $-1 $-1 $139 $29 $-1 $140 forward single #
loop $-1 $141 $142 $55 #
cone-surface $-1 53.570586125144459 33.320835032588732 10.671926311107466 0 -0.5877852598018023 -0.80901698891910034 0.25 0 0 1 I I -0.70710678118654746 0.70710678118654746 0.25 forward I I I I #
loop $-1 $-1 $143 $37 #
coedge $-1 $90 $90 $144 $145 reversed $56 $-1 #
face $-1 $-1 $146 $30 $-1 $147 forward single #
loop $-1 $148 $149 $58 #
cone-surface $-1 59.019657650277111 33.320835032588732 10.671926311107466 0 -0.5877852598018023 -0.80901698891910034 0.25 0 0 1 I I -0.70710678118654746 0.70710678118654746 0.25 forward I I I I #
loop $-1 $-1 $150 $38 #
coedge $-1 $95 $95 $151 $152 reversed $59 $-1 #
face $-1 $-1 $153 $31 $-1 $154 forward single #
loop $-1 $155 $156 $61 #
cone-surface $-1 64.468729175409777 33.320835032588732 10.671926311107466 0 -0.5877852598018023 -0.80901698891910034 0.25 0 0 1 I I -0.70710678118654746 0.70710678118654746 0.25 forward I I I I #
loop $-1 $-1 $157 $39 #
coedge $-1 $100 $100 $158 $159 reversed $62 $-1 #
face $-1 $160 $161 $24 $-1 $162 reversed single #
loop $-1 $-1 $163 $64 #
plane-surface $-1 0 -42.505260234912384 0 0 1 0 0 0 1 forward_v I I I I #
coedge $-1 $164 $165 $166 $167 forward $65 $-1 #
coedge $-1 $168 $67 $169 $170 forward $41 $-1 #
coedge $-1 $67 $168 $171 $172 forward $41 $-1 #
coedge $-1 $173 $174 $67 $108 reversed $175 $-1 #
edge $-1 $176 -42.505260234912384 $177 42.505260234912384 $107 $178 forward 7 unknown #
face $-1 $179 $180 $25 $-1 $181 reversed single #
loop $-1 $-1 $182 $68 #
plane-surface $-1 26.18218328373294 -148.35478497249193 88.195603795845543 1 0 0 0 0.77714596973225614 -0.62932038083071107 forward_v I I I I #
coedge $-1 $183 $184 $185 $186 reversed $69 $-1 #
coedge $-1 $114 $71 $187 $188 reversed $44 $-1 #
coedge $-1 $71 $113 $183 $189 reversed $44 $-1 #
coedge $-1 $185 $190 $71 $116 forward $191 $-1 #
edge $-1 $192 31.672132251333579 $193 44.226805990082525 $115 $194 forward 7 unknown #
loop $-1 $-1 $122 $72 #
plane-surface $-1 44.978198323606833 -42.505260234912356 2.480351046670151 0 -0.77714596973225614 0.62932038083071107 1 0 0 forward_v I I I I #
loop $-1 $-1 $195 $46 #
coedge $-1 $120 $120 $121 $196 reversed $73 $-1 #
coedge $-1 $121 $121 $120 $196 forward $75 $-1 #
coedge $-1 $122 $122 $76 $123 forward $117 $-1 #
edge $-1 $197 2.6007655567405789e-016 $197 6.2831853071796004 $122 $198 forward 7 unknown #
loop $-1 $-1 $129 $77 #
plane-surface $-1 44.978198323606833 -42.505260234912356 2.480351046670151 0 -0.77714596973225614 0.62932038083071107 1 0 0 forward_v I I I I #
loop $-1 $-1 $199 $49 #
coedge $-1 $127 $127 $128 $200 reversed $78 $-1 #
coedge $-1 $128 $128 $127 $200 forward $80 $-1 #
coedge $-1 $129 $129 $81 $130 forward $124 $-1 #
edge $-1 $201 2.6007655567405789e-016 $201 6.2831853071796004 $129 $202 forward 7 unknown #
face $-1 $203 $204 $28 $-1 $205 reversed single #
loop $-1 $-1 $137 $82 #
plane-surface $-1 0 0 17.984082364719942 0 0 1 1 0 0 forward_v I I I I #
coedge $-1 $206 $207 $208 $209 reversed $83 $-1 #
coedge $-1 $136 $85 $210 $211 reversed $53 $-1 #
coedge $-1 $85 $135 $206 $212 reversed $53 $-1 #
coedge $-1 $208 $213 $85 $138 forward $132 $-1 #
edge $-1 $214 -15.611083090415043 $215 0.79026437002153216 $137 $216 forward 7 unknown #
loop $-1 $-1 $144 $86 #
plane-surface $-1 59.019657650277111 -26.269695062030777 56.03573654576347 0 0.5877852598018023 0.80901698891910034 1 0 0 forward_v I I I I #
loop $-1 $-1 $217 $55 #
coedge $-1 $142 $142 $143 $218 reversed $87 $-1 #
coedge $-1 $143 $143 $142 $218 forward $89 $-1 #
coedge $-1 $144 $144 $90 $145 forward $139 $-1 #
edge $-1 $219 -5.2552104172462053e-015 $219 6.2831853071795951 $144 $220 forward 7 unknown #
loop $-1 $-1 $151 $91 #
plane-surface $-1 59.019657650277111 -26.269695062030777 56.03573654576347 0 0.5877852598018023 0.80901698891910034 1 0 0 forward_v I I I I #
loop $-1 $-1 $221 $58 #
coedge $-1 $149 $149 $150 $222 reversed $92 $-1 #
coedge $-1 $150 $150 $149 $222 forward $94 $-1 #
coedge $-1 $151 $151 $95 $152 forward $146 $-1 #
edge $-1 $223 -5.2552104172462053e-015 $223 6.2831853071795951 $151 $224 forward 7 unknown #
loop $-1 $-1 $158 $96 #
plane-surface $-1 59.019657650277111 -26.269695062030777 56.03573654576347 0 0.5877852598018023 0.80901698891910034 1 0 0 forward_v I I I I #
loop $-1 $-1 $225 $61 #
coedge $-1 $156 $156 $157 $226 reversed $97 $-1 #
coedge $-1 $157 $157 $156 $226 forward $99 $-1 #
coedge $-1 $158 $158 $100 $159 forward $153 $-1 #
edge $-1 $227 -5.2552104172462053e-015 $227 6.2831853071795951 $158 $228 forward 7 unknown #
face $-1 $229 $230 $24 $-1 $231 reversed single #
loop $-1 $-1 $232 $101 #
plane-surface $-1 -68.101443525498212 0 0 1 0 0 0 0 -1 forward_v I I I I #
coedge $-1 $233 $171 $234 $235 forward $102 $-1 #
coedge $-1 $236 $104 $233 $237 forward $65 $-1 #
coedge $-1 $104 $236 $238 $239 forward $65 $-1 #
coedge $-1 $174 $173 $104 $167 reversed $175 $-1 #
edge $-1 $240 -42.505260234912384 $241 42.505260234912384 $166 $242 forward 7 unknown #
coedge $-1 $106 $105 $243 $244 forward $41 $-1 #
coedge $-1 $245 $246 $105 $170 reversed $230 $-1 #
edge $-1 $177 -68.101443525498212 $247 68.101443525498212 $169 $248 forward 7 unknown #
coedge $-1 $163 $249 $106 $172 reversed $102 $-1 #
edge $-1 $250 -68.101443525498212 $176 68.101443525498212 $171 $251 forward 7 unknown #
coedge $-1 $166 $107 $249 $252 forward $175 $-1 #
coedge $-1 $107 $166 $245 $253 reversed $175 $-1 #
loop $-1 $-1 $173 $229 #
vertex $-1 $108 $254 #
vertex $-1 $108 $255 #
straight-curve $-1 68.101443525498212 0 17.984082364719942 0 1 0 I I #
face $-1 $-1 $191 $25 $-1 $256 forward single #
loop $-1 $-1 $257 $109 #
plane-surface $-1 0 -42.505260234912384 0 0 1 0 0 0 1 forward_v I I I I #
coedge $-1 $258 $259 $260 $261 reversed $110 $-1 #
coedge $-1 $262 $112 $114 $189 forward $69 $-1 #
coedge $-1 $112 $262 $258 $263 forward $69 $-1 #
coedge $-1 $260 $115 $112 $186 forward $191 $-1 #
edge $-1 $193 -41.28511420167731 $264 -3.6930841219295232 $185 $265 forward 7 unknown #
coedge $-1 $266 $267 $113 $188 forward $180 $-1 #
edge $-1 $268 -41.617450851252656 $192 -26.113719533202829 $187 $269 forward 7 unknown #
edge $-1 $193 -19.949574368108951 $268 4.5151010033889764e-014 $114 $270 forward 7 unknown #
coedge $-1 $115 $260 $266 $271 forward $191 $-1 #
loop $-1 $-1 $260 $179 #
vertex $-1 $188 $272 #
vertex $-1 $116 $273 #
straight-curve $-1 63.774213363480726 -74.177392486245964 17.984082364719946 0 1 0 I I #
coedge $-1 $195 $195 $-1 $274 reversed $119 $-1 #
edge $-1 $275 0 $275 6.2831853071796004 $120 $276 forward 7 unknown #
vertex $-1 $123 $277 #
ellipse-curve $-1 36.922763306518021 -36.227923365537912 10.232216705695031 0 -0.77714596973225614 0.62932038083071107 1.5 0 0 1 I I #
coedge $-1 $199 $199 $-1 $278 reversed $126 $-1 #
edge $-1 $279 0 $279 6.2831853071796004 $127 $280 forward 7 unknown #
vertex $-1 $130 $281 #
ellipse-curve $-1 53.033633340695644 -36.227923365537912 10.232216705695031 0 -0.77714596973225614 0.62932038083071107 1.5 0 0 1 I I #
face $-1 $-1 $282 $28 $-1 $283 reversed single #
loop $-1 $-1 $210 $131 #
plane-surface $-1 0 42.505260234912384 0 0 -1 0 0 0 -1 forward_v I I I I #
coedge $-1 $284 $134 $136 $212 forward $83 $-1 #
coedge $-1 $134 $284 $285 $286 reversed $83 $-1 #
coedge $-1 $287 $137 $134 $209 forward $132 $-1 #
edge $-1 $215 20.428042949917462 $288 38.591614700359656 $208 $289 forward 7 unknown #
coedge $-1 $290 $291 $135 $211 forward $204 $-1 #
edge $-1 $292 -77.045287369403368 $214 -65.129010690204524 $210 $293 forward 7 unknown #
edge $-1 $215 64.737339949413368 $292 85.010520469824741 $136 $294 forward 7 unknown #
coedge $-1 $137 $287 $290 $295 forward $132 $-1 #
vertex $-1 $211 $296 #
vertex $-1 $138 $297 #
straight-curve $-1 49.937871775056017 26.894177144497341 17.984082364719939 0 -1 0 I I #
coedge $-1 $217 $217 $-1 $298 reversed $141 $-1 #
edge $-1 $299 0 $299 6.2831853071796004 $142 $300 forward 7 unknown #
vertex $-1 $145 $301 #
ellipse-curve $-1 53.570586125144459 34.304586504694093 12.025944025120523 0 0.5877852598018023 0.80901698891910034 0.5 0 0 1 I I #
coedge $-1 $221 $221 $-1 $302 reversed $148 $-1 #
edge $-1 $303 0 $303 6.2831853071796004 $149 $304 forward 7 unknown #
vertex $-1 $152 $305 #
ellipse-curve $-1 59.019657650277111 34.304586504694093 12.025944025120523 0 0.5877852598018023 0.80901698891910034 0.5 0 0 1 I I #
coedge $-1 $225 $225 $-1 $306 reversed $155 $-1 #
edge $-1 $307 0 $307 6.2831853071796004 $156 $308 forward 7 unknown #
vertex $-1 $159 $309 #
ellipse-curve $-1 64.468729175409777 34.304586504694093 12.025944025120523 0 0.5877852598018023 0.80901698891910034 0.5 0 0 1 I I #
face $-1 $-1 $175 $24 $-1 $310 reversed single #
loop $-1 $-1 $245 $160 #
plane-surface $-1 0 42.505260234912384 0 0 -1 0 0 0 -1 forward_v I I I I #
coedge $-1 $311 $243 $246 $312 forward $161 $-1 #
coedge $-1 $249 $163 $164 $237 reversed $102 $-1 #
coedge $-1 $243 $311 $163 $235 reversed $161 $-1 #
edge $-1 $250 -17.984082364719942 $313 17.984082364719942 $234 $314 forward 7 unknown #
coedge $-1 $165 $164 $311 $315 forward $65 $-1 #
edge $-1 $241 -68.101443525498212 $313 68.101443525498212 $233 $316 forward 7 unknown #
coedge $-1 $246 $245 $165 $239 reversed $230 $-1 #
edge $-1 $317 -68.101443525498212 $240 68.101443525498212 $238 $318 forward 7 unknown #
vertex $-1 $167 $319 #
vertex $-1 $252 $320 #
straight-curve $-1 68.101443525498212 0 -17.984082364719942 0 -1 0 I I #
coedge $-1 $232 $234 $168 $244 reversed $161 $-1 #
edge $-1 $247 -42.505260234912384 $250 42.505260234912384 $243 $321 forward 7 unknown #
coedge $-1 $238 $169 $174 $253 forward $230 $-1 #
coedge $-1 $169 $238 $232 $312 reversed $230 $-1 #
vertex $-1 $170 $322 #
straight-curve $-1 0 42.505260234912384 17.984082364719942 -1 0 0 I I #
coedge $-1 $171 $233 $173 $252 reversed $102 $-1 #
vertex $-1 $244 $323 #
straight-curve $-1 0 -42.505260234912384 17.984082364719942 1 0 0 I I #
edge $-1 $176 -17.984082364719942 $241 17.984082364719942 $173 $324 forward 7 unknown #
edge $-1 $177 -17.984082364719942 $240 17.984082364719942 $174 $325 forward 7 unknown #
point $-1 68.101443525498212 -42.505260234912384 17.984082364719942 #
point $-1 68.101443525498212 42.505260234912384 17.984082364719942 #
plane-surface $-1 0 0 17.984082364719942 0 0 1 1 0 0 forward_v I I I I #
coedge $-1 $267 $266 $259 $326 forward $180 $-1 #
coedge $-1 $259 $182 $184 $263 reversed $110 $-1 #
coedge $-1 $182 $258 $257 $326 reversed $110 $-1 #
coedge $-1 $190 $185 $182 $261 forward $191 $-1 #
edge $-1 $264 -44.226805990082525 $327 -31.672132251333579 $260 $328 forward 7 unknown #
coedge $-1 $184 $183 $267 $329 reversed $69 $-1 #
edge $-1 $330 -4.5151010033889764e-014 $264 19.949574368108951 $258 $331 forward 7 unknown #
vertex $-1 $186 $332 #
straight-curve $-1 22.489099161803416 -29.950586496163442 17.984082364719942 -1 0 0 I I #
coedge $-1 $257 $187 $190 $271 reversed $180 $-1 #
coedge $-1 $187 $257 $262 $329 forward $180 $-1 #
vertex $-1 $188 $333 #
straight-curve $-1 63.774213363480726 -42.505260234912384 44.097801897922771 0 0 1 I I #
straight-curve $-1 63.774213363480726 -42.505260234912356 2.480351046670151 0 -0.62932038083071107 -0.77714596973225614 I I #
edge $-1 $327 26.18218328373294 $192 63.774213363480726 $266 $334 forward 7 unknown #
point $-1 63.774213363480726 -42.505260234912384 17.984082364719942 #
point $-1 63.774213363480726 -29.950586496163439 17.984082364719946 #
edge $-1 $335 1 $335 0 $195 $-1 forward 7 unknown #
vertex $-1 $196 $336 #
ellipse-curve $-1 36.922763306518021 -33.178454948187863 7.7628059379867089 0 -0.77714596973225614 0.62932038083071107 1.5 0 0 1 I I #
point $-1 38.422763306518021 -36.227923365537933 10.232216705695048 #
edge $-1 $337 1 $337 0 $199 $-1 forward 7 unknown #
vertex $-1 $200 $338 #
ellipse-curve $-1 53.033633340695644 -33.178454948187863 7.7628059379867089 0 -0.77714596973225614 0.62932038083071107 1.5 0 0 1 I I #
point $-1 54.533633340695644 -36.227923365537933 10.232216705695048 #
loop $-1 $-1 $285 $203 #
plane-surface $-1 68.101443525498212 0 0 -1 0 0 0 0 1 forward_v I I I I #
coedge $-1 $207 $206 $291 $339 reversed $83 $-1 #
coedge $-1 $340 $341 $207 $286 forward $282 $-1 #
edge $-1 $288 37.642535168091349 $342 57.915715688502729 $285 $343 forward 7 unknown #
coedge $-1 $213 $208 $341 $344 forward $132 $-1 #
vertex $-1 $344 $345 #
straight-curve $-1 29.509828825138555 26.103912774475798 17.984082364719942 1 0 0 I I #
coedge $-1 $346 $210 $213 $295 reversed $204 $-1 #
coedge $-1 $210 $346 $284 $339 forward $204 $-1 #
vertex $-1 $211 $347 #
straight-curve $-1 49.937871775056017 42.505260234912384 83.113093054924462 0 0 1 I I #
straight-curve $-1 49.937871775056017 -26.269695062030777 56.03573654576347 0 0.80901698891910034 -0.5877852598018023 I I #
edge $-1 $348 -68.101443525498212 $214 -49.937871775056017 $290 $349 forward 7 unknown #
point $-1 49.937871775056017 42.505260234912384 17.984082364719942 #
point $-1 49.937871775056017 26.103912774475809 17.984082364719939 #
edge $-1 $350 1 $350 0 $217 $-1 forward 7 unknown #
vertex $-1 $218 $351 #
ellipse-curve $-1 53.570586125144459 33.46778134753918 10.87418055833724 0 0.5877852598018023 0.80901698891910034 0.5 0 0 1 I I #
point $-1 54.070586125144459 34.304586504694072 12.025944025120499 #
edge $-1 $352 1 $352 0 $221 $-1 forward 7 unknown #
vertex $-1 $222 $353 #
ellipse-curve $-1 59.019657650277111 33.46778134753918 10.87418055833724 0 0.5877852598018023 0.80901698891910034 0.5 0 0 1 I I #
point $-1 59.519657650277111 34.304586504694072 12.025944025120499 #
edge $-1 $354 1 $354 0 $225 $-1 forward 7 unknown #
vertex $-1 $226 $355 #
ellipse-curve $-1 64.468729175409777 33.46778134753918 10.87418055833724 0 0.5877852598018023 0.80901698891910034 0.5 0 0 1 I I #
point $-1 64.968729175409777 34.304586504694072 12.025944025120499 #
plane-surface $-1 68.101443525498212 0 0 -1 0 0 0 0 1 forward_v I I I I #
coedge $-1 $234 $232 $236 $315 reversed $161 $-1 #
edge $-1 $247 -17.984082364719942 $317 17.984082364719942 $246 $356 forward 7 unknown #
vertex $-1 $315 $357 #
straight-curve $-1 -68.101443525498212 -42.505260234912384 0 0 0 -1 I I #
edge $-1 $313 -42.505260234912384 $317 42.505260234912384 $311 $358 forward 7 unknown #
straight-curve $-1 0 -42.505260234912384 -17.984082364719942 -1 0 0 I I #
vertex $-1 $239 $359 #
straight-curve $-1 0 42.505260234912384 -17.984082364719942 1 0 0 I I #
point $-1 68.101443525498212 42.505260234912384 -17.984082364719942 #
point $-1 68.101443525498212 -42.505260234912384 -17.984082364719942 #
straight-curve $-1 -68.101443525498212 0 17.984082364719942 0 -1 0 I I #
point $-1 -68.101443525498212 42.505260234912384 17.984082364719942 #
point $-1 -68.101443525498212 -42.505260234912384 17.984082364719942 #
straight-curve $-1 68.101443525498212 -42.505260234912384 0 0 0 -1 I I #
straight-curve $-1 68.101443525498212 42.505260234912384 0 0 0 -1 I I #
edge $-1 $327 26.113719533202829 $330 41.617450851252656 $257 $360 forward 7 unknown #
vertex $-1 $271 $361 #
straight-curve $-1 26.18218328373294 -74.177392486245964 17.984082364719946 0 -1 0 I I #
edge $-1 $330 3.6930841219295232 $268 41.28511420167731 $267 $362 forward 7 unknown #
vertex $-1 $329 $363 #
straight-curve $-1 26.18218328373294 -42.505260234912356 2.480351046670151 0 0.62932038083071107 0.77714596973225614 I I #
point $-1 26.18218328373294 -29.950586496163439 17.984082364719946 #
point $-1 63.774213363480726 -42.505260234912384 2.480351046670116 #
straight-curve $-1 0 -42.505260234912384 17.984082364719942 1 0 0 I I #
vertex $-1 $274 $364 #
point $-1 38.422763306518021 -33.178454948187863 7.7628059379867089 #
vertex $-1 $278 $365 #
point $-1 54.533633340695644 -33.178454948187863 7.7628059379867089 #
edge $-1 $342 -38.591614700359656 $292 -20.428042949917462 $291 $366 forward 7 unknown #
coedge $-1 $341 $285 $346 $367 reversed $282 $-1 #
coedge $-1 $285 $340 $287 $344 reversed $282 $-1 #
vertex $-1 $286 $368 #
straight-curve $-1 68.101443525498212 -4.3495376824948 40.10980967809499 0 0.80901698891910034 -0.5877852598018023 I I #
edge $-1 $288 26.103912774475809 $348 42.505260234912384 $341 $369 forward 7 unknown #
point $-1 68.101443525498212 26.103912774475809 17.984082364719939 #
coedge $-1 $291 $290 $340 $367 forward $204 $-1 #
point $-1 49.937871775056017 42.505260234912384 6.067805685521094 #
vertex $-1 $344 $370 #
straight-curve $-1 0 42.505260234912384 17.984082364719942 -1 0 0 I I #
vertex $-1 $298 $371 #
point $-1 54.070586125144459 33.46778134753918 10.87418055833724 #
vertex $-1 $302 $372 #
point $-1 59.519657650277111 33.46778134753918 10.87418055833724 #
vertex $-1 $306 $373 #
point $-1 64.968729175409777 33.46778134753918 10.87418055833724 #
straight-curve $-1 -68.101443525498212 42.505260234912384 0 0 0 -1 I I #
point $-1 -68.101443525498212 -42.505260234912384 -17.984082364719942 #
straight-curve $-1 -68.101443525498212 0 -17.984082364719942 0 1 0 I I #
point $-1 -68.101443525498212 42.505260234912384 -17.984082364719942 #
straight-curve $-1 26.18218328373294 -42.505260234912384 44.097801897922771 0 0 -1 I I #
point $-1 26.18218328373294 -42.505260234912384 17.984082364719942 #
straight-curve $-1 22.489099161803416 -42.505260234912384 2.4803510466701191 1 0 0 I I #
point $-1 26.18218328373294 -42.505260234912384 2.480351046670116 #
point $-1 36.922763306518021 -32.012735993589473 6.8188253667406435 #
point $-1 53.033633340695644 -32.012735993589473 6.8188253667406435 #
straight-curve $-1 29.509828825138555 42.505260234912384 6.067805685521094 -1 0 0 I I #
edge $-1 $348 -17.984082364719942 $342 -6.067805685521094 $340 $374 forward 7 unknown #
point $-1 68.101443525498212 42.505260234912384 6.067805685521094 #
straight-curve $-1 68.101443525498212 0 17.984082364719942 0 1 0 I I #
point $-1 68.101443525498212 42.505260234912384 17.984082364719942 #
point $-1 53.570586125144459 33.173888717638285 10.469672063877692 #
point $-1 59.019657650277111 33.173888717638285 10.469672063877692 #
point $-1 64.468729175409777 33.173888717638285 10.469672063877692 #
straight-curve $-1 68.101443525498212 42.505260234912384 0 0 0 -1 I I #
End-of-ACIS-data 