500 0 10 0           
7 Unknown 11 ACIS 5.0 NT 24 Thu Mar 25 19:41:53 1999 
-1 9.9999999999999995e-007 1e-010 
body $-1 $10 $-1 $11 #
body $-1 $12 $-1 $13 #
body $-1 $14 $-1 $15 #
body $-1 $16 $-1 $17 #
body $-1 $18 $-1 $19 #
body $-1 $20 $-1 $21 #
body $-1 $22 $-1 $23 #
body $-1 $24 $-1 $25 #
body $-1 $26 $-1 $27 #
body $-1 $28 $-1 $29 #
lump $-1 $-1 $30 $0 #
transform $-1 1 0 0 0 1 0 0 0 1 56.975615710928679 29.608645340960866 7.452537688820299 1 rotate no_reflect no_shear #
lump $-1 $-1 $31 $1 #
transform $-1 1 0 0 0 1 0 0 0 1 56.975615710928679 29.608645340960866 7.452537688820299 1 rotate no_reflect no_shear #
lump $-1 $-1 $32 $2 #
transform $-1 1 0 0 0 1 0 0 0 1 56.975615710928679 29.608645340960866 7.452537688820299 1 rotate no_reflect no_shear #
lump $-1 $-1 $33 $3 #
transform $-1 1 0 0 0 1 0 0 0 1 56.975615710928679 29.608645340960866 7.452537688820299 1 rotate no_reflect no_shear #
lump $-1 $-1 $34 $4 #
transform $-1 1 0 0 0 1 0 0 0 1 56.975615710928679 29.608645340960866 7.452537688820299 1 rotate no_reflect no_shear #
lump $-1 $-1 $35 $5 #
transform $-1 1 0 0 0 1 0 0 0 1 56.975615710928679 29.608645340960866 7.452537688820299 1 rotate no_reflect no_shear #
lump $-1 $-1 $36 $6 #
transform $-1 1 0 0 0 1 0 0 0 1 56.975615710928679 29.608645340960866 7.452537688820299 1 rotate no_reflect no_shear #
lump $-1 $-1 $37 $7 #
transform $-1 1 0 0 0 1 0 0 0 1 56.975615710928679 29.608645340960866 7.452537688820299 1 rotate no_reflect no_shear #
lump $-1 $-1 $38 $8 #
transform $-1 1 0 0 0 1 0 0 0 1 56.975615710928679 29.608645340960866 7.452537688820299 1 rotate no_reflect no_shear #
lump $-1 $-1 $39 $9 #
transform $-1 1 0 0 0 1 0 0 0 1 56.975615710928679 29.608645340960866 7.452537688820299 1 rotate no_reflect no_shear #
shell $-1 $-1 $-1 $40 $-1 $10 #
shell $-1 $-1 $-1 $41 $-1 $12 #
shell $-1 $-1 $-1 $42 $-1 $14 #
shell $-1 $-1 $-1 $43 $-1 $16 #
shell $-1 $-1 $-1 $44 $-1 $18 #
shell $-1 $-1 $-1 $45 $-1 $20 #
shell $-1 $-1 $-1 $46 $-1 $22 #
shell $-1 $-1 $-1 $47 $-1 $24 #
shell $-1 $-1 $-1 $48 $-1 $26 #
shell $-1 $-1 $-1 $49 $-1 $28 #
face $-1 $50 $51 $30 $-1 $52 forward single #
face $-1 $53 $54 $31 $-1 $55 reversed single #
face $-1 $56 $57 $32 $-1 $58 reversed single #
face $-1 $59 $60 $33 $-1 $61 reversed single #
face $-1 $62 $63 $34 $-1 $64 forward single #
face $-1 $65 $66 $35 $-1 $67 forward single #
face $-1 $68 $69 $36 $-1 $70 reversed single #
face $-1 $71 $72 $37 $-1 $73 forward single #
face $-1 $74 $75 $38 $-1 $76 forward single #
face $-1 $77 $78 $39 $-1 $79 forward single #
face $-1 $80 $81 $30 $-1 $82 reversed single #
loop $-1 $-1 $83 $40 #
plane-surface $-1 0 0 7.452537688820299 0 0 1 1 0 0 forward_v I I I I #
face $-1 $84 $85 $31 $-1 $86 reversed single #
loop $-1 $-1 $87 $41 #
plane-surface $-1 -54.342375113662875 -21.574075854405748 0 0 1 0 0 0 1 forward_v I I I I #
face $-1 $88 $89 $32 $-1 $90 reversed single #
loop $-1 $-1 $91 $42 #
plane-surface $-1 54.342375113662882 -21.574075854405748 0 0 1 0 0 0 1 forward_v I I I I #
face $-1 $92 $93 $33 $-1 $94 reversed single #
loop $-1 $-1 $95 $43 #
plane-surface $-1 -37.801465138882875 -88.297868986809988 98.590996739637134 -1 0 0 0 -0.51503808176128008 0.85716729658548041 forward_v I I I I #
face $-1 $96 $97 $34 $-1 $98 forward single #
loop $-1 $99 $100 $44 #
cone-surface $-1 -47.735514694250163 -23.610135680869664 3.25384971361719 0 0.51503808176128008 -0.85716729658548041 1.5 0 0 1 I I 0 1 1.5 forward I I I I #
face $-1 $101 $102 $35 $-1 $103 forward single #
loop $-1 $104 $105 $45 #
cone-surface $-1 -41.775084961029791 -23.610135680869664 3.25384971361719 0 0.51503808176128008 -0.85716729658548041 1.5 0 0 1 I I 0 1 1.5 forward I I I I #
face $-1 $106 $107 $36 $-1 $108 reversed single #
loop $-1 $-1 $109 $46 #
plane-surface $-1 22.690347597600137 55.300001823318382 129.00146159467448 1 0 0 0 -0.62932039886446345 -0.77714595512881146 forward_v I I I I #
face $-1 $110 $111 $37 $-1 $112 forward single #
loop $-1 $113 $114 $47 #
cone-surface $-1 28.494104981359527 25.715352504255108 3.7667061056450439 0 -0.62932039886446345 -0.77714595512881146 1 0 0 1 I I 0 1 1 forward I I I I #
face $-1 $115 $116 $38 $-1 $117 forward single #
loop $-1 $118 $119 $48 #
cone-surface $-1 37.199741056998604 25.715352504255108 3.7667061056450439 0 -0.62932039886446345 -0.77714595512881146 1 0 0 1 I I 0 1 1 forward I I I I #
face $-1 $120 $121 $39 $-1 $122 forward single #
loop $-1 $123 $124 $49 #
cone-surface $-1 45.905377132637682 25.715352504255108 3.7667061056450439 0 -0.62932039886446345 -0.77714595512881146 1 0 0 1 I I 0 1 1 forward I I I I #
face $-1 $125 $126 $30 $-1 $127 reversed single #
loop $-1 $-1 $128 $50 #
plane-surface $-1 0 0 -7.452537688820299 0 0 1 1 0 0 forward_v I I I I #
coedge $-1 $129 $130 $131 $132 forward $51 $-1 #
face $-1 $133 $134 $31 $-1 $135 reversed single #
loop $-1 $-1 $136 $53 #
plane-surface $-1 -54.342375113662875 -17.431795880303497 0 0 -1 0 0 0 -1 forward_v I I I I #
coedge $-1 $137 $138 $139 $140 reversed $54 $-1 #
face $-1 $141 $142 $32 $-1 $143 reversed single #
loop $-1 $-1 $144 $56 #
plane-surface $-1 51.709134516397079 -19.502935867354623 0 1 0 0 0 0 -1 forward_v I I I I #
coedge $-1 $145 $146 $147 $148 forward $57 $-1 #
face $-1 $149 $150 $33 $-1 $151 reversed single #
loop $-1 $-1 $152 $59 #
plane-surface $-1 -44.755299827639973 -29.608645340960869 0.91572775917721572 0 -0.51503808176128008 0.85716729658548041 1 0 0 forward_v I I I I #
coedge $-1 $153 $154 $155 $156 reversed $60 $-1 #
face $-1 $-1 $157 $34 $-1 $158 forward single #
loop $-1 $159 $160 $62 #
cone-surface $-1 -47.735514694250163 -22.664886683939869 1.6806912307965112 0 0.51503808176128008 -0.85716729658548041 0.75 0 0 1 I I -0.70710678118654757 0.70710678118654757 0.75 forward I I I I #
loop $-1 $-1 $161 $44 #
coedge $-1 $100 $100 $162 $163 reversed $63 $-1 #
face $-1 $-1 $164 $35 $-1 $165 forward single #
loop $-1 $166 $167 $65 #
cone-surface $-1 -41.775084961029791 -22.664886683939869 1.6806912307965112 0 0.51503808176128008 -0.85716729658548041 0.75 0 0 1 I I -0.70710678118654757 0.70710678118654757 0.75 forward I I I I #
loop $-1 $-1 $168 $45 #
coedge $-1 $105 $105 $169 $170 reversed $66 $-1 #
face $-1 $171 $172 $36 $-1 $173 reversed single #
loop $-1 $-1 $174 $68 #
plane-surface $-1 37.199741056998604 -16.411832586181674 40.444723013230913 0 0.62932039886446345 0.77714595512881146 1 0 0 forward_v I I I I #
coedge $-1 $175 $176 $177 $178 reversed $69 $-1 #
face $-1 $-1 $179 $37 $-1 $180 forward single #
loop $-1 $181 $182 $71 #
cone-surface $-1 28.494104981359527 24.146660928027433 1.829533378510015 0 -0.62932039886446345 -0.77714595512881146 0.5 0 0 1 I I -0.70710678118654746 0.70710678118654746 0.5 forward I I I I #
loop $-1 $-1 $183 $47 #
coedge $-1 $114 $114 $184 $185 reversed $72 $-1 #
face $-1 $-1 $186 $38 $-1 $187 forward single #
loop $-1 $188 $189 $74 #
cone-surface $-1 37.199741056998604 24.146660928027433 1.829533378510015 0 -0.62932039886446345 -0.77714595512881146 0.5 0 0 1 I I -0.70710678118654746 0.70710678118654746 0.5 forward I I I I #
loop $-1 $-1 $190 $48 #
coedge $-1 $119 $119 $191 $192 reversed $75 $-1 #
face $-1 $-1 $193 $39 $-1 $194 forward single #
loop $-1 $195 $196 $77 #
cone-surface $-1 45.905377132637682 24.146660928027433 1.829533378510015 0 -0.62932039886446345 -0.77714595512881146 0.5 0 0 1 I I -0.70710678118654746 0.70710678118654746 0.5 forward I I I I #
loop $-1 $-1 $197 $49 #
coedge $-1 $124 $124 $198 $199 reversed $78 $-1 #
face $-1 $200 $201 $30 $-1 $202 reversed single #
loop $-1 $-1 $203 $80 #
plane-surface $-1 0 -29.608645340960866 0 0 1 0 0 0 1 forward_v I I I I #
coedge $-1 $204 $205 $206 $207 forward $81 $-1 #
coedge $-1 $208 $83 $209 $210 forward $51 $-1 #
coedge $-1 $83 $208 $211 $212 forward $51 $-1 #
coedge $-1 $213 $214 $83 $132 reversed $215 $-1 #
edge $-1 $216 -29.608645340960866 $217 29.608645340960866 $131 $218 forward 7 unknown #
face $-1 $219 $220 $31 $-1 $221 reversed single #
loop $-1 $-1 $222 $84 #
plane-surface $-1 -51.709134516397071 -19.502935867354623 0 -1 0 0 0 0 1 forward_v I I I I #
coedge $-1 $223 $224 $225 $226 forward $85 $-1 #
coedge $-1 $227 $87 $228 $229 reversed $54 $-1 #
coedge $-1 $87 $227 $230 $231 reversed $54 $-1 #
coedge $-1 $232 $233 $87 $140 forward $234 $-1 #
edge $-1 $235 -7.452537688820299 $236 7.452537688820299 $139 $237 forward 7 unknown #
face $-1 $238 $239 $32 $-1 $240 reversed single #
loop $-1 $-1 $241 $88 #
plane-surface $-1 54.342375113662882 -17.431795880303497 0 0 -1 0 0 0 -1 forward_v I I I I #
coedge $-1 $242 $243 $244 $245 forward $89 $-1 #
coedge $-1 $246 $91 $247 $248 reversed $57 $-1 #
coedge $-1 $91 $246 $249 $250 reversed $57 $-1 #
coedge $-1 $243 $242 $91 $148 reversed $89 $-1 #
edge $-1 $251 -7.452537688820299 $252 7.452537688820299 $147 $253 forward 7 unknown #
face $-1 $254 $255 $33 $-1 $256 forward single #
loop $-1 $-1 $257 $92 #
plane-surface $-1 0 -29.608645340960866 0 0 1 0 0 0 1 forward_v I I I I #
coedge $-1 $258 $259 $260 $261 reversed $93 $-1 #
coedge $-1 $154 $95 $262 $263 reversed $60 $-1 #
coedge $-1 $95 $153 $258 $264 reversed $60 $-1 #
coedge $-1 $260 $265 $95 $156 forward $255 $-1 #
edge $-1 $266 14.540289152444128 $267 25.419367601408872 $155 $268 forward 7 unknown #
loop $-1 $-1 $162 $96 #
plane-surface $-1 -44.755299827639973 -29.608645340960869 0.91572775917721572 0 -0.51503808176128008 0.85716729658548041 1 0 0 forward_v I I I I #
loop $-1 $-1 $269 $62 #
coedge $-1 $160 $160 $161 $270 reversed $97 $-1 #
coedge $-1 $161 $161 $160 $270 forward $99 $-1 #
coedge $-1 $162 $162 $100 $163 forward $157 $-1 #
edge $-1 $271 9.1489141908823526e-016 $271 6.2831853071796013 $162 $272 forward 7 unknown #
loop $-1 $-1 $169 $101 #
plane-surface $-1 -44.755299827639973 -29.608645340960869 0.91572775917721572 0 -0.51503808176128008 0.85716729658548041 1 0 0 forward_v I I I I #
loop $-1 $-1 $273 $65 #
coedge $-1 $167 $167 $168 $274 reversed $102 $-1 #
coedge $-1 $168 $168 $167 $274 forward $104 $-1 #
coedge $-1 $169 $169 $105 $170 forward $164 $-1 #
edge $-1 $275 9.1489141908823526e-016 $275 6.2831853071796013 $169 $276 forward 7 unknown #
face $-1 $277 $278 $36 $-1 $279 reversed single #
loop $-1 $-1 $280 $106 #
plane-surface $-1 51.709134516397071 55.300001823318382 129.00146159467448 -1 0 0 0 0.62932039886446345 0.77714595512881146 forward_v I I I I #
coedge $-1 $281 $282 $283 $284 reversed $107 $-1 #
coedge $-1 $176 $109 $285 $286 reversed $69 $-1 #
coedge $-1 $109 $175 $281 $287 reversed $69 $-1 #
coedge $-1 $283 $288 $109 $178 forward $289 $-1 #
edge $-1 $290 -1.9586444293016747 $291 3.3198784905189669 $177 $292 forward 7 unknown #
loop $-1 $-1 $184 $110 #
plane-surface $-1 37.199741056998604 -16.411832586181674 40.444723013230913 0 0.62932039886446345 0.77714595512881146 1 0 0 forward_v I I I I #
loop $-1 $-1 $293 $71 #
coedge $-1 $182 $182 $183 $294 reversed $111 $-1 #
coedge $-1 $183 $183 $182 $294 forward $113 $-1 #
coedge $-1 $184 $184 $114 $185 forward $179 $-1 #
edge $-1 $295 0 $295 6.2831853071796004 $184 $296 forward 7 unknown #
loop $-1 $-1 $191 $115 #
plane-surface $-1 37.199741056998604 -16.411832586181674 40.444723013230913 0 0.62932039886446345 0.77714595512881146 1 0 0 forward_v I I I I #
loop $-1 $-1 $297 $74 #
coedge $-1 $189 $189 $190 $298 reversed $116 $-1 #
coedge $-1 $190 $190 $189 $298 forward $118 $-1 #
coedge $-1 $191 $191 $119 $192 forward $186 $-1 #
edge $-1 $299 0 $299 6.2831853071796004 $191 $300 forward 7 unknown #
loop $-1 $-1 $198 $120 #
plane-surface $-1 37.199741056998604 -16.411832586181674 40.444723013230913 0 0.62932039886446345 0.77714595512881146 1 0 0 forward_v I I I I #
loop $-1 $-1 $301 $77 #
coedge $-1 $196 $196 $197 $302 reversed $121 $-1 #
coedge $-1 $197 $197 $196 $302 forward $123 $-1 #
coedge $-1 $198 $198 $124 $199 forward $193 $-1 #
edge $-1 $303 0 $303 6.2831853071796004 $198 $304 forward 7 unknown #
face $-1 $305 $306 $30 $-1 $307 reversed single #
loop $-1 $-1 $308 $125 #
plane-surface $-1 -56.975615710928679 0 0 1 0 0 0 0 -1 forward_v I I I I #
coedge $-1 $309 $211 $310 $311 forward $126 $-1 #
coedge $-1 $312 $128 $309 $313 forward $81 $-1 #
coedge $-1 $128 $312 $314 $315 forward $81 $-1 #
coedge $-1 $214 $213 $128 $207 reversed $215 $-1 #
edge $-1 $316 -29.608645340960866 $317 29.608645340960866 $206 $318 forward 7 unknown #
coedge $-1 $130 $129 $319 $320 forward $51 $-1 #
coedge $-1 $321 $322 $129 $210 reversed $306 $-1 #
edge $-1 $217 -56.975615710928679 $323 56.975615710928679 $209 $324 forward 7 unknown #
coedge $-1 $203 $325 $130 $212 reversed $126 $-1 #
edge $-1 $326 -56.975615710928679 $216 56.975615710928679 $211 $327 forward 7 unknown #
coedge $-1 $206 $131 $325 $328 forward $215 $-1 #
coedge $-1 $131 $206 $321 $329 reversed $215 $-1 #
loop $-1 $-1 $213 $305 #
vertex $-1 $132 $330 #
vertex $-1 $132 $331 #
straight-curve $-1 56.975615710928679 0 7.452537688820299 0 1 0 I I #
face $-1 $332 $333 $31 $-1 $334 forward single #
loop $-1 $-1 $335 $133 #
plane-surface $-1 0 0 -7.452537688820299 0 0 1 1 0 0 forward_v I I I I #
coedge $-1 $336 $337 $227 $338 forward $134 $-1 #
coedge $-1 $339 $136 $335 $340 reversed $85 $-1 #
coedge $-1 $136 $339 $341 $342 reversed $85 $-1 #
coedge $-1 $337 $336 $136 $226 reversed $134 $-1 #
edge $-1 $343 -7.452537688820299 $344 7.452537688820299 $225 $345 forward 7 unknown #
coedge $-1 $138 $137 $222 $338 reversed $54 $-1 #
coedge $-1 $346 $347 $137 $229 forward $220 $-1 #
edge $-1 $348 24.537946959565634 $235 29.804428154097241 $228 $349 forward 7 unknown #
coedge $-1 $350 $351 $138 $231 forward $333 $-1 #
edge $-1 $236 -29.804428154097241 $352 -24.537946959565634 $230 $353 forward 7 unknown #
coedge $-1 $354 $139 $351 $355 reversed $234 $-1 #
coedge $-1 $139 $354 $346 $356 reversed $234 $-1 #
loop $-1 $-1 $354 $332 #
vertex $-1 $356 $357 #
vertex $-1 $140 $358 #
straight-curve $-1 -56.975615710928679 -21.574075854405748 0 0 0 1 I I #
face $-1 $359 $360 $32 $-1 $361 forward single #
loop $-1 $-1 $247 $141 #
plane-surface $-1 0 0 -7.452537688820299 0 0 1 1 0 0 forward_v I I I I #
coedge $-1 $362 $363 $364 $365 reversed $142 $-1 #
coedge $-1 $147 $144 $366 $367 reversed $89 $-1 #
coedge $-1 $144 $147 $368 $369 reversed $89 $-1 #
coedge $-1 $363 $362 $144 $245 reversed $142 $-1 #
edge $-1 $370 -7.452537688820299 $371 7.452537688820299 $244 $372 forward 7 unknown #
coedge $-1 $146 $145 $373 $374 reversed $57 $-1 #
coedge $-1 $366 $375 $145 $248 forward $239 $-1 #
edge $-1 $376 -29.804428154097245 $252 -24.537946959565637 $247 $377 forward 7 unknown #
coedge $-1 $378 $368 $146 $250 forward $360 $-1 #
edge $-1 $251 24.537946959565637 $379 29.804428154097245 $249 $380 forward 7 unknown #
vertex $-1 $250 $381 #
vertex $-1 $248 $382 #
straight-curve $-1 51.709134516397079 -21.574075854405748 0 0 0 -1 I I #
face $-1 $-1 $383 $33 $-1 $384 forward single #
loop $-1 $-1 $385 $149 #
plane-surface $-1 0 0 7.452537688820299 0 0 1 1 0 0 forward_v I I I I #
coedge $-1 $386 $387 $388 $389 forward $150 $-1 #
coedge $-1 $390 $152 $154 $264 forward $93 $-1 #
coedge $-1 $152 $390 $391 $392 reversed $93 $-1 #
coedge $-1 $385 $155 $152 $261 forward $255 $-1 #
edge $-1 $267 15.423815225062889 $393 29.331484602577085 $260 $394 forward 7 unknown #
coedge $-1 $387 $386 $153 $263 forward $150 $-1 #
edge $-1 $395 -48.379770610641351 $266 -41.842960680998267 $262 $396 forward 7 unknown #
edge $-1 $267 -12.691896310441935 $395 -4.1317035397669616e-015 $154 $397 forward 7 unknown #
coedge $-1 $155 $385 $387 $398 forward $255 $-1 #
vertex $-1 $156 $399 #
vertex $-1 $156 $400 #
straight-curve $-1 -37.801465138882875 -44.148934493404994 7.4525376888202999 0 1 0 I I #
coedge $-1 $269 $269 $-1 $401 reversed $159 $-1 #
edge $-1 $402 0 $402 6.2831853071796004 $160 $403 forward 7 unknown #
vertex $-1 $163 $404 #
ellipse-curve $-1 -47.735514694250163 -24.169106116478495 4.184132723998756 0 -0.51503808176128008 0.85716729658548041 1.5 0 0 1 I I #
coedge $-1 $273 $273 $-1 $405 reversed $166 $-1 #
edge $-1 $406 0 $406 6.2831853071796004 $167 $407 forward 7 unknown #
vertex $-1 $170 $408 #
ellipse-curve $-1 -41.775084961029791 -24.169106116478495 4.184132723998756 0 -0.51503808176128008 0.85716729658548041 1.5 0 0 1 I I #
face $-1 $-1 $289 $36 $-1 $409 forward single #
loop $-1 $-1 $410 $171 #
plane-surface $-1 0 29.608645340960866 0 0 -1 0 0 0 -1 forward_v I I I I #
coedge $-1 $411 $412 $413 $414 reversed $172 $-1 #
coedge $-1 $415 $174 $176 $287 forward $107 $-1 #
coedge $-1 $174 $415 $411 $416 forward $107 $-1 #
coedge $-1 $413 $177 $174 $284 forward $289 $-1 #
edge $-1 $291 4.0904770691008352 $417 33.109263987897769 $283 $418 forward 7 unknown #
coedge $-1 $419 $420 $175 $286 forward $278 $-1 #
edge $-1 $421 -61.322656775726188 $290 -57.048193108516941 $285 $422 forward 7 unknown #
edge $-1 $291 52.425100765748624 $421 59.217290681921739 $176 $423 forward 7 unknown #
coedge $-1 $177 $413 $419 $424 forward $289 $-1 #
loop $-1 $-1 $413 $277 #
vertex $-1 $286 $425 #
vertex $-1 $178 $426 #
straight-curve $-1 22.690347597600137 27.650000911659191 7.4525376888202999 0 -1 0 I I #
coedge $-1 $293 $293 $-1 $427 reversed $181 $-1 #
edge $-1 $428 0 $428 6.2831853071796004 $182 $429 forward 7 unknown #
vertex $-1 $185 $430 #
ellipse-curve $-1 28.494104981359527 26.96938388105055 5.3153058552156676 0 0.62932039886446345 0.77714595512881146 1 0 0 1 I I #
coedge $-1 $297 $297 $-1 $431 reversed $188 $-1 #
edge $-1 $432 0 $432 6.2831853071796004 $189 $433 forward 7 unknown #
vertex $-1 $192 $434 #
ellipse-curve $-1 37.199741056998604 26.96938388105055 5.3153058552156676 0 0.62932039886446345 0.77714595512881146 1 0 0 1 I I #
coedge $-1 $301 $301 $-1 $435 reversed $195 $-1 #
edge $-1 $436 0 $436 6.2831853071796004 $196 $437 forward 7 unknown #
vertex $-1 $199 $438 #
ellipse-curve $-1 45.905377132637682 26.96938388105055 5.3153058552156676 0 0.62932039886446345 0.77714595512881146 1 0 0 1 I I #
face $-1 $-1 $215 $30 $-1 $439 reversed single #
loop $-1 $-1 $321 $200 #
plane-surface $-1 0 29.608645340960866 0 0 -1 0 0 0 -1 forward_v I I I I #
coedge $-1 $440 $319 $322 $441 forward $201 $-1 #
coedge $-1 $325 $203 $204 $313 reversed $126 $-1 #
coedge $-1 $319 $440 $203 $311 reversed $201 $-1 #
edge $-1 $326 -7.452537688820299 $442 7.452537688820299 $310 $443 forward 7 unknown #
coedge $-1 $205 $204 $440 $444 forward $81 $-1 #
edge $-1 $317 -56.975615710928679 $442 56.975615710928679 $309 $445 forward 7 unknown #
coedge $-1 $322 $321 $205 $315 reversed $306 $-1 #
edge $-1 $446 -56.975615710928679 $316 56.975615710928679 $314 $447 forward 7 unknown #
vertex $-1 $207 $448 #
vertex $-1 $328 $449 #
straight-curve $-1 56.975615710928679 0 -7.452537688820299 0 -1 0 I I #
coedge $-1 $308 $310 $208 $320 reversed $201 $-1 #
edge $-1 $323 -29.608645340960866 $326 29.608645340960866 $319 $450 forward 7 unknown #
coedge $-1 $314 $209 $214 $329 forward $306 $-1 #
coedge $-1 $209 $314 $308 $441 reversed $306 $-1 #
vertex $-1 $210 $451 #
straight-curve $-1 0 29.608645340960866 7.452537688820299 -1 0 0 I I #
coedge $-1 $211 $309 $213 $328 reversed $126 $-1 #
vertex $-1 $320 $452 #
straight-curve $-1 0 -29.608645340960866 7.452537688820299 1 0 0 I I #
edge $-1 $216 -7.452537688820299 $317 7.452537688820299 $213 $453 forward 7 unknown #
edge $-1 $217 -7.452537688820299 $316 7.452537688820299 $214 $454 forward 7 unknown #
point $-1 56.975615710928679 -29.608645340960866 7.452537688820299 #
point $-1 56.975615710928679 29.608645340960866 7.452537688820299 #
face $-1 $-1 $234 $31 $-1 $455 reversed single #
loop $-1 $-1 $341 $219 #
plane-surface $-1 0 0 7.452537688820299 0 0 1 1 0 0 forward_v I I I I #
coedge $-1 $347 $346 $223 $340 forward $220 $-1 #
coedge $-1 $225 $222 $347 $456 reversed $134 $-1 #
coedge $-1 $222 $225 $350 $457 reversed $134 $-1 #
edge $-1 $352 -7.452537688820299 $348 7.452537688820299 $222 $458 forward 7 unknown #
coedge $-1 $224 $223 $354 $459 reversed $85 $-1 #
edge $-1 $460 -29.804428154097241 $344 -24.537946959565634 $335 $461 forward 7 unknown #
coedge $-1 $351 $350 $224 $342 forward $333 $-1 #
edge $-1 $343 24.537946959565634 $462 29.804428154097241 $341 $463 forward 7 unknown #
vertex $-1 $342 $464 #
vertex $-1 $340 $465 #
straight-curve $-1 -51.709134516397071 -17.431795880303497 0 0 0 -1 I I #
coedge $-1 $335 $228 $233 $356 forward $220 $-1 #
coedge $-1 $228 $335 $336 $456 forward $220 $-1 #
vertex $-1 $229 $466 #
straight-curve $-1 -27.171187556831438 -21.574075854405748 -7.452537688820299 -1 0 0 I I #
coedge $-1 $341 $230 $337 $457 forward $333 $-1 #
coedge $-1 $230 $341 $232 $355 forward $333 $-1 #
vertex $-1 $231 $467 #
straight-curve $-1 -27.171187556831438 -21.574075854405748 7.452537688820299 1 0 0 I I #
coedge $-1 $233 $232 $339 $459 forward $234 $-1 #
edge $-1 $462 17.431795880303497 $236 21.574075854405748 $232 $468 forward 7 unknown #
edge $-1 $235 -21.574075854405748 $460 -17.431795880303497 $233 $469 forward 7 unknown #
point $-1 -56.975615710928679 -21.574075854405748 -7.452537688820299 #
point $-1 -56.975615710928679 -21.574075854405748 7.452537688820299 #
face $-1 $-1 $470 $32 $-1 $471 reversed single #
loop $-1 $-1 $249 $238 #
plane-surface $-1 0 0 7.452537688820299 0 0 1 1 0 0 forward_v I I I I #
coedge $-1 $244 $241 $472 $473 reversed $142 $-1 #
coedge $-1 $241 $244 $474 $475 reversed $142 $-1 #
coedge $-1 $476 $477 $241 $365 forward $470 $-1 #
edge $-1 $478 -7.452537688820299 $479 7.452537688820299 $364 $480 forward 7 unknown #
coedge $-1 $472 $247 $242 $367 forward $239 $-1 #
edge $-1 $252 -11.822607920728437 $371 -7.6803279466261856 $366 $481 forward 7 unknown #
coedge $-1 $249 $474 $243 $369 forward $360 $-1 #
edge $-1 $370 7.6803279466261856 $251 11.822607920728437 $368 $482 forward 7 unknown #
vertex $-1 $369 $483 #
vertex $-1 $367 $484 #
straight-curve $-1 51.709134516397079 -17.431795880303497 0 0 0 -1 I I #
coedge $-1 $477 $476 $246 $374 forward $470 $-1 #
edge $-1 $379 -7.452537688820299 $376 7.452537688820299 $373 $485 forward 7 unknown #
coedge $-1 $247 $472 $477 $486 forward $239 $-1 #
vertex $-1 $374 $487 #
straight-curve $-1 27.171187556831441 -21.574075854405748 -7.452537688820299 -1 0 0 I I #
coedge $-1 $474 $249 $476 $488 forward $360 $-1 #
vertex $-1 $488 $489 #
straight-curve $-1 27.171187556831441 -21.574075854405748 7.452537688820299 1 0 0 I I #
point $-1 51.709134516397079 -21.574075854405748 7.452537688820299 #
point $-1 51.709134516397079 -21.574075854405748 -7.452537688820299 #
loop $-1 $-1 $391 $254 #
plane-surface $-1 -51.709134516397071 -19.502935867354623 0 -1 0 0 0 0 1 forward_v I I I I #
coedge $-1 $265 $260 $490 $491 forward $255 $-1 #
coedge $-1 $262 $257 $390 $492 forward $150 $-1 #
coedge $-1 $257 $262 $265 $398 reversed $150 $-1 #
coedge $-1 $490 $391 $257 $389 reversed $383 $-1 #
edge $-1 $493 41.842960680998267 $494 48.379770610641351 $257 $495 forward 7 unknown #
coedge $-1 $259 $258 $386 $492 reversed $93 $-1 #
coedge $-1 $388 $490 $259 $392 forward $383 $-1 #
edge $-1 $393 -8.5965718099083581 $494 4.0953245005335743 $391 $496 forward 7 unknown #
vertex $-1 $491 $497 #
straight-curve $-1 -22.377649913819987 -18.729566891996122 7.452537688820299 -1 0 0 I I #
vertex $-1 $263 $498 #
straight-curve $-1 -37.801465138882875 -29.608645340960866 49.295498369818567 0 0 1 I I #
straight-curve $-1 -37.801465138882875 -29.608645340960869 0.91572775917721572 0 -0.85716729658548041 -0.51503808176128008 I I #
edge $-1 $493 -51.709134516397071 $266 -37.801465138882875 $387 $499 forward 7 unknown #
point $-1 -37.801465138882875 -29.608645340960866 7.452537688820299 #
point $-1 -37.801465138882875 -18.729566891996122 7.452537688820299 #
edge $-1 $500 1 $500 0 $269 $-1 forward 7 unknown #
vertex $-1 $270 $501 #
ellipse-curve $-1 -47.735514694250163 -23.05116524526083 2.3235667032356213 0 -0.51503808176128008 0.85716729658548041 1.5 0 0 1 I I #
point $-1 -46.235514694250163 -24.169106116478495 4.1841327239987587 #
edge $-1 $502 1 $502 0 $273 $-1 forward 7 unknown #
vertex $-1 $274 $503 #
ellipse-curve $-1 -41.775084961029791 -23.05116524526083 2.3235667032356213 0 -0.51503808176128008 0.85716729658548041 1.5 0 0 1 I I #
point $-1 -40.275084961029791 -24.169106116478495 4.1841327239987587 #
plane-surface $-1 0 0 7.452537688820299 0 0 1 1 0 0 forward_v I I I I #
coedge $-1 $420 $419 $412 $504 forward $278 $-1 #
coedge $-1 $412 $280 $282 $416 reversed $172 $-1 #
coedge $-1 $280 $411 $410 $504 reversed $172 $-1 #
coedge $-1 $288 $283 $280 $414 forward $289 $-1 #
edge $-1 $417 -3.3198784905189669 $505 1.9586444293016747 $413 $506 forward 7 unknown #
coedge $-1 $282 $281 $420 $507 reversed $107 $-1 #
edge $-1 $508 -59.217290681921739 $417 -52.425100765748624 $411 $509 forward 7 unknown #
vertex $-1 $284 $510 #
straight-curve $-1 18.599870528499302 24.330122421140231 7.4525376888202963 1 0 0 I I #
coedge $-1 $410 $285 $288 $424 reversed $278 $-1 #
coedge $-1 $285 $410 $415 $507 forward $278 $-1 #
vertex $-1 $286 $511 #
straight-curve $-1 22.690347597600137 29.608645340960866 64.500730797337241 0 0 1 I I #
straight-curve $-1 22.690347597600137 -16.411832586181674 40.444723013230913 0 0.77714595512881146 -0.62932039886446345 I I #
edge $-1 $505 -51.709134516397071 $290 -22.690347597600137 $419 $512 forward 7 unknown #
point $-1 22.690347597600137 29.608645340960866 7.452537688820299 #
point $-1 22.690347597600137 24.330122421140224 7.4525376888202999 #
edge $-1 $513 1 $513 0 $293 $-1 forward 7 unknown #
vertex $-1 $294 $514 #
ellipse-curve $-1 28.494104981359527 24.461321127459666 2.2181063560744207 0 0.62932039886446345 0.77714595512881146 1 0 0 1 I I #
point $-1 29.494104981359527 26.96938388105055 5.3153058552156676 #
edge $-1 $515 1 $515 0 $297 $-1 forward 7 unknown #
vertex $-1 $298 $516 #
ellipse-curve $-1 37.199741056998604 24.461321127459666 2.2181063560744207 0 0.62932039886446345 0.77714595512881146 1 0 0 1 I I #
point $-1 38.199741056998604 26.96938388105055 5.3153058552156676 #
edge $-1 $517 1 $517 0 $301 $-1 forward 7 unknown #
vertex $-1 $302 $518 #
ellipse-curve $-1 45.905377132637682 24.461321127459666 2.2181063560744207 0 0.62932039886446345 0.77714595512881146 1 0 0 1 I I #
point $-1 46.905377132637682 26.96938388105055 5.3153058552156676 #
plane-surface $-1 56.975615710928679 0 0 -1 0 0 0 0 1 forward_v I I I I #
coedge $-1 $310 $308 $312 $444 reversed $201 $-1 #
edge $-1 $323 -7.452537688820299 $446 7.452537688820299 $322 $519 forward 7 unknown #
vertex $-1 $444 $520 #
straight-curve $-1 -56.975615710928679 -29.608645340960866 0 0 0 -1 I I #
edge $-1 $442 -29.608645340960866 $446 29.608645340960866 $440 $521 forward 7 unknown #
straight-curve $-1 0 -29.608645340960866 -7.452537688820299 -1 0 0 I I #
vertex $-1 $315 $522 #
straight-curve $-1 0 29.608645340960866 -7.452537688820299 1 0 0 I I #
point $-1 56.975615710928679 29.608645340960866 -7.452537688820299 #
point $-1 56.975615710928679 -29.608645340960866 -7.452537688820299 #
straight-curve $-1 -56.975615710928679 0 7.452537688820299 0 -1 0 I I #
point $-1 -56.975615710928679 29.608645340960866 7.452537688820299 #
point $-1 -56.975615710928679 -29.608645340960866 7.452537688820299 #
straight-curve $-1 56.975615710928679 -29.608645340960866 0 0 0 -1 I I #
straight-curve $-1 56.975615710928679 29.608645340960866 0 0 0 -1 I I #
plane-surface $-1 -56.975615710928679 0 0 1 0 0 0 0 -1 forward_v I I I I #
edge $-1 $344 7.6803279466261856 $348 11.822607920728437 $347 $523 forward 7 unknown #
edge $-1 $352 -11.822607920728437 $343 -7.6803279466261856 $350 $524 forward 7 unknown #
straight-curve $-1 -51.709134516397071 -21.574075854405748 0 0 0 -1 I I #
edge $-1 $462 -7.452537688820299 $460 7.452537688820299 $354 $525 forward 7 unknown #
vertex $-1 $459 $526 #
straight-curve $-1 -27.171187556831438 -17.431795880303497 -7.452537688820299 1 0 0 I I #
vertex $-1 $355 $527 #
straight-curve $-1 -27.171187556831438 -17.431795880303497 7.452537688820299 -1 0 0 I I #
point $-1 -51.709134516397071 -17.431795880303497 7.452537688820299 #
point $-1 -51.709134516397071 -17.431795880303497 -7.452537688820299 #
point $-1 -51.709134516397071 -21.574075854405748 -7.452537688820299 #
point $-1 -51.709134516397071 -21.574075854405748 7.452537688820299 #
straight-curve $-1 -56.975615710928679 0 7.452537688820299 0 -1 0 I I #
straight-curve $-1 -56.975615710928679 0 -7.452537688820299 0 1 0 I I #
loop $-1 $-1 $373 $359 #
plane-surface $-1 56.975615710928679 0 0 -1 0 0 0 0 1 forward_v I I I I #
coedge $-1 $375 $366 $362 $473 forward $239 $-1 #
edge $-1 $371 24.537946959565637 $478 29.804428154097245 $472 $528 forward 7 unknown #
coedge $-1 $368 $378 $363 $475 forward $360 $-1 #
edge $-1 $479 -29.804428154097245 $370 -24.537946959565637 $474 $529 forward 7 unknown #
coedge $-1 $373 $364 $378 $488 reversed $470 $-1 #
coedge $-1 $364 $373 $375 $486 reversed $470 $-1 #
vertex $-1 $486 $530 #
vertex $-1 $365 $531 #
straight-curve $-1 56.975615710928679 -17.431795880303497 0 0 0 1 I I #
straight-curve $-1 51.709134516397079 -9.7514679336773114 -7.452537688820299 0 1 0 I I #
straight-curve $-1 51.709134516397079 -9.7514679336773114 7.452537688820299 0 -1 0 I I #
point $-1 51.709134516397079 -17.431795880303497 7.452537688820299 #
point $-1 51.709134516397079 -17.431795880303497 -7.452537688820299 #
straight-curve $-1 56.975615710928679 -21.574075854405748 0 0 0 -1 I I #
edge $-1 $478 17.431795880303497 $376 21.574075854405748 $477 $532 forward 7 unknown #
point $-1 56.975615710928686 -21.574075854405748 -7.452537688820299 #
edge $-1 $379 -21.574075854405748 $479 -17.431795880303497 $476 $533 forward 7 unknown #
point $-1 56.975615710928686 -21.574075854405748 7.452537688820299 #
coedge $-1 $391 $388 $385 $491 reversed $383 $-1 #
edge $-1 $393 -25.419367601408872 $493 -14.540289152444128 $385 $534 forward 7 unknown #
edge $-1 $494 -29.331484602577085 $395 -15.423815225062889 $386 $535 forward 7 unknown #
vertex $-1 $398 $536 #
vertex $-1 $389 $537 #
straight-curve $-1 -51.709134516397071 -29.608645340960866 49.295498369818567 0 0 -1 I I #
straight-curve $-1 -51.709134516397071 -26.098267110198218 3.0249758341220025 0 -0.85716729658548041 -0.51503808176128008 I I #
point $-1 -51.709134516397071 -18.729566891996122 7.452537688820299 #
point $-1 -37.801465138882875 -29.608645340960866 0.91572775917721783 #
straight-curve $-1 0 -29.608645340960866 7.452537688820299 1 0 0 I I #
vertex $-1 $401 $538 #
point $-1 -46.235514694250163 -23.05116524526083 2.3235667032356213 #
vertex $-1 $405 $539 #
point $-1 -40.275084961029791 -23.05116524526083 2.3235667032356213 #
edge $-1 $505 57.048193108516941 $508 61.322656775726188 $410 $540 forward 7 unknown #
vertex $-1 $424 $541 #
straight-curve $-1 51.709134516397071 27.650000911659191 7.4525376888202999 0 1 0 I I #
edge $-1 $508 -33.109263987897769 $421 -4.0904770691008352 $420 $542 forward 7 unknown #
vertex $-1 $507 $543 #
straight-curve $-1 51.709134516397071 -16.411832586181674 40.444723013230913 0 -0.77714595512881146 0.62932039886446345 I I #
point $-1 51.709134516397071 24.330122421140224 7.4525376888202999 #
point $-1 22.690347597600137 29.608645340960862 3.178074021611053 #
straight-curve $-1 0 29.608645340960866 7.452537688820299 -1 0 0 I I #
vertex $-1 $427 $544 #
point $-1 29.494104981359527 24.461321127459666 2.2181063560744207 #
vertex $-1 $431 $545 #
point $-1 38.199741056998604 24.461321127459666 2.2181063560744207 #
vertex $-1 $435 $546 #
point $-1 46.905377132637682 24.461321127459666 2.2181063560744207 #
straight-curve $-1 -56.975615710928679 29.608645340960866 0 0 0 -1 I I #
point $-1 -56.975615710928679 -29.608645340960866 -7.452537688820299 #
straight-curve $-1 -56.975615710928679 0 -7.452537688820299 0 1 0 I I #
point $-1 -56.975615710928679 29.608645340960866 -7.452537688820299 #
straight-curve $-1 -51.709134516397071 -9.7514679336773114 -7.452537688820299 0 -1 0 I I #
straight-curve $-1 -51.709134516397071 -9.7514679336773114 7.452537688820299 0 1 0 I I #
straight-curve $-1 -56.975615710928679 -17.431795880303497 0 0 0 -1 I I #
point $-1 -56.975615710928679 -17.431795880303497 -7.452537688820299 #
point $-1 -56.975615710928679 -17.431795880303497 7.452537688820299 #
straight-curve $-1 27.171187556831441 -17.431795880303497 -7.452537688820299 1 0 0 I I #
straight-curve $-1 27.171187556831441 -17.431795880303497 7.452537688820299 -1 0 0 I I #
point $-1 56.975615710928686 -17.431795880303497 -7.452537688820299 #
point $-1 56.975615710928686 -17.431795880303497 7.452537688820299 #
straight-curve $-1 56.975615710928679 0 -7.452537688820299 0 -1 0 I I #
straight-curve $-1 56.975615710928679 0 7.452537688820299 0 1 0 I I #
straight-curve $-1 -51.709134516397071 -44.148934493404994 7.4525376888202999 0 -1 0 I I #
straight-curve $-1 -22.377649913819987 -29.608645340960866 0.91572775917721894 1 0 0 I I #
point $-1 -51.709134516397071 -29.608645340960866 7.452537688820299 #
point $-1 -51.709134516397071 -29.608645340960866 0.91572775917721783 #
point $-1 -47.735514694250163 -22.278608122618909 1.0378157583574008 #
point $-1 -41.775084961029791 -22.278608122618909 1.0378157583574008 #
straight-curve $-1 51.709134516397071 29.608645340960866 64.500730797337241 0 0 -1 I I #
point $-1 51.709134516397071 29.608645340960866 7.452537688820299 #
straight-curve $-1 18.599870528499302 29.608645340960862 3.1780740216110495 -1 0 0 I I #
point $-1 51.709134516397071 29.608645340960862 3.178074021611053 #
point $-1 28.494104981359527 23.832000728595201 1.4409604009456092 #
point $-1 37.199741056998604 23.832000728595201 1.4409604009456092 #
point $-1 45.905377132637682 23.832000728595201 1.4409604009456092 #
End-of-ACIS-data 