500 0 7 0           
7 Unknown 11 ACIS 5.0 NT 24 Fri Mar 26 17:50:22 1999 
-1 9.9999999999999995e-007 1e-010 
body $-1 $7 $-1 $8 #
body $-1 $9 $-1 $10 #
body $-1 $11 $-1 $12 #
body $-1 $13 $-1 $14 #
body $-1 $15 $-1 $16 #
body $-1 $17 $-1 $18 #
body $-1 $19 $-1 $20 #
lump $-1 $-1 $21 $0 #
transform $-1 1 0 0 0 1 0 0 0 1 78.354441969054221 49.547401607934724 11.955369001525165 1 rotate no_reflect no_shear #
lump $-1 $-1 $22 $1 #
transform $-1 1 0 0 0 1 0 0 0 1 78.354441969054221 49.547401607934724 11.955369001525165 1 rotate no_reflect no_shear #
lump $-1 $-1 $23 $2 #
transform $-1 1 0 0 0 1 0 0 0 1 78.354441969054221 49.547401607934724 11.955369001525165 1 rotate no_reflect no_shear #
lump $-1 $-1 $24 $3 #
transform $-1 1 0 0 0 1 0 0 0 1 78.354441969054221 49.547401607934724 11.955369001525165 1 rotate no_reflect no_shear #
lump $-1 $-1 $25 $4 #
transform $-1 1 0 0 0 1 0 0 0 1 78.354441969054221 49.547401607934724 11.955369001525165 1 rotate no_reflect no_shear #
lump $-1 $-1 $26 $5 #
transform $-1 1 0 0 0 1 0 0 0 1 78.354441969054221 49.547401607934724 11.955369001525165 1 rotate no_reflect no_shear #
lump $-1 $-1 $27 $6 #
transform $-1 1 0 0 0 1 0 0 0 1 78.354441969054221 49.547401607934724 11.955369001525165 1 rotate no_reflect no_shear #
shell $-1 $-1 $-1 $28 $-1 $7 #
shell $-1 $-1 $-1 $29 $-1 $9 #
shell $-1 $-1 $-1 $30 $-1 $11 #
shell $-1 $-1 $-1 $31 $-1 $13 #
shell $-1 $-1 $-1 $32 $-1 $15 #
shell $-1 $-1 $-1 $33 $-1 $17 #
shell $-1 $-1 $-1 $34 $-1 $19 #
face $-1 $35 $36 $21 $-1 $37 forward single #
face $-1 $38 $39 $22 $-1 $40 forward single #
face $-1 $41 $42 $23 $-1 $43 reversed single #
face $-1 $44 $45 $24 $-1 $46 forward single #
face $-1 $47 $48 $25 $-1 $49 reversed single #
face $-1 $50 $51 $26 $-1 $52 forward single #
face $-1 $53 $54 $27 $-1 $55 forward single #
face $-1 $56 $57 $21 $-1 $58 reversed single #
loop $-1 $-1 $59 $28 #
plane-surface $-1 0 0 11.955369001525165 0 0 1 1 0 0 forward_v I I I I #
face $-1 $60 $61 $22 $-1 $62 reversed single #
loop $-1 $-1 $63 $29 #
plane-surface $-1 -78.354441969054221 0 0 1 0 0 0 0 -1 forward_v I I I I #
face $-1 $64 $65 $23 $-1 $66 reversed single #
loop $-1 $-1 $67 $30 #
plane-surface $-1 -44.861301750374544 -148.16749895347004 121.80207355607537 -1 0 0 0 -0.62932039886446345 0.77714595512881146 forward_v I I I I #
face $-1 $68 $69 $24 $-1 $70 forward single #
loop $-1 $71 $72 $31 #
cone-surface $-1 -57.095618529492455 -37.311686639473905 -0.020674059436902148 0 0.62932039886446345 -0.77714595512881146 4 0 0 1 I I 0 1 4 forward I I I I #
face $-1 $73 $74 $25 $-1 $75 reversed single #
loop $-1 $-1 $76 $32 #
plane-surface $-1 22.539766957074562 138.56596842660645 170.7824293843463 1 0 0 0 -0.87461971476443456 -0.48480960649040278 forward_v I I I I #
face $-1 $77 $78 $26 $-1 $79 forward single #
loop $-1 $80 $81 $33 #
cone-surface $-1 31.807022960097754 47.851798784880273 9.6933213758917276 0 -0.87461971476443456 -0.48480960649040278 0.5 0 0 1 I I 0 1 0.5 forward I I I I #
face $-1 $82 $83 $27 $-1 $84 forward single #
loop $-1 $85 $86 $34 #
cone-surface $-1 45.707906964632542 47.851798784880273 9.6933213758917276 0 -0.87461971476443456 -0.48480960649040278 0.5 0 0 1 I I 0 1 0.5 forward I I I I #
face $-1 $87 $88 $21 $-1 $89 reversed single #
loop $-1 $-1 $90 $35 #
plane-surface $-1 0 0 -11.955369001525165 0 0 1 1 0 0 forward_v I I I I #
coedge $-1 $91 $92 $93 $94 forward $36 $-1 #
face $-1 $95 $96 $22 $-1 $97 forward single #
loop $-1 $-1 $98 $38 #
plane-surface $-1 0 49.547401607934724 0 0 -1 0 0 0 -1 forward_v I I I I #
coedge $-1 $99 $100 $101 $102 forward $39 $-1 #
face $-1 $103 $104 $23 $-1 $105 reversed single #
loop $-1 $-1 $106 $41 #
plane-surface $-1 -57.095618529492455 -49.547401607934731 0.016398270824026895 0 -0.62932039886446345 0.77714595512881146 1 0 0 forward_v I I I I #
coedge $-1 $107 $108 $109 $110 reversed $42 $-1 #
face $-1 $-1 $111 $24 $-1 $112 forward single #
loop $-1 $113 $114 $44 #
cone-surface $-1 -57.095618529492455 -31.189031225368176 -7.5815236653060332 0 0.62932039886446345 -0.77714595512881146 2 0 0 1 I I -0.70710678118654735 0.70710678118654768 2 forward I I I I #
loop $-1 $-1 $115 $31 #
coedge $-1 $72 $72 $116 $117 reversed $45 $-1 #
face $-1 $118 $119 $25 $-1 $120 reversed single #
loop $-1 $-1 $121 $47 #
plane-surface $-1 38.757464962365148 1.5052890556051466 94.808457028761751 0 0.87461971476443456 0.48480960649040278 1 0 0 forward_v I I I I #
coedge $-1 $122 $123 $124 $125 reversed $48 $-1 #
face $-1 $-1 $126 $26 $-1 $127 forward single #
loop $-1 $128 $129 $50 #
cone-surface $-1 31.807022960097754 46.995489843892152 9.2186615966681611 0 -0.87461971476443456 -0.48480960649040278 0.25 0 0 1 I I -0.70710678118654746 0.70710678118654746 0.25 forward I I I I #
loop $-1 $-1 $130 $33 #
coedge $-1 $81 $81 $131 $132 reversed $51 $-1 #
face $-1 $-1 $133 $27 $-1 $134 forward single #
loop $-1 $135 $136 $53 #
cone-surface $-1 45.707906964632542 46.995489843892152 9.2186615966681611 0 -0.87461971476443456 -0.48480960649040278 0.25 0 0 1 I I -0.70710678118654746 0.70710678118654746 0.25 forward I I I I #
loop $-1 $-1 $137 $34 #
coedge $-1 $86 $86 $138 $139 reversed $54 $-1 #
face $-1 $140 $141 $21 $-1 $142 reversed single #
loop $-1 $-1 $143 $56 #
plane-surface $-1 0 -49.547401607934724 0 0 1 0 0 0 1 forward_v I I I I #
coedge $-1 $144 $145 $146 $147 forward $57 $-1 #
coedge $-1 $148 $59 $149 $150 forward $36 $-1 #
coedge $-1 $59 $148 $151 $152 forward $36 $-1 #
coedge $-1 $153 $154 $59 $94 reversed $155 $-1 #
edge $-1 $156 -49.547401607934724 $157 49.547401607934724 $93 $158 forward 7 unknown #
face $-1 $159 $160 $22 $-1 $161 reversed single #
loop $-1 $-1 $101 $60 #
plane-surface $-1 -82.866695299276145 0 -8.1873134021004095 0 0 1 1 0 0 forward_v I I I I #
coedge $-1 $162 $163 $100 $164 forward $61 $-1 #
coedge $-1 $165 $63 $166 $167 reversed $39 $-1 #
coedge $-1 $63 $165 $98 $164 reversed $39 $-1 #
coedge $-1 $168 $169 $63 $102 reversed $96 $-1 #
edge $-1 $170 -49.547401607934724 $171 49.547401607934724 $101 $172 forward 7 unknown #
face $-1 $173 $174 $23 $-1 $175 reversed single #
loop $-1 $-1 $176 $64 #
plane-surface $-1 -69.329935308610374 -148.16749895347004 121.80207355607537 1 0 0 0 0.62932039886446345 -0.77714595512881146 forward_v I I I I #
coedge $-1 $177 $178 $179 $180 reversed $65 $-1 #
coedge $-1 $108 $67 $181 $182 reversed $42 $-1 #
coedge $-1 $67 $107 $177 $183 reversed $42 $-1 #
coedge $-1 $179 $184 $67 $110 forward $185 $-1 #
edge $-1 $186 24.536347868800298 $187 39.279748572968359 $109 $188 forward 7 unknown #
loop $-1 $-1 $116 $68 #
plane-surface $-1 -57.095618529492455 -49.547401607934731 0.016398270824026895 0 -0.62932039886446345 0.77714595512881146 1 0 0 forward_v I I I I #
loop $-1 $-1 $189 $44 #
coedge $-1 $114 $114 $115 $190 reversed $69 $-1 #
coedge $-1 $115 $115 $114 $190 forward $71 $-1 #
coedge $-1 $116 $116 $72 $117 forward $111 $-1 #
edge $-1 $191 1.3973719933712291e-015 $191 6.2831853071796022 $116 $192 forward 7 unknown #
face $-1 $193 $194 $25 $-1 $195 forward single #
loop $-1 $-1 $196 $73 #
plane-surface $-1 54.975162967655734 138.56596842660645 170.7824293843463 -1 0 0 0 0.87461971476443456 0.48480960649040278 forward_v I I I I #
coedge $-1 $197 $198 $199 $200 reversed $74 $-1 #
coedge $-1 $123 $76 $201 $202 reversed $48 $-1 #
coedge $-1 $76 $122 $197 $203 reversed $48 $-1 #
coedge $-1 $199 $204 $76 $125 forward $194 $-1 #
edge $-1 $205 19.735582605368499 $206 21.851480226883375 $124 $207 forward 7 unknown #
loop $-1 $-1 $131 $77 #
plane-surface $-1 38.757464962365148 1.5052890556051466 94.808457028761751 0 0.87461971476443456 0.48480960649040278 1 0 0 forward_v I I I I #
loop $-1 $-1 $208 $50 #
coedge $-1 $129 $129 $130 $209 reversed $78 $-1 #
coedge $-1 $130 $130 $129 $209 forward $80 $-1 #
coedge $-1 $131 $131 $81 $132 forward $126 $-1 #
edge $-1 $210 6.8895588823693683e-015 $210 6.2831853071796075 $131 $211 forward 7 unknown #
loop $-1 $-1 $138 $82 #
plane-surface $-1 38.757464962365148 1.5052890556051466 94.808457028761751 0 0.87461971476443456 0.48480960649040278 1 0 0 forward_v I I I I #
loop $-1 $-1 $212 $53 #
coedge $-1 $136 $136 $137 $213 reversed $83 $-1 #
coedge $-1 $137 $137 $136 $213 forward $85 $-1 #
coedge $-1 $138 $138 $86 $139 forward $133 $-1 #
edge $-1 $214 6.8895588823693683e-015 $214 6.2831853071796075 $138 $215 forward 7 unknown #
face $-1 $216 $217 $21 $-1 $218 reversed single #
loop $-1 $-1 $219 $87 #
plane-surface $-1 -78.354441969054221 0 0 1 0 0 0 0 -1 forward_v I I I I #
coedge $-1 $220 $151 $219 $221 forward $88 $-1 #
coedge $-1 $222 $90 $220 $223 forward $57 $-1 #
coedge $-1 $90 $222 $224 $225 forward $57 $-1 #
coedge $-1 $154 $153 $90 $147 reversed $155 $-1 #
edge $-1 $226 -49.547401607934724 $227 49.547401607934724 $146 $228 forward 7 unknown #
coedge $-1 $92 $91 $229 $230 forward $36 $-1 #
coedge $-1 $231 $232 $91 $150 reversed $217 $-1 #
edge $-1 $157 -78.354441969054221 $233 78.354441969054221 $149 $234 forward 7 unknown #
coedge $-1 $143 $235 $92 $152 reversed $88 $-1 #
edge $-1 $236 -78.354441969054221 $156 78.354441969054221 $151 $237 forward 7 unknown #
coedge $-1 $146 $93 $235 $238 forward $155 $-1 #
coedge $-1 $93 $146 $231 $239 reversed $155 $-1 #
loop $-1 $-1 $153 $216 #
vertex $-1 $94 $240 #
vertex $-1 $94 $241 #
straight-curve $-1 78.354441969054221 0 11.955369001525165 0 1 0 I I #
face $-1 $242 $243 $22 $-1 $244 reversed single #
loop $-1 $-1 $245 $95 #
plane-surface $-1 -87.378948629498069 0 -10.071341201812787 1 0 0 0 0 -1 forward_v I I I I #
coedge $-1 $246 $98 $247 $248 reversed $61 $-1 #
coedge $-1 $98 $246 $168 $249 reversed $61 $-1 #
edge $-1 $170 8.1873134021004095 $250 11.955369001525165 $98 $251 forward 7 unknown #
coedge $-1 $100 $99 $252 $253 reversed $39 $-1 #
coedge $-1 $254 $255 $99 $167 forward $256 $-1 #
edge $-1 $257 -11.955369001525165 $171 -8.1873134021004095 $166 $258 forward 7 unknown #
coedge $-1 $259 $101 $163 $249 forward $96 $-1 #
coedge $-1 $101 $259 $254 $260 forward $96 $-1 #
vertex $-1 $164 $261 #
vertex $-1 $260 $262 #
straight-curve $-1 -78.354441969054221 0 -8.1873134021004095 0 -1 0 I I #
face $-1 $-1 $185 $23 $-1 $263 forward single #
loop $-1 $-1 $264 $103 #
plane-surface $-1 0 -49.547401607934724 0 0 1 0 0 0 1 forward_v I I I I #
coedge $-1 $265 $266 $267 $268 reversed $104 $-1 #
coedge $-1 $269 $106 $108 $183 forward $65 $-1 #
coedge $-1 $106 $269 $265 $270 forward $65 $-1 #
coedge $-1 $267 $109 $106 $180 forward $185 $-1 #
edge $-1 $187 16.313492485628316 $271 40.782126043864146 $179 $272 forward 7 unknown #
coedge $-1 $273 $274 $107 $182 forward $174 $-1 #
edge $-1 $275 -60.884638507213651 $186 -48.945667776512522 $181 $276 forward 7 unknown #
edge $-1 $187 -18.97121204436348 $275 -9.142020950748558e-015 $108 $277 forward 7 unknown #
coedge $-1 $109 $267 $273 $278 forward $185 $-1 #
loop $-1 $-1 $267 $173 #
vertex $-1 $182 $279 #
vertex $-1 $110 $280 #
straight-curve $-1 -44.861301750374544 -74.083749476735022 11.955369001525163 0 1 0 I I #
coedge $-1 $189 $189 $-1 $281 reversed $113 $-1 #
edge $-1 $282 0 $282 6.2831853071796004 $114 $283 forward 7 unknown #
vertex $-1 $117 $284 #
ellipse-curve $-1 -57.095618529492455 -42.175701255850697 5.9858836361745968 0 -0.62932039886446345 0.77714595512881146 4 0 0 1 I I #
face $-1 $-1 $285 $25 $-1 $286 reversed single #
loop $-1 $-1 $124 $118 #
plane-surface $-1 0 0 11.955369001525165 0 0 1 1 0 0 forward_v I I I I #
coedge $-1 $287 $288 $289 $290 reversed $119 $-1 #
coedge $-1 $291 $121 $123 $203 forward $74 $-1 #
coedge $-1 $121 $291 $287 $292 forward $74 $-1 #
coedge $-1 $289 $124 $121 $200 forward $194 $-1 #
edge $-1 $206 3.1610344758919879 $293 35.59643048647316 $199 $294 forward 7 unknown #
coedge $-1 $295 $296 $122 $202 forward $285 $-1 #
edge $-1 $297 -77.25302618671293 $205 -73.43584569064798 $201 $298 forward 7 unknown #
edge $-1 $206 94.730414405936173 $297 99.094803215869476 $123 $299 forward 7 unknown #
coedge $-1 $124 $289 $295 $300 forward $194 $-1 #
vertex $-1 $202 $301 #
vertex $-1 $125 $302 #
straight-curve $-1 22.539766957074562 69.282984213303223 11.95536900152517 0 -1 0 I I #
coedge $-1 $208 $208 $-1 $303 reversed $128 $-1 #
edge $-1 $304 0 $304 6.2831853071796004 $129 $305 forward 7 unknown #
vertex $-1 $132 $306 #
ellipse-curve $-1 31.807022960097754 48.489452797177286 10.046778753492694 0 0.87461971476443456 0.48480960649040278 0.5 0 0 1 I I #
coedge $-1 $212 $212 $-1 $307 reversed $135 $-1 #
edge $-1 $308 0 $308 6.2831853071796004 $136 $309 forward 7 unknown #
vertex $-1 $139 $310 #
ellipse-curve $-1 45.707906964632542 48.489452797177286 10.046778753492694 0 0.87461971476443456 0.48480960649040278 0.5 0 0 1 I I #
face $-1 $-1 $155 $21 $-1 $311 reversed single #
loop $-1 $-1 $231 $140 #
plane-surface $-1 0 49.547401607934724 0 0 -1 0 0 0 -1 forward_v I I I I #
coedge $-1 $229 $312 $143 $221 reversed $141 $-1 #
coedge $-1 $235 $143 $144 $223 reversed $88 $-1 #
edge $-1 $236 -11.955369001525165 $313 11.955369001525165 $219 $314 forward 7 unknown #
coedge $-1 $145 $144 $312 $315 forward $57 $-1 #
edge $-1 $227 -78.354441969054221 $313 78.354441969054221 $220 $316 forward 7 unknown #
coedge $-1 $232 $231 $145 $225 reversed $217 $-1 #
edge $-1 $317 -78.354441969054221 $226 78.354441969054221 $224 $318 forward 7 unknown #
vertex $-1 $147 $319 #
vertex $-1 $238 $320 #
straight-curve $-1 78.354441969054221 0 -11.955369001525165 0 -1 0 I I #
coedge $-1 $321 $219 $148 $230 reversed $141 $-1 #
edge $-1 $233 -49.547401607934724 $236 49.547401607934724 $229 $322 forward 7 unknown #
coedge $-1 $224 $149 $154 $239 forward $217 $-1 #
coedge $-1 $149 $224 $321 $323 reversed $217 $-1 #
vertex $-1 $150 $324 #
straight-curve $-1 0 49.547401607934724 11.955369001525165 -1 0 0 I I #
coedge $-1 $151 $220 $153 $238 reversed $88 $-1 #
vertex $-1 $230 $325 #
straight-curve $-1 0 -49.547401607934724 11.955369001525165 1 0 0 I I #
edge $-1 $156 -11.955369001525165 $227 11.955369001525165 $153 $326 forward 7 unknown #
edge $-1 $157 -11.955369001525165 $226 11.955369001525165 $154 $327 forward 7 unknown #
point $-1 78.354441969054221 -49.547401607934724 11.955369001525165 #
point $-1 78.354441969054221 49.547401607934724 11.955369001525165 #
face $-1 $-1 $256 $22 $-1 $328 reversed single #
loop $-1 $-1 $252 $159 #
plane-surface $-1 0 0 -11.955369001525165 0 0 1 1 0 0 forward_v I I I I #
coedge $-1 $329 $330 $246 $331 forward $160 $-1 #
coedge $-1 $163 $162 $245 $331 reversed $61 $-1 #
coedge $-1 $252 $332 $162 $248 forward $243 $-1 #
edge $-1 $333 -87.378948629498069 $250 -78.354441969054221 $162 $334 forward 7 unknown #
edge $-1 $170 -4.5122533302219239 $335 4.5122533302219239 $163 $336 forward 7 unknown #
vertex $-1 $164 $337 #
straight-curve $-1 -78.354441969054221 49.547401607934724 0 0 0 -1 I I #
coedge $-1 $338 $247 $165 $253 forward $243 $-1 #
edge $-1 $250 -49.547401607934724 $257 49.547401607934724 $252 $339 forward 7 unknown #
coedge $-1 $340 $166 $169 $260 reversed $256 $-1 #
coedge $-1 $166 $340 $338 $341 reversed $256 $-1 #
loop $-1 $-1 $166 $242 #
vertex $-1 $341 $342 #
straight-curve $-1 -78.354441969054221 -49.547401607934724 0 0 0 1 I I #
coedge $-1 $169 $168 $330 $343 forward $96 $-1 #
edge $-1 $344 -4.5122533302219239 $171 4.5122533302219239 $254 $345 forward 7 unknown #
point $-1 -78.354441969054221 49.547401607934724 -8.1873134021004095 #
point $-1 -78.354441969054221 -49.547401607934724 -8.1873134021004095 #
plane-surface $-1 0 0 11.955369001525165 0 0 1 1 0 0 forward_v I I I I #
coedge $-1 $274 $273 $266 $346 forward $174 $-1 #
coedge $-1 $266 $176 $178 $270 reversed $104 $-1 #
coedge $-1 $176 $265 $264 $346 reversed $104 $-1 #
coedge $-1 $184 $179 $176 $268 forward $185 $-1 #
edge $-1 $271 -39.279748572968359 $347 -24.536347868800298 $267 $348 forward 7 unknown #
coedge $-1 $178 $177 $274 $349 reversed $65 $-1 #
edge $-1 $350 9.142020950748558e-015 $271 18.97121204436348 $265 $351 forward 7 unknown #
vertex $-1 $180 $352 #
straight-curve $-1 -28.547809264746228 -34.804000903766664 11.955369001525165 -1 0 0 I I #
coedge $-1 $264 $181 $184 $278 reversed $174 $-1 #
coedge $-1 $181 $264 $269 $349 forward $174 $-1 #
vertex $-1 $182 $353 #
straight-curve $-1 -44.861301750374544 -49.547401607934724 60.901036778037685 0 0 1 I I #
straight-curve $-1 -44.861301750374544 -49.547401607934731 0.016398270824026895 0 -0.77714595512881146 -0.62932039886446345 I I #
edge $-1 $347 -69.329935308610374 $186 -44.861301750374544 $273 $354 forward 7 unknown #
point $-1 -44.861301750374544 -49.547401607934724 11.955369001525165 #
point $-1 -44.861301750374544 -34.804000903766664 11.955369001525165 #
edge $-1 $355 1 $355 0 $189 $-1 forward 7 unknown #
vertex $-1 $190 $356 #
ellipse-curve $-1 -57.095618529492455 -32.447672023097105 -6.02723175504841 0 -0.62932039886446345 0.77714595512881146 4 0 0 1 I I #
point $-1 -53.095618529492455 -42.175701255850697 5.9858836361746057 #
loop $-1 $-1 $201 $193 #
plane-surface $-1 0 49.547401607934724 0 0 -1 0 0 0 -1 forward_v I I I I #
coedge $-1 $288 $196 $198 $292 reversed $119 $-1 #
coedge $-1 $196 $287 $357 $358 reversed $119 $-1 #
coedge $-1 $204 $199 $196 $290 forward $194 $-1 #
edge $-1 $293 -21.851480226883375 $359 -19.735582605368499 $289 $360 forward 7 unknown #
coedge $-1 $198 $197 $296 $361 reversed $74 $-1 #
edge $-1 $362 -99.094803215869476 $293 -94.730414405936173 $287 $363 forward 7 unknown #
vertex $-1 $200 $364 #
straight-curve $-1 19.378732481182574 47.431503986419848 11.955369001525163 1 0 0 I I #
coedge $-1 $357 $201 $204 $300 reversed $285 $-1 #
coedge $-1 $201 $357 $291 $361 forward $285 $-1 #
vertex $-1 $202 $365 #
straight-curve $-1 22.539766957074562 49.547401607934724 85.391214692173151 0 0 1 I I #
straight-curve $-1 22.539766957074562 1.5052890556051466 94.808457028761751 0 0.48480960649040278 -0.87461971476443456 I I #
edge $-1 $359 -54.975162967655734 $205 -22.539766957074562 $295 $366 forward 7 unknown #
point $-1 22.539766957074562 49.547401607934724 11.955369001525165 #
point $-1 22.539766957074562 47.431503986419848 11.95536900152517 #
edge $-1 $367 1 $367 0 $208 $-1 forward 7 unknown #
vertex $-1 $209 $368 #
ellipse-curve $-1 31.807022960097754 47.214144772583261 9.3398639982907614 0 0.87461971476443456 0.48480960649040278 0.5 0 0 1 I I #
point $-1 32.307022960097754 48.489452797177293 10.046778753492694 #
edge $-1 $369 1 $369 0 $212 $-1 forward 7 unknown #
vertex $-1 $213 $370 #
ellipse-curve $-1 45.707906964632542 47.214144772583261 9.3398639982907614 0 0.87461971476443456 0.48480960649040278 0.5 0 0 1 I I #
point $-1 46.207906964632542 48.489452797177293 10.046778753492694 #
plane-surface $-1 78.354441969054221 0 0 -1 0 0 0 0 1 forward_v I I I I #
coedge $-1 $219 $321 $222 $315 reversed $141 $-1 #
vertex $-1 $315 $371 #
straight-curve $-1 -78.354441969054221 -49.547401607934724 0 0 0 -1 I I #
edge $-1 $313 -49.547401607934724 $317 49.547401607934724 $312 $372 forward 7 unknown #
straight-curve $-1 0 -49.547401607934724 -11.955369001525165 -1 0 0 I I #
vertex $-1 $225 $373 #
straight-curve $-1 0 49.547401607934724 -11.955369001525165 1 0 0 I I #
point $-1 78.354441969054221 49.547401607934724 -11.955369001525165 #
point $-1 78.354441969054221 -49.547401607934724 -11.955369001525165 #
coedge $-1 $312 $229 $232 $323 forward $141 $-1 #
straight-curve $-1 -78.354441969054221 0 11.955369001525165 0 -1 0 I I #
edge $-1 $233 -11.955369001525165 $317 11.955369001525165 $232 $374 forward 7 unknown #
point $-1 -78.354441969054221 49.547401607934724 11.955369001525165 #
point $-1 -78.354441969054221 -49.547401607934724 11.955369001525165 #
straight-curve $-1 78.354441969054221 -49.547401607934724 0 0 0 -1 I I #
straight-curve $-1 78.354441969054221 49.547401607934724 0 0 0 -1 I I #
plane-surface $-1 0 -49.547401607934724 0 0 1 0 0 0 1 forward_v I I I I #
coedge $-1 $375 $245 $332 $376 reversed $160 $-1 #
coedge $-1 $245 $375 $259 $343 reversed $160 $-1 #
edge $-1 $335 -1.8840277997123778 $333 1.8840277997123778 $246 $377 forward 7 unknown #
coedge $-1 $247 $338 $329 $376 forward $243 $-1 #
vertex $-1 $248 $378 #
straight-curve $-1 0 49.547401607934724 -11.955369001525165 1 0 0 I I #
vertex $-1 $249 $379 #
straight-curve $-1 -82.866695299276145 49.547401607934724 -8.1873134021004095 -1 0 0 I I #
point $-1 -78.354441969054221 49.547401607934724 -11.955369001525165 #
coedge $-1 $332 $252 $255 $341 forward $243 $-1 #
straight-curve $-1 -78.354441969054221 0 -11.955369001525165 0 -1 0 I I #
coedge $-1 $255 $254 $375 $380 forward $256 $-1 #
edge $-1 $257 -4.5122533302219239 $381 4.5122533302219239 $255 $382 forward 7 unknown #
point $-1 -78.354441969054221 -49.547401607934724 -11.955369001525165 #
edge $-1 $335 -49.547401607934724 $344 49.547401607934724 $330 $383 forward 7 unknown #
vertex $-1 $343 $384 #
straight-curve $-1 -82.866695299276145 -49.547401607934724 -8.1873134021004095 1 0 0 I I #
edge $-1 $347 48.945667776512522 $350 60.884638507213651 $264 $385 forward 7 unknown #
vertex $-1 $278 $386 #
straight-curve $-1 -69.329935308610374 -74.083749476735022 11.955369001525163 0 -1 0 I I #
edge $-1 $350 -40.782126043864146 $275 -16.313492485628316 $274 $387 forward 7 unknown #
vertex $-1 $349 $388 #
straight-curve $-1 -69.329935308610374 -49.547401607934731 0.016398270824026895 0 0.77714595512881146 0.62932039886446345 I I #
point $-1 -69.329935308610374 -34.804000903766664 11.955369001525165 #
point $-1 -44.861301750374544 -49.547401607934724 0.016398270824032647 #
straight-curve $-1 0 -49.547401607934724 11.955369001525165 1 0 0 I I #
vertex $-1 $281 $389 #
point $-1 -53.095618529492455 -32.447672023097105 -6.02723175504841 #
coedge $-1 $296 $295 $288 $358 forward $285 $-1 #
edge $-1 $359 73.43584569064798 $362 77.25302618671293 $357 $390 forward 7 unknown #
vertex $-1 $300 $391 #
straight-curve $-1 54.975162967655734 69.282984213303223 11.95536900152517 0 1 0 I I #
edge $-1 $362 -35.59643048647316 $297 -3.1610344758919879 $296 $392 forward 7 unknown #
vertex $-1 $361 $393 #
straight-curve $-1 54.975162967655734 1.5052890556051466 94.808457028761751 0 -0.48480960649040278 0.87461971476443456 I I #
point $-1 54.975162967655734 47.431503986419848 11.95536900152517 #
point $-1 22.539766957074562 49.547401607934724 8.1381885054602208 #
straight-curve $-1 0 49.547401607934724 11.955369001525165 -1 0 0 I I #
vertex $-1 $303 $394 #
point $-1 32.307022960097754 47.214144772583261 9.3398639982907614 #
vertex $-1 $307 $395 #
point $-1 46.207906964632542 47.214144772583261 9.3398639982907614 #
point $-1 -78.354441969054221 -49.547401607934724 -11.955369001525165 #
straight-curve $-1 -78.354441969054221 0 -11.955369001525165 0 1 0 I I #
point $-1 -78.354441969054221 49.547401607934724 -11.955369001525165 #
straight-curve $-1 -78.354441969054221 49.547401607934724 0 0 0 -1 I I #
coedge $-1 $330 $329 $340 $380 reversed $160 $-1 #
edge $-1 $381 -49.547401607934724 $333 49.547401607934724 $329 $396 forward 7 unknown #
straight-curve $-1 -87.378948629498069 49.547401607934724 -10.071341201812787 0 0 -1 I I #
point $-1 -87.378948629498069 49.547401607934724 -11.955369001525165 #
point $-1 -87.378948629498069 49.547401607934724 -8.1873134021004095 #
edge $-1 $344 -1.8840277997123778 $381 1.8840277997123778 $375 $397 forward 7 unknown #
vertex $-1 $376 $398 #
straight-curve $-1 -82.866695299276145 -49.547401607934724 -11.955369001525165 -1 0 0 I I #
straight-curve $-1 -87.378948629498069 0 -8.1873134021004095 0 -1 0 I I #
point $-1 -87.378948629498069 -49.547401607934724 -8.1873134021004095 #
straight-curve $-1 -69.329935308610374 -49.547401607934724 60.901036778037685 0 0 -1 I I #
point $-1 -69.329935308610374 -49.547401607934724 11.955369001525165 #
straight-curve $-1 -28.547809264746228 -49.547401607934724 0.016398270824034201 1 0 0 I I #
point $-1 -69.329935308610374 -49.547401607934724 0.016398270824032647 #
point $-1 -57.095618529492455 -29.930390427639249 -9.1358155755636563 #
straight-curve $-1 54.975162967655734 49.547401607934724 85.391214692173151 0 0 -1 I I #
point $-1 54.975162967655734 49.547401607934724 11.955369001525165 #
straight-curve $-1 19.378732481182574 49.547401607934724 8.1381885054602208 -1 0 0 I I #
point $-1 54.975162967655734 49.547401607934724 8.1381885054602208 #
point $-1 31.807022960097754 46.776834915201043 9.0974591950455608 #
point $-1 45.707906964632542 46.776834915201043 9.0974591950455608 #
straight-curve $-1 -87.378948629498069 0 -11.955369001525165 0 1 0 I I #
straight-curve $-1 -87.378948629498069 -49.547401607934724 -10.071341201812787 0 0 -1 I I #
point $-1 -87.378948629498069 -49.547401607934724 -11.955369001525165 #
End-of-ACIS-data 