500 0 9 0           
7 Unknown 11 ACIS 5.0 NT 24 Thu Mar 25 16:28:17 1999 
-1 9.9999999999999995e-007 1e-010 
body $-1 $9 $-1 $10 #
body $-1 $11 $-1 $12 #
body $-1 $13 $-1 $14 #
body $-1 $15 $-1 $16 #
body $-1 $17 $-1 $18 #
body $-1 $19 $-1 $20 #
body $-1 $21 $-1 $22 #
body $-1 $23 $-1 $24 #
body $-1 $25 $-1 $26 #
lump $-1 $-1 $27 $0 #
transform $-1 1 0 0 0 1 0 0 0 1 67.798699911496328 27.519853768513279 9.2952049801025645 1 rotate no_reflect no_shear #
lump $-1 $-1 $28 $1 #
transform $-1 1 0 0 0 1 0 0 0 1 67.798699911496328 27.519853768513279 9.2952049801025645 1 rotate no_reflect no_shear #
lump $-1 $-1 $29 $2 #
transform $-1 1 0 0 0 1 0 0 0 1 67.798699911496328 27.519853768513279 9.2952049801025645 1 rotate no_reflect no_shear #
lump $-1 $-1 $30 $3 #
transform $-1 1 0 0 0 1 0 0 0 1 67.798699911496328 27.519853768513279 9.2952049801025645 1 rotate no_reflect no_shear #
lump $-1 $-1 $31 $4 #
transform $-1 1 0 0 0 1 0 0 0 1 67.798699911496328 27.519853768513279 9.2952049801025645 1 rotate no_reflect no_shear #
lump $-1 $-1 $32 $5 #
transform $-1 1 0 0 0 1 0 0 0 1 67.798699911496328 27.519853768513279 9.2952049801025645 1 rotate no_reflect no_shear #
lump $-1 $-1 $33 $6 #
transform $-1 1 0 0 0 1 0 0 0 1 67.798699911496328 27.519853768513279 9.2952049801025645 1 rotate no_reflect no_shear #
lump $-1 $-1 $34 $7 #
transform $-1 1 0 0 0 1 0 0 0 1 67.798699911496328 27.519853768513279 9.2952049801025645 1 rotate no_reflect no_shear #
lump $-1 $-1 $35 $8 #
transform $-1 1 0 0 0 1 0 0 0 1 67.798699911496328 27.519853768513279 9.2952049801025645 1 rotate no_reflect no_shear #
shell $-1 $-1 $-1 $36 $-1 $9 #
shell $-1 $-1 $-1 $37 $-1 $11 #
shell $-1 $-1 $-1 $38 $-1 $13 #
shell $-1 $-1 $-1 $39 $-1 $15 #
shell $-1 $-1 $-1 $40 $-1 $17 #
shell $-1 $-1 $-1 $41 $-1 $19 #
shell $-1 $-1 $-1 $42 $-1 $21 #
shell $-1 $-1 $-1 $43 $-1 $23 #
shell $-1 $-1 $-1 $44 $-1 $25 #
face $-1 $45 $46 $27 $-1 $47 forward single #
face $-1 $48 $49 $28 $-1 $50 forward single #
face $-1 $51 $52 $29 $-1 $53 reversed single #
face $-1 $54 $55 $30 $-1 $56 forward single #
face $-1 $57 $58 $31 $-1 $59 forward single #
face $-1 $60 $61 $32 $-1 $62 forward single #
face $-1 $63 $64 $33 $-1 $65 reversed single #
face $-1 $66 $67 $34 $-1 $68 forward single #
face $-1 $69 $70 $35 $-1 $71 forward single #
face $-1 $72 $73 $27 $-1 $74 reversed single #
loop $-1 $-1 $75 $36 #
plane-surface $-1 0 0 9.2952049801025645 0 0 1 1 0 0 forward_v I I I I #
face $-1 $76 $77 $28 $-1 $78 reversed single #
loop $-1 $-1 $79 $37 #
plane-surface $-1 0 -27.519853768513279 0 0 1 0 0 0 1 forward_v I I I I #
face $-1 $80 $81 $29 $-1 $82 reversed single #
loop $-1 $-1 $83 $38 #
plane-surface $-1 91.168816459664754 -13.741022610470454 193.96403244838271 0 -1 0 -0.78801076186113728 0 -0.61566146476048833 forward_v I I I I #
face $-1 $84 $85 $30 $-1 $86 forward single #
loop $-1 $87 $88 $39 #
cone-surface $-1 65.031122617473457 -19.730702977678938 6.0293222110332412 -0.78801076186113728 0 -0.61566146476048833 0.30783073238024417 0 -0.39400538093056864 1 I I 0 1 0.5 forward I I I I #
face $-1 $89 $90 $31 $-1 $91 forward single #
loop $-1 $92 $93 $40 #
cone-surface $-1 65.031122617473457 -17.484572839975755 6.0293222110332412 -0.78801076186113728 0 -0.61566146476048833 0.30783073238024417 0 -0.39400538093056864 1 I I 0 1 0.5 forward I I I I #
face $-1 $94 $95 $32 $-1 $96 forward single #
loop $-1 $97 $98 $41 #
cone-surface $-1 65.031122617473457 -15.238442702272575 6.0293222110332412 -0.78801076186113728 0 -0.61566146476048833 0.30783073238024417 0 -0.39400538093056864 1 I I 0 1 0.5 forward I I I I #
face $-1 $99 $100 $33 $-1 $101 reversed single #
loop $-1 $-1 $102 $42 #
plane-surface $-1 -153.13290965308619 -18.047515974171493 107.75396161125379 0 1 0 -0.62932039886446345 0 0.77714595512881146 forward_v I I I I #
face $-1 $103 $104 $34 $-1 $105 forward single #
loop $-1 $106 $107 $43 #
cone-surface $-1 -61.973543483347164 -14.183157479932701 3.918191633111006 0.62932039886446345 0 -0.77714595512881146 1.1657189326932171 0 0.94398059829669512 1 I I 0 1 1.5 forward I I I I #
face $-1 $108 $109 $35 $-1 $110 forward single #
loop $-1 $111 $112 $44 #
cone-surface $-1 -61.973543483347164 -8.3866197385745131 3.918191633111006 0.62932039886446345 0 -0.77714595512881146 1.1657189326932171 0 0.94398059829669512 1 I I 0 1 1.5 forward I I I I #
face $-1 $113 $114 $27 $-1 $115 reversed single #
loop $-1 $-1 $116 $45 #
plane-surface $-1 0 0 -9.2952049801025645 0 0 1 1 0 0 forward_v I I I I #
coedge $-1 $117 $118 $119 $120 forward $46 $-1 #
face $-1 $121 $122 $28 $-1 $123 forward single #
loop $-1 $-1 $124 $48 #
plane-surface $-1 -67.798699911496328 0 0 1 0 0 0 0 -1 forward_v I I I I #
coedge $-1 $125 $126 $127 $128 forward $49 $-1 #
face $-1 $129 $130 $29 $-1 $131 reversed single #
loop $-1 $-1 $132 $51 #
plane-surface $-1 -15.683393881240931 -17.484572839975755 110.48193865564546 0.78801076186113728 0 0.61566146476048833 0.61566146476048833 0 -0.78801076186113728 forward_v I I I I #
coedge $-1 $133 $134 $135 $136 reversed $52 $-1 #
face $-1 $-1 $137 $30 $-1 $138 forward single #
loop $-1 $139 $140 $54 #
cone-surface $-1 64.279720314801239 -19.730702977678938 5.4422624084551821 -0.78801076186113728 0 -0.61566146476048833 0.15391536619012208 0 -0.19700269046528432 1 I I -0.70710678118654746 0.70710678118654746 0.25 forward I I I I #
loop $-1 $-1 $141 $39 #
coedge $-1 $88 $88 $142 $143 reversed $55 $-1 #
face $-1 $-1 $144 $31 $-1 $145 forward single #
loop $-1 $146 $147 $57 #
cone-surface $-1 64.279720314801239 -17.484572839975755 5.4422624084551821 -0.78801076186113728 0 -0.61566146476048833 0.15391536619012208 0 -0.19700269046528432 1 I I -0.70710678118654746 0.70710678118654746 0.25 forward I I I I #
loop $-1 $-1 $148 $40 #
coedge $-1 $93 $93 $149 $150 reversed $58 $-1 #
face $-1 $-1 $151 $32 $-1 $152 forward single #
loop $-1 $153 $154 $60 #
cone-surface $-1 64.279720314801239 -15.238442702272575 5.4422624084551821 -0.78801076186113728 0 -0.61566146476048833 0.15391536619012208 0 -0.19700269046528432 1 I I -0.70710678118654746 0.70710678118654746 0.25 forward I I I I #
loop $-1 $-1 $155 $41 #
coedge $-1 $98 $98 $156 $157 reversed $61 $-1 #
face $-1 $158 $159 $33 $-1 $160 reversed single #
loop $-1 $-1 $161 $63 #
plane-surface $-1 -67.798699911496328 -11.284888609253606 2.3749908128308306 -0.62932039886446345 0 0.77714595512881146 0.77714595512881146 0 0.62932039886446345 forward_v I I I I #
coedge $-1 $162 $163 $164 $165 reversed $64 $-1 #
face $-1 $-1 $166 $34 $-1 $167 forward single #
loop $-1 $168 $169 $66 #
cone-surface $-1 -59.949273067086402 -14.183157479932701 1.418425903408707 0.62932039886446345 0 -0.77714595512881146 0.58285946634660857 0 0.47199029914834756 1 I I -0.70710678118654757 0.70710678118654757 0.75 forward I I I I #
loop $-1 $-1 $170 $43 #
coedge $-1 $107 $107 $171 $172 reversed $67 $-1 #
face $-1 $-1 $173 $35 $-1 $174 forward single #
loop $-1 $175 $176 $69 #
cone-surface $-1 -59.949273067086402 -8.3866197385745131 1.418425903408707 0.62932039886446345 0 -0.77714595512881146 0.58285946634660857 0 0.47199029914834756 1 I I -0.70710678118654757 0.70710678118654757 0.75 forward I I I I #
loop $-1 $-1 $177 $44 #
coedge $-1 $112 $112 $178 $179 reversed $70 $-1 #
face $-1 $180 $181 $27 $-1 $182 reversed single #
loop $-1 $-1 $183 $72 #
plane-surface $-1 0 -27.519853768513279 0 0 1 0 0 0 1 forward_v I I I I #
coedge $-1 $184 $185 $186 $187 forward $73 $-1 #
coedge $-1 $188 $75 $189 $190 forward $46 $-1 #
coedge $-1 $75 $188 $191 $192 forward $46 $-1 #
coedge $-1 $193 $194 $75 $120 reversed $195 $-1 #
edge $-1 $196 -27.519853768513279 $197 27.519853768513279 $119 $198 forward 7 unknown #
face $-1 $199 $200 $28 $-1 $201 reversed single #
loop $-1 $-1 $202 $76 #
plane-surface $-1 0 -30.66571911802939 0.76112493154168526 0 0 1 1 0 0 forward_v I I I I #
coedge $-1 $203 $204 $126 $205 forward $77 $-1 #
coedge $-1 $206 $79 $207 $208 reversed $49 $-1 #
coedge $-1 $79 $206 $124 $205 reversed $49 $-1 #
coedge $-1 $209 $202 $79 $128 reversed $122 $-1 #
edge $-1 $210 -67.798699911496328 $211 67.798699911496328 $127 $212 forward 7 unknown #
face $-1 $213 $214 $29 $-1 $215 reversed single #
loop $-1 $-1 $216 $80 #
plane-surface $-1 91.168816459664754 -21.228123069481057 193.96403244838271 0 1 0 0.78801076186113728 0 0.61566146476048833 forward_v I I I I #
coedge $-1 $217 $218 $219 $220 reversed $81 $-1 #
coedge $-1 $134 $83 $221 $222 reversed $52 $-1 #
coedge $-1 $83 $133 $217 $223 reversed $52 $-1 #
coedge $-1 $219 $224 $83 $136 forward $225 $-1 #
edge $-1 $226 -22.214291681663951 $227 -17.787936318032138 $135 $228 forward 7 unknown #
loop $-1 $-1 $142 $84 #
plane-surface $-1 -15.683393881240931 -17.484572839975755 110.48193865564546 0.78801076186113728 0 0.61566146476048833 0.61566146476048833 0 -0.78801076186113728 forward_v I I I I #
loop $-1 $-1 $229 $54 #
coedge $-1 $140 $140 $141 $230 reversed $85 $-1 #
coedge $-1 $141 $141 $140 $230 forward $87 $-1 #
coedge $-1 $142 $142 $88 $143 forward $137 $-1 #
edge $-1 $231 0 $231 6.2831853071796004 $142 $232 forward 7 unknown #
loop $-1 $-1 $149 $89 #
plane-surface $-1 -15.683393881240931 -17.484572839975755 110.48193865564546 0.78801076186113728 0 0.61566146476048833 0.61566146476048833 0 -0.78801076186113728 forward_v I I I I #
loop $-1 $-1 $233 $57 #
coedge $-1 $147 $147 $148 $234 reversed $90 $-1 #
coedge $-1 $148 $148 $147 $234 forward $92 $-1 #
coedge $-1 $149 $149 $93 $150 forward $144 $-1 #
edge $-1 $235 0 $235 6.2831853071796004 $149 $236 forward 7 unknown #
loop $-1 $-1 $156 $94 #
plane-surface $-1 -15.683393881240931 -17.484572839975755 110.48193865564546 0.78801076186113728 0 0.61566146476048833 0.61566146476048833 0 -0.78801076186113728 forward_v I I I I #
loop $-1 $-1 $237 $60 #
coedge $-1 $154 $154 $155 $238 reversed $95 $-1 #
coedge $-1 $155 $155 $154 $238 forward $97 $-1 #
coedge $-1 $156 $156 $98 $157 forward $151 $-1 #
edge $-1 $239 0 $239 6.2831853071796004 $156 $240 forward 7 unknown #
face $-1 $241 $242 $33 $-1 $243 forward single #
loop $-1 $-1 $244 $99 #
plane-surface $-1 -153.13290965308619 -4.5222612443357191 107.75396161125379 0 -1 0 0.62932039886446345 0 -0.77714595512881146 forward_v I I I I #
coedge $-1 $245 $246 $247 $248 reversed $100 $-1 #
coedge $-1 $163 $102 $249 $250 reversed $64 $-1 #
coedge $-1 $102 $162 $245 $251 reversed $64 $-1 #
coedge $-1 $247 $252 $102 $165 forward $242 $-1 #
edge $-1 $253 8.7677549150467655 $254 17.313507537120259 $164 $255 forward 7 unknown #
loop $-1 $-1 $171 $103 #
plane-surface $-1 -67.798699911496328 -11.284888609253606 2.3749908128308306 -0.62932039886446345 0 0.77714595512881146 0.77714595512881146 0 0.62932039886446345 forward_v I I I I #
loop $-1 $-1 $256 $66 #
coedge $-1 $169 $169 $170 $257 reversed $104 $-1 #
coedge $-1 $170 $170 $169 $257 forward $106 $-1 #
coedge $-1 $171 $171 $107 $172 forward $166 $-1 #
edge $-1 $258 0 $258 6.2831853071796004 $171 $259 forward 7 unknown #
loop $-1 $-1 $178 $108 #
plane-surface $-1 -67.798699911496328 -11.284888609253606 2.3749908128308306 -0.62932039886446345 0 0.77714595512881146 0.77714595512881146 0 0.62932039886446345 forward_v I I I I #
loop $-1 $-1 $260 $69 #
coedge $-1 $176 $176 $177 $261 reversed $109 $-1 #
coedge $-1 $177 $177 $176 $261 forward $111 $-1 #
coedge $-1 $178 $178 $112 $179 forward $173 $-1 #
edge $-1 $262 0 $262 6.2831853071796004 $178 $263 forward 7 unknown #
face $-1 $264 $265 $27 $-1 $266 reversed single #
loop $-1 $-1 $267 $113 #
plane-surface $-1 -67.798699911496328 0 0 1 0 0 0 0 -1 forward_v I I I I #
coedge $-1 $268 $191 $269 $270 forward $114 $-1 #
coedge $-1 $271 $116 $268 $272 forward $73 $-1 #
coedge $-1 $116 $271 $273 $274 forward $73 $-1 #
coedge $-1 $194 $193 $116 $187 reversed $195 $-1 #
edge $-1 $275 -27.519853768513279 $276 27.519853768513279 $186 $277 forward 7 unknown #
coedge $-1 $118 $117 $278 $279 forward $46 $-1 #
coedge $-1 $280 $281 $117 $190 reversed $265 $-1 #
edge $-1 $197 -67.798699911496328 $282 67.798699911496328 $189 $283 forward 7 unknown #
coedge $-1 $183 $284 $118 $192 reversed $114 $-1 #
edge $-1 $285 -67.798699911496328 $196 67.798699911496328 $191 $286 forward 7 unknown #
coedge $-1 $186 $119 $284 $287 forward $195 $-1 #
coedge $-1 $119 $186 $280 $288 reversed $195 $-1 #
loop $-1 $-1 $193 $264 #
vertex $-1 $120 $289 #
vertex $-1 $120 $290 #
straight-curve $-1 67.798699911496328 0 9.2952049801025645 0 1 0 I I #
face $-1 $291 $292 $28 $-1 $293 reversed single #
loop $-1 $-1 $294 $121 #
plane-surface $-1 0 -30.66571911802939 -3.0548252119363166 0 0 1 1 0 0 forward_v I I I I #
coedge $-1 $127 $295 $296 $297 forward $122 $-1 #
coedge $-1 $298 $124 $299 $300 reversed $77 $-1 #
coedge $-1 $124 $298 $209 $301 reversed $77 $-1 #
edge $-1 $210 -0.76112493154168526 $302 3.0548252119363166 $124 $303 forward 7 unknown #
coedge $-1 $126 $125 $304 $305 forward $49 $-1 #
coedge $-1 $296 $306 $125 $208 forward $307 $-1 #
edge $-1 $308 -3.0548252119363166 $211 0.76112493154168526 $207 $309 forward 7 unknown #
coedge $-1 $295 $127 $204 $301 forward $122 $-1 #
vertex $-1 $205 $310 #
vertex $-1 $297 $311 #
straight-curve $-1 0 -27.519853768513279 0.76112493154168526 1 0 0 I I #
face $-1 $-1 $225 $29 $-1 $312 forward single #
loop $-1 $-1 $313 $129 #
plane-surface $-1 67.798699911496328 0 0 -1 0 0 0 0 1 forward_v I I I I #
coedge $-1 $314 $315 $316 $317 reversed $130 $-1 #
coedge $-1 $318 $132 $134 $223 forward $81 $-1 #
coedge $-1 $132 $318 $314 $319 forward $81 $-1 #
coedge $-1 $316 $135 $132 $220 forward $225 $-1 #
edge $-1 $227 4.9987361904825764 $320 12.48583664949318 $219 $321 forward 7 unknown #
coedge $-1 $322 $323 $133 $222 forward $214 $-1 #
edge $-1 $324 -93.35228790945159 $226 -87.686811244088787 $221 $325 forward 7 unknown #
edge $-1 $227 128.40780681288965 $324 135.59739982299268 $134 $326 forward 7 unknown #
coedge $-1 $135 $316 $322 $327 forward $225 $-1 #
loop $-1 $-1 $316 $213 #
vertex $-1 $222 $328 #
vertex $-1 $136 $329 #
straight-curve $-1 45.584408229832377 -13.741022610470454 9.295204980102568 -1 0 0 I I #
coedge $-1 $229 $229 $-1 $330 reversed $139 $-1 #
edge $-1 $331 0 $331 6.2831853071796004 $140 $332 forward 7 unknown #
vertex $-1 $143 $333 #
ellipse-curve $-1 65.585522229680407 -19.730702977678938 6.4624666474211878 0.78801076186113728 0 0.61566146476048833 0.30783073238024417 0 -0.39400538093056864 1 I I #
coedge $-1 $233 $233 $-1 $334 reversed $146 $-1 #
edge $-1 $335 0 $335 6.2831853071796004 $147 $336 forward 7 unknown #
vertex $-1 $150 $337 #
ellipse-curve $-1 65.585522229680407 -17.484572839975755 6.4624666474211878 0.78801076186113728 0 0.61566146476048833 0.30783073238024417 0 -0.39400538093056864 1 I I #
coedge $-1 $237 $237 $-1 $338 reversed $153 $-1 #
edge $-1 $339 0 $339 6.2831853071796004 $154 $340 forward 7 unknown #
vertex $-1 $157 $341 #
ellipse-curve $-1 65.585522229680407 -15.238442702272575 6.4624666474211878 0.78801076186113728 0 0.61566146476048833 0.30783073238024417 0 -0.39400538093056864 1 I I #
face $-1 $-1 $342 $33 $-1 $343 reversed single #
loop $-1 $-1 $164 $158 #
plane-surface $-1 0 0 9.2952049801025645 0 0 1 1 0 0 forward_v I I I I #
coedge $-1 $344 $345 $346 $347 reversed $159 $-1 #
coedge $-1 $348 $161 $163 $251 forward $100 $-1 #
coedge $-1 $161 $348 $344 $349 forward $100 $-1 #
coedge $-1 $346 $164 $161 $248 forward $242 $-1 #
edge $-1 $254 -12.405071669544689 $350 1.1201830602910841 $247 $351 forward 7 unknown #
coedge $-1 $352 $353 $162 $250 forward $342 $-1 #
edge $-1 $354 -51.501989992796062 $253 -44.581775825524332 $249 $355 forward 7 unknown #
edge $-1 $254 -10.996329023750809 $354 0 $163 $356 forward 7 unknown #
coedge $-1 $164 $346 $352 $357 forward $242 $-1 #
vertex $-1 $165 $358 #
vertex $-1 $165 $359 #
straight-curve $-1 -76.566454826543094 -18.047515974171493 9.2952049801025609 1 0 0 I I #
coedge $-1 $256 $256 $-1 $360 reversed $168 $-1 #
edge $-1 $361 0 $361 6.2831853071796004 $169 $362 forward 7 unknown #
vertex $-1 $172 $363 #
ellipse-curve $-1 -63.525823600459582 -14.183157479932701 5.8350978964666984 -0.62932039886446345 0 0.77714595512881146 1.1657189326932171 0 0.94398059829669512 1 I I #
coedge $-1 $260 $260 $-1 $364 reversed $175 $-1 #
edge $-1 $365 0 $365 6.2831853071796004 $176 $366 forward 7 unknown #
vertex $-1 $179 $367 #
ellipse-curve $-1 -63.525823600459582 -8.3866197385745131 5.8350978964666984 -0.62932039886446345 0 0.77714595512881146 1.1657189326932171 0 0.94398059829669512 1 I I #
face $-1 $-1 $195 $27 $-1 $368 reversed single #
loop $-1 $-1 $280 $180 #
plane-surface $-1 0 27.519853768513279 0 0 -1 0 0 0 -1 forward_v I I I I #
coedge $-1 $369 $278 $281 $370 forward $181 $-1 #
coedge $-1 $284 $183 $184 $272 reversed $114 $-1 #
coedge $-1 $278 $369 $183 $270 reversed $181 $-1 #
edge $-1 $285 -9.2952049801025645 $371 9.2952049801025645 $269 $372 forward 7 unknown #
coedge $-1 $185 $184 $369 $373 forward $73 $-1 #
edge $-1 $276 -67.798699911496328 $371 67.798699911496328 $268 $374 forward 7 unknown #
coedge $-1 $281 $280 $185 $274 reversed $265 $-1 #
edge $-1 $375 -67.798699911496328 $275 67.798699911496328 $273 $376 forward 7 unknown #
vertex $-1 $187 $377 #
vertex $-1 $287 $378 #
straight-curve $-1 67.798699911496328 0 -9.2952049801025645 0 -1 0 I I #
coedge $-1 $267 $269 $188 $279 reversed $181 $-1 #
edge $-1 $282 -27.519853768513279 $285 27.519853768513279 $278 $379 forward 7 unknown #
coedge $-1 $273 $189 $194 $288 forward $265 $-1 #
coedge $-1 $189 $273 $267 $370 reversed $265 $-1 #
vertex $-1 $190 $380 #
straight-curve $-1 0 27.519853768513279 9.2952049801025645 -1 0 0 I I #
coedge $-1 $191 $268 $193 $287 reversed $114 $-1 #
vertex $-1 $279 $381 #
straight-curve $-1 0 -27.519853768513279 9.2952049801025645 1 0 0 I I #
edge $-1 $196 -9.2952049801025645 $276 9.2952049801025645 $193 $382 forward 7 unknown #
edge $-1 $197 -9.2952049801025645 $275 9.2952049801025645 $194 $383 forward 7 unknown #
point $-1 67.798699911496328 -27.519853768513279 9.2952049801025645 #
point $-1 67.798699911496328 27.519853768513279 9.2952049801025645 #
face $-1 $-1 $307 $28 $-1 $384 reversed single #
loop $-1 $-1 $385 $199 #
plane-surface $-1 0 -33.811584467545501 -1.1468501401973157 0 1 0 0 0 1 forward_v I I I I #
coedge $-1 $386 $304 $306 $387 forward $200 $-1 #
coedge $-1 $202 $209 $388 $389 forward $122 $-1 #
coedge $-1 $390 $207 $202 $297 reversed $307 $-1 #
edge $-1 $391 -3.1458653495161109 $211 3.1458653495161109 $296 $392 forward 7 unknown #
coedge $-1 $204 $203 $385 $393 reversed $77 $-1 #
coedge $-1 $304 $386 $203 $300 forward $200 $-1 #
edge $-1 $394 -3.1458653495161109 $302 3.1458653495161109 $203 $395 forward 7 unknown #
edge $-1 $210 -3.1458653495161109 $396 3.1458653495161109 $204 $397 forward 7 unknown #
vertex $-1 $205 $398 #
straight-curve $-1 -67.798699911496328 -27.519853768513279 0 0 0 -1 I I #
coedge $-1 $294 $299 $206 $305 reversed $200 $-1 #
edge $-1 $308 -67.798699911496328 $302 67.798699911496328 $304 $399 forward 7 unknown #
coedge $-1 $207 $390 $294 $387 reversed $307 $-1 #
loop $-1 $-1 $207 $291 #
vertex $-1 $208 $400 #
straight-curve $-1 67.798699911496328 -27.519853768513279 0 0 0 1 I I #
point $-1 -67.798699911496328 -27.519853768513279 0.76112493154168526 #
point $-1 67.798699911496328 -27.519853768513279 0.76112493154168526 #
plane-surface $-1 0 0 9.2952049801025645 0 0 1 1 0 0 forward_v I I I I #
coedge $-1 $323 $322 $315 $401 forward $214 $-1 #
coedge $-1 $315 $216 $218 $319 reversed $130 $-1 #
coedge $-1 $216 $314 $313 $401 reversed $130 $-1 #
coedge $-1 $224 $219 $216 $317 forward $225 $-1 #
edge $-1 $320 17.787936318032138 $402 22.214291681663951 $316 $403 forward 7 unknown #
coedge $-1 $218 $217 $323 $404 reversed $81 $-1 #
edge $-1 $405 -135.59739982299268 $320 -128.40780681288965 $314 $406 forward 7 unknown #
vertex $-1 $220 $407 #
straight-curve $-1 63.372344547864529 -8.7422864199878774 9.295204980102568 0 -1 0 I I #
coedge $-1 $313 $221 $224 $327 reversed $214 $-1 #
coedge $-1 $221 $313 $318 $404 forward $214 $-1 #
vertex $-1 $222 $408 #
straight-curve $-1 67.798699911496328 -13.741022610470454 96.982016224191355 0 0 1 I I #
straight-curve $-1 -15.683393881240931 -13.741022610470454 110.48193865564546 0.61566146476048833 0 -0.78801076186113728 I I #
edge $-1 $402 -21.228123069481057 $226 -13.741022610470454 $322 $409 forward 7 unknown #
point $-1 67.798699911496328 -13.741022610470454 9.2952049801025645 #
point $-1 63.372344547864515 -13.741022610470454 9.2952049801025538 #
edge $-1 $410 1 $410 0 $229 $-1 forward 7 unknown #
vertex $-1 $230 $411 #
ellipse-curve $-1 64.476723005266521 -19.730702977678938 5.5961777746453043 0.78801076186113728 0 0.61566146476048833 0.30783073238024417 0 -0.39400538093056864 1 I I #
point $-1 65.893352962060646 -19.730702977678938 6.0684612664906092 #
edge $-1 $412 1 $412 0 $233 $-1 forward 7 unknown #
vertex $-1 $234 $413 #
ellipse-curve $-1 64.476723005266521 -17.484572839975755 5.5961777746453043 0.78801076186113728 0 0.61566146476048833 0.30783073238024417 0 -0.39400538093056864 1 I I #
point $-1 65.893352962060646 -17.484572839975755 6.0684612664906092 #
edge $-1 $414 1 $414 0 $237 $-1 forward 7 unknown #
vertex $-1 $238 $415 #
ellipse-curve $-1 64.476723005266521 -15.238442702272575 5.5961777746453043 0.78801076186113728 0 0.61566146476048833 0.30783073238024417 0 -0.39400538093056864 1 I I #
point $-1 65.893352962060646 -15.238442702272575 6.0684612664906092 #
loop $-1 $-1 $249 $241 #
plane-surface $-1 -67.798699911496328 0 0 1 0 0 0 0 -1 forward_v I I I I #
coedge $-1 $345 $244 $246 $349 reversed $159 $-1 #
coedge $-1 $244 $344 $416 $417 reversed $159 $-1 #
coedge $-1 $252 $247 $244 $347 forward $242 $-1 #
edge $-1 $350 -17.313507537120259 $418 -8.7677549150467655 $346 $419 forward 7 unknown #
coedge $-1 $246 $245 $353 $420 reversed $100 $-1 #
edge $-1 $421 0 $350 10.996329023750809 $344 $422 forward 7 unknown #
vertex $-1 $248 $423 #
straight-curve $-1 -59.252947289422835 -5.6424443046268031 9.2952049801025645 0 1 0 I I #
coedge $-1 $416 $249 $252 $357 reversed $342 $-1 #
coedge $-1 $249 $416 $348 $420 forward $342 $-1 #
vertex $-1 $250 $424 #
straight-curve $-1 -67.798699911496328 -18.047515974171493 53.876980805626893 0 0 1 I I #
straight-curve $-1 -67.798699911496328 -18.047515974171493 2.3749908128308306 -0.77714595512881146 0 -0.62932039886446345 I I #
edge $-1 $418 4.5222612443357191 $253 18.047515974171493 $352 $425 forward 7 unknown #
point $-1 -67.798699911496328 -18.047515974171493 9.2952049801025645 #
point $-1 -59.252947289422835 -18.047515974171493 9.2952049801025645 #
edge $-1 $426 1 $426 0 $256 $-1 forward 7 unknown #
vertex $-1 $257 $427 #
ellipse-curve $-1 -60.421263366234747 -14.183157479932701 2.0012853697553155 -0.62932039886446345 0 0.77714595512881146 1.1657189326932171 0 0.94398059829669512 1 I I #
point $-1 -62.360104667766365 -14.183157479932701 6.7790784947633931 #
edge $-1 $428 1 $428 0 $260 $-1 forward 7 unknown #
vertex $-1 $261 $429 #
ellipse-curve $-1 -60.421263366234747 -8.3866197385745131 2.0012853697553155 -0.62932039886446345 0 0.77714595512881146 1.1657189326932171 0 0.94398059829669512 1 I I #
point $-1 -62.360104667766365 -8.3866197385745131 6.7790784947633931 #
plane-surface $-1 67.798699911496328 0 0 -1 0 0 0 0 1 forward_v I I I I #
coedge $-1 $269 $267 $271 $373 reversed $181 $-1 #
edge $-1 $282 -9.2952049801025645 $375 9.2952049801025645 $281 $430 forward 7 unknown #
vertex $-1 $373 $431 #
straight-curve $-1 -67.798699911496328 -27.519853768513279 0 0 0 -1 I I #
edge $-1 $371 -27.519853768513279 $375 27.519853768513279 $369 $432 forward 7 unknown #
straight-curve $-1 0 -27.519853768513279 -9.2952049801025645 -1 0 0 I I #
vertex $-1 $274 $433 #
straight-curve $-1 0 27.519853768513279 -9.2952049801025645 1 0 0 I I #
point $-1 67.798699911496328 27.519853768513279 -9.2952049801025645 #
point $-1 67.798699911496328 -27.519853768513279 -9.2952049801025645 #
straight-curve $-1 -67.798699911496328 0 9.2952049801025645 0 -1 0 I I #
point $-1 -67.798699911496328 27.519853768513279 9.2952049801025645 #
point $-1 -67.798699911496328 -27.519853768513279 9.2952049801025645 #
straight-curve $-1 67.798699911496328 -27.519853768513279 0 0 0 -1 I I #
straight-curve $-1 67.798699911496328 27.519853768513279 0 0 0 -1 I I #
plane-surface $-1 67.798699911496328 0 0 -1 0 0 0 0 1 forward_v I I I I #
coedge $-1 $434 $388 $298 $393 forward $292 $-1 #
coedge $-1 $299 $294 $434 $435 forward $200 $-1 #
edge $-1 $308 -3.1458653495161109 $436 3.1458653495161109 $306 $437 forward 7 unknown #
coedge $-1 $385 $438 $295 $389 reversed $292 $-1 #
edge $-1 $396 -67.798699911496328 $391 67.798699911496328 $388 $439 forward 7 unknown #
coedge $-1 $306 $296 $438 $440 forward $307 $-1 #
vertex $-1 $297 $441 #
straight-curve $-1 67.798699911496328 -30.66571911802939 0.76112493154168526 0 1 0 I I #
edge $-1 $396 -1.9079750717390009 $394 1.9079750717390009 $298 $442 forward 7 unknown #
vertex $-1 $300 $443 #
straight-curve $-1 -67.798699911496328 -30.66571911802939 -3.0548252119363166 0 1 0 I I #
vertex $-1 $301 $444 #
straight-curve $-1 -67.798699911496328 -30.66571911802939 0.76112493154168526 0 -1 0 I I #
point $-1 -67.798699911496328 -27.519853768513279 -3.0548252119363166 #
straight-curve $-1 0 -27.519853768513279 -3.0548252119363166 -1 0 0 I I #
point $-1 67.798699911496328 -27.519853768513279 -3.0548252119363166 #
edge $-1 $402 87.686811244088787 $405 93.35228790945159 $313 $445 forward 7 unknown #
vertex $-1 $327 $446 #
straight-curve $-1 45.584408229832377 -21.228123069481057 9.295204980102568 1 0 0 I I #
edge $-1 $405 -12.48583664949318 $324 -4.9987361904825764 $323 $447 forward 7 unknown #
vertex $-1 $404 $448 #
straight-curve $-1 -15.683393881240931 -21.228123069481057 110.48193865564546 -0.61566146476048833 0 0.78801076186113728 I I #
point $-1 63.372344547864515 -21.228123069481057 9.2952049801025538 #
point $-1 67.798699911496328 -13.741022610470454 3.629728314739765 #
straight-curve $-1 67.798699911496328 0 9.2952049801025645 0 1 0 I I #
vertex $-1 $330 $449 #
point $-1 64.78455373764676 -19.730702977678938 5.2021723937147355 #
vertex $-1 $334 $450 #
point $-1 64.78455373764676 -17.484572839975755 5.2021723937147355 #
vertex $-1 $338 $451 #
point $-1 64.78455373764676 -15.238442702272575 5.2021723937147355 #
coedge $-1 $353 $352 $345 $417 forward $342 $-1 #
edge $-1 $418 44.581775825524332 $421 51.501989992796062 $416 $452 forward 7 unknown #
vertex $-1 $357 $453 #
straight-curve $-1 -76.566454826543094 -4.5222612443357191 9.2952049801025609 -1 0 0 I I #
edge $-1 $421 -1.1201830602910841 $354 12.405071669544689 $353 $454 forward 7 unknown #
vertex $-1 $420 $455 #
straight-curve $-1 -67.798699911496328 -4.5222612443357191 2.3749908128308306 0.77714595512881146 0 0.62932039886446345 I I #
point $-1 -59.252947289422835 -4.5222612443357191 9.2952049801025645 #
point $-1 -67.798699911496328 -18.047515974171493 2.3749908128308306 #
straight-curve $-1 -67.798699911496328 0 9.2952049801025645 0 -1 0 I I #
vertex $-1 $360 $456 #
point $-1 -59.25554443354153 -14.183157479932701 2.9452659680520106 #
vertex $-1 $364 $457 #
point $-1 -59.25554443354153 -8.3866197385745131 2.9452659680520106 #
straight-curve $-1 -67.798699911496328 27.519853768513279 0 0 0 -1 I I #
point $-1 -67.798699911496328 -27.519853768513279 -9.2952049801025645 #
straight-curve $-1 -67.798699911496328 0 -9.2952049801025645 0 1 0 I I #
point $-1 -67.798699911496328 27.519853768513279 -9.2952049801025645 #
coedge $-1 $438 $385 $386 $435 reversed $292 $-1 #
edge $-1 $436 -67.798699911496328 $394 67.798699911496328 $434 $458 forward 7 unknown #
vertex $-1 $440 $459 #
straight-curve $-1 67.798699911496328 -30.66571911802939 -3.0548252119363166 0 -1 0 I I #
coedge $-1 $388 $434 $390 $440 reversed $292 $-1 #
straight-curve $-1 0 -33.811584467545501 0.76112493154168526 1 0 0 I I #
edge $-1 $391 -1.9079750717390009 $436 1.9079750717390009 $390 $460 forward 7 unknown #
point $-1 67.798699911496328 -33.811584467545501 0.76112493154168526 #
straight-curve $-1 -67.798699911496328 -33.811584467545501 -1.1468501401973157 0 0 -1 I I #
point $-1 -67.798699911496328 -33.811584467545501 -3.0548252119363166 #
point $-1 -67.798699911496328 -33.811584467545501 0.76112493154168526 #
straight-curve $-1 67.798699911496328 -21.228123069481057 96.982016224191355 0 0 -1 I I #
point $-1 67.798699911496328 -21.228123069481057 9.2952049801025645 #
straight-curve $-1 67.798699911496328 -8.7422864199878774 3.6297283147397579 0 1 0 I I #
point $-1 67.798699911496328 -21.228123069481057 3.629728314739765 #
point $-1 64.082717624335956 -19.730702977678938 5.2883470422650598 #
point $-1 64.082717624335956 -17.484572839975755 5.2883470422650598 #
point $-1 64.082717624335956 -15.238442702272575 5.2883470422650598 #
straight-curve $-1 -67.798699911496328 -4.5222612443357191 53.876980805626893 0 0 -1 I I #
point $-1 -67.798699911496328 -4.5222612443357191 9.2952049801025645 #
straight-curve $-1 -67.798699911496328 -5.6424443046268031 2.3749908128308346 0 -1 0 I I #
point $-1 -67.798699911496328 -4.5222612443357191 2.3749908128308306 #
point $-1 -59.477282767938057 -14.183157479932701 0.83556643706209843 #
point $-1 -59.477282767938057 -8.3866197385745131 0.83556643706209843 #
straight-curve $-1 0 -33.811584467545501 -3.0548252119363166 -1 0 0 I I #
point $-1 67.798699911496328 -33.811584467545501 -3.0548252119363166 #
straight-curve $-1 67.798699911496328 -33.811584467545501 -1.1468501401973157 0 0 -1 I I #
End-of-ACIS-data 