500 0 10 0           
7 Unknown 11 ACIS 5.0 NT 24 Fri Mar 26 14:53:21 1999 
-1 9.9999999999999995e-007 1e-010 
body $-1 $10 $-1 $11 #
body $-1 $12 $-1 $13 #
body $-1 $14 $-1 $15 #
body $-1 $16 $-1 $17 #
body $-1 $18 $-1 $19 #
body $-1 $20 $-1 $21 #
body $-1 $22 $-1 $23 #
body $-1 $24 $-1 $25 #
body $-1 $26 $-1 $27 #
body $-1 $28 $-1 $29 #
lump $-1 $-1 $30 $0 #
transform $-1 1 0 0 0 1 0 0 0 1 77.248451185644086 52.916851105016804 15.84340244043603 1 rotate no_reflect no_shear #
lump $-1 $-1 $31 $1 #
transform $-1 1 0 0 0 1 0 0 0 1 77.248451185644086 52.916851105016804 15.84340244043603 1 rotate no_reflect no_shear #
lump $-1 $-1 $32 $2 #
transform $-1 1 0 0 0 1 0 0 0 1 77.248451185644086 52.916851105016804 15.84340244043603 1 rotate no_reflect no_shear #
lump $-1 $-1 $33 $3 #
transform $-1 1 0 0 0 1 0 0 0 1 77.248451185644086 52.916851105016804 15.84340244043603 1 rotate no_reflect no_shear #
lump $-1 $-1 $34 $4 #
transform $-1 1 0 0 0 1 0 0 0 1 77.248451185644086 52.916851105016804 15.84340244043603 1 rotate no_reflect no_shear #
lump $-1 $-1 $35 $5 #
transform $-1 1 0 0 0 1 0 0 0 1 77.248451185644086 52.916851105016804 15.84340244043603 1 rotate no_reflect no_shear #
lump $-1 $-1 $36 $6 #
transform $-1 1 0 0 0 1 0 0 0 1 77.248451185644086 52.916851105016804 15.84340244043603 1 rotate no_reflect no_shear #
lump $-1 $-1 $37 $7 #
transform $-1 1 0 0 0 1 0 0 0 1 77.248451185644086 52.916851105016804 15.84340244043603 1 rotate no_reflect no_shear #
lump $-1 $-1 $38 $8 #
transform $-1 1 0 0 0 1 0 0 0 1 77.248451185644086 52.916851105016804 15.84340244043603 1 rotate no_reflect no_shear #
lump $-1 $-1 $39 $9 #
transform $-1 1 0 0 0 1 0 0 0 1 77.248451185644086 52.916851105016804 15.84340244043603 1 rotate no_reflect no_shear #
shell $-1 $-1 $-1 $40 $-1 $10 #
shell $-1 $-1 $-1 $41 $-1 $12 #
shell $-1 $-1 $-1 $42 $-1 $14 #
shell $-1 $-1 $-1 $43 $-1 $16 #
shell $-1 $-1 $-1 $44 $-1 $18 #
shell $-1 $-1 $-1 $45 $-1 $20 #
shell $-1 $-1 $-1 $46 $-1 $22 #
shell $-1 $-1 $-1 $47 $-1 $24 #
shell $-1 $-1 $-1 $48 $-1 $26 #
shell $-1 $-1 $-1 $49 $-1 $28 #
face $-1 $50 $51 $30 $-1 $52 forward single #
face $-1 $53 $54 $31 $-1 $55 forward single #
face $-1 $56 $57 $32 $-1 $58 forward single #
face $-1 $59 $60 $33 $-1 $61 reversed single #
face $-1 $62 $63 $34 $-1 $64 forward single #
face $-1 $65 $66 $35 $-1 $67 forward single #
face $-1 $68 $69 $36 $-1 $70 reversed single #
face $-1 $71 $72 $37 $-1 $73 forward single #
face $-1 $74 $75 $38 $-1 $76 forward single #
face $-1 $77 $78 $39 $-1 $79 forward single #
face $-1 $80 $81 $30 $-1 $82 reversed single #
loop $-1 $-1 $83 $40 #
plane-surface $-1 0 0 15.84340244043603 0 0 1 1 0 0 forward_v I I I I #
face $-1 $84 $85 $31 $-1 $86 reversed single #
loop $-1 $-1 $87 $41 #
plane-surface $-1 0 -44.567522590498243 -11.337700667876835 0 0 1 1 0 0 forward_v I I I I #
face $-1 $88 $89 $32 $-1 $90 reversed single #
loop $-1 $-1 $91 $42 #
plane-surface $-1 0 44.567522590498243 -11.337700667876835 0 0 1 1 0 0 forward_v I I I I #
face $-1 $92 $93 $33 $-1 $94 reversed single #
loop $-1 $-1 $95 $43 #
plane-surface $-1 62.007248907134311 5.924068403724732 218.32468836436493 0 -1 0 -0.6560590369687036 0 -0.75470957328743171 forward_v I I I I #
face $-1 $96 $97 $34 $-1 $98 forward single #
loop $-1 $99 $100 $44 #
cone-surface $-1 67.706225162551974 -2.7096275076335701 7.3687282239352596 -0.6560590369687036 0 -0.75470957328743171 0.75470957328743171 0 -0.6560590369687036 1 I I 0 1 1 forward I I I I #
face $-1 $101 $102 $35 $-1 $103 forward single #
loop $-1 $104 $105 $45 #
cone-surface $-1 67.706225162551974 2.4705900391814097 7.3687282239352596 -0.6560590369687036 0 -0.75470957328743171 0.75470957328743171 0 -0.6560590369687036 1 I I 0 1 1 forward I I I I #
face $-1 $106 $107 $36 $-1 $108 reversed single #
loop $-1 $-1 $109 $46 #
plane-surface $-1 -208.26925632801016 19.216301390109614 91.177616705779513 0 1 0 -0.84804810408105047 0 0.52991925155115449 forward_v I I I I #
face $-1 $110 $111 $37 $-1 $112 forward single #
loop $-1 $113 $114 $47 #
cone-surface $-1 -74.386266977674723 22.616679927283627 12.062736311722936 0.84804810408105047 0 -0.52991925155115449 0.26495962577557725 0 0.42402405204052523 1 I I 0 1 0.5 forward I I I I #
face $-1 $115 $116 $38 $-1 $117 forward single #
loop $-1 $118 $119 $48 #
cone-surface $-1 -74.386266977674723 27.717247733044644 12.062736311722936 0.84804810408105047 0 -0.52991925155115449 0.26495962577557725 0 0.42402405204052523 1 I I 0 1 0.5 forward I I I I #
face $-1 $120 $121 $39 $-1 $122 forward single #
loop $-1 $123 $124 $49 #
cone-surface $-1 -74.386266977674723 32.817815538805661 12.062736311722936 0.84804810408105047 0 -0.52991925155115449 0.26495962577557725 0 0.42402405204052523 1 I I 0 1 0.5 forward I I I I #
face $-1 $125 $126 $30 $-1 $127 reversed single #
loop $-1 $-1 $128 $50 #
plane-surface $-1 0 0 -15.84340244043603 0 0 1 1 0 0 forward_v I I I I #
coedge $-1 $129 $130 $131 $132 forward $51 $-1 #
face $-1 $133 $134 $31 $-1 $135 reversed single #
loop $-1 $-1 $136 $53 #
plane-surface $-1 0 -36.218194075979682 -13.590551554156432 0 -1 0 0 0 -1 forward_v I I I I #
coedge $-1 $137 $138 $139 $140 reversed $54 $-1 #
face $-1 $141 $142 $32 $-1 $143 reversed single #
loop $-1 $-1 $144 $56 #
plane-surface $-1 0 36.218194075979682 -13.590551554156432 0 1 0 0 0 1 forward_v I I I I #
coedge $-1 $145 $146 $147 $148 reversed $57 $-1 #
face $-1 $149 $150 $33 $-1 $151 reversed single #
loop $-1 $-1 $152 $59 #
plane-surface $-1 -39.351840077220828 -0.11951873422607662 101.72439710150003 0.6560590369687036 0 0.75470957328743171 0.75470957328743171 0 -0.6560590369687036 forward_v I I I I #
coedge $-1 $153 $154 $155 $156 reversed $60 $-1 #
face $-1 $-1 $157 $34 $-1 $158 forward single #
loop $-1 $159 $160 $62 #
cone-surface $-1 66.738724787650341 -2.7096275076335701 6.2557463824363353 -0.6560590369687036 0 -0.75470957328743171 0.37735478664371586 0 -0.3280295184843518 1 I I -0.70710678118654746 0.70710678118654746 0.5 forward I I I I #
loop $-1 $-1 $161 $44 #
coedge $-1 $100 $100 $162 $163 reversed $63 $-1 #
face $-1 $-1 $164 $35 $-1 $165 forward single #
loop $-1 $166 $167 $65 #
cone-surface $-1 66.738724787650341 2.4705900391814097 6.2557463824363353 -0.6560590369687036 0 -0.75470957328743171 0.37735478664371586 0 -0.3280295184843518 1 I I -0.70710678118654746 0.70710678118654746 0.5 forward I I I I #
loop $-1 $-1 $168 $45 #
coedge $-1 $105 $105 $169 $170 reversed $66 $-1 #
face $-1 $171 $172 $36 $-1 $173 reversed single #
loop $-1 $-1 $174 $68 #
plane-surface $-1 -77.248451185644086 27.717247733044644 9.3067338342146968 -0.84804810408105047 0 0.52991925155115449 0.52991925155115449 0 0.84804810408105047 forward_v I I I I #
coedge $-1 $175 $176 $177 $178 reversed $69 $-1 #
face $-1 $-1 $179 $37 $-1 $180 forward single #
loop $-1 $181 $182 $71 #
cone-surface $-1 -73.354352613532697 22.616679927283627 11.417924673232719 0.84804810408105047 0 -0.52991925155115449 0.13247981288778862 0 0.21201202602026262 1 I I -0.70710678118654746 0.70710678118654746 0.25 forward I I I I #
loop $-1 $-1 $183 $47 #
coedge $-1 $114 $114 $184 $185 reversed $72 $-1 #
face $-1 $-1 $186 $38 $-1 $187 forward single #
loop $-1 $188 $189 $74 #
cone-surface $-1 -73.354352613532697 27.717247733044644 11.417924673232719 0.84804810408105047 0 -0.52991925155115449 0.13247981288778862 0 0.21201202602026262 1 I I -0.70710678118654746 0.70710678118654746 0.25 forward I I I I #
loop $-1 $-1 $190 $48 #
coedge $-1 $119 $119 $191 $192 reversed $75 $-1 #
face $-1 $-1 $193 $39 $-1 $194 forward single #
loop $-1 $195 $196 $77 #
cone-surface $-1 -73.354352613532697 32.817815538805661 11.417924673232719 0.84804810408105047 0 -0.52991925155115449 0.13247981288778862 0 0.21201202602026262 1 I I -0.70710678118654746 0.70710678118654746 0.25 forward I I I I #
loop $-1 $-1 $197 $49 #
coedge $-1 $124 $124 $198 $199 reversed $78 $-1 #
face $-1 $200 $201 $30 $-1 $202 reversed single #
loop $-1 $-1 $203 $80 #
plane-surface $-1 0 -52.916851105016804 0 0 1 0 0 0 1 forward_v I I I I #
coedge $-1 $204 $205 $206 $207 forward $81 $-1 #
coedge $-1 $208 $83 $209 $210 forward $51 $-1 #
coedge $-1 $83 $208 $211 $212 forward $51 $-1 #
coedge $-1 $213 $214 $83 $132 reversed $215 $-1 #
edge $-1 $216 -52.916851105016804 $217 52.916851105016804 $131 $218 forward 7 unknown #
face $-1 $219 $220 $31 $-1 $221 reversed single #
loop $-1 $-1 $222 $84 #
plane-surface $-1 0 0 -15.84340244043603 0 0 1 1 0 0 forward_v I I I I #
coedge $-1 $223 $224 $225 $226 reversed $85 $-1 #
coedge $-1 $227 $87 $224 $228 forward $54 $-1 #
coedge $-1 $87 $227 $229 $230 reversed $54 $-1 #
coedge $-1 $231 $225 $87 $140 forward $220 $-1 #
edge $-1 $232 13.93443278073056 $233 30.633089809767682 $139 $234 forward 7 unknown #
face $-1 $235 $236 $32 $-1 $237 reversed single #
loop $-1 $-1 $147 $88 #
plane-surface $-1 77.248451185644086 0 0 -1 0 0 0 0 1 forward_v I I I I #
coedge $-1 $238 $239 $240 $241 reversed $89 $-1 #
coedge $-1 $242 $91 $243 $244 reversed $57 $-1 #
coedge $-1 $91 $242 $239 $245 forward $57 $-1 #
coedge $-1 $246 $247 $91 $148 forward $142 $-1 #
edge $-1 $248 -30.633089809767682 $249 -13.93443278073056 $147 $250 forward 7 unknown #
face $-1 $251 $252 $33 $-1 $253 forward single #
loop $-1 $-1 $254 $92 #
plane-surface $-1 62.007248907134311 -6.1631058721768852 218.32468836436493 0 1 0 0.6560590369687036 0 0.75470957328743171 forward_v I I I I #
coedge $-1 $255 $256 $257 $258 reversed $93 $-1 #
coedge $-1 $154 $95 $259 $260 reversed $60 $-1 #
coedge $-1 $95 $153 $255 $261 reversed $60 $-1 #
coedge $-1 $257 $262 $95 $156 forward $252 $-1 #
edge $-1 $263 -46.24482673207693 $264 -28.439316398727257 $155 $265 forward 7 unknown #
loop $-1 $-1 $162 $96 #
plane-surface $-1 -39.351840077220828 -0.11951873422607662 101.72439710150003 0.6560590369687036 0 0.75470957328743171 0.75470957328743171 0 -0.6560590369687036 forward_v I I I I #
loop $-1 $-1 $266 $62 #
coedge $-1 $160 $160 $161 $267 reversed $97 $-1 #
coedge $-1 $161 $161 $160 $267 forward $99 $-1 #
coedge $-1 $162 $162 $100 $163 forward $157 $-1 #
edge $-1 $268 0 $268 6.2831853071796004 $162 $269 forward 7 unknown #
loop $-1 $-1 $169 $101 #
plane-surface $-1 -39.351840077220828 -0.11951873422607662 101.72439710150003 0.6560590369687036 0 0.75470957328743171 0.75470957328743171 0 -0.6560590369687036 forward_v I I I I #
loop $-1 $-1 $270 $65 #
coedge $-1 $167 $167 $168 $271 reversed $102 $-1 #
coedge $-1 $168 $168 $167 $271 forward $104 $-1 #
coedge $-1 $169 $169 $105 $170 forward $164 $-1 #
edge $-1 $272 0 $272 6.2831853071796004 $169 $273 forward 7 unknown #
face $-1 $274 $275 $36 $-1 $276 reversed single #
loop $-1 $-1 $277 $106 #
plane-surface $-1 -208.26925632801016 36.218194075979675 91.177616705779513 0 -1 0 0.84804810408105047 0 -0.52991925155115449 forward_v I I I I #
coedge $-1 $278 $279 $280 $281 reversed $107 $-1 #
coedge $-1 $176 $109 $282 $283 reversed $69 $-1 #
coedge $-1 $109 $175 $278 $284 reversed $69 $-1 #
coedge $-1 $280 $285 $109 $178 forward $286 $-1 #
edge $-1 $287 26.886176978360993 $288 30.97074071805622 $177 $289 forward 7 unknown #
loop $-1 $-1 $184 $110 #
plane-surface $-1 -77.248451185644086 27.717247733044644 9.3067338342146968 -0.84804810408105047 0 0.52991925155115449 0.52991925155115449 0 0.84804810408105047 forward_v I I I I #
loop $-1 $-1 $290 $71 #
coedge $-1 $182 $182 $183 $291 reversed $111 $-1 #
coedge $-1 $183 $183 $182 $291 forward $113 $-1 #
coedge $-1 $184 $184 $114 $185 forward $179 $-1 #
edge $-1 $292 0 $292 6.2831853071796004 $184 $293 forward 7 unknown #
loop $-1 $-1 $191 $115 #
plane-surface $-1 -77.248451185644086 27.717247733044644 9.3067338342146968 -0.84804810408105047 0 0.52991925155115449 0.52991925155115449 0 0.84804810408105047 forward_v I I I I #
loop $-1 $-1 $294 $74 #
coedge $-1 $189 $189 $190 $295 reversed $116 $-1 #
coedge $-1 $190 $190 $189 $295 forward $118 $-1 #
coedge $-1 $191 $191 $119 $192 forward $186 $-1 #
edge $-1 $296 0 $296 6.2831853071796004 $191 $297 forward 7 unknown #
loop $-1 $-1 $198 $120 #
plane-surface $-1 -77.248451185644086 27.717247733044644 9.3067338342146968 -0.84804810408105047 0 0.52991925155115449 0.52991925155115449 0 0.84804810408105047 forward_v I I I I #
loop $-1 $-1 $298 $77 #
coedge $-1 $196 $196 $197 $299 reversed $121 $-1 #
coedge $-1 $197 $197 $196 $299 forward $123 $-1 #
coedge $-1 $198 $198 $124 $199 forward $193 $-1 #
edge $-1 $300 0 $300 6.2831853071796004 $198 $301 forward 7 unknown #
face $-1 $302 $303 $30 $-1 $304 reversed single #
loop $-1 $-1 $305 $125 #
plane-surface $-1 -77.248451185644086 0 0 1 0 0 0 0 -1 forward_v I I I I #
coedge $-1 $306 $211 $307 $308 forward $126 $-1 #
coedge $-1 $309 $128 $306 $310 forward $81 $-1 #
coedge $-1 $128 $309 $311 $312 forward $81 $-1 #
coedge $-1 $214 $213 $128 $207 reversed $215 $-1 #
edge $-1 $313 -52.916851105016804 $314 52.916851105016804 $206 $315 forward 7 unknown #
coedge $-1 $130 $129 $316 $317 forward $51 $-1 #
coedge $-1 $318 $319 $129 $210 reversed $303 $-1 #
edge $-1 $217 -77.248451185644086 $320 77.248451185644086 $209 $321 forward 7 unknown #
coedge $-1 $203 $322 $130 $212 reversed $126 $-1 #
edge $-1 $323 -77.248451185644086 $216 77.248451185644086 $211 $324 forward 7 unknown #
coedge $-1 $206 $131 $322 $325 forward $215 $-1 #
coedge $-1 $131 $206 $318 $326 reversed $215 $-1 #
loop $-1 $-1 $213 $302 #
vertex $-1 $132 $327 #
vertex $-1 $132 $328 #
straight-curve $-1 77.248451185644086 0 15.84340244043603 0 1 0 I I #
face $-1 $329 $330 $31 $-1 $331 reversed single #
loop $-1 $-1 $225 $133 #
plane-surface $-1 77.248451185644086 0 0 -1 0 0 0 0 1 forward_v I I I I #
coedge $-1 $332 $333 $223 $334 forward $134 $-1 #
coedge $-1 $335 $136 $222 $334 reversed $85 $-1 #
coedge $-1 $136 $335 $137 $228 reversed $85 $-1 #
coedge $-1 $139 $336 $136 $226 forward $220 $-1 #
edge $-1 $337 -9.048126663357813 $232 -4.5424248907986184 $225 $338 forward 7 unknown #
coedge $-1 $138 $137 $339 $340 reversed $54 $-1 #
edge $-1 $232 -77.248451185644086 $341 77.248451185644086 $224 $342 forward 7 unknown #
coedge $-1 $343 $344 $138 $230 forward $330 $-1 #
edge $-1 $233 -77.248451185644086 $345 77.248451185644086 $229 $346 forward 7 unknown #
coedge $-1 $336 $139 $344 $347 forward $220 $-1 #
vertex $-1 $140 $348 #
vertex $-1 $347 $349 #
straight-curve $-1 77.248451185644086 -22.283761295249121 -11.337700667876835 0 -1 0 I I #
face $-1 $350 $351 $32 $-1 $352 reversed single #
loop $-1 $-1 $353 $141 #
plane-surface $-1 0 0 -15.84340244043603 0 0 1 1 0 0 forward_v I I I I #
coedge $-1 $354 $144 $353 $355 reversed $89 $-1 #
coedge $-1 $144 $354 $146 $245 reversed $89 $-1 #
coedge $-1 $356 $357 $144 $241 forward $351 $-1 #
edge $-1 $358 -9.048126663357813 $359 -4.5424248907986184 $240 $360 forward 7 unknown #
coedge $-1 $146 $145 $356 $361 reversed $57 $-1 #
coedge $-1 $362 $363 $145 $244 forward $364 $-1 #
edge $-1 $365 -77.248451185644086 $248 77.248451185644086 $243 $366 forward 7 unknown #
edge $-1 $359 -77.248451185644086 $249 77.248451185644086 $239 $367 forward 7 unknown #
coedge $-1 $368 $147 $354 $369 forward $142 $-1 #
coedge $-1 $147 $368 $362 $370 reversed $142 $-1 #
vertex $-1 $370 $371 #
vertex $-1 $148 $372 #
straight-curve $-1 77.248451185644086 22.283761295249121 -11.337700667876835 0 -1 0 I I #
face $-1 $-1 $373 $33 $-1 $374 reversed single #
loop $-1 $-1 $155 $149 #
plane-surface $-1 0 0 15.84340244043603 0 0 1 1 0 0 forward_v I I I I #
coedge $-1 $375 $376 $377 $378 reversed $150 $-1 #
coedge $-1 $379 $152 $154 $261 forward $93 $-1 #
coedge $-1 $152 $379 $375 $380 forward $93 $-1 #
coedge $-1 $377 $155 $152 $258 forward $252 $-1 #
edge $-1 $264 -5.9838277708377703 $381 6.1033465050638469 $257 $382 forward 7 unknown #
coedge $-1 $383 $384 $153 $260 forward $373 $-1 #
edge $-1 $385 -108.79703606503759 $263 -93.318941741746443 $259 $386 forward 7 unknown #
edge $-1 $264 130.90436960959175 $385 154.4969023712882 $154 $387 forward 7 unknown #
coedge $-1 $155 $377 $383 $388 forward $252 $-1 #
vertex $-1 $260 $389 #
vertex $-1 $156 $390 #
straight-curve $-1 31.003624453567156 5.924068403724732 15.843402440436023 -1 0 0 I I #
coedge $-1 $266 $266 $-1 $391 reversed $159 $-1 #
edge $-1 $392 0 $392 6.2831853071796004 $160 $393 forward 7 unknown #
vertex $-1 $163 $394 #
ellipse-curve $-1 68.345696018969235 -2.7096275076335701 8.1043552787904485 0.6560590369687036 0 0.75470957328743171 0.75470957328743171 0 -0.6560590369687036 1 I I #
coedge $-1 $270 $270 $-1 $395 reversed $166 $-1 #
edge $-1 $396 0 $396 6.2831853071796004 $167 $397 forward 7 unknown #
vertex $-1 $170 $398 #
ellipse-curve $-1 68.345696018969235 2.4705900391814097 8.1043552787904485 0.6560590369687036 0 0.75470957328743171 0.75470957328743171 0 -0.6560590369687036 1 I I #
face $-1 $-1 $286 $36 $-1 $399 forward single #
loop $-1 $-1 $400 $171 #
plane-surface $-1 -77.248451185644086 0 0 1 0 0 0 0 -1 forward_v I I I I #
coedge $-1 $401 $402 $403 $404 reversed $172 $-1 #
coedge $-1 $405 $174 $176 $284 forward $107 $-1 #
coedge $-1 $174 $405 $401 $406 forward $107 $-1 #
coedge $-1 $403 $177 $174 $281 forward $286 $-1 #
edge $-1 $288 5.3576775235872915 $407 22.359570209457353 $280 $408 forward 7 unknown #
coedge $-1 $409 $410 $175 $283 forward $275 $-1 #
edge $-1 $411 -36.28207451867506 $287 -29.745405912453727 $282 $412 forward 7 unknown #
edge $-1 $288 -7.7078983783644031 $411 0 $176 $413 forward 7 unknown #
coedge $-1 $177 $403 $409 $414 forward $286 $-1 #
loop $-1 $-1 $403 $274 #
vertex $-1 $283 $415 #
vertex $-1 $178 $416 #
straight-curve $-1 -104.13462816400508 19.216301390109614 15.84340244043603 1 0 0 I I #
coedge $-1 $290 $290 $-1 $417 reversed $181 $-1 #
edge $-1 $418 0 $418 6.2831853071796004 $182 $419 forward 7 unknown #
vertex $-1 $185 $420 #
ellipse-curve $-1 -75.206169315796473 22.616679927283627 12.575068137325363 -0.84804810408105047 0 0.52991925155115449 0.26495962577557725 0 0.42402405204052523 1 I I #
coedge $-1 $294 $294 $-1 $421 reversed $188 $-1 #
edge $-1 $422 0 $422 6.2831853071796004 $189 $423 forward 7 unknown #
vertex $-1 $192 $424 #
ellipse-curve $-1 -75.206169315796473 27.717247733044644 12.575068137325363 -0.84804810408105047 0 0.52991925155115449 0.26495962577557725 0 0.42402405204052523 1 I I #
coedge $-1 $298 $298 $-1 $425 reversed $195 $-1 #
edge $-1 $426 0 $426 6.2831853071796004 $196 $427 forward 7 unknown #
vertex $-1 $199 $428 #
ellipse-curve $-1 -75.206169315796473 32.817815538805661 12.575068137325363 -0.84804810408105047 0 0.52991925155115449 0.26495962577557725 0 0.42402405204052523 1 I I #
face $-1 $-1 $215 $30 $-1 $429 reversed single #
loop $-1 $-1 $318 $200 #
plane-surface $-1 0 52.916851105016804 0 0 -1 0 0 0 -1 forward_v I I I I #
coedge $-1 $430 $316 $319 $431 forward $201 $-1 #
coedge $-1 $322 $203 $204 $310 reversed $126 $-1 #
coedge $-1 $316 $430 $203 $308 reversed $201 $-1 #
edge $-1 $323 -15.84340244043603 $432 15.84340244043603 $307 $433 forward 7 unknown #
coedge $-1 $205 $204 $430 $434 forward $81 $-1 #
edge $-1 $314 -77.248451185644086 $432 77.248451185644086 $306 $435 forward 7 unknown #
coedge $-1 $319 $318 $205 $312 reversed $303 $-1 #
edge $-1 $436 -77.248451185644086 $313 77.248451185644086 $311 $437 forward 7 unknown #
vertex $-1 $207 $438 #
vertex $-1 $325 $439 #
straight-curve $-1 77.248451185644086 0 -15.84340244043603 0 -1 0 I I #
coedge $-1 $305 $307 $208 $317 reversed $201 $-1 #
edge $-1 $320 -52.916851105016804 $323 52.916851105016804 $316 $440 forward 7 unknown #
coedge $-1 $311 $209 $214 $326 forward $303 $-1 #
coedge $-1 $209 $311 $305 $431 reversed $303 $-1 #
vertex $-1 $210 $441 #
straight-curve $-1 0 52.916851105016804 15.84340244043603 -1 0 0 I I #
coedge $-1 $211 $306 $213 $325 reversed $126 $-1 #
vertex $-1 $317 $442 #
straight-curve $-1 0 -52.916851105016804 15.84340244043603 1 0 0 I I #
edge $-1 $216 -15.84340244043603 $314 15.84340244043603 $213 $443 forward 7 unknown #
edge $-1 $217 -15.84340244043603 $313 15.84340244043603 $214 $444 forward 7 unknown #
point $-1 77.248451185644086 -52.916851105016804 15.84340244043603 #
point $-1 77.248451185644086 52.916851105016804 15.84340244043603 #
face $-1 $-1 $445 $31 $-1 $446 reversed single #
loop $-1 $-1 $229 $219 #
plane-surface $-1 0 -52.916851105016804 0 0 1 0 0 0 1 forward_v I I I I #
coedge $-1 $447 $222 $336 $448 forward $134 $-1 #
coedge $-1 $222 $447 $449 $450 forward $134 $-1 #
edge $-1 $451 -77.248451185644086 $337 77.248451185644086 $222 $452 forward 7 unknown #
coedge $-1 $224 $223 $453 $454 reversed $85 $-1 #
coedge $-1 $225 $231 $332 $448 reversed $220 $-1 #
vertex $-1 $448 $455 #
straight-curve $-1 77.248451185644086 -36.218194075979682 -6.7952757770782162 0 0 1 I I #
coedge $-1 $453 $456 $227 $340 forward $445 $-1 #
edge $-1 $345 -30.633089809767682 $341 -13.93443278073056 $339 $457 forward 7 unknown #
vertex $-1 $340 $458 #
straight-curve $-1 0 -36.218194075979682 -11.337700667876835 -1 0 0 I I #
coedge $-1 $459 $229 $456 $460 forward $330 $-1 #
coedge $-1 $229 $459 $231 $347 reversed $330 $-1 #
vertex $-1 $460 $461 #
straight-curve $-1 0 -52.916851105016804 -11.337700667876835 -1 0 0 I I #
edge $-1 $233 11.337700667876835 $462 15.84340244043603 $231 $463 forward 7 unknown #
point $-1 77.248451185644086 -36.218194075979682 -11.337700667876835 #
point $-1 77.248451185644086 -52.916851105016804 -11.337700667876835 #
face $-1 $-1 $364 $32 $-1 $464 reversed single #
loop $-1 $-1 $356 $235 #
plane-surface $-1 -77.248451185644086 0 0 1 0 0 0 0 -1 forward_v I I I I #
coedge $-1 $465 $466 $238 $355 forward $236 $-1 #
coedge $-1 $239 $238 $246 $369 reversed $89 $-1 #
edge $-1 $467 -77.248451185644086 $358 77.248451185644086 $353 $468 forward 7 unknown #
coedge $-1 $469 $240 $242 $361 forward $351 $-1 #
coedge $-1 $240 $469 $465 $470 reversed $351 $-1 #
vertex $-1 $470 $471 #
vertex $-1 $361 $472 #
straight-curve $-1 -77.248451185644086 36.218194075979682 -6.7952757770782162 0 0 1 I I #
edge $-1 $359 13.93443278073056 $365 30.633089809767682 $356 $473 forward 7 unknown #
coedge $-1 $474 $243 $247 $370 forward $364 $-1 #
coedge $-1 $243 $474 $469 $475 reversed $364 $-1 #
loop $-1 $-1 $243 $350 #
vertex $-1 $475 $476 #
straight-curve $-1 0 52.916851105016804 -11.337700667876835 1 0 0 I I #
straight-curve $-1 0 36.218194075979682 -11.337700667876835 1 0 0 I I #
coedge $-1 $247 $246 $466 $477 reversed $142 $-1 #
edge $-1 $249 4.5424248907986184 $467 9.048126663357813 $246 $478 forward 7 unknown #
edge $-1 $248 11.337700667876835 $479 15.84340244043603 $247 $480 forward 7 unknown #
point $-1 77.248451185644086 52.916851105016804 -11.337700667876835 #
point $-1 77.248451185644086 36.218194075979682 -11.337700667876835 #
loop $-1 $-1 $259 $251 #
plane-surface $-1 77.248451185644086 0 0 -1 0 0 0 0 1 forward_v I I I I #
coedge $-1 $376 $254 $256 $380 reversed $150 $-1 #
coedge $-1 $254 $375 $481 $482 reversed $150 $-1 #
coedge $-1 $262 $257 $254 $378 forward $252 $-1 #
edge $-1 $381 28.439316398727257 $483 46.24482673207693 $377 $484 forward 7 unknown #
coedge $-1 $256 $255 $384 $485 reversed $93 $-1 #
edge $-1 $486 -154.4969023712882 $381 -130.90436960959175 $375 $487 forward 7 unknown #
vertex $-1 $258 $488 #
straight-curve $-1 59.442940852294399 -0.059759367113038309 15.843402440436044 0 -1 0 I I #
coedge $-1 $481 $259 $262 $388 reversed $373 $-1 #
coedge $-1 $259 $481 $379 $485 forward $373 $-1 #
vertex $-1 $260 $489 #
straight-curve $-1 77.248451185644086 5.924068403724732 109.16234418218247 0 0 1 I I #
straight-curve $-1 -39.351840077220828 5.924068403724732 101.72439710150003 0.75470957328743171 0 -0.6560590369687036 I I #
edge $-1 $483 -6.1631058721768852 $263 5.924068403724732 $383 $490 forward 7 unknown #
point $-1 77.248451185644086 5.924068403724732 15.84340244043603 #
point $-1 59.442940852294413 5.924068403724732 15.843402440436037 #
edge $-1 $491 1 $491 0 $266 $-1 forward 7 unknown #
vertex $-1 $267 $492 #
ellipse-curve $-1 67.066754306134698 -2.7096275076335701 6.6331011690800512 0.6560590369687036 0 0.75470957328743171 0.75470957328743171 0 -0.6560590369687036 1 I I #
point $-1 69.100405592256678 -2.7096275076335701 7.4482962418217653 #
edge $-1 $493 1 $493 0 $270 $-1 forward 7 unknown #
vertex $-1 $271 $494 #
ellipse-curve $-1 67.066754306134698 2.4705900391814097 6.6331011690800512 0.6560590369687036 0 0.75470957328743171 0.75470957328743171 0 -0.6560590369687036 1 I I #
point $-1 69.100405592256678 2.4705900391814097 7.4482962418217653 #
plane-surface $-1 0 0 15.84340244043603 0 0 1 1 0 0 forward_v I I I I #
coedge $-1 $410 $409 $402 $495 forward $275 $-1 #
coedge $-1 $402 $277 $279 $406 reversed $172 $-1 #
coedge $-1 $277 $401 $400 $495 reversed $172 $-1 #
coedge $-1 $285 $280 $277 $404 forward $286 $-1 #
edge $-1 $407 -30.97074071805622 $496 -26.886176978360993 $403 $497 forward 7 unknown #
coedge $-1 $279 $278 $410 $498 reversed $107 $-1 #
edge $-1 $499 0 $407 7.7078983783644031 $401 $500 forward 7 unknown #
vertex $-1 $281 $501 #
straight-curve $-1 -73.163887445948859 13.858623866522322 15.84340244043603 0 1 0 I I #
coedge $-1 $400 $282 $285 $414 reversed $275 $-1 #
coedge $-1 $282 $400 $405 $498 forward $275 $-1 #
vertex $-1 $283 $502 #
straight-curve $-1 -77.248451185644086 19.216301390109614 45.588808352889757 0 0 1 I I #
straight-curve $-1 -77.248451185644086 19.216301390109614 9.3067338342146968 -0.52991925155115449 0 -0.84804810408105047 I I #
edge $-1 $496 -36.218194075979675 $287 -19.216301390109614 $409 $503 forward 7 unknown #
point $-1 -77.248451185644086 19.216301390109614 15.84340244043603 #
point $-1 -73.163887445948859 19.216301390109614 15.84340244043603 #
edge $-1 $504 1 $504 0 $290 $-1 forward 7 unknown #
vertex $-1 $291 $505 #
ellipse-curve $-1 -73.566364639552958 22.616679927283627 11.550404486120508 -0.84804810408105047 0 0.52991925155115449 0.26495962577557725 0 0.42402405204052523 1 I I #
point $-1 -74.941209690020898 22.616679927283627 12.999092189365891 #
edge $-1 $506 1 $506 0 $294 $-1 forward 7 unknown #
vertex $-1 $295 $507 #
ellipse-curve $-1 -73.566364639552958 27.717247733044644 11.550404486120508 -0.84804810408105047 0 0.52991925155115449 0.26495962577557725 0 0.42402405204052523 1 I I #
point $-1 -74.941209690020898 27.717247733044644 12.999092189365891 #
edge $-1 $508 1 $508 0 $298 $-1 forward 7 unknown #
vertex $-1 $299 $509 #
ellipse-curve $-1 -73.566364639552958 32.817815538805661 11.550404486120508 -0.84804810408105047 0 0.52991925155115449 0.26495962577557725 0 0.42402405204052523 1 I I #
point $-1 -74.941209690020898 32.817815538805661 12.999092189365891 #
plane-surface $-1 77.248451185644086 0 0 -1 0 0 0 0 1 forward_v I I I I #
coedge $-1 $307 $305 $309 $434 reversed $201 $-1 #
edge $-1 $320 -15.84340244043603 $436 15.84340244043603 $319 $510 forward 7 unknown #
vertex $-1 $434 $511 #
straight-curve $-1 -77.248451185644086 -52.916851105016804 0 0 0 -1 I I #
edge $-1 $432 -52.916851105016804 $436 52.916851105016804 $430 $512 forward 7 unknown #
straight-curve $-1 0 -52.916851105016804 -15.84340244043603 -1 0 0 I I #
vertex $-1 $312 $513 #
straight-curve $-1 0 52.916851105016804 -15.84340244043603 1 0 0 I I #
point $-1 77.248451185644086 52.916851105016804 -15.84340244043603 #
point $-1 77.248451185644086 -52.916851105016804 -15.84340244043603 #
straight-curve $-1 -77.248451185644086 0 15.84340244043603 0 -1 0 I I #
point $-1 -77.248451185644086 52.916851105016804 15.84340244043603 #
point $-1 -77.248451185644086 -52.916851105016804 15.84340244043603 #
straight-curve $-1 77.248451185644086 -52.916851105016804 0 0 0 -1 I I #
straight-curve $-1 77.248451185644086 52.916851105016804 0 0 0 -1 I I #
loop $-1 $-1 $453 $329 #
plane-surface $-1 -77.248451185644086 0 0 1 0 0 0 0 -1 forward_v I I I I #
coedge $-1 $333 $332 $459 $514 forward $134 $-1 #
edge $-1 $337 36.218194075979682 $462 52.916851105016804 $336 $515 forward 7 unknown #
coedge $-1 $456 $453 $333 $450 reversed $445 $-1 #
edge $-1 $516 -52.916851105016804 $451 -36.218194075979682 $449 $517 forward 7 unknown #
vertex $-1 $454 $518 #
straight-curve $-1 0 -36.218194075979682 -15.84340244043603 1 0 0 I I #
coedge $-1 $449 $339 $335 $454 forward $445 $-1 #
edge $-1 $341 4.5424248907986184 $451 9.048126663357813 $453 $519 forward 7 unknown #
point $-1 77.248451185644086 -36.218194075979682 -15.84340244043603 #
coedge $-1 $339 $449 $343 $460 reversed $445 $-1 #
straight-curve $-1 -77.248451185644086 -22.283761295249121 -11.337700667876835 0 1 0 I I #
point $-1 -77.248451185644086 -36.218194075979682 -11.337700667876835 #
coedge $-1 $344 $343 $447 $514 reversed $330 $-1 #
edge $-1 $345 11.337700667876835 $516 15.84340244043603 $456 $520 forward 7 unknown #
point $-1 -77.248451185644086 -52.916851105016804 -11.337700667876835 #
vertex $-1 $347 $521 #
straight-curve $-1 77.248451185644086 -52.916851105016804 0 0 0 -1 I I #
plane-surface $-1 0 52.916851105016804 0 0 -1 0 0 0 -1 forward_v I I I I #
coedge $-1 $522 $353 $357 $470 forward $236 $-1 #
coedge $-1 $353 $522 $368 $477 forward $236 $-1 #
vertex $-1 $355 $523 #
straight-curve $-1 0 36.218194075979682 -15.84340244043603 -1 0 0 I I #
coedge $-1 $357 $356 $363 $475 forward $351 $-1 #
edge $-1 $358 36.218194075979682 $524 52.916851105016804 $357 $525 forward 7 unknown #
point $-1 -77.248451185644086 36.218194075979682 -15.84340244043603 #
point $-1 -77.248451185644086 36.218194075979682 -11.337700667876835 #
straight-curve $-1 -77.248451185644086 22.283761295249121 -11.337700667876835 0 1 0 I I #
coedge $-1 $363 $362 $522 $526 reversed $364 $-1 #
edge $-1 $365 11.337700667876835 $524 15.84340244043603 $363 $527 forward 7 unknown #
point $-1 -77.248451185644086 52.916851105016804 -11.337700667876835 #
edge $-1 $479 -52.916851105016804 $467 -36.218194075979682 $368 $528 forward 7 unknown #
straight-curve $-1 77.248451185644086 36.218194075979682 -6.7952757770782162 0 0 -1 I I #
vertex $-1 $477 $529 #
straight-curve $-1 77.248451185644086 52.916851105016804 0 0 0 -1 I I #
coedge $-1 $384 $383 $376 $482 forward $373 $-1 #
edge $-1 $483 93.318941741746443 $486 108.79703606503759 $481 $530 forward 7 unknown #
vertex $-1 $388 $531 #
straight-curve $-1 31.003624453567156 -6.1631058721768852 15.843402440436023 1 0 0 I I #
edge $-1 $486 -6.1033465050638469 $385 5.9838277708377703 $384 $532 forward 7 unknown #
vertex $-1 $485 $533 #
straight-curve $-1 -39.351840077220828 -6.1631058721768852 101.72439710150003 -0.75470957328743171 0 0.6560590369687036 I I #
point $-1 59.442940852294413 -6.1631058721768852 15.843402440436037 #
point $-1 77.248451185644086 5.924068403724732 0.36530811714487754 #
straight-curve $-1 77.248451185644086 0 15.84340244043603 0 1 0 I I #
vertex $-1 $391 $534 #
point $-1 67.821463879422126 -2.7096275076335701 5.9770421321113476 #
vertex $-1 $395 $535 #
point $-1 67.821463879422126 2.4705900391814097 5.9770421321113476 #
edge $-1 $496 29.745405912453727 $499 36.28207451867506 $400 $536 forward 7 unknown #
vertex $-1 $414 $537 #
straight-curve $-1 -104.13462816400508 36.218194075979675 15.84340244043603 -1 0 0 I I #
edge $-1 $499 -22.359570209457353 $411 -5.3576775235872915 $410 $538 forward 7 unknown #
vertex $-1 $498 $539 #
straight-curve $-1 -77.248451185644086 36.218194075979675 9.3067338342146968 0.52991925155115449 0 0.84804810408105047 I I #
point $-1 -73.163887445948859 36.218194075979675 15.84340244043603 #
point $-1 -77.248451185644086 19.216301390109614 9.3067338342146968 #
straight-curve $-1 -77.248451185644086 0 15.84340244043603 0 -1 0 I I #
vertex $-1 $417 $540 #
point $-1 -73.301405013777384 22.616679927283627 11.974428538161032 #
vertex $-1 $421 $541 #
point $-1 -73.301405013777384 27.717247733044644 11.974428538161032 #
vertex $-1 $425 $542 #
point $-1 -73.301405013777384 32.817815538805661 11.974428538161032 #
straight-curve $-1 -77.248451185644086 52.916851105016804 0 0 0 -1 I I #
point $-1 -77.248451185644086 -52.916851105016804 -15.84340244043603 #
straight-curve $-1 -77.248451185644086 0 -15.84340244043603 0 1 0 I I #
point $-1 -77.248451185644086 52.916851105016804 -15.84340244043603 #
edge $-1 $462 -77.248451185644086 $516 77.248451185644086 $459 $543 forward 7 unknown #
straight-curve $-1 77.248451185644086 0 -15.84340244043603 0 -1 0 I I #
vertex $-1 $450 $544 #
straight-curve $-1 -77.248451185644086 0 -15.84340244043603 0 1 0 I I #
point $-1 -77.248451185644086 -36.218194075979682 -15.84340244043603 #
straight-curve $-1 -77.248451185644086 -36.218194075979682 -6.7952757770782162 0 0 -1 I I #
straight-curve $-1 -77.248451185644086 -52.916851105016804 0 0 0 -1 I I #
point $-1 77.248451185644086 -52.916851105016804 -15.84340244043603 #
coedge $-1 $466 $465 $474 $526 forward $236 $-1 #
point $-1 77.248451185644086 36.218194075979682 -15.84340244043603 #
vertex $-1 $526 $545 #
straight-curve $-1 -77.248451185644086 0 -15.84340244043603 0 1 0 I I #
edge $-1 $524 -77.248451185644086 $479 77.248451185644086 $474 $546 forward 7 unknown #
straight-curve $-1 -77.248451185644086 52.916851105016804 0 0 0 -1 I I #
straight-curve $-1 77.248451185644086 0 -15.84340244043603 0 -1 0 I I #
point $-1 77.248451185644086 52.916851105016804 -15.84340244043603 #
straight-curve $-1 77.248451185644086 -6.1631058721768852 109.16234418218247 0 0 -1 I I #
point $-1 77.248451185644086 -6.1631058721768852 15.84340244043603 #
straight-curve $-1 77.248451185644086 -0.059759367113038309 0.36530811714487754 0 1 0 I I #
point $-1 77.248451185644086 -6.1631058721768852 0.36530811714487754 #
point $-1 66.410695269165984 -2.7096275076335701 5.8783915957926194 #
point $-1 66.410695269165984 2.4705900391814097 5.8783915957926194 #
straight-curve $-1 -77.248451185644086 36.218194075979675 45.588808352889757 0 0 -1 I I #
point $-1 -77.248451185644086 36.218194075979675 15.84340244043603 #
straight-curve $-1 -77.248451185644086 13.858623866522322 9.3067338342147057 0 -1 0 I I #
point $-1 -77.248451185644086 36.218194075979675 9.3067338342146968 #
point $-1 -73.142340587512436 22.616679927283627 11.28544486034493 #
point $-1 -73.142340587512436 27.717247733044644 11.28544486034493 #
point $-1 -73.142340587512436 32.817815538805661 11.28544486034493 #
straight-curve $-1 0 -52.916851105016804 -15.84340244043603 -1 0 0 I I #
point $-1 -77.248451185644086 -52.916851105016804 -15.84340244043603 #
point $-1 -77.248451185644086 52.916851105016804 -15.84340244043603 #
straight-curve $-1 0 52.916851105016804 -15.84340244043603 1 0 0 I I #
End-of-ACIS-data 