500 0 7 0           
7 Unknown 11 ACIS 5.0 NT 24 Thu Mar 25 21:20:13 1999 
-1 9.9999999999999995e-007 1e-010 
body $-1 $7 $-1 $8 #
body $-1 $9 $-1 $10 #
body $-1 $11 $-1 $12 #
body $-1 $13 $-1 $14 #
body $-1 $15 $-1 $16 #
body $-1 $17 $-1 $18 #
body $-1 $19 $-1 $20 #
lump $-1 $-1 $21 $0 #
transform $-1 1 0 0 0 1 0 0 0 1 78.378856776635033 35.516503354578596 11.737344275512717 1 rotate no_reflect no_shear #
lump $-1 $-1 $22 $1 #
transform $-1 1 0 0 0 1 0 0 0 1 78.378856776635033 35.516503354578596 11.737344275512717 1 rotate no_reflect no_shear #
lump $-1 $-1 $23 $2 #
transform $-1 1 0 0 0 1 0 0 0 1 78.378856776635033 35.516503354578596 11.737344275512717 1 rotate no_reflect no_shear #
lump $-1 $-1 $24 $3 #
transform $-1 1 0 0 0 1 0 0 0 1 78.378856776635033 35.516503354578596 11.737344275512717 1 rotate no_reflect no_shear #
lump $-1 $-1 $25 $4 #
transform $-1 1 0 0 0 1 0 0 0 1 78.378856776635033 35.516503354578596 11.737344275512717 1 rotate no_reflect no_shear #
lump $-1 $-1 $26 $5 #
transform $-1 1 0 0 0 1 0 0 0 1 78.378856776635033 35.516503354578596 11.737344275512717 1 rotate no_reflect no_shear #
lump $-1 $-1 $27 $6 #
transform $-1 1 0 0 0 1 0 0 0 1 78.378856776635033 35.516503354578596 11.737344275512717 1 rotate no_reflect no_shear #
shell $-1 $-1 $-1 $28 $-1 $7 #
shell $-1 $-1 $-1 $29 $-1 $9 #
shell $-1 $-1 $-1 $30 $-1 $11 #
shell $-1 $-1 $-1 $31 $-1 $13 #
shell $-1 $-1 $-1 $32 $-1 $15 #
shell $-1 $-1 $-1 $33 $-1 $17 #
shell $-1 $-1 $-1 $34 $-1 $19 #
face $-1 $35 $36 $21 $-1 $37 forward single #
face $-1 $38 $39 $22 $-1 $40 reversed single #
face $-1 $41 $42 $23 $-1 $43 reversed single #
face $-1 $44 $45 $24 $-1 $46 forward single #
face $-1 $47 $48 $25 $-1 $49 reversed single #
face $-1 $50 $51 $26 $-1 $52 forward single #
face $-1 $53 $54 $27 $-1 $55 forward single #
face $-1 $56 $57 $21 $-1 $58 reversed single #
loop $-1 $-1 $59 $28 #
plane-surface $-1 0 0 11.737344275512717 0 0 1 1 0 0 forward_v I I I I #
face $-1 $60 $61 $22 $-1 $62 reversed single #
loop $-1 $-1 $63 $29 #
plane-surface $-1 -73.628192919729258 0 8.655839167796854 0 0 1 1 0 0 forward_v I I I I #
face $-1 $64 $65 $23 $-1 $66 reversed single #
loop $-1 $-1 $67 $30 #
plane-surface $-1 39.722927332283113 -132.02618975974121 127.93236630824474 -1 0 0 0 -0.61566148304635926 0.78801074757464917 forward_v I I I I #
face $-1 $68 $69 $24 $-1 $70 forward single #
loop $-1 $71 $72 $31 #
cone-surface $-1 19.595670871823174 -29.069536837923149 5.8253473370528024 0 0.61566148304635926 -0.78801074757464917 1.5 0 0 1 I I 0 1 1.5 forward I I I I #
face $-1 $73 $74 $25 $-1 $75 reversed single #
loop $-1 $-1 $76 $32 #
plane-surface $-1 59.462970255535609 101.71744525825207 167.54756900585343 1 0 0 0 -0.73135370988377701 -0.68199835119979291 forward_v I I I I #
face $-1 $77 $78 $26 $-1 $79 forward single #
loop $-1 $80 $81 $33 #
cone-surface $-1 64.867509261564024 33.525339324087767 9.6817657745899446 0 -0.73135370988377701 -0.68199835119979291 0.5 0 0 1 I I 0 1 0.5 forward I I I I #
face $-1 $82 $83 $27 $-1 $84 forward single #
loop $-1 $85 $86 $34 #
cone-surface $-1 72.974317770606646 33.525339324087767 9.6817657745899446 0 -0.73135370988377701 -0.68199835119979291 0.5 0 0 1 I I 0 1 0.5 forward I I I I #
face $-1 $87 $88 $21 $-1 $89 reversed single #
loop $-1 $-1 $90 $35 #
plane-surface $-1 0 0 -11.737344275512717 0 0 1 1 0 0 forward_v I I I I #
coedge $-1 $91 $92 $93 $94 forward $36 $-1 #
face $-1 $95 $96 $22 $-1 $97 reversed single #
loop $-1 $-1 $98 $38 #
plane-surface $-1 -68.877529062823484 0 10.196591721654785 -1 0 0 0 0 1 forward_v I I I I #
coedge $-1 $99 $100 $101 $102 forward $39 $-1 #
face $-1 $103 $104 $23 $-1 $105 reversed single #
loop $-1 $-1 $106 $41 #
plane-surface $-1 19.595670871823174 -35.516503354578589 4.40560326303968 0 -0.61566148304635926 0.78801074757464917 1 0 0 forward_v I I I I #
coedge $-1 $107 $108 $109 $110 reversed $42 $-1 #
face $-1 $-1 $111 $24 $-1 $112 forward single #
loop $-1 $113 $114 $44 #
cone-surface $-1 19.595670871823174 -26.852924393385361 2.9882128441484213 0 0.61566148304635926 -0.78801074757464917 0.75 0 0 1 I I -0.70710678118654757 0.70710678118654757 0.75 forward I I I I #
loop $-1 $-1 $115 $31 #
coedge $-1 $72 $72 $116 $117 reversed $45 $-1 #
face $-1 $118 $119 $25 $-1 $120 forward single #
loop $-1 $-1 $121 $47 #
plane-surface $-1 68.920913516085321 -12.927890101830428 60.639066824673819 0 0.73135370988377701 0.68199835119979291 1 0 0 forward_v I I I I #
coedge $-1 $122 $123 $124 $125 reversed $48 $-1 #
face $-1 $-1 $126 $26 $-1 $127 forward single #
loop $-1 $128 $129 $50 #
cone-surface $-1 64.867509261564024 32.772737140684619 8.9799529017573452 0 -0.73135370988377701 -0.68199835119979291 0.25 0 0 1 I I -0.70710678118654746 0.70710678118654746 0.25 forward I I I I #
loop $-1 $-1 $130 $33 #
coedge $-1 $81 $81 $131 $132 reversed $51 $-1 #
face $-1 $-1 $133 $27 $-1 $134 forward single #
loop $-1 $135 $136 $53 #
cone-surface $-1 72.974317770606646 32.772737140684619 8.9799529017573452 0 -0.73135370988377701 -0.68199835119979291 0.25 0 0 1 I I -0.70710678118654746 0.70710678118654746 0.25 forward I I I I #
loop $-1 $-1 $137 $34 #
coedge $-1 $86 $86 $138 $139 reversed $54 $-1 #
face $-1 $140 $141 $21 $-1 $142 reversed single #
loop $-1 $-1 $143 $56 #
plane-surface $-1 0 -35.516503354578596 0 0 1 0 0 0 1 forward_v I I I I #
coedge $-1 $144 $145 $146 $147 forward $57 $-1 #
coedge $-1 $148 $59 $149 $150 forward $36 $-1 #
coedge $-1 $59 $148 $151 $152 forward $36 $-1 #
coedge $-1 $153 $154 $59 $94 reversed $155 $-1 #
edge $-1 $156 -35.516503354578596 $157 35.516503354578596 $93 $158 forward 7 unknown #
face $-1 $159 $160 $22 $-1 $161 reversed single #
loop $-1 $-1 $162 $60 #
plane-surface $-1 0 35.516503354578596 0 0 -1 0 0 0 -1 forward_v I I I I #
coedge $-1 $101 $163 $164 $165 reversed $61 $-1 #
coedge $-1 $166 $63 $167 $168 reversed $39 $-1 #
coedge $-1 $63 $166 $169 $170 reversed $39 $-1 #
coedge $-1 $171 $98 $63 $102 reversed $61 $-1 #
edge $-1 $172 -35.516503354578596 $173 35.516503354578596 $101 $174 forward 7 unknown #
face $-1 $175 $176 $23 $-1 $177 reversed single #
loop $-1 $-1 $178 $64 #
plane-surface $-1 -0.53158558863676575 -132.02618975974121 127.93236630824474 1 0 0 0 0.61566148304635926 -0.78801074757464917 forward_v I I I I #
coedge $-1 $179 $180 $181 $182 reversed $65 $-1 #
coedge $-1 $108 $67 $183 $184 reversed $42 $-1 #
coedge $-1 $67 $107 $179 $185 reversed $42 $-1 #
coedge $-1 $181 $186 $67 $110 forward $187 $-1 #
edge $-1 $188 30.496591525292011 $189 39.88079189409688 $109 $190 forward 7 unknown #
loop $-1 $-1 $116 $68 #
plane-surface $-1 19.595670871823174 -35.516503354578589 4.40560326303968 0 -0.61566148304635926 0.78801074757464917 1 0 0 forward_v I I I I #
loop $-1 $-1 $191 $44 #
coedge $-1 $114 $114 $115 $192 reversed $69 $-1 #
coedge $-1 $115 $115 $114 $192 forward $71 $-1 #
coedge $-1 $116 $116 $72 $117 forward $111 $-1 #
edge $-1 $193 7.2908965744313441e-016 $193 6.2831853071796013 $116 $194 forward 7 unknown #
face $-1 $195 $196 $25 $-1 $197 reversed single #
loop $-1 $-1 $124 $73 #
plane-surface $-1 0 0 11.737344275512717 0 0 1 1 0 0 forward_v I I I I #
coedge $-1 $198 $199 $200 $201 reversed $74 $-1 #
coedge $-1 $123 $76 $202 $203 reversed $48 $-1 #
coedge $-1 $76 $122 $198 $204 reversed $48 $-1 #
coedge $-1 $200 $205 $76 $125 forward $119 $-1 #
edge $-1 $206 15.342219274547439 $207 18.185019823664639 $124 $208 forward 7 unknown #
loop $-1 $-1 $131 $77 #
plane-surface $-1 68.920913516085321 -12.927890101830428 60.639066824673819 0 0.73135370988377701 0.68199835119979291 1 0 0 forward_v I I I I #
loop $-1 $-1 $209 $50 #
coedge $-1 $129 $129 $130 $210 reversed $78 $-1 #
coedge $-1 $130 $130 $129 $210 forward $80 $-1 #
coedge $-1 $131 $131 $81 $132 forward $126 $-1 #
edge $-1 $211 1.4027636633495638e-015 $211 6.2831853071796022 $131 $212 forward 7 unknown #
loop $-1 $-1 $138 $82 #
plane-surface $-1 68.920913516085321 -12.927890101830428 60.639066824673819 0 0.73135370988377701 0.68199835119979291 1 0 0 forward_v I I I I #
loop $-1 $-1 $213 $53 #
coedge $-1 $136 $136 $137 $214 reversed $83 $-1 #
coedge $-1 $137 $137 $136 $214 forward $85 $-1 #
coedge $-1 $138 $138 $86 $139 forward $133 $-1 #
edge $-1 $215 1.4027636633495638e-015 $215 6.2831853071796022 $138 $216 forward 7 unknown #
face $-1 $217 $218 $21 $-1 $219 reversed single #
loop $-1 $-1 $220 $87 #
plane-surface $-1 -78.378856776635033 0 0 1 0 0 0 0 -1 forward_v I I I I #
coedge $-1 $221 $151 $222 $223 forward $88 $-1 #
coedge $-1 $224 $90 $221 $225 forward $57 $-1 #
coedge $-1 $90 $224 $226 $227 forward $57 $-1 #
coedge $-1 $154 $153 $90 $147 reversed $155 $-1 #
edge $-1 $228 -35.516503354578596 $229 35.516503354578596 $146 $230 forward 7 unknown #
coedge $-1 $92 $91 $231 $232 forward $36 $-1 #
coedge $-1 $233 $234 $91 $150 reversed $218 $-1 #
edge $-1 $157 -78.378856776635033 $235 78.378856776635033 $149 $236 forward 7 unknown #
coedge $-1 $143 $237 $92 $152 reversed $88 $-1 #
edge $-1 $238 -78.378856776635033 $156 78.378856776635033 $151 $239 forward 7 unknown #
coedge $-1 $146 $93 $237 $240 forward $155 $-1 #
coedge $-1 $93 $146 $233 $241 reversed $155 $-1 #
loop $-1 $-1 $153 $217 #
vertex $-1 $94 $242 #
vertex $-1 $94 $243 #
straight-curve $-1 78.378856776635033 0 11.737344275512717 0 1 0 I I #
face $-1 $244 $245 $22 $-1 $246 forward single #
loop $-1 $-1 $247 $95 #
plane-surface $-1 -78.378856776635033 0 0 1 0 0 0 0 -1 forward_v I I I I #
coedge $-1 $169 $248 $171 $249 forward $96 $-1 #
coedge $-1 $98 $171 $250 $251 reversed $61 $-1 #
coedge $-1 $252 $167 $98 $165 forward $253 $-1 #
edge $-1 $173 3.5575433069694613 $254 6.6390484146853241 $164 $255 forward 7 unknown #
coedge $-1 $100 $99 $247 $256 reversed $39 $-1 #
coedge $-1 $164 $257 $99 $168 forward $253 $-1 #
edge $-1 $258 -41.564760316770403 $173 -32.063432602958855 $167 $259 forward 7 unknown #
coedge $-1 $260 $162 $100 $170 forward $96 $-1 #
edge $-1 $172 32.063432602958855 $261 41.564760316770403 $169 $262 forward 7 unknown #
coedge $-1 $163 $101 $162 $249 reversed $61 $-1 #
vertex $-1 $170 $263 #
vertex $-1 $168 $264 #
straight-curve $-1 -68.877529062823484 0 8.655839167796854 0 -1 0 I I #
face $-1 $-1 $187 $23 $-1 $265 forward single #
loop $-1 $-1 $266 $103 #
plane-surface $-1 0 -35.516503354578596 0 0 1 0 0 0 1 forward_v I I I I #
coedge $-1 $267 $268 $269 $270 reversed $104 $-1 #
coedge $-1 $271 $106 $108 $185 forward $65 $-1 #
coedge $-1 $106 $271 $267 $272 forward $65 $-1 #
coedge $-1 $269 $109 $106 $182 forward $187 $-1 #
edge $-1 $189 -29.925091896371526 $273 10.329421024548353 $181 $274 forward 7 unknown #
coedge $-1 $275 $276 $107 $184 forward $176 $-1 #
edge $-1 $277 -59.560579891082696 $188 -52.22883887860965 $183 $278 forward 7 unknown #
edge $-1 $189 -11.908721293063183 $277 8.8800565823946346e-015 $108 $279 forward 7 unknown #
coedge $-1 $109 $269 $275 $280 forward $187 $-1 #
loop $-1 $-1 $269 $175 #
vertex $-1 $184 $281 #
vertex $-1 $110 $282 #
straight-curve $-1 39.722927332283113 -66.013094879870607 11.737344275512719 0 1 0 I I #
coedge $-1 $191 $191 $-1 $283 reversed $113 $-1 #
edge $-1 $284 0 $284 6.2831853071796004 $114 $285 forward 7 unknown #
vertex $-1 $117 $286 #
ellipse-curve $-1 19.595670871823174 -30.824403170176165 8.071473769276194 0 -0.61566148304635926 0.78801074757464917 1.5 0 0 1 I I #
face $-1 $-1 $287 $25 $-1 $288 reversed single #
loop $-1 $-1 $289 $118 #
plane-surface $-1 78.378856776635033 0 0 -1 0 0 0 0 1 forward_v I I I I #
coedge $-1 $290 $121 $123 $204 forward $74 $-1 #
coedge $-1 $121 $290 $289 $291 reversed $74 $-1 #
coedge $-1 $292 $124 $121 $201 forward $119 $-1 #
edge $-1 $207 25.002513497492949 $293 43.918400018592372 $200 $294 forward 7 unknown #
coedge $-1 $295 $296 $122 $203 forward $287 $-1 #
edge $-1 $297 -75.084970659194227 $206 -72.036440227414005 $202 $298 forward 7 unknown #
edge $-1 $207 66.864667380893309 $297 71.033006709157178 $123 $299 forward 7 unknown #
coedge $-1 $124 $292 $295 $300 forward $119 $-1 #
vertex $-1 $203 $301 #
vertex $-1 $125 $302 #
straight-curve $-1 59.462970255535609 50.858722629126035 11.737344275512712 0 -1 0 I I #
coedge $-1 $209 $209 $-1 $303 reversed $128 $-1 #
edge $-1 $304 0 $304 6.2831853071796004 $129 $305 forward 7 unknown #
vertex $-1 $132 $306 #
ellipse-curve $-1 64.867509261564024 34.095103080019989 10.213079059622611 0 0.73135370988377701 0.68199835119979291 0.5 0 0 1 I I #
coedge $-1 $213 $213 $-1 $307 reversed $135 $-1 #
edge $-1 $308 0 $308 6.2831853071796004 $136 $309 forward 7 unknown #
vertex $-1 $139 $310 #
ellipse-curve $-1 72.974317770606646 34.095103080019989 10.213079059622611 0 0.73135370988377701 0.68199835119979291 0.5 0 0 1 I I #
face $-1 $-1 $155 $21 $-1 $311 reversed single #
loop $-1 $-1 $233 $140 #
plane-surface $-1 0 35.516503354578596 0 0 -1 0 0 0 -1 forward_v I I I I #
coedge $-1 $312 $231 $234 $313 forward $141 $-1 #
coedge $-1 $237 $143 $144 $225 reversed $88 $-1 #
coedge $-1 $231 $312 $143 $223 reversed $141 $-1 #
edge $-1 $238 -11.737344275512717 $314 11.737344275512717 $222 $315 forward 7 unknown #
coedge $-1 $145 $144 $312 $316 forward $57 $-1 #
edge $-1 $229 -78.378856776635033 $314 78.378856776635033 $221 $317 forward 7 unknown #
coedge $-1 $234 $233 $145 $227 reversed $218 $-1 #
edge $-1 $318 -78.378856776635033 $228 78.378856776635033 $226 $319 forward 7 unknown #
vertex $-1 $147 $320 #
vertex $-1 $240 $321 #
straight-curve $-1 78.378856776635033 0 -11.737344275512717 0 -1 0 I I #
coedge $-1 $220 $222 $148 $232 reversed $141 $-1 #
edge $-1 $235 -35.516503354578596 $238 35.516503354578596 $231 $322 forward 7 unknown #
coedge $-1 $226 $149 $154 $241 forward $218 $-1 #
coedge $-1 $149 $226 $220 $313 reversed $218 $-1 #
vertex $-1 $150 $323 #
straight-curve $-1 0 35.516503354578596 11.737344275512717 -1 0 0 I I #
coedge $-1 $151 $221 $153 $240 reversed $88 $-1 #
vertex $-1 $232 $324 #
straight-curve $-1 0 -35.516503354578596 11.737344275512717 1 0 0 I I #
edge $-1 $156 -11.737344275512717 $229 11.737344275512717 $153 $325 forward 7 unknown #
edge $-1 $157 -11.737344275512717 $228 11.737344275512717 $154 $326 forward 7 unknown #
point $-1 78.378856776635033 -35.516503354578596 11.737344275512717 #
point $-1 78.378856776635033 35.516503354578596 11.737344275512717 #
face $-1 $-1 $253 $22 $-1 $327 reversed single #
loop $-1 $-1 $250 $159 #
plane-surface $-1 0 0 11.737344275512717 0 0 1 1 0 0 forward_v I I I I #
coedge $-1 $328 $329 $166 $256 forward $160 $-1 #
coedge $-1 $162 $260 $330 $331 reversed $96 $-1 #
edge $-1 $332 -6.6390484146853241 $172 -3.5575433069694613 $162 $333 forward 7 unknown #
coedge $-1 $330 $334 $163 $251 forward $245 $-1 #
edge $-1 $254 -35.516503354578596 $332 35.516503354578596 $250 $335 forward 7 unknown #
coedge $-1 $257 $164 $334 $336 reversed $253 $-1 #
loop $-1 $-1 $164 $244 #
vertex $-1 $165 $337 #
straight-curve $-1 -68.877529062823484 -35.516503354578596 5.0982958608273927 0 0 1 I I #
edge $-1 $261 -35.516503354578596 $258 35.516503354578596 $247 $338 forward 7 unknown #
coedge $-1 $167 $252 $328 $339 forward $253 $-1 #
vertex $-1 $256 $340 #
straight-curve $-1 -36.814096459864629 -35.516503354578596 8.655839167796854 1 0 0 I I #
coedge $-1 $248 $169 $329 $341 reversed $96 $-1 #
vertex $-1 $256 $342 #
straight-curve $-1 -36.814096459864629 35.516503354578596 8.655839167796854 -1 0 0 I I #
point $-1 -68.877529062823484 35.516503354578596 8.655839167796854 #
point $-1 -68.877529062823484 -35.516503354578596 8.655839167796854 #
plane-surface $-1 0 0 11.737344275512717 0 0 1 1 0 0 forward_v I I I I #
coedge $-1 $276 $275 $268 $343 forward $176 $-1 #
coedge $-1 $268 $178 $180 $272 reversed $104 $-1 #
coedge $-1 $178 $267 $266 $343 reversed $104 $-1 #
coedge $-1 $186 $181 $178 $270 forward $187 $-1 #
edge $-1 $273 -39.88079189409688 $344 -30.496591525292011 $269 $345 forward 7 unknown #
coedge $-1 $180 $179 $276 $346 reversed $65 $-1 #
edge $-1 $347 -8.8800565823946346e-015 $273 11.908721293063183 $267 $348 forward 7 unknown #
vertex $-1 $182 $349 #
straight-curve $-1 9.7978354359115869 -26.13230298577373 11.737344275512717 -1 0 0 I I #
coedge $-1 $266 $183 $186 $280 reversed $176 $-1 #
coedge $-1 $183 $266 $271 $346 forward $176 $-1 #
vertex $-1 $184 $350 #
straight-curve $-1 39.722927332283113 -35.516503354578596 63.966183154122369 0 0 1 I I #
straight-curve $-1 39.722927332283113 -35.516503354578589 4.40560326303968 0 -0.78801074757464917 -0.61566148304635926 I I #
edge $-1 $344 -0.53158558863676575 $188 39.722927332283113 $275 $351 forward 7 unknown #
point $-1 39.722927332283113 -35.516503354578596 11.737344275512717 #
point $-1 39.722927332283113 -26.132302985773727 11.737344275512717 #
edge $-1 $352 1 $352 0 $191 $-1 forward 7 unknown #
vertex $-1 $192 $353 #
ellipse-curve $-1 19.595670871823174 -27.314670505670129 3.5792209048294081 0 -0.61566148304635926 0.78801074757464917 1.5 0 0 1 I I #
point $-1 21.095670871823174 -30.824403170176165 8.0714737692761958 #
loop $-1 $-1 $202 $195 #
plane-surface $-1 0 35.516503354578596 0 0 -1 0 0 0 -1 forward_v I I I I #
coedge $-1 $354 $355 $199 $291 forward $196 $-1 #
coedge $-1 $199 $198 $296 $356 reversed $74 $-1 #
edge $-1 $293 40.281964270865345 $357 44.450303599129199 $289 $358 forward 7 unknown #
coedge $-1 $205 $200 $355 $359 forward $119 $-1 #
vertex $-1 $359 $360 #
straight-curve $-1 34.46045675804266 32.673702805461382 11.737344275512719 1 0 0 I I #
coedge $-1 $361 $202 $205 $300 reversed $287 $-1 #
coedge $-1 $202 $361 $290 $356 forward $287 $-1 #
vertex $-1 $203 $362 #
straight-curve $-1 59.462970255535609 35.516503354578596 83.773784502926716 0 0 1 I I #
straight-curve $-1 59.462970255535609 -12.927890101830428 60.639066824673819 0 0.68199835119979291 -0.73135370988377701 I I #
edge $-1 $363 -78.378856776635033 $206 -59.462970255535609 $295 $364 forward 7 unknown #
point $-1 59.462970255535609 35.516503354578596 11.737344275512717 #
point $-1 59.462970255535609 32.673702805461396 11.737344275512719 #
edge $-1 $365 1 $365 0 $209 $-1 forward 7 unknown #
vertex $-1 $210 $366 #
ellipse-curve $-1 64.867509261564024 32.955575568155567 9.1504524895572938 0 0.73135370988377701 0.68199835119979291 0.5 0 0 1 I I #
point $-1 65.367509261564024 34.095103080019975 10.213079059622597 #
edge $-1 $367 1 $367 0 $213 $-1 forward 7 unknown #
vertex $-1 $214 $368 #
ellipse-curve $-1 72.974317770606646 32.955575568155567 9.1504524895572938 0 0.73135370988377701 0.68199835119979291 0.5 0 0 1 I I #
point $-1 73.474317770606646 34.095103080019975 10.213079059622597 #
plane-surface $-1 78.378856776635033 0 0 -1 0 0 0 0 1 forward_v I I I I #
coedge $-1 $222 $220 $224 $316 reversed $141 $-1 #
edge $-1 $235 -11.737344275512717 $318 11.737344275512717 $234 $369 forward 7 unknown #
vertex $-1 $316 $370 #
straight-curve $-1 -78.378856776635033 -35.516503354578596 0 0 0 -1 I I #
edge $-1 $314 -35.516503354578596 $318 35.516503354578596 $312 $371 forward 7 unknown #
straight-curve $-1 0 -35.516503354578596 -11.737344275512717 -1 0 0 I I #
vertex $-1 $227 $372 #
straight-curve $-1 0 35.516503354578596 -11.737344275512717 1 0 0 I I #
point $-1 78.378856776635033 35.516503354578596 -11.737344275512717 #
point $-1 78.378856776635033 -35.516503354578596 -11.737344275512717 #
straight-curve $-1 -78.378856776635033 0 11.737344275512717 0 -1 0 I I #
point $-1 -78.378856776635033 35.516503354578596 11.737344275512717 #
point $-1 -78.378856776635033 -35.516503354578596 11.737344275512717 #
straight-curve $-1 78.378856776635033 -35.516503354578596 0 0 0 -1 I I #
straight-curve $-1 78.378856776635033 35.516503354578596 0 0 0 -1 I I #
plane-surface $-1 0 -35.516503354578596 0 0 1 0 0 0 1 forward_v I I I I #
coedge $-1 $373 $247 $257 $339 reversed $160 $-1 #
coedge $-1 $247 $373 $260 $341 forward $160 $-1 #
coedge $-1 $374 $250 $248 $331 forward $245 $-1 #
edge $-1 $332 68.877529062823484 $375 78.378856776635033 $248 $376 forward 7 unknown #
vertex $-1 $331 $377 #
straight-curve $-1 -68.877529062823484 35.516503354578596 5.0982958608273927 0 0 -1 I I #
coedge $-1 $250 $374 $252 $336 forward $245 $-1 #
straight-curve $-1 -68.877529062823484 0 11.737344275512717 0 1 0 I I #
edge $-1 $378 -78.378856776635033 $254 -68.877529062823484 $252 $379 forward 7 unknown #
point $-1 -68.877529062823484 -35.516503354578596 11.737344275512717 #
straight-curve $-1 -78.378856776635033 0 8.655839167796854 0 -1 0 I I #
edge $-1 $378 -11.737344275512717 $258 -8.655839167796854 $328 $380 forward 7 unknown #
point $-1 -78.378856776635033 -35.516503354578596 8.655839167796854 #
edge $-1 $375 -11.737344275512717 $261 -8.655839167796854 $260 $381 forward 7 unknown #
point $-1 -78.378856776635033 35.516503354578596 8.655839167796854 #
edge $-1 $344 52.22883887860965 $347 59.560579891082696 $266 $382 forward 7 unknown #
vertex $-1 $280 $383 #
straight-curve $-1 -0.53158558863676575 -66.013094879870607 11.737344275512719 0 -1 0 I I #
edge $-1 $347 -10.329421024548353 $277 29.925091896371526 $276 $384 forward 7 unknown #
vertex $-1 $346 $385 #
straight-curve $-1 -0.53158558863676575 -35.516503354578589 4.40560326303968 0 0.78801074757464917 0.61566148304635926 I I #
point $-1 -0.53158558863676575 -26.132302985773727 11.737344275512717 #
point $-1 39.722927332283113 -35.516503354578596 4.4056032630396746 #
straight-curve $-1 0 -35.516503354578596 11.737344275512717 1 0 0 I I #
vertex $-1 $283 $386 #
point $-1 21.095670871823174 -27.314670505670129 3.5792209048294081 #
coedge $-1 $355 $289 $361 $387 reversed $196 $-1 #
coedge $-1 $289 $354 $292 $359 reversed $196 $-1 #
edge $-1 $357 -43.918400018592372 $297 -25.002513497492949 $296 $388 forward 7 unknown #
vertex $-1 $291 $389 #
straight-curve $-1 78.378856776635033 5.2014695896422545 41.197708286415846 0 0.68199835119979291 -0.73135370988377701 I I #
edge $-1 $293 32.673702805461396 $363 35.516503354578596 $355 $390 forward 7 unknown #
point $-1 78.378856776635033 32.673702805461396 11.737344275512719 #
coedge $-1 $296 $295 $354 $387 forward $287 $-1 #
point $-1 59.462970255535609 35.516503354578596 8.6888138437324969 #
vertex $-1 $359 $391 #
straight-curve $-1 0 35.516503354578596 11.737344275512717 -1 0 0 I I #
vertex $-1 $303 $392 #
point $-1 65.367509261564024 32.955575568155567 9.1504524895572938 #
vertex $-1 $307 $393 #
point $-1 73.474317770606646 32.955575568155567 9.1504524895572938 #
straight-curve $-1 -78.378856776635033 35.516503354578596 0 0 0 -1 I I #
point $-1 -78.378856776635033 -35.516503354578596 -11.737344275512717 #
straight-curve $-1 -78.378856776635033 0 -11.737344275512717 0 1 0 I I #
point $-1 -78.378856776635033 35.516503354578596 -11.737344275512717 #
coedge $-1 $329 $328 $374 $394 reversed $160 $-1 #
coedge $-1 $334 $330 $373 $394 forward $245 $-1 #
vertex $-1 $331 $395 #
straight-curve $-1 0 35.516503354578596 11.737344275512717 -1 0 0 I I #
point $-1 -68.877529062823484 35.516503354578596 11.737344275512717 #
vertex $-1 $394 $396 #
straight-curve $-1 0 -35.516503354578596 11.737344275512717 1 0 0 I I #
straight-curve $-1 -78.378856776635033 -35.516503354578596 0 0 0 -1 I I #
straight-curve $-1 -78.378856776635033 35.516503354578596 0 0 0 -1 I I #
straight-curve $-1 -0.53158558863676575 -35.516503354578596 63.966183154122369 0 0 -1 I I #
point $-1 -0.53158558863676575 -35.516503354578596 11.737344275512717 #
straight-curve $-1 9.7978354359115869 -35.516503354578596 4.4056032630396684 1 0 0 I I #
point $-1 -0.53158558863676575 -35.516503354578596 4.4056032630396746 #
point $-1 19.595670871823174 -26.391178281100593 2.3972047834674344 #
edge $-1 $363 -11.737344275512717 $357 -8.6888138437324969 $354 $397 forward 7 unknown #
straight-curve $-1 34.46045675804266 35.516503354578589 8.6888138437325004 -1 0 0 I I #
point $-1 78.378856776635033 35.516503354578596 8.6888138437324969 #
straight-curve $-1 78.378856776635033 0 11.737344275512717 0 1 0 I I #
point $-1 78.378856776635033 35.516503354578596 11.737344275512717 #
point $-1 64.867509261564024 32.589898713213671 8.8094533139573965 #
point $-1 72.974317770606646 32.589898713213671 8.8094533139573965 #
edge $-1 $375 -35.516503354578596 $378 35.516503354578596 $373 $398 forward 7 unknown #
point $-1 -78.378856776635033 35.516503354578596 11.737344275512717 #
point $-1 -78.378856776635033 -35.516503354578596 11.737344275512717 #
straight-curve $-1 78.378856776635033 35.516503354578596 0 0 0 -1 I I #
straight-curve $-1 -78.378856776635033 0 11.737344275512717 0 -1 0 I I #
End-of-ACIS-data 