500 0 7 0           
7 Unknown 11 ACIS 5.0 NT 24 Fri Mar 26 18:19:01 1999 
-1 9.9999999999999995e-007 1e-010 
body $-1 $7 $-1 $8 #
body $-1 $9 $-1 $10 #
body $-1 $11 $-1 $12 #
body $-1 $13 $-1 $14 #
body $-1 $15 $-1 $16 #
body $-1 $17 $-1 $18 #
body $-1 $19 $-1 $20 #
lump $-1 $-1 $21 $0 #
transform $-1 1 0 0 0 1 0 0 0 1 52.358775597399827 35.941670083765814 8.1998824695028443 1 rotate no_reflect no_shear #
lump $-1 $-1 $22 $1 #
transform $-1 1 0 0 0 1 0 0 0 1 52.358775597399827 35.941670083765814 8.1998824695028443 1 rotate no_reflect no_shear #
lump $-1 $-1 $23 $2 #
transform $-1 1 0 0 0 1 0 0 0 1 52.358775597399827 35.941670083765814 8.1998824695028443 1 rotate no_reflect no_shear #
lump $-1 $-1 $24 $3 #
transform $-1 1 0 0 0 1 0 0 0 1 52.358775597399827 35.941670083765814 8.1998824695028443 1 rotate no_reflect no_shear #
lump $-1 $-1 $25 $4 #
transform $-1 1 0 0 0 1 0 0 0 1 52.358775597399827 35.941670083765814 8.1998824695028443 1 rotate no_reflect no_shear #
lump $-1 $-1 $26 $5 #
transform $-1 1 0 0 0 1 0 0 0 1 52.358775597399827 35.941670083765814 8.1998824695028443 1 rotate no_reflect no_shear #
lump $-1 $-1 $27 $6 #
transform $-1 1 0 0 0 1 0 0 0 1 52.358775597399827 35.941670083765814 8.1998824695028443 1 rotate no_reflect no_shear #
shell $-1 $-1 $-1 $28 $-1 $7 #
shell $-1 $-1 $-1 $29 $-1 $9 #
shell $-1 $-1 $-1 $30 $-1 $11 #
shell $-1 $-1 $-1 $31 $-1 $13 #
shell $-1 $-1 $-1 $32 $-1 $15 #
shell $-1 $-1 $-1 $33 $-1 $17 #
shell $-1 $-1 $-1 $34 $-1 $19 #
face $-1 $35 $36 $21 $-1 $37 forward single #
face $-1 $38 $39 $22 $-1 $40 forward single #
face $-1 $41 $42 $23 $-1 $43 reversed single #
face $-1 $44 $45 $24 $-1 $46 forward single #
face $-1 $47 $48 $25 $-1 $49 forward single #
face $-1 $50 $51 $26 $-1 $52 reversed single #
face $-1 $53 $54 $27 $-1 $55 forward single #
face $-1 $56 $57 $21 $-1 $58 reversed single #
loop $-1 $-1 $59 $28 #
plane-surface $-1 0 0 8.1998824695028443 0 0 1 1 0 0 forward_v I I I I #
face $-1 $60 $61 $22 $-1 $62 reversed single #
loop $-1 $-1 $63 $29 #
plane-surface $-1 0 -32.924044766984473 -4.3778377360011422 0 0 1 1 0 0 forward_v I I I I #
face $-1 $64 $65 $23 $-1 $66 reversed single #
loop $-1 $-1 $67 $30 #
plane-surface $-1 54.943356250555766 18.741828367640235 149.43708701795924 0 1 0 0.71933980857756763 0 0.69465836192734942 forward_v I I I I #
face $-1 $68 $69 $24 $-1 $70 forward single #
loop $-1 $71 $72 $31 #
cone-surface $-1 46.538399858648496 23.656068857961827 2.3487769817454134 -0.71933980857756763 0 -0.69465836192734942 1.3893167238546988 0 -1.4386796171551353 1 I I 0 1 2 forward I I I I #
face $-1 $73 $74 $25 $-1 $75 forward single #
loop $-1 $76 $77 $32 #
cone-surface $-1 46.538399858648496 31.027429593444225 2.3487769817454134 -0.71933980857756763 0 -0.69465836192734942 1.3893167238546988 0 -1.4386796171551353 1 I I 0 1 2 forward I I I I #
face $-1 $78 $79 $26 $-1 $80 reversed single #
loop $-1 $-1 $81 $33 #
plane-surface $-1 -106.29230229150809 24.315212916531177 94.421739835948813 0 1 0 -0.51503808176128008 0 0.85716729658548041 forward_v I I I I #
face $-1 $82 $83 $27 $-1 $84 forward single #
loop $-1 $85 $86 $34 #
cone-surface $-1 -47.869544430348078 30.128441500148497 3.8599031548706479 0.51503808176128008 0 -0.85716729658548041 1.2857509448782207 0 0.77255712264192011 1 I I 0 1 1.5 forward I I I I #
face $-1 $87 $88 $21 $-1 $89 reversed single #
loop $-1 $-1 $90 $35 #
plane-surface $-1 0 0 -8.1998824695028443 0 0 1 1 0 0 forward_v I I I I #
coedge $-1 $91 $92 $93 $94 forward $36 $-1 #
face $-1 $95 $96 $22 $-1 $97 reversed single #
loop $-1 $-1 $98 $38 #
plane-surface $-1 0 -32.924044766984473 -7.6998824695028443 0 0 1 1 0 0 forward_v I I I I #
coedge $-1 $99 $100 $101 $102 reversed $39 $-1 #
face $-1 $103 $104 $23 $-1 $105 forward single #
loop $-1 $-1 $106 $41 #
plane-surface $-1 -20.384146980623058 27.341749225703026 76.694164439936358 0.71933980857756763 0 0.69465836192734942 0.69465836192734942 0 -0.71933980857756763 forward_v I I I I #
coedge $-1 $107 $108 $109 $110 reversed $42 $-1 #
face $-1 $-1 $111 $24 $-1 $112 forward single #
loop $-1 $113 $114 $44 #
cone-surface $-1 43.298066766645377 23.656068857961827 -0.7803762375667187 -0.71933980857756763 0 -0.69465836192734942 0.69465836192734942 0 -0.71933980857756763 1 I I -0.70710678118654746 0.70710678118654746 1 forward I I I I #
loop $-1 $-1 $115 $31 #
coedge $-1 $72 $72 $116 $117 reversed $45 $-1 #
face $-1 $-1 $118 $25 $-1 $119 forward single #
loop $-1 $120 $121 $47 #
cone-surface $-1 43.298066766645377 31.027429593444225 -0.7803762375667187 -0.71933980857756763 0 -0.69465836192734942 0.69465836192734942 0 -0.71933980857756763 1 I I -0.70710678118654746 0.70710678118654746 1 forward I I I I #
loop $-1 $-1 $122 $32 #
coedge $-1 $77 $77 $123 $124 reversed $48 $-1 #
face $-1 $125 $126 $26 $-1 $127 reversed single #
loop $-1 $-1 $128 $50 #
plane-surface $-1 -52.358775597399834 30.128441500148497 4.6612795732507522 -0.51503808176128008 0 0.85716729658548041 0.85716729658548041 0 0.51503808176128008 forward_v I I I I #
coedge $-1 $129 $130 $131 $132 reversed $51 $-1 #
face $-1 $-1 $133 $27 $-1 $134 forward single #
loop $-1 $135 $136 $53 #
cone-surface $-1 -45.938646746872507 30.128441500148497 0.64634981592539198 0.51503808176128008 0 -0.85716729658548041 0.64287547243911036 0 0.38627856132096006 1 I I -0.70710678118654757 0.70710678118654757 0.75 forward I I I I #
loop $-1 $-1 $137 $34 #
coedge $-1 $86 $86 $138 $139 reversed $54 $-1 #
face $-1 $140 $141 $21 $-1 $142 reversed single #
loop $-1 $-1 $143 $56 #
plane-surface $-1 0 -35.941670083765814 0 0 1 0 0 0 1 forward_v I I I I #
coedge $-1 $144 $145 $146 $147 forward $57 $-1 #
coedge $-1 $148 $59 $149 $150 forward $36 $-1 #
coedge $-1 $59 $148 $151 $152 forward $36 $-1 #
coedge $-1 $153 $154 $59 $94 reversed $155 $-1 #
edge $-1 $156 -35.941670083765814 $157 35.941670083765814 $93 $158 forward 7 unknown #
face $-1 $159 $160 $22 $-1 $161 reversed single #
loop $-1 $-1 $162 $60 #
plane-surface $-1 0 -29.906419450203135 -6.0388601027519933 0 -1 0 0 0 -1 forward_v I I I I #
coedge $-1 $163 $164 $165 $166 reversed $61 $-1 #
coedge $-1 $167 $63 $168 $169 forward $39 $-1 #
coedge $-1 $63 $167 $170 $171 reversed $39 $-1 #
coedge $-1 $172 $173 $63 $102 forward $174 $-1 #
edge $-1 $175 13.444397066710899 $176 19.479647700273578 $101 $177 forward 7 unknown #
face $-1 $178 $179 $23 $-1 $180 reversed single #
loop $-1 $-1 $181 $64 #
plane-surface $-1 0 0 8.1998824695028443 0 0 1 1 0 0 forward_v I I I I #
coedge $-1 $182 $183 $184 $185 reversed $65 $-1 #
coedge $-1 $108 $67 $186 $187 reversed $42 $-1 #
coedge $-1 $67 $107 $182 $188 reversed $42 $-1 #
coedge $-1 $184 $189 $67 $110 forward $179 $-1 #
edge $-1 $190 66.518661039476783 $191 73.351882300222087 $109 $192 forward 7 unknown #
loop $-1 $-1 $116 $68 #
plane-surface $-1 -20.384146980623058 27.341749225703026 76.694164439936358 0.71933980857756763 0 0.69465836192734942 0.69465836192734942 0 -0.71933980857756763 forward_v I I I I #
loop $-1 $-1 $193 $44 #
coedge $-1 $114 $114 $115 $194 reversed $69 $-1 #
coedge $-1 $115 $115 $114 $194 forward $71 $-1 #
coedge $-1 $116 $116 $72 $117 forward $111 $-1 #
edge $-1 $195 0 $195 6.2831853071796004 $116 $196 forward 7 unknown #
loop $-1 $-1 $123 $73 #
plane-surface $-1 -20.384146980623058 27.341749225703026 76.694164439936358 0.71933980857756763 0 0.69465836192734942 0.69465836192734942 0 -0.71933980857756763 forward_v I I I I #
loop $-1 $-1 $197 $47 #
coedge $-1 $121 $121 $122 $198 reversed $74 $-1 #
coedge $-1 $122 $122 $121 $198 forward $76 $-1 #
coedge $-1 $123 $123 $77 $124 forward $118 $-1 #
edge $-1 $199 0 $199 6.2831853071796004 $123 $200 forward 7 unknown #
face $-1 $201 $202 $26 $-1 $203 forward single #
loop $-1 $-1 $204 $78 #
plane-surface $-1 0 35.941670083765814 0 0 -1 0 0 0 -1 forward_v I I I I #
coedge $-1 $205 $206 $207 $208 reversed $79 $-1 #
coedge $-1 $130 $81 $209 $210 reversed $51 $-1 #
coedge $-1 $81 $129 $205 $211 reversed $51 $-1 #
coedge $-1 $207 $212 $81 $132 forward $202 $-1 #
edge $-1 $213 0.78737554835421975 $214 6.676599638148474 $131 $215 forward 7 unknown #
loop $-1 $-1 $138 $82 #
plane-surface $-1 -52.358775597399834 30.128441500148497 4.6612795732507522 -0.51503808176128008 0 0.85716729658548041 0.85716729658548041 0 0.51503808176128008 forward_v I I I I #
loop $-1 $-1 $216 $53 #
coedge $-1 $136 $136 $137 $217 reversed $83 $-1 #
coedge $-1 $137 $137 $136 $217 forward $85 $-1 #
coedge $-1 $138 $138 $86 $139 forward $133 $-1 #
edge $-1 $218 0 $218 6.2831853071796004 $138 $219 forward 7 unknown #
face $-1 $220 $221 $21 $-1 $222 reversed single #
loop $-1 $-1 $223 $87 #
plane-surface $-1 -52.358775597399827 0 0 1 0 0 0 0 -1 forward_v I I I I #
coedge $-1 $224 $151 $225 $226 forward $88 $-1 #
coedge $-1 $227 $90 $224 $228 forward $57 $-1 #
coedge $-1 $90 $227 $229 $230 forward $57 $-1 #
coedge $-1 $154 $153 $90 $147 reversed $155 $-1 #
edge $-1 $231 -35.941670083765814 $232 35.941670083765814 $146 $233 forward 7 unknown #
coedge $-1 $92 $91 $234 $235 forward $36 $-1 #
coedge $-1 $236 $237 $91 $150 reversed $221 $-1 #
edge $-1 $157 -52.358775597399827 $238 52.358775597399827 $149 $239 forward 7 unknown #
coedge $-1 $143 $240 $92 $152 reversed $88 $-1 #
edge $-1 $241 -52.358775597399827 $156 52.358775597399827 $151 $242 forward 7 unknown #
coedge $-1 $146 $93 $240 $243 forward $155 $-1 #
coedge $-1 $93 $146 $236 $244 reversed $155 $-1 #
loop $-1 $-1 $153 $220 #
vertex $-1 $94 $245 #
vertex $-1 $94 $246 #
straight-curve $-1 52.358775597399827 0 8.1998824695028443 0 1 0 I I #
face $-1 $247 $248 $22 $-1 $249 reversed single #
loop $-1 $-1 $250 $95 #
plane-surface $-1 -52.358775597399827 0 0 1 0 0 0 0 -1 forward_v I I I I #
coedge $-1 $251 $168 $173 $252 reversed $96 $-1 #
coedge $-1 $253 $98 $254 $255 reversed $61 $-1 #
coedge $-1 $98 $253 $251 $256 forward $61 $-1 #
coedge $-1 $173 $172 $98 $166 forward $174 $-1 #
edge $-1 $257 -19.479647700273578 $258 -13.444397066710899 $165 $259 forward 7 unknown #
coedge $-1 $100 $99 $250 $260 reversed $39 $-1 #
coedge $-1 $162 $261 $99 $169 reversed $96 $-1 #
edge $-1 $175 -52.358775597399827 $262 52.358775597399827 $168 $263 forward 7 unknown #
coedge $-1 $264 $265 $100 $171 forward $248 $-1 #
edge $-1 $176 -52.358775597399827 $266 52.358775597399827 $170 $267 forward 7 unknown #
coedge $-1 $165 $101 $265 $268 forward $174 $-1 #
coedge $-1 $101 $165 $162 $252 forward $174 $-1 #
loop $-1 $-1 $101 $247 #
vertex $-1 $102 $269 #
vertex $-1 $268 $270 #
straight-curve $-1 52.358775597399827 -16.462022383492236 -4.3778377360011422 0 -1 0 I I #
face $-1 $-1 $271 $23 $-1 $272 reversed single #
loop $-1 $-1 $109 $103 #
plane-surface $-1 52.358775597399827 0 0 -1 0 0 0 0 1 forward_v I I I I #
coedge $-1 $186 $273 $274 $275 forward $104 $-1 #
coedge $-1 $274 $106 $108 $188 forward $65 $-1 #
coedge $-1 $106 $274 $276 $277 reversed $65 $-1 #
coedge $-1 $278 $109 $106 $185 forward $179 $-1 #
edge $-1 $191 5.0709537547887216 $279 22.270795470914301 $184 $280 forward 7 unknown #
coedge $-1 $281 $181 $107 $187 forward $104 $-1 #
edge $-1 $282 18.288332561470376 $190 24.887097472121944 $186 $283 forward 7 unknown #
edge $-1 $191 -104.71755119479965 $282 -95.21825589755008 $108 $284 forward 7 unknown #
coedge $-1 $109 $278 $281 $285 reversed $179 $-1 #
vertex $-1 $285 $286 #
vertex $-1 $110 $287 #
straight-curve $-1 52.358775597399827 18.741828367640235 74.718543508979621 0 0 -1 I I #
coedge $-1 $193 $193 $-1 $288 reversed $113 $-1 #
edge $-1 $289 0 $289 6.2831853071796004 $114 $290 forward 7 unknown #
vertex $-1 $117 $291 #
ellipse-curve $-1 49.059393142074043 23.656068857961827 4.7832718391301903 0.71933980857756763 0 0.69465836192734942 1.3893167238546988 0 -1.4386796171551353 1 I I #
coedge $-1 $197 $197 $-1 $292 reversed $120 $-1 #
edge $-1 $293 0 $293 6.2831853071796004 $121 $294 forward 7 unknown #
vertex $-1 $124 $295 #
ellipse-curve $-1 49.059393142074043 31.027429593444225 4.7832718391301903 0.71933980857756763 0 0.69465836192734942 1.3893167238546988 0 -1.4386796171551353 1 I I #
face $-1 $-1 $296 $26 $-1 $297 reversed single #
loop $-1 $-1 $207 $125 #
plane-surface $-1 0 0 8.1998824695028443 0 0 1 1 0 0 forward_v I I I I #
coedge $-1 $298 $299 $206 $300 forward $126 $-1 #
coedge $-1 $301 $128 $130 $211 forward $79 $-1 #
coedge $-1 $128 $301 $204 $300 reversed $79 $-1 #
coedge $-1 $302 $131 $128 $208 forward $202 $-1 #
edge $-1 $214 9.2509921664569283 $303 20.877449333691565 $207 $304 forward 7 unknown #
coedge $-1 $305 $306 $129 $210 forward $296 $-1 #
edge $-1 $307 -42.549590344723647 $213 -39.01098744847156 $209 $308 forward 7 unknown #
edge $-1 $214 -6.8705655398356207 $307 -8.3777685069199533e-015 $130 $309 forward 7 unknown #
coedge $-1 $131 $302 $305 $310 forward $202 $-1 #
vertex $-1 $210 $311 #
vertex $-1 $132 $312 #
straight-curve $-1 -53.146151145754047 24.315212916531177 8.199882469502846 1 0 0 I I #
coedge $-1 $216 $216 $-1 $313 reversed $135 $-1 #
edge $-1 $314 0 $314 6.2831853071796004 $136 $315 forward 7 unknown #
vertex $-1 $139 $316 #
ellipse-curve $-1 -49.414163552502693 30.128441500148497 6.4305810213768027 -0.51503808176128008 0 0.85716729658548041 1.2857509448782207 0 0.77255712264192011 1 I I #
face $-1 $-1 $155 $21 $-1 $317 reversed single #
loop $-1 $-1 $236 $140 #
plane-surface $-1 0 35.941670083765814 0 0 -1 0 0 0 -1 forward_v I I I I #
coedge $-1 $318 $234 $237 $319 forward $141 $-1 #
coedge $-1 $240 $143 $144 $228 reversed $88 $-1 #
coedge $-1 $234 $318 $143 $226 reversed $141 $-1 #
edge $-1 $241 -8.1998824695028443 $320 8.1998824695028443 $225 $321 forward 7 unknown #
coedge $-1 $145 $144 $318 $322 forward $57 $-1 #
edge $-1 $232 -52.358775597399827 $320 52.358775597399827 $224 $323 forward 7 unknown #
coedge $-1 $237 $236 $145 $230 reversed $221 $-1 #
edge $-1 $324 -52.358775597399827 $231 52.358775597399827 $229 $325 forward 7 unknown #
vertex $-1 $147 $326 #
vertex $-1 $243 $327 #
straight-curve $-1 52.358775597399827 0 -8.1998824695028443 0 -1 0 I I #
coedge $-1 $223 $225 $148 $235 reversed $141 $-1 #
edge $-1 $238 -35.941670083765814 $241 35.941670083765814 $234 $328 forward 7 unknown #
coedge $-1 $229 $149 $154 $244 forward $221 $-1 #
coedge $-1 $149 $229 $223 $319 reversed $221 $-1 #
vertex $-1 $150 $329 #
straight-curve $-1 0 35.941670083765814 8.1998824695028443 -1 0 0 I I #
coedge $-1 $151 $224 $153 $243 reversed $88 $-1 #
vertex $-1 $235 $330 #
straight-curve $-1 0 -35.941670083765814 8.1998824695028443 1 0 0 I I #
edge $-1 $156 -8.1998824695028443 $232 8.1998824695028443 $153 $331 forward 7 unknown #
edge $-1 $157 -8.1998824695028443 $231 8.1998824695028443 $154 $332 forward 7 unknown #
point $-1 52.358775597399827 -35.941670083765814 8.1998824695028443 #
point $-1 52.358775597399827 35.941670083765814 8.1998824695028443 #
face $-1 $-1 $174 $22 $-1 $333 reversed single #
loop $-1 $-1 $170 $159 #
plane-surface $-1 0 -35.941670083765814 0 0 1 0 0 0 1 forward_v I I I I #
coedge $-1 $334 $335 $167 $260 forward $160 $-1 #
coedge $-1 $261 $162 $164 $256 reversed $96 $-1 #
edge $-1 $258 -4.6804524181268476 $175 -1.3584076846251456 $173 $336 forward 7 unknown #
coedge $-1 $164 $163 $337 $338 reversed $61 $-1 #
coedge $-1 $265 $264 $163 $255 forward $248 $-1 #
edge $-1 $339 -52.358775597399827 $257 52.358775597399827 $254 $340 forward 7 unknown #
edge $-1 $341 -52.358775597399827 $258 52.358775597399827 $251 $342 forward 7 unknown #
vertex $-1 $255 $343 #
vertex $-1 $166 $344 #
straight-curve $-1 52.358775597399827 -16.462022383492236 -7.6998824695028443 0 1 0 I I #
edge $-1 $266 -19.479647700273578 $262 -13.444397066710899 $250 $345 forward 7 unknown #
coedge $-1 $168 $251 $334 $346 reversed $96 $-1 #
vertex $-1 $260 $347 #
straight-curve $-1 0 -29.906419450203135 -4.3778377360011422 -1 0 0 I I #
coedge $-1 $254 $170 $335 $348 forward $248 $-1 #
coedge $-1 $170 $254 $172 $268 reversed $248 $-1 #
vertex $-1 $348 $349 #
straight-curve $-1 0 -35.941670083765814 -4.3778377360011422 -1 0 0 I I #
edge $-1 $176 4.3778377360011422 $257 7.6998824695028443 $172 $350 forward 7 unknown #
point $-1 52.358775597399827 -29.906419450203135 -4.3778377360011422 #
point $-1 52.358775597399827 -35.941670083765814 -4.3778377360011422 #
loop $-1 $-1 $276 $178 #
plane-surface $-1 0 35.941670083765814 0 0 -1 0 0 0 -1 forward_v I I I I #
coedge $-1 $181 $281 $351 $352 forward $104 $-1 #
coedge $-1 $183 $182 $181 $275 reversed $65 $-1 #
edge $-1 $353 -22.270795470914301 $282 -5.0709537547887216 $181 $354 forward 7 unknown #
coedge $-1 $351 $355 $183 $277 forward $271 $-1 #
edge $-1 $279 -70.05295933575654 $353 -60.553664038506952 $276 $356 forward 7 unknown #
coedge $-1 $189 $184 $355 $357 reversed $179 $-1 #
vertex $-1 $277 $358 #
straight-curve $-1 52.358775597399827 13.670874612851513 1.3666612087575345 0 1 0 I I #
coedge $-1 $273 $186 $189 $285 forward $104 $-1 #
vertex $-1 $187 $359 #
straight-curve $-1 27.471678125277883 18.741828367640235 8.1998824695028389 1 0 0 I I #
straight-curve $-1 -20.384146980623058 18.741828367640235 76.694164439936358 -0.69465836192734942 0 0.71933980857756763 I I #
edge $-1 $190 18.741828367640235 $360 35.941670083765814 $189 $361 forward 7 unknown #
point $-1 52.358775597399827 18.741828367640235 8.1998824695028443 #
point $-1 52.358775597399827 18.741828367640235 1.3666612087575345 #
edge $-1 $362 1 $362 0 $193 $-1 forward 7 unknown #
vertex $-1 $194 $363 #
ellipse-curve $-1 44.017406575222942 23.656068857961827 -0.085717875639369279 0.71933980857756763 0 0.69465836192734942 1.3893167238546988 0 -1.4386796171551353 1 I I #
point $-1 50.448709865928741 23.656068857961827 3.3445922219750601 #
edge $-1 $364 1 $364 0 $197 $-1 forward 7 unknown #
vertex $-1 $198 $365 #
ellipse-curve $-1 44.017406575222942 31.027429593444225 -0.085717875639369279 0.71933980857756763 0 0.69465836192734942 1.3893167238546988 0 -1.4386796171551353 1 I I #
point $-1 50.448709865928741 31.027429593444225 3.3445922219750601 #
loop $-1 $-1 $209 $201 #
plane-surface $-1 -52.358775597399827 0 0 1 0 0 0 0 -1 forward_v I I I I #
coedge $-1 $299 $204 $366 $367 reversed $126 $-1 #
coedge $-1 $204 $298 $302 $368 reversed $126 $-1 #
edge $-1 $303 14.369181280858843 $369 21.239746820694457 $204 $370 forward 7 unknown #
coedge $-1 $206 $205 $306 $371 reversed $79 $-1 #
coedge $-1 $212 $207 $299 $368 forward $202 $-1 #
vertex $-1 $368 $372 #
straight-curve $-1 -46.469551507605573 15.064220750074249 8.1998824695028443 0 1 0 I I #
coedge $-1 $366 $209 $212 $310 reversed $296 $-1 #
coedge $-1 $209 $366 $301 $371 forward $296 $-1 #
vertex $-1 $210 $373 #
straight-curve $-1 -52.358775597399827 24.315212916531177 47.210869917974406 0 0 1 I I #
straight-curve $-1 -52.358775597399834 24.315212916531177 4.6612795732507522 -0.85716729658548041 0 -0.51503808176128008 I I #
edge $-1 $374 -35.941670083765814 $213 -24.315212916531177 $305 $375 forward 7 unknown #
point $-1 -52.358775597399827 24.315212916531177 8.1998824695028443 #
point $-1 -46.469551507605573 24.315212916531177 8.1998824695028443 #
edge $-1 $376 1 $376 0 $216 $-1 forward 7 unknown #
vertex $-1 $217 $377 #
ellipse-curve $-1 -46.324925308193464 30.128441500148497 1.2892252883645023 -0.51503808176128008 0 0.85716729658548041 1.2857509448782207 0 0.77255712264192011 1 I I #
point $-1 -48.128412607624469 30.128441500148497 7.2031381440187126 #
plane-surface $-1 52.358775597399827 0 0 -1 0 0 0 0 1 forward_v I I I I #
coedge $-1 $225 $223 $227 $322 reversed $141 $-1 #
edge $-1 $238 -8.1998824695028443 $324 8.1998824695028443 $237 $378 forward 7 unknown #
vertex $-1 $322 $379 #
straight-curve $-1 -52.358775597399827 -35.941670083765814 0 0 0 -1 I I #
edge $-1 $320 -35.941670083765814 $324 35.941670083765814 $318 $380 forward 7 unknown #
straight-curve $-1 0 -35.941670083765814 -8.1998824695028443 -1 0 0 I I #
vertex $-1 $230 $381 #
straight-curve $-1 0 35.941670083765814 -8.1998824695028443 1 0 0 I I #
point $-1 52.358775597399827 35.941670083765814 -8.1998824695028443 #
point $-1 52.358775597399827 -35.941670083765814 -8.1998824695028443 #
straight-curve $-1 -52.358775597399827 0 8.1998824695028443 0 -1 0 I I #
point $-1 -52.358775597399827 35.941670083765814 8.1998824695028443 #
point $-1 -52.358775597399827 -35.941670083765814 8.1998824695028443 #
straight-curve $-1 52.358775597399827 -35.941670083765814 0 0 0 -1 I I #
straight-curve $-1 52.358775597399827 35.941670083765814 0 0 0 -1 I I #
plane-surface $-1 52.358775597399827 0 0 -1 0 0 0 0 1 forward_v I I I I #
coedge $-1 $337 $250 $261 $346 forward $160 $-1 #
coedge $-1 $250 $337 $264 $348 reversed $160 $-1 #
straight-curve $-1 52.358775597399827 -29.906419450203135 -3.0194300513759966 0 0 1 I I #
coedge $-1 $335 $334 $253 $338 forward $160 $-1 #
edge $-1 $341 13.444397066710899 $339 19.479647700273578 $337 $382 forward 7 unknown #
vertex $-1 $255 $383 #
straight-curve $-1 0 -35.941670083765814 -7.6998824695028443 1 0 0 I I #
vertex $-1 $338 $384 #
straight-curve $-1 0 -29.906419450203135 -7.6998824695028443 1 0 0 I I #
point $-1 52.358775597399827 -35.941670083765814 -7.6998824695028443 #
point $-1 52.358775597399827 -29.906419450203135 -7.6998824695028443 #
straight-curve $-1 -52.358775597399827 -16.462022383492236 -4.3778377360011422 0 1 0 I I #
edge $-1 $262 1.3584076846251456 $341 4.6804524181268476 $334 $385 forward 7 unknown #
point $-1 -52.358775597399827 -29.906419450203135 -4.3778377360011422 #
edge $-1 $266 4.3778377360011422 $339 7.6998824695028443 $335 $386 forward 7 unknown #
point $-1 -52.358775597399827 -35.941670083765814 -4.3778377360011422 #
straight-curve $-1 52.358775597399827 -35.941670083765814 0 0 0 -1 I I #
coedge $-1 $355 $276 $273 $352 reversed $271 $-1 #
edge $-1 $360 -52.358775597399827 $353 -45.760010686748259 $351 $387 forward 7 unknown #
vertex $-1 $277 $388 #
straight-curve $-1 45.760010686748238 13.670874612851513 8.1998824695028532 0 -1 0 I I #
coedge $-1 $276 $351 $278 $357 forward $271 $-1 #
straight-curve $-1 3.6959016170599721 35.941670083765814 51.758543567632771 -0.69465836192734942 0 0.71933980857756763 I I #
edge $-1 $360 -8.1998824695028443 $279 -1.3666612087575345 $278 $389 forward 7 unknown #
point $-1 52.358775597399827 35.941670083765814 1.3666612087575345 #
point $-1 45.760010686748259 18.741828367640235 8.1998824695028389 #
vertex $-1 $285 $390 #
straight-curve $-1 52.358775597399827 0 8.1998824695028443 0 1 0 I I #
vertex $-1 $288 $391 #
point $-1 45.40672329907764 23.656068857961827 -1.5243974927945045 #
vertex $-1 $292 $392 #
point $-1 45.40672329907764 31.027429593444225 -1.5243974927945045 #
coedge $-1 $306 $305 $298 $367 forward $296 $-1 #
edge $-1 $374 -8.1998824695028443 $369 -4.6612795732507566 $298 $393 forward 7 unknown #
edge $-1 $303 46.469551507605573 $374 52.358775597399827 $299 $394 forward 7 unknown #
vertex $-1 $300 $395 #
straight-curve $-1 -34.152759234945108 35.941670083765814 15.600558032876478 -0.85716729658548041 0 -0.51503808176128008 I I #
edge $-1 $369 -20.877449333691565 $307 -9.2509921664569283 $306 $396 forward 7 unknown #
point $-1 -46.469551507605573 35.941670083765814 8.1998824695028443 #
point $-1 -52.358775597399827 24.315212916531177 4.6612795732507566 #
vertex $-1 $368 $397 #
straight-curve $-1 -52.358775597399827 0 8.1998824695028443 0 -1 0 I I #
vertex $-1 $313 $398 #
point $-1 -45.039174363315247 30.128441500148497 2.0617824110064227 #
straight-curve $-1 -52.358775597399827 35.941670083765814 0 0 0 -1 I I #
point $-1 -52.358775597399827 -35.941670083765814 -8.1998824695028443 #
straight-curve $-1 -52.358775597399827 0 -8.1998824695028443 0 1 0 I I #
point $-1 -52.358775597399827 35.941670083765814 -8.1998824695028443 #
straight-curve $-1 -52.358775597399827 -16.462022383492236 -7.6998824695028443 0 -1 0 I I #
point $-1 -52.358775597399827 -35.941670083765814 -7.6998824695028443 #
point $-1 -52.358775597399827 -29.906419450203135 -7.6998824695028443 #
straight-curve $-1 -52.358775597399827 -29.906419450203135 -3.0194300513759966 0 0 -1 I I #
straight-curve $-1 -52.358775597399827 -35.941670083765814 0 0 0 -1 I I #
straight-curve $-1 0 35.941670083765814 8.1998824695028443 -1 0 0 I I #
point $-1 45.760010686748259 35.941670083765814 8.1998824695028389 #
straight-curve $-1 52.358775597399827 35.941670083765814 0 0 0 -1 I I #
point $-1 52.358775597399827 35.941670083765814 8.1998824695028443 #
point $-1 42.578726958067811 23.656068857961827 -1.4750345994940681 #
point $-1 42.578726958067811 31.027429593444225 -1.4750345994940681 #
straight-curve $-1 -52.358775597399827 35.941670083765814 0 0 0 -1 I I #
straight-curve $-1 0 35.941670083765814 8.1998824695028443 -1 0 0 I I #
point $-1 -52.358775597399827 35.941670083765814 4.6612795732507566 #
straight-curve $-1 -52.358775597399827 15.064220750074249 4.6612795732507557 0 -1 0 I I #
point $-1 -52.358775597399827 35.941670083765814 8.1998824695028443 #
point $-1 -45.552368185551551 30.128441500148497 0.0034743434862816169 #
End-of-ACIS-data 