500 0 14 0           
7 Unknown 11 ACIS 5.0 NT 24 Fri Mar 26 00:59:02 1999 
-1 9.9999999999999995e-007 1e-010 
body $-1 $14 $-1 $15 #
body $-1 $16 $-1 $17 #
body $-1 $18 $-1 $19 #
body $-1 $20 $-1 $21 #
body $-1 $22 $-1 $23 #
body $-1 $24 $-1 $25 #
body $-1 $26 $-1 $27 #
body $-1 $28 $-1 $29 #
body $-1 $30 $-1 $31 #
body $-1 $32 $-1 $33 #
body $-1 $34 $-1 $35 #
body $-1 $36 $-1 $37 #
body $-1 $38 $-1 $39 #
body $-1 $40 $-1 $41 #
lump $-1 $-1 $42 $0 #
transform $-1 1 0 0 0 1 0 0 0 1 51.334574419385355 21.393453199374882 7.6815208876798398 1 rotate no_reflect no_shear #
lump $-1 $-1 $43 $1 #
transform $-1 1 0 0 0 1 0 0 0 1 51.334574419385355 21.393453199374882 7.6815208876798398 1 rotate no_reflect no_shear #
lump $-1 $-1 $44 $2 #
transform $-1 1 0 0 0 1 0 0 0 1 51.334574419385355 21.393453199374882 7.6815208876798398 1 rotate no_reflect no_shear #
lump $-1 $-1 $45 $3 #
transform $-1 1 0 0 0 1 0 0 0 1 51.334574419385355 21.393453199374882 7.6815208876798398 1 rotate no_reflect no_shear #
lump $-1 $-1 $46 $4 #
transform $-1 1 0 0 0 1 0 0 0 1 51.334574419385355 21.393453199374882 7.6815208876798398 1 rotate no_reflect no_shear #
lump $-1 $-1 $47 $5 #
transform $-1 1 0 0 0 1 0 0 0 1 51.334574419385355 21.393453199374882 7.6815208876798398 1 rotate no_reflect no_shear #
lump $-1 $-1 $48 $6 #
transform $-1 1 0 0 0 1 0 0 0 1 51.334574419385355 21.393453199374882 7.6815208876798398 1 rotate no_reflect no_shear #
lump $-1 $-1 $49 $7 #
transform $-1 1 0 0 0 1 0 0 0 1 51.334574419385355 21.393453199374882 7.6815208876798398 1 rotate no_reflect no_shear #
lump $-1 $-1 $50 $8 #
transform $-1 1 0 0 0 1 0 0 0 1 51.334574419385355 21.393453199374882 7.6815208876798398 1 rotate no_reflect no_shear #
lump $-1 $-1 $51 $9 #
transform $-1 1 0 0 0 1 0 0 0 1 51.334574419385355 21.393453199374882 7.6815208876798398 1 rotate no_reflect no_shear #
lump $-1 $-1 $52 $10 #
transform $-1 1 0 0 0 1 0 0 0 1 51.334574419385355 21.393453199374882 7.6815208876798398 1 rotate no_reflect no_shear #
lump $-1 $-1 $53 $11 #
transform $-1 1 0 0 0 1 0 0 0 1 51.334574419385355 21.393453199374882 7.6815208876798398 1 rotate no_reflect no_shear #
lump $-1 $-1 $54 $12 #
transform $-1 1 0 0 0 1 0 0 0 1 51.334574419385355 21.393453199374882 7.6815208876798398 1 rotate no_reflect no_shear #
lump $-1 $-1 $55 $13 #
transform $-1 1 0 0 0 1 0 0 0 1 51.334574419385355 21.393453199374882 7.6815208876798398 1 rotate no_reflect no_shear #
shell $-1 $-1 $-1 $56 $-1 $14 #
shell $-1 $-1 $-1 $57 $-1 $16 #
shell $-1 $-1 $-1 $58 $-1 $18 #
shell $-1 $-1 $-1 $59 $-1 $20 #
shell $-1 $-1 $-1 $60 $-1 $22 #
shell $-1 $-1 $-1 $61 $-1 $24 #
shell $-1 $-1 $-1 $62 $-1 $26 #
shell $-1 $-1 $-1 $63 $-1 $28 #
shell $-1 $-1 $-1 $64 $-1 $30 #
shell $-1 $-1 $-1 $65 $-1 $32 #
shell $-1 $-1 $-1 $66 $-1 $34 #
shell $-1 $-1 $-1 $67 $-1 $36 #
shell $-1 $-1 $-1 $68 $-1 $38 #
shell $-1 $-1 $-1 $69 $-1 $40 #
face $-1 $70 $71 $42 $-1 $72 reversed single #
face $-1 $73 $74 $43 $-1 $75 forward single #
face $-1 $76 $77 $44 $-1 $78 reversed single #
face $-1 $79 $80 $45 $-1 $81 forward single #
face $-1 $82 $83 $46 $-1 $84 reversed single #
face $-1 $85 $86 $47 $-1 $87 forward single #
face $-1 $88 $89 $48 $-1 $90 reversed single #
face $-1 $91 $92 $49 $-1 $93 forward single #
face $-1 $94 $95 $50 $-1 $96 reversed single #
face $-1 $97 $98 $51 $-1 $99 forward single #
face $-1 $100 $101 $52 $-1 $102 reversed single #
face $-1 $103 $104 $53 $-1 $105 forward single #
face $-1 $106 $107 $54 $-1 $108 forward single #
face $-1 $109 $110 $55 $-1 $111 forward single #
face $-1 $112 $113 $42 $-1 $114 forward single #
loop $-1 $-1 $115 $56 #
plane-surface $-1 -51.334574419385355 0 0 1 0 0 0 0 -1 forward_v I I I I #
face $-1 $116 $117 $43 $-1 $118 reversed single #
loop $-1 $-1 $119 $57 #
plane-surface $-1 -51.334574419385355 0 0 1 0 0 0 0 -1 forward_v I I I I #
face $-1 $120 $121 $44 $-1 $122 reversed single #
loop $-1 $-1 $123 $58 #
plane-surface $-1 -26.135049788113221 -77.311080081369852 89.711136917965419 -1 0 0 0 -0.54463904215088732 0.83867056331134215 forward_v I I I I #
face $-1 $124 $125 $45 $-1 $126 forward single #
loop $-1 $127 $128 $59 #
cone-surface $-1 -33.310569129527124 -16.666187394351972 3.1966272011755485 0 0.54463904215088732 -0.83867056331134215 1.5 0 0 1 I I 0 1 1.5 forward I I I I #
face $-1 $129 $130 $46 $-1 $131 reversed single #
loop $-1 $-1 $132 $60 #
plane-surface $-1 -1.4950899573361749 -77.311080081369852 89.711136917965419 -1 0 0 0 -0.54463904215088732 0.83867056331134215 forward_v I I I I #
face $-1 $133 $134 $47 $-1 $135 forward single #
loop $-1 $136 $137 $61 #
cone-surface $-1 -8.6706092987500725 -16.666187394351972 3.1966272011755485 0 0.54463904215088732 -0.83867056331134215 1.5 0 0 1 I I 0 1 1.5 forward I I I I #
face $-1 $138 $139 $48 $-1 $140 reversed single #
loop $-1 $-1 $141 $62 #
plane-surface $-1 23.144869873440868 -77.311080081369852 89.711136917965419 -1 0 0 0 -0.54463904215088732 0.83867056331134215 forward_v I I I I #
face $-1 $142 $143 $49 $-1 $144 forward single #
loop $-1 $145 $146 $63 #
cone-surface $-1 15.969350532026972 -16.666187394351972 3.1966272011755485 0 0.54463904215088732 -0.83867056331134215 1.5 0 0 1 I I 0 1 1.5 forward I I I I #
face $-1 $147 $148 $50 $-1 $149 reversed single #
loop $-1 $-1 $150 $64 #
plane-surface $-1 47.784829704217913 -77.311080081369852 89.711136917965419 -1 0 0 0 -0.54463904215088732 0.83867056331134215 forward_v I I I I #
face $-1 $151 $152 $51 $-1 $153 forward single #
loop $-1 $154 $155 $65 #
cone-surface $-1 40.609310362804017 -16.666187394351972 3.1966272011755485 0 0.54463904215088732 -0.83867056331134215 1.5 0 0 1 I I 0 1 1.5 forward I I I I #
face $-1 $156 $157 $52 $-1 $158 reversed single #
loop $-1 $-1 $159 $66 #
plane-surface $-1 -11.415799437575895 60.121283116878239 107.44027170968202 1 0 0 0 -0.68199836817093118 -0.7313536940579346 forward_v I I I I #
face $-1 $160 $161 $53 $-1 $162 forward single #
loop $-1 $163 $164 $67 #
cone-surface $-1 -7.1939118357791827 17.324605031684104 3.6563565628095849 0 -0.68199836817093118 -0.7313536940579346 1.5 0 0 1 I I 0 1 1.5 forward I I I I #
face $-1 $165 $166 $54 $-1 $167 forward single #
loop $-1 $168 $169 $68 #
cone-surface $-1 -0.86108043308410487 17.324605031684104 3.6563565628095849 0 -0.68199836817093118 -0.7313536940579346 1.5 0 0 1 I I 0 1 1.5 forward I I I I #
face $-1 $170 $171 $55 $-1 $172 forward single #
loop $-1 $173 $174 $69 #
cone-surface $-1 5.471750969610973 17.324605031684104 3.6563565628095849 0 -0.68199836817093118 -0.7313536940579346 1.5 0 0 1 I I 0 1 1.5 forward I I I I #
face $-1 $175 $176 $42 $-1 $177 reversed single #
loop $-1 $-1 $178 $70 #
plane-surface $-1 0 0 7.6815208876798398 0 0 1 1 0 0 forward_v I I I I #
coedge $-1 $179 $180 $181 $182 reversed $71 $-1 #
face $-1 $183 $184 $43 $-1 $185 reversed single #
loop $-1 $-1 $186 $73 #
plane-surface $-1 0 0 -7.6815208876798398 0 0 1 1 0 0 forward_v I I I I #
coedge $-1 $187 $188 $189 $190 forward $74 $-1 #
face $-1 $191 $192 $44 $-1 $193 reversed single #
loop $-1 $-1 $194 $76 #
plane-surface $-1 -33.310569129527117 -21.393453199374889 3.6055440266575545 0 -0.54463904215088732 0.83867056331134215 1 0 0 forward_v I I I I #
coedge $-1 $195 $196 $197 $198 reversed $77 $-1 #
face $-1 $-1 $199 $45 $-1 $200 forward single #
loop $-1 $201 $202 $79 #
cone-surface $-1 -33.310569129527124 -14.668669230062122 0.12071902269889012 0 0.54463904215088732 -0.83867056331134215 0.75 0 0 1 I I -0.70710678118654757 0.70710678118654757 0.75 forward I I I I #
loop $-1 $-1 $203 $59 #
coedge $-1 $128 $128 $204 $205 reversed $80 $-1 #
face $-1 $206 $207 $46 $-1 $208 reversed single #
loop $-1 $-1 $209 $82 #
plane-surface $-1 -8.6706092987500725 -21.393453199374889 3.6055440266575545 0 -0.54463904215088732 0.83867056331134215 1 0 0 forward_v I I I I #
coedge $-1 $210 $211 $212 $213 reversed $83 $-1 #
face $-1 $-1 $214 $47 $-1 $215 forward single #
loop $-1 $216 $217 $85 #
cone-surface $-1 -8.6706092987500725 -14.668669230062122 0.12071902269889012 0 0.54463904215088732 -0.83867056331134215 0.75 0 0 1 I I -0.70710678118654757 0.70710678118654757 0.75 forward I I I I #
loop $-1 $-1 $218 $61 #
coedge $-1 $137 $137 $219 $220 reversed $86 $-1 #
face $-1 $221 $222 $48 $-1 $223 reversed single #
loop $-1 $-1 $224 $88 #
plane-surface $-1 15.969350532026972 -21.393453199374889 3.6055440266575545 0 -0.54463904215088732 0.83867056331134215 1 0 0 forward_v I I I I #
coedge $-1 $225 $226 $227 $228 reversed $89 $-1 #
face $-1 $-1 $229 $49 $-1 $230 forward single #
loop $-1 $231 $232 $91 #
cone-surface $-1 15.969350532026972 -14.668669230062122 0.12071902269889012 0 0.54463904215088732 -0.83867056331134215 0.75 0 0 1 I I -0.70710678118654757 0.70710678118654757 0.75 forward I I I I #
loop $-1 $-1 $233 $63 #
coedge $-1 $146 $146 $234 $235 reversed $92 $-1 #
face $-1 $236 $237 $50 $-1 $238 reversed single #
loop $-1 $-1 $239 $94 #
plane-surface $-1 40.609310362804017 -21.393453199374889 3.6055440266575545 0 -0.54463904215088732 0.83867056331134215 1 0 0 forward_v I I I I #
coedge $-1 $240 $241 $242 $243 reversed $95 $-1 #
face $-1 $-1 $244 $51 $-1 $245 forward single #
loop $-1 $246 $247 $97 #
cone-surface $-1 40.609310362804017 -14.668669230062122 0.12071902269889012 0 0.54463904215088732 -0.83867056331134215 0.75 0 0 1 I I -0.70710678118654757 0.70710678118654757 0.75 forward I I I I #
loop $-1 $-1 $248 $65 #
coedge $-1 $155 $155 $249 $250 reversed $98 $-1 #
face $-1 $251 $252 $52 $-1 $253 reversed single #
loop $-1 $-1 $254 $100 #
plane-surface $-1 -0.86108043308410487 -9.8989088526618403 32.352810440663163 0 0.68199836817093118 0.7313536940579346 1 0 0 forward_v I I I I #
coedge $-1 $255 $256 $257 $258 reversed $101 $-1 #
face $-1 $-1 $259 $53 $-1 $260 forward single #
loop $-1 $261 $262 $103 #
cone-surface $-1 -7.1939118357791827 15.162079931633208 1.3373323624190743 0 -0.68199836817093118 -0.7313536940579346 0.75 0 0 1 I I -0.70710678118654757 0.70710678118654757 0.75 forward I I I I #
loop $-1 $-1 $263 $67 #
coedge $-1 $164 $164 $264 $265 reversed $104 $-1 #
face $-1 $-1 $266 $54 $-1 $267 forward single #
loop $-1 $268 $269 $106 #
cone-surface $-1 -0.86108043308410487 15.162079931633208 1.3373323624190743 0 -0.68199836817093118 -0.7313536940579346 0.75 0 0 1 I I -0.70710678118654757 0.70710678118654757 0.75 forward I I I I #
loop $-1 $-1 $270 $68 #
coedge $-1 $169 $169 $271 $272 reversed $107 $-1 #
face $-1 $-1 $273 $55 $-1 $274 forward single #
loop $-1 $275 $276 $109 #
cone-surface $-1 5.471750969610973 15.162079931633208 1.3373323624190743 0 -0.68199836817093118 -0.7313536940579346 0.75 0 0 1 I I -0.70710678118654757 0.70710678118654757 0.75 forward I I I I #
loop $-1 $-1 $277 $69 #
coedge $-1 $174 $174 $278 $279 reversed $110 $-1 #
face $-1 $280 $281 $42 $-1 $282 reversed single #
loop $-1 $-1 $283 $112 #
plane-surface $-1 0 0 -7.6815208876798398 0 0 1 1 0 0 forward_v I I I I #
coedge $-1 $284 $285 $286 $287 forward $113 $-1 #
coedge $-1 $288 $115 $289 $290 reversed $71 $-1 #
coedge $-1 $115 $288 $291 $292 forward $71 $-1 #
coedge $-1 $293 $294 $115 $182 forward $176 $-1 #
edge $-1 $295 -21.393453199374882 $296 21.393453199374882 $115 $297 forward 7 unknown #
face $-1 $298 $299 $43 $-1 $300 reversed single #
loop $-1 $-1 $301 $116 #
plane-surface $-1 -54.983945036023798 -10.659751097767245 0 0 1 0 0 0 1 forward_v I I I I #
coedge $-1 $302 $303 $188 $304 forward $117 $-1 #
coedge $-1 $305 $119 $306 $307 reversed $74 $-1 #
coedge $-1 $119 $305 $186 $304 reversed $74 $-1 #
coedge $-1 $308 $309 $119 $190 reversed $310 $-1 #
edge $-1 $311 -7.6815208876798398 $312 7.6815208876798398 $189 $313 forward 7 unknown #
face $-1 $314 $315 $44 $-1 $316 forward single #
loop $-1 $-1 $317 $120 #
plane-surface $-1 -40.486088470941013 -77.311080081369852 89.711136917965419 1 0 0 0 0.54463904215088732 -0.83867056331134215 forward_v I I I I #
coedge $-1 $318 $319 $320 $321 reversed $121 $-1 #
coedge $-1 $196 $123 $322 $323 reversed $77 $-1 #
coedge $-1 $123 $195 $318 $324 reversed $77 $-1 #
coedge $-1 $320 $325 $123 $198 forward $315 $-1 #
edge $-1 $326 17.262086841310044 $327 23.538540686002499 $197 $328 forward 7 unknown #
loop $-1 $-1 $204 $124 #
plane-surface $-1 -33.310569129527117 -21.393453199374889 3.6055440266575545 0 -0.54463904215088732 0.83867056331134215 1 0 0 forward_v I I I I #
loop $-1 $-1 $329 $79 #
coedge $-1 $202 $202 $203 $330 reversed $125 $-1 #
coedge $-1 $203 $203 $202 $330 forward $127 $-1 #
coedge $-1 $204 $204 $128 $205 forward $199 $-1 #
edge $-1 $331 9.6747328752912999e-016 $331 6.2831853071796013 $204 $332 forward 7 unknown #
face $-1 $333 $334 $46 $-1 $335 reversed single #
loop $-1 $-1 $336 $129 #
plane-surface $-1 -15.84612864016397 -77.311080081369852 89.711136917965419 1 0 0 0 0.54463904215088732 -0.83867056331134215 forward_v I I I I #
coedge $-1 $337 $338 $339 $340 reversed $130 $-1 #
coedge $-1 $211 $132 $341 $342 reversed $83 $-1 #
coedge $-1 $132 $210 $337 $343 reversed $83 $-1 #
coedge $-1 $339 $344 $132 $213 forward $345 $-1 #
edge $-1 $346 17.262086841310044 $347 23.538540686002499 $212 $348 forward 7 unknown #
loop $-1 $-1 $219 $133 #
plane-surface $-1 -8.6706092987500725 -21.393453199374889 3.6055440266575545 0 -0.54463904215088732 0.83867056331134215 1 0 0 forward_v I I I I #
loop $-1 $-1 $349 $85 #
coedge $-1 $217 $217 $218 $350 reversed $134 $-1 #
coedge $-1 $218 $218 $217 $350 forward $136 $-1 #
coedge $-1 $219 $219 $137 $220 forward $214 $-1 #
edge $-1 $351 9.6747328752912999e-016 $351 6.2831853071796013 $219 $352 forward 7 unknown #
face $-1 $353 $354 $48 $-1 $355 reversed single #
loop $-1 $-1 $356 $138 #
plane-surface $-1 8.7938311906130746 -77.311080081369852 89.711136917965419 1 0 0 0 0.54463904215088732 -0.83867056331134215 forward_v I I I I #
coedge $-1 $357 $358 $359 $360 reversed $139 $-1 #
coedge $-1 $226 $141 $361 $362 reversed $89 $-1 #
coedge $-1 $141 $225 $357 $363 reversed $89 $-1 #
coedge $-1 $359 $364 $141 $228 forward $365 $-1 #
edge $-1 $366 17.262086841310044 $367 23.538540686002499 $227 $368 forward 7 unknown #
loop $-1 $-1 $234 $142 #
plane-surface $-1 15.969350532026972 -21.393453199374889 3.6055440266575545 0 -0.54463904215088732 0.83867056331134215 1 0 0 forward_v I I I I #
loop $-1 $-1 $369 $91 #
coedge $-1 $232 $232 $233 $370 reversed $143 $-1 #
coedge $-1 $233 $233 $232 $370 forward $145 $-1 #
coedge $-1 $234 $234 $146 $235 forward $229 $-1 #
edge $-1 $371 9.6747328752912999e-016 $371 6.2831853071796013 $234 $372 forward 7 unknown #
face $-1 $373 $374 $50 $-1 $375 reversed single #
loop $-1 $-1 $376 $147 #
plane-surface $-1 33.433791021390121 -77.311080081369852 89.711136917965419 1 0 0 0 0.54463904215088732 -0.83867056331134215 forward_v I I I I #
coedge $-1 $377 $378 $379 $380 reversed $148 $-1 #
coedge $-1 $241 $150 $381 $382 reversed $95 $-1 #
coedge $-1 $150 $240 $377 $383 reversed $95 $-1 #
coedge $-1 $379 $384 $150 $243 forward $385 $-1 #
edge $-1 $386 17.262086841310044 $387 23.538540686002499 $242 $388 forward 7 unknown #
loop $-1 $-1 $249 $151 #
plane-surface $-1 40.609310362804017 -21.393453199374889 3.6055440266575545 0 -0.54463904215088732 0.83867056331134215 1 0 0 forward_v I I I I #
loop $-1 $-1 $389 $97 #
coedge $-1 $247 $247 $248 $390 reversed $152 $-1 #
coedge $-1 $248 $248 $247 $390 forward $154 $-1 #
coedge $-1 $249 $249 $155 $250 forward $244 $-1 #
edge $-1 $391 9.6747328752912999e-016 $391 6.2831853071796013 $249 $392 forward 7 unknown #
face $-1 $393 $394 $52 $-1 $395 reversed single #
loop $-1 $-1 $396 $156 #
plane-surface $-1 9.6936385714076856 60.121283116878239 107.44027170968202 -1 0 0 0 0.68199836817093118 0.7313536940579346 forward_v I I I I #
coedge $-1 $397 $398 $399 $400 reversed $157 $-1 #
coedge $-1 $256 $159 $401 $402 reversed $101 $-1 #
coedge $-1 $159 $255 $397 $403 reversed $101 $-1 #
coedge $-1 $399 $404 $159 $258 forward $405 $-1 #
edge $-1 $406 8.6671883590642373 $407 13.502832046600407 $257 $408 forward 7 unknown #
loop $-1 $-1 $264 $160 #
plane-surface $-1 -0.86108043308410487 -9.8989088526618403 32.352810440663163 0 0.68199836817093118 0.7313536940579346 1 0 0 forward_v I I I I #
loop $-1 $-1 $409 $103 #
coedge $-1 $262 $262 $263 $410 reversed $161 $-1 #
coedge $-1 $263 $263 $262 $410 forward $163 $-1 #
coedge $-1 $264 $264 $164 $265 forward $259 $-1 #
edge $-1 $411 5.2072104952035711e-016 $411 6.2831853071796013 $264 $412 forward 7 unknown #
loop $-1 $-1 $271 $165 #
plane-surface $-1 -0.86108043308410487 -9.8989088526618403 32.352810440663163 0 0.68199836817093118 0.7313536940579346 1 0 0 forward_v I I I I #
loop $-1 $-1 $413 $106 #
coedge $-1 $269 $269 $270 $414 reversed $166 $-1 #
coedge $-1 $270 $270 $269 $414 forward $168 $-1 #
coedge $-1 $271 $271 $169 $272 forward $266 $-1 #
edge $-1 $415 5.2072104952035711e-016 $415 6.2831853071796013 $271 $416 forward 7 unknown #
loop $-1 $-1 $278 $170 #
plane-surface $-1 -0.86108043308410487 -9.8989088526618403 32.352810440663163 0 0.68199836817093118 0.7313536940579346 1 0 0 forward_v I I I I #
loop $-1 $-1 $417 $109 #
coedge $-1 $276 $276 $277 $418 reversed $171 $-1 #
coedge $-1 $277 $277 $276 $418 forward $173 $-1 #
coedge $-1 $278 $278 $174 $279 forward $273 $-1 #
edge $-1 $419 5.2072104952035711e-016 $419 6.2831853071796013 $278 $420 forward 7 unknown #
face $-1 $421 $422 $42 $-1 $423 reversed single #
loop $-1 $-1 $289 $175 #
plane-surface $-1 0 -21.393453199374882 0 0 1 0 0 0 1 forward_v I I I I #
coedge $-1 $294 $293 $424 $425 forward $176 $-1 #
coedge $-1 $426 $178 $427 $428 forward $113 $-1 #
coedge $-1 $178 $426 $429 $430 forward $113 $-1 #
coedge $-1 $431 $432 $178 $287 reversed $433 $-1 #
edge $-1 $434 -21.393453199374882 $435 21.393453199374882 $286 $436 forward 7 unknown #
coedge $-1 $180 $179 $426 $437 reversed $71 $-1 #
coedge $-1 $438 $429 $179 $290 forward $281 $-1 #
edge $-1 $439 -7.6815208876798398 $295 7.6815208876798398 $179 $440 forward 7 unknown #
coedge $-1 $427 $441 $180 $292 reversed $422 $-1 #
edge $-1 $442 -7.6815208876798398 $296 7.6815208876798398 $291 $443 forward 7 unknown #
coedge $-1 $283 $181 $441 $444 forward $176 $-1 #
coedge $-1 $181 $283 $438 $445 forward $176 $-1 #
vertex $-1 $182 $446 #
vertex $-1 $444 $447 #
straight-curve $-1 -51.334574419385355 0 -7.6815208876798398 0 1 0 I I #
face $-1 $448 $310 $43 $-1 $449 reversed single #
loop $-1 $-1 $450 $183 #
plane-surface $-1 -58.63331565266224 -8.672851769677079 0 1 0 0 0 0 -1 forward_v I I I I #
coedge $-1 $451 $452 $453 $454 forward $184 $-1 #
coedge $-1 $455 $186 $451 $456 forward $117 $-1 #
coedge $-1 $186 $455 $308 $457 forward $117 $-1 #
edge $-1 $311 6.6859524415869132 $458 10.659751097767245 $186 $459 forward 7 unknown #
coedge $-1 $188 $187 $460 $461 forward $74 $-1 #
coedge $-1 $462 $463 $187 $307 forward $464 $-1 #
edge $-1 $465 -10.659751097767245 $312 -6.6859524415869132 $306 $466 forward 7 unknown #
coedge $-1 $467 $189 $303 $457 reversed $310 $-1 #
coedge $-1 $189 $467 $462 $468 reversed $310 $-1 #
loop $-1 $-1 $189 $298 #
vertex $-1 $304 $469 #
vertex $-1 $468 $470 #
straight-curve $-1 -51.334574419385355 -6.6859524415869132 0 0 0 1 I I #
face $-1 $-1 $471 $44 $-1 $472 reversed single #
loop $-1 $-1 $197 $191 #
plane-surface $-1 0 0 7.6815208876798398 0 0 1 1 0 0 forward_v I I I I #
coedge $-1 $473 $474 $475 $476 reversed $192 $-1 #
coedge $-1 $477 $194 $196 $324 forward $121 $-1 #
coedge $-1 $194 $477 $473 $478 forward $121 $-1 #
coedge $-1 $475 $197 $194 $321 forward $315 $-1 #
edge $-1 $327 9.4797652233496628 $479 23.830803906177454 $320 $480 forward 7 unknown #
coedge $-1 $481 $482 $195 $323 forward $471 $-1 #
edge $-1 $483 -41.250024432325148 $326 -37.174047571302872 $322 $484 forward 7 unknown #
edge $-1 $327 -7.4838132149422236 $483 -8.3777959833898778e-015 $196 $485 forward 7 unknown #
coedge $-1 $197 $475 $481 $486 forward $315 $-1 #
vertex $-1 $198 $487 #
vertex $-1 $198 $488 #
straight-curve $-1 -26.135049788113221 -38.655540040684926 7.681520887679838 0 1 0 I I #
coedge $-1 $329 $329 $-1 $489 reversed $201 $-1 #
edge $-1 $490 0 $490 6.2831853071796004 $202 $491 forward 7 unknown #
vertex $-1 $205 $492 #
ellipse-curve $-1 -33.310569129527124 -18.255226277028658 5.643532457168698 0 -0.54463904215088732 0.83867056331134215 1.5 0 0 1 I I #
face $-1 $-1 $345 $46 $-1 $493 forward single #
loop $-1 $-1 $494 $206 #
plane-surface $-1 0 -21.393453199374882 0 0 1 0 0 0 1 forward_v I I I I #
coedge $-1 $495 $496 $497 $498 reversed $207 $-1 #
coedge $-1 $499 $209 $211 $343 forward $130 $-1 #
coedge $-1 $209 $499 $495 $500 forward $130 $-1 #
coedge $-1 $497 $212 $209 $340 forward $345 $-1 #
edge $-1 $347 -2.8402146920388613 $501 11.510823990788934 $339 $502 forward 7 unknown #
coedge $-1 $503 $504 $210 $342 forward $334 $-1 #
edge $-1 $505 -41.250024432325148 $346 -37.174047571302872 $341 $506 forward 7 unknown #
edge $-1 $347 -7.4838132149422236 $505 -8.3777959833898778e-015 $211 $507 forward 7 unknown #
coedge $-1 $212 $497 $503 $508 forward $345 $-1 #
loop $-1 $-1 $497 $333 #
vertex $-1 $342 $509 #
vertex $-1 $213 $510 #
straight-curve $-1 -1.4950899573361749 -38.655540040684926 7.681520887679838 0 1 0 I I #
coedge $-1 $349 $349 $-1 $511 reversed $216 $-1 #
edge $-1 $512 0 $512 6.2831853071796004 $217 $513 forward 7 unknown #
vertex $-1 $220 $514 #
ellipse-curve $-1 -8.6706092987500725 -18.255226277028658 5.643532457168698 0 -0.54463904215088732 0.83867056331134215 1.5 0 0 1 I I #
face $-1 $-1 $365 $48 $-1 $515 forward single #
loop $-1 $-1 $516 $221 #
plane-surface $-1 0 -21.393453199374882 0 0 1 0 0 0 1 forward_v I I I I #
coedge $-1 $517 $518 $519 $520 reversed $222 $-1 #
coedge $-1 $521 $224 $226 $363 forward $139 $-1 #
coedge $-1 $224 $521 $517 $522 forward $139 $-1 #
coedge $-1 $519 $227 $224 $360 forward $365 $-1 #
edge $-1 $367 -15.160194607427382 $523 -0.80915592459958852 $359 $524 forward 7 unknown #
coedge $-1 $525 $526 $225 $362 forward $354 $-1 #
edge $-1 $527 -41.250024432325148 $366 -37.174047571302872 $361 $528 forward 7 unknown #
edge $-1 $367 -7.4838132149422236 $527 -8.3777959833898778e-015 $226 $529 forward 7 unknown #
coedge $-1 $227 $519 $525 $530 forward $365 $-1 #
loop $-1 $-1 $519 $353 #
vertex $-1 $362 $531 #
vertex $-1 $228 $532 #
straight-curve $-1 23.144869873440868 -38.655540040684926 7.681520887679838 0 1 0 I I #
coedge $-1 $369 $369 $-1 $533 reversed $231 $-1 #
edge $-1 $534 0 $534 6.2831853071796004 $232 $535 forward 7 unknown #
vertex $-1 $235 $536 #
ellipse-curve $-1 15.969350532026972 -18.255226277028658 5.643532457168698 0 -0.54463904215088732 0.83867056331134215 1.5 0 0 1 I I #
face $-1 $-1 $385 $50 $-1 $537 forward single #
loop $-1 $-1 $538 $236 #
plane-surface $-1 0 -21.393453199374882 0 0 1 0 0 0 1 forward_v I I I I #
coedge $-1 $539 $540 $541 $542 reversed $237 $-1 #
coedge $-1 $543 $239 $241 $383 forward $148 $-1 #
coedge $-1 $239 $543 $539 $544 forward $148 $-1 #
coedge $-1 $541 $242 $239 $380 forward $385 $-1 #
edge $-1 $387 -27.480174522815904 $545 -13.129135839988113 $379 $546 forward 7 unknown #
coedge $-1 $547 $548 $240 $382 forward $374 $-1 #
edge $-1 $549 -41.250024432325148 $386 -37.174047571302872 $381 $550 forward 7 unknown #
edge $-1 $387 -7.4838132149422236 $549 -8.3777959833898778e-015 $241 $551 forward 7 unknown #
coedge $-1 $242 $541 $547 $552 forward $385 $-1 #
loop $-1 $-1 $541 $373 #
vertex $-1 $382 $553 #
vertex $-1 $243 $554 #
straight-curve $-1 47.784829704217913 -38.655540040684926 7.681520887679838 0 1 0 I I #
coedge $-1 $389 $389 $-1 $555 reversed $246 $-1 #
edge $-1 $556 0 $556 6.2831853071796004 $247 $557 forward 7 unknown #
vertex $-1 $250 $558 #
ellipse-curve $-1 40.609310362804017 -18.255226277028658 5.643532457168698 0 -0.54463904215088732 0.83867056331134215 1.5 0 0 1 I I #
face $-1 $-1 $405 $52 $-1 $559 forward single #
loop $-1 $-1 $560 $251 #
plane-surface $-1 0 21.393453199374882 0 0 -1 0 0 0 -1 forward_v I I I I #
coedge $-1 $561 $562 $563 $564 reversed $252 $-1 #
coedge $-1 $565 $254 $256 $403 forward $157 $-1 #
coedge $-1 $254 $565 $561 $566 forward $157 $-1 #
coedge $-1 $563 $257 $254 $400 forward $405 $-1 #
edge $-1 $407 -10.985259221033843 $567 10.124178787949738 $399 $568 forward 7 unknown #
coedge $-1 $569 $570 $255 $402 forward $394 $-1 #
edge $-1 $571 -50.547925757207565 $406 -46.038614967161173 $401 $572 forward 7 unknown #
edge $-1 $407 36.174997924335045 $571 42.786906398749778 $256 $573 forward 7 unknown #
coedge $-1 $257 $563 $569 $574 forward $405 $-1 #
loop $-1 $-1 $563 $393 #
vertex $-1 $402 $575 #
vertex $-1 $258 $576 #
straight-curve $-1 -11.415799437575895 30.060641558439119 7.681520887679838 0 -1 0 I I #
coedge $-1 $409 $409 $-1 $577 reversed $261 $-1 #
edge $-1 $578 0 $578 6.2831853071796004 $262 $579 forward 7 unknown #
vertex $-1 $265 $580 #
ellipse-curve $-1 -7.1939118357791827 18.975631355606797 5.426865492656642 0 0.68199836817093118 0.7313536940579346 1.5 0 0 1 I I #
coedge $-1 $413 $413 $-1 $581 reversed $268 $-1 #
edge $-1 $582 0 $582 6.2831853071796004 $269 $583 forward 7 unknown #
vertex $-1 $272 $584 #
ellipse-curve $-1 -0.86108043308410487 18.975631355606797 5.426865492656642 0 0.68199836817093118 0.7313536940579346 1.5 0 0 1 I I #
coedge $-1 $417 $417 $-1 $585 reversed $275 $-1 #
edge $-1 $586 0 $586 6.2831853071796004 $276 $587 forward 7 unknown #
vertex $-1 $279 $588 #
ellipse-curve $-1 5.471750969610973 18.975631355606797 5.426865492656642 0 0.68199836817093118 0.7313536940579346 1.5 0 0 1 I I #
face $-1 $-1 $433 $42 $-1 $589 reversed single #
loop $-1 $-1 $590 $280 #
plane-surface $-1 0 21.393453199374882 0 0 -1 0 0 0 -1 forward_v I I I I #
coedge $-1 $432 $431 $283 $425 reversed $433 $-1 #
edge $-1 $591 -21.393453199374882 $592 21.393453199374882 $424 $593 forward 7 unknown #
coedge $-1 $285 $284 $288 $437 forward $113 $-1 #
coedge $-1 $590 $291 $284 $428 reversed $422 $-1 #
edge $-1 $435 -51.334574419385355 $442 51.334574419385355 $427 $594 forward 7 unknown #
coedge $-1 $289 $595 $285 $430 reversed $281 $-1 #
edge $-1 $439 -51.334574419385355 $434 51.334574419385355 $429 $596 forward 7 unknown #
coedge $-1 $424 $286 $595 $597 forward $433 $-1 #
coedge $-1 $286 $424 $590 $598 reversed $433 $-1 #
loop $-1 $-1 $431 $421 #
vertex $-1 $287 $599 #
vertex $-1 $287 $600 #
straight-curve $-1 51.334574419385355 0 7.6815208876798398 0 1 0 I I #
edge $-1 $442 -21.393453199374882 $439 21.393453199374882 $288 $601 forward 7 unknown #
coedge $-1 $595 $289 $294 $445 reversed $281 $-1 #
vertex $-1 $437 $602 #
straight-curve $-1 -51.334574419385355 -21.393453199374882 0 0 0 -1 I I #
coedge $-1 $291 $590 $293 $444 reversed $422 $-1 #
vertex $-1 $428 $603 #
straight-curve $-1 -51.334574419385355 21.393453199374882 0 0 0 -1 I I #
edge $-1 $296 -51.334574419385355 $591 51.334574419385355 $441 $604 forward 7 unknown #
edge $-1 $592 -51.334574419385355 $295 51.334574419385355 $438 $605 forward 7 unknown #
point $-1 -51.334574419385355 -21.393453199374882 -7.6815208876798398 #
point $-1 -51.334574419385355 21.393453199374882 -7.6815208876798398 #
face $-1 $-1 $464 $43 $-1 $606 forward single #
plane-surface $-1 -54.983945036023798 -6.6859524415869132 0 0 -1 0 0 0 -1 forward_v I I I I #
coedge $-1 $607 $608 $467 $609 forward $299 $-1 #
coedge $-1 $460 $301 $302 $456 reversed $184 $-1 #
coedge $-1 $301 $460 $463 $610 reversed $184 $-1 #
coedge $-1 $608 $607 $301 $454 reversed $299 $-1 #
edge $-1 $611 -7.6815208876798398 $612 7.6815208876798398 $453 $613 forward 7 unknown #
coedge $-1 $303 $302 $607 $614 forward $117 $-1 #
edge $-1 $458 -3.6493706166384428 $612 3.6493706166384428 $451 $615 forward 7 unknown #
edge $-1 $616 -3.6493706166384428 $311 3.6493706166384428 $308 $617 forward 7 unknown #
vertex $-1 $456 $618 #
straight-curve $-1 -51.334574419385355 0 -7.6815208876798398 0 -1 0 I I #
coedge $-1 $452 $451 $305 $461 reversed $184 $-1 #
edge $-1 $465 -7.6815208876798398 $458 7.6815208876798398 $460 $619 forward 7 unknown #
coedge $-1 $620 $306 $309 $468 forward $464 $-1 #
coedge $-1 $306 $620 $452 $610 forward $464 $-1 #
loop $-1 $-1 $306 $448 #
vertex $-1 $307 $621 #
straight-curve $-1 -51.334574419385355 0 7.6815208876798398 0 1 0 I I #
coedge $-1 $309 $308 $450 $609 reversed $310 $-1 #
edge $-1 $312 -3.6493706166384428 $622 3.6493706166384428 $309 $623 forward 7 unknown #
point $-1 -51.334574419385355 -6.6859524415869132 -7.6815208876798398 #
point $-1 -51.334574419385355 -6.6859524415869132 7.6815208876798398 #
loop $-1 $-1 $322 $314 #
plane-surface $-1 0 -21.393453199374882 0 0 1 0 0 0 1 forward_v I I I I #
coedge $-1 $474 $317 $319 $478 reversed $192 $-1 #
coedge $-1 $317 $473 $624 $625 reversed $192 $-1 #
coedge $-1 $325 $320 $317 $476 forward $315 $-1 #
edge $-1 $479 -23.538540686002499 $626 -17.262086841310044 $475 $627 forward 7 unknown #
coedge $-1 $319 $318 $482 $628 reversed $121 $-1 #
edge $-1 $629 8.3777959833898778e-015 $479 7.4838132149422236 $473 $630 forward 7 unknown #
vertex $-1 $321 $631 #
straight-curve $-1 -16.655284564763559 -15.116999354682427 7.6815208876798398 -1 0 0 I I #
coedge $-1 $624 $322 $325 $486 reversed $471 $-1 #
coedge $-1 $322 $624 $477 $628 forward $471 $-1 #
vertex $-1 $323 $632 #
straight-curve $-1 -26.135049788113221 -21.393453199374882 44.85556845898271 0 0 1 I I #
straight-curve $-1 -26.135049788113221 -21.393453199374889 3.6055440266575545 0 -0.83867056331134215 -0.54463904215088732 I I #
edge $-1 $626 -40.486088470941013 $326 -26.135049788113221 $481 $633 forward 7 unknown #
point $-1 -26.135049788113221 -21.393453199374882 7.6815208876798398 #
point $-1 -26.135049788113221 -15.116999354682427 7.6815208876798398 #
edge $-1 $634 1 $634 0 $329 $-1 forward 7 unknown #
vertex $-1 $330 $635 #
ellipse-curve $-1 -33.310569129527124 -15.077148511675286 0.74972194518239677 0 -0.54463904215088732 0.83867056331134215 1.5 0 0 1 I I #
point $-1 -31.810569129527124 -18.255226277028658 5.6435324571687007 #
plane-surface $-1 0 0 7.6815208876798398 0 0 1 1 0 0 forward_v I I I I #
coedge $-1 $504 $503 $496 $636 forward $334 $-1 #
coedge $-1 $496 $336 $338 $500 reversed $207 $-1 #
coedge $-1 $336 $495 $494 $636 reversed $207 $-1 #
coedge $-1 $344 $339 $336 $498 forward $345 $-1 #
edge $-1 $501 -23.538540686002499 $637 -17.262086841310044 $497 $638 forward 7 unknown #
coedge $-1 $338 $337 $504 $639 reversed $130 $-1 #
edge $-1 $640 8.3777959833898778e-015 $501 7.4838132149422236 $495 $641 forward 7 unknown #
vertex $-1 $340 $642 #
straight-curve $-1 -4.3353046493750362 -15.116999354682427 7.6815208876798398 -1 0 0 I I #
coedge $-1 $494 $341 $344 $508 reversed $334 $-1 #
coedge $-1 $341 $494 $499 $639 forward $334 $-1 #
vertex $-1 $342 $643 #
straight-curve $-1 -1.4950899573361749 -21.393453199374882 44.85556845898271 0 0 1 I I #
straight-curve $-1 -1.4950899573361749 -21.393453199374889 3.6055440266575545 0 -0.83867056331134215 -0.54463904215088732 I I #
edge $-1 $637 -15.84612864016397 $346 -1.4950899573361749 $503 $644 forward 7 unknown #
point $-1 -1.4950899573361749 -21.393453199374882 7.6815208876798398 #
point $-1 -1.4950899573361749 -15.116999354682427 7.6815208876798398 #
edge $-1 $645 1 $645 0 $349 $-1 forward 7 unknown #
vertex $-1 $350 $646 #
ellipse-curve $-1 -8.6706092987500725 -15.077148511675286 0.74972194518239677 0 -0.54463904215088732 0.83867056331134215 1.5 0 0 1 I I #
point $-1 -7.1706092987500725 -18.255226277028658 5.6435324571687007 #
plane-surface $-1 0 0 7.6815208876798398 0 0 1 1 0 0 forward_v I I I I #
coedge $-1 $526 $525 $518 $647 forward $354 $-1 #
coedge $-1 $518 $356 $358 $522 reversed $222 $-1 #
coedge $-1 $356 $517 $516 $647 reversed $222 $-1 #
coedge $-1 $364 $359 $356 $520 forward $365 $-1 #
edge $-1 $523 -23.538540686002499 $648 -17.262086841310044 $519 $649 forward 7 unknown #
coedge $-1 $358 $357 $526 $650 reversed $139 $-1 #
edge $-1 $651 8.3777959833898778e-015 $523 7.4838132149422236 $517 $652 forward 7 unknown #
vertex $-1 $360 $653 #
straight-curve $-1 7.9846752660134861 -15.116999354682427 7.6815208876798398 -1 0 0 I I #
coedge $-1 $516 $361 $364 $530 reversed $354 $-1 #
coedge $-1 $361 $516 $521 $650 forward $354 $-1 #
vertex $-1 $362 $654 #
straight-curve $-1 23.144869873440868 -21.393453199374882 44.85556845898271 0 0 1 I I #
straight-curve $-1 23.144869873440868 -21.393453199374889 3.6055440266575545 0 -0.83867056331134215 -0.54463904215088732 I I #
edge $-1 $648 8.7938311906130746 $366 23.144869873440868 $525 $655 forward 7 unknown #
point $-1 23.144869873440868 -21.393453199374882 7.6815208876798398 #
point $-1 23.144869873440868 -15.116999354682427 7.6815208876798398 #
edge $-1 $656 1 $656 0 $369 $-1 forward 7 unknown #
vertex $-1 $370 $657 #
ellipse-curve $-1 15.969350532026972 -15.077148511675286 0.74972194518239677 0 -0.54463904215088732 0.83867056331134215 1.5 0 0 1 I I #
point $-1 17.469350532026972 -18.255226277028658 5.6435324571687007 #
plane-surface $-1 0 0 7.6815208876798398 0 0 1 1 0 0 forward_v I I I I #
coedge $-1 $548 $547 $540 $658 forward $374 $-1 #
coedge $-1 $540 $376 $378 $544 reversed $237 $-1 #
coedge $-1 $376 $539 $538 $658 reversed $237 $-1 #
coedge $-1 $384 $379 $376 $542 forward $385 $-1 #
edge $-1 $545 -23.538540686002499 $659 -17.262086841310044 $541 $660 forward 7 unknown #
coedge $-1 $378 $377 $548 $661 reversed $148 $-1 #
edge $-1 $662 8.3777959833898778e-015 $545 7.4838132149422236 $539 $663 forward 7 unknown #
vertex $-1 $380 $664 #
straight-curve $-1 20.304655181402008 -15.116999354682427 7.6815208876798398 -1 0 0 I I #
coedge $-1 $538 $381 $384 $552 reversed $374 $-1 #
coedge $-1 $381 $538 $543 $661 forward $374 $-1 #
vertex $-1 $382 $665 #
straight-curve $-1 47.784829704217913 -21.393453199374882 44.85556845898271 0 0 1 I I #
straight-curve $-1 47.784829704217913 -21.393453199374889 3.6055440266575545 0 -0.83867056331134215 -0.54463904215088732 I I #
edge $-1 $659 33.433791021390121 $386 47.784829704217913 $547 $666 forward 7 unknown #
point $-1 47.784829704217913 -21.393453199374882 7.6815208876798398 #
point $-1 47.784829704217913 -15.116999354682427 7.6815208876798398 #
edge $-1 $667 1 $667 0 $389 $-1 forward 7 unknown #
vertex $-1 $390 $668 #
ellipse-curve $-1 40.609310362804017 -15.077148511675286 0.74972194518239677 0 -0.54463904215088732 0.83867056331134215 1.5 0 0 1 I I #
point $-1 42.109310362804017 -18.255226277028658 5.6435324571687007 #
plane-surface $-1 0 0 7.6815208876798398 0 0 1 1 0 0 forward_v I I I I #
coedge $-1 $570 $569 $562 $669 forward $394 $-1 #
coedge $-1 $562 $396 $398 $566 reversed $252 $-1 #
coedge $-1 $396 $561 $560 $669 reversed $252 $-1 #
coedge $-1 $404 $399 $396 $564 forward $405 $-1 #
edge $-1 $567 -13.502832046600407 $670 -8.6671883590642373 $563 $671 forward 7 unknown #
coedge $-1 $398 $397 $570 $672 reversed $157 $-1 #
edge $-1 $673 -42.786906398749778 $567 -36.174997924335045 $561 $674 forward 7 unknown #
vertex $-1 $400 $675 #
straight-curve $-1 -0.43054021654205243 16.557809511838713 7.681520887679838 1 0 0 I I #
coedge $-1 $560 $401 $404 $574 reversed $394 $-1 #
coedge $-1 $401 $560 $565 $672 forward $394 $-1 #
vertex $-1 $402 $676 #
straight-curve $-1 -11.415799437575895 21.393453199374882 53.720135854841011 0 0 1 I I #
straight-curve $-1 -11.415799437575895 -9.8989088526618403 32.352810440663163 0 0.7313536940579346 -0.68199836817093118 I I #
edge $-1 $670 -9.6936385714076856 $406 11.415799437575895 $569 $677 forward 7 unknown #
point $-1 -11.415799437575895 21.393453199374882 7.6815208876798398 #
point $-1 -11.415799437575895 16.557809511838713 7.681520887679838 #
edge $-1 $678 1 $678 0 $409 $-1 forward 7 unknown #
vertex $-1 $410 $679 #
ellipse-curve $-1 -7.1939118357791827 15.673578707761406 1.8858476329625251 0 0.68199836817093118 0.7313536940579346 1.5 0 0 1 I I #
point $-1 -5.6939118357791827 18.975631355606801 5.4268654926566446 #
edge $-1 $680 1 $680 0 $413 $-1 forward 7 unknown #
vertex $-1 $414 $681 #
ellipse-curve $-1 -0.86108043308410487 15.673578707761406 1.8858476329625251 0 0.68199836817093118 0.7313536940579346 1.5 0 0 1 I I #
point $-1 0.63891956691589513 18.975631355606801 5.4268654926566446 #
edge $-1 $682 1 $682 0 $417 $-1 forward 7 unknown #
vertex $-1 $418 $683 #
ellipse-curve $-1 5.471750969610973 15.673578707761406 1.8858476329625251 0 0.68199836817093118 0.7313536940579346 1.5 0 0 1 I I #
point $-1 6.971750969610973 18.975631355606801 5.4268654926566446 #
plane-surface $-1 51.334574419385355 0 0 -1 0 0 0 0 1 forward_v I I I I #
coedge $-1 $441 $427 $432 $598 forward $422 $-1 #
vertex $-1 $425 $684 #
vertex $-1 $597 $685 #
straight-curve $-1 51.334574419385355 0 -7.6815208876798398 0 -1 0 I I #
straight-curve $-1 0 21.393453199374882 7.6815208876798398 -1 0 0 I I #
coedge $-1 $429 $438 $431 $597 reversed $281 $-1 #
straight-curve $-1 0 -21.393453199374882 7.6815208876798398 1 0 0 I I #
edge $-1 $434 -7.6815208876798398 $592 7.6815208876798398 $431 $686 forward 7 unknown #
edge $-1 $435 -7.6815208876798398 $591 7.6815208876798398 $432 $687 forward 7 unknown #
point $-1 51.334574419385355 -21.393453199374882 7.6815208876798398 #
point $-1 51.334574419385355 21.393453199374882 7.6815208876798398 #
straight-curve $-1 -51.334574419385355 0 7.6815208876798398 0 -1 0 I I #
point $-1 -51.334574419385355 -21.393453199374882 7.6815208876798398 #
point $-1 -51.334574419385355 21.393453199374882 7.6815208876798398 #
straight-curve $-1 0 21.393453199374882 -7.6815208876798398 1 0 0 I I #
straight-curve $-1 0 -21.393453199374882 -7.6815208876798398 -1 0 0 I I #
plane-surface $-1 0 0 7.6815208876798398 0 0 1 1 0 0 forward_v I I I I #
coedge $-1 $453 $450 $455 $614 reversed $299 $-1 #
coedge $-1 $450 $453 $620 $688 reversed $299 $-1 #
edge $-1 $622 -7.6815208876798398 $616 7.6815208876798398 $467 $689 forward 7 unknown #
edge $-1 $611 -3.6493706166384428 $465 3.6493706166384428 $452 $690 forward 7 unknown #
vertex $-1 $688 $691 #
vertex $-1 $614 $692 #
straight-curve $-1 -58.63331565266224 -10.659751097767245 0 0 0 -1 I I #
edge $-1 $612 -1.9868993280901659 $616 1.9868993280901659 $607 $693 forward 7 unknown #
straight-curve $-1 -54.983945036023798 -10.659751097767245 -7.6815208876798398 -1 0 0 I I #
vertex $-1 $457 $694 #
straight-curve $-1 -54.983945036023798 -6.6859524415869132 -7.6815208876798398 1 0 0 I I #
point $-1 -51.334574419385355 -10.659751097767245 -7.6815208876798398 #
straight-curve $-1 -51.334574419385355 -10.659751097767245 0 0 0 -1 I I #
coedge $-1 $463 $462 $608 $688 forward $464 $-1 #
point $-1 -51.334574419385355 -10.659751097767245 7.6815208876798398 #
vertex $-1 $468 $695 #
straight-curve $-1 -54.983945036023798 -6.6859524415869132 7.6815208876798398 -1 0 0 I I #
coedge $-1 $482 $481 $474 $625 forward $471 $-1 #
edge $-1 $626 37.174047571302872 $629 41.250024432325148 $624 $696 forward 7 unknown #
vertex $-1 $486 $697 #
straight-curve $-1 -40.486088470941013 -38.655540040684926 7.681520887679838 0 -1 0 I I #
edge $-1 $629 -23.830803906177454 $483 -9.4797652233496628 $482 $698 forward 7 unknown #
vertex $-1 $628 $699 #
straight-curve $-1 -40.486088470941013 -21.393453199374889 3.6055440266575545 0 0.83867056331134215 0.54463904215088732 I I #
point $-1 -40.486088470941013 -15.116999354682427 7.6815208876798398 #
point $-1 -26.135049788113221 -21.393453199374882 3.6055440266575589 #
straight-curve $-1 0 -21.393453199374882 7.6815208876798398 1 0 0 I I #
vertex $-1 $489 $700 #
point $-1 -31.810569129527124 -15.077148511675286 0.74972194518239677 #
edge $-1 $637 37.174047571302872 $640 41.250024432325148 $494 $701 forward 7 unknown #
vertex $-1 $508 $702 #
straight-curve $-1 -15.84612864016397 -38.655540040684926 7.681520887679838 0 -1 0 I I #
edge $-1 $640 -11.510823990788934 $505 2.8402146920388613 $504 $703 forward 7 unknown #
vertex $-1 $639 $704 #
straight-curve $-1 -15.84612864016397 -21.393453199374889 3.6055440266575545 0 0.83867056331134215 0.54463904215088732 I I #
point $-1 -15.84612864016397 -15.116999354682427 7.6815208876798398 #
point $-1 -1.4950899573361749 -21.393453199374882 3.6055440266575589 #
straight-curve $-1 0 -21.393453199374882 7.6815208876798398 1 0 0 I I #
vertex $-1 $511 $705 #
point $-1 -7.1706092987500725 -15.077148511675286 0.74972194518239677 #
edge $-1 $648 37.174047571302872 $651 41.250024432325148 $516 $706 forward 7 unknown #
vertex $-1 $530 $707 #
straight-curve $-1 8.7938311906130746 -38.655540040684926 7.681520887679838 0 -1 0 I I #
edge $-1 $651 0.80915592459958852 $527 15.160194607427382 $526 $708 forward 7 unknown #
vertex $-1 $650 $709 #
straight-curve $-1 8.7938311906130746 -21.393453199374889 3.6055440266575545 0 0.83867056331134215 0.54463904215088732 I I #
point $-1 8.7938311906130746 -15.116999354682427 7.6815208876798398 #
point $-1 23.144869873440868 -21.393453199374882 3.6055440266575589 #
straight-curve $-1 0 -21.393453199374882 7.6815208876798398 1 0 0 I I #
vertex $-1 $533 $710 #
point $-1 17.469350532026972 -15.077148511675286 0.74972194518239677 #
edge $-1 $659 37.174047571302872 $662 41.250024432325148 $538 $711 forward 7 unknown #
vertex $-1 $552 $712 #
straight-curve $-1 33.433791021390121 -38.655540040684926 7.681520887679838 0 -1 0 I I #
edge $-1 $662 13.129135839988113 $549 27.480174522815904 $548 $713 forward 7 unknown #
vertex $-1 $661 $714 #
straight-curve $-1 33.433791021390121 -21.393453199374889 3.6055440266575545 0 0.83867056331134215 0.54463904215088732 I I #
point $-1 33.433791021390121 -15.116999354682427 7.6815208876798398 #
point $-1 47.784829704217913 -21.393453199374882 3.6055440266575589 #
straight-curve $-1 0 -21.393453199374882 7.6815208876798398 1 0 0 I I #
vertex $-1 $555 $715 #
point $-1 42.109310362804017 -15.077148511675286 0.74972194518239677 #
edge $-1 $670 46.038614967161173 $673 50.547925757207565 $560 $716 forward 7 unknown #
vertex $-1 $574 $717 #
straight-curve $-1 9.6936385714076856 30.060641558439119 7.681520887679838 0 1 0 I I #
edge $-1 $673 -10.124178787949738 $571 10.985259221033843 $570 $718 forward 7 unknown #
vertex $-1 $672 $719 #
straight-curve $-1 9.6936385714076856 -9.8989088526618403 32.352810440663163 0 -0.7313536940579346 0.68199836817093118 I I #
point $-1 9.6936385714076856 16.557809511838713 7.681520887679838 #
point $-1 -11.415799437575895 21.393453199374886 3.172210097633446 #
straight-curve $-1 0 21.393453199374882 7.6815208876798398 -1 0 0 I I #
vertex $-1 $577 $720 #
point $-1 -5.6939118357791827 15.673578707761406 1.8858476329625251 #
vertex $-1 $581 $721 #
point $-1 0.63891956691589513 15.673578707761406 1.8858476329625251 #
vertex $-1 $585 $722 #
point $-1 6.971750969610973 15.673578707761406 1.8858476329625251 #
point $-1 51.334574419385355 21.393453199374882 -7.6815208876798398 #
point $-1 51.334574419385355 -21.393453199374882 -7.6815208876798398 #
straight-curve $-1 51.334574419385355 -21.393453199374882 0 0 0 -1 I I #
straight-curve $-1 51.334574419385355 21.393453199374882 0 0 0 -1 I I #
edge $-1 $622 -1.9868993280901659 $611 1.9868993280901659 $608 $723 forward 7 unknown #
straight-curve $-1 -58.63331565266224 -6.6859524415869132 0 0 0 -1 I I #
straight-curve $-1 -54.983945036023798 -10.659751097767245 7.6815208876798398 1 0 0 I I #
point $-1 -58.63331565266224 -10.659751097767245 7.6815208876798398 #
point $-1 -58.63331565266224 -10.659751097767245 -7.6815208876798398 #
straight-curve $-1 -58.63331565266224 -8.672851769677079 -7.6815208876798398 0 1 0 I I #
point $-1 -58.63331565266224 -6.6859524415869132 -7.6815208876798398 #
point $-1 -58.63331565266224 -6.6859524415869132 7.6815208876798398 #
straight-curve $-1 -40.486088470941013 -21.393453199374882 44.85556845898271 0 0 -1 I I #
point $-1 -40.486088470941013 -21.393453199374882 7.6815208876798398 #
straight-curve $-1 -16.655284564763559 -21.393453199374882 3.6055440266575598 1 0 0 I I #
point $-1 -40.486088470941013 -21.393453199374882 3.6055440266575589 #
point $-1 -33.310569129527124 -14.260189948448957 -0.50828389978461652 #
straight-curve $-1 -15.84612864016397 -21.393453199374882 44.85556845898271 0 0 -1 I I #
point $-1 -15.84612864016397 -21.393453199374882 7.6815208876798398 #
straight-curve $-1 -4.3353046493750362 -21.393453199374882 3.6055440266575598 1 0 0 I I #
point $-1 -15.84612864016397 -21.393453199374882 3.6055440266575589 #
point $-1 -8.6706092987500725 -14.260189948448957 -0.50828389978461652 #
straight-curve $-1 8.7938311906130746 -21.393453199374882 44.85556845898271 0 0 -1 I I #
point $-1 8.7938311906130746 -21.393453199374882 7.6815208876798398 #
straight-curve $-1 7.9846752660134861 -21.393453199374882 3.6055440266575598 1 0 0 I I #
point $-1 8.7938311906130746 -21.393453199374882 3.6055440266575589 #
point $-1 15.969350532026972 -14.260189948448957 -0.50828389978461652 #
straight-curve $-1 33.433791021390121 -21.393453199374882 44.85556845898271 0 0 -1 I I #
point $-1 33.433791021390121 -21.393453199374882 7.6815208876798398 #
straight-curve $-1 20.304655181402008 -21.393453199374882 3.6055440266575598 1 0 0 I I #
point $-1 33.433791021390121 -21.393453199374882 3.6055440266575589 #
point $-1 40.609310362804017 -14.260189948448957 -0.50828389978461652 #
straight-curve $-1 9.6936385714076856 21.393453199374882 53.720135854841011 0 0 -1 I I #
point $-1 9.6936385714076856 21.393453199374882 7.6815208876798398 #
straight-curve $-1 -0.43054021654205243 21.393453199374882 3.1722100976334477 -1 0 0 I I #
point $-1 9.6936385714076856 21.393453199374886 3.172210097633446 #
point $-1 -7.1939118357791827 14.65058115550501 0.78881709187562332 #
point $-1 -0.86108043308410487 14.65058115550501 0.78881709187562332 #
point $-1 5.471750969610973 14.65058115550501 0.78881709187562332 #
straight-curve $-1 -58.63331565266224 -8.672851769677079 7.6815208876798398 0 -1 0 I I #
End-of-ACIS-data 