500 0 5 0           
7 Unknown 11 ACIS 5.0 NT 24 Fri Mar 26 20:41:25 1999 
-1 9.9999999999999995e-007 1e-010 
body $-1 $5 $-1 $6 #
body $-1 $7 $-1 $8 #
body $-1 $9 $-1 $10 #
body $-1 $11 $-1 $12 #
body $-1 $13 $-1 $14 #
lump $-1 $-1 $15 $0 #
transform $-1 1 0 0 0 1 0 0 0 1 48.106936857203891 19.749287185758089 5.1085240738867883 1 rotate no_reflect no_shear #
lump $-1 $-1 $16 $1 #
transform $-1 1 0 0 0 1 0 0 0 1 48.106936857203891 19.749287185758089 5.1085240738867883 1 rotate no_reflect no_shear #
lump $-1 $-1 $17 $2 #
transform $-1 1 0 0 0 1 0 0 0 1 48.106936857203891 19.749287185758089 5.1085240738867883 1 rotate no_reflect no_shear #
lump $-1 $-1 $18 $3 #
transform $-1 1 0 0 0 1 0 0 0 1 48.106936857203891 19.749287185758089 5.1085240738867883 1 rotate no_reflect no_shear #
lump $-1 $-1 $19 $4 #
transform $-1 1 0 0 0 1 0 0 0 1 48.106936857203891 19.749287185758089 5.1085240738867883 1 rotate no_reflect no_shear #
shell $-1 $-1 $-1 $20 $-1 $5 #
shell $-1 $-1 $-1 $21 $-1 $7 #
shell $-1 $-1 $-1 $22 $-1 $9 #
shell $-1 $-1 $-1 $23 $-1 $11 #
shell $-1 $-1 $-1 $24 $-1 $13 #
face $-1 $25 $26 $15 $-1 $27 forward single #
face $-1 $28 $29 $16 $-1 $30 forward single #
face $-1 $31 $32 $17 $-1 $33 reversed single #
face $-1 $34 $35 $18 $-1 $36 forward single #
face $-1 $37 $38 $19 $-1 $39 forward single #
face $-1 $40 $41 $15 $-1 $42 reversed single #
loop $-1 $-1 $43 $20 #
plane-surface $-1 0 0 5.1085240738867883 0 0 1 1 0 0 forward_v I I I I #
face $-1 $44 $45 $16 $-1 $46 reversed single #
loop $-1 $-1 $47 $21 #
plane-surface $-1 0 -16.591738498493591 -2.1085240738867883 0 0 1 1 0 0 forward_v I I I I #
face $-1 $48 $49 $17 $-1 $50 reversed single #
loop $-1 $-1 $51 $22 #
plane-surface $-1 -37.478984468846733 74.371267845508314 89.5575168814362 -1 0 0 0 0.80901700255871778 0.5877852410284794 forward_v I I I I #
face $-1 $52 $53 $18 $-1 $54 forward single #
loop $-1 $55 $56 $23 #
cone-surface $-1 -45.070379031958993 17.131368891517592 2.2482667509637633 0 -0.80901700255871778 -0.5877852410284794 1 0 0 1 I I 0 1 1 forward I I I I #
face $-1 $57 $58 $19 $-1 $59 forward single #
loop $-1 $60 $61 $24 #
cone-surface $-1 -40.515542294091638 17.131368891517592 2.2482667509637633 0 -0.80901700255871778 -0.5877852410284794 1 0 0 1 I I 0 1 1 forward I I I I #
face $-1 $62 $63 $15 $-1 $64 reversed single #
loop $-1 $-1 $65 $25 #
plane-surface $-1 0 0 -5.1085240738867883 0 0 1 1 0 0 forward_v I I I I #
coedge $-1 $66 $67 $68 $69 forward $26 $-1 #
face $-1 $70 $71 $16 $-1 $72 reversed single #
loop $-1 $-1 $73 $28 #
plane-surface $-1 0 -13.434189811229093 -3.6085240738867883 0 -1 0 0 0 -1 forward_v I I I I #
coedge $-1 $74 $75 $76 $77 reversed $29 $-1 #
face $-1 $78 $79 $17 $-1 $80 reversed single #
loop $-1 $-1 $81 $31 #
plane-surface $-1 -42.792960663025312 -3.4673918714848782 33.004421929929343 0 0.80901700255871778 0.5877852410284794 1 0 0 forward_v I I I I #
coedge $-1 $82 $83 $84 $85 reversed $32 $-1 #
face $-1 $-1 $86 $18 $-1 $87 forward single #
loop $-1 $88 $89 $34 #
cone-surface $-1 -45.070379031958993 15.583503846673356 1.1236770011985291 0 -0.80901700255871778 -0.5877852410284794 0.5 0 0 1 I I -0.70710678118654746 0.70710678118654746 0.5 forward I I I I #
loop $-1 $-1 $90 $23 #
coedge $-1 $56 $56 $91 $92 reversed $35 $-1 #
face $-1 $-1 $93 $19 $-1 $94 forward single #
loop $-1 $95 $96 $37 #
cone-surface $-1 -40.515542294091638 15.583503846673356 1.1236770011985291 0 -0.80901700255871778 -0.5877852410284794 0.5 0 0 1 I I -0.70710678118654746 0.70710678118654746 0.5 forward I I I I #
loop $-1 $-1 $97 $24 #
coedge $-1 $61 $61 $98 $99 reversed $38 $-1 #
face $-1 $100 $101 $15 $-1 $102 reversed single #
loop $-1 $-1 $103 $40 #
plane-surface $-1 0 -19.749287185758089 0 0 1 0 0 0 1 forward_v I I I I #
coedge $-1 $104 $105 $106 $107 forward $41 $-1 #
coedge $-1 $108 $43 $109 $110 forward $26 $-1 #
coedge $-1 $43 $108 $111 $112 forward $26 $-1 #
coedge $-1 $113 $114 $43 $69 reversed $115 $-1 #
edge $-1 $116 -19.749287185758089 $117 19.749287185758089 $68 $118 forward 7 unknown #
face $-1 $119 $120 $16 $-1 $121 reversed single #
loop $-1 $-1 $122 $44 #
plane-surface $-1 0 0 -5.1085240738867883 0 0 1 1 0 0 forward_v I I I I #
coedge $-1 $123 $124 $125 $126 reversed $45 $-1 #
coedge $-1 $127 $47 $124 $128 forward $29 $-1 #
coedge $-1 $47 $127 $129 $130 reversed $29 $-1 #
coedge $-1 $131 $125 $47 $77 forward $120 $-1 #
edge $-1 $132 5.1383205619822974 $133 11.453417936511293 $76 $134 forward 7 unknown #
face $-1 $135 $136 $17 $-1 $137 forward single #
loop $-1 $-1 $84 $48 #
plane-surface $-1 0 19.749287185758089 0 0 -1 0 0 0 -1 forward_v I I I I #
coedge $-1 $138 $139 $140 $141 reversed $49 $-1 #
coedge $-1 $83 $51 $142 $143 reversed $32 $-1 #
coedge $-1 $51 $82 $138 $144 reversed $32 $-1 #
coedge $-1 $140 $145 $51 $85 forward $79 $-1 #
edge $-1 $146 39.670234366831309 $147 43.729354754175382 $84 $148 forward 7 unknown #
loop $-1 $-1 $91 $52 #
plane-surface $-1 -42.792960663025312 -3.4673918714848782 33.004421929929343 0 0.80901700255871778 0.5877852410284794 1 0 0 forward_v I I I I #
loop $-1 $-1 $149 $34 #
coedge $-1 $89 $89 $90 $150 reversed $53 $-1 #
coedge $-1 $90 $90 $89 $150 forward $55 $-1 #
coedge $-1 $91 $91 $56 $92 forward $86 $-1 #
edge $-1 $151 2.0208110034684538e-015 $151 6.2831853071796022 $91 $152 forward 7 unknown #
loop $-1 $-1 $98 $57 #
plane-surface $-1 -42.792960663025312 -3.4673918714848782 33.004421929929343 0 0.80901700255871778 0.5877852410284794 1 0 0 forward_v I I I I #
loop $-1 $-1 $153 $37 #
coedge $-1 $96 $96 $97 $154 reversed $58 $-1 #
coedge $-1 $97 $97 $96 $154 forward $60 $-1 #
coedge $-1 $98 $98 $61 $99 forward $93 $-1 #
edge $-1 $155 2.0208110034684538e-015 $155 6.2831853071796022 $98 $156 forward 7 unknown #
face $-1 $157 $158 $15 $-1 $159 reversed single #
loop $-1 $-1 $160 $62 #
plane-surface $-1 -48.106936857203891 0 0 1 0 0 0 0 -1 forward_v I I I I #
coedge $-1 $161 $111 $162 $163 forward $63 $-1 #
coedge $-1 $164 $65 $161 $165 forward $41 $-1 #
coedge $-1 $65 $164 $166 $167 forward $41 $-1 #
coedge $-1 $114 $113 $65 $107 reversed $115 $-1 #
edge $-1 $168 -19.749287185758089 $169 19.749287185758089 $106 $170 forward 7 unknown #
coedge $-1 $67 $66 $171 $172 forward $26 $-1 #
coedge $-1 $173 $174 $66 $110 reversed $158 $-1 #
edge $-1 $117 -48.106936857203891 $175 48.106936857203891 $109 $176 forward 7 unknown #
coedge $-1 $103 $177 $67 $112 reversed $63 $-1 #
edge $-1 $178 -48.106936857203891 $116 48.106936857203891 $111 $179 forward 7 unknown #
coedge $-1 $106 $68 $177 $180 forward $115 $-1 #
coedge $-1 $68 $106 $173 $181 reversed $115 $-1 #
loop $-1 $-1 $113 $157 #
vertex $-1 $69 $182 #
vertex $-1 $69 $183 #
straight-curve $-1 48.106936857203891 0 5.1085240738867883 0 1 0 I I #
face $-1 $184 $185 $16 $-1 $186 reversed single #
loop $-1 $-1 $125 $70 #
plane-surface $-1 48.106936857203891 0 0 -1 0 0 0 0 1 forward_v I I I I #
coedge $-1 $187 $188 $123 $189 forward $71 $-1 #
coedge $-1 $190 $73 $122 $189 reversed $45 $-1 #
coedge $-1 $73 $190 $74 $128 reversed $45 $-1 #
coedge $-1 $76 $191 $73 $126 forward $120 $-1 #
edge $-1 $192 -3.3042620369433942 $132 -0.30426203694339415 $125 $193 forward 7 unknown #
coedge $-1 $75 $74 $194 $195 reversed $29 $-1 #
edge $-1 $132 -48.106936857203891 $196 48.106936857203891 $124 $197 forward 7 unknown #
coedge $-1 $198 $199 $75 $130 forward $185 $-1 #
edge $-1 $133 -48.106936857203891 $200 48.106936857203891 $129 $201 forward 7 unknown #
coedge $-1 $191 $76 $199 $202 forward $120 $-1 #
vertex $-1 $77 $203 #
vertex $-1 $202 $204 #
straight-curve $-1 48.106936857203891 -8.2958692492467954 -2.1085240738867883 0 -1 0 I I #
face $-1 $-1 $205 $17 $-1 $206 reversed single #
loop $-1 $-1 $142 $78 #
plane-surface $-1 0 0 5.1085240738867883 0 0 1 1 0 0 forward_v I I I I #
coedge $-1 $207 $81 $83 $144 forward $49 $-1 #
coedge $-1 $81 $207 $208 $209 reversed $49 $-1 #
coedge $-1 $210 $84 $81 $141 forward $79 $-1 #
edge $-1 $147 16.082504137334077 $211 26.710456525691235 $140 $212 forward 7 unknown #
coedge $-1 $213 $214 $82 $143 forward $136 $-1 #
edge $-1 $215 -20.385470238347303 $146 -17.436346736996068 $142 $216 forward 7 unknown #
edge $-1 $147 -39.498574371516199 $215 -34.481225694657631 $83 $217 forward 7 unknown #
coedge $-1 $84 $210 $213 $218 reversed $79 $-1 #
vertex $-1 $218 $219 #
vertex $-1 $85 $220 #
straight-curve $-1 -37.478984468846733 19.749287185758089 44.7787584407181 0 0 -1 I I #
coedge $-1 $149 $149 $-1 $221 reversed $88 $-1 #
edge $-1 $222 0 $222 6.2831853071796004 $89 $223 forward 7 unknown #
vertex $-1 $92 $224 #
ellipse-curve $-1 -45.070379031958993 18.274725435082466 3.0789638802147552 0 0.80901700255871778 0.5877852410284794 1 0 0 1 I I #
coedge $-1 $153 $153 $-1 $225 reversed $95 $-1 #
edge $-1 $226 0 $226 6.2831853071796004 $96 $227 forward 7 unknown #
vertex $-1 $99 $228 #
ellipse-curve $-1 -40.515542294091638 18.274725435082466 3.0789638802147552 0 0.80901700255871778 0.5877852410284794 1 0 0 1 I I #
face $-1 $-1 $115 $15 $-1 $229 reversed single #
loop $-1 $-1 $173 $100 #
plane-surface $-1 0 19.749287185758089 0 0 -1 0 0 0 -1 forward_v I I I I #
coedge $-1 $230 $171 $174 $231 forward $101 $-1 #
coedge $-1 $177 $103 $104 $165 reversed $63 $-1 #
coedge $-1 $171 $230 $103 $163 reversed $101 $-1 #
edge $-1 $178 -5.1085240738867883 $232 5.1085240738867883 $162 $233 forward 7 unknown #
coedge $-1 $105 $104 $230 $234 forward $41 $-1 #
edge $-1 $169 -48.106936857203891 $232 48.106936857203891 $161 $235 forward 7 unknown #
coedge $-1 $174 $173 $105 $167 reversed $158 $-1 #
edge $-1 $236 -48.106936857203891 $168 48.106936857203891 $166 $237 forward 7 unknown #
vertex $-1 $107 $238 #
vertex $-1 $180 $239 #
straight-curve $-1 48.106936857203891 0 -5.1085240738867883 0 -1 0 I I #
coedge $-1 $160 $162 $108 $172 reversed $101 $-1 #
edge $-1 $175 -19.749287185758089 $178 19.749287185758089 $171 $240 forward 7 unknown #
coedge $-1 $166 $109 $114 $181 forward $158 $-1 #
coedge $-1 $109 $166 $160 $231 reversed $158 $-1 #
vertex $-1 $110 $241 #
straight-curve $-1 0 19.749287185758089 5.1085240738867883 -1 0 0 I I #
coedge $-1 $111 $161 $113 $180 reversed $63 $-1 #
vertex $-1 $172 $242 #
straight-curve $-1 0 -19.749287185758089 5.1085240738867883 1 0 0 I I #
edge $-1 $116 -5.1085240738867883 $169 5.1085240738867883 $113 $243 forward 7 unknown #
edge $-1 $117 -5.1085240738867883 $168 5.1085240738867883 $114 $244 forward 7 unknown #
point $-1 48.106936857203891 -19.749287185758089 5.1085240738867883 #
point $-1 48.106936857203891 19.749287185758089 5.1085240738867883 #
face $-1 $-1 $245 $16 $-1 $246 reversed single #
loop $-1 $-1 $129 $119 #
plane-surface $-1 0 -19.749287185758089 0 0 1 0 0 0 1 forward_v I I I I #
coedge $-1 $247 $122 $191 $248 forward $71 $-1 #
coedge $-1 $122 $247 $249 $250 forward $71 $-1 #
edge $-1 $251 -48.106936857203891 $192 48.106936857203891 $122 $252 forward 7 unknown #
coedge $-1 $124 $123 $253 $254 reversed $45 $-1 #
coedge $-1 $125 $131 $187 $248 reversed $120 $-1 #
vertex $-1 $248 $255 #
straight-curve $-1 48.106936857203891 -13.434189811229093 -1.8042620369433942 0 0 1 I I #
coedge $-1 $253 $256 $127 $195 forward $245 $-1 #
edge $-1 $200 -11.453417936511293 $196 -5.1383205619822974 $194 $257 forward 7 unknown #
vertex $-1 $195 $258 #
straight-curve $-1 0 -13.434189811229093 -2.1085240738867883 -1 0 0 I I #
coedge $-1 $259 $129 $256 $260 forward $185 $-1 #
coedge $-1 $129 $259 $131 $202 reversed $185 $-1 #
vertex $-1 $260 $261 #
straight-curve $-1 0 -19.749287185758089 -2.1085240738867883 -1 0 0 I I #
edge $-1 $133 2.1085240738867883 $262 5.1085240738867883 $131 $263 forward 7 unknown #
point $-1 48.106936857203891 -13.434189811229093 -2.1085240738867883 #
point $-1 48.106936857203891 -19.749287185758089 -2.1085240738867883 #
loop $-1 $-1 $208 $135 #
plane-surface $-1 -48.106936857203891 0 0 1 0 0 0 0 -1 forward_v I I I I #
coedge $-1 $139 $138 $214 $264 reversed $49 $-1 #
coedge $-1 $265 $266 $139 $209 forward $205 $-1 #
edge $-1 $211 -25.128964237588406 $267 -20.111615560729845 $208 $268 forward 7 unknown #
coedge $-1 $145 $140 $266 $269 reversed $79 $-1 #
vertex $-1 $141 $270 #
straight-curve $-1 -21.396480331512656 19.749287185758089 1.0494036865427194 -1 0 0 I I #
coedge $-1 $271 $142 $145 $218 forward $136 $-1 #
coedge $-1 $142 $271 $207 $264 forward $136 $-1 #
vertex $-1 $143 $272 #
straight-curve $-1 -37.478984468846733 37.185633922754157 5.108524073886791 0 1 0 I I #
straight-curve $-1 -37.478984468846733 -3.4673918714848782 33.004421929929343 0 -0.5877852410284794 0.80901700255871778 I I #
edge $-1 $146 37.478984468846733 $273 48.106936857203891 $145 $274 forward 7 unknown #
point $-1 -37.478984468846733 19.749287185758089 5.1085240738867883 #
point $-1 -37.478984468846733 19.749287185758089 1.0494036865427177 #
edge $-1 $275 1 $275 0 $149 $-1 forward 7 unknown #
vertex $-1 $150 $276 #
ellipse-curve $-1 -45.070379031958993 15.988012347952715 1.4175696217127687 0 0.80901700255871778 0.5877852410284794 1 0 0 1 I I #
point $-1 -44.070379031958993 18.274725435082473 3.0789638802147579 #
edge $-1 $277 1 $277 0 $153 $-1 forward 7 unknown #
vertex $-1 $154 $278 #
ellipse-curve $-1 -40.515542294091638 15.988012347952715 1.4175696217127687 0 0.80901700255871778 0.5877852410284794 1 0 0 1 I I #
point $-1 -39.515542294091638 18.274725435082473 3.0789638802147579 #
plane-surface $-1 48.106936857203891 0 0 -1 0 0 0 0 1 forward_v I I I I #
coedge $-1 $162 $160 $164 $234 reversed $101 $-1 #
edge $-1 $175 -5.1085240738867883 $236 5.1085240738867883 $174 $279 forward 7 unknown #
vertex $-1 $234 $280 #
straight-curve $-1 -48.106936857203891 -19.749287185758089 0 0 0 -1 I I #
edge $-1 $232 -19.749287185758089 $236 19.749287185758089 $230 $281 forward 7 unknown #
straight-curve $-1 0 -19.749287185758089 -5.1085240738867883 -1 0 0 I I #
vertex $-1 $167 $282 #
straight-curve $-1 0 19.749287185758089 -5.1085240738867883 1 0 0 I I #
point $-1 48.106936857203891 19.749287185758089 -5.1085240738867883 #
point $-1 48.106936857203891 -19.749287185758089 -5.1085240738867883 #
straight-curve $-1 -48.106936857203891 0 5.1085240738867883 0 -1 0 I I #
point $-1 -48.106936857203891 19.749287185758089 5.1085240738867883 #
point $-1 -48.106936857203891 -19.749287185758089 5.1085240738867883 #
straight-curve $-1 48.106936857203891 -19.749287185758089 0 0 0 -1 I I #
straight-curve $-1 48.106936857203891 19.749287185758089 0 0 0 -1 I I #
loop $-1 $-1 $253 $184 #
plane-surface $-1 -48.106936857203891 0 0 1 0 0 0 0 -1 forward_v I I I I #
coedge $-1 $188 $187 $259 $283 forward $71 $-1 #
edge $-1 $192 13.434189811229093 $262 19.749287185758089 $191 $284 forward 7 unknown #
coedge $-1 $256 $253 $188 $250 reversed $245 $-1 #
edge $-1 $285 -19.749287185758089 $251 -13.434189811229093 $249 $286 forward 7 unknown #
vertex $-1 $254 $287 #
straight-curve $-1 0 -13.434189811229093 -5.1085240738867883 1 0 0 I I #
coedge $-1 $249 $194 $190 $254 forward $245 $-1 #
edge $-1 $196 0.30426203694339415 $251 3.3042620369433942 $253 $288 forward 7 unknown #
point $-1 48.106936857203891 -13.434189811229093 -5.1085240738867883 #
coedge $-1 $194 $249 $198 $260 reversed $245 $-1 #
straight-curve $-1 -48.106936857203891 -8.2958692492467954 -2.1085240738867883 0 1 0 I I #
point $-1 -48.106936857203891 -13.434189811229093 -2.1085240738867883 #
coedge $-1 $199 $198 $247 $283 reversed $185 $-1 #
edge $-1 $200 2.1085240738867883 $285 5.1085240738867883 $256 $289 forward 7 unknown #
point $-1 -48.106936857203891 -19.749287185758089 -2.1085240738867883 #
vertex $-1 $202 $290 #
straight-curve $-1 48.106936857203891 -19.749287185758089 0 0 0 -1 I I #
edge $-1 $267 -26.710456525691235 $215 -16.082504137334077 $214 $291 forward 7 unknown #
coedge $-1 $266 $208 $271 $292 reversed $205 $-1 #
coedge $-1 $208 $265 $210 $269 forward $205 $-1 #
vertex $-1 $209 $293 #
straight-curve $-1 -48.106936857203891 4.9788528845711477 21.379163011441708 0 -0.5877852410284794 0.80901700255871778 I I #
edge $-1 $273 -5.1085240738867883 $211 -1.0494036865427232 $210 $294 forward 7 unknown #
point $-1 -48.106936857203891 19.749287185758089 1.0494036865427232 #
coedge $-1 $214 $213 $265 $292 forward $136 $-1 #
point $-1 -37.478984468846733 16.800163684406854 5.1085240738867839 #
vertex $-1 $218 $295 #
straight-curve $-1 0 19.749287185758089 5.1085240738867883 -1 0 0 I I #
vertex $-1 $221 $296 #
point $-1 -44.070379031958993 15.988012347952715 1.4175696217127687 #
vertex $-1 $225 $297 #
point $-1 -39.515542294091638 15.988012347952715 1.4175696217127687 #
straight-curve $-1 -48.106936857203891 19.749287185758089 0 0 0 -1 I I #
point $-1 -48.106936857203891 -19.749287185758089 -5.1085240738867883 #
straight-curve $-1 -48.106936857203891 0 -5.1085240738867883 0 1 0 I I #
point $-1 -48.106936857203891 19.749287185758089 -5.1085240738867883 #
edge $-1 $262 -48.106936857203891 $285 48.106936857203891 $259 $298 forward 7 unknown #
straight-curve $-1 48.106936857203891 0 -5.1085240738867883 0 -1 0 I I #
vertex $-1 $250 $299 #
straight-curve $-1 -48.106936857203891 0 -5.1085240738867883 0 1 0 I I #
point $-1 -48.106936857203891 -13.434189811229093 -5.1085240738867883 #
straight-curve $-1 -48.106936857203891 -13.434189811229093 -1.8042620369433942 0 0 -1 I I #
straight-curve $-1 -48.106936857203891 -19.749287185758089 0 0 0 -1 I I #
point $-1 48.106936857203891 -19.749287185758089 -5.1085240738867883 #
straight-curve $-1 -21.396480331512656 16.800163684406854 5.1085240738867874 1 0 0 I I #
edge $-1 $273 -19.749287185758089 $267 -16.800163684406854 $265 $300 forward 7 unknown #
point $-1 -48.106936857203891 16.800163684406854 5.1085240738867839 #
straight-curve $-1 -48.106936857203891 19.749287185758089 0 0 0 -1 I I #
point $-1 -48.106936857203891 19.749287185758089 5.1085240738867883 #
point $-1 -45.070379031958993 15.178995345393997 0.82978438068428939 #
point $-1 -40.515542294091638 15.178995345393997 0.82978438068428939 #
straight-curve $-1 0 -19.749287185758089 -5.1085240738867883 -1 0 0 I I #
point $-1 -48.106936857203891 -19.749287185758089 -5.1085240738867883 #
straight-curve $-1 -48.106936857203891 0 5.1085240738867883 0 -1 0 I I #
End-of-ACIS-data 