500 0 6 0           
7 Unknown 11 ACIS 5.0 NT 24 Thu Mar 25 15:41:58 1999 
-1 9.9999999999999995e-007 1e-010 
body $-1 $6 $-1 $7 #
body $-1 $8 $-1 $9 #
body $-1 $10 $-1 $11 #
body $-1 $12 $-1 $13 #
body $-1 $14 $-1 $15 #
body $-1 $16 $-1 $17 #
lump $-1 $-1 $18 $0 #
transform $-1 1 0 0 0 1 0 0 0 1 69.815363017670222 30.707935970820348 13.231861896591374 1 rotate no_reflect no_shear #
lump $-1 $-1 $19 $1 #
transform $-1 1 0 0 0 1 0 0 0 1 69.815363017670222 30.707935970820348 13.231861896591374 1 rotate no_reflect no_shear #
lump $-1 $-1 $20 $2 #
transform $-1 1 0 0 0 1 0 0 0 1 69.815363017670222 30.707935970820348 13.231861896591374 1 rotate no_reflect no_shear #
lump $-1 $-1 $21 $3 #
transform $-1 1 0 0 0 1 0 0 0 1 69.815363017670222 30.707935970820348 13.231861896591374 1 rotate no_reflect no_shear #
lump $-1 $-1 $22 $4 #
transform $-1 1 0 0 0 1 0 0 0 1 69.815363017670222 30.707935970820348 13.231861896591374 1 rotate no_reflect no_shear #
lump $-1 $-1 $23 $5 #
transform $-1 1 0 0 0 1 0 0 0 1 69.815363017670222 30.707935970820348 13.231861896591374 1 rotate no_reflect no_shear #
shell $-1 $-1 $-1 $24 $-1 $6 #
shell $-1 $-1 $-1 $25 $-1 $8 #
shell $-1 $-1 $-1 $26 $-1 $10 #
shell $-1 $-1 $-1 $27 $-1 $12 #
shell $-1 $-1 $-1 $28 $-1 $14 #
shell $-1 $-1 $-1 $29 $-1 $16 #
face $-1 $30 $31 $18 $-1 $32 forward single #
face $-1 $33 $34 $19 $-1 $35 reversed single #
face $-1 $36 $37 $20 $-1 $38 reversed single #
face $-1 $39 $40 $21 $-1 $41 reversed single #
face $-1 $42 $43 $22 $-1 $44 forward single #
face $-1 $45 $46 $23 $-1 $47 forward single #
face $-1 $48 $49 $18 $-1 $50 reversed single #
loop $-1 $-1 $51 $24 #
plane-surface $-1 0 0 13.231861896591374 0 0 1 1 0 0 forward_v I I I I #
face $-1 $52 $53 $19 $-1 $54 reversed single #
loop $-1 $-1 $55 $25 #
plane-surface $-1 -51.118730447102237 -24.944195562850375 0 1 0 0 0 0 -1 forward_v I I I I #
face $-1 $56 $57 $20 $-1 $58 reversed single #
loop $-1 $-1 $59 $26 #
plane-surface $-1 -47.235184835794854 19.180455154880406 0 0 1 0 0 0 1 forward_v I I I I #
face $-1 $60 $61 $21 $-1 $62 reversed single #
loop $-1 $-1 $63 $27 #
plane-surface $-1 -188.22893550340126 -19.180455154880399 78.260371041468062 0 1 0 -0.84804810408105047 0 0.52991925155115449 forward_v I I I I #
face $-1 $64 $65 $22 $-1 $66 forward single #
loop $-1 $67 $68 $28 #
cone-surface $-1 -66.365313241449414 -16.609606065951361 8.3439282600498377 0.84804810408105047 0 -0.52991925155115449 0.52991925155115449 0 0.84804810408105047 1 I I 0 1 1 forward I I I I #
face $-1 $69 $70 $23 $-1 $71 forward single #
loop $-1 $72 $73 $29 #
cone-surface $-1 -66.365313241449414 -12.753332432557805 8.3439282600498377 0.84804810408105047 0 -0.52991925155115449 0.52991925155115449 0 0.84804810408105047 1 I I 0 1 1 forward I I I I #
face $-1 $74 $75 $18 $-1 $76 reversed single #
loop $-1 $-1 $77 $30 #
plane-surface $-1 0 0 -13.231861896591374 0 0 1 1 0 0 forward_v I I I I #
coedge $-1 $78 $79 $80 $81 forward $31 $-1 #
face $-1 $82 $83 $19 $-1 $84 reversed single #
loop $-1 $-1 $85 $33 #
plane-surface $-1 -47.235184835794854 -19.180455154880399 0 0 -1 0 0 0 -1 forward_v I I I I #
coedge $-1 $86 $87 $88 $89 forward $34 $-1 #
face $-1 $90 $91 $20 $-1 $92 reversed single #
loop $-1 $-1 $93 $36 #
plane-surface $-1 -51.118730447102237 24.944195562850378 0 1 0 0 0 0 -1 forward_v I I I I #
coedge $-1 $94 $95 $96 $97 forward $37 $-1 #
face $-1 $98 $99 $21 $-1 $100 reversed single #
loop $-1 $-1 $101 $39 #
plane-surface $-1 -69.815363017670222 -14.681469249254583 4.2673612072761529 -0.84804810408105047 0 0.52991925155115449 0.52991925155115449 0 0.84804810408105047 forward_v I I I I #
coedge $-1 $102 $103 $104 $105 reversed $40 $-1 #
face $-1 $-1 $106 $22 $-1 $107 forward single #
loop $-1 $108 $109 $42 #
cone-surface $-1 -65.292060187947868 -16.609606065951361 7.6732853423903311 0.84804810408105047 0 -0.52991925155115449 0.26495962577557725 0 0.42402405204052523 1 I I -0.70710678118654746 0.70710678118654746 0.5 forward I I I I #
loop $-1 $-1 $110 $28 #
coedge $-1 $68 $68 $111 $112 reversed $43 $-1 #
face $-1 $-1 $113 $23 $-1 $114 forward single #
loop $-1 $115 $116 $45 #
cone-surface $-1 -65.292060187947868 -12.753332432557805 7.6732853423903311 0.84804810408105047 0 -0.52991925155115449 0.26495962577557725 0 0.42402405204052523 1 I I -0.70710678118654746 0.70710678118654746 0.5 forward I I I I #
loop $-1 $-1 $117 $29 #
coedge $-1 $73 $73 $118 $119 reversed $46 $-1 #
face $-1 $120 $121 $18 $-1 $122 reversed single #
loop $-1 $-1 $123 $48 #
plane-surface $-1 0 -30.707935970820348 0 0 1 0 0 0 1 forward_v I I I I #
coedge $-1 $124 $125 $126 $127 forward $49 $-1 #
coedge $-1 $128 $51 $129 $130 forward $31 $-1 #
coedge $-1 $51 $128 $131 $132 forward $31 $-1 #
coedge $-1 $133 $134 $51 $81 reversed $135 $-1 #
edge $-1 $136 -30.707935970820348 $137 30.707935970820348 $80 $138 forward 7 unknown #
face $-1 $139 $140 $19 $-1 $141 forward single #
loop $-1 $-1 $142 $52 #
plane-surface $-1 -43.351639224487471 -24.944195562850375 0 -1 0 0 0 0 1 forward_v I I I I #
coedge $-1 $143 $144 $145 $146 forward $53 $-1 #
coedge $-1 $147 $55 $148 $149 reversed $34 $-1 #
coedge $-1 $55 $147 $150 $151 reversed $34 $-1 #
coedge $-1 $144 $143 $55 $89 reversed $53 $-1 #
edge $-1 $152 -13.231861896591374 $153 13.231861896591374 $88 $154 forward 7 unknown #
face $-1 $155 $156 $20 $-1 $157 reversed single #
loop $-1 $-1 $158 $56 #
plane-surface $-1 -43.351639224487471 24.944195562850378 0 -1 0 0 0 0 1 forward_v I I I I #
coedge $-1 $159 $160 $161 $162 reversed $57 $-1 #
coedge $-1 $163 $59 $164 $165 reversed $37 $-1 #
coedge $-1 $59 $163 $166 $167 reversed $37 $-1 #
coedge $-1 $160 $159 $59 $97 reversed $57 $-1 #
edge $-1 $168 -13.231861896591374 $169 13.231861896591374 $96 $170 forward 7 unknown #
face $-1 $171 $172 $21 $-1 $173 reversed single #
loop $-1 $-1 $174 $60 #
plane-surface $-1 -188.22893550340126 -10.182483343628768 78.260371041468062 0 -1 0 0.84804810408105047 0 -0.52991925155115449 forward_v I I I I #
coedge $-1 $175 $176 $177 $178 reversed $61 $-1 #
coedge $-1 $103 $63 $179 $180 reversed $40 $-1 #
coedge $-1 $63 $102 $175 $181 reversed $40 $-1 #
coedge $-1 $177 $182 $63 $105 forward $183 $-1 #
edge $-1 $184 24.299104734030408 $185 29.900746283550006 $104 $186 forward 7 unknown #
loop $-1 $-1 $111 $64 #
plane-surface $-1 -69.815363017670222 -14.681469249254583 4.2673612072761529 -0.84804810408105047 0 0.52991925155115449 0.52991925155115449 0 0.84804810408105047 forward_v I I I I #
loop $-1 $-1 $187 $42 #
coedge $-1 $109 $109 $110 $188 reversed $65 $-1 #
coedge $-1 $110 $110 $109 $188 forward $67 $-1 #
coedge $-1 $111 $111 $68 $112 forward $106 $-1 #
edge $-1 $189 0 $189 6.2831853071796004 $111 $190 forward 7 unknown #
loop $-1 $-1 $118 $69 #
plane-surface $-1 -69.815363017670222 -14.681469249254583 4.2673612072761529 -0.84804810408105047 0 0.52991925155115449 0.52991925155115449 0 0.84804810408105047 forward_v I I I I #
loop $-1 $-1 $191 $45 #
coedge $-1 $116 $116 $117 $192 reversed $70 $-1 #
coedge $-1 $117 $117 $116 $192 forward $72 $-1 #
coedge $-1 $118 $118 $73 $119 forward $113 $-1 #
edge $-1 $193 0 $193 6.2831853071796004 $118 $194 forward 7 unknown #
face $-1 $195 $196 $18 $-1 $197 reversed single #
loop $-1 $-1 $198 $74 #
plane-surface $-1 -69.815363017670222 0 0 1 0 0 0 0 -1 forward_v I I I I #
coedge $-1 $199 $131 $200 $201 forward $75 $-1 #
coedge $-1 $202 $77 $199 $203 forward $49 $-1 #
coedge $-1 $77 $202 $204 $205 forward $49 $-1 #
coedge $-1 $134 $133 $77 $127 reversed $135 $-1 #
edge $-1 $206 -30.707935970820348 $207 30.707935970820348 $126 $208 forward 7 unknown #
coedge $-1 $79 $78 $209 $210 forward $31 $-1 #
coedge $-1 $211 $212 $78 $130 reversed $196 $-1 #
edge $-1 $137 -69.815363017670222 $213 69.815363017670222 $129 $214 forward 7 unknown #
coedge $-1 $123 $215 $79 $132 reversed $75 $-1 #
edge $-1 $216 -69.815363017670222 $136 69.815363017670222 $131 $217 forward 7 unknown #
coedge $-1 $126 $80 $215 $218 forward $135 $-1 #
coedge $-1 $80 $126 $211 $219 reversed $135 $-1 #
loop $-1 $-1 $133 $195 #
vertex $-1 $81 $220 #
vertex $-1 $81 $221 #
straight-curve $-1 69.815363017670222 0 13.231861896591374 0 1 0 I I #
face $-1 $222 $223 $19 $-1 $224 reversed single #
loop $-1 $-1 $225 $82 #
plane-surface $-1 0 0 13.231861896591374 0 0 1 1 0 0 forward_v I I I I #
coedge $-1 $226 $227 $228 $229 reversed $83 $-1 #
coedge $-1 $88 $85 $230 $231 reversed $53 $-1 #
coedge $-1 $85 $88 $232 $233 reversed $53 $-1 #
coedge $-1 $227 $226 $85 $146 reversed $83 $-1 #
edge $-1 $234 -13.231861896591374 $235 13.231861896591374 $145 $236 forward 7 unknown #
coedge $-1 $87 $86 $237 $238 reversed $34 $-1 #
coedge $-1 $230 $239 $86 $149 forward $223 $-1 #
edge $-1 $240 -18.235838189395164 $153 -6.7083573734552111 $148 $241 forward 7 unknown #
coedge $-1 $242 $232 $87 $151 forward $140 $-1 #
edge $-1 $152 6.7083573734552111 $243 18.235838189395164 $150 $244 forward 7 unknown #
vertex $-1 $151 $245 #
vertex $-1 $149 $246 #
straight-curve $-1 -51.118730447102237 -19.180455154880399 0 0 0 -1 I I #
face $-1 $247 $248 $20 $-1 $249 forward single #
loop $-1 $-1 $250 $90 #
plane-surface $-1 0 0 -13.231861896591374 0 0 1 1 0 0 forward_v I I I I #
coedge $-1 $251 $252 $163 $253 forward $91 $-1 #
coedge $-1 $96 $93 $254 $255 reversed $57 $-1 #
coedge $-1 $93 $96 $256 $257 reversed $57 $-1 #
coedge $-1 $258 $259 $93 $162 forward $260 $-1 #
edge $-1 $261 -13.231861896591374 $262 13.231861896591374 $161 $263 forward 7 unknown #
coedge $-1 $95 $94 $158 $253 reversed $37 $-1 #
coedge $-1 $254 $250 $94 $165 forward $156 $-1 #
edge $-1 $264 19.734046806590044 $169 27.50113802920481 $164 $265 forward 7 unknown #
coedge $-1 $266 $256 $95 $167 forward $248 $-1 #
edge $-1 $168 -27.50113802920481 $267 -19.734046806590044 $166 $268 forward 7 unknown #
vertex $-1 $167 $269 #
vertex $-1 $165 $270 #
straight-curve $-1 -51.118730447102237 19.180455154880406 0 0 0 -1 I I #
face $-1 $-1 $183 $21 $-1 $271 forward single #
loop $-1 $-1 $272 $98 #
plane-surface $-1 -69.815363017670222 0 0 1 0 0 0 0 -1 forward_v I I I I #
coedge $-1 $273 $274 $275 $276 reversed $99 $-1 #
coedge $-1 $277 $101 $103 $181 forward $61 $-1 #
coedge $-1 $101 $277 $273 $278 forward $61 $-1 #
coedge $-1 $275 $104 $101 $178 forward $183 $-1 #
edge $-1 $185 -11.839720530253107 $279 -2.8417487190014761 $177 $280 forward 7 unknown #
coedge $-1 $281 $282 $102 $180 forward $172 $-1 #
edge $-1 $283 -34.862824313457878 $184 -25.898323624142655 $179 $284 forward 7 unknown #
edge $-1 $185 -10.570745510986317 $283 0 $103 $285 forward 7 unknown #
coedge $-1 $104 $275 $281 $286 forward $183 $-1 #
loop $-1 $-1 $275 $171 #
vertex $-1 $180 $287 #
vertex $-1 $105 $288 #
straight-curve $-1 -94.11446775170063 -19.180455154880399 13.231861896591376 1 0 0 I I #
coedge $-1 $187 $187 $-1 $289 reversed $108 $-1 #
edge $-1 $290 0 $290 6.2831853071796004 $109 $291 forward 7 unknown #
vertex $-1 $112 $292 #
ellipse-curve $-1 -67.014542242910423 -16.609606065951361 8.7496115519337625 -0.84804810408105047 0 0.52991925155115449 0.52991925155115449 0 0.84804810408105047 1 I I #
coedge $-1 $191 $191 $-1 $293 reversed $115 $-1 #
edge $-1 $294 0 $294 6.2831853071796004 $116 $295 forward 7 unknown #
vertex $-1 $119 $296 #
ellipse-curve $-1 -67.014542242910423 -12.753332432557805 8.7496115519337625 -0.84804810408105047 0 0.52991925155115449 0.52991925155115449 0 0.84804810408105047 1 I I #
face $-1 $-1 $135 $18 $-1 $297 reversed single #
loop $-1 $-1 $211 $120 #
plane-surface $-1 0 30.707935970820348 0 0 -1 0 0 0 -1 forward_v I I I I #
coedge $-1 $298 $209 $212 $299 forward $121 $-1 #
coedge $-1 $215 $123 $124 $203 reversed $75 $-1 #
coedge $-1 $209 $298 $123 $201 reversed $121 $-1 #
edge $-1 $216 -13.231861896591374 $300 13.231861896591374 $200 $301 forward 7 unknown #
coedge $-1 $125 $124 $298 $302 forward $49 $-1 #
edge $-1 $207 -69.815363017670222 $300 69.815363017670222 $199 $303 forward 7 unknown #
coedge $-1 $212 $211 $125 $205 reversed $196 $-1 #
edge $-1 $304 -69.815363017670222 $206 69.815363017670222 $204 $305 forward 7 unknown #
vertex $-1 $127 $306 #
vertex $-1 $218 $307 #
straight-curve $-1 69.815363017670222 0 -13.231861896591374 0 -1 0 I I #
coedge $-1 $198 $200 $128 $210 reversed $121 $-1 #
edge $-1 $213 -30.707935970820348 $216 30.707935970820348 $209 $308 forward 7 unknown #
coedge $-1 $204 $129 $134 $219 forward $196 $-1 #
coedge $-1 $129 $204 $198 $299 reversed $196 $-1 #
vertex $-1 $130 $309 #
straight-curve $-1 0 30.707935970820348 13.231861896591374 -1 0 0 I I #
coedge $-1 $131 $199 $133 $218 reversed $75 $-1 #
vertex $-1 $210 $310 #
straight-curve $-1 0 -30.707935970820348 13.231861896591374 1 0 0 I I #
edge $-1 $136 -13.231861896591374 $207 13.231861896591374 $133 $311 forward 7 unknown #
edge $-1 $137 -13.231861896591374 $206 13.231861896591374 $134 $312 forward 7 unknown #
point $-1 69.815363017670222 -30.707935970820348 13.231861896591374 #
point $-1 69.815363017670222 30.707935970820348 13.231861896591374 #
face $-1 $-1 $313 $19 $-1 $314 reversed single #
loop $-1 $-1 $315 $139 #
plane-surface $-1 0 0 -13.231861896591374 0 0 1 1 0 0 forward_v I I I I #
coedge $-1 $232 $242 $227 $316 forward $140 $-1 #
coedge $-1 $145 $142 $315 $317 reversed $83 $-1 #
coedge $-1 $142 $145 $225 $316 reversed $83 $-1 #
coedge $-1 $318 $319 $142 $229 forward $313 $-1 #
edge $-1 $320 -13.231861896591374 $321 13.231861896591374 $228 $322 forward 7 unknown #
coedge $-1 $315 $148 $143 $231 forward $223 $-1 #
edge $-1 $153 -27.50113802920481 $235 -19.734046806590044 $230 $323 forward 7 unknown #
coedge $-1 $150 $225 $144 $233 forward $140 $-1 #
edge $-1 $234 19.734046806590044 $152 27.50113802920481 $232 $324 forward 7 unknown #
vertex $-1 $233 $325 #
vertex $-1 $231 $326 #
straight-curve $-1 -43.351639224487471 -19.180455154880399 0 0 0 -1 I I #
coedge $-1 $319 $318 $147 $238 forward $313 $-1 #
edge $-1 $243 -13.231861896591374 $240 13.231861896591374 $237 $327 forward 7 unknown #
coedge $-1 $148 $315 $319 $328 forward $223 $-1 #
vertex $-1 $149 $329 #
straight-curve $-1 -51.118730447102237 -12.472097781425187 -13.231861896591374 0 1 0 I I #
coedge $-1 $225 $150 $318 $330 forward $140 $-1 #
vertex $-1 $330 $331 #
straight-curve $-1 -51.118730447102237 -12.472097781425187 13.231861896591374 0 -1 0 I I #
point $-1 -51.118730447102237 -19.180455154880399 13.231861896591374 #
point $-1 -51.118730447102237 -19.180455154880399 -13.231861896591374 #
face $-1 $-1 $260 $20 $-1 $332 reversed single #
loop $-1 $-1 $266 $155 #
plane-surface $-1 0 0 13.231861896591374 0 0 1 1 0 0 forward_v I I I I #
coedge $-1 $164 $333 $251 $334 forward $156 $-1 #
coedge $-1 $335 $158 $250 $334 reversed $91 $-1 #
coedge $-1 $158 $335 $266 $336 reversed $91 $-1 #
edge $-1 $267 -13.231861896591374 $264 13.231861896591374 $158 $337 forward 7 unknown #
coedge $-1 $333 $164 $159 $255 forward $156 $-1 #
edge $-1 $169 6.7083573734552164 $261 18.23583818939516 $254 $338 forward 7 unknown #
coedge $-1 $166 $339 $160 $257 forward $248 $-1 #
edge $-1 $262 -18.23583818939516 $168 -6.7083573734552164 $256 $340 forward 7 unknown #
coedge $-1 $341 $161 $339 $342 reversed $260 $-1 #
coedge $-1 $161 $341 $333 $343 reversed $260 $-1 #
loop $-1 $-1 $341 $247 #
vertex $-1 $343 $344 #
vertex $-1 $162 $345 #
straight-curve $-1 -51.118730447102237 30.707935970820348 0 0 0 1 I I #
vertex $-1 $165 $346 #
straight-curve $-1 -23.617592417897427 19.180455154880406 -13.231861896591374 -1 0 0 I I #
coedge $-1 $339 $166 $252 $336 forward $248 $-1 #
vertex $-1 $167 $347 #
straight-curve $-1 -23.617592417897427 19.180455154880406 13.231861896591374 1 0 0 I I #
point $-1 -51.118730447102237 19.180455154880406 13.231861896591374 #
point $-1 -51.118730447102237 19.180455154880406 -13.231861896591374 #
plane-surface $-1 0 0 13.231861896591374 0 0 1 1 0 0 forward_v I I I I #
coedge $-1 $282 $281 $274 $348 forward $172 $-1 #
coedge $-1 $274 $174 $176 $278 reversed $99 $-1 #
coedge $-1 $174 $273 $272 $348 reversed $99 $-1 #
coedge $-1 $182 $177 $174 $276 forward $183 $-1 #
edge $-1 $279 -29.900746283550006 $349 -24.299104734030408 $275 $350 forward 7 unknown #
coedge $-1 $176 $175 $282 $351 reversed $61 $-1 #
edge $-1 $352 0 $279 10.570745510986317 $273 $353 forward 7 unknown #
vertex $-1 $178 $354 #
straight-curve $-1 -64.213721468150624 -7.3407346246272915 13.231861896591374 0 1 0 I I #
coedge $-1 $272 $179 $182 $286 reversed $172 $-1 #
coedge $-1 $179 $272 $277 $351 forward $172 $-1 #
vertex $-1 $180 $355 #
straight-curve $-1 -69.815363017670222 -19.180455154880399 39.130185520734031 0 0 1 I I #
straight-curve $-1 -69.815363017670222 -19.180455154880399 4.2673612072761529 -0.52991925155115449 0 -0.84804810408105047 I I #
edge $-1 $349 10.182483343628768 $184 19.180455154880399 $281 $356 forward 7 unknown #
point $-1 -69.815363017670222 -19.180455154880399 13.231861896591374 #
point $-1 -64.213721468150624 -19.180455154880399 13.231861896591374 #
edge $-1 $357 1 $357 0 $187 $-1 forward 7 unknown #
vertex $-1 $188 $358 #
ellipse-curve $-1 -65.71608423998839 -16.609606065951361 7.9382449681659084 -0.84804810408105047 0 0.52991925155115449 0.52991925155115449 0 0.84804810408105047 1 I I #
point $-1 -66.484622991359274 -16.609606065951361 9.597659656014816 #
edge $-1 $359 1 $359 0 $191 $-1 forward 7 unknown #
vertex $-1 $192 $360 #
ellipse-curve $-1 -65.71608423998839 -12.753332432557805 7.9382449681659084 -0.84804810408105047 0 0.52991925155115449 0.52991925155115449 0 0.84804810408105047 1 I I #
point $-1 -66.484622991359274 -12.753332432557805 9.597659656014816 #
plane-surface $-1 69.815363017670222 0 0 -1 0 0 0 0 1 forward_v I I I I #
coedge $-1 $200 $198 $202 $302 reversed $121 $-1 #
edge $-1 $213 -13.231861896591374 $304 13.231861896591374 $212 $361 forward 7 unknown #
vertex $-1 $302 $362 #
straight-curve $-1 -69.815363017670222 -30.707935970820348 0 0 0 -1 I I #
edge $-1 $300 -30.707935970820348 $304 30.707935970820348 $298 $363 forward 7 unknown #
straight-curve $-1 0 -30.707935970820348 -13.231861896591374 -1 0 0 I I #
vertex $-1 $205 $364 #
straight-curve $-1 0 30.707935970820348 -13.231861896591374 1 0 0 I I #
point $-1 69.815363017670222 30.707935970820348 -13.231861896591374 #
point $-1 69.815363017670222 -30.707935970820348 -13.231861896591374 #
straight-curve $-1 -69.815363017670222 0 13.231861896591374 0 -1 0 I I #
point $-1 -69.815363017670222 30.707935970820348 13.231861896591374 #
point $-1 -69.815363017670222 -30.707935970820348 13.231861896591374 #
straight-curve $-1 69.815363017670222 -30.707935970820348 0 0 0 -1 I I #
straight-curve $-1 69.815363017670222 30.707935970820348 0 0 0 -1 I I #
loop $-1 $-1 $228 $222 #
plane-surface $-1 0 -30.707935970820348 0 0 1 0 0 0 1 forward_v I I I I #
coedge $-1 $239 $230 $226 $317 forward $223 $-1 #
edge $-1 $321 -18.235838189395164 $234 -6.7083573734552111 $225 $365 forward 7 unknown #
edge $-1 $235 6.7083573734552111 $320 18.235838189395164 $315 $366 forward 7 unknown #
coedge $-1 $237 $228 $242 $330 reversed $313 $-1 #
coedge $-1 $228 $237 $239 $328 reversed $313 $-1 #
vertex $-1 $328 $367 #
vertex $-1 $229 $368 #
straight-curve $-1 -43.351639224487471 -30.707935970820348 0 0 0 1 I I #
straight-curve $-1 -23.617592417897427 -19.180455154880399 -13.231861896591374 1 0 0 I I #
straight-curve $-1 -23.617592417897427 -19.180455154880399 13.231861896591374 -1 0 0 I I #
point $-1 -43.351639224487471 -19.180455154880399 13.231861896591374 #
point $-1 -43.351639224487471 -19.180455154880399 -13.231861896591374 #
straight-curve $-1 -51.118730447102237 -30.707935970820348 0 0 0 -1 I I #
edge $-1 $320 43.351639224487471 $240 51.118730447102237 $319 $369 forward 7 unknown #
point $-1 -51.118730447102237 -30.707935970820351 -13.231861896591374 #
edge $-1 $243 -51.118730447102237 $321 -43.351639224487471 $318 $370 forward 7 unknown #
point $-1 -51.118730447102237 -30.707935970820351 13.231861896591374 #
plane-surface $-1 0 30.707935970820348 0 0 -1 0 0 0 -1 forward_v I I I I #
coedge $-1 $250 $254 $259 $343 forward $156 $-1 #
edge $-1 $371 -18.23583818939516 $264 -6.7083573734552164 $250 $372 forward 7 unknown #
coedge $-1 $252 $251 $341 $373 reversed $91 $-1 #
edge $-1 $267 6.7083573734552164 $374 18.23583818939516 $266 $375 forward 7 unknown #
straight-curve $-1 -43.351639224487471 19.180455154880406 0 0 0 -1 I I #
straight-curve $-1 -51.118730447102237 12.472097781425189 -13.231861896591374 0 1 0 I I #
coedge $-1 $256 $266 $258 $342 forward $248 $-1 #
straight-curve $-1 -51.118730447102237 12.472097781425189 13.231861896591374 0 -1 0 I I #
coedge $-1 $259 $258 $335 $373 forward $260 $-1 #
edge $-1 $374 43.351639224487471 $262 51.118730447102237 $258 $376 forward 7 unknown #
edge $-1 $261 -51.118730447102237 $371 -43.351639224487471 $259 $377 forward 7 unknown #
point $-1 -51.118730447102237 30.707935970820351 -13.231861896591374 #
point $-1 -51.118730447102237 30.707935970820351 13.231861896591374 #
point $-1 -43.351639224487471 19.180455154880406 -13.231861896591374 #
point $-1 -43.351639224487471 19.180455154880406 13.231861896591374 #
edge $-1 $349 25.898323624142655 $352 34.862824313457878 $272 $378 forward 7 unknown #
vertex $-1 $286 $379 #
straight-curve $-1 -94.11446775170063 -10.182483343628768 13.231861896591376 -1 0 0 I I #
edge $-1 $352 2.8417487190014761 $283 11.839720530253107 $282 $380 forward 7 unknown #
vertex $-1 $351 $381 #
straight-curve $-1 -69.815363017670222 -10.182483343628768 4.2673612072761529 0.52991925155115449 0 0.84804810408105047 I I #
point $-1 -64.213721468150624 -10.182483343628768 13.231861896591374 #
point $-1 -69.815363017670222 -19.180455154880399 4.2673612072761529 #
straight-curve $-1 -69.815363017670222 0 13.231861896591374 0 -1 0 I I #
vertex $-1 $289 $382 #
point $-1 -65.186164988437241 -16.609606065951361 8.7862930722469592 #
vertex $-1 $293 $383 #
point $-1 -65.186164988437241 -12.753332432557805 8.7862930722469592 #
straight-curve $-1 -69.815363017670222 30.707935970820348 0 0 0 -1 I I #
point $-1 -69.815363017670222 -30.707935970820348 -13.231861896591374 #
straight-curve $-1 -69.815363017670222 0 -13.231861896591374 0 1 0 I I #
point $-1 -69.815363017670222 30.707935970820348 -13.231861896591374 #
straight-curve $-1 -43.351639224487471 -12.472097781425187 13.231861896591374 0 1 0 I I #
straight-curve $-1 -43.351639224487471 -12.472097781425187 -13.231861896591374 0 -1 0 I I #
point $-1 -43.351639224487471 -30.707935970820351 -13.231861896591374 #
point $-1 -43.351639224487471 -30.707935970820351 13.231861896591374 #
straight-curve $-1 0 -30.707935970820348 -13.231861896591374 -1 0 0 I I #
straight-curve $-1 0 -30.707935970820348 13.231861896591374 1 0 0 I I #
vertex $-1 $373 $384 #
straight-curve $-1 -43.351639224487471 12.472097781425189 -13.231861896591374 0 -1 0 I I #
edge $-1 $374 -13.231861896591374 $371 13.231861896591374 $341 $385 forward 7 unknown #
vertex $-1 $342 $386 #
straight-curve $-1 -43.351639224487471 12.472097781425189 13.231861896591374 0 1 0 I I #
straight-curve $-1 0 30.707935970820348 13.231861896591374 -1 0 0 I I #
straight-curve $-1 0 30.707935970820348 -13.231861896591374 1 0 0 I I #
straight-curve $-1 -69.815363017670222 -10.182483343628768 39.130185520734031 0 0 -1 I I #
point $-1 -69.815363017670222 -10.182483343628768 13.231861896591374 #
straight-curve $-1 -69.815363017670222 -7.3407346246272915 4.2673612072761431 0 -1 0 I I #
point $-1 -69.815363017670222 -10.182483343628768 4.2673612072761529 #
point $-1 -64.868036135907346 -16.609606065951361 7.4083257166147538 #
point $-1 -64.868036135907346 -12.753332432557805 7.4083257166147538 #
point $-1 -43.351639224487471 30.707935970820351 -13.231861896591374 #
straight-curve $-1 -43.351639224487471 30.707935970820348 0 0 0 -1 I I #
point $-1 -43.351639224487471 30.707935970820351 13.231861896591374 #
End-of-ACIS-data 