500 0 5 0           
7 Unknown 11 ACIS 5.0 NT 24 Thu Mar 25 19:41:08 1999 
-1 9.9999999999999995e-007 1e-010 
body $-1 $5 $-1 $6 #
body $-1 $7 $-1 $8 #
body $-1 $9 $-1 $10 #
body $-1 $11 $-1 $12 #
body $-1 $13 $-1 $14 #
lump $-1 $-1 $15 $0 #
transform $-1 1 0 0 0 1 0 0 0 1 68.40174565874203 38.773583906536281 11.972040706075937 1 rotate no_reflect no_shear #
lump $-1 $-1 $16 $1 #
transform $-1 1 0 0 0 1 0 0 0 1 68.40174565874203 38.773583906536281 11.972040706075937 1 rotate no_reflect no_shear #
lump $-1 $-1 $17 $2 #
transform $-1 1 0 0 0 1 0 0 0 1 68.40174565874203 38.773583906536281 11.972040706075937 1 rotate no_reflect no_shear #
lump $-1 $-1 $18 $3 #
transform $-1 1 0 0 0 1 0 0 0 1 68.40174565874203 38.773583906536281 11.972040706075937 1 rotate no_reflect no_shear #
lump $-1 $-1 $19 $4 #
transform $-1 1 0 0 0 1 0 0 0 1 68.40174565874203 38.773583906536281 11.972040706075937 1 rotate no_reflect no_shear #
shell $-1 $-1 $-1 $20 $-1 $5 #
shell $-1 $-1 $-1 $21 $-1 $7 #
shell $-1 $-1 $-1 $22 $-1 $9 #
shell $-1 $-1 $-1 $23 $-1 $11 #
shell $-1 $-1 $-1 $24 $-1 $13 #
face $-1 $25 $26 $15 $-1 $27 forward single #
face $-1 $28 $29 $16 $-1 $30 reversed single #
face $-1 $31 $32 $17 $-1 $33 forward single #
face $-1 $34 $35 $18 $-1 $36 reversed single #
face $-1 $37 $38 $19 $-1 $39 forward single #
face $-1 $40 $41 $15 $-1 $42 reversed single #
loop $-1 $-1 $43 $20 #
plane-surface $-1 0 0 11.972040706075937 0 0 1 1 0 0 forward_v I I I I #
face $-1 $44 $45 $16 $-1 $46 reversed single #
loop $-1 $-1 $47 $21 #
plane-surface $-1 0 -31.888456610222278 5.3918210122288812 0 0 1 1 0 0 forward_v I I I I #
face $-1 $48 $49 $17 $-1 $50 reversed single #
loop $-1 $-1 $51 $22 #
plane-surface $-1 0 31.209758418310123 6.8162237374210184 0 0 1 1 0 0 forward_v I I I I #
face $-1 $52 $53 $18 $-1 $54 reversed single #
loop $-1 $-1 $55 $23 #
plane-surface $-1 31.486054479462965 -7.6687211331083418 195.5928427923852 0 -1 0 -0.55919291073839883 0 -0.82903756765294845 forward_v I I I I #
face $-1 $56 $57 $19 $-1 $58 forward single #
loop $-1 $59 $60 $24 #
cone-surface $-1 63.127299905857377 -11.519752945761006 7.9224028500190213 -0.55919291073839883 0 -0.82903756765294845 0.82903756765294845 0 -0.55919291073839883 1 I I 0 1 1 forward I I I I #
face $-1 $61 $62 $15 $-1 $63 reversed single #
loop $-1 $-1 $64 $25 #
plane-surface $-1 0 0 -11.972040706075937 0 0 1 1 0 0 forward_v I I I I #
coedge $-1 $65 $66 $67 $68 forward $26 $-1 #
face $-1 $69 $70 $16 $-1 $71 reversed single #
loop $-1 $-1 $72 $28 #
plane-surface $-1 0 -25.003329313908274 8.6819308591524091 0 -1 0 0 0 -1 forward_v I I I I #
coedge $-1 $73 $74 $75 $76 reversed $29 $-1 #
face $-1 $77 $78 $17 $-1 $79 reversed single #
loop $-1 $-1 $80 $31 #
plane-surface $-1 0 31.209758418310123 1.5582007935708413 0 0 1 1 0 0 forward_v I I I I #
coedge $-1 $81 $82 $83 $84 reversed $32 $-1 #
face $-1 $85 $86 $18 $-1 $87 reversed single #
loop $-1 $-1 $88 $34 #
plane-surface $-1 -45.013488029536219 -11.519752945761006 82.177609104106963 0.55919291073839883 0 0.82903756765294845 0.82903756765294845 0 -0.55919291073839883 forward_v I I I I #
coedge $-1 $89 $90 $91 $92 reversed $35 $-1 #
face $-1 $-1 $93 $19 $-1 $94 forward single #
loop $-1 $95 $96 $37 #
cone-surface $-1 62.238857786254087 -11.519752945761006 6.6052332656197024 -0.55919291073839883 0 -0.82903756765294845 0.41451878382647422 0 -0.27959645536919941 1 I I -0.70710678118654746 0.70710678118654746 0.5 forward I I I I #
loop $-1 $-1 $97 $24 #
coedge $-1 $60 $60 $98 $99 reversed $38 $-1 #
face $-1 $100 $101 $15 $-1 $102 reversed single #
loop $-1 $-1 $103 $40 #
plane-surface $-1 0 -38.773583906536281 0 0 1 0 0 0 1 forward_v I I I I #
coedge $-1 $104 $105 $106 $107 forward $41 $-1 #
coedge $-1 $108 $43 $109 $110 forward $26 $-1 #
coedge $-1 $43 $108 $111 $112 forward $26 $-1 #
coedge $-1 $113 $114 $43 $68 reversed $115 $-1 #
edge $-1 $116 -38.773583906536281 $117 38.773583906536281 $67 $118 forward 7 unknown #
face $-1 $119 $120 $16 $-1 $121 reversed single #
loop $-1 $-1 $122 $44 #
plane-surface $-1 -68.40174565874203 0 0 1 0 0 0 0 -1 forward_v I I I I #
coedge $-1 $123 $124 $125 $126 reversed $45 $-1 #
coedge $-1 $127 $47 $128 $129 reversed $29 $-1 #
coedge $-1 $47 $127 $123 $130 forward $29 $-1 #
coedge $-1 $125 $131 $47 $76 forward $132 $-1 #
edge $-1 $133 -22.829355601425142 $134 -9.0591010087971355 $75 $135 forward 7 unknown #
face $-1 $136 $137 $17 $-1 $138 reversed single #
loop $-1 $-1 $139 $48 #
plane-surface $-1 0 23.645932930083969 4.1872122654959298 0 1 0 0 0 1 forward_v I I I I #
coedge $-1 $140 $141 $142 $143 reversed $49 $-1 #
coedge $-1 $144 $51 $145 $146 reversed $32 $-1 #
coedge $-1 $51 $144 $147 $148 forward $32 $-1 #
coedge $-1 $149 $150 $51 $84 forward $137 $-1 #
edge $-1 $151 -23.168704697381212 $152 -8.0410537209289075 $83 $153 forward 7 unknown #
face $-1 $154 $155 $18 $-1 $156 forward single #
loop $-1 $-1 $157 $52 #
plane-surface $-1 31.486054479462965 -15.37078475841367 195.5928427923852 0 1 0 0.55919291073839883 0 0.82903756765294845 forward_v I I I I #
coedge $-1 $158 $159 $160 $161 reversed $53 $-1 #
coedge $-1 $90 $55 $162 $163 reversed $35 $-1 #
coedge $-1 $55 $89 $158 $164 reversed $35 $-1 #
coedge $-1 $160 $165 $55 $92 forward $155 $-1 #
edge $-1 $166 -52.658718419010548 $167 -43.327518241709434 $91 $168 forward 7 unknown #
loop $-1 $-1 $98 $56 #
plane-surface $-1 -45.013488029536219 -11.519752945761006 82.177609104106963 0.55919291073839883 0 0.82903756765294845 0.82903756765294845 0 -0.55919291073839883 forward_v I I I I #
loop $-1 $-1 $169 $37 #
coedge $-1 $96 $96 $97 $170 reversed $57 $-1 #
coedge $-1 $97 $97 $96 $170 forward $59 $-1 #
coedge $-1 $98 $98 $60 $99 forward $93 $-1 #
edge $-1 $171 0 $171 6.2831853071796004 $98 $172 forward 7 unknown #
face $-1 $173 $174 $15 $-1 $175 reversed single #
loop $-1 $-1 $176 $61 #
plane-surface $-1 -68.40174565874203 0 0 1 0 0 0 0 -1 forward_v I I I I #
coedge $-1 $177 $111 $178 $179 forward $62 $-1 #
coedge $-1 $180 $64 $177 $181 forward $41 $-1 #
coedge $-1 $64 $180 $182 $183 forward $41 $-1 #
coedge $-1 $114 $113 $64 $107 reversed $115 $-1 #
edge $-1 $184 -38.773583906536281 $185 38.773583906536281 $106 $186 forward 7 unknown #
coedge $-1 $66 $65 $187 $188 forward $26 $-1 #
coedge $-1 $189 $190 $65 $110 reversed $174 $-1 #
edge $-1 $117 -68.40174565874203 $191 68.40174565874203 $109 $192 forward 7 unknown #
coedge $-1 $103 $193 $66 $112 reversed $62 $-1 #
edge $-1 $194 -68.40174565874203 $116 68.40174565874203 $111 $195 forward 7 unknown #
coedge $-1 $106 $67 $193 $196 forward $115 $-1 #
coedge $-1 $67 $106 $189 $197 reversed $115 $-1 #
loop $-1 $-1 $113 $173 #
vertex $-1 $68 $198 #
vertex $-1 $68 $199 #
straight-curve $-1 68.40174565874203 0 11.972040706075937 0 1 0 I I #
face $-1 $200 $201 $16 $-1 $202 forward single #
loop $-1 $-1 $128 $69 #
plane-surface $-1 0 -38.773583906536281 0 0 1 0 0 0 1 forward_v I I I I #
coedge $-1 $203 $204 $205 $206 forward $70 $-1 #
coedge $-1 $205 $72 $74 $130 reversed $45 $-1 #
coedge $-1 $72 $205 $207 $208 reversed $45 $-1 #
coedge $-1 $209 $75 $72 $126 forward $132 $-1 #
edge $-1 $134 1.0508555826526766 $210 7.6310752764997325 $125 $211 forward 7 unknown #
coedge $-1 $74 $73 $203 $212 reversed $29 $-1 #
coedge $-1 $213 $214 $73 $129 forward $120 $-1 #
edge $-1 $215 -68.40174565874203 $133 68.40174565874203 $128 $216 forward 7 unknown #
edge $-1 $217 -68.40174565874203 $134 68.40174565874203 $123 $218 forward 7 unknown #
coedge $-1 $75 $209 $213 $219 forward $132 $-1 #
loop $-1 $-1 $125 $200 #
vertex $-1 $129 $220 #
vertex $-1 $76 $221 #
straight-curve $-1 68.40174565874203 -15.944228305111139 5.3918210122288812 0 1 0 I I #
face $-1 $222 $223 $17 $-1 $224 reversed single #
loop $-1 $-1 $83 $77 #
plane-surface $-1 68.40174565874203 0 0 -1 0 0 0 0 1 forward_v I I I I #
coedge $-1 $225 $147 $226 $227 reversed $78 $-1 #
coedge $-1 $228 $80 $225 $229 forward $49 $-1 #
coedge $-1 $80 $228 $230 $231 reversed $49 $-1 #
coedge $-1 $150 $149 $80 $143 forward $137 $-1 #
edge $-1 $232 8.0410537209289075 $233 23.168704697381212 $142 $234 forward 7 unknown #
coedge $-1 $82 $81 $235 $236 reversed $32 $-1 #
coedge $-1 $237 $238 $81 $146 forward $239 $-1 #
edge $-1 $240 -68.40174565874203 $151 68.40174565874203 $145 $241 forward 7 unknown #
coedge $-1 $139 $242 $82 $148 reversed $78 $-1 #
edge $-1 $243 -68.40174565874203 $152 68.40174565874203 $147 $244 forward 7 unknown #
coedge $-1 $142 $83 $242 $245 forward $137 $-1 #
coedge $-1 $83 $142 $237 $246 reversed $137 $-1 #
vertex $-1 $246 $247 #
vertex $-1 $84 $248 #
straight-curve $-1 68.40174565874203 15.604879209155062 6.8162237374210184 0 -1 0 I I #
face $-1 $-1 $249 $18 $-1 $250 reversed single #
loop $-1 $-1 $91 $85 #
plane-surface $-1 0 0 11.972040706075937 0 0 1 1 0 0 forward_v I I I I #
coedge $-1 $251 $252 $253 $254 reversed $86 $-1 #
coedge $-1 $255 $88 $90 $164 forward $53 $-1 #
coedge $-1 $88 $255 $251 $256 forward $53 $-1 #
coedge $-1 $253 $91 $88 $161 forward $155 $-1 #
edge $-1 $167 1.9088446602278388 $257 9.6109082855331671 $160 $258 forward 7 unknown #
coedge $-1 $259 $260 $89 $163 forward $249 $-1 #
edge $-1 $261 -92.118354801084834 $166 -85.824380690116669 $162 $262 forward 7 unknown #
edge $-1 $167 125.54803011598717 $261 136.80349131748409 $90 $263 forward 7 unknown #
coedge $-1 $91 $253 $259 $264 forward $155 $-1 #
vertex $-1 $163 $265 #
vertex $-1 $92 $266 #
straight-curve $-1 15.743027239731482 -7.6687211331083418 11.972040706075944 -1 0 0 I I #
coedge $-1 $169 $169 $-1 $267 reversed $95 $-1 #
edge $-1 $268 0 $268 6.2831853071796004 $96 $269 forward 7 unknown #
vertex $-1 $99 $270 #
ellipse-curve $-1 63.736145570091459 -11.519752945761006 8.8250536505918529 0.55919291073839883 0 0.82903756765294845 0.82903756765294845 0 -0.55919291073839883 1 I I #
face $-1 $-1 $115 $15 $-1 $271 reversed single #
loop $-1 $-1 $189 $100 #
plane-surface $-1 0 38.773583906536281 0 0 -1 0 0 0 -1 forward_v I I I I #
coedge $-1 $272 $187 $190 $273 forward $101 $-1 #
coedge $-1 $193 $103 $104 $181 reversed $62 $-1 #
coedge $-1 $187 $272 $103 $179 reversed $101 $-1 #
edge $-1 $194 -11.972040706075937 $274 11.972040706075937 $178 $275 forward 7 unknown #
coedge $-1 $105 $104 $272 $276 forward $41 $-1 #
edge $-1 $185 -68.40174565874203 $274 68.40174565874203 $177 $277 forward 7 unknown #
coedge $-1 $190 $189 $105 $183 reversed $174 $-1 #
edge $-1 $278 -68.40174565874203 $184 68.40174565874203 $182 $279 forward 7 unknown #
vertex $-1 $107 $280 #
vertex $-1 $196 $281 #
straight-curve $-1 68.40174565874203 0 -11.972040706075937 0 -1 0 I I #
coedge $-1 $176 $178 $108 $188 reversed $101 $-1 #
edge $-1 $191 -38.773583906536281 $194 38.773583906536281 $187 $282 forward 7 unknown #
coedge $-1 $182 $109 $114 $197 forward $174 $-1 #
coedge $-1 $109 $182 $176 $273 reversed $174 $-1 #
vertex $-1 $110 $283 #
straight-curve $-1 0 38.773583906536281 11.972040706075937 -1 0 0 I I #
coedge $-1 $111 $177 $113 $196 reversed $62 $-1 #
vertex $-1 $188 $284 #
straight-curve $-1 0 -38.773583906536281 11.972040706075937 1 0 0 I I #
edge $-1 $116 -11.972040706075937 $185 11.972040706075937 $113 $285 forward 7 unknown #
edge $-1 $117 -11.972040706075937 $184 11.972040706075937 $114 $286 forward 7 unknown #
point $-1 68.40174565874203 -38.773583906536281 11.972040706075937 #
point $-1 68.40174565874203 38.773583906536281 11.972040706075937 #
face $-1 $-1 $132 $16 $-1 $287 reversed single #
loop $-1 $-1 $207 $119 #
plane-surface $-1 0 0 11.972040706075937 0 0 1 1 0 0 forward_v I I I I #
coedge $-1 $288 $122 $127 $212 forward $70 $-1 #
coedge $-1 $122 $288 $289 $290 reversed $70 $-1 #
coedge $-1 $124 $123 $122 $206 reversed $45 $-1 #
edge $-1 $291 -7.6310752764997325 $217 -1.0508555826526766 $122 $292 forward 7 unknown #
coedge $-1 $289 $293 $124 $208 forward $201 $-1 #
edge $-1 $210 -68.40174565874203 $291 68.40174565874203 $207 $294 forward 7 unknown #
coedge $-1 $131 $125 $293 $295 reversed $132 $-1 #
vertex $-1 $126 $296 #
straight-curve $-1 68.40174565874203 -25.003329313908274 4.3409654295762046 0 0 1 I I #
edge $-1 $217 9.0591010087971355 $215 22.829355601425142 $203 $297 forward 7 unknown #
coedge $-1 $298 $128 $131 $219 reversed $120 $-1 #
coedge $-1 $128 $298 $288 $299 forward $120 $-1 #
vertex $-1 $129 $300 #
straight-curve $-1 0 -38.773583906536281 5.3918210122288812 1 0 0 I I #
vertex $-1 $212 $301 #
straight-curve $-1 0 -25.003329313908274 5.3918210122288812 1 0 0 I I #
edge $-1 $302 -11.972040706075937 $133 -5.3918210122288812 $131 $303 forward 7 unknown #
point $-1 68.40174565874203 -38.773583906536281 5.3918210122288812 #
point $-1 68.40174565874203 -25.003329313908274 5.3918210122288812 #
face $-1 $-1 $239 $17 $-1 $304 reversed single #
loop $-1 $-1 $235 $136 #
plane-surface $-1 -68.40174565874203 0 0 1 0 0 0 0 -1 forward_v I I I I #
coedge $-1 $242 $139 $140 $229 reversed $78 $-1 #
coedge $-1 $235 $305 $139 $227 forward $223 $-1 #
edge $-1 $306 -0.53540533917712363 $243 4.7226176046730535 $226 $307 forward 7 unknown #
coedge $-1 $141 $140 $305 $308 reversed $49 $-1 #
edge $-1 $232 -68.40174565874203 $306 68.40174565874203 $225 $309 forward 7 unknown #
coedge $-1 $238 $237 $141 $231 forward $239 $-1 #
edge $-1 $233 -68.40174565874203 $310 68.40174565874203 $230 $311 forward 7 unknown #
vertex $-1 $143 $312 #
vertex $-1 $231 $313 #
straight-curve $-1 68.40174565874203 15.604879209155062 1.5582007935708413 0 1 0 I I #
coedge $-1 $314 $226 $144 $236 forward $223 $-1 #
edge $-1 $243 8.0410537209289075 $240 23.168704697381212 $235 $315 forward 7 unknown #
coedge $-1 $230 $145 $150 $246 forward $239 $-1 #
coedge $-1 $145 $230 $314 $316 reversed $239 $-1 #
loop $-1 $-1 $145 $222 #
vertex $-1 $316 $317 #
straight-curve $-1 0 38.773583906536281 6.8162237374210184 1 0 0 I I #
coedge $-1 $147 $225 $149 $245 reversed $78 $-1 #
vertex $-1 $236 $318 #
straight-curve $-1 0 23.645932930083969 6.8162237374210184 1 0 0 I I #
edge $-1 $152 -4.7226176046730535 $232 0.53540533917712363 $149 $319 forward 7 unknown #
edge $-1 $151 -6.8162237374210184 $233 -1.5582007935708413 $150 $320 forward 7 unknown #
point $-1 68.40174565874203 38.773583906536274 6.8162237374210184 #
point $-1 68.40174565874203 23.645932930083969 6.8162237374210184 #
loop $-1 $-1 $162 $154 #
plane-surface $-1 68.40174565874203 0 0 -1 0 0 0 0 1 forward_v I I I I #
coedge $-1 $252 $157 $159 $256 reversed $86 $-1 #
coedge $-1 $157 $251 $321 $322 reversed $86 $-1 #
coedge $-1 $165 $160 $157 $254 forward $155 $-1 #
edge $-1 $257 43.327518241709434 $323 52.658718419010548 $253 $324 forward 7 unknown #
coedge $-1 $159 $158 $260 $325 reversed $53 $-1 #
edge $-1 $326 -136.80349131748409 $257 -125.54803011598717 $251 $327 forward 7 unknown #
vertex $-1 $161 $328 #
straight-curve $-1 59.070545481440888 -5.759876472880503 11.972040706075937 0 -1 0 I I #
coedge $-1 $321 $162 $165 $264 reversed $249 $-1 #
coedge $-1 $162 $321 $255 $325 forward $249 $-1 #
vertex $-1 $163 $329 #
straight-curve $-1 68.40174565874203 -7.6687211331083418 97.796421396192599 0 0 1 I I #
straight-curve $-1 -45.013488029536219 -7.6687211331083418 82.177609104106963 0.82903756765294845 0 -0.55919291073839883 I I #
edge $-1 $323 -15.37078475841367 $166 -7.6687211331083418 $259 $330 forward 7 unknown #
point $-1 68.40174565874203 -7.6687211331083418 11.972040706075937 #
point $-1 59.070545481440917 -7.6687211331083418 11.97204070607593 #
edge $-1 $331 1 $331 0 $169 $-1 forward 7 unknown #
vertex $-1 $170 $332 #
ellipse-curve $-1 62.518454241623289 -11.519752945761006 7.0197520494461765 0.55919291073839883 0 0.82903756765294845 0.82903756765294845 0 -0.55919291073839883 1 I I #
point $-1 64.565183137744413 -11.519752945761006 8.2658607398534674 #
plane-surface $-1 68.40174565874203 0 0 -1 0 0 0 0 1 forward_v I I I I #
coedge $-1 $178 $176 $180 $276 reversed $101 $-1 #
edge $-1 $191 -11.972040706075937 $278 11.972040706075937 $190 $333 forward 7 unknown #
vertex $-1 $276 $334 #
straight-curve $-1 -68.40174565874203 -38.773583906536281 0 0 0 -1 I I #
edge $-1 $274 -38.773583906536281 $278 38.773583906536281 $272 $335 forward 7 unknown #
straight-curve $-1 0 -38.773583906536281 -11.972040706075937 -1 0 0 I I #
vertex $-1 $183 $336 #
straight-curve $-1 0 38.773583906536281 -11.972040706075937 1 0 0 I I #
point $-1 68.40174565874203 38.773583906536281 -11.972040706075937 #
point $-1 68.40174565874203 -38.773583906536281 -11.972040706075937 #
straight-curve $-1 -68.40174565874203 0 11.972040706075937 0 -1 0 I I #
point $-1 -68.40174565874203 38.773583906536281 11.972040706075937 #
point $-1 -68.40174565874203 -38.773583906536281 11.972040706075937 #
straight-curve $-1 68.40174565874203 -38.773583906536281 0 0 0 -1 I I #
straight-curve $-1 68.40174565874203 38.773583906536281 0 0 0 -1 I I #
plane-surface $-1 68.40174565874203 0 0 -1 0 0 0 0 1 forward_v I I I I #
coedge $-1 $204 $203 $214 $299 reversed $70 $-1 #
coedge $-1 $337 $207 $204 $290 forward $201 $-1 #
edge $-1 $291 25.003329313908274 $338 38.773583906536281 $204 $339 forward 7 unknown #
vertex $-1 $290 $340 #
straight-curve $-1 -68.40174565874203 -25.003329313908274 4.3409654295762046 0 0 -1 I I #
coedge $-1 $207 $337 $209 $295 forward $201 $-1 #
straight-curve $-1 0 -25.003329313908274 11.972040706075937 -1 0 0 I I #
edge $-1 $302 -38.773583906536281 $210 -25.003329313908274 $209 $341 forward 7 unknown #
point $-1 68.40174565874203 -25.003329313908274 11.972040706075937 #
straight-curve $-1 -68.40174565874203 -15.944228305111139 5.3918210122288812 0 -1 0 I I #
coedge $-1 $214 $213 $337 $342 reversed $120 $-1 #
edge $-1 $338 -11.972040706075937 $215 -5.3918210122288812 $288 $343 forward 7 unknown #
point $-1 -68.40174565874203 -38.773583906536281 5.3918210122288812 #
point $-1 -68.40174565874203 -25.003329313908274 5.3918210122288812 #
vertex $-1 $295 $344 #
straight-curve $-1 68.40174565874203 -38.773583906536281 0 0 0 -1 I I #
plane-surface $-1 0 38.773583906536281 0 0 -1 0 0 0 -1 forward_v I I I I #
coedge $-1 $226 $314 $228 $308 forward $223 $-1 #
vertex $-1 $308 $345 #
straight-curve $-1 -68.40174565874203 23.645932930083969 2.0936061327479649 0 0 1 I I #
edge $-1 $310 -23.168704697381212 $306 -8.0410537209289075 $305 $346 forward 7 unknown #
straight-curve $-1 0 23.645932930083969 1.5582007935708413 -1 0 0 I I #
vertex $-1 $231 $347 #
straight-curve $-1 0 38.773583906536281 1.5582007935708413 -1 0 0 I I #
point $-1 68.40174565874203 23.645932930083969 1.5582007935708413 #
point $-1 68.40174565874203 38.773583906536274 1.5582007935708413 #
coedge $-1 $305 $235 $238 $316 forward $223 $-1 #
straight-curve $-1 -68.40174565874203 15.604879209155062 6.8162237374210184 0 1 0 I I #
edge $-1 $240 -6.8162237374210184 $310 -1.5582007935708413 $238 $348 forward 7 unknown #
point $-1 -68.40174565874203 38.773583906536274 6.8162237374210184 #
point $-1 -68.40174565874203 23.645932930083969 6.8162237374210184 #
straight-curve $-1 68.40174565874203 23.645932930083969 2.0936061327479649 0 0 -1 I I #
straight-curve $-1 68.40174565874203 38.773583906536281 0 0 0 -1 I I #
coedge $-1 $260 $259 $252 $322 forward $249 $-1 #
edge $-1 $323 85.824380690116669 $326 92.118354801084834 $321 $349 forward 7 unknown #
vertex $-1 $264 $350 #
straight-curve $-1 15.743027239731482 -15.37078475841367 11.972040706075944 1 0 0 I I #
edge $-1 $326 -9.6109082855331671 $261 -1.9088446602278388 $260 $351 forward 7 unknown #
vertex $-1 $325 $352 #
straight-curve $-1 -45.013488029536219 -15.37078475841367 82.177609104106963 -0.82903756765294845 0 0.55919291073839883 I I #
point $-1 59.070545481440917 -15.37078475841367 11.97204070607593 #
point $-1 68.401745658742044 -7.6687211331083418 5.6780665951077651 #
straight-curve $-1 68.40174565874203 0 11.972040706075937 0 1 0 I I #
vertex $-1 $267 $353 #
point $-1 63.347491809276235 -11.519752945761006 6.4605591387077776 #
straight-curve $-1 -68.40174565874203 38.773583906536281 0 0 0 -1 I I #
point $-1 -68.40174565874203 -38.773583906536281 -11.972040706075937 #
straight-curve $-1 -68.40174565874203 0 -11.972040706075937 0 1 0 I I #
point $-1 -68.40174565874203 38.773583906536281 -11.972040706075937 #
coedge $-1 $293 $289 $298 $342 forward $201 $-1 #
vertex $-1 $290 $354 #
straight-curve $-1 -68.40174565874203 0 11.972040706075937 0 -1 0 I I #
point $-1 -68.40174565874203 -25.003329313908274 11.972040706075937 #
straight-curve $-1 68.40174565874203 0 11.972040706075937 0 1 0 I I #
edge $-1 $338 -68.40174565874203 $302 68.40174565874203 $298 $355 forward 7 unknown #
straight-curve $-1 -68.40174565874203 -38.773583906536281 0 0 0 -1 I I #
point $-1 68.40174565874203 -38.773583906536281 11.972040706075937 #
point $-1 -68.40174565874203 23.645932930083969 1.5582007935708413 #
straight-curve $-1 -68.40174565874203 15.604879209155062 1.5582007935708413 0 -1 0 I I #
point $-1 -68.40174565874203 38.773583906536274 1.5582007935708413 #
straight-curve $-1 -68.40174565874203 38.773583906536281 0 0 0 -1 I I #
straight-curve $-1 68.40174565874203 -15.37078475841367 97.796421396192599 0 0 -1 I I #
point $-1 68.40174565874203 -15.37078475841367 11.972040706075937 #
straight-curve $-1 68.401745658742044 -5.759876472880503 5.6780665951077651 0 1 0 I I #
point $-1 68.401745658742044 -15.37078475841367 5.6780665951077651 #
point $-1 61.959261330884885 -11.519752945761006 6.1907144817932283 #
point $-1 -68.40174565874203 -38.773583906536281 11.972040706075937 #
straight-curve $-1 0 -38.773583906536281 11.972040706075937 1 0 0 I I #
End-of-ACIS-data 