500 0 6 0           
7 Unknown 11 ACIS 5.0 NT 24 Fri Mar 26 16:56:33 1999 
-1 9.9999999999999995e-007 1e-010 
body $-1 $6 $-1 $7 #
body $-1 $8 $-1 $9 #
body $-1 $10 $-1 $11 #
body $-1 $12 $-1 $13 #
body $-1 $14 $-1 $15 #
body $-1 $16 $-1 $17 #
lump $-1 $-1 $18 $0 #
transform $-1 1 0 0 0 1 0 0 0 1 63.692129276406142 42.552259249901347 19.542846125672639 1 rotate no_reflect no_shear #
lump $-1 $-1 $19 $1 #
transform $-1 1 0 0 0 1 0 0 0 1 63.692129276406142 42.552259249901347 19.542846125672639 1 rotate no_reflect no_shear #
lump $-1 $-1 $20 $2 #
transform $-1 1 0 0 0 1 0 0 0 1 63.692129276406142 42.552259249901347 19.542846125672639 1 rotate no_reflect no_shear #
lump $-1 $-1 $21 $3 #
transform $-1 1 0 0 0 1 0 0 0 1 63.692129276406142 42.552259249901347 19.542846125672639 1 rotate no_reflect no_shear #
lump $-1 $-1 $22 $4 #
transform $-1 1 0 0 0 1 0 0 0 1 63.692129276406142 42.552259249901347 19.542846125672639 1 rotate no_reflect no_shear #
lump $-1 $-1 $23 $5 #
transform $-1 1 0 0 0 1 0 0 0 1 63.692129276406142 42.552259249901347 19.542846125672639 1 rotate no_reflect no_shear #
shell $-1 $-1 $-1 $24 $-1 $6 #
shell $-1 $-1 $-1 $25 $-1 $8 #
shell $-1 $-1 $-1 $26 $-1 $10 #
shell $-1 $-1 $-1 $27 $-1 $12 #
shell $-1 $-1 $-1 $28 $-1 $14 #
shell $-1 $-1 $-1 $29 $-1 $16 #
face $-1 $30 $31 $18 $-1 $32 forward single #
face $-1 $33 $34 $19 $-1 $35 reversed single #
face $-1 $36 $37 $20 $-1 $38 reversed single #
face $-1 $39 $40 $21 $-1 $41 forward single #
face $-1 $42 $43 $22 $-1 $44 forward single #
face $-1 $45 $46 $23 $-1 $47 forward single #
face $-1 $48 $49 $18 $-1 $50 reversed single #
loop $-1 $-1 $51 $24 #
plane-surface $-1 0 0 19.542846125672639 0 0 1 1 0 0 forward_v I I I I #
face $-1 $52 $53 $19 $-1 $54 reversed single #
loop $-1 $-1 $55 $25 #
plane-surface $-1 -52.043252236639304 -42.052259249901347 0 0 1 0 0 0 1 forward_v I I I I #
face $-1 $56 $57 $20 $-1 $58 reversed single #
loop $-1 $-1 $59 $26 #
plane-surface $-1 55.206015464512639 -115.61686925949328 115.45709045987965 -1 0 0 0 -0.57357644374324357 0.81915203911291934 forward_v I I I I #
face $-1 $60 $61 $21 $-1 $62 forward single #
loop $-1 $63 $64 $27 #
cone-surface $-1 46.877062105067573 -35.850475320222394 14.355120446457102 0 0.57357644374324357 -0.81915203911291934 1 0 0 1 I I 0 1 1 forward I I I I #
face $-1 $65 $66 $22 $-1 $67 forward single #
loop $-1 $68 $69 $28 #
cone-surface $-1 50.000419614859474 -35.850475320222394 14.355120446457102 0 0.57357644374324357 -0.81915203911291934 1 0 0 1 I I 0 1 1 forward I I I I #
face $-1 $70 $71 $23 $-1 $72 forward single #
loop $-1 $73 $74 $29 #
cone-surface $-1 53.123777124651376 -35.850475320222394 14.355120446457102 0 0.57357644374324357 -0.81915203911291934 1 0 0 1 I I 0 1 1 forward I I I I #
face $-1 $75 $76 $18 $-1 $77 reversed single #
loop $-1 $-1 $78 $30 #
plane-surface $-1 0 0 -19.542846125672639 0 0 1 1 0 0 forward_v I I I I #
coedge $-1 $79 $80 $81 $82 forward $31 $-1 #
face $-1 $83 $84 $19 $-1 $85 reversed single #
loop $-1 $-1 $86 $33 #
plane-surface $-1 -52.043252236639304 -36.651927985839471 0 0 -1 0 0 0 -1 forward_v I I I I #
coedge $-1 $87 $88 $89 $90 reversed $34 $-1 #
face $-1 $91 $92 $20 $-1 $93 reversed single #
loop $-1 $-1 $94 $36 #
plane-surface $-1 50.000419614859474 -42.552259249901354 11.110015315456138 0 -0.57357644374324357 0.81915203911291934 1 0 0 forward_v I I I I #
coedge $-1 $95 $96 $97 $98 reversed $37 $-1 #
face $-1 $-1 $99 $21 $-1 $100 forward single #
loop $-1 $101 $102 $39 #
cone-surface $-1 46.877062105067573 -34.883568309417448 12.974234152793343 0 0.57357644374324357 -0.81915203911291934 0.5 0 0 1 I I -0.70710678118654746 0.70710678118654746 0.5 forward I I I I #
loop $-1 $-1 $103 $27 #
coedge $-1 $64 $64 $104 $105 reversed $40 $-1 #
face $-1 $-1 $106 $22 $-1 $107 forward single #
loop $-1 $108 $109 $42 #
cone-surface $-1 50.000419614859474 -34.883568309417448 12.974234152793343 0 0.57357644374324357 -0.81915203911291934 0.5 0 0 1 I I -0.70710678118654746 0.70710678118654746 0.5 forward I I I I #
loop $-1 $-1 $110 $28 #
coedge $-1 $69 $69 $111 $112 reversed $43 $-1 #
face $-1 $-1 $113 $23 $-1 $114 forward single #
loop $-1 $115 $116 $45 #
cone-surface $-1 53.123777124651376 -34.883568309417448 12.974234152793343 0 0.57357644374324357 -0.81915203911291934 0.5 0 0 1 I I -0.70710678118654746 0.70710678118654746 0.5 forward I I I I #
loop $-1 $-1 $117 $29 #
coedge $-1 $74 $74 $118 $119 reversed $46 $-1 #
face $-1 $120 $121 $18 $-1 $122 reversed single #
loop $-1 $-1 $123 $48 #
plane-surface $-1 0 -42.552259249901347 0 0 1 0 0 0 1 forward_v I I I I #
coedge $-1 $124 $125 $126 $127 forward $49 $-1 #
coedge $-1 $128 $51 $129 $130 forward $31 $-1 #
coedge $-1 $51 $128 $131 $132 forward $31 $-1 #
coedge $-1 $133 $134 $51 $82 reversed $135 $-1 #
edge $-1 $136 -42.552259249901347 $137 42.552259249901347 $81 $138 forward 7 unknown #
face $-1 $139 $140 $19 $-1 $141 reversed single #
loop $-1 $-1 $142 $52 #
plane-surface $-1 -40.39437519687246 -39.352093617870409 0 -1 0 0 0 0 1 forward_v I I I I #
coedge $-1 $143 $144 $145 $146 forward $53 $-1 #
coedge $-1 $147 $55 $148 $149 reversed $34 $-1 #
coedge $-1 $55 $147 $150 $151 reversed $34 $-1 #
coedge $-1 $152 $153 $55 $90 forward $154 $-1 #
edge $-1 $155 -19.542846125672639 $156 19.542846125672639 $89 $157 forward 7 unknown #
face $-1 $158 $159 $20 $-1 $160 reversed single #
loop $-1 $-1 $161 $56 #
plane-surface $-1 44.79482376520631 -115.61686925949328 115.45709045987965 1 0 0 0 0.57357644374324357 -0.81915203911291934 forward_v I I I I #
coedge $-1 $162 $163 $164 $165 reversed $57 $-1 #
coedge $-1 $96 $59 $166 $167 reversed $37 $-1 #
coedge $-1 $59 $95 $162 $168 reversed $37 $-1 #
coedge $-1 $164 $169 $59 $98 forward $170 $-1 #
edge $-1 $171 15.256175379845295 $172 27.299505661336593 $97 $173 forward 7 unknown #
loop $-1 $-1 $104 $60 #
plane-surface $-1 50.000419614859474 -42.552259249901354 11.110015315456138 0 -0.57357644374324357 0.81915203911291934 1 0 0 forward_v I I I I #
loop $-1 $-1 $174 $39 #
coedge $-1 $102 $102 $103 $175 reversed $61 $-1 #
coedge $-1 $103 $103 $102 $175 forward $63 $-1 #
coedge $-1 $104 $104 $64 $105 forward $99 $-1 #
edge $-1 $176 1.3117097625877034e-015 $176 6.2831853071796013 $104 $177 forward 7 unknown #
loop $-1 $-1 $111 $65 #
plane-surface $-1 50.000419614859474 -42.552259249901354 11.110015315456138 0 -0.57357644374324357 0.81915203911291934 1 0 0 forward_v I I I I #
loop $-1 $-1 $178 $42 #
coedge $-1 $109 $109 $110 $179 reversed $66 $-1 #
coedge $-1 $110 $110 $109 $179 forward $68 $-1 #
coedge $-1 $111 $111 $69 $112 forward $106 $-1 #
edge $-1 $180 1.3117097625877034e-015 $180 6.2831853071796013 $111 $181 forward 7 unknown #
loop $-1 $-1 $118 $70 #
plane-surface $-1 50.000419614859474 -42.552259249901354 11.110015315456138 0 -0.57357644374324357 0.81915203911291934 1 0 0 forward_v I I I I #
loop $-1 $-1 $182 $45 #
coedge $-1 $116 $116 $117 $183 reversed $71 $-1 #
coedge $-1 $117 $117 $116 $183 forward $73 $-1 #
coedge $-1 $118 $118 $74 $119 forward $113 $-1 #
edge $-1 $184 1.3117097625877034e-015 $184 6.2831853071796013 $118 $185 forward 7 unknown #
face $-1 $186 $187 $18 $-1 $188 reversed single #
loop $-1 $-1 $189 $75 #
plane-surface $-1 -63.692129276406142 0 0 1 0 0 0 0 -1 forward_v I I I I #
coedge $-1 $190 $131 $191 $192 forward $76 $-1 #
coedge $-1 $193 $78 $190 $194 forward $49 $-1 #
coedge $-1 $78 $193 $195 $196 forward $49 $-1 #
coedge $-1 $134 $133 $78 $127 reversed $135 $-1 #
edge $-1 $197 -42.552259249901347 $198 42.552259249901347 $126 $199 forward 7 unknown #
coedge $-1 $80 $79 $200 $201 forward $31 $-1 #
coedge $-1 $202 $203 $79 $130 reversed $187 $-1 #
edge $-1 $137 -63.692129276406142 $204 63.692129276406142 $129 $205 forward 7 unknown #
coedge $-1 $123 $206 $80 $132 reversed $76 $-1 #
edge $-1 $207 -63.692129276406142 $136 63.692129276406142 $131 $208 forward 7 unknown #
coedge $-1 $126 $81 $206 $209 forward $135 $-1 #
coedge $-1 $81 $126 $202 $210 reversed $135 $-1 #
loop $-1 $-1 $133 $186 #
vertex $-1 $82 $211 #
vertex $-1 $82 $212 #
straight-curve $-1 63.692129276406142 0 19.542846125672639 0 1 0 I I #
face $-1 $213 $214 $19 $-1 $215 forward single #
loop $-1 $-1 $216 $83 #
plane-surface $-1 0 0 -19.542846125672639 0 0 1 1 0 0 forward_v I I I I #
coedge $-1 $217 $218 $147 $219 forward $84 $-1 #
coedge $-1 $220 $86 $216 $221 reversed $53 $-1 #
coedge $-1 $86 $220 $222 $223 reversed $53 $-1 #
coedge $-1 $218 $217 $86 $146 reversed $84 $-1 #
edge $-1 $224 -19.542846125672639 $225 19.542846125672639 $145 $226 forward 7 unknown #
coedge $-1 $88 $87 $142 $219 reversed $34 $-1 #
coedge $-1 $227 $228 $87 $149 forward $140 $-1 #
edge $-1 $229 14.372749078552808 $155 37.670503158086497 $148 $230 forward 7 unknown #
coedge $-1 $231 $232 $88 $151 forward $214 $-1 #
edge $-1 $156 -37.670503158086497 $233 -14.372749078552808 $150 $234 forward 7 unknown #
coedge $-1 $235 $89 $232 $236 reversed $154 $-1 #
coedge $-1 $89 $235 $227 $237 reversed $154 $-1 #
loop $-1 $-1 $235 $213 #
vertex $-1 $237 $238 #
vertex $-1 $90 $239 #
straight-curve $-1 -63.692129276406142 -42.052259249901347 0 0 0 1 I I #
face $-1 $-1 $170 $20 $-1 $240 forward single #
loop $-1 $-1 $241 $91 #
plane-surface $-1 0 -42.552259249901347 0 0 1 0 0 0 1 forward_v I I I I #
coedge $-1 $242 $243 $244 $245 reversed $92 $-1 #
coedge $-1 $246 $94 $96 $168 forward $57 $-1 #
coedge $-1 $94 $246 $242 $247 forward $57 $-1 #
coedge $-1 $244 $97 $94 $165 forward $170 $-1 #
edge $-1 $172 -30.205805657082902 $248 -19.794613957776573 $164 $249 forward 7 unknown #
coedge $-1 $250 $251 $95 $167 forward $159 $-1 #
edge $-1 $252 -46.61852991448368 $171 -38.185699104267186 $166 $253 forward 7 unknown #
edge $-1 $172 -14.702191664606406 $252 -8.8770546250341341e-015 $96 $254 forward 7 unknown #
coedge $-1 $97 $244 $250 $255 forward $170 $-1 #
loop $-1 $-1 $244 $158 #
vertex $-1 $167 $256 #
vertex $-1 $98 $257 #
straight-curve $-1 55.206015464512639 -57.808434629746642 19.542846125672639 0 1 0 I I #
coedge $-1 $174 $174 $-1 $258 reversed $101 $-1 #
edge $-1 $259 0 $259 6.2831853071796004 $102 $260 forward 7 unknown #
vertex $-1 $105 $261 #
ellipse-curve $-1 46.877062105067573 -36.530594109155707 15.326430720564387 0 -0.57357644374324357 0.81915203911291934 1 0 0 1 I I #
coedge $-1 $178 $178 $-1 $262 reversed $108 $-1 #
edge $-1 $263 0 $263 6.2831853071796004 $109 $264 forward 7 unknown #
vertex $-1 $112 $265 #
ellipse-curve $-1 50.000419614859474 -36.530594109155707 15.326430720564387 0 -0.57357644374324357 0.81915203911291934 1 0 0 1 I I #
coedge $-1 $182 $182 $-1 $266 reversed $115 $-1 #
edge $-1 $267 0 $267 6.2831853071796004 $116 $268 forward 7 unknown #
vertex $-1 $119 $269 #
ellipse-curve $-1 53.123777124651376 -36.530594109155707 15.326430720564387 0 -0.57357644374324357 0.81915203911291934 1 0 0 1 I I #
face $-1 $-1 $135 $18 $-1 $270 reversed single #
loop $-1 $-1 $202 $120 #
plane-surface $-1 0 42.552259249901347 0 0 -1 0 0 0 -1 forward_v I I I I #
coedge $-1 $271 $200 $203 $272 forward $121 $-1 #
coedge $-1 $206 $123 $124 $194 reversed $76 $-1 #
coedge $-1 $200 $271 $123 $192 reversed $121 $-1 #
edge $-1 $207 -19.542846125672639 $273 19.542846125672639 $191 $274 forward 7 unknown #
coedge $-1 $125 $124 $271 $275 forward $49 $-1 #
edge $-1 $198 -63.692129276406142 $273 63.692129276406142 $190 $276 forward 7 unknown #
coedge $-1 $203 $202 $125 $196 reversed $187 $-1 #
edge $-1 $277 -63.692129276406142 $197 63.692129276406142 $195 $278 forward 7 unknown #
vertex $-1 $127 $279 #
vertex $-1 $209 $280 #
straight-curve $-1 63.692129276406142 0 -19.542846125672639 0 -1 0 I I #
coedge $-1 $189 $191 $128 $201 reversed $121 $-1 #
edge $-1 $204 -42.552259249901347 $207 42.552259249901347 $200 $281 forward 7 unknown #
coedge $-1 $195 $129 $134 $210 forward $187 $-1 #
coedge $-1 $129 $195 $189 $272 reversed $187 $-1 #
vertex $-1 $130 $282 #
straight-curve $-1 0 42.552259249901347 19.542846125672639 -1 0 0 I I #
coedge $-1 $131 $190 $133 $209 reversed $76 $-1 #
vertex $-1 $201 $283 #
straight-curve $-1 0 -42.552259249901347 19.542846125672639 1 0 0 I I #
edge $-1 $136 -19.542846125672639 $198 19.542846125672639 $133 $284 forward 7 unknown #
edge $-1 $137 -19.542846125672639 $197 19.542846125672639 $134 $285 forward 7 unknown #
point $-1 63.692129276406142 -42.552259249901347 19.542846125672639 #
point $-1 63.692129276406142 42.552259249901347 19.542846125672639 #
face $-1 $-1 $154 $19 $-1 $286 reversed single #
loop $-1 $-1 $222 $139 #
plane-surface $-1 0 0 19.542846125672639 0 0 1 1 0 0 forward_v I I I I #
coedge $-1 $228 $227 $143 $221 forward $140 $-1 #
coedge $-1 $145 $142 $228 $287 reversed $84 $-1 #
coedge $-1 $142 $145 $231 $288 reversed $84 $-1 #
edge $-1 $233 -19.542846125672639 $229 19.542846125672639 $142 $289 forward 7 unknown #
coedge $-1 $144 $143 $235 $290 reversed $53 $-1 #
edge $-1 $291 -37.670503158086497 $225 -14.372749078552808 $216 $292 forward 7 unknown #
coedge $-1 $232 $231 $144 $223 forward $214 $-1 #
edge $-1 $224 14.372749078552808 $293 37.670503158086497 $222 $294 forward 7 unknown #
vertex $-1 $223 $295 #
vertex $-1 $221 $296 #
straight-curve $-1 -40.39437519687246 -36.651927985839471 0 0 0 -1 I I #
coedge $-1 $216 $148 $153 $237 forward $140 $-1 #
coedge $-1 $148 $216 $217 $287 forward $140 $-1 #
vertex $-1 $149 $297 #
straight-curve $-1 -26.021626118319652 -42.052259249901347 -19.542846125672639 -1 0 0 I I #
coedge $-1 $222 $150 $218 $288 forward $214 $-1 #
coedge $-1 $150 $222 $152 $236 forward $214 $-1 #
vertex $-1 $151 $298 #
straight-curve $-1 -26.021626118319652 -42.052259249901347 19.542846125672639 1 0 0 I I #
coedge $-1 $153 $152 $220 $290 forward $154 $-1 #
edge $-1 $293 36.651927985839471 $156 42.052259249901347 $152 $299 forward 7 unknown #
edge $-1 $155 -42.052259249901347 $291 -36.651927985839471 $153 $300 forward 7 unknown #
point $-1 -63.692129276406149 -42.052259249901347 -19.542846125672639 #
point $-1 -63.692129276406149 -42.052259249901347 19.542846125672639 #
plane-surface $-1 0 0 19.542846125672639 0 0 1 1 0 0 forward_v I I I I #
coedge $-1 $251 $250 $243 $301 forward $159 $-1 #
coedge $-1 $243 $161 $163 $247 reversed $92 $-1 #
coedge $-1 $161 $242 $241 $301 reversed $92 $-1 #
coedge $-1 $169 $164 $161 $245 forward $170 $-1 #
edge $-1 $248 -27.299505661336593 $302 -15.256175379845295 $244 $303 forward 7 unknown #
coedge $-1 $163 $162 $251 $304 reversed $57 $-1 #
edge $-1 $305 8.8770546250341341e-015 $248 14.702191664606406 $242 $306 forward 7 unknown #
vertex $-1 $165 $307 #
straight-curve $-1 25.000209807429737 -30.50892896841005 19.542846125672639 -1 0 0 I I #
coedge $-1 $241 $166 $169 $255 reversed $159 $-1 #
coedge $-1 $166 $241 $246 $304 forward $159 $-1 #
vertex $-1 $167 $308 #
straight-curve $-1 55.206015464512639 -42.552259249901347 57.728545229939826 0 0 1 I I #
straight-curve $-1 55.206015464512639 -42.552259249901354 11.110015315456138 0 -0.81915203911291934 -0.57357644374324357 I I #
edge $-1 $302 44.79482376520631 $171 55.206015464512639 $250 $309 forward 7 unknown #
point $-1 55.206015464512639 -42.552259249901347 19.542846125672639 #
point $-1 55.206015464512639 -30.50892896841005 19.542846125672639 #
edge $-1 $310 1 $310 0 $174 $-1 forward 7 unknown #
vertex $-1 $175 $311 #
ellipse-curve $-1 46.877062105067573 -35.170356531289073 13.383810172349802 0 -0.57357644374324357 0.81915203911291934 1 0 0 1 I I #
point $-1 47.877062105067573 -36.530594109155714 15.326430720564399 #
edge $-1 $312 1 $312 0 $178 $-1 forward 7 unknown #
vertex $-1 $179 $313 #
ellipse-curve $-1 50.000419614859474 -35.170356531289073 13.383810172349802 0 -0.57357644374324357 0.81915203911291934 1 0 0 1 I I #
point $-1 51.000419614859474 -36.530594109155714 15.326430720564399 #
edge $-1 $314 1 $314 0 $182 $-1 forward 7 unknown #
vertex $-1 $183 $315 #
ellipse-curve $-1 53.123777124651376 -35.170356531289073 13.383810172349802 0 -0.57357644374324357 0.81915203911291934 1 0 0 1 I I #
point $-1 54.123777124651376 -36.530594109155714 15.326430720564399 #
plane-surface $-1 63.692129276406142 0 0 -1 0 0 0 0 1 forward_v I I I I #
coedge $-1 $191 $189 $193 $275 reversed $121 $-1 #
edge $-1 $204 -19.542846125672639 $277 19.542846125672639 $203 $316 forward 7 unknown #
vertex $-1 $275 $317 #
straight-curve $-1 -63.692129276406142 -42.552259249901347 0 0 0 -1 I I #
edge $-1 $273 -42.552259249901347 $277 42.552259249901347 $271 $318 forward 7 unknown #
straight-curve $-1 0 -42.552259249901347 -19.542846125672639 -1 0 0 I I #
vertex $-1 $196 $319 #
straight-curve $-1 0 42.552259249901347 -19.542846125672639 1 0 0 I I #
point $-1 63.692129276406142 42.552259249901347 -19.542846125672639 #
point $-1 63.692129276406142 -42.552259249901347 -19.542846125672639 #
straight-curve $-1 -63.692129276406142 0 19.542846125672639 0 -1 0 I I #
point $-1 -63.692129276406142 42.552259249901347 19.542846125672639 #
point $-1 -63.692129276406142 -42.552259249901347 19.542846125672639 #
straight-curve $-1 63.692129276406142 -42.552259249901347 0 0 0 -1 I I #
straight-curve $-1 63.692129276406142 42.552259249901347 0 0 0 -1 I I #
plane-surface $-1 -63.692129276406142 0 0 1 0 0 0 0 -1 forward_v I I I I #
edge $-1 $225 16.975881176904267 $229 22.376212440966142 $228 $320 forward 7 unknown #
edge $-1 $233 -22.376212440966142 $224 -16.975881176904267 $231 $321 forward 7 unknown #
straight-curve $-1 -40.39437519687246 -42.052259249901347 0 0 0 -1 I I #
edge $-1 $293 -19.542846125672639 $291 19.542846125672639 $235 $322 forward 7 unknown #
vertex $-1 $290 $323 #
straight-curve $-1 -26.021626118319652 -36.651927985839471 -19.542846125672639 1 0 0 I I #
vertex $-1 $236 $324 #
straight-curve $-1 -26.021626118319652 -36.651927985839471 19.542846125672639 -1 0 0 I I #
point $-1 -40.39437519687246 -36.651927985839471 19.542846125672639 #
point $-1 -40.39437519687246 -36.651927985839471 -19.542846125672639 #
point $-1 -40.39437519687246 -42.052259249901347 -19.542846125672639 #
point $-1 -40.39437519687246 -42.052259249901347 19.542846125672639 #
straight-curve $-1 -63.692129276406142 0 19.542846125672639 0 -1 0 I I #
straight-curve $-1 -63.692129276406142 0 -19.542846125672639 0 1 0 I I #
edge $-1 $302 38.185699104267186 $305 46.61852991448368 $241 $325 forward 7 unknown #
vertex $-1 $255 $326 #
straight-curve $-1 44.79482376520631 -57.808434629746642 19.542846125672639 0 -1 0 I I #
edge $-1 $305 19.794613957776573 $252 30.205805657082902 $251 $327 forward 7 unknown #
vertex $-1 $304 $328 #
straight-curve $-1 44.79482376520631 -42.552259249901354 11.110015315456138 0 0.81915203911291934 0.57357644374324357 I I #
point $-1 44.79482376520631 -30.50892896841005 19.542846125672639 #
point $-1 55.206015464512639 -42.552259249901347 11.110015315456144 #
straight-curve $-1 0 -42.552259249901347 19.542846125672639 1 0 0 I I #
vertex $-1 $258 $329 #
point $-1 47.877062105067573 -35.170356531289073 13.383810172349802 #
vertex $-1 $262 $330 #
point $-1 51.000419614859474 -35.170356531289073 13.383810172349802 #
vertex $-1 $266 $331 #
point $-1 54.123777124651376 -35.170356531289073 13.383810172349802 #
straight-curve $-1 -63.692129276406142 42.552259249901347 0 0 0 -1 I I #
point $-1 -63.692129276406142 -42.552259249901347 -19.542846125672639 #
straight-curve $-1 -63.692129276406142 0 -19.542846125672639 0 1 0 I I #
point $-1 -63.692129276406142 42.552259249901347 -19.542846125672639 #
straight-curve $-1 -40.39437519687246 -19.676046808935205 -19.542846125672639 0 -1 0 I I #
straight-curve $-1 -40.39437519687246 -19.676046808935205 19.542846125672639 0 1 0 I I #
straight-curve $-1 -63.692129276406142 -36.651927985839471 0 0 0 -1 I I #
point $-1 -63.692129276406149 -36.651927985839471 -19.542846125672639 #
point $-1 -63.692129276406149 -36.651927985839471 19.542846125672639 #
straight-curve $-1 44.79482376520631 -42.552259249901347 57.728545229939826 0 0 -1 I I #
point $-1 44.79482376520631 -42.552259249901347 19.542846125672639 #
straight-curve $-1 25.000209807429737 -42.552259249901347 11.110015315456144 1 0 0 I I #
point $-1 44.79482376520631 -42.552259249901347 11.110015315456144 #
point $-1 46.877062105067573 -34.596780087545824 12.564658133236884 #
point $-1 50.000419614859474 -34.596780087545824 12.564658133236884 #
point $-1 53.123777124651376 -34.596780087545824 12.564658133236884 #
End-of-ACIS-data 