500 0 10 0           
7 Unknown 11 ACIS 5.0 NT 24 Fri Mar 26 16:34:16 1999 
-1 9.9999999999999995e-007 1e-010 
body $-1 $10 $-1 $11 #
body $-1 $12 $-1 $13 #
body $-1 $14 $-1 $15 #
body $-1 $16 $-1 $17 #
body $-1 $18 $-1 $19 #
body $-1 $20 $-1 $21 #
body $-1 $22 $-1 $23 #
body $-1 $24 $-1 $25 #
body $-1 $26 $-1 $27 #
body $-1 $28 $-1 $29 #
lump $-1 $-1 $30 $0 #
transform $-1 1 0 0 0 1 0 0 0 1 63.39671010467849 30.422952626087099 13.526315663110749 1 rotate no_reflect no_shear #
lump $-1 $-1 $31 $1 #
transform $-1 1 0 0 0 1 0 0 0 1 63.39671010467849 30.422952626087099 13.526315663110749 1 rotate no_reflect no_shear #
lump $-1 $-1 $32 $2 #
transform $-1 1 0 0 0 1 0 0 0 1 63.39671010467849 30.422952626087099 13.526315663110749 1 rotate no_reflect no_shear #
lump $-1 $-1 $33 $3 #
transform $-1 1 0 0 0 1 0 0 0 1 63.39671010467849 30.422952626087099 13.526315663110749 1 rotate no_reflect no_shear #
lump $-1 $-1 $34 $4 #
transform $-1 1 0 0 0 1 0 0 0 1 63.39671010467849 30.422952626087099 13.526315663110749 1 rotate no_reflect no_shear #
lump $-1 $-1 $35 $5 #
transform $-1 1 0 0 0 1 0 0 0 1 63.39671010467849 30.422952626087099 13.526315663110749 1 rotate no_reflect no_shear #
lump $-1 $-1 $36 $6 #
transform $-1 1 0 0 0 1 0 0 0 1 63.39671010467849 30.422952626087099 13.526315663110749 1 rotate no_reflect no_shear #
lump $-1 $-1 $37 $7 #
transform $-1 1 0 0 0 1 0 0 0 1 63.39671010467849 30.422952626087099 13.526315663110749 1 rotate no_reflect no_shear #
lump $-1 $-1 $38 $8 #
transform $-1 1 0 0 0 1 0 0 0 1 63.39671010467849 30.422952626087099 13.526315663110749 1 rotate no_reflect no_shear #
lump $-1 $-1 $39 $9 #
transform $-1 1 0 0 0 1 0 0 0 1 63.39671010467849 30.422952626087099 13.526315663110749 1 rotate no_reflect no_shear #
shell $-1 $-1 $-1 $40 $-1 $10 #
shell $-1 $-1 $-1 $41 $-1 $12 #
shell $-1 $-1 $-1 $42 $-1 $14 #
shell $-1 $-1 $-1 $43 $-1 $16 #
shell $-1 $-1 $-1 $44 $-1 $18 #
shell $-1 $-1 $-1 $45 $-1 $20 #
shell $-1 $-1 $-1 $46 $-1 $22 #
shell $-1 $-1 $-1 $47 $-1 $24 #
shell $-1 $-1 $-1 $48 $-1 $26 #
shell $-1 $-1 $-1 $49 $-1 $28 #
face $-1 $50 $51 $30 $-1 $52 forward single #
face $-1 $53 $54 $31 $-1 $55 reversed single #
face $-1 $56 $57 $32 $-1 $58 reversed single #
face $-1 $59 $60 $33 $-1 $61 forward single #
face $-1 $62 $63 $34 $-1 $64 reversed single #
face $-1 $65 $66 $35 $-1 $67 forward single #
face $-1 $68 $69 $36 $-1 $70 reversed single #
face $-1 $71 $72 $37 $-1 $73 forward single #
face $-1 $74 $75 $38 $-1 $76 reversed single #
face $-1 $77 $78 $39 $-1 $79 forward single #
face $-1 $80 $81 $30 $-1 $82 reversed single #
loop $-1 $-1 $83 $40 #
plane-surface $-1 0 0 13.526315663110749 0 0 1 1 0 0 forward_v I I I I #
face $-1 $84 $85 $31 $-1 $86 reversed single #
loop $-1 $-1 $87 $41 #
plane-surface $-1 -56.259746779107289 -7.2885647463548935 0 0 1 0 0 0 1 forward_v I I I I #
face $-1 $88 $89 $32 $-1 $90 reversed single #
loop $-1 $-1 $91 $42 #
plane-surface $-1 -28.972291051929062 -110.21663840562917 104.37630881144841 -1 0 0 0 -0.62932039886446345 0.77714595512881146 forward_v I I I I #
face $-1 $92 $93 $33 $-1 $94 forward single #
loop $-1 $95 $96 $43 #
cone-surface $-1 -38.030561844796132 -23.834772608326187 7.4083169404405389 0 0.62932039886446345 -0.77714595512881146 1.5 0 0 1 I I 0 1 1.5 forward I I I I #
face $-1 $97 $98 $34 $-1 $99 reversed single #
loop $-1 $-1 $100 $44 #
plane-surface $-1 -0.84241766237541782 -110.21663840562917 104.37630881144841 -1 0 0 0 -0.62932039886446345 0.77714595512881146 forward_v I I I I #
face $-1 $101 $102 $35 $-1 $103 forward single #
loop $-1 $104 $105 $45 #
cone-surface $-1 -9.9006884552424879 -23.834772608326187 7.4083169404405389 0 0.62932039886446345 -0.77714595512881146 1.5 0 0 1 I I 0 1 1.5 forward I I I I #
face $-1 $106 $107 $36 $-1 $108 reversed single #
loop $-1 $-1 $109 $46 #
plane-surface $-1 27.287455727178234 -110.21663840562917 104.37630881144841 -1 0 0 0 -0.62932039886446345 0.77714595512881146 forward_v I I I I #
face $-1 $110 $111 $37 $-1 $112 forward single #
loop $-1 $113 $114 $47 #
cone-surface $-1 18.229184934311164 -23.834772608326187 7.4083169404405389 0 0.62932039886446345 -0.77714595512881146 1.5 0 0 1 I I 0 1 1.5 forward I I I I #
face $-1 $115 $116 $38 $-1 $117 reversed single #
loop $-1 $-1 $118 $48 #
plane-surface $-1 55.417329116731871 -110.21663840562917 104.37630881144841 -1 0 0 0 -0.62932039886446345 0.77714595512881146 forward_v I I I I #
face $-1 $119 $120 $39 $-1 $121 forward single #
loop $-1 $122 $123 $49 #
cone-surface $-1 46.359058323864801 -23.834772608326187 7.4083169404405389 0 0.62932039886446345 -0.77714595512881146 1.5 0 0 1 I I 0 1 1.5 forward I I I I #
face $-1 $124 $125 $30 $-1 $126 reversed single #
loop $-1 $-1 $127 $50 #
plane-surface $-1 0 0 -13.526315663110749 0 0 1 1 0 0 forward_v I I I I #
coedge $-1 $128 $129 $130 $131 forward $51 $-1 #
face $-1 $132 $133 $31 $-1 $134 reversed single #
loop $-1 $-1 $135 $53 #
plane-surface $-1 -56.259746779107289 -3.3703212998656014 0 0 -1 0 0 0 -1 forward_v I I I I #
coedge $-1 $136 $137 $138 $139 reversed $54 $-1 #
face $-1 $140 $141 $32 $-1 $142 reversed single #
loop $-1 $-1 $143 $56 #
plane-surface $-1 -38.030561844796132 -30.42295262608711 5.8393151587989252 0 -0.62932039886446345 0.77714595512881146 1 0 0 forward_v I I I I #
coedge $-1 $144 $145 $146 $147 reversed $57 $-1 #
face $-1 $-1 $148 $33 $-1 $149 forward single #
loop $-1 $150 $151 $59 #
cone-surface $-1 -38.030561844796132 -21.520929726359704 4.5509590035796368 0 0.62932039886446345 -0.77714595512881146 0.75 0 0 1 I I -0.70710678118654757 0.70710678118654757 0.75 forward I I I I #
loop $-1 $-1 $152 $43 #
coedge $-1 $96 $96 $153 $154 reversed $60 $-1 #
face $-1 $155 $156 $34 $-1 $157 reversed single #
loop $-1 $-1 $158 $62 #
plane-surface $-1 -9.9006884552424879 -30.42295262608711 5.8393151587989252 0 -0.62932039886446345 0.77714595512881146 1 0 0 forward_v I I I I #
coedge $-1 $159 $160 $161 $162 reversed $63 $-1 #
face $-1 $-1 $163 $35 $-1 $164 forward single #
loop $-1 $165 $166 $65 #
cone-surface $-1 -9.9006884552424879 -21.520929726359704 4.5509590035796368 0 0.62932039886446345 -0.77714595512881146 0.75 0 0 1 I I -0.70710678118654757 0.70710678118654757 0.75 forward I I I I #
loop $-1 $-1 $167 $45 #
coedge $-1 $105 $105 $168 $169 reversed $66 $-1 #
face $-1 $170 $171 $36 $-1 $172 reversed single #
loop $-1 $-1 $173 $68 #
plane-surface $-1 18.229184934311164 -30.42295262608711 5.8393151587989252 0 -0.62932039886446345 0.77714595512881146 1 0 0 forward_v I I I I #
coedge $-1 $174 $175 $176 $177 reversed $69 $-1 #
face $-1 $-1 $178 $37 $-1 $179 forward single #
loop $-1 $180 $181 $71 #
cone-surface $-1 18.229184934311164 -21.520929726359704 4.5509590035796368 0 0.62932039886446345 -0.77714595512881146 0.75 0 0 1 I I -0.70710678118654757 0.70710678118654757 0.75 forward I I I I #
loop $-1 $-1 $182 $47 #
coedge $-1 $114 $114 $183 $184 reversed $72 $-1 #
face $-1 $185 $186 $38 $-1 $187 reversed single #
loop $-1 $-1 $188 $74 #
plane-surface $-1 46.359058323864801 -30.42295262608711 5.8393151587989252 0 -0.62932039886446345 0.77714595512881146 1 0 0 forward_v I I I I #
coedge $-1 $189 $190 $191 $192 reversed $75 $-1 #
face $-1 $-1 $193 $39 $-1 $194 forward single #
loop $-1 $195 $196 $77 #
cone-surface $-1 46.359058323864801 -21.520929726359704 4.5509590035796368 0 0.62932039886446345 -0.77714595512881146 0.75 0 0 1 I I -0.70710678118654757 0.70710678118654757 0.75 forward I I I I #
loop $-1 $-1 $197 $49 #
coedge $-1 $123 $123 $198 $199 reversed $78 $-1 #
face $-1 $200 $201 $30 $-1 $202 reversed single #
loop $-1 $-1 $203 $80 #
plane-surface $-1 0 -30.422952626087099 0 0 1 0 0 0 1 forward_v I I I I #
coedge $-1 $204 $205 $206 $207 forward $81 $-1 #
coedge $-1 $208 $83 $209 $210 forward $51 $-1 #
coedge $-1 $83 $208 $211 $212 forward $51 $-1 #
coedge $-1 $213 $214 $83 $131 reversed $215 $-1 #
edge $-1 $216 -30.422952626087099 $217 30.422952626087099 $130 $218 forward 7 unknown #
face $-1 $219 $220 $31 $-1 $221 reversed single #
loop $-1 $-1 $222 $84 #
plane-surface $-1 -49.122783453536087 -5.3294430231102474 0 -1 0 0 0 0 1 forward_v I I I I #
coedge $-1 $223 $224 $225 $226 forward $85 $-1 #
coedge $-1 $227 $87 $228 $229 reversed $54 $-1 #
coedge $-1 $87 $227 $230 $231 reversed $54 $-1 #
coedge $-1 $232 $233 $87 $139 forward $234 $-1 #
edge $-1 $235 -13.526315663110749 $236 13.526315663110749 $138 $237 forward 7 unknown #
face $-1 $238 $239 $32 $-1 $240 reversed single #
loop $-1 $-1 $241 $88 #
plane-surface $-1 -47.088832637663202 -110.21663840562917 104.37630881144841 1 0 0 0 0.62932039886446345 -0.77714595512881146 forward_v I I I I #
coedge $-1 $242 $243 $244 $245 reversed $89 $-1 #
coedge $-1 $145 $91 $246 $247 reversed $57 $-1 #
coedge $-1 $91 $144 $242 $248 reversed $57 $-1 #
coedge $-1 $244 $249 $91 $147 forward $250 $-1 #
edge $-1 $251 24.685366576727485 $252 34.17802144661303 $146 $253 forward 7 unknown #
loop $-1 $-1 $153 $92 #
plane-surface $-1 -38.030561844796132 -30.42295262608711 5.8393151587989252 0 -0.62932039886446345 0.77714595512881146 1 0 0 forward_v I I I I #
loop $-1 $-1 $254 $59 #
coedge $-1 $151 $151 $152 $255 reversed $93 $-1 #
coedge $-1 $152 $152 $151 $255 forward $95 $-1 #
coedge $-1 $153 $153 $96 $154 forward $148 $-1 #
edge $-1 $256 1.0503637516332849e-015 $256 6.2831853071796013 $153 $257 forward 7 unknown #
face $-1 $258 $259 $34 $-1 $260 reversed single #
loop $-1 $-1 $261 $97 #
plane-surface $-1 -18.958959248109558 -110.21663840562917 104.37630881144841 1 0 0 0 0.62932039886446345 -0.77714595512881146 forward_v I I I I #
coedge $-1 $262 $263 $264 $265 reversed $98 $-1 #
coedge $-1 $160 $100 $266 $267 reversed $63 $-1 #
coedge $-1 $100 $159 $262 $268 reversed $63 $-1 #
coedge $-1 $264 $269 $100 $162 forward $270 $-1 #
edge $-1 $271 24.685366576727485 $272 34.17802144661303 $161 $273 forward 7 unknown #
loop $-1 $-1 $168 $101 #
plane-surface $-1 -9.9006884552424879 -30.42295262608711 5.8393151587989252 0 -0.62932039886446345 0.77714595512881146 1 0 0 forward_v I I I I #
loop $-1 $-1 $274 $65 #
coedge $-1 $166 $166 $167 $275 reversed $102 $-1 #
coedge $-1 $167 $167 $166 $275 forward $104 $-1 #
coedge $-1 $168 $168 $105 $169 forward $163 $-1 #
edge $-1 $276 1.0503637516332849e-015 $276 6.2831853071796013 $168 $277 forward 7 unknown #
face $-1 $278 $279 $36 $-1 $280 reversed single #
loop $-1 $-1 $281 $106 #
plane-surface $-1 9.1709141414440936 -110.21663840562917 104.37630881144841 1 0 0 0 0.62932039886446345 -0.77714595512881146 forward_v I I I I #
coedge $-1 $282 $283 $284 $285 reversed $107 $-1 #
coedge $-1 $175 $109 $286 $287 reversed $69 $-1 #
coedge $-1 $109 $174 $282 $288 reversed $69 $-1 #
coedge $-1 $284 $289 $109 $177 forward $290 $-1 #
edge $-1 $291 24.685366576727485 $292 34.17802144661303 $176 $293 forward 7 unknown #
loop $-1 $-1 $183 $110 #
plane-surface $-1 18.229184934311164 -30.42295262608711 5.8393151587989252 0 -0.62932039886446345 0.77714595512881146 1 0 0 forward_v I I I I #
loop $-1 $-1 $294 $71 #
coedge $-1 $181 $181 $182 $295 reversed $111 $-1 #
coedge $-1 $182 $182 $181 $295 forward $113 $-1 #
coedge $-1 $183 $183 $114 $184 forward $178 $-1 #
edge $-1 $296 1.0503637516332849e-015 $296 6.2831853071796013 $183 $297 forward 7 unknown #
face $-1 $298 $299 $38 $-1 $300 reversed single #
loop $-1 $-1 $301 $115 #
plane-surface $-1 37.300787530997731 -110.21663840562917 104.37630881144841 1 0 0 0 0.62932039886446345 -0.77714595512881146 forward_v I I I I #
coedge $-1 $302 $303 $304 $305 reversed $116 $-1 #
coedge $-1 $190 $118 $306 $307 reversed $75 $-1 #
coedge $-1 $118 $189 $302 $308 reversed $75 $-1 #
coedge $-1 $304 $309 $118 $192 forward $310 $-1 #
edge $-1 $311 24.685366576727485 $312 34.17802144661303 $191 $313 forward 7 unknown #
loop $-1 $-1 $198 $119 #
plane-surface $-1 46.359058323864801 -30.42295262608711 5.8393151587989252 0 -0.62932039886446345 0.77714595512881146 1 0 0 forward_v I I I I #
loop $-1 $-1 $314 $77 #
coedge $-1 $196 $196 $197 $315 reversed $120 $-1 #
coedge $-1 $197 $197 $196 $315 forward $122 $-1 #
coedge $-1 $198 $198 $123 $199 forward $193 $-1 #
edge $-1 $316 1.0503637516332849e-015 $316 6.2831853071796013 $198 $317 forward 7 unknown #
face $-1 $318 $319 $30 $-1 $320 reversed single #
loop $-1 $-1 $321 $124 #
plane-surface $-1 -63.39671010467849 0 0 1 0 0 0 0 -1 forward_v I I I I #
coedge $-1 $322 $211 $323 $324 forward $125 $-1 #
coedge $-1 $325 $127 $322 $326 forward $81 $-1 #
coedge $-1 $127 $325 $327 $328 forward $81 $-1 #
coedge $-1 $214 $213 $127 $207 reversed $215 $-1 #
edge $-1 $329 -30.422952626087099 $330 30.422952626087099 $206 $331 forward 7 unknown #
coedge $-1 $129 $128 $332 $333 forward $51 $-1 #
coedge $-1 $334 $335 $128 $210 reversed $319 $-1 #
edge $-1 $217 -63.39671010467849 $336 63.39671010467849 $209 $337 forward 7 unknown #
coedge $-1 $203 $338 $129 $212 reversed $125 $-1 #
edge $-1 $339 -63.39671010467849 $216 63.39671010467849 $211 $340 forward 7 unknown #
coedge $-1 $206 $130 $338 $341 forward $215 $-1 #
coedge $-1 $130 $206 $334 $342 reversed $215 $-1 #
loop $-1 $-1 $213 $318 #
vertex $-1 $131 $343 #
vertex $-1 $131 $344 #
straight-curve $-1 63.39671010467849 0 13.526315663110749 0 1 0 I I #
face $-1 $345 $346 $31 $-1 $347 forward single #
loop $-1 $-1 $348 $132 #
plane-surface $-1 0 0 -13.526315663110749 0 0 1 1 0 0 forward_v I I I I #
coedge $-1 $349 $350 $227 $351 forward $133 $-1 #
coedge $-1 $352 $135 $348 $353 reversed $85 $-1 #
coedge $-1 $135 $352 $354 $355 reversed $85 $-1 #
coedge $-1 $350 $349 $135 $226 reversed $133 $-1 #
edge $-1 $356 -13.526315663110749 $357 13.526315663110749 $225 $358 forward 7 unknown #
coedge $-1 $137 $136 $222 $351 reversed $54 $-1 #
coedge $-1 $359 $360 $136 $229 forward $220 $-1 #
edge $-1 $361 20.992910063982443 $235 35.266836715124846 $228 $362 forward 7 unknown #
coedge $-1 $363 $364 $137 $231 forward $346 $-1 #
edge $-1 $236 -35.266836715124846 $365 -20.992910063982443 $230 $366 forward 7 unknown #
coedge $-1 $367 $138 $364 $368 reversed $234 $-1 #
coedge $-1 $138 $367 $359 $369 reversed $234 $-1 #
loop $-1 $-1 $367 $345 #
vertex $-1 $369 $370 #
vertex $-1 $139 $371 #
straight-curve $-1 -63.39671010467849 -7.2885647463548935 0 0 0 1 I I #
face $-1 $-1 $250 $32 $-1 $372 forward single #
loop $-1 $-1 $373 $140 #
plane-surface $-1 0 -30.422952626087099 0 0 1 0 0 0 1 forward_v I I I I #
coedge $-1 $374 $375 $376 $377 reversed $141 $-1 #
coedge $-1 $378 $143 $145 $248 forward $89 $-1 #
coedge $-1 $143 $378 $374 $379 forward $89 $-1 #
coedge $-1 $376 $146 $143 $245 forward $250 $-1 #
edge $-1 $252 9.9570101295309961 $380 28.073551715265136 $244 $381 forward 7 unknown #
coedge $-1 $382 $383 $144 $247 forward $239 $-1 #
edge $-1 $384 -46.348839246925273 $251 -38.661838742613455 $246 $385 forward 7 unknown #
edge $-1 $252 -12.214764559010222 $384 -1.3872419169116742e-014 $145 $386 forward 7 unknown #
coedge $-1 $146 $376 $382 $387 forward $250 $-1 #
loop $-1 $-1 $376 $238 #
vertex $-1 $247 $388 #
vertex $-1 $147 $389 #
straight-curve $-1 -28.972291051929062 -55.108319202814585 13.526315663110751 0 1 0 I I #
coedge $-1 $254 $254 $-1 $390 reversed $150 $-1 #
edge $-1 $391 0 $391 6.2831853071796004 $151 $392 forward 7 unknown #
vertex $-1 $154 $393 #
ellipse-curve $-1 -38.030561844796132 -25.676625191144328 9.6828154109548414 0 -0.62932039886446345 0.77714595512881146 1.5 0 0 1 I I #
face $-1 $-1 $270 $34 $-1 $394 forward single #
loop $-1 $-1 $395 $155 #
plane-surface $-1 0 -30.422952626087099 0 0 1 0 0 0 1 forward_v I I I I #
coedge $-1 $396 $397 $398 $399 reversed $156 $-1 #
coedge $-1 $400 $158 $160 $268 forward $98 $-1 #
coedge $-1 $158 $400 $396 $401 forward $98 $-1 #
coedge $-1 $398 $161 $158 $265 forward $270 $-1 #
edge $-1 $272 -4.1079265652458261 $402 14.008615020488314 $264 $403 forward 7 unknown #
coedge $-1 $404 $405 $159 $267 forward $259 $-1 #
edge $-1 $406 -46.348839246925273 $271 -38.661838742613455 $266 $407 forward 7 unknown #
edge $-1 $272 -12.214764559010222 $406 -1.3872419169116742e-014 $160 $408 forward 7 unknown #
coedge $-1 $161 $398 $404 $409 forward $270 $-1 #
loop $-1 $-1 $398 $258 #
vertex $-1 $267 $410 #
vertex $-1 $162 $411 #
straight-curve $-1 -0.84241766237541782 -55.108319202814585 13.526315663110751 0 1 0 I I #
coedge $-1 $274 $274 $-1 $412 reversed $165 $-1 #
edge $-1 $413 0 $413 6.2831853071796004 $166 $414 forward 7 unknown #
vertex $-1 $169 $415 #
ellipse-curve $-1 -9.9006884552424879 -25.676625191144328 9.6828154109548414 0 -0.62932039886446345 0.77714595512881146 1.5 0 0 1 I I #
face $-1 $-1 $290 $36 $-1 $416 forward single #
loop $-1 $-1 $417 $170 #
plane-surface $-1 0 -30.422952626087099 0 0 1 0 0 0 1 forward_v I I I I #
coedge $-1 $418 $419 $420 $421 reversed $171 $-1 #
coedge $-1 $422 $173 $175 $288 forward $107 $-1 #
coedge $-1 $173 $422 $418 $423 forward $107 $-1 #
coedge $-1 $420 $176 $173 $285 forward $290 $-1 #
edge $-1 $292 -18.172863260022652 $424 -0.056321674288511758 $284 $425 forward 7 unknown #
coedge $-1 $426 $427 $174 $287 forward $279 $-1 #
edge $-1 $428 -46.348839246925273 $291 -38.661838742613455 $286 $429 forward 7 unknown #
edge $-1 $292 -12.214764559010222 $428 -1.3872419169116742e-014 $175 $430 forward 7 unknown #
coedge $-1 $176 $420 $426 $431 forward $290 $-1 #
loop $-1 $-1 $420 $278 #
vertex $-1 $287 $432 #
vertex $-1 $177 $433 #
straight-curve $-1 27.287455727178234 -55.108319202814585 13.526315663110751 0 1 0 I I #
coedge $-1 $294 $294 $-1 $434 reversed $180 $-1 #
edge $-1 $435 0 $435 6.2831853071796004 $181 $436 forward 7 unknown #
vertex $-1 $184 $437 #
ellipse-curve $-1 18.229184934311164 -25.676625191144328 9.6828154109548414 0 -0.62932039886446345 0.77714595512881146 1.5 0 0 1 I I #
face $-1 $-1 $310 $38 $-1 $438 forward single #
loop $-1 $-1 $439 $185 #
plane-surface $-1 0 -30.422952626087099 0 0 1 0 0 0 1 forward_v I I I I #
coedge $-1 $440 $441 $442 $443 reversed $186 $-1 #
coedge $-1 $444 $188 $190 $308 forward $116 $-1 #
coedge $-1 $188 $444 $440 $445 forward $116 $-1 #
coedge $-1 $442 $191 $188 $305 forward $310 $-1 #
edge $-1 $312 -32.23779995479947 $446 -14.12125836906533 $304 $447 forward 7 unknown #
coedge $-1 $448 $449 $189 $307 forward $299 $-1 #
edge $-1 $450 -46.348839246925273 $311 -38.661838742613455 $306 $451 forward 7 unknown #
edge $-1 $312 -12.214764559010222 $450 -1.3872419169116742e-014 $190 $452 forward 7 unknown #
coedge $-1 $191 $442 $448 $453 forward $310 $-1 #
loop $-1 $-1 $442 $298 #
vertex $-1 $307 $454 #
vertex $-1 $192 $455 #
straight-curve $-1 55.417329116731871 -55.108319202814585 13.526315663110751 0 1 0 I I #
coedge $-1 $314 $314 $-1 $456 reversed $195 $-1 #
edge $-1 $457 0 $457 6.2831853071796004 $196 $458 forward 7 unknown #
vertex $-1 $199 $459 #
ellipse-curve $-1 46.359058323864801 -25.676625191144328 9.6828154109548414 0 -0.62932039886446345 0.77714595512881146 1.5 0 0 1 I I #
face $-1 $-1 $215 $30 $-1 $460 reversed single #
loop $-1 $-1 $334 $200 #
plane-surface $-1 0 30.422952626087099 0 0 -1 0 0 0 -1 forward_v I I I I #
coedge $-1 $461 $332 $335 $462 forward $201 $-1 #
coedge $-1 $338 $203 $204 $326 reversed $125 $-1 #
coedge $-1 $332 $461 $203 $324 reversed $201 $-1 #
edge $-1 $339 -13.526315663110749 $463 13.526315663110749 $323 $464 forward 7 unknown #
coedge $-1 $205 $204 $461 $465 forward $81 $-1 #
edge $-1 $330 -63.39671010467849 $463 63.39671010467849 $322 $466 forward 7 unknown #
coedge $-1 $335 $334 $205 $328 reversed $319 $-1 #
edge $-1 $467 -63.39671010467849 $329 63.39671010467849 $327 $468 forward 7 unknown #
vertex $-1 $207 $469 #
vertex $-1 $341 $470 #
straight-curve $-1 63.39671010467849 0 -13.526315663110749 0 -1 0 I I #
coedge $-1 $321 $323 $208 $333 reversed $201 $-1 #
edge $-1 $336 -30.422952626087099 $339 30.422952626087099 $332 $471 forward 7 unknown #
coedge $-1 $327 $209 $214 $342 forward $319 $-1 #
coedge $-1 $209 $327 $321 $462 reversed $319 $-1 #
vertex $-1 $210 $472 #
straight-curve $-1 0 30.422952626087099 13.526315663110749 -1 0 0 I I #
coedge $-1 $211 $322 $213 $341 reversed $125 $-1 #
vertex $-1 $333 $473 #
straight-curve $-1 0 -30.422952626087099 13.526315663110749 1 0 0 I I #
edge $-1 $216 -13.526315663110749 $330 13.526315663110749 $213 $474 forward 7 unknown #
edge $-1 $217 -13.526315663110749 $329 13.526315663110749 $214 $475 forward 7 unknown #
point $-1 63.39671010467849 -30.422952626087099 13.526315663110749 #
point $-1 63.39671010467849 30.422952626087099 13.526315663110749 #
face $-1 $-1 $234 $31 $-1 $476 reversed single #
loop $-1 $-1 $354 $219 #
plane-surface $-1 0 0 13.526315663110749 0 0 1 1 0 0 forward_v I I I I #
coedge $-1 $360 $359 $223 $353 forward $220 $-1 #
coedge $-1 $225 $222 $360 $477 reversed $133 $-1 #
coedge $-1 $222 $225 $363 $478 reversed $133 $-1 #
edge $-1 $365 -13.526315663110749 $361 13.526315663110749 $222 $479 forward 7 unknown #
coedge $-1 $224 $223 $367 $480 reversed $85 $-1 #
edge $-1 $481 -35.266836715124846 $357 -20.992910063982443 $348 $482 forward 7 unknown #
coedge $-1 $364 $363 $224 $355 forward $346 $-1 #
edge $-1 $356 20.992910063982443 $483 35.266836715124846 $354 $484 forward 7 unknown #
vertex $-1 $355 $485 #
vertex $-1 $353 $486 #
straight-curve $-1 -49.122783453536087 -3.3703212998656014 0 0 0 -1 I I #
coedge $-1 $348 $228 $233 $369 forward $220 $-1 #
coedge $-1 $228 $348 $349 $477 forward $220 $-1 #
vertex $-1 $229 $487 #
straight-curve $-1 -28.129873389553644 -7.2885647463548935 -13.526315663110749 -1 0 0 I I #
coedge $-1 $354 $230 $350 $478 forward $346 $-1 #
coedge $-1 $230 $354 $232 $368 forward $346 $-1 #
vertex $-1 $231 $488 #
straight-curve $-1 -28.129873389553644 -7.2885647463548935 13.526315663110749 1 0 0 I I #
coedge $-1 $233 $232 $352 $480 forward $234 $-1 #
edge $-1 $483 3.3703212998656014 $236 7.2885647463548935 $232 $489 forward 7 unknown #
edge $-1 $235 -7.2885647463548935 $481 -3.3703212998656014 $233 $490 forward 7 unknown #
point $-1 -63.39671010467849 -7.2885647463548935 -13.526315663110749 #
point $-1 -63.39671010467849 -7.2885647463548935 13.526315663110749 #
plane-surface $-1 0 0 13.526315663110749 0 0 1 1 0 0 forward_v I I I I #
coedge $-1 $383 $382 $375 $491 forward $239 $-1 #
coedge $-1 $375 $241 $243 $379 reversed $141 $-1 #
coedge $-1 $241 $374 $373 $491 reversed $141 $-1 #
coedge $-1 $249 $244 $241 $377 forward $250 $-1 #
edge $-1 $380 -34.17802144661303 $492 -24.685366576727485 $376 $493 forward 7 unknown #
coedge $-1 $243 $242 $383 $494 reversed $89 $-1 #
edge $-1 $495 1.3872419169116742e-014 $380 12.214764559010222 $374 $496 forward 7 unknown #
vertex $-1 $245 $497 #
straight-curve $-1 -19.015280922398066 -20.930297756201561 13.526315663110749 -1 0 0 I I #
coedge $-1 $373 $246 $249 $387 reversed $239 $-1 #
coedge $-1 $246 $373 $378 $494 forward $239 $-1 #
vertex $-1 $247 $498 #
straight-curve $-1 -28.972291051929062 -30.422952626087095 52.188154405724205 0 0 1 I I #
straight-curve $-1 -28.972291051929062 -30.42295262608711 5.8393151587989252 0 -0.77714595512881146 -0.62932039886446345 I I #
edge $-1 $492 -47.088832637663202 $251 -28.972291051929062 $382 $499 forward 7 unknown #
point $-1 -28.972291051929062 -30.422952626087099 13.526315663110749 #
point $-1 -28.972291051929062 -20.930297756201554 13.526315663110749 #
edge $-1 $500 1 $500 0 $254 $-1 forward 7 unknown #
vertex $-1 $255 $501 #
ellipse-curve $-1 -38.030561844796132 -21.992920025508052 5.1338184699262452 0 -0.62932039886446345 0.77714595512881146 1.5 0 0 1 I I #
point $-1 -36.530561844796132 -25.676625191144318 9.6828154109548308 #
plane-surface $-1 0 0 13.526315663110749 0 0 1 1 0 0 forward_v I I I I #
coedge $-1 $405 $404 $397 $502 forward $259 $-1 #
coedge $-1 $397 $261 $263 $401 reversed $156 $-1 #
coedge $-1 $261 $396 $395 $502 reversed $156 $-1 #
coedge $-1 $269 $264 $261 $399 forward $270 $-1 #
edge $-1 $402 -34.17802144661303 $503 -24.685366576727485 $398 $504 forward 7 unknown #
coedge $-1 $263 $262 $405 $505 reversed $98 $-1 #
edge $-1 $506 1.3872419169116742e-014 $402 12.214764559010222 $396 $507 forward 7 unknown #
vertex $-1 $265 $508 #
straight-curve $-1 -4.9503442276212439 -20.930297756201561 13.526315663110749 -1 0 0 I I #
coedge $-1 $395 $266 $269 $409 reversed $259 $-1 #
coedge $-1 $266 $395 $400 $505 forward $259 $-1 #
vertex $-1 $267 $509 #
straight-curve $-1 -0.84241766237541782 -30.422952626087095 52.188154405724205 0 0 1 I I #
straight-curve $-1 -0.84241766237541782 -30.42295262608711 5.8393151587989252 0 -0.77714595512881146 -0.62932039886446345 I I #
edge $-1 $503 -18.958959248109558 $271 -0.84241766237541782 $404 $510 forward 7 unknown #
point $-1 -0.84241766237541782 -30.422952626087099 13.526315663110749 #
point $-1 -0.84241766237541782 -20.930297756201554 13.526315663110749 #
edge $-1 $511 1 $511 0 $274 $-1 forward 7 unknown #
vertex $-1 $275 $512 #
ellipse-curve $-1 -9.9006884552424879 -21.992920025508052 5.1338184699262452 0 -0.62932039886446345 0.77714595512881146 1.5 0 0 1 I I #
point $-1 -8.4006884552424879 -25.676625191144318 9.6828154109548308 #
plane-surface $-1 0 0 13.526315663110749 0 0 1 1 0 0 forward_v I I I I #
coedge $-1 $427 $426 $419 $513 forward $279 $-1 #
coedge $-1 $419 $281 $283 $423 reversed $171 $-1 #
coedge $-1 $281 $418 $417 $513 reversed $171 $-1 #
coedge $-1 $289 $284 $281 $421 forward $290 $-1 #
edge $-1 $424 -34.17802144661303 $514 -24.685366576727485 $420 $515 forward 7 unknown #
coedge $-1 $283 $282 $427 $516 reversed $107 $-1 #
edge $-1 $517 1.3872419169116742e-014 $424 12.214764559010222 $418 $518 forward 7 unknown #
vertex $-1 $285 $519 #
straight-curve $-1 9.1145924671555818 -20.930297756201561 13.526315663110749 -1 0 0 I I #
coedge $-1 $417 $286 $289 $431 reversed $279 $-1 #
coedge $-1 $286 $417 $422 $516 forward $279 $-1 #
vertex $-1 $287 $520 #
straight-curve $-1 27.287455727178234 -30.422952626087095 52.188154405724205 0 0 1 I I #
straight-curve $-1 27.287455727178234 -30.42295262608711 5.8393151587989252 0 -0.77714595512881146 -0.62932039886446345 I I #
edge $-1 $514 9.1709141414440936 $291 27.287455727178234 $426 $521 forward 7 unknown #
point $-1 27.287455727178234 -30.422952626087099 13.526315663110749 #
point $-1 27.287455727178234 -20.930297756201554 13.526315663110749 #
edge $-1 $522 1 $522 0 $294 $-1 forward 7 unknown #
vertex $-1 $295 $523 #
ellipse-curve $-1 18.229184934311164 -21.992920025508052 5.1338184699262452 0 -0.62932039886446345 0.77714595512881146 1.5 0 0 1 I I #
point $-1 19.729184934311164 -25.676625191144318 9.6828154109548308 #
plane-surface $-1 0 0 13.526315663110749 0 0 1 1 0 0 forward_v I I I I #
coedge $-1 $449 $448 $441 $524 forward $299 $-1 #
coedge $-1 $441 $301 $303 $445 reversed $186 $-1 #
coedge $-1 $301 $440 $439 $524 reversed $186 $-1 #
coedge $-1 $309 $304 $301 $443 forward $310 $-1 #
edge $-1 $446 -34.17802144661303 $525 -24.685366576727485 $442 $526 forward 7 unknown #
coedge $-1 $303 $302 $449 $527 reversed $116 $-1 #
edge $-1 $528 1.3872419169116742e-014 $446 12.214764559010222 $440 $529 forward 7 unknown #
vertex $-1 $305 $530 #
straight-curve $-1 23.1795291619324 -20.930297756201561 13.526315663110749 -1 0 0 I I #
coedge $-1 $439 $306 $309 $453 reversed $299 $-1 #
coedge $-1 $306 $439 $444 $527 forward $299 $-1 #
vertex $-1 $307 $531 #
straight-curve $-1 55.417329116731871 -30.422952626087095 52.188154405724205 0 0 1 I I #
straight-curve $-1 55.417329116731871 -30.42295262608711 5.8393151587989252 0 -0.77714595512881146 -0.62932039886446345 I I #
edge $-1 $525 37.300787530997731 $311 55.417329116731871 $448 $532 forward 7 unknown #
point $-1 55.417329116731871 -30.422952626087099 13.526315663110749 #
point $-1 55.417329116731871 -20.930297756201554 13.526315663110749 #
edge $-1 $533 1 $533 0 $314 $-1 forward 7 unknown #
vertex $-1 $315 $534 #
ellipse-curve $-1 46.359058323864801 -21.992920025508052 5.1338184699262452 0 -0.62932039886446345 0.77714595512881146 1.5 0 0 1 I I #
point $-1 47.859058323864801 -25.676625191144318 9.6828154109548308 #
plane-surface $-1 63.39671010467849 0 0 -1 0 0 0 0 1 forward_v I I I I #
coedge $-1 $323 $321 $325 $465 reversed $201 $-1 #
edge $-1 $336 -13.526315663110749 $467 13.526315663110749 $335 $535 forward 7 unknown #
vertex $-1 $465 $536 #
straight-curve $-1 -63.39671010467849 -30.422952626087099 0 0 0 -1 I I #
edge $-1 $463 -30.422952626087099 $467 30.422952626087099 $461 $537 forward 7 unknown #
straight-curve $-1 0 -30.422952626087099 -13.526315663110749 -1 0 0 I I #
vertex $-1 $328 $538 #
straight-curve $-1 0 30.422952626087099 -13.526315663110749 1 0 0 I I #
point $-1 63.39671010467849 30.422952626087099 -13.526315663110749 #
point $-1 63.39671010467849 -30.422952626087099 -13.526315663110749 #
straight-curve $-1 -63.39671010467849 0 13.526315663110749 0 -1 0 I I #
point $-1 -63.39671010467849 30.422952626087099 13.526315663110749 #
point $-1 -63.39671010467849 -30.422952626087099 13.526315663110749 #
straight-curve $-1 63.39671010467849 -30.422952626087099 0 0 0 -1 I I #
straight-curve $-1 63.39671010467849 30.422952626087099 0 0 0 -1 I I #
plane-surface $-1 -63.39671010467849 0 0 1 0 0 0 0 -1 forward_v I I I I #
edge $-1 $357 0.70559978831047765 $361 4.6238432347997698 $360 $539 forward 7 unknown #
edge $-1 $365 -4.6238432347997698 $356 -0.70559978831047765 $363 $540 forward 7 unknown #
straight-curve $-1 -49.122783453536087 -7.2885647463548935 0 0 0 -1 I I #
edge $-1 $483 -13.526315663110749 $481 13.526315663110749 $367 $541 forward 7 unknown #
vertex $-1 $480 $542 #
straight-curve $-1 -28.129873389553644 -3.3703212998656014 -13.526315663110749 1 0 0 I I #
vertex $-1 $368 $543 #
straight-curve $-1 -28.129873389553644 -3.3703212998656014 13.526315663110749 -1 0 0 I I #
point $-1 -49.122783453536087 -3.3703212998656014 13.526315663110749 #
point $-1 -49.122783453536087 -3.3703212998656014 -13.526315663110749 #
point $-1 -49.122783453536087 -7.2885647463548935 -13.526315663110749 #
point $-1 -49.122783453536087 -7.2885647463548935 13.526315663110749 #
straight-curve $-1 -63.39671010467849 0 13.526315663110749 0 -1 0 I I #
straight-curve $-1 -63.39671010467849 0 -13.526315663110749 0 1 0 I I #
edge $-1 $492 38.661838742613455 $495 46.348839246925273 $373 $544 forward 7 unknown #
vertex $-1 $387 $545 #
straight-curve $-1 -47.088832637663202 -55.108319202814585 13.526315663110751 0 -1 0 I I #
edge $-1 $495 -28.073551715265136 $384 -9.9570101295309961 $383 $546 forward 7 unknown #
vertex $-1 $494 $547 #
straight-curve $-1 -47.088832637663202 -30.42295262608711 5.8393151587989252 0 0.77714595512881146 0.62932039886446345 I I #
point $-1 -47.088832637663202 -20.930297756201554 13.526315663110749 #
point $-1 -28.972291051929062 -30.422952626087099 5.839315158798934 #
straight-curve $-1 0 -30.422952626087099 13.526315663110749 1 0 0 I I #
vertex $-1 $390 $548 #
point $-1 -36.530561844796132 -21.992920025508052 5.1338184699262452 #
edge $-1 $503 38.661838742613455 $506 46.348839246925273 $395 $549 forward 7 unknown #
vertex $-1 $409 $550 #
straight-curve $-1 -18.958959248109558 -55.108319202814585 13.526315663110751 0 -1 0 I I #
edge $-1 $506 -14.008615020488314 $406 4.1079265652458261 $405 $551 forward 7 unknown #
vertex $-1 $505 $552 #
straight-curve $-1 -18.958959248109558 -30.42295262608711 5.8393151587989252 0 0.77714595512881146 0.62932039886446345 I I #
point $-1 -18.958959248109558 -20.930297756201554 13.526315663110749 #
point $-1 -0.84241766237541782 -30.422952626087099 5.839315158798934 #
straight-curve $-1 0 -30.422952626087099 13.526315663110749 1 0 0 I I #
vertex $-1 $412 $553 #
point $-1 -8.4006884552424879 -21.992920025508052 5.1338184699262452 #
edge $-1 $514 38.661838742613455 $517 46.348839246925273 $417 $554 forward 7 unknown #
vertex $-1 $431 $555 #
straight-curve $-1 9.1709141414440936 -55.108319202814585 13.526315663110751 0 -1 0 I I #
edge $-1 $517 0.056321674288511758 $428 18.172863260022652 $427 $556 forward 7 unknown #
vertex $-1 $516 $557 #
straight-curve $-1 9.1709141414440936 -30.42295262608711 5.8393151587989252 0 0.77714595512881146 0.62932039886446345 I I #
point $-1 9.1709141414440936 -20.930297756201554 13.526315663110749 #
point $-1 27.287455727178234 -30.422952626087099 5.839315158798934 #
straight-curve $-1 0 -30.422952626087099 13.526315663110749 1 0 0 I I #
vertex $-1 $434 $558 #
point $-1 19.729184934311164 -21.992920025508052 5.1338184699262452 #
edge $-1 $525 38.661838742613455 $528 46.348839246925273 $439 $559 forward 7 unknown #
vertex $-1 $453 $560 #
straight-curve $-1 37.300787530997731 -55.108319202814585 13.526315663110751 0 -1 0 I I #
edge $-1 $528 14.12125836906533 $450 32.23779995479947 $449 $561 forward 7 unknown #
vertex $-1 $527 $562 #
straight-curve $-1 37.300787530997731 -30.42295262608711 5.8393151587989252 0 0.77714595512881146 0.62932039886446345 I I #
point $-1 37.300787530997731 -20.930297756201554 13.526315663110749 #
point $-1 55.417329116731871 -30.422952626087099 5.839315158798934 #
straight-curve $-1 0 -30.422952626087099 13.526315663110749 1 0 0 I I #
vertex $-1 $456 $563 #
point $-1 47.859058323864801 -21.992920025508052 5.1338184699262452 #
straight-curve $-1 -63.39671010467849 30.422952626087099 0 0 0 -1 I I #
point $-1 -63.39671010467849 -30.422952626087099 -13.526315663110749 #
straight-curve $-1 -63.39671010467849 0 -13.526315663110749 0 1 0 I I #
point $-1 -63.39671010467849 30.422952626087099 -13.526315663110749 #
straight-curve $-1 -49.122783453536087 -2.6647215115551237 -13.526315663110749 0 -1 0 I I #
straight-curve $-1 -49.122783453536087 -2.6647215115551237 13.526315663110749 0 1 0 I I #
straight-curve $-1 -63.39671010467849 -3.3703212998656014 0 0 0 -1 I I #
point $-1 -63.39671010467849 -3.3703212998656014 -13.526315663110749 #
point $-1 -63.39671010467849 -3.3703212998656014 13.526315663110749 #
straight-curve $-1 -47.088832637663202 -30.422952626087095 52.188154405724205 0 0 -1 I I #
point $-1 -47.088832637663202 -30.422952626087099 13.526315663110749 #
straight-curve $-1 -19.015280922398066 -30.422952626087099 5.8393151587989323 1 0 0 I I #
point $-1 -47.088832637663202 -30.422952626087099 5.839315158798934 #
point $-1 -38.030561844796132 -21.048939427211355 3.9680995372330283 #
straight-curve $-1 -18.958959248109558 -30.422952626087095 52.188154405724205 0 0 -1 I I #
point $-1 -18.958959248109558 -30.422952626087099 13.526315663110749 #
straight-curve $-1 -4.9503442276212439 -30.422952626087099 5.8393151587989323 1 0 0 I I #
point $-1 -18.958959248109558 -30.422952626087099 5.839315158798934 #
point $-1 -9.9006884552424879 -21.048939427211355 3.9680995372330283 #
straight-curve $-1 9.1709141414440936 -30.422952626087095 52.188154405724205 0 0 -1 I I #
point $-1 9.1709141414440936 -30.422952626087099 13.526315663110749 #
straight-curve $-1 9.1145924671555818 -30.422952626087099 5.8393151587989323 1 0 0 I I #
point $-1 9.1709141414440936 -30.422952626087099 5.839315158798934 #
point $-1 18.229184934311164 -21.048939427211355 3.9680995372330283 #
straight-curve $-1 37.300787530997731 -30.422952626087095 52.188154405724205 0 0 -1 I I #
point $-1 37.300787530997731 -30.422952626087099 13.526315663110749 #
straight-curve $-1 23.1795291619324 -30.422952626087099 5.8393151587989323 1 0 0 I I #
point $-1 37.300787530997731 -30.422952626087099 5.839315158798934 #
point $-1 46.359058323864801 -21.048939427211355 3.9680995372330283 #
End-of-ACIS-data 