500 0 6 0           
7 Unknown 11 ACIS 5.0 NT 24 Thu Mar 25 23:27:17 1999 
-1 9.9999999999999995e-007 1e-010 
body $-1 $6 $-1 $7 #
body $-1 $8 $-1 $9 #
body $-1 $10 $-1 $11 #
body $-1 $12 $-1 $13 #
body $-1 $14 $-1 $15 #
body $-1 $16 $-1 $17 #
lump $-1 $-1 $18 $0 #
transform $-1 1 0 0 0 1 0 0 0 1 54.899136326181832 31.850948549726237 14.384007731995116 1 rotate no_reflect no_shear #
lump $-1 $-1 $19 $1 #
transform $-1 1 0 0 0 1 0 0 0 1 54.899136326181832 31.850948549726237 14.384007731995116 1 rotate no_reflect no_shear #
lump $-1 $-1 $20 $2 #
transform $-1 1 0 0 0 1 0 0 0 1 54.899136326181832 31.850948549726237 14.384007731995116 1 rotate no_reflect no_shear #
lump $-1 $-1 $21 $3 #
transform $-1 1 0 0 0 1 0 0 0 1 54.899136326181832 31.850948549726237 14.384007731995116 1 rotate no_reflect no_shear #
lump $-1 $-1 $22 $4 #
transform $-1 1 0 0 0 1 0 0 0 1 54.899136326181832 31.850948549726237 14.384007731995116 1 rotate no_reflect no_shear #
lump $-1 $-1 $23 $5 #
transform $-1 1 0 0 0 1 0 0 0 1 54.899136326181832 31.850948549726237 14.384007731995116 1 rotate no_reflect no_shear #
shell $-1 $-1 $-1 $24 $-1 $6 #
shell $-1 $-1 $-1 $25 $-1 $8 #
shell $-1 $-1 $-1 $26 $-1 $10 #
shell $-1 $-1 $-1 $27 $-1 $12 #
shell $-1 $-1 $-1 $28 $-1 $14 #
shell $-1 $-1 $-1 $29 $-1 $16 #
face $-1 $30 $31 $18 $-1 $32 forward single #
face $-1 $33 $34 $19 $-1 $35 reversed single #
face $-1 $36 $37 $20 $-1 $38 forward single #
face $-1 $39 $40 $21 $-1 $41 reversed single #
face $-1 $42 $43 $22 $-1 $44 forward single #
face $-1 $45 $46 $23 $-1 $47 forward single #
face $-1 $48 $49 $18 $-1 $50 reversed single #
loop $-1 $-1 $51 $24 #
plane-surface $-1 0 0 14.384007731995116 0 0 1 1 0 0 forward_v I I I I #
face $-1 $52 $53 $19 $-1 $54 reversed single #
loop $-1 $-1 $55 $25 #
plane-surface $-1 40.030278168879271 31.582624700397854 131.34818659148348 1 0 0 0 -0.50000000669873634 -0.8660253999169214 forward_v I I I I #
face $-1 $56 $57 $20 $-1 $58 forward single #
loop $-1 $59 $60 $26 #
cone-surface $-1 47.464707247530555 21.934836961557441 7.1836615209287684 0 -0.50000000669873634 -0.8660253999169214 2 0 0 1 I I 0 1 2 forward I I I I #
face $-1 $61 $62 $21 $-1 $63 reversed single #
loop $-1 $-1 $64 $27 #
plane-surface $-1 -32.872799291183753 -122.87784286669361 70.720118679829909 -1 0 0 0 -0.82903758062907751 0.55919289150049634 forward_v I I I I #
face $-1 $65 $66 $22 $-1 $67 forward single #
loop $-1 $68 $69 $28 #
cone-surface $-1 -48.605897173325239 -29.160911734396244 11.189980667061816 0 0.82903758062907751 -0.55919289150049634 1.5 0 0 1 I I 0 1 1.5 forward I I I I #
face $-1 $70 $71 $23 $-1 $72 forward single #
loop $-1 $73 $74 $29 #
cone-surface $-1 -39.166038444040346 -29.160911734396244 11.189980667061816 0 0.82903758062907751 -0.55919289150049634 1.5 0 0 1 I I 0 1 1.5 forward I I I I #
face $-1 $75 $76 $18 $-1 $77 reversed single #
loop $-1 $-1 $78 $30 #
plane-surface $-1 0 0 -14.384007731995116 0 0 1 1 0 0 forward_v I I I I #
coedge $-1 $79 $80 $81 $82 forward $31 $-1 #
face $-1 $83 $84 $19 $-1 $85 forward single #
loop $-1 $-1 $86 $33 #
plane-surface $-1 47.464707247530555 -23.316512361293658 36.260093607533065 0 0.50000000669873634 0.8660253999169214 1 0 0 forward_v I I I I #
coedge $-1 $87 $88 $89 $90 reversed $34 $-1 #
face $-1 $-1 $91 $20 $-1 $92 forward single #
loop $-1 $93 $94 $36 #
cone-surface $-1 47.464707247530555 20.157210057038586 4.1047214604007429 0 -0.50000000669873634 -0.8660253999169214 1 0 0 1 I I -0.70710678118654746 0.70710678118654746 1 forward I I I I #
loop $-1 $-1 $95 $26 #
coedge $-1 $60 $60 $96 $97 reversed $37 $-1 #
face $-1 $98 $99 $21 $-1 $100 forward single #
loop $-1 $-1 $101 $39 #
plane-surface $-1 -43.885967808682793 -31.85094854972624 9.3217051135948026 0 -0.82903758062907751 0.55919289150049634 1 0 0 forward_v I I I I #
coedge $-1 $102 $103 $104 $105 reversed $40 $-1 #
face $-1 $-1 $106 $22 $-1 $107 forward single #
loop $-1 $108 $109 $42 #
cone-surface $-1 -48.605897173325239 -27.55637979589288 10.107710242703295 0 0.82903758062907751 -0.55919289150049634 0.75 0 0 1 I I -0.70710678118654757 0.70710678118654757 0.75 forward I I I I #
loop $-1 $-1 $110 $28 #
coedge $-1 $69 $69 $111 $112 reversed $43 $-1 #
face $-1 $-1 $113 $23 $-1 $114 forward single #
loop $-1 $115 $116 $45 #
cone-surface $-1 -39.166038444040346 -27.55637979589288 10.107710242703295 0 0.82903758062907751 -0.55919289150049634 0.75 0 0 1 I I -0.70710678118654757 0.70710678118654757 0.75 forward I I I I #
loop $-1 $-1 $117 $29 #
coedge $-1 $74 $74 $118 $119 reversed $46 $-1 #
face $-1 $120 $121 $18 $-1 $122 reversed single #
loop $-1 $-1 $123 $48 #
plane-surface $-1 0 -31.850948549726237 0 0 1 0 0 0 1 forward_v I I I I #
coedge $-1 $124 $125 $126 $127 forward $49 $-1 #
coedge $-1 $128 $51 $129 $130 forward $31 $-1 #
coedge $-1 $51 $128 $131 $132 forward $31 $-1 #
coedge $-1 $133 $134 $51 $82 reversed $135 $-1 #
edge $-1 $136 -31.850948549726237 $137 31.850948549726237 $81 $138 forward 7 unknown #
face $-1 $139 $140 $19 $-1 $141 reversed single #
loop $-1 $-1 $89 $52 #
plane-surface $-1 0 0 14.384007731995116 0 0 1 1 0 0 forward_v I I I I #
coedge $-1 $142 $143 $144 $145 reversed $53 $-1 #
coedge $-1 $88 $55 $146 $147 reversed $34 $-1 #
coedge $-1 $55 $87 $142 $148 reversed $34 $-1 #
coedge $-1 $144 $149 $55 $90 forward $84 $-1 #
edge $-1 $150 -16.059636199527311 $151 1.2173331811700709 $89 $152 forward 7 unknown #
loop $-1 $-1 $96 $56 #
plane-surface $-1 47.464707247530555 -23.316512361293658 36.260093607533065 0 0.50000000669873634 0.8660253999169214 1 0 0 forward_v I I I I #
loop $-1 $-1 $153 $36 #
coedge $-1 $94 $94 $95 $154 reversed $57 $-1 #
coedge $-1 $95 $95 $94 $154 forward $59 $-1 #
coedge $-1 $96 $96 $60 $97 forward $91 $-1 #
edge $-1 $155 1.3003834212745784e-015 $155 6.2831853071796013 $96 $156 forward 7 unknown #
face $-1 $157 $158 $21 $-1 $159 reversed single #
loop $-1 $-1 $104 $61 #
plane-surface $-1 0 0 14.384007731995116 0 0 1 1 0 0 forward_v I I I I #
coedge $-1 $160 $161 $162 $163 reversed $62 $-1 #
coedge $-1 $103 $64 $164 $165 reversed $40 $-1 #
coedge $-1 $64 $102 $160 $166 reversed $40 $-1 #
coedge $-1 $162 $167 $64 $105 forward $99 $-1 #
edge $-1 $168 29.587972883620569 $169 33.002539008217447 $104 $170 forward 7 unknown #
loop $-1 $-1 $111 $65 #
plane-surface $-1 -43.885967808682793 -31.85094854972624 9.3217051135948026 0 -0.82903758062907751 0.55919289150049634 1 0 0 forward_v I I I I #
loop $-1 $-1 $171 $42 #
coedge $-1 $109 $109 $110 $172 reversed $66 $-1 #
coedge $-1 $110 $110 $109 $172 forward $68 $-1 #
coedge $-1 $111 $111 $69 $112 forward $106 $-1 #
edge $-1 $173 -1.3244348231478785e-015 $173 6.2831853071795996 $111 $174 forward 7 unknown #
loop $-1 $-1 $118 $70 #
plane-surface $-1 -43.885967808682793 -31.85094854972624 9.3217051135948026 0 -0.82903758062907751 0.55919289150049634 1 0 0 forward_v I I I I #
loop $-1 $-1 $175 $45 #
coedge $-1 $116 $116 $117 $176 reversed $71 $-1 #
coedge $-1 $117 $117 $116 $176 forward $73 $-1 #
coedge $-1 $118 $118 $74 $119 forward $113 $-1 #
edge $-1 $177 -1.3244348231478785e-015 $177 6.2831853071795996 $118 $178 forward 7 unknown #
face $-1 $179 $180 $18 $-1 $181 reversed single #
loop $-1 $-1 $182 $75 #
plane-surface $-1 -54.899136326181832 0 0 1 0 0 0 0 -1 forward_v I I I I #
coedge $-1 $183 $131 $184 $185 forward $76 $-1 #
coedge $-1 $186 $78 $183 $187 forward $49 $-1 #
coedge $-1 $78 $186 $188 $189 forward $49 $-1 #
coedge $-1 $134 $133 $78 $127 reversed $135 $-1 #
edge $-1 $190 -31.850948549726237 $191 31.850948549726237 $126 $192 forward 7 unknown #
coedge $-1 $80 $79 $193 $194 forward $31 $-1 #
coedge $-1 $195 $196 $79 $130 reversed $180 $-1 #
edge $-1 $137 -54.899136326181832 $197 54.899136326181832 $129 $198 forward 7 unknown #
coedge $-1 $123 $199 $80 $132 reversed $76 $-1 #
edge $-1 $200 -54.899136326181832 $136 54.899136326181832 $131 $201 forward 7 unknown #
coedge $-1 $126 $81 $199 $202 forward $135 $-1 #
coedge $-1 $81 $126 $195 $203 reversed $135 $-1 #
loop $-1 $-1 $133 $179 #
vertex $-1 $82 $204 #
vertex $-1 $82 $205 #
straight-curve $-1 54.899136326181832 0 14.384007731995116 0 1 0 I I #
face $-1 $-1 $206 $19 $-1 $207 reversed single #
loop $-1 $-1 $146 $83 #
plane-surface $-1 0 31.850948549726237 0 0 -1 0 0 0 -1 forward_v I I I I #
coedge $-1 $208 $86 $88 $148 forward $53 $-1 #
coedge $-1 $86 $208 $209 $210 reversed $53 $-1 #
coedge $-1 $211 $89 $86 $145 forward $84 $-1 #
edge $-1 $151 16.297924545113993 $212 31.166782702416562 $144 $213 forward 7 unknown #
coedge $-1 $214 $215 $87 $147 forward $140 $-1 #
edge $-1 $216 -61.264948664657119 $150 -51.290085563746629 $146 $217 forward 7 unknown #
edge $-1 $151 43.752171164907381 $216 63.701897099452459 $88 $218 forward 7 unknown #
coedge $-1 $89 $211 $214 $219 forward $84 $-1 #
vertex $-1 $147 $220 #
vertex $-1 $90 $221 #
straight-curve $-1 40.030278168879271 15.791312350198927 14.384007731995112 0 -1 0 I I #
coedge $-1 $153 $153 $-1 $222 reversed $93 $-1 #
edge $-1 $223 0 $223 6.2831853071796004 $94 $224 forward 7 unknown #
vertex $-1 $97 $225 #
ellipse-curve $-1 47.464707247530555 23.212463859377554 9.3965761815398636 0 0.50000000669873634 0.8660253999169214 2 0 0 1 I I #
face $-1 $-1 $226 $21 $-1 $227 reversed single #
loop $-1 $-1 $228 $98 #
plane-surface $-1 -54.899136326181832 0 0 1 0 0 0 0 -1 forward_v I I I I #
coedge $-1 $229 $101 $103 $166 forward $62 $-1 #
coedge $-1 $101 $229 $228 $230 reversed $62 $-1 #
coedge $-1 $231 $104 $101 $163 forward $99 $-1 #
edge $-1 $169 10.929815386842357 $232 32.956152421840436 $162 $233 forward 7 unknown #
coedge $-1 $234 $235 $102 $165 forward $226 $-1 #
edge $-1 $236 -26.038354226320145 $168 -20.976051607919839 $164 $237 forward 7 unknown #
edge $-1 $169 -6.1062402196038139 $236 -6.404651964132713e-015 $103 $238 forward 7 unknown #
coedge $-1 $104 $231 $234 $239 forward $99 $-1 #
vertex $-1 $165 $240 #
vertex $-1 $105 $241 #
straight-curve $-1 -32.872799291183753 -61.438921433346806 14.384007731995116 0 1 0 I I #
coedge $-1 $171 $171 $-1 $242 reversed $108 $-1 #
edge $-1 $243 0 $243 6.2831853071796004 $109 $244 forward 7 unknown #
vertex $-1 $112 $245 #
ellipse-curve $-1 -48.605897173325239 -30.143665487427796 11.852856422794963 0 -0.82903758062907751 0.55919289150049634 1.5 0 0 1 I I #
coedge $-1 $175 $175 $-1 $246 reversed $115 $-1 #
edge $-1 $247 0 $247 6.2831853071796004 $116 $248 forward 7 unknown #
vertex $-1 $119 $249 #
ellipse-curve $-1 -39.166038444040346 -30.143665487427796 11.852856422794963 0 -0.82903758062907751 0.55919289150049634 1.5 0 0 1 I I #
face $-1 $-1 $135 $18 $-1 $250 reversed single #
loop $-1 $-1 $195 $120 #
plane-surface $-1 0 31.850948549726237 0 0 -1 0 0 0 -1 forward_v I I I I #
coedge $-1 $251 $193 $196 $252 forward $121 $-1 #
coedge $-1 $199 $123 $124 $187 reversed $76 $-1 #
coedge $-1 $193 $251 $123 $185 reversed $121 $-1 #
edge $-1 $200 -14.384007731995116 $253 14.384007731995116 $184 $254 forward 7 unknown #
coedge $-1 $125 $124 $251 $255 forward $49 $-1 #
edge $-1 $191 -54.899136326181832 $253 54.899136326181832 $183 $256 forward 7 unknown #
coedge $-1 $196 $195 $125 $189 reversed $180 $-1 #
edge $-1 $257 -54.899136326181832 $190 54.899136326181832 $188 $258 forward 7 unknown #
vertex $-1 $127 $259 #
vertex $-1 $202 $260 #
straight-curve $-1 54.899136326181832 0 -14.384007731995116 0 -1 0 I I #
coedge $-1 $182 $184 $128 $194 reversed $121 $-1 #
edge $-1 $197 -31.850948549726237 $200 31.850948549726237 $193 $261 forward 7 unknown #
coedge $-1 $188 $129 $134 $203 forward $180 $-1 #
coedge $-1 $129 $188 $182 $252 reversed $180 $-1 #
vertex $-1 $130 $262 #
straight-curve $-1 0 31.850948549726237 14.384007731995116 -1 0 0 I I #
coedge $-1 $131 $183 $133 $202 reversed $76 $-1 #
vertex $-1 $194 $263 #
straight-curve $-1 0 -31.850948549726237 14.384007731995116 1 0 0 I I #
edge $-1 $136 -14.384007731995116 $191 14.384007731995116 $133 $264 forward 7 unknown #
edge $-1 $137 -14.384007731995116 $190 14.384007731995116 $134 $265 forward 7 unknown #
point $-1 54.899136326181832 -31.850948549726237 14.384007731995116 #
point $-1 54.899136326181832 31.850948549726237 14.384007731995116 #
loop $-1 $-1 $209 $139 #
plane-surface $-1 54.899136326181832 0 0 -1 0 0 0 0 1 forward_v I I I I #
coedge $-1 $143 $142 $215 $266 reversed $53 $-1 #
coedge $-1 $267 $268 $143 $210 forward $206 $-1 #
edge $-1 $212 24.590801670397124 $269 44.540527604942206 $209 $270 forward 7 unknown #
coedge $-1 $149 $144 $268 $271 forward $84 $-1 #
vertex $-1 $271 $272 #
straight-curve $-1 23.732353623765277 14.573979169028847 14.384007731995117 1 0 0 I I #
coedge $-1 $273 $146 $149 $219 reversed $140 $-1 #
coedge $-1 $146 $273 $208 $266 forward $140 $-1 #
vertex $-1 $147 $274 #
straight-curve $-1 40.030278168879271 31.850948549726237 65.674093295741741 0 0 1 I I #
straight-curve $-1 40.030278168879271 -23.316512361293658 36.260093607533065 0 0.8660253999169214 -0.50000000669873634 I I #
edge $-1 $275 -54.899136326181832 $150 -40.030278168879271 $214 $276 forward 7 unknown #
point $-1 40.030278168879271 31.850948549726237 14.384007731995116 #
point $-1 40.030278168879271 14.573979169028856 14.384007731995116 #
edge $-1 $277 1 $277 0 $153 $-1 forward 7 unknown #
vertex $-1 $154 $278 #
ellipse-curve $-1 47.464707247530555 20.657210063737324 4.9707468603176643 0 0.50000000669873634 0.8660253999169214 2 0 0 1 I I #
point $-1 49.464707247530555 23.212463859377561 9.3965761815398707 #
loop $-1 $-1 $164 $157 #
plane-surface $-1 0 -31.850948549726237 0 0 1 0 0 0 1 forward_v I I I I #
coedge $-1 $279 $280 $161 $230 forward $158 $-1 #
coedge $-1 $161 $160 $235 $281 reversed $62 $-1 #
edge $-1 $232 -1.064850138682504 $282 5.0413900809213033 $228 $283 forward 7 unknown #
coedge $-1 $167 $162 $280 $284 forward $99 $-1 #
vertex $-1 $284 $285 #
straight-curve $-1 -21.942983904341396 -28.436382425129356 14.384007731995116 -1 0 0 I I #
coedge $-1 $286 $164 $167 $239 reversed $226 $-1 #
coedge $-1 $164 $286 $229 $281 forward $226 $-1 #
vertex $-1 $165 $287 #
straight-curve $-1 -32.872799291183753 -31.85094854972624 35.360059339914955 0 0 1 I I #
straight-curve $-1 -32.872799291183753 -31.85094854972624 9.3217051135948026 0 -0.55919289150049634 -0.82903758062907751 I I #
edge $-1 $288 -54.899136326181832 $168 -32.872799291183753 $234 $289 forward 7 unknown #
point $-1 -32.872799291183753 -31.850948549726237 14.384007731995116 #
point $-1 -32.872799291183753 -28.436382425129359 14.384007731995116 #
edge $-1 $290 1 $290 0 $171 $-1 forward 7 unknown #
vertex $-1 $172 $291 #
ellipse-curve $-1 -48.605897173325239 -28.178157981364688 10.527104911328667 0 -0.82903758062907751 0.55919289150049634 1.5 0 0 1 I I #
point $-1 -47.105897173325239 -30.1436654874278 11.852856422794963 #
edge $-1 $292 1 $292 0 $175 $-1 forward 7 unknown #
vertex $-1 $176 $293 #
ellipse-curve $-1 -39.166038444040346 -28.178157981364688 10.527104911328667 0 -0.82903758062907751 0.55919289150049634 1.5 0 0 1 I I #
point $-1 -37.666038444040346 -30.1436654874278 11.852856422794963 #
plane-surface $-1 54.899136326181832 0 0 -1 0 0 0 0 1 forward_v I I I I #
coedge $-1 $184 $182 $186 $255 reversed $121 $-1 #
edge $-1 $197 -14.384007731995116 $257 14.384007731995116 $196 $294 forward 7 unknown #
vertex $-1 $255 $295 #
straight-curve $-1 -54.899136326181832 -31.850948549726237 0 0 0 -1 I I #
edge $-1 $253 -31.850948549726237 $257 31.850948549726237 $251 $296 forward 7 unknown #
straight-curve $-1 0 -31.850948549726237 -14.384007731995116 -1 0 0 I I #
vertex $-1 $189 $297 #
straight-curve $-1 0 31.850948549726237 -14.384007731995116 1 0 0 I I #
point $-1 54.899136326181832 31.850948549726237 -14.384007731995116 #
point $-1 54.899136326181832 -31.850948549726237 -14.384007731995116 #
straight-curve $-1 -54.899136326181832 0 14.384007731995116 0 -1 0 I I #
point $-1 -54.899136326181832 31.850948549726237 14.384007731995116 #
point $-1 -54.899136326181832 -31.850948549726237 14.384007731995116 #
straight-curve $-1 54.899136326181832 -31.850948549726237 0 0 0 -1 I I #
straight-curve $-1 54.899136326181832 31.850948549726237 0 0 0 -1 I I #
edge $-1 $269 -31.166782702416562 $216 -16.297924545113993 $215 $298 forward 7 unknown #
coedge $-1 $268 $209 $273 $299 reversed $206 $-1 #
coedge $-1 $209 $267 $211 $271 reversed $206 $-1 #
vertex $-1 $210 $300 #
straight-curve $-1 54.899136326181832 -6.7222796818545119 26.679408731920972 0 0.8660253999169214 -0.50000000669873634 I I #
edge $-1 $212 14.573979169028856 $275 31.850948549726237 $268 $301 forward 7 unknown #
point $-1 54.899136326181839 14.573979169028856 14.384007731995116 #
coedge $-1 $215 $214 $267 $299 forward $140 $-1 #
point $-1 40.030278168879271 31.850948549726237 4.4091446310846223 #
vertex $-1 $271 $302 #
straight-curve $-1 0 31.850948549726237 14.384007731995116 -1 0 0 I I #
vertex $-1 $222 $303 #
point $-1 49.464707247530555 20.657210063737324 4.9707468603176643 #
coedge $-1 $280 $228 $286 $304 reversed $158 $-1 #
coedge $-1 $228 $279 $231 $284 reversed $158 $-1 #
edge $-1 $282 -32.956152421840436 $236 -10.929815386842357 $235 $305 forward 7 unknown #
vertex $-1 $230 $306 #
straight-curve $-1 -54.899136326181832 -29.031839053193934 13.501206949289235 0 -0.55919289150049634 -0.82903758062907751 I I #
edge $-1 $232 28.436382425129359 $288 31.850948549726237 $280 $307 forward 7 unknown #
point $-1 -54.899136326181832 -28.436382425129359 14.384007731995116 #
coedge $-1 $235 $234 $279 $304 forward $226 $-1 #
point $-1 -32.872799291183753 -31.850948549726237 9.3217051135948079 #
vertex $-1 $284 $308 #
straight-curve $-1 0 -31.850948549726237 14.384007731995116 1 0 0 I I #
vertex $-1 $242 $309 #
point $-1 -47.105897173325239 -28.178157981364688 10.527104911328667 #
vertex $-1 $246 $310 #
point $-1 -37.666038444040346 -28.178157981364688 10.527104911328667 #
straight-curve $-1 -54.899136326181832 31.850948549726237 0 0 0 -1 I I #
point $-1 -54.899136326181832 -31.850948549726237 -14.384007731995116 #
straight-curve $-1 -54.899136326181832 0 -14.384007731995116 0 1 0 I I #
point $-1 -54.899136326181832 31.850948549726237 -14.384007731995116 #
straight-curve $-1 23.732353623765277 31.850948549726233 4.4091446310846241 -1 0 0 I I #
edge $-1 $275 -14.384007731995116 $269 -4.4091446310846223 $267 $311 forward 7 unknown #
point $-1 54.899136326181839 31.850948549726237 4.4091446310846223 #
straight-curve $-1 54.899136326181832 0 14.384007731995116 0 1 0 I I #
point $-1 54.899136326181832 31.850948549726237 14.384007731995116 #
point $-1 47.464707247530555 19.657210050339849 3.2386960604838215 #
edge $-1 $288 -14.384007731995116 $282 -9.3217051135948079 $279 $312 forward 7 unknown #
straight-curve $-1 -21.942983904341396 -31.850948549726237 9.3217051135948061 1 0 0 I I #
point $-1 -54.899136326181832 -31.850948549726237 9.3217051135948079 #
straight-curve $-1 -54.899136326181832 0 14.384007731995116 0 -1 0 I I #
point $-1 -54.899136326181832 -31.850948549726237 14.384007731995116 #
point $-1 -48.605897173325239 -26.934601610421073 9.6883155740779223 #
point $-1 -39.166038444040346 -26.934601610421073 9.6883155740779223 #
straight-curve $-1 54.899136326181832 31.850948549726237 0 0 0 -1 I I #
straight-curve $-1 -54.899136326181832 -31.850948549726237 0 0 0 -1 I I #
End-of-ACIS-data 