500 0 7 0           
7 Unknown 11 ACIS 5.0 NT 24 Thu Mar 25 15:32:57 1999 
-1 9.9999999999999995e-007 1e-010 
body $-1 $7 $-1 $8 #
body $-1 $9 $-1 $10 #
body $-1 $11 $-1 $12 #
body $-1 $13 $-1 $14 #
body $-1 $15 $-1 $16 #
body $-1 $17 $-1 $18 #
body $-1 $19 $-1 $20 #
lump $-1 $-1 $21 $0 #
transform $-1 1 0 0 0 1 0 0 0 1 64.088869899594101 38.56324333897998 13.835197598805106 1 rotate no_reflect no_shear #
lump $-1 $-1 $22 $1 #
transform $-1 1 0 0 0 1 0 0 0 1 64.088869899594101 38.56324333897998 13.835197598805106 1 rotate no_reflect no_shear #
lump $-1 $-1 $23 $2 #
transform $-1 1 0 0 0 1 0 0 0 1 64.088869899594101 38.56324333897998 13.835197598805106 1 rotate no_reflect no_shear #
lump $-1 $-1 $24 $3 #
transform $-1 1 0 0 0 1 0 0 0 1 64.088869899594101 38.56324333897998 13.835197598805106 1 rotate no_reflect no_shear #
lump $-1 $-1 $25 $4 #
transform $-1 1 0 0 0 1 0 0 0 1 64.088869899594101 38.56324333897998 13.835197598805106 1 rotate no_reflect no_shear #
lump $-1 $-1 $26 $5 #
transform $-1 1 0 0 0 1 0 0 0 1 64.088869899594101 38.56324333897998 13.835197598805106 1 rotate no_reflect no_shear #
lump $-1 $-1 $27 $6 #
transform $-1 1 0 0 0 1 0 0 0 1 64.088869899594101 38.56324333897998 13.835197598805106 1 rotate no_reflect no_shear #
shell $-1 $-1 $-1 $28 $-1 $7 #
shell $-1 $-1 $-1 $29 $-1 $9 #
shell $-1 $-1 $-1 $30 $-1 $11 #
shell $-1 $-1 $-1 $31 $-1 $13 #
shell $-1 $-1 $-1 $32 $-1 $15 #
shell $-1 $-1 $-1 $33 $-1 $17 #
shell $-1 $-1 $-1 $34 $-1 $19 #
face $-1 $35 $36 $21 $-1 $37 forward single #
face $-1 $38 $39 $22 $-1 $40 forward single #
face $-1 $41 $42 $23 $-1 $43 forward single #
face $-1 $44 $45 $24 $-1 $46 reversed single #
face $-1 $47 $48 $25 $-1 $49 forward single #
face $-1 $50 $51 $26 $-1 $52 reversed single #
face $-1 $53 $54 $27 $-1 $55 forward single #
face $-1 $56 $57 $21 $-1 $58 reversed single #
loop $-1 $-1 $59 $28 #
plane-surface $-1 0 0 13.835197598805106 0 0 1 1 0 0 forward_v I I I I #
face $-1 $60 $61 $22 $-1 $62 reversed single #
loop $-1 $-1 $63 $29 #
plane-surface $-1 0 -33.22473260976448 6.7853623218441568 0 0 1 1 0 0 forward_v I I I I #
face $-1 $64 $65 $23 $-1 $66 reversed single #
loop $-1 $-1 $67 $30 #
plane-surface $-1 0 33.22473260976448 6.7853623218441568 0 0 1 1 0 0 forward_v I I I I #
face $-1 $68 $69 $24 $-1 $70 reversed single #
loop $-1 $-1 $71 $31 #
plane-surface $-1 -133.8994713288896 4.4024333520268577 118.15024005135493 0 -1 0 0.54463904215088732 0 -0.83867056331134215 forward_v I I I I #
face $-1 $72 $73 $25 $-1 $74 forward single #
loop $-1 $75 $76 $32 #
cone-surface $-1 -61.005847133743103 -2.2719742521702813 11.270584349194563 0.54463904215088732 0 -0.83867056331134215 0.83867056331134215 0 0.54463904215088732 1 I I 0 1 1 forward I I I I #
face $-1 $77 $78 $26 $-1 $79 reversed single #
loop $-1 $-1 $80 $33 #
plane-surface $-1 26.400574087529805 -8.946381856367406 187.96084148065046 0 1 0 0.54463904215088732 0 0.83867056331134215 forward_v I I I I #
face $-1 $81 $82 $27 $-1 $83 forward single #
loop $-1 $84 $85 $34 #
cone-surface $-1 61.005847133743096 -2.2719742521702813 11.270584349194559 -0.54463904215088732 0 -0.83867056331134215 0.83867056331134215 0 -0.54463904215088732 1 I I 0 1 1 forward I I I I #
face $-1 $86 $87 $21 $-1 $88 reversed single #
loop $-1 $-1 $89 $35 #
plane-surface $-1 0 0 -13.835197598805106 0 0 1 1 0 0 forward_v I I I I #
coedge $-1 $90 $91 $92 $93 forward $36 $-1 #
face $-1 $94 $95 $22 $-1 $96 reversed single #
loop $-1 $-1 $97 $38 #
plane-surface $-1 0 -33.22473260976448 0.46450062887158783 0 0 1 1 0 0 forward_v I I I I #
coedge $-1 $98 $99 $100 $101 reversed $39 $-1 #
face $-1 $102 $103 $23 $-1 $104 reversed single #
loop $-1 $-1 $105 $41 #
plane-surface $-1 0 33.22473260976448 0.46450062887158783 0 0 1 1 0 0 forward_v I I I I #
coedge $-1 $106 $107 $108 $109 reversed $42 $-1 #
face $-1 $110 $111 $24 $-1 $112 reversed single #
loop $-1 $-1 $113 $44 #
plane-surface $-1 -64.088869899594073 -2.2719742521702742 10.651342809995114 -0.54463904215088732 0 0.83867056331134215 0.83867056331134215 0 0.54463904215088732 forward_v I I I I #
coedge $-1 $114 $115 $116 $117 reversed $45 $-1 #
face $-1 $-1 $118 $25 $-1 $119 forward single #
loop $-1 $120 $121 $47 #
cone-surface $-1 -60.101858020734916 -2.2719742521702813 9.8785632123333187 0.54463904215088732 0 -0.83867056331134215 0.41933528165567108 0 0.27231952107544366 1 I I -0.70710678118654746 0.70710678118654746 0.5 forward I I I I #
loop $-1 $-1 $122 $32 #
coedge $-1 $76 $76 $123 $124 reversed $48 $-1 #
face $-1 $125 $126 $26 $-1 $127 reversed single #
loop $-1 $-1 $128 $50 #
plane-surface $-1 -43.410027341765726 -2.2719742521702742 80.461944239290645 0.54463904215088732 0 0.83867056331134215 0.83867056331134215 0 -0.54463904215088732 forward_v I I I I #
coedge $-1 $129 $130 $131 $132 reversed $51 $-1 #
face $-1 $-1 $133 $27 $-1 $134 forward single #
loop $-1 $135 $136 $53 #
cone-surface $-1 60.101858020734909 -2.2719742521702813 9.8785632123333151 -0.54463904215088732 0 -0.83867056331134215 0.41933528165567108 0 -0.27231952107544366 1 I I -0.70710678118654746 0.70710678118654746 0.5 forward I I I I #
loop $-1 $-1 $137 $34 #
coedge $-1 $85 $85 $138 $139 reversed $54 $-1 #
face $-1 $140 $141 $21 $-1 $142 reversed single #
loop $-1 $-1 $143 $56 #
plane-surface $-1 0 -38.56324333897998 0 0 1 0 0 0 1 forward_v I I I I #
coedge $-1 $144 $145 $146 $147 forward $57 $-1 #
coedge $-1 $148 $59 $149 $150 forward $36 $-1 #
coedge $-1 $59 $148 $151 $152 forward $36 $-1 #
coedge $-1 $153 $154 $59 $93 reversed $155 $-1 #
edge $-1 $156 -38.56324333897998 $157 38.56324333897998 $92 $158 forward 7 unknown #
face $-1 $159 $160 $22 $-1 $161 reversed single #
loop $-1 $-1 $162 $60 #
plane-surface $-1 0 -27.88622188054898 3.6249314753578723 0 -1 0 0 0 -1 forward_v I I I I #
coedge $-1 $163 $164 $165 $166 reversed $61 $-1 #
coedge $-1 $167 $63 $168 $169 forward $39 $-1 #
coedge $-1 $63 $167 $170 $171 reversed $39 $-1 #
coedge $-1 $172 $173 $63 $101 forward $174 $-1 #
edge $-1 $175 11.27385557566674 $176 21.95087703409774 $100 $177 forward 7 unknown #
face $-1 $178 $179 $23 $-1 $180 reversed single #
loop $-1 $-1 $181 $64 #
plane-surface $-1 0 27.88622188054898 3.6249314753578723 0 1 0 0 0 1 forward_v I I I I #
coedge $-1 $182 $183 $184 $185 reversed $65 $-1 #
coedge $-1 $186 $67 $187 $188 reversed $42 $-1 #
coedge $-1 $67 $186 $189 $190 forward $42 $-1 #
coedge $-1 $191 $192 $67 $109 forward $179 $-1 #
edge $-1 $193 -21.95087703409774 $194 -11.27385557566674 $108 $195 forward 7 unknown #
face $-1 $196 $197 $24 $-1 $198 reversed single #
loop $-1 $-1 $199 $68 #
plane-surface $-1 -133.8994713288896 -8.946381856367406 118.15024005135493 0 1 0 -0.54463904215088732 0 0.83867056331134215 forward_v I I I I #
coedge $-1 $200 $201 $202 $203 reversed $69 $-1 #
coedge $-1 $115 $71 $204 $205 reversed $45 $-1 #
coedge $-1 $71 $114 $200 $206 reversed $45 $-1 #
coedge $-1 $202 $207 $71 $117 forward $197 $-1 #
edge $-1 $208 45.239922426872354 $209 48.423777215682364 $116 $210 forward 7 unknown #
loop $-1 $-1 $123 $72 #
plane-surface $-1 -64.088869899594073 -2.2719742521702742 10.651342809995114 -0.54463904215088732 0 0.83867056331134215 0.83867056331134215 0 0.54463904215088732 forward_v I I I I #
loop $-1 $-1 $211 $47 #
coedge $-1 $121 $121 $122 $212 reversed $73 $-1 #
coedge $-1 $122 $122 $121 $212 forward $75 $-1 #
coedge $-1 $123 $123 $76 $124 forward $118 $-1 #
edge $-1 $213 0 $213 6.2831853071796004 $123 $214 forward 7 unknown #
face $-1 $215 $216 $26 $-1 $217 forward single #
loop $-1 $-1 $218 $77 #
plane-surface $-1 26.400574087529805 4.4024333520268577 187.96084148065046 0 -1 0 -0.54463904215088732 0 -0.83867056331134215 forward_v I I I I #
coedge $-1 $219 $220 $221 $222 reversed $78 $-1 #
coedge $-1 $130 $80 $223 $224 reversed $51 $-1 #
coedge $-1 $80 $129 $219 $225 reversed $51 $-1 #
coedge $-1 $221 $226 $80 $132 forward $227 $-1 #
edge $-1 $228 80.14522314152012 $229 83.329077930330129 $131 $230 forward 7 unknown #
loop $-1 $-1 $138 $81 #
plane-surface $-1 -43.410027341765726 -2.2719742521702742 80.461944239290645 0.54463904215088732 0 0.83867056331134215 0.83867056331134215 0 -0.54463904215088732 forward_v I I I I #
loop $-1 $-1 $231 $53 #
coedge $-1 $136 $136 $137 $232 reversed $82 $-1 #
coedge $-1 $137 $137 $136 $232 forward $84 $-1 #
coedge $-1 $138 $138 $85 $139 forward $133 $-1 #
edge $-1 $233 0 $233 6.2831853071796004 $138 $234 forward 7 unknown #
face $-1 $235 $236 $21 $-1 $237 reversed single #
loop $-1 $-1 $238 $86 #
plane-surface $-1 -64.088869899594101 0 0 1 0 0 0 0 -1 forward_v I I I I #
coedge $-1 $239 $151 $240 $241 forward $87 $-1 #
coedge $-1 $242 $89 $239 $243 forward $57 $-1 #
coedge $-1 $89 $242 $244 $245 forward $57 $-1 #
coedge $-1 $154 $153 $89 $147 reversed $155 $-1 #
edge $-1 $246 -38.56324333897998 $247 38.56324333897998 $146 $248 forward 7 unknown #
coedge $-1 $91 $90 $249 $250 forward $36 $-1 #
coedge $-1 $251 $252 $90 $150 reversed $236 $-1 #
edge $-1 $157 -64.088869899594101 $253 64.088869899594101 $149 $254 forward 7 unknown #
coedge $-1 $143 $255 $91 $152 reversed $87 $-1 #
edge $-1 $256 -64.088869899594101 $156 64.088869899594101 $151 $257 forward 7 unknown #
coedge $-1 $146 $92 $255 $258 forward $155 $-1 #
coedge $-1 $92 $146 $251 $259 reversed $155 $-1 #
loop $-1 $-1 $153 $235 #
vertex $-1 $93 $260 #
vertex $-1 $93 $261 #
straight-curve $-1 64.088869899594101 0 13.835197598805106 0 1 0 I I #
face $-1 $262 $263 $22 $-1 $264 reversed single #
loop $-1 $-1 $265 $94 #
plane-surface $-1 -64.088869899594101 0 0 1 0 0 0 0 -1 forward_v I I I I #
coedge $-1 $266 $168 $173 $267 reversed $95 $-1 #
coedge $-1 $268 $97 $269 $270 reversed $61 $-1 #
coedge $-1 $97 $268 $266 $271 forward $61 $-1 #
coedge $-1 $173 $172 $97 $166 forward $174 $-1 #
edge $-1 $272 -21.95087703409774 $273 -11.27385557566674 $165 $274 forward 7 unknown #
coedge $-1 $99 $98 $265 $275 reversed $39 $-1 #
coedge $-1 $162 $276 $98 $169 reversed $95 $-1 #
edge $-1 $175 -64.088869899594101 $277 64.088869899594101 $168 $278 forward 7 unknown #
coedge $-1 $279 $280 $99 $171 forward $263 $-1 #
edge $-1 $176 -64.088869899594101 $281 64.088869899594101 $170 $282 forward 7 unknown #
coedge $-1 $165 $100 $280 $283 forward $174 $-1 #
coedge $-1 $100 $165 $162 $267 forward $174 $-1 #
loop $-1 $-1 $100 $262 #
vertex $-1 $101 $284 #
vertex $-1 $283 $285 #
straight-curve $-1 64.088869899594101 -16.61236630488224 6.7853623218441568 0 -1 0 I I #
face $-1 $286 $287 $23 $-1 $288 reversed single #
loop $-1 $-1 $108 $102 #
plane-surface $-1 64.088869899594101 0 0 -1 0 0 0 0 1 forward_v I I I I #
coedge $-1 $289 $189 $290 $291 reversed $103 $-1 #
coedge $-1 $292 $105 $289 $293 forward $65 $-1 #
coedge $-1 $105 $292 $294 $295 reversed $65 $-1 #
coedge $-1 $192 $191 $105 $185 forward $179 $-1 #
edge $-1 $296 11.27385557566674 $297 21.95087703409774 $184 $298 forward 7 unknown #
coedge $-1 $107 $106 $299 $300 reversed $42 $-1 #
coedge $-1 $301 $302 $106 $188 forward $303 $-1 #
edge $-1 $304 -64.088869899594101 $193 64.088869899594101 $187 $305 forward 7 unknown #
coedge $-1 $181 $306 $107 $190 reversed $103 $-1 #
edge $-1 $307 -64.088869899594101 $194 64.088869899594101 $189 $308 forward 7 unknown #
coedge $-1 $184 $108 $306 $309 forward $179 $-1 #
coedge $-1 $108 $184 $301 $310 reversed $179 $-1 #
vertex $-1 $310 $311 #
vertex $-1 $109 $312 #
straight-curve $-1 64.088869899594101 16.61236630488224 6.7853623218441568 0 -1 0 I I #
face $-1 $-1 $313 $24 $-1 $314 forward single #
loop $-1 $-1 $116 $110 #
plane-surface $-1 -64.088869899594101 0 0 1 0 0 0 0 -1 forward_v I I I I #
coedge $-1 $315 $316 $317 $318 reversed $111 $-1 #
coedge $-1 $319 $113 $115 $206 forward $69 $-1 #
coedge $-1 $113 $319 $315 $320 forward $69 $-1 #
coedge $-1 $317 $116 $113 $203 forward $197 $-1 #
edge $-1 $209 -5.5384204781119948 $321 7.8103947302822689 $202 $322 forward 7 unknown #
coedge $-1 $323 $324 $114 $205 forward $313 $-1 #
edge $-1 $325 -7.7635721126873065 $208 -2.8608657648507005 $204 $326 forward 7 unknown #
edge $-1 $209 -3.3511183933559511e-014 $325 5.8458071170151849 $115 $327 forward 7 unknown #
coedge $-1 $116 $317 $323 $328 reversed $197 $-1 #
vertex $-1 $328 $329 #
vertex $-1 $117 $330 #
straight-curve $-1 -64.088869899594101 4.4024333520268577 59.075120025677464 0 0 -1 I I #
coedge $-1 $211 $211 $-1 $331 reversed $120 $-1 #
edge $-1 $332 0 $332 6.2831853071796004 $121 $333 forward 7 unknown #
vertex $-1 $124 $334 #
ellipse-curve $-1 -61.637516725675816 -2.2719742521702813 12.243270204400089 -0.54463904215088732 0 0.83867056331134215 0.83867056331134215 0 0.54463904215088732 1 I I #
face $-1 $-1 $227 $26 $-1 $335 reversed single #
loop $-1 $-1 $336 $125 #
plane-surface $-1 0 0 13.835197598805106 0 0 1 1 0 0 forward_v I I I I #
coedge $-1 $337 $338 $339 $340 reversed $126 $-1 #
coedge $-1 $341 $128 $130 $225 forward $78 $-1 #
coedge $-1 $128 $341 $337 $342 forward $78 $-1 #
coedge $-1 $339 $131 $128 $222 forward $227 $-1 #
edge $-1 $229 -7.8103947302822689 $343 5.5384204781119948 $221 $344 forward 7 unknown #
coedge $-1 $345 $346 $129 $224 forward $216 $-1 #
edge $-1 $347 45.985876507992586 $228 50.888582855829199 $223 $348 forward 7 unknown #
edge $-1 $229 -128.17773979918823 $347 -122.331932682173 $130 $349 forward 7 unknown #
coedge $-1 $131 $339 $345 $350 reversed $227 $-1 #
loop $-1 $-1 $339 $215 #
vertex $-1 $350 $351 #
vertex $-1 $132 $352 #
straight-curve $-1 64.088869899594101 -8.946381856367406 93.980420740325229 0 0 -1 I I #
coedge $-1 $231 $231 $-1 $353 reversed $135 $-1 #
edge $-1 $354 0 $354 6.2831853071796004 $136 $355 forward 7 unknown #
vertex $-1 $139 $356 #
ellipse-curve $-1 61.637516725675816 -2.2719742521702813 12.243270204400096 0.54463904215088732 0 0.83867056331134215 0.83867056331134215 0 -0.54463904215088732 1 I I #
face $-1 $-1 $155 $21 $-1 $357 reversed single #
loop $-1 $-1 $251 $140 #
plane-surface $-1 0 38.56324333897998 0 0 -1 0 0 0 -1 forward_v I I I I #
coedge $-1 $358 $249 $252 $359 forward $141 $-1 #
coedge $-1 $255 $143 $144 $243 reversed $87 $-1 #
coedge $-1 $249 $358 $143 $241 reversed $141 $-1 #
edge $-1 $256 -13.835197598805106 $360 13.835197598805106 $240 $361 forward 7 unknown #
coedge $-1 $145 $144 $358 $362 forward $57 $-1 #
edge $-1 $247 -64.088869899594101 $360 64.088869899594101 $239 $363 forward 7 unknown #
coedge $-1 $252 $251 $145 $245 reversed $236 $-1 #
edge $-1 $364 -64.088869899594101 $246 64.088869899594101 $244 $365 forward 7 unknown #
vertex $-1 $147 $366 #
vertex $-1 $258 $367 #
straight-curve $-1 64.088869899594101 0 -13.835197598805106 0 -1 0 I I #
coedge $-1 $238 $240 $148 $250 reversed $141 $-1 #
edge $-1 $253 -38.56324333897998 $256 38.56324333897998 $249 $368 forward 7 unknown #
coedge $-1 $244 $149 $154 $259 forward $236 $-1 #
coedge $-1 $149 $244 $238 $359 reversed $236 $-1 #
vertex $-1 $150 $369 #
straight-curve $-1 0 38.56324333897998 13.835197598805106 -1 0 0 I I #
coedge $-1 $151 $239 $153 $258 reversed $87 $-1 #
vertex $-1 $250 $370 #
straight-curve $-1 0 -38.56324333897998 13.835197598805106 1 0 0 I I #
edge $-1 $156 -13.835197598805106 $247 13.835197598805106 $153 $371 forward 7 unknown #
edge $-1 $157 -13.835197598805106 $246 13.835197598805106 $154 $372 forward 7 unknown #
point $-1 64.088869899594101 -38.56324333897998 13.835197598805106 #
point $-1 64.088869899594101 38.56324333897998 13.835197598805106 #
face $-1 $-1 $174 $22 $-1 $373 reversed single #
loop $-1 $-1 $170 $159 #
plane-surface $-1 0 -38.56324333897998 0 0 1 0 0 0 1 forward_v I I I I #
coedge $-1 $374 $375 $167 $275 forward $160 $-1 #
coedge $-1 $276 $162 $164 $271 reversed $95 $-1 #
edge $-1 $273 -1.3479651088073483 $175 4.9728965841652206 $173 $376 forward 7 unknown #
coedge $-1 $164 $163 $377 $378 reversed $61 $-1 #
coedge $-1 $280 $279 $163 $270 forward $263 $-1 #
edge $-1 $379 -64.088869899594101 $272 64.088869899594101 $269 $380 forward 7 unknown #
edge $-1 $381 -64.088869899594101 $273 64.088869899594101 $266 $382 forward 7 unknown #
vertex $-1 $270 $383 #
vertex $-1 $166 $384 #
straight-curve $-1 64.088869899594101 -16.61236630488224 0.46450062887158783 0 1 0 I I #
edge $-1 $281 -21.95087703409774 $277 -11.27385557566674 $265 $385 forward 7 unknown #
coedge $-1 $168 $266 $374 $386 reversed $95 $-1 #
vertex $-1 $275 $387 #
straight-curve $-1 0 -27.88622188054898 6.7853623218441568 -1 0 0 I I #
coedge $-1 $269 $170 $375 $388 forward $263 $-1 #
coedge $-1 $170 $269 $172 $283 reversed $263 $-1 #
vertex $-1 $388 $389 #
straight-curve $-1 0 -38.56324333897998 6.7853623218441568 -1 0 0 I I #
edge $-1 $176 -6.7853623218441568 $272 -0.46450062887158783 $172 $390 forward 7 unknown #
point $-1 64.088869899594101 -27.88622188054898 6.7853623218441568 #
point $-1 64.088869899594101 -38.56324333897998 6.7853623218441568 #
face $-1 $-1 $303 $23 $-1 $391 reversed single #
loop $-1 $-1 $299 $178 #
plane-surface $-1 -64.088869899594101 0 0 1 0 0 0 0 -1 forward_v I I I I #
coedge $-1 $306 $181 $182 $293 reversed $103 $-1 #
coedge $-1 $299 $392 $181 $291 forward $287 $-1 #
edge $-1 $393 -1.3479651088073483 $307 4.9728965841652206 $290 $394 forward 7 unknown #
coedge $-1 $183 $182 $392 $395 reversed $65 $-1 #
edge $-1 $296 -64.088869899594101 $393 64.088869899594101 $289 $396 forward 7 unknown #
coedge $-1 $302 $301 $183 $295 forward $303 $-1 #
edge $-1 $297 -64.088869899594101 $397 64.088869899594101 $294 $398 forward 7 unknown #
vertex $-1 $185 $399 #
vertex $-1 $295 $400 #
straight-curve $-1 64.088869899594101 16.61236630488224 0.46450062887158783 0 1 0 I I #
coedge $-1 $401 $290 $186 $300 forward $287 $-1 #
edge $-1 $307 11.27385557566674 $304 21.95087703409774 $299 $402 forward 7 unknown #
coedge $-1 $294 $187 $192 $310 forward $303 $-1 #
coedge $-1 $187 $294 $401 $403 reversed $303 $-1 #
loop $-1 $-1 $187 $286 #
vertex $-1 $403 $404 #
straight-curve $-1 0 38.56324333897998 6.7853623218441568 1 0 0 I I #
coedge $-1 $189 $289 $191 $309 reversed $103 $-1 #
vertex $-1 $300 $405 #
straight-curve $-1 0 27.88622188054898 6.7853623218441568 1 0 0 I I #
edge $-1 $194 -4.9728965841652206 $296 1.3479651088073483 $191 $406 forward 7 unknown #
edge $-1 $193 -6.7853623218441568 $297 -0.46450062887158783 $192 $407 forward 7 unknown #
point $-1 64.088869899594101 38.56324333897998 6.7853623218441568 #
point $-1 64.088869899594101 27.88622188054898 6.7853623218441568 #
loop $-1 $-1 $204 $196 #
plane-surface $-1 0 0 13.835197598805106 0 0 1 1 0 0 forward_v I I I I #
coedge $-1 $316 $199 $201 $320 reversed $111 $-1 #
coedge $-1 $199 $315 $408 $409 reversed $111 $-1 #
coedge $-1 $207 $202 $199 $318 forward $197 $-1 #
edge $-1 $321 -48.423777215682364 $410 -45.239922426872354 $317 $411 forward 7 unknown #
coedge $-1 $201 $200 $324 $412 reversed $69 $-1 #
edge $-1 $413 -5.8458071170151849 $321 3.3511183933559511e-014 $315 $414 forward 7 unknown #
vertex $-1 $203 $415 #
straight-curve $-1 -64.088869899594101 -1.1359871260851371 10.651342809995096 0 -1 0 I I #
coedge $-1 $408 $204 $207 $328 forward $313 $-1 #
coedge $-1 $204 $408 $319 $412 forward $313 $-1 #
vertex $-1 $205 $416 #
straight-curve $-1 -66.949735664444802 4.4024333520268577 13.835197598805109 -1 0 0 I I #
straight-curve $-1 -64.088869899594073 4.4024333520268577 10.651342809995114 0.83867056331134215 0 0.54463904215088732 I I #
edge $-1 $208 -4.4024333520268577 $410 8.946381856367406 $207 $417 forward 7 unknown #
point $-1 -64.088869899594101 4.4024333520268577 13.835197598805106 #
point $-1 -64.088869899594101 4.4024333520268577 10.651342809995096 #
edge $-1 $418 1 $418 0 $211 $-1 forward 7 unknown #
vertex $-1 $212 $419 #
ellipse-curve $-1 -60.374177541810361 -2.2719742521702813 10.29789849398899 -0.54463904215088732 0 0.83867056331134215 0.83867056331134215 0 0.54463904215088732 1 I I #
point $-1 -60.798846162364505 -2.2719742521702813 12.78790924655102 #
plane-surface $-1 64.088869899594101 0 0 -1 0 0 0 0 1 forward_v I I I I #
coedge $-1 $346 $345 $338 $420 forward $216 $-1 #
coedge $-1 $338 $218 $220 $342 reversed $126 $-1 #
coedge $-1 $218 $337 $336 $420 reversed $126 $-1 #
coedge $-1 $226 $221 $218 $340 forward $227 $-1 #
edge $-1 $343 -83.329077930330129 $421 -80.14522314152012 $339 $422 forward 7 unknown #
coedge $-1 $220 $219 $346 $423 reversed $78 $-1 #
edge $-1 $424 122.331932682173 $343 128.17773979918823 $337 $425 forward 7 unknown #
vertex $-1 $222 $426 #
straight-curve $-1 64.088869899594101 -1.1359871260851371 10.651342809995107 0 1 0 I I #
coedge $-1 $336 $223 $226 $350 forward $216 $-1 #
coedge $-1 $223 $336 $341 $423 forward $216 $-1 #
vertex $-1 $224 $427 #
straight-curve $-1 13.200287043764902 -8.946381856367406 13.835197598805109 1 0 0 I I #
straight-curve $-1 -43.410027341765726 -8.946381856367406 80.461944239290645 -0.83867056331134215 0 0.54463904215088732 I I #
edge $-1 $228 -8.946381856367406 $421 4.4024333520268577 $226 $428 forward 7 unknown #
point $-1 64.088869899594101 -8.946381856367406 13.835197598805106 #
point $-1 64.088869899594101 -8.946381856367406 10.6513428099951 #
edge $-1 $429 1 $429 0 $231 $-1 forward 7 unknown #
vertex $-1 $232 $430 #
ellipse-curve $-1 60.374177541810354 -2.2719742521702813 10.297898493988987 0.54463904215088732 0 0.83867056331134215 0.83867056331134215 0 -0.54463904215088732 1 I I #
point $-1 62.476187288987184 -2.2719742521702813 11.698631162249242 #
plane-surface $-1 64.088869899594101 0 0 -1 0 0 0 0 1 forward_v I I I I #
coedge $-1 $240 $238 $242 $362 reversed $141 $-1 #
edge $-1 $253 -13.835197598805106 $364 13.835197598805106 $252 $431 forward 7 unknown #
vertex $-1 $362 $432 #
straight-curve $-1 -64.088869899594101 -38.56324333897998 0 0 0 -1 I I #
edge $-1 $360 -38.56324333897998 $364 38.56324333897998 $358 $433 forward 7 unknown #
straight-curve $-1 0 -38.56324333897998 -13.835197598805106 -1 0 0 I I #
vertex $-1 $245 $434 #
straight-curve $-1 0 38.56324333897998 -13.835197598805106 1 0 0 I I #
point $-1 64.088869899594101 38.56324333897998 -13.835197598805106 #
point $-1 64.088869899594101 -38.56324333897998 -13.835197598805106 #
straight-curve $-1 -64.088869899594101 0 13.835197598805106 0 -1 0 I I #
point $-1 -64.088869899594101 38.56324333897998 13.835197598805106 #
point $-1 -64.088869899594101 -38.56324333897998 13.835197598805106 #
straight-curve $-1 64.088869899594101 -38.56324333897998 0 0 0 -1 I I #
straight-curve $-1 64.088869899594101 38.56324333897998 0 0 0 -1 I I #
plane-surface $-1 64.088869899594101 0 0 -1 0 0 0 0 1 forward_v I I I I #
coedge $-1 $377 $265 $276 $386 forward $160 $-1 #
coedge $-1 $265 $377 $279 $388 reversed $160 $-1 #
straight-curve $-1 64.088869899594101 -27.88622188054898 1.8124657376789362 0 0 1 I I #
coedge $-1 $375 $374 $268 $378 forward $160 $-1 #
edge $-1 $381 11.27385557566674 $379 21.95087703409774 $377 $435 forward 7 unknown #
vertex $-1 $270 $436 #
straight-curve $-1 0 -38.56324333897998 0.46450062887158783 1 0 0 I I #
vertex $-1 $378 $437 #
straight-curve $-1 0 -27.88622188054898 0.46450062887158783 1 0 0 I I #
point $-1 64.088869899594101 -38.56324333897998 0.46450062887158783 #
point $-1 64.088869899594101 -27.88622188054898 0.46450062887158783 #
straight-curve $-1 -64.088869899594101 -16.61236630488224 6.7853623218441568 0 1 0 I I #
edge $-1 $277 -4.9728965841652206 $381 1.3479651088073483 $374 $438 forward 7 unknown #
point $-1 -64.088869899594101 -27.88622188054898 6.7853623218441568 #
edge $-1 $281 -6.7853623218441568 $379 -0.46450062887158783 $375 $439 forward 7 unknown #
point $-1 -64.088869899594101 -38.56324333897998 6.7853623218441568 #
straight-curve $-1 64.088869899594101 -38.56324333897998 0 0 0 -1 I I #
plane-surface $-1 0 38.56324333897998 0 0 -1 0 0 0 -1 forward_v I I I I #
coedge $-1 $290 $401 $292 $395 forward $287 $-1 #
vertex $-1 $395 $440 #
straight-curve $-1 -64.088869899594101 27.88622188054898 1.8124657376789362 0 0 1 I I #
edge $-1 $397 -21.95087703409774 $393 -11.27385557566674 $392 $441 forward 7 unknown #
straight-curve $-1 0 27.88622188054898 0.46450062887158783 -1 0 0 I I #
vertex $-1 $295 $442 #
straight-curve $-1 0 38.56324333897998 0.46450062887158783 -1 0 0 I I #
point $-1 64.088869899594101 27.88622188054898 0.46450062887158783 #
point $-1 64.088869899594101 38.56324333897998 0.46450062887158783 #
coedge $-1 $392 $299 $302 $403 forward $287 $-1 #
straight-curve $-1 -64.088869899594101 16.61236630488224 6.7853623218441568 0 1 0 I I #
edge $-1 $304 -6.7853623218441568 $397 -0.46450062887158783 $302 $443 forward 7 unknown #
point $-1 -64.088869899594101 38.56324333897998 6.7853623218441568 #
point $-1 -64.088869899594101 27.88622188054898 6.7853623218441568 #
straight-curve $-1 64.088869899594101 27.88622188054898 1.8124657376789362 0 0 -1 I I #
straight-curve $-1 64.088869899594101 38.56324333897998 0 0 0 -1 I I #
coedge $-1 $324 $323 $316 $409 forward $313 $-1 #
edge $-1 $410 2.8608657648507005 $413 7.7635721126873065 $408 $444 forward 7 unknown #
vertex $-1 $409 $445 #
straight-curve $-1 -64.088869899594101 -8.946381856367406 59.075120025677464 0 0 1 I I #
edge $-1 $413 -7.8103947302822689 $325 5.5384204781119948 $324 $446 forward 7 unknown #
vertex $-1 $412 $447 #
straight-curve $-1 -64.088869899594073 -8.946381856367406 10.651342809995114 -0.83867056331134215 0 -0.54463904215088732 I I #
point $-1 -64.088869899594101 -8.946381856367406 10.651342809995096 #
point $-1 -59.186163551757495 4.4024333520268577 13.835197598805106 #
straight-curve $-1 -64.088869899594101 0 13.835197598805106 0 -1 0 I I #
vertex $-1 $331 $448 #
point $-1 -59.535506978499015 -2.2719742521702813 10.842537536139877 #
edge $-1 $421 -50.888582855829199 $424 -45.985876507992586 $336 $449 forward 7 unknown #
vertex $-1 $340 $450 #
straight-curve $-1 64.088869899594101 4.4024333520268577 93.980420740325229 0 0 1 I I #
edge $-1 $424 -5.5384204781119948 $347 7.8103947302822689 $346 $451 forward 7 unknown #
vertex $-1 $423 $452 #
straight-curve $-1 -43.410027341765726 4.4024333520268577 80.461944239290645 0.83867056331134215 0 -0.54463904215088732 I I #
point $-1 64.088869899594101 4.4024333520268577 10.6513428099951 #
point $-1 59.186163551757488 -8.946381856367406 13.835197598805109 #
straight-curve $-1 64.088869899594101 0 13.835197598805106 0 1 0 I I #
vertex $-1 $353 $453 #
point $-1 61.212848105121694 -2.2719742521702813 9.7532594518380993 #
straight-curve $-1 -64.088869899594101 38.56324333897998 0 0 0 -1 I I #
point $-1 -64.088869899594101 -38.56324333897998 -13.835197598805106 #
straight-curve $-1 -64.088869899594101 0 -13.835197598805106 0 1 0 I I #
point $-1 -64.088869899594101 38.56324333897998 -13.835197598805106 #
straight-curve $-1 -64.088869899594101 -16.61236630488224 0.46450062887158783 0 -1 0 I I #
point $-1 -64.088869899594101 -38.56324333897998 0.46450062887158783 #
point $-1 -64.088869899594101 -27.88622188054898 0.46450062887158783 #
straight-curve $-1 -64.088869899594101 -27.88622188054898 1.8124657376789362 0 0 -1 I I #
straight-curve $-1 -64.088869899594101 -38.56324333897998 0 0 0 -1 I I #
point $-1 -64.088869899594101 27.88622188054898 0.46450062887158783 #
straight-curve $-1 -64.088869899594101 16.61236630488224 0.46450062887158783 0 -1 0 I I #
point $-1 -64.088869899594101 38.56324333897998 0.46450062887158783 #
straight-curve $-1 -64.088869899594101 38.56324333897998 0 0 0 -1 I I #
straight-curve $-1 -66.949735664444802 -8.946381856367406 13.835197598805109 1 0 0 I I #
point $-1 -64.088869899594101 -8.946381856367406 13.835197598805106 #
straight-curve $-1 -59.186163551757502 -1.1359871260851371 13.835197598805104 0 1 0 I I #
point $-1 -59.186163551757495 -8.946381856367406 13.835197598805106 #
point $-1 -59.829538499659471 -2.2719742521702813 9.4592279306776472 #
straight-curve $-1 13.200287043764902 4.4024333520268577 13.835197598805109 -1 0 0 I I #
point $-1 64.088869899594101 4.4024333520268577 13.835197598805106 #
straight-curve $-1 59.186163551757517 -1.1359871260851371 13.835197598805109 0 -1 0 I I #
point $-1 59.186163551757488 4.4024333520268577 13.835197598805109 #
point $-1 59.829538499659463 -2.2719742521702813 9.4592279306776437 #
End-of-ACIS-data 