500 0 5 0           
7 Unknown 11 ACIS 5.0 NT 24 Fri Mar 26 15:06:20 1999 
-1 9.9999999999999995e-007 1e-010 
body $-1 $5 $-1 $6 #
body $-1 $7 $-1 $8 #
body $-1 $9 $-1 $10 #
body $-1 $11 $-1 $12 #
body $-1 $13 $-1 $14 #
lump $-1 $-1 $15 $0 #
transform $-1 1 0 0 0 1 0 0 0 1 51.999877925962096 25.599390570131145 6.1441037385094575 1 rotate no_reflect no_shear #
lump $-1 $-1 $16 $1 #
transform $-1 1 0 0 0 1 0 0 0 1 51.999877925962096 25.599390570131145 6.1441037385094575 1 rotate no_reflect no_shear #
lump $-1 $-1 $17 $2 #
transform $-1 1 0 0 0 1 0 0 0 1 51.999877925962096 25.599390570131145 6.1441037385094575 1 rotate no_reflect no_shear #
lump $-1 $-1 $18 $3 #
transform $-1 1 0 0 0 1 0 0 0 1 51.999877925962096 25.599390570131145 6.1441037385094575 1 rotate no_reflect no_shear #
lump $-1 $-1 $19 $4 #
transform $-1 1 0 0 0 1 0 0 0 1 51.999877925962096 25.599390570131145 6.1441037385094575 1 rotate no_reflect no_shear #
shell $-1 $-1 $-1 $20 $-1 $5 #
shell $-1 $-1 $-1 $21 $-1 $7 #
shell $-1 $-1 $-1 $22 $-1 $9 #
shell $-1 $-1 $-1 $23 $-1 $11 #
shell $-1 $-1 $-1 $24 $-1 $13 #
face $-1 $25 $26 $15 $-1 $27 forward single #
face $-1 $28 $29 $16 $-1 $30 forward single #
face $-1 $31 $32 $17 $-1 $33 forward single #
face $-1 $34 $35 $18 $-1 $36 reversed single #
face $-1 $37 $38 $19 $-1 $39 reversed single #
face $-1 $40 $41 $15 $-1 $42 reversed single #
loop $-1 $-1 $43 $20 #
plane-surface $-1 0 0 6.1441037385094575 0 0 1 1 0 0 forward_v I I I I #
face $-1 $44 $45 $16 $-1 $46 reversed single #
loop $-1 $-1 $47 $21 #
plane-surface $-1 -54.11164802661186 0 -3.1166227319715993 0 0 1 1 0 0 forward_v I I I I #
face $-1 $48 $49 $17 $-1 $50 forward single #
loop $-1 $-1 $51 $22 #
plane-surface $-1 27.34033635546804 57.140702197299035 112.56889412152306 1 0 0 0 -0.66913061440640931 -0.74314481823134659 forward_v I I I I #
face $-1 $52 $53 $18 $-1 $54 reversed single #
loop $-1 $55 $56 $23 #
cone-surface $-1 32.918206524504399 21.159311696408217 1.8106433989916222 0 -0.66913061440640931 -0.74314481823134659 1.5 0 0 1 I I 0 1 1.5 forward I I I I #
face $-1 $57 $58 $19 $-1 $59 reversed single #
loop $-1 $60 $61 $24 #
cone-surface $-1 41.28501177805893 21.159311696408217 1.8106433989916222 0 -0.66913061440640931 -0.74314481823134659 1.5 0 0 1 I I 0 1 1.5 forward I I I I #
face $-1 $62 $63 $15 $-1 $64 reversed single #
loop $-1 $-1 $65 $25 #
plane-surface $-1 0 0 -6.1441037385094575 0 0 1 1 0 0 forward_v I I I I #
coedge $-1 $66 $67 $68 $69 forward $26 $-1 #
face $-1 $70 $71 $16 $-1 $72 forward single #
loop $-1 $-1 $73 $28 #
plane-surface $-1 -56.223418127261624 0 -4.6303632352405284 1 0 0 0 0 -1 forward_v I I I I #
coedge $-1 $74 $75 $76 $77 reversed $29 $-1 #
face $-1 $78 $79 $17 $-1 $80 forward single #
loop $-1 $-1 $81 $31 #
plane-surface $-1 37.101609151281664 -12.448718334015567 35.282014462840436 0 0.66913061440640931 0.74314481823134659 1 0 0 forward_v I I I I #
coedge $-1 $82 $83 $84 $85 reversed $32 $-1 #
face $-1 $86 $87 $18 $-1 $88 forward single #
loop $-1 $89 $90 $34 #
cone-surface $-1 32.918206524504399 19.060975513113338 -0.51979497574371791 0 -0.66913061440640931 -0.74314481823134659 0.75 0 0 1 I I -0.70710678118654757 0.70710678118654757 0.75 forward I I I I #
loop $-1 $-1 $91 $23 #
coedge $-1 $56 $56 $92 $93 reversed $35 $-1 #
face $-1 $94 $95 $19 $-1 $96 reversed single #
loop $-1 $97 $98 $37 #
cone-surface $-1 41.28501177805893 19.060975513113338 -0.51979497574371791 0 -0.66913061440640931 -0.74314481823134659 0.75 0 0 1 I I -0.70710678118654757 0.70710678118654757 0.75 forward I I I I #
loop $-1 $-1 $99 $24 #
coedge $-1 $61 $61 $100 $101 reversed $38 $-1 #
face $-1 $102 $103 $15 $-1 $104 reversed single #
loop $-1 $-1 $105 $40 #
plane-surface $-1 0 -25.599390570131145 0 0 1 0 0 0 1 forward_v I I I I #
coedge $-1 $106 $107 $108 $109 forward $41 $-1 #
coedge $-1 $110 $43 $111 $112 forward $26 $-1 #
coedge $-1 $43 $110 $113 $114 forward $26 $-1 #
coedge $-1 $115 $116 $43 $69 reversed $117 $-1 #
edge $-1 $118 -25.599390570131145 $119 25.599390570131145 $68 $120 forward 7 unknown #
face $-1 $121 $122 $16 $-1 $123 reversed single #
loop $-1 $-1 $124 $44 #
plane-surface $-1 0 0 6.1441037385094575 0 0 1 1 0 0 forward_v I I I I #
coedge $-1 $125 $126 $127 $128 forward $45 $-1 #
coedge $-1 $129 $47 $130 $131 forward $29 $-1 #
coedge $-1 $47 $129 $132 $133 forward $29 $-1 #
coedge $-1 $134 $135 $47 $77 forward $136 $-1 #
edge $-1 $137 -25.599390570131145 $138 25.599390570131145 $76 $139 forward 7 unknown #
face $-1 $140 $141 $17 $-1 $142 forward single #
loop $-1 $-1 $143 $48 #
plane-surface $-1 46.862881947095289 57.140702197299035 112.56889412152306 -1 0 0 0 0.66913061440640931 0.74314481823134659 forward_v I I I I #
coedge $-1 $144 $145 $146 $147 reversed $49 $-1 #
coedge $-1 $83 $51 $145 $148 forward $32 $-1 #
coedge $-1 $51 $82 $149 $150 reversed $32 $-1 #
coedge $-1 $151 $146 $51 $85 forward $141 $-1 #
edge $-1 $152 -8.6581418309840643 $153 -2.970960528518372 $84 $154 forward 7 unknown #
face $-1 $155 $156 $18 $-1 $157 forward single #
loop $-1 $-1 $158 $52 #
plane-surface $-1 27.34033635546804 57.140702197299035 112.56889412152306 1 0 0 0 -0.66913061440640931 -0.74314481823134659 forward_v I I I I #
loop $-1 $-1 $159 $34 #
coedge $-1 $90 $90 $91 $160 forward $53 $-1 #
coedge $-1 $91 $91 $90 $160 reversed $55 $-1 #
coedge $-1 $92 $92 $56 $93 forward $156 $-1 #
edge $-1 $161 -2.2090406488138358e-016 $161 6.2831853071796004 $92 $162 forward 7 unknown #
face $-1 $163 $164 $19 $-1 $165 reversed single #
loop $-1 $166 $167 $57 #
cone-surface $-1 32.918206524504399 21.159311696408217 1.8106433989916222 0 -0.66913061440640931 -0.74314481823134659 1.5 0 0 1 I I 0 1 1.5 forward I I I I #
loop $-1 $-1 $168 $37 #
coedge $-1 $98 $98 $99 $169 forward $58 $-1 #
coedge $-1 $99 $99 $98 $169 reversed $60 $-1 #
coedge $-1 $100 $100 $61 $101 forward $170 $-1 #
edge $-1 $171 -2.2090406488138358e-016 $171 6.2831853071796004 $100 $172 forward 7 unknown #
face $-1 $173 $174 $15 $-1 $175 reversed single #
loop $-1 $-1 $176 $62 #
plane-surface $-1 -51.999877925962096 0 0 1 0 0 0 0 -1 forward_v I I I I #
coedge $-1 $177 $113 $178 $179 forward $63 $-1 #
coedge $-1 $180 $65 $177 $181 forward $41 $-1 #
coedge $-1 $65 $180 $182 $183 forward $41 $-1 #
coedge $-1 $116 $115 $65 $109 reversed $117 $-1 #
edge $-1 $184 -25.599390570131145 $185 25.599390570131145 $108 $186 forward 7 unknown #
coedge $-1 $67 $66 $187 $188 forward $26 $-1 #
coedge $-1 $189 $190 $66 $112 reversed $174 $-1 #
edge $-1 $119 -51.999877925962096 $191 51.999877925962096 $111 $192 forward 7 unknown #
coedge $-1 $105 $193 $67 $114 reversed $63 $-1 #
edge $-1 $194 -51.999877925962096 $118 51.999877925962096 $113 $195 forward 7 unknown #
coedge $-1 $108 $68 $193 $196 forward $117 $-1 #
coedge $-1 $68 $108 $189 $197 reversed $117 $-1 #
loop $-1 $-1 $115 $173 #
vertex $-1 $69 $198 #
vertex $-1 $69 $199 #
straight-curve $-1 51.999877925962096 0 6.1441037385094575 0 1 0 I I #
face $-1 $200 $201 $16 $-1 $202 reversed single #
loop $-1 $-1 $203 $70 #
plane-surface $-1 0 0 -6.1441037385094575 0 0 1 1 0 0 forward_v I I I I #
coedge $-1 $204 $205 $206 $207 forward $71 $-1 #
coedge $-1 $208 $73 $209 $210 reversed $45 $-1 #
coedge $-1 $73 $208 $129 $211 reversed $45 $-1 #
coedge $-1 $130 $212 $73 $128 reversed $213 $-1 #
edge $-1 $214 -1.5137405032689291 $215 1.5137405032689291 $127 $216 forward 7 unknown #
coedge $-1 $75 $74 $126 $211 forward $29 $-1 #
coedge $-1 $217 $127 $74 $131 reversed $213 $-1 #
edge $-1 $137 -2.111770100649764 $214 2.111770100649764 $130 $218 forward 7 unknown #
coedge $-1 $219 $220 $75 $133 reversed $201 $-1 #
edge $-1 $221 -2.111770100649764 $138 2.111770100649764 $132 $222 forward 7 unknown #
coedge $-1 $223 $76 $220 $224 reversed $136 $-1 #
coedge $-1 $76 $223 $217 $225 forward $136 $-1 #
loop $-1 $-1 $76 $200 #
vertex $-1 $225 $226 #
vertex $-1 $133 $227 #
straight-curve $-1 -51.999877925962096 0 -3.1166227319715993 0 -1 0 I I #
face $-1 $228 $229 $17 $-1 $230 forward single #
loop $-1 $-1 $231 $78 #
plane-surface $-1 0 0 6.1441037385094575 0 0 1 1 0 0 forward_v I I I I #
coedge $-1 $232 $233 $231 $234 reversed $79 $-1 #
coedge $-1 $235 $81 $233 $236 reversed $49 $-1 #
coedge $-1 $81 $235 $82 $148 reversed $49 $-1 #
coedge $-1 $84 $231 $81 $147 forward $141 $-1 #
edge $-1 $237 -28.312077371454457 $152 -8.7895317798272075 $146 $238 forward 7 unknown #
edge $-1 $152 43.545923765839696 $239 51.198781140262291 $82 $240 forward 7 unknown #
coedge $-1 $241 $242 $83 $150 forward $243 $-1 #
edge $-1 $153 50.140343322252072 $239 55.261104479164082 $149 $244 forward 7 unknown #
coedge $-1 $245 $84 $242 $246 forward $141 $-1 #
vertex $-1 $147 $247 #
vertex $-1 $246 $248 #
straight-curve $-1 27.34033635546804 28.570351098649517 6.1441037385094575 0 1 0 I I #
face $-1 $249 $250 $18 $-1 $251 forward single #
loop $-1 $252 $92 $86 #
plane-surface $-1 37.101609151281664 -12.448718334015567 35.282014462840436 0 0.66913061440640931 0.74314481823134659 1 0 0 forward_v I I I I #
coedge $-1 $253 $254 $255 $256 reversed $87 $-1 #
coedge $-1 $159 $159 $-1 $257 forward $89 $-1 #
edge $-1 $258 0 $258 6.2831853071796004 $90 $259 forward 7 unknown #
vertex $-1 $93 $260 #
ellipse-curve $-1 32.918206524504399 22.755799918898298 3.5837231600534576 0 -0.66913061440640931 -0.74314481823134659 1.5 0 0 1 I I #
face $-1 $261 $262 $19 $-1 $263 forward single #
loop $-1 $264 $265 $94 #
cone-surface $-1 32.918206524504399 19.060975513113338 -0.51979497574371791 0 -0.66913061440640931 -0.74314481823134659 0.75 0 0 1 I I -0.70710678118654757 0.70710678118654757 0.75 forward I I I I #
loop $-1 $-1 $266 $57 #
coedge $-1 $167 $167 $267 $268 reversed $95 $-1 #
coedge $-1 $168 $168 $-1 $269 forward $97 $-1 #
edge $-1 $270 0 $270 6.2831853071796004 $98 $271 forward 7 unknown #
loop $-1 $272 $100 $261 #
vertex $-1 $101 $273 #
ellipse-curve $-1 41.28501177805893 22.755799918898298 3.5837231600534576 0 -0.66913061440640931 -0.74314481823134659 1.5 0 0 1 I I #
face $-1 $-1 $117 $15 $-1 $274 reversed single #
loop $-1 $-1 $189 $102 #
plane-surface $-1 0 25.599390570131145 0 0 -1 0 0 0 -1 forward_v I I I I #
coedge $-1 $275 $187 $190 $276 forward $103 $-1 #
coedge $-1 $193 $105 $106 $181 reversed $63 $-1 #
coedge $-1 $187 $275 $105 $179 reversed $103 $-1 #
edge $-1 $194 -6.1441037385094575 $277 6.1441037385094575 $178 $278 forward 7 unknown #
coedge $-1 $107 $106 $275 $279 forward $41 $-1 #
edge $-1 $185 -51.999877925962096 $277 51.999877925962096 $177 $280 forward 7 unknown #
coedge $-1 $190 $189 $107 $183 reversed $174 $-1 #
edge $-1 $281 -51.999877925962096 $184 51.999877925962096 $182 $282 forward 7 unknown #
vertex $-1 $109 $283 #
vertex $-1 $196 $284 #
straight-curve $-1 51.999877925962096 0 -6.1441037385094575 0 -1 0 I I #
coedge $-1 $176 $178 $110 $188 reversed $103 $-1 #
edge $-1 $191 -25.599390570131145 $194 25.599390570131145 $187 $285 forward 7 unknown #
coedge $-1 $182 $111 $116 $197 forward $174 $-1 #
coedge $-1 $111 $182 $176 $276 reversed $174 $-1 #
vertex $-1 $112 $286 #
straight-curve $-1 0 25.599390570131145 6.1441037385094575 -1 0 0 I I #
coedge $-1 $113 $177 $115 $196 reversed $63 $-1 #
vertex $-1 $188 $287 #
straight-curve $-1 0 -25.599390570131145 6.1441037385094575 1 0 0 I I #
edge $-1 $118 -6.1441037385094575 $185 6.1441037385094575 $115 $288 forward 7 unknown #
edge $-1 $119 -6.1441037385094575 $184 6.1441037385094575 $116 $289 forward 7 unknown #
point $-1 51.999877925962096 -25.599390570131145 6.1441037385094575 #
point $-1 51.999877925962096 25.599390570131145 6.1441037385094575 #
face $-1 $290 $136 $16 $-1 $291 reversed single #
loop $-1 $-1 $220 $121 #
plane-surface $-1 0 -25.599390570131145 0 0 1 0 0 0 1 forward_v I I I I #
coedge $-1 $292 $293 $294 $295 forward $122 $-1 #
coedge $-1 $296 $124 $297 $298 forward $71 $-1 #
coedge $-1 $124 $296 $299 $300 forward $71 $-1 #
coedge $-1 $301 $302 $124 $207 reversed $303 $-1 #
edge $-1 $304 -25.599390570131145 $305 25.599390570131145 $206 $306 forward 7 unknown #
coedge $-1 $126 $125 $219 $307 reversed $45 $-1 #
coedge $-1 $293 $292 $125 $210 forward $122 $-1 #
edge $-1 $308 -25.599390570131145 $215 25.599390570131145 $125 $309 forward 7 unknown #
edge $-1 $214 -25.599390570131145 $221 25.599390570131145 $126 $310 forward 7 unknown #
coedge $-1 $127 $311 $293 $312 reversed $213 $-1 #
loop $-1 $-1 $311 $290 #
vertex $-1 $131 $313 #
vertex $-1 $312 $314 #
straight-curve $-1 -56.223418127261624 25.599390570131145 -4.6303632352405284 0 0 -1 I I #
coedge $-1 $297 $130 $135 $225 reversed $213 $-1 #
straight-curve $-1 -54.11164802661186 25.599390570131145 -3.1166227319715993 -1 0 0 I I #
coedge $-1 $315 $132 $208 $307 forward $201 $-1 #
coedge $-1 $132 $299 $134 $224 forward $201 $-1 #
vertex $-1 $211 $316 #
straight-curve $-1 -54.11164802661186 -25.599390570131145 -3.1166227319715993 1 0 0 I I #
coedge $-1 $135 $134 $296 $317 reversed $136 $-1 #
edge $-1 $318 -6.1441037385094575 $138 3.1166227319715993 $134 $319 forward 7 unknown #
edge $-1 $320 -6.1441037385094575 $137 3.1166227319715993 $217 $321 forward 7 unknown #
point $-1 -51.999877925962096 25.599390570131145 -3.1166227319715993 #
point $-1 -51.999877925962096 -25.599390570131145 -3.1166227319715993 #
face $-1 $322 $323 $17 $-1 $324 reversed single #
loop $-1 $-1 $325 $140 #
plane-surface $-1 -54.11164802661186 0 -3.1166227319715993 0 0 1 1 0 0 forward_v I I I I #
coedge $-1 $146 $326 $143 $234 forward $141 $-1 #
coedge $-1 $233 $143 $327 $328 reversed $79 $-1 #
coedge $-1 $143 $232 $144 $236 forward $79 $-1 #
edge $-1 $329 2.970960528518372 $237 8.6581418309840643 $231 $330 forward 7 unknown #
coedge $-1 $145 $144 $241 $331 reversed $49 $-1 #
edge $-1 $332 -51.198781140262291 $237 -43.545923765839696 $233 $333 forward 7 unknown #
vertex $-1 $147 $334 #
straight-curve $-1 18.550804575640832 19.912209267665453 6.1441037385094504 -1 0 0 I I #
vertex $-1 $331 $335 #
straight-curve $-1 27.34033635546804 -12.448718334015567 35.282014462840436 0 0.74314481823134659 -0.66913061440640931 I I #
coedge $-1 $327 $149 $235 $331 forward $243 $-1 #
coedge $-1 $149 $336 $151 $246 reversed $243 $-1 #
loop $-1 $-1 $327 $337 #
straight-curve $-1 27.34033635546804 25.599390570131145 56.284447060761529 0 0 -1 I I #
coedge $-1 $338 $151 $339 $340 forward $141 $-1 #
edge $-1 $153 -27.34033635546804 $341 51.999877925962096 $242 $342 forward 7 unknown #
point $-1 27.34033635546804 19.912209267665453 6.144103738509461 #
point $-1 27.34033635546804 25.599390570131145 6.1441037385094575 #
face $-1 $343 $344 $18 $-1 $345 forward single #
loop $-1 $-1 $346 $155 #
plane-surface $-1 46.862881947095289 57.140702197299035 112.56889412152306 -1 0 0 0 0.66913061440640931 0.74314481823134659 forward_v I I I I #
loop $-1 $-1 $347 $86 #
coedge $-1 $254 $158 $348 $349 forward $87 $-1 #
coedge $-1 $158 $253 $350 $351 reversed $87 $-1 #
coedge $-1 $352 $353 $158 $256 forward $344 $-1 #
edge $-1 $354 -8.6581418309840643 $355 -2.970960528518372 $255 $356 forward 7 unknown #
edge $-1 $357 1 $357 0 $159 $-1 forward 7 unknown #
vertex $-1 $160 $358 #
ellipse-curve $-1 32.918206524504399 19.562823473918144 0.037563637929792004 0 0.66913061440640931 0.74314481823134659 1.5 0 0 1 I I #
point $-1 34.418206524504399 22.755799918898294 3.5837231600534531 #
face $-1 $359 $170 $19 $-1 $360 forward single #
loop $-1 $-1 $361 $163 #
plane-surface $-1 27.34033635546804 57.140702197299035 112.56889412152306 1 0 0 0 -0.66913061440640931 -0.74314481823134659 forward_v I I I I #
loop $-1 $-1 $362 $94 #
coedge $-1 $265 $265 $266 $363 forward $164 $-1 #
coedge $-1 $266 $266 $265 $363 reversed $166 $-1 #
coedge $-1 $267 $267 $167 $268 forward $272 $-1 #
edge $-1 $364 -2.2090406488138358e-016 $364 6.2831853071796004 $267 $365 forward 7 unknown #
edge $-1 $366 1 $366 0 $168 $-1 forward 7 unknown #
vertex $-1 $169 $367 #
ellipse-curve $-1 41.28501177805893 19.562823473918144 0.037563637929792004 0 0.66913061440640931 0.74314481823134659 1.5 0 0 1 I I #
loop $-1 $368 $267 $261 #
point $-1 42.78501177805893 22.755799918898294 3.5837231600534531 #
plane-surface $-1 51.999877925962096 0 0 -1 0 0 0 0 1 forward_v I I I I #
coedge $-1 $178 $176 $180 $279 reversed $103 $-1 #
edge $-1 $191 -6.1441037385094575 $281 6.1441037385094575 $190 $369 forward 7 unknown #
vertex $-1 $279 $370 #
straight-curve $-1 -51.999877925962096 -25.599390570131145 0 0 0 -1 I I #
edge $-1 $277 -25.599390570131145 $281 25.599390570131145 $275 $371 forward 7 unknown #
straight-curve $-1 0 -25.599390570131145 -6.1441037385094575 -1 0 0 I I #
vertex $-1 $183 $372 #
straight-curve $-1 0 25.599390570131145 -6.1441037385094575 1 0 0 I I #
point $-1 51.999877925962096 25.599390570131145 -6.1441037385094575 #
point $-1 51.999877925962096 -25.599390570131145 -6.1441037385094575 #
straight-curve $-1 -51.999877925962096 0 6.1441037385094575 0 -1 0 I I #
point $-1 -51.999877925962096 25.599390570131145 6.1441037385094575 #
point $-1 -51.999877925962096 -25.599390570131145 6.1441037385094575 #
straight-curve $-1 51.999877925962096 -25.599390570131145 0 0 0 -1 I I #
straight-curve $-1 51.999877925962096 25.599390570131145 0 0 0 -1 I I #
face $-1 $373 $213 $16 $-1 $374 reversed single #
plane-surface $-1 -51.999877925962096 0 0 1 0 0 0 0 -1 forward_v I I I I #
coedge $-1 $209 $203 $315 $375 forward $122 $-1 #
coedge $-1 $203 $209 $212 $312 forward $122 $-1 #
coedge $-1 $302 $301 $203 $295 reversed $303 $-1 #
edge $-1 $376 -25.599390570131145 $377 25.599390570131145 $294 $378 forward 7 unknown #
coedge $-1 $205 $204 $223 $317 forward $71 $-1 #
coedge $-1 $311 $217 $204 $298 reversed $213 $-1 #
edge $-1 $305 -51.999877925962096 $320 51.999877925962096 $297 $379 forward 7 unknown #
coedge $-1 $220 $380 $205 $300 reversed $201 $-1 #
edge $-1 $318 -51.999877925962096 $304 51.999877925962096 $299 $381 forward 7 unknown #
coedge $-1 $294 $206 $380 $382 forward $303 $-1 #
coedge $-1 $206 $294 $311 $383 reversed $303 $-1 #
loop $-1 $-1 $301 $373 #
vertex $-1 $207 $384 #
vertex $-1 $207 $385 #
straight-curve $-1 51.999877925962096 0 6.1441037385094575 0 1 0 I I #
edge $-1 $221 -1.5137405032689291 $308 1.5137405032689291 $208 $386 forward 7 unknown #
vertex $-1 $210 $387 #
straight-curve $-1 -56.223418127261624 0 -6.1441037385094575 0 1 0 I I #
straight-curve $-1 -56.223418127261624 0 -3.1166227319715993 0 -1 0 I I #
coedge $-1 $212 $297 $302 $383 forward $213 $-1 #
edge $-1 $215 -56.223418127261624 $376 51.999877925962096 $212 $388 forward 7 unknown #
point $-1 -56.223418127261624 25.599390570131145 -3.1166227319715993 #
point $-1 -56.223418127261624 25.599390570131145 -6.1441037385094575 #
coedge $-1 $380 $219 $292 $375 reversed $201 $-1 #
point $-1 -56.223418127261624 -25.599390570131145 -3.1166227319715993 #
edge $-1 $320 -25.599390570131145 $318 25.599390570131145 $223 $389 forward 7 unknown #
vertex $-1 $317 $390 #
straight-curve $-1 -51.999877925962096 -25.599390570131145 0 0 0 -1 I I #
vertex $-1 $298 $391 #
straight-curve $-1 -51.999877925962096 25.599390570131145 0 0 0 -1 I I #
face $-1 $392 $393 $17 $-1 $394 reversed single #
loop $-1 $-1 $395 $228 #
plane-surface $-1 -56.223418127261624 0 -4.6303632352405284 1 0 0 0 0 -1 forward_v I I I I #
coedge $-1 $396 $397 $398 $399 reversed $229 $-1 #
coedge $-1 $231 $400 $401 $402 forward $141 $-1 #
coedge $-1 $401 $241 $232 $328 forward $243 $-1 #
edge $-1 $332 -55.261104479164082 $329 -50.140343322252072 $327 $403 forward 7 unknown #
vertex $-1 $328 $404 #
straight-curve $-1 46.862881947095289 28.570351098649517 6.1441037385094575 0 -1 0 I I #
edge $-1 $239 8.7895317798272075 $332 28.312077371454457 $241 $405 forward 7 unknown #
vertex $-1 $331 $406 #
straight-curve $-1 46.862881947095289 -12.448718334015567 35.282014462840436 0 -0.74314481823134659 0.66913061440640931 I I #
point $-1 46.862881947095289 19.912209267665453 6.144103738509461 #
point $-1 27.34033635546804 25.599390570131149 1.0233425815974471 #
coedge $-1 $242 $407 $408 $409 reversed $243 $-1 #
face $-1 $410 $243 $17 $-1 $411 reversed single #
coedge $-1 $400 $245 $412 $413 forward $141 $-1 #
coedge $-1 $408 $414 $245 $340 reversed $415 $-1 #
edge $-1 $341 -25.599390570131145 $416 25.599390570131145 $339 $417 forward 7 unknown #
vertex $-1 $246 $418 #
straight-curve $-1 0 25.599390570131145 6.1441037385094575 -1 0 0 I I #
face $-1 $419 $420 $18 $-1 $421 forward single #
loop $-1 $-1 $422 $249 #
plane-surface $-1 0 0 6.1441037385094575 0 0 1 1 0 0 forward_v I I I I #
coedge $-1 $423 $424 $422 $425 reversed $250 $-1 #
coedge $-1 $426 $348 $353 $427 reversed $252 $-1 #
coedge $-1 $347 $428 $253 $349 reversed $252 $-1 #
edge $-1 $354 43.545923765839696 $429 51.198781140262291 $253 $430 forward 7 unknown #
coedge $-1 $431 $432 $254 $351 forward $433 $-1 #
edge $-1 $355 50.140343322252072 $429 55.261104479164082 $350 $434 forward 7 unknown #
coedge $-1 $435 $255 $432 $436 forward $344 $-1 #
coedge $-1 $255 $422 $347 $427 forward $344 $-1 #
vertex $-1 $427 $437 #
vertex $-1 $436 $438 #
straight-curve $-1 27.34033635546804 28.570351098649517 6.1441037385094575 0 1 0 I I #
vertex $-1 $257 $439 #
point $-1 34.418206524504399 19.562823473918144 0.037563637929792004 #
face $-1 $440 $441 $19 $-1 $442 forward single #
plane-surface $-1 37.101609151281664 -12.448718334015567 35.282014462840436 0 0.66913061440640931 0.74314481823134659 1 0 0 forward_v I I I I #
coedge $-1 $443 $444 $445 $446 reversed $262 $-1 #
coedge $-1 $362 $362 $-1 $447 forward $264 $-1 #
edge $-1 $448 0 $448 6.2831853071796004 $265 $449 forward 7 unknown #
vertex $-1 $268 $450 #
ellipse-curve $-1 32.918206524504399 22.755799918898298 3.5837231600534576 0 -0.66913061440640931 -0.74314481823134659 1.5 0 0 1 I I #
vertex $-1 $269 $451 #
point $-1 42.78501177805893 19.562823473918144 0.037563637929792004 #
loop $-1 $-1 $452 $261 #
straight-curve $-1 -51.999877925962096 25.599390570131145 0 0 0 -1 I I #
point $-1 -51.999877925962096 -25.599390570131145 -6.1441037385094575 #
straight-curve $-1 -51.999877925962096 0 -6.1441037385094575 0 1 0 I I #
point $-1 -51.999877925962096 25.599390570131145 -6.1441037385094575 #
face $-1 $-1 $303 $16 $-1 $453 reversed single #
plane-surface $-1 0 25.599390570131145 0 0 -1 0 0 0 -1 forward_v I I I I #
edge $-1 $377 -106.11152595257396 $308 2.111770100649764 $315 $454 forward 7 unknown #
vertex $-1 $295 $455 #
vertex $-1 $382 $456 #
straight-curve $-1 51.999877925962096 0 -6.1441037385094575 0 -1 0 I I #
straight-curve $-1 0 25.599390570131145 6.1441037385094575 -1 0 0 I I #
coedge $-1 $299 $315 $301 $382 reversed $201 $-1 #
straight-curve $-1 0 -25.599390570131145 6.1441037385094575 1 0 0 I I #
edge $-1 $304 -6.1441037385094575 $377 6.1441037385094575 $301 $457 forward 7 unknown #
edge $-1 $305 -6.1441037385094575 $376 6.1441037385094575 $302 $458 forward 7 unknown #
point $-1 51.999877925962096 -25.599390570131145 6.1441037385094575 #
point $-1 51.999877925962096 25.599390570131145 6.1441037385094575 #
straight-curve $-1 -56.223418127261624 -25.599390570131145 -4.6303632352405284 0 0 -1 I I #
point $-1 -56.223418127261624 -25.599390570131145 -6.1441037385094575 #
straight-curve $-1 0 25.599390570131145 -6.1441037385094575 1 0 0 I I #
straight-curve $-1 -51.999877925962096 0 6.1441037385094575 0 -1 0 I I #
point $-1 -51.999877925962096 -25.599390570131145 6.1441037385094575 #
point $-1 -51.999877925962096 25.599390570131145 6.1441037385094575 #
face $-1 $459 $460 $17 $-1 $461 reversed single #
loop $-1 $-1 $462 $322 #
plane-surface $-1 0 0 -6.1441037385094575 0 0 1 1 0 0 forward_v I I I I #
coedge $-1 $463 $464 $465 $466 forward $323 $-1 #
coedge $-1 $467 $325 $407 $468 forward $229 $-1 #
coedge $-1 $325 $467 $469 $470 forward $229 $-1 #
coedge $-1 $414 $408 $325 $399 forward $415 $-1 #
edge $-1 $471 -25.599390570131145 $472 25.599390570131145 $398 $473 forward 7 unknown #
coedge $-1 $326 $338 $474 $475 forward $141 $-1 #
coedge $-1 $476 $327 $326 $402 reversed $243 $-1 #
edge $-1 $477 -51.999877925962096 $329 -46.862881947095289 $401 $342 forward 7 unknown #
straight-curve $-1 46.862881947095289 25.599390570131145 56.284447060761529 0 0 1 I I #
point $-1 46.862881947095289 25.599390570131145 6.1441037385094575 #
straight-curve $-1 18.550804575640832 25.599390570131145 1.0233425815974471 1 0 0 I I #
point $-1 46.862881947095289 25.599390570131149 1.0233425815974471 #
coedge $-1 $336 $465 $396 $468 reversed $243 $-1 #
coedge $-1 $398 $339 $336 $409 forward $415 $-1 #
edge $-1 $341 -6.1441037385094575 $471 3.1166227319715993 $336 $478 forward 7 unknown #
face $-1 $-1 $479 $17 $-1 $480 reversed single #
plane-surface $-1 0 25.599390570131145 0 0 -1 0 0 0 -1 forward_v I I I I #
coedge $-1 $481 $482 $338 $413 reversed $460 $-1 #
edge $-1 $416 -51.999877925962096 $483 51.999877925962096 $412 $484 forward 7 unknown #
coedge $-1 $339 $398 $481 $485 reversed $415 $-1 #
loop $-1 $-1 $398 $459 #
vertex $-1 $340 $486 #
straight-curve $-1 -51.999877925962096 0 6.1441037385094575 0 -1 0 I I #
point $-1 -51.999877925962096 25.599390570131145 6.1441037385094575 #
face $-1 $487 $488 $18 $-1 $489 reversed single #
loop $-1 $-1 $490 $343 #
plane-surface $-1 -54.11164802661186 0 -3.1166227319715993 0 0 1 1 0 0 forward_v I I I I #
coedge $-1 $353 $491 $346 $425 forward $344 $-1 #
coedge $-1 $424 $346 $492 $493 reversed $250 $-1 #
coedge $-1 $346 $423 $426 $494 forward $250 $-1 #
edge $-1 $495 2.970960528518372 $496 8.6581418309840643 $422 $497 forward 7 unknown #
coedge $-1 $428 $347 $424 $494 reversed $252 $-1 #
edge $-1 $496 -28.312077371454457 $354 -8.7895317798272075 $353 $498 forward 7 unknown #
coedge $-1 $348 $426 $431 $499 reversed $252 $-1 #
vertex $-1 $499 $500 #
straight-curve $-1 27.34033635546804 -12.448718334015567 35.282014462840436 0 0.74314481823134659 -0.66913061440640931 I I #
coedge $-1 $492 $350 $428 $499 forward $433 $-1 #
coedge $-1 $350 $501 $352 $436 reversed $433 $-1 #
loop $-1 $-1 $492 $502 #
straight-curve $-1 27.34033635546804 25.599390570131145 56.284447060761529 0 0 -1 I I #
coedge $-1 $503 $352 $504 $505 forward $344 $-1 #
edge $-1 $355 -27.34033635546804 $506 51.999877925962096 $432 $507 forward 7 unknown #
point $-1 27.34033635546804 19.912209267665453 6.144103738509461 #
point $-1 27.34033635546804 25.599390570131145 6.1441037385094575 #
point $-1 32.918206524504399 18.559127552308532 -1.0771535894172279 #
face $-1 $508 $509 $19 $-1 $510 forward single #
loop $-1 $-1 $511 $359 #
plane-surface $-1 46.862881947095289 57.140702197299035 112.56889412152306 -1 0 0 0 0.66913061440640931 0.74314481823134659 forward_v I I I I #
coedge $-1 $444 $361 $512 $513 forward $262 $-1 #
coedge $-1 $361 $443 $514 $515 reversed $262 $-1 #
coedge $-1 $516 $517 $361 $446 forward $509 $-1 #
edge $-1 $518 -8.6581418309840643 $519 -2.970960528518372 $445 $520 forward 7 unknown #
edge $-1 $521 1 $521 0 $362 $-1 forward 7 unknown #
vertex $-1 $363 $522 #
ellipse-curve $-1 32.918206524504399 19.562823473918144 0.037563637929792004 0 0.66913061440640931 0.74314481823134659 1.5 0 0 1 I I #
point $-1 34.418206524504399 22.755799918898294 3.5837231600534531 #
point $-1 41.28501177805893 18.559127552308532 -1.0771535894172279 #
coedge $-1 $523 $512 $517 $524 reversed $368 $-1 #
plane-surface $-1 51.999877925962096 0 0 -1 0 0 0 0 1 forward_v I I I I #
straight-curve $-1 -54.11164802661186 -25.599390570131145 -6.1441037385094575 -1 0 0 I I #
point $-1 51.999877925962096 25.599390570131145 -6.1441037385094575 #
point $-1 51.999877925962096 -25.599390570131145 -6.1441037385094575 #
straight-curve $-1 51.999877925962096 -25.599390570131145 0 0 0 -1 I I #
straight-curve $-1 51.999877925962096 25.599390570131145 0 0 0 -1 I I #
face $-1 $337 $415 $17 $-1 $525 reversed single #
loop $-1 $-1 $481 $392 #
plane-surface $-1 0 -25.599390570131145 0 0 1 0 0 0 1 forward_v I I I I #
coedge $-1 $526 $527 $528 $529 forward $393 $-1 #
coedge $-1 $530 $395 $531 $532 reversed $323 $-1 #
coedge $-1 $395 $530 $467 $533 reversed $323 $-1 #
coedge $-1 $407 $534 $395 $466 reversed $243 $-1 #
edge $-1 $535 -1.5137405032689291 $536 1.5137405032689291 $465 $537 forward 7 unknown #
coedge $-1 $397 $396 $464 $533 forward $229 $-1 #
edge $-1 $471 -2.111770100649764 $535 2.111770100649764 $407 $538 forward 7 unknown #
coedge $-1 $539 $481 $397 $470 reversed $460 $-1 #
edge $-1 $540 -2.111770100649764 $472 2.111770100649764 $469 $541 forward 7 unknown #
vertex $-1 $409 $542 #
vertex $-1 $470 $543 #
straight-curve $-1 -51.999877925962096 0 -3.1166227319715993 0 -1 0 I I #
coedge $-1 $544 $545 $400 $475 reversed $479 $-1 #
edge $-1 $483 -25.599390570131145 $477 25.599390570131145 $474 $546 forward 7 unknown #
coedge $-1 $534 $401 $545 $547 forward $243 $-1 #
vertex $-1 $475 $548 #
straight-curve $-1 -51.999877925962096 25.599390570131145 0 0 0 -1 I I #
loop $-1 $-1 $544 $410 #
plane-surface $-1 51.999877925962096 0 0 -1 0 0 0 0 1 forward_v I I I I #
coedge $-1 $469 $412 $414 $485 forward $460 $-1 #
coedge $-1 $412 $549 $544 $550 reversed $460 $-1 #
vertex $-1 $475 $551 #
straight-curve $-1 0 -25.599390570131145 6.1441037385094575 1 0 0 I I #
edge $-1 $416 -6.1441037385094575 $472 3.1166227319715993 $414 $552 forward 7 unknown #
point $-1 -51.999877925962096 -25.599390570131145 6.1441037385094575 #
face $-1 $553 $554 $18 $-1 $555 reversed single #
loop $-1 $-1 $556 $419 #
plane-surface $-1 -56.223418127261624 0 -4.6303632352405284 1 0 0 0 0 -1 forward_v I I I I #
coedge $-1 $557 $558 $559 $560 reversed $420 $-1 #
coedge $-1 $422 $561 $562 $563 forward $344 $-1 #
coedge $-1 $562 $431 $423 $493 forward $433 $-1 #
edge $-1 $564 -55.261104479164082 $495 -50.140343322252072 $492 $565 forward 7 unknown #
edge $-1 $564 -51.198781140262291 $496 -43.545923765839696 $424 $566 forward 7 unknown #
vertex $-1 $493 $567 #
vertex $-1 $427 $568 #
straight-curve $-1 46.862881947095289 28.570351098649517 6.1441037385094575 0 -1 0 I I #
straight-curve $-1 18.550804575640832 19.912209267665453 6.1441037385094504 -1 0 0 I I #
edge $-1 $429 8.7895317798272075 $564 28.312077371454457 $431 $569 forward 7 unknown #
point $-1 27.34033635546804 25.599390570131149 1.0233425815974471 #
coedge $-1 $432 $570 $571 $572 reversed $433 $-1 #
face $-1 $573 $433 $18 $-1 $574 reversed single #
coedge $-1 $561 $435 $575 $576 forward $344 $-1 #
coedge $-1 $571 $577 $435 $505 reversed $578 $-1 #
edge $-1 $506 -25.599390570131145 $579 25.599390570131145 $504 $580 forward 7 unknown #
vertex $-1 $436 $581 #
straight-curve $-1 0 25.599390570131145 6.1441037385094575 -1 0 0 I I #
face $-1 $582 $583 $19 $-1 $584 forward single #
loop $-1 $-1 $585 $440 #
plane-surface $-1 0 0 6.1441037385094575 0 0 1 1 0 0 forward_v I I I I #
coedge $-1 $586 $587 $585 $588 reversed $441 $-1 #
coedge $-1 $452 $589 $443 $513 reversed $368 $-1 #
edge $-1 $518 43.545923765839696 $590 51.198781140262291 $443 $591 forward 7 unknown #
coedge $-1 $592 $593 $444 $515 forward $594 $-1 #
edge $-1 $519 50.140343322252072 $590 55.261104479164082 $514 $595 forward 7 unknown #
coedge $-1 $596 $445 $593 $597 forward $509 $-1 #
coedge $-1 $445 $585 $452 $524 forward $509 $-1 #
vertex $-1 $524 $598 #
vertex $-1 $597 $599 #
straight-curve $-1 27.34033635546804 28.570351098649517 6.1441037385094575 0 1 0 I I #
vertex $-1 $447 $600 #
point $-1 34.418206524504399 19.562823473918144 0.037563637929792004 #
coedge $-1 $589 $452 $587 $601 reversed $368 $-1 #
edge $-1 $602 -28.312077371454457 $518 -8.7895317798272075 $517 $603 forward 7 unknown #
plane-surface $-1 -51.999877925962096 0 0 1 0 0 0 0 -1 forward_v I I I I #
coedge $-1 $531 $462 $549 $604 forward $393 $-1 #
coedge $-1 $462 $531 $534 $605 forward $393 $-1 #
coedge $-1 $545 $544 $462 $529 reversed $479 $-1 #
edge $-1 $606 -25.599390570131145 $607 25.599390570131145 $528 $608 forward 7 unknown #
coedge $-1 $464 $463 $539 $609 reversed $323 $-1 #
coedge $-1 $527 $526 $463 $532 forward $393 $-1 #
edge $-1 $610 -25.599390570131145 $536 25.599390570131145 $463 $611 forward 7 unknown #
edge $-1 $535 -25.599390570131145 $540 25.599390570131145 $464 $612 forward 7 unknown #
coedge $-1 $465 $476 $527 $605 reversed $243 $-1 #
vertex $-1 $468 $613 #
vertex $-1 $605 $614 #
straight-curve $-1 -56.223418127261624 25.599390570131145 -4.6303632352405284 0 0 -1 I I #
straight-curve $-1 -54.11164802661186 25.599390570131145 -3.1166227319715993 -1 0 0 I I #
coedge $-1 $549 $469 $530 $609 forward $460 $-1 #
vertex $-1 $533 $615 #
straight-curve $-1 -54.11164802661186 -25.599390570131145 -3.1166227319715993 1 0 0 I I #
point $-1 -51.999877925962096 25.599390570131145 -3.1166227319715993 #
point $-1 -51.999877925962096 -25.599390570131145 -3.1166227319715993 #
coedge $-1 $528 $474 $482 $550 forward $479 $-1 #
coedge $-1 $474 $528 $476 $547 reversed $479 $-1 #
straight-curve $-1 51.999877925962096 0 6.1441037385094575 0 1 0 I I #
edge $-1 $477 -6.1441037385094575 $606 6.1441037385094575 $545 $616 forward 7 unknown #
point $-1 51.999877925962096 25.599390570131145 6.1441037385094575 #
coedge $-1 $482 $539 $526 $604 reversed $460 $-1 #
edge $-1 $483 -6.1441037385094575 $607 6.1441037385094575 $544 $617 forward 7 unknown #
point $-1 51.999877925962096 -25.599390570131145 6.1441037385094575 #
straight-curve $-1 -51.999877925962096 -25.599390570131145 0 0 0 -1 I I #
face $-1 $618 $619 $18 $-1 $620 reversed single #
loop $-1 $-1 $621 $487 #
plane-surface $-1 0 0 -6.1441037385094575 0 0 1 1 0 0 forward_v I I I I #
coedge $-1 $622 $623 $624 $625 forward $488 $-1 #
coedge $-1 $626 $490 $570 $627 forward $420 $-1 #
coedge $-1 $490 $626 $628 $629 forward $420 $-1 #
coedge $-1 $577 $571 $490 $560 forward $578 $-1 #
edge $-1 $630 -25.599390570131145 $631 25.599390570131145 $559 $632 forward 7 unknown #
coedge $-1 $491 $503 $633 $634 forward $344 $-1 #
coedge $-1 $635 $492 $491 $563 reversed $433 $-1 #
edge $-1 $636 -51.999877925962096 $495 -46.862881947095289 $562 $507 forward 7 unknown #
vertex $-1 $499 $637 #
straight-curve $-1 46.862881947095289 25.599390570131145 56.284447060761529 0 0 1 I I #
straight-curve $-1 46.862881947095289 -12.448718334015567 35.282014462840436 0 -0.74314481823134659 0.66913061440640931 I I #
point $-1 46.862881947095289 25.599390570131145 6.1441037385094575 #
point $-1 46.862881947095289 19.912209267665453 6.144103738509461 #
straight-curve $-1 18.550804575640832 25.599390570131145 1.0233425815974471 1 0 0 I I #
coedge $-1 $501 $624 $557 $627 reversed $433 $-1 #
coedge $-1 $559 $504 $501 $572 forward $578 $-1 #
edge $-1 $506 -6.1441037385094575 $630 3.1166227319715993 $501 $638 forward 7 unknown #
face $-1 $-1 $639 $18 $-1 $640 reversed single #
plane-surface $-1 0 25.599390570131145 0 0 -1 0 0 0 -1 forward_v I I I I #
coedge $-1 $641 $642 $503 $576 reversed $619 $-1 #
edge $-1 $579 -51.999877925962096 $643 51.999877925962096 $575 $644 forward 7 unknown #
coedge $-1 $504 $559 $641 $645 reversed $578 $-1 #
loop $-1 $-1 $559 $618 #
vertex $-1 $505 $646 #
straight-curve $-1 -51.999877925962096 0 6.1441037385094575 0 -1 0 I I #
point $-1 -51.999877925962096 25.599390570131145 6.1441037385094575 #
face $-1 $647 $648 $19 $-1 $649 reversed single #
loop $-1 $-1 $650 $508 #
plane-surface $-1 -54.11164802661186 0 -3.1166227319715993 0 0 1 1 0 0 forward_v I I I I #
coedge $-1 $517 $651 $511 $588 forward $509 $-1 #
coedge $-1 $587 $511 $652 $653 reversed $441 $-1 #
coedge $-1 $511 $586 $523 $601 forward $441 $-1 #
edge $-1 $654 2.970960528518372 $602 8.6581418309840643 $585 $655 forward 7 unknown #
coedge $-1 $512 $523 $592 $656 reversed $368 $-1 #
vertex $-1 $656 $657 #
straight-curve $-1 27.34033635546804 -12.448718334015567 35.282014462840436 0 0.74314481823134659 -0.66913061440640931 I I #
coedge $-1 $652 $514 $589 $656 forward $594 $-1 #
coedge $-1 $514 $658 $516 $597 reversed $594 $-1 #
loop $-1 $-1 $652 $659 #
straight-curve $-1 27.34033635546804 25.599390570131145 56.284447060761529 0 0 -1 I I #
coedge $-1 $660 $516 $661 $662 forward $509 $-1 #
edge $-1 $519 -27.34033635546804 $663 51.999877925962096 $593 $664 forward 7 unknown #
point $-1 27.34033635546804 19.912209267665453 6.144103738509461 #
point $-1 27.34033635546804 25.599390570131145 6.1441037385094575 #
point $-1 32.918206524504399 18.559127552308532 -1.0771535894172279 #
edge $-1 $665 -51.198781140262291 $602 -43.545923765839696 $587 $666 forward 7 unknown #
vertex $-1 $524 $667 #
straight-curve $-1 18.550804575640832 19.912209267665453 6.1441037385094504 -1 0 0 I I #
edge $-1 $607 -106.11152595257396 $610 2.111770100649764 $549 $668 forward 7 unknown #
edge $-1 $536 -56.223418127261624 $606 51.999877925962096 $534 $669 forward 7 unknown #
vertex $-1 $529 $670 #
vertex $-1 $550 $671 #
straight-curve $-1 51.999877925962096 0 -6.1441037385094575 0 -1 0 I I #
edge $-1 $540 -1.5137405032689291 $610 1.5137405032689291 $530 $672 forward 7 unknown #
vertex $-1 $532 $673 #
straight-curve $-1 -56.223418127261624 0 -6.1441037385094575 0 1 0 I I #
straight-curve $-1 -56.223418127261624 0 -3.1166227319715993 0 -1 0 I I #
point $-1 -56.223418127261624 25.599390570131145 -3.1166227319715993 #
point $-1 -56.223418127261624 25.599390570131145 -6.1441037385094575 #
point $-1 -56.223418127261624 -25.599390570131145 -3.1166227319715993 #
straight-curve $-1 51.999877925962096 25.599390570131145 0 0 0 -1 I I #
straight-curve $-1 51.999877925962096 -25.599390570131145 0 0 0 -1 I I #
face $-1 $502 $578 $18 $-1 $674 reversed single #
loop $-1 $-1 $641 $553 #
plane-surface $-1 0 -25.599390570131145 0 0 1 0 0 0 1 forward_v I I I I #
coedge $-1 $675 $676 $677 $678 forward $554 $-1 #
coedge $-1 $679 $556 $680 $681 reversed $488 $-1 #
coedge $-1 $556 $679 $626 $682 reversed $488 $-1 #
coedge $-1 $570 $683 $556 $625 reversed $433 $-1 #
edge $-1 $684 -1.5137405032689291 $685 1.5137405032689291 $624 $686 forward 7 unknown #
coedge $-1 $558 $557 $623 $682 forward $420 $-1 #
edge $-1 $630 -2.111770100649764 $684 2.111770100649764 $570 $687 forward 7 unknown #
coedge $-1 $688 $641 $558 $629 reversed $619 $-1 #
edge $-1 $689 -2.111770100649764 $631 2.111770100649764 $628 $690 forward 7 unknown #
vertex $-1 $572 $691 #
vertex $-1 $629 $692 #
straight-curve $-1 -51.999877925962096 0 -3.1166227319715993 0 -1 0 I I #
coedge $-1 $693 $694 $561 $634 reversed $639 $-1 #
edge $-1 $643 -25.599390570131145 $636 25.599390570131145 $633 $695 forward 7 unknown #
coedge $-1 $683 $562 $694 $696 forward $433 $-1 #
vertex $-1 $634 $697 #
point $-1 46.862881947095289 25.599390570131149 1.0233425815974471 #
straight-curve $-1 -51.999877925962096 25.599390570131145 0 0 0 -1 I I #
loop $-1 $-1 $693 $573 #
plane-surface $-1 51.999877925962096 0 0 -1 0 0 0 0 1 forward_v I I I I #
coedge $-1 $628 $575 $577 $645 forward $619 $-1 #
coedge $-1 $575 $698 $693 $699 reversed $619 $-1 #
vertex $-1 $634 $700 #
straight-curve $-1 0 -25.599390570131145 6.1441037385094575 1 0 0 I I #
edge $-1 $579 -6.1441037385094575 $631 3.1166227319715993 $577 $701 forward 7 unknown #
point $-1 -51.999877925962096 -25.599390570131145 6.1441037385094575 #
face $-1 $702 $703 $19 $-1 $704 reversed single #
loop $-1 $-1 $705 $582 #
plane-surface $-1 -56.223418127261624 0 -4.6303632352405284 1 0 0 0 0 -1 forward_v I I I I #
coedge $-1 $706 $707 $708 $709 reversed $583 $-1 #
coedge $-1 $585 $710 $711 $712 forward $509 $-1 #
coedge $-1 $711 $592 $586 $653 forward $594 $-1 #
edge $-1 $665 -55.261104479164082 $654 -50.140343322252072 $652 $713 forward 7 unknown #
vertex $-1 $653 $714 #
straight-curve $-1 46.862881947095289 28.570351098649517 6.1441037385094575 0 -1 0 I I #
edge $-1 $590 8.7895317798272075 $665 28.312077371454457 $592 $715 forward 7 unknown #
point $-1 27.34033635546804 25.599390570131149 1.0233425815974471 #
coedge $-1 $593 $716 $717 $718 reversed $594 $-1 #
face $-1 $719 $594 $19 $-1 $720 reversed single #
coedge $-1 $710 $596 $721 $722 forward $509 $-1 #
coedge $-1 $717 $723 $596 $662 reversed $724 $-1 #
edge $-1 $663 -25.599390570131145 $725 25.599390570131145 $661 $726 forward 7 unknown #
vertex $-1 $597 $727 #
straight-curve $-1 0 25.599390570131145 6.1441037385094575 -1 0 0 I I #
vertex $-1 $656 $728 #
straight-curve $-1 46.862881947095289 -12.448718334015567 35.282014462840436 0 -0.74314481823134659 0.66913061440640931 I I #
point $-1 46.862881947095289 19.912209267665453 6.144103738509461 #
straight-curve $-1 -54.11164802661186 -25.599390570131145 -6.1441037385094575 -1 0 0 I I #
straight-curve $-1 0 25.599390570131145 -6.1441037385094575 1 0 0 I I #
point $-1 51.999877925962096 25.599390570131145 -6.1441037385094575 #
point $-1 51.999877925962096 -25.599390570131145 -6.1441037385094575 #
straight-curve $-1 -56.223418127261624 -25.599390570131145 -4.6303632352405284 0 0 -1 I I #
point $-1 -56.223418127261624 -25.599390570131145 -6.1441037385094575 #
plane-surface $-1 -51.999877925962096 0 0 1 0 0 0 0 -1 forward_v I I I I #
coedge $-1 $680 $621 $698 $729 forward $554 $-1 #
coedge $-1 $621 $680 $683 $730 forward $554 $-1 #
coedge $-1 $694 $693 $621 $678 reversed $639 $-1 #
edge $-1 $731 -25.599390570131145 $732 25.599390570131145 $677 $733 forward 7 unknown #
coedge $-1 $623 $622 $688 $734 reversed $488 $-1 #
coedge $-1 $676 $675 $622 $681 forward $554 $-1 #
edge $-1 $735 -25.599390570131145 $685 25.599390570131145 $622 $736 forward 7 unknown #
edge $-1 $684 -25.599390570131145 $689 25.599390570131145 $623 $737 forward 7 unknown #
coedge $-1 $624 $635 $676 $730 reversed $433 $-1 #
vertex $-1 $627 $738 #
vertex $-1 $730 $739 #
straight-curve $-1 -56.223418127261624 25.599390570131145 -4.6303632352405284 0 0 -1 I I #
straight-curve $-1 -54.11164802661186 25.599390570131145 -3.1166227319715993 -1 0 0 I I #
coedge $-1 $698 $628 $679 $734 forward $619 $-1 #
vertex $-1 $682 $740 #
straight-curve $-1 -54.11164802661186 -25.599390570131145 -3.1166227319715993 1 0 0 I I #
point $-1 -51.999877925962096 25.599390570131145 -3.1166227319715993 #
point $-1 -51.999877925962096 -25.599390570131145 -3.1166227319715993 #
coedge $-1 $677 $633 $642 $699 forward $639 $-1 #
coedge $-1 $633 $677 $635 $696 reversed $639 $-1 #
straight-curve $-1 51.999877925962096 0 6.1441037385094575 0 1 0 I I #
edge $-1 $636 -6.1441037385094575 $731 6.1441037385094575 $694 $741 forward 7 unknown #
point $-1 51.999877925962096 25.599390570131145 6.1441037385094575 #
coedge $-1 $642 $688 $675 $729 reversed $619 $-1 #
edge $-1 $643 -6.1441037385094575 $732 6.1441037385094575 $693 $742 forward 7 unknown #
point $-1 51.999877925962096 -25.599390570131145 6.1441037385094575 #
straight-curve $-1 -51.999877925962096 -25.599390570131145 0 0 0 -1 I I #
face $-1 $743 $744 $19 $-1 $745 reversed single #
loop $-1 $-1 $746 $647 #
plane-surface $-1 0 0 -6.1441037385094575 0 0 1 1 0 0 forward_v I I I I #
coedge $-1 $747 $748 $749 $750 forward $648 $-1 #
coedge $-1 $751 $650 $716 $752 forward $583 $-1 #
coedge $-1 $650 $751 $753 $754 forward $583 $-1 #
coedge $-1 $723 $717 $650 $709 forward $724 $-1 #
edge $-1 $755 -25.599390570131145 $756 25.599390570131145 $708 $757 forward 7 unknown #
coedge $-1 $651 $660 $758 $759 forward $509 $-1 #
coedge $-1 $760 $652 $651 $712 reversed $594 $-1 #
edge $-1 $761 -51.999877925962096 $654 -46.862881947095289 $711 $664 forward 7 unknown #
straight-curve $-1 46.862881947095289 25.599390570131145 56.284447060761529 0 0 1 I I #
point $-1 46.862881947095289 25.599390570131145 6.1441037385094575 #
straight-curve $-1 18.550804575640832 25.599390570131145 1.0233425815974471 1 0 0 I I #
coedge $-1 $658 $749 $706 $752 reversed $594 $-1 #
coedge $-1 $708 $661 $658 $718 forward $724 $-1 #
edge $-1 $663 -6.1441037385094575 $755 3.1166227319715993 $658 $762 forward 7 unknown #
face $-1 $-1 $763 $19 $-1 $764 reversed single #
plane-surface $-1 0 25.599390570131145 0 0 -1 0 0 0 -1 forward_v I I I I #
coedge $-1 $765 $766 $660 $722 reversed $744 $-1 #
edge $-1 $725 -51.999877925962096 $767 51.999877925962096 $721 $768 forward 7 unknown #
coedge $-1 $661 $708 $765 $769 reversed $724 $-1 #
loop $-1 $-1 $708 $743 #
vertex $-1 $662 $770 #
straight-curve $-1 -51.999877925962096 0 6.1441037385094575 0 -1 0 I I #
point $-1 -51.999877925962096 25.599390570131145 6.1441037385094575 #
point $-1 46.862881947095289 25.599390570131149 1.0233425815974471 #
edge $-1 $732 -106.11152595257396 $735 2.111770100649764 $698 $771 forward 7 unknown #
edge $-1 $685 -56.223418127261624 $731 51.999877925962096 $683 $772 forward 7 unknown #
vertex $-1 $678 $773 #
vertex $-1 $699 $774 #
straight-curve $-1 51.999877925962096 0 -6.1441037385094575 0 -1 0 I I #
edge $-1 $689 -1.5137405032689291 $735 1.5137405032689291 $679 $775 forward 7 unknown #
vertex $-1 $681 $776 #
straight-curve $-1 -56.223418127261624 0 -6.1441037385094575 0 1 0 I I #
straight-curve $-1 -56.223418127261624 0 -3.1166227319715993 0 -1 0 I I #
point $-1 -56.223418127261624 25.599390570131145 -3.1166227319715993 #
point $-1 -56.223418127261624 25.599390570131145 -6.1441037385094575 #
point $-1 -56.223418127261624 -25.599390570131145 -3.1166227319715993 #
straight-curve $-1 51.999877925962096 25.599390570131145 0 0 0 -1 I I #
straight-curve $-1 51.999877925962096 -25.599390570131145 0 0 0 -1 I I #
face $-1 $659 $724 $19 $-1 $777 reversed single #
loop $-1 $-1 $765 $702 #
plane-surface $-1 0 -25.599390570131145 0 0 1 0 0 0 1 forward_v I I I I #
coedge $-1 $778 $779 $780 $781 forward $703 $-1 #
coedge $-1 $782 $705 $783 $784 reversed $648 $-1 #
coedge $-1 $705 $782 $751 $785 reversed $648 $-1 #
coedge $-1 $716 $786 $705 $750 reversed $594 $-1 #
edge $-1 $787 -1.5137405032689291 $788 1.5137405032689291 $749 $789 forward 7 unknown #
coedge $-1 $707 $706 $748 $785 forward $583 $-1 #
edge $-1 $755 -2.111770100649764 $787 2.111770100649764 $716 $790 forward 7 unknown #
coedge $-1 $791 $765 $707 $754 reversed $744 $-1 #
edge $-1 $792 -2.111770100649764 $756 2.111770100649764 $753 $793 forward 7 unknown #
vertex $-1 $718 $794 #
vertex $-1 $754 $795 #
straight-curve $-1 -51.999877925962096 0 -3.1166227319715993 0 -1 0 I I #
coedge $-1 $796 $797 $710 $759 reversed $763 $-1 #
edge $-1 $767 -25.599390570131145 $761 25.599390570131145 $758 $798 forward 7 unknown #
coedge $-1 $786 $711 $797 $799 forward $594 $-1 #
vertex $-1 $759 $800 #
straight-curve $-1 -51.999877925962096 25.599390570131145 0 0 0 -1 I I #
loop $-1 $-1 $796 $719 #
plane-surface $-1 51.999877925962096 0 0 -1 0 0 0 0 1 forward_v I I I I #
coedge $-1 $753 $721 $723 $769 forward $744 $-1 #
coedge $-1 $721 $801 $796 $802 reversed $744 $-1 #
vertex $-1 $759 $803 #
straight-curve $-1 0 -25.599390570131145 6.1441037385094575 1 0 0 I I #
edge $-1 $725 -6.1441037385094575 $756 3.1166227319715993 $723 $804 forward 7 unknown #
point $-1 -51.999877925962096 -25.599390570131145 6.1441037385094575 #
straight-curve $-1 -54.11164802661186 -25.599390570131145 -6.1441037385094575 -1 0 0 I I #
straight-curve $-1 0 25.599390570131145 -6.1441037385094575 1 0 0 I I #
point $-1 51.999877925962096 25.599390570131145 -6.1441037385094575 #
point $-1 51.999877925962096 -25.599390570131145 -6.1441037385094575 #
straight-curve $-1 -56.223418127261624 -25.599390570131145 -4.6303632352405284 0 0 -1 I I #
point $-1 -56.223418127261624 -25.599390570131145 -6.1441037385094575 #
plane-surface $-1 -51.999877925962096 0 0 1 0 0 0 0 -1 forward_v I I I I #
coedge $-1 $783 $746 $801 $805 forward $703 $-1 #
coedge $-1 $746 $783 $786 $806 forward $703 $-1 #
coedge $-1 $797 $796 $746 $781 reversed $763 $-1 #
edge $-1 $807 -25.599390570131145 $808 25.599390570131145 $780 $809 forward 7 unknown #
coedge $-1 $748 $747 $791 $810 reversed $648 $-1 #
coedge $-1 $779 $778 $747 $784 forward $703 $-1 #
edge $-1 $811 -25.599390570131145 $788 25.599390570131145 $747 $812 forward 7 unknown #
edge $-1 $787 -25.599390570131145 $792 25.599390570131145 $748 $813 forward 7 unknown #
coedge $-1 $749 $760 $779 $806 reversed $594 $-1 #
vertex $-1 $752 $814 #
vertex $-1 $806 $815 #
straight-curve $-1 -56.223418127261624 25.599390570131145 -4.6303632352405284 0 0 -1 I I #
straight-curve $-1 -54.11164802661186 25.599390570131145 -3.1166227319715993 -1 0 0 I I #
coedge $-1 $801 $753 $782 $810 forward $744 $-1 #
vertex $-1 $785 $816 #
straight-curve $-1 -54.11164802661186 -25.599390570131145 -3.1166227319715993 1 0 0 I I #
point $-1 -51.999877925962096 25.599390570131145 -3.1166227319715993 #
point $-1 -51.999877925962096 -25.599390570131145 -3.1166227319715993 #
coedge $-1 $780 $758 $766 $802 forward $763 $-1 #
coedge $-1 $758 $780 $760 $799 reversed $763 $-1 #
straight-curve $-1 51.999877925962096 0 6.1441037385094575 0 1 0 I I #
edge $-1 $761 -6.1441037385094575 $807 6.1441037385094575 $797 $817 forward 7 unknown #
point $-1 51.999877925962096 25.599390570131145 6.1441037385094575 #
coedge $-1 $766 $791 $778 $805 reversed $744 $-1 #
edge $-1 $767 -6.1441037385094575 $808 6.1441037385094575 $796 $818 forward 7 unknown #
point $-1 51.999877925962096 -25.599390570131145 6.1441037385094575 #
straight-curve $-1 -51.999877925962096 -25.599390570131145 0 0 0 -1 I I #
edge $-1 $808 -106.11152595257396 $811 2.111770100649764 $801 $819 forward 7 unknown #
edge $-1 $788 -56.223418127261624 $807 51.999877925962096 $786 $820 forward 7 unknown #
vertex $-1 $781 $821 #
vertex $-1 $802 $822 #
straight-curve $-1 51.999877925962096 0 -6.1441037385094575 0 -1 0 I I #
edge $-1 $792 -1.5137405032689291 $811 1.5137405032689291 $782 $823 forward 7 unknown #
vertex $-1 $784 $824 #
straight-curve $-1 -56.223418127261624 0 -6.1441037385094575 0 1 0 I I #
straight-curve $-1 -56.223418127261624 0 -3.1166227319715993 0 -1 0 I I #
point $-1 -56.223418127261624 25.599390570131145 -3.1166227319715993 #
point $-1 -56.223418127261624 25.599390570131145 -6.1441037385094575 #
point $-1 -56.223418127261624 -25.599390570131145 -3.1166227319715993 #
straight-curve $-1 51.999877925962096 25.599390570131145 0 0 0 -1 I I #
straight-curve $-1 51.999877925962096 -25.599390570131145 0 0 0 -1 I I #
straight-curve $-1 -54.11164802661186 -25.599390570131145 -6.1441037385094575 -1 0 0 I I #
straight-curve $-1 0 25.599390570131145 -6.1441037385094575 1 0 0 I I #
point $-1 51.999877925962096 25.599390570131145 -6.1441037385094575 #
point $-1 51.999877925962096 -25.599390570131145 -6.1441037385094575 #
straight-curve $-1 -56.223418127261624 -25.599390570131145 -4.6303632352405284 0 0 -1 I I #
point $-1 -56.223418127261624 -25.599390570131145 -6.1441037385094575 #
End-of-ACIS-data 