500 0 8 0           
7 Unknown 11 ACIS 5.0 NT 24 Thu Mar 25 23:06:53 1999 
-1 9.9999999999999995e-007 1e-010 
body $-1 $8 $-1 $9 #
body $-1 $10 $-1 $11 #
body $-1 $12 $-1 $13 #
body $-1 $14 $-1 $15 #
body $-1 $16 $-1 $17 #
body $-1 $18 $-1 $19 #
body $-1 $20 $-1 $21 #
body $-1 $22 $-1 $23 #
lump $-1 $-1 $24 $0 #
transform $-1 1 0 0 0 1 0 0 0 1 52.255012665181432 32.897039804145287 14.904014575533836 1 rotate no_reflect no_shear #
lump $-1 $-1 $25 $1 #
transform $-1 1 0 0 0 1 0 0 0 1 52.255012665181432 32.897039804145287 14.904014575533836 1 rotate no_reflect no_shear #
lump $-1 $-1 $26 $2 #
transform $-1 1 0 0 0 1 0 0 0 1 52.255012665181432 32.897039804145287 14.904014575533836 1 rotate no_reflect no_shear #
lump $-1 $-1 $27 $3 #
transform $-1 1 0 0 0 1 0 0 0 1 52.255012665181432 32.897039804145287 14.904014575533836 1 rotate no_reflect no_shear #
lump $-1 $-1 $28 $4 #
transform $-1 1 0 0 0 1 0 0 0 1 52.255012665181432 32.897039804145287 14.904014575533836 1 rotate no_reflect no_shear #
lump $-1 $-1 $29 $5 #
transform $-1 1 0 0 0 1 0 0 0 1 52.255012665181432 32.897039804145287 14.904014575533836 1 rotate no_reflect no_shear #
lump $-1 $-1 $30 $6 #
transform $-1 1 0 0 0 1 0 0 0 1 52.255012665181432 32.897039804145287 14.904014575533836 1 rotate no_reflect no_shear #
lump $-1 $-1 $31 $7 #
transform $-1 1 0 0 0 1 0 0 0 1 52.255012665181432 32.897039804145287 14.904014575533836 1 rotate no_reflect no_shear #
shell $-1 $-1 $-1 $32 $-1 $8 #
shell $-1 $-1 $-1 $33 $-1 $10 #
shell $-1 $-1 $-1 $34 $-1 $12 #
shell $-1 $-1 $-1 $35 $-1 $14 #
shell $-1 $-1 $-1 $36 $-1 $16 #
shell $-1 $-1 $-1 $37 $-1 $18 #
shell $-1 $-1 $-1 $38 $-1 $20 #
shell $-1 $-1 $-1 $39 $-1 $22 #
face $-1 $40 $41 $24 $-1 $42 forward single #
face $-1 $43 $44 $25 $-1 $45 forward single #
face $-1 $46 $47 $26 $-1 $48 reversed single #
face $-1 $49 $50 $27 $-1 $51 forward single #
face $-1 $52 $53 $28 $-1 $54 reversed single #
face $-1 $55 $56 $29 $-1 $57 forward single #
face $-1 $58 $59 $30 $-1 $60 forward single #
face $-1 $61 $62 $31 $-1 $63 forward single #
face $-1 $64 $65 $24 $-1 $66 reversed single #
loop $-1 $-1 $67 $32 #
plane-surface $-1 0 0 14.904014575533836 0 0 1 1 0 0 forward_v I I I I #
face $-1 $68 $69 $25 $-1 $70 forward single #
loop $-1 $-1 $71 $33 #
plane-surface $-1 0 -32.897039804145287 0 0 1 0 0 0 1 forward_v I I I I #
face $-1 $72 $73 $26 $-1 $74 reversed single #
loop $-1 $-1 $75 $34 #
plane-surface $-1 88.010948900541536 30.761550191409196 152.45084876886381 0 -1 0 -0.85716730853699208 0 -0.51503806187062418 forward_v I I I I #
face $-1 $76 $77 $27 $-1 $78 forward single #
loop $-1 $79 $80 $35 #
cone-surface $-1 49.653637443946863 26.389481242210053 11.468017144723785 -0.85716730853699208 0 -0.51503806187062418 0.25751903093531209 0 -0.42858365426849604 1 I I 0 1 0.5 forward I I I I #
face $-1 $81 $82 $28 $-1 $83 reversed single #
loop $-1 $-1 $84 $36 #
plane-surface $-1 -106.08165563615432 -0.12121441693526336 97.734502605409403 0 1 0 -0.51503808176128008 0 0.85716729658548041 forward_v I I I I #
face $-1 $85 $86 $29 $-1 $87 forward single #
loop $-1 $88 $89 $37 #
cone-surface $-1 -46.204580833917284 2.0007722725862251 10.809415837093002 0.51503808176128008 0 -0.85716729658548041 0.4285836482927402 0 0.25751904088064004 1 I I 0 1 0.5 forward I I I I #
face $-1 $90 $91 $30 $-1 $92 forward single #
loop $-1 $93 $94 $38 #
cone-surface $-1 -46.204580833917284 5.1837523068684561 10.809415837093002 0.51503808176128008 0 -0.85716729658548041 0.4285836482927402 0 0.25751904088064004 1 I I 0 1 0.5 forward I I I I #
face $-1 $95 $96 $31 $-1 $97 forward single #
loop $-1 $98 $99 $39 #
cone-surface $-1 -46.204580833917284 8.3667323411506871 10.809415837093002 0.51503808176128008 0 -0.85716729658548041 0.4285836482927402 0 0.25751904088064004 1 I I 0 1 0.5 forward I I I I #
face $-1 $100 $101 $24 $-1 $102 reversed single #
loop $-1 $-1 $103 $40 #
plane-surface $-1 0 0 -14.904014575533836 0 0 1 1 0 0 forward_v I I I I #
coedge $-1 $104 $105 $106 $107 forward $41 $-1 #
face $-1 $108 $109 $25 $-1 $110 reversed single #
loop $-1 $-1 $111 $43 #
plane-surface $-1 0 0 14.904014575533836 0 0 1 1 0 0 forward_v I I I I #
coedge $-1 $112 $113 $114 $115 forward $44 $-1 #
face $-1 $116 $117 $26 $-1 $118 reversed single #
loop $-1 $-1 $119 $46 #
plane-surface $-1 -1.5716282270184649 26.38948124221006 98.624207876663888 0.85716730853699208 0 0.51503806187062418 0.51503806187062418 0 -0.85716730853699208 forward_v I I I I #
coedge $-1 $120 $121 $122 $123 reversed $47 $-1 #
face $-1 $-1 $124 $27 $-1 $125 forward single #
loop $-1 $126 $127 $49 #
cone-surface $-1 48.599208122352515 26.389481242210053 10.834452111661079 -0.85716730853699208 0 -0.51503806187062418 0.12875951546765604 0 -0.21429182713424802 1 I I -0.70710678118654746 0.70710678118654746 0.25 forward I I I I #
loop $-1 $-1 $128 $35 #
coedge $-1 $80 $80 $129 $130 reversed $50 $-1 #
face $-1 $131 $132 $28 $-1 $133 reversed single #
loop $-1 $-1 $134 $52 #
plane-surface $-1 -52.25501266518144 5.183752306868449 8.1519267269021896 -0.51503808176128008 0 0.85716729658548041 0.85716729658548041 0 0.51503808176128008 forward_v I I I I #
coedge $-1 $135 $136 $137 $138 reversed $53 $-1 #
face $-1 $-1 $139 $29 $-1 $140 forward single #
loop $-1 $141 $142 $55 #
cone-surface $-1 -45.644070015239734 2.0007722725862251 9.8765691988216204 0.51503808176128008 0 -0.85716729658548041 0.2142918241463701 0 0.12875952044032002 1 I I -0.70710678118654502 0.70710678118655002 0.25 forward I I I I #
loop $-1 $-1 $143 $37 #
coedge $-1 $89 $89 $144 $145 reversed $56 $-1 #
face $-1 $-1 $146 $30 $-1 $147 forward single #
loop $-1 $148 $149 $58 #
cone-surface $-1 -45.644070015239734 5.1837523068684561 9.8765691988216204 0.51503808176128008 0 -0.85716729658548041 0.2142918241463701 0 0.12875952044032002 1 I I -0.70710678118654502 0.70710678118655002 0.25 forward I I I I #
loop $-1 $-1 $150 $38 #
coedge $-1 $94 $94 $151 $152 reversed $59 $-1 #
face $-1 $-1 $153 $31 $-1 $154 forward single #
loop $-1 $155 $156 $61 #
cone-surface $-1 -45.644070015239734 8.3667323411506871 9.8765691988216204 0.51503808176128008 0 -0.85716729658548041 0.2142918241463701 0 0.12875952044032002 1 I I -0.70710678118654502 0.70710678118655002 0.25 forward I I I I #
loop $-1 $-1 $157 $39 #
coedge $-1 $99 $99 $158 $159 reversed $62 $-1 #
face $-1 $160 $161 $24 $-1 $162 reversed single #
loop $-1 $-1 $163 $64 #
plane-surface $-1 0 -32.897039804145287 0 0 1 0 0 0 1 forward_v I I I I #
coedge $-1 $164 $165 $166 $167 forward $65 $-1 #
coedge $-1 $168 $67 $169 $170 forward $41 $-1 #
coedge $-1 $67 $168 $171 $172 forward $41 $-1 #
coedge $-1 $173 $174 $67 $107 reversed $175 $-1 #
edge $-1 $176 -32.897039804145287 $177 32.897039804145287 $106 $178 forward 7 unknown #
face $-1 $179 $180 $25 $-1 $181 reversed single #
loop $-1 $-1 $182 $68 #
plane-surface $-1 -52.255012665181432 0 0 1 0 0 0 0 -1 forward_v I I I I #
coedge $-1 $183 $184 $185 $186 forward $69 $-1 #
coedge $-1 $185 $71 $182 $187 reversed $44 $-1 #
coedge $-1 $71 $185 $188 $189 reversed $44 $-1 #
coedge $-1 $190 $191 $71 $115 reversed $180 $-1 #
edge $-1 $192 -52.255012665181432 $193 52.255012665181432 $114 $194 forward 7 unknown #
face $-1 $195 $196 $26 $-1 $197 reversed single #
loop $-1 $-1 $198 $72 #
plane-surface $-1 88.010948900541536 22.017412293010924 152.45084876886381 0 1 0 0.85716730853699208 0 0.51503806187062418 forward_v I I I I #
coedge $-1 $199 $200 $201 $202 reversed $73 $-1 #
coedge $-1 $121 $75 $203 $204 reversed $47 $-1 #
coedge $-1 $75 $120 $199 $205 reversed $47 $-1 #
coedge $-1 $201 $206 $75 $123 forward $207 $-1 #
edge $-1 $208 -8.2495382149106646 $209 -4.7270627613617435 $122 $210 forward 7 unknown #
loop $-1 $-1 $129 $76 #
plane-surface $-1 -1.5716282270184649 26.38948124221006 98.624207876663888 0.85716730853699208 0 0.51503806187062418 0.51503806187062418 0 -0.85716730853699208 forward_v I I I I #
loop $-1 $-1 $211 $49 #
coedge $-1 $127 $127 $128 $212 reversed $77 $-1 #
coedge $-1 $128 $128 $127 $212 forward $79 $-1 #
coedge $-1 $129 $129 $80 $130 forward $124 $-1 #
edge $-1 $213 0 $213 6.2831853071796004 $129 $214 forward 7 unknown #
face $-1 $215 $216 $28 $-1 $217 forward single #
loop $-1 $-1 $218 $81 #
plane-surface $-1 -106.08165563615432 10.488719030672161 97.734502605409403 0 -1 0 0.51503808176128008 0 -0.85716729658548041 forward_v I I I I #
coedge $-1 $219 $220 $221 $222 reversed $82 $-1 #
coedge $-1 $136 $84 $223 $224 reversed $53 $-1 #
coedge $-1 $84 $135 $219 $225 reversed $53 $-1 #
coedge $-1 $221 $226 $84 $138 forward $216 $-1 #
edge $-1 $227 0.78581515289572934 $228 12.023176218949558 $137 $229 forward 7 unknown #
loop $-1 $-1 $144 $85 #
plane-surface $-1 -52.25501266518144 5.183752306868449 8.1519267269021896 -0.51503808176128008 0 0.85716729658548041 0.85716729658548041 0 0.51503808176128008 forward_v I I I I #
loop $-1 $-1 $230 $55 #
coedge $-1 $142 $142 $143 $231 reversed $86 $-1 #
coedge $-1 $143 $143 $142 $231 forward $88 $-1 #
coedge $-1 $144 $144 $89 $145 forward $139 $-1 #
edge $-1 $232 0 $232 6.2831853071796004 $144 $233 forward 7 unknown #
loop $-1 $-1 $151 $90 #
plane-surface $-1 -52.25501266518144 5.183752306868449 8.1519267269021896 -0.51503808176128008 0 0.85716729658548041 0.85716729658548041 0 0.51503808176128008 forward_v I I I I #
loop $-1 $-1 $234 $58 #
coedge $-1 $149 $149 $150 $235 reversed $91 $-1 #
coedge $-1 $150 $150 $149 $235 forward $93 $-1 #
coedge $-1 $151 $151 $94 $152 forward $146 $-1 #
edge $-1 $236 0 $236 6.2831853071796004 $151 $237 forward 7 unknown #
loop $-1 $-1 $158 $95 #
plane-surface $-1 -52.25501266518144 5.183752306868449 8.1519267269021896 -0.51503808176128008 0 0.85716729658548041 0.85716729658548041 0 0.51503808176128008 forward_v I I I I #
loop $-1 $-1 $238 $61 #
coedge $-1 $156 $156 $157 $239 reversed $96 $-1 #
coedge $-1 $157 $157 $156 $239 forward $98 $-1 #
coedge $-1 $158 $158 $99 $159 forward $153 $-1 #
edge $-1 $240 0 $240 6.2831853071796004 $158 $241 forward 7 unknown #
face $-1 $242 $243 $24 $-1 $244 reversed single #
loop $-1 $-1 $245 $100 #
plane-surface $-1 -52.255012665181432 0 0 1 0 0 0 0 -1 forward_v I I I I #
coedge $-1 $246 $171 $247 $248 forward $101 $-1 #
coedge $-1 $249 $103 $246 $250 forward $65 $-1 #
coedge $-1 $103 $249 $251 $252 forward $65 $-1 #
coedge $-1 $174 $173 $103 $167 reversed $175 $-1 #
edge $-1 $253 -32.897039804145287 $254 32.897039804145287 $166 $255 forward 7 unknown #
coedge $-1 $105 $104 $256 $257 forward $41 $-1 #
coedge $-1 $258 $259 $104 $170 reversed $243 $-1 #
edge $-1 $177 -52.255012665181432 $260 52.255012665181432 $169 $261 forward 7 unknown #
coedge $-1 $163 $262 $105 $172 reversed $101 $-1 #
edge $-1 $263 -52.255012665181432 $176 52.255012665181432 $171 $264 forward 7 unknown #
coedge $-1 $166 $106 $262 $265 forward $175 $-1 #
coedge $-1 $106 $166 $258 $266 reversed $175 $-1 #
loop $-1 $-1 $173 $242 #
vertex $-1 $107 $267 #
vertex $-1 $107 $268 #
straight-curve $-1 52.255012665181432 0 14.904014575533836 0 1 0 I I #
face $-1 $269 $270 $25 $-1 $271 reversed single #
loop $-1 $-1 $190 $108 #
plane-surface $-1 0 -39.242064565801797 7.3472557219615187 0 0 1 1 0 0 forward_v I I I I #
coedge $-1 $272 $273 $112 $187 forward $109 $-1 #
coedge $-1 $274 $111 $273 $275 forward $69 $-1 #
coedge $-1 $111 $274 $276 $277 forward $69 $-1 #
coedge $-1 $113 $112 $111 $186 reversed $44 $-1 #
edge $-1 $278 -52.255012665181432 $279 52.255012665181432 $111 $280 forward 7 unknown #
edge $-1 $279 -14.904014575533836 $193 -7.3472557219615187 $182 $281 forward 7 unknown #
coedge $-1 $276 $282 $113 $189 forward $283 $-1 #
edge $-1 $192 7.3472557219615187 $278 14.904014575533836 $188 $284 forward 7 unknown #
coedge $-1 $285 $114 $282 $286 forward $180 $-1 #
coedge $-1 $114 $285 $272 $287 forward $180 $-1 #
vertex $-1 $189 $288 #
vertex $-1 $187 $289 #
straight-curve $-1 0 -32.897039804145287 7.3472557219615187 -1 0 0 I I #
face $-1 $-1 $207 $26 $-1 $290 forward single #
loop $-1 $-1 $291 $116 #
plane-surface $-1 52.255012665181432 0 0 -1 0 0 0 0 1 forward_v I I I I #
coedge $-1 $292 $293 $294 $295 reversed $117 $-1 #
coedge $-1 $296 $119 $121 $205 forward $73 $-1 #
coedge $-1 $119 $296 $292 $297 forward $73 $-1 #
coedge $-1 $294 $122 $119 $202 forward $207 $-1 #
edge $-1 $209 -17.566809570304166 $298 -8.8226716719058942 $201 $299 forward 7 unknown #
coedge $-1 $300 $301 $120 $204 forward $196 $-1 #
edge $-1 $302 -67.183793635327959 $208 -61.321409808898068 $203 $303 forward 7 unknown #
edge $-1 $209 97.67077263366842 $302 104.51002533036281 $121 $304 forward 7 unknown #
coedge $-1 $122 $294 $300 $305 forward $207 $-1 #
loop $-1 $-1 $294 $195 #
vertex $-1 $204 $306 #
vertex $-1 $123 $307 #
straight-curve $-1 44.005474450270768 30.761550191409196 14.904014575533836 -1 0 0 I I #
coedge $-1 $211 $211 $-1 $308 reversed $126 $-1 #
edge $-1 $309 0 $309 6.2831853071796004 $127 $310 forward 7 unknown #
vertex $-1 $130 $311 #
ellipse-curve $-1 50.493774938406993 26.389481242210053 11.972822662318851 0.85716730853699208 0 0.51503806187062418 0.25751903093531209 0 -0.42858365426849604 1 I I #
face $-1 $-1 $312 $28 $-1 $313 reversed single #
loop $-1 $-1 $137 $131 #
plane-surface $-1 0 0 14.904014575533836 0 0 1 1 0 0 forward_v I I I I #
coedge $-1 $314 $315 $316 $317 reversed $132 $-1 #
coedge $-1 $318 $134 $136 $225 forward $82 $-1 #
coedge $-1 $134 $318 $314 $319 forward $82 $-1 #
coedge $-1 $316 $137 $134 $222 forward $216 $-1 #
edge $-1 $228 -2.7130905703694879 $320 7.8968428772379369 $221 $321 forward 7 unknown #
coedge $-1 $322 $323 $135 $224 forward $312 $-1 #
edge $-1 $324 -40.715324575802512 $227 -33.963236727170866 $223 $325 forward 7 unknown #
edge $-1 $228 -13.10988077918719 $324 -7.9203227973758348e-015 $136 $326 forward 7 unknown #
coedge $-1 $137 $316 $322 $327 forward $216 $-1 #
vertex $-1 $224 $328 #
vertex $-1 $138 $329 #
straight-curve $-1 -53.040827818077162 -0.12121441693526336 14.904014575533836 1 0 0 I I #
coedge $-1 $230 $230 $-1 $330 reversed $141 $-1 #
edge $-1 $331 0 $331 6.2831853071796004 $142 $332 forward 7 unknown #
vertex $-1 $145 $333 #
ellipse-curve $-1 -46.636332132154514 2.0007722725862251 11.527970651218016 -0.51503808176128008 0 0.85716729658548041 0.4285836482927402 0 0.25751904088064004 1 I I #
coedge $-1 $234 $234 $-1 $334 reversed $148 $-1 #
edge $-1 $335 0 $335 6.2831853071796004 $149 $336 forward 7 unknown #
vertex $-1 $152 $337 #
ellipse-curve $-1 -46.636332132154514 5.1837523068684561 11.527970651218016 -0.51503808176128008 0 0.85716729658548041 0.4285836482927402 0 0.25751904088064004 1 I I #
coedge $-1 $238 $238 $-1 $338 reversed $155 $-1 #
edge $-1 $339 0 $339 6.2831853071796004 $156 $340 forward 7 unknown #
vertex $-1 $159 $341 #
ellipse-curve $-1 -46.636332132154514 8.3667323411506871 11.527970651218016 -0.51503808176128008 0 0.85716729658548041 0.4285836482927402 0 0.25751904088064004 1 I I #
face $-1 $-1 $175 $24 $-1 $342 reversed single #
loop $-1 $-1 $258 $160 #
plane-surface $-1 0 32.897039804145287 0 0 -1 0 0 0 -1 forward_v I I I I #
coedge $-1 $343 $256 $259 $344 forward $161 $-1 #
coedge $-1 $262 $163 $164 $250 reversed $101 $-1 #
coedge $-1 $256 $343 $163 $248 reversed $161 $-1 #
edge $-1 $263 -14.904014575533836 $345 14.904014575533836 $247 $346 forward 7 unknown #
coedge $-1 $165 $164 $343 $347 forward $65 $-1 #
edge $-1 $254 -52.255012665181432 $345 52.255012665181432 $246 $348 forward 7 unknown #
coedge $-1 $259 $258 $165 $252 reversed $243 $-1 #
edge $-1 $349 -52.255012665181432 $253 52.255012665181432 $251 $350 forward 7 unknown #
vertex $-1 $167 $351 #
vertex $-1 $265 $352 #
straight-curve $-1 52.255012665181432 0 -14.904014575533836 0 -1 0 I I #
coedge $-1 $245 $247 $168 $257 reversed $161 $-1 #
edge $-1 $260 -32.897039804145287 $263 32.897039804145287 $256 $353 forward 7 unknown #
coedge $-1 $251 $169 $174 $266 forward $243 $-1 #
coedge $-1 $169 $251 $245 $344 reversed $243 $-1 #
vertex $-1 $170 $354 #
straight-curve $-1 0 32.897039804145287 14.904014575533836 -1 0 0 I I #
coedge $-1 $171 $246 $173 $265 reversed $101 $-1 #
vertex $-1 $257 $355 #
straight-curve $-1 0 -32.897039804145287 14.904014575533836 1 0 0 I I #
edge $-1 $176 -14.904014575533836 $254 14.904014575533836 $173 $356 forward 7 unknown #
edge $-1 $177 -14.904014575533836 $253 14.904014575533836 $174 $357 forward 7 unknown #
point $-1 52.255012665181432 -32.897039804145287 14.904014575533836 #
point $-1 52.255012665181432 32.897039804145287 14.904014575533836 #
face $-1 $-1 $283 $25 $-1 $358 reversed single #
loop $-1 $-1 $359 $179 #
plane-surface $-1 0 -45.587089327458308 11.125635148747676 0 1 0 0 0 1 forward_v I I I I #
coedge $-1 $360 $182 $191 $287 reversed $109 $-1 #
coedge $-1 $182 $360 $183 $275 reversed $109 $-1 #
coedge $-1 $184 $183 $361 $362 forward $69 $-1 #
edge $-1 $279 32.897039804145287 $363 45.587089327458308 $273 $364 forward 7 unknown #
coedge $-1 $365 $188 $184 $277 reversed $283 $-1 #
edge $-1 $366 -45.587089327458308 $278 -32.897039804145287 $276 $367 forward 7 unknown #
vertex $-1 $189 $368 #
vertex $-1 $275 $369 #
straight-curve $-1 0 -32.897039804145287 14.904014575533836 -1 0 0 I I #
straight-curve $-1 -52.255012665181432 -32.897039804145287 0 0 0 -1 I I #
coedge $-1 $188 $365 $190 $286 reversed $283 $-1 #
loop $-1 $-1 $188 $269 #
straight-curve $-1 52.255012665181432 -32.897039804145287 0 0 0 1 I I #
coedge $-1 $191 $190 $370 $371 forward $180 $-1 #
edge $-1 $192 -6.3450247616565107 $372 6.3450247616565107 $282 $373 forward 7 unknown #
edge $-1 $374 -6.3450247616565107 $193 6.3450247616565107 $272 $375 forward 7 unknown #
point $-1 52.255012665181432 -32.897039804145287 7.3472557219615187 #
point $-1 -52.255012665181432 -32.897039804145287 7.3472557219615187 #
plane-surface $-1 0 0 14.904014575533836 0 0 1 1 0 0 forward_v I I I I #
coedge $-1 $301 $300 $293 $376 forward $196 $-1 #
coedge $-1 $293 $198 $200 $297 reversed $117 $-1 #
coedge $-1 $198 $292 $291 $376 reversed $117 $-1 #
coedge $-1 $206 $201 $198 $295 forward $207 $-1 #
edge $-1 $298 4.7270627613617435 $377 8.2495382149106646 $294 $378 forward 7 unknown #
coedge $-1 $200 $199 $301 $379 reversed $73 $-1 #
edge $-1 $380 -104.51002533036281 $298 -97.67077263366842 $292 $381 forward 7 unknown #
vertex $-1 $202 $382 #
straight-curve $-1 48.732537211632511 13.19474062110503 14.904014575533843 0 -1 0 I I #
coedge $-1 $291 $203 $206 $305 reversed $196 $-1 #
coedge $-1 $203 $291 $296 $379 forward $196 $-1 #
vertex $-1 $204 $383 #
straight-curve $-1 52.255012665181432 30.761550191409196 76.225424384431903 0 0 1 I I #
straight-curve $-1 -1.5716282270184649 30.761550191409196 98.624207876663888 0.51503806187062418 0 -0.85716730853699208 I I #
edge $-1 $377 22.017412293010924 $208 30.761550191409196 $300 $384 forward 7 unknown #
point $-1 52.255012665181432 30.761550191409196 14.904014575533836 #
point $-1 48.732537211632511 30.761550191409196 14.904014575533836 #
edge $-1 $385 1 $385 0 $211 $-1 forward 7 unknown #
vertex $-1 $212 $386 #
ellipse-curve $-1 48.813499949486761 26.389481242210053 10.963211627128736 0.85716730853699208 0 0.51503806187062418 0.25751903093531209 0 -0.42858365426849604 1 I I #
point $-1 50.751293969342271 26.389481242210053 11.544239008050338 #
loop $-1 $-1 $223 $215 #
plane-surface $-1 -52.255012665181432 0 0 1 0 0 0 0 -1 forward_v I I I I #
coedge $-1 $315 $218 $220 $319 reversed $132 $-1 #
coedge $-1 $218 $314 $387 $388 reversed $132 $-1 #
coedge $-1 $226 $221 $218 $317 forward $216 $-1 #
edge $-1 $320 -12.023176218949558 $389 -0.78581515289572934 $316 $390 forward 7 unknown #
coedge $-1 $220 $219 $323 $391 reversed $82 $-1 #
edge $-1 $392 7.9203227973758348e-015 $320 13.10988077918719 $314 $393 forward 7 unknown #
vertex $-1 $222 $394 #
straight-curve $-1 -41.01765159912761 2.5918761534342245 14.904014575533836 0 1 0 I I #
coedge $-1 $387 $223 $226 $327 reversed $312 $-1 #
coedge $-1 $223 $387 $318 $391 forward $312 $-1 #
vertex $-1 $224 $395 #
straight-curve $-1 -52.255012665181432 -0.12121441693526336 48.867251302704702 0 0 1 I I #
straight-curve $-1 -52.25501266518144 -0.12121441693526336 8.1519267269021896 -0.85716729658548041 0 -0.51503808176128008 I I #
edge $-1 $389 -10.488719030672161 $227 0.12121441693526336 $322 $396 forward 7 unknown #
point $-1 -52.255012665181432 -0.12121441693526336 14.904014575533836 #
point $-1 -41.017651599127603 -0.12121441693526336 14.904014575533836 #
edge $-1 $397 1 $397 0 $230 $-1 forward 7 unknown #
vertex $-1 $231 $398 #
ellipse-curve $-1 -45.772829535680053 2.0007722725862251 10.090861022967992 -0.51503808176128008 0 0.85716729658548041 0.4285836482927402 0 0.25751904088064004 1 I I #
point $-1 -46.207748483861771 2.0007722725862251 11.785489692098649 #
edge $-1 $399 1 $399 0 $234 $-1 forward 7 unknown #
vertex $-1 $235 $400 #
ellipse-curve $-1 -45.772829535680053 5.1837523068684561 10.090861022967992 -0.51503808176128008 0 0.85716729658548041 0.4285836482927402 0 0.25751904088064004 1 I I #
point $-1 -46.207748483861771 5.1837523068684561 11.785489692098649 #
edge $-1 $401 1 $401 0 $238 $-1 forward 7 unknown #
vertex $-1 $239 $402 #
ellipse-curve $-1 -45.772829535680053 8.3667323411506871 10.090861022967992 -0.51503808176128008 0 0.85716729658548041 0.4285836482927402 0 0.25751904088064004 1 I I #
point $-1 -46.207748483861771 8.3667323411506871 11.785489692098649 #
plane-surface $-1 52.255012665181432 0 0 -1 0 0 0 0 1 forward_v I I I I #
coedge $-1 $247 $245 $249 $347 reversed $161 $-1 #
edge $-1 $260 -14.904014575533836 $349 14.904014575533836 $259 $403 forward 7 unknown #
vertex $-1 $347 $404 #
straight-curve $-1 -52.255012665181432 -32.897039804145287 0 0 0 -1 I I #
edge $-1 $345 -32.897039804145287 $349 32.897039804145287 $343 $405 forward 7 unknown #
straight-curve $-1 0 -32.897039804145287 -14.904014575533836 -1 0 0 I I #
vertex $-1 $252 $406 #
straight-curve $-1 0 32.897039804145287 -14.904014575533836 1 0 0 I I #
point $-1 52.255012665181432 32.897039804145287 -14.904014575533836 #
point $-1 52.255012665181432 -32.897039804145287 -14.904014575533836 #
straight-curve $-1 -52.255012665181432 0 14.904014575533836 0 -1 0 I I #
point $-1 -52.255012665181432 32.897039804145287 14.904014575533836 #
point $-1 -52.255012665181432 -32.897039804145287 14.904014575533836 #
straight-curve $-1 52.255012665181432 -32.897039804145287 0 0 0 -1 I I #
straight-curve $-1 52.255012665181432 32.897039804145287 0 0 0 -1 I I #
plane-surface $-1 52.255012665181432 0 0 -1 0 0 0 0 1 forward_v I I I I #
coedge $-1 $370 $361 $360 $407 forward $270 $-1 #
coedge $-1 $273 $272 $359 $407 reversed $109 $-1 #
coedge $-1 $359 $408 $274 $362 reversed $270 $-1 #
edge $-1 $363 -52.255012665181432 $366 52.255012665181432 $361 $409 forward 7 unknown #
vertex $-1 $275 $410 #
straight-curve $-1 -52.255012665181432 0 14.904014575533836 0 -1 0 I I #
coedge $-1 $282 $276 $408 $411 forward $283 $-1 #
vertex $-1 $277 $412 #
straight-curve $-1 52.255012665181432 0 14.904014575533836 0 1 0 I I #
point $-1 52.255012665181432 -32.897039804145287 14.904014575533836 #
point $-1 -52.255012665181432 -32.897039804145287 14.904014575533836 #
coedge $-1 $408 $359 $285 $371 reversed $270 $-1 #
edge $-1 $372 -52.255012665181432 $374 52.255012665181432 $370 $413 forward 7 unknown #
vertex $-1 $411 $414 #
straight-curve $-1 52.255012665181432 -39.242064565801797 7.3472557219615187 0 -1 0 I I #
vertex $-1 $287 $415 #
straight-curve $-1 -52.255012665181432 -39.242064565801797 7.3472557219615187 0 1 0 I I #
edge $-1 $377 61.321409808898068 $380 67.183793635327959 $291 $416 forward 7 unknown #
vertex $-1 $305 $417 #
straight-curve $-1 44.005474450270768 22.017412293010924 14.904014575533836 1 0 0 I I #
edge $-1 $380 8.8226716719058942 $302 17.566809570304166 $301 $418 forward 7 unknown #
vertex $-1 $379 $419 #
straight-curve $-1 -1.5716282270184649 22.017412293010924 98.624207876663888 -0.51503806187062418 0 0.85716730853699208 I I #
point $-1 48.732537211632511 22.017412293010924 14.904014575533836 #
point $-1 52.255012665181432 30.761550191409196 9.0416307491039447 #
straight-curve $-1 52.255012665181432 0 14.904014575533836 0 1 0 I I #
vertex $-1 $308 $420 #
point $-1 49.071018980422075 26.389481242210053 10.534627972860239 #
coedge $-1 $323 $322 $315 $388 forward $312 $-1 #
edge $-1 $389 33.963236727170866 $392 40.715324575802512 $387 $421 forward 7 unknown #
vertex $-1 $327 $422 #
straight-curve $-1 -53.040827818077162 10.488719030672161 14.904014575533836 -1 0 0 I I #
edge $-1 $392 -7.8968428772379369 $324 2.7130905703694879 $323 $423 forward 7 unknown #
vertex $-1 $391 $424 #
straight-curve $-1 -52.25501266518144 10.488719030672161 8.1519267269021896 0.85716729658548041 0 0.51503808176128008 I I #
point $-1 -41.017651599127603 10.488719030672161 14.904014575533836 #
point $-1 -52.255012665181432 -0.12121441693526336 8.1519267269021931 #
straight-curve $-1 -52.255012665181432 0 14.904014575533836 0 -1 0 I I #
vertex $-1 $330 $425 #
point $-1 -45.344245887387316 2.0007722725862251 10.348380063848632 #
vertex $-1 $334 $426 #
point $-1 -45.344245887387316 5.1837523068684561 10.348380063848632 #
vertex $-1 $338 $427 #
point $-1 -45.344245887387316 8.3667323411506871 10.348380063848632 #
straight-curve $-1 -52.255012665181432 32.897039804145287 0 0 0 -1 I I #
point $-1 -52.255012665181432 -32.897039804145287 -14.904014575533836 #
straight-curve $-1 -52.255012665181432 0 -14.904014575533836 0 1 0 I I #
point $-1 -52.255012665181432 32.897039804145287 -14.904014575533836 #
edge $-1 $363 -3.7783794267861577 $374 3.7783794267861577 $360 $428 forward 7 unknown #
coedge $-1 $361 $370 $365 $411 reversed $270 $-1 #
straight-curve $-1 0 -45.587089327458308 14.904014575533834 1 0 0 I I #
point $-1 -52.255012665181432 -45.587089327458308 14.904014575533834 #
edge $-1 $366 -3.7783794267861577 $372 3.7783794267861577 $365 $429 forward 7 unknown #
point $-1 52.255012665181432 -45.587089327458308 14.904014575533834 #
straight-curve $-1 0 -45.587089327458308 7.3472557219615187 -1 0 0 I I #
point $-1 52.255012665181432 -45.587089327458308 7.3472557219615187 #
point $-1 -52.255012665181432 -45.587089327458308 7.3472557219615187 #
straight-curve $-1 52.255012665181432 22.017412293010924 76.225424384431903 0 0 -1 I I #
point $-1 52.255012665181432 22.017412293010924 14.904014575533836 #
straight-curve $-1 52.255012665181432 13.19474062110503 9.0416307491039305 0 1 0 I I #
point $-1 52.255012665181432 22.017412293010924 9.0416307491039447 #
point $-1 48.384916295218268 26.389481242210053 10.705692596193423 #
straight-curve $-1 -52.255012665181432 10.488719030672161 48.867251302704702 0 0 -1 I I #
point $-1 -52.255012665181432 10.488719030672161 14.904014575533836 #
straight-curve $-1 -52.255012665181432 2.5918761534342245 8.1519267269021967 0 -1 0 I I #
point $-1 -52.255012665181432 10.488719030672161 8.1519267269021931 #
point $-1 -45.515310494799415 2.0007722725862251 9.6622773746752486 #
point $-1 -45.515310494799415 5.1837523068684561 9.6622773746752486 #
point $-1 -45.515310494799415 8.3667323411506871 9.6622773746752486 #
straight-curve $-1 -52.255012665181432 -45.587089327458308 11.125635148747676 0 0 -1 I I #
straight-curve $-1 52.255012665181432 -45.587089327458308 11.125635148747676 0 0 -1 I I #
End-of-ACIS-data 