500 0 11 0           
7 Unknown 11 ACIS 5.0 NT 24 Fri Mar 26 18:39:33 1999 
-1 9.9999999999999995e-007 1e-010 
body $-1 $11 $-1 $12 #
body $-1 $13 $-1 $14 #
body $-1 $15 $-1 $16 #
body $-1 $17 $-1 $18 #
body $-1 $19 $-1 $20 #
body $-1 $21 $-1 $22 #
body $-1 $23 $-1 $24 #
body $-1 $25 $-1 $26 #
body $-1 $27 $-1 $28 #
body $-1 $29 $-1 $30 #
body $-1 $31 $-1 $32 #
lump $-1 $-1 $33 $0 #
transform $-1 1 0 0 0 1 0 0 0 1 74.778893398846407 43.579067802250783 12.43719756318089 1 rotate no_reflect no_shear #
lump $-1 $-1 $34 $1 #
transform $-1 1 0 0 0 1 0 0 0 1 74.778893398846407 43.579067802250783 12.43719756318089 1 rotate no_reflect no_shear #
lump $-1 $-1 $35 $2 #
transform $-1 1 0 0 0 1 0 0 0 1 74.778893398846407 43.579067802250783 12.43719756318089 1 rotate no_reflect no_shear #
lump $-1 $-1 $36 $3 #
transform $-1 1 0 0 0 1 0 0 0 1 74.778893398846407 43.579067802250783 12.43719756318089 1 rotate no_reflect no_shear #
lump $-1 $-1 $37 $4 #
transform $-1 1 0 0 0 1 0 0 0 1 74.778893398846407 43.579067802250783 12.43719756318089 1 rotate no_reflect no_shear #
lump $-1 $-1 $38 $5 #
transform $-1 1 0 0 0 1 0 0 0 1 74.778893398846407 43.579067802250783 12.43719756318089 1 rotate no_reflect no_shear #
lump $-1 $-1 $39 $6 #
transform $-1 1 0 0 0 1 0 0 0 1 74.778893398846407 43.579067802250783 12.43719756318089 1 rotate no_reflect no_shear #
lump $-1 $-1 $40 $7 #
transform $-1 1 0 0 0 1 0 0 0 1 74.778893398846407 43.579067802250783 12.43719756318089 1 rotate no_reflect no_shear #
lump $-1 $-1 $41 $8 #
transform $-1 1 0 0 0 1 0 0 0 1 74.778893398846407 43.579067802250783 12.43719756318089 1 rotate no_reflect no_shear #
lump $-1 $-1 $42 $9 #
transform $-1 1 0 0 0 1 0 0 0 1 74.778893398846407 43.579067802250783 12.43719756318089 1 rotate no_reflect no_shear #
lump $-1 $-1 $43 $10 #
transform $-1 1 0 0 0 1 0 0 0 1 74.778893398846407 43.579067802250783 12.43719756318089 1 rotate no_reflect no_shear #
shell $-1 $-1 $-1 $44 $-1 $11 #
shell $-1 $-1 $-1 $45 $-1 $13 #
shell $-1 $-1 $-1 $46 $-1 $15 #
shell $-1 $-1 $-1 $47 $-1 $17 #
shell $-1 $-1 $-1 $48 $-1 $19 #
shell $-1 $-1 $-1 $49 $-1 $21 #
shell $-1 $-1 $-1 $50 $-1 $23 #
shell $-1 $-1 $-1 $51 $-1 $25 #
shell $-1 $-1 $-1 $52 $-1 $27 #
shell $-1 $-1 $-1 $53 $-1 $29 #
shell $-1 $-1 $-1 $54 $-1 $31 #
face $-1 $55 $56 $33 $-1 $57 forward single #
face $-1 $58 $59 $34 $-1 $60 forward single #
face $-1 $61 $62 $35 $-1 $63 reversed single #
face $-1 $64 $65 $36 $-1 $66 forward single #
face $-1 $67 $68 $37 $-1 $69 forward single #
face $-1 $70 $71 $38 $-1 $72 reversed single #
face $-1 $73 $74 $39 $-1 $75 forward single #
face $-1 $76 $77 $40 $-1 $78 forward single #
face $-1 $79 $80 $41 $-1 $81 reversed single #
face $-1 $82 $83 $42 $-1 $84 forward single #
face $-1 $85 $86 $43 $-1 $87 forward single #
face $-1 $88 $89 $33 $-1 $90 reversed single #
loop $-1 $-1 $91 $44 #
plane-surface $-1 0 0 12.43719756318089 0 0 1 1 0 0 forward_v I I I I #
face $-1 $92 $93 $34 $-1 $94 reversed single #
loop $-1 $-1 $95 $45 #
plane-surface $-1 0 -35.477361086873913 -6.6375243759531504 0 0 1 1 0 0 forward_v I I I I #
face $-1 $96 $97 $35 $-1 $98 reversed single #
loop $-1 $-1 $99 $46 #
plane-surface $-1 34.421523731523635 -17.894741865215707 211.92094332716925 0 -1 0 -0.55919291073839883 0 -0.82903756765294845 forward_v I I I I #
face $-1 $100 $101 $36 $-1 $102 forward single #
loop $-1 $103 $104 $47 #
cone-surface $-1 67.700997940053014 -24.666822226845227 6.8177554475419573 -0.55919291073839883 0 -0.82903756765294845 0.82903756765294845 0 -0.55919291073839883 1 I I 0 1 1 forward I I I I #
face $-1 $105 $106 $37 $-1 $107 forward single #
loop $-1 $108 $109 $48 #
cone-surface $-1 67.700997940053014 -20.603574009867515 6.8177554475419573 -0.55919291073839883 0 -0.82903756765294845 0.82903756765294845 0 -0.55919291073839883 1 I I 0 1 1 forward I I I I #
face $-1 $110 $111 $38 $-1 $112 reversed single #
loop $-1 $-1 $113 $49 #
plane-surface $-1 34.421523731523635 34.098155295969455 211.92094332716925 0 1 0 0.55919291073839883 0 0.82903756765294845 forward_v I I I I #
face $-1 $114 $115 $39 $-1 $116 forward single #
loop $-1 $117 $118 $50 #
cone-surface $-1 67.700997940053014 36.806987440621278 6.8177554475419573 -0.55919291073839883 0 -0.82903756765294845 0.82903756765294845 0 -0.55919291073839883 1 I I 0 1 1 forward I I I I #
face $-1 $119 $120 $40 $-1 $121 forward single #
loop $-1 $122 $123 $51 #
cone-surface $-1 67.700997940053014 40.87023565759899 6.8177554475419573 -0.55919291073839883 0 -0.82903756765294845 0.82903756765294845 0 -0.55919291073839883 1 I I 0 1 1 forward I I I I #
face $-1 $124 $125 $41 $-1 $126 reversed single #
loop $-1 $-1 $127 $52 #
plane-surface $-1 -191.0071246507494 -27.375654371497035 95.081138064200175 0 1 0 -0.77714596973225614 0 0.62932038083071107 forward_v I I I I #
face $-1 $128 $129 $42 $-1 $130 forward single #
loop $-1 $131 $132 $53 #
cone-surface $-1 -69.098751788029901 -24.206760654371191 5.8622345302157051 0.77714596973225614 0 -0.62932038083071107 0.62932038083071107 0 0.77714596973225614 1 I I 0 1 1 forward I I I I #
face $-1 $133 $134 $43 $-1 $135 forward single #
loop $-1 $136 $137 $54 #
cone-surface $-1 -69.098751788029901 -19.453420078682424 5.8622345302157051 0.77714596973225614 0 -0.62932038083071107 0.62932038083071107 0 0.77714596973225614 1 I I 0 1 1 forward I I I I #
face $-1 $138 $139 $33 $-1 $140 reversed single #
loop $-1 $-1 $141 $55 #
plane-surface $-1 0 0 -12.43719756318089 0 0 1 1 0 0 forward_v I I I I #
coedge $-1 $142 $143 $144 $145 forward $56 $-1 #
face $-1 $146 $147 $34 $-1 $148 reversed single #
loop $-1 $-1 $149 $58 #
plane-surface $-1 0 -27.375654371497038 -9.5373609695670201 0 -1 0 0 0 -1 forward_v I I I I #
coedge $-1 $150 $151 $152 $153 reversed $59 $-1 #
face $-1 $154 $155 $35 $-1 $156 reversed single #
loop $-1 $-1 $157 $61 #
plane-surface $-1 -49.210130391471083 -22.635198118356371 87.931919536851765 0.55919291073839883 0 0.82903756765294845 0.82903756765294845 0 -0.55919291073839883 forward_v I I I I #
coedge $-1 $158 $159 $160 $161 reversed $62 $-1 #
face $-1 $-1 $162 $36 $-1 $163 forward single #
loop $-1 $164 $165 $64 #
cone-surface $-1 66.375254915843982 -24.666822226845227 4.8522606227384824 -0.55919291073839883 0 -0.82903756765294845 0.41451878382647422 0 -0.27959645536919941 1 I I -0.70710678118654746 0.70710678118654746 0.5 forward I I I I #
loop $-1 $-1 $166 $47 #
coedge $-1 $104 $104 $167 $168 reversed $65 $-1 #
face $-1 $-1 $169 $37 $-1 $170 forward single #
loop $-1 $171 $172 $67 #
cone-surface $-1 66.375254915843982 -20.603574009867515 4.8522606227384824 -0.55919291073839883 0 -0.82903756765294845 0.41451878382647422 0 -0.27959645536919941 1 I I -0.70710678118654746 0.70710678118654746 0.5 forward I I I I #
loop $-1 $-1 $173 $48 #
coedge $-1 $109 $109 $174 $175 reversed $68 $-1 #
face $-1 $176 $177 $38 $-1 $178 reversed single #
loop $-1 $-1 $179 $70 #
plane-surface $-1 -49.210130391471083 38.838611549110119 87.931919536851765 0.55919291073839883 0 0.82903756765294845 0.82903756765294845 0 -0.55919291073839883 forward_v I I I I #
coedge $-1 $180 $181 $182 $183 reversed $71 $-1 #
face $-1 $-1 $184 $39 $-1 $185 forward single #
loop $-1 $186 $187 $73 #
cone-surface $-1 66.375254915843982 36.806987440621278 4.8522606227384824 -0.55919291073839883 0 -0.82903756765294845 0.41451878382647422 0 -0.27959645536919941 1 I I -0.70710678118654746 0.70710678118654746 0.5 forward I I I I #
loop $-1 $-1 $188 $50 #
coedge $-1 $118 $118 $189 $190 reversed $74 $-1 #
face $-1 $-1 $191 $40 $-1 $192 forward single #
loop $-1 $193 $194 $76 #
cone-surface $-1 66.375254915843982 40.87023565759899 4.8522606227384824 -0.55919291073839883 0 -0.82903756765294845 0.41451878382647422 0 -0.27959645536919941 1 I I -0.70710678118654746 0.70710678118654746 0.5 forward I I I I #
loop $-1 $-1 $195 $51 #
coedge $-1 $123 $123 $196 $197 reversed $77 $-1 #
face $-1 $198 $199 $41 $-1 $200 reversed single #
loop $-1 $-1 $201 $79 #
plane-surface $-1 -74.778893398846407 -21.830090366526804 0.9613747204778349 -0.77714596973225614 0 0.62932038083071107 0.62932038083071107 0 0.77714596973225614 forward_v I I I I #
coedge $-1 $202 $203 $204 $205 reversed $80 $-1 #
face $-1 $-1 $206 $42 $-1 $207 forward single #
loop $-1 $208 $209 $82 #
cone-surface $-1 -67.676506120316972 -24.206760654371191 4.710522728186687 0.77714596973225614 0 -0.62932038083071107 0.31466019041535553 0 0.38857298486612807 1 I I -0.70710678118654746 0.70710678118654746 0.5 forward I I I I #
loop $-1 $-1 $210 $53 #
coedge $-1 $132 $132 $211 $212 reversed $83 $-1 #
face $-1 $-1 $213 $43 $-1 $214 forward single #
loop $-1 $215 $216 $85 #
cone-surface $-1 -67.676506120316972 -19.453420078682424 4.710522728186687 0.77714596973225614 0 -0.62932038083071107 0.31466019041535553 0 0.38857298486612807 1 I I -0.70710678118654746 0.70710678118654746 0.5 forward I I I I #
loop $-1 $-1 $217 $54 #
coedge $-1 $137 $137 $218 $219 reversed $86 $-1 #
face $-1 $220 $221 $33 $-1 $222 reversed single #
loop $-1 $-1 $223 $88 #
plane-surface $-1 0 -43.579067802250783 0 0 1 0 0 0 1 forward_v I I I I #
coedge $-1 $224 $225 $226 $227 forward $89 $-1 #
coedge $-1 $228 $91 $229 $230 forward $56 $-1 #
coedge $-1 $91 $228 $231 $232 forward $56 $-1 #
coedge $-1 $233 $234 $91 $145 reversed $235 $-1 #
edge $-1 $236 -43.579067802250783 $237 43.579067802250783 $144 $238 forward 7 unknown #
face $-1 $239 $240 $34 $-1 $241 reversed single #
loop $-1 $-1 $242 $92 #
plane-surface $-1 0 0 -12.43719756318089 0 0 1 1 0 0 forward_v I I I I #
coedge $-1 $243 $244 $245 $246 reversed $93 $-1 #
coedge $-1 $247 $95 $244 $248 forward $59 $-1 #
coedge $-1 $95 $247 $249 $250 reversed $59 $-1 #
coedge $-1 $251 $245 $95 $153 forward $240 $-1 #
edge $-1 $252 9.6369738280600821 $253 25.840387258813834 $152 $254 forward 7 unknown #
face $-1 $255 $256 $35 $-1 $257 reversed single #
loop $-1 $-1 $258 $96 #
plane-surface $-1 34.421523731523635 -27.375654371497035 211.92094332716925 0 1 0 0.55919291073839883 0 0.82903756765294845 forward_v I I I I #
coedge $-1 $259 $260 $261 $262 reversed $97 $-1 #
coedge $-1 $159 $99 $263 $264 reversed $62 $-1 #
coedge $-1 $99 $158 $259 $265 reversed $62 $-1 #
coedge $-1 $261 $266 $99 $161 forward $267 $-1 #
edge $-1 $268 -57.568131533084589 $269 -45.504633753177409 $160 $270 forward 7 unknown #
loop $-1 $-1 $167 $100 #
plane-surface $-1 -49.210130391471083 -22.635198118356371 87.931919536851765 0.55919291073839883 0 0.82903756765294845 0.82903756765294845 0 -0.55919291073839883 forward_v I I I I #
loop $-1 $-1 $271 $64 #
coedge $-1 $165 $165 $166 $272 reversed $101 $-1 #
coedge $-1 $166 $166 $165 $272 forward $103 $-1 #
coedge $-1 $167 $167 $104 $168 forward $162 $-1 #
edge $-1 $273 0 $273 6.2831853071796004 $167 $274 forward 7 unknown #
loop $-1 $-1 $174 $105 #
plane-surface $-1 -49.210130391471083 -22.635198118356371 87.931919536851765 0.55919291073839883 0 0.82903756765294845 0.82903756765294845 0 -0.55919291073839883 forward_v I I I I #
loop $-1 $-1 $275 $67 #
coedge $-1 $172 $172 $173 $276 reversed $106 $-1 #
coedge $-1 $173 $173 $172 $276 forward $108 $-1 #
coedge $-1 $174 $174 $109 $175 forward $169 $-1 #
edge $-1 $277 0 $277 6.2831853071796004 $174 $278 forward 7 unknown #
face $-1 $279 $280 $38 $-1 $281 forward single #
loop $-1 $-1 $182 $110 #
plane-surface $-1 74.778893398846407 0 0 -1 0 0 0 0 1 forward_v I I I I #
coedge $-1 $282 $283 $284 $285 reversed $111 $-1 #
coedge $-1 $181 $113 $286 $287 reversed $71 $-1 #
coedge $-1 $113 $180 $282 $288 reversed $71 $-1 #
coedge $-1 $284 $289 $113 $183 forward $177 $-1 #
edge $-1 $290 93.523274100403739 $291 101.66020624972758 $182 $292 forward 7 unknown #
loop $-1 $-1 $189 $114 #
plane-surface $-1 -49.210130391471083 38.838611549110119 87.931919536851765 0.55919291073839883 0 0.82903756765294845 0.82903756765294845 0 -0.55919291073839883 forward_v I I I I #
loop $-1 $-1 $293 $73 #
coedge $-1 $187 $187 $188 $294 reversed $115 $-1 #
coedge $-1 $188 $188 $187 $294 forward $117 $-1 #
coedge $-1 $189 $189 $118 $190 forward $184 $-1 #
edge $-1 $295 0 $295 6.2831853071796004 $189 $296 forward 7 unknown #
loop $-1 $-1 $196 $119 #
plane-surface $-1 -49.210130391471083 38.838611549110119 87.931919536851765 0.55919291073839883 0 0.82903756765294845 0.82903756765294845 0 -0.55919291073839883 forward_v I I I I #
loop $-1 $-1 $297 $76 #
coedge $-1 $194 $194 $195 $298 reversed $120 $-1 #
coedge $-1 $195 $195 $194 $298 forward $122 $-1 #
coedge $-1 $196 $196 $123 $197 forward $191 $-1 #
edge $-1 $299 0 $299 6.2831853071796004 $196 $300 forward 7 unknown #
face $-1 $301 $302 $41 $-1 $303 reversed single #
loop $-1 $-1 $304 $124 #
plane-surface $-1 -191.0071246507494 -16.284526361556573 95.081138064200175 0 -1 0 0.77714596973225614 0 -0.62932038083071107 forward_v I I I I #
coedge $-1 $305 $306 $307 $308 reversed $125 $-1 #
coedge $-1 $203 $127 $309 $310 reversed $80 $-1 #
coedge $-1 $127 $202 $305 $311 reversed $80 $-1 #
coedge $-1 $307 $312 $127 $205 forward $313 $-1 #
edge $-1 $314 20.724668926528295 $315 30.017606782467752 $204 $316 forward 7 unknown #
loop $-1 $-1 $211 $128 #
plane-surface $-1 -74.778893398846407 -21.830090366526804 0.9613747204778349 -0.77714596973225614 0 0.62932038083071107 0.62932038083071107 0 0.77714596973225614 forward_v I I I I #
loop $-1 $-1 $317 $82 #
coedge $-1 $209 $209 $210 $318 reversed $129 $-1 #
coedge $-1 $210 $210 $209 $318 forward $131 $-1 #
coedge $-1 $211 $211 $132 $212 forward $206 $-1 #
edge $-1 $319 0 $319 6.2831853071796004 $211 $320 forward 7 unknown #
loop $-1 $-1 $218 $133 #
plane-surface $-1 -74.778893398846407 -21.830090366526804 0.9613747204778349 -0.77714596973225614 0 0.62932038083071107 0.62932038083071107 0 0.77714596973225614 forward_v I I I I #
loop $-1 $-1 $321 $85 #
coedge $-1 $216 $216 $217 $322 reversed $134 $-1 #
coedge $-1 $217 $217 $216 $322 forward $136 $-1 #
coedge $-1 $218 $218 $137 $219 forward $213 $-1 #
edge $-1 $323 0 $323 6.2831853071796004 $218 $324 forward 7 unknown #
face $-1 $325 $326 $33 $-1 $327 reversed single #
loop $-1 $-1 $328 $138 #
plane-surface $-1 -74.778893398846407 0 0 1 0 0 0 0 -1 forward_v I I I I #
coedge $-1 $329 $231 $330 $331 forward $139 $-1 #
coedge $-1 $332 $141 $329 $333 forward $89 $-1 #
coedge $-1 $141 $332 $334 $335 forward $89 $-1 #
coedge $-1 $234 $233 $141 $227 reversed $235 $-1 #
edge $-1 $336 -43.579067802250783 $337 43.579067802250783 $226 $338 forward 7 unknown #
coedge $-1 $143 $142 $339 $340 forward $56 $-1 #
coedge $-1 $341 $342 $142 $230 reversed $326 $-1 #
edge $-1 $237 -74.778893398846407 $343 74.778893398846407 $229 $344 forward 7 unknown #
coedge $-1 $223 $345 $143 $232 reversed $139 $-1 #
edge $-1 $346 -74.778893398846407 $236 74.778893398846407 $231 $347 forward 7 unknown #
coedge $-1 $226 $144 $345 $348 forward $235 $-1 #
coedge $-1 $144 $226 $341 $349 reversed $235 $-1 #
loop $-1 $-1 $233 $325 #
vertex $-1 $145 $350 #
vertex $-1 $145 $351 #
straight-curve $-1 74.778893398846407 0 12.43719756318089 0 1 0 I I #
face $-1 $352 $353 $34 $-1 $354 reversed single #
loop $-1 $-1 $245 $146 #
plane-surface $-1 74.778893398846407 0 0 -1 0 0 0 0 1 forward_v I I I I #
coedge $-1 $355 $356 $243 $357 forward $147 $-1 #
coedge $-1 $358 $149 $242 $357 reversed $93 $-1 #
coedge $-1 $149 $358 $150 $248 reversed $93 $-1 #
coedge $-1 $152 $359 $149 $246 forward $240 $-1 #
edge $-1 $360 -7.6685170783973797 $252 -1.8688438911696403 $245 $361 forward 7 unknown #
coedge $-1 $151 $150 $362 $363 reversed $59 $-1 #
edge $-1 $252 -74.778893398846407 $364 74.778893398846407 $244 $365 forward 7 unknown #
coedge $-1 $366 $367 $151 $250 forward $353 $-1 #
edge $-1 $253 -74.778893398846407 $368 74.778893398846407 $249 $369 forward 7 unknown #
coedge $-1 $359 $152 $367 $370 forward $240 $-1 #
vertex $-1 $153 $371 #
vertex $-1 $370 $372 #
straight-curve $-1 74.778893398846407 -17.738680543436956 -6.6375243759531504 0 -1 0 I I #
face $-1 $-1 $267 $35 $-1 $373 forward single #
loop $-1 $-1 $374 $154 #
plane-surface $-1 74.778893398846407 0 0 -1 0 0 0 0 1 forward_v I I I I #
coedge $-1 $375 $376 $377 $378 reversed $155 $-1 #
coedge $-1 $379 $157 $159 $265 forward $97 $-1 #
coedge $-1 $157 $379 $375 $380 forward $97 $-1 #
coedge $-1 $377 $160 $157 $262 forward $267 $-1 #
edge $-1 $269 6.5771428060375214 $381 16.058055312318849 $261 $382 forward 7 unknown #
coedge $-1 $383 $384 $158 $264 forward $256 $-1 #
edge $-1 $385 -101.66020624972758 $268 -93.523274100403739 $263 $386 forward 7 unknown #
edge $-1 $269 135.00657916779056 $385 149.55778679769278 $159 $387 forward 7 unknown #
coedge $-1 $160 $377 $383 $388 forward $267 $-1 #
loop $-1 $-1 $377 $255 #
vertex $-1 $264 $389 #
vertex $-1 $161 $390 #
straight-curve $-1 17.210761865761818 -17.894741865215707 12.437197563180888 -1 0 0 I I #
coedge $-1 $271 $271 $-1 $391 reversed $164 $-1 #
edge $-1 $392 0 $392 6.2831853071796004 $165 $393 forward 7 unknown #
vertex $-1 $168 $394 #
ellipse-curve $-1 68.747144508892845 -24.666822226845227 8.3687314885189608 0.55919291073839883 0 0.82903756765294845 0.82903756765294845 0 -0.55919291073839883 1 I I #
coedge $-1 $275 $275 $-1 $395 reversed $171 $-1 #
edge $-1 $396 0 $396 6.2831853071796004 $172 $397 forward 7 unknown #
vertex $-1 $175 $398 #
ellipse-curve $-1 68.747144508892845 -20.603574009867515 8.3687314885189608 0.55919291073839883 0 0.82903756765294845 0.82903756765294845 0 -0.55919291073839883 1 I I #
face $-1 $-1 $399 $38 $-1 $400 reversed single #
loop $-1 $-1 $286 $176 #
plane-surface $-1 0 0 12.43719756318089 0 0 1 1 0 0 forward_v I I I I #
coedge $-1 $401 $179 $181 $288 forward $111 $-1 #
coedge $-1 $179 $401 $402 $403 reversed $111 $-1 #
coedge $-1 $404 $182 $179 $285 forward $177 $-1 #
edge $-1 $291 14.678849521414396 $405 24.159762027695724 $284 $406 forward 7 unknown #
coedge $-1 $407 $408 $180 $287 forward $280 $-1 #
edge $-1 $409 45.504633753177409 $290 57.568131533084589 $286 $410 forward 7 unknown #
edge $-1 $291 -149.55778679769278 $409 -135.00657916779056 $181 $411 forward 7 unknown #
coedge $-1 $182 $404 $407 $412 reversed $177 $-1 #
vertex $-1 $412 $413 #
vertex $-1 $183 $414 #
straight-curve $-1 74.778893398846407 34.098155295969455 105.96047166358463 0 0 -1 I I #
coedge $-1 $293 $293 $-1 $415 reversed $186 $-1 #
edge $-1 $416 0 $416 6.2831853071796004 $187 $417 forward 7 unknown #
vertex $-1 $190 $418 #
ellipse-curve $-1 68.747144508892845 36.806987440621278 8.3687314885189608 0.55919291073839883 0 0.82903756765294845 0.82903756765294845 0 -0.55919291073839883 1 I I #
coedge $-1 $297 $297 $-1 $419 reversed $193 $-1 #
edge $-1 $420 0 $420 6.2831853071796004 $194 $421 forward 7 unknown #
vertex $-1 $197 $422 #
ellipse-curve $-1 68.747144508892845 40.87023565759899 8.3687314885189608 0.55919291073839883 0 0.82903756765294845 0.82903756765294845 0 -0.55919291073839883 1 I I #
face $-1 $-1 $313 $41 $-1 $423 forward single #
loop $-1 $-1 $424 $198 #
plane-surface $-1 -74.778893398846407 0 0 1 0 0 0 0 -1 forward_v I I I I #
coedge $-1 $425 $426 $427 $428 reversed $199 $-1 #
coedge $-1 $429 $201 $203 $311 forward $125 $-1 #
coedge $-1 $201 $429 $425 $430 forward $125 $-1 #
coedge $-1 $427 $204 $201 $308 forward $313 $-1 #
edge $-1 $315 -16.460609188233633 $431 -5.3694811782931708 $307 $432 forward 7 unknown #
coedge $-1 $433 $434 $202 $310 forward $302 $-1 #
edge $-1 $435 -46.579194311622253 $314 -35.1033714689192 $309 $436 forward 7 unknown #
edge $-1 $315 -14.766624662103991 $435 0 $203 $437 forward 7 unknown #
coedge $-1 $204 $427 $433 $438 forward $313 $-1 #
loop $-1 $-1 $427 $301 #
vertex $-1 $310 $439 #
vertex $-1 $205 $440 #
straight-curve $-1 -95.503562325374702 -27.375654371497035 12.437197563180888 1 0 0 I I #
coedge $-1 $317 $317 $-1 $441 reversed $208 $-1 #
edge $-1 $442 0 $442 6.2831853071796004 $209 $443 forward 7 unknown #
vertex $-1 $212 $444 #
ellipse-curve $-1 -70.132424470876686 -24.206760654371191 6.6992861418293579 -0.77714596973225614 0 0.62932038083071107 0.62932038083071107 0 0.77714596973225614 1 I I #
coedge $-1 $321 $321 $-1 $445 reversed $215 $-1 #
edge $-1 $446 0 $446 6.2831853071796004 $216 $447 forward 7 unknown #
vertex $-1 $219 $448 #
ellipse-curve $-1 -70.132424470876686 -19.453420078682424 6.6992861418293579 -0.77714596973225614 0 0.62932038083071107 0.62932038083071107 0 0.77714596973225614 1 I I #
face $-1 $-1 $235 $33 $-1 $449 reversed single #
loop $-1 $-1 $341 $220 #
plane-surface $-1 0 43.579067802250783 0 0 -1 0 0 0 -1 forward_v I I I I #
coedge $-1 $450 $339 $342 $451 forward $221 $-1 #
coedge $-1 $345 $223 $224 $333 reversed $139 $-1 #
coedge $-1 $339 $450 $223 $331 reversed $221 $-1 #
edge $-1 $346 -12.43719756318089 $452 12.43719756318089 $330 $453 forward 7 unknown #
coedge $-1 $225 $224 $450 $454 forward $89 $-1 #
edge $-1 $337 -74.778893398846407 $452 74.778893398846407 $329 $455 forward 7 unknown #
coedge $-1 $342 $341 $225 $335 reversed $326 $-1 #
edge $-1 $456 -74.778893398846407 $336 74.778893398846407 $334 $457 forward 7 unknown #
vertex $-1 $227 $458 #
vertex $-1 $348 $459 #
straight-curve $-1 74.778893398846407 0 -12.43719756318089 0 -1 0 I I #
coedge $-1 $328 $330 $228 $340 reversed $221 $-1 #
edge $-1 $343 -43.579067802250783 $346 43.579067802250783 $339 $460 forward 7 unknown #
coedge $-1 $334 $229 $234 $349 forward $326 $-1 #
coedge $-1 $229 $334 $328 $451 reversed $326 $-1 #
vertex $-1 $230 $461 #
straight-curve $-1 0 43.579067802250783 12.43719756318089 -1 0 0 I I #
coedge $-1 $231 $329 $233 $348 reversed $139 $-1 #
vertex $-1 $340 $462 #
straight-curve $-1 0 -43.579067802250783 12.43719756318089 1 0 0 I I #
edge $-1 $236 -12.43719756318089 $337 12.43719756318089 $233 $463 forward 7 unknown #
edge $-1 $237 -12.43719756318089 $336 12.43719756318089 $234 $464 forward 7 unknown #
point $-1 74.778893398846407 -43.579067802250783 12.43719756318089 #
point $-1 74.778893398846407 43.579067802250783 12.43719756318089 #
face $-1 $-1 $465 $34 $-1 $466 reversed single #
loop $-1 $-1 $249 $239 #
plane-surface $-1 0 -43.579067802250783 0 0 1 0 0 0 1 forward_v I I I I #
coedge $-1 $467 $242 $359 $468 forward $147 $-1 #
coedge $-1 $242 $467 $469 $470 forward $147 $-1 #
edge $-1 $471 -74.778893398846407 $360 74.778893398846407 $242 $472 forward 7 unknown #
coedge $-1 $244 $243 $473 $474 reversed $93 $-1 #
coedge $-1 $245 $251 $355 $468 reversed $240 $-1 #
vertex $-1 $468 $475 #
straight-curve $-1 74.778893398846407 -27.375654371497038 -4.76868048478351 0 0 1 I I #
coedge $-1 $473 $476 $247 $363 forward $465 $-1 #
edge $-1 $368 -25.840387258813834 $364 -9.6369738280600821 $362 $477 forward 7 unknown #
vertex $-1 $363 $478 #
straight-curve $-1 0 -27.375654371497038 -6.6375243759531504 -1 0 0 I I #
coedge $-1 $479 $249 $476 $480 forward $353 $-1 #
coedge $-1 $249 $479 $251 $370 reversed $353 $-1 #
vertex $-1 $480 $481 #
straight-curve $-1 0 -43.579067802250783 -6.6375243759531504 -1 0 0 I I #
edge $-1 $253 6.6375243759531504 $482 12.43719756318089 $251 $483 forward 7 unknown #
point $-1 74.778893398846407 -27.375654371497038 -6.6375243759531504 #
point $-1 74.778893398846407 -43.57906780225079 -6.6375243759531504 #
plane-surface $-1 0 0 12.43719756318089 0 0 1 1 0 0 forward_v I I I I #
coedge $-1 $384 $383 $376 $484 forward $256 $-1 #
coedge $-1 $376 $258 $260 $380 reversed $155 $-1 #
coedge $-1 $258 $375 $374 $484 reversed $155 $-1 #
coedge $-1 $266 $261 $258 $378 forward $267 $-1 #
edge $-1 $381 45.504633753177409 $485 57.568131533084589 $377 $486 forward 7 unknown #
coedge $-1 $260 $259 $384 $487 reversed $97 $-1 #
edge $-1 $488 -149.55778679769278 $381 -135.00657916779056 $375 $489 forward 7 unknown #
vertex $-1 $262 $490 #
straight-curve $-1 62.715395618939212 -11.317599059178185 12.437197563180888 0 -1 0 I I #
coedge $-1 $374 $263 $266 $388 reversed $256 $-1 #
coedge $-1 $263 $374 $379 $487 forward $256 $-1 #
vertex $-1 $264 $491 #
straight-curve $-1 74.778893398846407 -17.894741865215707 105.96047166358463 0 0 1 I I #
straight-curve $-1 -49.210130391471083 -17.894741865215707 87.931919536851765 0.82903756765294845 0 -0.55919291073839883 I I #
edge $-1 $485 -27.375654371497035 $268 -17.894741865215707 $383 $492 forward 7 unknown #
point $-1 74.778893398846407 -17.894741865215707 12.43719756318089 #
point $-1 62.715395618939226 -17.894741865215707 12.437197563180888 #
edge $-1 $493 1 $493 0 $271 $-1 forward 7 unknown #
vertex $-1 $272 $494 #
ellipse-curve $-1 66.654851371213184 -24.666822226845227 5.2667794065649565 0.55919291073839883 0 0.82903756765294845 0.82903756765294845 0 -0.55919291073839883 1 I I #
point $-1 69.576182076545777 -24.666822226845227 7.8095385777805602 #
edge $-1 $495 1 $495 0 $275 $-1 forward 7 unknown #
vertex $-1 $276 $496 #
ellipse-curve $-1 66.654851371213184 -20.603574009867515 5.2667794065649565 0.55919291073839883 0 0.82903756765294845 0.82903756765294845 0 -0.55919291073839883 1 I I #
point $-1 69.576182076545777 -20.603574009867515 7.8095385777805602 #
loop $-1 $-1 $402 $279 #
plane-surface $-1 0 43.579067802250783 0 0 -1 0 0 0 -1 forward_v I I I I #
coedge $-1 $283 $282 $408 $497 reversed $111 $-1 #
coedge $-1 $498 $499 $283 $403 forward $399 $-1 #
edge $-1 $405 -104.57381037956458 $500 -90.022602749662326 $402 $501 forward 7 unknown #
coedge $-1 $289 $284 $499 $502 reversed $177 $-1 #
vertex $-1 $285 $503 #
straight-curve $-1 74.778893398846407 19.41930577455506 4.3002654138570477 0 1 0 I I #
coedge $-1 $504 $286 $289 $412 forward $280 $-1 #
coedge $-1 $286 $504 $401 $497 forward $280 $-1 #
vertex $-1 $287 $505 #
straight-curve $-1 17.210761865761818 34.098155295969455 12.437197563180888 1 0 0 I I #
straight-curve $-1 -49.210130391471083 34.098155295969455 87.931919536851765 -0.82903756765294845 0 0.55919291073839883 I I #
edge $-1 $290 34.098155295969455 $506 43.579067802250783 $289 $507 forward 7 unknown #
point $-1 74.778893398846407 34.098155295969455 12.43719756318089 #
point $-1 74.778893398846407 34.098155295969455 4.3002654138570477 #
edge $-1 $508 1 $508 0 $293 $-1 forward 7 unknown #
vertex $-1 $294 $509 #
ellipse-curve $-1 66.654851371213184 36.806987440621278 5.2667794065649565 0.55919291073839883 0 0.82903756765294845 0.82903756765294845 0 -0.55919291073839883 1 I I #
point $-1 69.576182076545777 36.806987440621278 7.8095385777805602 #
edge $-1 $510 1 $510 0 $297 $-1 forward 7 unknown #
vertex $-1 $298 $511 #
ellipse-curve $-1 66.654851371213184 40.87023565759899 5.2667794065649565 0.55919291073839883 0 0.82903756765294845 0.82903756765294845 0 -0.55919291073839883 1 I I #
point $-1 69.576182076545777 40.87023565759899 7.8095385777805602 #
plane-surface $-1 0 0 12.43719756318089 0 0 1 1 0 0 forward_v I I I I #
coedge $-1 $434 $433 $426 $512 forward $302 $-1 #
coedge $-1 $426 $304 $306 $430 reversed $199 $-1 #
coedge $-1 $304 $425 $424 $512 reversed $199 $-1 #
coedge $-1 $312 $307 $304 $428 forward $313 $-1 #
edge $-1 $431 -30.017606782467752 $513 -20.724668926528295 $427 $514 forward 7 unknown #
coedge $-1 $306 $305 $434 $515 reversed $125 $-1 #
edge $-1 $516 0 $431 14.766624662103991 $425 $517 forward 7 unknown #
vertex $-1 $308 $518 #
straight-curve $-1 -65.48595554290695 -10.915045183263402 12.43719756318089 0 1 0 I I #
coedge $-1 $424 $309 $312 $438 reversed $302 $-1 #
coedge $-1 $309 $424 $429 $515 forward $302 $-1 #
vertex $-1 $310 $519 #
straight-curve $-1 -74.778893398846407 -27.375654371497035 47.540569032100088 0 0 1 I I #
straight-curve $-1 -74.778893398846407 -27.375654371497035 0.9613747204778349 -0.62932038083071107 0 -0.77714596973225614 I I #
edge $-1 $513 16.284526361556573 $314 27.375654371497035 $433 $520 forward 7 unknown #
point $-1 -74.778893398846407 -27.375654371497035 12.43719756318089 #
point $-1 -65.48595554290695 -27.375654371497035 12.43719756318089 #
edge $-1 $521 1 $521 0 $317 $-1 forward 7 unknown #
vertex $-1 $318 $522 #
ellipse-curve $-1 -68.065079105183102 -24.206760654371191 5.0251829186020425 -0.77714596973225614 0 0.62932038083071107 0.62932038083071107 0 0.77714596973225614 1 I I #
point $-1 -69.50310409004598 -24.206760654371191 7.476432111561623 #
edge $-1 $523 1 $523 0 $321 $-1 forward 7 unknown #
vertex $-1 $322 $524 #
ellipse-curve $-1 -68.065079105183102 -19.453420078682424 5.0251829186020425 -0.77714596973225614 0 0.62932038083071107 0.62932038083071107 0 0.77714596973225614 1 I I #
point $-1 -69.50310409004598 -19.453420078682424 7.476432111561623 #
plane-surface $-1 74.778893398846407 0 0 -1 0 0 0 0 1 forward_v I I I I #
coedge $-1 $330 $328 $332 $454 reversed $221 $-1 #
edge $-1 $343 -12.43719756318089 $456 12.43719756318089 $342 $525 forward 7 unknown #
vertex $-1 $454 $526 #
straight-curve $-1 -74.778893398846407 -43.579067802250783 0 0 0 -1 I I #
edge $-1 $452 -43.579067802250783 $456 43.579067802250783 $450 $527 forward 7 unknown #
straight-curve $-1 0 -43.579067802250783 -12.43719756318089 -1 0 0 I I #
vertex $-1 $335 $528 #
straight-curve $-1 0 43.579067802250783 -12.43719756318089 1 0 0 I I #
point $-1 74.778893398846407 43.579067802250783 -12.43719756318089 #
point $-1 74.778893398846407 -43.579067802250783 -12.43719756318089 #
straight-curve $-1 -74.778893398846407 0 12.43719756318089 0 -1 0 I I #
point $-1 -74.778893398846407 43.579067802250783 12.43719756318089 #
point $-1 -74.778893398846407 -43.579067802250783 12.43719756318089 #
straight-curve $-1 74.778893398846407 -43.579067802250783 0 0 0 -1 I I #
straight-curve $-1 74.778893398846407 43.579067802250783 0 0 0 -1 I I #
loop $-1 $-1 $473 $352 #
plane-surface $-1 -74.778893398846407 0 0 1 0 0 0 0 -1 forward_v I I I I #
coedge $-1 $356 $355 $479 $529 forward $147 $-1 #
edge $-1 $360 27.375654371497038 $482 43.579067802250783 $359 $530 forward 7 unknown #
coedge $-1 $476 $473 $356 $470 reversed $465 $-1 #
edge $-1 $531 -43.579067802250783 $471 -27.375654371497038 $469 $532 forward 7 unknown #
vertex $-1 $474 $533 #
straight-curve $-1 0 -27.375654371497038 -12.43719756318089 1 0 0 I I #
coedge $-1 $469 $362 $358 $474 forward $465 $-1 #
edge $-1 $364 1.8688438911696403 $471 7.6685170783973797 $473 $534 forward 7 unknown #
point $-1 74.778893398846407 -27.375654371497038 -12.43719756318089 #
coedge $-1 $362 $469 $366 $480 reversed $465 $-1 #
straight-curve $-1 -74.778893398846407 -17.738680543436956 -6.6375243759531504 0 1 0 I I #
point $-1 -74.778893398846407 -27.375654371497038 -6.6375243759531504 #
coedge $-1 $367 $366 $467 $529 reversed $353 $-1 #
edge $-1 $368 6.6375243759531504 $531 12.43719756318089 $476 $535 forward 7 unknown #
point $-1 -74.778893398846407 -43.57906780225079 -6.6375243759531504 #
vertex $-1 $370 $536 #
straight-curve $-1 74.778893398846407 -43.579067802250783 0 0 0 -1 I I #
edge $-1 $485 93.523274100403739 $488 101.66020624972758 $374 $537 forward 7 unknown #
vertex $-1 $388 $538 #
straight-curve $-1 17.210761865761818 -27.375654371497035 12.437197563180888 1 0 0 I I #
edge $-1 $488 -16.058055312318849 $385 -6.5771428060375214 $384 $539 forward 7 unknown #
vertex $-1 $487 $540 #
straight-curve $-1 -49.210130391471083 -27.375654371497035 87.931919536851765 -0.82903756765294845 0 0.55919291073839883 I I #
point $-1 62.715395618939226 -27.375654371497035 12.437197563180888 #
point $-1 74.778893398846407 -17.894741865215707 4.3002654138570477 #
straight-curve $-1 74.778893398846407 0 12.43719756318089 0 1 0 I I #
vertex $-1 $391 $541 #
point $-1 67.48388893886613 -24.666822226845227 4.7075864958265576 #
vertex $-1 $395 $542 #
point $-1 67.48388893886613 -20.603574009867515 4.7075864958265576 #
edge $-1 $500 -24.159762027695724 $409 -14.678849521414396 $408 $543 forward 7 unknown #
coedge $-1 $499 $402 $504 $544 reversed $399 $-1 #
coedge $-1 $402 $498 $404 $502 forward $399 $-1 #
vertex $-1 $403 $545 #
straight-curve $-1 -11.916723998428472 43.579067802250783 62.777198827011148 -0.82903756765294845 0 0.55919291073839883 I I #
edge $-1 $506 -12.43719756318089 $405 -4.3002654138570442 $404 $546 forward 7 unknown #
point $-1 74.778893398846407 43.579067802250783 4.3002654138570442 #
coedge $-1 $408 $407 $498 $544 forward $280 $-1 #
point $-1 62.715395618939226 34.098155295969455 12.437197563180888 #
vertex $-1 $412 $547 #
straight-curve $-1 74.778893398846407 0 12.43719756318089 0 1 0 I I #
vertex $-1 $415 $548 #
point $-1 67.48388893886613 36.806987440621278 4.7075864958265576 #
vertex $-1 $419 $549 #
point $-1 67.48388893886613 40.87023565759899 4.7075864958265576 #
edge $-1 $513 35.1033714689192 $516 46.579194311622253 $424 $550 forward 7 unknown #
vertex $-1 $438 $551 #
straight-curve $-1 -95.503562325374702 -16.284526361556573 12.437197563180888 -1 0 0 I I #
edge $-1 $516 5.3694811782931708 $435 16.460609188233633 $434 $552 forward 7 unknown #
vertex $-1 $515 $553 #
straight-curve $-1 -74.778893398846407 -16.284526361556573 0.9613747204778349 0.62932038083071107 0 0.77714596973225614 I I #
point $-1 -65.48595554290695 -16.284526361556573 12.43719756318089 #
point $-1 -74.778893398846407 -27.375654371497035 0.9613747204778349 #
straight-curve $-1 -74.778893398846407 0 12.43719756318089 0 -1 0 I I #
vertex $-1 $441 $554 #
point $-1 -67.435758724352382 -24.206760654371191 5.8023288883342987 #
vertex $-1 $445 $555 #
point $-1 -67.435758724352382 -19.453420078682424 5.8023288883342987 #
straight-curve $-1 -74.778893398846407 43.579067802250783 0 0 0 -1 I I #
point $-1 -74.778893398846407 -43.579067802250783 -12.43719756318089 #
straight-curve $-1 -74.778893398846407 0 -12.43719756318089 0 1 0 I I #
point $-1 -74.778893398846407 43.579067802250783 -12.43719756318089 #
edge $-1 $482 -74.778893398846407 $531 74.778893398846407 $479 $556 forward 7 unknown #
straight-curve $-1 74.778893398846407 0 -12.43719756318089 0 -1 0 I I #
vertex $-1 $470 $557 #
straight-curve $-1 -74.778893398846407 0 -12.43719756318089 0 1 0 I I #
point $-1 -74.778893398846407 -27.375654371497038 -12.43719756318089 #
straight-curve $-1 -74.778893398846407 -27.375654371497038 -4.76868048478351 0 0 -1 I I #
straight-curve $-1 -74.778893398846407 -43.579067802250783 0 0 0 -1 I I #
point $-1 74.778893398846407 -43.579067802250783 -12.43719756318089 #
straight-curve $-1 74.778893398846407 -27.375654371497035 105.96047166358463 0 0 -1 I I #
point $-1 74.778893398846407 -27.375654371497035 12.43719756318089 #
straight-curve $-1 74.778893398846407 -11.317599059178185 4.3002654138570477 0 1 0 I I #
point $-1 74.778893398846407 -27.375654371497035 4.3002654138570477 #
point $-1 66.09565846047478 -24.666822226845227 4.4377418389120082 #
point $-1 66.09565846047478 -20.603574009867515 4.4377418389120082 #
straight-curve $-1 62.715395618939212 19.41930577455506 12.437197563180888 0 -1 0 I I #
edge $-1 $506 -74.778893398846407 $500 -62.715395618939226 $498 $558 forward 7 unknown #
point $-1 62.715395618939226 43.579067802250783 12.437197563180888 #
straight-curve $-1 74.778893398846407 43.579067802250783 0 0 0 -1 I I #
point $-1 74.778893398846407 43.579067802250783 12.43719756318089 #
point $-1 66.09565846047478 36.806987440621278 4.4377418389120082 #
point $-1 66.09565846047478 40.87023565759899 4.4377418389120082 #
straight-curve $-1 -74.778893398846407 -16.284526361556573 47.540569032100088 0 0 -1 I I #
point $-1 -74.778893398846407 -16.284526361556573 12.43719756318089 #
straight-curve $-1 -74.778893398846407 -10.915045183263402 0.96137472047782646 0 -1 0 I I #
point $-1 -74.778893398846407 -16.284526361556573 0.9613747204778349 #
point $-1 -67.287933135450842 -24.206760654371191 4.3958625377713316 #
point $-1 -67.287933135450842 -19.453420078682424 4.3958625377713316 #
straight-curve $-1 0 -43.579067802250783 -12.43719756318089 -1 0 0 I I #
point $-1 -74.778893398846407 -43.579067802250783 -12.43719756318089 #
straight-curve $-1 0 43.579067802250783 12.43719756318089 -1 0 0 I I #
End-of-ACIS-data 