500 0 10 0           
7 Unknown 11 ACIS 5.0 NT 24 Fri Mar 26 18:10:45 1999 
-1 9.9999999999999995e-007 1e-010 
body $-1 $10 $-1 $11 #
body $-1 $12 $-1 $13 #
body $-1 $14 $-1 $15 #
body $-1 $16 $-1 $17 #
body $-1 $18 $-1 $19 #
body $-1 $20 $-1 $21 #
body $-1 $22 $-1 $23 #
body $-1 $24 $-1 $25 #
body $-1 $26 $-1 $27 #
body $-1 $28 $-1 $29 #
lump $-1 $-1 $30 $0 #
transform $-1 1 0 0 0 1 0 0 0 1 72.530289620654926 39.556643594650531 7.9410260800687036 1 rotate no_reflect no_shear #
lump $-1 $-1 $31 $1 #
transform $-1 1 0 0 0 1 0 0 0 1 72.530289620654926 39.556643594650531 7.9410260800687036 1 rotate no_reflect no_shear #
lump $-1 $-1 $32 $2 #
transform $-1 1 0 0 0 1 0 0 0 1 72.530289620654926 39.556643594650531 7.9410260800687036 1 rotate no_reflect no_shear #
lump $-1 $-1 $33 $3 #
transform $-1 1 0 0 0 1 0 0 0 1 72.530289620654926 39.556643594650531 7.9410260800687036 1 rotate no_reflect no_shear #
lump $-1 $-1 $34 $4 #
transform $-1 1 0 0 0 1 0 0 0 1 72.530289620654926 39.556643594650531 7.9410260800687036 1 rotate no_reflect no_shear #
lump $-1 $-1 $35 $5 #
transform $-1 1 0 0 0 1 0 0 0 1 72.530289620654926 39.556643594650531 7.9410260800687036 1 rotate no_reflect no_shear #
lump $-1 $-1 $36 $6 #
transform $-1 1 0 0 0 1 0 0 0 1 72.530289620654926 39.556643594650531 7.9410260800687036 1 rotate no_reflect no_shear #
lump $-1 $-1 $37 $7 #
transform $-1 1 0 0 0 1 0 0 0 1 72.530289620654926 39.556643594650531 7.9410260800687036 1 rotate no_reflect no_shear #
lump $-1 $-1 $38 $8 #
transform $-1 1 0 0 0 1 0 0 0 1 72.530289620654926 39.556643594650531 7.9410260800687036 1 rotate no_reflect no_shear #
lump $-1 $-1 $39 $9 #
transform $-1 1 0 0 0 1 0 0 0 1 72.530289620654926 39.556643594650531 7.9410260800687036 1 rotate no_reflect no_shear #
shell $-1 $-1 $-1 $40 $-1 $10 #
shell $-1 $-1 $-1 $41 $-1 $12 #
shell $-1 $-1 $-1 $42 $-1 $14 #
shell $-1 $-1 $-1 $43 $-1 $16 #
shell $-1 $-1 $-1 $44 $-1 $18 #
shell $-1 $-1 $-1 $45 $-1 $20 #
shell $-1 $-1 $-1 $46 $-1 $22 #
shell $-1 $-1 $-1 $47 $-1 $24 #
shell $-1 $-1 $-1 $48 $-1 $26 #
shell $-1 $-1 $-1 $49 $-1 $28 #
face $-1 $50 $51 $30 $-1 $52 forward single #
face $-1 $53 $54 $31 $-1 $55 forward single #
face $-1 $56 $57 $32 $-1 $58 reversed single #
face $-1 $59 $60 $33 $-1 $61 forward single #
face $-1 $62 $63 $34 $-1 $64 forward single #
face $-1 $65 $66 $35 $-1 $67 forward single #
face $-1 $68 $69 $36 $-1 $70 reversed single #
face $-1 $71 $72 $37 $-1 $73 forward single #
face $-1 $74 $75 $38 $-1 $76 reversed single #
face $-1 $77 $78 $39 $-1 $79 forward single #
face $-1 $80 $81 $30 $-1 $82 reversed single #
loop $-1 $-1 $83 $40 #
plane-surface $-1 0 0 7.9410260800687036 0 0 1 1 0 0 forward_v I I I I #
face $-1 $84 $85 $31 $-1 $86 reversed single #
loop $-1 $-1 $87 $41 #
plane-surface $-1 0 -39.556643594650531 0 0 1 0 0 0 1 forward_v I I I I #
face $-1 $88 $89 $32 $-1 $90 reversed single #
loop $-1 $-1 $91 $42 #
plane-surface $-1 -182.00889968908186 14.769230625694874 95.609520968858604 0 1 0 -0.75470958851134928 0 0.65605901945558964 forward_v I I I I #
face $-1 $92 $93 $33 $-1 $94 forward single #
loop $-1 $95 $96 $43 #
cone-surface $-1 -68.415704676889959 18.696172423164789 3.4480184167107666 0.75470958851134928 0 -0.65605901945558964 0.98408852918338452 0 1.132064382767024 1 I I 0 1 1.5 forward I I I I #
face $-1 $97 $98 $34 $-1 $99 forward single #
loop $-1 $100 $101 $44 #
cone-surface $-1 -68.415704676889959 24.586585119369651 3.4480184167107666 0.75470958851134928 0 -0.65605901945558964 0.98408852918338452 0 1.132064382767024 1 I I 0 1 1.5 forward I I I I #
face $-1 $102 $103 $35 $-1 $104 forward single #
loop $-1 $105 $106 $45 #
cone-surface $-1 -68.415704676889959 30.476997815574514 3.4480184167107666 0.75470958851134928 0 -0.65605901945558964 0.98408852918338452 0 1.132064382767024 1 I I 0 1 1.5 forward I I I I #
face $-1 $107 $108 $36 $-1 $109 reversed single #
loop $-1 $-1 $110 $46 #
plane-surface $-1 118.67824524201491 -22.701499070756419 202.50831445826444 0 -1 0 -0.84804810408105047 0 -0.52991925155115449 forward_v I I I I #
face $-1 $111 $112 $37 $-1 $113 forward single #
loop $-1 $114 $115 $47 #
cone-surface $-1 69.396241559734662 -27.159835468103005 4.3608403780146325 -0.84804810408105047 0 -0.52991925155115449 0.79487887732673168 0 -1.2720721561215758 1 I I 0 1 1.5 forward I I I I #
face $-1 $116 $117 $38 $-1 $118 reversed single #
loop $-1 $-1 $119 $48 #
plane-surface $-1 118.67824524201491 30.639970799957347 202.50831445826444 0 1 0 0.84804810408105047 0 0.52991925155115449 forward_v I I I I #
face $-1 $120 $121 $39 $-1 $122 forward single #
loop $-1 $123 $124 $49 #
cone-surface $-1 69.396241559734662 35.098307197303932 4.3608403780146325 -0.84804810408105047 0 -0.52991925155115449 0.79487887732673168 0 -1.2720721561215758 1 I I 0 1 1.5 forward I I I I #
face $-1 $125 $126 $30 $-1 $127 reversed single #
loop $-1 $-1 $128 $50 #
plane-surface $-1 0 0 -7.9410260800687036 0 0 1 1 0 0 forward_v I I I I #
coedge $-1 $129 $130 $131 $132 forward $51 $-1 #
face $-1 $133 $134 $31 $-1 $135 forward single #
loop $-1 $-1 $136 $53 #
plane-surface $-1 -72.530289620654926 0 0 1 0 0 0 0 -1 forward_v I I I I #
coedge $-1 $137 $138 $139 $140 forward $54 $-1 #
face $-1 $141 $142 $32 $-1 $143 reversed single #
loop $-1 $-1 $144 $56 #
plane-surface $-1 -72.530289620654926 24.586585119369651 0.44121959014499623 -0.75470958851134928 0 0.65605901945558964 0.65605901945558964 0 0.75470958851134928 forward_v I I I I #
coedge $-1 $145 $146 $147 $148 reversed $57 $-1 #
face $-1 $-1 $149 $33 $-1 $150 forward single #
loop $-1 $151 $152 $59 #
cone-surface $-1 -66.994828617504965 18.696172423164789 2.2128697337229903 0.75470958851134928 0 -0.65605901945558964 0.49204426459169226 0 0.56603219138351202 1 I I -0.70710678118654757 0.70710678118654757 0.75 forward I I I I #
loop $-1 $-1 $153 $43 #
coedge $-1 $96 $96 $154 $155 reversed $60 $-1 #
face $-1 $-1 $156 $34 $-1 $157 forward single #
loop $-1 $158 $159 $62 #
cone-surface $-1 -66.994828617504965 24.586585119369651 2.2128697337229903 0.75470958851134928 0 -0.65605901945558964 0.49204426459169226 0 0.56603219138351202 1 I I -0.70710678118654757 0.70710678118654757 0.75 forward I I I I #
loop $-1 $-1 $160 $44 #
coedge $-1 $101 $101 $161 $162 reversed $63 $-1 #
face $-1 $-1 $163 $35 $-1 $164 forward single #
loop $-1 $165 $166 $65 #
cone-surface $-1 -66.994828617504965 30.476997815574514 2.2128697337229903 0.75470958851134928 0 -0.65605901945558964 0.49204426459169226 0 0.56603219138351202 1 I I -0.70710678118654757 0.70710678118654757 0.75 forward I I I I #
loop $-1 $-1 $167 $45 #
coedge $-1 $106 $106 $168 $169 reversed $66 $-1 #
face $-1 $170 $171 $36 $-1 $172 reversed single #
loop $-1 $-1 $173 $68 #
plane-surface $-1 -4.3401039604768954 -27.159835468103005 125.63792087713259 0.84804810408105047 0 0.52991925155115449 0.52991925155115449 0 -0.84804810408105047 forward_v I I I I #
coedge $-1 $174 $175 $176 $177 reversed $69 $-1 #
face $-1 $-1 $178 $37 $-1 $179 forward single #
loop $-1 $180 $181 $71 #
cone-surface $-1 67.288764248195136 -27.159835468103005 3.0439424400111852 -0.84804810408105047 0 -0.52991925155115449 0.39743943866336584 0 -0.63603607806078788 1 I I -0.70710678118654757 0.70710678118654757 0.75 forward I I I I #
loop $-1 $-1 $182 $47 #
coedge $-1 $115 $115 $183 $184 reversed $72 $-1 #
face $-1 $185 $186 $38 $-1 $187 reversed single #
loop $-1 $-1 $188 $74 #
plane-surface $-1 -4.3401039604768954 35.098307197303932 125.63792087713259 0.84804810408105047 0 0.52991925155115449 0.52991925155115449 0 -0.84804810408105047 forward_v I I I I #
coedge $-1 $189 $190 $191 $192 reversed $75 $-1 #
face $-1 $-1 $193 $39 $-1 $194 forward single #
loop $-1 $195 $196 $77 #
cone-surface $-1 67.288764248195136 35.098307197303932 3.0439424400111852 -0.84804810408105047 0 -0.52991925155115449 0.39743943866336584 0 -0.63603607806078788 1 I I -0.70710678118654757 0.70710678118654757 0.75 forward I I I I #
loop $-1 $-1 $197 $49 #
coedge $-1 $124 $124 $198 $199 reversed $78 $-1 #
face $-1 $200 $201 $30 $-1 $202 reversed single #
loop $-1 $-1 $203 $80 #
plane-surface $-1 0 -39.556643594650531 0 0 1 0 0 0 1 forward_v I I I I #
coedge $-1 $204 $205 $206 $207 forward $81 $-1 #
coedge $-1 $208 $83 $209 $210 forward $51 $-1 #
coedge $-1 $83 $208 $211 $212 forward $51 $-1 #
coedge $-1 $213 $214 $83 $132 reversed $215 $-1 #
edge $-1 $216 -39.556643594650531 $217 39.556643594650531 $131 $218 forward 7 unknown #
face $-1 $219 $220 $31 $-1 $221 reversed single #
loop $-1 $-1 $222 $84 #
plane-surface $-1 0 -43.525879459251001 2.9705440261541787 0 0 1 1 0 0 forward_v I I I I #
coedge $-1 $223 $224 $138 $225 forward $85 $-1 #
coedge $-1 $226 $87 $227 $228 reversed $54 $-1 #
coedge $-1 $87 $226 $136 $225 reversed $54 $-1 #
coedge $-1 $229 $222 $87 $140 reversed $134 $-1 #
edge $-1 $230 -72.530289620654926 $231 72.530289620654926 $139 $232 forward 7 unknown #
face $-1 $233 $234 $32 $-1 $235 forward single #
loop $-1 $-1 $236 $88 #
plane-surface $-1 -182.00889968908186 34.403939613044429 95.609520968858604 0 -1 0 0.75470958851134928 0 -0.65605901945558964 forward_v I I I I #
coedge $-1 $237 $238 $239 $240 reversed $89 $-1 #
coedge $-1 $146 $91 $241 $242 reversed $57 $-1 #
coedge $-1 $91 $145 $237 $243 reversed $57 $-1 #
coedge $-1 $239 $244 $91 $148 forward $234 $-1 #
edge $-1 $245 18.474160223886003 $246 24.993642375412989 $147 $247 forward 7 unknown #
loop $-1 $-1 $154 $92 #
plane-surface $-1 -72.530289620654926 24.586585119369651 0.44121959014499623 -0.75470958851134928 0 0.65605901945558964 0.65605901945558964 0 0.75470958851134928 forward_v I I I I #
loop $-1 $-1 $248 $59 #
coedge $-1 $152 $152 $153 $249 reversed $93 $-1 #
coedge $-1 $153 $153 $152 $249 forward $95 $-1 #
coedge $-1 $154 $154 $96 $155 forward $149 $-1 #
edge $-1 $250 0 $250 6.2831853071796004 $154 $251 forward 7 unknown #
loop $-1 $-1 $161 $97 #
plane-surface $-1 -72.530289620654926 24.586585119369651 0.44121959014499623 -0.75470958851134928 0 0.65605901945558964 0.65605901945558964 0 0.75470958851134928 forward_v I I I I #
loop $-1 $-1 $252 $62 #
coedge $-1 $159 $159 $160 $253 reversed $98 $-1 #
coedge $-1 $160 $160 $159 $253 forward $100 $-1 #
coedge $-1 $161 $161 $101 $162 forward $156 $-1 #
edge $-1 $254 0 $254 6.2831853071796004 $161 $255 forward 7 unknown #
loop $-1 $-1 $168 $102 #
plane-surface $-1 -72.530289620654926 24.586585119369651 0.44121959014499623 -0.75470958851134928 0 0.65605901945558964 0.65605901945558964 0 0.75470958851134928 forward_v I I I I #
loop $-1 $-1 $256 $65 #
coedge $-1 $166 $166 $167 $257 reversed $103 $-1 #
coedge $-1 $167 $167 $166 $257 forward $105 $-1 #
coedge $-1 $168 $168 $106 $169 forward $163 $-1 #
edge $-1 $258 0 $258 6.2831853071796004 $168 $259 forward 7 unknown #
face $-1 $260 $261 $36 $-1 $262 reversed single #
loop $-1 $-1 $263 $107 #
plane-surface $-1 118.67824524201491 -31.61817186544959 202.50831445826444 0 1 0 0.84804810408105047 0 0.52991925155115449 forward_v I I I I #
coedge $-1 $264 $265 $266 $267 reversed $108 $-1 #
coedge $-1 $175 $110 $268 $269 reversed $69 $-1 #
coedge $-1 $110 $174 $264 $270 reversed $69 $-1 #
coedge $-1 $266 $271 $110 $177 forward $272 $-1 #
edge $-1 $273 -13.191166999647471 $274 -9.8659533447644847 $176 $275 forward 7 unknown #
loop $-1 $-1 $183 $111 #
plane-surface $-1 -4.3401039604768954 -27.159835468103005 125.63792087713259 0.84804810408105047 0 0.52991925155115449 0.52991925155115449 0 -0.84804810408105047 forward_v I I I I #
loop $-1 $-1 $276 $71 #
coedge $-1 $181 $181 $182 $277 reversed $112 $-1 #
coedge $-1 $182 $182 $181 $277 forward $114 $-1 #
coedge $-1 $183 $183 $115 $184 forward $178 $-1 #
edge $-1 $278 0 $278 6.2831853071796004 $183 $279 forward 7 unknown #
face $-1 $280 $281 $38 $-1 $282 reversed single #
loop $-1 $-1 $191 $116 #
plane-surface $-1 72.530289620654926 0 0 -1 0 0 0 0 1 forward_v I I I I #
coedge $-1 $283 $284 $285 $286 reversed $117 $-1 #
coedge $-1 $190 $119 $287 $288 reversed $75 $-1 #
coedge $-1 $119 $189 $283 $289 reversed $75 $-1 #
coedge $-1 $285 $290 $119 $192 forward $186 $-1 #
edge $-1 $291 93.313131149063508 $292 98.634585554491395 $191 $293 forward 7 unknown #
loop $-1 $-1 $198 $120 #
plane-surface $-1 -4.3401039604768954 35.098307197303932 125.63792087713259 0.84804810408105047 0 0.52991925155115449 0.52991925155115449 0 -0.84804810408105047 forward_v I I I I #
loop $-1 $-1 $294 $77 #
coedge $-1 $196 $196 $197 $295 reversed $121 $-1 #
coedge $-1 $197 $197 $196 $295 forward $123 $-1 #
coedge $-1 $198 $198 $124 $199 forward $193 $-1 #
edge $-1 $296 0 $296 6.2831853071796004 $198 $297 forward 7 unknown #
face $-1 $298 $299 $30 $-1 $300 reversed single #
loop $-1 $-1 $301 $125 #
plane-surface $-1 -72.530289620654926 0 0 1 0 0 0 0 -1 forward_v I I I I #
coedge $-1 $302 $211 $303 $304 forward $126 $-1 #
coedge $-1 $305 $128 $302 $306 forward $81 $-1 #
coedge $-1 $128 $305 $307 $308 forward $81 $-1 #
coedge $-1 $214 $213 $128 $207 reversed $215 $-1 #
edge $-1 $309 -39.556643594650531 $310 39.556643594650531 $206 $311 forward 7 unknown #
coedge $-1 $130 $129 $312 $313 forward $51 $-1 #
coedge $-1 $314 $315 $129 $210 reversed $299 $-1 #
edge $-1 $217 -72.530289620654926 $316 72.530289620654926 $209 $317 forward 7 unknown #
coedge $-1 $203 $318 $130 $212 reversed $126 $-1 #
edge $-1 $319 -72.530289620654926 $216 72.530289620654926 $211 $320 forward 7 unknown #
coedge $-1 $206 $131 $318 $321 forward $215 $-1 #
coedge $-1 $131 $206 $314 $322 reversed $215 $-1 #
loop $-1 $-1 $213 $298 #
vertex $-1 $132 $323 #
vertex $-1 $132 $324 #
straight-curve $-1 72.530289620654926 0 7.9410260800687036 0 1 0 I I #
face $-1 $325 $326 $31 $-1 $327 reversed single #
loop $-1 $-1 $328 $133 #
plane-surface $-1 0 -43.525879459251001 -0.029455973845821326 0 0 1 1 0 0 forward_v I I I I #
coedge $-1 $139 $329 $330 $331 forward $134 $-1 #
coedge $-1 $332 $136 $333 $334 reversed $85 $-1 #
coedge $-1 $136 $332 $229 $335 reversed $85 $-1 #
edge $-1 $230 -2.9705440261541787 $336 0.029455973845821326 $136 $337 forward 7 unknown #
coedge $-1 $138 $137 $338 $339 forward $54 $-1 #
coedge $-1 $330 $340 $137 $228 forward $341 $-1 #
edge $-1 $342 -0.029455973845821326 $231 2.9705440261541787 $227 $343 forward 7 unknown #
coedge $-1 $329 $139 $224 $335 forward $134 $-1 #
vertex $-1 $225 $344 #
vertex $-1 $331 $345 #
straight-curve $-1 0 -39.556643594650531 2.9705440261541787 1 0 0 I I #
face $-1 $-1 $346 $32 $-1 $347 reversed single #
loop $-1 $-1 $147 $141 #
plane-surface $-1 0 0 7.9410260800687036 0 0 1 1 0 0 forward_v I I I I #
coedge $-1 $348 $349 $350 $351 reversed $142 $-1 #
coedge $-1 $352 $144 $146 $243 forward $89 $-1 #
coedge $-1 $144 $352 $348 $353 forward $89 $-1 #
coedge $-1 $350 $147 $144 $240 forward $234 $-1 #
edge $-1 $246 2.4759380660100483 $354 22.110647053359603 $239 $355 forward 7 unknown #
coedge $-1 $356 $357 $145 $242 forward $346 $-1 #
edge $-1 $358 -47.363540894284306 $245 -39.863734404360599 $241 $359 forward 7 unknown #
edge $-1 $246 -9.9373409376140831 $358 0 $146 $360 forward 7 unknown #
coedge $-1 $147 $350 $356 $361 forward $234 $-1 #
vertex $-1 $242 $362 #
vertex $-1 $148 $363 #
straight-curve $-1 -91.004449844540929 14.769230625694874 7.9410260800687027 1 0 0 I I #
coedge $-1 $248 $248 $-1 $364 reversed $151 $-1 #
edge $-1 $365 0 $365 6.2831853071796004 $152 $366 forward 7 unknown #
vertex $-1 $155 $367 #
ellipse-curve $-1 -69.27054854489144 18.696172423164789 4.1911228351068486 -0.75470958851134928 0 0.65605901945558964 0.98408852918338452 0 1.132064382767024 1 I I #
coedge $-1 $252 $252 $-1 $368 reversed $158 $-1 #
edge $-1 $369 0 $369 6.2831853071796004 $159 $370 forward 7 unknown #
vertex $-1 $162 $371 #
ellipse-curve $-1 -69.27054854489144 24.586585119369651 4.1911228351068486 -0.75470958851134928 0 0.65605901945558964 0.98408852918338452 0 1.132064382767024 1 I I #
coedge $-1 $256 $256 $-1 $372 reversed $165 $-1 #
edge $-1 $373 0 $373 6.2831853071796004 $166 $374 forward 7 unknown #
vertex $-1 $169 $375 #
ellipse-curve $-1 -69.27054854489144 30.476997815574514 4.1911228351068486 -0.75470958851134928 0 0.65605901945558964 0.98408852918338452 0 1.132064382767024 1 I I #
face $-1 $-1 $272 $36 $-1 $376 forward single #
loop $-1 $-1 $377 $170 #
plane-surface $-1 72.530289620654926 0 0 -1 0 0 0 0 1 forward_v I I I I #
coedge $-1 $378 $379 $380 $381 reversed $171 $-1 #
coedge $-1 $382 $173 $175 $270 forward $108 $-1 #
coedge $-1 $173 $382 $378 $383 forward $108 $-1 #
coedge $-1 $380 $176 $173 $267 forward $272 $-1 #
edge $-1 $274 9.1215813367049172 $384 18.038254131398087 $266 $385 forward 7 unknown #
coedge $-1 $386 $387 $174 $269 forward $261 $-1 #
edge $-1 $388 -98.634585554491395 $273 -93.313131149063508 $268 $389 forward 7 unknown #
edge $-1 $274 138.78563519058963 $388 145.0605792413098 $175 $390 forward 7 unknown #
coedge $-1 $176 $380 $386 $391 forward $272 $-1 #
loop $-1 $-1 $380 $260 #
vertex $-1 $269 $392 #
vertex $-1 $177 $393 #
straight-curve $-1 59.339122621007455 -22.701499070756419 7.9410260800687098 -1 0 0 I I #
coedge $-1 $276 $276 $-1 $394 reversed $180 $-1 #
edge $-1 $395 0 $395 6.2831853071796004 $181 $396 forward 7 unknown #
vertex $-1 $184 $397 #
ellipse-curve $-1 70.867682793213461 -27.159835468103005 5.2802988773547446 0.84804810408105047 0 0.52991925155115449 0.79487887732673168 0 -1.2720721561215758 1 I I #
face $-1 $-1 $398 $38 $-1 $399 forward single #
loop $-1 $-1 $400 $185 #
plane-surface $-1 0 39.556643594650531 0 0 -1 0 0 0 -1 forward_v I I I I #
coedge $-1 $401 $188 $190 $289 forward $117 $-1 #
coedge $-1 $188 $401 $400 $402 reversed $117 $-1 #
coedge $-1 $403 $191 $188 $286 forward $186 $-1 #
edge $-1 $292 13.090817201305381 $404 22.007489995998565 $285 $405 forward 7 unknown #
coedge $-1 $406 $407 $189 $288 forward $398 $-1 #
edge $-1 $408 9.8659533447644847 $291 13.191166999647471 $287 $409 forward 7 unknown #
edge $-1 $292 -145.0605792413098 $408 -138.78563519058963 $190 $410 forward 7 unknown #
coedge $-1 $191 $403 $406 $411 reversed $186 $-1 #
vertex $-1 $411 $412 #
vertex $-1 $192 $413 #
straight-curve $-1 72.530289620654926 30.639970799957347 101.25415722913222 0 0 -1 I I #
coedge $-1 $294 $294 $-1 $414 reversed $195 $-1 #
edge $-1 $415 0 $415 6.2831853071796004 $196 $416 forward 7 unknown #
vertex $-1 $199 $417 #
ellipse-curve $-1 70.867682793213461 35.098307197303932 5.2802988773547446 0.84804810408105047 0 0.52991925155115449 0.79487887732673168 0 -1.2720721561215758 1 I I #
face $-1 $-1 $215 $30 $-1 $418 reversed single #
loop $-1 $-1 $314 $200 #
plane-surface $-1 0 39.556643594650531 0 0 -1 0 0 0 -1 forward_v I I I I #
coedge $-1 $419 $312 $315 $420 forward $201 $-1 #
coedge $-1 $318 $203 $204 $306 reversed $126 $-1 #
coedge $-1 $312 $419 $203 $304 reversed $201 $-1 #
edge $-1 $319 -7.9410260800687036 $421 7.9410260800687036 $303 $422 forward 7 unknown #
coedge $-1 $205 $204 $419 $423 forward $81 $-1 #
edge $-1 $310 -72.530289620654926 $421 72.530289620654926 $302 $424 forward 7 unknown #
coedge $-1 $315 $314 $205 $308 reversed $299 $-1 #
edge $-1 $425 -72.530289620654926 $309 72.530289620654926 $307 $426 forward 7 unknown #
vertex $-1 $207 $427 #
vertex $-1 $321 $428 #
straight-curve $-1 72.530289620654926 0 -7.9410260800687036 0 -1 0 I I #
coedge $-1 $301 $303 $208 $313 reversed $201 $-1 #
edge $-1 $316 -39.556643594650531 $319 39.556643594650531 $312 $429 forward 7 unknown #
coedge $-1 $307 $209 $214 $322 forward $299 $-1 #
coedge $-1 $209 $307 $301 $420 reversed $299 $-1 #
vertex $-1 $210 $430 #
straight-curve $-1 0 39.556643594650531 7.9410260800687036 -1 0 0 I I #
coedge $-1 $211 $302 $213 $321 reversed $126 $-1 #
vertex $-1 $313 $431 #
straight-curve $-1 0 -39.556643594650531 7.9410260800687036 1 0 0 I I #
edge $-1 $216 -7.9410260800687036 $310 7.9410260800687036 $213 $432 forward 7 unknown #
edge $-1 $217 -7.9410260800687036 $309 7.9410260800687036 $214 $433 forward 7 unknown #
point $-1 72.530289620654926 -39.556643594650531 7.9410260800687036 #
point $-1 72.530289620654926 39.556643594650531 7.9410260800687036 #
face $-1 $-1 $341 $31 $-1 $434 reversed single #
loop $-1 $-1 $435 $219 #
plane-surface $-1 0 -47.495115323851472 1.4705440261541787 0 1 0 0 0 1 forward_v I I I I #
coedge $-1 $436 $338 $340 $437 forward $220 $-1 #
coedge $-1 $222 $229 $438 $439 forward $134 $-1 #
coedge $-1 $440 $227 $222 $331 reversed $341 $-1 #
edge $-1 $441 -3.9692358646004706 $231 3.9692358646004706 $330 $442 forward 7 unknown #
coedge $-1 $224 $223 $435 $443 reversed $85 $-1 #
coedge $-1 $338 $436 $223 $334 forward $220 $-1 #
edge $-1 $444 -3.9692358646004706 $336 3.9692358646004706 $223 $445 forward 7 unknown #
edge $-1 $230 -3.9692358646004706 $446 3.9692358646004706 $224 $447 forward 7 unknown #
vertex $-1 $225 $448 #
straight-curve $-1 -72.530289620654926 -39.556643594650531 0 0 0 -1 I I #
coedge $-1 $328 $333 $226 $339 reversed $220 $-1 #
edge $-1 $342 -72.530289620654926 $336 72.530289620654926 $338 $449 forward 7 unknown #
coedge $-1 $227 $440 $328 $437 reversed $341 $-1 #
loop $-1 $-1 $227 $325 #
vertex $-1 $228 $450 #
straight-curve $-1 72.530289620654926 -39.556643594650531 0 0 0 1 I I #
point $-1 -72.530289620654926 -39.556643594650531 2.9705440261541787 #
point $-1 72.530289620654926 -39.556643594650531 2.9705440261541787 #
loop $-1 $-1 $241 $233 #
plane-surface $-1 -72.530289620654926 0 0 1 0 0 0 0 -1 forward_v I I I I #
coedge $-1 $349 $236 $238 $353 reversed $142 $-1 #
coedge $-1 $236 $348 $451 $452 reversed $142 $-1 #
coedge $-1 $244 $239 $236 $351 forward $234 $-1 #
edge $-1 $354 -24.993642375412989 $453 -18.474160223886003 $350 $454 forward 7 unknown #
coedge $-1 $238 $237 $357 $455 reversed $89 $-1 #
edge $-1 $456 0 $354 9.9373409376140831 $348 $457 forward 7 unknown #
vertex $-1 $240 $458 #
straight-curve $-1 -66.01080746912794 12.293292559684826 7.9410260800687009 0 1 0 I I #
coedge $-1 $451 $241 $244 $361 reversed $346 $-1 #
coedge $-1 $241 $451 $352 $455 forward $346 $-1 #
vertex $-1 $242 $459 #
straight-curve $-1 -72.530289620654926 14.769230625694874 47.804760484429302 0 0 1 I I #
straight-curve $-1 -72.530289620654926 14.769230625694874 0.44121959014499623 -0.65605901945558964 0 -0.75470958851134928 I I #
edge $-1 $453 -34.403939613044429 $245 -14.769230625694874 $356 $460 forward 7 unknown #
point $-1 -72.530289620654926 14.769230625694874 7.9410260800687036 #
point $-1 -66.01080746912794 14.769230625694874 7.9410260800687036 #
edge $-1 $461 1 $461 0 $248 $-1 forward 7 unknown #
vertex $-1 $249 $462 #
ellipse-curve $-1 -67.560860808888478 18.696172423164789 2.7049139983146828 -0.75470958851134928 0 0.65605901945558964 0.98408852918338452 0 1.132064382767024 1 I I #
point $-1 -68.286460015708045 18.696172423164789 5.3231872178738744 #
edge $-1 $463 1 $463 0 $252 $-1 forward 7 unknown #
vertex $-1 $253 $464 #
ellipse-curve $-1 -67.560860808888478 24.586585119369651 2.7049139983146828 -0.75470958851134928 0 0.65605901945558964 0.98408852918338452 0 1.132064382767024 1 I I #
point $-1 -68.286460015708045 24.586585119369651 5.3231872178738744 #
edge $-1 $465 1 $465 0 $256 $-1 forward 7 unknown #
vertex $-1 $257 $466 #
ellipse-curve $-1 -67.560860808888478 30.476997815574514 2.7049139983146828 -0.75470958851134928 0 0.65605901945558964 0.98408852918338452 0 1.132064382767024 1 I I #
point $-1 -68.286460015708045 30.476997815574514 5.3231872178738744 #
plane-surface $-1 0 0 7.9410260800687036 0 0 1 1 0 0 forward_v I I I I #
coedge $-1 $387 $386 $379 $467 forward $261 $-1 #
coedge $-1 $379 $263 $265 $383 reversed $171 $-1 #
coedge $-1 $263 $378 $377 $467 reversed $171 $-1 #
coedge $-1 $271 $266 $263 $381 forward $272 $-1 #
edge $-1 $384 9.8659533447644847 $468 13.191166999647471 $380 $469 forward 7 unknown #
coedge $-1 $265 $264 $387 $470 reversed $108 $-1 #
edge $-1 $471 -145.0605792413098 $384 -138.78563519058963 $378 $472 forward 7 unknown #
vertex $-1 $267 $473 #
straight-curve $-1 69.20507596577194 -13.579917734051502 7.9410260800687098 0 -1 0 I I #
coedge $-1 $377 $268 $271 $391 reversed $261 $-1 #
coedge $-1 $268 $377 $382 $470 forward $261 $-1 #
vertex $-1 $269 $474 #
straight-curve $-1 72.530289620654926 -22.701499070756419 101.25415722913222 0 0 1 I I #
straight-curve $-1 -4.3401039604768954 -22.701499070756419 125.63792087713259 0.52991925155115449 0 -0.84804810408105047 I I #
edge $-1 $468 -31.61817186544959 $273 -22.701499070756419 $386 $475 forward 7 unknown #
point $-1 72.530289620654926 -22.701499070756419 7.9410260800687036 #
point $-1 69.20507596577194 -22.701499070756419 7.9410260800687098 #
edge $-1 $476 1 $476 0 $276 $-1 forward 7 unknown #
vertex $-1 $277 $477 #
ellipse-curve $-1 67.924800326255919 -27.159835468103005 3.4413818786745511 0.84804810408105047 0 0.52991925155115449 0.79487887732673168 0 -1.2720721561215758 1 I I #
point $-1 71.662561670540143 -27.159835468103005 4.0082267212331377 #
loop $-1 $-1 $287 $280 #
plane-surface $-1 0 0 7.9410260800687036 0 0 1 1 0 0 forward_v I I I I #
coedge $-1 $478 $479 $284 $402 forward $281 $-1 #
coedge $-1 $284 $283 $407 $480 reversed $117 $-1 #
edge $-1 $404 -90.637126619846072 $481 -84.362182569125935 $400 $482 forward 7 unknown #
coedge $-1 $290 $285 $479 $483 reversed $186 $-1 #
vertex $-1 $402 $484 #
straight-curve $-1 72.530289620654926 17.549153598651966 2.6195716746408237 0 1 0 I I #
coedge $-1 $485 $287 $290 $411 forward $398 $-1 #
coedge $-1 $287 $485 $401 $480 forward $398 $-1 #
vertex $-1 $288 $486 #
straight-curve $-1 59.339122621007455 30.639970799957347 7.9410260800687098 1 0 0 I I #
straight-curve $-1 -4.3401039604768954 30.639970799957347 125.63792087713259 -0.52991925155115449 0 0.84804810408105047 I I #
edge $-1 $291 30.639970799957347 $487 39.556643594650531 $290 $488 forward 7 unknown #
point $-1 72.530289620654926 30.639970799957347 7.9410260800687036 #
point $-1 72.530289620654926 30.639970799957347 2.6195716746408237 #
edge $-1 $489 1 $489 0 $294 $-1 forward 7 unknown #
vertex $-1 $295 $490 #
ellipse-curve $-1 67.924800326255919 35.098307197303932 3.4413818786745511 0.84804810408105047 0 0.52991925155115449 0.79487887732673168 0 -1.2720721561215758 1 I I #
point $-1 71.662561670540143 35.098307197303932 4.0082267212331377 #
plane-surface $-1 72.530289620654926 0 0 -1 0 0 0 0 1 forward_v I I I I #
coedge $-1 $303 $301 $305 $423 reversed $201 $-1 #
edge $-1 $316 -7.9410260800687036 $425 7.9410260800687036 $315 $491 forward 7 unknown #
vertex $-1 $423 $492 #
straight-curve $-1 -72.530289620654926 -39.556643594650531 0 0 0 -1 I I #
edge $-1 $421 -39.556643594650531 $425 39.556643594650531 $419 $493 forward 7 unknown #
straight-curve $-1 0 -39.556643594650531 -7.9410260800687036 -1 0 0 I I #
vertex $-1 $308 $494 #
straight-curve $-1 0 39.556643594650531 -7.9410260800687036 1 0 0 I I #
point $-1 72.530289620654926 39.556643594650531 -7.9410260800687036 #
point $-1 72.530289620654926 -39.556643594650531 -7.9410260800687036 #
straight-curve $-1 -72.530289620654926 0 7.9410260800687036 0 -1 0 I I #
point $-1 -72.530289620654926 39.556643594650531 7.9410260800687036 #
point $-1 -72.530289620654926 -39.556643594650531 7.9410260800687036 #
straight-curve $-1 72.530289620654926 -39.556643594650531 0 0 0 -1 I I #
straight-curve $-1 72.530289620654926 39.556643594650531 0 0 0 -1 I I #
plane-surface $-1 72.530289620654926 0 0 -1 0 0 0 0 1 forward_v I I I I #
coedge $-1 $495 $438 $332 $443 forward $326 $-1 #
coedge $-1 $333 $328 $495 $496 forward $220 $-1 #
edge $-1 $342 -3.9692358646004706 $497 3.9692358646004706 $340 $498 forward 7 unknown #
coedge $-1 $435 $499 $329 $439 reversed $326 $-1 #
edge $-1 $446 -72.530289620654926 $441 72.530289620654926 $438 $500 forward 7 unknown #
coedge $-1 $340 $330 $499 $501 forward $341 $-1 #
vertex $-1 $331 $502 #
straight-curve $-1 72.530289620654926 -43.525879459251001 2.9705440261541787 0 1 0 I I #
edge $-1 $446 -1.5 $444 1.5 $332 $503 forward 7 unknown #
vertex $-1 $334 $504 #
straight-curve $-1 -72.530289620654926 -43.525879459251001 -0.029455973845821326 0 1 0 I I #
vertex $-1 $335 $505 #
straight-curve $-1 -72.530289620654926 -43.525879459251001 2.9705440261541787 0 -1 0 I I #
point $-1 -72.530289620654926 -39.556643594650531 -0.029455973845821326 #
straight-curve $-1 0 -39.556643594650531 -0.029455973845821326 -1 0 0 I I #
point $-1 72.530289620654926 -39.556643594650531 -0.029455973845821326 #
coedge $-1 $357 $356 $349 $452 forward $346 $-1 #
edge $-1 $453 39.863734404360599 $456 47.363540894284306 $451 $506 forward 7 unknown #
vertex $-1 $361 $507 #
straight-curve $-1 -91.004449844540929 34.403939613044429 7.9410260800687027 -1 0 0 I I #
edge $-1 $456 -22.110647053359603 $358 -2.4759380660100483 $357 $508 forward 7 unknown #
vertex $-1 $455 $509 #
straight-curve $-1 -72.530289620654926 34.403939613044429 0.44121959014499623 0.65605901945558964 0 0.75470958851134928 I I #
point $-1 -66.01080746912794 34.403939613044429 7.9410260800687036 #
point $-1 -72.530289620654926 14.769230625694874 0.44121959014499623 #
straight-curve $-1 -72.530289620654926 0 7.9410260800687036 0 -1 0 I I #
vertex $-1 $364 $510 #
point $-1 -66.576772279705096 18.696172423164789 3.8369783810817069 #
vertex $-1 $368 $511 #
point $-1 -66.576772279705096 24.586585119369651 3.8369783810817069 #
vertex $-1 $372 $512 #
point $-1 -66.576772279705096 30.476997815574514 3.8369783810817069 #
edge $-1 $468 93.313131149063508 $471 98.634585554491395 $377 $513 forward 7 unknown #
vertex $-1 $391 $514 #
straight-curve $-1 59.339122621007455 -31.61817186544959 7.9410260800687098 1 0 0 I I #
edge $-1 $471 -18.038254131398087 $388 -9.1215813367049172 $387 $515 forward 7 unknown #
vertex $-1 $470 $516 #
straight-curve $-1 -4.3401039604768954 -31.61817186544959 125.63792087713259 -0.52991925155115449 0 0.84804810408105047 I I #
point $-1 69.20507596577194 -31.61817186544959 7.9410260800687098 #
point $-1 72.530289620654926 -22.701499070756419 2.6195716746408237 #
straight-curve $-1 72.530289620654926 0 7.9410260800687036 0 1 0 I I #
vertex $-1 $394 $517 #
point $-1 68.719679203582658 -27.159835468103005 2.1693097225529754 #
coedge $-1 $479 $400 $485 $518 reversed $281 $-1 #
coedge $-1 $400 $478 $403 $483 forward $281 $-1 #
edge $-1 $481 -22.007489995998551 $408 -13.090817201305381 $407 $519 forward 7 unknown #
vertex $-1 $402 $520 #
straight-curve $-1 24.499931319518879 39.556643594650531 79.484215063955403 -0.52991925155115449 0 0.84804810408105047 I I #
edge $-1 $487 -7.9410260800687036 $404 -2.6195716746408313 $403 $521 forward 7 unknown #
point $-1 72.530289620654926 39.556643594650531 2.6195716746408313 #
coedge $-1 $407 $406 $478 $518 forward $398 $-1 #
point $-1 69.20507596577194 30.639970799957347 7.9410260800687098 #
vertex $-1 $411 $522 #
straight-curve $-1 72.530289620654926 0 7.9410260800687036 0 1 0 I I #
vertex $-1 $414 $523 #
point $-1 68.719679203582658 35.098307197303932 2.1693097225529754 #
straight-curve $-1 -72.530289620654926 39.556643594650531 0 0 0 -1 I I #
point $-1 -72.530289620654926 -39.556643594650531 -7.9410260800687036 #
straight-curve $-1 -72.530289620654926 0 -7.9410260800687036 0 1 0 I I #
point $-1 -72.530289620654926 39.556643594650531 -7.9410260800687036 #
coedge $-1 $499 $435 $436 $496 reversed $326 $-1 #
edge $-1 $497 -72.530289620654926 $444 72.530289620654926 $495 $524 forward 7 unknown #
vertex $-1 $501 $525 #
straight-curve $-1 72.530289620654926 -43.525879459251001 -0.029455973845821326 0 -1 0 I I #
coedge $-1 $438 $495 $440 $501 reversed $326 $-1 #
straight-curve $-1 0 -47.495115323851472 2.9705440261541787 1 0 0 I I #
edge $-1 $441 -1.5 $497 1.5 $440 $526 forward 7 unknown #
point $-1 72.530289620654926 -47.495115323851472 2.9705440261541787 #
straight-curve $-1 -72.530289620654926 -47.495115323851472 1.4705440261541787 0 0 -1 I I #
point $-1 -72.530289620654926 -47.495115323851472 -0.029455973845821326 #
point $-1 -72.530289620654926 -47.495115323851472 2.9705440261541787 #
straight-curve $-1 -72.530289620654926 34.403939613044429 47.804760484429302 0 0 -1 I I #
point $-1 -72.530289620654926 34.403939613044429 7.9410260800687036 #
straight-curve $-1 -72.530289620654926 12.293292559684826 0.44121959014500334 0 -1 0 I I #
point $-1 -72.530289620654926 34.403939613044429 0.44121959014499623 #
point $-1 -66.428796426121451 18.696172423164789 1.7208254691312981 #
point $-1 -66.428796426121451 24.586585119369651 1.7208254691312981 #
point $-1 -66.428796426121451 30.476997815574514 1.7208254691312981 #
straight-curve $-1 72.530289620654926 -31.61817186544959 101.25415722913222 0 0 -1 I I #
point $-1 72.530289620654926 -31.61817186544959 7.9410260800687036 #
straight-curve $-1 72.530289620654926 -13.579917734051502 2.6195716746408237 0 1 0 I I #
point $-1 72.530289620654926 -31.61817186544959 2.6195716746408237 #
point $-1 66.652728170134353 -27.159835468103005 2.6465030013478192 #
edge $-1 $487 -72.530289620654926 $481 -69.20507596577194 $478 $527 forward 7 unknown #
straight-curve $-1 69.20507596577194 17.549153598651966 7.9410260800687098 0 -1 0 I I #
point $-1 69.20507596577194 39.556643594650517 7.9410260800687098 #
straight-curve $-1 72.530289620654926 39.556643594650531 0 0 0 -1 I I #
point $-1 72.530289620654926 39.556643594650531 7.9410260800687036 #
point $-1 66.652728170134353 35.098307197303932 2.6465030013478192 #
straight-curve $-1 0 -47.495115323851472 -0.029455973845821326 -1 0 0 I I #
point $-1 72.530289620654926 -47.495115323851472 -0.029455973845821326 #
straight-curve $-1 72.530289620654926 -47.495115323851472 1.4705440261541787 0 0 -1 I I #
straight-curve $-1 0 39.556643594650531 7.9410260800687036 -1 0 0 I I #
End-of-ACIS-data 