500 0 9 0           
7 Unknown 11 ACIS 5.0 NT 24 Fri Mar 26 15:14:05 1999 
-1 9.9999999999999995e-007 1e-010 
body $-1 $9 $-1 $10 #
body $-1 $11 $-1 $12 #
body $-1 $13 $-1 $14 #
body $-1 $15 $-1 $16 #
body $-1 $17 $-1 $18 #
body $-1 $19 $-1 $20 #
body $-1 $21 $-1 $22 #
body $-1 $23 $-1 $24 #
body $-1 $25 $-1 $26 #
lump $-1 $-1 $27 $0 #
transform $-1 1 0 0 0 1 0 0 0 1 52.19153416547136 35.678258268773227 12.532305343671963 1 rotate no_reflect no_shear #
lump $-1 $-1 $28 $1 #
transform $-1 1 0 0 0 1 0 0 0 1 52.19153416547136 35.678258268773227 12.532305343671963 1 rotate no_reflect no_shear #
lump $-1 $-1 $29 $2 #
transform $-1 1 0 0 0 1 0 0 0 1 52.19153416547136 35.678258268773227 12.532305343671963 1 rotate no_reflect no_shear #
lump $-1 $-1 $30 $3 #
transform $-1 1 0 0 0 1 0 0 0 1 52.19153416547136 35.678258268773227 12.532305343671963 1 rotate no_reflect no_shear #
lump $-1 $-1 $31 $4 #
transform $-1 1 0 0 0 1 0 0 0 1 52.19153416547136 35.678258268773227 12.532305343671963 1 rotate no_reflect no_shear #
lump $-1 $-1 $32 $5 #
transform $-1 1 0 0 0 1 0 0 0 1 52.19153416547136 35.678258268773227 12.532305343671963 1 rotate no_reflect no_shear #
lump $-1 $-1 $33 $6 #
transform $-1 1 0 0 0 1 0 0 0 1 52.19153416547136 35.678258268773227 12.532305343671963 1 rotate no_reflect no_shear #
lump $-1 $-1 $34 $7 #
transform $-1 1 0 0 0 1 0 0 0 1 52.19153416547136 35.678258268773227 12.532305343671963 1 rotate no_reflect no_shear #
lump $-1 $-1 $35 $8 #
transform $-1 1 0 0 0 1 0 0 0 1 52.19153416547136 35.678258268773227 12.532305343671963 1 rotate no_reflect no_shear #
shell $-1 $-1 $-1 $36 $-1 $9 #
shell $-1 $-1 $-1 $37 $-1 $11 #
shell $-1 $-1 $-1 $38 $-1 $13 #
shell $-1 $-1 $-1 $39 $-1 $15 #
shell $-1 $-1 $-1 $40 $-1 $17 #
shell $-1 $-1 $-1 $41 $-1 $19 #
shell $-1 $-1 $-1 $42 $-1 $21 #
shell $-1 $-1 $-1 $43 $-1 $23 #
shell $-1 $-1 $-1 $44 $-1 $25 #
face $-1 $45 $46 $27 $-1 $47 forward single #
face $-1 $48 $49 $28 $-1 $50 forward single #
face $-1 $51 $52 $29 $-1 $53 reversed single #
face $-1 $54 $55 $30 $-1 $56 forward single #
face $-1 $57 $58 $31 $-1 $59 forward single #
face $-1 $60 $61 $32 $-1 $62 reversed single #
face $-1 $63 $64 $33 $-1 $65 forward single #
face $-1 $66 $67 $34 $-1 $68 forward single #
face $-1 $69 $70 $35 $-1 $71 forward single #
face $-1 $72 $73 $27 $-1 $74 reversed single #
loop $-1 $-1 $75 $36 #
plane-surface $-1 0 0 12.532305343671963 0 0 1 1 0 0 forward_v I I I I #
face $-1 $76 $77 $28 $-1 $78 forward single #
loop $-1 $-1 $79 $37 #
plane-surface $-1 0 -35.678258268773227 0 0 1 0 0 0 1 forward_v I I I I #
face $-1 $80 $81 $29 $-1 $82 reversed single #
loop $-1 $-1 $83 $38 #
plane-surface $-1 67.622022712843176 -8.1228673165351317 148.47936115598446 0 -1 0 -0.77714596973225614 0 -0.62932038083071107 forward_v I I I I #
face $-1 $84 $85 $30 $-1 $86 forward single #
loop $-1 $87 $88 $39 #
cone-surface $-1 46.770090861306478 -19.681602453823803 6.2721046119043464 -0.77714596973225614 0 -0.62932038083071107 0.62932038083071107 0 -0.77714596973225614 1 I I 0 1 1 forward I I I I #
face $-1 $89 $90 $31 $-1 $91 forward single #
loop $-1 $92 $93 $40 #
cone-surface $-1 46.770090861306478 -12.7463613714506 6.2721046119043464 -0.77714596973225614 0 -0.62932038083071107 0.62932038083071107 0 -0.77714596973225614 1 I I 0 1 1 forward I I I I #
face $-1 $94 $95 $32 $-1 $96 reversed single #
loop $-1 $-1 $97 $41 #
plane-surface $-1 -136.63921122445245 23.674714901807633 63.465100819651639 0 1 0 -0.80901700255871778 0 0.5877852410284794 forward_v I I I I #
face $-1 $98 $99 $33 $-1 $100 forward single #
loop $-1 $101 $102 $42 #
cone-surface $-1 -47.985965011985087 26.075423575200759 7.0164725294159158 0.80901700255871778 0 -0.5877852410284794 0.5877852410284794 0 0.80901700255871778 1 I I 0 1 1 forward I I I I #
face $-1 $103 $104 $34 $-1 $105 forward single #
loop $-1 $106 $107 $43 #
cone-surface $-1 -47.985965011985087 29.676486585290441 7.0164725294159158 0.80901700255871778 0 -0.5877852410284794 0.5877852410284794 0 0.80901700255871778 1 I I 0 1 1 forward I I I I #
face $-1 $108 $109 $35 $-1 $110 forward single #
loop $-1 $111 $112 $44 #
cone-surface $-1 -47.985965011985087 33.277549595380115 7.0164725294159158 0.80901700255871778 0 -0.5877852410284794 0.5877852410284794 0 0.80901700255871778 1 I I 0 1 1 forward I I I I #
face $-1 $113 $114 $27 $-1 $115 reversed single #
loop $-1 $-1 $116 $45 #
plane-surface $-1 0 0 -12.532305343671963 0 0 1 1 0 0 forward_v I I I I #
coedge $-1 $117 $118 $119 $120 forward $46 $-1 #
face $-1 $121 $122 $28 $-1 $123 reversed single #
loop $-1 $-1 $124 $48 #
plane-surface $-1 0 0 12.532305343671963 0 0 1 1 0 0 forward_v I I I I #
coedge $-1 $125 $126 $127 $128 forward $49 $-1 #
face $-1 $129 $130 $29 $-1 $131 reversed single #
loop $-1 $-1 $132 $51 #
plane-surface $-1 -13.498858148835666 -16.213981912637202 82.788968841677459 0.77714596973225614 0 0.62932038083071107 0.62932038083071107 0 -0.77714596973225614 forward_v I I I I #
coedge $-1 $133 $134 $135 $136 reversed $52 $-1 #
face $-1 $-1 $137 $30 $-1 $138 forward single #
loop $-1 $139 $140 $54 #
cone-surface $-1 45.358909331136822 -19.681602453823803 5.1293523715580438 -0.77714596973225614 0 -0.62932038083071107 0.31466019041535553 0 -0.38857298486612807 1 I I -0.70710678118654746 0.70710678118654746 0.5 forward I I I I #
loop $-1 $-1 $141 $39 #
coedge $-1 $88 $88 $142 $143 reversed $55 $-1 #
face $-1 $-1 $144 $31 $-1 $145 forward single #
loop $-1 $146 $147 $57 #
cone-surface $-1 45.358909331136822 -12.7463613714506 5.1293523715580438 -0.77714596973225614 0 -0.62932038083071107 0.31466019041535553 0 -0.38857298486612807 1 I I -0.70710678118654746 0.70710678118654746 0.5 forward I I I I #
loop $-1 $-1 $148 $40 #
coedge $-1 $93 $93 $149 $150 reversed $58 $-1 #
face $-1 $151 $152 $32 $-1 $153 forward single #
loop $-1 $-1 $154 $60 #
plane-surface $-1 -52.191534165471353 29.676486585290426 2.1102738414562339 -0.80901700255871778 0 0.5877852410284794 0.5877852410284794 0 0.80901700255871778 forward_v I I I I #
coedge $-1 $155 $156 $157 $158 reversed $61 $-1 #
face $-1 $-1 $159 $33 $-1 $160 forward single #
loop $-1 $161 $162 $63 #
cone-surface $-1 -47.161911803653538 26.075423575200759 6.4177628457534954 0.80901700255871778 0 -0.5877852410284794 0.2938926205142397 0 0.40450850127935889 1 I I -0.70710678118654746 0.70710678118654746 0.5 forward I I I I #
loop $-1 $-1 $163 $42 #
coedge $-1 $102 $102 $164 $165 reversed $64 $-1 #
face $-1 $-1 $166 $34 $-1 $167 forward single #
loop $-1 $168 $169 $66 #
cone-surface $-1 -47.161911803653538 29.676486585290441 6.4177628457534954 0.80901700255871778 0 -0.5877852410284794 0.2938926205142397 0 0.40450850127935889 1 I I -0.70710678118654746 0.70710678118654746 0.5 forward I I I I #
loop $-1 $-1 $170 $43 #
coedge $-1 $107 $107 $171 $172 reversed $67 $-1 #
face $-1 $-1 $173 $35 $-1 $174 forward single #
loop $-1 $175 $176 $69 #
cone-surface $-1 -47.161911803653538 33.277549595380115 6.4177628457534954 0.80901700255871778 0 -0.5877852410284794 0.2938926205142397 0 0.40450850127935889 1 I I -0.70710678118654746 0.70710678118654746 0.5 forward I I I I #
loop $-1 $-1 $177 $44 #
coedge $-1 $112 $112 $178 $179 reversed $70 $-1 #
face $-1 $180 $181 $27 $-1 $182 reversed single #
loop $-1 $-1 $183 $72 #
plane-surface $-1 0 -35.678258268773227 0 0 1 0 0 0 1 forward_v I I I I #
coedge $-1 $184 $185 $186 $187 forward $73 $-1 #
coedge $-1 $188 $75 $189 $190 forward $46 $-1 #
coedge $-1 $75 $188 $191 $192 forward $46 $-1 #
coedge $-1 $193 $194 $75 $120 reversed $195 $-1 #
edge $-1 $196 -35.678258268773227 $197 35.678258268773227 $119 $198 forward 7 unknown #
face $-1 $199 $200 $28 $-1 $201 reversed single #
loop $-1 $-1 $202 $76 #
plane-surface $-1 -52.19153416547136 0 0 1 0 0 0 0 -1 forward_v I I I I #
coedge $-1 $203 $204 $205 $206 forward $77 $-1 #
coedge $-1 $205 $79 $202 $207 reversed $49 $-1 #
coedge $-1 $79 $205 $208 $209 reversed $49 $-1 #
coedge $-1 $210 $211 $79 $128 reversed $200 $-1 #
edge $-1 $212 -52.19153416547136 $213 52.19153416547136 $127 $214 forward 7 unknown #
face $-1 $215 $216 $29 $-1 $217 reversed single #
loop $-1 $-1 $218 $80 #
plane-surface $-1 67.622022712843176 -24.305096508739272 148.47936115598446 0 1 0 0.77714596973225614 0 0.62932038083071107 forward_v I I I I #
coedge $-1 $219 $220 $221 $222 reversed $81 $-1 #
coedge $-1 $134 $83 $223 $224 reversed $52 $-1 #
coedge $-1 $83 $133 $219 $225 reversed $52 $-1 #
coedge $-1 $221 $226 $83 $136 forward $227 $-1 #
edge $-1 $228 -18.380522809049772 $229 -9.5828532913270408 $135 $230 forward 7 unknown #
loop $-1 $-1 $142 $84 #
plane-surface $-1 -13.498858148835666 -16.213981912637202 82.788968841677459 0.77714596973225614 0 0.62932038083071107 0.62932038083071107 0 -0.77714596973225614 forward_v I I I I #
loop $-1 $-1 $231 $54 #
coedge $-1 $140 $140 $141 $232 reversed $85 $-1 #
coedge $-1 $141 $141 $140 $232 forward $87 $-1 #
coedge $-1 $142 $142 $88 $143 forward $137 $-1 #
edge $-1 $233 0 $233 6.2831853071796004 $142 $234 forward 7 unknown #
loop $-1 $-1 $149 $89 #
plane-surface $-1 -13.498858148835666 -16.213981912637202 82.788968841677459 0.77714596973225614 0 0.62932038083071107 0.62932038083071107 0 -0.77714596973225614 forward_v I I I I #
loop $-1 $-1 $235 $57 #
coedge $-1 $147 $147 $148 $236 reversed $90 $-1 #
coedge $-1 $148 $148 $147 $236 forward $92 $-1 #
coedge $-1 $149 $149 $93 $150 forward $144 $-1 #
edge $-1 $237 0 $237 6.2831853071796004 $149 $238 forward 7 unknown #
face $-1 $239 $240 $32 $-1 $241 reversed single #
loop $-1 $-1 $157 $94 #
plane-surface $-1 0 0 12.532305343671963 0 0 1 1 0 0 forward_v I I I I #
coedge $-1 $242 $243 $244 $245 reversed $95 $-1 #
coedge $-1 $156 $97 $246 $247 reversed $61 $-1 #
coedge $-1 $97 $155 $242 $248 reversed $61 $-1 #
coedge $-1 $244 $249 $97 $158 forward $152 $-1 #
edge $-1 $250 16.128071446754866 $251 23.700120339623062 $157 $252 forward 7 unknown #
loop $-1 $-1 $164 $98 #
plane-surface $-1 -52.191534165471353 29.676486585290426 2.1102738414562339 -0.80901700255871778 0 0.5877852410284794 0.5877852410284794 0 0.80901700255871778 forward_v I I I I #
loop $-1 $-1 $253 $63 #
coedge $-1 $162 $162 $163 $254 reversed $99 $-1 #
coedge $-1 $163 $163 $162 $254 forward $101 $-1 #
coedge $-1 $164 $164 $102 $165 forward $159 $-1 #
edge $-1 $255 0 $255 6.2831853071796004 $164 $256 forward 7 unknown #
loop $-1 $-1 $171 $103 #
plane-surface $-1 -52.191534165471353 29.676486585290426 2.1102738414562339 -0.80901700255871778 0 0.5877852410284794 0.5877852410284794 0 0.80901700255871778 forward_v I I I I #
loop $-1 $-1 $257 $66 #
coedge $-1 $169 $169 $170 $258 reversed $104 $-1 #
coedge $-1 $170 $170 $169 $258 forward $106 $-1 #
coedge $-1 $171 $171 $107 $172 forward $166 $-1 #
edge $-1 $259 0 $259 6.2831853071796004 $171 $260 forward 7 unknown #
loop $-1 $-1 $178 $108 #
plane-surface $-1 -52.191534165471353 29.676486585290426 2.1102738414562339 -0.80901700255871778 0 0.5877852410284794 0.5877852410284794 0 0.80901700255871778 forward_v I I I I #
loop $-1 $-1 $261 $69 #
coedge $-1 $176 $176 $177 $262 reversed $109 $-1 #
coedge $-1 $177 $177 $176 $262 forward $111 $-1 #
coedge $-1 $178 $178 $112 $179 forward $173 $-1 #
edge $-1 $263 0 $263 6.2831853071796004 $178 $264 forward 7 unknown #
face $-1 $265 $266 $27 $-1 $267 reversed single #
loop $-1 $-1 $268 $113 #
plane-surface $-1 -52.19153416547136 0 0 1 0 0 0 0 -1 forward_v I I I I #
coedge $-1 $269 $191 $270 $271 forward $114 $-1 #
coedge $-1 $272 $116 $269 $273 forward $73 $-1 #
coedge $-1 $116 $272 $274 $275 forward $73 $-1 #
coedge $-1 $194 $193 $116 $187 reversed $195 $-1 #
edge $-1 $276 -35.678258268773227 $277 35.678258268773227 $186 $278 forward 7 unknown #
coedge $-1 $118 $117 $279 $280 forward $46 $-1 #
coedge $-1 $281 $282 $117 $190 reversed $266 $-1 #
edge $-1 $197 -52.19153416547136 $283 52.19153416547136 $189 $284 forward 7 unknown #
coedge $-1 $183 $285 $118 $192 reversed $114 $-1 #
edge $-1 $286 -52.19153416547136 $196 52.19153416547136 $191 $287 forward 7 unknown #
coedge $-1 $186 $119 $285 $288 forward $195 $-1 #
coedge $-1 $119 $186 $281 $289 reversed $195 $-1 #
loop $-1 $-1 $193 $265 #
vertex $-1 $120 $290 #
vertex $-1 $120 $291 #
straight-curve $-1 52.19153416547136 0 12.532305343671963 0 1 0 I I #
face $-1 $292 $293 $28 $-1 $294 reversed single #
loop $-1 $-1 $210 $121 #
plane-surface $-1 0 -41.364839148790203 7.7214024231753609 0 0 1 1 0 0 forward_v I I I I #
coedge $-1 $295 $296 $125 $207 forward $122 $-1 #
coedge $-1 $297 $124 $296 $298 forward $77 $-1 #
coedge $-1 $124 $297 $299 $300 forward $77 $-1 #
coedge $-1 $126 $125 $124 $206 reversed $49 $-1 #
edge $-1 $301 -52.19153416547136 $302 52.19153416547136 $124 $303 forward 7 unknown #
edge $-1 $302 -12.532305343671963 $213 -7.7214024231753609 $202 $304 forward 7 unknown #
coedge $-1 $299 $305 $126 $209 forward $306 $-1 #
edge $-1 $212 7.7214024231753609 $301 12.532305343671963 $208 $307 forward 7 unknown #
coedge $-1 $308 $127 $305 $309 forward $200 $-1 #
coedge $-1 $127 $308 $295 $310 forward $200 $-1 #
vertex $-1 $209 $311 #
vertex $-1 $207 $312 #
straight-curve $-1 0 -35.678258268773227 7.7214024231753609 -1 0 0 I I #
face $-1 $-1 $227 $29 $-1 $313 forward single #
loop $-1 $-1 $314 $129 #
plane-surface $-1 52.19153416547136 0 0 -1 0 0 0 0 1 forward_v I I I I #
coedge $-1 $315 $316 $317 $318 reversed $130 $-1 #
coedge $-1 $319 $132 $134 $225 forward $81 $-1 #
coedge $-1 $132 $319 $315 $320 forward $81 $-1 #
coedge $-1 $317 $135 $132 $222 forward $227 $-1 #
edge $-1 $229 0.015876360216530827 $321 16.198105552420671 $221 $322 forward 7 unknown #
coedge $-1 $323 $324 $133 $224 forward $216 $-1 #
edge $-1 $325 -72.571592597993615 $228 -61.707375234320267 $223 $326 forward 7 unknown #
edge $-1 $229 90.403432861152794 $325 104.38306833094273 $134 $327 forward 7 unknown #
coedge $-1 $135 $317 $323 $328 forward $227 $-1 #
loop $-1 $-1 $317 $215 #
vertex $-1 $224 $329 #
vertex $-1 $136 $330 #
straight-curve $-1 33.811011356421588 -8.1228673165351317 12.532305343671965 -1 0 0 I I #
coedge $-1 $231 $231 $-1 $331 reversed $139 $-1 #
edge $-1 $332 0 $332 6.2831853071796004 $140 $333 forward 7 unknown #
vertex $-1 $143 $334 #
ellipse-curve $-1 47.792699406610005 -19.681602453823803 7.1001966618352883 0.77714596973225614 0 0.62932038083071107 0.62932038083071107 0 -0.77714596973225614 1 I I #
coedge $-1 $235 $235 $-1 $335 reversed $146 $-1 #
edge $-1 $336 0 $336 6.2831853071796004 $147 $337 forward 7 unknown #
vertex $-1 $150 $338 #
ellipse-curve $-1 47.792699406610005 -12.7463613714506 7.1001966618352883 0.77714596973225614 0 0.62932038083071107 0.62932038083071107 0 -0.77714596973225614 1 I I #
face $-1 $-1 $339 $32 $-1 $340 reversed single #
loop $-1 $-1 $341 $151 #
plane-surface $-1 0 35.678258268773227 0 0 -1 0 0 0 -1 forward_v I I I I #
coedge $-1 $342 $154 $156 $248 forward $95 $-1 #
coedge $-1 $154 $342 $341 $343 reversed $95 $-1 #
coedge $-1 $344 $157 $154 $245 forward $152 $-1 #
edge $-1 $251 8.8364716091624196 $345 20.840014976128007 $244 $346 forward 7 unknown #
coedge $-1 $347 $348 $155 $247 forward $339 $-1 #
edge $-1 $349 -29.622276568369596 $250 -19.200245066153855 $246 $350 forward 7 unknown #
edge $-1 $251 -12.88233927006906 $349 1.2080531203272332e-014 $156 $351 forward 7 unknown #
coedge $-1 $157 $344 $347 $352 forward $152 $-1 #
vertex $-1 $247 $353 #
vertex $-1 $158 $354 #
straight-curve $-1 -68.319605612226226 23.674714901807633 12.532305343671965 1 0 0 I I #
coedge $-1 $253 $253 $-1 $355 reversed $161 $-1 #
edge $-1 $356 0 $356 6.2831853071796004 $162 $357 forward 7 unknown #
vertex $-1 $165 $358 #
ellipse-curve $-1 -48.405509719037262 26.075423575200759 7.3212895925640904 -0.80901700255871778 0 0.5877852410284794 0.5877852410284794 0 0.80901700255871778 1 I I #
coedge $-1 $257 $257 $-1 $359 reversed $168 $-1 #
edge $-1 $360 0 $360 6.2831853071796004 $169 $361 forward 7 unknown #
vertex $-1 $172 $362 #
ellipse-curve $-1 -48.405509719037262 29.676486585290441 7.3212895925640904 -0.80901700255871778 0 0.5877852410284794 0.5877852410284794 0 0.80901700255871778 1 I I #
coedge $-1 $261 $261 $-1 $363 reversed $175 $-1 #
edge $-1 $364 0 $364 6.2831853071796004 $176 $365 forward 7 unknown #
vertex $-1 $179 $366 #
ellipse-curve $-1 -48.405509719037262 33.277549595380115 7.3212895925640904 -0.80901700255871778 0 0.5877852410284794 0.5877852410284794 0 0.80901700255871778 1 I I #
face $-1 $-1 $195 $27 $-1 $367 reversed single #
loop $-1 $-1 $281 $180 #
plane-surface $-1 0 35.678258268773227 0 0 -1 0 0 0 -1 forward_v I I I I #
coedge $-1 $368 $279 $282 $369 forward $181 $-1 #
coedge $-1 $285 $183 $184 $273 reversed $114 $-1 #
coedge $-1 $279 $368 $183 $271 reversed $181 $-1 #
edge $-1 $286 -12.532305343671963 $370 12.532305343671963 $270 $371 forward 7 unknown #
coedge $-1 $185 $184 $368 $372 forward $73 $-1 #
edge $-1 $277 -52.19153416547136 $370 52.19153416547136 $269 $373 forward 7 unknown #
coedge $-1 $282 $281 $185 $275 reversed $266 $-1 #
edge $-1 $374 -52.19153416547136 $276 52.19153416547136 $274 $375 forward 7 unknown #
vertex $-1 $187 $376 #
vertex $-1 $288 $377 #
straight-curve $-1 52.19153416547136 0 -12.532305343671963 0 -1 0 I I #
coedge $-1 $268 $270 $188 $280 reversed $181 $-1 #
edge $-1 $283 -35.678258268773227 $286 35.678258268773227 $279 $378 forward 7 unknown #
coedge $-1 $274 $189 $194 $289 forward $266 $-1 #
coedge $-1 $189 $274 $268 $369 reversed $266 $-1 #
vertex $-1 $190 $379 #
straight-curve $-1 0 35.678258268773227 12.532305343671963 -1 0 0 I I #
coedge $-1 $191 $269 $193 $288 reversed $114 $-1 #
vertex $-1 $280 $380 #
straight-curve $-1 0 -35.678258268773227 12.532305343671963 1 0 0 I I #
edge $-1 $196 -12.532305343671963 $277 12.532305343671963 $193 $381 forward 7 unknown #
edge $-1 $197 -12.532305343671963 $276 12.532305343671963 $194 $382 forward 7 unknown #
point $-1 52.19153416547136 -35.678258268773227 12.532305343671963 #
point $-1 52.19153416547136 35.678258268773227 12.532305343671963 #
face $-1 $-1 $306 $28 $-1 $383 reversed single #
loop $-1 $-1 $384 $199 #
plane-surface $-1 0 -47.051420028807179 10.126853883423662 0 1 0 0 0 1 forward_v I I I I #
coedge $-1 $385 $202 $211 $310 reversed $122 $-1 #
coedge $-1 $202 $385 $203 $298 reversed $122 $-1 #
coedge $-1 $204 $203 $386 $387 forward $77 $-1 #
edge $-1 $302 35.678258268773227 $388 47.051420028807179 $296 $389 forward 7 unknown #
coedge $-1 $390 $208 $204 $300 reversed $306 $-1 #
edge $-1 $391 -47.051420028807179 $301 -35.678258268773227 $299 $392 forward 7 unknown #
vertex $-1 $209 $393 #
vertex $-1 $298 $394 #
straight-curve $-1 0 -35.678258268773227 12.532305343671963 -1 0 0 I I #
straight-curve $-1 -52.19153416547136 -35.678258268773227 0 0 0 -1 I I #
coedge $-1 $208 $390 $210 $309 reversed $306 $-1 #
loop $-1 $-1 $208 $292 #
straight-curve $-1 52.19153416547136 -35.678258268773227 0 0 0 1 I I #
coedge $-1 $211 $210 $395 $396 forward $200 $-1 #
edge $-1 $212 -5.6865808800169759 $397 5.6865808800169759 $305 $398 forward 7 unknown #
edge $-1 $399 -5.6865808800169759 $213 5.6865808800169759 $295 $400 forward 7 unknown #
point $-1 52.19153416547136 -35.678258268773227 7.7214024231753609 #
point $-1 -52.19153416547136 -35.678258268773227 7.7214024231753609 #
plane-surface $-1 0 0 12.532305343671963 0 0 1 1 0 0 forward_v I I I I #
coedge $-1 $324 $323 $316 $401 forward $216 $-1 #
coedge $-1 $316 $218 $220 $320 reversed $130 $-1 #
coedge $-1 $218 $315 $314 $401 reversed $130 $-1 #
coedge $-1 $226 $221 $218 $318 forward $227 $-1 #
edge $-1 $321 9.5828532913270408 $402 18.380522809049772 $317 $403 forward 7 unknown #
coedge $-1 $220 $219 $324 $404 reversed $81 $-1 #
edge $-1 $405 -104.38306833094273 $321 -90.403432861152794 $315 $406 forward 7 unknown #
vertex $-1 $222 $407 #
straight-curve $-1 43.393864647748629 -8.1069909563186009 12.532305343671965 0 -1 0 I I #
coedge $-1 $314 $223 $226 $328 reversed $216 $-1 #
coedge $-1 $223 $314 $319 $404 forward $216 $-1 #
vertex $-1 $224 $408 #
straight-curve $-1 52.19153416547136 -8.1228673165351317 74.239680577992232 0 0 1 I I #
straight-curve $-1 -13.498858148835666 -8.1228673165351317 82.788968841677459 0.62932038083071107 0 -0.77714596973225614 I I #
edge $-1 $402 -24.305096508739272 $228 -8.1228673165351317 $323 $409 forward 7 unknown #
point $-1 52.19153416547136 -8.1228673165351317 12.532305343671963 #
point $-1 43.393864647748629 -8.1228673165351317 12.532305343671965 #
edge $-1 $410 1 $410 0 $231 $-1 forward 7 unknown #
vertex $-1 $232 $411 #
ellipse-curve $-1 45.747482316002952 -19.681602453823803 5.4440125619733992 0.77714596973225614 0 0.62932038083071107 0.62932038083071107 0 -0.77714596973225614 1 I I #
point $-1 48.422019787440725 -19.681602453823803 6.3230506921030383 #
edge $-1 $412 1 $412 0 $235 $-1 forward 7 unknown #
vertex $-1 $236 $413 #
ellipse-curve $-1 45.747482316002952 -12.7463613714506 5.4440125619733992 0.77714596973225614 0 0.62932038083071107 0.62932038083071107 0 -0.77714596973225614 1 I I #
point $-1 48.422019787440725 -12.7463613714506 6.3230506921030383 #
loop $-1 $-1 $246 $239 #
plane-surface $-1 -52.19153416547136 0 0 1 0 0 0 0 -1 forward_v I I I I #
coedge $-1 $414 $415 $243 $343 forward $240 $-1 #
coedge $-1 $243 $242 $348 $416 reversed $95 $-1 #
edge $-1 $345 1.6027437655832906 $417 14.485083035652362 $341 $418 forward 7 unknown #
coedge $-1 $249 $244 $415 $419 forward $152 $-1 #
vertex $-1 $419 $420 #
straight-curve $-1 -44.619485272603164 14.838243292645213 12.532305343671965 0 1 0 I I #
coedge $-1 $421 $246 $249 $352 reversed $339 $-1 #
coedge $-1 $246 $421 $342 $416 forward $339 $-1 #
vertex $-1 $247 $422 #
straight-curve $-1 -52.19153416547136 23.674714901807633 31.732550409825819 0 0 1 I I #
straight-curve $-1 -52.191534165471353 23.674714901807633 2.1102738414562339 -0.5877852410284794 0 -0.80901700255871778 I I #
edge $-1 $423 -35.678258268773227 $250 -23.674714901807633 $347 $424 forward 7 unknown #
point $-1 -52.19153416547136 23.674714901807633 12.532305343671963 #
point $-1 -44.619485272603164 23.674714901807633 12.532305343671963 #
edge $-1 $425 1 $425 0 $253 $-1 forward 7 unknown #
vertex $-1 $254 $426 #
ellipse-curve $-1 -47.566420304932898 26.075423575200759 6.711655466267735 -0.80901700255871778 0 0.5877852410284794 0.5877852410284794 0 0.80901700255871778 1 I I #
point $-1 -47.817724478008792 26.075423575200759 8.1303065951228142 #
edge $-1 $427 1 $427 0 $257 $-1 forward 7 unknown #
vertex $-1 $258 $428 #
ellipse-curve $-1 -47.566420304932898 29.676486585290441 6.711655466267735 -0.80901700255871778 0 0.5877852410284794 0.5877852410284794 0 0.80901700255871778 1 I I #
point $-1 -47.817724478008792 29.676486585290441 8.1303065951228142 #
edge $-1 $429 1 $429 0 $261 $-1 forward 7 unknown #
vertex $-1 $262 $430 #
ellipse-curve $-1 -47.566420304932898 33.277549595380115 6.711655466267735 -0.80901700255871778 0 0.5877852410284794 0.5877852410284794 0 0.80901700255871778 1 I I #
point $-1 -47.817724478008792 33.277549595380115 8.1303065951228142 #
plane-surface $-1 52.19153416547136 0 0 -1 0 0 0 0 1 forward_v I I I I #
coedge $-1 $270 $268 $272 $372 reversed $181 $-1 #
edge $-1 $283 -12.532305343671963 $374 12.532305343671963 $282 $431 forward 7 unknown #
vertex $-1 $372 $432 #
straight-curve $-1 -52.19153416547136 -35.678258268773227 0 0 0 -1 I I #
edge $-1 $370 -35.678258268773227 $374 35.678258268773227 $368 $433 forward 7 unknown #
straight-curve $-1 0 -35.678258268773227 -12.532305343671963 -1 0 0 I I #
vertex $-1 $275 $434 #
straight-curve $-1 0 35.678258268773227 -12.532305343671963 1 0 0 I I #
point $-1 52.19153416547136 35.678258268773227 -12.532305343671963 #
point $-1 52.19153416547136 -35.678258268773227 -12.532305343671963 #
straight-curve $-1 -52.19153416547136 0 12.532305343671963 0 -1 0 I I #
point $-1 -52.19153416547136 35.678258268773227 12.532305343671963 #
point $-1 -52.19153416547136 -35.678258268773227 12.532305343671963 #
straight-curve $-1 52.19153416547136 -35.678258268773227 0 0 0 -1 I I #
straight-curve $-1 52.19153416547136 35.678258268773227 0 0 0 -1 I I #
plane-surface $-1 52.19153416547136 0 0 -1 0 0 0 0 1 forward_v I I I I #
coedge $-1 $395 $386 $385 $435 forward $293 $-1 #
coedge $-1 $296 $295 $384 $435 reversed $122 $-1 #
coedge $-1 $384 $436 $297 $387 reversed $293 $-1 #
edge $-1 $388 -52.19153416547136 $391 52.19153416547136 $386 $437 forward 7 unknown #
vertex $-1 $298 $438 #
straight-curve $-1 -52.19153416547136 0 12.532305343671963 0 -1 0 I I #
coedge $-1 $305 $299 $436 $439 forward $306 $-1 #
vertex $-1 $300 $440 #
straight-curve $-1 52.19153416547136 0 12.532305343671963 0 1 0 I I #
point $-1 52.19153416547136 -35.678258268773227 12.532305343671963 #
point $-1 -52.19153416547136 -35.678258268773227 12.532305343671963 #
coedge $-1 $436 $384 $308 $396 reversed $293 $-1 #
edge $-1 $397 -52.19153416547136 $399 52.19153416547136 $395 $441 forward 7 unknown #
vertex $-1 $439 $442 #
straight-curve $-1 52.19153416547136 -41.364839148790203 7.7214024231753609 0 -1 0 I I #
vertex $-1 $310 $443 #
straight-curve $-1 -52.19153416547136 -41.364839148790203 7.7214024231753609 0 1 0 I I #
edge $-1 $402 61.707375234320267 $405 72.571592597993615 $314 $444 forward 7 unknown #
vertex $-1 $328 $445 #
straight-curve $-1 33.811011356421588 -24.305096508739272 12.532305343671965 1 0 0 I I #
edge $-1 $405 -16.198105552420671 $325 -0.015876360216530827 $324 $446 forward 7 unknown #
vertex $-1 $404 $447 #
straight-curve $-1 -13.498858148835666 -24.305096508739272 82.788968841677459 -0.62932038083071107 0 0.77714596973225614 I I #
point $-1 43.393864647748629 -24.305096508739272 12.532305343671965 #
point $-1 52.191534165471353 -8.1228673165351317 1.6680879799986172 #
straight-curve $-1 52.19153416547136 0 12.532305343671963 0 1 0 I I #
vertex $-1 $331 $448 #
point $-1 46.376802696833664 -19.681602453823803 4.666866592241143 #
vertex $-1 $335 $449 #
point $-1 46.376802696833664 -12.7463613714506 4.666866592241143 #
coedge $-1 $415 $341 $421 $450 reversed $240 $-1 #
coedge $-1 $341 $414 $344 $419 reversed $240 $-1 #
edge $-1 $417 -20.840014976128007 $349 -8.8364716091624196 $348 $451 forward 7 unknown #
vertex $-1 $343 $452 #
straight-curve $-1 -43.677416142042901 35.678258268773227 13.828952300773832 -0.5877852410284794 0 -0.80901700255871778 I I #
edge $-1 $345 44.619485272603164 $423 52.19153416547136 $415 $453 forward 7 unknown #
point $-1 -44.619485272603164 35.67825826877322 12.532305343671963 #
coedge $-1 $348 $347 $414 $450 forward $339 $-1 #
point $-1 -52.19153416547136 23.674714901807633 2.1102738414562241 #
vertex $-1 $419 $454 #
straight-curve $-1 -52.19153416547136 0 12.532305343671963 0 -1 0 I I #
vertex $-1 $355 $455 #
point $-1 -46.97863506390442 26.075423575200759 7.5206724688264526 #
vertex $-1 $359 $456 #
point $-1 -46.97863506390442 29.676486585290441 7.5206724688264526 #
vertex $-1 $363 $457 #
point $-1 -46.97863506390442 33.277549595380115 7.5206724688264526 #
straight-curve $-1 -52.19153416547136 35.678258268773227 0 0 0 -1 I I #
point $-1 -52.19153416547136 -35.678258268773227 -12.532305343671963 #
straight-curve $-1 -52.19153416547136 0 -12.532305343671963 0 1 0 I I #
point $-1 -52.19153416547136 35.678258268773227 -12.532305343671963 #
edge $-1 $388 -2.405451460248301 $399 2.405451460248301 $385 $458 forward 7 unknown #
coedge $-1 $386 $395 $390 $439 reversed $293 $-1 #
straight-curve $-1 0 -47.051420028807179 12.532305343671963 1 0 0 I I #
point $-1 -52.19153416547136 -47.051420028807179 12.532305343671963 #
edge $-1 $391 -2.405451460248301 $397 2.405451460248301 $390 $459 forward 7 unknown #
point $-1 52.19153416547136 -47.051420028807179 12.532305343671963 #
straight-curve $-1 0 -47.051420028807179 7.7214024231753609 -1 0 0 I I #
point $-1 52.19153416547136 -47.051420028807179 7.7214024231753609 #
point $-1 -52.19153416547136 -47.051420028807179 7.7214024231753609 #
straight-curve $-1 52.19153416547136 -24.305096508739272 74.239680577992232 0 0 -1 I I #
point $-1 52.19153416547136 -24.305096508739272 12.532305343671963 #
straight-curve $-1 52.191534165471353 -8.1069909563186009 1.6680879799986101 0 1 0 I I #
point $-1 52.191534165471353 -24.305096508739272 1.6680879799986172 #
point $-1 44.970336346270692 -19.681602453823803 4.8146921811426884 #
point $-1 44.970336346270692 -12.7463613714506 4.8146921811426884 #
edge $-1 $423 -12.532305343671963 $417 -2.1102738414562241 $414 $460 forward 7 unknown #
straight-curve $-1 -52.19153416547136 14.838243292645213 2.1102738414562161 0 -1 0 I I #
point $-1 -52.19153416547136 35.67825826877322 2.1102738414562241 #
straight-curve $-1 0 35.678258268773227 12.532305343671963 -1 0 0 I I #
point $-1 -52.19153416547136 35.678258268773227 12.532305343671963 #
point $-1 -46.757403302374179 26.075423575200759 6.1238702252392558 #
point $-1 -46.757403302374179 29.676486585290441 6.1238702252392558 #
point $-1 -46.757403302374179 33.277549595380115 6.1238702252392558 #
straight-curve $-1 -52.19153416547136 -47.051420028807179 10.126853883423662 0 0 -1 I I #
straight-curve $-1 52.19153416547136 -47.051420028807179 10.126853883423662 0 0 -1 I I #
straight-curve $-1 -52.19153416547136 35.678258268773227 0 0 0 -1 I I #
End-of-ACIS-data 