500 0 9 0           
7 Unknown 11 ACIS 5.0 NT 24 Fri Mar 26 15:46:13 1999 
-1 9.9999999999999995e-007 1e-010 
body $-1 $9 $-1 $10 #
body $-1 $11 $-1 $12 #
body $-1 $13 $-1 $14 #
body $-1 $15 $-1 $16 #
body $-1 $17 $-1 $18 #
body $-1 $19 $-1 $20 #
body $-1 $21 $-1 $22 #
body $-1 $23 $-1 $24 #
body $-1 $25 $-1 $26 #
lump $-1 $-1 $27 $0 #
transform $-1 1 0 0 0 1 0 0 0 1 44.576555681020537 20.082645047589384 7.7915171268803851 1 rotate no_reflect no_shear #
lump $-1 $-1 $28 $1 #
transform $-1 1 0 0 0 1 0 0 0 1 44.576555681020537 20.082645047589384 7.7915171268803851 1 rotate no_reflect no_shear #
lump $-1 $-1 $29 $2 #
transform $-1 1 0 0 0 1 0 0 0 1 44.576555681020537 20.082645047589384 7.7915171268803851 1 rotate no_reflect no_shear #
lump $-1 $-1 $30 $3 #
transform $-1 1 0 0 0 1 0 0 0 1 44.576555681020537 20.082645047589384 7.7915171268803851 1 rotate no_reflect no_shear #
lump $-1 $-1 $31 $4 #
transform $-1 1 0 0 0 1 0 0 0 1 44.576555681020537 20.082645047589384 7.7915171268803851 1 rotate no_reflect no_shear #
lump $-1 $-1 $32 $5 #
transform $-1 1 0 0 0 1 0 0 0 1 44.576555681020537 20.082645047589384 7.7915171268803851 1 rotate no_reflect no_shear #
lump $-1 $-1 $33 $6 #
transform $-1 1 0 0 0 1 0 0 0 1 44.576555681020537 20.082645047589384 7.7915171268803851 1 rotate no_reflect no_shear #
lump $-1 $-1 $34 $7 #
transform $-1 1 0 0 0 1 0 0 0 1 44.576555681020537 20.082645047589384 7.7915171268803851 1 rotate no_reflect no_shear #
lump $-1 $-1 $35 $8 #
transform $-1 1 0 0 0 1 0 0 0 1 44.576555681020537 20.082645047589384 7.7915171268803851 1 rotate no_reflect no_shear #
shell $-1 $-1 $-1 $36 $-1 $9 #
shell $-1 $-1 $-1 $37 $-1 $11 #
shell $-1 $-1 $-1 $38 $-1 $13 #
shell $-1 $-1 $-1 $39 $-1 $15 #
shell $-1 $-1 $-1 $40 $-1 $17 #
shell $-1 $-1 $-1 $41 $-1 $19 #
shell $-1 $-1 $-1 $42 $-1 $21 #
shell $-1 $-1 $-1 $43 $-1 $23 #
shell $-1 $-1 $-1 $44 $-1 $25 #
face $-1 $45 $46 $27 $-1 $47 forward single #
face $-1 $48 $49 $28 $-1 $50 reversed single #
face $-1 $51 $52 $29 $-1 $53 forward single #
face $-1 $54 $55 $30 $-1 $56 reversed single #
face $-1 $57 $58 $31 $-1 $59 forward single #
face $-1 $60 $61 $32 $-1 $62 forward single #
face $-1 $63 $64 $33 $-1 $65 reversed single #
face $-1 $66 $67 $34 $-1 $68 forward single #
face $-1 $69 $70 $35 $-1 $71 forward single #
face $-1 $72 $73 $27 $-1 $74 reversed single #
loop $-1 $-1 $75 $36 #
plane-surface $-1 0 0 7.7915171268803851 0 0 1 1 0 0 forward_v I I I I #
face $-1 $76 $77 $28 $-1 $78 reversed single #
loop $-1 $-1 $79 $37 #
plane-surface $-1 -32.248091418885849 -16.272415546784391 0 1 0 0 0 0 -1 forward_v I I I I #
face $-1 $80 $81 $29 $-1 $82 reversed single #
loop $-1 $-1 $83 $38 #
plane-surface $-1 0 20.082645047589384 0 0 -1 0 0 0 -1 forward_v I I I I #
face $-1 $84 $85 $30 $-1 $86 reversed single #
loop $-1 $-1 $87 $39 #
plane-surface $-1 68.634049301356285 4.3334526351474203 126.46885785389871 0 -1 0 -0.82903758062907751 0 -0.55919289150049634 forward_v I I I I #
face $-1 $88 $89 $31 $-1 $90 forward single #
loop $-1 $91 $92 $40 #
cone-surface $-1 42.102554558516701 -0.23812819337113922 4.7362798453456492 -0.82903758062907751 0 -0.55919289150049634 0.27959644575024817 0 -0.41451879031453875 1 I I 0 1 0.5 forward I I I I #
face $-1 $93 $94 $32 $-1 $95 forward single #
loop $-1 $96 $97 $41 #
cone-surface $-1 42.102554558516701 2.5048203037399936 4.7362798453456492 -0.82903758062907751 0 -0.55919289150049634 0.27959644575024817 0 -0.41451879031453875 1 I I 0 1 0.5 forward I I I I #
face $-1 $98 $99 $33 $-1 $100 reversed single #
loop $-1 $-1 $101 $42 #
plane-surface $-1 -118.48783543016178 -2.0667605247785623 52.557578104757475 0 1 0 -0.82903758062907751 0 0.55919289150049634 forward_v I I I I #
face $-1 $102 $103 $34 $-1 $104 forward single #
loop $-1 $105 $106 $43 #
cone-surface $-1 -42.102554558516708 -0.23812819337113922 4.7362798453456705 0.82903758062907751 0 -0.55919289150049634 0.27959644575024817 0 0.41451879031453875 1 I I 0 1 0.5 forward I I I I #
face $-1 $107 $108 $35 $-1 $109 forward single #
loop $-1 $110 $111 $44 #
cone-surface $-1 -42.102554558516708 2.5048203037399936 4.7362798453456705 0.82903758062907751 0 -0.55919289150049634 0.27959644575024817 0 0.41451879031453875 1 I I 0 1 0.5 forward I I I I #
face $-1 $112 $113 $27 $-1 $114 reversed single #
loop $-1 $-1 $115 $45 #
plane-surface $-1 0 0 -7.7915171268803851 0 0 1 1 0 0 forward_v I I I I #
coedge $-1 $116 $117 $118 $119 forward $46 $-1 #
face $-1 $120 $121 $28 $-1 $122 reversed single #
loop $-1 $-1 $123 $48 #
plane-surface $-1 -30.620806423072807 -12.462186045979397 0 0 -1 0 0 0 -1 forward_v I I I I #
coedge $-1 $124 $125 $126 $127 forward $49 $-1 #
face $-1 $128 $129 $29 $-1 $130 reversed single #
loop $-1 $-1 $131 $51 #
plane-surface $-1 0 0 -7.7915171268803851 0 0 1 1 0 0 forward_v I I I I #
coedge $-1 $132 $133 $134 $135 forward $52 $-1 #
face $-1 $136 $137 $30 $-1 $138 reversed single #
loop $-1 $-1 $139 $54 #
plane-surface $-1 -5.277230447784973 1.133346055184429 76.615071725093202 0.82903758062907751 0 0.55919289150049634 0.55919289150049634 0 -0.82903758062907751 forward_v I I I I #
coedge $-1 $140 $141 $142 $143 reversed $55 $-1 #
face $-1 $-1 $144 $31 $-1 $145 forward single #
loop $-1 $146 $147 $57 #
cone-surface $-1 41.137150960241954 -0.23812819337113922 4.085106916400016 -0.82903758062907751 0 -0.55919289150049634 0.13979822287512408 0 -0.20725939515726938 1 I I -0.70710678118654746 0.70710678118654746 0.25 forward I I I I #
loop $-1 $-1 $148 $40 #
coedge $-1 $92 $92 $149 $150 reversed $58 $-1 #
face $-1 $-1 $151 $32 $-1 $152 forward single #
loop $-1 $153 $154 $60 #
cone-surface $-1 41.137150960241954 2.5048203037399936 4.085106916400016 -0.82903758062907751 0 -0.55919289150049634 0.13979822287512408 0 -0.20725939515726938 1 I I -0.70710678118654746 0.70710678118654746 0.25 forward I I I I #
loop $-1 $-1 $155 $41 #
coedge $-1 $97 $97 $156 $157 reversed $61 $-1 #
face $-1 $158 $159 $33 $-1 $160 reversed single #
loop $-1 $-1 $161 $63 #
plane-surface $-1 -44.576555681020523 1.133346055184429 2.7037919759519724 -0.82903758062907751 0 0.55919289150049634 0.55919289150049634 0 0.82903758062907751 forward_v I I I I #
coedge $-1 $162 $163 $164 $165 reversed $64 $-1 #
face $-1 $-1 $166 $34 $-1 $167 forward single #
loop $-1 $168 $169 $66 #
cone-surface $-1 -41.137150960241961 -0.23812819337113922 4.0851069164000373 0.82903758062907751 0 -0.55919289150049634 0.13979822287512408 0 0.20725939515726938 1 I I -0.70710678118654746 0.70710678118654746 0.25 forward I I I I #
loop $-1 $-1 $170 $43 #
coedge $-1 $106 $106 $171 $172 reversed $67 $-1 #
face $-1 $-1 $173 $35 $-1 $174 forward single #
loop $-1 $175 $176 $69 #
cone-surface $-1 -41.137150960241961 2.5048203037399936 4.0851069164000373 0.82903758062907751 0 -0.55919289150049634 0.13979822287512408 0 0.20725939515726938 1 I I -0.70710678118654746 0.70710678118654746 0.25 forward I I I I #
loop $-1 $-1 $177 $44 #
coedge $-1 $111 $111 $178 $179 reversed $70 $-1 #
face $-1 $180 $181 $27 $-1 $182 reversed single #
loop $-1 $-1 $183 $72 #
plane-surface $-1 0 -20.082645047589384 0 0 1 0 0 0 1 forward_v I I I I #
coedge $-1 $184 $185 $186 $187 forward $73 $-1 #
coedge $-1 $188 $75 $189 $190 forward $46 $-1 #
coedge $-1 $75 $188 $191 $192 forward $46 $-1 #
coedge $-1 $193 $194 $75 $119 reversed $195 $-1 #
edge $-1 $196 -20.082645047589384 $197 20.082645047589384 $118 $198 forward 7 unknown #
face $-1 $199 $200 $28 $-1 $201 forward single #
loop $-1 $-1 $202 $76 #
plane-surface $-1 -28.993521427259765 -16.272415546784391 0 -1 0 0 0 0 1 forward_v I I I I #
coedge $-1 $203 $204 $205 $206 forward $77 $-1 #
coedge $-1 $207 $79 $208 $209 reversed $49 $-1 #
coedge $-1 $79 $207 $210 $211 reversed $49 $-1 #
coedge $-1 $204 $203 $79 $127 reversed $77 $-1 #
edge $-1 $212 -7.7915171268803851 $213 7.7915171268803851 $126 $214 forward 7 unknown #
face $-1 $215 $216 $29 $-1 $217 reversed single #
loop $-1 $-1 $218 $80 #
plane-surface $-1 -32.87964967838456 24.296834048984284 0 1 0 0 0 0 -1 forward_v I I I I #
coedge $-1 $219 $220 $133 $221 forward $81 $-1 #
coedge $-1 $222 $83 $223 $224 reversed $52 $-1 #
coedge $-1 $83 $222 $131 $221 reversed $52 $-1 #
coedge $-1 $225 $226 $83 $135 reversed $227 $-1 #
edge $-1 $228 -7.7915171268803851 $229 7.7915171268803851 $134 $230 forward 7 unknown #
face $-1 $231 $232 $30 $-1 $233 forward single #
loop $-1 $-1 $234 $84 #
plane-surface $-1 68.634049301356285 -2.0667605247785623 126.46885785389871 0 1 0 0.82903758062907751 0 0.55919289150049634 forward_v I I I I #
coedge $-1 $235 $236 $237 $238 reversed $85 $-1 #
coedge $-1 $141 $87 $239 $240 reversed $55 $-1 #
coedge $-1 $87 $140 $235 $241 reversed $55 $-1 #
coedge $-1 $237 $242 $87 $143 forward $232 $-1 #
edge $-1 $243 -10.259531030342394 $244 -6.8278171915696575 $142 $245 forward 7 unknown #
loop $-1 $-1 $149 $88 #
plane-surface $-1 -5.277230447784973 1.133346055184429 76.615071725093202 0.82903758062907751 0 0.55919289150049634 0.55919289150049634 0 -0.82903758062907751 forward_v I I I I #
loop $-1 $-1 $246 $57 #
coedge $-1 $147 $147 $148 $247 reversed $89 $-1 #
coedge $-1 $148 $148 $147 $247 forward $91 $-1 #
coedge $-1 $149 $149 $92 $150 forward $144 $-1 #
edge $-1 $248 0 $248 6.2831853071796004 $149 $249 forward 7 unknown #
loop $-1 $-1 $156 $93 #
plane-surface $-1 -5.277230447784973 1.133346055184429 76.615071725093202 0.82903758062907751 0 0.55919289150049634 0.55919289150049634 0 -0.82903758062907751 forward_v I I I I #
loop $-1 $-1 $250 $60 #
coedge $-1 $154 $154 $155 $251 reversed $94 $-1 #
coedge $-1 $155 $155 $154 $251 forward $96 $-1 #
coedge $-1 $156 $156 $97 $157 forward $151 $-1 #
edge $-1 $252 0 $252 6.2831853071796004 $156 $253 forward 7 unknown #
face $-1 $254 $255 $33 $-1 $256 reversed single #
loop $-1 $-1 $257 $98 #
plane-surface $-1 -118.48783543016178 4.3334526351474203 52.557578104757475 0 -1 0 0.82903758062907751 0 -0.55919289150049634 forward_v I I I I #
coedge $-1 $258 $259 $260 $261 reversed $99 $-1 #
coedge $-1 $163 $101 $262 $263 reversed $64 $-1 #
coedge $-1 $101 $162 $258 $264 reversed $64 $-1 #
coedge $-1 $260 $265 $101 $165 forward $266 $-1 #
edge $-1 $267 14.667362034060353 $268 18.099075872833083 $164 $269 forward 7 unknown #
loop $-1 $-1 $171 $102 #
plane-surface $-1 -44.576555681020523 1.133346055184429 2.7037919759519724 -0.82903758062907751 0 0.55919289150049634 0.55919289150049634 0 0.82903758062907751 forward_v I I I I #
loop $-1 $-1 $270 $66 #
coedge $-1 $169 $169 $170 $271 reversed $103 $-1 #
coedge $-1 $170 $170 $169 $271 forward $105 $-1 #
coedge $-1 $171 $171 $106 $172 forward $166 $-1 #
edge $-1 $272 0 $272 6.2831853071796004 $171 $273 forward 7 unknown #
loop $-1 $-1 $178 $107 #
plane-surface $-1 -44.576555681020523 1.133346055184429 2.7037919759519724 -0.82903758062907751 0 0.55919289150049634 0.55919289150049634 0 0.82903758062907751 forward_v I I I I #
loop $-1 $-1 $274 $69 #
coedge $-1 $176 $176 $177 $275 reversed $108 $-1 #
coedge $-1 $177 $177 $176 $275 forward $110 $-1 #
coedge $-1 $178 $178 $111 $179 forward $173 $-1 #
edge $-1 $276 0 $276 6.2831853071796004 $178 $277 forward 7 unknown #
face $-1 $278 $279 $27 $-1 $280 reversed single #
loop $-1 $-1 $281 $112 #
plane-surface $-1 -44.576555681020537 0 0 1 0 0 0 0 -1 forward_v I I I I #
coedge $-1 $282 $191 $283 $284 forward $113 $-1 #
coedge $-1 $285 $115 $282 $286 forward $73 $-1 #
coedge $-1 $115 $285 $287 $288 forward $73 $-1 #
coedge $-1 $194 $193 $115 $187 reversed $195 $-1 #
edge $-1 $289 -20.082645047589384 $290 20.082645047589384 $186 $291 forward 7 unknown #
coedge $-1 $117 $116 $292 $293 forward $46 $-1 #
coedge $-1 $294 $295 $116 $190 reversed $279 $-1 #
edge $-1 $197 -44.576555681020537 $296 44.576555681020537 $189 $297 forward 7 unknown #
coedge $-1 $183 $298 $117 $192 reversed $113 $-1 #
edge $-1 $299 -44.576555681020537 $196 44.576555681020537 $191 $300 forward 7 unknown #
coedge $-1 $186 $118 $298 $301 forward $195 $-1 #
coedge $-1 $118 $186 $294 $302 reversed $195 $-1 #
loop $-1 $-1 $193 $278 #
vertex $-1 $119 $303 #
vertex $-1 $119 $304 #
straight-curve $-1 44.576555681020537 0 7.7915171268803851 0 1 0 I I #
face $-1 $305 $306 $28 $-1 $307 reversed single #
loop $-1 $-1 $308 $120 #
plane-surface $-1 0 0 7.7915171268803851 0 0 1 1 0 0 forward_v I I I I #
coedge $-1 $309 $310 $311 $312 reversed $121 $-1 #
coedge $-1 $126 $123 $313 $314 reversed $77 $-1 #
coedge $-1 $123 $126 $315 $316 reversed $77 $-1 #
coedge $-1 $310 $309 $123 $206 reversed $121 $-1 #
edge $-1 $317 -7.7915171268803851 $318 7.7915171268803851 $205 $319 forward 7 unknown #
coedge $-1 $125 $124 $320 $321 reversed $49 $-1 #
coedge $-1 $313 $322 $124 $209 forward $306 $-1 #
edge $-1 $323 -11.946437274197189 $213 -4.3259782725872018 $208 $324 forward 7 unknown #
coedge $-1 $325 $315 $125 $211 forward $200 $-1 #
edge $-1 $212 4.3259782725872018 $326 11.946437274197189 $210 $327 forward 7 unknown #
vertex $-1 $211 $328 #
vertex $-1 $209 $329 #
straight-curve $-1 -32.248091418885849 -12.462186045979397 0 0 0 -1 I I #
face $-1 $330 $227 $29 $-1 $331 reversed single #
loop $-1 $-1 $332 $128 #
plane-surface $-1 -30.936585552822162 28.511023050379183 0 0 -1 0 0 0 -1 forward_v I I I I #
coedge $-1 $333 $334 $335 $336 forward $129 $-1 #
coedge $-1 $337 $131 $333 $338 forward $81 $-1 #
coedge $-1 $131 $337 $225 $339 forward $81 $-1 #
edge $-1 $228 28.993521427259765 $340 32.87964967838456 $131 $341 forward 7 unknown #
coedge $-1 $133 $132 $342 $343 forward $52 $-1 #
coedge $-1 $344 $345 $132 $224 forward $346 $-1 #
edge $-1 $347 -32.87964967838456 $229 -28.993521427259765 $223 $348 forward 7 unknown #
coedge $-1 $349 $134 $220 $339 reversed $227 $-1 #
coedge $-1 $134 $349 $344 $350 reversed $227 $-1 #
loop $-1 $-1 $134 $215 #
vertex $-1 $221 $351 #
vertex $-1 $350 $352 #
straight-curve $-1 -28.993521427259765 20.082645047589384 0 0 0 1 I I #
face $-1 $-1 $353 $30 $-1 $354 reversed single #
loop $-1 $-1 $142 $136 #
plane-surface $-1 0 0 7.7915171268803851 0 0 1 1 0 0 forward_v I I I I #
coedge $-1 $355 $356 $357 $358 reversed $137 $-1 #
coedge $-1 $359 $139 $141 $241 forward $85 $-1 #
coedge $-1 $139 $359 $355 $360 forward $85 $-1 #
coedge $-1 $357 $142 $139 $238 forward $232 $-1 #
edge $-1 $244 -3.7667796075552058 $361 2.6334335523707768 $237 $362 forward 7 unknown #
coedge $-1 $363 $364 $140 $240 forward $353 $-1 #
edge $-1 $365 -60.530636950997412 $243 -55.44291180006897 $239 $366 forward 7 unknown #
edge $-1 $244 83.016206027704072 $365 89.153111362041088 $141 $367 forward 7 unknown #
coedge $-1 $142 $357 $363 $368 forward $232 $-1 #
vertex $-1 $143 $369 #
vertex $-1 $143 $370 #
straight-curve $-1 34.317024650678142 4.3334526351474203 7.791517126880386 -1 0 0 I I #
coedge $-1 $246 $246 $-1 $371 reversed $146 $-1 #
edge $-1 $372 0 $372 6.2831853071796004 $147 $373 forward 7 unknown #
vertex $-1 $150 $374 #
ellipse-curve $-1 42.860698761634175 -0.23812819337113922 5.2476545514161561 0.82903758062907751 0 0.55919289150049634 0.27959644575024817 0 -0.41451879031453875 1 I I #
coedge $-1 $250 $250 $-1 $375 reversed $153 $-1 #
edge $-1 $376 0 $376 6.2831853071796004 $154 $377 forward 7 unknown #
vertex $-1 $157 $378 #
ellipse-curve $-1 42.860698761634175 2.5048203037399936 5.2476545514161561 0.82903758062907751 0 0.55919289150049634 0.27959644575024817 0 -0.41451879031453875 1 I I #
face $-1 $-1 $266 $33 $-1 $379 forward single #
loop $-1 $-1 $380 $158 #
plane-surface $-1 -44.576555681020537 0 0 1 0 0 0 0 -1 forward_v I I I I #
coedge $-1 $381 $382 $383 $384 reversed $159 $-1 #
coedge $-1 $385 $161 $163 $264 forward $99 $-1 #
coedge $-1 $161 $385 $381 $386 forward $99 $-1 #
coedge $-1 $383 $164 $161 $261 forward $266 $-1 #
edge $-1 $268 -2.6334335523707768 $387 3.7667796075552058 $260 $388 forward 7 unknown #
coedge $-1 $389 $390 $162 $263 forward $255 $-1 #
edge $-1 $391 -23.574997076426786 $267 -18.487271925498352 $262 $392 forward 7 unknown #
edge $-1 $268 -6.1369053343369817 $391 2.5250441212413278e-014 $163 $393 forward 7 unknown #
coedge $-1 $164 $383 $389 $394 forward $266 $-1 #
loop $-1 $-1 $383 $254 #
vertex $-1 $263 $395 #
vertex $-1 $165 $396 #
straight-curve $-1 -59.24391771508089 -2.0667605247785623 7.791517126880386 1 0 0 I I #
coedge $-1 $270 $270 $-1 $397 reversed $168 $-1 #
edge $-1 $398 0 $398 6.2831853071796004 $169 $399 forward 7 unknown #
vertex $-1 $172 $400 #
ellipse-curve $-1 -42.860698761634168 -0.23812819337113922 5.2476545514161703 -0.82903758062907751 0 0.55919289150049634 0.27959644575024817 0 0.41451879031453875 1 I I #
coedge $-1 $274 $274 $-1 $401 reversed $175 $-1 #
edge $-1 $402 0 $402 6.2831853071796004 $176 $403 forward 7 unknown #
vertex $-1 $179 $404 #
ellipse-curve $-1 -42.860698761634168 2.5048203037399936 5.2476545514161703 -0.82903758062907751 0 0.55919289150049634 0.27959644575024817 0 0.41451879031453875 1 I I #
face $-1 $-1 $195 $27 $-1 $405 reversed single #
loop $-1 $-1 $294 $180 #
plane-surface $-1 0 20.082645047589384 0 0 -1 0 0 0 -1 forward_v I I I I #
coedge $-1 $406 $292 $295 $407 forward $181 $-1 #
coedge $-1 $298 $183 $184 $286 reversed $113 $-1 #
coedge $-1 $292 $406 $183 $284 reversed $181 $-1 #
edge $-1 $299 -7.7915171268803851 $408 7.7915171268803851 $283 $409 forward 7 unknown #
coedge $-1 $185 $184 $406 $410 forward $73 $-1 #
edge $-1 $290 -44.576555681020537 $408 44.576555681020537 $282 $411 forward 7 unknown #
coedge $-1 $295 $294 $185 $288 reversed $279 $-1 #
edge $-1 $412 -44.576555681020537 $289 44.576555681020537 $287 $413 forward 7 unknown #
vertex $-1 $187 $414 #
vertex $-1 $301 $415 #
straight-curve $-1 44.576555681020537 0 -7.7915171268803851 0 -1 0 I I #
coedge $-1 $281 $283 $188 $293 reversed $181 $-1 #
edge $-1 $296 -20.082645047589384 $299 20.082645047589384 $292 $416 forward 7 unknown #
coedge $-1 $287 $189 $194 $302 forward $279 $-1 #
coedge $-1 $189 $287 $281 $407 reversed $279 $-1 #
vertex $-1 $190 $417 #
straight-curve $-1 0 20.082645047589384 7.7915171268803851 -1 0 0 I I #
coedge $-1 $191 $282 $193 $301 reversed $113 $-1 #
vertex $-1 $293 $418 #
straight-curve $-1 0 -20.082645047589384 7.7915171268803851 1 0 0 I I #
edge $-1 $196 -7.7915171268803851 $290 7.7915171268803851 $193 $419 forward 7 unknown #
edge $-1 $197 -7.7915171268803851 $289 7.7915171268803851 $194 $420 forward 7 unknown #
point $-1 44.576555681020537 -20.082645047589384 7.7915171268803851 #
point $-1 44.576555681020537 20.082645047589384 7.7915171268803851 #
face $-1 $-1 $421 $28 $-1 $422 reversed single #
loop $-1 $-1 $423 $199 #
plane-surface $-1 0 0 -7.7915171268803851 0 0 1 1 0 0 forward_v I I I I #
coedge $-1 $315 $325 $310 $424 forward $200 $-1 #
coedge $-1 $205 $202 $423 $425 reversed $121 $-1 #
coedge $-1 $202 $205 $308 $424 reversed $121 $-1 #
coedge $-1 $426 $427 $202 $312 forward $421 $-1 #
edge $-1 $428 -7.7915171268803851 $429 7.7915171268803851 $311 $430 forward 7 unknown #
coedge $-1 $423 $208 $203 $314 forward $306 $-1 #
edge $-1 $213 -16.937688207349446 $318 -13.683118215723361 $313 $431 forward 7 unknown #
coedge $-1 $210 $308 $204 $316 forward $200 $-1 #
edge $-1 $317 13.683118215723361 $212 16.937688207349446 $315 $432 forward 7 unknown #
vertex $-1 $316 $433 #
vertex $-1 $314 $434 #
straight-curve $-1 -28.993521427259765 -12.462186045979397 0 0 0 -1 I I #
coedge $-1 $427 $426 $207 $321 forward $421 $-1 #
edge $-1 $326 -7.7915171268803851 $323 7.7915171268803851 $320 $435 forward 7 unknown #
coedge $-1 $208 $423 $427 $436 forward $306 $-1 #
vertex $-1 $209 $437 #
straight-curve $-1 -32.248091418885849 -8.1362077733921954 -7.7915171268803851 0 1 0 I I #
coedge $-1 $308 $210 $426 $438 forward $200 $-1 #
vertex $-1 $438 $439 #
straight-curve $-1 -32.248091418885849 -8.1362077733921954 7.7915171268803851 0 -1 0 I I #
point $-1 -32.248091418885849 -12.462186045979397 7.7915171268803851 #
point $-1 -32.248091418885849 -12.462186045979397 -7.7915171268803851 #
face $-1 $-1 $346 $29 $-1 $440 forward single #
plane-surface $-1 -28.993521427259765 24.296834048984284 0 -1 0 0 0 0 1 forward_v I I I I #
coedge $-1 $441 $442 $349 $443 forward $216 $-1 #
coedge $-1 $342 $218 $219 $338 reversed $129 $-1 #
coedge $-1 $218 $342 $345 $444 reversed $129 $-1 #
coedge $-1 $442 $441 $218 $336 reversed $216 $-1 #
edge $-1 $445 -7.7915171268803851 $446 7.7915171268803851 $335 $447 forward 7 unknown #
coedge $-1 $220 $219 $441 $448 forward $81 $-1 #
edge $-1 $340 -4.2141890013948995 $446 4.2141890013948995 $333 $449 forward 7 unknown #
edge $-1 $450 -4.2141890013948995 $228 4.2141890013948995 $225 $451 forward 7 unknown #
vertex $-1 $338 $452 #
straight-curve $-1 0 20.082645047589384 -7.7915171268803851 -1 0 0 I I #
coedge $-1 $334 $333 $222 $343 reversed $129 $-1 #
edge $-1 $347 -7.7915171268803851 $340 7.7915171268803851 $342 $453 forward 7 unknown #
coedge $-1 $454 $223 $226 $350 forward $346 $-1 #
coedge $-1 $223 $454 $334 $444 forward $346 $-1 #
loop $-1 $-1 $223 $330 #
vertex $-1 $224 $455 #
straight-curve $-1 0 20.082645047589384 7.7915171268803851 1 0 0 I I #
coedge $-1 $226 $225 $332 $443 reversed $227 $-1 #
edge $-1 $229 -4.2141890013948995 $456 4.2141890013948995 $226 $457 forward 7 unknown #
point $-1 -28.993521427259765 20.082645047589384 -7.7915171268803851 #
point $-1 -28.993521427259765 20.082645047589384 7.7915171268803851 #
loop $-1 $-1 $239 $231 #
plane-surface $-1 44.576555681020537 0 0 -1 0 0 0 0 1 forward_v I I I I #
coedge $-1 $356 $234 $236 $360 reversed $137 $-1 #
coedge $-1 $234 $355 $458 $459 reversed $137 $-1 #
coedge $-1 $242 $237 $234 $358 forward $232 $-1 #
edge $-1 $361 6.8278171915696575 $460 10.259531030342394 $357 $461 forward 7 unknown #
coedge $-1 $236 $235 $364 $462 reversed $85 $-1 #
edge $-1 $463 -89.153111362041088 $361 -83.016206027704072 $355 $464 forward 7 unknown #
vertex $-1 $238 $465 #
straight-curve $-1 41.1448418422478 0.5666730275922145 7.791517126880386 0 -1 0 I I #
coedge $-1 $458 $239 $242 $368 reversed $353 $-1 #
coedge $-1 $239 $458 $359 $462 forward $353 $-1 #
vertex $-1 $240 $466 #
straight-curve $-1 44.576555681020537 4.3334526351474203 63.234428926949356 0 0 1 I I #
straight-curve $-1 -5.277230447784973 4.3334526351474203 76.615071725093202 0.55919289150049634 0 -0.82903758062907751 I I #
edge $-1 $460 -2.0667605247785623 $243 4.3334526351474203 $363 $467 forward 7 unknown #
point $-1 44.576555681020537 4.3334526351474203 7.7915171268803851 #
point $-1 41.1448418422478 4.3334526351474203 7.7915171268803789 #
edge $-1 $468 1 $468 0 $246 $-1 forward 7 unknown #
vertex $-1 $247 $469 #
ellipse-curve $-1 41.344410355399226 -0.23812819337113922 4.2249051392751404 0.82903758062907751 0 0.55919289150049634 0.27959644575024817 0 -0.41451879031453875 1 I I #
point $-1 43.140295207384419 -0.23812819337113922 4.8331357611016195 #
edge $-1 $470 1 $470 0 $250 $-1 forward 7 unknown #
vertex $-1 $251 $471 #
ellipse-curve $-1 41.344410355399226 2.5048203037399936 4.2249051392751404 0.82903758062907751 0 0.55919289150049634 0.27959644575024817 0 -0.41451879031453875 1 I I #
point $-1 43.140295207384419 2.5048203037399936 4.8331357611016195 #
plane-surface $-1 0 0 7.7915171268803851 0 0 1 1 0 0 forward_v I I I I #
coedge $-1 $390 $389 $382 $472 forward $255 $-1 #
coedge $-1 $382 $257 $259 $386 reversed $159 $-1 #
coedge $-1 $257 $381 $380 $472 reversed $159 $-1 #
coedge $-1 $265 $260 $257 $384 forward $266 $-1 #
edge $-1 $387 -18.099075872833083 $473 -14.667362034060353 $383 $474 forward 7 unknown #
coedge $-1 $259 $258 $390 $475 reversed $99 $-1 #
edge $-1 $476 -2.5250441212413278e-014 $387 6.1369053343369817 $381 $477 forward 7 unknown #
vertex $-1 $261 $478 #
straight-curve $-1 -41.144841842247807 0.5666730275922145 7.7915171268803851 0 1 0 I I #
coedge $-1 $380 $262 $265 $394 reversed $255 $-1 #
coedge $-1 $262 $380 $385 $475 forward $255 $-1 #
vertex $-1 $263 $479 #
straight-curve $-1 -44.576555681020537 -2.0667605247785623 26.278789052378738 0 0 1 I I #
straight-curve $-1 -44.576555681020523 -2.0667605247785623 2.7037919759519724 -0.55919289150049634 0 -0.82903758062907751 I I #
edge $-1 $473 -4.3334526351474203 $267 2.0667605247785623 $389 $480 forward 7 unknown #
point $-1 -44.576555681020537 -2.0667605247785623 7.7915171268803851 #
point $-1 -41.144841842247807 -2.0667605247785623 7.7915171268803851 #
edge $-1 $481 1 $481 0 $270 $-1 forward 7 unknown #
vertex $-1 $271 $482 #
ellipse-curve $-1 -41.344410355399233 -0.23812819337113922 4.2249051392751618 -0.82903758062907751 0 0.55919289150049634 0.27959644575024817 0 0.41451879031453875 1 I I #
point $-1 -42.581102315883932 -0.23812819337113922 5.6621733417307185 #
edge $-1 $483 1 $483 0 $274 $-1 forward 7 unknown #
vertex $-1 $275 $484 #
ellipse-curve $-1 -41.344410355399233 2.5048203037399936 4.2249051392751618 -0.82903758062907751 0 0.55919289150049634 0.27959644575024817 0 0.41451879031453875 1 I I #
point $-1 -42.581102315883932 2.5048203037399936 5.6621733417307185 #
plane-surface $-1 44.576555681020537 0 0 -1 0 0 0 0 1 forward_v I I I I #
coedge $-1 $283 $281 $285 $410 reversed $181 $-1 #
edge $-1 $296 -7.7915171268803851 $412 7.7915171268803851 $295 $485 forward 7 unknown #
vertex $-1 $410 $486 #
straight-curve $-1 -44.576555681020537 -20.082645047589384 0 0 0 -1 I I #
edge $-1 $408 -20.082645047589384 $412 20.082645047589384 $406 $487 forward 7 unknown #
straight-curve $-1 0 -20.082645047589384 -7.7915171268803851 -1 0 0 I I #
vertex $-1 $288 $488 #
straight-curve $-1 0 20.082645047589384 -7.7915171268803851 1 0 0 I I #
point $-1 44.576555681020537 20.082645047589384 -7.7915171268803851 #
point $-1 44.576555681020537 -20.082645047589384 -7.7915171268803851 #
straight-curve $-1 -44.576555681020537 0 7.7915171268803851 0 -1 0 I I #
point $-1 -44.576555681020537 20.082645047589384 7.7915171268803851 #
point $-1 -44.576555681020537 -20.082645047589384 7.7915171268803851 #
straight-curve $-1 44.576555681020537 -20.082645047589384 0 0 0 -1 I I #
straight-curve $-1 44.576555681020537 20.082645047589384 0 0 0 -1 I I #
loop $-1 $-1 $311 $305 #
plane-surface $-1 0 -20.082645047589384 0 0 1 0 0 0 1 forward_v I I I I #
coedge $-1 $322 $313 $309 $425 forward $306 $-1 #
edge $-1 $429 -11.946437274197189 $317 -4.3259782725872018 $308 $489 forward 7 unknown #
edge $-1 $318 4.3259782725872018 $428 11.946437274197189 $423 $490 forward 7 unknown #
coedge $-1 $320 $311 $325 $438 reversed $421 $-1 #
coedge $-1 $311 $320 $322 $436 reversed $421 $-1 #
vertex $-1 $436 $491 #
vertex $-1 $312 $492 #
straight-curve $-1 -28.993521427259765 -20.082645047589384 0 0 0 1 I I #
straight-curve $-1 -15.310403211536403 -12.462186045979397 -7.7915171268803851 1 0 0 I I #
straight-curve $-1 -15.310403211536403 -12.462186045979397 7.7915171268803851 -1 0 0 I I #
point $-1 -28.993521427259765 -12.462186045979397 7.7915171268803851 #
point $-1 -28.993521427259765 -12.462186045979397 -7.7915171268803851 #
straight-curve $-1 -32.248091418885849 -20.082645047589384 0 0 0 -1 I I #
edge $-1 $428 28.993521427259765 $323 32.248091418885849 $427 $493 forward 7 unknown #
point $-1 -32.248091418885849 -20.082645047589384 -7.7915171268803851 #
edge $-1 $326 -32.248091418885849 $429 -28.993521427259765 $426 $494 forward 7 unknown #
point $-1 -32.248091418885849 -20.082645047589384 7.7915171268803851 #
plane-surface $-1 0 0 7.7915171268803851 0 0 1 1 0 0 forward_v I I I I #
coedge $-1 $335 $332 $337 $448 reversed $216 $-1 #
coedge $-1 $332 $335 $454 $495 reversed $216 $-1 #
edge $-1 $456 -7.7915171268803851 $450 7.7915171268803851 $349 $496 forward 7 unknown #
edge $-1 $445 -4.2141890013948995 $347 4.2141890013948995 $334 $497 forward 7 unknown #
vertex $-1 $495 $498 #
vertex $-1 $448 $499 #
straight-curve $-1 -32.87964967838456 28.511023050379183 0 0 0 -1 I I #
edge $-1 $446 -1.9430641255623975 $450 1.9430641255623975 $441 $500 forward 7 unknown #
straight-curve $-1 -32.87964967838456 24.296834048984284 -7.7915171268803851 0 1 0 I I #
vertex $-1 $339 $501 #
straight-curve $-1 -28.993521427259765 24.296834048984284 -7.7915171268803851 0 -1 0 I I #
point $-1 -32.87964967838456 20.082645047589384 -7.7915171268803851 #
straight-curve $-1 -32.87964967838456 20.082645047589384 0 0 0 -1 I I #
coedge $-1 $345 $344 $442 $495 forward $346 $-1 #
point $-1 -32.87964967838456 20.082645047589384 7.7915171268803851 #
vertex $-1 $350 $502 #
straight-curve $-1 -28.993521427259765 24.296834048984284 7.7915171268803851 0 1 0 I I #
coedge $-1 $364 $363 $356 $459 forward $353 $-1 #
edge $-1 $460 55.44291180006897 $463 60.530636950997412 $458 $503 forward 7 unknown #
vertex $-1 $368 $504 #
straight-curve $-1 34.317024650678142 -2.0667605247785623 7.791517126880386 1 0 0 I I #
edge $-1 $463 -2.6334335523707768 $365 3.7667796075552058 $364 $505 forward 7 unknown #
vertex $-1 $462 $506 #
straight-curve $-1 -5.277230447784973 -2.0667605247785623 76.615071725093202 -0.55919289150049634 0 0.82903758062907751 I I #
point $-1 41.1448418422478 -2.0667605247785623 7.7915171268803789 #
point $-1 44.576555681020537 4.3334526351474203 2.703791975951944 #
straight-curve $-1 44.576555681020537 0 7.7915171268803851 0 1 0 I I #
vertex $-1 $371 $507 #
point $-1 41.62400680114947 -0.23812819337113922 3.8103863489606011 #
vertex $-1 $375 $508 #
point $-1 41.62400680114947 2.5048203037399936 3.8103863489606011 #
edge $-1 $473 18.487271925498352 $476 23.574997076426786 $380 $509 forward 7 unknown #
vertex $-1 $394 $510 #
straight-curve $-1 -59.24391771508089 4.3334526351474203 7.791517126880386 -1 0 0 I I #
edge $-1 $476 -3.7667796075552058 $391 2.6334335523707768 $390 $511 forward 7 unknown #
vertex $-1 $475 $512 #
straight-curve $-1 -44.576555681020523 4.3334526351474203 2.7037919759519724 0.55919289150049634 0 0.82903758062907751 I I #
point $-1 -41.144841842247807 4.3334526351474203 7.7915171268803851 #
point $-1 -44.576555681020537 -2.0667605247785623 2.7037919759519515 #
straight-curve $-1 -44.576555681020537 0 7.7915171268803851 0 -1 0 I I #
vertex $-1 $397 $513 #
point $-1 -41.064813909648983 -0.23812819337113922 4.6394239295897002 #
vertex $-1 $401 $514 #
point $-1 -41.064813909648983 2.5048203037399936 4.6394239295897002 #
straight-curve $-1 -44.576555681020537 20.082645047589384 0 0 0 -1 I I #
point $-1 -44.576555681020537 -20.082645047589384 -7.7915171268803851 #
straight-curve $-1 -44.576555681020537 0 -7.7915171268803851 0 1 0 I I #
point $-1 -44.576555681020537 20.082645047589384 -7.7915171268803851 #
straight-curve $-1 -28.993521427259765 -8.1362077733921954 7.7915171268803851 0 1 0 I I #
straight-curve $-1 -28.993521427259765 -8.1362077733921954 -7.7915171268803851 0 -1 0 I I #
point $-1 -28.993521427259765 -20.082645047589384 -7.7915171268803851 #
point $-1 -28.993521427259765 -20.082645047589384 7.7915171268803851 #
straight-curve $-1 0 -20.082645047589384 -7.7915171268803851 -1 0 0 I I #
straight-curve $-1 0 -20.082645047589384 7.7915171268803851 1 0 0 I I #
edge $-1 $456 -1.9430641255623975 $445 1.9430641255623975 $442 $515 forward 7 unknown #
straight-curve $-1 -28.993521427259765 28.511023050379183 0 0 0 -1 I I #
straight-curve $-1 -32.87964967838456 24.296834048984284 7.7915171268803851 0 -1 0 I I #
point $-1 -32.87964967838456 28.511023050379183 7.7915171268803851 #
point $-1 -32.87964967838456 28.511023050379183 -7.7915171268803851 #
straight-curve $-1 -30.936585552822162 28.511023050379183 -7.7915171268803851 1 0 0 I I #
point $-1 -28.993521427259765 28.511023050379183 -7.7915171268803851 #
point $-1 -28.993521427259765 28.511023050379183 7.7915171268803851 #
straight-curve $-1 44.576555681020537 -2.0667605247785623 63.234428926949356 0 0 -1 I I #
point $-1 44.576555681020537 -2.0667605247785623 7.7915171268803851 #
straight-curve $-1 44.576555681020537 0.5666730275922145 2.7037919759519369 0 1 0 I I #
point $-1 44.576555681020537 -2.0667605247785623 2.703791975951944 #
point $-1 40.929891565084681 -0.23812819337113922 3.945308693524892 #
point $-1 40.929891565084681 2.5048203037399936 3.945308693524892 #
straight-curve $-1 -44.576555681020537 4.3334526351474203 26.278789052378738 0 0 -1 I I #
point $-1 -44.576555681020537 4.3334526351474203 7.7915171268803851 #
straight-curve $-1 -44.576555681020537 0.5666730275922145 2.7037919759519555 0 -1 0 I I #
point $-1 -44.576555681020537 4.3334526351474203 2.7037919759519515 #
point $-1 -40.929891565084688 -0.23812819337113922 3.9453086935249133 #
point $-1 -40.929891565084688 2.5048203037399936 3.9453086935249133 #
straight-curve $-1 -30.936585552822162 28.511023050379183 7.7915171268803851 -1 0 0 I I #
End-of-ACIS-data 