500 0 20 0           
7 Unknown 11 ACIS 5.0 NT 24 Fri Mar 26 17:06:02 1999 
-1 9.9999999999999995e-007 1e-010 
body $-1 $20 $-1 $21 #
body $-1 $22 $-1 $23 #
body $-1 $24 $-1 $25 #
body $-1 $26 $-1 $27 #
body $-1 $28 $-1 $29 #
body $-1 $30 $-1 $31 #
body $-1 $32 $-1 $33 #
body $-1 $34 $-1 $35 #
body $-1 $36 $-1 $37 #
body $-1 $38 $-1 $39 #
body $-1 $40 $-1 $41 #
body $-1 $42 $-1 $43 #
body $-1 $44 $-1 $45 #
body $-1 $46 $-1 $47 #
body $-1 $48 $-1 $49 #
body $-1 $50 $-1 $51 #
body $-1 $52 $-1 $53 #
body $-1 $54 $-1 $55 #
body $-1 $56 $-1 $57 #
body $-1 $58 $-1 $59 #
lump $-1 $-1 $60 $0 #
transform $-1 1 0 0 0 1 0 0 0 1 71.633045442060606 48.982950614456563 10.954977782156501 1 rotate no_reflect no_shear #
lump $-1 $-1 $61 $1 #
transform $-1 1 0 0 0 1 0 0 0 1 71.633045442060606 48.982950614456563 10.954977782156501 1 rotate no_reflect no_shear #
lump $-1 $-1 $62 $2 #
transform $-1 1 0 0 0 1 0 0 0 1 71.633045442060606 48.982950614456563 10.954977782156501 1 rotate no_reflect no_shear #
lump $-1 $-1 $63 $3 #
transform $-1 1 0 0 0 1 0 0 0 1 71.633045442060606 48.982950614456563 10.954977782156501 1 rotate no_reflect no_shear #
lump $-1 $-1 $64 $4 #
transform $-1 1 0 0 0 1 0 0 0 1 71.633045442060606 48.982950614456563 10.954977782156501 1 rotate no_reflect no_shear #
lump $-1 $-1 $65 $5 #
transform $-1 1 0 0 0 1 0 0 0 1 71.633045442060606 48.982950614456563 10.954977782156501 1 rotate no_reflect no_shear #
lump $-1 $-1 $66 $6 #
transform $-1 1 0 0 0 1 0 0 0 1 71.633045442060606 48.982950614456563 10.954977782156501 1 rotate no_reflect no_shear #
lump $-1 $-1 $67 $7 #
transform $-1 1 0 0 0 1 0 0 0 1 71.633045442060606 48.982950614456563 10.954977782156501 1 rotate no_reflect no_shear #
lump $-1 $-1 $68 $8 #
transform $-1 1 0 0 0 1 0 0 0 1 71.633045442060606 48.982950614456563 10.954977782156501 1 rotate no_reflect no_shear #
lump $-1 $-1 $69 $9 #
transform $-1 1 0 0 0 1 0 0 0 1 71.633045442060606 48.982950614456563 10.954977782156501 1 rotate no_reflect no_shear #
lump $-1 $-1 $70 $10 #
transform $-1 1 0 0 0 1 0 0 0 1 71.633045442060606 48.982950614456563 10.954977782156501 1 rotate no_reflect no_shear #
lump $-1 $-1 $71 $11 #
transform $-1 1 0 0 0 1 0 0 0 1 71.633045442060606 48.982950614456563 10.954977782156501 1 rotate no_reflect no_shear #
lump $-1 $-1 $72 $12 #
transform $-1 1 0 0 0 1 0 0 0 1 71.633045442060606 48.982950614456563 10.954977782156501 1 rotate no_reflect no_shear #
lump $-1 $-1 $73 $13 #
transform $-1 1 0 0 0 1 0 0 0 1 71.633045442060606 48.982950614456563 10.954977782156501 1 rotate no_reflect no_shear #
lump $-1 $-1 $74 $14 #
transform $-1 1 0 0 0 1 0 0 0 1 71.633045442060606 48.982950614456563 10.954977782156501 1 rotate no_reflect no_shear #
lump $-1 $-1 $75 $15 #
transform $-1 1 0 0 0 1 0 0 0 1 71.633045442060606 48.982950614456563 10.954977782156501 1 rotate no_reflect no_shear #
lump $-1 $-1 $76 $16 #
transform $-1 1 0 0 0 1 0 0 0 1 71.633045442060606 48.982950614456563 10.954977782156501 1 rotate no_reflect no_shear #
lump $-1 $-1 $77 $17 #
transform $-1 1 0 0 0 1 0 0 0 1 71.633045442060606 48.982950614456563 10.954977782156501 1 rotate no_reflect no_shear #
lump $-1 $-1 $78 $18 #
transform $-1 1 0 0 0 1 0 0 0 1 71.633045442060606 48.982950614456563 10.954977782156501 1 rotate no_reflect no_shear #
lump $-1 $-1 $79 $19 #
transform $-1 1 0 0 0 1 0 0 0 1 71.633045442060606 48.982950614456563 10.954977782156501 1 rotate no_reflect no_shear #
shell $-1 $-1 $-1 $80 $-1 $20 #
shell $-1 $-1 $-1 $81 $-1 $22 #
shell $-1 $-1 $-1 $82 $-1 $24 #
shell $-1 $-1 $-1 $83 $-1 $26 #
shell $-1 $-1 $-1 $84 $-1 $28 #
shell $-1 $-1 $-1 $85 $-1 $30 #
shell $-1 $-1 $-1 $86 $-1 $32 #
shell $-1 $-1 $-1 $87 $-1 $34 #
shell $-1 $-1 $-1 $88 $-1 $36 #
shell $-1 $-1 $-1 $89 $-1 $38 #
shell $-1 $-1 $-1 $90 $-1 $40 #
shell $-1 $-1 $-1 $91 $-1 $42 #
shell $-1 $-1 $-1 $92 $-1 $44 #
shell $-1 $-1 $-1 $93 $-1 $46 #
shell $-1 $-1 $-1 $94 $-1 $48 #
shell $-1 $-1 $-1 $95 $-1 $50 #
shell $-1 $-1 $-1 $96 $-1 $52 #
shell $-1 $-1 $-1 $97 $-1 $54 #
shell $-1 $-1 $-1 $98 $-1 $56 #
shell $-1 $-1 $-1 $99 $-1 $58 #
face $-1 $100 $101 $60 $-1 $102 forward single #
face $-1 $103 $104 $61 $-1 $105 reversed single #
face $-1 $106 $107 $62 $-1 $108 reversed single #
face $-1 $109 $110 $63 $-1 $111 forward single #
face $-1 $112 $113 $64 $-1 $114 forward single #
face $-1 $115 $116 $65 $-1 $117 reversed single #
face $-1 $118 $119 $66 $-1 $120 forward single #
face $-1 $121 $122 $67 $-1 $123 forward single #
face $-1 $124 $125 $68 $-1 $126 reversed single #
face $-1 $127 $128 $69 $-1 $129 forward single #
face $-1 $130 $131 $70 $-1 $132 forward single #
face $-1 $133 $134 $71 $-1 $135 reversed single #
face $-1 $136 $137 $72 $-1 $138 forward single #
face $-1 $139 $140 $73 $-1 $141 forward single #
face $-1 $142 $143 $74 $-1 $144 reversed single #
face $-1 $145 $146 $75 $-1 $147 forward single #
face $-1 $148 $149 $76 $-1 $150 forward single #
face $-1 $151 $152 $77 $-1 $153 reversed single #
face $-1 $154 $155 $78 $-1 $156 forward single #
face $-1 $157 $158 $79 $-1 $159 forward single #
face $-1 $160 $161 $60 $-1 $162 reversed single #
loop $-1 $-1 $163 $80 #
plane-surface $-1 0 0 10.954977782156501 0 0 1 1 0 0 forward_v I I I I #
face $-1 $164 $165 $61 $-1 $166 reversed single #
loop $-1 $-1 $167 $81 #
plane-surface $-1 -67.007622265757846 0 6.8451978241213745 0 0 1 1 0 0 forward_v I I I I #
face $-1 $168 $169 $62 $-1 $170 reversed single #
loop $-1 $-1 $171 $82 #
plane-surface $-1 -10.20246977351821 121.32979224386639 164.11114165324761 1 0 0 0 -0.85716730853699208 -0.51503806187062418 forward_v I I I I #
face $-1 $172 $173 $63 $-1 $174 forward single #
loop $-1 $175 $176 $83 #
cone-surface $-1 -5.9659289307122094 46.219486840690848 7.8234625482828575 0 -0.85716730853699208 -0.51503806187062418 1 0 0 1 I I 0 1 1 forward I I I I #
face $-1 $177 $178 $64 $-1 $179 forward single #
loop $-1 $180 $181 $84 #
cone-surface $-1 0.38888233349678103 46.219486840690848 7.8234625482828575 0 -0.85716730853699208 -0.51503806187062418 1 0 0 1 I I 0 1 1 forward I I I I #
face $-1 $182 $183 $65 $-1 $184 reversed single #
loop $-1 $-1 $185 $85 #
plane-surface $-1 56.805152492239635 121.32979224386639 164.11114165324761 1 0 0 0 -0.85716730853699208 -0.51503806187062418 forward_v I I I I #
face $-1 $186 $187 $66 $-1 $188 forward single #
loop $-1 $189 $190 $86 #
cone-surface $-1 61.04169333504565 46.219486840690848 7.8234625482828575 0 -0.85716730853699208 -0.51503806187062418 1 0 0 1 I I 0 1 1 forward I I I I #
face $-1 $191 $192 $67 $-1 $193 forward single #
loop $-1 $194 $195 $87 #
cone-surface $-1 67.396504599254641 46.219486840690848 7.8234625482828575 0 -0.85716730853699208 -0.51503806187062418 1 0 0 1 I I 0 1 1 forward I I I I #
face $-1 $196 $197 $68 $-1 $198 reversed single #
loop $-1 $-1 $199 $88 #
plane-surface $-1 -28.878387956576162 -153.76113768310498 103.61441631115878 -1 0 0 0 -0.73135370988377701 0.68199835119979291 forward_v I I I I #
face $-1 $200 $201 $69 $-1 $202 forward single #
loop $-1 $203 $204 $89 #
cone-surface $-1 -45.541118103945813 -44.717298162605886 6.6480365898573748 0 0.73135370988377701 -0.68199835119979291 1.5 0 0 1 I I 0 1 1.5 forward I I I I #
face $-1 $205 $206 $70 $-1 $207 forward single #
loop $-1 $208 $209 $90 #
cone-surface $-1 -35.543480015524025 -44.717298162605886 6.6480365898573748 0 0.73135370988377701 -0.68199835119979291 1.5 0 0 1 I I 0 1 1.5 forward I I I I #
face $-1 $210 $211 $71 $-1 $212 reversed single #
loop $-1 $-1 $213 $91 #
plane-surface $-1 4.6254231763027622 -153.76113768310498 103.61441631115878 -1 0 0 0 -0.73135370988377701 0.68199835119979291 forward_v I I I I #
face $-1 $214 $215 $72 $-1 $216 forward single #
loop $-1 $217 $218 $92 #
cone-surface $-1 -12.03730697106689 -44.717298162605886 6.6480365898573748 0 0.73135370988377701 -0.68199835119979291 1.5 0 0 1 I I 0 1 1.5 forward I I I I #
face $-1 $219 $220 $73 $-1 $221 forward single #
loop $-1 $222 $223 $93 #
cone-surface $-1 -2.0396688826451026 -44.717298162605886 6.6480365898573748 0 0.73135370988377701 -0.68199835119979291 1.5 0 0 1 I I 0 1 1.5 forward I I I I #
face $-1 $224 $225 $74 $-1 $226 reversed single #
loop $-1 $-1 $227 $94 #
plane-surface $-1 38.129234309181683 -153.76113768310498 103.61441631115878 -1 0 0 0 -0.73135370988377701 0.68199835119979291 forward_v I I I I #
face $-1 $228 $229 $75 $-1 $230 forward single #
loop $-1 $231 $232 $95 #
cone-surface $-1 21.46650416181204 -44.717298162605886 6.6480365898573748 0 0.73135370988377701 -0.68199835119979291 1.5 0 0 1 I I 0 1 1.5 forward I I I I #
face $-1 $233 $234 $76 $-1 $235 forward single #
loop $-1 $236 $237 $96 #
cone-surface $-1 31.46414225023382 -44.717298162605886 6.6480365898573748 0 0.73135370988377701 -0.68199835119979291 1.5 0 0 1 I I 0 1 1.5 forward I I I I #
face $-1 $238 $239 $77 $-1 $240 reversed single #
loop $-1 $-1 $241 $97 #
plane-surface $-1 59.969134338901839 -48.982950614456556 5.9071785453484296 0 -0.73135370988377701 0.68199835119979291 1 0 0 forward_v I I I I #
face $-1 $242 $243 $78 $-1 $244 forward single #
loop $-1 $245 $246 $98 #
cone-surface $-1 54.970315294690963 -44.717298162605886 6.6480365898573748 0 0.73135370988377701 -0.68199835119979291 1.5 0 0 1 I I 0 1 1.5 forward I I I I #
face $-1 $247 $248 $79 $-1 $249 forward single #
loop $-1 $250 $251 $99 #
cone-surface $-1 64.967953383112743 -44.717298162605886 6.6480365898573748 0 0.73135370988377701 -0.68199835119979291 1.5 0 0 1 I I 0 1 1.5 forward I I I I #
face $-1 $252 $253 $60 $-1 $254 reversed single #
loop $-1 $-1 $255 $100 #
plane-surface $-1 0 0 -10.954977782156501 0 0 1 1 0 0 forward_v I I I I #
coedge $-1 $256 $257 $258 $259 forward $101 $-1 #
face $-1 $260 $261 $61 $-1 $262 reversed single #
loop $-1 $-1 $263 $103 #
plane-surface $-1 -62.382199089455085 0 8.9000878031389377 -1 0 0 0 0 1 forward_v I I I I #
coedge $-1 $264 $265 $266 $267 forward $104 $-1 #
face $-1 $268 $269 $62 $-1 $270 reversed single #
loop $-1 $-1 $271 $106 #
plane-surface $-1 -2.7885232986077284 -1.4732172838918842 90.323651872509132 0 0.85716730853699208 0.51503806187062418 1 0 0 forward_v I I I I #
coedge $-1 $272 $273 $274 $275 reversed $107 $-1 #
face $-1 $-1 $276 $63 $-1 $277 forward single #
loop $-1 $278 $279 $109 #
cone-surface $-1 -5.9659289307122094 44.410768860806677 6.7366751806917229 0 -0.85716730853699208 -0.51503806187062418 0.5 0 0 1 I I -0.70710678118654746 0.70710678118654746 0.5 forward I I I I #
loop $-1 $-1 $280 $83 #
coedge $-1 $176 $176 $281 $282 reversed $110 $-1 #
face $-1 $-1 $283 $64 $-1 $284 forward single #
loop $-1 $285 $286 $112 #
cone-surface $-1 0.38888233349678103 44.410768860806677 6.7366751806917229 0 -0.85716730853699208 -0.51503806187062418 0.5 0 0 1 I I -0.70710678118654746 0.70710678118654746 0.5 forward I I I I #
loop $-1 $-1 $287 $84 #
coedge $-1 $181 $181 $288 $289 reversed $113 $-1 #
face $-1 $290 $291 $65 $-1 $292 forward single #
loop $-1 $-1 $293 $115 #
plane-surface $-1 64.219098967150117 -1.4732172838918842 90.323651872509132 0 0.85716730853699208 0.51503806187062418 1 0 0 forward_v I I I I #
coedge $-1 $294 $295 $296 $297 reversed $116 $-1 #
face $-1 $-1 $298 $66 $-1 $299 forward single #
loop $-1 $300 $301 $118 #
cone-surface $-1 61.04169333504565 44.410768860806677 6.7366751806917229 0 -0.85716730853699208 -0.51503806187062418 0.5 0 0 1 I I -0.70710678118654746 0.70710678118654746 0.5 forward I I I I #
loop $-1 $-1 $302 $86 #
coedge $-1 $190 $190 $303 $304 reversed $119 $-1 #
face $-1 $-1 $305 $67 $-1 $306 forward single #
loop $-1 $307 $308 $121 #
cone-surface $-1 67.396504599254641 44.410768860806677 6.7366751806917229 0 -0.85716730853699208 -0.51503806187062418 0.5 0 0 1 I I -0.70710678118654746 0.70710678118654746 0.5 forward I I I I #
loop $-1 $-1 $309 $87 #
coedge $-1 $195 $195 $310 $311 reversed $122 $-1 #
face $-1 $312 $313 $68 $-1 $314 reversed single #
loop $-1 $-1 $315 $124 #
plane-surface $-1 -40.542299059734916 -48.982950614456556 5.9071785453484296 0 -0.73135370988377701 0.68199835119979291 1 0 0 forward_v I I I I #
coedge $-1 $316 $317 $318 $319 reversed $125 $-1 #
face $-1 $-1 $320 $69 $-1 $321 forward single #
loop $-1 $322 $323 $127 #
cone-surface $-1 -45.541118103945813 -42.256704841219666 4.3534962525624383 0 0.73135370988377701 -0.68199835119979291 0.75 0 0 1 I I -0.70710678118654757 0.70710678118654757 0.75 forward I I I I #
loop $-1 $-1 $324 $89 #
coedge $-1 $204 $204 $325 $326 reversed $128 $-1 #
face $-1 $-1 $327 $70 $-1 $328 forward single #
loop $-1 $329 $330 $130 #
cone-surface $-1 -35.543480015524025 -42.256704841219666 4.3534962525624383 0 0.73135370988377701 -0.68199835119979291 0.75 0 0 1 I I -0.70710678118654757 0.70710678118654757 0.75 forward I I I I #
loop $-1 $-1 $331 $90 #
coedge $-1 $209 $209 $332 $333 reversed $131 $-1 #
face $-1 $334 $335 $71 $-1 $336 reversed single #
loop $-1 $-1 $337 $133 #
plane-surface $-1 -7.0384879268559928 -48.982950614456556 5.9071785453484296 0 -0.73135370988377701 0.68199835119979291 1 0 0 forward_v I I I I #
coedge $-1 $338 $339 $340 $341 reversed $134 $-1 #
face $-1 $-1 $342 $72 $-1 $343 forward single #
loop $-1 $344 $345 $136 #
cone-surface $-1 -12.03730697106689 -42.256704841219666 4.3534962525624383 0 0.73135370988377701 -0.68199835119979291 0.75 0 0 1 I I -0.70710678118654757 0.70710678118654757 0.75 forward I I I I #
loop $-1 $-1 $346 $92 #
coedge $-1 $218 $218 $347 $348 reversed $137 $-1 #
face $-1 $-1 $349 $73 $-1 $350 forward single #
loop $-1 $351 $352 $139 #
cone-surface $-1 -2.0396688826451026 -42.256704841219666 4.3534962525624383 0 0.73135370988377701 -0.68199835119979291 0.75 0 0 1 I I -0.70710678118654757 0.70710678118654757 0.75 forward I I I I #
loop $-1 $-1 $353 $93 #
coedge $-1 $223 $223 $354 $355 reversed $140 $-1 #
face $-1 $356 $357 $74 $-1 $358 reversed single #
loop $-1 $-1 $359 $142 #
plane-surface $-1 26.46532320602293 -48.982950614456556 5.9071785453484296 0 -0.73135370988377701 0.68199835119979291 1 0 0 forward_v I I I I #
coedge $-1 $360 $361 $362 $363 reversed $143 $-1 #
face $-1 $-1 $364 $75 $-1 $365 forward single #
loop $-1 $366 $367 $145 #
cone-surface $-1 21.46650416181204 -42.256704841219666 4.3534962525624383 0 0.73135370988377701 -0.68199835119979291 0.75 0 0 1 I I -0.70710678118654757 0.70710678118654757 0.75 forward I I I I #
loop $-1 $-1 $368 $95 #
coedge $-1 $232 $232 $369 $370 reversed $146 $-1 #
face $-1 $-1 $371 $76 $-1 $372 forward single #
loop $-1 $373 $374 $148 #
cone-surface $-1 31.46414225023382 -42.256704841219666 4.3534962525624383 0 0.73135370988377701 -0.68199835119979291 0.75 0 0 1 I I -0.70710678118654757 0.70710678118654757 0.75 forward I I I I #
loop $-1 $-1 $375 $96 #
coedge $-1 $237 $237 $376 $377 reversed $149 $-1 #
face $-1 $378 $379 $77 $-1 $380 reversed single #
loop $-1 $-1 $381 $151 #
plane-surface $-1 48.305223235743085 -153.76113768310498 103.61441631115878 1 0 0 0 0.73135370988377701 -0.68199835119979291 forward_v I I I I #
coedge $-1 $382 $383 $384 $385 reversed $152 $-1 #
face $-1 $-1 $386 $78 $-1 $387 forward single #
loop $-1 $388 $389 $154 #
cone-surface $-1 54.970315294690963 -42.256704841219666 4.3534962525624383 0 0.73135370988377701 -0.68199835119979291 0.75 0 0 1 I I -0.70710678118654757 0.70710678118654757 0.75 forward I I I I #
loop $-1 $-1 $390 $98 #
coedge $-1 $246 $246 $391 $392 reversed $155 $-1 #
face $-1 $-1 $393 $79 $-1 $394 forward single #
loop $-1 $395 $396 $157 #
cone-surface $-1 64.967953383112743 -42.256704841219666 4.3534962525624383 0 0.73135370988377701 -0.68199835119979291 0.75 0 0 1 I I -0.70710678118654757 0.70710678118654757 0.75 forward I I I I #
loop $-1 $-1 $397 $99 #
coedge $-1 $251 $251 $398 $399 reversed $158 $-1 #
face $-1 $400 $401 $60 $-1 $402 reversed single #
loop $-1 $-1 $403 $160 #
plane-surface $-1 0 -48.982950614456563 0 0 1 0 0 0 1 forward_v I I I I #
coedge $-1 $404 $405 $406 $407 forward $161 $-1 #
coedge $-1 $408 $163 $409 $410 forward $101 $-1 #
coedge $-1 $163 $408 $411 $412 forward $101 $-1 #
coedge $-1 $413 $414 $163 $259 reversed $415 $-1 #
edge $-1 $416 -48.982950614456563 $417 48.982950614456563 $258 $418 forward 7 unknown #
face $-1 $419 $420 $61 $-1 $421 reversed single #
loop $-1 $-1 $422 $164 #
plane-surface $-1 0 48.982950614456563 0 0 -1 0 0 0 -1 forward_v I I I I #
coedge $-1 $266 $423 $424 $425 reversed $165 $-1 #
coedge $-1 $426 $167 $427 $428 reversed $104 $-1 #
coedge $-1 $167 $426 $429 $430 reversed $104 $-1 #
coedge $-1 $431 $263 $167 $267 reversed $165 $-1 #
edge $-1 $432 -48.982950614456563 $433 48.982950614456563 $266 $434 forward 7 unknown #
face $-1 $435 $436 $62 $-1 $437 forward single #
loop $-1 $-1 $438 $168 #
plane-surface $-1 4.6254231763027533 121.32979224386639 164.11114165324761 -1 0 0 0 0.85716730853699208 0.51503806187062418 forward_v I I I I #
coedge $-1 $439 $440 $441 $442 reversed $169 $-1 #
coedge $-1 $273 $171 $443 $444 reversed $107 $-1 #
coedge $-1 $171 $272 $439 $445 reversed $107 $-1 #
coedge $-1 $441 $446 $171 $275 forward $436 $-1 #
edge $-1 $447 11.681945507476634 $448 14.44860440377672 $274 $449 forward 7 unknown #
loop $-1 $-1 $281 $172 #
plane-surface $-1 -2.7885232986077284 -1.4732172838918842 90.323651872509132 0 0.85716730853699208 0.51503806187062418 1 0 0 forward_v I I I I #
loop $-1 $-1 $450 $109 #
coedge $-1 $279 $279 $280 $451 reversed $173 $-1 #
coedge $-1 $280 $280 $279 $451 forward $175 $-1 #
coedge $-1 $281 $281 $176 $282 forward $276 $-1 #
edge $-1 $452 -1.2023834831759341e-015 $452 6.2831853071795996 $281 $453 forward 7 unknown #
loop $-1 $-1 $288 $177 #
plane-surface $-1 -2.7885232986077284 -1.4732172838918842 90.323651872509132 0 0.85716730853699208 0.51503806187062418 1 0 0 forward_v I I I I #
loop $-1 $-1 $454 $112 #
coedge $-1 $286 $286 $287 $455 reversed $178 $-1 #
coedge $-1 $287 $287 $286 $455 forward $180 $-1 #
coedge $-1 $288 $288 $181 $289 forward $283 $-1 #
edge $-1 $456 -1.2023834831759341e-015 $456 6.2831853071795996 $288 $457 forward 7 unknown #
face $-1 $458 $459 $65 $-1 $460 reversed single #
loop $-1 $-1 $296 $182 #
plane-surface $-1 0 0 10.954977782156501 0 0 1 1 0 0 forward_v I I I I #
coedge $-1 $461 $462 $463 $464 reversed $183 $-1 #
coedge $-1 $295 $185 $465 $466 reversed $116 $-1 #
coedge $-1 $185 $294 $461 $467 reversed $116 $-1 #
coedge $-1 $463 $468 $185 $297 forward $291 $-1 #
edge $-1 $469 11.681945507476634 $470 14.44860440377672 $296 $471 forward 7 unknown #
loop $-1 $-1 $303 $186 #
plane-surface $-1 64.219098967150117 -1.4732172838918842 90.323651872509132 0 0.85716730853699208 0.51503806187062418 1 0 0 forward_v I I I I #
loop $-1 $-1 $472 $118 #
coedge $-1 $301 $301 $302 $473 reversed $187 $-1 #
coedge $-1 $302 $302 $301 $473 forward $189 $-1 #
coedge $-1 $303 $303 $190 $304 forward $298 $-1 #
edge $-1 $474 -1.2023834831759341e-015 $474 6.2831853071795996 $303 $475 forward 7 unknown #
loop $-1 $-1 $310 $191 #
plane-surface $-1 64.219098967150117 -1.4732172838918842 90.323651872509132 0 0.85716730853699208 0.51503806187062418 1 0 0 forward_v I I I I #
loop $-1 $-1 $476 $121 #
coedge $-1 $308 $308 $309 $477 reversed $192 $-1 #
coedge $-1 $309 $309 $308 $477 forward $194 $-1 #
coedge $-1 $310 $310 $195 $311 forward $305 $-1 #
edge $-1 $478 -1.2023834831759341e-015 $478 6.2831853071795996 $310 $479 forward 7 unknown #
face $-1 $480 $481 $68 $-1 $482 reversed single #
loop $-1 $-1 $483 $196 #
plane-surface $-1 -52.206210162893669 -153.76113768310498 103.61441631115878 1 0 0 0 0.73135370988377701 -0.68199835119979291 forward_v I I I I #
coedge $-1 $484 $485 $486 $487 reversed $197 $-1 #
coedge $-1 $317 $199 $488 $489 reversed $125 $-1 #
coedge $-1 $199 $316 $484 $490 reversed $125 $-1 #
coedge $-1 $486 $491 $199 $319 forward $492 $-1 #
edge $-1 $493 27.897618227095926 $494 32.604767052850512 $318 $495 forward 7 unknown #
loop $-1 $-1 $325 $200 #
plane-surface $-1 -40.542299059734916 -48.982950614456556 5.9071785453484296 0 -0.73135370988377701 0.68199835119979291 1 0 0 forward_v I I I I #
loop $-1 $-1 $496 $127 #
coedge $-1 $323 $323 $324 $497 reversed $201 $-1 #
coedge $-1 $324 $324 $323 $497 forward $203 $-1 #
coedge $-1 $325 $325 $204 $326 forward $320 $-1 #
edge $-1 $498 -6.3230283249026854e-016 $498 6.2831853071795996 $325 $499 forward 7 unknown #
loop $-1 $-1 $332 $205 #
plane-surface $-1 -40.542299059734916 -48.982950614456556 5.9071785453484296 0 -0.73135370988377701 0.68199835119979291 1 0 0 forward_v I I I I #
loop $-1 $-1 $500 $130 #
coedge $-1 $330 $330 $331 $501 reversed $206 $-1 #
coedge $-1 $331 $331 $330 $501 forward $208 $-1 #
coedge $-1 $332 $332 $209 $333 forward $327 $-1 #
edge $-1 $502 -6.3230283249026854e-016 $502 6.2831853071795996 $332 $503 forward 7 unknown #
face $-1 $504 $505 $71 $-1 $506 reversed single #
loop $-1 $-1 $507 $210 #
plane-surface $-1 -18.702399030014746 -153.76113768310498 103.61441631115878 1 0 0 0 0.73135370988377701 -0.68199835119979291 forward_v I I I I #
coedge $-1 $508 $509 $510 $511 reversed $211 $-1 #
coedge $-1 $339 $213 $512 $513 reversed $134 $-1 #
coedge $-1 $213 $338 $508 $514 reversed $134 $-1 #
coedge $-1 $510 $515 $213 $341 forward $516 $-1 #
edge $-1 $517 27.897618227095926 $518 32.604767052850512 $340 $519 forward 7 unknown #
loop $-1 $-1 $347 $214 #
plane-surface $-1 -7.0384879268559928 -48.982950614456556 5.9071785453484296 0 -0.73135370988377701 0.68199835119979291 1 0 0 forward_v I I I I #
loop $-1 $-1 $520 $136 #
coedge $-1 $345 $345 $346 $521 reversed $215 $-1 #
coedge $-1 $346 $346 $345 $521 forward $217 $-1 #
coedge $-1 $347 $347 $218 $348 forward $342 $-1 #
edge $-1 $522 -6.3230283249026854e-016 $522 6.2831853071795996 $347 $523 forward 7 unknown #
loop $-1 $-1 $354 $219 #
plane-surface $-1 -7.0384879268559928 -48.982950614456556 5.9071785453484296 0 -0.73135370988377701 0.68199835119979291 1 0 0 forward_v I I I I #
loop $-1 $-1 $524 $139 #
coedge $-1 $352 $352 $353 $525 reversed $220 $-1 #
coedge $-1 $353 $353 $352 $525 forward $222 $-1 #
coedge $-1 $354 $354 $223 $355 forward $349 $-1 #
edge $-1 $526 -6.3230283249026854e-016 $526 6.2831853071795996 $354 $527 forward 7 unknown #
face $-1 $528 $529 $74 $-1 $530 reversed single #
loop $-1 $-1 $531 $224 #
plane-surface $-1 14.801412102864175 -153.76113768310498 103.61441631115878 1 0 0 0 0.73135370988377701 -0.68199835119979291 forward_v I I I I #
coedge $-1 $532 $533 $534 $535 reversed $225 $-1 #
coedge $-1 $361 $227 $536 $537 reversed $143 $-1 #
coedge $-1 $227 $360 $532 $538 reversed $143 $-1 #
coedge $-1 $534 $539 $227 $363 forward $540 $-1 #
edge $-1 $541 27.897618227095926 $542 32.604767052850512 $362 $543 forward 7 unknown #
loop $-1 $-1 $369 $228 #
plane-surface $-1 26.46532320602293 -48.982950614456556 5.9071785453484296 0 -0.73135370988377701 0.68199835119979291 1 0 0 forward_v I I I I #
loop $-1 $-1 $544 $145 #
coedge $-1 $367 $367 $368 $545 reversed $229 $-1 #
coedge $-1 $368 $368 $367 $545 forward $231 $-1 #
coedge $-1 $369 $369 $232 $370 forward $364 $-1 #
edge $-1 $546 -6.3230283249026854e-016 $546 6.2831853071795996 $369 $547 forward 7 unknown #
loop $-1 $-1 $376 $233 #
plane-surface $-1 26.46532320602293 -48.982950614456556 5.9071785453484296 0 -0.73135370988377701 0.68199835119979291 1 0 0 forward_v I I I I #
loop $-1 $-1 $548 $148 #
coedge $-1 $374 $374 $375 $549 reversed $234 $-1 #
coedge $-1 $375 $375 $374 $549 forward $236 $-1 #
coedge $-1 $376 $376 $237 $377 forward $371 $-1 #
edge $-1 $550 -6.3230283249026854e-016 $550 6.2831853071795996 $376 $551 forward 7 unknown #
face $-1 $552 $553 $77 $-1 $554 forward single #
loop $-1 $-1 $555 $238 #
plane-surface $-1 0 -48.982950614456563 0 0 1 0 0 0 1 forward_v I I I I #
coedge $-1 $556 $557 $558 $559 reversed $239 $-1 #
coedge $-1 $560 $241 $561 $562 reversed $152 $-1 #
coedge $-1 $241 $560 $556 $563 forward $152 $-1 #
coedge $-1 $558 $564 $241 $385 forward $553 $-1 #
edge $-1 $565 -41.648478272609673 $566 -18.320656066292166 $384 $567 forward 7 unknown #
loop $-1 $-1 $391 $242 #
plane-surface $-1 59.969134338901839 -48.982950614456556 5.9071785453484296 0 -0.73135370988377701 0.68199835119979291 1 0 0 forward_v I I I I #
loop $-1 $-1 $568 $154 #
coedge $-1 $389 $389 $390 $569 reversed $243 $-1 #
coedge $-1 $390 $390 $389 $569 forward $245 $-1 #
coedge $-1 $391 $391 $246 $392 forward $386 $-1 #
edge $-1 $570 -6.3230283249026854e-016 $570 6.2831853071795996 $391 $571 forward 7 unknown #
loop $-1 $-1 $398 $247 #
plane-surface $-1 59.969134338901839 -48.982950614456556 5.9071785453484296 0 -0.73135370988377701 0.68199835119979291 1 0 0 forward_v I I I I #
loop $-1 $-1 $572 $157 #
coedge $-1 $396 $396 $397 $573 reversed $248 $-1 #
coedge $-1 $397 $397 $396 $573 forward $250 $-1 #
coedge $-1 $398 $398 $251 $399 forward $393 $-1 #
edge $-1 $574 -6.3230283249026854e-016 $574 6.2831853071795996 $398 $575 forward 7 unknown #
face $-1 $576 $577 $60 $-1 $578 reversed single #
loop $-1 $-1 $579 $252 #
plane-surface $-1 -71.633045442060606 0 0 1 0 0 0 0 -1 forward_v I I I I #
coedge $-1 $580 $411 $581 $582 forward $253 $-1 #
coedge $-1 $583 $255 $580 $584 forward $161 $-1 #
coedge $-1 $255 $583 $585 $586 forward $161 $-1 #
coedge $-1 $414 $413 $255 $407 reversed $415 $-1 #
edge $-1 $587 -48.982950614456563 $588 48.982950614456563 $406 $589 forward 7 unknown #
coedge $-1 $257 $256 $590 $591 forward $101 $-1 #
coedge $-1 $592 $593 $256 $410 reversed $577 $-1 #
edge $-1 $417 -71.633045442060606 $594 71.633045442060606 $409 $595 forward 7 unknown #
coedge $-1 $403 $596 $257 $412 reversed $253 $-1 #
edge $-1 $597 -71.633045442060606 $416 71.633045442060606 $411 $598 forward 7 unknown #
coedge $-1 $406 $258 $596 $599 forward $415 $-1 #
coedge $-1 $258 $406 $592 $600 reversed $415 $-1 #
loop $-1 $-1 $413 $576 #
vertex $-1 $259 $601 #
vertex $-1 $259 $602 #
straight-curve $-1 71.633045442060606 0 10.954977782156501 0 1 0 I I #
face $-1 $603 $604 $61 $-1 $605 forward single #
loop $-1 $-1 $606 $260 #
plane-surface $-1 -71.633045442060606 0 0 1 0 0 0 0 -1 forward_v I I I I #
coedge $-1 $429 $607 $431 $608 forward $261 $-1 #
coedge $-1 $263 $431 $609 $610 reversed $165 $-1 #
coedge $-1 $611 $427 $263 $425 forward $612 $-1 #
edge $-1 $433 2.3951539225519056 $613 6.504933880587032 $424 $614 forward 7 unknown #
coedge $-1 $265 $264 $606 $615 reversed $104 $-1 #
coedge $-1 $424 $616 $264 $428 forward $612 $-1 #
edge $-1 $617 -38.129234309181683 $433 -28.878387956576162 $427 $618 forward 7 unknown #
coedge $-1 $619 $422 $265 $430 forward $261 $-1 #
edge $-1 $432 28.878387956576162 $620 38.129234309181683 $429 $621 forward 7 unknown #
coedge $-1 $423 $266 $422 $608 reversed $165 $-1 #
vertex $-1 $430 $622 #
vertex $-1 $428 $623 #
straight-curve $-1 -62.382199089455085 0 6.8451978241213745 0 -1 0 I I #
face $-1 $-1 $624 $62 $-1 $625 reversed single #
loop $-1 $-1 $274 $268 #
plane-surface $-1 0 0 10.954977782156501 0 0 1 1 0 0 forward_v I I I I #
coedge $-1 $626 $627 $628 $629 reversed $269 $-1 #
coedge $-1 $630 $271 $273 $445 forward $169 $-1 #
coedge $-1 $271 $630 $626 $631 forward $169 $-1 #
coedge $-1 $628 $274 $271 $442 forward $436 $-1 #
edge $-1 $448 -8.808208124214346 $632 6.0196848256066176 $441 $633 forward 7 unknown #
coedge $-1 $634 $635 $272 $444 forward $624 $-1 #
edge $-1 $636 -75.705086838902986 $447 -71.100593044467303 $443 $637 forward 7 unknown #
edge $-1 $448 92.594145040153961 $636 97.965901228913197 $273 $638 forward 7 unknown #
coedge $-1 $274 $628 $634 $639 forward $436 $-1 #
vertex $-1 $444 $640 #
vertex $-1 $275 $641 #
straight-curve $-1 -10.20246977351821 60.664896121933197 10.954977782156504 0 -1 0 I I #
coedge $-1 $450 $450 $-1 $642 reversed $278 $-1 #
edge $-1 $643 0 $643 6.2831853071796004 $279 $644 forward 7 unknown #
vertex $-1 $282 $645 #
ellipse-curve $-1 -5.9659289307122094 47.599621166306505 8.6527308849386664 0 0.85716730853699208 0.51503806187062418 1 0 0 1 I I #
coedge $-1 $454 $454 $-1 $646 reversed $285 $-1 #
edge $-1 $647 0 $647 6.2831853071796004 $286 $648 forward 7 unknown #
vertex $-1 $289 $649 #
ellipse-curve $-1 0.38888233349678103 47.599621166306505 8.6527308849386664 0 0.85716730853699208 0.51503806187062418 1 0 0 1 I I #
face $-1 $-1 $650 $65 $-1 $651 reversed single #
loop $-1 $-1 $652 $290 #
plane-surface $-1 71.633045442060606 0 0 -1 0 0 0 0 1 forward_v I I I I #
coedge $-1 $653 $293 $295 $467 forward $183 $-1 #
coedge $-1 $293 $653 $652 $654 reversed $183 $-1 #
coedge $-1 $655 $296 $293 $464 forward $291 $-1 #
edge $-1 $470 24.695603008664577 $656 39.523495958485533 $463 $657 forward 7 unknown #
coedge $-1 $658 $659 $294 $466 forward $650 $-1 #
edge $-1 $660 -75.705086838902986 $469 -71.100593044467303 $465 $661 forward 7 unknown #
edge $-1 $470 92.594145040153961 $660 97.965901228913197 $295 $662 forward 7 unknown #
coedge $-1 $296 $655 $658 $663 forward $291 $-1 #
vertex $-1 $466 $664 #
vertex $-1 $297 $665 #
straight-curve $-1 56.805152492239635 60.664896121933197 10.954977782156504 0 -1 0 I I #
coedge $-1 $472 $472 $-1 $666 reversed $300 $-1 #
edge $-1 $667 0 $667 6.2831853071796004 $301 $668 forward 7 unknown #
vertex $-1 $304 $669 #
ellipse-curve $-1 61.04169333504565 47.599621166306505 8.6527308849386664 0 0.85716730853699208 0.51503806187062418 1 0 0 1 I I #
coedge $-1 $476 $476 $-1 $670 reversed $307 $-1 #
edge $-1 $671 0 $671 6.2831853071796004 $308 $672 forward 7 unknown #
vertex $-1 $311 $673 #
ellipse-curve $-1 67.396504599254641 47.599621166306505 8.6527308849386664 0 0.85716730853699208 0.51503806187062418 1 0 0 1 I I #
face $-1 $-1 $492 $68 $-1 $674 forward single #
loop $-1 $-1 $675 $312 #
plane-surface $-1 0 -48.982950614456563 0 0 1 0 0 0 1 forward_v I I I I #
coedge $-1 $676 $677 $678 $679 reversed $313 $-1 #
coedge $-1 $680 $315 $317 $490 forward $197 $-1 #
coedge $-1 $315 $680 $676 $681 forward $197 $-1 #
coedge $-1 $678 $318 $315 $487 forward $492 $-1 #
edge $-1 $494 8.6072384267087045 $682 31.935060633026211 $486 $683 forward 7 unknown #
coedge $-1 $684 $685 $316 $489 forward $481 $-1 #
edge $-1 $686 -45.900029610230966 $493 -40.852230373422884 $488 $687 forward 7 unknown #
edge $-1 $494 -6.9019944366047454 $686 1.0692042983031357e-014 $317 $688 forward 7 unknown #
coedge $-1 $318 $678 $684 $689 forward $492 $-1 #
loop $-1 $-1 $678 $480 #
vertex $-1 $489 $690 #
vertex $-1 $319 $691 #
straight-curve $-1 -28.878387956576162 -76.880568841552488 10.954977782156504 0 1 0 I I #
coedge $-1 $496 $496 $-1 $692 reversed $322 $-1 #
edge $-1 $693 0 $693 6.2831853071796004 $323 $694 forward 7 unknown #
vertex $-1 $326 $695 #
ellipse-curve $-1 -45.541118103945813 -46.629376201579269 8.4310781637524617 0 -0.73135370988377701 0.68199835119979291 1.5 0 0 1 I I #
coedge $-1 $500 $500 $-1 $696 reversed $329 $-1 #
edge $-1 $697 0 $697 6.2831853071796004 $330 $698 forward 7 unknown #
vertex $-1 $333 $699 #
ellipse-curve $-1 -35.543480015524025 -46.629376201579269 8.4310781637524617 0 -0.73135370988377701 0.68199835119979291 1.5 0 0 1 I I #
face $-1 $-1 $516 $71 $-1 $700 forward single #
loop $-1 $-1 $701 $334 #
plane-surface $-1 0 -48.982950614456563 0 0 1 0 0 0 1 forward_v I I I I #
coedge $-1 $702 $703 $704 $705 reversed $335 $-1 #
coedge $-1 $706 $337 $339 $514 forward $211 $-1 #
coedge $-1 $337 $706 $702 $707 forward $211 $-1 #
coedge $-1 $704 $340 $337 $511 forward $516 $-1 #
edge $-1 $518 -8.1446671397307586 $708 15.18315506658675 $510 $709 forward 7 unknown #
coedge $-1 $710 $711 $338 $513 forward $505 $-1 #
edge $-1 $712 -45.900029610230966 $517 -40.852230373422884 $512 $713 forward 7 unknown #
edge $-1 $518 -6.9019944366047454 $712 1.0692042983031357e-014 $339 $714 forward 7 unknown #
coedge $-1 $340 $704 $710 $715 forward $516 $-1 #
loop $-1 $-1 $704 $504 #
vertex $-1 $513 $716 #
vertex $-1 $341 $717 #
straight-curve $-1 4.6254231763027622 -76.880568841552488 10.954977782156504 0 1 0 I I #
coedge $-1 $520 $520 $-1 $718 reversed $344 $-1 #
edge $-1 $719 0 $719 6.2831853071796004 $345 $720 forward 7 unknown #
vertex $-1 $348 $721 #
ellipse-curve $-1 -12.03730697106689 -46.629376201579269 8.4310781637524617 0 -0.73135370988377701 0.68199835119979291 1.5 0 0 1 I I #
coedge $-1 $524 $524 $-1 $722 reversed $351 $-1 #
edge $-1 $723 0 $723 6.2831853071796004 $352 $724 forward 7 unknown #
vertex $-1 $355 $725 #
ellipse-curve $-1 -2.0396688826451026 -46.629376201579269 8.4310781637524617 0 -0.73135370988377701 0.68199835119979291 1.5 0 0 1 I I #
face $-1 $-1 $540 $74 $-1 $726 forward single #
loop $-1 $-1 $727 $356 #
plane-surface $-1 0 -48.982950614456563 0 0 1 0 0 0 1 forward_v I I I I #
coedge $-1 $728 $729 $730 $731 reversed $357 $-1 #
coedge $-1 $732 $359 $361 $538 forward $225 $-1 #
coedge $-1 $359 $732 $728 $733 forward $225 $-1 #
coedge $-1 $730 $362 $359 $535 forward $540 $-1 #
edge $-1 $542 -24.896572706170218 $734 -1.56875049985271 $534 $735 forward 7 unknown #
coedge $-1 $736 $737 $360 $537 forward $529 $-1 #
edge $-1 $738 -45.900029610230966 $541 -40.852230373422884 $536 $739 forward 7 unknown #
edge $-1 $542 -6.9019944366047454 $738 1.0692042983031357e-014 $361 $740 forward 7 unknown #
coedge $-1 $362 $730 $736 $741 forward $540 $-1 #
loop $-1 $-1 $730 $528 #
vertex $-1 $537 $742 #
vertex $-1 $363 $743 #
straight-curve $-1 38.129234309181683 -76.880568841552488 10.954977782156504 0 1 0 I I #
coedge $-1 $544 $544 $-1 $744 reversed $366 $-1 #
edge $-1 $745 0 $745 6.2831853071796004 $367 $746 forward 7 unknown #
vertex $-1 $370 $747 #
ellipse-curve $-1 21.46650416181204 -46.629376201579269 8.4310781637524617 0 -0.73135370988377701 0.68199835119979291 1.5 0 0 1 I I #
coedge $-1 $548 $548 $-1 $748 reversed $373 $-1 #
edge $-1 $749 0 $749 6.2831853071796004 $374 $750 forward 7 unknown #
vertex $-1 $377 $751 #
ellipse-curve $-1 31.46414225023382 -46.629376201579269 8.4310781637524617 0 -0.73135370988377701 0.68199835119979291 1.5 0 0 1 I I #
face $-1 $-1 $752 $77 $-1 $753 reversed single #
loop $-1 $-1 $558 $378 #
plane-surface $-1 0 0 10.954977782156501 0 0 1 1 0 0 forward_v I I I I #
coedge $-1 $754 $755 $557 $756 forward $379 $-1 #
coedge $-1 $557 $381 $383 $563 reversed $239 $-1 #
coedge $-1 $381 $556 $555 $756 reversed $239 $-1 #
coedge $-1 $757 $384 $381 $559 forward $553 $-1 #
edge $-1 $566 -32.604767052850512 $758 -27.897618227095926 $558 $759 forward 7 unknown #
coedge $-1 $383 $382 $754 $760 reversed $152 $-1 #
coedge $-1 $761 $762 $382 $562 forward $752 $-1 #
edge $-1 $763 -14.543027305936924 $565 -7.6410328693321663 $561 $764 forward 7 unknown #
edge $-1 $765 -1.0692042983031357e-014 $566 6.9019944366047454 $556 $766 forward 7 unknown #
coedge $-1 $384 $757 $761 $767 forward $553 $-1 #
vertex $-1 $562 $768 #
vertex $-1 $385 $769 #
straight-curve $-1 29.984567169450919 -44.275801788701983 10.954977782156499 -1 0 0 I I #
coedge $-1 $568 $568 $-1 $770 reversed $388 $-1 #
edge $-1 $771 0 $771 6.2831853071796004 $389 $772 forward 7 unknown #
vertex $-1 $392 $773 #
ellipse-curve $-1 54.970315294690963 -46.629376201579269 8.4310781637524617 0 -0.73135370988377701 0.68199835119979291 1.5 0 0 1 I I #
coedge $-1 $572 $572 $-1 $774 reversed $395 $-1 #
edge $-1 $775 0 $775 6.2831853071796004 $396 $776 forward 7 unknown #
vertex $-1 $399 $777 #
ellipse-curve $-1 64.967953383112743 -46.629376201579269 8.4310781637524617 0 -0.73135370988377701 0.68199835119979291 1.5 0 0 1 I I #
face $-1 $-1 $415 $60 $-1 $778 reversed single #
loop $-1 $-1 $592 $400 #
plane-surface $-1 0 48.982950614456563 0 0 -1 0 0 0 -1 forward_v I I I I #
coedge $-1 $779 $590 $593 $780 forward $401 $-1 #
coedge $-1 $596 $403 $404 $584 reversed $253 $-1 #
coedge $-1 $590 $779 $403 $582 reversed $401 $-1 #
edge $-1 $597 -10.954977782156501 $781 10.954977782156501 $581 $782 forward 7 unknown #
coedge $-1 $405 $404 $779 $783 forward $161 $-1 #
edge $-1 $588 -71.633045442060606 $781 71.633045442060606 $580 $784 forward 7 unknown #
coedge $-1 $593 $592 $405 $586 reversed $577 $-1 #
edge $-1 $785 -71.633045442060606 $587 71.633045442060606 $585 $786 forward 7 unknown #
vertex $-1 $407 $787 #
vertex $-1 $599 $788 #
straight-curve $-1 71.633045442060606 0 -10.954977782156501 0 -1 0 I I #
coedge $-1 $579 $581 $408 $591 reversed $401 $-1 #
edge $-1 $594 -48.982950614456563 $597 48.982950614456563 $590 $789 forward 7 unknown #
coedge $-1 $585 $409 $414 $600 forward $577 $-1 #
coedge $-1 $409 $585 $579 $780 reversed $577 $-1 #
vertex $-1 $410 $790 #
straight-curve $-1 0 48.982950614456563 10.954977782156501 -1 0 0 I I #
coedge $-1 $411 $580 $413 $599 reversed $253 $-1 #
vertex $-1 $591 $791 #
straight-curve $-1 0 -48.982950614456563 10.954977782156501 1 0 0 I I #
edge $-1 $416 -10.954977782156501 $588 10.954977782156501 $413 $792 forward 7 unknown #
edge $-1 $417 -10.954977782156501 $587 10.954977782156501 $414 $793 forward 7 unknown #
point $-1 71.633045442060606 -48.982950614456563 10.954977782156501 #
point $-1 71.633045442060606 48.982950614456563 10.954977782156501 #
face $-1 $-1 $612 $61 $-1 $794 reversed single #
loop $-1 $-1 $609 $419 #
plane-surface $-1 0 0 10.954977782156501 0 0 1 1 0 0 forward_v I I I I #
coedge $-1 $795 $796 $426 $615 forward $420 $-1 #
coedge $-1 $422 $619 $797 $798 reversed $261 $-1 #
edge $-1 $799 -6.504933880587032 $432 -2.3951539225519056 $422 $800 forward 7 unknown #
coedge $-1 $797 $801 $423 $610 forward $604 $-1 #
edge $-1 $613 -48.982950614456563 $799 48.982950614456563 $609 $802 forward 7 unknown #
coedge $-1 $616 $424 $801 $803 reversed $612 $-1 #
loop $-1 $-1 $424 $603 #
vertex $-1 $425 $804 #
straight-curve $-1 -62.382199089455085 -48.982950614456563 4.4500439015694688 0 0 1 I I #
edge $-1 $620 -48.982950614456563 $617 48.982950614456563 $606 $805 forward 7 unknown #
coedge $-1 $427 $611 $795 $806 forward $612 $-1 #
vertex $-1 $615 $807 #
straight-curve $-1 -33.503811132878923 -48.982950614456563 6.8451978241213745 1 0 0 I I #
coedge $-1 $607 $429 $796 $808 reversed $261 $-1 #
vertex $-1 $615 $809 #
straight-curve $-1 -33.503811132878923 48.982950614456563 6.8451978241213745 -1 0 0 I I #
point $-1 -62.382199089455085 48.982950614456563 6.8451978241213745 #
point $-1 -62.382199089455085 -48.982950614456563 6.8451978241213745 #
loop $-1 $-1 $443 $435 #
plane-surface $-1 0 48.982950614456563 0 0 -1 0 0 0 -1 forward_v I I I I #
coedge $-1 $627 $438 $440 $631 reversed $269 $-1 #
coedge $-1 $438 $626 $810 $811 reversed $269 $-1 #
coedge $-1 $446 $441 $438 $629 forward $436 $-1 #
edge $-1 $632 -14.44860440377672 $812 -11.681945507476634 $628 $813 forward 7 unknown #
coedge $-1 $440 $439 $635 $814 reversed $169 $-1 #
edge $-1 $815 -97.965901228913197 $632 -92.594145040153961 $626 $816 forward 7 unknown #
vertex $-1 $442 $817 #
straight-curve $-1 -1.3942616493038642 46.216291718156469 10.954977782156497 1 0 0 I I #
coedge $-1 $810 $443 $446 $639 reversed $624 $-1 #
coedge $-1 $443 $810 $630 $814 forward $624 $-1 #
vertex $-1 $444 $818 #
straight-curve $-1 -10.20246977351821 48.982950614456563 82.055570826623807 0 0 1 I I #
straight-curve $-1 -10.20246977351821 -1.4732172838918842 90.323651872509132 0 0.51503806187062418 -0.85716730853699208 I I #
edge $-1 $812 -4.6254231763027533 $447 10.20246977351821 $634 $819 forward 7 unknown #
point $-1 -10.20246977351821 48.982950614456563 10.954977782156501 #
point $-1 -10.20246977351821 46.216291718156477 10.954977782156504 #
edge $-1 $820 1 $820 0 $450 $-1 forward 7 unknown #
vertex $-1 $451 $821 #
ellipse-curve $-1 -5.9659289307122094 44.83935251507517 6.9941942116270353 0 0.85716730853699208 0.51503806187062418 1 0 0 1 I I #
point $-1 -4.9659289307122094 47.599621166306527 8.6527308849386806 #
edge $-1 $822 1 $822 0 $454 $-1 forward 7 unknown #
vertex $-1 $455 $823 #
ellipse-curve $-1 0.38888233349678103 44.83935251507517 6.9941942116270353 0 0.85716730853699208 0.51503806187062418 1 0 0 1 I I #
point $-1 1.388882333496781 47.599621166306527 8.6527308849386806 #
loop $-1 $-1 $465 $458 #
plane-surface $-1 0 48.982950614456563 0 0 -1 0 0 0 -1 forward_v I I I I #
coedge $-1 $824 $825 $462 $654 forward $459 $-1 #
coedge $-1 $462 $461 $659 $826 reversed $183 $-1 #
edge $-1 $656 53.5035227664535 $827 58.875278955212735 $652 $828 forward 7 unknown #
coedge $-1 $468 $463 $825 $829 forward $291 $-1 #
vertex $-1 $829 $830 #
straight-curve $-1 32.109549483575059 46.216291718156469 10.954977782156497 1 0 0 I I #
coedge $-1 $831 $465 $468 $663 reversed $650 $-1 #
coedge $-1 $465 $831 $653 $826 forward $650 $-1 #
vertex $-1 $466 $832 #
straight-curve $-1 56.805152492239635 48.982950614456563 82.055570826623807 0 0 1 I I #
straight-curve $-1 56.805152492239635 -1.4732172838918842 90.323651872509132 0 0.51503806187062418 -0.85716730853699208 I I #
edge $-1 $833 -71.633045442060606 $469 -56.805152492239635 $658 $834 forward 7 unknown #
point $-1 56.805152492239635 48.982950614456563 10.954977782156501 #
point $-1 56.805152492239635 46.216291718156477 10.954977782156504 #
edge $-1 $835 1 $835 0 $472 $-1 forward 7 unknown #
vertex $-1 $473 $836 #
ellipse-curve $-1 61.04169333504565 44.83935251507517 6.9941942116270353 0 0.85716730853699208 0.51503806187062418 1 0 0 1 I I #
point $-1 62.04169333504565 47.599621166306527 8.6527308849386806 #
edge $-1 $837 1 $837 0 $476 $-1 forward 7 unknown #
vertex $-1 $477 $838 #
ellipse-curve $-1 67.396504599254641 44.83935251507517 6.9941942116270353 0 0.85716730853699208 0.51503806187062418 1 0 0 1 I I #
point $-1 68.396504599254641 47.599621166306527 8.6527308849386806 #
plane-surface $-1 0 0 10.954977782156501 0 0 1 1 0 0 forward_v I I I I #
coedge $-1 $685 $684 $677 $839 forward $481 $-1 #
coedge $-1 $677 $483 $485 $681 reversed $313 $-1 #
coedge $-1 $483 $676 $675 $839 reversed $313 $-1 #
coedge $-1 $491 $486 $483 $679 forward $492 $-1 #
edge $-1 $682 -32.604767052850512 $840 -27.897618227095926 $678 $841 forward 7 unknown #
coedge $-1 $485 $484 $685 $842 reversed $197 $-1 #
edge $-1 $843 -1.0692042983031357e-014 $682 6.9019944366047454 $676 $844 forward 7 unknown #
vertex $-1 $487 $845 #
straight-curve $-1 -20.271149529867458 -44.275801788701983 10.954977782156499 -1 0 0 I I #
coedge $-1 $675 $488 $491 $689 reversed $481 $-1 #
coedge $-1 $488 $675 $680 $842 forward $481 $-1 #
vertex $-1 $489 $846 #
straight-curve $-1 -28.878387956576162 -48.982950614456563 51.807208155579389 0 0 1 I I #
straight-curve $-1 -28.878387956576162 -48.982950614456556 5.9071785453484296 0 -0.68199835119979291 -0.73135370988377701 I I #
edge $-1 $840 -52.206210162893669 $493 -28.878387956576162 $684 $847 forward 7 unknown #
point $-1 -28.878387956576162 -48.982950614456563 10.954977782156501 #
point $-1 -28.878387956576162 -44.275801788701976 10.954977782156501 #
edge $-1 $848 1 $848 0 $496 $-1 forward 7 unknown #
vertex $-1 $497 $849 #
ellipse-curve $-1 -45.541118103945813 -42.805220123632495 4.8649950159622826 0 -0.73135370988377701 0.68199835119979291 1.5 0 0 1 I I #
point $-1 -44.041118103945813 -46.629376201579277 8.431078163752467 #
edge $-1 $850 1 $850 0 $500 $-1 forward 7 unknown #
vertex $-1 $501 $851 #
ellipse-curve $-1 -35.543480015524025 -42.805220123632495 4.8649950159622826 0 -0.73135370988377701 0.68199835119979291 1.5 0 0 1 I I #
point $-1 -34.043480015524025 -46.629376201579277 8.431078163752467 #
plane-surface $-1 0 0 10.954977782156501 0 0 1 1 0 0 forward_v I I I I #
coedge $-1 $711 $710 $703 $852 forward $505 $-1 #
coedge $-1 $703 $507 $509 $707 reversed $335 $-1 #
coedge $-1 $507 $702 $701 $852 reversed $335 $-1 #
coedge $-1 $515 $510 $507 $705 forward $516 $-1 #
edge $-1 $708 -32.604767052850512 $853 -27.897618227095926 $704 $854 forward 7 unknown #
coedge $-1 $509 $508 $711 $855 reversed $211 $-1 #
edge $-1 $856 -1.0692042983031357e-014 $708 6.9019944366047454 $702 $857 forward 7 unknown #
vertex $-1 $511 $858 #
straight-curve $-1 -3.5192439634279964 -44.275801788701983 10.954977782156499 -1 0 0 I I #
coedge $-1 $701 $512 $515 $715 reversed $505 $-1 #
coedge $-1 $512 $701 $706 $855 forward $505 $-1 #
vertex $-1 $513 $859 #
straight-curve $-1 4.6254231763027622 -48.982950614456563 51.807208155579389 0 0 1 I I #
straight-curve $-1 4.6254231763027622 -48.982950614456556 5.9071785453484296 0 -0.68199835119979291 -0.73135370988377701 I I #
edge $-1 $853 -18.702399030014746 $517 4.6254231763027622 $710 $860 forward 7 unknown #
point $-1 4.6254231763027622 -48.982950614456563 10.954977782156501 #
point $-1 4.6254231763027622 -44.275801788701976 10.954977782156501 #
edge $-1 $861 1 $861 0 $520 $-1 forward 7 unknown #
vertex $-1 $521 $862 #
ellipse-curve $-1 -12.03730697106689 -42.805220123632495 4.8649950159622826 0 -0.73135370988377701 0.68199835119979291 1.5 0 0 1 I I #
point $-1 -10.53730697106689 -46.629376201579277 8.431078163752467 #
edge $-1 $863 1 $863 0 $524 $-1 forward 7 unknown #
vertex $-1 $525 $864 #
ellipse-curve $-1 -2.0396688826451026 -42.805220123632495 4.8649950159622826 0 -0.73135370988377701 0.68199835119979291 1.5 0 0 1 I I #
point $-1 -0.5396688826451026 -46.629376201579277 8.431078163752467 #
plane-surface $-1 0 0 10.954977782156501 0 0 1 1 0 0 forward_v I I I I #
coedge $-1 $737 $736 $729 $865 forward $529 $-1 #
coedge $-1 $729 $531 $533 $733 reversed $357 $-1 #
coedge $-1 $531 $728 $727 $865 reversed $357 $-1 #
coedge $-1 $539 $534 $531 $731 forward $540 $-1 #
edge $-1 $734 -32.604767052850512 $866 -27.897618227095926 $730 $867 forward 7 unknown #
coedge $-1 $533 $532 $737 $868 reversed $225 $-1 #
edge $-1 $869 -1.0692042983031357e-014 $734 6.9019944366047454 $728 $870 forward 7 unknown #
vertex $-1 $535 $871 #
straight-curve $-1 13.232661603011465 -44.275801788701983 10.954977782156499 -1 0 0 I I #
coedge $-1 $727 $536 $539 $741 reversed $529 $-1 #
coedge $-1 $536 $727 $732 $868 forward $529 $-1 #
vertex $-1 $537 $872 #
straight-curve $-1 38.129234309181683 -48.982950614456563 51.807208155579389 0 0 1 I I #
straight-curve $-1 38.129234309181683 -48.982950614456556 5.9071785453484296 0 -0.68199835119979291 -0.73135370988377701 I I #
edge $-1 $866 14.801412102864175 $541 38.129234309181683 $736 $873 forward 7 unknown #
point $-1 38.129234309181683 -48.982950614456563 10.954977782156501 #
point $-1 38.129234309181683 -44.275801788701976 10.954977782156501 #
edge $-1 $874 1 $874 0 $544 $-1 forward 7 unknown #
vertex $-1 $545 $875 #
ellipse-curve $-1 21.46650416181204 -42.805220123632495 4.8649950159622826 0 -0.73135370988377701 0.68199835119979291 1.5 0 0 1 I I #
point $-1 22.96650416181204 -46.629376201579277 8.431078163752467 #
edge $-1 $876 1 $876 0 $548 $-1 forward 7 unknown #
vertex $-1 $549 $877 #
ellipse-curve $-1 31.46414225023382 -42.805220123632495 4.8649950159622826 0 -0.73135370988377701 0.68199835119979291 1.5 0 0 1 I I #
point $-1 32.96414225023382 -46.629376201579277 8.431078163752467 #
loop $-1 $-1 $561 $552 #
plane-surface $-1 71.633045442060606 0 0 -1 0 0 0 0 1 forward_v I I I I #
coedge $-1 $878 $555 $560 $760 forward $379 $-1 #
coedge $-1 $555 $878 $757 $879 reversed $379 $-1 #
edge $-1 $758 40.852230373422884 $765 45.900029610230966 $555 $880 forward 7 unknown #
coedge $-1 $564 $558 $755 $879 forward $553 $-1 #
vertex $-1 $879 $881 #
straight-curve $-1 48.305223235743085 -76.880568841552488 10.954977782156504 0 -1 0 I I #
edge $-1 $765 18.320656066292166 $763 41.648478272609673 $754 $882 forward 7 unknown #
coedge $-1 $762 $561 $564 $767 reversed $752 $-1 #
coedge $-1 $561 $761 $878 $883 forward $752 $-1 #
vertex $-1 $760 $884 #
straight-curve $-1 71.633045442060606 -39.064629970354012 16.54327551848646 0 0.68199835119979291 0.73135370988377701 I I #
vertex $-1 $760 $885 #
straight-curve $-1 48.305223235743085 -48.982950614456556 5.9071785453484296 0 0.68199835119979291 0.73135370988377701 I I #
edge $-1 $886 -48.982950614456563 $565 -44.275801788701976 $761 $887 forward 7 unknown #
point $-1 71.633045442060592 -44.275801788701976 10.954977782156501 #
point $-1 48.305223235743085 -44.275801788701976 10.954977782156501 #
edge $-1 $888 1 $888 0 $568 $-1 forward 7 unknown #
vertex $-1 $569 $889 #
ellipse-curve $-1 54.970315294690963 -42.805220123632495 4.8649950159622826 0 -0.73135370988377701 0.68199835119979291 1.5 0 0 1 I I #
point $-1 56.470315294690963 -46.629376201579277 8.431078163752467 #
edge $-1 $890 1 $890 0 $572 $-1 forward 7 unknown #
vertex $-1 $573 $891 #
ellipse-curve $-1 64.967953383112743 -42.805220123632495 4.8649950159622826 0 -0.73135370988377701 0.68199835119979291 1.5 0 0 1 I I #
point $-1 66.467953383112743 -46.629376201579277 8.431078163752467 #
plane-surface $-1 71.633045442060606 0 0 -1 0 0 0 0 1 forward_v I I I I #
coedge $-1 $581 $579 $583 $783 reversed $401 $-1 #
edge $-1 $594 -10.954977782156501 $785 10.954977782156501 $593 $892 forward 7 unknown #
vertex $-1 $783 $893 #
straight-curve $-1 -71.633045442060606 -48.982950614456563 0 0 0 -1 I I #
edge $-1 $781 -48.982950614456563 $785 48.982950614456563 $779 $894 forward 7 unknown #
straight-curve $-1 0 -48.982950614456563 -10.954977782156501 -1 0 0 I I #
vertex $-1 $586 $895 #
straight-curve $-1 0 48.982950614456563 -10.954977782156501 1 0 0 I I #
point $-1 71.633045442060606 48.982950614456563 -10.954977782156501 #
point $-1 71.633045442060606 -48.982950614456563 -10.954977782156501 #
straight-curve $-1 -71.633045442060606 0 10.954977782156501 0 -1 0 I I #
point $-1 -71.633045442060606 48.982950614456563 10.954977782156501 #
point $-1 -71.633045442060606 -48.982950614456563 10.954977782156501 #
straight-curve $-1 71.633045442060606 -48.982950614456563 0 0 0 -1 I I #
straight-curve $-1 71.633045442060606 48.982950614456563 0 0 0 -1 I I #
plane-surface $-1 0 -48.982950614456563 0 0 1 0 0 0 1 forward_v I I I I #
coedge $-1 $896 $606 $616 $806 reversed $420 $-1 #
coedge $-1 $606 $896 $619 $808 forward $420 $-1 #
coedge $-1 $897 $609 $607 $798 forward $604 $-1 #
edge $-1 $799 62.382199089455085 $898 71.633045442060606 $607 $899 forward 7 unknown #
vertex $-1 $798 $900 #
straight-curve $-1 -62.382199089455085 48.982950614456563 4.4500439015694688 0 0 -1 I I #
coedge $-1 $609 $897 $611 $803 forward $604 $-1 #
straight-curve $-1 -62.382199089455085 0 10.954977782156501 0 1 0 I I #
edge $-1 $901 -71.633045442060606 $613 -62.382199089455085 $611 $902 forward 7 unknown #
point $-1 -62.382199089455085 -48.982950614456563 10.954977782156501 #
straight-curve $-1 -71.633045442060606 0 6.8451978241213745 0 -1 0 I I #
edge $-1 $901 -10.954977782156501 $617 -6.8451978241213745 $795 $903 forward 7 unknown #
point $-1 -71.633045442060606 -48.982950614456563 6.8451978241213745 #
edge $-1 $898 -10.954977782156501 $620 -6.8451978241213745 $619 $904 forward 7 unknown #
point $-1 -71.633045442060606 48.982950614456563 6.8451978241213745 #
coedge $-1 $635 $634 $627 $811 forward $624 $-1 #
edge $-1 $812 71.100593044467303 $815 75.705086838902986 $810 $905 forward 7 unknown #
vertex $-1 $639 $906 #
straight-curve $-1 4.6254231763027533 60.664896121933197 10.954977782156504 0 1 0 I I #
edge $-1 $815 -6.0196848256066176 $636 8.808208124214346 $635 $907 forward 7 unknown #
vertex $-1 $814 $908 #
straight-curve $-1 4.6254231763027533 -1.4732172838918842 90.323651872509132 0 -0.51503806187062418 0.85716730853699208 I I #
point $-1 4.6254231763027533 46.216291718156477 10.954977782156504 #
point $-1 -10.20246977351821 48.982950614456563 6.3504839877208212 #
straight-curve $-1 0 48.982950614456563 10.954977782156501 -1 0 0 I I #
vertex $-1 $642 $909 #
point $-1 -4.9659289307122094 44.83935251507517 6.9941942116270353 #
vertex $-1 $646 $910 #
point $-1 1.388882333496781 44.83935251507517 6.9941942116270353 #
coedge $-1 $825 $652 $831 $911 reversed $459 $-1 #
coedge $-1 $652 $824 $655 $829 reversed $459 $-1 #
edge $-1 $827 -39.523495958485533 $660 -24.695603008664577 $659 $912 forward 7 unknown #
vertex $-1 $654 $913 #
straight-curve $-1 71.633045442060606 18.659941049271442 56.816448389125128 0 0.51503806187062429 -0.85716730853699219 I I #
edge $-1 $656 46.216291718156477 $833 48.982950614456563 $825 $914 forward 7 unknown #
point $-1 71.633045442060592 46.216291718156477 10.954977782156504 #
coedge $-1 $659 $658 $824 $911 forward $650 $-1 #
point $-1 56.805152492239635 48.982950614456563 6.3504839877208212 #
vertex $-1 $829 $915 #
straight-curve $-1 0 48.982950614456563 10.954977782156501 -1 0 0 I I #
vertex $-1 $666 $916 #
point $-1 62.04169333504565 44.83935251507517 6.9941942116270353 #
vertex $-1 $670 $917 #
point $-1 68.396504599254641 44.83935251507517 6.9941942116270353 #
edge $-1 $840 40.852230373422884 $843 45.900029610230966 $675 $918 forward 7 unknown #
vertex $-1 $689 $919 #
straight-curve $-1 -52.206210162893669 -76.880568841552488 10.954977782156504 0 -1 0 I I #
edge $-1 $843 -31.935060633026211 $686 -8.6072384267087045 $685 $920 forward 7 unknown #
vertex $-1 $842 $921 #
straight-curve $-1 -52.206210162893669 -48.982950614456556 5.9071785453484296 0 0.68199835119979291 0.73135370988377701 I I #
point $-1 -52.206210162893669 -44.275801788701976 10.954977782156501 #
point $-1 -28.878387956576162 -48.982950614456563 5.9071785453484216 #
straight-curve $-1 0 -48.982950614456563 10.954977782156501 1 0 0 I I #
vertex $-1 $692 $922 #
point $-1 -44.041118103945813 -42.805220123632495 4.8649950159622826 #
vertex $-1 $696 $923 #
point $-1 -34.043480015524025 -42.805220123632495 4.8649950159622826 #
edge $-1 $853 40.852230373422884 $856 45.900029610230966 $701 $924 forward 7 unknown #
vertex $-1 $715 $925 #
straight-curve $-1 -18.702399030014746 -76.880568841552488 10.954977782156504 0 -1 0 I I #
edge $-1 $856 -15.18315506658675 $712 8.1446671397307586 $711 $926 forward 7 unknown #
vertex $-1 $855 $927 #
straight-curve $-1 -18.702399030014746 -48.982950614456556 5.9071785453484296 0 0.68199835119979291 0.73135370988377701 I I #
point $-1 -18.702399030014746 -44.275801788701976 10.954977782156501 #
point $-1 4.6254231763027622 -48.982950614456563 5.9071785453484216 #
straight-curve $-1 0 -48.982950614456563 10.954977782156501 1 0 0 I I #
vertex $-1 $718 $928 #
point $-1 -10.53730697106689 -42.805220123632495 4.8649950159622826 #
vertex $-1 $722 $929 #
point $-1 -0.5396688826451026 -42.805220123632495 4.8649950159622826 #
edge $-1 $866 40.852230373422884 $869 45.900029610230966 $727 $930 forward 7 unknown #
vertex $-1 $741 $931 #
straight-curve $-1 14.801412102864175 -76.880568841552488 10.954977782156504 0 -1 0 I I #
edge $-1 $869 1.56875049985271 $738 24.896572706170218 $737 $932 forward 7 unknown #
vertex $-1 $868 $933 #
straight-curve $-1 14.801412102864175 -48.982950614456556 5.9071785453484296 0 0.68199835119979291 0.73135370988377701 I I #
point $-1 14.801412102864175 -44.275801788701976 10.954977782156501 #
point $-1 38.129234309181683 -48.982950614456563 5.9071785453484216 #
straight-curve $-1 0 -48.982950614456563 10.954977782156501 1 0 0 I I #
vertex $-1 $744 $934 #
point $-1 22.96650416181204 -42.805220123632495 4.8649950159622826 #
vertex $-1 $748 $935 #
point $-1 32.96414225023382 -42.805220123632495 4.8649950159622826 #
coedge $-1 $755 $754 $762 $883 reversed $379 $-1 #
edge $-1 $758 48.305223235743085 $886 71.633045442060606 $755 $936 forward 7 unknown #
straight-curve $-1 48.305223235743085 -48.982950614456563 51.807208155579389 0 0 -1 I I #
point $-1 48.305223235743085 -48.982950614456563 10.954977782156501 #
straight-curve $-1 29.984567169450919 -48.982950614456563 5.9071785453484216 1 0 0 I I #
edge $-1 $886 -10.954977782156501 $763 -5.9071785453484216 $762 $937 forward 7 unknown #
point $-1 71.633045442060592 -48.982950614456563 5.9071785453484216 #
point $-1 48.305223235743085 -48.982950614456563 5.9071785453484216 #
vertex $-1 $767 $938 #
straight-curve $-1 71.633045442060606 0 10.954977782156501 0 1 0 I I #
vertex $-1 $770 $939 #
point $-1 56.470315294690963 -42.805220123632495 4.8649950159622826 #
vertex $-1 $774 $940 #
point $-1 66.467953383112743 -42.805220123632495 4.8649950159622826 #
straight-curve $-1 -71.633045442060606 48.982950614456563 0 0 0 -1 I I #
point $-1 -71.633045442060606 -48.982950614456563 -10.954977782156501 #
straight-curve $-1 -71.633045442060606 0 -10.954977782156501 0 1 0 I I #
point $-1 -71.633045442060606 48.982950614456563 -10.954977782156501 #
coedge $-1 $796 $795 $897 $941 reversed $420 $-1 #
coedge $-1 $801 $797 $896 $941 forward $604 $-1 #
vertex $-1 $798 $942 #
straight-curve $-1 0 48.982950614456563 10.954977782156501 -1 0 0 I I #
point $-1 -62.382199089455085 48.982950614456563 10.954977782156501 #
vertex $-1 $941 $943 #
straight-curve $-1 0 -48.982950614456563 10.954977782156501 1 0 0 I I #
straight-curve $-1 -71.633045442060606 -48.982950614456563 0 0 0 -1 I I #
straight-curve $-1 -71.633045442060606 48.982950614456563 0 0 0 -1 I I #
straight-curve $-1 4.6254231763027533 48.982950614456563 82.055570826623807 0 0 -1 I I #
point $-1 4.6254231763027533 48.982950614456563 10.954977782156501 #
straight-curve $-1 -1.3942616493038642 48.982950614456563 6.350483987720807 -1 0 0 I I #
point $-1 4.6254231763027533 48.982950614456563 6.3504839877208212 #
point $-1 -5.9659289307122094 43.982185206538183 6.4791561497564105 #
point $-1 0.38888233349678103 43.982185206538183 6.4791561497564105 #
edge $-1 $833 -10.954977782156501 $827 -6.3504839877208212 $824 $944 forward 7 unknown #
straight-curve $-1 32.109549483575059 48.982950614456563 6.350483987720807 -1 0 0 I I #
point $-1 71.633045442060592 48.982950614456563 6.3504839877208212 #
straight-curve $-1 71.633045442060606 0 10.954977782156501 0 1 0 I I #
point $-1 71.633045442060606 48.982950614456563 10.954977782156501 #
point $-1 61.04169333504565 43.982185206538183 6.4791561497564105 #
point $-1 67.396504599254641 43.982185206538183 6.4791561497564105 #
straight-curve $-1 -52.206210162893669 -48.982950614456563 51.807208155579389 0 0 -1 I I #
point $-1 -52.206210162893669 -48.982950614456563 10.954977782156501 #
straight-curve $-1 -20.271149529867458 -48.982950614456563 5.9071785453484216 1 0 0 I I #
point $-1 -52.206210162893669 -48.982950614456563 5.9071785453484216 #
point $-1 -45.541118103945813 -41.708189558806836 3.8419974891625936 #
point $-1 -35.543480015524025 -41.708189558806836 3.8419974891625936 #
straight-curve $-1 -18.702399030014746 -48.982950614456563 51.807208155579389 0 0 -1 I I #
point $-1 -18.702399030014746 -48.982950614456563 10.954977782156501 #
straight-curve $-1 -3.5192439634279964 -48.982950614456563 5.9071785453484216 1 0 0 I I #
point $-1 -18.702399030014746 -48.982950614456563 5.9071785453484216 #
point $-1 -12.03730697106689 -41.708189558806836 3.8419974891625936 #
point $-1 -2.0396688826451026 -41.708189558806836 3.8419974891625936 #
straight-curve $-1 14.801412102864175 -48.982950614456563 51.807208155579389 0 0 -1 I I #
point $-1 14.801412102864175 -48.982950614456563 10.954977782156501 #
straight-curve $-1 13.232661603011465 -48.982950614456563 5.9071785453484216 1 0 0 I I #
point $-1 14.801412102864175 -48.982950614456563 5.9071785453484216 #
point $-1 21.46650416181204 -41.708189558806836 3.8419974891625936 #
point $-1 31.46414225023382 -41.708189558806836 3.8419974891625936 #
straight-curve $-1 0 -48.982950614456563 10.954977782156501 1 0 0 I I #
straight-curve $-1 71.633045442060606 -48.982950614456563 0 0 0 -1 I I #
point $-1 71.633045442060606 -48.982950614456563 10.954977782156501 #
point $-1 54.970315294690963 -41.708189558806836 3.8419974891625936 #
point $-1 64.967953383112743 -41.708189558806836 3.8419974891625936 #
edge $-1 $898 -48.982950614456563 $901 48.982950614456563 $896 $945 forward 7 unknown #
point $-1 -71.633045442060606 48.982950614456563 10.954977782156501 #
point $-1 -71.633045442060606 -48.982950614456563 10.954977782156501 #
straight-curve $-1 71.633045442060606 48.982950614456563 0 0 0 -1 I I #
straight-curve $-1 -71.633045442060606 0 10.954977782156501 0 -1 0 I I #
End-of-ACIS-data 