500 0 11 0           
7 Unknown 11 ACIS 5.0 NT 24 Fri Mar 26 16:41:05 1999 
-1 9.9999999999999995e-007 1e-010 
body $-1 $11 $-1 $12 #
body $-1 $13 $-1 $14 #
body $-1 $15 $-1 $16 #
body $-1 $17 $-1 $18 #
body $-1 $19 $-1 $20 #
body $-1 $21 $-1 $22 #
body $-1 $23 $-1 $24 #
body $-1 $25 $-1 $26 #
body $-1 $27 $-1 $28 #
body $-1 $29 $-1 $30 #
body $-1 $31 $-1 $32 #
lump $-1 $-1 $33 $0 #
transform $-1 1 0 0 0 1 0 0 0 1 55.67674794763024 30.156043708626591 7.9691213134363386 1 rotate no_reflect no_shear #
lump $-1 $-1 $34 $1 #
transform $-1 1 0 0 0 1 0 0 0 1 55.67674794763024 30.156043708626591 7.9691213134363386 1 rotate no_reflect no_shear #
lump $-1 $-1 $35 $2 #
transform $-1 1 0 0 0 1 0 0 0 1 55.67674794763024 30.156043708626591 7.9691213134363386 1 rotate no_reflect no_shear #
lump $-1 $-1 $36 $3 #
transform $-1 1 0 0 0 1 0 0 0 1 55.67674794763024 30.156043708626591 7.9691213134363386 1 rotate no_reflect no_shear #
lump $-1 $-1 $37 $4 #
transform $-1 1 0 0 0 1 0 0 0 1 55.67674794763024 30.156043708626591 7.9691213134363386 1 rotate no_reflect no_shear #
lump $-1 $-1 $38 $5 #
transform $-1 1 0 0 0 1 0 0 0 1 55.67674794763024 30.156043708626591 7.9691213134363386 1 rotate no_reflect no_shear #
lump $-1 $-1 $39 $6 #
transform $-1 1 0 0 0 1 0 0 0 1 55.67674794763024 30.156043708626591 7.9691213134363386 1 rotate no_reflect no_shear #
lump $-1 $-1 $40 $7 #
transform $-1 1 0 0 0 1 0 0 0 1 55.67674794763024 30.156043708626591 7.9691213134363386 1 rotate no_reflect no_shear #
lump $-1 $-1 $41 $8 #
transform $-1 1 0 0 0 1 0 0 0 1 55.67674794763024 30.156043708626591 7.9691213134363386 1 rotate no_reflect no_shear #
lump $-1 $-1 $42 $9 #
transform $-1 1 0 0 0 1 0 0 0 1 55.67674794763024 30.156043708626591 7.9691213134363386 1 rotate no_reflect no_shear #
lump $-1 $-1 $43 $10 #
transform $-1 1 0 0 0 1 0 0 0 1 55.67674794763024 30.156043708626591 7.9691213134363386 1 rotate no_reflect no_shear #
shell $-1 $-1 $-1 $44 $-1 $11 #
shell $-1 $-1 $-1 $45 $-1 $13 #
shell $-1 $-1 $-1 $46 $-1 $15 #
shell $-1 $-1 $-1 $47 $-1 $17 #
shell $-1 $-1 $-1 $48 $-1 $19 #
shell $-1 $-1 $-1 $49 $-1 $21 #
shell $-1 $-1 $-1 $50 $-1 $23 #
shell $-1 $-1 $-1 $51 $-1 $25 #
shell $-1 $-1 $-1 $52 $-1 $27 #
shell $-1 $-1 $-1 $53 $-1 $29 #
shell $-1 $-1 $-1 $54 $-1 $31 #
face $-1 $55 $56 $33 $-1 $57 forward single #
face $-1 $58 $59 $34 $-1 $60 reversed single #
face $-1 $61 $62 $35 $-1 $63 reversed single #
face $-1 $64 $65 $36 $-1 $66 reversed single #
face $-1 $67 $68 $37 $-1 $69 forward single #
face $-1 $70 $71 $38 $-1 $72 forward single #
face $-1 $73 $74 $39 $-1 $75 forward single #
face $-1 $76 $77 $40 $-1 $78 reversed single #
face $-1 $79 $80 $41 $-1 $81 forward single #
face $-1 $82 $83 $42 $-1 $84 forward single #
face $-1 $85 $86 $43 $-1 $87 forward single #
face $-1 $88 $89 $33 $-1 $90 reversed single #
loop $-1 $-1 $91 $44 #
plane-surface $-1 0 0 7.9691213134363386 0 0 1 1 0 0 forward_v I I I I #
face $-1 $92 $93 $34 $-1 $94 reversed single #
loop $-1 $-1 $95 $45 #
plane-surface $-1 -50.521061838503186 -25.860204070949919 0 0 -1 0 0 0 -1 forward_v I I I I #
face $-1 $96 $97 $35 $-1 $98 reversed single #
loop $-1 $-1 $99 $46 #
plane-surface $-1 45.36537572937614 -28.008123889788255 0 1 0 0 0 0 -1 forward_v I I I I #
face $-1 $100 $101 $36 $-1 $102 reversed single #
loop $-1 $-1 $103 $47 #
plane-surface $-1 37.069485015823453 -87.507334631934128 96.077013370777138 -1 0 0 0 -0.51503808176128008 0.85716729658548041 forward_v I I I I #
face $-1 $104 $105 $37 $-1 $106 forward single #
loop $-1 $107 $108 $48 #
cone-surface $-1 22.660886783127047 -23.465037771131541 3.3292837678569858 0 0.51503808176128008 -0.85716729658548041 1 0 0 1 I I 0 1 1 forward I I I I #
face $-1 $109 $110 $38 $-1 $111 forward single #
loop $-1 $112 $113 $49 #
cone-surface $-1 28.064111120388198 -23.465037771131541 3.3292837678569858 0 0.51503808176128008 -0.85716729658548041 1 0 0 1 I I 0 1 1 forward I I I I #
face $-1 $114 $115 $39 $-1 $116 forward single #
loop $-1 $117 $118 $50 #
cone-surface $-1 33.467335457649348 -23.465037771131541 3.3292837678569858 0 0.51503808176128008 -0.85716729658548041 1 0 0 1 I I 0 1 1 forward I I I I #
face $-1 $119 $120 $40 $-1 $121 reversed single #
loop $-1 $-1 $122 $51 #
plane-surface $-1 22.670642856941079 33.600992776833536 129.85906121794312 1 0 0 0 -0.50000000669873634 -0.8660253999169214 forward_v I I I I #
face $-1 $123 $124 $41 $-1 $125 forward single #
loop $-1 $126 $127 $52 #
cone-surface $-1 27.209589431428093 25.532612088511343 4.6621627561713694 0 -0.50000000669873634 -0.8660253999169214 1.5 0 0 1 I I 0 1 1.5 forward I I I I #
face $-1 $128 $129 $42 $-1 $130 forward single #
loop $-1 $131 $132 $53 #
cone-surface $-1 34.018009293158606 25.532612088511343 4.6621627561713694 0 -0.50000000669873634 -0.8660253999169214 1.5 0 0 1 I I 0 1 1.5 forward I I I I #
face $-1 $133 $134 $43 $-1 $135 forward single #
loop $-1 $136 $137 $54 #
cone-surface $-1 40.826429154889119 25.532612088511343 4.6621627561713694 0 -0.50000000669873634 -0.8660253999169214 1.5 0 0 1 I I 0 1 1.5 forward I I I I #
face $-1 $138 $139 $33 $-1 $140 reversed single #
loop $-1 $-1 $141 $55 #
plane-surface $-1 0 0 -7.9691213134363386 0 0 1 1 0 0 forward_v I I I I #
coedge $-1 $142 $143 $144 $145 forward $56 $-1 #
face $-1 $146 $147 $34 $-1 $148 forward single #
loop $-1 $-1 $149 $58 #
plane-surface $-1 -45.365375729376133 -28.008123889788255 0 -1 0 0 0 0 1 forward_v I I I I #
coedge $-1 $150 $151 $152 $153 forward $59 $-1 #
face $-1 $154 $155 $35 $-1 $156 forward single #
loop $-1 $-1 $157 $61 #
plane-surface $-1 50.521061838503194 -25.860204070949919 0 0 -1 0 0 0 -1 forward_v I I I I #
coedge $-1 $158 $159 $160 $161 forward $62 $-1 #
face $-1 $162 $163 $36 $-1 $164 reversed single #
loop $-1 $-1 $165 $64 #
plane-surface $-1 28.064111120388198 -30.156043708626598 0.62843832889431894 0 -0.51503808176128008 0.85716729658548041 1 0 0 forward_v I I I I #
coedge $-1 $166 $167 $168 $169 reversed $65 $-1 #
face $-1 $-1 $170 $37 $-1 $171 forward single #
loop $-1 $172 $173 $67 #
cone-surface $-1 22.660886783127047 -22.62498672096855 1.9312040662559022 0 0.51503808176128008 -0.85716729658548041 0.5 0 0 1 I I -0.70710678118654746 0.70710678118654746 0.5 forward I I I I #
loop $-1 $-1 $174 $48 #
coedge $-1 $108 $108 $175 $176 reversed $68 $-1 #
face $-1 $-1 $177 $38 $-1 $178 forward single #
loop $-1 $179 $180 $70 #
cone-surface $-1 28.064111120388198 -22.62498672096855 1.9312040662559022 0 0.51503808176128008 -0.85716729658548041 0.5 0 0 1 I I -0.70710678118654746 0.70710678118654746 0.5 forward I I I I #
loop $-1 $-1 $181 $49 #
coedge $-1 $113 $113 $182 $183 reversed $71 $-1 #
face $-1 $-1 $184 $39 $-1 $185 forward single #
loop $-1 $186 $187 $73 #
cone-surface $-1 33.467335457649348 -22.62498672096855 1.9312040662559022 0 0.51503808176128008 -0.85716729658548041 0.5 0 0 1 I I -0.70710678118654746 0.70710678118654746 0.5 forward I I I I #
loop $-1 $-1 $188 $50 #
coedge $-1 $118 $118 $189 $190 reversed $74 $-1 #
face $-1 $191 $192 $40 $-1 $193 reversed single #
loop $-1 $-1 $194 $76 #
plane-surface $-1 34.018009293158606 -22.075755916724411 33.424105403102899 0 0.50000000669873634 0.8660253999169214 1 0 0 forward_v I I I I #
coedge $-1 $195 $196 $197 $198 reversed $77 $-1 #
face $-1 $-1 $199 $41 $-1 $200 forward single #
loop $-1 $201 $202 $79 #
cone-surface $-1 27.209589431428093 24.605417795257956 3.0562151604561096 0 -0.50000000669873634 -0.8660253999169214 0.75 0 0 1 I I -0.70710678118654757 0.70710678118654757 0.75 forward I I I I #
loop $-1 $-1 $203 $52 #
coedge $-1 $127 $127 $204 $205 reversed $80 $-1 #
face $-1 $-1 $206 $42 $-1 $207 forward single #
loop $-1 $208 $209 $82 #
cone-surface $-1 34.018009293158606 24.605417795257956 3.0562151604561096 0 -0.50000000669873634 -0.8660253999169214 0.75 0 0 1 I I -0.70710678118654757 0.70710678118654757 0.75 forward I I I I #
loop $-1 $-1 $210 $53 #
coedge $-1 $132 $132 $211 $212 reversed $83 $-1 #
face $-1 $-1 $213 $43 $-1 $214 forward single #
loop $-1 $215 $216 $85 #
cone-surface $-1 40.826429154889119 24.605417795257956 3.0562151604561096 0 -0.50000000669873634 -0.8660253999169214 0.75 0 0 1 I I -0.70710678118654757 0.70710678118654757 0.75 forward I I I I #
loop $-1 $-1 $217 $54 #
coedge $-1 $137 $137 $218 $219 reversed $86 $-1 #
face $-1 $220 $221 $33 $-1 $222 reversed single #
loop $-1 $-1 $223 $88 #
plane-surface $-1 0 -30.156043708626591 0 0 1 0 0 0 1 forward_v I I I I #
coedge $-1 $224 $225 $226 $227 forward $89 $-1 #
coedge $-1 $228 $91 $229 $230 forward $56 $-1 #
coedge $-1 $91 $228 $231 $232 forward $56 $-1 #
coedge $-1 $233 $234 $91 $145 reversed $235 $-1 #
edge $-1 $236 -30.156043708626591 $237 30.156043708626591 $144 $238 forward 7 unknown #
face $-1 $239 $240 $34 $-1 $241 reversed single #
loop $-1 $-1 $242 $92 #
plane-surface $-1 0 0 7.9691213134363386 0 0 1 1 0 0 forward_v I I I I #
coedge $-1 $243 $244 $245 $246 reversed $93 $-1 #
coedge $-1 $247 $95 $248 $249 reversed $59 $-1 #
coedge $-1 $95 $247 $250 $251 reversed $59 $-1 #
coedge $-1 $244 $243 $95 $153 reversed $93 $-1 #
edge $-1 $252 -7.9691213134363386 $253 7.9691213134363386 $152 $254 forward 7 unknown #
face $-1 $255 $256 $35 $-1 $257 reversed single #
loop $-1 $-1 $258 $96 #
plane-surface $-1 0 0 7.9691213134363386 0 0 1 1 0 0 forward_v I I I I #
coedge $-1 $259 $260 $261 $262 reversed $97 $-1 #
coedge $-1 $263 $99 $264 $265 reversed $62 $-1 #
coedge $-1 $99 $263 $266 $267 reversed $62 $-1 #
coedge $-1 $260 $259 $99 $161 reversed $97 $-1 #
edge $-1 $268 -7.9691213134363386 $269 7.9691213134363386 $160 $270 forward 7 unknown #
face $-1 $271 $272 $36 $-1 $273 forward single #
loop $-1 $-1 $274 $100 #
plane-surface $-1 19.058737224952942 -87.507334631934128 96.077013370777138 1 0 0 0 0.51503808176128008 -0.85716729658548041 forward_v I I I I #
coedge $-1 $275 $276 $277 $278 reversed $101 $-1 #
coedge $-1 $167 $103 $279 $280 reversed $65 $-1 #
coedge $-1 $103 $166 $275 $281 reversed $65 $-1 #
coedge $-1 $277 $282 $103 $169 forward $272 $-1 #
edge $-1 $283 13.597623607340473 $284 25.814571463765866 $168 $285 forward 7 unknown #
loop $-1 $-1 $175 $104 #
plane-surface $-1 28.064111120388198 -30.156043708626598 0.62843832889431894 0 -0.51503808176128008 0.85716729658548041 1 0 0 forward_v I I I I #
loop $-1 $-1 $286 $67 #
coedge $-1 $173 $173 $174 $287 reversed $105 $-1 #
coedge $-1 $174 $174 $173 $287 forward $107 $-1 #
coedge $-1 $175 $175 $108 $176 forward $170 $-1 #
edge $-1 $288 1.6729328509673293e-015 $288 6.2831853071796022 $175 $289 forward 7 unknown #
loop $-1 $-1 $182 $109 #
plane-surface $-1 28.064111120388198 -30.156043708626598 0.62843832889431894 0 -0.51503808176128008 0.85716729658548041 1 0 0 forward_v I I I I #
loop $-1 $-1 $290 $70 #
coedge $-1 $180 $180 $181 $291 reversed $110 $-1 #
coedge $-1 $181 $181 $180 $291 forward $112 $-1 #
coedge $-1 $182 $182 $113 $183 forward $177 $-1 #
edge $-1 $292 1.6729328509673293e-015 $292 6.2831853071796022 $182 $293 forward 7 unknown #
loop $-1 $-1 $189 $114 #
plane-surface $-1 28.064111120388198 -30.156043708626598 0.62843832889431894 0 -0.51503808176128008 0.85716729658548041 1 0 0 forward_v I I I I #
loop $-1 $-1 $294 $73 #
coedge $-1 $187 $187 $188 $295 reversed $115 $-1 #
coedge $-1 $188 $188 $187 $295 forward $117 $-1 #
coedge $-1 $189 $189 $118 $190 forward $184 $-1 #
edge $-1 $296 1.6729328509673293e-015 $296 6.2831853071796022 $189 $297 forward 7 unknown #
face $-1 $298 $299 $40 $-1 $300 reversed single #
loop $-1 $-1 $301 $119 #
plane-surface $-1 45.365375729376133 33.600992776833536 129.85906121794312 -1 0 0 0 0.50000000669873634 0.8660253999169214 forward_v I I I I #
coedge $-1 $302 $303 $304 $305 reversed $120 $-1 #
coedge $-1 $196 $122 $306 $307 reversed $77 $-1 #
coedge $-1 $122 $195 $302 $308 reversed $77 $-1 #
coedge $-1 $304 $309 $122 $198 forward $310 $-1 #
edge $-1 $311 -13.355547320209823 $312 -5.2130726564380012 $197 $313 forward 7 unknown #
loop $-1 $-1 $204 $123 #
plane-surface $-1 34.018009293158606 -22.075755916724411 33.424105403102899 0 0.50000000669873634 0.8660253999169214 1 0 0 forward_v I I I I #
loop $-1 $-1 $314 $79 #
coedge $-1 $202 $202 $203 $315 reversed $124 $-1 #
coedge $-1 $203 $203 $202 $315 forward $126 $-1 #
coedge $-1 $204 $204 $127 $205 forward $199 $-1 #
edge $-1 $316 -8.6692228084971884e-016 $316 6.2831853071795996 $204 $317 forward 7 unknown #
loop $-1 $-1 $211 $128 #
plane-surface $-1 34.018009293158606 -22.075755916724411 33.424105403102899 0 0.50000000669873634 0.8660253999169214 1 0 0 forward_v I I I I #
loop $-1 $-1 $318 $82 #
coedge $-1 $209 $209 $210 $319 reversed $129 $-1 #
coedge $-1 $210 $210 $209 $319 forward $131 $-1 #
coedge $-1 $211 $211 $132 $212 forward $206 $-1 #
edge $-1 $320 -8.6692228084971884e-016 $320 6.2831853071795996 $211 $321 forward 7 unknown #
loop $-1 $-1 $218 $133 #
plane-surface $-1 34.018009293158606 -22.075755916724411 33.424105403102899 0 0.50000000669873634 0.8660253999169214 1 0 0 forward_v I I I I #
loop $-1 $-1 $322 $85 #
coedge $-1 $216 $216 $217 $323 reversed $134 $-1 #
coedge $-1 $217 $217 $216 $323 forward $136 $-1 #
coedge $-1 $218 $218 $137 $219 forward $213 $-1 #
edge $-1 $324 -8.6692228084971884e-016 $324 6.2831853071795996 $218 $325 forward 7 unknown #
face $-1 $326 $327 $33 $-1 $328 reversed single #
loop $-1 $-1 $329 $138 #
plane-surface $-1 -55.67674794763024 0 0 1 0 0 0 0 -1 forward_v I I I I #
coedge $-1 $330 $231 $331 $332 forward $139 $-1 #
coedge $-1 $333 $141 $330 $334 forward $89 $-1 #
coedge $-1 $141 $333 $335 $336 forward $89 $-1 #
coedge $-1 $234 $233 $141 $227 reversed $235 $-1 #
edge $-1 $337 -30.156043708626591 $338 30.156043708626591 $226 $339 forward 7 unknown #
coedge $-1 $143 $142 $340 $341 forward $56 $-1 #
coedge $-1 $342 $343 $142 $230 reversed $327 $-1 #
edge $-1 $237 -55.67674794763024 $344 55.67674794763024 $229 $345 forward 7 unknown #
coedge $-1 $223 $346 $143 $232 reversed $139 $-1 #
edge $-1 $347 -55.67674794763024 $236 55.67674794763024 $231 $348 forward 7 unknown #
coedge $-1 $226 $144 $346 $349 forward $235 $-1 #
coedge $-1 $144 $226 $342 $350 reversed $235 $-1 #
loop $-1 $-1 $233 $326 #
vertex $-1 $145 $351 #
vertex $-1 $145 $352 #
straight-curve $-1 55.67674794763024 0 7.9691213134363386 0 1 0 I I #
face $-1 $353 $354 $34 $-1 $355 reversed single #
loop $-1 $-1 $356 $146 #
plane-surface $-1 -55.67674794763024 0 0 1 0 0 0 0 -1 forward_v I I I I #
coedge $-1 $250 $357 $244 $358 forward $147 $-1 #
coedge $-1 $152 $149 $359 $360 reversed $93 $-1 #
coedge $-1 $149 $152 $242 $358 reversed $93 $-1 #
coedge $-1 $361 $362 $149 $246 forward $363 $-1 #
edge $-1 $364 -7.9691213134363386 $365 7.9691213134363386 $245 $366 forward 7 unknown #
coedge $-1 $151 $150 $356 $367 reversed $59 $-1 #
coedge $-1 $359 $368 $150 $249 forward $354 $-1 #
edge $-1 $369 -30.416217028378647 $253 -20.10484481012454 $248 $370 forward 7 unknown #
coedge $-1 $371 $242 $151 $251 forward $147 $-1 #
edge $-1 $252 20.10484481012454 $372 30.416217028378647 $250 $373 forward 7 unknown #
vertex $-1 $251 $374 #
vertex $-1 $249 $375 #
straight-curve $-1 -45.365375729376133 -25.860204070949919 0 0 0 -1 I I #
face $-1 $376 $377 $35 $-1 $378 reversed single #
loop $-1 $-1 $379 $154 #
plane-surface $-1 0 -30.156043708626591 0 0 1 0 0 0 1 forward_v I I I I #
coedge $-1 $266 $380 $260 $381 forward $155 $-1 #
coedge $-1 $160 $157 $382 $383 reversed $97 $-1 #
coedge $-1 $157 $160 $258 $381 reversed $97 $-1 #
coedge $-1 $384 $385 $157 $262 forward $386 $-1 #
edge $-1 $387 -7.9691213134363386 $388 7.9691213134363386 $261 $389 forward 7 unknown #
coedge $-1 $159 $158 $379 $390 reversed $62 $-1 #
coedge $-1 $382 $391 $158 $265 forward $377 $-1 #
edge $-1 $392 -16.151981763732465 $269 -11.856142126055792 $264 $393 forward 7 unknown #
coedge $-1 $394 $258 $159 $267 forward $155 $-1 #
edge $-1 $268 11.856142126055792 $395 16.151981763732465 $266 $396 forward 7 unknown #
vertex $-1 $267 $397 #
vertex $-1 $265 $398 #
straight-curve $-1 45.36537572937614 -25.860204070949919 0 0 0 -1 I I #
face $-1 $-1 $399 $36 $-1 $400 reversed single #
loop $-1 $-1 $168 $162 #
plane-surface $-1 0 0 7.9691213134363386 0 0 1 1 0 0 forward_v I I I I #
coedge $-1 $401 $402 $403 $404 reversed $163 $-1 #
coedge $-1 $405 $165 $167 $281 forward $101 $-1 #
coedge $-1 $165 $405 $401 $406 forward $101 $-1 #
coedge $-1 $403 $168 $165 $278 forward $272 $-1 #
edge $-1 $284 -23.037429455629354 $407 -5.0266816647588435 $277 $408 forward 7 unknown #
coedge $-1 $409 $410 $166 $280 forward $399 $-1 #
edge $-1 $411 -47.410068356494243 $283 -40.069385371952229 $279 $412 forward 7 unknown #
edge $-1 $284 -14.252699449794131 $411 -8.2634070795339233e-015 $167 $413 forward 7 unknown #
coedge $-1 $168 $403 $409 $414 forward $272 $-1 #
vertex $-1 $280 $415 #
vertex $-1 $169 $416 #
straight-curve $-1 37.069485015823453 -43.753667315967064 7.9691213134363394 0 1 0 I I #
coedge $-1 $286 $286 $-1 $417 reversed $172 $-1 #
edge $-1 $418 0 $418 6.2831853071796004 $173 $419 forward 7 unknown #
vertex $-1 $176 $420 #
ellipse-curve $-1 22.660886783127047 -24.047569780413895 4.2987798211653319 0 -0.51503808176128008 0.85716729658548041 1 0 0 1 I I #
coedge $-1 $290 $290 $-1 $421 reversed $179 $-1 #
edge $-1 $422 0 $422 6.2831853071796004 $180 $423 forward 7 unknown #
vertex $-1 $183 $424 #
ellipse-curve $-1 28.064111120388198 -24.047569780413895 4.2987798211653319 0 -0.51503808176128008 0.85716729658548041 1 0 0 1 I I #
coedge $-1 $294 $294 $-1 $425 reversed $186 $-1 #
edge $-1 $426 0 $426 6.2831853071796004 $187 $427 forward 7 unknown #
vertex $-1 $190 $428 #
ellipse-curve $-1 33.467335457649348 -24.047569780413895 4.2987798211653319 0 -0.51503808176128008 0.85716729658548041 1 0 0 1 I I #
face $-1 $-1 $310 $40 $-1 $429 forward single #
loop $-1 $-1 $430 $191 #
plane-surface $-1 0 30.156043708626591 0 0 -1 0 0 0 -1 forward_v I I I I #
coedge $-1 $431 $432 $433 $434 reversed $192 $-1 #
coedge $-1 $435 $194 $196 $308 forward $120 $-1 #
coedge $-1 $194 $435 $431 $436 forward $120 $-1 #
coedge $-1 $433 $197 $194 $305 forward $310 $-1 #
edge $-1 $312 5.6616382103617759 $437 28.35637108279683 $304 $438 forward 7 unknown #
coedge $-1 $439 $440 $195 $307 forward $299 $-1 #
edge $-1 $441 -61.661469318510022 $311 -56.960409295535221 $306 $442 forward 7 unknown #
edge $-1 $312 50.909967497268219 $441 60.312087417253174 $196 $443 forward 7 unknown #
coedge $-1 $197 $433 $439 $444 forward $310 $-1 #
loop $-1 $-1 $433 $298 #
vertex $-1 $307 $445 #
vertex $-1 $198 $446 #
straight-curve $-1 22.670642856941079 16.800496388416768 7.9691213134363394 0 -1 0 I I #
coedge $-1 $314 $314 $-1 $447 reversed $201 $-1 #
edge $-1 $448 0 $448 6.2831853071796004 $202 $449 forward 7 unknown #
vertex $-1 $205 $450 #
ellipse-curve $-1 27.209589431428093 26.084806376740676 5.6185913019489417 0 0.50000000669873634 0.8660253999169214 1.5 0 0 1 I I #
coedge $-1 $318 $318 $-1 $451 reversed $208 $-1 #
edge $-1 $452 0 $452 6.2831853071796004 $209 $453 forward 7 unknown #
vertex $-1 $212 $454 #
ellipse-curve $-1 34.018009293158606 26.084806376740676 5.6185913019489417 0 0.50000000669873634 0.8660253999169214 1.5 0 0 1 I I #
coedge $-1 $322 $322 $-1 $455 reversed $215 $-1 #
edge $-1 $456 0 $456 6.2831853071796004 $216 $457 forward 7 unknown #
vertex $-1 $219 $458 #
ellipse-curve $-1 40.826429154889119 26.084806376740676 5.6185913019489417 0 0.50000000669873634 0.8660253999169214 1.5 0 0 1 I I #
face $-1 $-1 $235 $33 $-1 $459 reversed single #
loop $-1 $-1 $342 $220 #
plane-surface $-1 0 30.156043708626591 0 0 -1 0 0 0 -1 forward_v I I I I #
coedge $-1 $460 $340 $343 $461 forward $221 $-1 #
coedge $-1 $346 $223 $224 $334 reversed $139 $-1 #
coedge $-1 $340 $460 $223 $332 reversed $221 $-1 #
edge $-1 $347 -7.9691213134363386 $462 7.9691213134363386 $331 $463 forward 7 unknown #
coedge $-1 $225 $224 $460 $464 forward $89 $-1 #
edge $-1 $338 -55.67674794763024 $462 55.67674794763024 $330 $465 forward 7 unknown #
coedge $-1 $343 $342 $225 $336 reversed $327 $-1 #
edge $-1 $466 -55.67674794763024 $337 55.67674794763024 $335 $467 forward 7 unknown #
vertex $-1 $227 $468 #
vertex $-1 $349 $469 #
straight-curve $-1 55.67674794763024 0 -7.9691213134363386 0 -1 0 I I #
coedge $-1 $329 $331 $228 $341 reversed $221 $-1 #
edge $-1 $344 -30.156043708626591 $347 30.156043708626591 $340 $470 forward 7 unknown #
coedge $-1 $335 $229 $234 $350 forward $327 $-1 #
coedge $-1 $229 $335 $329 $461 reversed $327 $-1 #
vertex $-1 $230 $471 #
straight-curve $-1 0 30.156043708626591 7.9691213134363386 -1 0 0 I I #
coedge $-1 $231 $330 $233 $349 reversed $139 $-1 #
vertex $-1 $341 $472 #
straight-curve $-1 0 -30.156043708626591 7.9691213134363386 1 0 0 I I #
edge $-1 $236 -7.9691213134363386 $338 7.9691213134363386 $233 $473 forward 7 unknown #
edge $-1 $237 -7.9691213134363386 $337 7.9691213134363386 $234 $474 forward 7 unknown #
point $-1 55.67674794763024 -30.156043708626591 7.9691213134363386 #
point $-1 55.67674794763024 30.156043708626591 7.9691213134363386 #
face $-1 $-1 $363 $34 $-1 $475 reversed single #
loop $-1 $-1 $359 $239 #
plane-surface $-1 0 0 -7.9691213134363386 0 0 1 1 0 0 forward_v I I I I #
coedge $-1 $476 $477 $247 $367 forward $240 $-1 #
coedge $-1 $242 $371 $361 $478 forward $147 $-1 #
edge $-1 $365 -16.151981763732465 $252 -11.856142126055792 $242 $479 forward 7 unknown #
coedge $-1 $480 $248 $243 $360 forward $354 $-1 #
edge $-1 $253 11.856142126055792 $364 16.151981763732465 $359 $481 forward 7 unknown #
coedge $-1 $482 $245 $357 $478 reversed $363 $-1 #
coedge $-1 $245 $482 $480 $483 reversed $363 $-1 #
loop $-1 $-1 $245 $353 #
vertex $-1 $483 $484 #
vertex $-1 $246 $485 #
straight-curve $-1 -45.365375729376133 -30.156043708626591 0 0 0 1 I I #
edge $-1 $372 -7.9691213134363386 $369 7.9691213134363386 $356 $486 forward 7 unknown #
coedge $-1 $248 $480 $476 $487 forward $354 $-1 #
vertex $-1 $249 $488 #
straight-curve $-1 -25.260530919251593 -25.860204070949919 -7.9691213134363386 1 0 0 I I #
coedge $-1 $357 $250 $477 $489 forward $147 $-1 #
vertex $-1 $489 $490 #
straight-curve $-1 -25.260530919251593 -25.860204070949919 7.9691213134363386 -1 0 0 I I #
point $-1 -45.365375729376133 -25.860204070949919 7.9691213134363386 #
point $-1 -45.365375729376133 -25.860204070949919 -7.9691213134363386 #
face $-1 $-1 $386 $35 $-1 $491 reversed single #
loop $-1 $-1 $382 $255 #
plane-surface $-1 0 0 -7.9691213134363386 0 0 1 1 0 0 forward_v I I I I #
coedge $-1 $492 $493 $263 $390 forward $256 $-1 #
coedge $-1 $258 $394 $384 $494 forward $155 $-1 #
edge $-1 $388 -30.41621702837865 $268 -20.104844810124543 $258 $495 forward 7 unknown #
coedge $-1 $496 $264 $259 $383 forward $377 $-1 #
edge $-1 $269 20.104844810124543 $387 30.41621702837865 $382 $497 forward 7 unknown #
coedge $-1 $498 $261 $380 $494 reversed $386 $-1 #
coedge $-1 $261 $498 $496 $499 reversed $386 $-1 #
loop $-1 $-1 $261 $376 #
vertex $-1 $499 $500 #
vertex $-1 $262 $501 #
straight-curve $-1 55.67674794763024 -25.860204070949919 0 0 0 1 I I #
edge $-1 $395 -7.9691213134363386 $392 7.9691213134363386 $379 $502 forward 7 unknown #
coedge $-1 $264 $496 $492 $503 forward $377 $-1 #
vertex $-1 $265 $504 #
straight-curve $-1 45.36537572937614 -14.004061944894127 -7.9691213134363386 0 1 0 I I #
coedge $-1 $380 $266 $493 $505 forward $155 $-1 #
vertex $-1 $505 $506 #
straight-curve $-1 45.36537572937614 -14.004061944894127 7.9691213134363386 0 -1 0 I I #
point $-1 45.36537572937614 -25.860204070949919 7.9691213134363386 #
point $-1 45.36537572937614 -25.860204070949919 -7.9691213134363386 #
loop $-1 $-1 $279 $271 #
plane-surface $-1 0 -30.156043708626591 0 0 1 0 0 0 1 forward_v I I I I #
coedge $-1 $402 $274 $276 $406 reversed $163 $-1 #
coedge $-1 $274 $401 $507 $508 reversed $163 $-1 #
coedge $-1 $282 $277 $274 $404 forward $272 $-1 #
edge $-1 $407 -25.814571463765866 $509 -13.597623607340473 $403 $510 forward 7 unknown #
coedge $-1 $276 $275 $410 $511 reversed $101 $-1 #
edge $-1 $512 8.2634070795339233e-015 $407 14.252699449794131 $401 $513 forward 7 unknown #
vertex $-1 $278 $514 #
straight-curve $-1 14.032055560194099 -17.939095852201206 7.9691213134363386 -1 0 0 I I #
coedge $-1 $507 $279 $282 $414 reversed $399 $-1 #
coedge $-1 $279 $507 $405 $511 forward $399 $-1 #
vertex $-1 $280 $515 #
straight-curve $-1 37.069485015823453 -30.156043708626591 48.038506685388569 0 0 1 I I #
straight-curve $-1 37.069485015823453 -30.156043708626598 0.62843832889431894 0 -0.85716729658548041 -0.51503808176128008 I I #
edge $-1 $509 19.058737224952942 $283 37.069485015823453 $409 $516 forward 7 unknown #
point $-1 37.069485015823453 -30.156043708626591 7.9691213134363386 #
point $-1 37.069485015823453 -17.939095852201199 7.9691213134363394 #
edge $-1 $517 1 $517 0 $286 $-1 forward 7 unknown #
vertex $-1 $287 $518 #
ellipse-curve $-1 22.660886783127047 -22.882505761849192 2.3597877145486423 0 -0.51503808176128008 0.85716729658548041 1 0 0 1 I I #
point $-1 23.660886783127047 -24.047569780413891 4.2987798211653292 #
edge $-1 $519 1 $519 0 $290 $-1 forward 7 unknown #
vertex $-1 $291 $520 #
ellipse-curve $-1 28.064111120388198 -22.882505761849192 2.3597877145486423 0 -0.51503808176128008 0.85716729658548041 1 0 0 1 I I #
point $-1 29.064111120388198 -24.047569780413891 4.2987798211653292 #
edge $-1 $521 1 $521 0 $294 $-1 forward 7 unknown #
vertex $-1 $295 $522 #
ellipse-curve $-1 33.467335457649348 -22.882505761849192 2.3597877145486423 0 -0.51503808176128008 0.85716729658548041 1 0 0 1 I I #
point $-1 34.467335457649348 -24.047569780413891 4.2987798211653292 #
plane-surface $-1 0 0 7.9691213134363386 0 0 1 1 0 0 forward_v I I I I #
coedge $-1 $440 $439 $432 $523 forward $299 $-1 #
coedge $-1 $432 $301 $303 $436 reversed $192 $-1 #
coedge $-1 $301 $431 $430 $523 reversed $192 $-1 #
coedge $-1 $309 $304 $301 $434 forward $310 $-1 #
edge $-1 $437 5.2130726564380012 $524 13.355547320209823 $433 $525 forward 7 unknown #
coedge $-1 $303 $302 $440 $526 reversed $120 $-1 #
edge $-1 $527 -60.312087417253174 $437 -50.909967497268219 $431 $528 forward 7 unknown #
vertex $-1 $305 $529 #
straight-curve $-1 17.009004646579303 22.013569044854773 7.9691213134363394 1 0 0 I I #
coedge $-1 $430 $306 $309 $444 reversed $299 $-1 #
coedge $-1 $306 $430 $435 $526 forward $299 $-1 #
vertex $-1 $307 $530 #
straight-curve $-1 22.670642856941079 30.156043708626591 64.929530608971561 0 0 1 I I #
straight-curve $-1 22.670642856941079 -22.075755916724411 33.424105403102899 0 0.8660253999169214 -0.50000000669873634 I I #
edge $-1 $524 -45.365375729376133 $311 -22.670642856941079 $439 $531 forward 7 unknown #
point $-1 22.670642856941079 30.156043708626591 7.9691213134363386 #
point $-1 22.670642856941079 22.013569044854769 7.9691213134363394 #
edge $-1 $532 1 $532 0 $314 $-1 forward 7 unknown #
vertex $-1 $315 $533 #
ellipse-curve $-1 27.209589431428093 24.980417800282009 3.7057342103938007 0 0.50000000669873634 0.8660253999169214 1.5 0 0 1 I I #
point $-1 28.709589431428093 26.084806376740673 5.6185913019489382 #
edge $-1 $534 1 $534 0 $318 $-1 forward 7 unknown #
vertex $-1 $319 $535 #
ellipse-curve $-1 34.018009293158606 24.980417800282009 3.7057342103938007 0 0.50000000669873634 0.8660253999169214 1.5 0 0 1 I I #
point $-1 35.518009293158606 26.084806376740673 5.6185913019489382 #
edge $-1 $536 1 $536 0 $322 $-1 forward 7 unknown #
vertex $-1 $323 $537 #
ellipse-curve $-1 40.826429154889119 24.980417800282009 3.7057342103938007 0 0.50000000669873634 0.8660253999169214 1.5 0 0 1 I I #
point $-1 42.326429154889119 26.084806376740673 5.6185913019489382 #
plane-surface $-1 55.67674794763024 0 0 -1 0 0 0 0 1 forward_v I I I I #
coedge $-1 $331 $329 $333 $464 reversed $221 $-1 #
edge $-1 $344 -7.9691213134363386 $466 7.9691213134363386 $343 $538 forward 7 unknown #
vertex $-1 $464 $539 #
straight-curve $-1 -55.67674794763024 -30.156043708626591 0 0 0 -1 I I #
edge $-1 $462 -30.156043708626591 $466 30.156043708626591 $460 $540 forward 7 unknown #
straight-curve $-1 0 -30.156043708626591 -7.9691213134363386 -1 0 0 I I #
vertex $-1 $336 $541 #
straight-curve $-1 0 30.156043708626591 -7.9691213134363386 1 0 0 I I #
point $-1 55.67674794763024 30.156043708626591 -7.9691213134363386 #
point $-1 55.67674794763024 -30.156043708626591 -7.9691213134363386 #
straight-curve $-1 -55.67674794763024 0 7.9691213134363386 0 -1 0 I I #
point $-1 -55.67674794763024 30.156043708626591 7.9691213134363386 #
point $-1 -55.67674794763024 -30.156043708626591 7.9691213134363386 #
straight-curve $-1 55.67674794763024 -30.156043708626591 0 0 0 -1 I I #
straight-curve $-1 55.67674794763024 30.156043708626591 0 0 0 -1 I I #
plane-surface $-1 0 -30.156043708626591 0 0 1 0 0 0 1 forward_v I I I I #
coedge $-1 $542 $356 $368 $487 reversed $240 $-1 #
coedge $-1 $356 $542 $371 $489 reversed $240 $-1 #
edge $-1 $543 -55.67674794763024 $365 -45.365375729376133 $361 $544 forward 7 unknown #
straight-curve $-1 -45.365375729376133 -14.004061944894127 7.9691213134363386 0 1 0 I I #
coedge $-1 $368 $359 $362 $483 forward $354 $-1 #
straight-curve $-1 -45.365375729376133 -14.004061944894127 -7.9691213134363386 0 -1 0 I I #
coedge $-1 $362 $361 $542 $545 forward $363 $-1 #
edge $-1 $364 45.365375729376133 $546 55.67674794763024 $362 $547 forward 7 unknown #
point $-1 -45.365375729376133 -30.156043708626591 -7.9691213134363386 #
point $-1 -45.365375729376133 -30.156043708626591 7.9691213134363386 #
straight-curve $-1 -55.67674794763024 -25.860204070949919 0 0 0 -1 I I #
edge $-1 $546 -30.156043708626591 $369 -25.860204070949919 $476 $548 forward 7 unknown #
point $-1 -55.67674794763024 -25.860204070949919 -7.9691213134363386 #
edge $-1 $372 25.860204070949919 $543 30.156043708626591 $477 $549 forward 7 unknown #
point $-1 -55.67674794763024 -25.860204070949919 7.9691213134363386 #
plane-surface $-1 55.67674794763024 0 0 -1 0 0 0 0 1 forward_v I I I I #
coedge $-1 $550 $379 $391 $503 reversed $256 $-1 #
coedge $-1 $379 $550 $394 $505 reversed $256 $-1 #
edge $-1 $551 -30.156043708626591 $388 -25.860204070949919 $384 $552 forward 7 unknown #
straight-curve $-1 25.260530919251597 -25.860204070949919 7.9691213134363386 -1 0 0 I I #
coedge $-1 $391 $382 $385 $499 forward $377 $-1 #
straight-curve $-1 25.260530919251597 -25.860204070949919 -7.9691213134363386 1 0 0 I I #
coedge $-1 $385 $384 $550 $553 forward $386 $-1 #
edge $-1 $387 25.860204070949919 $554 30.156043708626591 $385 $555 forward 7 unknown #
point $-1 55.676747947630247 -25.860204070949919 -7.9691213134363386 #
point $-1 55.676747947630247 -25.860204070949919 7.9691213134363386 #
straight-curve $-1 45.36537572937614 -30.156043708626591 0 0 0 -1 I I #
edge $-1 $554 -55.67674794763024 $392 -45.36537572937614 $492 $556 forward 7 unknown #
point $-1 45.36537572937614 -30.156043708626591 -7.9691213134363386 #
edge $-1 $395 45.36537572937614 $551 55.67674794763024 $493 $557 forward 7 unknown #
point $-1 45.36537572937614 -30.156043708626591 7.9691213134363386 #
coedge $-1 $410 $409 $402 $508 forward $399 $-1 #
edge $-1 $509 40.069385371952229 $512 47.410068356494243 $507 $558 forward 7 unknown #
vertex $-1 $414 $559 #
straight-curve $-1 19.058737224952942 -43.753667315967064 7.9691213134363394 0 -1 0 I I #
edge $-1 $512 5.0266816647588435 $411 23.037429455629354 $410 $560 forward 7 unknown #
vertex $-1 $511 $561 #
straight-curve $-1 19.058737224952942 -30.156043708626598 0.62843832889431894 0 0.85716729658548041 0.51503808176128008 I I #
point $-1 19.058737224952942 -17.939095852201199 7.9691213134363394 #
point $-1 37.069485015823453 -30.156043708626591 0.62843832889432316 #
straight-curve $-1 0 -30.156043708626591 7.9691213134363386 1 0 0 I I #
vertex $-1 $417 $562 #
point $-1 23.660886783127047 -22.882505761849192 2.3597877145486423 #
vertex $-1 $421 $563 #
point $-1 29.064111120388198 -22.882505761849192 2.3597877145486423 #
vertex $-1 $425 $564 #
point $-1 34.467335457649348 -22.882505761849192 2.3597877145486423 #
edge $-1 $524 56.960409295535221 $527 61.661469318510022 $430 $565 forward 7 unknown #
vertex $-1 $444 $566 #
straight-curve $-1 45.365375729376133 16.800496388416768 7.9691213134363394 0 1 0 I I #
edge $-1 $527 -28.35637108279683 $441 -5.6616382103617759 $440 $567 forward 7 unknown #
vertex $-1 $526 $568 #
straight-curve $-1 45.365375729376133 -22.075755916724411 33.424105403102899 0 -0.8660253999169214 0.50000000669873634 I I #
point $-1 45.365375729376133 22.013569044854769 7.9691213134363394 #
point $-1 22.670642856941079 30.156043708626591 3.2680612904615387 #
straight-curve $-1 0 30.156043708626591 7.9691213134363386 -1 0 0 I I #
vertex $-1 $447 $569 #
point $-1 28.709589431428093 24.980417800282009 3.7057342103938007 #
vertex $-1 $451 $570 #
point $-1 35.518009293158606 24.980417800282009 3.7057342103938007 #
vertex $-1 $455 $571 #
point $-1 42.326429154889119 24.980417800282009 3.7057342103938007 #
straight-curve $-1 -55.67674794763024 30.156043708626591 0 0 0 -1 I I #
point $-1 -55.67674794763024 -30.156043708626591 -7.9691213134363386 #
straight-curve $-1 -55.67674794763024 0 -7.9691213134363386 0 1 0 I I #
point $-1 -55.67674794763024 30.156043708626591 -7.9691213134363386 #
coedge $-1 $477 $476 $482 $545 reversed $240 $-1 #
vertex $-1 $489 $572 #
straight-curve $-1 0 -30.156043708626591 7.9691213134363386 1 0 0 I I #
edge $-1 $543 -7.9691213134363386 $546 7.9691213134363386 $542 $573 forward 7 unknown #
vertex $-1 $487 $574 #
straight-curve $-1 0 -30.156043708626591 -7.9691213134363386 -1 0 0 I I #
straight-curve $-1 -55.67674794763024 0 -7.9691213134363386 0 1 0 I I #
straight-curve $-1 -55.67674794763024 0 7.9691213134363386 0 -1 0 I I #
coedge $-1 $493 $492 $498 $553 reversed $256 $-1 #
vertex $-1 $494 $575 #
straight-curve $-1 55.67674794763024 0 7.9691213134363386 0 1 0 I I #
edge $-1 $551 -7.9691213134363386 $554 7.9691213134363386 $498 $576 forward 7 unknown #
vertex $-1 $553 $577 #
straight-curve $-1 55.67674794763024 0 -7.9691213134363386 0 -1 0 I I #
straight-curve $-1 0 -30.156043708626591 -7.9691213134363386 -1 0 0 I I #
straight-curve $-1 0 -30.156043708626591 7.9691213134363386 1 0 0 I I #
straight-curve $-1 19.058737224952942 -30.156043708626591 48.038506685388569 0 0 -1 I I #
point $-1 19.058737224952942 -30.156043708626591 7.9691213134363386 #
straight-curve $-1 14.032055560194099 -30.156043708626591 0.62843832889432338 1 0 0 I I #
point $-1 19.058737224952942 -30.156043708626591 0.62843832889432316 #
point $-1 22.660886783127047 -22.367467680087909 1.5026204179631621 #
point $-1 28.064111120388198 -22.367467680087909 1.5026204179631621 #
point $-1 33.467335457649348 -22.367467680087909 1.5026204179631621 #
straight-curve $-1 45.365375729376133 30.156043708626591 64.929530608971561 0 0 -1 I I #
point $-1 45.365375729376133 30.156043708626591 7.9691213134363386 #
straight-curve $-1 17.009004646579303 30.156043708626584 3.2680612904615458 -1 0 0 I I #
point $-1 45.365375729376133 30.156043708626591 3.2680612904615387 #
point $-1 27.209589431428093 24.230417790233904 2.4066961105184186 #
point $-1 34.018009293158606 24.230417790233904 2.4066961105184186 #
point $-1 40.826429154889119 24.230417790233904 2.4066961105184186 #
point $-1 -55.67674794763024 -30.156043708626591 7.9691213134363386 #
straight-curve $-1 -55.67674794763024 -30.156043708626591 0 0 0 -1 I I #
point $-1 -55.67674794763024 -30.156043708626591 -7.9691213134363386 #
point $-1 55.67674794763024 -30.156043708626591 7.9691213134363386 #
straight-curve $-1 55.67674794763024 -30.156043708626591 0 0 0 -1 I I #
point $-1 55.67674794763024 -30.156043708626591 -7.9691213134363386 #
End-of-ACIS-data 