500 0 5 0           
7 Unknown 11 ACIS 5.0 NT 24 Thu Mar 25 15:48:56 1999 
-1 9.9999999999999995e-007 1e-010 
body $-1 $5 $-1 $6 #
body $-1 $7 $-1 $8 #
body $-1 $9 $-1 $10 #
body $-1 $11 $-1 $12 #
body $-1 $13 $-1 $14 #
lump $-1 $-1 $15 $0 #
transform $-1 1 0 0 0 1 0 0 0 1 68.892483291116065 46.520455123881383 12.104944135173726 1 rotate no_reflect no_shear #
lump $-1 $-1 $16 $1 #
transform $-1 1 0 0 0 1 0 0 0 1 68.892483291116065 46.520455123881383 12.104944135173726 1 rotate no_reflect no_shear #
lump $-1 $-1 $17 $2 #
transform $-1 1 0 0 0 1 0 0 0 1 68.892483291116065 46.520455123881383 12.104944135173726 1 rotate no_reflect no_shear #
lump $-1 $-1 $18 $3 #
transform $-1 1 0 0 0 1 0 0 0 1 68.892483291116065 46.520455123881383 12.104944135173726 1 rotate no_reflect no_shear #
lump $-1 $-1 $19 $4 #
transform $-1 1 0 0 0 1 0 0 0 1 68.892483291116065 46.520455123881383 12.104944135173726 1 rotate no_reflect no_shear #
shell $-1 $-1 $-1 $20 $-1 $5 #
shell $-1 $-1 $-1 $21 $-1 $7 #
shell $-1 $-1 $-1 $22 $-1 $9 #
shell $-1 $-1 $-1 $23 $-1 $11 #
shell $-1 $-1 $-1 $24 $-1 $13 #
face $-1 $25 $26 $15 $-1 $27 forward single #
face $-1 $28 $29 $16 $-1 $30 forward single #
face $-1 $31 $32 $17 $-1 $33 reversed single #
face $-1 $34 $35 $18 $-1 $36 forward single #
face $-1 $37 $38 $19 $-1 $39 forward single #
face $-1 $40 $41 $15 $-1 $42 reversed single #
loop $-1 $-1 $43 $20 #
plane-surface $-1 0 0 12.104944135173726 0 0 1 1 0 0 forward_v I I I I #
face $-1 $44 $45 $16 $-1 $46 reversed single #
loop $-1 $-1 $47 $21 #
plane-surface $-1 -68.892483291116065 0 0 1 0 0 0 0 -1 forward_v I I I I #
face $-1 $48 $49 $17 $-1 $50 reversed single #
loop $-1 $-1 $51 $22 #
plane-surface $-1 55.046518264712844 -46.520455123881348 5.4215083779831446 0 -0.66913061440640931 0.74314481823134659 1 0 0 forward_v I I I I #
face $-1 $52 $53 $18 $-1 $54 forward single #
loop $-1 $55 $56 $23 #
cone-surface $-1 49.112533253397174 -42.116987205246716 7.9945554673116286 0 0.66913061440640931 -0.74314481823134659 1.5 0 0 1 I I 0 1 1.5 forward I I I I #
face $-1 $57 $58 $19 $-1 $59 forward single #
loop $-1 $60 $61 $24 #
cone-surface $-1 60.980503276028514 -42.116987205246716 7.9945554673116286 0 0.66913061440640931 -0.74314481823134659 1.5 0 0 1 I I 0 1 1.5 forward I I I I #
face $-1 $62 $63 $15 $-1 $64 reversed single #
loop $-1 $-1 $65 $25 #
plane-surface $-1 0 0 -12.104944135173726 0 0 1 1 0 0 forward_v I I I I #
coedge $-1 $66 $67 $68 $69 forward $26 $-1 #
face $-1 $70 $71 $16 $-1 $72 forward single #
loop $-1 $-1 $73 $28 #
plane-surface $-1 0 46.520455123881383 0 0 -1 0 0 0 -1 forward_v I I I I #
coedge $-1 $74 $75 $76 $77 forward $29 $-1 #
face $-1 $78 $79 $17 $-1 $80 reversed single #
loop $-1 $-1 $81 $31 #
plane-surface $-1 41.200553238309624 -138.71659446901691 107.81569232374821 1 0 0 0 0.66913061440640931 -0.74314481823134659 forward_v I I I I #
coedge $-1 $82 $83 $84 $85 reversed $32 $-1 #
face $-1 $-1 $86 $18 $-1 $87 forward single #
loop $-1 $88 $89 $34 #
cone-surface $-1 49.112533253397174 -40.923024941980003 6.6685260643712976 0 0.66913061440640931 -0.74314481823134659 0.75 0 0 1 I I -0.70710678118654757 0.70710678118654757 0.75 forward I I I I #
loop $-1 $-1 $90 $23 #
coedge $-1 $56 $56 $91 $92 reversed $35 $-1 #
face $-1 $-1 $93 $19 $-1 $94 forward single #
loop $-1 $95 $96 $37 #
cone-surface $-1 60.980503276028514 -40.923024941980003 6.6685260643712976 0 0.66913061440640931 -0.74314481823134659 0.75 0 0 1 I I -0.70710678118654757 0.70710678118654757 0.75 forward I I I I #
loop $-1 $-1 $97 $24 #
coedge $-1 $61 $61 $98 $99 reversed $38 $-1 #
face $-1 $100 $101 $15 $-1 $102 reversed single #
loop $-1 $-1 $103 $40 #
plane-surface $-1 0 -46.520455123881383 0 0 1 0 0 0 1 forward_v I I I I #
coedge $-1 $104 $105 $106 $107 forward $41 $-1 #
coedge $-1 $108 $43 $109 $110 forward $26 $-1 #
coedge $-1 $43 $108 $111 $112 forward $26 $-1 #
coedge $-1 $113 $114 $43 $69 reversed $115 $-1 #
edge $-1 $116 -46.520455123881383 $117 46.520455123881383 $68 $118 forward 7 unknown #
face $-1 $119 $120 $16 $-1 $121 reversed single #
loop $-1 $-1 $76 $44 #
plane-surface $-1 -75.765536617616263 0 -8.8341303779179174 0 0 1 1 0 0 forward_v I I I I #
coedge $-1 $122 $123 $75 $124 forward $45 $-1 #
coedge $-1 $125 $47 $126 $127 reversed $29 $-1 #
coedge $-1 $47 $125 $73 $124 reversed $29 $-1 #
coedge $-1 $128 $129 $47 $77 reversed $71 $-1 #
edge $-1 $130 -46.520455123881383 $131 46.520455123881383 $76 $132 forward 7 unknown #
face $-1 $133 $134 $17 $-1 $135 forward single #
loop $-1 $-1 $136 $48 #
plane-surface $-1 0 -46.520455123881383 0 0 1 0 0 0 1 forward_v I I I I #
coedge $-1 $137 $138 $139 $140 reversed $49 $-1 #
coedge $-1 $141 $51 $142 $143 reversed $32 $-1 #
coedge $-1 $51 $141 $137 $144 forward $32 $-1 #
coedge $-1 $139 $145 $51 $85 forward $134 $-1 #
edge $-1 $146 -41.369224158759643 $147 -13.677294105953202 $84 $148 forward 7 unknown #
loop $-1 $-1 $91 $52 #
plane-surface $-1 55.046518264712844 -46.520455123881348 5.4215083779831446 0 -0.66913061440640931 0.74314481823134659 1 0 0 forward_v I I I I #
loop $-1 $-1 $149 $34 #
coedge $-1 $89 $89 $90 $150 reversed $53 $-1 #
coedge $-1 $90 $90 $89 $150 forward $55 $-1 #
coedge $-1 $91 $91 $56 $92 forward $86 $-1 #
edge $-1 $151 1.8241286124717912e-016 $151 6.2831853071796004 $91 $152 forward 7 unknown #
loop $-1 $-1 $98 $57 #
plane-surface $-1 55.046518264712844 -46.520455123881348 5.4215083779831446 0 -0.66913061440640931 0.74314481823134659 1 0 0 forward_v I I I I #
loop $-1 $-1 $153 $37 #
coedge $-1 $96 $96 $97 $154 reversed $58 $-1 #
coedge $-1 $97 $97 $96 $154 forward $60 $-1 #
coedge $-1 $98 $98 $61 $99 forward $93 $-1 #
edge $-1 $155 1.8241286124717912e-016 $155 6.2831853071796004 $98 $156 forward 7 unknown #
face $-1 $157 $158 $15 $-1 $159 reversed single #
loop $-1 $-1 $160 $62 #
plane-surface $-1 -68.892483291116065 0 0 1 0 0 0 0 -1 forward_v I I I I #
coedge $-1 $161 $111 $160 $162 forward $63 $-1 #
coedge $-1 $163 $65 $161 $164 forward $41 $-1 #
coedge $-1 $65 $163 $165 $166 forward $41 $-1 #
coedge $-1 $114 $113 $65 $107 reversed $115 $-1 #
edge $-1 $167 -46.520455123881383 $168 46.520455123881383 $106 $169 forward 7 unknown #
coedge $-1 $67 $66 $170 $171 forward $26 $-1 #
coedge $-1 $172 $173 $66 $110 reversed $158 $-1 #
edge $-1 $117 -68.892483291116065 $174 68.892483291116065 $109 $175 forward 7 unknown #
coedge $-1 $103 $176 $67 $112 reversed $63 $-1 #
edge $-1 $177 -68.892483291116065 $116 68.892483291116065 $111 $178 forward 7 unknown #
coedge $-1 $106 $68 $176 $179 forward $115 $-1 #
coedge $-1 $68 $106 $172 $180 reversed $115 $-1 #
loop $-1 $-1 $113 $157 #
vertex $-1 $69 $181 #
vertex $-1 $69 $182 #
straight-curve $-1 68.892483291116065 0 12.104944135173726 0 1 0 I I #
face $-1 $183 $184 $16 $-1 $185 reversed single #
loop $-1 $-1 $186 $70 #
plane-surface $-1 -82.638589944116461 0 -10.469537256545822 1 0 0 0 0 -1 forward_v I I I I #
coedge $-1 $187 $73 $188 $189 reversed $45 $-1 #
coedge $-1 $73 $187 $128 $190 reversed $45 $-1 #
edge $-1 $130 8.8341303779179174 $191 12.104944135173726 $73 $192 forward 7 unknown #
coedge $-1 $75 $74 $193 $194 reversed $29 $-1 #
coedge $-1 $195 $196 $74 $127 forward $197 $-1 #
edge $-1 $198 -12.104944135173726 $131 -8.8341303779179174 $126 $199 forward 7 unknown #
coedge $-1 $200 $76 $123 $190 forward $71 $-1 #
coedge $-1 $76 $200 $195 $201 forward $71 $-1 #
vertex $-1 $124 $202 #
vertex $-1 $201 $203 #
straight-curve $-1 -68.892483291116065 0 -8.8341303779179174 0 -1 0 I I #
face $-1 $-1 $204 $17 $-1 $205 reversed single #
loop $-1 $-1 $139 $78 #
plane-surface $-1 0 0 12.104944135173726 0 0 1 1 0 0 forward_v I I I I #
coedge $-1 $206 $207 $138 $208 forward $79 $-1 #
coedge $-1 $138 $81 $83 $144 reversed $49 $-1 #
coedge $-1 $81 $137 $136 $208 reversed $49 $-1 #
coedge $-1 $209 $84 $81 $140 forward $134 $-1 #
edge $-1 $147 -30.260549342972659 $210 -22.837842110627072 $139 $211 forward 7 unknown #
coedge $-1 $83 $82 $206 $212 reversed $32 $-1 #
coedge $-1 $213 $214 $82 $143 forward $204 $-1 #
edge $-1 $215 -15.471868967553529 $146 -5.4836310760328439 $142 $216 forward 7 unknown #
edge $-1 $217 -4.7796872990954678e-014 $147 9.9882378915206367 $137 $218 forward 7 unknown #
coedge $-1 $84 $209 $213 $219 forward $134 $-1 #
vertex $-1 $143 $220 #
vertex $-1 $85 $221 #
straight-curve $-1 27.523259132356422 -39.097747891535796 12.104944135173724 -1 0 0 I I #
coedge $-1 $149 $149 $-1 $222 reversed $88 $-1 #
edge $-1 $223 0 $223 6.2831853071796004 $89 $224 forward 7 unknown #
vertex $-1 $92 $225 #
ellipse-curve $-1 49.112533253397174 -42.80910150770859 8.7632262565784167 0 -0.66913061440640931 0.74314481823134659 1.5 0 0 1 I I #
coedge $-1 $153 $153 $-1 $226 reversed $95 $-1 #
edge $-1 $227 0 $227 6.2831853071796004 $96 $228 forward 7 unknown #
vertex $-1 $99 $229 #
ellipse-curve $-1 60.980503276028514 -42.80910150770859 8.7632262565784167 0 -0.66913061440640931 0.74314481823134659 1.5 0 0 1 I I #
face $-1 $-1 $115 $15 $-1 $230 reversed single #
loop $-1 $-1 $172 $100 #
plane-surface $-1 0 46.520455123881383 0 0 -1 0 0 0 -1 forward_v I I I I #
coedge $-1 $170 $231 $103 $162 reversed $101 $-1 #
coedge $-1 $176 $103 $104 $164 reversed $63 $-1 #
edge $-1 $177 -12.104944135173726 $232 12.104944135173726 $160 $233 forward 7 unknown #
coedge $-1 $105 $104 $231 $234 forward $41 $-1 #
edge $-1 $168 -68.892483291116065 $232 68.892483291116065 $161 $235 forward 7 unknown #
coedge $-1 $173 $172 $105 $166 reversed $158 $-1 #
edge $-1 $236 -68.892483291116065 $167 68.892483291116065 $165 $237 forward 7 unknown #
vertex $-1 $107 $238 #
vertex $-1 $179 $239 #
straight-curve $-1 68.892483291116065 0 -12.104944135173726 0 -1 0 I I #
coedge $-1 $240 $160 $108 $171 reversed $101 $-1 #
edge $-1 $174 -46.520455123881383 $177 46.520455123881383 $170 $241 forward 7 unknown #
coedge $-1 $165 $109 $114 $180 forward $158 $-1 #
coedge $-1 $109 $165 $240 $242 reversed $158 $-1 #
vertex $-1 $110 $243 #
straight-curve $-1 0 46.520455123881383 12.104944135173726 -1 0 0 I I #
coedge $-1 $111 $161 $113 $179 reversed $63 $-1 #
vertex $-1 $171 $244 #
straight-curve $-1 0 -46.520455123881383 12.104944135173726 1 0 0 I I #
edge $-1 $116 -12.104944135173726 $168 12.104944135173726 $113 $245 forward 7 unknown #
edge $-1 $117 -12.104944135173726 $167 12.104944135173726 $114 $246 forward 7 unknown #
point $-1 68.892483291116065 -46.520455123881383 12.104944135173726 #
point $-1 68.892483291116065 46.520455123881383 12.104944135173726 #
face $-1 $-1 $197 $16 $-1 $247 reversed single #
loop $-1 $-1 $193 $119 #
plane-surface $-1 0 0 -12.104944135173726 0 0 1 1 0 0 forward_v I I I I #
coedge $-1 $248 $249 $187 $250 forward $120 $-1 #
coedge $-1 $123 $122 $186 $250 reversed $45 $-1 #
coedge $-1 $193 $251 $122 $189 forward $184 $-1 #
edge $-1 $252 -82.638589944116461 $191 -68.892483291116065 $122 $253 forward 7 unknown #
edge $-1 $130 -6.8730533265001981 $254 6.8730533265001981 $123 $255 forward 7 unknown #
vertex $-1 $124 $256 #
straight-curve $-1 -68.892483291116065 46.520455123881383 0 0 0 -1 I I #
coedge $-1 $257 $188 $125 $194 forward $184 $-1 #
edge $-1 $191 -46.520455123881383 $198 46.520455123881383 $193 $258 forward 7 unknown #
coedge $-1 $259 $126 $129 $201 reversed $197 $-1 #
coedge $-1 $126 $259 $257 $260 reversed $197 $-1 #
loop $-1 $-1 $126 $183 #
vertex $-1 $260 $261 #
straight-curve $-1 -68.892483291116065 -46.520455123881383 0 0 0 1 I I #
coedge $-1 $129 $128 $249 $262 forward $71 $-1 #
edge $-1 $263 -6.8730533265001981 $131 6.8730533265001981 $195 $264 forward 7 unknown #
point $-1 -68.892483291116065 46.520455123881383 -8.8341303779179174 #
point $-1 -68.892483291116065 -46.520455123881383 -8.8341303779179174 #
loop $-1 $-1 $142 $133 #
plane-surface $-1 68.892483291116065 0 0 -1 0 0 0 0 1 forward_v I I I I #
coedge $-1 $265 $136 $141 $212 forward $79 $-1 #
coedge $-1 $136 $265 $209 $266 reversed $79 $-1 #
edge $-1 $210 41.80290202670038 $217 48.486337783890988 $136 $267 forward 7 unknown #
coedge $-1 $145 $139 $207 $266 forward $134 $-1 #
vertex $-1 $266 $268 #
straight-curve $-1 41.200553238309624 -69.358297234508456 12.104944135173724 0 -1 0 I I #
edge $-1 $217 13.677294105953202 $215 41.369224158759643 $206 $269 forward 7 unknown #
coedge $-1 $214 $142 $145 $219 reversed $204 $-1 #
coedge $-1 $142 $213 $265 $270 forward $204 $-1 #
vertex $-1 $212 $271 #
straight-curve $-1 68.892483291116065 -35.022615872289606 15.774209566257664 0 0.74314481823134659 0.66913061440640931 I I #
vertex $-1 $212 $272 #
straight-curve $-1 41.200553238309624 -46.520455123881348 5.4215083779831446 0 0.74314481823134659 0.66913061440640931 I I #
edge $-1 $273 -46.520455123881383 $146 -39.097747891535796 $213 $274 forward 7 unknown #
point $-1 68.892483291116065 -39.097747891535796 12.104944135173726 #
point $-1 41.200553238309624 -39.097747891535796 12.104944135173726 #
edge $-1 $275 1 $275 0 $149 $-1 forward 7 unknown #
vertex $-1 $150 $276 #
ellipse-curve $-1 49.112533253397174 -41.424872902784813 7.2258846780448076 0 -0.66913061440640931 0.74314481823134659 1.5 0 0 1 I I #
point $-1 50.612533253397174 -42.809101507708618 8.7632262565784487 #
edge $-1 $277 1 $277 0 $153 $-1 forward 7 unknown #
vertex $-1 $154 $278 #
ellipse-curve $-1 60.980503276028514 -41.424872902784813 7.2258846780448076 0 -0.66913061440640931 0.74314481823134659 1.5 0 0 1 I I #
point $-1 62.480503276028514 -42.809101507708618 8.7632262565784487 #
plane-surface $-1 68.892483291116065 0 0 -1 0 0 0 0 1 forward_v I I I I #
coedge $-1 $160 $240 $163 $234 reversed $101 $-1 #
vertex $-1 $234 $279 #
straight-curve $-1 -68.892483291116065 -46.520455123881383 0 0 0 -1 I I #
edge $-1 $232 -46.520455123881383 $236 46.520455123881383 $231 $280 forward 7 unknown #
straight-curve $-1 0 -46.520455123881383 -12.104944135173726 -1 0 0 I I #
vertex $-1 $166 $281 #
straight-curve $-1 0 46.520455123881383 -12.104944135173726 1 0 0 I I #
point $-1 68.892483291116065 46.520455123881383 -12.104944135173726 #
point $-1 68.892483291116065 -46.520455123881383 -12.104944135173726 #
coedge $-1 $231 $170 $173 $242 forward $101 $-1 #
straight-curve $-1 -68.892483291116065 0 12.104944135173726 0 -1 0 I I #
edge $-1 $174 -12.104944135173726 $236 12.104944135173726 $173 $282 forward 7 unknown #
point $-1 -68.892483291116065 46.520455123881383 12.104944135173726 #
point $-1 -68.892483291116065 -46.520455123881383 12.104944135173726 #
straight-curve $-1 68.892483291116065 -46.520455123881383 0 0 0 -1 I I #
straight-curve $-1 68.892483291116065 46.520455123881383 0 0 0 -1 I I #
plane-surface $-1 0 -46.520455123881383 0 0 1 0 0 0 1 forward_v I I I I #
coedge $-1 $283 $186 $251 $284 reversed $120 $-1 #
coedge $-1 $186 $283 $200 $262 reversed $120 $-1 #
edge $-1 $254 -1.6354068786279043 $252 1.6354068786279043 $187 $285 forward 7 unknown #
coedge $-1 $188 $257 $248 $284 forward $184 $-1 #
vertex $-1 $189 $286 #
straight-curve $-1 0 46.520455123881383 -12.104944135173726 1 0 0 I I #
vertex $-1 $190 $287 #
straight-curve $-1 -75.765536617616263 46.520455123881383 -8.8341303779179174 -1 0 0 I I #
point $-1 -68.892483291116065 46.520455123881383 -12.104944135173726 #
coedge $-1 $251 $193 $196 $260 forward $184 $-1 #
straight-curve $-1 -68.892483291116065 0 -12.104944135173726 0 -1 0 I I #
coedge $-1 $196 $195 $283 $288 forward $197 $-1 #
edge $-1 $198 -6.8730533265001981 $289 6.8730533265001981 $196 $290 forward 7 unknown #
point $-1 -68.892483291116065 -46.520455123881383 -12.104944135173726 #
edge $-1 $254 -46.520455123881383 $263 46.520455123881383 $249 $291 forward 7 unknown #
vertex $-1 $262 $292 #
straight-curve $-1 -75.765536617616263 -46.520455123881383 -8.8341303779179174 1 0 0 I I #
coedge $-1 $207 $206 $214 $270 reversed $79 $-1 #
edge $-1 $210 41.200553238309624 $273 68.892483291116065 $207 $293 forward 7 unknown #
straight-curve $-1 41.200553238309624 -46.520455123881383 53.907846161874104 0 0 -1 I I #
point $-1 41.200553238309624 -46.520455123881383 12.104944135173726 #
straight-curve $-1 27.523259132356422 -46.520455123881383 5.421508377983109 1 0 0 I I #
edge $-1 $273 -12.104944135173726 $215 -5.4215083779831126 $214 $294 forward 7 unknown #
point $-1 68.892483291116065 -46.520455123881383 5.4215083779831126 #
point $-1 41.200553238309624 -46.520455123881383 5.4215083779831126 #
vertex $-1 $219 $295 #
straight-curve $-1 68.892483291116065 0 12.104944135173726 0 1 0 I I #
vertex $-1 $222 $296 #
point $-1 50.612533253397174 -41.424872902784813 7.2258846780448076 #
vertex $-1 $226 $297 #
point $-1 62.480503276028514 -41.424872902784813 7.2258846780448076 #
point $-1 -68.892483291116065 -46.520455123881383 -12.104944135173726 #
straight-curve $-1 -68.892483291116065 0 -12.104944135173726 0 1 0 I I #
point $-1 -68.892483291116065 46.520455123881383 -12.104944135173726 #
straight-curve $-1 -68.892483291116065 46.520455123881383 0 0 0 -1 I I #
coedge $-1 $249 $248 $259 $288 reversed $120 $-1 #
edge $-1 $289 -46.520455123881383 $252 46.520455123881383 $248 $298 forward 7 unknown #
straight-curve $-1 -82.638589944116461 46.520455123881383 -10.469537256545822 0 0 -1 I I #
point $-1 -82.638589944116461 46.520455123881383 -12.104944135173726 #
point $-1 -82.638589944116461 46.520455123881383 -8.8341303779179174 #
edge $-1 $263 -1.6354068786279043 $289 1.6354068786279043 $283 $299 forward 7 unknown #
vertex $-1 $284 $300 #
straight-curve $-1 -75.765536617616263 -46.520455123881383 -12.104944135173726 -1 0 0 I I #
straight-curve $-1 -82.638589944116461 0 -8.8341303779179174 0 -1 0 I I #
point $-1 -82.638589944116461 -46.520455123881383 -8.8341303779179174 #
straight-curve $-1 0 -46.520455123881383 12.104944135173726 1 0 0 I I #
straight-curve $-1 68.892483291116065 -46.520455123881383 0 0 0 -1 I I #
point $-1 68.892483291116065 -46.520455123881383 12.104944135173726 #
point $-1 49.112533253397174 -40.421176981175194 6.1111674506977876 #
point $-1 60.980503276028514 -40.421176981175194 6.1111674506977876 #
straight-curve $-1 -82.638589944116461 0 -12.104944135173726 0 1 0 I I #
straight-curve $-1 -82.638589944116461 -46.520455123881383 -10.469537256545822 0 0 -1 I I #
point $-1 -82.638589944116461 -46.520455123881383 -12.104944135173726 #
End-of-ACIS-data 