500 0 11 0           
7 Unknown 11 ACIS 5.0 NT 24 Fri Mar 26 20:18:59 1999 
-1 9.9999999999999995e-007 1e-010 
body $-1 $11 $-1 $12 #
body $-1 $13 $-1 $14 #
body $-1 $15 $-1 $16 #
body $-1 $17 $-1 $18 #
body $-1 $19 $-1 $20 #
body $-1 $21 $-1 $22 #
body $-1 $23 $-1 $24 #
body $-1 $25 $-1 $26 #
body $-1 $27 $-1 $28 #
body $-1 $29 $-1 $30 #
body $-1 $31 $-1 $32 #
lump $-1 $-1 $33 $0 #
transform $-1 1 0 0 0 1 0 0 0 1 59.450056459242532 27.547654263230175 6.387740015626175 1 rotate no_reflect no_shear #
lump $-1 $-1 $34 $1 #
transform $-1 1 0 0 0 1 0 0 0 1 59.450056459242532 27.547654263230175 6.387740015626175 1 rotate no_reflect no_shear #
lump $-1 $-1 $35 $2 #
transform $-1 1 0 0 0 1 0 0 0 1 59.450056459242532 27.547654263230175 6.387740015626175 1 rotate no_reflect no_shear #
lump $-1 $-1 $36 $3 #
transform $-1 1 0 0 0 1 0 0 0 1 59.450056459242532 27.547654263230175 6.387740015626175 1 rotate no_reflect no_shear #
lump $-1 $-1 $37 $4 #
transform $-1 1 0 0 0 1 0 0 0 1 59.450056459242532 27.547654263230175 6.387740015626175 1 rotate no_reflect no_shear #
lump $-1 $-1 $38 $5 #
transform $-1 1 0 0 0 1 0 0 0 1 59.450056459242532 27.547654263230175 6.387740015626175 1 rotate no_reflect no_shear #
lump $-1 $-1 $39 $6 #
transform $-1 1 0 0 0 1 0 0 0 1 59.450056459242532 27.547654263230175 6.387740015626175 1 rotate no_reflect no_shear #
lump $-1 $-1 $40 $7 #
transform $-1 1 0 0 0 1 0 0 0 1 59.450056459242532 27.547654263230175 6.387740015626175 1 rotate no_reflect no_shear #
lump $-1 $-1 $41 $8 #
transform $-1 1 0 0 0 1 0 0 0 1 59.450056459242532 27.547654263230175 6.387740015626175 1 rotate no_reflect no_shear #
lump $-1 $-1 $42 $9 #
transform $-1 1 0 0 0 1 0 0 0 1 59.450056459242532 27.547654263230175 6.387740015626175 1 rotate no_reflect no_shear #
lump $-1 $-1 $43 $10 #
transform $-1 1 0 0 0 1 0 0 0 1 59.450056459242532 27.547654263230175 6.387740015626175 1 rotate no_reflect no_shear #
shell $-1 $-1 $-1 $44 $-1 $11 #
shell $-1 $-1 $-1 $45 $-1 $13 #
shell $-1 $-1 $-1 $46 $-1 $15 #
shell $-1 $-1 $-1 $47 $-1 $17 #
shell $-1 $-1 $-1 $48 $-1 $19 #
shell $-1 $-1 $-1 $49 $-1 $21 #
shell $-1 $-1 $-1 $50 $-1 $23 #
shell $-1 $-1 $-1 $51 $-1 $25 #
shell $-1 $-1 $-1 $52 $-1 $27 #
shell $-1 $-1 $-1 $53 $-1 $29 #
shell $-1 $-1 $-1 $54 $-1 $31 #
face $-1 $55 $56 $33 $-1 $57 forward single #
face $-1 $58 $59 $34 $-1 $60 forward single #
face $-1 $61 $62 $35 $-1 $63 reversed single #
face $-1 $64 $65 $36 $-1 $66 forward single #
face $-1 $67 $68 $37 $-1 $69 forward single #
face $-1 $70 $71 $38 $-1 $72 reversed single #
face $-1 $73 $74 $39 $-1 $75 forward single #
face $-1 $76 $77 $40 $-1 $78 forward single #
face $-1 $79 $80 $41 $-1 $81 reversed single #
face $-1 $82 $83 $42 $-1 $84 forward single #
face $-1 $85 $86 $43 $-1 $87 forward single #
face $-1 $88 $89 $33 $-1 $90 reversed single #
loop $-1 $-1 $91 $44 #
plane-surface $-1 0 0 6.387740015626175 0 0 1 1 0 0 forward_v I I I I #
face $-1 $92 $93 $34 $-1 $94 reversed single #
loop $-1 $-1 $95 $45 #
plane-surface $-1 -59.450056459242532 0 0 1 0 0 0 0 -1 forward_v I I I I #
face $-1 $96 $97 $35 $-1 $98 reversed single #
loop $-1 $-1 $99 $46 #
plane-surface $-1 -24.150420284938466 -105.5531478400016 92.290513855222201 -1 0 0 0 -0.6560590369687036 0.75470957328743171 forward_v I I I I #
face $-1 $100 $101 $36 $-1 $102 forward single #
loop $-1 $103 $104 $47 #
cone-surface $-1 -39.182163052356202 -24.694456369776134 3.7250902294780905 0 0.6560590369687036 -0.75470957328743171 1 0 0 1 I I 0 1 1 forward I I I I #
face $-1 $105 $106 $37 $-1 $107 forward single #
loop $-1 $108 $109 $48 #
cone-surface $-1 -30.163117391905558 -24.694456369776134 3.7250902294780905 0 0.6560590369687036 -0.75470957328743171 1 0 0 1 I I 0 1 1 forward I I I I #
face $-1 $110 $111 $38 $-1 $112 reversed single #
loop $-1 $-1 $113 $49 #
plane-surface $-1 51.021246354355682 -105.5531478400016 92.290513855222201 -1 0 0 0 -0.6560590369687036 0.75470957328743171 forward_v I I I I #
face $-1 $114 $115 $39 $-1 $116 forward single #
loop $-1 $117 $118 $50 #
cone-surface $-1 35.989503586937943 -24.694456369776134 3.7250902294780905 0 0.6560590369687036 -0.75470957328743171 1 0 0 1 I I 0 1 1 forward I I I I #
face $-1 $119 $120 $40 $-1 $121 forward single #
loop $-1 $122 $123 $51 #
cone-surface $-1 45.008549247388586 -24.694456369776134 3.7250902294780905 0 0.6560590369687036 -0.75470957328743171 1 0 0 1 I I 0 1 1 forward I I I I #
face $-1 $124 $125 $41 $-1 $126 reversed single #
loop $-1 $-1 $127 $52 #
plane-surface $-1 44.428888056443455 79.041702216799379 122.82395513887073 1 0 0 0 -0.74314483375859142 -0.66913059716165679 forward_v I I I I #
face $-1 $128 $129 $42 $-1 $130 forward single #
loop $-1 $131 $132 $53 #
cone-surface $-1 48.720650457243195 24.673063839490261 3.4145346911819985 0 -0.74314483375859142 -0.66913059716165679 1 0 0 1 I I 0 1 1 forward I I I I #
face $-1 $133 $134 $43 $-1 $135 forward single #
loop $-1 $136 $137 $54 #
cone-surface $-1 55.158294058442792 24.673063839490261 3.4145346911819985 0 -0.74314483375859142 -0.66913059716165679 1 0 0 1 I I 0 1 1 forward I I I I #
face $-1 $138 $139 $33 $-1 $140 reversed single #
loop $-1 $-1 $141 $55 #
plane-surface $-1 0 0 -6.387740015626175 0 0 1 1 0 0 forward_v I I I I #
coedge $-1 $142 $143 $144 $145 forward $56 $-1 #
face $-1 $146 $147 $34 $-1 $148 forward single #
loop $-1 $-1 $149 $58 #
plane-surface $-1 0 27.547654263230175 0 0 -1 0 0 0 -1 forward_v I I I I #
coedge $-1 $150 $151 $152 $153 forward $59 $-1 #
face $-1 $154 $155 $35 $-1 $156 reversed single #
loop $-1 $-1 $157 $61 #
plane-surface $-1 -34.67264022213088 -27.547654263230172 2.555460370684898 0 -0.6560590369687036 0.75470957328743171 1 0 0 forward_v I I I I #
coedge $-1 $158 $159 $160 $161 reversed $62 $-1 #
face $-1 $-1 $162 $36 $-1 $163 forward single #
loop $-1 $164 $165 $64 #
cone-surface $-1 -39.182163052356202 -23.717495626364489 2.6012254791569269 0 0.6560590369687036 -0.75470957328743171 0.5 0 0 1 I I -0.70710678118654746 0.70710678118654746 0.5 forward I I I I #
loop $-1 $-1 $166 $47 #
coedge $-1 $104 $104 $167 $168 reversed $65 $-1 #
face $-1 $-1 $169 $37 $-1 $170 forward single #
loop $-1 $171 $172 $67 #
cone-surface $-1 -30.163117391905558 -23.717495626364489 2.6012254791569269 0 0.6560590369687036 -0.75470957328743171 0.5 0 0 1 I I -0.70710678118654746 0.70710678118654746 0.5 forward I I I I #
loop $-1 $-1 $173 $48 #
coedge $-1 $109 $109 $174 $175 reversed $68 $-1 #
face $-1 $176 $177 $38 $-1 $178 reversed single #
loop $-1 $-1 $179 $70 #
plane-surface $-1 40.499026417163265 -27.547654263230172 2.555460370684898 0 -0.6560590369687036 0.75470957328743171 1 0 0 forward_v I I I I #
coedge $-1 $180 $181 $182 $183 reversed $71 $-1 #
face $-1 $-1 $184 $39 $-1 $185 forward single #
loop $-1 $186 $187 $73 #
cone-surface $-1 35.989503586937943 -23.717495626364489 2.6012254791569269 0 0.6560590369687036 -0.75470957328743171 0.5 0 0 1 I I -0.70710678118654746 0.70710678118654746 0.5 forward I I I I #
loop $-1 $-1 $188 $50 #
coedge $-1 $118 $118 $189 $190 reversed $74 $-1 #
face $-1 $-1 $191 $40 $-1 $192 forward single #
loop $-1 $193 $194 $76 #
cone-surface $-1 45.008549247388586 -23.717495626364489 2.6012254791569269 0 0.6560590369687036 -0.75470957328743171 0.5 0 0 1 I I -0.70710678118654746 0.70710678118654746 0.5 forward I I I I #
loop $-1 $-1 $195 $51 #
coedge $-1 $123 $123 $196 $197 reversed $77 $-1 #
face $-1 $198 $199 $41 $-1 $200 reversed single #
loop $-1 $-1 $201 $79 #
plane-surface $-1 51.939472257842993 -9.3183024318859538 43.264251579136399 0 0.74314483375859142 0.66913059716165679 1 0 0 forward_v I I I I #
coedge $-1 $202 $203 $204 $205 reversed $80 $-1 #
face $-1 $-1 $206 $42 $-1 $207 forward single #
loop $-1 $208 $209 $82 #
cone-surface $-1 48.720650457243195 23.257999683933857 2.140405234289215 0 -0.74314483375859142 -0.66913059716165679 0.5 0 0 1 I I -0.70710678118654746 0.70710678118654746 0.5 forward I I I I #
loop $-1 $-1 $210 $53 #
coedge $-1 $132 $132 $211 $212 reversed $83 $-1 #
face $-1 $-1 $213 $43 $-1 $214 forward single #
loop $-1 $215 $216 $85 #
cone-surface $-1 55.158294058442792 23.257999683933857 2.140405234289215 0 -0.74314483375859142 -0.66913059716165679 0.5 0 0 1 I I -0.70710678118654746 0.70710678118654746 0.5 forward I I I I #
loop $-1 $-1 $217 $54 #
coedge $-1 $137 $137 $218 $219 reversed $86 $-1 #
face $-1 $220 $221 $33 $-1 $222 reversed single #
loop $-1 $-1 $223 $88 #
plane-surface $-1 0 -27.547654263230175 0 0 1 0 0 0 1 forward_v I I I I #
coedge $-1 $224 $225 $226 $227 forward $89 $-1 #
coedge $-1 $228 $91 $229 $230 forward $56 $-1 #
coedge $-1 $91 $228 $231 $232 forward $56 $-1 #
coedge $-1 $233 $234 $91 $145 reversed $235 $-1 #
edge $-1 $236 -27.547654263230175 $237 27.547654263230175 $144 $238 forward 7 unknown #
face $-1 $239 $240 $34 $-1 $241 reversed single #
loop $-1 $-1 $152 $92 #
plane-surface $-1 -62.363249556758731 0 -3.387740015626175 0 0 1 1 0 0 forward_v I I I I #
coedge $-1 $242 $243 $151 $244 forward $93 $-1 #
coedge $-1 $245 $95 $246 $247 reversed $59 $-1 #
coedge $-1 $95 $245 $149 $244 reversed $59 $-1 #
coedge $-1 $248 $249 $95 $153 reversed $147 $-1 #
edge $-1 $250 -27.547654263230175 $251 27.547654263230175 $152 $252 forward 7 unknown #
face $-1 $253 $254 $35 $-1 $255 reversed single #
loop $-1 $-1 $256 $96 #
plane-surface $-1 -45.194860159323298 -105.5531478400016 92.290513855222201 1 0 0 0 0.6560590369687036 -0.75470957328743171 forward_v I I I I #
coedge $-1 $257 $258 $259 $260 reversed $97 $-1 #
coedge $-1 $159 $99 $261 $262 reversed $62 $-1 #
coedge $-1 $99 $158 $257 $263 reversed $62 $-1 #
coedge $-1 $259 $264 $99 $161 forward $265 $-1 #
edge $-1 $266 25.228919656770625 $267 29.637452993824123 $160 $268 forward 7 unknown #
loop $-1 $-1 $167 $100 #
plane-surface $-1 -34.67264022213088 -27.547654263230172 2.555460370684898 0 -0.6560590369687036 0.75470957328743171 1 0 0 forward_v I I I I #
loop $-1 $-1 $269 $64 #
coedge $-1 $165 $165 $166 $270 reversed $101 $-1 #
coedge $-1 $166 $166 $165 $270 forward $103 $-1 #
coedge $-1 $167 $167 $104 $168 forward $162 $-1 #
edge $-1 $271 -3.5047710980055092e-016 $271 6.2831853071796004 $167 $272 forward 7 unknown #
loop $-1 $-1 $174 $105 #
plane-surface $-1 -34.67264022213088 -27.547654263230172 2.555460370684898 0 -0.6560590369687036 0.75470957328743171 1 0 0 forward_v I I I I #
loop $-1 $-1 $273 $67 #
coedge $-1 $172 $172 $173 $274 reversed $106 $-1 #
coedge $-1 $173 $173 $172 $274 forward $108 $-1 #
coedge $-1 $174 $174 $109 $175 forward $169 $-1 #
edge $-1 $275 -3.5047710980055092e-016 $275 6.2831853071796004 $174 $276 forward 7 unknown #
face $-1 $277 $278 $38 $-1 $279 reversed single #
loop $-1 $-1 $280 $110 #
plane-surface $-1 29.97680647997085 -105.5531478400016 92.290513855222201 1 0 0 0 0.6560590369687036 -0.75470957328743171 forward_v I I I I #
coedge $-1 $281 $282 $283 $284 reversed $111 $-1 #
coedge $-1 $181 $113 $285 $286 reversed $71 $-1 #
coedge $-1 $113 $180 $281 $287 reversed $71 $-1 #
coedge $-1 $283 $288 $113 $183 forward $289 $-1 #
edge $-1 $290 25.228919656770625 $291 29.637452993824123 $182 $292 forward 7 unknown #
loop $-1 $-1 $189 $114 #
plane-surface $-1 40.499026417163265 -27.547654263230172 2.555460370684898 0 -0.6560590369687036 0.75470957328743171 1 0 0 forward_v I I I I #
loop $-1 $-1 $293 $73 #
coedge $-1 $187 $187 $188 $294 reversed $115 $-1 #
coedge $-1 $188 $188 $187 $294 forward $117 $-1 #
coedge $-1 $189 $189 $118 $190 forward $184 $-1 #
edge $-1 $295 -3.5047710980055092e-016 $295 6.2831853071796004 $189 $296 forward 7 unknown #
loop $-1 $-1 $196 $119 #
plane-surface $-1 40.499026417163265 -27.547654263230172 2.555460370684898 0 -0.6560590369687036 0.75470957328743171 1 0 0 forward_v I I I I #
loop $-1 $-1 $297 $76 #
coedge $-1 $194 $194 $195 $298 reversed $120 $-1 #
coedge $-1 $195 $195 $194 $298 forward $122 $-1 #
coedge $-1 $196 $196 $123 $197 forward $191 $-1 #
edge $-1 $299 -3.5047710980055092e-016 $299 6.2831853071796004 $196 $300 forward 7 unknown #
face $-1 $301 $302 $41 $-1 $303 reversed single #
loop $-1 $-1 $304 $124 #
plane-surface $-1 59.450056459242532 0 0 -1 0 0 0 0 1 forward_v I I I I #
coedge $-1 $305 $306 $307 $308 reversed $125 $-1 #
coedge $-1 $203 $127 $309 $310 reversed $80 $-1 #
coedge $-1 $127 $202 $305 $311 reversed $80 $-1 #
coedge $-1 $307 $312 $127 $205 forward $313 $-1 #
edge $-1 $314 11.973196845169515 $315 15.63539421529515 $204 $316 forward 7 unknown #
loop $-1 $-1 $211 $128 #
plane-surface $-1 51.939472257842993 -9.3183024318859538 43.264251579136399 0 0.74314483375859142 0.66913059716165679 1 0 0 forward_v I I I I #
loop $-1 $-1 $317 $82 #
coedge $-1 $209 $209 $210 $318 reversed $129 $-1 #
coedge $-1 $210 $210 $209 $318 forward $131 $-1 #
coedge $-1 $211 $211 $132 $212 forward $206 $-1 #
edge $-1 $319 1.8513266438723532e-015 $319 6.2831853071796022 $211 $320 forward 7 unknown #
loop $-1 $-1 $218 $133 #
plane-surface $-1 51.939472257842993 -9.3183024318859538 43.264251579136399 0 0.74314483375859142 0.66913059716165679 1 0 0 forward_v I I I I #
loop $-1 $-1 $321 $85 #
coedge $-1 $216 $216 $217 $322 reversed $134 $-1 #
coedge $-1 $217 $217 $216 $322 forward $136 $-1 #
coedge $-1 $218 $218 $137 $219 forward $213 $-1 #
edge $-1 $323 1.8513266438723532e-015 $323 6.2831853071796022 $218 $324 forward 7 unknown #
face $-1 $325 $326 $33 $-1 $327 reversed single #
loop $-1 $-1 $328 $138 #
plane-surface $-1 -59.450056459242532 0 0 1 0 0 0 0 -1 forward_v I I I I #
coedge $-1 $329 $231 $330 $331 forward $139 $-1 #
coedge $-1 $332 $141 $329 $333 forward $89 $-1 #
coedge $-1 $141 $332 $334 $335 forward $89 $-1 #
coedge $-1 $234 $233 $141 $227 reversed $235 $-1 #
edge $-1 $336 -27.547654263230175 $337 27.547654263230175 $226 $338 forward 7 unknown #
coedge $-1 $143 $142 $339 $340 forward $56 $-1 #
coedge $-1 $341 $342 $142 $230 reversed $326 $-1 #
edge $-1 $237 -59.450056459242532 $343 59.450056459242532 $229 $344 forward 7 unknown #
coedge $-1 $223 $345 $143 $232 reversed $139 $-1 #
edge $-1 $346 -59.450056459242532 $236 59.450056459242532 $231 $347 forward 7 unknown #
coedge $-1 $226 $144 $345 $348 forward $235 $-1 #
coedge $-1 $144 $226 $341 $349 reversed $235 $-1 #
loop $-1 $-1 $233 $325 #
vertex $-1 $145 $350 #
vertex $-1 $145 $351 #
straight-curve $-1 59.450056459242532 0 6.387740015626175 0 1 0 I I #
face $-1 $352 $353 $34 $-1 $354 reversed single #
loop $-1 $-1 $355 $146 #
plane-surface $-1 -65.276442654274931 0 -4.887740015626175 1 0 0 0 0 -1 forward_v I I I I #
coedge $-1 $356 $149 $357 $358 reversed $93 $-1 #
coedge $-1 $149 $356 $248 $359 reversed $93 $-1 #
edge $-1 $250 3.387740015626175 $360 6.387740015626175 $149 $361 forward 7 unknown #
coedge $-1 $151 $150 $362 $363 reversed $59 $-1 #
coedge $-1 $364 $365 $150 $247 forward $366 $-1 #
edge $-1 $367 -6.387740015626175 $251 -3.387740015626175 $246 $368 forward 7 unknown #
coedge $-1 $369 $152 $243 $359 forward $147 $-1 #
coedge $-1 $152 $369 $364 $370 forward $147 $-1 #
vertex $-1 $244 $371 #
vertex $-1 $370 $372 #
straight-curve $-1 -59.450056459242532 0 -3.387740015626175 0 -1 0 I I #
face $-1 $-1 $265 $35 $-1 $373 forward single #
loop $-1 $-1 $374 $154 #
plane-surface $-1 0 -27.547654263230175 0 0 1 0 0 0 1 forward_v I I I I #
coedge $-1 $375 $376 $377 $378 reversed $155 $-1 #
coedge $-1 $379 $157 $159 $263 forward $97 $-1 #
coedge $-1 $157 $379 $375 $380 forward $97 $-1 #
coedge $-1 $377 $160 $157 $260 forward $265 $-1 #
edge $-1 $267 6.814100173873026 $381 27.858540048257858 $259 $382 forward 7 unknown #
coedge $-1 $383 $384 $158 $262 forward $254 $-1 #
edge $-1 $385 -43.589796556926203 $266 -39.757516911984922 $261 $386 forward 7 unknown #
edge $-1 $267 -5.8413640068859998 $385 4.72070819993692e-015 $159 $387 forward 7 unknown #
coedge $-1 $160 $377 $383 $388 forward $265 $-1 #
loop $-1 $-1 $377 $253 #
vertex $-1 $262 $389 #
vertex $-1 $161 $390 #
straight-curve $-1 -24.150420284938466 -52.7765739200008 6.3877400156261785 0 1 0 I I #
coedge $-1 $269 $269 $-1 $391 reversed $164 $-1 #
edge $-1 $392 0 $392 6.2831853071796004 $165 $393 forward 7 unknown #
vertex $-1 $168 $394 #
ellipse-curve $-1 -39.182163052356202 -25.343387594703426 4.4716001931555356 0 -0.6560590369687036 0.75470957328743171 1 0 0 1 I I #
coedge $-1 $273 $273 $-1 $395 reversed $171 $-1 #
edge $-1 $396 0 $396 6.2831853071796004 $172 $397 forward 7 unknown #
vertex $-1 $175 $398 #
ellipse-curve $-1 -30.163117391905558 -25.343387594703426 4.4716001931555356 0 -0.6560590369687036 0.75470957328743171 1 0 0 1 I I #
face $-1 $-1 $289 $38 $-1 $399 forward single #
loop $-1 $-1 $400 $176 #
plane-surface $-1 0 -27.547654263230175 0 0 1 0 0 0 1 forward_v I I I I #
coedge $-1 $401 $402 $403 $404 reversed $177 $-1 #
coedge $-1 $405 $179 $181 $287 forward $111 $-1 #
coedge $-1 $179 $405 $401 $406 forward $111 $-1 #
coedge $-1 $403 $182 $179 $284 forward $289 $-1 #
edge $-1 $291 -30.77173314577405 $407 -9.7272932713892182 $283 $408 forward 7 unknown #
coedge $-1 $409 $410 $180 $286 forward $278 $-1 #
edge $-1 $411 -43.589796556926203 $290 -39.757516911984922 $285 $412 forward 7 unknown #
edge $-1 $291 -5.8413640068859998 $411 4.72070819993692e-015 $181 $413 forward 7 unknown #
coedge $-1 $182 $403 $409 $414 forward $289 $-1 #
loop $-1 $-1 $403 $277 #
vertex $-1 $286 $415 #
vertex $-1 $183 $416 #
straight-curve $-1 51.021246354355682 -52.7765739200008 6.3877400156261785 0 1 0 I I #
coedge $-1 $293 $293 $-1 $417 reversed $186 $-1 #
edge $-1 $418 0 $418 6.2831853071796004 $187 $419 forward 7 unknown #
vertex $-1 $190 $420 #
ellipse-curve $-1 35.989503586937943 -25.343387594703426 4.4716001931555356 0 -0.6560590369687036 0.75470957328743171 1 0 0 1 I I #
coedge $-1 $297 $297 $-1 $421 reversed $193 $-1 #
edge $-1 $422 0 $422 6.2831853071796004 $194 $423 forward 7 unknown #
vertex $-1 $197 $424 #
ellipse-curve $-1 45.008549247388586 -25.343387594703426 4.4716001931555356 0 -0.6560590369687036 0.75470957328743171 1 0 0 1 I I #
face $-1 $-1 $313 $41 $-1 $425 forward single #
loop $-1 $-1 $426 $198 #
plane-surface $-1 0 27.547654263230175 0 0 -1 0 0 0 -1 forward_v I I I I #
coedge $-1 $427 $428 $306 $429 forward $199 $-1 #
coedge $-1 $430 $201 $203 $311 forward $125 $-1 #
coedge $-1 $201 $430 $304 $429 reversed $125 $-1 #
coedge $-1 $431 $204 $201 $308 forward $313 $-1 #
edge $-1 $315 18.459151927521958 $432 33.480320330321035 $307 $433 forward 7 unknown #
coedge $-1 $434 $426 $202 $310 forward $302 $-1 #
edge $-1 $435 -59.091519886073634 $314 -55.024237553809186 $309 $436 forward 7 unknown #
edge $-1 $315 49.622240360604394 $435 55.095308526460329 $203 $437 forward 7 unknown #
coedge $-1 $204 $431 $434 $438 forward $313 $-1 #
loop $-1 $-1 $307 $301 #
vertex $-1 $310 $439 #
vertex $-1 $205 $440 #
straight-curve $-1 44.428888056443455 39.52085110839969 6.3877400156261785 0 -1 0 I I #
coedge $-1 $317 $317 $-1 $441 reversed $208 $-1 #
edge $-1 $442 0 $442 6.2831853071796004 $209 $443 forward 7 unknown #
vertex $-1 $212 $444 #
ellipse-curve $-1 48.720650457243195 25.716555578167359 4.3540988494939459 0 0.74314483375859142 0.66913059716165679 1 0 0 1 I I #
coedge $-1 $321 $321 $-1 $445 reversed $215 $-1 #
edge $-1 $446 0 $446 6.2831853071796004 $216 $447 forward 7 unknown #
vertex $-1 $219 $448 #
ellipse-curve $-1 55.158294058442792 25.716555578167359 4.3540988494939459 0 0.74314483375859142 0.66913059716165679 1 0 0 1 I I #
face $-1 $-1 $235 $33 $-1 $449 reversed single #
loop $-1 $-1 $341 $220 #
plane-surface $-1 0 27.547654263230175 0 0 -1 0 0 0 -1 forward_v I I I I #
coedge $-1 $450 $339 $342 $451 forward $221 $-1 #
coedge $-1 $345 $223 $224 $333 reversed $139 $-1 #
coedge $-1 $339 $450 $223 $331 reversed $221 $-1 #
edge $-1 $346 -6.387740015626175 $452 6.387740015626175 $330 $453 forward 7 unknown #
coedge $-1 $225 $224 $450 $454 forward $89 $-1 #
edge $-1 $337 -59.450056459242532 $452 59.450056459242532 $329 $455 forward 7 unknown #
coedge $-1 $342 $341 $225 $335 reversed $326 $-1 #
edge $-1 $456 -59.450056459242532 $336 59.450056459242532 $334 $457 forward 7 unknown #
vertex $-1 $227 $458 #
vertex $-1 $348 $459 #
straight-curve $-1 59.450056459242532 0 -6.387740015626175 0 -1 0 I I #
coedge $-1 $328 $330 $228 $340 reversed $221 $-1 #
edge $-1 $343 -27.547654263230175 $346 27.547654263230175 $339 $460 forward 7 unknown #
coedge $-1 $334 $229 $234 $349 forward $326 $-1 #
coedge $-1 $229 $334 $328 $451 reversed $326 $-1 #
vertex $-1 $230 $461 #
straight-curve $-1 0 27.547654263230175 6.387740015626175 -1 0 0 I I #
coedge $-1 $231 $329 $233 $348 reversed $139 $-1 #
vertex $-1 $340 $462 #
straight-curve $-1 0 -27.547654263230175 6.387740015626175 1 0 0 I I #
edge $-1 $236 -6.387740015626175 $337 6.387740015626175 $233 $463 forward 7 unknown #
edge $-1 $237 -6.387740015626175 $336 6.387740015626175 $234 $464 forward 7 unknown #
point $-1 59.450056459242532 -27.547654263230175 6.387740015626175 #
point $-1 59.450056459242532 27.547654263230175 6.387740015626175 #
face $-1 $-1 $366 $34 $-1 $465 reversed single #
loop $-1 $-1 $362 $239 #
plane-surface $-1 0 0 -6.387740015626175 0 0 1 1 0 0 forward_v I I I I #
coedge $-1 $466 $467 $356 $468 forward $240 $-1 #
coedge $-1 $243 $242 $355 $468 reversed $93 $-1 #
coedge $-1 $362 $469 $242 $358 forward $353 $-1 #
edge $-1 $470 -65.276442654274931 $360 -59.450056459242532 $242 $471 forward 7 unknown #
edge $-1 $250 -2.9131930975161993 $472 2.9131930975161993 $243 $473 forward 7 unknown #
vertex $-1 $244 $474 #
straight-curve $-1 -59.450056459242532 27.547654263230175 0 0 0 -1 I I #
coedge $-1 $475 $357 $245 $363 forward $353 $-1 #
edge $-1 $360 -27.547654263230175 $367 27.547654263230175 $362 $476 forward 7 unknown #
coedge $-1 $477 $246 $249 $370 reversed $366 $-1 #
coedge $-1 $246 $477 $475 $478 reversed $366 $-1 #
loop $-1 $-1 $246 $352 #
vertex $-1 $478 $479 #
straight-curve $-1 -59.450056459242532 -27.547654263230175 0 0 0 1 I I #
coedge $-1 $249 $248 $467 $480 forward $147 $-1 #
edge $-1 $481 -2.9131930975161993 $251 2.9131930975161993 $364 $482 forward 7 unknown #
point $-1 -59.450056459242532 27.547654263230175 -3.387740015626175 #
point $-1 -59.450056459242532 -27.547654263230175 -3.387740015626175 #
plane-surface $-1 0 0 6.387740015626175 0 0 1 1 0 0 forward_v I I I I #
coedge $-1 $384 $383 $376 $483 forward $254 $-1 #
coedge $-1 $376 $256 $258 $380 reversed $155 $-1 #
coedge $-1 $256 $375 $374 $483 reversed $155 $-1 #
coedge $-1 $264 $259 $256 $378 forward $265 $-1 #
edge $-1 $381 -29.637452993824123 $484 -25.228919656770625 $377 $485 forward 7 unknown #
coedge $-1 $258 $257 $384 $486 reversed $97 $-1 #
edge $-1 $487 -4.72070819993692e-015 $381 5.8413640068859998 $375 $488 forward 7 unknown #
vertex $-1 $260 $489 #
straight-curve $-1 -17.33632011106544 -23.139120926176677 6.387740015626175 -1 0 0 I I #
coedge $-1 $374 $261 $264 $388 reversed $254 $-1 #
coedge $-1 $261 $374 $379 $486 forward $254 $-1 #
vertex $-1 $262 $490 #
straight-curve $-1 -24.150420284938466 -27.547654263230172 46.145256927611101 0 0 1 I I #
straight-curve $-1 -24.150420284938466 -27.547654263230172 2.555460370684898 0 -0.75470957328743171 -0.6560590369687036 I I #
edge $-1 $484 -45.194860159323298 $266 -24.150420284938466 $383 $491 forward 7 unknown #
point $-1 -24.150420284938466 -27.547654263230175 6.387740015626175 #
point $-1 -24.150420284938466 -23.139120926176677 6.387740015626175 #
edge $-1 $492 1 $492 0 $269 $-1 forward 7 unknown #
vertex $-1 $270 $493 #
ellipse-curve $-1 -39.182163052356202 -24.045525144848842 2.9785802658006428 0 -0.6560590369687036 0.75470957328743171 1 0 0 1 I I #
point $-1 -38.182163052356202 -25.343387594703429 4.4716001931555391 #
edge $-1 $494 1 $494 0 $273 $-1 forward 7 unknown #
vertex $-1 $274 $495 #
ellipse-curve $-1 -30.163117391905558 -24.045525144848842 2.9785802658006428 0 -0.6560590369687036 0.75470957328743171 1 0 0 1 I I #
point $-1 -29.163117391905558 -25.343387594703429 4.4716001931555391 #
plane-surface $-1 0 0 6.387740015626175 0 0 1 1 0 0 forward_v I I I I #
coedge $-1 $410 $409 $402 $496 forward $278 $-1 #
coedge $-1 $402 $280 $282 $406 reversed $177 $-1 #
coedge $-1 $280 $401 $400 $496 reversed $177 $-1 #
coedge $-1 $288 $283 $280 $404 forward $289 $-1 #
edge $-1 $407 -29.637452993824123 $497 -25.228919656770625 $403 $498 forward 7 unknown #
coedge $-1 $282 $281 $410 $499 reversed $111 $-1 #
edge $-1 $500 -4.72070819993692e-015 $407 5.8413640068859998 $401 $501 forward 7 unknown #
vertex $-1 $284 $502 #
straight-curve $-1 20.249513208581632 -23.139120926176677 6.387740015626175 -1 0 0 I I #
coedge $-1 $400 $285 $288 $414 reversed $278 $-1 #
coedge $-1 $285 $400 $405 $499 forward $278 $-1 #
vertex $-1 $286 $503 #
straight-curve $-1 51.021246354355682 -27.547654263230172 46.145256927611101 0 0 1 I I #
straight-curve $-1 51.021246354355682 -27.547654263230172 2.555460370684898 0 -0.75470957328743171 -0.6560590369687036 I I #
edge $-1 $497 29.97680647997085 $290 51.021246354355682 $409 $504 forward 7 unknown #
point $-1 51.021246354355682 -27.547654263230175 6.387740015626175 #
point $-1 51.021246354355682 -23.139120926176677 6.387740015626175 #
edge $-1 $505 1 $505 0 $293 $-1 forward 7 unknown #
vertex $-1 $294 $506 #
ellipse-curve $-1 35.989503586937943 -24.045525144848842 2.9785802658006428 0 -0.6560590369687036 0.75470957328743171 1 0 0 1 I I #
point $-1 36.989503586937943 -25.343387594703429 4.4716001931555391 #
edge $-1 $507 1 $507 0 $297 $-1 forward 7 unknown #
vertex $-1 $298 $508 #
ellipse-curve $-1 45.008549247388586 -24.045525144848842 2.9785802658006428 0 -0.6560590369687036 0.75470957328743171 1 0 0 1 I I #
point $-1 46.008549247388586 -25.343387594703429 4.4716001931555391 #
plane-surface $-1 0 0 6.387740015626175 0 0 1 1 0 0 forward_v I I I I #
coedge $-1 $309 $509 $430 $510 forward $302 $-1 #
coedge $-1 $428 $304 $509 $511 reversed $199 $-1 #
coedge $-1 $304 $427 $431 $512 reversed $199 $-1 #
edge $-1 $432 30.428857201480415 $513 35.901925367336347 $304 $514 forward 7 unknown #
coedge $-1 $306 $305 $426 $510 reversed $125 $-1 #
coedge $-1 $312 $307 $428 $512 forward $313 $-1 #
vertex $-1 $512 $515 #
straight-curve $-1 25.969736128921497 23.885456893104532 6.387740015626175 1 0 0 I I #
coedge $-1 $509 $309 $312 $438 reversed $302 $-1 #
vertex $-1 $310 $516 #
straight-curve $-1 44.428888056443455 27.547654263230175 61.411977569435365 0 0 1 I I #
straight-curve $-1 44.428888056443455 -9.3183024318859538 43.264251579136399 0 0.66913059716165679 -0.74314483375859142 I I #
edge $-1 $517 -59.450056459242532 $314 -44.428888056443455 $434 $518 forward 7 unknown #
point $-1 44.428888056443455 27.547654263230175 6.387740015626175 #
point $-1 44.428888056443455 23.885456893104539 6.3877400156261785 #
edge $-1 $519 1 $519 0 $317 $-1 forward 7 unknown #
vertex $-1 $318 $520 #
ellipse-curve $-1 48.720650457243195 23.629572100813153 2.4749705328700435 0 0.74314483375859142 0.66913059716165679 1 0 0 1 I I #
point $-1 49.720650457243195 25.71655557816737 4.354098849493953 #
edge $-1 $521 1 $521 0 $321 $-1 forward 7 unknown #
vertex $-1 $322 $522 #
ellipse-curve $-1 55.158294058442792 23.629572100813153 2.4749705328700435 0 0.74314483375859142 0.66913059716165679 1 0 0 1 I I #
point $-1 56.158294058442792 25.71655557816737 4.354098849493953 #
plane-surface $-1 59.450056459242532 0 0 -1 0 0 0 0 1 forward_v I I I I #
coedge $-1 $330 $328 $332 $454 reversed $221 $-1 #
edge $-1 $343 -6.387740015626175 $456 6.387740015626175 $342 $523 forward 7 unknown #
vertex $-1 $454 $524 #
straight-curve $-1 -59.450056459242532 -27.547654263230175 0 0 0 -1 I I #
edge $-1 $452 -27.547654263230175 $456 27.547654263230175 $450 $525 forward 7 unknown #
straight-curve $-1 0 -27.547654263230175 -6.387740015626175 -1 0 0 I I #
vertex $-1 $335 $526 #
straight-curve $-1 0 27.547654263230175 -6.387740015626175 1 0 0 I I #
point $-1 59.450056459242532 27.547654263230175 -6.387740015626175 #
point $-1 59.450056459242532 -27.547654263230175 -6.387740015626175 #
straight-curve $-1 -59.450056459242532 0 6.387740015626175 0 -1 0 I I #
point $-1 -59.450056459242532 27.547654263230175 6.387740015626175 #
point $-1 -59.450056459242532 -27.547654263230175 6.387740015626175 #
straight-curve $-1 59.450056459242532 -27.547654263230175 0 0 0 -1 I I #
straight-curve $-1 59.450056459242532 27.547654263230175 0 0 0 -1 I I #
plane-surface $-1 0 -27.547654263230175 0 0 1 0 0 0 1 forward_v I I I I #
coedge $-1 $527 $355 $469 $528 reversed $240 $-1 #
coedge $-1 $355 $527 $369 $480 reversed $240 $-1 #
edge $-1 $472 -1.5 $470 1.5 $356 $529 forward 7 unknown #
coedge $-1 $357 $475 $466 $528 forward $353 $-1 #
vertex $-1 $358 $530 #
straight-curve $-1 0 27.547654263230175 -6.387740015626175 1 0 0 I I #
vertex $-1 $359 $531 #
straight-curve $-1 -62.363249556758731 27.547654263230175 -3.387740015626175 -1 0 0 I I #
point $-1 -59.450056459242532 27.547654263230175 -6.387740015626175 #
coedge $-1 $469 $362 $365 $478 forward $353 $-1 #
straight-curve $-1 -59.450056459242532 0 -6.387740015626175 0 -1 0 I I #
coedge $-1 $365 $364 $527 $532 forward $366 $-1 #
edge $-1 $367 -2.9131930975161993 $533 2.9131930975161993 $365 $534 forward 7 unknown #
point $-1 -59.450056459242532 -27.547654263230175 -6.387740015626175 #
edge $-1 $472 -27.547654263230175 $481 27.547654263230175 $467 $535 forward 7 unknown #
vertex $-1 $480 $536 #
straight-curve $-1 -62.363249556758731 -27.547654263230175 -3.387740015626175 1 0 0 I I #
edge $-1 $484 39.757516911984922 $487 43.589796556926203 $374 $537 forward 7 unknown #
vertex $-1 $388 $538 #
straight-curve $-1 -45.194860159323298 -52.7765739200008 6.3877400156261785 0 -1 0 I I #
edge $-1 $487 -27.858540048257858 $385 -6.814100173873026 $384 $539 forward 7 unknown #
vertex $-1 $486 $540 #
straight-curve $-1 -45.194860159323298 -27.547654263230172 2.555460370684898 0 0.75470957328743171 0.6560590369687036 I I #
point $-1 -45.194860159323298 -23.139120926176677 6.387740015626175 #
point $-1 -24.150420284938466 -27.547654263230175 2.5554603706848948 #
straight-curve $-1 0 -27.547654263230175 6.387740015626175 1 0 0 I I #
vertex $-1 $391 $541 #
point $-1 -38.182163052356202 -24.045525144848842 2.9785802658006428 #
vertex $-1 $395 $542 #
point $-1 -29.163117391905558 -24.045525144848842 2.9785802658006428 #
edge $-1 $497 39.757516911984922 $500 43.589796556926203 $400 $543 forward 7 unknown #
vertex $-1 $414 $544 #
straight-curve $-1 29.97680647997085 -52.7765739200008 6.3877400156261785 0 -1 0 I I #
edge $-1 $500 9.7272932713892182 $411 30.77173314577405 $410 $545 forward 7 unknown #
vertex $-1 $499 $546 #
straight-curve $-1 29.97680647997085 -27.547654263230172 2.555460370684898 0 0.75470957328743171 0.6560590369687036 I I #
point $-1 29.97680647997085 -23.139120926176677 6.387740015626175 #
point $-1 51.021246354355682 -27.547654263230175 2.5554603706848948 #
straight-curve $-1 0 -27.547654263230175 6.387740015626175 1 0 0 I I #
vertex $-1 $417 $547 #
point $-1 36.989503586937943 -24.045525144848842 2.9785802658006428 #
vertex $-1 $421 $548 #
point $-1 46.008549247388586 -24.045525144848842 2.9785802658006428 #
coedge $-1 $426 $434 $427 $511 forward $302 $-1 #
edge $-1 $513 -33.480320330321035 $435 -18.459151927521958 $426 $549 forward 7 unknown #
edge $-1 $517 -6.387740015626175 $513 -2.320457683361731 $427 $550 forward 7 unknown #
edge $-1 $432 23.885456893104539 $517 27.547654263230175 $428 $551 forward 7 unknown #
vertex $-1 $429 $552 #
straight-curve $-1 59.450056459242532 3.5245775029311623 29.000788042084256 0 0.66913059716165679 -0.74314483375859142 I I #
point $-1 59.450056459242532 23.885456893104539 6.3877400156261785 #
point $-1 44.428888056443455 27.547654263230172 2.320457683361731 #
vertex $-1 $512 $553 #
straight-curve $-1 0 27.547654263230175 6.387740015626175 -1 0 0 I I #
vertex $-1 $441 $554 #
point $-1 49.720650457243195 23.629572100813153 2.4749705328700435 #
vertex $-1 $445 $555 #
point $-1 56.158294058442792 23.629572100813153 2.4749705328700435 #
straight-curve $-1 -59.450056459242532 27.547654263230175 0 0 0 -1 I I #
point $-1 -59.450056459242532 -27.547654263230175 -6.387740015626175 #
straight-curve $-1 -59.450056459242532 0 -6.387740015626175 0 1 0 I I #
point $-1 -59.450056459242532 27.547654263230175 -6.387740015626175 #
coedge $-1 $467 $466 $477 $532 reversed $240 $-1 #
edge $-1 $533 -27.547654263230175 $470 27.547654263230175 $466 $556 forward 7 unknown #
straight-curve $-1 -65.276442654274931 27.547654263230175 -4.887740015626175 0 0 -1 I I #
point $-1 -65.276442654274931 27.547654263230175 -6.387740015626175 #
point $-1 -65.276442654274931 27.547654263230175 -3.387740015626175 #
edge $-1 $481 -1.5 $533 1.5 $527 $557 forward 7 unknown #
vertex $-1 $528 $558 #
straight-curve $-1 -62.363249556758731 -27.547654263230175 -6.387740015626175 -1 0 0 I I #
straight-curve $-1 -65.276442654274931 0 -3.387740015626175 0 -1 0 I I #
point $-1 -65.276442654274931 -27.547654263230175 -3.387740015626175 #
straight-curve $-1 -45.194860159323298 -27.547654263230172 46.145256927611101 0 0 -1 I I #
point $-1 -45.194860159323298 -27.547654263230175 6.387740015626175 #
straight-curve $-1 -17.33632011106544 -27.547654263230175 2.5554603706848944 1 0 0 I I #
point $-1 -45.194860159323298 -27.547654263230175 2.5554603706848948 #
point $-1 -39.182163052356202 -23.389466107880136 2.223870692513211 #
point $-1 -30.163117391905558 -23.389466107880136 2.223870692513211 #
straight-curve $-1 29.97680647997085 -27.547654263230172 46.145256927611101 0 0 -1 I I #
point $-1 29.97680647997085 -27.547654263230175 6.387740015626175 #
straight-curve $-1 20.249513208581632 -27.547654263230175 2.5554603706848944 1 0 0 I I #
point $-1 29.97680647997085 -27.547654263230175 2.5554603706848948 #
point $-1 35.989503586937943 -23.389466107880136 2.223870692513211 #
point $-1 45.008549247388586 -23.389466107880136 2.223870692513211 #
straight-curve $-1 25.969736128921497 27.547654263230179 2.3204576833617239 -1 0 0 I I #
straight-curve $-1 59.450056459242532 27.547654263230175 0 0 0 -1 I I #
straight-curve $-1 59.450056459242532 0 6.387740015626175 0 1 0 I I #
point $-1 59.450056459242532 27.547654263230172 2.320457683361731 #
point $-1 59.450056459242532 27.547654263230175 6.387740015626175 #
point $-1 48.720650457243195 22.886427267054561 1.8058399357083865 #
point $-1 55.158294058442792 22.886427267054561 1.8058399357083865 #
straight-curve $-1 -65.276442654274931 0 -6.387740015626175 0 1 0 I I #
straight-curve $-1 -65.276442654274931 -27.547654263230175 -4.887740015626175 0 0 -1 I I #
point $-1 -65.276442654274931 -27.547654263230175 -6.387740015626175 #
End-of-ACIS-data 