500 0 10 0           
7 Unknown 11 ACIS 5.0 NT 24 Thu Mar 25 23:55:48 1999 
-1 9.9999999999999995e-007 1e-010 
body $-1 $10 $-1 $11 #
body $-1 $12 $-1 $13 #
body $-1 $14 $-1 $15 #
body $-1 $16 $-1 $17 #
body $-1 $18 $-1 $19 #
body $-1 $20 $-1 $21 #
body $-1 $22 $-1 $23 #
body $-1 $24 $-1 $25 #
body $-1 $26 $-1 $27 #
body $-1 $28 $-1 $29 #
lump $-1 $-1 $30 $0 #
transform $-1 1 0 0 0 1 0 0 0 1 67.962279122287669 45.309292272170126 18.16616801128071 1 rotate no_reflect no_shear #
lump $-1 $-1 $31 $1 #
transform $-1 1 0 0 0 1 0 0 0 1 67.962279122287669 45.309292272170126 18.16616801128071 1 rotate no_reflect no_shear #
lump $-1 $-1 $32 $2 #
transform $-1 1 0 0 0 1 0 0 0 1 67.962279122287669 45.309292272170126 18.16616801128071 1 rotate no_reflect no_shear #
lump $-1 $-1 $33 $3 #
transform $-1 1 0 0 0 1 0 0 0 1 67.962279122287669 45.309292272170126 18.16616801128071 1 rotate no_reflect no_shear #
lump $-1 $-1 $34 $4 #
transform $-1 1 0 0 0 1 0 0 0 1 67.962279122287669 45.309292272170126 18.16616801128071 1 rotate no_reflect no_shear #
lump $-1 $-1 $35 $5 #
transform $-1 1 0 0 0 1 0 0 0 1 67.962279122287669 45.309292272170126 18.16616801128071 1 rotate no_reflect no_shear #
lump $-1 $-1 $36 $6 #
transform $-1 1 0 0 0 1 0 0 0 1 67.962279122287669 45.309292272170126 18.16616801128071 1 rotate no_reflect no_shear #
lump $-1 $-1 $37 $7 #
transform $-1 1 0 0 0 1 0 0 0 1 67.962279122287669 45.309292272170126 18.16616801128071 1 rotate no_reflect no_shear #
lump $-1 $-1 $38 $8 #
transform $-1 1 0 0 0 1 0 0 0 1 67.962279122287669 45.309292272170126 18.16616801128071 1 rotate no_reflect no_shear #
lump $-1 $-1 $39 $9 #
transform $-1 1 0 0 0 1 0 0 0 1 67.962279122287669 45.309292272170126 18.16616801128071 1 rotate no_reflect no_shear #
shell $-1 $-1 $-1 $40 $-1 $10 #
shell $-1 $-1 $-1 $41 $-1 $12 #
shell $-1 $-1 $-1 $42 $-1 $14 #
shell $-1 $-1 $-1 $43 $-1 $16 #
shell $-1 $-1 $-1 $44 $-1 $18 #
shell $-1 $-1 $-1 $45 $-1 $20 #
shell $-1 $-1 $-1 $46 $-1 $22 #
shell $-1 $-1 $-1 $47 $-1 $24 #
shell $-1 $-1 $-1 $48 $-1 $26 #
shell $-1 $-1 $-1 $49 $-1 $28 #
face $-1 $50 $51 $30 $-1 $52 forward single #
face $-1 $53 $54 $31 $-1 $55 forward single #
face $-1 $56 $57 $32 $-1 $58 reversed single #
face $-1 $59 $60 $33 $-1 $61 forward single #
face $-1 $62 $63 $34 $-1 $64 forward single #
face $-1 $65 $66 $35 $-1 $67 forward single #
face $-1 $68 $69 $36 $-1 $70 reversed single #
face $-1 $71 $72 $37 $-1 $73 forward single #
face $-1 $74 $75 $38 $-1 $76 forward single #
face $-1 $77 $78 $39 $-1 $79 forward single #
face $-1 $80 $81 $30 $-1 $82 reversed single #
loop $-1 $-1 $83 $40 #
plane-surface $-1 0 0 18.16616801128071 0 0 1 1 0 0 forward_v I I I I #
face $-1 $84 $85 $31 $-1 $86 reversed single #
loop $-1 $-1 $87 $41 #
plane-surface $-1 0 -45.309292272170126 0 0 1 0 0 0 1 forward_v I I I I #
face $-1 $88 $89 $32 $-1 $90 reversed single #
loop $-1 $-1 $91 $42 #
plane-surface $-1 -158.91356229340013 -28.925445607652492 107.04856857822307 0 1 0 -0.66913061440640931 0 0.74314481823134659 forward_v I I I I #
face $-1 $92 $93 $33 $-1 $94 forward single #
loop $-1 $95 $96 $43 #
cone-surface $-1 -60.487575550791263 -26.350032377053875 11.280514577507326 0.66913061440640931 0 -0.74314481823134659 0.74314481823134659 0 0.66913061440640931 1 I I 0 1 1 forward I I I I #
face $-1 $97 $98 $34 $-1 $99 forward single #
loop $-1 $100 $101 $44 #
cone-surface $-1 -60.487575550791263 -22.486912531155955 11.280514577507326 0.66913061440640931 0 -0.74314481823134659 0.74314481823134659 0 0.66913061440640931 1 I I 0 1 1 forward I I I I #
face $-1 $102 $103 $35 $-1 $104 forward single #
loop $-1 $105 $106 $45 #
cone-surface $-1 -60.487575550791263 -18.623792685258035 11.280514577507326 0.66913061440640931 0 -0.74314481823134659 0.74314481823134659 0 0.66913061440640931 1 I I 0 1 1 forward I I I I #
face $-1 $107 $108 $36 $-1 $109 reversed single #
loop $-1 $-1 $110 $46 #
plane-surface $-1 54.553248552574118 37.202986671785794 194.4648401633703 0 1 0 0.6560590369687036 0 0.75470957328743171 forward_v I I I I #
face $-1 $111 $112 $37 $-1 $113 forward single #
loop $-1 $114 $115 $47 #
cone-surface $-1 58.742231021382871 38.824247791862661 10.059099233492466 -0.6560590369687036 0 -0.75470957328743171 0.37735478664371586 0 -0.3280295184843518 1 I I 0 1 0.5 forward I I I I #
face $-1 $116 $117 $38 $-1 $118 forward single #
loop $-1 $119 $120 $48 #
cone-surface $-1 58.742231021382871 41.25613947197796 10.059099233492466 -0.6560590369687036 0 -0.75470957328743171 0.37735478664371586 0 -0.3280295184843518 1 I I 0 1 0.5 forward I I I I #
face $-1 $121 $122 $39 $-1 $123 forward single #
loop $-1 $124 $125 $49 #
cone-surface $-1 58.742231021382871 43.688031152093259 10.059099233492466 -0.6560590369687036 0 -0.75470957328743171 0.37735478664371586 0 -0.3280295184843518 1 I I 0 1 0.5 forward I I I I #
face $-1 $126 $127 $30 $-1 $128 reversed single #
loop $-1 $-1 $129 $50 #
plane-surface $-1 0 0 -18.16616801128071 0 0 1 1 0 0 forward_v I I I I #
coedge $-1 $130 $131 $132 $133 forward $51 $-1 #
face $-1 $134 $135 $31 $-1 $136 reversed single #
loop $-1 $-1 $137 $53 #
plane-surface $-1 0 0 -18.16616801128071 0 0 1 1 0 0 forward_v I I I I #
coedge $-1 $138 $139 $140 $141 forward $54 $-1 #
face $-1 $142 $143 $32 $-1 $144 reversed single #
loop $-1 $-1 $145 $56 #
plane-surface $-1 -67.962279122287669 -22.486912531155959 6.0369374483820479 -0.66913061440640931 0 0.74314481823134659 0.74314481823134659 0 0.66913061440640931 forward_v I I I I #
coedge $-1 $146 $147 $148 $149 reversed $57 $-1 #
face $-1 $-1 $150 $33 $-1 $151 forward single #
loop $-1 $152 $153 $59 #
cone-surface $-1 -59.413744154613369 -26.350032377053875 10.087904016067604 0.66913061440640931 0 -0.74314481823134659 0.3715724091156733 0 0.33456530720320465 1 I I -0.70710678118654746 0.70710678118654746 0.5 forward I I I I #
loop $-1 $-1 $154 $43 #
coedge $-1 $96 $96 $155 $156 reversed $60 $-1 #
face $-1 $-1 $157 $34 $-1 $158 forward single #
loop $-1 $159 $160 $62 #
cone-surface $-1 -59.413744154613369 -22.486912531155955 10.087904016067604 0.66913061440640931 0 -0.74314481823134659 0.3715724091156733 0 0.33456530720320465 1 I I -0.70710678118654746 0.70710678118654746 0.5 forward I I I I #
loop $-1 $-1 $161 $44 #
coedge $-1 $101 $101 $162 $163 reversed $63 $-1 #
face $-1 $-1 $164 $35 $-1 $165 forward single #
loop $-1 $166 $167 $65 #
cone-surface $-1 -59.413744154613369 -18.623792685258035 10.087904016067604 0.66913061440640931 0 -0.74314481823134659 0.3715724091156733 0 0.33456530720320465 1 I I -0.70710678118654746 0.70710678118654746 0.5 forward I I I I #
loop $-1 $-1 $168 $45 #
coedge $-1 $106 $106 $169 $170 reversed $66 $-1 #
face $-1 $171 $172 $36 $-1 $173 reversed single #
loop $-1 $-1 $174 $68 #
plane-surface $-1 -34.621286229758439 41.25613947197796 91.881274811324189 0.6560590369687036 0 0.75470957328743171 0.75470957328743171 0 -0.6560590369687036 forward_v I I I I #
coedge $-1 $175 $176 $177 $178 reversed $69 $-1 #
face $-1 $-1 $179 $37 $-1 $180 forward single #
loop $-1 $181 $182 $71 #
cone-surface $-1 58.250186743656343 38.824247791862661 9.4930670535268931 -0.6560590369687036 0 -0.75470957328743171 0.18867739332185793 0 -0.1640147592421759 1 I I -0.70710678118654746 0.70710678118654746 0.25 forward I I I I #
loop $-1 $-1 $183 $47 #
coedge $-1 $115 $115 $184 $185 reversed $72 $-1 #
face $-1 $-1 $186 $38 $-1 $187 forward single #
loop $-1 $188 $189 $74 #
cone-surface $-1 58.250186743656343 41.25613947197796 9.4930670535268931 -0.6560590369687036 0 -0.75470957328743171 0.18867739332185793 0 -0.1640147592421759 1 I I -0.70710678118654746 0.70710678118654746 0.25 forward I I I I #
loop $-1 $-1 $190 $48 #
coedge $-1 $120 $120 $191 $192 reversed $75 $-1 #
face $-1 $-1 $193 $39 $-1 $194 forward single #
loop $-1 $195 $196 $77 #
cone-surface $-1 58.250186743656343 43.688031152093259 9.4930670535268931 -0.6560590369687036 0 -0.75470957328743171 0.18867739332185793 0 -0.1640147592421759 1 I I -0.70710678118654746 0.70710678118654746 0.25 forward I I I I #
loop $-1 $-1 $197 $49 #
coedge $-1 $125 $125 $198 $199 reversed $78 $-1 #
face $-1 $200 $201 $30 $-1 $202 reversed single #
loop $-1 $-1 $203 $80 #
plane-surface $-1 0 -45.309292272170126 0 0 1 0 0 0 1 forward_v I I I I #
coedge $-1 $204 $205 $206 $207 forward $81 $-1 #
coedge $-1 $208 $83 $209 $210 forward $51 $-1 #
coedge $-1 $83 $208 $211 $212 forward $51 $-1 #
coedge $-1 $213 $214 $83 $133 reversed $215 $-1 #
edge $-1 $216 -45.309292272170126 $217 45.309292272170126 $132 $218 forward 7 unknown #
face $-1 $219 $220 $31 $-1 $221 forward single #
loop $-1 $-1 $222 $84 #
plane-surface $-1 67.962279122287669 0 0 -1 0 0 0 0 1 forward_v I I I I #
coedge $-1 $223 $224 $225 $226 forward $85 $-1 #
coedge $-1 $225 $87 $222 $227 reversed $54 $-1 #
coedge $-1 $87 $225 $228 $229 reversed $54 $-1 #
coedge $-1 $230 $231 $87 $141 reversed $220 $-1 #
edge $-1 $232 -67.962279122287669 $233 67.962279122287669 $140 $234 forward 7 unknown #
face $-1 $235 $236 $32 $-1 $237 forward single #
loop $-1 $-1 $238 $88 #
plane-surface $-1 -158.91356229340013 -16.048379454659425 107.04856857822307 0 -1 0 0.66913061440640931 0 -0.74314481823134659 forward_v I I I I #
coedge $-1 $239 $240 $241 $242 reversed $89 $-1 #
coedge $-1 $147 $91 $243 $244 reversed $57 $-1 #
coedge $-1 $91 $146 $239 $245 reversed $57 $-1 #
coedge $-1 $241 $246 $91 $149 forward $236 $-1 #
edge $-1 $247 11.494502024412398 $248 24.96537698945582 $148 $249 forward 7 unknown #
loop $-1 $-1 $155 $92 #
plane-surface $-1 -67.962279122287669 -22.486912531155959 6.0369374483820479 -0.66913061440640931 0 0.74314481823134659 0.74314481823134659 0 0.66913061440640931 forward_v I I I I #
loop $-1 $-1 $250 $59 #
coedge $-1 $153 $153 $154 $251 reversed $93 $-1 #
coedge $-1 $154 $154 $153 $251 forward $95 $-1 #
coedge $-1 $155 $155 $96 $156 forward $150 $-1 #
edge $-1 $252 0 $252 6.2831853071796004 $155 $253 forward 7 unknown #
loop $-1 $-1 $162 $97 #
plane-surface $-1 -67.962279122287669 -22.486912531155959 6.0369374483820479 -0.66913061440640931 0 0.74314481823134659 0.74314481823134659 0 0.66913061440640931 forward_v I I I I #
loop $-1 $-1 $254 $62 #
coedge $-1 $160 $160 $161 $255 reversed $98 $-1 #
coedge $-1 $161 $161 $160 $255 forward $100 $-1 #
coedge $-1 $162 $162 $101 $163 forward $157 $-1 #
edge $-1 $256 0 $256 6.2831853071796004 $162 $257 forward 7 unknown #
loop $-1 $-1 $169 $102 #
plane-surface $-1 -67.962279122287669 -22.486912531155959 6.0369374483820479 -0.66913061440640931 0 0.74314481823134659 0.74314481823134659 0 0.66913061440640931 forward_v I I I I #
loop $-1 $-1 $258 $65 #
coedge $-1 $167 $167 $168 $259 reversed $103 $-1 #
coedge $-1 $168 $168 $167 $259 forward $105 $-1 #
coedge $-1 $169 $169 $106 $170 forward $164 $-1 #
edge $-1 $260 0 $260 6.2831853071796004 $169 $261 forward 7 unknown #
face $-1 $262 $263 $36 $-1 $264 forward single #
loop $-1 $-1 $265 $107 #
plane-surface $-1 0 45.309292272170126 0 0 -1 0 0 0 -1 forward_v I I I I #
coedge $-1 $266 $267 $268 $269 reversed $108 $-1 #
coedge $-1 $176 $110 $270 $271 reversed $69 $-1 #
coedge $-1 $110 $175 $266 $272 reversed $69 $-1 #
coedge $-1 $268 $273 $110 $178 forward $274 $-1 #
edge $-1 $275 79.066252070404431 $276 94.525680052693517 $177 $277 forward 7 unknown #
loop $-1 $-1 $184 $111 #
plane-surface $-1 -34.621286229758439 41.25613947197796 91.881274811324189 0.6560590369687036 0 0.75470957328743171 0.75470957328743171 0 -0.6560590369687036 forward_v I I I I #
loop $-1 $-1 $278 $71 #
coedge $-1 $182 $182 $183 $279 reversed $112 $-1 #
coedge $-1 $183 $183 $182 $279 forward $114 $-1 #
coedge $-1 $184 $184 $115 $185 forward $179 $-1 #
edge $-1 $280 0 $280 6.2831853071796004 $184 $281 forward 7 unknown #
loop $-1 $-1 $191 $116 #
plane-surface $-1 -34.621286229758439 41.25613947197796 91.881274811324189 0.6560590369687036 0 0.75470957328743171 0.75470957328743171 0 -0.6560590369687036 forward_v I I I I #
loop $-1 $-1 $282 $74 #
coedge $-1 $189 $189 $190 $283 reversed $117 $-1 #
coedge $-1 $190 $190 $189 $283 forward $119 $-1 #
coedge $-1 $191 $191 $120 $192 forward $186 $-1 #
edge $-1 $284 0 $284 6.2831853071796004 $191 $285 forward 7 unknown #
loop $-1 $-1 $198 $121 #
plane-surface $-1 -34.621286229758439 41.25613947197796 91.881274811324189 0.6560590369687036 0 0.75470957328743171 0.75470957328743171 0 -0.6560590369687036 forward_v I I I I #
loop $-1 $-1 $286 $77 #
coedge $-1 $196 $196 $197 $287 reversed $122 $-1 #
coedge $-1 $197 $197 $196 $287 forward $124 $-1 #
coedge $-1 $198 $198 $125 $199 forward $193 $-1 #
edge $-1 $288 0 $288 6.2831853071796004 $198 $289 forward 7 unknown #
face $-1 $290 $291 $30 $-1 $292 reversed single #
loop $-1 $-1 $293 $126 #
plane-surface $-1 -67.962279122287669 0 0 1 0 0 0 0 -1 forward_v I I I I #
coedge $-1 $211 $294 $213 $295 reversed $127 $-1 #
coedge $-1 $296 $129 $294 $297 forward $81 $-1 #
coedge $-1 $129 $296 $298 $299 forward $81 $-1 #
coedge $-1 $214 $213 $129 $207 reversed $215 $-1 #
edge $-1 $300 -45.309292272170126 $301 45.309292272170126 $206 $302 forward 7 unknown #
coedge $-1 $131 $130 $303 $304 forward $51 $-1 #
coedge $-1 $305 $306 $130 $210 reversed $291 $-1 #
edge $-1 $217 -67.962279122287669 $307 67.962279122287669 $209 $308 forward 7 unknown #
coedge $-1 $309 $203 $131 $212 reversed $127 $-1 #
edge $-1 $310 -67.962279122287669 $216 67.962279122287669 $211 $311 forward 7 unknown #
coedge $-1 $206 $132 $203 $295 forward $215 $-1 #
coedge $-1 $132 $206 $305 $312 reversed $215 $-1 #
loop $-1 $-1 $213 $290 #
vertex $-1 $133 $313 #
vertex $-1 $133 $314 #
straight-curve $-1 67.962279122287669 0 18.16616801128071 0 1 0 I I #
face $-1 $315 $316 $31 $-1 $317 reversed single #
loop $-1 $-1 $231 $134 #
plane-surface $-1 0 -53.501215604428943 -9.1614213432054044 0 0 1 1 0 0 forward_v I I I I #
coedge $-1 $318 $319 $138 $227 forward $135 $-1 #
coedge $-1 $320 $137 $319 $321 forward $85 $-1 #
coedge $-1 $137 $320 $322 $323 forward $85 $-1 #
coedge $-1 $139 $138 $137 $226 reversed $54 $-1 #
edge $-1 $324 -67.962279122287669 $325 67.962279122287669 $137 $326 forward 7 unknown #
edge $-1 $325 -18.16616801128071 $233 -9.1614213432054044 $222 $327 forward 7 unknown #
coedge $-1 $322 $328 $139 $229 forward $329 $-1 #
edge $-1 $232 9.1614213432054044 $324 18.16616801128071 $228 $330 forward 7 unknown #
coedge $-1 $331 $140 $328 $332 forward $220 $-1 #
coedge $-1 $140 $331 $318 $333 forward $220 $-1 #
vertex $-1 $229 $334 #
vertex $-1 $333 $335 #
straight-curve $-1 0 -45.309292272170126 -9.1614213432054044 1 0 0 I I #
face $-1 $-1 $336 $32 $-1 $337 reversed single #
loop $-1 $-1 $148 $142 #
plane-surface $-1 0 0 18.16616801128071 0 0 1 1 0 0 forward_v I I I I #
coedge $-1 $338 $339 $340 $341 reversed $143 $-1 #
coedge $-1 $342 $145 $147 $245 forward $89 $-1 #
coedge $-1 $145 $342 $338 $343 forward $89 $-1 #
coedge $-1 $340 $148 $145 $242 forward $236 $-1 #
edge $-1 $248 -17.681989342074512 $344 -4.8049231890814461 $241 $345 forward 7 unknown #
coedge $-1 $346 $347 $146 $244 forward $336 $-1 #
edge $-1 $348 -47.487346840729487 $247 -35.358116277830824 $243 $349 forward 7 unknown #
edge $-1 $248 -18.126850426143768 $348 0 $147 $350 forward 7 unknown #
coedge $-1 $148 $340 $346 $351 forward $236 $-1 #
vertex $-1 $244 $352 #
vertex $-1 $149 $353 #
straight-curve $-1 -79.456781146700067 -28.925445607652492 18.16616801128071 1 0 0 I I #
coedge $-1 $250 $250 $-1 $354 reversed $152 $-1 #
edge $-1 $355 0 $355 6.2831853071796004 $153 $356 forward 7 unknown #
vertex $-1 $156 $357 #
ellipse-curve $-1 -61.226841639765958 -26.350032377053875 12.101552729831381 -0.66913061440640931 0 0.74314481823134659 0.74314481823134659 0 0.66913061440640931 1 I I #
coedge $-1 $254 $254 $-1 $358 reversed $159 $-1 #
edge $-1 $359 0 $359 6.2831853071796004 $160 $360 forward 7 unknown #
vertex $-1 $163 $361 #
ellipse-curve $-1 -61.226841639765958 -22.486912531155955 12.101552729831381 -0.66913061440640931 0 0.74314481823134659 0.74314481823134659 0 0.66913061440640931 1 I I #
coedge $-1 $258 $258 $-1 $362 reversed $166 $-1 #
edge $-1 $363 0 $363 6.2831853071796004 $167 $364 forward 7 unknown #
vertex $-1 $170 $365 #
ellipse-curve $-1 -61.226841639765958 -18.623792685258035 12.101552729831381 -0.66913061440640931 0 0.74314481823134659 0.74314481823134659 0 0.66913061440640931 1 I I #
face $-1 $-1 $274 $36 $-1 $366 reversed single #
loop $-1 $-1 $367 $171 #
plane-surface $-1 0 0 18.16616801128071 0 0 1 1 0 0 forward_v I I I I #
coedge $-1 $368 $369 $267 $370 forward $172 $-1 #
coedge $-1 $371 $174 $176 $272 forward $108 $-1 #
coedge $-1 $174 $371 $265 $370 reversed $108 $-1 #
coedge $-1 $372 $177 $174 $269 forward $274 $-1 #
edge $-1 $276 16.574916935796814 $373 24.681222536181146 $268 $374 forward 7 unknown #
coedge $-1 $375 $367 $175 $271 forward $263 $-1 #
edge $-1 $376 22.901617681159699 $275 40.68565484600061 $270 $377 forward 7 unknown #
edge $-1 $276 -135.92455824457534 $376 -112.36047771042283 $176 $378 forward 7 unknown #
coedge $-1 $177 $372 $375 $379 reversed $274 $-1 #
loop $-1 $-1 $268 $262 #
vertex $-1 $379 $380 #
vertex $-1 $178 $381 #
straight-curve $-1 67.962279122287669 37.202986671785794 97.232420081685149 0 0 -1 I I #
coedge $-1 $278 $278 $-1 $382 reversed $181 $-1 #
edge $-1 $383 0 $383 6.2831853071796004 $182 $384 forward 7 unknown #
vertex $-1 $185 $385 #
ellipse-curve $-1 59.07026053986722 38.824247791862661 10.436454020136177 0.6560590369687036 0 0.75470957328743171 0.37735478664371586 0 -0.3280295184843518 1 I I #
coedge $-1 $282 $282 $-1 $386 reversed $188 $-1 #
edge $-1 $387 0 $387 6.2831853071796004 $189 $388 forward 7 unknown #
vertex $-1 $192 $389 #
ellipse-curve $-1 59.07026053986722 41.25613947197796 10.436454020136177 0.6560590369687036 0 0.75470957328743171 0.37735478664371586 0 -0.3280295184843518 1 I I #
coedge $-1 $286 $286 $-1 $390 reversed $195 $-1 #
edge $-1 $391 0 $391 6.2831853071796004 $196 $392 forward 7 unknown #
vertex $-1 $199 $393 #
ellipse-curve $-1 59.07026053986722 43.688031152093259 10.436454020136177 0.6560590369687036 0 0.75470957328743171 0.37735478664371586 0 -0.3280295184843518 1 I I #
face $-1 $-1 $215 $30 $-1 $394 reversed single #
loop $-1 $-1 $305 $200 #
plane-surface $-1 0 45.309292272170126 0 0 -1 0 0 0 -1 forward_v I I I I #
coedge $-1 $395 $303 $306 $396 forward $201 $-1 #
coedge $-1 $203 $309 $204 $297 reversed $127 $-1 #
edge $-1 $216 -18.16616801128071 $301 18.16616801128071 $213 $397 forward 7 unknown #
coedge $-1 $205 $204 $395 $398 forward $81 $-1 #
edge $-1 $301 -67.962279122287669 $399 67.962279122287669 $294 $400 forward 7 unknown #
coedge $-1 $306 $305 $205 $299 reversed $291 $-1 #
edge $-1 $401 -67.962279122287669 $300 67.962279122287669 $298 $402 forward 7 unknown #
vertex $-1 $207 $403 #
vertex $-1 $295 $404 #
straight-curve $-1 67.962279122287669 0 -18.16616801128071 0 -1 0 I I #
coedge $-1 $293 $405 $208 $304 reversed $201 $-1 #
edge $-1 $307 -45.309292272170126 $310 45.309292272170126 $303 $406 forward 7 unknown #
coedge $-1 $298 $209 $214 $312 forward $291 $-1 #
coedge $-1 $209 $298 $293 $396 reversed $291 $-1 #
vertex $-1 $210 $407 #
straight-curve $-1 0 45.309292272170126 18.16616801128071 -1 0 0 I I #
coedge $-1 $294 $211 $405 $408 forward $127 $-1 #
vertex $-1 $304 $409 #
straight-curve $-1 0 -45.309292272170126 18.16616801128071 1 0 0 I I #
edge $-1 $217 -18.16616801128071 $300 18.16616801128071 $214 $410 forward 7 unknown #
point $-1 67.962279122287669 -45.309292272170126 18.16616801128071 #
point $-1 67.962279122287669 45.309292272170126 18.16616801128071 #
face $-1 $-1 $329 $31 $-1 $411 reversed single #
loop $-1 $-1 $412 $219 #
plane-surface $-1 0 -61.69313893668776 -13.663794677243057 0 1 0 0 0 1 forward_v I I I I #
coedge $-1 $413 $222 $231 $333 reversed $135 $-1 #
coedge $-1 $222 $413 $223 $321 reversed $135 $-1 #
coedge $-1 $224 $223 $414 $415 forward $85 $-1 #
edge $-1 $325 45.309292272170126 $416 61.69313893668776 $319 $417 forward 7 unknown #
coedge $-1 $418 $228 $224 $323 reversed $329 $-1 #
edge $-1 $419 -61.69313893668776 $324 -45.309292272170126 $322 $420 forward 7 unknown #
vertex $-1 $229 $421 #
vertex $-1 $321 $422 #
straight-curve $-1 0 -45.309292272170126 -18.16616801128071 1 0 0 I I #
straight-curve $-1 67.962279122287669 -45.309292272170126 0 0 0 1 I I #
coedge $-1 $228 $418 $230 $332 reversed $329 $-1 #
loop $-1 $-1 $228 $315 #
straight-curve $-1 -67.962279122287669 -45.309292272170126 0 0 0 -1 I I #
coedge $-1 $231 $230 $423 $424 forward $220 $-1 #
edge $-1 $232 -8.191923332258817 $425 8.191923332258817 $328 $426 forward 7 unknown #
edge $-1 $427 -8.191923332258817 $233 8.191923332258817 $318 $428 forward 7 unknown #
point $-1 -67.962279122287669 -45.309292272170126 -9.1614213432054044 #
point $-1 67.962279122287669 -45.309292272170126 -9.1614213432054044 #
loop $-1 $-1 $243 $235 #
plane-surface $-1 -67.962279122287669 0 0 1 0 0 0 0 -1 forward_v I I I I #
coedge $-1 $339 $238 $240 $343 reversed $143 $-1 #
coedge $-1 $238 $338 $429 $430 reversed $143 $-1 #
coedge $-1 $246 $241 $238 $341 forward $236 $-1 #
edge $-1 $344 -24.96537698945582 $431 -11.494502024412398 $340 $432 forward 7 unknown #
coedge $-1 $240 $239 $347 $433 reversed $89 $-1 #
edge $-1 $434 0 $344 18.126850426143768 $338 $435 forward 7 unknown #
vertex $-1 $242 $436 #
straight-curve $-1 -54.491404157244254 -11.243456265577979 18.16616801128071 0 1 0 I I #
coedge $-1 $429 $243 $246 $351 reversed $336 $-1 #
coedge $-1 $243 $429 $342 $433 forward $336 $-1 #
vertex $-1 $244 $437 #
straight-curve $-1 -67.962279122287669 -28.925445607652492 53.524284289111534 0 0 1 I I #
straight-curve $-1 -67.962279122287669 -28.925445607652492 6.0369374483820479 -0.74314481823134659 0 -0.66913061440640931 I I #
edge $-1 $431 16.048379454659425 $247 28.925445607652492 $346 $438 forward 7 unknown #
point $-1 -67.962279122287669 -28.925445607652492 18.16616801128071 #
point $-1 -54.491404157244247 -28.925445607652492 18.16616801128071 #
edge $-1 $439 1 $439 0 $250 $-1 forward 7 unknown #
vertex $-1 $251 $440 #
ellipse-curve $-1 -59.748309461816575 -26.350032377053875 10.459476425183277 -0.66913061440640931 0 0.74314481823134659 0.74314481823134659 0 0.66913061440640931 1 I I #
point $-1 -60.483696821534608 -26.350032377053875 12.770683344237785 #
edge $-1 $441 1 $441 0 $254 $-1 forward 7 unknown #
vertex $-1 $255 $442 #
ellipse-curve $-1 -59.748309461816575 -22.486912531155955 10.459476425183277 -0.66913061440640931 0 0.74314481823134659 0.74314481823134659 0 0.66913061440640931 1 I I #
point $-1 -60.483696821534608 -22.486912531155955 12.770683344237785 #
edge $-1 $443 1 $443 0 $258 $-1 forward 7 unknown #
vertex $-1 $259 $444 #
ellipse-curve $-1 -59.748309461816575 -18.623792685258035 10.459476425183277 -0.66913061440640931 0 0.74314481823134659 0.74314481823134659 0 0.66913061440640931 1 I I #
point $-1 -60.483696821534608 -18.623792685258035 12.770683344237785 #
plane-surface $-1 67.962279122287669 0 0 -1 0 0 0 0 1 forward_v I I I I #
coedge $-1 $270 $445 $371 $446 forward $263 $-1 #
coedge $-1 $369 $265 $445 $447 reversed $172 $-1 #
coedge $-1 $265 $368 $372 $448 forward $172 $-1 #
edge $-1 $373 -92.720279831926746 $449 -69.156199297774251 $265 $450 forward 7 unknown #
coedge $-1 $267 $266 $367 $446 reversed $108 $-1 #
coedge $-1 $273 $268 $369 $448 reversed $274 $-1 #
vertex $-1 $370 $451 #
straight-curve $-1 67.962279122287669 20.62806973598898 2.7067400289916321 0 1 0 I I #
coedge $-1 $445 $270 $273 $379 forward $263 $-1 #
vertex $-1 $271 $452 #
straight-curve $-1 27.276624276287059 37.202986671785794 18.166168011280718 1 0 0 I I #
straight-curve $-1 -34.621286229758439 37.202986671785794 91.881274811324189 -0.75470957328743171 0 0.6560590369687036 I I #
edge $-1 $275 37.202986671785794 $453 45.309292272170126 $273 $454 forward 7 unknown #
point $-1 67.962279122287669 37.202986671785794 18.16616801128071 #
point $-1 67.962279122287669 37.202986671785794 2.7067400289916321 #
edge $-1 $455 1 $455 0 $278 $-1 forward 7 unknown #
vertex $-1 $279 $456 #
ellipse-curve $-1 58.414201502898521 38.824247791862661 9.6817444468487501 0.6560590369687036 0 0.75470957328743171 0.37735478664371586 0 -0.3280295184843518 1 I I #
point $-1 59.447615326510942 38.824247791862661 10.108424501651831 #
edge $-1 $457 1 $457 0 $282 $-1 forward 7 unknown #
vertex $-1 $283 $458 #
ellipse-curve $-1 58.414201502898521 41.25613947197796 9.6817444468487501 0.6560590369687036 0 0.75470957328743171 0.37735478664371586 0 -0.3280295184843518 1 I I #
point $-1 59.447615326510942 41.25613947197796 10.108424501651831 #
edge $-1 $459 1 $459 0 $286 $-1 forward 7 unknown #
vertex $-1 $287 $460 #
ellipse-curve $-1 58.414201502898521 43.688031152093259 9.6817444468487501 0.6560590369687036 0 0.75470957328743171 0.37735478664371586 0 -0.3280295184843518 1 I I #
point $-1 59.447615326510942 43.688031152093259 10.108424501651831 #
plane-surface $-1 67.962279122287669 0 0 -1 0 0 0 0 1 forward_v I I I I #
coedge $-1 $405 $293 $296 $398 reversed $201 $-1 #
edge $-1 $307 -18.16616801128071 $401 18.16616801128071 $306 $461 forward 7 unknown #
straight-curve $-1 67.962279122287669 -45.309292272170126 0 0 0 -1 I I #
edge $-1 $399 -45.309292272170126 $401 45.309292272170126 $395 $462 forward 7 unknown #
vertex $-1 $398 $463 #
straight-curve $-1 0 -45.309292272170126 -18.16616801128071 -1 0 0 I I #
vertex $-1 $299 $464 #
straight-curve $-1 0 45.309292272170126 -18.16616801128071 1 0 0 I I #
point $-1 67.962279122287669 45.309292272170126 -18.16616801128071 #
point $-1 67.962279122287669 -45.309292272170126 -18.16616801128071 #
coedge $-1 $303 $395 $309 $408 reversed $201 $-1 #
straight-curve $-1 -67.962279122287669 0 18.16616801128071 0 -1 0 I I #
point $-1 -67.962279122287669 45.309292272170126 18.16616801128071 #
edge $-1 $310 -18.16616801128071 $399 18.16616801128071 $405 $465 forward 7 unknown #
point $-1 -67.962279122287669 -45.309292272170126 18.16616801128071 #
straight-curve $-1 67.962279122287669 45.309292272170126 0 0 0 -1 I I #
plane-surface $-1 -67.962279122287669 0 0 1 0 0 0 0 -1 forward_v I I I I #
coedge $-1 $414 $423 $418 $466 forward $316 $-1 #
coedge $-1 $319 $318 $467 $468 forward $135 $-1 #
coedge $-1 $467 $412 $320 $415 reversed $316 $-1 #
edge $-1 $416 -67.962279122287669 $419 67.962279122287669 $414 $469 forward 7 unknown #
vertex $-1 $468 $470 #
straight-curve $-1 67.962279122287669 0 -18.16616801128071 0 -1 0 I I #
coedge $-1 $328 $322 $412 $466 reversed $329 $-1 #
vertex $-1 $323 $471 #
straight-curve $-1 -67.962279122287669 0 -18.16616801128071 0 1 0 I I #
point $-1 -67.962279122287669 -45.309292272170126 -18.16616801128071 #
point $-1 67.962279122287669 -45.309292272170126 -18.16616801128071 #
coedge $-1 $412 $467 $331 $424 reversed $316 $-1 #
edge $-1 $425 -67.962279122287669 $427 67.962279122287669 $423 $472 forward 7 unknown #
vertex $-1 $332 $473 #
straight-curve $-1 -67.962279122287669 -53.501215604428943 -9.1614213432054044 0 -1 0 I I #
vertex $-1 $333 $474 #
straight-curve $-1 67.962279122287669 -53.501215604428943 -9.1614213432054044 0 1 0 I I #
coedge $-1 $347 $346 $339 $430 forward $336 $-1 #
edge $-1 $431 35.358116277830824 $434 47.487346840729487 $429 $475 forward 7 unknown #
vertex $-1 $351 $476 #
straight-curve $-1 -79.456781146700067 -16.048379454659425 18.16616801128071 -1 0 0 I I #
edge $-1 $434 4.8049231890814461 $348 17.681989342074512 $347 $477 forward 7 unknown #
vertex $-1 $433 $478 #
straight-curve $-1 -67.962279122287669 -16.048379454659425 6.0369374483820479 0.74314481823134659 0 0.66913061440640931 I I #
point $-1 -54.491404157244247 -16.048379454659425 18.16616801128071 #
point $-1 -67.962279122287669 -28.925445607652492 6.0369374483820479 #
straight-curve $-1 -67.962279122287669 0 18.16616801128071 0 -1 0 I I #
vertex $-1 $354 $479 #
point $-1 -59.005164643585225 -26.350032377053875 11.128607039589687 #
vertex $-1 $358 $480 #
point $-1 -59.005164643585225 -22.486912531155955 11.128607039589687 #
vertex $-1 $362 $481 #
point $-1 -59.005164643585225 -18.623792685258035 11.128607039589687 #
coedge $-1 $367 $375 $368 $447 forward $263 $-1 #
edge $-1 $449 -24.681222536181146 $376 -16.574916935796814 $367 $482 forward 7 unknown #
edge $-1 $453 -67.962279122287669 $449 -50.178241957446758 $368 $483 forward 7 unknown #
edge $-1 $453 -18.16616801128071 $373 -2.7067400289916295 $372 $484 forward 7 unknown #
vertex $-1 $370 $485 #
straight-curve $-1 -2.0146037047570271 45.309292272170126 63.536717522994209 -0.75470957328743171 0 0.6560590369687036 I I #
point $-1 67.962279122287669 45.309292272170126 2.7067400289916295 #
point $-1 50.178241957446758 37.202986671785794 18.166168011280703 #
vertex $-1 $379 $486 #
straight-curve $-1 67.962279122287669 0 18.16616801128071 0 1 0 I I #
vertex $-1 $382 $487 #
point $-1 58.791556289542235 38.824247791862661 9.3537149283643988 #
vertex $-1 $386 $488 #
point $-1 58.791556289542235 41.25613947197796 9.3537149283643988 #
vertex $-1 $390 $489 #
point $-1 58.791556289542235 43.688031152093259 9.3537149283643988 #
straight-curve $-1 -67.962279122287669 45.309292272170126 0 0 0 -1 I I #
straight-curve $-1 -67.962279122287669 0 -18.16616801128071 0 1 0 I I #
point $-1 -67.962279122287669 -45.309292272170126 -18.16616801128071 #
point $-1 -67.962279122287669 45.309292272170126 -18.16616801128071 #
straight-curve $-1 -67.962279122287669 -45.309292272170126 0 0 0 -1 I I #
edge $-1 $425 -4.5023733340376531 $419 4.5023733340376531 $418 $490 forward 7 unknown #
coedge $-1 $423 $414 $413 $468 reversed $316 $-1 #
edge $-1 $427 -4.5023733340376531 $416 4.5023733340376531 $413 $491 forward 7 unknown #
straight-curve $-1 0 -61.69313893668776 -18.16616801128071 -1 0 0 I I #
point $-1 67.962279122287669 -61.69313893668776 -18.16616801128071 #
point $-1 -67.962279122287669 -61.69313893668776 -18.16616801128071 #
straight-curve $-1 0 -61.69313893668776 -9.1614213432054044 1 0 0 I I #
point $-1 -67.962279122287669 -61.69313893668776 -9.1614213432054044 #
point $-1 67.962279122287669 -61.69313893668776 -9.1614213432054044 #
straight-curve $-1 -67.962279122287669 -16.048379454659425 53.524284289111534 0 0 -1 I I #
point $-1 -67.962279122287669 -16.048379454659425 18.16616801128071 #
straight-curve $-1 -67.962279122287669 -11.243456265577979 6.0369374483820541 0 -1 0 I I #
point $-1 -67.962279122287669 -16.048379454659425 6.0369374483820479 #
point $-1 -59.079178847410162 -26.350032377053875 9.7163316069519308 #
point $-1 -59.079178847410162 -22.486912531155955 9.7163316069519308 #
point $-1 -59.079178847410162 -18.623792685258035 9.7163316069519308 #
straight-curve $-1 50.178241957446744 20.62806973598898 18.166168011280725 0 -1 0 I I #
straight-curve $-1 0 45.309292272170126 18.16616801128071 -1 0 0 I I #
straight-curve $-1 67.962279122287669 45.309292272170126 0 0 0 -1 I I #
point $-1 50.178241957446758 45.309292272170126 18.166168011280703 #
point $-1 67.962279122287669 45.309292272170126 18.16616801128071 #
point $-1 58.086171984414165 38.824247791862661 9.304389660205036 #
point $-1 58.086171984414165 41.25613947197796 9.304389660205036 #
point $-1 58.086171984414165 43.688031152093259 9.304389660205036 #
straight-curve $-1 -67.962279122287669 -61.69313893668776 -13.663794677243057 0 0 -1 I I #
straight-curve $-1 67.962279122287669 -61.69313893668776 -13.663794677243057 0 0 -1 I I #
End-of-ACIS-data 