500 0 6 0           
7 Unknown 11 ACIS 5.0 NT 24 Fri Mar 26 20:41:33 1999 
-1 9.9999999999999995e-007 1e-010 
body $-1 $6 $-1 $7 #
body $-1 $8 $-1 $9 #
body $-1 $10 $-1 $11 #
body $-1 $12 $-1 $13 #
body $-1 $14 $-1 $15 #
body $-1 $16 $-1 $17 #
lump $-1 $-1 $18 $0 #
transform $-1 1 0 0 0 1 0 0 0 1 70.480666524246956 30.685665109253428 7.0103076837931253 1 rotate no_reflect no_shear #
lump $-1 $-1 $19 $1 #
transform $-1 1 0 0 0 1 0 0 0 1 70.480666524246956 30.685665109253428 7.0103076837931253 1 rotate no_reflect no_shear #
lump $-1 $-1 $20 $2 #
transform $-1 1 0 0 0 1 0 0 0 1 70.480666524246956 30.685665109253428 7.0103076837931253 1 rotate no_reflect no_shear #
lump $-1 $-1 $21 $3 #
transform $-1 1 0 0 0 1 0 0 0 1 70.480666524246956 30.685665109253428 7.0103076837931253 1 rotate no_reflect no_shear #
lump $-1 $-1 $22 $4 #
transform $-1 1 0 0 0 1 0 0 0 1 70.480666524246956 30.685665109253428 7.0103076837931253 1 rotate no_reflect no_shear #
lump $-1 $-1 $23 $5 #
transform $-1 1 0 0 0 1 0 0 0 1 70.480666524246956 30.685665109253428 7.0103076837931253 1 rotate no_reflect no_shear #
shell $-1 $-1 $-1 $24 $-1 $6 #
shell $-1 $-1 $-1 $25 $-1 $8 #
shell $-1 $-1 $-1 $26 $-1 $10 #
shell $-1 $-1 $-1 $27 $-1 $12 #
shell $-1 $-1 $-1 $28 $-1 $14 #
shell $-1 $-1 $-1 $29 $-1 $16 #
face $-1 $30 $31 $18 $-1 $32 forward single #
face $-1 $33 $34 $19 $-1 $35 forward single #
face $-1 $36 $37 $20 $-1 $38 forward single #
face $-1 $39 $40 $21 $-1 $41 reversed single #
face $-1 $42 $43 $22 $-1 $44 forward single #
face $-1 $45 $46 $23 $-1 $47 forward single #
face $-1 $48 $49 $18 $-1 $50 reversed single #
loop $-1 $-1 $51 $24 #
plane-surface $-1 0 0 7.0103076837931253 0 0 1 1 0 0 forward_v I I I I #
face $-1 $52 $53 $19 $-1 $54 reversed single #
loop $-1 $-1 $55 $25 #
plane-surface $-1 -67.292229171069437 0 6.3837197621093216 0 0 1 1 0 0 forward_v I I I I #
face $-1 $56 $57 $20 $-1 $58 reversed single #
loop $-1 $-1 $59 $26 #
plane-surface $-1 67.292229171069422 0 6.3837197621093216 0 0 1 1 0 0 forward_v I I I I #
face $-1 $60 $61 $21 $-1 $62 reversed single #
loop $-1 $-1 $63 $27 #
plane-surface $-1 54.223626413127988 -14.198483955300944 45.711000315625682 0 0.68199836817093118 0.7313536940579346 1 0 0 forward_v I I I I #
face $-1 $64 $65 $22 $-1 $66 forward single #
loop $-1 $67 $68 $28 #
cone-surface $-1 49.989269811086302 28.59865081132731 5.0088029223312756 0 -0.68199836817093118 -0.7313536940579346 0.5 0 0 1 I I 0 1 0.5 forward I I I I #
face $-1 $69 $70 $23 $-1 $71 forward single #
loop $-1 $72 $73 $29 #
cone-surface $-1 58.45798301516966 28.59865081132731 5.0088029223312756 0 -0.68199836817093118 -0.7313536940579346 0.5 0 0 1 I I 0 1 0.5 forward I I I I #
face $-1 $74 $75 $18 $-1 $76 reversed single #
loop $-1 $-1 $77 $30 #
plane-surface $-1 0 0 -7.0103076837931253 0 0 1 1 0 0 forward_v I I I I #
coedge $-1 $78 $79 $80 $81 forward $31 $-1 #
face $-1 $82 $83 $19 $-1 $84 reversed single #
loop $-1 $-1 $85 $33 #
plane-surface $-1 -67.292229171069437 0 3.3837197621093216 0 0 1 1 0 0 forward_v I I I I #
coedge $-1 $86 $87 $88 $89 forward $34 $-1 #
face $-1 $90 $91 $20 $-1 $92 reversed single #
loop $-1 $-1 $93 $36 #
plane-surface $-1 67.292229171069422 0 3.3837197621093216 0 0 1 1 0 0 forward_v I I I I #
coedge $-1 $94 $95 $96 $97 reversed $37 $-1 #
face $-1 $98 $99 $21 $-1 $100 forward single #
loop $-1 $-1 $101 $39 #
plane-surface $-1 44.343461008364059 81.936915158971061 148.80359195997252 1 0 0 0 -0.68199836817093118 -0.7313536940579346 forward_v I I I I #
coedge $-1 $102 $103 $104 $105 reversed $40 $-1 #
face $-1 $-1 $106 $22 $-1 $107 forward single #
loop $-1 $108 $109 $42 #
cone-surface $-1 49.989269811086302 28.03250599755048 4.4016869521891708 0 -0.68199836817093118 -0.7313536940579346 0.25 0 0 1 I I -0.70710678118654746 0.70710678118654746 0.25 forward I I I I #
loop $-1 $-1 $110 $28 #
coedge $-1 $68 $68 $111 $112 reversed $43 $-1 #
face $-1 $-1 $113 $23 $-1 $114 forward single #
loop $-1 $115 $116 $45 #
cone-surface $-1 58.45798301516966 28.03250599755048 4.4016869521891708 0 -0.68199836817093118 -0.7313536940579346 0.25 0 0 1 I I -0.70710678118654746 0.70710678118654746 0.25 forward I I I I #
loop $-1 $-1 $117 $29 #
coedge $-1 $73 $73 $118 $119 reversed $46 $-1 #
face $-1 $120 $121 $18 $-1 $122 reversed single #
loop $-1 $-1 $123 $48 #
plane-surface $-1 0 -30.685665109253428 0 0 1 0 0 0 1 forward_v I I I I #
coedge $-1 $124 $125 $126 $127 forward $49 $-1 #
coedge $-1 $128 $51 $129 $130 forward $31 $-1 #
coedge $-1 $51 $128 $131 $132 forward $31 $-1 #
coedge $-1 $133 $134 $51 $81 reversed $135 $-1 #
edge $-1 $136 -30.685665109253428 $137 30.685665109253428 $80 $138 forward 7 unknown #
face $-1 $139 $140 $19 $-1 $141 reversed single #
loop $-1 $-1 $142 $52 #
plane-surface $-1 -64.103791817891917 0 4.8837197621093216 -1 0 0 0 0 1 forward_v I I I I #
coedge $-1 $143 $144 $145 $146 forward $53 $-1 #
coedge $-1 $147 $55 $148 $149 reversed $34 $-1 #
coedge $-1 $55 $147 $150 $151 reversed $34 $-1 #
coedge $-1 $142 $152 $55 $89 reversed $83 $-1 #
edge $-1 $153 -30.685665109253428 $154 30.685665109253428 $88 $155 forward 7 unknown #
face $-1 $156 $157 $20 $-1 $158 reversed single #
loop $-1 $-1 $159 $56 #
plane-surface $-1 64.103791817891903 0 4.8837197621093216 1 0 0 0 0 -1 forward_v I I I I #
coedge $-1 $160 $161 $162 $163 reversed $57 $-1 #
coedge $-1 $164 $59 $165 $166 reversed $37 $-1 #
coedge $-1 $59 $164 $167 $168 reversed $37 $-1 #
coedge $-1 $169 $170 $59 $97 forward $171 $-1 #
edge $-1 $172 -30.685665109253428 $173 30.685665109253428 $96 $174 forward 7 unknown #
face $-1 $175 $176 $21 $-1 $177 reversed single #
loop $-1 $-1 $178 $60 #
plane-surface $-1 64.103791817891903 0 4.8837197621093216 1 0 0 0 0 -1 forward_v I I I I #
coedge $-1 $179 $180 $181 $182 reversed $61 $-1 #
coedge $-1 $183 $63 $178 $184 reversed $40 $-1 #
coedge $-1 $63 $183 $179 $185 forward $40 $-1 #
coedge $-1 $181 $186 $63 $105 forward $176 $-1 #
edge $-1 $187 -36.991978611327909 $188 -17.231647801800065 $104 $189 forward 7 unknown #
loop $-1 $-1 $111 $64 #
plane-surface $-1 54.223626413127988 -14.198483955300944 45.711000315625682 0 0.68199836817093118 0.7313536940579346 1 0 0 forward_v I I I I #
loop $-1 $-1 $190 $42 #
coedge $-1 $109 $109 $110 $191 reversed $65 $-1 #
coedge $-1 $110 $110 $109 $191 forward $67 $-1 #
coedge $-1 $111 $111 $68 $112 forward $106 $-1 #
edge $-1 $192 -6.6949151751635336e-016 $192 6.2831853071795996 $111 $193 forward 7 unknown #
loop $-1 $-1 $118 $69 #
plane-surface $-1 54.223626413127988 -14.198483955300944 45.711000315625682 0 0.68199836817093118 0.7313536940579346 1 0 0 forward_v I I I I #
loop $-1 $-1 $194 $45 #
coedge $-1 $116 $116 $117 $195 reversed $70 $-1 #
coedge $-1 $117 $117 $116 $195 forward $72 $-1 #
coedge $-1 $118 $118 $73 $119 forward $113 $-1 #
edge $-1 $196 -6.6949151751635336e-016 $196 6.2831853071795996 $118 $197 forward 7 unknown #
face $-1 $198 $199 $18 $-1 $200 reversed single #
loop $-1 $-1 $201 $74 #
plane-surface $-1 -70.480666524246956 0 0 1 0 0 0 0 -1 forward_v I I I I #
coedge $-1 $202 $131 $203 $204 forward $75 $-1 #
coedge $-1 $205 $77 $202 $206 forward $49 $-1 #
coedge $-1 $77 $205 $207 $208 forward $49 $-1 #
coedge $-1 $134 $133 $77 $127 reversed $135 $-1 #
edge $-1 $209 -30.685665109253428 $210 30.685665109253428 $126 $211 forward 7 unknown #
coedge $-1 $79 $78 $212 $213 forward $31 $-1 #
coedge $-1 $214 $215 $78 $130 reversed $199 $-1 #
edge $-1 $137 -70.480666524246956 $216 70.480666524246956 $129 $217 forward 7 unknown #
coedge $-1 $123 $218 $79 $132 reversed $75 $-1 #
edge $-1 $219 -70.480666524246956 $136 70.480666524246956 $131 $220 forward 7 unknown #
coedge $-1 $126 $80 $218 $221 forward $135 $-1 #
coedge $-1 $80 $126 $214 $222 reversed $135 $-1 #
loop $-1 $-1 $133 $198 #
vertex $-1 $81 $223 #
vertex $-1 $81 $224 #
straight-curve $-1 70.480666524246956 0 7.0103076837931253 0 1 0 I I #
face $-1 $225 $226 $19 $-1 $227 reversed single #
loop $-1 $-1 $228 $82 #
plane-surface $-1 0 -30.685665109253428 0 0 1 0 0 0 1 forward_v I I I I #
coedge $-1 $145 $88 $229 $230 reversed $83 $-1 #
coedge $-1 $231 $85 $228 $232 reversed $53 $-1 #
coedge $-1 $85 $231 $233 $234 reversed $53 $-1 #
coedge $-1 $152 $142 $85 $146 reversed $83 $-1 #
edge $-1 $235 -30.685665109253428 $236 30.685665109253428 $145 $237 forward 7 unknown #
coedge $-1 $87 $86 $238 $239 reversed $34 $-1 #
coedge $-1 $240 $241 $86 $149 forward $242 $-1 #
edge $-1 $243 -36.834551938712238 $154 -30.457677232357199 $148 $244 forward 7 unknown #
coedge $-1 $245 $229 $87 $151 forward $140 $-1 #
edge $-1 $153 30.457677232357199 $246 36.834551938712238 $150 $247 forward 7 unknown #
coedge $-1 $88 $145 $240 $248 reversed $83 $-1 #
vertex $-1 $151 $249 #
vertex $-1 $149 $250 #
straight-curve $-1 -64.103791817891917 0 6.3837197621093216 0 1 0 I I #
face $-1 $251 $252 $20 $-1 $253 reversed single #
loop $-1 $-1 $167 $90 #
plane-surface $-1 0 -30.685665109253428 0 0 1 0 0 0 1 forward_v I I I I #
coedge $-1 $254 $255 $256 $257 reversed $91 $-1 #
coedge $-1 $258 $93 $259 $260 reversed $57 $-1 #
coedge $-1 $93 $258 $261 $262 reversed $57 $-1 #
coedge $-1 $170 $169 $93 $163 forward $171 $-1 #
edge $-1 $263 -30.685665109253428 $264 30.685665109253428 $162 $265 forward 7 unknown #
coedge $-1 $95 $94 $255 $266 forward $37 $-1 #
coedge $-1 $267 $256 $94 $166 forward $252 $-1 #
edge $-1 $268 30.457677232357192 $172 36.834551938712231 $165 $269 forward 7 unknown #
coedge $-1 $270 $271 $95 $168 forward $157 $-1 #
edge $-1 $173 -36.834551938712231 $272 -30.457677232357192 $167 $273 forward 7 unknown #
coedge $-1 $162 $96 $271 $274 forward $171 $-1 #
coedge $-1 $96 $162 $267 $275 reversed $171 $-1 #
loop $-1 $-1 $96 $251 #
vertex $-1 $275 $276 #
vertex $-1 $274 $277 #
straight-curve $-1 70.480666524246956 0 6.3837197621093216 0 -1 0 I I #
face $-1 $-1 $278 $21 $-1 $279 forward single #
loop $-1 $-1 $186 $98 #
plane-surface $-1 0 30.685665109253428 0 0 -1 0 0 0 -1 forward_v I I I I #
coedge $-1 $280 $281 $102 $184 forward $99 $-1 #
coedge $-1 $180 $101 $103 $185 reversed $61 $-1 #
coedge $-1 $101 $179 $282 $283 reversed $61 $-1 #
coedge $-1 $284 $104 $101 $182 forward $176 $-1 #
edge $-1 $188 -70.545942725861636 $285 -67.391488296193131 $181 $286 forward 7 unknown #
coedge $-1 $103 $102 $287 $288 reversed $40 $-1 #
edge $-1 $289 37.631893198683322 $187 42.257204015963595 $178 $290 forward 7 unknown #
edge $-1 $291 56.746019401226633 $188 61.371330218506898 $179 $292 forward 7 unknown #
coedge $-1 $104 $284 $280 $293 forward $176 $-1 #
vertex $-1 $184 $294 #
vertex $-1 $105 $295 #
straight-curve $-1 27.111813206563994 30.685665109253428 3.8558532541246215 -1 0 0 I I #
coedge $-1 $190 $190 $-1 $296 reversed $108 $-1 #
edge $-1 $297 0 $297 6.2831853071796004 $109 $298 forward 7 unknown #
vertex $-1 $112 $299 #
ellipse-curve $-1 49.989269811086302 28.994296033061392 5.4330804689588774 0 0.68199836817093118 0.7313536940579346 0.5 0 0 1 I I #
coedge $-1 $194 $194 $-1 $300 reversed $115 $-1 #
edge $-1 $301 0 $301 6.2831853071796004 $116 $302 forward 7 unknown #
vertex $-1 $119 $303 #
ellipse-curve $-1 58.45798301516966 28.994296033061392 5.4330804689588774 0 0.68199836817093118 0.7313536940579346 0.5 0 0 1 I I #
face $-1 $-1 $135 $18 $-1 $304 reversed single #
loop $-1 $-1 $214 $120 #
plane-surface $-1 0 30.685665109253428 0 0 -1 0 0 0 -1 forward_v I I I I #
coedge $-1 $305 $212 $215 $306 forward $121 $-1 #
coedge $-1 $218 $123 $124 $206 reversed $75 $-1 #
coedge $-1 $212 $305 $123 $204 reversed $121 $-1 #
edge $-1 $219 -7.0103076837931253 $307 7.0103076837931253 $203 $308 forward 7 unknown #
coedge $-1 $125 $124 $305 $309 forward $49 $-1 #
edge $-1 $210 -70.480666524246956 $307 70.480666524246956 $202 $310 forward 7 unknown #
coedge $-1 $215 $214 $125 $208 reversed $199 $-1 #
edge $-1 $311 -70.480666524246956 $209 70.480666524246956 $207 $312 forward 7 unknown #
vertex $-1 $127 $313 #
vertex $-1 $221 $314 #
straight-curve $-1 70.480666524246956 0 -7.0103076837931253 0 -1 0 I I #
coedge $-1 $201 $203 $128 $213 reversed $121 $-1 #
edge $-1 $216 -30.685665109253428 $219 30.685665109253428 $212 $315 forward 7 unknown #
coedge $-1 $207 $129 $134 $222 forward $199 $-1 #
coedge $-1 $129 $207 $201 $306 reversed $199 $-1 #
vertex $-1 $130 $316 #
straight-curve $-1 0 30.685665109253428 7.0103076837931253 -1 0 0 I I #
coedge $-1 $131 $202 $133 $221 reversed $75 $-1 #
vertex $-1 $213 $317 #
straight-curve $-1 0 -30.685665109253428 7.0103076837931253 1 0 0 I I #
edge $-1 $136 -7.0103076837931253 $210 7.0103076837931253 $133 $318 forward 7 unknown #
edge $-1 $137 -7.0103076837931253 $209 7.0103076837931253 $134 $319 forward 7 unknown #
point $-1 70.480666524246956 -30.685665109253428 7.0103076837931253 #
point $-1 70.480666524246956 30.685665109253428 7.0103076837931253 #
face $-1 $-1 $242 $19 $-1 $320 reversed single #
loop $-1 $-1 $321 $139 #
plane-surface $-1 -70.480666524246956 0 0 1 0 0 0 0 -1 forward_v I I I I #
coedge $-1 $229 $245 $143 $232 forward $140 $-1 #
coedge $-1 $150 $228 $142 $230 forward $140 $-1 #
edge $-1 $236 0.94185988105466079 $153 3.9418598810546608 $229 $322 forward 7 unknown #
coedge $-1 $144 $143 $321 $323 reversed $53 $-1 #
edge $-1 $324 -36.834551938712238 $236 -30.457677232357199 $228 $325 forward 7 unknown #
coedge $-1 $241 $240 $144 $234 forward $242 $-1 #
edge $-1 $235 30.457677232357199 $326 36.834551938712238 $233 $327 forward 7 unknown #
vertex $-1 $234 $328 #
vertex $-1 $232 $329 #
straight-curve $-1 -64.103791817891917 0 3.3837197621093216 0 -1 0 I I #
coedge $-1 $330 $331 $147 $239 forward $226 $-1 #
edge $-1 $246 -30.685665109253428 $243 30.685665109253428 $238 $332 forward 7 unknown #
coedge $-1 $233 $148 $152 $248 forward $242 $-1 #
coedge $-1 $148 $233 $330 $333 reversed $242 $-1 #
loop $-1 $-1 $233 $225 #
vertex $-1 $333 $334 #
straight-curve $-1 -33.646114585534718 30.685665109253428 6.3837197621093216 1 0 0 I I #
coedge $-1 $228 $150 $331 $335 forward $140 $-1 #
vertex $-1 $335 $336 #
straight-curve $-1 -33.646114585534718 -30.685665109253428 6.3837197621093216 -1 0 0 I I #
edge $-1 $154 -3.9418598810546608 $235 -0.94185988105466079 $240 $337 forward 7 unknown #
point $-1 -64.103791817891917 -30.685665109253428 6.3837197621093216 #
point $-1 -64.103791817891917 30.685665109253428 6.3837197621093216 #
face $-1 $-1 $171 $20 $-1 $338 reversed single #
loop $-1 $-1 $165 $156 #
plane-surface $-1 0 30.685665109253428 0 0 -1 0 0 0 -1 forward_v I I I I #
coedge $-1 $339 $159 $258 $340 reversed $91 $-1 #
coedge $-1 $159 $339 $164 $266 reversed $91 $-1 #
coedge $-1 $165 $261 $159 $257 forward $252 $-1 #
edge $-1 $341 0.94185988105466079 $268 3.9418598810546608 $256 $342 forward 7 unknown #
coedge $-1 $161 $160 $254 $340 forward $57 $-1 #
coedge $-1 $271 $270 $160 $260 forward $157 $-1 #
edge $-1 $343 30.457677232357192 $263 36.834551938712231 $259 $344 forward 7 unknown #
coedge $-1 $256 $267 $161 $262 forward $252 $-1 #
edge $-1 $264 -36.834551938712231 $341 -30.457677232357192 $261 $345 forward 7 unknown #
vertex $-1 $163 $346 #
vertex $-1 $163 $347 #
straight-curve $-1 70.480666524246956 0 3.3837197621093216 0 1 0 I I #
edge $-1 $268 -30.685665109253428 $272 30.685665109253428 $255 $348 forward 7 unknown #
coedge $-1 $261 $165 $170 $275 forward $252 $-1 #
vertex $-1 $166 $349 #
straight-curve $-1 33.646114585534711 30.685665109253428 6.3837197621093216 1 0 0 I I #
coedge $-1 $259 $167 $339 $350 forward $157 $-1 #
coedge $-1 $167 $259 $169 $274 reversed $157 $-1 #
vertex $-1 $168 $351 #
straight-curve $-1 33.646114585534711 -30.685665109253428 6.3837197621093216 -1 0 0 I I #
edge $-1 $173 -6.3837197621093216 $263 -3.3837197621093216 $169 $352 forward 7 unknown #
edge $-1 $172 -6.3837197621093216 $264 -3.3837197621093216 $170 $353 forward 7 unknown #
point $-1 70.480666524246942 30.685665109253428 6.3837197621093216 #
point $-1 70.480666524246942 -30.685665109253428 6.3837197621093216 #
loop $-1 $-1 $354 $175 #
plane-surface $-1 0 0 7.0103076837931253 0 0 1 1 0 0 forward_v I I I I #
coedge $-1 $281 $178 $186 $293 reversed $99 $-1 #
coedge $-1 $178 $280 $354 $355 reversed $99 $-1 #
coedge $-1 $287 $356 $180 $283 forward $278 $-1 #
edge $-1 $285 10.282792470232103 $291 13.665530622616153 $282 $357 forward 7 unknown #
coedge $-1 $186 $181 $356 $358 reversed $176 $-1 #
vertex $-1 $283 $359 #
straight-curve $-1 44.343461008364059 30.685665109253428 74.401795979986261 0 0 1 I I #
coedge $-1 $354 $282 $183 $288 forward $278 $-1 #
edge $-1 $291 17.231647801800065 $289 36.991978611327923 $287 $360 forward 7 unknown #
vertex $-1 $355 $361 #
straight-curve $-1 64.103791817891903 -0.21929714838133751 32.675197436477909 0 0.7313536940579346 -0.68199836817093118 I I #
vertex $-1 $288 $362 #
straight-curve $-1 44.343461008364059 -14.198483955300944 45.711000315625682 0 0.7313536940579346 -0.68199836817093118 I I #
edge $-1 $363 67.391488296193131 $187 70.54594272586165 $186 $364 forward 7 unknown #
point $-1 64.103791817891903 30.685665109253428 3.8558532541246171 #
point $-1 44.343461008364059 30.685665109253428 3.855853254124618 #
edge $-1 $365 1 $365 0 $190 $-1 forward 7 unknown #
vertex $-1 $191 $366 #
ellipse-curve $-1 49.989269811086302 28.203005589593214 4.5845253757036541 0 0.68199836817093118 0.7313536940579346 0.5 0 0 1 I I #
point $-1 50.489269811086302 28.99429603306141 5.433080468958897 #
edge $-1 $367 1 $367 0 $194 $-1 forward 7 unknown #
vertex $-1 $195 $368 #
ellipse-curve $-1 58.45798301516966 28.203005589593214 4.5845253757036541 0 0.68199836817093118 0.7313536940579346 0.5 0 0 1 I I #
point $-1 58.95798301516966 28.99429603306141 5.433080468958897 #
plane-surface $-1 70.480666524246956 0 0 -1 0 0 0 0 1 forward_v I I I I #
coedge $-1 $203 $201 $205 $309 reversed $121 $-1 #
edge $-1 $216 -7.0103076837931253 $311 7.0103076837931253 $215 $369 forward 7 unknown #
vertex $-1 $309 $370 #
straight-curve $-1 -70.480666524246956 -30.685665109253428 0 0 0 -1 I I #
edge $-1 $307 -30.685665109253428 $311 30.685665109253428 $305 $371 forward 7 unknown #
straight-curve $-1 0 -30.685665109253428 -7.0103076837931253 -1 0 0 I I #
vertex $-1 $208 $372 #
straight-curve $-1 0 30.685665109253428 -7.0103076837931253 1 0 0 I I #
point $-1 70.480666524246956 30.685665109253428 -7.0103076837931253 #
point $-1 70.480666524246956 -30.685665109253428 -7.0103076837931253 #
straight-curve $-1 -70.480666524246956 0 7.0103076837931253 0 -1 0 I I #
point $-1 -70.480666524246956 30.685665109253428 7.0103076837931253 #
point $-1 -70.480666524246956 -30.685665109253428 7.0103076837931253 #
straight-curve $-1 70.480666524246956 -30.685665109253428 0 0 0 -1 I I #
straight-curve $-1 70.480666524246956 30.685665109253428 0 0 0 -1 I I #
plane-surface $-1 0 30.685665109253428 0 0 -1 0 0 0 -1 forward_v I I I I #
coedge $-1 $331 $330 $231 $323 forward $226 $-1 #
straight-curve $-1 -64.103791817891917 -30.685665109253428 2.4418598810546608 0 0 1 I I #
edge $-1 $326 -30.685665109253428 $324 30.685665109253428 $321 $373 forward 7 unknown #
vertex $-1 $232 $374 #
straight-curve $-1 -33.646114585534718 -30.685665109253428 3.3837197621093216 1 0 0 I I #
vertex $-1 $234 $375 #
straight-curve $-1 -33.646114585534718 30.685665109253428 3.3837197621093216 -1 0 0 I I #
point $-1 -64.103791817891917 30.685665109253428 3.3837197621093216 #
point $-1 -64.103791817891917 -30.685665109253428 3.3837197621093216 #
coedge $-1 $321 $238 $241 $333 forward $226 $-1 #
coedge $-1 $238 $321 $245 $335 reversed $226 $-1 #
straight-curve $-1 -70.480666524246956 0 6.3837197621093216 0 1 0 I I #
edge $-1 $243 -6.3837197621093216 $326 -3.3837197621093216 $241 $376 forward 7 unknown #
point $-1 -70.480666524246956 30.685665109253428 6.3837197621093216 #
edge $-1 $246 -6.3837197621093216 $324 -3.3837197621093216 $331 $377 forward 7 unknown #
point $-1 -70.480666524246956 -30.685665109253428 6.3837197621093216 #
straight-curve $-1 -64.103791817891917 30.685665109253428 2.4418598810546608 0 0 -1 I I #
plane-surface $-1 70.480666524246956 0 0 -1 0 0 0 0 1 forward_v I I I I #
coedge $-1 $255 $254 $270 $350 reversed $91 $-1 #
edge $-1 $343 -30.685665109253428 $341 30.685665109253428 $254 $378 forward 7 unknown #
vertex $-1 $262 $379 #
straight-curve $-1 64.103791817891903 30.685665109253428 2.4418598810546608 0 0 1 I I #
vertex $-1 $260 $380 #
straight-curve $-1 33.646114585534711 -30.685665109253428 3.3837197621093216 1 0 0 I I #
straight-curve $-1 33.646114585534711 30.685665109253428 3.3837197621093216 -1 0 0 I I #
point $-1 70.480666524246942 -30.685665109253428 3.3837197621093216 #
point $-1 70.480666524246942 30.685665109253428 3.3837197621093216 #
straight-curve $-1 64.103791817891903 0 6.3837197621093216 0 -1 0 I I #
point $-1 64.103791817891903 30.685665109253428 6.3837197621093216 #
edge $-1 $272 -3.9418598810546608 $343 -0.94185988105466079 $270 $381 forward 7 unknown #
point $-1 64.103791817891903 -30.685665109253428 6.3837197621093216 #
straight-curve $-1 70.480666524246956 -30.685665109253428 0 0 0 -1 I I #
straight-curve $-1 70.480666524246956 30.685665109253428 0 0 0 -1 I I #
coedge $-1 $356 $287 $281 $355 forward $278 $-1 #
edge $-1 $289 -13.665530622616153 $363 -10.282792470232103 $354 $382 forward 7 unknown #
coedge $-1 $282 $354 $284 $358 forward $278 $-1 #
straight-curve $-1 44.343461008364059 40.968457579485531 7.0103076837931297 0 -1 0 I I #
edge $-1 $363 -64.103791817891917 $285 -44.343461008364059 $284 $383 forward 7 unknown #
point $-1 44.343461008364059 30.685665109253428 7.0103076837931253 #
straight-curve $-1 27.111813206563994 27.302926956869371 7.0103076837931262 1 0 0 I I #
point $-1 64.103791817891917 27.302926956869378 7.0103076837931226 #
point $-1 44.343461008364059 27.302926956869378 7.0103076837931226 #
vertex $-1 $358 $384 #
straight-curve $-1 64.103791817891917 30.685665109253428 74.401795979986261 0 0 -1 I I #
vertex $-1 $296 $385 #
point $-1 50.489269811086302 28.203005589593214 4.5845253757036541 #
vertex $-1 $300 $386 #
point $-1 58.95798301516966 28.203005589593214 4.5845253757036541 #
straight-curve $-1 -70.480666524246956 30.685665109253428 0 0 0 -1 I I #
point $-1 -70.480666524246956 -30.685665109253428 -7.0103076837931253 #
straight-curve $-1 -70.480666524246956 0 -7.0103076837931253 0 1 0 I I #
point $-1 -70.480666524246956 30.685665109253428 -7.0103076837931253 #
straight-curve $-1 -70.480666524246956 0 3.3837197621093216 0 -1 0 I I #
point $-1 -70.480666524246956 -30.685665109253428 3.3837197621093216 #
point $-1 -70.480666524246956 30.685665109253428 3.3837197621093216 #
straight-curve $-1 -70.480666524246956 30.685665109253428 0 0 0 -1 I I #
straight-curve $-1 -70.480666524246956 -30.685665109253428 0 0 0 -1 I I #
straight-curve $-1 64.103791817891903 0 3.3837197621093216 0 1 0 I I #
point $-1 64.103791817891903 30.685665109253428 3.3837197621093216 #
point $-1 64.103791817891903 -30.685665109253428 3.3837197621093216 #
straight-curve $-1 64.103791817891903 -30.685665109253428 2.4418598810546608 0 0 -1 I I #
straight-curve $-1 64.103791817891917 40.968457579485531 7.0103076837931297 0 1 0 I I #
straight-curve $-1 0 30.685665109253428 7.0103076837931253 -1 0 0 I I #
point $-1 64.103791817891917 30.685665109253428 7.0103076837931253 #
point $-1 49.989269811086302 27.862006405507746 4.2188485286746875 #
point $-1 58.45798301516966 27.862006405507746 4.2188485286746875 #
End-of-ACIS-data 