500 0 7 0           
7 Unknown 11 ACIS 5.0 NT 24 Thu Mar 25 23:50:56 1999 
-1 9.9999999999999995e-007 1e-010 
body $-1 $7 $-1 $8 #
body $-1 $9 $-1 $10 #
body $-1 $11 $-1 $12 #
body $-1 $13 $-1 $14 #
body $-1 $15 $-1 $16 #
body $-1 $17 $-1 $18 #
body $-1 $19 $-1 $20 #
lump $-1 $-1 $21 $0 #
transform $-1 1 0 0 0 1 0 0 0 1 59.718619342631307 31.173531187108107 7.4825227450363254 1 rotate no_reflect no_shear #
lump $-1 $-1 $22 $1 #
transform $-1 1 0 0 0 1 0 0 0 1 59.718619342631307 31.173531187108107 7.4825227450363254 1 rotate no_reflect no_shear #
lump $-1 $-1 $23 $2 #
transform $-1 1 0 0 0 1 0 0 0 1 59.718619342631307 31.173531187108107 7.4825227450363254 1 rotate no_reflect no_shear #
lump $-1 $-1 $24 $3 #
transform $-1 1 0 0 0 1 0 0 0 1 59.718619342631307 31.173531187108107 7.4825227450363254 1 rotate no_reflect no_shear #
lump $-1 $-1 $25 $4 #
transform $-1 1 0 0 0 1 0 0 0 1 59.718619342631307 31.173531187108107 7.4825227450363254 1 rotate no_reflect no_shear #
lump $-1 $-1 $26 $5 #
transform $-1 1 0 0 0 1 0 0 0 1 59.718619342631307 31.173531187108107 7.4825227450363254 1 rotate no_reflect no_shear #
lump $-1 $-1 $27 $6 #
transform $-1 1 0 0 0 1 0 0 0 1 59.718619342631307 31.173531187108107 7.4825227450363254 1 rotate no_reflect no_shear #
shell $-1 $-1 $-1 $28 $-1 $7 #
shell $-1 $-1 $-1 $29 $-1 $9 #
shell $-1 $-1 $-1 $30 $-1 $11 #
shell $-1 $-1 $-1 $31 $-1 $13 #
shell $-1 $-1 $-1 $32 $-1 $15 #
shell $-1 $-1 $-1 $33 $-1 $17 #
shell $-1 $-1 $-1 $34 $-1 $19 #
face $-1 $35 $36 $21 $-1 $37 forward single #
face $-1 $38 $39 $22 $-1 $40 reversed single #
face $-1 $41 $42 $23 $-1 $43 reversed single #
face $-1 $44 $45 $24 $-1 $46 reversed single #
face $-1 $47 $48 $25 $-1 $49 forward single #
face $-1 $50 $51 $26 $-1 $52 forward single #
face $-1 $53 $54 $27 $-1 $55 forward single #
face $-1 $56 $57 $21 $-1 $58 reversed single #
loop $-1 $-1 $59 $28 #
plane-surface $-1 0 0 7.4825227450363254 0 0 1 1 0 0 forward_v I I I I #
face $-1 $60 $61 $22 $-1 $62 reversed single #
loop $-1 $-1 $63 $29 #
plane-surface $-1 -56.663107076778893 -28.69710447621204 0 0 1 0 0 0 1 forward_v I I I I #
face $-1 $64 $65 $23 $-1 $66 reversed single #
loop $-1 $-1 $67 $30 #
plane-surface $-1 50.792095531651128 -29.673531187108107 0 1 0 0 0 0 -1 forward_v I I I I #
face $-1 $68 $69 $24 $-1 $70 reversed single #
loop $-1 $-1 $71 $31 #
plane-surface $-1 -53.607594810926479 48.608194526174415 137.41054070128578 1 0 0 0 -0.57357644374324357 -0.81915203911291934 forward_v I I I I #
face $-1 $72 $73 $25 $-1 $74 forward single #
loop $-1 $75 $76 $32 #
cone-surface $-1 -50.600850593381679 28.061621225401041 4.945956922708973 0 -0.57357644374324357 -0.81915203911291934 1 0 0 1 I I 0 1 1 forward I I I I #
face $-1 $77 $78 $26 $-1 $79 forward single #
loop $-1 $80 $81 $33 #
cone-surface $-1 -46.090734267064477 28.061621225401041 4.945956922708973 0 -0.57357644374324357 -0.81915203911291934 1 0 0 1 I I 0 1 1 forward I I I I #
face $-1 $82 $83 $27 $-1 $84 forward single #
loop $-1 $85 $86 $34 #
cone-surface $-1 -41.580617940747281 28.061621225401041 4.945956922708973 0 -0.57357644374324357 -0.81915203911291934 1 0 0 1 I I 0 1 1 forward I I I I #
face $-1 $87 $88 $21 $-1 $89 reversed single #
loop $-1 $-1 $90 $35 #
plane-surface $-1 0 0 -7.4825227450363254 0 0 1 1 0 0 forward_v I I I I #
coedge $-1 $91 $92 $93 $94 forward $36 $-1 #
face $-1 $95 $96 $22 $-1 $97 reversed single #
loop $-1 $-1 $98 $38 #
plane-surface $-1 -56.663107076778893 -24.693165839567918 0 0 -1 0 0 0 -1 forward_v I I I I #
coedge $-1 $99 $100 $101 $102 reversed $39 $-1 #
face $-1 $103 $104 $23 $-1 $105 reversed single #
loop $-1 $-1 $106 $41 #
plane-surface $-1 55.255357437141221 -28.173531187108107 0 0 -1 0 0 0 -1 forward_v I I I I #
coedge $-1 $107 $108 $109 $110 forward $42 $-1 #
face $-1 $111 $112 $24 $-1 $113 reversed single #
loop $-1 $-1 $114 $44 #
plane-surface $-1 -46.090734267064477 -19.898192089431475 39.573283086236458 0 0.57357644374324357 0.81915203911291934 1 0 0 forward_v I I I I #
coedge $-1 $115 $116 $117 $118 reversed $45 $-1 #
face $-1 $-1 $119 $25 $-1 $120 forward single #
loop $-1 $121 $122 $47 #
cone-surface $-1 -50.600850593381679 27.283607412155636 3.8348380674456646 0 -0.57357644374324357 -0.81915203911291934 0.5 0 0 1 I I -0.70710678118654691 0.70710678118654813 0.5 forward I I I I #
loop $-1 $-1 $123 $32 #
coedge $-1 $76 $76 $124 $125 reversed $48 $-1 #
face $-1 $-1 $126 $26 $-1 $127 forward single #
loop $-1 $128 $129 $50 #
cone-surface $-1 -46.090734267064477 27.283607412155636 3.8348380674456646 0 -0.57357644374324357 -0.81915203911291934 0.5 0 0 1 I I -0.70710678118654691 0.70710678118654813 0.5 forward I I I I #
loop $-1 $-1 $130 $33 #
coedge $-1 $81 $81 $131 $132 reversed $51 $-1 #
face $-1 $-1 $133 $27 $-1 $134 forward single #
loop $-1 $135 $136 $53 #
cone-surface $-1 -41.580617940747281 27.283607412155636 3.8348380674456646 0 -0.57357644374324357 -0.81915203911291934 0.5 0 0 1 I I -0.70710678118654691 0.70710678118654813 0.5 forward I I I I #
loop $-1 $-1 $137 $34 #
coedge $-1 $86 $86 $138 $139 reversed $54 $-1 #
face $-1 $140 $141 $21 $-1 $142 reversed single #
loop $-1 $-1 $143 $56 #
plane-surface $-1 0 -31.173531187108107 0 0 1 0 0 0 1 forward_v I I I I #
coedge $-1 $144 $145 $146 $147 forward $57 $-1 #
coedge $-1 $148 $59 $149 $150 forward $36 $-1 #
coedge $-1 $59 $148 $151 $152 forward $36 $-1 #
coedge $-1 $153 $154 $59 $94 reversed $155 $-1 #
edge $-1 $156 -31.173531187108107 $157 31.173531187108107 $93 $158 forward 7 unknown #
face $-1 $159 $160 $22 $-1 $161 reversed single #
loop $-1 $-1 $162 $60 #
plane-surface $-1 -53.607594810926479 -26.695135157889979 0 -1 0 0 0 0 1 forward_v I I I I #
coedge $-1 $163 $164 $165 $166 forward $61 $-1 #
coedge $-1 $167 $63 $168 $169 reversed $39 $-1 #
coedge $-1 $63 $167 $170 $171 reversed $39 $-1 #
coedge $-1 $172 $173 $63 $102 forward $174 $-1 #
edge $-1 $175 -7.4825227450363254 $176 7.4825227450363254 $101 $177 forward 7 unknown #
face $-1 $178 $179 $23 $-1 $180 reversed single #
loop $-1 $-1 $181 $64 #
plane-surface $-1 0 -31.173531187108107 0 0 1 0 0 0 1 forward_v I I I I #
coedge $-1 $182 $183 $184 $185 reversed $65 $-1 #
coedge $-1 $186 $67 $187 $188 reversed $42 $-1 #
coedge $-1 $67 $186 $189 $190 reversed $42 $-1 #
coedge $-1 $183 $182 $67 $110 reversed $65 $-1 #
edge $-1 $191 -7.4825227450363254 $192 7.4825227450363254 $109 $193 forward 7 unknown #
face $-1 $194 $195 $24 $-1 $196 reversed single #
loop $-1 $-1 $197 $68 #
plane-surface $-1 -38.573873723202475 48.608194526174415 137.41054070128578 -1 0 0 0 0.57357644374324357 0.81915203911291934 forward_v I I I I #
coedge $-1 $198 $199 $200 $201 reversed $69 $-1 #
coedge $-1 $116 $71 $202 $203 reversed $45 $-1 #
coedge $-1 $71 $115 $198 $204 reversed $45 $-1 #
coedge $-1 $200 $205 $71 $118 forward $206 $-1 #
edge $-1 $207 -6.8694339240208997 $208 -1.6280651833543587 $117 $209 forward 7 unknown #
loop $-1 $-1 $124 $72 #
plane-surface $-1 -46.090734267064477 -19.898192089431475 39.573283086236458 0 0.57357644374324357 0.81915203911291934 1 0 0 forward_v I I I I #
loop $-1 $-1 $210 $47 #
coedge $-1 $122 $122 $123 $211 reversed $73 $-1 #
coedge $-1 $123 $123 $122 $211 forward $75 $-1 #
coedge $-1 $124 $124 $76 $125 forward $119 $-1 #
edge $-1 $212 1.3117097625877034e-015 $212 6.2831853071796013 $124 $213 forward 7 unknown #
loop $-1 $-1 $131 $77 #
plane-surface $-1 -46.090734267064477 -19.898192089431475 39.573283086236458 0 0.57357644374324357 0.81915203911291934 1 0 0 forward_v I I I I #
loop $-1 $-1 $214 $50 #
coedge $-1 $129 $129 $130 $215 reversed $78 $-1 #
coedge $-1 $130 $130 $129 $215 forward $80 $-1 #
coedge $-1 $131 $131 $81 $132 forward $126 $-1 #
edge $-1 $216 1.3117097625877034e-015 $216 6.2831853071796013 $131 $217 forward 7 unknown #
loop $-1 $-1 $138 $82 #
plane-surface $-1 -46.090734267064477 -19.898192089431475 39.573283086236458 0 0.57357644374324357 0.81915203911291934 1 0 0 forward_v I I I I #
loop $-1 $-1 $218 $53 #
coedge $-1 $136 $136 $137 $219 reversed $83 $-1 #
coedge $-1 $137 $137 $136 $219 forward $85 $-1 #
coedge $-1 $138 $138 $86 $139 forward $133 $-1 #
edge $-1 $220 1.3117097625877034e-015 $220 6.2831853071796013 $138 $221 forward 7 unknown #
face $-1 $222 $223 $21 $-1 $224 reversed single #
loop $-1 $-1 $225 $87 #
plane-surface $-1 -59.718619342631307 0 0 1 0 0 0 0 -1 forward_v I I I I #
coedge $-1 $226 $151 $227 $228 forward $88 $-1 #
coedge $-1 $229 $90 $226 $230 forward $57 $-1 #
coedge $-1 $90 $229 $231 $232 forward $57 $-1 #
coedge $-1 $154 $153 $90 $147 reversed $155 $-1 #
edge $-1 $233 -31.173531187108107 $234 31.173531187108107 $146 $235 forward 7 unknown #
coedge $-1 $92 $91 $236 $237 forward $36 $-1 #
coedge $-1 $238 $239 $91 $150 reversed $223 $-1 #
edge $-1 $157 -59.718619342631307 $240 59.718619342631307 $149 $241 forward 7 unknown #
coedge $-1 $143 $242 $92 $152 reversed $88 $-1 #
edge $-1 $243 -59.718619342631307 $156 59.718619342631307 $151 $244 forward 7 unknown #
coedge $-1 $146 $93 $242 $245 forward $155 $-1 #
coedge $-1 $93 $146 $238 $246 reversed $155 $-1 #
loop $-1 $-1 $153 $222 #
vertex $-1 $94 $247 #
vertex $-1 $94 $248 #
straight-curve $-1 59.718619342631307 0 7.4825227450363254 0 1 0 I I #
face $-1 $249 $250 $22 $-1 $251 forward single #
loop $-1 $-1 $252 $95 #
plane-surface $-1 0 0 -7.4825227450363254 0 0 1 1 0 0 forward_v I I I I #
coedge $-1 $253 $254 $167 $255 forward $96 $-1 #
coedge $-1 $256 $98 $252 $257 reversed $61 $-1 #
coedge $-1 $98 $256 $258 $259 reversed $61 $-1 #
coedge $-1 $254 $253 $98 $166 reversed $96 $-1 #
edge $-1 $260 -7.4825227450363254 $261 7.4825227450363254 $165 $262 forward 7 unknown #
coedge $-1 $100 $99 $162 $255 reversed $39 $-1 #
coedge $-1 $263 $264 $99 $169 forward $160 $-1 #
edge $-1 $265 25.276041272537032 $175 31.38706580424186 $168 $266 forward 7 unknown #
coedge $-1 $267 $268 $100 $171 forward $250 $-1 #
edge $-1 $176 -31.38706580424186 $269 -25.276041272537032 $170 $270 forward 7 unknown #
coedge $-1 $271 $101 $268 $272 reversed $174 $-1 #
coedge $-1 $101 $271 $263 $273 reversed $174 $-1 #
loop $-1 $-1 $271 $249 #
vertex $-1 $273 $274 #
vertex $-1 $102 $275 #
straight-curve $-1 -59.718619342631307 -28.69710447621204 0 0 0 1 I I #
face $-1 $276 $277 $23 $-1 $278 forward single #
loop $-1 $-1 $187 $103 #
plane-surface $-1 0 0 -7.4825227450363254 0 0 1 1 0 0 forward_v I I I I #
coedge $-1 $279 $280 $186 $281 forward $104 $-1 #
coedge $-1 $109 $106 $282 $283 reversed $65 $-1 #
coedge $-1 $106 $109 $284 $285 reversed $65 $-1 #
coedge $-1 $286 $287 $106 $185 forward $288 $-1 #
edge $-1 $289 -7.4825227450363254 $290 7.4825227450363254 $184 $291 forward 7 unknown #
coedge $-1 $108 $107 $181 $281 reversed $42 $-1 #
coedge $-1 $282 $292 $107 $188 forward $179 $-1 #
edge $-1 $293 -16.336765593554055 $192 -13.336765593554054 $187 $294 forward 7 unknown #
coedge $-1 $295 $284 $108 $190 forward $277 $-1 #
edge $-1 $191 13.336765593554054 $296 16.336765593554055 $189 $297 forward 7 unknown #
vertex $-1 $190 $298 #
vertex $-1 $188 $299 #
straight-curve $-1 50.792095531651128 -28.173531187108107 0 0 0 -1 I I #
face $-1 $-1 $206 $24 $-1 $300 forward single #
loop $-1 $-1 $301 $111 #
plane-surface $-1 0 31.173531187108107 0 0 -1 0 0 0 -1 forward_v I I I I #
coedge $-1 $302 $303 $304 $305 reversed $112 $-1 #
coedge $-1 $306 $114 $116 $204 forward $69 $-1 #
coedge $-1 $114 $306 $302 $307 forward $69 $-1 #
coedge $-1 $304 $117 $114 $201 forward $206 $-1 #
edge $-1 $208 -30.56222767739424 $308 -15.528506589670236 $200 $309 forward 7 unknown #
coedge $-1 $310 $311 $115 $203 forward $195 $-1 #
edge $-1 $312 -64.892793578847559 $207 -61.222747605606564 $202 $313 forward 7 unknown #
edge $-1 $208 55.948532564850723 $312 62.347062374216222 $116 $314 forward 7 unknown #
coedge $-1 $117 $304 $310 $315 forward $206 $-1 #
loop $-1 $-1 $304 $194 #
vertex $-1 $203 $316 #
vertex $-1 $118 $317 #
straight-curve $-1 -53.607594810926479 24.304097263087208 7.4825227450363201 0 -1 0 I I #
coedge $-1 $210 $210 $-1 $318 reversed $121 $-1 #
edge $-1 $319 0 $319 6.2831853071796004 $122 $320 forward 7 unknown #
vertex $-1 $125 $321 #
ellipse-curve $-1 -50.600850593381679 28.552846816774831 5.6474997584158331 0 0.57357644374324357 0.81915203911291934 1 0 0 1 I I #
coedge $-1 $214 $214 $-1 $322 reversed $128 $-1 #
edge $-1 $323 0 $323 6.2831853071796004 $129 $324 forward 7 unknown #
vertex $-1 $132 $325 #
ellipse-curve $-1 -46.090734267064477 28.552846816774831 5.6474997584158331 0 0.57357644374324357 0.81915203911291934 1 0 0 1 I I #
coedge $-1 $218 $218 $-1 $326 reversed $135 $-1 #
edge $-1 $327 0 $327 6.2831853071796004 $136 $328 forward 7 unknown #
vertex $-1 $139 $329 #
ellipse-curve $-1 -41.580617940747281 28.552846816774831 5.6474997584158331 0 0.57357644374324357 0.81915203911291934 1 0 0 1 I I #
face $-1 $-1 $155 $21 $-1 $330 reversed single #
loop $-1 $-1 $238 $140 #
plane-surface $-1 0 31.173531187108107 0 0 -1 0 0 0 -1 forward_v I I I I #
coedge $-1 $331 $236 $239 $332 forward $141 $-1 #
coedge $-1 $242 $143 $144 $230 reversed $88 $-1 #
coedge $-1 $236 $331 $143 $228 reversed $141 $-1 #
edge $-1 $243 -7.4825227450363254 $333 7.4825227450363254 $227 $334 forward 7 unknown #
coedge $-1 $145 $144 $331 $335 forward $57 $-1 #
edge $-1 $234 -59.718619342631307 $333 59.718619342631307 $226 $336 forward 7 unknown #
coedge $-1 $239 $238 $145 $232 reversed $223 $-1 #
edge $-1 $337 -59.718619342631307 $233 59.718619342631307 $231 $338 forward 7 unknown #
vertex $-1 $147 $339 #
vertex $-1 $245 $340 #
straight-curve $-1 59.718619342631307 0 -7.4825227450363254 0 -1 0 I I #
coedge $-1 $225 $227 $148 $237 reversed $141 $-1 #
edge $-1 $240 -31.173531187108107 $243 31.173531187108107 $236 $341 forward 7 unknown #
coedge $-1 $231 $149 $154 $246 forward $223 $-1 #
coedge $-1 $149 $231 $225 $332 reversed $223 $-1 #
vertex $-1 $150 $342 #
straight-curve $-1 0 31.173531187108107 7.4825227450363254 -1 0 0 I I #
coedge $-1 $151 $226 $153 $245 reversed $88 $-1 #
vertex $-1 $237 $343 #
straight-curve $-1 0 -31.173531187108107 7.4825227450363254 1 0 0 I I #
edge $-1 $156 -7.4825227450363254 $234 7.4825227450363254 $153 $344 forward 7 unknown #
edge $-1 $157 -7.4825227450363254 $233 7.4825227450363254 $154 $345 forward 7 unknown #
point $-1 59.718619342631307 -31.173531187108107 7.4825227450363254 #
point $-1 59.718619342631307 31.173531187108107 7.4825227450363254 #
face $-1 $-1 $174 $22 $-1 $346 reversed single #
loop $-1 $-1 $258 $159 #
plane-surface $-1 0 0 7.4825227450363254 0 0 1 1 0 0 forward_v I I I I #
coedge $-1 $264 $263 $163 $257 forward $160 $-1 #
coedge $-1 $165 $162 $264 $347 reversed $96 $-1 #
coedge $-1 $162 $165 $267 $348 reversed $96 $-1 #
edge $-1 $269 -7.4825227450363254 $265 7.4825227450363254 $162 $349 forward 7 unknown #
coedge $-1 $164 $163 $271 $350 reversed $61 $-1 #
edge $-1 $351 -31.38706580424186 $261 -25.276041272537032 $252 $352 forward 7 unknown #
coedge $-1 $268 $267 $164 $259 forward $250 $-1 #
edge $-1 $260 25.276041272537032 $353 31.38706580424186 $258 $354 forward 7 unknown #
vertex $-1 $259 $355 #
vertex $-1 $257 $356 #
straight-curve $-1 -53.607594810926479 -24.693165839567918 0 0 0 -1 I I #
coedge $-1 $252 $168 $173 $273 forward $160 $-1 #
coedge $-1 $168 $252 $253 $347 forward $160 $-1 #
vertex $-1 $169 $357 #
straight-curve $-1 -28.331553538389446 -28.69710447621204 -7.4825227450363254 -1 0 0 I I #
coedge $-1 $258 $170 $254 $348 forward $250 $-1 #
coedge $-1 $170 $258 $172 $272 forward $250 $-1 #
vertex $-1 $171 $358 #
straight-curve $-1 -28.331553538389446 -28.69710447621204 7.4825227450363254 1 0 0 I I #
coedge $-1 $173 $172 $256 $350 forward $174 $-1 #
edge $-1 $353 24.693165839567918 $176 28.69710447621204 $172 $359 forward 7 unknown #
edge $-1 $175 -28.69710447621204 $351 -24.693165839567918 $173 $360 forward 7 unknown #
point $-1 -59.718619342631307 -28.69710447621204 -7.4825227450363254 #
point $-1 -59.718619342631307 -28.69710447621204 7.4825227450363254 #
face $-1 $-1 $288 $23 $-1 $361 reversed single #
loop $-1 $-1 $189 $178 #
plane-surface $-1 0 0 7.4825227450363254 0 0 1 1 0 0 forward_v I I I I #
coedge $-1 $362 $181 $292 $363 reversed $104 $-1 #
coedge $-1 $181 $362 $295 $364 reversed $104 $-1 #
edge $-1 $296 -7.4825227450363254 $293 7.4825227450363254 $181 $365 forward 7 unknown #
coedge $-1 $366 $187 $182 $283 forward $179 $-1 #
edge $-1 $192 23.164416813080518 $289 32.090940624060707 $282 $367 forward 7 unknown #
coedge $-1 $189 $368 $183 $285 forward $277 $-1 #
edge $-1 $290 -32.090940624060707 $191 -23.164416813080518 $284 $369 forward 7 unknown #
coedge $-1 $370 $184 $368 $371 reversed $288 $-1 #
coedge $-1 $184 $370 $366 $372 reversed $288 $-1 #
loop $-1 $-1 $184 $276 #
vertex $-1 $372 $373 #
vertex $-1 $185 $374 #
straight-curve $-1 59.718619342631307 -28.173531187108107 0 0 0 1 I I #
coedge $-1 $187 $366 $279 $363 forward $179 $-1 #
vertex $-1 $281 $375 #
straight-curve $-1 50.792095531651128 -14.836765593554054 -7.4825227450363254 0 1 0 I I #
coedge $-1 $368 $189 $280 $364 forward $277 $-1 #
vertex $-1 $364 $376 #
straight-curve $-1 50.792095531651128 -14.836765593554054 7.4825227450363254 0 -1 0 I I #
point $-1 50.792095531651128 -28.173531187108107 7.4825227450363254 #
point $-1 50.792095531651128 -28.173531187108107 -7.4825227450363254 #
plane-surface $-1 0 0 7.4825227450363254 0 0 1 1 0 0 forward_v I I I I #
coedge $-1 $311 $310 $303 $377 forward $195 $-1 #
coedge $-1 $303 $197 $199 $307 reversed $112 $-1 #
coedge $-1 $197 $302 $301 $377 reversed $112 $-1 #
coedge $-1 $205 $200 $197 $305 forward $206 $-1 #
edge $-1 $308 1.6280651833543587 $378 6.8694339240208997 $304 $379 forward 7 unknown #
coedge $-1 $199 $198 $311 $380 reversed $69 $-1 #
edge $-1 $381 -62.347062374216222 $308 -55.948532564850723 $302 $382 forward 7 unknown #
vertex $-1 $201 $383 #
straight-curve $-1 -23.045367133532238 25.932162446441566 7.4825227450363272 1 0 0 I I #
coedge $-1 $301 $202 $205 $315 reversed $195 $-1 #
coedge $-1 $202 $301 $306 $380 forward $195 $-1 #
vertex $-1 $203 $384 #
straight-curve $-1 -53.607594810926479 31.173531187108107 68.705270350642891 0 0 1 I I #
straight-curve $-1 -53.607594810926479 -19.898192089431475 39.573283086236458 0 0.81915203911291934 -0.57357644374324357 I I #
edge $-1 $378 38.573873723202475 $207 53.607594810926479 $310 $385 forward 7 unknown #
point $-1 -53.607594810926479 31.173531187108107 7.4825227450363254 #
point $-1 -53.607594810926479 25.932162446441566 7.4825227450363272 #
edge $-1 $386 1 $386 0 $210 $-1 forward 7 unknown #
vertex $-1 $211 $387 #
ellipse-curve $-1 -50.600850593381679 27.570395634027257 4.2444140870021254 0 0.57357644374324357 0.81915203911291934 1 0 0 1 I I #
point $-1 -49.600850593381679 28.552846816774824 5.6474997584158206 #
edge $-1 $388 1 $388 0 $214 $-1 forward 7 unknown #
vertex $-1 $215 $389 #
ellipse-curve $-1 -46.090734267064477 27.570395634027257 4.2444140870021254 0 0.57357644374324357 0.81915203911291934 1 0 0 1 I I #
point $-1 -45.090734267064477 28.552846816774824 5.6474997584158206 #
edge $-1 $390 1 $390 0 $218 $-1 forward 7 unknown #
vertex $-1 $219 $391 #
ellipse-curve $-1 -41.580617940747281 27.570395634027257 4.2444140870021254 0 0.57357644374324357 0.81915203911291934 1 0 0 1 I I #
point $-1 -40.580617940747281 28.552846816774824 5.6474997584158206 #
plane-surface $-1 59.718619342631307 0 0 -1 0 0 0 0 1 forward_v I I I I #
coedge $-1 $227 $225 $229 $335 reversed $141 $-1 #
edge $-1 $240 -7.4825227450363254 $337 7.4825227450363254 $239 $392 forward 7 unknown #
vertex $-1 $335 $393 #
straight-curve $-1 -59.718619342631307 -31.173531187108107 0 0 0 -1 I I #
edge $-1 $333 -31.173531187108107 $337 31.173531187108107 $331 $394 forward 7 unknown #
straight-curve $-1 0 -31.173531187108107 -7.4825227450363254 -1 0 0 I I #
vertex $-1 $232 $395 #
straight-curve $-1 0 31.173531187108107 -7.4825227450363254 1 0 0 I I #
point $-1 59.718619342631307 31.173531187108107 -7.4825227450363254 #
point $-1 59.718619342631307 -31.173531187108107 -7.4825227450363254 #
straight-curve $-1 -59.718619342631307 0 7.4825227450363254 0 -1 0 I I #
point $-1 -59.718619342631307 31.173531187108107 7.4825227450363254 #
point $-1 -59.718619342631307 -31.173531187108107 7.4825227450363254 #
straight-curve $-1 59.718619342631307 -31.173531187108107 0 0 0 -1 I I #
straight-curve $-1 59.718619342631307 31.173531187108107 0 0 0 -1 I I #
plane-surface $-1 -59.718619342631307 0 0 1 0 0 0 0 -1 forward_v I I I I #
edge $-1 $261 11.345598260622928 $265 15.349536897267051 $264 $396 forward 7 unknown #
edge $-1 $269 -15.349536897267051 $260 -11.345598260622928 $267 $397 forward 7 unknown #
straight-curve $-1 -53.607594810926479 -28.69710447621204 0 0 0 -1 I I #
edge $-1 $353 -7.4825227450363254 $351 7.4825227450363254 $271 $398 forward 7 unknown #
vertex $-1 $350 $399 #
straight-curve $-1 -28.331553538389446 -24.693165839567918 -7.4825227450363254 1 0 0 I I #
vertex $-1 $272 $400 #
straight-curve $-1 -28.331553538389446 -24.693165839567918 7.4825227450363254 -1 0 0 I I #
point $-1 -53.607594810926479 -24.693165839567918 7.4825227450363254 #
point $-1 -53.607594810926479 -24.693165839567918 -7.4825227450363254 #
point $-1 -53.607594810926479 -28.69710447621204 -7.4825227450363254 #
point $-1 -53.607594810926479 -28.69710447621204 7.4825227450363254 #
straight-curve $-1 -59.718619342631307 0 7.4825227450363254 0 -1 0 I I #
straight-curve $-1 -59.718619342631307 0 -7.4825227450363254 0 1 0 I I #
plane-surface $-1 59.718619342631307 0 0 -1 0 0 0 0 1 forward_v I I I I #
coedge $-1 $280 $279 $370 $401 reversed $104 $-1 #
edge $-1 $402 -59.718619342631307 $293 -50.792095531651128 $279 $403 forward 7 unknown #
edge $-1 $296 50.792095531651128 $404 59.718619342631307 $280 $405 forward 7 unknown #
straight-curve $-1 50.792095531651128 -31.173531187108107 0 0 0 -1 I I #
coedge $-1 $292 $282 $287 $372 forward $179 $-1 #
straight-curve $-1 27.627678718570611 -28.173531187108107 -7.4825227450363254 1 0 0 I I #
coedge $-1 $284 $295 $286 $371 forward $277 $-1 #
straight-curve $-1 27.627678718570611 -28.173531187108107 7.4825227450363254 -1 0 0 I I #
coedge $-1 $287 $286 $362 $401 forward $288 $-1 #
edge $-1 $404 -31.173531187108107 $290 -28.173531187108107 $286 $406 forward 7 unknown #
edge $-1 $289 28.173531187108107 $402 31.173531187108107 $287 $407 forward 7 unknown #
point $-1 59.718619342631314 -28.173531187108107 -7.4825227450363254 #
point $-1 59.718619342631314 -28.173531187108107 7.4825227450363254 #
point $-1 50.792095531651128 -31.173531187108107 -7.4825227450363254 #
point $-1 50.792095531651128 -31.173531187108107 7.4825227450363254 #
edge $-1 $378 61.222747605606564 $381 64.892793578847559 $301 $408 forward 7 unknown #
vertex $-1 $315 $409 #
straight-curve $-1 -38.573873723202475 24.304097263087208 7.4825227450363201 0 1 0 I I #
edge $-1 $381 15.528506589670236 $312 30.56222767739424 $311 $410 forward 7 unknown #
vertex $-1 $380 $411 #
straight-curve $-1 -38.573873723202475 -19.898192089431475 39.573283086236458 0 -0.81915203911291934 0.57357644374324357 I I #
point $-1 -38.573873723202475 25.932162446441566 7.4825227450363272 #
point $-1 -53.607594810926479 31.173531187108111 3.8124767717953318 #
straight-curve $-1 0 31.173531187108107 7.4825227450363254 -1 0 0 I I #
vertex $-1 $318 $412 #
point $-1 -49.600850593381679 27.570395634027257 4.2444140870021254 #
vertex $-1 $322 $413 #
point $-1 -45.090734267064477 27.570395634027257 4.2444140870021254 #
vertex $-1 $326 $414 #
point $-1 -40.580617940747281 27.570395634027257 4.2444140870021254 #
straight-curve $-1 -59.718619342631307 31.173531187108107 0 0 0 -1 I I #
point $-1 -59.718619342631307 -31.173531187108107 -7.4825227450363254 #
straight-curve $-1 -59.718619342631307 0 -7.4825227450363254 0 1 0 I I #
point $-1 -59.718619342631307 31.173531187108107 -7.4825227450363254 #
straight-curve $-1 -53.607594810926479 -13.347567578944989 -7.4825227450363254 0 -1 0 I I #
straight-curve $-1 -53.607594810926479 -13.347567578944989 7.4825227450363254 0 1 0 I I #
straight-curve $-1 -59.718619342631307 -24.693165839567918 0 0 0 -1 I I #
point $-1 -59.718619342631307 -24.693165839567918 -7.4825227450363254 #
point $-1 -59.718619342631307 -24.693165839567918 7.4825227450363254 #
edge $-1 $404 -7.4825227450363254 $402 7.4825227450363254 $370 $415 forward 7 unknown #
vertex $-1 $401 $416 #
straight-curve $-1 0 -31.173531187108107 -7.4825227450363254 -1 0 0 I I #
vertex $-1 $371 $417 #
straight-curve $-1 0 -31.173531187108107 7.4825227450363254 1 0 0 I I #
straight-curve $-1 59.718619342631307 0 7.4825227450363254 0 1 0 I I #
straight-curve $-1 59.718619342631307 0 -7.4825227450363254 0 -1 0 I I #
straight-curve $-1 -38.573873723202475 31.173531187108107 68.705270350642891 0 0 -1 I I #
point $-1 -38.573873723202475 31.173531187108107 7.4825227450363254 #
straight-curve $-1 -23.045367133532238 31.173531187108111 3.8124767717953318 -1 0 0 I I #
point $-1 -38.573873723202475 31.173531187108111 3.8124767717953318 #
point $-1 -50.600850593381679 26.996819190284015 3.4252620478892042 #
point $-1 -46.090734267064477 26.996819190284015 3.4252620478892042 #
point $-1 -41.580617940747281 26.996819190284015 3.4252620478892042 #
straight-curve $-1 59.718619342631307 -31.173531187108107 0 0 0 -1 I I #
point $-1 59.718619342631307 -31.173531187108107 -7.4825227450363254 #
point $-1 59.718619342631307 -31.173531187108107 7.4825227450363254 #
End-of-ACIS-data 