500 0 15 0           
7 Unknown 11 ACIS 5.0 NT 24 Fri Mar 26 15:08:34 1999 
-1 9.9999999999999995e-007 1e-010 
body $-1 $15 $-1 $16 #
body $-1 $17 $-1 $18 #
body $-1 $19 $-1 $20 #
body $-1 $21 $-1 $22 #
body $-1 $23 $-1 $24 #
body $-1 $25 $-1 $26 #
body $-1 $27 $-1 $28 #
body $-1 $29 $-1 $30 #
body $-1 $31 $-1 $32 #
body $-1 $33 $-1 $34 #
body $-1 $35 $-1 $36 #
body $-1 $37 $-1 $38 #
body $-1 $39 $-1 $40 #
body $-1 $41 $-1 $42 #
body $-1 $43 $-1 $44 #
lump $-1 $-1 $45 $0 #
transform $-1 1 0 0 0 1 0 0 0 1 52.764061403241065 22.32347970944155 5.2055872100549925 1 rotate no_reflect no_shear #
lump $-1 $-1 $46 $1 #
transform $-1 1 0 0 0 1 0 0 0 1 52.764061403241065 22.32347970944155 5.2055872100549925 1 rotate no_reflect no_shear #
lump $-1 $-1 $47 $2 #
transform $-1 1 0 0 0 1 0 0 0 1 52.764061403241065 22.32347970944155 5.2055872100549925 1 rotate no_reflect no_shear #
lump $-1 $-1 $48 $3 #
transform $-1 1 0 0 0 1 0 0 0 1 52.764061403241065 22.32347970944155 5.2055872100549925 1 rotate no_reflect no_shear #
lump $-1 $-1 $49 $4 #
transform $-1 1 0 0 0 1 0 0 0 1 52.764061403241065 22.32347970944155 5.2055872100549925 1 rotate no_reflect no_shear #
lump $-1 $-1 $50 $5 #
transform $-1 1 0 0 0 1 0 0 0 1 52.764061403241065 22.32347970944155 5.2055872100549925 1 rotate no_reflect no_shear #
lump $-1 $-1 $51 $6 #
transform $-1 1 0 0 0 1 0 0 0 1 52.764061403241065 22.32347970944155 5.2055872100549925 1 rotate no_reflect no_shear #
lump $-1 $-1 $52 $7 #
transform $-1 1 0 0 0 1 0 0 0 1 52.764061403241065 22.32347970944155 5.2055872100549925 1 rotate no_reflect no_shear #
lump $-1 $-1 $53 $8 #
transform $-1 1 0 0 0 1 0 0 0 1 52.764061403241065 22.32347970944155 5.2055872100549925 1 rotate no_reflect no_shear #
lump $-1 $-1 $54 $9 #
transform $-1 1 0 0 0 1 0 0 0 1 52.764061403241065 22.32347970944155 5.2055872100549925 1 rotate no_reflect no_shear #
lump $-1 $-1 $55 $10 #
transform $-1 1 0 0 0 1 0 0 0 1 52.764061403241065 22.32347970944155 5.2055872100549925 1 rotate no_reflect no_shear #
lump $-1 $-1 $56 $11 #
transform $-1 1 0 0 0 1 0 0 0 1 52.764061403241065 22.32347970944155 5.2055872100549925 1 rotate no_reflect no_shear #
lump $-1 $-1 $57 $12 #
transform $-1 1 0 0 0 1 0 0 0 1 52.764061403241065 22.32347970944155 5.2055872100549925 1 rotate no_reflect no_shear #
lump $-1 $-1 $58 $13 #
transform $-1 1 0 0 0 1 0 0 0 1 52.764061403241065 22.32347970944155 5.2055872100549925 1 rotate no_reflect no_shear #
lump $-1 $-1 $59 $14 #
transform $-1 1 0 0 0 1 0 0 0 1 52.764061403241065 22.32347970944155 5.2055872100549925 1 rotate no_reflect no_shear #
shell $-1 $-1 $-1 $60 $-1 $15 #
shell $-1 $-1 $-1 $61 $-1 $17 #
shell $-1 $-1 $-1 $62 $-1 $19 #
shell $-1 $-1 $-1 $63 $-1 $21 #
shell $-1 $-1 $-1 $64 $-1 $23 #
shell $-1 $-1 $-1 $65 $-1 $25 #
shell $-1 $-1 $-1 $66 $-1 $27 #
shell $-1 $-1 $-1 $67 $-1 $29 #
shell $-1 $-1 $-1 $68 $-1 $31 #
shell $-1 $-1 $-1 $69 $-1 $33 #
shell $-1 $-1 $-1 $70 $-1 $35 #
shell $-1 $-1 $-1 $71 $-1 $37 #
shell $-1 $-1 $-1 $72 $-1 $39 #
shell $-1 $-1 $-1 $73 $-1 $41 #
shell $-1 $-1 $-1 $74 $-1 $43 #
face $-1 $75 $76 $45 $-1 $77 forward single #
face $-1 $78 $79 $46 $-1 $80 reversed single #
face $-1 $81 $82 $47 $-1 $83 forward single #
face $-1 $84 $85 $48 $-1 $86 reversed single #
face $-1 $87 $88 $49 $-1 $89 forward single #
face $-1 $90 $91 $50 $-1 $92 forward single #
face $-1 $93 $94 $51 $-1 $95 forward single #
face $-1 $96 $97 $52 $-1 $98 reversed single #
face $-1 $99 $100 $53 $-1 $101 forward single #
face $-1 $102 $103 $54 $-1 $104 forward single #
face $-1 $105 $106 $55 $-1 $107 forward single #
face $-1 $108 $109 $56 $-1 $110 reversed single #
face $-1 $111 $112 $57 $-1 $113 forward single #
face $-1 $114 $115 $58 $-1 $116 reversed single #
face $-1 $117 $118 $59 $-1 $119 forward single #
face $-1 $120 $121 $45 $-1 $122 reversed single #
loop $-1 $-1 $123 $60 #
plane-surface $-1 0 0 5.2055872100549925 0 0 1 1 0 0 forward_v I I I I #
face $-1 $124 $125 $46 $-1 $126 reversed single #
loop $-1 $-1 $127 $61 #
plane-surface $-1 -51.264061403241065 -16.652241308870245 0 0 -1 0 0 0 -1 forward_v I I I I #
face $-1 $128 $129 $47 $-1 $130 reversed single #
loop $-1 $-1 $131 $62 #
plane-surface $-1 0 22.32347970944155 0 0 -1 0 0 0 -1 forward_v I I I I #
face $-1 $132 $133 $48 $-1 $134 reversed single #
loop $-1 $-1 $135 $63 #
plane-surface $-1 -105.5281235133872 -7.7696234322658748 91.858049767151101 0 1 0 -0.50000000669873634 0 0.8660253999169214 forward_v I I I I #
face $-1 $136 $137 $49 $-1 $138 forward single #
loop $-1 $139 $140 $64 #
cone-surface $-1 -48.335914432812338 -6.2215704613583291 2.2733837558813192 0.50000000669873634 0 -0.8660253999169214 0.4330126999584607 0 0.25000000334936817 1 I I 0 1 0.5 forward I I I I #
face $-1 $141 $142 $50 $-1 $143 forward single #
loop $-1 $144 $145 $65 #
cone-surface $-1 -48.335914432812338 -3.8994910049970102 2.2733837558813192 0.50000000669873634 0 -0.8660253999169214 0.4330126999584607 0 0.25000000334936817 1 I I 0 1 0.5 forward I I I I #
face $-1 $146 $147 $51 $-1 $148 forward single #
loop $-1 $149 $150 $66 #
cone-surface $-1 -48.335914432812338 -1.5774115486356912 2.2733837558813192 0.50000000669873634 0 -0.8660253999169214 0.4330126999584607 0 0.25000000334936817 1 I I 0 1 0.5 forward I I I I #
face $-1 $151 $152 $52 $-1 $153 reversed single #
loop $-1 $-1 $154 $67 #
plane-surface $-1 -52.764061403241065 -3.8994910049970102 0.46801501118541466 -0.50000000669873634 0 0.8660253999169214 0.8660253999169214 0 0.50000000669873634 forward_v I I I I #
face $-1 $155 $156 $53 $-1 $157 forward single #
loop $-1 $158 $159 $68 #
cone-surface $-1 -48.335914432812338 1.5186943931794019 2.2733837558813192 0.50000000669873634 0 -0.8660253999169214 0.4330126999584607 0 0.25000000334936817 1 I I 0 1 0.5 forward I I I I #
face $-1 $160 $161 $54 $-1 $162 forward single #
loop $-1 $163 $164 $69 #
cone-surface $-1 -48.335914432812338 3.8407738495407209 2.2733837558813192 0.50000000669873634 0 -0.8660253999169214 0.4330126999584607 0 0.25000000334936817 1 I I 0 1 0.5 forward I I I I #
face $-1 $165 $166 $55 $-1 $167 forward single #
loop $-1 $168 $169 $70 #
cone-surface $-1 -48.335914432812338 6.1628533059020398 2.2733837558813192 0.50000000669873634 0 -0.8660253999169214 0.4330126999584607 0 0.25000000334936817 1 I I 0 1 0.5 forward I I I I #
face $-1 $170 $171 $56 $-1 $172 reversed single #
loop $-1 $-1 $173 $71 #
plane-surface $-1 91.390037394171287 -0.029358577728146429 146.17733704648001 0 -1 0 -0.86602541151947299 0 -0.49999998660252726 forward_v I I I I #
face $-1 $174 $175 $57 $-1 $176 forward single #
loop $-1 $177 $178 $72 #
cone-surface $-1 51.412384531925042 -3.6437771785803399 3.3644141500702043 -0.86602541151947299 0 -0.49999998660252726 0.24999999330126363 0 -0.43301270575973649 1 I I 0 1 0.5 forward I I I I #
face $-1 $179 $180 $58 $-1 $181 reversed single #
loop $-1 $-1 $182 $73 #
plane-surface $-1 91.390037394171287 7.1994786239762405 146.17733704648001 0 -1 0 -0.86602541151947299 0 -0.49999998660252726 forward_v I I I I #
face $-1 $183 $184 $59 $-1 $185 forward single #
loop $-1 $186 $187 $74 #
cone-surface $-1 51.412384531925042 3.585060023124047 3.3644141500702043 -0.86602541151947299 0 -0.49999998660252726 0.24999999330126363 0 -0.43301270575973649 1 I I 0 1 0.5 forward I I I I #
face $-1 $188 $189 $45 $-1 $190 reversed single #
loop $-1 $-1 $191 $75 #
plane-surface $-1 0 0 -5.2055872100549925 0 0 1 1 0 0 forward_v I I I I #
coedge $-1 $192 $193 $194 $195 forward $76 $-1 #
face $-1 $196 $197 $46 $-1 $198 forward single #
loop $-1 $-1 $199 $78 #
plane-surface $-1 -49.764061403241065 -19.487860509155897 0 -1 0 0 0 0 1 forward_v I I I I #
coedge $-1 $200 $201 $202 $203 forward $79 $-1 #
face $-1 $204 $205 $47 $-1 $206 reversed single #
loop $-1 $-1 $207 $81 #
plane-surface $-1 -52.764061403241065 0 0 1 0 0 0 0 -1 forward_v I I I I #
coedge $-1 $208 $209 $210 $211 forward $82 $-1 #
face $-1 $212 $213 $48 $-1 $214 reversed single #
loop $-1 $-1 $215 $84 #
plane-surface $-1 -52.764061403241065 -3.8994910049970102 0.46801501118541466 -0.50000000669873634 0 0.8660253999169214 0.8660253999169214 0 0.50000000669873634 forward_v I I I I #
coedge $-1 $216 $217 $218 $219 reversed $85 $-1 #
face $-1 $-1 $220 $49 $-1 $221 forward single #
loop $-1 $222 $223 $87 #
cone-surface $-1 -47.885625263902313 -6.2215704613583291 1.4934600511632059 0.50000000669873634 0 -0.8660253999169214 0.21650634997923035 0 0.12500000167468409 1 I I -0.70710678118654746 0.70710678118654746 0.25 forward I I I I #
loop $-1 $-1 $224 $64 #
coedge $-1 $140 $140 $225 $226 reversed $88 $-1 #
face $-1 $-1 $227 $50 $-1 $228 forward single #
loop $-1 $229 $230 $90 #
cone-surface $-1 -47.885625263902313 -3.8994910049970102 1.4934600511632059 0.50000000669873634 0 -0.8660253999169214 0.21650634997923035 0 0.12500000167468409 1 I I -0.70710678118654746 0.70710678118654746 0.25 forward I I I I #
loop $-1 $-1 $231 $65 #
coedge $-1 $145 $145 $232 $233 reversed $91 $-1 #
face $-1 $-1 $234 $51 $-1 $235 forward single #
loop $-1 $236 $237 $93 #
cone-surface $-1 -47.885625263902313 -1.5774115486356912 1.4934600511632059 0.50000000669873634 0 -0.8660253999169214 0.21650634997923035 0 0.12500000167468409 1 I I -0.70710678118654746 0.70710678118654746 0.25 forward I I I I #
loop $-1 $-1 $238 $66 #
coedge $-1 $150 $150 $239 $240 reversed $94 $-1 #
face $-1 $241 $242 $52 $-1 $243 forward single #
loop $-1 $-1 $244 $96 #
plane-surface $-1 -105.5281235133872 7.7109062768095855 91.858049767151101 0 -1 0 0.50000000669873634 0 -0.8660253999169214 forward_v I I I I #
coedge $-1 $245 $246 $247 $248 reversed $97 $-1 #
face $-1 $-1 $249 $53 $-1 $250 forward single #
loop $-1 $251 $252 $99 #
cone-surface $-1 -47.885625263902313 1.5186943931794019 1.4934600511632059 0.50000000669873634 0 -0.8660253999169214 0.21650634997923035 0 0.12500000167468409 1 I I -0.70710678118654746 0.70710678118654746 0.25 forward I I I I #
loop $-1 $-1 $253 $68 #
coedge $-1 $159 $159 $254 $255 reversed $100 $-1 #
face $-1 $-1 $256 $54 $-1 $257 forward single #
loop $-1 $258 $259 $102 #
cone-surface $-1 -47.885625263902313 3.8407738495407209 1.4934600511632059 0.50000000669873634 0 -0.8660253999169214 0.21650634997923035 0 0.12500000167468409 1 I I -0.70710678118654746 0.70710678118654746 0.25 forward I I I I #
loop $-1 $-1 $260 $69 #
coedge $-1 $164 $164 $261 $262 reversed $103 $-1 #
face $-1 $-1 $263 $55 $-1 $264 forward single #
loop $-1 $265 $266 $105 #
cone-surface $-1 -47.885625263902313 6.1628533059020398 1.4934600511632059 0.50000000669873634 0 -0.8660253999169214 0.21650634997923035 0 0.12500000167468409 1 I I -0.70710678118654746 0.70710678118654746 0.25 forward I I I I #
loop $-1 $-1 $267 $70 #
coedge $-1 $169 $169 $268 $269 reversed $106 $-1 #
face $-1 $270 $271 $56 $-1 $272 reversed single #
loop $-1 $-1 $273 $108 #
plane-surface $-1 1.413810110761915e-006 -3.6437771785803399 93.413277057049086 0.86602541151947299 0 0.49999998660252726 0.49999998660252726 0 -0.86602541151947299 forward_v I I I I #
coedge $-1 $274 $275 $276 $277 reversed $109 $-1 #
face $-1 $-1 $278 $57 $-1 $279 forward single #
loop $-1 $280 $281 $111 #
cone-surface $-1 50.762865473285437 -3.6437771785803399 2.9894141601183088 -0.86602541151947299 0 -0.49999998660252726 0.12499999665063181 0 -0.21650635287986825 1 I I -0.70710678118654746 0.70710678118654746 0.25 forward I I I I #
loop $-1 $-1 $282 $72 #
coedge $-1 $178 $178 $283 $284 reversed $112 $-1 #
face $-1 $285 $286 $58 $-1 $287 forward single #
loop $-1 $-1 $288 $114 #
plane-surface $-1 1.413810110761915e-006 -3.6437771785803399 93.413277057049086 0.86602541151947299 0 0.49999998660252726 0.49999998660252726 0 -0.86602541151947299 forward_v I I I I #
coedge $-1 $289 $290 $291 $292 reversed $115 $-1 #
face $-1 $-1 $293 $59 $-1 $294 forward single #
loop $-1 $295 $296 $117 #
cone-surface $-1 50.762865473285437 3.585060023124047 2.9894141601183088 -0.86602541151947299 0 -0.49999998660252726 0.12499999665063181 0 -0.21650635287986825 1 I I -0.70710678118654746 0.70710678118654746 0.25 forward I I I I #
loop $-1 $-1 $297 $74 #
coedge $-1 $187 $187 $298 $299 reversed $118 $-1 #
face $-1 $300 $301 $45 $-1 $302 reversed single #
loop $-1 $-1 $303 $120 #
plane-surface $-1 0 -22.32347970944155 0 0 1 0 0 0 1 forward_v I I I I #
coedge $-1 $304 $305 $306 $307 forward $121 $-1 #
coedge $-1 $308 $123 $309 $310 forward $76 $-1 #
coedge $-1 $123 $308 $311 $312 forward $76 $-1 #
coedge $-1 $313 $314 $123 $195 reversed $315 $-1 #
edge $-1 $316 -22.32347970944155 $317 22.32347970944155 $194 $318 forward 7 unknown #
face $-1 $319 $320 $46 $-1 $321 reversed single #
loop $-1 $-1 $322 $124 #
plane-surface $-1 0 0 5.2055872100549925 0 0 1 1 0 0 forward_v I I I I #
coedge $-1 $323 $324 $325 $326 reversed $125 $-1 #
coedge $-1 $327 $127 $328 $329 reversed $79 $-1 #
coedge $-1 $127 $327 $330 $331 reversed $79 $-1 #
coedge $-1 $324 $323 $127 $203 reversed $125 $-1 #
edge $-1 $332 -5.2055872100549925 $333 5.2055872100549925 $202 $334 forward 7 unknown #
face $-1 $335 $336 $47 $-1 $337 reversed single #
loop $-1 $-1 $338 $128 #
plane-surface $-1 0 25.188457487455345 2.2055872100549925 0 0 1 1 0 0 forward_v I I I I #
coedge $-1 $339 $340 $209 $341 forward $129 $-1 #
coedge $-1 $342 $131 $343 $344 reversed $82 $-1 #
coedge $-1 $131 $342 $207 $341 reversed $82 $-1 #
coedge $-1 $345 $338 $131 $211 reversed $205 $-1 #
edge $-1 $346 -52.764061403241065 $347 52.764061403241065 $210 $348 forward 7 unknown #
face $-1 $349 $350 $48 $-1 $351 forward single #
loop $-1 $-1 $352 $132 #
plane-surface $-1 -105.5281235133872 -0.029358577728145541 91.858049767151101 0 -1 0 0.50000000669873634 0 -0.8660253999169214 forward_v I I I I #
coedge $-1 $353 $354 $355 $356 reversed $133 $-1 #
coedge $-1 $217 $135 $357 $358 reversed $85 $-1 #
coedge $-1 $135 $216 $353 $359 reversed $85 $-1 #
coedge $-1 $355 $360 $135 $219 forward $350 $-1 #
edge $-1 $361 3.534525347959061e-007 $362 8.205715959839317 $218 $363 forward 7 unknown #
loop $-1 $-1 $225 $136 #
plane-surface $-1 -52.764061403241065 -3.8994910049970102 0.46801501118541466 -0.50000000669873634 0 0.8660253999169214 0.8660253999169214 0 0.50000000669873634 forward_v I I I I #
loop $-1 $-1 $364 $87 #
coedge $-1 $223 $223 $224 $365 reversed $137 $-1 #
coedge $-1 $224 $224 $223 $365 forward $139 $-1 #
coedge $-1 $225 $225 $140 $226 forward $220 $-1 #
edge $-1 $366 0 $366 6.2831853071796004 $225 $367 forward 7 unknown #
loop $-1 $-1 $232 $141 #
plane-surface $-1 -52.764061403241065 -3.8994910049970102 0.46801501118541466 -0.50000000669873634 0 0.8660253999169214 0.8660253999169214 0 0.50000000669873634 forward_v I I I I #
loop $-1 $-1 $368 $90 #
coedge $-1 $230 $230 $231 $369 reversed $142 $-1 #
coedge $-1 $231 $231 $230 $369 forward $144 $-1 #
coedge $-1 $232 $232 $145 $233 forward $227 $-1 #
edge $-1 $370 0 $370 6.2831853071796004 $232 $371 forward 7 unknown #
loop $-1 $-1 $239 $146 #
plane-surface $-1 -52.764061403241065 -3.8994910049970102 0.46801501118541466 -0.50000000669873634 0 0.8660253999169214 0.8660253999169214 0 0.50000000669873634 forward_v I I I I #
loop $-1 $-1 $372 $93 #
coedge $-1 $237 $237 $238 $373 reversed $147 $-1 #
coedge $-1 $238 $238 $237 $373 forward $149 $-1 #
coedge $-1 $239 $239 $150 $240 forward $234 $-1 #
edge $-1 $374 0 $374 6.2831853071796004 $239 $375 forward 7 unknown #
face $-1 $376 $377 $52 $-1 $378 forward single #
loop $-1 $-1 $379 $151 #
plane-surface $-1 0 0 5.2055872100549925 0 0 1 1 0 0 forward_v I I I I #
coedge $-1 $380 $381 $382 $383 reversed $152 $-1 #
coedge $-1 $384 $154 $385 $386 reversed $97 $-1 #
coedge $-1 $154 $384 $379 $387 reversed $97 $-1 #
coedge $-1 $388 $389 $154 $248 forward $377 $-1 #
edge $-1 $390 0 $391 9.4751442707961715 $247 $392 forward 7 unknown #
loop $-1 $-1 $254 $155 #
plane-surface $-1 -52.764061403241065 -3.8994910049970102 0.46801501118541466 -0.50000000669873634 0 0.8660253999169214 0.8660253999169214 0 0.50000000669873634 forward_v I I I I #
loop $-1 $-1 $393 $99 #
coedge $-1 $252 $252 $253 $394 reversed $156 $-1 #
coedge $-1 $253 $253 $252 $394 forward $158 $-1 #
coedge $-1 $254 $254 $159 $255 forward $249 $-1 #
edge $-1 $395 0 $395 6.2831853071796004 $254 $396 forward 7 unknown #
loop $-1 $-1 $261 $160 #
plane-surface $-1 -52.764061403241065 -3.8994910049970102 0.46801501118541466 -0.50000000669873634 0 0.8660253999169214 0.8660253999169214 0 0.50000000669873634 forward_v I I I I #
loop $-1 $-1 $397 $102 #
coedge $-1 $259 $259 $260 $398 reversed $161 $-1 #
coedge $-1 $260 $260 $259 $398 forward $163 $-1 #
coedge $-1 $261 $261 $164 $262 forward $256 $-1 #
edge $-1 $399 0 $399 6.2831853071796004 $261 $400 forward 7 unknown #
loop $-1 $-1 $268 $165 #
plane-surface $-1 -52.764061403241065 -3.8994910049970102 0.46801501118541466 -0.50000000669873634 0 0.8660253999169214 0.8660253999169214 0 0.50000000669873634 forward_v I I I I #
loop $-1 $-1 $401 $105 #
coedge $-1 $266 $266 $267 $402 reversed $166 $-1 #
coedge $-1 $267 $267 $266 $402 forward $168 $-1 #
coedge $-1 $268 $268 $169 $269 forward $263 $-1 #
edge $-1 $403 0 $403 6.2831853071796004 $268 $404 forward 7 unknown #
face $-1 $405 $406 $56 $-1 $407 reversed single #
loop $-1 $-1 $408 $170 #
plane-surface $-1 91.390037394171287 -7.2581957794325334 146.17733704648001 0 1 0 0.86602541151947299 0 0.49999998660252726 forward_v I I I I #
coedge $-1 $409 $410 $411 $412 reversed $171 $-1 #
coedge $-1 $275 $173 $413 $414 reversed $109 $-1 #
coedge $-1 $173 $274 $409 $415 reversed $109 $-1 #
coedge $-1 $411 $416 $173 $277 forward $417 $-1 #
edge $-1 $418 -7.0690427061554217 $419 -5.2317143750428272 $276 $420 forward 7 unknown #
loop $-1 $-1 $283 $174 #
plane-surface $-1 1.413810110761915e-006 -3.6437771785803399 93.413277057049086 0.86602541151947299 0 0.49999998660252726 0.49999998660252726 0 -0.86602541151947299 forward_v I I I I #
loop $-1 $-1 $421 $111 #
coedge $-1 $281 $281 $282 $422 reversed $175 $-1 #
coedge $-1 $282 $282 $281 $422 forward $177 $-1 #
coedge $-1 $283 $283 $178 $284 forward $278 $-1 #
edge $-1 $423 0 $423 6.2831853071796004 $283 $424 forward 7 unknown #
face $-1 $425 $426 $58 $-1 $427 forward single #
loop $-1 $-1 $428 $179 #
plane-surface $-1 0 0 5.2055872100549925 0 0 1 1 0 0 forward_v I I I I #
coedge $-1 $429 $430 $431 $432 reversed $180 $-1 #
coedge $-1 $290 $182 $433 $434 reversed $115 $-1 #
coedge $-1 $182 $289 $428 $435 reversed $115 $-1 #
coedge $-1 $436 $437 $182 $292 forward $438 $-1 #
edge $-1 $439 -71.06542744655215 $440 -67.883081313185016 $291 $441 forward 7 unknown #
loop $-1 $-1 $298 $183 #
plane-surface $-1 1.413810110761915e-006 -3.6437771785803399 93.413277057049086 0.86602541151947299 0 0.49999998660252726 0.49999998660252726 0 -0.86602541151947299 forward_v I I I I #
loop $-1 $-1 $442 $117 #
coedge $-1 $296 $296 $297 $443 reversed $184 $-1 #
coedge $-1 $297 $297 $296 $443 forward $186 $-1 #
coedge $-1 $298 $298 $187 $299 forward $293 $-1 #
edge $-1 $444 0 $444 6.2831853071796004 $298 $445 forward 7 unknown #
face $-1 $446 $447 $45 $-1 $448 reversed single #
loop $-1 $-1 $449 $188 #
plane-surface $-1 -52.764061403241065 0 0 1 0 0 0 0 -1 forward_v I I I I #
coedge $-1 $450 $311 $451 $452 forward $189 $-1 #
coedge $-1 $453 $191 $450 $454 forward $121 $-1 #
coedge $-1 $191 $453 $455 $456 forward $121 $-1 #
coedge $-1 $314 $313 $191 $307 reversed $315 $-1 #
edge $-1 $457 -22.32347970944155 $458 22.32347970944155 $306 $459 forward 7 unknown #
coedge $-1 $193 $192 $460 $461 forward $76 $-1 #
coedge $-1 $462 $463 $192 $310 reversed $447 $-1 #
edge $-1 $317 -52.764061403241065 $464 52.764061403241065 $309 $465 forward 7 unknown #
coedge $-1 $303 $466 $193 $312 reversed $189 $-1 #
edge $-1 $467 -52.764061403241065 $316 52.764061403241065 $311 $468 forward 7 unknown #
coedge $-1 $306 $194 $466 $469 forward $315 $-1 #
coedge $-1 $194 $306 $462 $470 reversed $315 $-1 #
loop $-1 $-1 $313 $446 #
vertex $-1 $195 $471 #
vertex $-1 $195 $472 #
straight-curve $-1 52.764061403241065 0 5.2055872100549925 0 1 0 I I #
face $-1 $473 $474 $46 $-1 $475 reversed single #
loop $-1 $-1 $476 $196 #
plane-surface $-1 -52.764061403241065 0 0 1 0 0 0 0 -1 forward_v I I I I #
coedge $-1 $330 $477 $324 $478 forward $197 $-1 #
coedge $-1 $202 $199 $479 $480 reversed $125 $-1 #
coedge $-1 $199 $202 $322 $478 reversed $125 $-1 #
coedge $-1 $481 $482 $199 $326 forward $483 $-1 #
edge $-1 $484 -5.2055872100549925 $485 5.2055872100549925 $325 $486 forward 7 unknown #
coedge $-1 $201 $200 $476 $487 reversed $79 $-1 #
coedge $-1 $479 $488 $200 $329 forward $474 $-1 #
edge $-1 $489 -27.132030701620533 $333 -24.132030701620533 $328 $490 forward 7 unknown #
coedge $-1 $491 $322 $201 $331 forward $197 $-1 #
edge $-1 $332 24.132030701620533 $492 27.132030701620533 $330 $493 forward 7 unknown #
vertex $-1 $331 $494 #
vertex $-1 $329 $495 #
straight-curve $-1 -49.764061403241065 -16.652241308870245 0 0 0 -1 I I #
face $-1 $496 $497 $47 $-1 $498 forward single #
loop $-1 $-1 $499 $204 #
plane-surface $-1 0 28.053435265469144 3.7055872100549925 0 -1 0 0 0 -1 forward_v I I I I #
coedge $-1 $210 $500 $501 $502 forward $205 $-1 #
coedge $-1 $503 $207 $504 $505 reversed $129 $-1 #
coedge $-1 $207 $503 $345 $506 reversed $129 $-1 #
edge $-1 $346 2.2055872100549925 $507 5.2055872100549925 $207 $508 forward 7 unknown #
coedge $-1 $209 $208 $509 $510 reversed $82 $-1 #
coedge $-1 $501 $511 $208 $344 forward $512 $-1 #
edge $-1 $513 -5.2055872100549925 $347 -2.2055872100549925 $343 $514 forward 7 unknown #
coedge $-1 $500 $210 $340 $506 forward $205 $-1 #
vertex $-1 $341 $515 #
vertex $-1 $344 $516 #
straight-curve $-1 0 22.32347970944155 2.2055872100549925 1 0 0 I I #
face $-1 $-1 $517 $48 $-1 $518 reversed single #
loop $-1 $-1 $218 $212 #
plane-surface $-1 0 0 5.2055872100549925 0 0 1 1 0 0 forward_v I I I I #
coedge $-1 $519 $520 $521 $522 reversed $213 $-1 #
coedge $-1 $523 $215 $217 $359 forward $133 $-1 #
coedge $-1 $215 $523 $519 $524 forward $133 $-1 #
coedge $-1 $521 $218 $215 $356 forward $350 $-1 #
edge $-1 $362 -5.8198779297673697 $525 1.9203869247703595 $355 $526 forward 7 unknown #
coedge $-1 $527 $528 $216 $358 forward $517 $-1 #
edge $-1 $529 -45.461009872390136 $361 -40.723437673520557 $357 $530 forward 7 unknown #
edge $-1 $362 -9.4751442707961715 $529 0 $217 $531 forward 7 unknown #
coedge $-1 $218 $521 $527 $532 forward $350 $-1 #
vertex $-1 $219 $533 #
vertex $-1 $219 $534 #
straight-curve $-1 -52.7640617566936 -7.7696234322658748 5.2055872100549934 1 0 0 I I #
coedge $-1 $364 $364 $-1 $535 reversed $222 $-1 #
edge $-1 $536 0 $536 6.2831853071796004 $223 $537 forward 7 unknown #
vertex $-1 $226 $538 #
ellipse-curve $-1 -48.661203600047678 -6.2215704613583291 2.8368011106202031 -0.50000000669873634 0 0.8660253999169214 0.4330126999584607 0 0.25000000334936817 1 I I #
coedge $-1 $368 $368 $-1 $539 reversed $229 $-1 #
edge $-1 $540 0 $540 6.2831853071796004 $230 $541 forward 7 unknown #
vertex $-1 $233 $542 #
ellipse-curve $-1 -48.661203600047678 -3.8994910049970102 2.8368011106202031 -0.50000000669873634 0 0.8660253999169214 0.4330126999584607 0 0.25000000334936817 1 I I #
coedge $-1 $372 $372 $-1 $543 reversed $236 $-1 #
edge $-1 $544 0 $544 6.2831853071796004 $237 $545 forward 7 unknown #
vertex $-1 $240 $546 #
ellipse-curve $-1 -48.661203600047678 -1.5774115486356912 2.8368011106202031 -0.50000000669873634 0 0.8660253999169214 0.4330126999584607 0 0.25000000334936817 1 I I #
face $-1 $-1 $547 $52 $-1 $548 reversed single #
loop $-1 $-1 $388 $241 #
plane-surface $-1 -105.5281235133872 -0.029358577728145541 91.858049767151101 0 -1 0 0.50000000669873634 0 -0.8660253999169214 forward_v I I I I #
coedge $-1 $382 $549 $246 $387 forward $242 $-1 #
coedge $-1 $381 $244 $384 $550 reversed $152 $-1 #
coedge $-1 $244 $380 $551 $552 reversed $152 $-1 #
coedge $-1 $553 $379 $244 $383 forward $242 $-1 #
edge $-1 $554 -8.205715959839317 $555 -3.534525347959061e-007 $382 $556 forward 7 unknown #
coedge $-1 $246 $245 $380 $550 forward $97 $-1 #
coedge $-1 $557 $551 $245 $386 forward $547 $-1 #
edge $-1 $558 -9.6606517793080897 $390 -1.9203869247703595 $385 $559 forward 7 unknown #
edge $-1 $391 1.9203869247703595 $554 9.6606517793080897 $379 $560 forward 7 unknown #
coedge $-1 $389 $247 $549 $561 reversed $377 $-1 #
coedge $-1 $247 $388 $557 $562 reversed $377 $-1 #
vertex $-1 $386 $563 #
vertex $-1 $387 $564 #
straight-curve $-1 -52.764061403241065 -0.029358577728145541 0.46801501118541466 0.8660253999169214 0 0.50000000669873634 I I #
coedge $-1 $393 $393 $-1 $565 reversed $251 $-1 #
edge $-1 $566 0 $566 6.2831853071796004 $252 $567 forward 7 unknown #
vertex $-1 $255 $568 #
ellipse-curve $-1 -48.661203600047678 1.5186943931794019 2.8368011106202031 -0.50000000669873634 0 0.8660253999169214 0.4330126999584607 0 0.25000000334936817 1 I I #
coedge $-1 $397 $397 $-1 $569 reversed $258 $-1 #
edge $-1 $570 0 $570 6.2831853071796004 $259 $571 forward 7 unknown #
vertex $-1 $262 $572 #
ellipse-curve $-1 -48.661203600047678 3.8407738495407209 2.8368011106202031 -0.50000000669873634 0 0.8660253999169214 0.4330126999584607 0 0.25000000334936817 1 I I #
coedge $-1 $401 $401 $-1 $573 reversed $265 $-1 #
edge $-1 $574 0 $574 6.2831853071796004 $266 $575 forward 7 unknown #
vertex $-1 $269 $576 #
ellipse-curve $-1 -48.661203600047678 6.1628533059020398 2.8368011106202031 -0.50000000669873634 0 0.8660253999169214 0.4330126999584607 0 0.25000000334936817 1 I I #
face $-1 $-1 $417 $56 $-1 $577 forward single #
loop $-1 $-1 $578 $270 #
plane-surface $-1 52.764061403241065 0 0 -1 0 0 0 0 1 forward_v I I I I #
coedge $-1 $579 $580 $581 $582 reversed $271 $-1 #
coedge $-1 $583 $273 $275 $415 forward $171 $-1 #
coedge $-1 $273 $583 $579 $584 forward $171 $-1 #
coedge $-1 $581 $276 $273 $412 forward $417 $-1 #
edge $-1 $419 -1.7925300115620235 $585 5.4363071901423634 $411 $586 forward 7 unknown #
coedge $-1 $587 $588 $274 $414 forward $406 $-1 #
edge $-1 $589 -71.06542744655215 $418 -67.883081313185016 $413 $590 forward 7 unknown #
edge $-1 $419 101.85346604579478 $589 105.5281228064822 $275 $591 forward 7 unknown #
coedge $-1 $276 $581 $587 $592 forward $417 $-1 #
loop $-1 $-1 $581 $405 #
vertex $-1 $414 $593 #
vertex $-1 $277 $594 #
straight-curve $-1 45.695018697085644 -0.029358577728146429 5.2055872100549863 -1 0 0 I I #
coedge $-1 $421 $421 $-1 $595 reversed $280 $-1 #
edge $-1 $596 0 $596 6.2831853071796004 $281 $597 forward 7 unknown #
vertex $-1 $284 $598 #
ellipse-curve $-1 51.84539723768475 -3.6437771785803399 3.6144141433714503 0.86602541151947299 0 0.49999998660252726 0.24999999330126363 0 -0.43301270575973649 1 I I #
face $-1 $-1 $438 $58 $-1 $599 reversed single #
loop $-1 $-1 $600 $285 #
plane-surface $-1 91.390037394171287 -0.029358577728146429 146.17733704648001 0 -1 0 -0.86602541151947299 0 -0.49999998660252726 forward_v I I I I #
coedge $-1 $601 $602 $290 $435 forward $286 $-1 #
coedge $-1 $433 $288 $601 $603 reversed $180 $-1 #
coedge $-1 $288 $433 $437 $604 reversed $180 $-1 #
coedge $-1 $605 $600 $288 $432 forward $426 $-1 #
edge $-1 $606 101.85346604579478 $607 105.5281228064822 $431 $608 forward 7 unknown #
coedge $-1 $430 $429 $289 $434 forward $180 $-1 #
edge $-1 $609 101.85346604579478 $439 105.5281228064822 $289 $610 forward 7 unknown #
edge $-1 $440 -7.0690427061554217 $609 -5.2317143750428272 $428 $611 forward 7 unknown #
coedge $-1 $612 $291 $602 $613 reversed $438 $-1 #
coedge $-1 $291 $612 $430 $604 forward $438 $-1 #
loop $-1 $-1 $291 $425 #
vertex $-1 $292 $614 #
vertex $-1 $435 $615 #
straight-curve $-1 52.764061403241065 7.1994786239762405 73.088668523240003 0 0 1 I I #
coedge $-1 $442 $442 $-1 $616 reversed $295 $-1 #
edge $-1 $617 0 $617 6.2831853071796004 $296 $618 forward 7 unknown #
vertex $-1 $299 $619 #
ellipse-curve $-1 51.84539723768475 3.585060023124047 3.6144141433714503 0.86602541151947299 0 0.49999998660252726 0.24999999330126363 0 -0.43301270575973649 1 I I #
face $-1 $-1 $315 $45 $-1 $620 reversed single #
loop $-1 $-1 $462 $300 #
plane-surface $-1 0 22.32347970944155 0 0 -1 0 0 0 -1 forward_v I I I I #
coedge $-1 $621 $460 $463 $622 forward $301 $-1 #
coedge $-1 $466 $303 $304 $454 reversed $189 $-1 #
coedge $-1 $460 $621 $303 $452 reversed $301 $-1 #
edge $-1 $467 -5.2055872100549925 $623 5.2055872100549925 $451 $624 forward 7 unknown #
coedge $-1 $305 $304 $621 $625 forward $121 $-1 #
edge $-1 $458 -52.764061403241065 $623 52.764061403241065 $450 $626 forward 7 unknown #
coedge $-1 $463 $462 $305 $456 reversed $447 $-1 #
edge $-1 $627 -52.764061403241065 $457 52.764061403241065 $455 $628 forward 7 unknown #
vertex $-1 $307 $629 #
vertex $-1 $469 $630 #
straight-curve $-1 52.764061403241065 0 -5.2055872100549925 0 -1 0 I I #
coedge $-1 $449 $451 $308 $461 reversed $301 $-1 #
edge $-1 $464 -22.32347970944155 $467 22.32347970944155 $460 $631 forward 7 unknown #
coedge $-1 $455 $309 $314 $470 forward $447 $-1 #
coedge $-1 $309 $455 $449 $622 reversed $447 $-1 #
vertex $-1 $310 $632 #
straight-curve $-1 0 22.32347970944155 5.2055872100549925 -1 0 0 I I #
coedge $-1 $311 $450 $313 $469 reversed $189 $-1 #
vertex $-1 $461 $633 #
straight-curve $-1 0 -22.32347970944155 5.2055872100549925 1 0 0 I I #
edge $-1 $316 -5.2055872100549925 $458 5.2055872100549925 $313 $634 forward 7 unknown #
edge $-1 $317 -5.2055872100549925 $457 5.2055872100549925 $314 $635 forward 7 unknown #
point $-1 52.764061403241065 -22.32347970944155 5.2055872100549925 #
point $-1 52.764061403241065 22.32347970944155 5.2055872100549925 #
face $-1 $-1 $483 $46 $-1 $636 reversed single #
loop $-1 $-1 $479 $319 #
plane-surface $-1 0 0 -5.2055872100549925 0 0 1 1 0 0 forward_v I I I I #
coedge $-1 $637 $638 $327 $487 forward $320 $-1 #
coedge $-1 $322 $491 $481 $639 forward $197 $-1 #
edge $-1 $485 -12.579549454863601 $332 -6.9083110542922963 $322 $640 forward 7 unknown #
coedge $-1 $641 $328 $323 $480 forward $474 $-1 #
edge $-1 $333 6.9083110542922963 $484 12.579549454863601 $479 $642 forward 7 unknown #
coedge $-1 $643 $325 $477 $639 reversed $483 $-1 #
coedge $-1 $325 $643 $641 $644 reversed $483 $-1 #
loop $-1 $-1 $325 $473 #
vertex $-1 $644 $645 #
vertex $-1 $326 $646 #
straight-curve $-1 -49.764061403241065 -22.32347970944155 0 0 0 1 I I #
edge $-1 $492 -5.2055872100549925 $489 5.2055872100549925 $476 $647 forward 7 unknown #
coedge $-1 $328 $641 $637 $648 forward $474 $-1 #
vertex $-1 $329 $649 #
straight-curve $-1 -25.632030701620533 -16.652241308870245 -5.2055872100549925 1 0 0 I I #
coedge $-1 $477 $330 $638 $650 forward $197 $-1 #
vertex $-1 $650 $651 #
straight-curve $-1 -25.632030701620533 -16.652241308870245 5.2055872100549925 -1 0 0 I I #
point $-1 -49.764061403241065 -16.652241308870245 5.2055872100549925 #
point $-1 -49.764061403241065 -16.652241308870245 -5.2055872100549925 #
face $-1 $-1 $512 $47 $-1 $652 reversed single #
loop $-1 $-1 $509 $335 #
plane-surface $-1 0 0 5.2055872100549925 0 0 1 1 0 0 forward_v I I I I #
coedge $-1 $653 $654 $655 $656 forward $336 $-1 #
coedge $-1 $338 $345 $653 $657 forward $205 $-1 #
coedge $-1 $655 $343 $338 $502 reversed $512 $-1 #
edge $-1 $658 -2.8649777780137988 $347 2.8649777780137988 $501 $659 forward 7 unknown #
coedge $-1 $340 $339 $660 $661 forward $129 $-1 #
coedge $-1 $509 $662 $339 $505 forward $497 $-1 #
edge $-1 $663 -28.053435265469144 $507 -22.32347970944155 $339 $664 forward 7 unknown #
edge $-1 $346 -2.8649777780137988 $665 2.8649777780137988 $340 $666 forward 7 unknown #
vertex $-1 $341 $667 #
straight-curve $-1 -52.764061403241065 22.32347970944155 0 0 0 1 I I #
coedge $-1 $668 $504 $342 $510 forward $497 $-1 #
edge $-1 $507 -52.764061403241065 $513 52.764061403241065 $509 $669 forward 7 unknown #
coedge $-1 $343 $655 $668 $670 reversed $512 $-1 #
loop $-1 $-1 $343 $496 #
vertex $-1 $670 $671 #
straight-curve $-1 52.764061403241065 22.32347970944155 0 0 0 -1 I I #
point $-1 -52.764061403241065 22.323479709441546 2.2055872100549925 #
point $-1 52.764061403241065 22.323479709441546 2.2055872100549925 #
loop $-1 $-1 $357 $349 #
plane-surface $-1 -52.764061403241065 0 0 1 0 0 0 0 -1 forward_v I I I I #
coedge $-1 $520 $352 $354 $524 reversed $213 $-1 #
coedge $-1 $352 $519 $672 $673 reversed $213 $-1 #
coedge $-1 $360 $355 $352 $522 forward $350 $-1 #
edge $-1 $525 -8.205715959839317 $674 -3.534525347959061e-007 $521 $675 forward 7 unknown #
coedge $-1 $354 $353 $528 $676 reversed $133 $-1 #
edge $-1 $677 0 $525 9.4751442707961715 $519 $678 forward 7 unknown #
vertex $-1 $356 $679 #
straight-curve $-1 -44.558345796854283 -1.9497455024985051 5.2055872100549925 0 1 0 I I #
coedge $-1 $672 $357 $360 $532 reversed $517 $-1 #
coedge $-1 $357 $672 $523 $676 forward $517 $-1 #
vertex $-1 $358 $680 #
straight-curve $-1 -52.764061403241065 -7.7696234322658748 45.929024883575551 0 0 1 I I #
straight-curve $-1 -52.764061403241065 -7.7696234322658748 0.46801501118541466 -0.8660253999169214 0 -0.50000000669873634 I I #
edge $-1 $674 0.029358577728145541 $361 7.7696234322658748 $527 $681 forward 7 unknown #
point $-1 -52.764061403241065 -7.7696234322658748 5.2055872100549925 #
point $-1 -44.558345796854283 -7.7696234322658748 5.2055872100549925 #
edge $-1 $682 1 $682 0 $364 $-1 forward 7 unknown #
vertex $-1 $365 $683 #
ellipse-curve $-1 -48.010625265576998 -6.2215704613583291 1.7099664011424363 -0.50000000669873634 0 0.8660253999169214 0.4330126999584607 0 0.25000000334936817 1 I I #
point $-1 -48.22819090008921 -6.2215704613583291 3.0868011139695701 #
edge $-1 $684 1 $684 0 $368 $-1 forward 7 unknown #
vertex $-1 $369 $685 #
ellipse-curve $-1 -48.010625265576998 -3.8994910049970102 1.7099664011424363 -0.50000000669873634 0 0.8660253999169214 0.4330126999584607 0 0.25000000334936817 1 I I #
point $-1 -48.22819090008921 -3.8994910049970102 3.0868011139695701 #
edge $-1 $686 1 $686 0 $372 $-1 forward 7 unknown #
vertex $-1 $373 $687 #
ellipse-curve $-1 -48.010625265576998 -1.5774115486356912 1.7099664011424363 -0.50000000669873634 0 0.8660253999169214 0.4330126999584607 0 0.25000000334936817 1 I I #
point $-1 -48.22819090008921 -1.5774115486356912 3.0868011139695701 #
loop $-1 $-1 $385 $376 #
plane-surface $-1 -52.764061403241065 0 0 1 0 0 0 0 -1 forward_v I I I I #
coedge $-1 $379 $553 $388 $561 forward $242 $-1 #
edge $-1 $558 0 $554 9.4751442707961715 $380 $688 forward 7 unknown #
coedge $-1 $385 $689 $381 $552 forward $547 $-1 #
edge $-1 $555 40.723437673520557 $558 45.461009872390136 $551 $690 forward 7 unknown #
coedge $-1 $549 $382 $689 $691 forward $242 $-1 #
vertex $-1 $383 $692 #
vertex $-1 $691 $693 #
straight-curve $-1 -52.7640617566936 7.7109062768095855 5.2055872100549934 -1 0 0 I I #
coedge $-1 $689 $385 $389 $562 forward $547 $-1 #
vertex $-1 $552 $694 #
straight-curve $-1 -52.764061403241065 -1.9497455024985051 0.46801501118541472 0 -1 0 I I #
straight-curve $-1 -44.558345796854283 -1.9497455024985051 5.2055872100549925 0 1 0 I I #
edge $-1 $695 3.534525347959061e-007 $391 8.205715959839317 $549 $696 forward 7 unknown #
edge $-1 $390 -45.461009872390136 $695 -40.723437673520557 $557 $697 forward 7 unknown #
point $-1 -52.764061403241065 -0.029358577728145541 0.46801501118541466 #
point $-1 -44.558345796854283 -0.029358577728145541 5.2055872100549925 #
edge $-1 $698 1 $698 0 $393 $-1 forward 7 unknown #
vertex $-1 $394 $699 #
ellipse-curve $-1 -48.010625265576998 1.5186943931794019 1.7099664011424363 -0.50000000669873634 0 0.8660253999169214 0.4330126999584607 0 0.25000000334936817 1 I I #
point $-1 -48.22819090008921 1.5186943931794019 3.0868011139695701 #
edge $-1 $700 1 $700 0 $397 $-1 forward 7 unknown #
vertex $-1 $398 $701 #
ellipse-curve $-1 -48.010625265576998 3.8407738495407209 1.7099664011424363 -0.50000000669873634 0 0.8660253999169214 0.4330126999584607 0 0.25000000334936817 1 I I #
point $-1 -48.22819090008921 3.8407738495407209 3.0868011139695701 #
edge $-1 $702 1 $702 0 $401 $-1 forward 7 unknown #
vertex $-1 $402 $703 #
ellipse-curve $-1 -48.010625265576998 6.1628533059020398 1.7099664011424363 -0.50000000669873634 0 0.8660253999169214 0.4330126999584607 0 0.25000000334936817 1 I I #
point $-1 -48.22819090008921 6.1628533059020398 3.0868011139695701 #
plane-surface $-1 0 0 5.2055872100549925 0 0 1 1 0 0 forward_v I I I I #
coedge $-1 $588 $587 $580 $704 forward $406 $-1 #
coedge $-1 $580 $408 $410 $584 reversed $271 $-1 #
coedge $-1 $408 $579 $578 $704 reversed $271 $-1 #
coedge $-1 $416 $411 $408 $582 forward $417 $-1 #
edge $-1 $585 5.2317143750428272 $705 7.0690427061554217 $581 $706 forward 7 unknown #
coedge $-1 $410 $409 $588 $707 reversed $171 $-1 #
edge $-1 $708 -105.5281228064822 $585 -101.85346604579478 $579 $709 forward 7 unknown #
vertex $-1 $412 $710 #
straight-curve $-1 50.926733072128464 -1.8218885892901699 5.2055872100549934 0 -1 0 I I #
coedge $-1 $578 $413 $416 $592 reversed $406 $-1 #
coedge $-1 $413 $578 $583 $707 forward $406 $-1 #
vertex $-1 $414 $711 #
straight-curve $-1 52.764061403241065 -0.029358577728146429 73.088668523240003 0 0 1 I I #
straight-curve $-1 1.413810110761915e-006 -0.029358577728146429 93.413277057049086 0.49999998660252726 0 -0.86602541151947299 I I #
edge $-1 $705 -7.2581957794325334 $418 -0.029358577728146429 $587 $712 forward 7 unknown #
point $-1 52.764061403241065 -0.029358577728146429 5.2055872100549925 #
point $-1 50.926733072128471 -0.029358577728146429 5.2055872100549863 #
edge $-1 $713 1 $713 0 $421 $-1 forward 7 unknown #
vertex $-1 $422 $714 #
ellipse-curve $-1 50.979371826165305 -3.6437771785803399 3.1144141567689405 0.86602541151947299 0 0.49999998660252726 0.24999999330126363 0 -0.43301270575973649 1 I I #
point $-1 52.095397230986045 -3.6437771785803399 3.1814014376117314 #
plane-surface $-1 52.764061403241065 0 0 -1 0 0 0 0 1 forward_v I I I I #
coedge $-1 $431 $605 $715 $716 reversed $426 $-1 #
coedge $-1 $715 $428 $429 $603 forward $286 $-1 #
coedge $-1 $428 $715 $436 $613 forward $286 $-1 #
edge $-1 $609 -9.0213672132664104 $606 -1.7925300115620235 $601 $717 forward 7 unknown #
edge $-1 $607 1.7925300115620235 $439 9.0213672132664104 $437 $718 forward 7 unknown #
coedge $-1 $600 $431 $612 $719 reversed $426 $-1 #
vertex $-1 $603 $720 #
vertex $-1 $604 $721 #
straight-curve $-1 1.413810110761915e-006 -0.029358577728146429 93.413277057049086 0.49999998660252726 0 -0.86602541151947299 I I #
vertex $-1 $435 $722 #
straight-curve $-1 1.413810110761915e-006 7.1994786239762405 93.413277057049086 0.49999998660252726 0 -0.86602541151947299 I I #
straight-curve $-1 45.695018697085644 7.1994786239762405 5.2055872100549863 -1 0 0 I I #
coedge $-1 $437 $436 $605 $719 forward $438 $-1 #
edge $-1 $723 -0.029358577728146429 $440 7.1994786239762405 $436 $724 forward 7 unknown #
point $-1 52.764061403241065 7.1994786239762405 2.023241076687853 #
point $-1 52.764061403241065 7.1994786239762405 5.2055872100549925 #
edge $-1 $725 1 $725 0 $442 $-1 forward 7 unknown #
vertex $-1 $443 $726 #
ellipse-curve $-1 50.979371826165305 3.585060023124047 3.1144141567689405 0.86602541151947299 0 0.49999998660252726 0.24999999330126363 0 -0.43301270575973649 1 I I #
point $-1 52.095397230986045 3.585060023124047 3.1814014376117314 #
plane-surface $-1 52.764061403241065 0 0 -1 0 0 0 0 1 forward_v I I I I #
coedge $-1 $451 $449 $453 $625 reversed $301 $-1 #
edge $-1 $464 -5.2055872100549925 $627 5.2055872100549925 $463 $727 forward 7 unknown #
vertex $-1 $625 $728 #
straight-curve $-1 -52.764061403241065 -22.32347970944155 0 0 0 -1 I I #
edge $-1 $623 -22.32347970944155 $627 22.32347970944155 $621 $729 forward 7 unknown #
straight-curve $-1 0 -22.32347970944155 -5.2055872100549925 -1 0 0 I I #
vertex $-1 $456 $730 #
straight-curve $-1 0 22.32347970944155 -5.2055872100549925 1 0 0 I I #
point $-1 52.764061403241065 22.32347970944155 -5.2055872100549925 #
point $-1 52.764061403241065 -22.32347970944155 -5.2055872100549925 #
straight-curve $-1 -52.764061403241065 0 5.2055872100549925 0 -1 0 I I #
point $-1 -52.764061403241065 22.32347970944155 5.2055872100549925 #
point $-1 -52.764061403241065 -22.32347970944155 5.2055872100549925 #
straight-curve $-1 52.764061403241065 -22.32347970944155 0 0 0 -1 I I #
straight-curve $-1 52.764061403241065 22.32347970944155 0 0 0 -1 I I #
plane-surface $-1 0 -22.32347970944155 0 0 1 0 0 0 1 forward_v I I I I #
coedge $-1 $731 $476 $488 $648 reversed $320 $-1 #
coedge $-1 $476 $731 $491 $650 reversed $320 $-1 #
edge $-1 $732 -52.764061403241065 $485 -49.764061403241065 $481 $733 forward 7 unknown #
straight-curve $-1 -49.764061403241065 -9.7439302545779487 5.2055872100549925 0 1 0 I I #
coedge $-1 $488 $479 $482 $644 forward $474 $-1 #
straight-curve $-1 -49.764061403241065 -9.7439302545779487 -5.2055872100549925 0 -1 0 I I #
coedge $-1 $482 $481 $731 $734 forward $483 $-1 #
edge $-1 $484 49.764061403241065 $735 52.764061403241065 $482 $736 forward 7 unknown #
point $-1 -49.764061403241065 -22.32347970944155 -5.2055872100549925 #
point $-1 -49.764061403241065 -22.32347970944155 5.2055872100549925 #
straight-curve $-1 -52.764061403241065 -16.652241308870245 0 0 0 -1 I I #
edge $-1 $735 -22.32347970944155 $489 -16.652241308870245 $637 $737 forward 7 unknown #
point $-1 -52.764061403241065 -16.652241308870245 -5.2055872100549925 #
edge $-1 $492 16.652241308870245 $732 22.32347970944155 $638 $738 forward 7 unknown #
point $-1 -52.764061403241065 -16.652241308870245 5.2055872100549925 #
plane-surface $-1 52.764061403241065 0 0 -1 0 0 0 0 1 forward_v I I I I #
coedge $-1 $660 $499 $500 $657 reversed $336 $-1 #
coedge $-1 $499 $660 $662 $739 reversed $336 $-1 #
coedge $-1 $511 $501 $499 $656 reversed $512 $-1 #
edge $-1 $740 -1.5 $658 1.5 $655 $741 forward 7 unknown #
edge $-1 $665 -52.764061403241065 $658 52.764061403241065 $653 $742 forward 7 unknown #
vertex $-1 $502 $743 #
straight-curve $-1 52.764061403241065 25.188457487455345 2.2055872100549925 0 -1 0 I I #
coedge $-1 $654 $653 $503 $661 reversed $336 $-1 #
edge $-1 $663 -1.5 $665 1.5 $660 $744 forward 7 unknown #
coedge $-1 $504 $668 $654 $739 forward $497 $-1 #
vertex $-1 $739 $745 #
straight-curve $-1 -52.764061403241065 0 5.2055872100549925 0 -1 0 I I #
vertex $-1 $657 $746 #
straight-curve $-1 -52.764061403241065 25.188457487455345 2.2055872100549925 0 1 0 I I #
point $-1 -52.764061403241065 22.32347970944155 5.2055872100549925 #
coedge $-1 $662 $509 $511 $670 forward $497 $-1 #
straight-curve $-1 0 22.32347970944155 5.2055872100549925 1 0 0 I I #
edge $-1 $513 22.32347970944155 $740 28.053435265469144 $511 $747 forward 7 unknown #
point $-1 52.764061403241065 22.32347970944155 5.2055872100549925 #
coedge $-1 $528 $527 $520 $673 forward $517 $-1 #
edge $-1 $674 40.723437673520557 $677 45.461009872390136 $672 $748 forward 7 unknown #
vertex $-1 $532 $749 #
straight-curve $-1 -52.7640617566936 -0.029358577728145541 5.2055872100549934 -1 0 0 I I #
edge $-1 $677 -1.9203869247703595 $529 5.8198779297673697 $528 $750 forward 7 unknown #
vertex $-1 $676 $751 #
straight-curve $-1 -52.764061403241065 -0.029358577728145541 0.46801501118541466 0.8660253999169214 0 0.50000000669873634 I I #
point $-1 -44.558345796854283 -0.029358577728145541 5.2055872100549925 #
point $-1 -52.764061403241065 -7.7696234322658748 0.46801501118541466 #
straight-curve $-1 -52.764061403241065 0 5.2055872100549925 0 -1 0 I I #
vertex $-1 $535 $752 #
point $-1 -47.577612565618537 -6.2215704613583291 1.9599664044918044 #
vertex $-1 $539 $753 #
point $-1 -47.577612565618537 -3.8994910049970102 1.9599664044918044 #
vertex $-1 $543 $754 #
point $-1 -47.577612565618537 -1.5774115486356912 1.9599664044918044 #
straight-curve $-1 -52.764061403241065 7.7109062768095855 0.46801501118541466 0.8660253999169214 0 0.50000000669873634 I I #
coedge $-1 $551 $557 $553 $691 reversed $547 $-1 #
straight-curve $-1 -52.764061403241065 7.7109062768095855 45.929024883575551 0 0 -1 I I #
edge $-1 $555 -7.7109062768095855 $695 0.029358577728145541 $689 $755 forward 7 unknown #
point $-1 -44.558345796854283 7.7109062768095855 5.2055872100549925 #
point $-1 -52.764061403241065 7.7109062768095855 5.2055872100549925 #
point $-1 -52.764061403241065 7.7109062768095855 0.46801501118541466 #
vertex $-1 $562 $756 #
straight-curve $-1 -52.7640617566936 -0.029358577728145541 5.2055872100549934 1 0 0 I I #
straight-curve $-1 -52.764061403241065 -0.029358577728145541 45.929024883575551 0 0 1 I I #
vertex $-1 $565 $757 #
point $-1 -47.577612565618537 1.5186943931794019 1.9599664044918044 #
vertex $-1 $569 $758 #
point $-1 -47.577612565618537 3.8407738495407209 1.9599664044918044 #
vertex $-1 $573 $759 #
point $-1 -47.577612565618537 6.1628533059020398 1.9599664044918044 #
edge $-1 $705 67.883081313185016 $708 71.06542744655215 $578 $760 forward 7 unknown #
vertex $-1 $592 $761 #
straight-curve $-1 45.695018697085644 -7.2581957794325334 5.2055872100549863 1 0 0 I I #
edge $-1 $708 -5.4363071901423634 $589 1.7925300115620235 $588 $762 forward 7 unknown #
vertex $-1 $707 $763 #
straight-curve $-1 1.413810110761915e-006 -7.2581957794325334 93.413277057049086 -0.49999998660252726 0 0.86602541151947299 I I #
point $-1 50.926733072128471 -7.2581957794325334 5.2055872100549863 #
point $-1 52.764061403241065 -0.029358577728146429 2.023241076687853 #
straight-curve $-1 52.764061403241065 0 5.2055872100549925 0 1 0 I I #
vertex $-1 $595 $764 #
point $-1 51.229371819466571 -3.6437771785803399 2.6814014510092044 #
coedge $-1 $602 $601 $600 $716 forward $286 $-1 #
edge $-1 $606 5.2317143750428272 $723 7.0690427061554217 $715 $765 forward 7 unknown #
straight-curve $-1 50.926733072128464 -1.8218885892901699 5.2055872100549934 0 -1 0 I I #
straight-curve $-1 52.764061403241072 -1.8218885892901699 2.0232410766878388 0 1 0 I I #
edge $-1 $723 67.883081313185016 $607 71.06542744655215 $612 $766 forward 7 unknown #
point $-1 50.926733072128471 -0.029358577728146429 5.2055872100549863 #
point $-1 52.764061403241065 -0.029358577728146429 2.023241076687853 #
point $-1 50.926733072128471 7.1994786239762405 5.2055872100549863 #
vertex $-1 $613 $767 #
straight-curve $-1 52.764061403241065 0 5.2055872100549925 0 1 0 I I #
vertex $-1 $616 $768 #
point $-1 51.229371819466571 3.585060023124047 2.6814014510092044 #
straight-curve $-1 -52.764061403241065 22.32347970944155 0 0 0 -1 I I #
point $-1 -52.764061403241065 -22.32347970944155 -5.2055872100549925 #
straight-curve $-1 -52.764061403241065 0 -5.2055872100549925 0 1 0 I I #
point $-1 -52.764061403241065 22.32347970944155 -5.2055872100549925 #
coedge $-1 $638 $637 $643 $734 reversed $320 $-1 #
vertex $-1 $650 $769 #
straight-curve $-1 0 -22.32347970944155 5.2055872100549925 1 0 0 I I #
edge $-1 $732 -5.2055872100549925 $735 5.2055872100549925 $731 $770 forward 7 unknown #
vertex $-1 $648 $771 #
straight-curve $-1 0 -22.32347970944155 -5.2055872100549925 -1 0 0 I I #
straight-curve $-1 -52.764061403241065 0 -5.2055872100549925 0 1 0 I I #
straight-curve $-1 -52.764061403241065 0 5.2055872100549925 0 -1 0 I I #
edge $-1 $740 -52.764061403241065 $663 52.764061403241065 $654 $772 forward 7 unknown #
vertex $-1 $670 $773 #
straight-curve $-1 52.764061403241065 28.053435265469144 3.7055872100549925 0 0 -1 I I #
straight-curve $-1 0 28.053435265469144 2.2055872100549925 1 0 0 I I #
point $-1 52.764061403241065 28.053435265469144 2.2055872100549925 #
straight-curve $-1 -52.764061403241065 28.053435265469144 3.7055872100549925 0 0 -1 I I #
point $-1 -52.764061403241065 28.053435265469144 5.2055872100549925 #
point $-1 -52.764061403241065 28.053435265469144 2.2055872100549925 #
straight-curve $-1 52.764061403241065 0 5.2055872100549925 0 1 0 I I #
straight-curve $-1 -52.764061403241065 -0.029358577728145541 45.929024883575551 0 0 -1 I I #
point $-1 -52.764061403241065 -0.029358577728145541 5.2055872100549925 #
straight-curve $-1 -52.764061403241065 -1.9497455024985051 0.46801501118541472 0 -1 0 I I #
point $-1 -52.764061403241065 -0.029358577728145541 0.46801501118541466 #
point $-1 -47.760625262227627 -6.2215704613583291 1.2769537011839756 #
point $-1 -47.760625262227627 -3.8994910049970102 1.2769537011839756 #
point $-1 -47.760625262227627 -1.5774115486356912 1.2769537011839756 #
straight-curve $-1 -52.764061403241065 0 5.2055872100549925 0 -1 0 I I #
point $-1 -52.764061403241065 -0.029358577728145541 5.2055872100549925 #
point $-1 -47.760625262227627 1.5186943931794019 1.2769537011839756 #
point $-1 -47.760625262227627 3.8407738495407209 1.2769537011839756 #
point $-1 -47.760625262227627 6.1628533059020398 1.2769537011839756 #
straight-curve $-1 52.764061403241065 -7.2581957794325334 73.088668523240003 0 0 -1 I I #
point $-1 52.764061403241065 -7.2581957794325334 5.2055872100549925 #
straight-curve $-1 52.764061403241072 -1.8218885892901699 2.0232410766878388 0 1 0 I I #
point $-1 52.764061403241065 -7.2581957794325334 2.023241076687853 #
point $-1 50.546359120405569 -3.6437771785803399 2.8644141634676772 #
straight-curve $-1 45.695018697085644 -0.029358577728146429 5.2055872100549863 1 0 0 I I #
straight-curve $-1 52.764061403241065 -0.029358577728146429 73.088668523240003 0 0 -1 I I #
point $-1 52.764061403241065 -0.029358577728146429 5.2055872100549925 #
point $-1 50.546359120405569 3.585060023124047 2.8644141634676772 #
point $-1 -52.764061403241065 -22.32347970944155 5.2055872100549925 #
straight-curve $-1 -52.764061403241065 -22.32347970944155 0 0 0 -1 I I #
point $-1 -52.764061403241065 -22.32347970944155 -5.2055872100549925 #
straight-curve $-1 0 28.053435265469144 5.2055872100549925 -1 0 0 I I #
point $-1 52.764061403241065 28.053435265469144 5.2055872100549925 #
End-of-ACIS-data 