500 0 5 0           
7 Unknown 11 ACIS 5.0 NT 24 Fri Mar 26 16:50:54 1999 
-1 9.9999999999999995e-007 1e-010 
body $-1 $5 $-1 $6 #
body $-1 $7 $-1 $8 #
body $-1 $9 $-1 $10 #
body $-1 $11 $-1 $12 #
body $-1 $13 $-1 $14 #
lump $-1 $-1 $15 $0 #
transform $-1 1 0 0 0 1 0 0 0 1 57.95098727378155 29.971202912538192 6.6489659783264452 1 rotate no_reflect no_shear #
lump $-1 $-1 $16 $1 #
transform $-1 1 0 0 0 1 0 0 0 1 57.95098727378155 29.971202912538192 6.6489659783264452 1 rotate no_reflect no_shear #
lump $-1 $-1 $17 $2 #
transform $-1 1 0 0 0 1 0 0 0 1 57.95098727378155 29.971202912538192 6.6489659783264452 1 rotate no_reflect no_shear #
lump $-1 $-1 $18 $3 #
transform $-1 1 0 0 0 1 0 0 0 1 57.95098727378155 29.971202912538192 6.6489659783264452 1 rotate no_reflect no_shear #
lump $-1 $-1 $19 $4 #
transform $-1 1 0 0 0 1 0 0 0 1 57.95098727378155 29.971202912538192 6.6489659783264452 1 rotate no_reflect no_shear #
shell $-1 $-1 $-1 $20 $-1 $5 #
shell $-1 $-1 $-1 $21 $-1 $7 #
shell $-1 $-1 $-1 $22 $-1 $9 #
shell $-1 $-1 $-1 $23 $-1 $11 #
shell $-1 $-1 $-1 $24 $-1 $13 #
face $-1 $25 $26 $15 $-1 $27 forward single #
face $-1 $28 $29 $16 $-1 $30 reversed single #
face $-1 $31 $32 $17 $-1 $33 reversed single #
face $-1 $34 $35 $18 $-1 $36 forward single #
face $-1 $37 $38 $19 $-1 $39 forward single #
face $-1 $40 $41 $15 $-1 $42 reversed single #
loop $-1 $-1 $43 $20 #
plane-surface $-1 0 0 6.6489659783264452 0 0 1 1 0 0 forward_v I I I I #
face $-1 $44 $45 $16 $-1 $46 reversed single #
loop $-1 $-1 $47 $21 #
plane-surface $-1 0 -27.675328170088253 3.0393649711528319 0 0 1 1 0 0 forward_v I I I I #
face $-1 $48 $49 $17 $-1 $50 reversed single #
loop $-1 $-1 $51 $22 #
plane-surface $-1 -57.95098727378155 -21.332430142682679 1.9576150679952633 -0.78801076186113728 0 0.61566146476048833 0.61566146476048833 0 0.78801076186113728 forward_v I I I I #
face $-1 $52 $53 $18 $-1 $54 forward single #
loop $-1 $55 $56 $23 #
cone-surface $-1 -54.718000599196884 -23.066868693377952 3.2092217517890891 0.78801076186113728 0 -0.61566146476048833 0.61566146476048833 0 0.78801076186113728 1 I I 0 1 1 forward I I I I #
face $-1 $57 $58 $19 $-1 $59 forward single #
loop $-1 $60 $61 $24 #
cone-surface $-1 -54.718000599196884 -19.597991591987409 3.2092217517890891 0.78801076186113728 0 -0.61566146476048833 0.61566146476048833 0 0.78801076186113728 1 I I 0 1 1 forward I I I I #
face $-1 $62 $63 $15 $-1 $64 reversed single #
loop $-1 $-1 $65 $25 #
plane-surface $-1 0 0 -6.6489659783264452 0 0 1 1 0 0 forward_v I I I I #
coedge $-1 $66 $67 $68 $69 forward $26 $-1 #
face $-1 $70 $71 $16 $-1 $72 reversed single #
loop $-1 $-1 $73 $28 #
plane-surface $-1 0 -25.379453427638314 4.844165474739639 0 -1 0 0 0 -1 forward_v I I I I #
coedge $-1 $74 $75 $76 $77 reversed $29 $-1 #
face $-1 $78 $79 $17 $-1 $80 forward single #
loop $-1 $-1 $81 $31 #
plane-surface $-1 -149.28299053821689 -17.285406857727043 73.313994486580796 0 -1 0 0.78801076186113728 0 -0.61566146476048833 forward_v I I I I #
coedge $-1 $82 $83 $84 $85 reversed $32 $-1 #
face $-1 $-1 $86 $18 $-1 $87 forward single #
loop $-1 $88 $89 $34 #
cone-surface $-1 -52.923651010605795 -23.066868693377952 1.8073222480370843 0.78801076186113728 0 -0.61566146476048833 0.30783073238024417 0 0.39400538093056864 1 I I -0.70710678118654746 0.70710678118654746 0.5 forward I I I I #
loop $-1 $-1 $90 $23 #
coedge $-1 $56 $56 $91 $92 reversed $35 $-1 #
face $-1 $-1 $93 $19 $-1 $94 forward single #
loop $-1 $95 $96 $37 #
cone-surface $-1 -52.923651010605795 -19.597991591987409 1.8073222480370843 0.78801076186113728 0 -0.61566146476048833 0.30783073238024417 0 0.39400538093056864 1 I I -0.70710678118654746 0.70710678118654746 0.5 forward I I I I #
loop $-1 $-1 $97 $24 #
coedge $-1 $61 $61 $98 $99 reversed $38 $-1 #
face $-1 $100 $101 $15 $-1 $102 reversed single #
loop $-1 $-1 $103 $40 #
plane-surface $-1 0 -29.971202912538192 0 0 1 0 0 0 1 forward_v I I I I #
coedge $-1 $104 $105 $106 $107 forward $41 $-1 #
coedge $-1 $108 $43 $109 $110 forward $26 $-1 #
coedge $-1 $43 $108 $111 $112 forward $26 $-1 #
coedge $-1 $113 $114 $43 $69 reversed $115 $-1 #
edge $-1 $116 -29.971202912538192 $117 29.971202912538192 $68 $118 forward 7 unknown #
face $-1 $119 $120 $16 $-1 $121 reversed single #
loop $-1 $-1 $122 $44 #
plane-surface $-1 -57.95098727378155 0 0 1 0 0 0 0 -1 forward_v I I I I #
coedge $-1 $123 $124 $125 $126 reversed $45 $-1 #
coedge $-1 $127 $47 $128 $129 reversed $29 $-1 #
coedge $-1 $47 $127 $123 $130 forward $29 $-1 #
coedge $-1 $125 $131 $47 $77 forward $132 $-1 #
edge $-1 $133 -16.133538827494064 $134 -11.541789342594187 $76 $135 forward 7 unknown #
face $-1 $136 $137 $17 $-1 $138 reversed single #
loop $-1 $-1 $84 $48 #
plane-surface $-1 0 0 6.6489659783264452 0 0 1 1 0 0 forward_v I I I I #
coedge $-1 $139 $140 $141 $142 reversed $49 $-1 #
coedge $-1 $143 $51 $144 $145 reversed $32 $-1 #
coedge $-1 $51 $143 $139 $146 forward $32 $-1 #
coedge $-1 $141 $147 $51 $85 forward $79 $-1 #
edge $-1 $148 -14.713238356296975 $149 -6.6191917863857039 $84 $150 forward 7 unknown #
loop $-1 $-1 $91 $52 #
plane-surface $-1 -57.95098727378155 -21.332430142682679 1.9576150679952633 -0.78801076186113728 0 0.61566146476048833 0.61566146476048833 0 0.78801076186113728 forward_v I I I I #
loop $-1 $-1 $151 $34 #
coedge $-1 $89 $89 $90 $152 reversed $53 $-1 #
coedge $-1 $90 $90 $89 $152 forward $55 $-1 #
coedge $-1 $91 $91 $56 $92 forward $86 $-1 #
edge $-1 $153 0 $153 6.2831853071796004 $91 $154 forward 7 unknown #
loop $-1 $-1 $98 $57 #
plane-surface $-1 -57.95098727378155 -21.332430142682679 1.9576150679952633 -0.78801076186113728 0 0.61566146476048833 0.61566146476048833 0 0.78801076186113728 forward_v I I I I #
loop $-1 $-1 $155 $37 #
coedge $-1 $96 $96 $97 $156 reversed $58 $-1 #
coedge $-1 $97 $97 $96 $156 forward $60 $-1 #
coedge $-1 $98 $98 $61 $99 forward $93 $-1 #
edge $-1 $157 0 $157 6.2831853071796004 $98 $158 forward 7 unknown #
face $-1 $159 $160 $15 $-1 $161 reversed single #
loop $-1 $-1 $162 $62 #
plane-surface $-1 -57.95098727378155 0 0 1 0 0 0 0 -1 forward_v I I I I #
coedge $-1 $163 $111 $164 $165 forward $63 $-1 #
coedge $-1 $166 $65 $163 $167 forward $41 $-1 #
coedge $-1 $65 $166 $168 $169 forward $41 $-1 #
coedge $-1 $114 $113 $65 $107 reversed $115 $-1 #
edge $-1 $170 -29.971202912538192 $171 29.971202912538192 $106 $172 forward 7 unknown #
coedge $-1 $67 $66 $173 $174 forward $26 $-1 #
coedge $-1 $175 $176 $66 $110 reversed $160 $-1 #
edge $-1 $117 -57.95098727378155 $177 57.95098727378155 $109 $178 forward 7 unknown #
coedge $-1 $103 $179 $67 $112 reversed $63 $-1 #
edge $-1 $180 -57.95098727378155 $116 57.95098727378155 $111 $181 forward 7 unknown #
coedge $-1 $106 $68 $179 $182 forward $115 $-1 #
coedge $-1 $68 $106 $175 $183 reversed $115 $-1 #
loop $-1 $-1 $113 $159 #
vertex $-1 $69 $184 #
vertex $-1 $69 $185 #
straight-curve $-1 57.95098727378155 0 6.6489659783264452 0 1 0 I I #
face $-1 $186 $187 $16 $-1 $188 forward single #
loop $-1 $-1 $128 $70 #
plane-surface $-1 0 -29.971202912538192 0 0 1 0 0 0 1 forward_v I I I I #
coedge $-1 $189 $190 $191 $192 forward $71 $-1 #
coedge $-1 $191 $73 $75 $130 reversed $45 $-1 #
coedge $-1 $73 $191 $193 $194 reversed $45 $-1 #
coedge $-1 $195 $76 $73 $126 forward $132 $-1 #
edge $-1 $134 0.61728223378301239 $196 4.2268832409566262 $125 $197 forward 7 unknown #
coedge $-1 $75 $74 $189 $198 reversed $29 $-1 #
coedge $-1 $199 $200 $74 $129 forward $120 $-1 #
edge $-1 $201 -57.95098727378155 $133 57.95098727378155 $128 $202 forward 7 unknown #
edge $-1 $203 -57.95098727378155 $134 57.95098727378155 $123 $204 forward 7 unknown #
coedge $-1 $76 $195 $199 $205 forward $132 $-1 #
loop $-1 $-1 $125 $186 #
vertex $-1 $129 $206 #
vertex $-1 $77 $207 #
straight-curve $-1 57.95098727378155 -13.837664085044127 3.0393649711528319 0 1 0 I I #
face $-1 $-1 $208 $17 $-1 $209 forward single #
loop $-1 $-1 $210 $78 #
plane-surface $-1 -57.95098727378155 0 0 1 0 0 0 0 -1 forward_v I I I I #
coedge $-1 $140 $81 $83 $146 reversed $49 $-1 #
coedge $-1 $81 $139 $210 $211 reversed $49 $-1 #
coedge $-1 $212 $84 $81 $142 forward $79 $-1 #
edge $-1 $149 -20.355792929175195 $213 -16.690507995326897 $141 $214 forward 7 unknown #
coedge $-1 $83 $82 $215 $216 reversed $32 $-1 #
coedge $-1 $217 $218 $82 $145 forward $208 $-1 #
edge $-1 $219 -18.976411247230992 $148 -13.023001551085388 $144 $220 forward 7 unknown #
edge $-1 $221 0 $149 5.9534096961456076 $139 $222 forward 7 unknown #
coedge $-1 $84 $212 $217 $223 forward $79 $-1 #
vertex $-1 $145 $224 #
vertex $-1 $85 $225 #
straight-curve $-1 -54.285702339933252 -10.666215071341339 6.6489659783264443 0 1 0 I I #
coedge $-1 $151 $151 $-1 $226 reversed $88 $-1 #
edge $-1 $227 0 $227 6.2831853071796004 $89 $228 forward 7 unknown #
vertex $-1 $92 $229 #
ellipse-curve $-1 -56.118344806857401 -23.066868693377952 4.3032905231608511 -0.78801076186113728 0 0.61566146476048833 0.61566146476048833 0 0.78801076186113728 1 I I #
coedge $-1 $155 $155 $-1 $230 reversed $95 $-1 #
edge $-1 $231 0 $231 6.2831853071796004 $96 $232 forward 7 unknown #
vertex $-1 $99 $233 #
ellipse-curve $-1 -56.118344806857401 -19.597991591987409 4.3032905231608511 -0.78801076186113728 0 0.61566146476048833 0.61566146476048833 0 0.78801076186113728 1 I I #
face $-1 $-1 $115 $15 $-1 $234 reversed single #
loop $-1 $-1 $175 $100 #
plane-surface $-1 0 29.971202912538192 0 0 -1 0 0 0 -1 forward_v I I I I #
coedge $-1 $235 $173 $176 $236 forward $101 $-1 #
coedge $-1 $179 $103 $104 $167 reversed $63 $-1 #
coedge $-1 $173 $235 $103 $165 reversed $101 $-1 #
edge $-1 $180 -6.6489659783264452 $237 6.6489659783264452 $164 $238 forward 7 unknown #
coedge $-1 $105 $104 $235 $239 forward $41 $-1 #
edge $-1 $171 -57.95098727378155 $237 57.95098727378155 $163 $240 forward 7 unknown #
coedge $-1 $176 $175 $105 $169 reversed $160 $-1 #
edge $-1 $241 -57.95098727378155 $170 57.95098727378155 $168 $242 forward 7 unknown #
vertex $-1 $107 $243 #
vertex $-1 $182 $244 #
straight-curve $-1 57.95098727378155 0 -6.6489659783264452 0 -1 0 I I #
coedge $-1 $162 $164 $108 $174 reversed $101 $-1 #
edge $-1 $177 -29.971202912538192 $180 29.971202912538192 $173 $245 forward 7 unknown #
coedge $-1 $168 $109 $114 $183 forward $160 $-1 #
coedge $-1 $109 $168 $162 $236 reversed $160 $-1 #
vertex $-1 $110 $246 #
straight-curve $-1 0 29.971202912538192 6.6489659783264452 -1 0 0 I I #
coedge $-1 $111 $163 $113 $182 reversed $63 $-1 #
vertex $-1 $174 $247 #
straight-curve $-1 0 -29.971202912538192 6.6489659783264452 1 0 0 I I #
edge $-1 $116 -6.6489659783264452 $171 6.6489659783264452 $113 $248 forward 7 unknown #
edge $-1 $117 -6.6489659783264452 $170 6.6489659783264452 $114 $249 forward 7 unknown #
point $-1 57.95098727378155 -29.971202912538192 6.6489659783264452 #
point $-1 57.95098727378155 29.971202912538192 6.6489659783264452 #
face $-1 $-1 $132 $16 $-1 $250 reversed single #
loop $-1 $-1 $193 $119 #
plane-surface $-1 0 0 6.6489659783264452 0 0 1 1 0 0 forward_v I I I I #
coedge $-1 $251 $122 $127 $198 forward $71 $-1 #
coedge $-1 $122 $251 $252 $253 reversed $71 $-1 #
coedge $-1 $124 $123 $122 $192 reversed $45 $-1 #
edge $-1 $254 -4.2268832409566262 $203 -0.61728223378301239 $122 $255 forward 7 unknown #
coedge $-1 $252 $256 $124 $194 forward $187 $-1 #
edge $-1 $196 -57.95098727378155 $254 57.95098727378155 $193 $257 forward 7 unknown #
coedge $-1 $131 $125 $256 $258 reversed $132 $-1 #
vertex $-1 $126 $259 #
straight-curve $-1 57.95098727378155 -25.379453427638314 2.4220827373698195 0 0 1 I I #
edge $-1 $203 11.541789342594187 $201 16.133538827494064 $189 $260 forward 7 unknown #
coedge $-1 $261 $128 $131 $205 reversed $120 $-1 #
coedge $-1 $128 $261 $251 $262 forward $120 $-1 #
vertex $-1 $129 $263 #
straight-curve $-1 0 -29.971202912538192 3.0393649711528319 1 0 0 I I #
vertex $-1 $198 $264 #
straight-curve $-1 0 -25.379453427638314 3.0393649711528319 1 0 0 I I #
edge $-1 $265 -6.6489659783264452 $133 -3.0393649711528319 $131 $266 forward 7 unknown #
point $-1 57.95098727378155 -29.971202912538192 3.0393649711528319 #
point $-1 57.95098727378155 -25.379453427638314 3.0393649711528319 #
loop $-1 $-1 $144 $136 #
plane-surface $-1 0 -25.379453427638314 4.844165474739639 0 -1 0 0 0 -1 forward_v I I I I #
coedge $-1 $215 $267 $140 $211 forward $137 $-1 #
edge $-1 $213 30.008031264963954 $221 34.699382175295135 $210 $268 forward 7 unknown #
coedge $-1 $147 $141 $267 $269 forward $79 $-1 #
vertex $-1 $269 $270 #
straight-curve $-1 -74.641495269108447 -17.285406857727043 6.6489659783264443 -1 0 0 I I #
coedge $-1 $271 $210 $143 $216 forward $137 $-1 #
edge $-1 $221 6.6191917863857039 $219 14.713238356296975 $215 $272 forward 7 unknown #
coedge $-1 $218 $144 $147 $223 reversed $208 $-1 #
coedge $-1 $144 $217 $271 $273 reversed $208 $-1 #
vertex $-1 $273 $274 #
straight-curve $-1 -46.26794212941391 -25.379453427638314 16.911231352316008 0.61566146476048833 0 0.78801076186113728 I I #
vertex $-1 $216 $275 #
straight-curve $-1 -57.95098727378155 -17.285406857727043 1.9576150679952633 0.61566146476048833 0 0.78801076186113728 I I #
edge $-1 $276 -57.95098727378155 $148 -54.285702339933259 $147 $277 forward 7 unknown #
point $-1 -54.285702339933259 -25.379453427638314 6.6489659783264452 #
point $-1 -54.285702339933252 -17.285406857727043 6.6489659783264452 #
edge $-1 $278 1 $278 0 $151 $-1 forward 7 unknown #
vertex $-1 $152 $279 #
ellipse-curve $-1 -53.31765639153636 -23.066868693377952 2.1151529804173284 -0.78801076186113728 0 0.61566146476048833 0.61566146476048833 0 0.78801076186113728 1 I I #
point $-1 -55.502683342096908 -23.066868693377952 5.0913012850219861 #
edge $-1 $280 1 $280 0 $155 $-1 forward 7 unknown #
vertex $-1 $156 $281 #
ellipse-curve $-1 -53.31765639153636 -19.597991591987409 2.1151529804173284 -0.78801076186113728 0 0.61566146476048833 0.61566146476048833 0 0.78801076186113728 1 I I #
point $-1 -55.502683342096908 -19.597991591987409 5.0913012850219861 #
plane-surface $-1 57.95098727378155 0 0 -1 0 0 0 0 1 forward_v I I I I #
coedge $-1 $164 $162 $166 $239 reversed $101 $-1 #
edge $-1 $177 -6.6489659783264452 $241 6.6489659783264452 $176 $282 forward 7 unknown #
vertex $-1 $239 $283 #
straight-curve $-1 -57.95098727378155 -29.971202912538192 0 0 0 -1 I I #
edge $-1 $237 -29.971202912538192 $241 29.971202912538192 $235 $284 forward 7 unknown #
straight-curve $-1 0 -29.971202912538192 -6.6489659783264452 -1 0 0 I I #
vertex $-1 $169 $285 #
straight-curve $-1 0 29.971202912538192 -6.6489659783264452 1 0 0 I I #
point $-1 57.95098727378155 29.971202912538192 -6.6489659783264452 #
point $-1 57.95098727378155 -29.971202912538192 -6.6489659783264452 #
straight-curve $-1 -57.95098727378155 0 6.6489659783264452 0 -1 0 I I #
point $-1 -57.95098727378155 29.971202912538192 6.6489659783264452 #
point $-1 -57.95098727378155 -29.971202912538192 6.6489659783264452 #
straight-curve $-1 57.95098727378155 -29.971202912538192 0 0 0 -1 I I #
straight-curve $-1 57.95098727378155 29.971202912538192 0 0 0 -1 I I #
plane-surface $-1 57.95098727378155 0 0 -1 0 0 0 0 1 forward_v I I I I #
coedge $-1 $190 $189 $200 $262 reversed $71 $-1 #
coedge $-1 $286 $193 $190 $253 forward $187 $-1 #
edge $-1 $254 25.379453427638314 $287 29.971202912538192 $190 $288 forward 7 unknown #
vertex $-1 $253 $289 #
straight-curve $-1 -57.95098727378155 -25.379453427638314 2.4220827373698195 0 0 -1 I I #
coedge $-1 $193 $286 $195 $258 forward $187 $-1 #
straight-curve $-1 0 -25.379453427638314 6.6489659783264452 -1 0 0 I I #
edge $-1 $265 -29.971202912538192 $196 -25.379453427638314 $195 $290 forward 7 unknown #
point $-1 57.95098727378155 -25.379453427638314 6.6489659783264461 #
straight-curve $-1 -57.95098727378155 -13.837664085044127 3.0393649711528319 0 -1 0 I I #
coedge $-1 $200 $199 $286 $291 reversed $120 $-1 #
edge $-1 $287 -6.6489659783264452 $201 -3.0393649711528319 $251 $292 forward 7 unknown #
point $-1 -57.95098727378155 -29.971202912538192 3.0393649711528319 #
point $-1 -57.95098727378155 -25.379453427638314 3.0393649711528319 #
vertex $-1 $258 $293 #
straight-curve $-1 57.95098727378155 -29.971202912538192 0 0 0 -1 I I #
coedge $-1 $210 $271 $212 $269 reversed $137 $-1 #
straight-curve $-1 -57.95098727378155 -17.285406857727043 36.656997243290398 0 0 -1 I I #
edge $-1 $213 17.285406857727043 $276 25.379453427638314 $267 $294 forward 7 unknown #
point $-1 -57.95098727378155 -17.285406857727043 6.6489659783264452 #
coedge $-1 $267 $215 $218 $273 forward $137 $-1 #
straight-curve $-1 -57.95098727378155 -10.666215071341339 1.9576150679952655 0 -1 0 I I #
edge $-1 $219 -34.699382175295135 $276 -30.008031264963954 $271 $295 forward 7 unknown #
point $-1 -57.95098727378155 -25.379453427638314 1.9576150679952633 #
point $-1 -57.95098727378155 -17.285406857727043 1.9576150679952633 #
vertex $-1 $273 $296 #
straight-curve $-1 0 -25.379453427638314 6.6489659783264452 1 0 0 I I #
vertex $-1 $226 $297 #
point $-1 -52.701994926775875 -23.066868693377952 2.9031637422784655 #
vertex $-1 $230 $298 #
point $-1 -52.701994926775875 -19.597991591987409 2.9031637422784655 #
straight-curve $-1 -57.95098727378155 29.971202912538192 0 0 0 -1 I I #
point $-1 -57.95098727378155 -29.971202912538192 -6.6489659783264452 #
straight-curve $-1 -57.95098727378155 0 -6.6489659783264452 0 1 0 I I #
point $-1 -57.95098727378155 29.971202912538192 -6.6489659783264452 #
coedge $-1 $256 $252 $261 $291 forward $187 $-1 #
vertex $-1 $253 $299 #
straight-curve $-1 -57.95098727378155 0 6.6489659783264452 0 -1 0 I I #
point $-1 -57.95098727378155 -25.379453427638314 6.6489659783264461 #
straight-curve $-1 57.95098727378155 0 6.6489659783264452 0 1 0 I I #
edge $-1 $287 -57.95098727378155 $265 57.95098727378155 $261 $300 forward 7 unknown #
straight-curve $-1 -57.95098727378155 -29.971202912538192 0 0 0 -1 I I #
point $-1 57.95098727378155 -29.971202912538192 6.6489659783264452 #
straight-curve $-1 -57.95098727378155 0 6.6489659783264452 0 -1 0 I I #
straight-curve $-1 -57.95098727378155 -25.379453427638314 36.656997243290398 0 0 1 I I #
point $-1 -57.95098727378155 -25.379453427638314 6.6489659783264461 #
point $-1 -52.52964562967523 -23.066868693377952 1.4994915156568402 #
point $-1 -52.52964562967523 -19.597991591987409 1.4994915156568402 #
point $-1 -57.95098727378155 -29.971202912538192 6.6489659783264452 #
straight-curve $-1 0 -29.971202912538192 6.6489659783264452 1 0 0 I I #
End-of-ACIS-data 