500 0 9 0           
7 Unknown 11 ACIS 5.0 NT 24 Thu Mar 25 19:11:33 1999 
-1 9.9999999999999995e-007 1e-010 
body $-1 $9 $-1 $10 #
body $-1 $11 $-1 $12 #
body $-1 $13 $-1 $14 #
body $-1 $15 $-1 $16 #
body $-1 $17 $-1 $18 #
body $-1 $19 $-1 $20 #
body $-1 $21 $-1 $22 #
body $-1 $23 $-1 $24 #
body $-1 $25 $-1 $26 #
lump $-1 $-1 $27 $0 #
transform $-1 1 0 0 0 1 0 0 0 1 44.458143864253671 18.366137229654328 4 1 rotate no_reflect no_shear #
lump $-1 $-1 $28 $1 #
transform $-1 1 0 0 0 1 0 0 0 1 44.458143864253671 18.366137229654328 4 1 rotate no_reflect no_shear #
lump $-1 $-1 $29 $2 #
transform $-1 1 0 0 0 1 0 0 0 1 44.458143864253671 18.366137229654328 4 1 rotate no_reflect no_shear #
lump $-1 $-1 $30 $3 #
transform $-1 1 0 0 0 1 0 0 0 1 44.458143864253671 18.366137229654328 4 1 rotate no_reflect no_shear #
lump $-1 $-1 $31 $4 #
transform $-1 1 0 0 0 1 0 0 0 1 44.458143864253671 18.366137229654328 4 1 rotate no_reflect no_shear #
lump $-1 $-1 $32 $5 #
transform $-1 1 0 0 0 1 0 0 0 1 44.458143864253671 18.366137229654328 4 1 rotate no_reflect no_shear #
lump $-1 $-1 $33 $6 #
transform $-1 1 0 0 0 1 0 0 0 1 44.458143864253671 18.366137229654328 4 1 rotate no_reflect no_shear #
lump $-1 $-1 $34 $7 #
transform $-1 1 0 0 0 1 0 0 0 1 44.458143864253671 18.366137229654328 4 1 rotate no_reflect no_shear #
lump $-1 $-1 $35 $8 #
transform $-1 1 0 0 0 1 0 0 0 1 44.458143864253671 18.366137229654328 4 1 rotate no_reflect no_shear #
shell $-1 $-1 $-1 $36 $-1 $9 #
shell $-1 $-1 $-1 $37 $-1 $11 #
shell $-1 $-1 $-1 $38 $-1 $13 #
shell $-1 $-1 $-1 $39 $-1 $15 #
shell $-1 $-1 $-1 $40 $-1 $17 #
shell $-1 $-1 $-1 $41 $-1 $19 #
shell $-1 $-1 $-1 $42 $-1 $21 #
shell $-1 $-1 $-1 $43 $-1 $23 #
shell $-1 $-1 $-1 $44 $-1 $25 #
face $-1 $45 $46 $27 $-1 $47 reversed single #
face $-1 $48 $49 $28 $-1 $50 forward single #
face $-1 $51 $52 $29 $-1 $53 reversed single #
face $-1 $54 $55 $30 $-1 $56 forward single #
face $-1 $57 $58 $31 $-1 $59 forward single #
face $-1 $60 $61 $32 $-1 $62 forward single #
face $-1 $63 $64 $33 $-1 $65 reversed single #
face $-1 $66 $67 $34 $-1 $68 forward single #
face $-1 $69 $70 $35 $-1 $71 forward single #
face $-1 $72 $73 $27 $-1 $74 forward single #
loop $-1 $-1 $75 $36 #
plane-surface $-1 0 -18.366137229654328 0 0 1 0 0 0 1 forward_v I I I I #
face $-1 $76 $77 $28 $-1 $78 reversed single #
loop $-1 $-1 $79 $37 #
plane-surface $-1 0 -18.366137229654328 0 0 1 0 0 0 1 forward_v I I I I #
face $-1 $80 $81 $29 $-1 $82 reversed single #
loop $-1 $-1 $83 $38 #
plane-surface $-1 66.293817034876142 10.653625446695166 124.19444174834686 0 -1 0 -0.81915205242281985 0 -0.57357642473473569 forward_v I I I I #
face $-1 $84 $85 $30 $-1 $86 forward single #
loop $-1 $87 $88 $39 #
cone-surface $-1 42.773558480758986 5.8431450678497896 1.8923096604925338 -0.81915205242281985 0 -0.57357642473473569 0.28678821236736785 0 -0.40957602621140993 1 I I 0 1 0.5 forward I I I I #
face $-1 $89 $90 $31 $-1 $91 forward single #
loop $-1 $92 $93 $40 #
cone-surface $-1 42.773558480758986 7.6470752099168067 1.8923096604925338 -0.81915205242281985 0 -0.57357642473473569 0.28678821236736785 0 -0.40957602621140993 1 I I 0 1 0.5 forward I I I I #
face $-1 $94 $95 $32 $-1 $96 forward single #
loop $-1 $97 $98 $41 #
cone-surface $-1 42.773558480758986 9.4510053519838237 1.8923096604925338 -0.81915205242281985 0 -0.57357642473473569 0.28678821236736785 0 -0.40957602621140993 1 I I 0 1 0.5 forward I I I I #
face $-1 $99 $100 $33 $-1 $101 reversed single #
loop $-1 $-1 $102 $42 #
plane-surface $-1 -97.969302299622342 9.2524071756019719 71.181600833331373 0 1 0 -0.6018150307709319 0 0.79863550430605224 forward_v I I I I #
face $-1 $103 $104 $34 $-1 $105 forward single #
loop $-1 $106 $107 $43 #
cone-surface $-1 -41.390290411135609 11.023330275565222 1.3862671173303232 0.6018150307709319 0 -0.79863550430605224 0.39931775215302612 0 0.30090751538546595 1 I I 0 1 0.5 forward I I I I #
face $-1 $108 $109 $35 $-1 $110 forward single #
loop $-1 $111 $112 $44 #
cone-surface $-1 -41.390290411135609 13.679714925510105 1.3862671173303232 0.6018150307709319 0 -0.79863550430605224 0.39931775215302612 0 0.30090751538546595 1 I I 0 1 0.5 forward I I I I #
face $-1 $113 $114 $27 $-1 $115 reversed single #
loop $-1 $-1 $116 $45 #
plane-surface $-1 0 0 4 0 0 1 1 0 0 forward_v I I I I #
coedge $-1 $117 $118 $119 $120 reversed $46 $-1 #
face $-1 $121 $122 $28 $-1 $123 reversed single #
loop $-1 $-1 $124 $48 #
plane-surface $-1 0 0 -4 0 0 1 1 0 0 forward_v I I I I #
coedge $-1 $125 $126 $127 $128 forward $49 $-1 #
face $-1 $129 $130 $29 $-1 $131 reversed single #
loop $-1 $-1 $132 $51 #
plane-surface $-1 -6.5421425517486398 7.6470752099168067 73.194155332344565 0.81915205242281985 0 0.57357642473473569 0.57357642473473569 0 -0.81915205242281985 forward_v I I I I #
coedge $-1 $133 $134 $135 $136 reversed $52 $-1 #
face $-1 $-1 $137 $30 $-1 $138 forward single #
loop $-1 $139 $140 $54 #
cone-surface $-1 42.159194441441869 5.8431450678497896 1.462127341941482 -0.81915205242281985 0 -0.57357642473473569 0.14339410618368392 0 -0.20478801310570496 1 I I -0.70710678118654746 0.70710678118654746 0.25 forward I I I I #
loop $-1 $-1 $141 $39 #
coedge $-1 $88 $88 $142 $143 reversed $55 $-1 #
face $-1 $-1 $144 $31 $-1 $145 forward single #
loop $-1 $146 $147 $57 #
cone-surface $-1 42.159194441441869 7.6470752099168067 1.462127341941482 -0.81915205242281985 0 -0.57357642473473569 0.14339410618368392 0 -0.20478801310570496 1 I I -0.70710678118654746 0.70710678118654746 0.25 forward I I I I #
loop $-1 $-1 $148 $40 #
coedge $-1 $93 $93 $149 $150 reversed $58 $-1 #
face $-1 $-1 $151 $32 $-1 $152 forward single #
loop $-1 $153 $154 $60 #
cone-surface $-1 42.159194441441869 9.4510053519838237 1.462127341941482 -0.81915205242281985 0 -0.57357642473473569 0.14339410618368392 0 -0.20478801310570496 1 I I -0.70710678118654746 0.70710678118654746 0.25 forward I I I I #
loop $-1 $-1 $155 $41 #
coedge $-1 $98 $98 $156 $157 reversed $61 $-1 #
face $-1 $158 $159 $33 $-1 $160 reversed single #
loop $-1 $-1 $161 $63 #
plane-surface $-1 -44.458143864253664 12.351522600537663 0.16989654225287154 -0.6018150307709319 0 0.79863550430605224 0.79863550430605224 0 0.6018150307709319 forward_v I I I I #
coedge $-1 $162 $163 $164 $165 reversed $64 $-1 #
face $-1 $-1 $166 $34 $-1 $167 forward single #
loop $-1 $168 $169 $66 #
cone-surface $-1 -40.713342629819124 11.023330275565222 0.48792708745769531 0.6018150307709319 0 -0.79863550430605224 0.19965887607651306 0 0.15045375769273298 1 I I -0.70710678118654746 0.70710678118654746 0.25 forward I I I I #
loop $-1 $-1 $170 $43 #
coedge $-1 $107 $107 $171 $172 reversed $67 $-1 #
face $-1 $-1 $173 $35 $-1 $174 forward single #
loop $-1 $175 $176 $69 #
cone-surface $-1 -40.713342629819124 13.679714925510105 0.48792708745769531 0.6018150307709319 0 -0.79863550430605224 0.19965887607651306 0 0.15045375769273298 1 I I -0.70710678118654746 0.70710678118654746 0.25 forward I I I I #
loop $-1 $-1 $177 $44 #
coedge $-1 $112 $112 $178 $179 reversed $70 $-1 #
face $-1 $180 $181 $27 $-1 $182 reversed single #
loop $-1 $-1 $183 $72 #
plane-surface $-1 0 0 -4 0 0 1 1 0 0 forward_v I I I I #
coedge $-1 $184 $185 $186 $187 forward $73 $-1 #
coedge $-1 $188 $75 $189 $190 reversed $46 $-1 #
coedge $-1 $75 $188 $191 $192 forward $46 $-1 #
coedge $-1 $193 $183 $75 $120 forward $114 $-1 #
edge $-1 $194 -44.458143864253671 $195 44.458143864253671 $75 $196 forward 7 unknown #
face $-1 $197 $198 $28 $-1 $199 reversed single #
loop $-1 $-1 $200 $76 #
plane-surface $-1 -41.596255378887292 -22.546855635367393 0 0 1 0 0 0 1 forward_v I I I I #
coedge $-1 $201 $202 $126 $203 forward $77 $-1 #
coedge $-1 $204 $79 $205 $206 reversed $49 $-1 #
coedge $-1 $79 $204 $124 $203 reversed $49 $-1 #
coedge $-1 $207 $208 $79 $128 reversed $198 $-1 #
edge $-1 $209 -4 $210 4 $127 $211 forward 7 unknown #
face $-1 $212 $213 $29 $-1 $214 forward single #
loop $-1 $-1 $215 $80 #
plane-surface $-1 66.293817034876142 4.6405249731384473 124.19444174834686 0 1 0 0.81915205242281985 0 0.57357642473473569 forward_v I I I I #
coedge $-1 $216 $217 $218 $219 reversed $81 $-1 #
coedge $-1 $134 $83 $220 $221 reversed $52 $-1 #
coedge $-1 $83 $133 $216 $222 reversed $52 $-1 #
coedge $-1 $218 $223 $83 $136 forward $213 $-1 #
edge $-1 $224 -11.3112353468156 $225 -8.7612166322490239 $135 $226 forward 7 unknown #
loop $-1 $-1 $142 $84 #
plane-surface $-1 -6.5421425517486398 7.6470752099168067 73.194155332344565 0.81915205242281985 0 0.57357642473473569 0.57357642473473569 0 -0.81915205242281985 forward_v I I I I #
loop $-1 $-1 $227 $54 #
coedge $-1 $140 $140 $141 $228 reversed $85 $-1 #
coedge $-1 $141 $141 $140 $228 forward $87 $-1 #
coedge $-1 $142 $142 $88 $143 forward $137 $-1 #
edge $-1 $229 0 $229 6.2831853071796004 $142 $230 forward 7 unknown #
loop $-1 $-1 $149 $89 #
plane-surface $-1 -6.5421425517486398 7.6470752099168067 73.194155332344565 0.81915205242281985 0 0.57357642473473569 0.57357642473473569 0 -0.81915205242281985 forward_v I I I I #
loop $-1 $-1 $231 $57 #
coedge $-1 $147 $147 $148 $232 reversed $90 $-1 #
coedge $-1 $148 $148 $147 $232 forward $92 $-1 #
coedge $-1 $149 $149 $93 $150 forward $144 $-1 #
edge $-1 $233 0 $233 6.2831853071796004 $149 $234 forward 7 unknown #
loop $-1 $-1 $156 $94 #
plane-surface $-1 -6.5421425517486398 7.6470752099168067 73.194155332344565 0.81915205242281985 0 0.57357642473473569 0.57357642473473569 0 -0.81915205242281985 forward_v I I I I #
loop $-1 $-1 $235 $60 #
coedge $-1 $154 $154 $155 $236 reversed $95 $-1 #
coedge $-1 $155 $155 $154 $236 forward $97 $-1 #
coedge $-1 $156 $156 $98 $157 forward $151 $-1 #
edge $-1 $237 0 $237 6.2831853071796004 $156 $238 forward 7 unknown #
face $-1 $239 $240 $33 $-1 $241 reversed single #
loop $-1 $-1 $242 $99 #
plane-surface $-1 -97.969302299622342 15.450638025473355 71.181600833331373 0 -1 0 0.6018150307709319 0 -0.79863550430605224 forward_v I I I I #
coedge $-1 $243 $244 $245 $246 reversed $100 $-1 #
coedge $-1 $163 $102 $247 $248 reversed $64 $-1 #
coedge $-1 $102 $162 $243 $249 reversed $64 $-1 #
coedge $-1 $245 $250 $102 $165 forward $251 $-1 #
edge $-1 $252 4.5265072855574999 $253 9.6092261445461276 $164 $254 forward 7 unknown #
loop $-1 $-1 $171 $103 #
plane-surface $-1 -44.458143864253664 12.351522600537663 0.16989654225287154 -0.6018150307709319 0 0.79863550430605224 0.79863550430605224 0 0.6018150307709319 forward_v I I I I #
loop $-1 $-1 $255 $66 #
coedge $-1 $169 $169 $170 $256 reversed $104 $-1 #
coedge $-1 $170 $170 $169 $256 forward $106 $-1 #
coedge $-1 $171 $171 $107 $172 forward $166 $-1 #
edge $-1 $257 0 $257 6.2831853071796004 $171 $258 forward 7 unknown #
loop $-1 $-1 $178 $108 #
plane-surface $-1 -44.458143864253664 12.351522600537663 0.16989654225287154 -0.6018150307709319 0 0.79863550430605224 0.79863550430605224 0 0.6018150307709319 forward_v I I I I #
loop $-1 $-1 $259 $69 #
coedge $-1 $176 $176 $177 $260 reversed $109 $-1 #
coedge $-1 $177 $177 $176 $260 forward $111 $-1 #
coedge $-1 $178 $178 $112 $179 forward $173 $-1 #
edge $-1 $261 0 $261 6.2831853071796004 $178 $262 forward 7 unknown #
face $-1 $263 $264 $27 $-1 $265 reversed single #
loop $-1 $-1 $266 $113 #
plane-surface $-1 -44.458143864253671 0 0 1 0 0 0 0 -1 forward_v I I I I #
coedge $-1 $119 $267 $268 $269 forward $114 $-1 #
coedge $-1 $270 $116 $271 $272 forward $73 $-1 #
coedge $-1 $116 $270 $188 $273 forward $73 $-1 #
coedge $-1 $189 $274 $116 $187 reversed $275 $-1 #
edge $-1 $276 -18.366137229654328 $277 18.366137229654328 $186 $278 forward 7 unknown #
coedge $-1 $118 $117 $185 $273 reversed $46 $-1 #
coedge $-1 $268 $186 $117 $190 forward $275 $-1 #
edge $-1 $276 -4 $194 4 $189 $279 forward 7 unknown #
coedge $-1 $280 $281 $118 $192 reversed $181 $-1 #
edge $-1 $282 -4 $195 4 $191 $283 forward 7 unknown #
coedge $-1 $267 $119 $281 $284 forward $114 $-1 #
vertex $-1 $190 $285 #
vertex $-1 $284 $286 #
straight-curve $-1 0 -18.366137229654328 -4 -1 0 0 I I #
face $-1 $287 $288 $28 $-1 $289 reversed single #
loop $-1 $-1 $127 $121 #
plane-surface $-1 -43.096255378887292 -20.45649643251086 0 1 0 0 0 0 -1 forward_v I I I I #
coedge $-1 $290 $291 $292 $293 forward $122 $-1 #
coedge $-1 $294 $124 $295 $296 forward $77 $-1 #
coedge $-1 $124 $294 $207 $297 forward $77 $-1 #
edge $-1 $209 -43.096255378887292 $298 -40.096255378887292 $124 $299 forward 7 unknown #
coedge $-1 $126 $125 $300 $301 forward $49 $-1 #
coedge $-1 $302 $303 $125 $206 forward $304 $-1 #
edge $-1 $305 40.096255378887292 $210 43.096255378887292 $205 $306 forward 7 unknown #
coedge $-1 $292 $127 $202 $297 reversed $198 $-1 #
coedge $-1 $127 $292 $302 $307 reversed $198 $-1 #
vertex $-1 $203 $308 #
vertex $-1 $307 $309 #
straight-curve $-1 -43.096255378887292 -18.366137229654328 0 0 0 1 I I #
face $-1 $-1 $310 $29 $-1 $311 reversed single #
loop $-1 $-1 $135 $129 #
plane-surface $-1 0 0 4 0 0 1 1 0 0 forward_v I I I I #
coedge $-1 $312 $313 $314 $315 reversed $130 $-1 #
coedge $-1 $316 $132 $134 $222 forward $81 $-1 #
coedge $-1 $132 $316 $312 $317 forward $81 $-1 #
coedge $-1 $314 $135 $132 $219 forward $213 $-1 #
edge $-1 $225 -6.8300878417367628 $318 -0.81698736818004392 $218 $319 forward 7 unknown #
coedge $-1 $320 $321 $133 $221 forward $310 $-1 #
edge $-1 $322 -61.739025128453676 $224 -58.097220874173431 $220 $323 forward 7 unknown #
edge $-1 $225 84.470465681783793 $322 88.916287728507385 $134 $324 forward 7 unknown #
coedge $-1 $135 $314 $320 $325 forward $213 $-1 #
vertex $-1 $136 $326 #
vertex $-1 $136 $327 #
straight-curve $-1 33.146908517438071 10.653625446695166 4 -1 0 0 I I #
coedge $-1 $227 $227 $-1 $328 reversed $139 $-1 #
edge $-1 $329 0 $329 6.2831853071796004 $140 $330 forward 7 unknown #
vertex $-1 $143 $331 #
ellipse-curve $-1 43.183134506970383 5.8431450678497896 2.1790978728598933 0.81915205242281985 0 0.57357642473473569 0.28678821236736785 0 -0.40957602621140993 1 I I #
coedge $-1 $231 $231 $-1 $332 reversed $146 $-1 #
edge $-1 $333 0 $333 6.2831853071796004 $147 $334 forward 7 unknown #
vertex $-1 $150 $335 #
ellipse-curve $-1 43.183134506970383 7.6470752099168067 2.1790978728598933 0.81915205242281985 0 0.57357642473473569 0.28678821236736785 0 -0.40957602621140993 1 I I #
coedge $-1 $235 $235 $-1 $336 reversed $153 $-1 #
edge $-1 $337 0 $337 6.2831853071796004 $154 $338 forward 7 unknown #
vertex $-1 $157 $339 #
ellipse-curve $-1 43.183134506970383 9.4510053519838237 2.1790978728598933 0.81915205242281985 0 0.57357642473473569 0.28678821236736785 0 -0.40957602621140993 1 I I #
face $-1 $-1 $251 $33 $-1 $340 forward single #
loop $-1 $-1 $341 $158 #
plane-surface $-1 -44.458143864253671 0 0 1 0 0 0 0 -1 forward_v I I I I #
coedge $-1 $342 $343 $344 $345 reversed $159 $-1 #
coedge $-1 $346 $161 $163 $249 forward $100 $-1 #
coedge $-1 $161 $346 $342 $347 forward $100 $-1 #
coedge $-1 $344 $164 $161 $246 forward $251 $-1 #
edge $-1 $253 3.0766458753331403 $348 9.274876725204523 $245 $349 forward 7 unknown #
coedge $-1 $350 $351 $162 $248 forward $240 $-1 #
edge $-1 $352 -35.420903874412822 $252 -31.590800416665687 $247 $353 forward 7 unknown #
edge $-1 $253 -6.3642535694742008 $352 8.8984650215323313e-015 $163 $354 forward 7 unknown #
coedge $-1 $164 $344 $350 $355 forward $251 $-1 #
loop $-1 $-1 $344 $239 #
vertex $-1 $248 $356 #
vertex $-1 $165 $357 #
straight-curve $-1 -48.984651149811171 9.2524071756019719 4 1 0 0 I I #
coedge $-1 $255 $255 $-1 $358 reversed $168 $-1 #
edge $-1 $359 0 $359 6.2831853071796004 $169 $360 forward 7 unknown #
vertex $-1 $172 $361 #
ellipse-curve $-1 -41.916784434759357 11.023330275565222 2.0849482711264322 -0.6018150307709319 0 0.79863550430605224 0.39931775215302612 0 0.30090751538546595 1 I I #
coedge $-1 $259 $259 $-1 $362 reversed $175 $-1 #
edge $-1 $363 0 $363 6.2831853071796004 $176 $364 forward 7 unknown #
vertex $-1 $179 $365 #
ellipse-curve $-1 -41.916784434759357 13.679714925510105 2.0849482711264322 -0.6018150307709319 0 0.79863550430605224 0.39931775215302612 0 0.30090751538546595 1 I I #
face $-1 $-1 $275 $27 $-1 $366 reversed single #
loop $-1 $-1 $367 $180 #
plane-surface $-1 0 18.366137229654328 0 0 -1 0 0 0 -1 forward_v I I I I #
coedge $-1 $281 $280 $368 $369 forward $181 $-1 #
coedge $-1 $183 $193 $370 $371 forward $114 $-1 #
coedge $-1 $274 $189 $183 $269 reversed $275 $-1 #
edge $-1 $372 -18.366137229654328 $194 18.366137229654328 $268 $373 forward 7 unknown #
coedge $-1 $185 $184 $280 $374 forward $73 $-1 #
coedge $-1 $367 $368 $184 $272 reversed $264 $-1 #
edge $-1 $277 -44.458143864253671 $375 44.458143864253671 $271 $376 forward 7 unknown #
edge $-1 $282 -44.458143864253671 $276 44.458143864253671 $188 $377 forward 7 unknown #
coedge $-1 $186 $268 $367 $378 reversed $275 $-1 #
loop $-1 $-1 $189 $263 #
vertex $-1 $187 $379 #
vertex $-1 $187 $380 #
straight-curve $-1 44.458143864253671 0 4 0 1 0 I I #
straight-curve $-1 44.458143864253671 -18.366137229654328 0 0 0 -1 I I #
coedge $-1 $266 $191 $270 $374 reversed $181 $-1 #
coedge $-1 $191 $266 $193 $284 reversed $181 $-1 #
vertex $-1 $374 $381 #
straight-curve $-1 -44.458143864253671 -18.366137229654328 0 0 0 -1 I I #
edge $-1 $195 -18.366137229654328 $382 18.366137229654328 $281 $383 forward 7 unknown #
point $-1 44.458143864253671 -18.366137229654328 -4 #
point $-1 -44.458143864253671 -18.366137229654328 -4 #
face $-1 $-1 $304 $28 $-1 $384 forward single #
loop $-1 $-1 $385 $197 #
plane-surface $-1 -40.096255378887292 -20.45649643251086 0 -1 0 0 0 0 1 forward_v I I I I #
coedge $-1 $386 $200 $294 $387 reversed $122 $-1 #
coedge $-1 $200 $386 $388 $389 reversed $122 $-1 #
coedge $-1 $208 $207 $200 $293 reversed $198 $-1 #
edge $-1 $390 -4 $391 4 $292 $392 forward 7 unknown #
coedge $-1 $202 $201 $290 $387 forward $77 $-1 #
coedge $-1 $300 $385 $201 $296 reversed $288 $-1 #
edge $-1 $298 -2.0903592028565328 $393 2.0903592028565328 $295 $394 forward 7 unknown #
edge $-1 $391 -2.0903592028565328 $209 2.0903592028565328 $207 $395 forward 7 unknown #
vertex $-1 $296 $396 #
straight-curve $-1 0 -18.366137229654328 -4 1 0 0 I I #
coedge $-1 $397 $295 $204 $301 reversed $288 $-1 #
edge $-1 $305 -4 $298 4 $300 $398 forward 7 unknown #
coedge $-1 $388 $205 $208 $307 forward $304 $-1 #
coedge $-1 $205 $388 $397 $399 forward $304 $-1 #
loop $-1 $-1 $205 $287 #
vertex $-1 $206 $400 #
straight-curve $-1 0 -18.366137229654328 4 -1 0 0 I I #
edge $-1 $210 -2.0903592028565328 $390 2.0903592028565328 $208 $401 forward 7 unknown #
point $-1 -43.096255378887292 -18.366137229654328 -4 #
point $-1 -43.096255378887292 -18.366137229654328 4 #
loop $-1 $-1 $220 $212 #
plane-surface $-1 44.458143864253671 0 0 -1 0 0 0 0 1 forward_v I I I I #
coedge $-1 $313 $215 $217 $317 reversed $130 $-1 #
coedge $-1 $215 $312 $402 $403 reversed $130 $-1 #
coedge $-1 $223 $218 $215 $315 forward $213 $-1 #
edge $-1 $318 8.7612166322490239 $404 11.3112353468156 $314 $405 forward 7 unknown #
coedge $-1 $217 $216 $321 $406 reversed $81 $-1 #
edge $-1 $407 -88.916287728507385 $318 -84.470465681783793 $312 $408 forward 7 unknown #
vertex $-1 $219 $409 #
straight-curve $-1 41.908125149687102 3.8235376049584033 4 0 -1 0 I I #
coedge $-1 $402 $220 $223 $325 reversed $310 $-1 #
coedge $-1 $220 $402 $316 $406 forward $310 $-1 #
vertex $-1 $221 $410 #
straight-curve $-1 44.458143864253671 10.653625446695166 62.097220874173431 0 0 1 I I #
straight-curve $-1 -6.5421425517486398 10.653625446695166 73.194155332344565 0.57357642473473569 0 -0.81915205242281985 I I #
edge $-1 $404 4.6405249731384473 $224 10.653625446695166 $320 $411 forward 7 unknown #
point $-1 44.458143864253671 10.653625446695166 4 #
point $-1 41.908125149687095 10.653625446695166 4 #
edge $-1 $412 1 $412 0 $227 $-1 forward 7 unknown #
vertex $-1 $228 $413 #
ellipse-curve $-1 42.363982454547575 5.8431450678497896 1.6055214481251658 0.81915205242281985 0 0.57357642473473569 0.28678821236736785 0 -0.40957602621140993 1 I I #
point $-1 43.46992271933776 5.8431450678497896 1.7695218466484917 #
edge $-1 $414 1 $414 0 $231 $-1 forward 7 unknown #
vertex $-1 $232 $415 #
ellipse-curve $-1 42.363982454547575 7.6470752099168067 1.6055214481251658 0.81915205242281985 0 0.57357642473473569 0.28678821236736785 0 -0.40957602621140993 1 I I #
point $-1 43.46992271933776 7.6470752099168067 1.7695218466484917 #
edge $-1 $416 1 $416 0 $235 $-1 forward 7 unknown #
vertex $-1 $236 $417 #
ellipse-curve $-1 42.363982454547575 9.4510053519838237 1.6055214481251658 0.81915205242281985 0 0.57357642473473569 0.28678821236736785 0 -0.40957602621140993 1 I I #
point $-1 43.46992271933776 9.4510053519838237 1.7695218466484917 #
plane-surface $-1 0 0 4 0 0 1 1 0 0 forward_v I I I I #
coedge $-1 $351 $350 $343 $418 forward $240 $-1 #
coedge $-1 $343 $242 $244 $347 reversed $159 $-1 #
coedge $-1 $242 $342 $341 $418 reversed $159 $-1 #
coedge $-1 $250 $245 $242 $345 forward $251 $-1 #
edge $-1 $348 -9.6092261445461276 $419 -4.5265072855574999 $344 $420 forward 7 unknown #
coedge $-1 $244 $243 $351 $421 reversed $100 $-1 #
edge $-1 $422 -8.8984650215323313e-015 $348 6.3642535694742008 $342 $423 forward 7 unknown #
vertex $-1 $246 $424 #
straight-curve $-1 -39.375425005265043 6.1757613002688316 4 0 1 0 I I #
coedge $-1 $341 $247 $250 $355 reversed $240 $-1 #
coedge $-1 $247 $341 $346 $421 forward $240 $-1 #
vertex $-1 $248 $425 #
straight-curve $-1 -44.458143864253671 9.2524071756019719 35.590800416665687 0 0 1 I I #
straight-curve $-1 -44.458143864253664 9.2524071756019719 0.16989654225287154 -0.79863550430605224 0 -0.6018150307709319 I I #
edge $-1 $419 -15.450638025473355 $252 -9.2524071756019719 $350 $426 forward 7 unknown #
point $-1 -44.458143864253671 9.2524071756019719 4 #
point $-1 -39.375425005265043 9.2524071756019719 4 #
edge $-1 $427 1 $427 0 $255 $-1 forward 7 unknown #
vertex $-1 $256 $428 #
ellipse-curve $-1 -40.863796387511854 11.023330275565222 0.68758596353420831 -0.6018150307709319 0 0.79863550430605224 0.39931775215302612 0 0.30090751538546595 1 I I #
point $-1 -41.51746668260634 11.023330275565222 2.3858557865119039 #
edge $-1 $429 1 $429 0 $259 $-1 forward 7 unknown #
vertex $-1 $260 $430 #
ellipse-curve $-1 -40.863796387511854 13.679714925510105 0.68758596353420831 -0.6018150307709319 0 0.79863550430605224 0.39931775215302612 0 0.30090751538546595 1 I I #
point $-1 -41.51746668260634 13.679714925510105 2.3858557865119039 #
plane-surface $-1 44.458143864253671 0 0 -1 0 0 0 0 1 forward_v I I I I #
coedge $-1 $370 $271 $274 $378 forward $264 $-1 #
coedge $-1 $271 $370 $266 $369 reversed $264 $-1 #
edge $-1 $375 -4 $382 4 $368 $431 forward 7 unknown #
coedge $-1 $368 $367 $267 $371 reversed $264 $-1 #
edge $-1 $382 -44.458143864253671 $372 44.458143864253671 $370 $432 forward 7 unknown #
vertex $-1 $269 $433 #
straight-curve $-1 44.458143864253671 0 -4 0 -1 0 I I #
edge $-1 $375 -18.366137229654328 $282 18.366137229654328 $280 $434 forward 7 unknown #
vertex $-1 $272 $435 #
straight-curve $-1 0 18.366137229654328 4 -1 0 0 I I #
straight-curve $-1 0 -18.366137229654328 4 1 0 0 I I #
edge $-1 $277 -4 $372 4 $274 $436 forward 7 unknown #
point $-1 44.458143864253671 -18.366137229654328 4 #
point $-1 44.458143864253671 18.366137229654328 4 #
point $-1 -44.458143864253671 -18.366137229654328 4 #
vertex $-1 $371 $437 #
straight-curve $-1 -44.458143864253671 0 -4 0 1 0 I I #
plane-surface $-1 0 0 4 0 0 1 1 0 0 forward_v I I I I #
coedge $-1 $295 $397 $386 $438 forward $288 $-1 #
coedge $-1 $291 $290 $385 $438 reversed $122 $-1 #
edge $-1 $393 -1.5 $391 1.5 $290 $439 forward 7 unknown #
coedge $-1 $303 $302 $291 $389 forward $304 $-1 #
edge $-1 $390 -1.5 $440 1.5 $291 $441 forward 7 unknown #
vertex $-1 $307 $442 #
vertex $-1 $297 $443 #
straight-curve $-1 -43.096255378887292 -22.546855635367393 0 0 0 -1 I I #
vertex $-1 $438 $444 #
straight-curve $-1 -40.096255378887292 -20.45649643251086 -4 0 -1 0 I I #
straight-curve $-1 -43.096255378887292 -20.45649643251086 -4 0 1 0 I I #
point $-1 -40.096255378887292 -18.366137229654328 -4 #
coedge $-1 $385 $300 $303 $399 reversed $288 $-1 #
straight-curve $-1 -40.096255378887292 -18.366137229654328 0 0 0 -1 I I #
edge $-1 $440 -2.0903592028565328 $305 2.0903592028565328 $397 $445 forward 7 unknown #
point $-1 -40.096255378887292 -18.366137229654328 4 #
straight-curve $-1 -43.096255378887292 -20.45649643251086 4 0 -1 0 I I #
coedge $-1 $321 $320 $313 $403 forward $310 $-1 #
edge $-1 $404 58.097220874173431 $407 61.739025128453676 $402 $446 forward 7 unknown #
vertex $-1 $325 $447 #
straight-curve $-1 33.146908517438071 4.6405249731384473 4 1 0 0 I I #
edge $-1 $407 0.81698736818004392 $322 6.8300878417367628 $321 $448 forward 7 unknown #
vertex $-1 $406 $449 #
straight-curve $-1 -6.5421425517486398 4.6405249731384473 73.194155332344565 -0.57357642473473569 0 0.81915205242281985 I I #
point $-1 41.908125149687095 4.6405249731384473 4 #
point $-1 44.458143864253671 10.653625446695166 0.35819574571975465 #
straight-curve $-1 44.458143864253671 0 4 0 1 0 I I #
vertex $-1 $328 $450 #
point $-1 42.650770666914944 5.8431450678497896 1.195945421913756 #
vertex $-1 $332 $451 #
point $-1 42.650770666914944 7.6470752099168067 1.195945421913756 #
vertex $-1 $336 $452 #
point $-1 42.650770666914944 9.4510053519838237 1.195945421913756 #
edge $-1 $419 31.590800416665687 $422 35.420903874412822 $341 $453 forward 7 unknown #
vertex $-1 $355 $454 #
straight-curve $-1 -48.984651149811171 15.450638025473355 4 -1 0 0 I I #
edge $-1 $422 -9.274876725204523 $352 -3.0766458753331403 $351 $455 forward 7 unknown #
vertex $-1 $421 $456 #
straight-curve $-1 -44.458143864253664 15.450638025473355 0.16989654225287154 0.79863550430605224 0 0.6018150307709319 I I #
point $-1 -39.375425005265043 15.450638025473355 4 #
point $-1 -44.458143864253671 9.2524071756019719 0.16989654225286618 #
straight-curve $-1 -44.458143864253671 0 4 0 -1 0 I I #
vertex $-1 $358 $457 #
point $-1 -40.46447863535883 11.023330275565222 0.98849347891967432 #
vertex $-1 $362 $458 #
point $-1 -40.46447863535883 13.679714925510105 0.98849347891967432 #
straight-curve $-1 -44.458143864253671 18.366137229654328 0 0 0 -1 I I #
straight-curve $-1 0 18.366137229654328 -4 1 0 0 I I #
point $-1 44.458143864253671 18.366137229654328 -4 #
straight-curve $-1 -44.458143864253671 0 4 0 -1 0 I I #
point $-1 -44.458143864253671 18.366137229654328 4 #
straight-curve $-1 44.458143864253671 18.366137229654328 0 0 0 -1 I I #
point $-1 -44.458143864253671 18.366137229654328 -4 #
edge $-1 $440 -4 $393 4 $385 $459 forward 7 unknown #
straight-curve $-1 -41.596255378887292 -22.546855635367393 -4 -1 0 0 I I #
vertex $-1 $399 $460 #
straight-curve $-1 -41.596255378887292 -22.546855635367393 4 1 0 0 I I #
point $-1 -43.096255378887292 -22.546855635367393 4 #
point $-1 -43.096255378887292 -22.546855635367393 -4 #
point $-1 -40.096255378887292 -22.546855635367393 -4 #
straight-curve $-1 -40.096255378887292 -20.45649643251086 4 0 1 0 I I #
straight-curve $-1 44.458143864253671 4.6405249731384473 62.097220874173431 0 0 -1 I I #
point $-1 44.458143864253671 4.6405249731384473 4 #
straight-curve $-1 44.458143864253671 3.8235376049584033 0.35819574571975465 0 1 0 I I #
point $-1 44.458143864253671 4.6405249731384473 0.35819574571975465 #
point $-1 41.954406428336164 5.8431450678497896 1.3187332357577981 #
point $-1 41.954406428336164 7.6470752099168067 1.3187332357577981 #
point $-1 41.954406428336164 9.4510053519838237 1.3187332357577981 #
straight-curve $-1 -44.458143864253671 15.450638025473355 35.590800416665687 0 0 -1 I I #
point $-1 -44.458143864253671 15.450638025473355 4 #
straight-curve $-1 -44.458143864253671 6.1757613002688316 0.16989654225286699 0 -1 0 I I #
point $-1 -44.458143864253671 15.450638025473355 0.16989654225286618 #
point $-1 -40.562888872126393 11.023330275565222 0.28826821138118225 #
point $-1 -40.562888872126393 13.679714925510105 0.28826821138118225 #
straight-curve $-1 -40.096255378887292 -22.546855635367393 0 0 0 -1 I I #
point $-1 -40.096255378887292 -22.546855635367393 4 #
End-of-ACIS-data 