500 0 5 0           
7 Unknown 11 ACIS 5.0 NT 24 Thu Mar 25 16:39:50 1999 
-1 9.9999999999999995e-007 1e-010 
body $-1 $5 $-1 $6 #
body $-1 $7 $-1 $8 #
body $-1 $9 $-1 $10 #
body $-1 $11 $-1 $12 #
body $-1 $13 $-1 $14 #
lump $-1 $-1 $15 $0 #
transform $-1 1 0 0 0 1 0 0 0 1 64.320810571611688 35.632319640431213 11.720485277400055 1 rotate no_reflect no_shear #
lump $-1 $-1 $16 $1 #
transform $-1 1 0 0 0 1 0 0 0 1 64.320810571611688 35.632319640431213 11.720485277400055 1 rotate no_reflect no_shear #
lump $-1 $-1 $17 $2 #
transform $-1 1 0 0 0 1 0 0 0 1 64.320810571611688 35.632319640431213 11.720485277400055 1 rotate no_reflect no_shear #
lump $-1 $-1 $18 $3 #
transform $-1 1 0 0 0 1 0 0 0 1 64.320810571611688 35.632319640431213 11.720485277400055 1 rotate no_reflect no_shear #
lump $-1 $-1 $19 $4 #
transform $-1 1 0 0 0 1 0 0 0 1 64.320810571611688 35.632319640431213 11.720485277400055 1 rotate no_reflect no_shear #
shell $-1 $-1 $-1 $20 $-1 $5 #
shell $-1 $-1 $-1 $21 $-1 $7 #
shell $-1 $-1 $-1 $22 $-1 $9 #
shell $-1 $-1 $-1 $23 $-1 $11 #
shell $-1 $-1 $-1 $24 $-1 $13 #
face $-1 $25 $26 $15 $-1 $27 forward single #
face $-1 $28 $29 $16 $-1 $30 forward single #
face $-1 $31 $32 $17 $-1 $33 forward single #
face $-1 $34 $35 $18 $-1 $36 reversed single #
face $-1 $37 $38 $19 $-1 $39 forward single #
face $-1 $40 $41 $15 $-1 $42 reversed single #
loop $-1 $-1 $43 $20 #
plane-surface $-1 0 0 11.720485277400055 0 0 1 1 0 0 forward_v I I I I #
face $-1 $44 $45 $16 $-1 $46 reversed single #
loop $-1 $-1 $47 $21 #
plane-surface $-1 -64.320810571611688 0 0 1 0 0 0 0 -1 forward_v I I I I #
face $-1 $48 $49 $17 $-1 $50 reversed single #
loop $-1 $-1 $51 $22 #
plane-surface $-1 64.320810571611688 0 0 -1 0 0 0 0 1 forward_v I I I I #
face $-1 $52 $53 $18 $-1 $54 reversed single #
loop $-1 $-1 $55 $23 #
plane-surface $-1 -17.497713134297953 97.817275205506604 135.84095605255729 1 0 0 0 -0.80901700255871778 -0.5877852410284794 forward_v I I I I #
face $-1 $56 $57 $19 $-1 $58 forward single #
loop $-1 $59 $60 $24 #
cone-surface $-1 -7.8750799975794052 31.453844100234711 6.5252178515604333 0 -0.80901700255871778 -0.5877852410284794 2 0 0 1 I I 0 1 2 forward I I I I #
face $-1 $61 $62 $15 $-1 $63 reversed single #
loop $-1 $-1 $64 $25 #
plane-surface $-1 0 0 -11.720485277400055 0 0 1 1 0 0 forward_v I I I I #
coedge $-1 $65 $66 $67 $68 forward $26 $-1 #
face $-1 $69 $70 $16 $-1 $71 forward single #
loop $-1 $-1 $72 $28 #
plane-surface $-1 0 35.632319640431213 0 0 -1 0 0 0 -1 forward_v I I I I #
coedge $-1 $73 $74 $75 $76 forward $29 $-1 #
face $-1 $77 $78 $17 $-1 $79 forward single #
loop $-1 $-1 $80 $31 #
plane-surface $-1 0 35.632319640431213 0 0 -1 0 0 0 -1 forward_v I I I I #
coedge $-1 $81 $82 $83 $84 forward $32 $-1 #
face $-1 $85 $86 $18 $-1 $87 reversed single #
loop $-1 $-1 $88 $34 #
plane-surface $-1 -7.8750799975794052 -6.2559835360781477 60.227309762593407 0 0.80901700255871778 0.5877852410284794 1 0 0 forward_v I I I I #
coedge $-1 $89 $90 $91 $92 reversed $35 $-1 #
face $-1 $-1 $93 $19 $-1 $94 forward single #
loop $-1 $95 $96 $37 #
cone-surface $-1 -7.8750799975794052 29.789368218173614 5.31590537181145 0 -0.80901700255871778 -0.5877852410284794 1 0 0 1 I I -0.70710678118654746 0.70710678118654746 1 forward I I I I #
loop $-1 $-1 $97 $24 #
coedge $-1 $60 $60 $98 $99 reversed $38 $-1 #
face $-1 $100 $101 $15 $-1 $102 reversed single #
loop $-1 $-1 $103 $40 #
plane-surface $-1 0 -35.632319640431213 0 0 1 0 0 0 1 forward_v I I I I #
coedge $-1 $104 $105 $106 $107 forward $41 $-1 #
coedge $-1 $108 $43 $109 $110 forward $26 $-1 #
coedge $-1 $43 $108 $111 $112 forward $26 $-1 #
coedge $-1 $113 $114 $43 $68 reversed $115 $-1 #
edge $-1 $116 -35.632319640431213 $117 35.632319640431213 $67 $118 forward 7 unknown #
face $-1 $119 $120 $16 $-1 $121 reversed single #
loop $-1 $-1 $75 $44 #
plane-surface $-1 -69.563834649708966 0 -8.720485277400055 0 0 1 1 0 0 forward_v I I I I #
coedge $-1 $122 $123 $74 $124 forward $45 $-1 #
coedge $-1 $125 $47 $126 $127 reversed $29 $-1 #
coedge $-1 $47 $125 $72 $124 reversed $29 $-1 #
coedge $-1 $128 $129 $47 $76 reversed $70 $-1 #
edge $-1 $130 -35.632319640431213 $131 35.632319640431213 $75 $132 forward 7 unknown #
face $-1 $133 $134 $17 $-1 $135 reversed single #
loop $-1 $-1 $136 $48 #
plane-surface $-1 69.563834649708966 0 -8.720485277400055 0 0 1 1 0 0 forward_v I I I I #
coedge $-1 $137 $138 $81 $139 forward $49 $-1 #
coedge $-1 $140 $51 $80 $139 reversed $32 $-1 #
coedge $-1 $51 $140 $141 $142 reversed $32 $-1 #
coedge $-1 $143 $144 $51 $84 reversed $78 $-1 #
edge $-1 $145 -35.632319640431213 $146 35.632319640431213 $83 $147 forward 7 unknown #
face $-1 $148 $149 $18 $-1 $150 reversed single #
loop $-1 $-1 $151 $52 #
plane-surface $-1 1.7475531391391428 97.817275205506604 135.84095605255729 -1 0 0 0 0.80901700255871778 0.5877852410284794 forward_v I I I I #
coedge $-1 $152 $153 $154 $155 reversed $53 $-1 #
coedge $-1 $90 $55 $156 $157 reversed $35 $-1 #
coedge $-1 $55 $89 $152 $158 reversed $35 $-1 #
coedge $-1 $154 $159 $55 $92 forward $160 $-1 #
edge $-1 $161 13.276317962322089 $162 19.922351283710363 $91 $163 forward 7 unknown #
loop $-1 $-1 $98 $56 #
plane-surface $-1 -7.8750799975794052 -6.2559835360781477 60.227309762593407 0 0.80901700255871778 0.5877852410284794 1 0 0 forward_v I I I I #
loop $-1 $-1 $164 $37 #
coedge $-1 $96 $96 $97 $165 reversed $57 $-1 #
coedge $-1 $97 $97 $96 $165 forward $59 $-1 #
coedge $-1 $98 $98 $60 $99 forward $93 $-1 #
edge $-1 $166 -6.7421662530474143e-017 $166 6.2831853071796004 $98 $167 forward 7 unknown #
face $-1 $168 $169 $15 $-1 $170 reversed single #
loop $-1 $-1 $171 $61 #
plane-surface $-1 -64.320810571611688 0 0 1 0 0 0 0 -1 forward_v I I I I #
coedge $-1 $172 $111 $171 $173 forward $62 $-1 #
coedge $-1 $174 $64 $172 $175 forward $41 $-1 #
coedge $-1 $64 $174 $176 $177 forward $41 $-1 #
coedge $-1 $114 $113 $64 $107 reversed $115 $-1 #
edge $-1 $178 -35.632319640431213 $179 35.632319640431213 $106 $180 forward 7 unknown #
coedge $-1 $66 $65 $181 $182 forward $26 $-1 #
coedge $-1 $183 $184 $65 $110 reversed $169 $-1 #
edge $-1 $117 -64.320810571611688 $185 64.320810571611688 $109 $186 forward 7 unknown #
coedge $-1 $103 $187 $66 $112 reversed $62 $-1 #
edge $-1 $188 -64.320810571611688 $116 64.320810571611688 $111 $189 forward 7 unknown #
coedge $-1 $106 $67 $187 $190 forward $115 $-1 #
coedge $-1 $67 $106 $183 $191 reversed $115 $-1 #
loop $-1 $-1 $114 $168 #
vertex $-1 $68 $192 #
vertex $-1 $68 $193 #
straight-curve $-1 64.320810571611688 0 11.720485277400055 0 1 0 I I #
face $-1 $194 $195 $16 $-1 $196 reversed single #
loop $-1 $-1 $197 $69 #
plane-surface $-1 -74.806858727806244 0 -10.220485277400055 1 0 0 0 0 -1 forward_v I I I I #
coedge $-1 $198 $72 $199 $200 reversed $45 $-1 #
coedge $-1 $72 $198 $128 $201 reversed $45 $-1 #
edge $-1 $130 8.720485277400055 $202 11.720485277400055 $72 $203 forward 7 unknown #
coedge $-1 $74 $73 $204 $205 reversed $29 $-1 #
coedge $-1 $206 $207 $73 $127 forward $208 $-1 #
edge $-1 $209 -11.720485277400055 $131 -8.720485277400055 $126 $210 forward 7 unknown #
coedge $-1 $211 $75 $123 $201 forward $70 $-1 #
coedge $-1 $75 $211 $206 $212 forward $70 $-1 #
vertex $-1 $124 $213 #
vertex $-1 $212 $214 #
straight-curve $-1 -64.320810571611688 0 -8.720485277400055 0 -1 0 I I #
face $-1 $215 $216 $17 $-1 $217 reversed single #
loop $-1 $-1 $218 $77 #
plane-surface $-1 74.806858727806244 0 -10.220485277400055 -1 0 0 0 0 1 forward_v I I I I #
coedge $-1 $144 $143 $219 $220 forward $78 $-1 #
coedge $-1 $221 $80 $144 $222 reversed $49 $-1 #
coedge $-1 $80 $221 $223 $224 reversed $49 $-1 #
edge $-1 $225 -11.720485277400055 $146 -8.720485277400055 $80 $226 forward 7 unknown #
coedge $-1 $82 $81 $227 $228 reversed $32 $-1 #
coedge $-1 $229 $230 $82 $142 forward $231 $-1 #
edge $-1 $145 8.720485277400055 $232 11.720485277400055 $141 $233 forward 7 unknown #
coedge $-1 $136 $83 $230 $234 forward $78 $-1 #
coedge $-1 $83 $136 $137 $222 forward $78 $-1 #
vertex $-1 $142 $235 #
vertex $-1 $222 $236 #
straight-curve $-1 64.320810571611688 0 -8.720485277400055 0 1 0 I I #
face $-1 $-1 $160 $18 $-1 $237 forward single #
loop $-1 $-1 $238 $85 #
plane-surface $-1 0 35.632319640431213 0 0 -1 0 0 0 -1 forward_v I I I I #
coedge $-1 $239 $240 $241 $242 reversed $86 $-1 #
coedge $-1 $243 $88 $90 $158 forward $53 $-1 #
coedge $-1 $88 $243 $239 $244 forward $53 $-1 #
coedge $-1 $241 $91 $88 $155 forward $160 $-1 #
edge $-1 $162 -13.560173135508251 $245 5.6850931379288454 $154 $246 forward 7 unknown #
coedge $-1 $247 $248 $89 $157 forward $149 $-1 #
edge $-1 $249 -65.347473123116814 $161 -56.199992748878586 $156 $250 forward 7 unknown #
edge $-1 $162 59.957731829836 $249 71.264639280862426 $90 $251 forward 7 unknown #
coedge $-1 $91 $241 $247 $252 forward $160 $-1 #
loop $-1 $-1 $241 $148 #
vertex $-1 $157 $253 #
vertex $-1 $92 $254 #
straight-curve $-1 -17.497713134297953 48.908637602753302 11.720485277400059 0 -1 0 I I #
coedge $-1 $164 $164 $-1 $255 reversed $95 $-1 #
edge $-1 $256 0 $256 6.2831853071796004 $96 $257 forward 7 unknown #
vertex $-1 $99 $258 #
ellipse-curve $-1 -7.8750799975794052 32.309302979737083 7.1467450902809322 0 0.80901700255871778 0.5877852410284794 2 0 0 1 I I #
face $-1 $-1 $115 $15 $-1 $259 reversed single #
loop $-1 $-1 $183 $100 #
plane-surface $-1 0 35.632319640431213 0 0 -1 0 0 0 -1 forward_v I I I I #
coedge $-1 $181 $260 $103 $173 reversed $101 $-1 #
coedge $-1 $187 $103 $104 $175 reversed $62 $-1 #
edge $-1 $188 -11.720485277400055 $261 11.720485277400055 $171 $262 forward 7 unknown #
coedge $-1 $105 $104 $260 $263 forward $41 $-1 #
edge $-1 $179 -64.320810571611688 $261 64.320810571611688 $172 $264 forward 7 unknown #
coedge $-1 $184 $183 $105 $177 reversed $169 $-1 #
edge $-1 $265 -64.320810571611688 $178 64.320810571611688 $176 $266 forward 7 unknown #
vertex $-1 $107 $267 #
vertex $-1 $190 $268 #
straight-curve $-1 64.320810571611688 0 -11.720485277400055 0 -1 0 I I #
coedge $-1 $269 $171 $108 $182 reversed $101 $-1 #
edge $-1 $185 -35.632319640431213 $188 35.632319640431213 $181 $270 forward 7 unknown #
coedge $-1 $176 $109 $114 $191 forward $169 $-1 #
coedge $-1 $109 $176 $269 $271 reversed $169 $-1 #
vertex $-1 $110 $272 #
straight-curve $-1 0 35.632319640431213 11.720485277400055 -1 0 0 I I #
coedge $-1 $111 $172 $113 $190 reversed $62 $-1 #
vertex $-1 $182 $273 #
straight-curve $-1 0 -35.632319640431213 11.720485277400055 1 0 0 I I #
edge $-1 $116 -11.720485277400055 $179 11.720485277400055 $113 $274 forward 7 unknown #
edge $-1 $117 -11.720485277400055 $178 11.720485277400055 $114 $275 forward 7 unknown #
point $-1 64.320810571611688 -35.632319640431213 11.720485277400055 #
point $-1 64.320810571611688 35.632319640431213 11.720485277400055 #
face $-1 $-1 $208 $16 $-1 $276 reversed single #
loop $-1 $-1 $204 $119 #
plane-surface $-1 0 0 -11.720485277400055 0 0 1 1 0 0 forward_v I I I I #
coedge $-1 $277 $278 $198 $279 forward $120 $-1 #
coedge $-1 $123 $122 $197 $279 reversed $45 $-1 #
coedge $-1 $204 $280 $122 $200 forward $195 $-1 #
edge $-1 $281 -74.806858727806244 $202 -64.320810571611688 $122 $282 forward 7 unknown #
edge $-1 $130 -5.2430240780972781 $283 5.2430240780972781 $123 $284 forward 7 unknown #
vertex $-1 $124 $285 #
straight-curve $-1 -64.320810571611688 35.632319640431213 0 0 0 -1 I I #
coedge $-1 $286 $199 $125 $205 forward $195 $-1 #
edge $-1 $202 -35.632319640431213 $209 35.632319640431213 $204 $287 forward 7 unknown #
coedge $-1 $288 $126 $129 $212 reversed $208 $-1 #
coedge $-1 $126 $288 $286 $289 reversed $208 $-1 #
loop $-1 $-1 $126 $194 #
vertex $-1 $289 $290 #
straight-curve $-1 -64.320810571611688 -35.632319640431213 0 0 0 1 I I #
coedge $-1 $129 $128 $278 $291 forward $70 $-1 #
edge $-1 $292 -5.2430240780972781 $131 5.2430240780972781 $206 $293 forward 7 unknown #
point $-1 -64.320810571611688 35.632319640431213 -8.720485277400055 #
point $-1 -64.320810571611688 -35.632319640431213 -8.720485277400055 #
face $-1 $-1 $231 $17 $-1 $294 reversed single #
loop $-1 $-1 $227 $133 #
plane-surface $-1 0 0 -11.720485277400055 0 0 1 1 0 0 forward_v I I I I #
coedge $-1 $295 $219 $296 $297 forward $134 $-1 #
coedge $-1 $218 $298 $136 $220 reversed $134 $-1 #
edge $-1 $299 -35.632319640431213 $300 35.632319640431213 $219 $301 forward 7 unknown #
coedge $-1 $138 $137 $298 $302 forward $49 $-1 #
edge $-1 $300 -5.2430240780972781 $146 5.2430240780972781 $137 $303 forward 7 unknown #
coedge $-1 $304 $227 $138 $224 forward $216 $-1 #
edge $-1 $225 -5.2430240780972781 $305 5.2430240780972781 $138 $306 forward 7 unknown #
vertex $-1 $224 $307 #
straight-curve $-1 64.320810571611688 35.632319640431213 0 0 0 1 I I #
coedge $-1 $223 $308 $140 $228 forward $216 $-1 #
edge $-1 $232 -35.632319640431213 $225 35.632319640431213 $227 $309 forward 7 unknown #
coedge $-1 $296 $141 $308 $310 reversed $231 $-1 #
coedge $-1 $141 $296 $143 $234 reversed $231 $-1 #
loop $-1 $-1 $141 $215 #
vertex $-1 $142 $311 #
straight-curve $-1 64.320810571611688 -35.632319640431213 0 0 0 -1 I I #
edge $-1 $145 -5.2430240780972781 $299 5.2430240780972781 $230 $312 forward 7 unknown #
point $-1 64.320810571611688 -35.632319640431213 -8.720485277400055 #
point $-1 64.320810571611688 35.632319640431213 -8.720485277400055 #
plane-surface $-1 0 0 11.720485277400055 0 0 1 1 0 0 forward_v I I I I #
coedge $-1 $248 $247 $240 $313 forward $149 $-1 #
coedge $-1 $240 $151 $153 $244 reversed $86 $-1 #
coedge $-1 $151 $239 $238 $313 reversed $86 $-1 #
coedge $-1 $159 $154 $151 $242 forward $160 $-1 #
edge $-1 $245 -19.922351283710363 $314 -13.276317962322089 $241 $315 forward 7 unknown #
coedge $-1 $153 $152 $248 $316 reversed $53 $-1 #
edge $-1 $317 -71.264639280862426 $245 -59.957731829836 $239 $318 forward 7 unknown #
vertex $-1 $155 $319 #
straight-curve $-1 -3.9375399987897026 28.986286319042939 11.720485277400055 1 0 0 I I #
coedge $-1 $238 $156 $159 $252 reversed $149 $-1 #
coedge $-1 $156 $238 $243 $316 forward $149 $-1 #
vertex $-1 $157 $320 #
straight-curve $-1 -17.497713134297953 35.632319640431213 67.920478026278644 0 0 1 I I #
straight-curve $-1 -17.497713134297953 -6.2559835360781477 60.227309762593407 0 0.5877852410284794 -0.80901700255871778 I I #
edge $-1 $314 -1.7475531391391428 $161 17.497713134297953 $247 $321 forward 7 unknown #
point $-1 -17.497713134297953 35.632319640431213 11.720485277400055 #
point $-1 -17.497713134297953 28.986286319042939 11.720485277400059 #
edge $-1 $322 1 $322 0 $164 $-1 forward 7 unknown #
vertex $-1 $165 $323 #
ellipse-curve $-1 -7.8750799975794052 30.598385220732332 5.9036906128399291 0 0.80901700255871778 0.5877852410284794 2 0 0 1 I I #
point $-1 -5.8750799975794052 32.30930297973709 7.1467450902809375 #
plane-surface $-1 64.320810571611688 0 0 -1 0 0 0 0 1 forward_v I I I I #
coedge $-1 $171 $269 $174 $263 reversed $101 $-1 #
vertex $-1 $263 $324 #
straight-curve $-1 -64.320810571611688 -35.632319640431213 0 0 0 -1 I I #
edge $-1 $261 -35.632319640431213 $265 35.632319640431213 $260 $325 forward 7 unknown #
straight-curve $-1 0 -35.632319640431213 -11.720485277400055 -1 0 0 I I #
vertex $-1 $177 $326 #
straight-curve $-1 0 35.632319640431213 -11.720485277400055 1 0 0 I I #
point $-1 64.320810571611688 35.632319640431213 -11.720485277400055 #
point $-1 64.320810571611688 -35.632319640431213 -11.720485277400055 #
coedge $-1 $260 $181 $184 $271 forward $101 $-1 #
straight-curve $-1 -64.320810571611688 0 11.720485277400055 0 -1 0 I I #
edge $-1 $185 -11.720485277400055 $265 11.720485277400055 $184 $327 forward 7 unknown #
point $-1 -64.320810571611688 35.632319640431213 11.720485277400055 #
point $-1 -64.320810571611688 -35.632319640431213 11.720485277400055 #
straight-curve $-1 64.320810571611688 -35.632319640431213 0 0 0 -1 I I #
straight-curve $-1 64.320810571611688 35.632319640431213 0 0 0 -1 I I #
plane-surface $-1 0 -35.632319640431213 0 0 1 0 0 0 1 forward_v I I I I #
coedge $-1 $328 $197 $280 $329 reversed $120 $-1 #
coedge $-1 $197 $328 $211 $291 reversed $120 $-1 #
edge $-1 $283 -1.5 $281 1.5 $198 $330 forward 7 unknown #
coedge $-1 $199 $286 $277 $329 forward $195 $-1 #
vertex $-1 $200 $331 #
straight-curve $-1 0 35.632319640431213 -11.720485277400055 1 0 0 I I #
vertex $-1 $201 $332 #
straight-curve $-1 -69.563834649708966 35.632319640431213 -8.720485277400055 -1 0 0 I I #
point $-1 -64.320810571611688 35.632319640431213 -11.720485277400055 #
coedge $-1 $280 $204 $207 $289 forward $195 $-1 #
straight-curve $-1 -64.320810571611688 0 -11.720485277400055 0 -1 0 I I #
coedge $-1 $207 $206 $328 $333 forward $208 $-1 #
edge $-1 $209 -5.2430240780972781 $334 5.2430240780972781 $207 $335 forward 7 unknown #
point $-1 -64.320810571611688 -35.632319640431213 -11.720485277400055 #
edge $-1 $283 -35.632319640431213 $292 35.632319640431213 $278 $336 forward 7 unknown #
vertex $-1 $291 $337 #
straight-curve $-1 -69.563834649708966 -35.632319640431213 -8.720485277400055 1 0 0 I I #
plane-surface $-1 0 -35.632319640431213 0 0 1 0 0 0 1 forward_v I I I I #
coedge $-1 $298 $218 $304 $338 reversed $134 $-1 #
coedge $-1 $230 $229 $218 $297 reversed $231 $-1 #
edge $-1 $299 -1.5 $339 1.5 $218 $340 forward 7 unknown #
coedge $-1 $219 $295 $221 $302 reversed $134 $-1 #
vertex $-1 $220 $341 #
vertex $-1 $220 $342 #
straight-curve $-1 74.806858727806244 0 -8.720485277400055 0 1 0 I I #
edge $-1 $300 -1.5 $305 1.5 $298 $343 forward 7 unknown #
straight-curve $-1 69.563834649708966 35.632319640431213 -8.720485277400055 -1 0 0 I I #
coedge $-1 $308 $223 $295 $338 forward $216 $-1 #
vertex $-1 $338 $344 #
straight-curve $-1 69.563834649708966 35.632319640431213 -11.720485277400055 1 0 0 I I #
point $-1 64.320810571611688 35.632319640431213 -11.720485277400055 #
coedge $-1 $227 $304 $229 $310 forward $216 $-1 #
straight-curve $-1 64.320810571611688 0 -11.720485277400055 0 1 0 I I #
edge $-1 $339 -5.2430240780972781 $232 5.2430240780972781 $229 $345 forward 7 unknown #
point $-1 64.320810571611688 -35.632319640431213 -11.720485277400055 #
straight-curve $-1 69.563834649708966 -35.632319640431213 -8.720485277400055 1 0 0 I I #
edge $-1 $314 56.199992748878586 $317 65.347473123116814 $238 $346 forward 7 unknown #
vertex $-1 $252 $347 #
straight-curve $-1 1.7475531391391428 48.908637602753302 11.720485277400059 0 1 0 I I #
edge $-1 $317 -5.6850931379288454 $249 13.560173135508251 $248 $348 forward 7 unknown #
vertex $-1 $316 $349 #
straight-curve $-1 1.7475531391391428 -6.2559835360781477 60.227309762593407 0 -0.5877852410284794 0.80901700255871778 I I #
point $-1 1.7475531391391428 28.986286319042939 11.720485277400059 #
point $-1 -17.497713134297953 35.632319640431213 2.5730049031618307 #
straight-curve $-1 0 35.632319640431213 11.720485277400055 -1 0 0 I I #
vertex $-1 $255 $350 #
point $-1 -5.8750799975794052 30.598385220732332 5.9036906128399291 #
point $-1 -64.320810571611688 -35.632319640431213 -11.720485277400055 #
straight-curve $-1 -64.320810571611688 0 -11.720485277400055 0 1 0 I I #
point $-1 -64.320810571611688 35.632319640431213 -11.720485277400055 #
straight-curve $-1 -64.320810571611688 35.632319640431213 0 0 0 -1 I I #
coedge $-1 $278 $277 $288 $333 reversed $120 $-1 #
edge $-1 $334 -35.632319640431213 $281 35.632319640431213 $277 $351 forward 7 unknown #
straight-curve $-1 -74.806858727806244 35.632319640431213 -10.220485277400055 0 0 -1 I I #
point $-1 -74.806858727806244 35.632319640431213 -11.720485277400055 #
point $-1 -74.806858727806244 35.632319640431213 -8.720485277400055 #
edge $-1 $292 -1.5 $334 1.5 $328 $352 forward 7 unknown #
vertex $-1 $329 $353 #
straight-curve $-1 -69.563834649708966 -35.632319640431213 -11.720485277400055 -1 0 0 I I #
straight-curve $-1 -74.806858727806244 0 -8.720485277400055 0 -1 0 I I #
point $-1 -74.806858727806244 -35.632319640431213 -8.720485277400055 #
edge $-1 $305 -35.632319640431213 $339 35.632319640431213 $295 $354 forward 7 unknown #
vertex $-1 $297 $355 #
straight-curve $-1 74.806858727806244 -35.632319640431213 -10.220485277400055 0 0 -1 I I #
point $-1 74.806858727806244 -35.632319640431213 -8.720485277400055 #
point $-1 74.806858727806244 35.632319640431213 -8.720485277400055 #
straight-curve $-1 74.806858727806244 35.632319640431213 -10.220485277400055 0 0 -1 I I #
point $-1 74.806858727806244 35.632319640431213 -11.720485277400055 #
straight-curve $-1 69.563834649708966 -35.632319640431213 -11.720485277400055 -1 0 0 I I #
straight-curve $-1 1.7475531391391428 35.632319640431213 67.920478026278644 0 0 -1 I I #
point $-1 1.7475531391391428 35.632319640431213 11.720485277400055 #
straight-curve $-1 -3.9375399987897026 35.632319640431213 2.5730049031618307 -1 0 0 I I #
point $-1 1.7475531391391428 35.632319640431213 2.5730049031618307 #
point $-1 -7.8750799975794052 28.980351215614895 4.7281201307829708 #
straight-curve $-1 -74.806858727806244 0 -11.720485277400055 0 1 0 I I #
straight-curve $-1 -74.806858727806244 -35.632319640431213 -10.220485277400055 0 0 -1 I I #
point $-1 -74.806858727806244 -35.632319640431213 -11.720485277400055 #
straight-curve $-1 74.806858727806244 0 -11.720485277400055 0 -1 0 I I #
point $-1 74.806858727806244 -35.632319640431213 -11.720485277400055 #
End-of-ACIS-data 