500 0 8 0           
7 Unknown 11 ACIS 5.0 NT 24 Thu Mar 25 23:39:13 1999 
-1 9.9999999999999995e-007 1e-010 
body $-1 $8 $-1 $9 #
body $-1 $10 $-1 $11 #
body $-1 $12 $-1 $13 #
body $-1 $14 $-1 $15 #
body $-1 $16 $-1 $17 #
body $-1 $18 $-1 $19 #
body $-1 $20 $-1 $21 #
body $-1 $22 $-1 $23 #
lump $-1 $-1 $24 $0 #
transform $-1 1 0 0 0 1 0 0 0 1 61.73772392956328 32.642406065092864 8.2669456078119197 1 rotate no_reflect no_shear #
lump $-1 $-1 $25 $1 #
transform $-1 1 0 0 0 1 0 0 0 1 61.73772392956328 32.642406065092864 8.2669456078119197 1 rotate no_reflect no_shear #
lump $-1 $-1 $26 $2 #
transform $-1 1 0 0 0 1 0 0 0 1 61.73772392956328 32.642406065092864 8.2669456078119197 1 rotate no_reflect no_shear #
lump $-1 $-1 $27 $3 #
transform $-1 1 0 0 0 1 0 0 0 1 61.73772392956328 32.642406065092864 8.2669456078119197 1 rotate no_reflect no_shear #
lump $-1 $-1 $28 $4 #
transform $-1 1 0 0 0 1 0 0 0 1 61.73772392956328 32.642406065092864 8.2669456078119197 1 rotate no_reflect no_shear #
lump $-1 $-1 $29 $5 #
transform $-1 1 0 0 0 1 0 0 0 1 61.73772392956328 32.642406065092864 8.2669456078119197 1 rotate no_reflect no_shear #
lump $-1 $-1 $30 $6 #
transform $-1 1 0 0 0 1 0 0 0 1 61.73772392956328 32.642406065092864 8.2669456078119197 1 rotate no_reflect no_shear #
lump $-1 $-1 $31 $7 #
transform $-1 1 0 0 0 1 0 0 0 1 61.73772392956328 32.642406065092864 8.2669456078119197 1 rotate no_reflect no_shear #
shell $-1 $-1 $-1 $32 $-1 $8 #
shell $-1 $-1 $-1 $33 $-1 $10 #
shell $-1 $-1 $-1 $34 $-1 $12 #
shell $-1 $-1 $-1 $35 $-1 $14 #
shell $-1 $-1 $-1 $36 $-1 $16 #
shell $-1 $-1 $-1 $37 $-1 $18 #
shell $-1 $-1 $-1 $38 $-1 $20 #
shell $-1 $-1 $-1 $39 $-1 $22 #
face $-1 $40 $41 $24 $-1 $42 forward single #
face $-1 $43 $44 $25 $-1 $45 reversed single #
face $-1 $46 $47 $26 $-1 $48 forward single #
face $-1 $49 $50 $27 $-1 $51 forward single #
face $-1 $52 $53 $28 $-1 $54 reversed single #
face $-1 $55 $56 $29 $-1 $57 forward single #
face $-1 $58 $59 $30 $-1 $60 forward single #
face $-1 $61 $62 $31 $-1 $63 forward single #
face $-1 $64 $65 $24 $-1 $66 reversed single #
loop $-1 $-1 $67 $32 #
plane-surface $-1 0 0 8.2669456078119197 0 0 1 1 0 0 forward_v I I I I #
face $-1 $68 $69 $25 $-1 $70 reversed single #
loop $-1 $-1 $71 $33 #
plane-surface $-1 -15.967891940384874 -25.742642014449238 98.251875417077855 0.77714596973225614 0 0.62932038083071107 0.62932038083071107 0 -0.77714596973225614 forward_v I I I I #
face $-1 $72 $73 $26 $-1 $74 forward single #
loop $-1 $75 $76 $34 #
cone-surface $-1 57.564468356113331 -28.699683750439362 3.8593188136715453 -0.77714596973225614 0 -0.62932038083071107 0.9439805712460666 0 -1.1657189545983841 1 I I 0 1 1.5 forward I I I I #
face $-1 $77 $78 $27 $-1 $79 forward single #
loop $-1 $80 $81 $35 #
cone-surface $-1 57.564468356113331 -22.785600278459114 3.8593188136715453 -0.77714596973225614 0 -0.62932038083071107 0.9439805712460666 0 -1.1657189545983841 1 I I 0 1 1.5 forward I I I I #
face $-1 $82 $83 $28 $-1 $84 reversed single #
loop $-1 $-1 $85 $36 #
plane-surface $-1 -130.78431902263566 -8.5233104750092057 104.8836058143615 0 1 0 -0.55919291073839883 0 0.82903756765294845 forward_v I I I I #
face $-1 $86 $87 $29 $-1 $88 forward single #
loop $-1 $89 $90 $37 #
cone-surface $-1 -57.196413574984589 -7.1627835176674104 4.9778644482658594 0.55919291073839883 0 -0.82903756765294845 0.20725939191323711 0 0.13979822768459971 1 I I 0 1 0.25 forward I I I I #
face $-1 $91 $92 $30 $-1 $93 forward single #
loop $-1 $94 $95 $38 #
cone-surface $-1 -57.196413574984589 -5.1219930816547148 4.9778644482658594 0.55919291073839883 0 -0.82903756765294845 0.20725939191323711 0 0.13979822768459971 1 I I 0 1 0.25 forward I I I I #
face $-1 $96 $97 $31 $-1 $98 forward single #
loop $-1 $99 $100 $39 #
cone-surface $-1 -57.196413574984589 -3.0812026456420227 4.9778644482658594 0.55919291073839883 0 -0.82903756765294845 0.20725939191323711 0 0.13979822768459971 1 I I 0 1 0.25 forward I I I I #
face $-1 $101 $102 $24 $-1 $103 reversed single #
loop $-1 $-1 $104 $40 #
plane-surface $-1 0 0 -8.2669456078119197 0 0 1 1 0 0 forward_v I I I I #
coedge $-1 $105 $106 $107 $108 forward $41 $-1 #
face $-1 $109 $110 $25 $-1 $111 forward single #
loop $-1 $-1 $112 $43 #
plane-surface $-1 79.990554724220658 -18.842877963805613 175.95749128702599 0 -1 0 -0.77714596973225614 0 -0.62932038083071107 forward_v I I I I #
coedge $-1 $113 $114 $115 $116 reversed $44 $-1 #
face $-1 $-1 $117 $26 $-1 $118 forward single #
loop $-1 $119 $120 $46 #
cone-surface $-1 55.22698252607298 -28.699683750439362 1.9664601615779276 -0.77714596973225614 0 -0.62932038083071107 0.4719902856230333 0 -0.58285947729919207 1 I I -0.70710678118654757 0.70710678118654757 0.75 forward I I I I #
loop $-1 $-1 $121 $34 #
coedge $-1 $76 $76 $122 $123 reversed $47 $-1 #
face $-1 $-1 $124 $27 $-1 $125 forward single #
loop $-1 $126 $127 $49 #
cone-surface $-1 55.22698252607298 -22.785600278459114 1.9664601615779276 -0.77714596973225614 0 -0.62932038083071107 0.4719902856230333 0 -0.58285947729919207 1 I I -0.70710678118654757 0.70710678118654757 0.75 forward I I I I #
loop $-1 $-1 $128 $35 #
coedge $-1 $81 $81 $129 $130 reversed $50 $-1 #
face $-1 $131 $132 $28 $-1 $133 reversed single #
loop $-1 $-1 $134 $52 #
plane-surface $-1 -61.737723929563273 -5.1219930816547148 2.5178208563727509 -0.55919291073839883 0 0.82903756765294845 0.82903756765294845 0 0.55919291073839883 forward_v I I I I #
coedge $-1 $135 $136 $137 $138 reversed $53 $-1 #
face $-1 $-1 $139 $29 $-1 $140 forward single #
loop $-1 $141 $142 $55 #
cone-surface $-1 -56.846918005773091 -7.1627835176674104 4.459715968482767 0.55919291073839883 0 -0.82903756765294845 0.10362969595661856 0 0.069899113842299854 1 I I -0.70710678118654746 0.70710678118654746 0.125 forward I I I I #
loop $-1 $-1 $143 $37 #
coedge $-1 $90 $90 $144 $145 reversed $56 $-1 #
face $-1 $-1 $146 $30 $-1 $147 forward single #
loop $-1 $148 $149 $58 #
cone-surface $-1 -56.846918005773091 -5.1219930816547148 4.459715968482767 0.55919291073839883 0 -0.82903756765294845 0.10362969595661856 0 0.069899113842299854 1 I I -0.70710678118654746 0.70710678118654746 0.125 forward I I I I #
loop $-1 $-1 $150 $38 #
coedge $-1 $95 $95 $151 $152 reversed $59 $-1 #
face $-1 $-1 $153 $31 $-1 $154 forward single #
loop $-1 $155 $156 $61 #
cone-surface $-1 -56.846918005773091 -3.0812026456420227 4.459715968482767 0.55919291073839883 0 -0.82903756765294845 0.10362969595661856 0 0.069899113842299854 1 I I -0.70710678118654746 0.70710678118654746 0.125 forward I I I I #
loop $-1 $-1 $157 $39 #
coedge $-1 $100 $100 $158 $159 reversed $62 $-1 #
face $-1 $160 $161 $24 $-1 $162 reversed single #
loop $-1 $-1 $163 $64 #
plane-surface $-1 0 -32.642406065092864 0 0 1 0 0 0 1 forward_v I I I I #
coedge $-1 $164 $165 $166 $167 forward $65 $-1 #
coedge $-1 $168 $67 $169 $170 forward $41 $-1 #
coedge $-1 $67 $168 $171 $172 forward $41 $-1 #
coedge $-1 $173 $174 $67 $108 reversed $175 $-1 #
edge $-1 $176 -32.642406065092864 $177 32.642406065092864 $107 $178 forward 7 unknown #
face $-1 $179 $180 $25 $-1 $181 reversed single #
loop $-1 $-1 $182 $68 #
plane-surface $-1 0 0 8.2669456078119197 0 0 1 1 0 0 forward_v I I I I #
coedge $-1 $183 $184 $185 $186 reversed $69 $-1 #
coedge $-1 $187 $71 $188 $189 reversed $44 $-1 #
coedge $-1 $71 $187 $183 $190 forward $44 $-1 #
coedge $-1 $185 $191 $71 $116 forward $192 $-1 #
edge $-1 $193 -19.771085057868245 $194 -5.9715569565809936 $115 $195 forward 7 unknown #
loop $-1 $-1 $122 $72 #
plane-surface $-1 -15.967891940384874 -25.742642014449238 98.251875417077855 0.77714596973225614 0 0.62932038083071107 0.62932038083071107 0 -0.77714596973225614 forward_v I I I I #
loop $-1 $-1 $196 $46 #
coedge $-1 $120 $120 $121 $197 reversed $73 $-1 #
coedge $-1 $121 $121 $120 $197 forward $75 $-1 #
coedge $-1 $122 $122 $76 $123 forward $117 $-1 #
edge $-1 $198 0 $198 6.2831853071796004 $122 $199 forward 7 unknown #
loop $-1 $-1 $129 $77 #
plane-surface $-1 -15.967891940384874 -25.742642014449238 98.251875417077855 0.77714596973225614 0 0.62932038083071107 0.62932038083071107 0 -0.77714596973225614 forward_v I I I I #
loop $-1 $-1 $200 $49 #
coedge $-1 $127 $127 $128 $201 reversed $78 $-1 #
coedge $-1 $128 $128 $127 $201 forward $80 $-1 #
coedge $-1 $129 $129 $81 $130 forward $124 $-1 #
edge $-1 $202 0 $202 6.2831853071796004 $129 $203 forward 7 unknown #
face $-1 $204 $205 $28 $-1 $206 reversed single #
loop $-1 $-1 $207 $82 #
plane-surface $-1 -130.78431902263566 -1.7206756883002239 104.8836058143615 0 -1 0 0.55919291073839883 0 -0.82903756765294845 forward_v I I I I #
coedge $-1 $208 $209 $210 $211 reversed $83 $-1 #
coedge $-1 $136 $85 $212 $213 reversed $53 $-1 #
coedge $-1 $85 $135 $208 $214 reversed $53 $-1 #
coedge $-1 $210 $215 $85 $138 forward $216 $-1 #
edge $-1 $217 3.654435581754548 $218 12.177863380173534 $137 $219 forward 7 unknown #
loop $-1 $-1 $144 $86 #
plane-surface $-1 -61.737723929563273 -5.1219930816547148 2.5178208563727509 -0.55919291073839883 0 0.82903756765294845 0.82903756765294845 0 0.55919291073839883 forward_v I I I I #
loop $-1 $-1 $220 $55 #
coedge $-1 $142 $142 $143 $221 reversed $87 $-1 #
coedge $-1 $143 $143 $142 $221 forward $89 $-1 #
coedge $-1 $144 $144 $90 $145 forward $139 $-1 #
edge $-1 $222 0 $222 6.2831853071796004 $144 $223 forward 7 unknown #
loop $-1 $-1 $151 $91 #
plane-surface $-1 -61.737723929563273 -5.1219930816547148 2.5178208563727509 -0.55919291073839883 0 0.82903756765294845 0.82903756765294845 0 0.55919291073839883 forward_v I I I I #
loop $-1 $-1 $224 $58 #
coedge $-1 $149 $149 $150 $225 reversed $92 $-1 #
coedge $-1 $150 $150 $149 $225 forward $94 $-1 #
coedge $-1 $151 $151 $95 $152 forward $146 $-1 #
edge $-1 $226 0 $226 6.2831853071796004 $151 $227 forward 7 unknown #
loop $-1 $-1 $158 $96 #
plane-surface $-1 -61.737723929563273 -5.1219930816547148 2.5178208563727509 -0.55919291073839883 0 0.82903756765294845 0.82903756765294845 0 0.55919291073839883 forward_v I I I I #
loop $-1 $-1 $228 $61 #
coedge $-1 $156 $156 $157 $229 reversed $97 $-1 #
coedge $-1 $157 $157 $156 $229 forward $99 $-1 #
coedge $-1 $158 $158 $100 $159 forward $153 $-1 #
edge $-1 $230 0 $230 6.2831853071796004 $158 $231 forward 7 unknown #
face $-1 $232 $233 $24 $-1 $234 reversed single #
loop $-1 $-1 $235 $101 #
plane-surface $-1 -61.73772392956328 0 0 1 0 0 0 0 -1 forward_v I I I I #
coedge $-1 $236 $171 $237 $238 forward $102 $-1 #
coedge $-1 $239 $104 $236 $240 forward $65 $-1 #
coedge $-1 $104 $239 $241 $242 forward $65 $-1 #
coedge $-1 $174 $173 $104 $167 reversed $175 $-1 #
edge $-1 $243 -32.642406065092864 $244 32.642406065092864 $166 $245 forward 7 unknown #
coedge $-1 $106 $105 $246 $247 forward $41 $-1 #
coedge $-1 $248 $249 $105 $170 reversed $233 $-1 #
edge $-1 $177 -61.73772392956328 $250 61.73772392956328 $169 $251 forward 7 unknown #
coedge $-1 $163 $252 $106 $172 reversed $102 $-1 #
edge $-1 $253 -61.73772392956328 $176 61.73772392956328 $171 $254 forward 7 unknown #
coedge $-1 $166 $107 $252 $255 forward $175 $-1 #
coedge $-1 $107 $166 $248 $256 reversed $175 $-1 #
loop $-1 $-1 $173 $232 #
vertex $-1 $108 $257 #
vertex $-1 $108 $258 #
straight-curve $-1 61.73772392956328 0 8.2669456078119197 0 1 0 I I #
face $-1 $-1 $192 $25 $-1 $259 reversed single #
loop $-1 $-1 $188 $109 #
plane-surface $-1 0 -32.642406065092864 0 0 1 0 0 0 1 forward_v I I I I #
coedge $-1 $260 $261 $184 $262 forward $110 $-1 #
coedge $-1 $184 $112 $114 $190 reversed $69 $-1 #
coedge $-1 $112 $183 $182 $262 reversed $69 $-1 #
coedge $-1 $263 $115 $112 $186 forward $192 $-1 #
edge $-1 $194 -85.685316891040713 $264 -79.711800035701074 $185 $265 forward 7 unknown #
coedge $-1 $114 $113 $260 $266 reversed $44 $-1 #
coedge $-1 $267 $268 $113 $189 forward $180 $-1 #
edge $-1 $269 72.586483567339997 $193 80.272963441124389 $188 $270 forward 7 unknown #
edge $-1 $271 115.78896798534223 $194 123.4754478591266 $183 $272 forward 7 unknown #
coedge $-1 $115 $263 $267 $273 forward $192 $-1 #
loop $-1 $-1 $185 $179 #
vertex $-1 $189 $274 #
vertex $-1 $116 $275 #
straight-curve $-1 61.737723929563273 -12.871321007224619 2.2934287524722876 0 1 0 I I #
coedge $-1 $196 $196 $-1 $276 reversed $119 $-1 #
edge $-1 $277 0 $277 6.2831853071796004 $120 $278 forward 7 unknown #
vertex $-1 $123 $279 #
ellipse-curve $-1 59.319094708854472 -28.699683750439362 5.2801871801421116 0.77714596973225614 0 0.62932038083071107 0.9439805712460666 0 -1.1657189545983841 1 I I #
coedge $-1 $200 $200 $-1 $280 reversed $126 $-1 #
edge $-1 $281 0 $281 6.2831853071796004 $127 $282 forward 7 unknown #
vertex $-1 $130 $283 #
ellipse-curve $-1 59.319094708854472 -22.785600278459114 5.2801871801421116 0.77714596973225614 0 0.62932038083071107 0.9439805712460666 0 -1.1657189545983841 1 I I #
face $-1 $-1 $216 $28 $-1 $284 forward single #
loop $-1 $-1 $285 $131 #
plane-surface $-1 -61.73772392956328 0 0 1 0 0 0 0 -1 forward_v I I I I #
coedge $-1 $286 $287 $288 $289 reversed $132 $-1 #
coedge $-1 $290 $134 $136 $214 forward $83 $-1 #
coedge $-1 $134 $290 $286 $291 forward $83 $-1 #
coedge $-1 $288 $137 $134 $211 forward $216 $-1 #
edge $-1 $218 -5.9623139341818483 $292 0.84032085252713351 $210 $293 forward 7 unknown #
coedge $-1 $294 $295 $135 $213 forward $205 $-1 #
edge $-1 $296 -49.923982050808007 $217 -44.174857299368831 $212 $297 forward 7 unknown #
edge $-1 $218 -10.281111654022238 $296 8.6223131303995443e-015 $136 $298 forward 7 unknown #
coedge $-1 $137 $288 $294 $299 forward $216 $-1 #
loop $-1 $-1 $288 $204 #
vertex $-1 $213 $300 #
vertex $-1 $138 $301 #
straight-curve $-1 -65.392159511317828 -8.5233104750092057 8.2669456078119197 1 0 0 I I #
coedge $-1 $220 $220 $-1 $302 reversed $141 $-1 #
edge $-1 $303 0 $303 6.2831853071796004 $142 $304 forward 7 unknown #
vertex $-1 $145 $305 #
ellipse-curve $-1 -57.476010030353791 -7.1627835176674104 5.3923832320923326 -0.55919291073839883 0 0.82903756765294845 0.20725939191323711 0 0.13979822768459971 1 I I #
coedge $-1 $224 $224 $-1 $306 reversed $148 $-1 #
edge $-1 $307 0 $307 6.2831853071796004 $149 $308 forward 7 unknown #
vertex $-1 $152 $309 #
ellipse-curve $-1 -57.476010030353791 -5.1219930816547148 5.3923832320923326 -0.55919291073839883 0 0.82903756765294845 0.20725939191323711 0 0.13979822768459971 1 I I #
coedge $-1 $228 $228 $-1 $310 reversed $155 $-1 #
edge $-1 $311 0 $311 6.2831853071796004 $156 $312 forward 7 unknown #
vertex $-1 $159 $313 #
ellipse-curve $-1 -57.476010030353791 -3.0812026456420227 5.3923832320923326 -0.55919291073839883 0 0.82903756765294845 0.20725939191323711 0 0.13979822768459971 1 I I #
face $-1 $-1 $175 $24 $-1 $314 reversed single #
loop $-1 $-1 $248 $160 #
plane-surface $-1 0 32.642406065092864 0 0 -1 0 0 0 -1 forward_v I I I I #
coedge $-1 $315 $246 $249 $316 forward $161 $-1 #
coedge $-1 $252 $163 $164 $240 reversed $102 $-1 #
coedge $-1 $246 $315 $163 $238 reversed $161 $-1 #
edge $-1 $253 -8.2669456078119197 $317 8.2669456078119197 $237 $318 forward 7 unknown #
coedge $-1 $165 $164 $315 $319 forward $65 $-1 #
edge $-1 $244 -61.73772392956328 $317 61.73772392956328 $236 $320 forward 7 unknown #
coedge $-1 $249 $248 $165 $242 reversed $233 $-1 #
edge $-1 $321 -61.73772392956328 $243 61.73772392956328 $241 $322 forward 7 unknown #
vertex $-1 $167 $323 #
vertex $-1 $255 $324 #
straight-curve $-1 61.73772392956328 0 -8.2669456078119197 0 -1 0 I I #
coedge $-1 $235 $237 $168 $247 reversed $161 $-1 #
edge $-1 $250 -32.642406065092864 $253 32.642406065092864 $246 $325 forward 7 unknown #
coedge $-1 $241 $169 $174 $256 forward $233 $-1 #
coedge $-1 $169 $241 $235 $316 reversed $233 $-1 #
vertex $-1 $170 $326 #
straight-curve $-1 0 32.642406065092864 8.2669456078119197 -1 0 0 I I #
coedge $-1 $171 $236 $173 $255 reversed $102 $-1 #
vertex $-1 $247 $327 #
straight-curve $-1 0 -32.642406065092864 8.2669456078119197 1 0 0 I I #
edge $-1 $176 -8.2669456078119197 $244 8.2669456078119197 $173 $328 forward 7 unknown #
edge $-1 $177 -8.2669456078119197 $243 8.2669456078119197 $174 $329 forward 7 unknown #
point $-1 61.73772392956328 -32.642406065092864 8.2669456078119197 #
point $-1 61.73772392956328 32.642406065092864 8.2669456078119197 #
plane-surface $-1 61.73772392956328 0 0 -1 0 0 0 0 1 forward_v I I I I #
coedge $-1 $330 $182 $187 $266 forward $110 $-1 #
coedge $-1 $182 $330 $263 $331 forward $110 $-1 #
edge $-1 $264 -21.742446567452951 $271 -16.90518812603537 $182 $332 forward 7 unknown #
coedge $-1 $191 $185 $261 $331 reversed $192 $-1 #
vertex $-1 $186 $333 #
straight-curve $-1 61.73772392956328 -18.842877963805613 87.978745643512994 0 0 1 I I #
edge $-1 $271 5.9715569565809936 $269 19.771085057868245 $260 $334 forward 7 unknown #
coedge $-1 $268 $188 $191 $273 reversed $180 $-1 #
coedge $-1 $188 $267 $330 $335 reversed $180 $-1 #
vertex $-1 $335 $336 #
straight-curve $-1 11.220312006385143 -32.642406065092864 64.677238769206838 0.62932038083071107 0 -0.77714596973225614 I I #
vertex $-1 $266 $337 #
straight-curve $-1 -15.967891940384874 -18.842877963805613 98.251875417077855 0.62932038083071107 0 -0.77714596973225614 I I #
edge $-1 $338 -8.2669456078119197 $193 -2.2934287524722734 $191 $339 forward 7 unknown #
point $-1 61.73772392956328 -32.642406065092864 2.2934287524722734 #
point $-1 61.737723929563288 -18.842877963805613 2.2934287524722805 #
edge $-1 $340 1 $340 0 $196 $-1 forward 7 unknown #
vertex $-1 $197 $341 #
ellipse-curve $-1 55.809842003372175 -28.699683750439362 2.4384504472009607 0.77714596973225614 0 0.62932038083071107 0.9439805712460666 0 -1.1657189545983841 1 I I #
point $-1 60.263075280100558 -28.699683750439362 4.1144682255437459 #
edge $-1 $342 1 $342 0 $200 $-1 forward 7 unknown #
vertex $-1 $201 $343 #
ellipse-curve $-1 55.809842003372175 -22.785600278459114 2.4384504472009607 0.77714596973225614 0 0.62932038083071107 0.9439805712460666 0 -1.1657189545983841 1 I I #
point $-1 60.263075280100558 -22.785600278459114 4.1144682255437459 #
plane-surface $-1 0 0 8.2669456078119197 0 0 1 1 0 0 forward_v I I I I #
coedge $-1 $295 $294 $287 $344 forward $205 $-1 #
coedge $-1 $287 $207 $209 $291 reversed $132 $-1 #
coedge $-1 $207 $286 $285 $344 reversed $132 $-1 #
coedge $-1 $215 $210 $207 $289 forward $216 $-1 #
edge $-1 $292 -12.177863380173534 $345 -3.654435581754548 $288 $346 forward 7 unknown #
coedge $-1 $209 $208 $295 $347 reversed $83 $-1 #
edge $-1 $348 -8.6223131303995443e-015 $292 10.281111654022238 $286 $349 forward 7 unknown #
vertex $-1 $211 $350 #
straight-curve $-1 -53.214296131144295 -2.5609965408273574 8.2669456078119179 0 1 0 I I #
coedge $-1 $285 $212 $215 $299 reversed $205 $-1 #
coedge $-1 $212 $285 $290 $347 forward $205 $-1 #
vertex $-1 $213 $351 #
straight-curve $-1 -61.73772392956328 -8.5233104750092057 52.441802907180751 0 0 1 I I #
straight-curve $-1 -61.737723929563273 -8.5233104750092057 2.5178208563727509 -0.82903756765294845 0 -0.55919291073839883 I I #
edge $-1 $345 1.7206756883002239 $217 8.5233104750092057 $294 $352 forward 7 unknown #
point $-1 -61.73772392956328 -8.5233104750092057 8.2669456078119197 #
point $-1 -53.214296131144295 -8.5233104750092057 8.2669456078119197 #
edge $-1 $353 1 $353 0 $220 $-1 forward 7 unknown #
vertex $-1 $221 $354 #
ellipse-curve $-1 -56.916817119615388 -7.1627835176674104 4.5633456644393853 -0.55919291073839883 0 0.82903756765294845 0.20725939191323711 0 0.13979822768459971 1 I I #
point $-1 -57.268750638440551 -7.1627835176674104 5.5321814597769334 #
edge $-1 $355 1 $355 0 $224 $-1 forward 7 unknown #
vertex $-1 $225 $356 #
ellipse-curve $-1 -56.916817119615388 -5.1219930816547148 4.5633456644393853 -0.55919291073839883 0 0.82903756765294845 0.20725939191323711 0 0.13979822768459971 1 I I #
point $-1 -57.268750638440551 -5.1219930816547148 5.5321814597769334 #
edge $-1 $357 1 $357 0 $228 $-1 forward 7 unknown #
vertex $-1 $229 $358 #
ellipse-curve $-1 -56.916817119615388 -3.0812026456420227 4.5633456644393853 -0.55919291073839883 0 0.82903756765294845 0.20725939191323711 0 0.13979822768459971 1 I I #
point $-1 -57.268750638440551 -3.0812026456420227 5.5321814597769334 #
plane-surface $-1 61.73772392956328 0 0 -1 0 0 0 0 1 forward_v I I I I #
coedge $-1 $237 $235 $239 $319 reversed $161 $-1 #
edge $-1 $250 -8.2669456078119197 $321 8.2669456078119197 $249 $359 forward 7 unknown #
vertex $-1 $319 $360 #
straight-curve $-1 -61.73772392956328 -32.642406065092864 0 0 0 -1 I I #
edge $-1 $317 -32.642406065092864 $321 32.642406065092864 $315 $361 forward 7 unknown #
straight-curve $-1 0 -32.642406065092864 -8.2669456078119197 -1 0 0 I I #
vertex $-1 $242 $362 #
straight-curve $-1 0 32.642406065092864 -8.2669456078119197 1 0 0 I I #
point $-1 61.73772392956328 32.642406065092864 -8.2669456078119197 #
point $-1 61.73772392956328 -32.642406065092864 -8.2669456078119197 #
straight-curve $-1 -61.73772392956328 0 8.2669456078119197 0 -1 0 I I #
point $-1 -61.73772392956328 32.642406065092864 8.2669456078119197 #
point $-1 -61.73772392956328 -32.642406065092864 8.2669456078119197 #
straight-curve $-1 61.73772392956328 -32.642406065092864 0 0 0 -1 I I #
straight-curve $-1 61.73772392956328 32.642406065092864 0 0 0 -1 I I #
coedge $-1 $261 $260 $268 $335 forward $110 $-1 #
edge $-1 $338 -32.642406065092864 $264 -18.842877963805613 $263 $363 forward 7 unknown #
straight-curve $-1 39.995277362110329 -18.842877963805613 8.2669456078119197 -1 0 0 I I #
point $-1 61.73772392956328 -18.842877963805613 8.2669456078119197 #
straight-curve $-1 56.900465488145713 -12.871321007224619 8.2669456078119126 0 -1 0 I I #
edge $-1 $269 56.900465488145699 $338 61.73772392956328 $268 $364 forward 7 unknown #
point $-1 56.900465488145699 -32.642406065092864 8.2669456078119197 #
point $-1 56.900465488145699 -18.842877963805613 8.2669456078119197 #
vertex $-1 $331 $365 #
straight-curve $-1 61.73772392956328 -32.642406065092864 0 0 0 -1 I I #
vertex $-1 $276 $366 #
point $-1 56.753822574618241 -28.699683750439362 1.2727314926025768 #
vertex $-1 $280 $367 #
point $-1 56.753822574618241 -22.785600278459114 1.2727314926025768 #
edge $-1 $345 44.174857299368831 $348 49.923982050808007 $285 $368 forward 7 unknown #
vertex $-1 $299 $369 #
straight-curve $-1 -65.392159511317828 -1.7206756883002239 8.2669456078119197 -1 0 0 I I #
edge $-1 $348 -0.84032085252713351 $296 5.9623139341818483 $295 $370 forward 7 unknown #
vertex $-1 $347 $371 #
straight-curve $-1 -61.737723929563273 -1.7206756883002239 2.5178208563727509 0.82903756765294845 0 0.55919291073839883 I I #
point $-1 -53.214296131144295 -1.7206756883002239 8.2669456078119197 #
point $-1 -61.73772392956328 -8.5233104750092057 2.517820856372746 #
straight-curve $-1 -61.73772392956328 0 8.2669456078119197 0 -1 0 I I #
vertex $-1 $302 $372 #
point $-1 -56.709557727702155 -7.1627835176674104 4.7031438921239852 #
vertex $-1 $306 $373 #
point $-1 -56.709557727702155 -5.1219930816547148 4.7031438921239852 #
vertex $-1 $310 $374 #
point $-1 -56.709557727702155 -3.0812026456420227 4.7031438921239852 #
straight-curve $-1 -61.73772392956328 32.642406065092864 0 0 0 -1 I I #
point $-1 -61.73772392956328 -32.642406065092864 -8.2669456078119197 #
straight-curve $-1 -61.73772392956328 0 -8.2669456078119197 0 1 0 I I #
point $-1 -61.73772392956328 32.642406065092864 -8.2669456078119197 #
straight-curve $-1 61.73772392956328 0 8.2669456078119197 0 1 0 I I #
straight-curve $-1 0 -32.642406065092864 8.2669456078119197 1 0 0 I I #
point $-1 61.73772392956328 -32.642406065092864 8.2669456078119197 #
point $-1 54.644123048773785 -28.699683750439362 1.4944698759548942 #
point $-1 54.644123048773785 -22.785600278459114 1.4944698759548942 #
straight-curve $-1 -61.73772392956328 -1.7206756883002239 52.441802907180751 0 0 -1 I I #
point $-1 -61.73772392956328 -1.7206756883002239 8.2669456078119197 #
straight-curve $-1 -61.73772392956328 -2.5609965408273574 2.5178208563727433 0 -1 0 I I #
point $-1 -61.73772392956328 -1.7206756883002239 2.517820856372746 #
point $-1 -56.777018891930794 -7.1627835176674104 4.3560862725261487 #
point $-1 -56.777018891930794 -5.1219930816547148 4.3560862725261487 #
point $-1 -56.777018891930794 -3.0812026456420227 4.3560862725261487 #
End-of-ACIS-data 