500 0 12 0           
7 Unknown 11 ACIS 5.0 NT 24 Thu Mar 25 19:47:34 1999 
-1 9.9999999999999995e-007 1e-010 
body $-1 $12 $-1 $13 #
body $-1 $14 $-1 $15 #
body $-1 $16 $-1 $17 #
body $-1 $18 $-1 $19 #
body $-1 $20 $-1 $21 #
body $-1 $22 $-1 $23 #
body $-1 $24 $-1 $25 #
body $-1 $26 $-1 $27 #
body $-1 $28 $-1 $29 #
body $-1 $30 $-1 $31 #
body $-1 $32 $-1 $33 #
body $-1 $34 $-1 $35 #
lump $-1 $-1 $36 $0 #
transform $-1 1 0 0 0 1 0 0 0 1 67.328714865565971 28.161883433378126 12.996476720923917 1 rotate no_reflect no_shear #
lump $-1 $-1 $37 $1 #
transform $-1 1 0 0 0 1 0 0 0 1 67.328714865565971 7.7789904317674363 4.7843819434631829 1 rotate no_reflect no_shear #
lump $-1 $-1 $38 $2 #
transform $-1 1 0 0 0 1 0 0 0 1 67.328714865565971 48.544776434988819 4.7843819434631829 1 rotate no_reflect no_shear #
lump $-1 $-1 $39 $3 #
transform $-1 0.5877852410284794 0 0.80901700255871778 0 1 0 -0.80901700255871778 0 0.5877852410284794 -108.94015017334155 19.68802652377515 96.397992598309614 1 rotate no_reflect no_shear #
lump $-1 $-1 $40 $4 #
transform $-1 0.5877852410284794 0 0.80901700255871778 0 -1 0 0.80901700255871778 0 -0.5877852410284794 4.6927114816229079 19.688026523775147 20.51917639699537 1 rotate no_reflect no_shear #
lump $-1 $-1 $41 $5 #
transform $-1 0.5877852410284794 0 0.80901700255871778 0 1 0 -0.80901700255871778 0 0.5877852410284794 -108.94015017334155 28.090628237003983 96.397992598309614 1 rotate no_reflect no_shear #
lump $-1 $-1 $42 $6 #
transform $-1 0.5877852410284794 0 0.80901700255871778 0 -1 0 0.80901700255871778 0 -0.5877852410284794 4.6927114816229079 28.090628237003983 20.51917639699537 1 rotate no_reflect no_shear #
lump $-1 $-1 $43 $7 #
transform $-1 0.5877852410284794 0 0.80901700255871778 0 1 0 -0.80901700255871778 0 0.5877852410284794 -108.94015017334155 36.493229950232816 96.397992598309614 1 rotate no_reflect no_shear #
lump $-1 $-1 $44 $8 #
transform $-1 0.5877852410284794 0 0.80901700255871778 0 -1 0 0.80901700255871778 0 -0.5877852410284794 4.6927114816229079 36.493229950232816 20.51917639699537 1 rotate no_reflect no_shear #
lump $-1 $-1 $45 $9 #
transform $-1 0.54463902268945019 0 -0.83867057594974714 0 1 0 0.83867057594974714 0 0.54463902268945019 174.25096295301597 18.702976762730284 201.64167497677914 1 rotate no_reflect no_shear #
lump $-1 $-1 $46 $10 #
transform $-1 0.54463902268945019 0 -0.83867057594974714 0 -1 0 -0.83867057594974714 0 -0.54463902268945019 129.66220603413137 17.35512137736082 19.67719218408493 1 rotate no_reflect no_shear #
lump $-1 $-1 $47 $11 #
transform $-1 0.54463902268945019 0 -0.83867057594974714 0 -1 0 -0.83867057594974714 0 -0.54463902268945019 129.66220603413137 20.050832148099744 19.67719218408493 1 rotate no_reflect no_shear #
shell $-1 $-1 $-1 $48 $-1 $12 #
shell $-1 $-1 $-1 $49 $-1 $14 #
shell $-1 $-1 $-1 $50 $-1 $16 #
shell $-1 $-1 $-1 $51 $-1 $18 #
shell $-1 $-1 $-1 $52 $-1 $20 #
shell $-1 $-1 $-1 $53 $-1 $22 #
shell $-1 $-1 $-1 $54 $-1 $24 #
shell $-1 $-1 $-1 $55 $-1 $26 #
shell $-1 $-1 $-1 $56 $-1 $28 #
shell $-1 $-1 $-1 $57 $-1 $30 #
shell $-1 $-1 $-1 $58 $-1 $32 #
shell $-1 $-1 $-1 $59 $-1 $34 #
face $-1 $60 $61 $36 $-1 $62 forward single #
face $-1 $63 $64 $37 $-1 $65 forward single #
face $-1 $66 $67 $38 $-1 $68 forward single #
face $-1 $69 $70 $39 $-1 $71 forward single #
face $-1 $72 $73 $40 $-1 $74 forward single #
face $-1 $75 $76 $41 $-1 $77 forward single #
face $-1 $78 $79 $42 $-1 $80 forward single #
face $-1 $81 $82 $43 $-1 $83 forward single #
face $-1 $84 $85 $44 $-1 $86 forward single #
face $-1 $87 $88 $45 $-1 $89 forward single #
face $-1 $90 $91 $46 $-1 $92 forward single #
face $-1 $93 $94 $47 $-1 $95 forward single #
face $-1 $96 $97 $36 $-1 $98 reversed single #
loop $-1 $-1 $99 $48 #
plane-surface $-1 0 0 12.996476720923917 0 0 1 1 0 0 forward_v I I I I #
face $-1 $100 $101 $37 $-1 $102 reversed single #
loop $-1 $-1 $103 $49 #
plane-surface $-1 0 0 2.8419158102081958 0 0 1 1 0 0 forward_v I I I I #
face $-1 $104 $105 $38 $-1 $106 reversed single #
loop $-1 $-1 $107 $50 #
plane-surface $-1 0 0 2.8419158102081958 0 0 1 1 0 0 forward_v I I I I #
face $-1 $108 $109 $39 $-1 $110 reversed single #
loop $-1 $-1 $111 $51 #
plane-surface $-1 0 0 134.65742973113194 0 0 1 1 0 0 forward_v I I I I #
face $-1 $112 $113 $40 $-1 $114 forward single #
loop $-1 $115 $116 $52 #
cone-surface $-1 0 0 -1.0619678334910105 0 0 1 0.5 0 0 1 I I 0 1 0.5 forward I I I I #
face $-1 $117 $118 $41 $-1 $119 reversed single #
loop $-1 $-1 $120 $53 #
plane-surface $-1 0 0 134.65742973113194 0 0 1 1 0 0 forward_v I I I I #
face $-1 $121 $122 $42 $-1 $123 forward single #
loop $-1 $124 $125 $54 #
cone-surface $-1 0 0 -1.0619678334910105 0 0 1 0.5 0 0 1 I I 0 1 0.5 forward I I I I #
face $-1 $126 $127 $43 $-1 $128 reversed single #
loop $-1 $-1 $129 $55 #
plane-surface $-1 0 0 134.65742973113194 0 0 1 1 0 0 forward_v I I I I #
face $-1 $130 $131 $44 $-1 $132 forward single #
loop $-1 $133 $134 $56 #
cone-surface $-1 0 0 -1.0619678334910105 0 0 1 0.5 0 0 1 I I 0 1 0.5 forward I I I I #
face $-1 $135 $136 $45 $-1 $137 reversed single #
loop $-1 $-1 $138 $57 #
plane-surface $-1 0 0 134.65742973113194 0 0 1 1 0 0 forward_v I I I I #
face $-1 $139 $140 $46 $-1 $141 forward single #
loop $-1 $142 $143 $58 #
cone-surface $-1 0 0 -1.0464033936582524 0 0 1 0.5 0 0 1 I I 0 1 0.5 forward I I I I #
face $-1 $144 $145 $47 $-1 $146 forward single #
loop $-1 $147 $148 $59 #
cone-surface $-1 0 0 -1.0464033936582524 0 0 1 0.5 0 0 1 I I 0 1 0.5 forward I I I I #
face $-1 $149 $150 $36 $-1 $151 reversed single #
loop $-1 $-1 $152 $60 #
plane-surface $-1 0 0 -12.996476720923917 0 0 1 1 0 0 forward_v I I I I #
coedge $-1 $153 $154 $155 $156 forward $61 $-1 #
face $-1 $157 $158 $37 $-1 $159 reversed single #
loop $-1 $-1 $160 $63 #
plane-surface $-1 0 0 -2.8419158102081958 0 0 1 1 0 0 forward_v I I I I #
coedge $-1 $161 $162 $163 $164 forward $64 $-1 #
face $-1 $165 $166 $38 $-1 $167 reversed single #
loop $-1 $-1 $168 $66 #
plane-surface $-1 0 0 -2.8419158102081958 0 0 1 1 0 0 forward_v I I I I #
coedge $-1 $169 $170 $171 $172 forward $67 $-1 #
face $-1 $173 $174 $39 $-1 $175 reversed single #
loop $-1 $-1 $176 $69 #
plane-surface $-1 0 0 -134.65742973113194 0 0 1 1 0 0 forward_v I I I I #
coedge $-1 $177 $178 $179 $180 forward $70 $-1 #
face $-1 $-1 $181 $40 $-1 $182 forward single #
loop $-1 $-1 $183 $72 #
plane-surface $-1 0 0 -1.8739356669820229 0 0 -1 -1 0 0 forward_v I I I I #
loop $-1 $-1 $184 $52 #
coedge $-1 $116 $116 $183 $185 reversed $73 $-1 #
face $-1 $186 $187 $41 $-1 $188 reversed single #
loop $-1 $-1 $189 $75 #
plane-surface $-1 0 0 -134.65742973113194 0 0 1 1 0 0 forward_v I I I I #
coedge $-1 $190 $191 $192 $193 forward $76 $-1 #
face $-1 $-1 $194 $42 $-1 $195 forward single #
loop $-1 $-1 $196 $78 #
plane-surface $-1 0 0 -1.8739356669820229 0 0 -1 -1 0 0 forward_v I I I I #
loop $-1 $-1 $197 $54 #
coedge $-1 $125 $125 $196 $198 reversed $79 $-1 #
face $-1 $199 $200 $43 $-1 $201 reversed single #
loop $-1 $-1 $202 $81 #
plane-surface $-1 0 0 -134.65742973113194 0 0 1 1 0 0 forward_v I I I I #
coedge $-1 $203 $204 $205 $206 forward $82 $-1 #
face $-1 $-1 $207 $44 $-1 $208 forward single #
loop $-1 $-1 $209 $84 #
plane-surface $-1 0 0 -1.8739356669820229 0 0 -1 -1 0 0 forward_v I I I I #
loop $-1 $-1 $210 $56 #
coedge $-1 $134 $134 $209 $211 reversed $85 $-1 #
face $-1 $212 $213 $45 $-1 $214 reversed single #
loop $-1 $-1 $215 $87 #
plane-surface $-1 0 0 -134.65742973113194 0 0 1 1 0 0 forward_v I I I I #
coedge $-1 $216 $217 $218 $219 forward $88 $-1 #
face $-1 $-1 $220 $46 $-1 $221 forward single #
loop $-1 $-1 $222 $90 #
plane-surface $-1 0 0 -1.8428067873165057 0 0 -1 -1 0 0 forward_v I I I I #
loop $-1 $-1 $223 $58 #
coedge $-1 $143 $143 $222 $224 reversed $91 $-1 #
face $-1 $-1 $225 $47 $-1 $226 forward single #
loop $-1 $-1 $227 $93 #
plane-surface $-1 0 0 -1.8428067873165057 0 0 -1 -1 0 0 forward_v I I I I #
loop $-1 $-1 $228 $59 #
coedge $-1 $148 $148 $227 $229 reversed $94 $-1 #
face $-1 $230 $231 $36 $-1 $232 reversed single #
loop $-1 $-1 $233 $96 #
plane-surface $-1 0 -28.161883433378126 0 0 1 0 0 0 1 forward_v I I I I #
coedge $-1 $234 $235 $236 $237 forward $97 $-1 #
coedge $-1 $238 $99 $239 $240 forward $61 $-1 #
coedge $-1 $99 $238 $241 $242 forward $61 $-1 #
coedge $-1 $243 $244 $99 $156 reversed $245 $-1 #
edge $-1 $246 -28.161883433378126 $247 28.161883433378126 $155 $248 forward 7 unknown #
face $-1 $249 $250 $37 $-1 $251 reversed single #
loop $-1 $-1 $252 $100 #
plane-surface $-1 0 -7.7789904317674363 0 0 1 0 0 0 1 forward_v I I I I #
coedge $-1 $253 $254 $255 $256 forward $101 $-1 #
coedge $-1 $257 $103 $258 $259 forward $64 $-1 #
coedge $-1 $103 $257 $260 $261 forward $64 $-1 #
coedge $-1 $262 $263 $103 $164 reversed $264 $-1 #
edge $-1 $265 -7.7789904317674363 $266 7.7789904317674363 $163 $267 forward 7 unknown #
face $-1 $268 $269 $38 $-1 $270 reversed single #
loop $-1 $-1 $271 $104 #
plane-surface $-1 0 -7.7789904317674363 0 0 1 0 0 0 1 forward_v I I I I #
coedge $-1 $272 $273 $274 $275 forward $105 $-1 #
coedge $-1 $276 $107 $277 $278 forward $67 $-1 #
coedge $-1 $107 $276 $279 $280 forward $67 $-1 #
coedge $-1 $281 $282 $107 $172 reversed $283 $-1 #
edge $-1 $284 -7.7789904317674363 $285 7.7789904317674363 $171 $286 forward 7 unknown #
face $-1 $287 $288 $39 $-1 $289 reversed single #
loop $-1 $-1 $290 $108 #
plane-surface $-1 0 -2.3030669299087325 0 0 1 0 0 0 1 forward_v I I I I #
coedge $-1 $291 $292 $293 $294 forward $109 $-1 #
coedge $-1 $295 $111 $296 $297 forward $70 $-1 #
coedge $-1 $111 $295 $298 $299 forward $70 $-1 #
coedge $-1 $300 $301 $111 $180 reversed $302 $-1 #
edge $-1 $303 -2.3030669299087325 $304 2.3030669299087325 $179 $305 forward 7 unknown #
loop $-1 $306 $307 $112 #
cone-surface $-1 0 0 0 0 0 1 0.25 0 0 1 I I -0.70710678118654746 0.70710678118654746 0.25 forward I I I I #
coedge $-1 $183 $183 $116 $185 forward $113 $-1 #
coedge $-1 $184 $184 $307 $308 forward $115 $-1 #
edge $-1 $309 0 $309 6.2831853071796004 $183 $310 forward 7 unknown #
face $-1 $311 $312 $41 $-1 $313 reversed single #
loop $-1 $-1 $314 $117 #
plane-surface $-1 0 -2.3030669299087325 0 0 1 0 0 0 1 forward_v I I I I #
coedge $-1 $315 $316 $317 $318 forward $118 $-1 #
coedge $-1 $319 $120 $320 $321 forward $76 $-1 #
coedge $-1 $120 $319 $322 $323 forward $76 $-1 #
coedge $-1 $324 $325 $120 $193 reversed $326 $-1 #
edge $-1 $327 -2.3030669299087325 $328 2.3030669299087325 $192 $329 forward 7 unknown #
loop $-1 $330 $331 $121 #
cone-surface $-1 0 0 0 0 0 1 0.25 0 0 1 I I -0.70710678118654746 0.70710678118654746 0.25 forward I I I I #
coedge $-1 $196 $196 $125 $198 forward $122 $-1 #
coedge $-1 $197 $197 $331 $332 forward $124 $-1 #
edge $-1 $333 0 $333 6.2831853071796004 $196 $334 forward 7 unknown #
face $-1 $335 $336 $43 $-1 $337 reversed single #
loop $-1 $-1 $338 $126 #
plane-surface $-1 0 -2.3030669299087325 0 0 1 0 0 0 1 forward_v I I I I #
coedge $-1 $339 $340 $341 $342 forward $127 $-1 #
coedge $-1 $343 $129 $344 $345 forward $82 $-1 #
coedge $-1 $129 $343 $346 $347 forward $82 $-1 #
coedge $-1 $348 $349 $129 $206 reversed $350 $-1 #
edge $-1 $351 -2.3030669299087325 $352 2.3030669299087325 $205 $353 forward 7 unknown #
loop $-1 $354 $355 $130 #
cone-surface $-1 0 0 0 0 0 1 0.25 0 0 1 I I -0.70710678118654746 0.70710678118654746 0.25 forward I I I I #
coedge $-1 $209 $209 $134 $211 forward $131 $-1 #
coedge $-1 $210 $210 $355 $356 forward $133 $-1 #
edge $-1 $357 0 $357 6.2831853071796004 $209 $358 forward 7 unknown #
face $-1 $359 $360 $45 $-1 $361 reversed single #
loop $-1 $-1 $362 $135 #
plane-surface $-1 0 -3.1449958991954112 0 0 1 0 0 0 1 forward_v I I I I #
coedge $-1 $363 $364 $365 $366 forward $136 $-1 #
coedge $-1 $367 $138 $368 $369 forward $88 $-1 #
coedge $-1 $138 $367 $370 $371 forward $88 $-1 #
coedge $-1 $372 $373 $138 $219 reversed $374 $-1 #
edge $-1 $375 -3.1449958991954112 $376 3.1449958991954112 $218 $377 forward 7 unknown #
loop $-1 $378 $379 $139 #
cone-surface $-1 0 0 0 0 0 1 0.25 0 0 1 I I -0.70710678118654746 0.70710678118654746 0.25 forward I I I I #
coedge $-1 $222 $222 $143 $224 forward $140 $-1 #
coedge $-1 $223 $223 $379 $380 forward $142 $-1 #
edge $-1 $381 0 $381 6.2831853071796004 $222 $382 forward 7 unknown #
loop $-1 $383 $384 $144 #
cone-surface $-1 0 0 0 0 0 1 0.25 0 0 1 I I -0.70710678118654746 0.70710678118654746 0.25 forward I I I I #
coedge $-1 $227 $227 $148 $229 forward $145 $-1 #
coedge $-1 $228 $228 $384 $385 forward $147 $-1 #
edge $-1 $386 0 $386 6.2831853071796004 $227 $387 forward 7 unknown #
face $-1 $388 $389 $36 $-1 $390 reversed single #
loop $-1 $-1 $391 $149 #
plane-surface $-1 -67.328714865565971 0 0 1 0 0 0 0 -1 forward_v I I I I #
coedge $-1 $392 $241 $393 $394 forward $150 $-1 #
coedge $-1 $395 $152 $392 $396 forward $97 $-1 #
coedge $-1 $152 $395 $397 $398 forward $97 $-1 #
coedge $-1 $244 $243 $152 $237 reversed $245 $-1 #
edge $-1 $399 -28.161883433378126 $400 28.161883433378126 $236 $401 forward 7 unknown #
coedge $-1 $154 $153 $402 $403 forward $61 $-1 #
coedge $-1 $404 $405 $153 $240 reversed $389 $-1 #
edge $-1 $247 -67.328714865565971 $406 67.328714865565971 $239 $407 forward 7 unknown #
coedge $-1 $233 $408 $154 $242 reversed $150 $-1 #
edge $-1 $409 -67.328714865565971 $246 67.328714865565971 $241 $410 forward 7 unknown #
coedge $-1 $236 $155 $408 $411 forward $245 $-1 #
coedge $-1 $155 $236 $404 $412 reversed $245 $-1 #
loop $-1 $-1 $243 $388 #
vertex $-1 $156 $413 #
vertex $-1 $156 $414 #
straight-curve $-1 67.328714865565971 0 12.996476720923917 0 1 0 I I #
face $-1 $415 $416 $37 $-1 $417 reversed single #
loop $-1 $-1 $418 $157 #
plane-surface $-1 -67.328714865565971 0 0 1 0 0 0 0 -1 forward_v I I I I #
coedge $-1 $419 $260 $420 $421 forward $158 $-1 #
coedge $-1 $422 $160 $419 $423 forward $101 $-1 #
coedge $-1 $160 $422 $424 $425 forward $101 $-1 #
coedge $-1 $263 $262 $160 $256 reversed $264 $-1 #
edge $-1 $426 -7.7789904317674363 $427 7.7789904317674363 $255 $428 forward 7 unknown #
coedge $-1 $162 $161 $429 $430 forward $64 $-1 #
coedge $-1 $431 $432 $161 $259 reversed $416 $-1 #
edge $-1 $266 -67.328714865565971 $433 67.328714865565971 $258 $434 forward 7 unknown #
coedge $-1 $252 $435 $162 $261 reversed $158 $-1 #
edge $-1 $436 -67.328714865565971 $265 67.328714865565971 $260 $437 forward 7 unknown #
coedge $-1 $255 $163 $435 $438 forward $264 $-1 #
coedge $-1 $163 $255 $431 $439 reversed $264 $-1 #
loop $-1 $-1 $262 $415 #
vertex $-1 $164 $440 #
vertex $-1 $164 $441 #
straight-curve $-1 67.328714865565971 0 2.8419158102081958 0 1 0 I I #
face $-1 $442 $443 $38 $-1 $444 reversed single #
loop $-1 $-1 $445 $165 #
plane-surface $-1 -67.328714865565971 0 0 1 0 0 0 0 -1 forward_v I I I I #
coedge $-1 $446 $279 $447 $448 forward $166 $-1 #
coedge $-1 $449 $168 $446 $450 forward $105 $-1 #
coedge $-1 $168 $449 $451 $452 forward $105 $-1 #
coedge $-1 $282 $281 $168 $275 reversed $283 $-1 #
edge $-1 $453 -7.7789904317674363 $454 7.7789904317674363 $274 $455 forward 7 unknown #
coedge $-1 $170 $169 $456 $457 forward $67 $-1 #
coedge $-1 $458 $459 $169 $278 reversed $443 $-1 #
edge $-1 $285 -67.328714865565971 $460 67.328714865565971 $277 $461 forward 7 unknown #
coedge $-1 $271 $462 $170 $280 reversed $166 $-1 #
edge $-1 $463 -67.328714865565971 $284 67.328714865565971 $279 $464 forward 7 unknown #
coedge $-1 $274 $171 $462 $465 forward $283 $-1 #
coedge $-1 $171 $274 $458 $466 reversed $283 $-1 #
loop $-1 $-1 $281 $442 #
vertex $-1 $172 $467 #
vertex $-1 $172 $468 #
straight-curve $-1 67.328714865565971 0 2.8419158102081958 0 1 0 I I #
face $-1 $469 $470 $39 $-1 $471 reversed single #
loop $-1 $-1 $472 $173 #
plane-surface $-1 -269.31485946226388 0 0 1 0 0 0 0 -1 forward_v I I I I #
coedge $-1 $473 $298 $474 $475 forward $174 $-1 #
coedge $-1 $476 $176 $473 $477 forward $109 $-1 #
coedge $-1 $176 $476 $478 $479 forward $109 $-1 #
coedge $-1 $301 $300 $176 $294 reversed $302 $-1 #
edge $-1 $480 -2.3030669299087325 $481 2.3030669299087325 $293 $482 forward 7 unknown #
coedge $-1 $178 $177 $483 $484 forward $70 $-1 #
coedge $-1 $485 $486 $177 $297 reversed $470 $-1 #
edge $-1 $304 -269.31485946226388 $487 269.31485946226388 $296 $488 forward 7 unknown #
coedge $-1 $290 $489 $178 $299 reversed $174 $-1 #
edge $-1 $490 -269.31485946226388 $303 269.31485946226388 $298 $491 forward 7 unknown #
coedge $-1 $293 $179 $489 $492 forward $302 $-1 #
coedge $-1 $179 $293 $485 $493 reversed $302 $-1 #
loop $-1 $-1 $300 $469 #
vertex $-1 $180 $494 #
vertex $-1 $180 $495 #
straight-curve $-1 269.31485946226388 0 134.65742973113194 0 1 0 I I #
loop $-1 $-1 $496 $112 #
coedge $-1 $307 $307 $184 $308 reversed $181 $-1 #
edge $-1 $497 0 $497 6.2831853071796004 $307 $498 forward 7 unknown #
vertex $-1 $185 $499 #
ellipse-curve $-1 0 0 -1.8739356669820229 0 0 -1 0.5 0 0 1 I I #
face $-1 $500 $501 $41 $-1 $502 reversed single #
loop $-1 $-1 $503 $186 #
plane-surface $-1 -269.31485946226388 0 0 1 0 0 0 0 -1 forward_v I I I I #
coedge $-1 $504 $322 $505 $506 forward $187 $-1 #
coedge $-1 $507 $189 $504 $508 forward $118 $-1 #
coedge $-1 $189 $507 $509 $510 forward $118 $-1 #
coedge $-1 $325 $324 $189 $318 reversed $326 $-1 #
edge $-1 $511 -2.3030669299087325 $512 2.3030669299087325 $317 $513 forward 7 unknown #
coedge $-1 $191 $190 $514 $515 forward $76 $-1 #
coedge $-1 $516 $517 $190 $321 reversed $501 $-1 #
edge $-1 $328 -269.31485946226388 $518 269.31485946226388 $320 $519 forward 7 unknown #
coedge $-1 $314 $520 $191 $323 reversed $187 $-1 #
edge $-1 $521 -269.31485946226388 $327 269.31485946226388 $322 $522 forward 7 unknown #
coedge $-1 $317 $192 $520 $523 forward $326 $-1 #
coedge $-1 $192 $317 $516 $524 reversed $326 $-1 #
loop $-1 $-1 $324 $500 #
vertex $-1 $193 $525 #
vertex $-1 $193 $526 #
straight-curve $-1 269.31485946226388 0 134.65742973113194 0 1 0 I I #
loop $-1 $-1 $527 $121 #
coedge $-1 $331 $331 $197 $332 reversed $194 $-1 #
edge $-1 $528 0 $528 6.2831853071796004 $331 $529 forward 7 unknown #
vertex $-1 $198 $530 #
ellipse-curve $-1 0 0 -1.8739356669820229 0 0 -1 0.5 0 0 1 I I #
face $-1 $531 $532 $43 $-1 $533 reversed single #
loop $-1 $-1 $534 $199 #
plane-surface $-1 -269.31485946226388 0 0 1 0 0 0 0 -1 forward_v I I I I #
coedge $-1 $535 $346 $536 $537 forward $200 $-1 #
coedge $-1 $538 $202 $535 $539 forward $127 $-1 #
coedge $-1 $202 $538 $540 $541 forward $127 $-1 #
coedge $-1 $349 $348 $202 $342 reversed $350 $-1 #
edge $-1 $542 -2.3030669299087325 $543 2.3030669299087325 $341 $544 forward 7 unknown #
coedge $-1 $204 $203 $545 $546 forward $82 $-1 #
coedge $-1 $547 $548 $203 $345 reversed $532 $-1 #
edge $-1 $352 -269.31485946226388 $549 269.31485946226388 $344 $550 forward 7 unknown #
coedge $-1 $338 $551 $204 $347 reversed $200 $-1 #
edge $-1 $552 -269.31485946226388 $351 269.31485946226388 $346 $553 forward 7 unknown #
coedge $-1 $341 $205 $551 $554 forward $350 $-1 #
coedge $-1 $205 $341 $547 $555 reversed $350 $-1 #
loop $-1 $-1 $348 $531 #
vertex $-1 $206 $556 #
vertex $-1 $206 $557 #
straight-curve $-1 269.31485946226388 0 134.65742973113194 0 1 0 I I #
loop $-1 $-1 $558 $130 #
coedge $-1 $355 $355 $210 $356 reversed $207 $-1 #
edge $-1 $559 0 $559 6.2831853071796004 $355 $560 forward 7 unknown #
vertex $-1 $211 $561 #
ellipse-curve $-1 0 0 -1.8739356669820229 0 0 -1 0.5 0 0 1 I I #
face $-1 $562 $563 $45 $-1 $564 reversed single #
loop $-1 $-1 $565 $212 #
plane-surface $-1 -269.31485946226388 0 0 1 0 0 0 0 -1 forward_v I I I I #
coedge $-1 $566 $370 $567 $568 forward $213 $-1 #
coedge $-1 $569 $215 $566 $570 forward $136 $-1 #
coedge $-1 $215 $569 $571 $572 forward $136 $-1 #
coedge $-1 $373 $372 $215 $366 reversed $374 $-1 #
edge $-1 $573 -3.1449958991954112 $574 3.1449958991954112 $365 $575 forward 7 unknown #
coedge $-1 $217 $216 $576 $577 forward $88 $-1 #
coedge $-1 $578 $579 $216 $369 reversed $563 $-1 #
edge $-1 $376 -269.31485946226388 $580 269.31485946226388 $368 $581 forward 7 unknown #
coedge $-1 $362 $582 $217 $371 reversed $213 $-1 #
edge $-1 $583 -269.31485946226388 $375 269.31485946226388 $370 $584 forward 7 unknown #
coedge $-1 $365 $218 $582 $585 forward $374 $-1 #
coedge $-1 $218 $365 $578 $586 reversed $374 $-1 #
loop $-1 $-1 $372 $562 #
vertex $-1 $219 $587 #
vertex $-1 $219 $588 #
straight-curve $-1 269.31485946226388 0 134.65742973113194 0 1 0 I I #
loop $-1 $-1 $589 $139 #
coedge $-1 $379 $379 $223 $380 reversed $220 $-1 #
edge $-1 $590 0 $590 6.2831853071796004 $379 $591 forward 7 unknown #
vertex $-1 $224 $592 #
ellipse-curve $-1 0 0 -1.8428067873165057 0 0 -1 0.5 0 0 1 I I #
loop $-1 $-1 $593 $144 #
coedge $-1 $384 $384 $228 $385 reversed $225 $-1 #
edge $-1 $594 0 $594 6.2831853071796004 $384 $595 forward 7 unknown #
vertex $-1 $229 $596 #
ellipse-curve $-1 0 0 -1.8428067873165057 0 0 -1 0.5 0 0 1 I I #
face $-1 $-1 $245 $36 $-1 $597 reversed single #
loop $-1 $-1 $404 $230 #
plane-surface $-1 0 28.161883433378126 0 0 -1 0 0 0 -1 forward_v I I I I #
coedge $-1 $598 $402 $405 $599 forward $231 $-1 #
coedge $-1 $408 $233 $234 $396 reversed $150 $-1 #
coedge $-1 $402 $598 $233 $394 reversed $231 $-1 #
edge $-1 $409 -12.996476720923917 $600 12.996476720923917 $393 $601 forward 7 unknown #
coedge $-1 $235 $234 $598 $602 forward $97 $-1 #
edge $-1 $400 -67.328714865565971 $600 67.328714865565971 $392 $603 forward 7 unknown #
coedge $-1 $405 $404 $235 $398 reversed $389 $-1 #
edge $-1 $604 -67.328714865565971 $399 67.328714865565971 $397 $605 forward 7 unknown #
vertex $-1 $237 $606 #
vertex $-1 $411 $607 #
straight-curve $-1 67.328714865565971 0 -12.996476720923917 0 -1 0 I I #
coedge $-1 $391 $393 $238 $403 reversed $231 $-1 #
edge $-1 $406 -28.161883433378126 $409 28.161883433378126 $402 $608 forward 7 unknown #
coedge $-1 $397 $239 $244 $412 forward $389 $-1 #
coedge $-1 $239 $397 $391 $599 reversed $389 $-1 #
vertex $-1 $240 $609 #
straight-curve $-1 0 28.161883433378126 12.996476720923917 -1 0 0 I I #
coedge $-1 $241 $392 $243 $411 reversed $150 $-1 #
vertex $-1 $403 $610 #
straight-curve $-1 0 -28.161883433378126 12.996476720923917 1 0 0 I I #
edge $-1 $246 -12.996476720923917 $400 12.996476720923917 $243 $611 forward 7 unknown #
edge $-1 $247 -12.996476720923917 $399 12.996476720923917 $244 $612 forward 7 unknown #
point $-1 67.328714865565971 -28.161883433378126 12.996476720923917 #
point $-1 67.328714865565971 28.161883433378126 12.996476720923917 #
face $-1 $-1 $264 $37 $-1 $613 reversed single #
loop $-1 $-1 $431 $249 #
plane-surface $-1 0 7.7789904317674363 0 0 -1 0 0 0 -1 forward_v I I I I #
coedge $-1 $614 $429 $432 $615 forward $250 $-1 #
coedge $-1 $435 $252 $253 $423 reversed $158 $-1 #
coedge $-1 $429 $614 $252 $421 reversed $250 $-1 #
edge $-1 $436 -2.8419158102081958 $616 2.8419158102081958 $420 $617 forward 7 unknown #
coedge $-1 $254 $253 $614 $618 forward $101 $-1 #
edge $-1 $427 -67.328714865565971 $616 67.328714865565971 $419 $619 forward 7 unknown #
coedge $-1 $432 $431 $254 $425 reversed $416 $-1 #
edge $-1 $620 -67.328714865565971 $426 67.328714865565971 $424 $621 forward 7 unknown #
vertex $-1 $256 $622 #
vertex $-1 $438 $623 #
straight-curve $-1 67.328714865565971 0 -2.8419158102081958 0 -1 0 I I #
coedge $-1 $418 $420 $257 $430 reversed $250 $-1 #
edge $-1 $433 -7.7789904317674363 $436 7.7789904317674363 $429 $624 forward 7 unknown #
coedge $-1 $424 $258 $263 $439 forward $416 $-1 #
coedge $-1 $258 $424 $418 $615 reversed $416 $-1 #
vertex $-1 $259 $625 #
straight-curve $-1 0 7.7789904317674363 2.8419158102081958 -1 0 0 I I #
coedge $-1 $260 $419 $262 $438 reversed $158 $-1 #
vertex $-1 $430 $626 #
straight-curve $-1 0 -7.7789904317674363 2.8419158102081958 1 0 0 I I #
edge $-1 $265 -2.8419158102081958 $427 2.8419158102081958 $262 $627 forward 7 unknown #
edge $-1 $266 -2.8419158102081958 $426 2.8419158102081958 $263 $628 forward 7 unknown #
point $-1 67.328714865565971 -7.7789904317674363 2.8419158102081958 #
point $-1 67.328714865565971 7.7789904317674363 2.8419158102081958 #
face $-1 $-1 $283 $38 $-1 $629 reversed single #
loop $-1 $-1 $458 $268 #
plane-surface $-1 0 7.7789904317674363 0 0 -1 0 0 0 -1 forward_v I I I I #
coedge $-1 $630 $456 $459 $631 forward $269 $-1 #
coedge $-1 $462 $271 $272 $450 reversed $166 $-1 #
coedge $-1 $456 $630 $271 $448 reversed $269 $-1 #
edge $-1 $463 -2.8419158102081958 $632 2.8419158102081958 $447 $633 forward 7 unknown #
coedge $-1 $273 $272 $630 $634 forward $105 $-1 #
edge $-1 $454 -67.328714865565971 $632 67.328714865565971 $446 $635 forward 7 unknown #
coedge $-1 $459 $458 $273 $452 reversed $443 $-1 #
edge $-1 $636 -67.328714865565971 $453 67.328714865565971 $451 $637 forward 7 unknown #
vertex $-1 $275 $638 #
vertex $-1 $465 $639 #
straight-curve $-1 67.328714865565971 0 -2.8419158102081958 0 -1 0 I I #
coedge $-1 $445 $447 $276 $457 reversed $269 $-1 #
edge $-1 $460 -7.7789904317674363 $463 7.7789904317674363 $456 $640 forward 7 unknown #
coedge $-1 $451 $277 $282 $466 forward $443 $-1 #
coedge $-1 $277 $451 $445 $631 reversed $443 $-1 #
vertex $-1 $278 $641 #
straight-curve $-1 0 7.7789904317674363 2.8419158102081958 -1 0 0 I I #
coedge $-1 $279 $446 $281 $465 reversed $166 $-1 #
vertex $-1 $457 $642 #
straight-curve $-1 0 -7.7789904317674363 2.8419158102081958 1 0 0 I I #
edge $-1 $284 -2.8419158102081958 $454 2.8419158102081958 $281 $643 forward 7 unknown #
edge $-1 $285 -2.8419158102081958 $453 2.8419158102081958 $282 $644 forward 7 unknown #
point $-1 67.328714865565971 -7.7789904317674363 2.8419158102081958 #
point $-1 67.328714865565971 7.7789904317674363 2.8419158102081958 #
face $-1 $-1 $302 $39 $-1 $645 reversed single #
loop $-1 $-1 $485 $287 #
plane-surface $-1 0 2.3030669299087325 0 0 -1 0 0 0 -1 forward_v I I I I #
coedge $-1 $646 $483 $486 $647 forward $288 $-1 #
coedge $-1 $489 $290 $291 $477 reversed $174 $-1 #
coedge $-1 $483 $646 $290 $475 reversed $288 $-1 #
edge $-1 $490 -134.65742973113194 $648 134.65742973113194 $474 $649 forward 7 unknown #
coedge $-1 $292 $291 $646 $650 forward $109 $-1 #
edge $-1 $481 -269.31485946226388 $648 269.31485946226388 $473 $651 forward 7 unknown #
coedge $-1 $486 $485 $292 $479 reversed $470 $-1 #
edge $-1 $652 -269.31485946226388 $480 269.31485946226388 $478 $653 forward 7 unknown #
vertex $-1 $294 $654 #
vertex $-1 $492 $655 #
straight-curve $-1 269.31485946226388 0 -134.65742973113194 0 -1 0 I I #
coedge $-1 $472 $474 $295 $484 reversed $288 $-1 #
edge $-1 $487 -2.3030669299087325 $490 2.3030669299087325 $483 $656 forward 7 unknown #
coedge $-1 $478 $296 $301 $493 forward $470 $-1 #
coedge $-1 $296 $478 $472 $647 reversed $470 $-1 #
vertex $-1 $297 $657 #
straight-curve $-1 0 2.3030669299087325 134.65742973113194 -1 0 0 I I #
coedge $-1 $298 $473 $300 $492 reversed $174 $-1 #
vertex $-1 $484 $658 #
straight-curve $-1 0 -2.3030669299087325 134.65742973113194 1 0 0 I I #
edge $-1 $303 -134.65742973113194 $481 134.65742973113194 $300 $659 forward 7 unknown #
edge $-1 $304 -134.65742973113194 $480 134.65742973113194 $301 $660 forward 7 unknown #
point $-1 269.31485946226388 -2.3030669299087325 134.65742973113194 #
point $-1 269.31485946226388 2.3030669299087325 134.65742973113194 #
coedge $-1 $496 $496 $-1 $661 reversed $306 $-1 #
vertex $-1 $308 $662 #
ellipse-curve $-1 0 0 -0.25 0 0 -1 0.5 0 0 1 I I #
point $-1 0.5 0 -1.8739356669820229 #
face $-1 $-1 $326 $41 $-1 $663 reversed single #
loop $-1 $-1 $516 $311 #
plane-surface $-1 0 2.3030669299087325 0 0 -1 0 0 0 -1 forward_v I I I I #
coedge $-1 $664 $514 $517 $665 forward $312 $-1 #
coedge $-1 $520 $314 $315 $508 reversed $187 $-1 #
coedge $-1 $514 $664 $314 $506 reversed $312 $-1 #
edge $-1 $521 -134.65742973113194 $666 134.65742973113194 $505 $667 forward 7 unknown #
coedge $-1 $316 $315 $664 $668 forward $118 $-1 #
edge $-1 $512 -269.31485946226388 $666 269.31485946226388 $504 $669 forward 7 unknown #
coedge $-1 $517 $516 $316 $510 reversed $501 $-1 #
edge $-1 $670 -269.31485946226388 $511 269.31485946226388 $509 $671 forward 7 unknown #
vertex $-1 $318 $672 #
vertex $-1 $523 $673 #
straight-curve $-1 269.31485946226388 0 -134.65742973113194 0 -1 0 I I #
coedge $-1 $503 $505 $319 $515 reversed $312 $-1 #
edge $-1 $518 -2.3030669299087325 $521 2.3030669299087325 $514 $674 forward 7 unknown #
coedge $-1 $509 $320 $325 $524 forward $501 $-1 #
coedge $-1 $320 $509 $503 $665 reversed $501 $-1 #
vertex $-1 $321 $675 #
straight-curve $-1 0 2.3030669299087325 134.65742973113194 -1 0 0 I I #
coedge $-1 $322 $504 $324 $523 reversed $187 $-1 #
vertex $-1 $515 $676 #
straight-curve $-1 0 -2.3030669299087325 134.65742973113194 1 0 0 I I #
edge $-1 $327 -134.65742973113194 $512 134.65742973113194 $324 $677 forward 7 unknown #
edge $-1 $328 -134.65742973113194 $511 134.65742973113194 $325 $678 forward 7 unknown #
point $-1 269.31485946226388 -2.3030669299087325 134.65742973113194 #
point $-1 269.31485946226388 2.3030669299087325 134.65742973113194 #
coedge $-1 $527 $527 $-1 $679 reversed $330 $-1 #
vertex $-1 $332 $680 #
ellipse-curve $-1 0 0 -0.25 0 0 -1 0.5 0 0 1 I I #
point $-1 0.5 0 -1.8739356669820229 #
face $-1 $-1 $350 $43 $-1 $681 reversed single #
loop $-1 $-1 $547 $335 #
plane-surface $-1 0 2.3030669299087325 0 0 -1 0 0 0 -1 forward_v I I I I #
coedge $-1 $682 $545 $548 $683 forward $336 $-1 #
coedge $-1 $551 $338 $339 $539 reversed $200 $-1 #
coedge $-1 $545 $682 $338 $537 reversed $336 $-1 #
edge $-1 $552 -134.65742973113194 $684 134.65742973113194 $536 $685 forward 7 unknown #
coedge $-1 $340 $339 $682 $686 forward $127 $-1 #
edge $-1 $543 -269.31485946226388 $684 269.31485946226388 $535 $687 forward 7 unknown #
coedge $-1 $548 $547 $340 $541 reversed $532 $-1 #
edge $-1 $688 -269.31485946226388 $542 269.31485946226388 $540 $689 forward 7 unknown #
vertex $-1 $342 $690 #
vertex $-1 $554 $691 #
straight-curve $-1 269.31485946226388 0 -134.65742973113194 0 -1 0 I I #
coedge $-1 $534 $536 $343 $546 reversed $336 $-1 #
edge $-1 $549 -2.3030669299087325 $552 2.3030669299087325 $545 $692 forward 7 unknown #
coedge $-1 $540 $344 $349 $555 forward $532 $-1 #
coedge $-1 $344 $540 $534 $683 reversed $532 $-1 #
vertex $-1 $345 $693 #
straight-curve $-1 0 2.3030669299087325 134.65742973113194 -1 0 0 I I #
coedge $-1 $346 $535 $348 $554 reversed $200 $-1 #
vertex $-1 $546 $694 #
straight-curve $-1 0 -2.3030669299087325 134.65742973113194 1 0 0 I I #
edge $-1 $351 -134.65742973113194 $543 134.65742973113194 $348 $695 forward 7 unknown #
edge $-1 $352 -134.65742973113194 $542 134.65742973113194 $349 $696 forward 7 unknown #
point $-1 269.31485946226388 -2.3030669299087325 134.65742973113194 #
point $-1 269.31485946226388 2.3030669299087325 134.65742973113194 #
coedge $-1 $558 $558 $-1 $697 reversed $354 $-1 #
vertex $-1 $356 $698 #
ellipse-curve $-1 0 0 -0.25 0 0 -1 0.5 0 0 1 I I #
point $-1 0.5 0 -1.8739356669820229 #
face $-1 $-1 $374 $45 $-1 $699 reversed single #
loop $-1 $-1 $578 $359 #
plane-surface $-1 0 3.1449958991954112 0 0 -1 0 0 0 -1 forward_v I I I I #
coedge $-1 $700 $576 $579 $701 forward $360 $-1 #
coedge $-1 $582 $362 $363 $570 reversed $213 $-1 #
coedge $-1 $576 $700 $362 $568 reversed $360 $-1 #
edge $-1 $583 -134.65742973113194 $702 134.65742973113194 $567 $703 forward 7 unknown #
coedge $-1 $364 $363 $700 $704 forward $136 $-1 #
edge $-1 $574 -269.31485946226388 $702 269.31485946226388 $566 $705 forward 7 unknown #
coedge $-1 $579 $578 $364 $572 reversed $563 $-1 #
edge $-1 $706 -269.31485946226388 $573 269.31485946226388 $571 $707 forward 7 unknown #
vertex $-1 $366 $708 #
vertex $-1 $585 $709 #
straight-curve $-1 269.31485946226388 0 -134.65742973113194 0 -1 0 I I #
coedge $-1 $565 $567 $367 $577 reversed $360 $-1 #
edge $-1 $580 -3.1449958991954112 $583 3.1449958991954112 $576 $710 forward 7 unknown #
coedge $-1 $571 $368 $373 $586 forward $563 $-1 #
coedge $-1 $368 $571 $565 $701 reversed $563 $-1 #
vertex $-1 $369 $711 #
straight-curve $-1 0 3.1449958991954112 134.65742973113194 -1 0 0 I I #
coedge $-1 $370 $566 $372 $585 reversed $213 $-1 #
vertex $-1 $577 $712 #
straight-curve $-1 0 -3.1449958991954112 134.65742973113194 1 0 0 I I #
edge $-1 $375 -134.65742973113194 $574 134.65742973113194 $372 $713 forward 7 unknown #
edge $-1 $376 -134.65742973113194 $573 134.65742973113194 $373 $714 forward 7 unknown #
point $-1 269.31485946226388 -3.1449958991954112 134.65742973113194 #
point $-1 269.31485946226388 3.1449958991954112 134.65742973113194 #
coedge $-1 $589 $589 $-1 $715 reversed $378 $-1 #
vertex $-1 $380 $716 #
ellipse-curve $-1 0 0 -0.25 0 0 -1 0.5 0 0 1 I I #
point $-1 0.5 0 -1.8428067873165057 #
coedge $-1 $593 $593 $-1 $717 reversed $383 $-1 #
vertex $-1 $385 $718 #
ellipse-curve $-1 0 0 -0.25 0 0 -1 0.5 0 0 1 I I #
point $-1 0.5 0 -1.8428067873165057 #
plane-surface $-1 67.328714865565971 0 0 -1 0 0 0 0 1 forward_v I I I I #
coedge $-1 $393 $391 $395 $602 reversed $231 $-1 #
edge $-1 $406 -12.996476720923917 $604 12.996476720923917 $405 $719 forward 7 unknown #
vertex $-1 $602 $720 #
straight-curve $-1 -67.328714865565971 -28.161883433378126 0 0 0 -1 I I #
edge $-1 $600 -28.161883433378126 $604 28.161883433378126 $598 $721 forward 7 unknown #
straight-curve $-1 0 -28.161883433378126 -12.996476720923917 -1 0 0 I I #
vertex $-1 $398 $722 #
straight-curve $-1 0 28.161883433378126 -12.996476720923917 1 0 0 I I #
point $-1 67.328714865565971 28.161883433378126 -12.996476720923917 #
point $-1 67.328714865565971 -28.161883433378126 -12.996476720923917 #
straight-curve $-1 -67.328714865565971 0 12.996476720923917 0 -1 0 I I #
point $-1 -67.328714865565971 28.161883433378126 12.996476720923917 #
point $-1 -67.328714865565971 -28.161883433378126 12.996476720923917 #
straight-curve $-1 67.328714865565971 -28.161883433378126 0 0 0 -1 I I #
straight-curve $-1 67.328714865565971 28.161883433378126 0 0 0 -1 I I #
plane-surface $-1 67.328714865565971 0 0 -1 0 0 0 0 1 forward_v I I I I #
coedge $-1 $420 $418 $422 $618 reversed $250 $-1 #
edge $-1 $433 -2.8419158102081958 $620 2.8419158102081958 $432 $723 forward 7 unknown #
vertex $-1 $618 $724 #
straight-curve $-1 -67.328714865565971 -7.7789904317674363 0 0 0 -1 I I #
edge $-1 $616 -7.7789904317674363 $620 7.7789904317674363 $614 $725 forward 7 unknown #
straight-curve $-1 0 -7.7789904317674363 -2.8419158102081958 -1 0 0 I I #
vertex $-1 $425 $726 #
straight-curve $-1 0 7.7789904317674363 -2.8419158102081958 1 0 0 I I #
point $-1 67.328714865565971 7.7789904317674363 -2.8419158102081958 #
point $-1 67.328714865565971 -7.7789904317674363 -2.8419158102081958 #
straight-curve $-1 -67.328714865565971 0 2.8419158102081958 0 -1 0 I I #
point $-1 -67.328714865565971 7.7789904317674363 2.8419158102081958 #
point $-1 -67.328714865565971 -7.7789904317674363 2.8419158102081958 #
straight-curve $-1 67.328714865565971 -7.7789904317674363 0 0 0 -1 I I #
straight-curve $-1 67.328714865565971 7.7789904317674363 0 0 0 -1 I I #
plane-surface $-1 67.328714865565971 0 0 -1 0 0 0 0 1 forward_v I I I I #
coedge $-1 $447 $445 $449 $634 reversed $269 $-1 #
edge $-1 $460 -2.8419158102081958 $636 2.8419158102081958 $459 $727 forward 7 unknown #
vertex $-1 $634 $728 #
straight-curve $-1 -67.328714865565971 -7.7789904317674363 0 0 0 -1 I I #
edge $-1 $632 -7.7789904317674363 $636 7.7789904317674363 $630 $729 forward 7 unknown #
straight-curve $-1 0 -7.7789904317674363 -2.8419158102081958 -1 0 0 I I #
vertex $-1 $452 $730 #
straight-curve $-1 0 7.7789904317674363 -2.8419158102081958 1 0 0 I I #
point $-1 67.328714865565971 7.7789904317674363 -2.8419158102081958 #
point $-1 67.328714865565971 -7.7789904317674363 -2.8419158102081958 #
straight-curve $-1 -67.328714865565971 0 2.8419158102081958 0 -1 0 I I #
point $-1 -67.328714865565971 7.7789904317674363 2.8419158102081958 #
point $-1 -67.328714865565971 -7.7789904317674363 2.8419158102081958 #
straight-curve $-1 67.328714865565971 -7.7789904317674363 0 0 0 -1 I I #
straight-curve $-1 67.328714865565971 7.7789904317674363 0 0 0 -1 I I #
plane-surface $-1 269.31485946226388 0 0 -1 0 0 0 0 1 forward_v I I I I #
coedge $-1 $474 $472 $476 $650 reversed $288 $-1 #
edge $-1 $487 -134.65742973113194 $652 134.65742973113194 $486 $731 forward 7 unknown #
vertex $-1 $650 $732 #
straight-curve $-1 -269.31485946226388 -2.3030669299087325 0 0 0 -1 I I #
edge $-1 $648 -2.3030669299087325 $652 2.3030669299087325 $646 $733 forward 7 unknown #
straight-curve $-1 0 -2.3030669299087325 -134.65742973113194 -1 0 0 I I #
vertex $-1 $479 $734 #
straight-curve $-1 0 2.3030669299087325 -134.65742973113194 1 0 0 I I #
point $-1 269.31485946226388 2.3030669299087325 -134.65742973113194 #
point $-1 269.31485946226388 -2.3030669299087325 -134.65742973113194 #
straight-curve $-1 -269.31485946226388 0 134.65742973113194 0 -1 0 I I #
point $-1 -269.31485946226388 2.3030669299087325 134.65742973113194 #
point $-1 -269.31485946226388 -2.3030669299087325 134.65742973113194 #
straight-curve $-1 269.31485946226388 -2.3030669299087325 0 0 0 -1 I I #
straight-curve $-1 269.31485946226388 2.3030669299087325 0 0 0 -1 I I #
edge $-1 $735 1 $735 0 $496 $-1 forward 7 unknown #
point $-1 0.5 0 -0.25 #
plane-surface $-1 269.31485946226388 0 0 -1 0 0 0 0 1 forward_v I I I I #
coedge $-1 $505 $503 $507 $668 reversed $312 $-1 #
edge $-1 $518 -134.65742973113194 $670 134.65742973113194 $517 $736 forward 7 unknown #
vertex $-1 $668 $737 #
straight-curve $-1 -269.31485946226388 -2.3030669299087325 0 0 0 -1 I I #
edge $-1 $666 -2.3030669299087325 $670 2.3030669299087325 $664 $738 forward 7 unknown #
straight-curve $-1 0 -2.3030669299087325 -134.65742973113194 -1 0 0 I I #
vertex $-1 $510 $739 #
straight-curve $-1 0 2.3030669299087325 -134.65742973113194 1 0 0 I I #
point $-1 269.31485946226388 2.3030669299087325 -134.65742973113194 #
point $-1 269.31485946226388 -2.3030669299087325 -134.65742973113194 #
straight-curve $-1 -269.31485946226388 0 134.65742973113194 0 -1 0 I I #
point $-1 -269.31485946226388 2.3030669299087325 134.65742973113194 #
point $-1 -269.31485946226388 -2.3030669299087325 134.65742973113194 #
straight-curve $-1 269.31485946226388 -2.3030669299087325 0 0 0 -1 I I #
straight-curve $-1 269.31485946226388 2.3030669299087325 0 0 0 -1 I I #
edge $-1 $740 1 $740 0 $527 $-1 forward 7 unknown #
point $-1 0.5 0 -0.25 #
plane-surface $-1 269.31485946226388 0 0 -1 0 0 0 0 1 forward_v I I I I #
coedge $-1 $536 $534 $538 $686 reversed $336 $-1 #
edge $-1 $549 -134.65742973113194 $688 134.65742973113194 $548 $741 forward 7 unknown #
vertex $-1 $686 $742 #
straight-curve $-1 -269.31485946226388 -2.3030669299087325 0 0 0 -1 I I #
edge $-1 $684 -2.3030669299087325 $688 2.3030669299087325 $682 $743 forward 7 unknown #
straight-curve $-1 0 -2.3030669299087325 -134.65742973113194 -1 0 0 I I #
vertex $-1 $541 $744 #
straight-curve $-1 0 2.3030669299087325 -134.65742973113194 1 0 0 I I #
point $-1 269.31485946226388 2.3030669299087325 -134.65742973113194 #
point $-1 269.31485946226388 -2.3030669299087325 -134.65742973113194 #
straight-curve $-1 -269.31485946226388 0 134.65742973113194 0 -1 0 I I #
point $-1 -269.31485946226388 2.3030669299087325 134.65742973113194 #
point $-1 -269.31485946226388 -2.3030669299087325 134.65742973113194 #
straight-curve $-1 269.31485946226388 -2.3030669299087325 0 0 0 -1 I I #
straight-curve $-1 269.31485946226388 2.3030669299087325 0 0 0 -1 I I #
edge $-1 $745 1 $745 0 $558 $-1 forward 7 unknown #
point $-1 0.5 0 -0.25 #
plane-surface $-1 269.31485946226388 0 0 -1 0 0 0 0 1 forward_v I I I I #
coedge $-1 $567 $565 $569 $704 reversed $360 $-1 #
edge $-1 $580 -134.65742973113194 $706 134.65742973113194 $579 $746 forward 7 unknown #
vertex $-1 $704 $747 #
straight-curve $-1 -269.31485946226388 -3.1449958991954112 0 0 0 -1 I I #
edge $-1 $702 -3.1449958991954112 $706 3.1449958991954112 $700 $748 forward 7 unknown #
straight-curve $-1 0 -3.1449958991954112 -134.65742973113194 -1 0 0 I I #
vertex $-1 $572 $749 #
straight-curve $-1 0 3.1449958991954112 -134.65742973113194 1 0 0 I I #
point $-1 269.31485946226388 3.1449958991954112 -134.65742973113194 #
point $-1 269.31485946226388 -3.1449958991954112 -134.65742973113194 #
straight-curve $-1 -269.31485946226388 0 134.65742973113194 0 -1 0 I I #
point $-1 -269.31485946226388 3.1449958991954112 134.65742973113194 #
point $-1 -269.31485946226388 -3.1449958991954112 134.65742973113194 #
straight-curve $-1 269.31485946226388 -3.1449958991954112 0 0 0 -1 I I #
straight-curve $-1 269.31485946226388 3.1449958991954112 0 0 0 -1 I I #
edge $-1 $750 1 $750 0 $589 $-1 forward 7 unknown #
point $-1 0.5 0 -0.25 #
edge $-1 $751 1 $751 0 $593 $-1 forward 7 unknown #
point $-1 0.5 0 -0.25 #
straight-curve $-1 -67.328714865565971 28.161883433378126 0 0 0 -1 I I #
point $-1 -67.328714865565971 -28.161883433378126 -12.996476720923917 #
straight-curve $-1 -67.328714865565971 0 -12.996476720923917 0 1 0 I I #
point $-1 -67.328714865565971 28.161883433378126 -12.996476720923917 #
straight-curve $-1 -67.328714865565971 7.7789904317674363 0 0 0 -1 I I #
point $-1 -67.328714865565971 -7.7789904317674363 -2.8419158102081958 #
straight-curve $-1 -67.328714865565971 0 -2.8419158102081958 0 1 0 I I #
point $-1 -67.328714865565971 7.7789904317674363 -2.8419158102081958 #
straight-curve $-1 -67.328714865565971 7.7789904317674363 0 0 0 -1 I I #
point $-1 -67.328714865565971 -7.7789904317674363 -2.8419158102081958 #
straight-curve $-1 -67.328714865565971 0 -2.8419158102081958 0 1 0 I I #
point $-1 -67.328714865565971 7.7789904317674363 -2.8419158102081958 #
straight-curve $-1 -269.31485946226388 2.3030669299087325 0 0 0 -1 I I #
point $-1 -269.31485946226388 -2.3030669299087325 -134.65742973113194 #
straight-curve $-1 -269.31485946226388 0 -134.65742973113194 0 1 0 I I #
point $-1 -269.31485946226388 2.3030669299087325 -134.65742973113194 #
vertex $-1 $661 $752 #
straight-curve $-1 -269.31485946226388 2.3030669299087325 0 0 0 -1 I I #
point $-1 -269.31485946226388 -2.3030669299087325 -134.65742973113194 #
straight-curve $-1 -269.31485946226388 0 -134.65742973113194 0 1 0 I I #
point $-1 -269.31485946226388 2.3030669299087325 -134.65742973113194 #
vertex $-1 $679 $753 #
straight-curve $-1 -269.31485946226388 2.3030669299087325 0 0 0 -1 I I #
point $-1 -269.31485946226388 -2.3030669299087325 -134.65742973113194 #
straight-curve $-1 -269.31485946226388 0 -134.65742973113194 0 1 0 I I #
point $-1 -269.31485946226388 2.3030669299087325 -134.65742973113194 #
vertex $-1 $697 $754 #
straight-curve $-1 -269.31485946226388 3.1449958991954112 0 0 0 -1 I I #
point $-1 -269.31485946226388 -3.1449958991954112 -134.65742973113194 #
straight-curve $-1 -269.31485946226388 0 -134.65742973113194 0 1 0 I I #
point $-1 -269.31485946226388 3.1449958991954112 -134.65742973113194 #
vertex $-1 $715 $755 #
vertex $-1 $717 $756 #
point $-1 0 0 0.25 #
point $-1 0 0 0.25 #
point $-1 0 0 0.25 #
point $-1 0 0 0.25 #
point $-1 0 0 0.25 #
End-of-ACIS-data 