500 0 4 0           
7 Unknown 11 ACIS 5.0 NT 24 Fri Mar 26 01:33:50 1999 
-1 9.9999999999999995e-007 1e-010 
body $-1 $4 $-1 $5 #
body $-1 $6 $-1 $7 #
body $-1 $8 $-1 $9 #
body $-1 $10 $-1 $11 #
lump $-1 $-1 $12 $0 #
transform $-1 1 0 0 0 1 0 0 0 1 47.528305917538987 29.572797444910325 7.8404420069939116 1 rotate no_reflect no_shear #
lump $-1 $-1 $13 $1 #
transform $-1 1 0 0 0 1 0 0 0 1 47.528305917538987 29.572797444910325 7.8404420069939116 1 rotate no_reflect no_shear #
lump $-1 $-1 $14 $2 #
transform $-1 1 0 0 0 1 0 0 0 1 47.528305917538987 29.572797444910325 7.8404420069939116 1 rotate no_reflect no_shear #
lump $-1 $-1 $15 $3 #
transform $-1 1 0 0 0 1 0 0 0 1 47.528305917538987 29.572797444910325 7.8404420069939116 1 rotate no_reflect no_shear #
shell $-1 $-1 $-1 $16 $-1 $4 #
shell $-1 $-1 $-1 $17 $-1 $6 #
shell $-1 $-1 $-1 $18 $-1 $8 #
shell $-1 $-1 $-1 $19 $-1 $10 #
face $-1 $20 $21 $12 $-1 $22 forward single #
face $-1 $23 $24 $13 $-1 $25 forward single #
face $-1 $26 $27 $14 $-1 $28 reversed single #
face $-1 $29 $30 $15 $-1 $31 forward single #
face $-1 $32 $33 $12 $-1 $34 reversed single #
loop $-1 $-1 $35 $16 #
plane-surface $-1 0 0 7.8404420069939116 0 0 1 1 0 0 forward_v I I I I #
face $-1 $36 $37 $13 $-1 $38 reversed single #
loop $-1 $-1 $39 $17 #
plane-surface $-1 0 -29.572797444910325 0 0 1 0 0 0 1 forward_v I I I I #
face $-1 $40 $41 $14 $-1 $42 reversed single #
loop $-1 $-1 $43 $18 #
plane-surface $-1 -26.870673933640347 66.224131928423759 110.54427955679465 -1 0 0 0 0.77714596973225614 0.62932038083071107 forward_v I I I I #
face $-1 $44 $45 $15 $-1 $46 forward single #
loop $-1 $47 $48 $19 #
cone-surface $-1 -37.199489925589667 27.80067188913003 5.8749163963210371 0 -0.77714596973225614 -0.62932038083071107 0.5 0 0 1 I I 0 1 0.5 forward I I I I #
face $-1 $49 $50 $12 $-1 $51 reversed single #
loop $-1 $-1 $52 $20 #
plane-surface $-1 0 0 -7.8404420069939116 0 0 1 1 0 0 forward_v I I I I #
coedge $-1 $53 $54 $55 $56 forward $21 $-1 #
face $-1 $57 $58 $13 $-1 $59 reversed single #
loop $-1 $-1 $60 $23 #
plane-surface $-1 0 0 -7.8404420069939116 0 0 1 1 0 0 forward_v I I I I #
coedge $-1 $61 $62 $63 $64 forward $24 $-1 #
face $-1 $65 $66 $14 $-1 $67 forward single #
loop $-1 $-1 $68 $26 #
plane-surface $-1 -37.199489925589667 -7.648730855610566 50.723216396266302 0 0.77714596973225614 0.62932038083071107 1 0 0 forward_v I I I I #
coedge $-1 $69 $70 $71 $72 reversed $27 $-1 #
face $-1 $-1 $73 $15 $-1 $74 forward single #
loop $-1 $75 $76 $29 #
cone-surface $-1 -37.199489925589667 27.082131458238937 5.2930538438247074 0 -0.77714596973225614 -0.62932038083071107 0.25 0 0 1 I I -0.70710678118654746 0.70710678118654746 0.25 forward I I I I #
loop $-1 $-1 $77 $19 #
coedge $-1 $48 $48 $78 $79 reversed $30 $-1 #
face $-1 $80 $81 $12 $-1 $82 reversed single #
loop $-1 $-1 $83 $32 #
plane-surface $-1 0 -29.572797444910325 0 0 1 0 0 0 1 forward_v I I I I #
coedge $-1 $84 $85 $86 $87 forward $33 $-1 #
coedge $-1 $88 $35 $89 $90 forward $21 $-1 #
coedge $-1 $35 $88 $91 $92 forward $21 $-1 #
coedge $-1 $93 $94 $35 $56 reversed $95 $-1 #
edge $-1 $96 -29.572797444910325 $97 29.572797444910325 $55 $98 forward 7 unknown #
face $-1 $99 $100 $13 $-1 $101 forward single #
loop $-1 $-1 $102 $36 #
plane-surface $-1 47.528305917538987 0 0 -1 0 0 0 0 1 forward_v I I I I #
coedge $-1 $103 $104 $105 $106 forward $37 $-1 #
coedge $-1 $105 $39 $102 $107 reversed $24 $-1 #
coedge $-1 $39 $105 $108 $109 reversed $24 $-1 #
coedge $-1 $110 $111 $39 $64 reversed $100 $-1 #
edge $-1 $112 -47.528305917538987 $113 47.528305917538987 $63 $114 forward 7 unknown #
face $-1 $115 $116 $14 $-1 $117 reversed single #
loop $-1 $-1 $118 $40 #
plane-surface $-1 0 0 7.8404420069939116 0 0 1 1 0 0 forward_v I I I I #
coedge $-1 $119 $120 $121 $122 reversed $41 $-1 #
coedge $-1 $70 $43 $123 $124 reversed $27 $-1 #
coedge $-1 $43 $69 $119 $125 reversed $27 $-1 #
coedge $-1 $121 $126 $43 $72 forward $116 $-1 #
edge $-1 $127 47.431697771403414 $128 50.513684078171856 $71 $129 forward 7 unknown #
loop $-1 $-1 $78 $44 #
plane-surface $-1 -37.199489925589667 -7.648730855610566 50.723216396266302 0 0.77714596973225614 0.62932038083071107 1 0 0 forward_v I I I I #
loop $-1 $-1 $130 $29 #
coedge $-1 $76 $76 $77 $131 reversed $45 $-1 #
coedge $-1 $77 $77 $76 $131 forward $47 $-1 #
coedge $-1 $78 $78 $48 $79 forward $73 $-1 #
edge $-1 $132 6.602491500234327e-016 $132 6.2831853071796013 $78 $133 forward 7 unknown #
face $-1 $134 $135 $12 $-1 $136 reversed single #
loop $-1 $-1 $137 $49 #
plane-surface $-1 -47.528305917538987 0 0 1 0 0 0 0 -1 forward_v I I I I #
coedge $-1 $138 $91 $139 $140 forward $50 $-1 #
coedge $-1 $141 $52 $138 $142 forward $33 $-1 #
coedge $-1 $52 $141 $143 $144 forward $33 $-1 #
coedge $-1 $94 $93 $52 $87 reversed $95 $-1 #
edge $-1 $145 -29.572797444910325 $146 29.572797444910325 $86 $147 forward 7 unknown #
coedge $-1 $54 $53 $148 $149 forward $21 $-1 #
coedge $-1 $150 $151 $53 $90 reversed $135 $-1 #
edge $-1 $97 -47.528305917538987 $152 47.528305917538987 $89 $153 forward 7 unknown #
coedge $-1 $83 $154 $54 $92 reversed $50 $-1 #
edge $-1 $155 -47.528305917538987 $96 47.528305917538987 $91 $156 forward 7 unknown #
coedge $-1 $86 $55 $154 $157 forward $95 $-1 #
coedge $-1 $55 $86 $150 $158 reversed $95 $-1 #
loop $-1 $-1 $93 $134 #
vertex $-1 $56 $159 #
vertex $-1 $56 $160 #
straight-curve $-1 47.528305917538987 0 7.8404420069939116 0 1 0 I I #
face $-1 $161 $162 $13 $-1 $163 reversed single #
loop $-1 $-1 $111 $57 #
plane-surface $-1 0 -34.684082732335433 -4.4965235204757716 0 0 1 1 0 0 forward_v I I I I #
coedge $-1 $164 $165 $61 $107 forward $58 $-1 #
coedge $-1 $166 $60 $165 $167 forward $37 $-1 #
coedge $-1 $60 $166 $168 $169 forward $37 $-1 #
coedge $-1 $62 $61 $60 $106 reversed $24 $-1 #
edge $-1 $170 -47.528305917538987 $171 47.528305917538987 $60 $172 forward 7 unknown #
edge $-1 $171 -7.8404420069939116 $113 -4.4965235204757716 $102 $173 forward 7 unknown #
coedge $-1 $168 $174 $62 $109 forward $175 $-1 #
edge $-1 $112 4.4965235204757716 $170 7.8404420069939116 $108 $176 forward 7 unknown #
coedge $-1 $177 $63 $174 $178 forward $100 $-1 #
coedge $-1 $63 $177 $164 $179 forward $100 $-1 #
vertex $-1 $109 $180 #
vertex $-1 $179 $181 #
straight-curve $-1 0 -29.572797444910325 -4.4965235204757716 1 0 0 I I #
face $-1 $-1 $182 $14 $-1 $183 reversed single #
loop $-1 $-1 $71 $65 #
plane-surface $-1 0 29.572797444910325 0 0 -1 0 0 0 -1 forward_v I I I I #
coedge $-1 $123 $184 $185 $186 forward $66 $-1 #
coedge $-1 $185 $68 $70 $125 forward $41 $-1 #
coedge $-1 $68 $185 $187 $188 reversed $41 $-1 #
coedge $-1 $189 $71 $68 $122 forward $116 $-1 #
edge $-1 $128 8.2709289708455138 $190 28.928560954744153 $121 $191 forward 7 unknown #
coedge $-1 $192 $118 $69 $124 forward $66 $-1 #
edge $-1 $193 -6.0350117539461081 $127 -3.5392685193015545 $123 $194 forward 7 unknown #
edge $-1 $128 -59.145594889820643 $193 -55.179819569863369 $70 $195 forward 7 unknown #
coedge $-1 $71 $189 $192 $196 reversed $116 $-1 #
vertex $-1 $196 $197 #
vertex $-1 $72 $198 #
straight-curve $-1 -26.870673933640347 29.572797444910325 55.272139778397325 0 0 -1 I I #
coedge $-1 $130 $130 $-1 $199 reversed $75 $-1 #
edge $-1 $200 0 $200 6.2831853071796004 $76 $201 forward 7 unknown #
vertex $-1 $79 $202 #
ellipse-curve $-1 -37.199489925589667 28.32492582758805 6.2994488536096833 0 0.77714596973225614 0.62932038083071107 0.5 0 0 1 I I #
face $-1 $-1 $95 $12 $-1 $203 reversed single #
loop $-1 $-1 $150 $80 #
plane-surface $-1 0 29.572797444910325 0 0 -1 0 0 0 -1 forward_v I I I I #
coedge $-1 $204 $148 $151 $205 forward $81 $-1 #
coedge $-1 $154 $83 $84 $142 reversed $50 $-1 #
coedge $-1 $148 $204 $83 $140 reversed $81 $-1 #
edge $-1 $155 -7.8404420069939116 $206 7.8404420069939116 $139 $207 forward 7 unknown #
coedge $-1 $85 $84 $204 $208 forward $33 $-1 #
edge $-1 $146 -47.528305917538987 $206 47.528305917538987 $138 $209 forward 7 unknown #
coedge $-1 $151 $150 $85 $144 reversed $135 $-1 #
edge $-1 $210 -47.528305917538987 $145 47.528305917538987 $143 $211 forward 7 unknown #
vertex $-1 $87 $212 #
vertex $-1 $157 $213 #
straight-curve $-1 47.528305917538987 0 -7.8404420069939116 0 -1 0 I I #
coedge $-1 $137 $139 $88 $149 reversed $81 $-1 #
edge $-1 $152 -29.572797444910325 $155 29.572797444910325 $148 $214 forward 7 unknown #
coedge $-1 $143 $89 $94 $158 forward $135 $-1 #
coedge $-1 $89 $143 $137 $205 reversed $135 $-1 #
vertex $-1 $90 $215 #
straight-curve $-1 0 29.572797444910325 7.8404420069939116 -1 0 0 I I #
coedge $-1 $91 $138 $93 $157 reversed $50 $-1 #
vertex $-1 $149 $216 #
straight-curve $-1 0 -29.572797444910325 7.8404420069939116 1 0 0 I I #
edge $-1 $96 -7.8404420069939116 $146 7.8404420069939116 $93 $217 forward 7 unknown #
edge $-1 $97 -7.8404420069939116 $145 7.8404420069939116 $94 $218 forward 7 unknown #
point $-1 47.528305917538987 -29.572797444910325 7.8404420069939116 #
point $-1 47.528305917538987 29.572797444910325 7.8404420069939116 #
face $-1 $-1 $175 $13 $-1 $219 reversed single #
loop $-1 $-1 $220 $99 #
plane-surface $-1 0 -39.795368019760545 -6.1684827637348416 0 1 0 0 0 1 forward_v I I I I #
coedge $-1 $221 $102 $111 $179 reversed $58 $-1 #
coedge $-1 $102 $221 $103 $167 reversed $58 $-1 #
coedge $-1 $104 $103 $222 $223 forward $37 $-1 #
edge $-1 $171 29.572797444910325 $224 39.795368019760545 $165 $225 forward 7 unknown #
coedge $-1 $226 $108 $104 $169 reversed $175 $-1 #
edge $-1 $227 -39.795368019760545 $170 -29.572797444910325 $168 $228 forward 7 unknown #
vertex $-1 $109 $229 #
vertex $-1 $167 $230 #
straight-curve $-1 0 -29.572797444910325 -7.8404420069939116 1 0 0 I I #
straight-curve $-1 47.528305917538987 -29.572797444910325 0 0 0 1 I I #
coedge $-1 $108 $226 $110 $178 reversed $175 $-1 #
loop $-1 $-1 $108 $161 #
straight-curve $-1 -47.528305917538987 -29.572797444910325 0 0 0 -1 I I #
coedge $-1 $111 $110 $231 $232 forward $100 $-1 #
edge $-1 $112 -5.1112852874251082 $233 5.1112852874251118 $174 $234 forward 7 unknown #
edge $-1 $235 -5.1112852874251118 $113 5.1112852874251082 $164 $236 forward 7 unknown #
point $-1 -47.528305917538987 -29.572797444910325 -4.4965235204757716 #
point $-1 47.528305917538987 -29.572797444910325 -4.4965235204757716 #
loop $-1 $-1 $187 $115 #
plane-surface $-1 -47.528305917538987 0 0 1 0 0 0 0 -1 forward_v I I I I #
coedge $-1 $118 $192 $237 $238 forward $66 $-1 #
coedge $-1 $120 $119 $118 $186 reversed $41 $-1 #
edge $-1 $239 -28.928560954744153 $193 -8.2709289708455138 $118 $240 forward 7 unknown #
coedge $-1 $237 $241 $120 $188 forward $182 $-1 #
edge $-1 $190 -37.029172185250701 $239 -33.063396865293413 $187 $242 forward 7 unknown #
coedge $-1 $126 $121 $241 $243 reversed $116 $-1 #
vertex $-1 $122 $244 #
straight-curve $-1 -18.599744962794833 29.572797444910321 4.7584557002254577 -1 0 0 I I #
coedge $-1 $184 $123 $126 $196 forward $66 $-1 #
vertex $-1 $124 $245 #
straight-curve $-1 -26.870673933640347 33.11206596421188 7.8404420069939107 0 1 0 I I #
straight-curve $-1 -26.870673933640347 -7.648730855610566 50.723216396266302 0 -0.62932038083071107 0.77714596973225614 I I #
edge $-1 $127 26.870673933640347 $246 47.528305917538987 $126 $247 forward 7 unknown #
point $-1 -26.870673933640347 29.572797444910325 7.8404420069939116 #
point $-1 -26.870673933640347 29.572797444910321 4.7584557002254684 #
edge $-1 $248 1 $248 0 $130 $-1 forward 7 unknown #
vertex $-1 $131 $249 #
ellipse-curve $-1 -37.199489925589667 27.276417950672002 5.4503839390323856 0 0.77714596973225614 0.62932038083071107 0.5 0 0 1 I I #
point $-1 -36.699489925589667 28.324925827588057 6.2994488536096886 #
plane-surface $-1 47.528305917538987 0 0 -1 0 0 0 0 1 forward_v I I I I #
coedge $-1 $139 $137 $141 $208 reversed $81 $-1 #
edge $-1 $152 -7.8404420069939116 $210 7.8404420069939116 $151 $250 forward 7 unknown #
vertex $-1 $208 $251 #
straight-curve $-1 -47.528305917538987 -29.572797444910325 0 0 0 -1 I I #
edge $-1 $206 -29.572797444910325 $210 29.572797444910325 $204 $252 forward 7 unknown #
straight-curve $-1 0 -29.572797444910325 -7.8404420069939116 -1 0 0 I I #
vertex $-1 $144 $253 #
straight-curve $-1 0 29.572797444910325 -7.8404420069939116 1 0 0 I I #
point $-1 47.528305917538987 29.572797444910325 -7.8404420069939116 #
point $-1 47.528305917538987 -29.572797444910325 -7.8404420069939116 #
straight-curve $-1 -47.528305917538987 0 7.8404420069939116 0 -1 0 I I #
point $-1 -47.528305917538987 29.572797444910325 7.8404420069939116 #
point $-1 -47.528305917538987 -29.572797444910325 7.8404420069939116 #
straight-curve $-1 47.528305917538987 -29.572797444910325 0 0 0 -1 I I #
straight-curve $-1 47.528305917538987 29.572797444910325 0 0 0 -1 I I #
plane-surface $-1 -47.528305917538987 0 0 1 0 0 0 0 -1 forward_v I I I I #
coedge $-1 $222 $231 $226 $254 forward $162 $-1 #
coedge $-1 $165 $164 $255 $256 forward $58 $-1 #
coedge $-1 $255 $220 $166 $223 reversed $162 $-1 #
edge $-1 $224 -47.528305917538987 $227 47.528305917538987 $222 $257 forward 7 unknown #
vertex $-1 $256 $258 #
straight-curve $-1 47.528305917538987 0 -7.8404420069939116 0 -1 0 I I #
coedge $-1 $174 $168 $220 $254 reversed $175 $-1 #
vertex $-1 $169 $259 #
straight-curve $-1 -47.528305917538987 0 -7.8404420069939116 0 1 0 I I #
point $-1 -47.528305917538987 -29.572797444910325 -7.8404420069939116 #
point $-1 47.528305917538987 -29.572797444910325 -7.8404420069939116 #
coedge $-1 $220 $255 $177 $232 reversed $162 $-1 #
edge $-1 $233 -47.528305917538987 $235 47.528305917538987 $231 $260 forward 7 unknown #
vertex $-1 $178 $261 #
straight-curve $-1 -47.528305917538987 -34.684082732335433 -4.4965235204757716 0 -1 0 I I #
vertex $-1 $179 $262 #
straight-curve $-1 47.528305917538987 -34.684082732335433 -4.4965235204757716 0 1 0 I I #
coedge $-1 $241 $187 $184 $238 reversed $182 $-1 #
edge $-1 $246 -29.572797444910325 $239 -27.077054210265771 $237 $263 forward 7 unknown #
vertex $-1 $188 $264 #
straight-curve $-1 -18.599744962794833 27.077054210265771 7.8404420069939142 1 0 0 I I #
coedge $-1 $187 $237 $189 $243 forward $182 $-1 #
straight-curve $-1 -47.528305917538987 6.2695847034423799 33.535527626514799 0 -0.62932038083071107 0.77714596973225614 I I #
edge $-1 $246 -7.8404420069939116 $190 -4.7584557002254586 $189 $265 forward 7 unknown #
point $-1 -47.528305917538987 29.572797444910325 4.7584557002254586 #
point $-1 -26.870673933640347 27.077054210265771 7.8404420069939107 #
vertex $-1 $196 $266 #
straight-curve $-1 0 29.572797444910325 7.8404420069939116 -1 0 0 I I #
vertex $-1 $199 $267 #
point $-1 -36.699489925589667 27.276417950672002 5.4503839390323856 #
straight-curve $-1 -47.528305917538987 29.572797444910325 0 0 0 -1 I I #
point $-1 -47.528305917538987 -29.572797444910325 -7.8404420069939116 #
straight-curve $-1 -47.528305917538987 0 -7.8404420069939116 0 1 0 I I #
point $-1 -47.528305917538987 29.572797444910325 -7.8404420069939116 #
edge $-1 $233 -1.67195924325907 $227 1.67195924325907 $226 $268 forward 7 unknown #
coedge $-1 $231 $222 $221 $256 reversed $162 $-1 #
edge $-1 $235 -1.67195924325907 $224 1.67195924325907 $221 $269 forward 7 unknown #
straight-curve $-1 0 -39.795368019760545 -7.8404420069939116 -1 0 0 I I #
point $-1 47.528305917538987 -39.795368019760545 -7.8404420069939116 #
point $-1 -47.528305917538987 -39.795368019760545 -7.8404420069939116 #
straight-curve $-1 0 -39.795368019760545 -4.4965235204757716 1 0 0 I I #
point $-1 -47.528305917538987 -39.795368019760545 -4.4965235204757716 #
point $-1 47.528305917538987 -39.795368019760545 -4.4965235204757716 #
straight-curve $-1 -47.528305917538987 0 7.8404420069939116 0 -1 0 I I #
point $-1 -47.528305917538987 27.077054210265771 7.8404420069939107 #
straight-curve $-1 -47.528305917538987 29.572797444910325 0 0 0 -1 I I #
point $-1 -47.528305917538987 29.572797444910325 7.8404420069939116 #
point $-1 -37.199489925589667 26.887844965805872 5.1357237486170293 #
straight-curve $-1 -47.528305917538987 -39.795368019760545 -6.1684827637348416 0 0 -1 I I #
straight-curve $-1 47.528305917538987 -39.795368019760545 -6.1684827637348416 0 0 -1 I I #
End-of-ACIS-data 