500 0 5 0           
7 Unknown 11 ACIS 5.0 NT 24 Fri Mar 26 03:02:22 1999 
-1 9.9999999999999995e-007 1e-010 
body $-1 $5 $-1 $6 #
body $-1 $7 $-1 $8 #
body $-1 $9 $-1 $10 #
body $-1 $11 $-1 $12 #
body $-1 $13 $-1 $14 #
lump $-1 $-1 $15 $0 #
transform $-1 1 0 0 0 1 0 0 0 1 54.352244636371964 31.385862656411891 9.6458343061270391 1 rotate no_reflect no_shear #
lump $-1 $-1 $16 $1 #
transform $-1 1 0 0 0 1 0 0 0 1 54.352244636371964 31.385862656411891 9.6458343061270391 1 rotate no_reflect no_shear #
lump $-1 $-1 $17 $2 #
transform $-1 1 0 0 0 1 0 0 0 1 54.352244636371964 31.385862656411891 9.6458343061270391 1 rotate no_reflect no_shear #
lump $-1 $-1 $18 $3 #
transform $-1 1 0 0 0 1 0 0 0 1 54.352244636371964 31.385862656411891 9.6458343061270391 1 rotate no_reflect no_shear #
lump $-1 $-1 $19 $4 #
transform $-1 1 0 0 0 1 0 0 0 1 54.352244636371964 31.385862656411891 9.6458343061270391 1 rotate no_reflect no_shear #
shell $-1 $-1 $-1 $20 $-1 $5 #
shell $-1 $-1 $-1 $21 $-1 $7 #
shell $-1 $-1 $-1 $22 $-1 $9 #
shell $-1 $-1 $-1 $23 $-1 $11 #
shell $-1 $-1 $-1 $24 $-1 $13 #
face $-1 $25 $26 $15 $-1 $27 forward single #
face $-1 $28 $29 $16 $-1 $30 forward single #
face $-1 $31 $32 $17 $-1 $33 reversed single #
face $-1 $34 $35 $18 $-1 $36 forward single #
face $-1 $37 $38 $19 $-1 $39 reversed single #
face $-1 $40 $41 $15 $-1 $42 reversed single #
loop $-1 $-1 $43 $20 #
plane-surface $-1 0 0 9.6458343061270391 0 0 1 1 0 0 forward_v I I I I #
face $-1 $44 $45 $16 $-1 $46 forward single #
loop $-1 $-1 $47 $21 #
plane-surface $-1 -28.920224592464066 -25.527557819445409 73.953643235676068 0.64278761758704617 0 0.76604443648966558 0.76604443648966558 0 -0.64278761758704617 forward_v I I I I #
face $-1 $48 $49 $17 $-1 $50 reversed single #
loop $-1 $51 $52 $22 #
cone-surface $-1 49.165837023442982 -25.527557819445409 4.6345632835824944 -0.64278761758704617 0 -0.76604443648966558 1.1490666547344983 0 -0.96418142638056925 1 I I 0 1 1.5 forward I I I I #
face $-1 $53 $54 $18 $-1 $55 forward single #
loop $-1 $-1 $56 $23 #
plane-surface $-1 -124.22614431701564 -19.669252982478927 87.352212783868382 0 -1 0 0.64278761758704617 0 -0.76604443648966558 forward_v I I I I #
face $-1 $57 $58 $19 $-1 $59 reversed single #
loop $-1 $60 $61 $24 #
cone-surface $-1 -49.165837023442982 -25.527557819445409 4.6345632835824979 0.64278761758704617 0 -0.76604443648966558 1.1490666547344983 0 0.96418142638056925 1 I I 0 1 1.5 forward I I I I #
face $-1 $62 $63 $15 $-1 $64 reversed single #
loop $-1 $-1 $65 $25 #
plane-surface $-1 0 0 -9.6458343061270391 0 0 1 1 0 0 forward_v I I I I #
coedge $-1 $66 $67 $68 $69 forward $26 $-1 #
face $-1 $70 $71 $16 $-1 $72 reversed single #
loop $-1 $-1 $73 $28 #
plane-surface $-1 40.953675088179622 -19.669252982478927 157.22611246451208 0 -1 0 -0.64278761758704617 0 -0.76604443648966558 forward_v I I I I #
coedge $-1 $74 $75 $76 $77 reversed $29 $-1 #
face $-1 $78 $79 $17 $-1 $80 forward single #
loop $-1 $81 $82 $31 #
cone-surface $-1 46.814042952516729 -25.527557819445409 1.8318043092180396 -0.64278761758704617 0 -0.76604443648966558 0.57453332736724916 0 -0.48209071319028463 1 I I -0.70710678118654757 0.70710678118654757 0.75 forward I I I I #
loop $-1 $-1 $83 $22 #
coedge $-1 $52 $52 $84 $85 reversed $32 $-1 #
face $-1 $86 $87 $18 $-1 $88 forward single #
loop $-1 $-1 $89 $34 #
plane-surface $-1 -54.35224463637195 -25.527557819445409 4.0797435550323655 -0.64278761758704617 0 0.76604443648966558 0.76604443648966558 0 0.64278761758704617 forward_v I I I I #
coedge $-1 $90 $91 $92 $93 reversed $35 $-1 #
face $-1 $94 $95 $19 $-1 $96 forward single #
loop $-1 $97 $98 $37 #
cone-surface $-1 -46.814042952516729 -25.527557819445409 1.8318043092180432 0.64278761758704617 0 -0.76604443648966558 0.57453332736724916 0 0.48209071319028463 1 I I -0.70710678118654757 0.70710678118654757 0.75 forward I I I I #
loop $-1 $-1 $99 $24 #
coedge $-1 $61 $61 $100 $101 reversed $38 $-1 #
face $-1 $102 $103 $15 $-1 $104 reversed single #
loop $-1 $-1 $105 $40 #
plane-surface $-1 0 -31.385862656411891 0 0 1 0 0 0 1 forward_v I I I I #
coedge $-1 $106 $107 $108 $109 forward $41 $-1 #
coedge $-1 $110 $43 $111 $112 forward $26 $-1 #
coedge $-1 $43 $110 $113 $114 forward $26 $-1 #
coedge $-1 $115 $116 $43 $69 reversed $117 $-1 #
edge $-1 $118 -31.385862656411891 $119 31.385862656411891 $68 $120 forward 7 unknown #
face $-1 $121 $122 $16 $-1 $123 reversed single #
loop $-1 $-1 $124 $44 #
plane-surface $-1 54.352244636371964 0 0 -1 0 0 0 0 1 forward_v I I I I #
coedge $-1 $125 $126 $124 $127 reversed $45 $-1 #
coedge $-1 $128 $47 $126 $129 reversed $29 $-1 #
coedge $-1 $47 $128 $130 $131 reversed $29 $-1 #
coedge $-1 $132 $124 $47 $77 forward $71 $-1 #
edge $-1 $133 6.9054740727562223 $134 18.622083746689185 $76 $135 forward 7 unknown #
face $-1 $136 $137 $17 $-1 $138 forward single #
loop $-1 $139 $84 $48 #
plane-surface $-1 -28.920224592464066 -25.527557819445409 73.953643235676068 0.64278761758704617 0 0.76604443648966558 0.76604443648966558 0 -0.64278761758704617 forward_v I I I I #
loop $-1 $-1 $140 $31 #
coedge $-1 $82 $82 $83 $141 forward $49 $-1 #
coedge $-1 $83 $83 $82 $141 reversed $51 $-1 #
coedge $-1 $84 $84 $52 $85 forward $79 $-1 #
edge $-1 $142 0 $142 6.2831853071796004 $84 $143 forward 7 unknown #
face $-1 $144 $145 $18 $-1 $146 reversed single #
loop $-1 $-1 $147 $53 #
plane-surface $-1 0 0 9.6458343061270391 0 0 1 1 0 0 forward_v I I I I #
coedge $-1 $148 $149 $150 $151 reversed $54 $-1 #
coedge $-1 $91 $56 $149 $152 forward $35 $-1 #
coedge $-1 $56 $90 $147 $153 reversed $35 $-1 #
coedge $-1 $154 $150 $56 $93 forward $155 $-1 #
edge $-1 $156 -39.596362836901839 $157 -34.030272085807155 $92 $158 forward 7 unknown #
face $-1 $159 $160 $19 $-1 $161 forward single #
loop $-1 $-1 $162 $57 #
plane-surface $-1 -124.22614431701564 -19.669252982478927 87.352212783868382 0 -1 0 0.64278761758704617 0 -0.76604443648966558 forward_v I I I I #
loop $-1 $-1 $163 $37 #
coedge $-1 $98 $98 $99 $164 forward $58 $-1 #
coedge $-1 $99 $99 $98 $164 reversed $60 $-1 #
coedge $-1 $100 $100 $61 $101 forward $160 $-1 #
edge $-1 $165 0 $165 6.2831853071796004 $100 $166 forward 7 unknown #
face $-1 $167 $168 $15 $-1 $169 reversed single #
loop $-1 $-1 $170 $62 #
plane-surface $-1 -54.352244636371964 0 0 1 0 0 0 0 -1 forward_v I I I I #
coedge $-1 $171 $113 $172 $173 forward $63 $-1 #
coedge $-1 $174 $65 $171 $175 forward $41 $-1 #
coedge $-1 $65 $174 $176 $177 forward $41 $-1 #
coedge $-1 $116 $115 $65 $109 reversed $117 $-1 #
edge $-1 $178 -31.385862656411891 $179 31.385862656411891 $108 $180 forward 7 unknown #
coedge $-1 $67 $66 $181 $182 forward $26 $-1 #
coedge $-1 $183 $184 $66 $112 reversed $168 $-1 #
edge $-1 $119 -54.352244636371964 $185 54.352244636371964 $111 $186 forward 7 unknown #
coedge $-1 $105 $187 $67 $114 reversed $63 $-1 #
edge $-1 $188 -54.352244636371964 $118 54.352244636371964 $113 $189 forward 7 unknown #
coedge $-1 $108 $68 $187 $190 forward $117 $-1 #
coedge $-1 $68 $108 $183 $191 reversed $117 $-1 #
loop $-1 $-1 $115 $167 #
vertex $-1 $69 $192 #
vertex $-1 $69 $193 #
straight-curve $-1 54.352244636371964 0 9.6458343061270391 0 1 0 I I #
face $-1 $194 $195 $16 $-1 $196 forward single #
loop $-1 $-1 $130 $70 #
plane-surface $-1 0 -31.385862656411891 0 0 1 0 0 0 1 forward_v I I I I #
coedge $-1 $76 $197 $73 $127 forward $71 $-1 #
coedge $-1 $126 $73 $198 $199 reversed $45 $-1 #
coedge $-1 $73 $125 $74 $129 forward $45 $-1 #
edge $-1 $200 68.967221926129 $133 74.533312677223662 $124 $201 forward 7 unknown #
coedge $-1 $75 $74 $202 $203 reversed $29 $-1 #
edge $-1 $204 100.04518937523011 $133 108.70448927274393 $126 $205 forward 7 unknown #
coedge $-1 $206 $207 $75 $131 forward $122 $-1 #
edge $-1 $134 -73.85915762352829 $208 -65.199857726014457 $130 $209 forward 7 unknown #
coedge $-1 $210 $76 $207 $211 forward $71 $-1 #
vertex $-1 $77 $212 #
vertex $-1 $211 $213 #
straight-curve $-1 54.352244636371964 -12.763778909722705 4.0797435550323726 0 -1 0 I I #
face $-1 $214 $215 $17 $-1 $216 reversed single #
loop $-1 $-1 $217 $78 #
plane-surface $-1 40.953675088179622 -19.669252982478927 157.22611246451208 0 -1 0 -0.64278761758704617 0 -0.76604443648966558 forward_v I I I I #
loop $-1 $-1 $218 $48 #
coedge $-1 $140 $140 $-1 $219 forward $81 $-1 #
edge $-1 $220 0 $220 6.2831853071796004 $82 $221 forward 7 unknown #
vertex $-1 $85 $222 #
ellipse-curve $-1 51.035540381178954 -25.527557819445409 6.8627889305797005 -0.64278761758704617 0 -0.76604443648966558 1.1490666547344983 0 -0.96418142638056925 1 I I #
face $-1 $223 $224 $18 $-1 $225 reversed single #
loop $-1 $226 $227 $86 #
cone-surface $-1 49.165837023442982 -25.527557819445409 4.6345632835824944 -0.64278761758704617 0 -0.76604443648966558 1.1490666547344983 0 -0.96418142638056925 1 I I 0 1 1.5 forward I I I I #
coedge $-1 $228 $229 $91 $153 forward $87 $-1 #
coedge $-1 $230 $89 $231 $232 reversed $54 $-1 #
coedge $-1 $89 $230 $90 $152 reversed $54 $-1 #
coedge $-1 $92 $233 $89 $151 forward $155 $-1 #
edge $-1 $234 -18.622083746689185 $156 -6.9054740727562223 $150 $235 forward 7 unknown #
edge $-1 $156 -1.8307977367429951e-014 $236 8.6592998975138364 $90 $237 forward 7 unknown #
edge $-1 $157 7.7608275221358554 $236 14.394236032521874 $147 $238 forward 7 unknown #
coedge $-1 $239 $92 $229 $240 reversed $155 $-1 #
loop $-1 $-1 $92 $241 #
vertex $-1 $151 $242 #
vertex $-1 $153 $243 #
straight-curve $-1 -54.352244636371964 -19.669252982478927 43.676106391934191 0 0 1 I I #
face $-1 $244 $245 $19 $-1 $246 forward single #
loop $-1 $247 $100 $94 #
plane-surface $-1 -54.35224463637195 -25.527557819445409 4.0797435550323655 -0.64278761758704617 0 0.76604443648966558 0.76604443648966558 0 0.64278761758704617 forward_v I I I I #
coedge $-1 $248 $249 $250 $251 reversed $95 $-1 #
coedge $-1 $163 $163 $-1 $252 forward $97 $-1 #
edge $-1 $253 0 $253 6.2831853071796004 $98 $254 forward 7 unknown #
vertex $-1 $101 $255 #
ellipse-curve $-1 -51.035540381178947 -25.527557819445409 6.8627889305796987 0.64278761758704617 0 -0.76604443648966558 1.1490666547344983 0 0.96418142638056925 1 I I #
face $-1 $-1 $117 $15 $-1 $256 reversed single #
loop $-1 $-1 $183 $102 #
plane-surface $-1 0 31.385862656411891 0 0 -1 0 0 0 -1 forward_v I I I I #
coedge $-1 $257 $181 $184 $258 forward $103 $-1 #
coedge $-1 $187 $105 $106 $175 reversed $63 $-1 #
coedge $-1 $181 $257 $105 $173 reversed $103 $-1 #
edge $-1 $188 -9.6458343061270391 $259 9.6458343061270391 $172 $260 forward 7 unknown #
coedge $-1 $107 $106 $257 $261 forward $41 $-1 #
edge $-1 $179 -54.352244636371964 $259 54.352244636371964 $171 $262 forward 7 unknown #
coedge $-1 $184 $183 $107 $177 reversed $168 $-1 #
edge $-1 $263 -54.352244636371964 $178 54.352244636371964 $176 $264 forward 7 unknown #
vertex $-1 $109 $265 #
vertex $-1 $190 $266 #
straight-curve $-1 54.352244636371964 0 -9.6458343061270391 0 -1 0 I I #
coedge $-1 $170 $172 $110 $182 reversed $103 $-1 #
edge $-1 $185 -31.385862656411891 $188 31.385862656411891 $181 $267 forward 7 unknown #
coedge $-1 $176 $111 $116 $191 forward $168 $-1 #
coedge $-1 $111 $176 $170 $258 reversed $168 $-1 #
vertex $-1 $112 $268 #
straight-curve $-1 0 31.385862656411891 9.6458343061270391 -1 0 0 I I #
coedge $-1 $113 $171 $115 $190 reversed $63 $-1 #
vertex $-1 $182 $269 #
straight-curve $-1 0 -31.385862656411891 9.6458343061270391 1 0 0 I I #
edge $-1 $118 -9.6458343061270391 $179 9.6458343061270391 $115 $270 forward 7 unknown #
edge $-1 $119 -9.6458343061270391 $178 9.6458343061270391 $116 $271 forward 7 unknown #
point $-1 54.352244636371964 -31.385862656411891 9.6458343061270391 #
point $-1 54.352244636371964 31.385862656411891 9.6458343061270391 #
face $-1 $272 $273 $16 $-1 $274 reversed single #
loop $-1 $-1 $198 $121 #
plane-surface $-1 0 0 9.6458343061270391 0 0 1 1 0 0 forward_v I I I I #
coedge $-1 $124 $275 $276 $277 reversed $71 $-1 #
coedge $-1 $276 $202 $125 $199 forward $195 $-1 #
edge $-1 $204 27.241998581896148 $200 33.875407092282153 $198 $278 forward 7 unknown #
vertex $-1 $277 $279 #
straight-curve $-1 54.352244636371964 -19.669252982478927 78.613056232256042 0 0 -1 I I #
coedge $-1 $198 $280 $128 $203 forward $195 $-1 #
edge $-1 $208 -18.622083746689185 $204 -6.9054740727562223 $202 $281 forward 7 unknown #
vertex $-1 $203 $282 #
straight-curve $-1 -28.920224592464066 -19.669252982478927 73.953643235676068 0.76604443648966558 0 -0.64278761758704617 I I #
coedge $-1 $283 $130 $280 $284 reversed $122 $-1 #
coedge $-1 $130 $285 $132 $211 reversed $122 $-1 #
vertex $-1 $203 $286 #
straight-curve $-1 -2.2271521449451566 -31.385862656411891 51.555495520846243 -0.76604443648966558 0 0.64278761758704617 I I #
coedge $-1 $275 $132 $287 $288 reversed $71 $-1 #
edge $-1 $134 -4.0797435550323691 $289 9.6458343061270391 $132 $290 forward 7 unknown #
point $-1 54.352244636371964 -19.669252982478927 4.0797435550323797 #
point $-1 54.352244636371964 -31.385862656411891 4.0797435550323691 #
face $-1 $291 $292 $17 $-1 $293 reversed single #
loop $-1 $-1 $294 $136 #
plane-surface $-1 54.352244636371964 0 0 -1 0 0 0 0 1 forward_v I I I I #
coedge $-1 $295 $296 $294 $297 reversed $137 $-1 #
coedge $-1 $298 $299 $300 $301 reversed $139 $-1 #
edge $-1 $302 1 $302 0 $140 $-1 forward 7 unknown #
vertex $-1 $141 $303 #
ellipse-curve $-1 47.296133665707011 -25.527557819445409 2.4063376365852887 0.64278761758704617 0 0.76604443648966558 1.1490666547344983 0 -0.96418142638056925 1 I I #
point $-1 52.184607035913452 -25.527557819445409 5.8986075041991288 #
face $-1 $304 $305 $18 $-1 $306 forward single #
loop $-1 $307 $308 $144 #
cone-surface $-1 46.814042952516729 -25.527557819445409 1.8318043092180396 -0.64278761758704617 0 -0.76604443648966558 0.57453332736724916 0 -0.48209071319028463 1 I I -0.70710678118654757 0.70710678118654757 0.75 forward I I I I #
loop $-1 $-1 $309 $86 #
coedge $-1 $227 $227 $310 $311 reversed $145 $-1 #
coedge $-1 $312 $147 $230 $313 forward $87 $-1 #
coedge $-1 $147 $314 $154 $240 forward $87 $-1 #
coedge $-1 $149 $148 $228 $313 reversed $54 $-1 #
coedge $-1 $315 $316 $148 $232 forward $317 $-1 #
edge $-1 $318 10.847613089642483 $234 19.50691298715634 $231 $319 forward 7 unknown #
coedge $-1 $150 $320 $315 $321 reversed $155 $-1 #
vertex $-1 $321 $322 #
straight-curve $-1 -54.352244636371964 -12.763778909722705 4.0797435550323513 0 1 0 I I #
vertex $-1 $313 $323 #
straight-curve $-1 -54.35224463637195 -19.669252982478927 4.0797435550323655 0.76604443648966558 0 0.64278761758704617 I I #
straight-curve $-1 -62.113072158507819 -19.669252982478927 9.6458343061270426 1 0 0 I I #
coedge $-1 $320 $154 $324 $325 forward $155 $-1 #
edge $-1 $326 -31.385862656411891 $157 19.669252982478927 $154 $327 forward 7 unknown #
face $-1 $328 $155 $18 $-1 $329 reversed single #
point $-1 -54.352244636371964 -19.669252982478927 4.079743555032354 #
point $-1 -54.352244636371964 -19.669252982478927 9.6458343061270391 #
face $-1 $330 $331 $19 $-1 $332 reversed single #
loop $-1 $-1 $333 $159 #
plane-surface $-1 0 0 9.6458343061270391 0 0 1 1 0 0 forward_v I I I I #
loop $-1 $-1 $334 $94 #
coedge $-1 $249 $162 $335 $336 forward $95 $-1 #
coedge $-1 $162 $248 $333 $337 reversed $95 $-1 #
coedge $-1 $338 $339 $162 $251 forward $340 $-1 #
edge $-1 $341 -39.596362836901839 $342 -34.030272085807155 $250 $343 forward 7 unknown #
edge $-1 $344 1 $344 0 $163 $-1 forward 7 unknown #
vertex $-1 $164 $345 #
ellipse-curve $-1 -47.296133665707011 -25.527557819445409 2.4063376365852922 -0.64278761758704617 0 0.76604443648966558 1.1490666547344983 0 0.96418142638056925 1 I I #
point $-1 -49.886473726444457 -25.527557819445409 7.8269703569602704 #
plane-surface $-1 54.352244636371964 0 0 -1 0 0 0 0 1 forward_v I I I I #
coedge $-1 $172 $170 $174 $261 reversed $103 $-1 #
edge $-1 $185 -9.6458343061270391 $263 9.6458343061270391 $184 $346 forward 7 unknown #
vertex $-1 $261 $347 #
straight-curve $-1 -54.352244636371964 -31.385862656411891 0 0 0 -1 I I #
edge $-1 $259 -31.385862656411891 $263 31.385862656411891 $257 $348 forward 7 unknown #
straight-curve $-1 0 -31.385862656411891 -9.6458343061270391 -1 0 0 I I #
vertex $-1 $177 $349 #
straight-curve $-1 0 31.385862656411891 -9.6458343061270391 1 0 0 I I #
point $-1 54.352244636371964 31.385862656411891 -9.6458343061270391 #
point $-1 54.352244636371964 -31.385862656411891 -9.6458343061270391 #
straight-curve $-1 -54.352244636371964 0 9.6458343061270391 0 -1 0 I I #
point $-1 -54.352244636371964 31.385862656411891 9.6458343061270391 #
point $-1 -54.352244636371964 -31.385862656411891 9.6458343061270391 #
straight-curve $-1 54.352244636371964 -31.385862656411891 0 0 0 -1 I I #
straight-curve $-1 54.352244636371964 31.385862656411891 0 0 0 -1 I I #
face $-1 $350 $351 $16 $-1 $352 reversed single #
loop $-1 $-1 $287 $194 #
plane-surface $-1 0 0 -9.6458343061270391 0 0 1 1 0 0 forward_v I I I I #
coedge $-1 $197 $210 $353 $354 reversed $71 $-1 #
coedge $-1 $355 $198 $197 $277 forward $195 $-1 #
edge $-1 $200 -19.669252982478927 $356 31.385862656411891 $197 $357 forward 7 unknown #
straight-curve $-1 20.476837544089811 -19.669252982478927 9.6458343061270426 1 0 0 I I #
point $-1 54.352244636371964 -19.669252982478927 9.6458343061270391 #
coedge $-1 $202 $358 $206 $284 forward $195 $-1 #
straight-curve $-1 47.718836125985959 -12.763778909722705 9.6458343061270355 0 1 0 I I #
point $-1 47.718836125985959 -19.669252982478927 9.6458343061270426 #
coedge $-1 $285 $206 $359 $360 forward $122 $-1 #
edge $-1 $361 -54.352244636371964 $208 47.718836125985959 $206 $362 forward 7 unknown #
coedge $-1 $207 $283 $363 $364 reversed $122 $-1 #
point $-1 47.718836125985959 -31.385862656411891 9.6458343061270426 #
coedge $-1 $363 $365 $210 $288 forward $273 $-1 #
edge $-1 $366 -31.385862656411891 $289 31.385862656411891 $210 $367 forward 7 unknown #
vertex $-1 $211 $368 #
straight-curve $-1 54.352244636371964 -31.385862656411891 0 0 0 -1 I I #
face $-1 $369 $370 $17 $-1 $371 forward single #
loop $-1 $-1 $372 $214 #
plane-surface $-1 0 -31.385862656411891 0 0 1 0 0 0 1 forward_v I I I I #
coedge $-1 $300 $373 $217 $297 forward $215 $-1 #
coedge $-1 $296 $217 $374 $375 reversed $137 $-1 #
coedge $-1 $217 $295 $298 $376 forward $137 $-1 #
edge $-1 $377 68.967221926129 $378 74.533312677223662 $294 $379 forward 7 unknown #
coedge $-1 $380 $218 $296 $376 reversed $139 $-1 #
coedge $-1 $218 $380 $372 $381 reversed $139 $-1 #
coedge $-1 $382 $294 $218 $301 forward $215 $-1 #
edge $-1 $378 6.9054740727562223 $383 18.622083746689185 $300 $384 forward 7 unknown #
vertex $-1 $219 $385 #
point $-1 48.445200320441515 -25.527557819445409 1.4421562102047196 #
face $-1 $386 $387 $18 $-1 $388 forward single #
loop $-1 $389 $310 $223 #
plane-surface $-1 -28.920224592464066 -25.527557819445409 73.953643235676068 0.64278761758704617 0 0.76604443648966558 0.76604443648966558 0 -0.64278761758704617 forward_v I I I I #
loop $-1 $-1 $390 $144 #
coedge $-1 $308 $308 $309 $391 forward $224 $-1 #
coedge $-1 $309 $309 $308 $391 reversed $226 $-1 #
coedge $-1 $310 $310 $227 $311 forward $305 $-1 #
edge $-1 $392 0 $392 6.2831853071796004 $310 $393 forward 7 unknown #
coedge $-1 $394 $228 $316 $395 forward $87 $-1 #
edge $-1 $236 6.9054740727562223 $318 18.622083746689185 $228 $396 forward 7 unknown #
coedge $-1 $229 $397 $398 $399 forward $87 $-1 #
coedge $-1 $400 $231 $233 $321 forward $317 $-1 #
coedge $-1 $231 $401 $312 $395 reversed $317 $-1 #
loop $-1 $-1 $231 $402 #
vertex $-1 $395 $403 #
straight-curve $-1 -39.40908246947285 -31.385862656411891 16.618545680524388 -0.76604443648966558 0 -0.64278761758704617 I I #
coedge $-1 $233 $239 $404 $405 reversed $155 $-1 #
edge $-1 $234 -4.0797435550323531 $406 9.6458343061270391 $233 $407 forward 7 unknown #
point $-1 -54.352244636371964 -31.385862656411891 4.0797435550323531 #
point $-1 -47.718836125985945 -19.669252982478927 9.6458343061270391 #
coedge $-1 $398 $408 $239 $325 reversed $409 $-1 #
edge $-1 $326 -9.6458343061270391 $410 9.6458343061270391 $324 $411 forward 7 unknown #
vertex $-1 $399 $412 #
straight-curve $-1 -54.352244636371964 0 9.6458343061270391 0 -1 0 I I #
face $-1 $-1 $409 $18 $-1 $413 reversed single #
plane-surface $-1 -54.352244636371964 0 0 1 0 0 0 0 -1 forward_v I I I I #
face $-1 $414 $415 $19 $-1 $416 reversed single #
loop $-1 $417 $418 $244 #
cone-surface $-1 49.165837023442982 -25.527557819445409 4.6345632835824944 -0.64278761758704617 0 -0.76604443648966558 1.1490666547344983 0 -0.96418142638056925 1 I I 0 1 1.5 forward I I I I #
coedge $-1 $419 $420 $249 $337 forward $245 $-1 #
coedge $-1 $421 $335 $339 $422 reversed $247 $-1 #
coedge $-1 $334 $423 $248 $336 reversed $247 $-1 #
edge $-1 $341 -1.8307977367429951e-014 $424 8.6592998975138364 $248 $425 forward 7 unknown #
edge $-1 $342 7.7608275221358554 $424 14.394236032521874 $333 $426 forward 7 unknown #
coedge $-1 $427 $250 $420 $428 reversed $340 $-1 #
coedge $-1 $250 $429 $334 $422 forward $340 $-1 #
loop $-1 $-1 $250 $430 #
vertex $-1 $422 $431 #
vertex $-1 $337 $432 #
straight-curve $-1 -54.352244636371964 -19.669252982478927 43.676106391934191 0 0 1 I I #
vertex $-1 $252 $433 #
point $-1 -46.147067010972513 -25.527557819445409 3.3705190629658617 #
straight-curve $-1 -54.352244636371964 31.385862656411891 0 0 0 -1 I I #
point $-1 -54.352244636371964 -31.385862656411891 -9.6458343061270391 #
straight-curve $-1 -54.352244636371964 0 -9.6458343061270391 0 1 0 I I #
point $-1 -54.352244636371964 31.385862656411891 -9.6458343061270391 #
face $-1 $-1 $434 $16 $-1 $435 reversed single #
loop $-1 $-1 $436 $272 #
plane-surface $-1 -54.352244636371964 0 0 1 0 0 0 0 -1 forward_v I I I I #
coedge $-1 $437 $438 $275 $354 forward $434 $-1 #
edge $-1 $356 -9.6458343061270391 $366 9.6458343061270391 $275 $439 forward 7 unknown #
coedge $-1 $358 $276 $438 $440 forward $195 $-1 #
vertex $-1 $277 $441 #
straight-curve $-1 54.352244636371964 0 9.6458343061270391 0 1 0 I I #
coedge $-1 $280 $355 $442 $443 forward $195 $-1 #
coedge $-1 $442 $444 $283 $360 reversed $351 $-1 #
edge $-1 $361 -9.6458343061270391 $445 9.6458343061270391 $359 $446 forward 7 unknown #
vertex $-1 $443 $447 #
straight-curve $-1 0 -31.385862656411891 9.6458343061270391 1 0 0 I I #
coedge $-1 $448 $287 $285 $364 forward $273 $-1 #
edge $-1 $289 -54.352244636371964 $445 54.352244636371964 $285 $449 forward 7 unknown #
coedge $-1 $287 $448 $437 $450 forward $273 $-1 #
vertex $-1 $288 $451 #
straight-curve $-1 54.352244636371964 0 -9.6458343061270391 0 -1 0 I I #
point $-1 54.352244636371964 -31.385862656411891 -9.6458343061270391 #
face $-1 $452 $453 $17 $-1 $454 reversed single #
loop $-1 $-1 $374 $291 #
plane-surface $-1 0 0 9.6458343061270391 0 0 1 1 0 0 forward_v I I I I #
coedge $-1 $455 $456 $299 $381 forward $292 $-1 #
coedge $-1 $294 $457 $458 $459 reversed $215 $-1 #
coedge $-1 $458 $460 $295 $375 forward $370 $-1 #
edge $-1 $461 27.241998581896148 $377 33.875407092282153 $374 $462 forward 7 unknown #
edge $-1 $461 100.04518937523011 $378 108.70448927274393 $296 $463 forward 7 unknown #
vertex $-1 $459 $464 #
vertex $-1 $301 $465 #
straight-curve $-1 54.352244636371964 -19.669252982478927 78.613056232256042 0 0 -1 I I #
coedge $-1 $299 $298 $460 $466 reversed $139 $-1 #
edge $-1 $383 -73.85915762352829 $467 -65.199857726014457 $372 $468 forward 7 unknown #
coedge $-1 $469 $300 $456 $470 forward $215 $-1 #
vertex $-1 $470 $471 #
straight-curve $-1 54.352244636371964 -12.763778909722705 4.0797435550323726 0 -1 0 I I #
point $-1 46.331952239326448 -25.527557819445409 1.2572709818507906 #
face $-1 $402 $472 $18 $-1 $473 reversed single #
loop $-1 $-1 $474 $304 #
plane-surface $-1 40.953675088179622 -19.669252982478927 157.22611246451208 0 -1 0 -0.64278761758704617 0 -0.76604443648966558 forward_v I I I I #
loop $-1 $-1 $475 $223 #
coedge $-1 $390 $390 $-1 $476 forward $307 $-1 #
edge $-1 $477 0 $477 6.2831853071796004 $308 $478 forward 7 unknown #
vertex $-1 $311 $479 #
ellipse-curve $-1 51.035540381178954 -25.527557819445409 6.8627889305797005 -0.64278761758704617 0 -0.76604443648966558 1.1490666547344983 0 -0.96418142638056925 1 I I #
coedge $-1 $480 $312 $481 $482 forward $87 $-1 #
edge $-1 $318 -47.718836125985945 $483 47.718836125985959 $316 $484 forward 7 unknown #
straight-curve $-1 -47.718836125985945 -12.763778909722705 9.6458343061270391 0 -1 0 I I #
coedge $-1 $314 $480 $485 $486 forward $87 $-1 #
coedge $-1 $487 $324 $314 $399 reversed $409 $-1 #
edge $-1 $488 -54.352244636371964 $326 54.352244636371964 $398 $489 forward 7 unknown #
coedge $-1 $490 $315 $491 $492 reversed $317 $-1 #
coedge $-1 $316 $490 $493 $494 forward $317 $-1 #
face $-1 $495 $317 $18 $-1 $496 reversed single #
point $-1 -47.718836125985945 -31.385862656411891 9.6458343061270391 #
coedge $-1 $497 $491 $320 $405 forward $498 $-1 #
edge $-1 $406 -31.385862656411891 $410 31.385862656411891 $320 $499 forward 7 unknown #
vertex $-1 $405 $500 #
straight-curve $-1 -54.352244636371964 -31.385862656411891 0 0 0 -1 I I #
coedge $-1 $324 $487 $497 $501 reversed $409 $-1 #
loop $-1 $-1 $487 $328 #
vertex $-1 $501 $502 #
straight-curve $-1 -54.352244636371964 31.385862656411891 0 0 0 -1 I I #
point $-1 -54.352244636371964 31.385862656411891 9.6458343061270391 #
plane-surface $-1 0 31.385862656411891 0 0 -1 0 0 0 -1 forward_v I I I I #
face $-1 $503 $504 $19 $-1 $505 forward single #
loop $-1 $506 $507 $330 #
cone-surface $-1 46.814042952516729 -25.527557819445409 1.8318043092180396 -0.64278761758704617 0 -0.76604443648966558 0.57453332736724916 0 -0.48209071319028463 1 I I -0.70710678118654757 0.70710678118654757 0.75 forward I I I I #
loop $-1 $-1 $508 $244 #
coedge $-1 $418 $418 $509 $510 reversed $331 $-1 #
coedge $-1 $511 $333 $423 $512 forward $245 $-1 #
coedge $-1 $333 $513 $338 $428 forward $245 $-1 #
coedge $-1 $423 $334 $514 $515 reversed $247 $-1 #
edge $-1 $516 -18.622083746689185 $341 -6.9054740727562223 $339 $517 forward 7 unknown #
coedge $-1 $335 $421 $419 $512 reversed $247 $-1 #
vertex $-1 $512 $518 #
straight-curve $-1 -54.35224463637195 -19.669252982478927 4.0797435550323655 0.76604443648966558 0 0.64278761758704617 I I #
straight-curve $-1 -62.113072158507819 -19.669252982478927 9.6458343061270426 1 0 0 I I #
coedge $-1 $519 $338 $520 $521 forward $340 $-1 #
edge $-1 $522 -31.385862656411891 $342 19.669252982478927 $338 $523 forward 7 unknown #
coedge $-1 $339 $519 $524 $525 reversed $340 $-1 #
face $-1 $526 $340 $19 $-1 $527 reversed single #
point $-1 -54.352244636371964 -19.669252982478927 4.079743555032354 #
point $-1 -54.352244636371964 -19.669252982478927 9.6458343061270391 #
point $-1 -46.331952239326448 -25.527557819445409 1.2572709818507941 #
loop $-1 $-1 $353 $350 #
plane-surface $-1 0 31.385862656411891 0 0 -1 0 0 0 -1 forward_v I I I I #
coedge $-1 $444 $442 $528 $529 forward $351 $-1 #
coedge $-1 $528 $353 $365 $450 reversed $434 $-1 #
coedge $-1 $353 $528 $355 $440 reversed $434 $-1 #
straight-curve $-1 54.352244636371964 31.385862656411891 0 0 0 -1 I I #
edge $-1 $356 -54.352244636371964 $530 54.352244636371964 $438 $531 forward 7 unknown #
point $-1 54.352244636371964 31.385862656411891 9.6458343061270391 #
coedge $-1 $436 $359 $358 $443 reversed $351 $-1 #
edge $-1 $530 -31.385862656411891 $361 31.385862656411891 $442 $532 forward 7 unknown #
coedge $-1 $359 $436 $448 $533 reversed $351 $-1 #
vertex $-1 $533 $534 #
straight-curve $-1 -54.352244636371964 -31.385862656411891 0 0 0 -1 I I #
point $-1 -54.352244636371964 -31.385862656411891 9.6458343061270391 #
coedge $-1 $365 $363 $444 $533 forward $273 $-1 #
straight-curve $-1 0 -31.385862656411891 -9.6458343061270391 -1 0 0 I I #
edge $-1 $535 -54.352244636371964 $366 54.352244636371964 $437 $536 forward 7 unknown #
point $-1 54.352244636371964 31.385862656411891 -9.6458343061270391 #
face $-1 $537 $538 $17 $-1 $539 reversed single #
loop $-1 $-1 $540 $369 #
plane-surface $-1 0 0 -9.6458343061270391 0 0 1 1 0 0 forward_v I I I I #
coedge $-1 $541 $372 $542 $543 reversed $292 $-1 #
coedge $-1 $372 $544 $382 $470 reversed $292 $-1 #
coedge $-1 $373 $469 $545 $546 reversed $215 $-1 #
coedge $-1 $547 $374 $373 $459 forward $370 $-1 #
edge $-1 $377 -19.669252982478927 $548 31.385862656411891 $373 $549 forward 7 unknown #
coedge $-1 $374 $542 $380 $466 forward $370 $-1 #
vertex $-1 $466 $550 #
straight-curve $-1 20.476837544089811 -19.669252982478927 9.6458343061270426 1 0 0 I I #
straight-curve $-1 -28.920224592464066 -19.669252982478927 73.953643235676068 0.76604443648966558 0 -0.64278761758704617 I I #
point $-1 54.352244636371964 -19.669252982478927 9.6458343061270391 #
point $-1 54.352244636371964 -19.669252982478927 4.0797435550323797 #
edge $-1 $467 -18.622083746689185 $461 -6.9054740727562223 $460 $551 forward 7 unknown #
vertex $-1 $466 $552 #
straight-curve $-1 -2.2271521449451566 -31.385862656411891 51.555495520846243 -0.76604443648966558 0 0.64278761758704617 I I #
coedge $-1 $457 $382 $540 $553 reversed $215 $-1 #
edge $-1 $383 -4.0797435550323691 $554 9.6458343061270391 $382 $555 forward 7 unknown #
point $-1 54.352244636371964 -31.385862656411891 4.0797435550323691 #
loop $-1 $-1 $556 $386 #
plane-surface $-1 54.352244636371964 0 0 -1 0 0 0 0 1 forward_v I I I I #
coedge $-1 $557 $558 $556 $559 reversed $387 $-1 #
coedge $-1 $560 $493 $561 $562 reversed $389 $-1 #
edge $-1 $563 1 $563 0 $390 $-1 forward 7 unknown #
vertex $-1 $391 $564 #
ellipse-curve $-1 47.296133665707011 -25.527557819445409 2.4063376365852887 0.64278761758704617 0 0.76604443648966558 1.1490666547344983 0 -0.96418142638056925 1 I I #
point $-1 52.184607035913452 -25.527557819445409 5.8986075041991288 #
coedge $-1 $397 $394 $557 $565 forward $87 $-1 #
coedge $-1 $493 $560 $394 $482 reversed $389 $-1 #
edge $-1 $483 -18.622083746689185 $566 -6.9054740727562223 $394 $567 forward 7 unknown #
vertex $-1 $482 $568 #
straight-curve $-1 0 -31.385862656411891 9.6458343061270391 1 0 0 I I #
coedge $-1 $556 $569 $397 $486 reversed $472 $-1 #
edge $-1 $570 -19.669252982478927 $488 31.385862656411891 $485 $571 forward 7 unknown #
coedge $-1 $408 $398 $569 $572 forward $409 $-1 #
vertex $-1 $486 $573 #
straight-curve $-1 0 31.385862656411891 9.6458343061270391 -1 0 0 I I #
coedge $-1 $401 $400 $574 $575 reversed $317 $-1 #
coedge $-1 $404 $576 $400 $492 forward $498 $-1 #
edge $-1 $577 -54.352244636371964 $406 54.352244636371964 $400 $578 forward 7 unknown #
coedge $-1 $475 $481 $401 $494 reversed $389 $-1 #
edge $-1 $579 -73.85915762352829 $483 -65.199857726014457 $401 $580 forward 7 unknown #
face $-1 $241 $498 $18 $-1 $581 reversed single #
plane-surface $-1 0 -31.385862656411891 0 0 1 0 0 0 1 forward_v I I I I #
coedge $-1 $576 $404 $408 $501 forward $498 $-1 #
loop $-1 $-1 $576 $495 #
straight-curve $-1 -54.352244636371964 0 -9.6458343061270391 0 1 0 I I #
point $-1 -54.352244636371964 -31.385862656411891 -9.6458343061270391 #
edge $-1 $410 -54.352244636371964 $582 54.352244636371964 $408 $583 forward 7 unknown #
point $-1 -54.352244636371964 31.385862656411891 -9.6458343061270391 #
face $-1 $584 $585 $19 $-1 $586 forward single #
loop $-1 $587 $509 $414 #
plane-surface $-1 -28.920224592464066 -25.527557819445409 73.953643235676068 0.64278761758704617 0 0.76604443648966558 0.76604443648966558 0 -0.64278761758704617 forward_v I I I I #
loop $-1 $-1 $588 $330 #
coedge $-1 $507 $507 $508 $589 forward $415 $-1 #
coedge $-1 $508 $508 $507 $589 reversed $417 $-1 #
coedge $-1 $509 $509 $418 $510 forward $504 $-1 #
edge $-1 $590 0 $590 6.2831853071796004 $509 $591 forward 7 unknown #
coedge $-1 $592 $419 $593 $594 forward $245 $-1 #
edge $-1 $424 6.9054740727562223 $595 18.622083746689185 $419 $596 forward 7 unknown #
coedge $-1 $420 $597 $598 $599 forward $245 $-1 #
coedge $-1 $524 $593 $421 $515 forward $600 $-1 #
edge $-1 $595 10.847613089642483 $516 19.50691298715634 $514 $601 forward 7 unknown #
vertex $-1 $525 $602 #
straight-curve $-1 -54.352244636371964 -12.763778909722705 4.0797435550323513 0 1 0 I I #
point $-1 -47.718836125985945 -19.669252982478927 9.6458343061270391 #
coedge $-1 $429 $427 $603 $604 reversed $340 $-1 #
coedge $-1 $598 $605 $427 $521 reversed $606 $-1 #
edge $-1 $522 -9.6458343061270391 $607 9.6458343061270391 $520 $608 forward 7 unknown #
vertex $-1 $599 $609 #
straight-curve $-1 -54.352244636371964 0 9.6458343061270391 0 -1 0 I I #
coedge $-1 $610 $514 $429 $525 forward $600 $-1 #
edge $-1 $516 -4.0797435550323531 $611 9.6458343061270391 $429 $612 forward 7 unknown #
face $-1 $-1 $606 $19 $-1 $613 reversed single #
plane-surface $-1 -54.352244636371964 0 0 1 0 0 0 0 -1 forward_v I I I I #
coedge $-1 $438 $437 $436 $529 reversed $434 $-1 #
edge $-1 $530 -9.6458343061270391 $535 9.6458343061270391 $528 $614 forward 7 unknown #
vertex $-1 $440 $615 #
straight-curve $-1 0 31.385862656411891 9.6458343061270391 -1 0 0 I I #
straight-curve $-1 -54.352244636371964 0 9.6458343061270391 0 -1 0 I I #
edge $-1 $445 -31.385862656411891 $535 31.385862656411891 $444 $616 forward 7 unknown #
point $-1 -54.352244636371964 -31.385862656411891 -9.6458343061270391 #
vertex $-1 $450 $617 #
straight-curve $-1 0 31.385862656411891 -9.6458343061270391 1 0 0 I I #
face $-1 $-1 $618 $17 $-1 $619 reversed single #
loop $-1 $-1 $620 $452 #
plane-surface $-1 -54.352244636371964 0 0 1 0 0 0 0 -1 forward_v I I I I #
coedge $-1 $621 $622 $469 $553 forward $453 $-1 #
coedge $-1 $544 $455 $623 $624 forward $292 $-1 #
coedge $-1 $460 $625 $455 $543 forward $370 $-1 #
edge $-1 $626 -54.352244636371964 $467 47.718836125985959 $455 $627 forward 7 unknown #
coedge $-1 $456 $541 $621 $628 reversed $292 $-1 #
coedge $-1 $629 $630 $457 $546 forward $618 $-1 #
edge $-1 $548 -9.6458343061270391 $631 9.6458343061270391 $457 $632 forward 7 unknown #
coedge $-1 $625 $458 $630 $633 forward $370 $-1 #
vertex $-1 $459 $634 #
straight-curve $-1 54.352244636371964 0 9.6458343061270391 0 1 0 I I #
point $-1 47.718836125985959 -19.669252982478927 9.6458343061270426 #
straight-curve $-1 47.718836125985959 -12.763778909722705 9.6458343061270355 0 1 0 I I #
point $-1 47.718836125985959 -31.385862656411891 9.6458343061270426 #
edge $-1 $631 -31.385862656411891 $554 31.385862656411891 $469 $635 forward 7 unknown #
vertex $-1 $470 $636 #
straight-curve $-1 54.352244636371964 -31.385862656411891 0 0 0 -1 I I #
coedge $-1 $561 $485 $474 $559 forward $472 $-1 #
coedge $-1 $558 $474 $480 $565 reversed $387 $-1 #
coedge $-1 $474 $557 $560 $637 forward $387 $-1 #
edge $-1 $570 68.967221926129 $638 74.533312677223662 $556 $639 forward 7 unknown #
coedge $-1 $481 $475 $558 $637 reversed $389 $-1 #
coedge $-1 $574 $556 $475 $562 forward $472 $-1 #
edge $-1 $638 6.9054740727562223 $579 18.622083746689185 $561 $640 forward 7 unknown #
vertex $-1 $476 $641 #
point $-1 48.445200320441515 -25.527557819445409 1.4421562102047196 #
edge $-1 $566 27.241998581896148 $570 33.875407092282153 $480 $642 forward 7 unknown #
vertex $-1 $482 $643 #
straight-curve $-1 47.718836125985959 -12.763778909722705 9.6458343061270355 0 1 0 I I #
point $-1 47.718836125985959 -31.385862656411891 9.6458343061270426 #
coedge $-1 $485 $644 $487 $572 reversed $472 $-1 #
vertex $-1 $486 $645 #
straight-curve $-1 54.352244636371964 0 9.6458343061270391 0 1 0 I I #
edge $-1 $488 -9.6458343061270391 $582 9.6458343061270391 $569 $646 forward 7 unknown #
point $-1 54.352244636371964 31.385862656411891 9.6458343061270391 #
coedge $-1 $644 $561 $490 $575 forward $472 $-1 #
edge $-1 $579 -4.0797435550323691 $577 9.6458343061270391 $574 $647 forward 7 unknown #
coedge $-1 $491 $497 $644 $648 forward $498 $-1 #
vertex $-1 $575 $649 #
straight-curve $-1 0 -31.385862656411891 -9.6458343061270391 -1 0 0 I I #
vertex $-1 $575 $650 #
straight-curve $-1 -2.2271521449451566 -31.385862656411891 51.555495520846243 -0.76604443648966558 0 0.64278761758704617 I I #
plane-surface $-1 0 0 -9.6458343061270391 0 0 1 1 0 0 forward_v I I I I #
vertex $-1 $648 $651 #
straight-curve $-1 0 31.385862656411891 -9.6458343061270391 1 0 0 I I #
face $-1 $652 $653 $19 $-1 $654 reversed single #
loop $-1 $-1 $655 $503 #
plane-surface $-1 40.953675088179622 -19.669252982478927 157.22611246451208 0 -1 0 -0.64278761758704617 0 -0.76604443648966558 forward_v I I I I #
loop $-1 $-1 $656 $414 #
coedge $-1 $588 $588 $-1 $657 forward $506 $-1 #
edge $-1 $658 0 $658 6.2831853071796004 $507 $659 forward 7 unknown #
vertex $-1 $510 $660 #
ellipse-curve $-1 51.035540381178954 -25.527557819445409 6.8627889305797005 -0.64278761758704617 0 -0.76604443648966558 1.1490666547344983 0 -0.96418142638056925 1 I I #
coedge $-1 $661 $511 $662 $663 forward $245 $-1 #
coedge $-1 $514 $664 $511 $594 reversed $600 $-1 #
edge $-1 $595 -47.718836125985945 $665 47.718836125985959 $593 $666 forward 7 unknown #
vertex $-1 $594 $667 #
straight-curve $-1 -47.718836125985945 -12.763778909722705 9.6458343061270391 0 -1 0 I I #
coedge $-1 $513 $661 $668 $669 forward $245 $-1 #
coedge $-1 $670 $520 $513 $599 reversed $606 $-1 #
edge $-1 $671 -54.352244636371964 $522 54.352244636371964 $598 $672 forward 7 unknown #
loop $-1 $-1 $514 $652 #
straight-curve $-1 -39.40908246947285 -31.385862656411891 16.618545680524388 -0.76604443648966558 0 -0.64278761758704617 I I #
point $-1 -54.352244636371964 -31.385862656411891 4.0797435550323531 #
coedge $-1 $673 $674 $519 $604 forward $675 $-1 #
edge $-1 $611 -31.385862656411891 $607 31.385862656411891 $519 $676 forward 7 unknown #
coedge $-1 $520 $670 $673 $677 reversed $606 $-1 #
loop $-1 $-1 $670 $526 #
vertex $-1 $677 $678 #
straight-curve $-1 -54.352244636371964 31.385862656411891 0 0 0 -1 I I #
point $-1 -54.352244636371964 31.385862656411891 9.6458343061270391 #
coedge $-1 $679 $524 $674 $680 reversed $600 $-1 #
vertex $-1 $604 $681 #
straight-curve $-1 -54.352244636371964 -31.385862656411891 0 0 0 -1 I I #
plane-surface $-1 0 31.385862656411891 0 0 -1 0 0 0 -1 forward_v I I I I #
straight-curve $-1 -54.352244636371964 31.385862656411891 0 0 0 -1 I I #
point $-1 -54.352244636371964 31.385862656411891 9.6458343061270391 #
straight-curve $-1 -54.352244636371964 0 -9.6458343061270391 0 1 0 I I #
point $-1 -54.352244636371964 31.385862656411891 -9.6458343061270391 #
loop $-1 $-1 $545 $537 #
plane-surface $-1 0 31.385862656411891 0 0 -1 0 0 0 -1 forward_v I I I I #
coedge $-1 $682 $683 $684 $685 forward $538 $-1 #
coedge $-1 $686 $540 $544 $628 forward $453 $-1 #
coedge $-1 $540 $686 $629 $687 forward $453 $-1 #
coedge $-1 $683 $682 $541 $624 reversed $538 $-1 #
edge $-1 $626 -9.6458343061270391 $688 9.6458343061270391 $623 $689 forward 7 unknown #
coedge $-1 $542 $547 $683 $690 forward $370 $-1 #
vertex $-1 $690 $691 #
straight-curve $-1 0 -31.385862656411891 9.6458343061270391 1 0 0 I I #
edge $-1 $554 -54.352244636371964 $688 54.352244636371964 $544 $692 forward 7 unknown #
coedge $-1 $684 $545 $622 $687 reversed $618 $-1 #
coedge $-1 $545 $684 $547 $633 reversed $618 $-1 #
vertex $-1 $553 $693 #
straight-curve $-1 54.352244636371964 31.385862656411891 0 0 0 -1 I I #
edge $-1 $548 -54.352244636371964 $694 54.352244636371964 $630 $695 forward 7 unknown #
point $-1 54.352244636371964 31.385862656411891 9.6458343061270391 #
straight-curve $-1 54.352244636371964 0 -9.6458343061270391 0 -1 0 I I #
point $-1 54.352244636371964 -31.385862656411891 -9.6458343061270391 #
edge $-1 $566 100.04518937523011 $638 108.70448927274393 $558 $696 forward 7 unknown #
vertex $-1 $562 $697 #
straight-curve $-1 54.352244636371964 -19.669252982478927 78.613056232256042 0 0 -1 I I #
straight-curve $-1 54.352244636371964 -12.763778909722705 4.0797435550323726 0 -1 0 I I #
point $-1 46.331952239326448 -25.527557819445409 1.2572709818507906 #
straight-curve $-1 20.476837544089811 -19.669252982478927 9.6458343061270426 1 0 0 I I #
point $-1 47.718836125985959 -19.669252982478927 9.6458343061270426 #
coedge $-1 $569 $574 $576 $648 reversed $472 $-1 #
point $-1 54.352244636371964 -19.669252982478927 9.6458343061270391 #
straight-curve $-1 54.352244636371964 31.385862656411891 0 0 0 -1 I I #
straight-curve $-1 54.352244636371964 -31.385862656411891 0 0 0 -1 I I #
edge $-1 $582 -31.385862656411891 $577 31.385862656411891 $644 $698 forward 7 unknown #
point $-1 54.352244636371964 -31.385862656411891 -9.6458343061270391 #
point $-1 54.352244636371964 -31.385862656411891 4.0797435550323691 #
point $-1 54.352244636371964 31.385862656411891 -9.6458343061270391 #
face $-1 $699 $600 $19 $-1 $700 reversed single #
loop $-1 $-1 $701 $584 #
plane-surface $-1 54.352244636371964 0 0 -1 0 0 0 0 1 forward_v I I I I #
coedge $-1 $702 $703 $701 $704 reversed $585 $-1 #
coedge $-1 $705 $706 $707 $708 reversed $587 $-1 #
edge $-1 $709 1 $709 0 $588 $-1 forward 7 unknown #
vertex $-1 $589 $710 #
ellipse-curve $-1 47.296133665707011 -25.527557819445409 2.4063376365852887 0.64278761758704617 0 0.76604443648966558 1.1490666547344983 0 -0.96418142638056925 1 I I #
point $-1 52.184607035913452 -25.527557819445409 5.8986075041991288 #
coedge $-1 $597 $592 $702 $711 forward $245 $-1 #
coedge $-1 $706 $705 $592 $663 reversed $587 $-1 #
edge $-1 $665 -18.622083746689185 $712 -6.9054740727562223 $592 $713 forward 7 unknown #
coedge $-1 $593 $679 $706 $714 forward $600 $-1 #
vertex $-1 $663 $715 #
straight-curve $-1 0 -31.385862656411891 9.6458343061270391 1 0 0 I I #
point $-1 -47.718836125985945 -31.385862656411891 9.6458343061270391 #
coedge $-1 $701 $716 $597 $669 reversed $653 $-1 #
edge $-1 $717 -19.669252982478927 $671 31.385862656411891 $668 $718 forward 7 unknown #
coedge $-1 $605 $598 $716 $719 forward $606 $-1 #
vertex $-1 $669 $720 #
straight-curve $-1 0 31.385862656411891 9.6458343061270391 -1 0 0 I I #
coedge $-1 $721 $603 $605 $677 forward $675 $-1 #
coedge $-1 $603 $721 $610 $680 forward $675 $-1 #
loop $-1 $-1 $721 $699 #
straight-curve $-1 -54.352244636371964 0 -9.6458343061270391 0 1 0 I I #
edge $-1 $607 -54.352244636371964 $722 54.352244636371964 $605 $723 forward 7 unknown #
point $-1 -54.352244636371964 31.385862656411891 -9.6458343061270391 #
coedge $-1 $664 $610 $724 $725 reversed $600 $-1 #
edge $-1 $726 -54.352244636371964 $611 54.352244636371964 $610 $727 forward 7 unknown #
point $-1 -54.352244636371964 -31.385862656411891 -9.6458343061270391 #
coedge $-1 $623 $620 $686 $728 reversed $538 $-1 #
coedge $-1 $620 $623 $625 $690 reversed $538 $-1 #
coedge $-1 $630 $629 $620 $685 reversed $618 $-1 #
edge $-1 $694 -9.6458343061270391 $729 9.6458343061270391 $684 $730 forward 7 unknown #
coedge $-1 $622 $621 $682 $728 forward $453 $-1 #
edge $-1 $729 -54.352244636371964 $631 54.352244636371964 $629 $731 forward 7 unknown #
vertex $-1 $728 $732 #
straight-curve $-1 -54.352244636371964 -31.385862656411891 0 0 0 -1 I I #
edge $-1 $694 -31.385862656411891 $626 31.385862656411891 $683 $733 forward 7 unknown #
point $-1 -54.352244636371964 -31.385862656411891 9.6458343061270391 #
straight-curve $-1 0 -31.385862656411891 -9.6458343061270391 -1 0 0 I I #
point $-1 54.352244636371964 31.385862656411891 -9.6458343061270391 #
vertex $-1 $633 $734 #
straight-curve $-1 0 31.385862656411891 9.6458343061270391 -1 0 0 I I #
straight-curve $-1 -28.920224592464066 -19.669252982478927 73.953643235676068 0.76604443648966558 0 -0.64278761758704617 I I #
point $-1 54.352244636371964 -19.669252982478927 4.0797435550323797 #
straight-curve $-1 54.352244636371964 0 -9.6458343061270391 0 -1 0 I I #
face $-1 $430 $675 $19 $-1 $735 reversed single #
plane-surface $-1 0 -31.385862656411891 0 0 1 0 0 0 1 forward_v I I I I #
coedge $-1 $707 $668 $655 $704 forward $653 $-1 #
coedge $-1 $703 $655 $661 $711 reversed $585 $-1 #
coedge $-1 $655 $702 $705 $736 forward $585 $-1 #
edge $-1 $717 68.967221926129 $737 74.533312677223662 $701 $738 forward 7 unknown #
coedge $-1 $662 $656 $703 $736 reversed $587 $-1 #
coedge $-1 $656 $662 $664 $714 reversed $587 $-1 #
coedge $-1 $724 $701 $656 $708 forward $653 $-1 #
edge $-1 $737 6.9054740727562223 $739 18.622083746689185 $707 $740 forward 7 unknown #
vertex $-1 $657 $741 #
point $-1 48.445200320441515 -25.527557819445409 1.4421562102047196 #
edge $-1 $712 27.241998581896148 $717 33.875407092282153 $661 $742 forward 7 unknown #
vertex $-1 $663 $743 #
straight-curve $-1 47.718836125985959 -12.763778909722705 9.6458343061270355 0 1 0 I I #
edge $-1 $739 -73.85915762352829 $665 -65.199857726014457 $664 $744 forward 7 unknown #
point $-1 47.718836125985959 -31.385862656411891 9.6458343061270426 #
coedge $-1 $668 $745 $670 $719 reversed $653 $-1 #
vertex $-1 $669 $746 #
straight-curve $-1 54.352244636371964 0 9.6458343061270391 0 1 0 I I #
edge $-1 $671 -9.6458343061270391 $722 9.6458343061270391 $716 $747 forward 7 unknown #
point $-1 54.352244636371964 31.385862656411891 9.6458343061270391 #
coedge $-1 $674 $673 $745 $748 forward $675 $-1 #
vertex $-1 $748 $749 #
straight-curve $-1 0 31.385862656411891 -9.6458343061270391 1 0 0 I I #
coedge $-1 $745 $707 $679 $725 forward $653 $-1 #
edge $-1 $739 -4.0797435550323691 $726 9.6458343061270391 $724 $750 forward 7 unknown #
vertex $-1 $725 $751 #
straight-curve $-1 0 -31.385862656411891 -9.6458343061270391 -1 0 0 I I #
edge $-1 $688 -31.385862656411891 $729 31.385862656411891 $682 $752 forward 7 unknown #
vertex $-1 $687 $753 #
straight-curve $-1 -54.352244636371964 31.385862656411891 0 0 0 -1 I I #
straight-curve $-1 0 31.385862656411891 -9.6458343061270391 1 0 0 I I #
point $-1 -54.352244636371964 -31.385862656411891 -9.6458343061270391 #
straight-curve $-1 -54.352244636371964 0 9.6458343061270391 0 -1 0 I I #
point $-1 -54.352244636371964 31.385862656411891 9.6458343061270391 #
plane-surface $-1 0 0 -9.6458343061270391 0 0 1 1 0 0 forward_v I I I I #
edge $-1 $712 100.04518937523011 $737 108.70448927274393 $703 $754 forward 7 unknown #
vertex $-1 $708 $755 #
straight-curve $-1 54.352244636371964 -19.669252982478927 78.613056232256042 0 0 -1 I I #
vertex $-1 $725 $756 #
straight-curve $-1 54.352244636371964 -12.763778909722705 4.0797435550323726 0 -1 0 I I #
point $-1 46.331952239326448 -25.527557819445409 1.2572709818507906 #
straight-curve $-1 20.476837544089811 -19.669252982478927 9.6458343061270426 1 0 0 I I #
point $-1 47.718836125985959 -19.669252982478927 9.6458343061270426 #
straight-curve $-1 -2.2271521449451566 -31.385862656411891 51.555495520846243 -0.76604443648966558 0 0.64278761758704617 I I #
coedge $-1 $716 $724 $721 $748 reversed $653 $-1 #
point $-1 54.352244636371964 -19.669252982478927 9.6458343061270391 #
straight-curve $-1 54.352244636371964 31.385862656411891 0 0 0 -1 I I #
edge $-1 $722 -31.385862656411891 $726 31.385862656411891 $745 $757 forward 7 unknown #
point $-1 54.352244636371964 31.385862656411891 -9.6458343061270391 #
straight-curve $-1 54.352244636371964 -31.385862656411891 0 0 0 -1 I I #
point $-1 54.352244636371964 -31.385862656411891 -9.6458343061270391 #
straight-curve $-1 -54.352244636371964 0 -9.6458343061270391 0 1 0 I I #
point $-1 -54.352244636371964 31.385862656411891 -9.6458343061270391 #
straight-curve $-1 -28.920224592464066 -19.669252982478927 73.953643235676068 0.76604443648966558 0 -0.64278761758704617 I I #
point $-1 54.352244636371964 -19.669252982478927 4.0797435550323797 #
point $-1 54.352244636371964 -31.385862656411891 4.0797435550323691 #
straight-curve $-1 54.352244636371964 0 -9.6458343061270391 0 -1 0 I I #
End-of-ACIS-data 