500 0 11 0           
7 Unknown 11 ACIS 5.0 NT 24 Thu Mar 25 15:25:57 1999 
-1 9.9999999999999995e-007 1e-010 
body $-1 $11 $-1 $12 #
body $-1 $13 $-1 $14 #
body $-1 $15 $-1 $16 #
body $-1 $17 $-1 $18 #
body $-1 $19 $-1 $20 #
body $-1 $21 $-1 $22 #
body $-1 $23 $-1 $24 #
body $-1 $25 $-1 $26 #
body $-1 $27 $-1 $28 #
body $-1 $29 $-1 $30 #
body $-1 $31 $-1 $32 #
lump $-1 $-1 $33 $0 #
transform $-1 1 0 0 0 1 0 0 0 1 63.024384289071321 28.399537305978452 10.419172878927579 1 rotate no_reflect no_shear #
lump $-1 $-1 $34 $1 #
transform $-1 1 0 0 0 1 0 0 0 1 63.024384289071321 28.399537305978452 10.419172878927579 1 rotate no_reflect no_shear #
lump $-1 $-1 $35 $2 #
transform $-1 1 0 0 0 1 0 0 0 1 63.024384289071321 28.399537305978452 10.419172878927579 1 rotate no_reflect no_shear #
lump $-1 $-1 $36 $3 #
transform $-1 1 0 0 0 1 0 0 0 1 63.024384289071321 28.399537305978452 10.419172878927579 1 rotate no_reflect no_shear #
lump $-1 $-1 $37 $4 #
transform $-1 1 0 0 0 1 0 0 0 1 63.024384289071321 28.399537305978452 10.419172878927579 1 rotate no_reflect no_shear #
lump $-1 $-1 $38 $5 #
transform $-1 1 0 0 0 1 0 0 0 1 63.024384289071321 28.399537305978452 10.419172878927579 1 rotate no_reflect no_shear #
lump $-1 $-1 $39 $6 #
transform $-1 1 0 0 0 1 0 0 0 1 63.024384289071321 28.399537305978452 10.419172878927579 1 rotate no_reflect no_shear #
lump $-1 $-1 $40 $7 #
transform $-1 1 0 0 0 1 0 0 0 1 63.024384289071321 28.399537305978452 10.419172878927579 1 rotate no_reflect no_shear #
lump $-1 $-1 $41 $8 #
transform $-1 1 0 0 0 1 0 0 0 1 63.024384289071321 28.399537305978452 10.419172878927579 1 rotate no_reflect no_shear #
lump $-1 $-1 $42 $9 #
transform $-1 1 0 0 0 1 0 0 0 1 63.024384289071321 28.399537305978452 10.419172878927579 1 rotate no_reflect no_shear #
lump $-1 $-1 $43 $10 #
transform $-1 1 0 0 0 1 0 0 0 1 63.024384289071321 28.399537305978452 10.419172878927579 1 rotate no_reflect no_shear #
shell $-1 $-1 $-1 $44 $-1 $11 #
shell $-1 $-1 $-1 $45 $-1 $13 #
shell $-1 $-1 $-1 $46 $-1 $15 #
shell $-1 $-1 $-1 $47 $-1 $17 #
shell $-1 $-1 $-1 $48 $-1 $19 #
shell $-1 $-1 $-1 $49 $-1 $21 #
shell $-1 $-1 $-1 $50 $-1 $23 #
shell $-1 $-1 $-1 $51 $-1 $25 #
shell $-1 $-1 $-1 $52 $-1 $27 #
shell $-1 $-1 $-1 $53 $-1 $29 #
shell $-1 $-1 $-1 $54 $-1 $31 #
face $-1 $55 $56 $33 $-1 $57 forward single #
face $-1 $58 $59 $34 $-1 $60 forward single #
face $-1 $61 $62 $35 $-1 $63 reversed single #
face $-1 $64 $65 $36 $-1 $66 forward single #
face $-1 $67 $68 $37 $-1 $69 forward single #
face $-1 $70 $71 $38 $-1 $72 reversed single #
face $-1 $73 $74 $39 $-1 $75 forward single #
face $-1 $76 $77 $40 $-1 $78 forward single #
face $-1 $79 $80 $41 $-1 $81 reversed single #
face $-1 $82 $83 $42 $-1 $84 forward single #
face $-1 $85 $86 $43 $-1 $87 forward single #
face $-1 $88 $89 $33 $-1 $90 reversed single #
loop $-1 $-1 $91 $44 #
plane-surface $-1 0 0 10.419172878927579 0 0 1 1 0 0 forward_v I I I I #
face $-1 $92 $93 $34 $-1 $94 reversed single #
loop $-1 $-1 $95 $45 #
plane-surface $-1 0 -21.954785856052261 -5.9019191250709255 0 0 1 1 0 0 forward_v I I I I #
face $-1 $96 $97 $35 $-1 $98 reversed single #
loop $-1 $-1 $99 $46 #
plane-surface $-1 87.833366705422549 -7.1344735776728294 182.77023912714455 0 -1 0 -0.79863551827123203 0 -0.60181501223851219 forward_v I I I I #
face $-1 $100 $101 $36 $-1 $102 forward single #
loop $-1 $103 $104 $47 #
cone-surface $-1 61.052399808184894 -13.117017026568004 8.0312660842368935 -0.79863551827123203 0 -0.60181501223851219 0.15045375305962805 0 -0.19965887956780801 1 I I 0 1 0.25 forward I I I I #
face $-1 $105 $106 $37 $-1 $107 forward single #
loop $-1 $108 $109 $48 #
cone-surface $-1 61.052399808184894 -9.5274909572308992 8.0312660842368935 -0.79863551827123203 0 -0.60181501223851219 0.15045375305962805 0 -0.19965887956780801 1 I I 0 1 0.25 forward I I I I #
face $-1 $110 $111 $38 $-1 $112 reversed single #
loop $-1 $-1 $113 $49 #
plane-surface $-1 -167.52355043236918 -15.510034406126071 73.107316841825991 0 1 0 -0.82903758062907751 0 0.55919289150049634 forward_v I I I I #
face $-1 $114 $115 $39 $-1 $116 forward single #
loop $-1 $117 $118 $50 #
cone-surface $-1 -59.980148633433359 -13.635339532259206 6.2408607289822946 0.82903758062907751 0 -0.55919289150049634 0.27959644575024817 0 0.41451879031453875 1 I I 0 1 0.5 forward I I I I #
face $-1 $119 $120 $40 $-1 $121 forward single #
loop $-1 $122 $123 $51 #
cone-surface $-1 -59.980148633433359 -10.823297221458905 6.2408607289822946 0.82903758062907751 0 -0.55919289150049634 0.27959644575024817 0 0.41451879031453875 1 I I 0 1 0.5 forward I I I I #
face $-1 $124 $125 $41 $-1 $126 reversed single #
loop $-1 $-1 $127 $52 #
plane-surface $-1 -167.52355043236918 21.838105247444418 73.107316841825991 0 1 0 -0.82903758062907751 0 0.55919289150049634 forward_v I I I I #
face $-1 $128 $129 $42 $-1 $130 forward single #
loop $-1 $131 $132 $53 #
cone-surface $-1 -59.980148633433359 23.712800121311286 6.2408607289822946 0.82903758062907751 0 -0.55919289150049634 0.27959644575024817 0 0.41451879031453875 1 I I 0 1 0.5 forward I I I I #
face $-1 $133 $134 $43 $-1 $135 forward single #
loop $-1 $136 $137 $54 #
cone-surface $-1 -59.980148633433359 26.524842432111587 6.2408607289822946 0.82903758062907751 0 -0.55919289150049634 0.27959644575024817 0 0.41451879031453875 1 I I 0 1 0.5 forward I I I I #
face $-1 $138 $139 $33 $-1 $140 reversed single #
loop $-1 $-1 $141 $55 #
plane-surface $-1 0 0 -10.419172878927579 0 0 1 1 0 0 forward_v I I I I #
coedge $-1 $142 $143 $144 $145 forward $56 $-1 #
face $-1 $146 $147 $34 $-1 $148 reversed single #
loop $-1 $-1 $149 $58 #
plane-surface $-1 0 -15.510034406126071 -8.1605460019992524 0 -1 0 0 0 -1 forward_v I I I I #
coedge $-1 $150 $151 $152 $153 reversed $59 $-1 #
face $-1 $154 $155 $35 $-1 $156 reversed single #
loop $-1 $-1 $157 $61 #
plane-surface $-1 -12.833656915432982 -11.322253991899451 106.91219792264025 0.79863551827123203 0 0.60181501223851219 0.60181501223851219 0 -0.79863551827123203 forward_v I I I I #
coedge $-1 $158 $159 $160 $161 reversed $62 $-1 #
face $-1 $-1 $162 $36 $-1 $163 forward single #
loop $-1 $164 $165 $64 #
cone-surface $-1 60.553252609265371 -13.117017026568004 7.6551317015878233 -0.79863551827123203 0 -0.60181501223851219 0.075226876529814024 0 -0.099829439783904003 1 I I -0.70710678118654746 0.70710678118654746 0.125 forward I I I I #
loop $-1 $-1 $166 $47 #
coedge $-1 $104 $104 $167 $168 reversed $65 $-1 #
face $-1 $-1 $169 $37 $-1 $170 forward single #
loop $-1 $171 $172 $67 #
cone-surface $-1 60.553252609265371 -9.5274909572308992 7.6551317015878233 -0.79863551827123203 0 -0.60181501223851219 0.075226876529814024 0 -0.099829439783904003 1 I I -0.70710678118654746 0.70710678118654746 0.125 forward I I I I #
loop $-1 $-1 $173 $48 #
coedge $-1 $109 $109 $174 $175 reversed $68 $-1 #
face $-1 $176 $177 $38 $-1 $178 reversed single #
loop $-1 $-1 $179 $70 #
plane-surface $-1 -63.024384289071321 -12.229318376859055 2.6217414705375006 -0.82903758062907751 0 0.55919289150049634 0.55919289150049634 0 0.82903758062907751 forward_v I I I I #
coedge $-1 $180 $181 $182 $183 reversed $71 $-1 #
face $-1 $-1 $184 $39 $-1 $185 forward single #
loop $-1 $186 $187 $73 #
cone-surface $-1 -59.358370447961548 -13.635339532259206 5.8214660603569222 0.82903758062907751 0 -0.55919289150049634 0.13979822287512408 0 0.20725939515726938 1 I I -0.70710678118654746 0.70710678118654746 0.25 forward I I I I #
loop $-1 $-1 $188 $50 #
coedge $-1 $118 $118 $189 $190 reversed $74 $-1 #
face $-1 $-1 $191 $40 $-1 $192 forward single #
loop $-1 $193 $194 $76 #
cone-surface $-1 -59.358370447961548 -10.823297221458905 5.8214660603569222 0.82903758062907751 0 -0.55919289150049634 0.13979822287512408 0 0.20725939515726938 1 I I -0.70710678118654746 0.70710678118654746 0.25 forward I I I I #
loop $-1 $-1 $195 $51 #
coedge $-1 $123 $123 $196 $197 reversed $77 $-1 #
face $-1 $198 $199 $41 $-1 $200 forward single #
loop $-1 $-1 $201 $79 #
plane-surface $-1 -63.024384289071321 25.118821276711433 2.6217414705375006 -0.82903758062907751 0 0.55919289150049634 0.55919289150049634 0 0.82903758062907751 forward_v I I I I #
coedge $-1 $202 $203 $204 $205 reversed $80 $-1 #
face $-1 $-1 $206 $42 $-1 $207 forward single #
loop $-1 $208 $209 $82 #
cone-surface $-1 -59.358370447961548 23.712800121311286 5.8214660603569222 0.82903758062907751 0 -0.55919289150049634 0.13979822287512408 0 0.20725939515726938 1 I I -0.70710678118654746 0.70710678118654746 0.25 forward I I I I #
loop $-1 $-1 $210 $53 #
coedge $-1 $132 $132 $211 $212 reversed $83 $-1 #
face $-1 $-1 $213 $43 $-1 $214 forward single #
loop $-1 $215 $216 $85 #
cone-surface $-1 -59.358370447961548 26.524842432111587 5.8214660603569222 0.82903758062907751 0 -0.55919289150049634 0.13979822287512408 0 0.20725939515726938 1 I I -0.70710678118654746 0.70710678118654746 0.25 forward I I I I #
loop $-1 $-1 $217 $54 #
coedge $-1 $137 $137 $218 $219 reversed $86 $-1 #
face $-1 $220 $221 $33 $-1 $222 reversed single #
loop $-1 $-1 $223 $88 #
plane-surface $-1 0 -28.399537305978452 0 0 1 0 0 0 1 forward_v I I I I #
coedge $-1 $224 $225 $226 $227 forward $89 $-1 #
coedge $-1 $228 $91 $229 $230 forward $56 $-1 #
coedge $-1 $91 $228 $231 $232 forward $56 $-1 #
coedge $-1 $233 $234 $91 $145 reversed $235 $-1 #
edge $-1 $236 -28.399537305978452 $237 28.399537305978452 $144 $238 forward 7 unknown #
face $-1 $239 $240 $34 $-1 $241 reversed single #
loop $-1 $-1 $242 $92 #
plane-surface $-1 0 0 -10.419172878927579 0 0 1 1 0 0 forward_v I I I I #
coedge $-1 $243 $244 $245 $246 reversed $93 $-1 #
coedge $-1 $247 $95 $244 $248 forward $59 $-1 #
coedge $-1 $95 $247 $249 $250 reversed $59 $-1 #
coedge $-1 $251 $245 $95 $153 forward $240 $-1 #
edge $-1 $252 4.53264147809994 $253 17.422144377952321 $152 $254 forward 7 unknown #
face $-1 $255 $256 $35 $-1 $257 reversed single #
loop $-1 $-1 $258 $96 #
plane-surface $-1 87.833366705422549 -15.510034406126074 182.77023912714455 0 1 0 0.79863551827123203 0 0.60181501223851219 forward_v I I I I #
coedge $-1 $259 $260 $261 $262 reversed $97 $-1 #
coedge $-1 $159 $99 $263 $264 reversed $62 $-1 #
coedge $-1 $99 $158 $259 $265 reversed $62 $-1 #
coedge $-1 $261 $266 $99 $161 forward $267 $-1 #
edge $-1 $268 -19.107700936360047 $269 -15.962367492858405 $160 $270 forward 7 unknown #
loop $-1 $-1 $167 $100 #
plane-surface $-1 -12.833656915432982 -11.322253991899451 106.91219792264025 0.79863551827123203 0 0.60181501223851219 0.60181501223851219 0 -0.79863551827123203 forward_v I I I I #
loop $-1 $-1 $271 $64 #
coedge $-1 $165 $165 $166 $272 reversed $101 $-1 #
coedge $-1 $166 $166 $165 $272 forward $103 $-1 #
coedge $-1 $167 $167 $104 $168 forward $162 $-1 #
edge $-1 $273 0 $273 6.2831853071796004 $167 $274 forward 7 unknown #
loop $-1 $-1 $174 $105 #
plane-surface $-1 -12.833656915432982 -11.322253991899451 106.91219792264025 0.79863551827123203 0 0.60181501223851219 0.60181501223851219 0 -0.79863551827123203 forward_v I I I I #
loop $-1 $-1 $275 $67 #
coedge $-1 $172 $172 $173 $276 reversed $106 $-1 #
coedge $-1 $173 $173 $172 $276 forward $108 $-1 #
coedge $-1 $174 $174 $109 $175 forward $169 $-1 #
edge $-1 $277 0 $277 6.2831853071796004 $174 $278 forward 7 unknown #
face $-1 $279 $280 $38 $-1 $281 forward single #
loop $-1 $-1 $282 $110 #
plane-surface $-1 -167.52355043236918 -8.9486023475920398 73.107316841825991 0 -1 0 0.82903758062907751 0 -0.55919289150049634 forward_v I I I I #
coedge $-1 $283 $284 $285 $286 reversed $111 $-1 #
coedge $-1 $181 $113 $287 $288 reversed $71 $-1 #
coedge $-1 $113 $180 $283 $289 reversed $71 $-1 #
coedge $-1 $285 $290 $113 $183 forward $280 $-1 #
edge $-1 $291 20.737390927113267 $292 25.996824657760129 $182 $293 forward 7 unknown #
loop $-1 $-1 $189 $114 #
plane-surface $-1 -63.024384289071321 -12.229318376859055 2.6217414705375006 -0.82903758062907751 0 0.55919289150049634 0.55919289150049634 0 0.82903758062907751 forward_v I I I I #
loop $-1 $-1 $294 $73 #
coedge $-1 $187 $187 $188 $295 reversed $115 $-1 #
coedge $-1 $188 $188 $187 $295 forward $117 $-1 #
coedge $-1 $189 $189 $118 $190 forward $184 $-1 #
edge $-1 $296 0 $296 6.2831853071796004 $189 $297 forward 7 unknown #
loop $-1 $-1 $196 $119 #
plane-surface $-1 -63.024384289071321 -12.229318376859055 2.6217414705375006 -0.82903758062907751 0 0.55919289150049634 0.55919289150049634 0 0.82903758062907751 forward_v I I I I #
loop $-1 $-1 $298 $76 #
coedge $-1 $194 $194 $195 $299 reversed $120 $-1 #
coedge $-1 $195 $195 $194 $299 forward $122 $-1 #
coedge $-1 $196 $196 $123 $197 forward $191 $-1 #
edge $-1 $300 0 $300 6.2831853071796004 $196 $301 forward 7 unknown #
face $-1 $302 $303 $41 $-1 $304 reversed single #
loop $-1 $-1 $204 $124 #
plane-surface $-1 0 0 10.419172878927579 0 0 1 1 0 0 forward_v I I I I #
coedge $-1 $305 $306 $307 $308 reversed $125 $-1 #
coedge $-1 $203 $127 $309 $310 reversed $80 $-1 #
coedge $-1 $127 $202 $305 $311 reversed $80 $-1 #
coedge $-1 $307 $312 $127 $205 forward $199 $-1 #
edge $-1 $313 20.737390927113267 $314 25.996824657760129 $204 $315 forward 7 unknown #
loop $-1 $-1 $211 $128 #
plane-surface $-1 -63.024384289071321 25.118821276711433 2.6217414705375006 -0.82903758062907751 0 0.55919289150049634 0.55919289150049634 0 0.82903758062907751 forward_v I I I I #
loop $-1 $-1 $316 $82 #
coedge $-1 $209 $209 $210 $317 reversed $129 $-1 #
coedge $-1 $210 $210 $209 $317 forward $131 $-1 #
coedge $-1 $211 $211 $132 $212 forward $206 $-1 #
edge $-1 $318 0 $318 6.2831853071796004 $211 $319 forward 7 unknown #
loop $-1 $-1 $218 $133 #
plane-surface $-1 -63.024384289071321 25.118821276711433 2.6217414705375006 -0.82903758062907751 0 0.55919289150049634 0.55919289150049634 0 0.82903758062907751 forward_v I I I I #
loop $-1 $-1 $320 $85 #
coedge $-1 $216 $216 $217 $321 reversed $134 $-1 #
coedge $-1 $217 $217 $216 $321 forward $136 $-1 #
coedge $-1 $218 $218 $137 $219 forward $213 $-1 #
edge $-1 $322 0 $322 6.2831853071796004 $218 $323 forward 7 unknown #
face $-1 $324 $325 $33 $-1 $326 reversed single #
loop $-1 $-1 $327 $138 #
plane-surface $-1 -63.024384289071321 0 0 1 0 0 0 0 -1 forward_v I I I I #
coedge $-1 $328 $231 $329 $330 forward $139 $-1 #
coedge $-1 $331 $141 $328 $332 forward $89 $-1 #
coedge $-1 $141 $331 $333 $334 forward $89 $-1 #
coedge $-1 $234 $233 $141 $227 reversed $235 $-1 #
edge $-1 $335 -28.399537305978452 $336 28.399537305978452 $226 $337 forward 7 unknown #
coedge $-1 $143 $142 $338 $339 forward $56 $-1 #
coedge $-1 $340 $341 $142 $230 reversed $325 $-1 #
edge $-1 $237 -63.024384289071321 $342 63.024384289071321 $229 $343 forward 7 unknown #
coedge $-1 $223 $344 $143 $232 reversed $139 $-1 #
edge $-1 $345 -63.024384289071321 $236 63.024384289071321 $231 $346 forward 7 unknown #
coedge $-1 $226 $144 $344 $347 forward $235 $-1 #
coedge $-1 $144 $226 $340 $348 reversed $235 $-1 #
loop $-1 $-1 $233 $324 #
vertex $-1 $145 $349 #
vertex $-1 $145 $350 #
straight-curve $-1 63.024384289071321 0 10.419172878927579 0 1 0 I I #
face $-1 $351 $352 $34 $-1 $353 reversed single #
loop $-1 $-1 $245 $146 #
plane-surface $-1 63.024384289071321 0 0 -1 0 0 0 0 1 forward_v I I I I #
coedge $-1 $354 $355 $243 $356 forward $147 $-1 #
coedge $-1 $357 $149 $242 $356 reversed $93 $-1 #
coedge $-1 $149 $357 $150 $248 reversed $93 $-1 #
coedge $-1 $152 $358 $149 $246 forward $240 $-1 #
edge $-1 $359 -6.3388998779279531 $252 -1.8216461240712993 $245 $360 forward 7 unknown #
coedge $-1 $151 $150 $361 $362 reversed $59 $-1 #
edge $-1 $252 -63.024384289071321 $363 63.024384289071321 $244 $364 forward 7 unknown #
coedge $-1 $365 $366 $151 $250 forward $352 $-1 #
edge $-1 $253 -63.024384289071321 $367 63.024384289071321 $249 $368 forward 7 unknown #
coedge $-1 $358 $152 $366 $369 forward $240 $-1 #
vertex $-1 $153 $370 #
vertex $-1 $369 $371 #
straight-curve $-1 63.024384289071321 -10.977392928026131 -5.9019191250709255 0 -1 0 I I #
face $-1 $-1 $267 $35 $-1 $372 forward single #
loop $-1 $-1 $373 $154 #
plane-surface $-1 63.024384289071321 0 0 -1 0 0 0 0 1 forward_v I I I I #
coedge $-1 $374 $375 $376 $377 reversed $155 $-1 #
coedge $-1 $378 $157 $159 $265 forward $97 $-1 #
coedge $-1 $157 $378 $374 $379 forward $97 $-1 #
coedge $-1 $376 $160 $157 $262 forward $267 $-1 #
edge $-1 $269 1.4733465817231037 $380 9.8489074101763485 $261 $381 forward 7 unknown #
coedge $-1 $382 $383 $158 $264 forward $256 $-1 #
edge $-1 $384 -85.13994526178756 $268 -80.965946684644692 $263 $385 forward 7 unknown #
edge $-1 $269 120.8223561764276 $384 126.04876857814264 $159 $386 forward 7 unknown #
coedge $-1 $160 $376 $382 $387 forward $267 $-1 #
loop $-1 $-1 $376 $255 #
vertex $-1 $264 $388 #
vertex $-1 $161 $389 #
straight-curve $-1 43.916683352711274 -7.1344735776728294 10.419172878927583 -1 0 0 I I #
coedge $-1 $271 $271 $-1 $390 reversed $164 $-1 #
edge $-1 $391 0 $391 6.2831853071796004 $165 $392 forward 7 unknown #
vertex $-1 $168 $393 #
ellipse-curve $-1 61.4517175673205 -13.117017026568004 8.3321735903561418 0.79863551827123203 0 0.60181501223851219 0.15045375305962805 0 -0.19965887956780801 1 I I #
coedge $-1 $275 $275 $-1 $394 reversed $171 $-1 #
edge $-1 $395 0 $395 6.2831853071796004 $172 $396 forward 7 unknown #
vertex $-1 $175 $397 #
ellipse-curve $-1 61.4517175673205 -9.5274909572308992 8.3321735903561418 0.79863551827123203 0 0.60181501223851219 0.15045375305962805 0 -0.19965887956780801 1 I I #
face $-1 $-1 $398 $38 $-1 $399 reversed single #
loop $-1 $-1 $182 $176 #
plane-surface $-1 0 0 10.419172878927579 0 0 1 1 0 0 forward_v I I I I #
coedge $-1 $400 $401 $402 $403 reversed $177 $-1 #
coedge $-1 $404 $179 $181 $289 forward $111 $-1 #
coedge $-1 $179 $404 $400 $405 forward $111 $-1 #
coedge $-1 $402 $182 $179 $286 forward $280 $-1 #
edge $-1 $292 -9.395375217696543 $406 -2.8339431591625122 $285 $407 forward 7 unknown #
coedge $-1 $408 $409 $180 $288 forward $398 $-1 #
edge $-1 $410 -33.931916950375495 $291 -26.134485541985416 $287 $411 forward 7 unknown #
edge $-1 $292 -9.4054016254285528 $410 0 $181 $412 forward 7 unknown #
coedge $-1 $182 $402 $408 $413 forward $280 $-1 #
vertex $-1 $288 $414 #
vertex $-1 $183 $415 #
straight-curve $-1 -83.761775216184589 -15.510034406126071 10.419172878927579 1 0 0 I I #
coedge $-1 $294 $294 $-1 $416 reversed $186 $-1 #
edge $-1 $417 0 $417 6.2831853071796004 $187 $418 forward 7 unknown #
vertex $-1 $190 $419 #
ellipse-curve $-1 -60.39466742374789 -13.635339532259206 6.5204571747325391 -0.82903758062907751 0 0.55919289150049634 0.27959644575024817 0 0.41451879031453875 1 I I #
coedge $-1 $298 $298 $-1 $420 reversed $193 $-1 #
edge $-1 $421 0 $421 6.2831853071796004 $194 $422 forward 7 unknown #
vertex $-1 $197 $423 #
ellipse-curve $-1 -60.39466742374789 -10.823297221458905 6.5204571747325391 -0.82903758062907751 0 0.55919289150049634 0.27959644575024817 0 0.41451879031453875 1 I I #
face $-1 $-1 $424 $41 $-1 $425 reversed single #
loop $-1 $-1 $426 $198 #
plane-surface $-1 0 28.399537305978452 0 0 -1 0 0 0 -1 forward_v I I I I #
coedge $-1 $427 $201 $203 $311 forward $125 $-1 #
coedge $-1 $201 $427 $426 $428 reversed $125 $-1 #
coedge $-1 $429 $204 $201 $308 forward $199 $-1 #
edge $-1 $314 9.278694609088701 $430 15.840126667622732 $307 $431 forward 7 unknown #
coedge $-1 $432 $433 $202 $310 forward $424 $-1 #
edge $-1 $434 -33.931916950375495 $313 -26.134485541985416 $309 $435 forward 7 unknown #
edge $-1 $314 -9.4054016254285528 $434 0 $203 $436 forward 7 unknown #
coedge $-1 $204 $429 $432 $437 forward $199 $-1 #
vertex $-1 $310 $438 #
vertex $-1 $205 $439 #
straight-curve $-1 -83.761775216184589 21.838105247444418 10.419172878927579 1 0 0 I I #
coedge $-1 $316 $316 $-1 $440 reversed $208 $-1 #
edge $-1 $441 0 $441 6.2831853071796004 $209 $442 forward 7 unknown #
vertex $-1 $212 $443 #
ellipse-curve $-1 -60.39466742374789 23.712800121311286 6.5204571747325391 -0.82903758062907751 0 0.55919289150049634 0.27959644575024817 0 0.41451879031453875 1 I I #
coedge $-1 $320 $320 $-1 $444 reversed $215 $-1 #
edge $-1 $445 0 $445 6.2831853071796004 $216 $446 forward 7 unknown #
vertex $-1 $219 $447 #
ellipse-curve $-1 -60.39466742374789 26.524842432111587 6.5204571747325391 -0.82903758062907751 0 0.55919289150049634 0.27959644575024817 0 0.41451879031453875 1 I I #
face $-1 $-1 $235 $33 $-1 $448 reversed single #
loop $-1 $-1 $340 $220 #
plane-surface $-1 0 28.399537305978452 0 0 -1 0 0 0 -1 forward_v I I I I #
coedge $-1 $449 $338 $341 $450 forward $221 $-1 #
coedge $-1 $344 $223 $224 $332 reversed $139 $-1 #
coedge $-1 $338 $449 $223 $330 reversed $221 $-1 #
edge $-1 $345 -10.419172878927579 $451 10.419172878927579 $329 $452 forward 7 unknown #
coedge $-1 $225 $224 $449 $453 forward $89 $-1 #
edge $-1 $336 -63.024384289071321 $451 63.024384289071321 $328 $454 forward 7 unknown #
coedge $-1 $341 $340 $225 $334 reversed $325 $-1 #
edge $-1 $455 -63.024384289071321 $335 63.024384289071321 $333 $456 forward 7 unknown #
vertex $-1 $227 $457 #
vertex $-1 $347 $458 #
straight-curve $-1 63.024384289071321 0 -10.419172878927579 0 -1 0 I I #
coedge $-1 $327 $329 $228 $339 reversed $221 $-1 #
edge $-1 $342 -28.399537305978452 $345 28.399537305978452 $338 $459 forward 7 unknown #
coedge $-1 $333 $229 $234 $348 forward $325 $-1 #
coedge $-1 $229 $333 $327 $450 reversed $325 $-1 #
vertex $-1 $230 $460 #
straight-curve $-1 0 28.399537305978452 10.419172878927579 -1 0 0 I I #
coedge $-1 $231 $328 $233 $347 reversed $139 $-1 #
vertex $-1 $339 $461 #
straight-curve $-1 0 -28.399537305978452 10.419172878927579 1 0 0 I I #
edge $-1 $236 -10.419172878927579 $336 10.419172878927579 $233 $462 forward 7 unknown #
edge $-1 $237 -10.419172878927579 $335 10.419172878927579 $234 $463 forward 7 unknown #
point $-1 63.024384289071321 -28.399537305978452 10.419172878927579 #
point $-1 63.024384289071321 28.399537305978452 10.419172878927579 #
face $-1 $-1 $464 $34 $-1 $465 reversed single #
loop $-1 $-1 $249 $239 #
plane-surface $-1 0 -28.399537305978452 0 0 1 0 0 0 1 forward_v I I I I #
coedge $-1 $466 $242 $358 $467 forward $147 $-1 #
coedge $-1 $242 $466 $468 $469 forward $147 $-1 #
edge $-1 $470 -63.024384289071321 $359 63.024384289071321 $242 $471 forward 7 unknown #
coedge $-1 $244 $243 $472 $473 reversed $93 $-1 #
coedge $-1 $245 $251 $354 $467 reversed $240 $-1 #
vertex $-1 $467 $474 #
straight-curve $-1 63.024384289071321 -15.510034406126071 -4.0802730009996262 0 0 1 I I #
coedge $-1 $472 $475 $247 $362 forward $464 $-1 #
edge $-1 $367 -17.422144377952321 $363 -4.53264147809994 $361 $476 forward 7 unknown #
vertex $-1 $362 $477 #
straight-curve $-1 0 -15.510034406126071 -5.9019191250709255 -1 0 0 I I #
coedge $-1 $478 $249 $475 $479 forward $352 $-1 #
coedge $-1 $249 $478 $251 $369 reversed $352 $-1 #
vertex $-1 $479 $480 #
straight-curve $-1 0 -28.399537305978452 -5.9019191250709255 -1 0 0 I I #
edge $-1 $253 5.9019191250709255 $481 10.419172878927579 $251 $482 forward 7 unknown #
point $-1 63.024384289071321 -15.510034406126071 -5.9019191250709255 #
point $-1 63.024384289071321 -28.399537305978452 -5.9019191250709255 #
plane-surface $-1 0 0 10.419172878927579 0 0 1 1 0 0 forward_v I I I I #
coedge $-1 $383 $382 $375 $483 forward $256 $-1 #
coedge $-1 $375 $258 $260 $379 reversed $155 $-1 #
coedge $-1 $258 $374 $373 $483 reversed $155 $-1 #
coedge $-1 $266 $261 $258 $377 forward $267 $-1 #
edge $-1 $380 15.962367492858405 $484 19.107700936360047 $376 $485 forward 7 unknown #
coedge $-1 $260 $259 $383 $486 reversed $97 $-1 #
edge $-1 $487 -126.04876857814264 $380 -120.8223561764276 $374 $488 forward 7 unknown #
vertex $-1 $262 $489 #
straight-curve $-1 59.879050845569694 -5.6611269959497257 10.41917287892759 0 -1 0 I I #
coedge $-1 $373 $263 $266 $387 reversed $256 $-1 #
coedge $-1 $263 $373 $378 $486 forward $256 $-1 #
vertex $-1 $264 $490 #
straight-curve $-1 63.024384289071321 -7.1344735776728294 91.385119563572275 0 0 1 I I #
straight-curve $-1 -12.833656915432982 -7.1344735776728294 106.91219792264025 0.60181501223851219 0 -0.79863551827123203 I I #
edge $-1 $484 -15.510034406126074 $268 -7.1344735776728294 $382 $491 forward 7 unknown #
point $-1 63.024384289071321 -7.1344735776728294 10.419172878927579 #
point $-1 59.879050845569679 -7.1344735776728294 10.419172878927583 #
edge $-1 $492 1 $492 0 $271 $-1 forward 7 unknown #
vertex $-1 $272 $493 #
ellipse-curve $-1 60.653082049049274 -13.117017026568004 7.7303585781176372 0.79863551827123203 0 0.60181501223851219 0.15045375305962805 0 -0.19965887956780801 1 I I #
point $-1 61.602171320380137 -13.117017026568004 8.1325147107883424 #
edge $-1 $494 1 $494 0 $275 $-1 forward 7 unknown #
vertex $-1 $276 $495 #
ellipse-curve $-1 60.653082049049274 -9.5274909572308992 7.7303585781176372 0.79863551827123203 0 0.60181501223851219 0.15045375305962805 0 -0.19965887956780801 1 I I #
point $-1 61.602171320380137 -9.5274909572308992 8.1325147107883424 #
loop $-1 $-1 $287 $279 #
plane-surface $-1 -63.024384289071321 0 0 1 0 0 0 0 -1 forward_v I I I I #
coedge $-1 $401 $282 $284 $405 reversed $177 $-1 #
coedge $-1 $282 $400 $496 $497 reversed $177 $-1 #
coedge $-1 $290 $285 $282 $403 forward $280 $-1 #
edge $-1 $406 -25.996824657760129 $498 -20.737390927113267 $402 $499 forward 7 unknown #
coedge $-1 $284 $283 $409 $500 reversed $111 $-1 #
edge $-1 $501 0 $406 9.4054016254285528 $400 $502 forward 7 unknown #
vertex $-1 $286 $503 #
straight-curve $-1 -57.764950558424459 -6.1146591884295276 10.419172878927579 0 1 0 I I #
coedge $-1 $496 $287 $290 $413 reversed $398 $-1 #
coedge $-1 $287 $496 $404 $500 forward $398 $-1 #
vertex $-1 $288 $504 #
straight-curve $-1 -63.024384289071321 -15.510034406126071 36.553658420912996 0 0 1 I I #
straight-curve $-1 -63.024384289071321 -15.510034406126071 2.6217414705375006 -0.55919289150049634 0 -0.82903758062907751 I I #
edge $-1 $498 8.9486023475920398 $291 15.510034406126071 $408 $505 forward 7 unknown #
point $-1 -63.024384289071321 -15.510034406126071 10.419172878927579 #
point $-1 -57.764950558424459 -15.510034406126071 10.419172878927579 #
edge $-1 $506 1 $506 0 $294 $-1 forward 7 unknown #
vertex $-1 $295 $507 #
ellipse-curve $-1 -59.56562984311882 -13.635339532259206 5.9612642832320466 -0.82903758062907751 0 0.55919289150049634 0.27959644575024817 0 0.41451879031453875 1 I I #
point $-1 -60.115070977997647 -13.635339532259206 6.9349759650470819 #
edge $-1 $508 1 $508 0 $298 $-1 forward 7 unknown #
vertex $-1 $299 $509 #
ellipse-curve $-1 -59.56562984311882 -10.823297221458905 5.9612642832320466 -0.82903758062907751 0 0.55919289150049634 0.27959644575024817 0 0.41451879031453875 1 I I #
point $-1 -60.115070977997647 -10.823297221458905 6.9349759650470819 #
loop $-1 $-1 $309 $302 #
plane-surface $-1 -63.024384289071321 0 0 1 0 0 0 0 -1 forward_v I I I I #
coedge $-1 $510 $511 $306 $428 forward $303 $-1 #
coedge $-1 $306 $305 $433 $512 reversed $125 $-1 #
edge $-1 $430 7.1292311145089027 $513 16.534632739937457 $426 $514 forward 7 unknown #
coedge $-1 $312 $307 $511 $515 forward $199 $-1 #
vertex $-1 $515 $516 #
straight-curve $-1 -57.764950558424459 12.559410638355716 10.419172878927579 0 1 0 I I #
coedge $-1 $517 $309 $312 $437 reversed $424 $-1 #
coedge $-1 $309 $517 $427 $512 forward $424 $-1 #
vertex $-1 $310 $518 #
straight-curve $-1 -63.024384289071321 21.838105247444418 36.553658420912996 0 0 1 I I #
straight-curve $-1 -63.024384289071321 21.838105247444418 2.6217414705375006 -0.55919289150049634 0 -0.82903758062907751 I I #
edge $-1 $519 -28.399537305978452 $313 -21.838105247444418 $432 $520 forward 7 unknown #
point $-1 -63.024384289071321 21.838105247444418 10.419172878927579 #
point $-1 -57.764950558424459 21.838105247444418 10.419172878927579 #
edge $-1 $521 1 $521 0 $316 $-1 forward 7 unknown #
vertex $-1 $317 $522 #
ellipse-curve $-1 -59.56562984311882 23.712800121311286 5.9612642832320466 -0.82903758062907751 0 0.55919289150049634 0.27959644575024817 0 0.41451879031453875 1 I I #
point $-1 -60.115070977997647 23.712800121311286 6.9349759650470819 #
edge $-1 $523 1 $523 0 $320 $-1 forward 7 unknown #
vertex $-1 $321 $524 #
ellipse-curve $-1 -59.56562984311882 26.524842432111587 5.9612642832320466 -0.82903758062907751 0 0.55919289150049634 0.27959644575024817 0 0.41451879031453875 1 I I #
point $-1 -60.115070977997647 26.524842432111587 6.9349759650470819 #
plane-surface $-1 63.024384289071321 0 0 -1 0 0 0 0 1 forward_v I I I I #
coedge $-1 $329 $327 $331 $453 reversed $221 $-1 #
edge $-1 $342 -10.419172878927579 $455 10.419172878927579 $341 $525 forward 7 unknown #
vertex $-1 $453 $526 #
straight-curve $-1 -63.024384289071321 -28.399537305978452 0 0 0 -1 I I #
edge $-1 $451 -28.399537305978452 $455 28.399537305978452 $449 $527 forward 7 unknown #
straight-curve $-1 0 -28.399537305978452 -10.419172878927579 -1 0 0 I I #
vertex $-1 $334 $528 #
straight-curve $-1 0 28.399537305978452 -10.419172878927579 1 0 0 I I #
point $-1 63.024384289071321 28.399537305978452 -10.419172878927579 #
point $-1 63.024384289071321 -28.399537305978452 -10.419172878927579 #
straight-curve $-1 -63.024384289071321 0 10.419172878927579 0 -1 0 I I #
point $-1 -63.024384289071321 28.399537305978452 10.419172878927579 #
point $-1 -63.024384289071321 -28.399537305978452 10.419172878927579 #
straight-curve $-1 63.024384289071321 -28.399537305978452 0 0 0 -1 I I #
straight-curve $-1 63.024384289071321 28.399537305978452 0 0 0 -1 I I #
loop $-1 $-1 $472 $351 #
plane-surface $-1 -63.024384289071321 0 0 1 0 0 0 0 -1 forward_v I I I I #
coedge $-1 $355 $354 $478 $529 forward $147 $-1 #
edge $-1 $359 15.510034406126071 $481 28.399537305978452 $358 $530 forward 7 unknown #
coedge $-1 $475 $472 $355 $469 reversed $464 $-1 #
edge $-1 $531 -28.399537305978452 $470 -15.510034406126071 $468 $532 forward 7 unknown #
vertex $-1 $473 $533 #
straight-curve $-1 0 -15.510034406126071 -10.419172878927579 1 0 0 I I #
coedge $-1 $468 $361 $357 $473 forward $464 $-1 #
edge $-1 $363 1.8216461240712993 $470 6.3388998779279531 $472 $534 forward 7 unknown #
point $-1 63.024384289071321 -15.510034406126071 -10.419172878927579 #
coedge $-1 $361 $468 $365 $479 reversed $464 $-1 #
straight-curve $-1 -63.024384289071321 -10.977392928026131 -5.9019191250709255 0 1 0 I I #
point $-1 -63.024384289071321 -15.510034406126071 -5.9019191250709255 #
coedge $-1 $366 $365 $466 $529 reversed $352 $-1 #
edge $-1 $367 5.9019191250709255 $531 10.419172878927579 $475 $535 forward 7 unknown #
point $-1 -63.024384289071321 -28.399537305978452 -5.9019191250709255 #
vertex $-1 $369 $536 #
straight-curve $-1 63.024384289071321 -28.399537305978452 0 0 0 -1 I I #
edge $-1 $484 80.965946684644692 $487 85.13994526178756 $373 $537 forward 7 unknown #
vertex $-1 $387 $538 #
straight-curve $-1 43.916683352711274 -15.510034406126074 10.419172878927583 1 0 0 I I #
edge $-1 $487 -9.8489074101763485 $384 -1.4733465817231037 $383 $539 forward 7 unknown #
vertex $-1 $486 $540 #
straight-curve $-1 -12.833656915432982 -15.510034406126074 106.91219792264025 -0.60181501223851219 0 0.79863551827123203 I I #
point $-1 59.879050845569679 -15.510034406126074 10.419172878927583 #
point $-1 63.024384289071321 -7.1344735776728294 6.245174301784715 #
straight-curve $-1 63.024384289071321 0 10.419172878927579 0 1 0 I I #
vertex $-1 $390 $541 #
point $-1 60.803535802108904 -13.117017026568004 7.5306996985498289 #
vertex $-1 $394 $542 #
point $-1 60.803535802108904 -9.5274909572308992 7.5306996985498289 #
coedge $-1 $409 $408 $401 $497 forward $398 $-1 #
edge $-1 $498 26.134485541985416 $501 33.931916950375495 $496 $543 forward 7 unknown #
vertex $-1 $413 $544 #
straight-curve $-1 -83.761775216184589 -8.9486023475920398 10.419172878927579 -1 0 0 I I #
edge $-1 $501 2.8339431591625122 $410 9.395375217696543 $409 $545 forward 7 unknown #
vertex $-1 $500 $546 #
straight-curve $-1 -63.024384289071321 -8.9486023475920398 2.6217414705375006 0.55919289150049634 0 0.82903758062907751 I I #
point $-1 -57.764950558424459 -8.9486023475920398 10.419172878927579 #
point $-1 -63.024384289071321 -15.510034406126071 2.6217414705375006 #
straight-curve $-1 -63.024384289071321 0 10.419172878927579 0 -1 0 I I #
vertex $-1 $416 $547 #
point $-1 -59.28603339736857 -13.635339532259206 6.375783073546585 #
vertex $-1 $420 $548 #
point $-1 -59.28603339736857 -10.823297221458905 6.375783073546585 #
coedge $-1 $511 $426 $517 $549 reversed $303 $-1 #
coedge $-1 $426 $510 $429 $515 reversed $303 $-1 #
edge $-1 $513 -15.840126667622732 $434 -9.278694609088701 $433 $550 forward 7 unknown #
vertex $-1 $428 $551 #
straight-curve $-1 -53.778335197326925 28.399537305978452 16.329573393845585 -0.55919289150049634 0 -0.82903758062907751 I I #
edge $-1 $430 57.764950558424459 $519 63.024384289071321 $511 $552 forward 7 unknown #
point $-1 -57.764950558424459 28.399537305978448 10.419172878927579 #
coedge $-1 $433 $432 $510 $549 forward $424 $-1 #
point $-1 -63.024384289071321 21.838105247444418 2.6217414705375006 #
vertex $-1 $515 $553 #
straight-curve $-1 -63.024384289071321 0 10.419172878927579 0 -1 0 I I #
vertex $-1 $440 $554 #
point $-1 -59.28603339736857 23.712800121311286 6.375783073546585 #
vertex $-1 $444 $555 #
point $-1 -59.28603339736857 26.524842432111587 6.375783073546585 #
straight-curve $-1 -63.024384289071321 28.399537305978452 0 0 0 -1 I I #
point $-1 -63.024384289071321 -28.399537305978452 -10.419172878927579 #
straight-curve $-1 -63.024384289071321 0 -10.419172878927579 0 1 0 I I #
point $-1 -63.024384289071321 28.399537305978452 -10.419172878927579 #
edge $-1 $481 -63.024384289071321 $531 63.024384289071321 $478 $556 forward 7 unknown #
straight-curve $-1 63.024384289071321 0 -10.419172878927579 0 -1 0 I I #
vertex $-1 $469 $557 #
straight-curve $-1 -63.024384289071321 0 -10.419172878927579 0 1 0 I I #
point $-1 -63.024384289071321 -15.510034406126071 -10.419172878927579 #
straight-curve $-1 -63.024384289071321 -15.510034406126071 -4.0802730009996262 0 0 -1 I I #
straight-curve $-1 -63.024384289071321 -28.399537305978452 0 0 0 -1 I I #
point $-1 63.024384289071321 -28.399537305978452 -10.419172878927579 #
straight-curve $-1 63.024384289071321 -15.510034406126074 91.385119563572275 0 0 -1 I I #
point $-1 63.024384289071321 -15.510034406126074 10.419172878927579 #
straight-curve $-1 63.024384289071314 -5.6611269959497257 6.245174301784715 0 1 0 I I #
point $-1 63.024384289071321 -15.510034406126074 6.245174301784715 #
point $-1 60.453423169481468 -13.117017026568004 7.5799048250580094 #
point $-1 60.453423169481468 -9.5274909572308992 7.5799048250580094 #
straight-curve $-1 -63.024384289071321 -8.9486023475920398 36.553658420912996 0 0 -1 I I #
point $-1 -63.024384289071321 -8.9486023475920398 10.419172878927579 #
straight-curve $-1 -63.024384289071321 -6.1146591884295276 2.6217414705375028 0 -1 0 I I #
point $-1 -63.024384289071321 -8.9486023475920398 2.6217414705375006 #
point $-1 -59.151111052804275 -13.635339532259206 5.6816678374817977 #
point $-1 -59.151111052804275 -10.823297221458905 5.6816678374817977 #
edge $-1 $519 -10.419172878927579 $513 -2.6217414705375006 $510 $558 forward 7 unknown #
straight-curve $-1 -63.024384289071321 12.559410638355716 2.6217414705375028 0 -1 0 I I #
point $-1 -63.024384289071321 28.399537305978448 2.6217414705375006 #
straight-curve $-1 0 28.399537305978452 10.419172878927579 -1 0 0 I I #
point $-1 -63.024384289071321 28.399537305978452 10.419172878927579 #
point $-1 -59.151111052804275 23.712800121311286 5.6816678374817977 #
point $-1 -59.151111052804275 26.524842432111587 5.6816678374817977 #
straight-curve $-1 0 -28.399537305978452 -10.419172878927579 -1 0 0 I I #
point $-1 -63.024384289071321 -28.399537305978452 -10.419172878927579 #
straight-curve $-1 -63.024384289071321 28.399537305978452 0 0 0 -1 I I #
End-of-ACIS-data 