500 0 10 0           
7 Unknown 11 ACIS 5.0 NT 24 Fri Mar 26 19:28:12 1999 
-1 9.9999999999999995e-007 1e-010 
body $-1 $10 $-1 $11 #
body $-1 $12 $-1 $13 #
body $-1 $14 $-1 $15 #
body $-1 $16 $-1 $17 #
body $-1 $18 $-1 $19 #
body $-1 $20 $-1 $21 #
body $-1 $22 $-1 $23 #
body $-1 $24 $-1 $25 #
body $-1 $26 $-1 $27 #
body $-1 $28 $-1 $29 #
lump $-1 $-1 $30 $0 #
transform $-1 1 0 0 0 1 0 0 0 1 76.957914975432601 32.713748774981099 16.080424390975999 1 rotate no_reflect no_shear #
lump $-1 $-1 $31 $1 #
transform $-1 1 0 0 0 1 0 0 0 1 76.957914975432601 32.713748774981099 16.080424390975999 1 rotate no_reflect no_shear #
lump $-1 $-1 $32 $2 #
transform $-1 1 0 0 0 1 0 0 0 1 76.957914975432601 32.713748774981099 16.080424390975999 1 rotate no_reflect no_shear #
lump $-1 $-1 $33 $3 #
transform $-1 1 0 0 0 1 0 0 0 1 76.957914975432601 32.713748774981099 16.080424390975999 1 rotate no_reflect no_shear #
lump $-1 $-1 $34 $4 #
transform $-1 1 0 0 0 1 0 0 0 1 76.957914975432601 32.713748774981099 16.080424390975999 1 rotate no_reflect no_shear #
lump $-1 $-1 $35 $5 #
transform $-1 1 0 0 0 1 0 0 0 1 76.957914975432601 32.713748774981099 16.080424390975999 1 rotate no_reflect no_shear #
lump $-1 $-1 $36 $6 #
transform $-1 1 0 0 0 1 0 0 0 1 76.957914975432601 32.713748774981099 16.080424390975999 1 rotate no_reflect no_shear #
lump $-1 $-1 $37 $7 #
transform $-1 1 0 0 0 1 0 0 0 1 76.957914975432601 32.713748774981099 16.080424390975999 1 rotate no_reflect no_shear #
lump $-1 $-1 $38 $8 #
transform $-1 1 0 0 0 1 0 0 0 1 76.957914975432601 32.713748774981099 16.080424390975999 1 rotate no_reflect no_shear #
lump $-1 $-1 $39 $9 #
transform $-1 1 0 0 0 1 0 0 0 1 76.957914975432601 32.713748774981099 16.080424390975999 1 rotate no_reflect no_shear #
shell $-1 $-1 $-1 $40 $-1 $10 #
shell $-1 $-1 $-1 $41 $-1 $12 #
shell $-1 $-1 $-1 $42 $-1 $14 #
shell $-1 $-1 $-1 $43 $-1 $16 #
shell $-1 $-1 $-1 $44 $-1 $18 #
shell $-1 $-1 $-1 $45 $-1 $20 #
shell $-1 $-1 $-1 $46 $-1 $22 #
shell $-1 $-1 $-1 $47 $-1 $24 #
shell $-1 $-1 $-1 $48 $-1 $26 #
shell $-1 $-1 $-1 $49 $-1 $28 #
face $-1 $50 $51 $30 $-1 $52 forward single #
face $-1 $53 $54 $31 $-1 $55 forward single #
face $-1 $56 $57 $32 $-1 $58 reversed single #
face $-1 $59 $60 $33 $-1 $61 forward single #
face $-1 $62 $63 $34 $-1 $64 forward single #
face $-1 $65 $66 $35 $-1 $67 reversed single #
face $-1 $68 $69 $36 $-1 $70 forward single #
face $-1 $71 $72 $37 $-1 $73 forward single #
face $-1 $74 $75 $38 $-1 $76 reversed single #
face $-1 $77 $78 $39 $-1 $79 forward single #
face $-1 $80 $81 $30 $-1 $82 reversed single #
loop $-1 $-1 $83 $40 #
plane-surface $-1 0 0 16.080424390975999 0 0 1 1 0 0 forward_v I I I I #
face $-1 $84 $85 $31 $-1 $86 reversed single #
loop $-1 $-1 $87 $41 #
plane-surface $-1 0 -32.713748774981099 0 0 1 0 0 0 1 forward_v I I I I #
face $-1 $88 $89 $32 $-1 $90 reversed single #
loop $-1 $-1 $91 $42 #
plane-surface $-1 -187.67569862934542 -10.823488751675422 108.07778155512926 0 1 0 -0.71933980857756763 0 0.69465836192734942 forward_v I I I I #
face $-1 $92 $93 $33 $-1 $94 forward single #
loop $-1 $95 $96 $43 #
cone-surface $-1 -69.197564978258029 -7.3517986506538975 8.0831475929118444 0.71933980857756763 0 -0.69465836192734942 1.0419875428910241 0 1.0790097128663514 1 I I 0 1 1.5 forward I I I I #
face $-1 $97 $98 $34 $-1 $99 forward single #
loop $-1 $100 $101 $44 #
cone-surface $-1 -69.197564978258029 -2.1442634991216067 8.0831475929118444 0.71933980857756763 0 -0.69465836192734942 1.0419875428910241 0 1.0790097128663514 1 I I 0 1 1.5 forward I I I I #
face $-1 $102 $103 $35 $-1 $104 reversed single #
loop $-1 $-1 $105 $45 #
plane-surface $-1 -187.67569862934542 11.72814859851403 108.07778155512926 0 1 0 -0.71933980857756763 0 0.69465836192734942 forward_v I I I I #
face $-1 $106 $107 $36 $-1 $108 forward single #
loop $-1 $109 $110 $46 #
cone-surface $-1 -69.197564978258029 15.199838699535555 8.0831475929118444 0.71933980857756763 0 -0.69465836192734942 1.0419875428910241 0 1.0790097128663514 1 I I 0 1 1.5 forward I I I I #
face $-1 $111 $112 $37 $-1 $113 forward single #
loop $-1 $114 $115 $47 #
cone-surface $-1 -69.197564978258029 20.407373851067845 8.0831475929118444 0.71933980857756763 0 -0.69465836192734942 1.0419875428910241 0 1.0790097128663514 1 I I 0 1 1.5 forward I I I I #
face $-1 $116 $117 $38 $-1 $118 reversed single #
loop $-1 $-1 $119 $48 #
plane-surface $-1 50.430634884139636 18.915026956227507 228.360947043941 0 1 0 0.61566148304635926 0 0.78801074757464917 forward_v I I I I #
face $-1 $120 $121 $39 $-1 $122 forward single #
loop $-1 $123 $124 $49 #
cone-surface $-1 72.807168647305289 25.814387865604303 11.96980962708302 -0.61566148304635926 0 -0.78801074757464917 1.1820161213619738 0 -0.92349222456953894 1 I I 0 1 1.5 forward I I I I #
face $-1 $125 $126 $30 $-1 $127 reversed single #
loop $-1 $-1 $128 $50 #
plane-surface $-1 0 0 -16.080424390975999 0 0 1 1 0 0 forward_v I I I I #
coedge $-1 $129 $130 $131 $132 forward $51 $-1 #
face $-1 $133 $134 $31 $-1 $135 reversed single #
loop $-1 $-1 $136 $53 #
plane-surface $-1 0 0 -16.080424390975999 0 0 1 1 0 0 forward_v I I I I #
coedge $-1 $137 $138 $139 $140 forward $54 $-1 #
face $-1 $141 $142 $32 $-1 $143 reversed single #
loop $-1 $-1 $144 $56 #
plane-surface $-1 -76.957914975432601 -4.7480310748877486 1.158863246772782 -0.71933980857756763 0 0.69465836192734942 0.69465836192734942 0 0.71933980857756763 forward_v I I I I #
coedge $-1 $145 $146 $147 $148 reversed $57 $-1 #
face $-1 $-1 $149 $33 $-1 $150 forward single #
loop $-1 $151 $152 $59 #
cone-surface $-1 -68.102502003420113 -7.3517986506538975 7.0256575955037945 0.71933980857756763 0 -0.69465836192734942 0.52099377144551207 0 0.53950485643317569 1 I I -0.70710678118654757 0.70710678118654757 0.75 forward I I I I #
loop $-1 $-1 $153 $43 #
coedge $-1 $96 $96 $154 $155 reversed $60 $-1 #
face $-1 $-1 $156 $34 $-1 $157 forward single #
loop $-1 $158 $159 $62 #
cone-surface $-1 -68.102502003420113 -2.1442634991216067 7.0256575955037945 0.71933980857756763 0 -0.69465836192734942 0.52099377144551207 0 0.53950485643317569 1 I I -0.70710678118654757 0.70710678118654757 0.75 forward I I I I #
loop $-1 $-1 $160 $44 #
coedge $-1 $101 $101 $161 $162 reversed $63 $-1 #
face $-1 $163 $164 $35 $-1 $165 reversed single #
loop $-1 $-1 $166 $65 #
plane-surface $-1 -76.957914975432601 17.803606275301703 1.158863246772782 -0.71933980857756763 0 0.69465836192734942 0.69465836192734942 0 0.71933980857756763 forward_v I I I I #
coedge $-1 $167 $168 $169 $170 reversed $66 $-1 #
face $-1 $-1 $171 $36 $-1 $172 forward single #
loop $-1 $173 $174 $68 #
cone-surface $-1 -68.102502003420113 15.199838699535555 7.0256575955037945 0.71933980857756763 0 -0.69465836192734942 0.52099377144551207 0 0.53950485643317569 1 I I -0.70710678118654757 0.70710678118654757 0.75 forward I I I I #
loop $-1 $-1 $175 $46 #
coedge $-1 $110 $110 $176 $177 reversed $69 $-1 #
face $-1 $-1 $178 $37 $-1 $179 forward single #
loop $-1 $180 $181 $71 #
cone-surface $-1 -68.102502003420113 20.407373851067845 7.0256575955037945 0.71933980857756763 0 -0.69465836192734942 0.52099377144551207 0 0.53950485643317569 1 I I -0.70710678118654757 0.70710678118654757 0.75 forward I I I I #
loop $-1 $-1 $182 $47 #
coedge $-1 $115 $115 $183 $184 reversed $72 $-1 #
face $-1 $185 $186 $38 $-1 $187 reversed single #
loop $-1 $-1 $188 $74 #
plane-surface $-1 -44.329413247721277 25.814387865604303 107.07361882078713 0.61566148304635926 0 0.78801074757464917 0.78801074757464917 0 -0.61566148304635926 forward_v I I I I #
coedge $-1 $189 $190 $191 $192 reversed $75 $-1 #
face $-1 $-1 $193 $39 $-1 $194 forward single #
loop $-1 $195 $196 $77 #
cone-surface $-1 70.605352596025938 25.814387865604303 9.1516136535339356 -0.61566148304635926 0 -0.78801074757464917 0.59100806068098688 0 -0.46174611228476947 1 I I -0.70710678118654757 0.70710678118654757 0.75 forward I I I I #
loop $-1 $-1 $197 $49 #
coedge $-1 $124 $124 $198 $199 reversed $78 $-1 #
face $-1 $200 $201 $30 $-1 $202 reversed single #
loop $-1 $-1 $203 $80 #
plane-surface $-1 0 -32.713748774981099 0 0 1 0 0 0 1 forward_v I I I I #
coedge $-1 $204 $205 $206 $207 forward $81 $-1 #
coedge $-1 $208 $83 $209 $210 forward $51 $-1 #
coedge $-1 $83 $208 $211 $212 forward $51 $-1 #
coedge $-1 $213 $214 $83 $132 reversed $215 $-1 #
edge $-1 $216 -32.713748774981099 $217 32.713748774981099 $131 $218 forward 7 unknown #
face $-1 $219 $220 $31 $-1 $221 forward single #
loop $-1 $-1 $222 $84 #
plane-surface $-1 76.957914975432601 0 0 -1 0 0 0 0 1 forward_v I I I I #
coedge $-1 $223 $224 $225 $226 forward $85 $-1 #
coedge $-1 $225 $87 $222 $227 reversed $54 $-1 #
coedge $-1 $87 $225 $228 $229 reversed $54 $-1 #
coedge $-1 $230 $231 $87 $140 reversed $220 $-1 #
edge $-1 $232 -76.957914975432601 $233 76.957914975432601 $139 $234 forward 7 unknown #
face $-1 $235 $236 $32 $-1 $237 forward single #
loop $-1 $-1 $238 $88 #
plane-surface $-1 -187.67569862934542 1.3274266018999246 108.07778155512926 0 -1 0 0.71933980857756763 0 -0.69465836192734942 forward_v I I I I #
coedge $-1 $239 $240 $241 $242 reversed $89 $-1 #
coedge $-1 $146 $91 $243 $244 reversed $57 $-1 #
coedge $-1 $91 $145 $239 $245 reversed $57 $-1 #
coedge $-1 $241 $246 $91 $148 forward $236 $-1 #
edge $-1 $247 16.879934339240108 $248 31.289518096779751 $147 $249 forward 7 unknown #
loop $-1 $-1 $154 $92 #
plane-surface $-1 -76.957914975432601 -4.7480310748877486 1.158863246772782 -0.71933980857756763 0 0.69465836192734942 0.69465836192734942 0 0.71933980857756763 forward_v I I I I #
loop $-1 $-1 $250 $59 #
coedge $-1 $152 $152 $153 $251 reversed $93 $-1 #
coedge $-1 $153 $153 $152 $251 forward $95 $-1 #
coedge $-1 $154 $154 $96 $155 forward $149 $-1 #
edge $-1 $252 0 $252 6.2831853071796004 $154 $253 forward 7 unknown #
loop $-1 $-1 $161 $97 #
plane-surface $-1 -76.957914975432601 -4.7480310748877486 1.158863246772782 -0.71933980857756763 0 0.69465836192734942 0.69465836192734942 0 0.71933980857756763 forward_v I I I I #
loop $-1 $-1 $254 $62 #
coedge $-1 $159 $159 $160 $255 reversed $98 $-1 #
coedge $-1 $160 $160 $159 $255 forward $100 $-1 #
coedge $-1 $161 $161 $101 $162 forward $156 $-1 #
edge $-1 $256 0 $256 6.2831853071796004 $161 $257 forward 7 unknown #
face $-1 $258 $259 $35 $-1 $260 forward single #
loop $-1 $-1 $261 $102 #
plane-surface $-1 -187.67569862934542 23.879063952089375 108.07778155512926 0 -1 0 0.71933980857756763 0 -0.69465836192734942 forward_v I I I I #
coedge $-1 $262 $263 $264 $265 reversed $103 $-1 #
coedge $-1 $168 $105 $266 $267 reversed $66 $-1 #
coedge $-1 $105 $167 $262 $268 reversed $66 $-1 #
coedge $-1 $264 $269 $105 $170 forward $259 $-1 #
edge $-1 $270 16.879934339240108 $271 31.289518096779751 $169 $272 forward 7 unknown #
loop $-1 $-1 $176 $106 #
plane-surface $-1 -76.957914975432601 17.803606275301703 1.158863246772782 -0.71933980857756763 0 0.69465836192734942 0.69465836192734942 0 0.71933980857756763 forward_v I I I I #
loop $-1 $-1 $273 $68 #
coedge $-1 $174 $174 $175 $274 reversed $107 $-1 #
coedge $-1 $175 $175 $174 $274 forward $109 $-1 #
coedge $-1 $176 $176 $110 $177 forward $171 $-1 #
edge $-1 $275 0 $275 6.2831853071796004 $176 $276 forward 7 unknown #
loop $-1 $-1 $183 $111 #
plane-surface $-1 -76.957914975432601 17.803606275301703 1.158863246772782 -0.71933980857756763 0 0.69465836192734942 0.69465836192734942 0 0.71933980857756763 forward_v I I I I #
loop $-1 $-1 $277 $71 #
coedge $-1 $181 $181 $182 $278 reversed $112 $-1 #
coedge $-1 $182 $182 $181 $278 forward $114 $-1 #
coedge $-1 $183 $183 $115 $184 forward $178 $-1 #
edge $-1 $279 0 $279 6.2831853071796004 $183 $280 forward 7 unknown #
face $-1 $281 $282 $38 $-1 $283 forward single #
loop $-1 $-1 $284 $116 #
plane-surface $-1 0 32.713748774981099 0 0 -1 0 0 0 -1 forward_v I I I I #
coedge $-1 $285 $286 $287 $288 reversed $117 $-1 #
coedge $-1 $190 $119 $289 $290 reversed $75 $-1 #
coedge $-1 $119 $189 $285 $291 reversed $75 $-1 #
coedge $-1 $287 $292 $119 $192 forward $293 $-1 #
edge $-1 $294 98.100049130994506 $295 101.86690283304429 $191 $296 forward 7 unknown #
loop $-1 $-1 $198 $120 #
plane-surface $-1 -44.329413247721277 25.814387865604303 107.07361882078713 0.61566148304635926 0 0.78801074757464917 0.78801074757464917 0 -0.61566148304635926 forward_v I I I I #
loop $-1 $-1 $297 $77 #
coedge $-1 $196 $196 $197 $298 reversed $121 $-1 #
coedge $-1 $197 $197 $196 $298 forward $123 $-1 #
coedge $-1 $198 $198 $124 $199 forward $193 $-1 #
edge $-1 $299 0 $299 6.2831853071796004 $198 $300 forward 7 unknown #
face $-1 $301 $302 $30 $-1 $303 reversed single #
loop $-1 $-1 $304 $125 #
plane-surface $-1 -76.957914975432601 0 0 1 0 0 0 0 -1 forward_v I I I I #
coedge $-1 $305 $211 $306 $307 forward $126 $-1 #
coedge $-1 $308 $128 $305 $309 forward $81 $-1 #
coedge $-1 $128 $308 $310 $311 forward $81 $-1 #
coedge $-1 $214 $213 $128 $207 reversed $215 $-1 #
edge $-1 $312 -32.713748774981099 $313 32.713748774981099 $206 $314 forward 7 unknown #
coedge $-1 $130 $129 $315 $316 forward $51 $-1 #
coedge $-1 $317 $318 $129 $210 reversed $302 $-1 #
edge $-1 $217 -76.957914975432601 $319 76.957914975432601 $209 $320 forward 7 unknown #
coedge $-1 $203 $321 $130 $212 reversed $126 $-1 #
edge $-1 $322 -76.957914975432601 $216 76.957914975432601 $211 $323 forward 7 unknown #
coedge $-1 $206 $131 $321 $324 forward $215 $-1 #
coedge $-1 $131 $206 $317 $325 reversed $215 $-1 #
loop $-1 $-1 $213 $301 #
vertex $-1 $132 $326 #
vertex $-1 $132 $327 #
straight-curve $-1 76.957914975432601 0 16.080424390975999 0 1 0 I I #
face $-1 $328 $329 $31 $-1 $330 reversed single #
loop $-1 $-1 $231 $133 #
plane-surface $-1 0 -39.241536375188076 -9.759655017188571 0 0 1 1 0 0 forward_v I I I I #
coedge $-1 $331 $332 $137 $227 forward $134 $-1 #
coedge $-1 $333 $136 $332 $334 forward $85 $-1 #
coedge $-1 $136 $333 $335 $336 forward $85 $-1 #
coedge $-1 $138 $137 $136 $226 reversed $54 $-1 #
edge $-1 $337 -76.957914975432601 $338 76.957914975432601 $136 $339 forward 7 unknown #
edge $-1 $338 -16.080424390975999 $233 -9.759655017188571 $222 $340 forward 7 unknown #
coedge $-1 $335 $341 $138 $229 forward $342 $-1 #
edge $-1 $232 9.759655017188571 $337 16.080424390975999 $228 $343 forward 7 unknown #
coedge $-1 $344 $139 $341 $345 forward $220 $-1 #
coedge $-1 $139 $344 $331 $346 forward $220 $-1 #
vertex $-1 $229 $347 #
vertex $-1 $346 $348 #
straight-curve $-1 0 -32.713748774981099 -9.759655017188571 1 0 0 I I #
face $-1 $-1 $349 $32 $-1 $350 reversed single #
loop $-1 $-1 $147 $141 #
plane-surface $-1 0 0 16.080424390975999 0 0 1 1 0 0 forward_v I I I I #
coedge $-1 $351 $352 $353 $354 reversed $142 $-1 #
coedge $-1 $355 $144 $146 $245 forward $89 $-1 #
coedge $-1 $144 $355 $351 $356 forward $89 $-1 #
coedge $-1 $353 $147 $144 $242 forward $236 $-1 #
edge $-1 $248 -8.4494732142315474 $357 3.7014421393437988 $241 $358 forward 7 unknown #
coedge $-1 $359 $360 $145 $244 forward $349 $-1 #
edge $-1 $361 -52.88002753079185 $247 -37.958466386588633 $243 $362 forward 7 unknown #
edge $-1 $248 -20.743410786217041 $361 0 $146 $363 forward 7 unknown #
coedge $-1 $147 $353 $359 $364 forward $236 $-1 #
vertex $-1 $244 $365 #
vertex $-1 $148 $366 #
straight-curve $-1 -93.83784931467271 -10.823488751675422 16.080424390975999 1 0 0 I I #
coedge $-1 $250 $250 $-1 $367 reversed $151 $-1 #
edge $-1 $368 0 $368 6.2831853071796004 $152 $369 forward 7 unknown #
vertex $-1 $155 $370 #
ellipse-curve $-1 -69.753123096662776 -7.3517986506538975 8.6196438188743905 -0.71933980857756763 0 0.69465836192734942 1.0419875428910241 0 1.0790097128663514 1 I I #
coedge $-1 $254 $254 $-1 $371 reversed $158 $-1 #
edge $-1 $372 0 $372 6.2831853071796004 $159 $373 forward 7 unknown #
vertex $-1 $162 $374 #
ellipse-curve $-1 -69.753123096662776 -2.1442634991216067 8.6196438188743905 -0.71933980857756763 0 0.69465836192734942 1.0419875428910241 0 1.0790097128663514 1 I I #
face $-1 $-1 $375 $35 $-1 $376 reversed single #
loop $-1 $-1 $169 $163 #
plane-surface $-1 0 0 16.080424390975999 0 0 1 1 0 0 forward_v I I I I #
coedge $-1 $377 $378 $379 $380 reversed $164 $-1 #
coedge $-1 $381 $166 $168 $268 forward $103 $-1 #
coedge $-1 $166 $381 $377 $382 forward $103 $-1 #
coedge $-1 $379 $169 $166 $265 forward $259 $-1 #
edge $-1 $271 2.8263454608631786 $383 14.977260814438523 $264 $384 forward 7 unknown #
coedge $-1 $385 $386 $167 $267 forward $375 $-1 #
edge $-1 $387 -52.88002753079185 $270 -37.958466386588633 $266 $388 forward 7 unknown #
edge $-1 $271 -20.743410786217041 $387 0 $168 $389 forward 7 unknown #
coedge $-1 $169 $379 $385 $390 forward $259 $-1 #
vertex $-1 $170 $391 #
vertex $-1 $170 $392 #
straight-curve $-1 -93.83784931467271 11.72814859851403 16.080424390975999 1 0 0 I I #
coedge $-1 $273 $273 $-1 $393 reversed $173 $-1 #
edge $-1 $394 0 $394 6.2831853071796004 $174 $395 forward 7 unknown #
vertex $-1 $177 $396 #
ellipse-curve $-1 -69.753123096662776 15.199838699535555 8.6196438188743905 -0.71933980857756763 0 0.69465836192734942 1.0419875428910241 0 1.0790097128663514 1 I I #
coedge $-1 $277 $277 $-1 $397 reversed $180 $-1 #
edge $-1 $398 0 $398 6.2831853071796004 $181 $399 forward 7 unknown #
vertex $-1 $184 $400 #
ellipse-curve $-1 -69.753123096662776 20.407373851067845 8.6196438188743905 -0.71933980857756763 0 0.69465836192734942 1.0419875428910241 0 1.0790097128663514 1 I I #
face $-1 $-1 $293 $38 $-1 $401 reversed single #
loop $-1 $-1 $402 $185 #
plane-surface $-1 0 0 16.080424390975999 0 0 1 1 0 0 forward_v I I I I #
coedge $-1 $403 $404 $286 $405 forward $186 $-1 #
coedge $-1 $406 $188 $190 $291 forward $117 $-1 #
coedge $-1 $188 $406 $284 $405 reversed $117 $-1 #
coedge $-1 $407 $191 $188 $288 forward $293 $-1 #
edge $-1 $295 6.0078330234253556 $408 19.806554842178947 $287 $409 forward 7 unknown #
coedge $-1 $410 $402 $189 $290 forward $282 $-1 #
edge $-1 $411 46.921244755097334 $294 51.742597533362783 $289 $412 forward 7 unknown #
edge $-1 $295 -153.91582995086523 $411 -147.79744540712051 $190 $413 forward 7 unknown #
coedge $-1 $191 $407 $410 $414 reversed $293 $-1 #
loop $-1 $-1 $287 $281 #
vertex $-1 $414 $415 #
vertex $-1 $192 $416 #
straight-curve $-1 76.957914975432601 18.915026956227507 114.1804735219705 0 0 -1 I I #
coedge $-1 $297 $297 $-1 $417 reversed $195 $-1 #
edge $-1 $418 0 $418 6.2831853071796004 $196 $419 forward 7 unknown #
vertex $-1 $199 $420 #
ellipse-curve $-1 74.547238586299869 25.814387865604303 14.196997539951104 0.61566148304635926 0 0.78801074757464917 1.1820161213619738 0 -0.92349222456953894 1 I I #
face $-1 $-1 $215 $30 $-1 $421 reversed single #
loop $-1 $-1 $317 $200 #
plane-surface $-1 0 32.713748774981099 0 0 -1 0 0 0 -1 forward_v I I I I #
coedge $-1 $422 $315 $318 $423 forward $201 $-1 #
coedge $-1 $321 $203 $204 $309 reversed $126 $-1 #
coedge $-1 $315 $422 $203 $307 reversed $201 $-1 #
edge $-1 $322 -16.080424390975999 $424 16.080424390975999 $306 $425 forward 7 unknown #
coedge $-1 $205 $204 $422 $426 forward $81 $-1 #
edge $-1 $313 -76.957914975432601 $424 76.957914975432601 $305 $427 forward 7 unknown #
coedge $-1 $318 $317 $205 $311 reversed $302 $-1 #
edge $-1 $428 -76.957914975432601 $312 76.957914975432601 $310 $429 forward 7 unknown #
vertex $-1 $207 $430 #
vertex $-1 $324 $431 #
straight-curve $-1 76.957914975432601 0 -16.080424390975999 0 -1 0 I I #
coedge $-1 $304 $306 $208 $316 reversed $201 $-1 #
edge $-1 $319 -32.713748774981099 $322 32.713748774981099 $315 $432 forward 7 unknown #
coedge $-1 $310 $209 $214 $325 forward $302 $-1 #
coedge $-1 $209 $310 $304 $423 reversed $302 $-1 #
vertex $-1 $210 $433 #
straight-curve $-1 0 32.713748774981099 16.080424390975999 -1 0 0 I I #
coedge $-1 $211 $305 $213 $324 reversed $126 $-1 #
vertex $-1 $316 $434 #
straight-curve $-1 0 -32.713748774981099 16.080424390975999 1 0 0 I I #
edge $-1 $216 -16.080424390975999 $313 16.080424390975999 $213 $435 forward 7 unknown #
edge $-1 $217 -16.080424390975999 $312 16.080424390975999 $214 $436 forward 7 unknown #
point $-1 76.957914975432601 -32.713748774981099 16.080424390975999 #
point $-1 76.957914975432601 32.713748774981099 16.080424390975999 #
face $-1 $-1 $342 $31 $-1 $437 reversed single #
loop $-1 $-1 $438 $219 #
plane-surface $-1 0 -45.769323975395054 -12.920039704082285 0 1 0 0 0 1 forward_v I I I I #
coedge $-1 $439 $222 $231 $346 reversed $134 $-1 #
coedge $-1 $222 $439 $223 $334 reversed $134 $-1 #
coedge $-1 $224 $223 $440 $441 forward $85 $-1 #
edge $-1 $338 32.713748774981099 $442 45.769323975395054 $332 $443 forward 7 unknown #
coedge $-1 $444 $228 $224 $336 reversed $342 $-1 #
edge $-1 $445 -45.769323975395054 $337 -32.713748774981099 $335 $446 forward 7 unknown #
vertex $-1 $229 $447 #
vertex $-1 $334 $448 #
straight-curve $-1 0 -32.713748774981099 -16.080424390975999 1 0 0 I I #
straight-curve $-1 76.957914975432601 -32.713748774981099 0 0 0 1 I I #
coedge $-1 $228 $444 $230 $345 reversed $342 $-1 #
loop $-1 $-1 $228 $328 #
straight-curve $-1 -76.957914975432601 -32.713748774981099 0 0 0 -1 I I #
coedge $-1 $231 $230 $449 $450 forward $220 $-1 #
edge $-1 $232 -6.5277876002069775 $451 6.5277876002069775 $341 $452 forward 7 unknown #
edge $-1 $453 -6.5277876002069775 $233 6.5277876002069775 $331 $454 forward 7 unknown #
point $-1 -76.957914975432601 -32.713748774981099 -9.759655017188571 #
point $-1 76.957914975432601 -32.713748774981099 -9.759655017188571 #
loop $-1 $-1 $243 $235 #
plane-surface $-1 -76.957914975432601 0 0 1 0 0 0 0 -1 forward_v I I I I #
coedge $-1 $352 $238 $240 $356 reversed $142 $-1 #
coedge $-1 $238 $351 $455 $456 reversed $142 $-1 #
coedge $-1 $246 $241 $238 $354 forward $236 $-1 #
edge $-1 $357 -31.289518096779751 $457 -16.879934339240108 $353 $458 forward 7 unknown #
coedge $-1 $240 $239 $360 $459 reversed $89 $-1 #
edge $-1 $460 0 $357 20.743410786217041 $351 $461 forward 7 unknown #
vertex $-1 $242 $462 #
straight-curve $-1 -62.548331217892958 -2.3740155374438743 16.080424390975999 0 1 0 I I #
coedge $-1 $455 $243 $246 $364 reversed $349 $-1 #
coedge $-1 $243 $455 $355 $459 forward $349 $-1 #
vertex $-1 $244 $463 #
straight-curve $-1 -76.957914975432601 -10.823488751675422 54.038890777564632 0 0 1 I I #
straight-curve $-1 -76.957914975432601 -10.823488751675422 1.158863246772782 -0.69465836192734942 0 -0.71933980857756763 I I #
edge $-1 $457 -1.3274266018999246 $247 10.823488751675422 $359 $464 forward 7 unknown #
point $-1 -76.957914975432601 -10.823488751675422 16.080424390975999 #
point $-1 -62.548331217892958 -10.823488751675422 16.080424390975999 #
edge $-1 $465 1 $465 0 $250 $-1 forward 7 unknown #
vertex $-1 $251 $466 #
ellipse-curve $-1 -68.642006859853282 -7.3517986506538975 7.5466513669493063 -0.71933980857756763 0 0.69465836192734942 1.0419875428910241 0 1.0790097128663514 1 I I #
point $-1 -68.711135553771754 -7.3517986506538975 9.6986535317407352 #
edge $-1 $467 1 $467 0 $254 $-1 forward 7 unknown #
vertex $-1 $255 $468 #
ellipse-curve $-1 -68.642006859853282 -2.1442634991216067 7.5466513669493063 -0.71933980857756763 0 0.69465836192734942 1.0419875428910241 0 1.0790097128663514 1 I I #
point $-1 -68.711135553771754 -2.1442634991216067 9.6986535317407352 #
loop $-1 $-1 $266 $258 #
plane-surface $-1 -76.957914975432601 0 0 1 0 0 0 0 -1 forward_v I I I I #
coedge $-1 $378 $261 $263 $382 reversed $164 $-1 #
coedge $-1 $261 $377 $469 $470 reversed $164 $-1 #
coedge $-1 $269 $264 $261 $380 forward $259 $-1 #
edge $-1 $383 -31.289518096779751 $471 -16.879934339240108 $379 $472 forward 7 unknown #
coedge $-1 $263 $262 $386 $473 reversed $103 $-1 #
edge $-1 $474 0 $383 20.743410786217041 $377 $475 forward 7 unknown #
vertex $-1 $265 $476 #
straight-curve $-1 -62.548331217892958 8.9018031376508517 16.080424390975999 0 1 0 I I #
coedge $-1 $469 $266 $269 $390 reversed $375 $-1 #
coedge $-1 $266 $469 $381 $473 forward $375 $-1 #
vertex $-1 $267 $477 #
straight-curve $-1 -76.957914975432601 11.72814859851403 54.038890777564632 0 0 1 I I #
straight-curve $-1 -76.957914975432601 11.72814859851403 1.158863246772782 -0.69465836192734942 0 -0.71933980857756763 I I #
edge $-1 $471 -23.879063952089375 $270 -11.72814859851403 $385 $478 forward 7 unknown #
point $-1 -76.957914975432601 11.72814859851403 16.080424390975999 #
point $-1 -62.548331217892958 11.72814859851403 16.080424390975999 #
edge $-1 $479 1 $479 0 $273 $-1 forward 7 unknown #
vertex $-1 $274 $480 #
ellipse-curve $-1 -68.642006859853282 15.199838699535555 7.5466513669493063 -0.71933980857756763 0 0.69465836192734942 1.0419875428910241 0 1.0790097128663514 1 I I #
point $-1 -68.711135553771754 15.199838699535555 9.6986535317407352 #
edge $-1 $481 1 $481 0 $277 $-1 forward 7 unknown #
vertex $-1 $278 $482 #
ellipse-curve $-1 -68.642006859853282 20.407373851067845 7.5466513669493063 -0.71933980857756763 0 0.69465836192734942 1.0419875428910241 0 1.0790097128663514 1 I I #
point $-1 -68.711135553771754 20.407373851067845 9.6986535317407352 #
plane-surface $-1 76.957914975432601 0 0 -1 0 0 0 0 1 forward_v I I I I #
coedge $-1 $289 $483 $406 $484 forward $282 $-1 #
coedge $-1 $404 $284 $483 $485 reversed $186 $-1 #
coedge $-1 $284 $403 $407 $486 forward $186 $-1 #
edge $-1 $408 -103.48925143525084 $487 -97.370866891506111 $284 $488 forward 7 unknown #
coedge $-1 $286 $285 $402 $484 reversed $117 $-1 #
coedge $-1 $292 $287 $404 $486 reversed $293 $-1 #
vertex $-1 $288 $489 #
straight-curve $-1 76.957914975432601 12.907193932802151 12.313570688926212 0 1 0 I I #
coedge $-1 $483 $289 $292 $414 forward $282 $-1 #
vertex $-1 $290 $490 #
straight-curve $-1 25.215317442069818 18.915026956227507 16.080424390976006 1 0 0 I I #
straight-curve $-1 -44.329413247721277 18.915026956227507 107.07361882078713 -0.78801074757464917 0 0.61566148304635926 I I #
edge $-1 $294 18.915026956227507 $491 32.713748774981099 $292 $492 forward 7 unknown #
point $-1 76.957914975432601 18.915026956227507 16.080424390975999 #
point $-1 76.957914975432615 18.915026956227507 12.313570688926205 #
edge $-1 $493 1 $493 0 $297 $-1 forward 7 unknown #
vertex $-1 $298 $494 #
ellipse-curve $-1 71.067098708310709 25.814387865604303 9.7426217142149234 0.61566148304635926 0 0.78801074757464917 1.1820161213619738 0 -0.92349222456953894 1 I I #
point $-1 75.729254707661852 25.814387865604303 13.273505315381579 #
plane-surface $-1 76.957914975432601 0 0 -1 0 0 0 0 1 forward_v I I I I #
coedge $-1 $306 $304 $308 $426 reversed $201 $-1 #
edge $-1 $319 -16.080424390975999 $428 16.080424390975999 $318 $495 forward 7 unknown #
vertex $-1 $426 $496 #
straight-curve $-1 -76.957914975432601 -32.713748774981099 0 0 0 -1 I I #
edge $-1 $424 -32.713748774981099 $428 32.713748774981099 $422 $497 forward 7 unknown #
straight-curve $-1 0 -32.713748774981099 -16.080424390975999 -1 0 0 I I #
vertex $-1 $311 $498 #
straight-curve $-1 0 32.713748774981099 -16.080424390975999 1 0 0 I I #
point $-1 76.957914975432601 32.713748774981099 -16.080424390975999 #
point $-1 76.957914975432601 -32.713748774981099 -16.080424390975999 #
straight-curve $-1 -76.957914975432601 0 16.080424390975999 0 -1 0 I I #
point $-1 -76.957914975432601 32.713748774981099 16.080424390975999 #
point $-1 -76.957914975432601 -32.713748774981099 16.080424390975999 #
straight-curve $-1 76.957914975432601 -32.713748774981099 0 0 0 -1 I I #
straight-curve $-1 76.957914975432601 32.713748774981099 0 0 0 -1 I I #
plane-surface $-1 -76.957914975432601 0 0 1 0 0 0 0 -1 forward_v I I I I #
coedge $-1 $440 $449 $444 $499 forward $329 $-1 #
coedge $-1 $332 $331 $500 $501 forward $134 $-1 #
coedge $-1 $500 $438 $333 $441 reversed $329 $-1 #
edge $-1 $442 -76.957914975432601 $445 76.957914975432601 $440 $502 forward 7 unknown #
vertex $-1 $501 $503 #
straight-curve $-1 76.957914975432601 0 -16.080424390975999 0 -1 0 I I #
coedge $-1 $341 $335 $438 $499 reversed $342 $-1 #
vertex $-1 $336 $504 #
straight-curve $-1 -76.957914975432601 0 -16.080424390975999 0 1 0 I I #
point $-1 -76.957914975432601 -32.713748774981099 -16.080424390975999 #
point $-1 76.957914975432601 -32.713748774981099 -16.080424390975999 #
coedge $-1 $438 $500 $344 $450 reversed $329 $-1 #
edge $-1 $451 -76.957914975432601 $453 76.957914975432601 $449 $505 forward 7 unknown #
vertex $-1 $345 $506 #
straight-curve $-1 -76.957914975432601 -39.241536375188076 -9.759655017188571 0 -1 0 I I #
vertex $-1 $346 $507 #
straight-curve $-1 76.957914975432601 -39.241536375188076 -9.759655017188571 0 1 0 I I #
coedge $-1 $360 $359 $352 $456 forward $349 $-1 #
edge $-1 $457 37.958466386588633 $460 52.88002753079185 $455 $508 forward 7 unknown #
vertex $-1 $364 $509 #
straight-curve $-1 -93.83784931467271 1.3274266018999246 16.080424390975999 -1 0 0 I I #
edge $-1 $460 -3.7014421393437988 $361 8.4494732142315474 $360 $510 forward 7 unknown #
vertex $-1 $459 $511 #
straight-curve $-1 -76.957914975432601 1.3274266018999246 1.158863246772782 0.69465836192734942 0 0.71933980857756763 I I #
point $-1 -62.548331217892958 1.3274266018999246 16.080424390975999 #
point $-1 -76.957914975432601 -10.823488751675422 1.158863246772782 #
straight-curve $-1 -76.957914975432601 0 16.080424390975999 0 -1 0 I I #
vertex $-1 $367 $512 #
point $-1 -67.600019316962261 -7.3517986506538975 8.6256610798156572 #
vertex $-1 $371 $513 #
point $-1 -67.600019316962261 -2.1442634991216067 8.6256610798156572 #
coedge $-1 $386 $385 $378 $470 forward $375 $-1 #
edge $-1 $471 37.958466386588633 $474 52.88002753079185 $469 $514 forward 7 unknown #
vertex $-1 $390 $515 #
straight-curve $-1 -93.83784931467271 23.879063952089375 16.080424390975999 -1 0 0 I I #
edge $-1 $474 -14.977260814438523 $387 -2.8263454608631786 $386 $516 forward 7 unknown #
vertex $-1 $473 $517 #
straight-curve $-1 -76.957914975432601 23.879063952089375 1.158863246772782 0.69465836192734942 0 0.71933980857756763 I I #
point $-1 -62.548331217892958 23.879063952089375 16.080424390975999 #
point $-1 -76.957914975432601 11.72814859851403 1.158863246772782 #
straight-curve $-1 -76.957914975432601 0 16.080424390975999 0 -1 0 I I #
vertex $-1 $393 $518 #
point $-1 -67.600019316962261 15.199838699535555 8.6256610798156572 #
vertex $-1 $397 $519 #
point $-1 -67.600019316962261 20.407373851067845 8.6256610798156572 #
coedge $-1 $402 $410 $403 $485 forward $282 $-1 #
edge $-1 $487 -19.806554842178947 $411 -6.0078330234253556 $402 $520 forward 7 unknown #
edge $-1 $491 -76.957914975432601 $487 -72.136562197167152 $403 $521 forward 7 unknown #
edge $-1 $491 -16.080424390975999 $408 -12.313570688926214 $407 $522 forward 7 unknown #
vertex $-1 $484 $523 #
straight-curve $-1 -4.5927274140002439 32.713748774981099 76.027916706910304 -0.78801074757464917 0 0.61566148304635926 I I #
point $-1 76.957914975432601 32.713748774981099 12.313570688926214 #
point $-1 72.136562197167152 18.915026956227507 16.080424390976006 #
vertex $-1 $414 $524 #
straight-curve $-1 76.957914975432601 0 16.080424390975999 0 1 0 I I #
vertex $-1 $417 $525 #
point $-1 72.249114829672678 25.814387865604303 8.819129489645384 #
straight-curve $-1 -76.957914975432601 32.713748774981099 0 0 0 -1 I I #
point $-1 -76.957914975432601 -32.713748774981099 -16.080424390975999 #
straight-curve $-1 -76.957914975432601 0 -16.080424390975999 0 1 0 I I #
point $-1 -76.957914975432601 32.713748774981099 -16.080424390975999 #
edge $-1 $451 -3.160384686893714 $445 3.160384686893714 $444 $526 forward 7 unknown #
coedge $-1 $449 $440 $439 $501 reversed $329 $-1 #
edge $-1 $453 -3.160384686893714 $442 3.160384686893714 $439 $527 forward 7 unknown #
straight-curve $-1 0 -45.769323975395054 -16.080424390975999 -1 0 0 I I #
point $-1 76.957914975432601 -45.769323975395054 -16.080424390975999 #
point $-1 -76.957914975432601 -45.769323975395054 -16.080424390975999 #
straight-curve $-1 0 -45.769323975395054 -9.759655017188571 1 0 0 I I #
point $-1 -76.957914975432601 -45.769323975395054 -9.759655017188571 #
point $-1 76.957914975432601 -45.769323975395054 -9.759655017188571 #
straight-curve $-1 -76.957914975432601 1.3274266018999246 54.038890777564632 0 0 -1 I I #
point $-1 -76.957914975432601 1.3274266018999246 16.080424390975999 #
straight-curve $-1 -76.957914975432601 -2.3740155374438743 1.158863246772786 0 -1 0 I I #
point $-1 -76.957914975432601 1.3274266018999246 1.158863246772782 #
point $-1 -67.562997146986945 -7.3517986506538975 6.5046638240582828 #
point $-1 -67.562997146986945 -2.1442634991216067 6.5046638240582828 #
straight-curve $-1 -76.957914975432601 23.879063952089375 54.038890777564632 0 0 -1 I I #
point $-1 -76.957914975432601 23.879063952089375 16.080424390975999 #
straight-curve $-1 -76.957914975432601 8.9018031376508517 1.158863246772786 0 -1 0 I I #
point $-1 -76.957914975432601 23.879063952089375 1.158863246772782 #
point $-1 -67.562997146986945 15.199838699535555 6.5046638240582828 #
point $-1 -67.562997146986945 20.407373851067845 6.5046638240582828 #
straight-curve $-1 72.136562197167152 12.907193932802151 16.080424390975999 0 -1 0 I I #
straight-curve $-1 0 32.713748774981099 16.080424390975999 -1 0 0 I I #
straight-curve $-1 76.957914975432601 32.713748774981099 0 0 0 -1 I I #
point $-1 72.136562197167152 32.713748774981099 16.080424390976006 #
point $-1 76.957914975432601 32.713748774981099 16.080424390975999 #
point $-1 70.143606483741166 25.814387865604303 8.5606055928529479 #
straight-curve $-1 -76.957914975432601 -45.769323975395054 -12.920039704082285 0 0 -1 I I #
straight-curve $-1 76.957914975432601 -45.769323975395054 -12.920039704082285 0 0 -1 I I #
End-of-ACIS-data 