500 0 7 0           
7 Unknown 11 ACIS 5.0 NT 24 Thu Mar 25 23:14:29 1999 
-1 9.9999999999999995e-007 1e-010 
body $-1 $7 $-1 $8 #
body $-1 $9 $-1 $10 #
body $-1 $11 $-1 $12 #
body $-1 $13 $-1 $14 #
body $-1 $15 $-1 $16 #
body $-1 $17 $-1 $18 #
body $-1 $19 $-1 $20 #
lump $-1 $-1 $21 $0 #
transform $-1 1 0 0 0 1 0 0 0 1 45.114902188177126 28.204145538320624 7.2033458286246468 1 rotate no_reflect no_shear #
lump $-1 $-1 $22 $1 #
transform $-1 1 0 0 0 1 0 0 0 1 45.114902188177126 28.204145538320624 7.2033458286246468 1 rotate no_reflect no_shear #
lump $-1 $-1 $23 $2 #
transform $-1 1 0 0 0 1 0 0 0 1 45.114902188177126 28.204145538320624 7.2033458286246468 1 rotate no_reflect no_shear #
lump $-1 $-1 $24 $3 #
transform $-1 1 0 0 0 1 0 0 0 1 45.114902188177126 28.204145538320624 7.2033458286246468 1 rotate no_reflect no_shear #
lump $-1 $-1 $25 $4 #
transform $-1 1 0 0 0 1 0 0 0 1 45.114902188177126 28.204145538320624 7.2033458286246468 1 rotate no_reflect no_shear #
lump $-1 $-1 $26 $5 #
transform $-1 1 0 0 0 1 0 0 0 1 45.114902188177126 28.204145538320624 7.2033458286246468 1 rotate no_reflect no_shear #
lump $-1 $-1 $27 $6 #
transform $-1 1 0 0 0 1 0 0 0 1 45.114902188177126 28.204145538320624 7.2033458286246468 1 rotate no_reflect no_shear #
shell $-1 $-1 $-1 $28 $-1 $7 #
shell $-1 $-1 $-1 $29 $-1 $9 #
shell $-1 $-1 $-1 $30 $-1 $11 #
shell $-1 $-1 $-1 $31 $-1 $13 #
shell $-1 $-1 $-1 $32 $-1 $15 #
shell $-1 $-1 $-1 $33 $-1 $17 #
shell $-1 $-1 $-1 $34 $-1 $19 #
face $-1 $35 $36 $21 $-1 $37 forward single #
face $-1 $38 $39 $22 $-1 $40 reversed single #
face $-1 $41 $42 $23 $-1 $43 forward single #
face $-1 $44 $45 $24 $-1 $46 forward single #
face $-1 $47 $48 $25 $-1 $49 forward single #
face $-1 $50 $51 $26 $-1 $52 reversed single #
face $-1 $53 $54 $27 $-1 $55 forward single #
face $-1 $56 $57 $21 $-1 $58 reversed single #
loop $-1 $-1 $59 $28 #
plane-surface $-1 0 0 7.2033458286246468 0 0 1 1 0 0 forward_v I I I I #
face $-1 $60 $61 $22 $-1 $62 reversed single #
loop $-1 $-1 $63 $29 #
plane-surface $-1 -35.332254391491468 52.11956814559327 106.9821199738725 1 0 0 0 -0.70710678939079041 -0.70710677298230451 forward_v I I I I #
face $-1 $64 $65 $23 $-1 $66 forward single #
loop $-1 $67 $68 $30 #
cone-surface $-1 -30.22115053996551 25.693855169387636 4.6930554272108536 0 -0.70710678939079041 -0.70710677298230451 1 0 0 1 I I 0 1 1 forward I I I I #
face $-1 $69 $70 $24 $-1 $71 forward single #
loop $-1 $72 $73 $31 #
cone-surface $-1 -22.554494762676569 25.693855169387636 4.6930554272108536 0 -0.70710678939079041 -0.70710677298230451 1 0 0 1 I I 0 1 1 forward I I I I #
face $-1 $74 $75 $25 $-1 $76 forward single #
loop $-1 $77 $78 $32 #
cone-surface $-1 -14.887838985387631 25.693855169387636 4.6930554272108536 0 -0.70710678939079041 -0.70710677298230451 1 0 0 1 I I 0 1 1 forward I I I I #
face $-1 $79 $80 $26 $-1 $81 reversed single #
loop $-1 $-1 $82 $33 #
plane-surface $-1 38.748544292194552 -95.257958511656625 61.721306785252509 -1 0 0 0 -0.74314483375859142 0.66913059716165679 forward_v I I I I #
face $-1 $83 $84 $27 $-1 $85 forward single #
loop $-1 $86 $87 $34 #
cone-surface $-1 32.679848519776314 -24.978000241562881 3.7441736480984762 0 0.74314483375859142 -0.66913059716165679 1 0 0 1 I I 0 1 1 forward I I I I #
face $-1 $88 $89 $21 $-1 $90 reversed single #
loop $-1 $-1 $91 $35 #
plane-surface $-1 0 0 -7.2033458286246468 0 0 1 1 0 0 forward_v I I I I #
coedge $-1 $92 $93 $94 $95 forward $36 $-1 #
face $-1 $96 $97 $22 $-1 $98 reversed single #
loop $-1 $-1 $99 $38 #
plane-surface $-1 -22.554494762676569 -11.682539134329673 43.180014174484029 0 0.70710678939079041 0.70710677298230451 1 0 0 forward_v I I I I #
coedge $-1 $100 $101 $102 $103 reversed $39 $-1 #
face $-1 $-1 $104 $23 $-1 $105 forward single #
loop $-1 $106 $107 $41 #
cone-surface $-1 -30.22115053996551 24.785019986575868 3.7842202654887007 0 -0.70710678939079041 -0.70710677298230451 0.5 0 0 1 I I -0.70710678118654746 0.70710678118654746 0.5 forward I I I I #
loop $-1 $-1 $108 $30 #
coedge $-1 $68 $68 $109 $110 reversed $42 $-1 #
face $-1 $-1 $111 $24 $-1 $112 forward single #
loop $-1 $113 $114 $44 #
cone-surface $-1 -22.554494762676569 24.785019986575868 3.7842202654887007 0 -0.70710678939079041 -0.70710677298230451 0.5 0 0 1 I I -0.70710678118654746 0.70710678118654746 0.5 forward I I I I #
loop $-1 $-1 $115 $31 #
coedge $-1 $73 $73 $116 $117 reversed $45 $-1 #
face $-1 $-1 $118 $25 $-1 $119 forward single #
loop $-1 $120 $121 $47 #
cone-surface $-1 -14.887838985387631 24.785019986575868 3.7842202654887007 0 -0.70710678939079041 -0.70710677298230451 0.5 0 0 1 I I -0.70710678118654746 0.70710678118654746 0.5 forward I I I I #
loop $-1 $-1 $122 $32 #
coedge $-1 $78 $78 $123 $124 reversed $48 $-1 #
face $-1 $125 $126 $26 $-1 $127 reversed single #
loop $-1 $-1 $128 $50 #
plane-surface $-1 32.679848519776314 -28.204145538320617 1.345783901123113 0 -0.74314483375859142 0.66913059716165679 1 0 0 forward_v I I I I #
coedge $-1 $129 $130 $131 $132 reversed $51 $-1 #
face $-1 $-1 $133 $27 $-1 $134 forward single #
loop $-1 $135 $136 $53 #
cone-surface $-1 32.679848519776314 -24.017368686916569 2.8792171327422427 0 0.74314483375859142 -0.66913059716165679 0.5 0 0 1 I I -0.70710678118654746 0.70710678118654746 0.5 forward I I I I #
loop $-1 $-1 $137 $34 #
coedge $-1 $87 $87 $138 $139 reversed $54 $-1 #
face $-1 $140 $141 $21 $-1 $142 reversed single #
loop $-1 $-1 $143 $56 #
plane-surface $-1 0 -28.204145538320624 0 0 1 0 0 0 1 forward_v I I I I #
coedge $-1 $144 $145 $146 $147 forward $57 $-1 #
coedge $-1 $148 $59 $149 $150 forward $36 $-1 #
coedge $-1 $59 $148 $151 $152 forward $36 $-1 #
coedge $-1 $153 $154 $59 $95 reversed $155 $-1 #
edge $-1 $156 -28.204145538320624 $157 28.204145538320624 $94 $158 forward 7 unknown #
face $-1 $159 $160 $22 $-1 $161 reversed single #
loop $-1 $-1 $162 $60 #
plane-surface $-1 -9.7767351338616688 52.11956814559327 106.9821199738725 -1 0 0 0 0.70710678939079041 0.70710677298230451 forward_v I I I I #
coedge $-1 $163 $164 $165 $166 reversed $61 $-1 #
coedge $-1 $101 $63 $167 $168 reversed $39 $-1 #
coedge $-1 $63 $100 $163 $169 reversed $39 $-1 #
coedge $-1 $165 $170 $63 $103 forward $171 $-1 #
edge $-1 $172 -2.1443614655239891 $173 1.7656556961092242 $102 $174 forward 7 unknown #
loop $-1 $-1 $109 $64 #
plane-surface $-1 -22.554494762676569 -11.682539134329673 43.180014174484029 0 0.70710678939079041 0.70710677298230451 1 0 0 forward_v I I I I #
loop $-1 $-1 $175 $41 #
coedge $-1 $107 $107 $108 $176 reversed $65 $-1 #
coedge $-1 $108 $108 $107 $176 forward $67 $-1 #
coedge $-1 $109 $109 $68 $110 forward $104 $-1 #
edge $-1 $177 6.2803722393895186e-016 $177 6.2831853071796013 $109 $178 forward 7 unknown #
loop $-1 $-1 $116 $69 #
plane-surface $-1 -22.554494762676569 -11.682539134329673 43.180014174484029 0 0.70710678939079041 0.70710677298230451 1 0 0 forward_v I I I I #
loop $-1 $-1 $179 $44 #
coedge $-1 $114 $114 $115 $180 reversed $70 $-1 #
coedge $-1 $115 $115 $114 $180 forward $72 $-1 #
coedge $-1 $116 $116 $73 $117 forward $111 $-1 #
edge $-1 $181 6.2803722393895186e-016 $181 6.2831853071796013 $116 $182 forward 7 unknown #
loop $-1 $-1 $123 $74 #
plane-surface $-1 -22.554494762676569 -11.682539134329673 43.180014174484029 0 0.70710678939079041 0.70710677298230451 1 0 0 forward_v I I I I #
loop $-1 $-1 $183 $47 #
coedge $-1 $121 $121 $122 $184 reversed $75 $-1 #
coedge $-1 $122 $122 $121 $184 forward $77 $-1 #
coedge $-1 $123 $123 $78 $124 forward $118 $-1 #
edge $-1 $185 6.2803722393895186e-016 $185 6.2831853071796013 $123 $186 forward 7 unknown #
face $-1 $187 $188 $26 $-1 $189 reversed single #
loop $-1 $-1 $190 $79 #
plane-surface $-1 26.611152747358076 -95.257958511656625 61.721306785252509 1 0 0 0 0.74314483375859142 -0.66913059716165679 forward_v I I I I #
coedge $-1 $191 $192 $193 $194 reversed $80 $-1 #
coedge $-1 $130 $82 $195 $196 reversed $51 $-1 #
coedge $-1 $82 $129 $191 $197 reversed $51 $-1 #
coedge $-1 $193 $198 $82 $132 forward $199 $-1 #
edge $-1 $200 19.424833717507688 $201 24.699006035489141 $131 $202 forward 7 unknown #
loop $-1 $-1 $138 $83 #
plane-surface $-1 32.679848519776314 -28.204145538320617 1.345783901123113 0 -0.74314483375859142 0.66913059716165679 1 0 0 forward_v I I I I #
loop $-1 $-1 $203 $53 #
coedge $-1 $136 $136 $137 $204 reversed $84 $-1 #
coedge $-1 $137 $137 $136 $204 forward $86 $-1 #
coedge $-1 $138 $138 $87 $139 forward $133 $-1 #
edge $-1 $205 -1.4542328306002412e-015 $205 6.2831853071795987 $138 $206 forward 7 unknown #
face $-1 $207 $208 $21 $-1 $209 reversed single #
loop $-1 $-1 $210 $88 #
plane-surface $-1 -45.114902188177126 0 0 1 0 0 0 0 -1 forward_v I I I I #
coedge $-1 $211 $151 $212 $213 forward $89 $-1 #
coedge $-1 $214 $91 $211 $215 forward $57 $-1 #
coedge $-1 $91 $214 $216 $217 forward $57 $-1 #
coedge $-1 $154 $153 $91 $147 reversed $155 $-1 #
edge $-1 $218 -28.204145538320624 $219 28.204145538320624 $146 $220 forward 7 unknown #
coedge $-1 $93 $92 $221 $222 forward $36 $-1 #
coedge $-1 $223 $224 $92 $150 reversed $208 $-1 #
edge $-1 $157 -45.114902188177126 $225 45.114902188177126 $149 $226 forward 7 unknown #
coedge $-1 $143 $227 $93 $152 reversed $89 $-1 #
edge $-1 $228 -45.114902188177126 $156 45.114902188177126 $151 $229 forward 7 unknown #
coedge $-1 $146 $94 $227 $230 forward $155 $-1 #
coedge $-1 $94 $146 $223 $231 reversed $155 $-1 #
loop $-1 $-1 $153 $207 #
vertex $-1 $95 $232 #
vertex $-1 $95 $233 #
straight-curve $-1 45.114902188177126 0 7.2033458286246468 0 1 0 I I #
face $-1 $-1 $171 $22 $-1 $234 forward single #
loop $-1 $-1 $235 $96 #
plane-surface $-1 0 28.204145538320624 0 0 -1 0 0 0 -1 forward_v I I I I #
coedge $-1 $236 $237 $238 $239 reversed $97 $-1 #
coedge $-1 $240 $99 $101 $169 forward $61 $-1 #
coedge $-1 $99 $240 $236 $241 forward $61 $-1 #
coedge $-1 $238 $102 $99 $166 forward $171 $-1 #
edge $-1 $173 -24.055007010153183 $242 1.5005122474766157 $165 $243 forward 7 unknown #
coedge $-1 $244 $245 $100 $168 forward $160 $-1 #
edge $-1 $246 -50.197731410677164 $172 -46.287714158311601 $167 $247 forward 7 unknown #
edge $-1 $173 50.878691713390531 $246 56.408291076641227 $101 $248 forward 7 unknown #
coedge $-1 $102 $238 $244 $249 forward $171 $-1 #
loop $-1 $-1 $238 $159 #
vertex $-1 $168 $250 #
vertex $-1 $103 $251 #
straight-curve $-1 -35.332254391491468 26.059784072796635 7.2033458286246486 0 -1 0 I I #
coedge $-1 $175 $175 $-1 $252 reversed $106 $-1 #
edge $-1 $253 0 $253 6.2831853071796004 $107 $254 forward 7 unknown #
vertex $-1 $110 $255 #
ellipse-curve $-1 -30.22115053996551 26.249136957504021 5.248337202441868 0 0.70710678939079041 0.70710677298230451 1 0 0 1 I I #
coedge $-1 $179 $179 $-1 $256 reversed $113 $-1 #
edge $-1 $257 0 $257 6.2831853071796004 $114 $258 forward 7 unknown #
vertex $-1 $117 $259 #
ellipse-curve $-1 -22.554494762676569 26.249136957504021 5.248337202441868 0 0.70710678939079041 0.70710677298230451 1 0 0 1 I I #
coedge $-1 $183 $183 $-1 $260 reversed $120 $-1 #
edge $-1 $261 0 $261 6.2831853071796004 $121 $262 forward 7 unknown #
vertex $-1 $124 $263 #
ellipse-curve $-1 -14.887838985387631 26.249136957504021 5.248337202441868 0 0.70710678939079041 0.70710677298230451 1 0 0 1 I I #
face $-1 $-1 $199 $26 $-1 $264 forward single #
loop $-1 $-1 $265 $125 #
plane-surface $-1 0 -28.204145538320624 0 0 1 0 0 0 1 forward_v I I I I #
coedge $-1 $266 $267 $268 $269 reversed $126 $-1 #
coedge $-1 $270 $128 $130 $197 forward $80 $-1 #
coedge $-1 $128 $270 $266 $271 forward $80 $-1 #
coedge $-1 $268 $131 $128 $194 forward $199 $-1 #
edge $-1 $201 -22.408620032306395 $272 -10.271228487469919 $193 $273 forward 7 unknown #
coedge $-1 $274 $275 $129 $196 forward $188 $-1 #
edge $-1 $276 -29.514869491503148 $200 -23.657307564001606 $195 $277 forward 7 unknown #
edge $-1 $201 -7.882126957508186 $276 1.0694865687384493e-014 $130 $278 forward 7 unknown #
coedge $-1 $131 $268 $274 $279 forward $199 $-1 #
loop $-1 $-1 $268 $187 #
vertex $-1 $196 $280 #
vertex $-1 $132 $281 #
straight-curve $-1 38.748544292194552 -47.628979255828312 7.2033458286246486 0 1 0 I I #
coedge $-1 $203 $203 $-1 $282 reversed $135 $-1 #
edge $-1 $283 0 $283 6.2831853071796004 $136 $284 forward 7 unknown #
vertex $-1 $139 $285 #
ellipse-curve $-1 32.679848519776314 -25.567059379329894 4.2745648648738772 0 -0.74314483375859142 0.66913059716165679 1 0 0 1 I I #
face $-1 $-1 $155 $21 $-1 $286 reversed single #
loop $-1 $-1 $223 $140 #
plane-surface $-1 0 28.204145538320624 0 0 -1 0 0 0 -1 forward_v I I I I #
coedge $-1 $287 $221 $224 $288 forward $141 $-1 #
coedge $-1 $227 $143 $144 $215 reversed $89 $-1 #
coedge $-1 $221 $287 $143 $213 reversed $141 $-1 #
edge $-1 $228 -7.2033458286246468 $289 7.2033458286246468 $212 $290 forward 7 unknown #
coedge $-1 $145 $144 $287 $291 forward $57 $-1 #
edge $-1 $219 -45.114902188177126 $289 45.114902188177126 $211 $292 forward 7 unknown #
coedge $-1 $224 $223 $145 $217 reversed $208 $-1 #
edge $-1 $293 -45.114902188177126 $218 45.114902188177126 $216 $294 forward 7 unknown #
vertex $-1 $147 $295 #
vertex $-1 $230 $296 #
straight-curve $-1 45.114902188177126 0 -7.2033458286246468 0 -1 0 I I #
coedge $-1 $210 $212 $148 $222 reversed $141 $-1 #
edge $-1 $225 -28.204145538320624 $228 28.204145538320624 $221 $297 forward 7 unknown #
coedge $-1 $216 $149 $154 $231 forward $208 $-1 #
coedge $-1 $149 $216 $210 $288 reversed $208 $-1 #
vertex $-1 $150 $298 #
straight-curve $-1 0 28.204145538320624 7.2033458286246468 -1 0 0 I I #
coedge $-1 $151 $211 $153 $230 reversed $89 $-1 #
vertex $-1 $222 $299 #
straight-curve $-1 0 -28.204145538320624 7.2033458286246468 1 0 0 I I #
edge $-1 $156 -7.2033458286246468 $219 7.2033458286246468 $153 $300 forward 7 unknown #
edge $-1 $157 -7.2033458286246468 $218 7.2033458286246468 $154 $301 forward 7 unknown #
point $-1 45.114902188177126 -28.204145538320624 7.2033458286246468 #
point $-1 45.114902188177126 28.204145538320624 7.2033458286246468 #
plane-surface $-1 0 0 7.2033458286246468 0 0 1 1 0 0 forward_v I I I I #
coedge $-1 $245 $244 $237 $302 forward $160 $-1 #
coedge $-1 $237 $162 $164 $241 reversed $97 $-1 #
coedge $-1 $162 $236 $235 $302 reversed $97 $-1 #
coedge $-1 $170 $165 $162 $239 forward $171 $-1 #
edge $-1 $242 -1.7656556961092242 $303 2.1443614655239891 $238 $304 forward 7 unknown #
coedge $-1 $164 $163 $245 $305 reversed $61 $-1 #
edge $-1 $306 -56.408291076641227 $242 -50.878691713390531 $236 $307 forward 7 unknown #
vertex $-1 $166 $308 #
straight-curve $-1 -11.277247381338285 24.294128376687418 7.203345828624645 1 0 0 I I #
coedge $-1 $235 $167 $170 $249 reversed $160 $-1 #
coedge $-1 $167 $235 $240 $305 forward $160 $-1 #
vertex $-1 $168 $309 #
straight-curve $-1 -35.332254391491468 28.204145538320624 53.49105998693625 0 0 1 I I #
straight-curve $-1 -35.332254391491468 -11.682539134329673 43.180014174484029 0 0.70710677298230451 -0.70710678939079041 I I #
edge $-1 $303 9.7767351338616688 $172 35.332254391491468 $244 $310 forward 7 unknown #
point $-1 -35.332254391491468 28.204145538320624 7.2033458286246468 #
point $-1 -35.332254391491468 24.294128376687411 7.2033458286246486 #
edge $-1 $311 1 $311 0 $175 $-1 forward 7 unknown #
vertex $-1 $176 $312 #
ellipse-curve $-1 -30.22115053996551 25.138573381271264 4.1377736519798534 0 0.70710678939079041 0.70710677298230451 1 0 0 1 I I #
point $-1 -29.22115053996551 26.249136957504007 5.2483372024418529 #
edge $-1 $313 1 $313 0 $179 $-1 forward 7 unknown #
vertex $-1 $180 $314 #
ellipse-curve $-1 -22.554494762676569 25.138573381271264 4.1377736519798534 0 0.70710678939079041 0.70710677298230451 1 0 0 1 I I #
point $-1 -21.554494762676569 26.249136957504007 5.2483372024418529 #
edge $-1 $315 1 $315 0 $183 $-1 forward 7 unknown #
vertex $-1 $184 $316 #
ellipse-curve $-1 -14.887838985387631 25.138573381271264 4.1377736519798534 0 0.70710678939079041 0.70710677298230451 1 0 0 1 I I #
point $-1 -13.887838985387631 26.249136957504007 5.2483372024418529 #
plane-surface $-1 0 0 7.2033458286246468 0 0 1 1 0 0 forward_v I I I I #
coedge $-1 $275 $274 $267 $317 forward $188 $-1 #
coedge $-1 $267 $190 $192 $271 reversed $126 $-1 #
coedge $-1 $190 $266 $265 $317 reversed $126 $-1 #
coedge $-1 $198 $193 $190 $269 forward $199 $-1 #
edge $-1 $272 -24.699006035489141 $318 -19.424833717507688 $268 $319 forward 7 unknown #
coedge $-1 $192 $191 $275 $320 reversed $80 $-1 #
edge $-1 $321 -1.0694865687384493e-014 $272 7.882126957508186 $266 $322 forward 7 unknown #
vertex $-1 $194 $323 #
straight-curve $-1 16.339924259888157 -22.929973220339171 7.2033458286246468 -1 0 0 I I #
coedge $-1 $265 $195 $198 $279 reversed $188 $-1 #
coedge $-1 $195 $265 $270 $320 forward $188 $-1 #
vertex $-1 $196 $324 #
straight-curve $-1 38.748544292194552 -28.204145538320624 30.860653392626254 0 0 1 I I #
straight-curve $-1 38.748544292194552 -28.204145538320617 1.345783901123113 0 -0.66913059716165679 -0.74314483375859142 I I #
edge $-1 $318 26.611152747358076 $200 38.748544292194552 $274 $325 forward 7 unknown #
point $-1 38.748544292194552 -28.204145538320624 7.2033458286246468 #
point $-1 38.748544292194552 -22.929973220339171 7.2033458286246468 #
edge $-1 $326 1 $326 0 $203 $-1 forward 7 unknown #
vertex $-1 $204 $327 #
ellipse-curve $-1 32.679848519776314 -24.388941103795865 3.2137824313230712 0 -0.74314483375859142 0.66913059716165679 1 0 0 1 I I #
point $-1 33.679848519776314 -25.567059379329901 4.2745648648738817 #
plane-surface $-1 45.114902188177126 0 0 -1 0 0 0 0 1 forward_v I I I I #
coedge $-1 $212 $210 $214 $291 reversed $141 $-1 #
edge $-1 $225 -7.2033458286246468 $293 7.2033458286246468 $224 $328 forward 7 unknown #
vertex $-1 $291 $329 #
straight-curve $-1 -45.114902188177126 -28.204145538320624 0 0 0 -1 I I #
edge $-1 $289 -28.204145538320624 $293 28.204145538320624 $287 $330 forward 7 unknown #
straight-curve $-1 0 -28.204145538320624 -7.2033458286246468 -1 0 0 I I #
vertex $-1 $217 $331 #
straight-curve $-1 0 28.204145538320624 -7.2033458286246468 1 0 0 I I #
point $-1 45.114902188177126 28.204145538320624 -7.2033458286246468 #
point $-1 45.114902188177126 -28.204145538320624 -7.2033458286246468 #
straight-curve $-1 -45.114902188177126 0 7.2033458286246468 0 -1 0 I I #
point $-1 -45.114902188177126 28.204145538320624 7.2033458286246468 #
point $-1 -45.114902188177126 -28.204145538320624 7.2033458286246468 #
straight-curve $-1 45.114902188177126 -28.204145538320624 0 0 0 -1 I I #
straight-curve $-1 45.114902188177126 28.204145538320624 0 0 0 -1 I I #
edge $-1 $303 46.287714158311601 $306 50.197731410677164 $235 $332 forward 7 unknown #
vertex $-1 $249 $333 #
straight-curve $-1 -9.7767351338616688 26.059784072796635 7.2033458286246486 0 1 0 I I #
edge $-1 $306 -1.5005122474766157 $246 24.055007010153183 $245 $334 forward 7 unknown #
vertex $-1 $305 $335 #
straight-curve $-1 -9.7767351338616688 -11.682539134329673 43.180014174484029 0 -0.70710677298230451 0.70710678939079041 I I #
point $-1 -9.7767351338616688 24.294128376687411 7.2033458286246486 #
point $-1 -35.332254391491468 28.204145538320624 3.2933285762590856 #
straight-curve $-1 0 28.204145538320624 7.2033458286246468 -1 0 0 I I #
vertex $-1 $252 $336 #
point $-1 -29.22115053996551 25.138573381271264 4.1377736519798534 #
vertex $-1 $256 $337 #
point $-1 -21.554494762676569 25.138573381271264 4.1377736519798534 #
vertex $-1 $260 $338 #
point $-1 -13.887838985387631 25.138573381271264 4.1377736519798534 #
edge $-1 $318 23.657307564001606 $321 29.514869491503148 $265 $339 forward 7 unknown #
vertex $-1 $279 $340 #
straight-curve $-1 26.611152747358076 -47.628979255828312 7.2033458286246486 0 -1 0 I I #
edge $-1 $321 10.271228487469919 $276 22.408620032306395 $275 $341 forward 7 unknown #
vertex $-1 $320 $342 #
straight-curve $-1 26.611152747358076 -28.204145538320617 1.345783901123113 0 0.66913059716165679 0.74314483375859142 I I #
point $-1 26.611152747358076 -22.929973220339171 7.2033458286246468 #
point $-1 38.748544292194552 -28.204145538320624 1.345783901123105 #
straight-curve $-1 0 -28.204145538320624 7.2033458286246468 1 0 0 I I #
vertex $-1 $282 $343 #
point $-1 33.679848519776314 -24.388941103795865 3.2137824313230712 #
straight-curve $-1 -45.114902188177126 28.204145538320624 0 0 0 -1 I I #
point $-1 -45.114902188177126 -28.204145538320624 -7.2033458286246468 #
straight-curve $-1 -45.114902188177126 0 -7.2033458286246468 0 1 0 I I #
point $-1 -45.114902188177126 28.204145538320624 -7.2033458286246468 #
straight-curve $-1 -9.7767351338616688 28.204145538320624 53.49105998693625 0 0 -1 I I #
point $-1 -9.7767351338616688 28.204145538320624 7.2033458286246468 #
straight-curve $-1 -11.277247381338285 28.204145538320624 3.2933285762590891 -1 0 0 I I #
point $-1 -9.7767351338616688 28.204145538320624 3.2933285762590856 #
point $-1 -30.22115053996551 24.431466591880472 3.4306668789975485 #
point $-1 -22.554494762676569 24.431466591880472 3.4306668789975485 #
point $-1 -14.887838985387631 24.431466591880472 3.4306668789975485 #
straight-curve $-1 26.611152747358076 -28.204145538320624 30.860653392626254 0 0 -1 I I #
point $-1 26.611152747358076 -28.204145538320624 7.2033458286246468 #
straight-curve $-1 16.339924259888157 -28.204145538320624 1.3457839011231036 1 0 0 I I #
point $-1 26.611152747358076 -28.204145538320624 1.345783901123105 #
point $-1 32.679848519776314 -23.645796270037273 2.5446518341614142 #
End-of-ACIS-data 