500 0 4 0           
7 Unknown 11 ACIS 5.0 NT 24 Fri Mar 26 15:32:39 1999 
-1 9.9999999999999995e-007 1e-010 
body $-1 $4 $-1 $5 #
body $-1 $6 $-1 $7 #
body $-1 $8 $-1 $9 #
body $-1 $10 $-1 $11 #
lump $-1 $-1 $12 $0 #
transform $-1 1 0 0 0 1 0 0 0 1 51.793572801904354 21.727472549223819 6.9940088949306665 1 rotate no_reflect no_shear #
lump $-1 $-1 $13 $1 #
transform $-1 1 0 0 0 1 0 0 0 1 51.793572801904354 21.727472549223819 6.9940088949306665 1 rotate no_reflect no_shear #
lump $-1 $-1 $14 $2 #
transform $-1 1 0 0 0 1 0 0 0 1 51.793572801904354 21.727472549223819 6.9940088949306665 1 rotate no_reflect no_shear #
lump $-1 $-1 $15 $3 #
transform $-1 1 0 0 0 1 0 0 0 1 51.793572801904354 21.727472549223819 6.9940088949306665 1 rotate no_reflect no_shear #
shell $-1 $-1 $-1 $16 $-1 $4 #
shell $-1 $-1 $-1 $17 $-1 $6 #
shell $-1 $-1 $-1 $18 $-1 $8 #
shell $-1 $-1 $-1 $19 $-1 $10 #
face $-1 $20 $21 $12 $-1 $22 forward single #
face $-1 $23 $24 $13 $-1 $25 reversed single #
face $-1 $26 $27 $14 $-1 $28 forward single #
face $-1 $29 $30 $15 $-1 $31 forward single #
face $-1 $32 $33 $12 $-1 $34 reversed single #
loop $-1 $-1 $35 $16 #
plane-surface $-1 0 0 6.9940088949306665 0 0 1 1 0 0 forward_v I I I I #
face $-1 $36 $37 $13 $-1 $38 reversed single #
loop $-1 $-1 $39 $17 #
plane-surface $-1 67.106403603417448 2.2963700702609993 149.40074002471377 0 -1 0 -0.77714596973225614 0 -0.62932038083071107 forward_v I I I I #
face $-1 $40 $41 $14 $-1 $42 forward single #
loop $-1 $43 $44 $18 #
cone-surface $-1 50.074887666754982 -6.1967729267247655 5.0367969480950867 -0.77714596973225614 0 -0.62932038083071107 0.15733009520767777 0 -0.19428649243306403 1 I I 0 1 0.25 forward I I I I #
face $-1 $45 $46 $15 $-1 $47 forward single #
loop $-1 $48 $49 $19 #
cone-surface $-1 50.074887666754982 -1.1008871285333086 5.0367969480950867 -0.77714596973225614 0 -0.62932038083071107 0.15733009520767777 0 -0.19428649243306403 1 I I 0 1 0.25 forward I I I I #
face $-1 $50 $51 $12 $-1 $52 reversed single #
loop $-1 $-1 $53 $20 #
plane-surface $-1 0 0 -6.9940088949306665 0 0 1 1 0 0 forward_v I I I I #
coedge $-1 $54 $55 $56 $57 forward $21 $-1 #
face $-1 $58 $59 $13 $-1 $60 reversed single #
loop $-1 $-1 $61 $23 #
plane-surface $-1 -13.395929118650884 -3.6488300276290353 84.211238104158554 0.77714596973225614 0 0.62932038083071107 0.62932038083071107 0 -0.77714596973225614 forward_v I I I I #
coedge $-1 $62 $63 $64 $65 reversed $24 $-1 #
face $-1 $-1 $66 $14 $-1 $67 forward single #
loop $-1 $68 $69 $26 #
cone-surface $-1 49.58917143567232 -6.1967729267247655 4.6434717100758922 -0.77714596973225614 0 -0.62932038083071107 0.078665047603838884 0 -0.097143246216532017 1 I I -0.70710678118654746 0.70710678118654746 0.125 forward I I I I #
loop $-1 $-1 $70 $18 #
coedge $-1 $44 $44 $71 $72 reversed $27 $-1 #
face $-1 $-1 $73 $15 $-1 $74 forward single #
loop $-1 $75 $76 $29 #
cone-surface $-1 49.58917143567232 -1.1008871285333086 4.6434717100758922 -0.77714596973225614 0 -0.62932038083071107 0.078665047603838884 0 -0.097143246216532017 1 I I -0.70710678118654746 0.70710678118654746 0.125 forward I I I I #
loop $-1 $-1 $77 $19 #
coedge $-1 $49 $49 $78 $79 reversed $30 $-1 #
face $-1 $80 $81 $12 $-1 $82 reversed single #
loop $-1 $-1 $83 $32 #
plane-surface $-1 0 -21.727472549223819 0 0 1 0 0 0 1 forward_v I I I I #
coedge $-1 $84 $85 $86 $87 forward $33 $-1 #
coedge $-1 $88 $35 $89 $90 forward $21 $-1 #
coedge $-1 $35 $88 $91 $92 forward $21 $-1 #
coedge $-1 $93 $94 $35 $57 reversed $95 $-1 #
edge $-1 $96 -21.727472549223819 $97 21.727472549223819 $56 $98 forward 7 unknown #
face $-1 $99 $100 $13 $-1 $101 forward single #
loop $-1 $-1 $102 $36 #
plane-surface $-1 67.106403603417448 -9.594030125519069 149.40074002471377 0 1 0 0.77714596973225614 0 0.62932038083071107 forward_v I I I I #
coedge $-1 $103 $104 $105 $106 reversed $37 $-1 #
coedge $-1 $63 $39 $107 $108 reversed $24 $-1 #
coedge $-1 $39 $62 $103 $109 reversed $24 $-1 #
coedge $-1 $105 $110 $39 $65 forward $100 $-1 #
edge $-1 $111 -18.24037100019563 $112 -15.580146699629111 $64 $113 forward 7 unknown #
loop $-1 $-1 $71 $40 #
plane-surface $-1 -13.395929118650884 -3.6488300276290353 84.211238104158554 0.77714596973225614 0 0.62932038083071107 0.62932038083071107 0 -0.77714596973225614 forward_v I I I I #
loop $-1 $-1 $114 $26 #
coedge $-1 $69 $69 $70 $115 reversed $41 $-1 #
coedge $-1 $70 $70 $69 $115 forward $43 $-1 #
coedge $-1 $71 $71 $44 $72 forward $66 $-1 #
edge $-1 $116 0 $116 6.2831853071796004 $71 $117 forward 7 unknown #
loop $-1 $-1 $78 $45 #
plane-surface $-1 -13.395929118650884 -3.6488300276290353 84.211238104158554 0.77714596973225614 0 0.62932038083071107 0.62932038083071107 0 -0.77714596973225614 forward_v I I I I #
loop $-1 $-1 $118 $29 #
coedge $-1 $76 $76 $77 $119 reversed $46 $-1 #
coedge $-1 $77 $77 $76 $119 forward $48 $-1 #
coedge $-1 $78 $78 $49 $79 forward $73 $-1 #
edge $-1 $120 0 $120 6.2831853071796004 $78 $121 forward 7 unknown #
face $-1 $122 $123 $12 $-1 $124 reversed single #
loop $-1 $-1 $125 $50 #
plane-surface $-1 -51.793572801904354 0 0 1 0 0 0 0 -1 forward_v I I I I #
coedge $-1 $126 $91 $127 $128 forward $51 $-1 #
coedge $-1 $129 $53 $126 $130 forward $33 $-1 #
coedge $-1 $53 $129 $131 $132 forward $33 $-1 #
coedge $-1 $94 $93 $53 $87 reversed $95 $-1 #
edge $-1 $133 -21.727472549223819 $134 21.727472549223819 $86 $135 forward 7 unknown #
coedge $-1 $55 $54 $136 $137 forward $21 $-1 #
coedge $-1 $138 $139 $54 $90 reversed $123 $-1 #
edge $-1 $97 -51.793572801904354 $140 51.793572801904354 $89 $141 forward 7 unknown #
coedge $-1 $83 $142 $55 $92 reversed $51 $-1 #
edge $-1 $143 -51.793572801904354 $96 51.793572801904354 $91 $144 forward 7 unknown #
coedge $-1 $86 $56 $142 $145 forward $95 $-1 #
coedge $-1 $56 $86 $138 $146 reversed $95 $-1 #
loop $-1 $-1 $93 $122 #
vertex $-1 $57 $147 #
vertex $-1 $57 $148 #
straight-curve $-1 51.793572801904354 0 6.9940088949306665 0 1 0 I I #
face $-1 $-1 $149 $13 $-1 $150 reversed single #
loop $-1 $-1 $64 $58 #
plane-surface $-1 0 0 6.9940088949306665 0 0 1 1 0 0 forward_v I I I I #
coedge $-1 $151 $152 $153 $154 reversed $59 $-1 #
coedge $-1 $155 $61 $63 $109 forward $37 $-1 #
coedge $-1 $61 $155 $151 $156 forward $37 $-1 #
coedge $-1 $153 $64 $61 $106 forward $100 $-1 #
edge $-1 $112 -4.1207850840755169 $157 7.7696151117045513 $105 $158 forward 7 unknown #
coedge $-1 $159 $160 $62 $108 forward $149 $-1 #
edge $-1 $161 -70.991464630266691 $111 -67.706361117426212 $107 $162 forward 7 unknown #
edge $-1 $112 99.360007278723856 $161 103.58714560380875 $63 $163 forward 7 unknown #
coedge $-1 $64 $153 $159 $164 forward $100 $-1 #
vertex $-1 $108 $165 #
vertex $-1 $65 $166 #
straight-curve $-1 33.553201801708724 2.2963700702609993 6.9940088949306727 -1 0 0 I I #
coedge $-1 $114 $114 $-1 $167 reversed $68 $-1 #
edge $-1 $168 0 $168 6.2831853071796004 $69 $169 forward 7 unknown #
vertex $-1 $72 $170 #
ellipse-curve $-1 50.463460651621098 -6.1967729267247655 5.3514571385104333 0.77714596973225614 0 0.62932038083071107 0.15733009520767777 0 -0.19428649243306403 1 I I #
coedge $-1 $118 $118 $-1 $171 reversed $75 $-1 #
edge $-1 $172 0 $172 6.2831853071796004 $76 $173 forward 7 unknown #
vertex $-1 $79 $174 #
ellipse-curve $-1 50.463460651621098 -1.1008871285333086 5.3514571385104333 0.77714596973225614 0 0.62932038083071107 0.15733009520767777 0 -0.19428649243306403 1 I I #
face $-1 $-1 $95 $12 $-1 $175 reversed single #
loop $-1 $-1 $138 $80 #
plane-surface $-1 0 21.727472549223819 0 0 -1 0 0 0 -1 forward_v I I I I #
coedge $-1 $176 $136 $139 $177 forward $81 $-1 #
coedge $-1 $142 $83 $84 $130 reversed $51 $-1 #
coedge $-1 $136 $176 $83 $128 reversed $81 $-1 #
edge $-1 $143 -6.9940088949306665 $178 6.9940088949306665 $127 $179 forward 7 unknown #
coedge $-1 $85 $84 $176 $180 forward $33 $-1 #
edge $-1 $134 -51.793572801904354 $178 51.793572801904354 $126 $181 forward 7 unknown #
coedge $-1 $139 $138 $85 $132 reversed $123 $-1 #
edge $-1 $182 -51.793572801904354 $133 51.793572801904354 $131 $183 forward 7 unknown #
vertex $-1 $87 $184 #
vertex $-1 $145 $185 #
straight-curve $-1 51.793572801904354 0 -6.9940088949306665 0 -1 0 I I #
coedge $-1 $125 $127 $88 $137 reversed $81 $-1 #
edge $-1 $140 -21.727472549223819 $143 21.727472549223819 $136 $186 forward 7 unknown #
coedge $-1 $131 $89 $94 $146 forward $123 $-1 #
coedge $-1 $89 $131 $125 $177 reversed $123 $-1 #
vertex $-1 $90 $187 #
straight-curve $-1 0 21.727472549223819 6.9940088949306665 -1 0 0 I I #
coedge $-1 $91 $126 $93 $145 reversed $51 $-1 #
vertex $-1 $137 $188 #
straight-curve $-1 0 -21.727472549223819 6.9940088949306665 1 0 0 I I #
edge $-1 $96 -6.9940088949306665 $134 6.9940088949306665 $93 $189 forward 7 unknown #
edge $-1 $97 -6.9940088949306665 $133 6.9940088949306665 $94 $190 forward 7 unknown #
point $-1 51.793572801904354 -21.727472549223819 6.9940088949306665 #
point $-1 51.793572801904354 21.727472549223819 6.9940088949306665 #
loop $-1 $-1 $107 $99 #
plane-surface $-1 51.793572801904354 0 0 -1 0 0 0 0 1 forward_v I I I I #
coedge $-1 $152 $102 $104 $156 reversed $59 $-1 #
coedge $-1 $102 $151 $191 $192 reversed $59 $-1 #
coedge $-1 $110 $105 $102 $154 forward $100 $-1 #
edge $-1 $157 15.580146699629111 $193 18.24037100019563 $153 $194 forward 7 unknown #
coedge $-1 $104 $103 $160 $195 reversed $37 $-1 #
edge $-1 $196 -103.58714560380875 $157 -99.360007278723856 $151 $197 forward 7 unknown #
vertex $-1 $106 $198 #
straight-curve $-1 49.133348501337835 -1.8244150138145176 6.9940088949306727 0 -1 0 I I #
coedge $-1 $191 $107 $110 $164 reversed $149 $-1 #
coedge $-1 $107 $191 $155 $195 forward $149 $-1 #
vertex $-1 $108 $199 #
straight-curve $-1 51.793572801904354 2.2963700702609993 74.700370012356885 0 0 1 I I #
straight-curve $-1 -13.395929118650884 2.2963700702609993 84.211238104158554 0.62932038083071107 0 -0.77714596973225614 I I #
edge $-1 $193 -9.594030125519069 $111 2.2963700702609993 $159 $200 forward 7 unknown #
point $-1 51.793572801904354 2.2963700702609993 6.9940088949306665 #
point $-1 49.133348501337835 2.2963700702609993 6.9940088949306727 #
edge $-1 $201 1 $201 0 $114 $-1 forward 7 unknown #
vertex $-1 $115 $202 #
ellipse-curve $-1 49.686314681888852 -6.1967729267247655 4.7221367576797313 0.77714596973225614 0 0.62932038083071107 0.15733009520767777 0 -0.19428649243306403 1 I I #
point $-1 50.620790746828789 -6.1967729267247655 5.1571706460773781 #
edge $-1 $203 1 $203 0 $118 $-1 forward 7 unknown #
vertex $-1 $119 $204 #
ellipse-curve $-1 49.686314681888852 -1.1008871285333086 4.7221367576797313 0.77714596973225614 0 0.62932038083071107 0.15733009520767777 0 -0.19428649243306403 1 I I #
point $-1 50.620790746828789 -1.1008871285333086 5.1571706460773781 #
plane-surface $-1 51.793572801904354 0 0 -1 0 0 0 0 1 forward_v I I I I #
coedge $-1 $127 $125 $129 $180 reversed $81 $-1 #
edge $-1 $140 -6.9940088949306665 $182 6.9940088949306665 $139 $205 forward 7 unknown #
vertex $-1 $180 $206 #
straight-curve $-1 -51.793572801904354 -21.727472549223819 0 0 0 -1 I I #
edge $-1 $178 -21.727472549223819 $182 21.727472549223819 $176 $207 forward 7 unknown #
straight-curve $-1 0 -21.727472549223819 -6.9940088949306665 -1 0 0 I I #
vertex $-1 $132 $208 #
straight-curve $-1 0 21.727472549223819 -6.9940088949306665 1 0 0 I I #
point $-1 51.793572801904354 21.727472549223819 -6.9940088949306665 #
point $-1 51.793572801904354 -21.727472549223819 -6.9940088949306665 #
straight-curve $-1 -51.793572801904354 0 6.9940088949306665 0 -1 0 I I #
point $-1 -51.793572801904354 21.727472549223819 6.9940088949306665 #
point $-1 -51.793572801904354 -21.727472549223819 6.9940088949306665 #
straight-curve $-1 51.793572801904354 -21.727472549223819 0 0 0 -1 I I #
straight-curve $-1 51.793572801904354 21.727472549223819 0 0 0 -1 I I #
coedge $-1 $160 $159 $152 $192 forward $149 $-1 #
edge $-1 $193 67.706361117426212 $196 70.991464630266691 $191 $209 forward 7 unknown #
vertex $-1 $164 $210 #
straight-curve $-1 33.553201801708724 -9.594030125519069 6.9940088949306727 1 0 0 I I #
edge $-1 $196 -7.7696151117045513 $161 4.1207850840755169 $160 $211 forward 7 unknown #
vertex $-1 $195 $212 #
straight-curve $-1 -13.395929118650884 -9.594030125519069 84.211238104158554 -0.62932038083071107 0 0.77714596973225614 I I #
point $-1 49.133348501337835 -9.594030125519069 6.9940088949306727 #
point $-1 51.793572801904361 2.2963700702609993 3.7089053820901938 #
straight-curve $-1 51.793572801904354 0 6.9940088949306665 0 1 0 I I #
vertex $-1 $167 $213 #
point $-1 49.843644777096529 -6.1967729267247655 4.5278502652466672 #
vertex $-1 $171 $214 #
point $-1 49.843644777096529 -1.1008871285333086 4.5278502652466672 #
straight-curve $-1 -51.793572801904354 21.727472549223819 0 0 0 -1 I I #
point $-1 -51.793572801904354 -21.727472549223819 -6.9940088949306665 #
straight-curve $-1 -51.793572801904354 0 -6.9940088949306665 0 1 0 I I #
point $-1 -51.793572801904354 21.727472549223819 -6.9940088949306665 #
straight-curve $-1 51.793572801904354 -9.594030125519069 74.700370012356885 0 0 -1 I I #
point $-1 51.793572801904354 -9.594030125519069 6.9940088949306665 #
straight-curve $-1 51.793572801904347 -1.8244150138145176 3.7089053820901867 0 1 0 I I #
point $-1 51.793572801904361 -9.594030125519069 3.7089053820901938 #
point $-1 49.492028189455787 -6.1967729267247655 4.5648066624720531 #
point $-1 49.492028189455787 -1.1008871285333086 4.5648066624720531 #
End-of-ACIS-data 