500 0 10 0           
7 Unknown 11 ACIS 5.0 NT 24 Fri Mar 26 15:05:48 1999 
-1 9.9999999999999995e-007 1e-010 
body $-1 $10 $-1 $11 #
body $-1 $12 $-1 $13 #
body $-1 $14 $-1 $15 #
body $-1 $16 $-1 $17 #
body $-1 $18 $-1 $19 #
body $-1 $20 $-1 $21 #
body $-1 $22 $-1 $23 #
body $-1 $24 $-1 $25 #
body $-1 $26 $-1 $27 #
body $-1 $28 $-1 $29 #
lump $-1 $-1 $30 $0 #
transform $-1 1 0 0 0 1 0 0 0 1 41.330607013153475 23.838477982817778 8.0299447839396709 1 rotate no_reflect no_shear #
lump $-1 $-1 $31 $1 #
transform $-1 1 0 0 0 1 0 0 0 1 41.330607013153475 23.838477982817778 8.0299447839396709 1 rotate no_reflect no_shear #
lump $-1 $-1 $32 $2 #
transform $-1 1 0 0 0 1 0 0 0 1 41.330607013153475 23.838477982817778 8.0299447839396709 1 rotate no_reflect no_shear #
lump $-1 $-1 $33 $3 #
transform $-1 1 0 0 0 1 0 0 0 1 41.330607013153475 23.838477982817778 8.0299447839396709 1 rotate no_reflect no_shear #
lump $-1 $-1 $34 $4 #
transform $-1 1 0 0 0 1 0 0 0 1 41.330607013153475 23.838477982817778 8.0299447839396709 1 rotate no_reflect no_shear #
lump $-1 $-1 $35 $5 #
transform $-1 1 0 0 0 1 0 0 0 1 41.330607013153475 23.838477982817778 8.0299447839396709 1 rotate no_reflect no_shear #
lump $-1 $-1 $36 $6 #
transform $-1 1 0 0 0 1 0 0 0 1 41.330607013153475 23.838477982817778 8.0299447839396709 1 rotate no_reflect no_shear #
lump $-1 $-1 $37 $7 #
transform $-1 1 0 0 0 1 0 0 0 1 41.330607013153475 23.838477982817778 8.0299447839396709 1 rotate no_reflect no_shear #
lump $-1 $-1 $38 $8 #
transform $-1 1 0 0 0 1 0 0 0 1 41.330607013153475 23.838477982817778 8.0299447839396709 1 rotate no_reflect no_shear #
lump $-1 $-1 $39 $9 #
transform $-1 1 0 0 0 1 0 0 0 1 41.330607013153475 23.838477982817778 8.0299447839396709 1 rotate no_reflect no_shear #
shell $-1 $-1 $-1 $40 $-1 $10 #
shell $-1 $-1 $-1 $41 $-1 $12 #
shell $-1 $-1 $-1 $42 $-1 $14 #
shell $-1 $-1 $-1 $43 $-1 $16 #
shell $-1 $-1 $-1 $44 $-1 $18 #
shell $-1 $-1 $-1 $45 $-1 $20 #
shell $-1 $-1 $-1 $46 $-1 $22 #
shell $-1 $-1 $-1 $47 $-1 $24 #
shell $-1 $-1 $-1 $48 $-1 $26 #
shell $-1 $-1 $-1 $49 $-1 $28 #
face $-1 $50 $51 $30 $-1 $52 forward single #
face $-1 $53 $54 $31 $-1 $55 forward single #
face $-1 $56 $57 $32 $-1 $58 reversed single #
face $-1 $59 $60 $33 $-1 $61 forward single #
face $-1 $62 $63 $34 $-1 $64 forward single #
face $-1 $65 $66 $35 $-1 $67 reversed single #
face $-1 $68 $69 $36 $-1 $70 forward single #
face $-1 $71 $72 $37 $-1 $73 forward single #
face $-1 $74 $75 $38 $-1 $76 reversed single #
face $-1 $77 $78 $39 $-1 $79 forward single #
face $-1 $80 $81 $30 $-1 $82 reversed single #
loop $-1 $-1 $83 $40 #
plane-surface $-1 0 0 8.0299447839396709 0 0 1 1 0 0 forward_v I I I I #
face $-1 $84 $85 $31 $-1 $86 reversed single #
loop $-1 $-1 $87 $41 #
plane-surface $-1 0 -19.938905261210113 -5.0299447839396709 0 0 1 1 0 0 forward_v I I I I #
face $-1 $88 $89 $32 $-1 $90 reversed single #
loop $-1 $-1 $91 $42 #
plane-surface $-1 -97.705420090122885 -13.967936847008293 63.099960327133743 0 1 0 -0.68199836817093118 0 0.7313536940579346 forward_v I I I I #
face $-1 $92 $93 $33 $-1 $94 forward single #
loop $-1 $95 $96 $43 #
cone-surface $-1 -37.979290860533247 -11.281021105363758 4.8398725497227293 0.68199836817093118 0 -0.7313536940579346 0.7313536940579346 0 0.68199836817093118 1 I I 0 1 1 forward I I I I #
face $-1 $97 $98 $34 $-1 $99 forward single #
loop $-1 $100 $101 $44 #
cone-surface $-1 -37.979290860533247 -7.2506474928969524 4.8398725497227293 0.68199836817093118 0 -0.7313536940579346 0.7313536940579346 0 0.68199836817093118 1 I I 0 1 1 forward I I I I #
face $-1 $102 $103 $35 $-1 $104 reversed single #
loop $-1 $-1 $105 $45 #
plane-surface $-1 -97.705420090122885 5.9709684142018187 63.099960327133743 0 1 0 -0.68199836817093118 0 0.7313536940579346 forward_v I I I I #
face $-1 $106 $107 $36 $-1 $108 forward single #
loop $-1 $109 $110 $46 #
cone-surface $-1 -37.979290860533247 8.6578841558463537 4.8398725497227293 0.68199836817093118 0 -0.7313536940579346 0.7313536940579346 0 0.68199836817093118 1 I I 0 1 1 forward I I I I #
face $-1 $111 $112 $37 $-1 $113 forward single #
loop $-1 $114 $115 $47 #
cone-surface $-1 -37.979290860533247 12.688257768313164 4.8398725497227293 0.68199836817093118 0 -0.7313536940579346 0.7313536940579346 0 0.68199836817093118 1 I I 0 1 1 forward I I I I #
face $-1 $116 $117 $38 $-1 $118 reversed single #
loop $-1 $-1 $119 $48 #
plane-surface $-1 67.627524180070651 -9.5375796454377735 113.95434409088246 0 -1 0 -0.84804810408105047 0 -0.52991925155115449 forward_v I I I I #
face $-1 $120 $121 $39 $-1 $122 forward single #
loop $-1 $123 $124 $49 #
cone-surface $-1 38.066050683636206 -12.788456092520111 3.5579489382713829 -0.84804810408105047 0 -0.52991925155115449 0.79487887732673168 0 -1.2720721561215758 1 I I 0 1 1.5 forward I I I I #
face $-1 $125 $126 $30 $-1 $127 reversed single #
loop $-1 $-1 $128 $50 #
plane-surface $-1 0 0 -8.0299447839396709 0 0 1 1 0 0 forward_v I I I I #
coedge $-1 $129 $130 $131 $132 forward $51 $-1 #
face $-1 $133 $134 $31 $-1 $135 reversed single #
loop $-1 $-1 $136 $53 #
plane-surface $-1 0 -16.039332539602448 -6.5299447839396709 0 -1 0 0 0 -1 forward_v I I I I #
coedge $-1 $137 $138 $139 $140 reversed $54 $-1 #
face $-1 $141 $142 $32 $-1 $143 reversed single #
loop $-1 $-1 $144 $56 #
plane-surface $-1 -41.330607013153454 -9.2658342991303559 2.6453760936805963 -0.68199836817093118 0 0.7313536940579346 0.7313536940579346 0 0.68199836817093118 forward_v I I I I #
coedge $-1 $145 $146 $147 $148 reversed $57 $-1 #
face $-1 $-1 $149 $33 $-1 $150 forward single #
loop $-1 $151 $152 $59 #
cone-surface $-1 -37.17409694985907 -11.281021105363758 3.9764078136063539 0.68199836817093118 0 -0.7313536940579346 0.3656768470289673 0 0.34099918408546559 1 I I -0.70710678118654746 0.70710678118654746 0.5 forward I I I I #
loop $-1 $-1 $153 $43 #
coedge $-1 $96 $96 $154 $155 reversed $60 $-1 #
face $-1 $-1 $156 $34 $-1 $157 forward single #
loop $-1 $158 $159 $62 #
cone-surface $-1 -37.17409694985907 -7.2506474928969524 3.9764078136063539 0.68199836817093118 0 -0.7313536940579346 0.3656768470289673 0 0.34099918408546559 1 I I -0.70710678118654746 0.70710678118654746 0.5 forward I I I I #
loop $-1 $-1 $160 $44 #
coedge $-1 $101 $101 $161 $162 reversed $63 $-1 #
face $-1 $163 $164 $35 $-1 $165 reversed single #
loop $-1 $-1 $166 $65 #
plane-surface $-1 -41.330607013153454 10.673070962079755 2.6453760936805963 -0.68199836817093118 0 0.7313536940579346 0.7313536940579346 0 0.68199836817093118 forward_v I I I I #
coedge $-1 $167 $168 $169 $170 reversed $66 $-1 #
face $-1 $-1 $171 $36 $-1 $172 forward single #
loop $-1 $173 $174 $68 #
cone-surface $-1 -37.17409694985907 8.6578841558463537 3.9764078136063539 0.68199836817093118 0 -0.7313536940579346 0.3656768470289673 0 0.34099918408546559 1 I I -0.70710678118654746 0.70710678118654746 0.5 forward I I I I #
loop $-1 $-1 $175 $46 #
coedge $-1 $110 $110 $176 $177 reversed $69 $-1 #
face $-1 $-1 $178 $37 $-1 $179 forward single #
loop $-1 $180 $181 $71 #
cone-surface $-1 -37.17409694985907 12.688257768313164 3.9764078136063539 0.68199836817093118 0 -0.7313536940579346 0.3656768470289673 0 0.34099918408546559 1 I I -0.70710678118654746 0.70710678118654746 0.5 forward I I I I #
loop $-1 $-1 $182 $47 #
coedge $-1 $115 $115 $183 $184 reversed $72 $-1 #
face $-1 $185 $186 $38 $-1 $187 reversed single #
loop $-1 $-1 $188 $74 #
plane-surface $-1 -2.4731616559768952 -12.788456092520109 70.15057542175208 0.84804810408105047 0 0.52991925155115449 0.52991925155115449 0 -0.84804810408105047 forward_v I I I I #
coedge $-1 $189 $190 $191 $192 reversed $75 $-1 #
face $-1 $-1 $193 $39 $-1 $194 forward single #
loop $-1 $195 $196 $77 #
cone-surface $-1 36.658704153052348 -12.788456092520111 2.6785412530572952 -0.84804810408105047 0 -0.52991925155115449 0.39743943866336584 0 -0.63603607806078788 1 I I -0.70710678118654757 0.70710678118654757 0.75 forward I I I I #
loop $-1 $-1 $197 $49 #
coedge $-1 $124 $124 $198 $199 reversed $78 $-1 #
face $-1 $200 $201 $30 $-1 $202 reversed single #
loop $-1 $-1 $203 $80 #
plane-surface $-1 0 -23.838477982817778 0 0 1 0 0 0 1 forward_v I I I I #
coedge $-1 $204 $205 $206 $207 forward $81 $-1 #
coedge $-1 $208 $83 $209 $210 forward $51 $-1 #
coedge $-1 $83 $208 $211 $212 forward $51 $-1 #
coedge $-1 $213 $214 $83 $132 reversed $215 $-1 #
edge $-1 $216 -23.838477982817778 $217 23.838477982817778 $131 $218 forward 7 unknown #
face $-1 $219 $220 $31 $-1 $221 reversed single #
loop $-1 $-1 $222 $84 #
plane-surface $-1 0 0 -8.0299447839396709 0 0 1 1 0 0 forward_v I I I I #
coedge $-1 $223 $224 $225 $226 reversed $85 $-1 #
coedge $-1 $227 $87 $224 $228 forward $54 $-1 #
coedge $-1 $87 $227 $229 $230 reversed $54 $-1 #
coedge $-1 $231 $225 $87 $140 forward $220 $-1 #
edge $-1 $232 6.0698799089973914 $233 13.869025352212722 $139 $234 forward 7 unknown #
face $-1 $235 $236 $32 $-1 $237 forward single #
loop $-1 $-1 $238 $88 #
plane-surface $-1 -97.705420090122885 -4.5637317512524191 63.099960327133743 0 -1 0 0.68199836817093118 0 -0.7313536940579346 forward_v I I I I #
coedge $-1 $239 $240 $241 $242 reversed $89 $-1 #
coedge $-1 $146 $91 $243 $244 reversed $57 $-1 #
coedge $-1 $91 $145 $239 $245 reversed $57 $-1 #
coedge $-1 $241 $246 $91 $148 forward $236 $-1 #
edge $-1 $247 7.5221030319079674 $248 13.296345883971043 $147 $249 forward 7 unknown #
loop $-1 $-1 $154 $92 #
plane-surface $-1 -41.330607013153454 -9.2658342991303559 2.6453760936805963 -0.68199836817093118 0 0.7313536940579346 0.7313536940579346 0 0.68199836817093118 forward_v I I I I #
loop $-1 $-1 $250 $59 #
coedge $-1 $152 $152 $153 $251 reversed $93 $-1 #
coedge $-1 $153 $153 $152 $251 forward $95 $-1 #
coedge $-1 $154 $154 $96 $155 forward $149 $-1 #
edge $-1 $252 0 $252 6.2831853071796004 $154 $253 forward 7 unknown #
loop $-1 $-1 $161 $97 #
plane-surface $-1 -41.330607013153454 -9.2658342991303559 2.6453760936805963 -0.68199836817093118 0 0.7313536940579346 0.7313536940579346 0 0.68199836817093118 forward_v I I I I #
loop $-1 $-1 $254 $62 #
coedge $-1 $159 $159 $160 $255 reversed $98 $-1 #
coedge $-1 $160 $160 $159 $255 forward $100 $-1 #
coedge $-1 $161 $161 $101 $162 forward $156 $-1 #
edge $-1 $256 0 $256 6.2831853071796004 $161 $257 forward 7 unknown #
face $-1 $258 $259 $35 $-1 $260 forward single #
loop $-1 $-1 $261 $102 #
plane-surface $-1 -97.705420090122885 15.375173509957692 63.099960327133743 0 -1 0 0.68199836817093118 0 -0.7313536940579346 forward_v I I I I #
coedge $-1 $262 $263 $264 $265 reversed $103 $-1 #
coedge $-1 $168 $105 $266 $267 reversed $66 $-1 #
coedge $-1 $105 $167 $262 $268 reversed $66 $-1 #
coedge $-1 $264 $269 $105 $170 forward $259 $-1 #
edge $-1 $270 7.5221030319079674 $271 13.296345883971043 $169 $272 forward 7 unknown #
loop $-1 $-1 $176 $106 #
plane-surface $-1 -41.330607013153454 10.673070962079755 2.6453760936805963 -0.68199836817093118 0 0.7313536940579346 0.7313536940579346 0 0.68199836817093118 forward_v I I I I #
loop $-1 $-1 $273 $68 #
coedge $-1 $174 $174 $175 $274 reversed $107 $-1 #
coedge $-1 $175 $175 $174 $274 forward $109 $-1 #
coedge $-1 $176 $176 $110 $177 forward $171 $-1 #
edge $-1 $275 0 $275 6.2831853071796004 $176 $276 forward 7 unknown #
loop $-1 $-1 $183 $111 #
plane-surface $-1 -41.330607013153454 10.673070962079755 2.6453760936805963 -0.68199836817093118 0 0.7313536940579346 0.7313536940579346 0 0.68199836817093118 forward_v I I I I #
loop $-1 $-1 $277 $71 #
coedge $-1 $181 $181 $182 $278 reversed $112 $-1 #
coedge $-1 $182 $182 $181 $278 forward $114 $-1 #
coedge $-1 $183 $183 $115 $184 forward $178 $-1 #
edge $-1 $279 0 $279 6.2831853071796004 $183 $280 forward 7 unknown #
face $-1 $281 $282 $38 $-1 $283 reversed single #
loop $-1 $-1 $284 $116 #
plane-surface $-1 67.627524180070651 -16.039332539602444 113.95434409088246 0 1 0 0.84804810408105047 0 0.52991925155115449 forward_v I I I I #
coedge $-1 $285 $286 $287 $288 reversed $117 $-1 #
coedge $-1 $190 $119 $289 $290 reversed $75 $-1 #
coedge $-1 $119 $189 $285 $291 reversed $75 $-1 #
coedge $-1 $287 $292 $119 $192 forward $293 $-1 #
edge $-1 $294 -7.5168449231181498 $295 -2.5303531691297465 $191 $296 forward 7 unknown #
loop $-1 $-1 $198 $120 #
plane-surface $-1 -2.4731616559768952 -12.788456092520109 70.15057542175208 0.84804810408105047 0 0.52991925155115449 0.52991925155115449 0 -0.84804810408105047 forward_v I I I I #
loop $-1 $-1 $297 $77 #
coedge $-1 $196 $196 $197 $298 reversed $121 $-1 #
coedge $-1 $197 $197 $196 $298 forward $123 $-1 #
coedge $-1 $198 $198 $124 $199 forward $193 $-1 #
edge $-1 $299 0 $299 6.2831853071796004 $198 $300 forward 7 unknown #
face $-1 $301 $302 $30 $-1 $303 reversed single #
loop $-1 $-1 $304 $125 #
plane-surface $-1 -41.330607013153475 0 0 1 0 0 0 0 -1 forward_v I I I I #
coedge $-1 $305 $211 $306 $307 forward $126 $-1 #
coedge $-1 $308 $128 $305 $309 forward $81 $-1 #
coedge $-1 $128 $308 $310 $311 forward $81 $-1 #
coedge $-1 $214 $213 $128 $207 reversed $215 $-1 #
edge $-1 $312 -23.838477982817778 $313 23.838477982817778 $206 $314 forward 7 unknown #
coedge $-1 $130 $129 $315 $316 forward $51 $-1 #
coedge $-1 $317 $318 $129 $210 reversed $302 $-1 #
edge $-1 $217 -41.330607013153475 $319 41.330607013153475 $209 $320 forward 7 unknown #
coedge $-1 $203 $321 $130 $212 reversed $126 $-1 #
edge $-1 $322 -41.330607013153475 $216 41.330607013153475 $211 $323 forward 7 unknown #
coedge $-1 $206 $131 $321 $324 forward $215 $-1 #
coedge $-1 $131 $206 $317 $325 reversed $215 $-1 #
loop $-1 $-1 $213 $301 #
vertex $-1 $132 $326 #
vertex $-1 $132 $327 #
straight-curve $-1 41.330607013153475 0 8.0299447839396709 0 1 0 I I #
face $-1 $328 $329 $31 $-1 $330 reversed single #
loop $-1 $-1 $225 $133 #
plane-surface $-1 41.330607013153475 0 0 -1 0 0 0 0 1 forward_v I I I I #
coedge $-1 $331 $332 $223 $333 forward $134 $-1 #
coedge $-1 $334 $136 $222 $333 reversed $85 $-1 #
coedge $-1 $136 $334 $137 $228 reversed $85 $-1 #
coedge $-1 $139 $335 $136 $226 forward $220 $-1 #
edge $-1 $336 -4.7649723919698355 $232 -1.7649723919698355 $225 $337 forward 7 unknown #
coedge $-1 $138 $137 $338 $339 reversed $54 $-1 #
edge $-1 $232 -41.330607013153475 $340 41.330607013153475 $224 $341 forward 7 unknown #
coedge $-1 $342 $343 $138 $230 forward $329 $-1 #
edge $-1 $233 -41.330607013153475 $344 41.330607013153475 $229 $345 forward 7 unknown #
coedge $-1 $335 $139 $343 $346 forward $220 $-1 #
vertex $-1 $140 $347 #
vertex $-1 $346 $348 #
straight-curve $-1 41.330607013153475 -9.9694526306050566 -5.0299447839396709 0 -1 0 I I #
face $-1 $-1 $349 $32 $-1 $350 reversed single #
loop $-1 $-1 $147 $141 #
plane-surface $-1 0 0 8.0299447839396709 0 0 1 1 0 0 forward_v I I I I #
coedge $-1 $351 $352 $353 $354 reversed $142 $-1 #
coedge $-1 $355 $144 $146 $245 forward $89 $-1 #
coedge $-1 $144 $355 $351 $356 forward $89 $-1 #
coedge $-1 $353 $147 $144 $242 forward $236 $-1 #
edge $-1 $248 -9.3350196974431157 $357 0.069185398312758828 $241 $358 forward 7 unknown #
coedge $-1 $359 $360 $145 $244 forward $349 $-1 #
edge $-1 $361 -28.904604069886297 $247 -23.520035379627203 $243 $362 forward 7 unknown #
edge $-1 $248 -7.8952809003049156 $361 2.9218806877328148e-014 $146 $363 forward 7 unknown #
coedge $-1 $147 $353 $359 $364 forward $236 $-1 #
vertex $-1 $244 $365 #
vertex $-1 $148 $366 #
straight-curve $-1 -48.852710045061443 -13.967936847008293 8.0299447839396692 1 0 0 I I #
coedge $-1 $250 $250 $-1 $367 reversed $151 $-1 #
edge $-1 $368 0 $368 6.2831853071796004 $152 $369 forward 7 unknown #
vertex $-1 $155 $370 #
ellipse-curve $-1 -38.443485587121941 -11.281021105363758 5.3376604388101203 -0.68199836817093118 0 0.7313536940579346 0.7313536940579346 0 0.68199836817093118 1 I I #
coedge $-1 $254 $254 $-1 $371 reversed $158 $-1 #
edge $-1 $372 0 $372 6.2831853071796004 $159 $373 forward 7 unknown #
vertex $-1 $162 $374 #
ellipse-curve $-1 -38.443485587121941 -7.2506474928969524 5.3376604388101203 -0.68199836817093118 0 0.7313536940579346 0.7313536940579346 0 0.68199836817093118 1 I I #
face $-1 $-1 $375 $35 $-1 $376 reversed single #
loop $-1 $-1 $169 $163 #
plane-surface $-1 0 0 8.0299447839396709 0 0 1 1 0 0 forward_v I I I I #
coedge $-1 $377 $378 $379 $380 reversed $164 $-1 #
coedge $-1 $381 $166 $168 $268 forward $103 $-1 #
coedge $-1 $166 $381 $377 $382 forward $103 $-1 #
coedge $-1 $379 $169 $166 $265 forward $259 $-1 #
edge $-1 $271 0.63443293316194094 $383 10.038638028917815 $264 $384 forward 7 unknown #
coedge $-1 $385 $386 $167 $267 forward $375 $-1 #
edge $-1 $387 -28.904604069886297 $270 -23.520035379627203 $266 $388 forward 7 unknown #
edge $-1 $271 -7.8952809003049156 $387 2.9218806877328148e-014 $168 $389 forward 7 unknown #
coedge $-1 $169 $379 $385 $390 forward $259 $-1 #
vertex $-1 $170 $391 #
vertex $-1 $170 $392 #
straight-curve $-1 -48.852710045061443 5.9709684142018187 8.0299447839396692 1 0 0 I I #
coedge $-1 $273 $273 $-1 $393 reversed $173 $-1 #
edge $-1 $394 0 $394 6.2831853071796004 $174 $395 forward 7 unknown #
vertex $-1 $177 $396 #
ellipse-curve $-1 -38.443485587121941 8.6578841558463537 5.3376604388101203 -0.68199836817093118 0 0.7313536940579346 0.7313536940579346 0 0.68199836817093118 1 I I #
coedge $-1 $277 $277 $-1 $397 reversed $180 $-1 #
edge $-1 $398 0 $398 6.2831853071796004 $181 $399 forward 7 unknown #
vertex $-1 $184 $400 #
ellipse-curve $-1 -38.443485587121941 12.688257768313164 5.3376604388101203 -0.68199836817093118 0 0.7313536940579346 0.7313536940579346 0 0.68199836817093118 1 I I #
face $-1 $-1 $293 $38 $-1 $401 forward single #
loop $-1 $-1 $402 $185 #
plane-surface $-1 41.330607013153475 0 0 -1 0 0 0 0 1 forward_v I I I I #
coedge $-1 $403 $404 $405 $406 reversed $186 $-1 #
coedge $-1 $407 $188 $190 $291 forward $117 $-1 #
coedge $-1 $188 $407 $403 $408 forward $117 $-1 #
coedge $-1 $405 $191 $188 $288 forward $293 $-1 #
edge $-1 $295 3.143351599177719 $409 9.6451044933423908 $287 $410 forward 7 unknown #
coedge $-1 $411 $412 $189 $290 forward $282 $-1 #
edge $-1 $413 -56.927282459736695 $294 -48.94722726150156 $289 $414 forward 7 unknown #
edge $-1 $295 73.251305366841976 $413 82.661214026306951 $190 $415 forward 7 unknown #
coedge $-1 $191 $405 $411 $416 forward $293 $-1 #
loop $-1 $-1 $405 $281 #
vertex $-1 $290 $417 #
vertex $-1 $192 $418 #
straight-curve $-1 33.813762090035326 -9.5375796454377735 8.0299447839396692 -1 0 0 I I #
coedge $-1 $297 $297 $-1 $419 reversed $195 $-1 #
edge $-1 $420 0 $420 6.2831853071796004 $196 $421 forward 7 unknown #
vertex $-1 $199 $422 #
ellipse-curve $-1 38.837361136159274 -12.788456092520111 4.0399171848221025 0.84804810408105047 0 0.52991925155115449 0.79487887732673168 0 -1.2720721561215758 1 I I #
face $-1 $-1 $215 $30 $-1 $423 reversed single #
loop $-1 $-1 $317 $200 #
plane-surface $-1 0 23.838477982817778 0 0 -1 0 0 0 -1 forward_v I I I I #
coedge $-1 $424 $315 $318 $425 forward $201 $-1 #
coedge $-1 $321 $203 $204 $309 reversed $126 $-1 #
coedge $-1 $315 $424 $203 $307 reversed $201 $-1 #
edge $-1 $322 -8.0299447839396709 $426 8.0299447839396709 $306 $427 forward 7 unknown #
coedge $-1 $205 $204 $424 $428 forward $81 $-1 #
edge $-1 $313 -41.330607013153475 $426 41.330607013153475 $305 $429 forward 7 unknown #
coedge $-1 $318 $317 $205 $311 reversed $302 $-1 #
edge $-1 $430 -41.330607013153475 $312 41.330607013153475 $310 $431 forward 7 unknown #
vertex $-1 $207 $432 #
vertex $-1 $324 $433 #
straight-curve $-1 41.330607013153475 0 -8.0299447839396709 0 -1 0 I I #
coedge $-1 $304 $306 $208 $316 reversed $201 $-1 #
edge $-1 $319 -23.838477982817778 $322 23.838477982817778 $315 $434 forward 7 unknown #
coedge $-1 $310 $209 $214 $325 forward $302 $-1 #
coedge $-1 $209 $310 $304 $425 reversed $302 $-1 #
vertex $-1 $210 $435 #
straight-curve $-1 0 23.838477982817778 8.0299447839396709 -1 0 0 I I #
coedge $-1 $211 $305 $213 $324 reversed $126 $-1 #
vertex $-1 $316 $436 #
straight-curve $-1 0 -23.838477982817778 8.0299447839396709 1 0 0 I I #
edge $-1 $216 -8.0299447839396709 $313 8.0299447839396709 $213 $437 forward 7 unknown #
edge $-1 $217 -8.0299447839396709 $312 8.0299447839396709 $214 $438 forward 7 unknown #
point $-1 41.330607013153475 -23.838477982817778 8.0299447839396709 #
point $-1 41.330607013153475 23.838477982817778 8.0299447839396709 #
face $-1 $-1 $439 $31 $-1 $440 reversed single #
loop $-1 $-1 $229 $219 #
plane-surface $-1 0 -23.838477982817778 0 0 1 0 0 0 1 forward_v I I I I #
coedge $-1 $441 $222 $335 $442 forward $134 $-1 #
coedge $-1 $222 $441 $443 $444 forward $134 $-1 #
edge $-1 $445 -41.330607013153475 $336 41.330607013153475 $222 $446 forward 7 unknown #
coedge $-1 $224 $223 $447 $448 reversed $85 $-1 #
coedge $-1 $225 $231 $331 $442 reversed $220 $-1 #
vertex $-1 $442 $449 #
straight-curve $-1 41.330607013153475 -16.039332539602448 -3.2649723919698355 0 0 1 I I #
coedge $-1 $447 $450 $227 $339 forward $439 $-1 #
edge $-1 $344 -13.869025352212722 $340 -6.0698799089973914 $338 $451 forward 7 unknown #
vertex $-1 $339 $452 #
straight-curve $-1 0 -16.039332539602448 -5.0299447839396709 -1 0 0 I I #
coedge $-1 $453 $229 $450 $454 forward $329 $-1 #
coedge $-1 $229 $453 $231 $346 reversed $329 $-1 #
vertex $-1 $454 $455 #
straight-curve $-1 0 -23.838477982817778 -5.0299447839396709 -1 0 0 I I #
edge $-1 $233 5.0299447839396709 $456 8.0299447839396709 $231 $457 forward 7 unknown #
point $-1 41.330607013153475 -16.039332539602448 -5.0299447839396709 #
point $-1 41.330607013153475 -23.838477982817778 -5.0299447839396709 #
loop $-1 $-1 $243 $235 #
plane-surface $-1 -41.330607013153475 0 0 1 0 0 0 0 -1 forward_v I I I I #
coedge $-1 $352 $238 $240 $356 reversed $142 $-1 #
coedge $-1 $238 $351 $458 $459 reversed $142 $-1 #
coedge $-1 $246 $241 $238 $354 forward $236 $-1 #
edge $-1 $357 -13.296345883971043 $460 -7.5221030319079674 $353 $461 forward 7 unknown #
coedge $-1 $240 $239 $360 $462 reversed $89 $-1 #
edge $-1 $463 -2.9218806877328148e-014 $357 7.8952809003049156 $351 $464 forward 7 unknown #
vertex $-1 $242 $465 #
straight-curve $-1 -35.556364161090393 -4.632917149565178 8.0299447839396709 0 1 0 I I #
coedge $-1 $458 $243 $246 $364 reversed $349 $-1 #
coedge $-1 $243 $458 $355 $462 forward $349 $-1 #
vertex $-1 $244 $466 #
straight-curve $-1 -41.330607013153475 -13.967936847008293 31.549980163566872 0 0 1 I I #
straight-curve $-1 -41.330607013153454 -13.967936847008293 2.6453760936805963 -0.7313536940579346 0 -0.68199836817093118 I I #
edge $-1 $460 4.5637317512524191 $247 13.967936847008293 $359 $467 forward 7 unknown #
point $-1 -41.330607013153475 -13.967936847008293 8.0299447839396709 #
point $-1 -35.5563641610904 -13.967936847008293 8.0299447839396709 #
edge $-1 $468 1 $468 0 $250 $-1 forward 7 unknown #
vertex $-1 $251 $469 #
ellipse-curve $-1 -37.515096133944539 -11.281021105363758 4.3420846606353214 -0.68199836817093118 0 0.7313536940579346 0.7313536940579346 0 0.68199836817093118 1 I I #
point $-1 -37.712131893064019 -11.281021105363758 6.0196588069810684 #
edge $-1 $470 1 $470 0 $254 $-1 forward 7 unknown #
vertex $-1 $255 $471 #
ellipse-curve $-1 -37.515096133944539 -7.2506474928969524 4.3420846606353214 -0.68199836817093118 0 0.7313536940579346 0.7313536940579346 0 0.68199836817093118 1 I I #
point $-1 -37.712131893064019 -7.2506474928969524 6.0196588069810684 #
loop $-1 $-1 $266 $258 #
plane-surface $-1 -41.330607013153475 0 0 1 0 0 0 0 -1 forward_v I I I I #
coedge $-1 $378 $261 $263 $382 reversed $164 $-1 #
coedge $-1 $261 $377 $472 $473 reversed $164 $-1 #
coedge $-1 $269 $264 $261 $380 forward $259 $-1 #
edge $-1 $383 -13.296345883971043 $474 -7.5221030319079674 $379 $475 forward 7 unknown #
coedge $-1 $263 $262 $386 $476 reversed $103 $-1 #
edge $-1 $477 -2.9218806877328148e-014 $383 7.8952809003049156 $377 $478 forward 7 unknown #
vertex $-1 $265 $479 #
straight-curve $-1 -35.556364161090393 5.3365354810398777 8.0299447839396709 0 1 0 I I #
coedge $-1 $472 $266 $269 $390 reversed $375 $-1 #
coedge $-1 $266 $472 $381 $476 forward $375 $-1 #
vertex $-1 $267 $480 #
straight-curve $-1 -41.330607013153475 5.9709684142018187 31.549980163566872 0 0 1 I I #
straight-curve $-1 -41.330607013153454 5.9709684142018187 2.6453760936805963 -0.7313536940579346 0 -0.68199836817093118 I I #
edge $-1 $474 -15.375173509957692 $270 -5.9709684142018187 $385 $481 forward 7 unknown #
point $-1 -41.330607013153475 5.9709684142018187 8.0299447839396709 #
point $-1 -35.5563641610904 5.9709684142018187 8.0299447839396709 #
edge $-1 $482 1 $482 0 $273 $-1 forward 7 unknown #
vertex $-1 $274 $483 #
ellipse-curve $-1 -37.515096133944539 8.6578841558463537 4.3420846606353214 -0.68199836817093118 0 0.7313536940579346 0.7313536940579346 0 0.68199836817093118 1 I I #
point $-1 -37.712131893064019 8.6578841558463537 6.0196588069810684 #
edge $-1 $484 1 $484 0 $277 $-1 forward 7 unknown #
vertex $-1 $278 $485 #
ellipse-curve $-1 -37.515096133944539 12.688257768313164 4.3420846606353214 -0.68199836817093118 0 0.7313536940579346 0.7313536940579346 0 0.68199836817093118 1 I I #
point $-1 -37.712131893064019 12.688257768313164 6.0196588069810684 #
plane-surface $-1 0 0 8.0299447839396709 0 0 1 1 0 0 forward_v I I I I #
coedge $-1 $412 $411 $404 $486 forward $282 $-1 #
coedge $-1 $404 $284 $286 $408 reversed $186 $-1 #
coedge $-1 $284 $403 $402 $486 reversed $186 $-1 #
coedge $-1 $292 $287 $284 $406 forward $293 $-1 #
edge $-1 $409 2.5303531691297465 $487 7.5168449231181498 $405 $488 forward 7 unknown #
coedge $-1 $286 $285 $412 $489 reversed $117 $-1 #
edge $-1 $490 -82.661214026306951 $409 -73.251305366841976 $403 $491 forward 7 unknown #
vertex $-1 $288 $492 #
straight-curve $-1 36.344115259165072 -6.3942280462600545 8.0299447839396692 0 -1 0 I I #
coedge $-1 $402 $289 $292 $416 reversed $282 $-1 #
coedge $-1 $289 $402 $407 $489 forward $282 $-1 #
vertex $-1 $290 $493 #
straight-curve $-1 41.330607013153475 -9.5375796454377735 56.977172045441229 0 0 1 I I #
straight-curve $-1 -2.4731616559768952 -9.5375796454377735 70.15057542175208 0.52991925155115449 0 -0.84804810408105047 I I #
edge $-1 $487 -16.039332539602444 $294 -9.5375796454377735 $411 $494 forward 7 unknown #
point $-1 41.330607013153475 -9.5375796454377735 8.0299447839396709 #
point $-1 36.344115259165072 -9.5375796454377735 8.029944783939662 #
edge $-1 $495 1 $495 0 $297 $-1 forward 7 unknown #
vertex $-1 $298 $496 #
ellipse-curve $-1 37.294740231113138 -12.788456092520111 3.0759806917206611 0.84804810408105047 0 0.52991925155115449 0.79487887732673168 0 -1.2720721561215758 1 I I #
point $-1 39.632240013486012 -12.788456092520111 2.7678450287005294 #
plane-surface $-1 41.330607013153475 0 0 -1 0 0 0 0 1 forward_v I I I I #
coedge $-1 $306 $304 $308 $428 reversed $201 $-1 #
edge $-1 $319 -8.0299447839396709 $430 8.0299447839396709 $318 $497 forward 7 unknown #
vertex $-1 $428 $498 #
straight-curve $-1 -41.330607013153475 -23.838477982817778 0 0 0 -1 I I #
edge $-1 $426 -23.838477982817778 $430 23.838477982817778 $424 $499 forward 7 unknown #
straight-curve $-1 0 -23.838477982817778 -8.0299447839396709 -1 0 0 I I #
vertex $-1 $311 $500 #
straight-curve $-1 0 23.838477982817778 -8.0299447839396709 1 0 0 I I #
point $-1 41.330607013153475 23.838477982817778 -8.0299447839396709 #
point $-1 41.330607013153475 -23.838477982817778 -8.0299447839396709 #
straight-curve $-1 -41.330607013153475 0 8.0299447839396709 0 -1 0 I I #
point $-1 -41.330607013153475 23.838477982817778 8.0299447839396709 #
point $-1 -41.330607013153475 -23.838477982817778 8.0299447839396709 #
straight-curve $-1 41.330607013153475 -23.838477982817778 0 0 0 -1 I I #
straight-curve $-1 41.330607013153475 23.838477982817778 0 0 0 -1 I I #
loop $-1 $-1 $447 $328 #
plane-surface $-1 -41.330607013153475 0 0 1 0 0 0 0 -1 forward_v I I I I #
coedge $-1 $332 $331 $453 $501 forward $134 $-1 #
edge $-1 $336 16.039332539602448 $456 23.838477982817778 $335 $502 forward 7 unknown #
coedge $-1 $450 $447 $332 $444 reversed $439 $-1 #
edge $-1 $503 -23.838477982817778 $445 -16.039332539602448 $443 $504 forward 7 unknown #
vertex $-1 $448 $505 #
straight-curve $-1 0 -16.039332539602448 -8.0299447839396709 1 0 0 I I #
coedge $-1 $443 $338 $334 $448 forward $439 $-1 #
edge $-1 $340 1.7649723919698355 $445 4.7649723919698355 $447 $506 forward 7 unknown #
point $-1 41.330607013153475 -16.039332539602448 -8.0299447839396709 #
coedge $-1 $338 $443 $342 $454 reversed $439 $-1 #
straight-curve $-1 -41.330607013153475 -9.9694526306050566 -5.0299447839396709 0 1 0 I I #
point $-1 -41.330607013153475 -16.039332539602448 -5.0299447839396709 #
coedge $-1 $343 $342 $441 $501 reversed $329 $-1 #
edge $-1 $344 5.0299447839396709 $503 8.0299447839396709 $450 $507 forward 7 unknown #
point $-1 -41.330607013153475 -23.838477982817778 -5.0299447839396709 #
vertex $-1 $346 $508 #
straight-curve $-1 41.330607013153475 -23.838477982817778 0 0 0 -1 I I #
coedge $-1 $360 $359 $352 $459 forward $349 $-1 #
edge $-1 $460 23.520035379627203 $463 28.904604069886297 $458 $509 forward 7 unknown #
vertex $-1 $364 $510 #
straight-curve $-1 -48.852710045061443 -4.5637317512524191 8.0299447839396692 -1 0 0 I I #
edge $-1 $463 -0.069185398312758828 $361 9.3350196974431157 $360 $511 forward 7 unknown #
vertex $-1 $462 $512 #
straight-curve $-1 -41.330607013153454 -4.5637317512524191 2.6453760936805963 0.7313536940579346 0 0.68199836817093118 I I #
point $-1 -35.5563641610904 -4.5637317512524191 8.0299447839396709 #
point $-1 -41.330607013153475 -13.967936847008293 2.6453760936805764 #
straight-curve $-1 -41.330607013153475 0 8.0299447839396709 0 -1 0 I I #
vertex $-1 $367 $513 #
point $-1 -36.783742439886602 -11.281021105363758 5.0240830288062526 #
vertex $-1 $371 $514 #
point $-1 -36.783742439886602 -7.2506474928969524 5.0240830288062526 #
coedge $-1 $386 $385 $378 $473 forward $375 $-1 #
edge $-1 $474 23.520035379627203 $477 28.904604069886297 $472 $515 forward 7 unknown #
vertex $-1 $390 $516 #
straight-curve $-1 -48.852710045061443 15.375173509957692 8.0299447839396692 -1 0 0 I I #
edge $-1 $477 -10.038638028917815 $387 -0.63443293316194094 $386 $517 forward 7 unknown #
vertex $-1 $476 $518 #
straight-curve $-1 -41.330607013153454 15.375173509957692 2.6453760936805963 0.7313536940579346 0 0.68199836817093118 I I #
point $-1 -35.5563641610904 15.375173509957692 8.0299447839396709 #
point $-1 -41.330607013153475 5.9709684142018187 2.6453760936805764 #
straight-curve $-1 -41.330607013153475 0 8.0299447839396709 0 -1 0 I I #
vertex $-1 $393 $519 #
point $-1 -36.783742439886602 8.6578841558463537 5.0240830288062526 #
vertex $-1 $397 $520 #
point $-1 -36.783742439886602 12.688257768313164 5.0240830288062526 #
edge $-1 $487 48.94722726150156 $490 56.927282459736695 $402 $521 forward 7 unknown #
vertex $-1 $416 $522 #
straight-curve $-1 33.813762090035326 -16.039332539602444 8.0299447839396692 1 0 0 I I #
edge $-1 $490 -9.6451044933423908 $413 -3.143351599177719 $412 $523 forward 7 unknown #
vertex $-1 $489 $524 #
straight-curve $-1 -2.4731616559768952 -16.039332539602444 70.15057542175208 -0.52991925155115449 0 0.84804810408105047 I I #
point $-1 36.344115259165072 -16.039332539602444 8.029944783939662 #
point $-1 41.330607013153475 -9.5375796454377735 0.049889585704534056 #
straight-curve $-1 41.330607013153475 0 8.0299447839396709 0 1 0 I I #
vertex $-1 $419 $525 #
point $-1 38.089619108439869 -12.788456092520111 1.8039085355990854 #
straight-curve $-1 -41.330607013153475 23.838477982817778 0 0 0 -1 I I #
point $-1 -41.330607013153475 -23.838477982817778 -8.0299447839396709 #
straight-curve $-1 -41.330607013153475 0 -8.0299447839396709 0 1 0 I I #
point $-1 -41.330607013153475 23.838477982817778 -8.0299447839396709 #
edge $-1 $456 -41.330607013153475 $503 41.330607013153475 $453 $526 forward 7 unknown #
straight-curve $-1 41.330607013153475 0 -8.0299447839396709 0 -1 0 I I #
vertex $-1 $444 $527 #
straight-curve $-1 -41.330607013153475 0 -8.0299447839396709 0 1 0 I I #
point $-1 -41.330607013153475 -16.039332539602448 -8.0299447839396709 #
straight-curve $-1 -41.330607013153475 -16.039332539602448 -3.2649723919698355 0 0 -1 I I #
straight-curve $-1 -41.330607013153475 -23.838477982817778 0 0 0 -1 I I #
point $-1 41.330607013153475 -23.838477982817778 -8.0299447839396709 #
straight-curve $-1 -41.330607013153475 -4.5637317512524191 31.549980163566872 0 0 -1 I I #
point $-1 -41.330607013153475 -4.5637317512524191 8.0299447839396709 #
straight-curve $-1 -41.330607013153475 -4.632917149565178 2.6453760936805772 0 -1 0 I I #
point $-1 -41.330607013153475 -4.5637317512524191 2.6453760936805764 #
point $-1 -36.833097765773601 -11.281021105363758 3.6107309665773863 #
point $-1 -36.833097765773601 -7.2506474928969524 3.6107309665773863 #
straight-curve $-1 -41.330607013153475 15.375173509957692 31.549980163566872 0 0 -1 I I #
point $-1 -41.330607013153475 15.375173509957692 8.0299447839396709 #
straight-curve $-1 -41.330607013153475 5.3365354810398777 2.6453760936805772 0 -1 0 I I #
point $-1 -41.330607013153475 15.375173509957692 2.6453760936805764 #
point $-1 -36.833097765773601 8.6578841558463537 3.6107309665773863 #
point $-1 -36.833097765773601 12.688257768313164 3.6107309665773863 #
straight-curve $-1 41.330607013153475 -16.039332539602444 56.977172045441229 0 0 -1 I I #
point $-1 41.330607013153475 -16.039332539602444 8.0299447839396709 #
straight-curve $-1 41.330607013153475 -6.3942280462600545 0.049889585704541162 0 1 0 I I #
point $-1 41.330607013153475 -16.039332539602444 0.049889585704534056 #
point $-1 36.022668074991557 -12.788456092520111 2.2811018143939292 #
straight-curve $-1 0 -23.838477982817778 -8.0299447839396709 -1 0 0 I I #
point $-1 -41.330607013153475 -23.838477982817778 -8.0299447839396709 #
End-of-ACIS-data 