500 0 4 0           
7 Unknown 11 ACIS 5.0 NT 24 Fri Mar 26 01:52:21 1999 
-1 9.9999999999999995e-007 1e-010 
body $-1 $4 $-1 $5 #
body $-1 $6 $-1 $7 #
body $-1 $8 $-1 $9 #
body $-1 $10 $-1 $11 #
lump $-1 $-1 $12 $0 #
transform $-1 1 0 0 0 1 0 0 0 1 72.308114871669659 46.641569747844166 17.894095811551981 1 rotate no_reflect no_shear #
lump $-1 $-1 $13 $1 #
transform $-1 1 0 0 0 1 0 0 0 1 72.308114871669659 46.641569747844166 17.894095811551981 1 rotate no_reflect no_shear #
lump $-1 $-1 $14 $2 #
transform $-1 1 0 0 0 1 0 0 0 1 72.308114871669659 46.641569747844166 17.894095811551981 1 rotate no_reflect no_shear #
lump $-1 $-1 $15 $3 #
transform $-1 1 0 0 0 1 0 0 0 1 72.308114871669659 46.641569747844166 17.894095811551981 1 rotate no_reflect no_shear #
shell $-1 $-1 $-1 $16 $-1 $4 #
shell $-1 $-1 $-1 $17 $-1 $6 #
shell $-1 $-1 $-1 $18 $-1 $8 #
shell $-1 $-1 $-1 $19 $-1 $10 #
face $-1 $20 $21 $12 $-1 $22 forward single #
face $-1 $23 $24 $13 $-1 $25 reversed single #
face $-1 $26 $27 $14 $-1 $28 forward single #
face $-1 $29 $30 $15 $-1 $31 forward single #
face $-1 $32 $33 $12 $-1 $34 reversed single #
loop $-1 $-1 $35 $16 #
plane-surface $-1 0 0 17.894095811551981 0 0 1 1 0 0 forward_v I I I I #
face $-1 $36 $37 $13 $-1 $38 reversed single #
loop $-1 $-1 $39 $17 #
plane-surface $-1 -153.17648532186058 32.441704899351976 132.57501879686549 0 1 0 -0.55919291073839883 0 0.82903756765294845 forward_v I I I I #
face $-1 $40 $41 $14 $-1 $42 forward single #
loop $-1 $43 $44 $18 #
cone-surface $-1 -67.376538097452638 36.498809141778317 13.704305940915821 0.55919291073839883 0 -0.82903756765294845 0.82903756765294845 0 0.55919291073839883 1 I I 0 1 1 forward I I I I #
face $-1 $45 $46 $15 $-1 $47 forward single #
loop $-1 $48 $49 $19 #
cone-surface $-1 -67.376538097452638 42.584465505417832 13.704305940915821 0.55919291073839883 0 -0.82903756765294845 0.82903756765294845 0 0.55919291073839883 1 I I 0 1 1 forward I I I I #
face $-1 $50 $51 $12 $-1 $52 reversed single #
loop $-1 $-1 $53 $20 #
plane-surface $-1 0 0 -17.894095811551981 0 0 1 1 0 0 forward_v I I I I #
coedge $-1 $54 $55 $56 $57 forward $21 $-1 #
face $-1 $58 $59 $13 $-1 $60 forward single #
loop $-1 $-1 $61 $23 #
plane-surface $-1 -72.308114871669659 39.541637323598074 12.682731447307489 -0.55919291073839883 0 0.82903756765294845 0.82903756765294845 0 0.55919291073839883 forward_v I I I I #
coedge $-1 $62 $63 $64 $65 reversed $24 $-1 #
face $-1 $-1 $66 $14 $-1 $67 forward single #
loop $-1 $68 $69 $26 #
cone-surface $-1 -66.028447494380373 36.498809141778317 11.705679468575447 0.55919291073839883 0 -0.82903756765294845 0.41451878382647422 0 0.27959645536919941 1 I I -0.70710678118654746 0.70710678118654746 0.5 forward I I I I #
loop $-1 $-1 $70 $18 #
coedge $-1 $44 $44 $71 $72 reversed $27 $-1 #
face $-1 $-1 $73 $15 $-1 $74 forward single #
loop $-1 $75 $76 $29 #
cone-surface $-1 -66.028447494380373 42.584465505417832 11.705679468575447 0.55919291073839883 0 -0.82903756765294845 0.41451878382647422 0 0.27959645536919941 1 I I -0.70710678118654746 0.70710678118654746 0.5 forward I I I I #
loop $-1 $-1 $77 $19 #
coedge $-1 $49 $49 $78 $79 reversed $30 $-1 #
face $-1 $80 $81 $12 $-1 $82 reversed single #
loop $-1 $-1 $83 $32 #
plane-surface $-1 0 -46.641569747844166 0 0 1 0 0 0 1 forward_v I I I I #
coedge $-1 $84 $85 $86 $87 forward $33 $-1 #
coedge $-1 $88 $35 $89 $90 forward $21 $-1 #
coedge $-1 $35 $88 $91 $92 forward $21 $-1 #
coedge $-1 $93 $94 $35 $57 reversed $95 $-1 #
edge $-1 $96 -46.641569747844166 $97 46.641569747844166 $56 $98 forward 7 unknown #
face $-1 $99 $100 $13 $-1 $101 reversed single #
loop $-1 $-1 $64 $36 #
plane-surface $-1 0 0 17.894095811551981 0 0 1 1 0 0 forward_v I I I I #
coedge $-1 $102 $103 $104 $105 reversed $37 $-1 #
coedge $-1 $63 $39 $106 $107 reversed $24 $-1 #
coedge $-1 $39 $62 $102 $108 reversed $24 $-1 #
coedge $-1 $104 $109 $39 $65 forward $59 $-1 #
edge $-1 $110 4.2801277892606322 $111 12.006293042288462 $64 $112 forward 7 unknown #
loop $-1 $-1 $71 $40 #
plane-surface $-1 -72.308114871669659 39.541637323598074 12.682731447307489 -0.55919291073839883 0 0.82903756765294845 0.82903756765294845 0 0.55919291073839883 forward_v I I I I #
loop $-1 $-1 $113 $26 #
coedge $-1 $69 $69 $70 $114 reversed $41 $-1 #
coedge $-1 $70 $70 $69 $114 forward $43 $-1 #
coedge $-1 $71 $71 $44 $72 forward $66 $-1 #
edge $-1 $115 0 $115 6.2831853071796004 $71 $116 forward 7 unknown #
loop $-1 $-1 $78 $45 #
plane-surface $-1 -72.308114871669659 39.541637323598074 12.682731447307489 -0.55919291073839883 0 0.82903756765294845 0.82903756765294845 0 0.55919291073839883 forward_v I I I I #
loop $-1 $-1 $117 $29 #
coedge $-1 $76 $76 $77 $118 reversed $46 $-1 #
coedge $-1 $77 $77 $76 $118 forward $48 $-1 #
coedge $-1 $78 $78 $49 $79 forward $73 $-1 #
edge $-1 $119 0 $119 6.2831853071796004 $78 $120 forward 7 unknown #
face $-1 $121 $122 $12 $-1 $123 reversed single #
loop $-1 $-1 $124 $50 #
plane-surface $-1 -72.308114871669659 0 0 1 0 0 0 0 -1 forward_v I I I I #
coedge $-1 $125 $91 $126 $127 forward $51 $-1 #
coedge $-1 $128 $53 $125 $129 forward $33 $-1 #
coedge $-1 $53 $128 $130 $131 forward $33 $-1 #
coedge $-1 $94 $93 $53 $87 reversed $95 $-1 #
edge $-1 $132 -46.641569747844166 $133 46.641569747844166 $86 $134 forward 7 unknown #
coedge $-1 $55 $54 $135 $136 forward $21 $-1 #
coedge $-1 $137 $138 $54 $90 reversed $122 $-1 #
edge $-1 $97 -72.308114871669659 $139 72.308114871669659 $89 $140 forward 7 unknown #
coedge $-1 $83 $141 $55 $92 reversed $51 $-1 #
edge $-1 $142 -72.308114871669659 $96 72.308114871669659 $91 $143 forward 7 unknown #
coedge $-1 $86 $56 $141 $144 forward $95 $-1 #
coedge $-1 $56 $86 $137 $145 reversed $95 $-1 #
loop $-1 $-1 $93 $121 #
vertex $-1 $57 $146 #
vertex $-1 $57 $147 #
straight-curve $-1 72.308114871669659 0 17.894095811551981 0 1 0 I I #
face $-1 $-1 $148 $13 $-1 $149 reversed single #
loop $-1 $-1 $150 $58 #
plane-surface $-1 0 46.641569747844166 0 0 -1 0 0 0 -1 forward_v I I I I #
coedge $-1 $151 $61 $63 $108 forward $37 $-1 #
coedge $-1 $61 $151 $150 $152 reversed $37 $-1 #
coedge $-1 $153 $64 $61 $105 forward $59 $-1 #
edge $-1 $111 12.670886237552939 $154 26.870751086045136 $104 $155 forward 7 unknown #
coedge $-1 $156 $157 $62 $107 forward $148 $-1 #
edge $-1 $158 -53.604777951125257 $110 -48.393413586880769 $106 $159 forward 7 unknown #
edge $-1 $111 -9.319439256415162 $158 0 $63 $160 forward 7 unknown #
coedge $-1 $64 $153 $156 $161 forward $59 $-1 #
vertex $-1 $107 $162 #
vertex $-1 $65 $163 #
straight-curve $-1 -76.588242660930291 32.441704899351976 17.894095811551978 1 0 0 I I #
coedge $-1 $113 $113 $-1 $164 reversed $68 $-1 #
edge $-1 $165 0 $165 6.2831853071796004 $69 $166 forward 7 unknown #
vertex $-1 $72 $167 #
ellipse-curve $-1 -68.44503224515573 36.498809141778317 15.288413629429748 -0.55919291073839883 0 0.82903756765294845 0.82903756765294845 0 0.55919291073839883 1 I I #
coedge $-1 $117 $117 $-1 $168 reversed $75 $-1 #
edge $-1 $169 0 $169 6.2831853071796004 $76 $170 forward 7 unknown #
vertex $-1 $79 $171 #
ellipse-curve $-1 -68.44503224515573 42.584465505417832 15.288413629429748 -0.55919291073839883 0 0.82903756765294845 0.82903756765294845 0 0.55919291073839883 1 I I #
face $-1 $-1 $95 $12 $-1 $172 reversed single #
loop $-1 $-1 $137 $80 #
plane-surface $-1 0 46.641569747844166 0 0 -1 0 0 0 -1 forward_v I I I I #
coedge $-1 $173 $135 $138 $174 forward $81 $-1 #
coedge $-1 $141 $83 $84 $129 reversed $51 $-1 #
coedge $-1 $135 $173 $83 $127 reversed $81 $-1 #
edge $-1 $142 -17.894095811551981 $175 17.894095811551981 $126 $176 forward 7 unknown #
coedge $-1 $85 $84 $173 $177 forward $33 $-1 #
edge $-1 $133 -72.308114871669659 $175 72.308114871669659 $125 $178 forward 7 unknown #
coedge $-1 $138 $137 $85 $131 reversed $122 $-1 #
edge $-1 $179 -72.308114871669659 $132 72.308114871669659 $130 $180 forward 7 unknown #
vertex $-1 $87 $181 #
vertex $-1 $144 $182 #
straight-curve $-1 72.308114871669659 0 -17.894095811551981 0 -1 0 I I #
coedge $-1 $124 $126 $88 $136 reversed $81 $-1 #
edge $-1 $139 -46.641569747844166 $142 46.641569747844166 $135 $183 forward 7 unknown #
coedge $-1 $130 $89 $94 $145 forward $122 $-1 #
coedge $-1 $89 $130 $124 $174 reversed $122 $-1 #
vertex $-1 $90 $184 #
straight-curve $-1 0 46.641569747844166 17.894095811551981 -1 0 0 I I #
coedge $-1 $91 $125 $93 $144 reversed $51 $-1 #
vertex $-1 $136 $185 #
straight-curve $-1 0 -46.641569747844166 17.894095811551981 1 0 0 I I #
edge $-1 $96 -17.894095811551981 $133 17.894095811551981 $93 $186 forward 7 unknown #
edge $-1 $97 -17.894095811551981 $132 17.894095811551981 $94 $187 forward 7 unknown #
point $-1 72.308114871669659 -46.641569747844166 17.894095811551981 #
point $-1 72.308114871669659 46.641569747844166 17.894095811551981 #
loop $-1 $-1 $106 $99 #
plane-surface $-1 -72.308114871669659 0 0 1 0 0 0 0 -1 forward_v I I I I #
coedge $-1 $188 $189 $103 $152 forward $100 $-1 #
coedge $-1 $103 $102 $157 $190 reversed $37 $-1 #
edge $-1 $154 17.107585823907691 $191 26.427025080322856 $150 $192 forward 7 unknown #
coedge $-1 $109 $104 $189 $193 forward $59 $-1 #
vertex $-1 $193 $194 #
straight-curve $-1 -64.581949618641829 19.770818661799037 17.894095811551981 0 1 0 I I #
coedge $-1 $195 $106 $109 $161 reversed $148 $-1 #
coedge $-1 $106 $195 $151 $190 forward $148 $-1 #
vertex $-1 $107 $196 #
straight-curve $-1 -72.308114871669659 32.441704899351976 66.287509398432746 0 0 1 I I #
straight-curve $-1 -72.308114871669659 32.441704899351976 12.682731447307489 -0.82903756765294845 0 -0.55919291073839883 I I #
edge $-1 $197 -46.641569747844166 $110 -32.441704899351976 $156 $198 forward 7 unknown #
point $-1 -72.308114871669659 32.441704899351976 17.894095811551981 #
point $-1 -64.581949618641829 32.441704899351976 17.894095811551981 #
edge $-1 $199 1 $199 0 $113 $-1 forward 7 unknown #
vertex $-1 $114 $200 #
ellipse-curve $-1 -66.308043949749575 36.498809141778317 12.120198252401922 -0.55919291073839883 0 0.82903756765294845 0.82903756765294845 0 0.55919291073839883 1 I I #
point $-1 -67.615994677502769 36.498809141778317 15.847606540168121 #
edge $-1 $201 1 $201 0 $117 $-1 forward 7 unknown #
vertex $-1 $118 $202 #
ellipse-curve $-1 -66.308043949749575 42.584465505417832 12.120198252401922 -0.55919291073839883 0 0.82903756765294845 0.82903756765294845 0 0.55919291073839883 1 I I #
point $-1 -67.615994677502769 42.584465505417832 15.847606540168121 #
plane-surface $-1 72.308114871669659 0 0 -1 0 0 0 0 1 forward_v I I I I #
coedge $-1 $126 $124 $128 $177 reversed $81 $-1 #
edge $-1 $139 -17.894095811551981 $179 17.894095811551981 $138 $203 forward 7 unknown #
vertex $-1 $177 $204 #
straight-curve $-1 -72.308114871669659 -46.641569747844166 0 0 0 -1 I I #
edge $-1 $175 -46.641569747844166 $179 46.641569747844166 $173 $205 forward 7 unknown #
straight-curve $-1 0 -46.641569747844166 -17.894095811551981 -1 0 0 I I #
vertex $-1 $131 $206 #
straight-curve $-1 0 46.641569747844166 -17.894095811551981 1 0 0 I I #
point $-1 72.308114871669659 46.641569747844166 -17.894095811551981 #
point $-1 72.308114871669659 -46.641569747844166 -17.894095811551981 #
straight-curve $-1 -72.308114871669659 0 17.894095811551981 0 -1 0 I I #
point $-1 -72.308114871669659 46.641569747844166 17.894095811551981 #
point $-1 -72.308114871669659 -46.641569747844166 17.894095811551981 #
straight-curve $-1 72.308114871669659 -46.641569747844166 0 0 0 -1 I I #
straight-curve $-1 72.308114871669659 46.641569747844166 0 0 0 -1 I I #
coedge $-1 $189 $150 $195 $207 reversed $100 $-1 #
coedge $-1 $150 $188 $153 $193 reversed $100 $-1 #
edge $-1 $191 -26.870751086045136 $158 -12.670886237552939 $157 $208 forward 7 unknown #
vertex $-1 $152 $209 #
straight-curve $-1 -50.399118278775333 46.641569747844166 27.460536524129893 -0.82903756765294845 0 -0.55919291073839883 I I #
edge $-1 $154 64.581949618641829 $197 72.308114871669659 $189 $210 forward 7 unknown #
point $-1 -64.581949618641829 46.641569747844173 17.894095811551981 #
coedge $-1 $157 $156 $188 $207 forward $148 $-1 #
point $-1 -72.308114871669659 32.441704899351976 12.682731447307489 #
vertex $-1 $193 $211 #
straight-curve $-1 -72.308114871669659 0 17.894095811551981 0 -1 0 I I #
vertex $-1 $164 $212 #
point $-1 -65.479006382096628 36.498809141778317 12.67939116314032 #
vertex $-1 $168 $213 #
point $-1 -65.479006382096628 42.584465505417832 12.67939116314032 #
straight-curve $-1 -72.308114871669659 46.641569747844166 0 0 0 -1 I I #
point $-1 -72.308114871669659 -46.641569747844166 -17.894095811551981 #
straight-curve $-1 -72.308114871669659 0 -17.894095811551981 0 1 0 I I #
point $-1 -72.308114871669659 46.641569747844166 -17.894095811551981 #
edge $-1 $197 -17.894095811551981 $191 -12.682731447307489 $188 $214 forward 7 unknown #
straight-curve $-1 -72.308114871669659 19.770818661799037 12.682731447307487 0 -1 0 I I #
point $-1 -72.308114871669659 46.641569747844173 12.682731447307489 #
straight-curve $-1 0 46.641569747844166 17.894095811551981 -1 0 0 I I #
point $-1 -72.308114871669659 46.641569747844166 17.894095811551981 #
point $-1 -65.748851039011171 36.498809141778317 11.291160684748972 #
point $-1 -65.748851039011171 42.584465505417832 11.291160684748972 #
straight-curve $-1 -72.308114871669659 46.641569747844166 0 0 0 -1 I I #
End-of-ACIS-data 