500 0 11 0           
7 Unknown 11 ACIS 5.0 NT 24 Fri Mar 26 00:29:00 1999 
-1 9.9999999999999995e-007 1e-010 
body $-1 $11 $-1 $12 #
body $-1 $13 $-1 $14 #
body $-1 $15 $-1 $16 #
body $-1 $17 $-1 $18 #
body $-1 $19 $-1 $20 #
body $-1 $21 $-1 $22 #
body $-1 $23 $-1 $24 #
body $-1 $25 $-1 $26 #
body $-1 $27 $-1 $28 #
body $-1 $29 $-1 $30 #
body $-1 $31 $-1 $32 #
lump $-1 $-1 $33 $0 #
transform $-1 1 0 0 0 1 0 0 0 1 76.927396465956605 46.035530841456435 14.10597675427946 1 rotate no_reflect no_shear #
lump $-1 $-1 $34 $1 #
transform $-1 1 0 0 0 1 0 0 0 1 76.927396465956605 46.035530841456435 14.10597675427946 1 rotate no_reflect no_shear #
lump $-1 $-1 $35 $2 #
transform $-1 1 0 0 0 1 0 0 0 1 76.927396465956605 46.035530841456435 14.10597675427946 1 rotate no_reflect no_shear #
lump $-1 $-1 $36 $3 #
transform $-1 1 0 0 0 1 0 0 0 1 76.927396465956605 46.035530841456435 14.10597675427946 1 rotate no_reflect no_shear #
lump $-1 $-1 $37 $4 #
transform $-1 1 0 0 0 1 0 0 0 1 76.927396465956605 46.035530841456435 14.10597675427946 1 rotate no_reflect no_shear #
lump $-1 $-1 $38 $5 #
transform $-1 1 0 0 0 1 0 0 0 1 76.927396465956605 46.035530841456435 14.10597675427946 1 rotate no_reflect no_shear #
lump $-1 $-1 $39 $6 #
transform $-1 1 0 0 0 1 0 0 0 1 76.927396465956605 46.035530841456435 14.10597675427946 1 rotate no_reflect no_shear #
lump $-1 $-1 $40 $7 #
transform $-1 1 0 0 0 1 0 0 0 1 76.927396465956605 46.035530841456435 14.10597675427946 1 rotate no_reflect no_shear #
lump $-1 $-1 $41 $8 #
transform $-1 1 0 0 0 1 0 0 0 1 76.927396465956605 46.035530841456435 14.10597675427946 1 rotate no_reflect no_shear #
lump $-1 $-1 $42 $9 #
transform $-1 1 0 0 0 1 0 0 0 1 76.927396465956605 46.035530841456435 14.10597675427946 1 rotate no_reflect no_shear #
lump $-1 $-1 $43 $10 #
transform $-1 1 0 0 0 1 0 0 0 1 76.927396465956605 46.035530841456435 14.10597675427946 1 rotate no_reflect no_shear #
shell $-1 $-1 $-1 $44 $-1 $11 #
shell $-1 $-1 $-1 $45 $-1 $13 #
shell $-1 $-1 $-1 $46 $-1 $15 #
shell $-1 $-1 $-1 $47 $-1 $17 #
shell $-1 $-1 $-1 $48 $-1 $19 #
shell $-1 $-1 $-1 $49 $-1 $21 #
shell $-1 $-1 $-1 $50 $-1 $23 #
shell $-1 $-1 $-1 $51 $-1 $25 #
shell $-1 $-1 $-1 $52 $-1 $27 #
shell $-1 $-1 $-1 $53 $-1 $29 #
shell $-1 $-1 $-1 $54 $-1 $31 #
face $-1 $55 $56 $33 $-1 $57 forward single #
face $-1 $58 $59 $34 $-1 $60 forward single #
face $-1 $61 $62 $35 $-1 $63 reversed single #
face $-1 $64 $65 $36 $-1 $66 forward single #
face $-1 $67 $68 $37 $-1 $69 forward single #
face $-1 $70 $71 $38 $-1 $72 reversed single #
face $-1 $73 $74 $39 $-1 $75 forward single #
face $-1 $76 $77 $40 $-1 $78 forward single #
face $-1 $79 $80 $41 $-1 $81 reversed single #
face $-1 $82 $83 $42 $-1 $84 forward single #
face $-1 $85 $86 $43 $-1 $87 forward single #
face $-1 $88 $89 $33 $-1 $90 reversed single #
loop $-1 $-1 $91 $44 #
plane-surface $-1 0 0 14.10597675427946 0 0 1 1 0 0 forward_v I I I I #
face $-1 $92 $93 $34 $-1 $94 reversed single #
loop $-1 $-1 $95 $45 #
plane-surface $-1 0 -36.986129390249168 13.34062260407123 0 0 1 1 0 0 forward_v I I I I #
face $-1 $96 $97 $35 $-1 $98 reversed single #
loop $-1 $-1 $99 $46 #
plane-surface $-1 -9.107110064850076 -19.717086402746407 137.33721910244341 0.82903758062907751 0 0.55919289150049634 0.55919289150049634 0 -0.82903758062907751 forward_v I I I I #
face $-1 $100 $101 $36 $-1 $102 forward single #
loop $-1 $103 $104 $47 #
cone-surface $-1 74.054192823294926 -23.239789918301618 10.990649375079233 -0.82903758062907751 0 -0.55919289150049634 0.55919289150049634 0 -0.82903758062907751 1 I I 0 1 1 forward I I I I #
face $-1 $105 $106 $37 $-1 $107 forward single #
loop $-1 $108 $109 $48 #
cone-surface $-1 74.054192823294926 -16.194382887191196 10.990649375079233 -0.82903758062907751 0 -0.55919289150049634 0.55919289150049634 0 -0.82903758062907751 1 I I 0 1 1 forward I I I I #
face $-1 $110 $111 $38 $-1 $112 reversed single #
loop $-1 $-1 $113 $49 #
plane-surface $-1 118.44429523561095 9.0494014512072631 223.37172563325009 0 1 0 0.82903758062907751 0 0.55919289150049634 forward_v I I I I #
face $-1 $114 $115 $39 $-1 $116 forward single #
loop $-1 $117 $118 $50 #
cone-surface $-1 74.054192823294926 13.74633947194755 10.990649375079233 -0.82903758062907751 0 -0.55919289150049634 0.55919289150049634 0 -0.82903758062907751 1 I I 0 1 1 forward I I I I #
face $-1 $119 $120 $40 $-1 $121 forward single #
loop $-1 $122 $123 $51 #
cone-surface $-1 74.054192823294926 20.791746503057979 10.990649375079233 -0.82903758062907751 0 -0.55919289150049634 0.55919289150049634 0 -0.82903758062907751 1 I I 0 1 1 forward I I I I #
face $-1 $124 $125 $41 $-1 $126 reversed single #
loop $-1 $-1 $127 $52 #
plane-surface $-1 -204.4788017664176 -2.5112515356257745 89.720455723677219 0 1 0 -0.82903758062907751 0 0.55919289150049634 forward_v I I I I #
face $-1 $128 $129 $42 $-1 $130 forward single #
loop $-1 $131 $132 $53 #
cone-surface $-1 -72.442082610404185 2.1111882234562387 8.2409374552786154 0.82903758062907751 0 -0.55919289150049634 0.55919289150049634 0 0.82903758062907751 1 I I 0 1 1 forward I I I I #
face $-1 $133 $134 $43 $-1 $135 forward single #
loop $-1 $136 $137 $54 #
cone-surface $-1 -72.442082610404185 9.0448478620792585 8.2409374552786154 0.82903758062907751 0 -0.55919289150049634 0.55919289150049634 0 0.82903758062907751 1 I I 0 1 1 forward I I I I #
face $-1 $138 $139 $33 $-1 $140 reversed single #
loop $-1 $-1 $141 $55 #
plane-surface $-1 0 0 -14.10597675427946 0 0 1 1 0 0 forward_v I I I I #
coedge $-1 $142 $143 $144 $145 forward $56 $-1 #
face $-1 $146 $147 $34 $-1 $148 reversed single #
loop $-1 $-1 $149 $58 #
plane-surface $-1 0 -36.986129390249168 8.0941997181065783 0 0 1 1 0 0 forward_v I I I I #
coedge $-1 $150 $151 $152 $153 reversed $59 $-1 #
face $-1 $154 $155 $35 $-1 $156 reversed single #
loop $-1 $-1 $157 $61 #
plane-surface $-1 118.44429523561095 -11.497444866450913 223.37172563325009 0 -1 0 -0.82903758062907751 0 -0.55919289150049634 forward_v I I I I #
coedge $-1 $158 $159 $160 $161 reversed $62 $-1 #
face $-1 $-1 $162 $36 $-1 $163 forward single #
loop $-1 $164 $165 $64 #
cone-surface $-1 72.223463697675896 -23.239789918301618 9.7558070262773029 -0.82903758062907751 0 -0.55919289150049634 0.27959644575024817 0 -0.41451879031453875 1 I I -0.70710678118654746 0.70710678118654746 0.5 forward I I I I #
loop $-1 $-1 $166 $47 #
coedge $-1 $104 $104 $167 $168 reversed $65 $-1 #
face $-1 $-1 $169 $37 $-1 $170 forward single #
loop $-1 $171 $172 $67 #
cone-surface $-1 72.223463697675896 -16.194382887191196 9.7558070262773029 -0.82903758062907751 0 -0.55919289150049634 0.27959644575024817 0 -0.41451879031453875 1 I I -0.70710678118654746 0.70710678118654746 0.5 forward I I I I #
loop $-1 $-1 $173 $48 #
coedge $-1 $109 $109 $174 $175 reversed $68 $-1 #
face $-1 $176 $177 $38 $-1 $178 reversed single #
loop $-1 $-1 $179 $70 #
plane-surface $-1 -9.107110064850076 17.269042987502758 137.33721910244341 0.82903758062907751 0 0.55919289150049634 0.55919289150049634 0 -0.82903758062907751 forward_v I I I I #
coedge $-1 $180 $181 $182 $183 reversed $71 $-1 #
face $-1 $-1 $184 $39 $-1 $185 forward single #
loop $-1 $186 $187 $73 #
cone-surface $-1 72.223463697675896 13.74633947194755 9.7558070262773029 -0.82903758062907751 0 -0.55919289150049634 0.27959644575024817 0 -0.41451879031453875 1 I I -0.70710678118654746 0.70710678118654746 0.5 forward I I I I #
loop $-1 $-1 $188 $50 #
coedge $-1 $118 $118 $189 $190 reversed $74 $-1 #
face $-1 $-1 $191 $40 $-1 $192 forward single #
loop $-1 $193 $194 $76 #
cone-surface $-1 72.223463697675896 20.791746503057979 9.7558070262773029 -0.82903758062907751 0 -0.55919289150049634 0.27959644575024817 0 -0.41451879031453875 1 I I -0.70710678118654746 0.70710678118654746 0.5 forward I I I I #
loop $-1 $-1 $195 $51 #
coedge $-1 $123 $123 $196 $197 reversed $77 $-1 #
face $-1 $198 $199 $41 $-1 $200 reversed single #
loop $-1 $-1 $201 $79 #
plane-surface $-1 -76.927396465956576 5.5780180427677521 3.6859491928705381 -0.82903758062907751 0 0.55919289150049634 0.55919289150049634 0 0.82903758062907751 forward_v I I I I #
coedge $-1 $202 $203 $204 $205 reversed $80 $-1 #
face $-1 $-1 $206 $42 $-1 $207 forward single #
loop $-1 $208 $209 $82 #
cone-surface $-1 -71.056448523037872 2.1111882234562387 7.3063154912319774 0.82903758062907751 0 -0.55919289150049634 0.27959644575024817 0 0.41451879031453875 1 I I -0.70710678118654746 0.70710678118654746 0.5 forward I I I I #
loop $-1 $-1 $210 $53 #
coedge $-1 $132 $132 $211 $212 reversed $83 $-1 #
face $-1 $-1 $213 $43 $-1 $214 forward single #
loop $-1 $215 $216 $85 #
cone-surface $-1 -71.056448523037872 9.0448478620792585 7.3063154912319774 0.82903758062907751 0 -0.55919289150049634 0.27959644575024817 0 0.41451879031453875 1 I I -0.70710678118654746 0.70710678118654746 0.5 forward I I I I #
loop $-1 $-1 $217 $54 #
coedge $-1 $137 $137 $218 $219 reversed $86 $-1 #
face $-1 $220 $221 $33 $-1 $222 reversed single #
loop $-1 $-1 $223 $88 #
plane-surface $-1 0 -46.035530841456435 0 0 1 0 0 0 1 forward_v I I I I #
coedge $-1 $224 $225 $226 $227 forward $89 $-1 #
coedge $-1 $228 $91 $229 $230 forward $56 $-1 #
coedge $-1 $91 $228 $231 $232 forward $56 $-1 #
coedge $-1 $233 $234 $91 $145 reversed $235 $-1 #
edge $-1 $236 -46.035530841456435 $237 46.035530841456435 $144 $238 forward 7 unknown #
face $-1 $239 $240 $34 $-1 $241 reversed single #
loop $-1 $-1 $242 $92 #
plane-surface $-1 0 -27.936727939041901 10.717411161088904 0 -1 0 0 0 -1 forward_v I I I I #
coedge $-1 $243 $244 $245 $246 reversed $93 $-1 #
coedge $-1 $247 $95 $248 $249 forward $59 $-1 #
coedge $-1 $95 $247 $250 $251 reversed $59 $-1 #
coedge $-1 $252 $253 $95 $153 forward $254 $-1 #
edge $-1 $255 9.4436632439173174 $256 27.542466146331851 $152 $257 forward 7 unknown #
face $-1 $258 $259 $35 $-1 $260 forward single #
loop $-1 $-1 $261 $96 #
plane-surface $-1 76.927396465956605 0 0 -1 0 0 0 0 1 forward_v I I I I #
coedge $-1 $262 $263 $264 $265 reversed $97 $-1 #
coedge $-1 $266 $99 $267 $268 reversed $62 $-1 #
coedge $-1 $99 $266 $262 $269 forward $62 $-1 #
coedge $-1 $264 $261 $99 $161 forward $155 $-1 #
edge $-1 $270 -18.0781847376687 $271 -1.6389016650777091 $160 $272 forward 7 unknown #
loop $-1 $-1 $167 $100 #
plane-surface $-1 -9.107110064850076 -19.717086402746407 137.33721910244341 0.82903758062907751 0 0.55919289150049634 0.55919289150049634 0 -0.82903758062907751 forward_v I I I I #
loop $-1 $-1 $273 $64 #
coedge $-1 $165 $165 $166 $274 reversed $101 $-1 #
coedge $-1 $166 $166 $165 $274 forward $103 $-1 #
coedge $-1 $167 $167 $104 $168 forward $162 $-1 #
edge $-1 $275 0 $275 6.2831853071796004 $167 $276 forward 7 unknown #
loop $-1 $-1 $174 $105 #
plane-surface $-1 -9.107110064850076 -19.717086402746407 137.33721910244341 0.82903758062907751 0 0.55919289150049634 0.55919289150049634 0 -0.82903758062907751 forward_v I I I I #
loop $-1 $-1 $277 $67 #
coedge $-1 $172 $172 $173 $278 reversed $106 $-1 #
coedge $-1 $173 $173 $172 $278 forward $108 $-1 #
coedge $-1 $174 $174 $109 $175 forward $169 $-1 #
edge $-1 $279 0 $279 6.2831853071796004 $174 $280 forward 7 unknown #
face $-1 $281 $282 $38 $-1 $283 forward single #
loop $-1 $-1 $284 $110 #
plane-surface $-1 118.44429523561095 25.488684523798252 223.37172563325009 0 -1 0 -0.82903758062907751 0 -0.55919289150049634 forward_v I I I I #
coedge $-1 $285 $286 $287 $288 reversed $111 $-1 #
coedge $-1 $181 $113 $289 $290 reversed $71 $-1 #
coedge $-1 $113 $180 $285 $291 reversed $71 $-1 #
coedge $-1 $287 $292 $113 $183 forward $293 $-1 #
edge $-1 $294 97.579886062345594 $295 101.90004901464266 $182 $296 forward 7 unknown #
loop $-1 $-1 $189 $114 #
plane-surface $-1 -9.107110064850076 17.269042987502758 137.33721910244341 0.82903758062907751 0 0.55919289150049634 0.55919289150049634 0 -0.82903758062907751 forward_v I I I I #
loop $-1 $-1 $297 $73 #
coedge $-1 $187 $187 $188 $298 reversed $115 $-1 #
coedge $-1 $188 $188 $187 $298 forward $117 $-1 #
coedge $-1 $189 $189 $118 $190 forward $184 $-1 #
edge $-1 $299 0 $299 6.2831853071796004 $189 $300 forward 7 unknown #
loop $-1 $-1 $196 $119 #
plane-surface $-1 -9.107110064850076 17.269042987502758 137.33721910244341 0.82903758062907751 0 0.55919289150049634 0.55919289150049634 0 -0.82903758062907751 forward_v I I I I #
loop $-1 $-1 $301 $76 #
coedge $-1 $194 $194 $195 $302 reversed $120 $-1 #
coedge $-1 $195 $195 $194 $302 forward $122 $-1 #
coedge $-1 $196 $196 $123 $197 forward $191 $-1 #
edge $-1 $303 0 $303 6.2831853071796004 $196 $304 forward 7 unknown #
face $-1 $305 $306 $41 $-1 $307 reversed single #
loop $-1 $-1 $308 $124 #
plane-surface $-1 -204.4788017664176 13.667287621161279 89.720455723677219 0 -1 0 0.82903758062907751 0 -0.55919289150049634 forward_v I I I I #
coedge $-1 $309 $310 $311 $312 reversed $125 $-1 #
coedge $-1 $203 $127 $313 $314 reversed $80 $-1 #
coedge $-1 $127 $202 $309 $315 reversed $80 $-1 #
coedge $-1 $311 $316 $127 $205 forward $317 $-1 #
edge $-1 $318 25.312004417252197 $319 32.340401534253502 $204 $320 forward 7 unknown #
loop $-1 $-1 $211 $128 #
plane-surface $-1 -76.927396465956576 5.5780180427677521 3.6859491928705381 -0.82903758062907751 0 0.55919289150049634 0.55919289150049634 0 0.82903758062907751 forward_v I I I I #
loop $-1 $-1 $321 $82 #
coedge $-1 $209 $209 $210 $322 reversed $129 $-1 #
coedge $-1 $210 $210 $209 $322 forward $131 $-1 #
coedge $-1 $211 $211 $132 $212 forward $206 $-1 #
edge $-1 $323 0 $323 6.2831853071796004 $211 $324 forward 7 unknown #
loop $-1 $-1 $218 $133 #
plane-surface $-1 -76.927396465956576 5.5780180427677521 3.6859491928705381 -0.82903758062907751 0 0.55919289150049634 0.55919289150049634 0 0.82903758062907751 forward_v I I I I #
loop $-1 $-1 $325 $85 #
coedge $-1 $216 $216 $217 $326 reversed $134 $-1 #
coedge $-1 $217 $217 $216 $326 forward $136 $-1 #
coedge $-1 $218 $218 $137 $219 forward $213 $-1 #
edge $-1 $327 0 $327 6.2831853071796004 $218 $328 forward 7 unknown #
face $-1 $329 $330 $33 $-1 $331 reversed single #
loop $-1 $-1 $332 $138 #
plane-surface $-1 -76.927396465956605 0 0 1 0 0 0 0 -1 forward_v I I I I #
coedge $-1 $333 $231 $334 $335 forward $139 $-1 #
coedge $-1 $336 $141 $333 $337 forward $89 $-1 #
coedge $-1 $141 $336 $338 $339 forward $89 $-1 #
coedge $-1 $234 $233 $141 $227 reversed $235 $-1 #
edge $-1 $340 -46.035530841456435 $341 46.035530841456435 $226 $342 forward 7 unknown #
coedge $-1 $143 $142 $343 $344 forward $56 $-1 #
coedge $-1 $345 $346 $142 $230 reversed $330 $-1 #
edge $-1 $237 -76.927396465956605 $347 76.927396465956605 $229 $348 forward 7 unknown #
coedge $-1 $223 $349 $143 $232 reversed $139 $-1 #
edge $-1 $350 -76.927396465956605 $236 76.927396465956605 $231 $351 forward 7 unknown #
coedge $-1 $226 $144 $349 $352 forward $235 $-1 #
coedge $-1 $144 $226 $345 $353 reversed $235 $-1 #
loop $-1 $-1 $233 $329 #
vertex $-1 $145 $354 #
vertex $-1 $145 $355 #
straight-curve $-1 76.927396465956605 0 14.10597675427946 0 1 0 I I #
face $-1 $356 $357 $34 $-1 $358 reversed single #
loop $-1 $-1 $359 $146 #
plane-surface $-1 -76.927396465956605 0 0 1 0 0 0 0 -1 forward_v I I I I #
coedge $-1 $360 $248 $253 $361 reversed $147 $-1 #
coedge $-1 $362 $149 $363 $364 reversed $93 $-1 #
coedge $-1 $149 $362 $360 $365 forward $93 $-1 #
coedge $-1 $253 $252 $149 $246 forward $254 $-1 #
edge $-1 $366 -27.542466146331851 $367 -9.4436632439173174 $245 $368 forward 7 unknown #
coedge $-1 $151 $150 $359 $369 reversed $59 $-1 #
coedge $-1 $242 $370 $150 $249 reversed $147 $-1 #
edge $-1 $255 -76.927396465956605 $371 76.927396465956605 $248 $372 forward 7 unknown #
coedge $-1 $373 $374 $151 $251 forward $357 $-1 #
edge $-1 $256 -76.927396465956605 $375 76.927396465956605 $250 $376 forward 7 unknown #
coedge $-1 $245 $152 $374 $377 forward $254 $-1 #
coedge $-1 $152 $245 $242 $361 forward $254 $-1 #
loop $-1 $-1 $152 $356 #
vertex $-1 $153 $378 #
vertex $-1 $377 $379 #
straight-curve $-1 76.927396465956605 -18.493064695124584 13.34062260407123 0 -1 0 I I #
face $-1 $-1 $380 $35 $-1 $381 forward single #
loop $-1 $-1 $267 $154 #
plane-surface $-1 0 -27.936727939041901 10.717411161088904 0 -1 0 0 0 -1 forward_v I I I I #
coedge $-1 $160 $382 $383 $384 forward $155 $-1 #
coedge $-1 $263 $157 $159 $269 reversed $97 $-1 #
coedge $-1 $157 $262 $385 $386 reversed $97 $-1 #
coedge $-1 $382 $160 $157 $265 forward $155 $-1 #
edge $-1 $271 -101.90004901464266 $387 -97.579886062345594 $264 $388 forward 7 unknown #
coedge $-1 $159 $158 $389 $390 reversed $62 $-1 #
coedge $-1 $383 $391 $158 $268 forward $259 $-1 #
edge $-1 $392 93.611129666243713 $270 98.822187709015353 $267 $393 forward 7 unknown #
edge $-1 $394 148.6437348891416 $271 153.85479293191321 $262 $395 forward 7 unknown #
vertex $-1 $268 $396 #
vertex $-1 $161 $397 #
straight-curve $-1 76.927396465956605 -9.8585432013732035 9.7858138019823642 0 1 0 I I #
coedge $-1 $273 $273 $-1 $398 reversed $164 $-1 #
edge $-1 $399 0 $399 6.2831853071796004 $165 $400 forward 7 unknown #
vertex $-1 $168 $401 #
ellipse-curve $-1 75.47040315859941 -23.239789918301618 11.945895278130914 0.82903758062907751 0 0.55919289150049634 0.55919289150049634 0 -0.82903758062907751 1 I I #
coedge $-1 $277 $277 $-1 $402 reversed $171 $-1 #
edge $-1 $403 0 $403 6.2831853071796004 $172 $404 forward 7 unknown #
vertex $-1 $175 $405 #
ellipse-curve $-1 75.47040315859941 -16.194382887191196 11.945895278130914 0.82903758062907751 0 0.55919289150049634 0.55919289150049634 0 -0.82903758062907751 1 I I #
face $-1 $-1 $293 $38 $-1 $406 reversed single #
loop $-1 $-1 $407 $176 #
plane-surface $-1 0 0 14.10597675427946 0 0 1 1 0 0 forward_v I I I I #
coedge $-1 $408 $409 $410 $411 reversed $177 $-1 #
coedge $-1 $412 $179 $181 $291 forward $111 $-1 #
coedge $-1 $179 $412 $408 $413 forward $111 $-1 #
coedge $-1 $410 $182 $179 $288 forward $293 $-1 #
edge $-1 $295 0.41487995745588435 $414 16.854163030046873 $287 $415 forward 7 unknown #
coedge $-1 $416 $417 $180 $290 forward $282 $-1 #
edge $-1 $418 14.791262233436754 $294 17.705248848151129 $289 $419 forward 7 unknown #
edge $-1 $295 -153.85479293191321 $418 -148.6437348891416 $181 $420 forward 7 unknown #
coedge $-1 $182 $410 $416 $421 reversed $293 $-1 #
loop $-1 $-1 $410 $281 #
vertex $-1 $421 $422 #
vertex $-1 $183 $423 #
straight-curve $-1 76.927396465956605 9.0494014512072631 111.68586281662505 0 0 -1 I I #
coedge $-1 $297 $297 $-1 $424 reversed $186 $-1 #
edge $-1 $425 0 $425 6.2831853071796004 $187 $426 forward 7 unknown #
vertex $-1 $190 $427 #
ellipse-curve $-1 75.47040315859941 13.74633947194755 11.945895278130914 0.82903758062907751 0 0.55919289150049634 0.55919289150049634 0 -0.82903758062907751 1 I I #
coedge $-1 $301 $301 $-1 $428 reversed $193 $-1 #
edge $-1 $429 0 $429 6.2831853071796004 $194 $430 forward 7 unknown #
vertex $-1 $197 $431 #
ellipse-curve $-1 75.47040315859941 20.791746503057979 11.945895278130914 0.82903758062907751 0 0.55919289150049634 0.55919289150049634 0 -0.82903758062907751 1 I I #
face $-1 $-1 $317 $41 $-1 $432 forward single #
loop $-1 $-1 $433 $198 #
plane-surface $-1 -76.927396465956605 0 0 1 0 0 0 0 -1 forward_v I I I I #
coedge $-1 $434 $435 $436 $437 reversed $199 $-1 #
coedge $-1 $438 $201 $203 $315 forward $125 $-1 #
coedge $-1 $201 $438 $434 $439 forward $125 $-1 #
coedge $-1 $436 $204 $201 $312 forward $317 $-1 #
edge $-1 $319 -5.3002605570096506 $440 10.878278599777403 $311 $441 forward 7 unknown #
coedge $-1 $442 $443 $202 $314 forward $306 $-1 #
edge $-1 $444 -41.174278668968114 $318 -30.754251107559149 $313 $445 forward 7 unknown #
edge $-1 $319 -12.568824146068454 $444 5.0869049068944123e-014 $203 $446 forward 7 unknown #
coedge $-1 $204 $436 $442 $447 forward $317 $-1 #
loop $-1 $-1 $436 $305 #
vertex $-1 $314 $448 #
vertex $-1 $205 $449 #
straight-curve $-1 -102.2394008832088 -2.5112515356257745 14.10597675427946 1 0 0 I I #
coedge $-1 $321 $321 $-1 $450 reversed $208 $-1 #
edge $-1 $451 0 $451 6.2831853071796004 $209 $452 forward 7 unknown #
vertex $-1 $212 $453 #
ellipse-curve $-1 -73.413197907455938 2.1111882234562387 8.8959629735749921 -0.82903758062907751 0 0.55919289150049634 0.55919289150049634 0 0.82903758062907751 1 I I #
coedge $-1 $325 $325 $-1 $454 reversed $215 $-1 #
edge $-1 $455 0 $455 6.2831853071796004 $216 $456 forward 7 unknown #
vertex $-1 $219 $457 #
ellipse-curve $-1 -73.413197907455938 9.0448478620792585 8.8959629735749921 -0.82903758062907751 0 0.55919289150049634 0.55919289150049634 0 0.82903758062907751 1 I I #
face $-1 $-1 $235 $33 $-1 $458 reversed single #
loop $-1 $-1 $345 $220 #
plane-surface $-1 0 46.035530841456435 0 0 -1 0 0 0 -1 forward_v I I I I #
coedge $-1 $459 $343 $346 $460 forward $221 $-1 #
coedge $-1 $349 $223 $224 $337 reversed $139 $-1 #
coedge $-1 $343 $459 $223 $335 reversed $221 $-1 #
edge $-1 $350 -14.10597675427946 $461 14.10597675427946 $334 $462 forward 7 unknown #
coedge $-1 $225 $224 $459 $463 forward $89 $-1 #
edge $-1 $341 -76.927396465956605 $461 76.927396465956605 $333 $464 forward 7 unknown #
coedge $-1 $346 $345 $225 $339 reversed $330 $-1 #
edge $-1 $465 -76.927396465956605 $340 76.927396465956605 $338 $466 forward 7 unknown #
vertex $-1 $227 $467 #
vertex $-1 $352 $468 #
straight-curve $-1 76.927396465956605 0 -14.10597675427946 0 -1 0 I I #
coedge $-1 $332 $334 $228 $344 reversed $221 $-1 #
edge $-1 $347 -46.035530841456435 $350 46.035530841456435 $343 $469 forward 7 unknown #
coedge $-1 $338 $229 $234 $353 forward $330 $-1 #
coedge $-1 $229 $338 $332 $460 reversed $330 $-1 #
vertex $-1 $230 $470 #
straight-curve $-1 0 46.035530841456435 14.10597675427946 -1 0 0 I I #
coedge $-1 $231 $333 $233 $352 reversed $139 $-1 #
vertex $-1 $344 $471 #
straight-curve $-1 0 -46.035530841456435 14.10597675427946 1 0 0 I I #
edge $-1 $236 -14.10597675427946 $341 14.10597675427946 $233 $472 forward 7 unknown #
edge $-1 $237 -14.10597675427946 $340 14.10597675427946 $234 $473 forward 7 unknown #
point $-1 76.927396465956605 -46.035530841456435 14.10597675427946 #
point $-1 76.927396465956605 46.035530841456435 14.10597675427946 #
face $-1 $-1 $254 $34 $-1 $474 reversed single #
loop $-1 $-1 $250 $239 #
plane-surface $-1 0 -46.035530841456435 0 0 1 0 0 0 1 forward_v I I I I #
coedge $-1 $475 $476 $247 $369 forward $240 $-1 #
coedge $-1 $370 $242 $244 $365 reversed $147 $-1 #
edge $-1 $367 2.7354941375621262 $255 7.981917023526778 $253 $477 forward 7 unknown #
coedge $-1 $244 $243 $478 $479 reversed $93 $-1 #
coedge $-1 $374 $373 $243 $364 forward $357 $-1 #
edge $-1 $480 -76.927396465956605 $366 76.927396465956605 $363 $481 forward 7 unknown #
edge $-1 $482 -76.927396465956605 $367 76.927396465956605 $360 $483 forward 7 unknown #
vertex $-1 $364 $484 #
vertex $-1 $246 $485 #
straight-curve $-1 76.927396465956605 -18.493064695124584 8.0941997181065783 0 1 0 I I #
edge $-1 $375 -27.542466146331851 $371 -9.4436632439173174 $359 $486 forward 7 unknown #
coedge $-1 $248 $360 $475 $487 reversed $147 $-1 #
vertex $-1 $369 $488 #
straight-curve $-1 0 -27.936727939041901 13.34062260407123 -1 0 0 I I #
coedge $-1 $363 $250 $476 $489 forward $357 $-1 #
coedge $-1 $250 $363 $252 $377 reversed $357 $-1 #
vertex $-1 $489 $490 #
straight-curve $-1 0 -46.035530841456435 13.34062260407123 -1 0 0 I I #
edge $-1 $256 -13.34062260407123 $366 -8.0941997181065783 $252 $491 forward 7 unknown #
point $-1 76.927396465956605 -27.936727939041901 13.34062260407123 #
point $-1 76.927396465956605 -46.035530841456435 13.34062260407123 #
loop $-1 $-1 $492 $258 #
plane-surface $-1 0 0 14.10597675427946 0 0 1 1 0 0 forward_v I I I I #
coedge $-1 $261 $264 $493 $494 reversed $155 $-1 #
coedge $-1 $391 $267 $261 $384 reversed $259 $-1 #
edge $-1 $495 97.579886062345594 $270 101.90004901464269 $261 $496 forward 7 unknown #
coedge $-1 $389 $493 $263 $386 forward $380 $-1 #
edge $-1 $387 -17.705248848151129 $394 -14.791262233436754 $385 $497 forward 7 unknown #
vertex $-1 $265 $498 #
straight-curve $-1 76.927396465956605 -11.497444866450913 111.68586281662505 0 0 1 I I #
coedge $-1 $492 $385 $266 $390 forward $380 $-1 #
edge $-1 $394 1.6389016650777091 $392 18.0781847376687 $389 $499 forward 7 unknown #
coedge $-1 $267 $383 $492 $500 reversed $259 $-1 #
vertex $-1 $500 $501 #
straight-curve $-1 21.666731576547512 -27.936727939041901 91.713121212737008 0.55919289150049634 0 -0.82903758062907751 I I #
vertex $-1 $390 $502 #
straight-curve $-1 -9.107110064850076 -11.497444866450913 137.33721910244341 0.55919289150049634 0 -0.82903758062907751 I I #
point $-1 76.927396465956605 -27.936727939041901 9.7858138019823606 #
point $-1 76.927396465956605 -11.497444866450913 9.7858138019823855 #
edge $-1 $503 1 $503 0 $273 $-1 forward 7 unknown #
vertex $-1 $274 $504 #
ellipse-curve $-1 72.637982487990442 -23.239789918301618 10.035403472027552 0.82903758062907751 0 0.55919289150049634 0.55919289150049634 0 -0.82903758062907751 1 I I #
point $-1 76.029596050099912 -23.239789918301618 11.116857697501841 #
edge $-1 $505 1 $505 0 $277 $-1 forward 7 unknown #
vertex $-1 $278 $506 #
ellipse-curve $-1 72.637982487990442 -16.194382887191196 10.035403472027552 0.82903758062907751 0 0.55919289150049634 0.55919289150049634 0 -0.82903758062907751 1 I I #
point $-1 76.029596050099912 -16.194382887191196 11.116857697501841 #
plane-surface $-1 76.927396465956605 0 0 -1 0 0 0 0 1 forward_v I I I I #
coedge $-1 $417 $416 $409 $507 forward $282 $-1 #
coedge $-1 $409 $284 $286 $413 reversed $177 $-1 #
coedge $-1 $284 $408 $407 $507 reversed $177 $-1 #
coedge $-1 $292 $287 $284 $411 forward $293 $-1 #
edge $-1 $414 -101.90004901464266 $508 -97.579886062345594 $410 $509 forward 7 unknown #
coedge $-1 $286 $285 $417 $510 reversed $111 $-1 #
edge $-1 $511 148.6437348891416 $414 153.85479293191321 $408 $512 forward 7 unknown #
vertex $-1 $288 $513 #
straight-curve $-1 76.927396465956605 8.6345214937513788 9.7858138019823642 0 1 0 I I #
coedge $-1 $407 $289 $292 $421 forward $282 $-1 #
coedge $-1 $289 $407 $412 $510 forward $282 $-1 #
vertex $-1 $290 $514 #
straight-curve $-1 59.222147617805476 9.0494014512072631 14.105976754279467 1 0 0 I I #
straight-curve $-1 -9.107110064850076 9.0494014512072631 137.33721910244341 -0.55919289150049634 0 0.82903758062907751 I I #
edge $-1 $294 9.0494014512072631 $508 25.488684523798252 $292 $515 forward 7 unknown #
point $-1 76.927396465956605 9.0494014512072631 14.10597675427946 #
point $-1 76.927396465956605 9.0494014512072631 9.7858138019823855 #
edge $-1 $516 1 $516 0 $297 $-1 forward 7 unknown #
vertex $-1 $298 $517 #
ellipse-curve $-1 72.637982487990442 13.74633947194755 10.035403472027552 0.82903758062907751 0 0.55919289150049634 0.55919289150049634 0 -0.82903758062907751 1 I I #
point $-1 76.029596050099912 13.74633947194755 11.116857697501841 #
edge $-1 $518 1 $518 0 $301 $-1 forward 7 unknown #
vertex $-1 $302 $519 #
ellipse-curve $-1 72.637982487990442 20.791746503057979 10.035403472027552 0.82903758062907751 0 0.55919289150049634 0.55919289150049634 0 -0.82903758062907751 1 I I #
point $-1 76.029596050099912 20.791746503057979 11.116857697501841 #
plane-surface $-1 0 0 14.10597675427946 0 0 1 1 0 0 forward_v I I I I #
coedge $-1 $443 $442 $435 $520 forward $306 $-1 #
coedge $-1 $435 $308 $310 $439 reversed $199 $-1 #
coedge $-1 $308 $434 $433 $520 reversed $199 $-1 #
coedge $-1 $316 $311 $308 $437 forward $317 $-1 #
edge $-1 $440 -32.340401534253502 $521 -25.312004417252197 $436 $522 forward 7 unknown #
coedge $-1 $310 $309 $443 $523 reversed $125 $-1 #
edge $-1 $524 -5.0869049068944123e-014 $440 12.568824146068454 $434 $525 forward 7 unknown #
vertex $-1 $312 $526 #
straight-curve $-1 -69.8989993489553 2.7890090213838761 14.105976754279462 0 1 0 I I #
coedge $-1 $433 $313 $316 $447 reversed $306 $-1 #
coedge $-1 $313 $433 $438 $523 forward $306 $-1 #
vertex $-1 $314 $527 #
straight-curve $-1 -76.927396465956605 -2.5112515356257745 44.860227861838609 0 0 1 I I #
straight-curve $-1 -76.927396465956576 -2.5112515356257745 3.6859491928705381 -0.55919289150049634 0 -0.82903758062907751 I I #
edge $-1 $521 -13.667287621161279 $318 2.5112515356257745 $442 $528 forward 7 unknown #
point $-1 -76.927396465956605 -2.5112515356257745 14.10597675427946 #
point $-1 -69.8989993489553 -2.5112515356257745 14.10597675427946 #
edge $-1 $529 1 $529 0 $321 $-1 forward 7 unknown #
vertex $-1 $322 $530 #
ellipse-curve $-1 -71.470967313352418 2.1111882234562387 7.5859119369822254 -0.82903758062907751 0 0.55919289150049634 0.55919289150049634 0 0.82903758062907751 1 I I #
point $-1 -72.854005015955465 2.1111882234562387 9.7250005542040832 #
edge $-1 $531 1 $531 0 $325 $-1 forward 7 unknown #
vertex $-1 $326 $532 #
ellipse-curve $-1 -71.470967313352418 9.0448478620792585 7.5859119369822254 -0.82903758062907751 0 0.55919289150049634 0.55919289150049634 0 0.82903758062907751 1 I I #
point $-1 -72.854005015955465 9.0448478620792585 9.7250005542040832 #
plane-surface $-1 76.927396465956605 0 0 -1 0 0 0 0 1 forward_v I I I I #
coedge $-1 $334 $332 $336 $463 reversed $221 $-1 #
edge $-1 $347 -14.10597675427946 $465 14.10597675427946 $346 $533 forward 7 unknown #
vertex $-1 $463 $534 #
straight-curve $-1 -76.927396465956605 -46.035530841456435 0 0 0 -1 I I #
edge $-1 $461 -46.035530841456435 $465 46.035530841456435 $459 $535 forward 7 unknown #
straight-curve $-1 0 -46.035530841456435 -14.10597675427946 -1 0 0 I I #
vertex $-1 $339 $536 #
straight-curve $-1 0 46.035530841456435 -14.10597675427946 1 0 0 I I #
point $-1 76.927396465956605 46.035530841456435 -14.10597675427946 #
point $-1 76.927396465956605 -46.035530841456435 -14.10597675427946 #
straight-curve $-1 -76.927396465956605 0 14.10597675427946 0 -1 0 I I #
point $-1 -76.927396465956605 46.035530841456435 14.10597675427946 #
point $-1 -76.927396465956605 -46.035530841456435 14.10597675427946 #
straight-curve $-1 76.927396465956605 -46.035530841456435 0 0 0 -1 I I #
straight-curve $-1 76.927396465956605 46.035530841456435 0 0 0 -1 I I #
plane-surface $-1 76.927396465956605 0 0 -1 0 0 0 0 1 forward_v I I I I #
coedge $-1 $478 $359 $370 $487 forward $240 $-1 #
coedge $-1 $359 $478 $373 $489 reversed $240 $-1 #
straight-curve $-1 76.927396465956605 -27.936727939041901 5.3587055805444521 0 0 1 I I #
coedge $-1 $476 $475 $362 $479 forward $240 $-1 #
edge $-1 $482 9.4436632439173174 $480 27.542466146331851 $478 $537 forward 7 unknown #
vertex $-1 $364 $538 #
straight-curve $-1 0 -46.035530841456435 8.0941997181065783 1 0 0 I I #
vertex $-1 $479 $539 #
straight-curve $-1 0 -27.936727939041901 8.0941997181065783 1 0 0 I I #
point $-1 76.927396465956605 -46.035530841456435 8.0941997181065783 #
point $-1 76.927396465956605 -27.936727939041901 8.0941997181065783 #
straight-curve $-1 -76.927396465956605 -18.493064695124584 13.34062260407123 0 1 0 I I #
edge $-1 $371 -7.981917023526778 $482 -2.7354941375621262 $475 $540 forward 7 unknown #
point $-1 -76.927396465956605 -27.936727939041901 13.34062260407123 #
edge $-1 $375 -13.34062260407123 $480 -8.0941997181065783 $476 $541 forward 7 unknown #
point $-1 -76.927396465956605 -46.035530841456435 13.34062260407123 #
straight-curve $-1 76.927396465956605 -46.035530841456435 0 0 0 -1 I I #
coedge $-1 $493 $389 $391 $500 forward $380 $-1 #
coedge $-1 $385 $492 $382 $494 forward $380 $-1 #
edge $-1 $495 -27.936727939041901 $387 -11.497444866450913 $382 $542 forward 7 unknown #
vertex $-1 $494 $543 #
straight-curve $-1 76.927396465956605 -27.936727939041901 111.68586281662505 0 0 -1 I I #
straight-curve $-1 59.222147617805476 -11.497444866450913 14.105976754279467 -1 0 0 I I #
point $-1 76.927396465956605 -11.497444866450913 14.10597675427946 #
straight-curve $-1 74.013409851242216 -9.8585432013732035 14.105976754279482 0 -1 0 I I #
edge $-1 $392 14.791262233436754 $495 17.705248848151129 $492 $544 forward 7 unknown #
point $-1 74.01340985124223 -27.936727939041901 14.105976754279467 #
point $-1 74.01340985124223 -11.497444866450913 14.105976754279467 #
vertex $-1 $398 $545 #
point $-1 73.197175379490929 -23.239789918301618 9.2063658913984732 #
vertex $-1 $402 $546 #
point $-1 73.197175379490929 -16.194382887191196 9.2063658913984732 #
edge $-1 $508 -17.705248848151129 $511 -14.791262233436754 $407 $547 forward 7 unknown #
vertex $-1 $507 $548 #
straight-curve $-1 76.927396465956605 25.488684523798252 111.68586281662505 0 0 1 I I #
edge $-1 $511 -16.854163030046873 $418 -0.41487995745588435 $417 $549 forward 7 unknown #
vertex $-1 $510 $550 #
straight-curve $-1 -9.107110064850076 25.488684523798252 137.33721910244341 0.55919289150049634 0 -0.82903758062907751 I I #
point $-1 76.927396465956605 25.488684523798252 9.7858138019823855 #
point $-1 74.01340985124223 9.0494014512072631 14.105976754279467 #
straight-curve $-1 76.927396465956605 0 14.10597675427946 0 1 0 I I #
vertex $-1 $424 $551 #
point $-1 73.197175379490929 13.74633947194755 9.2063658913984732 #
vertex $-1 $428 $552 #
point $-1 73.197175379490929 20.791746503057979 9.2063658913984732 #
edge $-1 $521 30.754251107559149 $524 41.174278668968114 $433 $553 forward 7 unknown #
vertex $-1 $447 $554 #
straight-curve $-1 -102.2394008832088 13.667287621161279 14.10597675427946 -1 0 0 I I #
edge $-1 $524 -10.878278599777403 $444 5.3002605570096506 $443 $555 forward 7 unknown #
vertex $-1 $523 $556 #
straight-curve $-1 -76.927396465956576 13.667287621161279 3.6859491928705381 0.55919289150049634 0 0.82903758062907751 I I #
point $-1 -69.8989993489553 13.667287621161279 14.10597675427946 #
point $-1 -76.927396465956605 -2.5112515356257745 3.6859491928704959 #
straight-curve $-1 -76.927396465956605 0 14.10597675427946 0 -1 0 I I #
vertex $-1 $450 $557 #
point $-1 -70.911774421851916 2.1111882234562387 8.4149495176113032 #
vertex $-1 $454 $558 #
point $-1 -70.911774421851916 9.0448478620792585 8.4149495176113032 #
straight-curve $-1 -76.927396465956605 46.035530841456435 0 0 0 -1 I I #
point $-1 -76.927396465956605 -46.035530841456435 -14.10597675427946 #
straight-curve $-1 -76.927396465956605 0 -14.10597675427946 0 1 0 I I #
point $-1 -76.927396465956605 46.035530841456435 -14.10597675427946 #
straight-curve $-1 -76.927396465956605 -18.493064695124584 8.0941997181065783 0 -1 0 I I #
point $-1 -76.927396465956605 -46.035530841456435 8.0941997181065783 #
point $-1 -76.927396465956605 -27.936727939041901 8.0941997181065783 #
straight-curve $-1 -76.927396465956605 -27.936727939041901 5.3587055805444521 0 0 -1 I I #
straight-curve $-1 -76.927396465956605 -46.035530841456435 0 0 0 -1 I I #
straight-curve $-1 76.927396465956605 0 14.10597675427946 0 1 0 I I #
point $-1 76.927396465956605 -27.936727939041901 14.10597675427946 #
straight-curve $-1 59.222147617805476 -27.936727939041901 14.105976754279467 1 0 0 I I #
point $-1 71.808944907361351 -23.239789918301618 9.476210580527054 #
point $-1 71.808944907361351 -16.194382887191196 9.476210580527054 #
straight-curve $-1 59.222147617805476 25.488684523798252 14.105976754279467 -1 0 0 I I #
point $-1 76.927396465956605 25.488684523798252 14.10597675427946 #
straight-curve $-1 74.013409851242216 8.6345214937513788 14.105976754279482 0 -1 0 I I #
point $-1 74.01340985124223 25.488684523798252 14.105976754279467 #
point $-1 71.808944907361351 13.74633947194755 9.476210580527054 #
point $-1 71.808944907361351 20.791746503057979 9.476210580527054 #
straight-curve $-1 -76.927396465956605 13.667287621161279 44.860227861838609 0 0 -1 I I #
point $-1 -76.927396465956605 13.667287621161279 14.10597675427946 #
straight-curve $-1 -76.927396465956605 2.7890090213838761 3.6859491928705035 0 -1 0 I I #
point $-1 -76.927396465956605 13.667287621161279 3.6859491928704959 #
point $-1 -70.641929732723327 2.1111882234562387 7.0267190454817294 #
point $-1 -70.641929732723327 9.0448478620792585 7.0267190454817294 #
End-of-ACIS-data 