500 0 19 0           
7 Unknown 11 ACIS 5.0 NT 24 Thu Mar 25 22:34:44 1999 
-1 9.9999999999999995e-007 1e-010 
body $-1 $19 $-1 $20 #
body $-1 $21 $-1 $22 #
body $-1 $23 $-1 $24 #
body $-1 $25 $-1 $26 #
body $-1 $27 $-1 $28 #
body $-1 $29 $-1 $30 #
body $-1 $31 $-1 $32 #
body $-1 $33 $-1 $34 #
body $-1 $35 $-1 $36 #
body $-1 $37 $-1 $38 #
body $-1 $39 $-1 $40 #
body $-1 $41 $-1 $42 #
body $-1 $43 $-1 $44 #
body $-1 $45 $-1 $46 #
body $-1 $47 $-1 $48 #
body $-1 $49 $-1 $50 #
body $-1 $51 $-1 $52 #
body $-1 $53 $-1 $54 #
body $-1 $55 $-1 $56 #
lump $-1 $-1 $57 $0 #
transform $-1 1 0 0 0 1 0 0 0 1 73.982970671712394 51.24619547223697 13.723101498174705 1 rotate no_reflect no_shear #
lump $-1 $-1 $58 $1 #
transform $-1 1 0 0 0 1 0 0 0 1 73.982970671712394 51.24619547223697 13.723101498174705 1 rotate no_reflect no_shear #
lump $-1 $-1 $59 $2 #
transform $-1 1 0 0 0 1 0 0 0 1 73.982970671712394 51.24619547223697 13.723101498174705 1 rotate no_reflect no_shear #
lump $-1 $-1 $60 $3 #
transform $-1 1 0 0 0 1 0 0 0 1 73.982970671712394 51.24619547223697 13.723101498174705 1 rotate no_reflect no_shear #
lump $-1 $-1 $61 $4 #
transform $-1 1 0 0 0 1 0 0 0 1 73.982970671712394 51.24619547223697 13.723101498174705 1 rotate no_reflect no_shear #
lump $-1 $-1 $62 $5 #
transform $-1 1 0 0 0 1 0 0 0 1 73.982970671712394 51.24619547223697 13.723101498174705 1 rotate no_reflect no_shear #
lump $-1 $-1 $63 $6 #
transform $-1 1 0 0 0 1 0 0 0 1 73.982970671712394 51.24619547223697 13.723101498174705 1 rotate no_reflect no_shear #
lump $-1 $-1 $64 $7 #
transform $-1 1 0 0 0 1 0 0 0 1 73.982970671712394 51.24619547223697 13.723101498174705 1 rotate no_reflect no_shear #
lump $-1 $-1 $65 $8 #
transform $-1 1 0 0 0 1 0 0 0 1 73.982970671712394 51.24619547223697 13.723101498174705 1 rotate no_reflect no_shear #
lump $-1 $-1 $66 $9 #
transform $-1 1 0 0 0 1 0 0 0 1 73.982970671712394 51.24619547223697 13.723101498174705 1 rotate no_reflect no_shear #
lump $-1 $-1 $67 $10 #
transform $-1 1 0 0 0 1 0 0 0 1 73.982970671712394 51.24619547223697 13.723101498174705 1 rotate no_reflect no_shear #
lump $-1 $-1 $68 $11 #
transform $-1 1 0 0 0 1 0 0 0 1 73.982970671712394 51.24619547223697 13.723101498174705 1 rotate no_reflect no_shear #
lump $-1 $-1 $69 $12 #
transform $-1 1 0 0 0 1 0 0 0 1 73.982970671712394 51.24619547223697 13.723101498174705 1 rotate no_reflect no_shear #
lump $-1 $-1 $70 $13 #
transform $-1 1 0 0 0 1 0 0 0 1 73.982970671712394 51.24619547223697 13.723101498174705 1 rotate no_reflect no_shear #
lump $-1 $-1 $71 $14 #
transform $-1 1 0 0 0 1 0 0 0 1 73.982970671712394 51.24619547223697 13.723101498174705 1 rotate no_reflect no_shear #
lump $-1 $-1 $72 $15 #
transform $-1 1 0 0 0 1 0 0 0 1 73.982970671712394 51.24619547223697 13.723101498174705 1 rotate no_reflect no_shear #
lump $-1 $-1 $73 $16 #
transform $-1 1 0 0 0 1 0 0 0 1 73.982970671712394 51.24619547223697 13.723101498174705 1 rotate no_reflect no_shear #
lump $-1 $-1 $74 $17 #
transform $-1 1 0 0 0 1 0 0 0 1 73.982970671712394 51.24619547223697 13.723101498174705 1 rotate no_reflect no_shear #
lump $-1 $-1 $75 $18 #
transform $-1 1 0 0 0 1 0 0 0 1 73.982970671712394 51.24619547223697 13.723101498174705 1 rotate no_reflect no_shear #
shell $-1 $-1 $-1 $76 $-1 $19 #
shell $-1 $-1 $-1 $77 $-1 $21 #
shell $-1 $-1 $-1 $78 $-1 $23 #
shell $-1 $-1 $-1 $79 $-1 $25 #
shell $-1 $-1 $-1 $80 $-1 $27 #
shell $-1 $-1 $-1 $81 $-1 $29 #
shell $-1 $-1 $-1 $82 $-1 $31 #
shell $-1 $-1 $-1 $83 $-1 $33 #
shell $-1 $-1 $-1 $84 $-1 $35 #
shell $-1 $-1 $-1 $85 $-1 $37 #
shell $-1 $-1 $-1 $86 $-1 $39 #
shell $-1 $-1 $-1 $87 $-1 $41 #
shell $-1 $-1 $-1 $88 $-1 $43 #
shell $-1 $-1 $-1 $89 $-1 $45 #
shell $-1 $-1 $-1 $90 $-1 $47 #
shell $-1 $-1 $-1 $91 $-1 $49 #
shell $-1 $-1 $-1 $92 $-1 $51 #
shell $-1 $-1 $-1 $93 $-1 $53 #
shell $-1 $-1 $-1 $94 $-1 $55 #
face $-1 $95 $96 $57 $-1 $97 forward single #
face $-1 $98 $99 $58 $-1 $100 reversed single #
face $-1 $101 $102 $59 $-1 $103 forward single #
face $-1 $104 $105 $60 $-1 $106 forward single #
face $-1 $107 $108 $61 $-1 $109 reversed single #
face $-1 $110 $111 $62 $-1 $112 forward single #
face $-1 $113 $114 $63 $-1 $115 forward single #
face $-1 $116 $117 $64 $-1 $118 reversed single #
face $-1 $119 $120 $65 $-1 $121 forward single #
face $-1 $122 $123 $66 $-1 $124 forward single #
face $-1 $125 $126 $67 $-1 $127 reversed single #
face $-1 $128 $129 $68 $-1 $130 forward single #
face $-1 $131 $132 $69 $-1 $133 forward single #
face $-1 $134 $135 $70 $-1 $136 reversed single #
face $-1 $137 $138 $71 $-1 $139 forward single #
face $-1 $140 $141 $72 $-1 $142 forward single #
face $-1 $143 $144 $73 $-1 $145 reversed single #
face $-1 $146 $147 $74 $-1 $148 forward single #
face $-1 $149 $150 $75 $-1 $151 forward single #
face $-1 $152 $153 $57 $-1 $154 reversed single #
loop $-1 $-1 $155 $76 #
plane-surface $-1 0 0 13.723101498174705 0 0 1 1 0 0 forward_v I I I I #
face $-1 $156 $157 $58 $-1 $158 reversed single #
loop $-1 $-1 $159 $77 #
plane-surface $-1 -60.95035358067323 119.51952108257021 169.12511421621093 1 0 0 0 -0.83867057594974714 -0.54463902268945019 forward_v I I I I #
face $-1 $160 $161 $59 $-1 $162 forward single #
loop $-1 $163 $164 $78 #
cone-surface $-1 -55.578992960877656 46.571469869455683 7.4653633927089249 0 -0.83867057594974714 -0.54463902268945019 2 0 0 1 I I 0 1 2 forward I I I I #
face $-1 $165 $166 $60 $-1 $167 forward single #
loop $-1 $168 $169 $79 #
cone-surface $-1 -47.521952031184284 46.571469869455683 7.4653633927089249 0 -0.83867057594974714 -0.54463902268945019 2 0 0 1 I I 0 1 2 forward I I I I #
face $-1 $170 $171 $61 $-1 $172 reversed single #
loop $-1 $-1 $173 $80 #
plane-surface $-1 -26.583371916652581 119.51952108257021 169.12511421621093 1 0 0 0 -0.83867057594974714 -0.54463902268945019 forward_v I I I I #
face $-1 $174 $175 $62 $-1 $176 forward single #
loop $-1 $177 $178 $81 #
cone-surface $-1 -21.212011296857 46.571469869455683 7.4653633927089249 0 -0.83867057594974714 -0.54463902268945019 2 0 0 1 I I 0 1 2 forward I I I I #
face $-1 $179 $180 $63 $-1 $181 forward single #
loop $-1 $182 $183 $82 #
cone-surface $-1 -13.154970367163635 46.571469869455683 7.4653633927089249 0 -0.83867057594974714 -0.54463902268945019 2 0 0 1 I I 0 1 2 forward I I I I #
face $-1 $184 $185 $64 $-1 $186 reversed single #
loop $-1 $-1 $187 $83 #
plane-surface $-1 7.7836097473680752 119.51952108257021 169.12511421621093 1 0 0 0 -0.83867057594974714 -0.54463902268945019 forward_v I I I I #
face $-1 $188 $189 $65 $-1 $190 forward single #
loop $-1 $191 $192 $84 #
cone-surface $-1 13.154970367163656 46.571469869455683 7.4653633927089249 0 -0.83867057594974714 -0.54463902268945019 2 0 0 1 I I 0 1 2 forward I I I I #
face $-1 $193 $194 $66 $-1 $195 forward single #
loop $-1 $196 $197 $85 #
cone-surface $-1 21.212011296857014 46.571469869455683 7.4653633927089249 0 -0.83867057594974714 -0.54463902268945019 2 0 0 1 I I 0 1 2 forward I I I I #
face $-1 $198 $199 $67 $-1 $200 reversed single #
loop $-1 $-1 $201 $86 #
plane-surface $-1 42.150591411388717 119.51952108257021 169.12511421621093 1 0 0 0 -0.83867057594974714 -0.54463902268945019 forward_v I I I I #
face $-1 $202 $203 $68 $-1 $204 forward single #
loop $-1 $205 $206 $87 #
cone-surface $-1 47.521952031184298 46.571469869455683 7.4653633927089249 0 -0.83867057594974714 -0.54463902268945019 2 0 0 1 I I 0 1 2 forward I I I I #
face $-1 $207 $208 $69 $-1 $209 forward single #
loop $-1 $210 $211 $88 #
cone-surface $-1 55.578992960877656 46.571469869455683 7.4653633927089249 0 -0.83867057594974714 -0.54463902268945019 2 0 0 1 I I 0 1 2 forward I I I I #
face $-1 $212 $213 $70 $-1 $214 reversed single #
loop $-1 $-1 $215 $89 #
plane-surface $-1 -33.721078446963119 -175.34087671967353 85.604160813365638 -1 0 0 0 -0.83867057594974714 0.54463902268945019 forward_v I I I I #
face $-1 $216 $217 $71 $-1 $218 forward single #
loop $-1 $219 $220 $90 #
cone-surface $-1 -56.253131162208604 -46.433736219008502 8.0803661452818112 0 0.83867057594974714 -0.54463902268945019 1.5 0 0 1 I I 0 1 1.5 forward I I I I #
face $-1 $221 $222 $72 $-1 $223 forward single #
loop $-1 $224 $225 $91 #
cone-surface $-1 -42.733899533061305 -46.433736219008502 8.0803661452818112 0 0.83867057594974714 -0.54463902268945019 1.5 0 0 1 I I 0 1 1.5 forward I I I I #
face $-1 $226 $227 $73 $-1 $228 reversed single #
loop $-1 $-1 $229 $92 #
plane-surface $-1 40.261892224749275 -175.34087671967353 85.604160813365638 -1 0 0 0 -0.83867057594974714 0.54463902268945019 forward_v I I I I #
face $-1 $230 $231 $74 $-1 $232 forward single #
loop $-1 $233 $234 $93 #
cone-surface $-1 17.72983950950379 -46.433736219008502 8.0803661452818112 0 0.83867057594974714 -0.54463902268945019 1.5 0 0 1 I I 0 1 1.5 forward I I I I #
face $-1 $235 $236 $75 $-1 $237 forward single #
loop $-1 $238 $239 $94 #
cone-surface $-1 31.24907113865109 -46.433736219008502 8.0803661452818112 0 0.83867057594974714 -0.54463902268945019 1.5 0 0 1 I I 0 1 1.5 forward I I I I #
face $-1 $240 $241 $57 $-1 $242 reversed single #
loop $-1 $-1 $243 $95 #
plane-surface $-1 0 0 -13.723101498174705 0 0 1 1 0 0 forward_v I I I I #
coedge $-1 $244 $245 $246 $247 forward $96 $-1 #
face $-1 $248 $249 $58 $-1 $250 reversed single #
loop $-1 $-1 $251 $98 #
plane-surface $-1 -51.55047249603097 -4.5751601648663609 88.537088531603544 0 0.83867057594974714 0.54463902268945019 1 0 0 forward_v I I I I #
coedge $-1 $252 $253 $254 $255 reversed $99 $-1 #
face $-1 $-1 $256 $59 $-1 $257 forward single #
loop $-1 $258 $259 $101 #
cone-surface $-1 -55.578992960877656 44.676366662434255 6.2346690197735857 0 -0.83867057594974714 -0.54463902268945019 1 0 0 1 I I -0.70710678118654746 0.70710678118654746 1 forward I I I I #
loop $-1 $-1 $260 $78 #
coedge $-1 $164 $164 $261 $262 reversed $102 $-1 #
face $-1 $-1 $263 $60 $-1 $264 forward single #
loop $-1 $265 $266 $104 #
cone-surface $-1 -47.521952031184284 44.676366662434255 6.2346690197735857 0 -0.83867057594974714 -0.54463902268945019 1 0 0 1 I I -0.70710678118654746 0.70710678118654746 1 forward I I I I #
loop $-1 $-1 $267 $79 #
coedge $-1 $169 $169 $268 $269 reversed $105 $-1 #
face $-1 $270 $271 $61 $-1 $272 reversed single #
loop $-1 $-1 $273 $107 #
plane-surface $-1 -17.183490832010321 -4.5751601648663609 88.537088531603544 0 0.83867057594974714 0.54463902268945019 1 0 0 forward_v I I I I #
coedge $-1 $274 $275 $276 $277 reversed $108 $-1 #
face $-1 $-1 $278 $62 $-1 $279 forward single #
loop $-1 $280 $281 $110 #
cone-surface $-1 -21.212011296857 44.676366662434255 6.2346690197735857 0 -0.83867057594974714 -0.54463902268945019 1 0 0 1 I I -0.70710678118654746 0.70710678118654746 1 forward I I I I #
loop $-1 $-1 $282 $81 #
coedge $-1 $178 $178 $283 $284 reversed $111 $-1 #
face $-1 $-1 $285 $63 $-1 $286 forward single #
loop $-1 $287 $288 $113 #
cone-surface $-1 -13.154970367163635 44.676366662434255 6.2346690197735857 0 -0.83867057594974714 -0.54463902268945019 1 0 0 1 I I -0.70710678118654746 0.70710678118654746 1 forward I I I I #
loop $-1 $-1 $289 $82 #
coedge $-1 $183 $183 $290 $291 reversed $114 $-1 #
face $-1 $292 $293 $64 $-1 $294 reversed single #
loop $-1 $-1 $295 $116 #
plane-surface $-1 17.183490832010335 -4.5751601648663609 88.537088531603544 0 0.83867057594974714 0.54463902268945019 1 0 0 forward_v I I I I #
coedge $-1 $296 $297 $298 $299 reversed $117 $-1 #
face $-1 $-1 $300 $65 $-1 $301 forward single #
loop $-1 $302 $303 $119 #
cone-surface $-1 13.154970367163656 44.676366662434255 6.2346690197735857 0 -0.83867057594974714 -0.54463902268945019 1 0 0 1 I I -0.70710678118654746 0.70710678118654746 1 forward I I I I #
loop $-1 $-1 $304 $84 #
coedge $-1 $192 $192 $305 $306 reversed $120 $-1 #
face $-1 $-1 $307 $66 $-1 $308 forward single #
loop $-1 $309 $310 $122 #
cone-surface $-1 21.212011296857014 44.676366662434255 6.2346690197735857 0 -0.83867057594974714 -0.54463902268945019 1 0 0 1 I I -0.70710678118654746 0.70710678118654746 1 forward I I I I #
loop $-1 $-1 $311 $85 #
coedge $-1 $197 $197 $312 $313 reversed $123 $-1 #
face $-1 $314 $315 $67 $-1 $316 reversed single #
loop $-1 $-1 $317 $125 #
plane-surface $-1 51.550472496030977 -4.5751601648663609 88.537088531603544 0 0.83867057594974714 0.54463902268945019 1 0 0 forward_v I I I I #
coedge $-1 $318 $319 $320 $321 reversed $126 $-1 #
face $-1 $-1 $322 $68 $-1 $323 forward single #
loop $-1 $324 $325 $128 #
cone-surface $-1 47.521952031184298 44.676366662434255 6.2346690197735857 0 -0.83867057594974714 -0.54463902268945019 1 0 0 1 I I -0.70710678118654746 0.70710678118654746 1 forward I I I I #
loop $-1 $-1 $326 $87 #
coedge $-1 $206 $206 $327 $328 reversed $129 $-1 #
face $-1 $-1 $329 $69 $-1 $330 forward single #
loop $-1 $331 $332 $131 #
cone-surface $-1 55.578992960877656 44.676366662434255 6.2346690197735857 0 -0.83867057594974714 -0.54463902268945019 1 0 0 1 I I -0.70710678118654746 0.70710678118654746 1 forward I I I I #
loop $-1 $-1 $333 $88 #
coedge $-1 $211 $211 $334 $335 reversed $132 $-1 #
face $-1 $336 $337 $70 $-1 $338 reversed single #
loop $-1 $-1 $339 $134 #
plane-surface $-1 -49.493515347634954 -51.246195472236963 5.0161351287582505 0 -0.83867057594974714 0.54463902268945019 1 0 0 forward_v I I I I #
coedge $-1 $340 $341 $342 $343 reversed $135 $-1 #
face $-1 $-1 $344 $71 $-1 $345 forward single #
loop $-1 $346 $347 $137 #
cone-surface $-1 -56.253131162208604 -43.819458979860848 6.3826347100800493 0 0.83867057594974714 -0.54463902268945019 0.75 0 0 1 I I -0.70710678118654757 0.70710678118654757 0.75 forward I I I I #
loop $-1 $-1 $348 $90 #
coedge $-1 $220 $220 $349 $350 reversed $138 $-1 #
face $-1 $-1 $351 $72 $-1 $352 forward single #
loop $-1 $353 $354 $140 #
cone-surface $-1 -42.733899533061305 -43.819458979860848 6.3826347100800493 0 0.83867057594974714 -0.54463902268945019 0.75 0 0 1 I I -0.70710678118654757 0.70710678118654757 0.75 forward I I I I #
loop $-1 $-1 $355 $91 #
coedge $-1 $225 $225 $356 $357 reversed $141 $-1 #
face $-1 $358 $359 $73 $-1 $360 reversed single #
loop $-1 $-1 $361 $143 #
plane-surface $-1 24.48945532407744 -51.246195472236963 5.0161351287582505 0 -0.83867057594974714 0.54463902268945019 1 0 0 forward_v I I I I #
coedge $-1 $362 $363 $364 $365 reversed $144 $-1 #
face $-1 $-1 $366 $74 $-1 $367 forward single #
loop $-1 $368 $369 $146 #
cone-surface $-1 17.72983950950379 -43.819458979860848 6.3826347100800493 0 0.83867057594974714 -0.54463902268945019 0.75 0 0 1 I I -0.70710678118654757 0.70710678118654757 0.75 forward I I I I #
loop $-1 $-1 $370 $93 #
coedge $-1 $234 $234 $371 $372 reversed $147 $-1 #
face $-1 $-1 $373 $75 $-1 $374 forward single #
loop $-1 $375 $376 $149 #
cone-surface $-1 31.24907113865109 -43.819458979860848 6.3826347100800493 0 0.83867057594974714 -0.54463902268945019 0.75 0 0 1 I I -0.70710678118654757 0.70710678118654757 0.75 forward I I I I #
loop $-1 $-1 $377 $94 #
coedge $-1 $239 $239 $378 $379 reversed $150 $-1 #
face $-1 $380 $381 $57 $-1 $382 reversed single #
loop $-1 $-1 $383 $152 #
plane-surface $-1 0 -51.24619547223697 0 0 1 0 0 0 1 forward_v I I I I #
coedge $-1 $384 $385 $386 $387 forward $153 $-1 #
coedge $-1 $388 $155 $389 $390 forward $96 $-1 #
coedge $-1 $155 $388 $391 $392 forward $96 $-1 #
coedge $-1 $393 $394 $155 $247 reversed $395 $-1 #
edge $-1 $396 -51.24619547223697 $397 51.24619547223697 $246 $398 forward 7 unknown #
face $-1 $399 $400 $58 $-1 $401 reversed single #
loop $-1 $-1 $402 $156 #
plane-surface $-1 -42.15059141138871 119.51952108257021 169.12511421621093 -1 0 0 0 0.83867057594974714 0.54463902268945019 forward_v I I I I #
coedge $-1 $403 $404 $405 $406 reversed $157 $-1 #
coedge $-1 $253 $159 $407 $408 reversed $99 $-1 #
coedge $-1 $159 $252 $403 $409 reversed $99 $-1 #
coedge $-1 $405 $410 $159 $255 forward $411 $-1 #
edge $-1 $412 8.5135650690481341 $413 15.750151012467342 $254 $414 forward 7 unknown #
loop $-1 $-1 $261 $160 #
plane-surface $-1 -51.55047249603097 -4.5751601648663609 88.537088531603544 0 0.83867057594974714 0.54463902268945019 1 0 0 forward_v I I I I #
loop $-1 $-1 $415 $101 #
coedge $-1 $259 $259 $260 $416 reversed $161 $-1 #
coedge $-1 $260 $260 $259 $416 forward $163 $-1 #
coedge $-1 $261 $261 $164 $262 forward $256 $-1 #
edge $-1 $417 1.7894990280628548e-015 $417 6.2831853071796022 $261 $418 forward 7 unknown #
loop $-1 $-1 $268 $165 #
plane-surface $-1 -51.55047249603097 -4.5751601648663609 88.537088531603544 0 0.83867057594974714 0.54463902268945019 1 0 0 forward_v I I I I #
loop $-1 $-1 $419 $104 #
coedge $-1 $266 $266 $267 $420 reversed $166 $-1 #
coedge $-1 $267 $267 $266 $420 forward $168 $-1 #
coedge $-1 $268 $268 $169 $269 forward $263 $-1 #
edge $-1 $421 1.7894990280628548e-015 $421 6.2831853071796022 $268 $422 forward 7 unknown #
face $-1 $423 $424 $61 $-1 $425 forward single #
loop $-1 $-1 $426 $170 #
plane-surface $-1 -7.783609747368061 119.51952108257021 169.12511421621093 -1 0 0 0 0.83867057594974714 0.54463902268945019 forward_v I I I I #
coedge $-1 $427 $428 $429 $430 reversed $171 $-1 #
coedge $-1 $275 $173 $431 $432 reversed $108 $-1 #
coedge $-1 $173 $274 $427 $433 reversed $108 $-1 #
coedge $-1 $429 $434 $173 $277 forward $424 $-1 #
edge $-1 $435 8.5135650690481341 $436 15.750151012467342 $276 $437 forward 7 unknown #
loop $-1 $-1 $283 $174 #
plane-surface $-1 -17.183490832010321 -4.5751601648663609 88.537088531603544 0 0.83867057594974714 0.54463902268945019 1 0 0 forward_v I I I I #
loop $-1 $-1 $438 $110 #
coedge $-1 $281 $281 $282 $439 reversed $175 $-1 #
coedge $-1 $282 $282 $281 $439 forward $177 $-1 #
coedge $-1 $283 $283 $178 $284 forward $278 $-1 #
edge $-1 $440 1.7894990280628548e-015 $440 6.2831853071796022 $283 $441 forward 7 unknown #
loop $-1 $-1 $290 $179 #
plane-surface $-1 -17.183490832010321 -4.5751601648663609 88.537088531603544 0 0.83867057594974714 0.54463902268945019 1 0 0 forward_v I I I I #
loop $-1 $-1 $442 $113 #
coedge $-1 $288 $288 $289 $443 reversed $180 $-1 #
coedge $-1 $289 $289 $288 $443 forward $182 $-1 #
coedge $-1 $290 $290 $183 $291 forward $285 $-1 #
edge $-1 $444 1.7894990280628548e-015 $444 6.2831853071796022 $290 $445 forward 7 unknown #
face $-1 $446 $447 $64 $-1 $448 forward single #
loop $-1 $-1 $449 $184 #
plane-surface $-1 26.583371916652595 119.51952108257021 169.12511421621093 -1 0 0 0 0.83867057594974714 0.54463902268945019 forward_v I I I I #
coedge $-1 $450 $451 $452 $453 reversed $185 $-1 #
coedge $-1 $297 $187 $454 $455 reversed $117 $-1 #
coedge $-1 $187 $296 $450 $456 reversed $117 $-1 #
coedge $-1 $452 $457 $187 $299 forward $447 $-1 #
edge $-1 $458 8.5135650690481341 $459 15.750151012467342 $298 $460 forward 7 unknown #
loop $-1 $-1 $305 $188 #
plane-surface $-1 17.183490832010335 -4.5751601648663609 88.537088531603544 0 0.83867057594974714 0.54463902268945019 1 0 0 forward_v I I I I #
loop $-1 $-1 $461 $119 #
coedge $-1 $303 $303 $304 $462 reversed $189 $-1 #
coedge $-1 $304 $304 $303 $462 forward $191 $-1 #
coedge $-1 $305 $305 $192 $306 forward $300 $-1 #
edge $-1 $463 1.7894990280628548e-015 $463 6.2831853071796022 $305 $464 forward 7 unknown #
loop $-1 $-1 $312 $193 #
plane-surface $-1 17.183490832010335 -4.5751601648663609 88.537088531603544 0 0.83867057594974714 0.54463902268945019 1 0 0 forward_v I I I I #
loop $-1 $-1 $465 $122 #
coedge $-1 $310 $310 $311 $466 reversed $194 $-1 #
coedge $-1 $311 $311 $310 $466 forward $196 $-1 #
coedge $-1 $312 $312 $197 $313 forward $307 $-1 #
edge $-1 $467 1.7894990280628548e-015 $467 6.2831853071796022 $312 $468 forward 7 unknown #
face $-1 $469 $470 $67 $-1 $471 forward single #
loop $-1 $-1 $472 $198 #
plane-surface $-1 60.950353580673237 119.51952108257021 169.12511421621093 -1 0 0 0 0.83867057594974714 0.54463902268945019 forward_v I I I I #
coedge $-1 $473 $474 $475 $476 reversed $199 $-1 #
coedge $-1 $319 $201 $477 $478 reversed $126 $-1 #
coedge $-1 $201 $318 $473 $479 reversed $126 $-1 #
coedge $-1 $475 $480 $201 $321 forward $470 $-1 #
edge $-1 $481 8.5135650690481341 $482 15.750151012467342 $320 $483 forward 7 unknown #
loop $-1 $-1 $327 $202 #
plane-surface $-1 51.550472496030977 -4.5751601648663609 88.537088531603544 0 0.83867057594974714 0.54463902268945019 1 0 0 forward_v I I I I #
loop $-1 $-1 $484 $128 #
coedge $-1 $325 $325 $326 $485 reversed $203 $-1 #
coedge $-1 $326 $326 $325 $485 forward $205 $-1 #
coedge $-1 $327 $327 $206 $328 forward $322 $-1 #
edge $-1 $486 1.7894990280628548e-015 $486 6.2831853071796022 $327 $487 forward 7 unknown #
loop $-1 $-1 $334 $207 #
plane-surface $-1 51.550472496030977 -4.5751601648663609 88.537088531603544 0 0.83867057594974714 0.54463902268945019 1 0 0 forward_v I I I I #
loop $-1 $-1 $488 $131 #
coedge $-1 $332 $332 $333 $489 reversed $208 $-1 #
coedge $-1 $333 $333 $332 $489 forward $210 $-1 #
coedge $-1 $334 $334 $211 $335 forward $329 $-1 #
edge $-1 $490 1.7894990280628548e-015 $490 6.2831853071796022 $334 $491 forward 7 unknown #
face $-1 $492 $493 $70 $-1 $494 reversed single #
loop $-1 $-1 $495 $212 #
plane-surface $-1 -65.265952248306789 -175.34087671967353 85.604160813365638 1 0 0 0 0.83867057594974714 -0.54463902268945019 forward_v I I I I #
coedge $-1 $496 $497 $498 $499 reversed $213 $-1 #
coedge $-1 $341 $215 $500 $501 reversed $135 $-1 #
coedge $-1 $215 $340 $496 $502 reversed $135 $-1 #
coedge $-1 $498 $503 $215 $343 forward $504 $-1 #
edge $-1 $505 36.424242887599796 $506 42.078612779686054 $342 $507 forward 7 unknown #
loop $-1 $-1 $349 $216 #
plane-surface $-1 -49.493515347634954 -51.246195472236963 5.0161351287582505 0 -0.83867057594974714 0.54463902268945019 1 0 0 forward_v I I I I #
loop $-1 $-1 $508 $137 #
coedge $-1 $347 $347 $348 $509 reversed $217 $-1 #
coedge $-1 $348 $348 $347 $509 forward $219 $-1 #
coedge $-1 $349 $349 $220 $350 forward $344 $-1 #
edge $-1 $510 1.3928132283557532e-015 $510 6.2831853071796022 $349 $511 forward 7 unknown #
loop $-1 $-1 $356 $221 #
plane-surface $-1 -49.493515347634954 -51.246195472236963 5.0161351287582505 0 -0.83867057594974714 0.54463902268945019 1 0 0 forward_v I I I I #
loop $-1 $-1 $512 $140 #
coedge $-1 $354 $354 $355 $513 reversed $222 $-1 #
coedge $-1 $355 $355 $354 $513 forward $224 $-1 #
coedge $-1 $356 $356 $225 $357 forward $351 $-1 #
edge $-1 $514 1.3928132283557532e-015 $514 6.2831853071796022 $356 $515 forward 7 unknown #
face $-1 $516 $517 $73 $-1 $518 reversed single #
loop $-1 $-1 $519 $226 #
plane-surface $-1 8.7170184234056016 -175.34087671967353 85.604160813365638 1 0 0 0 0.83867057594974714 -0.54463902268945019 forward_v I I I I #
coedge $-1 $520 $521 $522 $523 reversed $227 $-1 #
coedge $-1 $363 $229 $524 $525 reversed $144 $-1 #
coedge $-1 $229 $362 $520 $526 reversed $144 $-1 #
coedge $-1 $522 $527 $229 $365 forward $528 $-1 #
edge $-1 $529 36.424242887599796 $530 42.078612779686054 $364 $531 forward 7 unknown #
loop $-1 $-1 $371 $230 #
plane-surface $-1 24.48945532407744 -51.246195472236963 5.0161351287582505 0 -0.83867057594974714 0.54463902268945019 1 0 0 forward_v I I I I #
loop $-1 $-1 $532 $146 #
coedge $-1 $369 $369 $370 $533 reversed $231 $-1 #
coedge $-1 $370 $370 $369 $533 forward $233 $-1 #
coedge $-1 $371 $371 $234 $372 forward $366 $-1 #
edge $-1 $534 1.3928132283557532e-015 $534 6.2831853071796022 $371 $535 forward 7 unknown #
loop $-1 $-1 $378 $235 #
plane-surface $-1 24.48945532407744 -51.246195472236963 5.0161351287582505 0 -0.83867057594974714 0.54463902268945019 1 0 0 forward_v I I I I #
loop $-1 $-1 $536 $149 #
coedge $-1 $376 $376 $377 $537 reversed $236 $-1 #
coedge $-1 $377 $377 $376 $537 forward $238 $-1 #
coedge $-1 $378 $378 $239 $379 forward $373 $-1 #
edge $-1 $538 1.3928132283557532e-015 $538 6.2831853071796022 $378 $539 forward 7 unknown #
face $-1 $540 $541 $57 $-1 $542 reversed single #
loop $-1 $-1 $543 $240 #
plane-surface $-1 -73.982970671712394 0 0 1 0 0 0 0 -1 forward_v I I I I #
coedge $-1 $544 $391 $545 $546 forward $241 $-1 #
coedge $-1 $547 $243 $544 $548 forward $153 $-1 #
coedge $-1 $243 $547 $549 $550 forward $153 $-1 #
coedge $-1 $394 $393 $243 $387 reversed $395 $-1 #
edge $-1 $551 -51.24619547223697 $552 51.24619547223697 $386 $553 forward 7 unknown #
coedge $-1 $245 $244 $554 $555 forward $96 $-1 #
coedge $-1 $556 $557 $244 $390 reversed $541 $-1 #
edge $-1 $397 -73.982970671712394 $558 73.982970671712394 $389 $559 forward 7 unknown #
coedge $-1 $383 $560 $245 $392 reversed $241 $-1 #
edge $-1 $561 -73.982970671712394 $396 73.982970671712394 $391 $562 forward 7 unknown #
coedge $-1 $386 $246 $560 $563 forward $395 $-1 #
coedge $-1 $246 $386 $556 $564 reversed $395 $-1 #
loop $-1 $-1 $393 $540 #
vertex $-1 $247 $565 #
vertex $-1 $247 $566 #
straight-curve $-1 73.982970671712394 0 13.723101498174705 0 1 0 I I #
face $-1 $-1 $411 $58 $-1 $567 forward single #
loop $-1 $-1 $568 $248 #
plane-surface $-1 0 51.24619547223697 0 0 -1 0 0 0 -1 forward_v I I I I #
coedge $-1 $569 $570 $571 $572 reversed $249 $-1 #
coedge $-1 $573 $251 $253 $409 forward $157 $-1 #
coedge $-1 $251 $573 $569 $574 forward $157 $-1 #
coedge $-1 $571 $254 $251 $406 forward $411 $-1 #
edge $-1 $413 -35.175117332657749 $575 -16.375355163373225 $405 $576 forward 7 unknown #
coedge $-1 $577 $578 $252 $408 forward $400 $-1 #
edge $-1 $579 -81.982821120370517 $412 -70.839455609930766 $407 $580 forward 7 unknown #
edge $-1 $413 89.205451077982815 $579 102.49239094447393 $253 $581 forward 7 unknown #
coedge $-1 $254 $571 $577 $582 forward $411 $-1 #
loop $-1 $-1 $571 $399 #
vertex $-1 $408 $583 #
vertex $-1 $255 $584 #
straight-curve $-1 -60.95035358067323 59.759760541285104 13.723101498174699 0 -1 0 I I #
coedge $-1 $415 $415 $-1 $585 reversed $258 $-1 #
edge $-1 $586 0 $586 6.2831853071796004 $259 $587 forward 7 unknown #
vertex $-1 $262 $588 #
ellipse-curve $-1 -55.578992960877656 47.627902500527377 8.1514187429548226 0 0.83867057594974714 0.54463902268945019 2 0 0 1 I I #
coedge $-1 $419 $419 $-1 $589 reversed $265 $-1 #
edge $-1 $590 0 $590 6.2831853071796004 $266 $591 forward 7 unknown #
vertex $-1 $269 $592 #
ellipse-curve $-1 -47.521952031184284 47.627902500527377 8.1514187429548226 0 0.83867057594974714 0.54463902268945019 2 0 0 1 I I #
face $-1 $-1 $593 $61 $-1 $594 reversed single #
loop $-1 $-1 $276 $270 #
plane-surface $-1 0 0 13.723101498174705 0 0 1 1 0 0 forward_v I I I I #
coedge $-1 $595 $596 $597 $598 reversed $271 $-1 #
coedge $-1 $599 $273 $275 $433 forward $171 $-1 #
coedge $-1 $273 $599 $595 $600 forward $171 $-1 #
coedge $-1 $597 $276 $273 $430 forward $424 $-1 #
edge $-1 $436 -17.991626500647421 $601 0.80813566863709951 $429 $602 forward 7 unknown #
coedge $-1 $603 $604 $274 $432 forward $593 $-1 #
edge $-1 $605 -81.982821120370517 $435 -70.839455609930766 $431 $606 forward 7 unknown #
edge $-1 $436 89.205451077982815 $605 102.49239094447393 $275 $607 forward 7 unknown #
coedge $-1 $276 $597 $603 $608 forward $424 $-1 #
vertex $-1 $277 $609 #
vertex $-1 $277 $610 #
straight-curve $-1 -26.583371916652581 59.759760541285104 13.723101498174699 0 -1 0 I I #
coedge $-1 $438 $438 $-1 $611 reversed $280 $-1 #
edge $-1 $612 0 $612 6.2831853071796004 $281 $613 forward 7 unknown #
vertex $-1 $284 $614 #
ellipse-curve $-1 -21.212011296857 47.627902500527377 8.1514187429548226 0 0.83867057594974714 0.54463902268945019 2 0 0 1 I I #
coedge $-1 $442 $442 $-1 $615 reversed $287 $-1 #
edge $-1 $616 0 $616 6.2831853071796004 $288 $617 forward 7 unknown #
vertex $-1 $291 $618 #
ellipse-curve $-1 -13.154970367163635 47.627902500527377 8.1514187429548226 0 0.83867057594974714 0.54463902268945019 2 0 0 1 I I #
face $-1 $-1 $619 $64 $-1 $620 reversed single #
loop $-1 $-1 $298 $292 #
plane-surface $-1 0 0 13.723101498174705 0 0 1 1 0 0 forward_v I I I I #
coedge $-1 $621 $622 $623 $624 reversed $293 $-1 #
coedge $-1 $625 $295 $297 $456 forward $185 $-1 #
coedge $-1 $295 $625 $621 $626 forward $185 $-1 #
coedge $-1 $623 $298 $295 $453 forward $447 $-1 #
edge $-1 $459 -0.80813566863709241 $627 17.991626500647428 $452 $628 forward 7 unknown #
coedge $-1 $629 $630 $296 $455 forward $619 $-1 #
edge $-1 $631 -81.982821120370517 $458 -70.839455609930766 $454 $632 forward 7 unknown #
edge $-1 $459 89.205451077982815 $631 102.49239094447393 $297 $633 forward 7 unknown #
coedge $-1 $298 $623 $629 $634 forward $447 $-1 #
vertex $-1 $299 $635 #
vertex $-1 $299 $636 #
straight-curve $-1 7.7836097473680752 59.759760541285104 13.723101498174699 0 -1 0 I I #
coedge $-1 $461 $461 $-1 $637 reversed $302 $-1 #
edge $-1 $638 0 $638 6.2831853071796004 $303 $639 forward 7 unknown #
vertex $-1 $306 $640 #
ellipse-curve $-1 13.154970367163656 47.627902500527377 8.1514187429548226 0 0.83867057594974714 0.54463902268945019 2 0 0 1 I I #
coedge $-1 $465 $465 $-1 $641 reversed $309 $-1 #
edge $-1 $642 0 $642 6.2831853071796004 $310 $643 forward 7 unknown #
vertex $-1 $313 $644 #
ellipse-curve $-1 21.212011296857014 47.627902500527377 8.1514187429548226 0 0.83867057594974714 0.54463902268945019 2 0 0 1 I I #
face $-1 $-1 $645 $67 $-1 $646 reversed single #
loop $-1 $-1 $320 $314 #
plane-surface $-1 0 0 13.723101498174705 0 0 1 1 0 0 forward_v I I I I #
coedge $-1 $647 $648 $649 $650 reversed $315 $-1 #
coedge $-1 $651 $317 $319 $479 forward $199 $-1 #
coedge $-1 $317 $651 $647 $652 forward $199 $-1 #
coedge $-1 $649 $320 $317 $476 forward $470 $-1 #
edge $-1 $482 16.375355163373229 $653 35.175117332657749 $475 $654 forward 7 unknown #
coedge $-1 $655 $656 $318 $478 forward $645 $-1 #
edge $-1 $657 -81.982821120370517 $481 -70.839455609930766 $477 $658 forward 7 unknown #
edge $-1 $482 89.205451077982815 $657 102.49239094447393 $319 $659 forward 7 unknown #
coedge $-1 $320 $649 $655 $660 forward $470 $-1 #
vertex $-1 $321 $661 #
vertex $-1 $321 $662 #
straight-curve $-1 42.150591411388717 59.759760541285104 13.723101498174699 0 -1 0 I I #
coedge $-1 $484 $484 $-1 $663 reversed $324 $-1 #
edge $-1 $664 0 $664 6.2831853071796004 $325 $665 forward 7 unknown #
vertex $-1 $328 $666 #
ellipse-curve $-1 47.521952031184298 47.627902500527377 8.1514187429548226 0 0.83867057594974714 0.54463902268945019 2 0 0 1 I I #
coedge $-1 $488 $488 $-1 $667 reversed $331 $-1 #
edge $-1 $668 0 $668 6.2831853071796004 $332 $669 forward 7 unknown #
vertex $-1 $335 $670 #
ellipse-curve $-1 55.578992960877656 47.627902500527377 8.1514187429548226 0 0.83867057594974714 0.54463902268945019 2 0 0 1 I I #
face $-1 $-1 $504 $70 $-1 $671 forward single #
loop $-1 $-1 $672 $336 #
plane-surface $-1 0 -51.24619547223697 0 0 1 0 0 0 1 forward_v I I I I #
coedge $-1 $673 $674 $675 $676 reversed $337 $-1 #
coedge $-1 $677 $339 $341 $502 forward $213 $-1 #
coedge $-1 $339 $677 $673 $678 forward $213 $-1 #
coedge $-1 $675 $342 $339 $499 forward $504 $-1 #
edge $-1 $506 8.9743207731456422 $679 40.519194574489312 $498 $680 forward 7 unknown #
coedge $-1 $681 $682 $340 $501 forward $493 $-1 #
edge $-1 $683 -37.785945277924583 $505 -29.078978908508113 $500 $684 forward 7 unknown #
edge $-1 $506 -10.381866991764085 $683 1.2808562293387176e-014 $341 $685 forward 7 unknown #
coedge $-1 $342 $675 $681 $686 forward $504 $-1 #
loop $-1 $-1 $675 $492 #
vertex $-1 $501 $687 #
vertex $-1 $343 $688 #
straight-curve $-1 -33.721078446963119 -87.670438359836766 13.723101498174707 0 1 0 I I #
coedge $-1 $508 $508 $-1 $689 reversed $346 $-1 #
edge $-1 $690 0 $690 6.2831853071796004 $347 $691 forward 7 unknown #
vertex $-1 $350 $692 #
ellipse-curve $-1 -56.253131162208604 -48.419010526193837 9.3696183134664786 0 -0.83867057594974714 0.54463902268945019 1.5 0 0 1 I I #
coedge $-1 $512 $512 $-1 $693 reversed $353 $-1 #
edge $-1 $694 0 $694 6.2831853071796004 $354 $695 forward 7 unknown #
vertex $-1 $357 $696 #
ellipse-curve $-1 -42.733899533061305 -48.419010526193837 9.3696183134664786 0 -0.83867057594974714 0.54463902268945019 1.5 0 0 1 I I #
face $-1 $-1 $528 $73 $-1 $697 forward single #
loop $-1 $-1 $698 $358 #
plane-surface $-1 0 -51.24619547223697 0 0 1 0 0 0 1 forward_v I I I I #
coedge $-1 $699 $700 $701 $702 reversed $359 $-1 #
coedge $-1 $703 $361 $363 $526 forward $227 $-1 #
coedge $-1 $361 $703 $699 $704 forward $227 $-1 #
coedge $-1 $701 $364 $361 $523 forward $528 $-1 #
edge $-1 $530 -28.017164562710555 $705 3.5277092386331184 $522 $706 forward 7 unknown #
coedge $-1 $707 $708 $362 $525 forward $517 $-1 #
edge $-1 $709 -37.785945277924583 $529 -29.078978908508113 $524 $710 forward 7 unknown #
edge $-1 $530 -10.381866991764085 $709 1.2808562293387176e-014 $363 $711 forward 7 unknown #
coedge $-1 $364 $701 $707 $712 forward $528 $-1 #
loop $-1 $-1 $701 $516 #
vertex $-1 $525 $713 #
vertex $-1 $365 $714 #
straight-curve $-1 40.261892224749275 -87.670438359836766 13.723101498174707 0 1 0 I I #
coedge $-1 $532 $532 $-1 $715 reversed $368 $-1 #
edge $-1 $716 0 $716 6.2831853071796004 $369 $717 forward 7 unknown #
vertex $-1 $372 $718 #
ellipse-curve $-1 17.72983950950379 -48.419010526193837 9.3696183134664786 0 -0.83867057594974714 0.54463902268945019 1.5 0 0 1 I I #
coedge $-1 $536 $536 $-1 $719 reversed $375 $-1 #
edge $-1 $720 0 $720 6.2831853071796004 $376 $721 forward 7 unknown #
vertex $-1 $379 $722 #
ellipse-curve $-1 31.24907113865109 -48.419010526193837 9.3696183134664786 0 -0.83867057594974714 0.54463902268945019 1.5 0 0 1 I I #
face $-1 $-1 $395 $57 $-1 $723 reversed single #
loop $-1 $-1 $556 $380 #
plane-surface $-1 0 51.24619547223697 0 0 -1 0 0 0 -1 forward_v I I I I #
coedge $-1 $724 $554 $557 $725 forward $381 $-1 #
coedge $-1 $560 $383 $384 $548 reversed $241 $-1 #
coedge $-1 $554 $724 $383 $546 reversed $381 $-1 #
edge $-1 $561 -13.723101498174705 $726 13.723101498174705 $545 $727 forward 7 unknown #
coedge $-1 $385 $384 $724 $728 forward $153 $-1 #
edge $-1 $552 -73.982970671712394 $726 73.982970671712394 $544 $729 forward 7 unknown #
coedge $-1 $557 $556 $385 $550 reversed $541 $-1 #
edge $-1 $730 -73.982970671712394 $551 73.982970671712394 $549 $731 forward 7 unknown #
vertex $-1 $387 $732 #
vertex $-1 $563 $733 #
straight-curve $-1 73.982970671712394 0 -13.723101498174705 0 -1 0 I I #
coedge $-1 $543 $545 $388 $555 reversed $381 $-1 #
edge $-1 $558 -51.24619547223697 $561 51.24619547223697 $554 $734 forward 7 unknown #
coedge $-1 $549 $389 $394 $564 forward $541 $-1 #
coedge $-1 $389 $549 $543 $725 reversed $541 $-1 #
vertex $-1 $390 $735 #
straight-curve $-1 0 51.24619547223697 13.723101498174705 -1 0 0 I I #
coedge $-1 $391 $544 $393 $563 reversed $241 $-1 #
vertex $-1 $555 $736 #
straight-curve $-1 0 -51.24619547223697 13.723101498174705 1 0 0 I I #
edge $-1 $396 -13.723101498174705 $552 13.723101498174705 $393 $737 forward 7 unknown #
edge $-1 $397 -13.723101498174705 $551 13.723101498174705 $394 $738 forward 7 unknown #
point $-1 73.982970671712394 -51.24619547223697 13.723101498174705 #
point $-1 73.982970671712394 51.24619547223697 13.723101498174705 #
plane-surface $-1 0 0 13.723101498174705 0 0 1 1 0 0 forward_v I I I I #
coedge $-1 $578 $577 $570 $739 forward $400 $-1 #
coedge $-1 $570 $402 $404 $574 reversed $249 $-1 #
coedge $-1 $402 $569 $568 $739 reversed $249 $-1 #
coedge $-1 $410 $405 $402 $572 forward $411 $-1 #
edge $-1 $575 -15.750151012467342 $740 -8.5135650690481341 $571 $741 forward 7 unknown #
coedge $-1 $404 $403 $578 $742 reversed $157 $-1 #
edge $-1 $743 -102.49239094447393 $575 -89.205451077982815 $569 $744 forward 7 unknown #
vertex $-1 $406 $745 #
straight-curve $-1 -25.775236248015485 44.009609528817762 13.723101498174714 1 0 0 I I #
coedge $-1 $568 $407 $410 $582 reversed $400 $-1 #
coedge $-1 $407 $568 $573 $742 forward $400 $-1 #
vertex $-1 $408 $746 #
straight-curve $-1 -60.95035358067323 51.24619547223697 84.562557108105466 0 0 1 I I #
straight-curve $-1 -60.95035358067323 -4.5751601648663609 88.537088531603544 0 0.54463902268945019 -0.83867057594974714 I I #
edge $-1 $740 42.15059141138871 $412 60.95035358067323 $577 $747 forward 7 unknown #
point $-1 -60.95035358067323 51.24619547223697 13.723101498174705 #
point $-1 -60.95035358067323 44.009609528817762 13.723101498174699 #
edge $-1 $748 1 $748 0 $415 $-1 forward 7 unknown #
vertex $-1 $416 $749 #
ellipse-curve $-1 -55.578992960877656 45.515037238384004 6.7793080424630361 0 0.83867057594974714 0.54463902268945019 2 0 0 1 I I #
point $-1 -53.578992960877656 47.62790250052737 8.1514187429548137 #
edge $-1 $750 1 $750 0 $419 $-1 forward 7 unknown #
vertex $-1 $420 $751 #
ellipse-curve $-1 -47.521952031184284 45.515037238384004 6.7793080424630361 0 0.83867057594974714 0.54463902268945019 2 0 0 1 I I #
point $-1 -45.521952031184284 47.62790250052737 8.1514187429548137 #
loop $-1 $-1 $431 $423 #
plane-surface $-1 0 51.24619547223697 0 0 -1 0 0 0 -1 forward_v I I I I #
coedge $-1 $596 $426 $428 $600 reversed $271 $-1 #
coedge $-1 $426 $595 $752 $753 reversed $271 $-1 #
coedge $-1 $434 $429 $426 $598 forward $424 $-1 #
edge $-1 $601 -15.750151012467342 $754 -8.5135650690481341 $597 $755 forward 7 unknown #
coedge $-1 $428 $427 $604 $756 reversed $171 $-1 #
edge $-1 $757 -102.49239094447393 $601 -89.205451077982815 $595 $758 forward 7 unknown #
vertex $-1 $430 $759 #
straight-curve $-1 -8.5917454160051605 44.009609528817762 13.723101498174714 1 0 0 I I #
coedge $-1 $752 $431 $434 $608 reversed $593 $-1 #
coedge $-1 $431 $752 $599 $756 forward $593 $-1 #
vertex $-1 $432 $760 #
straight-curve $-1 -26.583371916652581 51.24619547223697 84.562557108105466 0 0 1 I I #
straight-curve $-1 -26.583371916652581 -4.5751601648663609 88.537088531603544 0 0.54463902268945019 -0.83867057594974714 I I #
edge $-1 $754 7.783609747368061 $435 26.583371916652581 $603 $761 forward 7 unknown #
point $-1 -26.583371916652581 51.24619547223697 13.723101498174705 #
point $-1 -26.583371916652581 44.009609528817762 13.723101498174699 #
edge $-1 $762 1 $762 0 $438 $-1 forward 7 unknown #
vertex $-1 $439 $763 #
ellipse-curve $-1 -21.212011296857 45.515037238384004 6.7793080424630361 0 0.83867057594974714 0.54463902268945019 2 0 0 1 I I #
point $-1 -19.212011296857 47.62790250052737 8.1514187429548137 #
edge $-1 $764 1 $764 0 $442 $-1 forward 7 unknown #
vertex $-1 $443 $765 #
ellipse-curve $-1 -13.154970367163635 45.515037238384004 6.7793080424630361 0 0.83867057594974714 0.54463902268945019 2 0 0 1 I I #
point $-1 -11.154970367163635 47.62790250052737 8.1514187429548137 #
loop $-1 $-1 $454 $446 #
plane-surface $-1 0 51.24619547223697 0 0 -1 0 0 0 -1 forward_v I I I I #
coedge $-1 $622 $449 $451 $626 reversed $293 $-1 #
coedge $-1 $449 $621 $766 $767 reversed $293 $-1 #
coedge $-1 $457 $452 $449 $624 forward $447 $-1 #
edge $-1 $627 -15.750151012467342 $768 -8.5135650690481341 $623 $769 forward 7 unknown #
coedge $-1 $451 $450 $630 $770 reversed $185 $-1 #
edge $-1 $771 -102.49239094447393 $627 -89.205451077982815 $621 $772 forward 7 unknown #
vertex $-1 $453 $773 #
straight-curve $-1 8.5917454160051676 44.009609528817762 13.723101498174714 1 0 0 I I #
coedge $-1 $766 $454 $457 $634 reversed $619 $-1 #
coedge $-1 $454 $766 $625 $770 forward $619 $-1 #
vertex $-1 $455 $774 #
straight-curve $-1 7.7836097473680752 51.24619547223697 84.562557108105466 0 0 1 I I #
straight-curve $-1 7.7836097473680752 -4.5751601648663609 88.537088531603544 0 0.54463902268945019 -0.83867057594974714 I I #
edge $-1 $768 -26.583371916652595 $458 -7.7836097473680752 $629 $775 forward 7 unknown #
point $-1 7.7836097473680752 51.24619547223697 13.723101498174705 #
point $-1 7.7836097473680752 44.009609528817762 13.723101498174699 #
edge $-1 $776 1 $776 0 $461 $-1 forward 7 unknown #
vertex $-1 $462 $777 #
ellipse-curve $-1 13.154970367163656 45.515037238384004 6.7793080424630361 0 0.83867057594974714 0.54463902268945019 2 0 0 1 I I #
point $-1 15.154970367163656 47.62790250052737 8.1514187429548137 #
edge $-1 $778 1 $778 0 $465 $-1 forward 7 unknown #
vertex $-1 $466 $779 #
ellipse-curve $-1 21.212011296857014 45.515037238384004 6.7793080424630361 0 0.83867057594974714 0.54463902268945019 2 0 0 1 I I #
point $-1 23.212011296857014 47.62790250052737 8.1514187429548137 #
loop $-1 $-1 $477 $469 #
plane-surface $-1 0 51.24619547223697 0 0 -1 0 0 0 -1 forward_v I I I I #
coedge $-1 $648 $472 $474 $652 reversed $315 $-1 #
coedge $-1 $472 $647 $780 $781 reversed $315 $-1 #
coedge $-1 $480 $475 $472 $650 forward $470 $-1 #
edge $-1 $653 -15.750151012467342 $782 -8.5135650690481341 $649 $783 forward 7 unknown #
coedge $-1 $474 $473 $656 $784 reversed $199 $-1 #
edge $-1 $785 -102.49239094447393 $653 -89.205451077982815 $647 $786 forward 7 unknown #
vertex $-1 $476 $787 #
straight-curve $-1 25.775236248015489 44.009609528817762 13.723101498174714 1 0 0 I I #
coedge $-1 $780 $477 $480 $660 reversed $645 $-1 #
coedge $-1 $477 $780 $651 $784 forward $645 $-1 #
vertex $-1 $478 $788 #
straight-curve $-1 42.150591411388717 51.24619547223697 84.562557108105466 0 0 1 I I #
straight-curve $-1 42.150591411388717 -4.5751601648663609 88.537088531603544 0 0.54463902268945019 -0.83867057594974714 I I #
edge $-1 $782 -60.950353580673237 $481 -42.150591411388717 $655 $789 forward 7 unknown #
point $-1 42.150591411388717 51.24619547223697 13.723101498174705 #
point $-1 42.150591411388717 44.009609528817762 13.723101498174699 #
edge $-1 $790 1 $790 0 $484 $-1 forward 7 unknown #
vertex $-1 $485 $791 #
ellipse-curve $-1 47.521952031184298 45.515037238384004 6.7793080424630361 0 0.83867057594974714 0.54463902268945019 2 0 0 1 I I #
point $-1 49.521952031184298 47.62790250052737 8.1514187429548137 #
edge $-1 $792 1 $792 0 $488 $-1 forward 7 unknown #
vertex $-1 $489 $793 #
ellipse-curve $-1 55.578992960877656 45.515037238384004 6.7793080424630361 0 0.83867057594974714 0.54463902268945019 2 0 0 1 I I #
point $-1 57.578992960877656 47.62790250052737 8.1514187429548137 #
plane-surface $-1 0 0 13.723101498174705 0 0 1 1 0 0 forward_v I I I I #
coedge $-1 $682 $681 $674 $794 forward $493 $-1 #
coedge $-1 $674 $495 $497 $678 reversed $337 $-1 #
coedge $-1 $495 $673 $672 $794 reversed $337 $-1 #
coedge $-1 $503 $498 $495 $676 forward $504 $-1 #
edge $-1 $679 -42.078612779686054 $795 -36.424242887599796 $675 $796 forward 7 unknown #
coedge $-1 $497 $496 $682 $797 reversed $213 $-1 #
edge $-1 $798 -1.2808562293387176e-014 $679 10.381866991764085 $673 $799 forward 7 unknown #
vertex $-1 $499 $800 #
straight-curve $-1 -24.746757673817477 -45.591825580150712 13.723101498174705 -1 0 0 I I #
coedge $-1 $672 $500 $503 $686 reversed $493 $-1 #
coedge $-1 $500 $672 $677 $797 forward $493 $-1 #
vertex $-1 $501 $801 #
straight-curve $-1 -33.721078446963119 -51.24619547223697 42.802080406682819 0 0 1 I I #
straight-curve $-1 -33.721078446963119 -51.246195472236963 5.0161351287582505 0 -0.54463902268945019 -0.83867057594974714 I I #
edge $-1 $795 -65.265952248306789 $505 -33.721078446963119 $681 $802 forward 7 unknown #
point $-1 -33.721078446963119 -51.24619547223697 13.723101498174705 #
point $-1 -33.721078446963119 -45.591825580150712 13.723101498174705 #
edge $-1 $803 1 $803 0 $508 $-1 forward 7 unknown #
vertex $-1 $509 $804 #
ellipse-curve $-1 -56.253131162208604 -44.448461911823159 6.7911139770971367 0 -0.83867057594974714 0.54463902268945019 1.5 0 0 1 I I #
point $-1 -54.753131162208604 -48.419010526193844 9.3696183134664857 #
edge $-1 $805 1 $805 0 $512 $-1 forward 7 unknown #
vertex $-1 $513 $806 #
ellipse-curve $-1 -42.733899533061305 -44.448461911823159 6.7911139770971367 0 -0.83867057594974714 0.54463902268945019 1.5 0 0 1 I I #
point $-1 -41.233899533061305 -48.419010526193844 9.3696183134664857 #
plane-surface $-1 0 0 13.723101498174705 0 0 1 1 0 0 forward_v I I I I #
coedge $-1 $708 $707 $700 $807 forward $517 $-1 #
coedge $-1 $700 $519 $521 $704 reversed $359 $-1 #
coedge $-1 $519 $699 $698 $807 reversed $359 $-1 #
coedge $-1 $527 $522 $519 $702 forward $528 $-1 #
edge $-1 $705 -42.078612779686054 $808 -36.424242887599796 $701 $809 forward 7 unknown #
coedge $-1 $521 $520 $708 $810 reversed $227 $-1 #
edge $-1 $811 -1.2808562293387176e-014 $705 10.381866991764085 $699 $812 forward 7 unknown #
vertex $-1 $523 $813 #
straight-curve $-1 12.24472766203872 -45.591825580150712 13.723101498174705 -1 0 0 I I #
coedge $-1 $698 $524 $527 $712 reversed $517 $-1 #
coedge $-1 $524 $698 $703 $810 forward $517 $-1 #
vertex $-1 $525 $814 #
straight-curve $-1 40.261892224749275 -51.24619547223697 42.802080406682819 0 0 1 I I #
straight-curve $-1 40.261892224749275 -51.246195472236963 5.0161351287582505 0 -0.54463902268945019 -0.83867057594974714 I I #
edge $-1 $808 8.7170184234056016 $529 40.261892224749275 $707 $815 forward 7 unknown #
point $-1 40.261892224749275 -51.24619547223697 13.723101498174705 #
point $-1 40.261892224749275 -45.591825580150712 13.723101498174705 #
edge $-1 $816 1 $816 0 $532 $-1 forward 7 unknown #
vertex $-1 $533 $817 #
ellipse-curve $-1 17.72983950950379 -44.448461911823159 6.7911139770971367 0 -0.83867057594974714 0.54463902268945019 1.5 0 0 1 I I #
point $-1 19.22983950950379 -48.419010526193844 9.3696183134664857 #
edge $-1 $818 1 $818 0 $536 $-1 forward 7 unknown #
vertex $-1 $537 $819 #
ellipse-curve $-1 31.24907113865109 -44.448461911823159 6.7911139770971367 0 -0.83867057594974714 0.54463902268945019 1.5 0 0 1 I I #
point $-1 32.74907113865109 -48.419010526193844 9.3696183134664857 #
plane-surface $-1 73.982970671712394 0 0 -1 0 0 0 0 1 forward_v I I I I #
coedge $-1 $545 $543 $547 $728 reversed $381 $-1 #
edge $-1 $558 -13.723101498174705 $730 13.723101498174705 $557 $820 forward 7 unknown #
vertex $-1 $728 $821 #
straight-curve $-1 -73.982970671712394 -51.24619547223697 0 0 0 -1 I I #
edge $-1 $726 -51.24619547223697 $730 51.24619547223697 $724 $822 forward 7 unknown #
straight-curve $-1 0 -51.24619547223697 -13.723101498174705 -1 0 0 I I #
vertex $-1 $550 $823 #
straight-curve $-1 0 51.24619547223697 -13.723101498174705 1 0 0 I I #
point $-1 73.982970671712394 51.24619547223697 -13.723101498174705 #
point $-1 73.982970671712394 -51.24619547223697 -13.723101498174705 #
straight-curve $-1 -73.982970671712394 0 13.723101498174705 0 -1 0 I I #
point $-1 -73.982970671712394 51.24619547223697 13.723101498174705 #
point $-1 -73.982970671712394 -51.24619547223697 13.723101498174705 #
straight-curve $-1 73.982970671712394 -51.24619547223697 0 0 0 -1 I I #
straight-curve $-1 73.982970671712394 51.24619547223697 0 0 0 -1 I I #
edge $-1 $740 70.839455609930766 $743 81.982821120370517 $568 $824 forward 7 unknown #
vertex $-1 $582 $825 #
straight-curve $-1 -42.15059141138871 59.759760541285104 13.723101498174699 0 1 0 I I #
edge $-1 $743 16.375355163373225 $579 35.175117332657749 $578 $826 forward 7 unknown #
vertex $-1 $742 $827 #
straight-curve $-1 -42.15059141138871 -4.5751601648663609 88.537088531603544 0 -0.54463902268945019 0.83867057594974714 I I #
point $-1 -42.15059141138871 44.009609528817762 13.723101498174699 #
point $-1 -60.95035358067323 51.24619547223697 2.5797359877349493 #
straight-curve $-1 0 51.24619547223697 13.723101498174705 -1 0 0 I I #
vertex $-1 $585 $828 #
point $-1 -53.578992960877656 45.515037238384004 6.7793080424630361 #
vertex $-1 $589 $829 #
point $-1 -45.521952031184284 45.515037238384004 6.7793080424630361 #
coedge $-1 $604 $603 $596 $753 forward $593 $-1 #
edge $-1 $754 70.839455609930766 $757 81.982821120370517 $752 $830 forward 7 unknown #
vertex $-1 $608 $831 #
straight-curve $-1 -7.783609747368061 59.759760541285104 13.723101498174699 0 1 0 I I #
edge $-1 $757 -0.80813566863709951 $605 17.991626500647421 $604 $832 forward 7 unknown #
vertex $-1 $756 $833 #
straight-curve $-1 -7.783609747368061 -4.5751601648663609 88.537088531603544 0 -0.54463902268945019 0.83867057594974714 I I #
point $-1 -7.783609747368061 44.009609528817762 13.723101498174699 #
point $-1 -26.583371916652581 51.24619547223697 2.5797359877349493 #
straight-curve $-1 0 51.24619547223697 13.723101498174705 -1 0 0 I I #
vertex $-1 $611 $834 #
point $-1 -19.212011296857 45.515037238384004 6.7793080424630361 #
vertex $-1 $615 $835 #
point $-1 -11.154970367163635 45.515037238384004 6.7793080424630361 #
coedge $-1 $630 $629 $622 $767 forward $619 $-1 #
edge $-1 $768 70.839455609930766 $771 81.982821120370517 $766 $836 forward 7 unknown #
vertex $-1 $634 $837 #
straight-curve $-1 26.583371916652595 59.759760541285104 13.723101498174699 0 1 0 I I #
edge $-1 $771 -17.991626500647428 $631 0.80813566863709241 $630 $838 forward 7 unknown #
vertex $-1 $770 $839 #
straight-curve $-1 26.583371916652595 -4.5751601648663609 88.537088531603544 0 -0.54463902268945019 0.83867057594974714 I I #
point $-1 26.583371916652595 44.009609528817762 13.723101498174699 #
point $-1 7.7836097473680752 51.24619547223697 2.5797359877349493 #
straight-curve $-1 0 51.24619547223697 13.723101498174705 -1 0 0 I I #
vertex $-1 $637 $840 #
point $-1 15.154970367163656 45.515037238384004 6.7793080424630361 #
vertex $-1 $641 $841 #
point $-1 23.212011296857014 45.515037238384004 6.7793080424630361 #
coedge $-1 $656 $655 $648 $781 forward $645 $-1 #
edge $-1 $782 70.839455609930766 $785 81.982821120370517 $780 $842 forward 7 unknown #
vertex $-1 $660 $843 #
straight-curve $-1 60.950353580673237 59.759760541285104 13.723101498174699 0 1 0 I I #
edge $-1 $785 -35.175117332657749 $657 -16.375355163373229 $656 $844 forward 7 unknown #
vertex $-1 $784 $845 #
straight-curve $-1 60.950353580673237 -4.5751601648663609 88.537088531603544 0 -0.54463902268945019 0.83867057594974714 I I #
point $-1 60.950353580673237 44.009609528817762 13.723101498174699 #
point $-1 42.150591411388717 51.24619547223697 2.5797359877349493 #
straight-curve $-1 0 51.24619547223697 13.723101498174705 -1 0 0 I I #
vertex $-1 $663 $846 #
point $-1 49.521952031184298 45.515037238384004 6.7793080424630361 #
vertex $-1 $667 $847 #
point $-1 57.578992960877656 45.515037238384004 6.7793080424630361 #
edge $-1 $795 29.078978908508113 $798 37.785945277924583 $672 $848 forward 7 unknown #
vertex $-1 $686 $849 #
straight-curve $-1 -65.265952248306789 -87.670438359836766 13.723101498174707 0 -1 0 I I #
edge $-1 $798 -40.519194574489312 $683 -8.9743207731456422 $682 $850 forward 7 unknown #
vertex $-1 $797 $851 #
straight-curve $-1 -65.265952248306789 -51.246195472236963 5.0161351287582505 0 0.54463902268945019 0.83867057594974714 I I #
point $-1 -65.265952248306789 -45.591825580150712 13.723101498174705 #
point $-1 -33.721078446963119 -51.24619547223697 5.0161351287582399 #
straight-curve $-1 0 -51.24619547223697 13.723101498174705 1 0 0 I I #
vertex $-1 $689 $852 #
point $-1 -54.753131162208604 -44.448461911823159 6.7911139770971367 #
vertex $-1 $693 $853 #
point $-1 -41.233899533061305 -44.448461911823159 6.7911139770971367 #
edge $-1 $808 29.078978908508113 $811 37.785945277924583 $698 $854 forward 7 unknown #
vertex $-1 $712 $855 #
straight-curve $-1 8.7170184234056016 -87.670438359836766 13.723101498174707 0 -1 0 I I #
edge $-1 $811 -3.5277092386331184 $709 28.017164562710555 $708 $856 forward 7 unknown #
vertex $-1 $810 $857 #
straight-curve $-1 8.7170184234056016 -51.246195472236963 5.0161351287582505 0 0.54463902268945019 0.83867057594974714 I I #
point $-1 8.7170184234056016 -45.591825580150712 13.723101498174705 #
point $-1 40.261892224749275 -51.24619547223697 5.0161351287582399 #
straight-curve $-1 0 -51.24619547223697 13.723101498174705 1 0 0 I I #
vertex $-1 $715 $858 #
point $-1 19.22983950950379 -44.448461911823159 6.7911139770971367 #
vertex $-1 $719 $859 #
point $-1 32.74907113865109 -44.448461911823159 6.7911139770971367 #
straight-curve $-1 -73.982970671712394 51.24619547223697 0 0 0 -1 I I #
point $-1 -73.982970671712394 -51.24619547223697 -13.723101498174705 #
straight-curve $-1 -73.982970671712394 0 -13.723101498174705 0 1 0 I I #
point $-1 -73.982970671712394 51.24619547223697 -13.723101498174705 #
straight-curve $-1 -42.15059141138871 51.24619547223697 84.562557108105466 0 0 -1 I I #
point $-1 -42.15059141138871 51.24619547223697 13.723101498174705 #
straight-curve $-1 -25.775236248015485 51.246195472236977 2.5797359877349564 -1 0 0 I I #
point $-1 -42.15059141138871 51.24619547223697 2.5797359877349493 #
point $-1 -55.578992960877656 43.837696086484506 5.6900299970841353 #
point $-1 -47.521952031184284 43.837696086484506 5.6900299970841353 #
straight-curve $-1 -7.783609747368061 51.24619547223697 84.562557108105466 0 0 -1 I I #
point $-1 -7.783609747368061 51.24619547223697 13.723101498174705 #
straight-curve $-1 -8.5917454160051605 51.246195472236977 2.5797359877349564 -1 0 0 I I #
point $-1 -7.783609747368061 51.24619547223697 2.5797359877349493 #
point $-1 -21.212011296857 43.837696086484506 5.6900299970841353 #
point $-1 -13.154970367163635 43.837696086484506 5.6900299970841353 #
straight-curve $-1 26.583371916652595 51.24619547223697 84.562557108105466 0 0 -1 I I #
point $-1 26.583371916652595 51.24619547223697 13.723101498174705 #
straight-curve $-1 8.5917454160051676 51.246195472236977 2.5797359877349564 -1 0 0 I I #
point $-1 26.583371916652595 51.24619547223697 2.5797359877349493 #
point $-1 13.154970367163656 43.837696086484506 5.6900299970841353 #
point $-1 21.212011296857014 43.837696086484506 5.6900299970841353 #
straight-curve $-1 60.950353580673237 51.24619547223697 84.562557108105466 0 0 -1 I I #
point $-1 60.950353580673237 51.24619547223697 13.723101498174705 #
straight-curve $-1 25.775236248015489 51.246195472236977 2.5797359877349564 -1 0 0 I I #
point $-1 60.950353580673237 51.24619547223697 2.5797359877349493 #
point $-1 47.521952031184298 43.837696086484506 5.6900299970841353 #
point $-1 55.578992960877656 43.837696086484506 5.6900299970841353 #
straight-curve $-1 -65.265952248306789 -51.24619547223697 42.802080406682819 0 0 -1 I I #
point $-1 -65.265952248306789 -51.24619547223697 13.723101498174705 #
straight-curve $-1 -24.746757673817477 -51.24619547223697 5.0161351287582319 1 0 0 I I #
point $-1 -65.265952248306789 -51.24619547223697 5.0161351287582399 #
point $-1 -56.253131162208604 -43.190456047898536 5.974155443062962 #
point $-1 -42.733899533061305 -43.190456047898536 5.974155443062962 #
straight-curve $-1 8.7170184234056016 -51.24619547223697 42.802080406682819 0 0 -1 I I #
point $-1 8.7170184234056016 -51.24619547223697 13.723101498174705 #
straight-curve $-1 12.24472766203872 -51.24619547223697 5.0161351287582319 1 0 0 I I #
point $-1 8.7170184234056016 -51.24619547223697 5.0161351287582399 #
point $-1 17.72983950950379 -43.190456047898536 5.974155443062962 #
point $-1 31.24907113865109 -43.190456047898536 5.974155443062962 #
End-of-ACIS-data 