500 0 14 0           
7 Unknown 11 ACIS 5.0 NT 24 Fri Mar 26 17:01:38 1999 
-1 9.9999999999999995e-007 1e-010 
body $-1 $14 $-1 $15 #
body $-1 $16 $-1 $17 #
body $-1 $18 $-1 $19 #
body $-1 $20 $-1 $21 #
body $-1 $22 $-1 $23 #
body $-1 $24 $-1 $25 #
body $-1 $26 $-1 $27 #
body $-1 $28 $-1 $29 #
body $-1 $30 $-1 $31 #
body $-1 $32 $-1 $33 #
body $-1 $34 $-1 $35 #
body $-1 $36 $-1 $37 #
body $-1 $38 $-1 $39 #
body $-1 $40 $-1 $41 #
lump $-1 $-1 $42 $0 #
transform $-1 1 0 0 0 1 0 0 0 1 50.007629627368999 24.8246438270744 9.1512605747128024 1 rotate no_reflect no_shear #
lump $-1 $-1 $43 $1 #
transform $-1 1 0 0 0 1 0 0 0 1 50.007629627368999 24.8246438270744 9.1512605747128024 1 rotate no_reflect no_shear #
lump $-1 $-1 $44 $2 #
transform $-1 1 0 0 0 1 0 0 0 1 50.007629627368999 24.8246438270744 9.1512605747128024 1 rotate no_reflect no_shear #
lump $-1 $-1 $45 $3 #
transform $-1 1 0 0 0 1 0 0 0 1 50.007629627368999 24.8246438270744 9.1512605747128024 1 rotate no_reflect no_shear #
lump $-1 $-1 $46 $4 #
transform $-1 1 0 0 0 1 0 0 0 1 50.007629627368999 24.8246438270744 9.1512605747128024 1 rotate no_reflect no_shear #
lump $-1 $-1 $47 $5 #
transform $-1 1 0 0 0 1 0 0 0 1 50.007629627368999 24.8246438270744 9.1512605747128024 1 rotate no_reflect no_shear #
lump $-1 $-1 $48 $6 #
transform $-1 1 0 0 0 1 0 0 0 1 50.007629627368999 24.8246438270744 9.1512605747128024 1 rotate no_reflect no_shear #
lump $-1 $-1 $49 $7 #
transform $-1 1 0 0 0 1 0 0 0 1 50.007629627368999 24.8246438270744 9.1512605747128024 1 rotate no_reflect no_shear #
lump $-1 $-1 $50 $8 #
transform $-1 1 0 0 0 1 0 0 0 1 50.007629627368999 24.8246438270744 9.1512605747128024 1 rotate no_reflect no_shear #
lump $-1 $-1 $51 $9 #
transform $-1 1 0 0 0 1 0 0 0 1 50.007629627368999 24.8246438270744 9.1512605747128024 1 rotate no_reflect no_shear #
lump $-1 $-1 $52 $10 #
transform $-1 1 0 0 0 1 0 0 0 1 50.007629627368999 24.8246438270744 9.1512605747128024 1 rotate no_reflect no_shear #
lump $-1 $-1 $53 $11 #
transform $-1 1 0 0 0 1 0 0 0 1 50.007629627368999 24.8246438270744 9.1512605747128024 1 rotate no_reflect no_shear #
lump $-1 $-1 $54 $12 #
transform $-1 1 0 0 0 1 0 0 0 1 50.007629627368999 24.8246438270744 9.1512605747128024 1 rotate no_reflect no_shear #
lump $-1 $-1 $55 $13 #
transform $-1 1 0 0 0 1 0 0 0 1 50.007629627368999 24.8246438270744 9.1512605747128024 1 rotate no_reflect no_shear #
shell $-1 $-1 $-1 $56 $-1 $14 #
shell $-1 $-1 $-1 $57 $-1 $16 #
shell $-1 $-1 $-1 $58 $-1 $18 #
shell $-1 $-1 $-1 $59 $-1 $20 #
shell $-1 $-1 $-1 $60 $-1 $22 #
shell $-1 $-1 $-1 $61 $-1 $24 #
shell $-1 $-1 $-1 $62 $-1 $26 #
shell $-1 $-1 $-1 $63 $-1 $28 #
shell $-1 $-1 $-1 $64 $-1 $30 #
shell $-1 $-1 $-1 $65 $-1 $32 #
shell $-1 $-1 $-1 $66 $-1 $34 #
shell $-1 $-1 $-1 $67 $-1 $36 #
shell $-1 $-1 $-1 $68 $-1 $38 #
shell $-1 $-1 $-1 $69 $-1 $40 #
face $-1 $70 $71 $42 $-1 $72 forward single #
face $-1 $73 $74 $43 $-1 $75 forward single #
face $-1 $76 $77 $44 $-1 $78 reversed single #
face $-1 $79 $80 $45 $-1 $81 forward single #
face $-1 $82 $83 $46 $-1 $84 forward single #
face $-1 $85 $86 $47 $-1 $87 reversed single #
face $-1 $88 $89 $48 $-1 $90 forward single #
face $-1 $91 $92 $49 $-1 $93 forward single #
face $-1 $94 $95 $50 $-1 $96 reversed single #
face $-1 $97 $98 $51 $-1 $99 forward single #
face $-1 $100 $101 $52 $-1 $102 forward single #
face $-1 $103 $104 $53 $-1 $105 reversed single #
face $-1 $106 $107 $54 $-1 $108 forward single #
face $-1 $109 $110 $55 $-1 $111 forward single #
face $-1 $112 $113 $42 $-1 $114 reversed single #
loop $-1 $-1 $115 $56 #
plane-surface $-1 0 0 9.1512605747128024 0 0 1 1 0 0 forward_v I I I I #
face $-1 $116 $117 $43 $-1 $118 reversed single #
loop $-1 $-1 $119 $57 #
plane-surface $-1 -50.007629627368999 0 0 1 0 0 0 0 -1 forward_v I I I I #
face $-1 $120 $121 $44 $-1 $122 reversed single #
loop $-1 $-1 $123 $58 #
plane-surface $-1 -8.1916429759737852 49.18154359835026 112.74977568661579 1 0 0 0 -0.62932039886446345 -0.77714595512881146 forward_v I I I I #
face $-1 $124 $125 $45 $-1 $126 forward single #
loop $-1 $127 $128 $59 #
cone-surface $-1 -4.3285562671023428 20.015417012121688 4.6227598149519 0 -0.62932039886446345 -0.77714595512881146 1.5 0 0 1 I I 0 1 1.5 forward I I I I #
face $-1 $129 $130 $46 $-1 $131 forward single #
loop $-1 $132 $133 $60 #
cone-surface $-1 1.4660737962048245 20.015417012121688 4.6227598149519 0 -0.62932039886446345 -0.77714595512881146 1.5 0 0 1 I I 0 1 1.5 forward I I I I #
face $-1 $134 $135 $47 $-1 $136 reversed single #
loop $-1 $-1 $137 $61 #
plane-surface $-1 -1.4312412354487591 -13.760099248374175 35.02332150563673 0 0.62932039886446345 0.77714595512881146 1 0 0 forward_v I I I I #
face $-1 $138 $139 $48 $-1 $140 forward single #
loop $-1 $141 $142 $62 #
cone-surface $-1 9.1922472139477094 20.015417012121688 4.6227598149519 0 -0.62932039886446345 -0.77714595512881146 1.5 0 0 1 I I 0 1 1.5 forward I I I I #
face $-1 $143 $144 $49 $-1 $145 forward single #
loop $-1 $146 $147 $63 #
cone-surface $-1 14.986877277254877 20.015417012121688 4.6227598149519 0 -0.62932039886446345 -0.77714595512881146 1.5 0 0 1 I I 0 1 1.5 forward I I I I #
face $-1 $148 $149 $50 $-1 $150 reversed single #
loop $-1 $-1 $151 $64 #
plane-surface $-1 5.3291605050762669 -87.766286673798831 81.504466176770393 -1 0 0 0 -0.62932039886446345 0.77714595512881146 forward_v I I I I #
face $-1 $152 $153 $51 $-1 $154 forward single #
loop $-1 $155 $156 $65 #
cone-surface $-1 -4.3285562671023428 -20.015417012121695 4.6227598149518965 0 0.62932039886446345 -0.77714595512881146 1.5 0 0 1 I I 0 1 1.5 forward I I I I #
face $-1 $157 $158 $52 $-1 $159 forward single #
loop $-1 $160 $161 $66 #
cone-surface $-1 1.4660737962048245 -20.015417012121695 4.6227598149518965 0 0.62932039886446345 -0.77714595512881146 1.5 0 0 1 I I 0 1 1.5 forward I I I I #
face $-1 $162 $163 $53 $-1 $164 reversed single #
loop $-1 $-1 $165 $67 #
plane-surface $-1 18.849963986126319 -87.766286673798831 81.504466176770393 -1 0 0 0 -0.62932039886446345 0.77714595512881146 forward_v I I I I #
face $-1 $166 $167 $54 $-1 $168 forward single #
loop $-1 $169 $170 $68 #
cone-surface $-1 9.1922472139477094 -20.015417012121695 4.6227598149518965 0 0.62932039886446345 -0.77714595512881146 1.5 0 0 1 I I 0 1 1.5 forward I I I I #
face $-1 $171 $172 $55 $-1 $173 forward single #
loop $-1 $174 $175 $69 #
cone-surface $-1 14.986877277254877 -20.015417012121695 4.6227598149518965 0 0.62932039886446345 -0.77714595512881146 1.5 0 0 1 I I 0 1 1.5 forward I I I I #
face $-1 $176 $177 $42 $-1 $178 reversed single #
loop $-1 $-1 $179 $70 #
plane-surface $-1 0 0 -9.1512605747128024 0 0 1 1 0 0 forward_v I I I I #
coedge $-1 $180 $181 $182 $183 forward $71 $-1 #
face $-1 $184 $185 $43 $-1 $186 forward single #
loop $-1 $-1 $187 $73 #
plane-surface $-1 0 24.8246438270744 0 0 -1 0 0 0 -1 forward_v I I I I #
coedge $-1 $188 $189 $190 $191 forward $74 $-1 #
face $-1 $192 $193 $44 $-1 $194 reversed single #
loop $-1 $-1 $195 $76 #
plane-surface $-1 -1.4312412354487591 -13.760099248374175 35.02332150563673 0 0.62932039886446345 0.77714595512881146 1 0 0 forward_v I I I I #
coedge $-1 $196 $197 $198 $199 reversed $77 $-1 #
face $-1 $-1 $200 $45 $-1 $201 forward single #
loop $-1 $202 $203 $79 #
cone-surface $-1 -4.3285562671023428 18.051904525540412 2.1980238783051131 0 -0.62932039886446345 -0.77714595512881146 0.75 0 0 1 I I -0.70710678118654757 0.70710678118654757 0.75 forward I I I I #
loop $-1 $-1 $204 $59 #
coedge $-1 $128 $128 $205 $206 reversed $80 $-1 #
face $-1 $-1 $207 $46 $-1 $208 forward single #
loop $-1 $209 $210 $82 #
cone-surface $-1 1.4660737962048245 18.051904525540412 2.1980238783051131 0 -0.62932039886446345 -0.77714595512881146 0.75 0 0 1 I I -0.70710678118654757 0.70710678118654757 0.75 forward I I I I #
loop $-1 $-1 $211 $60 #
coedge $-1 $133 $133 $212 $213 reversed $83 $-1 #
face $-1 $214 $215 $47 $-1 $216 forward single #
loop $-1 $-1 $217 $85 #
plane-surface $-1 18.849963986126319 49.18154359835026 112.74977568661579 -1 0 0 0 0.62932039886446345 0.77714595512881146 forward_v I I I I #
coedge $-1 $218 $219 $220 $221 reversed $86 $-1 #
face $-1 $-1 $222 $48 $-1 $223 forward single #
loop $-1 $224 $225 $88 #
cone-surface $-1 9.1922472139477094 18.051904525540412 2.1980238783051131 0 -0.62932039886446345 -0.77714595512881146 0.75 0 0 1 I I -0.70710678118654757 0.70710678118654757 0.75 forward I I I I #
loop $-1 $-1 $226 $62 #
coedge $-1 $142 $142 $227 $228 reversed $89 $-1 #
face $-1 $-1 $229 $49 $-1 $230 forward single #
loop $-1 $231 $232 $91 #
cone-surface $-1 14.986877277254877 18.051904525540412 2.1980238783051131 0 -0.62932039886446345 -0.77714595512881146 0.75 0 0 1 I I -0.70710678118654757 0.70710678118654757 0.75 forward I I I I #
loop $-1 $-1 $233 $63 #
coedge $-1 $147 $147 $234 $235 reversed $92 $-1 #
face $-1 $236 $237 $50 $-1 $238 reversed single #
loop $-1 $-1 $239 $94 #
plane-surface $-1 -1.4312412354487591 -24.824643827074397 3.7780119957913314 0 -0.62932039886446345 0.77714595512881146 1 0 0 forward_v I I I I #
coedge $-1 $240 $241 $242 $243 reversed $95 $-1 #
face $-1 $-1 $244 $51 $-1 $245 forward single #
loop $-1 $246 $247 $97 #
cone-surface $-1 -4.3285562671023428 -18.051904525540419 2.1980238783051096 0 0.62932039886446345 -0.77714595512881146 0.75 0 0 1 I I -0.70710678118654757 0.70710678118654757 0.75 forward I I I I #
loop $-1 $-1 $248 $65 #
coedge $-1 $156 $156 $249 $250 reversed $98 $-1 #
face $-1 $-1 $251 $52 $-1 $252 forward single #
loop $-1 $253 $254 $100 #
cone-surface $-1 1.4660737962048245 -18.051904525540419 2.1980238783051096 0 0.62932039886446345 -0.77714595512881146 0.75 0 0 1 I I -0.70710678118654757 0.70710678118654757 0.75 forward I I I I #
loop $-1 $-1 $255 $66 #
coedge $-1 $161 $161 $256 $257 reversed $101 $-1 #
face $-1 $258 $259 $53 $-1 $260 reversed single #
loop $-1 $-1 $261 $103 #
plane-surface $-1 -1.4312412354487591 -24.824643827074397 3.7780119957913314 0 -0.62932039886446345 0.77714595512881146 1 0 0 forward_v I I I I #
coedge $-1 $262 $263 $264 $265 reversed $104 $-1 #
face $-1 $-1 $266 $54 $-1 $267 forward single #
loop $-1 $268 $269 $106 #
cone-surface $-1 9.1922472139477094 -18.051904525540419 2.1980238783051096 0 0.62932039886446345 -0.77714595512881146 0.75 0 0 1 I I -0.70710678118654757 0.70710678118654757 0.75 forward I I I I #
loop $-1 $-1 $270 $68 #
coedge $-1 $170 $170 $271 $272 reversed $107 $-1 #
face $-1 $-1 $273 $55 $-1 $274 forward single #
loop $-1 $275 $276 $109 #
cone-surface $-1 14.986877277254877 -18.051904525540419 2.1980238783051096 0 0.62932039886446345 -0.77714595512881146 0.75 0 0 1 I I -0.70710678118654757 0.70710678118654757 0.75 forward I I I I #
loop $-1 $-1 $277 $69 #
coedge $-1 $175 $175 $278 $279 reversed $110 $-1 #
face $-1 $280 $281 $42 $-1 $282 reversed single #
loop $-1 $-1 $283 $112 #
plane-surface $-1 0 -24.8246438270744 0 0 1 0 0 0 1 forward_v I I I I #
coedge $-1 $284 $285 $286 $287 forward $113 $-1 #
coedge $-1 $288 $115 $289 $290 forward $71 $-1 #
coedge $-1 $115 $288 $291 $292 forward $71 $-1 #
coedge $-1 $293 $294 $115 $183 reversed $295 $-1 #
edge $-1 $296 -24.8246438270744 $297 24.8246438270744 $182 $298 forward 7 unknown #
face $-1 $299 $300 $43 $-1 $301 reversed single #
loop $-1 $-1 $190 $116 #
plane-surface $-1 -55.336790132445266 0 0.86790177996924944 0 0 1 1 0 0 forward_v I I I I #
coedge $-1 $302 $303 $189 $304 forward $117 $-1 #
coedge $-1 $305 $119 $306 $307 reversed $74 $-1 #
coedge $-1 $119 $305 $187 $304 reversed $74 $-1 #
coedge $-1 $308 $309 $119 $191 reversed $185 $-1 #
edge $-1 $310 -24.8246438270744 $311 24.8246438270744 $190 $312 forward 7 unknown #
face $-1 $313 $314 $44 $-1 $315 forward single #
loop $-1 $-1 $316 $120 #
plane-surface $-1 5.3291605050762669 49.18154359835026 112.74977568661579 -1 0 0 0 0.62932039886446345 0.77714595512881146 forward_v I I I I #
coedge $-1 $317 $318 $319 $320 reversed $121 $-1 #
coedge $-1 $197 $123 $321 $322 reversed $77 $-1 #
coedge $-1 $123 $196 $317 $323 reversed $77 $-1 #
coedge $-1 $319 $324 $123 $199 forward $314 $-1 #
edge $-1 $325 -0.23387202789927031 $326 6.4015372271403024 $198 $327 forward 7 unknown #
loop $-1 $-1 $205 $124 #
plane-surface $-1 -1.4312412354487591 -13.760099248374175 35.02332150563673 0 0.62932039886446345 0.77714595512881146 1 0 0 forward_v I I I I #
loop $-1 $-1 $328 $79 #
coedge $-1 $203 $203 $204 $329 reversed $125 $-1 #
coedge $-1 $204 $204 $203 $329 forward $127 $-1 #
coedge $-1 $205 $205 $128 $206 forward $200 $-1 #
edge $-1 $330 6.7773122006762327e-016 $330 6.2831853071796013 $205 $331 forward 7 unknown #
loop $-1 $-1 $212 $129 #
plane-surface $-1 -1.4312412354487591 -13.760099248374175 35.02332150563673 0 0.62932039886446345 0.77714595512881146 1 0 0 forward_v I I I I #
loop $-1 $-1 $332 $82 #
coedge $-1 $210 $210 $211 $333 reversed $130 $-1 #
coedge $-1 $211 $211 $210 $333 forward $132 $-1 #
coedge $-1 $212 $212 $133 $213 forward $207 $-1 #
edge $-1 $334 6.7773122006762327e-016 $334 6.2831853071796013 $212 $335 forward 7 unknown #
face $-1 $336 $337 $47 $-1 $338 forward single #
loop $-1 $-1 $339 $134 #
plane-surface $-1 0 0 9.1512605747128024 0 0 1 1 0 0 forward_v I I I I #
coedge $-1 $340 $341 $342 $343 reversed $135 $-1 #
coedge $-1 $344 $137 $345 $346 reversed $86 $-1 #
coedge $-1 $137 $344 $339 $347 reversed $86 $-1 #
coedge $-1 $348 $349 $137 $221 forward $337 $-1 #
edge $-1 $350 -49.649287654148793 $351 -41.111111252085742 $220 $352 forward 7 unknown #
loop $-1 $-1 $227 $138 #
plane-surface $-1 -1.4312412354487591 -13.760099248374175 35.02332150563673 0 0.62932039886446345 0.77714595512881146 1 0 0 forward_v I I I I #
loop $-1 $-1 $353 $88 #
coedge $-1 $225 $225 $226 $354 reversed $139 $-1 #
coedge $-1 $226 $226 $225 $354 forward $141 $-1 #
coedge $-1 $227 $227 $142 $228 forward $222 $-1 #
edge $-1 $355 6.7773122006762327e-016 $355 6.2831853071796013 $227 $356 forward 7 unknown #
loop $-1 $-1 $234 $143 #
plane-surface $-1 -1.4312412354487591 -13.760099248374175 35.02332150563673 0 0.62932039886446345 0.77714595512881146 1 0 0 forward_v I I I I #
loop $-1 $-1 $357 $91 #
coedge $-1 $232 $232 $233 $358 reversed $144 $-1 #
coedge $-1 $233 $233 $232 $358 forward $146 $-1 #
coedge $-1 $234 $234 $147 $235 forward $229 $-1 #
edge $-1 $359 6.7773122006762327e-016 $359 6.2831853071796013 $234 $360 forward 7 unknown #
face $-1 $361 $362 $50 $-1 $363 reversed single #
loop $-1 $-1 $364 $148 #
plane-surface $-1 -8.1916429759737852 -87.766286673798831 81.504466176770393 1 0 0 0 0.62932039886446345 -0.77714595512881146 forward_v I I I I #
coedge $-1 $365 $366 $367 $368 reversed $149 $-1 #
coedge $-1 $241 $151 $369 $370 reversed $95 $-1 #
coedge $-1 $151 $240 $365 $371 reversed $95 $-1 #
coedge $-1 $367 $372 $151 $243 forward $373 $-1 #
edge $-1 $374 19.058499509825015 $375 25.693908764864592 $242 $376 forward 7 unknown #
loop $-1 $-1 $249 $152 #
plane-surface $-1 -1.4312412354487591 -24.824643827074397 3.7780119957913314 0 -0.62932039886446345 0.77714595512881146 1 0 0 forward_v I I I I #
loop $-1 $-1 $377 $97 #
coedge $-1 $247 $247 $248 $378 reversed $153 $-1 #
coedge $-1 $248 $248 $247 $378 forward $155 $-1 #
coedge $-1 $249 $249 $156 $250 forward $244 $-1 #
edge $-1 $379 -6.7773122006762327e-016 $379 6.2831853071795996 $249 $380 forward 7 unknown #
loop $-1 $-1 $256 $157 #
plane-surface $-1 -1.4312412354487591 -24.824643827074397 3.7780119957913314 0 -0.62932039886446345 0.77714595512881146 1 0 0 forward_v I I I I #
loop $-1 $-1 $381 $100 #
coedge $-1 $254 $254 $255 $382 reversed $158 $-1 #
coedge $-1 $255 $255 $254 $382 forward $160 $-1 #
coedge $-1 $256 $256 $161 $257 forward $251 $-1 #
edge $-1 $383 -6.7773122006762327e-016 $383 6.2831853071795996 $256 $384 forward 7 unknown #
face $-1 $385 $386 $53 $-1 $387 forward single #
loop $-1 $-1 $388 $162 #
plane-surface $-1 0 -24.8246438270744 0 0 1 0 0 0 1 forward_v I I I I #
coedge $-1 $389 $390 $391 $392 reversed $163 $-1 #
coedge $-1 $263 $165 $393 $394 reversed $104 $-1 #
coedge $-1 $165 $262 $395 $396 reversed $104 $-1 #
coedge $-1 $397 $388 $165 $265 forward $259 $-1 #
edge $-1 $398 -36.974221092593865 $399 -31.600972513672396 $264 $400 forward 7 unknown #
loop $-1 $-1 $271 $166 #
plane-surface $-1 -1.4312412354487591 -24.824643827074397 3.7780119957913314 0 -0.62932039886446345 0.77714595512881146 1 0 0 forward_v I I I I #
loop $-1 $-1 $401 $106 #
coedge $-1 $269 $269 $270 $402 reversed $167 $-1 #
coedge $-1 $270 $270 $269 $402 forward $169 $-1 #
coedge $-1 $271 $271 $170 $272 forward $266 $-1 #
edge $-1 $403 -6.7773122006762327e-016 $403 6.2831853071795996 $271 $404 forward 7 unknown #
loop $-1 $-1 $278 $171 #
plane-surface $-1 -1.4312412354487591 -24.824643827074397 3.7780119957913314 0 -0.62932039886446345 0.77714595512881146 1 0 0 forward_v I I I I #
loop $-1 $-1 $405 $109 #
coedge $-1 $276 $276 $277 $406 reversed $172 $-1 #
coedge $-1 $277 $277 $276 $406 forward $174 $-1 #
coedge $-1 $278 $278 $175 $279 forward $273 $-1 #
edge $-1 $407 -6.7773122006762327e-016 $407 6.2831853071795996 $278 $408 forward 7 unknown #
face $-1 $409 $410 $42 $-1 $411 reversed single #
loop $-1 $-1 $412 $176 #
plane-surface $-1 -50.007629627368999 0 0 1 0 0 0 0 -1 forward_v I I I I #
coedge $-1 $413 $291 $414 $415 forward $177 $-1 #
coedge $-1 $416 $179 $413 $417 forward $113 $-1 #
coedge $-1 $179 $416 $418 $419 forward $113 $-1 #
coedge $-1 $294 $293 $179 $287 reversed $295 $-1 #
edge $-1 $420 -24.8246438270744 $421 24.8246438270744 $286 $422 forward 7 unknown #
coedge $-1 $181 $180 $423 $424 forward $71 $-1 #
coedge $-1 $425 $426 $180 $290 reversed $410 $-1 #
edge $-1 $297 -50.007629627368999 $427 50.007629627368999 $289 $428 forward 7 unknown #
coedge $-1 $283 $429 $181 $292 reversed $177 $-1 #
edge $-1 $430 -50.007629627368999 $296 50.007629627368999 $291 $431 forward 7 unknown #
coedge $-1 $286 $182 $429 $432 forward $295 $-1 #
coedge $-1 $182 $286 $425 $433 reversed $295 $-1 #
loop $-1 $-1 $293 $409 #
vertex $-1 $183 $434 #
vertex $-1 $183 $435 #
straight-curve $-1 50.007629627368999 0 9.1512605747128024 0 1 0 I I #
face $-1 $436 $437 $43 $-1 $438 reversed single #
loop $-1 $-1 $439 $184 #
plane-surface $-1 -55.336790132445266 0 -2.1320982200307497 0 0 1 1 0 0 forward_v I I I I #
coedge $-1 $440 $187 $441 $442 reversed $117 $-1 #
coedge $-1 $187 $440 $308 $443 reversed $117 $-1 #
edge $-1 $310 -0.86790177996924944 $444 2.1320982200307497 $187 $445 forward 7 unknown #
coedge $-1 $189 $188 $439 $446 forward $74 $-1 #
coedge $-1 $447 $448 $188 $307 forward $449 $-1 #
edge $-1 $450 -2.1320982200307497 $311 0.86790177996924944 $306 $451 forward 7 unknown #
coedge $-1 $452 $190 $303 $443 forward $185 $-1 #
coedge $-1 $190 $452 $447 $453 forward $185 $-1 #
vertex $-1 $304 $454 #
vertex $-1 $453 $455 #
straight-curve $-1 -50.007629627368999 0 0.86790177996924944 0 -1 0 I I #
face $-1 $-1 $456 $44 $-1 $457 reversed single #
loop $-1 $-1 $198 $192 #
plane-surface $-1 0 0 9.1512605747128024 0 0 1 1 0 0 forward_v I I I I #
coedge $-1 $458 $459 $460 $461 reversed $193 $-1 #
coedge $-1 $462 $195 $197 $323 forward $121 $-1 #
coedge $-1 $195 $462 $458 $463 forward $121 $-1 #
coedge $-1 $460 $198 $195 $320 forward $314 $-1 #
edge $-1 $326 -7.4760223582494056 $464 6.0447811228006465 $319 $465 forward 7 unknown #
coedge $-1 $466 $467 $196 $322 forward $456 $-1 #
edge $-1 $468 -52.596875847516564 $325 -47.223627268595095 $321 $469 forward 7 unknown #
edge $-1 $326 41.111111252085742 $468 49.649287654148793 $197 $470 forward 7 unknown #
coedge $-1 $198 $460 $466 $471 forward $314 $-1 #
vertex $-1 $322 $472 #
vertex $-1 $199 $473 #
straight-curve $-1 -8.1916429759737852 24.59077179917513 9.1512605747128006 0 -1 0 I I #
coedge $-1 $328 $328 $-1 $474 reversed $202 $-1 #
edge $-1 $475 0 $475 6.2831853071796004 $203 $476 forward 7 unknown #
vertex $-1 $206 $477 #
ellipse-curve $-1 -4.3285562671023428 21.506939199554608 6.4646362852520669 0 0.62932039886446345 0.77714595512881146 1.5 0 0 1 I I #
coedge $-1 $332 $332 $-1 $478 reversed $209 $-1 #
edge $-1 $479 0 $479 6.2831853071796004 $210 $480 forward 7 unknown #
vertex $-1 $213 $481 #
ellipse-curve $-1 1.4660737962048245 21.506939199554608 6.4646362852520669 0 0.62932039886446345 0.77714595512881146 1.5 0 0 1 I I #
face $-1 $-1 $482 $47 $-1 $483 reversed single #
loop $-1 $-1 $348 $214 #
plane-surface $-1 5.3291605050762669 49.18154359835026 112.74977568661579 -1 0 0 0 0.62932039886446345 0.77714595512881146 forward_v I I I I #
coedge $-1 $342 $484 $219 $347 forward $215 $-1 #
coedge $-1 $341 $217 $344 $485 reversed $135 $-1 #
coedge $-1 $217 $340 $486 $487 reversed $135 $-1 #
coedge $-1 $488 $339 $217 $343 forward $215 $-1 #
edge $-1 $489 -6.4015372271403024 $490 0.23387202789927031 $342 $491 forward 7 unknown #
coedge $-1 $219 $218 $340 $485 forward $86 $-1 #
coedge $-1 $492 $486 $218 $346 forward $482 $-1 #
edge $-1 $493 -19.565584603850699 $350 -6.0447811228006465 $345 $494 forward 7 unknown #
edge $-1 $351 6.0447811228006465 $489 19.565584603850699 $339 $495 forward 7 unknown #
coedge $-1 $349 $220 $484 $496 reversed $337 $-1 #
coedge $-1 $220 $348 $492 $497 reversed $337 $-1 #
vertex $-1 $346 $498 #
vertex $-1 $347 $499 #
straight-curve $-1 5.3291605050762669 -13.760099248374175 35.02332150563673 0 -0.77714595512881146 0.62932039886446345 I I #
coedge $-1 $353 $353 $-1 $500 reversed $224 $-1 #
edge $-1 $501 0 $501 6.2831853071796004 $225 $502 forward 7 unknown #
vertex $-1 $228 $503 #
ellipse-curve $-1 9.1922472139477094 21.506939199554608 6.4646362852520669 0 0.62932039886446345 0.77714595512881146 1.5 0 0 1 I I #
coedge $-1 $357 $357 $-1 $504 reversed $231 $-1 #
edge $-1 $505 0 $505 6.2831853071796004 $232 $506 forward 7 unknown #
vertex $-1 $235 $507 #
ellipse-curve $-1 14.986877277254877 21.506939199554608 6.4646362852520669 0 0.62932039886446345 0.77714595512881146 1.5 0 0 1 I I #
face $-1 $-1 $373 $50 $-1 $508 forward single #
loop $-1 $-1 $509 $236 #
plane-surface $-1 0 -24.8246438270744 0 0 1 0 0 0 1 forward_v I I I I #
coedge $-1 $510 $511 $512 $513 reversed $237 $-1 #
coedge $-1 $514 $239 $241 $371 forward $149 $-1 #
coedge $-1 $239 $514 $510 $515 forward $149 $-1 #
coedge $-1 $512 $242 $239 $368 forward $373 $-1 #
edge $-1 $375 -6.0447811228006465 $516 7.4760223582494056 $367 $517 forward 7 unknown #
coedge $-1 $518 $519 $240 $370 forward $362 $-1 #
edge $-1 $520 -36.974221092593865 $374 -31.600972513672396 $369 $521 forward 7 unknown #
edge $-1 $375 -8.5381764020630548 $520 4.4378234572560832e-015 $241 $522 forward 7 unknown #
coedge $-1 $242 $512 $518 $523 forward $373 $-1 #
loop $-1 $-1 $512 $361 #
vertex $-1 $370 $524 #
vertex $-1 $243 $525 #
straight-curve $-1 5.3291605050762669 -43.883143336899415 9.1512605747128006 0 1 0 I I #
coedge $-1 $377 $377 $-1 $526 reversed $246 $-1 #
edge $-1 $527 0 $527 6.2831853071796004 $247 $528 forward 7 unknown #
vertex $-1 $250 $529 #
ellipse-curve $-1 -4.3285562671023428 -21.506939199554616 6.4646362852520634 0 -0.62932039886446345 0.77714595512881146 1.5 0 0 1 I I #
coedge $-1 $381 $381 $-1 $530 reversed $253 $-1 #
edge $-1 $531 0 $531 6.2831853071796004 $254 $532 forward 7 unknown #
vertex $-1 $257 $533 #
ellipse-curve $-1 1.4660737962048245 -21.506939199554616 6.4646362852520634 0 -0.62932039886446345 0.77714595512881146 1.5 0 0 1 I I #
face $-1 $-1 $534 $53 $-1 $535 forward single #
loop $-1 $-1 $536 $258 #
plane-surface $-1 5.3291605050762669 -87.766286673798831 81.504466176770393 -1 0 0 0 -0.62932039886446345 0.77714595512881146 forward_v I I I I #
coedge $-1 $264 $537 $390 $538 forward $259 $-1 #
coedge $-1 $393 $261 $539 $540 reversed $163 $-1 #
coedge $-1 $261 $393 $388 $538 reversed $163 $-1 #
coedge $-1 $541 $536 $261 $392 forward $386 $-1 #
edge $-1 $542 -8.5381764020630548 $543 4.4378234572560832e-015 $391 $544 forward 7 unknown #
coedge $-1 $390 $389 $262 $394 forward $163 $-1 #
edge $-1 $545 -8.5381764020630548 $398 4.4378234572560832e-015 $262 $546 forward 7 unknown #
coedge $-1 $539 $547 $263 $396 forward $534 $-1 #
edge $-1 $399 19.058499509825015 $545 25.693908764864592 $395 $548 forward 7 unknown #
coedge $-1 $537 $264 $547 $549 reversed $259 $-1 #
vertex $-1 $265 $550 #
vertex $-1 $265 $551 #
straight-curve $-1 18.849963986126319 -24.8246438270744 40.752233088385196 0 0 1 I I #
coedge $-1 $401 $401 $-1 $552 reversed $268 $-1 #
edge $-1 $553 0 $553 6.2831853071796004 $269 $554 forward 7 unknown #
vertex $-1 $272 $555 #
ellipse-curve $-1 9.1922472139477094 -21.506939199554616 6.4646362852520634 0 -0.62932039886446345 0.77714595512881146 1.5 0 0 1 I I #
coedge $-1 $405 $405 $-1 $556 reversed $275 $-1 #
edge $-1 $557 0 $557 6.2831853071796004 $276 $558 forward 7 unknown #
vertex $-1 $279 $559 #
ellipse-curve $-1 14.986877277254877 -21.506939199554616 6.4646362852520634 0 -0.62932039886446345 0.77714595512881146 1.5 0 0 1 I I #
face $-1 $-1 $295 $42 $-1 $560 reversed single #
loop $-1 $-1 $425 $280 #
plane-surface $-1 0 24.8246438270744 0 0 -1 0 0 0 -1 forward_v I I I I #
coedge $-1 $561 $423 $426 $562 forward $281 $-1 #
coedge $-1 $429 $283 $284 $417 reversed $177 $-1 #
coedge $-1 $423 $561 $283 $415 reversed $281 $-1 #
edge $-1 $430 -9.1512605747128024 $563 9.1512605747128024 $414 $564 forward 7 unknown #
coedge $-1 $285 $284 $561 $565 forward $113 $-1 #
edge $-1 $421 -50.007629627368999 $563 50.007629627368999 $413 $566 forward 7 unknown #
coedge $-1 $426 $425 $285 $419 reversed $410 $-1 #
edge $-1 $567 -50.007629627368999 $420 50.007629627368999 $418 $568 forward 7 unknown #
vertex $-1 $287 $569 #
vertex $-1 $432 $570 #
straight-curve $-1 50.007629627368999 0 -9.1512605747128024 0 -1 0 I I #
coedge $-1 $412 $414 $288 $424 reversed $281 $-1 #
edge $-1 $427 -24.8246438270744 $430 24.8246438270744 $423 $571 forward 7 unknown #
coedge $-1 $418 $289 $294 $433 forward $410 $-1 #
coedge $-1 $289 $418 $412 $562 reversed $410 $-1 #
vertex $-1 $290 $572 #
straight-curve $-1 0 24.8246438270744 9.1512605747128024 -1 0 0 I I #
coedge $-1 $291 $413 $293 $432 reversed $177 $-1 #
vertex $-1 $424 $573 #
straight-curve $-1 0 -24.8246438270744 9.1512605747128024 1 0 0 I I #
edge $-1 $296 -9.1512605747128024 $421 9.1512605747128024 $293 $574 forward 7 unknown #
edge $-1 $297 -9.1512605747128024 $420 9.1512605747128024 $294 $575 forward 7 unknown #
point $-1 50.007629627368999 -24.8246438270744 9.1512605747128024 #
point $-1 50.007629627368999 24.8246438270744 9.1512605747128024 #
face $-1 $-1 $449 $43 $-1 $576 reversed single #
loop $-1 $-1 $577 $299 #
plane-surface $-1 -60.665950637521533 0 -0.63209822003075011 1 0 0 0 0 -1 forward_v I I I I #
coedge $-1 $578 $441 $305 $446 reversed $300 $-1 #
coedge $-1 $303 $302 $577 $579 reversed $117 $-1 #
coedge $-1 $439 $580 $302 $442 forward $300 $-1 #
edge $-1 $581 -5.3291605050762669 $444 5.3291605050762669 $302 $582 forward 7 unknown #
edge $-1 $310 -5.3291605050762669 $583 5.3291605050762669 $303 $584 forward 7 unknown #
vertex $-1 $304 $585 #
straight-curve $-1 -50.007629627368999 24.8246438270744 0 0 0 -1 I I #
edge $-1 $450 -24.8246438270744 $444 24.8246438270744 $439 $586 forward 7 unknown #
coedge $-1 $587 $306 $309 $453 reversed $449 $-1 #
coedge $-1 $306 $587 $578 $588 reversed $449 $-1 #
loop $-1 $-1 $306 $436 #
vertex $-1 $307 $589 #
straight-curve $-1 -50.007629627368999 -24.8246438270744 0 0 0 1 I I #
coedge $-1 $309 $308 $590 $591 forward $185 $-1 #
edge $-1 $592 -5.3291605050762669 $311 5.3291605050762669 $447 $593 forward 7 unknown #
point $-1 -50.007629627368999 24.8246438270744 0.86790177996924944 #
point $-1 -50.007629627368999 -24.8246438270744 0.86790177996924944 #
loop $-1 $-1 $321 $313 #
plane-surface $-1 0 24.8246438270744 0 0 -1 0 0 0 -1 forward_v I I I I #
coedge $-1 $459 $316 $318 $463 reversed $193 $-1 #
coedge $-1 $316 $458 $594 $595 reversed $193 $-1 #
coedge $-1 $324 $319 $316 $461 forward $314 $-1 #
edge $-1 $464 -6.4015372271403024 $596 0.23387202789927031 $460 $597 forward 7 unknown #
coedge $-1 $318 $317 $467 $598 reversed $121 $-1 #
edge $-1 $599 -49.649287654148793 $464 -41.111111252085742 $458 $600 forward 7 unknown #
vertex $-1 $320 $601 #
straight-curve $-1 -0.71562061772437957 18.189234572034827 9.1512605747128006 1 0 0 I I #
coedge $-1 $594 $321 $324 $471 reversed $456 $-1 #
coedge $-1 $321 $594 $462 $598 forward $456 $-1 #
vertex $-1 $322 $602 #
straight-curve $-1 -8.1916429759737852 24.8246438270744 56.374887843307896 0 0 1 I I #
straight-curve $-1 -8.1916429759737852 -13.760099248374175 35.02332150563673 0 0.77714595512881146 -0.62932039886446345 I I #
edge $-1 $596 -5.3291605050762669 $325 8.1916429759737852 $466 $603 forward 7 unknown #
point $-1 -8.1916429759737852 24.8246438270744 9.1512605747128024 #
point $-1 -8.1916429759737852 18.189234572034827 9.1512605747128006 #
edge $-1 $604 1 $604 0 $328 $-1 forward 7 unknown #
vertex $-1 $329 $605 #
ellipse-curve $-1 -4.3285562671023428 18.52389482468876 2.7808833446517216 0 0.62932039886446345 0.77714595512881146 1.5 0 0 1 I I #
point $-1 -2.8285562671023428 21.506939199554619 6.4646362852520785 #
edge $-1 $606 1 $606 0 $332 $-1 forward 7 unknown #
vertex $-1 $333 $607 #
ellipse-curve $-1 1.4660737962048245 18.52389482468876 2.7808833446517216 0 0.62932039886446345 0.77714595512881146 1.5 0 0 1 I I #
point $-1 2.9660737962048245 21.506939199554619 6.4646362852520785 #
loop $-1 $-1 $345 $336 #
plane-surface $-1 0 24.8246438270744 0 0 -1 0 0 0 -1 forward_v I I I I #
coedge $-1 $339 $488 $348 $496 forward $215 $-1 #
edge $-1 $493 -49.649287654148793 $489 -41.111111252085742 $340 $608 forward 7 unknown #
coedge $-1 $345 $609 $341 $487 forward $482 $-1 #
edge $-1 $490 47.223627268595095 $493 52.596875847516564 $486 $610 forward 7 unknown #
coedge $-1 $484 $342 $609 $611 forward $215 $-1 #
vertex $-1 $343 $612 #
vertex $-1 $611 $613 #
straight-curve $-1 18.849963986126319 24.59077179917513 9.1512605747128006 0 1 0 I I #
coedge $-1 $609 $345 $349 $497 forward $482 $-1 #
vertex $-1 $487 $614 #
straight-curve $-1 -0.71562061772437957 24.8246438270744 3.7780119957913296 -1 0 0 I I #
straight-curve $-1 -0.71562061772437957 18.189234572034827 9.1512605747128006 1 0 0 I I #
edge $-1 $615 -0.23387202789927031 $351 6.4015372271403024 $484 $616 forward 7 unknown #
edge $-1 $350 -52.596875847516564 $615 -47.223627268595095 $492 $617 forward 7 unknown #
point $-1 5.3291605050762669 24.824643827074397 3.7780119957913314 #
point $-1 5.3291605050762669 18.189234572034827 9.1512605747128006 #
edge $-1 $618 1 $618 0 $353 $-1 forward 7 unknown #
vertex $-1 $354 $619 #
ellipse-curve $-1 9.1922472139477094 18.52389482468876 2.7808833446517216 0 0.62932039886446345 0.77714595512881146 1.5 0 0 1 I I #
point $-1 10.692247213947709 21.506939199554619 6.4646362852520785 #
edge $-1 $620 1 $620 0 $357 $-1 forward 7 unknown #
vertex $-1 $358 $621 #
ellipse-curve $-1 14.986877277254877 18.52389482468876 2.7808833446517216 0 0.62932039886446345 0.77714595512881146 1.5 0 0 1 I I #
point $-1 16.486877277254877 21.506939199554619 6.4646362852520785 #
plane-surface $-1 0 0 9.1512605747128024 0 0 1 1 0 0 forward_v I I I I #
coedge $-1 $519 $518 $511 $622 forward $362 $-1 #
coedge $-1 $511 $364 $366 $515 reversed $237 $-1 #
coedge $-1 $364 $510 $509 $622 reversed $237 $-1 #
coedge $-1 $372 $367 $364 $513 forward $373 $-1 #
edge $-1 $516 -25.693908764864592 $623 -19.058499509825015 $512 $624 forward 7 unknown #
coedge $-1 $366 $365 $519 $625 reversed $149 $-1 #
edge $-1 $626 -4.4378234572560832e-015 $516 8.5381764020630548 $510 $627 forward 7 unknown #
vertex $-1 $368 $628 #
straight-curve $-1 -0.71562061772437957 -18.189234572034824 9.1512605747128024 -1 0 0 I I #
coedge $-1 $509 $369 $372 $523 reversed $362 $-1 #
coedge $-1 $369 $509 $514 $625 forward $362 $-1 #
vertex $-1 $370 $629 #
straight-curve $-1 5.3291605050762669 -24.8246438270744 40.752233088385196 0 0 1 I I #
straight-curve $-1 5.3291605050762669 -24.824643827074397 3.7780119957913314 0 -0.77714595512881146 -0.62932039886446345 I I #
edge $-1 $623 -8.1916429759737852 $374 5.3291605050762669 $518 $630 forward 7 unknown #
point $-1 5.3291605050762669 -24.8246438270744 9.1512605747128024 #
point $-1 5.3291605050762669 -18.189234572034824 9.1512605747128024 #
edge $-1 $631 1 $631 0 $377 $-1 forward 7 unknown #
vertex $-1 $378 $632 #
ellipse-curve $-1 -4.3285562671023428 -18.523894824688767 2.780883344651718 0 -0.62932039886446345 0.77714595512881146 1.5 0 0 1 I I #
point $-1 -2.8285562671023428 -21.506939199554626 6.4646362852520749 #
edge $-1 $633 1 $633 0 $381 $-1 forward 7 unknown #
vertex $-1 $382 $634 #
ellipse-curve $-1 1.4660737962048245 -18.523894824688767 2.780883344651718 0 -0.62932039886446345 0.77714595512881146 1.5 0 0 1 I I #
point $-1 2.9660737962048245 -21.506939199554626 6.4646362852520749 #
loop $-1 $-1 $539 $385 #
plane-surface $-1 0 0 9.1512605747128024 0 0 1 1 0 0 forward_v I I I I #
coedge $-1 $391 $541 $635 $636 reversed $386 $-1 #
coedge $-1 $388 $397 $541 $637 forward $259 $-1 #
edge $-1 $543 6.0447811228006465 $398 19.565584603850699 $388 $638 forward 7 unknown #
coedge $-1 $635 $395 $389 $540 forward $534 $-1 #
edge $-1 $545 -19.565584603850699 $542 -6.0447811228006465 $539 $639 forward 7 unknown #
coedge $-1 $536 $391 $537 $637 reversed $386 $-1 #
vertex $-1 $540 $640 #
vertex $-1 $538 $641 #
straight-curve $-1 5.3291605050762669 -24.824643827074397 3.7780119957913314 0 -0.77714595512881146 -0.62932039886446345 I I #
vertex $-1 $396 $642 #
straight-curve $-1 18.849963986126319 -24.824643827074397 3.7780119957913314 0 -0.77714595512881146 -0.62932039886446345 I I #
coedge $-1 $395 $635 $397 $549 forward $534 $-1 #
straight-curve $-1 18.849963986126319 -43.883143336899415 9.1512605747128006 0 1 0 I I #
edge $-1 $643 5.3291605050762669 $399 18.849963986126319 $397 $644 forward 7 unknown #
point $-1 18.849963986126319 -24.8246438270744 3.7780119957913287 #
point $-1 18.849963986126319 -24.8246438270744 9.1512605747128024 #
edge $-1 $645 1 $645 0 $401 $-1 forward 7 unknown #
vertex $-1 $402 $646 #
ellipse-curve $-1 9.1922472139477094 -18.523894824688767 2.780883344651718 0 -0.62932039886446345 0.77714595512881146 1.5 0 0 1 I I #
point $-1 10.692247213947709 -21.506939199554626 6.4646362852520749 #
edge $-1 $647 1 $647 0 $405 $-1 forward 7 unknown #
vertex $-1 $406 $648 #
ellipse-curve $-1 14.986877277254877 -18.523894824688767 2.780883344651718 0 -0.62932039886446345 0.77714595512881146 1.5 0 0 1 I I #
point $-1 16.486877277254877 -21.506939199554626 6.4646362852520749 #
plane-surface $-1 50.007629627368999 0 0 -1 0 0 0 0 1 forward_v I I I I #
coedge $-1 $414 $412 $416 $565 reversed $281 $-1 #
edge $-1 $427 -9.1512605747128024 $567 9.1512605747128024 $426 $649 forward 7 unknown #
vertex $-1 $565 $650 #
straight-curve $-1 -50.007629627368999 -24.8246438270744 0 0 0 -1 I I #
edge $-1 $563 -24.8246438270744 $567 24.8246438270744 $561 $651 forward 7 unknown #
straight-curve $-1 0 -24.8246438270744 -9.1512605747128024 -1 0 0 I I #
vertex $-1 $419 $652 #
straight-curve $-1 0 24.8246438270744 -9.1512605747128024 1 0 0 I I #
point $-1 50.007629627368999 24.8246438270744 -9.1512605747128024 #
point $-1 50.007629627368999 -24.8246438270744 -9.1512605747128024 #
straight-curve $-1 -50.007629627368999 0 9.1512605747128024 0 -1 0 I I #
point $-1 -50.007629627368999 24.8246438270744 9.1512605747128024 #
point $-1 -50.007629627368999 -24.8246438270744 9.1512605747128024 #
straight-curve $-1 50.007629627368999 -24.8246438270744 0 0 0 -1 I I #
straight-curve $-1 50.007629627368999 24.8246438270744 0 0 0 -1 I I #
plane-surface $-1 0 -24.8246438270744 0 0 1 0 0 0 1 forward_v I I I I #
coedge $-1 $653 $590 $440 $579 forward $437 $-1 #
coedge $-1 $580 $439 $448 $588 forward $300 $-1 #
edge $-1 $583 -1.4999999999999996 $581 1.4999999999999996 $440 $654 forward 7 unknown #
coedge $-1 $441 $578 $653 $655 forward $300 $-1 #
vertex $-1 $442 $656 #
straight-curve $-1 -55.336790132445266 24.8246438270744 -2.1320982200307497 1 0 0 I I #
vertex $-1 $443 $657 #
straight-curve $-1 -55.336790132445266 24.8246438270744 0.86790177996924944 -1 0 0 I I #
point $-1 -50.007629627368999 24.8246438270744 -2.1320982200307497 #
straight-curve $-1 -50.007629627368999 0 -2.1320982200307497 0 1 0 I I #
coedge $-1 $448 $447 $658 $659 forward $449 $-1 #
edge $-1 $450 -5.3291605050762669 $660 5.3291605050762669 $448 $661 forward 7 unknown #
point $-1 -50.007629627368999 -24.8246438270744 -2.1320982200307497 #
coedge $-1 $577 $658 $452 $591 reversed $437 $-1 #
edge $-1 $583 -24.8246438270744 $592 24.8246438270744 $590 $662 forward 7 unknown #
vertex $-1 $591 $663 #
straight-curve $-1 -55.336790132445266 -24.8246438270744 0.86790177996924944 1 0 0 I I #
coedge $-1 $467 $466 $459 $595 forward $456 $-1 #
edge $-1 $596 47.223627268595095 $599 52.596875847516564 $594 $664 forward 7 unknown #
vertex $-1 $471 $665 #
straight-curve $-1 5.3291605050762669 24.59077179917513 9.1512605747128006 0 1 0 I I #
edge $-1 $599 -6.0447811228006465 $468 7.4760223582494056 $467 $666 forward 7 unknown #
vertex $-1 $598 $667 #
straight-curve $-1 5.3291605050762669 -13.760099248374175 35.02332150563673 0 -0.77714595512881146 0.62932039886446345 I I #
point $-1 5.3291605050762669 18.189234572034827 9.1512605747128006 #
point $-1 -8.1916429759737852 24.824643827074397 3.7780119957913314 #
straight-curve $-1 0 24.8246438270744 9.1512605747128024 -1 0 0 I I #
vertex $-1 $474 $668 #
point $-1 -2.8285562671023428 18.52389482468876 2.7808833446517216 #
vertex $-1 $478 $669 #
point $-1 2.9660737962048245 18.52389482468876 2.7808833446517216 #
straight-curve $-1 18.849963986126319 -13.760099248374175 35.02332150563673 0 -0.77714595512881146 0.62932039886446345 I I #
coedge $-1 $486 $492 $488 $611 reversed $482 $-1 #
straight-curve $-1 18.849963986126319 24.8246438270744 56.374887843307896 0 0 -1 I I #
edge $-1 $490 -18.849963986126319 $615 -5.3291605050762669 $609 $670 forward 7 unknown #
point $-1 18.849963986126319 18.189234572034827 9.1512605747128006 #
point $-1 18.849963986126319 24.8246438270744 9.1512605747128024 #
point $-1 18.849963986126319 24.824643827074397 3.7780119957913314 #
vertex $-1 $497 $671 #
straight-curve $-1 5.3291605050762669 24.59077179917513 9.1512605747128006 0 -1 0 I I #
straight-curve $-1 5.3291605050762669 24.8246438270744 56.374887843307896 0 0 1 I I #
vertex $-1 $500 $672 #
point $-1 10.692247213947709 18.52389482468876 2.7808833446517216 #
vertex $-1 $504 $673 #
point $-1 16.486877277254877 18.52389482468876 2.7808833446517216 #
edge $-1 $623 31.600972513672396 $626 36.974221092593865 $509 $674 forward 7 unknown #
vertex $-1 $523 $675 #
straight-curve $-1 -8.1916429759737852 -43.883143336899415 9.1512605747128006 0 -1 0 I I #
edge $-1 $626 -7.4760223582494056 $520 6.0447811228006465 $519 $676 forward 7 unknown #
vertex $-1 $625 $677 #
straight-curve $-1 -8.1916429759737852 -24.824643827074397 3.7780119957913314 0 0.77714595512881146 0.62932039886446345 I I #
point $-1 -8.1916429759737852 -18.189234572034824 9.1512605747128024 #
point $-1 5.3291605050762669 -24.8246438270744 3.7780119957913287 #
straight-curve $-1 0 -24.8246438270744 9.1512605747128024 1 0 0 I I #
vertex $-1 $526 $678 #
point $-1 -2.8285562671023428 -18.523894824688767 2.780883344651718 #
vertex $-1 $530 $679 #
point $-1 2.9660737962048245 -18.523894824688767 2.780883344651718 #
coedge $-1 $547 $539 $536 $636 forward $534 $-1 #
edge $-1 $542 -25.693908764864592 $643 -19.058499509825015 $635 $680 forward 7 unknown #
edge $-1 $643 31.600972513672396 $543 36.974221092593865 $537 $681 forward 7 unknown #
straight-curve $-1 -0.71562061772437957 -24.8246438270744 3.7780119957913261 1 0 0 I I #
straight-curve $-1 -0.71562061772437957 -18.189234572034824 9.1512605747128024 -1 0 0 I I #
point $-1 5.3291605050762669 -18.189234572034824 9.1512605747128024 #
point $-1 5.3291605050762669 -24.8246438270744 3.7780119957913287 #
point $-1 18.849963986126319 -18.189234572034824 9.1512605747128024 #
vertex $-1 $549 $682 #
straight-curve $-1 0 -24.8246438270744 9.1512605747128024 1 0 0 I I #
vertex $-1 $552 $683 #
point $-1 10.692247213947709 -18.523894824688767 2.780883344651718 #
vertex $-1 $556 $684 #
point $-1 16.486877277254877 -18.523894824688767 2.780883344651718 #
straight-curve $-1 -50.007629627368999 24.8246438270744 0 0 0 -1 I I #
point $-1 -50.007629627368999 -24.8246438270744 -9.1512605747128024 #
straight-curve $-1 -50.007629627368999 0 -9.1512605747128024 0 1 0 I I #
point $-1 -50.007629627368999 24.8246438270744 -9.1512605747128024 #
coedge $-1 $658 $577 $580 $655 reversed $437 $-1 #
straight-curve $-1 -60.665950637521533 24.8246438270744 -0.63209822003075011 0 0 -1 I I #
edge $-1 $660 -24.8246438270744 $581 24.8246438270744 $653 $685 forward 7 unknown #
point $-1 -60.665950637521533 24.8246438270744 -2.1320982200307497 #
point $-1 -60.665950637521533 24.8246438270744 0.86790177996924944 #
coedge $-1 $590 $653 $587 $659 reversed $437 $-1 #
edge $-1 $592 -1.4999999999999996 $660 1.4999999999999996 $658 $686 forward 7 unknown #
vertex $-1 $655 $687 #
straight-curve $-1 -55.336790132445266 -24.8246438270744 -2.1320982200307497 -1 0 0 I I #
straight-curve $-1 -60.665950637521533 0 0.86790177996924944 0 -1 0 I I #
point $-1 -60.665950637521533 -24.8246438270744 0.86790177996924944 #
straight-curve $-1 5.3291605050762669 24.8246438270744 56.374887843307896 0 0 -1 I I #
point $-1 5.3291605050762669 24.8246438270744 9.1512605747128024 #
straight-curve $-1 -0.71562061772437957 24.8246438270744 3.7780119957913296 -1 0 0 I I #
point $-1 5.3291605050762669 24.824643827074397 3.7780119957913314 #
point $-1 -4.3285562671023428 17.579914226392063 1.6151644119585047 #
point $-1 1.4660737962048245 17.579914226392063 1.6151644119585047 #
straight-curve $-1 0 24.8246438270744 9.1512605747128024 -1 0 0 I I #
point $-1 5.3291605050762669 24.8246438270744 9.1512605747128024 #
point $-1 9.1922472139477094 17.579914226392063 1.6151644119585047 #
point $-1 14.986877277254877 17.579914226392063 1.6151644119585047 #
straight-curve $-1 -8.1916429759737852 -24.8246438270744 40.752233088385196 0 0 -1 I I #
point $-1 -8.1916429759737852 -24.8246438270744 9.1512605747128024 #
straight-curve $-1 -0.71562061772437957 -24.8246438270744 3.7780119957913261 1 0 0 I I #
point $-1 -8.1916429759737852 -24.8246438270744 3.7780119957913287 #
point $-1 -4.3285562671023428 -17.57991422639207 1.6151644119585011 #
point $-1 1.4660737962048245 -17.57991422639207 1.6151644119585011 #
straight-curve $-1 5.3291605050762669 -43.883143336899415 9.1512605747128006 0 -1 0 I I #
straight-curve $-1 5.3291605050762669 -24.8246438270744 40.752233088385196 0 0 -1 I I #
point $-1 5.3291605050762669 -24.8246438270744 9.1512605747128024 #
point $-1 9.1922472139477094 -17.57991422639207 1.6151644119585011 #
point $-1 14.986877277254877 -17.57991422639207 1.6151644119585011 #
straight-curve $-1 -60.665950637521533 0 -2.1320982200307497 0 1 0 I I #
straight-curve $-1 -60.665950637521533 -24.8246438270744 -0.63209822003075011 0 0 -1 I I #
point $-1 -60.665950637521533 -24.8246438270744 -2.1320982200307497 #
End-of-ACIS-data 