500 0 5 0           
7 Unknown 11 ACIS 5.0 NT 24 Thu Mar 25 21:11:20 1999 
-1 9.9999999999999995e-007 1e-010 
body $-1 $5 $-1 $6 #
body $-1 $7 $-1 $8 #
body $-1 $9 $-1 $10 #
body $-1 $11 $-1 $12 #
body $-1 $13 $-1 $14 #
lump $-1 $-1 $15 $0 #
transform $-1 1 0 0 0 1 0 0 0 1 71.579332865382852 33.197545201633858 8.6747038644193672 1 rotate no_reflect no_shear #
lump $-1 $-1 $16 $1 #
transform $-1 1 0 0 0 1 0 0 0 1 71.579332865382852 33.197545201633858 8.6747038644193672 1 rotate no_reflect no_shear #
lump $-1 $-1 $17 $2 #
transform $-1 1 0 0 0 1 0 0 0 1 71.579332865382852 33.197545201633858 8.6747038644193672 1 rotate no_reflect no_shear #
lump $-1 $-1 $18 $3 #
transform $-1 1 0 0 0 1 0 0 0 1 71.579332865382852 33.197545201633858 8.6747038644193672 1 rotate no_reflect no_shear #
lump $-1 $-1 $19 $4 #
transform $-1 1 0 0 0 1 0 0 0 1 71.579332865382852 33.197545201633858 8.6747038644193672 1 rotate no_reflect no_shear #
shell $-1 $-1 $-1 $20 $-1 $5 #
shell $-1 $-1 $-1 $21 $-1 $7 #
shell $-1 $-1 $-1 $22 $-1 $9 #
shell $-1 $-1 $-1 $23 $-1 $11 #
shell $-1 $-1 $-1 $24 $-1 $13 #
face $-1 $25 $26 $15 $-1 $27 forward single #
face $-1 $28 $29 $16 $-1 $30 forward single #
face $-1 $31 $32 $17 $-1 $33 reversed single #
face $-1 $34 $35 $18 $-1 $36 forward single #
face $-1 $37 $38 $19 $-1 $39 reversed single #
face $-1 $40 $41 $15 $-1 $42 reversed single #
loop $-1 $-1 $43 $20 #
plane-surface $-1 0 0 8.6747038644193672 0 0 1 1 0 0 forward_v I I I I #
face $-1 $44 $45 $16 $-1 $46 forward single #
loop $-1 $-1 $47 $21 #
plane-surface $-1 -191.64229350600147 -24.785143179089026 83.187987941902151 0 -1 0 0.83867057594974714 0 -0.54463902268945019 forward_v I I I I #
face $-1 $48 $49 $17 $-1 $50 reversed single #
loop $-1 $51 $52 $22 #
cone-surface $-1 -69.725063695557239 -28.991344190361442 6.4711292464914623 0.83867057594974714 0 -0.54463902268945019 0.54463902268945019 0 0.83867057594974714 1 I I 0 1 1 forward I I I I #
face $-1 $53 $54 $18 $-1 $55 forward single #
loop $-1 $-1 $56 $23 #
plane-surface $-1 -191.64229350600147 8.4124020225448284 83.187987941902151 0 -1 0 0.83867057594974714 0 -0.54463902268945019 forward_v I I I I #
face $-1 $57 $58 $19 $-1 $59 reversed single #
loop $-1 $60 $61 $24 #
cone-surface $-1 -69.725063695557239 4.2062010112724124 6.4711292464914623 0.83867057594974714 0 -0.54463902268945019 0.54463902268945019 0 0.83867057594974714 1 I I 0 1 1 forward I I I I #
face $-1 $62 $63 $15 $-1 $64 reversed single #
loop $-1 $-1 $65 $25 #
plane-surface $-1 0 0 -8.6747038644193672 0 0 1 1 0 0 forward_v I I I I #
coedge $-1 $66 $67 $68 $69 forward $26 $-1 #
face $-1 $70 $71 $16 $-1 $72 reversed single #
loop $-1 $-1 $73 $28 #
plane-surface $-1 -71.579332865382867 -28.991344190361442 5.218192148772232 -0.83867057594974714 0 0.54463902268945019 0.54463902268945019 0 0.83867057594974714 forward_v I I I I #
coedge $-1 $74 $75 $76 $77 reversed $29 $-1 #
face $-1 $78 $79 $17 $-1 $80 forward single #
loop $-1 $81 $82 $31 #
cone-surface $-1 -68.573801678704314 -28.991344190361442 5.7234909750423988 0.83867057594974714 0 -0.54463902268945019 0.2723195113447251 0 0.41933528797487357 1 I I -0.70710678118654746 0.70710678118654746 0.5 forward I I I I #
loop $-1 $-1 $83 $22 #
coedge $-1 $52 $52 $84 $85 reversed $32 $-1 #
face $-1 $86 $87 $18 $-1 $88 forward single #
loop $-1 $-1 $89 $34 #
plane-surface $-1 -71.579332865382867 4.2062010112724124 5.218192148772232 -0.83867057594974714 0 0.54463902268945019 0.54463902268945019 0 0.83867057594974714 forward_v I I I I #
coedge $-1 $90 $91 $92 $93 reversed $35 $-1 #
face $-1 $94 $95 $19 $-1 $96 forward single #
loop $-1 $97 $98 $37 #
cone-surface $-1 -68.573801678704314 4.2062010112724124 5.7234909750423988 0.83867057594974714 0 -0.54463902268945019 0.2723195113447251 0 0.41933528797487357 1 I I -0.70710678118654746 0.70710678118654746 0.5 forward I I I I #
loop $-1 $-1 $99 $24 #
coedge $-1 $61 $61 $100 $101 reversed $38 $-1 #
face $-1 $102 $103 $15 $-1 $104 reversed single #
loop $-1 $-1 $105 $40 #
plane-surface $-1 0 -33.197545201633858 0 0 1 0 0 0 1 forward_v I I I I #
coedge $-1 $106 $107 $108 $109 forward $41 $-1 #
coedge $-1 $110 $43 $111 $112 forward $26 $-1 #
coedge $-1 $43 $110 $113 $114 forward $26 $-1 #
coedge $-1 $115 $116 $43 $69 reversed $117 $-1 #
edge $-1 $118 -33.197545201633858 $119 33.197545201633858 $68 $120 forward 7 unknown #
face $-1 $121 $122 $16 $-1 $123 forward single #
loop $-1 $-1 $124 $44 #
plane-surface $-1 -71.579332865382852 0 0 1 0 0 0 0 -1 forward_v I I I I #
coedge $-1 $125 $126 $124 $127 reversed $45 $-1 #
coedge $-1 $75 $47 $126 $128 forward $29 $-1 #
coedge $-1 $47 $74 $129 $130 reversed $29 $-1 #
coedge $-1 $131 $124 $47 $77 forward $71 $-1 #
edge $-1 $132 -36.375801822178822 $133 -32.919290106531705 $76 $134 forward 7 unknown #
face $-1 $135 $136 $17 $-1 $137 forward single #
loop $-1 $-1 $138 $48 #
plane-surface $-1 -191.64229350600147 -24.785143179089026 83.187987941902151 0 -1 0 0.83867057594974714 0 -0.54463902268945019 forward_v I I I I #
loop $-1 $-1 $139 $31 #
coedge $-1 $82 $82 $83 $140 forward $49 $-1 #
coedge $-1 $83 $83 $82 $140 reversed $51 $-1 #
coedge $-1 $84 $84 $52 $85 forward $136 $-1 #
edge $-1 $141 0 $141 6.2831853071796004 $84 $142 forward 7 unknown #
face $-1 $143 $144 $18 $-1 $145 reversed single #
loop $-1 $-1 $146 $53 #
plane-surface $-1 -191.64229350600147 -2.6645352591003757e-015 83.187987941902151 0 1 0 -0.83867057594974714 0 0.54463902268945019 forward_v I I I I #
coedge $-1 $147 $148 $149 $150 reversed $54 $-1 #
coedge $-1 $91 $56 $148 $151 forward $35 $-1 #
coedge $-1 $56 $90 $152 $153 reversed $35 $-1 #
coedge $-1 $154 $149 $56 $93 forward $144 $-1 #
edge $-1 $155 -36.375801822178822 $156 -32.919290106531705 $92 $157 forward 7 unknown #
face $-1 $158 $159 $19 $-1 $160 forward single #
loop $-1 $-1 $161 $57 #
plane-surface $-1 -191.64229350600147 8.4124020225448284 83.187987941902151 0 -1 0 0.83867057594974714 0 -0.54463902268945019 forward_v I I I I #
loop $-1 $-1 $162 $37 #
coedge $-1 $98 $98 $99 $163 forward $58 $-1 #
coedge $-1 $99 $99 $98 $163 reversed $60 $-1 #
coedge $-1 $100 $100 $61 $101 forward $159 $-1 #
edge $-1 $164 0 $164 6.2831853071796004 $100 $165 forward 7 unknown #
face $-1 $166 $167 $15 $-1 $168 reversed single #
loop $-1 $-1 $169 $62 #
plane-surface $-1 -71.579332865382852 0 0 1 0 0 0 0 -1 forward_v I I I I #
coedge $-1 $170 $113 $171 $172 forward $63 $-1 #
coedge $-1 $173 $65 $170 $174 forward $41 $-1 #
coedge $-1 $65 $173 $175 $176 forward $41 $-1 #
coedge $-1 $116 $115 $65 $109 reversed $117 $-1 #
edge $-1 $177 -33.197545201633858 $178 33.197545201633858 $108 $179 forward 7 unknown #
coedge $-1 $67 $66 $180 $181 forward $26 $-1 #
coedge $-1 $182 $183 $66 $112 reversed $167 $-1 #
edge $-1 $119 -71.579332865382852 $184 71.579332865382852 $111 $185 forward 7 unknown #
coedge $-1 $105 $186 $67 $114 reversed $63 $-1 #
edge $-1 $187 -71.579332865382852 $118 71.579332865382852 $113 $188 forward 7 unknown #
coedge $-1 $108 $68 $186 $189 forward $117 $-1 #
coedge $-1 $68 $108 $182 $190 reversed $117 $-1 #
loop $-1 $-1 $115 $166 #
vertex $-1 $69 $191 #
vertex $-1 $69 $192 #
straight-curve $-1 71.579332865382852 0 8.6747038644193672 0 1 0 I I #
face $-1 $193 $194 $16 $-1 $195 reversed single #
loop $-1 $-1 $129 $70 #
plane-surface $-1 0 0 8.6747038644193672 0 0 1 1 0 0 forward_v I I I I #
coedge $-1 $76 $196 $73 $127 forward $71 $-1 #
coedge $-1 $197 $73 $198 $199 reversed $45 $-1 #
coedge $-1 $73 $197 $74 $128 reversed $45 $-1 #
edge $-1 $200 -18.701873106453135 $132 -10.289471083908305 $124 $201 forward 7 unknown #
edge $-1 $132 2.636201369357039e-014 $202 4.1214176516599839 $74 $203 forward 7 unknown #
coedge $-1 $204 $205 $75 $130 forward $122 $-1 #
edge $-1 $133 24.24181388761788 $202 26.486498769513005 $129 $206 forward 7 unknown #
coedge $-1 $207 $76 $205 $208 reversed $71 $-1 #
vertex $-1 $127 $209 #
vertex $-1 $130 $210 #
straight-curve $-1 -71.579332865382852 -24.785143179089026 41.593993970951075 0 0 1 I I #
face $-1 $211 $212 $17 $-1 $213 reversed single #
loop $-1 $214 $84 $78 #
plane-surface $-1 -71.579332865382867 -28.991344190361442 5.218192148772232 -0.83867057594974714 0 0.54463902268945019 0.54463902268945019 0 0.83867057594974714 forward_v I I I I #
coedge $-1 $215 $216 $217 $218 reversed $79 $-1 #
coedge $-1 $139 $139 $-1 $219 forward $81 $-1 #
edge $-1 $220 0 $220 6.2831853071796004 $82 $221 forward 7 unknown #
vertex $-1 $85 $222 #
ellipse-curve $-1 -70.45699042443529 -28.991344190361442 6.946448006595805 0.83867057594974714 0 -0.54463902268945019 0.54463902268945019 0 0.83867057594974714 1 I I #
face $-1 $223 $224 $18 $-1 $225 reversed single #
loop $-1 $-1 $226 $86 #
plane-surface $-1 -71.579332865382852 0 0 1 0 0 0 0 -1 forward_v I I I I #
coedge $-1 $227 $228 $226 $229 reversed $87 $-1 #
coedge $-1 $230 $89 $228 $231 reversed $54 $-1 #
coedge $-1 $89 $230 $90 $151 reversed $54 $-1 #
coedge $-1 $92 $226 $89 $150 forward $144 $-1 #
edge $-1 $232 -2.1031005056362089 $155 6.3093015169086222 $149 $233 forward 7 unknown #
edge $-1 $155 2.636201369357039e-014 $234 4.1214176516599839 $90 $235 forward 7 unknown #
coedge $-1 $236 $237 $91 $153 forward $238 $-1 #
edge $-1 $156 24.24181388761788 $234 26.486498769513005 $152 $239 forward 7 unknown #
coedge $-1 $240 $92 $237 $241 reversed $144 $-1 #
vertex $-1 $150 $242 #
vertex $-1 $153 $243 #
straight-curve $-1 -71.579332865382852 8.4124020225448284 41.593993970951075 0 0 1 I I #
face $-1 $244 $245 $19 $-1 $246 forward single #
loop $-1 $247 $100 $94 #
plane-surface $-1 -71.579332865382867 4.2062010112724124 5.218192148772232 -0.83867057594974714 0 0.54463902268945019 0.54463902268945019 0 0.83867057594974714 forward_v I I I I #
coedge $-1 $248 $249 $250 $251 reversed $95 $-1 #
coedge $-1 $162 $162 $-1 $252 forward $97 $-1 #
edge $-1 $253 0 $253 6.2831853071796004 $98 $254 forward 7 unknown #
vertex $-1 $101 $255 #
ellipse-curve $-1 -70.45699042443529 4.2062010112724124 6.946448006595805 0.83867057594974714 0 -0.54463902268945019 0.54463902268945019 0 0.83867057594974714 1 I I #
face $-1 $-1 $117 $15 $-1 $256 reversed single #
loop $-1 $-1 $182 $102 #
plane-surface $-1 0 33.197545201633858 0 0 -1 0 0 0 -1 forward_v I I I I #
coedge $-1 $257 $180 $183 $258 forward $103 $-1 #
coedge $-1 $186 $105 $106 $174 reversed $63 $-1 #
coedge $-1 $180 $257 $105 $172 reversed $103 $-1 #
edge $-1 $187 -8.6747038644193672 $259 8.6747038644193672 $171 $260 forward 7 unknown #
coedge $-1 $107 $106 $257 $261 forward $41 $-1 #
edge $-1 $178 -71.579332865382852 $259 71.579332865382852 $170 $262 forward 7 unknown #
coedge $-1 $183 $182 $107 $176 reversed $167 $-1 #
edge $-1 $263 -71.579332865382852 $177 71.579332865382852 $175 $264 forward 7 unknown #
vertex $-1 $109 $265 #
vertex $-1 $189 $266 #
straight-curve $-1 71.579332865382852 0 -8.6747038644193672 0 -1 0 I I #
coedge $-1 $169 $171 $110 $181 reversed $103 $-1 #
edge $-1 $184 -33.197545201633858 $187 33.197545201633858 $180 $267 forward 7 unknown #
coedge $-1 $175 $111 $116 $190 forward $167 $-1 #
coedge $-1 $111 $175 $169 $258 reversed $167 $-1 #
vertex $-1 $112 $268 #
straight-curve $-1 0 33.197545201633858 8.6747038644193672 -1 0 0 I I #
coedge $-1 $113 $170 $115 $189 reversed $63 $-1 #
vertex $-1 $181 $269 #
straight-curve $-1 0 -33.197545201633858 8.6747038644193672 1 0 0 I I #
edge $-1 $118 -8.6747038644193672 $178 8.6747038644193672 $115 $270 forward 7 unknown #
edge $-1 $119 -8.6747038644193672 $177 8.6747038644193672 $116 $271 forward 7 unknown #
point $-1 71.579332865382852 -33.197545201633858 8.6747038644193672 #
point $-1 71.579332865382852 33.197545201633858 8.6747038644193672 #
face $-1 $272 $273 $16 $-1 $274 reversed single #
loop $-1 $-1 $275 $121 #
plane-surface $-1 0 0 -8.6747038644193672 0 0 1 1 0 0 forward_v I I I I #
coedge $-1 $124 $276 $277 $278 reversed $71 $-1 #
coedge $-1 $126 $125 $204 $279 reversed $45 $-1 #
coedge $-1 $277 $280 $125 $199 forward $273 $-1 #
edge $-1 $281 13.18285918920887 $200 17.30427684086883 $198 $282 forward 7 unknown #
vertex $-1 $278 $283 #
straight-curve $-1 -71.579332865382852 -14.495672095180721 5.218192148772256 0 1 0 I I #
vertex $-1 $279 $284 #
straight-curve $-1 -71.579332865382867 -24.785143179089026 5.218192148772232 0.54463902268945019 0 0.83867057594974714 I I #
coedge $-1 $285 $129 $197 $279 forward $122 $-1 #
coedge $-1 $129 $286 $131 $208 forward $122 $-1 #
straight-curve $-1 -95.821146753000733 -24.785143179089026 8.6747038644193708 1 0 0 I I #
coedge $-1 $276 $131 $287 $288 forward $71 $-1 #
edge $-1 $289 -33.197545201633858 $133 24.785143179089026 $131 $290 forward 7 unknown #
point $-1 -71.579332865382852 -24.785143179089026 5.2181921487722542 #
point $-1 -71.579332865382852 -24.785143179089026 8.6747038644193672 #
face $-1 $291 $292 $17 $-1 $293 forward single #
loop $-1 $-1 $294 $135 #
plane-surface $-1 -71.579332865382852 0 0 1 0 0 0 0 -1 forward_v I I I I #
loop $-1 $-1 $295 $78 #
coedge $-1 $216 $138 $296 $297 forward $79 $-1 #
coedge $-1 $138 $215 $298 $299 reversed $79 $-1 #
coedge $-1 $300 $294 $138 $218 forward $212 $-1 #
edge $-1 $301 -36.375801822178822 $302 -32.919290106531705 $217 $303 forward 7 unknown #
edge $-1 $304 1 $304 0 $139 $-1 forward 7 unknown #
vertex $-1 $140 $305 #
ellipse-curve $-1 -68.993136966679188 -28.991344190361442 5.995810486387124 -0.83867057594974714 0 0.54463902268945019 0.54463902268945019 0 0.83867057594974714 1 I I #
point $-1 -69.912351401745823 -28.991344190361442 7.7851185825455484 #
face $-1 $306 $307 $18 $-1 $308 reversed single #
loop $-1 $309 $310 $143 #
cone-surface $-1 -69.725063695557239 -28.991344190361442 6.4711292464914623 0.83867057594974714 0 -0.54463902268945019 0.54463902268945019 0 0.83867057594974714 1 I I 0 1 1 forward I I I I #
coedge $-1 $149 $311 $146 $229 forward $144 $-1 #
coedge $-1 $228 $146 $312 $313 reversed $87 $-1 #
coedge $-1 $146 $227 $147 $231 forward $87 $-1 #
edge $-1 $314 32.919290106531705 $232 36.375801822178822 $226 $315 forward 7 unknown #
coedge $-1 $148 $147 $236 $316 reversed $54 $-1 #
edge $-1 $317 -4.1214176516599839 $232 -2.636201369357039e-014 $228 $318 forward 7 unknown #
vertex $-1 $150 $319 #
straight-curve $-1 -71.579332865382852 2.1031005056362062 5.218192148772256 0 1 0 I I #
vertex $-1 $316 $320 #
straight-curve $-1 -71.579332865382867 8.4124020225448284 5.218192148772232 0.54463902268945019 0 0.83867057594974714 I I #
coedge $-1 $312 $152 $230 $316 forward $238 $-1 #
coedge $-1 $152 $321 $154 $241 forward $238 $-1 #
loop $-1 $-1 $312 $322 #
straight-curve $-1 -95.821146753000733 8.4124020225448284 8.6747038644193708 1 0 0 I I #
coedge $-1 $323 $154 $324 $325 forward $144 $-1 #
edge $-1 $326 -33.197545201633858 $156 -8.4124020225448284 $154 $327 forward 7 unknown #
point $-1 -71.579332865382852 8.4124020225448284 5.2181921487722542 #
point $-1 -71.579332865382852 8.4124020225448284 8.6747038644193672 #
face $-1 $328 $329 $19 $-1 $330 reversed single #
loop $-1 $-1 $331 $158 #
plane-surface $-1 -191.64229350600147 -2.6645352591003757e-015 83.187987941902151 0 1 0 -0.83867057594974714 0 0.54463902268945019 forward_v I I I I #
loop $-1 $-1 $332 $94 #
coedge $-1 $249 $161 $333 $334 forward $95 $-1 #
coedge $-1 $161 $248 $335 $336 reversed $95 $-1 #
coedge $-1 $337 $338 $161 $251 forward $329 $-1 #
edge $-1 $339 -36.375801822178822 $340 -32.919290106531705 $250 $341 forward 7 unknown #
edge $-1 $342 1 $342 0 $162 $-1 forward 7 unknown #
vertex $-1 $163 $343 #
ellipse-curve $-1 -68.993136966679188 4.2062010112724124 5.995810486387124 -0.83867057594974714 0 0.54463902268945019 0.54463902268945019 0 0.83867057594974714 1 I I #
point $-1 -69.912351401745823 4.2062010112724124 7.7851185825455484 #
plane-surface $-1 71.579332865382852 0 0 -1 0 0 0 0 1 forward_v I I I I #
coedge $-1 $171 $169 $173 $261 reversed $103 $-1 #
edge $-1 $184 -8.6747038644193672 $263 8.6747038644193672 $183 $344 forward 7 unknown #
vertex $-1 $261 $345 #
straight-curve $-1 -71.579332865382852 -33.197545201633858 0 0 0 -1 I I #
edge $-1 $259 -33.197545201633858 $263 33.197545201633858 $257 $346 forward 7 unknown #
straight-curve $-1 0 -33.197545201633858 -8.6747038644193672 -1 0 0 I I #
vertex $-1 $176 $347 #
straight-curve $-1 0 33.197545201633858 -8.6747038644193672 1 0 0 I I #
point $-1 71.579332865382852 33.197545201633858 -8.6747038644193672 #
point $-1 71.579332865382852 -33.197545201633858 -8.6747038644193672 #
straight-curve $-1 -71.579332865382852 0 8.6747038644193672 0 -1 0 I I #
point $-1 -71.579332865382852 33.197545201633858 8.6747038644193672 #
point $-1 -71.579332865382852 -33.197545201633858 8.6747038644193672 #
straight-curve $-1 71.579332865382852 -33.197545201633858 0 0 0 -1 I I #
straight-curve $-1 71.579332865382852 33.197545201633858 0 0 0 -1 I I #
face $-1 $348 $349 $16 $-1 $350 reversed single #
loop $-1 $-1 $198 $193 #
plane-surface $-1 0 -33.197545201633858 0 0 1 0 0 0 1 forward_v I I I I #
coedge $-1 $351 $352 $353 $354 forward $194 $-1 #
coedge $-1 $196 $207 $355 $356 reversed $71 $-1 #
coedge $-1 $357 $198 $196 $278 forward $273 $-1 #
edge $-1 $200 -5.2181921487722542 $358 8.6747038644193672 $196 $359 forward 7 unknown #
edge $-1 $202 10.289471083908305 $281 18.701873106453135 $204 $360 forward 7 unknown #
coedge $-1 $198 $361 $285 $362 reversed $273 $-1 #
vertex $-1 $362 $363 #
straight-curve $-1 -62.15474843842437 -33.197545201633858 19.730779973297587 -0.54463902268945019 0 -0.83867057594974714 I I #
point $-1 -71.579332865382852 -33.197545201633858 5.2181921487722542 #
point $-1 -69.334647983487727 -24.785143179089026 8.6747038644193672 #
coedge $-1 $364 $204 $280 $362 forward $122 $-1 #
coedge $-1 $205 $364 $365 $366 forward $122 $-1 #
coedge $-1 $365 $367 $207 $288 reversed $349 $-1 #
edge $-1 $289 -8.6747038644193672 $368 8.6747038644193672 $287 $369 forward 7 unknown #
vertex $-1 $366 $370 #
straight-curve $-1 -71.579332865382852 0 8.6747038644193672 0 -1 0 I I #
face $-1 $371 $372 $17 $-1 $373 reversed single #
loop $-1 $-1 $298 $211 #
plane-surface $-1 0 0 8.6747038644193672 0 0 1 1 0 0 forward_v I I I I #
coedge $-1 $217 $374 $295 $375 forward $212 $-1 #
coedge $-1 $376 $296 $294 $375 reversed $214 $-1 #
coedge $-1 $295 $377 $215 $297 reversed $214 $-1 #
edge $-1 $301 2.636201369357039e-014 $378 4.1214176516599839 $215 $379 forward 7 unknown #
coedge $-1 $380 $381 $216 $299 forward $292 $-1 #
edge $-1 $302 24.24181388761788 $378 26.486498769513005 $298 $382 forward 7 unknown #
coedge $-1 $383 $217 $381 $384 reversed $212 $-1 #
vertex $-1 $375 $385 #
vertex $-1 $299 $386 #
straight-curve $-1 -71.579332865382852 -24.785143179089026 41.593993970951075 0 0 1 I I #
vertex $-1 $219 $387 #
point $-1 -68.448497943989736 -28.991344190361442 6.834481062336871 #
face $-1 $388 $389 $18 $-1 $390 forward single #
loop $-1 $391 $392 $223 #
cone-surface $-1 -68.573801678704314 -28.991344190361442 5.7234909750423988 0.83867057594974714 0 -0.54463902268945019 0.2723195113447251 0 0.41933528797487357 1 I I -0.70710678118654746 0.70710678118654746 0.5 forward I I I I #
loop $-1 $-1 $393 $143 #
coedge $-1 $310 $310 $394 $395 reversed $224 $-1 #
coedge $-1 $226 $396 $397 $398 reversed $144 $-1 #
coedge $-1 $397 $236 $227 $313 forward $238 $-1 #
edge $-1 $317 -26.486498769513005 $314 -24.24181388761788 $312 $399 forward 7 unknown #
vertex $-1 $398 $400 #
straight-curve $-1 -71.579332865382852 -2.6645352591003757e-015 41.593993970951075 0 0 -1 I I #
edge $-1 $234 -6.3093015169086222 $317 2.1031005056362089 $236 $401 forward 7 unknown #
vertex $-1 $316 $402 #
straight-curve $-1 -71.579332865382867 -2.6645352591003757e-015 5.218192148772232 -0.54463902268945019 0 -0.83867057594974714 I I #
point $-1 -71.579332865382852 -2.6645352591003757e-015 5.2181921487722542 #
point $-1 -69.334647983487727 8.4124020225448284 8.6747038644193672 #
coedge $-1 $237 $403 $404 $405 forward $238 $-1 #
face $-1 $406 $238 $18 $-1 $407 forward single #
coedge $-1 $408 $240 $409 $410 reversed $144 $-1 #
coedge $-1 $404 $411 $240 $325 reversed $412 $-1 #
edge $-1 $326 -8.6747038644193672 $413 8.6747038644193672 $324 $414 forward 7 unknown #
vertex $-1 $405 $415 #
straight-curve $-1 -71.579332865382852 0 8.6747038644193672 0 -1 0 I I #
face $-1 $416 $417 $19 $-1 $418 reversed single #
loop $-1 $-1 $419 $244 #
plane-surface $-1 -71.579332865382852 0 0 1 0 0 0 0 -1 forward_v I I I I #
coedge $-1 $420 $421 $419 $422 reversed $245 $-1 #
coedge $-1 $423 $333 $338 $424 reversed $247 $-1 #
coedge $-1 $332 $425 $248 $334 reversed $247 $-1 #
edge $-1 $339 2.636201369357039e-014 $426 4.1214176516599839 $248 $427 forward 7 unknown #
coedge $-1 $428 $429 $249 $336 forward $430 $-1 #
edge $-1 $340 24.24181388761788 $426 26.486498769513005 $335 $431 forward 7 unknown #
coedge $-1 $432 $250 $429 $433 reversed $329 $-1 #
coedge $-1 $250 $419 $332 $424 forward $329 $-1 #
vertex $-1 $424 $434 #
vertex $-1 $336 $435 #
straight-curve $-1 -71.579332865382852 8.4124020225448284 41.593993970951075 0 0 1 I I #
vertex $-1 $252 $436 #
point $-1 -68.448497943989736 4.2062010112724124 6.834481062336871 #
straight-curve $-1 -71.579332865382852 33.197545201633858 0 0 0 -1 I I #
point $-1 -71.579332865382852 -33.197545201633858 -8.6747038644193672 #
straight-curve $-1 -71.579332865382852 0 -8.6747038644193672 0 1 0 I I #
point $-1 -71.579332865382852 33.197545201633858 -8.6747038644193672 #
face $-1 $-1 $437 $16 $-1 $438 reversed single #
loop $-1 $-1 $439 $272 #
plane-surface $-1 0 33.197545201633858 0 0 -1 0 0 0 -1 forward_v I I I I #
coedge $-1 $355 $275 $357 $440 forward $194 $-1 #
coedge $-1 $275 $355 $367 $441 forward $194 $-1 #
coedge $-1 $442 $443 $275 $354 reversed $437 $-1 #
edge $-1 $444 -33.197545201633858 $445 33.197545201633858 $353 $446 forward 7 unknown #
coedge $-1 $352 $351 $276 $356 forward $194 $-1 #
edge $-1 $358 -33.197545201633858 $368 33.197545201633858 $276 $447 forward 7 unknown #
coedge $-1 $361 $277 $351 $440 reversed $273 $-1 #
vertex $-1 $356 $448 #
straight-curve $-1 -71.579332865382852 -33.197545201633858 0 0 0 -1 I I #
straight-curve $-1 -69.334647983487727 -14.495672095180721 8.6747038644193672 0 -1 0 I I #
coedge $-1 $280 $357 $443 $449 reversed $273 $-1 #
edge $-1 $281 -69.334647983487727 $450 71.579332865382852 $280 $451 forward 7 unknown #
point $-1 -69.334647983487727 -33.197545201633858 8.6747038644193672 #
coedge $-1 $286 $285 $452 $453 forward $122 $-1 #
coedge $-1 $439 $287 $286 $366 reversed $349 $-1 #
edge $-1 $454 -71.579332865382852 $289 71.579332865382852 $365 $455 forward 7 unknown #
coedge $-1 $287 $439 $352 $441 reversed $349 $-1 #
vertex $-1 $441 $456 #
straight-curve $-1 -71.579332865382852 33.197545201633858 0 0 0 -1 I I #
point $-1 -71.579332865382852 33.197545201633858 8.6747038644193672 #
face $-1 $457 $458 $17 $-1 $459 reversed single #
loop $-1 $-1 $460 $291 #
plane-surface $-1 0 0 -8.6747038644193672 0 0 1 1 0 0 forward_v I I I I #
coedge $-1 $294 $461 $462 $463 reversed $212 $-1 #
edge $-1 $464 -18.701873106453135 $301 -10.289471083908305 $294 $465 forward 7 unknown #
coedge $-1 $377 $295 $466 $467 reversed $214 $-1 #
coedge $-1 $296 $376 $380 $468 reversed $214 $-1 #
vertex $-1 $468 $469 #
straight-curve $-1 -71.579332865382867 -24.785143179089026 5.218192148772232 0.54463902268945019 0 0.83867057594974714 I I #
coedge $-1 $470 $298 $377 $468 forward $292 $-1 #
coedge $-1 $298 $471 $300 $384 forward $292 $-1 #
straight-curve $-1 -95.821146753000733 -24.785143179089026 8.6747038644193708 1 0 0 I I #
coedge $-1 $461 $300 $472 $473 forward $212 $-1 #
edge $-1 $474 -33.197545201633858 $302 24.785143179089026 $300 $475 forward 7 unknown #
point $-1 -71.579332865382852 -24.785143179089026 5.2181921487722542 #
point $-1 -71.579332865382852 -24.785143179089026 8.6747038644193672 #
point $-1 -68.154466390729439 -28.991344190361442 5.4511714636976736 #
face $-1 $322 $476 $18 $-1 $477 forward single #
loop $-1 $-1 $478 $306 #
plane-surface $-1 -191.64229350600147 -24.785143179089026 83.187987941902151 0 -1 0 0.83867057594974714 0 -0.54463902268945019 forward_v I I I I #
loop $-1 $-1 $479 $223 #
coedge $-1 $392 $392 $393 $480 forward $307 $-1 #
coedge $-1 $393 $393 $392 $480 reversed $309 $-1 #
coedge $-1 $394 $394 $310 $395 forward $476 $-1 #
edge $-1 $481 0 $481 6.2831853071796004 $394 $482 forward 7 unknown #
coedge $-1 $311 $483 $478 $484 forward $144 $-1 #
coedge $-1 $485 $312 $311 $398 forward $238 $-1 #
edge $-1 $314 2.6645352591003757e-015 $486 24.785143179089026 $311 $327 forward 7 unknown #
straight-curve $-1 -95.821146753000733 -2.6645352591003757e-015 8.6747038644193708 -1 0 0 I I #
point $-1 -71.579332865382852 -2.6645352591003757e-015 8.6747038644193672 #
straight-curve $-1 -69.334647983487727 2.1031005056362062 8.6747038644193672 0 -1 0 I I #
point $-1 -69.334647983487727 -2.6645352591003757e-015 8.6747038644193672 #
coedge $-1 $321 $487 $488 $489 forward $238 $-1 #
coedge $-1 $490 $324 $321 $405 reversed $412 $-1 #
edge $-1 $491 -71.579332865382852 $326 71.579332865382852 $404 $492 forward 7 unknown #
face $-1 $493 $494 $18 $-1 $495 reversed single #
plane-surface $-1 0 0 8.6747038644193672 0 0 1 1 0 0 forward_v I I I I #
coedge $-1 $483 $323 $496 $497 reversed $144 $-1 #
coedge $-1 $498 $499 $323 $410 forward $494 $-1 #
edge $-1 $500 -33.197545201633858 $413 33.197545201633858 $323 $501 forward 7 unknown #
coedge $-1 $324 $490 $498 $502 reversed $412 $-1 #
loop $-1 $-1 $490 $503 #
vertex $-1 $502 $504 #
straight-curve $-1 -71.579332865382852 33.197545201633858 0 0 0 -1 I I #
point $-1 -71.579332865382852 33.197545201633858 8.6747038644193672 #
face $-1 $505 $506 $19 $-1 $507 reversed single #
loop $-1 $508 $509 $328 #
cone-surface $-1 -69.725063695557239 -28.991344190361442 6.4711292464914623 0.83867057594974714 0 -0.54463902268945019 0.54463902268945019 0 0.83867057594974714 1 I I 0 1 1 forward I I I I #
coedge $-1 $338 $510 $331 $422 forward $329 $-1 #
coedge $-1 $421 $331 $511 $512 reversed $245 $-1 #
coedge $-1 $331 $420 $423 $513 forward $245 $-1 #
edge $-1 $514 32.919290106531705 $515 36.375801822178822 $419 $516 forward 7 unknown #
coedge $-1 $425 $332 $421 $513 reversed $247 $-1 #
edge $-1 $515 -2.1031005056362089 $339 6.3093015169086222 $338 $517 forward 7 unknown #
coedge $-1 $333 $423 $428 $518 reversed $247 $-1 #
vertex $-1 $518 $519 #
straight-curve $-1 -71.579332865382867 8.4124020225448284 5.218192148772232 0.54463902268945019 0 0.83867057594974714 I I #
coedge $-1 $511 $335 $425 $518 forward $430 $-1 #
coedge $-1 $335 $520 $337 $433 forward $430 $-1 #
loop $-1 $-1 $511 $521 #
straight-curve $-1 -95.821146753000733 8.4124020225448284 8.6747038644193708 1 0 0 I I #
coedge $-1 $522 $337 $523 $524 forward $329 $-1 #
edge $-1 $525 -33.197545201633858 $340 -8.4124020225448284 $337 $526 forward 7 unknown #
point $-1 -71.579332865382852 8.4124020225448284 5.2181921487722542 #
point $-1 -71.579332865382852 8.4124020225448284 8.6747038644193672 #
point $-1 -68.154466390729439 4.2062010112724124 5.4511714636976736 #
loop $-1 $-1 $443 $348 #
plane-surface $-1 71.579332865382852 0 0 -1 0 0 0 0 1 forward_v I I I I #
coedge $-1 $367 $365 $442 $527 forward $349 $-1 #
edge $-1 $445 -71.579332865382852 $358 71.579332865382852 $357 $528 forward 7 unknown #
edge $-1 $368 -71.579332865382852 $444 71.579332865382852 $367 $529 forward 7 unknown #
coedge $-1 $452 $353 $439 $527 reversed $437 $-1 #
coedge $-1 $353 $452 $361 $449 forward $437 $-1 #
vertex $-1 $354 $530 #
vertex $-1 $449 $531 #
straight-curve $-1 71.579332865382852 0 -8.6747038644193672 0 -1 0 I I #
straight-curve $-1 -71.579332865382852 0 -8.6747038644193672 0 1 0 I I #
point $-1 -71.579332865382852 -33.197545201633858 -8.6747038644193672 #
edge $-1 $450 -8.6747038644193672 $445 8.6747038644193672 $443 $532 forward 7 unknown #
vertex $-1 $453 $533 #
straight-curve $-1 0 -33.197545201633858 8.6747038644193672 1 0 0 I I #
coedge $-1 $443 $442 $364 $453 reversed $437 $-1 #
edge $-1 $450 -33.197545201633858 $454 33.197545201633858 $452 $534 forward 7 unknown #
vertex $-1 $453 $535 #
straight-curve $-1 0 33.197545201633858 8.6747038644193672 -1 0 0 I I #
point $-1 -71.579332865382852 33.197545201633858 -8.6747038644193672 #
face $-1 $536 $537 $17 $-1 $538 reversed single #
loop $-1 $-1 $466 $371 #
plane-surface $-1 0 -33.197545201633858 0 0 1 0 0 0 1 forward_v I I I I #
coedge $-1 $539 $540 $541 $542 forward $372 $-1 #
coedge $-1 $374 $383 $543 $544 reversed $212 $-1 #
coedge $-1 $545 $466 $374 $463 forward $458 $-1 #
edge $-1 $464 -5.2181921487722542 $546 8.6747038644193672 $374 $547 forward 7 unknown #
vertex $-1 $463 $548 #
straight-curve $-1 -71.579332865382852 -14.495672095180721 5.218192148772256 0 1 0 I I #
coedge $-1 $462 $549 $376 $467 forward $458 $-1 #
edge $-1 $550 13.18285918920887 $464 17.30427684086883 $466 $551 forward 7 unknown #
edge $-1 $378 10.289471083908305 $550 18.701873106453135 $380 $552 forward 7 unknown #
point $-1 -69.334647983487727 -24.785143179089026 8.6747038644193672 #
coedge $-1 $553 $380 $549 $554 forward $292 $-1 #
coedge $-1 $381 $553 $555 $556 forward $292 $-1 #
coedge $-1 $555 $557 $383 $473 reversed $537 $-1 #
edge $-1 $474 -8.6747038644193672 $558 8.6747038644193672 $472 $559 forward 7 unknown #
vertex $-1 $556 $560 #
straight-curve $-1 -71.579332865382852 0 8.6747038644193672 0 -1 0 I I #
loop $-1 $561 $394 $388 #
plane-surface $-1 -71.579332865382867 -28.991344190361442 5.218192148772232 -0.83867057594974714 0 0.54463902268945019 0.54463902268945019 0 0.83867057594974714 forward_v I I I I #
coedge $-1 $562 $563 $396 $484 reversed $389 $-1 #
coedge $-1 $479 $479 $-1 $564 forward $391 $-1 #
edge $-1 $565 0 $565 6.2831853071796004 $392 $566 forward 7 unknown #
vertex $-1 $395 $567 #
ellipse-curve $-1 -70.45699042443529 -28.991344190361442 6.946448006595805 0.83867057594974714 0 -0.54463902268945019 0.54463902268945019 0 0.83867057594974714 1 I I #
coedge $-1 $396 $408 $568 $569 forward $144 $-1 #
edge $-1 $570 -36.375801822178822 $486 -32.919290106531705 $396 $571 forward 7 unknown #
coedge $-1 $572 $397 $563 $573 forward $238 $-1 #
vertex $-1 $573 $574 #
coedge $-1 $403 $572 $575 $576 forward $238 $-1 #
coedge $-1 $577 $578 $403 $489 reversed $579 $-1 #
edge $-1 $580 -33.197545201633858 $491 33.197545201633858 $488 $581 forward 7 unknown #
coedge $-1 $411 $404 $578 $582 forward $412 $-1 #
vertex $-1 $489 $583 #
straight-curve $-1 0 33.197545201633858 8.6747038644193672 -1 0 0 I I #
face $-1 $503 $584 $18 $-1 $585 reversed single #
loop $-1 $-1 $586 $406 #
plane-surface $-1 0 0 -8.6747038644193672 0 0 1 1 0 0 forward_v I I I I #
coedge $-1 $587 $588 $408 $497 forward $584 $-1 #
edge $-1 $589 -5.2181921487722542 $500 8.6747038644193672 $408 $590 forward 7 unknown #
coedge $-1 $586 $409 $411 $502 forward $494 $-1 #
coedge $-1 $409 $586 $587 $591 forward $494 $-1 #
vertex $-1 $410 $592 #
straight-curve $-1 -71.579332865382852 0 -8.6747038644193672 0 1 0 I I #
edge $-1 $413 -71.579332865382852 $593 71.579332865382852 $411 $594 forward 7 unknown #
face $-1 $595 $412 $18 $-1 $596 reversed single #
point $-1 -71.579332865382852 33.197545201633858 -8.6747038644193672 #
face $-1 $597 $598 $19 $-1 $599 forward single #
loop $-1 $600 $601 $416 #
cone-surface $-1 -68.573801678704314 -28.991344190361442 5.7234909750423988 0.83867057594974714 0 -0.54463902268945019 0.2723195113447251 0 0.41933528797487357 1 I I -0.70710678118654746 0.70710678118654746 0.5 forward I I I I #
loop $-1 $-1 $602 $328 #
coedge $-1 $509 $509 $603 $604 reversed $417 $-1 #
coedge $-1 $419 $605 $606 $607 reversed $329 $-1 #
coedge $-1 $606 $428 $420 $512 forward $430 $-1 #
edge $-1 $608 -26.486498769513005 $514 -24.24181388761788 $511 $609 forward 7 unknown #
edge $-1 $608 -4.1214176516599839 $515 -2.636201369357039e-014 $421 $610 forward 7 unknown #
vertex $-1 $607 $611 #
vertex $-1 $424 $612 #
straight-curve $-1 -71.579332865382852 -2.6645352591003757e-015 41.593993970951075 0 0 -1 I I #
straight-curve $-1 -71.579332865382852 2.1031005056362062 5.218192148772256 0 1 0 I I #
edge $-1 $426 -6.3093015169086222 $608 2.1031005056362089 $428 $613 forward 7 unknown #
point $-1 -69.334647983487727 8.4124020225448284 8.6747038644193672 #
coedge $-1 $429 $614 $615 $616 forward $430 $-1 #
face $-1 $617 $430 $19 $-1 $618 forward single #
coedge $-1 $619 $432 $620 $621 reversed $329 $-1 #
coedge $-1 $615 $622 $432 $524 reversed $623 $-1 #
edge $-1 $525 -8.6747038644193672 $624 8.6747038644193672 $523 $625 forward 7 unknown #
vertex $-1 $616 $626 #
straight-curve $-1 -71.579332865382852 0 8.6747038644193672 0 -1 0 I I #
edge $-1 $454 -8.6747038644193672 $444 8.6747038644193672 $442 $627 forward 7 unknown #
straight-curve $-1 0 -33.197545201633858 -8.6747038644193672 -1 0 0 I I #
straight-curve $-1 0 33.197545201633858 -8.6747038644193672 1 0 0 I I #
point $-1 71.579332865382852 33.197545201633858 -8.6747038644193672 #
point $-1 71.579332865382852 -33.197545201633858 -8.6747038644193672 #
straight-curve $-1 71.579332865382852 -33.197545201633858 0 0 0 -1 I I #
point $-1 71.579332865382852 -33.197545201633858 8.6747038644193672 #
straight-curve $-1 71.579332865382852 0 8.6747038644193672 0 1 0 I I #
point $-1 71.579332865382852 33.197545201633858 8.6747038644193672 #
face $-1 $-1 $628 $17 $-1 $629 reversed single #
loop $-1 $-1 $630 $457 #
plane-surface $-1 0 33.197545201633858 0 0 -1 0 0 0 -1 forward_v I I I I #
coedge $-1 $543 $460 $545 $631 forward $372 $-1 #
coedge $-1 $460 $543 $557 $632 forward $372 $-1 #
coedge $-1 $633 $634 $460 $542 reversed $628 $-1 #
edge $-1 $635 -33.197545201633858 $636 33.197545201633858 $541 $637 forward 7 unknown #
coedge $-1 $540 $539 $461 $544 forward $372 $-1 #
edge $-1 $546 -33.197545201633858 $558 33.197545201633858 $461 $638 forward 7 unknown #
coedge $-1 $639 $462 $539 $631 reversed $458 $-1 #
vertex $-1 $544 $640 #
straight-curve $-1 -71.579332865382852 -33.197545201633858 0 0 0 -1 I I #
point $-1 -71.579332865382852 -33.197545201633858 5.2181921487722542 #
coedge $-1 $466 $639 $470 $554 reversed $458 $-1 #
vertex $-1 $554 $641 #
straight-curve $-1 -62.15474843842437 -33.197545201633858 19.730779973297587 -0.54463902268945019 0 -0.83867057594974714 I I #
straight-curve $-1 -69.334647983487727 -14.495672095180721 8.6747038644193672 0 -1 0 I I #
coedge $-1 $471 $470 $642 $643 forward $292 $-1 #
edge $-1 $550 -69.334647983487727 $644 71.579332865382852 $549 $645 forward 7 unknown #
coedge $-1 $630 $472 $471 $556 reversed $537 $-1 #
edge $-1 $646 -71.579332865382852 $474 71.579332865382852 $555 $647 forward 7 unknown #
coedge $-1 $472 $630 $540 $632 reversed $537 $-1 #
vertex $-1 $632 $648 #
straight-curve $-1 -71.579332865382852 33.197545201633858 0 0 0 -1 I I #
point $-1 -71.579332865382852 33.197545201633858 8.6747038644193672 #
loop $-1 $-1 $568 $388 #
coedge $-1 $563 $478 $649 $650 forward $389 $-1 #
coedge $-1 $478 $562 $485 $573 reversed $389 $-1 #
edge $-1 $651 1 $651 0 $479 $-1 forward 7 unknown #
vertex $-1 $480 $652 #
ellipse-curve $-1 -68.993136966679188 -28.991344190361442 5.995810486387124 -0.83867057594974714 0 0.54463902268945019 0.54463902268945019 0 0.83867057594974714 1 I I #
point $-1 -69.912351401745823 -28.991344190361442 7.7851185825455484 #
coedge $-1 $653 $649 $483 $569 reversed $561 $-1 #
edge $-1 $589 -18.701873106453135 $570 -10.289471083908305 $483 $654 forward 7 unknown #
vertex $-1 $569 $655 #
straight-curve $-1 -71.579332865382852 -24.785143179089026 41.593993970951075 0 0 1 I I #
coedge $-1 $487 $485 $656 $657 forward $238 $-1 #
edge $-1 $486 24.24181388761788 $658 26.486498769513005 $485 $659 forward 7 unknown #
point $-1 -71.579332865382852 -24.785143179089026 8.6747038644193672 #
coedge $-1 $588 $660 $487 $576 reversed $584 $-1 #
edge $-1 $661 -69.334647983487727 $580 71.579332865382852 $575 $662 forward 7 unknown #
coedge $-1 $663 $488 $660 $664 forward $579 $-1 #
coedge $-1 $488 $663 $490 $582 reversed $579 $-1 #
loop $-1 $-1 $577 $595 #
vertex $-1 $489 $665 #
straight-curve $-1 71.579332865382852 0 8.6747038644193672 0 1 0 I I #
edge $-1 $491 -8.6747038644193672 $593 8.6747038644193672 $578 $666 forward 7 unknown #
point $-1 71.579332865382852 33.197545201633858 8.6747038644193672 #
loop $-1 $-1 $588 $493 #
plane-surface $-1 0 -33.197545201633858 0 0 1 0 0 0 1 forward_v I I I I #
coedge $-1 $499 $498 $663 $667 forward $494 $-1 #
coedge $-1 $660 $496 $499 $591 reversed $584 $-1 #
coedge $-1 $496 $575 $653 $668 forward $584 $-1 #
vertex $-1 $497 $669 #
straight-curve $-1 -71.579332865382852 -33.197545201633858 0 0 0 -1 I I #
edge $-1 $670 -71.579332865382852 $500 71.579332865382852 $587 $671 forward 7 unknown #
point $-1 -71.579332865382852 -33.197545201633858 -8.6747038644193672 #
vertex $-1 $667 $672 #
straight-curve $-1 0 33.197545201633858 -8.6747038644193672 1 0 0 I I #
face $-1 $-1 $579 $18 $-1 $673 reversed single #
plane-surface $-1 0 33.197545201633858 0 0 -1 0 0 0 -1 forward_v I I I I #
face $-1 $521 $674 $19 $-1 $675 forward single #
loop $-1 $-1 $676 $505 #
plane-surface $-1 -191.64229350600147 -24.785143179089026 83.187987941902151 0 -1 0 0.83867057594974714 0 -0.54463902268945019 forward_v I I I I #
loop $-1 $-1 $677 $416 #
coedge $-1 $601 $601 $602 $678 forward $506 $-1 #
coedge $-1 $602 $602 $601 $678 reversed $508 $-1 #
coedge $-1 $603 $603 $509 $604 forward $674 $-1 #
edge $-1 $679 0 $679 6.2831853071796004 $603 $680 forward 7 unknown #
coedge $-1 $510 $681 $676 $682 forward $329 $-1 #
coedge $-1 $683 $511 $510 $607 forward $430 $-1 #
edge $-1 $514 2.6645352591003757e-015 $684 24.785143179089026 $510 $526 forward 7 unknown #
vertex $-1 $518 $685 #
straight-curve $-1 -95.821146753000733 -2.6645352591003757e-015 8.6747038644193708 -1 0 0 I I #
straight-curve $-1 -71.579332865382867 -2.6645352591003757e-015 5.218192148772232 -0.54463902268945019 0 -0.83867057594974714 I I #
point $-1 -71.579332865382852 -2.6645352591003757e-015 8.6747038644193672 #
point $-1 -71.579332865382852 -2.6645352591003757e-015 5.2181921487722542 #
straight-curve $-1 -69.334647983487727 2.1031005056362062 8.6747038644193672 0 -1 0 I I #
coedge $-1 $520 $686 $687 $688 forward $430 $-1 #
coedge $-1 $689 $523 $520 $616 reversed $623 $-1 #
edge $-1 $690 -71.579332865382852 $525 71.579332865382852 $615 $691 forward 7 unknown #
face $-1 $692 $693 $19 $-1 $694 reversed single #
plane-surface $-1 0 0 8.6747038644193672 0 0 1 1 0 0 forward_v I I I I #
coedge $-1 $681 $522 $695 $696 reversed $329 $-1 #
coedge $-1 $697 $698 $522 $621 forward $693 $-1 #
edge $-1 $699 -33.197545201633858 $624 33.197545201633858 $522 $700 forward 7 unknown #
coedge $-1 $523 $689 $697 $701 reversed $623 $-1 #
loop $-1 $-1 $689 $702 #
vertex $-1 $701 $703 #
straight-curve $-1 -71.579332865382852 33.197545201633858 0 0 0 -1 I I #
point $-1 -71.579332865382852 33.197545201633858 8.6747038644193672 #
straight-curve $-1 71.579332865382852 33.197545201633858 0 0 0 -1 I I #
loop $-1 $-1 $634 $536 #
plane-surface $-1 71.579332865382852 0 0 -1 0 0 0 0 1 forward_v I I I I #
coedge $-1 $557 $555 $633 $704 forward $537 $-1 #
edge $-1 $636 -71.579332865382852 $546 71.579332865382852 $545 $705 forward 7 unknown #
edge $-1 $558 -71.579332865382852 $635 71.579332865382852 $557 $706 forward 7 unknown #
coedge $-1 $642 $541 $630 $704 reversed $628 $-1 #
coedge $-1 $541 $642 $639 $707 forward $628 $-1 #
vertex $-1 $542 $708 #
vertex $-1 $707 $709 #
straight-curve $-1 71.579332865382852 0 -8.6747038644193672 0 -1 0 I I #
straight-curve $-1 -71.579332865382852 0 -8.6747038644193672 0 1 0 I I #
coedge $-1 $549 $545 $634 $707 reversed $458 $-1 #
point $-1 -71.579332865382852 -33.197545201633858 -8.6747038644193672 #
point $-1 -69.334647983487727 -33.197545201633858 8.6747038644193672 #
coedge $-1 $634 $633 $553 $643 reversed $628 $-1 #
edge $-1 $644 -33.197545201633858 $646 33.197545201633858 $642 $710 forward 7 unknown #
vertex $-1 $643 $711 #
straight-curve $-1 0 -33.197545201633858 8.6747038644193672 1 0 0 I I #
vertex $-1 $643 $712 #
straight-curve $-1 0 33.197545201633858 8.6747038644193672 -1 0 0 I I #
point $-1 -71.579332865382852 33.197545201633858 -8.6747038644193672 #
coedge $-1 $568 $656 $562 $650 reversed $561 $-1 #
edge $-1 $570 2.636201369357039e-014 $658 4.1214176516599839 $562 $713 forward 7 unknown #
vertex $-1 $564 $714 #
point $-1 -68.448497943989736 -28.991344190361442 6.834481062336871 #
coedge $-1 $656 $568 $588 $668 reversed $561 $-1 #
straight-curve $-1 -71.579332865382852 -14.495672095180721 5.218192148772256 0 1 0 I I #
point $-1 -71.579332865382852 -24.785143179089026 5.2181921487722542 #
coedge $-1 $649 $653 $572 $657 reversed $561 $-1 #
edge $-1 $658 10.289471083908305 $661 18.701873106453135 $572 $715 forward 7 unknown #
vertex $-1 $657 $716 #
straight-curve $-1 -95.821146753000733 -24.785143179089026 8.6747038644193708 1 0 0 I I #
coedge $-1 $575 $587 $577 $664 reversed $584 $-1 #
vertex $-1 $576 $717 #
straight-curve $-1 0 -33.197545201633858 8.6747038644193672 1 0 0 I I #
coedge $-1 $578 $577 $586 $667 reversed $579 $-1 #
edge $-1 $580 -8.6747038644193672 $670 8.6747038644193672 $577 $718 forward 7 unknown #
point $-1 71.579332865382852 -33.197545201633858 8.6747038644193672 #
straight-curve $-1 71.579332865382852 33.197545201633858 0 0 0 -1 I I #
edge $-1 $593 -33.197545201633858 $670 33.197545201633858 $663 $719 forward 7 unknown #
edge $-1 $661 13.18285918920887 $589 17.30427684086883 $588 $720 forward 7 unknown #
point $-1 -71.579332865382852 -33.197545201633858 5.2181921487722542 #
vertex $-1 $664 $721 #
straight-curve $-1 0 -33.197545201633858 -8.6747038644193672 -1 0 0 I I #
point $-1 71.579332865382852 33.197545201633858 -8.6747038644193672 #
plane-surface $-1 71.579332865382852 0 0 -1 0 0 0 0 1 forward_v I I I I #
loop $-1 $722 $603 $597 #
plane-surface $-1 -71.579332865382867 -28.991344190361442 5.218192148772232 -0.83867057594974714 0 0.54463902268945019 0.54463902268945019 0 0.83867057594974714 forward_v I I I I #
coedge $-1 $723 $724 $605 $682 reversed $598 $-1 #
coedge $-1 $677 $677 $-1 $725 forward $600 $-1 #
edge $-1 $726 0 $726 6.2831853071796004 $601 $727 forward 7 unknown #
vertex $-1 $604 $728 #
ellipse-curve $-1 -70.45699042443529 -28.991344190361442 6.946448006595805 0.83867057594974714 0 -0.54463902268945019 0.54463902268945019 0 0.83867057594974714 1 I I #
coedge $-1 $605 $619 $729 $730 forward $329 $-1 #
edge $-1 $731 -36.375801822178822 $684 -32.919290106531705 $605 $732 forward 7 unknown #
coedge $-1 $733 $606 $724 $734 forward $430 $-1 #
vertex $-1 $734 $735 #
point $-1 -69.334647983487727 -2.6645352591003757e-015 8.6747038644193672 #
coedge $-1 $614 $733 $736 $737 forward $430 $-1 #
coedge $-1 $738 $739 $614 $688 reversed $740 $-1 #
edge $-1 $741 -33.197545201633858 $690 33.197545201633858 $687 $742 forward 7 unknown #
coedge $-1 $622 $615 $739 $743 forward $623 $-1 #
vertex $-1 $688 $744 #
straight-curve $-1 0 33.197545201633858 8.6747038644193672 -1 0 0 I I #
face $-1 $702 $745 $19 $-1 $746 reversed single #
loop $-1 $-1 $747 $617 #
plane-surface $-1 0 0 -8.6747038644193672 0 0 1 1 0 0 forward_v I I I I #
coedge $-1 $748 $749 $619 $696 forward $745 $-1 #
edge $-1 $750 -5.2181921487722542 $699 8.6747038644193672 $619 $751 forward 7 unknown #
coedge $-1 $747 $620 $622 $701 forward $693 $-1 #
coedge $-1 $620 $747 $748 $752 forward $693 $-1 #
vertex $-1 $621 $753 #
straight-curve $-1 -71.579332865382852 0 -8.6747038644193672 0 1 0 I I #
edge $-1 $624 -71.579332865382852 $754 71.579332865382852 $622 $755 forward 7 unknown #
face $-1 $756 $623 $19 $-1 $757 reversed single #
point $-1 -71.579332865382852 33.197545201633858 -8.6747038644193672 #
edge $-1 $646 -8.6747038644193672 $635 8.6747038644193672 $633 $758 forward 7 unknown #
straight-curve $-1 0 -33.197545201633858 -8.6747038644193672 -1 0 0 I I #
straight-curve $-1 0 33.197545201633858 -8.6747038644193672 1 0 0 I I #
edge $-1 $644 -8.6747038644193672 $636 8.6747038644193672 $634 $759 forward 7 unknown #
point $-1 71.579332865382852 33.197545201633858 -8.6747038644193672 #
point $-1 71.579332865382852 -33.197545201633858 -8.6747038644193672 #
straight-curve $-1 71.579332865382852 0 8.6747038644193672 0 1 0 I I #
point $-1 71.579332865382852 -33.197545201633858 8.6747038644193672 #
point $-1 71.579332865382852 33.197545201633858 8.6747038644193672 #
straight-curve $-1 -71.579332865382867 -24.785143179089026 5.218192148772232 0.54463902268945019 0 0.83867057594974714 I I #
point $-1 -68.154466390729439 -28.991344190361442 5.4511714636976736 #
straight-curve $-1 -69.334647983487727 -14.495672095180721 8.6747038644193672 0 -1 0 I I #
point $-1 -69.334647983487727 -24.785143179089026 8.6747038644193672 #
point $-1 -69.334647983487727 -33.197545201633858 8.6747038644193672 #
straight-curve $-1 71.579332865382852 -33.197545201633858 0 0 0 -1 I I #
straight-curve $-1 71.579332865382852 0 -8.6747038644193672 0 -1 0 I I #
straight-curve $-1 -62.15474843842437 -33.197545201633858 19.730779973297587 -0.54463902268945019 0 -0.83867057594974714 I I #
point $-1 71.579332865382852 -33.197545201633858 -8.6747038644193672 #
loop $-1 $-1 $729 $597 #
coedge $-1 $724 $676 $760 $761 forward $598 $-1 #
coedge $-1 $676 $723 $683 $734 reversed $598 $-1 #
edge $-1 $762 1 $762 0 $677 $-1 forward 7 unknown #
vertex $-1 $678 $763 #
ellipse-curve $-1 -68.993136966679188 -28.991344190361442 5.995810486387124 -0.83867057594974714 0 0.54463902268945019 0.54463902268945019 0 0.83867057594974714 1 I I #
point $-1 -69.912351401745823 -28.991344190361442 7.7851185825455484 #
coedge $-1 $764 $760 $681 $730 reversed $722 $-1 #
edge $-1 $750 -18.701873106453135 $731 -10.289471083908305 $681 $765 forward 7 unknown #
vertex $-1 $730 $766 #
straight-curve $-1 -71.579332865382852 -24.785143179089026 41.593993970951075 0 0 1 I I #
coedge $-1 $686 $683 $767 $768 forward $430 $-1 #
edge $-1 $684 24.24181388761788 $769 26.486498769513005 $683 $770 forward 7 unknown #
point $-1 -71.579332865382852 -24.785143179089026 8.6747038644193672 #
coedge $-1 $749 $771 $686 $737 reversed $745 $-1 #
edge $-1 $772 -69.334647983487727 $741 71.579332865382852 $736 $773 forward 7 unknown #
coedge $-1 $774 $687 $771 $775 forward $740 $-1 #
coedge $-1 $687 $774 $689 $743 reversed $740 $-1 #
loop $-1 $-1 $738 $756 #
vertex $-1 $688 $776 #
straight-curve $-1 71.579332865382852 0 8.6747038644193672 0 1 0 I I #
edge $-1 $690 -8.6747038644193672 $754 8.6747038644193672 $739 $777 forward 7 unknown #
point $-1 71.579332865382852 33.197545201633858 8.6747038644193672 #
loop $-1 $-1 $749 $692 #
plane-surface $-1 0 -33.197545201633858 0 0 1 0 0 0 1 forward_v I I I I #
coedge $-1 $698 $697 $774 $778 forward $693 $-1 #
coedge $-1 $771 $695 $698 $752 reversed $745 $-1 #
coedge $-1 $695 $736 $764 $779 forward $745 $-1 #
vertex $-1 $696 $780 #
straight-curve $-1 -71.579332865382852 -33.197545201633858 0 0 0 -1 I I #
edge $-1 $781 -71.579332865382852 $699 71.579332865382852 $748 $782 forward 7 unknown #
point $-1 -71.579332865382852 -33.197545201633858 -8.6747038644193672 #
vertex $-1 $778 $783 #
straight-curve $-1 0 33.197545201633858 -8.6747038644193672 1 0 0 I I #
face $-1 $-1 $740 $19 $-1 $784 reversed single #
plane-surface $-1 0 33.197545201633858 0 0 -1 0 0 0 -1 forward_v I I I I #
straight-curve $-1 71.579332865382852 33.197545201633858 0 0 0 -1 I I #
straight-curve $-1 71.579332865382852 -33.197545201633858 0 0 0 -1 I I #
coedge $-1 $729 $767 $723 $761 reversed $722 $-1 #
edge $-1 $731 2.636201369357039e-014 $769 4.1214176516599839 $723 $785 forward 7 unknown #
vertex $-1 $725 $786 #
point $-1 -68.448497943989736 -28.991344190361442 6.834481062336871 #
coedge $-1 $767 $729 $749 $779 reversed $722 $-1 #
straight-curve $-1 -71.579332865382852 -14.495672095180721 5.218192148772256 0 1 0 I I #
point $-1 -71.579332865382852 -24.785143179089026 5.2181921487722542 #
coedge $-1 $760 $764 $733 $768 reversed $722 $-1 #
edge $-1 $769 10.289471083908305 $772 18.701873106453135 $733 $787 forward 7 unknown #
vertex $-1 $768 $788 #
straight-curve $-1 -95.821146753000733 -24.785143179089026 8.6747038644193708 1 0 0 I I #
coedge $-1 $736 $748 $738 $775 reversed $745 $-1 #
vertex $-1 $737 $789 #
straight-curve $-1 0 -33.197545201633858 8.6747038644193672 1 0 0 I I #
coedge $-1 $739 $738 $747 $778 reversed $740 $-1 #
edge $-1 $741 -8.6747038644193672 $781 8.6747038644193672 $738 $790 forward 7 unknown #
point $-1 71.579332865382852 -33.197545201633858 8.6747038644193672 #
straight-curve $-1 71.579332865382852 33.197545201633858 0 0 0 -1 I I #
edge $-1 $754 -33.197545201633858 $781 33.197545201633858 $774 $791 forward 7 unknown #
edge $-1 $772 13.18285918920887 $750 17.30427684086883 $749 $792 forward 7 unknown #
point $-1 -71.579332865382852 -33.197545201633858 5.2181921487722542 #
vertex $-1 $775 $793 #
straight-curve $-1 0 -33.197545201633858 -8.6747038644193672 -1 0 0 I I #
point $-1 71.579332865382852 33.197545201633858 -8.6747038644193672 #
plane-surface $-1 71.579332865382852 0 0 -1 0 0 0 0 1 forward_v I I I I #
straight-curve $-1 -71.579332865382867 -24.785143179089026 5.218192148772232 0.54463902268945019 0 0.83867057594974714 I I #
point $-1 -68.154466390729439 -28.991344190361442 5.4511714636976736 #
straight-curve $-1 -69.334647983487727 -14.495672095180721 8.6747038644193672 0 -1 0 I I #
point $-1 -69.334647983487727 -24.785143179089026 8.6747038644193672 #
point $-1 -69.334647983487727 -33.197545201633858 8.6747038644193672 #
straight-curve $-1 71.579332865382852 -33.197545201633858 0 0 0 -1 I I #
straight-curve $-1 71.579332865382852 0 -8.6747038644193672 0 -1 0 I I #
straight-curve $-1 -62.15474843842437 -33.197545201633858 19.730779973297587 -0.54463902268945019 0 -0.83867057594974714 I I #
point $-1 71.579332865382852 -33.197545201633858 -8.6747038644193672 #
End-of-ACIS-data 