500 0 3 0           
7 Unknown 11 ACIS 5.0 NT 24 Thu Mar 25 16:36:18 1999 
-1 9.9999999999999995e-007 1e-010 
body $-1 $3 $-1 $4 #
body $-1 $5 $-1 $6 #
body $-1 $7 $-1 $8 #
lump $-1 $-1 $9 $0 #
transform $-1 1 0 0 0 1 0 0 0 1 51.06845301675466 32.162667643673743 14.679081952707799 1 rotate no_reflect no_shear #
lump $-1 $-1 $10 $1 #
transform $-1 1 0 0 0 1 0 0 0 1 51.06845301675466 32.162667643673743 14.679081952707799 1 rotate no_reflect no_shear #
lump $-1 $-1 $11 $2 #
transform $-1 1 0 0 0 1 0 0 0 1 51.06845301675466 32.162667643673743 14.679081952707799 1 rotate no_reflect no_shear #
shell $-1 $-1 $-1 $12 $-1 $3 #
shell $-1 $-1 $-1 $13 $-1 $5 #
shell $-1 $-1 $-1 $14 $-1 $7 #
face $-1 $15 $16 $9 $-1 $17 forward single #
face $-1 $18 $19 $10 $-1 $20 reversed single #
face $-1 $21 $22 $11 $-1 $23 forward single #
face $-1 $24 $25 $9 $-1 $26 reversed single #
loop $-1 $-1 $27 $12 #
plane-surface $-1 0 0 14.679081952707799 0 0 1 1 0 0 forward_v I I I I #
face $-1 $28 $29 $10 $-1 $30 reversed single #
loop $-1 $-1 $31 $13 #
plane-surface $-1 38.849242062381052 84.692443630847492 119.80903828348426 1 0 0 0 -0.84804810408105047 -0.52991925155115449 forward_v I I I I #
face $-1 $32 $33 $11 $-1 $34 forward single #
loop $-1 $35 $36 $14 #
cone-surface $-1 44.958847539567856 30.584371908410859 12.612344552140096 0 -0.84804810408105047 -0.52991925155115449 1 0 0 1 I I 0 1 1 forward I I I I #
face $-1 $37 $38 $9 $-1 $39 reversed single #
loop $-1 $-1 $40 $15 #
plane-surface $-1 0 0 -14.679081952707799 0 0 1 1 0 0 forward_v I I I I #
coedge $-1 $41 $42 $43 $44 forward $16 $-1 #
face $-1 $45 $46 $10 $-1 $47 forward single #
loop $-1 $-1 $48 $18 #
plane-surface $-1 44.958847539567856 -1.924565887574488 65.6847254824564 0 0.84804810408105047 0.52991925155115449 1 0 0 forward_v I I I I #
coedge $-1 $49 $50 $51 $52 reversed $19 $-1 #
face $-1 $-1 $53 $11 $-1 $54 forward single #
loop $-1 $55 $56 $21 #
cone-surface $-1 44.958847539567856 29.689737708948911 12.053315078328984 0 -0.84804810408105047 -0.52991925155115449 0.5 0 0 1 I I -0.70710678118654746 0.70710678118654746 0.5 forward I I I I #
loop $-1 $-1 $57 $14 #
coedge $-1 $36 $36 $58 $59 reversed $22 $-1 #
face $-1 $60 $61 $9 $-1 $62 reversed single #
loop $-1 $-1 $63 $24 #
plane-surface $-1 0 -32.162667643673743 0 0 1 0 0 0 1 forward_v I I I I #
coedge $-1 $64 $65 $66 $67 forward $25 $-1 #
coedge $-1 $68 $27 $69 $70 forward $16 $-1 #
coedge $-1 $27 $68 $71 $72 forward $16 $-1 #
coedge $-1 $73 $74 $27 $44 reversed $75 $-1 #
edge $-1 $76 -32.162667643673743 $77 32.162667643673743 $43 $78 forward 7 unknown #
face $-1 $79 $80 $10 $-1 $81 reversed single #
loop $-1 $-1 $51 $28 #
plane-surface $-1 0 0 14.679081952707799 0 0 1 1 0 0 forward_v I I I I #
coedge $-1 $82 $83 $84 $85 reversed $29 $-1 #
coedge $-1 $50 $31 $86 $87 reversed $19 $-1 #
coedge $-1 $31 $49 $82 $88 reversed $19 $-1 #
coedge $-1 $84 $89 $31 $52 forward $46 $-1 #
edge $-1 $90 10.183554171750004 $91 12.398925347432925 $51 $92 forward 7 unknown #
loop $-1 $-1 $58 $32 #
plane-surface $-1 44.958847539567856 -1.924565887574488 65.6847254824564 0 0.84804810408105047 0.52991925155115449 1 0 0 forward_v I I I I #
loop $-1 $-1 $93 $21 #
coedge $-1 $56 $56 $57 $94 reversed $33 $-1 #
coedge $-1 $57 $57 $56 $94 forward $35 $-1 #
coedge $-1 $58 $58 $36 $59 forward $53 $-1 #
edge $-1 $95 -7.5243064764144144e-016 $95 6.2831853071795996 $58 $96 forward 7 unknown #
face $-1 $97 $98 $9 $-1 $99 reversed single #
loop $-1 $-1 $100 $37 #
plane-surface $-1 -51.06845301675466 0 0 1 0 0 0 0 -1 forward_v I I I I #
coedge $-1 $101 $71 $102 $103 forward $38 $-1 #
coedge $-1 $104 $40 $101 $105 forward $25 $-1 #
coedge $-1 $40 $104 $106 $107 forward $25 $-1 #
coedge $-1 $74 $73 $40 $67 reversed $75 $-1 #
edge $-1 $108 -32.162667643673743 $109 32.162667643673743 $66 $110 forward 7 unknown #
coedge $-1 $42 $41 $111 $112 forward $16 $-1 #
coedge $-1 $113 $114 $41 $70 reversed $98 $-1 #
edge $-1 $77 -51.06845301675466 $115 51.06845301675466 $69 $116 forward 7 unknown #
coedge $-1 $63 $117 $42 $72 reversed $38 $-1 #
edge $-1 $118 -51.06845301675466 $76 51.06845301675466 $71 $119 forward 7 unknown #
coedge $-1 $66 $43 $117 $120 forward $75 $-1 #
coedge $-1 $43 $66 $113 $121 reversed $75 $-1 #
loop $-1 $-1 $73 $97 #
vertex $-1 $44 $122 #
vertex $-1 $44 $123 #
straight-curve $-1 51.06845301675466 0 14.679081952707799 0 1 0 I I #
face $-1 $-1 $124 $10 $-1 $125 reversed single #
loop $-1 $-1 $86 $45 #
plane-surface $-1 0 32.162667643673743 0 0 -1 0 0 0 -1 forward_v I I I I #
coedge $-1 $126 $48 $50 $88 forward $29 $-1 #
coedge $-1 $48 $126 $127 $128 reversed $29 $-1 #
coedge $-1 $129 $51 $48 $85 forward $46 $-1 #
edge $-1 $91 16.369818292597124 $130 28.589029246970732 $84 $131 forward 7 unknown #
coedge $-1 $132 $133 $49 $87 forward $80 $-1 #
edge $-1 $134 -48.770772294098634 $90 -45.225437189034331 $86 $135 forward 7 unknown #
edge $-1 $91 60.144752737839788 $134 64.325335287347457 $50 $136 forward 7 unknown #
coedge $-1 $51 $129 $132 $137 forward $46 $-1 #
vertex $-1 $87 $138 #
vertex $-1 $52 $139 #
straight-curve $-1 38.849242062381052 42.346221815423746 14.679081952707797 0 -1 0 I I #
coedge $-1 $93 $93 $-1 $140 reversed $55 $-1 #
edge $-1 $141 0 $141 6.2831853071796004 $56 $142 forward 7 unknown #
vertex $-1 $59 $143 #
ellipse-curve $-1 44.958847539567856 31.054982055832291 12.906414400175636 0 0.84804810408105047 0.52991925155115449 1 0 0 1 I I #
face $-1 $-1 $75 $9 $-1 $144 reversed single #
loop $-1 $-1 $113 $60 #
plane-surface $-1 0 32.162667643673743 0 0 -1 0 0 0 -1 forward_v I I I I #
coedge $-1 $145 $111 $114 $146 forward $61 $-1 #
coedge $-1 $117 $63 $64 $105 reversed $38 $-1 #
coedge $-1 $111 $145 $63 $103 reversed $61 $-1 #
edge $-1 $118 -14.679081952707799 $147 14.679081952707799 $102 $148 forward 7 unknown #
coedge $-1 $65 $64 $145 $149 forward $25 $-1 #
edge $-1 $109 -51.06845301675466 $147 51.06845301675466 $101 $150 forward 7 unknown #
coedge $-1 $114 $113 $65 $107 reversed $98 $-1 #
edge $-1 $151 -51.06845301675466 $108 51.06845301675466 $106 $152 forward 7 unknown #
vertex $-1 $67 $153 #
vertex $-1 $120 $154 #
straight-curve $-1 51.06845301675466 0 -14.679081952707799 0 -1 0 I I #
coedge $-1 $100 $102 $68 $112 reversed $61 $-1 #
edge $-1 $115 -32.162667643673743 $118 32.162667643673743 $111 $155 forward 7 unknown #
coedge $-1 $106 $69 $74 $121 forward $98 $-1 #
coedge $-1 $69 $106 $100 $146 reversed $98 $-1 #
vertex $-1 $70 $156 #
straight-curve $-1 0 32.162667643673743 14.679081952707799 -1 0 0 I I #
coedge $-1 $71 $101 $73 $120 reversed $38 $-1 #
vertex $-1 $112 $157 #
straight-curve $-1 0 -32.162667643673743 14.679081952707799 1 0 0 I I #
edge $-1 $76 -14.679081952707799 $109 14.679081952707799 $73 $158 forward 7 unknown #
edge $-1 $77 -14.679081952707799 $108 14.679081952707799 $74 $159 forward 7 unknown #
point $-1 51.06845301675466 -32.162667643673743 14.679081952707799 #
point $-1 51.06845301675466 32.162667643673743 14.679081952707799 #
loop $-1 $-1 $127 $79 #
plane-surface $-1 51.06845301675466 0 0 -1 0 0 0 0 1 forward_v I I I I #
coedge $-1 $83 $82 $133 $160 reversed $29 $-1 #
coedge $-1 $161 $162 $83 $128 forward $124 $-1 #
edge $-1 $130 31.782917024246903 $163 35.963499573754568 $127 $164 forward 7 unknown #
coedge $-1 $89 $84 $162 $165 forward $46 $-1 #
vertex $-1 $165 $166 #
straight-curve $-1 22.479423769783928 29.947296467990828 14.679081952707797 1 0 0 I I #
coedge $-1 $167 $86 $89 $137 reversed $80 $-1 #
coedge $-1 $86 $167 $126 $160 forward $80 $-1 #
vertex $-1 $87 $168 #
straight-curve $-1 38.849242062381052 32.162667643673743 59.904519141742128 0 0 1 I I #
straight-curve $-1 38.849242062381052 -1.924565887574488 65.6847254824564 0 0.52991925155115449 -0.84804810408105047 I I #
edge $-1 $169 -51.06845301675466 $90 -38.849242062381052 $132 $170 forward 7 unknown #
point $-1 38.849242062381052 32.162667643673743 14.679081952707799 #
point $-1 38.849242062381052 29.947296467990821 14.679081952707797 #
edge $-1 $171 1 $171 0 $93 $-1 forward 7 unknown #
vertex $-1 $94 $172 #
ellipse-curve $-1 44.958847539567856 30.113761760989437 12.31827470410456 0 0.84804810408105047 0.52991925155115449 1 0 0 1 I I #
point $-1 45.958847539567856 31.054982055832284 12.906414400175633 #
plane-surface $-1 51.06845301675466 0 0 -1 0 0 0 0 1 forward_v I I I I #
coedge $-1 $102 $100 $104 $149 reversed $61 $-1 #
edge $-1 $115 -14.679081952707799 $151 14.679081952707799 $114 $173 forward 7 unknown #
vertex $-1 $149 $174 #
straight-curve $-1 -51.06845301675466 -32.162667643673743 0 0 0 -1 I I #
edge $-1 $147 -32.162667643673743 $151 32.162667643673743 $145 $175 forward 7 unknown #
straight-curve $-1 0 -32.162667643673743 -14.679081952707799 -1 0 0 I I #
vertex $-1 $107 $176 #
straight-curve $-1 0 32.162667643673743 -14.679081952707799 1 0 0 I I #
point $-1 51.06845301675466 32.162667643673743 -14.679081952707799 #
point $-1 51.06845301675466 -32.162667643673743 -14.679081952707799 #
straight-curve $-1 -51.06845301675466 0 14.679081952707799 0 -1 0 I I #
point $-1 -51.06845301675466 32.162667643673743 14.679081952707799 #
point $-1 -51.06845301675466 -32.162667643673743 14.679081952707799 #
straight-curve $-1 51.06845301675466 -32.162667643673743 0 0 0 -1 I I #
straight-curve $-1 51.06845301675466 32.162667643673743 0 0 0 -1 I I #
edge $-1 $163 -28.589029246970732 $134 -16.369818292597124 $133 $177 forward 7 unknown #
coedge $-1 $162 $127 $167 $178 reversed $124 $-1 #
coedge $-1 $127 $161 $129 $165 reversed $124 $-1 #
vertex $-1 $128 $179 #
straight-curve $-1 51.06845301675466 13.104916866389459 41.632524477285727 0 0.52991925155115449 -0.84804810408105047 I I #
edge $-1 $130 29.947296467990821 $169 32.162667643673743 $162 $180 forward 7 unknown #
point $-1 51.06845301675466 29.947296467990821 14.679081952707797 #
coedge $-1 $133 $132 $161 $178 forward $80 $-1 #
point $-1 38.849242062381052 32.162667643673743 11.133746847643494 #
vertex $-1 $165 $181 #
straight-curve $-1 0 32.162667643673743 14.679081952707799 -1 0 0 I I #
vertex $-1 $140 $182 #
point $-1 45.958847539567856 30.113761760989437 12.31827470410456 #
straight-curve $-1 -51.06845301675466 32.162667643673743 0 0 0 -1 I I #
point $-1 -51.06845301675466 -32.162667643673743 -14.679081952707799 #
straight-curve $-1 -51.06845301675466 0 -14.679081952707799 0 1 0 I I #
point $-1 -51.06845301675466 32.162667643673743 -14.679081952707799 #
straight-curve $-1 22.479423769783928 32.162667643673743 11.133746847643504 -1 0 0 I I #
edge $-1 $169 -14.679081952707799 $163 -11.133746847643494 $161 $183 forward 7 unknown #
point $-1 51.06845301675466 32.162667643673743 11.133746847643494 #
straight-curve $-1 51.06845301675466 0 14.679081952707799 0 1 0 I I #
point $-1 51.06845301675466 32.162667643673743 14.679081952707799 #
point $-1 44.958847539567856 29.265713656908385 11.788355452553407 #
straight-curve $-1 51.06845301675466 32.162667643673743 0 0 0 -1 I I #
End-of-ACIS-data 