500 0 10 0           
7 Unknown 11 ACIS 5.0 NT 24 Thu Mar 25 22:51:17 1999 
-1 9.9999999999999995e-007 1e-010 
body $-1 $10 $-1 $11 #
body $-1 $12 $-1 $13 #
body $-1 $14 $-1 $15 #
body $-1 $16 $-1 $17 #
body $-1 $18 $-1 $19 #
body $-1 $20 $-1 $21 #
body $-1 $22 $-1 $23 #
body $-1 $24 $-1 $25 #
body $-1 $26 $-1 $27 #
body $-1 $28 $-1 $29 #
lump $-1 $-1 $30 $0 #
transform $-1 1 0 0 0 1 0 0 0 1 55.594958342234563 26.317130004162731 9.7783072717880923 1 rotate no_reflect no_shear #
lump $-1 $-1 $31 $1 #
transform $-1 1 0 0 0 1 0 0 0 1 55.594958342234563 26.317130004162731 9.7783072717880923 1 rotate no_reflect no_shear #
lump $-1 $-1 $32 $2 #
transform $-1 1 0 0 0 1 0 0 0 1 55.594958342234563 26.317130004162731 9.7783072717880923 1 rotate no_reflect no_shear #
lump $-1 $-1 $33 $3 #
transform $-1 1 0 0 0 1 0 0 0 1 55.594958342234563 26.317130004162731 9.7783072717880923 1 rotate no_reflect no_shear #
lump $-1 $-1 $34 $4 #
transform $-1 1 0 0 0 1 0 0 0 1 55.594958342234563 26.317130004162731 9.7783072717880923 1 rotate no_reflect no_shear #
lump $-1 $-1 $35 $5 #
transform $-1 1 0 0 0 1 0 0 0 1 55.594958342234563 26.317130004162731 9.7783072717880923 1 rotate no_reflect no_shear #
lump $-1 $-1 $36 $6 #
transform $-1 1 0 0 0 1 0 0 0 1 55.594958342234563 26.317130004162731 9.7783072717880923 1 rotate no_reflect no_shear #
lump $-1 $-1 $37 $7 #
transform $-1 1 0 0 0 1 0 0 0 1 55.594958342234563 26.317130004162731 9.7783072717880923 1 rotate no_reflect no_shear #
lump $-1 $-1 $38 $8 #
transform $-1 1 0 0 0 1 0 0 0 1 55.594958342234563 26.317130004162731 9.7783072717880923 1 rotate no_reflect no_shear #
lump $-1 $-1 $39 $9 #
transform $-1 1 0 0 0 1 0 0 0 1 55.594958342234563 26.317130004162731 9.7783072717880923 1 rotate no_reflect no_shear #
shell $-1 $-1 $-1 $40 $-1 $10 #
shell $-1 $-1 $-1 $41 $-1 $12 #
shell $-1 $-1 $-1 $42 $-1 $14 #
shell $-1 $-1 $-1 $43 $-1 $16 #
shell $-1 $-1 $-1 $44 $-1 $18 #
shell $-1 $-1 $-1 $45 $-1 $20 #
shell $-1 $-1 $-1 $46 $-1 $22 #
shell $-1 $-1 $-1 $47 $-1 $24 #
shell $-1 $-1 $-1 $48 $-1 $26 #
shell $-1 $-1 $-1 $49 $-1 $28 #
face $-1 $50 $51 $30 $-1 $52 forward single #
face $-1 $53 $54 $31 $-1 $55 forward single #
face $-1 $56 $57 $32 $-1 $58 reversed single #
face $-1 $59 $60 $33 $-1 $61 forward single #
face $-1 $62 $63 $34 $-1 $64 forward single #
face $-1 $65 $66 $35 $-1 $67 forward single #
face $-1 $68 $69 $36 $-1 $70 reversed single #
face $-1 $71 $72 $37 $-1 $73 forward single #
face $-1 $74 $75 $38 $-1 $76 forward single #
face $-1 $77 $78 $39 $-1 $79 forward single #
face $-1 $80 $81 $30 $-1 $82 reversed single #
loop $-1 $-1 $83 $40 #
plane-surface $-1 0 0 9.7783072717880923 0 0 1 1 0 0 forward_v I I I I #
face $-1 $84 $85 $31 $-1 $86 reversed single #
loop $-1 $-1 $87 $41 #
plane-surface $-1 0 -26.317130004162731 0 0 1 0 0 0 1 forward_v I I I I #
face $-1 $88 $89 $32 $-1 $90 reversed single #
loop $-1 $-1 $91 $42 #
plane-surface $-1 -112.86199974260009 -0.69785950200339997 98.840353405749241 0 1 0 -0.51503808176128008 0 0.85716729658548041 forward_v I I I I #
face $-1 $92 $93 $33 $-1 $94 forward single #
loop $-1 $95 $96 $43 #
cone-surface $-1 -49.946562635138356 0.95129602209077291 5.9052432559344243 0.51503808176128008 0 -0.85716729658548041 0.4285836482927402 0 0.25751904088064004 1 I I 0 1 0.5 forward I I I I #
face $-1 $97 $98 $34 $-1 $99 forward single #
loop $-1 $100 $101 $44 #
cone-surface $-1 -49.946562635138356 3.425029308232034 5.9052432559344243 0.51503808176128008 0 -0.85716729658548041 0.4285836482927402 0 0.25751904088064004 1 I I 0 1 0.5 forward I I I I #
face $-1 $102 $103 $35 $-1 $104 forward single #
loop $-1 $105 $106 $45 #
cone-surface $-1 -49.946562635138356 5.8987625943732986 5.9052432559344243 0.51503808176128008 0 -0.85716729658548041 0.4285836482927402 0 0.25751904088064004 1 I I 0 1 0.5 forward I I I I #
face $-1 $107 $108 $36 $-1 $109 reversed single #
loop $-1 $-1 $110 $46 #
plane-surface $-1 17.55363945060887 7.547918118467468 156.10739480611477 0 -1 0 -0.51503808176128008 0 -0.85716729658548041 forward_v I I I I #
face $-1 $111 $112 $37 $-1 $113 forward single #
loop $-1 $114 $115 $47 #
cone-surface $-1 49.946562635138349 0.95129602209077291 5.9052432559344243 -0.51503808176128008 0 -0.85716729658548041 0.4285836482927402 0 -0.25751904088064004 1 I I 0 1 0.5 forward I I I I #
face $-1 $116 $117 $38 $-1 $118 forward single #
loop $-1 $119 $120 $48 #
cone-surface $-1 49.946562635138349 3.425029308232034 5.9052432559344243 -0.51503808176128008 0 -0.85716729658548041 0.4285836482927402 0 -0.25751904088064004 1 I I 0 1 0.5 forward I I I I #
face $-1 $121 $122 $39 $-1 $123 forward single #
loop $-1 $124 $125 $49 #
cone-surface $-1 49.946562635138349 5.8987625943732986 5.9052432559344243 -0.51503808176128008 0 -0.85716729658548041 0.4285836482927402 0 -0.25751904088064004 1 I I 0 1 0.5 forward I I I I #
face $-1 $126 $127 $30 $-1 $128 reversed single #
loop $-1 $-1 $129 $50 #
plane-surface $-1 0 0 -9.7783072717880923 0 0 1 1 0 0 forward_v I I I I #
coedge $-1 $130 $131 $132 $133 forward $51 $-1 #
face $-1 $134 $135 $31 $-1 $136 reversed single #
loop $-1 $-1 $137 $53 #
plane-surface $-1 0 0 -9.7783072717880923 0 0 1 1 0 0 forward_v I I I I #
coedge $-1 $138 $139 $140 $141 forward $54 $-1 #
face $-1 $142 $143 $32 $-1 $144 reversed single #
loop $-1 $-1 $145 $56 #
plane-surface $-1 -55.594958342234563 3.425029308232034 3.531993113758034 -0.51503808176128008 0 0.85716729658548041 0.85716729658548041 0 0.51503808176128008 forward_v I I I I #
coedge $-1 $146 $147 $148 $149 reversed $57 $-1 #
face $-1 $-1 $150 $33 $-1 $151 forward single #
loop $-1 $152 $153 $59 #
cone-surface $-1 -49.3672135602582 0.95129602209077291 4.941044494949411 0.51503808176128008 0 -0.85716729658548041 0.2142918241463701 0 0.12875952044032002 1 I I -0.70710678118654746 0.70710678118654746 0.25 forward I I I I #
loop $-1 $-1 $154 $43 #
coedge $-1 $96 $96 $155 $156 reversed $60 $-1 #
face $-1 $-1 $157 $34 $-1 $158 forward single #
loop $-1 $159 $160 $62 #
cone-surface $-1 -49.3672135602582 3.425029308232034 4.941044494949411 0.51503808176128008 0 -0.85716729658548041 0.2142918241463701 0 0.12875952044032002 1 I I -0.70710678118654746 0.70710678118654746 0.25 forward I I I I #
loop $-1 $-1 $161 $44 #
coedge $-1 $101 $101 $162 $163 reversed $63 $-1 #
face $-1 $-1 $164 $35 $-1 $165 forward single #
loop $-1 $166 $167 $65 #
cone-surface $-1 -49.3672135602582 5.8987625943732986 4.941044494949411 0.51503808176128008 0 -0.85716729658548041 0.2142918241463701 0 0.12875952044032002 1 I I -0.70710678118654746 0.70710678118654746 0.25 forward I I I I #
loop $-1 $-1 $168 $45 #
coedge $-1 $106 $106 $169 $170 reversed $66 $-1 #
face $-1 $171 $172 $36 $-1 $173 reversed single #
loop $-1 $-1 $174 $68 #
plane-surface $-1 -39.713401949756658 3.425029308232034 60.799034514123562 0.51503808176128008 0 0.85716729658548041 0.85716729658548041 0 -0.51503808176128008 forward_v I I I I #
coedge $-1 $175 $176 $177 $178 reversed $69 $-1 #
face $-1 $-1 $179 $37 $-1 $180 forward single #
loop $-1 $181 $182 $71 #
cone-surface $-1 49.367213560258193 0.95129602209077291 4.941044494949411 -0.51503808176128008 0 -0.85716729658548041 0.2142918241463701 0 -0.12875952044032002 1 I I -0.70710678118654746 0.70710678118654746 0.25 forward I I I I #
loop $-1 $-1 $183 $47 #
coedge $-1 $115 $115 $184 $185 reversed $72 $-1 #
face $-1 $-1 $186 $38 $-1 $187 forward single #
loop $-1 $188 $189 $74 #
cone-surface $-1 49.367213560258193 3.425029308232034 4.941044494949411 -0.51503808176128008 0 -0.85716729658548041 0.2142918241463701 0 -0.12875952044032002 1 I I -0.70710678118654746 0.70710678118654746 0.25 forward I I I I #
loop $-1 $-1 $190 $48 #
coedge $-1 $120 $120 $191 $192 reversed $75 $-1 #
face $-1 $-1 $193 $39 $-1 $194 forward single #
loop $-1 $195 $196 $77 #
cone-surface $-1 49.367213560258193 5.8987625943732986 4.941044494949411 -0.51503808176128008 0 -0.85716729658548041 0.2142918241463701 0 -0.12875952044032002 1 I I -0.70710678118654746 0.70710678118654746 0.25 forward I I I I #
loop $-1 $-1 $197 $49 #
coedge $-1 $125 $125 $198 $199 reversed $78 $-1 #
face $-1 $200 $201 $30 $-1 $202 reversed single #
loop $-1 $-1 $203 $80 #
plane-surface $-1 0 -26.317130004162731 0 0 1 0 0 0 1 forward_v I I I I #
coedge $-1 $204 $205 $206 $207 forward $81 $-1 #
coedge $-1 $208 $83 $209 $210 forward $51 $-1 #
coedge $-1 $83 $208 $211 $212 forward $51 $-1 #
coedge $-1 $213 $214 $83 $133 reversed $215 $-1 #
edge $-1 $216 -26.317130004162731 $217 26.317130004162731 $132 $218 forward 7 unknown #
face $-1 $219 $220 $31 $-1 $221 reversed single #
loop $-1 $-1 $222 $84 #
plane-surface $-1 -39.749954791222066 -36.84112161216099 0 0 1 0 0 0 1 forward_v I I I I #
coedge $-1 $223 $224 $139 $225 forward $85 $-1 #
coedge $-1 $226 $87 $227 $228 reversed $54 $-1 #
coedge $-1 $87 $226 $137 $225 reversed $54 $-1 #
coedge $-1 $229 $230 $87 $141 reversed $220 $-1 #
edge $-1 $231 -9.7783072717880923 $232 9.7783072717880923 $140 $233 forward 7 unknown #
face $-1 $234 $235 $32 $-1 $236 reversed single #
loop $-1 $-1 $237 $88 #
plane-surface $-1 -112.86199974260009 7.547918118467468 98.840353405749241 0 -1 0 0.51503808176128008 0 -0.85716729658548041 forward_v I I I I #
coedge $-1 $238 $239 $240 $241 reversed $89 $-1 #
coedge $-1 $147 $91 $242 $243 reversed $57 $-1 #
coedge $-1 $91 $146 $238 $244 reversed $57 $-1 #
coedge $-1 $240 $245 $91 $149 forward $246 $-1 #
edge $-1 $247 0.83604152906548279 $248 11.231653834378228 $148 $249 forward 7 unknown #
loop $-1 $-1 $155 $92 #
plane-surface $-1 -55.594958342234563 3.425029308232034 3.531993113758034 -0.51503808176128008 0 0.85716729658548041 0.85716729658548041 0 0.51503808176128008 forward_v I I I I #
loop $-1 $-1 $250 $59 #
coedge $-1 $153 $153 $154 $251 reversed $93 $-1 #
coedge $-1 $154 $154 $153 $251 forward $95 $-1 #
coedge $-1 $155 $155 $96 $156 forward $150 $-1 #
edge $-1 $252 0 $252 6.2831853071796004 $155 $253 forward 7 unknown #
loop $-1 $-1 $162 $97 #
plane-surface $-1 -55.594958342234563 3.425029308232034 3.531993113758034 -0.51503808176128008 0 0.85716729658548041 0.85716729658548041 0 0.51503808176128008 forward_v I I I I #
loop $-1 $-1 $254 $62 #
coedge $-1 $160 $160 $161 $255 reversed $98 $-1 #
coedge $-1 $161 $161 $160 $255 forward $100 $-1 #
coedge $-1 $162 $162 $101 $163 forward $157 $-1 #
edge $-1 $256 0 $256 6.2831853071796004 $162 $257 forward 7 unknown #
loop $-1 $-1 $169 $102 #
plane-surface $-1 -55.594958342234563 3.425029308232034 3.531993113758034 -0.51503808176128008 0 0.85716729658548041 0.85716729658548041 0 0.51503808176128008 forward_v I I I I #
loop $-1 $-1 $258 $65 #
coedge $-1 $167 $167 $168 $259 reversed $103 $-1 #
coedge $-1 $168 $168 $167 $259 forward $105 $-1 #
coedge $-1 $169 $169 $106 $170 forward $164 $-1 #
edge $-1 $260 0 $260 6.2831853071796004 $169 $261 forward 7 unknown #
face $-1 $262 $263 $36 $-1 $264 forward single #
loop $-1 $-1 $265 $107 #
plane-surface $-1 17.55363945060887 -0.69785950200339997 156.10739480611477 0 1 0 0.51503808176128008 0 0.85716729658548041 forward_v I I I I #
coedge $-1 $266 $267 $268 $269 reversed $108 $-1 #
coedge $-1 $176 $110 $270 $271 reversed $69 $-1 #
coedge $-1 $110 $175 $266 $272 reversed $69 $-1 #
coedge $-1 $268 $273 $110 $178 forward $263 $-1 #
edge $-1 $274 -46.818138616930128 $275 -36.422526311617361 $177 $276 forward 7 unknown #
loop $-1 $-1 $184 $111 #
plane-surface $-1 -39.713401949756658 3.425029308232034 60.799034514123562 0.51503808176128008 0 0.85716729658548041 0.85716729658548041 0 -0.51503808176128008 forward_v I I I I #
loop $-1 $-1 $277 $71 #
coedge $-1 $182 $182 $183 $278 reversed $112 $-1 #
coedge $-1 $183 $183 $182 $278 forward $114 $-1 #
coedge $-1 $184 $184 $115 $185 forward $179 $-1 #
edge $-1 $279 0 $279 6.2831853071796004 $184 $280 forward 7 unknown #
loop $-1 $-1 $191 $116 #
plane-surface $-1 -39.713401949756658 3.425029308232034 60.799034514123562 0.51503808176128008 0 0.85716729658548041 0.85716729658548041 0 -0.51503808176128008 forward_v I I I I #
loop $-1 $-1 $281 $74 #
coedge $-1 $189 $189 $190 $282 reversed $117 $-1 #
coedge $-1 $190 $190 $189 $282 forward $119 $-1 #
coedge $-1 $191 $191 $120 $192 forward $186 $-1 #
edge $-1 $283 0 $283 6.2831853071796004 $191 $284 forward 7 unknown #
loop $-1 $-1 $198 $121 #
plane-surface $-1 -39.713401949756658 3.425029308232034 60.799034514123562 0.51503808176128008 0 0.85716729658548041 0.85716729658548041 0 -0.51503808176128008 forward_v I I I I #
loop $-1 $-1 $285 $77 #
coedge $-1 $196 $196 $197 $286 reversed $122 $-1 #
coedge $-1 $197 $197 $196 $286 forward $124 $-1 #
coedge $-1 $198 $198 $125 $199 forward $193 $-1 #
edge $-1 $287 0 $287 6.2831853071796004 $198 $288 forward 7 unknown #
face $-1 $289 $290 $30 $-1 $291 reversed single #
loop $-1 $-1 $292 $126 #
plane-surface $-1 -55.594958342234563 0 0 1 0 0 0 0 -1 forward_v I I I I #
coedge $-1 $293 $211 $294 $295 forward $127 $-1 #
coedge $-1 $296 $129 $293 $297 forward $81 $-1 #
coedge $-1 $129 $296 $298 $299 forward $81 $-1 #
coedge $-1 $214 $213 $129 $207 reversed $215 $-1 #
edge $-1 $300 -26.317130004162731 $301 26.317130004162731 $206 $302 forward 7 unknown #
coedge $-1 $131 $130 $303 $304 forward $51 $-1 #
coedge $-1 $305 $306 $130 $210 reversed $290 $-1 #
edge $-1 $217 -55.594958342234563 $307 55.594958342234563 $209 $308 forward 7 unknown #
coedge $-1 $203 $309 $131 $212 reversed $127 $-1 #
edge $-1 $310 -55.594958342234563 $216 55.594958342234563 $211 $311 forward 7 unknown #
coedge $-1 $206 $132 $309 $312 forward $215 $-1 #
coedge $-1 $132 $206 $305 $313 reversed $215 $-1 #
loop $-1 $-1 $213 $289 #
vertex $-1 $133 $314 #
vertex $-1 $133 $315 #
straight-curve $-1 55.594958342234563 0 9.7783072717880923 0 1 0 I I #
face $-1 $316 $317 $31 $-1 $318 reversed single #
loop $-1 $-1 $140 $134 #
plane-surface $-1 -41.298602076202208 -31.579125808161862 0 1 0 0 0 0 -1 forward_v I I I I #
coedge $-1 $319 $320 $321 $322 forward $135 $-1 #
coedge $-1 $323 $137 $324 $325 forward $85 $-1 #
coedge $-1 $137 $323 $229 $326 forward $85 $-1 #
edge $-1 $231 -41.298602076202208 $327 -38.201307506241925 $137 $328 forward 7 unknown #
coedge $-1 $139 $138 $329 $330 forward $54 $-1 #
coedge $-1 $331 $332 $138 $228 forward $333 $-1 #
edge $-1 $334 38.201307506241925 $232 41.298602076202208 $227 $335 forward 7 unknown #
coedge $-1 $321 $140 $224 $326 reversed $220 $-1 #
coedge $-1 $140 $321 $331 $336 reversed $220 $-1 #
vertex $-1 $225 $337 #
vertex $-1 $336 $338 #
straight-curve $-1 -41.298602076202208 -26.317130004162731 0 0 0 1 I I #
face $-1 $-1 $246 $32 $-1 $339 forward single #
loop $-1 $-1 $340 $142 #
plane-surface $-1 -55.594958342234563 0 0 1 0 0 0 0 -1 forward_v I I I I #
coedge $-1 $341 $342 $343 $344 reversed $143 $-1 #
coedge $-1 $345 $145 $147 $244 forward $89 $-1 #
coedge $-1 $145 $345 $341 $346 forward $89 $-1 #
coedge $-1 $343 $148 $145 $241 forward $246 $-1 #
edge $-1 $248 -2.410374156119417 $347 5.835403464351451 $240 $348 forward 7 unknown #
coedge $-1 $349 $350 $146 $243 forward $235 $-1 #
edge $-1 $351 -45.888183589116586 $247 -39.641869431086526 $242 $352 forward 7 unknown #
edge $-1 $248 -12.127868558125806 $351 0 $147 $353 forward 7 unknown #
coedge $-1 $148 $343 $349 $354 forward $246 $-1 #
loop $-1 $-1 $343 $234 #
vertex $-1 $243 $355 #
vertex $-1 $149 $356 #
straight-curve $-1 -56.430999871300045 -0.69785950200339997 9.7783072717880941 1 0 0 I I #
coedge $-1 $250 $250 $-1 $357 reversed $152 $-1 #
edge $-1 $358 0 $358 6.2831853071796004 $153 $359 forward 7 unknown #
vertex $-1 $156 $360 #
ellipse-curve $-1 -50.397152189578193 0.95129602209077291 6.6551501927730614 -0.51503808176128008 0 0.85716729658548041 0.4285836482927402 0 0.25751904088064004 1 I I #
coedge $-1 $254 $254 $-1 $361 reversed $159 $-1 #
edge $-1 $362 0 $362 6.2831853071796004 $160 $363 forward 7 unknown #
vertex $-1 $163 $364 #
ellipse-curve $-1 -50.397152189578193 3.425029308232034 6.6551501927730614 -0.51503808176128008 0 0.85716729658548041 0.4285836482927402 0 0.25751904088064004 1 I I #
coedge $-1 $258 $258 $-1 $365 reversed $166 $-1 #
edge $-1 $366 0 $366 6.2831853071796004 $167 $367 forward 7 unknown #
vertex $-1 $170 $368 #
ellipse-curve $-1 -50.397152189578193 5.8987625943732986 6.6551501927730614 -0.51503808176128008 0 0.85716729658548041 0.4285836482927402 0 0.25751904088064004 1 I I #
face $-1 $-1 $369 $36 $-1 $370 reversed single #
loop $-1 $-1 $177 $171 #
plane-surface $-1 0 0 9.7783072717880923 0 0 1 1 0 0 forward_v I I I I #
coedge $-1 $371 $372 $373 $374 reversed $172 $-1 #
coedge $-1 $375 $174 $176 $272 forward $108 $-1 #
coedge $-1 $174 $375 $371 $376 forward $108 $-1 #
coedge $-1 $373 $177 $174 $269 forward $263 $-1 #
edge $-1 $275 -5.835403464351451 $377 2.410374156119417 $268 $378 forward 7 unknown #
coedge $-1 $379 $380 $175 $271 forward $369 $-1 #
edge $-1 $381 -74.52170428929935 $274 -68.27539013126929 $270 $382 forward 7 unknown #
edge $-1 $275 99.062048126343313 $381 111.18991668446914 $176 $383 forward 7 unknown #
coedge $-1 $177 $373 $379 $384 forward $263 $-1 #
vertex $-1 $178 $385 #
vertex $-1 $178 $386 #
straight-curve $-1 8.7768197253044349 7.547918118467468 9.7783072717880941 -1 0 0 I I #
coedge $-1 $277 $277 $-1 $387 reversed $181 $-1 #
edge $-1 $388 0 $388 6.2831853071796004 $182 $389 forward 7 unknown #
vertex $-1 $185 $390 #
ellipse-curve $-1 50.397152189578179 0.95129602209077291 6.6551501927730587 0.51503808176128008 0 0.85716729658548041 0.4285836482927402 0 -0.25751904088064004 1 I I #
coedge $-1 $281 $281 $-1 $391 reversed $188 $-1 #
edge $-1 $392 0 $392 6.2831853071796004 $189 $393 forward 7 unknown #
vertex $-1 $192 $394 #
ellipse-curve $-1 50.397152189578179 3.425029308232034 6.6551501927730587 0.51503808176128008 0 0.85716729658548041 0.4285836482927402 0 -0.25751904088064004 1 I I #
coedge $-1 $285 $285 $-1 $395 reversed $195 $-1 #
edge $-1 $396 0 $396 6.2831853071796004 $196 $397 forward 7 unknown #
vertex $-1 $199 $398 #
ellipse-curve $-1 50.397152189578179 5.8987625943732986 6.6551501927730587 0.51503808176128008 0 0.85716729658548041 0.4285836482927402 0 -0.25751904088064004 1 I I #
face $-1 $-1 $215 $30 $-1 $399 reversed single #
loop $-1 $-1 $305 $200 #
plane-surface $-1 0 26.317130004162731 0 0 -1 0 0 0 -1 forward_v I I I I #
coedge $-1 $400 $303 $306 $401 forward $201 $-1 #
coedge $-1 $309 $203 $204 $297 reversed $127 $-1 #
coedge $-1 $303 $400 $203 $295 reversed $201 $-1 #
edge $-1 $310 -9.7783072717880923 $402 9.7783072717880923 $294 $403 forward 7 unknown #
coedge $-1 $205 $204 $400 $404 forward $81 $-1 #
edge $-1 $301 -55.594958342234563 $402 55.594958342234563 $293 $405 forward 7 unknown #
coedge $-1 $306 $305 $205 $299 reversed $290 $-1 #
edge $-1 $406 -55.594958342234563 $300 55.594958342234563 $298 $407 forward 7 unknown #
vertex $-1 $207 $408 #
vertex $-1 $312 $409 #
straight-curve $-1 55.594958342234563 0 -9.7783072717880923 0 -1 0 I I #
coedge $-1 $292 $294 $208 $304 reversed $201 $-1 #
edge $-1 $307 -26.317130004162731 $310 26.317130004162731 $303 $410 forward 7 unknown #
coedge $-1 $298 $209 $214 $313 forward $290 $-1 #
coedge $-1 $209 $298 $292 $401 reversed $290 $-1 #
vertex $-1 $210 $411 #
straight-curve $-1 0 26.317130004162731 9.7783072717880923 -1 0 0 I I #
coedge $-1 $211 $293 $213 $312 reversed $127 $-1 #
vertex $-1 $304 $412 #
straight-curve $-1 0 -26.317130004162731 9.7783072717880923 1 0 0 I I #
edge $-1 $216 -9.7783072717880923 $301 9.7783072717880923 $213 $413 forward 7 unknown #
edge $-1 $217 -9.7783072717880923 $300 9.7783072717880923 $214 $414 forward 7 unknown #
point $-1 55.594958342234563 -26.317130004162731 9.7783072717880923 #
point $-1 55.594958342234563 26.317130004162731 9.7783072717880923 #
face $-1 $-1 $333 $31 $-1 $415 forward single #
loop $-1 $-1 $416 $219 #
plane-surface $-1 -38.201307506241925 -31.579125808161862 0 -1 0 0 0 0 1 forward_v I I I I #
coedge $-1 $417 $222 $323 $418 reversed $135 $-1 #
coedge $-1 $222 $417 $419 $420 reversed $135 $-1 #
coedge $-1 $230 $229 $222 $322 reversed $220 $-1 #
edge $-1 $421 -9.7783072717880923 $422 9.7783072717880923 $321 $423 forward 7 unknown #
coedge $-1 $224 $223 $319 $418 forward $85 $-1 #
coedge $-1 $329 $416 $223 $325 reversed $317 $-1 #
edge $-1 $327 -5.261995803999131 $424 5.2619958039991275 $324 $425 forward 7 unknown #
edge $-1 $422 -5.2619958039991275 $231 5.261995803999131 $229 $426 forward 7 unknown #
vertex $-1 $325 $427 #
straight-curve $-1 0 -26.317130004162731 -9.7783072717880923 1 0 0 I I #
coedge $-1 $428 $324 $226 $330 reversed $317 $-1 #
edge $-1 $334 -9.7783072717880923 $327 9.7783072717880923 $329 $429 forward 7 unknown #
coedge $-1 $419 $227 $230 $336 forward $333 $-1 #
coedge $-1 $227 $419 $428 $430 forward $333 $-1 #
loop $-1 $-1 $227 $316 #
vertex $-1 $228 $431 #
straight-curve $-1 0 -26.317130004162731 9.7783072717880923 -1 0 0 I I #
edge $-1 $232 -5.261995803999131 $421 5.2619958039991275 $230 $432 forward 7 unknown #
point $-1 -41.298602076202208 -26.317130004162731 -9.7783072717880923 #
point $-1 -41.298602076202208 -26.317130004162731 9.7783072717880923 #
plane-surface $-1 0 0 9.7783072717880923 0 0 1 1 0 0 forward_v I I I I #
coedge $-1 $350 $349 $342 $433 forward $235 $-1 #
coedge $-1 $342 $237 $239 $346 reversed $143 $-1 #
coedge $-1 $237 $341 $340 $433 reversed $143 $-1 #
coedge $-1 $245 $240 $237 $344 forward $246 $-1 #
edge $-1 $347 -11.231653834378228 $434 -0.83604152906548279 $343 $435 forward 7 unknown #
coedge $-1 $239 $238 $350 $436 reversed $89 $-1 #
edge $-1 $437 0 $347 12.127868558125806 $341 $438 forward 7 unknown #
vertex $-1 $241 $439 #
straight-curve $-1 -45.199346036921817 1.712514654116017 9.7783072717880906 0 1 0 I I #
coedge $-1 $340 $242 $245 $354 reversed $235 $-1 #
coedge $-1 $242 $340 $345 $436 forward $235 $-1 #
vertex $-1 $243 $440 #
straight-curve $-1 -55.594958342234563 -0.69785950200339997 49.42017670287462 0 0 1 I I #
straight-curve $-1 -55.594958342234563 -0.69785950200339997 3.531993113758034 -0.85716729658548041 0 -0.51503808176128008 I I #
edge $-1 $434 -7.547918118467468 $247 0.69785950200339997 $349 $441 forward 7 unknown #
point $-1 -55.594958342234563 -0.69785950200339997 9.7783072717880923 #
point $-1 -45.199346036921817 -0.69785950200339997 9.7783072717880923 #
edge $-1 $442 1 $442 0 $250 $-1 forward 7 unknown #
vertex $-1 $251 $443 #
ellipse-curve $-1 -49.495973080698519 0.95129602209077291 5.1553363190957811 -0.51503808176128008 0 0.85716729658548041 0.4285836482927402 0 0.25751904088064004 1 I I #
point $-1 -49.968568541285457 0.95129602209077291 6.9126692336537072 #
edge $-1 $444 1 $444 0 $254 $-1 forward 7 unknown #
vertex $-1 $255 $445 #
ellipse-curve $-1 -49.495973080698519 3.425029308232034 5.1553363190957811 -0.51503808176128008 0 0.85716729658548041 0.4285836482927402 0 0.25751904088064004 1 I I #
point $-1 -49.968568541285457 3.425029308232034 6.9126692336537072 #
edge $-1 $446 1 $446 0 $258 $-1 forward 7 unknown #
vertex $-1 $259 $447 #
ellipse-curve $-1 -49.495973080698519 5.8987625943732986 5.1553363190957811 -0.51503808176128008 0 0.85716729658548041 0.4285836482927402 0 0.25751904088064004 1 I I #
point $-1 -49.968568541285457 5.8987625943732986 6.9126692336537072 #
loop $-1 $-1 $270 $262 #
plane-surface $-1 55.594958342234563 0 0 -1 0 0 0 0 1 forward_v I I I I #
coedge $-1 $372 $265 $267 $376 reversed $172 $-1 #
coedge $-1 $265 $371 $448 $449 reversed $172 $-1 #
coedge $-1 $273 $268 $265 $374 forward $263 $-1 #
edge $-1 $377 36.422526311617361 $450 46.818138616930128 $373 $451 forward 7 unknown #
coedge $-1 $267 $266 $380 $452 reversed $108 $-1 #
edge $-1 $453 -111.18991668446914 $377 -99.062048126343313 $371 $454 forward 7 unknown #
vertex $-1 $269 $455 #
straight-curve $-1 45.199346036921789 1.712514654116017 9.7783072717880941 0 -1 0 I I #
coedge $-1 $448 $270 $273 $384 reversed $369 $-1 #
coedge $-1 $270 $448 $375 $452 forward $369 $-1 #
vertex $-1 $271 $456 #
straight-curve $-1 55.594958342234563 7.547918118467468 78.053697403057384 0 0 1 I I #
straight-curve $-1 -39.713401949756658 7.547918118467468 60.799034514123562 0.85716729658548041 0 -0.51503808176128008 I I #
edge $-1 $450 -0.69785950200339997 $274 7.547918118467468 $379 $457 forward 7 unknown #
point $-1 55.594958342234563 7.547918118467468 9.7783072717880923 #
point $-1 45.199346036921796 7.547918118467468 9.7783072717880941 #
edge $-1 $458 1 $458 0 $277 $-1 forward 7 unknown #
vertex $-1 $278 $459 #
ellipse-curve $-1 49.495973080698512 0.95129602209077291 5.1553363190957811 0.51503808176128008 0 0.85716729658548041 0.4285836482927402 0 -0.25751904088064004 1 I I #
point $-1 50.82573583787093 0.95129602209077291 6.3976311518924271 #
edge $-1 $460 1 $460 0 $281 $-1 forward 7 unknown #
vertex $-1 $282 $461 #
ellipse-curve $-1 49.495973080698512 3.425029308232034 5.1553363190957811 0.51503808176128008 0 0.85716729658548041 0.4285836482927402 0 -0.25751904088064004 1 I I #
point $-1 50.82573583787093 3.425029308232034 6.3976311518924271 #
edge $-1 $462 1 $462 0 $285 $-1 forward 7 unknown #
vertex $-1 $286 $463 #
ellipse-curve $-1 49.495973080698512 5.8987625943732986 5.1553363190957811 0.51503808176128008 0 0.85716729658548041 0.4285836482927402 0 -0.25751904088064004 1 I I #
point $-1 50.82573583787093 5.8987625943732986 6.3976311518924271 #
plane-surface $-1 55.594958342234563 0 0 -1 0 0 0 0 1 forward_v I I I I #
coedge $-1 $294 $292 $296 $404 reversed $201 $-1 #
edge $-1 $307 -9.7783072717880923 $406 9.7783072717880923 $306 $464 forward 7 unknown #
vertex $-1 $404 $465 #
straight-curve $-1 -55.594958342234563 -26.317130004162731 0 0 0 -1 I I #
edge $-1 $402 -26.317130004162731 $406 26.317130004162731 $400 $466 forward 7 unknown #
straight-curve $-1 0 -26.317130004162731 -9.7783072717880923 -1 0 0 I I #
vertex $-1 $299 $467 #
straight-curve $-1 0 26.317130004162731 -9.7783072717880923 1 0 0 I I #
point $-1 55.594958342234563 26.317130004162731 -9.7783072717880923 #
point $-1 55.594958342234563 -26.317130004162731 -9.7783072717880923 #
straight-curve $-1 -55.594958342234563 0 9.7783072717880923 0 -1 0 I I #
point $-1 -55.594958342234563 26.317130004162731 9.7783072717880923 #
point $-1 -55.594958342234563 -26.317130004162731 9.7783072717880923 #
straight-curve $-1 55.594958342234563 -26.317130004162731 0 0 0 -1 I I #
straight-curve $-1 55.594958342234563 26.317130004162731 0 0 0 -1 I I #
plane-surface $-1 0 0 9.7783072717880923 0 0 1 1 0 0 forward_v I I I I #
coedge $-1 $324 $428 $417 $468 forward $317 $-1 #
coedge $-1 $320 $319 $416 $468 reversed $135 $-1 #
edge $-1 $424 -1.5486472849801416 $422 1.5486472849801416 $319 $469 forward 7 unknown #
coedge $-1 $332 $331 $320 $420 forward $333 $-1 #
edge $-1 $421 -1.5486472849801416 $470 1.5486472849801416 $320 $471 forward 7 unknown #
vertex $-1 $336 $472 #
vertex $-1 $326 $473 #
straight-curve $-1 -41.298602076202208 -36.84112161216099 0 0 0 -1 I I #
vertex $-1 $468 $474 #
straight-curve $-1 -38.201307506241925 -31.579125808161862 -9.7783072717880923 0 -1 0 I I #
straight-curve $-1 -41.298602076202208 -31.579125808161862 -9.7783072717880923 0 1 0 I I #
point $-1 -38.201307506241925 -26.317130004162731 -9.7783072717880923 #
coedge $-1 $416 $329 $332 $430 reversed $317 $-1 #
straight-curve $-1 -38.201307506241925 -26.317130004162731 0 0 0 -1 I I #
edge $-1 $470 -5.2619958039991275 $334 5.261995803999131 $428 $475 forward 7 unknown #
point $-1 -38.201307506241925 -26.317130004162731 9.7783072717880923 #
straight-curve $-1 -41.298602076202208 -31.579125808161862 9.7783072717880923 0 -1 0 I I #
edge $-1 $434 39.641869431086526 $437 45.888183589116586 $340 $476 forward 7 unknown #
vertex $-1 $354 $477 #
straight-curve $-1 -56.430999871300045 7.547918118467468 9.7783072717880941 -1 0 0 I I #
edge $-1 $437 -5.835403464351451 $351 2.410374156119417 $350 $478 forward 7 unknown #
vertex $-1 $436 $479 #
straight-curve $-1 -55.594958342234563 7.547918118467468 3.531993113758034 0.85716729658548041 0 0.51503808176128008 I I #
point $-1 -45.199346036921817 7.547918118467468 9.7783072717880923 #
point $-1 -55.594958342234563 -0.69785950200339997 3.531993113758034 #
straight-curve $-1 -55.594958342234563 0 9.7783072717880923 0 -1 0 I I #
vertex $-1 $357 $480 #
point $-1 -49.067389432405783 0.95129602209077291 5.4128553599764215 #
vertex $-1 $361 $481 #
point $-1 -49.067389432405783 3.425029308232034 5.4128553599764215 #
vertex $-1 $365 $482 #
point $-1 -49.067389432405783 5.8987625943732986 5.4128553599764215 #
coedge $-1 $380 $379 $372 $449 forward $369 $-1 #
edge $-1 $450 68.27539013126929 $453 74.52170428929935 $448 $483 forward 7 unknown #
vertex $-1 $384 $484 #
straight-curve $-1 8.7768197253044349 -0.69785950200339997 9.7783072717880941 1 0 0 I I #
edge $-1 $453 -2.410374156119417 $381 5.835403464351451 $380 $485 forward 7 unknown #
vertex $-1 $452 $486 #
straight-curve $-1 -39.713401949756658 -0.69785950200339997 60.799034514123562 -0.85716729658548041 0 0.51503808176128008 I I #
point $-1 45.199346036921796 -0.69785950200339997 9.7783072717880941 #
point $-1 55.594958342234563 7.547918118467468 3.5319931137580269 #
straight-curve $-1 55.594958342234563 0 9.7783072717880923 0 1 0 I I #
vertex $-1 $387 $487 #
point $-1 49.924556728991256 0.95129602209077291 4.8978172782151415 #
vertex $-1 $391 $488 #
point $-1 49.924556728991256 3.425029308232034 4.8978172782151415 #
vertex $-1 $395 $489 #
point $-1 49.924556728991256 5.8987625943732986 4.8978172782151415 #
straight-curve $-1 -55.594958342234563 26.317130004162731 0 0 0 -1 I I #
point $-1 -55.594958342234563 -26.317130004162731 -9.7783072717880923 #
straight-curve $-1 -55.594958342234563 0 -9.7783072717880923 0 1 0 I I #
point $-1 -55.594958342234563 26.317130004162731 -9.7783072717880923 #
edge $-1 $470 -9.7783072717880923 $424 9.7783072717880923 $416 $490 forward 7 unknown #
straight-curve $-1 -39.749954791222066 -36.84112161216099 -9.7783072717880923 -1 0 0 I I #
vertex $-1 $430 $491 #
straight-curve $-1 -39.749954791222066 -36.84112161216099 9.7783072717880923 1 0 0 I I #
point $-1 -41.298602076202208 -36.84112161216099 9.7783072717880923 #
point $-1 -41.298602076202208 -36.84112161216099 -9.7783072717880923 #
point $-1 -38.201307506241925 -36.84112161216099 -9.7783072717880923 #
straight-curve $-1 -38.201307506241925 -31.579125808161862 9.7783072717880923 0 1 0 I I #
straight-curve $-1 -55.594958342234563 7.547918118467468 49.42017670287462 0 0 -1 I I #
point $-1 -55.594958342234563 7.547918118467468 9.7783072717880923 #
straight-curve $-1 -55.594958342234563 1.712514654116017 3.531993113758034 0 -1 0 I I #
point $-1 -55.594958342234563 7.547918118467468 3.531993113758034 #
point $-1 -49.238454039817881 0.95129602209077291 4.726752670803041 #
point $-1 -49.238454039817881 3.425029308232034 4.726752670803041 #
point $-1 -49.238454039817881 5.8987625943732986 4.726752670803041 #
straight-curve $-1 55.594958342234563 -0.69785950200339997 78.053697403057384 0 0 -1 I I #
point $-1 55.594958342234563 -0.69785950200339997 9.7783072717880923 #
straight-curve $-1 55.594958342234563 1.712514654116017 3.5319931137580269 0 1 0 I I #
point $-1 55.594958342234563 -0.69785950200339997 3.5319931137580269 #
point $-1 49.238454039817874 0.95129602209077291 4.726752670803041 #
point $-1 49.238454039817874 3.425029308232034 4.726752670803041 #
point $-1 49.238454039817874 5.8987625943732986 4.726752670803041 #
straight-curve $-1 -38.201307506241925 -36.84112161216099 0 0 0 -1 I I #
point $-1 -38.201307506241925 -36.84112161216099 9.7783072717880923 #
End-of-ACIS-data 