500 0 14 0           
7 Unknown 11 ACIS 5.0 NT 24 Fri Mar 26 14:38:19 1999 
-1 9.9999999999999995e-007 1e-010 
body $-1 $14 $-1 $15 #
body $-1 $16 $-1 $17 #
body $-1 $18 $-1 $19 #
body $-1 $20 $-1 $21 #
body $-1 $22 $-1 $23 #
body $-1 $24 $-1 $25 #
body $-1 $26 $-1 $27 #
body $-1 $28 $-1 $29 #
body $-1 $30 $-1 $31 #
body $-1 $32 $-1 $33 #
body $-1 $34 $-1 $35 #
body $-1 $36 $-1 $37 #
body $-1 $38 $-1 $39 #
body $-1 $40 $-1 $41 #
lump $-1 $-1 $42 $0 #
transform $-1 1 0 0 0 1 0 0 0 1 41.005890072328867 23.856174884756165 11.662274598650415 1 rotate no_reflect no_shear #
lump $-1 $-1 $43 $1 #
transform $-1 1 0 0 0 1 0 0 0 1 41.005890072328867 23.856174884756165 11.662274598650415 1 rotate no_reflect no_shear #
lump $-1 $-1 $44 $2 #
transform $-1 1 0 0 0 1 0 0 0 1 41.005890072328867 23.856174884756165 11.662274598650415 1 rotate no_reflect no_shear #
lump $-1 $-1 $45 $3 #
transform $-1 1 0 0 0 1 0 0 0 1 41.005890072328867 23.856174884756165 11.662274598650415 1 rotate no_reflect no_shear #
lump $-1 $-1 $46 $4 #
transform $-1 1 0 0 0 1 0 0 0 1 41.005890072328867 23.856174884756165 11.662274598650415 1 rotate no_reflect no_shear #
lump $-1 $-1 $47 $5 #
transform $-1 1 0 0 0 1 0 0 0 1 41.005890072328867 23.856174884756165 11.662274598650415 1 rotate no_reflect no_shear #
lump $-1 $-1 $48 $6 #
transform $-1 1 0 0 0 1 0 0 0 1 41.005890072328867 23.856174884756165 11.662274598650415 1 rotate no_reflect no_shear #
lump $-1 $-1 $49 $7 #
transform $-1 1 0 0 0 1 0 0 0 1 41.005890072328867 23.856174884756165 11.662274598650415 1 rotate no_reflect no_shear #
lump $-1 $-1 $50 $8 #
transform $-1 1 0 0 0 1 0 0 0 1 41.005890072328867 23.856174884756165 11.662274598650415 1 rotate no_reflect no_shear #
lump $-1 $-1 $51 $9 #
transform $-1 1 0 0 0 1 0 0 0 1 41.005890072328867 23.856174884756165 11.662274598650415 1 rotate no_reflect no_shear #
lump $-1 $-1 $52 $10 #
transform $-1 1 0 0 0 1 0 0 0 1 41.005890072328867 23.856174884756165 11.662274598650415 1 rotate no_reflect no_shear #
lump $-1 $-1 $53 $11 #
transform $-1 1 0 0 0 1 0 0 0 1 41.005890072328867 23.856174884756165 11.662274598650415 1 rotate no_reflect no_shear #
lump $-1 $-1 $54 $12 #
transform $-1 1 0 0 0 1 0 0 0 1 41.005890072328867 23.856174884756165 11.662274598650415 1 rotate no_reflect no_shear #
lump $-1 $-1 $55 $13 #
transform $-1 1 0 0 0 1 0 0 0 1 41.005890072328867 23.856174884756165 11.662274598650415 1 rotate no_reflect no_shear #
shell $-1 $-1 $-1 $56 $-1 $14 #
shell $-1 $-1 $-1 $57 $-1 $16 #
shell $-1 $-1 $-1 $58 $-1 $18 #
shell $-1 $-1 $-1 $59 $-1 $20 #
shell $-1 $-1 $-1 $60 $-1 $22 #
shell $-1 $-1 $-1 $61 $-1 $24 #
shell $-1 $-1 $-1 $62 $-1 $26 #
shell $-1 $-1 $-1 $63 $-1 $28 #
shell $-1 $-1 $-1 $64 $-1 $30 #
shell $-1 $-1 $-1 $65 $-1 $32 #
shell $-1 $-1 $-1 $66 $-1 $34 #
shell $-1 $-1 $-1 $67 $-1 $36 #
shell $-1 $-1 $-1 $68 $-1 $38 #
shell $-1 $-1 $-1 $69 $-1 $40 #
face $-1 $70 $71 $42 $-1 $72 forward single #
face $-1 $73 $74 $43 $-1 $75 reversed single #
face $-1 $76 $77 $44 $-1 $78 reversed single #
face $-1 $79 $80 $45 $-1 $81 forward single #
face $-1 $82 $83 $46 $-1 $84 forward single #
face $-1 $85 $86 $47 $-1 $87 reversed single #
face $-1 $88 $89 $48 $-1 $90 forward single #
face $-1 $91 $92 $49 $-1 $93 forward single #
face $-1 $94 $95 $50 $-1 $96 reversed single #
face $-1 $97 $98 $51 $-1 $99 forward single #
face $-1 $100 $101 $52 $-1 $102 forward single #
face $-1 $103 $104 $53 $-1 $105 reversed single #
face $-1 $106 $107 $54 $-1 $108 forward single #
face $-1 $109 $110 $55 $-1 $111 forward single #
face $-1 $112 $113 $42 $-1 $114 reversed single #
loop $-1 $-1 $115 $56 #
plane-surface $-1 0 0 11.662274598650415 0 0 1 1 0 0 forward_v I I I I #
face $-1 $116 $117 $43 $-1 $118 reversed single #
loop $-1 $-1 $119 $57 #
plane-surface $-1 0 -19.356940029363074 5.769386005558129 0 0 1 1 0 0 forward_v I I I I #
face $-1 $120 $121 $44 $-1 $122 reversed single #
loop $-1 $-1 $123 $58 #
plane-surface $-1 30.897378939157349 4.499234855393091 121.52275618450051 0 -1 0 -0.64278761758704617 0 -0.76604443648966558 forward_v I I I I #
face $-1 $124 $125 $45 $-1 $126 forward single #
loop $-1 $127 $128 $59 #
cone-surface $-1 37.299711689806266 -0.034336612751701523 8.4390808334877061 -0.64278761758704617 0 -0.76604443648966558 0.38302221824483279 0 -0.32139380879352308 1 I I 0 1 0.5 forward I I I I #
face $-1 $129 $130 $46 $-1 $131 forward single #
loop $-1 $132 $133 $60 #
cone-surface $-1 37.299711689806266 2.685806268135174 8.4390808334877061 -0.64278761758704617 0 -0.76604443648966558 0.38302221824483279 0 -0.32139380879352308 1 I I 0 1 0.5 forward I I I I #
face $-1 $134 $135 $47 $-1 $136 reversed single #
loop $-1 $-1 $137 $61 #
plane-surface $-1 -21.818777834099812 1.3257348276917362 58.698088278071829 0.64278761758704617 0 0.76604443648966558 0.76604443648966558 0 -0.64278761758704617 forward_v I I I I #
face $-1 $138 $139 $48 $-1 $140 forward single #
loop $-1 $141 $142 $62 #
cone-surface $-1 37.299711689806266 6.3126634426510115 8.4390808334877061 -0.64278761758704617 0 -0.76604443648966558 0.38302221824483279 0 -0.32139380879352308 1 I I 0 1 0.5 forward I I I I #
face $-1 $143 $144 $49 $-1 $145 forward single #
loop $-1 $146 $147 $63 #
cone-surface $-1 37.299711689806266 9.0328063235378906 8.4390808334877061 -0.64278761758704617 0 -0.76604443648966558 0.38302221824483279 0 -0.32139380879352308 1 I I 0 1 0.5 forward I I I I #
face $-1 $148 $149 $50 $-1 $150 reversed single #
loop $-1 $-1 $151 $64 #
plane-surface $-1 -93.722046845586021 -1.8477652000096185 68.806599411243326 0 1 0 -0.64278761758704617 0 0.76604443648966558 forward_v I I I I #
face $-1 $152 $153 $51 $-1 $154 forward single #
loop $-1 $155 $156 $65 #
cone-surface $-1 -37.299711689806273 -0.034336612751701523 8.439080833487699 0.64278761758704617 0 -0.76604443648966558 0.38302221824483279 0 0.32139380879352308 1 I I 0 1 0.5 forward I I I I #
face $-1 $157 $158 $52 $-1 $159 forward single #
loop $-1 $160 $161 $66 #
cone-surface $-1 -37.299711689806273 2.685806268135174 8.439080833487699 0.64278761758704617 0 -0.76604443648966558 0.38302221824483279 0 0.32139380879352308 1 I I 0 1 0.5 forward I I I I #
face $-1 $162 $163 $53 $-1 $164 reversed single #
loop $-1 $-1 $165 $67 #
plane-surface $-1 -41.00589007232886 1.3257348276917362 5.9819315048146464 -0.64278761758704617 0 0.76604443648966558 0.76604443648966558 0 0.64278761758704617 forward_v I I I I #
face $-1 $166 $167 $54 $-1 $168 forward single #
loop $-1 $169 $170 $68 #
cone-surface $-1 -37.299711689806273 6.3126634426510115 8.439080833487699 0.64278761758704617 0 -0.76604443648966558 0.38302221824483279 0 0.32139380879352308 1 I I 0 1 0.5 forward I I I I #
face $-1 $171 $172 $55 $-1 $173 forward single #
loop $-1 $174 $175 $69 #
cone-surface $-1 -37.299711689806273 9.0328063235378906 8.439080833487699 0.64278761758704617 0 -0.76604443648966558 0.38302221824483279 0 0.32139380879352308 1 I I 0 1 0.5 forward I I I I #
face $-1 $176 $177 $42 $-1 $178 reversed single #
loop $-1 $-1 $179 $70 #
plane-surface $-1 0 0 -11.662274598650415 0 0 1 1 0 0 forward_v I I I I #
coedge $-1 $180 $181 $182 $183 forward $71 $-1 #
face $-1 $184 $185 $43 $-1 $186 reversed single #
loop $-1 $-1 $187 $73 #
plane-surface $-1 0 -14.857705173969981 8.7158303021042709 0 -1 0 0 0 -1 forward_v I I I I #
coedge $-1 $188 $189 $190 $191 reversed $74 $-1 #
face $-1 $192 $193 $44 $-1 $194 reversed single #
loop $-1 $-1 $195 $76 #
plane-surface $-1 -21.818777834099812 1.3257348276917362 58.698088278071829 0.64278761758704617 0 0.76604443648966558 0.76604443648966558 0 -0.64278761758704617 forward_v I I I I #
coedge $-1 $196 $197 $198 $199 reversed $77 $-1 #
face $-1 $-1 $200 $45 $-1 $201 forward single #
loop $-1 $202 $203 $79 #
cone-surface $-1 36.817620976615984 -0.034336612751701523 7.8645475061204575 -0.64278761758704617 0 -0.76604443648966558 0.1915111091224164 0 -0.16069690439676154 1 I I -0.70710678118654746 0.70710678118654746 0.25 forward I I I I #
loop $-1 $-1 $204 $59 #
coedge $-1 $128 $128 $205 $206 reversed $80 $-1 #
face $-1 $-1 $207 $46 $-1 $208 forward single #
loop $-1 $209 $210 $82 #
cone-surface $-1 36.817620976615984 2.685806268135174 7.8645475061204575 -0.64278761758704617 0 -0.76604443648966558 0.1915111091224164 0 -0.16069690439676154 1 I I -0.70710678118654746 0.70710678118654746 0.25 forward I I I I #
loop $-1 $-1 $211 $60 #
coedge $-1 $133 $133 $212 $213 reversed $83 $-1 #
face $-1 $214 $215 $47 $-1 $216 reversed single #
loop $-1 $-1 $217 $85 #
plane-surface $-1 30.897378939157349 10.846234910795804 121.52275618450051 0 -1 0 -0.64278761758704617 0 -0.76604443648966558 forward_v I I I I #
coedge $-1 $218 $219 $220 $221 reversed $86 $-1 #
face $-1 $-1 $222 $48 $-1 $223 forward single #
loop $-1 $224 $225 $88 #
cone-surface $-1 36.817620976615984 6.3126634426510115 7.8645475061204575 -0.64278761758704617 0 -0.76604443648966558 0.1915111091224164 0 -0.16069690439676154 1 I I -0.70710678118654746 0.70710678118654746 0.25 forward I I I I #
loop $-1 $-1 $226 $62 #
coedge $-1 $142 $142 $227 $228 reversed $89 $-1 #
face $-1 $-1 $229 $49 $-1 $230 forward single #
loop $-1 $231 $232 $91 #
cone-surface $-1 36.817620976615984 9.0328063235378906 7.8645475061204575 -0.64278761758704617 0 -0.76604443648966558 0.1915111091224164 0 -0.16069690439676154 1 I I -0.70710678118654746 0.70710678118654746 0.25 forward I I I I #
loop $-1 $-1 $233 $63 #
coedge $-1 $147 $147 $234 $235 reversed $92 $-1 #
face $-1 $236 $237 $50 $-1 $238 reversed single #
loop $-1 $-1 $239 $94 #
plane-surface $-1 -41.00589007232886 1.3257348276917362 5.9819315048146464 -0.64278761758704617 0 0.76604443648966558 0.76604443648966558 0 0.64278761758704617 forward_v I I I I #
coedge $-1 $240 $241 $242 $243 reversed $95 $-1 #
face $-1 $-1 $244 $51 $-1 $245 forward single #
loop $-1 $246 $247 $97 #
cone-surface $-1 -36.817620976615991 -0.034336612751701523 7.8645475061204504 0.64278761758704617 0 -0.76604443648966558 0.1915111091224164 0 0.16069690439676154 1 I I -0.70710678118654746 0.70710678118654746 0.25 forward I I I I #
loop $-1 $-1 $248 $65 #
coedge $-1 $156 $156 $249 $250 reversed $98 $-1 #
face $-1 $-1 $251 $52 $-1 $252 forward single #
loop $-1 $253 $254 $100 #
cone-surface $-1 -36.817620976615991 2.685806268135174 7.8645475061204504 0.64278761758704617 0 -0.76604443648966558 0.1915111091224164 0 0.16069690439676154 1 I I -0.70710678118654746 0.70710678118654746 0.25 forward I I I I #
loop $-1 $-1 $255 $66 #
coedge $-1 $161 $161 $256 $257 reversed $101 $-1 #
face $-1 $258 $259 $53 $-1 $260 forward single #
loop $-1 $-1 $261 $103 #
plane-surface $-1 -93.722046845586021 10.846234910795804 68.806599411243326 0 -1 0 0.64278761758704617 0 -0.76604443648966558 forward_v I I I I #
coedge $-1 $262 $263 $264 $265 reversed $104 $-1 #
face $-1 $-1 $266 $54 $-1 $267 forward single #
loop $-1 $268 $269 $106 #
cone-surface $-1 -36.817620976615991 6.3126634426510115 7.8645475061204504 0.64278761758704617 0 -0.76604443648966558 0.1915111091224164 0 0.16069690439676154 1 I I -0.70710678118654746 0.70710678118654746 0.25 forward I I I I #
loop $-1 $-1 $270 $68 #
coedge $-1 $170 $170 $271 $272 reversed $107 $-1 #
face $-1 $-1 $273 $55 $-1 $274 forward single #
loop $-1 $275 $276 $109 #
cone-surface $-1 -36.817620976615991 9.0328063235378906 7.8645475061204504 0.64278761758704617 0 -0.76604443648966558 0.1915111091224164 0 0.16069690439676154 1 I I -0.70710678118654746 0.70710678118654746 0.25 forward I I I I #
loop $-1 $-1 $277 $69 #
coedge $-1 $175 $175 $278 $279 reversed $110 $-1 #
face $-1 $280 $281 $42 $-1 $282 reversed single #
loop $-1 $-1 $283 $112 #
plane-surface $-1 0 -23.856174884756165 0 0 1 0 0 0 1 forward_v I I I I #
coedge $-1 $284 $285 $286 $287 forward $113 $-1 #
coedge $-1 $288 $115 $289 $290 forward $71 $-1 #
coedge $-1 $115 $288 $291 $292 forward $71 $-1 #
coedge $-1 $293 $294 $115 $183 reversed $295 $-1 #
edge $-1 $296 -23.856174884756165 $297 23.856174884756165 $182 $298 forward 7 unknown #
face $-1 $299 $300 $43 $-1 $301 reversed single #
loop $-1 $-1 $302 $116 #
plane-surface $-1 -41.005890072328867 0 0 1 0 0 0 0 -1 forward_v I I I I #
coedge $-1 $303 $304 $305 $306 reversed $117 $-1 #
coedge $-1 $307 $119 $308 $309 reversed $74 $-1 #
coedge $-1 $119 $307 $303 $310 forward $74 $-1 #
coedge $-1 $305 $311 $119 $191 forward $312 $-1 #
edge $-1 $313 -14.177704870074628 $314 -5.179235159288444 $190 $315 forward 7 unknown #
face $-1 $316 $317 $44 $-1 $318 reversed single #
loop $-1 $-1 $319 $120 #
plane-surface $-1 30.897378939157349 -1.8477652000096185 121.52275618450051 0 1 0 0.64278761758704617 0 0.76604443648966558 forward_v I I I I #
coedge $-1 $320 $321 $322 $323 reversed $121 $-1 #
coedge $-1 $197 $123 $324 $325 reversed $77 $-1 #
coedge $-1 $123 $196 $320 $326 reversed $77 $-1 #
coedge $-1 $322 $327 $123 $199 forward $328 $-1 #
edge $-1 $329 -25.557200602750193 $330 -18.787631455292086 $198 $331 forward 7 unknown #
loop $-1 $-1 $205 $124 #
plane-surface $-1 -21.818777834099812 1.3257348276917362 58.698088278071829 0.64278761758704617 0 0.76604443648966558 0.76604443648966558 0 -0.64278761758704617 forward_v I I I I #
loop $-1 $-1 $332 $79 #
coedge $-1 $203 $203 $204 $333 reversed $125 $-1 #
coedge $-1 $204 $204 $203 $333 forward $127 $-1 #
coedge $-1 $205 $205 $128 $206 forward $200 $-1 #
edge $-1 $334 0 $334 6.2831853071796004 $205 $335 forward 7 unknown #
loop $-1 $-1 $212 $129 #
plane-surface $-1 -21.818777834099812 1.3257348276917362 58.698088278071829 0.64278761758704617 0 0.76604443648966558 0.76604443648966558 0 -0.64278761758704617 forward_v I I I I #
loop $-1 $-1 $336 $82 #
coedge $-1 $210 $210 $211 $337 reversed $130 $-1 #
coedge $-1 $211 $211 $210 $337 forward $132 $-1 #
coedge $-1 $212 $212 $133 $213 forward $207 $-1 #
edge $-1 $338 0 $338 6.2831853071796004 $212 $339 forward 7 unknown #
face $-1 $340 $341 $47 $-1 $342 forward single #
loop $-1 $-1 $343 $134 #
plane-surface $-1 41.005890072328867 0 0 -1 0 0 0 0 1 forward_v I I I I #
coedge $-1 $344 $345 $346 $347 reversed $135 $-1 #
coedge $-1 $348 $137 $349 $350 reversed $86 $-1 #
coedge $-1 $137 $348 $343 $351 reversed $86 $-1 #
coedge $-1 $352 $353 $137 $221 forward $341 $-1 #
edge $-1 $354 73.17473515745165 $355 82.011780144657735 $220 $356 forward 7 unknown #
loop $-1 $-1 $227 $138 #
plane-surface $-1 -21.818777834099812 1.3257348276917362 58.698088278071829 0.64278761758704617 0 0.76604443648966558 0.76604443648966558 0 -0.64278761758704617 forward_v I I I I #
loop $-1 $-1 $357 $88 #
coedge $-1 $225 $225 $226 $358 reversed $139 $-1 #
coedge $-1 $226 $226 $225 $358 forward $141 $-1 #
coedge $-1 $227 $227 $142 $228 forward $222 $-1 #
edge $-1 $359 0 $359 6.2831853071796004 $227 $360 forward 7 unknown #
loop $-1 $-1 $234 $143 #
plane-surface $-1 -21.818777834099812 1.3257348276917362 58.698088278071829 0.64278761758704617 0 0.76604443648966558 0.76604443648966558 0 -0.64278761758704617 forward_v I I I I #
loop $-1 $-1 $361 $91 #
coedge $-1 $232 $232 $233 $362 reversed $144 $-1 #
coedge $-1 $233 $233 $232 $362 forward $146 $-1 #
coedge $-1 $234 $234 $147 $235 forward $229 $-1 #
edge $-1 $363 0 $363 6.2831853071796004 $234 $364 forward 7 unknown #
face $-1 $365 $366 $50 $-1 $367 forward single #
loop $-1 $-1 $368 $148 #
plane-surface $-1 -93.722046845586021 4.499234855393091 68.806599411243326 0 -1 0 0.64278761758704617 0 -0.76604443648966558 forward_v I I I I #
coedge $-1 $369 $370 $371 $372 reversed $149 $-1 #
coedge $-1 $241 $151 $373 $374 reversed $95 $-1 #
coedge $-1 $151 $240 $369 $375 reversed $95 $-1 #
coedge $-1 $371 $376 $151 $243 forward $366 $-1 #
edge $-1 $377 5.8551333504641434 $378 12.624702497922286 $242 $379 forward 7 unknown #
loop $-1 $-1 $249 $152 #
plane-surface $-1 -41.00589007232886 1.3257348276917362 5.9819315048146464 -0.64278761758704617 0 0.76604443648966558 0.76604443648966558 0 0.64278761758704617 forward_v I I I I #
loop $-1 $-1 $380 $97 #
coedge $-1 $247 $247 $248 $381 reversed $153 $-1 #
coedge $-1 $248 $248 $247 $381 forward $155 $-1 #
coedge $-1 $249 $249 $156 $250 forward $244 $-1 #
edge $-1 $382 0 $382 6.2831853071796004 $249 $383 forward 7 unknown #
loop $-1 $-1 $256 $157 #
plane-surface $-1 -41.00589007232886 1.3257348276917362 5.9819315048146464 -0.64278761758704617 0 0.76604443648966558 0.76604443648966558 0 0.64278761758704617 forward_v I I I I #
loop $-1 $-1 $384 $100 #
coedge $-1 $254 $254 $255 $385 reversed $158 $-1 #
coedge $-1 $255 $255 $254 $385 forward $160 $-1 #
coedge $-1 $256 $256 $161 $257 forward $251 $-1 #
edge $-1 $386 0 $386 6.2831853071796004 $256 $387 forward 7 unknown #
face $-1 $388 $389 $53 $-1 $390 forward single #
loop $-1 $-1 $391 $162 #
plane-surface $-1 0 0 11.662274598650415 0 0 1 1 0 0 forward_v I I I I #
coedge $-1 $392 $393 $394 $395 reversed $163 $-1 #
coedge $-1 $396 $165 $397 $398 reversed $104 $-1 #
coedge $-1 $165 $396 $391 $399 reversed $104 $-1 #
coedge $-1 $400 $401 $165 $265 forward $389 $-1 #
edge $-1 $402 -9.439443728910611e-015 $403 8.8370449872061165 $264 $404 forward 7 unknown #
loop $-1 $-1 $271 $166 #
plane-surface $-1 -41.00589007232886 1.3257348276917362 5.9819315048146464 -0.64278761758704617 0 0.76604443648966558 0.76604443648966558 0 0.64278761758704617 forward_v I I I I #
loop $-1 $-1 $405 $106 #
coedge $-1 $269 $269 $270 $406 reversed $167 $-1 #
coedge $-1 $270 $270 $269 $406 forward $169 $-1 #
coedge $-1 $271 $271 $170 $272 forward $266 $-1 #
edge $-1 $407 0 $407 6.2831853071796004 $271 $408 forward 7 unknown #
loop $-1 $-1 $278 $171 #
plane-surface $-1 -41.00589007232886 1.3257348276917362 5.9819315048146464 -0.64278761758704617 0 0.76604443648966558 0.76604443648966558 0 0.64278761758704617 forward_v I I I I #
loop $-1 $-1 $409 $109 #
coedge $-1 $276 $276 $277 $410 reversed $172 $-1 #
coedge $-1 $277 $277 $276 $410 forward $174 $-1 #
coedge $-1 $278 $278 $175 $279 forward $273 $-1 #
edge $-1 $411 0 $411 6.2831853071796004 $278 $412 forward 7 unknown #
face $-1 $413 $414 $42 $-1 $415 reversed single #
loop $-1 $-1 $416 $176 #
plane-surface $-1 -41.005890072328867 0 0 1 0 0 0 0 -1 forward_v I I I I #
coedge $-1 $417 $291 $418 $419 forward $177 $-1 #
coedge $-1 $420 $179 $417 $421 forward $113 $-1 #
coedge $-1 $179 $420 $422 $423 forward $113 $-1 #
coedge $-1 $294 $293 $179 $287 reversed $295 $-1 #
edge $-1 $424 -23.856174884756165 $425 23.856174884756165 $286 $426 forward 7 unknown #
coedge $-1 $181 $180 $427 $428 forward $71 $-1 #
coedge $-1 $429 $430 $180 $290 reversed $414 $-1 #
edge $-1 $297 -41.005890072328867 $431 41.005890072328867 $289 $432 forward 7 unknown #
coedge $-1 $283 $433 $181 $292 reversed $177 $-1 #
edge $-1 $434 -41.005890072328867 $296 41.005890072328867 $291 $435 forward 7 unknown #
coedge $-1 $286 $182 $433 $436 forward $295 $-1 #
coedge $-1 $182 $286 $429 $437 reversed $295 $-1 #
loop $-1 $-1 $293 $413 #
vertex $-1 $183 $438 #
vertex $-1 $183 $439 #
straight-curve $-1 41.005890072328867 0 11.662274598650415 0 1 0 I I #
face $-1 $440 $441 $43 $-1 $442 forward single #
loop $-1 $-1 $308 $184 #
plane-surface $-1 0 -23.856174884756165 0 0 1 0 0 0 1 forward_v I I I I #
coedge $-1 $443 $444 $445 $446 forward $185 $-1 #
coedge $-1 $445 $187 $189 $310 reversed $117 $-1 #
coedge $-1 $187 $445 $447 $448 reversed $117 $-1 #
coedge $-1 $449 $190 $187 $306 forward $312 $-1 #
edge $-1 $314 1.4114708545059935 $450 7.3043594475982774 $305 $451 forward 7 unknown #
coedge $-1 $189 $188 $443 $452 reversed $74 $-1 #
coedge $-1 $453 $454 $188 $309 forward $300 $-1 #
edge $-1 $455 -41.005890072328867 $313 41.005890072328867 $308 $456 forward 7 unknown #
edge $-1 $457 -41.005890072328867 $314 41.005890072328867 $303 $458 forward 7 unknown #
coedge $-1 $190 $449 $453 $459 forward $312 $-1 #
loop $-1 $-1 $305 $440 #
vertex $-1 $309 $460 #
vertex $-1 $191 $461 #
straight-curve $-1 41.005890072328867 -9.6784700146815368 5.769386005558129 0 1 0 I I #
face $-1 $-1 $328 $44 $-1 $462 forward single #
loop $-1 $-1 $463 $192 #
plane-surface $-1 41.005890072328867 0 0 -1 0 0 0 0 1 forward_v I I I I #
coedge $-1 $464 $465 $466 $467 reversed $193 $-1 #
coedge $-1 $468 $195 $197 $326 forward $121 $-1 #
coedge $-1 $195 $468 $464 $469 forward $121 $-1 #
coedge $-1 $466 $198 $195 $323 forward $328 $-1 #
edge $-1 $330 -3.8363674415472229 $470 2.5106326138554866 $322 $471 forward 7 unknown #
coedge $-1 $472 $473 $196 $325 forward $317 $-1 #
edge $-1 $474 -54.779446587435586 $329 -49.099103493599841 $324 $475 forward 7 unknown #
edge $-1 $330 73.17473515745165 $474 82.011780144657735 $197 $476 forward 7 unknown #
coedge $-1 $198 $466 $472 $477 forward $328 $-1 #
loop $-1 $-1 $466 $316 #
vertex $-1 $325 $478 #
vertex $-1 $199 $479 #
straight-curve $-1 15.448689469578675 4.499234855393091 11.662274598650413 -1 0 0 I I #
coedge $-1 $332 $332 $-1 $480 reversed $202 $-1 #
edge $-1 $481 0 $481 6.2831853071796004 $203 $482 forward 7 unknown #
vertex $-1 $206 $483 #
ellipse-curve $-1 37.621105498599803 -0.034336612751701523 8.8221030517325545 0.64278761758704617 0 0.76604443648966558 0.38302221824483279 0 -0.32139380879352308 1 I I #
coedge $-1 $336 $336 $-1 $484 reversed $209 $-1 #
edge $-1 $485 0 $485 6.2831853071796004 $210 $486 forward 7 unknown #
vertex $-1 $213 $487 #
ellipse-curve $-1 37.621105498599803 2.685806268135174 8.8221030517325545 0.64278761758704617 0 0.76604443648966558 0.38302221824483279 0 -0.32139380879352308 1 I I #
face $-1 $-1 $488 $47 $-1 $489 forward single #
loop $-1 $-1 $353 $214 #
plane-surface $-1 30.897378939157349 4.499234855393091 121.52275618450051 0 -1 0 -0.64278761758704617 0 -0.76604443648966558 forward_v I I I I #
coedge $-1 $346 $490 $219 $351 forward $215 $-1 #
coedge $-1 $345 $217 $348 $491 reversed $135 $-1 #
coedge $-1 $217 $344 $492 $493 reversed $135 $-1 #
coedge $-1 $494 $343 $217 $347 forward $215 $-1 #
edge $-1 $495 -54.779446587435586 $496 -49.099103493599841 $346 $497 forward 7 unknown #
coedge $-1 $219 $218 $344 $491 forward $86 $-1 #
coedge $-1 $498 $492 $218 $350 forward $488 $-1 #
edge $-1 $499 -10.183367496949936 $354 -3.8363674415472229 $349 $500 forward 7 unknown #
edge $-1 $355 3.8363674415472229 $495 10.183367496949936 $343 $501 forward 7 unknown #
coedge $-1 $353 $220 $490 $502 reversed $341 $-1 #
coedge $-1 $220 $352 $498 $503 reversed $341 $-1 #
vertex $-1 $350 $504 #
vertex $-1 $351 $505 #
straight-curve $-1 -21.818777834099812 4.499234855393091 58.698088278071829 0.76604443648966558 0 -0.64278761758704617 I I #
coedge $-1 $357 $357 $-1 $506 reversed $224 $-1 #
edge $-1 $507 0 $507 6.2831853071796004 $225 $508 forward 7 unknown #
vertex $-1 $228 $509 #
ellipse-curve $-1 37.621105498599803 6.3126634426510115 8.8221030517325545 0.64278761758704617 0 0.76604443648966558 0.38302221824483279 0 -0.32139380879352308 1 I I #
coedge $-1 $361 $361 $-1 $510 reversed $231 $-1 #
edge $-1 $511 0 $511 6.2831853071796004 $232 $512 forward 7 unknown #
vertex $-1 $235 $513 #
ellipse-curve $-1 37.621105498599803 9.0328063235378906 8.8221030517325545 0.64278761758704617 0 0.76604443648966558 0.38302221824483279 0 -0.32139380879352308 1 I I #
face $-1 $-1 $514 $50 $-1 $515 reversed single #
loop $-1 $-1 $242 $236 #
plane-surface $-1 0 0 11.662274598650415 0 0 1 1 0 0 forward_v I I I I #
coedge $-1 $516 $517 $518 $519 reversed $237 $-1 #
coedge $-1 $520 $239 $241 $375 forward $149 $-1 #
coedge $-1 $239 $520 $516 $521 forward $149 $-1 #
coedge $-1 $518 $242 $239 $372 forward $366 $-1 #
edge $-1 $378 -2.5106326138554866 $522 3.8363674415472229 $371 $523 forward 7 unknown #
coedge $-1 $524 $525 $240 $374 forward $514 $-1 #
edge $-1 $526 -28.421368200807024 $377 -22.74102510697125 $373 $527 forward 7 unknown #
edge $-1 $378 -8.8370449872061165 $526 9.439443728910611e-015 $241 $528 forward 7 unknown #
coedge $-1 $242 $518 $524 $529 forward $366 $-1 #
vertex $-1 $374 $530 #
vertex $-1 $243 $531 #
straight-curve $-1 -46.861023422793011 -1.8477652000096185 11.662274598650413 1 0 0 I I #
coedge $-1 $380 $380 $-1 $532 reversed $246 $-1 #
edge $-1 $533 0 $533 6.2831853071796004 $247 $534 forward 7 unknown #
vertex $-1 $250 $535 #
ellipse-curve $-1 -37.621105498599796 -0.034336612751701523 8.8221030517325296 -0.64278761758704617 0 0.76604443648966558 0.38302221824483279 0 0.32139380879352308 1 I I #
coedge $-1 $384 $384 $-1 $536 reversed $253 $-1 #
edge $-1 $537 0 $537 6.2831853071796004 $254 $538 forward 7 unknown #
vertex $-1 $257 $539 #
ellipse-curve $-1 -37.621105498599796 2.685806268135174 8.8221030517325296 -0.64278761758704617 0 0.76604443648966558 0.38302221824483279 0 0.32139380879352308 1 I I #
face $-1 $-1 $540 $53 $-1 $541 reversed single #
loop $-1 $-1 $400 $258 #
plane-surface $-1 -93.722046845586021 4.499234855393091 68.806599411243326 0 -1 0 0.64278761758704617 0 -0.76604443648966558 forward_v I I I I #
coedge $-1 $394 $542 $263 $399 forward $259 $-1 #
coedge $-1 $393 $261 $396 $543 reversed $163 $-1 #
coedge $-1 $261 $392 $544 $545 reversed $163 $-1 #
coedge $-1 $546 $391 $261 $395 forward $259 $-1 #
edge $-1 $547 -12.624702497922286 $548 -5.8551333504641434 $394 $549 forward 7 unknown #
coedge $-1 $263 $262 $392 $543 forward $104 $-1 #
coedge $-1 $550 $544 $262 $398 forward $540 $-1 #
edge $-1 $551 -10.183367496949936 $402 -3.8363674415472229 $397 $552 forward 7 unknown #
edge $-1 $403 3.8363674415472229 $547 10.183367496949936 $391 $553 forward 7 unknown #
coedge $-1 $401 $264 $542 $554 reversed $389 $-1 #
coedge $-1 $264 $400 $550 $555 reversed $389 $-1 #
vertex $-1 $398 $556 #
vertex $-1 $399 $557 #
straight-curve $-1 -41.00589007232886 4.499234855393091 5.9819315048146464 0.76604443648966558 0 0.64278761758704617 I I #
coedge $-1 $405 $405 $-1 $558 reversed $268 $-1 #
edge $-1 $559 0 $559 6.2831853071796004 $269 $560 forward 7 unknown #
vertex $-1 $272 $561 #
ellipse-curve $-1 -37.621105498599796 6.3126634426510115 8.8221030517325296 -0.64278761758704617 0 0.76604443648966558 0.38302221824483279 0 0.32139380879352308 1 I I #
coedge $-1 $409 $409 $-1 $562 reversed $275 $-1 #
edge $-1 $563 0 $563 6.2831853071796004 $276 $564 forward 7 unknown #
vertex $-1 $279 $565 #
ellipse-curve $-1 -37.621105498599796 9.0328063235378906 8.8221030517325296 -0.64278761758704617 0 0.76604443648966558 0.38302221824483279 0 0.32139380879352308 1 I I #
face $-1 $-1 $295 $42 $-1 $566 reversed single #
loop $-1 $-1 $429 $280 #
plane-surface $-1 0 23.856174884756165 0 0 -1 0 0 0 -1 forward_v I I I I #
coedge $-1 $567 $427 $430 $568 forward $281 $-1 #
coedge $-1 $433 $283 $284 $421 reversed $177 $-1 #
coedge $-1 $427 $567 $283 $419 reversed $281 $-1 #
edge $-1 $434 -11.662274598650415 $569 11.662274598650415 $418 $570 forward 7 unknown #
coedge $-1 $285 $284 $567 $571 forward $113 $-1 #
edge $-1 $425 -41.005890072328867 $569 41.005890072328867 $417 $572 forward 7 unknown #
coedge $-1 $430 $429 $285 $423 reversed $414 $-1 #
edge $-1 $573 -41.005890072328867 $424 41.005890072328867 $422 $574 forward 7 unknown #
vertex $-1 $287 $575 #
vertex $-1 $436 $576 #
straight-curve $-1 41.005890072328867 0 -11.662274598650415 0 -1 0 I I #
coedge $-1 $416 $418 $288 $428 reversed $281 $-1 #
edge $-1 $431 -23.856174884756165 $434 23.856174884756165 $427 $577 forward 7 unknown #
coedge $-1 $422 $289 $294 $437 forward $414 $-1 #
coedge $-1 $289 $422 $416 $568 reversed $414 $-1 #
vertex $-1 $290 $578 #
straight-curve $-1 0 23.856174884756165 11.662274598650415 -1 0 0 I I #
coedge $-1 $291 $417 $293 $436 reversed $177 $-1 #
vertex $-1 $428 $579 #
straight-curve $-1 0 -23.856174884756165 11.662274598650415 1 0 0 I I #
edge $-1 $296 -11.662274598650415 $425 11.662274598650415 $293 $580 forward 7 unknown #
edge $-1 $297 -11.662274598650415 $424 11.662274598650415 $294 $581 forward 7 unknown #
point $-1 41.005890072328867 -23.856174884756165 11.662274598650415 #
point $-1 41.005890072328867 23.856174884756165 11.662274598650415 #
face $-1 $-1 $312 $43 $-1 $582 reversed single #
loop $-1 $-1 $447 $299 #
plane-surface $-1 0 0 11.662274598650415 0 0 1 1 0 0 forward_v I I I I #
coedge $-1 $583 $302 $307 $452 forward $185 $-1 #
coedge $-1 $302 $583 $584 $585 reversed $185 $-1 #
coedge $-1 $304 $303 $302 $446 reversed $117 $-1 #
edge $-1 $586 -7.3043594475982774 $457 -1.4114708545059935 $302 $587 forward 7 unknown #
coedge $-1 $584 $588 $304 $448 forward $441 $-1 #
edge $-1 $450 -41.005890072328867 $586 41.005890072328867 $447 $589 forward 7 unknown #
coedge $-1 $311 $305 $588 $590 reversed $312 $-1 #
vertex $-1 $306 $591 #
straight-curve $-1 41.005890072328867 -14.857705173969981 4.3579151510521354 0 0 1 I I #
edge $-1 $457 5.179235159288444 $455 14.177704870074628 $443 $592 forward 7 unknown #
coedge $-1 $593 $308 $311 $459 reversed $300 $-1 #
coedge $-1 $308 $593 $583 $594 forward $300 $-1 #
vertex $-1 $309 $595 #
straight-curve $-1 0 -23.856174884756165 5.769386005558129 1 0 0 I I #
vertex $-1 $452 $596 #
straight-curve $-1 0 -14.857705173969981 5.769386005558129 1 0 0 I I #
edge $-1 $597 -11.662274598650415 $313 -5.769386005558129 $311 $598 forward 7 unknown #
point $-1 41.005890072328867 -23.856174884756165 5.769386005558129 #
point $-1 41.005890072328867 -14.857705173969981 5.769386005558129 #
plane-surface $-1 0 0 11.662274598650415 0 0 1 1 0 0 forward_v I I I I #
coedge $-1 $473 $472 $465 $599 forward $317 $-1 #
coedge $-1 $465 $319 $321 $469 reversed $193 $-1 #
coedge $-1 $319 $464 $463 $599 reversed $193 $-1 #
coedge $-1 $327 $322 $319 $467 forward $328 $-1 #
edge $-1 $470 18.787631455292086 $600 25.557200602750193 $466 $601 forward 7 unknown #
coedge $-1 $321 $320 $473 $602 reversed $121 $-1 #
edge $-1 $603 -82.011780144657735 $470 -73.17473515745165 $464 $604 forward 7 unknown #
vertex $-1 $323 $605 #
straight-curve $-1 34.236320924870753 0.66286741384586811 11.66227459865042 0 -1 0 I I #
coedge $-1 $463 $324 $327 $477 reversed $317 $-1 #
coedge $-1 $324 $463 $468 $602 forward $317 $-1 #
vertex $-1 $325 $606 #
straight-curve $-1 41.005890072328867 4.499234855393091 60.761378092250254 0 0 1 I I #
straight-curve $-1 -21.818777834099812 4.499234855393091 58.698088278071829 0.76604443648966558 0 -0.64278761758704617 I I #
edge $-1 $600 -1.8477652000096185 $329 4.499234855393091 $472 $607 forward 7 unknown #
point $-1 41.005890072328867 4.499234855393091 11.662274598650415 #
point $-1 34.236320924870761 4.499234855393091 11.662274598650413 #
edge $-1 $608 1 $608 0 $332 $-1 forward 7 unknown #
vertex $-1 $333 $609 #
ellipse-curve $-1 36.978317881012742 -0.034336612751701523 8.0560586152428737 0.64278761758704617 0 0.76604443648966558 0.38302221824483279 0 -0.32139380879352308 1 I I #
point $-1 38.004127716844621 -0.034336612751701523 8.500709242939017 #
edge $-1 $610 1 $610 0 $336 $-1 forward 7 unknown #
vertex $-1 $337 $611 #
ellipse-curve $-1 36.978317881012742 2.685806268135174 8.0560586152428737 0.64278761758704617 0 0.76604443648966558 0.38302221824483279 0 -0.32139380879352308 1 I I #
point $-1 38.004127716844621 2.685806268135174 8.500709242939017 #
loop $-1 $-1 $349 $340 #
plane-surface $-1 0 0 11.662274598650415 0 0 1 1 0 0 forward_v I I I I #
coedge $-1 $343 $494 $352 $502 forward $215 $-1 #
edge $-1 $499 73.17473515745165 $495 82.011780144657735 $344 $612 forward 7 unknown #
coedge $-1 $349 $613 $345 $493 forward $488 $-1 #
edge $-1 $496 -25.557200602750193 $499 -18.787631455292086 $492 $614 forward 7 unknown #
coedge $-1 $490 $346 $613 $615 reversed $215 $-1 #
vertex $-1 $347 $616 #
vertex $-1 $347 $617 #
straight-curve $-1 41.005890072328867 10.846234910795804 60.761378092250254 0 0 1 I I #
coedge $-1 $613 $349 $353 $503 forward $488 $-1 #
vertex $-1 $493 $618 #
straight-curve $-1 34.236320924870753 0.66286741384586811 11.66227459865042 0 -1 0 I I #
straight-curve $-1 41.005890072328867 0.66286741384586811 5.9819315048146677 0 1 0 I I #
edge $-1 $619 49.099103493599841 $355 54.779446587435586 $490 $620 forward 7 unknown #
edge $-1 $354 18.787631455292086 $619 25.557200602750193 $498 $621 forward 7 unknown #
point $-1 34.236320924870761 4.499234855393091 11.662274598650413 #
point $-1 41.005890072328867 4.499234855393091 5.9819315048146677 #
edge $-1 $622 1 $622 0 $357 $-1 forward 7 unknown #
vertex $-1 $358 $623 #
ellipse-curve $-1 36.978317881012742 6.3126634426510115 8.0560586152428737 0.64278761758704617 0 0.76604443648966558 0.38302221824483279 0 -0.32139380879352308 1 I I #
point $-1 38.004127716844621 6.3126634426510115 8.500709242939017 #
edge $-1 $624 1 $624 0 $361 $-1 forward 7 unknown #
vertex $-1 $362 $625 #
ellipse-curve $-1 36.978317881012742 9.0328063235378906 8.0560586152428737 0.64278761758704617 0 0.76604443648966558 0.38302221824483279 0 -0.32139380879352308 1 I I #
point $-1 38.004127716844621 9.0328063235378906 8.500709242939017 #
loop $-1 $-1 $373 $365 #
plane-surface $-1 -41.005890072328867 0 0 1 0 0 0 0 -1 forward_v I I I I #
coedge $-1 $517 $368 $370 $521 reversed $237 $-1 #
coedge $-1 $368 $516 $626 $627 reversed $237 $-1 #
coedge $-1 $376 $371 $368 $519 forward $366 $-1 #
edge $-1 $522 -12.624702497922286 $628 -5.8551333504641434 $518 $629 forward 7 unknown #
coedge $-1 $370 $369 $525 $630 reversed $149 $-1 #
edge $-1 $631 -9.439443728910611e-015 $522 8.8370449872061165 $516 $632 forward 7 unknown #
vertex $-1 $372 $633 #
straight-curve $-1 -34.236320924870732 0.66286741384586811 11.662274598650416 0 1 0 I I #
coedge $-1 $626 $373 $376 $529 reversed $514 $-1 #
coedge $-1 $373 $626 $520 $630 forward $514 $-1 #
vertex $-1 $374 $634 #
straight-curve $-1 -41.005890072328867 -1.8477652000096185 34.403299705621663 0 0 1 I I #
straight-curve $-1 -41.00589007232886 -1.8477652000096185 5.9819315048146464 -0.76604443648966558 0 -0.64278761758704617 I I #
edge $-1 $628 -4.499234855393091 $377 1.8477652000096185 $524 $635 forward 7 unknown #
point $-1 -41.005890072328867 -1.8477652000096185 11.662274598650415 #
point $-1 -34.236320924870725 -1.8477652000096185 11.662274598650415 #
edge $-1 $636 1 $636 0 $380 $-1 forward 7 unknown #
vertex $-1 $381 $637 #
ellipse-curve $-1 -36.97831788101275 -0.034336612751701523 8.0560586152428666 -0.64278761758704617 0 0.76604443648966558 0.38302221824483279 0 0.32139380879352308 1 I I #
point $-1 -37.238083280354964 -0.034336612751701523 9.1434968605260565 #
edge $-1 $638 1 $638 0 $384 $-1 forward 7 unknown #
vertex $-1 $385 $639 #
ellipse-curve $-1 -36.97831788101275 2.685806268135174 8.0560586152428666 -0.64278761758704617 0 0.76604443648966558 0.38302221824483279 0 0.32139380879352308 1 I I #
point $-1 -37.238083280354964 2.685806268135174 9.1434968605260565 #
loop $-1 $-1 $397 $388 #
plane-surface $-1 -41.005890072328867 0 0 1 0 0 0 0 -1 forward_v I I I I #
coedge $-1 $391 $546 $400 $554 forward $259 $-1 #
edge $-1 $551 -9.439443728910611e-015 $547 8.8370449872061165 $392 $640 forward 7 unknown #
coedge $-1 $397 $641 $393 $545 forward $540 $-1 #
edge $-1 $548 22.74102510697125 $551 28.421368200807024 $544 $642 forward 7 unknown #
coedge $-1 $542 $394 $641 $643 forward $259 $-1 #
vertex $-1 $395 $644 #
vertex $-1 $643 $645 #
straight-curve $-1 -46.861023422793011 10.846234910795804 11.662274598650413 -1 0 0 I I #
coedge $-1 $641 $397 $401 $555 forward $540 $-1 #
vertex $-1 $545 $646 #
straight-curve $-1 -41.005890072328867 0.66286741384586811 5.9819315048146402 0 -1 0 I I #
straight-curve $-1 -34.236320924870732 0.66286741384586811 11.662274598650416 0 1 0 I I #
edge $-1 $647 5.8551333504641434 $403 12.624702497922286 $542 $648 forward 7 unknown #
edge $-1 $402 -28.421368200807024 $647 -22.74102510697125 $550 $649 forward 7 unknown #
point $-1 -41.005890072328867 4.499234855393091 5.9819315048146402 #
point $-1 -34.236320924870725 4.499234855393091 11.662274598650415 #
edge $-1 $650 1 $650 0 $405 $-1 forward 7 unknown #
vertex $-1 $406 $651 #
ellipse-curve $-1 -36.97831788101275 6.3126634426510115 8.0560586152428666 -0.64278761758704617 0 0.76604443648966558 0.38302221824483279 0 0.32139380879352308 1 I I #
point $-1 -37.238083280354964 6.3126634426510115 9.1434968605260565 #
edge $-1 $652 1 $652 0 $409 $-1 forward 7 unknown #
vertex $-1 $410 $653 #
ellipse-curve $-1 -36.97831788101275 9.0328063235378906 8.0560586152428666 -0.64278761758704617 0 0.76604443648966558 0.38302221824483279 0 0.32139380879352308 1 I I #
point $-1 -37.238083280354964 9.0328063235378906 9.1434968605260565 #
plane-surface $-1 41.005890072328867 0 0 -1 0 0 0 0 1 forward_v I I I I #
coedge $-1 $418 $416 $420 $571 reversed $281 $-1 #
edge $-1 $431 -11.662274598650415 $573 11.662274598650415 $430 $654 forward 7 unknown #
vertex $-1 $571 $655 #
straight-curve $-1 -41.005890072328867 -23.856174884756165 0 0 0 -1 I I #
edge $-1 $569 -23.856174884756165 $573 23.856174884756165 $567 $656 forward 7 unknown #
straight-curve $-1 0 -23.856174884756165 -11.662274598650415 -1 0 0 I I #
vertex $-1 $423 $657 #
straight-curve $-1 0 23.856174884756165 -11.662274598650415 1 0 0 I I #
point $-1 41.005890072328867 23.856174884756165 -11.662274598650415 #
point $-1 41.005890072328867 -23.856174884756165 -11.662274598650415 #
straight-curve $-1 -41.005890072328867 0 11.662274598650415 0 -1 0 I I #
point $-1 -41.005890072328867 23.856174884756165 11.662274598650415 #
point $-1 -41.005890072328867 -23.856174884756165 11.662274598650415 #
straight-curve $-1 41.005890072328867 -23.856174884756165 0 0 0 -1 I I #
straight-curve $-1 41.005890072328867 23.856174884756165 0 0 0 -1 I I #
plane-surface $-1 41.005890072328867 0 0 -1 0 0 0 0 1 forward_v I I I I #
coedge $-1 $444 $443 $454 $594 reversed $185 $-1 #
coedge $-1 $658 $447 $444 $585 forward $441 $-1 #
edge $-1 $586 14.857705173969981 $659 23.856174884756165 $444 $660 forward 7 unknown #
vertex $-1 $585 $661 #
straight-curve $-1 -41.005890072328867 -14.857705173969981 4.3579151510521354 0 0 -1 I I #
coedge $-1 $447 $658 $449 $590 forward $441 $-1 #
straight-curve $-1 0 -14.857705173969981 11.662274598650415 -1 0 0 I I #
edge $-1 $597 -23.856174884756165 $450 -14.857705173969981 $449 $662 forward 7 unknown #
point $-1 41.005890072328867 -14.857705173969981 11.662274598650413 #
straight-curve $-1 -41.005890072328867 -9.6784700146815368 5.769386005558129 0 -1 0 I I #
coedge $-1 $454 $453 $658 $663 reversed $300 $-1 #
edge $-1 $659 -11.662274598650415 $455 -5.769386005558129 $583 $664 forward 7 unknown #
point $-1 -41.005890072328867 -23.856174884756165 5.769386005558129 #
point $-1 -41.005890072328867 -14.857705173969981 5.769386005558129 #
vertex $-1 $590 $665 #
straight-curve $-1 41.005890072328867 -23.856174884756165 0 0 0 -1 I I #
edge $-1 $600 49.099103493599841 $603 54.779446587435586 $463 $666 forward 7 unknown #
vertex $-1 $477 $667 #
straight-curve $-1 15.448689469578675 -1.8477652000096185 11.662274598650413 1 0 0 I I #
edge $-1 $603 -2.5106326138554866 $474 3.8363674415472229 $473 $668 forward 7 unknown #
vertex $-1 $602 $669 #
straight-curve $-1 -21.818777834099812 -1.8477652000096185 58.698088278071829 -0.76604443648966558 0 0.64278761758704617 I I #
point $-1 34.236320924870761 -1.8477652000096185 11.662274598650413 #
point $-1 41.005890072328867 4.499234855393091 5.9819315048146677 #
straight-curve $-1 41.005890072328867 0 11.662274598650415 0 1 0 I I #
vertex $-1 $480 $670 #
point $-1 37.361340099257582 -0.034336612751701523 7.7346648064493504 #
vertex $-1 $484 $671 #
point $-1 37.361340099257582 2.685806268135174 7.7346648064493504 #
straight-curve $-1 -21.818777834099812 10.846234910795804 58.698088278071829 0.76604443648966558 0 -0.64278761758704617 I I #
coedge $-1 $492 $498 $494 $615 forward $488 $-1 #
straight-curve $-1 15.448689469578675 10.846234910795804 11.662274598650413 -1 0 0 I I #
edge $-1 $619 4.499234855393091 $496 10.846234910795804 $494 $672 forward 7 unknown #
point $-1 41.005890072328867 10.846234910795804 5.9819315048146677 #
point $-1 41.005890072328867 10.846234910795804 11.662274598650415 #
point $-1 34.236320924870761 10.846234910795804 11.662274598650413 #
vertex $-1 $615 $673 #
straight-curve $-1 41.005890072328867 4.499234855393091 60.761378092250254 0 0 -1 I I #
straight-curve $-1 15.448689469578675 4.499234855393091 11.662274598650413 1 0 0 I I #
vertex $-1 $506 $674 #
point $-1 37.361340099257582 6.3126634426510115 7.7346648064493504 #
vertex $-1 $510 $675 #
point $-1 37.361340099257582 9.0328063235378906 7.7346648064493504 #
coedge $-1 $525 $524 $517 $627 forward $514 $-1 #
edge $-1 $628 22.74102510697125 $631 28.421368200807024 $626 $676 forward 7 unknown #
vertex $-1 $529 $677 #
straight-curve $-1 -46.861023422793011 4.499234855393091 11.662274598650413 -1 0 0 I I #
edge $-1 $631 -3.8363674415472229 $526 2.5106326138554866 $525 $678 forward 7 unknown #
vertex $-1 $630 $679 #
straight-curve $-1 -41.00589007232886 4.499234855393091 5.9819315048146464 0.76604443648966558 0 0.64278761758704617 I I #
point $-1 -34.236320924870725 4.499234855393091 11.662274598650415 #
point $-1 -41.005890072328867 -1.8477652000096185 5.9819315048146402 #
straight-curve $-1 -41.005890072328867 0 11.662274598650415 0 -1 0 I I #
vertex $-1 $532 $680 #
point $-1 -36.595295662767917 -0.034336612751701523 8.3774524240363899 #
vertex $-1 $536 $681 #
point $-1 -36.595295662767917 2.685806268135174 8.3774524240363899 #
straight-curve $-1 -41.00589007232886 10.846234910795804 5.9819315048146464 0.76604443648966558 0 0.64278761758704617 I I #
coedge $-1 $544 $550 $546 $643 reversed $540 $-1 #
straight-curve $-1 -41.005890072328867 10.846234910795804 34.403299705621663 0 0 -1 I I #
edge $-1 $548 -10.846234910795804 $647 -4.499234855393091 $641 $682 forward 7 unknown #
point $-1 -34.236320924870725 10.846234910795804 11.662274598650415 #
point $-1 -41.005890072328867 10.846234910795804 11.662274598650415 #
point $-1 -41.005890072328867 10.846234910795804 5.9819315048146402 #
vertex $-1 $555 $683 #
straight-curve $-1 -46.861023422793011 4.499234855393091 11.662274598650413 1 0 0 I I #
straight-curve $-1 -41.005890072328867 4.499234855393091 34.403299705621663 0 0 1 I I #
vertex $-1 $558 $684 #
point $-1 -36.595295662767917 6.3126634426510115 8.3774524240363899 #
vertex $-1 $562 $685 #
point $-1 -36.595295662767917 9.0328063235378906 8.3774524240363899 #
straight-curve $-1 -41.005890072328867 23.856174884756165 0 0 0 -1 I I #
point $-1 -41.005890072328867 -23.856174884756165 -11.662274598650415 #
straight-curve $-1 -41.005890072328867 0 -11.662274598650415 0 1 0 I I #
point $-1 -41.005890072328867 23.856174884756165 -11.662274598650415 #
coedge $-1 $588 $584 $593 $663 forward $441 $-1 #
vertex $-1 $585 $686 #
straight-curve $-1 -41.005890072328867 0 11.662274598650415 0 -1 0 I I #
point $-1 -41.005890072328867 -14.857705173969981 11.662274598650413 #
straight-curve $-1 41.005890072328867 0 11.662274598650415 0 1 0 I I #
edge $-1 $659 -41.005890072328867 $597 41.005890072328867 $593 $687 forward 7 unknown #
straight-curve $-1 -41.005890072328867 -23.856174884756165 0 0 0 -1 I I #
point $-1 41.005890072328867 -23.856174884756165 11.662274598650415 #
straight-curve $-1 41.005890072328867 -1.8477652000096185 60.761378092250254 0 0 -1 I I #
point $-1 41.005890072328867 -1.8477652000096185 11.662274598650415 #
straight-curve $-1 41.005890072328867 0.66286741384586811 5.9819315048146677 0 1 0 I I #
point $-1 41.005890072328867 -1.8477652000096185 5.9819315048146677 #
point $-1 36.656924072219226 -0.034336612751701523 7.6730363969980413 #
point $-1 36.656924072219226 2.685806268135174 7.6730363969980413 #
straight-curve $-1 41.005890072328867 0 11.662274598650415 0 1 0 I I #
point $-1 41.005890072328867 4.499234855393091 11.662274598650415 #
point $-1 36.656924072219226 6.3126634426510115 7.6730363969980413 #
point $-1 36.656924072219226 9.0328063235378906 7.6730363969980413 #
straight-curve $-1 -41.005890072328867 4.499234855393091 34.403299705621663 0 0 -1 I I #
point $-1 -41.005890072328867 4.499234855393091 11.662274598650415 #
straight-curve $-1 -41.005890072328867 0.66286741384586811 5.9819315048146402 0 -1 0 I I #
point $-1 -41.005890072328867 4.499234855393091 5.9819315048146402 #
point $-1 -36.656924072219233 -0.034336612751701523 7.6730363969980342 #
point $-1 -36.656924072219233 2.685806268135174 7.6730363969980342 #
straight-curve $-1 -41.005890072328867 0 11.662274598650415 0 -1 0 I I #
point $-1 -41.005890072328867 4.499234855393091 11.662274598650415 #
point $-1 -36.656924072219233 6.3126634426510115 7.6730363969980342 #
point $-1 -36.656924072219233 9.0328063235378906 7.6730363969980342 #
point $-1 -41.005890072328867 -23.856174884756165 11.662274598650415 #
straight-curve $-1 0 -23.856174884756165 11.662274598650415 1 0 0 I I #
End-of-ACIS-data 