500 0 15 0           
7 Unknown 11 ACIS 5.0 NT 24 Fri Mar 26 18:49:57 1999 
-1 9.9999999999999995e-007 1e-010 
body $-1 $15 $-1 $16 #
body $-1 $17 $-1 $18 #
body $-1 $19 $-1 $20 #
body $-1 $21 $-1 $22 #
body $-1 $23 $-1 $24 #
body $-1 $25 $-1 $26 #
body $-1 $27 $-1 $28 #
body $-1 $29 $-1 $30 #
body $-1 $31 $-1 $32 #
body $-1 $33 $-1 $34 #
body $-1 $35 $-1 $36 #
body $-1 $37 $-1 $38 #
body $-1 $39 $-1 $40 #
body $-1 $41 $-1 $42 #
body $-1 $43 $-1 $44 #
lump $-1 $-1 $45 $0 #
transform $-1 1 0 0 0 1 0 0 0 1 62.062440870387888 30.191776061471728 7.9337836169714144 1 rotate no_reflect no_shear #
lump $-1 $-1 $46 $1 #
transform $-1 1 0 0 0 1 0 0 0 1 62.062440870387888 30.191776061471728 7.9337836169714144 1 rotate no_reflect no_shear #
lump $-1 $-1 $47 $2 #
transform $-1 1 0 0 0 1 0 0 0 1 62.062440870387888 30.191776061471728 7.9337836169714144 1 rotate no_reflect no_shear #
lump $-1 $-1 $48 $3 #
transform $-1 1 0 0 0 1 0 0 0 1 62.062440870387888 30.191776061471728 7.9337836169714144 1 rotate no_reflect no_shear #
lump $-1 $-1 $49 $4 #
transform $-1 1 0 0 0 1 0 0 0 1 62.062440870387888 30.191776061471728 7.9337836169714144 1 rotate no_reflect no_shear #
lump $-1 $-1 $50 $5 #
transform $-1 1 0 0 0 1 0 0 0 1 62.062440870387888 30.191776061471728 7.9337836169714144 1 rotate no_reflect no_shear #
lump $-1 $-1 $51 $6 #
transform $-1 1 0 0 0 1 0 0 0 1 62.062440870387888 30.191776061471728 7.9337836169714144 1 rotate no_reflect no_shear #
lump $-1 $-1 $52 $7 #
transform $-1 1 0 0 0 1 0 0 0 1 62.062440870387888 30.191776061471728 7.9337836169714144 1 rotate no_reflect no_shear #
lump $-1 $-1 $53 $8 #
transform $-1 1 0 0 0 1 0 0 0 1 62.062440870387888 30.191776061471728 7.9337836169714144 1 rotate no_reflect no_shear #
lump $-1 $-1 $54 $9 #
transform $-1 1 0 0 0 1 0 0 0 1 62.062440870387888 30.191776061471728 7.9337836169714144 1 rotate no_reflect no_shear #
lump $-1 $-1 $55 $10 #
transform $-1 1 0 0 0 1 0 0 0 1 62.062440870387888 30.191776061471728 7.9337836169714144 1 rotate no_reflect no_shear #
lump $-1 $-1 $56 $11 #
transform $-1 1 0 0 0 1 0 0 0 1 62.062440870387888 30.191776061471728 7.9337836169714144 1 rotate no_reflect no_shear #
lump $-1 $-1 $57 $12 #
transform $-1 1 0 0 0 1 0 0 0 1 62.062440870387888 30.191776061471728 7.9337836169714144 1 rotate no_reflect no_shear #
lump $-1 $-1 $58 $13 #
transform $-1 1 0 0 0 1 0 0 0 1 62.062440870387888 30.191776061471728 7.9337836169714144 1 rotate no_reflect no_shear #
lump $-1 $-1 $59 $14 #
transform $-1 1 0 0 0 1 0 0 0 1 62.062440870387888 30.191776061471728 7.9337836169714144 1 rotate no_reflect no_shear #
shell $-1 $-1 $-1 $60 $-1 $15 #
shell $-1 $-1 $-1 $61 $-1 $17 #
shell $-1 $-1 $-1 $62 $-1 $19 #
shell $-1 $-1 $-1 $63 $-1 $21 #
shell $-1 $-1 $-1 $64 $-1 $23 #
shell $-1 $-1 $-1 $65 $-1 $25 #
shell $-1 $-1 $-1 $66 $-1 $27 #
shell $-1 $-1 $-1 $67 $-1 $29 #
shell $-1 $-1 $-1 $68 $-1 $31 #
shell $-1 $-1 $-1 $69 $-1 $33 #
shell $-1 $-1 $-1 $70 $-1 $35 #
shell $-1 $-1 $-1 $71 $-1 $37 #
shell $-1 $-1 $-1 $72 $-1 $39 #
shell $-1 $-1 $-1 $73 $-1 $41 #
shell $-1 $-1 $-1 $74 $-1 $43 #
face $-1 $75 $76 $45 $-1 $77 forward single #
face $-1 $78 $79 $46 $-1 $80 reversed single #
face $-1 $81 $82 $47 $-1 $83 forward single #
face $-1 $84 $85 $48 $-1 $86 reversed single #
face $-1 $87 $88 $49 $-1 $89 forward single #
face $-1 $90 $91 $50 $-1 $92 forward single #
face $-1 $93 $94 $51 $-1 $95 forward single #
face $-1 $96 $97 $52 $-1 $98 reversed single #
face $-1 $99 $100 $53 $-1 $101 forward single #
face $-1 $102 $103 $54 $-1 $104 forward single #
face $-1 $105 $106 $55 $-1 $107 forward single #
face $-1 $108 $109 $56 $-1 $110 reversed single #
face $-1 $111 $112 $57 $-1 $113 forward single #
face $-1 $114 $115 $58 $-1 $116 forward single #
face $-1 $117 $118 $59 $-1 $119 forward single #
face $-1 $120 $121 $45 $-1 $122 reversed single #
loop $-1 $-1 $123 $60 #
plane-surface $-1 0 0 7.9337836169714144 0 0 1 1 0 0 forward_v I I I I #
face $-1 $124 $125 $46 $-1 $126 forward single #
loop $-1 $-1 $127 $61 #
plane-surface $-1 -51.839939733021964 0 4.0610964247511152 -1 0 0 0 0 1 forward_v I I I I #
face $-1 $128 $129 $47 $-1 $130 reversed single #
loop $-1 $-1 $131 $62 #
plane-surface $-1 62.062440870387888 0 0 -1 0 0 0 0 1 forward_v I I I I #
face $-1 $132 $133 $48 $-1 $134 reversed single #
loop $-1 $-1 $135 $63 #
plane-surface $-1 -43.847309979592772 -30.191776061471728 0.42114910662157001 0 -0.70710678939079041 0.70710677298230451 1 0 0 forward_v I I I I #
face $-1 $136 $137 $49 $-1 $138 forward single #
loop $-1 $139 $140 $64 #
cone-surface $-1 -48.642887831650285 -25.054391956988898 2.7963994573706543 0 0.70710678939079041 -0.70710677298230451 1 0 0 1 I I 0 1 1 forward I I I I #
face $-1 $141 $142 $50 $-1 $143 forward single #
loop $-1 $144 $145 $65 #
cone-surface $-1 -43.847309979592772 -25.054391956988898 2.7963994573706543 0 0.70710678939079041 -0.70710677298230451 1 0 0 1 I I 0 1 1 forward I I I I #
face $-1 $146 $147 $51 $-1 $148 forward single #
loop $-1 $149 $150 $66 #
cone-surface $-1 -39.05173212753526 -25.054391956988898 2.7963994573706543 0 0.70710678939079041 -0.70710677298230451 1 0 0 1 I I 0 1 1 forward I I I I #
face $-1 $151 $152 $52 $-1 $153 reversed single #
loop $-1 $-1 $154 $67 #
plane-surface $-1 37.129916029070955 -117.96132267270323 88.1906936811517 1 0 0 0 0.70710678939079041 -0.70710677298230451 forward_v I I I I #
face $-1 $155 $156 $53 $-1 $157 forward single #
loop $-1 $158 $159 $68 #
cone-surface $-1 40.326967930442621 -25.054391956988898 2.7963994573706543 0 0.70710678939079041 -0.70710677298230451 1 0 0 1 I I 0 1 1 forward I I I I #
face $-1 $160 $161 $54 $-1 $162 forward single #
loop $-1 $163 $164 $69 #
cone-surface $-1 45.12254578250014 -25.054391956988898 2.7963994573706543 0 0.70710678939079041 -0.70710677298230451 1 0 0 1 I I 0 1 1 forward I I I I #
face $-1 $165 $166 $55 $-1 $167 forward single #
loop $-1 $168 $169 $70 #
cone-surface $-1 49.918123634557645 -25.054391956988898 2.7963994573706543 0 0.70710678939079041 -0.70710677298230451 1 0 0 1 I I 0 1 1 forward I I I I #
face $-1 $170 $171 $56 $-1 $172 reversed single #
loop $-1 $-1 $173 $71 #
plane-surface $-1 2.0878413125816166 47.153125086171244 139.50167223891819 1 0 0 0 -0.54463904215088732 -0.83867056331134215 forward_v I I I I #
face $-1 $174 $175 $57 $-1 $176 forward single #
loop $-1 $177 $178 $72 #
cone-surface $-1 5.1264691897459329 25.502993763834027 4.4290769690242655 0 -0.54463904215088732 -0.83867056331134215 1.5 0 0 1 I I 0 1 1.5 forward I I I I #
face $-1 $179 $180 $58 $-1 $181 forward single #
loop $-1 $182 $183 $73 #
cone-surface $-1 9.6844110054924215 25.502993763834027 4.4290769690242655 0 -0.54463904215088732 -0.83867056331134215 1.5 0 0 1 I I 0 1 1.5 forward I I I I #
face $-1 $184 $185 $59 $-1 $186 forward single #
loop $-1 $187 $188 $74 #
cone-surface $-1 14.24235282123891 25.502993763834027 4.4290769690242655 0 -0.54463904215088732 -0.83867056331134215 1.5 0 0 1 I I 0 1 1.5 forward I I I I #
face $-1 $189 $190 $45 $-1 $191 reversed single #
loop $-1 $-1 $192 $75 #
plane-surface $-1 0 0 -7.9337836169714144 0 0 1 1 0 0 forward_v I I I I #
coedge $-1 $193 $194 $195 $196 forward $76 $-1 #
face $-1 $197 $198 $46 $-1 $199 reversed single #
loop $-1 $-1 $200 $78 #
plane-surface $-1 -56.951190301704926 0 5.5610964247511152 0 0 1 1 0 0 forward_v I I I I #
coedge $-1 $201 $202 $203 $204 reversed $79 $-1 #
face $-1 $205 $206 $47 $-1 $207 reversed single #
loop $-1 $-1 $208 $81 #
plane-surface $-1 0 -30.191776061471728 0 0 1 0 0 0 1 forward_v I I I I #
coedge $-1 $209 $210 $211 $212 forward $82 $-1 #
face $-1 $213 $214 $48 $-1 $215 reversed single #
loop $-1 $-1 $216 $84 #
plane-surface $-1 -35.854680226163588 -117.96132267270323 88.1906936811517 -1 0 0 0 -0.70710678939079041 0.70710677298230451 forward_v I I I I #
coedge $-1 $217 $218 $219 $220 reversed $85 $-1 #
face $-1 $-1 $221 $49 $-1 $222 forward single #
loop $-1 $223 $224 $87 #
cone-surface $-1 -48.642887831650285 -23.319771625819861 1.0617791664536611 0 0.70710678939079041 -0.70710677298230451 0.5 0 0 1 I I -0.70710678118654746 0.70710678118654746 0.5 forward I I I I #
loop $-1 $-1 $225 $64 #
coedge $-1 $140 $140 $226 $227 reversed $88 $-1 #
face $-1 $-1 $228 $50 $-1 $229 forward single #
loop $-1 $230 $231 $90 #
cone-surface $-1 -43.847309979592772 -23.319771625819861 1.0617791664536611 0 0.70710678939079041 -0.70710677298230451 0.5 0 0 1 I I -0.70710678118654746 0.70710678118654746 0.5 forward I I I I #
loop $-1 $-1 $232 $65 #
coedge $-1 $145 $145 $233 $234 reversed $91 $-1 #
face $-1 $-1 $235 $51 $-1 $236 forward single #
loop $-1 $237 $238 $93 #
cone-surface $-1 -39.05173212753526 -23.319771625819861 1.0617791664536611 0 0.70710678939079041 -0.70710677298230451 0.5 0 0 1 I I -0.70710678118654746 0.70710678118654746 0.5 forward I I I I #
loop $-1 $-1 $239 $66 #
coedge $-1 $150 $150 $240 $241 reversed $94 $-1 #
face $-1 $242 $243 $52 $-1 $244 reversed single #
loop $-1 $-1 $245 $96 #
plane-surface $-1 45.12254578250014 -30.191776061471728 0.42114910662157001 0 -0.70710678939079041 0.70710677298230451 1 0 0 forward_v I I I I #
coedge $-1 $246 $247 $248 $249 reversed $97 $-1 #
face $-1 $-1 $250 $53 $-1 $251 forward single #
loop $-1 $252 $253 $99 #
cone-surface $-1 40.326967930442621 -23.319771625819861 1.0617791664536611 0 0.70710678939079041 -0.70710677298230451 0.5 0 0 1 I I -0.70710678118654746 0.70710678118654746 0.5 forward I I I I #
loop $-1 $-1 $254 $68 #
coedge $-1 $159 $159 $255 $256 reversed $100 $-1 #
face $-1 $-1 $257 $54 $-1 $258 forward single #
loop $-1 $259 $260 $102 #
cone-surface $-1 45.12254578250014 -23.319771625819861 1.0617791664536611 0 0.70710678939079041 -0.70710677298230451 0.5 0 0 1 I I -0.70710678118654746 0.70710678118654746 0.5 forward I I I I #
loop $-1 $-1 $261 $69 #
coedge $-1 $164 $164 $262 $263 reversed $103 $-1 #
face $-1 $-1 $264 $55 $-1 $265 forward single #
loop $-1 $266 $267 $105 #
cone-surface $-1 49.918123634557645 -23.319771625819861 1.0617791664536611 0 0.70710678939079041 -0.70710677298230451 0.5 0 0 1 I I -0.70710678118654746 0.70710678118654746 0.5 forward I I I I #
loop $-1 $-1 $268 $70 #
coedge $-1 $169 $169 $269 $270 reversed $106 $-1 #
face $-1 $271 $272 $56 $-1 $273 reversed single #
loop $-1 $-1 $274 $108 #
plane-surface $-1 9.6844110054924215 -20.450131612217049 35.401787748428035 0 0.54463904215088732 0.83867056331134215 1 0 0 forward_v I I I I #
coedge $-1 $275 $276 $277 $278 reversed $109 $-1 #
face $-1 $-1 $279 $57 $-1 $280 forward single #
loop $-1 $281 $282 $111 #
cone-surface $-1 5.1264691897459329 24.578177821399436 3.0049853278193517 0 -0.54463904215088732 -0.83867056331134215 0.75 0 0 1 I I -0.70710678118654724 0.70710678118654768 0.75 forward I I I I #
loop $-1 $-1 $283 $72 #
coedge $-1 $178 $178 $284 $285 reversed $112 $-1 #
face $-1 $-1 $286 $58 $-1 $287 forward single #
loop $-1 $288 $289 $114 #
cone-surface $-1 9.6844110054924215 24.578177821399436 3.0049853278193517 0 -0.54463904215088732 -0.83867056331134215 0.75 0 0 1 I I -0.70710678118654724 0.70710678118654768 0.75 forward I I I I #
loop $-1 $-1 $290 $73 #
coedge $-1 $183 $183 $291 $292 reversed $115 $-1 #
face $-1 $-1 $293 $59 $-1 $294 forward single #
loop $-1 $295 $296 $117 #
cone-surface $-1 14.24235282123891 24.578177821399436 3.0049853278193517 0 -0.54463904215088732 -0.83867056331134215 0.75 0 0 1 I I -0.70710678118654724 0.70710678118654768 0.75 forward I I I I #
loop $-1 $-1 $297 $74 #
coedge $-1 $188 $188 $298 $299 reversed $118 $-1 #
face $-1 $300 $301 $45 $-1 $302 reversed single #
loop $-1 $-1 $303 $120 #
plane-surface $-1 0 -30.191776061471728 0 0 1 0 0 0 1 forward_v I I I I #
coedge $-1 $304 $305 $306 $307 forward $121 $-1 #
coedge $-1 $308 $123 $309 $310 forward $76 $-1 #
coedge $-1 $123 $308 $311 $312 forward $76 $-1 #
coedge $-1 $313 $314 $123 $196 reversed $315 $-1 #
edge $-1 $316 -30.191776061471728 $317 30.191776061471728 $195 $318 forward 7 unknown #
face $-1 $319 $320 $46 $-1 $321 reversed single #
loop $-1 $-1 $203 $124 #
plane-surface $-1 -56.951190301704926 0 2.5610964247511152 0 0 1 1 0 0 forward_v I I I I #
coedge $-1 $322 $323 $324 $325 forward $125 $-1 #
coedge $-1 $324 $127 $326 $327 reversed $79 $-1 #
coedge $-1 $127 $324 $328 $329 reversed $79 $-1 #
coedge $-1 $330 $331 $127 $204 forward $198 $-1 #
edge $-1 $332 -30.191776061471728 $333 30.191776061471728 $127 $334 forward 7 unknown #
face $-1 $335 $336 $47 $-1 $337 forward single #
loop $-1 $-1 $338 $128 #
plane-surface $-1 0 0 -7.9337836169714144 0 0 1 1 0 0 forward_v I I I I #
coedge $-1 $339 $340 $210 $341 forward $129 $-1 #
coedge $-1 $342 $131 $343 $344 reversed $82 $-1 #
coedge $-1 $131 $342 $208 $341 reversed $82 $-1 #
coedge $-1 $345 $346 $131 $212 reversed $336 $-1 #
edge $-1 $347 -30.191776061471728 $348 30.191776061471728 $211 $349 forward 7 unknown #
face $-1 $350 $351 $48 $-1 $352 forward single #
loop $-1 $-1 $353 $132 #
plane-surface $-1 0 -30.191776061471728 0 0 1 0 0 0 1 forward_v I I I I #
coedge $-1 $354 $355 $356 $357 reversed $133 $-1 #
coedge $-1 $358 $135 $359 $360 forward $85 $-1 #
coedge $-1 $135 $358 $354 $361 forward $85 $-1 #
coedge $-1 $356 $353 $135 $220 forward $214 $-1 #
edge $-1 $362 -29.916284743225571 $363 -13.931025236367201 $219 $364 forward 7 unknown #
loop $-1 $-1 $226 $136 #
plane-surface $-1 -43.847309979592772 -30.191776061471728 0.42114910662157001 0 -0.70710678939079041 0.70710677298230451 1 0 0 forward_v I I I I #
loop $-1 $-1 $365 $87 #
coedge $-1 $224 $224 $225 $366 reversed $137 $-1 #
coedge $-1 $225 $225 $224 $366 forward $139 $-1 #
coedge $-1 $226 $226 $140 $227 forward $221 $-1 #
edge $-1 $367 6.2803704905499373e-016 $367 6.2831853071796013 $226 $368 forward 7 unknown #
loop $-1 $-1 $233 $141 #
plane-surface $-1 -43.847309979592772 -30.191776061471728 0.42114910662157001 0 -0.70710678939079041 0.70710677298230451 1 0 0 forward_v I I I I #
loop $-1 $-1 $369 $90 #
coedge $-1 $231 $231 $232 $370 reversed $142 $-1 #
coedge $-1 $232 $232 $231 $370 forward $144 $-1 #
coedge $-1 $233 $233 $145 $234 forward $228 $-1 #
edge $-1 $371 6.2803704905499373e-016 $371 6.2831853071796013 $233 $372 forward 7 unknown #
loop $-1 $-1 $240 $146 #
plane-surface $-1 -43.847309979592772 -30.191776061471728 0.42114910662157001 0 -0.70710678939079041 0.70710677298230451 1 0 0 forward_v I I I I #
loop $-1 $-1 $373 $93 #
coedge $-1 $238 $238 $239 $374 reversed $147 $-1 #
coedge $-1 $239 $239 $238 $374 forward $149 $-1 #
coedge $-1 $240 $240 $150 $241 forward $235 $-1 #
edge $-1 $375 6.2803704905499373e-016 $375 6.2831853071796013 $240 $376 forward 7 unknown #
face $-1 $377 $378 $52 $-1 $379 forward single #
loop $-1 $-1 $380 $151 #
plane-surface $-1 53.115175535929325 -117.96132267270323 88.1906936811517 -1 0 0 0 -0.70710678939079041 0.70710677298230451 forward_v I I I I #
coedge $-1 $381 $382 $383 $384 reversed $152 $-1 #
coedge $-1 $247 $154 $385 $386 reversed $97 $-1 #
coedge $-1 $154 $246 $381 $387 reversed $97 $-1 #
coedge $-1 $383 $388 $154 $249 forward $389 $-1 #
edge $-1 $390 36.161563223604432 $391 43.67419773395428 $248 $392 forward 7 unknown #
loop $-1 $-1 $255 $155 #
plane-surface $-1 45.12254578250014 -30.191776061471728 0.42114910662157001 0 -0.70710678939079041 0.70710677298230451 1 0 0 forward_v I I I I #
loop $-1 $-1 $393 $99 #
coedge $-1 $253 $253 $254 $394 reversed $156 $-1 #
coedge $-1 $254 $254 $253 $394 forward $158 $-1 #
coedge $-1 $255 $255 $159 $256 forward $250 $-1 #
edge $-1 $395 6.2803704905499373e-016 $395 6.2831853071796013 $255 $396 forward 7 unknown #
loop $-1 $-1 $262 $160 #
plane-surface $-1 45.12254578250014 -30.191776061471728 0.42114910662157001 0 -0.70710678939079041 0.70710677298230451 1 0 0 forward_v I I I I #
loop $-1 $-1 $397 $102 #
coedge $-1 $260 $260 $261 $398 reversed $161 $-1 #
coedge $-1 $261 $261 $260 $398 forward $163 $-1 #
coedge $-1 $262 $262 $164 $263 forward $257 $-1 #
edge $-1 $399 6.2803704905499373e-016 $399 6.2831853071796013 $262 $400 forward 7 unknown #
loop $-1 $-1 $269 $165 #
plane-surface $-1 45.12254578250014 -30.191776061471728 0.42114910662157001 0 -0.70710678939079041 0.70710677298230451 1 0 0 forward_v I I I I #
loop $-1 $-1 $401 $105 #
coedge $-1 $267 $267 $268 $402 reversed $166 $-1 #
coedge $-1 $268 $268 $267 $402 forward $168 $-1 #
coedge $-1 $269 $269 $169 $270 forward $264 $-1 #
edge $-1 $403 6.2803704905499373e-016 $403 6.2831853071796013 $269 $404 forward 7 unknown #
face $-1 $405 $406 $56 $-1 $407 forward single #
loop $-1 $-1 $408 $170 #
plane-surface $-1 17.280980698403226 47.153125086171244 139.50167223891819 -1 0 0 0 0.54463904215088732 0.83867056331134215 forward_v I I I I #
coedge $-1 $409 $410 $411 $412 reversed $171 $-1 #
coedge $-1 $276 $173 $413 $414 reversed $109 $-1 #
coedge $-1 $173 $275 $409 $415 reversed $109 $-1 #
coedge $-1 $411 $416 $173 $278 forward $406 $-1 #
edge $-1 $417 -6.6152135183861063 $418 1.729677755246442 $277 $419 forward 7 unknown #
loop $-1 $-1 $284 $174 #
plane-surface $-1 9.6844110054924215 -20.450131612217049 35.401787748428035 0 0.54463904215088732 0.83867056331134215 1 0 0 forward_v I I I I #
loop $-1 $-1 $420 $111 #
coedge $-1 $282 $282 $283 $421 reversed $175 $-1 #
coedge $-1 $283 $283 $282 $421 forward $177 $-1 #
coedge $-1 $284 $284 $178 $285 forward $279 $-1 #
edge $-1 $422 3.2249109584304331e-016 $422 6.2831853071796004 $284 $423 forward 7 unknown #
loop $-1 $-1 $291 $179 #
plane-surface $-1 9.6844110054924215 -20.450131612217049 35.401787748428035 0 0.54463904215088732 0.83867056331134215 1 0 0 forward_v I I I I #
loop $-1 $-1 $424 $114 #
coedge $-1 $289 $289 $290 $425 reversed $180 $-1 #
coedge $-1 $290 $290 $289 $425 forward $182 $-1 #
coedge $-1 $291 $291 $183 $292 forward $286 $-1 #
edge $-1 $426 3.2249109584304331e-016 $426 6.2831853071796004 $291 $427 forward 7 unknown #
loop $-1 $-1 $298 $184 #
plane-surface $-1 9.6844110054924215 -20.450131612217049 35.401787748428035 0 0.54463904215088732 0.83867056331134215 1 0 0 forward_v I I I I #
loop $-1 $-1 $428 $117 #
coedge $-1 $296 $296 $297 $429 reversed $185 $-1 #
coedge $-1 $297 $297 $296 $429 forward $187 $-1 #
coedge $-1 $298 $298 $188 $299 forward $293 $-1 #
edge $-1 $430 3.2249109584304331e-016 $430 6.2831853071796004 $298 $431 forward 7 unknown #
face $-1 $432 $433 $45 $-1 $434 reversed single #
loop $-1 $-1 $435 $189 #
plane-surface $-1 -62.062440870387888 0 0 1 0 0 0 0 -1 forward_v I I I I #
coedge $-1 $436 $311 $437 $438 forward $190 $-1 #
coedge $-1 $439 $192 $436 $440 forward $121 $-1 #
coedge $-1 $192 $439 $441 $442 forward $121 $-1 #
coedge $-1 $314 $313 $192 $307 reversed $315 $-1 #
edge $-1 $443 -30.191776061471728 $444 30.191776061471728 $306 $445 forward 7 unknown #
coedge $-1 $194 $193 $446 $447 forward $76 $-1 #
coedge $-1 $448 $449 $193 $310 reversed $433 $-1 #
edge $-1 $317 -62.062440870387888 $450 62.062440870387888 $309 $451 forward 7 unknown #
coedge $-1 $303 $452 $194 $312 reversed $190 $-1 #
edge $-1 $453 -62.062440870387888 $316 62.062440870387888 $311 $454 forward 7 unknown #
coedge $-1 $306 $195 $452 $455 forward $315 $-1 #
coedge $-1 $195 $306 $448 $456 reversed $315 $-1 #
loop $-1 $-1 $314 $432 #
vertex $-1 $196 $457 #
vertex $-1 $196 $458 #
straight-curve $-1 62.062440870387888 0 7.9337836169714144 0 1 0 I I #
face $-1 $459 $460 $46 $-1 $461 reversed single #
loop $-1 $-1 $462 $197 #
plane-surface $-1 0 -30.191776061471728 0 0 1 0 0 0 1 forward_v I I I I #
coedge $-1 $463 $200 $464 $465 reversed $125 $-1 #
coedge $-1 $200 $463 $466 $467 reversed $125 $-1 #
coedge $-1 $202 $201 $200 $325 reversed $79 $-1 #
edge $-1 $468 -30.191776061471728 $469 30.191776061471728 $324 $470 forward 7 unknown #
coedge $-1 $471 $464 $201 $327 forward $472 $-1 #
edge $-1 $469 -3.5305482123755576 $332 -0.5305482123755576 $326 $473 forward 7 unknown #
coedge $-1 $466 $462 $202 $329 forward $320 $-1 #
edge $-1 $333 0.5305482123755576 $468 3.5305482123755576 $328 $474 forward 7 unknown #
coedge $-1 $475 $203 $462 $476 reversed $198 $-1 #
coedge $-1 $203 $475 $471 $477 reversed $198 $-1 #
vertex $-1 $477 $478 #
vertex $-1 $476 $479 #
straight-curve $-1 -51.839939733021964 0 2.5610964247511152 0 -1 0 I I #
face $-1 $480 $481 $47 $-1 $482 reversed single #
loop $-1 $-1 $483 $205 #
plane-surface $-1 66.536073537617199 0 -4.9337836169714144 0 0 1 1 0 0 forward_v I I I I #
coedge $-1 $484 $485 $342 $486 forward $206 $-1 #
coedge $-1 $487 $208 $485 $488 reversed $129 $-1 #
coedge $-1 $208 $487 $345 $489 reversed $129 $-1 #
edge $-1 $347 4.9337836169714144 $490 7.9337836169714144 $208 $491 forward 7 unknown #
coedge $-1 $210 $209 $338 $486 reversed $82 $-1 #
coedge $-1 $492 $493 $209 $344 forward $494 $-1 #
edge $-1 $495 -7.9337836169714144 $348 -4.9337836169714144 $343 $496 forward 7 unknown #
coedge $-1 $483 $211 $340 $489 forward $336 $-1 #
coedge $-1 $211 $483 $492 $497 forward $336 $-1 #
vertex $-1 $341 $498 #
vertex $-1 $497 $499 #
straight-curve $-1 62.062440870387888 0 -4.9337836169714144 0 1 0 I I #
face $-1 $-1 $500 $48 $-1 $501 forward single #
loop $-1 $-1 $359 $213 #
plane-surface $-1 -51.839939733021964 0 4.0610964247511152 -1 0 0 0 0 1 forward_v I I I I #
coedge $-1 $219 $502 $503 $504 forward $214 $-1 #
coedge $-1 $355 $216 $218 $361 reversed $133 $-1 #
coedge $-1 $216 $354 $505 $506 reversed $133 $-1 #
coedge $-1 $502 $219 $216 $357 forward $214 $-1 #
edge $-1 $363 -43.67419773395428 $507 -36.161563223604432 $356 $508 forward 7 unknown #
coedge $-1 $218 $217 $509 $510 reversed $85 $-1 #
coedge $-1 $503 $511 $217 $360 reversed $351 $-1 #
edge $-1 $362 0 $512 10.624469490417955 $359 $513 forward 7 unknown #
edge $-1 $514 -10.624469490417955 $363 0 $354 $515 forward 7 unknown #
vertex $-1 $220 $516 #
vertex $-1 $220 $517 #
straight-curve $-1 -21.923654989796386 -30.191776061471728 0.42114910662157001 1 0 0 I I #
coedge $-1 $365 $365 $-1 $518 reversed $223 $-1 #
edge $-1 $519 0 $519 6.2831853071796004 $224 $520 forward 7 unknown #
vertex $-1 $227 $521 #
ellipse-curve $-1 -48.642887831650285 -26.435458893462535 4.1774663617964913 0 -0.70710678939079041 0.70710677298230451 1 0 0 1 I I #
coedge $-1 $369 $369 $-1 $522 reversed $230 $-1 #
edge $-1 $523 0 $523 6.2831853071796004 $231 $524 forward 7 unknown #
vertex $-1 $234 $525 #
ellipse-curve $-1 -43.847309979592772 -26.435458893462535 4.1774663617964913 0 -0.70710678939079041 0.70710677298230451 1 0 0 1 I I #
coedge $-1 $373 $373 $-1 $526 reversed $237 $-1 #
edge $-1 $527 0 $527 6.2831853071796004 $238 $528 forward 7 unknown #
vertex $-1 $241 $529 #
ellipse-curve $-1 -39.05173212753526 -26.435458893462535 4.1774663617964913 0 -0.70710678939079041 0.70710677298230451 1 0 0 1 I I #
face $-1 $-1 $389 $52 $-1 $530 reversed single #
loop $-1 $-1 $531 $242 #
plane-surface $-1 0 0 7.9337836169714144 0 0 1 1 0 0 forward_v I I I I #
coedge $-1 $532 $533 $534 $535 reversed $243 $-1 #
coedge $-1 $536 $245 $247 $387 forward $152 $-1 #
coedge $-1 $245 $536 $532 $537 forward $152 $-1 #
coedge $-1 $534 $248 $245 $384 forward $389 $-1 #
edge $-1 $391 14.568643137820885 $538 30.553902644679255 $383 $539 forward 7 unknown #
coedge $-1 $540 $541 $246 $386 forward $378 $-1 #
edge $-1 $542 -36.301519610898275 $390 -28.788885274879888 $385 $543 forward 7 unknown #
edge $-1 $391 0 $542 10.624469490417955 $247 $544 forward 7 unknown #
coedge $-1 $248 $534 $540 $545 reversed $389 $-1 #
loop $-1 $-1 $534 $377 #
vertex $-1 $545 $546 #
vertex $-1 $249 $547 #
straight-curve $-1 37.129916029070955 -30.191776061471728 44.09534684057585 0 0 -1 I I #
coedge $-1 $393 $393 $-1 $548 reversed $252 $-1 #
edge $-1 $549 0 $549 6.2831853071796004 $253 $550 forward 7 unknown #
vertex $-1 $256 $551 #
ellipse-curve $-1 40.326967930442621 -26.435458893462535 4.1774663617964913 0 -0.70710678939079041 0.70710677298230451 1 0 0 1 I I #
coedge $-1 $397 $397 $-1 $552 reversed $259 $-1 #
edge $-1 $553 0 $553 6.2831853071796004 $260 $554 forward 7 unknown #
vertex $-1 $263 $555 #
ellipse-curve $-1 45.12254578250014 -26.435458893462535 4.1774663617964913 0 -0.70710678939079041 0.70710677298230451 1 0 0 1 I I #
coedge $-1 $401 $401 $-1 $556 reversed $266 $-1 #
edge $-1 $557 0 $557 6.2831853071796004 $267 $558 forward 7 unknown #
vertex $-1 $270 $559 #
ellipse-curve $-1 49.918123634557645 -26.435458893462535 4.1774663617964913 0 -0.70710678939079041 0.70710677298230451 1 0 0 1 I I #
face $-1 $-1 $560 $56 $-1 $561 reversed single #
loop $-1 $-1 $277 $271 #
plane-surface $-1 0 0 7.9337836169714144 0 0 1 1 0 0 forward_v I I I I #
coedge $-1 $562 $563 $564 $565 reversed $272 $-1 #
coedge $-1 $566 $274 $276 $415 forward $171 $-1 #
coedge $-1 $274 $566 $562 $567 forward $171 $-1 #
coedge $-1 $564 $277 $274 $412 forward $406 $-1 #
edge $-1 $418 -2.7543641901645941 $568 12.438775195657016 $411 $569 forward 7 unknown #
coedge $-1 $570 $571 $275 $414 forward $560 $-1 #
edge $-1 $572 -67.23628836093917 $417 -61.817052502487684 $413 $573 forward 7 unknown #
edge $-1 $418 50.433410030577384 $572 60.383552122943456 $276 $574 forward 7 unknown #
coedge $-1 $277 $564 $570 $575 forward $406 $-1 #
vertex $-1 $278 $576 #
vertex $-1 $278 $577 #
straight-curve $-1 2.0878413125816166 23.576562543085622 7.9337836169714109 0 -1 0 I I #
coedge $-1 $420 $420 $-1 $578 reversed $281 $-1 #
edge $-1 $579 0 $579 6.2831853071796004 $282 $580 forward 7 unknown #
vertex $-1 $285 $581 #
ellipse-curve $-1 5.1264691897459329 26.019330424655454 5.2241656877456739 0 0.54463904215088732 0.83867056331134215 1.5 0 0 1 I I #
coedge $-1 $424 $424 $-1 $582 reversed $288 $-1 #
edge $-1 $583 0 $583 6.2831853071796004 $289 $584 forward 7 unknown #
vertex $-1 $292 $585 #
ellipse-curve $-1 9.6844110054924215 26.019330424655454 5.2241656877456739 0 0.54463904215088732 0.83867056331134215 1.5 0 0 1 I I #
coedge $-1 $428 $428 $-1 $586 reversed $295 $-1 #
edge $-1 $587 0 $587 6.2831853071796004 $296 $588 forward 7 unknown #
vertex $-1 $299 $589 #
ellipse-curve $-1 14.24235282123891 26.019330424655454 5.2241656877456739 0 0.54463904215088732 0.83867056331134215 1.5 0 0 1 I I #
face $-1 $-1 $315 $45 $-1 $590 reversed single #
loop $-1 $-1 $448 $300 #
plane-surface $-1 0 30.191776061471728 0 0 -1 0 0 0 -1 forward_v I I I I #
coedge $-1 $591 $446 $449 $592 forward $301 $-1 #
coedge $-1 $452 $303 $304 $440 reversed $190 $-1 #
coedge $-1 $446 $591 $303 $438 reversed $301 $-1 #
edge $-1 $453 -7.9337836169714144 $593 7.9337836169714144 $437 $594 forward 7 unknown #
coedge $-1 $305 $304 $591 $595 forward $121 $-1 #
edge $-1 $444 -62.062440870387888 $593 62.062440870387888 $436 $596 forward 7 unknown #
coedge $-1 $449 $448 $305 $442 reversed $433 $-1 #
edge $-1 $597 -62.062440870387888 $443 62.062440870387888 $441 $598 forward 7 unknown #
vertex $-1 $307 $599 #
vertex $-1 $455 $600 #
straight-curve $-1 62.062440870387888 0 -7.9337836169714144 0 -1 0 I I #
coedge $-1 $435 $437 $308 $447 reversed $301 $-1 #
edge $-1 $450 -30.191776061471728 $453 30.191776061471728 $446 $601 forward 7 unknown #
coedge $-1 $441 $309 $314 $456 forward $433 $-1 #
coedge $-1 $309 $441 $435 $592 reversed $433 $-1 #
vertex $-1 $310 $602 #
straight-curve $-1 0 30.191776061471728 7.9337836169714144 -1 0 0 I I #
coedge $-1 $311 $436 $313 $455 reversed $190 $-1 #
vertex $-1 $447 $603 #
straight-curve $-1 0 -30.191776061471728 7.9337836169714144 1 0 0 I I #
edge $-1 $316 -7.9337836169714144 $444 7.9337836169714144 $313 $604 forward 7 unknown #
edge $-1 $317 -7.9337836169714144 $443 7.9337836169714144 $314 $605 forward 7 unknown #
point $-1 62.062440870387888 -30.191776061471728 7.9337836169714144 #
point $-1 62.062440870387888 30.191776061471728 7.9337836169714144 #
face $-1 $-1 $472 $46 $-1 $606 reversed single #
loop $-1 $-1 $607 $319 #
plane-surface $-1 -62.062440870387888 0 0 1 0 0 0 0 -1 forward_v I I I I #
coedge $-1 $328 $608 $330 $476 forward $320 $-1 #
coedge $-1 $323 $322 $609 $610 reversed $125 $-1 #
coedge $-1 $326 $611 $322 $465 forward $472 $-1 #
edge $-1 $612 -33.586845719535425 $469 -23.364344582169501 $464 $613 forward 7 unknown #
coedge $-1 $608 $328 $323 $467 forward $320 $-1 #
edge $-1 $468 23.364344582169501 $614 33.586845719535425 $466 $615 forward 7 unknown #
vertex $-1 $467 $616 #
vertex $-1 $465 $617 #
straight-curve $-1 -51.839939733021964 0 5.5610964247511152 0 1 0 I I #
coedge $-1 $611 $326 $331 $477 forward $472 $-1 #
loop $-1 $-1 $471 $459 #
straight-curve $-1 -51.839939733021964 30.191776061471728 2.0305482123755576 0 0 -1 I I #
straight-curve $-1 -51.839939733021964 -30.191776061471728 2.0305482123755576 0 0 1 I I #
coedge $-1 $331 $330 $607 $618 reversed $198 $-1 #
edge $-1 $619 -33.586845719535425 $333 -23.364344582169501 $462 $620 forward 7 unknown #
edge $-1 $332 23.364344582169501 $621 33.586845719535425 $471 $622 forward 7 unknown #
point $-1 -51.839939733021964 30.191776061471728 2.5610964247511152 #
point $-1 -51.839939733021964 -30.191776061471728 2.5610964247511152 #
face $-1 $-1 $494 $47 $-1 $623 reversed single #
loop $-1 $-1 $624 $335 #
plane-surface $-1 71.009706204846495 0 -6.4337836169714144 -1 0 0 0 0 1 forward_v I I I I #
coedge $-1 $346 $345 $625 $626 forward $336 $-1 #
coedge $-1 $627 $338 $493 $628 forward $206 $-1 #
coedge $-1 $338 $627 $339 $488 forward $206 $-1 #
edge $-1 $490 -30.191776061471728 $495 30.191776061471728 $338 $629 forward 7 unknown #
coedge $-1 $340 $339 $624 $630 reversed $129 $-1 #
edge $-1 $631 -4.4736326672292961 $490 4.4736326672293103 $339 $632 forward 7 unknown #
edge $-1 $347 -4.4736326672292961 $633 4.4736326672292961 $340 $634 forward 7 unknown #
vertex $-1 $486 $635 #
straight-curve $-1 62.062440870387888 -30.191776061471728 0 0 0 -1 I I #
coedge $-1 $636 $343 $346 $497 reversed $494 $-1 #
coedge $-1 $343 $636 $484 $628 reversed $494 $-1 #
loop $-1 $-1 $343 $480 #
vertex $-1 $628 $637 #
straight-curve $-1 62.062440870387888 30.191776061471728 0 0 0 1 I I #
edge $-1 $638 -4.4736326672292961 $348 4.4736326672292961 $492 $639 forward 7 unknown #
point $-1 62.062440870387903 -30.191776061471728 -4.9337836169714144 #
point $-1 62.062440870387903 30.191776061471728 -4.9337836169714144 #
loop $-1 $-1 $640 $350 #
plane-surface $-1 0 0 7.9337836169714144 0 0 1 1 0 0 forward_v I I I I #
coedge $-1 $353 $356 $641 $642 reversed $214 $-1 #
coedge $-1 $511 $359 $353 $504 reversed $351 $-1 #
edge $-1 $643 36.161563223604432 $362 43.67419773395428 $353 $644 forward 7 unknown #
coedge $-1 $509 $641 $355 $506 forward $500 $-1 #
edge $-1 $507 28.788885274879888 $514 36.301519610898275 $505 $645 forward 7 unknown #
vertex $-1 $357 $646 #
straight-curve $-1 -35.854680226163588 -30.191776061471728 44.09534684057585 0 0 1 I I #
coedge $-1 $640 $505 $358 $510 forward $500 $-1 #
edge $-1 $514 13.931025236367201 $512 29.916284743225571 $509 $647 forward 7 unknown #
coedge $-1 $359 $503 $640 $648 reversed $351 $-1 #
vertex $-1 $648 $649 #
straight-curve $-1 -51.839939733021957 -30.191776061471728 0.42114910662157001 0 0.70710677298230451 0.70710678939079041 I I #
vertex $-1 $510 $650 #
straight-curve $-1 -35.854680226163588 -30.191776061471728 0.42114910662157001 0 -0.70710677298230451 -0.70710678939079041 I I #
point $-1 -51.839939733021957 -30.191776061471728 0.42114910662157001 #
point $-1 -35.854680226163588 -30.191776061471728 0.42114910662157001 #
edge $-1 $651 1 $651 0 $365 $-1 forward 7 unknown #
vertex $-1 $366 $652 #
ellipse-curve $-1 -48.642887831650285 -23.673325020515257 1.4153325529448133 0 -0.70710678939079041 0.70710677298230451 1 0 0 1 I I #
point $-1 -47.642887831650285 -26.435458893462538 4.1774663617964958 #
edge $-1 $653 1 $653 0 $369 $-1 forward 7 unknown #
vertex $-1 $370 $654 #
ellipse-curve $-1 -43.847309979592772 -23.673325020515257 1.4153325529448133 0 -0.70710678939079041 0.70710677298230451 1 0 0 1 I I #
point $-1 -42.847309979592772 -26.435458893462538 4.1774663617964958 #
edge $-1 $655 1 $655 0 $373 $-1 forward 7 unknown #
vertex $-1 $374 $656 #
ellipse-curve $-1 -39.05173212753526 -23.673325020515257 1.4153325529448133 0 -0.70710678939079041 0.70710677298230451 1 0 0 1 I I #
point $-1 -38.05173212753526 -26.435458893462538 4.1774663617964958 #
plane-surface $-1 0 -30.191776061471728 0 0 1 0 0 0 1 forward_v I I I I #
coedge $-1 $541 $540 $533 $657 forward $378 $-1 #
coedge $-1 $533 $380 $382 $537 reversed $243 $-1 #
coedge $-1 $380 $532 $531 $657 reversed $243 $-1 #
coedge $-1 $388 $383 $380 $535 forward $389 $-1 #
edge $-1 $538 -43.67419773395428 $658 -36.161563223604432 $534 $659 forward 7 unknown #
coedge $-1 $382 $381 $541 $660 reversed $152 $-1 #
edge $-1 $661 -10.624469490417955 $538 0 $532 $662 forward 7 unknown #
vertex $-1 $384 $663 #
straight-curve $-1 22.56127289125007 -30.191776061471728 0.42114910662157001 1 0 0 I I #
coedge $-1 $531 $385 $388 $545 forward $378 $-1 #
coedge $-1 $385 $531 $536 $660 forward $378 $-1 #
vertex $-1 $386 $664 #
straight-curve $-1 37.129916029070955 -58.980661336351616 7.9337836169714109 0 -1 0 I I #
straight-curve $-1 37.129916029070955 -30.191776061471728 0.42114910662157001 0 0.70710677298230451 0.70710678939079041 I I #
edge $-1 $390 37.129916029070955 $658 53.115175535929325 $388 $665 forward 7 unknown #
point $-1 37.129916029070955 -30.191776061471728 7.9337836169714144 #
point $-1 37.129916029070955 -30.191776061471728 0.42114910662157001 #
edge $-1 $666 1 $666 0 $393 $-1 forward 7 unknown #
vertex $-1 $394 $667 #
ellipse-curve $-1 40.326967930442621 -23.673325020515257 1.4153325529448133 0 -0.70710678939079041 0.70710677298230451 1 0 0 1 I I #
point $-1 41.326967930442621 -26.435458893462538 4.1774663617964958 #
edge $-1 $668 1 $668 0 $397 $-1 forward 7 unknown #
vertex $-1 $398 $669 #
ellipse-curve $-1 45.12254578250014 -23.673325020515257 1.4153325529448133 0 -0.70710678939079041 0.70710677298230451 1 0 0 1 I I #
point $-1 46.12254578250014 -26.435458893462538 4.1774663617964958 #
edge $-1 $670 1 $670 0 $401 $-1 forward 7 unknown #
vertex $-1 $402 $671 #
ellipse-curve $-1 49.918123634557645 -23.673325020515257 1.4153325529448133 0 -0.70710678939079041 0.70710677298230451 1 0 0 1 I I #
point $-1 50.918123634557645 -26.435458893462538 4.1774663617964958 #
loop $-1 $-1 $413 $405 #
plane-surface $-1 0 30.191776061471728 0 0 -1 0 0 0 -1 forward_v I I I I #
coedge $-1 $563 $408 $410 $567 reversed $272 $-1 #
coedge $-1 $408 $562 $672 $673 reversed $272 $-1 #
coedge $-1 $416 $411 $408 $565 forward $406 $-1 #
edge $-1 $568 -1.729677755246442 $674 6.6152135183861063 $564 $675 forward 7 unknown #
coedge $-1 $410 $409 $571 $676 reversed $171 $-1 #
edge $-1 $677 -60.383552122943456 $568 -50.433410030577384 $562 $678 forward 7 unknown #
vertex $-1 $412 $679 #
straight-curve $-1 4.8422055027462108 21.84688478783918 7.9337836169714144 1 0 0 I I #
coedge $-1 $672 $413 $416 $575 reversed $560 $-1 #
coedge $-1 $413 $672 $566 $676 forward $560 $-1 #
vertex $-1 $414 $680 #
straight-curve $-1 2.0878413125816166 30.191776061471728 69.750836119459095 0 0 1 I I #
straight-curve $-1 2.0878413125816166 -20.450131612217049 35.401787748428035 0 0.83867056331134215 -0.54463904215088732 I I #
edge $-1 $674 -17.280980698403226 $417 -2.0878413125816166 $570 $681 forward 7 unknown #
point $-1 2.0878413125816166 30.191776061471728 7.9337836169714144 #
point $-1 2.0878413125816166 21.84688478783918 7.9337836169714144 #
edge $-1 $682 1 $682 0 $420 $-1 forward 7 unknown #
vertex $-1 $421 $683 #
ellipse-curve $-1 5.1264691897459329 24.9866571030126 3.6339882503028589 0 0.54463904215088732 0.83867056331134215 1.5 0 0 1 I I #
point $-1 6.6264691897459329 26.019330424655454 5.224165687745673 #
edge $-1 $684 1 $684 0 $424 $-1 forward 7 unknown #
vertex $-1 $425 $685 #
ellipse-curve $-1 9.6844110054924215 24.9866571030126 3.6339882503028589 0 0.54463904215088732 0.83867056331134215 1.5 0 0 1 I I #
point $-1 11.184411005492422 26.019330424655454 5.224165687745673 #
edge $-1 $686 1 $686 0 $428 $-1 forward 7 unknown #
vertex $-1 $429 $687 #
ellipse-curve $-1 14.24235282123891 24.9866571030126 3.6339882503028589 0 0.54463904215088732 0.83867056331134215 1.5 0 0 1 I I #
point $-1 15.74235282123891 26.019330424655454 5.224165687745673 #
plane-surface $-1 62.062440870387888 0 0 -1 0 0 0 0 1 forward_v I I I I #
coedge $-1 $437 $435 $439 $595 reversed $301 $-1 #
edge $-1 $450 -7.9337836169714144 $597 7.9337836169714144 $449 $688 forward 7 unknown #
vertex $-1 $595 $689 #
straight-curve $-1 -62.062440870387888 -30.191776061471728 0 0 0 -1 I I #
edge $-1 $593 -30.191776061471728 $597 30.191776061471728 $591 $690 forward 7 unknown #
straight-curve $-1 0 -30.191776061471728 -7.9337836169714144 -1 0 0 I I #
vertex $-1 $442 $691 #
straight-curve $-1 0 30.191776061471728 -7.9337836169714144 1 0 0 I I #
point $-1 62.062440870387888 30.191776061471728 -7.9337836169714144 #
point $-1 62.062440870387888 -30.191776061471728 -7.9337836169714144 #
straight-curve $-1 -62.062440870387888 0 7.9337836169714144 0 -1 0 I I #
point $-1 -62.062440870387888 30.191776061471728 7.9337836169714144 #
point $-1 -62.062440870387888 -30.191776061471728 7.9337836169714144 #
straight-curve $-1 62.062440870387888 -30.191776061471728 0 0 0 -1 I I #
straight-curve $-1 62.062440870387888 30.191776061471728 0 0 0 -1 I I #
plane-surface $-1 0 30.191776061471728 0 0 -1 0 0 0 -1 forward_v I I I I #
coedge $-1 $692 $693 $475 $618 forward $460 $-1 #
coedge $-1 $462 $466 $692 $694 forward $320 $-1 #
coedge $-1 $693 $692 $463 $610 forward $460 $-1 #
edge $-1 $614 -30.191776061471728 $612 30.191776061471728 $609 $695 forward 7 unknown #
coedge $-1 $464 $471 $693 $696 reversed $472 $-1 #
vertex $-1 $696 $697 #
straight-curve $-1 -28.475595150852463 30.191776061471728 5.5610964247511152 1 0 0 I I #
vertex $-1 $694 $698 #
straight-curve $-1 -28.475595150852463 -30.191776061471728 5.5610964247511152 -1 0 0 I I #
point $-1 -51.839939733021964 -30.191776061471728 5.5610964247511152 #
point $-1 -51.839939733021964 30.191776061471728 5.5610964247511152 #
edge $-1 $621 -30.191776061471728 $619 30.191776061471728 $607 $699 forward 7 unknown #
vertex $-1 $476 $700 #
straight-curve $-1 -28.475595150852463 -30.191776061471728 2.5610964247511152 1 0 0 I I #
vertex $-1 $477 $701 #
straight-curve $-1 -28.475595150852463 30.191776061471728 2.5610964247511152 -1 0 0 I I #
plane-surface $-1 0 30.191776061471728 0 0 -1 0 0 0 -1 forward_v I I I I #
coedge $-1 $702 $625 $487 $630 forward $481 $-1 #
coedge $-1 $624 $703 $483 $626 reversed $481 $-1 #
edge $-1 $633 -30.191776061471728 $638 30.191776061471728 $625 $704 forward 7 unknown #
coedge $-1 $485 $484 $702 $705 forward $206 $-1 #
edge $-1 $495 -4.4736326672293103 $706 4.4736326672292961 $493 $707 forward 7 unknown #
straight-curve $-1 62.062440870387888 0 -7.9337836169714144 0 1 0 I I #
edge $-1 $633 -1.5 $631 1.5 $624 $708 forward 7 unknown #
vertex $-1 $630 $709 #
straight-curve $-1 66.536073537617199 -30.191776061471728 -7.9337836169714144 -1 0 0 I I #
vertex $-1 $626 $710 #
straight-curve $-1 66.536073537617199 -30.191776061471728 -4.9337836169714144 1 0 0 I I #
point $-1 62.062440870387888 -30.191776061471728 -7.9337836169714144 #
coedge $-1 $493 $492 $703 $711 forward $494 $-1 #
point $-1 62.062440870387888 30.191776061471728 -7.9337836169714144 #
vertex $-1 $626 $712 #
straight-curve $-1 66.536073537617199 30.191776061471728 -4.9337836169714144 -1 0 0 I I #
coedge $-1 $641 $509 $511 $648 forward $500 $-1 #
coedge $-1 $505 $640 $502 $642 forward $500 $-1 #
edge $-1 $643 -51.839939733021957 $507 -35.854680226163588 $502 $713 forward 7 unknown #
vertex $-1 $642 $714 #
straight-curve $-1 -51.839939733021957 -30.191776061471728 44.09534684057585 0 0 -1 I I #
straight-curve $-1 -35.854680226163588 -58.980661336351616 7.9337836169714109 0 1 0 I I #
point $-1 -35.854680226163588 -30.191776061471728 7.9337836169714144 #
straight-curve $-1 -21.923654989796386 -22.679141725453341 7.9337836169714144 -1 0 0 I I #
edge $-1 $512 -36.301519610898275 $643 -28.788885274879888 $640 $715 forward 7 unknown #
point $-1 -51.839939733021957 -22.679141725453341 7.9337836169714144 #
point $-1 -35.854680226163588 -22.679141725453341 7.9337836169714144 #
vertex $-1 $518 $716 #
point $-1 -47.642887831650285 -23.673325020515257 1.4153325529448133 #
vertex $-1 $522 $717 #
point $-1 -42.847309979592772 -23.673325020515257 1.4153325529448133 #
vertex $-1 $526 $718 #
point $-1 -38.05173212753526 -23.673325020515257 1.4153325529448133 #
edge $-1 $658 28.788885274879888 $661 36.301519610898275 $531 $719 forward 7 unknown #
vertex $-1 $657 $720 #
straight-curve $-1 53.115175535929325 -30.191776061471728 44.09534684057585 0 0 1 I I #
edge $-1 $661 -30.553902644679255 $542 -14.568643137820885 $541 $721 forward 7 unknown #
vertex $-1 $660 $722 #
straight-curve $-1 53.115175535929325 -30.191776061471728 0.42114910662157001 0 -0.70710677298230451 -0.70710678939079041 I I #
point $-1 53.115175535929325 -30.191776061471728 0.42114910662157001 #
point $-1 37.129916029070955 -22.679141725453341 7.9337836169714144 #
straight-curve $-1 0 -30.191776061471728 7.9337836169714144 1 0 0 I I #
vertex $-1 $548 $723 #
point $-1 41.326967930442621 -23.673325020515257 1.4153325529448133 #
vertex $-1 $552 $724 #
point $-1 46.12254578250014 -23.673325020515257 1.4153325529448133 #
vertex $-1 $556 $725 #
point $-1 50.918123634557645 -23.673325020515257 1.4153325529448133 #
coedge $-1 $571 $570 $563 $673 forward $560 $-1 #
edge $-1 $674 61.817052502487684 $677 67.23628836093917 $672 $726 forward 7 unknown #
vertex $-1 $575 $727 #
straight-curve $-1 17.280980698403226 23.576562543085622 7.9337836169714109 0 1 0 I I #
edge $-1 $677 -12.438775195657016 $572 2.7543641901645941 $571 $728 forward 7 unknown #
vertex $-1 $676 $729 #
straight-curve $-1 17.280980698403226 -20.450131612217049 35.401787748428035 0 -0.83867056331134215 0.54463904215088732 I I #
point $-1 17.280980698403226 21.84688478783918 7.9337836169714144 #
point $-1 2.0878413125816166 30.191776061471728 2.5145477585199316 #
straight-curve $-1 0 30.191776061471728 7.9337836169714144 -1 0 0 I I #
vertex $-1 $578 $730 #
point $-1 6.6264691897459329 24.9866571030126 3.6339882503028589 #
vertex $-1 $582 $731 #
point $-1 11.184411005492422 24.9866571030126 3.6339882503028589 #
vertex $-1 $586 $732 #
point $-1 15.74235282123891 24.9866571030126 3.6339882503028589 #
straight-curve $-1 -62.062440870387888 30.191776061471728 0 0 0 -1 I I #
point $-1 -62.062440870387888 -30.191776061471728 -7.9337836169714144 #
straight-curve $-1 -62.062440870387888 0 -7.9337836169714144 0 1 0 I I #
point $-1 -62.062440870387888 30.191776061471728 -7.9337836169714144 #
coedge $-1 $609 $607 $608 $694 reversed $460 $-1 #
coedge $-1 $607 $609 $611 $696 forward $460 $-1 #
edge $-1 $614 -5.5610964247511152 $619 -2.5610964247511152 $692 $733 forward 7 unknown #
straight-curve $-1 -62.062440870387888 0 5.5610964247511152 0 1 0 I I #
edge $-1 $612 -5.5610964247511152 $621 -2.5610964247511152 $611 $734 forward 7 unknown #
point $-1 -62.062440870387888 30.191776061471728 5.5610964247511152 #
point $-1 -62.062440870387888 -30.191776061471728 5.5610964247511152 #
straight-curve $-1 -62.062440870387888 0 2.5610964247511152 0 -1 0 I I #
point $-1 -62.062440870387888 -30.191776061471728 2.5610964247511152 #
point $-1 -62.062440870387888 30.191776061471728 2.5610964247511152 #
coedge $-1 $703 $624 $627 $705 reversed $481 $-1 #
coedge $-1 $625 $702 $636 $711 reversed $481 $-1 #
straight-curve $-1 71.009706204846495 0 -4.9337836169714144 0 1 0 I I #
edge $-1 $706 -30.191776061471728 $631 30.191776061471728 $702 $735 forward 7 unknown #
vertex $-1 $705 $736 #
straight-curve $-1 66.536073537617199 30.191776061471728 -7.9337836169714144 1 0 0 I I #
straight-curve $-1 71.009706204846495 -30.191776061471728 -6.4337836169714144 0 0 -1 I I #
point $-1 71.009706204846495 -30.191776061471728 -7.9337836169714144 #
point $-1 71.009706204846495 -30.191776061471728 -4.9337836169714144 #
edge $-1 $638 -1.5 $706 1.5 $703 $737 forward 7 unknown #
point $-1 71.009706204846495 30.191776061471728 -4.9337836169714144 #
straight-curve $-1 0 -30.191776061471728 7.9337836169714144 1 0 0 I I #
point $-1 -51.839939733021957 -30.191776061471728 7.9337836169714144 #
straight-curve $-1 -51.839939733021957 -58.980661336351616 7.9337836169714109 0 -1 0 I I #
point $-1 -48.642887831650285 -22.966218231124465 0.70822577996250891 #
point $-1 -43.847309979592772 -22.966218231124465 0.70822577996250891 #
point $-1 -39.05173212753526 -22.966218231124465 0.70822577996250891 #
straight-curve $-1 53.115175535929325 -58.980661336351616 7.9337836169714109 0 1 0 I I #
point $-1 53.115175535929325 -30.191776061471728 7.9337836169714144 #
straight-curve $-1 22.56127289125007 -22.679141725453341 7.9337836169714144 -1 0 0 I I #
point $-1 53.115175535929325 -22.679141725453341 7.9337836169714144 #
point $-1 40.326967930442621 -22.966218231124465 0.70822577996250891 #
point $-1 45.12254578250014 -22.966218231124465 0.70822577996250891 #
point $-1 49.918123634557645 -22.966218231124465 0.70822577996250891 #
straight-curve $-1 17.280980698403226 30.191776061471728 69.750836119459095 0 0 -1 I I #
point $-1 17.280980698403226 30.191776061471728 7.9337836169714144 #
straight-curve $-1 4.8422055027462108 30.191776061471728 2.5145477585199316 -1 0 0 I I #
point $-1 17.280980698403226 30.191776061471728 2.5145477585199316 #
point $-1 5.1264691897459329 24.169698539786271 2.3759824053358445 #
point $-1 9.6844110054924215 24.169698539786271 2.3759824053358445 #
point $-1 14.24235282123891 24.169698539786271 2.3759824053358445 #
straight-curve $-1 -62.062440870387888 -30.191776061471728 0 0 0 -1 I I #
straight-curve $-1 -62.062440870387888 30.191776061471728 0 0 0 -1 I I #
straight-curve $-1 71.009706204846495 0 -7.9337836169714144 0 -1 0 I I #
point $-1 71.009706204846495 30.191776061471728 -7.9337836169714144 #
straight-curve $-1 71.009706204846495 30.191776061471728 -6.4337836169714144 0 0 -1 I I #
End-of-ACIS-data 