500 0 8 0           
7 Unknown 11 ACIS 5.0 NT 24 Thu Mar 25 19:12:02 1999 
-1 9.9999999999999995e-007 1e-010 
body $-1 $8 $-1 $9 #
body $-1 $10 $-1 $11 #
body $-1 $12 $-1 $13 #
body $-1 $14 $-1 $15 #
body $-1 $16 $-1 $17 #
body $-1 $18 $-1 $19 #
body $-1 $20 $-1 $21 #
body $-1 $22 $-1 $23 #
lump $-1 $-1 $24 $0 #
transform $-1 1 0 0 0 1 0 0 0 1 70.114444410534986 41.731863962211428 13.813148904731976 1 rotate no_reflect no_shear #
lump $-1 $-1 $25 $1 #
transform $-1 1 0 0 0 1 0 0 0 1 70.114444410534986 41.731863962211428 13.813148904731976 1 rotate no_reflect no_shear #
lump $-1 $-1 $26 $2 #
transform $-1 1 0 0 0 1 0 0 0 1 70.114444410534986 41.731863962211428 13.813148904731976 1 rotate no_reflect no_shear #
lump $-1 $-1 $27 $3 #
transform $-1 1 0 0 0 1 0 0 0 1 70.114444410534986 41.731863962211428 13.813148904731976 1 rotate no_reflect no_shear #
lump $-1 $-1 $28 $4 #
transform $-1 1 0 0 0 1 0 0 0 1 70.114444410534986 41.731863962211428 13.813148904731976 1 rotate no_reflect no_shear #
lump $-1 $-1 $29 $5 #
transform $-1 1 0 0 0 1 0 0 0 1 70.114444410534986 41.731863962211428 13.813148904731976 1 rotate no_reflect no_shear #
lump $-1 $-1 $30 $6 #
transform $-1 1 0 0 0 1 0 0 0 1 70.114444410534986 41.731863962211428 13.813148904731976 1 rotate no_reflect no_shear #
lump $-1 $-1 $31 $7 #
transform $-1 1 0 0 0 1 0 0 0 1 70.114444410534986 41.731863962211428 13.813148904731976 1 rotate no_reflect no_shear #
shell $-1 $-1 $-1 $32 $-1 $8 #
shell $-1 $-1 $-1 $33 $-1 $10 #
shell $-1 $-1 $-1 $34 $-1 $12 #
shell $-1 $-1 $-1 $35 $-1 $14 #
shell $-1 $-1 $-1 $36 $-1 $16 #
shell $-1 $-1 $-1 $37 $-1 $18 #
shell $-1 $-1 $-1 $38 $-1 $20 #
shell $-1 $-1 $-1 $39 $-1 $22 #
face $-1 $40 $41 $24 $-1 $42 forward single #
face $-1 $43 $44 $25 $-1 $45 forward single #
face $-1 $46 $47 $26 $-1 $48 reversed single #
face $-1 $49 $50 $27 $-1 $51 forward single #
face $-1 $52 $53 $28 $-1 $54 forward single #
face $-1 $55 $56 $29 $-1 $57 reversed single #
face $-1 $58 $59 $30 $-1 $60 forward single #
face $-1 $61 $62 $31 $-1 $63 forward single #
face $-1 $64 $65 $24 $-1 $66 reversed single #
loop $-1 $-1 $67 $32 #
plane-surface $-1 0 0 13.813148904731976 0 0 1 1 0 0 forward_v I I I I #
face $-1 $68 $69 $25 $-1 $70 reversed single #
loop $-1 $-1 $71 $33 #
plane-surface $-1 0 -41.731863962211428 0 0 1 0 0 0 1 forward_v I I I I #
face $-1 $72 $73 $26 $-1 $74 reversed single #
loop $-1 $-1 $75 $34 #
plane-surface $-1 -177.53600661869103 28.8658255229671 94.944188163867935 0 1 0 -0.7660444514056185 0 0.64278759981090561 forward_v I I I I #
face $-1 $76 $77 $27 $-1 $78 forward single #
loop $-1 $79 $80 $35 #
cone-surface $-1 -65.348696096756569 32.541836505608337 8.4816682924718076 0.7660444514056185 0 -0.64278759981090561 0.64278759981090561 0 0.7660444514056185 1 I I 0 1 1 forward I I I I #
face $-1 $81 $82 $28 $-1 $83 forward single #
loop $-1 $84 $85 $36 #
cone-surface $-1 -65.348696096756569 38.055852979570197 8.4816682924718076 0.7660444514056185 0 -0.64278759981090561 0.64278759981090561 0 0.7660444514056185 1 I I 0 1 1 forward I I I I #
face $-1 $86 $87 $29 $-1 $88 reversed single #
loop $-1 $-1 $89 $37 #
plane-surface $-1 63.193401903998705 27.913235395597273 198.7115510657799 0 -1 0 -0.68199836817093118 0 -0.7313536940579346 forward_v I I I I #
face $-1 $90 $91 $30 $-1 $92 forward single #
loop $-1 $93 $94 $38 #
cone-surface $-1 62.058697353282916 15.554483315228367 6.1713281999676246 -0.68199836817093118 0 -0.7313536940579346 0.7313536940579346 0 -0.68199836817093118 1 I I 0 1 1 forward I I I I #
face $-1 $95 $96 $31 $-1 $97 forward single #
loop $-1 $98 $99 $39 #
cone-surface $-1 62.058697353282916 22.969734563449713 6.1713281999676246 -0.68199836817093118 0 -0.7313536940579346 0.7313536940579346 0 -0.68199836817093118 1 I I 0 1 1 forward I I I I #
face $-1 $100 $101 $24 $-1 $102 reversed single #
loop $-1 $-1 $103 $40 #
plane-surface $-1 0 0 -13.813148904731976 0 0 1 1 0 0 forward_v I I I I #
coedge $-1 $104 $105 $106 $107 forward $41 $-1 #
face $-1 $108 $109 $25 $-1 $110 reversed single #
loop $-1 $-1 $111 $43 #
plane-surface $-1 0 0 -13.813148904731976 0 0 1 1 0 0 forward_v I I I I #
coedge $-1 $112 $113 $114 $115 forward $44 $-1 #
face $-1 $116 $117 $26 $-1 $118 reversed single #
loop $-1 $-1 $119 $46 #
plane-surface $-1 -70.114444410535015 35.298844742589274 4.8067972944220401 -0.7660444514056185 0 0.64278759981090561 0.64278759981090561 0 0.7660444514056185 forward_v I I I I #
coedge $-1 $120 $121 $122 $123 reversed $47 $-1 #
face $-1 $-1 $124 $27 $-1 $125 forward single #
loop $-1 $126 $127 $49 #
cone-surface $-1 -63.978538615578714 32.541836505608337 7.331969685461166 0.7660444514056185 0 -0.64278759981090561 0.3213937999054528 0 0.38302222570280925 1 I I -0.70710678118654813 0.70710678118654691 0.5 forward I I I I #
loop $-1 $-1 $128 $35 #
coedge $-1 $80 $80 $129 $130 reversed $50 $-1 #
face $-1 $-1 $131 $28 $-1 $132 forward single #
loop $-1 $133 $134 $52 #
cone-surface $-1 -63.978538615578714 38.055852979570197 7.331969685461166 0.7660444514056185 0 -0.64278759981090561 0.3213937999054528 0 0.38302222570280925 1 I I -0.70710678118654813 0.70710678118654691 0.5 forward I I I I #
loop $-1 $-1 $135 $36 #
coedge $-1 $85 $85 $136 $137 reversed $53 $-1 #
face $-1 $138 $139 $29 $-1 $140 reversed single #
loop $-1 $-1 $141 $55 #
plane-surface $-1 -32.442471442393952 19.262108939339036 96.154635212850962 0.68199836817093118 0 0.7313536940579346 0.7313536940579346 0 -0.68199836817093118 forward_v I I I I #
coedge $-1 $142 $143 $144 $145 reversed $56 $-1 #
face $-1 $-1 $146 $30 $-1 $147 forward single #
loop $-1 $148 $149 $58 #
cone-surface $-1 60.790193292900653 15.554483315228367 4.8110241673111442 -0.68199836817093118 0 -0.7313536940579346 0.3656768470289673 0 -0.34099918408546559 1 I I -0.70710678118654746 0.70710678118654746 0.5 forward I I I I #
loop $-1 $-1 $150 $38 #
coedge $-1 $94 $94 $151 $152 reversed $59 $-1 #
face $-1 $-1 $153 $31 $-1 $154 forward single #
loop $-1 $155 $156 $61 #
cone-surface $-1 60.790193292900653 22.969734563449713 4.8110241673111442 -0.68199836817093118 0 -0.7313536940579346 0.3656768470289673 0 -0.34099918408546559 1 I I -0.70710678118654746 0.70710678118654746 0.5 forward I I I I #
loop $-1 $-1 $157 $39 #
coedge $-1 $99 $99 $158 $159 reversed $62 $-1 #
face $-1 $160 $161 $24 $-1 $162 reversed single #
loop $-1 $-1 $163 $64 #
plane-surface $-1 0 -41.731863962211428 0 0 1 0 0 0 1 forward_v I I I I #
coedge $-1 $164 $165 $166 $167 forward $65 $-1 #
coedge $-1 $168 $67 $169 $170 forward $41 $-1 #
coedge $-1 $67 $168 $171 $172 forward $41 $-1 #
coedge $-1 $173 $174 $67 $107 reversed $175 $-1 #
edge $-1 $176 -41.731863962211428 $177 41.731863962211428 $106 $178 forward 7 unknown #
face $-1 $179 $180 $25 $-1 $181 forward single #
loop $-1 $-1 $182 $68 #
plane-surface $-1 70.114444410534986 0 0 -1 0 0 0 0 1 forward_v I I I I #
coedge $-1 $183 $184 $185 $186 forward $69 $-1 #
coedge $-1 $185 $71 $182 $187 reversed $44 $-1 #
coedge $-1 $71 $185 $188 $189 reversed $44 $-1 #
coedge $-1 $190 $191 $71 $115 reversed $180 $-1 #
edge $-1 $192 -70.114444410534986 $193 70.114444410534986 $114 $194 forward 7 unknown #
face $-1 $195 $196 $26 $-1 $197 reversed single #
loop $-1 $-1 $198 $72 #
plane-surface $-1 0 41.731863962211428 0 0 -1 0 0 0 -1 forward_v I I I I #
coedge $-1 $199 $200 $201 $202 reversed $73 $-1 #
coedge $-1 $121 $75 $203 $204 reversed $47 $-1 #
coedge $-1 $75 $120 $199 $205 reversed $47 $-1 #
coedge $-1 $201 $206 $75 $123 forward $207 $-1 #
edge $-1 $208 18.65355889881053 $209 26.210785015417223 $122 $210 forward 7 unknown #
loop $-1 $-1 $129 $76 #
plane-surface $-1 -70.114444410535015 35.298844742589274 4.8067972944220401 -0.7660444514056185 0 0.64278759981090561 0.64278759981090561 0 0.7660444514056185 forward_v I I I I #
loop $-1 $-1 $211 $49 #
coedge $-1 $127 $127 $128 $212 reversed $77 $-1 #
coedge $-1 $128 $128 $127 $212 forward $79 $-1 #
coedge $-1 $129 $129 $80 $130 forward $124 $-1 #
edge $-1 $213 0 $213 6.2831853071796004 $129 $214 forward 7 unknown #
loop $-1 $-1 $136 $81 #
plane-surface $-1 -70.114444410535015 35.298844742589274 4.8067972944220401 -0.7660444514056185 0 0.64278759981090561 0.64278759981090561 0 0.7660444514056185 forward_v I I I I #
loop $-1 $-1 $215 $52 #
coedge $-1 $134 $134 $135 $216 reversed $82 $-1 #
coedge $-1 $135 $135 $134 $216 forward $84 $-1 #
coedge $-1 $136 $136 $85 $137 forward $131 $-1 #
edge $-1 $217 0 $217 6.2831853071796004 $136 $218 forward 7 unknown #
face $-1 $219 $220 $29 $-1 $221 forward single #
loop $-1 $-1 $222 $86 #
plane-surface $-1 63.193401903998705 10.6109824830808 198.7115510657799 0 1 0 0.68199836817093118 0 0.7313536940579346 forward_v I I I I #
coedge $-1 $223 $224 $225 $226 reversed $87 $-1 #
coedge $-1 $143 $89 $227 $228 reversed $56 $-1 #
coedge $-1 $89 $142 $223 $229 reversed $56 $-1 #
coedge $-1 $225 $230 $89 $145 forward $220 $-1 #
edge $-1 $231 -38.517743458535634 $232 -24.261259096625125 $144 $233 forward 7 unknown #
loop $-1 $-1 $151 $90 #
plane-surface $-1 -32.442471442393952 19.262108939339036 96.154635212850962 0.68199836817093118 0 0.7313536940579346 0.7313536940579346 0 -0.68199836817093118 forward_v I I I I #
loop $-1 $-1 $234 $58 #
coedge $-1 $149 $149 $150 $235 reversed $91 $-1 #
coedge $-1 $150 $150 $149 $235 forward $93 $-1 #
coedge $-1 $151 $151 $94 $152 forward $146 $-1 #
edge $-1 $236 0 $236 6.2831853071796004 $151 $237 forward 7 unknown #
loop $-1 $-1 $158 $95 #
plane-surface $-1 -32.442471442393952 19.262108939339036 96.154635212850962 0.68199836817093118 0 0.7313536940579346 0.7313536940579346 0 -0.68199836817093118 forward_v I I I I #
loop $-1 $-1 $238 $61 #
coedge $-1 $156 $156 $157 $239 reversed $96 $-1 #
coedge $-1 $157 $157 $156 $239 forward $98 $-1 #
coedge $-1 $158 $158 $99 $159 forward $153 $-1 #
edge $-1 $240 0 $240 6.2831853071796004 $158 $241 forward 7 unknown #
face $-1 $242 $243 $24 $-1 $244 reversed single #
loop $-1 $-1 $245 $100 #
plane-surface $-1 -70.114444410534986 0 0 1 0 0 0 0 -1 forward_v I I I I #
coedge $-1 $171 $246 $173 $247 reversed $101 $-1 #
coedge $-1 $248 $103 $246 $249 forward $65 $-1 #
coedge $-1 $103 $248 $250 $251 forward $65 $-1 #
coedge $-1 $174 $173 $103 $167 reversed $175 $-1 #
edge $-1 $252 -41.731863962211428 $253 41.731863962211428 $166 $254 forward 7 unknown #
coedge $-1 $105 $104 $255 $256 forward $41 $-1 #
coedge $-1 $257 $258 $104 $170 reversed $243 $-1 #
edge $-1 $177 -70.114444410534986 $259 70.114444410534986 $169 $260 forward 7 unknown #
coedge $-1 $261 $163 $105 $172 reversed $101 $-1 #
edge $-1 $262 -70.114444410534986 $176 70.114444410534986 $171 $263 forward 7 unknown #
coedge $-1 $166 $106 $163 $247 forward $175 $-1 #
coedge $-1 $106 $166 $257 $264 reversed $175 $-1 #
loop $-1 $-1 $173 $242 #
vertex $-1 $107 $265 #
vertex $-1 $107 $266 #
straight-curve $-1 70.114444410534986 0 13.813148904731976 0 1 0 I I #
face $-1 $267 $268 $25 $-1 $269 reversed single #
loop $-1 $-1 $191 $108 #
plane-surface $-1 0 -47.260938612381686 -8.6073450220287935 0 0 1 1 0 0 forward_v I I I I #
coedge $-1 $270 $271 $112 $187 forward $109 $-1 #
coedge $-1 $272 $111 $271 $273 forward $69 $-1 #
coedge $-1 $111 $272 $274 $275 forward $69 $-1 #
coedge $-1 $113 $112 $111 $186 reversed $44 $-1 #
edge $-1 $276 -70.114444410534986 $277 70.114444410534986 $111 $278 forward 7 unknown #
edge $-1 $277 -13.813148904731976 $193 -8.6073450220287935 $182 $279 forward 7 unknown #
coedge $-1 $274 $280 $113 $189 forward $281 $-1 #
edge $-1 $192 8.6073450220287935 $276 13.813148904731976 $188 $282 forward 7 unknown #
coedge $-1 $283 $114 $280 $284 forward $180 $-1 #
coedge $-1 $114 $283 $270 $285 forward $180 $-1 #
vertex $-1 $189 $286 #
vertex $-1 $285 $287 #
straight-curve $-1 0 -41.731863962211428 -8.6073450220287935 1 0 0 I I #
face $-1 $-1 $207 $26 $-1 $288 forward single #
loop $-1 $-1 $289 $116 #
plane-surface $-1 -70.114444410534986 0 0 1 0 0 0 0 -1 forward_v I I I I #
coedge $-1 $290 $291 $200 $292 forward $117 $-1 #
coedge $-1 $293 $119 $121 $205 forward $73 $-1 #
coedge $-1 $119 $293 $198 $292 reversed $73 $-1 #
coedge $-1 $294 $122 $119 $202 forward $207 $-1 #
edge $-1 $209 11.216403151672463 $295 24.082441590916812 $201 $296 forward 7 unknown #
coedge $-1 $297 $289 $120 $204 forward $196 $-1 #
edge $-1 $298 -42.665296787511892 $208 -33.658945177201993 $203 $299 forward 7 unknown #
edge $-1 $209 -11.756956915207914 $298 -4.4123720097533069e-014 $121 $300 forward 7 unknown #
coedge $-1 $122 $294 $297 $301 forward $207 $-1 #
loop $-1 $-1 $201 $195 #
vertex $-1 $204 $302 #
vertex $-1 $123 $303 #
straight-curve $-1 -88.768003309345517 28.8658255229671 13.813148904731975 1 0 0 I I #
coedge $-1 $211 $211 $-1 $304 reversed $126 $-1 #
edge $-1 $305 0 $305 6.2831853071796004 $127 $306 forward 7 unknown #
vertex $-1 $130 $307 #
ellipse-curve $-1 -66.335831352231651 32.541836505608337 9.3099730995770198 -0.7660444514056185 0 0.64278759981090561 0.64278759981090561 0 0.7660444514056185 1 I I #
coedge $-1 $215 $215 $-1 $308 reversed $133 $-1 #
edge $-1 $309 0 $309 6.2831853071796004 $134 $310 forward 7 unknown #
vertex $-1 $137 $311 #
ellipse-curve $-1 -66.335831352231651 38.055852979570197 9.3099730995770198 -0.7660444514056185 0 0.64278759981090561 0.64278759981090561 0 0.7660444514056185 1 I I #
face $-1 $-1 $312 $29 $-1 $313 reversed single #
loop $-1 $-1 $144 $138 #
plane-surface $-1 0 0 13.813148904731976 0 0 1 1 0 0 forward_v I I I I #
coedge $-1 $314 $315 $316 $317 reversed $139 $-1 #
coedge $-1 $318 $141 $143 $229 forward $87 $-1 #
coedge $-1 $141 $318 $314 $319 forward $87 $-1 #
coedge $-1 $316 $144 $141 $226 forward $220 $-1 #
edge $-1 $232 -18.282180925927754 $320 -0.979928013411282 $225 $321 forward 7 unknown #
coedge $-1 $322 $323 $142 $228 forward $312 $-1 #
edge $-1 $324 -98.837013666431645 $231 -85.542626628157976 $227 $325 forward 7 unknown #
edge $-1 $232 120.73560605277213 $324 140.22888882106997 $143 $326 forward 7 unknown #
coedge $-1 $144 $316 $322 $327 forward $220 $-1 #
vertex $-1 $228 $328 #
vertex $-1 $145 $329 #
straight-curve $-1 31.596700951999352 27.913235395597273 13.813148904731975 -1 0 0 I I #
coedge $-1 $234 $234 $-1 $330 reversed $148 $-1 #
edge $-1 $331 0 $331 6.2831853071796004 $149 $332 forward 7 unknown #
vertex $-1 $152 $333 #
ellipse-curve $-1 62.986202229579725 15.554483315228367 7.1659553855951508 0.68199836817093118 0 0.7313536940579346 0.7313536940579346 0 -0.68199836817093118 1 I I #
coedge $-1 $238 $238 $-1 $334 reversed $155 $-1 #
edge $-1 $335 0 $335 6.2831853071796004 $156 $336 forward 7 unknown #
vertex $-1 $159 $337 #
ellipse-curve $-1 62.986202229579725 22.969734563449713 7.1659553855951508 0.68199836817093118 0 0.7313536940579346 0.7313536940579346 0 -0.68199836817093118 1 I I #
face $-1 $-1 $175 $24 $-1 $338 reversed single #
loop $-1 $-1 $257 $160 #
plane-surface $-1 0 41.731863962211428 0 0 -1 0 0 0 -1 forward_v I I I I #
coedge $-1 $339 $255 $258 $340 forward $161 $-1 #
coedge $-1 $163 $261 $164 $249 reversed $101 $-1 #
edge $-1 $176 -13.813148904731976 $253 13.813148904731976 $173 $341 forward 7 unknown #
coedge $-1 $165 $164 $339 $342 forward $65 $-1 #
edge $-1 $253 -70.114444410534986 $343 70.114444410534986 $246 $344 forward 7 unknown #
coedge $-1 $258 $257 $165 $251 reversed $243 $-1 #
edge $-1 $345 -70.114444410534986 $252 70.114444410534986 $250 $346 forward 7 unknown #
vertex $-1 $167 $347 #
vertex $-1 $247 $348 #
straight-curve $-1 70.114444410534986 0 -13.813148904731976 0 -1 0 I I #
coedge $-1 $245 $349 $168 $256 reversed $161 $-1 #
edge $-1 $259 -41.731863962211428 $262 41.731863962211428 $255 $350 forward 7 unknown #
coedge $-1 $250 $169 $174 $264 forward $243 $-1 #
coedge $-1 $169 $250 $245 $340 reversed $243 $-1 #
vertex $-1 $170 $351 #
straight-curve $-1 0 41.731863962211428 13.813148904731976 -1 0 0 I I #
coedge $-1 $246 $171 $349 $352 forward $101 $-1 #
vertex $-1 $256 $353 #
straight-curve $-1 0 -41.731863962211428 13.813148904731976 1 0 0 I I #
edge $-1 $177 -13.813148904731976 $252 13.813148904731976 $174 $354 forward 7 unknown #
point $-1 70.114444410534986 -41.731863962211428 13.813148904731976 #
point $-1 70.114444410534986 41.731863962211428 13.813148904731976 #
face $-1 $-1 $281 $25 $-1 $355 reversed single #
loop $-1 $-1 $356 $179 #
plane-surface $-1 0 -52.790013262551945 -11.210246963380385 0 1 0 0 0 1 forward_v I I I I #
coedge $-1 $357 $182 $191 $285 reversed $109 $-1 #
coedge $-1 $182 $357 $183 $273 reversed $109 $-1 #
coedge $-1 $184 $183 $358 $359 forward $69 $-1 #
edge $-1 $277 41.731863962211428 $360 52.790013262551945 $271 $361 forward 7 unknown #
coedge $-1 $362 $188 $184 $275 reversed $281 $-1 #
edge $-1 $363 -52.790013262551945 $276 -41.731863962211428 $274 $364 forward 7 unknown #
vertex $-1 $189 $365 #
vertex $-1 $273 $366 #
straight-curve $-1 0 -41.731863962211428 -13.813148904731976 1 0 0 I I #
straight-curve $-1 70.114444410534986 -41.731863962211428 0 0 0 1 I I #
coedge $-1 $188 $362 $190 $284 reversed $281 $-1 #
loop $-1 $-1 $188 $267 #
straight-curve $-1 -70.114444410534986 -41.731863962211428 0 0 0 -1 I I #
coedge $-1 $191 $190 $367 $368 forward $180 $-1 #
edge $-1 $192 -5.5290746501702586 $369 5.5290746501702586 $280 $370 forward 7 unknown #
edge $-1 $371 -5.5290746501702586 $193 5.5290746501702586 $270 $372 forward 7 unknown #
point $-1 -70.114444410534986 -41.731863962211428 -8.6073450220287935 #
point $-1 70.114444410534986 -41.731863962211428 -8.6073450220287935 #
plane-surface $-1 0 0 13.813148904731976 0 0 1 1 0 0 forward_v I I I I #
coedge $-1 $203 $373 $293 $374 forward $196 $-1 #
coedge $-1 $291 $198 $373 $375 reversed $117 $-1 #
coedge $-1 $198 $290 $294 $376 reversed $117 $-1 #
edge $-1 $295 8.9362806039418015 $377 20.693237519149669 $198 $378 forward 7 unknown #
coedge $-1 $200 $199 $289 $374 reversed $73 $-1 #
coedge $-1 $206 $201 $291 $376 forward $207 $-1 #
vertex $-1 $376 $379 #
straight-curve $-1 -62.557218293928294 17.649422371294637 13.813148904731975 0 1 0 I I #
coedge $-1 $373 $203 $206 $301 reversed $196 $-1 #
vertex $-1 $204 $380 #
straight-curve $-1 -70.114444410534986 28.8658255229671 47.472094081933967 0 0 1 I I #
straight-curve $-1 -70.114444410535015 28.8658255229671 4.8067972944220401 -0.64278759981090561 0 -0.7660444514056185 I I #
edge $-1 $381 -41.731863962211428 $208 -28.8658255229671 $297 $382 forward 7 unknown #
point $-1 -70.114444410534986 28.8658255229671 13.813148904731976 #
point $-1 -62.557218293928294 28.8658255229671 13.813148904731976 #
edge $-1 $383 1 $383 0 $211 $-1 forward 7 unknown #
vertex $-1 $212 $384 #
ellipse-curve $-1 -64.361560841281516 32.541836505608337 7.6533634853666186 -0.7660444514056185 0 0.64278759981090561 0.64278759981090561 0 0.7660444514056185 1 I I #
point $-1 -65.693043752420706 32.541836505608337 10.076017550982614 #
edge $-1 $385 1 $385 0 $215 $-1 forward 7 unknown #
vertex $-1 $216 $386 #
ellipse-curve $-1 -64.361560841281516 38.055852979570197 7.6533634853666186 -0.7660444514056185 0 0.64278759981090561 0.64278759981090561 0 0.7660444514056185 1 I I #
point $-1 -65.693043752420706 38.055852979570197 10.076017550982614 #
loop $-1 $-1 $227 $219 #
plane-surface $-1 70.114444410534986 0 0 -1 0 0 0 0 1 forward_v I I I I #
coedge $-1 $315 $222 $224 $319 reversed $139 $-1 #
coedge $-1 $222 $314 $387 $388 reversed $139 $-1 #
coedge $-1 $230 $225 $222 $317 forward $220 $-1 #
edge $-1 $320 24.261259096625125 $389 38.517743458535634 $316 $390 forward 7 unknown #
coedge $-1 $224 $223 $323 $391 reversed $87 $-1 #
edge $-1 $392 -140.22888882106997 $320 -120.73560605277213 $314 $393 forward 7 unknown #
vertex $-1 $226 $394 #
straight-curve $-1 55.857960048624463 9.6310544696695182 13.813148904731975 0 -1 0 I I #
coedge $-1 $387 $227 $230 $327 reversed $312 $-1 #
coedge $-1 $227 $387 $318 $391 forward $312 $-1 #
vertex $-1 $228 $395 #
straight-curve $-1 70.114444410534986 27.913235395597273 99.35577553288995 0 0 1 I I #
straight-curve $-1 -32.442471442393952 27.913235395597273 96.154635212850962 0.7313536940579346 0 -0.68199836817093118 I I #
edge $-1 $389 10.6109824830808 $231 27.913235395597273 $322 $396 forward 7 unknown #
point $-1 70.114444410534986 27.913235395597273 13.813148904731976 #
point $-1 55.857960048624477 27.913235395597273 13.813148904731975 #
edge $-1 $397 1 $397 0 $234 $-1 forward 7 unknown #
vertex $-1 $235 $398 #
ellipse-curve $-1 61.131192476986122 15.554483315228367 5.1767010143401118 0.68199836817093118 0 0.7313536940579346 0.7313536940579346 0 -0.68199836817093118 1 I I #
point $-1 63.717555923637647 15.554483315228367 6.4839570174242063 #
edge $-1 $399 1 $399 0 $238 $-1 forward 7 unknown #
vertex $-1 $239 $400 #
ellipse-curve $-1 61.131192476986122 22.969734563449713 5.1767010143401118 0.68199836817093118 0 0.7313536940579346 0.7313536940579346 0 -0.68199836817093118 1 I I #
point $-1 63.717555923637647 22.969734563449713 6.4839570174242063 #
plane-surface $-1 70.114444410534986 0 0 -1 0 0 0 0 1 forward_v I I I I #
coedge $-1 $349 $245 $248 $342 reversed $161 $-1 #
edge $-1 $259 -13.813148904731976 $345 13.813148904731976 $258 $401 forward 7 unknown #
straight-curve $-1 70.114444410534986 -41.731863962211428 0 0 0 -1 I I #
edge $-1 $343 -41.731863962211428 $345 41.731863962211428 $339 $402 forward 7 unknown #
vertex $-1 $342 $403 #
straight-curve $-1 0 -41.731863962211428 -13.813148904731976 -1 0 0 I I #
vertex $-1 $251 $404 #
straight-curve $-1 0 41.731863962211428 -13.813148904731976 1 0 0 I I #
point $-1 70.114444410534986 41.731863962211428 -13.813148904731976 #
point $-1 70.114444410534986 -41.731863962211428 -13.813148904731976 #
coedge $-1 $255 $339 $261 $352 reversed $161 $-1 #
straight-curve $-1 -70.114444410534986 0 13.813148904731976 0 -1 0 I I #
point $-1 -70.114444410534986 41.731863962211428 13.813148904731976 #
edge $-1 $262 -13.813148904731976 $343 13.813148904731976 $349 $405 forward 7 unknown #
point $-1 -70.114444410534986 -41.731863962211428 13.813148904731976 #
straight-curve $-1 70.114444410534986 41.731863962211428 0 0 0 -1 I I #
plane-surface $-1 -70.114444410534986 0 0 1 0 0 0 0 -1 forward_v I I I I #
coedge $-1 $358 $367 $362 $406 forward $268 $-1 #
coedge $-1 $271 $270 $407 $408 forward $109 $-1 #
coedge $-1 $407 $356 $272 $359 reversed $268 $-1 #
edge $-1 $360 -70.114444410534986 $363 70.114444410534986 $358 $409 forward 7 unknown #
vertex $-1 $408 $410 #
straight-curve $-1 70.114444410534986 0 -13.813148904731976 0 -1 0 I I #
coedge $-1 $280 $274 $356 $406 reversed $281 $-1 #
vertex $-1 $275 $411 #
straight-curve $-1 -70.114444410534986 0 -13.813148904731976 0 1 0 I I #
point $-1 -70.114444410534986 -41.731863962211428 -13.813148904731976 #
point $-1 70.114444410534986 -41.731863962211428 -13.813148904731976 #
coedge $-1 $356 $407 $283 $368 reversed $268 $-1 #
edge $-1 $369 -70.114444410534986 $371 70.114444410534986 $367 $412 forward 7 unknown #
vertex $-1 $284 $413 #
straight-curve $-1 -70.114444410534986 -47.260938612381686 -8.6073450220287935 0 -1 0 I I #
vertex $-1 $285 $414 #
straight-curve $-1 70.114444410534986 -47.260938612381686 -8.6073450220287935 0 1 0 I I #
coedge $-1 $289 $297 $290 $375 forward $196 $-1 #
edge $-1 $377 -24.082441590916812 $298 -11.216403151672463 $289 $415 forward 7 unknown #
edge $-1 $381 -13.813148904731976 $377 -4.8067972944220738 $290 $416 forward 7 unknown #
edge $-1 $295 62.557218293928294 $381 70.114444410534986 $291 $417 forward 7 unknown #
vertex $-1 $292 $418 #
straight-curve $-1 -56.813087933283796 41.731863962211428 20.658737077585243 -0.64278759981090572 0 -0.76604445140561861 I I #
point $-1 -62.557218293928294 41.731863962211449 13.813148904731976 #
point $-1 -70.114444410534986 28.8658255229671 4.8067972944220738 #
vertex $-1 $376 $419 #
straight-curve $-1 -70.114444410534986 0 13.813148904731976 0 -1 0 I I #
vertex $-1 $304 $420 #
point $-1 -63.718773241470615 32.541836505608337 8.4194079367722363 #
vertex $-1 $308 $421 #
point $-1 -63.718773241470615 38.055852979570197 8.4194079367722363 #
coedge $-1 $323 $322 $315 $388 forward $312 $-1 #
edge $-1 $389 85.542626628157976 $392 98.837013666431645 $387 $422 forward 7 unknown #
vertex $-1 $327 $423 #
straight-curve $-1 31.596700951999352 10.6109824830808 13.813148904731975 1 0 0 I I #
edge $-1 $392 0.979928013411282 $324 18.282180925927754 $323 $424 forward 7 unknown #
vertex $-1 $391 $425 #
straight-curve $-1 -32.442471442393952 10.6109824830808 96.154635212850962 -0.7313536940579346 0 0.68199836817093118 I I #
point $-1 55.857960048624477 10.6109824830808 13.813148904731975 #
point $-1 70.114444410534986 27.913235395597273 0.51876186645830558 #
straight-curve $-1 70.114444410534986 0 13.813148904731976 0 1 0 I I #
vertex $-1 $330 $426 #
point $-1 61.862546171044052 15.554483315228367 4.4947026461691806 #
vertex $-1 $334 $427 #
point $-1 61.862546171044052 22.969734563449713 4.4947026461691806 #
straight-curve $-1 -70.114444410534986 41.731863962211428 0 0 0 -1 I I #
straight-curve $-1 -70.114444410534986 0 -13.813148904731976 0 1 0 I I #
point $-1 -70.114444410534986 -41.731863962211428 -13.813148904731976 #
point $-1 -70.114444410534986 41.731863962211428 -13.813148904731976 #
straight-curve $-1 -70.114444410534986 -41.731863962211428 0 0 0 -1 I I #
edge $-1 $369 -2.6029019413515915 $363 2.6029019413515915 $362 $428 forward 7 unknown #
coedge $-1 $367 $358 $357 $408 reversed $268 $-1 #
edge $-1 $371 -2.6029019413515915 $360 2.6029019413515915 $357 $429 forward 7 unknown #
straight-curve $-1 0 -52.790013262551945 -13.813148904731976 -1 0 0 I I #
point $-1 70.114444410534986 -52.790013262551945 -13.813148904731976 #
point $-1 -70.114444410534986 -52.790013262551945 -13.813148904731976 #
straight-curve $-1 0 -52.790013262551945 -8.6073450220287935 1 0 0 I I #
point $-1 -70.114444410534986 -52.790013262551945 -8.6073450220287935 #
point $-1 70.114444410534986 -52.790013262551945 -8.6073450220287935 #
straight-curve $-1 -70.114444410534986 17.649422371294637 4.8067972944220809 0 -1 0 I I #
straight-curve $-1 -70.114444410534986 41.731863962211428 0 0 0 -1 I I #
straight-curve $-1 0 41.731863962211428 13.813148904731976 -1 0 0 I I #
point $-1 -70.114444410534986 41.731863962211449 4.8067972944220738 #
point $-1 -70.114444410534986 41.731863962211428 13.813148904731976 #
point $-1 -63.595516389875904 32.541836505608337 7.0105758855557134 #
point $-1 -63.595516389875904 38.055852979570197 7.0105758855557134 #
straight-curve $-1 70.114444410534986 10.6109824830808 99.35577553288995 0 0 -1 I I #
point $-1 70.114444410534986 10.6109824830808 13.813148904731976 #
straight-curve $-1 70.114444410534986 9.6310544696695182 0.51876186645830558 0 1 0 I I #
point $-1 70.114444410534986 10.6109824830808 0.51876186645830558 #
point $-1 60.449194108815185 15.554483315228367 4.4453473202821767 #
point $-1 60.449194108815185 22.969734563449713 4.4453473202821767 #
straight-curve $-1 -70.114444410534986 -52.790013262551945 -11.210246963380385 0 0 -1 I I #
straight-curve $-1 70.114444410534986 -52.790013262551945 -11.210246963380385 0 0 -1 I I #
End-of-ACIS-data 