500 0 9 0           
7 Unknown 11 ACIS 5.0 NT 24 Thu Mar 25 16:30:57 1999 
-1 9.9999999999999995e-007 1e-010 
body $-1 $9 $-1 $10 #
body $-1 $11 $-1 $12 #
body $-1 $13 $-1 $14 #
body $-1 $15 $-1 $16 #
body $-1 $17 $-1 $18 #
body $-1 $19 $-1 $20 #
body $-1 $21 $-1 $22 #
body $-1 $23 $-1 $24 #
body $-1 $25 $-1 $26 #
lump $-1 $-1 $27 $0 #
transform $-1 1 0 0 0 1 0 0 0 1 78.054139835810417 46.992084333902994 18.125805068751077 1 rotate no_reflect no_shear #
lump $-1 $-1 $28 $1 #
transform $-1 1 0 0 0 1 0 0 0 1 78.054139835810417 46.992084333902994 18.125805068751077 1 rotate no_reflect no_shear #
lump $-1 $-1 $29 $2 #
transform $-1 1 0 0 0 1 0 0 0 1 78.054139835810417 46.992084333902994 18.125805068751077 1 rotate no_reflect no_shear #
lump $-1 $-1 $30 $3 #
transform $-1 1 0 0 0 1 0 0 0 1 78.054139835810417 46.992084333902994 18.125805068751077 1 rotate no_reflect no_shear #
lump $-1 $-1 $31 $4 #
transform $-1 1 0 0 0 1 0 0 0 1 78.054139835810417 46.992084333902994 18.125805068751077 1 rotate no_reflect no_shear #
lump $-1 $-1 $32 $5 #
transform $-1 1 0 0 0 1 0 0 0 1 78.054139835810417 46.992084333902994 18.125805068751077 1 rotate no_reflect no_shear #
lump $-1 $-1 $33 $6 #
transform $-1 1 0 0 0 1 0 0 0 1 78.054139835810417 46.992084333902994 18.125805068751077 1 rotate no_reflect no_shear #
lump $-1 $-1 $34 $7 #
transform $-1 1 0 0 0 1 0 0 0 1 78.054139835810417 46.992084333902994 18.125805068751077 1 rotate no_reflect no_shear #
lump $-1 $-1 $35 $8 #
transform $-1 1 0 0 0 1 0 0 0 1 78.054139835810417 46.992084333902994 18.125805068751077 1 rotate no_reflect no_shear #
shell $-1 $-1 $-1 $36 $-1 $9 #
shell $-1 $-1 $-1 $37 $-1 $11 #
shell $-1 $-1 $-1 $38 $-1 $13 #
shell $-1 $-1 $-1 $39 $-1 $15 #
shell $-1 $-1 $-1 $40 $-1 $17 #
shell $-1 $-1 $-1 $41 $-1 $19 #
shell $-1 $-1 $-1 $42 $-1 $21 #
shell $-1 $-1 $-1 $43 $-1 $23 #
shell $-1 $-1 $-1 $44 $-1 $25 #
face $-1 $45 $46 $27 $-1 $47 forward single #
face $-1 $48 $49 $28 $-1 $50 forward single #
face $-1 $51 $52 $29 $-1 $53 forward single #
face $-1 $54 $55 $30 $-1 $56 reversed single #
face $-1 $57 $58 $31 $-1 $59 forward single #
face $-1 $60 $61 $32 $-1 $62 forward single #
face $-1 $63 $64 $33 $-1 $65 reversed single #
face $-1 $66 $67 $34 $-1 $68 forward single #
face $-1 $69 $70 $35 $-1 $71 forward single #
face $-1 $72 $73 $27 $-1 $74 reversed single #
loop $-1 $-1 $75 $36 #
plane-surface $-1 0 0 18.125805068751077 0 0 1 1 0 0 forward_v I I I I #
face $-1 $76 $77 $28 $-1 $78 reversed single #
loop $-1 $-1 $79 $37 #
plane-surface $-1 0 -39.051657418696344 7.0459959147098044 0 0 1 1 0 0 forward_v I I I I #
face $-1 $80 $81 $29 $-1 $82 reversed single #
loop $-1 $-1 $83 $38 #
plane-surface $-1 0 39.051657418696351 7.0459959147098044 0 0 1 1 0 0 forward_v I I I I #
face $-1 $84 $85 $30 $-1 $86 reversed single #
loop $-1 $-1 $87 $39 #
plane-surface $-1 -210.44147044268286 -6.7644708947955792 86.612982928817274 0 -1 0 0.84804810408105047 0 -0.52991925155115449 forward_v I I I I #
face $-1 $88 $89 $31 $-1 $90 forward single #
loop $-1 $91 $92 $40 #
cone-surface $-1 -72.862511488671743 -12.71831584747305 10.542532868019022 0.84804810408105047 0 -0.52991925155115449 0.26495962577557725 0 0.42402405204052523 1 I I 0 1 0.5 forward I I I I #
face $-1 $93 $94 $32 $-1 $95 forward single #
loop $-1 $96 $97 $41 #
cone-surface $-1 -72.862511488671743 -9.1460088758665634 10.542532868019022 0.84804810408105047 0 -0.52991925155115449 0.26495962577557725 0 0.42402405204052523 1 I I 0 1 0.5 forward I I I I #
face $-1 $98 $99 $33 $-1 $100 reversed single #
loop $-1 $-1 $101 $42 #
plane-surface $-1 32.153384898222029 12.295636877289262 218.57683818925162 0 1 0 0.54463904215088732 0 0.83867056331134215 forward_v I I I I #
face $-1 $102 $103 $34 $-1 $104 forward single #
loop $-1 $105 $106 $43 #
cone-surface $-1 65.25887846290459 16.582296732544705 9.0461129614569629 -0.54463904215088732 0 -0.83867056331134215 1.6773411266226843 0 -1.0892780843017746 1 I I 0 1 2 forward I I I I #
face $-1 $107 $108 $35 $-1 $109 forward single #
loop $-1 $110 $111 $44 #
cone-surface $-1 65.25887846290459 23.012286515427874 9.0461129614569629 -0.54463904215088732 0 -0.83867056331134215 1.6773411266226843 0 -1.0892780843017746 1 I I 0 1 2 forward I I I I #
face $-1 $112 $113 $27 $-1 $114 reversed single #
loop $-1 $-1 $115 $45 #
plane-surface $-1 0 0 -18.125805068751077 0 0 1 1 0 0 forward_v I I I I #
coedge $-1 $116 $117 $118 $119 forward $46 $-1 #
face $-1 $120 $121 $28 $-1 $122 reversed single #
loop $-1 $-1 $123 $48 #
plane-surface $-1 0 -39.051657418696344 -3.5590963822674677 0 0 1 1 0 0 forward_v I I I I #
coedge $-1 $124 $125 $126 $127 reversed $49 $-1 #
face $-1 $128 $129 $29 $-1 $130 reversed single #
loop $-1 $-1 $131 $51 #
plane-surface $-1 0 39.051657418696351 -3.5590963822674677 0 0 1 1 0 0 forward_v I I I I #
coedge $-1 $132 $133 $134 $135 reversed $52 $-1 #
face $-1 $136 $137 $30 $-1 $138 reversed single #
loop $-1 $-1 $139 $54 #
plane-surface $-1 -78.054139835810417 -10.93216236166981 3.8882002042936534 -0.84804810408105047 0 0.52991925155115449 0.52991925155115449 0 0.84804810408105047 forward_v I I I I #
coedge $-1 $140 $141 $142 $143 reversed $55 $-1 #
face $-1 $-1 $144 $31 $-1 $145 forward single #
loop $-1 $146 $147 $57 #
cone-surface $-1 -71.907192429685153 -12.71831584747305 9.9455832866278868 0.84804810408105047 0 -0.52991925155115449 0.13247981288778862 0 0.21201202602026262 1 I I -0.70710678118654746 0.70710678118654746 0.25 forward I I I I #
loop $-1 $-1 $148 $40 #
coedge $-1 $92 $92 $149 $150 reversed $58 $-1 #
face $-1 $-1 $151 $32 $-1 $152 forward single #
loop $-1 $153 $154 $60 #
cone-surface $-1 -71.907192429685153 -9.1460088758665634 9.9455832866278868 0.84804810408105047 0 -0.52991925155115449 0.13247981288778862 0 0.21201202602026262 1 I I -0.70710678118654746 0.70710678118654746 0.25 forward I I I I #
loop $-1 $-1 $155 $41 #
coedge $-1 $97 $97 $156 $157 reversed $61 $-1 #
face $-1 $158 $159 $33 $-1 $160 reversed single #
loop $-1 $-1 $161 $63 #
plane-surface $-1 -52.869279013952379 19.797291623986297 87.653419339488835 0.54463904215088732 0 0.83867056331134215 0.83867056331134215 0 -0.54463904215088732 forward_v I I I I #
coedge $-1 $162 $163 $164 $165 reversed $64 $-1 #
face $-1 $-1 $166 $34 $-1 $167 forward single #
loop $-1 $168 $169 $66 #
cone-surface $-1 63.849119853327039 16.582296732544705 6.8752751115698345 -0.54463904215088732 0 -0.83867056331134215 0.83867056331134215 0 -0.54463904215088732 1 I I -0.70710678118654779 0.70710678118654713 1 forward I I I I #
loop $-1 $-1 $170 $43 #
coedge $-1 $106 $106 $171 $172 reversed $67 $-1 #
face $-1 $-1 $173 $35 $-1 $174 forward single #
loop $-1 $175 $176 $69 #
cone-surface $-1 63.849119853327039 23.012286515427874 6.8752751115698345 -0.54463904215088732 0 -0.83867056331134215 0.83867056331134215 0 -0.54463904215088732 1 I I -0.70710678118654779 0.70710678118654713 1 forward I I I I #
loop $-1 $-1 $177 $44 #
coedge $-1 $111 $111 $178 $179 reversed $70 $-1 #
face $-1 $180 $181 $27 $-1 $182 reversed single #
loop $-1 $-1 $183 $72 #
plane-surface $-1 0 -46.992084333902994 0 0 1 0 0 0 1 forward_v I I I I #
coedge $-1 $184 $185 $186 $187 forward $73 $-1 #
coedge $-1 $188 $75 $189 $190 forward $46 $-1 #
coedge $-1 $75 $188 $191 $192 forward $46 $-1 #
coedge $-1 $193 $194 $75 $119 reversed $195 $-1 #
edge $-1 $196 -46.992084333902994 $197 46.992084333902994 $118 $198 forward 7 unknown #
face $-1 $199 $200 $28 $-1 $201 reversed single #
loop $-1 $-1 $202 $76 #
plane-surface $-1 0 -31.111230503489693 1.7434497662211683 0 -1 0 0 0 -1 forward_v I I I I #
coedge $-1 $203 $204 $205 $206 reversed $77 $-1 #
coedge $-1 $207 $79 $208 $209 forward $49 $-1 #
coedge $-1 $79 $207 $210 $211 reversed $49 $-1 #
coedge $-1 $212 $213 $79 $127 forward $214 $-1 #
edge $-1 $215 11.585401794141521 $216 27.466255624554822 $126 $217 forward 7 unknown #
face $-1 $218 $219 $29 $-1 $220 reversed single #
loop $-1 $-1 $221 $80 #
plane-surface $-1 0 31.111230503489701 1.7434497662211683 0 1 0 0 0 1 forward_v I I I I #
coedge $-1 $222 $223 $224 $225 reversed $81 $-1 #
coedge $-1 $226 $83 $227 $228 reversed $52 $-1 #
coedge $-1 $83 $226 $229 $230 forward $52 $-1 #
coedge $-1 $231 $232 $83 $135 forward $219 $-1 #
edge $-1 $233 -27.466255624554826 $234 -11.585401794141525 $134 $235 forward 7 unknown #
face $-1 $236 $237 $30 $-1 $238 reversed single #
loop $-1 $-1 $239 $84 #
plane-surface $-1 -210.44147044268286 -15.099853828544042 86.612982928817274 0 1 0 -0.84804810408105047 0 0.52991925155115449 forward_v I I I I #
coedge $-1 $240 $241 $242 $243 reversed $85 $-1 #
coedge $-1 $141 $87 $244 $245 reversed $55 $-1 #
coedge $-1 $87 $140 $240 $246 reversed $55 $-1 #
coedge $-1 $242 $247 $87 $143 forward $237 $-1 #
edge $-1 $248 25.18068639565756 $249 39.418291260114984 $142 $250 forward 7 unknown #
loop $-1 $-1 $149 $88 #
plane-surface $-1 -78.054139835810417 -10.93216236166981 3.8882002042936534 -0.84804810408105047 0 0.52991925155115449 0.52991925155115449 0 0.84804810408105047 forward_v I I I I #
loop $-1 $-1 $251 $57 #
coedge $-1 $147 $147 $148 $252 reversed $89 $-1 #
coedge $-1 $148 $148 $147 $252 forward $91 $-1 #
coedge $-1 $149 $149 $92 $150 forward $144 $-1 #
edge $-1 $253 0 $253 6.2831853071796004 $149 $254 forward 7 unknown #
loop $-1 $-1 $156 $93 #
plane-surface $-1 -78.054139835810417 -10.93216236166981 3.8882002042936534 -0.84804810408105047 0 0.52991925155115449 0.52991925155115449 0 0.84804810408105047 forward_v I I I I #
loop $-1 $-1 $255 $60 #
coedge $-1 $154 $154 $155 $256 reversed $94 $-1 #
coedge $-1 $155 $155 $154 $256 forward $96 $-1 #
coedge $-1 $156 $156 $97 $157 forward $151 $-1 #
edge $-1 $257 0 $257 6.2831853071796004 $156 $258 forward 7 unknown #
face $-1 $259 $260 $33 $-1 $261 forward single #
loop $-1 $-1 $262 $98 #
plane-surface $-1 32.153384898222029 27.298946370683332 218.57683818925162 0 -1 0 -0.54463904215088732 0 -0.83867056331134215 forward_v I I I I #
coedge $-1 $263 $264 $265 $266 reversed $99 $-1 #
coedge $-1 $163 $101 $267 $268 reversed $64 $-1 #
coedge $-1 $101 $162 $263 $269 reversed $64 $-1 #
coedge $-1 $265 $270 $101 $165 forward $271 $-1 #
edge $-1 $272 91.162614025874731 $273 106.6576636673114 $164 $274 forward 7 unknown #
loop $-1 $-1 $171 $102 #
plane-surface $-1 -52.869279013952379 19.797291623986297 87.653419339488835 0.54463904215088732 0 0.83867056331134215 0.83867056331134215 0 -0.54463904215088732 forward_v I I I I #
loop $-1 $-1 $275 $66 #
coedge $-1 $169 $169 $170 $276 reversed $103 $-1 #
coedge $-1 $170 $170 $169 $276 forward $105 $-1 #
coedge $-1 $171 $171 $106 $172 forward $166 $-1 #
edge $-1 $277 0 $277 6.2831853071796004 $171 $278 forward 7 unknown #
loop $-1 $-1 $178 $107 #
plane-surface $-1 -52.869279013952379 19.797291623986297 87.653419339488835 0.54463904215088732 0 0.83867056331134215 0.83867056331134215 0 -0.54463904215088732 forward_v I I I I #
loop $-1 $-1 $279 $69 #
coedge $-1 $176 $176 $177 $280 reversed $108 $-1 #
coedge $-1 $177 $177 $176 $280 forward $110 $-1 #
coedge $-1 $178 $178 $111 $179 forward $173 $-1 #
edge $-1 $281 0 $281 6.2831853071796004 $178 $282 forward 7 unknown #
face $-1 $283 $284 $27 $-1 $285 reversed single #
loop $-1 $-1 $286 $112 #
plane-surface $-1 -78.054139835810417 0 0 1 0 0 0 0 -1 forward_v I I I I #
coedge $-1 $287 $191 $288 $289 forward $113 $-1 #
coedge $-1 $290 $115 $287 $291 forward $73 $-1 #
coedge $-1 $115 $290 $292 $293 forward $73 $-1 #
coedge $-1 $194 $193 $115 $187 reversed $195 $-1 #
edge $-1 $294 -46.992084333902994 $295 46.992084333902994 $186 $296 forward 7 unknown #
coedge $-1 $117 $116 $297 $298 forward $46 $-1 #
coedge $-1 $299 $300 $116 $190 reversed $284 $-1 #
edge $-1 $197 -78.054139835810417 $301 78.054139835810417 $189 $302 forward 7 unknown #
coedge $-1 $183 $303 $117 $192 reversed $113 $-1 #
edge $-1 $304 -78.054139835810417 $196 78.054139835810417 $191 $305 forward 7 unknown #
coedge $-1 $186 $118 $303 $306 forward $195 $-1 #
coedge $-1 $118 $186 $299 $307 reversed $195 $-1 #
loop $-1 $-1 $193 $283 #
vertex $-1 $119 $308 #
vertex $-1 $119 $309 #
straight-curve $-1 78.054139835810417 0 18.125805068751077 0 1 0 I I #
face $-1 $310 $311 $28 $-1 $312 reversed single #
loop $-1 $-1 $313 $120 #
plane-surface $-1 -78.054139835810417 0 0 1 0 0 0 0 -1 forward_v I I I I #
coedge $-1 $314 $208 $213 $315 reversed $121 $-1 #
coedge $-1 $316 $123 $317 $318 reversed $77 $-1 #
coedge $-1 $123 $316 $314 $319 forward $77 $-1 #
coedge $-1 $213 $212 $123 $206 forward $214 $-1 #
edge $-1 $320 -27.466255624554822 $321 -11.585401794141521 $205 $322 forward 7 unknown #
coedge $-1 $125 $124 $313 $323 reversed $49 $-1 #
coedge $-1 $202 $324 $124 $209 reversed $121 $-1 #
edge $-1 $215 -78.054139835810417 $325 78.054139835810417 $208 $326 forward 7 unknown #
coedge $-1 $327 $328 $125 $211 forward $311 $-1 #
edge $-1 $216 -78.054139835810417 $329 78.054139835810417 $210 $330 forward 7 unknown #
coedge $-1 $205 $126 $328 $331 forward $214 $-1 #
coedge $-1 $126 $205 $202 $315 forward $214 $-1 #
loop $-1 $-1 $126 $310 #
vertex $-1 $127 $332 #
vertex $-1 $331 $333 #
straight-curve $-1 78.054139835810417 -19.525828709348172 7.0459959147098044 0 -1 0 I I #
face $-1 $334 $335 $29 $-1 $336 reversed single #
loop $-1 $-1 $134 $128 #
plane-surface $-1 78.054139835810417 0 0 -1 0 0 0 0 1 forward_v I I I I #
coedge $-1 $337 $229 $338 $339 reversed $129 $-1 #
coedge $-1 $340 $131 $337 $341 forward $81 $-1 #
coedge $-1 $131 $340 $342 $343 reversed $81 $-1 #
coedge $-1 $232 $231 $131 $225 forward $219 $-1 #
edge $-1 $344 11.585401794141525 $345 27.466255624554826 $224 $346 forward 7 unknown #
coedge $-1 $133 $132 $347 $348 reversed $52 $-1 #
coedge $-1 $349 $350 $132 $228 forward $351 $-1 #
edge $-1 $352 -78.054139835810417 $233 78.054139835810417 $227 $353 forward 7 unknown #
coedge $-1 $221 $354 $133 $230 reversed $129 $-1 #
edge $-1 $355 -78.054139835810417 $234 78.054139835810417 $229 $356 forward 7 unknown #
coedge $-1 $224 $134 $354 $357 forward $219 $-1 #
coedge $-1 $134 $224 $349 $358 reversed $219 $-1 #
vertex $-1 $358 $359 #
vertex $-1 $135 $360 #
straight-curve $-1 78.054139835810417 19.525828709348175 7.0459959147098044 0 -1 0 I I #
face $-1 $-1 $361 $30 $-1 $362 forward single #
loop $-1 $-1 $142 $136 #
plane-surface $-1 -78.054139835810417 0 0 1 0 0 0 0 -1 forward_v I I I I #
coedge $-1 $363 $364 $365 $366 reversed $137 $-1 #
coedge $-1 $367 $139 $141 $246 forward $85 $-1 #
coedge $-1 $139 $367 $363 $368 forward $85 $-1 #
coedge $-1 $365 $142 $139 $243 forward $237 $-1 #
edge $-1 $249 1.2983897139606739 $369 9.6337726477091365 $242 $370 forward 7 unknown #
coedge $-1 $371 $372 $140 $245 forward $361 $-1 #
edge $-1 $373 -36.06323801387569 $248 -27.166595385531011 $244 $374 forward 7 unknown #
edge $-1 $249 0 $373 16.788676014888768 $141 $375 forward 7 unknown #
coedge $-1 $142 $365 $371 $376 reversed $237 $-1 #
vertex $-1 $376 $377 #
vertex $-1 $143 $378 #
straight-curve $-1 -78.054139835810417 -6.7644708947955792 43.306491464408637 0 0 -1 I I #
coedge $-1 $251 $251 $-1 $379 reversed $146 $-1 #
edge $-1 $380 0 $380 6.2831853071796004 $147 $381 forward 7 unknown #
vertex $-1 $150 $382 #
ellipse-curve $-1 -73.605818521638071 -12.71831584747305 11.007002636522371 -0.84804810408105047 0 0.52991925155115449 0.26495962577557725 0 0.42402405204052523 1 I I #
coedge $-1 $255 $255 $-1 $383 reversed $153 $-1 #
edge $-1 $384 0 $384 6.2831853071796004 $154 $385 forward 7 unknown #
vertex $-1 $157 $386 #
ellipse-curve $-1 -73.605818521638071 -9.1460088758665634 11.007002636522371 -0.84804810408105047 0 0.52991925155115449 0.26495962577557725 0 0.42402405204052523 1 I I #
face $-1 $-1 $271 $33 $-1 $387 reversed single #
loop $-1 $-1 $388 $158 #
plane-surface $-1 0 0 18.125805068751077 0 0 1 1 0 0 forward_v I I I I #
coedge $-1 $389 $390 $391 $392 reversed $159 $-1 #
coedge $-1 $393 $161 $163 $269 forward $99 $-1 #
coedge $-1 $161 $393 $389 $394 forward $99 $-1 #
coedge $-1 $391 $164 $161 $266 forward $271 $-1 #
edge $-1 $273 2.3969910652961133 $395 17.400300558690184 $265 $396 forward 7 unknown #
coedge $-1 $397 $398 $162 $268 forward $260 $-1 #
edge $-1 $399 38.117163775741012 $272 61.977447386699403 $267 $400 forward 7 unknown #
edge $-1 $273 -156.10827967162086 $399 -127.65815318005747 $163 $401 forward 7 unknown #
coedge $-1 $164 $391 $397 $402 reversed $271 $-1 #
loop $-1 $-1 $391 $259 #
vertex $-1 $402 $403 #
vertex $-1 $165 $404 #
straight-curve $-1 78.054139835810417 12.295636877289262 109.28841909462581 0 0 -1 I I #
coedge $-1 $275 $275 $-1 $405 reversed $168 $-1 #
edge $-1 $406 0 $406 6.2831853071796004 $169 $407 forward 7 unknown #
vertex $-1 $172 $408 #
ellipse-curve $-1 66.123998030331236 16.582296732544705 10.378280248032734 0.54463904215088732 0 0.83867056331134215 1.6773411266226843 0 -1.0892780843017746 1 I I #
coedge $-1 $279 $279 $-1 $409 reversed $175 $-1 #
edge $-1 $410 0 $410 6.2831853071796004 $176 $411 forward 7 unknown #
vertex $-1 $179 $412 #
ellipse-curve $-1 66.123998030331236 23.012286515427874 10.378280248032734 0.54463904215088732 0 0.83867056331134215 1.6773411266226843 0 -1.0892780843017746 1 I I #
face $-1 $-1 $195 $27 $-1 $413 reversed single #
loop $-1 $-1 $299 $180 #
plane-surface $-1 0 46.992084333902994 0 0 -1 0 0 0 -1 forward_v I I I I #
coedge $-1 $414 $297 $300 $415 forward $181 $-1 #
coedge $-1 $303 $183 $184 $291 reversed $113 $-1 #
coedge $-1 $297 $414 $183 $289 reversed $181 $-1 #
edge $-1 $304 -18.125805068751077 $416 18.125805068751077 $288 $417 forward 7 unknown #
coedge $-1 $185 $184 $414 $418 forward $73 $-1 #
edge $-1 $295 -78.054139835810417 $416 78.054139835810417 $287 $419 forward 7 unknown #
coedge $-1 $300 $299 $185 $293 reversed $284 $-1 #
edge $-1 $420 -78.054139835810417 $294 78.054139835810417 $292 $421 forward 7 unknown #
vertex $-1 $187 $422 #
vertex $-1 $306 $423 #
straight-curve $-1 78.054139835810417 0 -18.125805068751077 0 -1 0 I I #
coedge $-1 $286 $288 $188 $298 reversed $181 $-1 #
edge $-1 $301 -46.992084333902994 $304 46.992084333902994 $297 $424 forward 7 unknown #
coedge $-1 $292 $189 $194 $307 forward $284 $-1 #
coedge $-1 $189 $292 $286 $415 reversed $284 $-1 #
vertex $-1 $190 $425 #
straight-curve $-1 0 46.992084333902994 18.125805068751077 -1 0 0 I I #
coedge $-1 $191 $287 $193 $306 reversed $113 $-1 #
vertex $-1 $298 $426 #
straight-curve $-1 0 -46.992084333902994 18.125805068751077 1 0 0 I I #
edge $-1 $196 -18.125805068751077 $295 18.125805068751077 $193 $427 forward 7 unknown #
edge $-1 $197 -18.125805068751077 $294 18.125805068751077 $194 $428 forward 7 unknown #
point $-1 78.054139835810417 -46.992084333902994 18.125805068751077 #
point $-1 78.054139835810417 46.992084333902994 18.125805068751077 #
face $-1 $-1 $214 $28 $-1 $429 reversed single #
loop $-1 $-1 $210 $199 #
plane-surface $-1 0 -46.992084333902994 0 0 1 0 0 0 1 forward_v I I I I #
coedge $-1 $430 $431 $207 $323 forward $200 $-1 #
coedge $-1 $324 $202 $204 $319 reversed $121 $-1 #
edge $-1 $321 -4.4308212653780519 $215 6.1742710315992202 $213 $432 forward 7 unknown #
coedge $-1 $204 $203 $433 $434 reversed $77 $-1 #
coedge $-1 $328 $327 $203 $318 forward $311 $-1 #
edge $-1 $435 -78.054139835810417 $320 78.054139835810417 $317 $436 forward 7 unknown #
edge $-1 $437 -78.054139835810417 $321 78.054139835810417 $314 $438 forward 7 unknown #
vertex $-1 $318 $439 #
vertex $-1 $206 $440 #
straight-curve $-1 78.054139835810417 -19.525828709348172 -3.5590963822674677 0 1 0 I I #
edge $-1 $329 -27.466255624554822 $325 -11.585401794141521 $313 $441 forward 7 unknown #
coedge $-1 $208 $314 $430 $442 reversed $121 $-1 #
vertex $-1 $323 $443 #
straight-curve $-1 0 -31.111230503489693 7.0459959147098044 -1 0 0 I I #
coedge $-1 $317 $210 $431 $444 forward $311 $-1 #
coedge $-1 $210 $317 $212 $331 reversed $311 $-1 #
vertex $-1 $444 $445 #
straight-curve $-1 0 -46.992084333902994 7.0459959147098044 -1 0 0 I I #
edge $-1 $216 -7.0459959147098044 $320 3.5590963822674677 $212 $446 forward 7 unknown #
point $-1 78.054139835810417 -31.111230503489693 7.0459959147098044 #
point $-1 78.054139835810417 -46.992084333902994 7.0459959147098044 #
face $-1 $-1 $351 $29 $-1 $447 reversed single #
loop $-1 $-1 $347 $218 #
plane-surface $-1 -78.054139835810417 0 0 1 0 0 0 0 -1 forward_v I I I I #
coedge $-1 $354 $221 $222 $341 reversed $129 $-1 #
coedge $-1 $347 $448 $221 $339 forward $335 $-1 #
edge $-1 $449 -4.4308212653780519 $355 6.1742710315992202 $338 $450 forward 7 unknown #
coedge $-1 $223 $222 $448 $451 reversed $81 $-1 #
edge $-1 $344 -78.054139835810417 $449 78.054139835810417 $337 $452 forward 7 unknown #
coedge $-1 $350 $349 $223 $343 forward $351 $-1 #
edge $-1 $345 -78.054139835810417 $453 78.054139835810417 $342 $454 forward 7 unknown #
vertex $-1 $225 $455 #
vertex $-1 $343 $456 #
straight-curve $-1 78.054139835810417 19.525828709348175 -3.5590963822674677 0 1 0 I I #
coedge $-1 $457 $338 $226 $348 forward $335 $-1 #
edge $-1 $355 11.585401794141525 $352 27.466255624554826 $347 $458 forward 7 unknown #
coedge $-1 $342 $227 $232 $358 forward $351 $-1 #
coedge $-1 $227 $342 $457 $459 reversed $351 $-1 #
loop $-1 $-1 $227 $334 #
vertex $-1 $459 $460 #
straight-curve $-1 0 46.992084333902994 7.0459959147098044 1 0 0 I I #
coedge $-1 $229 $337 $231 $357 reversed $129 $-1 #
vertex $-1 $348 $461 #
straight-curve $-1 0 31.111230503489701 7.0459959147098044 1 0 0 I I #
edge $-1 $234 -6.1742710315992202 $344 4.4308212653780519 $231 $462 forward 7 unknown #
edge $-1 $233 -7.0459959147098044 $345 3.5590963822674677 $232 $463 forward 7 unknown #
point $-1 78.054139835810417 46.992084333903001 7.0459959147098044 #
point $-1 78.054139835810417 31.111230503489701 7.0459959147098044 #
loop $-1 $-1 $244 $236 #
plane-surface $-1 0 0 18.125805068751077 0 0 1 1 0 0 forward_v I I I I #
coedge $-1 $364 $239 $241 $368 reversed $137 $-1 #
coedge $-1 $239 $363 $464 $465 reversed $137 $-1 #
coedge $-1 $247 $242 $239 $366 forward $237 $-1 #
edge $-1 $369 -39.418291260114984 $466 -25.18068639565756 $365 $467 forward 7 unknown #
coedge $-1 $241 $240 $372 $468 reversed $85 $-1 #
edge $-1 $469 -16.788676014888768 $369 0 $363 $470 forward 7 unknown #
vertex $-1 $243 $471 #
straight-curve $-1 -78.054139835810417 -5.4660811808349052 3.888200204293649 0 -1 0 I I #
coedge $-1 $464 $244 $247 $376 forward $361 $-1 #
coedge $-1 $244 $464 $367 $468 forward $361 $-1 #
vertex $-1 $245 $472 #
straight-curve $-1 -105.22073522134143 -6.7644708947955792 18.125805068751077 -1 0 0 I I #
straight-curve $-1 -78.054139835810417 -6.7644708947955792 3.8882002042936534 0.52991925155115449 0 0.84804810408105047 I I #
edge $-1 $248 6.7644708947955792 $466 15.099853828544042 $247 $473 forward 7 unknown #
point $-1 -78.054139835810417 -6.7644708947955792 18.125805068751077 #
point $-1 -78.054139835810417 -6.7644708947955792 3.8882002042936534 #
edge $-1 $474 1 $474 0 $251 $-1 forward 7 unknown #
vertex $-1 $252 $475 #
ellipse-curve $-1 -72.119204455705415 -12.71831584747305 10.078063099515676 -0.84804810408105047 0 0.52991925155115449 0.26495962577557725 0 0.42402405204052523 1 I I #
point $-1 -73.340858895862496 -12.71831584747305 11.431026688562893 #
edge $-1 $476 1 $476 0 $255 $-1 forward 7 unknown #
vertex $-1 $256 $477 #
ellipse-curve $-1 -72.119204455705415 -9.1460088758665634 10.078063099515676 -0.84804810408105047 0 0.52991925155115449 0.26495962577557725 0 0.42402405204052523 1 I I #
point $-1 -73.340858895862496 -9.1460088758665634 11.431026688562893 #
plane-surface $-1 78.054139835810417 0 0 -1 0 0 0 0 1 forward_v I I I I #
coedge $-1 $398 $397 $390 $478 forward $260 $-1 #
coedge $-1 $390 $262 $264 $394 reversed $159 $-1 #
coedge $-1 $262 $389 $388 $478 reversed $159 $-1 #
coedge $-1 $270 $265 $262 $392 forward $271 $-1 #
edge $-1 $395 -106.6576636673114 $479 -91.162614025874731 $391 $480 forward 7 unknown #
coedge $-1 $264 $263 $398 $481 reversed $99 $-1 #
edge $-1 $482 127.65815318005747 $395 156.10827967162086 $389 $483 forward 7 unknown #
vertex $-1 $266 $484 #
straight-curve $-1 78.054139835810417 9.8986458119931484 2.6307554273144191 0 1 0 I I #
coedge $-1 $388 $267 $270 $402 forward $260 $-1 #
coedge $-1 $267 $388 $393 $481 forward $260 $-1 #
vertex $-1 $268 $485 #
straight-curve $-1 16.076692449111015 12.295636877289262 18.125805068751077 1 0 0 I I #
straight-curve $-1 -52.869279013952379 12.295636877289262 87.653419339488835 -0.83867056331134215 0 0.54463904215088732 I I #
edge $-1 $272 12.295636877289262 $479 27.298946370683332 $270 $486 forward 7 unknown #
point $-1 78.054139835810417 12.295636877289262 18.125805068751077 #
point $-1 78.054139835810432 12.295636877289262 2.630755427314412 #
edge $-1 $487 1 $487 0 $275 $-1 forward 7 unknown #
vertex $-1 $276 $488 #
ellipse-curve $-1 64.39375889547793 16.582296732544705 7.7139456748811757 0.54463904215088732 0 0.83867056331134215 1.6773411266226843 0 -1.0892780843017746 1 I I #
point $-1 67.801339156953929 16.582296732544705 9.2890021637309736 #
edge $-1 $489 1 $489 0 $279 $-1 forward 7 unknown #
vertex $-1 $280 $490 #
ellipse-curve $-1 64.39375889547793 23.012286515427874 7.7139456748811757 0.54463904215088732 0 0.83867056331134215 1.6773411266226843 0 -1.0892780843017746 1 I I #
point $-1 67.801339156953929 23.012286515427874 9.2890021637309736 #
plane-surface $-1 78.054139835810417 0 0 -1 0 0 0 0 1 forward_v I I I I #
coedge $-1 $288 $286 $290 $418 reversed $181 $-1 #
edge $-1 $301 -18.125805068751077 $420 18.125805068751077 $300 $491 forward 7 unknown #
vertex $-1 $418 $492 #
straight-curve $-1 -78.054139835810417 -46.992084333902994 0 0 0 -1 I I #
edge $-1 $416 -46.992084333902994 $420 46.992084333902994 $414 $493 forward 7 unknown #
straight-curve $-1 0 -46.992084333902994 -18.125805068751077 -1 0 0 I I #
vertex $-1 $293 $494 #
straight-curve $-1 0 46.992084333902994 -18.125805068751077 1 0 0 I I #
point $-1 78.054139835810417 46.992084333902994 -18.125805068751077 #
point $-1 78.054139835810417 -46.992084333902994 -18.125805068751077 #
straight-curve $-1 -78.054139835810417 0 18.125805068751077 0 -1 0 I I #
point $-1 -78.054139835810417 46.992084333902994 18.125805068751077 #
point $-1 -78.054139835810417 -46.992084333902994 18.125805068751077 #
straight-curve $-1 78.054139835810417 -46.992084333902994 0 0 0 -1 I I #
straight-curve $-1 78.054139835810417 46.992084333902994 0 0 0 -1 I I #
plane-surface $-1 78.054139835810417 0 0 -1 0 0 0 0 1 forward_v I I I I #
coedge $-1 $433 $313 $324 $442 forward $200 $-1 #
coedge $-1 $313 $433 $327 $444 reversed $200 $-1 #
straight-curve $-1 78.054139835810417 -31.111230503489693 0.87172488311058416 0 0 1 I I #
coedge $-1 $431 $430 $316 $434 forward $200 $-1 #
edge $-1 $437 11.585401794141521 $435 27.466255624554822 $433 $495 forward 7 unknown #
vertex $-1 $318 $496 #
straight-curve $-1 0 -46.992084333902994 -3.5590963822674677 1 0 0 I I #
vertex $-1 $434 $497 #
straight-curve $-1 0 -31.111230503489693 -3.5590963822674677 1 0 0 I I #
point $-1 78.054139835810417 -46.992084333902994 -3.5590963822674677 #
point $-1 78.054139835810417 -31.111230503489693 -3.5590963822674677 #
straight-curve $-1 -78.054139835810417 -19.525828709348172 7.0459959147098044 0 1 0 I I #
edge $-1 $325 -6.1742710315992202 $437 4.4308212653780519 $430 $498 forward 7 unknown #
point $-1 -78.054139835810417 -31.111230503489693 7.0459959147098044 #
edge $-1 $329 -7.0459959147098044 $435 3.5590963822674677 $431 $499 forward 7 unknown #
point $-1 -78.054139835810417 -46.992084333902994 7.0459959147098044 #
straight-curve $-1 78.054139835810417 -46.992084333902994 0 0 0 -1 I I #
plane-surface $-1 0 46.992084333902994 0 0 -1 0 0 0 -1 forward_v I I I I #
coedge $-1 $338 $457 $340 $451 forward $335 $-1 #
vertex $-1 $451 $500 #
straight-curve $-1 -78.054139835810417 31.111230503489701 0.87172488311058416 0 0 1 I I #
edge $-1 $453 -27.466255624554826 $449 -11.585401794141525 $448 $501 forward 7 unknown #
straight-curve $-1 0 31.111230503489701 -3.5590963822674677 -1 0 0 I I #
vertex $-1 $343 $502 #
straight-curve $-1 0 46.992084333902994 -3.5590963822674677 -1 0 0 I I #
point $-1 78.054139835810417 31.111230503489701 -3.5590963822674677 #
point $-1 78.054139835810417 46.992084333903001 -3.5590963822674677 #
coedge $-1 $448 $347 $350 $459 forward $335 $-1 #
straight-curve $-1 -78.054139835810417 19.525828709348175 7.0459959147098044 0 1 0 I I #
edge $-1 $352 -7.0459959147098044 $453 3.5590963822674677 $350 $503 forward 7 unknown #
point $-1 -78.054139835810417 46.992084333903001 7.0459959147098044 #
point $-1 -78.054139835810417 31.111230503489701 7.0459959147098044 #
straight-curve $-1 78.054139835810417 31.111230503489701 0.87172488311058416 0 0 -1 I I #
straight-curve $-1 78.054139835810417 46.992084333902994 0 0 0 -1 I I #
coedge $-1 $372 $371 $364 $465 forward $361 $-1 #
edge $-1 $466 27.166595385531011 $469 36.06323801387569 $464 $504 forward 7 unknown #
vertex $-1 $465 $505 #
straight-curve $-1 -78.054139835810417 -15.099853828544042 43.306491464408637 0 0 1 I I #
edge $-1 $469 -9.6337726477091365 $373 -1.2983897139606739 $372 $506 forward 7 unknown #
vertex $-1 $468 $507 #
straight-curve $-1 -78.054139835810417 -15.099853828544042 3.8882002042936534 -0.52991925155115449 0 -0.84804810408105047 I I #
point $-1 -78.054139835810417 -15.099853828544042 3.8882002042936534 #
point $-1 -69.157497207465738 -6.7644708947955792 18.125805068751077 #
straight-curve $-1 -78.054139835810417 0 18.125805068751077 0 -1 0 I I #
vertex $-1 $379 $508 #
point $-1 -71.85424482992984 -12.71831584747305 10.5020871515562 #
vertex $-1 $383 $509 #
point $-1 -71.85424482992984 -9.1460088758665634 10.5020871515562 #
edge $-1 $479 -61.977447386699403 $482 -38.117163775741012 $388 $510 forward 7 unknown #
vertex $-1 $392 $511 #
straight-curve $-1 78.054139835810417 27.298946370683332 109.28841909462581 0 0 1 I I #
edge $-1 $482 -17.400300558690184 $399 -2.3969910652961133 $398 $512 forward 7 unknown #
vertex $-1 $481 $513 #
straight-curve $-1 -52.869279013952379 27.298946370683332 87.653419339488835 0.83867056331134215 0 -0.54463904215088732 I I #
point $-1 78.054139835810432 27.298946370683332 2.630755427314412 #
point $-1 54.193856224852027 12.295636877289262 18.125805068751077 #
straight-curve $-1 78.054139835810417 0 18.125805068751077 0 1 0 I I #
vertex $-1 $405 $514 #
point $-1 66.071100022100609 16.582296732544705 6.624667590579401 #
vertex $-1 $409 $515 #
point $-1 66.071100022100609 23.012286515427874 6.624667590579401 #
straight-curve $-1 -78.054139835810417 46.992084333902994 0 0 0 -1 I I #
point $-1 -78.054139835810417 -46.992084333902994 -18.125805068751077 #
straight-curve $-1 -78.054139835810417 0 -18.125805068751077 0 1 0 I I #
point $-1 -78.054139835810417 46.992084333902994 -18.125805068751077 #
straight-curve $-1 -78.054139835810417 -19.525828709348172 -3.5590963822674677 0 -1 0 I I #
point $-1 -78.054139835810417 -46.992084333902994 -3.5590963822674677 #
point $-1 -78.054139835810417 -31.111230503489693 -3.5590963822674677 #
straight-curve $-1 -78.054139835810417 -31.111230503489693 0.87172488311058416 0 0 -1 I I #
straight-curve $-1 -78.054139835810417 -46.992084333902994 0 0 0 -1 I I #
point $-1 -78.054139835810417 31.111230503489701 -3.5590963822674677 #
straight-curve $-1 -78.054139835810417 19.525828709348175 -3.5590963822674677 0 -1 0 I I #
point $-1 -78.054139835810417 46.992084333903001 -3.5590963822674677 #
straight-curve $-1 -78.054139835810417 46.992084333902994 0 0 0 -1 I I #
straight-curve $-1 -105.22073522134143 -15.099853828544042 18.125805068751077 1 0 0 I I #
point $-1 -78.054139835810417 -15.099853828544042 18.125805068751077 #
straight-curve $-1 -69.157497207465738 -5.4660811808349052 18.125805068751077 0 1 0 I I #
point $-1 -69.157497207465738 -15.099853828544042 18.125805068751077 #
point $-1 -71.695180403664892 -12.71831584747305 9.8131034737400977 #
point $-1 -71.695180403664892 -9.1460088758665634 9.8131034737400977 #
straight-curve $-1 16.076692449111015 27.298946370683332 18.125805068751077 -1 0 0 I I #
point $-1 78.054139835810417 27.298946370683332 18.125805068751077 #
straight-curve $-1 54.193856224852041 9.8986458119931484 18.12580506875107 0 -1 0 I I #
point $-1 54.193856224852027 27.298946370683332 18.125805068751077 #
point $-1 63.304480811176155 16.582296732544705 6.0366045482584934 #
point $-1 63.304480811176155 23.012286515427874 6.0366045482584934 #
End-of-ACIS-data 