500 0 6 0           
7 Unknown 11 ACIS 5.0 NT 24 Thu Mar 25 18:26:25 1999 
-1 9.9999999999999995e-007 1e-010 
body $-1 $6 $-1 $7 #
body $-1 $8 $-1 $9 #
body $-1 $10 $-1 $11 #
body $-1 $12 $-1 $13 #
body $-1 $14 $-1 $15 #
body $-1 $16 $-1 $17 #
lump $-1 $-1 $18 $0 #
transform $-1 1 0 0 0 1 0 0 0 1 64.253669850764481 27.772794319387263 11.402890441494327 1 rotate no_reflect no_shear #
lump $-1 $-1 $19 $1 #
transform $-1 1 0 0 0 1 0 0 0 1 64.253669850764481 27.772794319387263 11.402890441494327 1 rotate no_reflect no_shear #
lump $-1 $-1 $20 $2 #
transform $-1 1 0 0 0 1 0 0 0 1 64.253669850764481 27.772794319387263 11.402890441494327 1 rotate no_reflect no_shear #
lump $-1 $-1 $21 $3 #
transform $-1 1 0 0 0 1 0 0 0 1 64.253669850764481 27.772794319387263 11.402890441494327 1 rotate no_reflect no_shear #
lump $-1 $-1 $22 $4 #
transform $-1 1 0 0 0 1 0 0 0 1 64.253669850764481 27.772794319387263 11.402890441494327 1 rotate no_reflect no_shear #
lump $-1 $-1 $23 $5 #
transform $-1 1 0 0 0 1 0 0 0 1 64.253669850764481 27.772794319387263 11.402890441494327 1 rotate no_reflect no_shear #
shell $-1 $-1 $-1 $24 $-1 $6 #
shell $-1 $-1 $-1 $25 $-1 $8 #
shell $-1 $-1 $-1 $26 $-1 $10 #
shell $-1 $-1 $-1 $27 $-1 $12 #
shell $-1 $-1 $-1 $28 $-1 $14 #
shell $-1 $-1 $-1 $29 $-1 $16 #
face $-1 $30 $31 $18 $-1 $32 reversed single #
face $-1 $33 $34 $19 $-1 $35 forward single #
face $-1 $36 $37 $20 $-1 $38 reversed single #
face $-1 $39 $40 $21 $-1 $41 forward single #
face $-1 $42 $43 $22 $-1 $44 reversed single #
face $-1 $45 $46 $23 $-1 $47 forward single #
face $-1 $48 $49 $18 $-1 $50 forward single #
loop $-1 $-1 $51 $24 #
plane-surface $-1 0 -27.772794319387263 0 0 1 0 0 0 1 forward_v I I I I #
face $-1 $52 $53 $19 $-1 $54 reversed single #
loop $-1 $-1 $55 $25 #
plane-surface $-1 0 -27.772794319387263 0 0 1 0 0 0 1 forward_v I I I I #
face $-1 $56 $57 $20 $-1 $58 reversed single #
loop $-1 $-1 $59 $26 #
plane-surface $-1 -174.40596034997301 18.517625826222645 66.652898694672814 0 1 0 -0.85716730853699208 0 0.51503806187062418 forward_v I I I I #
face $-1 $60 $61 $21 $-1 $62 forward single #
loop $-1 $63 $64 $27 #
cone-surface $-1 -59.995806942470004 23.145210072804954 5.3505872874338154 0.85716730853699208 0 -0.51503806187062418 0.77255709280593621 0 1.2857509628054882 1 I I 0 1 1.5 forward I I I I #
face $-1 $65 $66 $22 $-1 $67 reversed single #
loop $-1 $-1 $68 $28 #
plane-surface $-1 108.21978917394762 18.517625826222645 176.80518919388135 0 1 0 0.85716730853699208 0 0.51503806187062418 forward_v I I I I #
face $-1 $69 $70 $23 $-1 $71 forward single #
loop $-1 $72 $73 $29 #
cone-surface $-1 59.995806942469997 23.145210072804954 5.3505872874338332 -0.85716730853699208 0 -0.51503806187062418 0.77255709280593621 0 -1.2857509628054882 1 I I 0 1 1.5 forward I I I I #
face $-1 $74 $75 $18 $-1 $76 reversed single #
loop $-1 $-1 $77 $30 #
plane-surface $-1 0 0 11.402890441494327 0 0 1 1 0 0 forward_v I I I I #
coedge $-1 $78 $79 $80 $81 reversed $31 $-1 #
face $-1 $82 $83 $19 $-1 $84 reversed single #
loop $-1 $-1 $85 $33 #
plane-surface $-1 0 0 -11.402890441494327 0 0 1 1 0 0 forward_v I I I I #
coedge $-1 $86 $87 $88 $89 forward $34 $-1 #
face $-1 $90 $91 $20 $-1 $92 reversed single #
loop $-1 $-1 $93 $36 #
plane-surface $-1 -64.253669850764481 23.145210072804954 0.46672751864741713 -0.85716730853699208 0 0.51503806187062418 0.51503806187062418 0 0.85716730853699208 forward_v I I I I #
coedge $-1 $94 $95 $96 $97 reversed $37 $-1 #
face $-1 $-1 $98 $21 $-1 $99 forward single #
loop $-1 $100 $101 $39 #
cone-surface $-1 -58.38062325136368 23.145210072804954 4.3800870483937953 0.85716730853699208 0 -0.51503806187062418 0.3862785464029681 0 0.64287548140274409 1 I I -0.70710678118654757 0.70710678118654757 0.75 forward I I I I #
loop $-1 $-1 $102 $27 #
coedge $-1 $64 $64 $103 $104 reversed $40 $-1 #
face $-1 $105 $106 $22 $-1 $107 reversed single #
loop $-1 $-1 $108 $42 #
plane-surface $-1 -1.9325013252609153 23.145210072804954 110.61901801785595 0.85716730853699208 0 0.51503806187062418 0.51503806187062418 0 -0.85716730853699208 forward_v I I I I #
coedge $-1 $109 $110 $111 $112 reversed $43 $-1 #
face $-1 $-1 $113 $23 $-1 $114 forward single #
loop $-1 $115 $116 $45 #
cone-surface $-1 58.380623251363673 23.145210072804954 4.380087048393813 -0.85716730853699208 0 -0.51503806187062418 0.3862785464029681 0 -0.64287548140274409 1 I I -0.70710678118654757 0.70710678118654757 0.75 forward I I I I #
loop $-1 $-1 $117 $29 #
coedge $-1 $73 $73 $118 $119 reversed $46 $-1 #
face $-1 $120 $121 $18 $-1 $122 reversed single #
loop $-1 $-1 $123 $48 #
plane-surface $-1 0 0 -11.402890441494327 0 0 1 1 0 0 forward_v I I I I #
coedge $-1 $124 $125 $126 $127 forward $49 $-1 #
coedge $-1 $128 $51 $129 $130 reversed $31 $-1 #
coedge $-1 $51 $128 $131 $132 forward $31 $-1 #
coedge $-1 $133 $123 $51 $81 forward $75 $-1 #
edge $-1 $134 -64.253669850764481 $135 64.253669850764481 $51 $136 forward 7 unknown #
face $-1 $137 $138 $19 $-1 $139 reversed single #
loop $-1 $-1 $140 $52 #
plane-surface $-1 -43.083659301350586 -38.811879416317026 0 0 1 0 0 0 1 forward_v I I I I #
coedge $-1 $141 $142 $87 $143 forward $53 $-1 #
coedge $-1 $144 $55 $145 $146 reversed $34 $-1 #
coedge $-1 $55 $144 $85 $143 reversed $34 $-1 #
coedge $-1 $147 $148 $55 $89 reversed $138 $-1 #
edge $-1 $149 -11.402890441494327 $150 11.402890441494327 $88 $151 forward 7 unknown #
face $-1 $152 $153 $20 $-1 $154 forward single #
loop $-1 $-1 $155 $56 #
plane-surface $-1 -64.253669850764481 0 0 1 0 0 0 0 -1 forward_v I I I I #
coedge $-1 $156 $157 $158 $159 reversed $57 $-1 #
coedge $-1 $95 $59 $160 $161 reversed $37 $-1 #
coedge $-1 $59 $94 $156 $162 reversed $37 $-1 #
coedge $-1 $158 $163 $59 $97 forward $153 $-1 #
edge $-1 $164 22.949310324222026 $165 29.520419721403819 $96 $166 forward 7 unknown #
loop $-1 $-1 $103 $60 #
plane-surface $-1 -64.253669850764481 23.145210072804954 0.46672751864741713 -0.85716730853699208 0 0.51503806187062418 0.51503806187062418 0 0.85716730853699208 forward_v I I I I #
loop $-1 $-1 $167 $39 #
coedge $-1 $101 $101 $102 $168 reversed $61 $-1 #
coedge $-1 $102 $102 $101 $168 forward $63 $-1 #
coedge $-1 $103 $103 $64 $104 forward $98 $-1 #
edge $-1 $169 0 $169 6.2831853071796004 $103 $170 forward 7 unknown #
face $-1 $171 $172 $22 $-1 $173 forward single #
loop $-1 $-1 $174 $65 #
plane-surface $-1 0 27.772794319387263 0 0 -1 0 0 0 -1 forward_v I I I I #
coedge $-1 $175 $176 $177 $178 reversed $66 $-1 #
coedge $-1 $110 $68 $179 $180 reversed $43 $-1 #
coedge $-1 $68 $109 $175 $181 reversed $43 $-1 #
coedge $-1 $177 $182 $68 $112 forward $183 $-1 #
edge $-1 $184 76.999704155446352 $185 87.935867078293242 $111 $186 forward 7 unknown #
loop $-1 $-1 $118 $69 #
plane-surface $-1 -1.9325013252609153 23.145210072804954 110.61901801785595 0.85716730853699208 0 0.51503806187062418 0.51503806187062418 0 -0.85716730853699208 forward_v I I I I #
loop $-1 $-1 $187 $45 #
coedge $-1 $116 $116 $117 $188 reversed $70 $-1 #
coedge $-1 $117 $117 $116 $188 forward $72 $-1 #
coedge $-1 $118 $118 $73 $119 forward $113 $-1 #
edge $-1 $189 0 $189 6.2831853071796004 $118 $190 forward 7 unknown #
face $-1 $191 $192 $18 $-1 $193 reversed single #
loop $-1 $-1 $194 $74 #
plane-surface $-1 -64.253669850764481 0 0 1 0 0 0 0 -1 forward_v I I I I #
coedge $-1 $80 $195 $196 $197 forward $75 $-1 #
coedge $-1 $198 $77 $199 $200 forward $49 $-1 #
coedge $-1 $77 $198 $128 $201 forward $49 $-1 #
coedge $-1 $129 $202 $77 $127 reversed $203 $-1 #
edge $-1 $204 -27.772794319387263 $205 27.772794319387263 $126 $206 forward 7 unknown #
coedge $-1 $79 $78 $125 $201 reversed $31 $-1 #
coedge $-1 $196 $126 $78 $130 forward $203 $-1 #
edge $-1 $204 -11.402890441494327 $134 11.402890441494327 $129 $207 forward 7 unknown #
coedge $-1 $208 $209 $79 $132 reversed $121 $-1 #
edge $-1 $210 -11.402890441494327 $135 11.402890441494327 $131 $211 forward 7 unknown #
coedge $-1 $195 $80 $209 $212 forward $75 $-1 #
vertex $-1 $130 $213 #
vertex $-1 $212 $214 #
straight-curve $-1 0 -27.772794319387263 -11.402890441494327 -1 0 0 I I #
face $-1 $215 $216 $19 $-1 $217 reversed single #
loop $-1 $-1 $88 $82 #
plane-surface $-1 -44.719429634925348 -33.292336867852143 0 1 0 0 0 0 -1 forward_v I I I I #
coedge $-1 $218 $219 $220 $221 forward $83 $-1 #
coedge $-1 $222 $85 $223 $224 forward $53 $-1 #
coedge $-1 $85 $222 $147 $225 forward $53 $-1 #
edge $-1 $149 -44.719429634925348 $226 -41.447888967775825 $85 $227 forward 7 unknown #
coedge $-1 $87 $86 $228 $229 forward $34 $-1 #
coedge $-1 $230 $231 $86 $146 forward $232 $-1 #
edge $-1 $233 41.447888967775825 $150 44.719429634925348 $145 $234 forward 7 unknown #
coedge $-1 $220 $88 $142 $225 reversed $138 $-1 #
coedge $-1 $88 $220 $230 $235 reversed $138 $-1 #
vertex $-1 $143 $236 #
vertex $-1 $235 $237 #
straight-curve $-1 -44.719429634925348 -27.772794319387263 0 0 0 1 I I #
face $-1 $-1 $238 $20 $-1 $239 reversed single #
loop $-1 $-1 $158 $90 #
plane-surface $-1 0 0 11.402890441494327 0 0 1 1 0 0 forward_v I I I I #
coedge $-1 $160 $240 $241 $242 forward $91 $-1 #
coedge $-1 $241 $93 $95 $162 forward $57 $-1 #
coedge $-1 $93 $241 $243 $244 reversed $57 $-1 #
coedge $-1 $245 $96 $93 $159 forward $153 $-1 #
edge $-1 $165 6.9450207898201679 $246 16.200189282984788 $158 $247 forward 7 unknown #
coedge $-1 $248 $155 $94 $161 forward $91 $-1 #
edge $-1 $249 -32.85972182868899 $164 -21.923558905842079 $160 $250 forward 7 unknown #
edge $-1 $165 -12.758492786563091 $249 0 $95 $251 forward 7 unknown #
coedge $-1 $96 $245 $248 $252 forward $153 $-1 #
vertex $-1 $161 $253 #
vertex $-1 $97 $254 #
straight-curve $-1 -87.202980174986507 18.517625826222645 11.402890441494328 1 0 0 I I #
coedge $-1 $167 $167 $-1 $255 reversed $100 $-1 #
edge $-1 $256 0 $256 6.2831853071796004 $101 $257 forward 7 unknown #
vertex $-1 $104 $258 #
ellipse-curve $-1 -60.968115152173588 23.145210072804954 5.9348089800708692 -0.85716730853699208 0 0.51503806187062418 0.77255709280593621 0 1.2857509628054882 1 I I #
face $-1 $-1 $183 $22 $-1 $259 reversed single #
loop $-1 $-1 $260 $105 #
plane-surface $-1 0 0 11.402890441494327 0 0 1 1 0 0 forward_v I I I I #
coedge $-1 $261 $262 $176 $263 forward $106 $-1 #
coedge $-1 $264 $108 $110 $181 forward $66 $-1 #
coedge $-1 $108 $264 $174 $263 reversed $66 $-1 #
coedge $-1 $265 $111 $108 $178 forward $183 $-1 #
edge $-1 $185 6.9450207898201679 $266 16.200189282984788 $177 $267 forward 7 unknown #
coedge $-1 $268 $260 $109 $180 forward $172 $-1 #
edge $-1 $269 3.5726658666088866 $184 10.143775263790673 $179 $270 forward 7 unknown #
edge $-1 $185 -128.50733970152899 $269 -115.74884691496591 $110 $271 forward 7 unknown #
coedge $-1 $111 $265 $268 $272 reversed $183 $-1 #
loop $-1 $-1 $177 $171 #
vertex $-1 $272 $273 #
vertex $-1 $112 $274 #
straight-curve $-1 64.253669850764481 18.517625826222645 88.402594596940673 0 0 -1 I I #
coedge $-1 $187 $187 $-1 $275 reversed $115 $-1 #
edge $-1 $276 0 $276 6.2831853071796004 $116 $277 forward 7 unknown #
vertex $-1 $119 $278 #
ellipse-curve $-1 60.968115152173574 23.145210072804954 5.9348089800708834 0.85716730853699208 0 0.51503806187062418 0.77255709280593621 0 -1.2857509628054882 1 I I #
face $-1 $-1 $203 $18 $-1 $279 reversed single #
loop $-1 $-1 $280 $120 #
plane-surface $-1 0 27.772794319387263 0 0 -1 0 0 0 -1 forward_v I I I I #
coedge $-1 $209 $208 $281 $282 forward $121 $-1 #
coedge $-1 $123 $133 $283 $284 forward $75 $-1 #
coedge $-1 $202 $129 $123 $197 reversed $203 $-1 #
edge $-1 $285 -27.772794319387263 $134 27.772794319387263 $196 $286 forward 7 unknown #
coedge $-1 $125 $124 $208 $287 forward $49 $-1 #
coedge $-1 $280 $281 $124 $200 reversed $192 $-1 #
edge $-1 $205 -64.253669850764481 $288 64.253669850764481 $199 $289 forward 7 unknown #
edge $-1 $210 -64.253669850764481 $204 64.253669850764481 $128 $290 forward 7 unknown #
coedge $-1 $126 $196 $280 $291 reversed $203 $-1 #
loop $-1 $-1 $129 $191 #
vertex $-1 $127 $292 #
vertex $-1 $127 $293 #
straight-curve $-1 64.253669850764481 0 11.402890441494327 0 1 0 I I #
straight-curve $-1 64.253669850764481 -27.772794319387263 0 0 0 -1 I I #
coedge $-1 $194 $131 $198 $287 reversed $121 $-1 #
coedge $-1 $131 $194 $133 $212 reversed $121 $-1 #
vertex $-1 $287 $294 #
straight-curve $-1 -64.253669850764481 -27.772794319387263 0 0 0 -1 I I #
edge $-1 $135 -27.772794319387263 $295 27.772794319387263 $209 $296 forward 7 unknown #
point $-1 64.253669850764481 -27.772794319387263 -11.402890441494327 #
point $-1 -64.253669850764481 -27.772794319387263 -11.402890441494327 #
face $-1 $-1 $232 $19 $-1 $297 forward single #
loop $-1 $-1 $298 $137 #
plane-surface $-1 -41.447888967775825 -33.292336867852143 0 -1 0 0 0 0 1 forward_v I I I I #
coedge $-1 $299 $140 $222 $300 reversed $83 $-1 #
coedge $-1 $140 $299 $301 $302 reversed $83 $-1 #
coedge $-1 $148 $147 $140 $221 reversed $138 $-1 #
edge $-1 $303 -11.402890441494327 $304 11.402890441494327 $220 $305 forward 7 unknown #
coedge $-1 $142 $141 $218 $300 forward $53 $-1 #
coedge $-1 $228 $298 $141 $224 reversed $216 $-1 #
edge $-1 $226 -5.5195425484648837 $306 5.5195425484648837 $223 $307 forward 7 unknown #
edge $-1 $304 -5.5195425484648837 $149 5.5195425484648837 $147 $308 forward 7 unknown #
vertex $-1 $224 $309 #
straight-curve $-1 0 -27.772794319387263 -11.402890441494327 1 0 0 I I #
coedge $-1 $310 $223 $144 $229 reversed $216 $-1 #
edge $-1 $233 -11.402890441494327 $226 11.402890441494327 $228 $311 forward 7 unknown #
coedge $-1 $301 $145 $148 $235 forward $232 $-1 #
coedge $-1 $145 $301 $310 $312 forward $232 $-1 #
loop $-1 $-1 $145 $215 #
vertex $-1 $146 $313 #
straight-curve $-1 0 -27.772794319387263 11.402890441494327 -1 0 0 I I #
edge $-1 $150 -5.5195425484648837 $303 5.5195425484648837 $148 $314 forward 7 unknown #
point $-1 -44.719429634925348 -27.772794319387259 -11.402890441494327 #
point $-1 -44.719429634925348 -27.772794319387259 11.402890441494327 #
loop $-1 $-1 $243 $152 #
plane-surface $-1 0 27.772794319387263 0 0 -1 0 0 0 -1 forward_v I I I I #
coedge $-1 $155 $248 $315 $316 forward $91 $-1 #
coedge $-1 $157 $156 $155 $242 reversed $57 $-1 #
edge $-1 $317 -16.200189282984788 $249 -6.9450207898201679 $155 $318 forward 7 unknown #
coedge $-1 $315 $319 $157 $244 forward $238 $-1 #
edge $-1 $246 3.5880182219536882 $317 16.346511008516778 $243 $320 forward 7 unknown #
coedge $-1 $163 $158 $319 $321 forward $153 $-1 #
vertex $-1 $321 $322 #
straight-curve $-1 -57.682560453582695 11.572605036402477 11.402890441494327 0 1 0 I I #
coedge $-1 $240 $160 $163 $252 reversed $91 $-1 #
vertex $-1 $161 $323 #
straight-curve $-1 -64.253669850764481 18.517625826222645 33.326449347336407 0 0 1 I I #
straight-curve $-1 -64.253669850764481 18.517625826222645 0.46672751864741713 -0.51503806187062418 0 -0.85716730853699208 I I #
edge $-1 $324 -27.772794319387263 $164 -18.517625826222645 $248 $325 forward 7 unknown #
point $-1 -64.253669850764481 18.517625826222645 11.402890441494327 #
point $-1 -57.682560453582688 18.517625826222645 11.402890441494327 #
edge $-1 $326 1 $326 0 $167 $-1 forward 7 unknown #
vertex $-1 $168 $327 #
ellipse-curve $-1 -59.023498732766427 23.145210072804954 4.7663655947967634 -0.85716730853699208 0 0.51503806187062418 0.77255709280593621 0 1.2857509628054882 1 I I #
point $-1 -60.195558059367649 23.145210072804954 7.2205599428763563 #
plane-surface $-1 64.253669850764481 0 0 -1 0 0 0 0 1 forward_v I I I I #
coedge $-1 $179 $328 $264 $329 forward $172 $-1 #
coedge $-1 $262 $174 $328 $330 reversed $106 $-1 #
coedge $-1 $174 $261 $265 $331 forward $106 $-1 #
edge $-1 $266 -80.600180859281267 $332 -67.841688072718171 $174 $333 forward 7 unknown #
coedge $-1 $176 $175 $260 $329 reversed $66 $-1 #
coedge $-1 $182 $177 $262 $331 reversed $183 $-1 #
vertex $-1 $178 $334 #
straight-curve $-1 64.253669850764481 11.572605036402477 0.46672751864741002 0 1 0 I I #
coedge $-1 $328 $179 $182 $272 forward $172 $-1 #
vertex $-1 $180 $335 #
straight-curve $-1 54.109894586973809 18.517625826222645 11.402890441494321 1 0 0 I I #
straight-curve $-1 -1.9325013252609153 18.517625826222645 110.61901801785595 -0.51503806187062418 0 0.85716730853699208 I I #
edge $-1 $184 18.517625826222645 $336 27.772794319387263 $182 $337 forward 7 unknown #
point $-1 64.253669850764481 18.517625826222645 11.402890441494327 #
point $-1 64.253669850764481 18.517625826222645 0.46672751864743134 #
edge $-1 $338 1 $338 0 $187 $-1 forward 7 unknown #
vertex $-1 $188 $339 #
ellipse-curve $-1 59.02349873276642 23.145210072804954 4.7663655947967811 0.85716730853699208 0 0.51503806187062418 0.77255709280593621 0 -1.2857509628054882 1 I I #
point $-1 61.740672244979514 23.145210072804954 4.6490580172653981 #
plane-surface $-1 64.253669850764481 0 0 -1 0 0 0 0 1 forward_v I I I I #
coedge $-1 $283 $199 $202 $291 forward $192 $-1 #
coedge $-1 $199 $283 $194 $282 reversed $192 $-1 #
edge $-1 $288 -11.402890441494327 $295 11.402890441494327 $281 $340 forward 7 unknown #
coedge $-1 $281 $280 $195 $284 reversed $192 $-1 #
edge $-1 $295 -64.253669850764481 $285 64.253669850764481 $283 $341 forward 7 unknown #
vertex $-1 $197 $342 #
straight-curve $-1 64.253669850764481 0 -11.402890441494327 0 -1 0 I I #
edge $-1 $288 -27.772794319387263 $210 27.772794319387263 $208 $343 forward 7 unknown #
vertex $-1 $200 $344 #
straight-curve $-1 0 27.772794319387263 11.402890441494327 -1 0 0 I I #
straight-curve $-1 0 -27.772794319387263 11.402890441494327 1 0 0 I I #
edge $-1 $205 -11.402890441494327 $285 11.402890441494327 $202 $345 forward 7 unknown #
point $-1 64.253669850764481 -27.772794319387263 11.402890441494327 #
point $-1 64.253669850764481 27.772794319387263 11.402890441494327 #
point $-1 -64.253669850764481 -27.772794319387263 11.402890441494327 #
vertex $-1 $284 $346 #
straight-curve $-1 -64.253669850764481 0 -11.402890441494327 0 1 0 I I #
plane-surface $-1 0 0 11.402890441494327 0 0 1 1 0 0 forward_v I I I I #
coedge $-1 $223 $310 $299 $347 forward $216 $-1 #
coedge $-1 $219 $218 $298 $347 reversed $83 $-1 #
edge $-1 $306 -1.6357703335747615 $304 1.6357703335747615 $218 $348 forward 7 unknown #
coedge $-1 $231 $230 $219 $302 forward $232 $-1 #
edge $-1 $303 -1.6357703335747615 $349 1.6357703335747615 $219 $350 forward 7 unknown #
vertex $-1 $235 $351 #
vertex $-1 $225 $352 #
straight-curve $-1 -44.719429634925348 -38.811879416317026 0 0 0 -1 I I #
vertex $-1 $347 $353 #
straight-curve $-1 -41.447888967775825 -33.292336867852143 -11.402890441494327 0 -1 0 I I #
straight-curve $-1 -44.719429634925348 -33.292336867852143 -11.402890441494327 0 1 0 I I #
point $-1 -41.447888967775825 -27.772794319387259 -11.402890441494327 #
coedge $-1 $298 $228 $231 $312 reversed $216 $-1 #
straight-curve $-1 -41.447888967775825 -27.772794319387263 0 0 0 -1 I I #
edge $-1 $349 -5.5195425484648837 $233 5.5195425484648837 $310 $354 forward 7 unknown #
point $-1 -41.447888967775825 -27.772794319387259 11.402890441494327 #
straight-curve $-1 -44.719429634925348 -33.292336867852143 11.402890441494327 0 -1 0 I I #
coedge $-1 $319 $243 $240 $316 reversed $238 $-1 #
edge $-1 $324 -11.402890441494327 $317 -0.46672751864741713 $315 $355 forward 7 unknown #
vertex $-1 $244 $356 #
straight-curve $-1 -64.253669850764481 11.572605036402477 0.46672751864741618 0 -1 0 I I #
coedge $-1 $243 $315 $245 $321 reversed $238 $-1 #
straight-curve $-1 -55.834594502591173 27.772794319387263 14.47842236378805 -0.51503806187062429 0 -0.85716730853699219 I I #
edge $-1 $246 57.682560453582688 $324 64.253669850764481 $319 $357 forward 7 unknown #
point $-1 -57.682560453582688 27.772794319387263 11.402890441494327 #
point $-1 -64.253669850764481 18.517625826222645 0.46672751864741713 #
vertex $-1 $321 $358 #
straight-curve $-1 -64.253669850764481 0 11.402890441494327 0 -1 0 I I #
vertex $-1 $255 $359 #
point $-1 -58.250941639960487 23.145210072804954 6.0521165576022513 #
coedge $-1 $260 $268 $261 $330 forward $172 $-1 #
edge $-1 $332 -16.200189282984788 $269 -6.9450207898201679 $260 $360 forward 7 unknown #
edge $-1 $336 -64.253669850764481 $332 -57.682560453582695 $261 $361 forward 7 unknown #
edge $-1 $336 -11.402890441494327 $266 -0.46672751864740164 $265 $362 forward 7 unknown #
vertex $-1 $329 $363 #
straight-curve $-1 22.741508914578478 27.772794319387263 69.554567613392308 -0.51503806187062429 0 0.85716730853699219 I I #
point $-1 64.253669850764481 27.772794319387263 0.46672751864740164 #
point $-1 57.682560453582695 18.517625826222645 11.402890441494321 #
vertex $-1 $272 $364 #
straight-curve $-1 64.253669850764481 0 11.402890441494327 0 1 0 I I #
vertex $-1 $275 $365 #
point $-1 59.796055825572353 23.145210072804954 3.4806146319912932 #
straight-curve $-1 -64.253669850764481 27.772794319387263 0 0 0 -1 I I #
straight-curve $-1 0 27.772794319387263 -11.402890441494327 1 0 0 I I #
point $-1 64.253669850764481 27.772794319387263 -11.402890441494327 #
straight-curve $-1 -64.253669850764481 0 11.402890441494327 0 -1 0 I I #
point $-1 -64.253669850764481 27.772794319387263 11.402890441494327 #
straight-curve $-1 64.253669850764481 27.772794319387263 0 0 0 -1 I I #
point $-1 -64.253669850764481 27.772794319387263 -11.402890441494327 #
edge $-1 $349 -11.402890441494327 $306 11.402890441494327 $298 $366 forward 7 unknown #
straight-curve $-1 -43.083659301350586 -38.811879416317026 -11.402890441494327 -1 0 0 I I #
vertex $-1 $312 $367 #
straight-curve $-1 -43.083659301350586 -38.811879416317026 11.402890441494327 1 0 0 I I #
point $-1 -44.719429634925348 -38.811879416317026 11.402890441494327 #
point $-1 -44.719429634925348 -38.811879416317026 -11.402890441494327 #
point $-1 -41.447888967775825 -38.811879416317026 -11.402890441494327 #
straight-curve $-1 -41.447888967775825 -33.292336867852143 11.402890441494327 0 1 0 I I #
straight-curve $-1 -64.253669850764481 27.772794319387263 0 0 0 -1 I I #
point $-1 -64.253669850764481 27.772794319387263 0.46672751864741713 #
straight-curve $-1 0 27.772794319387263 11.402890441494327 -1 0 0 I I #
point $-1 -64.253669850764481 27.772794319387263 11.402890441494327 #
point $-1 -57.737747769960933 23.145210072804954 3.9938085019908272 #
straight-curve $-1 57.682560453582681 11.572605036402477 11.402890441494328 0 -1 0 I I #
straight-curve $-1 0 27.772794319387263 11.402890441494327 -1 0 0 I I #
straight-curve $-1 64.253669850764481 27.772794319387263 0 0 0 -1 I I #
point $-1 57.682560453582695 27.772794319387263 11.402890441494321 #
point $-1 64.253669850764481 27.772794319387263 11.402890441494327 #
point $-1 57.737747769960926 23.145210072804954 3.9938085019908449 #
straight-curve $-1 -41.447888967775825 -38.811879416317026 0 0 0 -1 I I #
point $-1 -41.447888967775825 -38.811879416317026 11.402890441494327 #
End-of-ACIS-data 