500 0 14 0           
7 Unknown 11 ACIS 5.0 NT 24 Fri Mar 26 02:21:58 1999 
-1 9.9999999999999995e-007 1e-010 
body $-1 $14 $-1 $15 #
body $-1 $16 $-1 $17 #
body $-1 $18 $-1 $19 #
body $-1 $20 $-1 $21 #
body $-1 $22 $-1 $23 #
body $-1 $24 $-1 $25 #
body $-1 $26 $-1 $27 #
body $-1 $28 $-1 $29 #
body $-1 $30 $-1 $31 #
body $-1 $32 $-1 $33 #
body $-1 $34 $-1 $35 #
body $-1 $36 $-1 $37 #
body $-1 $38 $-1 $39 #
body $-1 $40 $-1 $41 #
lump $-1 $-1 $42 $0 #
transform $-1 1 0 0 0 1 0 0 0 1 64.967802972502824 27.873283210783473 13.179987489482684 1 rotate no_reflect no_shear #
lump $-1 $-1 $43 $1 #
transform $-1 1 0 0 0 1 0 0 0 1 64.967802972502824 27.873283210783473 13.179987489482684 1 rotate no_reflect no_shear #
lump $-1 $-1 $44 $2 #
transform $-1 1 0 0 0 1 0 0 0 1 64.967802972502824 27.873283210783473 13.179987489482684 1 rotate no_reflect no_shear #
lump $-1 $-1 $45 $3 #
transform $-1 1 0 0 0 1 0 0 0 1 64.967802972502824 27.873283210783473 13.179987489482684 1 rotate no_reflect no_shear #
lump $-1 $-1 $46 $4 #
transform $-1 1 0 0 0 1 0 0 0 1 64.967802972502824 27.873283210783473 13.179987489482684 1 rotate no_reflect no_shear #
lump $-1 $-1 $47 $5 #
transform $-1 1 0 0 0 1 0 0 0 1 64.967802972502824 27.873283210783473 13.179987489482684 1 rotate no_reflect no_shear #
lump $-1 $-1 $48 $6 #
transform $-1 1 0 0 0 1 0 0 0 1 64.967802972502824 27.873283210783473 13.179987489482684 1 rotate no_reflect no_shear #
lump $-1 $-1 $49 $7 #
transform $-1 1 0 0 0 1 0 0 0 1 64.967802972502824 27.873283210783473 13.179987489482684 1 rotate no_reflect no_shear #
lump $-1 $-1 $50 $8 #
transform $-1 1 0 0 0 1 0 0 0 1 64.967802972502824 27.873283210783473 13.179987489482684 1 rotate no_reflect no_shear #
lump $-1 $-1 $51 $9 #
transform $-1 1 0 0 0 1 0 0 0 1 64.967802972502824 27.873283210783473 13.179987489482684 1 rotate no_reflect no_shear #
lump $-1 $-1 $52 $10 #
transform $-1 1 0 0 0 1 0 0 0 1 64.967802972502824 27.873283210783473 13.179987489482684 1 rotate no_reflect no_shear #
lump $-1 $-1 $53 $11 #
transform $-1 1 0 0 0 1 0 0 0 1 64.967802972502824 27.873283210783473 13.179987489482684 1 rotate no_reflect no_shear #
lump $-1 $-1 $54 $12 #
transform $-1 1 0 0 0 1 0 0 0 1 64.967802972502824 27.873283210783473 13.179987489482684 1 rotate no_reflect no_shear #
lump $-1 $-1 $55 $13 #
transform $-1 1 0 0 0 1 0 0 0 1 64.967802972502824 27.873283210783473 13.179987489482684 1 rotate no_reflect no_shear #
shell $-1 $-1 $-1 $56 $-1 $14 #
shell $-1 $-1 $-1 $57 $-1 $16 #
shell $-1 $-1 $-1 $58 $-1 $18 #
shell $-1 $-1 $-1 $59 $-1 $20 #
shell $-1 $-1 $-1 $60 $-1 $22 #
shell $-1 $-1 $-1 $61 $-1 $24 #
shell $-1 $-1 $-1 $62 $-1 $26 #
shell $-1 $-1 $-1 $63 $-1 $28 #
shell $-1 $-1 $-1 $64 $-1 $30 #
shell $-1 $-1 $-1 $65 $-1 $32 #
shell $-1 $-1 $-1 $66 $-1 $34 #
shell $-1 $-1 $-1 $67 $-1 $36 #
shell $-1 $-1 $-1 $68 $-1 $38 #
shell $-1 $-1 $-1 $69 $-1 $40 #
face $-1 $70 $71 $42 $-1 $72 forward single #
face $-1 $73 $74 $43 $-1 $75 forward single #
face $-1 $76 $77 $44 $-1 $78 reversed single #
face $-1 $79 $80 $45 $-1 $81 forward single #
face $-1 $82 $83 $46 $-1 $84 forward single #
face $-1 $85 $86 $47 $-1 $87 reversed single #
face $-1 $88 $89 $48 $-1 $90 forward single #
face $-1 $91 $92 $49 $-1 $93 forward single #
face $-1 $94 $95 $50 $-1 $96 reversed single #
face $-1 $97 $98 $51 $-1 $99 forward single #
face $-1 $100 $101 $52 $-1 $102 forward single #
face $-1 $103 $104 $53 $-1 $105 reversed single #
face $-1 $106 $107 $54 $-1 $108 forward single #
face $-1 $109 $110 $55 $-1 $111 forward single #
face $-1 $112 $113 $42 $-1 $114 reversed single #
loop $-1 $-1 $115 $56 #
plane-surface $-1 0 0 13.179987489482684 0 0 1 1 0 0 forward_v I I I I #
face $-1 $116 $117 $43 $-1 $118 reversed single #
loop $-1 $-1 $119 $57 #
plane-surface $-1 -64.967802972502824 0 0 1 0 0 0 0 -1 forward_v I I I I #
face $-1 $120 $121 $44 $-1 $122 reversed single #
loop $-1 $-1 $123 $58 #
plane-surface $-1 -1.9478091834785403 -111.39428179590288 104.66791729978898 -1 0 0 0 -0.64278761758704617 0.76604443648966558 forward_v I I I I #
face $-1 $124 $125 $45 $-1 $126 forward single #
loop $-1 $127 $128 $59 #
cone-surface $-1 -15.042762191060561 -22.470312466568018 8.4322796297695728 0 0.64278761758704617 -0.76604443648966558 1.5 0 0 1 I I 0 1 1.5 forward I I I I #
face $-1 $129 $130 $46 $-1 $131 forward single #
loop $-1 $132 $133 $60 #
cone-surface $-1 -7.185790386511357 -22.470312466568018 8.4322796297695728 0 0.64278761758704617 -0.76604443648966558 1.5 0 0 1 I I 0 1 1.5 forward I I I I #
face $-1 $134 $135 $47 $-1 $136 reversed single #
loop $-1 $-1 $137 $61 #
plane-surface $-1 56.923910693353214 -111.39428179590288 104.66791729978898 -1 0 0 0 -0.64278761758704617 0.76604443648966558 forward_v I I I I #
face $-1 $138 $139 $48 $-1 $140 forward single #
loop $-1 $141 $142 $62 #
cone-surface $-1 43.828957685771201 -22.470312466568018 8.4322796297695728 0 0.64278761758704617 -0.76604443648966558 1.5 0 0 1 I I 0 1 1.5 forward I I I I #
face $-1 $143 $144 $49 $-1 $145 forward single #
loop $-1 $146 $147 $63 #
cone-surface $-1 51.685929490320405 -22.470312466568018 8.4322796297695728 0 0.64278761758704617 -0.76604443648966558 1.5 0 0 1 I I 0 1 1.5 forward I I I I #
face $-1 $148 $149 $50 $-1 $150 reversed single #
loop $-1 $-1 $151 $64 #
plane-surface $-1 -20.280743394093363 68.689934735259925 140.50111991856602 1 0 0 0 -0.64278761758704617 -0.76604443648966558 forward_v I I I I #
face $-1 $152 $153 $51 $-1 $154 forward single #
loop $-1 $155 $156 $65 #
cone-surface $-1 -15.042762191060561 22.470312466568007 8.4322796297695763 0 -0.64278761758704617 -0.76604443648966558 1.5 0 0 1 I I 0 1 1.5 forward I I I I #
face $-1 $157 $158 $52 $-1 $159 forward single #
loop $-1 $160 $161 $66 #
cone-surface $-1 -7.185790386511357 22.470312466568007 8.4322796297695763 0 -0.64278761758704617 -0.76604443648966558 1.5 0 0 1 I I 0 1 1.5 forward I I I I #
face $-1 $162 $163 $53 $-1 $164 reversed single #
loop $-1 $-1 $165 $67 #
plane-surface $-1 38.590976482738391 68.689934735259925 140.50111991856602 1 0 0 0 -0.64278761758704617 -0.76604443648966558 forward_v I I I I #
face $-1 $166 $167 $54 $-1 $168 forward single #
loop $-1 $169 $170 $68 #
cone-surface $-1 43.828957685771201 22.470312466568007 8.4322796297695763 0 -0.64278761758704617 -0.76604443648966558 1.5 0 0 1 I I 0 1 1.5 forward I I I I #
face $-1 $171 $172 $55 $-1 $173 forward single #
loop $-1 $174 $175 $69 #
cone-surface $-1 51.685929490320405 22.470312466568007 8.4322796297695763 0 -0.64278761758704617 -0.76604443648966558 1.5 0 0 1 I I 0 1 1.5 forward I I I I #
face $-1 $176 $177 $42 $-1 $178 reversed single #
loop $-1 $-1 $179 $70 #
plane-surface $-1 0 0 -13.179987489482684 0 0 1 1 0 0 forward_v I I I I #
coedge $-1 $180 $181 $182 $183 forward $71 $-1 #
face $-1 $184 $185 $43 $-1 $186 forward single #
loop $-1 $-1 $187 $73 #
plane-surface $-1 0 27.873283210783473 0 0 -1 0 0 0 -1 forward_v I I I I #
coedge $-1 $188 $189 $190 $191 forward $74 $-1 #
face $-1 $192 $193 $44 $-1 $194 reversed single #
loop $-1 $-1 $195 $76 #
plane-surface $-1 -11.114276288785952 -27.87328321078347 5.1314692637038917 0 -0.64278761758704617 0.76604443648966558 1 0 0 forward_v I I I I #
coedge $-1 $196 $197 $198 $199 reversed $77 $-1 #
face $-1 $-1 $200 $45 $-1 $201 forward single #
loop $-1 $202 $203 $79 #
cone-surface $-1 -15.042762191060561 -21.381176164027742 7.134297555578609 0 0.64278761758704617 -0.76604443648966558 0.75 0 0 1 I I -0.70710678118654757 0.70710678118654757 0.75 forward I I I I #
loop $-1 $-1 $204 $59 #
coedge $-1 $128 $128 $205 $206 reversed $80 $-1 #
face $-1 $-1 $207 $46 $-1 $208 forward single #
loop $-1 $209 $210 $82 #
cone-surface $-1 -7.185790386511357 -21.381176164027742 7.134297555578609 0 0.64278761758704617 -0.76604443648966558 0.75 0 0 1 I I -0.70710678118654757 0.70710678118654757 0.75 forward I I I I #
loop $-1 $-1 $211 $60 #
coedge $-1 $133 $133 $212 $213 reversed $83 $-1 #
face $-1 $214 $215 $47 $-1 $216 reversed single #
loop $-1 $-1 $217 $85 #
plane-surface $-1 47.757443588045803 -27.87328321078347 5.1314692637038917 0 -0.64278761758704617 0.76604443648966558 1 0 0 forward_v I I I I #
coedge $-1 $218 $219 $220 $221 reversed $86 $-1 #
face $-1 $-1 $222 $48 $-1 $223 forward single #
loop $-1 $224 $225 $88 #
cone-surface $-1 43.828957685771201 -21.381176164027742 7.134297555578609 0 0.64278761758704617 -0.76604443648966558 0.75 0 0 1 I I -0.70710678118654757 0.70710678118654757 0.75 forward I I I I #
loop $-1 $-1 $226 $62 #
coedge $-1 $142 $142 $227 $228 reversed $89 $-1 #
face $-1 $-1 $229 $49 $-1 $230 forward single #
loop $-1 $231 $232 $91 #
cone-surface $-1 51.685929490320405 -21.381176164027742 7.134297555578609 0 0.64278761758704617 -0.76604443648966558 0.75 0 0 1 I I -0.70710678118654757 0.70710678118654757 0.75 forward I I I I #
loop $-1 $-1 $233 $63 #
coedge $-1 $147 $147 $234 $235 reversed $92 $-1 #
face $-1 $236 $237 $50 $-1 $238 reversed single #
loop $-1 $-1 $239 $94 #
plane-surface $-1 -11.114276288785952 -14.83106384985949 40.964671882480928 0 0.64278761758704617 0.76604443648966558 1 0 0 forward_v I I I I #
coedge $-1 $240 $241 $242 $243 reversed $95 $-1 #
face $-1 $-1 $244 $51 $-1 $245 forward single #
loop $-1 $246 $247 $97 #
cone-surface $-1 -15.042762191060561 21.381176164027732 7.1342975555786126 0 -0.64278761758704617 -0.76604443648966558 0.75 0 0 1 I I -0.70710678118654757 0.70710678118654757 0.75 forward I I I I #
loop $-1 $-1 $248 $65 #
coedge $-1 $156 $156 $249 $250 reversed $98 $-1 #
face $-1 $-1 $251 $52 $-1 $252 forward single #
loop $-1 $253 $254 $100 #
cone-surface $-1 -7.185790386511357 21.381176164027732 7.1342975555786126 0 -0.64278761758704617 -0.76604443648966558 0.75 0 0 1 I I -0.70710678118654757 0.70710678118654757 0.75 forward I I I I #
loop $-1 $-1 $255 $66 #
coedge $-1 $161 $161 $256 $257 reversed $101 $-1 #
face $-1 $258 $259 $53 $-1 $260 reversed single #
loop $-1 $-1 $261 $103 #
plane-surface $-1 47.757443588045803 -14.83106384985949 40.964671882480928 0 0.64278761758704617 0.76604443648966558 1 0 0 forward_v I I I I #
coedge $-1 $262 $263 $264 $265 reversed $104 $-1 #
face $-1 $-1 $266 $54 $-1 $267 forward single #
loop $-1 $268 $269 $106 #
cone-surface $-1 43.828957685771201 21.381176164027732 7.1342975555786126 0 -0.64278761758704617 -0.76604443648966558 0.75 0 0 1 I I -0.70710678118654757 0.70710678118654757 0.75 forward I I I I #
loop $-1 $-1 $270 $68 #
coedge $-1 $170 $170 $271 $272 reversed $107 $-1 #
face $-1 $-1 $273 $55 $-1 $274 forward single #
loop $-1 $275 $276 $109 #
cone-surface $-1 51.685929490320405 21.381176164027732 7.1342975555786126 0 -0.64278761758704617 -0.76604443648966558 0.75 0 0 1 I I -0.70710678118654757 0.70710678118654757 0.75 forward I I I I #
loop $-1 $-1 $277 $69 #
coedge $-1 $175 $175 $278 $279 reversed $110 $-1 #
face $-1 $280 $281 $42 $-1 $282 reversed single #
loop $-1 $-1 $283 $112 #
plane-surface $-1 0 -27.873283210783473 0 0 1 0 0 0 1 forward_v I I I I #
coedge $-1 $284 $285 $286 $287 forward $113 $-1 #
coedge $-1 $288 $115 $289 $290 forward $71 $-1 #
coedge $-1 $115 $288 $291 $292 forward $71 $-1 #
coedge $-1 $293 $294 $115 $183 reversed $295 $-1 #
edge $-1 $296 -27.873283210783473 $297 27.873283210783473 $182 $298 forward 7 unknown #
face $-1 $299 $300 $43 $-1 $301 reversed single #
loop $-1 $-1 $190 $116 #
plane-surface $-1 -71.0638860681739 0 -0.9975614186686772 0 0 1 1 0 0 forward_v I I I I #
coedge $-1 $302 $303 $189 $304 forward $117 $-1 #
coedge $-1 $305 $119 $306 $307 reversed $74 $-1 #
coedge $-1 $119 $305 $187 $304 reversed $74 $-1 #
coedge $-1 $308 $309 $119 $191 reversed $185 $-1 #
edge $-1 $310 -27.873283210783473 $311 27.873283210783473 $190 $312 forward 7 unknown #
face $-1 $313 $314 $44 $-1 $315 reversed single #
loop $-1 $-1 $316 $120 #
plane-surface $-1 -20.280743394093363 -111.39428179590288 104.66791729978898 1 0 0 0 0.64278761758704617 -0.76604443648966558 forward_v I I I I #
coedge $-1 $317 $318 $319 $320 reversed $121 $-1 #
coedge $-1 $197 $123 $321 $322 reversed $77 $-1 #
coedge $-1 $123 $196 $317 $323 reversed $77 $-1 #
coedge $-1 $319 $324 $123 $199 forward $325 $-1 #
edge $-1 $326 27.823857687167969 $327 37.415707996898902 $198 $328 forward 7 unknown #
loop $-1 $-1 $205 $124 #
plane-surface $-1 -11.114276288785952 -27.87328321078347 5.1314692637038917 0 -0.64278761758704617 0.76604443648966558 1 0 0 forward_v I I I I #
loop $-1 $-1 $329 $79 #
coedge $-1 $203 $203 $204 $330 reversed $125 $-1 #
coedge $-1 $204 $204 $203 $330 forward $127 $-1 #
coedge $-1 $205 $205 $128 $206 forward $200 $-1 #
edge $-1 $331 -2.9193079101384818e-016 $331 6.2831853071796004 $205 $332 forward 7 unknown #
loop $-1 $-1 $212 $129 #
plane-surface $-1 -11.114276288785952 -27.87328321078347 5.1314692637038917 0 -0.64278761758704617 0.76604443648966558 1 0 0 forward_v I I I I #
loop $-1 $-1 $333 $82 #
coedge $-1 $210 $210 $211 $334 reversed $130 $-1 #
coedge $-1 $211 $211 $210 $334 forward $132 $-1 #
coedge $-1 $212 $212 $133 $213 forward $207 $-1 #
edge $-1 $335 -2.9193079101384818e-016 $335 6.2831853071796004 $212 $336 forward 7 unknown #
face $-1 $337 $338 $47 $-1 $339 reversed single #
loop $-1 $-1 $340 $134 #
plane-surface $-1 38.590976482738391 -111.39428179590288 104.66791729978898 1 0 0 0 0.64278761758704617 -0.76604443648966558 forward_v I I I I #
coedge $-1 $341 $342 $343 $344 reversed $135 $-1 #
coedge $-1 $219 $137 $345 $346 reversed $86 $-1 #
coedge $-1 $137 $218 $341 $347 reversed $86 $-1 #
coedge $-1 $343 $348 $137 $221 forward $349 $-1 #
edge $-1 $350 27.823857687167969 $351 37.415707996898902 $220 $352 forward 7 unknown #
loop $-1 $-1 $227 $138 #
plane-surface $-1 47.757443588045803 -27.87328321078347 5.1314692637038917 0 -0.64278761758704617 0.76604443648966558 1 0 0 forward_v I I I I #
loop $-1 $-1 $353 $88 #
coedge $-1 $225 $225 $226 $354 reversed $139 $-1 #
coedge $-1 $226 $226 $225 $354 forward $141 $-1 #
coedge $-1 $227 $227 $142 $228 forward $222 $-1 #
edge $-1 $355 -2.9193079101384818e-016 $355 6.2831853071796004 $227 $356 forward 7 unknown #
loop $-1 $-1 $234 $143 #
plane-surface $-1 47.757443588045803 -27.87328321078347 5.1314692637038917 0 -0.64278761758704617 0.76604443648966558 1 0 0 forward_v I I I I #
loop $-1 $-1 $357 $91 #
coedge $-1 $232 $232 $233 $358 reversed $144 $-1 #
coedge $-1 $233 $233 $232 $358 forward $146 $-1 #
coedge $-1 $234 $234 $147 $235 forward $229 $-1 #
edge $-1 $359 -2.9193079101384818e-016 $359 6.2831853071796004 $234 $360 forward 7 unknown #
face $-1 $361 $362 $50 $-1 $363 forward single #
loop $-1 $-1 $364 $148 #
plane-surface $-1 -1.9478091834785403 68.689934735259925 140.50111991856602 -1 0 0 0 0.64278761758704617 0.76604443648966558 forward_v I I I I #
coedge $-1 $365 $366 $367 $368 reversed $149 $-1 #
coedge $-1 $241 $151 $369 $370 reversed $95 $-1 #
coedge $-1 $151 $240 $365 $371 reversed $95 $-1 #
coedge $-1 $367 $372 $151 $243 forward $362 $-1 #
edge $-1 $373 6.4716841568464893 $374 16.06353446657743 $242 $375 forward 7 unknown #
loop $-1 $-1 $249 $152 #
plane-surface $-1 -11.114276288785952 -14.83106384985949 40.964671882480928 0 0.64278761758704617 0.76604443648966558 1 0 0 forward_v I I I I #
loop $-1 $-1 $376 $97 #
coedge $-1 $247 $247 $248 $377 reversed $153 $-1 #
coedge $-1 $248 $248 $247 $377 forward $155 $-1 #
coedge $-1 $249 $249 $156 $250 forward $244 $-1 #
edge $-1 $378 7.6121345385502802e-016 $378 6.2831853071796013 $249 $379 forward 7 unknown #
loop $-1 $-1 $256 $157 #
plane-surface $-1 -11.114276288785952 -14.83106384985949 40.964671882480928 0 0.64278761758704617 0.76604443648966558 1 0 0 forward_v I I I I #
loop $-1 $-1 $380 $100 #
coedge $-1 $254 $254 $255 $381 reversed $158 $-1 #
coedge $-1 $255 $255 $254 $381 forward $160 $-1 #
coedge $-1 $256 $256 $161 $257 forward $251 $-1 #
edge $-1 $382 7.6121345385502802e-016 $382 6.2831853071796013 $256 $383 forward 7 unknown #
face $-1 $384 $385 $53 $-1 $386 forward single #
loop $-1 $-1 $387 $162 #
plane-surface $-1 56.923910693353214 68.689934735259925 140.50111991856602 -1 0 0 0 0.64278761758704617 0.76604443648966558 forward_v I I I I #
coedge $-1 $388 $389 $390 $391 reversed $163 $-1 #
coedge $-1 $263 $165 $392 $393 reversed $104 $-1 #
coedge $-1 $165 $262 $388 $394 reversed $104 $-1 #
coedge $-1 $390 $395 $165 $265 forward $385 $-1 #
edge $-1 $396 6.4716841568464893 $397 16.06353446657743 $264 $398 forward 7 unknown #
loop $-1 $-1 $271 $166 #
plane-surface $-1 47.757443588045803 -14.83106384985949 40.964671882480928 0 0.64278761758704617 0.76604443648966558 1 0 0 forward_v I I I I #
loop $-1 $-1 $399 $106 #
coedge $-1 $269 $269 $270 $400 reversed $167 $-1 #
coedge $-1 $270 $270 $269 $400 forward $169 $-1 #
coedge $-1 $271 $271 $170 $272 forward $266 $-1 #
edge $-1 $401 7.6121345385502802e-016 $401 6.2831853071796013 $271 $402 forward 7 unknown #
loop $-1 $-1 $278 $171 #
plane-surface $-1 47.757443588045803 -14.83106384985949 40.964671882480928 0 0.64278761758704617 0.76604443648966558 1 0 0 forward_v I I I I #
loop $-1 $-1 $403 $109 #
coedge $-1 $276 $276 $277 $404 reversed $172 $-1 #
coedge $-1 $277 $277 $276 $404 forward $174 $-1 #
coedge $-1 $278 $278 $175 $279 forward $273 $-1 #
edge $-1 $405 7.6121345385502802e-016 $405 6.2831853071796013 $278 $406 forward 7 unknown #
face $-1 $407 $408 $42 $-1 $409 reversed single #
loop $-1 $-1 $410 $176 #
plane-surface $-1 -64.967802972502824 0 0 1 0 0 0 0 -1 forward_v I I I I #
coedge $-1 $411 $291 $410 $412 forward $177 $-1 #
coedge $-1 $413 $179 $411 $414 forward $113 $-1 #
coedge $-1 $179 $413 $415 $416 forward $113 $-1 #
coedge $-1 $294 $293 $179 $287 reversed $295 $-1 #
edge $-1 $417 -27.873283210783473 $418 27.873283210783473 $286 $419 forward 7 unknown #
coedge $-1 $181 $180 $420 $421 forward $71 $-1 #
coedge $-1 $422 $423 $180 $290 reversed $408 $-1 #
edge $-1 $297 -64.967802972502824 $424 64.967802972502824 $289 $425 forward 7 unknown #
coedge $-1 $283 $426 $181 $292 reversed $177 $-1 #
edge $-1 $427 -64.967802972502824 $296 64.967802972502824 $291 $428 forward 7 unknown #
coedge $-1 $286 $182 $426 $429 forward $295 $-1 #
coedge $-1 $182 $286 $422 $430 reversed $295 $-1 #
loop $-1 $-1 $293 $407 #
vertex $-1 $183 $431 #
vertex $-1 $183 $432 #
straight-curve $-1 64.967802972502824 0 13.179987489482684 0 1 0 I I #
face $-1 $433 $434 $43 $-1 $435 reversed single #
loop $-1 $-1 $436 $184 #
plane-surface $-1 -71.0638860681739 0 -6.1119613005245768 0 0 1 1 0 0 forward_v I I I I #
coedge $-1 $437 $187 $438 $439 reversed $117 $-1 #
coedge $-1 $187 $437 $308 $440 reversed $117 $-1 #
edge $-1 $310 0.9975614186686772 $441 6.1119613005245768 $187 $442 forward 7 unknown #
coedge $-1 $189 $188 $436 $443 forward $74 $-1 #
coedge $-1 $444 $445 $188 $307 forward $446 $-1 #
edge $-1 $447 -6.1119613005245768 $311 -0.9975614186686772 $306 $448 forward 7 unknown #
coedge $-1 $449 $190 $303 $440 forward $185 $-1 #
coedge $-1 $190 $449 $444 $450 forward $185 $-1 #
vertex $-1 $304 $451 #
vertex $-1 $450 $452 #
straight-curve $-1 -64.967802972502824 0 -0.9975614186686772 0 -1 0 I I #
face $-1 $-1 $325 $44 $-1 $453 forward single #
loop $-1 $-1 $454 $192 #
plane-surface $-1 0 -27.873283210783473 0 0 1 0 0 0 1 forward_v I I I I #
coedge $-1 $455 $456 $457 $458 reversed $193 $-1 #
coedge $-1 $459 $195 $197 $323 forward $121 $-1 #
coedge $-1 $195 $459 $455 $460 forward $121 $-1 #
coedge $-1 $457 $198 $195 $320 forward $325 $-1 #
edge $-1 $327 -3.6093289609144357 $461 14.723605249700388 $319 $462 forward 7 unknown #
coedge $-1 $463 $464 $196 $322 forward $314 $-1 #
edge $-1 $465 -47.202489386190599 $326 -39.153971160411807 $321 $466 forward 7 unknown #
edge $-1 $327 -12.521271420865327 $465 4.4342668192596698e-015 $197 $467 forward 7 unknown #
coedge $-1 $198 $457 $463 $468 forward $325 $-1 #
loop $-1 $-1 $457 $313 #
vertex $-1 $322 $469 #
vertex $-1 $199 $470 #
straight-curve $-1 -1.9478091834785403 -55.697140897951442 13.179987489482684 0 1 0 I I #
coedge $-1 $329 $329 $-1 $471 reversed $202 $-1 #
edge $-1 $472 0 $472 6.2831853071796004 $203 $473 forward 7 unknown #
vertex $-1 $206 $474 #
ellipse-curve $-1 -15.042762191060561 -23.077358055918005 9.1557283765932844 0 -0.64278761758704617 0.76604443648966558 1.5 0 0 1 I I #
coedge $-1 $333 $333 $-1 $475 reversed $209 $-1 #
edge $-1 $476 0 $476 6.2831853071796004 $210 $477 forward 7 unknown #
vertex $-1 $213 $478 #
ellipse-curve $-1 -7.185790386511357 -23.077358055918005 9.1557283765932844 0 -0.64278761758704617 0.76604443648966558 1.5 0 0 1 I I #
face $-1 $-1 $349 $47 $-1 $479 forward single #
loop $-1 $-1 $480 $214 #
plane-surface $-1 0 -27.873283210783473 0 0 1 0 0 0 1 forward_v I I I I #
coedge $-1 $481 $482 $483 $484 reversed $215 $-1 #
coedge $-1 $485 $217 $219 $347 forward $135 $-1 #
coedge $-1 $217 $485 $481 $486 forward $135 $-1 #
coedge $-1 $483 $220 $217 $344 forward $349 $-1 #
edge $-1 $351 -33.045188899330313 $487 -14.71225468871549 $343 $488 forward 7 unknown #
coedge $-1 $489 $490 $218 $346 forward $338 $-1 #
edge $-1 $491 -47.202489386190599 $350 -39.153971160411807 $345 $492 forward 7 unknown #
edge $-1 $351 -12.521271420865327 $491 4.4342668192596698e-015 $219 $493 forward 7 unknown #
coedge $-1 $220 $483 $489 $494 forward $349 $-1 #
loop $-1 $-1 $483 $337 #
vertex $-1 $346 $495 #
vertex $-1 $221 $496 #
straight-curve $-1 56.923910693353214 -55.697140897951442 13.179987489482684 0 1 0 I I #
coedge $-1 $353 $353 $-1 $497 reversed $224 $-1 #
edge $-1 $498 0 $498 6.2831853071796004 $225 $499 forward 7 unknown #
vertex $-1 $228 $500 #
ellipse-curve $-1 43.828957685771201 -23.077358055918005 9.1557283765932844 0 -0.64278761758704617 0.76604443648966558 1.5 0 0 1 I I #
coedge $-1 $357 $357 $-1 $501 reversed $231 $-1 #
edge $-1 $502 0 $502 6.2831853071796004 $232 $503 forward 7 unknown #
vertex $-1 $235 $504 #
ellipse-curve $-1 51.685929490320405 -23.077358055918005 9.1557283765932844 0 -0.64278761758704617 0.76604443648966558 1.5 0 0 1 I I #
face $-1 $-1 $505 $50 $-1 $506 reversed single #
loop $-1 $-1 $242 $236 #
plane-surface $-1 0 0 13.179987489482684 0 0 1 1 0 0 forward_v I I I I #
coedge $-1 $507 $508 $509 $510 reversed $237 $-1 #
coedge $-1 $511 $239 $241 $371 forward $149 $-1 #
coedge $-1 $239 $511 $507 $512 forward $149 $-1 #
coedge $-1 $509 $242 $239 $368 forward $362 $-1 #
edge $-1 $374 -14.723605249700388 $513 3.6093289609144357 $367 $514 forward 7 unknown #
coedge $-1 $515 $516 $240 $370 forward $505 $-1 #
edge $-1 $517 -65.119090695579118 $373 -57.070572469800325 $369 $518 forward 7 unknown #
edge $-1 $374 43.225295000701607 $517 55.746566421566939 $241 $519 forward 7 unknown #
coedge $-1 $242 $509 $515 $520 forward $362 $-1 #
vertex $-1 $243 $521 #
vertex $-1 $243 $522 #
straight-curve $-1 -20.280743394093363 34.344967367629962 13.179987489482684 0 -1 0 I I #
coedge $-1 $376 $376 $-1 $523 reversed $246 $-1 #
edge $-1 $524 0 $524 6.2831853071796004 $247 $525 forward 7 unknown #
vertex $-1 $250 $526 #
ellipse-curve $-1 -15.042762191060561 23.077358055917998 9.1557283765932933 0 0.64278761758704617 0.76604443648966558 1.5 0 0 1 I I #
coedge $-1 $380 $380 $-1 $527 reversed $253 $-1 #
edge $-1 $528 0 $528 6.2831853071796004 $254 $529 forward 7 unknown #
vertex $-1 $257 $530 #
ellipse-curve $-1 -7.185790386511357 23.077358055917998 9.1557283765932933 0 0.64278761758704617 0.76604443648966558 1.5 0 0 1 I I #
face $-1 $-1 $531 $53 $-1 $532 reversed single #
loop $-1 $-1 $264 $258 #
plane-surface $-1 0 0 13.179987489482684 0 0 1 1 0 0 forward_v I I I I #
coedge $-1 $533 $534 $535 $536 reversed $259 $-1 #
coedge $-1 $537 $261 $263 $394 forward $163 $-1 #
coedge $-1 $261 $537 $533 $538 forward $163 $-1 #
coedge $-1 $535 $264 $261 $391 forward $385 $-1 #
edge $-1 $397 14.71225468871549 $539 33.045188899330313 $390 $540 forward 7 unknown #
coedge $-1 $541 $542 $262 $393 forward $531 $-1 #
edge $-1 $543 -65.119090695579118 $396 -57.070572469800325 $392 $544 forward 7 unknown #
edge $-1 $397 43.225295000701607 $543 55.746566421566939 $263 $545 forward 7 unknown #
coedge $-1 $264 $535 $541 $546 forward $385 $-1 #
vertex $-1 $265 $547 #
vertex $-1 $265 $548 #
straight-curve $-1 38.590976482738391 34.344967367629962 13.179987489482684 0 -1 0 I I #
coedge $-1 $399 $399 $-1 $549 reversed $268 $-1 #
edge $-1 $550 0 $550 6.2831853071796004 $269 $551 forward 7 unknown #
vertex $-1 $272 $552 #
ellipse-curve $-1 43.828957685771201 23.077358055917998 9.1557283765932933 0 0.64278761758704617 0.76604443648966558 1.5 0 0 1 I I #
coedge $-1 $403 $403 $-1 $553 reversed $275 $-1 #
edge $-1 $554 0 $554 6.2831853071796004 $276 $555 forward 7 unknown #
vertex $-1 $279 $556 #
ellipse-curve $-1 51.685929490320405 23.077358055917998 9.1557283765932933 0 0.64278761758704617 0.76604443648966558 1.5 0 0 1 I I #
face $-1 $-1 $295 $42 $-1 $557 reversed single #
loop $-1 $-1 $422 $280 #
plane-surface $-1 0 27.873283210783473 0 0 -1 0 0 0 -1 forward_v I I I I #
coedge $-1 $420 $558 $283 $412 reversed $281 $-1 #
coedge $-1 $426 $283 $284 $414 reversed $177 $-1 #
edge $-1 $427 -13.179987489482684 $559 13.179987489482684 $410 $560 forward 7 unknown #
coedge $-1 $285 $284 $558 $561 forward $113 $-1 #
edge $-1 $418 -64.967802972502824 $559 64.967802972502824 $411 $562 forward 7 unknown #
coedge $-1 $423 $422 $285 $416 reversed $408 $-1 #
edge $-1 $563 -64.967802972502824 $417 64.967802972502824 $415 $564 forward 7 unknown #
vertex $-1 $287 $565 #
vertex $-1 $429 $566 #
straight-curve $-1 64.967802972502824 0 -13.179987489482684 0 -1 0 I I #
coedge $-1 $567 $410 $288 $421 reversed $281 $-1 #
edge $-1 $424 -27.873283210783473 $427 27.873283210783473 $420 $568 forward 7 unknown #
coedge $-1 $415 $289 $294 $430 forward $408 $-1 #
coedge $-1 $289 $415 $567 $569 reversed $408 $-1 #
vertex $-1 $290 $570 #
straight-curve $-1 0 27.873283210783473 13.179987489482684 -1 0 0 I I #
coedge $-1 $291 $411 $293 $429 reversed $177 $-1 #
vertex $-1 $421 $571 #
straight-curve $-1 0 -27.873283210783473 13.179987489482684 1 0 0 I I #
edge $-1 $296 -13.179987489482684 $418 13.179987489482684 $293 $572 forward 7 unknown #
edge $-1 $297 -13.179987489482684 $417 13.179987489482684 $294 $573 forward 7 unknown #
point $-1 64.967802972502824 -27.873283210783473 13.179987489482684 #
point $-1 64.967802972502824 27.873283210783473 13.179987489482684 #
face $-1 $-1 $446 $43 $-1 $574 reversed single #
loop $-1 $-1 $575 $299 #
plane-surface $-1 -77.159969163844977 0 -3.5547613595966272 1 0 0 0 0 -1 forward_v I I I I #
coedge $-1 $576 $438 $305 $443 reversed $300 $-1 #
coedge $-1 $303 $302 $575 $577 reversed $117 $-1 #
coedge $-1 $436 $578 $302 $439 forward $300 $-1 #
edge $-1 $579 -6.0960830956710765 $441 6.0960830956710765 $302 $580 forward 7 unknown #
edge $-1 $310 -6.0960830956710765 $581 6.0960830956710765 $303 $582 forward 7 unknown #
vertex $-1 $304 $583 #
straight-curve $-1 -64.967802972502824 27.873283210783473 0 0 0 -1 I I #
edge $-1 $447 -27.873283210783473 $441 27.873283210783473 $436 $584 forward 7 unknown #
coedge $-1 $585 $306 $309 $450 reversed $446 $-1 #
coedge $-1 $306 $585 $576 $586 reversed $446 $-1 #
loop $-1 $-1 $306 $433 #
vertex $-1 $307 $587 #
straight-curve $-1 -64.967802972502824 -27.873283210783473 0 0 0 1 I I #
coedge $-1 $309 $308 $588 $589 forward $185 $-1 #
edge $-1 $590 -6.0960830956710765 $311 6.0960830956710765 $444 $591 forward 7 unknown #
point $-1 -64.967802972502824 27.873283210783473 -0.9975614186686772 #
point $-1 -64.967802972502824 -27.873283210783473 -0.9975614186686772 #
plane-surface $-1 0 0 13.179987489482684 0 0 1 1 0 0 forward_v I I I I #
coedge $-1 $464 $463 $456 $592 forward $314 $-1 #
coedge $-1 $456 $316 $318 $460 reversed $193 $-1 #
coedge $-1 $316 $455 $454 $592 reversed $193 $-1 #
coedge $-1 $324 $319 $316 $458 forward $325 $-1 #
edge $-1 $461 -37.415707996898902 $593 -27.823857687167969 $457 $594 forward 7 unknown #
coedge $-1 $318 $317 $464 $595 reversed $121 $-1 #
edge $-1 $596 -4.4342668192596698e-015 $461 12.521271420865327 $455 $597 forward 7 unknown #
vertex $-1 $320 $598 #
straight-curve $-1 -5.5571381443929759 -18.281432901052533 13.179987489482684 -1 0 0 I I #
coedge $-1 $454 $321 $324 $468 reversed $314 $-1 #
coedge $-1 $321 $454 $459 $595 forward $314 $-1 #
vertex $-1 $322 $599 #
straight-curve $-1 -1.9478091834785403 -27.87328321078347 52.333958649894491 0 0 1 I I #
straight-curve $-1 -1.9478091834785403 -27.87328321078347 5.1314692637038917 0 -0.76604443648966558 -0.64278761758704617 I I #
edge $-1 $593 -20.280743394093363 $326 -1.9478091834785403 $463 $600 forward 7 unknown #
point $-1 -1.9478091834785403 -27.873283210783473 13.179987489482684 #
point $-1 -1.9478091834785403 -18.281432901052536 13.179987489482684 #
edge $-1 $601 1 $601 0 $329 $-1 forward 7 unknown #
vertex $-1 $330 $602 #
ellipse-curve $-1 -15.042762191060561 -21.863266877218027 7.7088308829458585 0 -0.64278761758704617 0.76604443648966558 1.5 0 0 1 I I #
point $-1 -13.542762191060561 -23.077358055918008 9.155728376593288 #
edge $-1 $603 1 $603 0 $333 $-1 forward 7 unknown #
vertex $-1 $334 $604 #
ellipse-curve $-1 -7.185790386511357 -21.863266877218027 7.7088308829458585 0 -0.64278761758704617 0.76604443648966558 1.5 0 0 1 I I #
point $-1 -5.685790386511357 -23.077358055918008 9.155728376593288 #
plane-surface $-1 0 0 13.179987489482684 0 0 1 1 0 0 forward_v I I I I #
coedge $-1 $490 $489 $482 $605 forward $338 $-1 #
coedge $-1 $482 $340 $342 $486 reversed $215 $-1 #
coedge $-1 $340 $481 $480 $605 reversed $215 $-1 #
coedge $-1 $348 $343 $340 $484 forward $349 $-1 #
edge $-1 $487 -37.415707996898902 $606 -27.823857687167969 $483 $607 forward 7 unknown #
coedge $-1 $342 $341 $490 $608 reversed $135 $-1 #
edge $-1 $609 -4.4342668192596698e-015 $487 12.521271420865327 $481 $610 forward 7 unknown #
vertex $-1 $344 $611 #
straight-curve $-1 23.878721794022901 -18.281432901052533 13.179987489482684 -1 0 0 I I #
coedge $-1 $480 $345 $348 $494 reversed $338 $-1 #
coedge $-1 $345 $480 $485 $608 forward $338 $-1 #
vertex $-1 $346 $612 #
straight-curve $-1 56.923910693353214 -27.87328321078347 52.333958649894491 0 0 1 I I #
straight-curve $-1 56.923910693353214 -27.87328321078347 5.1314692637038917 0 -0.76604443648966558 -0.64278761758704617 I I #
edge $-1 $606 38.590976482738391 $350 56.923910693353214 $489 $613 forward 7 unknown #
point $-1 56.923910693353214 -27.873283210783473 13.179987489482684 #
point $-1 56.923910693353214 -18.281432901052536 13.179987489482684 #
edge $-1 $614 1 $614 0 $353 $-1 forward 7 unknown #
vertex $-1 $354 $615 #
ellipse-curve $-1 43.828957685771201 -21.863266877218027 7.7088308829458585 0 -0.64278761758704617 0.76604443648966558 1.5 0 0 1 I I #
point $-1 45.328957685771201 -23.077358055918008 9.155728376593288 #
edge $-1 $616 1 $616 0 $357 $-1 forward 7 unknown #
vertex $-1 $358 $617 #
ellipse-curve $-1 51.685929490320405 -21.863266877218027 7.7088308829458585 0 -0.64278761758704617 0.76604443648966558 1.5 0 0 1 I I #
point $-1 53.185929490320405 -23.077358055918008 9.155728376593288 #
loop $-1 $-1 $369 $361 #
plane-surface $-1 0 27.873283210783473 0 0 -1 0 0 0 -1 forward_v I I I I #
coedge $-1 $508 $364 $366 $512 reversed $237 $-1 #
coedge $-1 $364 $507 $618 $619 reversed $237 $-1 #
coedge $-1 $372 $367 $364 $510 forward $362 $-1 #
edge $-1 $513 -16.06353446657743 $620 -6.4716841568464893 $509 $621 forward 7 unknown #
coedge $-1 $366 $365 $516 $622 reversed $149 $-1 #
edge $-1 $623 -55.746566421566939 $513 -43.225295000701607 $507 $624 forward 7 unknown #
vertex $-1 $368 $625 #
straight-curve $-1 -5.5571381443929759 18.281432901052529 13.179987489482684 1 0 0 I I #
coedge $-1 $618 $369 $372 $520 reversed $505 $-1 #
coedge $-1 $369 $618 $511 $622 forward $505 $-1 #
vertex $-1 $370 $626 #
straight-curve $-1 -20.280743394093363 27.873283210783473 70.250559959283009 0 0 1 I I #
straight-curve $-1 -20.280743394093363 -14.83106384985949 40.964671882480928 0 0.76604443648966558 -0.64278761758704617 I I #
edge $-1 $620 1.9478091834785403 $373 20.280743394093363 $515 $627 forward 7 unknown #
point $-1 -20.280743394093363 27.873283210783473 13.179987489482684 #
point $-1 -20.280743394093363 18.281432901052533 13.179987489482684 #
edge $-1 $628 1 $628 0 $376 $-1 forward 7 unknown #
vertex $-1 $377 $629 #
ellipse-curve $-1 -15.042762191060561 21.863266877218017 7.7088308829458621 0 0.64278761758704617 0.76604443648966558 1.5 0 0 1 I I #
point $-1 -13.542762191060561 23.077358055917998 9.1557283765932915 #
edge $-1 $630 1 $630 0 $380 $-1 forward 7 unknown #
vertex $-1 $381 $631 #
ellipse-curve $-1 -7.185790386511357 21.863266877218017 7.7088308829458621 0 0.64278761758704617 0.76604443648966558 1.5 0 0 1 I I #
point $-1 -5.685790386511357 23.077358055917998 9.1557283765932915 #
loop $-1 $-1 $392 $384 #
plane-surface $-1 0 27.873283210783473 0 0 -1 0 0 0 -1 forward_v I I I I #
coedge $-1 $534 $387 $389 $538 reversed $259 $-1 #
coedge $-1 $387 $533 $632 $633 reversed $259 $-1 #
coedge $-1 $395 $390 $387 $536 forward $385 $-1 #
edge $-1 $539 -16.06353446657743 $634 -6.4716841568464893 $535 $635 forward 7 unknown #
coedge $-1 $389 $388 $542 $636 reversed $163 $-1 #
edge $-1 $637 -55.746566421566939 $539 -43.225295000701607 $533 $638 forward 7 unknown #
vertex $-1 $391 $639 #
straight-curve $-1 23.878721794022901 18.281432901052529 13.179987489482684 1 0 0 I I #
coedge $-1 $632 $392 $395 $546 reversed $531 $-1 #
coedge $-1 $392 $632 $537 $636 forward $531 $-1 #
vertex $-1 $393 $640 #
straight-curve $-1 38.590976482738391 27.873283210783473 70.250559959283009 0 0 1 I I #
straight-curve $-1 38.590976482738391 -14.83106384985949 40.964671882480928 0 0.76604443648966558 -0.64278761758704617 I I #
edge $-1 $634 -56.923910693353214 $396 -38.590976482738391 $541 $641 forward 7 unknown #
point $-1 38.590976482738391 27.873283210783473 13.179987489482684 #
point $-1 38.590976482738391 18.281432901052533 13.179987489482684 #
edge $-1 $642 1 $642 0 $399 $-1 forward 7 unknown #
vertex $-1 $400 $643 #
ellipse-curve $-1 43.828957685771201 21.863266877218017 7.7088308829458621 0 0.64278761758704617 0.76604443648966558 1.5 0 0 1 I I #
point $-1 45.328957685771201 23.077358055917998 9.1557283765932915 #
edge $-1 $644 1 $644 0 $403 $-1 forward 7 unknown #
vertex $-1 $404 $645 #
ellipse-curve $-1 51.685929490320405 21.863266877218017 7.7088308829458621 0 0.64278761758704617 0.76604443648966558 1.5 0 0 1 I I #
point $-1 53.185929490320405 23.077358055917998 9.1557283765932915 #
plane-surface $-1 64.967802972502824 0 0 -1 0 0 0 0 1 forward_v I I I I #
coedge $-1 $410 $567 $413 $561 reversed $281 $-1 #
vertex $-1 $561 $646 #
straight-curve $-1 -64.967802972502824 -27.873283210783473 0 0 0 -1 I I #
edge $-1 $559 -27.873283210783473 $563 27.873283210783473 $558 $647 forward 7 unknown #
straight-curve $-1 0 -27.873283210783473 -13.179987489482684 -1 0 0 I I #
vertex $-1 $416 $648 #
straight-curve $-1 0 27.873283210783473 -13.179987489482684 1 0 0 I I #
point $-1 64.967802972502824 27.873283210783473 -13.179987489482684 #
point $-1 64.967802972502824 -27.873283210783473 -13.179987489482684 #
coedge $-1 $558 $420 $423 $569 forward $281 $-1 #
straight-curve $-1 -64.967802972502824 0 13.179987489482684 0 -1 0 I I #
edge $-1 $424 -13.179987489482684 $563 13.179987489482684 $423 $649 forward 7 unknown #
point $-1 -64.967802972502824 27.873283210783473 13.179987489482684 #
point $-1 -64.967802972502824 -27.873283210783473 13.179987489482684 #
straight-curve $-1 64.967802972502824 -27.873283210783473 0 0 0 -1 I I #
straight-curve $-1 64.967802972502824 27.873283210783473 0 0 0 -1 I I #
plane-surface $-1 0 -27.873283210783473 0 0 1 0 0 0 1 forward_v I I I I #
coedge $-1 $650 $588 $437 $577 forward $434 $-1 #
coedge $-1 $578 $436 $445 $586 forward $300 $-1 #
edge $-1 $581 -2.55719994092795 $579 2.5571999409279496 $437 $651 forward 7 unknown #
coedge $-1 $438 $576 $650 $652 forward $300 $-1 #
vertex $-1 $439 $653 #
straight-curve $-1 -71.0638860681739 27.873283210783473 -6.1119613005245768 1 0 0 I I #
vertex $-1 $440 $654 #
straight-curve $-1 -71.0638860681739 27.873283210783473 -0.9975614186686772 -1 0 0 I I #
point $-1 -64.967802972502824 27.873283210783473 -6.1119613005245768 #
straight-curve $-1 -64.967802972502824 0 -6.1119613005245768 0 1 0 I I #
coedge $-1 $445 $444 $655 $656 forward $446 $-1 #
edge $-1 $447 -6.0960830956710765 $657 6.0960830956710765 $445 $658 forward 7 unknown #
point $-1 -64.967802972502824 -27.873283210783473 -6.1119613005245768 #
coedge $-1 $575 $655 $449 $589 reversed $434 $-1 #
edge $-1 $581 -27.873283210783473 $590 27.873283210783473 $588 $659 forward 7 unknown #
vertex $-1 $589 $660 #
straight-curve $-1 -71.0638860681739 -27.873283210783473 -0.9975614186686772 1 0 0 I I #
edge $-1 $593 39.153971160411807 $596 47.202489386190599 $454 $661 forward 7 unknown #
vertex $-1 $468 $662 #
straight-curve $-1 -20.280743394093363 -55.697140897951442 13.179987489482684 0 -1 0 I I #
edge $-1 $596 -14.723605249700388 $465 3.6093289609144357 $464 $663 forward 7 unknown #
vertex $-1 $595 $664 #
straight-curve $-1 -20.280743394093363 -27.87328321078347 5.1314692637038917 0 0.76604443648966558 0.64278761758704617 I I #
point $-1 -20.280743394093363 -18.281432901052536 13.179987489482684 #
point $-1 -1.9478091834785403 -27.873283210783473 5.131469263703889 #
straight-curve $-1 0 -27.873283210783473 13.179987489482684 1 0 0 I I #
vertex $-1 $471 $665 #
point $-1 -13.542762191060561 -21.863266877218027 7.7088308829458585 #
vertex $-1 $475 $666 #
point $-1 -5.685790386511357 -21.863266877218027 7.7088308829458585 #
edge $-1 $606 39.153971160411807 $609 47.202489386190599 $480 $667 forward 7 unknown #
vertex $-1 $494 $668 #
straight-curve $-1 38.590976482738391 -55.697140897951442 13.179987489482684 0 -1 0 I I #
edge $-1 $609 14.71225468871549 $491 33.045188899330313 $490 $669 forward 7 unknown #
vertex $-1 $608 $670 #
straight-curve $-1 38.590976482738391 -27.87328321078347 5.1314692637038917 0 0.76604443648966558 0.64278761758704617 I I #
point $-1 38.590976482738391 -18.281432901052536 13.179987489482684 #
point $-1 56.923910693353214 -27.873283210783473 5.131469263703889 #
straight-curve $-1 0 -27.873283210783473 13.179987489482684 1 0 0 I I #
vertex $-1 $497 $671 #
point $-1 45.328957685771201 -21.863266877218027 7.7088308829458585 #
vertex $-1 $501 $672 #
point $-1 53.185929490320405 -21.863266877218027 7.7088308829458585 #
coedge $-1 $516 $515 $508 $619 forward $505 $-1 #
edge $-1 $620 57.070572469800325 $623 65.119090695579118 $618 $673 forward 7 unknown #
vertex $-1 $520 $674 #
straight-curve $-1 -1.9478091834785403 34.344967367629962 13.179987489482684 0 1 0 I I #
edge $-1 $623 -3.6093289609144357 $517 14.723605249700388 $516 $675 forward 7 unknown #
vertex $-1 $622 $676 #
straight-curve $-1 -1.9478091834785403 -14.83106384985949 40.964671882480928 0 -0.76604443648966558 0.64278761758704617 I I #
point $-1 -1.9478091834785403 18.281432901052533 13.179987489482684 #
point $-1 -20.280743394093363 27.87328321078347 5.1314692637038917 #
straight-curve $-1 0 27.873283210783473 13.179987489482684 -1 0 0 I I #
vertex $-1 $523 $677 #
point $-1 -13.542762191060561 21.863266877218017 7.7088308829458621 #
vertex $-1 $527 $678 #
point $-1 -5.685790386511357 21.863266877218017 7.7088308829458621 #
coedge $-1 $542 $541 $534 $633 forward $531 $-1 #
edge $-1 $634 57.070572469800325 $637 65.119090695579118 $632 $679 forward 7 unknown #
vertex $-1 $546 $680 #
straight-curve $-1 56.923910693353214 34.344967367629962 13.179987489482684 0 1 0 I I #
edge $-1 $637 -33.045188899330313 $543 -14.71225468871549 $542 $681 forward 7 unknown #
vertex $-1 $636 $682 #
straight-curve $-1 56.923910693353214 -14.83106384985949 40.964671882480928 0 -0.76604443648966558 0.64278761758704617 I I #
point $-1 56.923910693353214 18.281432901052533 13.179987489482684 #
point $-1 38.590976482738391 27.87328321078347 5.1314692637038917 #
straight-curve $-1 0 27.873283210783473 13.179987489482684 -1 0 0 I I #
vertex $-1 $549 $683 #
point $-1 45.328957685771201 21.863266877218017 7.7088308829458621 #
vertex $-1 $553 $684 #
point $-1 53.185929490320405 21.863266877218017 7.7088308829458621 #
point $-1 -64.967802972502824 -27.873283210783473 -13.179987489482684 #
straight-curve $-1 -64.967802972502824 0 -13.179987489482684 0 1 0 I I #
point $-1 -64.967802972502824 27.873283210783473 -13.179987489482684 #
straight-curve $-1 -64.967802972502824 27.873283210783473 0 0 0 -1 I I #
coedge $-1 $655 $575 $578 $652 reversed $434 $-1 #
straight-curve $-1 -77.159969163844977 27.873283210783473 -3.5547613595966272 0 0 -1 I I #
edge $-1 $657 -27.873283210783473 $579 27.873283210783473 $650 $685 forward 7 unknown #
point $-1 -77.159969163844977 27.873283210783473 -6.1119613005245768 #
point $-1 -77.159969163844977 27.873283210783473 -0.9975614186686772 #
coedge $-1 $588 $650 $585 $656 reversed $434 $-1 #
edge $-1 $590 -2.55719994092795 $657 2.5571999409279496 $655 $686 forward 7 unknown #
vertex $-1 $652 $687 #
straight-curve $-1 -71.0638860681739 -27.873283210783473 -6.1119613005245768 -1 0 0 I I #
straight-curve $-1 -77.159969163844977 0 -0.9975614186686772 0 -1 0 I I #
point $-1 -77.159969163844977 -27.873283210783473 -0.9975614186686772 #
straight-curve $-1 -20.280743394093363 -27.87328321078347 52.333958649894491 0 0 -1 I I #
point $-1 -20.280743394093363 -27.873283210783473 13.179987489482684 #
straight-curve $-1 -5.5571381443929759 -27.873283210783473 5.1314692637038881 1 0 0 I I #
point $-1 -20.280743394093363 -27.873283210783473 5.131469263703889 #
point $-1 -15.042762191060561 -20.899085450837458 6.5597642282113595 #
point $-1 -7.185790386511357 -20.899085450837458 6.5597642282113595 #
straight-curve $-1 38.590976482738391 -27.87328321078347 52.333958649894491 0 0 -1 I I #
point $-1 38.590976482738391 -27.873283210783473 13.179987489482684 #
straight-curve $-1 23.878721794022901 -27.873283210783473 5.1314692637038881 1 0 0 I I #
point $-1 38.590976482738391 -27.873283210783473 5.131469263703889 #
point $-1 43.828957685771201 -20.899085450837458 6.5597642282113595 #
point $-1 51.685929490320405 -20.899085450837458 6.5597642282113595 #
straight-curve $-1 -1.9478091834785403 27.873283210783473 70.250559959283009 0 0 -1 I I #
point $-1 -1.9478091834785403 27.873283210783473 13.179987489482684 #
straight-curve $-1 -5.5571381443929759 27.873283210783473 5.1314692637038881 -1 0 0 I I #
point $-1 -1.9478091834785403 27.87328321078347 5.1314692637038917 #
point $-1 -15.042762191060561 20.899085450837447 6.5597642282113631 #
point $-1 -7.185790386511357 20.899085450837447 6.5597642282113631 #
straight-curve $-1 56.923910693353214 27.873283210783473 70.250559959283009 0 0 -1 I I #
point $-1 56.923910693353214 27.873283210783473 13.179987489482684 #
straight-curve $-1 23.878721794022901 27.873283210783473 5.1314692637038881 -1 0 0 I I #
point $-1 56.923910693353214 27.87328321078347 5.1314692637038917 #
point $-1 43.828957685771201 20.899085450837447 6.5597642282113631 #
point $-1 51.685929490320405 20.899085450837447 6.5597642282113631 #
straight-curve $-1 -77.159969163844977 0 -6.1119613005245768 0 1 0 I I #
straight-curve $-1 -77.159969163844977 -27.873283210783473 -3.5547613595966272 0 0 -1 I I #
point $-1 -77.159969163844977 -27.873283210783473 -6.1119613005245768 #
End-of-ACIS-data 