500 0 7 0           
7 Unknown 11 ACIS 5.0 NT 24 Fri Mar 26 18:04:57 1999 
-1 9.9999999999999995e-007 1e-010 
body $-1 $7 $-1 $8 #
body $-1 $9 $-1 $10 #
body $-1 $11 $-1 $12 #
body $-1 $13 $-1 $14 #
body $-1 $15 $-1 $16 #
body $-1 $17 $-1 $18 #
body $-1 $19 $-1 $20 #
lump $-1 $-1 $21 $0 #
transform $-1 1 0 0 0 1 0 0 0 1 44.897610400708032 19.989281573861785 8.391813600824003 1 rotate no_reflect no_shear #
lump $-1 $-1 $22 $1 #
transform $-1 1 0 0 0 1 0 0 0 1 44.897610400708032 19.989281573861785 8.391813600824003 1 rotate no_reflect no_shear #
lump $-1 $-1 $23 $2 #
transform $-1 1 0 0 0 1 0 0 0 1 44.897610400708032 19.989281573861785 8.391813600824003 1 rotate no_reflect no_shear #
lump $-1 $-1 $24 $3 #
transform $-1 1 0 0 0 1 0 0 0 1 44.897610400708032 19.989281573861785 8.391813600824003 1 rotate no_reflect no_shear #
lump $-1 $-1 $25 $4 #
transform $-1 1 0 0 0 1 0 0 0 1 44.897610400708032 19.989281573861785 8.391813600824003 1 rotate no_reflect no_shear #
lump $-1 $-1 $26 $5 #
transform $-1 1 0 0 0 1 0 0 0 1 44.897610400708032 19.989281573861785 8.391813600824003 1 rotate no_reflect no_shear #
lump $-1 $-1 $27 $6 #
transform $-1 1 0 0 0 1 0 0 0 1 44.897610400708032 19.989281573861785 8.391813600824003 1 rotate no_reflect no_shear #
shell $-1 $-1 $-1 $28 $-1 $7 #
shell $-1 $-1 $-1 $29 $-1 $9 #
shell $-1 $-1 $-1 $30 $-1 $11 #
shell $-1 $-1 $-1 $31 $-1 $13 #
shell $-1 $-1 $-1 $32 $-1 $15 #
shell $-1 $-1 $-1 $33 $-1 $17 #
shell $-1 $-1 $-1 $34 $-1 $19 #
face $-1 $35 $36 $21 $-1 $37 forward single #
face $-1 $38 $39 $22 $-1 $40 forward single #
face $-1 $41 $42 $23 $-1 $43 reversed single #
face $-1 $44 $45 $24 $-1 $46 forward single #
face $-1 $47 $48 $25 $-1 $49 forward single #
face $-1 $50 $51 $26 $-1 $52 reversed single #
face $-1 $53 $54 $27 $-1 $55 forward single #
face $-1 $56 $57 $21 $-1 $58 reversed single #
loop $-1 $-1 $59 $28 #
plane-surface $-1 0 0 8.391813600824003 0 0 1 1 0 0 forward_v I I I I #
face $-1 $60 $61 $22 $-1 $62 reversed single #
loop $-1 $-1 $63 $29 #
plane-surface $-1 -40.020764794847167 0 -5.0069677609042511 0 0 1 1 0 0 forward_v I I I I #
face $-1 $64 $65 $23 $-1 $66 reversed single #
loop $-1 $-1 $67 $30 #
plane-surface $-1 21.475808033543927 40.426251982498897 97.54943360560145 1 0 0 0 -0.5877852598018023 -0.80901698891910034 forward_v I I I I #
face $-1 $68 $69 $24 $-1 $70 forward single #
loop $-1 $71 $72 $31 #
cone-surface $-1 28.16775156701938 12.576727726831678 1.3140118696125809 0 -0.5877852598018023 -0.80901698891910034 2.5 0 0 1 I I 0 1 2.5 forward I I I I #
face $-1 $73 $74 $25 $-1 $75 forward single #
loop $-1 $76 $77 $32 #
cone-surface $-1 38.205666867232566 12.576727726831678 1.3140118696125809 0 -0.5877852598018023 -0.80901698891910034 2.5 0 0 1 I I 0 1 2.5 forward I I I I #
face $-1 $78 $79 $26 $-1 $80 reversed single #
loop $-1 $-1 $81 $33 #
plane-surface $-1 -11.757780945239347 -83.484091857388208 68.372732403458372 -1 0 0 0 -0.70710678939079041 0.70710677298230451 forward_v I I I I #
face $-1 $82 $83 $27 $-1 $84 forward single #
loop $-1 $85 $86 $34 #
cone-surface $-1 -23.450850067112825 -17.506207187906732 5.9087391909487677 0 0.70710678939079041 -0.70710677298230451 1 0 0 1 I I 0 1 1 forward I I I I #
face $-1 $87 $88 $21 $-1 $89 reversed single #
loop $-1 $-1 $90 $35 #
plane-surface $-1 0 0 -8.391813600824003 0 0 1 1 0 0 forward_v I I I I #
coedge $-1 $91 $92 $93 $94 forward $36 $-1 #
face $-1 $95 $96 $22 $-1 $97 reversed single #
loop $-1 $-1 $98 $38 #
plane-surface $-1 -35.143919188986303 0 -6.699390680864127 -1 0 0 0 0 1 forward_v I I I I #
coedge $-1 $99 $100 $101 $102 forward $39 $-1 #
face $-1 $103 $104 $23 $-1 $105 reversed single #
loop $-1 $-1 $106 $41 #
plane-surface $-1 33.18670921712598 -12.354055205221648 24.903574453514068 0 0.5877852598018023 0.80901698891910034 1 0 0 forward_v I I I I #
coedge $-1 $107 $108 $109 $110 reversed $42 $-1 #
face $-1 $-1 $111 $24 $-1 $112 forward single #
loop $-1 $113 $114 $44 #
cone-surface $-1 28.16775156701938 9.2378663600019557 -3.2815364609490256 0 -0.5877852598018023 -0.80901698891910034 1.25 0 0 1 I I -0.70710678118654746 0.70710678118654746 1.25 forward I I I I #
loop $-1 $-1 $115 $31 #
coedge $-1 $72 $72 $116 $117 reversed $45 $-1 #
face $-1 $-1 $118 $25 $-1 $119 forward single #
loop $-1 $120 $121 $47 #
cone-surface $-1 38.205666867232566 9.2378663600019557 -3.2815364609490256 0 -0.5877852598018023 -0.80901698891910034 1.25 0 0 1 I I -0.70710678118654746 0.70710678118654746 1.25 forward I I I I #
loop $-1 $-1 $122 $32 #
coedge $-1 $77 $77 $123 $124 reversed $48 $-1 #
face $-1 $125 $126 $26 $-1 $127 reversed single #
loop $-1 $-1 $128 $50 #
plane-surface $-1 -23.450850067112825 -19.989281573861774 4.8779235933355523 0 -0.70710678939079041 0.70710677298230451 1 0 0 forward_v I I I I #
coedge $-1 $129 $130 $131 $132 reversed $51 $-1 #
face $-1 $-1 $133 $27 $-1 $134 forward single #
loop $-1 $135 $136 $53 #
cone-surface $-1 -23.450850067112825 -16.42652437023041 4.8290563983265979 0 0.70710678939079041 -0.70710677298230451 0.5 0 0 1 I I -0.70710678118654746 0.70710678118654746 0.5 forward I I I I #
loop $-1 $-1 $137 $34 #
coedge $-1 $86 $86 $138 $139 reversed $54 $-1 #
face $-1 $140 $141 $21 $-1 $142 reversed single #
loop $-1 $-1 $143 $56 #
plane-surface $-1 0 -19.989281573861785 0 0 1 0 0 0 1 forward_v I I I I #
coedge $-1 $144 $145 $146 $147 forward $57 $-1 #
coedge $-1 $148 $59 $149 $150 forward $36 $-1 #
coedge $-1 $59 $148 $151 $152 forward $36 $-1 #
coedge $-1 $153 $154 $59 $94 reversed $155 $-1 #
edge $-1 $156 -19.989281573861785 $157 19.989281573861785 $93 $158 forward 7 unknown #
face $-1 $159 $160 $22 $-1 $161 reversed single #
loop $-1 $-1 $162 $60 #
plane-surface $-1 0 0 -8.391813600824003 0 0 1 1 0 0 forward_v I I I I #
coedge $-1 $163 $101 $164 $165 reversed $61 $-1 #
coedge $-1 $166 $63 $167 $168 reversed $39 $-1 #
coedge $-1 $63 $166 $169 $170 reversed $39 $-1 #
coedge $-1 $98 $171 $63 $102 reversed $61 $-1 #
edge $-1 $172 -19.989281573861785 $173 19.989281573861785 $101 $174 forward 7 unknown #
face $-1 $175 $176 $23 $-1 $177 reversed single #
loop $-1 $-1 $178 $64 #
plane-surface $-1 44.897610400708032 0 0 -1 0 0 0 0 1 forward_v I I I I #
coedge $-1 $179 $180 $181 $182 reversed $65 $-1 #
coedge $-1 $108 $67 $183 $184 reversed $42 $-1 #
coedge $-1 $67 $107 $179 $185 reversed $42 $-1 #
coedge $-1 $181 $186 $67 $110 forward $187 $-1 #
edge $-1 $188 0.2238444173876637 $189 9.8406925272929477 $109 $190 forward 7 unknown #
loop $-1 $-1 $116 $68 #
plane-surface $-1 33.18670921712598 -12.354055205221648 24.903574453514068 0 0.5877852598018023 0.80901698891910034 1 0 0 forward_v I I I I #
loop $-1 $-1 $191 $44 #
coedge $-1 $114 $114 $115 $192 reversed $69 $-1 #
coedge $-1 $115 $115 $114 $192 forward $71 $-1 #
coedge $-1 $116 $116 $72 $117 forward $111 $-1 #
edge $-1 $193 5.3937247592793367e-017 $193 6.2831853071796004 $116 $194 forward 7 unknown #
loop $-1 $-1 $123 $73 #
plane-surface $-1 33.18670921712598 -12.354055205221648 24.903574453514068 0 0.5877852598018023 0.80901698891910034 1 0 0 forward_v I I I I #
loop $-1 $-1 $195 $47 #
coedge $-1 $121 $121 $122 $196 reversed $74 $-1 #
coedge $-1 $122 $122 $121 $196 forward $76 $-1 #
coedge $-1 $123 $123 $77 $124 forward $118 $-1 #
edge $-1 $197 5.3937247592793367e-017 $197 6.2831853071796004 $123 $198 forward 7 unknown #
face $-1 $199 $200 $26 $-1 $201 forward single #
loop $-1 $-1 $202 $78 #
plane-surface $-1 -35.143919188986303 -83.484091857388208 68.372732403458372 1 0 0 0 0.70710678939079041 -0.70710677298230451 forward_v I I I I #
coedge $-1 $203 $204 $205 $206 reversed $79 $-1 #
coedge $-1 $130 $81 $207 $208 reversed $51 $-1 #
coedge $-1 $81 $129 $203 $209 reversed $51 $-1 #
coedge $-1 $205 $210 $81 $132 forward $200 $-1 #
edge $-1 $211 21.752764354832319 $212 25.2666542807806 $131 $213 forward 7 unknown #
loop $-1 $-1 $138 $82 #
plane-surface $-1 -23.450850067112825 -19.989281573861774 4.8779235933355523 0 -0.70710678939079041 0.70710677298230451 1 0 0 forward_v I I I I #
loop $-1 $-1 $214 $53 #
coedge $-1 $136 $136 $137 $215 reversed $83 $-1 #
coedge $-1 $137 $137 $136 $215 forward $85 $-1 #
coedge $-1 $138 $138 $86 $139 forward $133 $-1 #
edge $-1 $216 -6.2803675758173263e-016 $216 6.2831853071795996 $138 $217 forward 7 unknown #
face $-1 $218 $219 $21 $-1 $220 reversed single #
loop $-1 $-1 $221 $87 #
plane-surface $-1 -44.897610400708032 0 0 1 0 0 0 0 -1 forward_v I I I I #
coedge $-1 $222 $151 $223 $224 forward $88 $-1 #
coedge $-1 $225 $90 $222 $226 forward $57 $-1 #
coedge $-1 $90 $225 $227 $228 forward $57 $-1 #
coedge $-1 $154 $153 $90 $147 reversed $155 $-1 #
edge $-1 $229 -19.989281573861785 $230 19.989281573861785 $146 $231 forward 7 unknown #
coedge $-1 $92 $91 $232 $233 forward $36 $-1 #
coedge $-1 $234 $235 $91 $150 reversed $219 $-1 #
edge $-1 $157 -44.897610400708032 $236 44.897610400708032 $149 $237 forward 7 unknown #
coedge $-1 $143 $238 $92 $152 reversed $88 $-1 #
edge $-1 $239 -44.897610400708032 $156 44.897610400708032 $151 $240 forward 7 unknown #
coedge $-1 $146 $93 $238 $241 forward $155 $-1 #
coedge $-1 $93 $146 $234 $242 reversed $155 $-1 #
loop $-1 $-1 $153 $218 #
vertex $-1 $94 $243 #
vertex $-1 $94 $244 #
straight-curve $-1 44.897610400708032 0 8.391813600824003 0 1 0 I I #
face $-1 $245 $246 $22 $-1 $247 reversed single #
loop $-1 $-1 $164 $95 #
plane-surface $-1 0 -19.989281573861785 0 0 1 0 0 0 1 forward_v I I I I #
coedge $-1 $248 $249 $163 $250 forward $96 $-1 #
coedge $-1 $171 $98 $162 $250 reversed $61 $-1 #
coedge $-1 $169 $251 $98 $165 forward $160 $-1 #
edge $-1 $252 -5.0421182603919394 $172 -1.6572724204721876 $164 $253 forward 7 unknown #
coedge $-1 $100 $99 $254 $255 reversed $39 $-1 #
coedge $-1 $256 $257 $99 $168 forward $258 $-1 #
edge $-1 $259 -24.887228003284449 $173 -15.133536791562719 $167 $260 forward 7 unknown #
coedge $-1 $261 $164 $100 $170 forward $160 $-1 #
edge $-1 $172 15.133536791562719 $262 24.887228003284449 $169 $263 forward 7 unknown #
coedge $-1 $101 $163 $256 $264 reversed $61 $-1 #
vertex $-1 $170 $265 #
vertex $-1 $168 $266 #
straight-curve $-1 -35.143919188986303 0 -5.0069677609042511 0 1 0 I I #
face $-1 $-1 $187 $23 $-1 $267 forward single #
loop $-1 $-1 $268 $103 #
plane-surface $-1 0 19.989281573861785 0 0 -1 0 0 0 -1 forward_v I I I I #
coedge $-1 $269 $270 $180 $271 forward $104 $-1 #
coedge $-1 $272 $106 $108 $185 forward $65 $-1 #
coedge $-1 $106 $272 $178 $271 reversed $65 $-1 #
coedge $-1 $273 $109 $106 $182 forward $187 $-1 #
edge $-1 $189 4.8824534249809375 $274 28.304255792145042 $181 $275 forward 7 unknown #
coedge $-1 $276 $268 $107 $184 forward $176 $-1 #
edge $-1 $277 -47.369952475574109 $188 -40.382903201976724 $183 $278 forward 7 unknown #
edge $-1 $189 28.091485074426217 $277 39.978563147723563 $108 $279 forward 7 unknown #
coedge $-1 $109 $273 $276 $280 forward $187 $-1 #
loop $-1 $-1 $181 $175 #
vertex $-1 $184 $281 #
vertex $-1 $110 $282 #
straight-curve $-1 21.475808033543927 20.213125991249449 8.3918136008240012 0 -1 0 I I #
coedge $-1 $191 $191 $-1 $283 reversed $113 $-1 #
edge $-1 $284 0 $284 6.2831853071796004 $114 $285 forward 7 unknown #
vertex $-1 $117 $286 #
ellipse-curve $-1 28.16775156701938 15.180857518909139 4.8982889640253049 0 0.5877852598018023 0.80901698891910034 2.5 0 0 1 I I #
coedge $-1 $195 $195 $-1 $287 reversed $120 $-1 #
edge $-1 $288 0 $288 6.2831853071796004 $121 $289 forward 7 unknown #
vertex $-1 $124 $290 #
ellipse-curve $-1 38.205666867232566 15.180857518909139 4.8982889640253049 0 0.5877852598018023 0.80901698891910034 2.5 0 0 1 I I #
face $-1 $-1 $291 $26 $-1 $292 reversed single #
loop $-1 $-1 $131 $125 #
plane-surface $-1 0 0 8.391813600824003 0 0 1 1 0 0 forward_v I I I I #
coedge $-1 $293 $294 $295 $296 reversed $126 $-1 #
coedge $-1 $297 $128 $130 $209 forward $79 $-1 #
coedge $-1 $128 $297 $293 $298 forward $79 $-1 #
coedge $-1 $295 $131 $128 $206 forward $200 $-1 #
edge $-1 $212 0.032355911682934391 $299 23.41849415542989 $205 $300 forward 7 unknown #
coedge $-1 $301 $302 $129 $208 forward $291 $-1 #
edge $-1 $303 -29.308442608393644 $211 -25.794552600905185 $207 $304 forward 7 unknown #
edge $-1 $212 -4.9693908476198505 $303 1.5072887603364246e-014 $130 $305 forward 7 unknown #
coedge $-1 $131 $295 $301 $306 forward $200 $-1 #
vertex $-1 $208 $307 #
vertex $-1 $132 $308 #
straight-curve $-1 -11.757780945239347 -41.742045928694104 8.3918136008240012 0 1 0 I I #
coedge $-1 $214 $214 $-1 $309 reversed $135 $-1 #
edge $-1 $310 0 $310 6.2831853071796004 $136 $311 forward 7 unknown #
vertex $-1 $139 $312 #
ellipse-curve $-1 -23.450850067112825 -18.232336610887643 6.6348685970797723 0 -0.70710678939079041 0.70710677298230451 1 0 0 1 I I #
face $-1 $-1 $155 $21 $-1 $313 reversed single #
loop $-1 $-1 $234 $140 #
plane-surface $-1 0 19.989281573861785 0 0 -1 0 0 0 -1 forward_v I I I I #
coedge $-1 $314 $232 $235 $315 forward $141 $-1 #
coedge $-1 $238 $143 $144 $226 reversed $88 $-1 #
coedge $-1 $232 $314 $143 $224 reversed $141 $-1 #
edge $-1 $239 -8.391813600824003 $316 8.391813600824003 $223 $317 forward 7 unknown #
coedge $-1 $145 $144 $314 $318 forward $57 $-1 #
edge $-1 $230 -44.897610400708032 $316 44.897610400708032 $222 $319 forward 7 unknown #
coedge $-1 $235 $234 $145 $228 reversed $219 $-1 #
edge $-1 $320 -44.897610400708032 $229 44.897610400708032 $227 $321 forward 7 unknown #
vertex $-1 $147 $322 #
vertex $-1 $241 $323 #
straight-curve $-1 44.897610400708032 0 -8.391813600824003 0 -1 0 I I #
coedge $-1 $221 $223 $148 $233 reversed $141 $-1 #
edge $-1 $236 -19.989281573861785 $239 19.989281573861785 $232 $324 forward 7 unknown #
coedge $-1 $227 $149 $154 $242 forward $219 $-1 #
coedge $-1 $149 $227 $221 $315 reversed $219 $-1 #
vertex $-1 $150 $325 #
straight-curve $-1 0 19.989281573861785 8.391813600824003 -1 0 0 I I #
coedge $-1 $151 $222 $153 $241 reversed $88 $-1 #
vertex $-1 $233 $326 #
straight-curve $-1 0 -19.989281573861785 8.391813600824003 1 0 0 I I #
edge $-1 $156 -8.391813600824003 $230 8.391813600824003 $153 $327 forward 7 unknown #
edge $-1 $157 -8.391813600824003 $229 8.391813600824003 $154 $328 forward 7 unknown #
point $-1 44.897610400708032 -19.989281573861785 8.391813600824003 #
point $-1 44.897610400708032 19.989281573861785 8.391813600824003 #
face $-1 $-1 $258 $22 $-1 $329 reversed single #
loop $-1 $-1 $254 $159 #
plane-surface $-1 -44.897610400708032 0 0 1 0 0 0 0 -1 forward_v I I I I #
coedge $-1 $330 $162 $251 $331 forward $96 $-1 #
coedge $-1 $162 $330 $332 $333 forward $96 $-1 #
edge $-1 $334 -19.989281573861785 $252 19.989281573861785 $162 $335 forward 7 unknown #
coedge $-1 $164 $261 $248 $331 reversed $160 $-1 #
vertex $-1 $331 $336 #
straight-curve $-1 -35.143919188986303 -19.989281573861785 -3.3496953404320635 0 0 1 I I #
coedge $-1 $337 $338 $166 $255 forward $246 $-1 #
edge $-1 $262 -19.989281573861785 $259 19.989281573861785 $254 $339 forward 7 unknown #
coedge $-1 $332 $167 $171 $264 forward $258 $-1 #
coedge $-1 $167 $332 $337 $340 reversed $258 $-1 #
loop $-1 $-1 $256 $245 #
vertex $-1 $340 $341 #
straight-curve $-1 -20.010382397423584 19.989281573861785 -5.0069677609042511 1 0 0 I I #
coedge $-1 $251 $169 $338 $342 forward $160 $-1 #
vertex $-1 $342 $343 #
straight-curve $-1 -20.010382397423584 -19.989281573861785 -5.0069677609042511 -1 0 0 I I #
edge $-1 $173 1.6572724204721876 $334 5.0421182603919394 $256 $344 forward 7 unknown #
point $-1 -35.143919188986303 -19.989281573861785 -5.0069677609042511 #
point $-1 -35.143919188986303 19.989281573861785 -5.0069677609042511 #
plane-surface $-1 0 0 8.391813600824003 0 0 1 1 0 0 forward_v I I I I #
coedge $-1 $183 $345 $272 $346 forward $176 $-1 #
coedge $-1 $270 $178 $345 $347 reversed $104 $-1 #
coedge $-1 $178 $269 $273 $348 reversed $104 $-1 #
edge $-1 $274 15.775187812815693 $349 27.662265886113033 $178 $350 forward 7 unknown #
coedge $-1 $180 $179 $268 $346 reversed $65 $-1 #
coedge $-1 $186 $181 $270 $348 forward $187 $-1 #
vertex $-1 $348 $351 #
straight-curve $-1 16.59335460856299 10.372433463956497 8.391813600824003 1 0 0 I I #
coedge $-1 $345 $183 $186 $280 reversed $176 $-1 #
vertex $-1 $184 $352 #
straight-curve $-1 21.475808033543927 19.989281573861785 48.774716802800725 0 0 1 I I #
straight-curve $-1 21.475808033543927 -12.354055205221648 24.903574453514068 0 0.80901698891910034 -0.5877852598018023 I I #
edge $-1 $353 -44.897610400708032 $188 -21.475808033543927 $276 $354 forward 7 unknown #
point $-1 21.475808033543927 19.989281573861785 8.391813600824003 #
point $-1 21.475808033543927 10.372433463956501 8.3918136008240012 #
edge $-1 $355 1 $355 0 $191 $-1 forward 7 unknown #
vertex $-1 $192 $356 #
ellipse-curve $-1 28.16775156701938 9.9725979347542086 -2.2702652248001502 0 0.5877852598018023 0.80901698891910034 2.5 0 0 1 I I #
point $-1 30.66775156701938 15.180857518909145 4.898288964025312 #
edge $-1 $357 1 $357 0 $195 $-1 forward 7 unknown #
vertex $-1 $196 $358 #
ellipse-curve $-1 38.205666867232566 9.9725979347542086 -2.2702652248001502 0 0.5877852598018023 0.80901698891910034 2.5 0 0 1 I I #
point $-1 40.705666867232566 15.180857518909145 4.898288964025312 #
loop $-1 $-1 $207 $199 #
plane-surface $-1 0 -19.989281573861785 0 0 1 0 0 0 1 forward_v I I I I #
coedge $-1 $294 $202 $204 $298 reversed $126 $-1 #
coedge $-1 $202 $293 $359 $360 reversed $126 $-1 #
coedge $-1 $210 $205 $202 $296 forward $200 $-1 #
edge $-1 $299 -25.2666542807806 $361 -21.752764354832319 $295 $362 forward 7 unknown #
coedge $-1 $204 $203 $302 $363 reversed $79 $-1 #
edge $-1 $364 -1.5072887603364246e-014 $299 4.9693908476198505 $293 $365 forward 7 unknown #
vertex $-1 $206 $366 #
straight-curve $-1 -11.725425033556412 -16.475391647913504 8.391813600824003 -1 0 0 I I #
coedge $-1 $359 $207 $210 $306 reversed $291 $-1 #
coedge $-1 $207 $359 $297 $363 forward $291 $-1 #
vertex $-1 $208 $367 #
straight-curve $-1 -11.757780945239347 -19.989281573861785 34.186366201729186 0 0 1 I I #
straight-curve $-1 -11.757780945239347 -19.989281573861774 4.8779235933355523 0 -0.70710677298230451 -0.70710678939079041 I I #
edge $-1 $361 -35.143919188986303 $211 -11.757780945239347 $301 $368 forward 7 unknown #
point $-1 -11.757780945239347 -19.989281573861785 8.391813600824003 #
point $-1 -11.757780945239347 -16.475391647913504 8.391813600824003 #
edge $-1 $369 1 $369 0 $214 $-1 forward 7 unknown #
vertex $-1 $215 $370 #
ellipse-curve $-1 -23.450850067112825 -16.780077764925807 5.1826097848177506 0 -0.70710678939079041 0.70710677298230451 1 0 0 1 I I #
point $-1 -22.450850067112825 -18.232336610887657 6.6348685970797856 #
plane-surface $-1 44.897610400708032 0 0 -1 0 0 0 0 1 forward_v I I I I #
coedge $-1 $223 $221 $225 $318 reversed $141 $-1 #
edge $-1 $236 -8.391813600824003 $320 8.391813600824003 $235 $371 forward 7 unknown #
vertex $-1 $318 $372 #
straight-curve $-1 -44.897610400708032 -19.989281573861785 0 0 0 -1 I I #
edge $-1 $316 -19.989281573861785 $320 19.989281573861785 $314 $373 forward 7 unknown #
straight-curve $-1 0 -19.989281573861785 -8.391813600824003 -1 0 0 I I #
vertex $-1 $228 $374 #
straight-curve $-1 0 19.989281573861785 -8.391813600824003 1 0 0 I I #
point $-1 44.897610400708032 19.989281573861785 -8.391813600824003 #
point $-1 44.897610400708032 -19.989281573861785 -8.391813600824003 #
straight-curve $-1 -44.897610400708032 0 8.391813600824003 0 -1 0 I I #
point $-1 -44.897610400708032 19.989281573861785 8.391813600824003 #
point $-1 -44.897610400708032 -19.989281573861785 8.391813600824003 #
straight-curve $-1 44.897610400708032 -19.989281573861785 0 0 0 -1 I I #
straight-curve $-1 44.897610400708032 19.989281573861785 0 0 0 -1 I I #
plane-surface $-1 0 19.989281573861785 0 0 -1 0 0 0 -1 forward_v I I I I #
coedge $-1 $249 $248 $375 $376 forward $96 $-1 #
edge $-1 $252 35.143919188986303 $377 44.897610400708032 $251 $378 forward 7 unknown #
coedge $-1 $257 $256 $249 $333 reversed $258 $-1 #
edge $-1 $379 -44.897610400708032 $334 -35.143919188986303 $332 $380 forward 7 unknown #
vertex $-1 $264 $381 #
straight-curve $-1 -35.143919188986303 0 -8.391813600824003 0 -1 0 I I #
point $-1 -35.143919188986303 -19.989281573861785 -8.391813600824003 #
coedge $-1 $375 $254 $257 $340 forward $246 $-1 #
coedge $-1 $254 $375 $261 $342 reversed $246 $-1 #
straight-curve $-1 -44.897610400708032 0 -5.0069677609042511 0 1 0 I I #
edge $-1 $259 5.0069677609042511 $379 8.391813600824003 $257 $382 forward 7 unknown #
point $-1 -44.897610400708032 19.989281573861785 -5.0069677609042511 #
edge $-1 $262 5.0069677609042511 $377 8.391813600824003 $338 $383 forward 7 unknown #
point $-1 -44.897610400708032 -19.989281573861785 -5.0069677609042511 #
straight-curve $-1 -35.143919188986303 19.989281573861785 -3.3496953404320635 0 0 -1 I I #
coedge $-1 $268 $276 $269 $347 forward $176 $-1 #
edge $-1 $349 -28.304255792145042 $277 -4.8824534249809375 $268 $384 forward 7 unknown #
edge $-1 $353 -8.391813600824003 $349 -1.4047643272266157 $269 $385 forward 7 unknown #
edge $-1 $274 10.372433463956501 $353 19.989281573861785 $270 $386 forward 7 unknown #
vertex $-1 $271 $387 #
straight-curve $-1 44.897610400708032 -2.3899614800009394 17.664236467802098 0 0.80901698891910034 -0.5877852598018023 I I #
point $-1 44.897610400708032 10.372433463956501 8.3918136008240012 #
point $-1 21.475808033543927 19.989281573861781 1.4047643272266157 #
vertex $-1 $348 $388 #
straight-curve $-1 0 19.989281573861785 8.391813600824003 -1 0 0 I I #
vertex $-1 $283 $389 #
point $-1 30.66775156701938 9.9725979347542086 -2.2702652248001502 #
vertex $-1 $287 $390 #
point $-1 40.705666867232566 9.9725979347542086 -2.2702652248001502 #
coedge $-1 $302 $301 $294 $360 forward $291 $-1 #
edge $-1 $361 25.794552600905185 $364 29.308442608393644 $359 $391 forward 7 unknown #
vertex $-1 $306 $392 #
straight-curve $-1 -35.143919188986303 -41.742045928694104 8.3918136008240012 0 -1 0 I I #
edge $-1 $364 -23.41849415542989 $303 -0.032355911682934391 $302 $393 forward 7 unknown #
vertex $-1 $363 $394 #
straight-curve $-1 -35.143919188986303 -19.989281573861774 4.8779235933355523 0 0.70710677298230451 0.70710678939079041 I I #
point $-1 -35.143919188986303 -16.475391647913504 8.391813600824003 #
point $-1 -11.757780945239347 -19.989281573861785 4.8779235933355416 #
straight-curve $-1 0 -19.989281573861785 8.391813600824003 1 0 0 I I #
vertex $-1 $309 $395 #
point $-1 -22.450850067112825 -16.780077764925807 5.1826097848177506 #
straight-curve $-1 -44.897610400708032 19.989281573861785 0 0 0 -1 I I #
point $-1 -44.897610400708032 -19.989281573861785 -8.391813600824003 #
straight-curve $-1 -44.897610400708032 0 -8.391813600824003 0 1 0 I I #
point $-1 -44.897610400708032 19.989281573861785 -8.391813600824003 #
coedge $-1 $338 $337 $330 $376 reversed $246 $-1 #
edge $-1 $377 -19.989281573861785 $379 19.989281573861785 $375 $396 forward 7 unknown #
vertex $-1 $376 $397 #
straight-curve $-1 0 -19.989281573861785 -8.391813600824003 -1 0 0 I I #
vertex $-1 $333 $398 #
straight-curve $-1 0 19.989281573861785 -8.391813600824003 1 0 0 I I #
point $-1 -35.143919188986303 19.989281573861785 -8.391813600824003 #
straight-curve $-1 -44.897610400708032 19.989281573861785 0 0 0 -1 I I #
straight-curve $-1 -44.897610400708032 -19.989281573861785 0 0 0 -1 I I #
straight-curve $-1 16.59335460856299 19.989281573861785 1.4047643272266122 -1 0 0 I I #
straight-curve $-1 44.897610400708032 19.989281573861785 0 0 0 -1 I I #
straight-curve $-1 44.897610400708032 0 8.391813600824003 0 1 0 I I #
point $-1 44.897610400708032 19.989281573861781 1.4047643272266157 #
point $-1 44.897610400708032 19.989281573861785 8.391813600824003 #
point $-1 28.16775156701938 8.5031347852497028 -4.292807697097901 #
point $-1 38.205666867232566 8.5031347852497028 -4.292807697097901 #
straight-curve $-1 -35.143919188986303 -19.989281573861785 34.186366201729186 0 0 -1 I I #
point $-1 -35.143919188986303 -19.989281573861785 8.391813600824003 #
straight-curve $-1 -11.725425033556412 -19.989281573861785 4.8779235933355425 1 0 0 I I #
point $-1 -35.143919188986303 -19.989281573861785 4.8779235933355416 #
point $-1 -23.450850067112825 -16.072970975535014 4.4755030118354453 #
straight-curve $-1 -44.897610400708032 0 -8.391813600824003 0 1 0 I I #
point $-1 -44.897610400708032 -19.989281573861785 -8.391813600824003 #
point $-1 -44.897610400708032 19.989281573861785 -8.391813600824003 #
End-of-ACIS-data 