500 0 8 0           
7 Unknown 11 ACIS 5.0 NT 24 Thu Mar 25 23:41:44 1999 
-1 9.9999999999999995e-007 1e-010 
body $-1 $8 $-1 $9 #
body $-1 $10 $-1 $11 #
body $-1 $12 $-1 $13 #
body $-1 $14 $-1 $15 #
body $-1 $16 $-1 $17 #
body $-1 $18 $-1 $19 #
body $-1 $20 $-1 $21 #
body $-1 $22 $-1 $23 #
lump $-1 $-1 $24 $0 #
transform $-1 1 0 0 0 1 0 0 0 1 40.101321451460308 26.279234150061399 12.439709007683716 1 rotate no_reflect no_shear #
lump $-1 $-1 $25 $1 #
transform $-1 1 0 0 0 1 0 0 0 1 40.101321451460308 26.279234150061399 12.439709007683716 1 rotate no_reflect no_shear #
lump $-1 $-1 $26 $2 #
transform $-1 1 0 0 0 1 0 0 0 1 40.101321451460308 26.279234150061399 12.439709007683716 1 rotate no_reflect no_shear #
lump $-1 $-1 $27 $3 #
transform $-1 1 0 0 0 1 0 0 0 1 40.101321451460308 26.279234150061399 12.439709007683716 1 rotate no_reflect no_shear #
lump $-1 $-1 $28 $4 #
transform $-1 1 0 0 0 1 0 0 0 1 40.101321451460308 26.279234150061399 12.439709007683716 1 rotate no_reflect no_shear #
lump $-1 $-1 $29 $5 #
transform $-1 1 0 0 0 1 0 0 0 1 40.101321451460308 26.279234150061399 12.439709007683716 1 rotate no_reflect no_shear #
lump $-1 $-1 $30 $6 #
transform $-1 1 0 0 0 1 0 0 0 1 40.101321451460308 26.279234150061399 12.439709007683716 1 rotate no_reflect no_shear #
lump $-1 $-1 $31 $7 #
transform $-1 1 0 0 0 1 0 0 0 1 40.101321451460308 26.279234150061399 12.439709007683716 1 rotate no_reflect no_shear #
shell $-1 $-1 $-1 $32 $-1 $8 #
shell $-1 $-1 $-1 $33 $-1 $10 #
shell $-1 $-1 $-1 $34 $-1 $12 #
shell $-1 $-1 $-1 $35 $-1 $14 #
shell $-1 $-1 $-1 $36 $-1 $16 #
shell $-1 $-1 $-1 $37 $-1 $18 #
shell $-1 $-1 $-1 $38 $-1 $20 #
shell $-1 $-1 $-1 $39 $-1 $22 #
face $-1 $40 $41 $24 $-1 $42 forward single #
face $-1 $43 $44 $25 $-1 $45 forward single #
face $-1 $46 $47 $26 $-1 $48 forward single #
face $-1 $49 $50 $27 $-1 $51 reversed single #
face $-1 $52 $53 $28 $-1 $54 forward single #
face $-1 $55 $56 $29 $-1 $57 forward single #
face $-1 $58 $59 $30 $-1 $60 reversed single #
face $-1 $61 $62 $31 $-1 $63 forward single #
face $-1 $64 $65 $24 $-1 $66 reversed single #
loop $-1 $-1 $67 $32 #
plane-surface $-1 0 0 12.439709007683716 0 0 1 1 0 0 forward_v I I I I #
face $-1 $68 $69 $25 $-1 $70 reversed single #
loop $-1 $-1 $71 $33 #
plane-surface $-1 -35.351518084940849 0 -8.296986371078404 0 0 1 1 0 0 forward_v I I I I #
face $-1 $72 $73 $26 $-1 $74 reversed single #
loop $-1 $-1 $75 $34 #
plane-surface $-1 32.680387929649484 0 3.2961892008960296 0 0 1 1 0 0 forward_v I I I I #
face $-1 $76 $77 $27 $-1 $78 reversed single #
loop $-1 $-1 $79 $35 #
plane-surface $-1 3.0587024155340146 40.886724501297778 94.779589328998355 -1 0 0 0 0.66913061440640931 0.74314481823134659 forward_v I I I I #
face $-1 $80 $81 $28 $-1 $82 forward single #
loop $-1 $83 $84 $36 #
cone-surface $-1 -4.6786859447083984 18.453383284082548 5.1992666911039542 0 -0.66913061440640931 -0.74314481823134659 1 0 0 1 I I 0 1 1 forward I I I I #
face $-1 $85 $86 $29 $-1 $87 forward single #
loop $-1 $88 $89 $37 #
cone-surface $-1 -0.03625292856294493 18.453383284082548 5.1992666911039542 0 -0.66913061440640931 -0.74314481823134659 1 0 0 1 I I 0 1 1 forward I I I I #
face $-1 $90 $91 $30 $-1 $92 reversed single #
loop $-1 $-1 $93 $38 #
plane-surface $-1 -23.750637900704156 -83.972187943263322 58.713850656456188 1 0 0 0 0.71933980857756763 -0.69465836192734942 forward_v I I I I #
face $-1 $94 $95 $31 $-1 $96 forward single #
loop $-1 $97 $98 $39 #
cone-surface $-1 -16.671480529953207 -21.064311385716557 7.0853990235261106 0 0.71933980857756763 -0.69465836192734942 1.5 0 0 1 I I 0 1 1.5 forward I I I I #
face $-1 $99 $100 $24 $-1 $101 reversed single #
loop $-1 $-1 $102 $40 #
plane-surface $-1 0 0 -12.439709007683716 0 0 1 1 0 0 forward_v I I I I #
coedge $-1 $103 $104 $105 $106 forward $41 $-1 #
face $-1 $107 $108 $25 $-1 $109 reversed single #
loop $-1 $-1 $110 $43 #
plane-surface $-1 -30.601714718421388 0 -10.368347689381061 -1 0 0 0 0 1 forward_v I I I I #
coedge $-1 $111 $112 $113 $114 forward $44 $-1 #
face $-1 $115 $116 $26 $-1 $117 reversed single #
loop $-1 $-1 $118 $46 #
plane-surface $-1 32.680387929649484 0 -2.0738380800172704 0 0 1 1 0 0 forward_v I I I I #
coedge $-1 $119 $120 $121 $122 reversed $47 $-1 #
face $-1 $123 $124 $27 $-1 $125 reversed single #
loop $-1 $-1 $126 $49 #
plane-surface $-1 -2.3574694366356752 -12.779319221351336 35.177410847233816 0 0.66913061440640931 0.74314481823134659 1 0 0 forward_v I I I I #
coedge $-1 $127 $128 $129 $130 reversed $50 $-1 #
face $-1 $-1 $131 $28 $-1 $132 forward single #
loop $-1 $133 $134 $52 #
cone-surface $-1 -4.6786859447083984 17.195855960847162 3.8026411385939465 0 -0.66913061440640931 -0.74314481823134659 0.5 0 0 1 I I -0.70710678118654746 0.70710678118654746 0.5 forward I I I I #
loop $-1 $-1 $135 $36 #
coedge $-1 $84 $84 $136 $137 reversed $53 $-1 #
face $-1 $-1 $138 $29 $-1 $139 forward single #
loop $-1 $140 $141 $55 #
cone-surface $-1 -0.03625292856294493 17.195855960847162 3.8026411385939465 0 -0.66913061440640931 -0.74314481823134659 0.5 0 0 1 I I -0.70710678118654746 0.70710678118654746 0.5 forward I I I I #
loop $-1 $-1 $142 $37 #
coedge $-1 $89 $89 $143 $144 reversed $56 $-1 #
face $-1 $145 $146 $30 $-1 $147 reversed single #
loop $-1 $-1 $148 $58 #
plane-surface $-1 -16.671480529953207 -26.279234150061392 3.0004141152691943 0 -0.71933980857756763 0.69465836192734942 1 0 0 forward_v I I I I #
coedge $-1 $149 $150 $151 $152 reversed $59 $-1 #
face $-1 $-1 $153 $31 $-1 $154 forward single #
loop $-1 $155 $156 $61 #
cone-surface $-1 -16.671480529953207 -19.867594216609454 5.929742714130251 0 0.71933980857756763 -0.69465836192734942 0.75 0 0 1 I I -0.70710678118654757 0.70710678118654757 0.75 forward I I I I #
loop $-1 $-1 $157 $39 #
coedge $-1 $98 $98 $158 $159 reversed $62 $-1 #
face $-1 $160 $161 $24 $-1 $162 reversed single #
loop $-1 $-1 $163 $64 #
plane-surface $-1 0 -26.279234150061399 0 0 1 0 0 0 1 forward_v I I I I #
coedge $-1 $164 $165 $166 $167 forward $65 $-1 #
coedge $-1 $168 $67 $169 $170 forward $41 $-1 #
coedge $-1 $67 $168 $171 $172 forward $41 $-1 #
coedge $-1 $173 $174 $67 $106 reversed $175 $-1 #
edge $-1 $176 -26.279234150061399 $177 26.279234150061399 $105 $178 forward 7 unknown #
face $-1 $179 $180 $25 $-1 $181 reversed single #
loop $-1 $-1 $182 $68 #
plane-surface $-1 0 0 -12.439709007683716 0 0 1 1 0 0 forward_v I I I I #
coedge $-1 $183 $113 $184 $185 reversed $69 $-1 #
coedge $-1 $186 $71 $187 $188 reversed $44 $-1 #
coedge $-1 $71 $186 $189 $190 reversed $44 $-1 #
coedge $-1 $110 $191 $71 $114 reversed $69 $-1 #
edge $-1 $192 -26.279234150061399 $193 26.279234150061399 $113 $194 forward 7 unknown #
face $-1 $195 $196 $26 $-1 $197 reversed single #
loop $-1 $-1 $198 $72 #
plane-surface $-1 25.25945440783866 0 0.61117556043937959 1 0 0 0 0 -1 forward_v I I I I #
coedge $-1 $199 $200 $201 $202 reversed $73 $-1 #
coedge $-1 $203 $75 $204 $205 reversed $47 $-1 #
coedge $-1 $75 $203 $206 $207 reversed $47 $-1 #
coedge $-1 $208 $209 $75 $122 forward $210 $-1 #
edge $-1 $211 -26.279234150061399 $212 26.279234150061399 $121 $213 forward 7 unknown #
face $-1 $214 $215 $27 $-1 $216 reversed single #
loop $-1 $-1 $217 $76 #
plane-surface $-1 -7.773641288805365 40.886724501297778 94.779589328998355 1 0 0 0 -0.66913061440640931 -0.74314481823134659 forward_v I I I I #
coedge $-1 $218 $219 $220 $221 reversed $77 $-1 #
coedge $-1 $128 $79 $222 $223 reversed $50 $-1 #
coedge $-1 $79 $127 $218 $224 reversed $50 $-1 #
coedge $-1 $220 $225 $79 $130 forward $215 $-1 #
edge $-1 $226 34.95008565681546 $227 47.380864003186304 $129 $228 forward 7 unknown #
loop $-1 $-1 $136 $80 #
plane-surface $-1 -2.3574694366356752 -12.779319221351336 35.177410847233816 0 0.66913061440640931 0.74314481823134659 1 0 0 forward_v I I I I #
loop $-1 $-1 $229 $52 #
coedge $-1 $134 $134 $135 $230 reversed $81 $-1 #
coedge $-1 $135 $135 $134 $230 forward $83 $-1 #
coedge $-1 $136 $136 $84 $137 forward $131 $-1 #
edge $-1 $231 6.8404822967692169e-017 $231 6.2831853071796004 $136 $232 forward 7 unknown #
loop $-1 $-1 $143 $85 #
plane-surface $-1 -2.3574694366356752 -12.779319221351336 35.177410847233816 0 0.66913061440640931 0.74314481823134659 1 0 0 forward_v I I I I #
loop $-1 $-1 $233 $55 #
coedge $-1 $141 $141 $142 $234 reversed $86 $-1 #
coedge $-1 $142 $142 $141 $234 forward $88 $-1 #
coedge $-1 $143 $143 $89 $144 forward $138 $-1 #
edge $-1 $235 6.8404822967692169e-017 $235 6.2831853071796004 $143 $236 forward 7 unknown #
face $-1 $237 $238 $30 $-1 $239 forward single #
loop $-1 $-1 $240 $90 #
plane-surface $-1 -9.5923231592022571 -83.972187943263322 58.713850656456188 -1 0 0 0 -0.71933980857756763 0.69465836192734942 forward_v I I I I #
coedge $-1 $241 $242 $243 $244 reversed $91 $-1 #
coedge $-1 $150 $93 $245 $246 reversed $59 $-1 #
coedge $-1 $93 $149 $241 $247 reversed $59 $-1 #
coedge $-1 $243 $248 $93 $152 forward $249 $-1 #
edge $-1 $250 16.917216320544377 $251 26.356511212958907 $151 $252 forward 7 unknown #
loop $-1 $-1 $158 $94 #
plane-surface $-1 -16.671480529953207 -26.279234150061392 3.0004141152691943 0 -0.71933980857756763 0.69465836192734942 1 0 0 forward_v I I I I #
loop $-1 $-1 $253 $61 #
coedge $-1 $156 $156 $157 $254 reversed $95 $-1 #
coedge $-1 $157 $157 $156 $254 forward $97 $-1 #
coedge $-1 $158 $158 $98 $159 forward $153 $-1 #
edge $-1 $255 -7.3495464171066626e-016 $255 6.2831853071795996 $158 $256 forward 7 unknown #
face $-1 $257 $258 $24 $-1 $259 reversed single #
loop $-1 $-1 $260 $99 #
plane-surface $-1 -40.101321451460308 0 0 1 0 0 0 0 -1 forward_v I I I I #
coedge $-1 $261 $171 $262 $263 forward $100 $-1 #
coedge $-1 $264 $102 $261 $265 forward $65 $-1 #
coedge $-1 $102 $264 $266 $267 forward $65 $-1 #
coedge $-1 $174 $173 $102 $167 reversed $175 $-1 #
edge $-1 $268 -26.279234150061399 $269 26.279234150061399 $166 $270 forward 7 unknown #
coedge $-1 $104 $103 $271 $272 forward $41 $-1 #
coedge $-1 $273 $274 $103 $170 reversed $258 $-1 #
edge $-1 $177 -40.101321451460308 $275 40.101321451460308 $169 $276 forward 7 unknown #
coedge $-1 $163 $277 $104 $172 reversed $100 $-1 #
edge $-1 $278 -40.101321451460308 $176 40.101321451460308 $171 $279 forward 7 unknown #
coedge $-1 $166 $105 $277 $280 forward $175 $-1 #
coedge $-1 $105 $166 $273 $281 reversed $175 $-1 #
loop $-1 $-1 $173 $257 #
vertex $-1 $106 $282 #
vertex $-1 $106 $283 #
straight-curve $-1 40.101321451460308 0 12.439709007683716 0 1 0 I I #
face $-1 $284 $285 $25 $-1 $286 reversed single #
loop $-1 $-1 $184 $107 #
plane-surface $-1 0 -26.279234150061399 0 0 1 0 0 0 1 forward_v I I I I #
coedge $-1 $287 $288 $183 $289 forward $108 $-1 #
coedge $-1 $191 $110 $182 $289 reversed $69 $-1 #
coedge $-1 $189 $290 $110 $185 forward $180 $-1 #
edge $-1 $291 -7.255535162993187 $192 -3.1128125263878736 $184 $292 forward 7 unknown #
coedge $-1 $112 $111 $293 $294 reversed $44 $-1 #
coedge $-1 $295 $296 $111 $188 forward $297 $-1 #
edge $-1 $298 -22.425562408989883 $193 -12.925955675950963 $187 $299 forward 7 unknown #
coedge $-1 $300 $184 $112 $190 forward $180 $-1 #
edge $-1 $192 12.925955675950963 $301 22.425562408989883 $189 $302 forward 7 unknown #
coedge $-1 $113 $183 $295 $303 reversed $69 $-1 #
vertex $-1 $190 $304 #
vertex $-1 $188 $305 #
straight-curve $-1 -30.601714718421388 0 -8.296986371078404 0 1 0 I I #
face $-1 $306 $307 $26 $-1 $308 reversed single #
loop $-1 $-1 $206 $115 #
plane-surface $-1 0 -26.279234150061399 0 0 1 0 0 0 1 forward_v I I I I #
coedge $-1 $309 $310 $311 $312 reversed $116 $-1 #
coedge $-1 $313 $118 $314 $315 reversed $73 $-1 #
coedge $-1 $118 $313 $316 $317 reversed $73 $-1 #
coedge $-1 $209 $208 $118 $202 forward $210 $-1 #
edge $-1 $318 -26.279234150061399 $319 26.279234150061399 $201 $320 forward 7 unknown #
coedge $-1 $120 $119 $310 $321 forward $47 $-1 #
coedge $-1 $322 $311 $119 $205 forward $307 $-1 #
edge $-1 $323 8.9192604430139184 $211 23.761127486635566 $204 $324 forward 7 unknown #
coedge $-1 $325 $326 $120 $207 forward $196 $-1 #
edge $-1 $212 -23.761127486635566 $327 -8.9192604430139184 $206 $328 forward 7 unknown #
coedge $-1 $201 $121 $326 $329 forward $210 $-1 #
coedge $-1 $121 $201 $322 $330 reversed $210 $-1 #
loop $-1 $-1 $121 $306 #
vertex $-1 $330 $331 #
vertex $-1 $329 $332 #
straight-curve $-1 40.101321451460308 0 3.2961892008960296 0 -1 0 I I #
face $-1 $-1 $333 $27 $-1 $334 forward single #
loop $-1 $-1 $129 $123 #
plane-surface $-1 0 26.279234150061399 0 0 -1 0 0 0 -1 forward_v I I I I #
coedge $-1 $335 $336 $337 $338 reversed $124 $-1 #
coedge $-1 $339 $126 $128 $224 forward $77 $-1 #
coedge $-1 $126 $339 $335 $340 forward $77 $-1 #
coedge $-1 $337 $129 $126 $221 forward $215 $-1 #
edge $-1 $227 -4.2374371338518522 $341 6.5949065704875274 $220 $342 forward 7 unknown #
coedge $-1 $343 $344 $127 $223 forward $333 $-1 #
edge $-1 $345 -7.9699058004808094 $226 5.8358718994125098 $222 $346 forward 7 unknown #
edge $-1 $227 -52.558468300122783 $345 -33.980961788336167 $128 $347 forward 7 unknown #
coedge $-1 $129 $337 $343 $348 reversed $215 $-1 #
vertex $-1 $348 $349 #
vertex $-1 $130 $350 #
straight-curve $-1 3.0587024155340146 26.279234150061399 47.389794664499178 0 0 -1 I I #
coedge $-1 $229 $229 $-1 $351 reversed $133 $-1 #
edge $-1 $352 0 $352 6.2831853071796004 $134 $353 forward 7 unknown #
vertex $-1 $137 $354 #
ellipse-curve $-1 -4.6786859447083984 19.376345300114735 6.2243198344982975 0 0.66913061440640931 0.74314481823134659 1 0 0 1 I I #
coedge $-1 $233 $233 $-1 $355 reversed $140 $-1 #
edge $-1 $356 0 $356 6.2831853071796004 $141 $357 forward 7 unknown #
vertex $-1 $144 $358 #
ellipse-curve $-1 -0.03625292856294493 19.376345300114735 6.2243198344982975 0 0.66913061440640931 0.74314481823134659 1 0 0 1 I I #
face $-1 $-1 $249 $30 $-1 $359 reversed single #
loop $-1 $-1 $360 $145 #
plane-surface $-1 0 0 12.439709007683716 0 0 1 1 0 0 forward_v I I I I #
coedge $-1 $361 $362 $363 $364 reversed $146 $-1 #
coedge $-1 $365 $148 $150 $247 forward $91 $-1 #
coedge $-1 $148 $365 $361 $366 forward $91 $-1 #
coedge $-1 $363 $151 $148 $244 forward $249 $-1 #
edge $-1 $251 -15.414897635727552 $367 -1.2565828942256534 $243 $368 forward 7 unknown #
coedge $-1 $369 $370 $149 $246 forward $238 $-1 #
edge $-1 $371 -24.822280724912094 $250 -15.706859821570262 $245 $372 forward 7 unknown #
edge $-1 $251 -1.0366512331508311e-014 $371 13.122163934010425 $150 $373 forward 7 unknown #
coedge $-1 $151 $363 $369 $374 reversed $249 $-1 #
loop $-1 $-1 $363 $237 #
vertex $-1 $374 $375 #
vertex $-1 $152 $376 #
straight-curve $-1 -23.750637900704156 -26.279234150061399 29.356925328228094 0 0 -1 I I #
coedge $-1 $253 $253 $-1 $377 reversed $155 $-1 #
edge $-1 $378 0 $378 6.2831853071796004 $156 $379 forward 7 unknown #
vertex $-1 $159 $380 #
ellipse-curve $-1 -16.671480529953207 -21.721523698390481 7.7200615614764532 0 -0.71933980857756763 0.69465836192734942 1.5 0 0 1 I I #
face $-1 $-1 $175 $24 $-1 $381 reversed single #
loop $-1 $-1 $273 $160 #
plane-surface $-1 0 26.279234150061399 0 0 -1 0 0 0 -1 forward_v I I I I #
coedge $-1 $382 $271 $274 $383 forward $161 $-1 #
coedge $-1 $277 $163 $164 $265 reversed $100 $-1 #
coedge $-1 $271 $382 $163 $263 reversed $161 $-1 #
edge $-1 $278 -12.439709007683716 $384 12.439709007683716 $262 $385 forward 7 unknown #
coedge $-1 $165 $164 $382 $386 forward $65 $-1 #
edge $-1 $269 -40.101321451460308 $384 40.101321451460308 $261 $387 forward 7 unknown #
coedge $-1 $274 $273 $165 $267 reversed $258 $-1 #
edge $-1 $388 -40.101321451460308 $268 40.101321451460308 $266 $389 forward 7 unknown #
vertex $-1 $167 $390 #
vertex $-1 $280 $391 #
straight-curve $-1 40.101321451460308 0 -12.439709007683716 0 -1 0 I I #
coedge $-1 $260 $262 $168 $272 reversed $161 $-1 #
edge $-1 $275 -26.279234150061399 $278 26.279234150061399 $271 $392 forward 7 unknown #
coedge $-1 $266 $169 $174 $281 forward $258 $-1 #
coedge $-1 $169 $266 $260 $383 reversed $258 $-1 #
vertex $-1 $170 $393 #
straight-curve $-1 0 26.279234150061399 12.439709007683716 -1 0 0 I I #
coedge $-1 $171 $261 $173 $280 reversed $100 $-1 #
vertex $-1 $272 $394 #
straight-curve $-1 0 -26.279234150061399 12.439709007683716 1 0 0 I I #
edge $-1 $176 -12.439709007683716 $269 12.439709007683716 $173 $395 forward 7 unknown #
edge $-1 $177 -12.439709007683716 $268 12.439709007683716 $174 $396 forward 7 unknown #
point $-1 40.101321451460308 -26.279234150061399 12.439709007683716 #
point $-1 40.101321451460308 26.279234150061399 12.439709007683716 #
face $-1 $-1 $297 $25 $-1 $397 reversed single #
loop $-1 $-1 $293 $179 #
plane-surface $-1 -40.101321451460308 0 0 1 0 0 0 0 -1 forward_v I I I I #
coedge $-1 $398 $182 $290 $399 forward $108 $-1 #
coedge $-1 $182 $398 $400 $401 forward $108 $-1 #
edge $-1 $402 -26.279234150061399 $291 26.279234150061399 $182 $403 forward 7 unknown #
coedge $-1 $184 $300 $287 $399 reversed $180 $-1 #
vertex $-1 $399 $404 #
straight-curve $-1 -30.601714718421388 -26.279234150061399 -5.1841738446905303 0 0 1 I I #
coedge $-1 $405 $406 $186 $294 forward $285 $-1 #
edge $-1 $301 -26.279234150061399 $298 26.279234150061399 $293 $407 forward 7 unknown #
coedge $-1 $400 $187 $191 $303 forward $297 $-1 #
coedge $-1 $187 $400 $405 $408 reversed $297 $-1 #
loop $-1 $-1 $295 $284 #
vertex $-1 $408 $409 #
straight-curve $-1 -17.675759042470425 26.279234150061399 -8.296986371078404 1 0 0 I I #
coedge $-1 $290 $189 $406 $410 forward $180 $-1 #
vertex $-1 $410 $411 #
straight-curve $-1 -17.675759042470425 -26.279234150061399 -8.296986371078404 -1 0 0 I I #
edge $-1 $193 3.1128125263878736 $402 7.255535162993187 $295 $412 forward 7 unknown #
point $-1 -30.601714718421388 -26.279234150061399 -8.296986371078404 #
point $-1 -30.601714718421388 26.279234150061399 -8.296986371078404 #
face $-1 $-1 $210 $26 $-1 $413 reversed single #
loop $-1 $-1 $204 $195 #
plane-surface $-1 0 26.279234150061399 0 0 -1 0 0 0 -1 forward_v I I I I #
coedge $-1 $414 $198 $313 $415 reversed $116 $-1 #
coedge $-1 $198 $414 $203 $321 reversed $116 $-1 #
coedge $-1 $204 $316 $198 $312 forward $307 $-1 #
edge $-1 $416 -2.3794258602369602 $323 2.9906014206763398 $311 $417 forward 7 unknown #
coedge $-1 $200 $199 $309 $415 forward $73 $-1 #
coedge $-1 $326 $325 $199 $315 forward $196 $-1 #
edge $-1 $418 8.9192604430139184 $318 23.761127486635566 $314 $419 forward 7 unknown #
coedge $-1 $311 $322 $200 $317 forward $307 $-1 #
edge $-1 $319 -23.761127486635566 $416 -8.9192604430139184 $316 $420 forward 7 unknown #
vertex $-1 $202 $421 #
vertex $-1 $202 $422 #
straight-curve $-1 40.101321451460308 0 -2.0738380800172704 0 1 0 I I #
edge $-1 $323 -26.279234150061399 $327 26.279234150061399 $310 $423 forward 7 unknown #
coedge $-1 $316 $204 $209 $330 forward $307 $-1 #
vertex $-1 $205 $424 #
straight-curve $-1 16.340193964824742 26.279234150061399 3.2961892008960296 1 0 0 I I #
coedge $-1 $314 $206 $414 $425 forward $196 $-1 #
coedge $-1 $206 $314 $208 $329 reversed $196 $-1 #
vertex $-1 $207 $426 #
straight-curve $-1 16.340193964824742 -26.279234150061399 3.2961892008960296 -1 0 0 I I #
edge $-1 $212 -3.2961892008960296 $318 2.0738380800172704 $208 $427 forward 7 unknown #
edge $-1 $211 -3.2961892008960296 $319 2.0738380800172704 $209 $428 forward 7 unknown #
point $-1 40.101321451460308 26.279234150061399 3.2961892008960296 #
point $-1 40.101321451460308 -26.279234150061399 3.2961892008960296 #
loop $-1 $-1 $222 $214 #
plane-surface $-1 0 0 12.439709007683716 0 0 1 1 0 0 forward_v I I I I #
coedge $-1 $336 $217 $219 $340 reversed $124 $-1 #
coedge $-1 $217 $335 $429 $430 reversed $124 $-1 #
coedge $-1 $225 $220 $217 $338 forward $215 $-1 #
edge $-1 $341 -47.380864003186304 $431 -34.95008565681546 $337 $432 forward 7 unknown #
coedge $-1 $219 $218 $344 $433 reversed $77 $-1 #
edge $-1 $434 33.980961788336167 $341 52.558468300122783 $335 $435 forward 7 unknown #
vertex $-1 $221 $436 #
straight-curve $-1 -1.1787347183178376 26.279234150061399 0.0089306613128741219 -1 0 0 I I #
coedge $-1 $429 $222 $225 $348 forward $333 $-1 #
coedge $-1 $222 $429 $339 $433 forward $333 $-1 #
vertex $-1 $223 $437 #
straight-curve $-1 3.0587024155340146 20.443362250648889 12.439709007683717 0 1 0 I I #
straight-curve $-1 3.0587024155340146 -12.779319221351336 35.177410847233816 0 -0.74314481823134659 0.66913061440640931 I I #
edge $-1 $226 -3.0587024155340146 $431 7.773641288805365 $225 $438 forward 7 unknown #
point $-1 3.0587024155340146 26.279234150061399 12.439709007683716 #
point $-1 3.0587024155340146 26.279234150061399 0.0089306613128741219 #
edge $-1 $439 1 $439 0 $229 $-1 forward 7 unknown #
vertex $-1 $230 $440 #
ellipse-curve $-1 -4.6786859447083984 17.530421268050368 4.1742135477096198 0 0.66913061440640931 0.74314481823134659 1 0 0 1 I I #
point $-1 -3.6786859447083984 19.376345300114728 6.2243198344982895 #
edge $-1 $441 1 $441 0 $233 $-1 forward 7 unknown #
vertex $-1 $234 $442 #
ellipse-curve $-1 -0.03625292856294493 17.530421268050368 4.1742135477096198 0 0.66913061440640931 0.74314481823134659 1 0 0 1 I I #
point $-1 0.96374707143705507 19.376345300114728 6.2243198344982895 #
plane-surface $-1 0 -26.279234150061399 0 0 1 0 0 0 1 forward_v I I I I #
coedge $-1 $370 $369 $362 $443 forward $238 $-1 #
coedge $-1 $362 $240 $242 $366 reversed $146 $-1 #
coedge $-1 $240 $361 $360 $443 reversed $146 $-1 #
coedge $-1 $248 $243 $240 $364 forward $249 $-1 #
edge $-1 $367 -26.356511212958907 $444 -16.917216320544377 $363 $445 forward 7 unknown #
coedge $-1 $242 $241 $370 $446 reversed $91 $-1 #
edge $-1 $447 -13.122163934010425 $367 1.0366512331508311e-014 $361 $448 forward 7 unknown #
vertex $-1 $244 $449 #
straight-curve $-1 -8.3357402649766037 -26.279234150061399 3.0004141152691859 1 0 0 I I #
coedge $-1 $360 $245 $248 $374 forward $238 $-1 #
coedge $-1 $245 $360 $365 $446 forward $238 $-1 #
vertex $-1 $246 $450 #
straight-curve $-1 -23.750637900704156 -41.986093971631661 12.439709007683717 0 -1 0 I I #
straight-curve $-1 -23.750637900704156 -26.279234150061392 3.0004141152691943 0 0.69465836192734942 0.71933980857756763 I I #
edge $-1 $250 -23.750637900704156 $444 -9.5923231592022571 $248 $451 forward 7 unknown #
point $-1 -23.750637900704156 -26.279234150061399 12.439709007683716 #
point $-1 -23.750637900704156 -26.279234150061399 3.0004141152691868 #
edge $-1 $452 1 $452 0 $253 $-1 forward 7 unknown #
vertex $-1 $254 $453 #
ellipse-curve $-1 -16.671480529953207 -20.40709907304263 6.4507364855757627 0 -0.71933980857756763 0.69465836192734942 1.5 0 0 1 I I #
point $-1 -15.171480529953207 -21.721523698390488 7.7200615614764585 #
plane-surface $-1 40.101321451460308 0 0 -1 0 0 0 0 1 forward_v I I I I #
coedge $-1 $262 $260 $264 $386 reversed $161 $-1 #
edge $-1 $275 -12.439709007683716 $388 12.439709007683716 $274 $454 forward 7 unknown #
vertex $-1 $386 $455 #
straight-curve $-1 -40.101321451460308 -26.279234150061399 0 0 0 -1 I I #
edge $-1 $384 -26.279234150061399 $388 26.279234150061399 $382 $456 forward 7 unknown #
straight-curve $-1 0 -26.279234150061399 -12.439709007683716 -1 0 0 I I #
vertex $-1 $267 $457 #
straight-curve $-1 0 26.279234150061399 -12.439709007683716 1 0 0 I I #
point $-1 40.101321451460308 26.279234150061399 -12.439709007683716 #
point $-1 40.101321451460308 -26.279234150061399 -12.439709007683716 #
straight-curve $-1 -40.101321451460308 0 12.439709007683716 0 -1 0 I I #
point $-1 -40.101321451460308 26.279234150061399 12.439709007683716 #
point $-1 -40.101321451460308 -26.279234150061399 12.439709007683716 #
straight-curve $-1 40.101321451460308 -26.279234150061399 0 0 0 -1 I I #
straight-curve $-1 40.101321451460308 26.279234150061399 0 0 0 -1 I I #
plane-surface $-1 0 26.279234150061399 0 0 -1 0 0 0 -1 forward_v I I I I #
coedge $-1 $288 $287 $458 $459 forward $108 $-1 #
edge $-1 $291 30.601714718421388 $460 40.101321451460308 $290 $461 forward 7 unknown #
coedge $-1 $296 $295 $288 $401 reversed $297 $-1 #
edge $-1 $462 -40.101321451460308 $402 -30.601714718421388 $400 $463 forward 7 unknown #
vertex $-1 $303 $464 #
straight-curve $-1 -30.601714718421388 0 -12.439709007683716 0 -1 0 I I #
point $-1 -30.601714718421388 -26.279234150061399 -12.439709007683717 #
coedge $-1 $458 $293 $296 $408 forward $285 $-1 #
coedge $-1 $293 $458 $300 $410 reversed $285 $-1 #
straight-curve $-1 -40.101321451460308 0 -8.296986371078404 0 1 0 I I #
edge $-1 $298 8.296986371078404 $462 12.439709007683716 $296 $465 forward 7 unknown #
point $-1 -40.101321451460308 26.279234150061399 -8.296986371078404 #
edge $-1 $301 8.296986371078404 $460 12.439709007683716 $406 $466 forward 7 unknown #
point $-1 -40.101321451460308 -26.279234150061399 -8.296986371078404 #
straight-curve $-1 -30.601714718421388 26.279234150061399 -5.1841738446905303 0 0 -1 I I #
plane-surface $-1 40.101321451460308 0 0 -1 0 0 0 0 1 forward_v I I I I #
coedge $-1 $310 $309 $325 $425 reversed $116 $-1 #
edge $-1 $418 -26.279234150061399 $416 26.279234150061399 $309 $467 forward 7 unknown #
vertex $-1 $317 $468 #
straight-curve $-1 25.25945440783866 26.279234150061399 0.3055877802196898 0 0 1 I I #
vertex $-1 $315 $469 #
straight-curve $-1 16.340193964824742 -26.279234150061399 -2.0738380800172704 1 0 0 I I #
straight-curve $-1 16.340193964824742 26.279234150061399 -2.0738380800172704 -1 0 0 I I #
point $-1 40.101321451460308 -26.279234150061399 -2.0738380800172704 #
point $-1 40.101321451460308 26.279234150061399 -2.0738380800172704 #
straight-curve $-1 25.25945440783866 0 3.2961892008960296 0 -1 0 I I #
point $-1 25.25945440783866 26.279234150061399 3.2961892008960296 #
edge $-1 $327 -2.9906014206763398 $418 2.3794258602369602 $325 $470 forward 7 unknown #
point $-1 25.25945440783866 -26.279234150061399 3.2961892008960296 #
straight-curve $-1 40.101321451460308 -26.279234150061399 0 0 0 -1 I I #
straight-curve $-1 40.101321451460308 26.279234150061399 0 0 0 -1 I I #
coedge $-1 $344 $343 $336 $430 forward $333 $-1 #
edge $-1 $431 -5.8358718994125098 $434 7.9699058004808094 $429 $471 forward 7 unknown #
vertex $-1 $430 $472 #
straight-curve $-1 -7.773641288805365 26.279234150061399 47.389794664499178 0 0 1 I I #
edge $-1 $434 -6.5949065704875274 $345 4.2374371338518522 $344 $473 forward 7 unknown #
vertex $-1 $433 $474 #
straight-curve $-1 -7.773641288805365 -12.779319221351336 35.177410847233816 0 0.74314481823134659 -0.66913061440640931 I I #
point $-1 -7.773641288805365 26.279234150061399 0.0089306613128741219 #
point $-1 3.0587024155340146 12.473456450168079 12.439709007683721 #
straight-curve $-1 0 26.279234150061399 12.439709007683716 -1 0 0 I I #
vertex $-1 $351 $475 #
point $-1 -3.6786859447083984 17.530421268050368 4.1742135477096198 #
vertex $-1 $355 $476 #
point $-1 0.96374707143705507 17.530421268050368 4.1742135477096198 #
edge $-1 $444 15.706859821570262 $447 24.822280724912094 $360 $477 forward 7 unknown #
vertex $-1 $364 $478 #
straight-curve $-1 -9.5923231592022571 -26.279234150061399 29.356925328228094 0 0 1 I I #
edge $-1 $447 1.2565828942256534 $371 15.414897635727552 $370 $479 forward 7 unknown #
vertex $-1 $446 $480 #
straight-curve $-1 -9.5923231592022571 -26.279234150061392 3.0004141152691943 0 -0.69465836192734942 -0.71933980857756763 I I #
point $-1 -9.5923231592022571 -26.279234150061399 3.0004141152691868 #
point $-1 -23.750637900704156 -17.163813246719567 12.439709007683716 #
straight-curve $-1 0 -26.279234150061399 12.439709007683716 1 0 0 I I #
vertex $-1 $377 $481 #
point $-1 -15.171480529953207 -20.40709907304263 6.4507364855757627 #
straight-curve $-1 -40.101321451460308 26.279234150061399 0 0 0 -1 I I #
point $-1 -40.101321451460308 -26.279234150061399 -12.439709007683716 #
straight-curve $-1 -40.101321451460308 0 -12.439709007683716 0 1 0 I I #
point $-1 -40.101321451460308 26.279234150061399 -12.439709007683716 #
coedge $-1 $406 $405 $398 $459 reversed $285 $-1 #
edge $-1 $460 -26.279234150061399 $462 26.279234150061399 $458 $482 forward 7 unknown #
vertex $-1 $459 $483 #
straight-curve $-1 0 -26.279234150061399 -12.439709007683716 -1 0 0 I I #
vertex $-1 $401 $484 #
straight-curve $-1 0 26.279234150061399 -12.439709007683716 1 0 0 I I #
point $-1 -30.601714718421388 26.279234150061399 -12.439709007683717 #
straight-curve $-1 -40.101321451460308 26.279234150061399 0 0 0 -1 I I #
straight-curve $-1 -40.101321451460308 -26.279234150061399 0 0 0 -1 I I #
straight-curve $-1 25.25945440783866 0 -2.0738380800172704 0 1 0 I I #
point $-1 25.25945440783866 26.279234150061399 -2.0738380800172704 #
point $-1 25.25945440783866 -26.279234150061399 -2.0738380800172704 #
straight-curve $-1 25.25945440783866 -26.279234150061399 0.3055877802196898 0 0 -1 I I #
straight-curve $-1 -7.773641288805365 20.443362250648889 12.439709007683717 0 -1 0 I I #
point $-1 -7.773641288805365 26.279234150061399 12.439709007683716 #
straight-curve $-1 -1.1787347183178376 12.473456450168086 12.439709007683714 1 0 0 I I #
point $-1 -7.773641288805365 12.473456450168079 12.439709007683721 #
point $-1 -4.6786859447083984 16.861290653643955 3.4310687294782731 #
point $-1 -0.03625292856294493 16.861290653643955 3.4310687294782731 #
straight-curve $-1 -9.5923231592022571 -41.986093971631661 12.439709007683717 0 1 0 I I #
point $-1 -9.5923231592022571 -26.279234150061399 12.439709007683716 #
straight-curve $-1 -8.3357402649766037 -17.163813246719567 12.439709007683716 -1 0 0 I I #
point $-1 -9.5923231592022571 -17.163813246719567 12.439709007683716 #
point $-1 -16.671480529953207 -19.328089360176278 5.4087489426847393 #
straight-curve $-1 -40.101321451460308 0 -12.439709007683716 0 1 0 I I #
point $-1 -40.101321451460308 -26.279234150061399 -12.439709007683716 #
point $-1 -40.101321451460308 26.279234150061399 -12.439709007683716 #
End-of-ACIS-data 