500 0 9 0           
7 Unknown 11 ACIS 5.0 NT 24 Fri Mar 26 16:51:35 1999 
-1 9.9999999999999995e-007 1e-010 
body $-1 $9 $-1 $10 #
body $-1 $11 $-1 $12 #
body $-1 $13 $-1 $14 #
body $-1 $15 $-1 $16 #
body $-1 $17 $-1 $18 #
body $-1 $19 $-1 $20 #
body $-1 $21 $-1 $22 #
body $-1 $23 $-1 $24 #
body $-1 $25 $-1 $26 #
lump $-1 $-1 $27 $0 #
transform $-1 1 0 0 0 1 0 0 0 1 64.854274117252118 37.180121886812017 11.341486016274061 1 rotate no_reflect no_shear #
lump $-1 $-1 $28 $1 #
transform $-1 1 0 0 0 1 0 0 0 1 64.854274117252118 37.180121886812017 11.341486016274061 1 rotate no_reflect no_shear #
lump $-1 $-1 $29 $2 #
transform $-1 1 0 0 0 1 0 0 0 1 64.854274117252118 37.180121886812017 11.341486016274061 1 rotate no_reflect no_shear #
lump $-1 $-1 $30 $3 #
transform $-1 1 0 0 0 1 0 0 0 1 64.854274117252118 37.180121886812017 11.341486016274061 1 rotate no_reflect no_shear #
lump $-1 $-1 $31 $4 #
transform $-1 1 0 0 0 1 0 0 0 1 64.854274117252118 37.180121886812017 11.341486016274061 1 rotate no_reflect no_shear #
lump $-1 $-1 $32 $5 #
transform $-1 1 0 0 0 1 0 0 0 1 64.854274117252118 37.180121886812017 11.341486016274061 1 rotate no_reflect no_shear #
lump $-1 $-1 $33 $6 #
transform $-1 1 0 0 0 1 0 0 0 1 64.854274117252118 37.180121886812017 11.341486016274061 1 rotate no_reflect no_shear #
lump $-1 $-1 $34 $7 #
transform $-1 1 0 0 0 1 0 0 0 1 64.854274117252118 37.180121886812017 11.341486016274061 1 rotate no_reflect no_shear #
lump $-1 $-1 $35 $8 #
transform $-1 1 0 0 0 1 0 0 0 1 64.854274117252118 37.180121886812017 11.341486016274061 1 rotate no_reflect no_shear #
shell $-1 $-1 $-1 $36 $-1 $9 #
shell $-1 $-1 $-1 $37 $-1 $11 #
shell $-1 $-1 $-1 $38 $-1 $13 #
shell $-1 $-1 $-1 $39 $-1 $15 #
shell $-1 $-1 $-1 $40 $-1 $17 #
shell $-1 $-1 $-1 $41 $-1 $19 #
shell $-1 $-1 $-1 $42 $-1 $21 #
shell $-1 $-1 $-1 $43 $-1 $23 #
shell $-1 $-1 $-1 $44 $-1 $25 #
face $-1 $45 $46 $27 $-1 $47 forward single #
face $-1 $48 $49 $28 $-1 $50 forward single #
face $-1 $51 $52 $29 $-1 $53 reversed single #
face $-1 $54 $55 $30 $-1 $56 forward single #
face $-1 $57 $58 $31 $-1 $59 forward single #
face $-1 $60 $61 $32 $-1 $62 forward single #
face $-1 $63 $64 $33 $-1 $65 reversed single #
face $-1 $66 $67 $34 $-1 $68 forward single #
face $-1 $69 $70 $35 $-1 $71 forward single #
face $-1 $72 $73 $27 $-1 $74 reversed single #
loop $-1 $-1 $75 $36 #
plane-surface $-1 0 0 11.341486016274061 0 0 1 1 0 0 forward_v I I I I #
face $-1 $76 $77 $28 $-1 $78 reversed single #
loop $-1 $-1 $79 $37 #
plane-surface $-1 -64.854274117252118 0 0 1 0 0 0 0 -1 forward_v I I I I #
face $-1 $80 $81 $29 $-1 $82 reversed single #
loop $-1 $-1 $83 $38 #
plane-surface $-1 55.359987668903273 -37.180121886812032 0.94547194019720848 0 -0.74314483375859142 0.66913059716165679 1 0 0 forward_v I I I I #
face $-1 $84 $85 $30 $-1 $86 forward single #
loop $-1 $87 $88 $39 #
cone-surface $-1 49.663415799893954 -31.253000439964943 5.0208417340887141 0 0.74314483375859142 -0.66913059716165679 1.5 0 0 1 I I 0 1 1.5 forward I I I I #
face $-1 $89 $90 $31 $-1 $91 forward single #
loop $-1 $92 $93 $40 #
cone-surface $-1 55.359987668903258 -31.253000439964943 5.0208417340887141 0 0.74314483375859142 -0.66913059716165679 1.5 0 0 1 I I 0 1 1.5 forward I I I I #
face $-1 $94 $95 $32 $-1 $96 forward single #
loop $-1 $97 $98 $41 #
cone-surface $-1 61.056559537912563 -31.253000439964943 5.0208417340887141 0 0.74314483375859142 -0.66913059716165679 1.5 0 0 1 I I 0 1 1.5 forward I I I I #
face $-1 $99 $100 $33 $-1 $101 reversed single #
loop $-1 $-1 $102 $42 #
plane-surface $-1 12.112156570207041 71.25750114567596 149.2144466815717 1 0 0 0 -0.68199836817093118 -0.7313536940579346 forward_v I I I I #
face $-1 $103 $104 $34 $-1 $105 forward single #
loop $-1 $106 $107 $43 #
cone-surface $-1 17.706783745855546 31.366859806198555 5.6851852205026692 0 -0.68199836817093118 -0.7313536940579346 2.5 0 0 1 I I 0 1 2.5 forward I I I I #
face $-1 $108 $109 $35 $-1 $110 forward single #
loop $-1 $111 $112 $44 #
cone-surface $-1 26.098724509328292 31.366859806198555 5.6851852205026692 0 -0.68199836817093118 -0.7313536940579346 2.5 0 0 1 I I 0 1 2.5 forward I I I I #
face $-1 $113 $114 $27 $-1 $115 reversed single #
loop $-1 $-1 $116 $45 #
plane-surface $-1 0 0 -11.341486016274061 0 0 1 1 0 0 forward_v I I I I #
coedge $-1 $117 $118 $119 $120 forward $46 $-1 #
face $-1 $121 $122 $28 $-1 $123 forward single #
loop $-1 $-1 $124 $48 #
plane-surface $-1 0 37.180121886812017 0 0 -1 0 0 0 -1 forward_v I I I I #
coedge $-1 $125 $126 $127 $128 forward $49 $-1 #
face $-1 $129 $130 $29 $-1 $131 reversed single #
loop $-1 $-1 $132 $51 #
plane-surface $-1 45.865701220554421 -133.57235940161092 87.737430277322588 1 0 0 0 0.74314483375859142 -0.66913059716165679 forward_v I I I I #
coedge $-1 $133 $134 $135 $136 reversed $52 $-1 #
face $-1 $-1 $137 $30 $-1 $138 forward single #
loop $-1 $139 $140 $54 #
cone-surface $-1 49.663415799893954 -29.448826810651781 3.3963565420705528 0 0.74314483375859142 -0.66913059716165679 0.75 0 0 1 I I -0.70710678118654768 0.70710678118654735 0.75 forward I I I I #
loop $-1 $-1 $141 $39 #
coedge $-1 $88 $88 $142 $143 reversed $55 $-1 #
face $-1 $-1 $144 $31 $-1 $145 forward single #
loop $-1 $146 $147 $57 #
cone-surface $-1 55.359987668903258 -29.448826810651781 3.3963565420705528 0 0.74314483375859142 -0.66913059716165679 0.75 0 0 1 I I -0.70710678118654768 0.70710678118654735 0.75 forward I I I I #
loop $-1 $-1 $148 $40 #
coedge $-1 $93 $93 $149 $150 reversed $58 $-1 #
face $-1 $-1 $151 $32 $-1 $152 forward single #
loop $-1 $153 $154 $60 #
cone-surface $-1 61.056559537912563 -29.448826810651781 3.3963565420705528 0 0.74314483375859142 -0.66913059716165679 0.75 0 0 1 I I -0.70710678118654768 0.70710678118654735 0.75 forward I I I I #
loop $-1 $-1 $155 $41 #
coedge $-1 $98 $98 $156 $157 reversed $61 $-1 #
face $-1 $158 $159 $33 $-1 $160 reversed single #
loop $-1 $-1 $161 $63 #
plane-surface $-1 21.902754127591919 -17.203517088076438 54.351620779375239 0 0.68199836817093118 0.7313536940579346 1 0 0 forward_v I I I I #
coedge $-1 $162 $163 $164 $165 reversed $64 $-1 #
face $-1 $-1 $166 $34 $-1 $167 forward single #
loop $-1 $168 $169 $66 #
cone-surface $-1 17.706783745855546 28.831558398474286 2.9664073808103879 0 -0.68199836817093118 -0.7313536940579346 1.25 0 0 1 I I -0.70710678118654746 0.70710678118654746 1.25 forward I I I I #
loop $-1 $-1 $170 $43 #
coedge $-1 $107 $107 $171 $172 reversed $67 $-1 #
face $-1 $-1 $173 $35 $-1 $174 forward single #
loop $-1 $175 $176 $69 #
cone-surface $-1 26.098724509328292 28.831558398474286 2.9664073808103879 0 -0.68199836817093118 -0.7313536940579346 1.25 0 0 1 I I -0.70710678118654746 0.70710678118654746 1.25 forward I I I I #
loop $-1 $-1 $177 $44 #
coedge $-1 $112 $112 $178 $179 reversed $70 $-1 #
face $-1 $180 $181 $27 $-1 $182 reversed single #
loop $-1 $-1 $183 $72 #
plane-surface $-1 0 -37.180121886812017 0 0 1 0 0 0 1 forward_v I I I I #
coedge $-1 $184 $185 $186 $187 forward $73 $-1 #
coedge $-1 $188 $75 $189 $190 forward $46 $-1 #
coedge $-1 $75 $188 $191 $192 forward $46 $-1 #
coedge $-1 $193 $194 $75 $120 reversed $195 $-1 #
edge $-1 $196 -37.180121886812017 $197 37.180121886812017 $119 $198 forward 7 unknown #
face $-1 $199 $200 $28 $-1 $201 reversed single #
loop $-1 $-1 $127 $76 #
plane-surface $-1 -69.402795999823653 0 -5.285886344374858 0 0 1 1 0 0 forward_v I I I I #
coedge $-1 $202 $203 $126 $204 forward $77 $-1 #
coedge $-1 $205 $79 $206 $207 reversed $49 $-1 #
coedge $-1 $79 $205 $124 $204 reversed $49 $-1 #
coedge $-1 $208 $209 $79 $128 reversed $122 $-1 #
edge $-1 $210 -37.180121886812017 $211 37.180121886812017 $127 $212 forward 7 unknown #
face $-1 $213 $214 $29 $-1 $215 forward single #
loop $-1 $-1 $216 $80 #
plane-surface $-1 0 -37.180121886812017 0 0 1 0 0 0 1 forward_v I I I I #
coedge $-1 $217 $218 $219 $220 reversed $81 $-1 #
coedge $-1 $221 $83 $222 $223 reversed $52 $-1 #
coedge $-1 $83 $221 $217 $224 forward $52 $-1 #
coedge $-1 $219 $225 $83 $136 forward $214 $-1 #
edge $-1 $226 -37.174280282800481 $227 -18.185707386102784 $135 $228 forward 7 unknown #
loop $-1 $-1 $142 $84 #
plane-surface $-1 55.359987668903273 -37.180121886812032 0.94547194019720848 0 -0.74314483375859142 0.66913059716165679 1 0 0 forward_v I I I I #
loop $-1 $-1 $229 $54 #
coedge $-1 $140 $140 $141 $230 reversed $85 $-1 #
coedge $-1 $141 $141 $140 $230 forward $87 $-1 #
coedge $-1 $142 $142 $88 $143 forward $137 $-1 #
edge $-1 $231 -1.6706922624905774e-015 $231 6.2831853071795987 $142 $232 forward 7 unknown #
loop $-1 $-1 $149 $89 #
plane-surface $-1 55.359987668903273 -37.180121886812032 0.94547194019720848 0 -0.74314483375859142 0.66913059716165679 1 0 0 forward_v I I I I #
loop $-1 $-1 $233 $57 #
coedge $-1 $147 $147 $148 $234 reversed $90 $-1 #
coedge $-1 $148 $148 $147 $234 forward $92 $-1 #
coedge $-1 $149 $149 $93 $150 forward $144 $-1 #
edge $-1 $235 -1.6706922624905774e-015 $235 6.2831853071795987 $149 $236 forward 7 unknown #
loop $-1 $-1 $156 $94 #
plane-surface $-1 55.359987668903273 -37.180121886812032 0.94547194019720848 0 -0.74314483375859142 0.66913059716165679 1 0 0 forward_v I I I I #
loop $-1 $-1 $237 $60 #
coedge $-1 $154 $154 $155 $238 reversed $95 $-1 #
coedge $-1 $155 $155 $154 $238 forward $97 $-1 #
coedge $-1 $156 $156 $98 $157 forward $151 $-1 #
edge $-1 $239 -1.6706922624905774e-015 $239 6.2831853071795987 $156 $240 forward 7 unknown #
face $-1 $241 $242 $33 $-1 $243 forward single #
loop $-1 $-1 $244 $99 #
plane-surface $-1 31.693351684976797 71.25750114567596 149.2144466815717 -1 0 0 0 0.68199836817093118 0.7313536940579346 forward_v I I I I #
coedge $-1 $245 $246 $247 $248 reversed $100 $-1 #
coedge $-1 $163 $102 $249 $250 reversed $64 $-1 #
coedge $-1 $102 $162 $245 $251 reversed $64 $-1 #
coedge $-1 $247 $252 $102 $165 forward $242 $-1 #
edge $-1 $253 -1.5513713139740375 $254 6.7095459522316432 $164 $255 forward 7 unknown #
loop $-1 $-1 $171 $103 #
plane-surface $-1 21.902754127591919 -17.203517088076438 54.351620779375239 0 0.68199836817093118 0.7313536940579346 1 0 0 forward_v I I I I #
loop $-1 $-1 $256 $66 #
coedge $-1 $169 $169 $170 $257 reversed $104 $-1 #
coedge $-1 $170 $170 $169 $257 forward $106 $-1 #
coedge $-1 $171 $171 $107 $172 forward $166 $-1 #
edge $-1 $258 -1.2497305188488569e-015 $258 6.2831853071795996 $171 $259 forward 7 unknown #
loop $-1 $-1 $178 $108 #
plane-surface $-1 21.902754127591919 -17.203517088076438 54.351620779375239 0 0.68199836817093118 0.7313536940579346 1 0 0 forward_v I I I I #
loop $-1 $-1 $260 $69 #
coedge $-1 $176 $176 $177 $261 reversed $109 $-1 #
coedge $-1 $177 $177 $176 $261 forward $111 $-1 #
coedge $-1 $178 $178 $112 $179 forward $173 $-1 #
edge $-1 $262 -1.2497305188488569e-015 $262 6.2831853071795996 $178 $263 forward 7 unknown #
face $-1 $264 $265 $27 $-1 $266 reversed single #
loop $-1 $-1 $267 $113 #
plane-surface $-1 -64.854274117252118 0 0 1 0 0 0 0 -1 forward_v I I I I #
coedge $-1 $268 $191 $267 $269 forward $114 $-1 #
coedge $-1 $270 $116 $268 $271 forward $73 $-1 #
coedge $-1 $116 $270 $272 $273 forward $73 $-1 #
coedge $-1 $194 $193 $116 $187 reversed $195 $-1 #
edge $-1 $274 -37.180121886812017 $275 37.180121886812017 $186 $276 forward 7 unknown #
coedge $-1 $118 $117 $277 $278 forward $46 $-1 #
coedge $-1 $279 $280 $117 $190 reversed $265 $-1 #
edge $-1 $197 -64.854274117252118 $281 64.854274117252118 $189 $282 forward 7 unknown #
coedge $-1 $183 $283 $118 $192 reversed $114 $-1 #
edge $-1 $284 -64.854274117252118 $196 64.854274117252118 $191 $285 forward 7 unknown #
coedge $-1 $186 $119 $283 $286 forward $195 $-1 #
coedge $-1 $119 $186 $279 $287 reversed $195 $-1 #
loop $-1 $-1 $193 $264 #
vertex $-1 $120 $288 #
vertex $-1 $120 $289 #
straight-curve $-1 64.854274117252118 0 11.341486016274061 0 1 0 I I #
face $-1 $290 $291 $28 $-1 $292 reversed single #
loop $-1 $-1 $293 $121 #
plane-surface $-1 -73.951317882395188 0 -8.3136861803244599 1 0 0 0 0 -1 forward_v I I I I #
coedge $-1 $294 $124 $295 $296 reversed $77 $-1 #
coedge $-1 $124 $294 $208 $297 reversed $77 $-1 #
edge $-1 $210 5.285886344374858 $298 11.341486016274061 $124 $299 forward 7 unknown #
coedge $-1 $126 $125 $300 $301 reversed $49 $-1 #
coedge $-1 $302 $303 $125 $207 forward $304 $-1 #
edge $-1 $305 -11.341486016274061 $211 -5.285886344374858 $206 $306 forward 7 unknown #
coedge $-1 $307 $127 $203 $297 forward $122 $-1 #
coedge $-1 $127 $307 $302 $308 forward $122 $-1 #
vertex $-1 $204 $309 #
vertex $-1 $308 $310 #
straight-curve $-1 -64.854274117252118 0 -5.285886344374858 0 -1 0 I I #
face $-1 $-1 $311 $29 $-1 $312 reversed single #
loop $-1 $-1 $219 $129 #
plane-surface $-1 0 0 11.341486016274061 0 0 1 1 0 0 forward_v I I I I #
coedge $-1 $313 $314 $218 $315 forward $130 $-1 #
coedge $-1 $218 $132 $134 $224 reversed $81 $-1 #
coedge $-1 $132 $217 $216 $315 reversed $81 $-1 #
coedge $-1 $316 $135 $132 $220 forward $214 $-1 #
edge $-1 $227 -38.966670699699137 $317 -29.606057813993445 $219 $318 forward 7 unknown #
coedge $-1 $134 $133 $313 $319 reversed $52 $-1 #
coedge $-1 $320 $321 $133 $223 forward $311 $-1 #
edge $-1 $322 -12.087867286422206 $226 1.9013493559072407 $222 $323 forward 7 unknown #
edge $-1 $324 2.1224720073754982e-014 $227 13.989216642329467 $217 $325 forward 7 unknown #
coedge $-1 $135 $316 $320 $326 forward $214 $-1 #
vertex $-1 $223 $327 #
vertex $-1 $136 $328 #
straight-curve $-1 27.679993834451636 -27.819509001106326 11.341486016274061 -1 0 0 I I #
coedge $-1 $229 $229 $-1 $329 reversed $139 $-1 #
edge $-1 $330 0 $330 6.2831853071796004 $140 $331 forward 7 unknown #
vertex $-1 $143 $332 #
ellipse-curve $-1 49.663415799893954 -32.499815443959172 6.1434789782356427 0 -0.74314483375859142 0.66913059716165679 1.5 0 0 1 I I #
coedge $-1 $233 $233 $-1 $333 reversed $146 $-1 #
edge $-1 $334 0 $334 6.2831853071796004 $147 $335 forward 7 unknown #
vertex $-1 $150 $336 #
ellipse-curve $-1 55.359987668903258 -32.499815443959172 6.1434789782356427 0 -0.74314483375859142 0.66913059716165679 1.5 0 0 1 I I #
coedge $-1 $237 $237 $-1 $337 reversed $153 $-1 #
edge $-1 $338 0 $338 6.2831853071796004 $154 $339 forward 7 unknown #
vertex $-1 $157 $340 #
ellipse-curve $-1 61.056559537912563 -32.499815443959172 6.1434789782356427 0 -0.74314483375859142 0.66913059716165679 1.5 0 0 1 I I #
face $-1 $-1 $341 $33 $-1 $342 reversed single #
loop $-1 $-1 $164 $158 #
plane-surface $-1 0 0 11.341486016274061 0 0 1 1 0 0 forward_v I I I I #
coedge $-1 $343 $344 $345 $346 reversed $159 $-1 #
coedge $-1 $347 $161 $163 $251 forward $100 $-1 #
coedge $-1 $161 $347 $343 $348 forward $100 $-1 #
coedge $-1 $345 $164 $161 $248 forward $242 $-1 #
edge $-1 $254 1.1607795064110817 $349 20.741974621180837 $247 $350 forward 7 unknown #
coedge $-1 $351 $352 $162 $250 forward $341 $-1 #
edge $-1 $353 -70.969167471814842 $253 -63.26573732451179 $249 $354 forward 7 unknown #
edge $-1 $254 63.064864624898085 $353 74.36024377362402 $163 $355 forward 7 unknown #
coedge $-1 $164 $345 $351 $356 forward $242 $-1 #
vertex $-1 $250 $357 #
vertex $-1 $165 $358 #
straight-curve $-1 12.112156570207041 35.62875057283798 11.341486016274061 0 -1 0 I I #
coedge $-1 $256 $256 $-1 $359 reversed $168 $-1 #
edge $-1 $360 0 $360 6.2831853071796004 $169 $361 forward 7 unknown #
vertex $-1 $172 $362 #
ellipse-curve $-1 17.706783745855546 33.04966325370917 7.4897709426225445 0 0.68199836817093118 0.7313536940579346 2.5 0 0 1 I I #
coedge $-1 $260 $260 $-1 $363 reversed $175 $-1 #
edge $-1 $364 0 $364 6.2831853071796004 $176 $365 forward 7 unknown #
vertex $-1 $179 $366 #
ellipse-curve $-1 26.098724509328292 33.04966325370917 7.4897709426225445 0 0.68199836817093118 0.7313536940579346 2.5 0 0 1 I I #
face $-1 $-1 $195 $27 $-1 $367 reversed single #
loop $-1 $-1 $279 $180 #
plane-surface $-1 0 37.180121886812017 0 0 -1 0 0 0 -1 forward_v I I I I #
coedge $-1 $277 $368 $183 $269 reversed $181 $-1 #
coedge $-1 $283 $183 $184 $271 reversed $114 $-1 #
edge $-1 $284 -11.341486016274061 $369 11.341486016274061 $267 $370 forward 7 unknown #
coedge $-1 $185 $184 $368 $371 forward $73 $-1 #
edge $-1 $275 -64.854274117252118 $369 64.854274117252118 $268 $372 forward 7 unknown #
coedge $-1 $280 $279 $185 $273 reversed $265 $-1 #
edge $-1 $373 -64.854274117252118 $274 64.854274117252118 $272 $374 forward 7 unknown #
vertex $-1 $187 $375 #
vertex $-1 $286 $376 #
straight-curve $-1 64.854274117252118 0 -11.341486016274061 0 -1 0 I I #
coedge $-1 $377 $267 $188 $278 reversed $181 $-1 #
edge $-1 $281 -37.180121886812017 $284 37.180121886812017 $277 $378 forward 7 unknown #
coedge $-1 $272 $189 $194 $287 forward $265 $-1 #
coedge $-1 $189 $272 $377 $379 reversed $265 $-1 #
vertex $-1 $190 $380 #
straight-curve $-1 0 37.180121886812017 11.341486016274061 -1 0 0 I I #
coedge $-1 $191 $268 $193 $286 reversed $114 $-1 #
vertex $-1 $278 $381 #
straight-curve $-1 0 -37.180121886812017 11.341486016274061 1 0 0 I I #
edge $-1 $196 -11.341486016274061 $275 11.341486016274061 $193 $382 forward 7 unknown #
edge $-1 $197 -11.341486016274061 $274 11.341486016274061 $194 $383 forward 7 unknown #
point $-1 64.854274117252118 -37.180121886812017 11.341486016274061 #
point $-1 64.854274117252118 37.180121886812017 11.341486016274061 #
face $-1 $-1 $304 $28 $-1 $384 reversed single #
loop $-1 $-1 $300 $199 #
plane-surface $-1 0 0 -11.341486016274061 0 0 1 1 0 0 forward_v I I I I #
coedge $-1 $385 $386 $294 $387 forward $200 $-1 #
coedge $-1 $203 $202 $293 $387 reversed $77 $-1 #
coedge $-1 $300 $388 $202 $296 forward $291 $-1 #
edge $-1 $389 -73.951317882395188 $298 -64.854274117252118 $202 $390 forward 7 unknown #
edge $-1 $210 -4.548521882571535 $391 4.548521882571535 $203 $392 forward 7 unknown #
vertex $-1 $204 $393 #
straight-curve $-1 -64.854274117252118 37.180121886812017 0 0 0 -1 I I #
coedge $-1 $394 $295 $205 $301 forward $291 $-1 #
edge $-1 $298 -37.180121886812017 $305 37.180121886812017 $300 $395 forward 7 unknown #
coedge $-1 $396 $206 $209 $308 reversed $304 $-1 #
coedge $-1 $206 $396 $394 $397 reversed $304 $-1 #
loop $-1 $-1 $206 $290 #
vertex $-1 $397 $398 #
straight-curve $-1 -64.854274117252118 -37.180121886812017 0 0 0 1 I I #
coedge $-1 $209 $208 $386 $399 forward $122 $-1 #
edge $-1 $400 -4.548521882571535 $211 4.548521882571535 $302 $401 forward 7 unknown #
point $-1 -64.854274117252118 37.180121886812017 -5.285886344374858 #
point $-1 -64.854274117252118 -37.180121886812017 -5.285886344374858 #
loop $-1 $-1 $222 $213 #
plane-surface $-1 64.854274117252118 0 0 -1 0 0 0 0 1 forward_v I I I I #
coedge $-1 $402 $216 $221 $319 forward $130 $-1 #
coedge $-1 $216 $402 $316 $403 reversed $130 $-1 #
edge $-1 $317 32.527229122387233 $324 42.923243198464071 $216 $404 forward 7 unknown #
coedge $-1 $225 $219 $314 $403 forward $214 $-1 #
vertex $-1 $403 $405 #
straight-curve $-1 45.865701220554421 -66.786179700805462 11.341486016274061 0 -1 0 I I #
edge $-1 $324 18.185707386102784 $322 37.174280282800481 $313 $406 forward 7 unknown #
coedge $-1 $321 $222 $225 $326 reversed $311 $-1 #
coedge $-1 $222 $320 $402 $407 forward $311 $-1 #
vertex $-1 $319 $408 #
straight-curve $-1 64.854274117252118 -29.09176003103747 9.9285080652613704 0 0.66913059716165679 0.74314483375859142 I I #
vertex $-1 $319 $409 #
straight-curve $-1 45.865701220554421 -37.180121886812032 0.94547194019720848 0 0.66913059716165679 0.74314483375859142 I I #
edge $-1 $410 -37.180121886812017 $226 -27.819509001106326 $320 $411 forward 7 unknown #
point $-1 64.854274117252118 -27.819509001106326 11.341486016274061 #
point $-1 45.865701220554421 -27.819509001106326 11.341486016274061 #
edge $-1 $412 1 $412 0 $229 $-1 forward 7 unknown #
vertex $-1 $230 $413 #
ellipse-curve $-1 49.663415799893954 -30.006185435970725 3.8982044899417954 0 -0.74314483375859142 0.66913059716165679 1.5 0 0 1 I I #
point $-1 51.163415799893954 -32.499815443959164 6.1434789782356329 #
edge $-1 $414 1 $414 0 $233 $-1 forward 7 unknown #
vertex $-1 $234 $415 #
ellipse-curve $-1 55.359987668903258 -30.006185435970725 3.8982044899417954 0 -0.74314483375859142 0.66913059716165679 1.5 0 0 1 I I #
point $-1 56.859987668903258 -32.499815443959164 6.1434789782356329 #
edge $-1 $416 1 $416 0 $237 $-1 forward 7 unknown #
vertex $-1 $238 $417 #
ellipse-curve $-1 61.056559537912563 -30.006185435970725 3.8982044899417954 0 -0.74314483375859142 0.66913059716165679 1.5 0 0 1 I I #
point $-1 62.556559537912563 -32.499815443959164 6.1434789782356329 #
loop $-1 $-1 $249 $241 #
plane-surface $-1 0 37.180121886812017 0 0 -1 0 0 0 -1 forward_v I I I I #
coedge $-1 $344 $244 $246 $348 reversed $159 $-1 #
coedge $-1 $244 $343 $418 $419 reversed $159 $-1 #
coedge $-1 $252 $247 $244 $346 forward $242 $-1 #
edge $-1 $349 -6.7095459522316432 $420 1.5513713139740375 $345 $421 forward 7 unknown #
coedge $-1 $246 $245 $352 $422 reversed $100 $-1 #
edge $-1 $423 -74.36024377362402 $349 -63.064864624898085 $343 $424 forward 7 unknown #
vertex $-1 $248 $425 #
straight-curve $-1 10.95137706379596 28.919204620606344 11.341486016274064 1 0 0 I I #
coedge $-1 $418 $249 $252 $356 reversed $341 $-1 #
coedge $-1 $249 $418 $347 $422 forward $341 $-1 #
vertex $-1 $250 $426 #
straight-curve $-1 12.112156570207041 37.180121886812017 74.60722334078585 0 0 1 I I #
straight-curve $-1 12.112156570207041 -17.203517088076438 54.351620779375239 0 0.7313536940579346 -0.68199836817093118 I I #
edge $-1 $420 -31.693351684976797 $253 -12.112156570207041 $351 $427 forward 7 unknown #
point $-1 12.112156570207041 37.180121886812017 11.341486016274061 #
point $-1 12.112156570207041 28.919204620606337 11.341486016274061 #
edge $-1 $428 1 $428 0 $256 $-1 forward 7 unknown #
vertex $-1 $257 $429 #
ellipse-curve $-1 17.706783745855546 29.68405635868795 3.8805994983828063 0 0.68199836817093118 0.7313536940579346 2.5 0 0 1 I I #
point $-1 20.206783745855546 33.049663253709156 7.4897709426225338 #
edge $-1 $430 1 $430 0 $260 $-1 forward 7 unknown #
vertex $-1 $261 $431 #
ellipse-curve $-1 26.098724509328292 29.68405635868795 3.8805994983828063 0 0.68199836817093118 0.7313536940579346 2.5 0 0 1 I I #
point $-1 28.598724509328292 33.049663253709156 7.4897709426225338 #
plane-surface $-1 64.854274117252118 0 0 -1 0 0 0 0 1 forward_v I I I I #
coedge $-1 $267 $377 $270 $371 reversed $181 $-1 #
vertex $-1 $371 $432 #
straight-curve $-1 -64.854274117252118 -37.180121886812017 0 0 0 -1 I I #
edge $-1 $369 -37.180121886812017 $373 37.180121886812017 $368 $433 forward 7 unknown #
straight-curve $-1 0 -37.180121886812017 -11.341486016274061 -1 0 0 I I #
vertex $-1 $273 $434 #
straight-curve $-1 0 37.180121886812017 -11.341486016274061 1 0 0 I I #
point $-1 64.854274117252118 37.180121886812017 -11.341486016274061 #
point $-1 64.854274117252118 -37.180121886812017 -11.341486016274061 #
coedge $-1 $368 $277 $280 $379 forward $181 $-1 #
straight-curve $-1 -64.854274117252118 0 11.341486016274061 0 -1 0 I I #
edge $-1 $281 -11.341486016274061 $373 11.341486016274061 $280 $435 forward 7 unknown #
point $-1 -64.854274117252118 37.180121886812017 11.341486016274061 #
point $-1 -64.854274117252118 -37.180121886812017 11.341486016274061 #
straight-curve $-1 64.854274117252118 -37.180121886812017 0 0 0 -1 I I #
straight-curve $-1 64.854274117252118 37.180121886812017 0 0 0 -1 I I #
plane-surface $-1 0 -37.180121886812017 0 0 1 0 0 0 1 forward_v I I I I #
coedge $-1 $436 $293 $388 $437 reversed $200 $-1 #
coedge $-1 $293 $436 $307 $399 reversed $200 $-1 #
edge $-1 $391 -3.0277998359496019 $389 3.027799835949601 $294 $438 forward 7 unknown #
coedge $-1 $295 $394 $385 $437 forward $291 $-1 #
vertex $-1 $296 $439 #
straight-curve $-1 0 37.180121886812017 -11.341486016274061 1 0 0 I I #
vertex $-1 $297 $440 #
straight-curve $-1 -69.402795999823653 37.180121886812017 -5.285886344374858 -1 0 0 I I #
point $-1 -64.854274117252118 37.180121886812017 -11.341486016274061 #
coedge $-1 $388 $300 $303 $397 forward $291 $-1 #
straight-curve $-1 -64.854274117252118 0 -11.341486016274061 0 -1 0 I I #
coedge $-1 $303 $302 $436 $441 forward $304 $-1 #
edge $-1 $305 -4.548521882571535 $442 4.548521882571535 $303 $443 forward 7 unknown #
point $-1 -64.854274117252118 -37.180121886812017 -11.341486016274061 #
edge $-1 $391 -37.180121886812017 $400 37.180121886812017 $386 $444 forward 7 unknown #
vertex $-1 $399 $445 #
straight-curve $-1 -69.402795999823653 -37.180121886812017 -5.285886344374858 1 0 0 I I #
coedge $-1 $314 $313 $321 $407 reversed $130 $-1 #
edge $-1 $317 45.865701220554421 $410 64.854274117252118 $314 $446 forward 7 unknown #
straight-curve $-1 45.865701220554421 -37.180121886812017 43.868715138661294 0 0 -1 I I #
point $-1 45.865701220554421 -37.180121886812017 11.341486016274061 #
straight-curve $-1 27.679993834451636 -37.180121886812017 0.94547194019722103 1 0 0 I I #
edge $-1 $410 -11.341486016274061 $322 -0.94547194019722425 $321 $447 forward 7 unknown #
point $-1 64.854274117252118 -37.180121886812017 0.94547194019722425 #
point $-1 45.865701220554421 -37.180121886812017 0.94547194019722425 #
vertex $-1 $326 $448 #
straight-curve $-1 64.854274117252118 0 11.341486016274061 0 1 0 I I #
vertex $-1 $329 $449 #
point $-1 51.163415799893954 -30.006185435970725 3.8982044899417954 #
vertex $-1 $333 $450 #
point $-1 56.859987668903258 -30.006185435970725 3.8982044899417954 #
vertex $-1 $337 $451 #
point $-1 62.556559537912563 -30.006185435970725 3.8982044899417954 #
coedge $-1 $352 $351 $344 $419 forward $341 $-1 #
edge $-1 $420 63.26573732451179 $423 70.969167471814842 $418 $452 forward 7 unknown #
vertex $-1 $356 $453 #
straight-curve $-1 31.693351684976797 35.62875057283798 11.341486016274061 0 1 0 I I #
edge $-1 $423 -20.741974621180837 $353 -1.1607795064110817 $352 $454 forward 7 unknown #
vertex $-1 $422 $455 #
straight-curve $-1 31.693351684976797 -17.203517088076438 54.351620779375239 0 -0.7313536940579346 0.68199836817093118 I I #
point $-1 31.693351684976797 28.919204620606337 11.341486016274061 #
point $-1 12.112156570207041 37.180121886812017 3.6380558689710085 #
straight-curve $-1 0 37.180121886812017 11.341486016274061 -1 0 0 I I #
vertex $-1 $359 $456 #
point $-1 20.206783745855546 29.68405635868795 3.8805994983828063 #
vertex $-1 $363 $457 #
point $-1 28.598724509328292 29.68405635868795 3.8805994983828063 #
point $-1 -64.854274117252118 -37.180121886812017 -11.341486016274061 #
straight-curve $-1 -64.854274117252118 0 -11.341486016274061 0 1 0 I I #
point $-1 -64.854274117252118 37.180121886812017 -11.341486016274061 #
straight-curve $-1 -64.854274117252118 37.180121886812017 0 0 0 -1 I I #
coedge $-1 $386 $385 $396 $441 reversed $200 $-1 #
edge $-1 $442 -37.180121886812017 $389 37.180121886812017 $385 $458 forward 7 unknown #
straight-curve $-1 -73.951317882395188 37.180121886812017 -8.3136861803244599 0 0 -1 I I #
point $-1 -73.951317882395188 37.180121886812017 -11.341486016274061 #
point $-1 -73.951317882395188 37.180121886812017 -5.285886344374858 #
edge $-1 $400 -3.0277998359496019 $442 3.027799835949601 $436 $459 forward 7 unknown #
vertex $-1 $437 $460 #
straight-curve $-1 -69.402795999823653 -37.180121886812017 -11.341486016274061 -1 0 0 I I #
straight-curve $-1 -73.951317882395188 0 -5.285886344374858 0 -1 0 I I #
point $-1 -73.951317882395188 -37.180121886812017 -5.285886344374858 #
straight-curve $-1 0 -37.180121886812017 11.341486016274061 1 0 0 I I #
straight-curve $-1 64.854274117252118 -37.180121886812017 0 0 0 -1 I I #
point $-1 64.854274117252118 -37.180121886812017 11.341486016274061 #
point $-1 49.663415799893954 -28.891468185332837 2.8945085941993103 #
point $-1 55.359987668903258 -28.891468185332837 2.8945085941993103 #
point $-1 61.056559537912563 -28.891468185332837 2.8945085941993103 #
straight-curve $-1 31.693351684976797 37.180121886812017 74.60722334078585 0 0 -1 I I #
point $-1 31.693351684976797 37.180121886812017 11.341486016274061 #
straight-curve $-1 10.95137706379596 37.180121886812017 3.6380558689710121 -1 0 0 I I #
point $-1 31.693351684976797 37.180121886812017 3.6380558689710085 #
point $-1 17.706783745855546 27.979060438260621 2.0522152632379695 #
point $-1 26.098724509328292 27.979060438260621 2.0522152632379695 #
straight-curve $-1 -73.951317882395188 0 -11.341486016274061 0 1 0 I I #
straight-curve $-1 -73.951317882395188 -37.180121886812017 -8.3136861803244599 0 0 -1 I I #
point $-1 -73.951317882395188 -37.180121886812017 -11.341486016274061 #
End-of-ACIS-data 