500 0 10 0           
7 Unknown 11 ACIS 5.0 NT 24 Thu Mar 25 17:32:00 1999 
-1 9.9999999999999995e-007 1e-010 
body $-1 $10 $-1 $11 #
body $-1 $12 $-1 $13 #
body $-1 $14 $-1 $15 #
body $-1 $16 $-1 $17 #
body $-1 $18 $-1 $19 #
body $-1 $20 $-1 $21 #
body $-1 $22 $-1 $23 #
body $-1 $24 $-1 $25 #
body $-1 $26 $-1 $27 #
body $-1 $28 $-1 $29 #
lump $-1 $-1 $30 $0 #
transform $-1 1 0 0 0 1 0 0 0 1 43.845332193975644 24.905545656508391 6.5836620797614787 1 rotate no_reflect no_shear #
lump $-1 $-1 $31 $1 #
transform $-1 1 0 0 0 1 0 0 0 1 43.845332193975644 24.905545656508391 6.5836620797614787 1 rotate no_reflect no_shear #
lump $-1 $-1 $32 $2 #
transform $-1 1 0 0 0 1 0 0 0 1 43.845332193975644 24.905545656508391 6.5836620797614787 1 rotate no_reflect no_shear #
lump $-1 $-1 $33 $3 #
transform $-1 1 0 0 0 1 0 0 0 1 43.845332193975644 24.905545656508391 6.5836620797614787 1 rotate no_reflect no_shear #
lump $-1 $-1 $34 $4 #
transform $-1 1 0 0 0 1 0 0 0 1 43.845332193975644 24.905545656508391 6.5836620797614787 1 rotate no_reflect no_shear #
lump $-1 $-1 $35 $5 #
transform $-1 1 0 0 0 1 0 0 0 1 43.845332193975644 24.905545656508391 6.5836620797614787 1 rotate no_reflect no_shear #
lump $-1 $-1 $36 $6 #
transform $-1 1 0 0 0 1 0 0 0 1 43.845332193975644 24.905545656508391 6.5836620797614787 1 rotate no_reflect no_shear #
lump $-1 $-1 $37 $7 #
transform $-1 1 0 0 0 1 0 0 0 1 43.845332193975644 24.905545656508391 6.5836620797614787 1 rotate no_reflect no_shear #
lump $-1 $-1 $38 $8 #
transform $-1 1 0 0 0 1 0 0 0 1 43.845332193975644 24.905545656508391 6.5836620797614787 1 rotate no_reflect no_shear #
lump $-1 $-1 $39 $9 #
transform $-1 1 0 0 0 1 0 0 0 1 43.845332193975644 24.905545656508391 6.5836620797614787 1 rotate no_reflect no_shear #
shell $-1 $-1 $-1 $40 $-1 $10 #
shell $-1 $-1 $-1 $41 $-1 $12 #
shell $-1 $-1 $-1 $42 $-1 $14 #
shell $-1 $-1 $-1 $43 $-1 $16 #
shell $-1 $-1 $-1 $44 $-1 $18 #
shell $-1 $-1 $-1 $45 $-1 $20 #
shell $-1 $-1 $-1 $46 $-1 $22 #
shell $-1 $-1 $-1 $47 $-1 $24 #
shell $-1 $-1 $-1 $48 $-1 $26 #
shell $-1 $-1 $-1 $49 $-1 $28 #
face $-1 $50 $51 $30 $-1 $52 forward single #
face $-1 $53 $54 $31 $-1 $55 forward single #
face $-1 $56 $57 $32 $-1 $58 forward single #
face $-1 $59 $60 $33 $-1 $61 reversed single #
face $-1 $62 $63 $34 $-1 $64 forward single #
face $-1 $65 $66 $35 $-1 $67 forward single #
face $-1 $68 $69 $36 $-1 $70 reversed single #
face $-1 $71 $72 $37 $-1 $73 forward single #
face $-1 $74 $75 $38 $-1 $76 forward single #
face $-1 $77 $78 $39 $-1 $79 forward single #
face $-1 $80 $81 $30 $-1 $82 reversed single #
loop $-1 $-1 $83 $40 #
plane-surface $-1 0 0 6.5836620797614787 0 0 1 1 0 0 forward_v I I I I #
face $-1 $84 $85 $31 $-1 $86 reversed single #
loop $-1 $-1 $87 $41 #
plane-surface $-1 0 -21.863747905158696 -0.81586119768668475 0 0 1 1 0 0 forward_v I I I I #
face $-1 $88 $89 $32 $-1 $90 reversed single #
loop $-1 $-1 $91 $42 #
plane-surface $-1 0 21.863747905158693 -0.81586119768668475 0 0 1 1 0 0 forward_v I I I I #
face $-1 $92 $93 $33 $-1 $94 reversed single #
loop $-1 $-1 $95 $43 #
plane-surface $-1 -107.97822491627701 18.821950153808999 62.252326194779471 0 -1 0 0.73135370988377701 0 -0.68199835119979291 forward_v I I I I #
face $-1 $96 $97 $34 $-1 $98 forward single #
loop $-1 $99 $100 $44 #
cone-surface $-1 -41.364900832353861 13.152187124433549 4.0009082602273462 0.73135370988377701 0 -0.68199835119979291 0.34099917559989645 0 0.36567685494188851 1 I I 0 1 0.5 forward I I I I #
face $-1 $101 $102 $35 $-1 $103 forward single #
loop $-1 $104 $105 $45 #
cone-surface $-1 -41.364900832353861 16.55404494205882 4.0009082602273462 0.73135370988377701 0 -0.68199835119979291 0.34099917559989645 0 0.36567685494188851 1 I I 0 1 0.5 forward I I I I #
face $-1 $106 $107 $36 $-1 $108 reversed single #
loop $-1 $-1 $109 $46 #
plane-surface $-1 43.845333632846668 -3.5139571666259037 126.25263718568901 0 1 0 0.70710678939079041 0 0.70710677298230451 forward_v I I I I #
face $-1 $110 $111 $37 $-1 $112 forward single #
loop $-1 $113 $114 $47 #
cone-surface $-1 41.042809082043526 -1.3149958991710591 3.7811389320510562 -0.70710678939079041 0 -0.70710677298230451 0.70710677298230451 0 -0.70710678939079041 1 I I 0 1 1 forward I I I I #
face $-1 $115 $116 $38 $-1 $117 forward single #
loop $-1 $118 $119 $48 #
cone-surface $-1 41.042809082043526 1.9834460020112097 3.7811389320510562 -0.70710678939079041 0 -0.70710677298230451 0.70710677298230451 0 -0.70710678939079041 1 I I 0 1 1 forward I I I I #
face $-1 $120 $121 $39 $-1 $122 forward single #
loop $-1 $123 $124 $49 #
cone-surface $-1 41.042809082043526 5.2818879031934785 3.7811389320510562 -0.70710678939079041 0 -0.70710677298230451 0.70710677298230451 0 -0.70710678939079041 1 I I 0 1 1 forward I I I I #
face $-1 $125 $126 $30 $-1 $127 reversed single #
loop $-1 $-1 $128 $50 #
plane-surface $-1 0 0 -6.5836620797614787 0 0 1 1 0 0 forward_v I I I I #
coedge $-1 $129 $130 $131 $132 forward $51 $-1 #
face $-1 $133 $134 $31 $-1 $135 reversed single #
loop $-1 $-1 $136 $53 #
plane-surface $-1 0 -21.863747905158696 -3.8158611976866847 0 0 1 1 0 0 forward_v I I I I #
coedge $-1 $137 $138 $139 $140 reversed $54 $-1 #
face $-1 $141 $142 $32 $-1 $143 reversed single #
loop $-1 $-1 $144 $56 #
plane-surface $-1 0 21.863747905158693 -3.8158611976866847 0 0 1 1 0 0 forward_v I I I I #
coedge $-1 $145 $146 $147 $148 reversed $57 $-1 #
face $-1 $149 $150 $33 $-1 $151 reversed single #
loop $-1 $-1 $152 $59 #
plane-surface $-1 -43.845332193975636 14.853116033246184 2.4474376665822959 -0.73135370988377701 0 0.68199835119979291 0.68199835119979291 0 0.73135370988377701 forward_v I I I I #
coedge $-1 $153 $154 $155 $156 reversed $60 $-1 #
face $-1 $-1 $157 $34 $-1 $158 forward single #
loop $-1 $159 $160 $62 #
cone-surface $-1 -40.630176828876152 13.152187124433549 3.3157670594828543 0.73135370988377701 0 -0.68199835119979291 0.17049958779994823 0 0.18283842747094425 1 I I -0.70710678118654746 0.70710678118654746 0.25 forward I I I I #
loop $-1 $-1 $161 $44 #
coedge $-1 $100 $100 $162 $163 reversed $63 $-1 #
face $-1 $-1 $164 $35 $-1 $165 forward single #
loop $-1 $166 $167 $65 #
cone-surface $-1 -40.630176828876152 16.55404494205882 3.3157670594828543 0.73135370988377701 0 -0.68199835119979291 0.17049958779994823 0 0.18283842747094425 1 I I -0.70710678118654746 0.70710678118654746 0.25 forward I I I I #
loop $-1 $-1 $168 $45 #
coedge $-1 $105 $105 $169 $170 reversed $66 $-1 #
face $-1 $171 $172 $36 $-1 $173 reversed single #
loop $-1 $-1 $174 $68 #
plane-surface $-1 -18.16133052206289 1.9834460020112097 64.245974469650491 0.70710678939079041 0 0.70710677298230451 0.70710677298230451 0 -0.70710678939079041 forward_v I I I I #
coedge $-1 $175 $176 $177 $178 reversed $69 $-1 #
face $-1 $-1 $179 $37 $-1 $180 forward single #
loop $-1 $181 $182 $71 #
cone-surface $-1 40.058908407520711 -1.3149958991710591 2.7972382803597595 -0.70710678939079041 0 -0.70710677298230451 0.35355338649115226 0 -0.35355339469539521 1 I I -0.70710678118654746 0.70710678118654746 0.5 forward I I I I #
loop $-1 $-1 $183 $47 #
coedge $-1 $114 $114 $184 $185 reversed $72 $-1 #
face $-1 $-1 $186 $38 $-1 $187 forward single #
loop $-1 $188 $189 $74 #
cone-surface $-1 40.058908407520711 1.9834460020112097 2.7972382803597595 -0.70710678939079041 0 -0.70710677298230451 0.35355338649115226 0 -0.35355339469539521 1 I I -0.70710678118654746 0.70710678118654746 0.5 forward I I I I #
loop $-1 $-1 $190 $48 #
coedge $-1 $119 $119 $191 $192 reversed $75 $-1 #
face $-1 $-1 $193 $39 $-1 $194 forward single #
loop $-1 $195 $196 $77 #
cone-surface $-1 40.058908407520711 5.2818879031934785 2.7972382803597595 -0.70710678939079041 0 -0.70710677298230451 0.35355338649115226 0 -0.35355339469539521 1 I I -0.70710678118654746 0.70710678118654746 0.5 forward I I I I #
loop $-1 $-1 $197 $49 #
coedge $-1 $124 $124 $198 $199 reversed $78 $-1 #
face $-1 $200 $201 $30 $-1 $202 reversed single #
loop $-1 $-1 $203 $80 #
plane-surface $-1 0 -24.905545656508391 0 0 1 0 0 0 1 forward_v I I I I #
coedge $-1 $204 $205 $206 $207 forward $81 $-1 #
coedge $-1 $208 $83 $209 $210 forward $51 $-1 #
coedge $-1 $83 $208 $211 $212 forward $51 $-1 #
coedge $-1 $213 $214 $83 $132 reversed $215 $-1 #
edge $-1 $216 -24.905545656508391 $217 24.905545656508391 $131 $218 forward 7 unknown #
face $-1 $219 $220 $31 $-1 $221 reversed single #
loop $-1 $-1 $222 $84 #
plane-surface $-1 0 -18.821950153809002 -2.3158611976866847 0 -1 0 0 0 -1 forward_v I I I I #
coedge $-1 $223 $224 $225 $226 reversed $85 $-1 #
coedge $-1 $227 $87 $228 $229 forward $54 $-1 #
coedge $-1 $87 $227 $230 $231 reversed $54 $-1 #
coedge $-1 $232 $233 $87 $140 forward $234 $-1 #
edge $-1 $235 7.8900762012296539 $236 13.973671703929043 $139 $237 forward 7 unknown #
face $-1 $238 $239 $32 $-1 $240 reversed single #
loop $-1 $-1 $241 $88 #
plane-surface $-1 0 18.821950153808999 -2.3158611976866847 0 1 0 0 0 1 forward_v I I I I #
coedge $-1 $242 $243 $244 $245 reversed $89 $-1 #
coedge $-1 $246 $91 $247 $248 reversed $57 $-1 #
coedge $-1 $91 $246 $249 $250 forward $57 $-1 #
coedge $-1 $251 $252 $91 $148 forward $239 $-1 #
edge $-1 $253 -13.973671703929041 $254 -7.8900762012296521 $147 $255 forward 7 unknown #
face $-1 $256 $257 $33 $-1 $258 reversed single #
loop $-1 $-1 $259 $92 #
plane-surface $-1 -107.97822491627701 10.88428191268337 62.252326194779471 0 1 0 -0.73135370988377701 0 0.68199835119979291 forward_v I I I I #
coedge $-1 $260 $261 $262 $263 reversed $93 $-1 #
coedge $-1 $154 $95 $264 $265 reversed $60 $-1 #
coedge $-1 $95 $153 $260 $266 reversed $60 $-1 #
coedge $-1 $262 $267 $95 $156 forward $257 $-1 #
edge $-1 $268 24.542501017628258 $269 28.678725430807447 $155 $270 forward 7 unknown #
loop $-1 $-1 $162 $96 #
plane-surface $-1 -43.845332193975636 14.853116033246184 2.4474376665822959 -0.73135370988377701 0 0.68199835119979291 0.68199835119979291 0 0.73135370988377701 forward_v I I I I #
loop $-1 $-1 $271 $62 #
coedge $-1 $160 $160 $161 $272 reversed $97 $-1 #
coedge $-1 $161 $161 $160 $272 forward $99 $-1 #
coedge $-1 $162 $162 $100 $163 forward $157 $-1 #
edge $-1 $273 0 $273 6.2831853071796004 $162 $274 forward 7 unknown #
loop $-1 $-1 $169 $101 #
plane-surface $-1 -43.845332193975636 14.853116033246184 2.4474376665822959 -0.73135370988377701 0 0.68199835119979291 0.68199835119979291 0 0.73135370988377701 forward_v I I I I #
loop $-1 $-1 $275 $65 #
coedge $-1 $167 $167 $168 $276 reversed $102 $-1 #
coedge $-1 $168 $168 $167 $276 forward $104 $-1 #
coedge $-1 $169 $169 $105 $170 forward $164 $-1 #
edge $-1 $277 0 $277 6.2831853071796004 $169 $278 forward 7 unknown #
face $-1 $279 $280 $36 $-1 $281 forward single #
loop $-1 $-1 $282 $106 #
plane-surface $-1 43.845333632846668 7.4808491706483231 126.25263718568901 0 -1 0 -0.70710678939079041 0 -0.70710677298230451 forward_v I I I I #
coedge $-1 $283 $284 $285 $286 reversed $107 $-1 #
coedge $-1 $176 $109 $287 $288 reversed $69 $-1 #
coedge $-1 $109 $175 $283 $289 reversed $69 $-1 #
coedge $-1 $285 $290 $109 $178 forward $291 $-1 #
edge $-1 $292 56.542656513083024 $293 60.887008278103579 $177 $294 forward 7 unknown #
loop $-1 $-1 $184 $110 #
plane-surface $-1 -18.16133052206289 1.9834460020112097 64.245974469650491 0.70710678939079041 0 0.70710677298230451 0.70710677298230451 0 -0.70710678939079041 forward_v I I I I #
loop $-1 $-1 $295 $71 #
coedge $-1 $182 $182 $183 $296 reversed $111 $-1 #
coedge $-1 $183 $183 $182 $296 forward $113 $-1 #
coedge $-1 $184 $184 $114 $185 forward $179 $-1 #
edge $-1 $297 0 $297 6.2831853071796004 $184 $298 forward 7 unknown #
loop $-1 $-1 $191 $115 #
plane-surface $-1 -18.16133052206289 1.9834460020112097 64.245974469650491 0.70710678939079041 0 0.70710677298230451 0.70710677298230451 0 -0.70710678939079041 forward_v I I I I #
loop $-1 $-1 $299 $74 #
coedge $-1 $189 $189 $190 $300 reversed $116 $-1 #
coedge $-1 $190 $190 $189 $300 forward $118 $-1 #
coedge $-1 $191 $191 $119 $192 forward $186 $-1 #
edge $-1 $301 0 $301 6.2831853071796004 $191 $302 forward 7 unknown #
loop $-1 $-1 $198 $120 #
plane-surface $-1 -18.16133052206289 1.9834460020112097 64.245974469650491 0.70710678939079041 0 0.70710677298230451 0.70710677298230451 0 -0.70710678939079041 forward_v I I I I #
loop $-1 $-1 $303 $77 #
coedge $-1 $196 $196 $197 $304 reversed $121 $-1 #
coedge $-1 $197 $197 $196 $304 forward $123 $-1 #
coedge $-1 $198 $198 $124 $199 forward $193 $-1 #
edge $-1 $305 0 $305 6.2831853071796004 $198 $306 forward 7 unknown #
face $-1 $307 $308 $30 $-1 $309 reversed single #
loop $-1 $-1 $310 $125 #
plane-surface $-1 -43.845332193975644 0 0 1 0 0 0 0 -1 forward_v I I I I #
coedge $-1 $311 $211 $312 $313 forward $126 $-1 #
coedge $-1 $314 $128 $311 $315 forward $81 $-1 #
coedge $-1 $128 $314 $316 $317 forward $81 $-1 #
coedge $-1 $214 $213 $128 $207 reversed $215 $-1 #
edge $-1 $318 -24.905545656508391 $319 24.905545656508391 $206 $320 forward 7 unknown #
coedge $-1 $130 $129 $321 $322 forward $51 $-1 #
coedge $-1 $323 $324 $129 $210 reversed $308 $-1 #
edge $-1 $217 -43.845332193975644 $325 43.845332193975644 $209 $326 forward 7 unknown #
coedge $-1 $203 $327 $130 $212 reversed $126 $-1 #
edge $-1 $328 -43.845332193975644 $216 43.845332193975644 $211 $329 forward 7 unknown #
coedge $-1 $206 $131 $327 $330 forward $215 $-1 #
coedge $-1 $131 $206 $323 $331 reversed $215 $-1 #
loop $-1 $-1 $213 $307 #
vertex $-1 $132 $332 #
vertex $-1 $132 $333 #
straight-curve $-1 43.845332193975644 0 6.5836620797614787 0 1 0 I I #
face $-1 $334 $335 $31 $-1 $336 reversed single #
loop $-1 $-1 $337 $133 #
plane-surface $-1 -43.845332193975644 0 0 1 0 0 0 0 -1 forward_v I I I I #
coedge $-1 $338 $228 $233 $339 reversed $134 $-1 #
coedge $-1 $340 $136 $341 $342 reversed $85 $-1 #
coedge $-1 $136 $340 $338 $343 forward $85 $-1 #
coedge $-1 $233 $232 $136 $226 forward $234 $-1 #
edge $-1 $344 -13.973671703929043 $345 -7.8900762012296539 $225 $346 forward 7 unknown #
coedge $-1 $138 $137 $337 $347 reversed $54 $-1 #
coedge $-1 $222 $348 $137 $229 reversed $134 $-1 #
edge $-1 $235 -43.845332193975644 $349 43.845332193975644 $228 $350 forward 7 unknown #
coedge $-1 $351 $352 $138 $231 forward $335 $-1 #
edge $-1 $236 -43.845332193975644 $353 43.845332193975644 $230 $354 forward 7 unknown #
coedge $-1 $225 $139 $352 $355 forward $234 $-1 #
coedge $-1 $139 $225 $222 $339 forward $234 $-1 #
loop $-1 $-1 $139 $334 #
vertex $-1 $140 $356 #
vertex $-1 $355 $357 #
straight-curve $-1 43.845332193975644 -10.931873952579348 -0.81586119768668475 0 -1 0 I I #
face $-1 $358 $359 $32 $-1 $360 reversed single #
loop $-1 $-1 $147 $141 #
plane-surface $-1 43.845332193975644 0 0 -1 0 0 0 0 1 forward_v I I I I #
coedge $-1 $361 $249 $362 $363 reversed $142 $-1 #
coedge $-1 $364 $144 $361 $365 forward $89 $-1 #
coedge $-1 $144 $364 $366 $367 reversed $89 $-1 #
coedge $-1 $252 $251 $144 $245 forward $239 $-1 #
edge $-1 $368 7.8900762012296521 $369 13.973671703929041 $244 $370 forward 7 unknown #
coedge $-1 $146 $145 $371 $372 reversed $57 $-1 #
coedge $-1 $373 $374 $145 $248 forward $375 $-1 #
edge $-1 $376 -43.845332193975644 $253 43.845332193975644 $247 $377 forward 7 unknown #
coedge $-1 $241 $378 $146 $250 reversed $142 $-1 #
edge $-1 $379 -43.845332193975644 $254 43.845332193975644 $249 $380 forward 7 unknown #
coedge $-1 $244 $147 $378 $381 forward $239 $-1 #
coedge $-1 $147 $244 $373 $382 reversed $239 $-1 #
vertex $-1 $382 $383 #
vertex $-1 $148 $384 #
straight-curve $-1 43.845332193975644 10.931873952579346 -0.81586119768668475 0 -1 0 I I #
face $-1 $-1 $385 $33 $-1 $386 forward single #
loop $-1 $-1 $155 $149 #
plane-surface $-1 -43.845332193975644 0 0 1 0 0 0 0 -1 forward_v I I I I #
coedge $-1 $387 $388 $389 $390 reversed $150 $-1 #
coedge $-1 $391 $152 $154 $266 forward $93 $-1 #
coedge $-1 $152 $391 $387 $392 forward $93 $-1 #
coedge $-1 $389 $155 $152 $263 forward $257 $-1 #
edge $-1 $269 -11.395392137185906 $393 -3.4577238960602781 $262 $394 forward 7 unknown #
coedge $-1 $395 $396 $153 $265 forward $385 $-1 #
edge $-1 $397 -14.000871835392907 $268 -10.143780264162864 $264 $398 forward 7 unknown #
edge $-1 $269 -1.0367256691888158e-014 $397 5.6555731614959477 $154 $399 forward 7 unknown #
coedge $-1 $155 $389 $395 $400 reversed $257 $-1 #
vertex $-1 $400 $401 #
vertex $-1 $156 $402 #
straight-curve $-1 -43.845332193975644 18.821950153808999 31.126163097389735 0 0 -1 I I #
coedge $-1 $271 $271 $-1 $403 reversed $159 $-1 #
edge $-1 $404 0 $404 6.2831853071796004 $160 $405 forward 7 unknown #
vertex $-1 $163 $406 #
ellipse-curve $-1 -41.916786408360622 13.152187124433549 4.5155498731718842 -0.73135370988377701 0 0.68199835119979291 0.34099917559989645 0 0.36567685494188851 1 I I #
coedge $-1 $275 $275 $-1 $407 reversed $166 $-1 #
edge $-1 $408 0 $408 6.2831853071796004 $167 $409 forward 7 unknown #
vertex $-1 $170 $410 #
ellipse-curve $-1 -41.916786408360622 16.55404494205882 4.5155498731718842 -0.73135370988377701 0 0.68199835119979291 0.34099917559989645 0 0.36567685494188851 1 I I #
face $-1 $-1 $291 $36 $-1 $411 reversed single #
loop $-1 $-1 $412 $171 #
plane-surface $-1 0 0 6.5836620797614787 0 0 1 1 0 0 forward_v I I I I #
coedge $-1 $413 $414 $415 $416 reversed $172 $-1 #
coedge $-1 $417 $174 $176 $289 forward $107 $-1 #
coedge $-1 $174 $417 $413 $418 forward $107 $-1 #
coedge $-1 $415 $177 $174 $286 forward $291 $-1 #
edge $-1 $293 -4.5056801676315086 $419 6.4891261696427183 $285 $420 forward 7 unknown #
coedge $-1 $421 $422 $175 $288 forward $280 $-1 #
edge $-1 $423 17.578313713342883 $292 21.92266537755231 $287 $424 forward 7 unknown #
edge $-1 $293 -87.690664387951315 $423 -81.546823273423982 $176 $425 forward 7 unknown #
coedge $-1 $177 $415 $421 $426 reversed $291 $-1 #
loop $-1 $-1 $415 $279 #
vertex $-1 $426 $427 #
vertex $-1 $178 $428 #
straight-curve $-1 43.845332193975644 -3.5139571666259037 63.126318592844505 0 0 -1 I I #
coedge $-1 $295 $295 $-1 $429 reversed $181 $-1 #
edge $-1 $430 0 $430 6.2831853071796004 $182 $431 forward 7 unknown #
vertex $-1 $185 $432 #
ellipse-curve $-1 41.673156361870937 -1.3149958991710591 4.4114861972511976 0.70710678939079041 0 0.70710677298230451 0.70710677298230451 0 -0.70710678939079041 1 I I #
coedge $-1 $299 $299 $-1 $433 reversed $188 $-1 #
edge $-1 $434 0 $434 6.2831853071796004 $189 $435 forward 7 unknown #
vertex $-1 $192 $436 #
ellipse-curve $-1 41.673156361870937 1.9834460020112097 4.4114861972511976 0.70710678939079041 0 0.70710677298230451 0.70710677298230451 0 -0.70710678939079041 1 I I #
coedge $-1 $303 $303 $-1 $437 reversed $195 $-1 #
edge $-1 $438 0 $438 6.2831853071796004 $196 $439 forward 7 unknown #
vertex $-1 $199 $440 #
ellipse-curve $-1 41.673156361870937 5.2818879031934785 4.4114861972511976 0.70710678939079041 0 0.70710677298230451 0.70710677298230451 0 -0.70710678939079041 1 I I #
face $-1 $-1 $215 $30 $-1 $441 reversed single #
loop $-1 $-1 $323 $200 #
plane-surface $-1 0 24.905545656508391 0 0 -1 0 0 0 -1 forward_v I I I I #
coedge $-1 $442 $321 $324 $443 forward $201 $-1 #
coedge $-1 $327 $203 $204 $315 reversed $126 $-1 #
coedge $-1 $321 $442 $203 $313 reversed $201 $-1 #
edge $-1 $328 -6.5836620797614787 $444 6.5836620797614787 $312 $445 forward 7 unknown #
coedge $-1 $205 $204 $442 $446 forward $81 $-1 #
edge $-1 $319 -43.845332193975644 $444 43.845332193975644 $311 $447 forward 7 unknown #
coedge $-1 $324 $323 $205 $317 reversed $308 $-1 #
edge $-1 $448 -43.845332193975644 $318 43.845332193975644 $316 $449 forward 7 unknown #
vertex $-1 $207 $450 #
vertex $-1 $330 $451 #
straight-curve $-1 43.845332193975644 0 -6.5836620797614787 0 -1 0 I I #
coedge $-1 $310 $312 $208 $322 reversed $201 $-1 #
edge $-1 $325 -24.905545656508391 $328 24.905545656508391 $321 $452 forward 7 unknown #
coedge $-1 $316 $209 $214 $331 forward $308 $-1 #
coedge $-1 $209 $316 $310 $443 reversed $308 $-1 #
vertex $-1 $210 $453 #
straight-curve $-1 0 24.905545656508391 6.5836620797614787 -1 0 0 I I #
coedge $-1 $211 $311 $213 $330 reversed $126 $-1 #
vertex $-1 $322 $454 #
straight-curve $-1 0 -24.905545656508391 6.5836620797614787 1 0 0 I I #
edge $-1 $216 -6.5836620797614787 $319 6.5836620797614787 $213 $455 forward 7 unknown #
edge $-1 $217 -6.5836620797614787 $318 6.5836620797614787 $214 $456 forward 7 unknown #
point $-1 43.845332193975644 -24.905545656508391 6.5836620797614787 #
point $-1 43.845332193975644 24.905545656508391 6.5836620797614787 #
face $-1 $-1 $234 $31 $-1 $457 reversed single #
loop $-1 $-1 $230 $219 #
plane-surface $-1 0 -24.905545656508391 0 0 1 0 0 0 1 forward_v I I I I #
coedge $-1 $458 $459 $227 $347 forward $220 $-1 #
coedge $-1 $348 $222 $224 $343 reversed $134 $-1 #
edge $-1 $345 -2.6579305988433424 $235 0.34206940115665763 $233 $460 forward 7 unknown #
coedge $-1 $224 $223 $461 $462 reversed $85 $-1 #
coedge $-1 $352 $351 $223 $342 forward $335 $-1 #
edge $-1 $463 -43.845332193975644 $344 43.845332193975644 $341 $464 forward 7 unknown #
edge $-1 $465 -43.845332193975644 $345 43.845332193975644 $338 $466 forward 7 unknown #
vertex $-1 $342 $467 #
vertex $-1 $226 $468 #
straight-curve $-1 43.845332193975644 -10.931873952579348 -3.8158611976866847 0 1 0 I I #
edge $-1 $353 -13.973671703929043 $349 -7.8900762012296539 $337 $469 forward 7 unknown #
coedge $-1 $228 $338 $458 $470 reversed $134 $-1 #
vertex $-1 $347 $471 #
straight-curve $-1 0 -18.821950153809002 -0.81586119768668475 -1 0 0 I I #
coedge $-1 $341 $230 $459 $472 forward $335 $-1 #
coedge $-1 $230 $341 $232 $355 reversed $335 $-1 #
vertex $-1 $472 $473 #
straight-curve $-1 0 -24.905545656508391 -0.81586119768668475 -1 0 0 I I #
edge $-1 $236 0.81586119768668475 $344 3.8158611976866847 $232 $474 forward 7 unknown #
point $-1 43.845332193975644 -18.821950153809002 -0.81586119768668475 #
point $-1 43.845332193975644 -24.905545656508391 -0.81586119768668475 #
face $-1 $-1 $375 $32 $-1 $475 reversed single #
loop $-1 $-1 $371 $238 #
plane-surface $-1 -43.845332193975644 0 0 1 0 0 0 0 -1 forward_v I I I I #
coedge $-1 $378 $241 $242 $365 reversed $142 $-1 #
coedge $-1 $371 $476 $241 $363 forward $359 $-1 #
edge $-1 $477 -2.6579305988433424 $379 0.34206940115665763 $362 $478 forward 7 unknown #
coedge $-1 $243 $242 $476 $479 reversed $89 $-1 #
edge $-1 $368 -43.845332193975644 $477 43.845332193975644 $361 $480 forward 7 unknown #
coedge $-1 $374 $373 $243 $367 forward $375 $-1 #
edge $-1 $369 -43.845332193975644 $481 43.845332193975644 $366 $482 forward 7 unknown #
vertex $-1 $245 $483 #
vertex $-1 $367 $484 #
straight-curve $-1 43.845332193975644 10.931873952579346 -3.8158611976866847 0 1 0 I I #
coedge $-1 $485 $362 $246 $372 forward $359 $-1 #
edge $-1 $379 7.8900762012296521 $376 13.973671703929041 $371 $486 forward 7 unknown #
coedge $-1 $366 $247 $252 $382 forward $375 $-1 #
coedge $-1 $247 $366 $485 $487 reversed $375 $-1 #
loop $-1 $-1 $247 $358 #
vertex $-1 $487 $488 #
straight-curve $-1 0 24.905545656508391 -0.81586119768668475 1 0 0 I I #
coedge $-1 $249 $361 $251 $381 reversed $142 $-1 #
vertex $-1 $372 $489 #
straight-curve $-1 0 18.821950153808999 -0.81586119768668475 1 0 0 I I #
edge $-1 $254 -0.34206940115665763 $368 2.6579305988433424 $251 $490 forward 7 unknown #
edge $-1 $253 0.81586119768668475 $369 3.8158611976866847 $252 $491 forward 7 unknown #
point $-1 43.845332193975644 24.905545656508387 -0.81586119768668475 #
point $-1 43.845332193975644 18.821950153808999 -0.81586119768668475 #
loop $-1 $-1 $264 $256 #
plane-surface $-1 0 0 6.5836620797614787 0 0 1 1 0 0 forward_v I I I I #
coedge $-1 $388 $259 $261 $392 reversed $150 $-1 #
coedge $-1 $259 $387 $492 $493 reversed $150 $-1 #
coedge $-1 $267 $262 $259 $390 forward $257 $-1 #
edge $-1 $393 -28.678725430807447 $494 -24.542501017628258 $389 $495 forward 7 unknown #
coedge $-1 $261 $260 $396 $496 reversed $93 $-1 #
edge $-1 $497 -5.6555731614959477 $393 1.0367256691888158e-014 $387 $498 forward 7 unknown #
vertex $-1 $263 $499 #
straight-curve $-1 -43.845332193975644 7.4265580166230922 2.4474376665822857 0 -1 0 I I #
coedge $-1 $492 $264 $267 $400 forward $385 $-1 #
coedge $-1 $264 $492 $391 $496 forward $385 $-1 #
vertex $-1 $265 $500 #
straight-curve $-1 -53.989112458138507 18.821950153808999 6.5836620797614778 -1 0 0 I I #
straight-curve $-1 -43.845332193975636 18.821950153808999 2.4474376665822959 0.68199835119979291 0 0.73135370988377701 I I #
edge $-1 $268 -18.821950153808999 $494 -10.88428191268337 $267 $501 forward 7 unknown #
point $-1 -43.845332193975644 18.821950153808999 6.5836620797614787 #
point $-1 -43.845332193975644 18.821950153808999 2.4474376665822883 #
edge $-1 $502 1 $502 0 $271 $-1 forward 7 unknown #
vertex $-1 $272 $503 #
ellipse-curve $-1 -40.8130152563471 13.152187124433549 3.4862666472828026 -0.73135370988377701 0 0.68199835119979291 0.34099917559989645 0 0.36567685494188851 1 I I #
point $-1 -41.575787232760732 13.152187124433549 4.8812267281137789 #
edge $-1 $504 1 $504 0 $275 $-1 forward 7 unknown #
vertex $-1 $276 $505 #
ellipse-curve $-1 -40.8130152563471 16.55404494205882 3.4862666472828026 -0.73135370988377701 0 0.68199835119979291 0.34099917559989645 0 0.36567685494188851 1 I I #
point $-1 -41.575787232760732 16.55404494205882 4.8812267281137789 #
plane-surface $-1 43.845332193975644 0 0 -1 0 0 0 0 1 forward_v I I I I #
coedge $-1 $422 $421 $414 $506 forward $280 $-1 #
coedge $-1 $414 $282 $284 $418 reversed $172 $-1 #
coedge $-1 $282 $413 $412 $506 reversed $172 $-1 #
coedge $-1 $290 $285 $282 $416 forward $291 $-1 #
edge $-1 $419 -60.887008278103579 $507 -56.542656513083024 $415 $508 forward 7 unknown #
coedge $-1 $284 $283 $422 $509 reversed $107 $-1 #
edge $-1 $510 81.546823273423982 $419 87.690664387951315 $413 $511 forward 7 unknown #
vertex $-1 $286 $512 #
straight-curve $-1 43.845332193975636 0.99172300100560484 2.2393103147409299 0 1 0 I I #
coedge $-1 $412 $287 $290 $426 forward $280 $-1 #
coedge $-1 $287 $412 $417 $509 forward $280 $-1 #
vertex $-1 $288 $513 #
straight-curve $-1 21.922666816423334 -3.5139571666259037 6.5836620797614813 1 0 0 I I #
straight-curve $-1 -18.16133052206289 -3.5139571666259037 64.245974469650491 -0.70710677298230451 0 0.70710678939079041 I I #
edge $-1 $292 -3.5139571666259037 $507 7.4808491706483231 $290 $514 forward 7 unknown #
point $-1 43.845332193975644 -3.5139571666259037 6.5836620797614787 #
point $-1 43.845332193975644 -3.5139571666259037 2.2393103147409263 #
edge $-1 $515 1 $515 0 $295 $-1 forward 7 unknown #
vertex $-1 $296 $516 #
ellipse-curve $-1 40.412461802216107 -1.3149958991710591 3.1507916668509117 0.70710678939079041 0 0.70710677298230451 0.70710677298230451 0 -0.70710678939079041 1 I I #
point $-1 42.380263134853244 -1.3149958991710591 3.7043794078604093 #
edge $-1 $517 1 $517 0 $299 $-1 forward 7 unknown #
vertex $-1 $300 $518 #
ellipse-curve $-1 40.412461802216107 1.9834460020112097 3.1507916668509117 0.70710678939079041 0 0.70710677298230451 0.70710677298230451 0 -0.70710678939079041 1 I I #
point $-1 42.380263134853244 1.9834460020112097 3.7043794078604093 #
edge $-1 $519 1 $519 0 $303 $-1 forward 7 unknown #
vertex $-1 $304 $520 #
ellipse-curve $-1 40.412461802216107 5.2818879031934785 3.1507916668509117 0.70710678939079041 0 0.70710677298230451 0.70710677298230451 0 -0.70710678939079041 1 I I #
point $-1 42.380263134853244 5.2818879031934785 3.7043794078604093 #
plane-surface $-1 43.845332193975644 0 0 -1 0 0 0 0 1 forward_v I I I I #
coedge $-1 $312 $310 $314 $446 reversed $201 $-1 #
edge $-1 $325 -6.5836620797614787 $448 6.5836620797614787 $324 $521 forward 7 unknown #
vertex $-1 $446 $522 #
straight-curve $-1 -43.845332193975644 -24.905545656508391 0 0 0 -1 I I #
edge $-1 $444 -24.905545656508391 $448 24.905545656508391 $442 $523 forward 7 unknown #
straight-curve $-1 0 -24.905545656508391 -6.5836620797614787 -1 0 0 I I #
vertex $-1 $317 $524 #
straight-curve $-1 0 24.905545656508391 -6.5836620797614787 1 0 0 I I #
point $-1 43.845332193975644 24.905545656508391 -6.5836620797614787 #
point $-1 43.845332193975644 -24.905545656508391 -6.5836620797614787 #
straight-curve $-1 -43.845332193975644 0 6.5836620797614787 0 -1 0 I I #
point $-1 -43.845332193975644 24.905545656508391 6.5836620797614787 #
point $-1 -43.845332193975644 -24.905545656508391 6.5836620797614787 #
straight-curve $-1 43.845332193975644 -24.905545656508391 0 0 0 -1 I I #
straight-curve $-1 43.845332193975644 24.905545656508391 0 0 0 -1 I I #
plane-surface $-1 43.845332193975644 0 0 -1 0 0 0 0 1 forward_v I I I I #
coedge $-1 $461 $337 $348 $470 forward $220 $-1 #
coedge $-1 $337 $461 $351 $472 reversed $220 $-1 #
straight-curve $-1 43.845332193975644 -18.821950153809002 -1.1579305988433424 0 0 1 I I #
coedge $-1 $459 $458 $340 $462 forward $220 $-1 #
edge $-1 $465 7.8900762012296539 $463 13.973671703929043 $461 $525 forward 7 unknown #
vertex $-1 $342 $526 #
straight-curve $-1 0 -24.905545656508391 -3.8158611976866847 1 0 0 I I #
vertex $-1 $462 $527 #
straight-curve $-1 0 -18.821950153809002 -3.8158611976866847 1 0 0 I I #
point $-1 43.845332193975644 -24.905545656508391 -3.8158611976866847 #
point $-1 43.845332193975644 -18.821950153809002 -3.8158611976866847 #
straight-curve $-1 -43.845332193975644 -10.931873952579348 -0.81586119768668475 0 1 0 I I #
edge $-1 $349 -0.34206940115665763 $465 2.6579305988433424 $458 $528 forward 7 unknown #
point $-1 -43.845332193975644 -18.821950153809002 -0.81586119768668475 #
edge $-1 $353 0.81586119768668475 $463 3.8158611976866847 $459 $529 forward 7 unknown #
point $-1 -43.845332193975644 -24.905545656508391 -0.81586119768668475 #
straight-curve $-1 43.845332193975644 -24.905545656508391 0 0 0 -1 I I #
plane-surface $-1 0 24.905545656508391 0 0 -1 0 0 0 -1 forward_v I I I I #
coedge $-1 $362 $485 $364 $479 forward $359 $-1 #
vertex $-1 $479 $530 #
straight-curve $-1 -43.845332193975644 18.821950153808999 -1.1579305988433424 0 0 1 I I #
edge $-1 $481 -13.973671703929041 $477 -7.8900762012296521 $476 $531 forward 7 unknown #
straight-curve $-1 0 18.821950153808999 -3.8158611976866847 -1 0 0 I I #
vertex $-1 $367 $532 #
straight-curve $-1 0 24.905545656508391 -3.8158611976866847 -1 0 0 I I #
point $-1 43.845332193975644 18.821950153808999 -3.8158611976866847 #
point $-1 43.845332193975644 24.905545656508387 -3.8158611976866847 #
coedge $-1 $476 $371 $374 $487 forward $359 $-1 #
straight-curve $-1 -43.845332193975644 10.931873952579346 -0.81586119768668475 0 1 0 I I #
edge $-1 $376 0.81586119768668475 $481 3.8158611976866847 $374 $533 forward 7 unknown #
point $-1 -43.845332193975644 24.905545656508387 -0.81586119768668475 #
point $-1 -43.845332193975644 18.821950153808999 -0.81586119768668475 #
straight-curve $-1 43.845332193975644 18.821950153808999 -1.1579305988433424 0 0 -1 I I #
straight-curve $-1 43.845332193975644 24.905545656508391 0 0 0 -1 I I #
coedge $-1 $396 $395 $388 $493 forward $385 $-1 #
edge $-1 $494 10.143780264162864 $497 14.000871835392907 $492 $534 forward 7 unknown #
vertex $-1 $493 $535 #
straight-curve $-1 -43.845332193975644 10.88428191268337 31.126163097389735 0 0 1 I I #
edge $-1 $497 3.4577238960602781 $397 11.395392137185906 $396 $536 forward 7 unknown #
vertex $-1 $496 $537 #
straight-curve $-1 -43.845332193975636 10.88428191268337 2.4474376665822959 -0.68199835119979291 0 -0.73135370988377701 I I #
point $-1 -43.845332193975644 10.88428191268337 2.4474376665822883 #
point $-1 -39.9882406227456 18.821950153808999 6.5836620797614787 #
straight-curve $-1 -43.845332193975644 0 6.5836620797614787 0 -1 0 I I #
vertex $-1 $403 $538 #
point $-1 -40.472016080747203 13.152187124433549 3.8519435022246911 #
vertex $-1 $407 $539 #
point $-1 -40.472016080747203 16.55404494205882 3.8519435022246911 #
edge $-1 $507 -21.92266537755231 $510 -17.578313713342883 $412 $540 forward 7 unknown #
vertex $-1 $416 $541 #
straight-curve $-1 43.845332193975644 7.4808491706483231 63.126318592844505 0 0 1 I I #
edge $-1 $510 -6.4891261696427183 $423 4.5056801676315086 $422 $542 forward 7 unknown #
vertex $-1 $509 $543 #
straight-curve $-1 -18.16133052206289 7.4808491706483231 64.245974469650491 0.70710677298230451 0 -0.70710678939079041 I I #
point $-1 43.845332193975644 7.4808491706483231 2.2393103147409263 #
point $-1 39.500980529766217 -3.5139571666259037 6.5836620797614813 #
straight-curve $-1 43.845332193975644 0 6.5836620797614787 0 1 0 I I #
vertex $-1 $429 $544 #
point $-1 41.119568575198414 -1.3149958991710591 2.4436848774601212 #
vertex $-1 $433 $545 #
point $-1 41.119568575198414 1.9834460020112097 2.4436848774601212 #
vertex $-1 $437 $546 #
point $-1 41.119568575198414 5.2818879031934785 2.4436848774601212 #
straight-curve $-1 -43.845332193975644 24.905545656508391 0 0 0 -1 I I #
point $-1 -43.845332193975644 -24.905545656508391 -6.5836620797614787 #
straight-curve $-1 -43.845332193975644 0 -6.5836620797614787 0 1 0 I I #
point $-1 -43.845332193975644 24.905545656508391 -6.5836620797614787 #
straight-curve $-1 -43.845332193975644 -10.931873952579348 -3.8158611976866847 0 -1 0 I I #
point $-1 -43.845332193975644 -24.905545656508391 -3.8158611976866847 #
point $-1 -43.845332193975644 -18.821950153809002 -3.8158611976866847 #
straight-curve $-1 -43.845332193975644 -18.821950153809002 -1.1579305988433424 0 0 -1 I I #
straight-curve $-1 -43.845332193975644 -24.905545656508391 0 0 0 -1 I I #
point $-1 -43.845332193975644 18.821950153808999 -3.8158611976866847 #
straight-curve $-1 -43.845332193975644 10.931873952579346 -3.8158611976866847 0 -1 0 I I #
point $-1 -43.845332193975644 24.905545656508387 -3.8158611976866847 #
straight-curve $-1 -43.845332193975644 24.905545656508391 0 0 0 -1 I I #
straight-curve $-1 -53.989112458138507 10.88428191268337 6.5836620797614778 1 0 0 I I #
point $-1 -43.845332193975644 10.88428191268337 6.5836620797614787 #
straight-curve $-1 -39.988240622745607 7.4265580166230922 6.5836620797614778 0 1 0 I I #
point $-1 -39.9882406227456 10.88428191268337 6.5836620797614787 #
point $-1 -40.447338401405204 13.152187124433549 3.1452674716829061 #
point $-1 -40.447338401405204 16.55404494205882 3.1452674716829061 #
straight-curve $-1 21.922666816423334 7.4808491706483231 6.5836620797614813 -1 0 0 I I #
point $-1 43.845332193975644 7.4808491706483231 6.5836620797614787 #
straight-curve $-1 39.500980529766217 0.99172300100560484 6.5836620797614813 0 -1 0 I I #
point $-1 39.500980529766217 7.4808491706483231 6.5836620797614813 #
point $-1 39.705355012825315 -1.3149958991710591 2.4436848938686073 #
point $-1 39.705355012825315 1.9834460020112097 2.4436848938686073 #
point $-1 39.705355012825315 5.2818879031934785 2.4436848938686073 #
End-of-ACIS-data 