500 0 10 0           
7 Unknown 11 ACIS 5.0 NT 24 Fri Mar 26 01:18:36 1999 
-1 9.9999999999999995e-007 1e-010 
body $-1 $10 $-1 $11 #
body $-1 $12 $-1 $13 #
body $-1 $14 $-1 $15 #
body $-1 $16 $-1 $17 #
body $-1 $18 $-1 $19 #
body $-1 $20 $-1 $21 #
body $-1 $22 $-1 $23 #
body $-1 $24 $-1 $25 #
body $-1 $26 $-1 $27 #
body $-1 $28 $-1 $29 #
lump $-1 $-1 $30 $0 #
transform $-1 1 0 0 0 1 0 0 0 1 66.805017242957859 42.41783214046557 10.677404744949923 1 rotate no_reflect no_shear #
lump $-1 $-1 $31 $1 #
transform $-1 1 0 0 0 1 0 0 0 1 66.805017242957859 42.41783214046557 10.677404744949923 1 rotate no_reflect no_shear #
lump $-1 $-1 $32 $2 #
transform $-1 1 0 0 0 1 0 0 0 1 66.805017242957859 42.41783214046557 10.677404744949923 1 rotate no_reflect no_shear #
lump $-1 $-1 $33 $3 #
transform $-1 1 0 0 0 1 0 0 0 1 66.805017242957859 42.41783214046557 10.677404744949923 1 rotate no_reflect no_shear #
lump $-1 $-1 $34 $4 #
transform $-1 1 0 0 0 1 0 0 0 1 66.805017242957859 42.41783214046557 10.677404744949923 1 rotate no_reflect no_shear #
lump $-1 $-1 $35 $5 #
transform $-1 1 0 0 0 1 0 0 0 1 66.805017242957859 42.41783214046557 10.677404744949923 1 rotate no_reflect no_shear #
lump $-1 $-1 $36 $6 #
transform $-1 1 0 0 0 1 0 0 0 1 66.805017242957859 42.41783214046557 10.677404744949923 1 rotate no_reflect no_shear #
lump $-1 $-1 $37 $7 #
transform $-1 1 0 0 0 1 0 0 0 1 66.805017242957859 42.41783214046557 10.677404744949923 1 rotate no_reflect no_shear #
lump $-1 $-1 $38 $8 #
transform $-1 1 0 0 0 1 0 0 0 1 66.805017242957859 42.41783214046557 10.677404744949923 1 rotate no_reflect no_shear #
lump $-1 $-1 $39 $9 #
transform $-1 1 0 0 0 1 0 0 0 1 66.805017242957859 42.41783214046557 10.677404744949923 1 rotate no_reflect no_shear #
shell $-1 $-1 $-1 $40 $-1 $10 #
shell $-1 $-1 $-1 $41 $-1 $12 #
shell $-1 $-1 $-1 $42 $-1 $14 #
shell $-1 $-1 $-1 $43 $-1 $16 #
shell $-1 $-1 $-1 $44 $-1 $18 #
shell $-1 $-1 $-1 $45 $-1 $20 #
shell $-1 $-1 $-1 $46 $-1 $22 #
shell $-1 $-1 $-1 $47 $-1 $24 #
shell $-1 $-1 $-1 $48 $-1 $26 #
shell $-1 $-1 $-1 $49 $-1 $28 #
face $-1 $50 $51 $30 $-1 $52 forward single #
face $-1 $53 $54 $31 $-1 $55 forward single #
face $-1 $56 $57 $32 $-1 $58 forward single #
face $-1 $59 $60 $33 $-1 $61 reversed single #
face $-1 $62 $63 $34 $-1 $64 forward single #
face $-1 $65 $66 $35 $-1 $67 forward single #
face $-1 $68 $69 $36 $-1 $70 reversed single #
face $-1 $71 $72 $37 $-1 $73 forward single #
face $-1 $74 $75 $38 $-1 $76 forward single #
face $-1 $77 $78 $39 $-1 $79 forward single #
face $-1 $80 $81 $30 $-1 $82 reversed single #
loop $-1 $-1 $83 $40 #
plane-surface $-1 0 0 10.677404744949923 0 0 1 1 0 0 forward_v I I I I #
face $-1 $84 $85 $31 $-1 $86 forward single #
loop $-1 $-1 $87 $41 #
plane-surface $-1 0 -42.41783214046557 0 0 1 0 0 0 1 forward_v I I I I #
face $-1 $88 $89 $32 $-1 $90 reversed single #
loop $-1 $-1 $91 $42 #
plane-surface $-1 0 42.41783214046557 0 0 -1 0 0 0 -1 forward_v I I I I #
face $-1 $92 $93 $33 $-1 $94 reversed single #
loop $-1 $-1 $95 $43 #
plane-surface $-1 -173.51073638085435 1.8138103968604078 83.136513779890095 0 1 0 -0.79863551827123203 0 0.60181501223851219 forward_v I I I I #
face $-1 $96 $97 $34 $-1 $98 forward single #
loop $-1 $99 $100 $44 #
cone-surface $-1 -62.806715545674656 7.3548670208052158 5.9467732945235579 0.79863551827123203 0 -0.60181501223851219 0.90272251835776829 0 1.197953277406848 1 I I 0 1 1.5 forward I I I I #
face $-1 $101 $102 $35 $-1 $103 forward single #
loop $-1 $104 $105 $45 #
cone-surface $-1 -62.806715545674656 15.666451956722419 5.9467732945235579 0.79863551827123203 0 -0.60181501223851219 0.90272251835776829 0 1.197953277406848 1 I I 0 1 1.5 forward I I I I #
face $-1 $106 $107 $36 $-1 $108 reversed single #
loop $-1 $-1 $109 $46 #
plane-surface $-1 66.805019435296202 21.916467773179907 194.97517724613522 0 -1 0 -0.70710678939079041 0 -0.70710677298230451 forward_v I I I I #
face $-1 $110 $111 $37 $-1 $112 forward single #
loop $-1 $113 $114 $47 #
cone-surface $-1 64.068733153108965 15.372512188402375 7.9411206105689081 -0.70710678939079041 0 -0.70710677298230451 0.35355338649115226 0 -0.35355339469539521 1 I I 0 1 0.5 forward I I I I #
face $-1 $115 $116 $38 $-1 $117 forward single #
loop $-1 $118 $119 $48 #
cone-surface $-1 64.068733153108965 17.826495532693947 7.9411206105689081 -0.70710678939079041 0 -0.70710677298230451 0.35355338649115226 0 -0.35355339469539521 1 I I 0 1 0.5 forward I I I I #
face $-1 $120 $121 $39 $-1 $122 forward single #
loop $-1 $123 $124 $49 #
cone-surface $-1 64.068733153108965 20.280478876985519 7.9411206105689081 -0.70710678939079041 0 -0.70710677298230451 0.35355338649115226 0 -0.35355339469539521 1 I I 0 1 0.5 forward I I I I #
face $-1 $125 $126 $30 $-1 $127 reversed single #
loop $-1 $-1 $128 $50 #
plane-surface $-1 0 0 -10.677404744949923 0 0 1 1 0 0 forward_v I I I I #
coedge $-1 $129 $130 $131 $132 forward $51 $-1 #
face $-1 $133 $134 $31 $-1 $135 reversed single #
loop $-1 $-1 $136 $53 #
plane-surface $-1 0 0 10.677404744949923 0 0 1 1 0 0 forward_v I I I I #
coedge $-1 $137 $138 $139 $140 forward $54 $-1 #
face $-1 $141 $142 $32 $-1 $143 forward single #
loop $-1 $-1 $144 $56 #
plane-surface $-1 66.805017242957859 0 0 -1 0 0 0 0 1 forward_v I I I I #
coedge $-1 $145 $146 $147 $148 forward $57 $-1 #
face $-1 $149 $150 $33 $-1 $151 reversed single #
loop $-1 $-1 $152 $59 #
plane-surface $-1 -66.805017242957874 11.510659488763814 2.7279892405606887 -0.79863551827123203 0 0.60181501223851219 0.60181501223851219 0 0.79863551827123203 forward_v I I I I #
coedge $-1 $153 $154 $155 $156 reversed $60 $-1 #
face $-1 $-1 $157 $34 $-1 $158 forward single #
loop $-1 $159 $160 $62 #
cone-surface $-1 -61.204594249171379 7.3548670208052158 4.7394883371129275 0.79863551827123203 0 -0.60181501223851219 0.45136125917888414 0 0.59897663870342399 1 I I -0.70710678118654757 0.70710678118654757 0.75 forward I I I I #
loop $-1 $-1 $161 $44 #
coedge $-1 $100 $100 $162 $163 reversed $63 $-1 #
face $-1 $-1 $164 $35 $-1 $165 forward single #
loop $-1 $166 $167 $65 #
cone-surface $-1 -61.204594249171379 15.666451956722419 4.7394883371129275 0.79863551827123203 0 -0.60181501223851219 0.45136125917888414 0 0.59897663870342399 1 I I -0.70710678118654757 0.70710678118654757 0.75 forward I I I I #
loop $-1 $-1 $168 $45 #
coedge $-1 $105 $105 $169 $170 reversed $66 $-1 #
face $-1 $171 $172 $36 $-1 $173 reversed single #
loop $-1 $-1 $174 $68 #
plane-surface $-1 -27.671543080432443 17.826495532693947 100.49861692274493 0.70710678939079041 0 0.70710677298230451 0.70710677298230451 0 -0.70710678939079041 forward_v I I I I #
coedge $-1 $175 $176 $177 $178 reversed $69 $-1 #
face $-1 $-1 $179 $37 $-1 $180 forward single #
loop $-1 $181 $182 $71 #
cone-surface $-1 63.483347480865262 15.372512188402375 7.3557349519091435 -0.70710678939079041 0 -0.70710677298230451 0.17677669324557613 0 -0.1767766973476976 1 I I -0.70710678118654746 0.70710678118654746 0.25 forward I I I I #
loop $-1 $-1 $183 $47 #
coedge $-1 $114 $114 $184 $185 reversed $72 $-1 #
face $-1 $-1 $186 $38 $-1 $187 forward single #
loop $-1 $188 $189 $74 #
cone-surface $-1 63.483347480865262 17.826495532693947 7.3557349519091435 -0.70710678939079041 0 -0.70710677298230451 0.17677669324557613 0 -0.1767766973476976 1 I I -0.70710678118654746 0.70710678118654746 0.25 forward I I I I #
loop $-1 $-1 $190 $48 #
coedge $-1 $119 $119 $191 $192 reversed $75 $-1 #
face $-1 $-1 $193 $39 $-1 $194 forward single #
loop $-1 $195 $196 $77 #
cone-surface $-1 63.483347480865262 20.280478876985519 7.3557349519091435 -0.70710678939079041 0 -0.70710677298230451 0.17677669324557613 0 -0.1767766973476976 1 I I -0.70710678118654746 0.70710678118654746 0.25 forward I I I I #
loop $-1 $-1 $197 $49 #
coedge $-1 $124 $124 $198 $199 reversed $78 $-1 #
face $-1 $200 $201 $30 $-1 $202 reversed single #
loop $-1 $-1 $203 $80 #
plane-surface $-1 0 -42.41783214046557 0 0 1 0 0 0 1 forward_v I I I I #
coedge $-1 $204 $205 $206 $207 forward $81 $-1 #
coedge $-1 $208 $83 $209 $210 forward $51 $-1 #
coedge $-1 $83 $208 $211 $212 forward $51 $-1 #
coedge $-1 $213 $214 $83 $132 reversed $215 $-1 #
edge $-1 $216 -42.41783214046557 $217 42.41783214046557 $131 $218 forward 7 unknown #
face $-1 $219 $220 $31 $-1 $221 reversed single #
loop $-1 $-1 $222 $84 #
plane-surface $-1 -66.805017242957859 0 0 1 0 0 0 0 -1 forward_v I I I I #
coedge $-1 $223 $224 $225 $226 forward $85 $-1 #
coedge $-1 $225 $87 $222 $227 reversed $54 $-1 #
coedge $-1 $87 $225 $228 $229 reversed $54 $-1 #
coedge $-1 $230 $231 $87 $140 reversed $220 $-1 #
edge $-1 $232 -66.805017242957859 $233 66.805017242957859 $139 $234 forward 7 unknown #
face $-1 $235 $236 $32 $-1 $237 reversed single #
loop $-1 $-1 $238 $88 #
plane-surface $-1 0 48.594329693929218 -4.4433917090615491 0 0 1 1 0 0 forward_v I I I I #
coedge $-1 $239 $240 $146 $241 forward $89 $-1 #
coedge $-1 $242 $91 $243 $244 reversed $57 $-1 #
coedge $-1 $91 $242 $144 $241 reversed $57 $-1 #
coedge $-1 $238 $245 $91 $148 reversed $142 $-1 #
edge $-1 $246 -66.805017242957859 $247 66.805017242957859 $147 $248 forward 7 unknown #
face $-1 $249 $250 $33 $-1 $251 reversed single #
loop $-1 $-1 $252 $92 #
plane-surface $-1 -173.51073638085435 21.20750858066722 83.136513779890095 0 -1 0 0.79863551827123203 0 -0.60181501223851219 forward_v I I I I #
coedge $-1 $253 $254 $255 $256 reversed $93 $-1 #
coedge $-1 $154 $95 $257 $258 reversed $60 $-1 #
coedge $-1 $95 $153 $253 $259 reversed $60 $-1 #
coedge $-1 $255 $260 $95 $156 forward $261 $-1 #
edge $-1 $262 19.950350947469317 $263 25.940665026436001 $155 $264 forward 7 unknown #
loop $-1 $-1 $162 $96 #
plane-surface $-1 -66.805017242957874 11.510659488763814 2.7279892405606887 -0.79863551827123203 0 0.60181501223851219 0.60181501223851219 0 0.79863551827123203 forward_v I I I I #
loop $-1 $-1 $265 $62 #
coedge $-1 $160 $160 $161 $266 reversed $97 $-1 #
coedge $-1 $161 $161 $160 $266 forward $99 $-1 #
coedge $-1 $162 $162 $100 $163 forward $157 $-1 #
edge $-1 $267 0 $267 6.2831853071796004 $162 $268 forward 7 unknown #
loop $-1 $-1 $169 $101 #
plane-surface $-1 -66.805017242957874 11.510659488763814 2.7279892405606887 -0.79863551827123203 0 0.60181501223851219 0.60181501223851219 0 0.79863551827123203 forward_v I I I I #
loop $-1 $-1 $269 $65 #
coedge $-1 $167 $167 $168 $270 reversed $102 $-1 #
coedge $-1 $168 $168 $167 $270 forward $104 $-1 #
coedge $-1 $169 $169 $105 $170 forward $164 $-1 #
edge $-1 $271 0 $271 6.2831853071796004 $169 $272 forward 7 unknown #
face $-1 $273 $274 $36 $-1 $275 forward single #
loop $-1 $-1 $276 $106 #
plane-surface $-1 66.805019435296202 13.736523292207988 194.97517724613522 0 1 0 0.70710678939079041 0 0.70710677298230451 forward_v I I I I #
coedge $-1 $277 $278 $279 $280 reversed $107 $-1 #
coedge $-1 $176 $109 $281 $282 reversed $69 $-1 #
coedge $-1 $109 $175 $277 $283 reversed $69 $-1 #
coedge $-1 $279 $284 $109 $178 forward $274 $-1 #
edge $-1 $285 -33.402507525309758 $286 -28.74715729540398 $177 $287 forward 7 unknown #
loop $-1 $-1 $184 $110 #
plane-surface $-1 -27.671543080432443 17.826495532693947 100.49861692274493 0.70710678939079041 0 0.70710677298230451 0.70710677298230451 0 -0.70710678939079041 forward_v I I I I #
loop $-1 $-1 $288 $71 #
coedge $-1 $182 $182 $183 $289 reversed $111 $-1 #
coedge $-1 $183 $183 $182 $289 forward $113 $-1 #
coedge $-1 $184 $184 $114 $185 forward $179 $-1 #
edge $-1 $290 0 $290 6.2831853071796004 $184 $291 forward 7 unknown #
loop $-1 $-1 $191 $115 #
plane-surface $-1 -27.671543080432443 17.826495532693947 100.49861692274493 0.70710678939079041 0 0.70710677298230451 0.70710677298230451 0 -0.70710678939079041 forward_v I I I I #
loop $-1 $-1 $292 $74 #
coedge $-1 $189 $189 $190 $293 reversed $116 $-1 #
coedge $-1 $190 $190 $189 $293 forward $118 $-1 #
coedge $-1 $191 $191 $119 $192 forward $186 $-1 #
edge $-1 $294 0 $294 6.2831853071796004 $191 $295 forward 7 unknown #
loop $-1 $-1 $198 $120 #
plane-surface $-1 -27.671543080432443 17.826495532693947 100.49861692274493 0.70710678939079041 0 0.70710677298230451 0.70710677298230451 0 -0.70710678939079041 forward_v I I I I #
loop $-1 $-1 $296 $77 #
coedge $-1 $196 $196 $197 $297 reversed $121 $-1 #
coedge $-1 $197 $197 $196 $297 forward $123 $-1 #
coedge $-1 $198 $198 $124 $199 forward $193 $-1 #
edge $-1 $298 0 $298 6.2831853071796004 $198 $299 forward 7 unknown #
face $-1 $300 $301 $30 $-1 $302 reversed single #
loop $-1 $-1 $303 $125 #
plane-surface $-1 -66.805017242957859 0 0 1 0 0 0 0 -1 forward_v I I I I #
coedge $-1 $304 $211 $305 $306 forward $126 $-1 #
coedge $-1 $307 $128 $304 $308 forward $81 $-1 #
coedge $-1 $128 $307 $309 $310 forward $81 $-1 #
coedge $-1 $214 $213 $128 $207 reversed $215 $-1 #
edge $-1 $311 -42.41783214046557 $312 42.41783214046557 $206 $313 forward 7 unknown #
coedge $-1 $130 $129 $314 $315 forward $51 $-1 #
coedge $-1 $316 $317 $129 $210 reversed $301 $-1 #
edge $-1 $217 -66.805017242957859 $318 66.805017242957859 $209 $319 forward 7 unknown #
coedge $-1 $203 $320 $130 $212 reversed $126 $-1 #
edge $-1 $321 -66.805017242957859 $216 66.805017242957859 $211 $322 forward 7 unknown #
coedge $-1 $206 $131 $320 $323 forward $215 $-1 #
coedge $-1 $131 $206 $316 $324 reversed $215 $-1 #
loop $-1 $-1 $213 $300 #
vertex $-1 $132 $325 #
vertex $-1 $132 $326 #
straight-curve $-1 66.805017242957859 0 10.677404744949923 0 1 0 I I #
face $-1 $327 $328 $31 $-1 $329 reversed single #
loop $-1 $-1 $230 $133 #
plane-surface $-1 0 -46.234081342646547 6.3667532843632184 0 0 1 1 0 0 forward_v I I I I #
coedge $-1 $330 $331 $137 $227 forward $134 $-1 #
coedge $-1 $332 $136 $331 $333 forward $85 $-1 #
coedge $-1 $136 $332 $334 $335 forward $85 $-1 #
coedge $-1 $138 $137 $136 $226 reversed $54 $-1 #
edge $-1 $336 -66.805017242957859 $337 66.805017242957859 $136 $338 forward 7 unknown #
edge $-1 $337 -10.677404744949923 $233 -6.3667532843632184 $222 $339 forward 7 unknown #
coedge $-1 $334 $340 $138 $229 forward $341 $-1 #
edge $-1 $232 6.3667532843632184 $336 10.677404744949923 $228 $342 forward 7 unknown #
coedge $-1 $343 $139 $340 $344 forward $220 $-1 #
coedge $-1 $139 $343 $330 $345 forward $220 $-1 #
vertex $-1 $229 $346 #
vertex $-1 $227 $347 #
straight-curve $-1 0 -42.41783214046557 6.3667532843632184 -1 0 0 I I #
face $-1 $348 $349 $32 $-1 $350 reversed single #
loop $-1 $-1 $351 $141 #
plane-surface $-1 0 48.594329693929218 -9.4316984602637479 0 0 1 1 0 0 forward_v I I I I #
coedge $-1 $352 $147 $240 $353 forward $142 $-1 #
coedge $-1 $354 $144 $351 $355 reversed $89 $-1 #
coedge $-1 $144 $354 $238 $353 reversed $89 $-1 #
edge $-1 $246 4.4433917090615491 $356 9.4316984602637479 $144 $357 forward 7 unknown #
coedge $-1 $146 $145 $358 $359 forward $57 $-1 #
coedge $-1 $360 $361 $145 $244 forward $362 $-1 #
edge $-1 $363 -9.4316984602637479 $247 -4.4433917090615491 $243 $364 forward 7 unknown #
coedge $-1 $147 $352 $360 $365 forward $142 $-1 #
vertex $-1 $241 $366 #
vertex $-1 $365 $367 #
straight-curve $-1 0 42.41783214046557 -4.4433917090615491 -1 0 0 I I #
face $-1 $-1 $261 $33 $-1 $368 forward single #
loop $-1 $-1 $369 $149 #
plane-surface $-1 -66.805017242957859 0 0 1 0 0 0 0 -1 forward_v I I I I #
coedge $-1 $370 $371 $372 $373 reversed $150 $-1 #
coedge $-1 $374 $152 $154 $259 forward $93 $-1 #
coedge $-1 $152 $374 $370 $375 forward $93 $-1 #
coedge $-1 $372 $155 $152 $256 forward $261 $-1 #
edge $-1 $263 -3.9415193475214991 $376 15.452178836285313 $255 $377 forward 7 unknown #
coedge $-1 $378 $379 $153 $258 forward $250 $-1 #
edge $-1 $380 -38.840267649384337 $262 -30.890852144995122 $257 $381 forward 7 unknown #
edge $-1 $263 -9.953746512047136 $380 -2.3448253187574213e-014 $154 $382 forward 7 unknown #
coedge $-1 $155 $372 $378 $383 forward $261 $-1 #
loop $-1 $-1 $372 $249 #
vertex $-1 $258 $384 #
vertex $-1 $156 $385 #
straight-curve $-1 -86.755368190427177 1.8138103968604078 10.677404744949925 1 0 0 I I #
coedge $-1 $265 $265 $-1 $386 reversed $159 $-1 #
edge $-1 $387 0 $387 6.2831853071796004 $160 $388 forward 7 unknown #
vertex $-1 $163 $389 #
ellipse-curve $-1 -63.809860203474521 7.3548670208052158 6.7026969927553122 -0.79863551827123203 0 0.60181501223851219 0.90272251835776829 0 1.197953277406848 1 I I #
coedge $-1 $269 $269 $-1 $390 reversed $166 $-1 #
edge $-1 $391 0 $391 6.2831853071796004 $167 $392 forward 7 unknown #
vertex $-1 $170 $393 #
ellipse-curve $-1 -63.809860203474521 15.666451956722419 6.7026969927553122 -0.79863551827123203 0 0.60181501223851219 0.90272251835776829 0 1.197953277406848 1 I I #
face $-1 $-1 $394 $36 $-1 $395 reversed single #
loop $-1 $-1 $177 $171 #
plane-surface $-1 0 0 10.677404744949923 0 0 1 1 0 0 forward_v I I I I #
coedge $-1 $396 $397 $398 $399 reversed $172 $-1 #
coedge $-1 $400 $174 $176 $283 forward $107 $-1 #
coedge $-1 $174 $400 $396 $401 forward $107 $-1 #
coedge $-1 $398 $177 $174 $280 forward $274 $-1 #
edge $-1 $286 -13.003220006832933 $402 -4.823275525861014 $279 $403 forward 7 unknown #
coedge $-1 $404 $405 $175 $282 forward $394 $-1 #
edge $-1 $406 -91.465534216051338 $285 -86.810183878117684 $281 $407 forward 7 unknown #
edge $-1 $286 127.02637497679906 $406 133.61003448591578 $176 $408 forward 7 unknown #
coedge $-1 $177 $398 $404 $409 forward $274 $-1 #
vertex $-1 $178 $410 #
vertex $-1 $178 $411 #
straight-curve $-1 33.402509717648101 21.916467773179907 10.677404744949925 -1 0 0 I I #
coedge $-1 $288 $288 $-1 $412 reversed $181 $-1 #
edge $-1 $413 0 $413 6.2831853071796004 $182 $414 forward 7 unknown #
vertex $-1 $185 $415 #
ellipse-curve $-1 64.477342128004963 15.372512188402375 8.3497295759830994 0.70710678939079041 0 0.70710677298230451 0.35355338649115226 0 -0.35355339469539521 1 I I #
coedge $-1 $292 $292 $-1 $416 reversed $188 $-1 #
edge $-1 $417 0 $417 6.2831853071796004 $189 $418 forward 7 unknown #
vertex $-1 $192 $419 #
ellipse-curve $-1 64.477342128004963 17.826495532693947 8.3497295759830994 0.70710678939079041 0 0.70710677298230451 0.35355338649115226 0 -0.35355339469539521 1 I I #
coedge $-1 $296 $296 $-1 $420 reversed $195 $-1 #
edge $-1 $421 0 $421 6.2831853071796004 $196 $422 forward 7 unknown #
vertex $-1 $199 $423 #
ellipse-curve $-1 64.477342128004963 20.280478876985519 8.3497295759830994 0.70710678939079041 0 0.70710677298230451 0.35355338649115226 0 -0.35355339469539521 1 I I #
face $-1 $-1 $215 $30 $-1 $424 reversed single #
loop $-1 $-1 $316 $200 #
plane-surface $-1 0 42.41783214046557 0 0 -1 0 0 0 -1 forward_v I I I I #
coedge $-1 $425 $314 $317 $426 forward $201 $-1 #
coedge $-1 $320 $203 $204 $308 reversed $126 $-1 #
coedge $-1 $314 $425 $203 $306 reversed $201 $-1 #
edge $-1 $321 -10.677404744949923 $427 10.677404744949923 $305 $428 forward 7 unknown #
coedge $-1 $205 $204 $425 $429 forward $81 $-1 #
edge $-1 $312 -66.805017242957859 $427 66.805017242957859 $304 $430 forward 7 unknown #
coedge $-1 $317 $316 $205 $310 reversed $301 $-1 #
edge $-1 $431 -66.805017242957859 $311 66.805017242957859 $309 $432 forward 7 unknown #
vertex $-1 $207 $433 #
vertex $-1 $323 $434 #
straight-curve $-1 66.805017242957859 0 -10.677404744949923 0 -1 0 I I #
coedge $-1 $303 $305 $208 $315 reversed $201 $-1 #
edge $-1 $318 -42.41783214046557 $321 42.41783214046557 $314 $435 forward 7 unknown #
coedge $-1 $309 $209 $214 $324 forward $301 $-1 #
coedge $-1 $209 $309 $303 $426 reversed $301 $-1 #
vertex $-1 $210 $436 #
straight-curve $-1 0 42.41783214046557 10.677404744949923 -1 0 0 I I #
coedge $-1 $211 $304 $213 $323 reversed $126 $-1 #
vertex $-1 $315 $437 #
straight-curve $-1 0 -42.41783214046557 10.677404744949923 1 0 0 I I #
edge $-1 $216 -10.677404744949923 $312 10.677404744949923 $213 $438 forward 7 unknown #
edge $-1 $217 -10.677404744949923 $311 10.677404744949923 $214 $439 forward 7 unknown #
point $-1 66.805017242957859 -42.41783214046557 10.677404744949923 #
point $-1 66.805017242957859 42.41783214046557 10.677404744949923 #
face $-1 $-1 $341 $31 $-1 $440 reversed single #
loop $-1 $-1 $441 $219 #
plane-surface $-1 0 -50.050330544827531 8.5220790146565708 0 1 0 0 0 1 forward_v I I I I #
coedge $-1 $442 $222 $231 $345 reversed $134 $-1 #
coedge $-1 $222 $442 $223 $333 reversed $134 $-1 #
coedge $-1 $224 $223 $443 $444 forward $85 $-1 #
edge $-1 $337 42.41783214046557 $445 50.050330544827531 $331 $446 forward 7 unknown #
coedge $-1 $447 $228 $224 $335 reversed $341 $-1 #
edge $-1 $448 -50.050330544827531 $336 -42.41783214046557 $334 $449 forward 7 unknown #
vertex $-1 $229 $450 #
vertex $-1 $333 $451 #
straight-curve $-1 0 -42.41783214046557 10.677404744949923 -1 0 0 I I #
straight-curve $-1 -66.805017242957859 -42.41783214046557 0 0 0 -1 I I #
coedge $-1 $228 $447 $230 $344 reversed $341 $-1 #
loop $-1 $-1 $228 $327 #
straight-curve $-1 66.805017242957859 -42.41783214046557 0 0 0 1 I I #
coedge $-1 $231 $230 $452 $453 forward $220 $-1 #
edge $-1 $232 -3.816249202180984 $454 3.816249202180984 $340 $455 forward 7 unknown #
edge $-1 $456 -3.816249202180984 $233 3.816249202180984 $330 $457 forward 7 unknown #
point $-1 66.805017242957859 -42.417832140465563 6.3667532843632184 #
point $-1 -66.805017242957859 -42.417832140465563 6.3667532843632184 #
face $-1 $-1 $362 $32 $-1 $458 reversed single #
loop $-1 $-1 $459 $235 #
plane-surface $-1 0 54.770827247392859 -6.9375450846626485 0 -1 0 0 0 -1 forward_v I I I I #
coedge $-1 $358 $460 $239 $355 forward $236 $-1 #
coedge $-1 $245 $238 $461 $462 forward $142 $-1 #
edge $-1 $246 -6.1764975534636406 $463 6.1764975534636406 $240 $464 forward 7 unknown #
coedge $-1 $240 $239 $459 $465 reversed $89 $-1 #
edge $-1 $466 -6.1764975534636406 $356 6.1764975534636406 $239 $467 forward 7 unknown #
vertex $-1 $241 $468 #
straight-curve $-1 66.805017242957859 42.41783214046557 0 0 0 -1 I I #
coedge $-1 $469 $351 $242 $359 reversed $236 $-1 #
edge $-1 $363 -66.805017242957859 $356 66.805017242957859 $358 $470 forward 7 unknown #
coedge $-1 $471 $243 $245 $365 reversed $362 $-1 #
coedge $-1 $243 $471 $469 $472 reversed $362 $-1 #
loop $-1 $-1 $243 $348 #
vertex $-1 $244 $473 #
straight-curve $-1 -66.805017242957859 42.41783214046557 0 0 0 1 I I #
edge $-1 $474 -6.1764975534636406 $247 6.1764975534636406 $360 $475 forward 7 unknown #
point $-1 66.805017242957859 42.417832140465578 -4.4433917090615491 #
point $-1 -66.805017242957859 42.417832140465578 -4.4433917090615491 #
plane-surface $-1 0 0 10.677404744949923 0 0 1 1 0 0 forward_v I I I I #
coedge $-1 $379 $378 $371 $476 forward $250 $-1 #
coedge $-1 $371 $252 $254 $375 reversed $150 $-1 #
coedge $-1 $252 $370 $369 $476 reversed $150 $-1 #
coedge $-1 $260 $255 $252 $373 forward $261 $-1 #
edge $-1 $376 -25.940665026436001 $477 -19.950350947469317 $372 $478 forward 7 unknown #
coedge $-1 $254 $253 $379 $479 reversed $93 $-1 #
edge $-1 $480 2.3448253187574213e-014 $376 9.953746512047136 $370 $481 forward 7 unknown #
vertex $-1 $256 $482 #
straight-curve $-1 -60.814703163991176 5.7553297443819069 10.677404744949925 0 1 0 I I #
coedge $-1 $369 $257 $260 $383 reversed $250 $-1 #
coedge $-1 $257 $369 $374 $479 forward $250 $-1 #
vertex $-1 $258 $483 #
straight-curve $-1 -66.805017242957859 1.8138103968604078 41.568256889945047 0 0 1 I I #
straight-curve $-1 -66.805017242957874 1.8138103968604078 2.7279892405606887 -0.60181501223851219 0 -0.79863551827123203 I I #
edge $-1 $477 -21.20750858066722 $262 -1.8138103968604078 $378 $484 forward 7 unknown #
point $-1 -66.805017242957859 1.8138103968604078 10.677404744949923 #
point $-1 -60.814703163991176 1.8138103968604078 10.677404744949921 #
edge $-1 $485 1 $485 0 $265 $-1 forward 7 unknown #
vertex $-1 $266 $486 #
ellipse-curve $-1 -61.803570887874805 7.3548670208052158 5.1908495962918115 -0.79863551827123203 0 0.60181501223851219 0.90272251835776829 0 1.197953277406848 1 I I #
point $-1 -62.907137685116744 7.3548670208052158 7.9006502701621519 #
edge $-1 $487 1 $487 0 $269 $-1 forward 7 unknown #
vertex $-1 $270 $488 #
ellipse-curve $-1 -61.803570887874805 15.666451956722419 5.1908495962918115 -0.79863551827123203 0 0.60181501223851219 0.90272251835776829 0 1.197953277406848 1 I I #
point $-1 -62.907137685116744 15.666451956722419 7.9006502701621519 #
loop $-1 $-1 $281 $273 #
plane-surface $-1 66.805017242957859 0 0 -1 0 0 0 0 1 forward_v I I I I #
coedge $-1 $397 $276 $278 $401 reversed $172 $-1 #
coedge $-1 $276 $396 $489 $490 reversed $172 $-1 #
coedge $-1 $284 $279 $276 $399 forward $274 $-1 #
edge $-1 $402 28.74715729540398 $491 33.402507525309758 $398 $492 forward 7 unknown #
coedge $-1 $278 $277 $405 $493 reversed $107 $-1 #
edge $-1 $494 -133.61003448591578 $402 -127.02637497679906 $396 $495 forward 7 unknown #
vertex $-1 $280 $496 #
straight-curve $-1 62.149667013052081 8.9132477663469736 10.677404744949918 0 -1 0 I I #
coedge $-1 $489 $281 $284 $409 reversed $394 $-1 #
coedge $-1 $281 $489 $400 $493 forward $394 $-1 #
vertex $-1 $282 $497 #
straight-curve $-1 66.805017242957859 21.916467773179907 97.487588623067609 0 0 1 I I #
straight-curve $-1 -27.671543080432443 21.916467773179907 100.49861692274493 0.70710677298230451 0 -0.70710678939079041 I I #
edge $-1 $491 13.736523292207988 $285 21.916467773179907 $404 $498 forward 7 unknown #
point $-1 66.805017242957859 21.916467773179907 10.677404744949923 #
point $-1 62.149667013052081 21.916467773179907 10.677404744949925 #
edge $-1 $499 1 $499 0 $288 $-1 forward 7 unknown #
vertex $-1 $289 $500 #
ellipse-curve $-1 63.660124178212961 15.372512188402375 7.5325116451547194 0.70710678939079041 0 0.70710677298230451 0.35355338649115226 0 -0.35355339469539521 1 I I #
point $-1 64.83089551449612 15.372512188402375 7.9961761812877006 #
edge $-1 $501 1 $501 0 $292 $-1 forward 7 unknown #
vertex $-1 $293 $502 #
ellipse-curve $-1 63.660124178212961 17.826495532693947 7.5325116451547194 0.70710678939079041 0 0.70710677298230451 0.35355338649115226 0 -0.35355339469539521 1 I I #
point $-1 64.83089551449612 17.826495532693947 7.9961761812877006 #
edge $-1 $503 1 $503 0 $296 $-1 forward 7 unknown #
vertex $-1 $297 $504 #
ellipse-curve $-1 63.660124178212961 20.280478876985519 7.5325116451547194 0.70710678939079041 0 0.70710677298230451 0.35355338649115226 0 -0.35355339469539521 1 I I #
point $-1 64.83089551449612 20.280478876985519 7.9961761812877006 #
plane-surface $-1 66.805017242957859 0 0 -1 0 0 0 0 1 forward_v I I I I #
coedge $-1 $305 $303 $307 $429 reversed $201 $-1 #
edge $-1 $318 -10.677404744949923 $431 10.677404744949923 $317 $505 forward 7 unknown #
vertex $-1 $429 $506 #
straight-curve $-1 -66.805017242957859 -42.41783214046557 0 0 0 -1 I I #
edge $-1 $427 -42.41783214046557 $431 42.41783214046557 $425 $507 forward 7 unknown #
straight-curve $-1 0 -42.41783214046557 -10.677404744949923 -1 0 0 I I #
vertex $-1 $310 $508 #
straight-curve $-1 0 42.41783214046557 -10.677404744949923 1 0 0 I I #
point $-1 66.805017242957859 42.41783214046557 -10.677404744949923 #
point $-1 66.805017242957859 -42.41783214046557 -10.677404744949923 #
straight-curve $-1 -66.805017242957859 0 10.677404744949923 0 -1 0 I I #
point $-1 -66.805017242957859 42.41783214046557 10.677404744949923 #
point $-1 -66.805017242957859 -42.41783214046557 10.677404744949923 #
straight-curve $-1 66.805017242957859 -42.41783214046557 0 0 0 -1 I I #
straight-curve $-1 66.805017242957859 42.41783214046557 0 0 0 -1 I I #
plane-surface $-1 66.805017242957859 0 0 -1 0 0 0 0 1 forward_v I I I I #
coedge $-1 $452 $443 $442 $509 forward $328 $-1 #
coedge $-1 $331 $330 $441 $509 reversed $134 $-1 #
coedge $-1 $441 $510 $332 $444 reversed $328 $-1 #
edge $-1 $445 -66.805017242957859 $448 66.805017242957859 $443 $511 forward 7 unknown #
vertex $-1 $333 $512 #
straight-curve $-1 -66.805017242957859 0 10.677404744949923 0 -1 0 I I #
coedge $-1 $340 $334 $510 $513 forward $341 $-1 #
vertex $-1 $335 $514 #
straight-curve $-1 66.805017242957859 0 10.677404744949923 0 1 0 I I #
point $-1 66.805017242957859 -42.41783214046557 10.677404744949923 #
point $-1 -66.805017242957859 -42.41783214046557 10.677404744949923 #
coedge $-1 $510 $441 $343 $453 reversed $328 $-1 #
edge $-1 $454 -66.805017242957859 $456 66.805017242957859 $452 $515 forward 7 unknown #
vertex $-1 $513 $516 #
straight-curve $-1 66.805017242957859 -46.234081342646547 6.3667532843632184 0 -1 0 I I #
vertex $-1 $345 $517 #
straight-curve $-1 -66.805017242957859 -46.234081342646547 6.3667532843632184 0 1 0 I I #
plane-surface $-1 -66.805017242957859 0 0 1 0 0 0 0 -1 forward_v I I I I #
coedge $-1 $518 $461 $354 $465 forward $349 $-1 #
coedge $-1 $351 $469 $518 $519 forward $236 $-1 #
coedge $-1 $459 $520 $352 $462 reversed $349 $-1 #
edge $-1 $463 -66.805017242957859 $474 66.805017242957859 $461 $521 forward 7 unknown #
vertex $-1 $353 $522 #
straight-curve $-1 66.805017242957859 48.594329693929218 -4.4433917090615491 0 1 0 I I #
edge $-1 $463 -2.4941533756010994 $466 2.4941533756010994 $354 $523 forward 7 unknown #
vertex $-1 $355 $524 #
straight-curve $-1 66.805017242957859 48.594329693929218 -9.4316984602637479 0 -1 0 I I #
point $-1 66.805017242957859 42.417832140465578 -9.4316984602637479 #
coedge $-1 $460 $358 $361 $472 forward $236 $-1 #
straight-curve $-1 0 42.41783214046557 -9.4316984602637479 1 0 0 I I #
coedge $-1 $361 $360 $520 $525 forward $362 $-1 #
edge $-1 $363 -6.1764975534636406 $526 6.1764975534636406 $361 $527 forward 7 unknown #
point $-1 -66.805017242957859 42.417832140465578 -9.4316984602637479 #
vertex $-1 $462 $528 #
straight-curve $-1 -66.805017242957859 48.594329693929218 -4.4433917090615491 0 -1 0 I I #
edge $-1 $477 30.890852144995122 $480 38.840267649384337 $369 $529 forward 7 unknown #
vertex $-1 $383 $530 #
straight-curve $-1 -86.755368190427177 21.20750858066722 10.677404744949925 -1 0 0 I I #
edge $-1 $480 -15.452178836285313 $380 3.9415193475214991 $379 $531 forward 7 unknown #
vertex $-1 $479 $532 #
straight-curve $-1 -66.805017242957874 21.20750858066722 2.7279892405606887 0.60181501223851219 0 0.79863551827123203 I I #
point $-1 -60.814703163991176 21.20750858066722 10.677404744949921 #
point $-1 -66.805017242957859 1.8138103968604078 2.7279892405607074 #
straight-curve $-1 -66.805017242957859 0 10.677404744949923 0 -1 0 I I #
vertex $-1 $386 $533 #
point $-1 -60.900848369517036 7.3548670208052158 6.3888028736986602 #
vertex $-1 $390 $534 #
point $-1 -60.900848369517036 15.666451956722419 6.3888028736986602 #
coedge $-1 $405 $404 $397 $490 forward $394 $-1 #
edge $-1 $491 86.810183878117684 $494 91.465534216051338 $489 $535 forward 7 unknown #
vertex $-1 $409 $536 #
straight-curve $-1 33.402509717648101 13.736523292207988 10.677404744949925 1 0 0 I I #
edge $-1 $494 4.823275525861014 $406 13.003220006832933 $405 $537 forward 7 unknown #
vertex $-1 $493 $538 #
straight-curve $-1 -27.671543080432443 13.736523292207988 100.49861692274493 -0.70710677298230451 0 0.70710678939079041 I I #
point $-1 62.149667013052081 13.736523292207988 10.677404744949925 #
point $-1 66.805017242957859 21.916467773179907 6.0220544070162703 #
straight-curve $-1 66.805017242957859 0 10.677404744949923 0 1 0 I I #
vertex $-1 $412 $539 #
point $-1 64.013677564704111 15.372512188402375 7.1789582504593241 #
vertex $-1 $416 $540 #
point $-1 64.013677564704111 17.826495532693947 7.1789582504593241 #
vertex $-1 $420 $541 #
point $-1 64.013677564704111 20.280478876985519 7.1789582504593241 #
straight-curve $-1 -66.805017242957859 42.41783214046557 0 0 0 -1 I I #
point $-1 -66.805017242957859 -42.41783214046557 -10.677404744949923 #
straight-curve $-1 -66.805017242957859 0 -10.677404744949923 0 1 0 I I #
point $-1 -66.805017242957859 42.41783214046557 -10.677404744949923 #
edge $-1 $445 -2.1553257302933524 $456 2.1553257302933524 $442 $542 forward 7 unknown #
coedge $-1 $443 $452 $447 $513 reversed $328 $-1 #
straight-curve $-1 0 -50.050330544827531 10.677404744949923 1 0 0 I I #
point $-1 -66.805017242957859 -50.050330544827531 10.677404744949923 #
edge $-1 $448 -2.1553257302933524 $454 2.1553257302933524 $447 $543 forward 7 unknown #
point $-1 66.805017242957859 -50.050330544827531 10.677404744949923 #
straight-curve $-1 0 -50.050330544827531 6.3667532843632184 -1 0 0 I I #
point $-1 66.805017242957859 -50.050330544827531 6.3667532843632184 #
point $-1 -66.805017242957859 -50.050330544827531 6.3667532843632184 #
coedge $-1 $520 $459 $460 $519 reversed $349 $-1 #
edge $-1 $526 -66.805017242957859 $466 66.805017242957859 $518 $544 forward 7 unknown #
coedge $-1 $461 $518 $471 $525 reversed $349 $-1 #
straight-curve $-1 0 54.770827247392859 -4.4433917090615491 -1 0 0 I I #
point $-1 66.805017242957859 54.770827247392859 -4.4433917090615491 #
straight-curve $-1 66.805017242957859 54.770827247392859 -6.9375450846626485 0 0 -1 I I #
point $-1 66.805017242957859 54.770827247392859 -9.4316984602637479 #
edge $-1 $474 -2.4941533756010994 $526 2.4941533756010994 $520 $545 forward 7 unknown #
vertex $-1 $519 $546 #
straight-curve $-1 -66.805017242957859 48.594329693929218 -9.4316984602637479 0 1 0 I I #
point $-1 -66.805017242957859 54.770827247392859 -4.4433917090615491 #
straight-curve $-1 -66.805017242957859 21.20750858066722 41.568256889945047 0 0 -1 I I #
point $-1 -66.805017242957859 21.20750858066722 10.677404744949923 #
straight-curve $-1 -66.805017242957859 5.7553297443819069 2.7279892405606905 0 -1 0 I I #
point $-1 -66.805017242957859 21.20750858066722 2.7279892405607074 #
point $-1 -60.605617610467952 7.3548670208052158 4.2881270779340435 #
point $-1 -60.605617610467952 15.666451956722419 4.2881270779340435 #
straight-curve $-1 66.805017242957859 13.736523292207988 97.487588623067609 0 0 -1 I I #
point $-1 66.805017242957859 13.736523292207988 10.677404744949923 #
straight-curve $-1 66.805017242957859 8.9132477663469736 6.0220544070162703 0 1 0 I I #
point $-1 66.805017242957859 13.736523292207988 6.0220544070162703 #
point $-1 63.306570783517564 15.372512188402375 7.1789582586635676 #
point $-1 63.306570783517564 17.826495532693947 7.1789582586635676 #
point $-1 63.306570783517564 20.280478876985519 7.1789582586635676 #
straight-curve $-1 -66.805017242957859 -50.050330544827531 8.5220790146565708 0 0 -1 I I #
straight-curve $-1 66.805017242957859 -50.050330544827531 8.5220790146565708 0 0 -1 I I #
straight-curve $-1 0 54.770827247392859 -9.4316984602637479 1 0 0 I I #
straight-curve $-1 -66.805017242957859 54.770827247392859 -6.9375450846626485 0 0 -1 I I #
point $-1 -66.805017242957859 54.770827247392859 -9.4316984602637479 #
End-of-ACIS-data 