500 0 4 0           
7 Unknown 11 ACIS 5.0 NT 24 Fri Mar 26 15:40:12 1999 
-1 9.9999999999999995e-007 1e-010 
body $-1 $4 $-1 $5 #
body $-1 $6 $-1 $7 #
body $-1 $8 $-1 $9 #
body $-1 $10 $-1 $11 #
lump $-1 $-1 $12 $0 #
transform $-1 1 0 0 0 1 0 0 0 1 53.48185674611652 32.331656969282292 11.252584894662075 1 rotate no_reflect no_shear #
lump $-1 $-1 $13 $1 #
transform $-1 1 0 0 0 1 0 0 0 1 53.48185674611652 32.331656969282292 11.252584894662075 1 rotate no_reflect no_shear #
lump $-1 $-1 $14 $2 #
transform $-1 1 0 0 0 1 0 0 0 1 53.48185674611652 32.331656969282292 11.252584894662075 1 rotate no_reflect no_shear #
lump $-1 $-1 $15 $3 #
transform $-1 1 0 0 0 1 0 0 0 1 53.48185674611652 32.331656969282292 11.252584894662075 1 rotate no_reflect no_shear #
shell $-1 $-1 $-1 $16 $-1 $4 #
shell $-1 $-1 $-1 $17 $-1 $6 #
shell $-1 $-1 $-1 $18 $-1 $8 #
shell $-1 $-1 $-1 $19 $-1 $10 #
face $-1 $20 $21 $12 $-1 $22 forward single #
face $-1 $23 $24 $13 $-1 $25 forward single #
face $-1 $26 $27 $14 $-1 $28 reversed single #
face $-1 $29 $30 $15 $-1 $31 forward single #
face $-1 $32 $33 $12 $-1 $34 reversed single #
loop $-1 $-1 $35 $16 #
plane-surface $-1 0 0 11.252584894662075 0 0 1 1 0 0 forward_v I I I I #
face $-1 $36 $37 $13 $-1 $38 reversed single #
loop $-1 $-1 $39 $17 #
plane-surface $-1 -53.48185674611652 0 0 1 0 0 0 0 -1 forward_v I I I I #
face $-1 $40 $41 $14 $-1 $42 reversed single #
loop $-1 $-1 $43 $18 #
plane-surface $-1 17.195581037239382 -117.75667773036739 71.813219648500407 -1 0 0 0 -0.79863551827123203 0.60181501223851219 forward_v I I I I #
face $-1 $44 $45 $15 $-1 $46 forward single #
loop $-1 $47 $48 $19 #
cone-surface $-1 3.3053780648710926 -30.468380124261451 9.0248726865041853 0 0.79863551827123203 -0.60181501223851219 1 0 0 1 I I 0 1 1 forward I I I I #
face $-1 $49 $50 $12 $-1 $51 reversed single #
loop $-1 $-1 $52 $20 #
plane-surface $-1 0 0 -11.252584894662075 0 0 1 1 0 0 forward_v I I I I #
coedge $-1 $53 $54 $55 $56 forward $21 $-1 #
face $-1 $57 $58 $13 $-1 $59 forward single #
loop $-1 $-1 $60 $23 #
plane-surface $-1 0 32.331656969282292 0 0 -1 0 0 0 -1 forward_v I I I I #
coedge $-1 $61 $62 $63 $64 forward $24 $-1 #
face $-1 $65 $66 $14 $-1 $67 reversed single #
loop $-1 $-1 $68 $26 #
plane-surface $-1 3.3053780648710926 -32.331656969282278 7.4408511040954721 0 -0.79863551827123203 0.60181501223851219 1 0 0 forward_v I I I I #
coedge $-1 $69 $70 $71 $72 reversed $27 $-1 #
face $-1 $-1 $73 $15 $-1 $74 forward single #
loop $-1 $75 $76 $29 #
cone-surface $-1 3.3053780648710926 -29.641959197169477 8.4021198675103435 0 0.79863551827123203 -0.60181501223851219 0.5 0 0 1 I I -0.70710678118654746 0.70710678118654746 0.5 forward I I I I #
loop $-1 $-1 $77 $19 #
coedge $-1 $48 $48 $78 $79 reversed $30 $-1 #
face $-1 $80 $81 $12 $-1 $82 reversed single #
loop $-1 $-1 $83 $32 #
plane-surface $-1 0 -32.331656969282292 0 0 1 0 0 0 1 forward_v I I I I #
coedge $-1 $84 $85 $86 $87 forward $33 $-1 #
coedge $-1 $88 $35 $89 $90 forward $21 $-1 #
coedge $-1 $35 $88 $91 $92 forward $21 $-1 #
coedge $-1 $93 $94 $35 $56 reversed $95 $-1 #
edge $-1 $96 -32.331656969282292 $97 32.331656969282292 $55 $98 forward 7 unknown #
face $-1 $99 $100 $13 $-1 $101 reversed single #
loop $-1 $-1 $63 $36 #
plane-surface $-1 -59.425012121285192 0 -3.5388415159270341 0 0 1 1 0 0 forward_v I I I I #
coedge $-1 $102 $103 $62 $104 forward $37 $-1 #
coedge $-1 $105 $39 $106 $107 reversed $24 $-1 #
coedge $-1 $39 $105 $60 $104 reversed $24 $-1 #
coedge $-1 $108 $109 $39 $64 reversed $58 $-1 #
edge $-1 $110 -32.331656969282292 $111 32.331656969282292 $63 $112 forward 7 unknown #
face $-1 $113 $114 $14 $-1 $115 reversed single #
loop $-1 $-1 $116 $40 #
plane-surface $-1 -10.584824907497197 -117.75667773036739 71.813219648500407 1 0 0 0 0.79863551827123203 -0.60181501223851219 forward_v I I I I #
coedge $-1 $117 $118 $119 $120 reversed $41 $-1 #
coedge $-1 $70 $43 $121 $122 reversed $27 $-1 #
coedge $-1 $43 $69 $117 $123 reversed $27 $-1 #
coedge $-1 $119 $124 $43 $72 forward $125 $-1 #
edge $-1 $126 26.546681895901401 $127 29.419029250030384 $71 $128 forward 7 unknown #
loop $-1 $-1 $78 $44 #
plane-surface $-1 3.3053780648710926 -32.331656969282278 7.4408511040954721 0 -0.79863551827123203 0.60181501223851219 1 0 0 forward_v I I I I #
loop $-1 $-1 $129 $29 #
coedge $-1 $76 $76 $77 $130 reversed $45 $-1 #
coedge $-1 $77 $77 $76 $130 forward $47 $-1 #
coedge $-1 $78 $78 $48 $79 forward $73 $-1 #
edge $-1 $131 2.1179085691199468e-015 $131 6.2831853071796022 $78 $132 forward 7 unknown #
face $-1 $133 $134 $12 $-1 $135 reversed single #
loop $-1 $-1 $136 $49 #
plane-surface $-1 -53.48185674611652 0 0 1 0 0 0 0 -1 forward_v I I I I #
coedge $-1 $137 $91 $136 $138 forward $50 $-1 #
coedge $-1 $139 $52 $137 $140 forward $33 $-1 #
coedge $-1 $52 $139 $141 $142 forward $33 $-1 #
coedge $-1 $94 $93 $52 $87 reversed $95 $-1 #
edge $-1 $143 -32.331656969282292 $144 32.331656969282292 $86 $145 forward 7 unknown #
coedge $-1 $54 $53 $146 $147 forward $21 $-1 #
coedge $-1 $148 $149 $53 $90 reversed $134 $-1 #
edge $-1 $97 -53.48185674611652 $150 53.48185674611652 $89 $151 forward 7 unknown #
coedge $-1 $83 $152 $54 $92 reversed $50 $-1 #
edge $-1 $153 -53.48185674611652 $96 53.48185674611652 $91 $154 forward 7 unknown #
coedge $-1 $86 $55 $152 $155 forward $95 $-1 #
coedge $-1 $55 $86 $148 $156 reversed $95 $-1 #
loop $-1 $-1 $93 $133 #
vertex $-1 $56 $157 #
vertex $-1 $56 $158 #
straight-curve $-1 53.48185674611652 0 11.252584894662075 0 1 0 I I #
face $-1 $159 $160 $13 $-1 $161 reversed single #
loop $-1 $-1 $162 $57 #
plane-surface $-1 -59.425012121285192 0 -8.7977860198448798 0 0 1 1 0 0 forward_v I I I I #
coedge $-1 $163 $60 $164 $165 reversed $37 $-1 #
coedge $-1 $60 $163 $108 $166 reversed $37 $-1 #
edge $-1 $110 3.5388415159270341 $167 8.7977860198448798 $60 $168 forward 7 unknown #
coedge $-1 $62 $61 $162 $169 forward $24 $-1 #
coedge $-1 $170 $171 $61 $107 forward $172 $-1 #
edge $-1 $173 -8.7977860198448798 $111 -3.5388415159270341 $106 $174 forward 7 unknown #
coedge $-1 $175 $63 $103 $166 forward $58 $-1 #
coedge $-1 $63 $175 $170 $176 forward $58 $-1 #
vertex $-1 $104 $177 #
vertex $-1 $176 $178 #
straight-curve $-1 -53.48185674611652 0 -3.5388415159270341 0 -1 0 I I #
face $-1 $-1 $125 $14 $-1 $179 forward single #
loop $-1 $-1 $180 $65 #
plane-surface $-1 0 -32.331656969282292 0 0 1 0 0 0 1 forward_v I I I I #
coedge $-1 $181 $182 $183 $184 reversed $66 $-1 #
coedge $-1 $185 $68 $70 $123 forward $41 $-1 #
coedge $-1 $68 $185 $181 $186 forward $41 $-1 #
coedge $-1 $183 $71 $68 $120 forward $125 $-1 #
edge $-1 $127 -15.542892004803836 $187 12.237513939932743 $119 $188 forward 7 unknown #
coedge $-1 $189 $190 $69 $122 forward $114 $-1 #
edge $-1 $191 -28.465758720154749 $126 -24.654024929588129 $121 $192 forward 7 unknown #
edge $-1 $127 -4.7728077494195107 $191 2.3448253187574213e-014 $70 $193 forward 7 unknown #
coedge $-1 $71 $183 $189 $194 forward $125 $-1 #
loop $-1 $-1 $183 $113 #
vertex $-1 $122 $195 #
vertex $-1 $72 $196 #
straight-curve $-1 17.195581037239382 -58.878338865183693 11.252584894662075 0 1 0 I I #
coedge $-1 $129 $129 $-1 $197 reversed $75 $-1 #
edge $-1 $198 0 $198 6.2831853071796004 $76 $199 forward 7 unknown #
vertex $-1 $79 $200 #
ellipse-curve $-1 3.3053780648710926 -30.895483292217801 9.3467179993787664 0 -0.79863551827123203 0.60181501223851219 1 0 0 1 I I #
face $-1 $-1 $95 $12 $-1 $201 reversed single #
loop $-1 $-1 $148 $80 #
plane-surface $-1 0 32.331656969282292 0 0 -1 0 0 0 -1 forward_v I I I I #
coedge $-1 $146 $202 $83 $138 reversed $81 $-1 #
coedge $-1 $152 $83 $84 $140 reversed $50 $-1 #
edge $-1 $153 -11.252584894662075 $203 11.252584894662075 $136 $204 forward 7 unknown #
coedge $-1 $85 $84 $202 $205 forward $33 $-1 #
edge $-1 $144 -53.48185674611652 $203 53.48185674611652 $137 $206 forward 7 unknown #
coedge $-1 $149 $148 $85 $142 reversed $134 $-1 #
edge $-1 $207 -53.48185674611652 $143 53.48185674611652 $141 $208 forward 7 unknown #
vertex $-1 $87 $209 #
vertex $-1 $155 $210 #
straight-curve $-1 53.48185674611652 0 -11.252584894662075 0 -1 0 I I #
coedge $-1 $211 $136 $88 $147 reversed $81 $-1 #
edge $-1 $150 -32.331656969282292 $153 32.331656969282292 $146 $212 forward 7 unknown #
coedge $-1 $141 $89 $94 $156 forward $134 $-1 #
coedge $-1 $89 $141 $211 $213 reversed $134 $-1 #
vertex $-1 $90 $214 #
straight-curve $-1 0 32.331656969282292 11.252584894662075 -1 0 0 I I #
coedge $-1 $91 $137 $93 $155 reversed $50 $-1 #
vertex $-1 $147 $215 #
straight-curve $-1 0 -32.331656969282292 11.252584894662075 1 0 0 I I #
edge $-1 $96 -11.252584894662075 $144 11.252584894662075 $93 $216 forward 7 unknown #
edge $-1 $97 -11.252584894662075 $143 11.252584894662075 $94 $217 forward 7 unknown #
point $-1 53.48185674611652 -32.331656969282292 11.252584894662075 #
point $-1 53.48185674611652 32.331656969282292 11.252584894662075 #
face $-1 $-1 $172 $13 $-1 $218 reversed single #
loop $-1 $-1 $219 $99 #
plane-surface $-1 -65.368167496453864 0 -6.168313767885957 1 0 0 0 0 -1 forward_v I I I I #
coedge $-1 $220 $164 $105 $169 reversed $100 $-1 #
coedge $-1 $103 $102 $219 $221 reversed $37 $-1 #
coedge $-1 $162 $222 $102 $165 forward $100 $-1 #
edge $-1 $223 -5.9431553751686721 $167 5.9431553751686721 $102 $224 forward 7 unknown #
edge $-1 $110 -5.9431553751686721 $225 5.9431553751686721 $103 $226 forward 7 unknown #
vertex $-1 $104 $227 #
straight-curve $-1 -53.48185674611652 32.331656969282292 0 0 0 -1 I I #
edge $-1 $173 -32.331656969282292 $167 32.331656969282292 $162 $228 forward 7 unknown #
coedge $-1 $229 $106 $109 $176 reversed $172 $-1 #
coedge $-1 $106 $229 $220 $230 reversed $172 $-1 #
loop $-1 $-1 $106 $159 #
vertex $-1 $107 $231 #
straight-curve $-1 -53.48185674611652 -32.331656969282292 0 0 0 1 I I #
coedge $-1 $109 $108 $232 $233 forward $58 $-1 #
edge $-1 $234 -5.9431553751686721 $111 5.9431553751686721 $170 $235 forward 7 unknown #
point $-1 -53.48185674611652 32.331656969282292 -3.5388415159270341 #
point $-1 -53.48185674611652 -32.331656969282292 -3.5388415159270341 #
plane-surface $-1 0 0 11.252584894662075 0 0 1 1 0 0 forward_v I I I I #
coedge $-1 $190 $189 $182 $236 forward $114 $-1 #
coedge $-1 $182 $116 $118 $186 reversed $66 $-1 #
coedge $-1 $116 $181 $180 $236 reversed $66 $-1 #
coedge $-1 $124 $119 $116 $184 forward $125 $-1 #
edge $-1 $187 -29.419029250030384 $237 -26.546681895901401 $183 $238 forward 7 unknown #
coedge $-1 $118 $117 $190 $239 reversed $41 $-1 #
edge $-1 $240 -2.3448253187574213e-014 $187 4.7728077494195107 $181 $241 forward 7 unknown #
vertex $-1 $120 $242 #
straight-curve $-1 1.6526890324355463 -29.459309615153312 11.252584894662075 -1 0 0 I I #
coedge $-1 $180 $121 $124 $194 reversed $114 $-1 #
coedge $-1 $121 $180 $185 $239 forward $114 $-1 #
vertex $-1 $122 $243 #
straight-curve $-1 17.195581037239382 -32.331656969282292 35.906609824250204 0 0 1 I I #
straight-curve $-1 17.195581037239382 -32.331656969282278 7.4408511040954721 0 -0.60181501223851219 -0.79863551827123203 I I #
edge $-1 $237 -10.584824907497197 $126 17.195581037239382 $189 $244 forward 7 unknown #
point $-1 17.195581037239382 -32.331656969282292 11.252584894662075 #
point $-1 17.195581037239382 -29.459309615153309 11.252584894662075 #
edge $-1 $245 1 $245 0 $129 $-1 forward 7 unknown #
vertex $-1 $130 $246 #
ellipse-curve $-1 3.3053780648710926 -30.041276956305094 8.7030273736295989 0 -0.79863551827123203 0.60181501223851219 1 0 0 1 I I #
point $-1 4.3053780648710926 -30.895483292217804 9.3467179993787717 #
plane-surface $-1 53.48185674611652 0 0 -1 0 0 0 0 1 forward_v I I I I #
coedge $-1 $136 $211 $139 $205 reversed $81 $-1 #
vertex $-1 $205 $247 #
straight-curve $-1 -53.48185674611652 -32.331656969282292 0 0 0 -1 I I #
edge $-1 $203 -32.331656969282292 $207 32.331656969282292 $202 $248 forward 7 unknown #
straight-curve $-1 0 -32.331656969282292 -11.252584894662075 -1 0 0 I I #
vertex $-1 $142 $249 #
straight-curve $-1 0 32.331656969282292 -11.252584894662075 1 0 0 I I #
point $-1 53.48185674611652 32.331656969282292 -11.252584894662075 #
point $-1 53.48185674611652 -32.331656969282292 -11.252584894662075 #
coedge $-1 $202 $146 $149 $213 forward $81 $-1 #
straight-curve $-1 -53.48185674611652 0 11.252584894662075 0 -1 0 I I #
edge $-1 $150 -11.252584894662075 $207 11.252584894662075 $149 $250 forward 7 unknown #
point $-1 -53.48185674611652 32.331656969282292 11.252584894662075 #
point $-1 -53.48185674611652 -32.331656969282292 11.252584894662075 #
straight-curve $-1 53.48185674611652 -32.331656969282292 0 0 0 -1 I I #
straight-curve $-1 53.48185674611652 32.331656969282292 0 0 0 -1 I I #
plane-surface $-1 0 -32.331656969282292 0 0 1 0 0 0 1 forward_v I I I I #
coedge $-1 $251 $232 $163 $221 forward $160 $-1 #
coedge $-1 $222 $162 $171 $230 forward $100 $-1 #
edge $-1 $225 -2.6294722519589229 $223 2.6294722519589229 $163 $252 forward 7 unknown #
coedge $-1 $164 $220 $251 $253 forward $100 $-1 #
vertex $-1 $165 $254 #
straight-curve $-1 -59.425012121285192 32.331656969282292 -8.7977860198448798 1 0 0 I I #
vertex $-1 $166 $255 #
straight-curve $-1 -59.425012121285192 32.331656969282292 -3.5388415159270341 -1 0 0 I I #
point $-1 -53.48185674611652 32.331656969282292 -8.7977860198448798 #
straight-curve $-1 -53.48185674611652 0 -8.7977860198448798 0 1 0 I I #
coedge $-1 $171 $170 $256 $257 forward $172 $-1 #
edge $-1 $173 -5.9431553751686721 $258 5.9431553751686721 $171 $259 forward 7 unknown #
point $-1 -53.48185674611652 -32.331656969282292 -8.7977860198448798 #
coedge $-1 $219 $256 $175 $233 reversed $160 $-1 #
edge $-1 $225 -32.331656969282292 $234 32.331656969282292 $232 $260 forward 7 unknown #
vertex $-1 $233 $261 #
straight-curve $-1 -59.425012121285192 -32.331656969282292 -3.5388415159270341 1 0 0 I I #
edge $-1 $237 24.654024929588129 $240 28.465758720154749 $180 $262 forward 7 unknown #
vertex $-1 $194 $263 #
straight-curve $-1 -10.584824907497197 -58.878338865183693 11.252584894662075 0 -1 0 I I #
edge $-1 $240 -12.237513939932743 $191 15.542892004803836 $190 $264 forward 7 unknown #
vertex $-1 $239 $265 #
straight-curve $-1 -10.584824907497197 -32.331656969282278 7.4408511040954721 0 0.60181501223851219 0.79863551827123203 I I #
point $-1 -10.584824907497197 -29.459309615153309 11.252584894662075 #
point $-1 17.195581037239382 -32.331656969282292 7.4408511040954535 #
straight-curve $-1 0 -32.331656969282292 11.252584894662075 1 0 0 I I #
vertex $-1 $197 $266 #
point $-1 4.3053780648710926 -30.041276956305094 8.7030273736295989 #
point $-1 -53.48185674611652 -32.331656969282292 -11.252584894662075 #
straight-curve $-1 -53.48185674611652 0 -11.252584894662075 0 1 0 I I #
point $-1 -53.48185674611652 32.331656969282292 -11.252584894662075 #
straight-curve $-1 -53.48185674611652 32.331656969282292 0 0 0 -1 I I #
coedge $-1 $256 $219 $222 $253 reversed $160 $-1 #
straight-curve $-1 -65.368167496453864 32.331656969282292 -6.168313767885957 0 0 -1 I I #
edge $-1 $258 -32.331656969282292 $223 32.331656969282292 $251 $267 forward 7 unknown #
point $-1 -65.368167496453864 32.331656969282292 -8.7977860198448798 #
point $-1 -65.368167496453864 32.331656969282292 -3.5388415159270341 #
coedge $-1 $232 $251 $229 $257 reversed $160 $-1 #
edge $-1 $234 -2.6294722519589229 $258 2.6294722519589229 $256 $268 forward 7 unknown #
vertex $-1 $253 $269 #
straight-curve $-1 -59.425012121285192 -32.331656969282292 -8.7977860198448798 -1 0 0 I I #
straight-curve $-1 -65.368167496453864 0 -3.5388415159270341 0 -1 0 I I #
point $-1 -65.368167496453864 -32.331656969282292 -3.5388415159270341 #
straight-curve $-1 -10.584824907497197 -32.331656969282292 35.906609824250204 0 0 -1 I I #
point $-1 -10.584824907497197 -32.331656969282292 11.252584894662075 #
straight-curve $-1 1.6526890324355463 -32.331656969282292 7.4408511040954544 1 0 0 I I #
point $-1 -10.584824907497197 -32.331656969282292 7.4408511040954535 #
point $-1 3.3053780648710926 -29.242641438033861 8.101212361391088 #
straight-curve $-1 -65.368167496453864 0 -8.7977860198448798 0 1 0 I I #
straight-curve $-1 -65.368167496453864 -32.331656969282292 -6.168313767885957 0 0 -1 I I #
point $-1 -65.368167496453864 -32.331656969282292 -8.7977860198448798 #
End-of-ACIS-data 