500 0 6 0           
7 Unknown 11 ACIS 5.0 NT 24 Fri Mar 26 02:54:51 1999 
-1 9.9999999999999995e-007 1e-010 
body $-1 $6 $-1 $7 #
body $-1 $8 $-1 $9 #
body $-1 $10 $-1 $11 #
body $-1 $12 $-1 $13 #
body $-1 $14 $-1 $15 #
body $-1 $16 $-1 $17 #
lump $-1 $-1 $18 $0 #
transform $-1 1 0 0 0 1 0 0 0 1 44.09680471205786 22.165349660618237 5.5201982453527974 1 rotate no_reflect no_shear #
lump $-1 $-1 $19 $1 #
transform $-1 1 0 0 0 1 0 0 0 1 44.09680471205786 22.165349660618237 5.5201982453527974 1 rotate no_reflect no_shear #
lump $-1 $-1 $20 $2 #
transform $-1 1 0 0 0 1 0 0 0 1 44.09680471205786 22.165349660618237 5.5201982453527974 1 rotate no_reflect no_shear #
lump $-1 $-1 $21 $3 #
transform $-1 1 0 0 0 1 0 0 0 1 44.09680471205786 22.165349660618237 5.5201982453527974 1 rotate no_reflect no_shear #
lump $-1 $-1 $22 $4 #
transform $-1 1 0 0 0 1 0 0 0 1 44.09680471205786 22.165349660618237 5.5201982453527974 1 rotate no_reflect no_shear #
lump $-1 $-1 $23 $5 #
transform $-1 1 0 0 0 1 0 0 0 1 44.09680471205786 22.165349660618237 5.5201982453527974 1 rotate no_reflect no_shear #
shell $-1 $-1 $-1 $24 $-1 $6 #
shell $-1 $-1 $-1 $25 $-1 $8 #
shell $-1 $-1 $-1 $26 $-1 $10 #
shell $-1 $-1 $-1 $27 $-1 $12 #
shell $-1 $-1 $-1 $28 $-1 $14 #
shell $-1 $-1 $-1 $29 $-1 $16 #
face $-1 $30 $31 $18 $-1 $32 forward single #
face $-1 $33 $34 $19 $-1 $35 forward single #
face $-1 $36 $37 $20 $-1 $38 forward single #
face $-1 $39 $40 $21 $-1 $41 reversed single #
face $-1 $42 $43 $22 $-1 $44 forward single #
face $-1 $45 $46 $23 $-1 $47 forward single #
face $-1 $48 $49 $18 $-1 $50 reversed single #
loop $-1 $-1 $51 $24 #
plane-surface $-1 0 0 5.5201982453527974 0 0 1 1 0 0 forward_v I I I I #
face $-1 $52 $53 $19 $-1 $54 reversed single #
loop $-1 $-1 $55 $25 #
plane-surface $-1 -44.09680471205786 0 0 1 0 0 0 0 -1 forward_v I I I I #
face $-1 $56 $57 $20 $-1 $58 forward single #
loop $-1 $-1 $59 $26 #
plane-surface $-1 44.09680471205786 0 0 -1 0 0 0 0 1 forward_v I I I I #
face $-1 $60 $61 $21 $-1 $62 reversed single #
loop $-1 $-1 $63 $27 #
plane-surface $-1 10.895702816736566 29.589591389090298 99.219338602381654 1 0 0 0 -0.51503808176128008 -0.85716729658548041 forward_v I I I I #
face $-1 $64 $65 $22 $-1 $66 forward single #
loop $-1 $67 $68 $28 #
cone-surface $-1 17.174195594604306 17.683114859929212 2.2457348611435499 0 -0.51503808176128008 -0.85716729658548041 1 0 0 1 I I 0 1 1 forward I I I I #
face $-1 $69 $70 $23 $-1 $71 forward single #
loop $-1 $72 $73 $29 #
cone-surface $-1 26.591934761405909 17.683114859929212 2.2457348611435499 0 -0.51503808176128008 -0.85716729658548041 1 0 0 1 I I 0 1 1 forward I I I I #
face $-1 $74 $75 $18 $-1 $76 reversed single #
loop $-1 $-1 $77 $30 #
plane-surface $-1 0 0 -5.5201982453527974 0 0 1 1 0 0 forward_v I I I I #
coedge $-1 $78 $79 $80 $81 forward $31 $-1 #
face $-1 $82 $83 $19 $-1 $84 reversed single #
loop $-1 $-1 $85 $33 #
plane-surface $-1 0 22.165349660618237 0 0 -1 0 0 0 -1 forward_v I I I I #
coedge $-1 $86 $87 $88 $89 forward $34 $-1 #
face $-1 $90 $91 $20 $-1 $92 reversed single #
loop $-1 $-1 $93 $36 #
plane-surface $-1 0 0 5.5201982453527974 0 0 1 1 0 0 forward_v I I I I #
coedge $-1 $94 $95 $96 $97 forward $37 $-1 #
face $-1 $98 $99 $21 $-1 $100 reversed single #
loop $-1 $-1 $101 $39 #
plane-surface $-1 21.883065178005097 -15.833476032309814 23.62266083619663 0 0.51503808176128008 0.85716729658548041 1 0 0 forward_v I I I I #
coedge $-1 $102 $103 $104 $105 reversed $40 $-1 #
face $-1 $-1 $106 $22 $-1 $107 forward single #
loop $-1 $108 $109 $42 #
cone-surface $-1 17.174195594604306 16.878995602573202 0.90745570399250486 0 -0.51503808176128008 -0.85716729658548041 0.5 0 0 1 I I -0.70710678118654746 0.70710678118654746 0.5 forward I I I I #
loop $-1 $-1 $110 $28 #
coedge $-1 $68 $68 $111 $112 reversed $43 $-1 #
face $-1 $-1 $113 $23 $-1 $114 forward single #
loop $-1 $115 $116 $45 #
cone-surface $-1 26.591934761405909 16.878995602573202 0.90745570399250486 0 -0.51503808176128008 -0.85716729658548041 0.5 0 0 1 I I -0.70710678118654746 0.70710678118654746 0.5 forward I I I I #
loop $-1 $-1 $117 $29 #
coedge $-1 $73 $73 $118 $119 reversed $46 $-1 #
face $-1 $120 $121 $18 $-1 $122 reversed single #
loop $-1 $-1 $123 $48 #
plane-surface $-1 0 -22.165349660618237 0 0 1 0 0 0 1 forward_v I I I I #
coedge $-1 $124 $125 $126 $127 forward $49 $-1 #
coedge $-1 $128 $51 $129 $130 forward $31 $-1 #
coedge $-1 $51 $128 $131 $132 forward $31 $-1 #
coedge $-1 $133 $134 $51 $81 reversed $135 $-1 #
edge $-1 $136 -22.165349660618237 $137 22.165349660618237 $80 $138 forward 7 unknown #
face $-1 $139 $140 $19 $-1 $141 reversed single #
loop $-1 $-1 $88 $52 #
plane-surface $-1 -47.629891633894985 0 2.5201982453527974 0 0 1 1 0 0 forward_v I I I I #
coedge $-1 $142 $143 $86 $144 forward $53 $-1 #
coedge $-1 $145 $55 $85 $144 reversed $34 $-1 #
coedge $-1 $55 $145 $146 $147 reversed $34 $-1 #
coedge $-1 $148 $149 $55 $89 reversed $83 $-1 #
edge $-1 $150 -22.165349660618237 $151 22.165349660618237 $88 $152 forward 7 unknown #
face $-1 $153 $154 $20 $-1 $155 reversed single #
loop $-1 $-1 $156 $56 #
plane-surface $-1 0 -22.165349660618237 0 0 1 0 0 0 1 forward_v I I I I #
coedge $-1 $157 $158 $159 $160 forward $57 $-1 #
coedge $-1 $159 $59 $156 $161 reversed $37 $-1 #
coedge $-1 $59 $159 $162 $163 reversed $37 $-1 #
coedge $-1 $164 $165 $59 $97 reversed $154 $-1 #
edge $-1 $166 -22.165349660618237 $167 22.165349660618237 $96 $168 forward 7 unknown #
face $-1 $169 $170 $21 $-1 $171 reversed single #
loop $-1 $-1 $172 $60 #
plane-surface $-1 32.870427539273628 29.589591389090298 99.219338602381654 -1 0 0 0 0.51503808176128008 0.85716729658548041 forward_v I I I I #
coedge $-1 $173 $174 $175 $176 reversed $61 $-1 #
coedge $-1 $103 $63 $177 $178 reversed $40 $-1 #
coedge $-1 $63 $102 $173 $179 reversed $40 $-1 #
coedge $-1 $175 $180 $63 $105 forward $181 $-1 #
edge $-1 $182 -7.3705539660730874 $183 0.50071520235422362 $104 $184 forward 7 unknown #
loop $-1 $-1 $111 $64 #
plane-surface $-1 21.883065178005097 -15.833476032309814 23.62266083619663 0 0.51503808176128008 0.85716729658548041 1 0 0 forward_v I I I I #
loop $-1 $-1 $185 $42 #
coedge $-1 $109 $109 $110 $186 reversed $65 $-1 #
coedge $-1 $110 $110 $109 $186 forward $67 $-1 #
coedge $-1 $111 $111 $68 $112 forward $106 $-1 #
edge $-1 $187 6.8616856431617635e-016 $187 6.2831853071796013 $111 $188 forward 7 unknown #
loop $-1 $-1 $118 $69 #
plane-surface $-1 21.883065178005097 -15.833476032309814 23.62266083619663 0 0.51503808176128008 0.85716729658548041 1 0 0 forward_v I I I I #
loop $-1 $-1 $189 $45 #
coedge $-1 $116 $116 $117 $190 reversed $70 $-1 #
coedge $-1 $117 $117 $116 $190 forward $72 $-1 #
coedge $-1 $118 $118 $73 $119 forward $113 $-1 #
edge $-1 $191 6.8616856431617635e-016 $191 6.2831853071796013 $118 $192 forward 7 unknown #
face $-1 $193 $194 $18 $-1 $195 reversed single #
loop $-1 $-1 $196 $74 #
plane-surface $-1 -44.09680471205786 0 0 1 0 0 0 0 -1 forward_v I I I I #
coedge $-1 $197 $131 $198 $199 forward $75 $-1 #
coedge $-1 $200 $77 $197 $201 forward $49 $-1 #
coedge $-1 $77 $200 $202 $203 forward $49 $-1 #
coedge $-1 $134 $133 $77 $127 reversed $135 $-1 #
edge $-1 $204 -22.165349660618237 $205 22.165349660618237 $126 $206 forward 7 unknown #
coedge $-1 $79 $78 $207 $208 forward $31 $-1 #
coedge $-1 $209 $210 $78 $130 reversed $194 $-1 #
edge $-1 $137 -44.09680471205786 $211 44.09680471205786 $129 $212 forward 7 unknown #
coedge $-1 $123 $213 $79 $132 reversed $75 $-1 #
edge $-1 $214 -44.09680471205786 $136 44.09680471205786 $131 $215 forward 7 unknown #
coedge $-1 $126 $80 $213 $216 forward $135 $-1 #
coedge $-1 $80 $126 $209 $217 reversed $135 $-1 #
loop $-1 $-1 $133 $193 #
vertex $-1 $81 $218 #
vertex $-1 $81 $219 #
straight-curve $-1 44.09680471205786 0 5.5201982453527974 0 1 0 I I #
face $-1 $220 $221 $19 $-1 $222 forward single #
loop $-1 $-1 $223 $82 #
plane-surface $-1 -51.16297855573211 0 4.0201982453527974 1 0 0 0 0 -1 forward_v I I I I #
coedge $-1 $224 $85 $149 $225 reversed $53 $-1 #
coedge $-1 $85 $224 $226 $227 reversed $53 $-1 #
edge $-1 $228 -5.5201982453527974 $151 -2.5201982453527974 $85 $229 forward 7 unknown #
coedge $-1 $87 $86 $230 $231 reversed $34 $-1 #
coedge $-1 $232 $233 $87 $147 forward $234 $-1 #
edge $-1 $150 2.5201982453527974 $235 5.5201982453527974 $146 $236 forward 7 unknown #
coedge $-1 $237 $88 $233 $238 forward $83 $-1 #
coedge $-1 $88 $237 $142 $225 forward $83 $-1 #
vertex $-1 $147 $239 #
vertex $-1 $144 $240 #
straight-curve $-1 -44.09680471205786 0 2.5201982453527974 0 1 0 I I #
face $-1 $241 $242 $20 $-1 $243 reversed single #
loop $-1 $-1 $244 $90 #
plane-surface $-1 47.629891633894985 0 2.5201982453527974 0 0 1 1 0 0 forward_v I I I I #
coedge $-1 $245 $246 $94 $161 forward $91 $-1 #
coedge $-1 $247 $93 $246 $248 forward $57 $-1 #
coedge $-1 $93 $247 $249 $250 forward $57 $-1 #
coedge $-1 $95 $94 $93 $160 reversed $37 $-1 #
edge $-1 $251 -22.165349660618237 $252 22.165349660618237 $93 $253 forward 7 unknown #
edge $-1 $252 -5.5201982453527974 $167 -2.5201982453527974 $156 $254 forward 7 unknown #
coedge $-1 $249 $255 $95 $163 forward $256 $-1 #
edge $-1 $166 2.5201982453527974 $251 5.5201982453527974 $162 $257 forward 7 unknown #
coedge $-1 $244 $96 $255 $258 forward $154 $-1 #
coedge $-1 $96 $244 $245 $259 forward $154 $-1 #
vertex $-1 $163 $260 #
vertex $-1 $161 $261 #
straight-curve $-1 44.09680471205786 0 2.5201982453527974 0 -1 0 I I #
face $-1 $-1 $181 $21 $-1 $262 forward single #
loop $-1 $-1 $263 $98 #
plane-surface $-1 0 22.165349660618237 0 0 -1 0 0 0 -1 forward_v I I I I #
coedge $-1 $264 $265 $266 $267 reversed $99 $-1 #
coedge $-1 $268 $101 $103 $179 forward $61 $-1 #
coedge $-1 $101 $268 $264 $269 forward $61 $-1 #
coedge $-1 $266 $104 $101 $176 forward $181 $-1 #
edge $-1 $183 -0.045829772265982172 $270 21.928894950271079 $175 $271 forward 7 unknown #
coedge $-1 $272 $273 $102 $178 forward $170 $-1 #
edge $-1 $274 -48.819006806539903 $182 -44.089471055838032 $177 $275 forward 7 unknown #
edge $-1 $183 35.147813786776091 $274 44.330699321236466 $103 $276 forward 7 unknown #
coedge $-1 $104 $266 $272 $277 forward $181 $-1 #
loop $-1 $-1 $266 $169 #
vertex $-1 $178 $278 #
vertex $-1 $105 $279 #
straight-curve $-1 10.895702816736566 14.794795694545149 5.5201982453527947 0 -1 0 I I #
coedge $-1 $185 $185 $-1 $280 reversed $108 $-1 #
edge $-1 $281 0 $281 6.2831853071796004 $109 $282 forward 7 unknown #
vertex $-1 $112 $283 #
ellipse-curve $-1 17.174195594604306 18.229715076404585 3.1554303700018567 0 0.51503808176128008 0.85716729658548041 1 0 0 1 I I #
coedge $-1 $189 $189 $-1 $284 reversed $115 $-1 #
edge $-1 $285 0 $285 6.2831853071796004 $116 $286 forward 7 unknown #
vertex $-1 $119 $287 #
ellipse-curve $-1 26.591934761405909 18.229715076404585 3.1554303700018567 0 0.51503808176128008 0.85716729658548041 1 0 0 1 I I #
face $-1 $-1 $135 $18 $-1 $288 reversed single #
loop $-1 $-1 $209 $120 #
plane-surface $-1 0 22.165349660618237 0 0 -1 0 0 0 -1 forward_v I I I I #
coedge $-1 $289 $207 $210 $290 forward $121 $-1 #
coedge $-1 $213 $123 $124 $201 reversed $75 $-1 #
coedge $-1 $207 $289 $123 $199 reversed $121 $-1 #
edge $-1 $214 -5.5201982453527974 $291 5.5201982453527974 $198 $292 forward 7 unknown #
coedge $-1 $125 $124 $289 $293 forward $49 $-1 #
edge $-1 $205 -44.09680471205786 $291 44.09680471205786 $197 $294 forward 7 unknown #
coedge $-1 $210 $209 $125 $203 reversed $194 $-1 #
edge $-1 $295 -44.09680471205786 $204 44.09680471205786 $202 $296 forward 7 unknown #
vertex $-1 $127 $297 #
vertex $-1 $216 $298 #
straight-curve $-1 44.09680471205786 0 -5.5201982453527974 0 -1 0 I I #
coedge $-1 $196 $198 $128 $208 reversed $121 $-1 #
edge $-1 $211 -22.165349660618237 $214 22.165349660618237 $207 $299 forward 7 unknown #
coedge $-1 $202 $129 $134 $217 forward $194 $-1 #
coedge $-1 $129 $202 $196 $290 reversed $194 $-1 #
vertex $-1 $130 $300 #
straight-curve $-1 0 22.165349660618237 5.5201982453527974 -1 0 0 I I #
coedge $-1 $131 $197 $133 $216 reversed $75 $-1 #
vertex $-1 $208 $301 #
straight-curve $-1 0 -22.165349660618237 5.5201982453527974 1 0 0 I I #
edge $-1 $136 -5.5201982453527974 $205 5.5201982453527974 $133 $302 forward 7 unknown #
edge $-1 $137 -5.5201982453527974 $204 5.5201982453527974 $134 $303 forward 7 unknown #
point $-1 44.09680471205786 -22.165349660618237 5.5201982453527974 #
point $-1 44.09680471205786 22.165349660618237 5.5201982453527974 #
face $-1 $-1 $234 $19 $-1 $304 reversed single #
loop $-1 $-1 $230 $139 #
plane-surface $-1 0 0 5.5201982453527974 0 0 1 1 0 0 forward_v I I I I #
coedge $-1 $305 $306 $224 $307 forward $140 $-1 #
coedge $-1 $143 $142 $223 $307 reversed $53 $-1 #
edge $-1 $308 -3.5330869218371248 $151 3.5330869218371248 $142 $309 forward 7 unknown #
coedge $-1 $310 $230 $143 $227 forward $221 $-1 #
edge $-1 $228 44.09680471205786 $311 51.16297855573211 $143 $312 forward 7 unknown #
vertex $-1 $227 $313 #
straight-curve $-1 -44.09680471205786 22.165349660618237 0 0 0 -1 I I #
coedge $-1 $226 $314 $145 $231 forward $221 $-1 #
edge $-1 $235 -22.165349660618237 $228 22.165349660618237 $230 $315 forward 7 unknown #
coedge $-1 $316 $146 $314 $317 reversed $234 $-1 #
coedge $-1 $146 $316 $148 $238 reversed $234 $-1 #
loop $-1 $-1 $146 $220 #
vertex $-1 $147 $318 #
straight-curve $-1 -44.09680471205786 -22.165349660618237 0 0 0 1 I I #
coedge $-1 $149 $148 $305 $319 forward $83 $-1 #
edge $-1 $150 -3.5330869218371248 $320 3.5330869218371248 $233 $321 forward 7 unknown #
point $-1 -44.09680471205786 -22.165349660618237 2.5201982453527974 #
point $-1 -44.09680471205786 22.165349660618237 2.5201982453527974 #
face $-1 $-1 $256 $20 $-1 $322 reversed single #
loop $-1 $-1 $323 $153 #
plane-surface $-1 51.16297855573211 0 4.0201982453527974 -1 0 0 0 0 1 forward_v I I I I #
coedge $-1 $165 $164 $324 $325 forward $154 $-1 #
coedge $-1 $326 $156 $165 $259 reversed $91 $-1 #
coedge $-1 $156 $326 $157 $248 reversed $91 $-1 #
coedge $-1 $158 $157 $327 $328 forward $57 $-1 #
edge $-1 $252 -3.5330869218371248 $329 3.5330869218371248 $246 $330 forward 7 unknown #
coedge $-1 $331 $162 $158 $250 reversed $256 $-1 #
edge $-1 $332 -51.16297855573211 $251 -44.09680471205786 $249 $333 forward 7 unknown #
vertex $-1 $163 $334 #
vertex $-1 $248 $335 #
straight-curve $-1 44.09680471205786 0 5.5201982453527974 0 -1 0 I I #
straight-curve $-1 44.09680471205786 -22.165349660618237 0 0 0 -1 I I #
coedge $-1 $162 $331 $164 $258 reversed $256 $-1 #
loop $-1 $-1 $162 $241 #
straight-curve $-1 44.09680471205786 22.165349660618237 0 0 0 1 I I #
edge $-1 $166 -3.5330869218371248 $336 3.5330869218371248 $255 $337 forward 7 unknown #
edge $-1 $338 -3.5330869218371248 $167 3.5330869218371248 $245 $339 forward 7 unknown #
point $-1 44.09680471205786 22.165349660618237 2.5201982453527974 #
point $-1 44.09680471205786 -22.165349660618237 2.5201982453527974 #
plane-surface $-1 0 0 5.5201982453527974 0 0 1 1 0 0 forward_v I I I I #
coedge $-1 $273 $272 $265 $340 forward $170 $-1 #
coedge $-1 $265 $172 $174 $269 reversed $99 $-1 #
coedge $-1 $172 $264 $263 $340 reversed $99 $-1 #
coedge $-1 $180 $175 $172 $267 forward $181 $-1 #
edge $-1 $270 -0.50071520235422362 $341 7.3705539660730874 $266 $342 forward 7 unknown #
coedge $-1 $174 $173 $273 $343 reversed $61 $-1 #
edge $-1 $344 -44.330699321236466 $270 -35.147813786776091 $264 $345 forward 7 unknown #
vertex $-1 $176 $346 #
straight-curve $-1 10.941532589002549 14.294080492190927 5.5201982453527982 1 0 0 I I #
coedge $-1 $263 $177 $180 $277 reversed $170 $-1 #
coedge $-1 $177 $263 $268 $343 forward $170 $-1 #
vertex $-1 $178 $347 #
straight-curve $-1 10.895702816736566 22.165349660618237 49.609669301190827 0 0 1 I I #
straight-curve $-1 10.895702816736566 -15.833476032309814 23.62266083619663 0 0.85716729658548041 -0.51503808176128008 I I #
edge $-1 $341 -32.870427539273628 $182 -10.895702816736566 $272 $348 forward 7 unknown #
point $-1 10.895702816736566 22.165349660618237 5.5201982453527974 #
point $-1 10.895702816736566 14.294080492190925 5.5201982453527982 #
edge $-1 $349 1 $349 0 $185 $-1 forward 7 unknown #
vertex $-1 $186 $350 #
ellipse-curve $-1 17.174195594604306 17.136514643453843 1.336039352285245 0 0.51503808176128008 0.85716729658548041 1 0 0 1 I I #
point $-1 18.174195594604306 18.229715076404585 3.1554303700018553 #
edge $-1 $351 1 $351 0 $189 $-1 forward 7 unknown #
vertex $-1 $190 $352 #
ellipse-curve $-1 26.591934761405909 17.136514643453843 1.336039352285245 0 0.51503808176128008 0.85716729658548041 1 0 0 1 I I #
point $-1 27.591934761405909 18.229715076404585 3.1554303700018553 #
plane-surface $-1 44.09680471205786 0 0 -1 0 0 0 0 1 forward_v I I I I #
coedge $-1 $198 $196 $200 $293 reversed $121 $-1 #
edge $-1 $211 -5.5201982453527974 $295 5.5201982453527974 $210 $353 forward 7 unknown #
vertex $-1 $293 $354 #
straight-curve $-1 -44.09680471205786 -22.165349660618237 0 0 0 -1 I I #
edge $-1 $291 -22.165349660618237 $295 22.165349660618237 $289 $355 forward 7 unknown #
straight-curve $-1 0 -22.165349660618237 -5.5201982453527974 -1 0 0 I I #
vertex $-1 $203 $356 #
straight-curve $-1 0 22.165349660618237 -5.5201982453527974 1 0 0 I I #
point $-1 44.09680471205786 22.165349660618237 -5.5201982453527974 #
point $-1 44.09680471205786 -22.165349660618237 -5.5201982453527974 #
straight-curve $-1 -44.09680471205786 0 5.5201982453527974 0 -1 0 I I #
point $-1 -44.09680471205786 22.165349660618237 5.5201982453527974 #
point $-1 -44.09680471205786 -22.165349660618237 5.5201982453527974 #
straight-curve $-1 44.09680471205786 -22.165349660618237 0 0 0 -1 I I #
straight-curve $-1 44.09680471205786 22.165349660618237 0 0 0 -1 I I #
plane-surface $-1 0 -22.165349660618237 0 0 1 0 0 0 1 forward_v I I I I #
coedge $-1 $357 $223 $237 $319 reversed $140 $-1 #
coedge $-1 $223 $357 $310 $358 reversed $140 $-1 #
edge $-1 $311 -1.5 $308 1.5 $224 $359 forward 7 unknown #
vertex $-1 $225 $360 #
straight-curve $-1 -47.629891633894985 22.165349660618237 2.5201982453527974 1 0 0 I I #
coedge $-1 $314 $226 $306 $358 forward $221 $-1 #
vertex $-1 $227 $361 #
straight-curve $-1 0 22.165349660618237 5.5201982453527974 -1 0 0 I I #
point $-1 -44.09680471205786 22.165349660618237 5.5201982453527974 #
coedge $-1 $230 $310 $232 $317 forward $221 $-1 #
straight-curve $-1 -44.09680471205786 0 5.5201982453527974 0 1 0 I I #
coedge $-1 $233 $232 $357 $362 forward $234 $-1 #
edge $-1 $363 -51.16297855573211 $235 -44.09680471205786 $232 $364 forward 7 unknown #
point $-1 -44.09680471205786 -22.165349660618237 5.5201982453527974 #
edge $-1 $320 -22.165349660618237 $308 22.165349660618237 $305 $365 forward 7 unknown #
vertex $-1 $319 $366 #
straight-curve $-1 -47.629891633894985 -22.165349660618237 2.5201982453527974 -1 0 0 I I #
plane-surface $-1 0 22.165349660618237 0 0 -1 0 0 0 -1 forward_v I I I I #
coedge $-1 $324 $327 $326 $367 forward $242 $-1 #
coedge $-1 $368 $323 $244 $325 reversed $242 $-1 #
edge $-1 $336 -22.165349660618237 $338 22.165349660618237 $324 $369 forward 7 unknown #
coedge $-1 $246 $245 $323 $367 reversed $91 $-1 #
coedge $-1 $323 $368 $247 $328 reversed $242 $-1 #
edge $-1 $329 -22.165349660618237 $332 22.165349660618237 $327 $370 forward 7 unknown #
vertex $-1 $328 $371 #
straight-curve $-1 47.629891633894985 -22.165349660618237 5.5201982453527974 1 0 0 I I #
coedge $-1 $255 $249 $368 $372 forward $256 $-1 #
vertex $-1 $328 $373 #
straight-curve $-1 0 22.165349660618237 5.5201982453527974 -1 0 0 I I #
point $-1 44.09680471205786 22.165349660618237 5.5201982453527974 #
point $-1 44.09680471205786 -22.165349660618237 5.5201982453527974 #
vertex $-1 $325 $374 #
straight-curve $-1 47.629891633894985 22.165349660618237 2.5201982453527974 1 0 0 I I #
vertex $-1 $367 $375 #
straight-curve $-1 47.629891633894985 -22.165349660618237 2.5201982453527974 -1 0 0 I I #
edge $-1 $341 44.089471055838032 $344 48.819006806539903 $263 $376 forward 7 unknown #
vertex $-1 $277 $377 #
straight-curve $-1 32.870427539273628 14.794795694545149 5.5201982453527947 0 1 0 I I #
edge $-1 $344 -21.928894950271079 $274 0.045829772265982172 $273 $378 forward 7 unknown #
vertex $-1 $343 $379 #
straight-curve $-1 32.870427539273628 -15.833476032309814 23.62266083619663 0 -0.85716729658548041 0.51503808176128008 I I #
point $-1 32.870427539273628 14.294080492190925 5.5201982453527982 #
point $-1 10.895702816736566 22.165349660618237 0.79066249465092042 #
straight-curve $-1 0 22.165349660618237 5.5201982453527974 -1 0 0 I I #
vertex $-1 $280 $380 #
point $-1 18.174195594604306 17.136514643453843 1.336039352285245 #
vertex $-1 $284 $381 #
point $-1 27.591934761405909 17.136514643453843 1.336039352285245 #
straight-curve $-1 -44.09680471205786 22.165349660618237 0 0 0 -1 I I #
point $-1 -44.09680471205786 -22.165349660618237 -5.5201982453527974 #
straight-curve $-1 -44.09680471205786 0 -5.5201982453527974 0 1 0 I I #
point $-1 -44.09680471205786 22.165349660618237 -5.5201982453527974 #
coedge $-1 $306 $305 $316 $362 reversed $140 $-1 #
edge $-1 $311 -22.165349660618237 $363 22.165349660618237 $306 $382 forward 7 unknown #
straight-curve $-1 -51.16297855573211 22.165349660618237 4.0201982453527974 0 0 -1 I I #
point $-1 -51.16297855573211 22.165349660618237 2.5201982453527974 #
point $-1 -51.16297855573211 22.165349660618237 5.5201982453527974 #
edge $-1 $363 -1.5 $320 1.5 $357 $383 forward 7 unknown #
vertex $-1 $358 $384 #
straight-curve $-1 0 -22.165349660618237 5.5201982453527974 1 0 0 I I #
straight-curve $-1 -51.16297855573211 0 2.5201982453527974 0 1 0 I I #
point $-1 -51.16297855573211 -22.165349660618237 2.5201982453527974 #
edge $-1 $329 -1.5 $338 1.5 $323 $385 forward 7 unknown #
coedge $-1 $327 $324 $331 $372 reversed $242 $-1 #
straight-curve $-1 51.16297855573211 0 2.5201982453527974 0 -1 0 I I #
straight-curve $-1 51.16297855573211 0 5.5201982453527974 0 1 0 I I #
point $-1 51.16297855573211 -22.165349660618237 5.5201982453527974 #
edge $-1 $332 -1.5 $336 1.5 $368 $386 forward 7 unknown #
point $-1 51.16297855573211 22.165349660618237 5.5201982453527974 #
point $-1 51.16297855573211 22.165349660618237 2.5201982453527974 #
point $-1 51.16297855573211 -22.165349660618237 2.5201982453527974 #
straight-curve $-1 32.870427539273628 22.165349660618237 49.609669301190827 0 0 -1 I I #
point $-1 32.870427539273628 22.165349660618237 5.5201982453527974 #
straight-curve $-1 10.941532589002549 22.165349660618237 0.7906624946509222 -1 0 0 I I #
point $-1 32.870427539273628 22.165349660618237 0.79066249465092042 #
point $-1 17.174195594604306 16.62147656169256 0.47887205569976465 #
point $-1 26.591934761405909 16.62147656169256 0.47887205569976465 #
straight-curve $-1 -51.16297855573211 0 5.5201982453527974 0 -1 0 I I #
straight-curve $-1 -51.16297855573211 -22.165349660618237 4.0201982453527974 0 0 -1 I I #
point $-1 -51.16297855573211 -22.165349660618237 5.5201982453527974 #
straight-curve $-1 51.16297855573211 -22.165349660618237 4.0201982453527974 0 0 -1 I I #
straight-curve $-1 51.16297855573211 22.165349660618237 4.0201982453527974 0 0 -1 I I #
End-of-ACIS-data 