500 0 11 0           
7 Unknown 11 ACIS 5.0 NT 24 Fri Mar 26 15:04:25 1999 
-1 9.9999999999999995e-007 1e-010 
body $-1 $11 $-1 $12 #
body $-1 $13 $-1 $14 #
body $-1 $15 $-1 $16 #
body $-1 $17 $-1 $18 #
body $-1 $19 $-1 $20 #
body $-1 $21 $-1 $22 #
body $-1 $23 $-1 $24 #
body $-1 $25 $-1 $26 #
body $-1 $27 $-1 $28 #
body $-1 $29 $-1 $30 #
body $-1 $31 $-1 $32 #
lump $-1 $-1 $33 $0 #
transform $-1 1 0 0 0 1 0 0 0 1 62.298043763542594 27.444258916664968 12.880383793143473 1 rotate no_reflect no_shear #
lump $-1 $-1 $34 $1 #
transform $-1 1 0 0 0 1 0 0 0 1 62.298043763542594 27.444258916664968 12.880383793143473 1 rotate no_reflect no_shear #
lump $-1 $-1 $35 $2 #
transform $-1 1 0 0 0 1 0 0 0 1 62.298043763542594 27.444258916664968 12.880383793143473 1 rotate no_reflect no_shear #
lump $-1 $-1 $36 $3 #
transform $-1 1 0 0 0 1 0 0 0 1 62.298043763542594 27.444258916664968 12.880383793143473 1 rotate no_reflect no_shear #
lump $-1 $-1 $37 $4 #
transform $-1 1 0 0 0 1 0 0 0 1 62.298043763542594 27.444258916664968 12.880383793143473 1 rotate no_reflect no_shear #
lump $-1 $-1 $38 $5 #
transform $-1 1 0 0 0 1 0 0 0 1 62.298043763542594 27.444258916664968 12.880383793143473 1 rotate no_reflect no_shear #
lump $-1 $-1 $39 $6 #
transform $-1 1 0 0 0 1 0 0 0 1 62.298043763542594 27.444258916664968 12.880383793143473 1 rotate no_reflect no_shear #
lump $-1 $-1 $40 $7 #
transform $-1 1 0 0 0 1 0 0 0 1 62.298043763542594 27.444258916664968 12.880383793143473 1 rotate no_reflect no_shear #
lump $-1 $-1 $41 $8 #
transform $-1 1 0 0 0 1 0 0 0 1 62.298043763542594 27.444258916664968 12.880383793143473 1 rotate no_reflect no_shear #
lump $-1 $-1 $42 $9 #
transform $-1 1 0 0 0 1 0 0 0 1 62.298043763542594 27.444258916664968 12.880383793143473 1 rotate no_reflect no_shear #
lump $-1 $-1 $43 $10 #
transform $-1 1 0 0 0 1 0 0 0 1 62.298043763542594 27.444258916664968 12.880383793143473 1 rotate no_reflect no_shear #
shell $-1 $-1 $-1 $44 $-1 $11 #
shell $-1 $-1 $-1 $45 $-1 $13 #
shell $-1 $-1 $-1 $46 $-1 $15 #
shell $-1 $-1 $-1 $47 $-1 $17 #
shell $-1 $-1 $-1 $48 $-1 $19 #
shell $-1 $-1 $-1 $49 $-1 $21 #
shell $-1 $-1 $-1 $50 $-1 $23 #
shell $-1 $-1 $-1 $51 $-1 $25 #
shell $-1 $-1 $-1 $52 $-1 $27 #
shell $-1 $-1 $-1 $53 $-1 $29 #
shell $-1 $-1 $-1 $54 $-1 $31 #
face $-1 $55 $56 $33 $-1 $57 forward single #
face $-1 $58 $59 $34 $-1 $60 reversed single #
face $-1 $61 $62 $35 $-1 $63 reversed single #
face $-1 $64 $65 $36 $-1 $66 forward single #
face $-1 $67 $68 $37 $-1 $69 forward single #
face $-1 $70 $71 $38 $-1 $72 reversed single #
face $-1 $73 $74 $39 $-1 $75 forward single #
face $-1 $76 $77 $40 $-1 $78 forward single #
face $-1 $79 $80 $41 $-1 $81 reversed single #
face $-1 $82 $83 $42 $-1 $84 forward single #
face $-1 $85 $86 $43 $-1 $87 forward single #
face $-1 $88 $89 $33 $-1 $90 reversed single #
loop $-1 $-1 $91 $44 #
plane-surface $-1 0 0 12.880383793143473 0 0 1 1 0 0 forward_v I I I I #
face $-1 $92 $93 $34 $-1 $94 reversed single #
loop $-1 $-1 $95 $45 #
plane-surface $-1 -59.964228442693198 -11.1978995027153 0 0 -1 0 0 0 -1 forward_v I I I I #
face $-1 $96 $97 $35 $-1 $98 reversed single #
loop $-1 $-1 $99 $46 #
plane-surface $-1 65.373255450668253 1.3210625218678054 180.65069926652748 0 -1 0 -0.71933980857756763 0 -0.69465836192734942 forward_v I I I I #
face $-1 $100 $101 $36 $-1 $102 forward single #
loop $-1 $103 $104 $47 #
cone-surface $-1 57.272949162937337 -4.5295368102422344 7.7441557567584809 -0.71933980857756763 0 -0.69465836192734942 0.69465836192734942 0 -0.71933980857756763 1 I I 0 1 1 forward I I I I #
face $-1 $105 $106 $37 $-1 $107 forward single #
loop $-1 $108 $109 $48 #
cone-surface $-1 57.272949162937337 -1.0191772109762098 7.7441557567584809 -0.71933980857756763 0 -0.69465836192734942 0.69465836192734942 0 -0.71933980857756763 1 I I 0 1 1 forward I I I I #
face $-1 $110 $111 $38 $-1 $112 reversed single #
loop $-1 $-1 $113 $49 #
plane-surface $-1 -171.27223829724636 0.96112846732522961 61.129063171652056 0 1 0 -0.87461971476443456 0 0.48480960649040278 forward_v I I I I #
face $-1 $114 $115 $39 $-1 $116 forward single #
loop $-1 $117 $118 $50 #
cone-surface $-1 -57.520644729194018 3.0074288215108318 6.0215028060531495 0.87461971476443456 0 -0.48480960649040278 0.48480960649040278 0 0.87461971476443456 1 I I 0 1 1 forward I I I I #
face $-1 $119 $120 $40 $-1 $121 forward single #
loop $-1 $122 $123 $51 #
cone-surface $-1 -57.520644729194018 6.0768793527892306 6.0215028060531495 0.87461971476443456 0 -0.48480960649040278 0.48480960649040278 0 0.87461971476443456 1 I I 0 1 1 forward I I I I #
face $-1 $124 $125 $41 $-1 $126 reversed single #
loop $-1 $-1 $127 $52 #
plane-surface $-1 -62.29804376354258 4.5421540871500277 0.72368300740209435 -0.87461971476443456 0 0.48480960649040278 0.48480960649040278 0 0.87461971476443456 forward_v I I I I #
face $-1 $128 $129 $42 $-1 $130 forward single #
loop $-1 $131 $132 $53 #
cone-surface $-1 -57.520644729194018 10.169480061160431 6.0215028060531495 0.87461971476443456 0 -0.48480960649040278 0.48480960649040278 0 0.87461971476443456 1 I I 0 1 1 forward I I I I #
face $-1 $133 $134 $43 $-1 $135 forward single #
loop $-1 $136 $137 $54 #
cone-surface $-1 -57.520644729194018 13.23893059243883 6.0215028060531495 0.87461971476443456 0 -0.48480960649040278 0.48480960649040278 0 0.87461971476443456 1 I I 0 1 1 forward I I I I #
face $-1 $138 $139 $33 $-1 $140 reversed single #
loop $-1 $-1 $141 $55 #
plane-surface $-1 0 0 -12.880383793143473 0 0 1 1 0 0 forward_v I I I I #
coedge $-1 $142 $143 $144 $145 forward $56 $-1 #
face $-1 $146 $147 $34 $-1 $148 forward single #
loop $-1 $-1 $149 $58 #
plane-surface $-1 -57.630413121843802 -19.321079209690133 0 -1 0 0 0 0 1 forward_v I I I I #
coedge $-1 $150 $151 $152 $153 forward $59 $-1 #
face $-1 $154 $155 $35 $-1 $156 reversed single #
loop $-1 $-1 $157 $61 #
plane-surface $-1 -24.253670300579074 -2.7743570106092221 94.098985202405828 0.71933980857756763 0 0.69465836192734942 0.69465836192734942 0 -0.71933980857756763 forward_v I I I I #
coedge $-1 $158 $159 $160 $161 reversed $62 $-1 #
face $-1 $-1 $162 $36 $-1 $163 forward single #
loop $-1 $164 $165 $64 #
cone-surface $-1 55.948096777676326 -4.5295368102422344 6.4647607104022811 -0.71933980857756763 0 -0.69465836192734942 0.34732918096367471 0 -0.35966990428878381 1 I I -0.70710678118654746 0.70710678118654746 0.5 forward I I I I #
loop $-1 $-1 $166 $47 #
coedge $-1 $104 $104 $167 $168 reversed $65 $-1 #
face $-1 $-1 $169 $37 $-1 $170 forward single #
loop $-1 $171 $172 $67 #
cone-surface $-1 55.948096777676326 -1.0191772109762098 6.4647607104022811 -0.71933980857756763 0 -0.69465836192734942 0.34732918096367471 0 -0.35966990428878381 1 I I -0.70710678118654746 0.70710678118654746 0.5 forward I I I I #
loop $-1 $-1 $173 $48 #
coedge $-1 $109 $109 $174 $175 reversed $68 $-1 #
face $-1 $176 $177 $38 $-1 $178 reversed single #
loop $-1 $-1 $179 $70 #
plane-surface $-1 -62.29804376354258 4.5421540871500277 0.72368300740209435 -0.87461971476443456 0 0.48480960649040278 0.48480960649040278 0 0.87461971476443456 forward_v I I I I #
coedge $-1 $180 $181 $182 $183 reversed $71 $-1 #
face $-1 $-1 $184 $39 $-1 $185 forward single #
loop $-1 $186 $187 $73 #
cone-surface $-1 -55.675220353159403 3.0074288215108318 4.9985674085883147 0.87461971476443456 0 -0.48480960649040278 0.24240480324520139 0 0.43730985738221728 1 I I -0.70710678118654746 0.70710678118654746 0.5 forward I I I I #
loop $-1 $-1 $188 $50 #
coedge $-1 $118 $118 $189 $190 reversed $74 $-1 #
face $-1 $-1 $191 $40 $-1 $192 forward single #
loop $-1 $193 $194 $76 #
cone-surface $-1 -55.675220353159403 6.0768793527892306 4.9985674085883147 0.87461971476443456 0 -0.48480960649040278 0.24240480324520139 0 0.43730985738221728 1 I I -0.70710678118654746 0.70710678118654746 0.5 forward I I I I #
loop $-1 $-1 $195 $51 #
coedge $-1 $123 $123 $196 $197 reversed $77 $-1 #
face $-1 $198 $199 $41 $-1 $200 reversed single #
loop $-1 $-1 $201 $79 #
plane-surface $-1 -171.27223829724636 15.285230946624425 61.129063171652056 0 -1 0 0.87461971476443456 0 -0.48480960649040278 forward_v I I I I #
coedge $-1 $202 $203 $204 $205 reversed $80 $-1 #
face $-1 $-1 $206 $42 $-1 $207 forward single #
loop $-1 $208 $209 $82 #
cone-surface $-1 -55.675220353159403 10.169480061160431 4.9985674085883147 0.87461971476443456 0 -0.48480960649040278 0.24240480324520139 0 0.43730985738221728 1 I I -0.70710678118654746 0.70710678118654746 0.5 forward I I I I #
loop $-1 $-1 $210 $53 #
coedge $-1 $132 $132 $211 $212 reversed $83 $-1 #
face $-1 $-1 $213 $43 $-1 $214 forward single #
loop $-1 $215 $216 $85 #
cone-surface $-1 -55.675220353159403 13.23893059243883 4.9985674085883147 0.87461971476443456 0 -0.48480960649040278 0.24240480324520139 0 0.43730985738221728 1 I I -0.70710678118654746 0.70710678118654746 0.5 forward I I I I #
loop $-1 $-1 $217 $54 #
coedge $-1 $137 $137 $218 $219 reversed $86 $-1 #
face $-1 $220 $221 $33 $-1 $222 reversed single #
loop $-1 $-1 $223 $88 #
plane-surface $-1 0 -27.444258916664968 0 0 1 0 0 0 1 forward_v I I I I #
coedge $-1 $224 $225 $226 $227 forward $89 $-1 #
coedge $-1 $228 $91 $229 $230 forward $56 $-1 #
coedge $-1 $91 $228 $231 $232 forward $56 $-1 #
coedge $-1 $233 $234 $91 $145 reversed $235 $-1 #
edge $-1 $236 -27.444258916664968 $237 27.444258916664968 $144 $238 forward 7 unknown #
face $-1 $239 $240 $34 $-1 $241 reversed single #
loop $-1 $-1 $242 $92 #
plane-surface $-1 0 0 12.880383793143473 0 0 1 1 0 0 forward_v I I I I #
coedge $-1 $243 $244 $245 $246 reversed $93 $-1 #
coedge $-1 $247 $95 $248 $249 reversed $59 $-1 #
coedge $-1 $95 $247 $250 $251 reversed $59 $-1 #
coedge $-1 $244 $243 $95 $153 reversed $93 $-1 #
edge $-1 $252 -12.880383793143473 $253 12.880383793143473 $152 $254 forward 7 unknown #
face $-1 $255 $256 $35 $-1 $257 reversed single #
loop $-1 $-1 $258 $96 #
plane-surface $-1 65.373255450668253 -6.8697765430862496 180.65069926652748 0 1 0 0.71933980857756763 0 0.69465836192734942 forward_v I I I I #
coedge $-1 $259 $260 $261 $262 reversed $97 $-1 #
coedge $-1 $159 $99 $263 $264 reversed $62 $-1 #
coedge $-1 $99 $158 $259 $265 reversed $62 $-1 #
coedge $-1 $261 $266 $99 $161 forward $267 $-1 #
edge $-1 $268 -29.611416038208468 $269 -21.491591798942402 $160 $270 forward 7 unknown #
loop $-1 $-1 $167 $100 #
plane-surface $-1 -24.253670300579074 -2.7743570106092221 94.098985202405828 0.71933980857756763 0 0.69465836192734942 0.69465836192734942 0 -0.71933980857756763 forward_v I I I I #
loop $-1 $-1 $271 $64 #
coedge $-1 $165 $165 $166 $272 reversed $101 $-1 #
coedge $-1 $166 $166 $165 $272 forward $103 $-1 #
coedge $-1 $167 $167 $104 $168 forward $162 $-1 #
edge $-1 $273 0 $273 6.2831853071796004 $167 $274 forward 7 unknown #
loop $-1 $-1 $174 $105 #
plane-surface $-1 -24.253670300579074 -2.7743570106092221 94.098985202405828 0.71933980857756763 0 0.69465836192734942 0.69465836192734942 0 -0.71933980857756763 forward_v I I I I #
loop $-1 $-1 $275 $67 #
coedge $-1 $172 $172 $173 $276 reversed $106 $-1 #
coedge $-1 $173 $173 $172 $276 forward $108 $-1 #
coedge $-1 $174 $174 $109 $175 forward $169 $-1 #
edge $-1 $277 0 $277 6.2831853071796004 $174 $278 forward 7 unknown #
face $-1 $279 $280 $38 $-1 $281 reversed single #
loop $-1 $-1 $282 $110 #
plane-surface $-1 -171.27223829724636 8.1231797069748257 61.129063171652056 0 -1 0 0.87461971476443456 0 -0.48480960649040278 forward_v I I I I #
coedge $-1 $283 $284 $285 $286 reversed $111 $-1 #
coedge $-1 $181 $113 $287 $288 reversed $71 $-1 #
coedge $-1 $113 $180 $283 $289 reversed $71 $-1 #
coedge $-1 $285 $290 $113 $183 forward $291 $-1 #
edge $-1 $292 23.338075385080586 $293 30.076644416472973 $182 $294 forward 7 unknown #
loop $-1 $-1 $189 $114 #
plane-surface $-1 -62.29804376354258 4.5421540871500277 0.72368300740209435 -0.87461971476443456 0 0.48480960649040278 0.48480960649040278 0 0.87461971476443456 forward_v I I I I #
loop $-1 $-1 $295 $73 #
coedge $-1 $187 $187 $188 $296 reversed $115 $-1 #
coedge $-1 $188 $188 $187 $296 forward $117 $-1 #
coedge $-1 $189 $189 $118 $190 forward $184 $-1 #
edge $-1 $297 0 $297 6.2831853071796004 $189 $298 forward 7 unknown #
loop $-1 $-1 $196 $119 #
plane-surface $-1 -62.29804376354258 4.5421540871500277 0.72368300740209435 -0.87461971476443456 0 0.48480960649040278 0.48480960649040278 0 0.87461971476443456 forward_v I I I I #
loop $-1 $-1 $299 $76 #
coedge $-1 $194 $194 $195 $300 reversed $120 $-1 #
coedge $-1 $195 $195 $194 $300 forward $122 $-1 #
coedge $-1 $196 $196 $123 $197 forward $191 $-1 #
edge $-1 $301 0 $301 6.2831853071796004 $196 $302 forward 7 unknown #
face $-1 $303 $304 $41 $-1 $305 forward single #
loop $-1 $-1 $306 $124 #
plane-surface $-1 -62.298043763542594 0 0 1 0 0 0 0 -1 forward_v I I I I #
coedge $-1 $307 $308 $309 $310 reversed $125 $-1 #
coedge $-1 $311 $127 $312 $313 reversed $80 $-1 #
coedge $-1 $127 $311 $314 $315 reversed $80 $-1 #
coedge $-1 $316 $317 $127 $205 forward $304 $-1 #
edge $-1 $318 -2.9320188914700558e-014 $319 13.899413174119454 $204 $320 forward 7 unknown #
loop $-1 $-1 $211 $128 #
plane-surface $-1 -62.29804376354258 4.5421540871500277 0.72368300740209435 -0.87461971476443456 0 0.48480960649040278 0.48480960649040278 0 0.87461971476443456 forward_v I I I I #
loop $-1 $-1 $321 $82 #
coedge $-1 $209 $209 $210 $322 reversed $129 $-1 #
coedge $-1 $210 $210 $209 $322 forward $131 $-1 #
coedge $-1 $211 $211 $132 $212 forward $206 $-1 #
edge $-1 $323 0 $323 6.2831853071796004 $211 $324 forward 7 unknown #
loop $-1 $-1 $218 $133 #
plane-surface $-1 -62.29804376354258 4.5421540871500277 0.72368300740209435 -0.87461971476443456 0 0.48480960649040278 0.48480960649040278 0 0.87461971476443456 forward_v I I I I #
loop $-1 $-1 $325 $85 #
coedge $-1 $216 $216 $217 $326 reversed $134 $-1 #
coedge $-1 $217 $217 $216 $326 forward $136 $-1 #
coedge $-1 $218 $218 $137 $219 forward $213 $-1 #
edge $-1 $327 0 $327 6.2831853071796004 $218 $328 forward 7 unknown #
face $-1 $329 $330 $33 $-1 $331 reversed single #
loop $-1 $-1 $332 $138 #
plane-surface $-1 -62.298043763542594 0 0 1 0 0 0 0 -1 forward_v I I I I #
coedge $-1 $333 $231 $334 $335 forward $139 $-1 #
coedge $-1 $336 $141 $333 $337 forward $89 $-1 #
coedge $-1 $141 $336 $338 $339 forward $89 $-1 #
coedge $-1 $234 $233 $141 $227 reversed $235 $-1 #
edge $-1 $340 -27.444258916664968 $341 27.444258916664968 $226 $342 forward 7 unknown #
coedge $-1 $143 $142 $343 $344 forward $56 $-1 #
coedge $-1 $345 $346 $142 $230 reversed $330 $-1 #
edge $-1 $237 -62.298043763542594 $347 62.298043763542594 $229 $348 forward 7 unknown #
coedge $-1 $223 $349 $143 $232 reversed $139 $-1 #
edge $-1 $350 -62.298043763542594 $236 62.298043763542594 $231 $351 forward 7 unknown #
coedge $-1 $226 $144 $349 $352 forward $235 $-1 #
coedge $-1 $144 $226 $345 $353 reversed $235 $-1 #
loop $-1 $-1 $233 $329 #
vertex $-1 $145 $354 #
vertex $-1 $145 $355 #
straight-curve $-1 62.298043763542594 0 12.880383793143473 0 1 0 I I #
face $-1 $356 $357 $34 $-1 $358 reversed single #
loop $-1 $-1 $359 $146 #
plane-surface $-1 -62.298043763542594 0 0 1 0 0 0 0 -1 forward_v I I I I #
coedge $-1 $250 $360 $244 $361 forward $147 $-1 #
coedge $-1 $152 $149 $362 $363 reversed $93 $-1 #
coedge $-1 $149 $152 $242 $361 reversed $93 $-1 #
coedge $-1 $364 $365 $149 $246 forward $366 $-1 #
edge $-1 $367 -12.880383793143473 $368 12.880383793143473 $245 $369 forward 7 unknown #
coedge $-1 $151 $150 $359 $370 reversed $59 $-1 #
coedge $-1 $362 $371 $150 $249 forward $357 $-1 #
edge $-1 $372 -32.315929542195995 $253 -27.648298900497203 $248 $373 forward 7 unknown #
coedge $-1 $374 $242 $151 $251 forward $147 $-1 #
edge $-1 $252 27.648298900497203 $375 32.315929542195995 $250 $376 forward 7 unknown #
vertex $-1 $251 $377 #
vertex $-1 $249 $378 #
straight-curve $-1 -57.630413121843802 -11.1978995027153 0 0 0 -1 I I #
face $-1 $-1 $267 $35 $-1 $379 forward single #
loop $-1 $-1 $380 $154 #
plane-surface $-1 62.298043763542594 0 0 -1 0 0 0 0 1 forward_v I I I I #
coedge $-1 $381 $382 $383 $384 reversed $155 $-1 #
coedge $-1 $385 $157 $159 $265 forward $97 $-1 #
coedge $-1 $157 $385 $381 $386 forward $97 $-1 #
coedge $-1 $383 $160 $157 $262 forward $267 $-1 #
edge $-1 $269 -2.7082410271724164 $387 5.4825980377816386 $261 $388 forward 7 unknown #
coedge $-1 $389 $390 $158 $264 forward $256 $-1 #
edge $-1 $391 -85.853290182105255 $268 -77.444965840120261 $263 $392 forward 7 unknown #
edge $-1 $269 112.90714129927709 $391 124.59608752708522 $159 $393 forward 7 unknown #
coedge $-1 $160 $383 $389 $394 forward $267 $-1 #
loop $-1 $-1 $383 $255 #
vertex $-1 $264 $395 #
vertex $-1 $161 $396 #
straight-curve $-1 32.686627725334127 1.3210625218678054 12.880383793143466 -1 0 0 I I #
coedge $-1 $271 $271 $-1 $397 reversed $164 $-1 #
edge $-1 $398 0 $398 6.2831853071796004 $165 $399 forward 7 unknown #
vertex $-1 $168 $400 #
ellipse-curve $-1 58.238131643909547 -4.5295368102422344 8.6762216221509902 0.71933980857756763 0 0.69465836192734942 0.69465836192734942 0 -0.71933980857756763 1 I I #
coedge $-1 $275 $275 $-1 $401 reversed $171 $-1 #
edge $-1 $402 0 $402 6.2831853071796004 $172 $403 forward 7 unknown #
vertex $-1 $175 $404 #
ellipse-curve $-1 58.238131643909547 -1.0191772109762098 8.6762216221509902 0.71933980857756763 0 0.69465836192734942 0.69465836192734942 0 -0.71933980857756763 1 I I #
face $-1 $-1 $291 $38 $-1 $405 forward single #
loop $-1 $-1 $406 $176 #
plane-surface $-1 -62.298043763542594 0 0 1 0 0 0 0 -1 forward_v I I I I #
coedge $-1 $407 $408 $409 $410 reversed $177 $-1 #
coedge $-1 $411 $179 $181 $289 forward $111 $-1 #
coedge $-1 $179 $411 $407 $412 forward $111 $-1 #
coedge $-1 $409 $182 $179 $286 forward $291 $-1 #
edge $-1 $293 -1.3099485762497842 $413 5.8521026633998119 $285 $414 forward 7 unknown #
coedge $-1 $415 $416 $180 $288 forward $280 $-1 #
edge $-1 $417 -29.840848578423959 $292 -17.684147792682555 $287 $418 forward 7 unknown #
edge $-1 $293 -13.899413174119454 $417 2.9320188914700558e-014 $181 $419 forward 7 unknown #
coedge $-1 $182 $409 $415 $420 forward $291 $-1 #
loop $-1 $-1 $409 $279 #
vertex $-1 $288 $421 #
vertex $-1 $183 $422 #
straight-curve $-1 -85.63611914862318 0.96112846732522961 12.880383793143473 1 0 0 I I #
coedge $-1 $295 $295 $-1 $423 reversed $186 $-1 #
edge $-1 $424 0 $424 6.2831853071796004 $187 $425 forward 7 unknown #
vertex $-1 $190 $426 #
ellipse-curve $-1 -58.928759247846401 3.0074288215108318 6.8020334002727756 -0.87461971476443456 0 0.48480960649040278 0.48480960649040278 0 0.87461971476443456 1 I I #
coedge $-1 $299 $299 $-1 $427 reversed $193 $-1 #
edge $-1 $428 0 $428 6.2831853071796004 $194 $429 forward 7 unknown #
vertex $-1 $197 $430 #
ellipse-curve $-1 -58.928759247846401 6.0768793527892306 6.8020334002727756 -0.87461971476443456 0 0.48480960649040278 0.48480960649040278 0 0.87461971476443456 1 I I #
face $-1 $-1 $431 $41 $-1 $432 forward single #
loop $-1 $-1 $316 $198 #
plane-surface $-1 -171.27223829724636 8.1231797069748257 61.129063171652056 0 -1 0 0.87461971476443456 0 -0.48480960649040278 forward_v I I I I #
coedge $-1 $312 $433 $308 $434 forward $199 $-1 #
coedge $-1 $308 $201 $311 $435 reversed $125 $-1 #
coedge $-1 $201 $307 $306 $434 reversed $125 $-1 #
coedge $-1 $436 $314 $201 $310 forward $431 $-1 #
edge $-1 $437 -30.076644416472973 $438 -23.338075385080586 $309 $439 forward 7 unknown #
coedge $-1 $203 $202 $307 $435 forward $80 $-1 #
coedge $-1 $440 $306 $202 $313 forward $199 $-1 #
edge $-1 $441 -13.014153903049412 $318 -5.8521026633998119 $312 $442 forward 7 unknown #
coedge $-1 $309 $443 $203 $315 forward $431 $-1 #
edge $-1 $319 5.8521026633998119 $437 13.014153903049412 $314 $444 forward 7 unknown #
coedge $-1 $317 $204 $443 $445 reversed $304 $-1 #
coedge $-1 $204 $316 $440 $446 reversed $304 $-1 #
vertex $-1 $313 $447 #
vertex $-1 $315 $448 #
straight-curve $-1 -62.29804376354258 8.1231797069748257 0.72368300740209435 0.48480960649040278 0 0.87461971476443456 I I #
coedge $-1 $321 $321 $-1 $449 reversed $208 $-1 #
edge $-1 $450 0 $450 6.2831853071796004 $209 $451 forward 7 unknown #
vertex $-1 $212 $452 #
ellipse-curve $-1 -58.928759247846401 10.169480061160431 6.8020334002727756 -0.87461971476443456 0 0.48480960649040278 0.48480960649040278 0 0.87461971476443456 1 I I #
coedge $-1 $325 $325 $-1 $453 reversed $215 $-1 #
edge $-1 $454 0 $454 6.2831853071796004 $216 $455 forward 7 unknown #
vertex $-1 $219 $456 #
ellipse-curve $-1 -58.928759247846401 13.23893059243883 6.8020334002727756 -0.87461971476443456 0 0.48480960649040278 0.48480960649040278 0 0.87461971476443456 1 I I #
face $-1 $-1 $235 $33 $-1 $457 reversed single #
loop $-1 $-1 $345 $220 #
plane-surface $-1 0 27.444258916664968 0 0 -1 0 0 0 -1 forward_v I I I I #
coedge $-1 $458 $343 $346 $459 forward $221 $-1 #
coedge $-1 $349 $223 $224 $337 reversed $139 $-1 #
coedge $-1 $343 $458 $223 $335 reversed $221 $-1 #
edge $-1 $350 -12.880383793143473 $460 12.880383793143473 $334 $461 forward 7 unknown #
coedge $-1 $225 $224 $458 $462 forward $89 $-1 #
edge $-1 $341 -62.298043763542594 $460 62.298043763542594 $333 $463 forward 7 unknown #
coedge $-1 $346 $345 $225 $339 reversed $330 $-1 #
edge $-1 $464 -62.298043763542594 $340 62.298043763542594 $338 $465 forward 7 unknown #
vertex $-1 $227 $466 #
vertex $-1 $352 $467 #
straight-curve $-1 62.298043763542594 0 -12.880383793143473 0 -1 0 I I #
coedge $-1 $332 $334 $228 $344 reversed $221 $-1 #
edge $-1 $347 -27.444258916664968 $350 27.444258916664968 $343 $468 forward 7 unknown #
coedge $-1 $338 $229 $234 $353 forward $330 $-1 #
coedge $-1 $229 $338 $332 $459 reversed $330 $-1 #
vertex $-1 $230 $469 #
straight-curve $-1 0 27.444258916664968 12.880383793143473 -1 0 0 I I #
coedge $-1 $231 $333 $233 $352 reversed $139 $-1 #
vertex $-1 $344 $470 #
straight-curve $-1 0 -27.444258916664968 12.880383793143473 1 0 0 I I #
edge $-1 $236 -12.880383793143473 $341 12.880383793143473 $233 $471 forward 7 unknown #
edge $-1 $237 -12.880383793143473 $340 12.880383793143473 $234 $472 forward 7 unknown #
point $-1 62.298043763542594 -27.444258916664968 12.880383793143473 #
point $-1 62.298043763542594 27.444258916664968 12.880383793143473 #
face $-1 $-1 $366 $34 $-1 $473 reversed single #
loop $-1 $-1 $362 $239 #
plane-surface $-1 0 0 -12.880383793143473 0 0 1 1 0 0 forward_v I I I I #
coedge $-1 $474 $475 $247 $370 forward $240 $-1 #
coedge $-1 $242 $374 $364 $476 forward $147 $-1 #
edge $-1 $368 -17.783719311819898 $252 -1.5373598978702336 $242 $477 forward 7 unknown #
coedge $-1 $478 $248 $243 $363 forward $357 $-1 #
edge $-1 $253 1.5373598978702336 $367 17.783719311819898 $362 $479 forward 7 unknown #
coedge $-1 $480 $245 $360 $476 reversed $366 $-1 #
coedge $-1 $245 $480 $478 $481 reversed $366 $-1 #
loop $-1 $-1 $245 $356 #
vertex $-1 $481 $482 #
vertex $-1 $246 $483 #
straight-curve $-1 -57.630413121843802 -27.444258916664968 0 0 0 1 I I #
edge $-1 $375 -12.880383793143473 $372 12.880383793143473 $359 $484 forward 7 unknown #
coedge $-1 $248 $478 $474 $485 forward $357 $-1 #
vertex $-1 $249 $486 #
straight-curve $-1 -29.982114221346599 -11.1978995027153 -12.880383793143473 1 0 0 I I #
coedge $-1 $360 $250 $475 $487 forward $147 $-1 #
vertex $-1 $487 $488 #
straight-curve $-1 -29.982114221346599 -11.1978995027153 12.880383793143473 -1 0 0 I I #
point $-1 -57.630413121843802 -11.1978995027153 12.880383793143473 #
point $-1 -57.630413121843802 -11.1978995027153 -12.880383793143473 #
plane-surface $-1 0 0 12.880383793143473 0 0 1 1 0 0 forward_v I I I I #
coedge $-1 $390 $389 $382 $489 forward $256 $-1 #
coedge $-1 $382 $258 $260 $386 reversed $155 $-1 #
coedge $-1 $258 $381 $380 $489 reversed $155 $-1 #
coedge $-1 $266 $261 $258 $384 forward $267 $-1 #
edge $-1 $387 21.491591798942402 $490 29.611416038208468 $383 $491 forward 7 unknown #
coedge $-1 $260 $259 $390 $492 reversed $97 $-1 #
edge $-1 $493 -124.59608752708522 $387 -112.90714129927709 $381 $494 forward 7 unknown #
vertex $-1 $262 $495 #
straight-curve $-1 54.178219524276528 -1.3871785053046111 12.88038379314348 0 -1 0 I I #
coedge $-1 $380 $263 $266 $394 reversed $256 $-1 #
coedge $-1 $263 $380 $385 $492 forward $256 $-1 #
vertex $-1 $264 $496 #
straight-curve $-1 62.298043763542594 1.3210625218678054 90.325349633263741 0 0 1 I I #
straight-curve $-1 -24.253670300579074 1.3210625218678054 94.098985202405828 0.69465836192734942 0 -0.71933980857756763 I I #
edge $-1 $490 -6.8697765430862496 $268 1.3210625218678054 $389 $497 forward 7 unknown #
point $-1 62.298043763542594 1.3210625218678054 12.880383793143473 #
point $-1 54.178219524276528 1.3210625218678054 12.880383793143466 #
edge $-1 $498 1 $498 0 $271 $-1 forward 7 unknown #
vertex $-1 $272 $499 #
ellipse-curve $-1 56.307766681965113 -4.5295368102422344 6.8120898913659556 0.71933980857756763 0 0.69465836192734942 0.69465836192734942 0 -0.71933980857756763 1 I I #
point $-1 58.932790005836921 -4.5295368102422344 7.9568818135734389 #
edge $-1 $500 1 $500 0 $275 $-1 forward 7 unknown #
vertex $-1 $276 $501 #
ellipse-curve $-1 56.307766681965113 -1.0191772109762098 6.8120898913659556 0.71933980857756763 0 0.69465836192734942 0.69465836192734942 0 -0.71933980857756763 1 I I #
point $-1 58.932790005836921 -1.0191772109762098 7.9568818135734389 #
plane-surface $-1 0 0 12.880383793143473 0 0 1 1 0 0 forward_v I I I I #
coedge $-1 $416 $415 $408 $502 forward $280 $-1 #
coedge $-1 $408 $282 $284 $412 reversed $177 $-1 #
coedge $-1 $282 $407 $406 $502 reversed $177 $-1 #
coedge $-1 $290 $285 $282 $410 forward $291 $-1 #
edge $-1 $413 -30.076644416472973 $503 -23.338075385080586 $409 $504 forward 7 unknown #
coedge $-1 $284 $283 $416 $505 reversed $111 $-1 #
edge $-1 $506 -2.9320188914700558e-014 $413 13.899413174119454 $407 $507 forward 7 unknown #
vertex $-1 $286 $508 #
straight-curve $-1 -55.559474732150214 2.2710770435750138 12.880383793143473 0 1 0 I I #
coedge $-1 $406 $287 $290 $420 reversed $280 $-1 #
coedge $-1 $287 $406 $411 $505 forward $280 $-1 #
vertex $-1 $288 $509 #
straight-curve $-1 -62.298043763542594 0.96112846732522961 30.564531585826028 0 0 1 I I #
straight-curve $-1 -62.29804376354258 0.96112846732522961 0.72368300740209435 -0.48480960649040278 0 -0.87461971476443456 I I #
edge $-1 $503 -8.1231797069748257 $292 -0.96112846732522961 $415 $510 forward 7 unknown #
point $-1 -62.298043763542594 0.96112846732522961 12.880383793143473 #
point $-1 -55.559474732150207 0.96112846732522961 12.880383793143473 #
edge $-1 $511 1 $511 0 $295 $-1 forward 7 unknown #
vertex $-1 $296 $512 #
ellipse-curve $-1 -56.112530210541621 3.0074288215108318 5.2409722118335162 -0.87461971476443456 0 0.48480960649040278 0.48480960649040278 0 0.87461971476443456 1 I I #
point $-1 -58.443949641356006 3.0074288215108318 7.676653115037217 #
edge $-1 $513 1 $513 0 $299 $-1 forward 7 unknown #
vertex $-1 $300 $514 #
ellipse-curve $-1 -56.112530210541621 6.0768793527892306 5.2409722118335162 -0.87461971476443456 0 0.48480960649040278 0.48480960649040278 0 0.87461971476443456 1 I I #
point $-1 -58.443949641356006 6.0768793527892306 7.676653115037217 #
loop $-1 $-1 $309 $303 #
plane-surface $-1 0 0 12.880383793143473 0 0 1 1 0 0 forward_v I I I I #
coedge $-1 $306 $440 $436 $515 reversed $199 $-1 #
edge $-1 $438 17.684147792682555 $441 29.840848578423959 $306 $516 forward 7 unknown #
edge $-1 $441 -2.9320188914700558e-014 $437 13.899413174119454 $307 $517 forward 7 unknown #
coedge $-1 $443 $309 $433 $515 forward $431 $-1 #
vertex $-1 $310 $518 #
vertex $-1 $515 $519 #
straight-curve $-1 -85.63611914862318 15.285230946624425 12.880383793143473 -1 0 0 I I #
coedge $-1 $433 $312 $317 $446 forward $199 $-1 #
vertex $-1 $434 $520 #
straight-curve $-1 -62.298043763542594 2.2710770435750138 0.72368300740206815 0 -1 0 I I #
coedge $-1 $314 $436 $316 $445 forward $431 $-1 #
straight-curve $-1 -55.559474732150214 2.2710770435750138 12.880383793143473 0 1 0 I I #
edge $-1 $521 23.338075385080586 $319 30.076644416472973 $443 $522 forward 7 unknown #
edge $-1 $318 -29.840848578423959 $521 -17.684147792682555 $440 $523 forward 7 unknown #
point $-1 -62.298043763542594 8.1231797069748257 0.7236830074020687 #
point $-1 -55.559474732150207 8.1231797069748257 12.880383793143473 #
edge $-1 $524 1 $524 0 $321 $-1 forward 7 unknown #
vertex $-1 $322 $525 #
ellipse-curve $-1 -56.112530210541621 10.169480061160431 5.2409722118335162 -0.87461971476443456 0 0.48480960649040278 0.48480960649040278 0 0.87461971476443456 1 I I #
point $-1 -58.443949641356006 10.169480061160431 7.676653115037217 #
edge $-1 $526 1 $526 0 $325 $-1 forward 7 unknown #
vertex $-1 $326 $527 #
ellipse-curve $-1 -56.112530210541621 13.23893059243883 5.2409722118335162 -0.87461971476443456 0 0.48480960649040278 0.48480960649040278 0 0.87461971476443456 1 I I #
point $-1 -58.443949641356006 13.23893059243883 7.676653115037217 #
plane-surface $-1 62.298043763542594 0 0 -1 0 0 0 0 1 forward_v I I I I #
coedge $-1 $334 $332 $336 $462 reversed $221 $-1 #
edge $-1 $347 -12.880383793143473 $464 12.880383793143473 $346 $528 forward 7 unknown #
vertex $-1 $462 $529 #
straight-curve $-1 -62.298043763542594 -27.444258916664968 0 0 0 -1 I I #
edge $-1 $460 -27.444258916664968 $464 27.444258916664968 $458 $530 forward 7 unknown #
straight-curve $-1 0 -27.444258916664968 -12.880383793143473 -1 0 0 I I #
vertex $-1 $339 $531 #
straight-curve $-1 0 27.444258916664968 -12.880383793143473 1 0 0 I I #
point $-1 62.298043763542594 27.444258916664968 -12.880383793143473 #
point $-1 62.298043763542594 -27.444258916664968 -12.880383793143473 #
straight-curve $-1 -62.298043763542594 0 12.880383793143473 0 -1 0 I I #
point $-1 -62.298043763542594 27.444258916664968 12.880383793143473 #
point $-1 -62.298043763542594 -27.444258916664968 12.880383793143473 #
straight-curve $-1 62.298043763542594 -27.444258916664968 0 0 0 -1 I I #
straight-curve $-1 62.298043763542594 27.444258916664968 0 0 0 -1 I I #
plane-surface $-1 0 -27.444258916664968 0 0 1 0 0 0 1 forward_v I I I I #
coedge $-1 $532 $359 $371 $485 reversed $240 $-1 #
coedge $-1 $359 $532 $374 $487 reversed $240 $-1 #
edge $-1 $533 -62.298043763542594 $368 -57.630413121843802 $364 $534 forward 7 unknown #
straight-curve $-1 -57.630413121843802 -9.6605396048450665 12.880383793143473 0 1 0 I I #
coedge $-1 $371 $362 $365 $481 forward $357 $-1 #
straight-curve $-1 -57.630413121843802 -9.6605396048450665 -12.880383793143473 0 -1 0 I I #
coedge $-1 $365 $364 $532 $535 forward $366 $-1 #
edge $-1 $367 57.630413121843802 $536 62.298043763542594 $365 $537 forward 7 unknown #
point $-1 -57.630413121843802 -27.444258916664964 -12.880383793143473 #
point $-1 -57.630413121843802 -27.444258916664964 12.880383793143473 #
straight-curve $-1 -62.298043763542594 -11.1978995027153 0 0 0 -1 I I #
edge $-1 $536 -27.444258916664968 $372 -11.1978995027153 $474 $538 forward 7 unknown #
point $-1 -62.298043763542594 -11.1978995027153 -12.880383793143473 #
edge $-1 $375 11.1978995027153 $533 27.444258916664968 $475 $539 forward 7 unknown #
point $-1 -62.298043763542594 -11.1978995027153 12.880383793143473 #
edge $-1 $490 77.444965840120261 $493 85.853290182105255 $380 $540 forward 7 unknown #
vertex $-1 $394 $541 #
straight-curve $-1 32.686627725334127 -6.8697765430862496 12.880383793143466 1 0 0 I I #
edge $-1 $493 -5.4825980377816386 $391 2.7082410271724164 $390 $542 forward 7 unknown #
vertex $-1 $492 $543 #
straight-curve $-1 -24.253670300579074 -6.8697765430862496 94.098985202405828 -0.69465836192734942 0 0.71933980857756763 I I #
point $-1 54.178219524276528 -6.8697765430862496 12.880383793143466 #
point $-1 62.298043763542594 1.3210625218678054 4.4720594511584864 #
straight-curve $-1 62.298043763542594 0 12.880383793143473 0 1 0 I I #
vertex $-1 $397 $544 #
point $-1 57.002425043892458 -4.5295368102422344 6.0927500827883883 #
vertex $-1 $401 $545 #
point $-1 57.002425043892458 -1.0191772109762098 6.0927500827883883 #
edge $-1 $503 17.684147792682555 $506 29.840848578423959 $406 $546 forward 7 unknown #
vertex $-1 $420 $547 #
straight-curve $-1 -85.63611914862318 8.1231797069748257 12.880383793143473 -1 0 0 I I #
edge $-1 $506 -5.8521026633998119 $417 1.3099485762497842 $416 $548 forward 7 unknown #
vertex $-1 $505 $549 #
straight-curve $-1 -62.29804376354258 8.1231797069748257 0.72368300740209435 0.48480960649040278 0 0.87461971476443456 I I #
point $-1 -55.559474732150207 8.1231797069748257 12.880383793143473 #
point $-1 -62.298043763542594 0.96112846732522961 0.7236830074020687 #
straight-curve $-1 -62.298043763542594 0 12.880383793143473 0 -1 0 I I #
vertex $-1 $423 $550 #
point $-1 -55.62772060405122 3.0074288215108318 6.1155919265979506 #
vertex $-1 $427 $551 #
point $-1 -55.62772060405122 6.0768793527892306 6.1155919265979506 #
edge $-1 $438 -15.285230946624425 $521 -8.1231797069748257 $433 $552 forward 7 unknown #
straight-curve $-1 -62.298043763542594 15.285230946624425 30.564531585826028 0 0 -1 I I #
straight-curve $-1 -62.29804376354258 15.285230946624425 0.72368300740209435 0.48480960649040278 0 0.87461971476443456 I I #
point $-1 -55.559474732150207 15.285230946624425 12.880383793143473 #
point $-1 -62.298043763542594 15.285230946624425 12.880383793143473 #
point $-1 -62.298043763542594 15.285230946624425 0.7236830074020687 #
vertex $-1 $446 $553 #
straight-curve $-1 -85.63611914862318 8.1231797069748257 12.880383793143473 1 0 0 I I #
straight-curve $-1 -62.298043763542594 8.1231797069748257 30.564531585826028 0 0 1 I I #
vertex $-1 $449 $554 #
point $-1 -55.62772060405122 10.169480061160431 6.1155919265979506 #
vertex $-1 $453 $555 #
point $-1 -55.62772060405122 13.23893059243883 6.1155919265979506 #
straight-curve $-1 -62.298043763542594 27.444258916664968 0 0 0 -1 I I #
point $-1 -62.298043763542594 -27.444258916664968 -12.880383793143473 #
straight-curve $-1 -62.298043763542594 0 -12.880383793143473 0 1 0 I I #
point $-1 -62.298043763542594 27.444258916664968 -12.880383793143473 #
coedge $-1 $475 $474 $480 $535 reversed $240 $-1 #
vertex $-1 $487 $556 #
straight-curve $-1 0 -27.444258916664968 12.880383793143473 1 0 0 I I #
edge $-1 $533 -12.880383793143473 $536 12.880383793143473 $532 $557 forward 7 unknown #
vertex $-1 $485 $558 #
straight-curve $-1 0 -27.444258916664968 -12.880383793143473 -1 0 0 I I #
straight-curve $-1 -62.298043763542594 0 -12.880383793143473 0 1 0 I I #
straight-curve $-1 -62.298043763542594 0 12.880383793143473 0 -1 0 I I #
straight-curve $-1 62.298043763542594 -6.8697765430862496 90.325349633263741 0 0 -1 I I #
point $-1 62.298043763542594 -6.8697765430862496 12.880383793143473 #
straight-curve $-1 62.298043763542594 -1.3871785053046111 4.4720594511584792 0 1 0 I I #
point $-1 62.298043763542594 -6.8697765430862496 4.4720594511584864 #
point $-1 55.58842687338754 -4.5295368102422344 6.1174315294386066 #
point $-1 55.58842687338754 -1.0191772109762098 6.1174315294386066 #
straight-curve $-1 -62.298043763542594 8.1231797069748257 30.564531585826028 0 0 -1 I I #
point $-1 -62.298043763542594 8.1231797069748257 12.880383793143473 #
straight-curve $-1 -62.298043763542594 2.2710770435750138 0.72368300740206815 0 -1 0 I I #
point $-1 -62.298043763542594 8.1231797069748257 0.7236830074020687 #
point $-1 -55.237910495777186 3.0074288215108318 4.7561626053431132 #
point $-1 -55.237910495777186 6.0768793527892306 4.7561626053431132 #
straight-curve $-1 -62.298043763542594 0 12.880383793143473 0 -1 0 I I #
point $-1 -62.298043763542594 8.1231797069748257 12.880383793143473 #
point $-1 -55.237910495777186 10.169480061160431 4.7561626053431132 #
point $-1 -55.237910495777186 13.23893059243883 4.7561626053431132 #
point $-1 -62.298043763542594 -27.444258916664968 12.880383793143473 #
straight-curve $-1 -62.298043763542594 -27.444258916664968 0 0 0 -1 I I #
point $-1 -62.298043763542594 -27.444258916664968 -12.880383793143473 #
End-of-ACIS-data 