500 0 12 0           
7 Unknown 11 ACIS 5.0 NT 24 Fri Mar 26 18:18:14 1999 
-1 9.9999999999999995e-007 1e-010 
body $-1 $12 $-1 $13 #
body $-1 $14 $-1 $15 #
body $-1 $16 $-1 $17 #
body $-1 $18 $-1 $19 #
body $-1 $20 $-1 $21 #
body $-1 $22 $-1 $23 #
body $-1 $24 $-1 $25 #
body $-1 $26 $-1 $27 #
body $-1 $28 $-1 $29 #
body $-1 $30 $-1 $31 #
body $-1 $32 $-1 $33 #
body $-1 $34 $-1 $35 #
lump $-1 $-1 $36 $0 #
transform $-1 1 0 0 0 1 0 0 0 1 59.883419293801694 28.095515910196283 12.645340101076808 1 rotate no_reflect no_shear #
lump $-1 $-1 $37 $1 #
transform $-1 1 0 0 0 1 0 0 0 1 59.883419293801694 28.095515910196283 12.645340101076808 1 rotate no_reflect no_shear #
lump $-1 $-1 $38 $2 #
transform $-1 1 0 0 0 1 0 0 0 1 59.883419293801694 28.095515910196283 12.645340101076808 1 rotate no_reflect no_shear #
lump $-1 $-1 $39 $3 #
transform $-1 1 0 0 0 1 0 0 0 1 59.883419293801694 28.095515910196283 12.645340101076808 1 rotate no_reflect no_shear #
lump $-1 $-1 $40 $4 #
transform $-1 1 0 0 0 1 0 0 0 1 59.883419293801694 28.095515910196283 12.645340101076808 1 rotate no_reflect no_shear #
lump $-1 $-1 $41 $5 #
transform $-1 1 0 0 0 1 0 0 0 1 59.883419293801694 28.095515910196283 12.645340101076808 1 rotate no_reflect no_shear #
lump $-1 $-1 $42 $6 #
transform $-1 1 0 0 0 1 0 0 0 1 59.883419293801694 28.095515910196283 12.645340101076808 1 rotate no_reflect no_shear #
lump $-1 $-1 $43 $7 #
transform $-1 1 0 0 0 1 0 0 0 1 59.883419293801694 28.095515910196283 12.645340101076808 1 rotate no_reflect no_shear #
lump $-1 $-1 $44 $8 #
transform $-1 1 0 0 0 1 0 0 0 1 59.883419293801694 28.095515910196283 12.645340101076808 1 rotate no_reflect no_shear #
lump $-1 $-1 $45 $9 #
transform $-1 1 0 0 0 1 0 0 0 1 59.883419293801694 28.095515910196283 12.645340101076808 1 rotate no_reflect no_shear #
lump $-1 $-1 $46 $10 #
transform $-1 1 0 0 0 1 0 0 0 1 59.883419293801694 28.095515910196283 12.645340101076808 1 rotate no_reflect no_shear #
lump $-1 $-1 $47 $11 #
transform $-1 1 0 0 0 1 0 0 0 1 59.883419293801694 28.095515910196283 12.645340101076808 1 rotate no_reflect no_shear #
shell $-1 $-1 $-1 $48 $-1 $12 #
shell $-1 $-1 $-1 $49 $-1 $14 #
shell $-1 $-1 $-1 $50 $-1 $16 #
shell $-1 $-1 $-1 $51 $-1 $18 #
shell $-1 $-1 $-1 $52 $-1 $20 #
shell $-1 $-1 $-1 $53 $-1 $22 #
shell $-1 $-1 $-1 $54 $-1 $24 #
shell $-1 $-1 $-1 $55 $-1 $26 #
shell $-1 $-1 $-1 $56 $-1 $28 #
shell $-1 $-1 $-1 $57 $-1 $30 #
shell $-1 $-1 $-1 $58 $-1 $32 #
shell $-1 $-1 $-1 $59 $-1 $34 #
face $-1 $60 $61 $36 $-1 $62 forward single #
face $-1 $63 $64 $37 $-1 $65 forward single #
face $-1 $66 $67 $38 $-1 $68 forward single #
face $-1 $69 $70 $39 $-1 $71 reversed single #
face $-1 $72 $73 $40 $-1 $74 forward single #
face $-1 $75 $76 $41 $-1 $77 forward single #
face $-1 $78 $79 $42 $-1 $80 reversed single #
face $-1 $81 $82 $43 $-1 $83 forward single #
face $-1 $84 $85 $44 $-1 $86 forward single #
face $-1 $87 $88 $45 $-1 $89 reversed single #
face $-1 $90 $91 $46 $-1 $92 forward single #
face $-1 $93 $94 $47 $-1 $95 forward single #
face $-1 $96 $97 $36 $-1 $98 reversed single #
loop $-1 $-1 $99 $48 #
plane-surface $-1 0 0 12.645340101076808 0 0 1 1 0 0 forward_v I I I I #
face $-1 $100 $101 $37 $-1 $102 reversed single #
loop $-1 $-1 $103 $49 #
plane-surface $-1 -54.405984507076838 0 5.5024175838304048 0 0 1 1 0 0 forward_v I I I I #
face $-1 $104 $105 $38 $-1 $106 reversed single #
loop $-1 $-1 $107 $50 #
plane-surface $-1 54.405984507076838 0 5.5024175838304048 0 0 1 1 0 0 forward_v I I I I #
face $-1 $108 $109 $39 $-1 $110 reversed single #
loop $-1 $-1 $111 $51 #
plane-surface $-1 -3.6082863481187957 79.500484585063916 121.9551316988146 -1 0 0 0 0.74314483375859142 0.66913059716165679 forward_v I I I I #
face $-1 $112 $113 $40 $-1 $114 forward single #
loop $-1 $115 $116 $52 #
cone-surface $-1 -13.75145336252735 20.75834846110801 4.8476490062548461 0 -0.74314483375859142 -0.66913059716165679 1.5 0 0 1 I I 0 1 1.5 forward I I I I #
face $-1 $117 $118 $41 $-1 $119 forward single #
loop $-1 $120 $121 $53 #
cone-surface $-1 -7.6655531538822146 20.75834846110801 4.8476490062548461 0 -0.74314483375859142 -0.66913059716165679 1.5 0 0 1 I I 0 1 1.5 forward I I I I #
face $-1 $122 $123 $42 $-1 $124 reversed single #
loop $-1 $-1 $125 $54 #
plane-surface $-1 17.808720168290776 79.500484585063916 121.9551316988146 -1 0 0 0 0.74314483375859142 0.66913059716165679 forward_v I I I I #
face $-1 $126 $127 $43 $-1 $128 forward single #
loop $-1 $129 $130 $55 #
cone-surface $-1 7.6655531538822288 20.75834846110801 4.8476490062548461 0 -0.74314483375859142 -0.66913059716165679 1.5 0 0 1 I I 0 1 1.5 forward I I I I #
face $-1 $131 $132 $44 $-1 $133 forward single #
loop $-1 $134 $135 $56 #
cone-surface $-1 13.751453362527371 20.75834846110801 4.8476490062548461 0 -0.74314483375859142 -0.66913059716165679 1.5 0 0 1 I I 0 1 1.5 forward I I I I #
face $-1 $136 $137 $45 $-1 $138 reversed single #
loop $-1 $-1 $139 $57 #
plane-surface $-1 -37.703220196051731 -28.095515910196283 4.5343430560315738 0 -0.66913061440640931 0.74314481823134659 1 0 0 forward_v I I I I #
face $-1 $140 $141 $46 $-1 $142 forward single #
loop $-1 $143 $144 $58 #
cone-surface $-1 -42.514075706466123 -22.537252285529849 7.4190602015850651 0 0.66913061440640931 -0.74314481823134659 1.5 0 0 1 I I 0 1 1.5 forward I I I I #
face $-1 $145 $146 $47 $-1 $147 forward single #
loop $-1 $148 $149 $59 #
cone-surface $-1 -32.892364685637347 -22.537252285529849 7.4190602015850651 0 0.66913061440640931 -0.74314481823134659 1.5 0 0 1 I I 0 1 1.5 forward I I I I #
face $-1 $150 $151 $36 $-1 $152 reversed single #
loop $-1 $-1 $153 $60 #
plane-surface $-1 0 0 -12.645340101076808 0 0 1 1 0 0 forward_v I I I I #
coedge $-1 $154 $155 $156 $157 forward $61 $-1 #
face $-1 $158 $159 $37 $-1 $160 reversed single #
loop $-1 $-1 $161 $63 #
plane-surface $-1 -54.405984507076838 0 2.502417583830403 0 0 1 1 0 0 forward_v I I I I #
coedge $-1 $162 $163 $164 $165 forward $64 $-1 #
face $-1 $166 $167 $38 $-1 $168 reversed single #
loop $-1 $-1 $169 $66 #
plane-surface $-1 54.405984507076838 0 2.502417583830403 0 0 1 1 0 0 forward_v I I I I #
coedge $-1 $170 $171 $172 $173 reversed $67 $-1 #
face $-1 $174 $175 $39 $-1 $176 reversed single #
loop $-1 $-1 $177 $69 #
plane-surface $-1 -10.708503258204786 -9.5036227669126561 41.815475474527787 0 0.74314483375859142 0.66913059716165679 1 0 0 forward_v I I I I #
coedge $-1 $178 $179 $180 $181 reversed $70 $-1 #
face $-1 $-1 $182 $40 $-1 $183 forward single #
loop $-1 $184 $185 $72 #
cone-surface $-1 -13.75145336252735 18.530938120616348 2.842079777280837 0 -0.74314483375859142 -0.66913059716165679 0.75 0 0 1 I I -0.70710678118654757 0.70710678118654757 0.75 forward I I I I #
loop $-1 $-1 $186 $52 #
coedge $-1 $116 $116 $187 $188 reversed $73 $-1 #
face $-1 $-1 $189 $41 $-1 $190 forward single #
loop $-1 $191 $192 $75 #
cone-surface $-1 -7.6655531538822146 18.530938120616348 2.842079777280837 0 -0.74314483375859142 -0.66913059716165679 0.75 0 0 1 I I -0.70710678118654757 0.70710678118654757 0.75 forward I I I I #
loop $-1 $-1 $193 $53 #
coedge $-1 $121 $121 $194 $195 reversed $76 $-1 #
face $-1 $196 $197 $42 $-1 $198 reversed single #
loop $-1 $-1 $199 $78 #
plane-surface $-1 10.708503258204786 -9.5036227669126561 41.815475474527787 0 0.74314483375859142 0.66913059716165679 1 0 0 forward_v I I I I #
coedge $-1 $200 $201 $202 $203 reversed $79 $-1 #
face $-1 $-1 $204 $43 $-1 $205 forward single #
loop $-1 $206 $207 $81 #
cone-surface $-1 7.6655531538822288 18.530938120616348 2.842079777280837 0 -0.74314483375859142 -0.66913059716165679 0.75 0 0 1 I I -0.70710678118654757 0.70710678118654757 0.75 forward I I I I #
loop $-1 $-1 $208 $55 #
coedge $-1 $130 $130 $209 $210 reversed $82 $-1 #
face $-1 $-1 $211 $44 $-1 $212 forward single #
loop $-1 $213 $214 $84 #
cone-surface $-1 13.751453362527371 18.530938120616348 2.842079777280837 0 -0.74314483375859142 -0.66913059716165679 0.75 0 0 1 I I -0.70710678118654757 0.70710678118654757 0.75 forward I I I I #
loop $-1 $-1 $215 $56 #
coedge $-1 $135 $135 $216 $217 reversed $85 $-1 #
face $-1 $218 $219 $45 $-1 $220 forward single #
loop $-1 $-1 $221 $87 #
plane-surface $-1 -26.477890671751492 -108.23517419983258 93.538448548359128 -1 0 0 0 -0.66913061440640931 0.74314481823134659 forward_v I I I I #
coedge $-1 $222 $223 $224 $225 reversed $88 $-1 #
face $-1 $-1 $226 $46 $-1 $227 forward single #
loop $-1 $228 $229 $90 #
cone-surface $-1 -42.514075706466123 -20.981228014956223 5.6909202109424193 0 0.66913061440640931 -0.74314481823134659 0.75 0 0 1 I I -0.70710678118654757 0.70710678118654757 0.75 forward I I I I #
loop $-1 $-1 $230 $58 #
coedge $-1 $144 $144 $231 $232 reversed $91 $-1 #
face $-1 $-1 $233 $47 $-1 $234 forward single #
loop $-1 $235 $236 $93 #
cone-surface $-1 -32.892364685637347 -20.981228014956223 5.6909202109424193 0 0.66913061440640931 -0.74314481823134659 0.75 0 0 1 I I -0.70710678118654757 0.70710678118654757 0.75 forward I I I I #
loop $-1 $-1 $237 $59 #
coedge $-1 $149 $149 $238 $239 reversed $94 $-1 #
face $-1 $240 $241 $36 $-1 $242 reversed single #
loop $-1 $-1 $243 $96 #
plane-surface $-1 0 -28.095515910196283 0 0 1 0 0 0 1 forward_v I I I I #
coedge $-1 $244 $245 $246 $247 forward $97 $-1 #
coedge $-1 $248 $99 $249 $250 forward $61 $-1 #
coedge $-1 $99 $248 $251 $252 forward $61 $-1 #
coedge $-1 $253 $254 $99 $157 reversed $255 $-1 #
edge $-1 $256 -28.095515910196283 $257 28.095515910196283 $156 $258 forward 7 unknown #
face $-1 $259 $260 $37 $-1 $261 reversed single #
loop $-1 $-1 $262 $100 #
plane-surface $-1 -48.928549720351981 0 4.0024175838304039 -1 0 0 0 0 1 forward_v I I I I #
coedge $-1 $263 $264 $265 $266 forward $101 $-1 #
coedge $-1 $267 $103 $268 $269 reversed $64 $-1 #
coedge $-1 $103 $267 $270 $271 reversed $64 $-1 #
coedge $-1 $262 $272 $103 $165 reversed $159 $-1 #
edge $-1 $273 -28.095515910196283 $274 28.095515910196283 $164 $275 forward 7 unknown #
face $-1 $276 $277 $38 $-1 $278 reversed single #
loop $-1 $-1 $279 $104 #
plane-surface $-1 48.928549720351981 0 4.0024175838304039 1 0 0 0 0 -1 forward_v I I I I #
coedge $-1 $280 $281 $282 $283 reversed $105 $-1 #
coedge $-1 $284 $107 $285 $286 reversed $67 $-1 #
coedge $-1 $107 $284 $287 $288 reversed $67 $-1 #
coedge $-1 $289 $290 $107 $173 forward $291 $-1 #
edge $-1 $292 -28.095515910196283 $293 28.095515910196283 $172 $294 forward 7 unknown #
face $-1 $295 $296 $39 $-1 $297 reversed single #
loop $-1 $-1 $298 $108 #
plane-surface $-1 -17.808720168290776 79.500484585063916 121.9551316988146 1 0 0 0 -0.74314483375859142 -0.66913059716165679 forward_v I I I I #
coedge $-1 $299 $300 $301 $302 reversed $109 $-1 #
coedge $-1 $179 $111 $303 $304 reversed $70 $-1 #
coedge $-1 $111 $178 $299 $305 reversed $70 $-1 #
coedge $-1 $301 $306 $111 $181 forward $296 $-1 #
edge $-1 $307 48.332225748330487 $308 60.920165375768875 $180 $309 forward 7 unknown #
loop $-1 $-1 $187 $112 #
plane-surface $-1 -10.708503258204786 -9.5036227669126561 41.815475474527787 0 0.74314483375859142 0.66913059716165679 1 0 0 forward_v I I I I #
loop $-1 $-1 $310 $72 #
coedge $-1 $185 $185 $186 $311 reversed $113 $-1 #
coedge $-1 $186 $186 $185 $311 forward $115 $-1 #
coedge $-1 $187 $187 $116 $188 forward $182 $-1 #
edge $-1 $312 3.5060185437854162e-016 $312 6.2831853071796004 $187 $313 forward 7 unknown #
loop $-1 $-1 $194 $117 #
plane-surface $-1 -10.708503258204786 -9.5036227669126561 41.815475474527787 0 0.74314483375859142 0.66913059716165679 1 0 0 forward_v I I I I #
loop $-1 $-1 $314 $75 #
coedge $-1 $192 $192 $193 $315 reversed $118 $-1 #
coedge $-1 $193 $193 $192 $315 forward $120 $-1 #
coedge $-1 $194 $194 $121 $195 forward $189 $-1 #
edge $-1 $316 3.5060185437854162e-016 $316 6.2831853071796004 $194 $317 forward 7 unknown #
face $-1 $318 $319 $42 $-1 $320 forward single #
loop $-1 $-1 $321 $122 #
plane-surface $-1 3.6082863481187957 79.500484585063916 121.9551316988146 1 0 0 0 -0.74314483375859142 -0.66913059716165679 forward_v I I I I #
coedge $-1 $322 $323 $324 $325 reversed $123 $-1 #
coedge $-1 $201 $125 $326 $327 reversed $79 $-1 #
coedge $-1 $125 $200 $322 $328 reversed $79 $-1 #
coedge $-1 $324 $329 $125 $203 forward $330 $-1 #
edge $-1 $331 48.332225748330487 $332 60.920165375768875 $202 $333 forward 7 unknown #
loop $-1 $-1 $209 $126 #
plane-surface $-1 10.708503258204786 -9.5036227669126561 41.815475474527787 0 0.74314483375859142 0.66913059716165679 1 0 0 forward_v I I I I #
loop $-1 $-1 $334 $81 #
coedge $-1 $207 $207 $208 $335 reversed $127 $-1 #
coedge $-1 $208 $208 $207 $335 forward $129 $-1 #
coedge $-1 $209 $209 $130 $210 forward $204 $-1 #
edge $-1 $336 3.5060185437854162e-016 $336 6.2831853071796004 $209 $337 forward 7 unknown #
loop $-1 $-1 $216 $131 #
plane-surface $-1 10.708503258204786 -9.5036227669126561 41.815475474527787 0 0.74314483375859142 0.66913059716165679 1 0 0 forward_v I I I I #
loop $-1 $-1 $338 $84 #
coedge $-1 $214 $214 $215 $339 reversed $132 $-1 #
coedge $-1 $215 $215 $214 $339 forward $134 $-1 #
coedge $-1 $216 $216 $135 $217 forward $211 $-1 #
edge $-1 $340 3.5060185437854162e-016 $340 6.2831853071796004 $216 $341 forward 7 unknown #
face $-1 $342 $343 $45 $-1 $344 reversed single #
loop $-1 $-1 $345 $136 #
plane-surface $-1 -48.928549720351981 0 4.0024175838304039 -1 0 0 0 0 1 forward_v I I I I #
coedge $-1 $346 $347 $348 $349 reversed $137 $-1 #
coedge $-1 $350 $139 $345 $351 reversed $88 $-1 #
coedge $-1 $139 $350 $346 $352 forward $88 $-1 #
coedge $-1 $348 $353 $139 $225 forward $343 $-1 #
edge $-1 $354 -30.076939622326115 $355 -7.6262805737256265 $224 $356 forward 7 unknown #
loop $-1 $-1 $231 $140 #
plane-surface $-1 -37.703220196051731 -28.095515910196283 4.5343430560315738 0 -0.66913061440640931 0.74314481823134659 1 0 0 forward_v I I I I #
loop $-1 $-1 $357 $90 #
coedge $-1 $229 $229 $230 $358 reversed $141 $-1 #
coedge $-1 $230 $230 $229 $358 forward $143 $-1 #
coedge $-1 $231 $231 $144 $232 forward $226 $-1 #
edge $-1 $359 2.6650728019317879e-016 $359 6.2831853071796004 $231 $360 forward 7 unknown #
loop $-1 $-1 $238 $145 #
plane-surface $-1 -37.703220196051731 -28.095515910196283 4.5343430560315738 0 -0.66913061440640931 0.74314481823134659 1 0 0 forward_v I I I I #
loop $-1 $-1 $361 $93 #
coedge $-1 $236 $236 $237 $362 reversed $146 $-1 #
coedge $-1 $237 $237 $236 $362 forward $148 $-1 #
coedge $-1 $238 $238 $149 $239 forward $233 $-1 #
edge $-1 $363 2.6650728019317879e-016 $363 6.2831853071796004 $238 $364 forward 7 unknown #
face $-1 $365 $366 $36 $-1 $367 reversed single #
loop $-1 $-1 $368 $150 #
plane-surface $-1 -59.883419293801694 0 0 1 0 0 0 0 -1 forward_v I I I I #
coedge $-1 $369 $251 $370 $371 forward $151 $-1 #
coedge $-1 $372 $153 $369 $373 forward $97 $-1 #
coedge $-1 $153 $372 $374 $375 forward $97 $-1 #
coedge $-1 $254 $253 $153 $247 reversed $255 $-1 #
edge $-1 $376 -28.095515910196283 $377 28.095515910196283 $246 $378 forward 7 unknown #
coedge $-1 $155 $154 $379 $380 forward $61 $-1 #
coedge $-1 $381 $382 $154 $250 reversed $366 $-1 #
edge $-1 $257 -59.883419293801694 $383 59.883419293801694 $249 $384 forward 7 unknown #
coedge $-1 $243 $385 $155 $252 reversed $151 $-1 #
edge $-1 $386 -59.883419293801694 $256 59.883419293801694 $251 $387 forward 7 unknown #
coedge $-1 $246 $156 $385 $388 forward $255 $-1 #
coedge $-1 $156 $246 $381 $389 reversed $255 $-1 #
loop $-1 $-1 $253 $365 #
vertex $-1 $157 $390 #
vertex $-1 $157 $391 #
straight-curve $-1 59.883419293801694 0 12.645340101076808 0 1 0 I I #
face $-1 $392 $393 $37 $-1 $394 reversed single #
loop $-1 $-1 $395 $158 #
plane-surface $-1 0 -28.095515910196283 0 0 1 0 0 0 1 forward_v I I I I #
coedge $-1 $265 $164 $396 $397 reversed $159 $-1 #
coedge $-1 $398 $161 $395 $399 reversed $101 $-1 #
coedge $-1 $161 $398 $400 $401 reversed $101 $-1 #
coedge $-1 $272 $262 $161 $266 reversed $159 $-1 #
edge $-1 $402 -28.095515910196283 $403 28.095515910196283 $265 $404 forward 7 unknown #
coedge $-1 $163 $162 $405 $406 reversed $64 $-1 #
coedge $-1 $407 $408 $162 $269 forward $409 $-1 #
edge $-1 $410 -32.680427040263275 $274 -21.725557466813562 $268 $411 forward 7 unknown #
coedge $-1 $412 $396 $163 $271 forward $260 $-1 #
edge $-1 $273 21.725557466813562 $413 32.680427040263275 $270 $414 forward 7 unknown #
coedge $-1 $164 $265 $407 $415 reversed $159 $-1 #
vertex $-1 $271 $416 #
vertex $-1 $269 $417 #
straight-curve $-1 -48.928549720351981 0 5.5024175838304048 0 1 0 I I #
face $-1 $418 $419 $38 $-1 $420 reversed single #
loop $-1 $-1 $287 $166 #
plane-surface $-1 0 -28.095515910196283 0 0 1 0 0 0 1 forward_v I I I I #
coedge $-1 $421 $422 $423 $424 reversed $167 $-1 #
coedge $-1 $425 $169 $426 $427 reversed $105 $-1 #
coedge $-1 $169 $425 $428 $429 reversed $105 $-1 #
coedge $-1 $290 $289 $169 $283 forward $291 $-1 #
edge $-1 $430 -28.095515910196283 $431 28.095515910196283 $282 $432 forward 7 unknown #
coedge $-1 $171 $170 $422 $433 forward $67 $-1 #
coedge $-1 $434 $423 $170 $286 forward $419 $-1 #
edge $-1 $435 21.725557466813562 $292 32.680427040263275 $285 $436 forward 7 unknown #
coedge $-1 $437 $438 $171 $288 forward $277 $-1 #
edge $-1 $293 -32.680427040263275 $439 -21.725557466813562 $287 $440 forward 7 unknown #
coedge $-1 $282 $172 $438 $441 forward $291 $-1 #
coedge $-1 $172 $282 $434 $442 reversed $291 $-1 #
loop $-1 $-1 $172 $418 #
vertex $-1 $442 $443 #
vertex $-1 $441 $444 #
straight-curve $-1 59.883419293801694 0 5.5024175838304048 0 -1 0 I I #
face $-1 $-1 $445 $39 $-1 $446 forward single #
loop $-1 $-1 $180 $174 #
plane-surface $-1 0 28.095515910196283 0 0 -1 0 0 0 -1 forward_v I I I I #
coedge $-1 $447 $448 $449 $450 reversed $175 $-1 #
coedge $-1 $451 $177 $179 $305 forward $109 $-1 #
coedge $-1 $177 $451 $447 $452 forward $109 $-1 #
coedge $-1 $449 $180 $177 $302 forward $296 $-1 #
edge $-1 $308 -1.7459652809835973 $453 12.454468539188383 $301 $454 forward 7 unknown #
coedge $-1 $455 $456 $178 $304 forward $445 $-1 #
edge $-1 $457 -22.988957850166756 $307 -11.654726382335674 $303 $458 forward 7 unknown #
edge $-1 $308 -56.191031820392567 $457 -39.252288448158438 $179 $459 forward 7 unknown #
coedge $-1 $180 $449 $455 $460 reversed $296 $-1 #
vertex $-1 $460 $461 #
vertex $-1 $181 $462 #
straight-curve $-1 -3.6082863481187957 28.095515910196283 60.977565849407299 0 0 -1 I I #
coedge $-1 $310 $310 $-1 $463 reversed $184 $-1 #
edge $-1 $464 0 $464 6.2831853071796004 $185 $465 forward 7 unknown #
vertex $-1 $188 $466 #
ellipse-curve $-1 -13.75145336252735 22.428400176280739 6.3513702873576197 0 0.74314483375859142 0.66913059716165679 1.5 0 0 1 I I #
coedge $-1 $314 $314 $-1 $467 reversed $191 $-1 #
edge $-1 $468 0 $468 6.2831853071796004 $192 $469 forward 7 unknown #
vertex $-1 $195 $470 #
ellipse-curve $-1 -7.6655531538822146 22.428400176280739 6.3513702873576197 0 0.74314483375859142 0.66913059716165679 1.5 0 0 1 I I #
face $-1 $-1 $330 $42 $-1 $471 reversed single #
loop $-1 $-1 $472 $196 #
plane-surface $-1 0 0 12.645340101076808 0 0 1 1 0 0 forward_v I I I I #
coedge $-1 $473 $474 $475 $476 reversed $197 $-1 #
coedge $-1 $477 $199 $201 $328 forward $123 $-1 #
coedge $-1 $199 $477 $473 $478 forward $123 $-1 #
coedge $-1 $475 $202 $199 $325 forward $330 $-1 #
edge $-1 $332 -12.454468539188383 $479 1.7459652809835973 $324 $480 forward 7 unknown #
coedge $-1 $481 $482 $200 $327 forward $319 $-1 #
edge $-1 $483 -22.988957850166756 $331 -11.654726382335674 $326 $484 forward 7 unknown #
edge $-1 $332 -56.191031820392567 $483 -39.252288448158438 $201 $485 forward 7 unknown #
coedge $-1 $202 $475 $481 $486 reversed $330 $-1 #
loop $-1 $-1 $475 $318 #
vertex $-1 $486 $487 #
vertex $-1 $203 $488 #
straight-curve $-1 17.808720168290776 28.095515910196283 60.977565849407299 0 0 -1 I I #
coedge $-1 $334 $334 $-1 $489 reversed $206 $-1 #
edge $-1 $490 0 $490 6.2831853071796004 $207 $491 forward 7 unknown #
vertex $-1 $210 $492 #
ellipse-curve $-1 7.6655531538822288 22.428400176280739 6.3513702873576197 0 0.74314483375859142 0.66913059716165679 1.5 0 0 1 I I #
coedge $-1 $338 $338 $-1 $493 reversed $213 $-1 #
edge $-1 $494 0 $494 6.2831853071796004 $214 $495 forward 7 unknown #
vertex $-1 $217 $496 #
ellipse-curve $-1 13.751453362527371 22.428400176280739 6.3513702873576197 0 0.74314483375859142 0.66913059716165679 1.5 0 0 1 I I #
face $-1 $-1 $497 $45 $-1 $498 forward single #
loop $-1 $-1 $353 $218 #
plane-surface $-1 0 -28.095515910196283 0 0 1 0 0 0 1 forward_v I I I I #
coedge $-1 $499 $500 $222 $351 forward $219 $-1 #
coedge $-1 $347 $221 $223 $352 reversed $137 $-1 #
coedge $-1 $221 $346 $501 $502 reversed $137 $-1 #
coedge $-1 $503 $224 $221 $349 forward $343 $-1 #
edge $-1 $355 -42.23488121814799 $504 -34.123884173102752 $348 $505 forward 7 unknown #
coedge $-1 $223 $222 $506 $507 reversed $88 $-1 #
edge $-1 $508 -1.8601400109719437 $354 10.261554723083169 $345 $509 forward 7 unknown #
edge $-1 $510 -12.121694734055112 $355 0 $346 $511 forward 7 unknown #
coedge $-1 $224 $503 $499 $512 forward $343 $-1 #
vertex $-1 $225 $513 #
vertex $-1 $225 $514 #
straight-curve $-1 -18.851610098025866 -28.095515910196283 4.5343430560315738 1 0 0 I I #
coedge $-1 $357 $357 $-1 $515 reversed $228 $-1 #
edge $-1 $516 0 $516 6.2831853071796004 $229 $517 forward 7 unknown #
vertex $-1 $232 $518 #
ellipse-curve $-1 -42.514075706466123 -23.591428595298655 8.5898415785541893 0 -0.66913061440640931 0.74314481823134659 1.5 0 0 1 I I #
coedge $-1 $361 $361 $-1 $519 reversed $235 $-1 #
edge $-1 $520 0 $520 6.2831853071796004 $236 $521 forward 7 unknown #
vertex $-1 $239 $522 #
ellipse-curve $-1 -32.892364685637347 -23.591428595298655 8.5898415785541893 0 -0.66913061440640931 0.74314481823134659 1.5 0 0 1 I I #
face $-1 $-1 $255 $36 $-1 $523 reversed single #
loop $-1 $-1 $381 $240 #
plane-surface $-1 0 28.095515910196283 0 0 -1 0 0 0 -1 forward_v I I I I #
coedge $-1 $524 $379 $382 $525 forward $241 $-1 #
coedge $-1 $385 $243 $244 $373 reversed $151 $-1 #
coedge $-1 $379 $524 $243 $371 reversed $241 $-1 #
edge $-1 $386 -12.645340101076808 $526 12.645340101076808 $370 $527 forward 7 unknown #
coedge $-1 $245 $244 $524 $528 forward $97 $-1 #
edge $-1 $377 -59.883419293801694 $526 59.883419293801694 $369 $529 forward 7 unknown #
coedge $-1 $382 $381 $245 $375 reversed $366 $-1 #
edge $-1 $530 -59.883419293801694 $376 59.883419293801694 $374 $531 forward 7 unknown #
vertex $-1 $247 $532 #
vertex $-1 $388 $533 #
straight-curve $-1 59.883419293801694 0 -12.645340101076808 0 -1 0 I I #
coedge $-1 $368 $370 $248 $380 reversed $241 $-1 #
edge $-1 $383 -28.095515910196283 $386 28.095515910196283 $379 $534 forward 7 unknown #
coedge $-1 $374 $249 $254 $389 forward $366 $-1 #
coedge $-1 $249 $374 $368 $525 reversed $366 $-1 #
vertex $-1 $250 $535 #
straight-curve $-1 0 28.095515910196283 12.645340101076808 -1 0 0 I I #
coedge $-1 $251 $369 $253 $388 reversed $151 $-1 #
vertex $-1 $380 $536 #
straight-curve $-1 0 -28.095515910196283 12.645340101076808 1 0 0 I I #
edge $-1 $256 -12.645340101076808 $377 12.645340101076808 $253 $537 forward 7 unknown #
edge $-1 $257 -12.645340101076808 $376 12.645340101076808 $254 $538 forward 7 unknown #
point $-1 59.883419293801694 -28.095515910196283 12.645340101076808 #
point $-1 59.883419293801694 28.095515910196283 12.645340101076808 #
face $-1 $-1 $409 $37 $-1 $539 reversed single #
loop $-1 $-1 $540 $259 #
plane-surface $-1 -59.883419293801694 0 0 1 0 0 0 0 -1 forward_v I I I I #
coedge $-1 $396 $412 $263 $399 forward $260 $-1 #
coedge $-1 $270 $395 $262 $397 forward $260 $-1 #
edge $-1 $403 0.50120879191520107 $273 3.5012087919152028 $396 $541 forward 7 unknown #
coedge $-1 $264 $263 $540 $542 reversed $101 $-1 #
edge $-1 $543 -32.680427040263275 $403 -21.725557466813562 $395 $544 forward 7 unknown #
coedge $-1 $408 $407 $264 $401 forward $409 $-1 #
edge $-1 $402 21.725557466813562 $545 32.680427040263275 $400 $546 forward 7 unknown #
vertex $-1 $401 $547 #
vertex $-1 $399 $548 #
straight-curve $-1 -48.928549720351981 0 2.502417583830403 0 -1 0 I I #
coedge $-1 $549 $550 $267 $406 forward $393 $-1 #
edge $-1 $413 -28.095515910196283 $410 28.095515910196283 $405 $551 forward 7 unknown #
coedge $-1 $400 $268 $272 $415 forward $409 $-1 #
coedge $-1 $268 $400 $549 $552 reversed $409 $-1 #
loop $-1 $-1 $400 $392 #
vertex $-1 $552 $553 #
straight-curve $-1 -27.202992253538419 28.095515910196283 5.5024175838304048 1 0 0 I I #
coedge $-1 $395 $270 $550 $554 forward $260 $-1 #
vertex $-1 $554 $555 #
straight-curve $-1 -27.202992253538419 -28.095515910196283 5.5024175838304048 -1 0 0 I I #
edge $-1 $274 -3.5012087919152028 $402 -0.50120879191520107 $407 $556 forward 7 unknown #
point $-1 -48.928549720351981 -28.095515910196283 5.5024175838304048 #
point $-1 -48.928549720351981 28.095515910196283 5.5024175838304048 #
face $-1 $-1 $291 $38 $-1 $557 reversed single #
loop $-1 $-1 $285 $276 #
plane-surface $-1 0 28.095515910196283 0 0 -1 0 0 0 -1 forward_v I I I I #
coedge $-1 $558 $279 $425 $559 reversed $167 $-1 #
coedge $-1 $279 $558 $284 $433 reversed $167 $-1 #
coedge $-1 $285 $428 $279 $424 forward $419 $-1 #
edge $-1 $560 0.50120879191520107 $435 3.5012087919152028 $423 $561 forward 7 unknown #
coedge $-1 $281 $280 $421 $559 forward $105 $-1 #
coedge $-1 $438 $437 $280 $427 forward $277 $-1 #
edge $-1 $562 21.725557466813562 $430 32.680427040263275 $426 $563 forward 7 unknown #
coedge $-1 $423 $434 $281 $429 forward $419 $-1 #
edge $-1 $431 -32.680427040263275 $560 -21.725557466813562 $428 $564 forward 7 unknown #
vertex $-1 $283 $565 #
vertex $-1 $283 $566 #
straight-curve $-1 59.883419293801694 0 2.502417583830403 0 1 0 I I #
edge $-1 $435 -28.095515910196283 $439 28.095515910196283 $422 $567 forward 7 unknown #
coedge $-1 $428 $285 $290 $442 forward $419 $-1 #
vertex $-1 $286 $568 #
straight-curve $-1 27.202992253538419 28.095515910196283 5.5024175838304048 1 0 0 I I #
coedge $-1 $426 $287 $558 $569 forward $277 $-1 #
coedge $-1 $287 $426 $289 $441 reversed $277 $-1 #
vertex $-1 $288 $570 #
straight-curve $-1 27.202992253538419 -28.095515910196283 5.5024175838304048 -1 0 0 I I #
edge $-1 $293 -5.5024175838304048 $430 -2.502417583830403 $289 $571 forward 7 unknown #
edge $-1 $292 -5.5024175838304048 $431 -2.502417583830403 $290 $572 forward 7 unknown #
point $-1 59.883419293801694 28.095515910196283 5.5024175838304048 #
point $-1 59.883419293801694 -28.095515910196283 5.5024175838304048 #
loop $-1 $-1 $303 $295 #
plane-surface $-1 0 0 12.645340101076808 0 0 1 1 0 0 forward_v I I I I #
coedge $-1 $448 $298 $300 $452 reversed $175 $-1 #
coedge $-1 $298 $447 $573 $574 reversed $175 $-1 #
coedge $-1 $306 $301 $298 $450 forward $296 $-1 #
edge $-1 $453 -60.920165375768875 $575 -48.332225748330487 $449 $576 forward 7 unknown #
coedge $-1 $300 $299 $456 $577 reversed $109 $-1 #
edge $-1 $578 39.252288448158438 $453 56.191031820392567 $447 $579 forward 7 unknown #
vertex $-1 $302 $580 #
straight-curve $-1 -5.3542516291023929 28.095515910196283 0.057400473638431038 -1 0 0 I I #
coedge $-1 $573 $303 $306 $460 forward $445 $-1 #
coedge $-1 $303 $573 $451 $577 forward $445 $-1 #
vertex $-1 $304 $581 #
straight-curve $-1 -3.6082863481187957 39.750242292531958 12.645340101076812 0 1 0 I I #
straight-curve $-1 -3.6082863481187957 -9.5036227669126561 41.815475474527787 0 -0.66913059716165679 0.74314483375859142 I I #
edge $-1 $307 3.6082863481187957 $575 17.808720168290776 $306 $582 forward 7 unknown #
point $-1 -3.6082863481187957 28.095515910196283 12.645340101076808 #
point $-1 -3.6082863481187957 28.095515910196283 0.057400473638423932 #
edge $-1 $583 1 $583 0 $310 $-1 forward 7 unknown #
vertex $-1 $311 $584 #
ellipse-curve $-1 -13.75145336252735 19.088296745935292 3.3439277251520796 0 0.74314483375859142 0.66913059716165679 1.5 0 0 1 I I #
point $-1 -12.25145336252735 22.428400176280732 6.3513702873576126 #
edge $-1 $585 1 $585 0 $314 $-1 forward 7 unknown #
vertex $-1 $315 $586 #
ellipse-curve $-1 -7.6655531538822146 19.088296745935292 3.3439277251520796 0 0.74314483375859142 0.66913059716165679 1.5 0 0 1 I I #
point $-1 -6.1655531538822146 22.428400176280732 6.3513702873576126 #
plane-surface $-1 0 28.095515910196283 0 0 -1 0 0 0 -1 forward_v I I I I #
coedge $-1 $482 $481 $474 $587 forward $319 $-1 #
coedge $-1 $474 $321 $323 $478 reversed $197 $-1 #
coedge $-1 $321 $473 $472 $587 reversed $197 $-1 #
coedge $-1 $329 $324 $321 $476 forward $330 $-1 #
edge $-1 $479 -60.920165375768875 $588 -48.332225748330487 $475 $589 forward 7 unknown #
coedge $-1 $323 $322 $482 $590 reversed $123 $-1 #
edge $-1 $591 39.252288448158438 $479 56.191031820392567 $473 $592 forward 7 unknown #
vertex $-1 $325 $593 #
straight-curve $-1 5.3542516291023929 28.095515910196283 0.057400473638431038 -1 0 0 I I #
coedge $-1 $472 $326 $329 $486 forward $319 $-1 #
coedge $-1 $326 $472 $477 $590 forward $319 $-1 #
vertex $-1 $327 $594 #
straight-curve $-1 17.808720168290776 39.750242292531958 12.645340101076812 0 1 0 I I #
straight-curve $-1 17.808720168290776 -9.5036227669126561 41.815475474527787 0 -0.66913059716165679 0.74314483375859142 I I #
edge $-1 $331 -17.808720168290776 $588 -3.6082863481187957 $329 $595 forward 7 unknown #
point $-1 17.808720168290776 28.095515910196283 12.645340101076808 #
point $-1 17.808720168290776 28.095515910196283 0.057400473638423932 #
edge $-1 $596 1 $596 0 $334 $-1 forward 7 unknown #
vertex $-1 $335 $597 #
ellipse-curve $-1 7.6655531538822288 19.088296745935292 3.3439277251520796 0 0.74314483375859142 0.66913059716165679 1.5 0 0 1 I I #
point $-1 9.1655531538822288 22.428400176280732 6.3513702873576126 #
edge $-1 $598 1 $598 0 $338 $-1 forward 7 unknown #
vertex $-1 $339 $599 #
ellipse-curve $-1 13.751453362527371 19.088296745935292 3.3439277251520796 0 0.74314483375859142 0.66913059716165679 1.5 0 0 1 I I #
point $-1 15.251453362527371 22.428400176280732 6.3513702873576126 #
loop $-1 $-1 $600 $342 #
plane-surface $-1 0 0 12.645340101076808 0 0 1 1 0 0 forward_v I I I I #
coedge $-1 $500 $345 $353 $512 reversed $219 $-1 #
coedge $-1 $345 $499 $600 $601 reversed $219 $-1 #
coedge $-1 $506 $602 $347 $502 forward $497 $-1 #
edge $-1 $504 26.022071189720009 $510 35.030245819515265 $501 $603 forward 7 unknown #
coedge $-1 $353 $348 $602 $604 reversed $343 $-1 #
vertex $-1 $502 $605 #
straight-curve $-1 -26.477890671751492 -28.095515910196283 46.769224274179564 0 0 1 I I #
coedge $-1 $600 $501 $350 $507 forward $497 $-1 #
edge $-1 $510 7.6262805737256265 $508 30.076939622326101 $506 $606 forward 7 unknown #
vertex $-1 $601 $607 #
straight-curve $-1 -48.928549720351981 -20.469694690739626 11.400663472653205 0 -0.74314481823134659 -0.66913061440640931 I I #
vertex $-1 $507 $608 #
straight-curve $-1 -26.477890671751492 -28.095515910196283 4.5343430560315738 0 -0.74314481823134659 -0.66913061440640931 I I #
edge $-1 $609 34.123884173102752 $354 42.23488121814799 $353 $610 forward 7 unknown #
point $-1 -48.928549720351981 -28.095515910196283 4.5343430560315738 #
point $-1 -26.477890671751492 -28.095515910196283 4.5343430560315738 #
edge $-1 $611 1 $611 0 $357 $-1 forward 7 unknown #
vertex $-1 $358 $612 #
ellipse-curve $-1 -42.514075706466123 -21.483075975761029 6.2482788246159293 0 -0.66913061440640931 0.74314481823134659 1.5 0 0 1 I I #
point $-1 -41.014075706466123 -23.591428595298666 8.5898415785542017 #
edge $-1 $613 1 $613 0 $361 $-1 forward 7 unknown #
vertex $-1 $362 $614 #
ellipse-curve $-1 -32.892364685637347 -21.483075975761029 6.2482788246159293 0 -0.66913061440640931 0.74314481823134659 1.5 0 0 1 I I #
point $-1 -31.392364685637347 -23.591428595298666 8.5898415785542017 #
plane-surface $-1 59.883419293801694 0 0 -1 0 0 0 0 1 forward_v I I I I #
coedge $-1 $370 $368 $372 $528 reversed $241 $-1 #
edge $-1 $383 -12.645340101076808 $530 12.645340101076808 $382 $615 forward 7 unknown #
vertex $-1 $528 $616 #
straight-curve $-1 -59.883419293801694 -28.095515910196283 0 0 0 -1 I I #
edge $-1 $526 -28.095515910196283 $530 28.095515910196283 $524 $617 forward 7 unknown #
straight-curve $-1 0 -28.095515910196283 -12.645340101076808 -1 0 0 I I #
vertex $-1 $375 $618 #
straight-curve $-1 0 28.095515910196283 -12.645340101076808 1 0 0 I I #
point $-1 59.883419293801694 28.095515910196283 -12.645340101076808 #
point $-1 59.883419293801694 -28.095515910196283 -12.645340101076808 #
straight-curve $-1 -59.883419293801694 0 12.645340101076808 0 -1 0 I I #
point $-1 -59.883419293801694 28.095515910196283 12.645340101076808 #
point $-1 -59.883419293801694 -28.095515910196283 12.645340101076808 #
straight-curve $-1 59.883419293801694 -28.095515910196283 0 0 0 -1 I I #
straight-curve $-1 59.883419293801694 28.095515910196283 0 0 0 -1 I I #
plane-surface $-1 0 28.095515910196283 0 0 -1 0 0 0 -1 forward_v I I I I #
coedge $-1 $550 $549 $398 $542 forward $393 $-1 #
straight-curve $-1 -48.928549720351981 -28.095515910196283 2.001208791915202 0 0 1 I I #
edge $-1 $545 -28.095515910196283 $543 28.095515910196283 $540 $619 forward 7 unknown #
vertex $-1 $399 $620 #
straight-curve $-1 -27.202992253538419 -28.095515910196283 2.502417583830403 1 0 0 I I #
vertex $-1 $401 $621 #
straight-curve $-1 -27.202992253538419 28.095515910196283 2.502417583830403 -1 0 0 I I #
point $-1 -48.928549720351981 28.095515910196283 2.502417583830403 #
point $-1 -48.928549720351981 -28.095515910196283 2.502417583830403 #
coedge $-1 $540 $405 $408 $552 forward $393 $-1 #
coedge $-1 $405 $540 $412 $554 reversed $393 $-1 #
straight-curve $-1 -59.883419293801694 0 5.5024175838304048 0 1 0 I I #
edge $-1 $410 -5.5024175838304048 $545 -2.502417583830403 $408 $622 forward 7 unknown #
point $-1 -59.883419293801694 28.095515910196283 5.5024175838304048 #
edge $-1 $413 -5.5024175838304048 $543 -2.502417583830403 $550 $623 forward 7 unknown #
point $-1 -59.883419293801694 -28.095515910196283 5.5024175838304048 #
straight-curve $-1 -48.928549720351981 28.095515910196283 2.001208791915202 0 0 -1 I I #
plane-surface $-1 59.883419293801694 0 0 -1 0 0 0 0 1 forward_v I I I I #
coedge $-1 $422 $421 $437 $569 reversed $167 $-1 #
edge $-1 $562 -28.095515910196283 $560 28.095515910196283 $421 $624 forward 7 unknown #
vertex $-1 $429 $625 #
straight-curve $-1 48.928549720351981 28.095515910196283 2.001208791915202 0 0 1 I I #
vertex $-1 $427 $626 #
straight-curve $-1 27.202992253538419 -28.095515910196283 2.502417583830403 1 0 0 I I #
straight-curve $-1 27.202992253538419 28.095515910196283 2.502417583830403 -1 0 0 I I #
point $-1 59.883419293801694 -28.095515910196283 2.502417583830403 #
point $-1 59.883419293801694 28.095515910196283 2.502417583830403 #
straight-curve $-1 48.928549720351981 0 5.5024175838304048 0 -1 0 I I #
point $-1 48.928549720351981 28.095515910196283 5.5024175838304048 #
edge $-1 $439 -3.5012087919152028 $562 -0.50120879191520107 $437 $627 forward 7 unknown #
point $-1 48.928549720351981 -28.095515910196283 5.5024175838304048 #
straight-curve $-1 59.883419293801694 -28.095515910196283 0 0 0 -1 I I #
straight-curve $-1 59.883419293801694 28.095515910196283 0 0 0 -1 I I #
coedge $-1 $456 $455 $448 $574 forward $445 $-1 #
edge $-1 $575 11.654726382335674 $578 22.988957850166756 $573 $628 forward 7 unknown #
vertex $-1 $574 $629 #
straight-curve $-1 -17.808720168290776 28.095515910196283 60.977565849407299 0 0 1 I I #
edge $-1 $578 -12.454468539188383 $457 1.7459652809835973 $456 $630 forward 7 unknown #
vertex $-1 $577 $631 #
straight-curve $-1 -17.808720168290776 -9.5036227669126561 41.815475474527787 0 0.66913059716165679 -0.74314483375859142 I I #
point $-1 -17.808720168290776 28.095515910196283 0.057400473638423932 #
point $-1 -3.6082863481187957 16.761284442365202 12.645340101076805 #
straight-curve $-1 0 28.095515910196283 12.645340101076808 -1 0 0 I I #
vertex $-1 $463 $632 #
point $-1 -12.25145336252735 19.088296745935292 3.3439277251520796 #
vertex $-1 $467 $633 #
point $-1 -6.1655531538822146 19.088296745935292 3.3439277251520796 #
edge $-1 $588 11.654726382335674 $591 22.988957850166756 $472 $634 forward 7 unknown #
vertex $-1 $587 $635 #
straight-curve $-1 3.6082863481187957 28.095515910196283 60.977565849407299 0 0 1 I I #
edge $-1 $591 -1.7459652809835973 $483 12.454468539188383 $482 $636 forward 7 unknown #
vertex $-1 $590 $637 #
straight-curve $-1 3.6082863481187957 -9.5036227669126561 41.815475474527787 0 0.66913059716165679 -0.74314483375859142 I I #
point $-1 3.6082863481187957 28.095515910196283 0.057400473638423932 #
point $-1 17.808720168290776 16.761284442365202 12.645340101076805 #
straight-curve $-1 0 28.095515910196283 12.645340101076808 -1 0 0 I I #
vertex $-1 $489 $638 #
point $-1 9.1655531538822288 19.088296745935292 3.3439277251520796 #
vertex $-1 $493 $639 #
point $-1 15.251453362527371 19.088296745935292 3.3439277251520796 #
coedge $-1 $602 $506 $500 $601 forward $497 $-1 #
edge $-1 $508 -35.030245819515265 $609 -26.022071189720009 $600 $640 forward 7 unknown #
coedge $-1 $501 $600 $503 $604 forward $497 $-1 #
straight-curve $-1 -26.477890671751492 -54.117587099916292 12.645340101076812 0 1 0 I I #
edge $-1 $609 -48.928549720351967 $504 -26.477890671751492 $503 $641 forward 7 unknown #
point $-1 -26.477890671751492 -28.095515910196283 12.645340101076808 #
straight-curve $-1 -18.851610098025866 -19.087341280401024 12.645340101076808 -1 0 0 I I #
point $-1 -48.928549720351967 -19.087341280401027 12.645340101076808 #
point $-1 -26.477890671751492 -19.087341280401027 12.645340101076808 #
vertex $-1 $604 $642 #
straight-curve $-1 -48.928549720351967 -28.095515910196283 46.769224274179564 0 0 -1 I I #
vertex $-1 $515 $643 #
point $-1 -41.014075706466123 -21.483075975761029 6.2482788246159293 #
vertex $-1 $519 $644 #
point $-1 -31.392364685637347 -21.483075975761029 6.2482788246159293 #
straight-curve $-1 -59.883419293801694 28.095515910196283 0 0 0 -1 I I #
point $-1 -59.883419293801694 -28.095515910196283 -12.645340101076808 #
straight-curve $-1 -59.883419293801694 0 -12.645340101076808 0 1 0 I I #
point $-1 -59.883419293801694 28.095515910196283 -12.645340101076808 #
straight-curve $-1 -59.883419293801694 0 2.502417583830403 0 -1 0 I I #
point $-1 -59.883419293801694 -28.095515910196283 2.502417583830403 #
point $-1 -59.883419293801694 28.095515910196283 2.502417583830403 #
straight-curve $-1 -59.883419293801694 28.095515910196283 0 0 0 -1 I I #
straight-curve $-1 -59.883419293801694 -28.095515910196283 0 0 0 -1 I I #
straight-curve $-1 48.928549720351981 0 2.502417583830403 0 1 0 I I #
point $-1 48.928549720351981 28.095515910196283 2.502417583830403 #
point $-1 48.928549720351981 -28.095515910196283 2.502417583830403 #
straight-curve $-1 48.928549720351981 -28.095515910196283 2.001208791915202 0 0 -1 I I #
straight-curve $-1 -17.808720168290776 39.750242292531958 12.645340101076812 0 -1 0 I I #
point $-1 -17.808720168290776 28.095515910196283 12.645340101076808 #
straight-curve $-1 -5.3542516291023929 16.761284442365206 12.645340101076808 1 0 0 I I #
point $-1 -17.808720168290776 16.761284442365202 12.645340101076805 #
point $-1 -13.75145336252735 17.973579495297404 2.3402318294095945 #
point $-1 -7.6655531538822146 17.973579495297404 2.3402318294095945 #
straight-curve $-1 3.6082863481187957 39.750242292531958 12.645340101076812 0 -1 0 I I #
point $-1 3.6082863481187957 28.095515910196283 12.645340101076808 #
straight-curve $-1 5.3542516291023929 16.761284442365206 12.645340101076808 1 0 0 I I #
point $-1 3.6082863481187957 16.761284442365202 12.645340101076805 #
point $-1 7.6655531538822288 17.973579495297404 2.3402318294095945 #
point $-1 13.751453362527371 17.973579495297404 2.3402318294095945 #
straight-curve $-1 -48.928549720351967 -54.117587099916292 12.645340101076812 0 -1 0 I I #
straight-curve $-1 0 -28.095515910196283 12.645340101076808 1 0 0 I I #
point $-1 -48.928549720351967 -28.095515910196283 12.645340101076808 #
point $-1 -42.514075706466123 -20.479380054151417 5.1335615972689093 #
point $-1 -32.892364685637347 -20.479380054151417 5.1335615972689093 #
End-of-ACIS-data 