500 0 7 0           
7 Unknown 11 ACIS 5.0 NT 24 Thu Mar 25 15:30:34 1999 
-1 9.9999999999999995e-007 1e-010 
body $-1 $7 $-1 $8 #
body $-1 $9 $-1 $10 #
body $-1 $11 $-1 $12 #
body $-1 $13 $-1 $14 #
body $-1 $15 $-1 $16 #
body $-1 $17 $-1 $18 #
body $-1 $19 $-1 $20 #
lump $-1 $-1 $21 $0 #
transform $-1 1 0 0 0 1 0 0 0 1 78.603473006378366 45.050846382246974 18.142565801147999 1 rotate no_reflect no_shear #
lump $-1 $-1 $22 $1 #
transform $-1 1 0 0 0 1 0 0 0 1 78.603473006378366 45.050846382246974 18.142565801147999 1 rotate no_reflect no_shear #
lump $-1 $-1 $23 $2 #
transform $-1 1 0 0 0 1 0 0 0 1 78.603473006378366 45.050846382246974 18.142565801147999 1 rotate no_reflect no_shear #
lump $-1 $-1 $24 $3 #
transform $-1 1 0 0 0 1 0 0 0 1 78.603473006378366 45.050846382246974 18.142565801147999 1 rotate no_reflect no_shear #
lump $-1 $-1 $25 $4 #
transform $-1 1 0 0 0 1 0 0 0 1 78.603473006378366 45.050846382246974 18.142565801147999 1 rotate no_reflect no_shear #
lump $-1 $-1 $26 $5 #
transform $-1 1 0 0 0 1 0 0 0 1 78.603473006378366 45.050846382246974 18.142565801147999 1 rotate no_reflect no_shear #
lump $-1 $-1 $27 $6 #
transform $-1 1 0 0 0 1 0 0 0 1 78.603473006378366 45.050846382246974 18.142565801147999 1 rotate no_reflect no_shear #
shell $-1 $-1 $-1 $28 $-1 $7 #
shell $-1 $-1 $-1 $29 $-1 $9 #
shell $-1 $-1 $-1 $30 $-1 $11 #
shell $-1 $-1 $-1 $31 $-1 $13 #
shell $-1 $-1 $-1 $32 $-1 $15 #
shell $-1 $-1 $-1 $33 $-1 $17 #
shell $-1 $-1 $-1 $34 $-1 $19 #
face $-1 $35 $36 $21 $-1 $37 forward single #
face $-1 $38 $39 $22 $-1 $40 forward single #
face $-1 $41 $42 $23 $-1 $43 forward single #
face $-1 $44 $45 $24 $-1 $46 reversed single #
face $-1 $47 $48 $25 $-1 $49 forward single #
face $-1 $50 $51 $26 $-1 $52 reversed single #
face $-1 $53 $54 $27 $-1 $55 forward single #
face $-1 $56 $57 $21 $-1 $58 reversed single #
loop $-1 $-1 $59 $28 #
plane-surface $-1 0 0 18.142565801147999 0 0 1 1 0 0 forward_v I I I I #
face $-1 $60 $61 $22 $-1 $62 reversed single #
loop $-1 $-1 $63 $29 #
plane-surface $-1 -66.747048515395278 0 12.609494826291456 0 0 1 1 0 0 forward_v I I I I #
face $-1 $64 $65 $23 $-1 $66 reversed single #
loop $-1 $-1 $67 $30 #
plane-surface $-1 66.747048515395292 0 12.609494826291456 0 0 1 1 0 0 forward_v I I I I #
face $-1 $68 $69 $24 $-1 $70 reversed single #
loop $-1 $-1 $71 $31 #
plane-surface $-1 34.149550007997597 -170.60189718698254 102.89361630892067 1 0 0 0 0.79863551827123203 -0.60181501223851219 forward_v I I I I #
face $-1 $72 $73 $25 $-1 $74 forward single #
loop $-1 $75 $76 $32 #
cone-surface $-1 44.520087016204883 -36.923318488864687 9.8878387283043914 0 0.79863551827123203 -0.60181501223851219 3 0 0 1 I I 0 1 3 forward I I I I #
face $-1 $77 $78 $26 $-1 $79 reversed single #
loop $-1 $-1 $80 $33 #
plane-surface $-1 21.448315555187676 98.575523662480052 184.00530340027123 -1 0 0 0 0.73135370988377701 0.68199835119979291 forward_v I I I I #
face $-1 $81 $82 $27 $-1 $83 forward single #
loop $-1 $84 $85 $34 #
cone-surface $-1 9.1834849696981991 41.042494644554992 13.932068417870223 0 -0.73135370988377701 -0.68199835119979291 0.5 0 0 1 I I 0 1 0.5 forward I I I I #
face $-1 $86 $87 $21 $-1 $88 reversed single #
loop $-1 $-1 $89 $35 #
plane-surface $-1 0 0 -18.142565801147999 0 0 1 1 0 0 forward_v I I I I #
coedge $-1 $90 $91 $92 $93 forward $36 $-1 #
face $-1 $94 $95 $22 $-1 $96 reversed single #
loop $-1 $-1 $97 $38 #
plane-surface $-1 -66.747048515395278 0 5.8043854407636495 0 0 1 1 0 0 forward_v I I I I #
coedge $-1 $98 $99 $100 $101 forward $39 $-1 #
face $-1 $102 $103 $23 $-1 $104 reversed single #
loop $-1 $-1 $105 $41 #
plane-surface $-1 66.747048515395292 0 5.8043854407636495 0 0 1 1 0 0 forward_v I I I I #
coedge $-1 $106 $107 $108 $109 reversed $42 $-1 #
face $-1 $110 $111 $24 $-1 $112 forward single #
loop $-1 $-1 $113 $44 #
plane-surface $-1 44.520087016204897 -45.050846382246974 8.2841161702743591 0 -0.79863551827123203 0.60181501223851219 1 0 0 forward_v I I I I #
coedge $-1 $114 $115 $116 $117 reversed $45 $-1 #
face $-1 $-1 $118 $25 $-1 $119 forward single #
loop $-1 $120 $121 $47 #
cone-surface $-1 44.520087016204883 -31.312274536006832 5.6596139525398463 0 0.79863551827123203 -0.60181501223851219 1.5 0 0 1 I I -0.70710678118654757 0.70710678118654757 1.5 forward I I I I #
loop $-1 $-1 $122 $32 #
coedge $-1 $76 $76 $123 $124 reversed $48 $-1 #
face $-1 $125 $126 $26 $-1 $127 reversed single #
loop $-1 $-1 $128 $50 #
plane-surface $-1 9.1834849696981991 -16.398359523448235 76.790425422416277 0 0.73135370988377701 0.68199835119979291 1 0 0 forward_v I I I I #
coedge $-1 $129 $130 $131 $132 reversed $51 $-1 #
face $-1 $-1 $133 $27 $-1 $134 forward single #
loop $-1 $135 $136 $53 #
cone-surface $-1 9.1834849696981991 40.230901163345422 13.17524527121881 0 -0.73135370988377701 -0.68199835119979291 0.25 0 0 1 I I -0.70710678118654746 0.70710678118654746 0.25 forward I I I I #
loop $-1 $-1 $137 $34 #
coedge $-1 $85 $85 $138 $139 reversed $54 $-1 #
face $-1 $140 $141 $21 $-1 $142 reversed single #
loop $-1 $-1 $143 $56 #
plane-surface $-1 0 -45.050846382246974 0 0 1 0 0 0 1 forward_v I I I I #
coedge $-1 $144 $145 $146 $147 forward $57 $-1 #
coedge $-1 $148 $59 $149 $150 forward $36 $-1 #
coedge $-1 $59 $148 $151 $152 forward $36 $-1 #
coedge $-1 $153 $154 $59 $93 reversed $155 $-1 #
edge $-1 $156 -45.050846382246974 $157 45.050846382246974 $92 $158 forward 7 unknown #
face $-1 $159 $160 $22 $-1 $161 reversed single #
loop $-1 $-1 $162 $60 #
plane-surface $-1 -54.89062402441219 0 9.2069401335275529 -1 0 0 0 0 1 forward_v I I I I #
coedge $-1 $163 $164 $165 $166 forward $61 $-1 #
coedge $-1 $167 $63 $168 $169 reversed $39 $-1 #
coedge $-1 $63 $167 $170 $171 reversed $39 $-1 #
coedge $-1 $162 $172 $63 $101 reversed $95 $-1 #
edge $-1 $173 -45.050846382246974 $174 45.050846382246974 $100 $175 forward 7 unknown #
face $-1 $176 $177 $23 $-1 $178 reversed single #
loop $-1 $-1 $179 $64 #
plane-surface $-1 54.890624024412205 0 9.2069401335275529 1 0 0 0 0 -1 forward_v I I I I #
coedge $-1 $180 $181 $182 $183 reversed $65 $-1 #
coedge $-1 $184 $67 $185 $186 reversed $42 $-1 #
coedge $-1 $67 $184 $187 $188 reversed $42 $-1 #
coedge $-1 $189 $190 $67 $109 forward $191 $-1 #
edge $-1 $192 -45.050846382246974 $193 45.050846382246974 $108 $194 forward 7 unknown #
face $-1 $195 $196 $24 $-1 $197 reversed single #
loop $-1 $-1 $198 $68 #
plane-surface $-1 0 0 18.142565801147999 0 0 1 1 0 0 forward_v I I I I #
coedge $-1 $199 $200 $201 $202 reversed $69 $-1 #
coedge $-1 $115 $71 $203 $204 reversed $45 $-1 #
coedge $-1 $71 $114 $199 $205 reversed $45 $-1 #
coedge $-1 $201 $206 $71 $117 forward $196 $-1 #
edge $-1 $207 33.304242353312333 $208 43.162691984185976 $116 $209 forward 7 unknown #
loop $-1 $-1 $123 $72 #
plane-surface $-1 44.520087016204897 -45.050846382246974 8.2841161702743591 0 -0.79863551827123203 0.60181501223851219 1 0 0 forward_v I I I I #
loop $-1 $-1 $210 $47 #
coedge $-1 $121 $121 $122 $211 reversed $73 $-1 #
coedge $-1 $122 $122 $121 $211 forward $75 $-1 #
coedge $-1 $123 $123 $76 $124 forward $118 $-1 #
edge $-1 $212 4.8633245966789302e-016 $212 6.2831853071796013 $123 $213 forward 7 unknown #
face $-1 $214 $215 $26 $-1 $216 reversed single #
loop $-1 $-1 $217 $77 #
plane-surface $-1 -3.0813456157912782 98.575523662480052 184.00530340027123 1 0 0 0 -0.73135370988377701 -0.68199835119979291 forward_v I I I I #
coedge $-1 $218 $219 $220 $221 reversed $78 $-1 #
coedge $-1 $130 $80 $222 $223 reversed $51 $-1 #
coedge $-1 $80 $129 $218 $224 reversed $51 $-1 #
coedge $-1 $220 $225 $80 $132 forward $215 $-1 #
edge $-1 $226 73.86008589898762 $227 81.108433547840292 $131 $228 forward 7 unknown #
loop $-1 $-1 $138 $81 #
plane-surface $-1 9.1834849696981991 -16.398359523448235 76.790425422416277 0 0.73135370988377701 0.68199835119979291 1 0 0 forward_v I I I I #
loop $-1 $-1 $229 $53 #
coedge $-1 $136 $136 $137 $230 reversed $82 $-1 #
coedge $-1 $137 $137 $136 $230 forward $84 $-1 #
coedge $-1 $138 $138 $85 $139 forward $133 $-1 #
edge $-1 $231 -6.5993443216407389e-015 $231 6.2831853071795942 $138 $232 forward 7 unknown #
face $-1 $233 $234 $21 $-1 $235 reversed single #
loop $-1 $-1 $236 $86 #
plane-surface $-1 -78.603473006378366 0 0 1 0 0 0 0 -1 forward_v I I I I #
coedge $-1 $237 $151 $238 $239 forward $87 $-1 #
coedge $-1 $240 $89 $237 $241 forward $57 $-1 #
coedge $-1 $89 $240 $242 $243 forward $57 $-1 #
coedge $-1 $154 $153 $89 $147 reversed $155 $-1 #
edge $-1 $244 -45.050846382246974 $245 45.050846382246974 $146 $246 forward 7 unknown #
coedge $-1 $91 $90 $247 $248 forward $36 $-1 #
coedge $-1 $249 $250 $90 $150 reversed $234 $-1 #
edge $-1 $157 -78.603473006378366 $251 78.603473006378366 $149 $252 forward 7 unknown #
coedge $-1 $143 $253 $91 $152 reversed $87 $-1 #
edge $-1 $254 -78.603473006378366 $156 78.603473006378366 $151 $255 forward 7 unknown #
coedge $-1 $146 $92 $253 $256 forward $155 $-1 #
coedge $-1 $92 $146 $249 $257 reversed $155 $-1 #
loop $-1 $-1 $153 $233 #
vertex $-1 $93 $258 #
vertex $-1 $93 $259 #
straight-curve $-1 78.603473006378366 0 18.142565801147999 0 1 0 I I #
face $-1 $260 $261 $22 $-1 $262 reversed single #
loop $-1 $-1 $263 $94 #
plane-surface $-1 0 -45.050846382246974 0 0 1 0 0 0 1 forward_v I I I I #
coedge $-1 $165 $100 $264 $265 reversed $95 $-1 #
coedge $-1 $266 $97 $263 $267 reversed $61 $-1 #
coedge $-1 $97 $266 $268 $269 reversed $61 $-1 #
coedge $-1 $172 $162 $97 $166 reversed $95 $-1 #
edge $-1 $270 -45.050846382246974 $271 45.050846382246974 $165 $272 forward 7 unknown #
coedge $-1 $99 $98 $273 $274 reversed $39 $-1 #
coedge $-1 $275 $276 $98 $169 forward $277 $-1 #
edge $-1 $278 -45.229948748680727 $174 -21.517099766714551 $168 $279 forward 7 unknown #
coedge $-1 $280 $264 $99 $171 forward $160 $-1 #
edge $-1 $173 21.517099766714551 $281 45.229948748680727 $170 $282 forward 7 unknown #
coedge $-1 $100 $165 $275 $283 reversed $95 $-1 #
vertex $-1 $171 $284 #
vertex $-1 $169 $285 #
straight-curve $-1 -54.89062402441219 0 12.609494826291456 0 1 0 I I #
face $-1 $286 $287 $23 $-1 $288 reversed single #
loop $-1 $-1 $187 $102 #
plane-surface $-1 0 -45.050846382246974 0 0 1 0 0 0 1 forward_v I I I I #
coedge $-1 $289 $290 $291 $292 reversed $103 $-1 #
coedge $-1 $293 $105 $294 $295 reversed $65 $-1 #
coedge $-1 $105 $293 $296 $297 reversed $65 $-1 #
coedge $-1 $190 $189 $105 $183 forward $191 $-1 #
edge $-1 $298 -45.050846382246974 $299 45.050846382246974 $182 $300 forward 7 unknown #
coedge $-1 $107 $106 $290 $301 forward $42 $-1 #
coedge $-1 $302 $291 $106 $186 forward $287 $-1 #
edge $-1 $303 21.517099766714558 $192 45.229948748680734 $185 $304 forward 7 unknown #
coedge $-1 $305 $306 $107 $188 forward $177 $-1 #
edge $-1 $193 -45.229948748680734 $307 -21.517099766714558 $187 $308 forward 7 unknown #
coedge $-1 $182 $108 $306 $309 forward $191 $-1 #
coedge $-1 $108 $182 $302 $310 reversed $191 $-1 #
loop $-1 $-1 $108 $286 #
vertex $-1 $310 $311 #
vertex $-1 $309 $312 #
straight-curve $-1 78.603473006378366 0 12.609494826291456 0 -1 0 I I #
face $-1 $-1 $313 $24 $-1 $314 forward single #
loop $-1 $-1 $315 $110 #
plane-surface $-1 0 -45.050846382246974 0 0 1 0 0 0 1 forward_v I I I I #
coedge $-1 $316 $317 $318 $319 forward $111 $-1 #
coedge $-1 $320 $113 $115 $205 forward $69 $-1 #
coedge $-1 $113 $320 $321 $322 forward $69 $-1 #
coedge $-1 $315 $116 $113 $202 forward $196 $-1 #
edge $-1 $208 11.889506499895148 $323 32.630580516309756 $201 $324 forward 7 unknown #
coedge $-1 $317 $316 $114 $204 forward $111 $-1 #
edge $-1 $325 -47.678976647106822 $207 -40.250102211244297 $203 $326 forward 7 unknown #
edge $-1 $208 0 $325 12.34411618984058 $115 $327 forward 7 unknown #
coedge $-1 $116 $315 $317 $328 reversed $196 $-1 #
vertex $-1 $328 $329 #
vertex $-1 $117 $330 #
straight-curve $-1 34.149550007997597 -45.050846382246974 51.446808154460335 0 0 -1 I I #
coedge $-1 $210 $210 $-1 $331 reversed $120 $-1 #
edge $-1 $332 0 $332 6.2831853071796004 $121 $333 forward 7 unknown #
vertex $-1 $124 $334 #
ellipse-curve $-1 44.520087016204883 -41.336409164315711 13.213340985711179 0 -0.79863551827123203 0.60181501223851219 3 0 0 1 I I #
face $-1 $-1 $335 $26 $-1 $336 forward single #
loop $-1 $-1 $131 $125 #
plane-surface $-1 0 45.050846382246974 0 0 -1 0 0 0 -1 forward_v I I I I #
coedge $-1 $337 $338 $339 $340 reversed $126 $-1 #
coedge $-1 $341 $128 $130 $224 forward $78 $-1 #
coedge $-1 $128 $341 $337 $342 forward $78 $-1 #
coedge $-1 $339 $131 $128 $221 forward $215 $-1 #
edge $-1 $227 -16.856573070338577 $343 7.6730881006403777 $220 $344 forward 7 unknown #
coedge $-1 $345 $346 $129 $223 forward $335 $-1 #
edge $-1 $347 -10.996108816899792 $226 -4.2369154489930523 $222 $348 forward 7 unknown #
edge $-1 $227 -90.10169276449399 $347 -80.190828088625267 $130 $349 forward 7 unknown #
coedge $-1 $131 $339 $345 $350 reversed $215 $-1 #
vertex $-1 $350 $351 #
vertex $-1 $132 $352 #
straight-curve $-1 21.448315555187676 45.050846382246974 92.002651700135615 0 0 -1 I I #
coedge $-1 $229 $229 $-1 $353 reversed $135 $-1 #
edge $-1 $354 0 $354 6.2831853071796004 $136 $355 forward 7 unknown #
vertex $-1 $139 $356 #
ellipse-curve $-1 9.1834849696981991 41.6712496982936 14.518391976721672 0 0.73135370988377701 0.68199835119979291 0.5 0 0 1 I I #
face $-1 $-1 $155 $21 $-1 $357 reversed single #
loop $-1 $-1 $249 $140 #
plane-surface $-1 0 45.050846382246974 0 0 -1 0 0 0 -1 forward_v I I I I #
coedge $-1 $358 $247 $250 $359 forward $141 $-1 #
coedge $-1 $253 $143 $144 $241 reversed $87 $-1 #
coedge $-1 $247 $358 $143 $239 reversed $141 $-1 #
edge $-1 $254 -18.142565801147999 $360 18.142565801147999 $238 $361 forward 7 unknown #
coedge $-1 $145 $144 $358 $362 forward $57 $-1 #
edge $-1 $245 -78.603473006378366 $360 78.603473006378366 $237 $363 forward 7 unknown #
coedge $-1 $250 $249 $145 $243 reversed $234 $-1 #
edge $-1 $364 -78.603473006378366 $244 78.603473006378366 $242 $365 forward 7 unknown #
vertex $-1 $147 $366 #
vertex $-1 $256 $367 #
straight-curve $-1 78.603473006378366 0 -18.142565801147999 0 -1 0 I I #
coedge $-1 $236 $238 $148 $248 reversed $141 $-1 #
edge $-1 $251 -45.050846382246974 $254 45.050846382246974 $247 $368 forward 7 unknown #
coedge $-1 $242 $149 $154 $257 forward $234 $-1 #
coedge $-1 $149 $242 $236 $359 reversed $234 $-1 #
vertex $-1 $150 $369 #
straight-curve $-1 0 45.050846382246974 18.142565801147999 -1 0 0 I I #
coedge $-1 $151 $237 $153 $256 reversed $87 $-1 #
vertex $-1 $248 $370 #
straight-curve $-1 0 -45.050846382246974 18.142565801147999 1 0 0 I I #
edge $-1 $156 -18.142565801147999 $245 18.142565801147999 $153 $371 forward 7 unknown #
edge $-1 $157 -18.142565801147999 $244 18.142565801147999 $154 $372 forward 7 unknown #
point $-1 78.603473006378366 -45.050846382246974 18.142565801147999 #
point $-1 78.603473006378366 45.050846382246974 18.142565801147999 #
face $-1 $-1 $277 $22 $-1 $373 reversed single #
loop $-1 $-1 $374 $159 #
plane-surface $-1 -78.603473006378366 0 0 1 0 0 0 0 -1 forward_v I I I I #
coedge $-1 $264 $280 $163 $267 forward $160 $-1 #
coedge $-1 $170 $263 $162 $265 forward $160 $-1 #
edge $-1 $271 1.200915373999873 $173 8.0060247595276799 $264 $375 forward 7 unknown #
coedge $-1 $164 $163 $374 $376 reversed $61 $-1 #
edge $-1 $377 -45.229948748680727 $271 -21.517099766714551 $263 $378 forward 7 unknown #
coedge $-1 $276 $275 $164 $269 forward $277 $-1 #
edge $-1 $270 21.517099766714551 $379 45.229948748680727 $268 $380 forward 7 unknown #
vertex $-1 $269 $381 #
vertex $-1 $267 $382 #
straight-curve $-1 -54.89062402441219 0 5.8043854407636495 0 -1 0 I I #
coedge $-1 $383 $384 $167 $274 forward $261 $-1 #
edge $-1 $281 -45.050846382246974 $278 45.050846382246974 $273 $385 forward 7 unknown #
coedge $-1 $268 $168 $172 $283 forward $277 $-1 #
coedge $-1 $168 $268 $383 $386 reversed $277 $-1 #
loop $-1 $-1 $268 $260 #
vertex $-1 $386 $387 #
straight-curve $-1 -33.373524257697639 45.050846382246974 12.609494826291456 1 0 0 I I #
coedge $-1 $263 $170 $384 $388 forward $160 $-1 #
vertex $-1 $388 $389 #
straight-curve $-1 -33.373524257697639 -45.050846382246974 12.609494826291456 -1 0 0 I I #
edge $-1 $174 -8.0060247595276799 $270 -1.200915373999873 $275 $390 forward 7 unknown #
point $-1 -54.89062402441219 -45.050846382246974 12.609494826291456 #
point $-1 -54.89062402441219 45.050846382246974 12.609494826291456 #
face $-1 $-1 $191 $23 $-1 $391 reversed single #
loop $-1 $-1 $185 $176 #
plane-surface $-1 0 45.050846382246974 0 0 -1 0 0 0 -1 forward_v I I I I #
coedge $-1 $392 $179 $293 $393 reversed $103 $-1 #
coedge $-1 $179 $392 $184 $301 reversed $103 $-1 #
coedge $-1 $185 $296 $179 $292 forward $287 $-1 #
edge $-1 $394 1.200915373999873 $303 8.0060247595276799 $291 $395 forward 7 unknown #
coedge $-1 $181 $180 $289 $393 forward $65 $-1 #
coedge $-1 $306 $305 $180 $295 forward $177 $-1 #
edge $-1 $396 21.517099766714558 $298 45.229948748680734 $294 $397 forward 7 unknown #
coedge $-1 $291 $302 $181 $297 forward $287 $-1 #
edge $-1 $299 -45.229948748680734 $394 -21.517099766714558 $296 $398 forward 7 unknown #
vertex $-1 $183 $399 #
vertex $-1 $183 $400 #
straight-curve $-1 78.603473006378366 0 5.8043854407636495 0 1 0 I I #
edge $-1 $303 -45.050846382246974 $307 45.050846382246974 $290 $401 forward 7 unknown #
coedge $-1 $296 $185 $190 $310 forward $287 $-1 #
vertex $-1 $186 $402 #
straight-curve $-1 33.373524257697646 45.050846382246974 12.609494826291456 1 0 0 I I #
coedge $-1 $294 $187 $392 $403 forward $177 $-1 #
coedge $-1 $187 $294 $189 $309 reversed $177 $-1 #
vertex $-1 $188 $404 #
straight-curve $-1 33.373524257697646 -45.050846382246974 12.609494826291456 -1 0 0 I I #
edge $-1 $193 -12.609494826291456 $298 -5.8043854407636495 $189 $405 forward 7 unknown #
edge $-1 $192 -12.609494826291456 $299 -5.8043854407636495 $190 $406 forward 7 unknown #
point $-1 78.60347300637838 45.050846382246974 12.609494826291456 #
point $-1 78.60347300637838 -45.050846382246974 12.609494826291456 #
loop $-1 $-1 $321 $195 #
plane-surface $-1 54.890624024412205 0 9.2069401335275529 1 0 0 0 0 -1 forward_v I I I I #
coedge $-1 $206 $201 $407 $408 forward $196 $-1 #
coedge $-1 $203 $198 $320 $409 forward $111 $-1 #
coedge $-1 $198 $203 $206 $328 forward $111 $-1 #
coedge $-1 $407 $321 $198 $319 reversed $313 $-1 #
edge $-1 $410 40.250102211244297 $411 47.678976647106822 $198 $412 forward 7 unknown #
coedge $-1 $200 $199 $316 $409 reversed $69 $-1 #
coedge $-1 $318 $407 $200 $322 reversed $313 $-1 #
edge $-1 $411 -12.34411618984058 $323 0 $321 $413 forward 7 unknown #
vertex $-1 $408 $414 #
straight-curve $-1 22.260043508102449 -45.050846382246974 8.2841161702743591 1 0 0 I I #
vertex $-1 $204 $415 #
straight-curve $-1 34.149550007997597 -85.30094859349127 18.142565801147995 0 -1 0 I I #
straight-curve $-1 34.149550007997597 -45.050846382246974 8.2841161702743591 0 0.60181501223851219 0.79863551827123203 I I #
edge $-1 $207 34.149550007997597 $410 54.890624024412197 $206 $416 forward 7 unknown #
point $-1 34.149550007997597 -45.050846382246974 18.142565801147999 #
point $-1 34.149550007997597 -45.050846382246974 8.2841161702743591 #
edge $-1 $417 1 $417 0 $210 $-1 forward 7 unknown #
vertex $-1 $211 $418 #
ellipse-curve $-1 44.520087016204883 -32.510227813413678 6.5623364708976144 0 -0.79863551827123203 0.60181501223851219 3 0 0 1 I I #
point $-1 47.520087016204883 -41.336409164315697 13.21334098571117 #
loop $-1 $-1 $222 $214 #
plane-surface $-1 0 0 18.142565801147999 0 0 1 1 0 0 forward_v I I I I #
coedge $-1 $338 $217 $219 $342 reversed $126 $-1 #
coedge $-1 $217 $337 $419 $420 reversed $126 $-1 #
coedge $-1 $225 $220 $217 $340 forward $215 $-1 #
edge $-1 $343 -81.108433547840292 $421 -73.86008589898762 $339 $422 forward 7 unknown #
coedge $-1 $219 $218 $346 $423 reversed $78 $-1 #
edge $-1 $424 80.190828088625267 $343 90.10169276449399 $337 $425 forward 7 unknown #
vertex $-1 $221 $426 #
straight-curve $-1 4.5917424848490995 45.050846382246974 10.894218152295334 -1 0 0 I I #
coedge $-1 $419 $222 $225 $350 forward $335 $-1 #
coedge $-1 $222 $419 $341 $423 forward $335 $-1 #
vertex $-1 $223 $427 #
straight-curve $-1 21.448315555187676 49.287761831240026 18.142565801147995 0 1 0 I I #
straight-curve $-1 21.448315555187676 -16.398359523448235 76.790425422416277 0 -0.68199835119979291 0.73135370988377701 I I #
edge $-1 $226 -21.448315555187676 $421 3.0813456157912782 $225 $428 forward 7 unknown #
point $-1 21.448315555187676 45.050846382246974 18.142565801147999 #
point $-1 21.448315555187676 45.050846382246974 10.894218152295323 #
edge $-1 $429 1 $429 0 $229 $-1 forward 7 unknown #
vertex $-1 $230 $430 #
ellipse-curve $-1 9.1834849696981991 40.413739590816363 13.345744859018758 0 0.73135370988377701 0.68199835119979291 0.5 0 0 1 I I #
point $-1 9.6834849696981991 41.671249698293614 14.51839197672169 #
plane-surface $-1 78.603473006378366 0 0 -1 0 0 0 0 1 forward_v I I I I #
coedge $-1 $238 $236 $240 $362 reversed $141 $-1 #
edge $-1 $251 -18.142565801147999 $364 18.142565801147999 $250 $431 forward 7 unknown #
vertex $-1 $362 $432 #
straight-curve $-1 -78.603473006378366 -45.050846382246974 0 0 0 -1 I I #
edge $-1 $360 -45.050846382246974 $364 45.050846382246974 $358 $433 forward 7 unknown #
straight-curve $-1 0 -45.050846382246974 -18.142565801147999 -1 0 0 I I #
vertex $-1 $243 $434 #
straight-curve $-1 0 45.050846382246974 -18.142565801147999 1 0 0 I I #
point $-1 78.603473006378366 45.050846382246974 -18.142565801147999 #
point $-1 78.603473006378366 -45.050846382246974 -18.142565801147999 #
straight-curve $-1 -78.603473006378366 0 18.142565801147999 0 -1 0 I I #
point $-1 -78.603473006378366 45.050846382246974 18.142565801147999 #
point $-1 -78.603473006378366 -45.050846382246974 18.142565801147999 #
straight-curve $-1 78.603473006378366 -45.050846382246974 0 0 0 -1 I I #
straight-curve $-1 78.603473006378366 45.050846382246974 0 0 0 -1 I I #
plane-surface $-1 0 45.050846382246974 0 0 -1 0 0 0 -1 forward_v I I I I #
coedge $-1 $384 $383 $266 $376 forward $261 $-1 #
straight-curve $-1 -54.89062402441219 -45.050846382246974 4.6034700667637765 0 0 1 I I #
edge $-1 $379 -45.050846382246974 $377 45.050846382246974 $374 $435 forward 7 unknown #
vertex $-1 $267 $436 #
straight-curve $-1 -33.373524257697639 -45.050846382246974 5.8043854407636495 1 0 0 I I #
vertex $-1 $269 $437 #
straight-curve $-1 -33.373524257697639 45.050846382246974 5.8043854407636495 -1 0 0 I I #
point $-1 -54.89062402441219 45.050846382246974 5.8043854407636495 #
point $-1 -54.89062402441219 -45.050846382246974 5.8043854407636495 #
coedge $-1 $374 $273 $276 $386 forward $261 $-1 #
coedge $-1 $273 $374 $280 $388 reversed $261 $-1 #
straight-curve $-1 -78.603473006378366 0 12.609494826291456 0 1 0 I I #
edge $-1 $278 -12.609494826291456 $379 -5.8043854407636495 $276 $438 forward 7 unknown #
point $-1 -78.603473006378366 45.050846382246974 12.609494826291456 #
edge $-1 $281 -12.609494826291456 $377 -5.8043854407636495 $384 $439 forward 7 unknown #
point $-1 -78.603473006378366 -45.050846382246974 12.609494826291456 #
straight-curve $-1 -54.89062402441219 45.050846382246974 4.6034700667637765 0 0 -1 I I #
plane-surface $-1 78.603473006378366 0 0 -1 0 0 0 0 1 forward_v I I I I #
coedge $-1 $290 $289 $305 $403 reversed $103 $-1 #
edge $-1 $396 -45.050846382246974 $394 45.050846382246974 $289 $440 forward 7 unknown #
vertex $-1 $297 $441 #
straight-curve $-1 54.890624024412205 45.050846382246974 4.6034700667637765 0 0 1 I I #
vertex $-1 $295 $442 #
straight-curve $-1 33.373524257697646 -45.050846382246974 5.8043854407636495 1 0 0 I I #
straight-curve $-1 33.373524257697646 45.050846382246974 5.8043854407636495 -1 0 0 I I #
point $-1 78.60347300637838 -45.050846382246974 5.8043854407636495 #
point $-1 78.60347300637838 45.050846382246974 5.8043854407636495 #
straight-curve $-1 54.890624024412205 0 12.609494826291456 0 -1 0 I I #
point $-1 54.890624024412205 45.050846382246974 12.609494826291456 #
edge $-1 $307 -8.0060247595276799 $396 -1.200915373999873 $305 $443 forward 7 unknown #
point $-1 54.890624024412205 -45.050846382246974 12.609494826291456 #
straight-curve $-1 78.603473006378366 -45.050846382246974 0 0 0 -1 I I #
straight-curve $-1 78.603473006378366 45.050846382246974 0 0 0 -1 I I #
coedge $-1 $321 $318 $315 $408 reversed $313 $-1 #
edge $-1 $323 -43.162691984185976 $410 -33.304242353312333 $315 $444 forward 7 unknown #
edge $-1 $411 -32.630580516309749 $325 -11.889506499895148 $316 $445 forward 7 unknown #
vertex $-1 $319 $446 #
vertex $-1 $409 $447 #
straight-curve $-1 54.890624024412197 -85.30094859349127 18.142565801147995 0 1 0 I I #
straight-curve $-1 54.890624024412197 -45.050846382246974 8.2841161702743591 0 -0.60181501223851219 -0.79863551827123203 I I #
point $-1 54.890624024412205 -45.050846382246974 8.2841161702743591 #
point $-1 34.149550007997597 -37.621971946384448 18.142565801147999 #
straight-curve $-1 0 -45.050846382246974 18.142565801147999 1 0 0 I I #
vertex $-1 $331 $448 #
point $-1 47.520087016204883 -32.510227813413678 6.5623364708976144 #
coedge $-1 $346 $345 $338 $420 forward $335 $-1 #
edge $-1 $421 4.2369154489930523 $424 10.996108816899792 $419 $449 forward 7 unknown #
vertex $-1 $420 $450 #
straight-curve $-1 -3.0813456157912782 45.050846382246974 92.002651700135615 0 0 1 I I #
edge $-1 $424 -7.6730881006403777 $347 16.856573070338577 $346 $451 forward 7 unknown #
vertex $-1 $423 $452 #
straight-curve $-1 -3.0813456157912782 -16.398359523448235 76.790425422416277 0 0.68199835119979291 -0.73135370988377701 I I #
point $-1 -3.0813456157912782 45.050846382246974 10.894218152295323 #
point $-1 21.448315555187676 38.291653014340234 18.142565801147995 #
straight-curve $-1 0 45.050846382246974 18.142565801147999 -1 0 0 I I #
vertex $-1 $353 $453 #
point $-1 9.6834849696981991 40.413739590816363 13.345744859018758 #
straight-curve $-1 -78.603473006378366 45.050846382246974 0 0 0 -1 I I #
point $-1 -78.603473006378366 -45.050846382246974 -18.142565801147999 #
straight-curve $-1 -78.603473006378366 0 -18.142565801147999 0 1 0 I I #
point $-1 -78.603473006378366 45.050846382246974 -18.142565801147999 #
straight-curve $-1 -78.603473006378366 0 5.8043854407636495 0 -1 0 I I #
point $-1 -78.603473006378366 -45.050846382246974 5.8043854407636495 #
point $-1 -78.603473006378366 45.050846382246974 5.8043854407636495 #
straight-curve $-1 -78.603473006378366 45.050846382246974 0 0 0 -1 I I #
straight-curve $-1 -78.603473006378366 -45.050846382246974 0 0 0 -1 I I #
straight-curve $-1 54.890624024412205 0 5.8043854407636495 0 1 0 I I #
point $-1 54.890624024412205 45.050846382246974 5.8043854407636495 #
point $-1 54.890624024412205 -45.050846382246974 5.8043854407636495 #
straight-curve $-1 54.890624024412205 -45.050846382246974 4.6034700667637765 0 0 -1 I I #
straight-curve $-1 54.890624024412197 -45.050846382246974 51.446808154460335 0 0 1 I I #
straight-curve $-1 22.260043508102449 -37.621971946384448 18.142565801147999 -1 0 0 I I #
point $-1 54.890624024412197 -45.050846382246974 18.142565801147999 #
point $-1 54.890624024412197 -37.621971946384448 18.142565801147999 #
point $-1 44.520087016204883 -30.114321258599983 4.7568914341820783 #
straight-curve $-1 -3.0813456157912782 49.287761831240026 18.142565801147995 0 -1 0 I I #
point $-1 -3.0813456157912782 45.050846382246974 18.142565801147999 #
straight-curve $-1 4.5917424848490995 38.291653014340241 18.142565801147995 1 0 0 I I #
point $-1 -3.0813456157912782 38.291653014340234 18.142565801147995 #
point $-1 9.1834849696981991 40.048062735874481 13.004745683418861 #
End-of-ACIS-data 