500 0 5 0           
7 Unknown 11 ACIS 5.0 NT 24 Thu Mar 25 23:49:59 1999 
-1 9.9999999999999995e-007 1e-010 
body $-1 $5 $-1 $6 #
body $-1 $7 $-1 $8 #
body $-1 $9 $-1 $10 #
body $-1 $11 $-1 $12 #
body $-1 $13 $-1 $14 #
lump $-1 $-1 $15 $0 #
transform $-1 1 0 0 0 1 0 0 0 1 74.424878688924835 47.245840605501158 19.086212246439384 1 rotate no_reflect no_shear #
lump $-1 $-1 $16 $1 #
transform $-1 1 0 0 0 1 0 0 0 1 74.424878688924835 47.245840605501158 19.086212246439384 1 rotate no_reflect no_shear #
lump $-1 $-1 $17 $2 #
transform $-1 1 0 0 0 1 0 0 0 1 74.424878688924835 47.245840605501158 19.086212246439384 1 rotate no_reflect no_shear #
lump $-1 $-1 $18 $3 #
transform $-1 1 0 0 0 1 0 0 0 1 74.424878688924835 47.245840605501158 19.086212246439384 1 rotate no_reflect no_shear #
lump $-1 $-1 $19 $4 #
transform $-1 1 0 0 0 1 0 0 0 1 74.424878688924835 47.245840605501158 19.086212246439384 1 rotate no_reflect no_shear #
shell $-1 $-1 $-1 $20 $-1 $5 #
shell $-1 $-1 $-1 $21 $-1 $7 #
shell $-1 $-1 $-1 $22 $-1 $9 #
shell $-1 $-1 $-1 $23 $-1 $11 #
shell $-1 $-1 $-1 $24 $-1 $13 #
face $-1 $25 $26 $15 $-1 $27 forward single #
face $-1 $28 $29 $16 $-1 $30 forward single #
face $-1 $31 $32 $17 $-1 $33 forward single #
face $-1 $34 $35 $18 $-1 $36 reversed single #
face $-1 $37 $38 $19 $-1 $39 reversed single #
face $-1 $40 $41 $15 $-1 $42 reversed single #
loop $-1 $-1 $43 $20 #
plane-surface $-1 0 0 19.086212246439384 0 0 1 1 0 0 forward_v I I I I #
face $-1 $44 $45 $16 $-1 $46 forward single #
loop $-1 $-1 $47 $21 #
plane-surface $-1 -70.301658051427637 -32.164698195690164 0 0 -1 0 0 0 -1 forward_v I I I I #
face $-1 $48 $49 $17 $-1 $50 forward single #
loop $-1 $-1 $51 $22 #
plane-surface $-1 -197.82692142268252 -32.164698195690171 83.383004393529859 0 1 0 -0.82903758062907751 0 0.55919289150049634 forward_v I I I I #
face $-1 $52 $53 $18 $-1 $54 reversed single #
loop $-1 $55 $56 $23 #
cone-surface $-1 -66.297162229566069 -27.212259141870685 8.442776329151128 0.82903758062907751 0 -0.55919289150049634 1.1183857830009927 0 1.658075161258155 1 I I 0 1 2 forward I I I I #
face $-1 $57 $58 $19 $-1 $59 reversed single #
loop $-1 $60 $61 $24 #
cone-surface $-1 -66.297162229566069 -19.783600561141458 8.442776329151128 0.82903758062907751 0 -0.55919289150049634 1.1183857830009927 0 1.658075161258155 1 I I 0 1 2 forward I I I I #
face $-1 $62 $63 $15 $-1 $64 reversed single #
loop $-1 $-1 $65 $25 #
plane-surface $-1 0 0 -19.086212246439384 0 0 1 1 0 0 forward_v I I I I #
coedge $-1 $66 $67 $68 $69 forward $26 $-1 #
face $-1 $70 $71 $16 $-1 $72 forward single #
loop $-1 $-1 $73 $28 #
plane-surface $-1 -66.178437413930439 -39.705269400595661 0 -1 0 0 0 0 1 forward_v I I I I #
coedge $-1 $74 $75 $76 $77 reversed $29 $-1 #
face $-1 $78 $79 $17 $-1 $80 forward single #
loop $-1 $-1 $81 $31 #
plane-surface $-1 -197.82692142268252 -14.831161507321973 83.383004393529859 0 -1 0 0.82903758062907751 0 -0.55919289150049634 forward_v I I I I #
coedge $-1 $82 $83 $84 $85 reversed $32 $-1 #
face $-1 $86 $87 $18 $-1 $88 forward single #
loop $-1 $89 $90 $34 #
cone-surface $-1 -63.727644159143757 -27.212259141870685 6.7096145604506852 0.82903758062907751 0 -0.55919289150049634 0.55919289150049634 0 0.82903758062907751 1 I I -0.70710678118654746 0.70710678118654746 1 forward I I I I #
loop $-1 $-1 $91 $23 #
coedge $-1 $56 $56 $92 $93 reversed $35 $-1 #
face $-1 $94 $95 $19 $-1 $96 reversed single #
loop $-1 $97 $98 $37 #
cone-surface $-1 -63.727644159143757 -19.783600561141458 6.7096145604506852 0.82903758062907751 0 -0.55919289150049634 0.55919289150049634 0 0.82903758062907751 1 I I -0.70710678118654746 0.70710678118654746 1 forward I I I I #
loop $-1 $-1 $99 $24 #
coedge $-1 $61 $61 $100 $101 reversed $38 $-1 #
face $-1 $102 $103 $15 $-1 $104 reversed single #
loop $-1 $-1 $105 $40 #
plane-surface $-1 0 -47.245840605501158 0 0 1 0 0 0 1 forward_v I I I I #
coedge $-1 $106 $107 $108 $109 forward $41 $-1 #
coedge $-1 $110 $43 $111 $112 forward $26 $-1 #
coedge $-1 $43 $110 $113 $114 forward $26 $-1 #
coedge $-1 $115 $116 $43 $69 reversed $117 $-1 #
edge $-1 $118 -47.245840605501158 $119 47.245840605501158 $68 $120 forward 7 unknown #
face $-1 $121 $122 $16 $-1 $123 reversed single #
loop $-1 $-1 $124 $44 #
plane-surface $-1 0 0 19.086212246439384 0 0 1 1 0 0 forward_v I I I I #
coedge $-1 $125 $126 $127 $128 reversed $45 $-1 #
coedge $-1 $129 $47 $124 $130 reversed $29 $-1 #
coedge $-1 $47 $129 $131 $132 reversed $29 $-1 #
coedge $-1 $126 $125 $47 $77 forward $45 $-1 #
edge $-1 $133 -19.086212246439384 $134 19.086212246439384 $76 $135 forward 7 unknown #
face $-1 $136 $137 $17 $-1 $138 reversed single #
loop $-1 $-1 $139 $48 #
plane-surface $-1 -74.424878688924849 -23.497929851506072 0.14727816626276535 -0.82903758062907751 0 0.55919289150049634 0.55919289150049634 0 0.82903758062907751 forward_v I I I I #
coedge $-1 $140 $141 $142 $143 reversed $49 $-1 #
coedge $-1 $83 $51 $144 $145 reversed $32 $-1 #
coedge $-1 $51 $82 $146 $147 forward $32 $-1 #
coedge $-1 $148 $149 $51 $85 forward $150 $-1 #
edge $-1 $151 -19.086212246439384 $152 -12.373130510480312 $84 $153 forward 7 unknown #
face $-1 $154 $155 $18 $-1 $156 forward single #
loop $-1 $-1 $157 $52 #
plane-surface $-1 -197.82692142268252 -32.164698195690171 83.383004393529859 0 1 0 -0.82903758062907751 0 0.55919289150049634 forward_v I I I I #
loop $-1 $-1 $158 $34 #
coedge $-1 $90 $90 $91 $159 forward $53 $-1 #
coedge $-1 $91 $91 $90 $159 reversed $55 $-1 #
coedge $-1 $92 $92 $56 $93 forward $160 $-1 #
edge $-1 $161 0 $161 6.2831853071796004 $92 $162 forward 7 unknown #
face $-1 $163 $164 $19 $-1 $165 reversed single #
loop $-1 $166 $167 $57 #
cone-surface $-1 -66.297162229566069 -27.212259141870685 8.442776329151128 0.82903758062907751 0 -0.55919289150049634 1.1183857830009927 0 1.658075161258155 1 I I 0 1 2 forward I I I I #
loop $-1 $-1 $168 $37 #
coedge $-1 $98 $98 $99 $169 forward $58 $-1 #
coedge $-1 $99 $99 $98 $169 reversed $60 $-1 #
coedge $-1 $100 $100 $61 $101 forward $170 $-1 #
edge $-1 $171 0 $171 6.2831853071796004 $100 $172 forward 7 unknown #
face $-1 $173 $174 $15 $-1 $175 reversed single #
loop $-1 $-1 $176 $62 #
plane-surface $-1 -74.424878688924835 0 0 1 0 0 0 0 -1 forward_v I I I I #
coedge $-1 $177 $113 $178 $179 forward $63 $-1 #
coedge $-1 $180 $65 $177 $181 forward $41 $-1 #
coedge $-1 $65 $180 $182 $183 forward $41 $-1 #
coedge $-1 $116 $115 $65 $109 reversed $117 $-1 #
edge $-1 $184 -47.245840605501158 $185 47.245840605501158 $108 $186 forward 7 unknown #
coedge $-1 $67 $66 $187 $188 forward $26 $-1 #
coedge $-1 $189 $190 $66 $112 reversed $174 $-1 #
edge $-1 $119 -74.424878688924835 $191 74.424878688924835 $111 $192 forward 7 unknown #
coedge $-1 $105 $193 $67 $114 reversed $63 $-1 #
edge $-1 $194 -74.424878688924835 $118 74.424878688924835 $113 $195 forward 7 unknown #
coedge $-1 $108 $68 $193 $196 forward $117 $-1 #
coedge $-1 $68 $108 $189 $197 reversed $117 $-1 #
loop $-1 $-1 $115 $173 #
vertex $-1 $69 $198 #
vertex $-1 $69 $199 #
straight-curve $-1 74.424878688924835 0 19.086212246439384 0 1 0 I I #
face $-1 $200 $201 $16 $-1 $202 reversed single #
loop $-1 $-1 $127 $70 #
plane-surface $-1 0 -47.245840605501158 0 0 1 0 0 0 1 forward_v I I I I #
coedge $-1 $203 $204 $74 $130 forward $71 $-1 #
coedge $-1 $76 $73 $203 $205 reversed $45 $-1 #
coedge $-1 $73 $76 $206 $207 reversed $45 $-1 #
coedge $-1 $208 $209 $73 $128 forward $122 $-1 #
edge $-1 $210 -19.086212246439384 $211 19.086212246439384 $127 $212 forward 7 unknown #
coedge $-1 $75 $74 $213 $214 reversed $29 $-1 #
edge $-1 $215 -39.274049663211017 $133 -31.02760838821662 $124 $216 forward 7 unknown #
coedge $-1 $217 $206 $75 $132 forward $201 $-1 #
edge $-1 $134 31.02760838821662 $218 39.274049663211017 $131 $219 forward 7 unknown #
vertex $-1 $130 $220 #
vertex $-1 $132 $221 #
straight-curve $-1 -66.178437413930439 -32.164698195690164 0 0 0 -1 I I #
face $-1 $222 $223 $17 $-1 $224 forward single #
loop $-1 $-1 $225 $78 #
plane-surface $-1 -74.424878688924835 0 0 1 0 0 0 0 -1 forward_v I I I I #
coedge $-1 $226 $227 $225 $228 reversed $79 $-1 #
coedge $-1 $141 $81 $227 $229 forward $49 $-1 #
coedge $-1 $81 $140 $230 $231 reversed $49 $-1 #
coedge $-1 $232 $225 $81 $143 forward $137 $-1 #
edge $-1 $233 -41.544224030502143 $234 -22.605289950325545 $142 $235 forward 7 unknown #
coedge $-1 $236 $237 $82 $145 forward $238 $-1 #
edge $-1 $239 -37.26305396154747 $151 -32.73502329741082 $144 $240 forward 7 unknown #
coedge $-1 $241 $226 $83 $147 reversed $79 $-1 #
edge $-1 $239 -22.844481990557856 $152 -14.747042389731615 $83 $242 forward 7 unknown #
coedge $-1 $243 $84 $244 $245 forward $150 $-1 #
coedge $-1 $84 $246 $236 $247 reversed $150 $-1 #
loop $-1 $-1 $246 $222 #
vertex $-1 $145 $248 #
vertex $-1 $245 $249 #
straight-curve $-1 -66.178437413930439 -32.164698195690164 0 0 0 -1 I I #
face $-1 $250 $160 $18 $-1 $251 forward single #
loop $-1 $-1 $252 $86 #
plane-surface $-1 -197.82692142268252 -14.831161507321973 83.383004393529859 0 -1 0 0.82903758062907751 0 -0.55919289150049634 forward_v I I I I #
coedge $-1 $253 $254 $255 $256 reversed $87 $-1 #
coedge $-1 $158 $158 $-1 $257 forward $89 $-1 #
edge $-1 $258 0 $258 6.2831853071796004 $90 $259 forward 7 unknown #
loop $-1 $260 $92 $154 #
vertex $-1 $93 $261 #
ellipse-curve $-1 -68.037642719359312 -27.212259141870685 9.6167452063510819 0.82903758062907751 0 -0.55919289150049634 1.1183857830009927 0 1.658075161258155 1 I I #
face $-1 $262 $263 $19 $-1 $264 forward single #
loop $-1 $265 $266 $94 #
cone-surface $-1 -63.727644159143757 -27.212259141870685 6.7096145604506852 0.82903758062907751 0 -0.55919289150049634 0.55919289150049634 0 0.82903758062907751 1 I I -0.70710678118654746 0.70710678118654746 1 forward I I I I #
loop $-1 $-1 $267 $57 #
coedge $-1 $167 $167 $268 $269 reversed $95 $-1 #
coedge $-1 $168 $168 $-1 $270 forward $97 $-1 #
edge $-1 $271 0 $271 6.2831853071796004 $98 $272 forward 7 unknown #
loop $-1 $273 $100 $274 #
vertex $-1 $101 $275 #
ellipse-curve $-1 -68.037642719359312 -19.783600561141458 9.6167452063510819 0.82903758062907751 0 -0.55919289150049634 1.1183857830009927 0 1.658075161258155 1 I I #
face $-1 $-1 $117 $15 $-1 $276 reversed single #
loop $-1 $-1 $189 $102 #
plane-surface $-1 0 47.245840605501158 0 0 -1 0 0 0 -1 forward_v I I I I #
coedge $-1 $277 $187 $190 $278 forward $103 $-1 #
coedge $-1 $193 $105 $106 $181 reversed $63 $-1 #
coedge $-1 $187 $277 $105 $179 reversed $103 $-1 #
edge $-1 $194 -19.086212246439384 $279 19.086212246439384 $178 $280 forward 7 unknown #
coedge $-1 $107 $106 $277 $281 forward $41 $-1 #
edge $-1 $185 -74.424878688924835 $279 74.424878688924835 $177 $282 forward 7 unknown #
coedge $-1 $190 $189 $107 $183 reversed $174 $-1 #
edge $-1 $283 -74.424878688924835 $184 74.424878688924835 $182 $284 forward 7 unknown #
vertex $-1 $109 $285 #
vertex $-1 $196 $286 #
straight-curve $-1 74.424878688924835 0 -19.086212246439384 0 -1 0 I I #
coedge $-1 $176 $178 $110 $188 reversed $103 $-1 #
edge $-1 $191 -47.245840605501158 $194 47.245840605501158 $187 $287 forward 7 unknown #
coedge $-1 $182 $111 $116 $197 forward $174 $-1 #
coedge $-1 $111 $182 $176 $278 reversed $174 $-1 #
vertex $-1 $112 $288 #
straight-curve $-1 0 47.245840605501158 19.086212246439384 -1 0 0 I I #
coedge $-1 $113 $177 $115 $196 reversed $63 $-1 #
vertex $-1 $188 $289 #
straight-curve $-1 0 -47.245840605501158 19.086212246439384 1 0 0 I I #
edge $-1 $118 -19.086212246439384 $185 19.086212246439384 $115 $290 forward 7 unknown #
edge $-1 $119 -19.086212246439384 $184 19.086212246439384 $116 $291 forward 7 unknown #
point $-1 74.424878688924835 -47.245840605501158 19.086212246439384 #
point $-1 74.424878688924835 47.245840605501158 19.086212246439384 #
face $-1 $292 $293 $16 $-1 $294 reversed single #
loop $-1 $-1 $131 $121 #
plane-surface $-1 0 0 -19.086212246439384 0 0 1 1 0 0 forward_v I I I I #
coedge $-1 $295 $124 $125 $205 forward $71 $-1 #
coedge $-1 $124 $296 $297 $298 forward $71 $-1 #
edge $-1 $133 12.312063495392334 $210 27.393205905203327 $203 $299 forward 7 unknown #
coedge $-1 $131 $300 $126 $207 forward $201 $-1 #
edge $-1 $211 -27.393205905203327 $134 -12.312063495392334 $206 $301 forward 7 unknown #
coedge $-1 $302 $127 $300 $303 reversed $122 $-1 #
coedge $-1 $127 $302 $295 $304 reversed $122 $-1 #
vertex $-1 $304 $305 #
vertex $-1 $128 $306 #
straight-curve $-1 -66.178437413930439 -47.245840605501158 0 0 0 -1 I I #
coedge $-1 $297 $307 $129 $214 forward $293 $-1 #
edge $-1 $218 -19.086212246439384 $215 19.086212246439384 $213 $308 forward 7 unknown #
vertex $-1 $214 $309 #
straight-curve $-1 -35.150829025713819 -32.164698195690164 19.086212246439384 1 0 0 I I #
coedge $-1 $310 $131 $307 $311 forward $201 $-1 #
vertex $-1 $311 $312 #
straight-curve $-1 -35.150829025713819 -32.164698195690164 -19.086212246439384 -1 0 0 I I #
point $-1 -66.178437413930439 -32.164698195690164 19.086212246439384 #
point $-1 -66.178437413930439 -32.164698195690164 -19.086212246439384 #
face $-1 $313 $150 $17 $-1 $314 forward single #
loop $-1 $-1 $315 $136 #
plane-surface $-1 -70.301658051427637 -32.164698195690164 0 0 -1 0 0 0 -1 forward_v I I I I #
coedge $-1 $142 $316 $139 $228 forward $137 $-1 #
coedge $-1 $146 $139 $315 $317 reversed $79 $-1 #
coedge $-1 $139 $241 $140 $229 reversed $79 $-1 #
edge $-1 $318 -20.415733269937128 $233 -3.0821965815689367 $225 $319 forward 7 unknown #
edge $-1 $233 2.5411514119214718e-014 $320 22.844481990557856 $140 $321 forward 7 unknown #
coedge $-1 $237 $322 $141 $231 forward $238 $-1 #
edge $-1 $234 24.488582022416423 $320 37.26305396154747 $230 $323 forward 7 unknown #
coedge $-1 $324 $142 $322 $325 reversed $137 $-1 #
vertex $-1 $228 $326 #
vertex $-1 $231 $327 #
straight-curve $-1 -74.424878688924835 -14.831161507321973 41.69150219676493 0 0 1 I I #
coedge $-1 $328 $144 $149 $247 forward $238 $-1 #
coedge $-1 $144 $230 $241 $329 forward $238 $-1 #
loop $-1 $-1 $144 $313 #
vertex $-1 $329 $330 #
straight-curve $-1 -98.913460711341259 -32.164698195690171 19.086212246439381 -1 0 0 I I #
coedge $-1 $227 $146 $237 $329 reversed $79 $-1 #
straight-curve $-1 -74.424878688924849 -32.164698195690171 0.14727816626276535 -0.55919289150049634 0 -0.82903758062907751 I I #
coedge $-1 $246 $148 $331 $332 reversed $150 $-1 #
coedge $-1 $315 $333 $148 $245 reversed $223 $-1 #
edge $-1 $152 -12.373130510480312 $334 19.086212246439384 $148 $153 forward 7 unknown #
coedge $-1 $149 $243 $335 $336 reversed $150 $-1 #
edge $-1 $151 12.312063495392334 $337 27.393205905203327 $236 $338 forward 7 unknown #
point $-1 -66.178437413930439 -32.164698195690164 19.086212246439384 #
point $-1 -66.178437413930439 -32.164698195690164 12.373130510480312 #
face $-1 $339 $340 $18 $-1 $341 reversed single #
plane-surface $-1 -74.424878688924849 -23.497929851506072 0.14727816626276535 -0.82903758062907751 0 0.55919289150049634 0.55919289150049634 0 0.82903758062907751 forward_v I I I I #
coedge $-1 $342 $343 $344 $345 reversed $155 $-1 #
coedge $-1 $254 $157 $346 $347 reversed $87 $-1 #
coedge $-1 $157 $253 $348 $349 forward $87 $-1 #
coedge $-1 $350 $351 $157 $256 forward $352 $-1 #
edge $-1 $353 -19.086212246439384 $354 -12.373130510480312 $255 $355 forward 7 unknown #
edge $-1 $356 1 $356 0 $158 $-1 forward 7 unknown #
vertex $-1 $159 $357 #
ellipse-curve $-1 -64.556681739772841 -27.212259141870685 7.2688074519511812 -0.82903758062907751 0 0.55919289150049634 1.1183857830009927 0 1.658075161258155 1 I I #
loop $-1 $-1 $358 $154 #
point $-1 -66.919256936358309 -27.212259141870685 11.274820367609228 #
face $-1 $274 $359 $19 $-1 $360 forward single #
loop $-1 $-1 $361 $163 #
plane-surface $-1 -197.82692142268252 -32.164698195690171 83.383004393529859 0 1 0 -0.82903758062907751 0 0.55919289150049634 forward_v I I I I #
loop $-1 $-1 $362 $94 #
coedge $-1 $266 $266 $267 $363 forward $164 $-1 #
coedge $-1 $267 $267 $266 $363 reversed $166 $-1 #
coedge $-1 $268 $268 $167 $269 forward $273 $-1 #
edge $-1 $364 0 $364 6.2831853071796004 $268 $365 forward 7 unknown #
edge $-1 $366 1 $366 0 $168 $-1 forward 7 unknown #
vertex $-1 $169 $367 #
ellipse-curve $-1 -64.556681739772841 -19.783600561141458 7.2688074519511812 -0.82903758062907751 0 0.55919289150049634 1.1183857830009927 0 1.658075161258155 1 I I #
loop $-1 $368 $268 $274 #
face $-1 $369 $170 $19 $-1 $370 forward single #
point $-1 -66.919256936358309 -19.783600561141458 11.274820367609228 #
plane-surface $-1 74.424878688924835 0 0 -1 0 0 0 0 1 forward_v I I I I #
coedge $-1 $178 $176 $180 $281 reversed $103 $-1 #
edge $-1 $191 -19.086212246439384 $283 19.086212246439384 $190 $371 forward 7 unknown #
vertex $-1 $281 $372 #
straight-curve $-1 -74.424878688924835 -47.245840605501158 0 0 0 -1 I I #
edge $-1 $279 -47.245840605501158 $283 47.245840605501158 $277 $373 forward 7 unknown #
straight-curve $-1 0 -47.245840605501158 -19.086212246439384 -1 0 0 I I #
vertex $-1 $183 $374 #
straight-curve $-1 0 47.245840605501158 -19.086212246439384 1 0 0 I I #
point $-1 74.424878688924835 47.245840605501158 -19.086212246439384 #
point $-1 74.424878688924835 -47.245840605501158 -19.086212246439384 #
straight-curve $-1 -74.424878688924835 0 19.086212246439384 0 -1 0 I I #
point $-1 -74.424878688924835 47.245840605501158 19.086212246439384 #
point $-1 -74.424878688924835 -47.245840605501158 19.086212246439384 #
straight-curve $-1 74.424878688924835 -47.245840605501158 0 0 0 -1 I I #
straight-curve $-1 74.424878688924835 47.245840605501158 0 0 0 -1 I I #
face $-1 $375 $376 $16 $-1 $377 reversed single #
loop $-1 $-1 $213 $200 #
plane-surface $-1 -74.424878688924835 0 0 1 0 0 0 0 -1 forward_v I I I I #
coedge $-1 $378 $203 $209 $304 forward $71 $-1 #
coedge $-1 $204 $378 $379 $380 forward $71 $-1 #
coedge $-1 $381 $213 $204 $298 reversed $293 $-1 #
edge $-1 $382 -47.245840605501158 $215 32.164698195690164 $297 $383 forward 7 unknown #
straight-curve $-1 -66.178437413930439 -19.852634700297831 19.086212246439384 0 -1 0 I I #
coedge $-1 $206 $384 $208 $303 forward $201 $-1 #
straight-curve $-1 -66.178437413930439 -19.852634700297831 -19.086212246439384 0 1 0 I I #
coedge $-1 $209 $208 $385 $386 reversed $122 $-1 #
edge $-1 $387 -74.424878688924835 $211 66.178437413930439 $208 $388 forward 7 unknown #
edge $-1 $210 -66.178437413930439 $389 74.424878688924835 $209 $390 forward 7 unknown #
point $-1 -66.178437413930439 -47.245840605501158 19.086212246439384 #
point $-1 -66.178437413930439 -47.245840605501158 -19.086212246439384 #
coedge $-1 $213 $381 $217 $311 reversed $293 $-1 #
straight-curve $-1 -74.424878688924835 -32.164698195690164 0 0 0 1 I I #
point $-1 -74.424878688924835 -32.164698195690164 19.086212246439384 #
coedge $-1 $384 $217 $391 $392 forward $201 $-1 #
edge $-1 $218 -32.164698195690164 $393 47.245840605501158 $307 $394 forward 7 unknown #
point $-1 -74.424878688924835 -32.164698195690164 -19.086212246439384 #
face $-1 $395 $238 $17 $-1 $396 forward single #
plane-surface $-1 -66.178437413930439 -39.705269400595661 0 -1 0 0 0 0 1 forward_v I I I I #
coedge $-1 $397 $244 $226 $317 forward $223 $-1 #
coedge $-1 $225 $398 $397 $399 forward $137 $-1 #
edge $-1 $152 -13.655254121762304 $318 1.091788267969283 $315 $400 forward 7 unknown #
vertex $-1 $228 $401 #
straight-curve $-1 -74.424878688924835 -11.748964925753036 0.14727816626279883 0 1 0 I I #
vertex $-1 $329 $402 #
straight-curve $-1 -74.424878688924849 -14.831161507321973 0.14727816626276535 0.55919289150049634 0 0.82903758062907751 I I #
coedge $-1 $230 $403 $232 $325 forward $238 $-1 #
straight-curve $-1 -98.913460711341259 -14.831161507321973 19.086212246439381 1 0 0 I I #
coedge $-1 $398 $232 $404 $405 forward $137 $-1 #
edge $-1 $406 -47.245840605501158 $234 14.831161507321973 $232 $407 forward 7 unknown #
point $-1 -74.424878688924835 -14.831161507321973 0.14727816626278642 #
point $-1 -74.424878688924835 -14.831161507321973 19.086212246439384 #
coedge $-1 $408 $236 $409 $410 forward $238 $-1 #
edge $-1 $320 3.0821965815689367 $239 20.415733269937135 $237 $411 forward 7 unknown #
point $-1 -61.650406749793788 -32.164698195690171 19.086212246439384 #
coedge $-1 $412 $413 $243 $332 forward $414 $-1 #
edge $-1 $415 -27.393205905203327 $334 -12.312063495392334 $331 $416 forward 7 unknown #
coedge $-1 $244 $397 $412 $417 reversed $223 $-1 #
vertex $-1 $417 $418 #
coedge $-1 $419 $409 $246 $336 forward $420 $-1 #
edge $-1 $337 -19.086212246439384 $415 19.086212246439384 $335 $421 forward 7 unknown #
vertex $-1 $410 $422 #
straight-curve $-1 -66.178437413930439 -19.852634700297831 19.086212246439384 0 -1 0 I I #
face $-1 $423 $424 $18 $-1 $425 forward single #
loop $-1 $-1 $426 $250 #
plane-surface $-1 -74.424878688924835 0 0 1 0 0 0 0 -1 forward_v I I I I #
coedge $-1 $343 $252 $427 $428 forward $155 $-1 #
coedge $-1 $252 $342 $429 $430 reversed $155 $-1 #
coedge $-1 $431 $426 $252 $345 forward $340 $-1 #
edge $-1 $432 -41.544224030502143 $433 -22.605289950325545 $344 $434 forward 7 unknown #
coedge $-1 $435 $436 $253 $347 forward $437 $-1 #
edge $-1 $438 -37.26305396154747 $353 -32.73502329741082 $346 $439 forward 7 unknown #
coedge $-1 $440 $441 $254 $349 reversed $260 $-1 #
edge $-1 $438 -22.844481990557856 $354 -14.747042389731615 $254 $442 forward 7 unknown #
coedge $-1 $443 $255 $444 $445 forward $352 $-1 #
coedge $-1 $255 $446 $435 $447 reversed $352 $-1 #
loop $-1 $-1 $446 $423 #
vertex $-1 $347 $448 #
vertex $-1 $445 $449 #
straight-curve $-1 -66.178437413930439 -32.164698195690164 0 0 0 -1 I I #
vertex $-1 $257 $450 #
point $-1 -63.438295956771839 -27.212259141870685 8.9268826132093366 #
coedge $-1 $441 $427 $426 $451 reversed $260 $-1 #
loop $-1 $-1 $452 $262 #
plane-surface $-1 -197.82692142268252 -14.831161507321973 83.383004393529859 0 -1 0 0.82903758062907751 0 -0.55919289150049634 forward_v I I I I #
coedge $-1 $453 $454 $455 $456 reversed $263 $-1 #
coedge $-1 $362 $362 $-1 $457 forward $265 $-1 #
edge $-1 $458 0 $458 6.2831853071796004 $266 $459 forward 7 unknown #
vertex $-1 $269 $460 #
ellipse-curve $-1 -68.037642719359312 -27.212259141870685 9.6167452063510819 0.82903758062907751 0 -0.55919289150049634 1.1183857830009927 0 1.658075161258155 1 I I #
vertex $-1 $270 $461 #
point $-1 -63.438295956771839 -19.783600561141458 8.9268826132093366 #
loop $-1 $-1 $462 $274 #
face $-1 $463 $464 $19 $-1 $465 reversed single #
plane-surface $-1 -74.424878688924849 -23.497929851506072 0.14727816626276535 -0.82903758062907751 0 0.55919289150049634 0.55919289150049634 0 0.82903758062907751 forward_v I I I I #
straight-curve $-1 -74.424878688924835 47.245840605501158 0 0 0 -1 I I #
point $-1 -74.424878688924835 -47.245840605501158 -19.086212246439384 #
straight-curve $-1 -74.424878688924835 0 -19.086212246439384 0 1 0 I I #
point $-1 -74.424878688924835 47.245840605501158 -19.086212246439384 #
face $-1 $-1 $466 $16 $-1 $467 reversed single #
loop $-1 $-1 $468 $292 #
plane-surface $-1 0 47.245840605501158 0 0 -1 0 0 0 -1 forward_v I I I I #
coedge $-1 $296 $295 $469 $470 forward $71 $-1 #
coedge $-1 $468 $471 $296 $380 reversed $376 $-1 #
edge $-1 $472 -74.424878688924835 $382 74.424878688924835 $379 $473 forward 7 unknown #
coedge $-1 $307 $297 $471 $474 forward $293 $-1 #
vertex $-1 $380 $475 #
straight-curve $-1 -74.424878688924835 0 19.086212246439384 0 -1 0 I I #
coedge $-1 $300 $310 $476 $477 forward $201 $-1 #
coedge $-1 $476 $469 $302 $386 forward $466 $-1 #
edge $-1 $389 -19.086212246439384 $387 19.086212246439384 $385 $478 forward 7 unknown #
vertex $-1 $386 $479 #
straight-curve $-1 0 -47.245840605501158 -19.086212246439384 -1 0 0 I I #
vertex $-1 $470 $480 #
straight-curve $-1 0 -47.245840605501158 19.086212246439384 1 0 0 I I #
coedge $-1 $471 $468 $310 $392 reversed $376 $-1 #
edge $-1 $393 -74.424878688924835 $481 74.424878688924835 $391 $482 forward 7 unknown #
vertex $-1 $392 $483 #
straight-curve $-1 -74.424878688924835 0 -19.086212246439384 0 1 0 I I #
face $-1 $484 $420 $17 $-1 $485 reversed single #
plane-surface $-1 0 0 19.086212246439384 0 0 1 1 0 0 forward_v I I I I #
coedge $-1 $333 $315 $316 $399 reversed $223 $-1 #
coedge $-1 $316 $324 $486 $487 reversed $137 $-1 #
edge $-1 $488 -19.086212246439384 $318 0.14727816626278642 $316 $489 forward 7 unknown #
straight-curve $-1 -73.814358450452772 -32.164698195690164 1.0524116704992514 -0.55919289150049634 0 -0.82903758062907751 I I #
point $-1 -74.424878688924835 -32.164698195690164 0.14727816626278642 #
point $-1 -61.650406749793788 -14.831161507321973 19.086212246439384 #
coedge $-1 $322 $408 $490 $491 forward $238 $-1 #
coedge $-1 $490 $492 $324 $405 reversed $493 $-1 #
edge $-1 $406 -19.086212246439384 $494 19.086212246439384 $404 $495 forward 7 unknown #
vertex $-1 $491 $496 #
straight-curve $-1 -74.424878688924835 0 19.086212246439384 0 -1 0 I I #
coedge $-1 $403 $328 $497 $498 forward $238 $-1 #
coedge $-1 $335 $499 $328 $410 reversed $420 $-1 #
edge $-1 $337 -66.178437413930439 $500 74.424878688924835 $409 $501 forward 7 unknown #
straight-curve $-1 -61.650406749793788 -11.748964925753036 19.086212246439384 0 -1 0 I I #
coedge $-1 $486 $331 $333 $417 forward $414 $-1 #
coedge $-1 $331 $502 $419 $503 forward $414 $-1 #
loop $-1 $-1 $412 $484 #
vertex $-1 $336 $504 #
straight-curve $-1 -66.178437413930439 -19.852634700297831 -19.086212246439384 0 1 0 I I #
edge $-1 $334 31.02760838821662 $488 39.274049663211017 $412 $505 forward 7 unknown #
point $-1 -66.178437413930439 -32.164698195690164 -19.086212246439384 #
coedge $-1 $499 $335 $413 $503 reversed $420 $-1 #
loop $-1 $-1 $335 $395 #
straight-curve $-1 -66.178437413930439 -47.245840605501158 0 0 0 -1 I I #
point $-1 -66.178437413930439 -47.245840605501158 19.086212246439384 #
face $-1 $506 $352 $18 $-1 $507 forward single #
loop $-1 $-1 $508 $339 #
plane-surface $-1 -70.301658051427637 -32.164698195690164 0 0 -1 0 0 0 -1 forward_v I I I I #
coedge $-1 $344 $509 $358 $451 forward $340 $-1 #
coedge $-1 $358 $440 $342 $428 reversed $260 $-1 #
edge $-1 $432 2.5411514119214718e-014 $510 22.844481990557856 $342 $511 forward 7 unknown #
coedge $-1 $436 $512 $343 $430 forward $437 $-1 #
edge $-1 $433 24.488582022416423 $510 37.26305396154747 $429 $513 forward 7 unknown #
coedge $-1 $514 $344 $512 $515 reversed $340 $-1 #
vertex $-1 $451 $516 #
vertex $-1 $430 $517 #
straight-curve $-1 -74.424878688924835 -14.831161507321973 41.69150219676493 0 0 1 I I #
coedge $-1 $518 $346 $351 $447 forward $437 $-1 #
coedge $-1 $346 $429 $440 $519 forward $437 $-1 #
loop $-1 $-1 $346 $506 #
vertex $-1 $519 $520 #
straight-curve $-1 -98.913460711341259 -32.164698195690171 19.086212246439381 -1 0 0 I I #
coedge $-1 $427 $348 $436 $519 reversed $260 $-1 #
coedge $-1 $348 $358 $508 $521 reversed $260 $-1 #
straight-curve $-1 -74.424878688924849 -32.164698195690171 0.14727816626276535 -0.55919289150049634 0 -0.82903758062907751 I I #
coedge $-1 $446 $350 $522 $523 reversed $352 $-1 #
coedge $-1 $508 $524 $350 $445 reversed $424 $-1 #
edge $-1 $354 -12.373130510480312 $525 19.086212246439384 $350 $355 forward 7 unknown #
coedge $-1 $351 $443 $526 $527 reversed $352 $-1 #
edge $-1 $353 12.312063495392334 $528 27.393205905203327 $435 $529 forward 7 unknown #
point $-1 -66.178437413930439 -32.164698195690164 19.086212246439384 #
point $-1 -66.178437413930439 -32.164698195690164 12.373130510480312 #
point $-1 -62.898606578514681 -27.212259141870685 6.1504216689501892 #
edge $-1 $530 -20.415733269937128 $432 -3.0821965815689367 $426 $531 forward 7 unknown #
coedge $-1 $532 $533 $534 $535 reversed $359 $-1 #
coedge $-1 $454 $361 $536 $537 reversed $263 $-1 #
coedge $-1 $361 $453 $538 $539 forward $263 $-1 #
coedge $-1 $540 $541 $361 $456 forward $542 $-1 #
edge $-1 $543 -19.086212246439384 $544 -12.373130510480312 $455 $545 forward 7 unknown #
edge $-1 $546 1 $546 0 $362 $-1 forward 7 unknown #
vertex $-1 $363 $547 #
ellipse-curve $-1 -64.556681739772841 -27.212259141870685 7.2688074519511812 -0.82903758062907751 0 0.55919289150049634 1.1183857830009927 0 1.658075161258155 1 I I #
point $-1 -66.919256936358309 -27.212259141870685 11.274820367609228 #
point $-1 -62.898606578514681 -19.783600561141458 6.1504216689501892 #
coedge $-1 $548 $549 $550 $551 reversed $368 $-1 #
face $-1 $552 $553 $19 $-1 $554 forward single #
loop $-1 $-1 $550 $369 #
plane-surface $-1 -74.424878688924835 0 0 1 0 0 0 0 -1 forward_v I I I I #
loop $-1 $-1 $385 $375 #
plane-surface $-1 74.424878688924835 0 0 -1 0 0 0 0 1 forward_v I I I I #
coedge $-1 $391 $379 $555 $556 forward $376 $-1 #
coedge $-1 $385 $555 $378 $470 reversed $466 $-1 #
edge $-1 $389 -47.245840605501158 $472 47.245840605501158 $469 $557 forward 7 unknown #
coedge $-1 $379 $391 $381 $474 reversed $376 $-1 #
vertex $-1 $470 $558 #
straight-curve $-1 0 47.245840605501158 19.086212246439384 -1 0 0 I I #
edge $-1 $382 -19.086212246439384 $393 19.086212246439384 $471 $559 forward 7 unknown #
point $-1 -74.424878688924835 47.245840605501158 19.086212246439384 #
coedge $-1 $555 $385 $384 $477 reversed $466 $-1 #
edge $-1 $481 -47.245840605501158 $387 47.245840605501158 $476 $560 forward 7 unknown #
straight-curve $-1 74.424878688924835 -47.245840605501158 0 0 0 -1 I I #
point $-1 74.424878688924835 -47.245840605501158 -19.086212246439384 #
point $-1 74.424878688924835 -47.245840605501158 19.086212246439384 #
vertex $-1 $477 $561 #
straight-curve $-1 0 47.245840605501158 -19.086212246439384 1 0 0 I I #
point $-1 -74.424878688924835 47.245840605501158 -19.086212246439384 #
face $-1 $562 $414 $17 $-1 $563 reversed single #
plane-surface $-1 0 -47.245840605501158 0 0 1 0 0 0 1 forward_v I I I I #
coedge $-1 $564 $412 $398 $487 forward $414 $-1 #
edge $-1 $488 -32.164698195690164 $494 47.245840605501158 $398 $565 forward 7 unknown #
vertex $-1 $487 $566 #
straight-curve $-1 -74.424878688924835 -32.164698195690164 0 0 0 1 I I #
coedge $-1 $567 $404 $403 $491 reversed $493 $-1 #
edge $-1 $568 -74.424878688924835 $406 74.424878688924835 $490 $569 forward 7 unknown #
coedge $-1 $404 $567 $564 $570 reversed $493 $-1 #
loop $-1 $-1 $567 $562 #
vertex $-1 $570 $571 #
straight-curve $-1 -74.424878688924835 47.245840605501158 0 0 0 -1 I I #
point $-1 -74.424878688924835 47.245840605501158 19.086212246439384 #
coedge $-1 $572 $573 $408 $498 reversed $574 $-1 #
edge $-1 $500 -47.245840605501158 $568 47.245840605501158 $497 $575 forward 7 unknown #
coedge $-1 $409 $419 $572 $576 reversed $420 $-1 #
vertex $-1 $498 $577 #
straight-curve $-1 0 -47.245840605501158 19.086212246439384 1 0 0 I I #
coedge $-1 $413 $564 $578 $579 forward $414 $-1 #
edge $-1 $580 -74.424878688924835 $415 66.178437413930439 $419 $581 forward 7 unknown #
point $-1 -66.178437413930439 -47.245840605501158 -19.086212246439384 #
straight-curve $-1 -35.150829025713819 -32.164698195690164 -19.086212246439384 -1 0 0 I I #
face $-1 $582 $437 $18 $-1 $583 forward single #
plane-surface $-1 -66.178437413930439 -39.705269400595661 0 -1 0 0 0 0 1 forward_v I I I I #
coedge $-1 $584 $444 $441 $521 forward $424 $-1 #
coedge $-1 $426 $585 $584 $586 forward $340 $-1 #
vertex $-1 $519 $587 #
straight-curve $-1 -74.424878688924849 -14.831161507321973 0.14727816626276535 0.55919289150049634 0 0.82903758062907751 I I #
coedge $-1 $429 $588 $431 $515 forward $437 $-1 #
straight-curve $-1 -98.913460711341259 -14.831161507321973 19.086212246439381 1 0 0 I I #
coedge $-1 $585 $431 $589 $590 forward $340 $-1 #
edge $-1 $591 -47.245840605501158 $433 14.831161507321973 $431 $592 forward 7 unknown #
point $-1 -74.424878688924835 -14.831161507321973 0.14727816626278642 #
point $-1 -74.424878688924835 -14.831161507321973 19.086212246439384 #
coedge $-1 $593 $435 $594 $595 forward $437 $-1 #
edge $-1 $510 3.0821965815689367 $438 20.415733269937135 $436 $596 forward 7 unknown #
point $-1 -61.650406749793788 -32.164698195690171 19.086212246439384 #
edge $-1 $354 -13.655254121762304 $530 1.091788267969283 $508 $597 forward 7 unknown #
coedge $-1 $598 $599 $443 $523 forward $600 $-1 #
edge $-1 $601 -27.393205905203327 $525 -12.312063495392334 $522 $602 forward 7 unknown #
coedge $-1 $444 $584 $598 $603 reversed $424 $-1 #
vertex $-1 $603 $604 #
coedge $-1 $605 $594 $446 $527 forward $606 $-1 #
edge $-1 $528 -19.086212246439384 $601 19.086212246439384 $526 $607 forward 7 unknown #
vertex $-1 $595 $608 #
straight-curve $-1 -66.178437413930439 -19.852634700297831 19.086212246439384 0 -1 0 I I #
vertex $-1 $451 $609 #
straight-curve $-1 -74.424878688924835 -11.748964925753036 0.14727816626279883 0 1 0 I I #
coedge $-1 $533 $452 $549 $610 forward $359 $-1 #
coedge $-1 $452 $532 $611 $612 reversed $359 $-1 #
coedge $-1 $613 $550 $452 $535 forward $464 $-1 #
edge $-1 $614 -41.544224030502143 $615 -22.605289950325545 $534 $616 forward 7 unknown #
coedge $-1 $617 $618 $453 $537 forward $619 $-1 #
edge $-1 $620 -37.26305396154747 $543 -32.73502329741082 $536 $621 forward 7 unknown #
coedge $-1 $622 $548 $454 $539 reversed $368 $-1 #
edge $-1 $620 -22.844481990557856 $544 -14.747042389731615 $454 $623 forward 7 unknown #
coedge $-1 $624 $455 $625 $626 forward $542 $-1 #
coedge $-1 $455 $627 $617 $628 reversed $542 $-1 #
loop $-1 $-1 $627 $552 #
vertex $-1 $537 $629 #
vertex $-1 $626 $630 #
straight-curve $-1 -66.178437413930439 -32.164698195690164 0 0 0 -1 I I #
vertex $-1 $457 $631 #
point $-1 -63.438295956771839 -27.212259141870685 8.9268826132093366 #
coedge $-1 $538 $462 $632 $633 reversed $368 $-1 #
coedge $-1 $462 $622 $532 $610 reversed $368 $-1 #
coedge $-1 $534 $634 $462 $551 forward $464 $-1 #
edge $-1 $635 -20.415733269937128 $614 -3.0821965815689367 $550 $636 forward 7 unknown #
face $-1 $637 $542 $19 $-1 $638 forward single #
loop $-1 $-1 $632 $463 #
plane-surface $-1 -70.301658051427637 -32.164698195690164 0 0 -1 0 0 0 -1 forward_v I I I I #
coedge $-1 $469 $476 $468 $556 reversed $466 $-1 #
edge $-1 $472 -19.086212246439384 $481 19.086212246439384 $555 $639 forward 7 unknown #
straight-curve $-1 74.424878688924835 0 19.086212246439384 0 1 0 I I #
point $-1 74.424878688924835 47.245840605501158 19.086212246439384 #
straight-curve $-1 -74.424878688924835 47.245840605501158 0 0 0 -1 I I #
straight-curve $-1 74.424878688924835 0 -19.086212246439384 0 -1 0 I I #
point $-1 74.424878688924835 47.245840605501158 -19.086212246439384 #
face $-1 $640 $493 $17 $-1 $641 reversed single #
plane-surface $-1 0 0 -19.086212246439384 0 0 1 1 0 0 forward_v I I I I #
coedge $-1 $502 $486 $492 $570 forward $414 $-1 #
straight-curve $-1 -74.424878688924835 0 -19.086212246439384 0 1 0 I I #
point $-1 -74.424878688924835 -32.164698195690164 -19.086212246439384 #
coedge $-1 $492 $490 $573 $642 forward $493 $-1 #
vertex $-1 $498 $643 #
straight-curve $-1 0 47.245840605501158 19.086212246439384 -1 0 0 I I #
edge $-1 $494 -74.424878688924835 $644 74.424878688924835 $492 $645 forward 7 unknown #
point $-1 -74.424878688924835 47.245840605501158 -19.086212246439384 #
coedge $-1 $578 $497 $499 $576 forward $574 $-1 #
coedge $-1 $497 $578 $567 $642 reversed $574 $-1 #
loop $-1 $-1 $572 $640 #
straight-curve $-1 74.424878688924835 0 19.086212246439384 0 1 0 I I #
edge $-1 $500 -19.086212246439384 $580 19.086212246439384 $572 $646 forward 7 unknown #
point $-1 74.424878688924835 -47.245840605501158 19.086212246439384 #
coedge $-1 $573 $572 $502 $579 reversed $574 $-1 #
edge $-1 $644 -47.245840605501158 $580 47.245840605501158 $578 $647 forward 7 unknown #
vertex $-1 $576 $648 #
straight-curve $-1 0 -47.245840605501158 -19.086212246439384 -1 0 0 I I #
face $-1 $649 $606 $18 $-1 $650 reversed single #
plane-surface $-1 0 0 19.086212246439384 0 0 1 1 0 0 forward_v I I I I #
coedge $-1 $524 $508 $509 $586 reversed $424 $-1 #
coedge $-1 $509 $514 $651 $652 reversed $340 $-1 #
edge $-1 $653 -19.086212246439384 $530 0.14727816626278642 $509 $654 forward 7 unknown #
point $-1 -61.650406749793788 -14.831161507321973 19.086212246439384 #
coedge $-1 $512 $593 $655 $656 forward $437 $-1 #
coedge $-1 $655 $657 $514 $590 reversed $658 $-1 #
edge $-1 $591 -19.086212246439384 $659 19.086212246439384 $589 $660 forward 7 unknown #
vertex $-1 $656 $661 #
straight-curve $-1 -74.424878688924835 0 19.086212246439384 0 -1 0 I I #
coedge $-1 $588 $518 $662 $663 forward $437 $-1 #
coedge $-1 $526 $664 $518 $595 reversed $606 $-1 #
edge $-1 $528 -66.178437413930439 $665 74.424878688924835 $594 $666 forward 7 unknown #
straight-curve $-1 -61.650406749793788 -11.748964925753036 19.086212246439384 0 -1 0 I I #
straight-curve $-1 -73.814358450452772 -32.164698195690164 1.0524116704992514 -0.55919289150049634 0 -0.82903758062907751 I I #
coedge $-1 $651 $522 $524 $603 forward $600 $-1 #
coedge $-1 $522 $667 $605 $668 forward $600 $-1 #
loop $-1 $-1 $598 $649 #
vertex $-1 $527 $669 #
straight-curve $-1 -66.178437413930439 -19.852634700297831 -19.086212246439384 0 1 0 I I #
edge $-1 $525 31.02760838821662 $653 39.274049663211017 $598 $670 forward 7 unknown #
point $-1 -66.178437413930439 -32.164698195690164 -19.086212246439384 #
coedge $-1 $664 $526 $599 $668 reversed $606 $-1 #
loop $-1 $-1 $526 $582 #
straight-curve $-1 -66.178437413930439 -47.245840605501158 0 0 0 -1 I I #
point $-1 -66.178437413930439 -47.245840605501158 19.086212246439384 #
point $-1 -74.424878688924835 -32.164698195690164 0.14727816626278642 #
edge $-1 $614 2.5411514119214718e-014 $671 22.844481990557856 $532 $672 forward 7 unknown #
coedge $-1 $618 $673 $533 $612 forward $619 $-1 #
edge $-1 $615 24.488582022416423 $671 37.26305396154747 $611 $674 forward 7 unknown #
coedge $-1 $675 $534 $673 $676 reversed $464 $-1 #
vertex $-1 $551 $677 #
vertex $-1 $612 $678 #
straight-curve $-1 -74.424878688924835 -14.831161507321973 41.69150219676493 0 0 1 I I #
coedge $-1 $679 $536 $541 $628 forward $619 $-1 #
coedge $-1 $536 $611 $622 $680 forward $619 $-1 #
loop $-1 $-1 $536 $637 #
vertex $-1 $680 $681 #
straight-curve $-1 -98.913460711341259 -32.164698195690171 19.086212246439381 -1 0 0 I I #
coedge $-1 $549 $538 $618 $680 reversed $368 $-1 #
straight-curve $-1 -74.424878688924849 -32.164698195690171 0.14727816626276535 -0.55919289150049634 0 -0.82903758062907751 I I #
coedge $-1 $627 $540 $682 $683 reversed $542 $-1 #
coedge $-1 $632 $684 $540 $626 reversed $553 $-1 #
edge $-1 $544 -12.373130510480312 $685 19.086212246439384 $540 $545 forward 7 unknown #
coedge $-1 $541 $624 $686 $687 reversed $542 $-1 #
edge $-1 $543 12.312063495392334 $688 27.393205905203327 $617 $689 forward 7 unknown #
point $-1 -66.178437413930439 -32.164698195690164 19.086212246439384 #
point $-1 -66.178437413930439 -32.164698195690164 12.373130510480312 #
point $-1 -62.898606578514681 -27.212259141870685 6.1504216689501892 #
coedge $-1 $690 $625 $548 $633 forward $553 $-1 #
edge $-1 $544 -13.655254121762304 $635 1.091788267969283 $632 $691 forward 7 unknown #
coedge $-1 $550 $692 $690 $693 forward $464 $-1 #
vertex $-1 $551 $694 #
straight-curve $-1 -74.424878688924835 -11.748964925753036 0.14727816626279883 0 1 0 I I #
face $-1 $695 $619 $19 $-1 $696 forward single #
plane-surface $-1 -66.178437413930439 -39.705269400595661 0 -1 0 0 0 0 1 forward_v I I I I #
straight-curve $-1 74.424878688924835 47.245840605501158 0 0 0 -1 I I #
face $-1 $-1 $574 $17 $-1 $697 reversed single #
plane-surface $-1 0 47.245840605501158 0 0 -1 0 0 0 -1 forward_v I I I I #
edge $-1 $568 -19.086212246439384 $644 19.086212246439384 $573 $698 forward 7 unknown #
point $-1 74.424878688924835 47.245840605501158 19.086212246439384 #
vertex $-1 $579 $699 #
straight-curve $-1 0 47.245840605501158 -19.086212246439384 1 0 0 I I #
straight-curve $-1 74.424878688924835 -47.245840605501158 0 0 0 -1 I I #
straight-curve $-1 74.424878688924835 0 -19.086212246439384 0 -1 0 I I #
point $-1 74.424878688924835 -47.245840605501158 -19.086212246439384 #
face $-1 $700 $600 $18 $-1 $701 reversed single #
plane-surface $-1 0 -47.245840605501158 0 0 1 0 0 0 1 forward_v I I I I #
coedge $-1 $702 $598 $585 $652 forward $600 $-1 #
edge $-1 $653 -32.164698195690164 $659 47.245840605501158 $585 $703 forward 7 unknown #
vertex $-1 $652 $704 #
straight-curve $-1 -74.424878688924835 -32.164698195690164 0 0 0 1 I I #
coedge $-1 $705 $589 $588 $656 reversed $658 $-1 #
edge $-1 $706 -74.424878688924835 $591 74.424878688924835 $655 $707 forward 7 unknown #
coedge $-1 $589 $705 $702 $708 reversed $658 $-1 #
loop $-1 $-1 $705 $700 #
vertex $-1 $708 $709 #
straight-curve $-1 -74.424878688924835 47.245840605501158 0 0 0 -1 I I #
point $-1 -74.424878688924835 47.245840605501158 19.086212246439384 #
coedge $-1 $710 $711 $593 $663 reversed $712 $-1 #
edge $-1 $665 -47.245840605501158 $706 47.245840605501158 $662 $713 forward 7 unknown #
coedge $-1 $594 $605 $710 $714 reversed $606 $-1 #
vertex $-1 $663 $715 #
straight-curve $-1 0 -47.245840605501158 19.086212246439384 1 0 0 I I #
coedge $-1 $599 $702 $716 $717 forward $600 $-1 #
edge $-1 $718 -74.424878688924835 $601 66.178437413930439 $605 $719 forward 7 unknown #
point $-1 -66.178437413930439 -47.245840605501158 -19.086212246439384 #
straight-curve $-1 -35.150829025713819 -32.164698195690164 -19.086212246439384 -1 0 0 I I #
vertex $-1 $680 $720 #
straight-curve $-1 -74.424878688924849 -14.831161507321973 0.14727816626276535 0.55919289150049634 0 0.82903758062907751 I I #
coedge $-1 $611 $721 $613 $676 forward $619 $-1 #
straight-curve $-1 -98.913460711341259 -14.831161507321973 19.086212246439381 1 0 0 I I #
coedge $-1 $692 $613 $722 $723 forward $464 $-1 #
edge $-1 $724 -47.245840605501158 $615 14.831161507321973 $613 $725 forward 7 unknown #
point $-1 -74.424878688924835 -14.831161507321973 0.14727816626278642 #
point $-1 -74.424878688924835 -14.831161507321973 19.086212246439384 #
coedge $-1 $726 $617 $727 $728 forward $619 $-1 #
edge $-1 $671 3.0821965815689367 $620 20.415733269937135 $618 $729 forward 7 unknown #
point $-1 -61.650406749793788 -32.164698195690171 19.086212246439384 #
coedge $-1 $730 $731 $624 $683 forward $732 $-1 #
edge $-1 $733 -27.393205905203327 $685 -12.312063495392334 $682 $734 forward 7 unknown #
coedge $-1 $625 $690 $730 $735 reversed $553 $-1 #
vertex $-1 $735 $736 #
coedge $-1 $737 $727 $627 $687 forward $738 $-1 #
edge $-1 $688 -19.086212246439384 $733 19.086212246439384 $686 $739 forward 7 unknown #
vertex $-1 $728 $740 #
straight-curve $-1 -66.178437413930439 -19.852634700297831 19.086212246439384 0 -1 0 I I #
coedge $-1 $684 $632 $634 $693 reversed $553 $-1 #
straight-curve $-1 -73.814358450452772 -32.164698195690164 1.0524116704992514 -0.55919289150049634 0 -0.82903758062907751 I I #
coedge $-1 $634 $675 $741 $742 reversed $464 $-1 #
edge $-1 $743 -19.086212246439384 $635 0.14727816626278642 $634 $744 forward 7 unknown #
point $-1 -74.424878688924835 -32.164698195690164 0.14727816626278642 #
face $-1 $745 $738 $19 $-1 $746 reversed single #
plane-surface $-1 0 0 19.086212246439384 0 0 1 1 0 0 forward_v I I I I #
plane-surface $-1 74.424878688924835 0 0 -1 0 0 0 0 1 forward_v I I I I #
straight-curve $-1 74.424878688924835 47.245840605501158 0 0 0 -1 I I #
point $-1 74.424878688924835 47.245840605501158 -19.086212246439384 #
face $-1 $747 $658 $18 $-1 $748 reversed single #
plane-surface $-1 0 0 -19.086212246439384 0 0 1 1 0 0 forward_v I I I I #
coedge $-1 $667 $651 $657 $708 forward $600 $-1 #
straight-curve $-1 -74.424878688924835 0 -19.086212246439384 0 1 0 I I #
point $-1 -74.424878688924835 -32.164698195690164 -19.086212246439384 #
coedge $-1 $657 $655 $711 $749 forward $658 $-1 #
vertex $-1 $663 $750 #
straight-curve $-1 0 47.245840605501158 19.086212246439384 -1 0 0 I I #
edge $-1 $659 -74.424878688924835 $751 74.424878688924835 $657 $752 forward 7 unknown #
point $-1 -74.424878688924835 47.245840605501158 -19.086212246439384 #
coedge $-1 $716 $662 $664 $714 forward $712 $-1 #
coedge $-1 $662 $716 $705 $749 reversed $712 $-1 #
loop $-1 $-1 $710 $747 #
straight-curve $-1 74.424878688924835 0 19.086212246439384 0 1 0 I I #
edge $-1 $665 -19.086212246439384 $718 19.086212246439384 $710 $753 forward 7 unknown #
point $-1 74.424878688924835 -47.245840605501158 19.086212246439384 #
coedge $-1 $711 $710 $667 $717 reversed $712 $-1 #
edge $-1 $751 -47.245840605501158 $718 47.245840605501158 $716 $754 forward 7 unknown #
vertex $-1 $714 $755 #
straight-curve $-1 0 -47.245840605501158 -19.086212246439384 -1 0 0 I I #
point $-1 -61.650406749793788 -14.831161507321973 19.086212246439384 #
coedge $-1 $673 $726 $756 $757 forward $619 $-1 #
coedge $-1 $756 $758 $675 $723 reversed $759 $-1 #
edge $-1 $724 -19.086212246439384 $760 19.086212246439384 $722 $761 forward 7 unknown #
vertex $-1 $757 $762 #
straight-curve $-1 -74.424878688924835 0 19.086212246439384 0 -1 0 I I #
coedge $-1 $721 $679 $763 $764 forward $619 $-1 #
coedge $-1 $686 $765 $679 $728 reversed $738 $-1 #
edge $-1 $688 -66.178437413930439 $766 74.424878688924835 $727 $767 forward 7 unknown #
straight-curve $-1 -61.650406749793788 -11.748964925753036 19.086212246439384 0 -1 0 I I #
coedge $-1 $741 $682 $684 $735 forward $732 $-1 #
coedge $-1 $682 $768 $737 $769 forward $732 $-1 #
loop $-1 $-1 $730 $745 #
vertex $-1 $687 $770 #
straight-curve $-1 -66.178437413930439 -19.852634700297831 -19.086212246439384 0 1 0 I I #
edge $-1 $685 31.02760838821662 $743 39.274049663211017 $730 $771 forward 7 unknown #
point $-1 -66.178437413930439 -32.164698195690164 -19.086212246439384 #
coedge $-1 $765 $686 $731 $769 reversed $738 $-1 #
loop $-1 $-1 $686 $695 #
straight-curve $-1 -66.178437413930439 -47.245840605501158 0 0 0 -1 I I #
point $-1 -66.178437413930439 -47.245840605501158 19.086212246439384 #
coedge $-1 $772 $730 $692 $742 forward $732 $-1 #
edge $-1 $743 -32.164698195690164 $760 47.245840605501158 $692 $773 forward 7 unknown #
vertex $-1 $742 $774 #
straight-curve $-1 -74.424878688924835 -32.164698195690164 0 0 0 1 I I #
face $-1 $775 $732 $19 $-1 $776 reversed single #
plane-surface $-1 0 -47.245840605501158 0 0 1 0 0 0 1 forward_v I I I I #
face $-1 $-1 $712 $18 $-1 $777 reversed single #
plane-surface $-1 0 47.245840605501158 0 0 -1 0 0 0 -1 forward_v I I I I #
edge $-1 $706 -19.086212246439384 $751 19.086212246439384 $711 $778 forward 7 unknown #
point $-1 74.424878688924835 47.245840605501158 19.086212246439384 #
vertex $-1 $717 $779 #
straight-curve $-1 0 47.245840605501158 -19.086212246439384 1 0 0 I I #
straight-curve $-1 74.424878688924835 -47.245840605501158 0 0 0 -1 I I #
straight-curve $-1 74.424878688924835 0 -19.086212246439384 0 -1 0 I I #
point $-1 74.424878688924835 -47.245840605501158 -19.086212246439384 #
coedge $-1 $780 $722 $721 $757 reversed $759 $-1 #
edge $-1 $781 -74.424878688924835 $724 74.424878688924835 $756 $782 forward 7 unknown #
coedge $-1 $722 $780 $772 $783 reversed $759 $-1 #
loop $-1 $-1 $780 $775 #
vertex $-1 $783 $784 #
straight-curve $-1 -74.424878688924835 47.245840605501158 0 0 0 -1 I I #
point $-1 -74.424878688924835 47.245840605501158 19.086212246439384 #
coedge $-1 $785 $786 $726 $764 reversed $787 $-1 #
edge $-1 $766 -47.245840605501158 $781 47.245840605501158 $763 $788 forward 7 unknown #
coedge $-1 $727 $737 $785 $789 reversed $738 $-1 #
vertex $-1 $764 $790 #
straight-curve $-1 0 -47.245840605501158 19.086212246439384 1 0 0 I I #
coedge $-1 $731 $772 $791 $792 forward $732 $-1 #
edge $-1 $793 -74.424878688924835 $733 66.178437413930439 $737 $794 forward 7 unknown #
point $-1 -66.178437413930439 -47.245840605501158 -19.086212246439384 #
straight-curve $-1 -35.150829025713819 -32.164698195690164 -19.086212246439384 -1 0 0 I I #
coedge $-1 $768 $741 $758 $783 forward $732 $-1 #
straight-curve $-1 -74.424878688924835 0 -19.086212246439384 0 1 0 I I #
point $-1 -74.424878688924835 -32.164698195690164 -19.086212246439384 #
face $-1 $795 $759 $19 $-1 $796 reversed single #
plane-surface $-1 0 0 -19.086212246439384 0 0 1 1 0 0 forward_v I I I I #
plane-surface $-1 74.424878688924835 0 0 -1 0 0 0 0 1 forward_v I I I I #
straight-curve $-1 74.424878688924835 47.245840605501158 0 0 0 -1 I I #
point $-1 74.424878688924835 47.245840605501158 -19.086212246439384 #
coedge $-1 $758 $756 $786 $797 forward $759 $-1 #
vertex $-1 $764 $798 #
straight-curve $-1 0 47.245840605501158 19.086212246439384 -1 0 0 I I #
edge $-1 $760 -74.424878688924835 $799 74.424878688924835 $758 $800 forward 7 unknown #
point $-1 -74.424878688924835 47.245840605501158 -19.086212246439384 #
coedge $-1 $791 $763 $765 $789 forward $787 $-1 #
coedge $-1 $763 $791 $780 $797 reversed $787 $-1 #
loop $-1 $-1 $785 $795 #
straight-curve $-1 74.424878688924835 0 19.086212246439384 0 1 0 I I #
edge $-1 $766 -19.086212246439384 $793 19.086212246439384 $785 $801 forward 7 unknown #
point $-1 74.424878688924835 -47.245840605501158 19.086212246439384 #
coedge $-1 $786 $785 $768 $792 reversed $787 $-1 #
edge $-1 $799 -47.245840605501158 $793 47.245840605501158 $791 $802 forward 7 unknown #
vertex $-1 $789 $803 #
straight-curve $-1 0 -47.245840605501158 -19.086212246439384 -1 0 0 I I #
face $-1 $-1 $787 $19 $-1 $804 reversed single #
plane-surface $-1 0 47.245840605501158 0 0 -1 0 0 0 -1 forward_v I I I I #
edge $-1 $781 -19.086212246439384 $799 19.086212246439384 $786 $805 forward 7 unknown #
point $-1 74.424878688924835 47.245840605501158 19.086212246439384 #
vertex $-1 $792 $806 #
straight-curve $-1 0 47.245840605501158 -19.086212246439384 1 0 0 I I #
straight-curve $-1 74.424878688924835 -47.245840605501158 0 0 0 -1 I I #
straight-curve $-1 74.424878688924835 0 -19.086212246439384 0 -1 0 I I #
point $-1 74.424878688924835 -47.245840605501158 -19.086212246439384 #
plane-surface $-1 74.424878688924835 0 0 -1 0 0 0 0 1 forward_v I I I I #
straight-curve $-1 74.424878688924835 47.245840605501158 0 0 0 -1 I I #
point $-1 74.424878688924835 47.245840605501158 -19.086212246439384 #
End-of-ACIS-data 