500 0 7 0           
7 Unknown 11 ACIS 5.0 NT 24 Thu Mar 25 18:34:43 1999 
-1 9.9999999999999995e-007 1e-010 
body $-1 $7 $-1 $8 #
body $-1 $9 $-1 $10 #
body $-1 $11 $-1 $12 #
body $-1 $13 $-1 $14 #
body $-1 $15 $-1 $16 #
body $-1 $17 $-1 $18 #
body $-1 $19 $-1 $20 #
lump $-1 $-1 $21 $0 #
transform $-1 1 0 0 0 1 0 0 0 1 68.728904080324725 32.120962071464731 14.139222648822862 1 rotate no_reflect no_shear #
lump $-1 $-1 $22 $1 #
transform $-1 1 0 0 0 1 0 0 0 1 68.728904080324725 32.120962071464731 14.139222648822862 1 rotate no_reflect no_shear #
lump $-1 $-1 $23 $2 #
transform $-1 1 0 0 0 1 0 0 0 1 68.728904080324725 32.120962071464731 14.139222648822862 1 rotate no_reflect no_shear #
lump $-1 $-1 $24 $3 #
transform $-1 1 0 0 0 1 0 0 0 1 68.728904080324725 32.120962071464731 14.139222648822862 1 rotate no_reflect no_shear #
lump $-1 $-1 $25 $4 #
transform $-1 1 0 0 0 1 0 0 0 1 68.728904080324725 32.120962071464731 14.139222648822862 1 rotate no_reflect no_shear #
lump $-1 $-1 $26 $5 #
transform $-1 1 0 0 0 1 0 0 0 1 68.728904080324725 32.120962071464731 14.139222648822862 1 rotate no_reflect no_shear #
lump $-1 $-1 $27 $6 #
transform $-1 1 0 0 0 1 0 0 0 1 68.728904080324725 32.120962071464731 14.139222648822862 1 rotate no_reflect no_shear #
shell $-1 $-1 $-1 $28 $-1 $7 #
shell $-1 $-1 $-1 $29 $-1 $9 #
shell $-1 $-1 $-1 $30 $-1 $11 #
shell $-1 $-1 $-1 $31 $-1 $13 #
shell $-1 $-1 $-1 $32 $-1 $15 #
shell $-1 $-1 $-1 $33 $-1 $17 #
shell $-1 $-1 $-1 $34 $-1 $19 #
face $-1 $35 $36 $21 $-1 $37 forward single #
face $-1 $38 $39 $22 $-1 $40 forward single #
face $-1 $41 $42 $23 $-1 $43 reversed single #
face $-1 $44 $45 $24 $-1 $46 forward single #
face $-1 $47 $48 $25 $-1 $49 forward single #
face $-1 $50 $51 $26 $-1 $52 reversed single #
face $-1 $53 $54 $27 $-1 $55 forward single #
face $-1 $56 $57 $21 $-1 $58 reversed single #
loop $-1 $-1 $59 $28 #
plane-surface $-1 0 0 14.139222648822862 0 0 1 1 0 0 forward_v I I I I #
face $-1 $60 $61 $22 $-1 $62 reversed single #
loop $-1 $-1 $63 $29 #
plane-surface $-1 0 -32.120962071464731 0 0 1 0 0 0 1 forward_v I I I I #
face $-1 $64 $65 $23 $-1 $66 reversed single #
loop $-1 $-1 $67 $30 #
plane-surface $-1 28.31197565146698 -3.5763363492559765 197.05760017695366 0 -1 0 -0.54463904215088732 0 -0.83867056331134215 forward_v I I I I #
face $-1 $68 $69 $24 $-1 $70 forward single #
loop $-1 $71 $72 $31 #
cone-surface $-1 61.606478482811596 -11.97567684858879 8.1273337151776044 -0.54463904215088732 0 -0.83867056331134215 1.2580058449670133 0 -0.81695856322633098 1 I I 0 1 1.5 forward I I I I #
face $-1 $73 $74 $25 $-1 $75 forward single #
loop $-1 $76 $77 $32 #
cone-surface $-1 61.606478482811596 -6.9360725489891024 8.1273337151776044 -0.54463904215088732 0 -0.83867056331134215 1.2580058449670133 0 -0.81695856322633098 1 I I 0 1 1.5 forward I I I I #
face $-1 $78 $79 $26 $-1 $80 reversed single #
loop $-1 $-1 $81 $33 #
plane-surface $-1 -151.45307912823083 23.788925644697613 113.77686696394572 0 1 0 -0.6018150307709319 0 0.79863550430605224 forward_v I I I I #
face $-1 $82 $83 $27 $-1 $84 forward single #
loop $-1 $85 $86 $34 #
cone-surface $-1 -61.148216337186511 27.954943858081172 7.9382195939143889 0.6018150307709319 0 -0.79863550430605224 1.1979532564590785 0 0.90272254615639791 1 I I 0 1 1.5 forward I I I I #
face $-1 $87 $88 $21 $-1 $89 reversed single #
loop $-1 $-1 $90 $35 #
plane-surface $-1 0 0 -14.139222648822862 0 0 1 1 0 0 forward_v I I I I #
coedge $-1 $91 $92 $93 $94 forward $36 $-1 #
face $-1 $95 $96 $22 $-1 $97 forward single #
loop $-1 $-1 $98 $38 #
plane-surface $-1 -68.728904080324725 0 0 1 0 0 0 0 -1 forward_v I I I I #
coedge $-1 $99 $100 $101 $102 forward $39 $-1 #
face $-1 $103 $104 $23 $-1 $105 reversed single #
loop $-1 $-1 $106 $41 #
plane-surface $-1 -46.552913321309561 -9.4558746987889464 81.775782775319371 0.54463904215088732 0 0.83867056331134215 0.83867056331134215 0 -0.54463904215088732 forward_v I I I I #
coedge $-1 $107 $108 $109 $110 reversed $42 $-1 #
face $-1 $-1 $111 $24 $-1 $112 forward single #
loop $-1 $113 $114 $44 #
cone-surface $-1 59.640898668675646 -11.97567684858879 5.1006062821888669 -0.54463904215088732 0 -0.83867056331134215 0.62900292248350664 0 -0.40847928161316549 1 I I -0.70710678118654757 0.70710678118654757 0.75 forward I I I I #
loop $-1 $-1 $115 $31 #
coedge $-1 $72 $72 $116 $117 reversed $45 $-1 #
face $-1 $-1 $118 $25 $-1 $119 forward single #
loop $-1 $120 $121 $47 #
cone-surface $-1 59.640898668675646 -6.9360725489891024 5.1006062821888669 -0.54463904215088732 0 -0.83867056331134215 0.62900292248350664 0 -0.40847928161316549 1 I I -0.70710678118654757 0.70710678118654757 0.75 forward I I I I #
loop $-1 $-1 $122 $32 #
coedge $-1 $77 $77 $123 $124 reversed $48 $-1 #
face $-1 $125 $126 $26 $-1 $127 forward single #
loop $-1 $-1 $128 $50 #
plane-surface $-1 -68.728904080324725 27.954943858081172 3.9981810227608605 -0.6018150307709319 0 0.79863550430605224 0.79863550430605224 0 0.6018150307709319 forward_v I I I I #
coedge $-1 $129 $130 $131 $132 reversed $51 $-1 #
face $-1 $-1 $133 $27 $-1 $134 forward single #
loop $-1 $135 $136 $53 #
cone-surface $-1 -59.844975575263589 27.954943858081172 6.2087607238073694 0.6018150307709319 0 -0.79863550430605224 0.59897662822953923 0 0.45136127307819895 1 I I -0.70710678118654757 0.70710678118654757 0.75 forward I I I I #
loop $-1 $-1 $137 $34 #
coedge $-1 $86 $86 $138 $139 reversed $54 $-1 #
face $-1 $140 $141 $21 $-1 $142 reversed single #
loop $-1 $-1 $143 $56 #
plane-surface $-1 0 -32.120962071464731 0 0 1 0 0 0 1 forward_v I I I I #
coedge $-1 $144 $145 $146 $147 forward $57 $-1 #
coedge $-1 $148 $59 $149 $150 forward $36 $-1 #
coedge $-1 $59 $148 $151 $152 forward $36 $-1 #
coedge $-1 $153 $154 $59 $94 reversed $155 $-1 #
edge $-1 $156 -32.120962071464731 $157 32.120962071464731 $93 $158 forward 7 unknown #
face $-1 $159 $160 $22 $-1 $161 reversed single #
loop $-1 $-1 $162 $60 #
plane-surface $-1 0 -40.513736583036142 -4.9921519841413122 0 0 1 1 0 0 forward_v I I I I #
coedge $-1 $163 $164 $100 $165 forward $61 $-1 #
coedge $-1 $166 $63 $167 $168 reversed $39 $-1 #
coedge $-1 $63 $166 $98 $165 reversed $39 $-1 #
coedge $-1 $169 $162 $63 $102 reversed $96 $-1 #
edge $-1 $170 -68.728904080324725 $171 68.728904080324725 $101 $172 forward 7 unknown #
face $-1 $173 $174 $23 $-1 $175 reversed single #
loop $-1 $-1 $176 $64 #
plane-surface $-1 28.31197565146698 -15.335413048321916 197.05760017695366 0 1 0 0.54463904215088732 0 0.83867056331134215 forward_v I I I I #
coedge $-1 $177 $178 $179 $180 reversed $65 $-1 #
coedge $-1 $108 $67 $181 $182 reversed $42 $-1 #
coedge $-1 $67 $107 $177 $183 reversed $42 $-1 #
coedge $-1 $179 $184 $67 $110 forward $185 $-1 #
edge $-1 $186 -54.572916254591235 $187 -43.442266124610597 $109 $188 forward 7 unknown #
loop $-1 $-1 $116 $68 #
plane-surface $-1 -46.552913321309561 -9.4558746987889464 81.775782775319371 0.54463904215088732 0 0.83867056331134215 0.83867056331134215 0 -0.54463904215088732 forward_v I I I I #
loop $-1 $-1 $189 $44 #
coedge $-1 $114 $114 $115 $190 reversed $69 $-1 #
coedge $-1 $115 $115 $114 $190 forward $71 $-1 #
coedge $-1 $116 $116 $72 $117 forward $111 $-1 #
edge $-1 $191 0 $191 6.2831853071796004 $116 $192 forward 7 unknown #
loop $-1 $-1 $123 $73 #
plane-surface $-1 -46.552913321309561 -9.4558746987889464 81.775782775319371 0.54463904215088732 0 0.83867056331134215 0.83867056331134215 0 -0.54463904215088732 forward_v I I I I #
loop $-1 $-1 $193 $47 #
coedge $-1 $121 $121 $122 $194 reversed $74 $-1 #
coedge $-1 $122 $122 $121 $194 forward $76 $-1 #
coedge $-1 $123 $123 $77 $124 forward $118 $-1 #
edge $-1 $195 0 $195 6.2831853071796004 $123 $196 forward 7 unknown #
face $-1 $197 $198 $26 $-1 $199 reversed single #
loop $-1 $-1 $131 $78 #
plane-surface $-1 0 0 14.139222648822862 0 0 1 1 0 0 forward_v I I I I #
coedge $-1 $200 $201 $202 $203 reversed $79 $-1 #
coedge $-1 $130 $81 $204 $205 reversed $51 $-1 #
coedge $-1 $81 $129 $200 $206 reversed $51 $-1 #
coedge $-1 $202 $207 $81 $132 forward $126 $-1 #
edge $-1 $208 6.9976354837906882 $209 20.455251992377704 $131 $210 forward 7 unknown #
loop $-1 $-1 $138 $82 #
plane-surface $-1 -68.728904080324725 27.954943858081172 3.9981810227608605 -0.6018150307709319 0 0.79863550430605224 0.79863550430605224 0 0.6018150307709319 forward_v I I I I #
loop $-1 $-1 $211 $53 #
coedge $-1 $136 $136 $137 $212 reversed $83 $-1 #
coedge $-1 $137 $137 $136 $212 forward $85 $-1 #
coedge $-1 $138 $138 $86 $139 forward $133 $-1 #
edge $-1 $213 0 $213 6.2831853071796004 $138 $214 forward 7 unknown #
face $-1 $215 $216 $21 $-1 $217 reversed single #
loop $-1 $-1 $218 $87 #
plane-surface $-1 -68.728904080324725 0 0 1 0 0 0 0 -1 forward_v I I I I #
coedge $-1 $219 $151 $220 $221 forward $88 $-1 #
coedge $-1 $222 $90 $219 $223 forward $57 $-1 #
coedge $-1 $90 $222 $224 $225 forward $57 $-1 #
coedge $-1 $154 $153 $90 $147 reversed $155 $-1 #
edge $-1 $226 -32.120962071464731 $227 32.120962071464731 $146 $228 forward 7 unknown #
coedge $-1 $92 $91 $229 $230 forward $36 $-1 #
coedge $-1 $231 $232 $91 $150 reversed $216 $-1 #
edge $-1 $157 -68.728904080324725 $233 68.728904080324725 $149 $234 forward 7 unknown #
coedge $-1 $143 $235 $92 $152 reversed $88 $-1 #
edge $-1 $236 -68.728904080324725 $156 68.728904080324725 $151 $237 forward 7 unknown #
coedge $-1 $146 $93 $235 $238 forward $155 $-1 #
coedge $-1 $93 $146 $231 $239 reversed $155 $-1 #
loop $-1 $-1 $153 $215 #
vertex $-1 $94 $240 #
vertex $-1 $94 $241 #
straight-curve $-1 68.728904080324725 0 14.139222648822862 0 1 0 I I #
face $-1 $242 $243 $22 $-1 $244 reversed single #
loop $-1 $-1 $245 $95 #
plane-surface $-1 0 -40.513736583036142 -9.8542978309507916 0 0 1 1 0 0 forward_v I I I I #
coedge $-1 $101 $246 $247 $248 forward $96 $-1 #
coedge $-1 $249 $98 $250 $251 reversed $61 $-1 #
coedge $-1 $98 $249 $169 $252 reversed $61 $-1 #
edge $-1 $170 4.9921519841413122 $253 9.8542978309507916 $98 $254 forward 7 unknown #
coedge $-1 $100 $99 $255 $256 forward $39 $-1 #
coedge $-1 $247 $257 $99 $168 forward $258 $-1 #
edge $-1 $259 -9.8542978309507916 $171 -4.9921519841413122 $167 $260 forward 7 unknown #
coedge $-1 $246 $101 $164 $252 forward $96 $-1 #
vertex $-1 $165 $261 #
vertex $-1 $248 $262 #
straight-curve $-1 0 -32.120962071464731 -4.9921519841413122 1 0 0 I I #
face $-1 $-1 $185 $23 $-1 $263 forward single #
loop $-1 $-1 $264 $103 #
plane-surface $-1 68.728904080324725 0 0 -1 0 0 0 0 1 forward_v I I I I #
coedge $-1 $265 $266 $267 $268 reversed $104 $-1 #
coedge $-1 $269 $106 $108 $183 forward $65 $-1 #
coedge $-1 $106 $269 $265 $270 forward $65 $-1 #
coedge $-1 $267 $109 $106 $180 forward $185 $-1 #
edge $-1 $187 -1.1516010001384966 $271 10.607475698927443 $179 $272 forward 7 unknown #
coedge $-1 $273 $274 $107 $182 forward $174 $-1 #
edge $-1 $275 -91.617906285933998 $186 -84.389577439653962 $181 $276 forward 7 unknown #
edge $-1 $187 124.18602944692753 $275 137.45780816064945 $108 $277 forward 7 unknown #
coedge $-1 $109 $267 $273 $278 forward $185 $-1 #
loop $-1 $-1 $267 $173 #
vertex $-1 $182 $279 #
vertex $-1 $110 $280 #
straight-curve $-1 14.15598782573349 -3.5763363492559765 14.139222648822866 -1 0 0 I I #
coedge $-1 $189 $189 $-1 $281 reversed $113 $-1 #
edge $-1 $282 0 $282 6.2831853071796004 $114 $283 forward 7 unknown #
vertex $-1 $117 $284 #
ellipse-curve $-1 63.163579015334392 -11.97567684858879 10.525058225682855 0.54463904215088732 0 0.83867056331134215 1.2580058449670133 0 -0.81695856322633098 1 I I #
coedge $-1 $193 $193 $-1 $285 reversed $120 $-1 #
edge $-1 $286 0 $286 6.2831853071796004 $121 $287 forward 7 unknown #
vertex $-1 $124 $288 #
ellipse-curve $-1 63.163579015334392 -6.9360725489891024 10.525058225682855 0.54463904215088732 0 0.83867056331134215 1.2580058449670133 0 -0.81695856322633098 1 I I #
face $-1 $-1 $289 $26 $-1 $290 reversed single #
loop $-1 $-1 $291 $125 #
plane-surface $-1 0 32.120962071464731 0 0 -1 0 0 0 -1 forward_v I I I I #
coedge $-1 $292 $128 $130 $206 forward $79 $-1 #
coedge $-1 $128 $292 $291 $293 reversed $79 $-1 #
coedge $-1 $294 $131 $128 $203 forward $126 $-1 #
edge $-1 $209 9.8114537156570272 $295 18.143490142424145 $202 $296 forward 7 unknown #
coedge $-1 $297 $298 $129 $205 forward $289 $-1 #
edge $-1 $299 -52.890252459212 $208 -42.749210833150002 $204 $300 forward 7 unknown #
edge $-1 $209 -16.850761625330652 $299 0 $130 $301 forward 7 unknown #
coedge $-1 $131 $294 $297 $302 forward $126 $-1 #
vertex $-1 $205 $303 #
vertex $-1 $132 $304 #
straight-curve $-1 -75.726539564115413 23.788925644697613 14.139222648822866 1 0 0 I I #
coedge $-1 $211 $211 $-1 $305 reversed $135 $-1 #
edge $-1 $306 0 $306 6.2831853071796004 $136 $307 forward 7 unknown #
vertex $-1 $139 $308 #
ellipse-curve $-1 -62.000095826031227 27.954943858081172 9.0687018357918561 -0.6018150307709319 0 0.79863550430605224 1.1979532564590785 0 0.90272254615639791 1 I I #
face $-1 $-1 $155 $21 $-1 $309 reversed single #
loop $-1 $-1 $231 $140 #
plane-surface $-1 0 32.120962071464731 0 0 -1 0 0 0 -1 forward_v I I I I #
coedge $-1 $310 $229 $232 $311 forward $141 $-1 #
coedge $-1 $235 $143 $144 $223 reversed $88 $-1 #
coedge $-1 $229 $310 $143 $221 reversed $141 $-1 #
edge $-1 $236 -14.139222648822862 $312 14.139222648822862 $220 $313 forward 7 unknown #
coedge $-1 $145 $144 $310 $314 forward $57 $-1 #
edge $-1 $227 -68.728904080324725 $312 68.728904080324725 $219 $315 forward 7 unknown #
coedge $-1 $232 $231 $145 $225 reversed $216 $-1 #
edge $-1 $316 -68.728904080324725 $226 68.728904080324725 $224 $317 forward 7 unknown #
vertex $-1 $147 $318 #
vertex $-1 $238 $319 #
straight-curve $-1 68.728904080324725 0 -14.139222648822862 0 -1 0 I I #
coedge $-1 $218 $220 $148 $230 reversed $141 $-1 #
edge $-1 $233 -32.120962071464731 $236 32.120962071464731 $229 $320 forward 7 unknown #
coedge $-1 $224 $149 $154 $239 forward $216 $-1 #
coedge $-1 $149 $224 $218 $311 reversed $216 $-1 #
vertex $-1 $150 $321 #
straight-curve $-1 0 32.120962071464731 14.139222648822862 -1 0 0 I I #
coedge $-1 $151 $219 $153 $238 reversed $88 $-1 #
vertex $-1 $230 $322 #
straight-curve $-1 0 -32.120962071464731 14.139222648822862 1 0 0 I I #
edge $-1 $156 -14.139222648822862 $227 14.139222648822862 $153 $323 forward 7 unknown #
edge $-1 $157 -14.139222648822862 $226 14.139222648822862 $154 $324 forward 7 unknown #
point $-1 68.728904080324725 -32.120962071464731 14.139222648822862 #
point $-1 68.728904080324725 32.120962071464731 14.139222648822862 #
face $-1 $-1 $258 $22 $-1 $325 reversed single #
loop $-1 $-1 $326 $159 #
plane-surface $-1 0 -48.906511094607552 -7.4232249075460519 0 1 0 0 0 1 forward_v I I I I #
coedge $-1 $327 $255 $257 $328 forward $160 $-1 #
coedge $-1 $162 $169 $329 $330 forward $96 $-1 #
coedge $-1 $331 $167 $162 $248 reversed $258 $-1 #
edge $-1 $332 -8.3927745115714103 $171 8.3927745115714103 $247 $333 forward 7 unknown #
coedge $-1 $164 $163 $326 $334 reversed $61 $-1 #
coedge $-1 $255 $327 $163 $251 forward $160 $-1 #
edge $-1 $335 -8.3927745115714103 $253 8.3927745115714103 $163 $336 forward 7 unknown #
edge $-1 $170 -8.3927745115714103 $337 8.3927745115714103 $164 $338 forward 7 unknown #
vertex $-1 $165 $339 #
straight-curve $-1 -68.728904080324725 -32.120962071464731 0 0 0 -1 I I #
coedge $-1 $245 $250 $166 $256 reversed $160 $-1 #
edge $-1 $259 -68.728904080324725 $253 68.728904080324725 $255 $340 forward 7 unknown #
coedge $-1 $167 $331 $245 $328 reversed $258 $-1 #
loop $-1 $-1 $167 $242 #
vertex $-1 $168 $341 #
straight-curve $-1 68.728904080324725 -32.120962071464731 0 0 0 1 I I #
point $-1 -68.728904080324725 -32.120962071464731 -4.9921519841413122 #
point $-1 68.728904080324725 -32.120962071464731 -4.9921519841413122 #
plane-surface $-1 0 0 14.139222648822862 0 0 1 1 0 0 forward_v I I I I #
coedge $-1 $274 $273 $266 $342 forward $174 $-1 #
coedge $-1 $266 $176 $178 $270 reversed $104 $-1 #
coedge $-1 $176 $265 $264 $342 reversed $104 $-1 #
coedge $-1 $184 $179 $176 $268 forward $185 $-1 #
edge $-1 $271 43.442266124610597 $343 54.572916254591235 $267 $344 forward 7 unknown #
coedge $-1 $178 $177 $274 $345 reversed $65 $-1 #
edge $-1 $346 -137.45780816064945 $271 -124.18602944692753 $265 $347 forward 7 unknown #
vertex $-1 $180 $348 #
straight-curve $-1 57.598253950344095 -4.7279373493944732 14.139222648822866 0 -1 0 I I #
coedge $-1 $264 $181 $184 $278 reversed $174 $-1 #
coedge $-1 $181 $264 $269 $345 forward $174 $-1 #
vertex $-1 $182 $349 #
straight-curve $-1 68.728904080324725 -3.5763363492559765 98.528800088476828 0 0 1 I I #
straight-curve $-1 -46.552913321309561 -3.5763363492559765 81.775782775319371 0.83867056331134215 0 -0.54463904215088732 I I #
edge $-1 $343 -15.335413048321916 $186 -3.5763363492559765 $273 $350 forward 7 unknown #
point $-1 68.728904080324725 -3.5763363492559765 14.139222648822862 #
point $-1 57.598253950344088 -3.5763363492559765 14.139222648822866 #
edge $-1 $351 1 $351 0 $189 $-1 forward 7 unknown #
vertex $-1 $190 $352 #
ellipse-curve $-1 60.049377950288815 -11.97567684858879 5.7296092046723732 0.54463904215088732 0 0.83867056331134215 1.2580058449670133 0 -0.81695856322633098 1 I I #
point $-1 64.421584860301394 -11.97567684858879 9.7080996624565046 #
edge $-1 $353 1 $353 0 $193 $-1 forward 7 unknown #
vertex $-1 $194 $354 #
ellipse-curve $-1 60.049377950288815 -6.9360725489891024 5.7296092046723732 0.54463904215088732 0 0.83867056331134215 1.2580058449670133 0 -0.81695856322633098 1 I I #
point $-1 64.421584860301394 -6.9360725489891024 9.7080996624565046 #
loop $-1 $-1 $204 $197 #
plane-surface $-1 -68.728904080324725 0 0 1 0 0 0 0 -1 forward_v I I I I #
coedge $-1 $355 $356 $201 $293 forward $198 $-1 #
coedge $-1 $201 $200 $298 $357 reversed $79 $-1 #
edge $-1 $295 9.3908271423452732 $358 26.241588767675921 $291 $359 forward 7 unknown #
coedge $-1 $207 $202 $356 $360 forward $126 $-1 #
vertex $-1 $360 $361 #
straight-curve $-1 -55.271287571737716 13.977471929040586 14.139222648822862 0 1 0 I I #
coedge $-1 $362 $204 $207 $302 reversed $289 $-1 #
coedge $-1 $204 $362 $292 $357 forward $289 $-1 #
vertex $-1 $205 $363 #
straight-curve $-1 -68.728904080324725 23.788925644697613 56.888433481972861 0 0 1 I I #
straight-curve $-1 -68.728904080324725 23.788925644697613 3.9981810227608605 -0.79863550430605224 0 -0.6018150307709319 I I #
edge $-1 $364 -32.120962071464731 $208 -23.788925644697613 $297 $365 forward 7 unknown #
point $-1 -68.728904080324725 23.788925644697613 14.139222648822862 #
point $-1 -55.271287571737709 23.788925644697613 14.139222648822862 #
edge $-1 $366 1 $366 0 $211 $-1 forward 7 unknown #
vertex $-1 $212 $367 #
ellipse-curve $-1 -60.296336848341788 27.954943858081172 6.8077373520369084 -0.6018150307709319 0 0.79863550430605224 1.1979532564590785 0 0.90272254615639791 1 I I #
point $-1 -60.802142569572155 27.954943858081172 9.9714243819482675 #
plane-surface $-1 68.728904080324725 0 0 -1 0 0 0 0 1 forward_v I I I I #
coedge $-1 $220 $218 $222 $314 reversed $141 $-1 #
edge $-1 $233 -14.139222648822862 $316 14.139222648822862 $232 $368 forward 7 unknown #
vertex $-1 $314 $369 #
straight-curve $-1 -68.728904080324725 -32.120962071464731 0 0 0 -1 I I #
edge $-1 $312 -32.120962071464731 $316 32.120962071464731 $310 $370 forward 7 unknown #
straight-curve $-1 0 -32.120962071464731 -14.139222648822862 -1 0 0 I I #
vertex $-1 $225 $371 #
straight-curve $-1 0 32.120962071464731 -14.139222648822862 1 0 0 I I #
point $-1 68.728904080324725 32.120962071464731 -14.139222648822862 #
point $-1 68.728904080324725 -32.120962071464731 -14.139222648822862 #
straight-curve $-1 -68.728904080324725 0 14.139222648822862 0 -1 0 I I #
point $-1 -68.728904080324725 32.120962071464731 14.139222648822862 #
point $-1 -68.728904080324725 -32.120962071464731 14.139222648822862 #
straight-curve $-1 68.728904080324725 -32.120962071464731 0 0 0 -1 I I #
straight-curve $-1 68.728904080324725 32.120962071464731 0 0 0 -1 I I #
plane-surface $-1 68.728904080324725 0 0 -1 0 0 0 0 1 forward_v I I I I #
coedge $-1 $372 $329 $249 $334 forward $243 $-1 #
coedge $-1 $250 $245 $372 $373 forward $160 $-1 #
edge $-1 $259 -8.3927745115714103 $374 8.3927745115714103 $257 $375 forward 7 unknown #
coedge $-1 $326 $376 $246 $330 reversed $243 $-1 #
edge $-1 $337 -68.728904080324725 $332 68.728904080324725 $329 $377 forward 7 unknown #
coedge $-1 $257 $247 $376 $378 forward $258 $-1 #
vertex $-1 $248 $379 #
straight-curve $-1 68.728904080324725 -40.513736583036142 -4.9921519841413122 0 1 0 I I #
edge $-1 $337 -2.4310729234047397 $335 2.4310729234047397 $249 $380 forward 7 unknown #
vertex $-1 $251 $381 #
straight-curve $-1 -68.728904080324725 -40.513736583036142 -9.8542978309507916 0 1 0 I I #
vertex $-1 $252 $382 #
straight-curve $-1 -68.728904080324725 -40.513736583036142 -4.9921519841413122 0 -1 0 I I #
point $-1 -68.728904080324725 -32.120962071464731 -9.8542978309507916 #
straight-curve $-1 0 -32.120962071464731 -9.8542978309507916 -1 0 0 I I #
point $-1 68.728904080324725 -32.120962071464731 -9.8542978309507916 #
edge $-1 $343 84.389577439653962 $346 91.617906285933998 $264 $383 forward 7 unknown #
vertex $-1 $278 $384 #
straight-curve $-1 14.15598782573349 -15.335413048321916 14.139222648822866 1 0 0 I I #
edge $-1 $346 -10.607475698927443 $275 1.1516010001384966 $274 $385 forward 7 unknown #
vertex $-1 $345 $386 #
straight-curve $-1 -46.552913321309561 -15.335413048321916 81.775782775319371 -0.83867056331134215 0 0.54463904215088732 I I #
point $-1 57.598253950344088 -15.335413048321916 14.139222648822866 #
point $-1 68.728904080324725 -3.5763363492559765 6.9108938025428301 #
straight-curve $-1 68.728904080324725 0 14.139222648822862 0 1 0 I I #
vertex $-1 $281 $387 #
point $-1 61.307383795255824 -11.97567684858879 4.9126506414460422 #
vertex $-1 $285 $388 #
point $-1 61.307383795255824 -6.9360725489891024 4.9126506414460422 #
coedge $-1 $356 $291 $362 $389 reversed $198 $-1 #
coedge $-1 $291 $355 $294 $360 reversed $198 $-1 #
edge $-1 $358 -18.143490142424145 $299 -9.8114537156570272 $298 $390 forward 7 unknown #
vertex $-1 $293 $391 #
straight-curve $-1 -47.771439601059832 32.120962071464731 19.790763574457888 -0.79863550430605224 0 -0.6018150307709319 I I #
edge $-1 $295 55.271287571737709 $364 68.728904080324725 $356 $392 forward 7 unknown #
point $-1 -55.271287571737709 32.120962071464731 14.139222648822862 #
coedge $-1 $298 $297 $355 $389 forward $289 $-1 #
point $-1 -68.728904080324725 23.788925644697613 3.9981810227608605 #
vertex $-1 $360 $393 #
straight-curve $-1 -68.728904080324725 0 14.139222648822862 0 -1 0 I I #
vertex $-1 $305 $394 #
point $-1 -59.098383591882708 27.954943858081172 7.7104598981933066 #
straight-curve $-1 -68.728904080324725 32.120962071464731 0 0 0 -1 I I #
point $-1 -68.728904080324725 -32.120962071464731 -14.139222648822862 #
straight-curve $-1 -68.728904080324725 0 -14.139222648822862 0 1 0 I I #
point $-1 -68.728904080324725 32.120962071464731 -14.139222648822862 #
coedge $-1 $376 $326 $327 $373 reversed $243 $-1 #
edge $-1 $374 -68.728904080324725 $335 68.728904080324725 $372 $395 forward 7 unknown #
vertex $-1 $378 $396 #
straight-curve $-1 68.728904080324725 -40.513736583036142 -9.8542978309507916 0 -1 0 I I #
coedge $-1 $329 $372 $331 $378 reversed $243 $-1 #
straight-curve $-1 0 -48.906511094607552 -4.9921519841413122 1 0 0 I I #
edge $-1 $332 -2.4310729234047397 $374 2.4310729234047397 $331 $397 forward 7 unknown #
point $-1 68.728904080324725 -48.906511094607552 -4.9921519841413122 #
straight-curve $-1 -68.728904080324725 -48.906511094607552 -7.4232249075460519 0 0 -1 I I #
point $-1 -68.728904080324725 -48.906511094607552 -9.8542978309507916 #
point $-1 -68.728904080324725 -48.906511094607552 -4.9921519841413122 #
straight-curve $-1 68.728904080324725 -15.335413048321916 98.528800088476828 0 0 -1 I I #
point $-1 68.728904080324725 -15.335413048321916 14.139222648822862 #
straight-curve $-1 68.728904080324725 -4.7279373493944732 6.910893802542823 0 1 0 I I #
point $-1 68.728904080324725 -15.335413048321916 6.9108938025428301 #
point $-1 59.232419387062478 -11.97567684858879 4.4716033597053606 #
point $-1 59.232419387062478 -6.9360725489891024 4.4716033597053606 #
edge $-1 $364 -14.139222648822862 $358 -3.9981810227608605 $355 $398 forward 7 unknown #
straight-curve $-1 -68.728904080324725 13.977471929040586 3.9981810227608614 0 -1 0 I I #
point $-1 -68.728904080324725 32.120962071464731 3.9981810227608605 #
straight-curve $-1 0 32.120962071464731 14.139222648822862 -1 0 0 I I #
point $-1 -68.728904080324725 32.120962071464731 14.139222648822862 #
point $-1 -59.393614302185391 27.954943858081172 5.6097840955778304 #
straight-curve $-1 0 -48.906511094607552 -9.8542978309507916 -1 0 0 I I #
point $-1 68.728904080324725 -48.906511094607552 -9.8542978309507916 #
straight-curve $-1 68.728904080324725 -48.906511094607552 -7.4232249075460519 0 0 -1 I I #
straight-curve $-1 -68.728904080324725 32.120962071464731 0 0 0 -1 I I #
End-of-ACIS-data 