500 0 9 0           
7 Unknown 11 ACIS 5.0 NT 24 Fri Mar 26 14:34:39 1999 
-1 9.9999999999999995e-007 1e-010 
body $-1 $9 $-1 $10 #
body $-1 $11 $-1 $12 #
body $-1 $13 $-1 $14 #
body $-1 $15 $-1 $16 #
body $-1 $17 $-1 $18 #
body $-1 $19 $-1 $20 #
body $-1 $21 $-1 $22 #
body $-1 $23 $-1 $24 #
body $-1 $25 $-1 $26 #
lump $-1 $-1 $27 $0 #
transform $-1 1 0 0 0 1 0 0 0 1 56.161381878109069 23.536121584221739 10.350592536417546 1 rotate no_reflect no_shear #
lump $-1 $-1 $28 $1 #
transform $-1 1 0 0 0 1 0 0 0 1 56.161381878109069 23.536121584221739 10.350592536417546 1 rotate no_reflect no_shear #
lump $-1 $-1 $29 $2 #
transform $-1 1 0 0 0 1 0 0 0 1 56.161381878109069 23.536121584221739 10.350592536417546 1 rotate no_reflect no_shear #
lump $-1 $-1 $30 $3 #
transform $-1 1 0 0 0 1 0 0 0 1 56.161381878109069 23.536121584221739 10.350592536417546 1 rotate no_reflect no_shear #
lump $-1 $-1 $31 $4 #
transform $-1 1 0 0 0 1 0 0 0 1 56.161381878109069 23.536121584221739 10.350592536417546 1 rotate no_reflect no_shear #
lump $-1 $-1 $32 $5 #
transform $-1 1 0 0 0 1 0 0 0 1 56.161381878109069 23.536121584221739 10.350592536417546 1 rotate no_reflect no_shear #
lump $-1 $-1 $33 $6 #
transform $-1 1 0 0 0 1 0 0 0 1 56.161381878109069 23.536121584221739 10.350592536417546 1 rotate no_reflect no_shear #
lump $-1 $-1 $34 $7 #
transform $-1 1 0 0 0 1 0 0 0 1 56.161381878109069 23.536121584221739 10.350592536417546 1 rotate no_reflect no_shear #
lump $-1 $-1 $35 $8 #
transform $-1 1 0 0 0 1 0 0 0 1 56.161381878109069 23.536121584221739 10.350592536417546 1 rotate no_reflect no_shear #
shell $-1 $-1 $-1 $36 $-1 $9 #
shell $-1 $-1 $-1 $37 $-1 $11 #
shell $-1 $-1 $-1 $38 $-1 $13 #
shell $-1 $-1 $-1 $39 $-1 $15 #
shell $-1 $-1 $-1 $40 $-1 $17 #
shell $-1 $-1 $-1 $41 $-1 $19 #
shell $-1 $-1 $-1 $42 $-1 $21 #
shell $-1 $-1 $-1 $43 $-1 $23 #
shell $-1 $-1 $-1 $44 $-1 $25 #
face $-1 $45 $46 $27 $-1 $47 forward single #
face $-1 $48 $49 $28 $-1 $50 forward single #
face $-1 $51 $52 $29 $-1 $53 reversed single #
face $-1 $54 $55 $30 $-1 $56 forward single #
face $-1 $57 $58 $31 $-1 $59 forward single #
face $-1 $60 $61 $32 $-1 $62 reversed single #
face $-1 $63 $64 $33 $-1 $65 forward single #
face $-1 $66 $67 $34 $-1 $68 reversed single #
face $-1 $69 $70 $35 $-1 $71 forward single #
face $-1 $72 $73 $27 $-1 $74 reversed single #
loop $-1 $-1 $75 $36 #
plane-surface $-1 0 0 10.350592536417546 0 0 1 1 0 0 forward_v I I I I #
face $-1 $76 $77 $28 $-1 $78 reversed single #
loop $-1 $-1 $79 $37 #
plane-surface $-1 0 -23.536121584221739 0 0 1 0 0 0 1 forward_v I I I I #
face $-1 $80 $81 $29 $-1 $82 reversed single #
loop $-1 $-1 $83 $38 #
plane-surface $-1 72.765560577421127 16.006596084037149 161.43824009526941 0 1 0 0.77714596973225614 0 0.62932038083071107 forward_v I I I I #
face $-1 $84 $85 $30 $-1 $86 forward single #
loop $-1 $87 $88 $39 #
cone-surface $-1 52.360837858517449 18.157889084089888 6.0869390457982595 -0.77714596973225614 0 -0.62932038083071107 0.62932038083071107 0 -0.77714596973225614 1 I I 0 1 1 forward I I I I #
face $-1 $89 $90 $31 $-1 $91 forward single #
loop $-1 $92 $93 $40 #
cone-surface $-1 52.360837858517449 21.384828584169 6.0869390457982595 -0.77714596973225614 0 -0.62932038083071107 0.62932038083071107 0 -0.77714596973225614 1 I I 0 1 1 forward I I I I #
face $-1 $94 $95 $32 $-1 $96 reversed single #
loop $-1 $-1 $97 $41 #
plane-surface $-1 -131.31998180213327 -8.4807251788501219 86.59563863280691 0 1 0 -0.66913061440640931 0 0.74314481823134659 forward_v I I I I #
face $-1 $98 $99 $33 $-1 $100 forward single #
loop $-1 $101 $102 $42 #
cone-surface $-1 -50.825750262411184 -5.4223895704689049 5.2683854463304645 0.66913061440640931 0 -0.74314481823134659 1.1147172273470198 0 1.003695921609614 1 I I 0 1 1.5 forward I I I I #
face $-1 $103 $104 $34 $-1 $105 reversed single #
loop $-1 $-1 $106 $43 #
plane-surface $-1 -131.31998180213327 9.8539322522262616 86.59563863280691 0 1 0 -0.66913061440640931 0 0.74314481823134659 forward_v I I I I #
face $-1 $107 $108 $35 $-1 $109 forward single #
loop $-1 $110 $111 $44 #
cone-surface $-1 -50.825750262411184 12.912267860607479 5.2683854463304645 0.66913061440640931 0 -0.74314481823134659 1.1147172273470198 0 1.003695921609614 1 I I 0 1 1.5 forward I I I I #
face $-1 $112 $113 $27 $-1 $114 reversed single #
loop $-1 $-1 $115 $45 #
plane-surface $-1 0 0 -10.350592536417546 0 0 1 1 0 0 forward_v I I I I #
coedge $-1 $116 $117 $118 $119 forward $46 $-1 #
face $-1 $120 $121 $28 $-1 $122 reversed single #
loop $-1 $-1 $123 $48 #
plane-surface $-1 0 0 -10.350592536417546 0 0 1 1 0 0 forward_v I I I I #
coedge $-1 $124 $125 $126 $127 forward $49 $-1 #
face $-1 $128 $129 $29 $-1 $130 reversed single #
loop $-1 $-1 $131 $51 #
plane-surface $-1 -14.525622584912128 19.771358834129444 90.751235632248225 0.77714596973225614 0 0.62932038083071107 0.62932038083071107 0 -0.77714596973225614 forward_v I I I I #
coedge $-1 $132 $133 $134 $135 reversed $52 $-1 #
face $-1 $-1 $136 $30 $-1 $137 forward single #
loop $-1 $138 $139 $54 #
cone-surface $-1 50.961645442020071 18.157889084089888 4.9538953980148985 -0.77714596973225614 0 -0.62932038083071107 0.31466019041535553 0 -0.38857298486612807 1 I I -0.70710678118654746 0.70710678118654746 0.5 forward I I I I #
loop $-1 $-1 $140 $39 #
coedge $-1 $88 $88 $141 $142 reversed $55 $-1 #
face $-1 $-1 $143 $31 $-1 $144 forward single #
loop $-1 $145 $146 $57 #
cone-surface $-1 50.961645442020071 21.384828584169 4.9538953980148985 -0.77714596973225614 0 -0.62932038083071107 0.31466019041535553 0 -0.38857298486612807 1 I I -0.70710678118654746 0.70710678118654746 0.5 forward I I I I #
loop $-1 $-1 $147 $40 #
coedge $-1 $93 $93 $148 $149 reversed $58 $-1 #
face $-1 $150 $151 $32 $-1 $152 reversed single #
loop $-1 $-1 $153 $60 #
plane-surface $-1 -56.161381878109069 -5.4223895704689049 3.1235587779496967 -0.66913061440640931 0 0.74314481823134659 0.74314481823134659 0 0.66913061440640931 forward_v I I I I #
coedge $-1 $154 $155 $156 $157 reversed $61 $-1 #
face $-1 $-1 $158 $33 $-1 $159 forward single #
loop $-1 $160 $161 $63 #
cone-surface $-1 -49.001487667134796 -5.4223895704689049 3.2423366218037923 0.66913061440640931 0 -0.74314481823134659 0.55735861367350992 0 0.50184796080480698 1 I I -0.70710678118654757 0.70710678118654757 0.75 forward I I I I #
loop $-1 $-1 $162 $42 #
coedge $-1 $102 $102 $163 $164 reversed $64 $-1 #
face $-1 $165 $166 $34 $-1 $167 reversed single #
loop $-1 $-1 $168 $66 #
plane-surface $-1 -56.161381878109069 12.912267860607479 3.1235587779496967 -0.66913061440640931 0 0.74314481823134659 0.74314481823134659 0 0.66913061440640931 forward_v I I I I #
coedge $-1 $169 $170 $171 $172 reversed $67 $-1 #
face $-1 $-1 $173 $35 $-1 $174 forward single #
loop $-1 $175 $176 $69 #
cone-surface $-1 -49.001487667134796 12.912267860607479 3.2423366218037923 0.66913061440640931 0 -0.74314481823134659 0.55735861367350992 0 0.50184796080480698 1 I I -0.70710678118654757 0.70710678118654757 0.75 forward I I I I #
loop $-1 $-1 $177 $44 #
coedge $-1 $111 $111 $178 $179 reversed $70 $-1 #
face $-1 $180 $181 $27 $-1 $182 reversed single #
loop $-1 $-1 $183 $72 #
plane-surface $-1 0 -23.536121584221739 0 0 1 0 0 0 1 forward_v I I I I #
coedge $-1 $184 $185 $186 $187 forward $73 $-1 #
coedge $-1 $188 $75 $189 $190 forward $46 $-1 #
coedge $-1 $75 $188 $191 $192 forward $46 $-1 #
coedge $-1 $193 $194 $75 $119 reversed $195 $-1 #
edge $-1 $196 -23.536121584221739 $197 23.536121584221739 $118 $198 forward 7 unknown #
face $-1 $199 $200 $28 $-1 $201 reversed single #
loop $-1 $-1 $202 $76 #
plane-surface $-1 -42.258480791555684 -33.939049890512443 0 0 1 0 0 0 1 forward_v I I I I #
coedge $-1 $203 $204 $125 $205 forward $77 $-1 #
coedge $-1 $206 $79 $207 $208 reversed $49 $-1 #
coedge $-1 $79 $206 $123 $205 reversed $49 $-1 #
coedge $-1 $209 $210 $79 $127 reversed $200 $-1 #
edge $-1 $211 -10.350592536417546 $212 10.350592536417546 $126 $213 forward 7 unknown #
face $-1 $214 $215 $29 $-1 $216 forward single #
loop $-1 $-1 $217 $80 #
plane-surface $-1 0 23.536121584221739 0 0 -1 0 0 0 -1 forward_v I I I I #
coedge $-1 $218 $219 $220 $221 reversed $81 $-1 #
coedge $-1 $133 $83 $222 $223 reversed $52 $-1 #
coedge $-1 $83 $132 $218 $224 reversed $52 $-1 #
coedge $-1 $220 $225 $83 $135 forward $226 $-1 #
edge $-1 $227 70.368527511217152 $228 77.259067577719748 $134 $229 forward 7 unknown #
loop $-1 $-1 $141 $84 #
plane-surface $-1 -14.525622584912128 19.771358834129444 90.751235632248225 0.77714596973225614 0 0.62932038083071107 0.62932038083071107 0 -0.77714596973225614 forward_v I I I I #
loop $-1 $-1 $230 $54 #
coedge $-1 $139 $139 $140 $231 reversed $85 $-1 #
coedge $-1 $140 $140 $139 $231 forward $87 $-1 #
coedge $-1 $141 $141 $88 $142 forward $136 $-1 #
edge $-1 $232 0 $232 6.2831853071796004 $141 $233 forward 7 unknown #
loop $-1 $-1 $148 $89 #
plane-surface $-1 -14.525622584912128 19.771358834129444 90.751235632248225 0.77714596973225614 0 0.62932038083071107 0.62932038083071107 0 -0.77714596973225614 forward_v I I I I #
loop $-1 $-1 $234 $57 #
coedge $-1 $146 $146 $147 $235 reversed $90 $-1 #
coedge $-1 $147 $147 $146 $235 forward $92 $-1 #
coedge $-1 $148 $148 $93 $149 forward $143 $-1 #
edge $-1 $236 0 $236 6.2831853071796004 $148 $237 forward 7 unknown #
face $-1 $238 $239 $32 $-1 $240 reversed single #
loop $-1 $-1 $241 $94 #
plane-surface $-1 -131.31998180213327 -2.3640539620876888 86.59563863280691 0 -1 0 0.66913061440640931 0 -0.74314481823134659 forward_v I I I I #
coedge $-1 $242 $243 $244 $245 reversed $95 $-1 #
coedge $-1 $155 $97 $246 $247 reversed $61 $-1 #
coedge $-1 $97 $154 $242 $248 reversed $61 $-1 #
coedge $-1 $244 $249 $97 $157 forward $250 $-1 #
edge $-1 $251 9.4986090229575666 $252 17.525042985410195 $156 $253 forward 7 unknown #
loop $-1 $-1 $163 $98 #
plane-surface $-1 -56.161381878109069 -5.4223895704689049 3.1235587779496967 -0.66913061440640931 0 0.74314481823134659 0.74314481823134659 0 0.66913061440640931 forward_v I I I I #
loop $-1 $-1 $254 $63 #
coedge $-1 $161 $161 $162 $255 reversed $99 $-1 #
coedge $-1 $162 $162 $161 $255 forward $101 $-1 #
coedge $-1 $163 $163 $102 $164 forward $158 $-1 #
edge $-1 $256 0 $256 6.2831853071796004 $163 $257 forward 7 unknown #
face $-1 $258 $259 $34 $-1 $260 forward single #
loop $-1 $-1 $261 $103 #
plane-surface $-1 -131.31998180213327 15.970603468988696 86.59563863280691 0 -1 0 0.66913061440640931 0 -0.74314481823134659 forward_v I I I I #
coedge $-1 $262 $263 $264 $265 reversed $104 $-1 #
coedge $-1 $170 $106 $266 $267 reversed $67 $-1 #
coedge $-1 $106 $169 $262 $268 reversed $67 $-1 #
coedge $-1 $264 $269 $106 $172 forward $259 $-1 #
edge $-1 $270 9.4986090229575666 $271 17.525042985410195 $171 $272 forward 7 unknown #
loop $-1 $-1 $178 $107 #
plane-surface $-1 -56.161381878109069 12.912267860607479 3.1235587779496967 -0.66913061440640931 0 0.74314481823134659 0.74314481823134659 0 0.66913061440640931 forward_v I I I I #
loop $-1 $-1 $273 $69 #
coedge $-1 $176 $176 $177 $274 reversed $108 $-1 #
coedge $-1 $177 $177 $176 $274 forward $110 $-1 #
coedge $-1 $178 $178 $111 $179 forward $173 $-1 #
edge $-1 $275 0 $275 6.2831853071796004 $178 $276 forward 7 unknown #
face $-1 $277 $278 $27 $-1 $279 reversed single #
loop $-1 $-1 $280 $112 #
plane-surface $-1 -56.161381878109069 0 0 1 0 0 0 0 -1 forward_v I I I I #
coedge $-1 $281 $191 $282 $283 forward $113 $-1 #
coedge $-1 $284 $115 $281 $285 forward $73 $-1 #
coedge $-1 $115 $284 $286 $287 forward $73 $-1 #
coedge $-1 $194 $193 $115 $187 reversed $195 $-1 #
edge $-1 $288 -23.536121584221739 $289 23.536121584221739 $186 $290 forward 7 unknown #
coedge $-1 $117 $116 $291 $292 forward $46 $-1 #
coedge $-1 $293 $294 $116 $190 reversed $278 $-1 #
edge $-1 $197 -56.161381878109069 $295 56.161381878109069 $189 $296 forward 7 unknown #
coedge $-1 $183 $297 $117 $192 reversed $113 $-1 #
edge $-1 $298 -56.161381878109069 $196 56.161381878109069 $191 $299 forward 7 unknown #
coedge $-1 $186 $118 $297 $300 forward $195 $-1 #
coedge $-1 $118 $186 $293 $301 reversed $195 $-1 #
loop $-1 $-1 $193 $277 #
vertex $-1 $119 $302 #
vertex $-1 $119 $303 #
straight-curve $-1 56.161381878109069 0 10.350592536417546 0 1 0 I I #
face $-1 $304 $305 $28 $-1 $306 reversed single #
loop $-1 $-1 $126 $120 #
plane-surface $-1 -45.210707201849722 -28.737585737367091 0 1 0 0 0 0 -1 forward_v I I I I #
coedge $-1 $307 $308 $309 $310 forward $121 $-1 #
coedge $-1 $311 $123 $312 $313 forward $77 $-1 #
coedge $-1 $123 $311 $209 $314 forward $77 $-1 #
edge $-1 $211 -45.210707201849722 $315 -39.306254381261645 $123 $316 forward 7 unknown #
coedge $-1 $125 $124 $317 $318 forward $49 $-1 #
coedge $-1 $319 $320 $124 $208 forward $321 $-1 #
edge $-1 $322 39.306254381261645 $212 45.210707201849722 $207 $323 forward 7 unknown #
coedge $-1 $309 $126 $204 $314 reversed $200 $-1 #
coedge $-1 $126 $309 $319 $324 reversed $200 $-1 #
vertex $-1 $205 $325 #
vertex $-1 $324 $326 #
straight-curve $-1 -45.210707201849722 -23.536121584221739 0 0 0 1 I I #
face $-1 $-1 $226 $29 $-1 $327 reversed single #
loop $-1 $-1 $328 $128 #
plane-surface $-1 0 0 10.350592536417546 0 0 1 1 0 0 forward_v I I I I #
coedge $-1 $329 $330 $219 $331 forward $129 $-1 #
coedge $-1 $332 $131 $133 $224 forward $81 $-1 #
coedge $-1 $131 $332 $217 $331 reversed $81 $-1 #
coedge $-1 $333 $134 $131 $221 forward $226 $-1 #
edge $-1 $228 6.1209166669724269 $334 13.650442167157017 $220 $335 forward 7 unknown #
coedge $-1 $336 $328 $132 $223 forward $215 $-1 #
edge $-1 $337 14.19875241347772 $227 19.778601589398505 $222 $338 forward 7 unknown #
edge $-1 $228 -112.32276375621814 $337 -103.45629550588862 $133 $339 forward 7 unknown #
coedge $-1 $134 $333 $336 $340 reversed $226 $-1 #
loop $-1 $-1 $220 $214 #
vertex $-1 $340 $341 #
vertex $-1 $135 $342 #
straight-curve $-1 56.161381878109069 16.006596084037149 80.719120047634703 0 0 -1 I I #
coedge $-1 $230 $230 $-1 $343 reversed $138 $-1 #
edge $-1 $344 0 $344 6.2831853071796004 $139 $345 forward 7 unknown #
vertex $-1 $142 $346 #
ellipse-curve $-1 53.37145729014869 18.157889084089888 6.9053225031662553 0.77714596973225614 0 0.62932038083071107 0.62932038083071107 0 -0.77714596973225614 1 I I #
coedge $-1 $234 $234 $-1 $347 reversed $145 $-1 #
edge $-1 $348 0 $348 6.2831853071796004 $146 $349 forward 7 unknown #
vertex $-1 $149 $350 #
ellipse-curve $-1 53.37145729014869 21.384828584169 6.9053225031662553 0.77714596973225614 0 0.62932038083071107 0.62932038083071107 0 -0.77714596973225614 1 I I #
face $-1 $-1 $250 $32 $-1 $351 forward single #
loop $-1 $-1 $352 $150 #
plane-surface $-1 -56.161381878109069 0 0 1 0 0 0 0 -1 forward_v I I I I #
coedge $-1 $353 $354 $355 $356 reversed $151 $-1 #
coedge $-1 $357 $153 $155 $248 forward $95 $-1 #
coedge $-1 $153 $357 $353 $358 forward $95 $-1 #
coedge $-1 $355 $156 $153 $245 forward $250 $-1 #
edge $-1 $252 -5.7695303936156694 $359 0.34714082314676364 $244 $360 forward 7 unknown #
coedge $-1 $361 $362 $154 $247 forward $239 $-1 #
edge $-1 $363 -40.174260538453758 $251 -32.947226779985911 $246 $364 forward 7 unknown #
edge $-1 $252 -10.800632347212218 $363 0 $155 $365 forward 7 unknown #
coedge $-1 $156 $355 $361 $366 forward $250 $-1 #
loop $-1 $-1 $355 $238 #
vertex $-1 $247 $367 #
vertex $-1 $157 $368 #
straight-curve $-1 -65.659990901066635 -8.4807251788501219 10.350592536417544 1 0 0 I I #
coedge $-1 $254 $254 $-1 $369 reversed $160 $-1 #
edge $-1 $370 0 $370 6.2831853071796004 $161 $371 forward 7 unknown #
vertex $-1 $164 $372 #
ellipse-curve $-1 -52.148164896882761 -5.4223895704689049 6.7370756571836203 -0.66913061440640931 0 0.74314481823134659 1.1147172273470198 0 1.003695921609614 1 I I #
face $-1 $-1 $373 $34 $-1 $374 reversed single #
loop $-1 $-1 $171 $165 #
plane-surface $-1 0 0 10.350592536417546 0 0 1 1 0 0 forward_v I I I I #
coedge $-1 $375 $376 $377 $378 reversed $166 $-1 #
coedge $-1 $379 $168 $170 $268 forward $104 $-1 #
coedge $-1 $168 $379 $375 $380 forward $104 $-1 #
coedge $-1 $377 $171 $168 $265 forward $259 $-1 #
edge $-1 $271 3.3977983219225223 $381 9.5144695386849563 $264 $382 forward 7 unknown #
coedge $-1 $383 $384 $169 $267 forward $373 $-1 #
edge $-1 $385 -40.174260538453758 $270 -32.947226779985911 $266 $386 forward 7 unknown #
edge $-1 $271 -10.800632347212218 $385 0 $170 $387 forward 7 unknown #
coedge $-1 $171 $377 $383 $388 forward $259 $-1 #
vertex $-1 $267 $389 #
vertex $-1 $172 $390 #
straight-curve $-1 -65.659990901066635 9.8539322522262616 10.350592536417544 1 0 0 I I #
coedge $-1 $273 $273 $-1 $391 reversed $175 $-1 #
edge $-1 $392 0 $392 6.2831853071796004 $176 $393 forward 7 unknown #
vertex $-1 $179 $394 #
ellipse-curve $-1 -52.148164896882761 12.912267860607479 6.7370756571836203 -0.66913061440640931 0 0.74314481823134659 1.1147172273470198 0 1.003695921609614 1 I I #
face $-1 $-1 $195 $27 $-1 $395 reversed single #
loop $-1 $-1 $293 $180 #
plane-surface $-1 0 23.536121584221739 0 0 -1 0 0 0 -1 forward_v I I I I #
coedge $-1 $396 $291 $294 $397 forward $181 $-1 #
coedge $-1 $297 $183 $184 $285 reversed $113 $-1 #
coedge $-1 $291 $396 $183 $283 reversed $181 $-1 #
edge $-1 $298 -10.350592536417546 $398 10.350592536417546 $282 $399 forward 7 unknown #
coedge $-1 $185 $184 $396 $400 forward $73 $-1 #
edge $-1 $289 -56.161381878109069 $398 56.161381878109069 $281 $401 forward 7 unknown #
coedge $-1 $294 $293 $185 $287 reversed $278 $-1 #
edge $-1 $402 -56.161381878109069 $288 56.161381878109069 $286 $403 forward 7 unknown #
vertex $-1 $187 $404 #
vertex $-1 $300 $405 #
straight-curve $-1 56.161381878109069 0 -10.350592536417546 0 -1 0 I I #
coedge $-1 $280 $282 $188 $292 reversed $181 $-1 #
edge $-1 $295 -23.536121584221739 $298 23.536121584221739 $291 $406 forward 7 unknown #
coedge $-1 $286 $189 $194 $301 forward $278 $-1 #
coedge $-1 $189 $286 $280 $397 reversed $278 $-1 #
vertex $-1 $190 $407 #
straight-curve $-1 0 23.536121584221739 10.350592536417546 -1 0 0 I I #
coedge $-1 $191 $281 $193 $300 reversed $113 $-1 #
vertex $-1 $292 $408 #
straight-curve $-1 0 -23.536121584221739 10.350592536417546 1 0 0 I I #
edge $-1 $196 -10.350592536417546 $289 10.350592536417546 $193 $409 forward 7 unknown #
edge $-1 $197 -10.350592536417546 $288 10.350592536417546 $194 $410 forward 7 unknown #
point $-1 56.161381878109069 -23.536121584221739 10.350592536417546 #
point $-1 56.161381878109069 23.536121584221739 10.350592536417546 #
face $-1 $-1 $321 $28 $-1 $411 forward single #
loop $-1 $-1 $412 $199 #
plane-surface $-1 -39.306254381261645 -28.737585737367091 0 -1 0 0 0 0 1 forward_v I I I I #
coedge $-1 $413 $202 $311 $414 reversed $121 $-1 #
coedge $-1 $202 $413 $415 $416 reversed $121 $-1 #
coedge $-1 $210 $209 $202 $310 reversed $200 $-1 #
edge $-1 $417 -10.350592536417546 $418 10.350592536417546 $309 $419 forward 7 unknown #
coedge $-1 $204 $203 $307 $414 forward $77 $-1 #
coedge $-1 $317 $412 $203 $313 reversed $305 $-1 #
edge $-1 $315 -5.201464153145352 $420 5.201464153145352 $312 $421 forward 7 unknown #
edge $-1 $418 -5.201464153145352 $211 5.201464153145352 $209 $422 forward 7 unknown #
vertex $-1 $313 $423 #
straight-curve $-1 0 -23.536121584221739 -10.350592536417546 1 0 0 I I #
coedge $-1 $424 $312 $206 $318 reversed $305 $-1 #
edge $-1 $322 -10.350592536417546 $315 10.350592536417546 $317 $425 forward 7 unknown #
coedge $-1 $415 $207 $210 $324 forward $321 $-1 #
coedge $-1 $207 $415 $424 $426 forward $321 $-1 #
loop $-1 $-1 $207 $304 #
vertex $-1 $208 $427 #
straight-curve $-1 0 -23.536121584221739 10.350592536417546 -1 0 0 I I #
edge $-1 $212 -5.201464153145352 $417 5.201464153145352 $210 $428 forward 7 unknown #
point $-1 -45.210707201849722 -23.536121584221739 -10.350592536417546 #
point $-1 -45.210707201849722 -23.536121584221739 10.350592536417546 #
plane-surface $-1 56.161381878109069 0 0 -1 0 0 0 0 1 forward_v I I I I #
coedge $-1 $222 $429 $332 $430 forward $215 $-1 #
coedge $-1 $330 $217 $429 $431 reversed $129 $-1 #
coedge $-1 $217 $329 $333 $432 forward $129 $-1 #
edge $-1 $334 -72.488650077836098 $433 -63.622181827506573 $217 $434 forward 7 unknown #
coedge $-1 $219 $218 $328 $430 reversed $81 $-1 #
coedge $-1 $225 $220 $330 $432 reversed $226 $-1 #
vertex $-1 $221 $435 #
straight-curve $-1 56.161381878109069 9.885679417064722 3.460052469914956 0 1 0 I I #
coedge $-1 $429 $222 $225 $340 forward $215 $-1 #
vertex $-1 $223 $436 #
straight-curve $-1 36.382780288710563 16.006596084037149 10.350592536417551 1 0 0 I I #
straight-curve $-1 -14.525622584912128 16.006596084037149 90.751235632248225 -0.62932038083071107 0 0.77714596973225614 I I #
edge $-1 $227 16.006596084037149 $437 23.536121584221739 $225 $438 forward 7 unknown #
point $-1 56.161381878109069 16.006596084037149 10.350592536417546 #
point $-1 56.161381878109069 16.006596084037149 3.460052469914956 #
edge $-1 $439 1 $439 0 $230 $-1 forward 7 unknown #
vertex $-1 $231 $440 #
ellipse-curve $-1 51.350218426886201 18.157889084089888 5.268555588430254 0.77714596973225614 0 0.62932038083071107 0.62932038083071107 0 -0.77714596973225614 1 I I #
point $-1 54.00077767097941 18.157889084089888 6.1281765334340088 #
edge $-1 $441 1 $441 0 $234 $-1 forward 7 unknown #
vertex $-1 $235 $442 #
ellipse-curve $-1 51.350218426886201 21.384828584169 5.268555588430254 0.77714596973225614 0 0.62932038083071107 0.62932038083071107 0 -0.77714596973225614 1 I I #
point $-1 54.00077767097941 21.384828584169 6.1281765334340088 #
plane-surface $-1 0 0 10.350592536417546 0 0 1 1 0 0 forward_v I I I I #
coedge $-1 $362 $361 $354 $443 forward $239 $-1 #
coedge $-1 $354 $241 $243 $358 reversed $151 $-1 #
coedge $-1 $241 $353 $352 $443 reversed $151 $-1 #
coedge $-1 $249 $244 $241 $356 forward $250 $-1 #
edge $-1 $359 -17.525042985410195 $444 -9.4986090229575666 $355 $445 forward 7 unknown #
coedge $-1 $243 $242 $362 $446 reversed $95 $-1 #
edge $-1 $447 0 $359 10.800632347212218 $353 $448 forward 7 unknown #
vertex $-1 $245 $449 #
straight-curve $-1 -48.134947915656454 -2.7111947852344525 10.350592536417544 0 1 0 I I #
coedge $-1 $352 $246 $249 $366 reversed $239 $-1 #
coedge $-1 $246 $352 $357 $446 forward $239 $-1 #
vertex $-1 $247 $450 #
straight-curve $-1 -56.161381878109069 -8.4807251788501219 43.297819316403455 0 0 1 I I #
straight-curve $-1 -56.161381878109069 -8.4807251788501219 3.1235587779496967 -0.74314481823134659 0 -0.66913061440640931 I I #
edge $-1 $444 2.3640539620876888 $251 8.4807251788501219 $361 $451 forward 7 unknown #
point $-1 -56.161381878109069 -8.4807251788501219 10.350592536417546 #
point $-1 -48.13494791565644 -8.4807251788501219 10.350592536417546 #
edge $-1 $452 1 $452 0 $254 $-1 forward 7 unknown #
vertex $-1 $255 $453 #
ellipse-curve $-1 -49.503335627939606 -5.4223895704689049 3.7996952354773024 -0.66913061440640931 0 0.74314481823134659 1.1147172273470198 0 1.003695921609614 1 I I #
point $-1 -51.033447669535747 -5.4223895704689049 7.7407715787932396 #
loop $-1 $-1 $266 $258 #
plane-surface $-1 -56.161381878109069 0 0 1 0 0 0 0 -1 forward_v I I I I #
coedge $-1 $376 $261 $263 $380 reversed $166 $-1 #
coedge $-1 $261 $375 $454 $455 reversed $166 $-1 #
coedge $-1 $269 $264 $261 $378 forward $259 $-1 #
edge $-1 $381 -17.525042985410195 $456 -9.4986090229575666 $377 $457 forward 7 unknown #
coedge $-1 $263 $262 $384 $458 reversed $104 $-1 #
edge $-1 $459 0 $381 10.800632347212218 $375 $460 forward 7 unknown #
vertex $-1 $265 $461 #
straight-curve $-1 -48.134947915656454 6.4561339303037393 10.350592536417544 0 1 0 I I #
coedge $-1 $454 $266 $269 $388 reversed $373 $-1 #
coedge $-1 $266 $454 $379 $458 forward $373 $-1 #
vertex $-1 $267 $462 #
straight-curve $-1 -56.161381878109069 9.8539322522262616 43.297819316403455 0 0 1 I I #
straight-curve $-1 -56.161381878109069 9.8539322522262616 3.1235587779496967 -0.74314481823134659 0 -0.66913061440640931 I I #
edge $-1 $456 -15.970603468988696 $270 -9.8539322522262616 $383 $463 forward 7 unknown #
point $-1 -56.161381878109069 9.8539322522262616 10.350592536417546 #
point $-1 -48.13494791565644 9.8539322522262616 10.350592536417546 #
edge $-1 $464 1 $464 0 $273 $-1 forward 7 unknown #
vertex $-1 $274 $465 #
ellipse-curve $-1 -49.503335627939606 12.912267860607479 3.7996952354773024 -0.66913061440640931 0 0.74314481823134659 1.1147172273470198 0 1.003695921609614 1 I I #
point $-1 -51.033447669535747 12.912267860607479 7.7407715787932396 #
plane-surface $-1 56.161381878109069 0 0 -1 0 0 0 0 1 forward_v I I I I #
coedge $-1 $282 $280 $284 $400 reversed $181 $-1 #
edge $-1 $295 -10.350592536417546 $402 10.350592536417546 $294 $466 forward 7 unknown #
vertex $-1 $400 $467 #
straight-curve $-1 -56.161381878109069 -23.536121584221739 0 0 0 -1 I I #
edge $-1 $398 -23.536121584221739 $402 23.536121584221739 $396 $468 forward 7 unknown #
straight-curve $-1 0 -23.536121584221739 -10.350592536417546 -1 0 0 I I #
vertex $-1 $287 $469 #
straight-curve $-1 0 23.536121584221739 -10.350592536417546 1 0 0 I I #
point $-1 56.161381878109069 23.536121584221739 -10.350592536417546 #
point $-1 56.161381878109069 -23.536121584221739 -10.350592536417546 #
straight-curve $-1 -56.161381878109069 0 10.350592536417546 0 -1 0 I I #
point $-1 -56.161381878109069 23.536121584221739 10.350592536417546 #
point $-1 -56.161381878109069 -23.536121584221739 10.350592536417546 #
straight-curve $-1 56.161381878109069 -23.536121584221739 0 0 0 -1 I I #
straight-curve $-1 56.161381878109069 23.536121584221739 0 0 0 -1 I I #
plane-surface $-1 0 0 10.350592536417546 0 0 1 1 0 0 forward_v I I I I #
coedge $-1 $312 $424 $413 $470 forward $305 $-1 #
coedge $-1 $308 $307 $412 $470 reversed $121 $-1 #
edge $-1 $420 -2.9522264102940383 $418 2.9522264102940383 $307 $471 forward 7 unknown #
coedge $-1 $320 $319 $308 $416 forward $321 $-1 #
edge $-1 $417 -2.9522264102940383 $472 2.9522264102940383 $308 $473 forward 7 unknown #
vertex $-1 $324 $474 #
vertex $-1 $314 $475 #
straight-curve $-1 -45.210707201849722 -33.939049890512443 0 0 0 -1 I I #
vertex $-1 $470 $476 #
straight-curve $-1 -39.306254381261645 -28.737585737367091 -10.350592536417546 0 -1 0 I I #
straight-curve $-1 -45.210707201849722 -28.737585737367091 -10.350592536417546 0 1 0 I I #
point $-1 -39.306254381261645 -23.536121584221739 -10.350592536417546 #
coedge $-1 $412 $317 $320 $426 reversed $305 $-1 #
straight-curve $-1 -39.306254381261645 -23.536121584221739 0 0 0 -1 I I #
edge $-1 $472 -5.201464153145352 $322 5.201464153145352 $424 $477 forward 7 unknown #
point $-1 -39.306254381261645 -23.536121584221739 10.350592536417546 #
straight-curve $-1 -45.210707201849722 -28.737585737367091 10.350592536417546 0 -1 0 I I #
coedge $-1 $328 $336 $329 $431 forward $215 $-1 #
edge $-1 $433 -13.650442167157017 $337 -6.1209166669724269 $328 $478 forward 7 unknown #
edge $-1 $437 -56.161381878109069 $433 -50.581532702188284 $329 $479 forward 7 unknown #
edge $-1 $437 -10.350592536417546 $334 -3.4600524699149569 $333 $480 forward 7 unknown #
vertex $-1 $430 $481 #
straight-curve $-1 10.5427970052211 23.536121584221739 59.794314729237072 -0.62932038083071107 0 0.77714596973225614 I I #
point $-1 56.161381878109069 23.536121584221739 3.4600524699149569 #
point $-1 50.581532702188284 16.006596084037149 10.350592536417551 #
vertex $-1 $340 $482 #
straight-curve $-1 56.161381878109069 0 10.350592536417546 0 1 0 I I #
vertex $-1 $343 $483 #
point $-1 51.979538807716914 18.157889084089888 4.4914096186979977 #
vertex $-1 $347 $484 #
point $-1 51.979538807716914 21.384828584169 4.4914096186979977 #
edge $-1 $444 32.947226779985911 $447 40.174260538453758 $352 $485 forward 7 unknown #
vertex $-1 $366 $486 #
straight-curve $-1 -65.659990901066635 -2.3640539620876888 10.350592536417544 -1 0 0 I I #
edge $-1 $447 -0.34714082314676364 $363 5.7695303936156694 $362 $487 forward 7 unknown #
vertex $-1 $446 $488 #
straight-curve $-1 -56.161381878109069 -2.3640539620876888 3.1235587779496967 0.74314481823134659 0 0.66913061440640931 I I #
point $-1 -48.13494791565644 -2.3640539620876888 10.350592536417546 #
point $-1 -56.161381878109069 -8.4807251788501219 3.1235587779496967 #
straight-curve $-1 -56.161381878109069 0 10.350592536417546 0 -1 0 I I #
vertex $-1 $369 $489 #
point $-1 -48.388618400592584 -5.4223895704689049 4.8033911570869163 #
coedge $-1 $384 $383 $376 $455 forward $373 $-1 #
edge $-1 $456 32.947226779985911 $459 40.174260538453758 $454 $490 forward 7 unknown #
vertex $-1 $388 $491 #
straight-curve $-1 -65.659990901066635 15.970603468988696 10.350592536417544 -1 0 0 I I #
edge $-1 $459 -9.5144695386849563 $385 -3.3977983219225223 $384 $492 forward 7 unknown #
vertex $-1 $458 $493 #
straight-curve $-1 -56.161381878109069 15.970603468988696 3.1235587779496967 0.74314481823134659 0 0.66913061440640931 I I #
point $-1 -48.13494791565644 15.970603468988696 10.350592536417546 #
point $-1 -56.161381878109069 9.8539322522262616 3.1235587779496967 #
straight-curve $-1 -56.161381878109069 0 10.350592536417546 0 -1 0 I I #
vertex $-1 $391 $494 #
point $-1 -48.388618400592584 12.912267860607479 4.8033911570869163 #
straight-curve $-1 -56.161381878109069 23.536121584221739 0 0 0 -1 I I #
point $-1 -56.161381878109069 -23.536121584221739 -10.350592536417546 #
straight-curve $-1 -56.161381878109069 0 -10.350592536417546 0 1 0 I I #
point $-1 -56.161381878109069 23.536121584221739 -10.350592536417546 #
edge $-1 $472 -10.350592536417546 $420 10.350592536417546 $412 $495 forward 7 unknown #
straight-curve $-1 -42.258480791555684 -33.939049890512443 -10.350592536417546 -1 0 0 I I #
vertex $-1 $426 $496 #
straight-curve $-1 -42.258480791555684 -33.939049890512443 10.350592536417546 1 0 0 I I #
point $-1 -45.210707201849722 -33.939049890512443 10.350592536417546 #
point $-1 -45.210707201849722 -33.939049890512443 -10.350592536417546 #
point $-1 -39.306254381261645 -33.939049890512443 -10.350592536417546 #
straight-curve $-1 -39.306254381261645 -28.737585737367091 10.350592536417546 0 1 0 I I #
straight-curve $-1 50.581532702188284 9.885679417064722 10.350592536417544 0 -1 0 I I #
straight-curve $-1 0 23.536121584221739 10.350592536417546 -1 0 0 I I #
straight-curve $-1 56.161381878109069 23.536121584221739 0 0 0 -1 I I #
point $-1 50.581532702188284 23.536121584221739 10.350592536417551 #
point $-1 56.161381878109069 23.536121584221739 10.350592536417546 #
point $-1 50.573072457153941 18.157889084089888 4.6392352075995431 #
point $-1 50.573072457153941 21.384828584169 4.6392352075995431 #
straight-curve $-1 -56.161381878109069 -2.3640539620876888 43.297819316403455 0 0 -1 I I #
point $-1 -56.161381878109069 -2.3640539620876888 10.350592536417546 #
straight-curve $-1 -56.161381878109069 -2.7111947852344525 3.1235587779496981 0 -1 0 I I #
point $-1 -56.161381878109069 -2.3640539620876888 3.1235587779496967 #
point $-1 -48.499639706329987 -5.4223895704689049 2.6849780081302823 #
straight-curve $-1 -56.161381878109069 15.970603468988696 43.297819316403455 0 0 -1 I I #
point $-1 -56.161381878109069 15.970603468988696 10.350592536417546 #
straight-curve $-1 -56.161381878109069 6.4561339303037393 3.1235587779496981 0 -1 0 I I #
point $-1 -56.161381878109069 15.970603468988696 3.1235587779496967 #
point $-1 -48.499639706329987 12.912267860607479 2.6849780081302823 #
straight-curve $-1 -39.306254381261645 -33.939049890512443 0 0 0 -1 I I #
point $-1 -39.306254381261645 -33.939049890512443 10.350592536417546 #
End-of-ACIS-data 