500 0 5 0           
7 Unknown 11 ACIS 5.0 NT 24 Thu Mar 25 23:57:39 1999 
-1 9.9999999999999995e-007 1e-010 
body $-1 $5 $-1 $6 #
body $-1 $7 $-1 $8 #
body $-1 $9 $-1 $10 #
body $-1 $11 $-1 $12 #
body $-1 $13 $-1 $14 #
lump $-1 $-1 $15 $0 #
transform $-1 1 0 0 0 1 0 0 0 1 50.571611682485425 25.084704702834319 5.5904127961805363 1 rotate no_reflect no_shear #
lump $-1 $-1 $16 $1 #
transform $-1 1 0 0 0 1 0 0 0 1 50.571611682485425 25.084704702834319 5.5904127961805363 1 rotate no_reflect no_shear #
lump $-1 $-1 $17 $2 #
transform $-1 1 0 0 0 1 0 0 0 1 50.571611682485425 25.084704702834319 5.5904127961805363 1 rotate no_reflect no_shear #
lump $-1 $-1 $18 $3 #
transform $-1 1 0 0 0 1 0 0 0 1 50.571611682485425 25.084704702834319 5.5904127961805363 1 rotate no_reflect no_shear #
lump $-1 $-1 $19 $4 #
transform $-1 1 0 0 0 1 0 0 0 1 50.571611682485425 25.084704702834319 5.5904127961805363 1 rotate no_reflect no_shear #
shell $-1 $-1 $-1 $20 $-1 $5 #
shell $-1 $-1 $-1 $21 $-1 $7 #
shell $-1 $-1 $-1 $22 $-1 $9 #
shell $-1 $-1 $-1 $23 $-1 $11 #
shell $-1 $-1 $-1 $24 $-1 $13 #
face $-1 $25 $26 $15 $-1 $27 forward single #
face $-1 $28 $29 $16 $-1 $30 forward single #
face $-1 $31 $32 $17 $-1 $33 forward single #
face $-1 $34 $35 $18 $-1 $36 reversed single #
face $-1 $37 $38 $19 $-1 $39 reversed single #
face $-1 $40 $41 $15 $-1 $42 reversed single #
loop $-1 $-1 $43 $20 #
plane-surface $-1 0 0 5.5904127961805363 0 0 1 1 0 0 forward_v I I I I #
face $-1 $44 $45 $16 $-1 $46 forward single #
loop $-1 $-1 $47 $21 #
plane-surface $-1 0 -23.037182533811517 2.5904127961805363 0 0 1 1 0 0 forward_v I I I I #
face $-1 $48 $49 $17 $-1 $50 forward single #
loop $-1 $-1 $51 $22 #
plane-surface $-1 -110.02210750525654 -14.835752110119632 82.746397194729042 0 1 0 -0.5877852598018023 0 0.80901698891910034 forward_v I I I I #
face $-1 $52 $53 $18 $-1 $54 reversed single #
loop $-1 $55 $56 $23 #
cone-surface $-1 -46.901232500162955 -13.067309872859079 2.6273257168799513 0.5877852598018023 0 -0.80901698891910034 0.40450849445955017 0 0.29389262990090115 1 I I 0 1 0.5 forward I I I I #
face $-1 $57 $58 $19 $-1 $59 reversed single #
loop $-1 $60 $61 $24 #
cone-surface $-1 -46.901232500162955 -10.414646516968251 2.6273257168799513 0.5877852598018023 0 -0.80901698891910034 0.40450849445955017 0 0.29389262990090115 1 I I 0 1 0.5 forward I I I I #
face $-1 $62 $63 $15 $-1 $64 reversed single #
loop $-1 $-1 $65 $25 #
plane-surface $-1 0 0 -5.5904127961805363 0 0 1 1 0 0 forward_v I I I I #
coedge $-1 $66 $67 $68 $69 forward $26 $-1 #
face $-1 $70 $71 $16 $-1 $72 forward single #
loop $-1 $-1 $73 $28 #
plane-surface $-1 0 -20.989660364788712 4.0904127961805363 0 -1 0 0 0 -1 forward_v I I I I #
coedge $-1 $74 $75 $76 $77 reversed $29 $-1 #
face $-1 $78 $79 $17 $-1 $80 forward single #
loop $-1 $-1 $81 $31 #
plane-surface $-1 -50.571611682485432 -11.740978194913666 0.91981117842833271 -0.5877852598018023 0 0.80901698891910034 0.80901698891910034 0 0.5877852598018023 forward_v I I I I #
coedge $-1 $82 $83 $84 $85 reversed $32 $-1 #
face $-1 $86 $87 $18 $-1 $88 forward single #
loop $-1 $89 $90 $34 #
cone-surface $-1 -46.298172752348172 -13.067309872859079 1.7972851992257022 0.5877852598018023 0 -0.80901698891910034 0.20225424722977509 0 0.14694631495045057 1 I I -0.70710678118654746 0.70710678118654746 0.25 forward I I I I #
loop $-1 $-1 $91 $23 #
coedge $-1 $56 $56 $92 $93 reversed $35 $-1 #
face $-1 $94 $95 $19 $-1 $96 reversed single #
loop $-1 $97 $98 $37 #
cone-surface $-1 -46.298172752348172 -10.414646516968251 1.7972851992257022 0.5877852598018023 0 -0.80901698891910034 0.20225424722977509 0 0.14694631495045057 1 I I -0.70710678118654746 0.70710678118654746 0.25 forward I I I I #
loop $-1 $-1 $99 $24 #
coedge $-1 $61 $61 $100 $101 reversed $38 $-1 #
face $-1 $102 $103 $15 $-1 $104 reversed single #
loop $-1 $-1 $105 $40 #
plane-surface $-1 0 -25.084704702834319 0 0 1 0 0 0 1 forward_v I I I I #
coedge $-1 $106 $107 $108 $109 forward $41 $-1 #
coedge $-1 $110 $43 $111 $112 forward $26 $-1 #
coedge $-1 $43 $110 $113 $114 forward $26 $-1 #
coedge $-1 $115 $116 $43 $69 reversed $117 $-1 #
edge $-1 $118 -25.084704702834319 $119 25.084704702834319 $68 $120 forward 7 unknown #
face $-1 $121 $122 $16 $-1 $123 reversed single #
loop $-1 $-1 $124 $44 #
plane-surface $-1 0 0 5.5904127961805363 0 0 1 1 0 0 forward_v I I I I #
coedge $-1 $125 $126 $127 $128 reversed $45 $-1 #
coedge $-1 $129 $47 $126 $130 reversed $29 $-1 #
coedge $-1 $47 $129 $131 $132 reversed $29 $-1 #
coedge $-1 $133 $127 $47 $77 forward $122 $-1 #
edge $-1 $134 9.4710690978829533 $135 13.566113435928564 $76 $136 forward 7 unknown #
face $-1 $137 $138 $17 $-1 $139 forward single #
loop $-1 $-1 $140 $48 #
plane-surface $-1 -110.02210750525654 -8.6462042797076997 82.746397194729042 0 -1 0 0.5877852598018023 0 -0.80901698891910034 forward_v I I I I #
coedge $-1 $141 $142 $143 $144 reversed $49 $-1 #
coedge $-1 $83 $51 $142 $145 forward $32 $-1 #
coedge $-1 $51 $82 $146 $147 reversed $32 $-1 #
coedge $-1 $148 $143 $51 $85 forward $138 $-1 #
edge $-1 $149 -10.867973569059103 $150 -4.4394420701428459 $84 $151 forward 7 unknown #
face $-1 $152 $153 $18 $-1 $154 forward single #
loop $-1 $-1 $155 $52 #
plane-surface $-1 -110.02210750525654 -14.835752110119632 82.746397194729042 0 1 0 -0.5877852598018023 0 0.80901698891910034 forward_v I I I I #
loop $-1 $-1 $156 $34 #
coedge $-1 $90 $90 $91 $157 forward $53 $-1 #
coedge $-1 $91 $91 $90 $157 reversed $55 $-1 #
coedge $-1 $92 $92 $56 $93 forward $153 $-1 #
edge $-1 $158 0 $158 6.2831853071796004 $92 $159 forward 7 unknown #
face $-1 $160 $161 $19 $-1 $162 reversed single #
loop $-1 $163 $164 $57 #
cone-surface $-1 -46.901232500162955 -13.067309872859079 2.6273257168799513 0.5877852598018023 0 -0.80901698891910034 0.40450849445955017 0 0.29389262990090115 1 I I 0 1 0.5 forward I I I I #
loop $-1 $-1 $165 $37 #
coedge $-1 $98 $98 $99 $166 forward $58 $-1 #
coedge $-1 $99 $99 $98 $166 reversed $60 $-1 #
coedge $-1 $100 $100 $61 $101 forward $167 $-1 #
edge $-1 $168 0 $168 6.2831853071796004 $100 $169 forward 7 unknown #
face $-1 $170 $171 $15 $-1 $172 reversed single #
loop $-1 $-1 $173 $62 #
plane-surface $-1 -50.571611682485425 0 0 1 0 0 0 0 -1 forward_v I I I I #
coedge $-1 $174 $113 $175 $176 forward $63 $-1 #
coedge $-1 $177 $65 $174 $178 forward $41 $-1 #
coedge $-1 $65 $177 $179 $180 forward $41 $-1 #
coedge $-1 $116 $115 $65 $109 reversed $117 $-1 #
edge $-1 $181 -25.084704702834319 $182 25.084704702834319 $108 $183 forward 7 unknown #
coedge $-1 $67 $66 $184 $185 forward $26 $-1 #
coedge $-1 $186 $187 $66 $112 reversed $171 $-1 #
edge $-1 $119 -50.571611682485425 $188 50.571611682485425 $111 $189 forward 7 unknown #
coedge $-1 $105 $190 $67 $114 reversed $63 $-1 #
edge $-1 $191 -50.571611682485425 $118 50.571611682485425 $113 $192 forward 7 unknown #
coedge $-1 $108 $68 $190 $193 forward $117 $-1 #
coedge $-1 $68 $108 $186 $194 reversed $117 $-1 #
loop $-1 $-1 $115 $170 #
vertex $-1 $69 $195 #
vertex $-1 $69 $196 #
straight-curve $-1 50.571611682485425 0 5.5904127961805363 0 1 0 I I #
face $-1 $197 $198 $16 $-1 $199 reversed single #
loop $-1 $-1 $127 $70 #
plane-surface $-1 50.571611682485425 0 0 -1 0 0 0 0 1 forward_v I I I I #
coedge $-1 $200 $201 $125 $202 forward $71 $-1 #
coedge $-1 $203 $73 $124 $202 reversed $45 $-1 #
coedge $-1 $73 $203 $74 $130 forward $45 $-1 #
coedge $-1 $76 $204 $73 $128 forward $122 $-1 #
edge $-1 $205 -3.5452063980902682 $134 -0.54520639809026816 $127 $206 forward 7 unknown #
coedge $-1 $75 $74 $207 $208 reversed $29 $-1 #
edge $-1 $209 -50.571611682485425 $134 50.571611682485425 $126 $210 forward 7 unknown #
coedge $-1 $211 $212 $75 $132 forward $213 $-1 #
edge $-1 $135 -50.571611682485425 $214 50.571611682485425 $131 $215 forward 7 unknown #
coedge $-1 $216 $76 $212 $217 forward $122 $-1 #
vertex $-1 $77 $218 #
vertex $-1 $217 $219 #
straight-curve $-1 50.571611682485425 -11.518591266905759 2.5904127961805363 0 -1 0 I I #
face $-1 $220 $221 $17 $-1 $222 forward single #
loop $-1 $-1 $223 $78 #
plane-surface $-1 0 0 5.5904127961805363 0 0 1 1 0 0 forward_v I I I I #
coedge $-1 $224 $225 $223 $226 reversed $79 $-1 #
coedge $-1 $227 $81 $225 $228 reversed $49 $-1 #
coedge $-1 $81 $227 $82 $145 reversed $49 $-1 #
coedge $-1 $84 $223 $81 $144 forward $138 $-1 #
edge $-1 $229 2.7757151822508668 $149 8.965263012662799 $143 $230 forward 7 unknown #
edge $-1 $149 -7.9461019817460237 $231 -8.7502459990790685e-015 $82 $232 forward 7 unknown #
coedge $-1 $233 $234 $83 $147 forward $235 $-1 #
edge $-1 $150 35.782785801183984 $231 40.453387418936181 $146 $236 forward 7 unknown #
coedge $-1 $237 $84 $234 $238 forward $138 $-1 #
vertex $-1 $144 $239 #
vertex $-1 $238 $240 #
straight-curve $-1 -55.011053752628271 -14.835752110119632 5.5904127961805372 -1 0 0 I I #
face $-1 $241 $242 $18 $-1 $243 forward single #
loop $-1 $244 $92 $86 #
plane-surface $-1 -50.571611682485432 -11.740978194913666 0.91981117842833271 -0.5877852598018023 0 0.80901698891910034 0.80901698891910034 0 0.5877852598018023 forward_v I I I I #
coedge $-1 $245 $246 $247 $248 reversed $87 $-1 #
coedge $-1 $156 $156 $-1 $249 forward $89 $-1 #
edge $-1 $250 0 $250 6.2831853071796004 $90 $251 forward 7 unknown #
vertex $-1 $93 $252 #
ellipse-curve $-1 -47.357345933027297 -13.067309872859079 3.2551119873044385 0.5877852598018023 0 -0.80901698891910034 0.40450849445955017 0 0.29389262990090115 1 I I #
face $-1 $253 $254 $19 $-1 $255 forward single #
loop $-1 $256 $257 $94 #
cone-surface $-1 -46.298172752348172 -13.067309872859079 1.7972851992257022 0.5877852598018023 0 -0.80901698891910034 0.20225424722977509 0 0.14694631495045057 1 I I -0.70710678118654746 0.70710678118654746 0.25 forward I I I I #
loop $-1 $-1 $258 $57 #
coedge $-1 $164 $164 $259 $260 reversed $95 $-1 #
coedge $-1 $165 $165 $-1 $261 forward $97 $-1 #
edge $-1 $262 0 $262 6.2831853071796004 $98 $263 forward 7 unknown #
loop $-1 $264 $100 $253 #
vertex $-1 $101 $265 #
ellipse-curve $-1 -47.357345933027297 -10.414646516968251 3.2551119873044385 0.5877852598018023 0 -0.80901698891910034 0.40450849445955017 0 0.29389262990090115 1 I I #
face $-1 $-1 $117 $15 $-1 $266 reversed single #
loop $-1 $-1 $186 $102 #
plane-surface $-1 0 25.084704702834319 0 0 -1 0 0 0 -1 forward_v I I I I #
coedge $-1 $267 $184 $187 $268 forward $103 $-1 #
coedge $-1 $190 $105 $106 $178 reversed $63 $-1 #
coedge $-1 $184 $267 $105 $176 reversed $103 $-1 #
edge $-1 $191 -5.5904127961805363 $269 5.5904127961805363 $175 $270 forward 7 unknown #
coedge $-1 $107 $106 $267 $271 forward $41 $-1 #
edge $-1 $182 -50.571611682485425 $269 50.571611682485425 $174 $272 forward 7 unknown #
coedge $-1 $187 $186 $107 $180 reversed $171 $-1 #
edge $-1 $273 -50.571611682485425 $181 50.571611682485425 $179 $274 forward 7 unknown #
vertex $-1 $109 $275 #
vertex $-1 $193 $276 #
straight-curve $-1 50.571611682485425 0 -5.5904127961805363 0 -1 0 I I #
coedge $-1 $173 $175 $110 $185 reversed $103 $-1 #
edge $-1 $188 -25.084704702834319 $191 25.084704702834319 $184 $277 forward 7 unknown #
coedge $-1 $179 $111 $116 $194 forward $171 $-1 #
coedge $-1 $111 $179 $173 $268 reversed $171 $-1 #
vertex $-1 $112 $278 #
straight-curve $-1 0 25.084704702834319 5.5904127961805363 -1 0 0 I I #
coedge $-1 $113 $174 $115 $193 reversed $63 $-1 #
vertex $-1 $185 $279 #
straight-curve $-1 0 -25.084704702834319 5.5904127961805363 1 0 0 I I #
edge $-1 $118 -5.5904127961805363 $182 5.5904127961805363 $115 $280 forward 7 unknown #
edge $-1 $119 -5.5904127961805363 $181 5.5904127961805363 $116 $281 forward 7 unknown #
point $-1 50.571611682485425 -25.084704702834319 5.5904127961805363 #
point $-1 50.571611682485425 25.084704702834319 5.5904127961805363 #
face $-1 $282 $213 $16 $-1 $283 reversed single #
loop $-1 $-1 $284 $121 #
plane-surface $-1 0 0 -5.5904127961805363 0 0 1 1 0 0 forward_v I I I I #
coedge $-1 $285 $124 $204 $286 forward $71 $-1 #
coedge $-1 $124 $285 $287 $288 forward $71 $-1 #
edge $-1 $289 -50.571611682485425 $205 50.571611682485425 $124 $290 forward 7 unknown #
coedge $-1 $126 $125 $291 $292 reversed $45 $-1 #
coedge $-1 $127 $293 $200 $286 reversed $122 $-1 #
vertex $-1 $286 $294 #
straight-curve $-1 50.571611682485425 -20.989660364788712 2.0452063980902682 0 0 -1 I I #
coedge $-1 $291 $295 $129 $208 forward $296 $-1 #
edge $-1 $214 -13.566113435928564 $209 -9.4710690978829533 $207 $297 forward 7 unknown #
vertex $-1 $208 $298 #
straight-curve $-1 0 -20.989660364788712 2.5904127961805363 1 0 0 I I #
coedge $-1 $299 $131 $295 $300 forward $213 $-1 #
coedge $-1 $131 $299 $133 $217 reversed $213 $-1 #
loop $-1 $-1 $131 $197 #
vertex $-1 $300 $301 #
straight-curve $-1 0 -25.084704702834319 2.5904127961805363 -1 0 0 I I #
coedge $-1 $293 $133 $284 $302 reversed $122 $-1 #
edge $-1 $135 -2.5904127961805363 $303 5.5904127961805363 $133 $304 forward 7 unknown #
point $-1 50.571611682485425 -20.989660364788712 2.5904127961805363 #
point $-1 50.571611682485425 -25.084704702834323 2.5904127961805363 #
face $-1 $305 $306 $17 $-1 $307 forward single #
loop $-1 $-1 $308 $137 #
plane-surface $-1 0 -23.037182533811517 2.5904127961805363 0 0 1 1 0 0 forward_v I I I I #
coedge $-1 $143 $309 $140 $226 forward $138 $-1 #
coedge $-1 $225 $140 $310 $311 reversed $79 $-1 #
coedge $-1 $140 $224 $141 $228 forward $79 $-1 #
edge $-1 $312 4.4394420701428459 $229 10.867973569059103 $223 $313 forward 7 unknown #
coedge $-1 $142 $141 $233 $314 reversed $49 $-1 #
edge $-1 $315 8.7502459990790685e-015 $229 7.9461019817460237 $225 $316 forward 7 unknown #
vertex $-1 $144 $317 #
straight-curve $-1 -44.143080183569168 -5.8704890974568329 5.5904127961805337 0 -1 0 I I #
vertex $-1 $314 $318 #
straight-curve $-1 -50.571611682485432 -14.835752110119632 0.91981117842833271 -0.80901698891910034 0 -0.5877852598018023 I I #
coedge $-1 $310 $146 $227 $314 forward $235 $-1 #
coedge $-1 $146 $319 $148 $238 reversed $235 $-1 #
loop $-1 $-1 $310 $320 #
straight-curve $-1 -50.571611682485425 -14.835752110119632 41.373198597364521 0 0 -1 I I #
coedge $-1 $321 $148 $322 $323 forward $138 $-1 #
edge $-1 $150 14.835752110119632 $324 20.989660364788712 $234 $325 forward 7 unknown #
point $-1 -44.143080183569168 -14.835752110119632 5.5904127961805363 #
point $-1 -50.571611682485425 -14.835752110119632 5.5904127961805363 #
face $-1 $326 $327 $18 $-1 $328 forward single #
loop $-1 $-1 $329 $152 #
plane-surface $-1 -110.02210750525654 -8.6462042797076997 82.746397194729042 0 -1 0 0.5877852598018023 0 -0.80901698891910034 forward_v I I I I #
loop $-1 $-1 $330 $86 #
coedge $-1 $246 $155 $331 $332 forward $87 $-1 #
coedge $-1 $155 $245 $333 $334 reversed $87 $-1 #
coedge $-1 $335 $336 $155 $248 forward $327 $-1 #
edge $-1 $337 -10.867973569059103 $338 -4.4394420701428459 $247 $339 forward 7 unknown #
edge $-1 $340 1 $340 0 $156 $-1 forward 7 unknown #
vertex $-1 $157 $341 #
ellipse-curve $-1 -46.44511906729862 -13.067309872859079 1.9995394464554772 -0.5877852598018023 0 0.80901698891910034 0.40450849445955017 0 0.29389262990090115 1 I I #
point $-1 -46.952837438567734 -13.067309872859079 3.5490046172053265 #
face $-1 $342 $167 $19 $-1 $343 forward single #
loop $-1 $-1 $344 $160 #
plane-surface $-1 -110.02210750525654 -14.835752110119632 82.746397194729042 0 1 0 -0.5877852598018023 0 0.80901698891910034 forward_v I I I I #
loop $-1 $-1 $345 $94 #
coedge $-1 $257 $257 $258 $346 forward $161 $-1 #
coedge $-1 $258 $258 $257 $346 reversed $163 $-1 #
coedge $-1 $259 $259 $164 $260 forward $264 $-1 #
edge $-1 $347 0 $347 6.2831853071796004 $259 $348 forward 7 unknown #
edge $-1 $349 1 $349 0 $165 $-1 forward 7 unknown #
vertex $-1 $166 $350 #
ellipse-curve $-1 -46.44511906729862 -10.414646516968251 1.9995394464554772 -0.5877852598018023 0 0.80901698891910034 0.40450849445955017 0 0.29389262990090115 1 I I #
loop $-1 $351 $259 $253 #
point $-1 -46.952837438567734 -10.414646516968251 3.5490046172053265 #
plane-surface $-1 50.571611682485425 0 0 -1 0 0 0 0 1 forward_v I I I I #
coedge $-1 $175 $173 $177 $271 reversed $103 $-1 #
edge $-1 $188 -5.5904127961805363 $273 5.5904127961805363 $187 $352 forward 7 unknown #
vertex $-1 $271 $353 #
straight-curve $-1 -50.571611682485425 -25.084704702834319 0 0 0 -1 I I #
edge $-1 $269 -25.084704702834319 $273 25.084704702834319 $267 $354 forward 7 unknown #
straight-curve $-1 0 -25.084704702834319 -5.5904127961805363 -1 0 0 I I #
vertex $-1 $180 $355 #
straight-curve $-1 0 25.084704702834319 -5.5904127961805363 1 0 0 I I #
point $-1 50.571611682485425 25.084704702834319 -5.5904127961805363 #
point $-1 50.571611682485425 -25.084704702834319 -5.5904127961805363 #
straight-curve $-1 -50.571611682485425 0 5.5904127961805363 0 -1 0 I I #
point $-1 -50.571611682485425 25.084704702834319 5.5904127961805363 #
point $-1 -50.571611682485425 -25.084704702834319 5.5904127961805363 #
straight-curve $-1 50.571611682485425 -25.084704702834319 0 0 0 -1 I I #
straight-curve $-1 50.571611682485425 25.084704702834319 0 0 0 -1 I I #
face $-1 $356 $296 $16 $-1 $357 reversed single #
plane-surface $-1 0 -25.084704702834319 0 0 1 0 0 0 1 forward_v I I I I #
coedge $-1 $358 $359 $216 $302 forward $198 $-1 #
coedge $-1 $201 $200 $360 $361 forward $71 $-1 #
edge $-1 $205 -20.989660364788712 $362 25.084704702834319 $204 $363 forward 7 unknown #
coedge $-1 $364 $291 $201 $288 reversed $296 $-1 #
edge $-1 $365 -25.084704702834319 $289 20.989660364788712 $287 $366 forward 7 unknown #
vertex $-1 $292 $367 #
straight-curve $-1 0 -20.989660364788712 5.5904127961805363 1 0 0 I I #
coedge $-1 $287 $207 $203 $292 forward $296 $-1 #
edge $-1 $209 0.54520639809026816 $289 3.5452063980902682 $291 $368 forward 7 unknown #
coedge $-1 $204 $216 $369 $370 reversed $122 $-1 #
point $-1 50.571611682485425 -20.989660364788712 5.5904127961805363 #
coedge $-1 $207 $371 $211 $300 reversed $296 $-1 #
loop $-1 $-1 $291 $282 #
straight-curve $-1 -50.571611682485425 -11.518591266905759 2.5904127961805363 0 1 0 I I #
point $-1 -50.571611682485425 -20.989660364788712 2.5904127961805363 #
coedge $-1 $212 $211 $358 $372 reversed $213 $-1 #
edge $-1 $214 -2.5904127961805363 $373 5.5904127961805363 $295 $374 forward 7 unknown #
point $-1 -50.571611682485425 -25.084704702834323 2.5904127961805363 #
edge $-1 $375 -25.084704702834319 $303 25.084704702834319 $216 $376 forward 7 unknown #
vertex $-1 $217 $377 #
straight-curve $-1 50.571611682485425 -25.084704702834319 0 0 0 -1 I I #
face $-1 $378 $379 $17 $-1 $380 reversed single #
loop $-1 $-1 $381 $220 #
plane-surface $-1 0 -20.989660364788712 4.0904127961805363 0 -1 0 0 0 -1 forward_v I I I I #
coedge $-1 $382 $383 $384 $385 reversed $221 $-1 #
coedge $-1 $223 $386 $387 $388 forward $138 $-1 #
coedge $-1 $387 $233 $224 $311 forward $235 $-1 #
edge $-1 $315 -40.453387418936181 $312 -35.782785801183984 $310 $389 forward 7 unknown #
vertex $-1 $311 $390 #
straight-curve $-1 -55.011053752628271 -8.6462042797076997 5.5904127961805372 1 0 0 I I #
edge $-1 $231 -8.965263012662799 $315 -2.7757151822508668 $233 $391 forward 7 unknown #
vertex $-1 $314 $392 #
straight-curve $-1 -50.571611682485432 -8.6462042797076997 0.91981117842833271 0.80901698891910034 0 0.5877852598018023 I I #
point $-1 -44.143080183569168 -8.6462042797076997 5.5904127961805363 #
point $-1 -50.571611682485425 -14.835752110119632 0.91981117842833782 #
coedge $-1 $234 $393 $394 $395 forward $235 $-1 #
face $-1 $396 $235 $17 $-1 $397 reversed single #
coedge $-1 $386 $237 $398 $399 forward $138 $-1 #
coedge $-1 $394 $381 $237 $323 reversed $306 $-1 #
edge $-1 $324 -50.571611682485425 $400 50.571611682485425 $237 $401 forward 7 unknown #
vertex $-1 $395 $402 #
straight-curve $-1 -50.571611682485425 0 5.5904127961805363 0 -1 0 I I #
face $-1 $403 $404 $18 $-1 $405 forward single #
loop $-1 $-1 $406 $241 #
plane-surface $-1 0 0 5.5904127961805363 0 0 1 1 0 0 forward_v I I I I #
coedge $-1 $407 $408 $406 $409 reversed $242 $-1 #
coedge $-1 $410 $331 $336 $411 reversed $244 $-1 #
coedge $-1 $330 $412 $245 $332 reversed $244 $-1 #
edge $-1 $337 -7.9461019817460237 $413 -8.7502459990790685e-015 $245 $414 forward 7 unknown #
coedge $-1 $415 $416 $246 $334 forward $417 $-1 #
edge $-1 $338 35.782785801183984 $413 40.453387418936181 $333 $418 forward 7 unknown #
coedge $-1 $419 $247 $416 $420 forward $327 $-1 #
coedge $-1 $247 $406 $330 $411 forward $327 $-1 #
vertex $-1 $411 $421 #
vertex $-1 $420 $422 #
straight-curve $-1 -55.011053752628271 -14.835752110119632 5.5904127961805372 -1 0 0 I I #
vertex $-1 $249 $423 #
point $-1 -46.040610572839071 -13.067309872859079 2.2934320763563782 #
face $-1 $424 $425 $19 $-1 $426 forward single #
plane-surface $-1 -50.571611682485432 -11.740978194913666 0.91981117842833271 -0.5877852598018023 0 0.80901698891910034 0.80901698891910034 0 0.5877852598018023 forward_v I I I I #
coedge $-1 $427 $428 $429 $430 reversed $254 $-1 #
coedge $-1 $345 $345 $-1 $431 forward $256 $-1 #
edge $-1 $432 0 $432 6.2831853071796004 $257 $433 forward 7 unknown #
vertex $-1 $260 $434 #
ellipse-curve $-1 -47.357345933027297 -13.067309872859079 3.2551119873044385 0.5877852598018023 0 -0.80901698891910034 0.40450849445955017 0 0.29389262990090115 1 I I #
vertex $-1 $261 $435 #
point $-1 -46.040610572839071 -10.414646516968251 2.2934320763563782 #
loop $-1 $-1 $436 $253 #
straight-curve $-1 -50.571611682485425 25.084704702834319 0 0 0 -1 I I #
point $-1 -50.571611682485425 -25.084704702834319 -5.5904127961805363 #
straight-curve $-1 -50.571611682485425 0 -5.5904127961805363 0 1 0 I I #
point $-1 -50.571611682485425 25.084704702834319 -5.5904127961805363 #
face $-1 $-1 $437 $16 $-1 $438 reversed single #
plane-surface $-1 -50.571611682485425 0 0 1 0 0 0 0 -1 forward_v I I I I #
coedge $-1 $439 $284 $299 $372 forward $198 $-1 #
coedge $-1 $284 $439 $440 $441 forward $198 $-1 #
coedge $-1 $369 $442 $285 $361 reversed $437 $-1 #
edge $-1 $362 -50.571611682485425 $365 50.571611682485425 $360 $443 forward 7 unknown #
vertex $-1 $286 $444 #
straight-curve $-1 50.571611682485425 0 5.5904127961805363 0 1 0 I I #
coedge $-1 $371 $287 $442 $445 forward $296 $-1 #
vertex $-1 $361 $446 #
straight-curve $-1 -50.571611682485425 0 5.5904127961805363 0 -1 0 I I #
point $-1 -50.571611682485425 -20.989660364788712 5.5904127961805363 #
straight-curve $-1 -50.571611682485425 -20.989660364788712 2.0452063980902682 0 0 1 I I #
coedge $-1 $440 $360 $293 $370 forward $437 $-1 #
edge $-1 $362 -5.5904127961805363 $375 5.5904127961805363 $293 $447 forward 7 unknown #
coedge $-1 $295 $364 $439 $448 reversed $296 $-1 #
edge $-1 $303 -50.571611682485425 $373 50.571611682485425 $299 $449 forward 7 unknown #
vertex $-1 $448 $450 #
straight-curve $-1 -50.571611682485425 -25.084704702834319 0 0 0 -1 I I #
vertex $-1 $302 $451 #
straight-curve $-1 50.571611682485425 0 -5.5904127961805363 0 -1 0 I I #
point $-1 50.571611682485425 -25.084704702834319 -5.5904127961805363 #
face $-1 $452 $453 $17 $-1 $454 reversed single #
loop $-1 $-1 $455 $305 #
plane-surface $-1 50.571611682485425 0 0 -1 0 0 0 0 1 forward_v I I I I #
coedge $-1 $322 $456 $455 $457 reversed $306 $-1 #
coedge $-1 $458 $308 $456 $459 reversed $221 $-1 #
coedge $-1 $308 $458 $460 $461 reversed $221 $-1 #
coedge $-1 $462 $455 $308 $385 forward $379 $-1 #
edge $-1 $463 9.4710690978829533 $464 13.566113435928564 $384 $465 forward 7 unknown #
coedge $-1 $309 $321 $466 $467 forward $138 $-1 #
coedge $-1 $468 $310 $309 $388 reversed $235 $-1 #
edge $-1 $469 -25.084704702834319 $312 8.6462042797076997 $387 $325 forward 7 unknown #
straight-curve $-1 -50.571611682485425 -8.6462042797076997 41.373198597364521 0 0 1 I I #
point $-1 -50.571611682485425 -8.6462042797076997 5.5904127961805363 #
straight-curve $-1 -50.571611682485425 -5.8704890974568329 0.91981117842833648 0 1 0 I I #
point $-1 -50.571611682485425 -8.6462042797076997 0.91981117842833782 #
coedge $-1 $319 $470 $458 $471 forward $235 $-1 #
coedge $-1 $456 $322 $319 $395 reversed $306 $-1 #
edge $-1 $472 0.54520639809026816 $324 3.5452063980902682 $319 $473 forward 7 unknown #
face $-1 $-1 $474 $17 $-1 $475 reversed single #
plane-surface $-1 -50.571611682485425 0 0 1 0 0 0 0 -1 forward_v I I I I #
coedge $-1 $455 $476 $321 $399 reversed $379 $-1 #
edge $-1 $400 -20.989660364788712 $477 25.084704702834319 $398 $478 forward 7 unknown #
vertex $-1 $399 $479 #
straight-curve $-1 0 -20.989660364788712 5.5904127961805363 1 0 0 I I #
point $-1 -50.571611682485425 -20.989660364788712 5.5904127961805363 #
face $-1 $480 $481 $18 $-1 $482 forward single #
loop $-1 $-1 $483 $326 #
plane-surface $-1 0 -23.037182533811517 2.5904127961805363 0 0 1 1 0 0 forward_v I I I I #
coedge $-1 $336 $484 $329 $409 forward $327 $-1 #
coedge $-1 $408 $329 $485 $486 reversed $242 $-1 #
coedge $-1 $329 $407 $410 $487 forward $242 $-1 #
edge $-1 $488 4.4394420701428459 $489 10.867973569059103 $406 $490 forward 7 unknown #
coedge $-1 $412 $330 $408 $487 reversed $244 $-1 #
edge $-1 $489 2.7757151822508668 $337 8.965263012662799 $336 $491 forward 7 unknown #
coedge $-1 $331 $410 $415 $492 reversed $244 $-1 #
vertex $-1 $492 $493 #
straight-curve $-1 -50.571611682485432 -14.835752110119632 0.91981117842833271 -0.80901698891910034 0 -0.5877852598018023 I I #
coedge $-1 $485 $333 $412 $492 forward $417 $-1 #
coedge $-1 $333 $494 $335 $420 reversed $417 $-1 #
loop $-1 $-1 $485 $495 #
straight-curve $-1 -50.571611682485425 -14.835752110119632 41.373198597364521 0 0 -1 I I #
coedge $-1 $496 $335 $497 $498 forward $327 $-1 #
edge $-1 $338 14.835752110119632 $499 20.989660364788712 $416 $500 forward 7 unknown #
point $-1 -44.143080183569168 -14.835752110119632 5.5904127961805363 #
point $-1 -50.571611682485425 -14.835752110119632 5.5904127961805363 #
point $-1 -46.151226437397725 -13.067309872859079 1.5950309519959271 #
face $-1 $501 $502 $19 $-1 $503 forward single #
loop $-1 $-1 $504 $342 #
plane-surface $-1 -110.02210750525654 -8.6462042797076997 82.746397194729042 0 -1 0 0.5877852598018023 0 -0.80901698891910034 forward_v I I I I #
coedge $-1 $428 $344 $505 $506 forward $254 $-1 #
coedge $-1 $344 $427 $507 $508 reversed $254 $-1 #
coedge $-1 $509 $510 $344 $430 forward $502 $-1 #
edge $-1 $511 -10.867973569059103 $512 -4.4394420701428459 $429 $513 forward 7 unknown #
edge $-1 $514 1 $514 0 $345 $-1 forward 7 unknown #
vertex $-1 $346 $515 #
ellipse-curve $-1 -46.44511906729862 -13.067309872859079 1.9995394464554772 -0.5877852598018023 0 0.80901698891910034 0.40450849445955017 0 0.29389262990090115 1 I I #
point $-1 -46.952837438567734 -13.067309872859079 3.5490046172053265 #
point $-1 -46.151226437397725 -10.414646516968251 1.5950309519959271 #
coedge $-1 $516 $505 $510 $517 reversed $351 $-1 #
loop $-1 $-1 $369 $356 #
plane-surface $-1 0 25.084704702834319 0 0 -1 0 0 0 -1 forward_v I I I I #
coedge $-1 $359 $358 $371 $448 forward $198 $-1 #
coedge $-1 $442 $369 $359 $441 reversed $437 $-1 #
edge $-1 $518 -50.571611682485425 $375 50.571611682485425 $440 $519 forward 7 unknown #
coedge $-1 $360 $440 $364 $445 reversed $437 $-1 #
straight-curve $-1 0 25.084704702834319 5.5904127961805363 -1 0 0 I I #
point $-1 50.571611682485425 25.084704702834319 5.5904127961805363 #
edge $-1 $365 -5.5904127961805363 $518 5.5904127961805363 $442 $520 forward 7 unknown #
point $-1 -50.571611682485425 25.084704702834319 5.5904127961805363 #
straight-curve $-1 50.571611682485425 25.084704702834319 0 0 0 -1 I I #
edge $-1 $373 -25.084704702834319 $518 25.084704702834319 $371 $521 forward 7 unknown #
straight-curve $-1 0 -25.084704702834319 -5.5904127961805363 -1 0 0 I I #
point $-1 -50.571611682485425 -25.084704702834319 -5.5904127961805363 #
point $-1 50.571611682485425 25.084704702834319 -5.5904127961805363 #
face $-1 $320 $522 $17 $-1 $523 reversed single #
loop $-1 $-1 $524 $378 #
plane-surface $-1 0 0 -5.5904127961805363 0 0 1 1 0 0 forward_v I I I I #
coedge $-1 $384 $398 $381 $457 forward $379 $-1 #
coedge $-1 $381 $394 $382 $459 forward $306 $-1 #
edge $-1 $400 -3.5452063980902682 $463 -0.54520639809026816 $455 $525 forward 7 unknown #
coedge $-1 $383 $382 $393 $471 reversed $221 $-1 #
edge $-1 $472 -50.571611682485425 $463 50.571611682485425 $456 $526 forward 7 unknown #
coedge $-1 $527 $528 $383 $461 forward $522 $-1 #
edge $-1 $464 -50.571611682485425 $529 50.571611682485425 $460 $530 forward 7 unknown #
coedge $-1 $531 $384 $528 $532 forward $379 $-1 #
vertex $-1 $385 $533 #
vertex $-1 $532 $534 #
straight-curve $-1 50.571611682485425 -11.518591266905759 2.5904127961805363 0 -1 0 I I #
coedge $-1 $535 $536 $386 $467 reversed $474 $-1 #
edge $-1 $477 -50.571611682485425 $469 50.571611682485425 $466 $537 forward 7 unknown #
coedge $-1 $538 $387 $536 $539 forward $235 $-1 #
vertex $-1 $467 $540 #
coedge $-1 $393 $538 $527 $541 reversed $235 $-1 #
edge $-1 $529 -13.566113435928564 $472 -9.4710690978829533 $393 $542 forward 7 unknown #
vertex $-1 $471 $543 #
straight-curve $-1 -50.571611682485425 -20.989660364788712 2.0452063980902682 0 0 1 I I #
loop $-1 $-1 $535 $396 #
plane-surface $-1 0 25.084704702834319 0 0 -1 0 0 0 -1 forward_v I I I I #
coedge $-1 $398 $531 $535 $544 reversed $379 $-1 #
vertex $-1 $399 $545 #
straight-curve $-1 50.571611682485425 0 5.5904127961805363 0 1 0 I I #
point $-1 50.571611682485425 -20.989660364788712 5.5904127961805363 #
face $-1 $546 $547 $18 $-1 $548 reversed single #
loop $-1 $-1 $549 $403 #
plane-surface $-1 0 -20.989660364788712 4.0904127961805363 0 -1 0 0 0 -1 forward_v I I I I #
coedge $-1 $550 $551 $552 $553 reversed $404 $-1 #
coedge $-1 $406 $554 $555 $556 forward $327 $-1 #
coedge $-1 $555 $415 $407 $486 forward $417 $-1 #
edge $-1 $557 -40.453387418936181 $488 -35.782785801183984 $485 $558 forward 7 unknown #
edge $-1 $557 8.7502459990790685e-015 $489 7.9461019817460237 $408 $559 forward 7 unknown #
vertex $-1 $486 $560 #
vertex $-1 $411 $561 #
straight-curve $-1 -55.011053752628271 -8.6462042797076997 5.5904127961805372 1 0 0 I I #
straight-curve $-1 -44.143080183569168 -5.8704890974568329 5.5904127961805337 0 -1 0 I I #
edge $-1 $413 -8.965263012662799 $557 -2.7757151822508668 $415 $562 forward 7 unknown #
point $-1 -50.571611682485425 -14.835752110119632 0.91981117842833782 #
coedge $-1 $416 $563 $564 $565 forward $417 $-1 #
face $-1 $566 $417 $18 $-1 $567 reversed single #
coedge $-1 $554 $419 $568 $569 forward $327 $-1 #
coedge $-1 $564 $549 $419 $498 reversed $481 $-1 #
edge $-1 $499 -50.571611682485425 $570 50.571611682485425 $419 $571 forward 7 unknown #
vertex $-1 $565 $572 #
straight-curve $-1 -50.571611682485425 0 5.5904127961805363 0 -1 0 I I #
face $-1 $573 $574 $19 $-1 $575 forward single #
loop $-1 $-1 $576 $424 #
plane-surface $-1 0 0 5.5904127961805363 0 0 1 1 0 0 forward_v I I I I #
coedge $-1 $577 $578 $576 $579 reversed $425 $-1 #
coedge $-1 $436 $580 $427 $506 reversed $351 $-1 #
edge $-1 $511 -7.9461019817460237 $581 -8.7502459990790685e-015 $427 $582 forward 7 unknown #
coedge $-1 $583 $584 $428 $508 forward $585 $-1 #
edge $-1 $512 35.782785801183984 $581 40.453387418936181 $507 $586 forward 7 unknown #
coedge $-1 $587 $429 $584 $588 forward $502 $-1 #
coedge $-1 $429 $576 $436 $517 forward $502 $-1 #
vertex $-1 $517 $589 #
vertex $-1 $588 $590 #
straight-curve $-1 -55.011053752628271 -14.835752110119632 5.5904127961805372 -1 0 0 I I #
vertex $-1 $431 $591 #
point $-1 -46.040610572839071 -13.067309872859079 2.2934320763563782 #
coedge $-1 $580 $436 $578 $592 reversed $351 $-1 #
edge $-1 $593 2.7757151822508668 $511 8.965263012662799 $510 $594 forward 7 unknown #
vertex $-1 $441 $595 #
straight-curve $-1 0 25.084704702834319 -5.5904127961805363 1 0 0 I I #
straight-curve $-1 -50.571611682485425 25.084704702834319 0 0 0 -1 I I #
straight-curve $-1 -50.571611682485425 0 -5.5904127961805363 0 1 0 I I #
loop $-1 $-1 $460 $452 #
plane-surface $-1 0 -25.084704702834319 0 0 1 0 0 0 1 forward_v I I I I #
coedge $-1 $596 $597 $531 $598 forward $453 $-1 #
straight-curve $-1 50.571611682485425 -20.989660364788712 2.0452063980902682 0 0 -1 I I #
straight-curve $-1 0 -20.989660364788712 2.5904127961805363 1 0 0 I I #
coedge $-1 $599 $460 $470 $541 forward $522 $-1 #
coedge $-1 $460 $599 $462 $532 reversed $522 $-1 #
vertex $-1 $541 $600 #
straight-curve $-1 0 -25.084704702834319 2.5904127961805363 -1 0 0 I I #
coedge $-1 $476 $462 $524 $598 reversed $379 $-1 #
edge $-1 $464 -2.5904127961805363 $601 5.5904127961805363 $462 $602 forward 7 unknown #
point $-1 50.571611682485425 -20.989660364788712 2.5904127961805363 #
point $-1 50.571611682485425 -25.084704702834323 2.5904127961805363 #
coedge $-1 $603 $466 $476 $544 forward $474 $-1 #
coedge $-1 $466 $603 $468 $539 reversed $474 $-1 #
straight-curve $-1 0 25.084704702834319 5.5904127961805363 -1 0 0 I I #
coedge $-1 $470 $468 $604 $605 reversed $235 $-1 #
edge $-1 $469 -5.5904127961805363 $606 5.5904127961805363 $536 $607 forward 7 unknown #
point $-1 -50.571611682485425 25.084704702834319 5.5904127961805363 #
edge $-1 $529 -2.5904127961805363 $608 5.5904127961805363 $470 $609 forward 7 unknown #
straight-curve $-1 -50.571611682485425 -11.518591266905759 2.5904127961805363 0 1 0 I I #
point $-1 -50.571611682485425 -20.989660364788712 2.5904127961805363 #
edge $-1 $477 -5.5904127961805363 $610 5.5904127961805363 $476 $611 forward 7 unknown #
point $-1 50.571611682485425 25.084704702834319 5.5904127961805363 #
face $-1 $612 $613 $18 $-1 $614 reversed single #
loop $-1 $-1 $615 $480 #
plane-surface $-1 50.571611682485425 0 0 -1 0 0 0 0 1 forward_v I I I I #
coedge $-1 $497 $616 $615 $617 reversed $481 $-1 #
coedge $-1 $618 $483 $616 $619 reversed $404 $-1 #
coedge $-1 $483 $618 $620 $621 reversed $404 $-1 #
coedge $-1 $622 $615 $483 $553 forward $547 $-1 #
edge $-1 $623 9.4710690978829533 $624 13.566113435928564 $552 $625 forward 7 unknown #
coedge $-1 $484 $496 $626 $627 forward $327 $-1 #
coedge $-1 $628 $485 $484 $556 reversed $417 $-1 #
edge $-1 $629 -25.084704702834319 $488 8.6462042797076997 $555 $500 forward 7 unknown #
vertex $-1 $492 $630 #
straight-curve $-1 -50.571611682485425 -8.6462042797076997 41.373198597364521 0 0 1 I I #
straight-curve $-1 -50.571611682485432 -8.6462042797076997 0.91981117842833271 0.80901698891910034 0 0.5877852598018023 I I #
point $-1 -50.571611682485425 -8.6462042797076997 5.5904127961805363 #
point $-1 -44.143080183569168 -8.6462042797076997 5.5904127961805363 #
straight-curve $-1 -50.571611682485425 -5.8704890974568329 0.91981117842833648 0 1 0 I I #
coedge $-1 $494 $631 $618 $632 forward $417 $-1 #
coedge $-1 $616 $497 $494 $565 reversed $481 $-1 #
edge $-1 $633 0.54520639809026816 $499 3.5452063980902682 $494 $634 forward 7 unknown #
face $-1 $-1 $635 $18 $-1 $636 reversed single #
plane-surface $-1 -50.571611682485425 0 0 1 0 0 0 0 -1 forward_v I I I I #
coedge $-1 $615 $637 $496 $569 reversed $547 $-1 #
edge $-1 $570 -20.989660364788712 $638 25.084704702834319 $568 $639 forward 7 unknown #
vertex $-1 $569 $640 #
straight-curve $-1 0 -20.989660364788712 5.5904127961805363 1 0 0 I I #
point $-1 -50.571611682485425 -20.989660364788712 5.5904127961805363 #
face $-1 $641 $642 $19 $-1 $643 forward single #
loop $-1 $-1 $644 $501 #
plane-surface $-1 0 -23.037182533811517 2.5904127961805363 0 0 1 1 0 0 forward_v I I I I #
coedge $-1 $510 $645 $504 $579 forward $502 $-1 #
coedge $-1 $578 $504 $646 $647 reversed $425 $-1 #
coedge $-1 $504 $577 $516 $592 forward $425 $-1 #
edge $-1 $648 4.4394420701428459 $593 10.867973569059103 $576 $649 forward 7 unknown #
coedge $-1 $505 $516 $583 $650 reversed $351 $-1 #
vertex $-1 $650 $651 #
straight-curve $-1 -50.571611682485432 -14.835752110119632 0.91981117842833271 -0.80901698891910034 0 -0.5877852598018023 I I #
coedge $-1 $646 $507 $580 $650 forward $585 $-1 #
coedge $-1 $507 $652 $509 $588 reversed $585 $-1 #
loop $-1 $-1 $646 $653 #
straight-curve $-1 -50.571611682485425 -14.835752110119632 41.373198597364521 0 0 -1 I I #
coedge $-1 $654 $509 $655 $656 forward $502 $-1 #
edge $-1 $512 14.835752110119632 $657 20.989660364788712 $584 $658 forward 7 unknown #
point $-1 -44.143080183569168 -14.835752110119632 5.5904127961805363 #
point $-1 -50.571611682485425 -14.835752110119632 5.5904127961805363 #
point $-1 -46.151226437397725 -13.067309872859079 1.5950309519959271 #
edge $-1 $659 8.7502459990790685e-015 $593 7.9461019817460237 $578 $660 forward 7 unknown #
vertex $-1 $517 $661 #
straight-curve $-1 -44.143080183569168 -5.8704890974568329 5.5904127961805337 0 -1 0 I I #
point $-1 -50.571611682485425 25.084704702834319 -5.5904127961805363 #
coedge $-1 $604 $524 $599 $662 forward $453 $-1 #
coedge $-1 $524 $604 $603 $663 forward $453 $-1 #
edge $-1 $610 -25.084704702834319 $601 25.084704702834319 $531 $664 forward 7 unknown #
coedge $-1 $528 $527 $596 $662 reversed $522 $-1 #
point $-1 -50.571611682485425 -25.084704702834323 2.5904127961805363 #
vertex $-1 $532 $665 #
straight-curve $-1 50.571611682485425 -25.084704702834319 0 0 0 -1 I I #
coedge $-1 $536 $535 $597 $663 reversed $474 $-1 #
coedge $-1 $597 $596 $538 $605 forward $453 $-1 #
edge $-1 $608 -25.084704702834319 $606 25.084704702834319 $538 $666 forward 7 unknown #
vertex $-1 $663 $667 #
straight-curve $-1 -50.571611682485425 25.084704702834319 0 0 0 -1 I I #
vertex $-1 $605 $668 #
straight-curve $-1 -50.571611682485425 -25.084704702834319 0 0 0 -1 I I #
vertex $-1 $598 $669 #
straight-curve $-1 50.571611682485425 25.084704702834319 0 0 0 -1 I I #
face $-1 $495 $670 $18 $-1 $671 reversed single #
loop $-1 $-1 $672 $546 #
plane-surface $-1 0 0 -5.5904127961805363 0 0 1 1 0 0 forward_v I I I I #
coedge $-1 $552 $568 $549 $617 forward $547 $-1 #
coedge $-1 $549 $564 $550 $619 forward $481 $-1 #
edge $-1 $570 -3.5452063980902682 $623 -0.54520639809026816 $615 $673 forward 7 unknown #
coedge $-1 $551 $550 $563 $632 reversed $404 $-1 #
edge $-1 $633 -50.571611682485425 $623 50.571611682485425 $616 $674 forward 7 unknown #
coedge $-1 $675 $676 $551 $621 forward $670 $-1 #
edge $-1 $624 -50.571611682485425 $677 50.571611682485425 $620 $678 forward 7 unknown #
coedge $-1 $679 $552 $676 $680 forward $547 $-1 #
vertex $-1 $553 $681 #
vertex $-1 $680 $682 #
straight-curve $-1 50.571611682485425 -11.518591266905759 2.5904127961805363 0 -1 0 I I #
coedge $-1 $683 $684 $554 $627 reversed $635 $-1 #
edge $-1 $638 -50.571611682485425 $629 50.571611682485425 $626 $685 forward 7 unknown #
coedge $-1 $686 $555 $684 $687 forward $417 $-1 #
vertex $-1 $627 $688 #
point $-1 -50.571611682485425 -8.6462042797076997 0.91981117842833782 #
coedge $-1 $563 $686 $675 $689 reversed $417 $-1 #
edge $-1 $677 -13.566113435928564 $633 -9.4710690978829533 $563 $690 forward 7 unknown #
vertex $-1 $632 $691 #
straight-curve $-1 -50.571611682485425 -20.989660364788712 2.0452063980902682 0 0 1 I I #
loop $-1 $-1 $683 $566 #
plane-surface $-1 0 25.084704702834319 0 0 -1 0 0 0 -1 forward_v I I I I #
coedge $-1 $568 $679 $683 $692 reversed $547 $-1 #
vertex $-1 $569 $693 #
straight-curve $-1 50.571611682485425 0 5.5904127961805363 0 1 0 I I #
point $-1 50.571611682485425 -20.989660364788712 5.5904127961805363 #
face $-1 $694 $695 $19 $-1 $696 reversed single #
loop $-1 $-1 $697 $573 #
plane-surface $-1 0 -20.989660364788712 4.0904127961805363 0 -1 0 0 0 -1 forward_v I I I I #
coedge $-1 $698 $699 $700 $701 reversed $574 $-1 #
coedge $-1 $576 $702 $703 $704 forward $502 $-1 #
coedge $-1 $703 $583 $577 $647 forward $585 $-1 #
edge $-1 $659 -40.453387418936181 $648 -35.782785801183984 $646 $705 forward 7 unknown #
vertex $-1 $647 $706 #
straight-curve $-1 -55.011053752628271 -8.6462042797076997 5.5904127961805372 1 0 0 I I #
edge $-1 $581 -8.965263012662799 $659 -2.7757151822508668 $583 $707 forward 7 unknown #
point $-1 -50.571611682485425 -14.835752110119632 0.91981117842833782 #
coedge $-1 $584 $708 $709 $710 forward $585 $-1 #
face $-1 $711 $585 $19 $-1 $712 reversed single #
coedge $-1 $702 $587 $713 $714 forward $502 $-1 #
coedge $-1 $709 $697 $587 $656 reversed $642 $-1 #
edge $-1 $657 -50.571611682485425 $715 50.571611682485425 $587 $716 forward 7 unknown #
vertex $-1 $710 $717 #
straight-curve $-1 -50.571611682485425 0 5.5904127961805363 0 -1 0 I I #
vertex $-1 $650 $718 #
straight-curve $-1 -50.571611682485432 -8.6462042797076997 0.91981117842833271 0.80901698891910034 0 0.5877852598018023 I I #
point $-1 -44.143080183569168 -8.6462042797076997 5.5904127961805363 #
edge $-1 $601 -50.571611682485425 $608 50.571611682485425 $599 $719 forward 7 unknown #
edge $-1 $606 -50.571611682485425 $610 50.571611682485425 $603 $720 forward 7 unknown #
straight-curve $-1 50.571611682485425 0 -5.5904127961805363 0 -1 0 I I #
point $-1 50.571611682485425 -25.084704702834319 -5.5904127961805363 #
straight-curve $-1 -50.571611682485425 0 -5.5904127961805363 0 1 0 I I #
point $-1 -50.571611682485425 25.084704702834319 -5.5904127961805363 #
point $-1 -50.571611682485425 -25.084704702834319 -5.5904127961805363 #
point $-1 50.571611682485425 25.084704702834319 -5.5904127961805363 #
loop $-1 $-1 $620 $612 #
plane-surface $-1 0 -25.084704702834319 0 0 1 0 0 0 1 forward_v I I I I #
coedge $-1 $721 $722 $679 $723 forward $613 $-1 #
straight-curve $-1 50.571611682485425 -20.989660364788712 2.0452063980902682 0 0 -1 I I #
straight-curve $-1 0 -20.989660364788712 2.5904127961805363 1 0 0 I I #
coedge $-1 $724 $620 $631 $689 forward $670 $-1 #
coedge $-1 $620 $724 $622 $680 reversed $670 $-1 #
vertex $-1 $689 $725 #
straight-curve $-1 0 -25.084704702834319 2.5904127961805363 -1 0 0 I I #
coedge $-1 $637 $622 $672 $723 reversed $547 $-1 #
edge $-1 $624 -2.5904127961805363 $726 5.5904127961805363 $622 $727 forward 7 unknown #
point $-1 50.571611682485425 -20.989660364788712 2.5904127961805363 #
point $-1 50.571611682485425 -25.084704702834323 2.5904127961805363 #
coedge $-1 $728 $626 $637 $692 forward $635 $-1 #
coedge $-1 $626 $728 $628 $687 reversed $635 $-1 #
straight-curve $-1 0 25.084704702834319 5.5904127961805363 -1 0 0 I I #
coedge $-1 $631 $628 $729 $730 reversed $417 $-1 #
edge $-1 $629 -5.5904127961805363 $731 5.5904127961805363 $684 $732 forward 7 unknown #
point $-1 -50.571611682485425 25.084704702834319 5.5904127961805363 #
edge $-1 $677 -2.5904127961805363 $733 5.5904127961805363 $631 $734 forward 7 unknown #
straight-curve $-1 -50.571611682485425 -11.518591266905759 2.5904127961805363 0 1 0 I I #
point $-1 -50.571611682485425 -20.989660364788712 2.5904127961805363 #
edge $-1 $638 -5.5904127961805363 $735 5.5904127961805363 $637 $736 forward 7 unknown #
point $-1 50.571611682485425 25.084704702834319 5.5904127961805363 #
face $-1 $737 $738 $19 $-1 $739 reversed single #
loop $-1 $-1 $740 $641 #
plane-surface $-1 50.571611682485425 0 0 -1 0 0 0 0 1 forward_v I I I I #
coedge $-1 $655 $741 $740 $742 reversed $642 $-1 #
coedge $-1 $743 $644 $741 $744 reversed $574 $-1 #
coedge $-1 $644 $743 $745 $746 reversed $574 $-1 #
coedge $-1 $747 $740 $644 $701 forward $695 $-1 #
edge $-1 $748 9.4710690978829533 $749 13.566113435928564 $700 $750 forward 7 unknown #
coedge $-1 $645 $654 $751 $752 forward $502 $-1 #
coedge $-1 $753 $646 $645 $704 reversed $585 $-1 #
edge $-1 $754 -25.084704702834319 $648 8.6462042797076997 $703 $658 forward 7 unknown #
straight-curve $-1 -50.571611682485425 -8.6462042797076997 41.373198597364521 0 0 1 I I #
point $-1 -50.571611682485425 -8.6462042797076997 5.5904127961805363 #
straight-curve $-1 -50.571611682485425 -5.8704890974568329 0.91981117842833648 0 1 0 I I #
coedge $-1 $652 $755 $743 $756 forward $585 $-1 #
coedge $-1 $741 $655 $652 $710 reversed $642 $-1 #
edge $-1 $757 0.54520639809026816 $657 3.5452063980902682 $652 $758 forward 7 unknown #
face $-1 $-1 $759 $19 $-1 $760 reversed single #
plane-surface $-1 -50.571611682485425 0 0 1 0 0 0 0 -1 forward_v I I I I #
coedge $-1 $740 $761 $654 $714 reversed $695 $-1 #
edge $-1 $715 -20.989660364788712 $762 25.084704702834319 $713 $763 forward 7 unknown #
vertex $-1 $714 $764 #
straight-curve $-1 0 -20.989660364788712 5.5904127961805363 1 0 0 I I #
point $-1 -50.571611682485425 -20.989660364788712 5.5904127961805363 #
point $-1 -50.571611682485425 -8.6462042797076997 0.91981117842833782 #
straight-curve $-1 0 -25.084704702834319 -5.5904127961805363 -1 0 0 I I #
straight-curve $-1 0 25.084704702834319 -5.5904127961805363 1 0 0 I I #
coedge $-1 $729 $672 $724 $765 forward $613 $-1 #
coedge $-1 $672 $729 $728 $766 forward $613 $-1 #
edge $-1 $735 -25.084704702834319 $726 25.084704702834319 $679 $767 forward 7 unknown #
coedge $-1 $676 $675 $721 $765 reversed $670 $-1 #
point $-1 -50.571611682485425 -25.084704702834323 2.5904127961805363 #
vertex $-1 $680 $768 #
straight-curve $-1 50.571611682485425 -25.084704702834319 0 0 0 -1 I I #
coedge $-1 $684 $683 $722 $766 reversed $635 $-1 #
coedge $-1 $722 $721 $686 $730 forward $613 $-1 #
edge $-1 $733 -25.084704702834319 $731 25.084704702834319 $686 $769 forward 7 unknown #
vertex $-1 $766 $770 #
straight-curve $-1 -50.571611682485425 25.084704702834319 0 0 0 -1 I I #
vertex $-1 $730 $771 #
straight-curve $-1 -50.571611682485425 -25.084704702834319 0 0 0 -1 I I #
vertex $-1 $723 $772 #
straight-curve $-1 50.571611682485425 25.084704702834319 0 0 0 -1 I I #
face $-1 $653 $773 $19 $-1 $774 reversed single #
loop $-1 $-1 $775 $694 #
plane-surface $-1 0 0 -5.5904127961805363 0 0 1 1 0 0 forward_v I I I I #
coedge $-1 $700 $713 $697 $742 forward $695 $-1 #
coedge $-1 $697 $709 $698 $744 forward $642 $-1 #
edge $-1 $715 -3.5452063980902682 $748 -0.54520639809026816 $740 $776 forward 7 unknown #
coedge $-1 $699 $698 $708 $756 reversed $574 $-1 #
edge $-1 $757 -50.571611682485425 $748 50.571611682485425 $741 $777 forward 7 unknown #
coedge $-1 $778 $779 $699 $746 forward $773 $-1 #
edge $-1 $749 -50.571611682485425 $780 50.571611682485425 $745 $781 forward 7 unknown #
coedge $-1 $782 $700 $779 $783 forward $695 $-1 #
vertex $-1 $701 $784 #
vertex $-1 $783 $785 #
straight-curve $-1 50.571611682485425 -11.518591266905759 2.5904127961805363 0 -1 0 I I #
coedge $-1 $786 $787 $702 $752 reversed $759 $-1 #
edge $-1 $762 -50.571611682485425 $754 50.571611682485425 $751 $788 forward 7 unknown #
coedge $-1 $789 $703 $787 $790 forward $585 $-1 #
vertex $-1 $752 $791 #
coedge $-1 $708 $789 $778 $792 reversed $585 $-1 #
edge $-1 $780 -13.566113435928564 $757 -9.4710690978829533 $708 $793 forward 7 unknown #
vertex $-1 $756 $794 #
straight-curve $-1 -50.571611682485425 -20.989660364788712 2.0452063980902682 0 0 1 I I #
loop $-1 $-1 $786 $711 #
plane-surface $-1 0 25.084704702834319 0 0 -1 0 0 0 -1 forward_v I I I I #
coedge $-1 $713 $782 $786 $795 reversed $695 $-1 #
vertex $-1 $714 $796 #
straight-curve $-1 50.571611682485425 0 5.5904127961805363 0 1 0 I I #
point $-1 50.571611682485425 -20.989660364788712 5.5904127961805363 #
edge $-1 $726 -50.571611682485425 $733 50.571611682485425 $724 $797 forward 7 unknown #
edge $-1 $731 -50.571611682485425 $735 50.571611682485425 $728 $798 forward 7 unknown #
straight-curve $-1 50.571611682485425 0 -5.5904127961805363 0 -1 0 I I #
point $-1 50.571611682485425 -25.084704702834319 -5.5904127961805363 #
straight-curve $-1 -50.571611682485425 0 -5.5904127961805363 0 1 0 I I #
point $-1 -50.571611682485425 25.084704702834319 -5.5904127961805363 #
point $-1 -50.571611682485425 -25.084704702834319 -5.5904127961805363 #
point $-1 50.571611682485425 25.084704702834319 -5.5904127961805363 #
loop $-1 $-1 $745 $737 #
plane-surface $-1 0 -25.084704702834319 0 0 1 0 0 0 1 forward_v I I I I #
coedge $-1 $799 $800 $782 $801 forward $738 $-1 #
straight-curve $-1 50.571611682485425 -20.989660364788712 2.0452063980902682 0 0 -1 I I #
straight-curve $-1 0 -20.989660364788712 2.5904127961805363 1 0 0 I I #
coedge $-1 $802 $745 $755 $792 forward $773 $-1 #
coedge $-1 $745 $802 $747 $783 reversed $773 $-1 #
vertex $-1 $792 $803 #
straight-curve $-1 0 -25.084704702834319 2.5904127961805363 -1 0 0 I I #
coedge $-1 $761 $747 $775 $801 reversed $695 $-1 #
edge $-1 $749 -2.5904127961805363 $804 5.5904127961805363 $747 $805 forward 7 unknown #
point $-1 50.571611682485425 -20.989660364788712 2.5904127961805363 #
point $-1 50.571611682485425 -25.084704702834323 2.5904127961805363 #
coedge $-1 $806 $751 $761 $795 forward $759 $-1 #
coedge $-1 $751 $806 $753 $790 reversed $759 $-1 #
straight-curve $-1 0 25.084704702834319 5.5904127961805363 -1 0 0 I I #
coedge $-1 $755 $753 $807 $808 reversed $585 $-1 #
edge $-1 $754 -5.5904127961805363 $809 5.5904127961805363 $787 $810 forward 7 unknown #
point $-1 -50.571611682485425 25.084704702834319 5.5904127961805363 #
edge $-1 $780 -2.5904127961805363 $811 5.5904127961805363 $755 $812 forward 7 unknown #
straight-curve $-1 -50.571611682485425 -11.518591266905759 2.5904127961805363 0 1 0 I I #
point $-1 -50.571611682485425 -20.989660364788712 2.5904127961805363 #
edge $-1 $762 -5.5904127961805363 $813 5.5904127961805363 $761 $814 forward 7 unknown #
point $-1 50.571611682485425 25.084704702834319 5.5904127961805363 #
straight-curve $-1 0 -25.084704702834319 -5.5904127961805363 -1 0 0 I I #
straight-curve $-1 0 25.084704702834319 -5.5904127961805363 1 0 0 I I #
coedge $-1 $807 $775 $802 $815 forward $738 $-1 #
coedge $-1 $775 $807 $806 $816 forward $738 $-1 #
edge $-1 $813 -25.084704702834319 $804 25.084704702834319 $782 $817 forward 7 unknown #
coedge $-1 $779 $778 $799 $815 reversed $773 $-1 #
point $-1 -50.571611682485425 -25.084704702834323 2.5904127961805363 #
vertex $-1 $783 $818 #
straight-curve $-1 50.571611682485425 -25.084704702834319 0 0 0 -1 I I #
coedge $-1 $787 $786 $800 $816 reversed $759 $-1 #
coedge $-1 $800 $799 $789 $808 forward $738 $-1 #
edge $-1 $811 -25.084704702834319 $809 25.084704702834319 $789 $819 forward 7 unknown #
vertex $-1 $816 $820 #
straight-curve $-1 -50.571611682485425 25.084704702834319 0 0 0 -1 I I #
vertex $-1 $808 $821 #
straight-curve $-1 -50.571611682485425 -25.084704702834319 0 0 0 -1 I I #
vertex $-1 $801 $822 #
straight-curve $-1 50.571611682485425 25.084704702834319 0 0 0 -1 I I #
edge $-1 $804 -50.571611682485425 $811 50.571611682485425 $802 $823 forward 7 unknown #
edge $-1 $809 -50.571611682485425 $813 50.571611682485425 $806 $824 forward 7 unknown #
straight-curve $-1 50.571611682485425 0 -5.5904127961805363 0 -1 0 I I #
point $-1 50.571611682485425 -25.084704702834319 -5.5904127961805363 #
straight-curve $-1 -50.571611682485425 0 -5.5904127961805363 0 1 0 I I #
point $-1 -50.571611682485425 25.084704702834319 -5.5904127961805363 #
point $-1 -50.571611682485425 -25.084704702834319 -5.5904127961805363 #
point $-1 50.571611682485425 25.084704702834319 -5.5904127961805363 #
straight-curve $-1 0 -25.084704702834319 -5.5904127961805363 -1 0 0 I I #
straight-curve $-1 0 25.084704702834319 -5.5904127961805363 1 0 0 I I #
End-of-ACIS-data 