500 0 9 0           
7 Unknown 11 ACIS 5.0 NT 24 Fri Mar 26 15:13:53 1999 
-1 9.9999999999999995e-007 1e-010 
body $-1 $9 $-1 $10 #
body $-1 $11 $-1 $12 #
body $-1 $13 $-1 $14 #
body $-1 $15 $-1 $16 #
body $-1 $17 $-1 $18 #
body $-1 $19 $-1 $20 #
body $-1 $21 $-1 $22 #
body $-1 $23 $-1 $24 #
body $-1 $25 $-1 $26 #
lump $-1 $-1 $27 $0 #
transform $-1 1 0 0 0 1 0 0 0 1 69.75066377758111 44.256878121297511 17.557015686847567 1 rotate no_reflect no_shear #
lump $-1 $-1 $28 $1 #
transform $-1 1 0 0 0 1 0 0 0 1 69.75066377758111 44.256878121297511 17.557015686847567 1 rotate no_reflect no_shear #
lump $-1 $-1 $29 $2 #
transform $-1 1 0 0 0 1 0 0 0 1 69.75066377758111 44.256878121297511 17.557015686847567 1 rotate no_reflect no_shear #
lump $-1 $-1 $30 $3 #
transform $-1 1 0 0 0 1 0 0 0 1 69.75066377758111 44.256878121297511 17.557015686847567 1 rotate no_reflect no_shear #
lump $-1 $-1 $31 $4 #
transform $-1 1 0 0 0 1 0 0 0 1 69.75066377758111 44.256878121297511 17.557015686847567 1 rotate no_reflect no_shear #
lump $-1 $-1 $32 $5 #
transform $-1 1 0 0 0 1 0 0 0 1 69.75066377758111 44.256878121297511 17.557015686847567 1 rotate no_reflect no_shear #
lump $-1 $-1 $33 $6 #
transform $-1 1 0 0 0 1 0 0 0 1 69.75066377758111 44.256878121297511 17.557015686847567 1 rotate no_reflect no_shear #
lump $-1 $-1 $34 $7 #
transform $-1 1 0 0 0 1 0 0 0 1 69.75066377758111 44.256878121297511 17.557015686847567 1 rotate no_reflect no_shear #
lump $-1 $-1 $35 $8 #
transform $-1 1 0 0 0 1 0 0 0 1 69.75066377758111 44.256878121297511 17.557015686847567 1 rotate no_reflect no_shear #
shell $-1 $-1 $-1 $36 $-1 $9 #
shell $-1 $-1 $-1 $37 $-1 $11 #
shell $-1 $-1 $-1 $38 $-1 $13 #
shell $-1 $-1 $-1 $39 $-1 $15 #
shell $-1 $-1 $-1 $40 $-1 $17 #
shell $-1 $-1 $-1 $41 $-1 $19 #
shell $-1 $-1 $-1 $42 $-1 $21 #
shell $-1 $-1 $-1 $43 $-1 $23 #
shell $-1 $-1 $-1 $44 $-1 $25 #
face $-1 $45 $46 $27 $-1 $47 forward single #
face $-1 $48 $49 $28 $-1 $50 forward single #
face $-1 $51 $52 $29 $-1 $53 reversed single #
face $-1 $54 $55 $30 $-1 $56 forward single #
face $-1 $57 $58 $31 $-1 $59 reversed single #
face $-1 $60 $61 $32 $-1 $62 forward single #
face $-1 $63 $64 $33 $-1 $65 reversed single #
face $-1 $66 $67 $34 $-1 $68 forward single #
face $-1 $69 $70 $35 $-1 $71 forward single #
face $-1 $72 $73 $27 $-1 $74 reversed single #
loop $-1 $-1 $75 $36 #
plane-surface $-1 0 0 17.557015686847567 0 0 1 1 0 0 forward_v I I I I #
face $-1 $76 $77 $28 $-1 $78 reversed single #
loop $-1 $-1 $79 $37 #
plane-surface $-1 0 -44.256878121297511 0 0 1 0 0 0 1 forward_v I I I I #
face $-1 $80 $81 $29 $-1 $82 reversed single #
loop $-1 $-1 $83 $38 #
plane-surface $-1 -147.75881718502308 -10.187192699958143 120.14551521093776 0 1 0 -0.55919291073839883 0 0.82903756765294845 forward_v I I I I #
face $-1 $84 $85 $30 $-1 $86 forward single #
loop $-1 $87 $88 $39 #
cone-surface $-1 -59.325011405251779 -5.4339790169649405 9.925207123783478 0.55919291073839883 0 -0.82903756765294845 1.2435563514794228 0 0.83878936610759824 1 I I 0 1 1.5 forward I I I I #
face $-1 $89 $90 $31 $-1 $91 reversed single #
loop $-1 $-1 $92 $40 #
plane-surface $-1 -147.75881718502308 26.892264673301074 120.14551521093776 0 1 0 -0.55919291073839883 0 0.82903756765294845 forward_v I I I I #
face $-1 $93 $94 $32 $-1 $95 forward single #
loop $-1 $96 $97 $41 #
cone-surface $-1 -59.325011405251779 31.645478356294284 9.925207123783478 0.55919291073839883 0 -0.82903756765294845 1.2435563514794228 0 0.83878936610759824 1 I I 0 1 1.5 forward I I I I #
face $-1 $98 $99 $33 $-1 $100 reversed single #
loop $-1 $-1 $101 $42 #
plane-surface $-1 52.556173910439497 -17.213984333959289 208.71284220423146 0 -1 0 -0.64278761758704617 0 -0.76604443648966558 forward_v I I I I #
face $-1 $102 $103 $34 $-1 $104 forward single #
loop $-1 $105 $106 $43 #
cone-surface $-1 65.988201826276594 -23.817897300205871 14.203236154129954 -0.64278761758704617 0 -0.76604443648966558 0.76604443648966558 0 -0.64278761758704617 1 I I 0 1 1 forward I I I I #
face $-1 $107 $108 $35 $-1 $109 forward single #
loop $-1 $110 $111 $44 #
cone-surface $-1 65.988201826276594 -19.85554952045792 14.203236154129954 -0.64278761758704617 0 -0.76604443648966558 0.76604443648966558 0 -0.64278761758704617 1 I I 0 1 1 forward I I I I #
face $-1 $112 $113 $27 $-1 $114 reversed single #
loop $-1 $-1 $115 $45 #
plane-surface $-1 0 0 -17.557015686847567 0 0 1 1 0 0 forward_v I I I I #
coedge $-1 $116 $117 $118 $119 forward $46 $-1 #
face $-1 $120 $121 $28 $-1 $122 reversed single #
loop $-1 $-1 $123 $48 #
plane-surface $-1 0 0 -17.557015686847567 0 0 1 1 0 0 forward_v I I I I #
coedge $-1 $124 $125 $126 $127 forward $49 $-1 #
face $-1 $128 $129 $29 $-1 $130 reversed single #
loop $-1 $-1 $131 $51 #
plane-surface $-1 -69.75066377758111 -5.4339790169649476 4.493673930248832 -0.55919291073839883 0 0.82903756765294845 0.82903756765294845 0 0.55919291073839883 forward_v I I I I #
coedge $-1 $132 $133 $134 $135 reversed $52 $-1 #
face $-1 $-1 $136 $30 $-1 $137 forward single #
loop $-1 $138 $139 $54 #
cone-surface $-1 -58.163564470092901 -5.4339790169649405 8.2032912632790485 0.55919291073839883 0 -0.82903756765294845 0.62177817573971139 0 0.41939468305379912 1 I I -0.70710678118654757 0.70710678118654757 0.75 forward I I I I #
loop $-1 $-1 $140 $39 #
coedge $-1 $88 $88 $141 $142 reversed $55 $-1 #
face $-1 $143 $144 $31 $-1 $145 reversed single #
loop $-1 $-1 $146 $57 #
plane-surface $-1 -69.75066377758111 31.645478356294269 4.493673930248832 -0.55919291073839883 0 0.82903756765294845 0.82903756765294845 0 0.55919291073839883 forward_v I I I I #
coedge $-1 $147 $148 $149 $150 reversed $58 $-1 #
face $-1 $-1 $151 $32 $-1 $152 forward single #
loop $-1 $153 $154 $60 #
cone-surface $-1 -58.163564470092901 31.645478356294284 8.2032912632790485 0.55919291073839883 0 -0.82903756765294845 0.62177817573971139 0 0.41939468305379912 1 I I -0.70710678118654757 0.70710678118654757 0.75 forward I I I I #
loop $-1 $-1 $155 $41 #
coedge $-1 $97 $97 $156 $157 reversed $61 $-1 #
face $-1 $158 $159 $33 $-1 $160 reversed single #
loop $-1 $-1 $161 $63 #
plane-surface $-1 -37.113552078973385 -21.836723410331899 101.84862634767697 0.64278761758704617 0 0.76604443648966558 0.76604443648966558 0 -0.64278761758704617 forward_v I I I I #
coedge $-1 $162 $163 $164 $165 reversed $64 $-1 #
face $-1 $-1 $166 $34 $-1 $167 forward single #
loop $-1 $168 $169 $66 #
cone-surface $-1 65.109040131169024 -23.817897300205871 13.155492067459246 -0.64278761758704617 0 -0.76604443648966558 0.38302221824483279 0 -0.32139380879352308 1 I I -0.70710678118654746 0.70710678118654746 0.5 forward I I I I #
loop $-1 $-1 $170 $43 #
coedge $-1 $106 $106 $171 $172 reversed $67 $-1 #
face $-1 $-1 $173 $35 $-1 $174 forward single #
loop $-1 $175 $176 $69 #
cone-surface $-1 65.109040131169024 -19.85554952045792 13.155492067459246 -0.64278761758704617 0 -0.76604443648966558 0.38302221824483279 0 -0.32139380879352308 1 I I -0.70710678118654746 0.70710678118654746 0.5 forward I I I I #
loop $-1 $-1 $177 $44 #
coedge $-1 $111 $111 $178 $179 reversed $70 $-1 #
face $-1 $180 $181 $27 $-1 $182 reversed single #
loop $-1 $-1 $183 $72 #
plane-surface $-1 0 -44.256878121297511 0 0 1 0 0 0 1 forward_v I I I I #
coedge $-1 $184 $185 $186 $187 forward $73 $-1 #
coedge $-1 $188 $75 $189 $190 forward $46 $-1 #
coedge $-1 $75 $188 $191 $192 forward $46 $-1 #
coedge $-1 $193 $194 $75 $119 reversed $195 $-1 #
edge $-1 $196 -44.256878121297511 $197 44.256878121297511 $118 $198 forward 7 unknown #
face $-1 $199 $200 $28 $-1 $201 forward single #
loop $-1 $-1 $202 $76 #
plane-surface $-1 69.75066377758111 0 0 -1 0 0 0 0 1 forward_v I I I I #
coedge $-1 $203 $204 $205 $206 forward $77 $-1 #
coedge $-1 $205 $79 $202 $207 reversed $49 $-1 #
coedge $-1 $79 $205 $208 $209 reversed $49 $-1 #
coedge $-1 $210 $211 $79 $127 reversed $200 $-1 #
edge $-1 $212 -69.75066377758111 $213 69.75066377758111 $126 $214 forward 7 unknown #
face $-1 $215 $216 $29 $-1 $217 forward single #
loop $-1 $-1 $218 $80 #
plane-surface $-1 -147.75881718502308 -0.68076533397175254 120.14551521093776 0 -1 0 0.55919291073839883 0 -0.82903756765294845 forward_v I I I I #
coedge $-1 $219 $220 $221 $222 reversed $81 $-1 #
coedge $-1 $133 $83 $223 $224 reversed $52 $-1 #
coedge $-1 $83 $132 $219 $225 reversed $52 $-1 #
coedge $-1 $221 $226 $83 $135 forward $216 $-1 #
edge $-1 $227 4.1287448149304282 $228 23.495945055378925 $134 $229 forward 7 unknown #
loop $-1 $-1 $141 $84 #
plane-surface $-1 -69.75066377758111 -5.4339790169649476 4.493673930248832 -0.55919291073839883 0 0.82903756765294845 0.82903756765294845 0 0.55919291073839883 forward_v I I I I #
loop $-1 $-1 $230 $54 #
coedge $-1 $139 $139 $140 $231 reversed $85 $-1 #
coedge $-1 $140 $140 $139 $231 forward $87 $-1 #
coedge $-1 $141 $141 $88 $142 forward $136 $-1 #
edge $-1 $232 0 $232 6.2831853071796004 $141 $233 forward 7 unknown #
face $-1 $234 $235 $31 $-1 $236 forward single #
loop $-1 $-1 $237 $89 #
plane-surface $-1 -147.75881718502308 36.398692039287468 120.14551521093776 0 -1 0 0.55919291073839883 0 -0.82903756765294845 forward_v I I I I #
coedge $-1 $238 $239 $240 $241 reversed $90 $-1 #
coedge $-1 $148 $92 $242 $243 reversed $58 $-1 #
coedge $-1 $92 $147 $238 $244 reversed $58 $-1 #
coedge $-1 $240 $245 $92 $150 forward $235 $-1 #
edge $-1 $246 4.1287448149304282 $247 23.495945055378925 $149 $248 forward 7 unknown #
loop $-1 $-1 $156 $93 #
plane-surface $-1 -69.75066377758111 31.645478356294269 4.493673930248832 -0.55919291073839883 0 0.82903756765294845 0.82903756765294845 0 0.55919291073839883 forward_v I I I I #
loop $-1 $-1 $249 $60 #
coedge $-1 $154 $154 $155 $250 reversed $94 $-1 #
coedge $-1 $155 $155 $154 $250 forward $96 $-1 #
coedge $-1 $156 $156 $97 $157 forward $151 $-1 #
edge $-1 $251 0 $251 6.2831853071796004 $156 $252 forward 7 unknown #
face $-1 $253 $254 $33 $-1 $255 reversed single #
loop $-1 $-1 $256 $98 #
plane-surface $-1 52.556173910439497 -26.45946248670451 208.71284220423146 0 1 0 0.64278761758704617 0 0.76604443648966558 forward_v I I I I #
coedge $-1 $257 $258 $259 $260 reversed $99 $-1 #
coedge $-1 $163 $101 $261 $262 reversed $64 $-1 #
coedge $-1 $101 $162 $257 $263 reversed $64 $-1 #
coedge $-1 $259 $264 $101 $165 forward $265 $-1 #
edge $-1 $266 -43.472576822361361 $267 -37.063188692380393 $164 $268 forward 7 unknown #
loop $-1 $-1 $171 $102 #
plane-surface $-1 -37.113552078973385 -21.836723410331899 101.84862634767697 0.64278761758704617 0 0.76604443648966558 0.76604443648966558 0 -0.64278761758704617 forward_v I I I I #
loop $-1 $-1 $269 $66 #
coedge $-1 $169 $169 $170 $270 reversed $103 $-1 #
coedge $-1 $170 $170 $169 $270 forward $105 $-1 #
coedge $-1 $171 $171 $106 $172 forward $166 $-1 #
edge $-1 $271 0 $271 6.2831853071796004 $171 $272 forward 7 unknown #
loop $-1 $-1 $178 $107 #
plane-surface $-1 -37.113552078973385 -21.836723410331899 101.84862634767697 0.64278761758704617 0 0.76604443648966558 0.76604443648966558 0 -0.64278761758704617 forward_v I I I I #
loop $-1 $-1 $273 $69 #
coedge $-1 $176 $176 $177 $274 reversed $108 $-1 #
coedge $-1 $177 $177 $176 $274 forward $110 $-1 #
coedge $-1 $178 $178 $111 $179 forward $173 $-1 #
edge $-1 $275 0 $275 6.2831853071796004 $178 $276 forward 7 unknown #
face $-1 $277 $278 $27 $-1 $279 reversed single #
loop $-1 $-1 $280 $112 #
plane-surface $-1 -69.75066377758111 0 0 1 0 0 0 0 -1 forward_v I I I I #
coedge $-1 $191 $281 $193 $282 reversed $113 $-1 #
coedge $-1 $283 $115 $281 $284 forward $73 $-1 #
coedge $-1 $115 $283 $285 $286 forward $73 $-1 #
coedge $-1 $194 $193 $115 $187 reversed $195 $-1 #
edge $-1 $287 -44.256878121297511 $288 44.256878121297511 $186 $289 forward 7 unknown #
coedge $-1 $117 $116 $290 $291 forward $46 $-1 #
coedge $-1 $292 $293 $116 $190 reversed $278 $-1 #
edge $-1 $197 -69.75066377758111 $294 69.75066377758111 $189 $295 forward 7 unknown #
coedge $-1 $296 $183 $117 $192 reversed $113 $-1 #
edge $-1 $297 -69.75066377758111 $196 69.75066377758111 $191 $298 forward 7 unknown #
coedge $-1 $186 $118 $183 $282 forward $195 $-1 #
coedge $-1 $118 $186 $292 $299 reversed $195 $-1 #
loop $-1 $-1 $193 $277 #
vertex $-1 $119 $300 #
vertex $-1 $119 $301 #
straight-curve $-1 69.75066377758111 0 17.557015686847567 0 1 0 I I #
face $-1 $302 $303 $28 $-1 $304 reversed single #
loop $-1 $-1 $211 $120 #
plane-surface $-1 0 -51.434298869335798 -8.7166213322439141 0 0 1 1 0 0 forward_v I I I I #
coedge $-1 $305 $306 $124 $207 forward $121 $-1 #
coedge $-1 $307 $123 $306 $308 forward $77 $-1 #
coedge $-1 $123 $307 $309 $310 forward $77 $-1 #
coedge $-1 $125 $124 $123 $206 reversed $49 $-1 #
edge $-1 $311 -69.75066377758111 $312 69.75066377758111 $123 $313 forward 7 unknown #
edge $-1 $312 -17.557015686847567 $213 -8.7166213322439141 $202 $314 forward 7 unknown #
coedge $-1 $309 $315 $125 $209 forward $316 $-1 #
edge $-1 $212 8.7166213322439141 $311 17.557015686847567 $208 $317 forward 7 unknown #
coedge $-1 $318 $126 $315 $319 forward $200 $-1 #
coedge $-1 $126 $318 $305 $320 forward $200 $-1 #
vertex $-1 $209 $321 #
vertex $-1 $320 $322 #
straight-curve $-1 0 -44.256878121297511 -8.7166213322439141 1 0 0 I I #
face $-1 $-1 $323 $29 $-1 $324 reversed single #
loop $-1 $-1 $134 $128 #
plane-surface $-1 0 0 17.557015686847567 0 0 1 1 0 0 forward_v I I I I #
coedge $-1 $325 $326 $327 $328 reversed $129 $-1 #
coedge $-1 $329 $131 $133 $225 forward $81 $-1 #
coedge $-1 $131 $329 $325 $330 forward $81 $-1 #
coedge $-1 $327 $134 $131 $222 forward $216 $-1 #
edge $-1 $228 -7.4702031914756688 $331 2.0362241745107212 $221 $332 forward 7 unknown #
coedge $-1 $333 $334 $132 $224 forward $323 $-1 #
edge $-1 $335 -55.579083675220048 $227 -42.515741918621316 $223 $336 forward 7 unknown #
edge $-1 $228 -23.361064680431934 $335 0 $133 $337 forward 7 unknown #
coedge $-1 $134 $327 $333 $338 forward $216 $-1 #
vertex $-1 $224 $339 #
vertex $-1 $135 $340 #
straight-curve $-1 -73.879408592511538 -10.187192699958143 17.557015686847564 1 0 0 I I #
coedge $-1 $230 $230 $-1 $341 reversed $138 $-1 #
edge $-1 $342 0 $342 6.2831853071796004 $139 $343 forward 7 unknown #
vertex $-1 $142 $344 #
ellipse-curve $-1 -60.067063657356861 -5.4339790169649405 11.025344808548201 -0.55919291073839883 0 0.82903756765294845 1.2435563514794228 0 0.83878936610759824 1 I I #
face $-1 $-1 $345 $31 $-1 $346 reversed single #
loop $-1 $-1 $149 $143 #
plane-surface $-1 0 0 17.557015686847567 0 0 1 1 0 0 forward_v I I I I #
coedge $-1 $347 $348 $349 $350 reversed $144 $-1 #
coedge $-1 $351 $146 $148 $244 forward $90 $-1 #
coedge $-1 $146 $351 $347 $352 forward $90 $-1 #
coedge $-1 $349 $149 $146 $241 forward $235 $-1 #
edge $-1 $247 11.06952549515394 $353 20.575952861140333 $240 $354 forward 7 unknown #
coedge $-1 $355 $356 $147 $243 forward $345 $-1 #
edge $-1 $357 -55.579083675220048 $246 -42.515741918621316 $242 $358 forward 7 unknown #
edge $-1 $247 -23.361064680431934 $357 0 $148 $359 forward 7 unknown #
coedge $-1 $149 $349 $355 $360 forward $235 $-1 #
vertex $-1 $150 $361 #
vertex $-1 $150 $362 #
straight-curve $-1 -73.879408592511538 26.892264673301074 17.557015686847564 1 0 0 I I #
coedge $-1 $249 $249 $-1 $363 reversed $153 $-1 #
edge $-1 $364 0 $364 6.2831853071796004 $154 $365 forward 7 unknown #
vertex $-1 $157 $366 #
ellipse-curve $-1 -60.067063657356861 31.645478356294284 11.025344808548201 -0.55919291073839883 0 0.82903756765294845 1.2435563514794228 0 0.83878936610759824 1 I I #
face $-1 $-1 $265 $33 $-1 $367 forward single #
loop $-1 $-1 $368 $158 #
plane-surface $-1 69.75066377758111 0 0 -1 0 0 0 0 1 forward_v I I I I #
coedge $-1 $369 $370 $371 $372 reversed $159 $-1 #
coedge $-1 $373 $161 $163 $263 forward $99 $-1 #
coedge $-1 $161 $373 $369 $374 forward $99 $-1 #
coedge $-1 $371 $164 $161 $260 forward $265 $-1 #
edge $-1 $267 6.295622628793339 $375 15.54110078153856 $259 $376 forward 7 unknown #
coedge $-1 $377 $378 $162 $262 forward $254 $-1 #
edge $-1 $379 -92.177520743851645 $266 -86.799405415268168 $261 $380 forward 7 unknown #
edge $-1 $267 131.13446549771885 $379 139.50132755516222 $163 $381 forward 7 unknown #
coedge $-1 $164 $371 $377 $382 forward $265 $-1 #
loop $-1 $-1 $371 $253 #
vertex $-1 $262 $383 #
vertex $-1 $165 $384 #
straight-curve $-1 26.278086955219749 -17.213984333959289 17.557015686847564 -1 0 0 I I #
coedge $-1 $269 $269 $-1 $385 reversed $168 $-1 #
edge $-1 $386 0 $386 6.2831853071796004 $169 $387 forward 7 unknown #
vertex $-1 $172 $388 #
ellipse-curve $-1 66.545969712590633 -23.817897300205871 14.867958022555822 0.64278761758704617 0 0.76604443648966558 0.76604443648966558 0 -0.64278761758704617 1 I I #
coedge $-1 $273 $273 $-1 $389 reversed $175 $-1 #
edge $-1 $390 0 $390 6.2831853071796004 $176 $391 forward 7 unknown #
vertex $-1 $179 $392 #
ellipse-curve $-1 66.545969712590633 -19.85554952045792 14.867958022555822 0.64278761758704617 0 0.76604443648966558 0.76604443648966558 0 -0.64278761758704617 1 I I #
face $-1 $-1 $195 $27 $-1 $393 reversed single #
loop $-1 $-1 $292 $180 #
plane-surface $-1 0 44.256878121297511 0 0 -1 0 0 0 -1 forward_v I I I I #
coedge $-1 $394 $290 $293 $395 forward $181 $-1 #
coedge $-1 $183 $296 $184 $284 reversed $113 $-1 #
edge $-1 $196 -17.557015686847567 $288 17.557015686847567 $193 $396 forward 7 unknown #
coedge $-1 $185 $184 $394 $397 forward $73 $-1 #
edge $-1 $288 -69.75066377758111 $398 69.75066377758111 $281 $399 forward 7 unknown #
coedge $-1 $293 $292 $185 $286 reversed $278 $-1 #
edge $-1 $400 -69.75066377758111 $287 69.75066377758111 $285 $401 forward 7 unknown #
vertex $-1 $187 $402 #
vertex $-1 $282 $403 #
straight-curve $-1 69.75066377758111 0 -17.557015686847567 0 -1 0 I I #
coedge $-1 $280 $404 $188 $291 reversed $181 $-1 #
edge $-1 $294 -44.256878121297511 $297 44.256878121297511 $290 $405 forward 7 unknown #
coedge $-1 $285 $189 $194 $299 forward $278 $-1 #
coedge $-1 $189 $285 $280 $395 reversed $278 $-1 #
vertex $-1 $190 $406 #
straight-curve $-1 0 44.256878121297511 17.557015686847567 -1 0 0 I I #
coedge $-1 $281 $191 $404 $407 forward $113 $-1 #
vertex $-1 $291 $408 #
straight-curve $-1 0 -44.256878121297511 17.557015686847567 1 0 0 I I #
edge $-1 $197 -17.557015686847567 $287 17.557015686847567 $194 $409 forward 7 unknown #
point $-1 69.75066377758111 -44.256878121297511 17.557015686847567 #
point $-1 69.75066377758111 44.256878121297511 17.557015686847567 #
face $-1 $-1 $316 $28 $-1 $410 reversed single #
loop $-1 $-1 $411 $199 #
plane-surface $-1 0 -58.611719617374085 -13.136818509545741 0 1 0 0 0 1 forward_v I I I I #
coedge $-1 $412 $202 $211 $320 reversed $121 $-1 #
coedge $-1 $202 $412 $203 $308 reversed $121 $-1 #
coedge $-1 $204 $203 $413 $414 forward $77 $-1 #
edge $-1 $312 44.256878121297511 $415 58.611719617374085 $306 $416 forward 7 unknown #
coedge $-1 $417 $208 $204 $310 reversed $316 $-1 #
edge $-1 $418 -58.611719617374085 $311 -44.256878121297511 $309 $419 forward 7 unknown #
vertex $-1 $209 $420 #
vertex $-1 $308 $421 #
straight-curve $-1 0 -44.256878121297511 -17.557015686847567 1 0 0 I I #
straight-curve $-1 69.75066377758111 -44.256878121297511 0 0 0 1 I I #
coedge $-1 $208 $417 $210 $319 reversed $316 $-1 #
loop $-1 $-1 $208 $302 #
straight-curve $-1 -69.75066377758111 -44.256878121297511 0 0 0 -1 I I #
coedge $-1 $211 $210 $422 $423 forward $200 $-1 #
edge $-1 $212 -7.177420748038287 $424 7.177420748038287 $315 $425 forward 7 unknown #
edge $-1 $426 -7.177420748038287 $213 7.177420748038287 $305 $427 forward 7 unknown #
point $-1 -69.75066377758111 -44.256878121297511 -8.7166213322439141 #
point $-1 69.75066377758111 -44.256878121297511 -8.7166213322439141 #
loop $-1 $-1 $223 $215 #
plane-surface $-1 -69.75066377758111 0 0 1 0 0 0 0 -1 forward_v I I I I #
coedge $-1 $326 $218 $220 $330 reversed $129 $-1 #
coedge $-1 $218 $325 $428 $429 reversed $129 $-1 #
coedge $-1 $226 $221 $218 $328 forward $216 $-1 #
edge $-1 $331 -23.495945055378925 $430 -4.1287448149304282 $327 $431 forward 7 unknown #
coedge $-1 $220 $219 $334 $432 reversed $81 $-1 #
edge $-1 $433 0 $331 23.361064680431934 $325 $434 forward 7 unknown #
vertex $-1 $222 $435 #
straight-curve $-1 -50.383463537132613 -2.7169895084824738 17.557015686847567 0 1 0 I I #
coedge $-1 $428 $223 $226 $338 reversed $323 $-1 #
coedge $-1 $223 $428 $329 $432 forward $323 $-1 #
vertex $-1 $224 $436 #
straight-curve $-1 -69.75066377758111 -10.187192699958143 60.07275760546888 0 0 1 I I #
straight-curve $-1 -69.75066377758111 -10.187192699958143 4.493673930248832 -0.82903756765294845 0 -0.55919291073839883 I I #
edge $-1 $430 0.68076533397175254 $227 10.187192699958143 $333 $437 forward 7 unknown #
point $-1 -69.75066377758111 -10.187192699958143 17.557015686847567 #
point $-1 -50.383463537132613 -10.187192699958143 17.557015686847567 #
edge $-1 $438 1 $438 0 $230 $-1 forward 7 unknown #
vertex $-1 $231 $439 #
ellipse-curve $-1 -58.582959153146703 -5.4339790169649405 8.8250694390187601 -0.55919291073839883 0 0.82903756765294845 1.2435563514794228 0 0.83878936610759824 1 I I #
point $-1 -58.823507305877435 -5.4339790169649405 11.864134174655794 #
loop $-1 $-1 $242 $234 #
plane-surface $-1 -69.75066377758111 0 0 1 0 0 0 0 -1 forward_v I I I I #
coedge $-1 $348 $237 $239 $352 reversed $144 $-1 #
coedge $-1 $237 $347 $440 $441 reversed $144 $-1 #
coedge $-1 $245 $240 $237 $350 forward $235 $-1 #
edge $-1 $353 -23.495945055378925 $442 -4.1287448149304282 $349 $443 forward 7 unknown #
coedge $-1 $239 $238 $356 $444 reversed $90 $-1 #
edge $-1 $445 0 $353 23.361064680431934 $347 $446 forward 7 unknown #
vertex $-1 $241 $447 #
straight-curve $-1 -50.383463537132613 15.822739178147135 17.557015686847567 0 1 0 I I #
coedge $-1 $440 $242 $245 $360 reversed $345 $-1 #
coedge $-1 $242 $440 $351 $444 forward $345 $-1 #
vertex $-1 $243 $448 #
straight-curve $-1 -69.75066377758111 26.892264673301074 60.07275760546888 0 0 1 I I #
straight-curve $-1 -69.75066377758111 26.892264673301074 4.493673930248832 -0.82903756765294845 0 -0.55919291073839883 I I #
edge $-1 $442 -36.398692039287468 $246 -26.892264673301074 $355 $449 forward 7 unknown #
point $-1 -69.75066377758111 26.892264673301074 17.557015686847567 #
point $-1 -50.383463537132613 26.892264673301074 17.557015686847567 #
edge $-1 $450 1 $450 0 $249 $-1 forward 7 unknown #
vertex $-1 $250 $451 #
ellipse-curve $-1 -58.582959153146703 31.645478356294284 8.8250694390187601 -0.55919291073839883 0 0.82903756765294845 1.2435563514794228 0 0.83878936610759824 1 I I #
point $-1 -58.823507305877435 31.645478356294284 11.864134174655794 #
plane-surface $-1 0 0 17.557015686847567 0 0 1 1 0 0 forward_v I I I I #
coedge $-1 $378 $377 $370 $452 forward $254 $-1 #
coedge $-1 $370 $256 $258 $374 reversed $159 $-1 #
coedge $-1 $256 $369 $368 $452 reversed $159 $-1 #
coedge $-1 $264 $259 $256 $372 forward $265 $-1 #
edge $-1 $375 37.063188692380393 $453 43.472576822361361 $371 $454 forward 7 unknown #
coedge $-1 $258 $257 $378 $455 reversed $99 $-1 #
edge $-1 $456 -139.50132755516222 $375 -131.13446549771885 $369 $457 forward 7 unknown #
vertex $-1 $260 $458 #
straight-curve $-1 63.341275647600142 -10.91836170516595 17.557015686847571 0 -1 0 I I #
coedge $-1 $368 $261 $264 $382 reversed $254 $-1 #
coedge $-1 $261 $368 $373 $455 forward $254 $-1 #
vertex $-1 $262 $459 #
straight-curve $-1 69.75066377758111 -17.213984333959289 104.35642110211573 0 0 1 I I #
straight-curve $-1 -37.113552078973385 -17.213984333959289 101.84862634767697 0.76604443648966558 0 -0.64278761758704617 I I #
edge $-1 $453 -26.45946248670451 $266 -17.213984333959289 $377 $460 forward 7 unknown #
point $-1 69.75066377758111 -17.213984333959289 17.557015686847567 #
point $-1 63.341275647600142 -17.213984333959289 17.557015686847564 #
edge $-1 $461 1 $461 0 $269 $-1 forward 7 unknown #
vertex $-1 $270 $462 #
ellipse-curve $-1 65.430433939962541 -23.817897300205871 13.538514285704078 0.64278761758704617 0 0.76604443648966558 0.76604443648966558 0 -0.64278761758704617 1 I I #
point $-1 67.312014149080312 -23.817897300205871 14.225170404968784 #
edge $-1 $463 1 $463 0 $273 $-1 forward 7 unknown #
vertex $-1 $274 $464 #
ellipse-curve $-1 65.430433939962541 -19.85554952045792 13.538514285704078 0.64278761758704617 0 0.76604443648966558 0.76604443648966558 0 -0.64278761758704617 1 I I #
point $-1 67.312014149080312 -19.85554952045792 14.225170404968784 #
plane-surface $-1 69.75066377758111 0 0 -1 0 0 0 0 1 forward_v I I I I #
coedge $-1 $404 $280 $283 $397 reversed $181 $-1 #
edge $-1 $294 -17.557015686847567 $400 17.557015686847567 $293 $465 forward 7 unknown #
straight-curve $-1 69.75066377758111 -44.256878121297511 0 0 0 -1 I I #
edge $-1 $398 -44.256878121297511 $400 44.256878121297511 $394 $466 forward 7 unknown #
vertex $-1 $397 $467 #
straight-curve $-1 0 -44.256878121297511 -17.557015686847567 -1 0 0 I I #
vertex $-1 $286 $468 #
straight-curve $-1 0 44.256878121297511 -17.557015686847567 1 0 0 I I #
point $-1 69.75066377758111 44.256878121297511 -17.557015686847567 #
point $-1 69.75066377758111 -44.256878121297511 -17.557015686847567 #
coedge $-1 $290 $394 $296 $407 reversed $181 $-1 #
straight-curve $-1 -69.75066377758111 0 17.557015686847567 0 -1 0 I I #
point $-1 -69.75066377758111 44.256878121297511 17.557015686847567 #
edge $-1 $297 -17.557015686847567 $398 17.557015686847567 $404 $469 forward 7 unknown #
point $-1 -69.75066377758111 -44.256878121297511 17.557015686847567 #
straight-curve $-1 69.75066377758111 44.256878121297511 0 0 0 -1 I I #
plane-surface $-1 -69.75066377758111 0 0 1 0 0 0 0 -1 forward_v I I I I #
coedge $-1 $413 $422 $417 $470 forward $303 $-1 #
coedge $-1 $306 $305 $471 $472 forward $121 $-1 #
coedge $-1 $471 $411 $307 $414 reversed $303 $-1 #
edge $-1 $415 -69.75066377758111 $418 69.75066377758111 $413 $473 forward 7 unknown #
vertex $-1 $472 $474 #
straight-curve $-1 69.75066377758111 0 -17.557015686847567 0 -1 0 I I #
coedge $-1 $315 $309 $411 $470 reversed $316 $-1 #
vertex $-1 $310 $475 #
straight-curve $-1 -69.75066377758111 0 -17.557015686847567 0 1 0 I I #
point $-1 -69.75066377758111 -44.256878121297511 -17.557015686847567 #
point $-1 69.75066377758111 -44.256878121297511 -17.557015686847567 #
coedge $-1 $411 $471 $318 $423 reversed $303 $-1 #
edge $-1 $424 -69.75066377758111 $426 69.75066377758111 $422 $476 forward 7 unknown #
vertex $-1 $319 $477 #
straight-curve $-1 -69.75066377758111 -51.434298869335798 -8.7166213322439141 0 -1 0 I I #
vertex $-1 $320 $478 #
straight-curve $-1 69.75066377758111 -51.434298869335798 -8.7166213322439141 0 1 0 I I #
coedge $-1 $334 $333 $326 $429 forward $323 $-1 #
edge $-1 $430 42.515741918621316 $433 55.579083675220048 $428 $479 forward 7 unknown #
vertex $-1 $338 $480 #
straight-curve $-1 -73.879408592511538 -0.68076533397175254 17.557015686847564 -1 0 0 I I #
edge $-1 $433 -2.0362241745107212 $335 7.4702031914756688 $334 $481 forward 7 unknown #
vertex $-1 $432 $482 #
straight-curve $-1 -69.75066377758111 -0.68076533397175254 4.493673930248832 0.82903756765294845 0 0.55919291073839883 I I #
point $-1 -50.383463537132613 -0.68076533397175254 17.557015686847567 #
point $-1 -69.75066377758111 -10.187192699958143 4.493673930248832 #
straight-curve $-1 -69.75066377758111 0 17.557015686847567 0 -1 0 I I #
vertex $-1 $341 $483 #
point $-1 -57.339402801667276 -5.4339790169649405 9.6638588051263579 #
coedge $-1 $356 $355 $348 $441 forward $345 $-1 #
edge $-1 $442 42.515741918621316 $445 55.579083675220048 $440 $484 forward 7 unknown #
vertex $-1 $360 $485 #
straight-curve $-1 -73.879408592511538 36.398692039287468 17.557015686847564 -1 0 0 I I #
edge $-1 $445 -20.575952861140333 $357 -11.06952549515394 $356 $486 forward 7 unknown #
vertex $-1 $444 $487 #
straight-curve $-1 -69.75066377758111 36.398692039287468 4.493673930248832 0.82903756765294845 0 0.55919291073839883 I I #
point $-1 -50.383463537132613 36.398692039287468 17.557015686847567 #
point $-1 -69.75066377758111 26.892264673301074 4.493673930248832 #
straight-curve $-1 -69.75066377758111 0 17.557015686847567 0 -1 0 I I #
vertex $-1 $363 $488 #
point $-1 -57.339402801667276 31.645478356294284 9.6638588051263579 #
edge $-1 $453 86.799405415268168 $456 92.177520743851645 $368 $489 forward 7 unknown #
vertex $-1 $382 $490 #
straight-curve $-1 26.278086955219749 -26.45946248670451 17.557015686847564 1 0 0 I I #
edge $-1 $456 -15.54110078153856 $379 -6.295622628793339 $378 $491 forward 7 unknown #
vertex $-1 $455 $492 #
straight-curve $-1 -37.113552078973385 -26.45946248670451 101.84862634767697 -0.76604443648966558 0 0.64278761758704617 I I #
point $-1 63.341275647600142 -26.45946248670451 17.557015686847564 #
point $-1 69.75066377758111 -17.213984333959289 12.178900358264087 #
straight-curve $-1 69.75066377758111 0 17.557015686847567 0 1 0 I I #
vertex $-1 $385 $493 #
point $-1 66.19647837645222 -23.817897300205871 12.895726668117032 #
vertex $-1 $389 $494 #
point $-1 66.19647837645222 -19.85554952045792 12.895726668117032 #
straight-curve $-1 -69.75066377758111 44.256878121297511 0 0 0 -1 I I #
straight-curve $-1 -69.75066377758111 0 -17.557015686847567 0 1 0 I I #
point $-1 -69.75066377758111 -44.256878121297511 -17.557015686847567 #
point $-1 -69.75066377758111 44.256878121297511 -17.557015686847567 #
straight-curve $-1 -69.75066377758111 -44.256878121297511 0 0 0 -1 I I #
edge $-1 $424 -4.4201971773018265 $418 4.4201971773018265 $417 $495 forward 7 unknown #
coedge $-1 $422 $413 $412 $472 reversed $303 $-1 #
edge $-1 $426 -4.4201971773018265 $415 4.4201971773018265 $412 $496 forward 7 unknown #
straight-curve $-1 0 -58.611719617374085 -17.557015686847567 -1 0 0 I I #
point $-1 69.75066377758111 -58.611719617374085 -17.557015686847567 #
point $-1 -69.75066377758111 -58.611719617374085 -17.557015686847567 #
straight-curve $-1 0 -58.611719617374085 -8.7166213322439141 1 0 0 I I #
point $-1 -69.75066377758111 -58.611719617374085 -8.7166213322439141 #
point $-1 69.75066377758111 -58.611719617374085 -8.7166213322439141 #
straight-curve $-1 -69.75066377758111 -0.68076533397175254 60.07275760546888 0 0 -1 I I #
point $-1 -69.75066377758111 -0.68076533397175254 17.557015686847567 #
straight-curve $-1 -69.75066377758111 -2.7169895084824738 4.4936739302488311 0 -1 0 I I #
point $-1 -69.75066377758111 -0.68076533397175254 4.493673930248832 #
point $-1 -57.744169787039098 -5.4339790169649405 7.5815130875393368 #
straight-curve $-1 -69.75066377758111 36.398692039287468 60.07275760546888 0 0 -1 I I #
point $-1 -69.75066377758111 36.398692039287468 17.557015686847567 #
straight-curve $-1 -69.75066377758111 15.822739178147135 4.4936739302488311 0 -1 0 I I #
point $-1 -69.75066377758111 36.398692039287468 4.493673930248832 #
point $-1 -57.744169787039098 31.645478356294284 7.5815130875393368 #
straight-curve $-1 69.75066377758111 -26.45946248670451 104.35642110211573 0 0 -1 I I #
point $-1 69.75066377758111 -26.45946248670451 17.557015686847567 #
straight-curve $-1 69.750663777581096 -10.91836170516595 12.178900358264102 0 1 0 I I #
point $-1 69.75066377758111 -26.45946248670451 12.178900358264087 #
point $-1 64.787646322375508 -23.817897300205871 12.772469849214414 #
point $-1 64.787646322375508 -19.85554952045792 12.772469849214414 #
straight-curve $-1 -69.75066377758111 -58.611719617374085 -13.136818509545741 0 0 -1 I I #
straight-curve $-1 69.75066377758111 -58.611719617374085 -13.136818509545741 0 0 -1 I I #
End-of-ACIS-data 