106 0 1 0           
body $-1 $1 $-1 $-1 #
lump $-1 $-1 $2 $0 #
shell $-1 $-1 $-1 $3 $1 #
face $-1 $4 $5 $2 $-1 $6 forward single #
face $-1 $7 $8 $2 $-1 $9 reversed single #
loop $-1 $-1 $10 $3 #
plane-surface $-1 15 15 10 0 0 1 1 0 0 0 I I I I #
face $-1 $11 $12 $2 $-1 $13 reversed single #
loop $-1 $-1 $14 $4 #
plane-surface $-1 15 0 5 0 1 0 0 0 1 0 I I I I #
coedge $-1 $15 $16 $17 $18 1 $5 $-1 #
face $-1 $19 $20 $2 $-1 $21 forward single #
loop $-1 $-1 $22 $7 #
plane-surface $-1 0 15 5 1 0 0 0 0 -1 0 I I I I #
coedge $-1 $23 $24 $25 $26 0 $8 $-1 #
coedge $-1 $27 $10 $28 $29 1 $5 $-1 #
coedge $-1 $10 $27 $24 $30 0 $5 $-1 #
coedge $-1 $31 $32 $10 $18 0 $33 $-1 #
edge $-1 $34 $35 $17 $36 0 #
face $-1 $37 $38 $2 $-1 $39 forward single #
loop $-1 $-1 $40 $11 #
plane-surface $-1 0 0 0 0 0 1 1 0 0 0 I I I I #
coedge $-1 $41 $42 $43 $44 1 $12 $-1 #
coedge $-1 $45 $14 $40 $46 1 $8 $-1 #
coedge $-1 $14 $45 $16 $30 1 $8 $-1 #
coedge $-1 $42 $41 $14 $26 1 $12 $-1 #
edge $-1 $47 $48 $25 $49 0 #
coedge $-1 $16 $15 $42 $50 0 $5 $-1 #
coedge $-1 $51 $43 $15 $29 0 $52 $-1 #
edge $-1 $53 $34 $28 $54 0 #
edge $-1 $47 $35 $24 $55 0 #
coedge $-1 $56 $17 $45 $57 0 $33 $-1 #
coedge $-1 $17 $58 $51 $59 0 $33 $-1 #
loop $-1 $-1 $31 $60 #
vertex $-1 $59 $61 #
vertex $-1 $18 $62 #
straight-curve $-1 30 7.5 10 0 -1 0 I I #
face $-1 $63 $64 $2 $-1 $65 forward single #
loop $-1 $-1 $66 $19 #
plane-surface $-1 0 -30 10 0 1 0 0 0 1 0 I I I I #
coedge $-1 $67 $68 $23 $46 0 $20 $-1 #
coedge $-1 $25 $22 $67 $69 1 $12 $-1 #
coedge $-1 $22 $25 $27 $50 1 $12 $-1 #
coedge $-1 $28 $70 $22 $44 0 $52 $-1 #
edge $-1 $71 $53 $43 $72 0 #
coedge $-1 $24 $23 $31 $57 1 $8 $-1 #
edge $-1 $73 $48 $40 $74 0 #
vertex $-1 $50 $75 #
vertex $-1 $46 $76 #
straight-curve $-1 0 0 5 0 0 -1 I I #
edge $-1 $53 $47 $42 $77 0 #
coedge $-1 $78 $28 $32 $59 1 $52 $-1 #
loop $-1 $-1 $28 $63 #
vertex $-1 $29 $79 #
straight-curve $-1 7.5 30 10 1 0 0 I I #
straight-curve $-1 15 0 10 1 0 0 I I #
coedge $-1 $80 $31 $68 $81 0 $33 $-1 #
edge $-1 $35 $73 $31 $82 0 #
coedge $-1 $32 $80 $83 $84 1 $33 $-1 #
edge $-1 $85 $34 $32 $86 0 #
face $-1 $87 $33 $2 $-1 $88 forward single #
point $-1 30 30 10 #
point $-1 30 0 10 #
face $-1 $60 $52 $2 $-1 $89 forward single #
loop $-1 $-1 $90 $37 #
plane-surface $-1 -30 0 10 1 0 0 0 0 -1 0 I I I I #
coedge $-1 $91 $92 $93 $94 1 $38 $-1 #
coedge $-1 $95 $40 $41 $69 0 $20 $-1 #
coedge $-1 $40 $96 $56 $81 1 $20 $-1 #
edge $-1 $48 $71 $67 $97 0 #
coedge $-1 $43 $98 $95 $99 0 $52 $-1 #
vertex $-1 $99 $100 #
straight-curve $-1 0 30 7.5 0 0 1 I I #
vertex $-1 $57 $101 #
straight-curve $-1 7.5 0 0 -1 0 0 I I #
point $-1 0 0 10 #
point $-1 0 0 0 #
straight-curve $-1 0 15 10 0 -1 0 I I #
coedge $-1 $98 $51 $102 $103 1 $52 $-1 #
point $-1 0 30 10 #
coedge $-1 $58 $56 $104 $105 1 $33 $-1 #
edge $-1 $73 $106 $56 $107 0 #
straight-curve $-1 30 0 7.5 0 0 -1 I I #
coedge $-1 $108 $102 $58 $84 0 $109 $-1 #
edge $-1 $85 $110 $83 $111 0 #
vertex $-1 $103 $112 #
straight-curve $-1 30 30 10 0 0 -1 I I #
face $-1 $113 $109 $2 $-1 $114 forward single #
plane-surface $-1 30 0 10 -1 0 0 0 0 1 0 I I I I #
plane-surface $-1 0 30 10 0 -1 0 0 0 -1 0 I I I I #
coedge $-1 $115 $116 $98 $117 1 $64 $-1 #
coedge $-1 $104 $66 $108 $118 1 $38 $-1 #
coedge $-1 $66 $104 $96 $119 0 $38 $-1 #
coedge $-1 $116 $115 $66 $94 0 $64 $-1 #
edge $-1 $120 $121 $93 $122 0 #
coedge $-1 $123 $67 $70 $99 1 $20 $-1 #
coedge $-1 $68 $123 $92 $119 1 $20 $-1 #
straight-curve $-1 0 7.5 0 0 1 0 I I #
coedge $-1 $70 $78 $90 $117 0 $52 $-1 #
edge $-1 $124 $71 $70 $125 0 #
point $-1 0 30 0 #
point $-1 30 0 0 #
coedge $-1 $83 $126 $78 $103 0 $109 $-1 #
edge $-1 $127 $85 $102 $128 0 #
coedge $-1 $92 $91 $80 $105 0 $38 $-1 #
edge $-1 $110 $106 $80 $129 0 #
vertex $-1 $105 $130 #
straight-curve $-1 30 0 0 0 -1 0 I I #
coedge $-1 $126 $83 $91 $118 0 $109 $-1 #
loop $-1 $131 $108 $87 #
vertex $-1 $118 $132 #
straight-curve $-1 30 0 20 0 -1 0 I I #
point $-1 30 30 20 #
face $-1 $133 $134 $2 $-1 $135 reversed single #
plane-surface $-1 0 0 20 0 0 1 1 0 0 0 I I I I #
coedge $-1 $93 $90 $126 $136 1 $64 $-1 #
coedge $-1 $90 $93 $123 $137 0 $64 $-1 #
edge $-1 $127 $124 $98 $138 0 #
edge $-1 $110 $120 $108 $139 0 #
edge $-1 $106 $121 $92 $140 0 #
vertex $-1 $118 $141 #
vertex $-1 $137 $142 #
straight-curve $-1 -30 -30 10 0 0 -1 I I #
coedge $-1 $96 $95 $116 $137 1 $20 $-1 #
vertex $-1 $99 $143 #
straight-curve $-1 0 30 0 1 0 0 I I #
coedge $-1 $102 $108 $115 $136 0 $109 $-1 #
vertex $-1 $136 $144 #
straight-curve $-1 0 30 20 1 0 0 I I #
straight-curve $-1 30 -30 10 0 0 -1 I I #
point $-1 30 -30 0 #
loop $-1 $-1 $145 $87 #
point $-1 30 -30 20 #
face $-1 $146 $147 $2 $-1 $148 reversed single #
loop $-1 $-1 $149 $113 #
plane-surface $-1 0 0 -20 0 0 1 1 0 0 0 I I I I #
edge $-1 $120 $127 $126 $150 0 #
edge $-1 $121 $124 $116 $151 0 #
straight-curve $-1 -30 30 10 0 0 -1 I I #
straight-curve $-1 0 -30 20 -1 0 0 I I #
straight-curve $-1 0 -30 0 -1 0 0 I I #
point $-1 -30 -30 20 #
point $-1 -30 -30 0 #
point $-1 -30 30 0 #
point $-1 -30 30 20 #
coedge $-1 $152 $153 $154 $155 0 $131 $-1 #
face $-1 $156 $157 $2 $-1 $158 reversed single #
loop $-1 $-1 $159 $133 #
plane-surface $-1 0 -40 0 0 1 0 0 0 1 0 I I I I #
coedge $-1 $160 $161 $162 $163 0 $134 $-1 #
straight-curve $-1 -30 0 20 0 1 0 I I #
straight-curve $-1 -30 0 0 0 1 0 I I #
coedge $-1 $164 $145 $165 $166 0 $131 $-1 #
coedge $-1 $145 $164 $167 $168 0 $131 $-1 #
coedge $-1 $169 $170 $145 $155 1 $171 $-1 #
edge $-1 $172 $173 $154 $174 0 #
face $-1 $175 $176 $2 $-1 $177 reversed single #
loop $-1 $-1 $178 $146 #
plane-surface $-1 -40 0 0 1 0 0 0 0 -1 0 I I I I #
coedge $-1 $179 $167 $180 $181 0 $147 $-1 #
coedge $-1 $182 $149 $179 $183 0 $134 $-1 #
coedge $-1 $149 $182 $184 $185 0 $134 $-1 #
coedge $-1 $170 $169 $149 $163 1 $171 $-1 #
edge $-1 $186 $187 $162 $188 0 #
coedge $-1 $153 $152 $189 $190 0 $131 $-1 #
coedge $-1 $191 $192 $152 $166 1 $176 $-1 #
edge $-1 $173 $193 $165 $194 0 #
coedge $-1 $159 $195 $153 $168 1 $147 $-1 #
edge $-1 $196 $172 $167 $197 0 #
coedge $-1 $162 $154 $195 $198 0 $171 $-1 #
coedge $-1 $154 $162 $191 $199 1 $171 $-1 #
loop $-1 $-1 $169 $175 #
vertex $-1 $155 $200 #
vertex $-1 $155 $201 #
straight-curve $-1 40 0 20 0 1 0 I I #
face $-1 $-1 $171 $2 $-1 $202 reversed single #
loop $-1 $-1 $191 $156 #
plane-surface $-1 0 40 0 0 -1 0 0 0 -1 0 I I I I #
coedge $-1 $203 $189 $192 $204 0 $157 $-1 #
coedge $-1 $195 $159 $160 $183 1 $147 $-1 #
coedge $-1 $189 $203 $159 $181 1 $157 $-1 #
edge $-1 $196 $205 $180 $206 0 #
coedge $-1 $161 $160 $203 $207 0 $134 $-1 #
edge $-1 $187 $205 $179 $208 0 #
coedge $-1 $192 $191 $161 $185 1 $176 $-1 #
edge $-1 $209 $186 $184 $210 0 #
vertex $-1 $163 $211 #
vertex $-1 $198 $212 #
straight-curve $-1 40 0 -20 0 -1 0 I I #
coedge $-1 $178 $180 $164 $190 1 $157 $-1 #
edge $-1 $193 $196 $189 $213 0 #
coedge $-1 $184 $165 $170 $199 0 $176 $-1 #
coedge $-1 $165 $184 $178 $204 1 $176 $-1 #
vertex $-1 $166 $214 #
straight-curve $-1 0 40 20 -1 0 0 I I #
coedge $-1 $167 $179 $169 $198 1 $147 $-1 #
vertex $-1 $190 $215 #
straight-curve $-1 0 -40 20 1 0 0 I I #
edge $-1 $172 $187 $169 $216 0 #
edge $-1 $173 $186 $170 $217 0 #
point $-1 40 -40 20 #
point $-1 40 40 20 #
plane-surface $-1 40 0 0 -1 0 0 0 0 1 0 I I I I #
coedge $-1 $180 $178 $182 $207 1 $157 $-1 #
edge $-1 $193 $209 $192 $218 0 #
vertex $-1 $207 $219 #
straight-curve $-1 -40 -40 0 0 0 -1 I I #
edge $-1 $205 $209 $203 $220 0 #
straight-curve $-1 0 -40 -20 -1 0 0 I I #
vertex $-1 $185 $221 #
straight-curve $-1 0 40 -20 1 0 0 I I #
point $-1 40 40 -20 #
point $-1 40 -40 -20 #
straight-curve $-1 -40 0 20 0 -1 0 I I #
point $-1 -40 40 20 #
point $-1 -40 -40 20 #
straight-curve $-1 40 -40 0 0 0 -1 I I #
straight-curve $-1 40 40 0 0 0 -1 I I #
straight-curve $-1 -40 40 0 0 0 -1 I I #
point $-1 -40 -40 -20 #
straight-curve $-1 -40 0 -20 0 1 0 I I #
point $-1 -40 40 -20 #
End-of-ACIS-data 
