600 0 1 0           
81 GICL ACIS Healer - Source: /gicl/data5/repository/Heriot_Watt/ex03/ex03.sat - 6 0 18 ACIS 6.0.3 Solaris 24 Sat Apr 13 23:39:16 2002 
1 9.999999999999999547e-07 1.000000000000000036e-10 
body $-1 $1 $-1 $-1 #
lump $-1 $-1 $2 $0 #
shell $-1 $-1 $-1 $3 $-1 $1 #
face $-1 $4 $5 $2 $-1 $6 forward single #
face $-1 $7 $8 $2 $-1 $9 reversed single #
loop $-1 $-1 $10 $3 #
plane-surface $-1 15 15 10 0 0 1 1 0 0 forward_v I I I I #
face $-1 $11 $12 $2 $-1 $13 reversed single #
loop $-1 $-1 $14 $4 #
plane-surface $-1 15 0 5 0 1 0 0 0 1 forward_v I I I I #
coedge $-1 $15 $16 $17 $18 reversed $5 $-1 #
face $-1 $19 $20 $2 $-1 $21 forward single #
loop $-1 $-1 $22 $7 #
plane-surface $-1 0 15 5 1 0 0 0 0 -1 forward_v I I I I #
coedge $-1 $23 $24 $25 $26 forward $8 $-1 #
coedge $-1 $27 $10 $28 $29 reversed $5 $-1 #
coedge $-1 $10 $27 $24 $30 forward $5 $-1 #
coedge $-1 $31 $32 $10 $18 forward $33 $-1 #
edge $-1 $34 -22.5 $35 7.5 $17 $36 forward 7 unknown #
face $-1 $37 $38 $2 $-1 $39 forward single #
loop $-1 $-1 $40 $11 #
plane-surface $-1 0 0 0 0 0 1 1 0 0 forward_v I I I I #
coedge $-1 $41 $42 $43 $44 reversed $12 $-1 #
coedge $-1 $45 $14 $40 $46 reversed $8 $-1 #
coedge $-1 $14 $45 $16 $30 reversed $8 $-1 #
coedge $-1 $42 $41 $14 $26 reversed $12 $-1 #
edge $-1 $47 -5 $48 5 $25 $49 forward 7 unknown #
coedge $-1 $16 $15 $42 $50 forward $5 $-1 #
coedge $-1 $51 $43 $15 $29 forward $52 $-1 #
edge $-1 $53 -7.5 $34 22.5 $28 $54 forward 7 unknown #
edge $-1 $47 -15 $35 15 $24 $55 forward 7 unknown #
coedge $-1 $56 $17 $45 $57 forward $33 $-1 #
coedge $-1 $17 $58 $51 $59 forward $33 $-1 #
loop $-1 $-1 $31 $60 #
vertex $-1 $59 $61 #
vertex $-1 $18 $62 #
straight-curve $-1 30 7.5 10 0 -1 0 I I #
face $-1 $63 $64 $2 $-1 $65 forward single #
loop $-1 $-1 $66 $19 #
plane-surface $-1 0 -30 10 0 1 0 0 0 1 forward_v I I I I #
coedge $-1 $67 $68 $23 $46 forward $20 $-1 #
coedge $-1 $25 $22 $67 $69 reversed $12 $-1 #
coedge $-1 $22 $25 $27 $50 reversed $12 $-1 #
coedge $-1 $28 $70 $22 $44 forward $52 $-1 #
edge $-1 $71 -7.5 $53 2.5 $43 $72 forward 7 unknown #
coedge $-1 $24 $23 $31 $57 reversed $8 $-1 #
edge $-1 $73 -22.5 $48 7.5 $40 $74 forward 7 unknown #
vertex $-1 $50 $75 #
vertex $-1 $46 $76 #
straight-curve $-1 0 0 5 0 0 -1 I I #
edge $-1 $53 -15 $47 15 $42 $77 forward 7 unknown #
coedge $-1 $78 $28 $32 $59 reversed $52 $-1 #
loop $-1 $-1 $28 $63 #
vertex $-1 $29 $79 #
straight-curve $-1 7.5 30 10 1 0 0 I I #
straight-curve $-1 15 0 10 1 0 0 I I #
coedge $-1 $80 $31 $68 $81 forward $33 $-1 #
edge $-1 $35 -2.5 $73 7.5 $31 $82 forward 7 unknown #
coedge $-1 $32 $80 $83 $84 reversed $33 $-1 #
edge $-1 $85 -10 $34 0 $32 $86 forward 7 unknown #
face $-1 $87 $33 $2 $-1 $88 forward single #
point $-1 30 30 10 #
point $-1 30 0 10 #
face $-1 $60 $52 $2 $-1 $89 forward single #
loop $-1 $-1 $90 $37 #
plane-surface $-1 -30 0 10 1 0 0 0 0 -1 forward_v I I I I #
coedge $-1 $91 $92 $93 $94 reversed $38 $-1 #
coedge $-1 $95 $40 $41 $69 forward $20 $-1 #
coedge $-1 $40 $96 $56 $81 reversed $20 $-1 #
edge $-1 $48 -7.5 $71 22.5 $67 $97 forward 7 unknown #
coedge $-1 $43 $98 $95 $99 forward $52 $-1 #
vertex $-1 $99 $100 #
straight-curve $-1 0 30 7.5 0 0 1 I I #
vertex $-1 $57 $101 #
straight-curve $-1 7.5 0 0 -1 0 0 I I #
point $-1 0 0 10 #
point $-1 0 0 0 #
straight-curve $-1 0 15 10 0 -1 0 I I #
coedge $-1 $98 $51 $102 $103 reversed $52 $-1 #
point $-1 0 30 10 #
coedge $-1 $58 $56 $104 $105 reversed $33 $-1 #
edge $-1 $73 0 $106 30 $56 $107 forward 7 unknown #
straight-curve $-1 30 0 7.5 0 0 -1 I I #
coedge $-1 $108 $102 $58 $84 forward $109 $-1 #
edge $-1 $85 -30 $110 30 $83 $111 forward 7 unknown #
vertex $-1 $103 $112 #
straight-curve $-1 30 30 10 0 0 -1 I I #
face $-1 $113 $109 $2 $-1 $114 forward single #
plane-surface $-1 30 0 10 -1 0 0 0 0 1 forward_v I I I I #
plane-surface $-1 0 30 10 0 -1 0 0 0 -1 forward_v I I I I #
coedge $-1 $115 $116 $98 $117 reversed $64 $-1 #
coedge $-1 $104 $66 $108 $118 reversed $38 $-1 #
coedge $-1 $66 $104 $96 $119 forward $38 $-1 #
coedge $-1 $116 $115 $66 $94 forward $64 $-1 #
edge $-1 $120 -10 $121 10 $93 $122 forward 7 unknown #
coedge $-1 $123 $67 $70 $99 reversed $20 $-1 #
coedge $-1 $68 $123 $92 $119 reversed $20 $-1 #
straight-curve $-1 0 7.5 0 0 1 0 I I #
coedge $-1 $70 $78 $90 $117 forward $52 $-1 #
edge $-1 $124 -30 $71 0 $70 $125 forward 7 unknown #
point $-1 0 30 0 #
point $-1 30 0 0 #
coedge $-1 $83 $126 $78 $103 forward $109 $-1 #
edge $-1 $127 -30 $85 30 $102 $128 forward 7 unknown #
coedge $-1 $92 $91 $80 $105 forward $38 $-1 #
edge $-1 $110 -10 $106 10 $80 $129 forward 7 unknown #
vertex $-1 $105 $130 #
straight-curve $-1 30 0 0 0 -1 0 I I #
coedge $-1 $126 $83 $91 $118 forward $109 $-1 #
loop $-1 $131 $108 $87 #
vertex $-1 $118 $132 #
straight-curve $-1 30 0 20 0 -1 0 I I #
point $-1 30 30 20 #
face $-1 $133 $134 $2 $-1 $135 reversed single #
plane-surface $-1 0 0 20 0 0 1 1 0 0 forward_v I I I I #
coedge $-1 $93 $90 $126 $136 reversed $64 $-1 #
coedge $-1 $90 $93 $123 $137 forward $64 $-1 #
edge $-1 $127 -10 $124 10 $98 $138 forward 7 unknown #
edge $-1 $110 -30 $120 30 $108 $139 forward 7 unknown #
edge $-1 $106 -30 $121 30 $92 $140 forward 7 unknown #
vertex $-1 $118 $141 #
vertex $-1 $137 $142 #
straight-curve $-1 -30 -30 10 0 0 -1 I I #
coedge $-1 $96 $95 $116 $137 reversed $20 $-1 #
vertex $-1 $99 $143 #
straight-curve $-1 0 30 0 1 0 0 I I #
coedge $-1 $102 $108 $115 $136 forward $109 $-1 #
vertex $-1 $136 $144 #
straight-curve $-1 0 30 20 1 0 0 I I #
straight-curve $-1 30 -30 10 0 0 -1 I I #
point $-1 30 -30 0 #
loop $-1 $-1 $145 $87 #
point $-1 30 -30 20 #
face $-1 $146 $147 $2 $-1 $148 reversed single #
loop $-1 $-1 $149 $113 #
plane-surface $-1 0 0 -20 0 0 1 1 0 0 forward_v I I I I #
edge $-1 $120 -30 $127 30 $126 $150 forward 7 unknown #
edge $-1 $121 -30 $124 30 $116 $151 forward 7 unknown #
straight-curve $-1 -30 30 10 0 0 -1 I I #
straight-curve $-1 0 -30 20 -1 0 0 I I #
straight-curve $-1 0 -30 0 -1 0 0 I I #
point $-1 -30 -30 20 #
point $-1 -30 -30 0 #
point $-1 -30 30 0 #
point $-1 -30 30 20 #
coedge $-1 $152 $153 $154 $155 forward $131 $-1 #
face $-1 $156 $157 $2 $-1 $158 reversed single #
loop $-1 $-1 $159 $133 #
plane-surface $-1 0 -40 0 0 1 0 0 0 1 forward_v I I I I #
coedge $-1 $160 $161 $162 $163 forward $134 $-1 #
straight-curve $-1 -30 0 20 0 1 0 I I #
straight-curve $-1 -30 0 0 0 1 0 I I #
coedge $-1 $164 $145 $165 $166 forward $131 $-1 #
coedge $-1 $145 $164 $167 $168 forward $131 $-1 #
coedge $-1 $169 $170 $145 $155 reversed $171 $-1 #
edge $-1 $172 -40 $173 40 $154 $174 forward 7 unknown #
face $-1 $175 $176 $2 $-1 $177 reversed single #
loop $-1 $-1 $178 $146 #
plane-surface $-1 -40 0 0 1 0 0 0 0 -1 forward_v I I I I #
coedge $-1 $179 $167 $180 $181 forward $147 $-1 #
coedge $-1 $182 $149 $179 $183 forward $134 $-1 #
coedge $-1 $149 $182 $184 $185 forward $134 $-1 #
coedge $-1 $170 $169 $149 $163 reversed $171 $-1 #
edge $-1 $186 -40 $187 40 $162 $188 forward 7 unknown #
coedge $-1 $153 $152 $189 $190 forward $131 $-1 #
coedge $-1 $191 $192 $152 $166 reversed $176 $-1 #
edge $-1 $173 -40 $193 40 $165 $194 forward 7 unknown #
coedge $-1 $159 $195 $153 $168 reversed $147 $-1 #
edge $-1 $196 -40 $172 40 $167 $197 forward 7 unknown #
coedge $-1 $162 $154 $195 $198 forward $171 $-1 #
coedge $-1 $154 $162 $191 $199 reversed $171 $-1 #
loop $-1 $-1 $169 $175 #
vertex $-1 $155 $200 #
vertex $-1 $155 $201 #
straight-curve $-1 40 0 20 0 1 0 I I #
face $-1 $-1 $171 $2 $-1 $202 reversed single #
loop $-1 $-1 $191 $156 #
plane-surface $-1 0 40 0 0 -1 0 0 0 -1 forward_v I I I I #
coedge $-1 $203 $189 $192 $204 forward $157 $-1 #
coedge $-1 $195 $159 $160 $183 reversed $147 $-1 #
coedge $-1 $189 $203 $159 $181 reversed $157 $-1 #
edge $-1 $196 -20 $205 20 $180 $206 forward 7 unknown #
coedge $-1 $161 $160 $203 $207 forward $134 $-1 #
edge $-1 $187 -40 $205 40 $179 $208 forward 7 unknown #
coedge $-1 $192 $191 $161 $185 reversed $176 $-1 #
edge $-1 $209 -40 $186 40 $184 $210 forward 7 unknown #
vertex $-1 $163 $211 #
vertex $-1 $198 $212 #
straight-curve $-1 40 0 -20 0 -1 0 I I #
coedge $-1 $178 $180 $164 $190 reversed $157 $-1 #
edge $-1 $193 -40 $196 40 $189 $213 forward 7 unknown #
coedge $-1 $184 $165 $170 $199 forward $176 $-1 #
coedge $-1 $165 $184 $178 $204 reversed $176 $-1 #
vertex $-1 $166 $214 #
straight-curve $-1 0 40 20 -1 0 0 I I #
coedge $-1 $167 $179 $169 $198 reversed $147 $-1 #
vertex $-1 $190 $215 #
straight-curve $-1 0 -40 20 1 0 0 I I #
edge $-1 $172 -20 $187 20 $169 $216 forward 7 unknown #
edge $-1 $173 -20 $186 20 $170 $217 forward 7 unknown #
point $-1 40 -40 20 #
point $-1 40 40 20 #
plane-surface $-1 40 0 0 -1 0 0 0 0 1 forward_v I I I I #
coedge $-1 $180 $178 $182 $207 reversed $157 $-1 #
edge $-1 $193 -20 $209 20 $192 $218 forward 7 unknown #
vertex $-1 $207 $219 #
straight-curve $-1 -40 -40 0 0 0 -1 I I #
edge $-1 $205 -40 $209 40 $203 $220 forward 7 unknown #
straight-curve $-1 0 -40 -20 -1 0 0 I I #
vertex $-1 $185 $221 #
straight-curve $-1 0 40 -20 1 0 0 I I #
point $-1 40 40 -20 #
point $-1 40 -40 -20 #
straight-curve $-1 -40 0 20 0 -1 0 I I #
point $-1 -40 40 20 #
point $-1 -40 -40 20 #
straight-curve $-1 40 -40 0 0 0 -1 I I #
straight-curve $-1 40 40 0 0 0 -1 I I #
straight-curve $-1 -40 40 0 0 0 -1 I I #
point $-1 -40 -40 -20 #
straight-curve $-1 -40 0 -20 0 1 0 I I #
point $-1 -40 40 -20 #
End-of-ACIS-data 