700 0 2 0           
24 FBMach with ACIS - 7.0.3 13 ACIS 7.0.3 NT 24 Tue May 14 09:19:53 2002 
1 9.9999999999999995e-007 1e-010 
body $2 -1 $-1 $3 $-1 $4 #
bdycol-kcp $-1 -1 1 2 $5 $6 #
model_id-kcp-attrib $-1 -1 $-1 $-1 $0 1 1021382391 1021382391 593428481 1 #
lump $-1 -1 $-1 $-1 $7 $0 #
transform $-1 -1 1 0 0 0 1 0 0 0 1 0 0 0 1 rotate no_reflect no_shear #
body $8 -1 $-1 $9 $-1 $10 #
body $11 -1 $-1 $12 $-1 $13 #
shell $-1 -1 $-1 $-1 $-1 $14 $-1 $3 #
model_id-kcp-attrib $-1 -1 $-1 $-1 $5 1 1021382391 1021382391 593428482 1 #
lump $-1 -1 $-1 $-1 $15 $5 #
transform $-1 -1 1 0 0 0 1 0 0 0 1 10 0 1.7763568394002505e-015 1 no_rotate no_reflect no_shear #
rgb_color-st-attrib $-1 -1 $16 $-1 $6 0 0 1 #
lump $-1 -1 $-1 $-1 $17 $6 #
transform $-1 -1 1 0 0 0 1 0 0 0 1 10 0 1.7763568394002505e-015 1 no_rotate no_reflect no_shear #
face $18 -1 $-1 $19 $20 $7 $-1 $21 reversed single #
shell $-1 -1 $-1 $-1 $-1 $22 $-1 $9 #
model_id-kcp-attrib $-1 -1 $-1 $11 $6 1 1021382391 1021382392 592904195 1 #
shell $-1 -1 $-1 $-1 $-1 $23 $-1 $12 #
model_id-kcp-attrib $-1 -1 $-1 $-1 $14 1 1021382391 1021382391 593428481 2 #
face $24 -1 $-1 $25 $26 $7 $-1 $21 reversed single #
loop $-1 -1 $-1 $-1 $27 $14 #
plane-surface $-1 -1 $-1 28 0 0 1 0 0 0 0 -1 forward_v I I I I #
face $28 -1 $-1 $29 $30 $15 $-1 $31 forward single #
face $-1 -1 $-1 $32 $33 $17 $-1 $34 forward single #
model_id-kcp-attrib $-1 -1 $-1 $-1 $19 1 1021382391 1021382391 593428481 3 #
face $35 -1 $-1 $36 $37 $7 $-1 $38 forward single #
loop $-1 -1 $-1 $-1 $39 $19 #
coedge $-1 -1 $-1 $40 $41 $42 $43 reversed $20 $-1 #
model_id-kcp-attrib $-1 -1 $-1 $-1 $22 1 1021382391 1021382391 593428482 2 #
face $44 -1 $-1 $45 $46 $15 $-1 $47 reversed single #
loop $-1 -1 $-1 $-1 $48 $22 #
plane-surface $-1 -1 $-1 0 0 20 0 0 1 1 0 0 forward_v I I I I #
face $-1 -1 $-1 $49 $50 $17 $-1 $51 forward single #
loop $-1 -1 $-1 $-1 $52 $23 #
plane-surface $-1 -1 $-1 0 0 20 0 0 1 1 0 0 forward_v I I I I #
model_id-kcp-attrib $-1 -1 $-1 $-1 $25 1 1021382391 1021382391 593428481 4 #
face $53 -1 $-1 $54 $55 $7 $-1 $56 reversed single #
loop $-1 -1 $-1 $57 $58 $25 #
plane-surface $-1 -1 $-1 0 0 20 0 0 1 1 0 0 forward_v I I I I #
coedge $-1 -1 $-1 $59 $60 $61 $62 reversed $26 $-1 #
coedge $-1 -1 $-1 $63 $27 $64 $65 reversed $20 $-1 #
coedge $-1 -1 $-1 $27 $63 $66 $67 reversed $20 $-1 #
coedge $-1 -1 $-1 $68 $69 $27 $43 forward $70 $-1 #
edge $-1 -1 $-1 $71 -20 $72 20 $42 $73 forward @7 unknown #
model_id-kcp-attrib $-1 -1 $-1 $-1 $29 1 1021382391 1021382391 593428482 3 #
face $74 -1 $-1 $75 $76 $15 $-1 $77 reversed single #
loop $-1 -1 $-1 $-1 $78 $29 #
plane-surface $-1 -1 $-1 0 0 -20 0 0 1 1 0 0 forward_v I I I I #
coedge $-1 -1 $-1 $79 $80 $81 $82 forward $30 $-1 #
face $-1 -1 $-1 $83 $84 $17 $-1 $85 forward single #
loop $-1 -1 $-1 $-1 $86 $32 #
cone-surface $-1 -1 $-1 20 0 0 0 0 1 30 0 0 1 I I 0 -1 30 forward I I I I #
coedge $-1 -1 $-1 $87 $88 $89 $90 forward $33 $-1 #
model_id-kcp-attrib $-1 -1 $-1 $-1 $36 1 1021382391 1021382391 593428481 5 #
face $91 -1 $-1 $92 $93 $7 $-1 $94 reversed single #
loop $-1 -1 $-1 $95 $96 $36 #
plane-surface $-1 -1 $-1 0 0 -20 0 0 1 1 0 0 forward_v I I I I #
loop $-1 -1 $-1 $-1 $97 $25 #
coedge $-1 -1 $-1 $98 $99 $100 $101 forward $37 $-1 #
coedge $-1 -1 $-1 $102 $39 $99 $103 reversed $26 $-1 #
coedge $-1 -1 $-1 $39 $102 $104 $105 reversed $26 $-1 #
coedge $-1 -1 $-1 $106 $100 $39 $62 forward $107 $-1 #
edge $108 -1 $-1 $109 -20 $110 20 $61 $111 forward @7 unknown #
coedge $-1 -1 $-1 $41 $40 $112 $113 reversed $20 $-1 #
coedge $-1 -1 $-1 $114 $115 $40 $65 forward $37 $-1 #
edge $116 -1 $-1 $117 -30 $71 -29.933259094191531 $40 $118 forward @7 unknown #
coedge $-1 -1 $-1 $119 $120 $41 $67 forward $95 $-1 #
edge $-1 -1 $-1 $72 29.933259094191531 $121 30 $41 $122 forward @7 unknown #
coedge $-1 -1 $-1 $123 $42 $120 $124 reversed $70 $-1 #
coedge $-1 -1 $-1 $42 $125 $114 $126 reversed $70 $-1 #
loop $-1 -1 $-1 $-1 $127 $128 #
vertex $-1 -1 $-1 $126 $129 #
vertex $-1 -1 $-1 $124 $130 #
straight-curve $-1 -1 $-1 28 29.933259094191531 0 0 0 -1 I I #
model_id-kcp-attrib $-1 -1 $-1 $-1 $45 1 1021382391 1021382391 593428482 5 #
face $131 -1 $-1 $132 $133 $15 $-1 $134 reversed single #
loop $-1 -1 $-1 $-1 $135 $45 #
plane-surface $-1 -1 $-1 0 -40 0 0 1 0 0 0 1 forward_v I I I I #
coedge $-1 -1 $-1 $136 $137 $138 $139 forward $46 $-1 #
coedge $-1 -1 $-1 $140 $48 $141 $142 forward $30 $-1 #
coedge $-1 -1 $-1 $48 $140 $143 $144 forward $30 $-1 #
coedge $-1 -1 $-1 $145 $146 $48 $82 reversed $147 $-1 #
edge $-1 -1 $-1 $148 -40 $149 40 $81 $150 forward @7 unknown #
face $-1 -1 $-1 $151 $152 $17 $-1 $153 forward single #
loop $-1 -1 $-1 $-1 $154 $49 #
cone-surface $-1 -1 $-1 -10 15 0 0 0 1 10 0 0 1 I I 0 1 10 forward I I I I #
coedge $-1 -1 $-1 $155 $156 $157 $158 reversed $50 $-1 #
coedge $-1 -1 $-1 $157 $52 $154 $159 forward $33 $-1 #
coedge $-1 -1 $-1 $52 $160 $161 $162 forward $33 $-1 #
coedge $-1 -1 $-1 $163 $164 $52 $90 reversed $152 $-1 #
edge $-1 -1 $-1 $165 1.6375124752051218 $166 3.3093406102870491 $89 $167 forward @7 unknown #
model_id-kcp-attrib $-1 -1 $-1 $-1 $54 1 1021382391 1021382391 593428481 6 #
face $168 -1 $-1 $169 $170 $7 $-1 $171 reversed single #
loop $-1 -1 $-1 $-1 $172 $54 #
plane-surface $-1 -1 $-1 0 40 0 0 -1 0 0 0 -1 forward_v I I I I #
loop $-1 -1 $-1 $-1 $104 $36 #
coedge $-1 -1 $-1 $173 $174 $175 $176 forward $55 $-1 #
coedge $-1 -1 $-1 $177 $178 $179 $180 forward $57 $-1 #
coedge $-1 -1 $-1 $115 $58 $181 $182 forward $37 $-1 #
coedge $-1 -1 $-1 $58 $183 $59 $103 forward $37 $-1 #
coedge $-1 -1 $-1 $61 $184 $58 $101 reversed $107 $-1 #
edge $185 -1 $-1 $109 -28 $186 30 $58 $187 forward @7 unknown #
coedge $-1 -1 $-1 $60 $59 $127 $188 reversed $26 $-1 #
edge $189 -1 $-1 $190 29.933259094191531 $109 30 $59 $118 forward @7 unknown #
coedge $-1 -1 $-1 $191 $192 $60 $105 forward $95 $-1 #
edge $-1 -1 $-1 $110 -30 $193 -29.933259094191531 $60 $122 forward @7 unknown #
coedge $-1 -1 $-1 $184 $61 $192 $194 reversed $107 $-1 #
loop $-1 -1 $-1 $-1 $61 $195 #
attrib_edge_convexity-kcp-attrib $-1 -1 $196 $-1 $62 2 #
vertex $-1 -1 $-1 $101 $197 #
vertex $-1 -1 $-1 $194 $198 #
straight-curve $-1 -1 $-1 28 -30 0 0 0 -1 I I #
coedge $-1 -1 $-1 $199 $200 $63 $113 forward $201 $-1 #
edge $202 -1 $-1 $121 -20 $117 20 $112 $203 forward @7 unknown #
coedge $-1 -1 $-1 $204 $64 $69 $126 forward $37 $-1 #
coedge $-1 -1 $-1 $64 $98 $199 $205 forward $37 $-1 #
attrib_edge_convexity-kcp-attrib $-1 -1 $206 $-1 $65 1 #
vertex $-1 -1 $-1 $205 $207 #
straight-curve $-1 -1 $-1 28 0 20 0 -1 0 I I #
coedge $-1 -1 $-1 $208 $66 $200 $209 forward $95 $-1 #
coedge $-1 -1 $-1 $66 $210 $68 $124 forward $95 $-1 #
vertex $-1 -1 $-1 $209 $211 #
straight-curve $-1 -1 $-1 28 0 -20 0 1 0 I I #
coedge $-1 -1 $-1 $212 $68 $213 $214 forward $70 $-1 #
edge $-1 -1 $-1 $215 -3.1415926535897931 $72 -1.637512475205122 $120 $216 forward @7 unknown #
coedge $-1 -1 $-1 $69 $217 $218 $219 forward $70 $-1 #
edge $220 -1 $-1 $71 1.637512475205122 $221 2.3820453922854368 $114 $222 forward @7 unknown #
coedge $-1 -1 $-1 $223 $224 $102 $188 forward $70 $-1 #
face $225 -1 $-1 $226 $70 $7 $-1 $227 forward single #
point $-1 -1 $-1 28 29.933259094191531 20 #
point $-1 -1 $-1 28 29.933259094191531 -20 #
model_id-kcp-attrib $-1 -1 $-1 $-1 $75 1 1021382391 1021382391 593428482 6 #
face $228 -1 $-1 $229 $230 $15 $-1 $231 reversed single #
loop $-1 -1 $-1 $-1 $232 $75 #
plane-surface $-1 -1 $-1 -50 0 0 1 0 0 0 0 -1 forward_v I I I I #
coedge $-1 -1 $-1 $233 $143 $234 $235 forward $76 $-1 #
coedge $-1 -1 $-1 $236 $78 $233 $237 forward $46 $-1 #
coedge $-1 -1 $-1 $78 $236 $238 $239 forward $46 $-1 #
coedge $-1 -1 $-1 $146 $145 $78 $139 reversed $147 $-1 #
edge $-1 -1 $-1 $240 -40 $241 40 $138 $242 forward @7 unknown #
coedge $-1 -1 $-1 $80 $79 $243 $244 forward $30 $-1 #
coedge $-1 -1 $-1 $245 $246 $79 $142 reversed $230 $-1 #
edge $-1 -1 $-1 $149 -50 $247 50 $141 $248 forward @7 unknown #
coedge $-1 -1 $-1 $135 $249 $80 $144 reversed $76 $-1 #
edge $-1 -1 $-1 $250 -50 $148 50 $143 $251 forward @7 unknown #
coedge $-1 -1 $-1 $138 $81 $249 $252 forward $147 $-1 #
coedge $-1 -1 $-1 $81 $138 $245 $253 reversed $147 $-1 #
loop $-1 -1 $-1 $-1 $145 $229 #
vertex $-1 -1 $-1 $82 $254 #
vertex $-1 -1 $-1 $82 $255 #
straight-curve $-1 -1 $-1 50 0 20 0 1 0 I I #
face $-1 -1 $-1 $256 $257 $17 $-1 $258 forward single #
loop $-1 -1 $-1 $-1 $89 $83 #
cone-surface $-1 -1 $-1 20 0 0 0 0 1 30 0 0 1 I I 0 -1 30 forward I I I I #
coedge $-1 -1 $-1 $259 $260 $87 $159 reversed $84 $-1 #
coedge $-1 -1 $-1 $261 $86 $260 $262 reversed $50 $-1 #
coedge $-1 -1 $-1 $86 $261 $263 $264 forward $50 $-1 #
coedge $-1 -1 $-1 $265 $87 $86 $158 forward $33 $-1 #
edge $-1 -1 $-1 $266 -2.3820453922854372 $267 -1.6375124752051218 $86 $268 forward @7 unknown #
edge $-1 -1 $-1 $166 -1.5286736912294152 $266 0.60137847322780313 $154 $269 forward @7 unknown #
coedge $-1 -1 $-1 $88 $270 $271 $272 forward $33 $-1 #
coedge $-1 -1 $-1 $273 $274 $88 $162 reversed $257 $-1 #
edge $-1 -1 $-1 $275 -15.033370452904236 $165 -14.966629547095767 $161 $276 forward @7 unknown #
coedge $-1 -1 $-1 $277 $89 $274 $278 reversed $152 $-1 #
coedge $-1 -1 $-1 $89 $277 $259 $279 forward $152 $-1 #
vertex $-1 -1 $-1 $90 $280 #
vertex $-1 -1 $-1 $90 $281 #
ellipse-curve $-1 -1 $-1 20 0 20 0 0 -1 30 0 0 1 I I #
model_id-kcp-attrib $-1 -1 $-1 $-1 $92 1 1021382391 1021382391 593428481 7 #
face $282 -1 $-1 $283 $284 $7 $-1 $285 reversed single #
loop $-1 -1 $-1 $-1 $218 $92 #
cone-surface $-1 -1 $-1 0 15 10 0 0 1 10 0 0 1 I I 0 1 10 forward I I I I #
coedge $-1 -1 $-1 $286 $287 $288 $289 reversed $93 $-1 #
coedge $-1 -1 $-1 $288 $96 $290 $291 forward $55 $-1 #
coedge $-1 -1 $-1 $96 $292 $293 $294 forward $55 $-1 #
coedge $-1 -1 $-1 $295 $296 $96 $176 reversed $297 $-1 #
edge $-1 -1 $-1 $298 -40 $299 40 $175 $300 forward @7 unknown #
coedge $-1 -1 $-1 $301 $97 $302 $303 forward $57 $-1 #
coedge $-1 -1 $-1 $97 $304 $305 $306 forward $57 $-1 #
coedge $-1 -1 $-1 $296 $295 $97 $180 reversed $297 $-1 #
edge $307 -1 $-1 $308 -40 $309 40 $179 $310 forward @7 unknown #
coedge $-1 -1 $-1 $311 $312 $98 $182 reversed $313 $-1 #
edge $314 -1 $-1 $186 -30 $315 30 $98 $316 forward @7 unknown #
coedge $-1 -1 $-1 $99 $204 $223 $317 forward $37 $-1 #
coedge $-1 -1 $-1 $100 $106 $311 $318 reversed $107 $-1 #
attrib_edge_convexity-kcp-attrib $-1 -1 $319 $-1 $101 1 #
vertex $-1 -1 $-1 $101 $320 #
straight-curve $-1 -1 $-1 0 -30 20 -1 0 0 I I #
edge $-1 -1 $-1 $193 -20 $190 20 $127 $321 forward @7 unknown #
attrib_edge_convexity-kcp-attrib $-1 -1 $322 $-1 $103 1 #
vertex $-1 -1 $-1 $317 $323 #
coedge $-1 -1 $-1 $324 $104 $224 $325 forward $95 $-1 #
coedge $-1 -1 $-1 $104 $208 $106 $194 forward $95 $-1 #
vertex $-1 -1 $-1 $325 $326 #
edge $327 -1 $-1 $328 -30 $110 28 $192 $329 forward @7 unknown #
face $330 -1 $-1 $331 $107 $7 $-1 $332 forward single #
convexity-sys-attrib $-1 -1 $-1 $108 $62 #
point $-1 -1 $-1 28 -30 20 #
point $-1 -1 $-1 28 -30 -20 #
coedge $-1 -1 $-1 $333 $112 $115 $205 reversed $201 $-1 #
coedge $-1 -1 $-1 $112 $333 $119 $209 reversed $201 $-1 #
loop $-1 -1 $-1 $-1 $112 $334 #
attrib_edge_convexity-kcp-attrib $-1 -1 $335 $-1 $113 2 #
straight-curve $-1 -1 $-1 28 30 0 0 0 1 I I #
coedge $-1 -1 $-1 $183 $114 $336 $337 forward $37 $-1 #
edge $338 -1 $-1 $315 -30 $117 28 $115 $339 forward @7 unknown #
convexity-sys-attrib $-1 -1 $-1 $116 $65 #
point $-1 -1 $-1 28 30 20 #
coedge $-1 -1 $-1 $192 $119 $340 $341 forward $95 $-1 #
edge $342 -1 $-1 $121 -28 $343 30 $119 $344 forward @7 unknown #
coedge $-1 -1 $-1 $120 $345 $346 $347 forward $95 $-1 #
point $-1 -1 $-1 28 30 -20 #
coedge $-1 -1 $-1 $348 $123 $349 $350 forward $70 $-1 #
coedge $-1 -1 $-1 $346 $351 $123 $214 reversed $352 $-1 #
edge $-1 -1 $-1 $215 -20 $353 0 $123 $354 forward @7 unknown #
vertex $-1 -1 $-1 $124 $355 #
ellipse-curve $-1 -1 $-1 30 0 -20 0 0 -1 30 0 0 1 I I #
coedge $-1 -1 $-1 $125 $356 $357 $358 forward $70 $-1 #
coedge $-1 -1 $-1 $359 $336 $125 $219 reversed $170 $-1 #
edge $-1 -1 $-1 $360 -10.000000000000002 $221 10.000000000000002 $125 $361 forward @7 unknown #
attrib_edge_convexity-kcp-attrib $-1 -1 $362 $-1 $126 1 #
vertex $-1 -1 $-1 $126 $363 #
ellipse-curve $-1 -1 $-1 30 0 20 0 0 1 30 0 0 1 I I #
coedge $-1 -1 $-1 $356 $127 $183 $317 reversed $70 $-1 #
coedge $-1 -1 $-1 $127 $348 $191 $325 reversed $70 $-1 #
model_id-kcp-attrib $-1 -1 $-1 $-1 $128 1 1021382391 1021382391 593428481 13 #
face $364 -1 $-1 $365 $366 $7 $-1 $227 forward single #
cone-surface $-1 -1 $-1 30 0 0 0 0 1 30 0 0 1 I I 0 1 30 forward I I I I #
model_id-kcp-attrib $-1 -1 $-1 $-1 $132 1 1021382391 1021382391 593428482 4 #
face $-1 -1 $-1 $-1 $147 $15 $-1 $367 reversed single #
loop $-1 -1 $-1 $-1 $245 $132 #
plane-surface $-1 -1 $-1 0 40 0 0 -1 0 0 0 -1 forward_v I I I I #
coedge $-1 -1 $-1 $368 $243 $246 $369 forward $133 $-1 #
coedge $-1 -1 $-1 $249 $135 $136 $237 reversed $76 $-1 #
coedge $-1 -1 $-1 $243 $368 $135 $235 reversed $133 $-1 #
edge $-1 -1 $-1 $250 -20 $370 20 $234 $371 forward @7 unknown #
coedge $-1 -1 $-1 $137 $136 $368 $372 forward $46 $-1 #
edge $-1 -1 $-1 $241 -50 $370 50 $233 $373 forward @7 unknown #
coedge $-1 -1 $-1 $246 $245 $137 $239 reversed $230 $-1 #
edge $-1 -1 $-1 $374 -50 $240 50 $238 $375 forward @7 unknown #
vertex $-1 -1 $-1 $139 $376 #
vertex $-1 -1 $-1 $252 $377 #
straight-curve $-1 -1 $-1 50 0 -20 0 -1 0 I I #
coedge $-1 -1 $-1 $232 $234 $140 $244 reversed $133 $-1 #
edge $-1 -1 $-1 $247 -40 $250 40 $243 $378 forward @7 unknown #
coedge $-1 -1 $-1 $238 $141 $146 $253 forward $230 $-1 #
coedge $-1 -1 $-1 $141 $238 $232 $369 reversed $230 $-1 #
vertex $-1 -1 $-1 $142 $379 #
straight-curve $-1 -1 $-1 0 40 20 -1 0 0 I I #
coedge $-1 -1 $-1 $143 $233 $145 $252 reversed $76 $-1 #
vertex $-1 -1 $-1 $244 $380 #
straight-curve $-1 -1 $-1 0 -40 20 1 0 0 I I #
edge $-1 -1 $-1 $148 -20 $241 20 $145 $381 forward @7 unknown #
edge $-1 -1 $-1 $149 -20 $240 20 $146 $382 forward @7 unknown #
point $-1 -1 $-1 50 -40 20 #
point $-1 -1 $-1 50 40 20 #
face $-1 -1 $-1 $383 $384 $17 $-1 $385 forward single #
loop $-1 -1 $-1 $-1 $161 $151 #
plane-surface $-1 -1 $-1 18 -29.933259094191527 -1.7763568394002505e-015 1 0 0 0 0 -1 forward_v I I I I #
coedge $-1 -1 $-1 $386 $154 $164 $279 reversed $84 $-1 #
coedge $-1 -1 $-1 $154 $386 $155 $262 forward $84 $-1 #
coedge $-1 -1 $-1 $156 $155 $387 $388 reversed $50 $-1 #
edge $389 -1 $-1 $390 0 $266 20 $260 $391 forward @7 unknown #
coedge $-1 -1 $-1 $392 $393 $156 $264 reversed $394 $-1 #
edge $395 -1 $-1 $396 0 $267 20 $156 $397 forward @7 unknown #
coedge $-1 -1 $-1 $398 $157 $393 $399 forward $33 $-1 #
vertex $-1 -1 $-1 $159 $400 #
vertex $-1 -1 $-1 $158 $401 #
ellipse-curve $-1 -1 $-1 20 0 20 0 0 -1 30 0 0 1 I I #
ellipse-curve $-1 -1 $-1 -10 15 20 0 0 1 10 0 0 1 I I #
coedge $-1 -1 $-1 $160 $398 $402 $403 forward $33 $-1 #
coedge $-1 -1 $-1 $404 $405 $160 $272 reversed $384 $-1 #
edge $-1 -1 $-1 $406 -49 $275 9 $271 $407 forward @7 unknown #
coedge $-1 -1 $-1 $408 $161 $405 $409 reversed $257 $-1 #
coedge $-1 -1 $-1 $161 $408 $163 $278 forward $257 $-1 #
vertex $-1 -1 $-1 $162 $410 #
straight-curve $-1 -1 $-1 18 -14.966629547095764 20 0 1 0 I I #
coedge $-1 -1 $-1 $164 $163 $411 $412 reversed $152 $-1 #
edge $-1 -1 $-1 $413 0 $165 20 $274 $414 forward @7 unknown #
edge $-1 -1 $-1 $415 0 $166 20 $164 $416 forward @7 unknown #
point $-1 -1 $-1 18 -29.933259094191531 20 #
point $-1 -1 $-1 -9.578898198101836 5.0088702704629977 20 #
model_id-kcp-attrib $-1 -1 $-1 $-1 $169 1 1021382391 1021382391 593428481 8 #
face $417 -1 $-1 $418 $419 $7 $-1 $420 forward single #
loop $-1 -1 $-1 $-1 $357 $169 #
plane-surface $-1 -1 $-1 0 15 0 0 0 -1 -1 0 0 forward_v I I I I #
coedge $-1 -1 $-1 $421 $172 $422 $423 reversed $93 $-1 #
coedge $-1 -1 $-1 $172 $421 $424 $425 forward $93 $-1 #
coedge $-1 -1 $-1 $426 $173 $172 $289 forward $55 $-1 #
edge $427 -1 $-1 $428 -40 $429 40 $172 $430 forward @7 unknown #
coedge $-1 -1 $-1 $431 $422 $173 $291 reversed $432 $-1 #
edge $433 -1 $-1 $299 -40 $428 40 $290 $434 forward @7 unknown #
coedge $-1 -1 $-1 $174 $426 $435 $436 forward $55 $-1 #
coedge $-1 -1 $-1 $437 $438 $174 $294 reversed $439 $-1 #
edge $440 -1 $-1 $441 28.284271247461902 $298 40 $293 $442 forward @7 unknown #
coedge $-1 -1 $-1 $179 $175 $438 $443 reversed $297 $-1 #
coedge $-1 -1 $-1 $175 $179 $431 $444 forward $297 $-1 #
loop $-1 -1 $-1 $-1 $179 $445 #
vertex $-1 -1 $-1 $443 $446 #
vertex $-1 -1 $-1 $291 $447 #
straight-curve $-1 -1 $-1 0 -40 -20 -1 0 0 I I #
coedge $-1 -1 $-1 $448 $177 $449 $450 forward $57 $-1 #
coedge $-1 -1 $-1 $438 $437 $177 $303 reversed $439 $-1 #
edge $451 -1 $-1 $309 -40 $452 -28.284271247461902 $302 $453 forward @7 unknown #
coedge $-1 -1 $-1 $178 $448 $421 $454 forward $57 $-1 #
coedge $-1 -1 $-1 $422 $431 $178 $306 reversed $432 $-1 #
edge $455 -1 $-1 $456 -40 $308 40 $305 $457 forward @7 unknown #
attrib_edge_convexity-kcp-attrib $-1 -1 $458 $-1 $180 1 #
vertex $-1 -1 $-1 $306 $459 #
vertex $-1 -1 $-1 $303 $460 #
straight-curve $-1 -1 $-1 0 -40 20 1 0 0 I I #
coedge $-1 -1 $-1 $340 $181 $184 $318 forward $313 $-1 #
coedge $-1 -1 $-1 $181 $340 $333 $461 reversed $313 $-1 #
loop $-1 -1 $-1 $-1 $312 $331 #
attrib_edge_convexity-kcp-attrib $-1 -1 $462 $-1 $182 1 #
vertex $-1 -1 $-1 $182 $463 #
straight-curve $-1 -1 $-1 -30 0 20 0 1 0 I I #
edge $464 -1 $-1 $465 2.9738446968925372 $190 4.6456728319744638 $183 $222 forward @7 unknown #
edge $466 -1 $-1 $186 -20 $328 20 $311 $467 forward @7 unknown #
convexity-sys-attrib $-1 -1 $-1 $185 $101 #
point $-1 -1 $-1 -30 -30 20 #
straight-curve $-1 -1 $-1 28 -29.933259094191531 0 0 0 1 I I #
convexity-sys-attrib $-1 -1 $-1 $189 $103 #
point $-1 -1 $-1 28 -29.933259094191531 20 #
coedge $-1 -1 $-1 $345 $191 $468 $469 forward $95 $-1 #
edge $-1 -1 $-1 $193 1.637512475205122 $470 2.411864997362827 $191 $216 forward @7 unknown #
point $-1 -1 $-1 28 -29.933259094191531 -20 #
attrib_edge_convexity-kcp-attrib $-1 -1 $471 $-1 $194 1 #
vertex $-1 -1 $-1 $194 $472 #
straight-curve $-1 -1 $-1 0 -30 -20 1 0 0 I I #
model_id-kcp-attrib $-1 -1 $-1 $-1 $195 1 1021382391 1021382391 593428481 17 #
face $473 -1 $-1 $334 $313 $7 $-1 $474 forward single #
plane-surface $-1 -1 $-1 0 -30 0 0 1 0 0 0 1 forward_v I I I I #
coedge $-1 -1 $-1 $200 $199 $312 $461 forward $201 $-1 #
face $475 -1 $-1 $445 $201 $7 $-1 $476 forward single #
convexity-sys-attrib $-1 -1 $-1 $202 $113 #
coedge $-1 -1 $-1 $218 $477 $204 $337 reversed $170 $-1 #
edge $478 -1 $-1 $221 -0.60137847322780313 $465 1.528673691229415 $204 $479 forward @7 unknown #
attrib_edge_convexity-kcp-attrib $-1 -1 $480 $-1 $205 1 #
straight-curve $-1 -1 $-1 0 30 20 1 0 0 I I #
coedge $-1 -1 $-1 $312 $311 $208 $341 reversed $313 $-1 #
edge $481 -1 $-1 $343 -30 $328 30 $208 $482 forward @7 unknown #
attrib_edge_convexity-kcp-attrib $-1 -1 $483 $-1 $209 1 #
vertex $-1 -1 $-1 $341 $484 #
straight-curve $-1 -1 $-1 0 30 -20 -1 0 0 I I #
coedge $-1 -1 $-1 $210 $324 $485 $486 forward $95 $-1 #
coedge $-1 -1 $-1 $487 $213 $210 $347 reversed $352 $-1 #
edge $-1 -1 $-1 $488 -10 $215 0 $346 $489 forward @7 unknown #
coedge $-1 -1 $-1 $224 $212 $490 $491 forward $70 $-1 #
coedge $-1 -1 $-1 $492 $493 $212 $350 reversed $419 $-1 #
edge $494 -1 $-1 $353 -3.1415926535897931 $495 -2.411864997362827 $212 $496 forward @7 unknown #
coedge $-1 -1 $-1 $213 $487 $492 $497 reversed $352 $-1 #
loop $-1 -1 $-1 $-1 $213 $418 #
vertex $-1 -1 $-1 $350 $498 #
straight-curve $-1 -1 $-1 0 0 0 0 0 1 I I #
point $-1 -1 $-1 0 0 -20 #
coedge $-1 -1 $-1 $217 $223 $477 $499 forward $70 $-1 #
coedge $-1 -1 $-1 $500 $500 $217 $358 reversed $284 $-1 #
edge $501 -1 $-1 $502 -2.9738446968925372 $360 -2.3820453922854368 $217 $503 forward @7 unknown #
coedge $-1 -1 $-1 $477 $218 $500 $504 forward $170 $-1 #
vertex $-1 -1 $-1 $219 $505 #
straight-curve $-1 -1 $-1 8.2455648647685003 20.657796396203672 10.000000000000002 0 0 1 I I #
convexity-sys-attrib $-1 -1 $-1 $220 $126 #
point $-1 -1 $-1 8.2455648647685003 20.657796396203672 20.000000000000004 #
model_id-kcp-attrib $-1 -1 $-1 $-1 $226 1 1021382391 1021382391 593428481 14 #
face $506 -1 $-1 $507 $508 $7 $-1 $509 reversed single #
loop $-1 -1 $-1 $-1 $510 $226 #
plane-surface $-1 -1 $-1 50 0 0 -1 0 0 0 0 1 forward_v I I I I #
coedge $-1 -1 $-1 $234 $232 $236 $372 reversed $133 $-1 #
edge $-1 -1 $-1 $247 -20 $374 20 $246 $511 forward @7 unknown #
vertex $-1 -1 $-1 $372 $512 #
straight-curve $-1 -1 $-1 -50 -40 0 0 0 -1 I I #
edge $-1 -1 $-1 $370 -40 $374 40 $368 $513 forward @7 unknown #
straight-curve $-1 -1 $-1 0 -40 -20 -1 0 0 I I #
vertex $-1 -1 $-1 $239 $514 #
straight-curve $-1 -1 $-1 0 40 -20 1 0 0 I I #
point $-1 -1 $-1 50 40 -20 #
point $-1 -1 $-1 50 -40 -20 #
straight-curve $-1 -1 $-1 -50 0 20 0 -1 0 I I #
point $-1 -1 $-1 -50 40 20 #
point $-1 -1 $-1 -50 -40 20 #
straight-curve $-1 -1 $-1 50 -40 0 0 0 -1 I I #
straight-curve $-1 -1 $-1 50 40 0 0 0 -1 I I #
face $-1 -1 $-1 $515 $516 $17 $-1 $517 forward single #
loop $-1 -1 $-1 $-1 $271 $256 #
plane-surface $-1 -1 $-1 18 -30 -1.7763568394002505e-015 0 -1 0 0 0 -1 forward_v I I I I #
coedge $-1 -1 $-1 $260 $259 $518 $519 reversed $84 $-1 #
coedge $-1 -1 $-1 $518 $520 $261 $388 forward $521 $-1 #
edge $522 -1 $-1 $396 1.6375124752051218 $390 2.3820453922854372 $261 $523 forward @7 unknown #
convexity-sys-attrib $-1 -1 $-1 $-1 $262 #
vertex $-1 -1 $-1 $388 $524 #
straight-curve $-1 -1 $-1 -1.7544351352314997 20.657796396203672 -1.7763568394002505e-015 0 0 1 I I #
coedge $-1 -1 $-1 $525 $263 $520 $526 reversed $394 $-1 #
coedge $-1 -1 $-1 $263 $525 $265 $399 reversed $394 $-1 #
loop $-1 -1 $-1 $-1 $393 $527 #
convexity-sys-attrib $-1 -1 $-1 $-1 $264 #
vertex $-1 -1 $-1 $526 $528 #
straight-curve $-1 -1 $-1 18 29.933259094191534 -1.7763568394002505e-015 0 0 1 I I #
coedge $-1 -1 $-1 $270 $265 $529 $530 forward $33 $-1 #
edge $-1 -1 $-1 $267 14.933259094191531 $531 15 $393 $532 forward @7 unknown #
point $-1 -1 $-1 -1.7544351352314997 20.657796396203672 20 #
point $-1 -1 $-1 18 29.933259094191531 20 #
coedge $-1 -1 $-1 $533 $534 $270 $403 reversed $516 $-1 #
edge $-1 -1 $-1 $535 -45 $406 15 $402 $536 forward @7 unknown #
coedge $-1 -1 $-1 $537 $271 $534 $538 reversed $384 $-1 #
coedge $-1 -1 $-1 $271 $537 $273 $409 forward $384 $-1 #
vertex $-1 -1 $-1 $272 $539 #
straight-curve $-1 -1 $-1 9 -30 20 1 0 0 I I #
coedge $-1 -1 $-1 $274 $273 $540 $541 reversed $257 $-1 #
edge $-1 -1 $-1 $542 0 $275 20 $405 $543 forward @7 unknown #
point $-1 -1 $-1 18 -30 20 #
coedge $-1 -1 $-1 $540 $518 $277 $412 forward $521 $-1 #
edge $544 -1 $-1 $415 2.9738446968925372 $413 4.6456728319744647 $277 $545 forward @7 unknown #
vertex $-1 -1 $-1 $412 $546 #
straight-curve $-1 -1 $-1 18 -29.933259094191527 -1.7763568394002505e-015 0 0 1 I I #
vertex $-1 -1 $-1 $412 $547 #
straight-curve $-1 -1 $-1 -9.578898198101836 5.0088702704629977 -1.7763568394002505e-015 0 0 1 I I #
model_id-kcp-attrib $-1 -1 $-1 $-1 $283 1 1021382391 1021382391 593428481 9 #
face $548 -1 $-1 $549 $352 $7 $-1 $550 reversed single #
loop $-1 -1 $-1 $-1 $349 $283 #
plane-surface $-1 -1 $-1 0 -10 0 0 0 1 1 0 0 forward_v I I I I #
coedge $-1 -1 $-1 $287 $286 $304 $454 reversed $93 $-1 #
coedge $-1 -1 $-1 $290 $305 $286 $423 forward $432 $-1 #
edge $551 -1 $-1 $456 -20 $428 20 $286 $552 forward @7 unknown #
coedge $-1 -1 $-1 $553 $554 $287 $425 reversed $508 $-1 #
edge $555 -1 $-1 $556 -20 $429 20 $424 $557 forward @7 unknown #
coedge $-1 -1 $-1 $292 $288 $554 $558 forward $55 $-1 #
attrib_edge_convexity-kcp-attrib $-1 -1 $559 $-1 $289 1 #
vertex $-1 -1 $-1 $289 $560 #
vertex $-1 -1 $-1 $558 $561 #
straight-curve $-1 -1 $-1 0 40 -20 1 0 0 I I #
coedge $-1 -1 $-1 $305 $290 $296 $444 reversed $432 $-1 #
loop $-1 -1 $-1 $-1 $422 $562 #
attrib_edge_convexity-kcp-attrib $-1 -1 $563 $-1 $291 1 #
straight-curve $-1 -1 $-1 -40 0 -20 0 1 0 I I #
coedge $-1 -1 $-1 $564 $510 $292 $436 reversed $366 $-1 #
edge $-1 -1 $-1 $565 -1.2309594173407747 $441 1.2309594173407747 $292 $216 forward @7 unknown #
coedge $-1 -1 $-1 $302 $293 $510 $566 forward $439 $-1 #
coedge $-1 -1 $-1 $293 $302 $295 $443 forward $439 $-1 #
loop $-1 -1 $-1 $-1 $437 $507 #
attrib_edge_convexity-kcp-attrib $-1 -1 $567 $-1 $294 1 #
vertex $-1 -1 $-1 $294 $568 #
straight-curve $-1 -1 $-1 40 0 -20 0 -1 0 I I #
edge $569 -1 $-1 $309 -20 $298 20 $438 $570 forward @7 unknown #
edge $571 -1 $-1 $308 -20 $299 20 $431 $572 forward @7 unknown #
face $573 -1 $-1 $562 $297 $7 $-1 $574 reversed single #
point $-1 -1 $-1 40 -40 -20 #
point $-1 -1 $-1 -40 -40 -20 #
coedge $-1 -1 $-1 $304 $301 $553 $575 forward $57 $-1 #
coedge $-1 -1 $-1 $510 $564 $301 $450 reversed $366 $-1 #
edge $576 -1 $-1 $452 -1.2309594173407747 $577 1.2309594173407747 $301 $222 forward @7 unknown #
attrib_edge_convexity-kcp-attrib $-1 -1 $578 $-1 $303 1 #
vertex $-1 -1 $-1 $303 $579 #
straight-curve $-1 -1 $-1 40 0 20 0 1 0 I I #
edge $580 -1 $-1 $556 -40 $456 40 $421 $581 forward @7 unknown #
attrib_edge_convexity-kcp-attrib $-1 -1 $582 $-1 $306 1 #
vertex $-1 -1 $-1 $454 $583 #
straight-curve $-1 -1 $-1 -40 0 20 0 -1 0 I I #
convexity-sys-attrib $-1 -1 $-1 $307 $180 #
point $-1 -1 $-1 -40 -40 20 #
point $-1 -1 $-1 40 -40 20 #
edge $584 -1 $-1 $315 -20 $343 20 $333 $585 forward @7 unknown #
convexity-sys-attrib $-1 -1 $-1 $314 $182 #
point $-1 -1 $-1 -30 30 20 #
attrib_edge_convexity-kcp-attrib $-1 -1 $586 $-1 $317 1 #
vertex $-1 -1 $-1 $499 $587 #
attrib_edge_convexity-kcp-attrib $-1 -1 $588 $-1 $318 2 #
straight-curve $-1 -1 $-1 -30 -30 0 0 0 -1 I I #
coedge $-1 -1 $-1 $490 $589 $324 $469 reversed $590 $-1 #
edge $-1 -1 $-1 $470 -7.6393202250021019 $591 10 $468 $592 forward @7 unknown #
vertex $-1 -1 $-1 $325 $593 #
convexity-sys-attrib $-1 -1 $-1 $327 $194 #
point $-1 -1 $-1 -30 -30 -20 #
model_id-kcp-attrib $-1 -1 $-1 $-1 $331 1 1021382391 1021382391 593428481 18 #
plane-surface $-1 -1 $-1 -30 0 0 1 0 0 0 0 -1 forward_v I I I I #
model_id-kcp-attrib $-1 -1 $-1 $-1 $334 1 1021382391 1021382391 593428481 19 #
plane-surface $-1 -1 $-1 0 30 0 0 -1 0 0 0 -1 forward_v I I I I #
coedge $-1 -1 $-1 $336 $359 $356 $499 reversed $170 $-1 #
attrib_edge_convexity-kcp-attrib $-1 -1 $594 $-1 $337 1 #
ellipse-curve $-1 -1 $-1 0 15 20 0 0 -1 10 0 0 1 I I #
convexity-sys-attrib $-1 -1 $-1 $338 $205 #
attrib_edge_convexity-kcp-attrib $-1 -1 $595 $-1 $341 1 #
straight-curve $-1 -1 $-1 -30 0 -20 0 -1 0 I I #
convexity-sys-attrib $-1 -1 $-1 $342 $209 #
point $-1 -1 $-1 -30 30 -20 #
coedge $-1 -1 $-1 $596 $597 $345 $486 reversed $598 $-1 #
edge $-1 -1 $-1 $591 -10 $488 10 $485 $599 forward @7 unknown #
coedge $-1 -1 $-1 $351 $346 $597 $600 reversed $352 $-1 #
vertex $-1 -1 $-1 $347 $601 #
straight-curve $-1 -1 $-1 0 0 -20 1 0 0 I I #
coedge $-1 -1 $-1 $602 $468 $348 $491 reversed $590 $-1 #
edge $-1 -1 $-1 $495 0 $470 20 $348 $603 forward @7 unknown #
coedge $-1 -1 $-1 $604 $349 $351 $497 forward $419 $-1 #
coedge $-1 -1 $-1 $349 $604 $602 $605 forward $419 $-1 #
attrib_edge_convexity-kcp-attrib $-1 -1 $606 $-1 $350 2 #
vertex $-1 -1 $-1 $350 $607 #
ellipse-curve $-1 -1 $-1 30 0 0 0 0 1 30 0 0 1 I I #
edge $608 -1 $-1 $353 0 $609 10 $351 $610 forward @7 unknown #
point $-1 -1 $-1 0 0 0 #
edge $-1 -1 $-1 $465 -10.000000000000002 $502 10.000000000000002 $356 $611 forward @7 unknown #
coedge $-1 -1 $-1 $357 $357 $359 $504 reversed $284 $-1 #
attrib_edge_convexity-kcp-attrib $-1 -1 $612 $-1 $358 1 #
vertex $-1 -1 $-1 $499 $613 #
ellipse-curve $-1 -1 $-1 30 0 0 0 0 -1 30 0 0 1 I I #
edge $614 -1 $-1 $360 -0.60137847322780313 $502 1.528673691229415 $500 $615 forward @7 unknown #
point $-1 -1 $-1 8.2455648647685003 20.657796396203672 0 #
model_id-kcp-attrib $-1 -1 $-1 $-1 $365 1 1021382391 1021382391 593428481 15 #
face $616 -1 $-1 $195 $439 $7 $-1 $509 reversed single #
loop $-1 -1 $-1 $-1 $617 $365 #
plane-surface $-1 -1 $-1 40 0 0 -1 0 0 0 0 1 forward_v I I I I #
coedge $-1 -1 $-1 $435 $449 $437 $566 reversed $366 $-1 #
straight-curve $-1 -1 $-1 -50 40 0 0 0 -1 I I #
point $-1 -1 $-1 -50 -40 -20 #
straight-curve $-1 -1 $-1 -50 0 -20 0 1 0 I I #
point $-1 -1 $-1 -50 40 -20 #
face $-1 -1 $-1 $527 $618 $17 $-1 $619 forward single #
loop $-1 -1 $-1 $-1 $402 $383 #
plane-surface $-1 -1 $-1 -40 -30 -1.7763568394002505e-015 -1 0 0 0 0 1 forward_v I I I I #
coedge $-1 -1 $-1 $411 $387 $386 $519 forward $521 $-1 #
edge $620 -1 $-1 $390 -0.60137847322780313 $415 1.5286736912294152 $386 $621 forward @7 unknown #
coedge $-1 -1 $-1 $387 $622 $392 $526 forward $521 $-1 #
loop $-1 -1 $-1 $-1 $411 $623 #
convexity-sys-attrib $-1 -1 $-1 $-1 $388 #
ellipse-curve $-1 -1 $-1 20 0 0 0 0 1 30 0 0 1 I I #
point $-1 -1 $-1 -1.7544351352314997 20.657796396203672 -1.7763568394002505e-015 #
coedge $-1 -1 $-1 $393 $392 $624 $625 forward $394 $-1 #
edge $626 -1 $-1 $627 -35 $396 -34.933259094191527 $392 $628 forward @7 unknown #
face $-1 -1 $-1 $623 $394 $17 $-1 $629 forward single #
point $-1 -1 $-1 18 29.933259094191531 -1.7763568394002505e-015 #
coedge $-1 -1 $-1 $624 $630 $398 $530 reversed $618 $-1 #
edge $-1 -1 $-1 $531 -38 $535 20 $529 $631 forward @7 unknown #
vertex $-1 -1 $-1 $530 $632 #
straight-curve $-1 -1 $-1 18 15 20 0 1 0 I I #
coedge $-1 -1 $-1 $633 $402 $630 $634 reversed $516 $-1 #
coedge $-1 -1 $-1 $402 $633 $404 $538 forward $516 $-1 #
vertex $-1 -1 $-1 $403 $635 #
straight-curve $-1 -1 $-1 -40 -15 20 0 -1 0 I I #
coedge $-1 -1 $-1 $405 $404 $636 $637 reversed $384 $-1 #
edge $-1 -1 $-1 $638 0 $406 20 $534 $639 forward @7 unknown #
point $-1 -1 $-1 -40 -30 20 #
coedge $-1 -1 $-1 $636 $411 $408 $541 forward $521 $-1 #
edge $640 -1 $-1 $413 24.933259094191531 $542 25 $408 $641 forward @7 unknown #
vertex $-1 -1 $-1 $541 $642 #
straight-curve $-1 -1 $-1 18 -30 -1.7763568394002505e-015 0 0 1 I I #
convexity-sys-attrib $-1 -1 $-1 $-1 $412 #
ellipse-curve $-1 -1 $-1 20 0 0 0 0 1 30 0 0 1 I I #
point $-1 -1 $-1 18 -29.933259094191531 -1.7763568394002505e-015 #
point $-1 -1 $-1 -9.578898198101836 5.0088702704629977 -1.7763568394002505e-015 #
model_id-kcp-attrib $-1 -1 $-1 $-1 $418 1 1021382391 1021382391 593428481 10 #
face $643 -1 $-1 $644 $590 $7 $-1 $645 reversed single #
plane-surface $-1 -1 $-1 0 0 -10 0 -1 0 0 0 -1 forward_v I I I I #
attrib_edge_convexity-kcp-attrib $-1 -1 $646 $-1 $423 1 #
straight-curve $-1 -1 $-1 -40 40 0 0 0 -1 I I #
coedge $-1 -1 $-1 $617 $424 $448 $575 reversed $508 $-1 #
coedge $-1 -1 $-1 $424 $617 $426 $558 reversed $508 $-1 #
attrib_edge_convexity-kcp-attrib $-1 -1 $647 $-1 $425 1 #
vertex $-1 -1 $-1 $575 $648 #
straight-curve $-1 -1 $-1 40 40 0 0 0 -1 I I #
edge $649 -1 $-1 $429 -40 $565 -28.284271247461902 $554 $442 forward @7 unknown #
convexity-sys-attrib $-1 -1 $-1 $427 $289 #
point $-1 -1 $-1 -40 40 -20 #
point $-1 -1 $-1 40 40 -20 #
face $650 -1 $-1 $-1 $432 $7 $-1 $651 reversed single #
convexity-sys-attrib $-1 -1 $-1 $433 $291 #
coedge $-1 -1 $-1 $449 $435 $617 $652 reversed $366 $-1 #
vertex $-1 -1 $-1 $558 $653 #
edge $654 -1 $-1 $441 -20 $452 20 $437 $655 forward @7 unknown #
convexity-sys-attrib $-1 -1 $-1 $440 $294 #
point $-1 -1 $-1 40 -28.284271247461902 -20 #
attrib_edge_convexity-kcp-attrib $-1 -1 $656 $-1 $443 1 #
straight-curve $-1 -1 $-1 40 -40 0 0 0 -1 I I #
attrib_edge_convexity-kcp-attrib $-1 -1 $657 $-1 $444 1 #
straight-curve $-1 -1 $-1 -40 -40 0 0 0 -1 I I #
model_id-kcp-attrib $-1 -1 $-1 $-1 $445 1 1021382391 1021382391 593428481 20 #
plane-surface $-1 -1 $-1 0 -40 0 0 1 0 0 0 1 forward_v I I I I #
edge $658 -1 $-1 $577 28.284271247461902 $556 40 $553 $453 forward @7 unknown #
attrib_edge_convexity-kcp-attrib $-1 -1 $659 $-1 $450 1 #
vertex $-1 -1 $-1 $575 $660 #
convexity-sys-attrib $-1 -1 $-1 $451 $303 #
point $-1 -1 $-1 40 -28.284271247461902 20 #
attrib_edge_convexity-kcp-attrib $-1 -1 $661 $-1 $454 1 #
straight-curve $-1 -1 $-1 0 40 20 -1 0 0 I I #
convexity-sys-attrib $-1 -1 $-1 $455 $306 #
point $-1 -1 $-1 -40 40 20 #
attrib_edge_convexity-kcp-attrib $-1 -1 $662 $-1 $461 2 #
straight-curve $-1 -1 $-1 -30 30 0 0 0 -1 I I #
convexity-sys-attrib $-1 -1 $-1 $464 $317 #
point $-1 -1 $-1 0.42110180189816493 5.0088702704629977 20.000000000000004 #
convexity-sys-attrib $-1 -1 $-1 $466 $318 #
coedge $-1 -1 $-1 $468 $602 $596 $663 forward $590 $-1 #
loop $-1 -1 $-1 $-1 $490 $549 #
vertex $-1 -1 $-1 $486 $664 #
straight-curve $-1 -1 $-1 0 -20 -20 -1 0 0 I I #
point $-1 -1 $-1 7.6393202250021019 -20 -20 #
convexity-sys-attrib $-1 -1 $-1 $478 $337 #
convexity-sys-attrib $-1 -1 $-1 $481 $341 #
coedge $-1 -1 $-1 $665 $485 $589 $663 reversed $598 $-1 #
coedge $-1 -1 $-1 $485 $665 $487 $600 forward $598 $-1 #
loop $-1 -1 $-1 $-1 $597 $644 #
straight-curve $-1 -1 $-1 -10 -10 -20 0 1 0 I I #
edge $-1 -1 $-1 $609 -10 $488 10 $487 $666 forward @7 unknown #
point $-1 -1 $-1 -10 0 -20 #
coedge $-1 -1 $-1 $589 $490 $493 $605 reversed $590 $-1 #
straight-curve $-1 -1 $-1 7.6393202250021019 -20 0 0 0 -1 I I #
coedge $-1 -1 $-1 $493 $492 $665 $667 forward $419 $-1 #
edge $668 -1 $-1 $669 -10 $495 7.6393202250021019 $602 $670 forward @7 unknown #
convexity-sys-attrib $-1 -1 $-1 $494 $350 #
point $-1 -1 $-1 7.6393202250021019 -20 0 #
attrib_edge_convexity-kcp-attrib $-1 -1 $671 $-1 $497 1 #
vertex $-1 -1 $-1 $497 $672 #
straight-curve $-1 -1 $-1 0 0 0 -1 0 0 I I #
straight-curve $-1 -1 $-1 0.42110180189816493 5.0088702704629977 10.000000000000002 0 0 -1 I I #
convexity-sys-attrib $-1 -1 $-1 $501 $358 #
point $-1 -1 $-1 0.42110180189816493 5.0088702704629977 0 #
attrib_edge_convexity-kcp-attrib $-1 -1 $673 $-1 $504 2 #
ellipse-curve $-1 -1 $-1 0 15 0 0 0 -1 10 0 0 1 I I #
model_id-kcp-attrib $-1 -1 $-1 $-1 $507 1 1021382391 1021382391 593428481 16 #
coedge $-1 -1 $-1 $554 $553 $564 $652 forward $508 $-1 #
loop $-1 -1 $-1 $-1 $529 $515 #
plane-surface $-1 -1 $-1 -40 30 -1.7763568394002505e-015 0 1 0 0 0 1 forward_v I I I I #
convexity-sys-attrib $-1 -1 $-1 $-1 $519 #
ellipse-curve $-1 -1 $-1 -10 15 0 0 0 -1 10 0 0 1 I I #
coedge $-1 -1 $-1 $520 $674 $675 $676 forward $521 $-1 #
face $-1 -1 $-1 $-1 $521 $17 $-1 $677 reversed single #
coedge $-1 -1 $-1 $675 $529 $525 $625 reversed $618 $-1 #
edge $-1 -1 $-1 $627 0 $531 20 $525 $678 forward @7 unknown #
convexity-sys-attrib $-1 -1 $-1 $-1 $526 #
vertex $-1 -1 $-1 $676 $679 #
straight-curve $-1 -1 $-1 18 -5 0 0 -1 0 I I #
plane-surface $-1 -1 $-1 18 30 -1.7763568394002505e-015 1 0 0 0 0 -1 forward_v I I I I #
coedge $-1 -1 $-1 $529 $675 $533 $634 forward $618 $-1 #
straight-curve $-1 -1 $-1 -20 30 20 -1 0 0 I I #
point $-1 -1 $-1 18 30 20 #
coedge $-1 -1 $-1 $534 $533 $674 $680 reversed $516 $-1 #
edge $-1 -1 $-1 $681 0 $535 20 $630 $682 forward @7 unknown #
point $-1 -1 $-1 -40 30 20 #
coedge $-1 -1 $-1 $674 $540 $537 $637 forward $521 $-1 #
edge $683 -1 $-1 $542 -28.590169943749473 $638 29.409830056250527 $537 $684 forward @7 unknown #
vertex $-1 -1 $-1 $637 $685 #
straight-curve $-1 -1 $-1 -40 -30 -1.7763568394002505e-015 0 0 1 I I #
convexity-sys-attrib $-1 -1 $-1 $-1 $541 #
straight-curve $-1 -1 $-1 18 -5 0 0 -1 0 I I #
point $-1 -1 $-1 18 -30 -1.7763568394002505e-015 #
model_id-kcp-attrib $-1 -1 $-1 $-1 $549 1 1021382391 1021382391 593428481 11 #
face $686 -1 $-1 $128 $598 $7 $-1 $687 reversed single #
plane-surface $-1 -1 $-1 0 -20 -10 0 1 0 0 0 1 forward_v I I I I #
convexity-sys-attrib $-1 -1 $-1 $551 $423 #
convexity-sys-attrib $-1 -1 $-1 $555 $425 #
point $-1 -1 $-1 40 40 20 #
attrib_edge_convexity-kcp-attrib $-1 -1 $688 $-1 $558 1 #
model_id-kcp-attrib $-1 -1 $-1 $-1 $562 1 1021382391 1021382391 593428481 21 #
plane-surface $-1 -1 $-1 -40 0 0 1 0 0 0 0 -1 forward_v I I I I #
edge $689 -1 $-1 $577 -20 $565 20 $617 $690 forward @7 unknown #
point $-1 -1 $-1 40 28.284271247461902 -20 #
attrib_edge_convexity-kcp-attrib $-1 -1 $691 $-1 $566 2 #
straight-curve $-1 -1 $-1 40 -28.284271247461902 0 0 0 1 I I #
convexity-sys-attrib $-1 -1 $-1 $569 $443 #
convexity-sys-attrib $-1 -1 $-1 $571 $444 #
attrib_edge_convexity-kcp-attrib $-1 -1 $692 $-1 $575 1 #
convexity-sys-attrib $-1 -1 $-1 $576 $450 #
point $-1 -1 $-1 40 28.284271247461902 20 #
convexity-sys-attrib $-1 -1 $-1 $580 $454 #
convexity-sys-attrib $-1 -1 $-1 $584 $461 #
edge $-1 -1 $-1 $669 -10 $591 10 $596 $693 forward @7 unknown #
point $-1 -1 $-1 -10 -20 -20 #
coedge $-1 -1 $-1 $597 $596 $604 $667 reversed $598 $-1 #
straight-curve $-1 -1 $-1 -10 0 -10 0 0 -1 I I #
edge $694 -1 $-1 $609 -10 $669 10 $665 $695 forward @7 unknown #
attrib_edge_convexity-kcp-attrib $-1 -1 $696 $-1 $605 1 #
vertex $-1 -1 $-1 $667 $697 #
straight-curve $-1 -1 $-1 0 -20 0 1 0 0 I I #
convexity-sys-attrib $-1 -1 $-1 $608 $497 #
point $-1 -1 $-1 -10 0 0 #
convexity-sys-attrib $-1 -1 $-1 $614 $504 #
coedge $-1 -1 $-1 $622 $636 $633 $680 forward $521 $-1 #
coedge $-1 -1 $-1 $630 $624 $622 $676 reversed $618 $-1 #
edge $698 -1 $-1 $681 -29.409830056250527 $627 28.590169943749473 $675 $699 forward @7 unknown #
plane-surface $-1 -1 $-1 -13.286575248456618 0.10040284759716485 0 0 0 1 1 0 0 forward_v I I I I #
straight-curve $-1 -1 $-1 18 30 -1.7763568394002505e-015 0 0 1 I I #
point $-1 -1 $-1 18 30 -1.7763568394002505e-015 #
edge $700 -1 $-1 $638 -25 $681 35 $633 $701 forward @7 unknown #
vertex $-1 -1 $-1 $680 $702 #
straight-curve $-1 -1 $-1 -40 30 -1.7763568394002505e-015 0 0 1 I I #
convexity-sys-attrib $-1 -1 $-1 $-1 $637 #
straight-curve $-1 -1 $-1 -10.590169943749475 -30 0 -1 0 0 I I #
point $-1 -1 $-1 -40 -30 -1.7763568394002505e-015 #
model_id-kcp-attrib $-1 -1 $-1 $-1 $644 1 1021382391 1021382391 593428481 12 #
plane-surface $-1 -1 $-1 -10 -10 -10 1 0 0 0 0 -1 forward_v I I I I #
convexity-sys-attrib $-1 -1 $-1 $649 $558 #
attrib_edge_convexity-kcp-attrib $-1 -1 $703 $-1 $652 2 #
straight-curve $-1 -1 $-1 40 28.284271247461902 0 0 0 -1 I I #
convexity-sys-attrib $-1 -1 $-1 $654 $566 #
convexity-sys-attrib $-1 -1 $-1 $658 $575 #
straight-curve $-1 -1 $-1 -10 -20 -10 0 0 -1 I I #
attrib_edge_convexity-kcp-attrib $-1 -1 $704 $-1 $667 1 #
straight-curve $-1 -1 $-1 -10 -10 0 0 -1 0 I I #
convexity-sys-attrib $-1 -1 $-1 $668 $605 #
point $-1 -1 $-1 -10 -20 0 #
convexity-sys-attrib $-1 -1 $-1 $-1 $676 #
straight-curve $-1 -1 $-1 -10.590169943749475 30 0 1 0 0 I I #
convexity-sys-attrib $-1 -1 $-1 $-1 $680 #
straight-curve $-1 -1 $-1 -40 -5 0 0 1 0 I I #
point $-1 -1 $-1 -40 30 -1.7763568394002505e-015 #
convexity-sys-attrib $-1 -1 $-1 $689 $652 #
convexity-sys-attrib $-1 -1 $-1 $694 $667 #
End-of-ACIS-data 