106 0 1 0           
body $-1 $1 $-1 $-1 #
lump $-1 $-1 $2 $0 #
shell $-1 $-1 $-1 $3 $1 #
face $-1 $4 $5 $2 $-1 $6 reversed single #
face $-1 $7 $8 $2 $-1 $6 reversed single #
loop $-1 $-1 $9 $3 #
plane-surface $-1 28 0 0 1 0 0 0 0 -1 0 I I I I #
face $-1 $10 $11 $2 $-1 $12 forward single #
loop $-1 $-1 $13 $4 #
coedge $-1 $14 $15 $16 $17 1 $5 $-1 #
face $-1 $18 $19 $2 $-1 $20 reversed single #
loop $-1 $21 $22 $7 #
plane-surface $-1 0 0 20 0 0 1 1 0 0 0 I I I I #
coedge $-1 $23 $24 $25 $26 1 $8 $-1 #
coedge $-1 $27 $9 $28 $29 1 $5 $-1 #
coedge $-1 $9 $27 $30 $31 1 $5 $-1 #
coedge $-1 $32 $33 $9 $17 0 $34 $-1 #
edge $-1 $35 $36 $16 $37 0 #
face $-1 $38 $39 $2 $-1 $40 reversed single #
loop $-1 $41 $42 $10 #
plane-surface $-1 0 0 -20 0 0 1 1 0 0 0 I I I I #
loop $-1 $-1 $43 $7 #
coedge $-1 $44 $45 $46 $47 0 $11 $-1 #
coedge $-1 $48 $13 $45 $49 1 $8 $-1 #
coedge $-1 $13 $48 $50 $51 1 $8 $-1 #
coedge $-1 $52 $46 $13 $26 0 $53 $-1 #
edge $-1 $54 $55 $25 $56 0 #
coedge $-1 $15 $14 $57 $58 1 $5 $-1 #
coedge $-1 $59 $60 $14 $29 0 $11 $-1 #
edge $-1 $61 $35 $14 $62 0 #
coedge $-1 $63 $64 $15 $31 0 $41 $-1 #
edge $-1 $36 $65 $15 $66 0 #
coedge $-1 $67 $16 $64 $68 1 $34 $-1 #
coedge $-1 $16 $69 $59 $70 1 $34 $-1 #
loop $-1 $-1 $71 $72 #
vertex $-1 $70 $73 #
vertex $-1 $68 $74 #
straight-curve $-1 28 29.933259094191531 0 0 0 -1 I I #
face $-1 $75 $76 $2 $-1 $77 reversed single #
loop $-1 $-1 $78 $18 #
plane-surface $-1 0 40 0 0 -1 0 0 0 -1 0 I I I I #
loop $-1 $-1 $50 $10 #
coedge $-1 $79 $80 $81 $82 0 $19 $-1 #
coedge $-1 $83 $84 $85 $86 0 $21 $-1 #
coedge $-1 $60 $22 $87 $88 0 $11 $-1 #
coedge $-1 $22 $89 $23 $49 0 $11 $-1 #
coedge $-1 $25 $90 $22 $47 1 $53 $-1 #
edge $-1 $54 $91 $22 $92 0 #
coedge $-1 $24 $23 $71 $93 1 $8 $-1 #
edge $-1 $94 $54 $23 $62 0 #
coedge $-1 $95 $96 $24 $51 0 $41 $-1 #
edge $-1 $55 $97 $24 $66 0 #
coedge $-1 $90 $25 $96 $98 1 $53 $-1 #
loop $-1 $-1 $25 $99 #
vertex $-1 $47 $100 #
vertex $-1 $98 $101 #
straight-curve $-1 28 -30 0 0 0 -1 I I #
coedge $-1 $102 $103 $27 $58 0 $104 $-1 #
edge $-1 $65 $61 $57 $105 0 #
coedge $-1 $106 $28 $33 $70 0 $11 $-1 #
coedge $-1 $28 $44 $102 $107 0 $11 $-1 #
vertex $-1 $107 $108 #
straight-curve $-1 28 0 20 0 -1 0 I I #
coedge $-1 $109 $30 $103 $110 0 $41 $-1 #
coedge $-1 $30 $111 $32 $68 0 $41 $-1 #
vertex $-1 $110 $112 #
straight-curve $-1 28 0 -20 0 1 0 I I #
coedge $-1 $113 $32 $114 $115 0 $34 $-1 #
edge $-1 $116 $36 $64 $117 0 #
coedge $-1 $33 $118 $119 $120 0 $34 $-1 #
edge $-1 $35 $121 $59 $122 0 #
coedge $-1 $123 $124 $48 $93 0 $34 $-1 #
face $-1 $125 $34 $2 $-1 $126 forward single #
point $-1 28 29.933259094191531 20 #
point $-1 28 29.933259094191531 -20 #
face $-1 $127 $128 $2 $-1 $129 reversed single #
loop $-1 $-1 $119 $38 #
cone-surface $-1 0 15 10 0 0 1 10 0 0 1 I I 0 1 0 I I I I #
coedge $-1 $130 $131 $132 $133 1 $39 $-1 #
coedge $-1 $132 $42 $134 $135 0 $19 $-1 #
coedge $-1 $42 $136 $137 $138 0 $19 $-1 #
coedge $-1 $139 $140 $42 $82 1 $141 $-1 #
edge $-1 $142 $143 $81 $144 0 #
coedge $-1 $145 $43 $146 $147 0 $21 $-1 #
coedge $-1 $43 $148 $149 $150 0 $21 $-1 #
coedge $-1 $140 $139 $43 $86 1 $141 $-1 #
edge $-1 $151 $152 $85 $153 0 #
coedge $-1 $154 $155 $44 $88 1 $156 $-1 #
edge $-1 $91 $157 $44 $158 0 #
coedge $-1 $45 $106 $123 $159 0 $11 $-1 #
coedge $-1 $46 $52 $154 $160 1 $53 $-1 #
vertex $-1 $47 $161 #
straight-curve $-1 0 -30 20 -1 0 0 I I #
edge $-1 $97 $94 $71 $162 0 #
vertex $-1 $159 $163 #
coedge $-1 $164 $50 $124 $165 0 $41 $-1 #
coedge $-1 $50 $109 $52 $98 0 $41 $-1 #
vertex $-1 $165 $166 #
edge $-1 $167 $55 $96 $168 0 #
face $-1 $169 $53 $2 $-1 $170 forward single #
point $-1 28 -30 20 #
point $-1 28 -30 -20 #
coedge $-1 $171 $57 $60 $107 1 $104 $-1 #
coedge $-1 $57 $171 $63 $110 1 $104 $-1 #
loop $-1 $-1 $57 $172 #
straight-curve $-1 28 30 0 0 0 1 I I #
coedge $-1 $89 $59 $173 $174 0 $11 $-1 #
edge $-1 $157 $61 $60 $175 0 #
point $-1 28 30 20 #
coedge $-1 $96 $63 $176 $177 0 $41 $-1 #
edge $-1 $65 $178 $63 $179 0 #
coedge $-1 $64 $180 $181 $182 0 $41 $-1 #
point $-1 28 30 -20 #
coedge $-1 $183 $67 $184 $185 0 $34 $-1 #
coedge $-1 $181 $186 $67 $115 1 $187 $-1 #
edge $-1 $116 $188 $67 $189 0 #
vertex $-1 $68 $190 #
ellipse-curve $-1 30 0 -20 0 0 -1 30 0 0 1 I I #
coedge $-1 $69 $191 $192 $193 0 $34 $-1 #
coedge $-1 $194 $173 $69 $120 1 $76 $-1 #
edge $-1 $195 $121 $69 $196 0 #
vertex $-1 $70 $197 #
ellipse-curve $-1 30 0 20 0 0 1 30 0 0 1 I I #
coedge $-1 $191 $71 $89 $159 1 $34 $-1 #
coedge $-1 $71 $183 $95 $165 1 $34 $-1 #
face $-1 $198 $199 $2 $-1 $126 forward single #
cone-surface $-1 30 0 0 0 0 1 30 0 0 1 I I 0 1 0 I I I I #
face $-1 $200 $201 $2 $-1 $202 forward single #
loop $-1 $-1 $192 $75 #
plane-surface $-1 0 15 0 0 0 -1 -1 0 0 0 I I I I #
coedge $-1 $203 $78 $204 $205 1 $39 $-1 #
coedge $-1 $78 $203 $206 $207 0 $39 $-1 #
coedge $-1 $208 $79 $78 $133 0 $19 $-1 #
edge $-1 $209 $210 $78 $211 0 #
coedge $-1 $212 $204 $79 $135 1 $213 $-1 #
edge $-1 $143 $209 $134 $214 0 #
coedge $-1 $80 $208 $215 $216 0 $19 $-1 #
coedge $-1 $217 $218 $80 $138 1 $219 $-1 #
edge $-1 $220 $142 $137 $221 0 #
coedge $-1 $85 $81 $218 $222 1 $141 $-1 #
coedge $-1 $81 $85 $212 $223 0 $141 $-1 #
loop $-1 $-1 $85 $224 #
vertex $-1 $222 $225 #
vertex $-1 $135 $226 #
straight-curve $-1 0 -40 -20 -1 0 0 I I #
coedge $-1 $227 $83 $228 $229 0 $21 $-1 #
coedge $-1 $218 $217 $83 $147 1 $219 $-1 #
edge $-1 $152 $230 $146 $231 0 #
coedge $-1 $84 $227 $203 $232 0 $21 $-1 #
coedge $-1 $204 $212 $84 $150 1 $213 $-1 #
edge $-1 $233 $151 $149 $234 0 #
vertex $-1 $150 $235 #
vertex $-1 $147 $236 #
straight-curve $-1 0 -40 20 1 0 0 I I #
coedge $-1 $176 $87 $90 $160 0 $156 $-1 #
coedge $-1 $87 $176 $171 $237 1 $156 $-1 #
loop $-1 $-1 $155 $169 #
vertex $-1 $88 $238 #
straight-curve $-1 -30 0 20 0 1 0 I I #
edge $-1 $239 $94 $89 $122 0 #
edge $-1 $91 $167 $154 $240 0 #
point $-1 -30 -30 20 #
straight-curve $-1 28 -29.933259094191531 0 0 0 1 I I #
point $-1 28 -29.933259094191531 20 #
coedge $-1 $180 $95 $241 $242 0 $41 $-1 #
edge $-1 $97 $243 $95 $117 0 #
point $-1 28 -29.933259094191531 -20 #
vertex $-1 $98 $244 #
straight-curve $-1 0 -30 -20 1 0 0 I I #
face $-1 $172 $156 $2 $-1 $245 forward single #
plane-surface $-1 0 -30 0 0 1 0 0 0 1 0 I I I I #
coedge $-1 $103 $102 $155 $237 0 $104 $-1 #
face $-1 $224 $104 $2 $-1 $246 forward single #
coedge $-1 $119 $247 $106 $174 1 $76 $-1 #
edge $-1 $121 $239 $106 $248 0 #
straight-curve $-1 0 30 20 1 0 0 I I #
coedge $-1 $155 $154 $109 $177 1 $156 $-1 #
edge $-1 $178 $167 $109 $249 0 #
vertex $-1 $177 $250 #
straight-curve $-1 0 30 -20 -1 0 0 I I #
coedge $-1 $111 $164 $251 $252 0 $41 $-1 #
coedge $-1 $253 $114 $111 $182 1 $187 $-1 #
edge $-1 $254 $116 $181 $255 0 #
coedge $-1 $124 $113 $256 $257 0 $34 $-1 #
coedge $-1 $258 $259 $113 $185 1 $201 $-1 #
edge $-1 $188 $260 $113 $261 0 #
coedge $-1 $114 $253 $258 $262 1 $187 $-1 #
loop $-1 $-1 $114 $200 #
vertex $-1 $185 $263 #
straight-curve $-1 0 0 0 0 0 1 I I #
point $-1 0 0 -20 #
coedge $-1 $118 $123 $247 $264 0 $34 $-1 #
coedge $-1 $265 $265 $118 $193 1 $128 $-1 #
edge $-1 $266 $195 $118 $267 0 #
coedge $-1 $247 $119 $265 $268 0 $76 $-1 #
vertex $-1 $120 $269 #
straight-curve $-1 8.2455648647685003 20.657796396203672 10.000000000000002 0 0 1 I I #
point $-1 8.2455648647685003 20.657796396203672 20.000000000000004 #
face $-1 $270 $271 $2 $-1 $272 reversed single #
loop $-1 $-1 $273 $125 #
face $-1 $274 $187 $2 $-1 $275 reversed single #
loop $-1 $-1 $184 $127 #
plane-surface $-1 0 -10 0 0 0 1 1 0 0 0 I I I I #
coedge $-1 $131 $130 $148 $232 1 $39 $-1 #
coedge $-1 $134 $149 $130 $205 0 $213 $-1 #
edge $-1 $233 $209 $130 $276 0 #
coedge $-1 $277 $278 $131 $207 1 $271 $-1 #
edge $-1 $279 $210 $206 $280 0 #
coedge $-1 $136 $132 $278 $281 0 $19 $-1 #
vertex $-1 $133 $282 #
vertex $-1 $281 $283 #
straight-curve $-1 0 40 -20 1 0 0 I I #
coedge $-1 $149 $134 $140 $223 1 $213 $-1 #
loop $-1 $-1 $204 $284 #
straight-curve $-1 -40 0 -20 0 1 0 I I #
coedge $-1 $285 $273 $136 $216 1 $199 $-1 #
edge $-1 $286 $220 $136 $117 0 #
coedge $-1 $146 $137 $273 $287 0 $219 $-1 #
coedge $-1 $137 $146 $139 $222 0 $219 $-1 #
loop $-1 $-1 $217 $270 #
vertex $-1 $138 $288 #
straight-curve $-1 40 0 -20 0 -1 0 I I #
edge $-1 $152 $142 $218 $289 0 #
edge $-1 $151 $143 $212 $290 0 #
face $-1 $284 $141 $2 $-1 $291 reversed single #
point $-1 40 -40 -20 #
point $-1 -40 -40 -20 #
coedge $-1 $148 $145 $277 $292 0 $21 $-1 #
coedge $-1 $273 $285 $145 $229 1 $199 $-1 #
edge $-1 $230 $293 $145 $122 0 #
vertex $-1 $147 $294 #
straight-curve $-1 40 0 20 0 1 0 I I #
edge $-1 $279 $233 $203 $295 0 #
vertex $-1 $232 $296 #
straight-curve $-1 -40 0 20 0 -1 0 I I #
point $-1 -40 -40 20 #
point $-1 40 -40 20 #
edge $-1 $157 $178 $171 $297 0 #
point $-1 -30 30 20 #
vertex $-1 $264 $298 #
straight-curve $-1 -30 -30 0 0 0 -1 I I #
coedge $-1 $256 $299 $164 $242 1 $300 $-1 #
edge $-1 $243 $301 $241 $302 0 #
vertex $-1 $165 $303 #
point $-1 -30 -30 -20 #
plane-surface $-1 -30 0 0 1 0 0 0 0 -1 0 I I I I #
plane-surface $-1 0 30 0 0 -1 0 0 0 -1 0 I I I I #
coedge $-1 $173 $194 $191 $264 1 $76 $-1 #
ellipse-curve $-1 0 15 20 0 0 -1 10 0 0 1 I I #
straight-curve $-1 -30 0 -20 0 -1 0 I I #
point $-1 -30 30 -20 #
coedge $-1 $304 $305 $180 $252 1 $306 $-1 #
edge $-1 $301 $254 $251 $307 0 #
coedge $-1 $186 $181 $305 $308 1 $187 $-1 #
vertex $-1 $182 $309 #
straight-curve $-1 0 0 -20 1 0 0 I I #
coedge $-1 $310 $241 $183 $257 1 $300 $-1 #
edge $-1 $260 $243 $183 $311 0 #
coedge $-1 $312 $184 $186 $262 0 $201 $-1 #
coedge $-1 $184 $312 $310 $313 0 $201 $-1 #
vertex $-1 $185 $314 #
ellipse-curve $-1 30 0 0 0 0 1 30 0 0 1 I I #
edge $-1 $188 $315 $186 $316 0 #
point $-1 0 0 0 #
edge $-1 $239 $266 $191 $317 0 #
coedge $-1 $192 $192 $194 $268 1 $128 $-1 #
vertex $-1 $264 $318 #
ellipse-curve $-1 30 0 0 0 0 -1 30 0 0 1 I I #
edge $-1 $195 $266 $265 $319 0 #
point $-1 8.2455648647685003 20.657796396203672 0 #
face $-1 $99 $219 $2 $-1 $272 reversed single #
loop $-1 $-1 $320 $198 #
plane-surface $-1 40 0 0 -1 0 0 0 0 1 0 I I I I #
coedge $-1 $215 $228 $217 $287 1 $199 $-1 #
face $-1 $321 $300 $2 $-1 $322 reversed single #
plane-surface $-1 0 0 -10 0 -1 0 0 0 -1 0 I I I I #
straight-curve $-1 -40 40 0 0 0 -1 I I #
coedge $-1 $320 $206 $227 $292 1 $271 $-1 #
coedge $-1 $206 $320 $208 $281 1 $271 $-1 #
vertex $-1 $292 $323 #
straight-curve $-1 40 40 0 0 0 -1 I I #
edge $-1 $210 $286 $278 $221 0 #
point $-1 -40 40 -20 #
point $-1 40 40 -20 #
face $-1 $-1 $213 $2 $-1 $324 reversed single #
coedge $-1 $228 $215 $320 $325 1 $199 $-1 #
vertex $-1 $281 $326 #
edge $-1 $220 $230 $217 $327 0 #
point $-1 40 -28.284271247461902 -20 #
straight-curve $-1 40 -40 0 0 0 -1 I I #
straight-curve $-1 -40 -40 0 0 0 -1 I I #
plane-surface $-1 0 -40 0 0 1 0 0 0 1 0 I I I I #
edge $-1 $293 $279 $277 $231 0 #
vertex $-1 $292 $328 #
point $-1 40 -28.284271247461902 20 #
straight-curve $-1 0 40 20 -1 0 0 I I #
point $-1 -40 40 20 #
straight-curve $-1 -30 30 0 0 0 -1 I I #
point $-1 0.42110180189816493 5.0088702704629977 20.000000000000004 #
coedge $-1 $241 $310 $304 $329 0 $300 $-1 #
loop $-1 $-1 $256 $274 #
vertex $-1 $252 $330 #
straight-curve $-1 0 -20 -20 -1 0 0 I I #
point $-1 7.6393202250021019 -20 -20 #
coedge $-1 $331 $251 $299 $329 1 $306 $-1 #
coedge $-1 $251 $331 $253 $308 0 $306 $-1 #
loop $-1 $-1 $305 $321 #
straight-curve $-1 -10 -10 -20 0 1 0 I I #
edge $-1 $315 $254 $253 $332 0 #
point $-1 -10 0 -20 #
coedge $-1 $299 $256 $259 $313 1 $300 $-1 #
straight-curve $-1 7.6393202250021019 -20 0 0 0 -1 I I #
coedge $-1 $259 $258 $331 $333 0 $201 $-1 #
edge $-1 $334 $260 $310 $335 0 #
point $-1 7.6393202250021019 -20 0 #
vertex $-1 $262 $336 #
straight-curve $-1 0 0 0 -1 0 0 I I #
straight-curve $-1 0.42110180189816493 5.0088702704629977 10.000000000000002 0 0 -1 I I #
point $-1 0.42110180189816493 5.0088702704629977 0 #
ellipse-curve $-1 0 15 0 0 0 -1 10 0 0 1 I I #
coedge $-1 $278 $277 $285 $325 0 $271 $-1 #
face $-1 $72 $306 $2 $-1 $337 reversed single #
plane-surface $-1 0 -20 -10 0 1 0 0 0 1 0 I I I I #
point $-1 40 40 20 #
plane-surface $-1 -40 0 0 1 0 0 0 0 -1 0 I I I I #
edge $-1 $293 $286 $320 $338 0 #
point $-1 40 28.284271247461902 -20 #
straight-curve $-1 40 -28.284271247461902 0 0 0 1 I I #
point $-1 40 28.284271247461902 20 #
edge $-1 $334 $301 $304 $339 0 #
point $-1 -10 -20 -20 #
coedge $-1 $305 $304 $312 $333 1 $306 $-1 #
straight-curve $-1 -10 0 -10 0 0 -1 I I #
edge $-1 $315 $334 $331 $340 0 #
vertex $-1 $333 $341 #
straight-curve $-1 0 -20 0 1 0 0 I I #
point $-1 -10 0 0 #
plane-surface $-1 -10 -10 -10 1 0 0 0 0 -1 0 I I I I #
straight-curve $-1 40 28.284271247461902 0 0 0 -1 I I #
straight-curve $-1 -10 -20 -10 0 0 -1 I I #
straight-curve $-1 -10 -10 0 0 -1 0 I I #
point $-1 -10 -20 0 #
End-of-ACIS-data 