600 0 1 0           
81 GICL ACIS Healer - Source: /gicl/data5/repository/Heriot_Watt/ex31/ex31.sat - 6 0 18 ACIS 6.0.3 Solaris 24 Sat Apr 13 23:38:39 2002 
1 9.999999999999999547e-07 1.000000000000000036e-10 
body $-1 $1 $-1 $-1 #
lump $-1 $-1 $2 $0 #
shell $-1 $-1 $-1 $3 $-1 $1 #
face $-1 $4 $5 $2 $-1 $6 reversed single #
face $-1 $7 $8 $2 $-1 $6 reversed single #
loop $-1 $-1 $9 $3 #
plane-surface $-1 28 0 0 1 0 0 0 0 -1 forward_v I I I I #
face $-1 $10 $11 $2 $-1 $12 forward single #
loop $-1 $-1 $13 $4 #
coedge $-1 $14 $15 $16 $17 reversed $5 $-1 #
face $-1 $18 $19 $2 $-1 $20 reversed single #
loop $-1 $21 $22 $7 #
plane-surface $-1 0 0 20 0 0 1 1 0 0 forward_v I I I I #
coedge $-1 $23 $24 $25 $26 reversed $8 $-1 #
coedge $-1 $27 $9 $28 $29 reversed $5 $-1 #
coedge $-1 $9 $27 $30 $31 reversed $5 $-1 #
coedge $-1 $32 $33 $9 $17 forward $34 $-1 #
edge $-1 $35 -20 $36 20 $16 $37 forward 7 unknown #
face $-1 $38 $39 $2 $-1 $40 reversed single #
loop $-1 $41 $42 $10 #
plane-surface $-1 0 0 -20 0 0 1 1 0 0 forward_v I I I I #
loop $-1 $-1 $43 $7 #
coedge $-1 $44 $45 $46 $47 forward $11 $-1 #
coedge $-1 $48 $13 $45 $49 reversed $8 $-1 #
coedge $-1 $13 $48 $50 $51 reversed $8 $-1 #
coedge $-1 $52 $46 $13 $26 forward $53 $-1 #
edge $-1 $54 -20 $55 20 $25 $56 forward 7 unknown #
coedge $-1 $15 $14 $57 $58 reversed $5 $-1 #
coedge $-1 $59 $60 $14 $29 forward $11 $-1 #
edge $-1 $61 -30 $35 -29.93325909419153064 $14 $62 forward 7 unknown #
coedge $-1 $63 $64 $15 $31 forward $41 $-1 #
edge $-1 $36 29.93325909419153064 $65 30 $15 $66 forward 7 unknown #
coedge $-1 $67 $16 $64 $68 reversed $34 $-1 #
coedge $-1 $16 $69 $59 $70 reversed $34 $-1 #
loop $-1 $-1 $71 $72 #
vertex $-1 $70 $73 #
vertex $-1 $68 $74 #
straight-curve $-1 28 29.93325909419153064 0 0 0 -1 I I #
face $-1 $75 $76 $2 $-1 $77 reversed single #
loop $-1 $-1 $78 $18 #
plane-surface $-1 0 40 0 0 -1 0 0 0 -1 forward_v I I I I #
loop $-1 $-1 $50 $10 #
coedge $-1 $79 $80 $81 $82 forward $19 $-1 #
coedge $-1 $83 $84 $85 $86 forward $21 $-1 #
coedge $-1 $60 $22 $87 $88 forward $11 $-1 #
coedge $-1 $22 $89 $23 $49 forward $11 $-1 #
coedge $-1 $25 $90 $22 $47 reversed $53 $-1 #
edge $-1 $54 -28 $91 30 $22 $92 forward 7 unknown #
coedge $-1 $24 $23 $71 $93 reversed $8 $-1 #
edge $-1 $94 29.93325909419153064 $54 30 $23 $62 forward 7 unknown #
coedge $-1 $95 $96 $24 $51 forward $41 $-1 #
edge $-1 $55 -30 $97 -29.93325909419153064 $24 $66 forward 7 unknown #
coedge $-1 $90 $25 $96 $98 reversed $53 $-1 #
loop $-1 $-1 $25 $99 #
vertex $-1 $47 $100 #
vertex $-1 $98 $101 #
straight-curve $-1 28 -30 0 0 0 -1 I I #
coedge $-1 $102 $103 $27 $58 forward $104 $-1 #
edge $-1 $65 -20 $61 20 $57 $105 forward 7 unknown #
coedge $-1 $106 $28 $33 $70 forward $11 $-1 #
coedge $-1 $28 $44 $102 $107 forward $11 $-1 #
vertex $-1 $107 $108 #
straight-curve $-1 28 0 20 0 -1 0 I I #
coedge $-1 $109 $30 $103 $110 forward $41 $-1 #
coedge $-1 $30 $111 $32 $68 forward $41 $-1 #
vertex $-1 $110 $112 #
straight-curve $-1 28 0 -20 0 1 0 I I #
coedge $-1 $113 $32 $114 $115 forward $34 $-1 #
edge $-1 $116 -3.141592653589793116 $36 -1.637512475205121998 $64 $117 forward 7 unknown #
coedge $-1 $33 $118 $119 $120 forward $34 $-1 #
edge $-1 $35 1.637512475205121998 $121 2.382045392285436769 $59 $122 forward 7 unknown #
coedge $-1 $123 $124 $48 $93 forward $34 $-1 #
face $-1 $125 $34 $2 $-1 $126 forward single #
point $-1 28 29.93325909419153064 20 #
point $-1 28 29.93325909419153064 -20 #
face $-1 $127 $128 $2 $-1 $129 reversed single #
loop $-1 $-1 $119 $38 #
cone-surface $-1 0 15 10 0 0 1 10 0 0 1 I I 0 1 10 forward I I I I #
coedge $-1 $130 $131 $132 $133 reversed $39 $-1 #
coedge $-1 $132 $42 $134 $135 forward $19 $-1 #
coedge $-1 $42 $136 $137 $138 forward $19 $-1 #
coedge $-1 $139 $140 $42 $82 reversed $141 $-1 #
edge $-1 $142 -40 $143 40 $81 $144 forward 7 unknown #
coedge $-1 $145 $43 $146 $147 forward $21 $-1 #
coedge $-1 $43 $148 $149 $150 forward $21 $-1 #
coedge $-1 $140 $139 $43 $86 reversed $141 $-1 #
edge $-1 $151 -40 $152 40 $85 $153 forward 7 unknown #
coedge $-1 $154 $155 $44 $88 reversed $156 $-1 #
edge $-1 $91 -30 $157 30 $44 $158 forward 7 unknown #
coedge $-1 $45 $106 $123 $159 forward $11 $-1 #
coedge $-1 $46 $52 $154 $160 reversed $53 $-1 #
vertex $-1 $47 $161 #
straight-curve $-1 0 -30 20 -1 0 0 I I #
edge $-1 $97 -20 $94 20 $71 $162 forward 7 unknown #
vertex $-1 $159 $163 #
coedge $-1 $164 $50 $124 $165 forward $41 $-1 #
coedge $-1 $50 $109 $52 $98 forward $41 $-1 #
vertex $-1 $165 $166 #
edge $-1 $167 -30 $55 28 $96 $168 forward 7 unknown #
face $-1 $169 $53 $2 $-1 $170 forward single #
point $-1 28 -30 20 #
point $-1 28 -30 -20 #
coedge $-1 $171 $57 $60 $107 reversed $104 $-1 #
coedge $-1 $57 $171 $63 $110 reversed $104 $-1 #
loop $-1 $-1 $57 $172 #
straight-curve $-1 28 30 0 0 0 1 I I #
coedge $-1 $89 $59 $173 $174 forward $11 $-1 #
edge $-1 $157 -30 $61 28 $60 $175 forward 7 unknown #
point $-1 28 30 20 #
coedge $-1 $96 $63 $176 $177 forward $41 $-1 #
edge $-1 $65 -28 $178 30 $63 $179 forward 7 unknown #
coedge $-1 $64 $180 $181 $182 forward $41 $-1 #
point $-1 28 30 -20 #
coedge $-1 $183 $67 $184 $185 forward $34 $-1 #
coedge $-1 $181 $186 $67 $115 reversed $187 $-1 #
edge $-1 $116 -20 $188 0 $67 $189 forward 7 unknown #
vertex $-1 $68 $190 #
ellipse-curve $-1 30 0 -20 0 0 -1 30 0 0 1 I I #
coedge $-1 $69 $191 $192 $193 forward $34 $-1 #
coedge $-1 $194 $173 $69 $120 reversed $76 $-1 #
edge $-1 $195 -10.00000000000000178 $121 10.00000000000000178 $69 $196 forward 7 unknown #
vertex $-1 $70 $197 #
ellipse-curve $-1 30 0 20 0 0 1 30 0 0 1 I I #
coedge $-1 $191 $71 $89 $159 reversed $34 $-1 #
coedge $-1 $71 $183 $95 $165 reversed $34 $-1 #
face $-1 $198 $199 $2 $-1 $126 forward single #
cone-surface $-1 30 0 0 0 0 1 30 0 0 1 I I 0 1 30 forward I I I I #
face $-1 $200 $201 $2 $-1 $202 forward single #
loop $-1 $-1 $192 $75 #
plane-surface $-1 0 15 0 0 0 -1 -1 0 0 forward_v I I I I #
coedge $-1 $203 $78 $204 $205 reversed $39 $-1 #
coedge $-1 $78 $203 $206 $207 forward $39 $-1 #
coedge $-1 $208 $79 $78 $133 forward $19 $-1 #
edge $-1 $209 -40 $210 40 $78 $211 forward 7 unknown #
coedge $-1 $212 $204 $79 $135 reversed $213 $-1 #
edge $-1 $143 -40 $209 40 $134 $214 forward 7 unknown #
coedge $-1 $80 $208 $215 $216 forward $19 $-1 #
coedge $-1 $217 $218 $80 $138 reversed $219 $-1 #
edge $-1 $220 28.28427124746190202 $142 40 $137 $221 forward 7 unknown #
coedge $-1 $85 $81 $218 $222 reversed $141 $-1 #
coedge $-1 $81 $85 $212 $223 forward $141 $-1 #
loop $-1 $-1 $85 $224 #
vertex $-1 $222 $225 #
vertex $-1 $135 $226 #
straight-curve $-1 0 -40 -20 -1 0 0 I I #
coedge $-1 $227 $83 $228 $229 forward $21 $-1 #
coedge $-1 $218 $217 $83 $147 reversed $219 $-1 #
edge $-1 $152 -40 $230 -28.28427124746190202 $146 $231 forward 7 unknown #
coedge $-1 $84 $227 $203 $232 forward $21 $-1 #
coedge $-1 $204 $212 $84 $150 reversed $213 $-1 #
edge $-1 $233 -40 $151 40 $149 $234 forward 7 unknown #
vertex $-1 $150 $235 #
vertex $-1 $147 $236 #
straight-curve $-1 0 -40 20 1 0 0 I I #
coedge $-1 $176 $87 $90 $160 forward $156 $-1 #
coedge $-1 $87 $176 $171 $237 reversed $156 $-1 #
loop $-1 $-1 $155 $169 #
vertex $-1 $88 $238 #
straight-curve $-1 -30 0 20 0 1 0 I I #
edge $-1 $239 2.973844696892537165 $94 4.64567283197446379 $89 $122 forward 7 unknown #
edge $-1 $91 -20 $167 20 $154 $240 forward 7 unknown #
point $-1 -30 -30 20 #
straight-curve $-1 28 -29.93325909419153064 0 0 0 1 I I #
point $-1 28 -29.93325909419153064 20 #
coedge $-1 $180 $95 $241 $242 forward $41 $-1 #
edge $-1 $97 1.637512475205121998 $243 2.411864997362827001 $95 $117 forward 7 unknown #
point $-1 28 -29.93325909419153064 -20 #
vertex $-1 $98 $244 #
straight-curve $-1 0 -30 -20 1 0 0 I I #
face $-1 $172 $156 $2 $-1 $245 forward single #
plane-surface $-1 0 -30 0 0 1 0 0 0 1 forward_v I I I I #
coedge $-1 $103 $102 $155 $237 forward $104 $-1 #
face $-1 $224 $104 $2 $-1 $246 forward single #
coedge $-1 $119 $247 $106 $174 reversed $76 $-1 #
edge $-1 $121 -0.6013784732278031342 $239 1.528673691229414988 $106 $248 forward 7 unknown #
straight-curve $-1 0 30 20 1 0 0 I I #
coedge $-1 $155 $154 $109 $177 reversed $156 $-1 #
edge $-1 $178 -30 $167 30 $109 $249 forward 7 unknown #
vertex $-1 $177 $250 #
straight-curve $-1 0 30 -20 -1 0 0 I I #
coedge $-1 $111 $164 $251 $252 forward $41 $-1 #
coedge $-1 $253 $114 $111 $182 reversed $187 $-1 #
edge $-1 $254 -10 $116 0 $181 $255 forward 7 unknown #
coedge $-1 $124 $113 $256 $257 forward $34 $-1 #
coedge $-1 $258 $259 $113 $185 reversed $201 $-1 #
edge $-1 $188 -3.141592653589793116 $260 -2.411864997362827001 $113 $261 forward 7 unknown #
coedge $-1 $114 $253 $258 $262 reversed $187 $-1 #
loop $-1 $-1 $114 $200 #
vertex $-1 $185 $263 #
straight-curve $-1 0 0 0 0 0 1 I I #
point $-1 0 0 -20 #
coedge $-1 $118 $123 $247 $264 forward $34 $-1 #
coedge $-1 $265 $265 $118 $193 reversed $128 $-1 #
edge $-1 $266 -2.973844696892537165 $195 -2.382045392285436769 $118 $267 forward 7 unknown #
coedge $-1 $247 $119 $265 $268 forward $76 $-1 #
vertex $-1 $120 $269 #
straight-curve $-1 8.245564864768500257 20.65779639620367192 10.00000000000000178 0 0 1 I I #
point $-1 8.245564864768500257 20.65779639620367192 20.00000000000000355 #
face $-1 $270 $271 $2 $-1 $272 reversed single #
loop $-1 $-1 $273 $125 #
face $-1 $274 $187 $2 $-1 $275 reversed single #
loop $-1 $-1 $184 $127 #
plane-surface $-1 0 -10 0 0 0 1 1 0 0 forward_v I I I I #
coedge $-1 $131 $130 $148 $232 reversed $39 $-1 #
coedge $-1 $134 $149 $130 $205 forward $213 $-1 #
edge $-1 $233 -20 $209 20 $130 $276 forward 7 unknown #
coedge $-1 $277 $278 $131 $207 reversed $271 $-1 #
edge $-1 $279 -20 $210 20 $206 $280 forward 7 unknown #
coedge $-1 $136 $132 $278 $281 forward $19 $-1 #
vertex $-1 $133 $282 #
vertex $-1 $281 $283 #
straight-curve $-1 0 40 -20 1 0 0 I I #
coedge $-1 $149 $134 $140 $223 reversed $213 $-1 #
loop $-1 $-1 $204 $284 #
straight-curve $-1 -40 0 -20 0 1 0 I I #
coedge $-1 $285 $273 $136 $216 reversed $199 $-1 #
edge $-1 $286 -1.230959417340774742 $220 1.230959417340774742 $136 $117 forward 7 unknown #
coedge $-1 $146 $137 $273 $287 forward $219 $-1 #
coedge $-1 $137 $146 $139 $222 forward $219 $-1 #
loop $-1 $-1 $217 $270 #
vertex $-1 $138 $288 #
straight-curve $-1 40 0 -20 0 -1 0 I I #
edge $-1 $152 -20 $142 20 $218 $289 forward 7 unknown #
edge $-1 $151 -20 $143 20 $212 $290 forward 7 unknown #
face $-1 $284 $141 $2 $-1 $291 reversed single #
point $-1 40 -40 -20 #
point $-1 -40 -40 -20 #
coedge $-1 $148 $145 $277 $292 forward $21 $-1 #
coedge $-1 $273 $285 $145 $229 reversed $199 $-1 #
edge $-1 $230 -1.230959417340774742 $293 1.230959417340774742 $145 $122 forward 7 unknown #
vertex $-1 $147 $294 #
straight-curve $-1 40 0 20 0 1 0 I I #
edge $-1 $279 -40 $233 40 $203 $295 forward 7 unknown #
vertex $-1 $232 $296 #
straight-curve $-1 -40 0 20 0 -1 0 I I #
point $-1 -40 -40 20 #
point $-1 40 -40 20 #
edge $-1 $157 -20 $178 20 $171 $297 forward 7 unknown #
point $-1 -30 30 20 #
vertex $-1 $264 $298 #
straight-curve $-1 -30 -30 0 0 0 -1 I I #
coedge $-1 $256 $299 $164 $242 reversed $300 $-1 #
edge $-1 $243 -7.639320225002101949 $301 10 $241 $302 forward 7 unknown #
vertex $-1 $165 $303 #
point $-1 -30 -30 -20 #
plane-surface $-1 -30 0 0 1 0 0 0 0 -1 forward_v I I I I #
plane-surface $-1 0 30 0 0 -1 0 0 0 -1 forward_v I I I I #
coedge $-1 $173 $194 $191 $264 reversed $76 $-1 #
ellipse-curve $-1 0 15 20 0 0 -1 10 0 0 1 I I #
straight-curve $-1 -30 0 -20 0 -1 0 I I #
point $-1 -30 30 -20 #
coedge $-1 $304 $305 $180 $252 reversed $306 $-1 #
edge $-1 $301 -10 $254 10 $251 $307 forward 7 unknown #
coedge $-1 $186 $181 $305 $308 reversed $187 $-1 #
vertex $-1 $182 $309 #
straight-curve $-1 0 0 -20 1 0 0 I I #
coedge $-1 $310 $241 $183 $257 reversed $300 $-1 #
edge $-1 $260 0 $243 20 $183 $311 forward 7 unknown #
coedge $-1 $312 $184 $186 $262 forward $201 $-1 #
coedge $-1 $184 $312 $310 $313 forward $201 $-1 #
vertex $-1 $185 $314 #
ellipse-curve $-1 30 0 0 0 0 1 30 0 0 1 I I #
edge $-1 $188 0 $315 10 $186 $316 forward 7 unknown #
point $-1 0 0 0 #
edge $-1 $239 -10.00000000000000178 $266 10.00000000000000178 $191 $317 forward 7 unknown #
coedge $-1 $192 $192 $194 $268 reversed $128 $-1 #
vertex $-1 $264 $318 #
ellipse-curve $-1 30 0 0 0 0 -1 30 0 0 1 I I #
edge $-1 $195 -0.6013784732278031342 $266 1.528673691229414988 $265 $319 forward 7 unknown #
point $-1 8.245564864768500257 20.65779639620367192 0 #
face $-1 $99 $219 $2 $-1 $272 reversed single #
loop $-1 $-1 $320 $198 #
plane-surface $-1 40 0 0 -1 0 0 0 0 1 forward_v I I I I #
coedge $-1 $215 $228 $217 $287 reversed $199 $-1 #
face $-1 $321 $300 $2 $-1 $322 reversed single #
plane-surface $-1 0 0 -10 0 -1 0 0 0 -1 forward_v I I I I #
straight-curve $-1 -40 40 0 0 0 -1 I I #
coedge $-1 $320 $206 $227 $292 reversed $271 $-1 #
coedge $-1 $206 $320 $208 $281 reversed $271 $-1 #
vertex $-1 $292 $323 #
straight-curve $-1 40 40 0 0 0 -1 I I #
edge $-1 $210 -40 $286 -28.28427124746190202 $278 $221 forward 7 unknown #
point $-1 -40 40 -20 #
point $-1 40 40 -20 #
face $-1 $-1 $213 $2 $-1 $324 reversed single #
coedge $-1 $228 $215 $320 $325 reversed $199 $-1 #
vertex $-1 $281 $326 #
edge $-1 $220 -20 $230 20 $217 $327 forward 7 unknown #
point $-1 40 -28.28427124746190202 -20 #
straight-curve $-1 40 -40 0 0 0 -1 I I #
straight-curve $-1 -40 -40 0 0 0 -1 I I #
plane-surface $-1 0 -40 0 0 1 0 0 0 1 forward_v I I I I #
edge $-1 $293 28.28427124746190202 $279 40 $277 $231 forward 7 unknown #
vertex $-1 $292 $328 #
point $-1 40 -28.28427124746190202 20 #
straight-curve $-1 0 40 20 -1 0 0 I I #
point $-1 -40 40 20 #
straight-curve $-1 -30 30 0 0 0 -1 I I #
point $-1 0.4211018018981649291 5.008870270462997709 20.00000000000000355 #
coedge $-1 $241 $310 $304 $329 forward $300 $-1 #
loop $-1 $-1 $256 $274 #
vertex $-1 $252 $330 #
straight-curve $-1 0 -20 -20 -1 0 0 I I #
point $-1 7.639320225002101949 -20 -20 #
coedge $-1 $331 $251 $299 $329 reversed $306 $-1 #
coedge $-1 $251 $331 $253 $308 forward $306 $-1 #
loop $-1 $-1 $305 $321 #
straight-curve $-1 -10 -10 -20 0 1 0 I I #
edge $-1 $315 -10 $254 10 $253 $332 forward 7 unknown #
point $-1 -10 0 -20 #
coedge $-1 $299 $256 $259 $313 reversed $300 $-1 #
straight-curve $-1 7.639320225002101949 -20 0 0 0 -1 I I #
coedge $-1 $259 $258 $331 $333 forward $201 $-1 #
edge $-1 $334 -10 $260 7.639320225002101949 $310 $335 forward 7 unknown #
point $-1 7.639320225002101949 -20 0 #
vertex $-1 $262 $336 #
straight-curve $-1 0 0 0 -1 0 0 I I #
straight-curve $-1 0.4211018018981649291 5.008870270462997709 10.00000000000000178 0 0 -1 I I #
point $-1 0.4211018018981649291 5.008870270462997709 0 #
ellipse-curve $-1 0 15 0 0 0 -1 10 0 0 1 I I #
coedge $-1 $278 $277 $285 $325 forward $271 $-1 #
face $-1 $72 $306 $2 $-1 $337 reversed single #
plane-surface $-1 0 -20 -10 0 1 0 0 0 1 forward_v I I I I #
point $-1 40 40 20 #
plane-surface $-1 -40 0 0 1 0 0 0 0 -1 forward_v I I I I #
edge $-1 $293 -20 $286 20 $320 $338 forward 7 unknown #
point $-1 40 28.28427124746190202 -20 #
straight-curve $-1 40 -28.28427124746190202 0 0 0 1 I I #
point $-1 40 28.28427124746190202 20 #
edge $-1 $334 -10 $301 10 $304 $339 forward 7 unknown #
point $-1 -10 -20 -20 #
coedge $-1 $305 $304 $312 $333 reversed $306 $-1 #
straight-curve $-1 -10 0 -10 0 0 -1 I I #
edge $-1 $315 -10 $334 10 $331 $340 forward 7 unknown #
vertex $-1 $333 $341 #
straight-curve $-1 0 -20 0 1 0 0 I I #
point $-1 -10 0 0 #
plane-surface $-1 -10 -10 -10 1 0 0 0 0 -1 forward_v I I I I #
straight-curve $-1 40 28.28427124746190202 0 0 0 -1 I I #
straight-curve $-1 -10 -20 -10 0 0 -1 I I #
straight-curve $-1 -10 -10 0 0 -1 0 I I #
point $-1 -10 -20 0 #
End-of-ACIS-data 