600 0 2 0           
24 FBMach with ACIS - 6.0.3 13 ACIS 6.0.3 NT 24 Wed May 23 20:18:44 2001 
1 9.9999999999999995e-007 1e-010 
body $2 $3 $-1 $4 #
bdycol-kcp $-1 1 2 $5 $6 #
model_id-kcp-attrib $-1 $-1 $-1 $0 1 990663523 70 1799749633 1 #
lump $-1 $-1 $7 $0 #
transform $-1 1 0 0 0 1 0 0 0 1 0 0 0 1 no_rotate no_reflect no_shear #
body $8 $9 $-1 $10 #
body $11 $12 $-1 $13 #
shell $-1 $-1 $-1 $14 $-1 $3 #
model_id-kcp-attrib $-1 $-1 $-1 $5 1 990663523 70 1799749634 1 #
lump $-1 $-1 $15 $5 #
transform $-1 1 0 0 0 1 0 0 0 1 10 0 1.7763568394002505e-015 1 no_rotate no_reflect no_shear #
rgb_color-st-attrib $-1 $16 $-1 $6 0 0 1 #
lump $-1 $-1 $17 $6 #
transform $-1 1 0 0 0 1 0 0 0 1 10 0 1.7763568394002505e-015 1 no_rotate no_reflect no_shear #
face $18 $19 $20 $7 $-1 $21 reversed single #
shell $-1 $-1 $-1 $22 $-1 $9 #
model_id-kcp-attrib $-1 $-1 $11 $6 1 990663523 981 1809121283 1 #
shell $-1 $-1 $-1 $23 $-1 $12 #
model_id-kcp-attrib $-1 $-1 $-1 $14 1 990663523 70 1799749633 2 #
face $24 $25 $26 $7 $-1 $21 reversed single #
loop $-1 $-1 $27 $14 #
plane-surface $-1 28 0 0 1 0 0 0 0 -1 forward_v I I I I #
face $28 $29 $30 $15 $-1 $31 forward single #
face $-1 $32 $33 $17 $-1 $34 forward single #
model_id-kcp-attrib $-1 $-1 $-1 $19 1 990663523 70 1799749633 3 #
face $35 $36 $37 $7 $-1 $38 forward single #
loop $-1 $-1 $39 $19 #
coedge $-1 $40 $41 $42 $43 reversed $20 $-1 #
model_id-kcp-attrib $-1 $-1 $-1 $22 1 990663523 70 1799749634 2 #
face $44 $45 $46 $15 $-1 $47 reversed single #
loop $-1 $-1 $48 $22 #
plane-surface $-1 0 0 20 0 0 1 1 0 0 forward_v I I I I #
face $-1 $49 $50 $17 $-1 $51 forward single #
loop $-1 $-1 $52 $23 #
plane-surface $-1 0 0 20 0 0 1 1 0 0 forward_v I I I I #
model_id-kcp-attrib $-1 $-1 $-1 $25 1 990663523 70 1799749633 4 #
face $53 $54 $55 $7 $-1 $56 reversed single #
loop $-1 $57 $58 $25 #
plane-surface $-1 0 0 20 0 0 1 1 0 0 forward_v I I I I #
coedge $-1 $59 $60 $61 $62 reversed $26 $-1 #
coedge $-1 $63 $27 $64 $65 reversed $20 $-1 #
coedge $-1 $27 $63 $66 $67 reversed $20 $-1 #
coedge $-1 $68 $69 $27 $43 forward $70 $-1 #
edge $-1 $71 -20 $72 20 $42 $73 forward 7 unknown #
model_id-kcp-attrib $-1 $-1 $-1 $29 1 990663523 70 1799749634 3 #
face $74 $75 $76 $15 $-1 $77 reversed single #
loop $-1 $-1 $78 $29 #
plane-surface $-1 0 0 -20 0 0 1 1 0 0 forward_v I I I I #
coedge $-1 $79 $80 $81 $82 forward $30 $-1 #
face $-1 $83 $84 $17 $-1 $85 forward single #
loop $-1 $-1 $86 $32 #
cone-surface $-1 20 0 0 0 0 1 30 0 0 1 I I 0 -1 30 forward I I I I #
coedge $-1 $87 $88 $89 $90 forward $33 $-1 #
model_id-kcp-attrib $-1 $-1 $-1 $36 1 990663523 70 1799749633 5 #
face $91 $92 $93 $7 $-1 $94 reversed single #
loop $-1 $95 $96 $36 #
plane-surface $-1 0 0 -20 0 0 1 1 0 0 forward_v I I I I #
loop $-1 $-1 $97 $25 #
coedge $-1 $98 $99 $100 $101 forward $37 $-1 #
coedge $-1 $102 $39 $99 $103 reversed $26 $-1 #
coedge $-1 $39 $102 $104 $105 reversed $26 $-1 #
coedge $-1 $106 $100 $39 $62 forward $107 $-1 #
edge $-1 $108 -20 $109 20 $61 $110 forward 7 unknown #
coedge $-1 $41 $40 $111 $112 reversed $20 $-1 #
coedge $-1 $113 $114 $40 $65 forward $37 $-1 #
edge $115 $116 -30 $71 -29.933259094191531 $40 $117 forward 7 unknown #
coedge $-1 $118 $119 $41 $67 forward $95 $-1 #
edge $-1 $72 29.933259094191531 $120 30 $41 $121 forward 7 unknown #
coedge $-1 $122 $42 $119 $123 reversed $70 $-1 #
coedge $-1 $42 $124 $113 $125 reversed $70 $-1 #
loop $-1 $-1 $126 $127 #
vertex $-1 $125 $128 #
vertex $-1 $123 $129 #
straight-curve $-1 28 29.933259094191531 0 0 0 -1 I I #
model_id-kcp-attrib $-1 $-1 $-1 $45 1 990663523 70 1799749634 5 #
face $130 $131 $132 $15 $-1 $133 reversed single #
loop $-1 $-1 $134 $45 #
plane-surface $-1 0 -40 0 0 1 0 0 0 1 forward_v I I I I #
coedge $-1 $135 $136 $137 $138 forward $46 $-1 #
coedge $-1 $139 $48 $140 $141 forward $30 $-1 #
coedge $-1 $48 $139 $142 $143 forward $30 $-1 #
coedge $-1 $144 $145 $48 $82 reversed $146 $-1 #
edge $-1 $147 -40 $148 40 $81 $149 forward 7 unknown #
face $-1 $150 $151 $17 $-1 $152 forward single #
loop $-1 $-1 $153 $49 #
cone-surface $-1 -10 15 0 0 0 1 10 0 0 1 I I 0 1 10 forward I I I I #
coedge $-1 $154 $155 $156 $157 reversed $50 $-1 #
coedge $-1 $156 $52 $153 $158 forward $33 $-1 #
coedge $-1 $52 $159 $160 $161 forward $33 $-1 #
coedge $-1 $162 $163 $52 $90 reversed $151 $-1 #
edge $-1 $164 1.6375124752051218 $165 3.3093406102870491 $89 $166 forward 7 unknown #
model_id-kcp-attrib $-1 $-1 $-1 $54 1 990663523 70 1799749633 6 #
face $167 $168 $169 $7 $-1 $170 reversed single #
loop $-1 $-1 $171 $54 #
plane-surface $-1 0 40 0 0 -1 0 0 0 -1 forward_v I I I I #
loop $-1 $-1 $104 $36 #
coedge $-1 $172 $173 $174 $175 forward $55 $-1 #
coedge $-1 $176 $177 $178 $179 forward $57 $-1 #
coedge $-1 $114 $58 $180 $181 forward $37 $-1 #
coedge $-1 $58 $182 $59 $103 forward $37 $-1 #
coedge $-1 $61 $183 $58 $101 reversed $107 $-1 #
edge $184 $108 -28 $185 30 $58 $186 forward 7 unknown #
coedge $-1 $60 $59 $126 $187 reversed $26 $-1 #
edge $188 $189 29.933259094191531 $108 30 $59 $117 forward 7 unknown #
coedge $-1 $190 $191 $60 $105 forward $95 $-1 #
edge $-1 $109 -30 $192 -29.933259094191531 $60 $121 forward 7 unknown #
coedge $-1 $183 $61 $191 $193 reversed $107 $-1 #
loop $-1 $-1 $61 $194 #
vertex $-1 $101 $195 #
vertex $-1 $193 $196 #
straight-curve $-1 28 -30 0 0 0 -1 I I #
coedge $-1 $197 $198 $63 $112 forward $199 $-1 #
edge $-1 $120 -20 $116 20 $111 $200 forward 7 unknown #
coedge $-1 $201 $64 $69 $125 forward $37 $-1 #
coedge $-1 $64 $98 $197 $202 forward $37 $-1 #
attrib_edge_convexity-kcp-attrib $-1 $203 $-1 $65 1 #
vertex $-1 $202 $204 #
straight-curve $-1 28 0 20 0 -1 0 I I #
coedge $-1 $205 $66 $198 $206 forward $95 $-1 #
coedge $-1 $66 $207 $68 $123 forward $95 $-1 #
vertex $-1 $206 $208 #
straight-curve $-1 28 0 -20 0 1 0 I I #
coedge $-1 $209 $68 $210 $211 forward $70 $-1 #
edge $-1 $212 -3.1415926535897931 $72 -1.6375124752051218 $119 $213 forward 7 unknown #
coedge $-1 $69 $214 $215 $216 forward $70 $-1 #
edge $217 $71 1.6375124752051218 $218 2.3820453922854372 $113 $219 forward 7 unknown #
coedge $-1 $220 $221 $102 $187 forward $70 $-1 #
face $222 $223 $70 $7 $-1 $224 forward single #
point $-1 28 29.933259094191531 20 #
point $-1 28 29.933259094191531 -20 #
model_id-kcp-attrib $-1 $-1 $-1 $75 1 990663523 70 1799749634 6 #
face $225 $226 $227 $15 $-1 $228 reversed single #
loop $-1 $-1 $229 $75 #
plane-surface $-1 -50 0 0 1 0 0 0 0 -1 forward_v I I I I #
coedge $-1 $230 $142 $231 $232 forward $76 $-1 #
coedge $-1 $233 $78 $230 $234 forward $46 $-1 #
coedge $-1 $78 $233 $235 $236 forward $46 $-1 #
coedge $-1 $145 $144 $78 $138 reversed $146 $-1 #
edge $-1 $237 -40 $238 40 $137 $239 forward 7 unknown #
coedge $-1 $80 $79 $240 $241 forward $30 $-1 #
coedge $-1 $242 $243 $79 $141 reversed $227 $-1 #
edge $-1 $148 -50 $244 50 $140 $245 forward 7 unknown #
coedge $-1 $134 $246 $80 $143 reversed $76 $-1 #
edge $-1 $247 -50 $147 50 $142 $248 forward 7 unknown #
coedge $-1 $137 $81 $246 $249 forward $146 $-1 #
coedge $-1 $81 $137 $242 $250 reversed $146 $-1 #
loop $-1 $-1 $144 $226 #
vertex $-1 $82 $251 #
vertex $-1 $82 $252 #
straight-curve $-1 50 0 20 0 1 0 I I #
face $-1 $253 $254 $17 $-1 $255 forward single #
loop $-1 $-1 $89 $83 #
cone-surface $-1 20 0 0 0 0 1 30 0 0 1 I I 0 -1 30 forward I I I I #
coedge $-1 $256 $257 $87 $158 reversed $84 $-1 #
coedge $-1 $258 $86 $257 $259 reversed $50 $-1 #
coedge $-1 $86 $258 $260 $261 forward $50 $-1 #
coedge $-1 $262 $87 $86 $157 forward $33 $-1 #
edge $-1 $263 -2.3820453922854372 $264 -1.6375124752051218 $86 $265 forward 7 unknown #
edge $-1 $165 -1.5286736912294152 $263 0.60137847322780313 $153 $266 forward 7 unknown #
coedge $-1 $88 $267 $268 $269 forward $33 $-1 #
coedge $-1 $270 $271 $88 $161 reversed $254 $-1 #
edge $-1 $272 -15.033370452904236 $164 -14.966629547095767 $160 $273 forward 7 unknown #
coedge $-1 $274 $89 $271 $275 reversed $151 $-1 #
coedge $-1 $89 $274 $256 $276 forward $151 $-1 #
vertex $-1 $90 $277 #
vertex $-1 $90 $278 #
ellipse-curve $-1 20 0 20 0 0 -1 30 0 0 1 I I #
model_id-kcp-attrib $-1 $-1 $-1 $92 1 990663523 70 1799749633 7 #
face $279 $280 $281 $7 $-1 $282 reversed single #
loop $-1 $-1 $215 $92 #
cone-surface $-1 0 15 10 0 0 1 10 0 0 1 I I 0 1 10 forward I I I I #
coedge $-1 $283 $284 $285 $286 reversed $93 $-1 #
coedge $-1 $285 $96 $287 $288 forward $55 $-1 #
coedge $-1 $96 $289 $290 $291 forward $55 $-1 #
coedge $-1 $292 $293 $96 $175 reversed $294 $-1 #
edge $-1 $295 -40 $296 40 $174 $297 forward 7 unknown #
coedge $-1 $298 $97 $299 $300 forward $57 $-1 #
coedge $-1 $97 $301 $302 $303 forward $57 $-1 #
coedge $-1 $293 $292 $97 $179 reversed $294 $-1 #
edge $304 $305 -40 $306 40 $178 $307 forward 7 unknown #
coedge $-1 $308 $309 $98 $181 reversed $310 $-1 #
edge $311 $185 -30 $312 30 $98 $313 forward 7 unknown #
coedge $-1 $99 $201 $220 $314 forward $37 $-1 #
coedge $-1 $100 $106 $308 $315 reversed $107 $-1 #
attrib_edge_convexity-kcp-attrib $-1 $316 $-1 $101 1 #
vertex $-1 $101 $317 #
straight-curve $-1 0 -30 20 -1 0 0 I I #
edge $-1 $192 -20 $189 20 $126 $318 forward 7 unknown #
attrib_edge_convexity-kcp-attrib $-1 $319 $-1 $103 1 #
vertex $-1 $314 $320 #
coedge $-1 $321 $104 $221 $322 forward $95 $-1 #
coedge $-1 $104 $205 $106 $193 forward $95 $-1 #
vertex $-1 $322 $323 #
edge $-1 $324 -30 $109 28 $191 $325 forward 7 unknown #
face $326 $327 $107 $7 $-1 $328 forward single #
point $-1 28 -30 20 #
point $-1 28 -30 -20 #
coedge $-1 $329 $111 $114 $202 reversed $199 $-1 #
coedge $-1 $111 $329 $118 $206 reversed $199 $-1 #
loop $-1 $-1 $111 $330 #
straight-curve $-1 28 30 0 0 0 1 I I #
coedge $-1 $182 $113 $331 $332 forward $37 $-1 #
edge $333 $312 -30 $116 28 $114 $334 forward 7 unknown #
convexity-sys-attrib $-1 $-1 $115 $65 #
point $-1 28 30 20 #
coedge $-1 $191 $118 $335 $336 forward $95 $-1 #
edge $-1 $120 -28 $337 30 $118 $338 forward 7 unknown #
coedge $-1 $119 $339 $340 $341 forward $95 $-1 #
point $-1 28 30 -20 #
coedge $-1 $342 $122 $343 $344 forward $70 $-1 #
coedge $-1 $340 $345 $122 $211 reversed $346 $-1 #
edge $-1 $212 -20 $347 0 $122 $348 forward 7 unknown #
vertex $-1 $123 $349 #
ellipse-curve $-1 30 0 -20 0 0 -1 30 0 0 1 I I #
coedge $-1 $124 $350 $351 $352 forward $70 $-1 #
coedge $-1 $353 $331 $124 $216 reversed $169 $-1 #
edge $-1 $354 -10.000000000000002 $218 10.000000000000002 $124 $355 forward 7 unknown #
attrib_edge_convexity-kcp-attrib $-1 $356 $-1 $125 1 #
vertex $-1 $125 $357 #
ellipse-curve $-1 30 0 20 0 0 1 30 0 0 1 I I #
coedge $-1 $350 $126 $182 $314 reversed $70 $-1 #
coedge $-1 $126 $342 $190 $322 reversed $70 $-1 #
model_id-kcp-attrib $-1 $-1 $-1 $127 1 990663523 70 1799749633 13 #
face $358 $359 $360 $7 $-1 $224 forward single #
cone-surface $-1 30 0 0 0 0 1 30 0 0 1 I I 0 1 30 forward I I I I #
model_id-kcp-attrib $-1 $-1 $-1 $131 1 990663523 70 1799749634 4 #
face $-1 $-1 $146 $15 $-1 $361 reversed single #
loop $-1 $-1 $242 $131 #
plane-surface $-1 0 40 0 0 -1 0 0 0 -1 forward_v I I I I #
coedge $-1 $362 $240 $243 $363 forward $132 $-1 #
coedge $-1 $246 $134 $135 $234 reversed $76 $-1 #
coedge $-1 $240 $362 $134 $232 reversed $132 $-1 #
edge $-1 $247 -20 $364 20 $231 $365 forward 7 unknown #
coedge $-1 $136 $135 $362 $366 forward $46 $-1 #
edge $-1 $238 -50 $364 50 $230 $367 forward 7 unknown #
coedge $-1 $243 $242 $136 $236 reversed $227 $-1 #
edge $-1 $368 -50 $237 50 $235 $369 forward 7 unknown #
vertex $-1 $138 $370 #
vertex $-1 $249 $371 #
straight-curve $-1 50 0 -20 0 -1 0 I I #
coedge $-1 $229 $231 $139 $241 reversed $132 $-1 #
edge $-1 $244 -40 $247 40 $240 $372 forward 7 unknown #
coedge $-1 $235 $140 $145 $250 forward $227 $-1 #
coedge $-1 $140 $235 $229 $363 reversed $227 $-1 #
vertex $-1 $141 $373 #
straight-curve $-1 0 40 20 -1 0 0 I I #
coedge $-1 $142 $230 $144 $249 reversed $76 $-1 #
vertex $-1 $241 $374 #
straight-curve $-1 0 -40 20 1 0 0 I I #
edge $-1 $147 -20 $238 20 $144 $375 forward 7 unknown #
edge $-1 $148 -20 $237 20 $145 $376 forward 7 unknown #
point $-1 50 -40 20 #
point $-1 50 40 20 #
face $-1 $377 $378 $17 $-1 $379 forward single #
loop $-1 $-1 $160 $150 #
plane-surface $-1 18 -29.933259094191527 -1.7763568394002505e-015 1 0 0 0 0 -1 forward_v I I I I #
coedge $-1 $380 $153 $163 $276 reversed $84 $-1 #
coedge $-1 $153 $380 $154 $259 forward $84 $-1 #
coedge $-1 $155 $154 $381 $382 reversed $50 $-1 #
edge $383 $384 0 $263 20 $257 $385 forward 7 unknown #
coedge $-1 $386 $387 $155 $261 reversed $388 $-1 #
edge $389 $390 0 $264 20 $155 $391 forward 7 unknown #
coedge $-1 $392 $156 $387 $393 forward $33 $-1 #
vertex $-1 $158 $394 #
vertex $-1 $157 $395 #
ellipse-curve $-1 20 0 20 0 0 -1 30 0 0 1 I I #
ellipse-curve $-1 -10 15 20 0 0 1 10 0 0 1 I I #
coedge $-1 $159 $392 $396 $397 forward $33 $-1 #
coedge $-1 $398 $399 $159 $269 reversed $378 $-1 #
edge $-1 $400 -49 $272 9 $268 $401 forward 7 unknown #
coedge $-1 $402 $160 $399 $403 reversed $254 $-1 #
coedge $-1 $160 $402 $162 $275 forward $254 $-1 #
vertex $-1 $161 $404 #
straight-curve $-1 18 -14.966629547095764 20 0 1 0 I I #
coedge $-1 $163 $162 $405 $406 reversed $151 $-1 #
edge $-1 $407 0 $164 20 $271 $408 forward 7 unknown #
edge $-1 $409 0 $165 20 $163 $410 forward 7 unknown #
point $-1 18 -29.933259094191531 20 #
point $-1 -9.578898198101836 5.0088702704629977 20 #
model_id-kcp-attrib $-1 $-1 $-1 $168 1 990663523 70 1799749633 8 #
face $411 $412 $413 $7 $-1 $414 forward single #
loop $-1 $-1 $351 $168 #
plane-surface $-1 0 15 0 0 0 -1 -1 0 0 forward_v I I I I #
coedge $-1 $415 $171 $416 $417 reversed $93 $-1 #
coedge $-1 $171 $415 $418 $419 forward $93 $-1 #
coedge $-1 $420 $172 $171 $286 forward $55 $-1 #
edge $421 $422 -40 $423 40 $171 $424 forward 7 unknown #
coedge $-1 $425 $416 $172 $288 reversed $426 $-1 #
edge $427 $296 -40 $422 40 $287 $428 forward 7 unknown #
coedge $-1 $173 $420 $429 $430 forward $55 $-1 #
coedge $-1 $431 $432 $173 $291 reversed $433 $-1 #
edge $434 $435 28.284271247461902 $295 40 $290 $436 forward 7 unknown #
coedge $-1 $178 $174 $432 $437 reversed $294 $-1 #
coedge $-1 $174 $178 $425 $438 forward $294 $-1 #
loop $-1 $-1 $178 $439 #
vertex $-1 $437 $440 #
vertex $-1 $288 $441 #
straight-curve $-1 0 -40 -20 -1 0 0 I I #
coedge $-1 $442 $176 $443 $444 forward $57 $-1 #
coedge $-1 $432 $431 $176 $300 reversed $433 $-1 #
edge $445 $306 -40 $446 -28.284271247461902 $299 $447 forward 7 unknown #
coedge $-1 $177 $442 $415 $448 forward $57 $-1 #
coedge $-1 $416 $425 $177 $303 reversed $426 $-1 #
edge $449 $450 -40 $305 40 $302 $451 forward 7 unknown #
attrib_edge_convexity-kcp-attrib $-1 $452 $-1 $179 1 #
vertex $-1 $303 $453 #
vertex $-1 $300 $454 #
straight-curve $-1 0 -40 20 1 0 0 I I #
coedge $-1 $335 $180 $183 $315 forward $310 $-1 #
coedge $-1 $180 $335 $329 $455 reversed $310 $-1 #
loop $-1 $-1 $309 $327 #
attrib_edge_convexity-kcp-attrib $-1 $456 $-1 $181 1 #
vertex $-1 $181 $457 #
straight-curve $-1 -30 0 20 0 1 0 I I #
edge $458 $459 2.9738446968925372 $189 4.6456728319744647 $182 $219 forward 7 unknown #
edge $-1 $185 -20 $324 20 $308 $460 forward 7 unknown #
convexity-sys-attrib $-1 $-1 $184 $101 #
point $-1 -30 -30 20 #
straight-curve $-1 28 -29.933259094191531 0 0 0 1 I I #
convexity-sys-attrib $-1 $-1 $188 $103 #
point $-1 28 -29.933259094191531 20 #
coedge $-1 $339 $190 $461 $462 forward $95 $-1 #
edge $-1 $192 1.6375124752051218 $463 2.411864997362827 $190 $213 forward 7 unknown #
point $-1 28 -29.933259094191531 -20 #
vertex $-1 $193 $464 #
straight-curve $-1 0 -30 -20 1 0 0 I I #
model_id-kcp-attrib $-1 $-1 $-1 $194 1 990663523 70 1799749633 17 #
face $465 $330 $310 $7 $-1 $466 forward single #
plane-surface $-1 0 -30 0 0 1 0 0 0 1 forward_v I I I I #
coedge $-1 $198 $197 $309 $455 forward $199 $-1 #
face $467 $439 $199 $7 $-1 $468 forward single #
coedge $-1 $215 $469 $201 $332 reversed $169 $-1 #
edge $470 $218 -0.60137847322780313 $459 1.528673691229415 $201 $471 forward 7 unknown #
attrib_edge_convexity-kcp-attrib $-1 $472 $-1 $202 1 #
straight-curve $-1 0 30 20 1 0 0 I I #
coedge $-1 $309 $308 $205 $336 reversed $310 $-1 #
edge $-1 $337 -30 $324 30 $205 $473 forward 7 unknown #
vertex $-1 $336 $474 #
straight-curve $-1 0 30 -20 -1 0 0 I I #
coedge $-1 $207 $321 $475 $476 forward $95 $-1 #
coedge $-1 $477 $210 $207 $341 reversed $346 $-1 #
edge $-1 $478 -10 $212 0 $340 $479 forward 7 unknown #
coedge $-1 $221 $209 $480 $481 forward $70 $-1 #
coedge $-1 $482 $483 $209 $344 reversed $413 $-1 #
edge $-1 $347 -3.1415926535897931 $484 -2.411864997362827 $209 $485 forward 7 unknown #
coedge $-1 $210 $477 $482 $486 reversed $346 $-1 #
loop $-1 $-1 $210 $412 #
vertex $-1 $344 $487 #
straight-curve $-1 0 0 0 0 0 1 I I #
point $-1 0 0 -20 #
coedge $-1 $214 $220 $469 $488 forward $70 $-1 #
coedge $-1 $489 $489 $214 $352 reversed $281 $-1 #
edge $-1 $490 -2.9738446968925372 $354 -2.3820453922854372 $214 $491 forward 7 unknown #
coedge $-1 $469 $215 $489 $492 forward $169 $-1 #
vertex $-1 $216 $493 #
straight-curve $-1 8.2455648647685003 20.657796396203672 10.000000000000002 0 0 1 I I #
convexity-sys-attrib $-1 $-1 $217 $125 #
point $-1 8.2455648647685003 20.657796396203672 20.000000000000004 #
model_id-kcp-attrib $-1 $-1 $-1 $223 1 990663523 70 1799749633 14 #
face $494 $495 $496 $7 $-1 $497 reversed single #
loop $-1 $-1 $498 $223 #
plane-surface $-1 50 0 0 -1 0 0 0 0 1 forward_v I I I I #
coedge $-1 $231 $229 $233 $366 reversed $132 $-1 #
edge $-1 $244 -20 $368 20 $243 $499 forward 7 unknown #
vertex $-1 $366 $500 #
straight-curve $-1 -50 -40 0 0 0 -1 I I #
edge $-1 $364 -40 $368 40 $362 $501 forward 7 unknown #
straight-curve $-1 0 -40 -20 -1 0 0 I I #
vertex $-1 $236 $502 #
straight-curve $-1 0 40 -20 1 0 0 I I #
point $-1 50 40 -20 #
point $-1 50 -40 -20 #
straight-curve $-1 -50 0 20 0 -1 0 I I #
point $-1 -50 40 20 #
point $-1 -50 -40 20 #
straight-curve $-1 50 -40 0 0 0 -1 I I #
straight-curve $-1 50 40 0 0 0 -1 I I #
face $-1 $503 $504 $17 $-1 $505 forward single #
loop $-1 $-1 $268 $253 #
plane-surface $-1 18 -30 -1.7763568394002505e-015 0 -1 0 0 0 -1 forward_v I I I I #
coedge $-1 $257 $256 $506 $507 reversed $84 $-1 #
coedge $-1 $506 $508 $258 $382 forward $509 $-1 #
edge $510 $390 1.6375124752051218 $384 2.3820453922854372 $258 $511 forward 7 unknown #
convexity-sys-attrib $-1 $-1 $-1 $259 #
vertex $-1 $382 $512 #
straight-curve $-1 -1.7544351352314997 20.657796396203672 -1.7763568394002505e-015 0 0 1 I I #
coedge $-1 $513 $260 $508 $514 reversed $388 $-1 #
coedge $-1 $260 $513 $262 $393 reversed $388 $-1 #
loop $-1 $-1 $387 $515 #
convexity-sys-attrib $-1 $-1 $-1 $261 #
vertex $-1 $514 $516 #
straight-curve $-1 18 29.933259094191534 -1.7763568394002505e-015 0 0 1 I I #
coedge $-1 $267 $262 $517 $518 forward $33 $-1 #
edge $-1 $264 14.933259094191531 $519 15 $387 $520 forward 7 unknown #
point $-1 -1.7544351352314997 20.657796396203672 20 #
point $-1 18 29.933259094191531 20 #
coedge $-1 $521 $522 $267 $397 reversed $504 $-1 #
edge $-1 $523 -45 $400 15 $396 $524 forward 7 unknown #
coedge $-1 $525 $268 $522 $526 reversed $378 $-1 #
coedge $-1 $268 $525 $270 $403 forward $378 $-1 #
vertex $-1 $269 $527 #
straight-curve $-1 9 -30 20 1 0 0 I I #
coedge $-1 $271 $270 $528 $529 reversed $254 $-1 #
edge $-1 $530 0 $272 20 $399 $531 forward 7 unknown #
point $-1 18 -30 20 #
coedge $-1 $528 $506 $274 $406 forward $509 $-1 #
edge $532 $409 2.9738446968925372 $407 4.6456728319744647 $274 $533 forward 7 unknown #
vertex $-1 $406 $534 #
straight-curve $-1 18 -29.933259094191527 -1.7763568394002505e-015 0 0 1 I I #
vertex $-1 $406 $535 #
straight-curve $-1 -9.578898198101836 5.0088702704629977 -1.7763568394002505e-015 0 0 1 I I #
model_id-kcp-attrib $-1 $-1 $-1 $280 1 990663523 70 1799749633 9 #
face $536 $537 $346 $7 $-1 $538 reversed single #
loop $-1 $-1 $343 $280 #
plane-surface $-1 0 -10 0 0 0 1 1 0 0 forward_v I I I I #
coedge $-1 $284 $283 $301 $448 reversed $93 $-1 #
coedge $-1 $287 $302 $283 $417 forward $426 $-1 #
edge $539 $450 -20 $422 20 $283 $540 forward 7 unknown #
coedge $-1 $541 $542 $284 $419 reversed $496 $-1 #
edge $543 $544 -20 $423 20 $418 $545 forward 7 unknown #
coedge $-1 $289 $285 $542 $546 forward $55 $-1 #
attrib_edge_convexity-kcp-attrib $-1 $547 $-1 $286 1 #
vertex $-1 $286 $548 #
vertex $-1 $546 $549 #
straight-curve $-1 0 40 -20 1 0 0 I I #
coedge $-1 $302 $287 $293 $438 reversed $426 $-1 #
loop $-1 $-1 $416 $550 #
attrib_edge_convexity-kcp-attrib $-1 $551 $-1 $288 1 #
straight-curve $-1 -40 0 -20 0 1 0 I I #
coedge $-1 $552 $498 $289 $430 reversed $360 $-1 #
edge $-1 $553 -1.2309594173407747 $435 1.2309594173407747 $289 $213 forward 7 unknown #
coedge $-1 $299 $290 $498 $554 forward $433 $-1 #
coedge $-1 $290 $299 $292 $437 forward $433 $-1 #
loop $-1 $-1 $431 $495 #
attrib_edge_convexity-kcp-attrib $-1 $555 $-1 $291 1 #
vertex $-1 $291 $556 #
straight-curve $-1 40 0 -20 0 -1 0 I I #
edge $557 $306 -20 $295 20 $432 $558 forward 7 unknown #
edge $559 $305 -20 $296 20 $425 $560 forward 7 unknown #
face $561 $550 $294 $7 $-1 $562 reversed single #
point $-1 40 -40 -20 #
point $-1 -40 -40 -20 #
coedge $-1 $301 $298 $541 $563 forward $57 $-1 #
coedge $-1 $498 $552 $298 $444 reversed $360 $-1 #
edge $564 $446 -1.2309594173407747 $565 1.2309594173407747 $298 $219 forward 7 unknown #
attrib_edge_convexity-kcp-attrib $-1 $566 $-1 $300 1 #
vertex $-1 $300 $567 #
straight-curve $-1 40 0 20 0 1 0 I I #
edge $568 $544 -40 $450 40 $415 $569 forward 7 unknown #
attrib_edge_convexity-kcp-attrib $-1 $570 $-1 $303 1 #
vertex $-1 $448 $571 #
straight-curve $-1 -40 0 20 0 -1 0 I I #
convexity-sys-attrib $-1 $-1 $304 $179 #
point $-1 -40 -40 20 #
point $-1 40 -40 20 #
edge $-1 $312 -20 $337 20 $329 $572 forward 7 unknown #
convexity-sys-attrib $-1 $-1 $311 $181 #
point $-1 -30 30 20 #
attrib_edge_convexity-kcp-attrib $-1 $573 $-1 $314 1 #
vertex $-1 $488 $574 #
straight-curve $-1 -30 -30 0 0 0 -1 I I #
coedge $-1 $480 $575 $321 $462 reversed $576 $-1 #
edge $-1 $463 -7.6393202250021019 $577 10 $461 $578 forward 7 unknown #
vertex $-1 $322 $579 #
point $-1 -30 -30 -20 #
model_id-kcp-attrib $-1 $-1 $-1 $327 1 990663523 70 1799749633 18 #
plane-surface $-1 -30 0 0 1 0 0 0 0 -1 forward_v I I I I #
model_id-kcp-attrib $-1 $-1 $-1 $330 1 990663523 70 1799749633 19 #
plane-surface $-1 0 30 0 0 -1 0 0 0 -1 forward_v I I I I #
coedge $-1 $331 $353 $350 $488 reversed $169 $-1 #
attrib_edge_convexity-kcp-attrib $-1 $580 $-1 $332 1 #
ellipse-curve $-1 0 15 20 0 0 -1 10 0 0 1 I I #
convexity-sys-attrib $-1 $-1 $333 $202 #
straight-curve $-1 -30 0 -20 0 -1 0 I I #
point $-1 -30 30 -20 #
coedge $-1 $581 $582 $339 $476 reversed $583 $-1 #
edge $-1 $577 -10 $478 10 $475 $584 forward 7 unknown #
coedge $-1 $345 $340 $582 $585 reversed $346 $-1 #
vertex $-1 $341 $586 #
straight-curve $-1 0 0 -20 1 0 0 I I #
coedge $-1 $587 $461 $342 $481 reversed $576 $-1 #
edge $-1 $484 0 $463 20 $342 $588 forward 7 unknown #
coedge $-1 $589 $343 $345 $486 forward $413 $-1 #
coedge $-1 $343 $589 $587 $590 forward $413 $-1 #
vertex $-1 $344 $591 #
ellipse-curve $-1 30 0 0 0 0 1 30 0 0 1 I I #
edge $-1 $347 0 $592 10 $345 $593 forward 7 unknown #
point $-1 0 0 0 #
edge $-1 $459 -10.000000000000002 $490 10.000000000000002 $350 $594 forward 7 unknown #
coedge $-1 $351 $351 $353 $492 reversed $281 $-1 #
vertex $-1 $488 $595 #
ellipse-curve $-1 30 0 0 0 0 -1 30 0 0 1 I I #
edge $-1 $354 -0.60137847322780313 $490 1.528673691229415 $489 $596 forward 7 unknown #
point $-1 8.2455648647685003 20.657796396203672 0 #
model_id-kcp-attrib $-1 $-1 $-1 $359 1 990663523 70 1799749633 15 #
face $597 $194 $433 $7 $-1 $497 reversed single #
loop $-1 $-1 $598 $359 #
plane-surface $-1 40 0 0 -1 0 0 0 0 1 forward_v I I I I #
coedge $-1 $429 $443 $431 $554 reversed $360 $-1 #
straight-curve $-1 -50 40 0 0 0 -1 I I #
point $-1 -50 -40 -20 #
straight-curve $-1 -50 0 -20 0 1 0 I I #
point $-1 -50 40 -20 #
face $-1 $515 $599 $17 $-1 $600 forward single #
loop $-1 $-1 $396 $377 #
plane-surface $-1 -40 -30 -1.7763568394002505e-015 -1 0 0 0 0 1 forward_v I I I I #
coedge $-1 $405 $381 $380 $507 forward $509 $-1 #
edge $601 $384 -0.60137847322780313 $409 1.5286736912294152 $380 $602 forward 7 unknown #
coedge $-1 $381 $603 $386 $514 forward $509 $-1 #
loop $-1 $-1 $405 $604 #
convexity-sys-attrib $-1 $-1 $-1 $382 #
ellipse-curve $-1 20 0 0 0 0 1 30 0 0 1 I I #
point $-1 -1.7544351352314997 20.657796396203672 -1.7763568394002505e-015 #
coedge $-1 $387 $386 $605 $606 forward $388 $-1 #
edge $607 $608 -35 $390 -34.933259094191527 $386 $609 forward 7 unknown #
face $-1 $604 $388 $17 $-1 $610 forward single #
point $-1 18 29.933259094191531 -1.7763568394002505e-015 #
coedge $-1 $605 $611 $392 $518 reversed $599 $-1 #
edge $-1 $519 -38 $523 20 $517 $612 forward 7 unknown #
vertex $-1 $518 $613 #
straight-curve $-1 18 15 20 0 1 0 I I #
coedge $-1 $614 $396 $611 $615 reversed $504 $-1 #
coedge $-1 $396 $614 $398 $526 forward $504 $-1 #
vertex $-1 $397 $616 #
straight-curve $-1 -40 -15 20 0 -1 0 I I #
coedge $-1 $399 $398 $617 $618 reversed $378 $-1 #
edge $-1 $619 0 $400 20 $522 $620 forward 7 unknown #
point $-1 -40 -30 20 #
coedge $-1 $617 $405 $402 $529 forward $509 $-1 #
edge $621 $407 24.933259094191531 $530 25 $402 $622 forward 7 unknown #
vertex $-1 $529 $623 #
straight-curve $-1 18 -30 -1.7763568394002505e-015 0 0 1 I I #
convexity-sys-attrib $-1 $-1 $-1 $406 #
ellipse-curve $-1 20 0 0 0 0 1 30 0 0 1 I I #
point $-1 18 -29.933259094191531 -1.7763568394002505e-015 #
point $-1 -9.578898198101836 5.0088702704629977 -1.7763568394002505e-015 #
model_id-kcp-attrib $-1 $-1 $-1 $412 1 990663523 70 1799749633 10 #
face $624 $625 $576 $7 $-1 $626 reversed single #
plane-surface $-1 0 0 -10 0 -1 0 0 0 -1 forward_v I I I I #
attrib_edge_convexity-kcp-attrib $-1 $627 $-1 $417 1 #
straight-curve $-1 -40 40 0 0 0 -1 I I #
coedge $-1 $598 $418 $442 $563 reversed $496 $-1 #
coedge $-1 $418 $598 $420 $546 reversed $496 $-1 #
attrib_edge_convexity-kcp-attrib $-1 $628 $-1 $419 1 #
vertex $-1 $563 $629 #
straight-curve $-1 40 40 0 0 0 -1 I I #
edge $630 $423 -40 $553 -28.284271247461902 $542 $436 forward 7 unknown #
convexity-sys-attrib $-1 $-1 $421 $286 #
point $-1 -40 40 -20 #
point $-1 40 40 -20 #
face $631 $-1 $426 $7 $-1 $632 reversed single #
convexity-sys-attrib $-1 $-1 $427 $288 #
coedge $-1 $443 $429 $598 $633 reversed $360 $-1 #
vertex $-1 $546 $634 #
edge $635 $435 -20 $446 20 $431 $636 forward 7 unknown #
convexity-sys-attrib $-1 $-1 $434 $291 #
point $-1 40 -28.284271247461902 -20 #
attrib_edge_convexity-kcp-attrib $-1 $637 $-1 $437 1 #
straight-curve $-1 40 -40 0 0 0 -1 I I #
attrib_edge_convexity-kcp-attrib $-1 $638 $-1 $438 1 #
straight-curve $-1 -40 -40 0 0 0 -1 I I #
model_id-kcp-attrib $-1 $-1 $-1 $439 1 990663523 70 1799749633 20 #
plane-surface $-1 0 -40 0 0 1 0 0 0 1 forward_v I I I I #
edge $639 $565 28.284271247461902 $544 40 $541 $447 forward 7 unknown #
attrib_edge_convexity-kcp-attrib $-1 $640 $-1 $444 1 #
vertex $-1 $563 $641 #
convexity-sys-attrib $-1 $-1 $445 $300 #
point $-1 40 -28.284271247461902 20 #
attrib_edge_convexity-kcp-attrib $-1 $642 $-1 $448 1 #
straight-curve $-1 0 40 20 -1 0 0 I I #
convexity-sys-attrib $-1 $-1 $449 $303 #
point $-1 -40 40 20 #
straight-curve $-1 -30 30 0 0 0 -1 I I #
convexity-sys-attrib $-1 $-1 $458 $314 #
point $-1 0.42110180189816493 5.0088702704629977 20.000000000000004 #
coedge $-1 $461 $587 $581 $643 forward $576 $-1 #
loop $-1 $-1 $480 $537 #
vertex $-1 $476 $644 #
straight-curve $-1 0 -20 -20 -1 0 0 I I #
point $-1 7.6393202250021019 -20 -20 #
convexity-sys-attrib $-1 $-1 $470 $332 #
coedge $-1 $645 $475 $575 $643 reversed $583 $-1 #
coedge $-1 $475 $645 $477 $585 forward $583 $-1 #
loop $-1 $-1 $582 $625 #
straight-curve $-1 -10 -10 -20 0 1 0 I I #
edge $-1 $592 -10 $478 10 $477 $646 forward 7 unknown #
point $-1 -10 0 -20 #
coedge $-1 $575 $480 $483 $590 reversed $576 $-1 #
straight-curve $-1 7.6393202250021019 -20 0 0 0 -1 I I #
coedge $-1 $483 $482 $645 $647 forward $413 $-1 #
edge $-1 $648 -10 $484 7.6393202250021019 $587 $649 forward 7 unknown #
point $-1 7.6393202250021019 -20 0 #
vertex $-1 $486 $650 #
straight-curve $-1 0 0 0 -1 0 0 I I #
straight-curve $-1 0.42110180189816493 5.0088702704629977 10.000000000000002 0 0 -1 I I #
point $-1 0.42110180189816493 5.0088702704629977 0 #
ellipse-curve $-1 0 15 0 0 0 -1 10 0 0 1 I I #
model_id-kcp-attrib $-1 $-1 $-1 $495 1 990663523 70 1799749633 16 #
coedge $-1 $542 $541 $552 $633 forward $496 $-1 #
loop $-1 $-1 $517 $503 #
plane-surface $-1 -40 30 -1.7763568394002505e-015 0 1 0 0 0 1 forward_v I I I I #
convexity-sys-attrib $-1 $-1 $-1 $507 #
ellipse-curve $-1 -10 15 0 0 0 -1 10 0 0 1 I I #
coedge $-1 $508 $651 $652 $653 forward $509 $-1 #
face $-1 $-1 $509 $17 $-1 $654 reversed single #
coedge $-1 $652 $517 $513 $606 reversed $599 $-1 #
edge $-1 $608 0 $519 20 $513 $655 forward 7 unknown #
convexity-sys-attrib $-1 $-1 $-1 $514 #
vertex $-1 $653 $656 #
straight-curve $-1 18 -5 0 0 -1 0 I I #
plane-surface $-1 18 30 -1.7763568394002505e-015 1 0 0 0 0 -1 forward_v I I I I #
coedge $-1 $517 $652 $521 $615 forward $599 $-1 #
straight-curve $-1 -20 30 20 -1 0 0 I I #
point $-1 18 30 20 #
coedge $-1 $522 $521 $651 $657 reversed $504 $-1 #
edge $-1 $658 0 $523 20 $611 $659 forward 7 unknown #
point $-1 -40 30 20 #
coedge $-1 $651 $528 $525 $618 forward $509 $-1 #
edge $660 $530 -28.590169943749473 $619 29.409830056250527 $525 $661 forward 7 unknown #
vertex $-1 $618 $662 #
straight-curve $-1 -40 -30 -1.7763568394002505e-015 0 0 1 I I #
convexity-sys-attrib $-1 $-1 $-1 $529 #
straight-curve $-1 18 -5 0 0 -1 0 I I #
point $-1 18 -30 -1.7763568394002505e-015 #
model_id-kcp-attrib $-1 $-1 $-1 $537 1 990663523 70 1799749633 11 #
face $663 $127 $583 $7 $-1 $664 reversed single #
plane-surface $-1 0 -20 -10 0 1 0 0 0 1 forward_v I I I I #
convexity-sys-attrib $-1 $-1 $539 $417 #
convexity-sys-attrib $-1 $-1 $543 $419 #
point $-1 40 40 20 #
attrib_edge_convexity-kcp-attrib $-1 $665 $-1 $546 1 #
model_id-kcp-attrib $-1 $-1 $-1 $550 1 990663523 70 1799749633 21 #
plane-surface $-1 -40 0 0 1 0 0 0 0 -1 forward_v I I I I #
edge $666 $565 -20 $553 20 $598 $667 forward 7 unknown #
point $-1 40 28.284271247461902 -20 #
attrib_edge_convexity-kcp-attrib $-1 $668 $-1 $554 2 #
straight-curve $-1 40 -28.284271247461902 0 0 0 1 I I #
convexity-sys-attrib $-1 $-1 $557 $437 #
convexity-sys-attrib $-1 $-1 $559 $438 #
attrib_edge_convexity-kcp-attrib $-1 $669 $-1 $563 1 #
convexity-sys-attrib $-1 $-1 $564 $444 #
point $-1 40 28.284271247461902 20 #
convexity-sys-attrib $-1 $-1 $568 $448 #
edge $-1 $648 -10 $577 10 $581 $670 forward 7 unknown #
point $-1 -10 -20 -20 #
coedge $-1 $582 $581 $589 $647 reversed $583 $-1 #
straight-curve $-1 -10 0 -10 0 0 -1 I I #
edge $-1 $592 -10 $648 10 $645 $671 forward 7 unknown #
vertex $-1 $647 $672 #
straight-curve $-1 0 -20 0 1 0 0 I I #
point $-1 -10 0 0 #
coedge $-1 $603 $617 $614 $657 forward $509 $-1 #
coedge $-1 $611 $605 $603 $653 reversed $599 $-1 #
edge $673 $658 -29.409830056250527 $608 28.590169943749473 $652 $674 forward 7 unknown #
plane-surface $-1 -13.286575248456618 0.10040284759716485 0 0 0 1 1 0 0 forward_v I I I I #
straight-curve $-1 18 30 -1.7763568394002505e-015 0 0 1 I I #
point $-1 18 30 -1.7763568394002505e-015 #
edge $675 $619 -25 $658 35 $614 $676 forward 7 unknown #
vertex $-1 $657 $677 #
straight-curve $-1 -40 30 -1.7763568394002505e-015 0 0 1 I I #
convexity-sys-attrib $-1 $-1 $-1 $618 #
straight-curve $-1 -10.590169943749475 -30 0 -1 0 0 I I #
point $-1 -40 -30 -1.7763568394002505e-015 #
model_id-kcp-attrib $-1 $-1 $-1 $625 1 990663523 70 1799749633 12 #
plane-surface $-1 -10 -10 -10 1 0 0 0 0 -1 forward_v I I I I #
convexity-sys-attrib $-1 $-1 $630 $546 #
attrib_edge_convexity-kcp-attrib $-1 $678 $-1 $633 2 #
straight-curve $-1 40 28.284271247461902 0 0 0 -1 I I #
convexity-sys-attrib $-1 $-1 $635 $554 #
convexity-sys-attrib $-1 $-1 $639 $563 #
straight-curve $-1 -10 -20 -10 0 0 -1 I I #
straight-curve $-1 -10 -10 0 0 -1 0 I I #
point $-1 -10 -20 0 #
convexity-sys-attrib $-1 $-1 $-1 $653 #
straight-curve $-1 -10.590169943749475 30 0 1 0 0 I I #
convexity-sys-attrib $-1 $-1 $-1 $657 #
straight-curve $-1 -40 -5 0 0 1 0 I I #
point $-1 -40 30 -1.7763568394002505e-015 #
convexity-sys-attrib $-1 $-1 $666 $633 #
End-of-ACIS-data 