  0
SECTION
  2
HEADER
  9
$ACADVER
  1
AC1009
  9
$INSBASE
 10
0.0
 20
0.0
 30
0.0
  9
$EXTMIN
 10
0.0
 20
0.0
 30
0.0
  9
$EXTMAX
 10
5.0
 20
3.0
 30
5.0
  9
$LIMMIN
 10
0.0
 20
0.0
  9
$LIMMAX
 10
12.0
 20
9.0
  9
$ORTHOMODE
 70
     0
  9
$REGENMODE
 70
     1
  9
$FILLMODE
 70
     1
  9
$QTEXTMODE
 70
     0
  9
$MIRRTEXT
 70
     1
  9
$DRAGMODE
 70
     2
  9
$LTSCALE
 40
1.0
  9
$OSMODE
 70
     0
  9
$ATTMODE
 70
     1
  9
$TEXTSIZE
 40
0.2
  9
$TRACEWID
 40
0.05
  9
$TEXTSTYLE
  7
STANDARD
  9
$CLAYER
  8
0
  9
$CELTYPE
  6
BYLAYER
  9
$CECOLOR
 62
   256
  9
$DIMSCALE
 40
1.0
  9
$DIMASZ
 40
0.18
  9
$DIMEXO
 40
0.0625
  9
$DIMDLI
 40
0.38
  9
$DIMRND
 40
0.0
  9
$DIMDLE
 40
0.0
  9
$DIMEXE
 40
0.18
  9
$DIMTP
 40
0.0
  9
$DIMTM
 40
0.0
  9
$DIMTXT
 40
0.18
  9
$DIMCEN
 40
0.09
  9
$DIMTSZ
 40
0.0
  9
$DIMTOL
 70
     0
  9
$DIMLIM
 70
     0
  9
$DIMTIH
 70
     1
  9
$DIMTOH
 70
     1
  9
$DIMSE1
 70
     0
  9
$DIMSE2
 70
     0
  9
$DIMTAD
 70
     0
  9
$DIMZIN
 70
     0
  9
$DIMBLK
  1

  9
$DIMASO
 70
     1
  9
$DIMSHO
 70
     1
  9
$DIMPOST
  1

  9
$DIMAPOST
  1

  9
$DIMALT
 70
     0
  9
$DIMALTD
 70
     2
  9
$DIMALTF
 40
25.4
  9
$DIMLFAC
 40
1.0
  9
$DIMTOFL
 70
     0
  9
$DIMTVP
 40
0.0
  9
$DIMTIX
 70
     0
  9
$DIMSOXD
 70
     0
  9
$DIMSAH
 70
     0
  9
$DIMBLK1
  1

  9
$DIMBLK2
  1

  9
$DIMSTYLE
  2
*UNNAMED
  9
$DIMCLRD
 70
     0
  9
$DIMCLRE
 70
     0
  9
$DIMCLRT
 70
     0
  9
$DIMTFAC
 40
1.0
  9
$DIMGAP
 40
0.09
  9
$LUNITS
 70
     2
  9
$LUPREC
 70
     4
  9
$SKETCHINC
 40
0.1
  9
$FILLETRAD
 40
0.0
  9
$AUNITS
 70
     0
  9
$AUPREC
 70
     0
  9
$MENU
  1
acad
  9
$ELEVATION
 40
0.0
  9
$PELEVATION
 40
0.0
  9
$THICKNESS
 40
0.0
  9
$LIMCHECK
 70
     0
  9
$BLIPMODE
 70
     1
  9
$CHAMFERA
 40
0.0
  9
$CHAMFERB
 40
0.0
  9
$SKPOLY
 70
     0
  9
$TDCREATE
 40
2448820.918582546
  9
$TDUPDATE
 40
2448820.921441805
  9
$TDINDWG
 40
0.0028592593
  9
$TDUSRTIMER
 40
0.0028592593
  9
$USRTIMER
 70
     1
  9
$ANGBASE
 50
0.0
  9
$ANGDIR
 70
     0
  9
$PDMODE
 70
     0
  9
$PDSIZE
 40
0.0
  9
$PLINEWID
 40
0.0
  9
$COORDS
 70
     0
  9
$SPLFRAME
 70
     0
  9
$SPLINETYPE
 70
     6
  9
$SPLINESEGS
 70
     8
  9
$ATTDIA
 70
     0
  9
$ATTREQ
 70
     1
  9
$HANDLING
 70
     1
  9
$HANDSEED
  5
13A
  9
$SURFTAB1
 70
     6
  9
$SURFTAB2
 70
     6
  9
$SURFTYPE
 70
     6
  9
$SURFU
 70
     6
  9
$SURFV
 70
     6
  9
$UCSNAME
  2

  9
$UCSORG
 10
0.0
 20
0.0
 30
0.0
  9
$UCSXDIR
 10
1.0
 20
0.0
 30
0.0
  9
$UCSYDIR
 10
0.0
 20
1.0
 30
0.0
  9
$PUCSNAME
  2

  9
$PUCSORG
 10
0.0
 20
0.0
 30
0.0
  9
$PUCSXDIR
 10
1.0
 20
0.0
 30
0.0
  9
$PUCSYDIR
 10
0.0
 20
1.0
 30
0.0
  9
$USERI1
 70
     0
  9
$USERI2
 70
     0
  9
$USERI3
 70
     0
  9
$USERI4
 70
     0
  9
$USERI5
 70
     0
  9
$USERR1
 40
0.0
  9
$USERR2
 40
0.0
  9
$USERR3
 40
0.0
  9
$USERR4
 40
0.0
  9
$USERR5
 40
0.0
  9
$WORLDVIEW
 70
     1
  9
$SHADEDGE
 70
     3
  9
$SHADEDIF
 70
    70
  9
$TILEMODE
 70
     1
  9
$MAXACTVP
 70
    16
  9
$PINSBASE
 10
0.0
 20
0.0
 30
0.0
  9
$PLIMCHECK
 70
     0
  9
$PEXTMIN
 10
1.000000E+20
 20
1.000000E+20
 30
1.000000E+20
  9
$PEXTMAX
 10
-1.000000E+20
 20
-1.000000E+20
 30
-1.000000E+20
  9
$PLIMMIN
 10
0.0
 20
0.0
  9
$PLIMMAX
 10
12.0
 20
9.0
  9
$UNITMODE
 70
     0
  9
$VISRETAIN
 70
     0
  9
$PLINEGEN
 70
     0
  9
$PSLTSCALE
 70
     0
  9
$TREEDEPTH
 70
  3020
  9
$DWGCODEPAGE
  3
undefined
  0
ENDSEC
  0
SECTION
  2
TABLES
  0
TABLE
  2
VPORT
 70
     2
  0
VPORT
  2
*ACTIVE
 70
     0
 10
0.0
 20
0.0
 11
1.0
 21
1.0
 12
1.156354
 22
1.520777
 13
0.0
 23
0.0
 14
1.0
 24
1.0
 15
0.0
 25
0.0
 16
1.0
 26
2.0
 36
1.0
 17
0.0
 27
0.0
 37
0.0
 40
7.058186
 41
1.594883
 42
50.0
 43
0.0
 44
0.0
 50
0.0
 51
0.0
 71
     0
 72
   100
 73
     1
 74
     1
 75
     0
 76
     0
 77
     0
 78
     0
  0
ENDTAB
  0
TABLE
  2
LTYPE
 70
     1
  0
LTYPE
  2
CONTINUOUS
 70
    64
  3
Solid line
 72
    65
 73
     0
 40
0.0
  0
ENDTAB
  0
TABLE
  2
LAYER
 70
     2
  0
LAYER
  2
0
 70
    64
 62
     7
  6
CONTINUOUS
  0
LAYER
  2
AME_FRZ
 70
    65
 62
     7
  6
CONTINUOUS
  0
ENDTAB
  0
TABLE
  2
STYLE
 70
     1
  0
STYLE
  2
STANDARD
 70
     0
 40
0.0
 41
1.0
 50
0.0
 71
     0
 42
0.2
  3
txt
  4

  0
ENDTAB
  0
TABLE
  2
VIEW
 70
     0
  0
ENDTAB
  0
TABLE
  2
UCS
 70
     0
  0
ENDTAB
  0
TABLE
  2
APPID
 70
     2
  0
APPID
  2
ACAD
 70
    64
  0
APPID
  2
AME_SOL
 70
    64
  0
ENDTAB
  0
TABLE
  2
DIMSTYLE
 70
     0
  0
ENDTAB
  0
ENDSEC
  0
SECTION
  2
BLOCKS
  0
BLOCK
  8
0
  5
1
  2
AME_NIL
 70
    64
 10
0.0
 20
0.0
 30
0.0
  1
AME_NIL
  3
AME_NIL
  0
ENDBLK
  8
0
  5
2
  0
BLOCK
  8
0
  5
4
  2
AME_SOL
 70
    64
 10
0.0
 20
0.0
 30
0.0
  1
AME_SOL
  3
AME_SOL
  0
ENDBLK
  8
0
  5
5
  0
BLOCK
  8
0
  5
7
  2
*U2
 70
    65
 10
0.0
 20
0.0
 30
0.0
  1
*U
  3
*U
  0
LINE
  8
0
 62
     0
  5
8
 10
5.0
 20
2.0
 30
0.0
 11
5.0
 21
2.0
 31
5.0
1001
AME_SOL
1070
     1
1071
       18
  0
LINE
  8
0
 62
     0
  5
9
 10
5.0
 20
2.0
 30
5.0
 11
5.0
 21
0.0
 31
5.0
1001
AME_SOL
1070
     1
1071
       17
  0
LINE
  8
0
 62
     0
  5
A
 10
0.0
 20
2.0
 30
5.0
 11
5.0
 21
2.0
 31
5.0
1001
AME_SOL
1070
     1
1071
       16
  0
LINE
  8
0
 62
     0
  5
B
 10
0.0
 20
2.0
 30
0.0
 11
0.0
 21
2.0
 31
5.0
1001
AME_SOL
1070
     1
1071
       15
  0
LINE
  8
0
 62
     0
  5
C
 10
0.0
 20
2.0
 30
5.0
 11
0.0
 21
0.0
 31
5.0
1001
AME_SOL
1070
     1
1071
       14
  0
LINE
  8
0
 62
     0
  5
D
 10
0.0
 20
0.0
 30
0.0
 11
0.0
 21
0.0
 31
5.0
1001
AME_SOL
1070
     1
1071
       13
  0
LINE
  8
0
 62
     0
  5
E
 10
5.0
 20
0.0
 30
5.0
 11
5.0
 21
0.0
 31
0.0
1001
AME_SOL
1070
     1
1071
       12
  0
LINE
  8
0
 62
     0
  5
F
 10
0.0
 20
0.0
 30
5.0
 11
5.0
 21
0.0
 31
5.0
1001
AME_SOL
1070
     1
1071
       11
  0
LINE
  8
0
 62
     0
  5
10
 10
0.0
 20
0.0
 30
0.0
 11
5.0
 21
0.0
 31
0.0
1001
AME_SOL
1070
     1
1071
       10
  0
LINE
  8
0
 62
     0
  5
11
 10
0.0
 20
2.0
 30
0.0
 11
0.0
 21
0.0
 31
0.0
1001
AME_SOL
1070
     1
1071
        9
  0
LINE
  8
0
 62
     0
  5
12
 10
5.0
 20
0.0
 30
0.0
 11
5.0
 21
2.0
 31
0.0
1001
AME_SOL
1070
     1
1071
        8
  0
LINE
  8
0
 62
     0
  5
13
 10
5.0
 20
2.0
 30
0.0
 11
0.0
 21
2.0
 31
0.0
1001
AME_SOL
1070
     1
1071
        7
  0
ENDBLK
  8
0
  5
14
  0
BLOCK
  8
0
  5
18
  2
*U3
 70
    65
 10
0.0
 20
0.0
 30
0.0
  1
*U
  3
*U
  0
LINE
  8
0
 62
     0
  5
19
 10
3.0
 20
1.0
 30
0.0
 11
3.0
 21
1.0
 31
3.0
1001
AME_SOL
1070
     1
1071
       18
  0
LINE
  8
0
 62
     0
  5
1A
 10
3.0
 20
1.0
 30
3.0
 11
3.0
 21
0.0
 31
3.0
1001
AME_SOL
1070
     1
1071
       17
  0
LINE
  8
0
 62
     0
  5
1B
 10
0.0
 20
1.0
 30
3.0
 11
3.0
 21
1.0
 31
3.0
1001
AME_SOL
1070
     1
1071
       16
  0
LINE
  8
0
 62
     0
  5
1C
 10
0.0
 20
1.0
 30
0.0
 11
0.0
 21
1.0
 31
3.0
1001
AME_SOL
1070
     1
1071
       15
  0
LINE
  8
0
 62
     0
  5
1D
 10
0.0
 20
1.0
 30
3.0
 11
0.0
 21
0.0
 31
3.0
1001
AME_SOL
1070
     1
1071
       14
  0
LINE
  8
0
 62
     0
  5
1E
 10
0.0
 20
0.0
 30
0.0
 11
0.0
 21
0.0
 31
3.0
1001
AME_SOL
1070
     1
1071
       13
  0
LINE
  8
0
 62
     0
  5
1F
 10
3.0
 20
0.0
 30
3.0
 11
3.0
 21
0.0
 31
0.0
1001
AME_SOL
1070
     1
1071
       12
  0
LINE
  8
0
 62
     0
  5
20
 10
0.0
 20
0.0
 30
3.0
 11
3.0
 21
0.0
 31
3.0
1001
AME_SOL
1070
     1
1071
       11
  0
LINE
  8
0
 62
     0
  5
21
 10
0.0
 20
0.0
 30
0.0
 11
3.0
 21
0.0
 31
0.0
1001
AME_SOL
1070
     1
1071
       10
  0
LINE
  8
0
 62
     0
  5
22
 10
0.0
 20
1.0
 30
0.0
 11
0.0
 21
0.0
 31
0.0
1001
AME_SOL
1070
     1
1071
        9
  0
LINE
  8
0
 62
     0
  5
23
 10
3.0
 20
0.0
 30
0.0
 11
3.0
 21
1.0
 31
0.0
1001
AME_SOL
1070
     1
1071
        8
  0
LINE
  8
0
 62
     0
  5
24
 10
3.0
 20
1.0
 30
0.0
 11
0.0
 21
1.0
 31
0.0
1001
AME_SOL
1070
     1
1071
        7
  0
ENDBLK
  8
0
  5
25
  0
BLOCK
  8
0
  5
29
  2
*U4
 70
    65
 10
0.0
 20
0.0
 30
0.0
  1
*U
  3
*U
  0
LINE
  8
0
 62
     0
  5
2A
 10
1.0
 20
2.0
 30
0.0
 11
1.0
 21
2.0
 31
1.0
1001
AME_SOL
1070
     1
1071
       18
  0
LINE
  8
0
 62
     0
  5
2B
 10
1.0
 20
2.0
 30
1.0
 11
1.0
 21
0.0
 31
1.0
1001
AME_SOL
1070
     1
1071
       17
  0
LINE
  8
0
 62
     0
  5
2C
 10
0.0
 20
2.0
 30
1.0
 11
1.0
 21
2.0
 31
1.0
1001
AME_SOL
1070
     1
1071
       16
  0
LINE
  8
0
 62
     0
  5
2D
 10
0.0
 20
2.0
 30
0.0
 11
0.0
 21
2.0
 31
1.0
1001
AME_SOL
1070
     1
1071
       15
  0
LINE
  8
0
 62
     0
  5
2E
 10
0.0
 20
2.0
 30
1.0
 11
0.0
 21
0.0
 31
1.0
1001
AME_SOL
1070
     1
1071
       14
  0
LINE
  8
0
 62
     0
  5
2F
 10
0.0
 20
0.0
 30
0.0
 11
0.0
 21
0.0
 31
1.0
1001
AME_SOL
1070
     1
1071
       13
  0
LINE
  8
0
 62
     0
  5
30
 10
1.0
 20
0.0
 30
1.0
 11
1.0
 21
0.0
 31
0.0
1001
AME_SOL
1070
     1
1071
       12
  0
LINE
  8
0
 62
     0
  5
31
 10
0.0
 20
0.0
 30
1.0
 11
1.0
 21
0.0
 31
1.0
1001
AME_SOL
1070
     1
1071
       11
  0
LINE
  8
0
 62
     0
  5
32
 10
0.0
 20
0.0
 30
0.0
 11
1.0
 21
0.0
 31
0.0
1001
AME_SOL
1070
     1
1071
       10
  0
LINE
  8
0
 62
     0
  5
33
 10
0.0
 20
2.0
 30
0.0
 11
0.0
 21
0.0
 31
0.0
1001
AME_SOL
1070
     1
1071
        9
  0
LINE
  8
0
 62
     0
  5
34
 10
1.0
 20
0.0
 30
0.0
 11
1.0
 21
2.0
 31
0.0
1001
AME_SOL
1070
     1
1071
        8
  0
LINE
  8
0
 62
     0
  5
35
 10
1.0
 20
2.0
 30
0.0
 11
0.0
 21
2.0
 31
0.0
1001
AME_SOL
1070
     1
1071
        7
  0
ENDBLK
  8
0
  5
36
  0
BLOCK
  8
0
  5
3B
  2
*U5
 70
    65
 10
0.0
 20
0.0
 30
0.0
  1
*U
  3
*U
  0
LINE
  8
0
 62
     7
  5
3C
 10
5.0
 20
2.0
 30
0.0
 11
5.0
 21
2.0
 31
5.0
1001
AME_SOL
1070
     1
1071
       35
  0
LINE
  8
0
 62
     7
  5
3D
 10
5.0
 20
2.0
 30
5.0
 11
5.0
 21
0.0
 31
5.0
1001
AME_SOL
1070
     1
1071
       34
  0
LINE
  8
0
 62
     7
  5
3E
 10
0.0
 20
2.0
 30
5.0
 11
5.0
 21
2.0
 31
5.0
1001
AME_SOL
1070
     1
1071
       33
  0
LINE
  8
0
 62
     7
  5
3F
 10
0.0
 20
2.0
 30
0.0
 11
0.0
 21
2.0
 31
5.0
1001
AME_SOL
1070
     1
1071
       32
  0
LINE
  8
0
 62
     7
  5
40
 10
0.0
 20
2.0
 30
5.0
 11
0.0
 21
0.0
 31
5.0
1001
AME_SOL
1070
     1
1071
       31
  0
LINE
  8
0
 62
     7
  5
41
 10
0.0
 20
0.0
 30
0.0
 11
0.0
 21
0.0
 31
5.0
1001
AME_SOL
1070
     1
1071
       30
  0
LINE
  8
0
 62
     7
  5
42
 10
5.0
 20
0.0
 30
5.0
 11
5.0
 21
0.0
 31
0.0
1001
AME_SOL
1070
     1
1071
       29
  0
LINE
  8
0
 62
     7
  5
43
 10
0.0
 20
0.0
 30
5.0
 11
5.0
 21
0.0
 31
5.0
1001
AME_SOL
1070
     1
1071
       28
  0
LINE
  8
0
 62
     7
  5
44
 10
0.0
 20
0.0
 30
0.0
 11
5.0
 21
0.0
 31
0.0
1001
AME_SOL
1070
     1
1071
       27
  0
LINE
  8
0
 62
     7
  5
45
 10
0.0
 20
2.0
 30
0.0
 11
0.0
 21
0.0
 31
0.0
1001
AME_SOL
1070
     1
1071
       26
  0
LINE
  8
0
 62
     7
  5
46
 10
5.0
 20
0.0
 30
0.0
 11
5.0
 21
2.0
 31
0.0
1001
AME_SOL
1070
     1
1071
       25
  0
LINE
  8
0
 62
     7
  5
47
 10
5.0
 20
2.0
 30
0.0
 11
0.0
 21
2.0
 31
0.0
1001
AME_SOL
1070
     1
1071
       24
  0
LINE
  8
0
 62
     7
  5
48
 10
4.0
 20
2.0
 30
4.0
 11
4.0
 21
2.0
 31
1.0
1001
AME_SOL
1070
     1
1071
       23
  0
LINE
  8
0
 62
     7
  5
49
 10
1.0
 20
2.0
 30
4.0
 11
4.0
 21
2.0
 31
4.0
1001
AME_SOL
1070
     1
1071
       22
  0
LINE
  8
0
 62
     7
  5
4A
 10
4.0
 20
2.0
 30
4.0
 11
4.0
 21
1.0
 31
4.0
1001
AME_SOL
1070
     1
1071
       21
  0
LINE
  8
0
 62
     7
  5
4B
 10
1.0
 20
2.0
 30
1.0
 11
1.0
 21
2.0
 31
4.0
1001
AME_SOL
1070
     1
1071
       20
  0
LINE
  8
0
 62
     7
  5
4C
 10
1.0
 20
2.0
 30
4.0
 11
1.0
 21
1.0
 31
4.0
1001
AME_SOL
1070
     1
1071
       19
  0
LINE
  8
0
 62
     7
  5
4D
 10
1.0
 20
1.0
 30
1.0
 11
1.0
 21
1.0
 31
4.0
1001
AME_SOL
1070
     1
1071
       18
  0
LINE
  8
0
 62
     7
  5
4E
 10
4.0
 20
1.0
 30
4.0
 11
4.0
 21
1.0
 31
1.0
1001
AME_SOL
1070
     1
1071
       17
  0
LINE
  8
0
 62
     7
  5
4F
 10
1.0
 20
1.0
 30
4.0
 11
4.0
 21
1.0
 31
4.0
1001
AME_SOL
1070
     1
1071
       16
  0
LINE
  8
0
 62
     7
  5
50
 10
1.0
 20
2.0
 30
1.0
 11
1.0
 21
1.0
 31
1.0
1001
AME_SOL
1070
     1
1071
       15
  0
LINE
  8
0
 62
     7
  5
51
 10
4.0
 20
2.0
 30
1.0
 11
1.0
 21
2.0
 31
1.0
1001
AME_SOL
1070
     1
1071
       14
  0
LINE
  8
0
 62
     7
  5
52
 10
4.0
 20
1.0
 30
1.0
 11
4.0
 21
2.0
 31
1.0
1001
AME_SOL
1070
     1
1071
       13
  0
LINE
  8
0
 62
     7
  5
53
 10
1.0
 20
1.0
 30
1.0
 11
4.0
 21
1.0
 31
1.0
1001
AME_SOL
1070
     1
1071
       12
  0
ENDBLK
  8
0
  5
54
  0
BLOCK
  8
0
  5
77
  2
*U6
 70
    65
 10
0.0
 20
0.0
 30
0.0
  1
*U
  3
*U
  0
LINE
  8
0
 62
     7
  5
78
 10
5.0
 20
2.0
 30
0.0
 11
5.0
 21
2.0
 31
5.0
1001
AME_SOL
1070
     1
1071
       52
  0
LINE
  8
0
 62
     7
  5
79
 10
5.0
 20
2.0
 30
5.0
 11
5.0
 21
0.0
 31
5.0
1001
AME_SOL
1070
     1
1071
       51
  0
LINE
  8
0
 62
     7
  5
7A
 10
0.0
 20
2.0
 30
5.0
 11
5.0
 21
2.0
 31
5.0
1001
AME_SOL
1070
     1
1071
       50
  0
LINE
  8
0
 62
     7
  5
7B
 10
0.0
 20
2.0
 30
0.0
 11
0.0
 21
2.0
 31
5.0
1001
AME_SOL
1070
     1
1071
       49
  0
LINE
  8
0
 62
     7
  5
7C
 10
0.0
 20
2.0
 30
5.0
 11
0.0
 21
0.0
 31
5.0
1001
AME_SOL
1070
     1
1071
       48
  0
LINE
  8
0
 62
     7
  5
7D
 10
0.0
 20
0.0
 30
0.0
 11
0.0
 21
0.0
 31
5.0
1001
AME_SOL
1070
     1
1071
       47
  0
LINE
  8
0
 62
     7
  5
7E
 10
5.0
 20
0.0
 30
5.0
 11
5.0
 21
0.0
 31
0.0
1001
AME_SOL
1070
     1
1071
       46
  0
LINE
  8
0
 62
     7
  5
7F
 10
0.0
 20
0.0
 30
5.0
 11
5.0
 21
0.0
 31
5.0
1001
AME_SOL
1070
     1
1071
       45
  0
LINE
  8
0
 62
     7
  5
80
 10
0.0
 20
0.0
 30
0.0
 11
5.0
 21
0.0
 31
0.0
1001
AME_SOL
1070
     1
1071
       44
  0
LINE
  8
0
 62
     7
  5
81
 10
0.0
 20
2.0
 30
0.0
 11
0.0
 21
0.0
 31
0.0
1001
AME_SOL
1070
     1
1071
       43
  0
LINE
  8
0
 62
     7
  5
82
 10
5.0
 20
0.0
 30
0.0
 11
5.0
 21
2.0
 31
0.0
1001
AME_SOL
1070
     1
1071
       42
  0
LINE
  8
0
 62
     7
  5
83
 10
5.0
 20
2.0
 30
0.0
 11
0.0
 21
2.0
 31
0.0
1001
AME_SOL
1070
     1
1071
       41
  0
LINE
  8
0
 62
     7
  5
84
 10
4.0
 20
2.0
 30
4.0
 11
4.0
 21
2.0
 31
1.0
1001
AME_SOL
1070
     1
1071
       40
  0
LINE
  8
0
 62
     7
  5
85
 10
1.0
 20
2.0
 30
4.0
 11
4.0
 21
2.0
 31
4.0
1001
AME_SOL
1070
     1
1071
       39
  0
LINE
  8
0
 62
     7
  5
86
 10
4.0
 20
2.0
 30
4.0
 11
4.0
 21
1.0
 31
4.0
1001
AME_SOL
1070
     1
1071
       38
  0
LINE
  8
0
 62
     7
  5
87
 10
1.0
 20
2.0
 30
1.0
 11
1.0
 21
2.0
 31
4.0
1001
AME_SOL
1070
     1
1071
       37
  0
LINE
  8
0
 62
     7
  5
88
 10
1.0
 20
2.0
 30
4.0
 11
1.0
 21
1.0
 31
4.0
1001
AME_SOL
1070
     1
1071
       36
  0
LINE
  8
0
 62
     7
  5
89
 10
1.0
 20
1.0
 30
1.0
 11
1.0
 21
1.0
 31
4.0
1001
AME_SOL
1070
     1
1071
       35
  0
LINE
  8
0
 62
     7
  5
8A
 10
4.0
 20
1.0
 30
4.0
 11
4.0
 21
1.0
 31
1.0
1001
AME_SOL
1070
     1
1071
       34
  0
LINE
  8
0
 62
     7
  5
8B
 10
1.0
 20
1.0
 30
4.0
 11
4.0
 21
1.0
 31
4.0
1001
AME_SOL
1070
     1
1071
       33
  0
LINE
  8
0
 62
     7
  5
8C
 10
1.0
 20
1.0
 30
1.0
 11
4.0
 21
1.0
 31
1.0
1001
AME_SOL
1070
     1
1071
       32
  0
LINE
  8
0
 62
     7
  5
8D
 10
1.0
 20
2.0
 30
1.0
 11
1.0
 21
1.0
 31
1.0
1001
AME_SOL
1070
     1
1071
       31
  0
LINE
  8
0
 62
     7
  5
8E
 10
4.0
 20
2.0
 30
1.0
 11
1.0
 21
2.0
 31
1.0
1001
AME_SOL
1070
     1
1071
       30
  0
LINE
  8
0
 62
     7
  5
8F
 10
4.0
 20
1.0
 30
1.0
 11
4.0
 21
2.0
 31
1.0
1001
AME_SOL
1070
     1
1071
       29
  0
LINE
  8
0
 62
     7
  5
90
 10
3.0
 20
1.0
 30
2.0
 11
3.0
 21
1.0
 31
3.0
1001
AME_SOL
1070
     1
1071
       28
  0
LINE
  8
0
 62
     7
  5
91
 10
3.0
 20
3.0
 30
2.0
 11
3.0
 21
3.0
 31
3.0
1001
AME_SOL
1070
     1
1071
       27
  0
LINE
  8
0
 62
     7
  5
92
 10
3.0
 20
1.0
 30
3.0
 11
2.0
 21
1.0
 31
3.0
1001
AME_SOL
1070
     1
1071
       26
  0
LINE
  8
0
 62
     7
  5
93
 10
3.0
 20
3.0
 30
3.0
 11
3.0
 21
1.0
 31
3.0
1001
AME_SOL
1070
     1
1071
       25
  0
LINE
  8
0
 62
     7
  5
94
 10
2.0
 20
3.0
 30
3.0
 11
3.0
 21
3.0
 31
3.0
1001
AME_SOL
1070
     1
1071
       24
  0
LINE
  8
0
 62
     7
  5
95
 10
2.0
 20
1.0
 30
3.0
 11
2.0
 21
1.0
 31
2.0
1001
AME_SOL
1070
     1
1071
       23
  0
LINE
  8
0
 62
     7
  5
96
 10
2.0
 20
3.0
 30
2.0
 11
2.0
 21
3.0
 31
3.0
1001
AME_SOL
1070
     1
1071
       22
  0
LINE
  8
0
 62
     7
  5
97
 10
2.0
 20
3.0
 30
3.0
 11
2.0
 21
1.0
 31
3.0
1001
AME_SOL
1070
     1
1071
       21
  0
LINE
  8
0
 62
     7
  5
98
 10
2.0
 20
1.0
 30
2.0
 11
3.0
 21
1.0
 31
2.0
1001
AME_SOL
1070
     1
1071
       20
  0
LINE
  8
0
 62
     7
  5
99
 10
2.0
 20
3.0
 30
2.0
 11
2.0
 21
1.0
 31
2.0
1001
AME_SOL
1070
     1
1071
       19
  0
LINE
  8
0
 62
     7
  5
9A
 10
3.0
 20
1.0
 30
2.0
 11
3.0
 21
3.0
 31
2.0
1001
AME_SOL
1070
     1
1071
       18
  0
LINE
  8
0
 62
     7
  5
9B
 10
3.0
 20
3.0
 30
2.0
 11
2.0
 21
3.0
 31
2.0
1001
AME_SOL
1070
     1
1071
       17
  0
ENDBLK
  8
0
  5
9C
  0
BLOCK
  8
0
  5
A0
  2
*U7
 70
    65
 10
0.0
 20
0.0
 30
0.0
  1
*U
  3
*U
  0
POLYLINE
  8
0
 62
     7
  5
A1
 66
     1
 10
0.0
 20
0.0
 30
0.0
 70
    64
  0
VERTEX
  8
0
  5
A2
 10
5.0
 20
2.0
 30
0.0
 70
   192
  0
VERTEX
  8
0
  5
A3
 10
5.0
 20
2.0
 30
5.0
 70
   192
  0
VERTEX
  8
0
  5
A4
 10
5.0
 20
0.0
 30
0.0
 70
   192
  0
VERTEX
  8
0
  5
A5
 10
5.0
 20
0.0
 30
5.0
 70
   192
  0
VERTEX
  8
0
 62
     7
  5
A6
 10
0.0
 20
0.0
 30
0.0
 70
   128
 71
     1
 72
    -2
 73
     3
  0
VERTEX
  8
0
 62
     7
  5
A7
 10
0.0
 20
0.0
 30
0.0
 70
   128
 71
     2
 72
     4
 73
    -3
  0
SEQEND
  8
0
 62
     7
  5
A8
  0
POLYLINE
  8
0
 62
     7
  5
A9
 66
     1
 10
0.0
 20
0.0
 30
0.0
 70
    64
  0
VERTEX
  8
0
  5
AA
 10
4.0
 20
2.0
 30
4.0
 70
   192
  0
VERTEX
  8
0
  5
AB
 10
5.0
 20
2.0
 30
5.0
 70
   192
  0
VERTEX
  8
0
  5
AC
 10
5.0
 20
2.0
 30
0.0
 70
   192
  0
VERTEX
  8
0
  5
AD
 10
1.0
 20
2.0
 30
4.0
 70
   192
  0
VERTEX
  8
0
  5
AE
 10
4.0
 20
2.0
 30
1.0
 70
   192
  0
VERTEX
  8
0
  5
AF
 10
0.0
 20
2.0
 30
0.0
 70
   192
  0
VERTEX
  8
0
  5
B0
 10
0.0
 20
2.0
 30
5.0
 70
   192
  0
VERTEX
  8
0
  5
B1
 10
1.0
 20
2.0
 30
1.0
 70
   192
  0
VERTEX
  8
0
 62
     7
  5
B2
 10
0.0
 20
0.0
 30
0.0
 70
   128
 71
    -1
 72
     2
 73
    -3
  0
VERTEX
  8
0
 62
     7
  5
B3
 10
0.0
 20
0.0
 30
0.0
 70
   128
 71
     1
 72
    -4
 73
    -2
  0
VERTEX
  8
0
 62
     7
  5
B4
 10
0.0
 20
0.0
 30
0.0
 70
   128
 71
    -3
 72
     5
 73
    -1
  0
VERTEX
  8
0
 62
     7
  5
B5
 10
0.0
 20
0.0
 30
0.0
 70
   128
 71
     3
 72
    -6
 73
    -5
  0
VERTEX
  8
0
 62
     7
  5
B6
 10
0.0
 20
0.0
 30
0.0
 70
   128
 71
    -4
 72
     7
 73
    -2
  0
VERTEX
  8
0
 62
     7
  5
B7
 10
0.0
 20
0.0
 30
0.0
 70
   128
 71
    -4
 72
     6
 73
    -7
  0
VERTEX
  8
0
 62
     7
  5
B8
 10
0.0
 20
0.0
 30
0.0
 70
   128
 71
     4
 72
    -8
 73
    -6
  0
VERTEX
  8
0
 62
     7
  5
B9
 10
0.0
 20
0.0
 30
0.0
 70
   128
 71
    -6
 72
     8
 73
    -5
  0
SEQEND
  8
0
 62
     7
  5
BA
  0
POLYLINE
  8
0
 62
     7
  5
BB
 66
     1
 10
0.0
 20
0.0
 30
0.0
 70
    64
  0
VERTEX
  8
0
  5
BC
 10
5.0
 20
2.0
 30
5.0
 70
   192
  0
VERTEX
  8
0
  5
BD
 10
0.0
 20
2.0
 30
5.0
 70
   192
  0
VERTEX
  8
0
  5
BE
 10
0.0
 20
0.0
 30
5.0
 70
   192
  0
VERTEX
  8
0
  5
BF
 10
5.0
 20
0.0
 30
5.0
 70
   192
  0
VERTEX
  8
0
 62
     7
  5
C0
 10
0.0
 20
0.0
 30
0.0
 70
   128
 71
     1
 72
     2
 73
    -3
  0
VERTEX
  8
0
 62
     7
  5
C1
 10
0.0
 20
0.0
 30
0.0
 70
   128
 71
     3
 72
     4
 73
    -1
  0
SEQEND
  8
0
 62
     7
  5
C2
  0
POLYLINE
  8
0
 62
     7
  5
C3
 66
     1
 10
0.0
 20
0.0
 30
0.0
 70
    64
  0
VERTEX
  8
0
  5
C4
 10
0.0
 20
0.0
 30
0.0
 70
   192
  0
VERTEX
  8
0
  5
C5
 10
0.0
 20
0.0
 30
5.0
 70
   192
  0
VERTEX
  8
0
  5
C6
 10
0.0
 20
2.0
 30
5.0
 70
   192
  0
VERTEX
  8
0
  5
C7
 10
0.0
 20
2.0
 30
0.0
 70
   192
  0
VERTEX
  8
0
 62
     7
  5
C8
 10
0.0
 20
0.0
 30
0.0
 70
   128
 71
     1
 72
     2
 73
    -3
  0
VERTEX
  8
0
 62
     7
  5
C9
 10
0.0
 20
0.0
 30
0.0
 70
   128
 71
     3
 72
     4
 73
    -1
  0
SEQEND
  8
0
 62
     7
  5
CA
  0
POLYLINE
  8
0
 62
     7
  5
CB
 66
     1
 10
0.0
 20
0.0
 30
0.0
 70
    64
  0
VERTEX
  8
0
  5
CC
 10
5.0
 20
0.0
 30
0.0
 70
   192
  0
VERTEX
  8
0
  5
CD
 10
5.0
 20
0.0
 30
5.0
 70
   192
  0
VERTEX
  8
0
  5
CE
 10
0.0
 20
0.0
 30
0.0
 70
   192
  0
VERTEX
  8
0
  5
CF
 10
0.0
 20
0.0
 30
5.0
 70
   192
  0
VERTEX
  8
0
 62
     7
  5
D0
 10
0.0
 20
0.0
 30
0.0
 70
   128
 71
     1
 72
    -2
 73
     3
  0
VERTEX
  8
0
 62
     7
  5
D1
 10
0.0
 20
0.0
 30
0.0
 70
   128
 71
     2
 72
     4
 73
    -3
  0
SEQEND
  8
0
 62
     7
  5
D2
  0
POLYLINE
  8
0
 62
     7
  5
D3
 66
     1
 10
0.0
 20
0.0
 30
0.0
 70
    64
  0
VERTEX
  8
0
  5
D4
 10
5.0
 20
2.0
 30
0.0
 70
   192
  0
VERTEX
  8
0
  5
D5
 10
0.0
 20
0.0
 30
0.0
 70
   192
  0
VERTEX
  8
0
  5
D6
 10
0.0
 20
2.0
 30
0.0
 70
   192
  0
VERTEX
  8
0
  5
D7
 10
5.0
 20
0.0
 30
0.0
 70
   192
  0
VERTEX
  8
0
 62
     7
  5
D8
 10
0.0
 20
0.0
 30
0.0
 70
   128
 71
    -1
 72
     2
 73
     3
  0
VERTEX
  8
0
 62
     7
  5
D9
 10
0.0
 20
0.0
 30
0.0
 70
   128
 71
     1
 72
     4
 73
    -2
  0
SEQEND
  8
0
 62
     7
  5
DA
  0
POLYLINE
  8
0
 62
     7
  5
DB
 66
     1
 10
0.0
 20
0.0
 30
0.0
 70
    64
  0
VERTEX
  8
0
  5
DC
 10
4.0
 20
2.0
 30
4.0
 70
   192
  0
VERTEX
  8
0
  5
DD
 10
4.0
 20
1.0
 30
4.0
 70
   192
  0
VERTEX
  8
0
  5
DE
 10
4.0
 20
1.0
 30
1.0
 70
   192
  0
VERTEX
  8
0
  5
DF
 10
4.0
 20
2.0
 30
1.0
 70
   192
  0
VERTEX
  8
0
 62
     7
  5
E0
 10
0.0
 20
0.0
 30
0.0
 70
   128
 71
    -1
 72
     3
 73
     2
  0
VERTEX
  8
0
 62
     7
  5
E1
 10
0.0
 20
0.0
 30
0.0
 70
   128
 71
    -3
 72
     1
 73
     4
  0
SEQEND
  8
0
 62
     7
  5
E2
  0
POLYLINE
  8
0
 62
     7
  5
E3
 66
     1
 10
0.0
 20
0.0
 30
0.0
 70
    64
  0
VERTEX
  8
0
  5
E4
 10
4.0
 20
1.0
 30
4.0
 70
   192
  0
VERTEX
  8
0
  5
E5
 10
4.0
 20
2.0
 30
4.0
 70
   192
  0
VERTEX
  8
0
  5
E6
 10
1.0
 20
2.0
 30
4.0
 70
   192
  0
VERTEX
  8
0
  5
E7
 10
1.0
 20
1.0
 30
4.0
 70
   192
  0
VERTEX
  8
0
 62
     7
  5
E8
 10
0.0
 20
0.0
 30
0.0
 70
   128
 71
    -1
 72
     3
 73
     2
  0
VERTEX
  8
0
 62
     7
  5
E9
 10
0.0
 20
0.0
 30
0.0
 70
   128
 71
    -3
 72
     1
 73
     4
  0
SEQEND
  8
0
 62
     7
  5
EA
  0
POLYLINE
  8
0
 62
     7
  5
EB
 66
     1
 10
0.0
 20
0.0
 30
0.0
 70
    64
  0
VERTEX
  8
0
  5
EC
 10
1.0
 20
1.0
 30
1.0
 70
   192
  0
VERTEX
  8
0
  5
ED
 10
1.0
 20
1.0
 30
4.0
 70
   192
  0
VERTEX
  8
0
  5
EE
 10
1.0
 20
2.0
 30
1.0
 70
   192
  0
VERTEX
  8
0
  5
EF
 10
1.0
 20
2.0
 30
4.0
 70
   192
  0
VERTEX
  8
0
 62
     7
  5
F0
 10
0.0
 20
0.0
 30
0.0
 70
   128
 71
     1
 72
    -3
 73
     2
  0
VERTEX
  8
0
 62
     7
  5
F1
 10
0.0
 20
0.0
 30
0.0
 70
   128
 71
    -2
 72
     3
 73
     4
  0
SEQEND
  8
0
 62
     7
  5
F2
  0
POLYLINE
  8
0
 62
     7
  5
F3
 66
     1
 10
0.0
 20
0.0
 30
0.0
 70
    64
  0
VERTEX
  8
0
  5
F4
 10
2.0
 20
1.0
 30
3.0
 70
   192
  0
VERTEX
  8
0
  5
F5
 10
1.0
 20
1.0
 30
4.0
 70
   192
  0
VERTEX
  8
0
  5
F6
 10
1.0
 20
1.0
 30
1.0
 70
   192
  0
VERTEX
  8
0
  5
F7
 10
3.0
 20
1.0
 30
3.0
 70
   192
  0
VERTEX
  8
0
  5
F8
 10
2.0
 20
1.0
 30
2.0
 70
   192
  0
VERTEX
  8
0
  5
F9
 10
4.0
 20
1.0
 30
1.0
 70
   192
  0
VERTEX
  8
0
  5
FA
 10
4.0
 20
1.0
 30
4.0
 70
   192
  0
VERTEX
  8
0
  5
FB
 10
3.0
 20
1.0
 30
2.0
 70
   192
  0
VERTEX
  8
0
 62
     7
  5
FC
 10
0.0
 20
0.0
 30
0.0
 70
   128
 71
    -1
 72
     3
 73
    -2
  0
VERTEX
  8
0
 62
     7
  5
FD
 10
0.0
 20
0.0
 30
0.0
 70
   128
 71
    -1
 72
    -2
 73
     4
  0
VERTEX
  8
0
 62
     7
  5
FE
 10
0.0
 20
0.0
 30
0.0
 70
   128
 71
    -3
 72
     1
 73
    -5
  0
VERTEX
  8
0
 62
     7
  5
FF
 10
0.0
 20
0.0
 30
0.0
 70
   128
 71
    -3
 72
    -5
 73
     6
  0
VERTEX
  8
0
 62
     7
  5
100
 10
0.0
 20
0.0
 30
0.0
 70
   128
 71
    -4
 72
     2
 73
    -7
  0
VERTEX
  8
0
 62
     7
  5
101
 10
0.0
 20
0.0
 30
0.0
 70
   128
 71
    -4
 72
     7
 73
    -6
  0
VERTEX
  8
0
 62
     7
  5
102
 10
0.0
 20
0.0
 30
0.0
 70
   128
 71
    -4
 72
    -6
 73
     8
  0
VERTEX
  8
0
 62
     7
  5
103
 10
0.0
 20
0.0
 30
0.0
 70
   128
 71
    -6
 72
     5
 73
    -8
  0
SEQEND
  8
0
 62
     7
  5
104
  0
POLYLINE
  8
0
 62
     7
  5
105
 66
     1
 10
0.0
 20
0.0
 30
0.0
 70
    64
  0
VERTEX
  8
0
  5
106
 10
1.0
 20
1.0
 30
1.0
 70
   192
  0
VERTEX
  8
0
  5
107
 10
1.0
 20
2.0
 30
1.0
 70
   192
  0
VERTEX
  8
0
  5
108
 10
4.0
 20
2.0
 30
1.0
 70
   192
  0
VERTEX
  8
0
  5
109
 10
4.0
 20
1.0
 30
1.0
 70
   192
  0
VERTEX
  8
0
 62
     7
  5
10A
 10
0.0
 20
0.0
 30
0.0
 70
   128
 71
    -1
 72
     3
 73
     2
  0
VERTEX
  8
0
 62
     7
  5
10B
 10
0.0
 20
0.0
 30
0.0
 70
   128
 71
    -3
 72
     1
 73
     4
  0
SEQEND
  8
0
 62
     7
  5
10C
  0
POLYLINE
  8
0
 62
     7
  5
10D
 66
     1
 10
0.0
 20
0.0
 30
0.0
 70
    64
  0
VERTEX
  8
0
  5
10E
 10
3.0
 20
1.0
 30
3.0
 70
   192
  0
VERTEX
  8
0
  5
10F
 10
3.0
 20
1.0
 30
2.0
 70
   192
  0
VERTEX
  8
0
  5
110
 10
3.0
 20
3.0
 30
2.0
 70
   192
  0
VERTEX
  8
0
  5
111
 10
3.0
 20
3.0
 30
3.0
 70
   192
  0
VERTEX
  8
0
 62
     7
  5
112
 10
0.0
 20
0.0
 30
0.0
 70
   128
 71
     1
 72
     2
 73
    -3
  0
VERTEX
  8
0
 62
     7
  5
113
 10
0.0
 20
0.0
 30
0.0
 70
   128
 71
     3
 72
     4
 73
    -1
  0
SEQEND
  8
0
 62
     7
  5
114
  0
POLYLINE
  8
0
 62
     7
  5
115
 66
     1
 10
0.0
 20
0.0
 30
0.0
 70
    64
  0
VERTEX
  8
0
  5
116
 10
2.0
 20
3.0
 30
2.0
 70
   192
  0
VERTEX
  8
0
  5
117
 10
2.0
 20
3.0
 30
3.0
 70
   192
  0
VERTEX
  8
0
  5
118
 10
3.0
 20
3.0
 30
2.0
 70
   192
  0
VERTEX
  8
0
  5
119
 10
3.0
 20
3.0
 30
3.0
 70
   192
  0
VERTEX
  8
0
 62
     7
  5
11A
 10
0.0
 20
0.0
 30
0.0
 70
   128
 71
     1
 72
    -2
 73
     3
  0
VERTEX
  8
0
 62
     7
  5
11B
 10
0.0
 20
0.0
 30
0.0
 70
   128
 71
     2
 72
     4
 73
    -3
  0
SEQEND
  8
0
 62
     7
  5
11C
  0
POLYLINE
  8
0
 62
     7
  5
11D
 66
     1
 10
0.0
 20
0.0
 30
0.0
 70
    64
  0
VERTEX
  8
0
  5
11E
 10
2.0
 20
1.0
 30
3.0
 70
   192
  0
VERTEX
  8
0
  5
11F
 10
3.0
 20
3.0
 30
3.0
 70
   192
  0
VERTEX
  8
0
  5
120
 10
2.0
 20
3.0
 30
3.0
 70
   192
  0
VERTEX
  8
0
  5
121
 10
3.0
 20
1.0
 30
3.0
 70
   192
  0
VERTEX
  8
0
 62
     7
  5
122
 10
0.0
 20
0.0
 30
0.0
 70
   128
 71
    -1
 72
     2
 73
     3
  0
VERTEX
  8
0
 62
     7
  5
123
 10
0.0
 20
0.0
 30
0.0
 70
   128
 71
     1
 72
     4
 73
    -2
  0
SEQEND
  8
0
 62
     7
  5
124
  0
POLYLINE
  8
0
 62
     7
  5
125
 66
     1
 10
0.0
 20
0.0
 30
0.0
 70
    64
  0
VERTEX
  8
0
  5
126
 10
2.0
 20
3.0
 30
2.0
 70
   192
  0
VERTEX
  8
0
  5
127
 10
2.0
 20
1.0
 30
2.0
 70
   192
  0
VERTEX
  8
0
  5
128
 10
2.0
 20
1.0
 30
3.0
 70
   192
  0
VERTEX
  8
0
  5
129
 10
2.0
 20
3.0
 30
3.0
 70
   192
  0
VERTEX
  8
0
 62
     7
  5
12A
 10
0.0
 20
0.0
 30
0.0
 70
   128
 71
     1
 72
     2
 73
    -3
  0
VERTEX
  8
0
 62
     7
  5
12B
 10
0.0
 20
0.0
 30
0.0
 70
   128
 71
     3
 72
     4
 73
    -1
  0
SEQEND
  8
0
 62
     7
  5
12C
  0
POLYLINE
  8
0
 62
     7
  5
12D
 66
     1
 10
0.0
 20
0.0
 30
0.0
 70
    64
  0
VERTEX
  8
0
  5
12E
 10
3.0
 20
3.0
 30
2.0
 70
   192
  0
VERTEX
  8
0
  5
12F
 10
3.0
 20
1.0
 30
2.0
 70
   192
  0
VERTEX
  8
0
  5
130
 10
2.0
 20
1.0
 30
2.0
 70
   192
  0
VERTEX
  8
0
  5
131
 10
2.0
 20
3.0
 30
2.0
 70
   192
  0
VERTEX
  8
0
 62
     7
  5
132
 10
0.0
 20
0.0
 30
0.0
 70
   128
 71
     1
 72
     2
 73
    -3
  0
VERTEX
  8
0
 62
     7
  5
133
 10
0.0
 20
0.0
 30
0.0
 70
   128
 71
     3
 72
     4
 73
    -1
  0
SEQEND
  8
0
 62
     7
  5
134
  0
ENDBLK
  8
0
  5
135
  0
BLOCK
  8
0
  5
137
  2
AME_MAT
 70
    64
 10
0.0
 20
0.0
 30
0.0
  1
AME_MAT
  3
AME_MAT
  0
ENDBLK
  8
0
  5
138
  0
ENDSEC
  0
SECTION
  2
ENTITIES
  0
INSERT
  8
AME_FRZ
  5
3
  2
AME_NIL
 10
0.0
 20
0.0
 30
0.0
  0
INSERT
  8
AME_FRZ
  5
6
  2
AME_SOL
 10
0.0
 20
0.0
 30
0.0
1001
AME_SOL
1000
1.0
1000
sq cm
1070
     3
1070
     0
1070
     3
1000
wire
1040
0.0
1000
NONE
1040
1.0
1000
cm
1000
gm
1000
MILD_STEEL
1070
    25
1000
CSG
1070
     3
1070
     2
1070
     3
1000
cu cm
1070
     4
1070
     0
1005
3
  0
INSERT
  8
AME_FRZ
  5
15
  2
*U2
 10
0.0
 20
0.0
 30
0.0
1001
AME_SOL
1002
{
1070
     0
1071
  1990304
1070
  1536
1010
5.0
1020
2.0
1030
5.0
1005
0
1005
0
1005
55
1040
0.0
1040
1.0
1000
MILD_STEEL
1000
0
1010
0.0
1020
0.0
1030
0.0
1010
0.0
1020
0.0
1030
1.0
1040
0.0
1002
}
  0
INSERT
  8
AME_FRZ
  5
26
  2
*U3
 10
1.0
 20
1.0
 30
1.0
1001
AME_SOL
1002
{
1070
     0
1071
  1993168
1070
  1536
1010
3.0
1020
1.0
1030
3.0
1005
0
1005
0
1005
55
1040
0.0
1040
1.0
1000
MILD_STEEL
1000
0
1010
1.0
1020
1.0
1030
1.0
1010
0.0
1020
0.0
1030
1.0
1040
0.0
1002
}
  0
INSERT
  8
AME_FRZ
  5
37
  2
*U4
 10
2.0
 20
1.0
 30
2.0
1001
AME_SOL
1002
{
1070
     0
1071
  1987400
1070
  1536
1010
1.0
1020
2.0
1030
1.0
1005
0
1005
0
1005
9D
1040
0.0
1040
1.0
1000
MILD_STEEL
1000
0
1010
2.0
1020
1.0
1030
2.0
1010
0.0
1020
0.0
1030
1.0
1040
0.0
1002
}
  0
INSERT
  8
AME_FRZ
  5
38
  2
AME_NIL
 10
1.0
 20
1.0
 30
1.0
1001
AME_SOL
1004
E903A9FB0100F0FFFFFF000052F706000100000071C49CB971C49CB971C49CB9CC09803FE6040040CC09803F01000000FBF2040071C49CB971C49CB971C49CB9CC09803FE604004071C49C390100844EE0511E000100000001006A000000844E0000000000000000803F000000000000803F000000000000
1004
000000000000000000000000000005000000000000000000000000000000000000000000844E0000000000000000803F000000000000803F000000000000000000000000000000000000000005000000000000000000000000000000000001000000FBF2040071C49CB971C49CB971C49CB9CC09803F71C4
1004
9C39CC09803F0100844E48551E0001000000010069000000844E00000000803F000000000000000000000000000000000000803F00000000000000000000000005000000000000000000000000000000000000000000844E00000000803F000000000000000000000000000000000000803F000000000000
1004
00000000000005000000000000000000000000000000000001000000FBF2040071C49CB971C49CB971C49CB971C49C39E6040040CC09803F0100844E90601E0001000000010068000000844E000000000000000000000000803F000000000000803F00000000000000000000000000000000050000000000
1004
00000000000000000000000000000000844E000000000000000000000000803F000000000000803F0000000000000000000000000000000005000000000000000000000000000000000001000000FBF2040071C49CB971C49CB967EC7F3FCC09803FE6040040CC09803F0100844EE0611E00010000000100
1004
67000000844E0000000080BF000000800000008000000080000080BF000000800000803F000000400000803F05000000000000000000000000000000000000000000844E0000000080BF000000800000008000000080000080BF000000800000803F000000400000803F0500000000000000000000000000
1004
0000000001000000FBF2040071C49CB934F6FF3F71C49CB9CC09803FE6040040CC09803F0100844E185D1E0001000000010066000000844E00000000008000000080000080BF000080BF00000080000000800000803F000000400000803F05000000000000000000000000000000000000000000844E0000
1004
0000008000000080000080BF000080BF00000080000000800000803F000000400000803F05000000000000000000000000000000000001000000FBF2040067EC7F3F71C49CB971C49CB9CC09803FE6040040CC09803F0100844E48641E0001000000010065000000844E000000000080000080BF00000080
1004
0000008000000080000080BF0000803F000000400000803F05000000000000000000000000000000000000000000844E000000000080000080BF000000800000008000000080000080BF0000803F000000400000803F05000000000000000000000000000000000001000000A4EE71C49CB934F6FF3F71C4
1004
9CB9CC09803FE604004071C49C39000000BF0000003F02009675B0561E000000FFFF0100E0511E00185D1E0000000200E0511E00185D1E00010000000100000096750000000000000000803F000000000000000000000000000080BF0000003F00000040000000000200000000BF0000003FA4EE67EC7F3F
1004
71C49CB971C49CB9CC09803FE604004071C49C39000080BF0000803F02009675A06D1E000000FFFF0100E0511E0048641E0000000200E0511E0048641E000100000001000000967500000000803F00000000000000000000000000000000000080BF0000803F0000803F000000000200000080BF0000803F
1004
A4EE71C49CB971C49CB971C49CB971C49C39E604004071C49C39000000C00000008002009675506F1E000000FFFF0100E0511E0090601E0000000200E0511E0090601E00010000000100000096750000000080BF00000000000000000000000000000000000080BF00000000000000000000000002000000
1004
00C000000080A4EE71C49CB971C49CB971C49CB9CC09803F71C49C3971C49C39000000000000803F0200967540731E000000FFFF0100E0511E0048551E0000000200E0511E0048551E0001000000010000009675000000000000000080BF000000000000000000000000000080BF00000000000000000000
1004
00000200000000000000803FA4EE71C49CB971C49CB967EC7F3FCC09803F71C49C39CC09803F000000BF0000003F0200967520801E000000FFFF010048551E00E0611E000000020048551E00E0611E0001000000010000009675000000000000000000000000803F00000000000080BF000000000000003F
1004
000000000000803F0200000000BF0000003FA4EE67EC7F3F71C49CB971C49CB9CC09803F71C49C39CC09803F000000BF0000003F02009675908C1E000000FFFF010048551E0048641E000000020048551E0048641E000100000001000000967500000000803F000000000000000000000000000080BF0000
1004
00000000803F000000000000003F0200000000BF0000003FA4EE71C49CB971C49CB971C49CB971C49C3971C49C39CC09803F000000000000803F0200967588631E000000FFFF010048551E0090601E000000020048551E0090601E00010000000100000096750000000080BF000000000000000000000000
1004
000080BF000000000000000000000000000000000200000000000000803FA4EE71C49CB971C49CB967EC7F3F71C49C39E6040040CC09803F000080BF0000803F0200967508511E000000FFFF010090601E00E0611E000000020090601E00E0611E0001000000010000009675000000000000000000000000
1004
803F000080BF0000000000000000000000000000803F0000803F0200000080BF0000803FA4EE71C49CB934F6FF3F71C49CB971C49C39E6040040CC09803F000000BF0000003F02009675C84E1E000000FFFF010090601E00185D1E000000020090601E00185D1E0001000000010000009675000000000000
1004
0000803F00000000000080BF000000000000000000000000000000400000003F0200000000BF0000003FA4EE71C49CB934F6FF3F67EC7F3FCC09803FE6040040CC09803F000080BF000000800200967580641C000000FFFF0100E0611E00185D1E0000000200E0611E00185D1E0001000000010000009675
1004
0000000000000000803F0000000000000000000000000000803F0000803F000000400000803F0200000080BF00000080A4EE67EC7F3F71C49CB967EC7F3FCC09803FE6040040CC09803F000000000000004002009675C8641C000000FFFF0100E0611E0048641E0000000200E0611E0048641E0001000000
1004
01000000967500000000803F000000000000000000000080000000000000803F0000803F000000400000803F02000000000000000040A4EE67EC7F3F34F6FF3F71C49CB9CC09803FE6040040CC09803F000080BF0000008002009675405A1C000000FFFF0100185D1E0048641E0000000200185D1E004864
1004
1E000100000001000000967500000000803F0000000000000000000000000000803F000000000000803F000000400000803F0200000080BF0000008019FC
1005
39
  0
INSERT
  8
AME_FRZ
  5
39
  2
AME_NIL
 10
1.0
 20
1.0
 30
1.0
1001
AME_SOL
1004

1005
0
  0
INSERT
  8
AME_FRZ
  5
55
  2
*U5
 10
0.0
 20
0.0
 30
0.0
1001
AME_SOL
1002
{
1070
     0
1071
  1918688
1070
  1543
1070
     0
1005
15
1005
26
1005
0
1005
0
1005
9D
1040
0.0
1040
1.0
1000
MILD_STEEL
1000
0
1010
0.0
1020
0.0
1030
0.0
1010
0.0
1020
0.0
1030
1.0
1040
0.0
1002
}
  0
INSERT
  8
AME_FRZ
  5
56
  2
AME_NIL
 10
1.0
 20
1.0
 30
1.0
1001
AME_SOL
1004
E903A9FB0100F0FFFFFF000052F70B0001000000A9266BBAA9266BBAA9266BBA5907A040B20E00405907A04001000000FBF2040000D87F3F00D87F3F00D87F3F00058040000A00400014803F0100844EA0461E00FFFF00000100CE000000844E0000000000000000803F000000000000803F000000000000
1004
00000000803F0000803F0000803F05000000000000000000000000000000000000000000844E0000000000000000803F000000000000803F00000000000000000000803F0000803F0000803F050000000000000000000000000000000000FFFFFFFFFBF2040000D87F3F00D87F3F00D87F3F000580400014
1004
803F000580400100844EE03A1E00FFFF00000100CD000000844E00000000803F000000000000000000000000000000000000803F0000803F0000803F0000803F05000000000000000000000000000000000000000000844E00000000803F000000000000000000000000000000000000803F0000803F0000
1004
803F0000803F050000000000000000000000000000000000FFFFFFFFFBF2040000D87F3F00D87F3F00D87F3F0014803F000A0040000580400100844E90391E00FFFF00000100CC000000844E000000000000000000000000803F000000000000803F000000000000803F0000803F0000803F050000000000
1004
00000000000000000000000000000000844E000000000000000000000000803F000000000000803F000000000000803F0000803F0000803F050000000000000000000000000000000000FFFFFFFFFBF2040000D87F3F00D87F3F00F67F4000058040000A0040000580400100844EB8D21D00FFFF00000100
1004
CB000000844E0000000080BF000000800000008000000080000080BF0000008000008040000000400000804005000000000000000000000000000000000000000000844E0000000080BF000000800000008000000080000080BF000000800000804000000040000080400500000000000000000000000000
1004
00000000FFFFFFFFFBF2040000F67F4000D87F3F00D87F3F00058040000A0040000580400100844E40D21D00FFFF00000100C9000000844E000000000080000080BF000000800000008000000080000080BF00008040000000400000804005000000000000000000000000000000000000000000844E0000
1004
00000080000080BF000000800000008000000080000080BF000080400000004000008040050000000000000000000000000000000000FFFFFFFFFBF20400A9266BBAA9266BBAA9266BBA5907A040B20E0040A9266B3A0100844E58641C0001000000010032010000844E0000000000000000803F00000000
1004
0000803F000000000000000000000000000000000000000005000000000000000000000000000000000000000000844E0000000000000000803F000000000000803F000000000000000000000000000000000000000005000000000000000000000000000000000001000000FBF20400A9266BBAA9266BBA
1004
A9266BBA5907A040A9266B3A5907A0400100844EA8481D0001000000010031010000844E00000000803F000000000000000000000000000000000000803F00000000000000000000000005000000000000000000000000000000000000000000844E00000000803F00000000000000000000000000000000
1004
0000803F00000000000000000000000005000000000000000000000000000000000001000000FBF20400A9266BBAA9266BBAA9266BBAA9266B3AB20E00405907A0400100844E18481D0001000000010030010000844E000000000000000000000000803F000000000000803F000000000000000000000000
1004
0000000005000000000000000000000000000000000000000000844E000000000000000000000000803F000000000000803F0000000000000000000000000000000005000000000000000000000000000000000001000000FBF20400A9266BBAA9266BBAA7F89F405907A040B20E00405907A0400100844E
1004
C8491D000100000001002F010000844E0000000080BF000000800000008000000080000080BF000000800000A040000000400000A04005000000000000000000000000000000000000000000844E0000000080BF000000800000008000000080000080BF000000800000A040000000400000A04005000000
1004
000000000000000000000000000001000000FBF20800A9266BBA9BE2FF3FA9266BBA5907A040B20E00405907A0400100844E38491D000100000001002E010000844E00000000008000000080000080BF000080BF00000080000000800000A040000000400000A04005000000000000000000000000000000
1004
000000000000844E00000000008000000080000080BF000080BF00000080000000800000A040000000400000A04005000000000000000000000000000000000001000000FBF20400A7F89F40A9266BBAA9266BBA5907A040B20E00405907A0400100844E304D1D000100000001002D010000844E00000000
1004
0080000080BF000000800000008000000080000080BF0000A040000000400000A04005000000000000000000000000000000000000000000844E000000000080000080BF000000800000008000000080000080BF0000A040000000400000A04005000000000000000000000000000000000001000000A4EE
1004
00D87F3F00D87F3F00D87F3F000580400014803F0014803F000000000000404002009675E0651E0000000100FFFFA0461E00E03A1E0000000200E03A1E00A0461E00FFFFFFFFFFFFFFFF9675000000000000000080BF000000000000000000000000000080BF0000803F0000803F0000803F020000000000
1004
00004040A4EE00F67F4000D87F3F00D87F3F00058040000A00400014803F010000BFFFFFFF3E02009675F07D1E0000000100FFFFA0461E0040D21D000000020040D21D00A0461E00FFFFFFFFFFFFFFFF967500000000803F00000000000000000000000000000000000080BF000080400000C03FFFFF7F3F
1004
0200010000BFFFFFFF3EA4EE00D87F3F9BE2FF3F00D87F3F00058040000A00400014803FFFFF7FBF010000400200967538871E0000000100FFFFA0461E0038491D000000020038491D00A0461E0001000000FFFFFFFF96750000000000000000803F000000000000000000000000000080BF000040400000
1004
00400000803F0200FFFF7FBF01000040A4EE00D87F3F00D87F3F00D87F3F0014803F000A00400014803F000080BF000000800200967518881E0000000100FFFFA0461E0090391E000000020090391E00A0461E00FFFFFFFFFFFFFFFF96750000000080BF00000000000000000000000000000000000080BF
1004
0000803F0000803F0000803F0200000080BF00000080A4EE00D87F3F00D87F3F00F67F40000580400014803F000580400000C0BF0000C03F02009675188A1E0000000100FFFFE03A1E00B8D21D0000000200B8D21D00E03A1E00FFFFFFFFFFFFFFFF9675000000000000000000000000803F000000000000
1004
80BF00000000000020400000803F0000804002000000C0BF0000C03FA4EE00F67F4000D87F3F00D87F3F000580400014803F000580400000C0BF0000C03F02009675106E1E0000000100FFFFE03A1E0040D21D000000020040D21D00E03A1E00FFFFFFFFFFFFFFFF967500000000803F0000000000000000
1004
00000000000080BF00000000000080400000803F0000204002000000C0BF0000C03FA4EE00D87F3F00D87F3F00D87F3F0014803F0014803F00058040000000000000404002009675D8341E0000000100FFFFE03A1E0090391E000000020090391E00E03A1E00FFFFFFFFFFFFFFFF96750000000080BF0000
1004
00000000000000000000000080BF000000000000803F0000803F0000803F02000000000000004040A4EE00D87F3F00D87F3F00F67F400014803F000A004000058040FFFFFFBE0100003F0200967598321E0000000100FFFF90391E00B8D21D0000000200B8D21D0090391E00FFFFFFFFFFFFFFFF96750000
1004
00000000000000000000803F000080BF0000000000000000FFFF7F3F0000C03F000080400200FFFFFFBE0100003FA4EE00D87F3F9BE2FF3F00D87F3F0014803F000A004000058040010000C0FFFF7F3F02009675682C1E0000000100FFFF90391E0038491D000000020038491D0090391E0001000000FFFF
1004
FFFF96750000000000000000803F00000000000080BF00000000000000000000803F00000040000040400200010000C0FFFF7F3FA4EE00F67F4000D87F3F00F67F4000058040000A004000058040000000000000803F0200967540521D0000000100FFFFB8D21D0040D21D000000020040D21D00B8D21D00
1004
FFFFFFFFFFFFFFFF967500000000803F000000000000000000000080000000000000803F0000804000000040000080400200000000000000803FA4EE00D87F3F9BE2FF3F00F67F4000058040000A004000058040000060C0FAFFFFBE02009675D8501D0000000100FFFFB8D21D0038491D00000002003849
1004
1D00B8D21D0001000000FFFFFFFF96750000000000000000803F0000000000000000000000000000803F0000904000000040000080400200000060C0FAFFFFBEA4EE00F67F409BE2FF3F00D87F3F00058040000A004000058040FAFFFF3E0000604002009675C8661D0000000100FFFF40D21D0038491D00
1004
0000020038491D0040D21D0001000000FFFFFFFF96750000000000000000803F000000000000803F00000080000000000000804000000040000090400200FAFFFF3E00006040A4EEA9266BBA9BE2FF3FA9266BBA5907A040B20E0040A9266B3A000020C00000204002009675A86A1D000000FFFF01005864
1004
1C0038491D000000020058641C0038491D00010000000100000096750000000000000000803F000000000000000000000000000080BF0000204000000040000000000200000020C000002040A4EEA7F89F40A9266BBAA9266BBA5907A040B20E0040A9266B3A000080BF0000803F02009675E06E1D000000
1004
FFFF010058641C00304D1D000000020058641C00304D1D000100000001000000967500000000803F00000000000000000000000000000000000080BF0000A0400000803F000000000200000080BF0000803FA4EEA9266BBAA9266BBAA9266BBAA9266B3AB20E0040A9266B3A000000C00000008002009675
1004
50791D000000FFFF010058641C0018481D000000020058641C0018481D00010000000100000096750000000080BF00000000000000000000000000000000000080BF0000000000000000000000000200000000C000000080A4EEA9266BBAA9266BBAA9266BBA5907A040A9266B3AA9266B3A000000000000
1004
A04002009675087F1D000000FFFF010058641C00A8481D000000020058641C00A8481D0001000000010000009675000000000000000080BF000000000000000000000000000080BF0000000000000000000000000200000000000000A040A4EEA9266BBAA9266BBAA7F89F405907A040A9266B3A5907A040
1004
000020C0000020400200967548811D000000FFFF0100A8481D00C8491D0000000200A8481D00C8491D0001000000010000009675000000000000000000000000803F00000000000080BF0000000000002040000000000000A0400200000020C000002040A4EEA7F89F40A9266BBAA9266BBA5907A040A926
1004
6B3A5907A040000020C0000020400200967520821D000000FFFF0100A8481D00304D1D0000000200A8481D00304D1D000100000001000000967500000000803F000000000000000000000000000080BF000000000000A04000000000000020400200000020C000002040A4EEA9266BBAA9266BBAA9266BBA
1004
A9266B3AA9266B3A5907A040000000000000A0400200967568821D000000FFFF0100A8481D0018481D0000000200A8481D0018481D00010000000100000096750000000080BF000000000000000000000000000080BF000000000000000000000000000000000200000000000000A040A4EEA9266BBAA926
1004
6BBAA7F89F40A9266B3AB20E00405907A040000080BF0000803F02009675D0831D000000FFFF010018481D00C8491D000000020018481D00C8491D0001000000010000009675000000000000000000000000803F000080BF0000000000000000000000000000803F0000A0400200000080BF0000803FA4EE
1004
A9266BBA9BE2FF3FA9266BBAA9266B3AB20E00405907A040000020C0000020400200967518841D000000FFFF010018481D0038491D000000020018481D0038491D00010000000100000096750000000000000000803F00000000000080BF00000000000000000000000000000040000020400200000020C0
1004
00002040A4EEA9266BBA9BE2FF3FA7F89F405907A040B20E00405907A0400000A0C00000008002009675C8851D000000FFFF0100C8491D0038491D0000000200C8491D0038491D00010000000100000096750000000000000000803F0000000000000000000000000000803F0000A040000000400000A040
1004
02000000A0C000000080A4EEA7F89F40A9266BBAA7F89F405907A040B20E00405907A04000000000000000400200967510861D000000FFFF0100C8491D00304D1D0000000200C8491D00304D1D000100000001000000967500000000803F000000000000000000000080000000000000803F0000A0400000
1004
00400000A04002000000000000000040A4EEA7F89F409BE2FF3FA9266BBA5907A040B20E00405907A0400000A0C00000008002009675A0861D000000FFFF010038491D00304D1D000000020038491D00304D1D000100000001000000967500000000803F0000000000000000000000000000803F00000000
1004
0000A040000000400000A04002000000A0C00000008019FC
1005
57
  0
INSERT
  8
AME_FRZ
  5
57
  2
AME_NIL
 10
1.0
 20
1.0
 30
1.0
1001
AME_SOL
1004

1005
0
  0
INSERT
  8
0
  5
9D
  2
*U7
 10
0.0
 20
0.0
 30
0.0
1001
AME_SOL
1002
{
1070
     0
1071
  1942608
1070
  9223
1070
     2
1005
55
1005
37
1005
136
1005
9E
1005
0
1040
110.0
1040
1.0
1000
MILD_STEEL
1000
0
1002
}
  0
INSERT
  8
AME_FRZ
  5
9E
  2
AME_NIL
 10
1.0
 20
1.0
 30
1.0
1001
AME_SOL
1004
E903A9FB0100F0FFFFFF000052F7100001000000A9266BBAA9266BBAA9266BBA5907A040000A40405907A04001000000FBF2040000ECFF3F00D87F3F00ECFF3F000A4040000A4040000A00400100844E80691D00010000000100CE000000844E0000000000000000803F000000000000803F000000000000
1004
0000000000400000803F0000004005000000000000000000000000000000000000000000844E0000000000000000803F000000000000803F0000000000000000000000400000803F0000004005000000000000000000000000000000000001000000FBF2040000ECFF3F00D87F3F00ECFF3F000A0040000A
1004
4040000A40400100844E48711D00010000000100CC000000844E000000000000000000000000803F000000000000803F00000000000000400000803F0000004005000000000000000000000000000000000000000000844E000000000000000000000000803F000000000000803F00000000000000400000
1004
803F0000004005000000000000000000000000000000000001000000FBF2040000ECFF3F00D87F3F00F63F40000A4040000A4040000A40400100844EB8701D00010000000100CB000000844E0000000080BF000000800000008000000080000080BF00000080000040400000404000004040050000000000
1004
00000000000000000000000000000000844E0000000080BF000000800000008000000080000080BF0000008000004040000040400000404005000000000000000000000000000000000001000000FBF2040000ECFF3F00F63F4000ECFF3F000A4040000A4040000A40400100844EA04A1D00010000000100
1004
CA000000844E00000000008000000080000080BF000080BF000000800000008000004040000040400000404005000000000000000000000000000000000000000000844E00000000008000000080000080BF000080BF00000080000000800000404000004040000040400500000000000000000000000000
1004
0000000001000000FBF2040000F63F4000D87F3F00ECFF3F000A4040000A4040000A40400100844EA0631C00010000000100C9000000844E000000000080000080BF000000800000008000000080000080BF00004040000040400000404005000000000000000000000000000000000000000000844E0000
1004
00000080000080BF000000800000008000000080000080BF00004040000040400000404005000000000000000000000000000000000001000000FBF2040000D87F3F00D87F3F00D87F3F00058040000A00400014803F0100844E70721D00FFFF0000010096010000844E0000000000000000803F00000000
1004
0000803F00000000000000000000803F0000803F0000803F05000000000000000000000000000000000000000000844E0000000000000000803F000000000000803F00000000000000000000803F0000803F0000803F050000000000000000000000000000000000FFFFFFFFFBF2080000D87F3F00D87F3F
1004
00D87F3F000580400014803F000580400100844ED87A1D00FFFF0000010095010000844E00000000803F000000000000000000000000000000000000803F0000803F0000803F0000803F05000000000000000000000000000000000000000000844E00000000803F00000000000000000000000000000000
1004
0000803F0000803F0000803F0000803F050000000000000000000000000000000000FFFFFFFFFBF2040000D87F3F00D87F3F00D87F3F0014803F000A0040000580400100844E587D1D00FFFF0000010094010000844E000000000000000000000000803F000000000000803F000000000000803F0000803F
1004
0000803F05000000000000000000000000000000000000000000844E000000000000000000000000803F000000000000803F000000000000803F0000803F0000803F050000000000000000000000000000000000FFFFFFFFFBF2040000D87F3F00D87F3F00F67F4000058040000A0040000580400100844E
1004
487A1D00FFFF0000010093010000844E0000000080BF000000800000008000000080000080BF0000008000008040000000400000804005000000000000000000000000000000000000000000844E0000000080BF000000800000008000000080000080BF0000008000008040000000400000804005000000
1004
0000000000000000000000000000FFFFFFFFFBF2040000F67F4000D87F3F00D87F3F00058040000A0040000580400100844E507F1D00FFFF0000010091010000844E000000000080000080BF000000800000008000000080000080BF00008040000000400000804005000000000000000000000000000000
1004
000000000000844E000000000080000080BF000000800000008000000080000080BF000080400000004000008040050000000000000000000000000000000000FFFFFFFFFBF20400A9266BBAA9266BBAA9266BBA5907A040B20E0040A9266B3A0100844EE07F1D00010000000100FA010000844E00000000
1004
00000000803F000000000000803F000000000000000000000000000000000000000005000000000000000000000000000000000000000000844E0000000000000000803F000000000000803F000000000000000000000000000000000000000005000000000000000000000000000000000001000000FBF2
1004
0400A9266BBAA9266BBAA9266BBA5907A040A9266B3A5907A0400100844E88831D00010000000100F9010000844E00000000803F000000000000000000000000000000000000803F00000000000000000000000005000000000000000000000000000000000000000000844E00000000803F000000000000
1004
000000000000000000000000803F00000000000000000000000005000000000000000000000000000000000001000000FBF20400A9266BBAA9266BBAA9266BBAA9266B3AB20E00405907A0400100844E408E1D00010000000100F8010000844E000000000000000000000000803F000000000000803F0000
1004
000000000000000000000000000005000000000000000000000000000000000000000000844E000000000000000000000000803F000000000000803F0000000000000000000000000000000005000000000000000000000000000000000001000000FBF20400A9266BBAA9266BBAA7F89F405907A040B20E
1004
00405907A0400100844E88B41D00010000000100F7010000844E0000000080BF000000800000008000000080000080BF000000800000A040000000400000A04005000000000000000000000000000000000000000000844E0000000080BF000000800000008000000080000080BF000000800000A0400000
1004
00400000A04005000000000000000000000000000000000001000000FBF20800A9266BBA9BE2FF3FA9266BBA5907A040B20E00405907A0400100844EF8B31D00010000000100F6010000844E00000000008000000080000080BF000080BF00000080000000800000A040000000400000A040050000000000
1004
00000000000000000000000000000000844E00000000008000000080000080BF000080BF00000080000000800000A040000000400000A04005000000000000000000000000000000000001000000FBF20400A7F89F40A9266BBAA9266BBA5907A040B20E00405907A0400100844EC8B51D00010000000100
1004
F5010000844E000000000080000080BF000000800000008000000080000080BF0000A040000000400000A04005000000000000000000000000000000000000000000844E000000000080000080BF000000800000008000000080000080BF0000A040000000400000A0400500000000000000000000000000
1004
0000000001000000A4EE00ECFF3F00F63F4000ECFF3F000A4040000A4040000A0040020000BFFFFFFF3E0200967558021E000000FFFF010080691D00A04A1D000000020080691D00A04A1D00010000000100000096750000000000000000803F000000000000000000000000000080BF0000204000004040
1004
000000400200020000BFFFFFFF3EA4EE00F63F4000D87F3F00ECFF3F000A4040000A4040000A0040000080BF0100803F02009675A8D11D000000FFFF010080691D00A0631C000000020080691D00A0631C000100000001000000967500000000803F00000000000000000000000000000000000080BF0000
1004
404000000040000000400200000080BF0100803FA4EE00ECFF3F00D87F3F00ECFF3F000A0040000A4040000A0040010000C0000000800200967548CD1D000000FFFF010080691D0048711D000000020080691D0048711D00010000000100000096750000000080BF00000000000000000000000000000000
1004
000080BF000000400000803F000000400200010000C000000080A4EE00ECFF3F00D87F3F00ECFF3F000A40400014803F000A0040FFFFFF3E0000C03F02009675E8C91D000000FFFF010080691D00D87A1D000000020080691D00D87A1D0001000000FFFFFFFF9675000000000000000080BF000000000000
1004
000000000000000080BF0000C03F0000803F000000400200FFFFFF3E0000C03FA4EE00ECFF3F00D87F3F00F63F40000A0040000A4040000A4040010080BF0000803F02009675908C1D000000FFFF010048711D00B8701D000000020048711D00B8701D000100000001000000967500000000000000000000
1004
0000803F000080BF00000000000000000000004000000040000040400200010080BF0000803FA4EE00ECFF3F00F63F4000ECFF3F000A0040000A4040000A4040FFFFFFBE0200003F02009675E8861D000000FFFF010048711D00A04A1D000000020048711D00A04A1D000100000001000000967500000000
1004
00000000803F00000000000080BF00000000000000000000004000004040000020400200FFFFFFBE0200003FA4EE00ECFF3F00D87F3F00ECFF3F000A00400014803F000A40400000C0BFFFFFFFBE02009675E0711D000000FFFF010048711D00D87A1D000000020048711D00D87A1D0001000000FFFFFFFF
1004
9675000000000000000080BF00000000000080BF0000000000000000000000400000803F0000C03F02000000C0BFFFFFFFBEA4EE00ECFF3F00F63F4000F63F40000A4040000A4040000A4040010080BF0000008002009675886B20000000FFFF0100B8701D00A04A1D0000000200B8701D00A04A1D000100
1004
00000100000096750000000000000000803F0000000000000000000000000000803F0000404000004040000040400200010080BF00000080A4EE00F63F4000D87F3F00F63F40000A4040000A4040000A4040000000000100004002009675209C20000000FFFF0100B8701D00A0631C0000000200B8701D00
1004
A0631C000100000001000000967500000000803F000000000000000000000080000000000000803F00004040000040400000404002000000000001000040A4EE00ECFF3F00D87F3F00F63F40000A40400014803F000A4040FFFF7FBF0000203402009675E0BF20000000FFFF0100B8701D00D87A1D000000
1004
0200B8701D00D87A1D0001000000FFFFFFFF9675000000000000000080BF0000000000000000000000000000803F010000400000803F000040400200FFFF7FBF00002034A4EE00F63F4000F63F4000ECFF3F000A4040000A4040000A4040010080BF000000800200967540C520000000FFFF0100A04A1D00
1004
A0631C0000000200A04A1D00A0631C000100000001000000967500000000803F0000000000000000000000000000803F000000000000404000004040000040400200010080BF00000080A4EE00F63F4000D87F3F00ECFF3F000A40400014803F000A4040000020B4FFFF7F3F0200967500CC20000000FFFF
1004
0100A0631C00D87A1D0000000200A0631C00D87A1D0001000000FFFFFFFF9675000000000000000080BF000000000000803F0000000000000000000040400000803F010000400200000020B4FFFF7F3FA4EE00F67F4000D87F3F00D87F3F00058040000A00400014803F010000BFFFFFFF3E0200967500CA
1004
200000000100FFFF70721D00507F1D0000000200507F1D0070721D00FFFFFFFFFFFFFFFF967500000000803F00000000000000000000000000000000000080BF000080400000C03FFFFF7F3F0200010000BFFFFFFF3EA4EE00D87F3F9BE2FF3F00D87F3F00058040000A00400014803FFFFF7FBF01000040
1004
02009675E8B6200000000100FFFF70721D00F8B31D0000000200F8B31D0070721D0001000000FFFFFFFF96750000000000000000803F000000000000000000000000000080BF00004040000000400000803F0200FFFF7FBF01000040A4EE00D87F3F00D87F3F00D87F3F0014803F000A00400014803F0000
1004
80BF0000008002009675D8B7200000000100FFFF70721D00587D1D0000000200587D1D0070721D00FFFFFFFFFFFFFFFF96750000000080BF00000000000000000000000000000000000080BF0000803F0000803F0000803F0200000080BF00000080A4EE00D87F3F00D87F3F00D87F3F000580400014803F
1004
0014803F000000000000404002009675C8B8200000000100FFFF70721D00D87A1D0000000200D87A1D0070721D00FFFFFFFFFFFFFFFF9675000000000000000080BF000000000000000000000000000080BF0000803F0000803F0000803F02000000000000004040A4EE00D87F3F00D87F3F00F67F400005
1004
80400014803F000580400000C0BF0000C03F02009675B8B9200000000100FFFFD87A1D00487A1D0000000200487A1D00D87A1D00FFFFFFFFFFFFFFFF9675000000000000000000000000803F00000000000080BF00000000000020400000803F0000804002000000C0BF0000C03FA4EE00F67F4000D87F3F
1004
00D87F3F000580400014803F000580400000C0BF0000C03F02009675A8BA200000000100FFFFD87A1D00507F1D0000000200507F1D00D87A1D00FFFFFFFFFFFFFFFF967500000000803F000000000000000000000000000080BF00000000000080400000803F0000204002000000C0BF0000C03FA4EE00D8
1004
7F3F00D87F3F00D87F3F0014803F0014803F0005804000000000000040400200967598BB200000000100FFFFD87A1D00587D1D0000000200587D1D00D87A1D00FFFFFFFFFFFFFFFF96750000000080BF000000000000000000000000000080BF000000000000803F0000803F0000803F0200000000000000
1004
4040A4EE00D87F3F00D87F3F00F67F400014803F000A004000058040FFFFFFBE0100003F02009675307E200000000100FFFF587D1D00487A1D0000000200487A1D00587D1D00FFFFFFFFFFFFFFFF9675000000000000000000000000803F000080BF0000000000000000FFFF7F3F0000C03F000080400200
1004
FFFFFFBE0100003FA4EE00D87F3F9BE2FF3F00D87F3F0014803F000A004000058040010000C0FFFF7F3F02009675007F200000000100FFFF587D1D00F8B31D0000000200F8B31D00587D1D0001000000FFFFFFFF96750000000000000000803F00000000000080BF00000000000000000000803F00000040
1004
000040400200010000C0FFFF7F3FA4EE00F67F4000D87F3F00F67F4000058040000A004000058040000000000000803F02009675F07F200000000100FFFF487A1D00507F1D0000000200507F1D00487A1D00FFFFFFFFFFFFFFFF967500000000803F000000000000000000000000000000000000803F0000
1004
804000000040000080400200000000000000803FA4EE00D87F3F9BE2FF3F00F67F4000058040000A004000058040000060C0FAFFFFBE02009675E080200000000100FFFF487A1D00F8B31D0000000200F8B31D00487A1D0001000000FFFFFFFF96750000000000000000803F000000000000000000000000
1004
0000803F0000904000000040000080400200000060C0FAFFFFBEA4EE00F67F409BE2FF3F00D87F3F00058040000A004000058040FAFFFF3E0000604002009675D081200000000100FFFF507F1D00F8B31D0000000200F8B31D00507F1D0001000000FFFFFFFF96750000000000000000803F000000000000
1004
803F00000000000000000000804000000040000090400200FAFFFF3E00006040A4EEA9266BBA9BE2FF3FA9266BBA5907A040B20E0040A9266B3A000020C00000204002009675C08220000000FFFF0100E07F1D00F8B31D0000000200E07F1D00F8B31D00010000000100000096750000000000000000803F
1004
000000000000000000000000000080BF0000204000000040000000000200000020C000002040A4EEA7F89F40A9266BBAA9266BBA5907A040B20E0040A9266B3A000080BF0000803F02009675B08320000000FFFF0100E07F1D00C8B51D0000000200E07F1D00C8B51D000100000001000000967500000000
1004
803F00000000000000000000000000000000000080BF0000A0400000803F000000000200000080BF0000803FA4EEA9266BBAA9266BBAA9266BBAA9266B3AB20E0040A9266B3A000000C00000008002009675A08420000000FFFF0100E07F1D00408E1D0000000200E07F1D00408E1D000100000001000000
1004
96750000000080BF00000000000000000000000000000000000080BF0000000000000000000000000200000000C000000080A4EEA9266BBAA9266BBAA9266BBA5907A040A9266B3AA9266B3A000000000000A04002009675908520000000FFFF0100E07F1D0088831D0000000200E07F1D0088831D000100
1004
0000010000009675000000000000000080BF000000000000000000000000000080BF0000000000000000000000000200000000000000A040A4EEA9266BBAA9266BBAA7F89F405907A040A9266B3A5907A040000020C00000204002009675808620000000FFFF010088831D0088B41D000000020088831D00
1004
88B41D0001000000010000009675000000000000000000000000803F00000000000080BF0000000000002040000000000000A0400200000020C000002040A4EEA7F89F40A9266BBAA9266BBA5907A040A9266B3A5907A040000020C00000204002009675708720000000FFFF010088831D00C8B51D000000
1004
020088831D00C8B51D000100000001000000967500000000803F000000000000000000000000000080BF000000000000A04000000000000020400200000020C000002040A4EEA9266BBAA9266BBAA9266BBAA9266B3AA9266B3A5907A040000000000000A04002009675E05A20000000FFFF010088831D00
1004
408E1D000000020088831D00408E1D00010000000100000096750000000080BF000000000000000000000000000080BF000000000000000000000000000000000200000000000000A040A4EEA9266BBAA9266BBAA7F89F40A9266B3AB20E00405907A040000080BF0000803F02009675D05B20000000FFFF
1004
0100408E1D0088B41D0000000200408E1D0088B41D0001000000010000009675000000000000000000000000803F000080BF0000000000000000000000000000803F0000A0400200000080BF0000803FA4EEA9266BBA9BE2FF3FA9266BBAA9266B3AB20E00405907A040000020C00000204002009675C05C
1004
20000000FFFF0100408E1D00F8B31D0000000200408E1D00F8B31D00010000000100000096750000000000000000803F00000000000080BF00000000000000000000000000000040000020400200000020C000002040A4EEA9266BBA9BE2FF3FA7F89F405907A040B20E00405907A0400000A0C000000080
1004
02009675B05D20000000FFFF010088B41D00F8B31D000000020088B41D00F8B31D00010000000100000096750000000000000000803F0000000000000000000000000000803F0000A040000000400000A04002000000A0C000000080A4EEA7F89F40A9266BBAA7F89F405907A040B20E00405907A0400000
1004
00000000004002009675A05E20000000FFFF010088B41D00C8B51D000000020088B41D00C8B51D000100000001000000967500000000803F000000000000000000000000000000000000803F0000A040000000400000A04002000000000000000040A4EEA7F89F409BE2FF3FA9266BBA5907A040B20E0040
1004
5907A0400000A0C00000008002009675905F20000000FFFF0100F8B31D00C8B51D0000000200F8B31D00C8B51D000100000001000000967500000000803F0000000000000000000000000000803F000000000000A040000000400000A04002000000A0C00000008019FC
1005
9F
  0
INSERT
  8
AME_FRZ
  5
9F
  2
AME_NIL
 10
1.0
 20
1.0
 30
1.0
1001
AME_SOL
1004

1005
0
  0
INSERT
  8
AME_FRZ
  5
136
  2
*U6
 10
0.0
 20
0.0
 30
0.0
  0
INSERT
  8
AME_FRZ
  5
139
  2
AME_MAT
 10
0.0
 20
0.0
 30
0.0
1001
AME_SOL
1000
MILD_STEEL
1040
7860.0
1040
220.0
1040
0.275
1040
207.0
1040
345.0
1040
56.0
1040
12.0
1040
0.46
  0
ENDSEC
  0
EOF
