104 760 0 0                             
body $-1 $1 $-1 $2 #
lump $-1 $-1 $3 $0 #
transform $-1 1 0 0 0 1 0 0 0 1 0 0 0 1 0 0 0 #
shell $-1 $-1 $-1 $4 $1 #
face $5 $6 $7 $3 $-1 $8 1 #
face_name-twe-attrib $-1 $-1 $-1 $4 1 #
face $9 $10 $11 $3 $-1 $12 0 #
loop $13 $14 $15 $4 #
plane-surface $16 0 0 0 0 0 1 1 0 0 0 #
face_name-twe-attrib $-1 $-1 $-1 $6 2 #
face $17 $18 $19 $3 $-1 $20 1 #
loop $21 $22 $23 $6 #
plane-surface $24 0 0 15 0 0 1 1 0 0 0 #
loop_type-twe-attrib $-1 $-1 $-1 $7 1 #
loop $25 $26 $27 $4 #
coedge $-1 $15 $15 $28 $29 0 $7 $-1 #
surf-twe-attrib $-1 $-1 $-1 $8 4 #
face_name-twe-attrib $-1 $-1 $-1 $10 3 #
face $30 $31 $32 $3 $-1 $33 1 #
loop $34 $35 $28 $10 #
cone-surface $36 0 0 0 0 0 -1 -2.5 0 0 1 0 1 0 #
loop_type-twe-attrib $-1 $-1 $-1 $11 1 #
loop $37 $38 $39 $6 #
coedge $-1 $23 $23 $40 $41 1 $11 $-1 #
surf-twe-attrib $-1 $-1 $-1 $12 6 #
loop_type-twe-attrib $-1 $-1 $-1 $14 1 #
loop $42 $43 $44 $4 #
coedge $-1 $27 $27 $45 $46 0 $14 $-1 #
coedge $-1 $28 $28 $15 $29 1 $19 $-1 #
edge $47 $48 $48 $28 $49 0 #
face_name-twe-attrib $-1 $-1 $-1 $18 4 #
face $50 $51 $52 $3 $-1 $53 1 #
loop $54 $55 $56 $18 #
cone-surface $57 -52.5 -25 0 0 0 -1 -13 0 0 1 0 1 0 #
loop_type-twe-attrib $-1 $-1 $-1 $19 0 #
loop $58 $-1 $59 $10 #
surf-twe-attrib $-1 $-1 $-1 $20 10 #
loop_type-twe-attrib $-1 $-1 $-1 $22 0 #
loop $60 $61 $62 $6 #
coedge $-1 $63 $64 $65 $66 1 $22 $-1 #
coedge $-1 $40 $40 $23 $41 0 $55 $-1 #
edge $67 $68 $68 $40 $69 0 #
loop_type-twe-attrib $-1 $-1 $-1 $26 1 #
loop $70 $71 $72 $4 #
coedge $-1 $44 $44 $73 $74 0 $26 $-1 #
coedge $-1 $45 $45 $27 $46 1 $52 $-1 #
edge $75 $76 $76 $45 $77 0 #
edge_name-twe-attrib $-1 $-1 $-1 $29 1 8704 #
vertex $-1 $29 $78 #
ellipse-curve $79 0 0 0 0 0 1 0 2.5 0 1 #
face_name-twe-attrib $-1 $-1 $-1 $31 5 #
face $80 $81 $82 $3 $-1 $83 1 #
loop $84 $85 $45 $31 #
cone-surface $86 -105 0 0 0 0 -1 -2.5 0 0 1 0 1 0 #
loop_type-twe-attrib $-1 $-1 $-1 $32 0 #
loop $87 $-1 $40 $18 #
coedge $-1 $56 $56 $88 $89 0 $32 $-1 #
surf-twe-attrib $-1 $-1 $-1 $33 18 #
loop_type-twe-attrib $-1 $-1 $-1 $35 1 #
coedge $-1 $59 $59 $90 $91 1 $35 $-1 #
loop_type-twe-attrib $-1 $-1 $-1 $38 1 #
loop $92 $93 $94 $6 #
coedge $-1 $62 $62 $95 $96 0 $38 $-1 #
coedge $-1 $97 $39 $98 $99 1 $22 $-1 #
coedge $-1 $39 $97 $100 $101 1 $22 $-1 #
coedge $-1 $102 $103 $39 $66 0 $104 $-1 #
edge $105 $106 $107 $65 $108 0 #
edge_name-twe-attrib $-1 $-1 $-1 $41 2 8704 #
vertex $-1 $41 $109 #
ellipse-curve $110 -52.5 -25 15 0 0 1 0 -13 0 1 #
loop_type-twe-attrib $-1 $-1 $-1 $43 1 #
loop $111 $-1 $112 $4 #
coedge $-1 $72 $72 $113 $114 0 $43 $-1 #
coedge $-1 $73 $73 $44 $74 1 $82 $-1 #
edge $115 $116 $116 $73 $117 0 #
edge_name-twe-attrib $-1 $-1 $-1 $46 3 8704 #
vertex $-1 $46 $118 #
ellipse-curve $119 -105 0 0 0 0 1 0 2.5 0 1 #
point $-1 2.5 0 0 #
cur-twe-attrib $-1 $-1 $-1 $49 29 #
face_name-twe-attrib $-1 $-1 $-1 $51 6 #
face $120 $121 $122 $3 $-1 $123 1 #
loop $124 $125 $73 $51 #
cone-surface $126 -105 -50 0 0 0 -1 -2.5 0 0 1 0 1 0 #
loop_type-twe-attrib $-1 $-1 $-1 $52 0 #
loop $127 $-1 $128 $31 #
surf-twe-attrib $-1 $-1 $-1 $53 31 #
loop_type-twe-attrib $-1 $-1 $-1 $55 1 #
coedge $-1 $88 $88 $56 $89 1 $129 $-1 #
edge $130 $131 $131 $88 $132 0 #
coedge $-1 $90 $90 $59 $91 0 $133 $-1 #
edge $134 $135 $135 $90 $136 0 #
loop_type-twe-attrib $-1 $-1 $-1 $61 1 #
loop $137 $138 $139 $6 #
coedge $-1 $94 $94 $140 $141 0 $61 $-1 #
coedge $-1 $95 $95 $62 $96 1 $142 $-1 #
edge $143 $144 $144 $95 $145 0 #
coedge $-1 $64 $63 $146 $147 1 $22 $-1 #
coedge $-1 $148 $149 $63 $99 0 $150 $-1 #
edge $151 $152 $106 $98 $153 0 #
coedge $-1 $154 $155 $64 $101 0 $156 $-1 #
edge $157 $107 $158 $100 $159 0 #
coedge $-1 $160 $65 $155 $161 0 $104 $-1 #
coedge $-1 $65 $160 $148 $162 1 $104 $-1 #
loop $163 $-1 $160 $121 #
edge_name-twe-attrib $-1 $-1 $-1 $66 7 8704 #
vertex $-1 $162 $164 #
vertex $-1 $161 $165 #
straight-curve $166 -115 10 15 0 1 0 #
point $-1 -39.5 -25 15 #
cur-twe-attrib $-1 $-1 $-1 $69 41 #
loop_type-twe-attrib $-1 $-1 $-1 $71 0 #
coedge $-1 $167 $168 $169 $170 0 $71 $-1 #
coedge $-1 $113 $113 $72 $114 1 $122 $-1 #
edge $171 $172 $172 $113 $173 0 #
edge_name-twe-attrib $-1 $-1 $-1 $74 4 8704 #
vertex $-1 $74 $174 #
ellipse-curve $175 -105 -50 0 0 0 1 0 2.5 0 1 #
point $-1 -102.5 0 0 #
cur-twe-attrib $-1 $-1 $-1 $77 46 #
face_name-twe-attrib $-1 $-1 $-1 $81 7 #
face $176 $177 $104 $3 $-1 $178 0 #
loop $179 $180 $113 $81 #
cone-surface $181 0 -50 0 0 0 -1 -2.5 0 0 1 0 1 0 #
loop_type-twe-attrib $-1 $-1 $-1 $82 0 #
loop $182 $-1 $183 $51 #
surf-twe-attrib $-1 $-1 $-1 $83 51 #
loop_type-twe-attrib $-1 $-1 $-1 $85 1 #
coedge $-1 $128 $128 $184 $185 1 $85 $-1 #
loop $186 $-1 $88 $187 #
edge_name-twe-attrib $-1 $-1 $-1 $89 32 8704 #
vertex $-1 $89 $188 #
ellipse-curve $189 -52.5 -25 5 0 0 -1 0 13 0 1 #
loop $190 $-1 $90 $191 #
edge_name-twe-attrib $-1 $-1 $-1 $91 25 8704 #
vertex $-1 $91 $192 #
ellipse-curve $193 0 0 5 0 0 -1 0 2.5 0 1 #
loop_type-twe-attrib $-1 $-1 $-1 $93 1 #
loop $194 $-1 $195 $6 #
coedge $-1 $139 $139 $196 $197 0 $93 $-1 #
coedge $-1 $140 $140 $94 $141 1 $198 $-1 #
edge $199 $200 $200 $140 $201 0 #
loop $202 $-1 $95 $203 #
edge_name-twe-attrib $-1 $-1 $-1 $96 21 8704 #
vertex $-1 $96 $204 #
ellipse-curve $205 -105 -50 15 0 0 -1 0 5 0 1 #
coedge $-1 $206 $207 $97 $147 0 $208 $-1 #
edge $209 $158 $152 $146 $210 0 #
coedge $-1 $211 $98 $103 $162 0 $150 $-1 #
coedge $-1 $98 $211 $206 $212 1 $150 $-1 #
loop $213 $-1 $211 $177 #
edge_name-twe-attrib $-1 $-1 $-1 $99 9 8704 #
vertex $-1 $212 $214 #
straight-curve $215 -115 -60 15 -1 0 0 #
coedge $-1 $216 $100 $207 $217 0 $156 $-1 #
coedge $-1 $100 $218 $102 $161 1 $156 $-1 #
loop $219 $-1 $220 $221 #
edge_name-twe-attrib $-1 $-1 $-1 $101 16 8704 #
vertex $-1 $217 $222 #
straight-curve $223 10 10 15 1 0 0 #
coedge $-1 $103 $102 $224 $225 1 $104 $-1 #
edge $226 $107 $227 $155 $228 0 #
edge $229 $106 $230 $148 $231 0 #
loop_type-twe-attrib $-1 $-1 $-1 $104 0 #
point $-1 -115 -60 15 #
point $-1 -115 10 15 #
cur-twe-attrib $-1 $-1 $-1 $108 66 #
coedge $-1 $232 $112 $233 $234 0 $71 $-1 #
coedge $-1 $112 $235 $236 $237 0 $71 $-1 #
coedge $-1 $238 $239 $112 $170 1 $240 $-1 #
edge $241 $242 $243 $169 $244 0 #
edge_name-twe-attrib $-1 $-1 $-1 $114 5 8704 #
vertex $-1 $114 $245 #
ellipse-curve $246 0 -50 0 0 0 1 0 2.5 0 1 #
point $-1 -102.5 -50 0 #
cur-twe-attrib $-1 $-1 $-1 $117 74 #
face_name-twe-attrib $-1 $-1 $-1 $121 8 #
face $247 $248 $150 $3 $-1 $249 0 #
plane-surface $250 -115 10 0 -1 0 0 0 0 1 0 #
loop_type-twe-attrib $-1 $-1 $-1 $122 0 #
loop $251 $-1 $252 $81 #
surf-twe-attrib $-1 $-1 $-1 $123 81 #
loop_type-twe-attrib $-1 $-1 $-1 $125 1 #
coedge $-1 $183 $183 $253 $254 1 $125 $-1 #
coedge $-1 $184 $184 $128 $185 0 $255 $-1 #
edge $256 $257 $257 $184 $258 0 #
loop_type-twe-attrib $-1 $-1 $-1 $129 1 #
face $259 $260 $261 $3 $-1 $262 0 #
point $-1 -65.5 -25 5 #
cur-twe-attrib $-1 $-1 $-1 $132 89 #
loop_type-twe-attrib $-1 $-1 $-1 $133 1 #
face $263 $264 $265 $3 $-1 $266 0 #
point $-1 -2.5 0 5 #
cur-twe-attrib $-1 $-1 $-1 $136 91 #
loop_type-twe-attrib $-1 $-1 $-1 $138 1 #
coedge $-1 $195 $195 $267 $268 0 $138 $-1 #
coedge $-1 $196 $196 $139 $197 1 $269 $-1 #
edge $270 $271 $271 $196 $272 0 #
loop $273 $-1 $140 $274 #
edge_name-twe-attrib $-1 $-1 $-1 $141 24 8704 #
vertex $-1 $141 $275 #
ellipse-curve $276 -105 0 15 0 0 -1 0 5 0 1 #
loop_type-twe-attrib $-1 $-1 $-1 $142 1 #
face $277 $278 $279 $3 $-1 $280 1 #
point $-1 -110 -50 15 #
cur-twe-attrib $-1 $-1 $-1 $145 96 #
coedge $-1 $281 $146 $149 $212 0 $208 $-1 #
coedge $-1 $146 $281 $154 $217 1 $208 $-1 #
loop $282 $-1 $281 $248 #
edge_name-twe-attrib $-1 $-1 $-1 $147 12 8704 #
straight-curve $283 10 -60 15 0 -1 0 #
coedge $-1 $149 $148 $284 $285 1 $150 $-1 #
edge $286 $152 $287 $206 $288 0 #
loop_type-twe-attrib $-1 $-1 $-1 $150 0 #
point $-1 10 -60 15 #
cur-twe-attrib $-1 $-1 $-1 $153 99 #
coedge $-1 $289 $154 $290 $291 1 $156 $-1 #
edge $292 $158 $293 $154 $294 0 #
coedge $-1 $155 $295 $296 $297 1 $156 $-1 #
loop_type-twe-attrib $-1 $-1 $-1 $156 0 #
coedge $-1 $295 $289 $298 $299 0 $156 $-1 #
face $300 $301 $156 $3 $-1 $302 0 #
point $-1 10 10 15 #
cur-twe-attrib $-1 $-1 $-1 $159 101 #
coedge $-1 $296 $284 $160 $225 0 $71 $-1 #
edge $303 $230 $227 $160 $304 0 #
edge_name-twe-attrib $-1 $-1 $-1 $161 15 8704 #
vertex $-1 $161 $305 #
straight-curve $306 -115 10 0 0 0 -1 #
edge_name-twe-attrib $-1 $-1 $-1 $162 10 8704 #
vertex $-1 $162 $307 #
straight-curve $308 -115 -60 0 0 0 -1 #
coedge $-1 $309 $167 $310 $311 0 $71 $-1 #
coedge $-1 $312 $313 $167 $234 1 $314 $-1 #
edge $315 $243 $316 $233 $317 0 #
coedge $-1 $168 $318 $319 $320 0 $71 $-1 #
coedge $-1 $321 $322 $168 $237 1 $323 $-1 #
edge $324 $325 $242 $236 $326 0 #
coedge $-1 $327 $169 $322 $328 0 $240 $-1 #
coedge $-1 $169 $327 $312 $329 1 $240 $-1 #
loop $330 $-1 $169 $260 #
edge_name-twe-attrib $-1 $-1 $-1 $170 33 8704 #
vertex $-1 $328 $331 #
vertex $-1 $329 $332 #
ellipse-curve $333 -24.5 -35.5 0 0 0 1 0 -12 0 1 #
point $-1 2.5 -50 0 #
cur-twe-attrib $-1 $-1 $-1 $173 114 #
face_name-twe-attrib $-1 $-1 $-1 $177 9 #
face $334 $221 $208 $3 $-1 $335 0 #
plane-surface $336 -115 -60 0 0 -1 0 0 0 -1 0 #
surf-twe-attrib $-1 $-1 $-1 $178 121 #
loop_type-twe-attrib $-1 $-1 $-1 $180 1 #
coedge $-1 $252 $252 $337 $338 1 $180 $-1 #
coedge $-1 $253 $253 $183 $254 0 $339 $-1 #
edge $340 $341 $341 $253 $342 0 #
loop $343 $-1 $184 $278 #
edge_name-twe-attrib $-1 $-1 $-1 $185 22 8704 #
vertex $-1 $185 $344 #
ellipse-curve $345 -105 0 5 0 0 -1 0 2.5 0 1 #
face_name-twe-attrib $-1 $-1 $-1 $187 20 #
face $346 $347 $240 $3 $-1 $348 1 #
loop $349 $129 $298 $187 #
plane-surface $350 0 0 5 0 0 -1 -1 0 0 0 #
face_name-twe-attrib $-1 $-1 $-1 $191 16 #
face $351 $352 $353 $3 $-1 $354 1 #
loop $355 $133 $356 $191 #
plane-surface $357 0 0 5 0 0 1 1 0 0 0 #
coedge $-1 $267 $267 $195 $268 1 $358 $-1 #
edge $359 $360 $360 $267 $361 0 #
loop $362 $-1 $196 $264 #
edge_name-twe-attrib $-1 $-1 $-1 $197 27 8704 #
vertex $-1 $197 $363 #
ellipse-curve $364 0 0 15 0 0 -1 0 5 0 1 #
loop_type-twe-attrib $-1 $-1 $-1 $198 1 #
face $365 $191 $366 $3 $-1 $367 1 #
point $-1 -110 0 15 #
cur-twe-attrib $-1 $-1 $-1 $201 141 #
face_name-twe-attrib $-1 $-1 $-1 $203 13 #
face $368 $274 $369 $3 $-1 $370 0 #
loop $371 $142 $372 $203 #
cone-surface $373 -105 -50 4.5 0 0 -1 5 0 0 1 0 1 0 #
coedge $-1 $207 $206 $374 $375 1 $208 $-1 #
loop_type-twe-attrib $-1 $-1 $-1 $208 0 #
cur-twe-attrib $-1 $-1 $-1 $210 147 #
coedge $-1 $224 $374 $211 $285 0 $71 $-1 #
edge $376 $287 $230 $211 $377 0 #
edge_name-twe-attrib $-1 $-1 $-1 $212 13 8704 #
vertex $-1 $212 $378 #
straight-curve $379 10 -60 0 0 0 -1 #
coedge $-1 $220 $216 $380 $381 1 $156 $-1 #
coedge $-1 $374 $382 $216 $291 0 $71 $-1 #
edge $383 $384 $293 $216 $385 0 #
edge_name-twe-attrib $-1 $-1 $-1 $217 17 8704 #
vertex $-1 $217 $386 #
straight-curve $387 10 10 0 0 0 -1 #
coedge $-1 $218 $220 $388 $389 0 $156 $-1 #
coedge $-1 $390 $224 $218 $297 0 $71 $-1 #
edge $391 $227 $392 $218 $393 0 #
coedge $-1 $394 $395 $220 $299 1 $261 $-1 #
edge $396 $397 $398 $298 $399 0 #
face_name-twe-attrib $-1 $-1 $-1 $221 11 #
face $400 $203 $401 $3 $-1 $402 0 #
plane-surface $403 10 10 0 0 1 0 0 0 1 0 #
edge_name-twe-attrib $-1 $-1 $-1 $225 6 8704 #
straight-curve $404 -115 10 0 0 1 0 #
point $-1 -115 10 0 #
cur-twe-attrib $-1 $-1 $-1 $228 161 #
point $-1 -115 -60 0 #
cur-twe-attrib $-1 $-1 $-1 $231 162 #
coedge $-1 $382 $232 $405 $406 0 $71 $-1 #
coedge $-1 $407 $408 $232 $311 1 $409 $-1 #
edge $410 $316 $411 $310 $412 0 #
coedge $-1 $413 $233 $239 $329 0 $314 $-1 #
coedge $-1 $233 $413 $407 $414 1 $314 $-1 #
loop $415 $-1 $233 $416 #
edge_name-twe-attrib $-1 $-1 $-1 $234 63 8704 #
vertex $-1 $414 $417 #
straight-curve $418 -12.5 -14.5000005245367 0 -5.07530538219995e-16 1 0 #
coedge $-1 $235 $419 $420 $421 0 $71 $-1 #
coedge $-1 $422 $423 $235 $320 1 $424 $-1 #
edge $425 $426 $325 $319 $427 0 #
coedge $-1 $428 $236 $423 $429 0 $323 $-1 #
coedge $-1 $236 $428 $238 $328 1 $323 $-1 #
loop $430 $-1 $236 $347 #
edge_name-twe-attrib $-1 $-1 $-1 $237 35 8704 #
vertex $-1 $429 $431 #
straight-curve $432 -24.5000005245367 -47.5 0 1 2.53765265148414e-16 0 #
coedge $-1 $239 $238 $433 $434 0 $240 $-1 #
edge $435 $242 $436 $322 $437 0 #
edge $438 $243 $439 $312 $440 0 #
loop_type-twe-attrib $-1 $-1 $-1 $240 0 #
point $-1 -24.5000005245367 -47.5 0 #
point $-1 -12.5 -35.5 0 #
cur-twe-attrib $-1 $-1 $-1 $244 170 #
face_name-twe-attrib $-1 $-1 $-1 $248 10 #
plane-surface $441 10 -60 0 1 0 0 0 0 -1 0 #
surf-twe-attrib $-1 $-1 $-1 $249 177 #
coedge $-1 $337 $337 $252 $338 0 $442 $-1 #
edge $443 $444 $444 $337 $445 0 #
loop $446 $-1 $253 $301 #
edge_name-twe-attrib $-1 $-1 $-1 $254 19 8704 #
vertex $-1 $254 $447 #
ellipse-curve $448 -105 -50 5 0 0 -1 0 2.5 0 1 #
loop_type-twe-attrib $-1 $-1 $-1 $255 1 #
point $-1 -107.5 0 5 #
cur-twe-attrib $-1 $-1 $-1 $258 185 #
face_name-twe-attrib $-1 $-1 $-1 $260 21 #
face $449 $450 $323 $3 $-1 $451 1 #
cone-surface $452 -24.5 -35.5 5 0 0 1 -12 0 0 1 0 1 0 #
loop_type-twe-attrib $-1 $-1 $-1 $261 0 #
surf-twe-attrib $-1 $453 $-1 $262 187 #
face_name-twe-attrib $-1 $-1 $-1 $264 17 #
face $454 $455 $456 $3 $-1 $457 0 #
loop $458 $269 $459 $264 #
cone-surface $460 0 0 4.5 0 0 -1 5 0 0 1 0 1 0 #
loop_type-twe-attrib $-1 $-1 $-1 $265 0 #
coedge $-1 $356 $356 $459 $461 0 $265 $-1 #
surf-twe-attrib $-1 $462 $-1 $266 187 #
loop $463 $-1 $267 $455 #
edge_name-twe-attrib $-1 $-1 $-1 $268 30 8704 #
vertex $-1 $268 $464 #
ellipse-curve $465 0 -50 15 0 0 -1 0 5 0 1 #
loop_type-twe-attrib $-1 $-1 $-1 $269 1 #
point $-1 -5 0 15 #
cur-twe-attrib $-1 $-1 $-1 $272 197 #
face_name-twe-attrib $-1 $-1 $-1 $274 15 #
loop $466 $198 $467 $274 #
cone-surface $468 -105 0 4.5 0 0 -1 5 0 0 1 0 1 0 #
face_name-twe-attrib $-1 $-1 $-1 $278 14 #
loop $469 $255 $470 $278 #
plane-surface $471 -105 0 5 0 0 1 1 0 0 0 #
loop_type-twe-attrib $-1 $-1 $-1 $279 0 #
coedge $-1 $372 $372 $472 $473 1 $279 $-1 #
surf-twe-attrib $-1 $-1 $-1 $280 203 #
coedge $-1 $284 $290 $281 $375 0 $71 $-1 #
edge $474 $293 $287 $281 $475 0 #
edge_name-twe-attrib $-1 $-1 $-1 $285 8 8704 #
straight-curve $476 -115 -60 0 -1 0 0 #
point $-1 10 -60 0 #
cur-twe-attrib $-1 $-1 $-1 $288 212 #
coedge $-1 $477 $478 $289 $381 0 $479 $-1 #
edge $480 $397 $384 $380 $481 0 #
coedge $-1 $290 $309 $477 $482 0 $71 $-1 #
edge_name-twe-attrib $-1 $-1 $-1 $291 18 8704 #
vertex $-1 $381 $483 #
straight-curve $484 10 10 0 1 0 0 #
point $-1 10 10 0 #
cur-twe-attrib $-1 $-1 $-1 $294 217 #
coedge $-1 $485 $486 $295 $389 1 $487 $-1 #
edge $488 $398 $392 $388 $489 0 #
coedge $-1 $490 $296 $486 $491 1 $71 $-1 #
edge_name-twe-attrib $-1 $-1 $-1 $297 14 8704 #
vertex $-1 $389 $492 #
straight-curve $493 -57.5 10 0 1 0 0 #
coedge $-1 $494 $298 $478 $495 1 $261 $-1 #
coedge $-1 $298 $496 $485 $497 1 $261 $-1 #
edge_name-twe-attrib $-1 $-1 $-1 $299 31 8704 #
vertex $-1 $495 $498 #
vertex $-1 $497 $499 #
straight-curve $500 -57.5 10 5 -1 0 0 #
face_name-twe-attrib $-1 $-1 $-1 $301 12 #
loop $501 $339 $472 $301 #
plane-surface $502 -105 -50 5 0 0 1 1 0 0 0 #
surf-twe-attrib $-1 $-1 $-1 $302 221 #
cur-twe-attrib $-1 $-1 $-1 $304 225 #
coedge $-1 $503 $504 $309 $406 1 $505 $-1 #
edge $506 $411 $507 $405 $508 0 #
coedge $-1 $509 $310 $313 $414 0 $409 $-1 #
coedge $-1 $310 $509 $503 $510 1 $409 $-1 #
loop $511 $-1 $310 $512 #
edge_name-twe-attrib $-1 $-1 $-1 $311 60 8704 #
vertex $-1 $510 $513 #
ellipse-curve $514 -24.5 -14.5 0 0 0 1 12 0 0 1 #
coedge $-1 $313 $312 $515 $516 0 $314 $-1 #
edge $517 $316 $518 $313 $519 0 #
loop_type-twe-attrib $-1 $-1 $-1 $314 0 #
face $520 $-1 $314 $3 $-1 $521 1 #
point $-1 -12.5 -14.5000005245367 0 #
cur-twe-attrib $-1 $-1 $-1 $317 234 #
coedge $-1 $318 $490 $522 $523 0 $71 $-1 #
coedge $-1 $524 $525 $318 $421 1 $526 $-1 #
edge $527 $528 $426 $420 $529 0 #
coedge $-1 $530 $319 $525 $531 0 $424 $-1 #
coedge $-1 $319 $530 $321 $429 1 $424 $-1 #
loop $532 $-1 $319 $450 #
edge_name-twe-attrib $-1 $-1 $-1 $320 38 8704 #
vertex $-1 $531 $533 #
ellipse-curve $534 -80.5 -35.5 0 0 0 1 -12 0 0 1 #
coedge $-1 $322 $321 $535 $536 0 $323 $-1 #
edge $537 $325 $538 $423 $539 0 #
loop_type-twe-attrib $-1 $-1 $-1 $323 0 #
point $-1 -80.5 -47.5 0 #
cur-twe-attrib $-1 $-1 $-1 $326 237 #
coedge $-1 $535 $515 $327 $434 1 $261 $-1 #
edge $540 $436 $439 $327 $541 0 #
edge_name-twe-attrib $-1 $-1 $-1 $328 37 20480 #
vertex $-1 $328 $542 #
straight-curve $543 -24.5 -47.5 5 1.04907336151427e-07 -2.84217094304039e-15 0.999999999999994 #
edge_name-twe-attrib $-1 $-1 $-1 $329 64 20480 #
vertex $-1 $329 $544 #
straight-curve $545 -12.5 -35.5 5 0 0 1 #
surf-twe-attrib $-1 $-1 $-1 $335 248 #
loop $546 $-1 $337 $352 #
edge_name-twe-attrib $-1 $-1 $-1 $338 28 8704 #
vertex $-1 $338 $547 #
ellipse-curve $548 0 -50 5 0 0 -1 0 2.5 0 1 #
loop_type-twe-attrib $-1 $-1 $-1 $339 1 #
point $-1 -107.5 -50 5 #
cur-twe-attrib $-1 $-1 $-1 $342 254 #
face_name-twe-attrib $-1 $-1 $-1 $347 22 #
face $549 $550 $424 $3 $-1 $551 1 #
plane-surface $552 -24.5 -47.5 5 0 -1 0 0 0 -1 0 #
surf-twe-attrib $-1 $-1 $-1 $348 260 #
surf-twe-attrib $-1 $553 $350 $262 352 #
face_name-twe-attrib $-1 $-1 $-1 $352 18 #
face $554 $187 $555 $3 $-1 $556 1 #
loop $557 $442 $558 $352 #
plane-surface $559 0 -50 5 0 0 1 1 0 0 0 #
loop_type-twe-attrib $-1 $-1 $-1 $353 0 #
coedge $-1 $459 $459 $356 $461 1 $353 $-1 #
surf-twe-attrib $-1 $-1 $-1 $354 264 #
edge $560 $561 $561 $459 $562 0 #
surf-twe-attrib $-1 $563 $357 $266 352 #
loop_type-twe-attrib $-1 $-1 $-1 $358 1 #
point $-1 -5 -50 15 #
cur-twe-attrib $-1 $-1 $-1 $361 268 #
loop_type-twe-attrib $-1 $-1 $-1 $366 0 #
coedge $-1 $467 $467 $470 $564 1 $366 $-1 #
surf-twe-attrib $-1 $-1 $-1 $367 274 #
loop_type-twe-attrib $-1 $-1 $-1 $369 0 #
coedge $-1 $470 $470 $467 $564 0 $369 $-1 #
surf-twe-attrib $-1 $565 $-1 $370 187 #
coedge $-1 $472 $472 $372 $473 0 $401 $-1 #
edge $566 $567 $567 $372 $568 0 #
edge_name-twe-attrib $-1 $-1 $-1 $375 11 8704 #
straight-curve $569 10 -60 0 0 -1 0 #
cur-twe-attrib $-1 $-1 $-1 $377 285 #
coedge $-1 $570 $380 $382 $482 1 $479 $-1 #
coedge $-1 $380 $570 $394 $495 0 $479 $-1 #
loop $571 $-1 $477 $572 #
edge_name-twe-attrib $-1 $-1 $-1 $381 56 8704 #
straight-curve $573 -47.5 10 0 0 0 -1 #
edge $574 $507 $384 $477 $575 0 #
point $-1 -47.5 10 0 #
cur-twe-attrib $-1 $576 $-1 $385 291 #
coedge $-1 $577 $388 $395 $497 0 $487 $-1 #
coedge $-1 $388 $577 $390 $491 0 $487 $-1 #
loop $578 $-1 $486 $579 #
edge_name-twe-attrib $-1 $-1 $-1 $389 51 8704 #
straight-curve $580 -57.5 10 0 0 0 -1 #
coedge $-1 $419 $390 $581 $582 0 $71 $-1 #
edge $583 $584 $392 $486 $585 0 #
point $-1 -57.5 10 0 #
cur-twe-attrib $-1 $586 $-1 $393 291 #
coedge $-1 $587 $394 $588 $589 1 $261 $-1 #
edge $590 $591 $397 $478 $592 0 #
coedge $-1 $395 $593 $594 $595 1 $261 $-1 #
edge $596 $398 $597 $485 $598 0 #
point $-1 -47.5 10 5 #
point $-1 -57.5 10 5 #
cur-twe-attrib $-1 $-1 $-1 $399 299 #
loop_type-twe-attrib $-1 $-1 $-1 $401 0 #
surf-twe-attrib $-1 $599 $-1 $402 187 #
coedge $-1 $588 $405 $408 $510 0 $505 $-1 #
coedge $-1 $405 $588 $570 $600 1 $505 $-1 #
loop $601 $-1 $405 $602 #
edge_name-twe-attrib $-1 $-1 $-1 $406 57 8704 #
vertex $-1 $600 $603 #
straight-curve $604 -47.5 -2.5 0 -1 0 0 #
coedge $-1 $408 $407 $587 $605 0 $409 $-1 #
edge $606 $411 $607 $408 $608 0 #
loop_type-twe-attrib $-1 $-1 $-1 $409 0 #
face $609 $416 $409 $3 $-1 $610 1 #
point $-1 -24.5 -2.5 0 #
cur-twe-attrib $-1 $-1 $-1 $412 311 #
coedge $-1 $433 $587 $413 $516 1 $261 $-1 #
edge $611 $439 $518 $413 $612 0 #
edge_name-twe-attrib $-1 $-1 $-1 $414 66 20480 #
vertex $-1 $414 $613 #
straight-curve $614 -12.5 -14.5 5 2.48689957516034e-15 1.04907336151427e-07 0.999999999999994 #
face_name-twe-attrib $-1 $-1 $-1 $416 31 #
plane-surface $615 -12.5 -14.5 5 1 0 0 0 0 -1 0 #
coedge $-1 $616 $617 $419 $523 1 $618 $-1 #
edge $619 $620 $528 $522 $621 0 #
coedge $-1 $622 $420 $617 $623 0 $526 $-1 #
coedge $-1 $420 $622 $422 $531 1 $526 $-1 #
loop $624 $-1 $420 $550 #
edge_name-twe-attrib $-1 $-1 $-1 $421 41 8704 #
vertex $-1 $623 $625 #
straight-curve $626 -92.5 -35.4999994754633 0 6.76707384293326e-16 -1 0 #
coedge $-1 $423 $422 $627 $628 0 $424 $-1 #
edge $629 $426 $630 $525 $631 0 #
loop_type-twe-attrib $-1 $-1 $-1 $424 0 #
point $-1 -92.5 -35.4999994754633 0 #
cur-twe-attrib $-1 $-1 $-1 $427 320 #
coedge $-1 $627 $433 $428 $536 1 $261 $-1 #
edge $632 $538 $436 $428 $633 0 #
edge_name-twe-attrib $-1 $-1 $-1 $429 40 20480 #
vertex $-1 $429 $634 #
straight-curve $635 -80.5 -47.5 5 0 0 1 #
edge_name-twe-attrib $-1 $-1 $-1 $434 34 4608 #
ellipse-curve $636 -24.5 -35.5 5 0 0 1 0 -12 0 1 #
point $-1 -24.5 -47.5 5 #
cur-twe-attrib $-1 $-1 $-1 $437 328 #
point $-1 -12.5 -35.5 5 #
cur-twe-attrib $-1 $-1 $-1 $440 329 #
loop_type-twe-attrib $-1 $-1 $-1 $442 1 #
point $-1 -2.5 -50 5 #
cur-twe-attrib $-1 $-1 $-1 $445 338 #
face_name-twe-attrib $-1 $-1 $-1 $450 23 #
face $637 $638 $526 $3 $-1 $639 1 #
cone-surface $640 -80.5 -35.5 5 0 0 1 -12 0 0 1 0 1 0 #
surf-twe-attrib $-1 $-1 $-1 $451 347 #
surf-twe-attrib $-1 $641 $453 $262 191 #
face_name-twe-attrib $-1 $-1 $-1 $455 19 #
loop $642 $358 $643 $455 #
cone-surface $644 0 -50 4.5 0 0 -1 5 0 0 1 0 1 0 #
loop_type-twe-attrib $-1 $-1 $-1 $456 0 #
coedge $-1 $558 $558 $643 $645 0 $456 $-1 #
surf-twe-attrib $-1 $646 $-1 $457 187 #
edge_name-twe-attrib $-1 $-1 $-1 $461 26 4608 #
vertex $-1 $461 $647 #
ellipse-curve $648 0 0 5 0 0 1 0 5 0 1 #
surf-twe-attrib $-1 $649 $462 $266 191 #
edge $650 $651 $651 $467 $652 0 #
surf-twe-attrib $-1 $653 $471 $370 352 #
edge_name-twe-attrib $-1 $-1 $-1 $473 20 4608 #
vertex $-1 $473 $654 #
ellipse-curve $655 -105 -50 5 0 0 1 0 5 0 1 #
cur-twe-attrib $-1 $-1 $-1 $475 375 #
coedge $-1 $478 $477 $504 $600 0 $479 $-1 #
loop_type-twe-attrib $-1 $-1 $-1 $479 0 #
face $656 $602 $479 $3 $-1 $657 1 #
cur-twe-attrib $-1 $-1 $-1 $481 381 #
edge_name-twe-attrib $-1 $-1 $-1 $482 54 8704 #
straight-curve $658 -47.5 10 0 0 1 0 #
cur-twe-attrib $-1 $-1 $484 $385 297 #
coedge $-1 $486 $485 $659 $660 1 $487 $-1 #
loop_type-twe-attrib $-1 $-1 $-1 $487 0 #
face $661 $572 $487 $3 $-1 $662 1 #
cur-twe-attrib $-1 $-1 $-1 $489 389 #
coedge $-1 $659 $663 $490 $582 1 $664 $-1 #
edge $665 $584 $620 $581 $666 0 #
edge_name-twe-attrib $-1 $-1 $-1 $491 50 8704 #
vertex $-1 $660 $667 #
straight-curve $668 -57.5 10 0 0 1 0 #
cur-twe-attrib $-1 $-1 $493 $393 297 #
coedge $-1 $515 $494 $509 $605 1 $261 $-1 #
coedge $-1 $504 $503 $494 $589 0 $505 $-1 #
edge $669 $607 $591 $588 $670 0 #
edge_name-twe-attrib $-1 $-1 $-1 $495 55 4608 #
vertex $-1 $600 $671 #
straight-curve $672 -47.5 10 5 0 1 0 #
coedge $-1 $496 $673 $674 $675 1 $261 $-1 #
coedge $-1 $663 $659 $496 $595 0 $664 $-1 #
edge $676 $597 $677 $594 $678 0 #
edge_name-twe-attrib $-1 $-1 $-1 $497 52 4608 #
vertex $-1 $660 $679 #
straight-curve $680 -57.5 -2.5 5 0 -1 0 #
surf-twe-attrib $-1 $681 $502 $402 352 #
edge $682 $507 $591 $504 $683 0 #
loop_type-twe-attrib $-1 $-1 $-1 $505 0 #
face $684 $512 $505 $3 $-1 $685 1 #
point $-1 -47.5 -2.5 0 #
cur-twe-attrib $-1 $686 $-1 $508 406 #
edge $687 $518 $607 $509 $688 0 #
edge_name-twe-attrib $-1 $-1 $-1 $510 62 20480 #
vertex $-1 $510 $689 #
straight-curve $690 -24.5 -2.5 5 0 -3.5527136788005e-16 1 #
face_name-twe-attrib $-1 $-1 $-1 $512 30 #
cone-surface $691 -24.5 -14.5 5 0 0 1 -12 0 0 1 0 1 0 #
edge_name-twe-attrib $-1 $-1 $-1 $516 65 4608 #
straight-curve $692 -12.5 -14.5 5 8.45884209238214e-17 1 0 #
point $-1 -12.5 -14.5 5 #
cur-twe-attrib $-1 $-1 $-1 $519 414 #
surf-twe-attrib $-1 $-1 $-1 $521 416 #
coedge $-1 $674 $522 $663 $693 0 $618 $-1 #
coedge $-1 $522 $674 $524 $623 1 $618 $-1 #
loop $694 $-1 $522 $638 #
edge_name-twe-attrib $-1 $-1 $-1 $523 44 8704 #
vertex $-1 $693 $695 #
ellipse-curve $696 -80.5 -14.5 0 0 0 1 0 12 0 1 #
coedge $-1 $525 $524 $673 $697 0 $526 $-1 #
edge $698 $528 $699 $617 $700 0 #
loop_type-twe-attrib $-1 $-1 $-1 $526 0 #
point $-1 -92.5 -14.5 0 #
cur-twe-attrib $-1 $-1 $-1 $529 421 #
coedge $-1 $673 $535 $530 $628 1 $261 $-1 #
edge $701 $630 $538 $530 $702 0 #
edge_name-twe-attrib $-1 $-1 $-1 $531 43 20480 #
vertex $-1 $531 $703 #
straight-curve $704 -92.5 -35.5 5 -2.84217094304039e-15 -1.04907336151427e-07 0.999999999999994 #
edge_name-twe-attrib $-1 $-1 $-1 $536 36 4608 #
straight-curve $705 -24.5 -47.5 5 1 0 0 #
point $-1 -80.5 -47.5 5 #
cur-twe-attrib $-1 $-1 $-1 $539 429 #
cur-twe-attrib $-1 $-1 $-1 $541 434 #
face_name-twe-attrib $-1 $-1 $-1 $550 24 #
face $706 $707 $618 $3 $-1 $708 1 #
plane-surface $709 -92.5 -35.5 5 -1 0 0 0 0 1 0 #
surf-twe-attrib $-1 $-1 $-1 $551 450 #
surf-twe-attrib $-1 $710 $553 $262 278 #
loop_type-twe-attrib $-1 $-1 $-1 $555 0 #
coedge $-1 $643 $643 $558 $645 1 $555 $-1 #
surf-twe-attrib $-1 $-1 $-1 $556 455 #
edge $711 $712 $712 $643 $713 0 #
surf-twe-attrib $-1 $714 $559 $457 352 #
point $-1 -5 0 5 #
cur-twe-attrib $-1 $-1 $-1 $562 461 #
surf-twe-attrib $-1 $715 $563 $266 278 #
edge_name-twe-attrib $-1 $-1 $-1 $564 23 4608 #
vertex $-1 $564 $716 #
ellipse-curve $717 -105 0 5 0 0 1 0 5 0 1 #
surf-twe-attrib $-1 $718 $565 $370 191 #
point $-1 -110 -50 5 #
cur-twe-attrib $-1 $-1 $-1 $568 473 #
face_name-twe-attrib $-1 $-1 $-1 $572 28 #
plane-surface $719 -47.5 10 5 1 0 0 0 0 -1 0 #
cur-twe-attrib $-1 $-1 $-1 $575 482 #
coedge $-1 $594 $581 $577 $660 0 $664 $-1 #
edge $720 $584 $597 $577 $721 0 #
face_name-twe-attrib $-1 $-1 $-1 $579 27 #
plane-surface $722 -57.5 -2.5 5 -1 0 0 0 0 1 0 #
coedge $-1 $581 $594 $616 $693 1 $664 $-1 #
loop $723 $-1 $581 $707 #
edge_name-twe-attrib $-1 $-1 $-1 $582 47 8704 #
straight-curve $724 -80.4999994754633 -2.50000000000001 0 -1 -5.40630354755748e-16 0 #
point $-1 -57.5 -2.5 0 #
cur-twe-attrib $-1 $-1 $-1 $585 491 #
edge_name-twe-attrib $-1 $-1 $-1 $589 58 4608 #
straight-curve $725 -47.5 -2.5 5 -1 7.72329060608805e-17 0 #
point $-1 -47.5 -2.5 5 #
cur-twe-attrib $-1 $-1 $-1 $592 495 #
coedge $-1 $593 $627 $622 $697 1 $261 $-1 #
coedge $-1 $617 $616 $593 $675 0 $618 $-1 #
edge $726 $677 $699 $674 $727 0 #
edge_name-twe-attrib $-1 $-1 $-1 $595 48 4608 #
vertex $-1 $693 $728 #
straight-curve $729 -80.5 -2.5 5 -1 0 0 #
point $-1 -57.5 -2.5 5 #
cur-twe-attrib $-1 $-1 $-1 $598 497 #
surf-twe-attrib $-1 $730 $599 $402 191 #
edge_name-twe-attrib $-1 $-1 $-1 $600 59 8704 #
straight-curve $731 -47.5 -2.5 5 0 0 1 #
face_name-twe-attrib $-1 $-1 $-1 $602 29 #
plane-surface $732 -47.5 -2.5 5 0 1 0 0 0 1 0 #
cur-twe-attrib $-1 $-1 $604 $508 582 #
edge_name-twe-attrib $-1 $-1 $-1 $605 61 4608 #
ellipse-curve $733 -24.5 -14.5 5 0 0 1 12 0 0 1 #
point $-1 -24.5 -2.5 5 #
cur-twe-attrib $-1 $-1 $-1 $608 510 #
surf-twe-attrib $-1 $-1 $-1 $610 512 #
cur-twe-attrib $-1 $-1 $-1 $612 516 #
edge $734 $620 $677 $663 $735 0 #
loop_type-twe-attrib $-1 $-1 $-1 $618 0 #
point $-1 -80.4999994754633 -2.50000000000001 0 #
cur-twe-attrib $-1 $-1 $-1 $621 523 #
edge $736 $699 $630 $622 $737 0 #
edge_name-twe-attrib $-1 $-1 $-1 $623 46 20480 #
vertex $-1 $623 $738 #
straight-curve $739 -92.5 -14.5 5 0 0 1 #
edge_name-twe-attrib $-1 $-1 $-1 $628 39 4608 #
ellipse-curve $740 -80.5 -35.5 5 0 0 1 -12 0 0 1 #
point $-1 -92.5 -35.5 5 #
cur-twe-attrib $-1 $-1 $-1 $631 531 #
cur-twe-attrib $-1 $-1 $-1 $633 536 #
face_name-twe-attrib $-1 $-1 $-1 $638 25 #
face $741 $579 $664 $3 $-1 $742 1 #
cone-surface $743 -80.5 -14.5 5 0 0 1 -12 0 0 1 0 1 0 #
surf-twe-attrib $-1 $-1 $-1 $639 550 #
surf-twe-attrib $-1 $-1 $641 $262 301 #
edge_name-twe-attrib $-1 $-1 $-1 $645 29 4608 #
vertex $-1 $645 $744 #
ellipse-curve $745 0 -50 5 0 0 1 0 5 0 1 #
surf-twe-attrib $-1 $746 $646 $457 191 #
surf-twe-attrib $-1 $-1 $649 $266 301 #
point $-1 -110 0 5 #
cur-twe-attrib $-1 $-1 $-1 $652 564 #
surf-twe-attrib $-1 $747 $653 $370 278 #
surf-twe-attrib $-1 $-1 $-1 $657 572 #
edge_name-twe-attrib $-1 $-1 $-1 $660 53 8704 #
straight-curve $748 -57.5 -2.5 5 0 0 1 #
surf-twe-attrib $-1 $-1 $-1 $662 579 #
loop_type-twe-attrib $-1 $-1 $-1 $664 0 #
cur-twe-attrib $-1 $749 $-1 $666 406 #
cur-twe-attrib $-1 $750 $-1 $670 589 #
edge_name-twe-attrib $-1 $-1 $-1 $675 45 4608 #
ellipse-curve $751 -80.5 -14.5 5 0 0 1 0 12 0 1 #
point $-1 -80.5 -2.5 5 #
cur-twe-attrib $-1 $752 $-1 $678 589 #
surf-twe-attrib $-1 $753 $681 $402 278 #
cur-twe-attrib $-1 $-1 $-1 $683 600 #
surf-twe-attrib $-1 $754 $-1 $685 602 #
cur-twe-attrib $-1 $-1 $-1 $688 605 #
edge_name-twe-attrib $-1 $-1 $-1 $693 49 20480 #
straight-curve $755 -80.5 -2.5 5 -1.04907334730341e-07 2.48689957516034e-15 0.999999999999994 #
edge_name-twe-attrib $-1 $-1 $-1 $697 42 4608 #
straight-curve $756 -92.5 -35.5 5 0 -1 0 #
point $-1 -92.5 -14.5 5 #
cur-twe-attrib $-1 $-1 $-1 $700 623 #
cur-twe-attrib $-1 $-1 $-1 $702 628 #
face_name-twe-attrib $-1 $-1 $-1 $707 26 #
plane-surface $757 -80.5 -2.5 5 0 1 0 0 0 1 0 #
surf-twe-attrib $-1 $-1 $-1 $708 638 #
point $-1 -5 -50 5 #
cur-twe-attrib $-1 $-1 $-1 $713 645 #
surf-twe-attrib $-1 $758 $714 $457 278 #
surf-twe-attrib $-1 $-1 $718 $370 301 #
cur-twe-attrib $-1 $-1 $-1 $721 660 #
cur-twe-attrib $-1 $-1 $724 $666 582 #
cur-twe-attrib $-1 $-1 $725 $670 595 #
cur-twe-attrib $-1 $-1 $-1 $727 675 #
cur-twe-attrib $-1 $-1 $729 $678 595 #
surf-twe-attrib $-1 $-1 $730 $402 301 #
surf-twe-attrib $-1 $-1 $732 $685 707 #
cur-twe-attrib $-1 $-1 $-1 $735 693 #
cur-twe-attrib $-1 $-1 $-1 $737 697 #
surf-twe-attrib $-1 $759 $-1 $742 602 #
surf-twe-attrib $-1 $-1 $746 $457 301 #
surf-twe-attrib $-1 $-1 $757 $742 707 #
