600 0 1 0           
110 GICL ACIS Healer - Source: /gicl/data5/repository/Parasolid/NIST/Bill_Regli/vand_orig/vand_orig.step.sat - 6 0 18 ACIS 6.0.3 Solaris 24 Sun Apr 14 00:19:19 2002 
1 9.999999999999999547e-07 1.000000000000000036e-10 
body $-1 $1 $-1 $-1 #
lump $-1 $-1 $2 $0 #
shell $-1 $-1 $-1 $3 $-1 $1 #
face $-1 $4 $5 $2 $-1 $6 reversed single #
face $-1 $7 $8 $2 $-1 $9 reversed single #
loop $-1 $-1 $10 $3 #
cone-surface $-1 0 0 375.0000000000011369 0 0 1 499.9999999999989768 0 0 1 I I 0 1 499.9999999999989768 forward I I I I #
face $-1 $11 $12 $2 $-1 $13 reversed single #
loop $-1 $-1 $14 $4 #
plane-surface $-1 0 0 125.0000000000001137 0 0 -1 -25.39999999999999858 0 0 forward_v I I I I #
coedge $-1 $15 $16 $17 $18 reversed $5 $-1 #
face $-1 $19 $20 $2 $-1 $21 reversed single #
loop $-1 $22 $23 $7 #
cone-surface $-1 0 0 125.0000000000001137 0 0 1 125.0000000000001137 0 0 1 I I 0.8320502937149121259 0.5547001971596264847 125.0000000000001137 forward I I I I #
coedge $-1 $14 $14 $23 $24 forward $8 $-1 #
coedge $-1 $25 $10 $26 $27 reversed $5 $-1 #
coedge $-1 $10 $28 $29 $30 reversed $5 $-1 #
coedge $-1 $31 $32 $10 $18 forward $33 $-1 #
edge $-1 $34 -1.308996938995746318 $35 -1.038078418539527314 $10 $36 forward 7 unknown #
face $-1 $37 $38 $2 $-1 $39 reversed single #
loop $-1 $-1 $40 $11 #
cone-surface $-1 0 0 375.0000000000011369 0 0 1 499.9999999999989768 0 0 1 I I 0 1 499.9999999999989768 forward I I I I #
loop $-1 $-1 $41 $7 #
coedge $-1 $23 $23 $14 $24 reversed $12 $-1 #
edge $-1 $42 0 $42 6.283185307179586232 $14 $43 forward 7 unknown #
coedge $-1 $44 $15 $45 $46 forward $5 $-1 #
coedge $-1 $47 $48 $15 $27 forward $49 $-1 #
edge $-1 $50 -24.60629921259840458 $34 -4.921259842519599914 $15 $51 forward 7 unknown #
coedge $-1 $16 $52 $53 $54 reversed $5 $-1 #
coedge $-1 $55 $56 $16 $30 forward $57 $-1 #
edge $-1 $35 -4.921259842519599914 $58 0 $16 $59 forward 7 unknown #
coedge $-1 $60 $17 $56 $61 forward $33 $-1 #
coedge $-1 $17 $60 $47 $62 forward $33 $-1 #
loop $-1 $-1 $32 $63 #
vertex $-1 $18 $64 #
vertex $-1 $18 $65 #
ellipse-curve $-1 0 0 499.9999999999989768 0 0 -1 -499.9999999999989768 0 0 1 I I #
face $-1 $66 $67 $2 $-1 $68 reversed single #
loop $-1 $-1 $69 $19 #
plane-surface $-1 -88.38834764831842961 88.38834764831842961 375.0000000000011369 -0.7071067811865475727 0.7071067811865475727 0 0 0 25.39999999999999858 forward_v I I I I #
coedge $-1 $70 $71 $72 $73 reversed $20 $-1 #
coedge $-1 $72 $53 $74 $75 forward $22 $-1 #
vertex $-1 $24 $76 #
ellipse-curve $-1 0 0 125.0000000000001137 0 0 1 125.0000000000001137 0 0 1 I I #
coedge $-1 $77 $25 $78 $79 reversed $5 $-1 #
coedge $-1 $80 $81 $25 $46 reversed $82 $-1 #
edge $-1 $50 -1.832595714594047021 $83 -1.633460242378929506 $25 $84 forward 7 unknown #
coedge $-1 $85 $26 $32 $62 reversed $49 $-1 #
coedge $-1 $26 $85 $80 $86 forward $49 $-1 #
loop $-1 $-1 $48 $87 #
vertex $-1 $27 $88 #
straight-curve $-1 -129.4095225512604657 -482.9629131445329335 375.0000000000011369 0 0 -25.39999999999999858 I I #
coedge $-1 $28 $89 $90 $91 reversed $5 $-1 #
coedge $-1 $41 $92 $28 $54 forward $22 $-1 #
edge $-1 $58 -2.103514235050266024 $93 0.5327179082553692435 $28 $94 forward 7 unknown #
coedge $-1 $95 $29 $96 $97 reversed $57 $-1 #
coedge $-1 $29 $95 $31 $61 reversed $57 $-1 #
loop $-1 $-1 $56 $98 #
vertex $-1 $54 $99 #
straight-curve $-1 -253.9382507924105141 -430.7149460890478849 375.0000000000011369 0 0 -25.39999999999999858 I I #
coedge $-1 $32 $31 $100 $101 forward $33 $-1 #
edge $-1 $35 19.05995741243808439 $102 106.4341387695350534 $56 $103 forward 7 unknown #
edge $-1 $104 -101.5128789270152936 $34 -17.0477441689849698 $32 $105 forward 7 unknown #
face $-1 $106 $33 $2 $-1 $107 reversed single #
point $-1 -129.4095225512604657 -482.9629131445329335 499.9999999999989768 #
point $-1 -253.9382507924105141 -430.7149460890478849 499.9999999999989768 #
face $-1 $108 $109 $2 $-1 $110 reversed single #
loop $-1 $-1 $111 $37 #
plane-surface $-1 88.38834764831842961 -88.38834764831842961 375.0000000000011369 0.7071067811865475727 -0.7071067811865475727 0 0 0 -25.39999999999999858 forward_v I I I I #
coedge $-1 $112 $113 $114 $115 reversed $38 $-1 #
coedge $-1 $116 $40 $117 $118 reversed $20 $-1 #
coedge $-1 $40 $119 $112 $120 reversed $20 $-1 #
coedge $-1 $92 $41 $40 $73 forward $22 $-1 #
edge $-1 $121 1.038078418539527314 $122 3.674310561845162137 $72 $123 forward 7 unknown #
coedge $-1 $124 $125 $41 $75 reversed $109 $-1 #
edge $-1 $93 0.5327179082553692435 $121 1.038078418539527314 $41 $126 forward 7 unknown #
point $-1 125.0000000000001137 0 125.0000000000001137 #
coedge $-1 $127 $44 $128 $129 reversed $5 $-1 #
coedge $-1 $130 $131 $44 $79 forward $132 $-1 #
edge $-1 $133 11.61417322834639876 $83 24.60629921259840458 $44 $134 forward 7 unknown #
coedge $-1 $135 $45 $48 $86 reversed $82 $-1 #
coedge $-1 $45 $135 $130 $136 reversed $82 $-1 #
loop $-1 $-1 $45 $137 #
vertex $-1 $46 $138 #
ellipse-curve $-1 0 0 1000.000000000000568 0 0 1 499.9999999999989768 0 0 1 I I #
coedge $-1 $48 $47 $139 $140 forward $49 $-1 #
edge $-1 $141 -101.5128789270152936 $50 -17.0477441689849698 $80 $142 forward 7 unknown #
face $-1 $143 $49 $2 $-1 $144 reversed single #
point $-1 -129.4095225512604657 -482.9629131445329335 1000.000000000000568 #
coedge $-1 $52 $145 $146 $147 reversed $5 $-1 #
coedge $-1 $148 $111 $52 $91 forward $67 $-1 #
edge $-1 $93 0 $149 4.921259842519599914 $52 $150 forward 7 unknown #
coedge $-1 $53 $72 $151 $152 forward $22 $-1 #
vertex $-1 $91 $153 #
ellipse-curve $-1 0 0 375.0000000000011369 0 0 1 499.9999999999989768 0 0 1 I I #
coedge $-1 $56 $55 $154 $155 forward $57 $-1 #
coedge $-1 $151 $156 $55 $97 forward $157 $-1 #
edge $-1 $158 -106.4341387695350534 $58 -19.05995741243808439 $55 $159 forward 7 unknown #
face $-1 $160 $57 $2 $-1 $161 reversed single #
point $-1 -253.9382507924105141 -430.7149460890478849 375.0000000000011369 #
coedge $-1 $154 $139 $60 $101 reversed $162 $-1 #
edge $-1 $102 -71.78044506706160632 $104 -64.82073265380809346 $60 $163 forward 7 unknown #
vertex $-1 $61 $164 #
straight-curve $-1 88.38834764831842961 -88.38834764831842961 499.9999999999989768 -17.96051224213831787 -17.96051224213831787 0 I I #
vertex $-1 $62 $165 #
straight-curve $-1 176.776695296637115 -176.776695296637115 499.9999999999989768 17.96051224213831787 17.96051224213831787 0 I I #
face $-1 $166 $167 $2 $-1 $168 reversed single #
plane-surface $-1 0 0 499.9999999999989768 0 0 -1 -25.39999999999999858 0 0 forward_v I I I I #
face $-1 $169 $170 $2 $-1 $171 reversed single #
loop $-1 $-1 $125 $66 #
plane-surface $-1 0 0 375.0000000000011369 0 0 -1 -25.39999999999999858 0 0 forward_v I I I I #
coedge $-1 $90 $172 $124 $173 reversed $67 $-1 #
coedge $-1 $174 $69 $71 $120 forward $38 $-1 #
coedge $-1 $69 $174 $175 $176 forward $38 $-1 #
coedge $-1 $177 $151 $69 $115 forward $157 $-1 #
edge $-1 $122 19.05995741243808439 $178 106.4341387695350534 $69 $179 forward 7 unknown #
coedge $-1 $180 $70 $181 $182 reversed $20 $-1 #
coedge $-1 $183 $184 $70 $118 forward $185 $-1 #
edge $-1 $186 -4.921259842519599914 $121 0 $70 $187 forward 7 unknown #
coedge $-1 $71 $188 $189 $190 reversed $20 $-1 #
edge $-1 $122 0 $191 4.921259842519599914 $71 $192 forward 7 unknown #
vertex $-1 $75 $193 #
vertex $-1 $73 $194 #
ellipse-curve $-1 0 0 375.0000000000011369 0 0 1 499.9999999999989768 0 0 1 I I #
coedge $-1 $195 $74 $111 $173 forward $109 $-1 #
coedge $-1 $74 $196 $183 $197 forward $109 $-1 #
ellipse-curve $-1 0 0 375.0000000000011369 0 0 1 499.9999999999989768 0 0 1 I I #
coedge $-1 $198 $77 $199 $200 reversed $5 $-1 #
coedge $-1 $201 $202 $77 $129 forward $203 $-1 #
edge $-1 $204 3.07892873800576039 $133 4.775052895968721955 $77 $205 forward 7 unknown #
coedge $-1 $206 $78 $81 $136 forward $132 $-1 #
coedge $-1 $78 $206 $201 $207 reversed $132 $-1 #
loop $-1 $-1 $131 $208 #
vertex $-1 $79 $209 #
straight-curve $-1 -31.31145627158400302 -499.0186296183265995 375.0000000000011369 0 0 25.39999999999999858 I I #
coedge $-1 $81 $80 $210 $211 reversed $82 $-1 #
edge $-1 $83 13.0204296804359636 $212 96.59161908449563327 $130 $213 forward 7 unknown #
face $-1 $214 $82 $2 $-1 $215 forward single #
point $-1 -31.31145627158400302 -499.0186296183265995 1000.000000000000568 #
coedge $-1 $100 $210 $85 $140 reversed $162 $-1 #
edge $-1 $104 19.68503937007870164 $141 39.37007874015750275 $85 $216 forward 7 unknown #
vertex $-1 $86 $217 #
straight-curve $-1 176.776695296637115 -176.776695296637115 1000.000000000000568 17.96051224213831787 17.96051224213831787 0 I I #
face $-1 $218 $219 $2 $-1 $220 reversed single #
plane-surface $-1 176.776695296637115 -176.776695296637115 499.9999999999989768 0.7071067811865475727 -0.7071067811865475727 0 0 0 -25.39999999999999858 forward_v I I I I #
coedge $-1 $89 $198 $221 $222 reversed $5 $-1 #
coedge $-1 $223 $224 $89 $147 forward $170 $-1 #
edge $-1 $149 2.608874745334424095 $225 2.879793265790643098 $89 $226 forward 7 unknown #
coedge $-1 $172 $90 $224 $227 reversed $67 $-1 #
vertex $-1 $147 $228 #
straight-curve $-1 430.7149460890478849 253.9382507924105141 375.0000000000011369 0 0 25.39999999999999858 I I #
coedge $-1 $114 $96 $92 $152 reversed $157 $-1 #
edge $-1 $122 -2.608874745334424095 $58 -2.103514235050266024 $92 $229 forward 7 unknown #
point $-1 430.7149460890478849 253.9382507924105141 375.0000000000011369 #
coedge $-1 $230 $100 $95 $155 reversed $162 $-1 #
edge $-1 $158 14.76377952755909995 $102 19.68503937007870164 $95 $231 forward 7 unknown #
coedge $-1 $96 $177 $230 $232 forward $157 $-1 #
loop $-1 $-1 $96 $160 #
vertex $-1 $97 $233 #
straight-curve $-1 88.38834764831842961 -88.38834764831842961 375.0000000000011369 17.96051224213831787 17.96051224213831787 0 I I #
face $-1 $63 $157 $2 $-1 $234 reversed single #
plane-surface $-1 88.38834764831842961 -88.38834764831842961 375.0000000000011369 0.7071067811865475727 -0.7071067811865475727 0 0 0 -25.39999999999999858 forward_v I I I I #
loop $-1 $-1 $154 $235 #
straight-curve $-1 0 -2000.000000000001137 499.9999999999989768 25.39999999999999858 0 0 I I #
point $-1 -1823.223304703364647 -2000.000000000001137 499.9999999999989768 #
point $-1 -1646.446609406725429 -2000.000000000001137 499.9999999999989768 #
face $-1 $236 $237 $2 $-1 $238 reversed single #
loop $-1 $-1 $239 $106 #
plane-surface $-1 265.1650429449545641 265.1650429449545641 669.9999999999996589 0.7071067811865475727 0.7071067811865475727 0 0 0 -25.39999999999999858 forward_v I I I I #
face $-1 $240 $241 $2 $-1 $242 reversed single #
loop $-1 $-1 $224 $108 #
plane-surface $-1 0 0 499.9999999999989768 0 0 -1 -25.39999999999999858 0 0 forward_v I I I I #
coedge $-1 $111 $148 $243 $244 forward $67 $-1 #
edge $-1 $93 19.05995741243808439 $245 106.4341387695350534 $111 $246 forward 7 unknown #
coedge $-1 $113 $112 $247 $248 reversed $38 $-1 #
coedge $-1 $249 $250 $113 $176 reversed $251 $-1 #
edge $-1 $252 -19.68503937007870164 $178 -14.76377952755909995 $113 $253 forward 7 unknown #
coedge $-1 $156 $114 $250 $254 forward $157 $-1 #
vertex $-1 $115 $255 #
straight-curve $-1 -88.38834764831842961 88.38834764831842961 375.0000000000011369 -17.96051224213831787 -17.96051224213831787 0 I I #
coedge $-1 $256 $116 $257 $258 reversed $20 $-1 #
coedge $-1 $259 $260 $116 $182 forward $261 $-1 #
edge $-1 $262 1.832595714594047021 $186 2.103514235050266024 $116 $263 forward 7 unknown #
coedge $-1 $264 $117 $125 $197 reversed $185 $-1 #
coedge $-1 $117 $264 $259 $265 reversed $185 $-1 #
loop $-1 $-1 $184 $266 #
vertex $-1 $118 $267 #
straight-curve $-1 253.9382507924105141 430.7149460890478849 375.0000000000011369 0 0 -25.39999999999999858 I I #
coedge $-1 $119 $268 $269 $270 reversed $20 $-1 #
coedge $-1 $271 $247 $119 $190 forward $219 $-1 #
edge $-1 $191 -0.5327179082553692435 $272 -0.2617993877991502405 $119 $273 forward 7 unknown #
vertex $-1 $190 $274 #
straight-curve $-1 -430.7149460890478849 -253.9382507924105141 375.0000000000011369 0 0 25.39999999999999858 I I #
point $-1 253.9382507924105141 430.7149460890478849 375.0000000000011369 #
point $-1 -430.7149460890478849 -253.9382507924105141 375.0000000000011369 #
coedge $-1 $196 $124 $275 $276 forward $109 $-1 #
coedge $-1 $125 $195 $277 $278 forward $109 $-1 #
edge $-1 $279 -106.4341387695350534 $121 -19.05995741243808439 $125 $280 forward 7 unknown #
coedge $-1 $145 $127 $281 $282 forward $5 $-1 #
coedge $-1 $283 $284 $127 $200 forward $285 $-1 #
edge $-1 $286 -24.60629921259840458 $204 -11.61417322834639876 $127 $287 forward 7 unknown #
coedge $-1 $288 $128 $131 $207 forward $203 $-1 #
coedge $-1 $128 $289 $283 $290 forward $203 $-1 #
loop $-1 $-1 $202 $291 #
vertex $-1 $129 $292 #
ellipse-curve $-1 0 0 669.9999999999996589 0 0 -1 -499.9999999999989768 0 0 1 I I #
coedge $-1 $131 $130 $293 $294 forward $132 $-1 #
edge $-1 $133 13.0204296804359636 $295 96.59161908449563327 $201 $296 forward 7 unknown #
face $-1 $137 $132 $2 $-1 $297 reversed single #
point $-1 -31.31145627158400302 -499.0186296183265995 669.9999999999996589 #
coedge $-1 $139 $293 $135 $211 forward $162 $-1 #
edge $-1 $212 -57.86102024055470139 $141 64.82073265380809346 $135 $298 forward 7 unknown #
vertex $-1 $136 $299 #
straight-curve $-1 -265.1650429449545641 -265.1650429449545641 1000.000000000000568 17.96051224213831787 -17.96051224213831787 0 I I #
face $-1 $300 $301 $2 $-1 $302 forward single #
plane-surface $-1 0 0 1000.000000000000568 0 0 1 25.39999999999999858 0 0 forward_v I I I I #
straight-curve $-1 -1646.446609406725429 -2000.000000000001137 0 0 0 25.39999999999999858 I I #
point $-1 -1646.446609406725429 -2000.000000000001137 1000.000000000000568 #
face $-1 $303 $304 $2 $-1 $305 forward single #
loop $-1 $-1 $247 $143 #
plane-surface $-1 0 0 499.9999999999989768 0 0 -1 -25.39999999999999858 0 0 forward_v I I I I #
coedge $-1 $306 $307 $145 $222 forward $308 $-1 #
edge $-1 $225 4.921259842519599914 $309 24.60629921259840458 $145 $310 forward 7 unknown #
coedge $-1 $311 $146 $307 $312 forward $170 $-1 #
coedge $-1 $146 $311 $148 $227 forward $170 $-1 #
vertex $-1 $222 $313 #
ellipse-curve $-1 0 0 499.9999999999989768 0 0 -1 -499.9999999999989768 0 0 1 I I #
edge $-1 $314 -106.4341387695350534 $149 -19.05995741243808439 $148 $315 forward 7 unknown #
point $-1 430.7149460890478849 253.9382507924105141 499.9999999999989768 #
ellipse-curve $-1 0 0 375.0000000000011369 0 0 1 499.9999999999989768 0 0 1 I I #
coedge $-1 $316 $154 $156 $232 reversed $162 $-1 #
straight-curve $-1 -1823.223304703364647 -2000.000000000001137 0 0 0 25.39999999999999858 I I #
edge $-1 $317 -78.7401574803150055 $158 -71.78044506706160632 $156 $318 forward 7 unknown #
point $-1 -1823.223304703364647 -2000.000000000001137 375.0000000000011369 #
plane-surface $-1 0 0 375.0000000000011369 0 0 -1 -25.39999999999999858 0 0 forward_v I I I I #
face $-1 $319 $162 $2 $-1 $320 forward single #
face $-1 $291 $321 $2 $-1 $322 reversed single #
loop $-1 $-1 $323 $166 #
plane-surface $-1 0 0 669.9999999999996589 0 0 -1 -25.39999999999999858 0 0 forward_v I I I I #
coedge $-1 $324 $325 $326 $327 reversed $167 $-1 #
face $-1 $328 $308 $2 $-1 $329 reversed single #
loop $-1 $-1 $330 $169 #
plane-surface $-1 -176.776695296637115 176.776695296637115 499.9999999999989768 -0.7071067811865475727 0.7071067811865475727 0 0 0 25.39999999999999858 forward_v I I I I #
coedge $-1 $331 $275 $172 $244 reversed $332 $-1 #
edge $-1 $314 -19.68503937007870164 $245 -14.76377952755909995 $172 $333 forward 7 unknown #
vertex $-1 $173 $334 #
straight-curve $-1 88.38834764831842961 -88.38834764831842961 375.0000000000011369 17.96051224213831787 17.96051224213831787 0 I I #
coedge $-1 $189 $335 $174 $248 forward $219 $-1 #
edge $-1 $252 -106.4341387695350534 $191 -19.05995741243808439 $174 $336 forward 7 unknown #
coedge $-1 $337 $175 $335 $338 reversed $251 $-1 #
coedge $-1 $175 $339 $177 $254 reversed $251 $-1 #
loop $-1 $-1 $175 $319 #
vertex $-1 $248 $340 #
straight-curve $-1 -2000.000000000001137 -1823.223304703364647 0 0 0 -25.39999999999999858 I I #
edge $-1 $178 71.78044506706160632 $317 78.7401574803150055 $177 $341 forward 7 unknown #
point $-1 -2000.000000000001137 -1823.223304703364647 375.0000000000011369 #
coedge $-1 $342 $180 $343 $344 forward $20 $-1 #
coedge $-1 $345 $346 $180 $258 forward $347 $-1 #
edge $-1 $348 -24.60629921259840458 $262 -4.921259842519599914 $180 $349 forward 7 unknown #
coedge $-1 $350 $181 $184 $265 forward $261 $-1 #
coedge $-1 $181 $350 $345 $351 forward $261 $-1 #
loop $-1 $-1 $260 $328 #
vertex $-1 $182 $352 #
ellipse-curve $-1 0 0 499.9999999999989768 0 0 -1 -499.9999999999989768 0 0 1 I I #
coedge $-1 $184 $183 $353 $354 forward $185 $-1 #
edge $-1 $186 19.05995741243808439 $355 106.4341387695350534 $259 $356 forward 7 unknown #
face $-1 $98 $185 $2 $-1 $357 reversed single #
point $-1 253.9382507924105141 430.7149460890478849 499.9999999999989768 #
coedge $-1 $188 $358 $359 $360 forward $20 $-1 #
coedge $-1 $361 $330 $188 $270 forward $241 $-1 #
edge $-1 $272 4.921259842519599914 $362 24.60629921259840458 $188 $363 forward 7 unknown #
coedge $-1 $335 $189 $330 $364 forward $219 $-1 #
vertex $-1 $270 $365 #
ellipse-curve $-1 0 0 499.9999999999989768 0 0 -1 -499.9999999999989768 0 0 1 I I #
point $-1 -430.7149460890478849 -253.9382507924105141 499.9999999999989768 #
coedge $-1 $243 $366 $195 $276 reversed $332 $-1 #
edge $-1 $245 71.78044506706160632 $367 78.7401574803150055 $195 $368 forward 7 unknown #
coedge $-1 $369 $353 $196 $278 reversed $370 $-1 #
edge $-1 $367 -78.7401574803150055 $279 -71.78044506706160632 $196 $371 forward 7 unknown #
vertex $-1 $197 $372 #
straight-curve $-1 -88.38834764831842961 88.38834764831842961 375.0000000000011369 -17.96051224213831787 -17.96051224213831787 0 I I #
coedge $-1 $373 $374 $198 $282 reversed $304 $-1 #
edge $-1 $286 0.06266391558403273943 $309 0.2617993877991502405 $198 $375 forward 7 unknown #
coedge $-1 $376 $199 $202 $290 reversed $285 $-1 #
coedge $-1 $199 $376 $373 $377 forward $285 $-1 #
loop $-1 $-1 $284 $378 #
vertex $-1 $200 $379 #
straight-curve $-1 499.0186296183265995 31.31145627158400302 375.0000000000011369 0 0 -25.39999999999999858 I I #
coedge $-1 $289 $201 $380 $381 forward $203 $-1 #
coedge $-1 $202 $288 $382 $383 forward $203 $-1 #
edge $-1 $384 -96.59161908449563327 $204 -13.0204296804359636 $202 $385 forward 7 unknown #
face $-1 $378 $203 $2 $-1 $386 reversed single #
point $-1 499.0186296183265995 31.31145627158400302 669.9999999999996589 #
coedge $-1 $210 $380 $206 $294 reversed $162 $-1 #
edge $-1 $212 -39.37007874015750275 $295 -26.37795275590550048 $206 $387 forward 7 unknown #
vertex $-1 $207 $388 #
straight-curve $-1 -265.1650429449545641 -265.1650429449545641 669.9999999999996589 17.96051224213831787 -17.96051224213831787 0 I I #
plane-surface $-1 -265.1650429449545641 -265.1650429449545641 669.9999999999996589 -0.7071067811865475727 -0.7071067811865475727 0 0 0 25.39999999999999858 forward_v I I I I #
straight-curve $-1 0 -2000.000000000001137 1000.000000000000568 -25.39999999999999858 0 0 I I #
point $-1 1469.669914110089394 -2000.000000000001137 1000.000000000000568 #
face $-1 $87 $347 $2 $-1 $389 reversed single #
loop $-1 $-1 $359 $214 #
plane-surface $-1 0 0 1000.000000000000568 0 0 1 25.39999999999999858 0 0 forward_v I I I I #
face $-1 $235 $390 $2 $-1 $391 forward single #
loop $-1 $-1 $281 $218 #
plane-surface $-1 0 0 1000.000000000000568 0 0 1 25.39999999999999858 0 0 forward_v I I I I #
coedge $-1 $392 $221 $374 $393 forward $308 $-1 #
coedge $-1 $221 $392 $223 $312 reversed $308 $-1 #
loop $-1 $-1 $307 $240 #
vertex $-1 $282 $394 #
straight-curve $-1 482.9629131445329335 129.4095225512604657 375.0000000000011369 0 0 25.39999999999999858 I I #
coedge $-1 $224 $223 $331 $395 forward $170 $-1 #
edge $-1 $225 17.0477441689849698 $396 101.5128789270152936 $223 $397 forward 7 unknown #
point $-1 482.9629131445329335 129.4095225512604657 499.9999999999989768 #
vertex $-1 $227 $398 #
straight-curve $-1 88.38834764831842961 -88.38834764831842961 499.9999999999989768 -17.96051224213831787 -17.96051224213831787 0 I I #
coedge $-1 $399 $230 $339 $400 reversed $162 $-1 #
vertex $-1 $254 $401 #
straight-curve $-1 0 -2000.000000000001137 375.0000000000011369 25.39999999999999858 0 0 I I #
face $-1 $402 $251 $2 $-1 $403 forward single #
plane-surface $-1 0 -2000.000000000001137 0 0 -1 0 0 0 -25.39999999999999858 forward_v I I I I #
loop $-1 $-1 $404 $236 #
plane-surface $-1 -265.1650429449545641 -265.1650429449545641 669.9999999999996589 -0.7071067811865475727 -0.7071067811865475727 0 0 0 25.39999999999999858 forward_v I I I I #
coedge $-1 $405 $406 $407 $408 forward $237 $-1 #
coedge $-1 $409 $239 $342 $410 forward $167 $-1 #
coedge $-1 $239 $409 $411 $412 forward $167 $-1 #
coedge $-1 $413 $405 $239 $327 forward $237 $-1 #
edge $-1 $414 13.0204296804359636 $415 96.59161908449563327 $239 $416 forward 7 unknown #
face $-1 $266 $261 $2 $-1 $417 reversed single #
plane-surface $-1 176.776695296637115 -176.776695296637115 499.9999999999989768 0.7071067811865475727 -0.7071067811865475727 0 0 0 -25.39999999999999858 forward_v I I I I #
coedge $-1 $269 $418 $271 $364 reversed $241 $-1 #
coedge $-1 $419 $243 $311 $395 reversed $332 $-1 #
loop $-1 $-1 $243 $420 #
straight-curve $-1 2000.000000000001137 1823.223304703364647 0 0 0 -25.39999999999999858 I I #
point $-1 2000.000000000001137 1823.223304703364647 375.0000000000011369 #
coedge $-1 $247 $271 $249 $338 forward $219 $-1 #
straight-curve $-1 -88.38834764831842961 88.38834764831842961 499.9999999999989768 17.96051224213831787 17.96051224213831787 0 I I #
coedge $-1 $421 $249 $418 $422 reversed $251 $-1 #
edge $-1 $423 64.82073265380809346 $252 71.78044506706160632 $335 $424 forward 7 unknown #
coedge $-1 $250 $425 $316 $400 forward $251 $-1 #
point $-1 -2000.000000000001137 -1823.223304703364647 499.9999999999989768 #
straight-curve $-1 -2000.000000000001137 0 375.0000000000011369 0 -25.39999999999999858 0 I I #
coedge $-1 $426 $256 $324 $410 reversed $20 $-1 #
coedge $-1 $427 $428 $256 $344 reversed $390 $-1 #
edge $-1 $348 1.308996938995746318 $429 1.508132411210863832 $256 $430 forward 7 unknown #
coedge $-1 $431 $257 $260 $351 reversed $347 $-1 #
coedge $-1 $257 $431 $427 $432 forward $347 $-1 #
loop $-1 $-1 $346 $300 #
vertex $-1 $258 $433 #
straight-curve $-1 129.4095225512604657 482.9629131445329335 375.0000000000011369 0 0 -25.39999999999999858 I I #
coedge $-1 $260 $259 $434 $435 forward $261 $-1 #
edge $-1 $436 -101.5128789270152936 $262 -17.0477441689849698 $260 $437 forward 7 unknown #
point $-1 129.4095225512604657 482.9629131445329335 499.9999999999989768 #
coedge $-1 $277 $434 $264 $354 reversed $370 $-1 #
edge $-1 $279 14.76377952755909995 $355 19.68503937007870164 $264 $438 forward 7 unknown #
vertex $-1 $265 $439 #
straight-curve $-1 -88.38834764831842961 88.38834764831842961 499.9999999999989768 17.96051224213831787 17.96051224213831787 0 I I #
plane-surface $-1 -88.38834764831842961 88.38834764831842961 375.0000000000011369 -0.7071067811865475727 0.7071067811865475727 0 0 0 25.39999999999999858 forward_v I I I I #
coedge $-1 $268 $426 $440 $441 reversed $20 $-1 #
coedge $-1 $442 $443 $268 $360 reversed $301 $-1 #
edge $-1 $444 -3.07892873800576039 $362 -2.879793265790643098 $268 $445 forward 7 unknown #
coedge $-1 $418 $269 $443 $446 forward $241 $-1 #
vertex $-1 $360 $447 #
straight-curve $-1 -482.9629131445329335 -129.4095225512604657 375.0000000000011369 0 0 25.39999999999999858 I I #
edge $-1 $272 17.0477441689849698 $423 101.5128789270152936 $330 $448 forward 7 unknown #
point $-1 -482.9629131445329335 -129.4095225512604657 499.9999999999989768 #
coedge $-1 $275 $449 $369 $450 forward $332 $-1 #
vertex $-1 $276 $451 #
straight-curve $-1 2000.000000000001137 0 375.0000000000011369 0 25.39999999999999858 0 I I #
coedge $-1 $452 $277 $366 $450 reversed $370 $-1 #
loop $-1 $-1 $353 $402 #
straight-curve $-1 0 2000.000000000001137 375.0000000000011369 -25.39999999999999858 0 0 I I #
point $-1 1823.223304703364647 2000.000000000001137 375.0000000000011369 #
coedge $-1 $453 $281 $284 $377 reversed $304 $-1 #
coedge $-1 $281 $453 $306 $393 reversed $304 $-1 #
ellipse-curve $-1 0 0 1000.000000000000568 0 0 1 499.9999999999989768 0 0 1 I I #
coedge $-1 $284 $283 $454 $455 forward $285 $-1 #
edge $-1 $456 -96.59161908449563327 $286 -13.0204296804359636 $284 $457 forward 7 unknown #
face $-1 $208 $285 $2 $-1 $458 reversed single #
point $-1 499.0186296183265995 31.31145627158400302 1000.000000000000568 #
coedge $-1 $293 $459 $288 $381 reversed $162 $-1 #
edge $-1 $295 57.86102024055470139 $460 78.7401574803150055 $288 $461 forward 7 unknown #
coedge $-1 $462 $454 $289 $383 reversed $332 $-1 #
edge $-1 $460 -78.7401574803150055 $384 -57.86102024055470139 $289 $463 forward 7 unknown #
vertex $-1 $290 $464 #
straight-curve $-1 265.1650429449545641 265.1650429449545641 669.9999999999996589 -17.96051224213831787 17.96051224213831787 0 I I #
plane-surface $-1 0 0 669.9999999999996589 0 0 -1 -25.39999999999999858 0 0 forward_v I I I I #
straight-curve $-1 1469.669914110089394 -2000.000000000001137 0 0 0 -25.39999999999999858 I I #
point $-1 1469.669914110089394 -2000.000000000001137 669.9999999999996589 #
plane-surface $-1 -176.776695296637115 176.776695296637115 499.9999999999989768 -0.7071067811865475727 0.7071067811865475727 0 0 0 25.39999999999999858 forward_v I I I I #
loop $-1 $-1 $343 $303 #
plane-surface $-1 0 0 1000.000000000000568 0 0 1 25.39999999999999858 0 0 forward_v I I I I #
coedge $-1 $307 $306 $419 $465 forward $308 $-1 #
edge $-1 $309 17.0477441689849698 $466 101.5128789270152936 $306 $467 forward 7 unknown #
point $-1 482.9629131445329335 129.4095225512604657 1000.000000000000568 #
edge $-1 $396 64.82073265380809346 $314 71.78044506706160632 $311 $468 forward 7 unknown #
vertex $-1 $312 $469 #
straight-curve $-1 176.776695296637115 -176.776695296637115 499.9999999999989768 17.96051224213831787 17.96051224213831787 0 I I #
point $-1 2000.000000000001137 1823.223304703364647 499.9999999999989768 #
coedge $-1 $459 $316 $470 $471 forward $162 $-1 #
edge $-1 $472 0 $317 14.76377952755909995 $316 $473 forward 7 unknown #
point $-1 -2000.000000000001137 -2000.000000000001137 375.0000000000011369 #
face $-1 $474 $370 $2 $-1 $475 forward single #
plane-surface $-1 -2000.000000000001137 0 0 -1 0 0 0 0 25.39999999999999858 forward_v I I I I #
coedge $-1 $440 $476 $442 $477 forward $321 $-1 #
coedge $-1 $326 $323 $426 $478 forward $237 $-1 #
coedge $-1 $323 $413 $479 $480 forward $237 $-1 #
coedge $-1 $476 $440 $323 $408 reversed $321 $-1 #
edge $-1 $481 -96.59161908449563327 $482 -13.0204296804359636 $323 $483 forward 7 unknown #
coedge $-1 $325 $324 $428 $484 forward $167 $-1 #
edge $-1 $414 11.61417322834639876 $429 24.60629921259840458 $342 $485 forward 7 unknown #
coedge $-1 $486 $487 $325 $412 reversed $370 $-1 #
edge $-1 $488 -39.37007874015750275 $415 -26.37795275590550048 $325 $489 forward 7 unknown #
coedge $-1 $406 $326 $487 $490 forward $237 $-1 #
vertex $-1 $410 $491 #
vertex $-1 $327 $492 #
straight-curve $-1 265.1650429449545641 265.1650429449545641 669.9999999999996589 -17.96051224213831787 17.96051224213831787 0 I I #
plane-surface $-1 0 0 499.9999999999989768 0 0 -1 -25.39999999999999858 0 0 forward_v I I I I #
coedge $-1 $330 $361 $337 $422 forward $241 $-1 #
coedge $-1 $493 $331 $392 $465 reversed $332 $-1 #
face $-1 $-1 $332 $2 $-1 $494 forward single #
coedge $-1 $495 $337 $496 $497 forward $251 $-1 #
edge $-1 $498 -39.37007874015750275 $423 -19.68503937007870164 $418 $499 forward 7 unknown #
vertex $-1 $364 $500 #
straight-curve $-1 -2000.000000000001137 0 499.9999999999989768 0 -25.39999999999999858 0 I I #
coedge $-1 $339 $501 $502 $503 forward $251 $-1 #
coedge $-1 $358 $342 $405 $478 reversed $20 $-1 #
coedge $-1 $504 $343 $346 $432 reversed $390 $-1 #
coedge $-1 $343 $504 $409 $484 reversed $390 $-1 #
vertex $-1 $344 $505 #
ellipse-curve $-1 0 0 1000.000000000000568 0 0 1 499.9999999999989768 0 0 1 I I #
coedge $-1 $346 $345 $506 $507 forward $347 $-1 #
edge $-1 $508 -101.5128789270152936 $348 -17.0477441689849698 $346 $509 forward 7 unknown #
point $-1 129.4095225512604657 482.9629131445329335 1000.000000000000568 #
coedge $-1 $353 $506 $350 $435 reversed $370 $-1 #
edge $-1 $355 -71.78044506706160632 $436 -64.82073265380809346 $350 $510 forward 7 unknown #
vertex $-1 $351 $511 #
straight-curve $-1 -176.776695296637115 176.776695296637115 499.9999999999989768 -17.96051224213831787 -17.96051224213831787 0 I I #
straight-curve $-1 1823.223304703364647 2000.000000000001137 0 0 0 25.39999999999999858 I I #
point $-1 1823.223304703364647 2000.000000000001137 499.9999999999989768 #
coedge $-1 $407 $404 $358 $441 forward $321 $-1 #
edge $-1 $444 -24.60629921259840458 $482 -11.61417322834639876 $358 $512 forward 7 unknown #
coedge $-1 $496 $359 $404 $477 reversed $301 $-1 #
coedge $-1 $359 $496 $361 $446 reversed $301 $-1 #
vertex $-1 $441 $513 #
ellipse-curve $-1 0 0 1000.000000000000568 0 0 1 499.9999999999989768 0 0 1 I I #
edge $-1 $362 17.0477441689849698 $498 101.5128789270152936 $361 $514 forward 7 unknown #
point $-1 -482.9629131445329335 -129.4095225512604657 1000.000000000000568 #
straight-curve $-1 -176.776695296637115 176.776695296637115 499.9999999999989768 -17.96051224213831787 -17.96051224213831787 0 I I #
coedge $-1 $366 $462 $515 $516 forward $332 $-1 #
edge $-1 $517 0 $367 14.76377952755909995 $369 $518 forward 7 unknown #
point $-1 2000.000000000001137 2000.000000000001137 375.0000000000011369 #
coedge $-1 $519 $369 $520 $521 forward $370 $-1 #
coedge $-1 $374 $373 $493 $522 reversed $304 $-1 #
coedge $-1 $382 $493 $376 $455 reversed $332 $-1 #
edge $-1 $384 26.37795275590550048 $456 39.37007874015750275 $376 $523 forward 7 unknown #
vertex $-1 $377 $524 #
straight-curve $-1 265.1650429449545641 265.1650429449545641 1000.000000000000568 -17.96051224213831787 17.96051224213831787 0 I I #
plane-surface $-1 265.1650429449545641 265.1650429449545641 669.9999999999996589 0.7071067811865475727 0.7071067811865475727 0 0 0 -25.39999999999999858 forward_v I I I I #
coedge $-1 $380 $399 $462 $525 forward $162 $-1 #
vertex $-1 $381 $526 #
straight-curve $-1 0 -2000.000000000001137 669.9999999999996589 25.39999999999999858 0 0 I I #
coedge $-1 $449 $382 $459 $525 reversed $332 $-1 #
straight-curve $-1 2000.000000000001137 0 669.9999999999996589 0 25.39999999999999858 0 I I #
point $-1 2000.000000000001137 -1469.669914110089394 669.9999999999996589 #
edge $-1 $466 -39.37007874015750275 $396 -19.68503937007870164 $392 $527 forward 7 unknown #
vertex $-1 $393 $528 #
straight-curve $-1 176.776695296637115 -176.776695296637115 1000.000000000000568 17.96051224213831787 17.96051224213831787 0 I I #
straight-curve $-1 2000.000000000001137 0 499.9999999999989768 0 25.39999999999999858 0 I I #
point $-1 2000.000000000001137 1646.446609406725429 499.9999999999989768 #
coedge $-1 $502 $515 $399 $471 reversed $529 $-1 #
edge $-1 $472 -78.7401574803150055 $530 78.7401574803150055 $399 $531 forward 7 unknown #
vertex $-1 $400 $532 #
straight-curve $-1 -2000.000000000001137 -2000.000000000001137 0 0 0 25.39999999999999858 I I #
face $-1 $420 $529 $2 $-1 $533 forward single #
plane-surface $-1 0 2000.000000000001137 0 0 1 0 0 0 25.39999999999999858 forward_v I I I I #
coedge $-1 $404 $407 $495 $534 forward $321 $-1 #
edge $-1 $535 -96.59161908449563327 $444 -13.0204296804359636 $404 $536 forward 7 unknown #
edge $-1 $482 -0.06266391558403273943 $414 1.633460242378929506 $426 $537 forward 7 unknown #
coedge $-1 $501 $495 $406 $480 reversed $251 $-1 #
edge $-1 $538 -78.7401574803150055 $481 -57.86102024055470139 $406 $539 forward 7 unknown #
vertex $-1 $408 $540 #
vertex $-1 $478 $541 #
straight-curve $-1 -265.1650429449545641 -265.1650429449545641 669.9999999999996589 17.96051224213831787 -17.96051224213831787 0 I I #
edge $-1 $429 13.0204296804359636 $488 96.59161908449563327 $409 $542 forward 7 unknown #
straight-curve $-1 31.31145627158400302 499.0186296183265995 375.0000000000011369 0 0 25.39999999999999858 I I #
coedge $-1 $506 $411 $504 $543 forward $370 $-1 #
coedge $-1 $411 $519 $413 $490 reversed $370 $-1 #
vertex $-1 $484 $544 #
straight-curve $-1 -1469.669914110089394 2000.000000000001137 0 0 0 -25.39999999999999858 I I #
edge $-1 $415 57.86102024055470139 $538 78.7401574803150055 $413 $545 forward 7 unknown #
point $-1 31.31145627158400302 499.0186296183265995 669.9999999999996589 #
point $-1 -1469.669914110089394 2000.000000000001137 669.9999999999996589 #
coedge $-1 $454 $419 $453 $522 forward $332 $-1 #
plane-surface $-1 2000.000000000001137 0 0 1 0 0 0 0 -25.39999999999999858 forward_v I I I I #
coedge $-1 $479 $421 $476 $534 reversed $251 $-1 #
coedge $-1 $443 $442 $421 $497 reversed $301 $-1 #
edge $-1 $498 -64.82073265380809346 $535 57.86102024055470139 $496 $546 forward 7 unknown #
vertex $-1 $446 $547 #
straight-curve $-1 -2000.000000000001137 -1646.446609406725429 0 0 0 -25.39999999999999858 I I #
point $-1 -2000.000000000001137 -1646.446609406725429 499.9999999999989768 #
coedge $-1 $425 $479 $519 $548 reversed $251 $-1 #
coedge $-1 $520 $470 $425 $503 reversed $529 $-1 #
edge $-1 $549 -78.7401574803150055 $472 78.7401574803150055 $425 $550 forward 7 unknown #
coedge $-1 $428 $427 $486 $543 reversed $390 $-1 #
point $-1 31.31145627158400302 499.0186296183265995 1000.000000000000568 #
coedge $-1 $434 $486 $431 $507 reversed $370 $-1 #
edge $-1 $436 19.68503937007870164 $508 39.37007874015750275 $431 $551 forward 7 unknown #
vertex $-1 $432 $552 #
straight-curve $-1 -176.776695296637115 176.776695296637115 1000.000000000000568 -17.96051224213831787 -17.96051224213831787 0 I I #
straight-curve $-1 0 2000.000000000001137 499.9999999999989768 -25.39999999999999858 0 0 I I #
point $-1 1646.446609406725429 2000.000000000001137 499.9999999999989768 #
straight-curve $-1 -499.0186296183265995 -31.31145627158400302 375.0000000000011369 0 0 -25.39999999999999858 I I #
point $-1 -499.0186296183265995 -31.31145627158400302 1000.000000000000568 #
straight-curve $-1 -176.776695296637115 176.776695296637115 1000.000000000000568 -17.96051224213831787 -17.96051224213831787 0 I I #
coedge $-1 $470 $520 $449 $516 reversed $529 $-1 #
edge $-1 $530 -78.7401574803150055 $517 78.7401574803150055 $515 $553 forward 7 unknown #
vertex $-1 $450 $554 #
straight-curve $-1 2000.000000000001137 2000.000000000001137 0 0 0 25.39999999999999858 I I #
coedge $-1 $487 $452 $501 $548 forward $370 $-1 #
coedge $-1 $515 $502 $452 $521 reversed $529 $-1 #
edge $-1 $517 -78.7401574803150055 $549 78.7401574803150055 $452 $555 forward 7 unknown #
edge $-1 $466 -64.82073265380809346 $456 57.86102024055470139 $453 $556 forward 7 unknown #
straight-curve $-1 2000.000000000001137 -1469.669914110089394 0 0 0 25.39999999999999858 I I #
point $-1 2000.000000000001137 -1469.669914110089394 1000.000000000000568 #
edge $-1 $530 0 $460 26.37795275590550048 $459 $557 forward 7 unknown #
point $-1 2000.000000000001137 -2000.000000000001137 669.9999999999996589 #
straight-curve $-1 2000.000000000001137 1646.446609406725429 0 0 0 -25.39999999999999858 I I #
point $-1 2000.000000000001137 1646.446609406725429 1000.000000000000568 #
loop $-1 $-1 $515 $474 #
vertex $-1 $471 $558 #
straight-curve $-1 0 -2000.000000000001137 0 25.39999999999999858 0 0 I I #
point $-1 -2000.000000000001137 -2000.000000000001137 0 #
plane-surface $-1 0 0 0 0 0 -1 -25.39999999999999858 0 0 forward_v I I I I #
edge $-1 $481 26.37795275590550048 $535 39.37007874015750275 $476 $559 forward 7 unknown #
vertex $-1 $477 $560 #
straight-curve $-1 -265.1650429449545641 -265.1650429449545641 1000.000000000000568 17.96051224213831787 -17.96051224213831787 0 I I #
ellipse-curve $-1 0 0 669.9999999999996589 0 0 -1 -499.9999999999989768 0 0 1 I I #
vertex $-1 $490 $561 #
straight-curve $-1 -2000.000000000001137 0 669.9999999999996589 0 -25.39999999999999858 0 I I #
point $-1 -2000.000000000001137 1469.669914110089394 669.9999999999996589 #
point $-1 -499.0186296183265995 -31.31145627158400302 669.9999999999996589 #
straight-curve $-1 265.1650429449545641 265.1650429449545641 1000.000000000000568 -17.96051224213831787 17.96051224213831787 0 I I #
edge $-1 $488 -57.86102024055470139 $508 64.82073265380809346 $504 $562 forward 7 unknown #
point $-1 -1469.669914110089394 2000.000000000001137 1000.000000000000568 #
straight-curve $-1 0 2000.000000000001137 669.9999999999996589 -25.39999999999999858 0 0 I I #
straight-curve $-1 -2000.000000000001137 0 1000.000000000000568 0 25.39999999999999858 0 I I #
point $-1 -2000.000000000001137 -1646.446609406725429 1000.000000000000568 #
edge $-1 $549 0 $538 26.37795275590550048 $501 $563 forward 7 unknown #
vertex $-1 $548 $564 #
straight-curve $-1 -2000.000000000001137 0 0 0 -25.39999999999999858 0 I I #
straight-curve $-1 1646.446609406725429 2000.000000000001137 0 0 0 25.39999999999999858 I I #
point $-1 1646.446609406725429 2000.000000000001137 1000.000000000000568 #
straight-curve $-1 2000.000000000001137 0 0 0 25.39999999999999858 0 I I #
point $-1 2000.000000000001137 2000.000000000001137 0 #
straight-curve $-1 0 2000.000000000001137 0 -25.39999999999999858 0 0 I I #
straight-curve $-1 2000.000000000001137 0 1000.000000000000568 0 -25.39999999999999858 0 I I #
straight-curve $-1 2000.000000000001137 -2000.000000000001137 0 0 0 25.39999999999999858 I I #
point $-1 2000.000000000001137 -2000.000000000001137 0 #
straight-curve $-1 -2000.000000000001137 1469.669914110089394 0 0 0 25.39999999999999858 I I #
point $-1 -2000.000000000001137 1469.669914110089394 1000.000000000000568 #
point $-1 -2000.000000000001137 2000.000000000001137 669.9999999999996589 #
straight-curve $-1 0 2000.000000000001137 1000.000000000000568 25.39999999999999858 0 0 I I #
straight-curve $-1 -2000.000000000001137 2000.000000000001137 0 0 0 25.39999999999999858 I I #
point $-1 -2000.000000000001137 2000.000000000001137 0 #
End-of-ACIS-data 