105 565 1 0                             
body $-1 $1 $-1 $-1 #
lump $-1 $-1 $2 $0 #
shell $-1 $-1 $-1 $3 $1 #
face $-1 $4 $5 $2 $-1 $6 reversed single #
face $-1 $7 $8 $2 $-1 $9 reversed single #
loop $-1 $-1 $10 $3 #
cone-surface $-1 0 0 14.7637795275591 0 0 1 19.6850393700787 0 0 1 0 1 0 #
face $-1 $11 $12 $2 $-1 $13 reversed single #
loop $-1 $-1 $14 $4 #
plane-surface $-1 0 0 4.92125984251969 0 0 -1 -1 0 0 0 #
coedge $-1 $15 $16 $17 $18 1 $5 $-1 #
face $-1 $19 $20 $2 $-1 $21 reversed single #
loop $-1 $22 $23 $7 #
cone-surface $-1 0 0 4.92125984251969 0 0 1 4.92125984251969 0 0 1 0.832050294337844 0.554700196225229 0 #
coedge $-1 $14 $14 $23 $24 0 $8 $-1 #
coedge $-1 $25 $10 $26 $27 1 $5 $-1 #
coedge $-1 $10 $28 $29 $30 1 $5 $-1 #
coedge $-1 $31 $32 $10 $18 0 $33 $-1 #
edge $-1 $34 $35 $10 $36 0 #
face $-1 $37 $38 $2 $-1 $39 reversed single #
loop $-1 $-1 $40 $11 #
cone-surface $-1 0 0 14.7637795275591 0 0 1 19.6850393700787 0 0 1 0 1 0 #
loop $-1 $-1 $41 $7 #
coedge $-1 $23 $23 $14 $24 1 $12 $-1 #
edge $-1 $42 $42 $14 $43 0 #
coedge $-1 $44 $15 $45 $46 0 $5 $-1 #
coedge $-1 $47 $48 $15 $27 0 $49 $-1 #
edge $-1 $50 $34 $15 $51 0 #
coedge $-1 $16 $52 $53 $54 1 $5 $-1 #
coedge $-1 $55 $56 $16 $30 0 $57 $-1 #
edge $-1 $35 $58 $16 $59 0 #
coedge $-1 $60 $17 $56 $61 0 $33 $-1 #
coedge $-1 $17 $60 $47 $62 0 $33 $-1 #
loop $-1 $-1 $32 $63 #
vertex $-1 $18 $64 #
vertex $-1 $18 $65 #
ellipse-curve $-1 0 0 19.6850393700787 0 0 -1 -7.6159828712137 -18.1520681991592 0 1 #
face $-1 $66 $67 $2 $-1 $68 reversed single #
loop $-1 $-1 $69 $19 #
plane-surface $-1 -3.47985620662671 3.47985620662671 14.7637795275591 -0.707106781186548 0.707106781186548 0 0 -0 1 0 #
coedge $-1 $70 $71 $72 $73 1 $20 $-1 #
coedge $-1 $72 $53 $74 $75 0 $22 $-1 #
vertex $-1 $24 $76 #
ellipse-curve $-1 0 0 4.92125984251969 0 0 1 4.92125984251969 0 0 1 #
coedge $-1 $77 $25 $78 $79 1 $5 $-1 #
coedge $-1 $80 $81 $25 $46 1 $82 $-1 #
edge $-1 $50 $83 $25 $84 0 #
coedge $-1 $85 $26 $32 $62 1 $49 $-1 #
coedge $-1 $26 $85 $80 $86 0 $49 $-1 #
loop $-1 $-1 $48 $87 #
vertex $-1 $27 $88 #
straight-curve $-1 -5.09486309256931 -19.0142879190761 14.7637795275591 0 0 -1 #
coedge $-1 $28 $89 $90 $91 1 $5 $-1 #
coedge $-1 $41 $92 $28 $54 0 $22 $-1 #
edge $-1 $58 $93 $28 $94 0 #
coedge $-1 $95 $29 $96 $97 1 $57 $-1 #
coedge $-1 $29 $95 $31 $61 1 $57 $-1 #
loop $-1 $-1 $56 $98 #
vertex $-1 $54 $99 #
straight-curve $-1 -9.99756892883506 -16.9572813420885 14.7637795275591 0 0 -1 #
coedge $-1 $32 $31 $100 $101 0 $33 $-1 #
edge $-1 $35 $102 $56 $103 0 #
edge $-1 $104 $34 $32 $105 0 #
face $-1 $106 $33 $2 $-1 $107 reversed single #
point $-1 -5.09486309256931 -19.0142879190761 19.6850393700787 #
point $-1 -9.99756892883506 -16.9572813420885 19.6850393700787 #
face $-1 $108 $109 $2 $-1 $110 reversed single #
loop $-1 $-1 $111 $37 #
plane-surface $-1 3.47985620662671 -3.47985620662671 14.7637795275591 0.707106781186548 -0.707106781186548 0 0 0 -1 0 #
coedge $-1 $112 $113 $114 $115 1 $38 $-1 #
coedge $-1 $116 $40 $117 $118 1 $20 $-1 #
coedge $-1 $40 $119 $112 $120 1 $20 $-1 #
coedge $-1 $92 $41 $40 $73 0 $22 $-1 #
edge $-1 $121 $122 $72 $123 0 #
coedge $-1 $124 $125 $41 $75 1 $109 $-1 #
edge $-1 $93 $121 $41 $126 0 #
point $-1 4.92125984251969 0 4.92125984251969 #
coedge $-1 $127 $44 $128 $129 1 $5 $-1 #
coedge $-1 $130 $131 $44 $79 0 $132 $-1 #
edge $-1 $133 $83 $44 $134 0 #
coedge $-1 $135 $45 $48 $86 1 $82 $-1 #
coedge $-1 $45 $135 $130 $136 1 $82 $-1 #
loop $-1 $-1 $45 $137 #
vertex $-1 $46 $138 #
ellipse-curve $-1 0 0 39.3700787401575 0 0 1 -3.17954636808751 -19.4265606810555 0 1 #
coedge $-1 $48 $47 $139 $140 0 $49 $-1 #
edge $-1 $141 $50 $80 $142 0 #
face $-1 $143 $49 $2 $-1 $144 reversed single #
point $-1 -5.09486309256931 -19.0142879190761 39.3700787401575 #
coedge $-1 $52 $145 $146 $147 1 $5 $-1 #
coedge $-1 $148 $111 $52 $91 0 $67 $-1 #
edge $-1 $93 $149 $52 $150 0 #
coedge $-1 $53 $72 $151 $152 0 $22 $-1 #
vertex $-1 $91 $153 #
ellipse-curve $-1 0 0 14.7637795275591 0 0 1 13.9194248265068 -13.9194248265068 0 1 #
coedge $-1 $56 $55 $154 $155 0 $57 $-1 #
coedge $-1 $151 $156 $55 $97 0 $157 $-1 #
edge $-1 $158 $58 $55 $159 0 #
face $-1 $160 $57 $2 $-1 $161 reversed single #
point $-1 -9.99756892883506 -16.9572813420885 14.7637795275591 #
coedge $-1 $154 $139 $60 $101 1 $162 $-1 #
edge $-1 $102 $104 $60 $163 0 #
vertex $-1 $61 $164 #
straight-curve $-1 3.47985620662671 -3.47985620662671 19.6850393700787 -0.707106781186548 -0.707106781186548 0 #
vertex $-1 $62 $165 #
straight-curve $-1 6.95971241325343 -6.95971241325343 19.6850393700787 0.707106781186548 0.707106781186548 0 #
face $-1 $166 $167 $2 $-1 $168 reversed single #
plane-surface $-1 0 0 19.6850393700787 0 0 -1 -1 0 0 0 #
face $-1 $169 $170 $2 $-1 $171 reversed single #
loop $-1 $-1 $125 $66 #
plane-surface $-1 0 0 14.7637795275591 0 0 -1 -1 0 0 0 #
coedge $-1 $90 $172 $124 $173 1 $67 $-1 #
coedge $-1 $174 $69 $71 $120 0 $38 $-1 #
coedge $-1 $69 $174 $175 $176 0 $38 $-1 #
coedge $-1 $177 $151 $69 $115 0 $157 $-1 #
edge $-1 $122 $178 $69 $179 0 #
coedge $-1 $180 $70 $181 $182 1 $20 $-1 #
coedge $-1 $183 $184 $70 $118 0 $185 $-1 #
edge $-1 $186 $121 $70 $187 0 #
coedge $-1 $71 $188 $189 $190 1 $20 $-1 #
edge $-1 $122 $191 $71 $192 0 #
vertex $-1 $75 $193 #
vertex $-1 $73 $194 #
ellipse-curve $-1 0 0 14.7637795275591 0 0 1 -13.9194248265068 13.9194248265068 0 1 #
coedge $-1 $195 $74 $111 $173 0 $109 $-1 #
coedge $-1 $74 $196 $183 $197 0 $109 $-1 #
ellipse-curve $-1 0 0 14.7637795275591 0 0 1 13.9194248265068 13.9194248265068 0 1 #
coedge $-1 $198 $77 $199 $200 1 $5 $-1 #
coedge $-1 $201 $202 $77 $129 0 $203 $-1 #
edge $-1 $204 $133 $77 $205 0 #
coedge $-1 $206 $78 $81 $136 0 $132 $-1 #
coedge $-1 $78 $206 $201 $207 1 $132 $-1 #
loop $-1 $-1 $131 $208 #
vertex $-1 $79 $209 #
straight-curve $-1 -1.23273449888126 -19.646402740879 14.7637795275591 0 0 1 #
coedge $-1 $81 $80 $210 $211 1 $82 $-1 #
edge $-1 $83 $212 $130 $213 0 #
face $-1 $214 $82 $2 $-1 $215 forward single #
point $-1 -1.23273449888126 -19.646402740879 39.3700787401575 #
coedge $-1 $100 $210 $85 $140 1 $162 $-1 #
edge $-1 $104 $141 $85 $216 0 #
vertex $-1 $86 $217 #
straight-curve $-1 6.95971241325343 -6.95971241325343 39.3700787401575 0.707106781186548 0.707106781186548 0 #
face $-1 $218 $219 $2 $-1 $220 reversed single #
plane-surface $-1 6.95971241325343 -6.95971241325343 19.6850393700787 0.707106781186548 -0.707106781186548 0 0 0 -1 0 #
coedge $-1 $89 $198 $221 $222 1 $5 $-1 #
coedge $-1 $223 $224 $89 $147 0 $170 $-1 #
edge $-1 $149 $225 $89 $226 0 #
coedge $-1 $172 $90 $224 $227 1 $67 $-1 #
vertex $-1 $147 $228 #
straight-curve $-1 16.9572813420885 9.99756892883506 14.7637795275591 0 0 1 #
coedge $-1 $114 $96 $92 $152 1 $157 $-1 #
edge $-1 $122 $58 $92 $229 0 #
point $-1 16.9572813420885 9.99756892883506 14.7637795275591 #
coedge $-1 $230 $100 $95 $155 1 $162 $-1 #
edge $-1 $158 $102 $95 $231 0 #
coedge $-1 $96 $177 $230 $232 0 $157 $-1 #
loop $-1 $-1 $96 $160 #
vertex $-1 $97 $233 #
straight-curve $-1 3.47985620662671 -3.47985620662671 14.7637795275591 0.707106781186548 0.707106781186548 0 #
face $-1 $63 $157 $2 $-1 $234 reversed single #
plane-surface $-1 3.47985620662671 -3.47985620662671 14.7637795275591 0.707106781186548 -0.707106781186548 0 0 0 -1 0 #
loop $-1 $-1 $154 $235 #
straight-curve $-1 0 -78.740157480315 19.6850393700787 1 0 0 #
point $-1 -71.7804450670616 -78.740157480315 19.6850393700787 #
point $-1 -64.8207326538081 -78.740157480315 19.6850393700787 #
face $-1 $236 $237 $2 $-1 $238 reversed single #
loop $-1 $-1 $239 $106 #
plane-surface $-1 10.4395686198801 10.4395686198801 26.3779527559055 0.707106781186548 0.707106781186548 0 0 0 -1 0 #
face $-1 $240 $241 $2 $-1 $242 reversed single #
loop $-1 $-1 $224 $108 #
plane-surface $-1 0 0 19.6850393700787 0 0 -1 -1 0 0 0 #
coedge $-1 $111 $148 $243 $244 0 $67 $-1 #
edge $-1 $93 $245 $111 $246 0 #
coedge $-1 $113 $112 $247 $248 1 $38 $-1 #
coedge $-1 $249 $250 $113 $176 1 $251 $-1 #
edge $-1 $252 $178 $113 $253 0 #
coedge $-1 $156 $114 $250 $254 0 $157 $-1 #
vertex $-1 $115 $255 #
straight-curve $-1 -3.47985620662671 3.47985620662671 14.7637795275591 -0.707106781186548 -0.707106781186548 0 #
coedge $-1 $256 $116 $257 $258 1 $20 $-1 #
coedge $-1 $259 $260 $116 $182 0 $261 $-1 #
edge $-1 $262 $186 $116 $263 0 #
coedge $-1 $264 $117 $125 $197 1 $185 $-1 #
coedge $-1 $117 $264 $259 $265 1 $185 $-1 #
loop $-1 $-1 $184 $266 #
vertex $-1 $118 $267 #
straight-curve $-1 9.99756892883506 16.9572813420885 14.7637795275591 0 0 -1 #
coedge $-1 $119 $268 $269 $270 1 $20 $-1 #
coedge $-1 $271 $247 $119 $190 0 $219 $-1 #
edge $-1 $191 $272 $119 $273 0 #
vertex $-1 $190 $274 #
straight-curve $-1 -16.9572813420885 -9.99756892883506 14.7637795275591 0 0 1 #
point $-1 9.99756892883506 16.9572813420885 14.7637795275591 #
point $-1 -16.9572813420885 -9.99756892883506 14.7637795275591 #
coedge $-1 $196 $124 $275 $276 0 $109 $-1 #
coedge $-1 $125 $195 $277 $278 0 $109 $-1 #
edge $-1 $279 $121 $125 $280 0 #
coedge $-1 $145 $127 $281 $282 0 $5 $-1 #
coedge $-1 $283 $284 $127 $200 0 $285 $-1 #
edge $-1 $286 $204 $127 $287 0 #
coedge $-1 $288 $128 $131 $207 0 $203 $-1 #
coedge $-1 $128 $289 $283 $290 0 $203 $-1 #
loop $-1 $-1 $202 $291 #
vertex $-1 $129 $292 #
ellipse-curve $-1 0 0 26.3779527559055 0 0 -1 13.9194248265068 -13.9194248265068 0 1 #
coedge $-1 $131 $130 $293 $294 0 $132 $-1 #
edge $-1 $133 $295 $201 $296 0 #
face $-1 $137 $132 $2 $-1 $297 reversed single #
point $-1 -1.23273449888126 -19.646402740879 26.3779527559055 #
coedge $-1 $139 $293 $135 $211 0 $162 $-1 #
edge $-1 $212 $141 $135 $298 0 #
vertex $-1 $136 $299 #
straight-curve $-1 -10.4395686198801 -10.4395686198801 39.3700787401575 0.707106781186548 -0.707106781186548 0 #
face $-1 $300 $301 $2 $-1 $302 forward single #
plane-surface $-1 0 0 39.3700787401575 0 0 1 1 0 0 0 #
straight-curve $-1 -64.8207326538081 -78.740157480315 0 0 0 1 #
point $-1 -64.8207326538081 -78.740157480315 39.3700787401575 #
face $-1 $303 $304 $2 $-1 $305 forward single #
loop $-1 $-1 $247 $143 #
plane-surface $-1 0 0 19.6850393700787 0 0 -1 -1 0 0 0 #
coedge $-1 $306 $307 $145 $222 0 $308 $-1 #
edge $-1 $225 $309 $145 $310 0 #
coedge $-1 $311 $146 $307 $312 0 $170 $-1 #
coedge $-1 $146 $311 $148 $227 0 $170 $-1 #
vertex $-1 $222 $313 #
ellipse-curve $-1 0 0 19.6850393700787 0 0 -1 18.1520681991592 7.61598287121369 0 1 #
edge $-1 $314 $149 $148 $315 0 #
point $-1 16.9572813420885 9.99756892883506 19.6850393700787 #
ellipse-curve $-1 0 0 14.7637795275591 0 0 1 -13.9194248265068 -13.9194248265068 0 1 #
coedge $-1 $316 $154 $156 $232 1 $162 $-1 #
straight-curve $-1 -71.7804450670616 -78.740157480315 0 0 0 1 #
edge $-1 $317 $158 $156 $318 0 #
point $-1 -71.7804450670616 -78.740157480315 14.7637795275591 #
plane-surface $-1 0 0 14.7637795275591 0 0 -1 -1 0 0 0 #
face $-1 $319 $162 $2 $-1 $320 forward single #
face $-1 $291 $321 $2 $-1 $322 reversed single #
loop $-1 $-1 $323 $166 #
plane-surface $-1 0 0 26.3779527559055 0 0 -1 -1 0 0 0 #
coedge $-1 $324 $325 $326 $327 1 $167 $-1 #
face $-1 $328 $308 $2 $-1 $329 reversed single #
loop $-1 $-1 $330 $169 #
plane-surface $-1 -6.95971241325343 6.95971241325343 19.6850393700787 -0.707106781186548 0.707106781186548 0 0 -0 1 0 #
coedge $-1 $331 $275 $172 $244 1 $332 $-1 #
edge $-1 $314 $245 $172 $333 0 #
vertex $-1 $173 $334 #
straight-curve $-1 3.47985620662671 -3.47985620662671 14.7637795275591 0.707106781186548 0.707106781186548 0 #
coedge $-1 $189 $335 $174 $248 0 $219 $-1 #
edge $-1 $252 $191 $174 $336 0 #
coedge $-1 $337 $175 $335 $338 1 $251 $-1 #
coedge $-1 $175 $339 $177 $254 1 $251 $-1 #
loop $-1 $-1 $175 $319 #
vertex $-1 $248 $340 #
straight-curve $-1 -78.740157480315 -71.7804450670616 0 0 0 -1 #
edge $-1 $178 $317 $177 $341 0 #
point $-1 -78.740157480315 -71.7804450670616 14.7637795275591 #
coedge $-1 $342 $180 $343 $344 0 $20 $-1 #
coedge $-1 $345 $346 $180 $258 0 $347 $-1 #
edge $-1 $348 $262 $180 $349 0 #
coedge $-1 $350 $181 $184 $265 0 $261 $-1 #
coedge $-1 $181 $350 $345 $351 0 $261 $-1 #
loop $-1 $-1 $260 $328 #
vertex $-1 $182 $352 #
ellipse-curve $-1 0 0 19.6850393700787 0 0 -1 7.6159828712137 18.1520681991592 0 1 #
coedge $-1 $184 $183 $353 $354 0 $185 $-1 #
edge $-1 $186 $355 $259 $356 0 #
face $-1 $98 $185 $2 $-1 $357 reversed single #
point $-1 9.99756892883506 16.9572813420885 19.6850393700787 #
coedge $-1 $188 $358 $359 $360 0 $20 $-1 #
coedge $-1 $361 $330 $188 $270 0 $241 $-1 #
edge $-1 $272 $362 $188 $363 0 #
coedge $-1 $335 $189 $330 $364 0 $219 $-1 #
vertex $-1 $270 $365 #
ellipse-curve $-1 0 0 19.6850393700787 0 0 -1 -18.1520681991592 -7.61598287121369 0 1 #
point $-1 -16.9572813420885 -9.99756892883506 19.6850393700787 #
coedge $-1 $243 $366 $195 $276 1 $332 $-1 #
edge $-1 $245 $367 $195 $368 0 #
coedge $-1 $369 $353 $196 $278 1 $370 $-1 #
edge $-1 $367 $279 $196 $371 0 #
vertex $-1 $197 $372 #
straight-curve $-1 -3.47985620662671 3.47985620662671 14.7637795275591 -0.707106781186548 -0.707106781186548 0 #
coedge $-1 $373 $374 $198 $282 1 $304 $-1 #
edge $-1 $286 $309 $198 $375 0 #
coedge $-1 $376 $199 $202 $290 1 $285 $-1 #
coedge $-1 $199 $376 $373 $377 0 $285 $-1 #
loop $-1 $-1 $284 $378 #
vertex $-1 $200 $379 #
straight-curve $-1 19.646402740879 1.23273449888126 14.7637795275591 0 0 -1 #
coedge $-1 $289 $201 $380 $381 0 $203 $-1 #
coedge $-1 $202 $288 $382 $383 0 $203 $-1 #
edge $-1 $384 $204 $202 $385 0 #
face $-1 $378 $203 $2 $-1 $386 reversed single #
point $-1 19.646402740879 1.23273449888126 26.3779527559055 #
coedge $-1 $210 $380 $206 $294 1 $162 $-1 #
edge $-1 $212 $295 $206 $387 0 #
vertex $-1 $207 $388 #
straight-curve $-1 -10.4395686198801 -10.4395686198801 26.3779527559055 0.707106781186548 -0.707106781186548 0 #
plane-surface $-1 -10.4395686198801 -10.4395686198801 26.3779527559055 -0.707106781186548 -0.707106781186548 0 0 -0 1 0 #
straight-curve $-1 0 -78.740157480315 39.3700787401575 -1 0 0 #
point $-1 57.8610202405547 -78.740157480315 39.3700787401575 #
face $-1 $87 $347 $2 $-1 $389 reversed single #
loop $-1 $-1 $359 $214 #
plane-surface $-1 0 0 39.3700787401575 0 0 1 1 0 0 0 #
face $-1 $235 $390 $2 $-1 $391 forward single #
loop $-1 $-1 $281 $218 #
plane-surface $-1 0 0 39.3700787401575 0 0 1 1 0 0 0 #
coedge $-1 $392 $221 $374 $393 0 $308 $-1 #
coedge $-1 $221 $392 $223 $312 1 $308 $-1 #
loop $-1 $-1 $307 $240 #
vertex $-1 $282 $394 #
straight-curve $-1 19.0142879190761 5.09486309256931 14.7637795275591 0 0 1 #
coedge $-1 $224 $223 $331 $395 0 $170 $-1 #
edge $-1 $225 $396 $223 $397 0 #
point $-1 19.0142879190761 5.09486309256931 19.6850393700787 #
vertex $-1 $227 $398 #
straight-curve $-1 3.47985620662671 -3.47985620662671 19.6850393700787 -0.707106781186548 -0.707106781186548 0 #
coedge $-1 $399 $230 $339 $400 1 $162 $-1 #
vertex $-1 $254 $401 #
straight-curve $-1 0 -78.740157480315 14.7637795275591 1 0 0 #
face $-1 $402 $251 $2 $-1 $403 forward single #
plane-surface $-1 0 -78.740157480315 0 0 -1 0 0 0 -1 0 #
loop $-1 $-1 $404 $236 #
plane-surface $-1 -10.4395686198801 -10.4395686198801 26.3779527559055 -0.707106781186548 -0.707106781186548 0 0 -0 1 0 #
coedge $-1 $405 $406 $407 $408 0 $237 $-1 #
coedge $-1 $409 $239 $342 $410 0 $167 $-1 #
coedge $-1 $239 $409 $411 $412 0 $167 $-1 #
coedge $-1 $413 $405 $239 $327 0 $237 $-1 #
edge $-1 $414 $415 $239 $416 0 #
face $-1 $266 $261 $2 $-1 $417 reversed single #
plane-surface $-1 6.95971241325343 -6.95971241325343 19.6850393700787 0.707106781186548 -0.707106781186548 0 0 0 -1 0 #
coedge $-1 $269 $418 $271 $364 1 $241 $-1 #
coedge $-1 $419 $243 $311 $395 1 $332 $-1 #
loop $-1 $-1 $243 $420 #
straight-curve $-1 78.740157480315 71.7804450670616 0 0 0 -1 #
point $-1 78.740157480315 71.7804450670616 14.7637795275591 #
coedge $-1 $247 $271 $249 $338 0 $219 $-1 #
straight-curve $-1 -3.47985620662671 3.47985620662671 19.6850393700787 0.707106781186548 0.707106781186548 0 #
coedge $-1 $421 $249 $418 $422 1 $251 $-1 #
edge $-1 $423 $252 $335 $424 0 #
coedge $-1 $250 $425 $316 $400 0 $251 $-1 #
point $-1 -78.740157480315 -71.7804450670616 19.6850393700787 #
straight-curve $-1 -78.740157480315 0 14.7637795275591 0 -1 0 #
coedge $-1 $426 $256 $324 $410 1 $20 $-1 #
coedge $-1 $427 $428 $256 $344 1 $390 $-1 #
edge $-1 $348 $429 $256 $430 0 #
coedge $-1 $431 $257 $260 $351 1 $347 $-1 #
coedge $-1 $257 $431 $427 $432 0 $347 $-1 #
loop $-1 $-1 $346 $300 #
vertex $-1 $258 $433 #
straight-curve $-1 5.09486309256931 19.0142879190761 14.7637795275591 0 0 -1 #
coedge $-1 $260 $259 $434 $435 0 $261 $-1 #
edge $-1 $436 $262 $260 $437 0 #
point $-1 5.09486309256931 19.0142879190761 19.6850393700787 #
coedge $-1 $277 $434 $264 $354 1 $370 $-1 #
edge $-1 $279 $355 $264 $438 0 #
vertex $-1 $265 $439 #
straight-curve $-1 -3.47985620662671 3.47985620662671 19.6850393700787 0.707106781186548 0.707106781186548 0 #
plane-surface $-1 -3.47985620662671 3.47985620662671 14.7637795275591 -0.707106781186548 0.707106781186548 0 0 -0 1 0 #
coedge $-1 $268 $426 $440 $441 1 $20 $-1 #
coedge $-1 $442 $443 $268 $360 1 $301 $-1 #
edge $-1 $444 $362 $268 $445 0 #
coedge $-1 $418 $269 $443 $446 0 $241 $-1 #
vertex $-1 $360 $447 #
straight-curve $-1 -19.0142879190761 -5.09486309256931 14.7637795275591 0 0 1 #
edge $-1 $272 $423 $330 $448 0 #
point $-1 -19.0142879190761 -5.09486309256931 19.6850393700787 #
coedge $-1 $275 $449 $369 $450 0 $332 $-1 #
vertex $-1 $276 $451 #
straight-curve $-1 78.740157480315 0 14.7637795275591 0 1 0 #
coedge $-1 $452 $277 $366 $450 1 $370 $-1 #
loop $-1 $-1 $353 $402 #
straight-curve $-1 0 78.740157480315 14.7637795275591 -1 0 0 #
point $-1 71.7804450670616 78.740157480315 14.7637795275591 #
coedge $-1 $453 $281 $284 $377 1 $304 $-1 #
coedge $-1 $281 $453 $306 $393 1 $304 $-1 #
ellipse-curve $-1 0 0 39.3700787401575 0 0 1 19.4265606810555 3.17954636808751 0 1 #
coedge $-1 $284 $283 $454 $455 0 $285 $-1 #
edge $-1 $456 $286 $284 $457 0 #
face $-1 $208 $285 $2 $-1 $458 reversed single #
point $-1 19.646402740879 1.23273449888126 39.3700787401575 #
coedge $-1 $293 $459 $288 $381 1 $162 $-1 #
edge $-1 $295 $460 $288 $461 0 #
coedge $-1 $462 $454 $289 $383 1 $332 $-1 #
edge $-1 $460 $384 $289 $463 0 #
vertex $-1 $290 $464 #
straight-curve $-1 10.4395686198801 10.4395686198801 26.3779527559055 -0.707106781186548 0.707106781186548 0 #
plane-surface $-1 0 0 26.3779527559055 0 0 -1 -1 0 0 0 #
straight-curve $-1 57.8610202405547 -78.740157480315 0 0 0 -1 #
point $-1 57.8610202405547 -78.740157480315 26.3779527559055 #
plane-surface $-1 -6.95971241325343 6.95971241325343 19.6850393700787 -0.707106781186548 0.707106781186548 0 0 -0 1 0 #
loop $-1 $-1 $343 $303 #
plane-surface $-1 0 0 39.3700787401575 0 0 1 1 0 0 0 #
coedge $-1 $307 $306 $419 $465 0 $308 $-1 #
edge $-1 $309 $466 $306 $467 0 #
point $-1 19.0142879190761 5.09486309256931 39.3700787401575 #
edge $-1 $396 $314 $311 $468 0 #
vertex $-1 $312 $469 #
straight-curve $-1 6.95971241325343 -6.95971241325343 19.6850393700787 0.707106781186548 0.707106781186548 0 #
point $-1 78.740157480315 71.7804450670616 19.6850393700787 #
coedge $-1 $459 $316 $470 $471 0 $162 $-1 #
edge $-1 $472 $317 $316 $473 0 #
point $-1 -78.740157480315 -78.740157480315 14.7637795275591 #
face $-1 $474 $370 $2 $-1 $475 forward single #
plane-surface $-1 -78.740157480315 0 0 -1 0 0 0 -0 1 0 #
coedge $-1 $440 $476 $442 $477 0 $321 $-1 #
coedge $-1 $326 $323 $426 $478 0 $237 $-1 #
coedge $-1 $323 $413 $479 $480 0 $237 $-1 #
coedge $-1 $476 $440 $323 $408 1 $321 $-1 #
edge $-1 $481 $482 $323 $483 0 #
coedge $-1 $325 $324 $428 $484 0 $167 $-1 #
edge $-1 $414 $429 $342 $485 0 #
coedge $-1 $486 $487 $325 $412 1 $370 $-1 #
edge $-1 $488 $415 $325 $489 0 #
coedge $-1 $406 $326 $487 $490 0 $237 $-1 #
vertex $-1 $410 $491 #
vertex $-1 $327 $492 #
straight-curve $-1 10.4395686198801 10.4395686198801 26.3779527559055 -0.707106781186548 0.707106781186548 0 #
plane-surface $-1 0 0 19.6850393700787 0 0 -1 -1 0 0 0 #
coedge $-1 $330 $361 $337 $422 0 $241 $-1 #
coedge $-1 $493 $331 $392 $465 1 $332 $-1 #
face $-1 $-1 $332 $2 $-1 $494 forward single #
coedge $-1 $495 $337 $496 $497 0 $251 $-1 #
edge $-1 $498 $423 $418 $499 0 #
vertex $-1 $364 $500 #
straight-curve $-1 -78.740157480315 0 19.6850393700787 0 -1 0 #
coedge $-1 $339 $501 $502 $503 0 $251 $-1 #
coedge $-1 $358 $342 $405 $478 1 $20 $-1 #
coedge $-1 $504 $343 $346 $432 1 $390 $-1 #
coedge $-1 $343 $504 $409 $484 1 $390 $-1 #
vertex $-1 $344 $505 #
ellipse-curve $-1 0 0 39.3700787401575 0 0 1 3.17954636808751 19.4265606810555 0 1 #
coedge $-1 $346 $345 $506 $507 0 $347 $-1 #
edge $-1 $508 $348 $346 $509 0 #
point $-1 5.09486309256931 19.0142879190761 39.3700787401575 #
coedge $-1 $353 $506 $350 $435 1 $370 $-1 #
edge $-1 $355 $436 $350 $510 0 #
vertex $-1 $351 $511 #
straight-curve $-1 -6.95971241325343 6.95971241325343 19.6850393700787 -0.707106781186548 -0.707106781186548 0 #
straight-curve $-1 71.7804450670616 78.740157480315 0 0 0 1 #
point $-1 71.7804450670616 78.740157480315 19.6850393700787 #
coedge $-1 $407 $404 $358 $441 0 $321 $-1 #
edge $-1 $444 $482 $358 $512 0 #
coedge $-1 $496 $359 $404 $477 1 $301 $-1 #
coedge $-1 $359 $496 $361 $446 1 $301 $-1 #
vertex $-1 $441 $513 #
ellipse-curve $-1 0 0 39.3700787401575 0 0 1 -19.4265606810555 -3.17954636808751 0 1 #
edge $-1 $362 $498 $361 $514 0 #
point $-1 -19.0142879190761 -5.09486309256931 39.3700787401575 #
straight-curve $-1 -6.95971241325343 6.95971241325343 19.6850393700787 -0.707106781186548 -0.707106781186548 0 #
coedge $-1 $366 $462 $515 $516 0 $332 $-1 #
edge $-1 $517 $367 $369 $518 0 #
point $-1 78.740157480315 78.740157480315 14.7637795275591 #
coedge $-1 $519 $369 $520 $521 0 $370 $-1 #
coedge $-1 $374 $373 $493 $522 1 $304 $-1 #
coedge $-1 $382 $493 $376 $455 1 $332 $-1 #
edge $-1 $384 $456 $376 $523 0 #
vertex $-1 $377 $524 #
straight-curve $-1 10.4395686198801 10.4395686198801 39.3700787401575 -0.707106781186548 0.707106781186548 0 #
plane-surface $-1 10.4395686198801 10.4395686198801 26.3779527559055 0.707106781186548 0.707106781186548 0 0 0 -1 0 #
coedge $-1 $380 $399 $462 $525 0 $162 $-1 #
vertex $-1 $381 $526 #
straight-curve $-1 0 -78.740157480315 26.3779527559055 1 0 0 #
coedge $-1 $449 $382 $459 $525 1 $332 $-1 #
straight-curve $-1 78.740157480315 0 26.3779527559055 0 1 0 #
point $-1 78.740157480315 -57.8610202405547 26.3779527559055 #
edge $-1 $466 $396 $392 $527 0 #
vertex $-1 $393 $528 #
straight-curve $-1 6.95971241325343 -6.95971241325343 39.3700787401575 0.707106781186548 0.707106781186548 0 #
straight-curve $-1 78.740157480315 0 19.6850393700787 0 1 0 #
point $-1 78.740157480315 64.8207326538081 19.6850393700787 #
coedge $-1 $502 $515 $399 $471 1 $529 $-1 #
edge $-1 $472 $530 $399 $531 0 #
vertex $-1 $400 $532 #
straight-curve $-1 -78.740157480315 -78.740157480315 0 0 0 1 #
face $-1 $420 $529 $2 $-1 $533 forward single #
plane-surface $-1 0 78.740157480315 0 0 1 0 0 0 1 0 #
coedge $-1 $404 $407 $495 $534 0 $321 $-1 #
edge $-1 $535 $444 $404 $536 0 #
edge $-1 $482 $414 $426 $537 0 #
coedge $-1 $501 $495 $406 $480 1 $251 $-1 #
edge $-1 $538 $481 $406 $539 0 #
vertex $-1 $408 $540 #
vertex $-1 $478 $541 #
straight-curve $-1 -10.4395686198801 -10.4395686198801 26.3779527559055 0.707106781186548 -0.707106781186548 0 #
edge $-1 $429 $488 $409 $542 0 #
straight-curve $-1 1.23273449888126 19.646402740879 14.7637795275591 0 0 1 #
coedge $-1 $506 $411 $504 $543 0 $370 $-1 #
coedge $-1 $411 $519 $413 $490 1 $370 $-1 #
vertex $-1 $484 $544 #
straight-curve $-1 -57.8610202405547 78.740157480315 0 0 0 -1 #
edge $-1 $415 $538 $413 $545 0 #
point $-1 1.23273449888126 19.646402740879 26.3779527559055 #
point $-1 -57.8610202405547 78.740157480315 26.3779527559055 #
coedge $-1 $454 $419 $453 $522 0 $332 $-1 #
plane-surface $-1 78.740157480315 0 0 1 0 0 0 0 -1 0 #
coedge $-1 $479 $421 $476 $534 1 $251 $-1 #
coedge $-1 $443 $442 $421 $497 1 $301 $-1 #
edge $-1 $498 $535 $496 $546 0 #
vertex $-1 $446 $547 #
straight-curve $-1 -78.740157480315 -64.8207326538081 0 0 0 -1 #
point $-1 -78.740157480315 -64.8207326538081 19.6850393700787 #
coedge $-1 $425 $479 $519 $548 1 $251 $-1 #
coedge $-1 $520 $470 $425 $503 1 $529 $-1 #
edge $-1 $549 $472 $425 $550 0 #
coedge $-1 $428 $427 $486 $543 1 $390 $-1 #
point $-1 1.23273449888126 19.646402740879 39.3700787401575 #
coedge $-1 $434 $486 $431 $507 1 $370 $-1 #
edge $-1 $436 $508 $431 $551 0 #
vertex $-1 $432 $552 #
straight-curve $-1 -6.95971241325343 6.95971241325343 39.3700787401575 -0.707106781186548 -0.707106781186548 0 #
straight-curve $-1 0 78.740157480315 19.6850393700787 -1 0 0 #
point $-1 64.8207326538081 78.740157480315 19.6850393700787 #
straight-curve $-1 -19.646402740879 -1.23273449888126 14.7637795275591 0 0 -1 #
point $-1 -19.646402740879 -1.23273449888126 39.3700787401575 #
straight-curve $-1 -6.95971241325343 6.95971241325343 39.3700787401575 -0.707106781186548 -0.707106781186548 0 #
coedge $-1 $470 $520 $449 $516 1 $529 $-1 #
edge $-1 $530 $517 $515 $553 0 #
vertex $-1 $450 $554 #
straight-curve $-1 78.740157480315 78.740157480315 0 0 0 1 #
coedge $-1 $487 $452 $501 $548 0 $370 $-1 #
coedge $-1 $515 $502 $452 $521 1 $529 $-1 #
edge $-1 $517 $549 $452 $555 0 #
edge $-1 $466 $456 $453 $556 0 #
straight-curve $-1 78.740157480315 -57.8610202405547 0 0 0 1 #
point $-1 78.740157480315 -57.8610202405547 39.3700787401575 #
edge $-1 $530 $460 $459 $557 0 #
point $-1 78.740157480315 -78.740157480315 26.3779527559055 #
straight-curve $-1 78.740157480315 64.8207326538081 0 0 0 -1 #
point $-1 78.740157480315 64.8207326538081 39.3700787401575 #
loop $-1 $-1 $515 $474 #
vertex $-1 $471 $558 #
straight-curve $-1 0 -78.740157480315 0 1 0 0 #
point $-1 -78.740157480315 -78.740157480315 0 #
plane-surface $-1 0 0 0 0 0 -1 -1 0 0 0 #
edge $-1 $481 $535 $476 $559 0 #
vertex $-1 $477 $560 #
straight-curve $-1 -10.4395686198801 -10.4395686198801 39.3700787401575 0.707106781186548 -0.707106781186548 0 #
ellipse-curve $-1 0 0 26.3779527559055 0 0 -1 -13.9194248265068 13.9194248265068 0 1 #
vertex $-1 $490 $561 #
straight-curve $-1 -78.740157480315 0 26.3779527559055 0 -1 0 #
point $-1 -78.740157480315 57.8610202405547 26.3779527559055 #
point $-1 -19.646402740879 -1.23273449888126 26.3779527559055 #
straight-curve $-1 10.4395686198801 10.4395686198801 39.3700787401575 -0.707106781186548 0.707106781186548 0 #
edge $-1 $488 $508 $504 $562 0 #
point $-1 -57.8610202405547 78.740157480315 39.3700787401575 #
straight-curve $-1 0 78.740157480315 26.3779527559055 -1 0 0 #
straight-curve $-1 -78.740157480315 0 39.3700787401575 0 1 0 #
point $-1 -78.740157480315 -64.8207326538081 39.3700787401575 #
edge $-1 $549 $538 $501 $563 0 #
vertex $-1 $548 $564 #
straight-curve $-1 -78.740157480315 0 0 0 -1 0 #
straight-curve $-1 64.8207326538081 78.740157480315 0 0 0 1 #
point $-1 64.8207326538081 78.740157480315 39.3700787401575 #
straight-curve $-1 78.740157480315 0 0 0 1 0 #
point $-1 78.740157480315 78.740157480315 0 #
straight-curve $-1 0 78.740157480315 0 -1 0 0 #
straight-curve $-1 78.740157480315 0 39.3700787401575 0 -1 0 #
straight-curve $-1 78.740157480315 -78.740157480315 0 0 0 1 #
point $-1 78.740157480315 -78.740157480315 0 #
straight-curve $-1 -78.740157480315 57.8610202405547 0 0 0 1 #
point $-1 -78.740157480315 57.8610202405547 39.3700787401575 #
point $-1 -78.740157480315 78.740157480315 26.3779527559055 #
straight-curve $-1 0 78.740157480315 39.3700787401575 1 0 0 #
straight-curve $-1 -78.740157480315 78.740157480315 0 0 0 1 #
point $-1 -78.740157480315 78.740157480315 0 #
