600 0 1 0           
112 GICL ACIS STEP Translator - Source: f:/data5/repository/Parasolid/NIST/Bill_Regli/vand_orig/vand_orig.step - 6 0 13 ACIS 6.0.3 NT 24 Mon Apr 08 10:51:55 2002 
1 9.9999999999999995e-007 1e-010 
body $-1 $1 $-1 $-1 #
lump $-1 $-1 $2 $0 #
shell $-1 $-1 $-1 $3 $-1 $1 #
face $-1 $4 $5 $2 $-1 $6 reversed single #
face $-1 $7 $8 $2 $-1 $9 reversed single #
loop $-1 $-1 $10 $3 #
cone-surface $-1 0 0 375.00000000000114 0 0 1 499.99999999999898 0 0 1 I I 0 1 499.99999999999898 forward I I I I #
face $-1 $11 $12 $2 $-1 $13 reversed single #
loop $-1 $-1 $14 $4 #
plane-surface $-1 0 0 125.00000000000011 0 0 -1 -25.399999999999999 0 0 forward_v I I I I #
coedge $-1 $15 $16 $17 $18 reversed $5 $-1 #
face $-1 $19 $20 $2 $-1 $21 reversed single #
loop $-1 $22 $23 $7 #
cone-surface $-1 0 0 125.00000000000011 0 0 1 125.00000000000011 0 0 1 I I 0.83205029371491213 0.55470019715962648 125.00000000000011 forward I I I I #
coedge $-1 $14 $14 $23 $24 forward $8 $-1 #
coedge $-1 $25 $10 $26 $27 reversed $5 $-1 #
coedge $-1 $10 $28 $29 $30 reversed $5 $-1 #
coedge $-1 $31 $32 $10 $18 forward $33 $-1 #
edge $-1 $34 -1.3089969389957463 $35 -1.0380784185395273 $10 $36 forward 7 unknown #
face $-1 $37 $38 $2 $-1 $39 reversed single #
loop $-1 $-1 $40 $11 #
cone-surface $-1 0 0 375.00000000000114 0 0 1 499.99999999999898 0 0 1 I I 0 1 499.99999999999898 forward I I I I #
loop $-1 $-1 $41 $7 #
coedge $-1 $23 $23 $14 $24 reversed $12 $-1 #
edge $-1 $42 0 $42 6.2831853071795862 $14 $43 forward 7 unknown #
coedge $-1 $44 $15 $45 $46 forward $5 $-1 #
coedge $-1 $47 $48 $15 $27 forward $49 $-1 #
edge $-1 $50 -24.606299212598401 $34 -4.9212598425196017 $15 $51 forward 7 unknown #
coedge $-1 $16 $52 $53 $54 reversed $5 $-1 #
coedge $-1 $55 $56 $16 $30 forward $57 $-1 #
edge $-1 $35 -4.9212598425196017 $58 0 $16 $59 forward 7 unknown #
coedge $-1 $60 $17 $56 $61 forward $33 $-1 #
coedge $-1 $17 $60 $47 $62 forward $33 $-1 #
loop $-1 $-1 $32 $63 #
vertex $-1 $18 $64 #
vertex $-1 $18 $65 #
ellipse-curve $-1 0 0 499.99999999999898 0 0 -1 -499.99999999999898 0 0 1 I I #
face $-1 $66 $67 $2 $-1 $68 reversed single #
loop $-1 $-1 $69 $19 #
plane-surface $-1 -88.38834764831843 88.38834764831843 375.00000000000114 -0.70710678118654757 0.70710678118654757 0 0 0 25.399999999999999 forward_v I I I I #
coedge $-1 $70 $71 $72 $73 reversed $20 $-1 #
coedge $-1 $72 $53 $74 $75 forward $22 $-1 #
vertex $-1 $24 $76 #
ellipse-curve $-1 0 0 125.00000000000011 0 0 1 125.00000000000011 0 0 1 I I #
coedge $-1 $77 $25 $78 $79 reversed $5 $-1 #
coedge $-1 $80 $81 $25 $46 reversed $82 $-1 #
edge $-1 $50 -1.8325957145940468 $83 -1.6334602423789293 $25 $84 forward 7 unknown #
coedge $-1 $85 $26 $32 $62 reversed $49 $-1 #
coedge $-1 $26 $85 $80 $86 forward $49 $-1 #
loop $-1 $-1 $48 $87 #
vertex $-1 $27 $88 #
straight-curve $-1 -129.40952255126047 -482.96291314453293 375.00000000000114 0 0 -25.399999999999999 I I #
coedge $-1 $28 $89 $90 $91 reversed $5 $-1 #
coedge $-1 $41 $92 $28 $54 forward $22 $-1 #
edge $-1 $58 -2.103514235050266 $93 0.53271790825536924 $28 $94 forward 7 unknown #
coedge $-1 $95 $29 $96 $97 reversed $57 $-1 #
coedge $-1 $29 $95 $31 $61 reversed $57 $-1 #
loop $-1 $-1 $56 $98 #
vertex $-1 $54 $99 #
straight-curve $-1 -253.93825079241051 -430.71494608904788 375.00000000000114 0 0 -25.399999999999999 I I #
coedge $-1 $32 $31 $100 $101 forward $33 $-1 #
edge $-1 $35 19.059957412438084 $102 106.43413876953507 $56 $103 forward 7 unknown #
edge $-1 $104 -101.51287892701531 $34 -17.047744168984973 $32 $105 forward 7 unknown #
face $-1 $106 $33 $2 $-1 $107 reversed single #
point $-1 -129.40952255126047 -482.96291314453293 499.99999999999898 #
point $-1 -253.93825079241051 -430.71494608904788 499.99999999999898 #
face $-1 $108 $109 $2 $-1 $110 reversed single #
loop $-1 $-1 $111 $37 #
plane-surface $-1 88.38834764831843 -88.38834764831843 375.00000000000114 0.70710678118654757 -0.70710678118654757 0 0 0 -25.399999999999999 forward_v I I I I #
coedge $-1 $112 $113 $114 $115 reversed $38 $-1 #
coedge $-1 $116 $40 $117 $118 reversed $20 $-1 #
coedge $-1 $40 $119 $112 $120 reversed $20 $-1 #
coedge $-1 $92 $41 $40 $73 forward $22 $-1 #
edge $-1 $121 1.0380784185395273 $122 3.6743105618451621 $72 $123 forward 7 unknown #
coedge $-1 $124 $125 $41 $75 reversed $109 $-1 #
edge $-1 $93 0.53271790825536924 $121 1.0380784185395273 $41 $126 forward 7 unknown #
point $-1 125.00000000000011 0 125.00000000000011 #
coedge $-1 $127 $44 $128 $129 reversed $5 $-1 #
coedge $-1 $130 $131 $44 $79 forward $132 $-1 #
edge $-1 $133 11.614173228346401 $83 24.606299212598401 $44 $134 forward 7 unknown #
coedge $-1 $135 $45 $48 $86 reversed $82 $-1 #
coedge $-1 $45 $135 $130 $136 reversed $82 $-1 #
loop $-1 $-1 $45 $137 #
vertex $-1 $46 $138 #
ellipse-curve $-1 0 0 1000.0000000000006 0 0 1 499.99999999999898 0 0 1 I I #
coedge $-1 $48 $47 $139 $140 forward $49 $-1 #
edge $-1 $141 -101.51287892701531 $50 -17.047744168984973 $80 $142 forward 7 unknown #
face $-1 $143 $49 $2 $-1 $144 reversed single #
point $-1 -129.40952255126047 -482.96291314453293 1000.0000000000006 #
coedge $-1 $52 $145 $146 $147 reversed $5 $-1 #
coedge $-1 $148 $111 $52 $91 forward $67 $-1 #
edge $-1 $93 0 $149 4.9212598425196017 $52 $150 forward 7 unknown #
coedge $-1 $53 $72 $151 $152 forward $22 $-1 #
vertex $-1 $91 $153 #
ellipse-curve $-1 0 0 375.00000000000114 0 0 1 499.99999999999898 0 0 1 I I #
coedge $-1 $56 $55 $154 $155 forward $57 $-1 #
coedge $-1 $151 $156 $55 $97 forward $157 $-1 #
edge $-1 $158 -106.43413876953507 $58 -19.059957412438084 $55 $159 forward 7 unknown #
face $-1 $160 $57 $2 $-1 $161 reversed single #
point $-1 -253.93825079241051 -430.71494608904788 375.00000000000114 #
coedge $-1 $154 $139 $60 $101 reversed $162 $-1 #
edge $-1 $102 -71.780445067061606 $104 -64.820732653808093 $60 $163 forward 7 unknown #
vertex $-1 $61 $164 #
straight-curve $-1 88.38834764831843 -88.38834764831843 499.99999999999898 -17.960512242138318 -17.960512242138318 0 I I #
vertex $-1 $62 $165 #
straight-curve $-1 176.77669529663712 -176.77669529663712 499.99999999999898 17.960512242138318 17.960512242138318 0 I I #
face $-1 $166 $167 $2 $-1 $168 reversed single #
plane-surface $-1 0 0 499.99999999999898 0 0 -1 -25.399999999999999 0 0 forward_v I I I I #
face $-1 $169 $170 $2 $-1 $171 reversed single #
loop $-1 $-1 $125 $66 #
plane-surface $-1 0 0 375.00000000000114 0 0 -1 -25.399999999999999 0 0 forward_v I I I I #
coedge $-1 $90 $172 $124 $173 reversed $67 $-1 #
coedge $-1 $174 $69 $71 $120 forward $38 $-1 #
coedge $-1 $69 $174 $175 $176 forward $38 $-1 #
coedge $-1 $177 $151 $69 $115 forward $157 $-1 #
edge $-1 $122 19.059957412438084 $178 106.43413876953507 $69 $179 forward 7 unknown #
coedge $-1 $180 $70 $181 $182 reversed $20 $-1 #
coedge $-1 $183 $184 $70 $118 forward $185 $-1 #
edge $-1 $186 -4.9212598425196017 $121 0 $70 $187 forward 7 unknown #
coedge $-1 $71 $188 $189 $190 reversed $20 $-1 #
edge $-1 $122 0 $191 4.9212598425196017 $71 $192 forward 7 unknown #
vertex $-1 $75 $193 #
vertex $-1 $73 $194 #
ellipse-curve $-1 0 0 375.00000000000114 0 0 1 499.99999999999898 0 0 1 I I #
coedge $-1 $195 $74 $111 $173 forward $109 $-1 #
coedge $-1 $74 $196 $183 $197 forward $109 $-1 #
ellipse-curve $-1 0 0 375.00000000000114 0 0 1 499.99999999999898 0 0 1 I I #
coedge $-1 $198 $77 $199 $200 reversed $5 $-1 #
coedge $-1 $201 $202 $77 $129 forward $203 $-1 #
edge $-1 $204 3.0789287380057604 $133 4.775052895968722 $77 $205 forward 7 unknown #
coedge $-1 $206 $78 $81 $136 forward $132 $-1 #
coedge $-1 $78 $206 $201 $207 reversed $132 $-1 #
loop $-1 $-1 $131 $208 #
vertex $-1 $79 $209 #
straight-curve $-1 -31.311456271584003 -499.0186296183266 375.00000000000114 0 0 25.399999999999999 I I #
coedge $-1 $81 $80 $210 $211 reversed $82 $-1 #
edge $-1 $83 13.020429680435967 $212 96.591619084495633 $130 $213 forward 7 unknown #
face $-1 $214 $82 $2 $-1 $215 forward single #
point $-1 -31.311456271584003 -499.0186296183266 1000.0000000000006 #
coedge $-1 $100 $210 $85 $140 reversed $162 $-1 #
edge $-1 $104 19.685039370078702 $141 39.370078740157503 $85 $216 forward 7 unknown #
vertex $-1 $86 $217 #
straight-curve $-1 176.77669529663712 -176.77669529663712 1000.0000000000006 17.960512242138318 17.960512242138318 0 I I #
face $-1 $218 $219 $2 $-1 $220 reversed single #
plane-surface $-1 176.77669529663712 -176.77669529663712 499.99999999999898 0.70710678118654757 -0.70710678118654757 0 0 0 -25.399999999999999 forward_v I I I I #
coedge $-1 $89 $198 $221 $222 reversed $5 $-1 #
coedge $-1 $223 $224 $89 $147 forward $170 $-1 #
edge $-1 $149 2.6088747453344241 $225 2.8797932657906431 $89 $226 forward 7 unknown #
coedge $-1 $172 $90 $224 $227 reversed $67 $-1 #
vertex $-1 $147 $228 #
straight-curve $-1 430.71494608904788 253.93825079241051 375.00000000000114 0 0 25.399999999999999 I I #
coedge $-1 $114 $96 $92 $152 reversed $157 $-1 #
edge $-1 $122 -2.6088747453344241 $58 -2.103514235050266 $92 $229 forward 7 unknown #
point $-1 430.71494608904788 253.93825079241051 375.00000000000114 #
coedge $-1 $230 $100 $95 $155 reversed $162 $-1 #
edge $-1 $158 14.7637795275591 $102 19.685039370078702 $95 $231 forward 7 unknown #
coedge $-1 $96 $177 $230 $232 forward $157 $-1 #
loop $-1 $-1 $96 $160 #
vertex $-1 $97 $233 #
straight-curve $-1 88.38834764831843 -88.38834764831843 375.00000000000114 17.960512242138318 17.960512242138318 0 I I #
face $-1 $63 $157 $2 $-1 $234 reversed single #
plane-surface $-1 88.38834764831843 -88.38834764831843 375.00000000000114 0.70710678118654757 -0.70710678118654757 0 0 0 -25.399999999999999 forward_v I I I I #
loop $-1 $-1 $154 $235 #
straight-curve $-1 0 -2000.0000000000011 499.99999999999898 25.399999999999999 0 0 I I #
point $-1 -1823.2233047033646 -2000.0000000000011 499.99999999999898 #
point $-1 -1646.4466094067254 -2000.0000000000011 499.99999999999898 #
face $-1 $236 $237 $2 $-1 $238 reversed single #
loop $-1 $-1 $239 $106 #
plane-surface $-1 265.16504294495456 265.16504294495456 669.99999999999966 0.70710678118654757 0.70710678118654757 0 0 0 -25.399999999999999 forward_v I I I I #
face $-1 $240 $241 $2 $-1 $242 reversed single #
loop $-1 $-1 $224 $108 #
plane-surface $-1 0 0 499.99999999999898 0 0 -1 -25.399999999999999 0 0 forward_v I I I I #
coedge $-1 $111 $148 $243 $244 forward $67 $-1 #
edge $-1 $93 19.059957412438084 $245 106.43413876953507 $111 $246 forward 7 unknown #
coedge $-1 $113 $112 $247 $248 reversed $38 $-1 #
coedge $-1 $249 $250 $113 $176 reversed $251 $-1 #
edge $-1 $252 -19.685039370078702 $178 -14.7637795275591 $113 $253 forward 7 unknown #
coedge $-1 $156 $114 $250 $254 forward $157 $-1 #
vertex $-1 $115 $255 #
straight-curve $-1 -88.38834764831843 88.38834764831843 375.00000000000114 -17.960512242138318 -17.960512242138318 0 I I #
coedge $-1 $256 $116 $257 $258 reversed $20 $-1 #
coedge $-1 $259 $260 $116 $182 forward $261 $-1 #
edge $-1 $262 1.8325957145940468 $186 2.103514235050266 $116 $263 forward 7 unknown #
coedge $-1 $264 $117 $125 $197 reversed $185 $-1 #
coedge $-1 $117 $264 $259 $265 reversed $185 $-1 #
loop $-1 $-1 $184 $266 #
vertex $-1 $118 $267 #
straight-curve $-1 253.93825079241051 430.71494608904788 375.00000000000114 0 0 -25.399999999999999 I I #
coedge $-1 $119 $268 $269 $270 reversed $20 $-1 #
coedge $-1 $271 $247 $119 $190 forward $219 $-1 #
edge $-1 $191 -0.53271790825536924 $272 -0.26179938779915024 $119 $273 forward 7 unknown #
vertex $-1 $190 $274 #
straight-curve $-1 -430.71494608904788 -253.93825079241051 375.00000000000114 0 0 25.399999999999999 I I #
point $-1 253.93825079241051 430.71494608904788 375.00000000000114 #
point $-1 -430.71494608904788 -253.93825079241051 375.00000000000114 #
coedge $-1 $196 $124 $275 $276 forward $109 $-1 #
coedge $-1 $125 $195 $277 $278 forward $109 $-1 #
edge $-1 $279 -106.43413876953507 $121 -19.059957412438084 $125 $280 forward 7 unknown #
coedge $-1 $145 $127 $281 $282 forward $5 $-1 #
coedge $-1 $283 $284 $127 $200 forward $285 $-1 #
edge $-1 $286 -24.606299212598401 $204 -11.614173228346401 $127 $287 forward 7 unknown #
coedge $-1 $288 $128 $131 $207 forward $203 $-1 #
coedge $-1 $128 $289 $283 $290 forward $203 $-1 #
loop $-1 $-1 $202 $291 #
vertex $-1 $129 $292 #
ellipse-curve $-1 0 0 669.99999999999966 0 0 -1 -499.99999999999898 0 0 1 I I #
coedge $-1 $131 $130 $293 $294 forward $132 $-1 #
edge $-1 $133 13.020429680435967 $295 96.591619084495633 $201 $296 forward 7 unknown #
face $-1 $137 $132 $2 $-1 $297 reversed single #
point $-1 -31.311456271584003 -499.0186296183266 669.99999999999966 #
coedge $-1 $139 $293 $135 $211 forward $162 $-1 #
edge $-1 $212 -57.861020240554701 $141 64.820732653808093 $135 $298 forward 7 unknown #
vertex $-1 $136 $299 #
straight-curve $-1 -265.16504294495456 -265.16504294495456 1000.0000000000006 17.960512242138318 -17.960512242138318 0 I I #
face $-1 $300 $301 $2 $-1 $302 forward single #
plane-surface $-1 0 0 1000.0000000000006 0 0 1 25.399999999999999 0 0 forward_v I I I I #
straight-curve $-1 -1646.4466094067254 -2000.0000000000011 0 0 0 25.399999999999999 I I #
point $-1 -1646.4466094067254 -2000.0000000000011 1000.0000000000006 #
face $-1 $303 $304 $2 $-1 $305 forward single #
loop $-1 $-1 $247 $143 #
plane-surface $-1 0 0 499.99999999999898 0 0 -1 -25.399999999999999 0 0 forward_v I I I I #
coedge $-1 $306 $307 $145 $222 forward $308 $-1 #
edge $-1 $225 4.9212598425196017 $309 24.606299212598401 $145 $310 forward 7 unknown #
coedge $-1 $311 $146 $307 $312 forward $170 $-1 #
coedge $-1 $146 $311 $148 $227 forward $170 $-1 #
vertex $-1 $222 $313 #
ellipse-curve $-1 0 0 499.99999999999898 0 0 -1 -499.99999999999898 0 0 1 I I #
edge $-1 $314 -106.43413876953507 $149 -19.059957412438084 $148 $315 forward 7 unknown #
point $-1 430.71494608904788 253.93825079241051 499.99999999999898 #
ellipse-curve $-1 0 0 375.00000000000114 0 0 1 499.99999999999898 0 0 1 I I #
coedge $-1 $316 $154 $156 $232 reversed $162 $-1 #
straight-curve $-1 -1823.2233047033646 -2000.0000000000011 0 0 0 25.399999999999999 I I #
edge $-1 $317 -78.740157480315006 $158 -71.780445067061606 $156 $318 forward 7 unknown #
point $-1 -1823.2233047033646 -2000.0000000000011 375.00000000000114 #
plane-surface $-1 0 0 375.00000000000114 0 0 -1 -25.399999999999999 0 0 forward_v I I I I #
face $-1 $319 $162 $2 $-1 $320 forward single #
face $-1 $291 $321 $2 $-1 $322 reversed single #
loop $-1 $-1 $323 $166 #
plane-surface $-1 0 0 669.99999999999966 0 0 -1 -25.399999999999999 0 0 forward_v I I I I #
coedge $-1 $324 $325 $326 $327 reversed $167 $-1 #
face $-1 $328 $308 $2 $-1 $329 reversed single #
loop $-1 $-1 $330 $169 #
plane-surface $-1 -176.77669529663712 176.77669529663712 499.99999999999898 -0.70710678118654757 0.70710678118654757 0 0 0 25.399999999999999 forward_v I I I I #
coedge $-1 $331 $275 $172 $244 reversed $332 $-1 #
edge $-1 $314 -19.685039370078702 $245 -14.7637795275591 $172 $333 forward 7 unknown #
vertex $-1 $173 $334 #
straight-curve $-1 88.38834764831843 -88.38834764831843 375.00000000000114 17.960512242138318 17.960512242138318 0 I I #
coedge $-1 $189 $335 $174 $248 forward $219 $-1 #
edge $-1 $252 -106.43413876953507 $191 -19.059957412438084 $174 $336 forward 7 unknown #
coedge $-1 $337 $175 $335 $338 reversed $251 $-1 #
coedge $-1 $175 $339 $177 $254 reversed $251 $-1 #
loop $-1 $-1 $175 $319 #
vertex $-1 $248 $340 #
straight-curve $-1 -2000.0000000000011 -1823.2233047033646 0 0 0 -25.399999999999999 I I #
edge $-1 $178 71.780445067061606 $317 78.740157480315006 $177 $341 forward 7 unknown #
point $-1 -2000.0000000000011 -1823.2233047033646 375.00000000000114 #
coedge $-1 $342 $180 $343 $344 forward $20 $-1 #
coedge $-1 $345 $346 $180 $258 forward $347 $-1 #
edge $-1 $348 -24.606299212598401 $262 -4.9212598425196017 $180 $349 forward 7 unknown #
coedge $-1 $350 $181 $184 $265 forward $261 $-1 #
coedge $-1 $181 $350 $345 $351 forward $261 $-1 #
loop $-1 $-1 $260 $328 #
vertex $-1 $182 $352 #
ellipse-curve $-1 0 0 499.99999999999898 0 0 -1 -499.99999999999898 0 0 1 I I #
coedge $-1 $184 $183 $353 $354 forward $185 $-1 #
edge $-1 $186 19.059957412438084 $355 106.43413876953507 $259 $356 forward 7 unknown #
face $-1 $98 $185 $2 $-1 $357 reversed single #
point $-1 253.93825079241051 430.71494608904788 499.99999999999898 #
coedge $-1 $188 $358 $359 $360 forward $20 $-1 #
coedge $-1 $361 $330 $188 $270 forward $241 $-1 #
edge $-1 $272 4.9212598425196017 $362 24.606299212598401 $188 $363 forward 7 unknown #
coedge $-1 $335 $189 $330 $364 forward $219 $-1 #
vertex $-1 $270 $365 #
ellipse-curve $-1 0 0 499.99999999999898 0 0 -1 -499.99999999999898 0 0 1 I I #
point $-1 -430.71494608904788 -253.93825079241051 499.99999999999898 #
coedge $-1 $243 $366 $195 $276 reversed $332 $-1 #
edge $-1 $245 71.780445067061606 $367 78.740157480315006 $195 $368 forward 7 unknown #
coedge $-1 $369 $353 $196 $278 reversed $370 $-1 #
edge $-1 $367 -78.740157480315006 $279 -71.780445067061606 $196 $371 forward 7 unknown #
vertex $-1 $197 $372 #
straight-curve $-1 -88.38834764831843 88.38834764831843 375.00000000000114 -17.960512242138318 -17.960512242138318 0 I I #
coedge $-1 $373 $374 $198 $282 reversed $304 $-1 #
edge $-1 $286 0.062663915584032739 $309 0.26179938779915024 $198 $375 forward 7 unknown #
coedge $-1 $376 $199 $202 $290 reversed $285 $-1 #
coedge $-1 $199 $376 $373 $377 forward $285 $-1 #
loop $-1 $-1 $284 $378 #
vertex $-1 $200 $379 #
straight-curve $-1 499.0186296183266 31.311456271584003 375.00000000000114 0 0 -25.399999999999999 I I #
coedge $-1 $289 $201 $380 $381 forward $203 $-1 #
coedge $-1 $202 $288 $382 $383 forward $203 $-1 #
edge $-1 $384 -96.591619084495633 $204 -13.020429680435967 $202 $385 forward 7 unknown #
face $-1 $378 $203 $2 $-1 $386 reversed single #
point $-1 499.0186296183266 31.311456271584003 669.99999999999966 #
coedge $-1 $210 $380 $206 $294 reversed $162 $-1 #
edge $-1 $212 -39.370078740157503 $295 -26.3779527559055 $206 $387 forward 7 unknown #
vertex $-1 $207 $388 #
straight-curve $-1 -265.16504294495456 -265.16504294495456 669.99999999999966 17.960512242138318 -17.960512242138318 0 I I #
plane-surface $-1 -265.16504294495456 -265.16504294495456 669.99999999999966 -0.70710678118654757 -0.70710678118654757 0 0 0 25.399999999999999 forward_v I I I I #
straight-curve $-1 0 -2000.0000000000011 1000.0000000000006 -25.399999999999999 0 0 I I #
point $-1 1469.6699141100894 -2000.0000000000011 1000.0000000000006 #
face $-1 $87 $347 $2 $-1 $389 reversed single #
loop $-1 $-1 $359 $214 #
plane-surface $-1 0 0 1000.0000000000006 0 0 1 25.399999999999999 0 0 forward_v I I I I #
face $-1 $235 $390 $2 $-1 $391 forward single #
loop $-1 $-1 $281 $218 #
plane-surface $-1 0 0 1000.0000000000006 0 0 1 25.399999999999999 0 0 forward_v I I I I #
coedge $-1 $392 $221 $374 $393 forward $308 $-1 #
coedge $-1 $221 $392 $223 $312 reversed $308 $-1 #
loop $-1 $-1 $307 $240 #
vertex $-1 $282 $394 #
straight-curve $-1 482.96291314453293 129.40952255126047 375.00000000000114 0 0 25.399999999999999 I I #
coedge $-1 $224 $223 $331 $395 forward $170 $-1 #
edge $-1 $225 17.047744168984973 $396 101.51287892701531 $223 $397 forward 7 unknown #
point $-1 482.96291314453293 129.40952255126047 499.99999999999898 #
vertex $-1 $227 $398 #
straight-curve $-1 88.38834764831843 -88.38834764831843 499.99999999999898 -17.960512242138318 -17.960512242138318 0 I I #
coedge $-1 $399 $230 $339 $400 reversed $162 $-1 #
vertex $-1 $254 $401 #
straight-curve $-1 0 -2000.0000000000011 375.00000000000114 25.399999999999999 0 0 I I #
face $-1 $402 $251 $2 $-1 $403 forward single #
plane-surface $-1 0 -2000.0000000000011 0 0 -1 0 0 0 -25.399999999999999 forward_v I I I I #
loop $-1 $-1 $404 $236 #
plane-surface $-1 -265.16504294495456 -265.16504294495456 669.99999999999966 -0.70710678118654757 -0.70710678118654757 0 0 0 25.399999999999999 forward_v I I I I #
coedge $-1 $405 $406 $407 $408 forward $237 $-1 #
coedge $-1 $409 $239 $342 $410 forward $167 $-1 #
coedge $-1 $239 $409 $411 $412 forward $167 $-1 #
coedge $-1 $413 $405 $239 $327 forward $237 $-1 #
edge $-1 $414 13.020429680435967 $415 96.591619084495633 $239 $416 forward 7 unknown #
face $-1 $266 $261 $2 $-1 $417 reversed single #
plane-surface $-1 176.77669529663712 -176.77669529663712 499.99999999999898 0.70710678118654757 -0.70710678118654757 0 0 0 -25.399999999999999 forward_v I I I I #
coedge $-1 $269 $418 $271 $364 reversed $241 $-1 #
coedge $-1 $419 $243 $311 $395 reversed $332 $-1 #
loop $-1 $-1 $243 $420 #
straight-curve $-1 2000.0000000000011 1823.2233047033646 0 0 0 -25.399999999999999 I I #
point $-1 2000.0000000000011 1823.2233047033646 375.00000000000114 #
coedge $-1 $247 $271 $249 $338 forward $219 $-1 #
straight-curve $-1 -88.38834764831843 88.38834764831843 499.99999999999898 17.960512242138318 17.960512242138318 0 I I #
coedge $-1 $421 $249 $418 $422 reversed $251 $-1 #
edge $-1 $423 64.820732653808093 $252 71.780445067061606 $335 $424 forward 7 unknown #
coedge $-1 $250 $425 $316 $400 forward $251 $-1 #
point $-1 -2000.0000000000011 -1823.2233047033646 499.99999999999898 #
straight-curve $-1 -2000.0000000000011 0 375.00000000000114 0 -25.399999999999999 0 I I #
coedge $-1 $426 $256 $324 $410 reversed $20 $-1 #
coedge $-1 $427 $428 $256 $344 reversed $390 $-1 #
edge $-1 $348 1.3089969389957463 $429 1.5081324112108638 $256 $430 forward 7 unknown #
coedge $-1 $431 $257 $260 $351 reversed $347 $-1 #
coedge $-1 $257 $431 $427 $432 forward $347 $-1 #
loop $-1 $-1 $346 $300 #
vertex $-1 $258 $433 #
straight-curve $-1 129.40952255126047 482.96291314453293 375.00000000000114 0 0 -25.399999999999999 I I #
coedge $-1 $260 $259 $434 $435 forward $261 $-1 #
edge $-1 $436 -101.51287892701531 $262 -17.047744168984973 $260 $437 forward 7 unknown #
point $-1 129.40952255126047 482.96291314453293 499.99999999999898 #
coedge $-1 $277 $434 $264 $354 reversed $370 $-1 #
edge $-1 $279 14.7637795275591 $355 19.685039370078702 $264 $438 forward 7 unknown #
vertex $-1 $265 $439 #
straight-curve $-1 -88.38834764831843 88.38834764831843 499.99999999999898 17.960512242138318 17.960512242138318 0 I I #
plane-surface $-1 -88.38834764831843 88.38834764831843 375.00000000000114 -0.70710678118654757 0.70710678118654757 0 0 0 25.399999999999999 forward_v I I I I #
coedge $-1 $268 $426 $440 $441 reversed $20 $-1 #
coedge $-1 $442 $443 $268 $360 reversed $301 $-1 #
edge $-1 $444 -3.0789287380057604 $362 -2.8797932657906431 $268 $445 forward 7 unknown #
coedge $-1 $418 $269 $443 $446 forward $241 $-1 #
vertex $-1 $360 $447 #
straight-curve $-1 -482.96291314453293 -129.40952255126047 375.00000000000114 0 0 25.399999999999999 I I #
edge $-1 $272 17.047744168984973 $423 101.51287892701531 $330 $448 forward 7 unknown #
point $-1 -482.96291314453293 -129.40952255126047 499.99999999999898 #
coedge $-1 $275 $449 $369 $450 forward $332 $-1 #
vertex $-1 $276 $451 #
straight-curve $-1 2000.0000000000011 0 375.00000000000114 0 25.399999999999999 0 I I #
coedge $-1 $452 $277 $366 $450 reversed $370 $-1 #
loop $-1 $-1 $353 $402 #
straight-curve $-1 0 2000.0000000000011 375.00000000000114 -25.399999999999999 0 0 I I #
point $-1 1823.2233047033646 2000.0000000000011 375.00000000000114 #
coedge $-1 $453 $281 $284 $377 reversed $304 $-1 #
coedge $-1 $281 $453 $306 $393 reversed $304 $-1 #
ellipse-curve $-1 0 0 1000.0000000000006 0 0 1 499.99999999999898 0 0 1 I I #
coedge $-1 $284 $283 $454 $455 forward $285 $-1 #
edge $-1 $456 -96.591619084495633 $286 -13.020429680435967 $284 $457 forward 7 unknown #
face $-1 $208 $285 $2 $-1 $458 reversed single #
point $-1 499.0186296183266 31.311456271584003 1000.0000000000006 #
coedge $-1 $293 $459 $288 $381 reversed $162 $-1 #
edge $-1 $295 57.861020240554701 $460 78.740157480315006 $288 $461 forward 7 unknown #
coedge $-1 $462 $454 $289 $383 reversed $332 $-1 #
edge $-1 $460 -78.740157480315006 $384 -57.861020240554701 $289 $463 forward 7 unknown #
vertex $-1 $290 $464 #
straight-curve $-1 265.16504294495456 265.16504294495456 669.99999999999966 -17.960512242138318 17.960512242138318 0 I I #
plane-surface $-1 0 0 669.99999999999966 0 0 -1 -25.399999999999999 0 0 forward_v I I I I #
straight-curve $-1 1469.6699141100894 -2000.0000000000011 0 0 0 -25.399999999999999 I I #
point $-1 1469.6699141100894 -2000.0000000000011 669.99999999999966 #
plane-surface $-1 -176.77669529663712 176.77669529663712 499.99999999999898 -0.70710678118654757 0.70710678118654757 0 0 0 25.399999999999999 forward_v I I I I #
loop $-1 $-1 $343 $303 #
plane-surface $-1 0 0 1000.0000000000006 0 0 1 25.399999999999999 0 0 forward_v I I I I #
coedge $-1 $307 $306 $419 $465 forward $308 $-1 #
edge $-1 $309 17.047744168984973 $466 101.51287892701531 $306 $467 forward 7 unknown #
point $-1 482.96291314453293 129.40952255126047 1000.0000000000006 #
edge $-1 $396 64.820732653808093 $314 71.780445067061606 $311 $468 forward 7 unknown #
vertex $-1 $312 $469 #
straight-curve $-1 176.77669529663712 -176.77669529663712 499.99999999999898 17.960512242138318 17.960512242138318 0 I I #
point $-1 2000.0000000000011 1823.2233047033646 499.99999999999898 #
coedge $-1 $459 $316 $470 $471 forward $162 $-1 #
edge $-1 $472 0 $317 14.7637795275591 $316 $473 forward 7 unknown #
point $-1 -2000.0000000000011 -2000.0000000000011 375.00000000000114 #
face $-1 $474 $370 $2 $-1 $475 forward single #
plane-surface $-1 -2000.0000000000011 0 0 -1 0 0 0 0 25.399999999999999 forward_v I I I I #
coedge $-1 $440 $476 $442 $477 forward $321 $-1 #
coedge $-1 $326 $323 $426 $478 forward $237 $-1 #
coedge $-1 $323 $413 $479 $480 forward $237 $-1 #
coedge $-1 $476 $440 $323 $408 reversed $321 $-1 #
edge $-1 $481 -96.591619084495633 $482 -13.020429680435967 $323 $483 forward 7 unknown #
coedge $-1 $325 $324 $428 $484 forward $167 $-1 #
edge $-1 $414 11.614173228346401 $429 24.606299212598401 $342 $485 forward 7 unknown #
coedge $-1 $486 $487 $325 $412 reversed $370 $-1 #
edge $-1 $488 -39.370078740157503 $415 -26.3779527559055 $325 $489 forward 7 unknown #
coedge $-1 $406 $326 $487 $490 forward $237 $-1 #
vertex $-1 $410 $491 #
vertex $-1 $327 $492 #
straight-curve $-1 265.16504294495456 265.16504294495456 669.99999999999966 -17.960512242138318 17.960512242138318 0 I I #
plane-surface $-1 0 0 499.99999999999898 0 0 -1 -25.399999999999999 0 0 forward_v I I I I #
coedge $-1 $330 $361 $337 $422 forward $241 $-1 #
coedge $-1 $493 $331 $392 $465 reversed $332 $-1 #
face $-1 $-1 $332 $2 $-1 $494 forward single #
coedge $-1 $495 $337 $496 $497 forward $251 $-1 #
edge $-1 $498 -39.370078740157503 $423 -19.685039370078702 $418 $499 forward 7 unknown #
vertex $-1 $364 $500 #
straight-curve $-1 -2000.0000000000011 0 499.99999999999898 0 -25.399999999999999 0 I I #
coedge $-1 $339 $501 $502 $503 forward $251 $-1 #
coedge $-1 $358 $342 $405 $478 reversed $20 $-1 #
coedge $-1 $504 $343 $346 $432 reversed $390 $-1 #
coedge $-1 $343 $504 $409 $484 reversed $390 $-1 #
vertex $-1 $344 $505 #
ellipse-curve $-1 0 0 1000.0000000000006 0 0 1 499.99999999999898 0 0 1 I I #
coedge $-1 $346 $345 $506 $507 forward $347 $-1 #
edge $-1 $508 -101.51287892701531 $348 -17.047744168984973 $346 $509 forward 7 unknown #
point $-1 129.40952255126047 482.96291314453293 1000.0000000000006 #
coedge $-1 $353 $506 $350 $435 reversed $370 $-1 #
edge $-1 $355 -71.780445067061606 $436 -64.820732653808093 $350 $510 forward 7 unknown #
vertex $-1 $351 $511 #
straight-curve $-1 -176.77669529663712 176.77669529663712 499.99999999999898 -17.960512242138318 -17.960512242138318 0 I I #
straight-curve $-1 1823.2233047033646 2000.0000000000011 0 0 0 25.399999999999999 I I #
point $-1 1823.2233047033646 2000.0000000000011 499.99999999999898 #
coedge $-1 $407 $404 $358 $441 forward $321 $-1 #
edge $-1 $444 -24.606299212598401 $482 -11.614173228346401 $358 $512 forward 7 unknown #
coedge $-1 $496 $359 $404 $477 reversed $301 $-1 #
coedge $-1 $359 $496 $361 $446 reversed $301 $-1 #
vertex $-1 $441 $513 #
ellipse-curve $-1 0 0 1000.0000000000006 0 0 1 499.99999999999898 0 0 1 I I #
edge $-1 $362 17.047744168984973 $498 101.51287892701531 $361 $514 forward 7 unknown #
point $-1 -482.96291314453293 -129.40952255126047 1000.0000000000006 #
straight-curve $-1 -176.77669529663712 176.77669529663712 499.99999999999898 -17.960512242138318 -17.960512242138318 0 I I #
coedge $-1 $366 $462 $515 $516 forward $332 $-1 #
edge $-1 $517 0 $367 14.7637795275591 $369 $518 forward 7 unknown #
point $-1 2000.0000000000011 2000.0000000000011 375.00000000000114 #
coedge $-1 $519 $369 $520 $521 forward $370 $-1 #
coedge $-1 $374 $373 $493 $522 reversed $304 $-1 #
coedge $-1 $382 $493 $376 $455 reversed $332 $-1 #
edge $-1 $384 26.3779527559055 $456 39.370078740157503 $376 $523 forward 7 unknown #
vertex $-1 $377 $524 #
straight-curve $-1 265.16504294495456 265.16504294495456 1000.0000000000006 -17.960512242138318 17.960512242138318 0 I I #
plane-surface $-1 265.16504294495456 265.16504294495456 669.99999999999966 0.70710678118654757 0.70710678118654757 0 0 0 -25.399999999999999 forward_v I I I I #
coedge $-1 $380 $399 $462 $525 forward $162 $-1 #
vertex $-1 $381 $526 #
straight-curve $-1 0 -2000.0000000000011 669.99999999999966 25.399999999999999 0 0 I I #
coedge $-1 $449 $382 $459 $525 reversed $332 $-1 #
straight-curve $-1 2000.0000000000011 0 669.99999999999966 0 25.399999999999999 0 I I #
point $-1 2000.0000000000011 -1469.6699141100894 669.99999999999966 #
edge $-1 $466 -39.370078740157503 $396 -19.685039370078702 $392 $527 forward 7 unknown #
vertex $-1 $393 $528 #
straight-curve $-1 176.77669529663712 -176.77669529663712 1000.0000000000006 17.960512242138318 17.960512242138318 0 I I #
straight-curve $-1 2000.0000000000011 0 499.99999999999898 0 25.399999999999999 0 I I #
point $-1 2000.0000000000011 1646.4466094067254 499.99999999999898 #
coedge $-1 $502 $515 $399 $471 reversed $529 $-1 #
edge $-1 $472 -78.740157480315006 $530 78.740157480315006 $399 $531 forward 7 unknown #
vertex $-1 $400 $532 #
straight-curve $-1 -2000.0000000000011 -2000.0000000000011 0 0 0 25.399999999999999 I I #
face $-1 $420 $529 $2 $-1 $533 forward single #
plane-surface $-1 0 2000.0000000000011 0 0 1 0 0 0 25.399999999999999 forward_v I I I I #
coedge $-1 $404 $407 $495 $534 forward $321 $-1 #
edge $-1 $535 -96.591619084495633 $444 -13.020429680435967 $404 $536 forward 7 unknown #
edge $-1 $482 -0.062663915584032739 $414 1.6334602423789293 $426 $537 forward 7 unknown #
coedge $-1 $501 $495 $406 $480 reversed $251 $-1 #
edge $-1 $538 -78.740157480315006 $481 -57.861020240554701 $406 $539 forward 7 unknown #
vertex $-1 $408 $540 #
vertex $-1 $478 $541 #
straight-curve $-1 -265.16504294495456 -265.16504294495456 669.99999999999966 17.960512242138318 -17.960512242138318 0 I I #
edge $-1 $429 13.020429680435967 $488 96.591619084495633 $409 $542 forward 7 unknown #
straight-curve $-1 31.311456271584003 499.0186296183266 375.00000000000114 0 0 25.399999999999999 I I #
coedge $-1 $506 $411 $504 $543 forward $370 $-1 #
coedge $-1 $411 $519 $413 $490 reversed $370 $-1 #
vertex $-1 $484 $544 #
straight-curve $-1 -1469.6699141100894 2000.0000000000011 0 0 0 -25.399999999999999 I I #
edge $-1 $415 57.861020240554701 $538 78.740157480315006 $413 $545 forward 7 unknown #
point $-1 31.311456271584003 499.0186296183266 669.99999999999966 #
point $-1 -1469.6699141100894 2000.0000000000011 669.99999999999966 #
coedge $-1 $454 $419 $453 $522 forward $332 $-1 #
plane-surface $-1 2000.0000000000011 0 0 1 0 0 0 0 -25.399999999999999 forward_v I I I I #
coedge $-1 $479 $421 $476 $534 reversed $251 $-1 #
coedge $-1 $443 $442 $421 $497 reversed $301 $-1 #
edge $-1 $498 -64.820732653808093 $535 57.861020240554701 $496 $546 forward 7 unknown #
vertex $-1 $446 $547 #
straight-curve $-1 -2000.0000000000011 -1646.4466094067254 0 0 0 -25.399999999999999 I I #
point $-1 -2000.0000000000011 -1646.4466094067254 499.99999999999898 #
coedge $-1 $425 $479 $519 $548 reversed $251 $-1 #
coedge $-1 $520 $470 $425 $503 reversed $529 $-1 #
edge $-1 $549 -78.740157480315006 $472 78.740157480315006 $425 $550 forward 7 unknown #
coedge $-1 $428 $427 $486 $543 reversed $390 $-1 #
point $-1 31.311456271584003 499.0186296183266 1000.0000000000006 #
coedge $-1 $434 $486 $431 $507 reversed $370 $-1 #
edge $-1 $436 19.685039370078702 $508 39.370078740157503 $431 $551 forward 7 unknown #
vertex $-1 $432 $552 #
straight-curve $-1 -176.77669529663712 176.77669529663712 1000.0000000000006 -17.960512242138318 -17.960512242138318 0 I I #
straight-curve $-1 0 2000.0000000000011 499.99999999999898 -25.399999999999999 0 0 I I #
point $-1 1646.4466094067254 2000.0000000000011 499.99999999999898 #
straight-curve $-1 -499.0186296183266 -31.311456271584003 375.00000000000114 0 0 -25.399999999999999 I I #
point $-1 -499.0186296183266 -31.311456271584003 1000.0000000000006 #
straight-curve $-1 -176.77669529663712 176.77669529663712 1000.0000000000006 -17.960512242138318 -17.960512242138318 0 I I #
coedge $-1 $470 $520 $449 $516 reversed $529 $-1 #
edge $-1 $530 -78.740157480315006 $517 78.740157480315006 $515 $553 forward 7 unknown #
vertex $-1 $450 $554 #
straight-curve $-1 2000.0000000000011 2000.0000000000011 0 0 0 25.399999999999999 I I #
coedge $-1 $487 $452 $501 $548 forward $370 $-1 #
coedge $-1 $515 $502 $452 $521 reversed $529 $-1 #
edge $-1 $517 -78.740157480315006 $549 78.740157480315006 $452 $555 forward 7 unknown #
edge $-1 $466 -64.820732653808093 $456 57.861020240554701 $453 $556 forward 7 unknown #
straight-curve $-1 2000.0000000000011 -1469.6699141100894 0 0 0 25.399999999999999 I I #
point $-1 2000.0000000000011 -1469.6699141100894 1000.0000000000006 #
edge $-1 $530 0 $460 26.3779527559055 $459 $557 forward 7 unknown #
point $-1 2000.0000000000011 -2000.0000000000011 669.99999999999966 #
straight-curve $-1 2000.0000000000011 1646.4466094067254 0 0 0 -25.399999999999999 I I #
point $-1 2000.0000000000011 1646.4466094067254 1000.0000000000006 #
loop $-1 $-1 $515 $474 #
vertex $-1 $471 $558 #
straight-curve $-1 0 -2000.0000000000011 0 25.399999999999999 0 0 I I #
point $-1 -2000.0000000000011 -2000.0000000000011 0 #
plane-surface $-1 0 0 0 0 0 -1 -25.399999999999999 0 0 forward_v I I I I #
edge $-1 $481 26.3779527559055 $535 39.370078740157503 $476 $559 forward 7 unknown #
vertex $-1 $477 $560 #
straight-curve $-1 -265.16504294495456 -265.16504294495456 1000.0000000000006 17.960512242138318 -17.960512242138318 0 I I #
ellipse-curve $-1 0 0 669.99999999999966 0 0 -1 -499.99999999999898 0 0 1 I I #
vertex $-1 $490 $561 #
straight-curve $-1 -2000.0000000000011 0 669.99999999999966 0 -25.399999999999999 0 I I #
point $-1 -2000.0000000000011 1469.6699141100894 669.99999999999966 #
point $-1 -499.0186296183266 -31.311456271584003 669.99999999999966 #
straight-curve $-1 265.16504294495456 265.16504294495456 1000.0000000000006 -17.960512242138318 17.960512242138318 0 I I #
edge $-1 $488 -57.861020240554701 $508 64.820732653808093 $504 $562 forward 7 unknown #
point $-1 -1469.6699141100894 2000.0000000000011 1000.0000000000006 #
straight-curve $-1 0 2000.0000000000011 669.99999999999966 -25.399999999999999 0 0 I I #
straight-curve $-1 -2000.0000000000011 0 1000.0000000000006 0 25.399999999999999 0 I I #
point $-1 -2000.0000000000011 -1646.4466094067254 1000.0000000000006 #
edge $-1 $549 0 $538 26.3779527559055 $501 $563 forward 7 unknown #
vertex $-1 $548 $564 #
straight-curve $-1 -2000.0000000000011 0 0 0 -25.399999999999999 0 I I #
straight-curve $-1 1646.4466094067254 2000.0000000000011 0 0 0 25.399999999999999 I I #
point $-1 1646.4466094067254 2000.0000000000011 1000.0000000000006 #
straight-curve $-1 2000.0000000000011 0 0 0 25.399999999999999 0 I I #
point $-1 2000.0000000000011 2000.0000000000011 0 #
straight-curve $-1 0 2000.0000000000011 0 -25.399999999999999 0 0 I I #
straight-curve $-1 2000.0000000000011 0 1000.0000000000006 0 -25.399999999999999 0 I I #
straight-curve $-1 2000.0000000000011 -2000.0000000000011 0 0 0 25.399999999999999 I I #
point $-1 2000.0000000000011 -2000.0000000000011 0 #
straight-curve $-1 -2000.0000000000011 1469.6699141100894 0 0 0 25.399999999999999 I I #
point $-1 -2000.0000000000011 1469.6699141100894 1000.0000000000006 #
point $-1 -2000.0000000000011 2000.0000000000011 669.99999999999966 #
straight-curve $-1 0 2000.0000000000011 1000.0000000000006 25.399999999999999 0 0 I I #
straight-curve $-1 -2000.0000000000011 2000.0000000000011 0 0 0 25.399999999999999 I I #
point $-1 -2000.0000000000011 2000.0000000000011 0 #
End-of-ACIS-data 