**ABCDEFGHIJKLMNOPQRSTUVWXYZabcdefghijklmnopqrstuvwxyz**************************
**PARASOLID !"#$%&'()*+,-./:;<=>?@[\]^_`{|}~0123456789**************************
**PART1;MC=sparc;MC_MODEL=sun4;MC_ID=bedlam;OS=SunOS;OS_RELEASE=4.1.1;FRU=sdl_pa
rasolid_test_sparc;APPL=unknown;SITE=sdl-cambridge-u.k.;USER=regli;FORMAT=text;G
UISE=transmit;KEY=vand_orig;FILE=vand_orig.xmt_txt;DATE=22-jan-1993;
**PART2;SCH=SCH_401021_4039;USFLD_SIZE=0;
**PART3;
**END_OF_HEADER*****************************************************************
T50 : TRANSMIT FILE created by modeller version 40102115 SCH_401021_40390 12 1 1
092 0 0 0 0 0 1e3 1e-8 2 2 0 0 0 1 3 1e-8 0 0 102 9 2 vand_orig13 3 2 0 1 0 4 5
 6 7 8 9 14 4 971 0 10 0 11 3 7 -16 5 982 0 12 0 13 8 18 6 1010 0 14 0 15 9 51 7
 1035 0 4 16 0 0 +0 0 .375 0 0 1 .5 1 0 0 30 8 1040 0 5 17 0 0 -1e-8 -.253938250
7924105 -.4307149460890475 .375 0 0 1 29 9 1068 0 6 18 0 -.2539382507924105 -.43
07149460890475 .5 29 18 1069 0 15 19 9 -.1294095225512604 -.482962913144534 .5 1
8 15 1011 0 20 6 21 18 29 19 1070 0 21 22 18 -.1294095225512604 -.48296291314453
4 1 18 21 1012 0 23 15 24 19 29 22 1071 0 24 25 19 -.03131145627158395 -.4990186
29618327 1 18 24 1013 0 26 21 27 22 29 25 1072 0 27 28 22 .4307149460890475 .253
9382507924105 .5 18 27 1014 0 29 24 30 25 29 28 1073 0 30 31 25 -.03131145627158
395 -.499018629618327 .67 18 30 1015 0 32 27 33 28 29 31 1074 0 33 34 28 .499018
629618327 .031311456271584 .67 18 33 1016 0 35 30 36 31 29 34 1075 0 36 37 31 .4
82962913144534 .1294095225512604 .5 18 36 1017 0 38 33 39 34 29 37 1076 0 39 40
 34 .482962913144534 .1294095225512604 1 18 39 1018 0 41 36 42 37 29 40 1077 0 4
2 43 37 .499018629618327 .031311456271584 1 18 42 1019 0 44 39 45 40 29 43 1078
 0 45 46 40 -.4307149460890475 -.2539382507924105 .5 18 45 1020 0 47 42 48 43 29
 46 1079 0 48 49 43 -.482962913144534 -.1294095225512604 .5 18 48 1021 0 50 45 5
1 46 29 49 1080 0 51 52 46 -.482962913144534 -.1294095225512604 1 18 51 1022 0 5
3 48 54 49 29 52 1081 0 54 55 49 -.499018629618327 -.031311456271584 1 18 54 102
3 0 56 51 57 52 29 55 1082 0 57 58 52 -.499018629618327 -.031311456271584 .67 18
 57 1024 0 59 54 60 55 29 58 1083 0 60 61 55 .2539382507924105 .4307149460890475
 .5 18 60 1025 0 62 57 63 58 29 61 1084 0 63 64 58 .03131145627158395 .499018629
618327 .67 18 63 1026 0 65 60 66 61 29 64 1085 0 66 67 61 .1294095225512604 .482
962913144534 .5 18 66 1027 0 68 63 69 64 29 67 1086 0 69 70 64 .0313114562715839
5 .499018629618327 1 18 69 1028 0 71 66 72 67 29 70 1088 0 72 73 67 -.2539382507
924105 -.4307149460890475 .375 18 72 1030 0 12 69 74 70 29 73 1089 0 74 75 70 -.
4307149460890475 -.2539382507924105 .375 18 74 1031 0 76 72 77 73 29 75 1090 0 7
7 78 73 .2539382507924105 .4307149460890475 .375 18 77 1032 0 79 74 80 75 29 78
 1091 0 80 81 75 .4307149460890475 .2539382507924105 .375 18 80 1033 0 82 77 83
 78 29 81 757 0 83 84 78 .1294095225512604 .482962913144534 1 18 83 755 0 85 80
 86 81 29 84 729 0 86 87 81 -2 -1.823223304703365 .5 18 86 675 0 88 83 89 84 29
 87 730 0 89 90 84 1.823223304703365 2 .5 18 89 676 0 91 86 92 87 29 90 731 0 92
 93 87 -1.823223304703365 -2 .5 18 92 677 0 94 89 95 90 29 93 732 0 95 96 90 2 1
.823223304703365 .5 18 95 678 0 97 92 98 93 29 96 733 0 98 99 93 -2 -2 .375 18 9
8 679 0 100 95 101 96 29 99 734 0 101 102 96 2 2 .375 18 101 680 0 103 98 104 99
 29 102 735 0 104 105 99 -2 -1.823223304703365 .375 18 104 681 0 106 101 107 102
 29 105 736 0 107 108 102 1.823223304703365 2 .375 18 107 682 0 109 104 110 105
 29 108 738 0 110 111 105 -1.823223304703365 -2 .375 18 110 684 0 112 107 113 10
8 29 111 568 0 113 114 108 2 1.823223304703365 .375 18 113 566 0 115 110 116 111
 29 114 525 0 116 117 111 -2 1.46966991411009 1 18 116 447 0 118 113 119 114 29
 117 527 0 119 120 114 -1.46966991411009 2 1 18 119 449 0 121 116 122 117 29 120
 530 0 122 123 117 -2 2 .67 18 122 452 0 124 119 125 120 29 123 539 0 125 126 12
0 -2 1.46966991411009 .67 18 125 461 0 127 122 128 123 29 126 536 0 129 130 123
 1.46966991411009 -2 .67 18 129 458 0 131 132 133 126 29 130 535 0 128 134 126 2
 -1.46966991411009 .67 18 128 457 0 135 125 136 130 29 134 529 0 136 137 130 2 -
1.46966991411009 1 18 136 451 0 138 128 132 134 29 137 523 0 132 139 134 1.46966
991411009 -2 1 18 132 445 0 140 136 129 137 29 139 280 0 133 141 137 -1.46966991
411009 2 .67 18 133 278 0 142 129 143 139 29 141 259 0 143 144 139 2 -2 .67 18 1
43 257 0 145 133 146 141 29 144 231 0 146 147 141 -2 -1.646446609406725 1 18 146
 177 0 148 143 149 144 29 147 232 0 149 150 144 1.646446609406725 2 1 18 149 178
 0 151 146 152 147 29 150 233 0 152 153 147 -1.646446609406725 -2 1 18 152 179 0
 154 149 155 150 29 153 234 0 155 156 150 2 1.646446609406725 1 18 155 180 0 157
 152 158 153 29 156 237 0 158 159 153 -2 -1.646446609406725 .5 18 158 183 0 160
 155 161 156 29 159 238 0 161 162 156 1.646446609406725 2 .5 18 161 184 0 163 15
8 164 159 29 162 240 0 164 165 159 -1.646446609406725 -2 .5 18 164 186 0 166 161
 167 162 29 165 70 0 167 168 162 2 1.646446609406725 .5 18 167 68 0 169 164 170
 165 29 168 38 0 171 172 165 -2 -2 0 18 171 8 0 173 174 175 168 29 172 37 0 174
 176 168 -2 2 0 18 174 10 0 177 170 171 172 29 176 36 0 170 178 172 2 2 0 18 170
 12 0 179 167 174 176 29 178 35 0 175 0 176 2 -2 0 18 175 7 0 180 171 0 178 17 1
80 181 182 183 175 184 185 0 15 181 614 0 112 186 0 17 182 181 187 180 143 188 1
89 0 17 183 181 180 100 171 190 191 0 17 184 192 193 194 171 180 185 0 16 185 9
 0 180 195 196 197 16 195 11 0 173 198 185 199 16 196 3 0 179 185 0 200 30 197 3
9 0 185 0 200 0 +1e-8 0 -2 0 1 0 0 30 200 40 0 196 197 201 0 +1e-8 2 0 0 0 1 0 3
0 201 41 0 198 200 199 0 +1e-8 0 2 0 -1 0 0 16 198 13 0 177 189 195 201 30 199 4
2 0 195 201 202 0 +1e-8 -2 0 0 0 -1 0 30 202 47 0 189 199 203 0 +1e-8 2 -2 0 0 0
 1 16 189 15 0 182 204 198 202 30 203 48 0 204 202 205 0 +1e-8 2 2 0 0 0 1 16 20
4 17 0 206 207 189 203 30 205 49 0 207 203 208 0 +1e-8 -2 2 0 0 0 1 16 207 19 0
 209 191 204 205 30 208 50 0 191 205 210 0 +1e-8 -2 -2 0 0 0 1 16 191 21 0 190 2
11 207 208 30 210 67 0 211 208 212 0 +1e-8 2 0 1 0 -1 0 16 211 65 0 213 214 191
 210 30 212 74 0 214 210 215 0 +1e-8 2 1.646446609406725 0 0 0 -1 16 214 72 0 21
6 217 211 212 30 215 97 0 217 212 218 0 +1e-8 -2 0 1 0 1 0 16 217 95 0 219 220 2
14 215 30 218 218 0 220 215 221 0 +1e-8 .176776695296637 -.176776695296637 .5 .7
07106781186548 .707106781186548 0 16 220 164 0 222 223 217 218 30 221 216 0 223
 218 224 0 +1e-8 -.176776695296637 .176776695296637 .5 -.707106781186548 -.70710
6781186548 0 16 223 162 0 225 226 220 221 30 224 214 0 226 221 227 0 +1e-8 2 0 .
5 0 1 0 16 226 160 0 228 229 223 224 30 227 212 0 229 224 230 0 +1e-8 -2 0 .5 0
 -1 0 16 229 158 0 231 232 226 227 30 230 209 0 232 227 233 0 +1e-8 .17677669529
6637 -.176776695296637 1 .707106781186548 .707106781186548 0 16 232 155 0 234 23
5 229 230 30 233 208 0 235 230 236 0 +1e-8 -1.646446609406725 -2 0 0 0 1 16 235
 154 0 237 238 232 233 30 236 207 0 238 233 239 0 +1e-8 1.646446609406725 2 0 0
 0 1 16 238 153 0 240 241 235 236 30 239 206 0 241 236 242 0 +1e-8 -.17677669529
6637 .176776695296637 1 -.707106781186548 -.707106781186548 0 16 241 152 0 243 2
44 238 239 30 242 205 0 244 239 245 0 +1e-8 -2 -1.646446609406725 0 0 0 -1 16 24
4 151 0 246 247 241 242 30 245 277 0 247 242 248 0 +1e-8 0 2 1 1 0 0 16 247 275
 0 249 250 244 245 30 248 284 0 250 245 251 0 +1e-8 -1.46966991411009 2 0 0 0 -1
 16 250 282 0 252 253 247 248 30 251 303 0 253 248 254 0 +1e-8 0 -2 1 -1 0 0 16
 253 301 0 255 256 250 251 30 254 307 0 256 251 257 0 +1e-8 0 -2 .67 1 0 0 16 25
6 305 0 258 259 253 254 30 257 486 0 259 254 260 0 +1e-8 1.46966991411009 -2 0 0
 0 -1 16 259 408 0 261 262 256 257 30 260 494 0 263 257 264 0 +1e-8 .26516504294
49555 .2651650429449555 1 -.707106781186548 .707106781186548 0 16 263 416 0 265
 266 262 260 30 264 495 0 266 260 267 0 +1e-8 2 -1.46966991411009 0 0 0 1 16 266
 417 0 268 269 263 264 30 267 501 0 269 264 270 0 +1e-8 2 0 .67 0 1 0 16 269 423
 0 271 272 266 267 30 270 505 0 262 267 273 0 +1e-8 .2651650429449555 .265165042
9449555 .67 -.707106781186548 .707106781186548 0 16 262 427 0 274 263 259 270 30
 273 509 0 272 270 275 0 +1e-8 -.2651650429449555 -.2651650429449555 .67 .707106
781186548 -.707106781186548 0 16 272 431 0 276 277 269 273 30 275 499 0 277 273
 278 0 +1e-8 0 2 .67 -1 0 0 16 277 421 0 279 280 272 275 30 278 498 0 280 275 28
1 0 +1e-8 -2 0 .67 0 -1 0 16 280 420 0 282 283 277 278 30 281 489 0 283 278 284
 0 +1e-8 -2 1.46966991411009 0 0 0 1 16 283 411 0 285 286 280 281 30 284 488 0 2
86 281 287 0 +1e-8 -.2651650429449555 -.2651650429449555 1 .707106781186548 -.70
7106781186548 0 16 286 410 0 288 289 283 284 30 287 572 0 289 284 290 0 +1e-8 2
 1.823223304703365 0 0 0 -1 16 289 570 0 291 292 286 287 30 290 578 0 292 287 29
3 0 +1e-8 0 2 .5 -1 0 0 16 292 576 0 294 295 289 290 30 293 608 0 295 290 296 0
 +1e-8 0 -2 .5 1 0 0 16 295 606 0 297 298 292 293 30 296 716 0 298 293 299 0 +1e
-8 .0883883476483184 -.0883883476483185 .375 .707106781186548 .707106781186548 0
 16 298 662 0 300 301 295 296 30 299 714 0 301 296 302 0 +1e-8 -.088388347648318
4 .0883883476483185 .375 -.707106781186548 -.707106781186548 0 16 301 660 0 303
 304 298 299 30 302 712 0 304 299 305 0 +1e-8 2 0 .375 0 1 0 16 304 658 0 306 30
7 301 302 30 305 711 0 307 302 308 0 +1e-8 0 2 .375 -1 0 0 16 307 657 0 309 310
 304 305 30 308 710 0 310 305 311 0 +1e-8 -2 0 .375 0 -1 0 16 310 656 0 312 313
 307 308 30 311 709 0 313 308 314 0 +1e-8 0 -2 .375 1 0 0 16 313 655 0 315 316 3
10 311 30 314 707 0 316 311 317 0 +1e-8 .0883883476483184 -.0883883476483185 .5
 -.707106781186548 -.707106781186548 0 16 316 653 0 318 319 313 314 30 317 706 0
 319 314 320 0 +1e-8 -1.823223304703365 -2 0 0 0 1 16 319 652 0 321 322 316 317
 30 320 705 0 322 317 323 0 +1e-8 1.823223304703365 2 0 0 0 1 16 322 651 0 324 3
25 319 320 30 323 704 0 325 320 326 0 +1e-8 -.0883883476483184 .0883883476483185
 .5 .707106781186548 .707106781186548 0 16 325 650 0 327 328 322 323 30 326 703
 0 328 323 329 0 +1e-8 -2 -1.823223304703365 0 0 0 -1 16 328 649 0 330 331 325 3
26 30 329 754 0 331 326 332 0 +1e-8 .2651650429449555 .2651650429449555 1 -.7071
06781186548 .707106781186548 0 16 331 752 0 333 334 328 329 30 332 771 0 334 329
 335 0 +1e-8 .176776695296637 -.176776695296637 1 .707106781186548 .707106781186
548 0 16 334 769 0 336 337 331 332 30 335 784 0 337 332 338 0 +1e-8 -.0883883476
483184 .0883883476483185 .5 .707106781186548 .707106781186548 0 16 337 782 0 91
 339 334 335 30 338 792 0 339 335 340 0 +1e-8 -.176776695296637 .176776695296637
 .5 -.707106781186548 -.707106781186548 0 16 339 790 0 341 342 337 338 30 340 81
4 0 342 338 343 0 +1e-8 .176776695296637 -.176776695296637 .5 .707106781186548 .
707106781186548 0 16 342 812 0 344 345 339 340 30 343 828 0 345 340 346 0 +1e-8
 -.176776695296637 .176776695296637 1 -.707106781186548 -.707106781186548 0 16 3
45 826 0 347 348 342 343 30 346 831 0 348 343 349 0 -1e-8 .1294095225512604 .482
962913144534 .375 0 0 1 16 348 829 0 68 350 345 346 30 349 851 0 350 346 351 0 +
1e-8 -.2651650429449555 -.2651650429449555 1 .707106781186548 -.707106781186548
 0 16 350 849 0 352 353 348 349 30 351 860 0 353 349 354 0 +1e-8 -.2651650429449
555 -.2651650429449555 .67 .707106781186548 -.707106781186548 0 16 353 858 0 131
 355 350 351 30 354 892 0 355 351 356 0 +1e-8 .2651650429449555 .265165042944955
5 .67 -.707106781186548 .707106781186548 0 16 355 890 0 357 358 353 354 30 356 9
10 0 358 354 359 0 +1e-8 .0883883476483184 -.0883883476483185 .5 -.7071067811865
48 -.707106781186548 0 16 358 908 0 94 360 355 356 30 359 928 0 360 356 361 0 +1
e-8 .0883883476483184 -.0883883476483185 .375 .707106781186548 .707106781186548
 0 16 360 926 0 362 363 358 359 30 361 936 0 363 359 364 0 +1e-8 -.0883883476483
184 .0883883476483185 .375 -.707106781186548 -.707106781186548 0 16 363 934 0 36
5 366 360 361 31 364 1067 0 366 361 367 0 +1e-8 0 0 .375 0 0 1 1 0 0 .5 16 366 1
009 0 368 369 363 364 31 367 1065 0 369 364 370 0 +1e-8 0 0 .125 0 0 1 1 0 0 .12
5 16 369 1007 0 371 372 366 367 31 370 1064 0 372 367 373 0 +1e-8 0 0 .375 0 0 1
 1 0 0 .5 16 372 1006 0 374 375 369 370 31 373 1063 0 375 370 376 0 +1e-8 0 0 .3
75 0 0 1 1 0 0 .5 16 375 1005 0 377 378 372 373 31 376 1062 0 378 373 379 0 +1e-
8 0 0 .375 0 0 1 1 0 0 .5 16 378 1004 0 380 381 375 376 31 379 1061 0 381 376 38
2 0 +1e-8 0 0 1 0 0 1 1 0 0 .5 16 381 1003 0 383 384 378 379 30 382 1059 0 384 3
79 385 0 +1e-8 .03131145627158395 .499018629618327 .375 0 0 1 16 384 1001 0 71 3
86 381 382 31 385 1058 0 386 382 387 0 +1e-8 0 0 .5 0 0 -1 -1 0 0 .5 16 386 1000
 0 62 388 384 385 31 387 1057 0 388 385 389 0 +1e-8 0 0 .67 0 0 -1 -1 0 0 .5 16
 388 999 0 65 390 386 387 30 389 1056 0 390 387 391 0 -1e-8 .2539382507924105 .4
307149460890475 .375 0 0 1 16 390 998 0 79 392 388 389 30 391 1055 0 392 389 393
 0 -1e-8 -.499018629618327 -.031311456271584 .375 0 0 1 16 392 997 0 59 394 390
 391 31 393 1054 0 394 391 395 0 +1e-8 0 0 1 0 0 1 1 0 0 .5 16 394 996 0 396 397
 392 393 30 395 1053 0 397 393 398 0 +1e-8 -.482962913144534 -.1294095225512604
 .375 0 0 1 16 397 995 0 53 399 394 395 31 398 1052 0 399 395 400 0 +1e-8 0 0 .5
 0 0 -1 -1 0 0 .5 16 399 994 0 50 401 397 398 30 400 1051 0 401 398 402 0 +1e-8
 -.4307149460890475 -.2539382507924105 .375 0 0 1 16 401 993 0 47 403 399 400 31
 402 1050 0 403 400 404 0 +1e-8 0 0 1 0 0 1 1 0 0 .5 16 403 992 0 405 406 401 40
2 30 404 1049 0 406 402 407 0 +1e-8 .482962913144534 .1294095225512604 .375 0 0
 1 16 406 991 0 41 408 403 404 30 407 1048 0 408 404 409 0 -1e-8 .49901862961832
7 .031311456271584 .375 0 0 1 16 408 990 0 35 410 406 407 31 409 1047 0 410 407
 411 0 +1e-8 0 0 .67 0 0 -1 -1 0 0 .5 16 410 989 0 32 412 408 409 31 411 1046 0
 412 409 413 0 +1e-8 0 0 .5 0 0 -1 -1 0 0 .5 16 412 988 0 38 414 410 411 30 413
 1045 0 414 411 415 0 +1e-8 .4307149460890475 .2539382507924105 .375 0 0 1 16 41
4 987 0 29 416 412 413 30 415 1044 0 416 413 417 0 +1e-8 -.03131145627158395 -.4
99018629618327 .375 0 0 1 16 416 986 0 26 418 414 415 31 417 1043 0 418 415 419
 0 +1e-8 0 0 1 0 0 1 1 0 0 .5 16 418 985 0 420 421 416 417 30 419 1042 0 421 417
 17 0 -1e-8 -.1294095225512604 -.482962913144534 .375 0 0 1 16 421 984 0 20 13 4
18 419 31 17 1041 0 13 419 8 0 +1e-8 0 0 .5 0 0 -1 -1 0 0 .5 16 13 983 0 14 5 42
1 17 17 14 422 94 222 6 423 13 0 15 422 619 0 222 424 0 17 94 422 297 14 92 425
 358 0 17 222 422 14 297 15 426 220 0 17 423 11 427 428 15 14 13 0 15 11 972 0 4
23 4 0 17 427 11 420 423 21 20 421 0 17 428 11 423 429 6 12 5 0 17 429 11 428 43
0 72 380 378 0 17 12 431 432 425 72 428 5 0 15 431 632 0 425 433 0 17 432 431 32
1 12 110 300 298 0 17 425 431 12 321 6 94 358 0 17 321 431 425 432 92 112 319 0
 17 112 181 100 434 110 321 319 0 17 100 181 183 112 98 315 313 0 17 434 181 112
 166 92 297 295 0 17 166 181 434 255 164 237 235 0 17 297 422 222 94 164 434 295
 0 17 255 181 166 140 152 435 253 0 17 237 436 234 426 152 166 235 0 15 436 350
 0 234 437 0 17 234 436 20 237 21 154 232 0 17 426 436 237 20 164 222 220 0 17 2
0 436 426 234 15 427 421 0 17 154 438 435 23 152 234 232 0 15 438 853 0 23 439 0
 17 435 438 440 154 132 255 253 0 17 23 438 154 440 21 420 418 0 17 440 438 23 4
35 24 352 350 0 17 420 11 441 427 24 23 418 0 17 441 11 442 420 30 26 416 0 17 4
42 11 443 441 33 32 410 0 17 26 444 352 445 24 441 416 0 15 444 381 0 445 446 0
 17 352 444 261 26 132 440 350 0 17 445 444 26 261 30 131 353 0 17 261 444 445 3
52 129 140 259 0 17 131 447 258 32 129 445 353 0 15 447 391 0 274 448 0 17 258 4
47 271 131 143 187 256 0 17 32 447 131 274 30 442 410 0 17 274 447 32 271 33 449
 262 0 17 271 447 274 258 128 145 269 0 17 449 450 268 35 128 274 262 0 15 450 4
01 0 265 451 0 17 268 450 265 449 136 135 266 0 17 35 450 449 265 33 443 408 0 1
7 265 450 35 268 42 138 263 0 17 443 11 405 442 42 35 408 0 17 405 11 452 443 39
 44 403 0 17 452 11 453 405 36 41 406 0 17 44 454 138 455 42 405 403 0 15 454 77
3 0 44 456 0 17 138 454 457 44 136 265 263 0 17 455 454 44 457 39 336 334 0 17 4
57 454 455 138 155 213 211 0 17 336 458 216 41 155 455 334 0 15 458 816 0 459 46
0 0 17 216 458 459 336 167 157 214 0 17 41 458 336 459 39 452 406 0 17 459 458 4
1 216 36 344 342 0 17 344 461 228 38 167 459 342 0 15 461 912 0 318 462 0 17 228
 461 318 344 95 169 226 0 17 38 461 344 318 36 453 412 0 17 318 461 38 228 27 46
3 316 0 17 453 11 430 452 27 38 412 0 17 430 11 429 453 80 29 414 0 17 29 464 46
3 465 27 430 414 0 15 464 948 0 465 466 0 17 463 464 291 29 95 318 316 0 17 465
 464 29 291 80 362 360 0 17 291 464 465 463 113 97 289 0 17 362 467 306 82 113 4
65 360 0 15 467 938 0 303 468 0 17 306 467 309 362 101 115 304 0 17 82 467 362 3
03 80 368 366 0 17 303 467 82 309 77 469 301 0 17 368 470 374 380 77 82 366 0 15
 470 977 0 368 471 0 17 374 470 377 368 74 472 372 0 17 380 470 368 377 80 429 3
78 0 17 377 470 380 374 72 76 375 0 17 76 473 365 300 74 377 375 0 15 473 634 0
 300 474 0 17 365 473 312 76 104 475 363 0 17 300 473 76 315 72 432 298 0 17 315
 473 300 312 110 100 313 0 17 312 473 315 365 98 106 310 0 17 106 476 88 190 104
 312 310 0 15 476 601 0 88 477 0 17 88 476 160 106 86 330 328 0 17 190 476 106 1
73 98 183 191 0 17 173 476 190 478 171 193 195 0 17 478 476 173 124 174 209 207
 0 17 193 192 479 184 174 173 195 0 15 192 5 0 194 480 0 17 479 192 194 193 170
 177 198 0 17 194 192 184 479 175 179 196 0 17 177 481 209 482 174 479 198 0 15
 481 584 0 109 483 0 17 209 481 142 177 122 478 207 0 17 482 481 177 103 170 206
 204 0 17 103 481 482 109 101 309 307 0 17 206 484 115 179 101 482 204 0 15 484
 571 0 97 485 0 17 115 484 97 206 113 306 304 0 17 179 484 206 188 170 194 196 0
 17 188 484 179 145 175 182 189 0 17 145 484 188 135 143 271 269 0 17 135 484 14
5 213 128 268 266 0 17 213 484 135 157 136 457 211 0 17 157 484 213 169 155 216
 214 0 17 169 484 157 97 167 228 226 0 17 97 484 169 115 95 291 289 0 14 485 1 0
 0 480 484 3 486 +14 480 6 0 485 483 192 3 487 +50 486 43 0 485 487 488 0 +2 0 0
 1 0 0 0 0 -1 50 487 34 0 480 0 486 0 +0 0 0 0 0 -1 -1 0 0 50 488 44 0 483 486 4
89 0 +0 2 0 0 1 0 0 0 1 14 483 24 0 480 477 481 3 488 +50 489 45 0 477 488 490 0
 +-2 0 0 -1 0 0 0 0 1 14 477 27 0 483 186 476 3 489 +50 490 46 0 186 489 491 0 +
0 -2 0 0 -1 0 0 0 -1 14 186 30 0 477 492 181 3 490 +50 491 51 0 492 490 493 0 +0
 0 1 0 0 1 1 0 0 14 492 33 0 186 456 494 3 491 +50 493 124 0 456 491 495 0 +0 0
 1 0 0 1 1 0 0 14 456 123 0 492 496 454 3 493 +50 495 197 0 496 493 497 0 +0 0 .
5 0 0 -1 -.707106781186548 -.707106781186548 0 14 496 135 0 456 437 498 3 495 -5
0 497 196 0 437 495 499 0 +.176776695296637 -.176776695296637 .5 .70710678118654
8 -.707106781186548 0 0 0 -1 14 437 133 0 496 500 436 3 497 -50 499 195 0 500 49
7 501 0 +-.176776695296637 .176776695296637 .5 -.707106781186548 .70710678118654
8 0 0 0 1 14 500 131 0 437 502 503 3 499 -50 501 325 0 502 499 504 0 +0 0 1 0 0
 1 1 0 0 14 502 324 0 500 439 505 3 501 +50 504 343 0 439 501 506 0 +0 0 1 0 0 1
 1 0 0 14 439 342 0 502 446 438 3 504 +50 506 471 0 446 504 507 0 +-.26516504294
49555 -.2651650429449555 .67 -.707106781186548 -.707106781186548 0 0 0 -1 14 446
 380 0 439 451 444 3 506 -50 507 476 0 448 506 508 0 +0 0 .67 0 0 -1 -.707106781
186548 .707106781186548 0 14 448 390 0 451 509 447 3 507 -50 508 481 0 451 507 5
10 0 +.2651650429449555 .2651650429449555 .67 .707106781186548 .707106781186548
 0 0 0 1 14 451 400 0 446 448 450 3 508 -50 510 479 0 509 508 511 0 +-.265165042
9449555 -.2651650429449555 .67 -.707106781186548 -.707106781186548 0 0 0 -1 14 5
09 396 0 448 512 513 3 510 -50 511 475 0 512 510 514 0 +0 0 .67 0 0 -1 -.7071067
81186548 .707106781186548 0 14 512 388 0 509 515 516 3 511 -50 514 473 0 515 511
 517 0 +.2651650429449555 .2651650429449555 .67 .707106781186548 .70710678118654
8 0 0 0 1 14 515 384 0 512 424 518 3 514 -50 517 622 0 424 514 519 0 +0 0 .5 0 0
 -1 -.707106781186548 -.707106781186548 0 14 424 621 0 515 474 422 3 517 -50 519
 695 0 474 517 520 0 +0 0 .375 0 0 -1 -.707106781186548 -.707106781186548 0 14 4
74 633 0 424 433 473 3 519 -50 520 694 0 433 519 521 0 +.0883883476483184 -.0883
883476483185 .375 .707106781186548 -.707106781186548 0 0 0 -1 14 433 631 0 474 5
22 431 3 520 -50 521 693 0 522 520 523 0 +-.0883883476483184 .0883883476483185 .
375 -.707106781186548 .707106781186548 0 0 0 1 14 522 629 0 433 524 525 3 521 -5
0 523 797 0 524 521 526 0 +0 0 .5 0 0 -1 -.707106781186548 -.707106781186548 0 1
4 524 796 0 522 460 527 3 523 -50 526 819 0 460 523 528 0 +.176776695296637 -.17
6776695296637 .5 .707106781186548 -.707106781186548 0 0 0 -1 14 460 818 0 524 52
9 458 3 526 -50 528 833 0 529 526 530 0 +-.176776695296637 .176776695296637 .5 -
.707106781186548 .707106781186548 0 0 0 1 14 529 832 0 460 462 531 3 528 -50 530
 915 0 462 528 532 0 +0 0 .5 0 0 -1 -.707106781186548 -.707106781186548 0 14 462
 914 0 529 468 461 3 530 -50 532 941 0 468 530 533 0 +0 0 .375 0 0 -1 -.70710678
1186548 -.707106781186548 0 14 468 940 0 462 466 467 3 532 -50 533 951 0 466 532
 534 0 +.0883883476483184 -.0883883476483185 .375 .707106781186548 -.70710678118
6548 0 0 0 -1 14 466 950 0 468 535 464 3 533 -50 534 961 0 535 533 536 0 +-.0883
883476483184 .0883883476483185 .375 -.707106781186548 .707106781186548 0 0 0 1 1
4 535 960 0 466 537 538 3 534 -51 536 1038 0 537 534 539 0 +0 0 .375 0 0 1 .5 1
 0 0 14 537 980 0 535 471 540 3 536 -50 539 1037 0 10 536 16 0 +0 0 .125 0 0 -1
 -1 0 0 14 10 973 0 471 4 541 3 539 -52 16 1036 0 471 539 7 0 +0 0 .125 0 0 1 .1
25 .832050294337844 .554700196225229 1 0 0 14 471 975 0 537 10 542 3 16 -15 542
 976 0 543 471 470 17 543 542 543 543 0 371 369 0 17 371 541 371 371 0 543 369 0
 15 541 974 0 371 10 0 15 540 981 0 472 537 0 17 472 540 544 545 77 374 372 0 17
 544 540 546 472 60 79 390 0 17 545 540 472 547 74 47 401 0 17 547 540 545 548 4
5 50 399 0 17 47 538 549 475 45 545 401 0 15 538 958 0 475 535 0 17 549 538 330
 47 86 327 325 0 17 475 538 47 330 74 365 363 0 17 330 538 475 549 104 88 328 0
 17 327 498 50 231 45 549 325 0 15 498 136 0 327 496 0 17 50 498 341 327 48 547
 399 0 17 231 498 327 341 86 160 229 0 17 341 498 231 50 158 550 339 0 17 160 47
6 148 88 158 231 229 0 17 148 476 219 160 146 246 244 0 17 219 476 127 148 116 5
51 217 0 17 246 531 550 347 158 148 244 0 15 531 830 0 550 529 0 17 550 531 53 2
46 48 341 339 0 17 347 531 246 53 146 552 345 0 17 53 531 347 550 51 548 397 0 1
7 552 505 56 551 51 347 345 0 15 505 844 0 56 502 0 17 56 505 118 552 54 396 394
 0 17 551 505 552 118 146 219 217 0 17 118 505 551 56 116 288 286 0 17 288 513 5
9 285 54 118 286 0 15 513 397 0 288 509 0 17 59 513 553 288 57 554 392 0 17 285
 513 288 553 116 127 283 0 17 553 513 285 59 125 276 272 0 17 127 476 124 219 12
5 285 283 0 17 124 476 478 127 122 282 280 0 17 282 516 276 279 125 124 280 0 15
 516 389 0 276 512 0 17 276 516 65 282 57 553 272 0 17 279 516 282 357 122 142 2
77 0 17 357 516 279 65 133 555 355 0 17 142 481 121 209 133 279 277 0 17 121 481
 249 142 119 252 250 0 17 249 481 163 121 149 556 247 0 17 252 518 555 333 133 1
21 250 0 15 518 385 0 555 515 0 17 555 518 71 252 63 357 355 0 17 333 518 252 71
 119 557 331 0 17 71 518 333 555 69 558 384 0 17 557 494 85 556 69 333 331 0 15
 494 760 0 85 492 0 17 85 494 151 557 83 383 381 0 17 556 494 557 151 119 249 24
7 0 17 151 494 556 85 149 243 241 0 17 243 503 68 240 83 151 241 0 15 503 132 0
 243 500 0 17 68 503 559 243 66 560 348 0 17 240 503 243 559 149 163 238 0 17 55
9 503 240 68 161 225 223 0 17 163 481 561 249 161 240 238 0 17 561 481 109 163 8
9 294 292 0 17 109 481 103 561 107 324 322 0 17 294 527 225 91 161 561 292 0 15
 527 794 0 225 524 0 17 225 527 62 294 66 559 223 0 17 91 527 294 62 89 562 337
 0 17 62 527 91 225 60 546 386 0 17 562 525 79 324 60 91 337 0 15 525 630 0 562
 522 0 17 79 525 469 562 77 544 390 0 17 324 525 562 469 89 109 322 0 17 469 525
 324 79 107 303 301 0 17 546 540 560 544 66 62 386 0 17 560 540 383 546 83 68 34
8 0 17 383 540 558 560 69 85 381 0 17 558 540 563 383 63 71 384 0 17 563 540 554
 558 57 65 388 0 17 554 540 396 563 54 59 392 0 17 65 516 357 276 63 563 388 0 1
7 396 540 548 554 51 56 394 0 17 548 540 547 396 48 53 397 0 17 309 467 303 306
 107 103 307 0 17 187 181 140 182 129 258 256 0 17 140 181 255 187 132 261 259 0
 1 0 
