600 0 1 0           
95 GICL ACIS Healer - Source: /gicl/data5/repository/PTC/V18/bboxrev2/boombox/1012b_.prt.sat - 6 0 18 ACIS 6.0.3 Solaris 24 Sat Apr 13 22:48:51 2002 
1 9.999999999999999547e-07 1.000000000000000036e-10 
body $-1 $1 $-1 $-1 #
lump $-1 $-1 $2 $0 #
shell $-1 $-1 $-1 $3 $-1 $1 #
face $-1 $4 $5 $2 $-1 $6 reversed single #
face $-1 $7 $8 $2 $-1 $9 reversed single #
loop $-1 $10 $11 $3 #
plane-surface $-1 0 0 0 0 -1 0 -1 0 0 forward_v I I I I #
face $-1 $12 $13 $2 $-1 $14 reversed single #
loop $-1 $-1 $15 $4 #
cone-surface $-1 -123.8249999999999886 1.111249999999998295 -103.1875 0 -1 0 -15.88134999999999764 0 0 1 I I 0 1 15.88134999999999764 forward I I I I #
loop $-1 $16 $17 $3 #
coedge $-1 $18 $18 $19 $20 forward $5 $-1 #
face $-1 $21 $22 $2 $-1 $23 forward single #
loop $-1 $-1 $24 $7 #
cone-surface $-1 -123.8249999999999886 1.111249999999998295 -103.1875 0 -1 0 -15.88134999999999764 0 0 1 I I 0 1 15.88134999999999764 forward I I I I #
coedge $-1 $25 $19 $26 $27 forward $8 $-1 #
loop $-1 $28 $29 $3 #
coedge $-1 $30 $31 $32 $33 reversed $10 $-1 #
coedge $-1 $11 $11 $34 $35 forward $5 $-1 #
coedge $-1 $15 $36 $11 $20 reversed $8 $-1 #
edge $-1 $37 0 $38 3.14159265358979134 $11 $39 forward 7 unknown #
face $-1 $40 $41 $2 $-1 $42 reversed single #
loop $-1 $43 $44 $12 #
plane-surface $-1 -123.8249999999999886 -17.46249999999999858 -103.1875 0 -1 0 -1 0 0 forward_v I I I I #
coedge $-1 $45 $34 $36 $46 forward $13 $-1 #
coedge $-1 $36 $15 $47 $48 reversed $8 $-1 #
coedge $-1 $34 $45 $15 $27 reversed $13 $-1 #
edge $-1 $37 0 $49 17.46249999999999858 $26 $50 forward 7 unknown #
loop $-1 $51 $52 $3 #
coedge $-1 $53 $53 $54 $55 forward $16 $-1 #
coedge $-1 $56 $17 $57 $58 reversed $10 $-1 #
coedge $-1 $17 $56 $59 $60 reversed $10 $-1 #
coedge $-1 $61 $62 $17 $33 forward $63 $-1 #
edge $-1 $64 0 $65 301.625 $17 $66 forward 7 unknown #
coedge $-1 $24 $26 $18 $35 reversed $13 $-1 #
edge $-1 $38 0 $37 3.14159265358979134 $18 $67 forward 7 unknown #
coedge $-1 $19 $25 $24 $46 reversed $8 $-1 #
vertex $-1 $35 $68 #
vertex $-1 $35 $69 #
ellipse-curve $-1 -123.8249999999999886 0 -103.1875000000000142 0 -1 0 15.88134999999999764 0 1.421085471520200372e-14 1 I I #
face $-1 $70 $71 $2 $-1 $72 reversed single #
loop $-1 $-1 $73 $21 #
cone-surface $-1 -123.8249999999999886 1.111249999999998295 -103.1875 0 -1 0 -18.12290000000000134 0 0 1 I I 0 1 18.12290000000000134 forward I I I I #
loop $-1 $-1 $74 $12 #
coedge $-1 $75 $75 $76 $77 reversed $22 $-1 #
coedge $-1 $26 $24 $74 $78 forward $13 $-1 #
edge $-1 $38 0 $79 17.46249999999999858 $24 $80 forward 7 unknown #
coedge $-1 $74 $74 $25 $48 forward $43 $-1 #
edge $-1 $79 0 $49 3.141592653589793116 $47 $81 forward 7 unknown #
vertex $-1 $27 $82 #
straight-curve $-1 -107.943649999999991 0 -103.1875 0 -1 0 I I #
loop $-1 $83 $84 $3 #
coedge $-1 $85 $85 $86 $87 forward $28 $-1 #
coedge $-1 $29 $29 $88 $89 forward $16 $-1 #
coedge $-1 $90 $91 $29 $55 reversed $92 $-1 #
edge $-1 $93 0 $94 3.141592653589793116 $29 $95 forward 7 unknown #
coedge $-1 $31 $30 $96 $97 reversed $10 $-1 #
coedge $-1 $98 $99 $30 $58 forward $100 $-1 #
edge $-1 $101 0 $64 250.8249999999999886 $30 $102 forward 7 unknown #
coedge $-1 $103 $104 $31 $60 forward $105 $-1 #
edge $-1 $65 0 $106 250.8249999999999886 $31 $107 forward 7 unknown #
coedge $-1 $108 $32 $104 $109 forward $63 $-1 #
coedge $-1 $32 $108 $98 $110 reversed $63 $-1 #
loop $-1 $-1 $61 $111 #
vertex $-1 $58 $112 #
vertex $-1 $60 $113 #
straight-curve $-1 -150.8125 0 -125.4124999999999943 1 0 0 I I #
ellipse-curve $-1 -123.8249999999999886 0 -103.1874999999999858 0 -1 0 -15.88134999999999764 0 -1.421085471520200372e-14 1 I I #
point $-1 -107.943649999999991 0 -103.1875 #
point $-1 -139.7063499999999863 0 -103.1875 #
face $-1 $114 $115 $2 $-1 $116 forward single #
loop $-1 $-1 $117 $40 #
cone-surface $-1 -123.8249999999999886 1.111249999999998295 -103.1875 0 -1 0 -18.12290000000000134 0 0 1 I I 0 1 18.12290000000000134 forward I I I I #
coedge $-1 $76 $118 $119 $120 reversed $41 $-1 #
coedge $-1 $47 $47 $45 $78 reversed $43 $-1 #
coedge $-1 $44 $44 $121 $122 forward $22 $-1 #
coedge $-1 $123 $73 $44 $77 forward $41 $-1 #
edge $-1 $124 0 $125 3.141592653589791784 $44 $126 forward 7 unknown #
edge $-1 $79 0 $49 3.141592653589793116 $45 $127 forward 7 unknown #
vertex $-1 $78 $128 #
straight-curve $-1 -139.7063499999999863 0 -103.1875 0 -1 0 I I #
ellipse-curve $-1 -123.8249999999999886 -17.46249999999999858 -103.1875 0 1 0 -15.88134999999999764 0 0 1 I I #
point $-1 -107.943649999999991 -17.46249999999999858 -103.1875 #
loop $-1 $129 $130 $3 #
coedge $-1 $131 $131 $132 $133 reversed $51 $-1 #
coedge $-1 $52 $52 $134 $135 forward $28 $-1 #
coedge $-1 $136 $137 $52 $87 reversed $138 $-1 #
edge $-1 $139 0 $140 3.14159265358979134 $52 $141 forward 7 unknown #
coedge $-1 $142 $143 $53 $89 reversed $144 $-1 #
edge $-1 $94 0 $93 3.141592653589793116 $53 $145 forward 7 unknown #
coedge $-1 $146 $54 $143 $147 forward $92 $-1 #
coedge $-1 $54 $146 $142 $148 reversed $92 $-1 #
loop $-1 $-1 $90 $149 #
vertex $-1 $89 $150 #
vertex $-1 $89 $151 #
ellipse-curve $-1 0 0 0 0 -1 0 -4.762499999999999289 0 0 1 I I #
coedge $-1 $152 $153 $56 $97 forward $154 $-1 #
edge $-1 $106 0 $101 301.625 $56 $155 forward 7 unknown #
coedge $-1 $156 $57 $62 $110 forward $100 $-1 #
coedge $-1 $57 $156 $152 $157 reversed $100 $-1 #
loop $-1 $-1 $98 $158 #
vertex $-1 $97 $159 #
straight-curve $-1 -150.8125 0 125.4124999999999943 0 0 -1 I I #
coedge $-1 $160 $59 $153 $161 forward $105 $-1 #
coedge $-1 $59 $160 $61 $109 reversed $105 $-1 #
loop $-1 $-1 $103 $162 #
vertex $-1 $60 $163 #
straight-curve $-1 150.8125 0 -125.4124999999999943 0 0 1 I I #
coedge $-1 $62 $61 $164 $165 reversed $63 $-1 #
edge $-1 $65 0 $166 22.22499999999999787 $104 $167 forward 7 unknown #
edge $-1 $64 0 $168 22.22499999999999787 $98 $169 forward 7 unknown #
face $-1 $162 $63 $2 $-1 $170 forward single #
point $-1 -150.8125 0 -125.4124999999999943 #
point $-1 150.8125 0 -125.4124999999999943 #
face $-1 $158 $154 $2 $-1 $171 forward single #
loop $-1 $172 $173 $70 #
plane-surface $-1 0 -22.22499999999999787 0 0 -1 0 -1 0 0 forward_v I I I I #
coedge $-1 $121 $174 $123 $175 reversed $71 $-1 #
coedge $-1 $73 $123 $173 $176 forward $41 $-1 #
coedge $-1 $174 $121 $73 $120 forward $71 $-1 #
edge $-1 $124 0 $177 4.762499999999999289 $119 $178 forward 7 unknown #
coedge $-1 $119 $117 $75 $122 reversed $71 $-1 #
edge $-1 $124 0 $125 3.141592653589791784 $75 $179 forward 7 unknown #
coedge $-1 $118 $76 $117 $175 forward $41 $-1 #
vertex $-1 $122 $180 #
vertex $-1 $122 $181 #
ellipse-curve $-1 -123.8249999999999886 -17.46249999999999858 -103.1875000000000142 0 1 0 -18.12290000000001555 0 1.421085471520200372e-14 1 I I #
ellipse-curve $-1 -123.8249999999999886 -17.46249999999999858 -103.1875 0 -1 0 -15.88134999999999764 0 0 1 I I #
point $-1 -139.7063499999999863 -17.46249999999999858 -103.1875 #
loop $-1 $182 $183 $3 #
coedge $-1 $184 $184 $185 $186 reversed $83 $-1 #
coedge $-1 $84 $84 $187 $188 reversed $51 $-1 #
coedge $-1 $189 $190 $84 $133 forward $191 $-1 #
edge $-1 $192 0 $193 3.14159265358979134 $84 $194 forward 7 unknown #
coedge $-1 $195 $196 $85 $135 reversed $197 $-1 #
edge $-1 $140 0 $139 3.14159265358979134 $85 $198 forward 7 unknown #
coedge $-1 $199 $86 $196 $200 forward $138 $-1 #
coedge $-1 $86 $199 $195 $201 reversed $138 $-1 #
loop $-1 $-1 $136 $202 #
vertex $-1 $135 $203 #
vertex $-1 $135 $204 #
ellipse-curve $-1 128.5875000000000057 0 103.1874999999999858 0 -1 0 15.88134999999999764 0 1.421085471520200372e-14 1 I I #
coedge $-1 $205 $88 $91 $148 forward $144 $-1 #
coedge $-1 $88 $205 $90 $147 reversed $144 $-1 #
loop $-1 $-1 $142 $206 #
ellipse-curve $-1 0 0 0 0 -1 0 4.762499999999999289 0 0 1 I I #
coedge $-1 $91 $90 $207 $208 forward $92 $-1 #
edge $-1 $93 0 $209 22.22499999999999787 $143 $210 forward 7 unknown #
edge $-1 $94 0 $211 22.22499999999999787 $142 $212 forward 7 unknown #
face $-1 $206 $92 $2 $-1 $213 reversed single #
point $-1 -4.762499999999999289 0 0 #
point $-1 4.762499999999999289 0 0 #
coedge $-1 $214 $96 $99 $157 forward $154 $-1 #
coedge $-1 $96 $214 $103 $161 reversed $154 $-1 #
loop $-1 $-1 $152 $114 #
straight-curve $-1 150.8125 0 125.4124999999999943 -1 0 0 I I #
coedge $-1 $99 $98 $215 $216 reversed $100 $-1 #
edge $-1 $101 0 $217 22.22499999999999787 $152 $218 forward 7 unknown #
face $-1 $111 $100 $2 $-1 $219 forward single #
point $-1 -150.8125 0 125.4124999999999943 #
coedge $-1 $104 $103 $220 $221 reversed $105 $-1 #
edge $-1 $106 0 $222 22.22499999999999787 $103 $223 forward 7 unknown #
face $-1 $149 $105 $2 $-1 $224 forward single #
point $-1 150.8125 0 125.4124999999999943 #
coedge $-1 $220 $215 $108 $165 forward $172 $-1 #
edge $-1 $168 0 $166 301.625 $164 $225 forward 7 unknown #
vertex $-1 $221 $226 #
straight-curve $-1 150.8125 0 -125.4124999999999943 0 -1 0 I I #
vertex $-1 $165 $227 #
straight-curve $-1 -150.8125 0 -125.4124999999999943 0 -1 0 I I #
plane-surface $-1 -150.8125 0 -125.4124999999999943 0 0 -1 1 0 0 forward_v I I I I #
plane-surface $-1 150.8125 0 125.4124999999999943 0 0 1 -1 0 0 forward_v I I I I #
loop $-1 $228 $229 $70 #
coedge $-1 $230 $230 $118 $176 reversed $115 $-1 #
coedge $-1 $117 $119 $230 $231 forward $71 $-1 #
edge $-1 $125 0 $232 4.762499999999999289 $117 $233 forward 7 unknown #
edge $-1 $232 0 $177 3.141592653589793116 $173 $234 forward 7 unknown #
vertex $-1 $231 $235 #
straight-curve $-1 -141.9479000000000042 -17.46249999999999858 -103.1875 0 -1 0 I I #
ellipse-curve $-1 -123.8249999999999886 -17.46249999999999858 -103.1874999999999858 0 -1 0 -18.12290000000001555 0 -1.421085471520200372e-14 1 I I #
point $-1 -141.9479000000000042 -17.46249999999999858 -103.1875 #
point $-1 -105.7020999999999873 -17.46249999999999858 -103.1875 #
loop $-1 $236 $237 $3 #
coedge $-1 $238 $238 $239 $240 forward $129 $-1 #
coedge $-1 $130 $130 $241 $242 reversed $83 $-1 #
coedge $-1 $243 $244 $130 $186 forward $245 $-1 #
edge $-1 $246 0 $247 3.14159265358979134 $130 $248 forward 7 unknown #
coedge $-1 $249 $250 $131 $188 forward $251 $-1 #
edge $-1 $193 0 $192 3.14159265358979134 $131 $252 forward 7 unknown #
coedge $-1 $253 $132 $250 $254 forward $191 $-1 #
coedge $-1 $132 $253 $249 $255 reversed $191 $-1 #
loop $-1 $-1 $189 $256 #
vertex $-1 $188 $257 #
vertex $-1 $188 $258 #
ellipse-curve $-1 128.5875000000000057 0 -103.1874999999999858 0 1 0 15.88134999999999764 0 -1.421085471520200372e-14 1 I I #
coedge $-1 $259 $134 $137 $201 forward $197 $-1 #
coedge $-1 $134 $259 $136 $200 reversed $197 $-1 #
loop $-1 $-1 $195 $260 #
ellipse-curve $-1 128.5875000000000057 0 103.1875000000000142 0 -1 0 -15.88134999999999764 0 -1.421085471520200372e-14 1 I I #
coedge $-1 $137 $136 $261 $262 reversed $138 $-1 #
edge $-1 $139 0 $263 17.46249999999999858 $196 $264 forward 7 unknown #
edge $-1 $140 0 $265 17.46249999999999858 $195 $266 forward 7 unknown #
face $-1 $267 $138 $2 $-1 $268 reversed single #
point $-1 144.4688500000000033 0 103.1875 #
point $-1 112.706150000000008 0 103.1875 #
coedge $-1 $143 $142 $269 $270 forward $144 $-1 #
face $-1 $271 $144 $2 $-1 $272 reversed single #
coedge $-1 $269 $269 $146 $208 reversed $228 $-1 #
edge $-1 $209 0 $211 3.141592653589793116 $207 $273 forward 7 unknown #
vertex $-1 $270 $274 #
straight-curve $-1 -4.762499999999999289 0 5.832187760079071298e-16 0 -1 0 I I #
vertex $-1 $270 $275 #
straight-curve $-1 4.762499999999999289 0 0 0 -1 0 I I #
cone-surface $-1 0 0 0 0 -1 0 4.762499999999999289 0 0 1 I I 0 1 4.762499999999999289 forward I I I I #
coedge $-1 $153 $152 $229 $276 reversed $154 $-1 #
coedge $-1 $164 $229 $156 $216 forward $172 $-1 #
edge $-1 $217 0 $168 250.8249999999999886 $215 $277 forward 7 unknown #
vertex $-1 $216 $278 #
straight-curve $-1 -150.8125 0 125.4124999999999943 0 -1 0 I I #
plane-surface $-1 -150.8125 0 125.4124999999999943 -1 0 0 0 0 -1 forward_v I I I I #
coedge $-1 $229 $164 $160 $221 forward $172 $-1 #
edge $-1 $166 0 $222 250.8249999999999886 $220 $279 forward 7 unknown #
vertex $-1 $221 $280 #
straight-curve $-1 150.8125 0 125.4124999999999943 0 -1 0 I I #
plane-surface $-1 150.8125 0 -125.4124999999999943 1 0 0 0 0 1 forward_v I I I I #
straight-curve $-1 -150.8125 -22.22499999999999787 -125.4124999999999943 1 0 0 I I #
point $-1 150.8125 -22.22499999999999787 -125.4124999999999943 #
point $-1 -150.8125 -22.22499999999999787 -125.4124999999999943 #
loop $-1 $281 $207 $70 #
coedge $-1 $215 $220 $214 $276 forward $172 $-1 #
coedge $-1 $173 $173 $174 $231 reversed $115 $-1 #
edge $-1 $177 0 $232 3.141592653589793116 $230 $282 forward 7 unknown #
vertex $-1 $231 $283 #
straight-curve $-1 -105.7020999999999873 -17.46249999999999858 -103.1875 0 -1 0 I I #
ellipse-curve $-1 -123.8250000000000028 -22.22499999999999787 -103.1875 0 -1 0 18.12290000000000134 0 0 1 I I #
point $-1 -141.9479000000000042 -22.22499999999999787 -103.1875 #
loop $-1 $284 $285 $3 #
coedge $-1 $286 $286 $287 $288 reversed $182 $-1 #
coedge $-1 $183 $183 $289 $290 forward $129 $-1 #
coedge $-1 $291 $292 $183 $240 reversed $293 $-1 #
edge $-1 $294 0 $295 3.141592653589793116 $183 $296 forward 7 unknown #
coedge $-1 $297 $298 $184 $242 forward $299 $-1 #
edge $-1 $247 0 $246 3.14159265358979134 $184 $300 forward 7 unknown #
coedge $-1 $301 $185 $298 $302 forward $245 $-1 #
coedge $-1 $185 $301 $297 $303 reversed $245 $-1 #
loop $-1 $-1 $243 $304 #
vertex $-1 $242 $305 #
vertex $-1 $242 $306 #
ellipse-curve $-1 -128.5875000000000057 0 103.1874999999999858 0 1 0 -15.88134999999999764 0 1.421085471520200372e-14 1 I I #
coedge $-1 $307 $187 $190 $255 forward $251 $-1 #
coedge $-1 $187 $307 $189 $254 reversed $251 $-1 #
loop $-1 $-1 $249 $308 #
ellipse-curve $-1 128.5875000000000057 0 -103.1875000000000142 0 1 0 -15.88134999999999764 0 1.421085471520200372e-14 1 I I #
coedge $-1 $190 $189 $309 $310 forward $191 $-1 #
edge $-1 $193 0 $311 17.46249999999999858 $250 $312 forward 7 unknown #
edge $-1 $192 0 $313 17.46249999999999858 $249 $314 forward 7 unknown #
face $-1 $315 $191 $2 $-1 $316 reversed single #
point $-1 144.4688500000000033 0 -103.1875 #
point $-1 112.706150000000008 0 -103.1875 #
coedge $-1 $196 $195 $317 $318 forward $197 $-1 #
face $-1 $202 $197 $2 $-1 $319 reversed single #
coedge $-1 $317 $317 $199 $262 forward $320 $-1 #
edge $-1 $265 0 $263 3.141592653589793116 $261 $321 forward 7 unknown #
vertex $-1 $200 $322 #
straight-curve $-1 144.4688499999999749 0 103.1875 0 -1 0 I I #
vertex $-1 $318 $323 #
straight-curve $-1 112.7061499999999796 0 103.1875 0 -1 0 I I #
face $-1 $324 $325 $2 $-1 $326 reversed single #
cone-surface $-1 128.5874999999999773 1.111249999999998295 103.1875 0 -1 0 -15.88134999999999764 0 0 1 I I 0 1 15.88134999999999764 forward I I I I #
coedge $-1 $207 $207 $205 $270 reversed $228 $-1 #
edge $-1 $211 0 $209 3.141592653589793116 $269 $327 forward 7 unknown #
face $-1 $328 $329 $2 $-1 $330 reversed single #
cone-surface $-1 0 0 0 0 -1 0 4.762499999999999289 0 0 1 I I 0 1 4.762499999999999289 forward I I I I #
ellipse-curve $-1 0 -22.22499999999999787 0 0 -1 0 -4.762499999999999289 0 0 1 I I #
point $-1 -4.762499999999999289 -22.22499999999999787 0 #
point $-1 4.762499999999999289 -22.22499999999999787 0 #
edge $-1 $222 0 $217 301.625 $229 $331 forward 7 unknown #
straight-curve $-1 -150.8125 -22.22499999999999787 125.4124999999999943 0 0 -1 I I #
point $-1 -150.8125 -22.22499999999999787 125.4124999999999943 #
straight-curve $-1 150.8125 -22.22499999999999787 -125.4124999999999943 0 0 1 I I #
point $-1 150.8125 -22.22499999999999787 125.4124999999999943 #
loop $-1 $332 $333 $70 #
ellipse-curve $-1 -123.8250000000000028 -22.22499999999999787 -103.1875 0 -1 0 -18.12290000000000134 0 0 1 I I #
point $-1 -105.7021000000000015 -22.22499999999999787 -103.1875 #
loop $-1 $-1 $334 $3 #
coedge $-1 $335 $335 $336 $337 reversed $236 $-1 #
coedge $-1 $237 $237 $338 $339 reversed $182 $-1 #
coedge $-1 $340 $341 $237 $288 forward $342 $-1 #
edge $-1 $343 0 $344 3.141592653589793116 $237 $345 forward 7 unknown #
coedge $-1 $346 $347 $238 $290 reversed $348 $-1 #
edge $-1 $295 0 $294 3.141592653589793116 $238 $349 forward 7 unknown #
coedge $-1 $350 $239 $347 $351 forward $293 $-1 #
coedge $-1 $239 $350 $346 $352 reversed $293 $-1 #
loop $-1 $-1 $291 $353 #
vertex $-1 $290 $354 #
vertex $-1 $290 $355 #
ellipse-curve $-1 134.9375 0 57.14999999999999858 0 -1 0 -7.9375 0 0 1 I I #
coedge $-1 $356 $241 $244 $303 forward $299 $-1 #
coedge $-1 $241 $356 $243 $302 reversed $299 $-1 #
loop $-1 $-1 $297 $357 #
ellipse-curve $-1 -128.5875000000000057 0 103.1875000000000142 0 1 0 15.88134999999999764 0 -1.421085471520200372e-14 1 I I #
coedge $-1 $244 $243 $358 $359 forward $245 $-1 #
edge $-1 $247 0 $360 17.46249999999999858 $298 $361 forward 7 unknown #
edge $-1 $246 0 $362 17.46249999999999858 $297 $363 forward 7 unknown #
face $-1 $353 $245 $2 $-1 $364 reversed single #
point $-1 -144.4688500000000033 0 103.1875 #
point $-1 -112.706150000000008 0 103.1875 #
coedge $-1 $250 $249 $365 $366 reversed $251 $-1 #
face $-1 $256 $251 $2 $-1 $367 reversed single #
coedge $-1 $365 $365 $253 $310 reversed $368 $-1 #
edge $-1 $311 0 $313 3.141592653589793116 $309 $369 forward 7 unknown #
vertex $-1 $254 $370 #
straight-curve $-1 112.7061499999999796 0 -103.1875 0 -1 0 I I #
vertex $-1 $366 $371 #
straight-curve $-1 144.4688499999999749 0 -103.1875 0 -1 0 I I #
face $-1 $372 $373 $2 $-1 $374 reversed single #
cone-surface $-1 128.5874999999999773 1.111249999999998295 -103.1875 0 1 0 -15.88134999999999764 0 0 1 I I 0 1 15.88134999999999764 forward I I I I #
coedge $-1 $261 $261 $259 $318 reversed $320 $-1 #
edge $-1 $265 0 $263 3.141592653589793116 $259 $375 forward 7 unknown #
cone-surface $-1 128.5874999999999773 1.111249999999998295 103.1875 0 -1 0 -15.88134999999999764 0 0 1 I I 0 1 15.88134999999999764 forward I I I I #
loop $-1 $-1 $317 $376 #
ellipse-curve $-1 128.5874999999999773 -17.46249999999999858 103.1875 0 1 0 -15.88134999999999764 0 0 1 I I #
point $-1 144.4688499999999749 -17.46249999999999858 103.1875 #
point $-1 112.7061499999999796 -17.46249999999999858 103.1875 #
face $-1 $377 $378 $2 $-1 $379 reversed single #
loop $-1 $-1 $380 $267 #
cone-surface $-1 128.5874999999999773 1.111249999999998295 -103.1875 0 1 0 -18.12290000000000134 0 0 1 I I 0 1 18.12290000000000134 forward I I I I #
ellipse-curve $-1 0 -22.22499999999999787 0 0 -1 0 4.762499999999999289 0 0 1 I I #
face $-1 $381 $382 $2 $-1 $383 reversed single #
loop $-1 $-1 $384 $271 #
cone-surface $-1 82.54999999999999716 -23.24127324654124749 101.5999999999999943 0 1 0 9.524999999999998579 0 0 1 I I 0 1 9.524999999999998579 forward I I I I #
straight-curve $-1 150.8125 -22.22499999999999787 125.4124999999999943 -1 0 0 I I #
loop $-1 $385 $386 $70 #
coedge $-1 $387 $387 $388 $389 forward $281 $-1 #
coedge $-1 $390 $390 $391 $392 forward $284 $-1 #
coedge $-1 $285 $285 $393 $394 reversed $236 $-1 #
coedge $-1 $395 $396 $285 $337 forward $397 $-1 #
edge $-1 $398 0 $399 3.141592653589793116 $285 $400 forward 7 unknown #
coedge $-1 $401 $402 $286 $339 forward $403 $-1 #
edge $-1 $344 0 $343 3.141592653589793116 $286 $404 forward 7 unknown #
coedge $-1 $405 $287 $402 $406 forward $342 $-1 #
coedge $-1 $287 $405 $401 $407 reversed $342 $-1 #
loop $-1 $-1 $340 $408 #
vertex $-1 $339 $409 #
vertex $-1 $339 $410 #
ellipse-curve $-1 134.9375 0 -57.14999999999999858 0 1 0 -7.9375 0 0 1 I I #
coedge $-1 $411 $289 $292 $352 forward $348 $-1 #
coedge $-1 $289 $411 $291 $351 reversed $348 $-1 #
loop $-1 $-1 $346 $412 #
ellipse-curve $-1 134.9375 0 57.14999999999999858 0 -1 0 7.9375 0 0 1 I I #
coedge $-1 $292 $291 $413 $414 forward $293 $-1 #
edge $-1 $294 0 $415 22.22499999999999787 $347 $416 forward 7 unknown #
edge $-1 $295 0 $417 22.22499999999999787 $346 $418 forward 7 unknown #
face $-1 $412 $293 $2 $-1 $419 reversed single #
point $-1 127 0 57.14999999999999858 #
point $-1 142.875 0 57.14999999999999858 #
coedge $-1 $298 $297 $420 $421 reversed $299 $-1 #
face $-1 $304 $299 $2 $-1 $422 reversed single #
coedge $-1 $420 $420 $301 $359 reversed $423 $-1 #
edge $-1 $360 0 $362 3.141592653589793116 $358 $424 forward 7 unknown #
vertex $-1 $302 $425 #
straight-curve $-1 -112.7061499999999796 0 103.1875 0 -1 0 I I #
vertex $-1 $421 $426 #
straight-curve $-1 -144.4688499999999749 0 103.1875 0 -1 0 I I #
cone-surface $-1 -128.5874999999999773 1.111249999999998295 103.1875 0 1 0 15.88134999999999764 0 0 1 I I 0 1 15.88134999999999764 forward I I I I #
coedge $-1 $309 $309 $307 $366 forward $368 $-1 #
edge $-1 $311 0 $313 3.141592653589793116 $307 $427 forward 7 unknown #
cone-surface $-1 128.5874999999999773 1.111249999999998295 -103.1875 0 1 0 -15.88134999999999764 0 0 1 I I 0 1 15.88134999999999764 forward I I I I #
loop $-1 $-1 $365 $377 #
ellipse-curve $-1 128.5874999999999773 -17.46249999999999858 -103.1875 0 -1 0 -15.88134999999999764 0 0 1 I I #
point $-1 112.7061499999999796 -17.46249999999999858 -103.1875 #
point $-1 144.4688499999999749 -17.46249999999999858 -103.1875 #
face $-1 $428 $429 $2 $-1 $430 reversed single #
loop $-1 $-1 $431 $315 #
cone-surface $-1 -128.5874999999999773 1.111249999999998295 103.1875 0 1 0 18.12290000000000134 0 0 1 I I 0 1 18.12290000000000134 forward I I I I #
ellipse-curve $-1 128.5874999999999773 -17.46249999999999858 103.1875 0 -1 0 -15.88134999999999764 0 0 1 I I #
face $-1 $260 $432 $2 $-1 $433 forward single #
face $-1 $308 $434 $2 $-1 $435 reversed single #
loop $-1 $-1 $436 $324 #
cone-surface $-1 128.5874999999999773 1.111249999999998295 -103.1875 0 1 0 -18.12290000000000134 0 0 1 I I 0 1 18.12290000000000134 forward I I I I #
coedge $-1 $437 $438 $439 $440 reversed $325 $-1 #
face $-1 $441 $442 $2 $-1 $443 reversed single #
loop $-1 $-1 $444 $328 #
cone-surface $-1 82.54999999999999716 -23.24127324654124749 101.5999999999999943 0 1 0 9.524999999999998579 0 0 1 I I 0 1 9.524999999999998579 forward I I I I #
coedge $-1 $445 $388 $446 $447 forward $329 $-1 #
loop $-1 $448 $449 $70 #
coedge $-1 $450 $450 $451 $452 reversed $332 $-1 #
coedge $-1 $333 $333 $453 $454 forward $281 $-1 #
coedge $-1 $384 $455 $333 $389 reversed $329 $-1 #
edge $-1 $456 0 $457 3.141592653589793116 $333 $458 forward 7 unknown #
coedge $-1 $334 $334 $459 $460 forward $284 $-1 #
coedge $-1 $461 $462 $334 $392 reversed $463 $-1 #
edge $-1 $464 0 $465 3.141592653589793116 $334 $466 forward 7 unknown #
coedge $-1 $467 $468 $335 $394 forward $469 $-1 #
edge $-1 $399 0 $398 3.141592653589793116 $335 $470 forward 7 unknown #
coedge $-1 $471 $336 $468 $472 forward $397 $-1 #
coedge $-1 $336 $471 $467 $473 reversed $397 $-1 #
loop $-1 $-1 $395 $474 #
vertex $-1 $394 $475 #
vertex $-1 $394 $476 #
ellipse-curve $-1 -134.9375 0 57.14999999999999858 0 1 0 7.9375 0 0 1 I I #
coedge $-1 $477 $338 $341 $407 forward $403 $-1 #
coedge $-1 $338 $477 $340 $406 reversed $403 $-1 #
loop $-1 $-1 $401 $478 #
ellipse-curve $-1 134.9375 0 -57.14999999999999858 0 1 0 7.9375 0 0 1 I I #
coedge $-1 $341 $340 $479 $480 reversed $342 $-1 #
edge $-1 $344 0 $481 22.22499999999999787 $402 $482 forward 7 unknown #
edge $-1 $343 0 $483 22.22499999999999787 $401 $484 forward 7 unknown #
face $-1 $478 $342 $2 $-1 $485 reversed single #
point $-1 127 0 -57.14999999999999858 #
point $-1 142.875 0 -57.14999999999999858 #
coedge $-1 $347 $346 $486 $487 forward $348 $-1 #
face $-1 $408 $348 $2 $-1 $488 reversed single #
coedge $-1 $486 $486 $350 $414 reversed $489 $-1 #
edge $-1 $415 0 $417 3.141592653589793116 $413 $490 forward 7 unknown #
vertex $-1 $487 $491 #
straight-curve $-1 127 0 57.14999999999999858 0 -1 0 I I #
vertex $-1 $487 $492 #
straight-curve $-1 142.875 0 57.14999999999999858 0 -1 0 I I #
cone-surface $-1 134.9375 0 57.14999999999999858 0 -1 0 7.9375 0 0 1 I I 0 1 7.9375 forward I I I I #
coedge $-1 $358 $358 $356 $421 forward $423 $-1 #
edge $-1 $360 0 $362 3.141592653589793116 $356 $493 forward 7 unknown #
cone-surface $-1 -128.5874999999999773 1.111249999999998295 103.1875 0 1 0 15.88134999999999764 0 0 1 I I 0 1 15.88134999999999764 forward I I I I #
loop $-1 $-1 $420 $428 #
ellipse-curve $-1 -128.5874999999999773 -17.46249999999999858 103.1875 0 -1 0 15.88134999999999764 0 0 1 I I #
point $-1 -112.7061499999999796 -17.46249999999999858 103.1875 #
point $-1 -144.4688499999999749 -17.46249999999999858 103.1875 #
ellipse-curve $-1 128.5874999999999773 -17.46249999999999858 -103.1875 0 1 0 -15.88134999999999764 0 0 1 I I #
face $-1 $357 $494 $2 $-1 $495 reversed single #
loop $-1 $-1 $496 $372 #
cone-surface $-1 -128.5874999999999773 1.111249999999998295 103.1875 0 1 0 18.12290000000000134 0 0 1 I I 0 1 18.12290000000000134 forward I I I I #
coedge $-1 $497 $498 $499 $500 reversed $373 $-1 #
loop $-1 $320 $501 $376 #
plane-surface $-1 128.5874999999999773 -17.46249999999999858 103.1875 0 -1 0 -1 0 0 forward_v I I I I #
loop $-1 $368 $502 $377 #
plane-surface $-1 128.5874999999999773 -17.46249999999999858 -103.1875 0 1 0 -1 0 0 forward_v I I I I #
coedge $-1 $503 $504 $505 $506 reversed $378 $-1 #
coedge $-1 $505 $380 $502 $507 reversed $325 $-1 #
coedge $-1 $380 $505 $449 $508 reversed $325 $-1 #
coedge $-1 $504 $503 $380 $440 forward $378 $-1 #
edge $-1 $509 0 $510 4.762499999999999289 $439 $511 forward 7 unknown #
face $-1 $512 $513 $2 $-1 $514 reversed single #
loop $-1 $515 $516 $381 #
plane-surface $-1 82.54999999999999716 -15.875 101.5999999999999943 0 1 0 1 0 0 forward_v I I I I #
coedge $-1 $517 $453 $455 $518 forward $382 $-1 #
coedge $-1 $455 $384 $519 $520 reversed $329 $-1 #
coedge $-1 $453 $517 $384 $447 reversed $382 $-1 #
edge $-1 $456 0 $521 6.349999999999997868 $446 $522 forward 7 unknown #
loop $-1 $489 $523 $70 #
coedge $-1 $524 $524 $438 $508 forward $385 $-1 #
coedge $-1 $386 $386 $525 $526 reversed $332 $-1 #
coedge $-1 $527 $528 $386 $452 forward $529 $-1 #
edge $-1 $530 0 $531 3.141592653589794448 $386 $532 forward 7 unknown #
coedge $-1 $444 $446 $387 $454 reversed $382 $-1 #
edge $-1 $457 0 $456 3.141592653589793116 $387 $533 forward 7 unknown #
coedge $-1 $388 $445 $444 $518 reversed $329 $-1 #
vertex $-1 $454 $534 #
vertex $-1 $454 $535 #
ellipse-curve $-1 82.54999999999998295 -22.22499999999999787 101.5999999999999943 0 1 0 -9.524999999999991473 0 0 1 I I #
coedge $-1 $536 $537 $390 $460 reversed $538 $-1 #
edge $-1 $465 0 $464 3.141592653589793116 $390 $539 forward 7 unknown #
coedge $-1 $540 $391 $537 $541 forward $463 $-1 #
coedge $-1 $391 $540 $536 $542 reversed $463 $-1 #
loop $-1 $-1 $461 $543 #
vertex $-1 $460 $544 #
vertex $-1 $460 $545 #
ellipse-curve $-1 -131.7624999999999886 0 -57.14999999999999858 0 -1 0 -7.9375 0 0 1 I I #
coedge $-1 $546 $393 $396 $473 forward $469 $-1 #
coedge $-1 $393 $546 $395 $472 reversed $469 $-1 #
loop $-1 $-1 $467 $547 #
ellipse-curve $-1 -134.9375 0 57.14999999999999858 0 1 0 -7.9375 0 0 1 I I #
coedge $-1 $396 $395 $548 $549 reversed $397 $-1 #
edge $-1 $399 0 $550 22.22499999999999787 $468 $551 forward 7 unknown #
edge $-1 $398 0 $552 22.22499999999999787 $467 $553 forward 7 unknown #
face $-1 $547 $397 $2 $-1 $554 reversed single #
point $-1 -127 0 57.14999999999999858 #
point $-1 -142.875 0 57.14999999999999858 #
coedge $-1 $402 $401 $555 $556 reversed $403 $-1 #
face $-1 $474 $403 $2 $-1 $557 reversed single #
coedge $-1 $555 $555 $405 $480 forward $558 $-1 #
edge $-1 $483 0 $481 3.141592653589793116 $479 $559 forward 7 unknown #
vertex $-1 $556 $560 #
straight-curve $-1 142.875 0 -57.14999999999999858 0 -1 0 I I #
vertex $-1 $556 $561 #
straight-curve $-1 127 0 -57.14999999999999858 0 -1 0 I I #
cone-surface $-1 134.9375 0 -57.14999999999999858 0 1 0 7.9375 0 0 1 I I 0 1 7.9375 forward I I I I #
coedge $-1 $413 $413 $411 $487 reversed $489 $-1 #
edge $-1 $417 0 $415 3.14159265358979134 $486 $562 forward 7 unknown #
cone-surface $-1 134.9375 0 57.14999999999999858 0 -1 0 7.9375 0 0 1 I I 0 1 7.9375 forward I I I I #
loop $-1 $558 $413 $70 #
ellipse-curve $-1 134.9375 -22.22499999999999787 57.14999999999999858 0 -1 0 -7.9375 0 0 1 I I #
point $-1 127 -22.22499999999999787 57.14999999999999858 #
point $-1 142.875 -22.22499999999999787 57.14999999999999858 #
ellipse-curve $-1 -128.5874999999999773 -17.46249999999999858 103.1875 0 1 0 15.88134999999999764 0 0 1 I I #
loop $-1 $423 $563 $428 #
plane-surface $-1 -128.5874999999999773 -17.46249999999999858 103.1875 0 1 0 1 0 0 forward_v I I I I #
coedge $-1 $564 $565 $566 $567 reversed $429 $-1 #
coedge $-1 $566 $431 $563 $568 reversed $373 $-1 #
coedge $-1 $431 $566 $523 $569 reversed $373 $-1 #
coedge $-1 $565 $564 $431 $500 forward $429 $-1 #
edge $-1 $570 0 $571 4.762499999999999289 $499 $572 forward 7 unknown #
coedge $-1 $573 $573 $574 $575 reversed $432 $-1 #
coedge $-1 $576 $576 $437 $507 forward $434 $-1 #
coedge $-1 $439 $436 $576 $577 forward $378 $-1 #
coedge $-1 $436 $439 $524 $578 reversed $378 $-1 #
coedge $-1 $438 $437 $436 $506 forward $325 $-1 #
edge $-1 $579 0 $580 4.762499999999999289 $436 $581 forward 7 unknown #
edge $-1 $579 0 $509 3.141592653589791784 $502 $582 forward 7 unknown #
edge $-1 $510 0 $580 3.141592653589794448 $449 $583 forward 7 unknown #
vertex $-1 $577 $584 #
vertex $-1 $578 $585 #
straight-curve $-1 146.7103999999999928 -17.46249999999999858 -103.1875 0 -1 0 I I #
face $-1 $586 $587 $2 $-1 $588 reversed single #
loop $-1 $-1 $589 $441 #
cone-surface $-1 82.54999999999999716 -23.24127324654124749 101.5999999999999943 0 1 0 6.349999999999999645 0 0 1 I I 0 1 6.349999999999999645 forward I I I I #
loop $-1 $-1 $590 $381 #
coedge $-1 $591 $591 $589 $592 reversed $442 $-1 #
coedge $-1 $446 $444 $590 $593 forward $382 $-1 #
edge $-1 $457 0 $594 6.349999999999997868 $444 $595 forward 7 unknown #
coedge $-1 $590 $590 $445 $520 forward $515 $-1 #
edge $-1 $594 0 $521 3.141592653589793116 $519 $596 forward 7 unknown #
vertex $-1 $447 $597 #
straight-curve $-1 73.02500000000000568 -22.22499999999999787 101.5999999999999943 0 1 0 I I #
coedge $-1 $598 $598 $498 $569 forward $448 $-1 #
coedge $-1 $449 $449 $504 $578 forward $385 $-1 #
coedge $-1 $599 $600 $450 $526 forward $601 $-1 #
edge $-1 $531 0 $530 3.141592653589794448 $450 $602 forward 7 unknown #
coedge $-1 $574 $451 $600 $603 reversed $529 $-1 #
coedge $-1 $451 $574 $599 $604 forward $529 $-1 #
loop $-1 $-1 $527 $605 #
vertex $-1 $526 $606 #
vertex $-1 $526 $607 #
ellipse-curve $-1 128.5875000000000057 -22.22499999999999787 103.1875000000000142 0 -1 0 18.12289999999998713 0 -1.421085471520200372e-14 1 I I #
ellipse-curve $-1 82.54999999999999716 -22.22499999999999787 101.5999999999999943 0 1 0 9.524999999999991473 0 0 1 I I #
point $-1 73.02499999999999147 -22.22499999999999787 101.5999999999999943 #
point $-1 92.07499999999998863 -22.22499999999999787 101.5999999999999943 #
coedge $-1 $608 $459 $462 $542 forward $538 $-1 #
coedge $-1 $459 $608 $461 $541 reversed $538 $-1 #
loop $-1 $-1 $536 $609 #
ellipse-curve $-1 -131.7624999999999886 0 -57.14999999999999858 0 -1 0 7.9375 0 0 1 I I #
coedge $-1 $462 $461 $610 $611 forward $463 $-1 #
edge $-1 $464 0 $612 22.22499999999999787 $537 $613 forward 7 unknown #
edge $-1 $465 0 $614 22.22499999999999787 $536 $615 forward 7 unknown #
face $-1 $609 $463 $2 $-1 $616 reversed single #
point $-1 -139.6999999999999886 0 -57.14999999999999858 #
point $-1 -123.8249999999999886 0 -57.14999999999999858 #
coedge $-1 $468 $467 $617 $618 reversed $469 $-1 #
face $-1 $543 $469 $2 $-1 $619 reversed single #
coedge $-1 $617 $617 $471 $549 forward $620 $-1 #
edge $-1 $552 0 $550 3.141592653589793116 $548 $621 forward 7 unknown #
vertex $-1 $618 $622 #
straight-curve $-1 -142.875 0 57.14999999999999858 0 -1 0 I I #
vertex $-1 $618 $623 #
straight-curve $-1 -127 0 57.14999999999999858 0 -1 0 I I #
cone-surface $-1 -134.9375 0 57.14999999999999858 0 1 0 -7.9375 0 0 1 I I 0 1 7.9375 forward I I I I #
coedge $-1 $479 $479 $477 $556 forward $558 $-1 #
edge $-1 $481 0 $483 3.14159265358979134 $555 $624 forward 7 unknown #
cone-surface $-1 134.9375 0 -57.14999999999999858 0 1 0 7.9375 0 0 1 I I 0 1 7.9375 forward I I I I #
loop $-1 $620 $479 $70 #
ellipse-curve $-1 134.9375 -22.22499999999999787 -57.14999999999999858 0 1 0 -7.9375 0 0 1 I I #
point $-1 142.875 -22.22499999999999787 -57.14999999999999858 #
point $-1 127 -22.22499999999999787 -57.14999999999999858 #
ellipse-curve $-1 134.9375 -22.22499999999999787 57.14999999999999147 0 -1 0 7.9375 0 7.105427357601001859e-15 1 I I #
coedge $-1 $625 $625 $497 $568 forward $494 $-1 #
coedge $-1 $499 $496 $625 $626 forward $429 $-1 #
coedge $-1 $496 $499 $598 $627 reversed $429 $-1 #
coedge $-1 $498 $497 $496 $567 forward $373 $-1 #
edge $-1 $628 0 $629 4.762499999999999289 $496 $630 forward 7 unknown #
edge $-1 $628 0 $570 3.141592653589791784 $563 $631 forward 7 unknown #
edge $-1 $571 0 $629 3.141592653589794448 $523 $632 forward 7 unknown #
vertex $-1 $626 $633 #
vertex $-1 $627 $634 #
straight-curve $-1 -146.7103999999999928 -17.46249999999999858 103.1875 0 -1 0 I I #
coedge $-1 $501 $501 $635 $636 forward $432 $-1 #
coedge $-1 $528 $527 $501 $575 forward $529 $-1 #
edge $-1 $637 0 $638 3.141592653589791784 $501 $639 forward 7 unknown #
coedge $-1 $502 $502 $503 $577 reversed $434 $-1 #
edge $-1 $579 0 $509 3.141592653589791784 $576 $640 forward 7 unknown #
edge $-1 $580 0 $510 3.141592653589794448 $524 $641 forward 7 unknown #
vertex $-1 $577 $642 #
vertex $-1 $578 $643 #
straight-curve $-1 110.4645999999999759 -17.46249999999999858 -103.1875 0 -1 0 I I #
ellipse-curve $-1 128.5874999999999773 -17.46249999999999858 -103.1874999999999858 0 -1 0 -18.12290000000000134 0 -1.421085471520200372e-14 1 I I #
ellipse-curve $-1 128.5875000000000057 -22.22499999999999787 -103.1875000000000142 0 1 0 18.12289999999998713 0 1.421085471520200372e-14 1 I I #
point $-1 146.7103999999999928 -17.46249999999999858 -103.1875 #
point $-1 146.7103999999999928 -22.22499999999999787 -103.1875 #
face $-1 $644 $645 $2 $-1 $646 reversed single #
loop $-1 $-1 $647 $512 #
cone-surface $-1 82.54999999999999716 -23.24127324654124749 101.5999999999999943 0 1 0 6.349999999999999645 0 0 1 I I 0 1 6.349999999999999645 forward I I I I #
coedge $-1 $648 $649 $516 $592 forward $513 $-1 #
coedge $-1 $519 $519 $517 $593 reversed $515 $-1 #
coedge $-1 $516 $516 $650 $651 forward $442 $-1 #
edge $-1 $652 0 $653 3.141592653589793116 $516 $654 forward 7 unknown #
edge $-1 $594 0 $521 3.141592653589793116 $517 $655 forward 7 unknown #
vertex $-1 $593 $656 #
straight-curve $-1 92.07499999999998863 -22.22499999999999787 101.5999999999999943 0 1 0 I I #
ellipse-curve $-1 82.54999999999999716 -15.875 101.5999999999999943 0 -1 0 9.524999999999991473 0 0 1 I I #
point $-1 73.02500000000000568 -15.875 101.5999999999999943 #
coedge $-1 $523 $523 $565 $627 forward $448 $-1 #
coedge $-1 $635 $525 $528 $604 reversed $601 $-1 #
coedge $-1 $525 $635 $527 $603 forward $601 $-1 #
loop $-1 $-1 $599 $657 #
ellipse-curve $-1 128.5875000000000057 -22.22499999999999787 103.1874999999999858 0 -1 0 -18.12290000000000134 0 1.421085471520200372e-14 1 I I #
edge $-1 $637 0 $531 4.762499999999999289 $600 $658 forward 7 unknown #
edge $-1 $638 0 $530 4.762499999999999289 $599 $659 forward 7 unknown #
face $-1 $657 $529 $2 $-1 $660 reversed single #
point $-1 146.7103999999999928 -22.22499999999999787 103.1875 #
point $-1 110.4646000000000043 -22.22499999999999787 103.1875 #
coedge $-1 $537 $536 $661 $662 forward $538 $-1 #
face $-1 $663 $538 $2 $-1 $664 reversed single #
coedge $-1 $661 $661 $540 $611 reversed $665 $-1 #
edge $-1 $612 0 $614 3.14159265358979134 $610 $666 forward 7 unknown #
vertex $-1 $662 $667 #
straight-curve $-1 -139.6999999999999886 0 -57.14999999999999858 0 -1 0 I I #
vertex $-1 $662 $668 #
straight-curve $-1 -123.8249999999999886 0 -57.14999999999999858 0 -1 0 I I #
cone-surface $-1 -131.7624999999999886 0 -57.14999999999999858 0 -1 0 7.9375 0 0 1 I I 0 1 7.9375 forward I I I I #
coedge $-1 $548 $548 $546 $618 forward $620 $-1 #
edge $-1 $550 0 $552 3.14159265358979134 $617 $669 forward 7 unknown #
cone-surface $-1 -134.9375 0 57.14999999999999858 0 1 0 -7.9375 0 0 1 I I 0 1 7.9375 forward I I I I #
loop $-1 $665 $548 $70 #
ellipse-curve $-1 -134.9375 -22.22499999999999787 57.14999999999999858 0 1 0 7.9375 0 0 1 I I #
point $-1 -142.875 -22.22499999999999787 57.14999999999999858 #
point $-1 -127 -22.22499999999999787 57.14999999999999858 #
ellipse-curve $-1 134.9375 -22.22499999999999787 -57.14999999999999147 0 1 0 7.9375 0 -7.105427357601001859e-15 1 I I #
coedge $-1 $563 $563 $564 $626 reversed $494 $-1 #
edge $-1 $628 0 $570 3.141592653589791784 $625 $670 forward 7 unknown #
edge $-1 $629 0 $571 3.141592653589794448 $598 $671 forward 7 unknown #
vertex $-1 $626 $672 #
vertex $-1 $627 $673 #
straight-curve $-1 -110.4645999999999759 -17.46249999999999858 103.1875 0 -1 0 I I #
ellipse-curve $-1 -128.5874999999999773 -17.46249999999999858 103.1874999999999858 0 -1 0 18.12290000000000134 0 1.421085471520200372e-14 1 I I #
ellipse-curve $-1 -128.5875000000000057 -22.22499999999999787 103.1875000000000142 0 1 0 -18.12289999999998713 0 -1.421085471520200372e-14 1 I I #
point $-1 -146.7103999999999928 -17.46249999999999858 103.1875 #
point $-1 -146.7103999999999928 -22.22499999999999787 103.1875 #
coedge $-1 $600 $599 $573 $636 reversed $601 $-1 #
edge $-1 $637 0 $638 3.141592653589791784 $573 $674 forward 7 unknown #
vertex $-1 $636 $675 #
vertex $-1 $636 $676 #
ellipse-curve $-1 128.5874999999999773 -17.46249999999999858 103.1874999999999858 0 1 0 -18.12290000000000134 0 1.421085471520200372e-14 1 I I #
ellipse-curve $-1 128.5874999999999773 -17.46249999999999858 -103.1875000000000142 0 1 0 -18.12290000000000134 0 1.421085471520200372e-14 1 I I #
ellipse-curve $-1 128.5875000000000057 -22.22499999999999787 -103.1874999999999858 0 1 0 -18.12290000000000134 0 -1.421085471520200372e-14 1 I I #
point $-1 110.4645999999999759 -17.46249999999999858 -103.1875 #
point $-1 110.4646000000000043 -22.22499999999999787 -103.1875 #
face $-1 $605 $677 $2 $-1 $678 reversed single #
loop $-1 $-1 $679 $586 #
cone-surface $-1 82.54999999999999716 -2.899535069174991264 101.5999999999999943 0 1 0 1.664279482350517148 0 0 1 I I -0.8571673007021122226 0.5150380749100543776 1.664279482350517148 forward I I I I #
coedge $-1 $680 $681 $682 $683 forward $587 $-1 #
coedge $-1 $684 $589 $680 $685 forward $513 $-1 #
coedge $-1 $589 $684 $681 $686 reversed $513 $-1 #
coedge $-1 $681 $680 $591 $651 reversed $587 $-1 #
edge $-1 $652 0 $653 3.141592653589793116 $591 $687 forward 7 unknown #
vertex $-1 $651 $688 #
vertex $-1 $651 $689 #
ellipse-curve $-1 82.54999999999999716 -15.875 101.5999999999999943 2.797412345512207883e-16 -1 0 6.349999999999994316 1.776356839400250465e-15 0 1 I I #
ellipse-curve $-1 82.54999999999999716 -15.875 101.5999999999999943 0 1 0 9.524999999999991473 0 0 1 I I #
point $-1 92.07499999999998863 -15.875 101.5999999999999943 #
face $-1 $376 $601 $2 $-1 $690 reversed single #
straight-curve $-1 110.4645999999999759 -17.46249999999999858 103.1875 0 -1 0 I I #
straight-curve $-1 146.7103999999999928 -17.46249999999999858 103.1875 0 -1 0 I I #
cone-surface $-1 128.5874999999999773 1.111249999999998295 103.1875 0 -1 0 -18.12290000000000134 0 0 1 I I 0 1 18.12290000000000134 forward I I I I #
coedge $-1 $610 $610 $608 $662 reversed $665 $-1 #
edge $-1 $614 0 $612 3.141592653589793116 $661 $691 forward 7 unknown #
face $-1 $692 $693 $2 $-1 $694 reversed single #
cone-surface $-1 -131.7624999999999886 0 -57.14999999999999858 0 -1 0 7.9375 0 0 1 I I 0 1 7.9375 forward I I I I #
loop $-1 $695 $610 $70 #
ellipse-curve $-1 -131.7624999999999886 -22.22499999999999787 -57.14999999999999147 0 -1 0 -7.9375 0 -7.105427357601001859e-15 1 I I #
point $-1 -139.6999999999999886 -22.22499999999999787 -57.14999999999999858 #
point $-1 -123.8249999999999886 -22.22499999999999787 -57.14999999999999858 #
ellipse-curve $-1 -134.9375 -22.22499999999999787 57.14999999999999147 0 1 0 -7.9375 0 7.105427357601001859e-15 1 I I #
ellipse-curve $-1 -128.5874999999999773 -17.46249999999999858 103.1875000000000142 0 1 0 18.12290000000000134 0 -1.421085471520200372e-14 1 I I #
ellipse-curve $-1 -128.5875000000000057 -22.22499999999999787 103.1874999999999858 0 1 0 18.12290000000000134 0 1.421085471520200372e-14 1 I I #
point $-1 -110.4645999999999759 -17.46249999999999858 103.1875 #
point $-1 -110.4646000000000043 -22.22499999999999787 103.1875 #
ellipse-curve $-1 128.5874999999999773 -17.46249999999999858 103.1875000000000142 0 -1 0 -18.12290000000000134 0 -1.421085471520200372e-14 1 I I #
point $-1 110.4645999999999759 -17.46249999999999858 103.1875 #
point $-1 146.7103999999999928 -17.46249999999999858 103.1875 #
loop $-1 $-1 $696 $644 #
cone-surface $-1 82.54999999999999716 -2.899535069174991264 101.5999999999999943 0 1 0 1.664279482350517148 0 0 1 I I -0.8571673007021122226 0.5150380749100543776 1.664279482350517148 forward I I I I #
coedge $-1 $682 $697 $698 $699 reversed $645 $-1 #
coedge $-1 $650 $647 $648 $685 reversed $587 $-1 #
coedge $-1 $647 $650 $649 $686 forward $587 $-1 #
coedge $-1 $697 $679 $647 $683 reversed $645 $-1 #
edge $-1 $700 -5.008330131727420482e-30 $701 3.141592653589797557 $647 $702 forward 7 unknown #
coedge $-1 $649 $648 $696 $703 reversed $513 $-1 #
edge $-1 $653 0 $701 10.16000000000000369 $680 $704 forward 7 unknown #
edge $-1 $652 0 $700 10.15999999999999481 $681 $705 forward 7 unknown #
ellipse-curve $-1 82.54999999999999716 -15.875 101.5999999999999943 -2.797412345512207883e-16 1 0 6.349999999999994316 1.776356839400250465e-15 0 1 I I #
point $-1 88.89999999999999147 -15.87499999999999822 101.5999999999999943 #
point $-1 76.20000000000000284 -15.87499999999999822 101.5999999999999943 #
cone-surface $-1 128.5874999999999773 1.111249999999998295 103.1875 0 -1 0 -18.12290000000000134 0 0 1 I I 0 1 18.12290000000000134 forward I I I I #
ellipse-curve $-1 -131.7624999999999886 -22.22499999999999787 -57.14999999999999858 0 -1 0 7.9375 0 0 1 I I #
face $-1 $706 $707 $2 $-1 $708 reversed single #
loop $-1 $-1 $709 $663 #
cone-surface $-1 -82.54999999999999716 -23.24127324654124749 -101.5999999999999943 0 1 0 9.524999999999998579 0 0 1 I I 0 1 9.524999999999998579 forward I I I I #
loop $-1 $710 $711 $70 #
coedge $-1 $698 $712 $684 $703 forward $677 $-1 #
coedge $-1 $679 $682 $712 $713 forward $645 $-1 #
coedge $-1 $712 $696 $679 $699 forward $677 $-1 #
edge $-1 $701 0 $714 7.40812207231735087 $679 $715 forward 7 unknown #
vertex $-1 $686 $716 #
vertex $-1 $685 $717 #
ellipse-curve $-1 82.54999999999999716 -5.714999999999993641 101.5999999999999801 0 1 0 6.350000000000008527 0 1.421085471520200372e-14 1 I I #
edge $-1 $700 -5.008330131727420482e-30 $701 3.141592653589797557 $684 $718 forward 7 unknown #
straight-curve $-1 76.20000000000000284 -15.87499999999999822 101.5999999999999943 0 1 0 I I #
straight-curve $-1 88.89999999999999147 -15.87499999999999822 101.5999999999999943 0 1 0 I I #
face $-1 $719 $720 $2 $-1 $721 reversed single #
loop $-1 $-1 $722 $692 #
cone-surface $-1 -82.54999999999999716 -23.24127324654124749 -101.5999999999999943 0 1 0 9.524999999999998579 0 0 1 I I 0 1 9.524999999999998579 forward I I I I #
coedge $-1 $723 $724 $725 $726 forward $693 $-1 #
loop $-1 $727 $728 $70 #
coedge $-1 $729 $729 $724 $730 forward $695 $-1 #
coedge $-1 $696 $698 $697 $713 reversed $677 $-1 #
edge $-1 $700 7.149177238850537804e-15 $714 7.40812207231735087 $697 $731 forward 7 unknown #
vertex $-1 $713 $732 #
straight-curve $-1 76.19999999999998863 -5.714999999999993641 101.5999999999999943 0.8571673007021131108 0.5150380749100528233 0 I I #
point $-1 88.89999999999999147 -5.715000000000003411 101.5999999999999943 #
point $-1 76.19999999999998863 -5.714999999999993641 101.5999999999999943 #
ellipse-curve $-1 82.54999999999999716 -5.714999999999993641 101.6000000000000085 0 -1 0 6.350000000000008527 0 -1.421085471520200372e-14 1 I I #
face $-1 $733 $734 $2 $-1 $735 reversed single #
loop $-1 $736 $737 $706 #
plane-surface $-1 -82.54999999999999716 -15.875 -101.5999999999999943 0 1 0 1 0 0 forward_v I I I I #
coedge $-1 $738 $739 $740 $741 forward $707 $-1 #
coedge $-1 $740 $709 $742 $743 reversed $693 $-1 #
coedge $-1 $709 $740 $711 $730 reversed $693 $-1 #
coedge $-1 $739 $738 $709 $726 reversed $707 $-1 #
edge $-1 $744 0 $745 6.349999999999997868 $725 $746 forward 7 unknown #
loop $-1 $-1 $747 $70 #
coedge $-1 $748 $748 $749 $750 forward $710 $-1 #
coedge $-1 $711 $711 $739 $751 forward $695 $-1 #
edge $-1 $744 0 $752 3.141592653589793116 $711 $753 forward 7 unknown #
straight-curve $-1 88.90000000000000568 -5.714999999999993641 101.5999999999999943 -0.8571673007021131108 0.5150380749100528233 0 I I #
point $-1 82.54999999999999716 -1.899535069174993707 101.5999999999999943 #
face $-1 $754 $755 $2 $-1 $756 reversed single #
loop $-1 $-1 $757 $719 #
cone-surface $-1 -82.54999999999999716 -23.24127324654124749 -101.5999999999999943 0 1 0 6.349999999999999645 0 0 1 I I 0 1 6.349999999999999645 forward I I I I #
loop $-1 $-1 $758 $706 #
coedge $-1 $759 $759 $757 $760 reversed $720 $-1 #
coedge $-1 $725 $722 $758 $761 forward $707 $-1 #
coedge $-1 $722 $725 $729 $751 reversed $707 $-1 #
coedge $-1 $724 $723 $722 $741 reversed $693 $-1 #
edge $-1 $752 0 $762 6.349999999999997868 $722 $763 forward 7 unknown #
coedge $-1 $758 $758 $723 $743 forward $736 $-1 #
edge $-1 $762 0 $745 3.141592653589793116 $742 $764 forward 7 unknown #
vertex $-1 $751 $765 #
vertex $-1 $726 $766 #
straight-curve $-1 -92.07499999999998863 -22.22499999999999787 -101.5999999999999943 0 1 0 I I #
coedge $-1 $767 $767 $768 $769 forward $727 $-1 #
coedge $-1 $728 $728 $770 $771 forward $710 $-1 #
coedge $-1 $772 $773 $728 $750 reversed $774 $-1 #
edge $-1 $775 0 $776 3.141592653589793116 $728 $777 forward 7 unknown #
edge $-1 $752 0 $744 3.141592653589793116 $729 $778 forward 7 unknown #
vertex $-1 $751 $779 #
ellipse-curve $-1 -82.54999999999999716 -22.22499999999999787 -101.5999999999999943 0 1 0 -9.524999999999991473 0 0 1 I I #
face $-1 $780 $781 $2 $-1 $782 reversed single #
loop $-1 $-1 $783 $733 #
cone-surface $-1 -82.54999999999999716 -23.24127324654124749 -101.5999999999999943 0 1 0 6.349999999999999645 0 0 1 I I 0 1 6.349999999999999645 forward I I I I #
coedge $-1 $784 $785 $737 $760 forward $734 $-1 #
coedge $-1 $742 $742 $738 $761 reversed $736 $-1 #
coedge $-1 $737 $737 $786 $787 forward $720 $-1 #
edge $-1 $788 0 $789 3.141592653589793116 $737 $790 forward 7 unknown #
edge $-1 $762 0 $745 3.141592653589793116 $738 $791 forward 7 unknown #
vertex $-1 $761 $792 #
straight-curve $-1 -73.02500000000000568 -22.22499999999999787 -101.5999999999999943 0 1 0 I I #
ellipse-curve $-1 -82.54999999999999716 -15.875 -101.5999999999999943 0 -1 0 9.524999999999991473 0 0 1 I I #
point $-1 -92.07499999999998863 -22.22499999999999787 -101.5999999999999943 #
point $-1 -92.07499999999998863 -15.875 -101.5999999999999943 #
coedge $-1 $747 $747 $793 $794 forward $727 $-1 #
coedge $-1 $795 $796 $747 $769 reversed $797 $-1 #
edge $-1 $798 0 $799 3.141592653589797557 $747 $800 forward 7 unknown #
coedge $-1 $801 $802 $748 $771 reversed $803 $-1 #
edge $-1 $776 0 $775 3.141592653589797557 $748 $804 forward 7 unknown #
coedge $-1 $805 $749 $802 $806 forward $774 $-1 #
coedge $-1 $749 $805 $801 $807 reversed $774 $-1 #
loop $-1 $-1 $772 $808 #
vertex $-1 $771 $809 #
vertex $-1 $771 $810 #
ellipse-curve $-1 -82.54999999999999716 -22.22499999999999787 101.5999999999999943 0 1 0 -6.349999999999994316 0 0 1 I I #
ellipse-curve $-1 -82.54999999999998295 -22.22499999999999787 -101.5999999999999943 0 1 0 9.524999999999991473 0 0 1 I I #
point $-1 -73.02499999999999147 -22.22499999999999787 -101.5999999999999943 #
face $-1 $808 $811 $2 $-1 $812 reversed single #
loop $-1 $-1 $813 $754 #
cone-surface $-1 -82.54999999999999716 -2.899535069174991264 -101.5999999999999943 0 1 0 1.664279482350517148 0 0 1 I I -0.8571673007021122226 0.5150380749100543776 1.664279482350517148 forward I I I I #
coedge $-1 $814 $815 $816 $817 forward $755 $-1 #
coedge $-1 $818 $757 $814 $819 forward $734 $-1 #
coedge $-1 $757 $818 $815 $820 reversed $734 $-1 #
coedge $-1 $815 $814 $759 $787 reversed $755 $-1 #
edge $-1 $788 0 $789 3.141592653589793116 $759 $821 forward 7 unknown #
vertex $-1 $787 $822 #
vertex $-1 $787 $823 #
ellipse-curve $-1 -82.54999999999999716 -15.875 -101.5999999999999943 2.797412345512207883e-16 -1 0 6.349999999999994316 1.776356839400250465e-15 0 1 I I #
ellipse-curve $-1 -82.54999999999999716 -15.875 -101.5999999999999943 0 1 0 9.524999999999991473 0 0 1 I I #
point $-1 -73.02500000000000568 -15.875 -101.5999999999999943 #
coedge $-1 $824 $825 $767 $794 reversed $826 $-1 #
edge $-1 $799 0 $798 3.141592653589793116 $767 $827 forward 7 unknown #
coedge $-1 $828 $768 $825 $829 forward $797 $-1 #
coedge $-1 $768 $828 $824 $830 reversed $797 $-1 #
loop $-1 $-1 $795 $831 #
vertex $-1 $794 $832 #
vertex $-1 $794 $833 #
ellipse-curve $-1 82.54999999999998295 -22.22499999999999787 -101.5999999999999801 0 1 0 -6.349999999999994316 0 -1.421085471520200372e-14 1 I I #
coedge $-1 $834 $770 $773 $807 forward $803 $-1 #
coedge $-1 $770 $834 $772 $806 reversed $803 $-1 #
loop $-1 $-1 $801 $835 #
ellipse-curve $-1 -82.54999999999998295 -22.22499999999999787 101.5999999999999801 0 1 0 6.349999999999994316 0 1.421085471520200372e-14 1 I I #
coedge $-1 $773 $772 $836 $837 reversed $774 $-1 #
edge $-1 $775 0 $838 16.51000000000000512 $802 $839 forward 7 unknown #
edge $-1 $776 0 $840 16.51000000000000512 $801 $841 forward 7 unknown #
face $-1 $835 $774 $2 $-1 $842 reversed single #
point $-1 -88.89999999999999147 -22.22499999999999787 101.5999999999999943 #
point $-1 -76.19999999999998863 -22.22499999999999787 101.5999999999999943 #
loop $-1 $-1 $843 $780 #
cone-surface $-1 -82.54999999999999716 -2.899535069174991264 -101.5999999999999943 0 1 0 1.664279482350517148 0 0 1 I I -0.8571673007021122226 0.5150380749100543776 1.664279482350517148 forward I I I I #
coedge $-1 $816 $844 $845 $846 reversed $781 $-1 #
coedge $-1 $786 $783 $784 $819 reversed $755 $-1 #
coedge $-1 $783 $786 $785 $820 forward $755 $-1 #
coedge $-1 $844 $813 $783 $817 reversed $781 $-1 #
edge $-1 $847 -5.008330131727420482e-30 $848 3.141592653589797557 $783 $849 forward 7 unknown #
coedge $-1 $785 $784 $843 $850 reversed $734 $-1 #
edge $-1 $789 0 $848 10.16000000000000369 $814 $851 forward 7 unknown #
edge $-1 $788 0 $847 10.15999999999999481 $815 $852 forward 7 unknown #
ellipse-curve $-1 -82.54999999999999716 -15.875 -101.5999999999999943 -2.797412345512207883e-16 1 0 6.349999999999994316 1.776356839400250465e-15 0 1 I I #
point $-1 -76.20000000000000284 -15.87499999999999822 -101.5999999999999943 #
point $-1 -88.89999999999999147 -15.87499999999999822 -101.5999999999999943 #
coedge $-1 $853 $793 $796 $830 forward $826 $-1 #
coedge $-1 $793 $853 $795 $829 reversed $826 $-1 #
loop $-1 $-1 $824 $854 #
ellipse-curve $-1 82.54999999999999716 -22.22499999999999787 -101.5999999999999943 0 1 0 6.349999999999994316 0 0 1 I I #
coedge $-1 $796 $795 $855 $856 reversed $797 $-1 #
edge $-1 $798 0 $857 16.51000000000000512 $825 $858 forward 7 unknown #
edge $-1 $799 0 $859 16.51000000000000512 $824 $860 forward 7 unknown #
face $-1 $854 $797 $2 $-1 $861 reversed single #
point $-1 76.19999999999998863 -22.22499999999999787 -101.5999999999999943 #
point $-1 88.89999999999999147 -22.22499999999999787 -101.5999999999999943 #
coedge $-1 $802 $801 $862 $863 forward $803 $-1 #
face $-1 $864 $803 $2 $-1 $865 reversed single #
coedge $-1 $866 $867 $805 $837 forward $868 $-1 #
edge $-1 $840 0 $838 3.141592653589797557 $805 $869 forward 7 unknown #
vertex $-1 $806 $870 #
straight-curve $-1 -88.89999999999999147 -22.22499999999999787 101.5999999999999943 0 1 0 I I #
vertex $-1 $863 $871 #
straight-curve $-1 -76.20000000000000284 -22.22499999999999787 101.5999999999999943 0 1 0 I I #
cone-surface $-1 -82.54999999999999716 -23.24127324654124749 101.5999999999999943 0 1 0 6.349999999999999645 0 0 1 I I 0 1 6.349999999999999645 forward I I I I #
coedge $-1 $845 $872 $818 $850 forward $811 $-1 #
coedge $-1 $813 $816 $872 $873 forward $781 $-1 #
coedge $-1 $872 $843 $813 $846 forward $811 $-1 #
edge $-1 $848 0 $874 7.40812207231735087 $813 $875 forward 7 unknown #
vertex $-1 $820 $876 #
vertex $-1 $819 $877 #
ellipse-curve $-1 -82.54999999999999716 -5.714999999999993641 -101.6000000000000085 0 1 0 6.350000000000008527 0 1.421085471520200372e-14 1 I I #
edge $-1 $847 -5.008330131727420482e-30 $848 3.141592653589797557 $818 $878 forward 7 unknown #
straight-curve $-1 -88.89999999999999147 -15.87499999999999822 -101.5999999999999943 0 1 0 I I #
straight-curve $-1 -76.20000000000000284 -15.87499999999999822 -101.5999999999999943 0 1 0 I I #
coedge $-1 $825 $824 $879 $880 forward $826 $-1 #
face $-1 $881 $826 $2 $-1 $882 reversed single #
coedge $-1 $883 $884 $828 $856 forward $885 $-1 #
edge $-1 $859 0 $857 3.141592653589797557 $828 $886 forward 7 unknown #
vertex $-1 $829 $887 #
straight-curve $-1 76.20000000000000284 -22.22499999999999787 -101.5999999999999943 0 1 0 I I #
vertex $-1 $880 $888 #
straight-curve $-1 88.89999999999999147 -22.22499999999999787 -101.5999999999999943 0 1 0 I I #
cone-surface $-1 82.54999999999999716 -23.24127324654124749 -101.5999999999999943 0 1 0 6.349999999999999645 0 0 1 I I 0 1 6.349999999999999645 forward I I I I #
coedge $-1 $889 $890 $834 $863 reversed $891 $-1 #
edge $-1 $840 0 $838 3.141592653589797557 $834 $892 forward 7 unknown #
face $-1 $893 $891 $2 $-1 $894 reversed single #
cone-surface $-1 -82.54999999999999716 -23.24127324654124749 101.5999999999999943 0 1 0 6.349999999999999645 0 0 1 I I 0 1 6.349999999999999645 forward I I I I #
coedge $-1 $867 $836 $890 $895 forward $868 $-1 #
coedge $-1 $836 $866 $889 $896 reversed $868 $-1 #
loop $-1 $-1 $836 $893 #
ellipse-curve $-1 -82.54999999999999716 -5.714999999999993641 101.6000000000000085 0 -1 0 6.350000000000008527 0 -1.421085471520200372e-14 1 I I #
point $-1 -88.90000000000000568 -5.714999999999993641 101.5999999999999943 #
point $-1 -76.19999999999998863 -5.714999999999993641 101.5999999999999943 #
coedge $-1 $843 $845 $844 $873 reversed $811 $-1 #
edge $-1 $847 7.149177238850537804e-15 $874 7.40812207231735087 $844 $897 forward 7 unknown #
vertex $-1 $873 $898 #
straight-curve $-1 -88.90000000000000568 -5.714999999999993641 -101.5999999999999943 0.8571673007021131108 0.5150380749100528233 0 I I #
point $-1 -76.20000000000000284 -5.715000000000003411 -101.5999999999999943 #
point $-1 -88.90000000000000568 -5.714999999999993641 -101.5999999999999943 #
ellipse-curve $-1 -82.54999999999999716 -5.714999999999993641 -101.5999999999999801 0 -1 0 6.350000000000008527 0 -1.421085471520200372e-14 1 I I #
coedge $-1 $899 $900 $853 $880 reversed $901 $-1 #
edge $-1 $859 0 $857 3.141592653589797557 $853 $902 forward 7 unknown #
face $-1 $903 $901 $2 $-1 $904 reversed single #
cone-surface $-1 82.54999999999999716 -23.24127324654124749 -101.5999999999999943 0 1 0 6.349999999999999645 0 0 1 I I 0 1 6.349999999999999645 forward I I I I #
coedge $-1 $884 $855 $900 $905 forward $885 $-1 #
coedge $-1 $855 $883 $899 $906 reversed $885 $-1 #
loop $-1 $-1 $855 $903 #
ellipse-curve $-1 82.54999999999999716 -5.714999999999993641 -101.5999999999999801 0 -1 0 6.350000000000008527 0 -1.421085471520200372e-14 1 I I #
point $-1 76.19999999999998863 -5.714999999999993641 -101.5999999999999943 #
point $-1 88.90000000000000568 -5.714999999999993641 -101.5999999999999943 #
coedge $-1 $890 $862 $867 $896 forward $891 $-1 #
coedge $-1 $862 $889 $866 $895 reversed $891 $-1 #
loop $-1 $-1 $890 $864 #
ellipse-curve $-1 -82.54999999999999716 -5.714999999999993641 101.5999999999999801 0 1 0 6.350000000000008527 0 1.421085471520200372e-14 1 I I #
face $-1 $831 $868 $2 $-1 $907 reversed single #
cone-surface $-1 -82.54999999999999716 -2.899535069174991264 101.5999999999999943 0 1 0 1.664279482350517148 0 0 1 I I -0.8571673007021122226 0.5150380749100543776 1.664279482350517148 forward I I I I #
edge $-1 $838 0 $908 7.40812207231735087 $890 $909 forward 7 unknown #
edge $-1 $840 0 $908 7.40812207231735087 $889 $910 forward 7 unknown #
straight-curve $-1 -76.19999999999998863 -5.714999999999993641 -101.5999999999999943 -0.8571673007021131108 0.5150380749100528233 0 I I #
point $-1 -82.54999999999999716 -1.899535069174993707 -101.5999999999999943 #
coedge $-1 $900 $879 $884 $906 forward $901 $-1 #
coedge $-1 $879 $899 $883 $905 reversed $901 $-1 #
loop $-1 $-1 $900 $881 #
ellipse-curve $-1 82.54999999999999716 -5.714999999999993641 -101.6000000000000085 0 1 0 6.350000000000008527 0 1.421085471520200372e-14 1 I I #
face $-1 $-1 $885 $2 $-1 $911 reversed single #
cone-surface $-1 82.54999999999999716 -2.899535069174991264 -101.5999999999999943 0 1 0 1.664279482350517148 0 0 1 I I -0.8571673007021122226 0.5150380749100543776 1.664279482350517148 forward I I I I #
edge $-1 $857 0 $912 7.40812207231735087 $900 $913 forward 7 unknown #
edge $-1 $859 0 $912 7.40812207231735087 $899 $914 forward 7 unknown #
cone-surface $-1 -82.54999999999999716 -2.899535069174991264 101.5999999999999943 0 1 0 1.664279482350517148 0 0 1 I I -0.8571673007021122226 0.5150380749100543776 1.664279482350517148 forward I I I I #
vertex $-1 $896 $915 #
straight-curve $-1 -88.90000000000000568 -5.714999999999993641 101.5999999999999943 0.8571673007021131108 0.5150380749100528233 0 I I #
straight-curve $-1 -76.19999999999998863 -5.714999999999993641 101.5999999999999943 -0.8571673007021131108 0.5150380749100528233 0 I I #
cone-surface $-1 82.54999999999999716 -2.899535069174991264 -101.5999999999999943 0 1 0 1.664279482350517148 0 0 1 I I -0.8571673007021122226 0.5150380749100543776 1.664279482350517148 forward I I I I #
vertex $-1 $906 $916 #
straight-curve $-1 76.19999999999998863 -5.714999999999993641 -101.5999999999999943 0.8571673007021131108 0.5150380749100528233 0 I I #
straight-curve $-1 88.90000000000000568 -5.714999999999993641 -101.5999999999999943 -0.8571673007021131108 0.5150380749100528233 0 I I #
point $-1 -82.54999999999999716 -1.899535069174993707 101.5999999999999943 #
point $-1 82.54999999999999716 -1.899535069174993707 -101.5999999999999943 #
End-of-ACIS-data 