700 0 2 0           
24 FBMach with ACIS - 7.0.3 13 ACIS 7.0.3 NT 24 Thu May 16 14:54:56 2002 
1 9.9999999999999995e-007 1e-010 
body $2 -1 $-1 $3 $-1 $4 #
bdycol-kcp $-1 -1 1 9 $5 $6 $7 $8 $9 $10 $11 $12 $13 #
model_id-kcp-attrib $-1 -1 $-1 $-1 $0 1 1021575294 1021575295 -812580863 1 #
lump $-1 -1 $-1 $-1 $14 $0 #
transform $-1 -1 1 0 0 0 1 0 0 0 1 0 0 0 1 rotate no_reflect no_shear #
body $15 -1 $-1 $16 $-1 $17 #
body $18 -1 $-1 $19 $-1 $20 #
body $21 -1 $-1 $22 $-1 $23 #
body $24 -1 $-1 $25 $-1 $26 #
body $27 -1 $-1 $28 $-1 $29 #
body $30 -1 $-1 $31 $-1 $32 #
body $33 -1 $-1 $34 $-1 $35 #
body $36 -1 $-1 $37 $-1 $38 #
body $39 -1 $-1 $40 $-1 $41 #
shell $-1 -1 $-1 $-1 $-1 $42 $-1 $3 #
rgb_color-st-attrib $-1 -1 $43 $-1 $5 0 0 1 #
lump $-1 -1 $-1 $-1 $44 $5 #
transform $-1 -1 1 0 0 0 1 0 0 0 1 0 12.699999999999999 0 1 no_rotate no_reflect no_shear #
rgb_color-st-attrib $-1 -1 $45 $-1 $6 0.5 1 1 #
lump $-1 -1 $-1 $-1 $46 $6 #
transform $-1 -1 1 0 0 0 1 0 0 0 1 0 0 0 1 no_rotate no_reflect no_shear #
model_id-kcp-attrib $-1 -1 $-1 $-1 $7 1 1021575294 1021575295 -812580862 1 #
lump $-1 -1 $-1 $-1 $47 $7 #
transform $-1 -1 1 0 0 0 1 0 0 0 1 0 12.699999999999999 0 1 no_rotate no_reflect no_shear #
rgb_color-st-attrib $-1 -1 $48 $-1 $8 0 0 1 #
lump $-1 -1 $-1 $-1 $49 $8 #
transform $-1 -1 1 0 0 0 1 0 0 0 1 0 12.699999999999999 0 1 no_rotate no_reflect no_shear #
rgb_color-st-attrib $-1 -1 $50 $-1 $9 0.5 1 1 #
lump $-1 -1 $-1 $-1 $51 $9 #
transform $-1 -1 1 0 0 0 1 0 0 0 1 0 0 0 1 no_rotate no_reflect no_shear #
rgb_color-st-attrib $-1 -1 $52 $-1 $10 0 0 1 #
lump $-1 -1 $-1 $-1 $53 $10 #
transform $-1 -1 1 0 0 0 1 0 0 0 1 0 12.699999999999999 0 1 no_rotate no_reflect no_shear #
rgb_color-st-attrib $-1 -1 $54 $-1 $11 0.5 1 1 #
lump $-1 -1 $-1 $-1 $55 $11 #
transform $-1 -1 1 0 0 0 1 0 0 0 1 0 0 0 1 no_rotate no_reflect no_shear #
rgb_color-st-attrib $-1 -1 $56 $-1 $12 0.5 1 1 #
lump $-1 -1 $-1 $-1 $57 $12 #
transform $-1 -1 1 0 0 0 1 0 0 0 1 0 0 0 1 no_rotate no_reflect no_shear #
rgb_color-st-attrib $-1 -1 $58 $-1 $13 0 0 1 #
lump $-1 -1 $-1 $-1 $59 $13 #
transform $-1 -1 1 0 0 0 1 0 0 0 1 0 12.699999999999999 0 1 no_rotate no_reflect no_shear #
face $60 -1 $-1 $61 $62 $14 $-1 $63 reversed single #
model_id-kcp-attrib $-1 -1 $-1 $15 $5 1 1021575294 1021575295 -817627128 1 #
shell $-1 -1 $-1 $-1 $-1 $64 $-1 $16 #
model_id-kcp-attrib $-1 -1 $-1 $18 $6 1 1021575294 1021575295 -813629437 1 #
shell $-1 -1 $-1 $-1 $-1 $65 $-1 $19 #
shell $-1 -1 $-1 $-1 $-1 $66 $-1 $22 #
model_id-kcp-attrib $-1 -1 $-1 $24 $8 1 1021575294 1021575295 -811991033 1 #
shell $-1 -1 $-1 $-1 $-1 $67 $-1 $25 #
model_id-kcp-attrib $-1 -1 $-1 $27 $9 1 1021575294 1021575295 -811007996 1 #
shell $-1 -1 $-1 $-1 $-1 $68 $-1 $28 #
model_id-kcp-attrib $-1 -1 $-1 $30 $10 1 1021575294 1021575295 -808452087 1 #
shell $-1 -1 $-1 $-1 $-1 $69 $-1 $31 #
model_id-kcp-attrib $-1 -1 $-1 $33 $11 1 1021575294 1021575295 -808386555 1 #
shell $-1 -1 $-1 $-1 $-1 $70 $-1 $34 #
model_id-kcp-attrib $-1 -1 $-1 $36 $12 1 1021575294 1021575295 -805765114 1 #
shell $-1 -1 $-1 $-1 $-1 $71 $-1 $37 #
model_id-kcp-attrib $-1 -1 $-1 $39 $13 1 1021575294 1021575296 -815136758 1 #
shell $-1 -1 $-1 $-1 $-1 $72 $-1 $40 #
model_id-kcp-attrib $-1 -1 $-1 $-1 $42 1 1021575294 1021575295 -812580863 2 #
face $73 -1 $-1 $74 $75 $14 $-1 $76 reversed single #
loop $-1 -1 $-1 $77 $78 $42 #
plane-surface $-1 -1 $-1 0 0 0 0 1 0 -1 0 0 forward_v I I I I #
face $-1 -1 $-1 $79 $80 $44 $-1 $81 forward single #
face $-1 -1 $-1 $82 $83 $46 $-1 $84 forward single #
face $85 -1 $-1 $86 $87 $47 $-1 $88 forward single #
face $-1 -1 $-1 $89 $90 $49 $-1 $91 forward single #
face $-1 -1 $-1 $92 $93 $51 $-1 $94 forward single #
face $-1 -1 $-1 $95 $96 $53 $-1 $97 forward single #
face $-1 -1 $-1 $98 $99 $55 $-1 $100 forward single #
face $-1 -1 $-1 $101 $102 $57 $-1 $103 forward single #
face $-1 -1 $-1 $104 $105 $59 $-1 $106 forward single #
model_id-kcp-attrib $-1 -1 $-1 $-1 $61 1 1021575294 1021575295 -812580863 3 #
face $107 -1 $-1 $108 $109 $14 $-1 $110 reversed single #
loop $-1 -1 $-1 $-1 $111 $61 #
cone-surface $-1 -1 $-1 -134.9375 26.669999999999998 -77.787499999999994 0 -1 0 -6.7475099999999992 0 0 1 I I 0 1 6.7475099999999992 forward I I I I #
loop $-1 -1 $-1 $112 $113 $42 #
coedge $-1 -1 $-1 $114 $114 $115 $116 reversed $62 $-1 #
face $-1 -1 $-1 $117 $118 $44 $-1 $119 reversed single #
loop $-1 -1 $-1 $120 $121 $64 #
cone-surface $-1 -1 $-1 -134.9375 -4.5720000000000027 77.787499999999994 0 -1 0 -6.7475099999999992 0 0 1 I I 0 1 6.7475099999999992 forward I I I I #
face $-1 -1 $-1 $122 $123 $46 $-1 $124 forward single #
loop $-1 -1 $-1 $125 $126 $65 #
cone-surface $-1 -1 $-1 -134.9375 8.1280000000000001 -77.787500000000009 0 1 0 -4.3687999999999931 0 1.4210854715202004e-014 1 I I 0 1 4.3687999999999931 forward I I I I #
model_id-kcp-attrib $-1 -1 $-1 $-1 $66 1 1021575294 1021575295 -812580862 7 #
face $127 -1 $-1 $128 $129 $47 $-1 $130 reversed single #
loop $-1 -1 $-1 $-1 $131 $66 #
plane-surface $-1 -1 $-1 0 0 87.3125 0 0 1 1 0 0 forward_v I I I I #
face $-1 -1 $-1 $132 $133 $49 $-1 $134 reversed single #
loop $-1 -1 $-1 $135 $136 $67 #
cone-surface $-1 -1 $-1 134.9375 -4.5720000000000027 -77.787499999999994 0 -1 0 -6.7475099999999992 0 0 1 I I 0 1 6.7475099999999992 forward I I I I #
face $-1 -1 $-1 $137 $138 $51 $-1 $139 reversed single #
loop $-1 -1 $-1 $140 $141 $68 #
cone-surface $-1 -1 $-1 -134.9375 25.399999999999999 77.787499999999994 0 -1 0 4.3687999999999931 0 0 1 I I 0 1 4.3687999999999931 forward I I I I #
face $-1 -1 $-1 $142 $143 $53 $-1 $144 reversed single #
loop $-1 -1 $-1 $145 $146 $69 #
cone-surface $-1 -1 $-1 134.9375 -4.5720000000000027 77.787499999999994 0 -1 0 -6.7475099999999992 0 0 1 I I 0 1 6.7475099999999992 forward I I I I #
face $-1 -1 $-1 $147 $148 $55 $-1 $149 reversed single #
loop $-1 -1 $-1 $150 $151 $70 #
cone-surface $-1 -1 $-1 134.9375 25.399999999999999 -77.787499999999994 0 -1 0 4.3687999999999931 0 0 1 I I 0 1 4.3687999999999931 forward I I I I #
face $-1 -1 $-1 $152 $153 $57 $-1 $154 reversed single #
loop $-1 -1 $-1 $155 $156 $71 #
cone-surface $-1 -1 $-1 134.9375 25.399999999999999 77.787499999999994 0 -1 0 4.3687999999999931 0 0 1 I I 0 1 4.3687999999999931 forward I I I I #
face $-1 -1 $-1 $157 $158 $59 $-1 $159 reversed single #
loop $-1 -1 $-1 $160 $161 $72 #
cone-surface $-1 -1 $-1 -134.9375 -4.5720000000000027 -77.787499999999994 0 -1 0 -6.7475099999999992 0 0 1 I I 0 1 6.7475099999999992 forward I I I I #
model_id-kcp-attrib $-1 -1 $-1 $-1 $74 1 1021575294 1021575295 -812580863 4 #
face $162 -1 $-1 $163 $164 $14 $-1 $165 forward single #
loop $-1 -1 $-1 $-1 $166 $74 #
cone-surface $-1 -1 $-1 -134.9375 26.669999999999998 -77.787499999999994 0 -1 0 -6.7475099999999992 0 0 1 I I 0 1 6.7475099999999992 forward I I I I #
coedge $-1 -1 $-1 $167 $115 $168 $169 reversed $75 $-1 #
loop $-1 -1 $-1 $170 $171 $42 #
coedge $-1 -1 $-1 $172 $172 $173 $174 reversed $77 $-1 #
coedge $-1 -1 $-1 $78 $78 $175 $176 reversed $62 $-1 #
coedge $-1 -1 $-1 $111 $177 $78 $116 forward $75 $-1 #
edge $178 -1 $-1 $179 0 $180 3.1415926535897891 $78 $181 forward @7 unknown #
face $-1 -1 $-1 $-1 $182 $44 $-1 $183 forward single #
loop $-1 -1 $-1 $-1 $184 $79 #
plane-surface $-1 -1 $-1 -134.9375 -12.700000000000003 77.787499999999994 0 1 0 0 0 1 forward_v I I I I #
loop $-1 -1 $-1 $-1 $185 $64 #
coedge $-1 -1 $-1 $121 $121 $184 $186 forward $80 $-1 #
face $-1 -1 $-1 $-1 $187 $46 $-1 $188 reversed single #
loop $-1 -1 $-1 $-1 $189 $82 #
plane-surface $-1 -1 $-1 -134.93749999999997 25.399999999999999 -77.787499999999994 6.3484444273856979e-030 1 2.0800524079821503e-046 0 -2.0800524079821503e-046 1 forward_v I I I I #
loop $-1 -1 $-1 $-1 $190 $65 #
coedge $-1 -1 $-1 $126 $126 $189 $191 forward $83 $-1 #
model_id-kcp-attrib $-1 -1 $-1 $-1 $86 1 1021575294 1021575295 -812580862 5 #
face $192 -1 $-1 $193 $194 $47 $-1 $195 reversed single #
loop $-1 -1 $-1 $-1 $196 $86 #
plane-surface $-1 -1 $-1 0 0 -87.3125 0 0 1 1 0 0 forward_v I I I I #
coedge $-1 -1 $-1 $197 $198 $199 $200 forward $87 $-1 #
face $-1 -1 $-1 $-1 $201 $49 $-1 $202 forward single #
loop $-1 -1 $-1 $-1 $203 $89 #
plane-surface $-1 -1 $-1 134.9375 -12.700000000000003 -77.787499999999994 0 1 0 0 0 1 forward_v I I I I #
loop $-1 -1 $-1 $-1 $204 $67 #
coedge $-1 -1 $-1 $136 $136 $203 $205 forward $90 $-1 #
face $-1 -1 $-1 $-1 $206 $51 $-1 $207 forward single #
loop $-1 -1 $-1 $-1 $208 $92 #
plane-surface $-1 -1 $-1 -134.9375 8.1280000000000037 77.787499999999994 -2.1161481424619109e-029 1 -2.0800524079821503e-046 0 2.0800524079821503e-046 1 forward_v I I I I #
loop $-1 -1 $-1 $-1 $209 $68 #
coedge $-1 -1 $-1 $141 $141 $208 $210 forward $93 $-1 #
face $-1 -1 $-1 $-1 $211 $53 $-1 $212 forward single #
loop $-1 -1 $-1 $-1 $213 $95 #
plane-surface $-1 -1 $-1 134.9375 -12.700000000000003 77.787499999999994 0 1 0 0 0 1 forward_v I I I I #
loop $-1 -1 $-1 $-1 $214 $69 #
coedge $-1 -1 $-1 $146 $146 $213 $215 forward $96 $-1 #
face $-1 -1 $-1 $-1 $216 $55 $-1 $217 forward single #
loop $-1 -1 $-1 $-1 $218 $98 #
plane-surface $-1 -1 $-1 134.9375 8.1280000000000037 -77.787499999999994 -2.1161481424619109e-029 1 -2.0800524079821503e-046 0 2.0800524079821503e-046 1 forward_v I I I I #
loop $-1 -1 $-1 $-1 $219 $70 #
coedge $-1 -1 $-1 $151 $151 $218 $220 forward $99 $-1 #
face $-1 -1 $-1 $-1 $221 $57 $-1 $222 forward single #
loop $-1 -1 $-1 $-1 $223 $101 #
plane-surface $-1 -1 $-1 134.9375 8.1280000000000037 77.787499999999994 -2.1161481424619109e-029 1 -2.0800524079821503e-046 0 2.0800524079821503e-046 1 forward_v I I I I #
loop $-1 -1 $-1 $-1 $224 $71 #
coedge $-1 -1 $-1 $156 $156 $223 $225 forward $102 $-1 #
face $-1 -1 $-1 $-1 $226 $59 $-1 $227 forward single #
loop $-1 -1 $-1 $-1 $228 $104 #
plane-surface $-1 -1 $-1 -134.9375 -12.700000000000003 -77.787499999999994 0 1 0 0 0 1 forward_v I I I I #
loop $-1 -1 $-1 $-1 $229 $72 #
coedge $-1 -1 $-1 $161 $161 $228 $230 forward $105 $-1 #
model_id-kcp-attrib $-1 -1 $-1 $-1 $108 1 1021575294 1021575295 -812580863 5 #
face $231 -1 $-1 $232 $233 $14 $-1 $234 reversed single #
loop $-1 -1 $-1 $235 $236 $108 #
plane-surface $-1 -1 $-1 -134.9375 8.1280000000000001 -77.787499999999994 0 -1 0 -1 0 0 forward_v I I I I #
coedge $-1 -1 $-1 $237 $175 $177 $238 reversed $109 $-1 #
coedge $-1 -1 $-1 $177 $111 $236 $239 forward $75 $-1 #
coedge $-1 -1 $-1 $175 $237 $111 $169 forward $109 $-1 #
edge $-1 -1 $-1 $240 0 $180 8.1280000000000001 $168 $241 forward @7 unknown #
loop $-1 -1 $-1 $242 $243 $42 #
coedge $-1 -1 $-1 $244 $244 $245 $246 reversed $112 $-1 #
coedge $-1 -1 $-1 $113 $113 $247 $248 reversed $77 $-1 #
coedge $-1 -1 $-1 $249 $250 $113 $174 forward $251 $-1 #
edge $252 -1 $-1 $253 0 $254 3.1415926535897891 $113 $255 forward @7 unknown #
coedge $-1 -1 $-1 $166 $168 $114 $176 forward $109 $-1 #
edge $256 -1 $-1 $180 0 $179 3.1415926535897891 $114 $257 forward @7 unknown #
coedge $-1 -1 $-1 $115 $167 $166 $238 forward $75 $-1 #
attrib_edge_convexity-kcp-attrib $-1 -1 $258 $-1 $116 1 #
vertex $-1 -1 $-1 $176 $259 #
vertex $-1 -1 $-1 $176 $260 #
ellipse-curve $-1 -1 $-1 -134.9375 0 -77.787500000000009 0 -1 0 6.7475100000000054 0 1.4210854715202004e-014 1 I I #
loop $-1 -1 $-1 $-1 $261 $117 #
plane-surface $-1 -1 $-1 -134.9375 -4.5720000000000027 77.787499999999994 0 1 0 0 0 1 forward_v I I I I #
coedge $-1 -1 $-1 $184 $184 $121 $186 reversed $118 $-1 #
coedge $-1 -1 $-1 $185 $185 $261 $262 reversed $120 $-1 #
edge $-1 -1 $-1 $263 0 $263 6.2831853071795862 $121 $264 forward @7 unknown #
loop $-1 -1 $-1 $-1 $265 $122 #
plane-surface $-1 -1 $-1 -134.93749999999997 8.1280000000000001 -77.787499999999994 6.3484444273856979e-030 1 2.0800524079821503e-046 0 -2.0800524079821503e-046 1 forward_v I I I I #
coedge $-1 -1 $-1 $189 $189 $126 $191 reversed $123 $-1 #
coedge $-1 -1 $-1 $190 $190 $265 $266 reversed $125 $-1 #
edge $-1 -1 $-1 $267 0 $267 6.2831853071795862 $126 $268 forward @7 unknown #
model_id-kcp-attrib $-1 -1 $-1 $-1 $128 1 1021575294 1021575295 -812580862 2 #
face $269 -1 $-1 $270 $271 $47 $-1 $272 reversed single #
loop $-1 -1 $-1 $-1 $273 $128 #
plane-surface $-1 -1 $-1 0 -12.699999999999999 0 0 1 0 0 0 1 forward_v I I I I #
coedge $-1 -1 $-1 $274 $275 $276 $277 forward $129 $-1 #
coedge $-1 -1 $-1 $278 $131 $279 $280 forward $87 $-1 #
coedge $-1 -1 $-1 $131 $278 $281 $282 forward $87 $-1 #
coedge $-1 -1 $-1 $283 $284 $131 $200 reversed $285 $-1 #
edge $-1 -1 $-1 $286 -12.699999999999999 $287 12.699999999999999 $199 $288 forward @7 unknown #
loop $-1 -1 $-1 $-1 $289 $132 #
plane-surface $-1 -1 $-1 134.9375 -4.5720000000000027 -77.787499999999994 0 1 0 0 0 1 forward_v I I I I #
coedge $-1 -1 $-1 $203 $203 $136 $205 reversed $133 $-1 #
coedge $-1 -1 $-1 $204 $204 $289 $290 reversed $135 $-1 #
edge $-1 -1 $-1 $291 0 $291 6.2831853071795862 $136 $292 forward @7 unknown #
loop $-1 -1 $-1 $-1 $293 $137 #
plane-surface $-1 -1 $-1 -134.9375 25.400000000000002 77.787499999999994 -2.1161481424619109e-029 1 -2.0800524079821503e-046 0 2.0800524079821503e-046 1 forward_v I I I I #
coedge $-1 -1 $-1 $208 $208 $141 $210 reversed $138 $-1 #
coedge $-1 -1 $-1 $209 $209 $293 $294 forward $140 $-1 #
edge $-1 -1 $-1 $295 0 $295 6.2831853071795862 $141 $296 forward @7 unknown #
loop $-1 -1 $-1 $-1 $297 $142 #
plane-surface $-1 -1 $-1 134.9375 -4.5720000000000027 77.787499999999994 0 1 0 0 0 1 forward_v I I I I #
coedge $-1 -1 $-1 $213 $213 $146 $215 reversed $143 $-1 #
coedge $-1 -1 $-1 $214 $214 $297 $298 reversed $145 $-1 #
edge $-1 -1 $-1 $299 0 $299 6.2831853071795862 $146 $300 forward @7 unknown #
loop $-1 -1 $-1 $-1 $301 $147 #
plane-surface $-1 -1 $-1 134.9375 25.400000000000002 -77.787499999999994 -2.1161481424619109e-029 1 -2.0800524079821503e-046 0 2.0800524079821503e-046 1 forward_v I I I I #
coedge $-1 -1 $-1 $218 $218 $151 $220 reversed $148 $-1 #
coedge $-1 -1 $-1 $219 $219 $301 $302 forward $150 $-1 #
edge $-1 -1 $-1 $303 0 $303 6.2831853071795862 $151 $304 forward @7 unknown #
loop $-1 -1 $-1 $-1 $305 $152 #
plane-surface $-1 -1 $-1 134.9375 25.400000000000002 77.787499999999994 -2.1161481424619109e-029 1 -2.0800524079821503e-046 0 2.0800524079821503e-046 1 forward_v I I I I #
coedge $-1 -1 $-1 $223 $223 $156 $225 reversed $153 $-1 #
coedge $-1 -1 $-1 $224 $224 $305 $306 forward $155 $-1 #
edge $-1 -1 $-1 $307 0 $307 6.2831853071795862 $156 $308 forward @7 unknown #
loop $-1 -1 $-1 $-1 $309 $157 #
plane-surface $-1 -1 $-1 -134.9375 -4.5720000000000027 -77.787499999999994 0 1 0 0 0 1 forward_v I I I I #
coedge $-1 -1 $-1 $228 $228 $161 $230 reversed $158 $-1 #
coedge $-1 -1 $-1 $229 $229 $309 $310 reversed $160 $-1 #
edge $-1 -1 $-1 $311 0 $311 6.2831853071795862 $161 $312 forward @7 unknown #
model_id-kcp-attrib $-1 -1 $-1 $-1 $163 1 1021575294 1021575295 -812580863 6 #
face $313 -1 $-1 $314 $315 $14 $-1 $316 reversed single #
loop $-1 -1 $-1 $-1 $317 $163 #
cone-surface $-1 -1 $-1 -134.9375 26.669999999999998 -77.787499999999994 0 -1 0 -4.3687999999999994 0 0 1 I I 0 1 4.3687999999999994 forward I I I I #
loop $-1 -1 $-1 $-1 $318 $108 #
coedge $-1 -1 $-1 $319 $319 $167 $239 reversed $164 $-1 #
coedge $-1 -1 $-1 $168 $166 $319 $320 reversed $109 $-1 #
edge $-1 -1 $-1 $321 0 $179 8.1280000000000001 $166 $322 forward @7 unknown #
edge $323 -1 $-1 $240 0 $321 3.1415926535897891 $236 $324 forward @7 unknown #
vertex $-1 -1 $-1 $320 $325 #
straight-curve $-1 -1 $-1 -141.68501000000001 8.1280000000000001 -77.787499999999994 0 -1 0 I I #
loop $-1 -1 $-1 $-1 $326 $42 #
coedge $-1 -1 $-1 $327 $328 $329 $330 reversed $170 $-1 #
coedge $-1 -1 $-1 $171 $171 $331 $332 reversed $112 $-1 #
coedge $-1 -1 $-1 $333 $334 $171 $246 forward $335 $-1 #
edge $336 -1 $-1 $337 0 $338 3.1415926535897891 $171 $339 forward @7 unknown #
coedge $-1 -1 $-1 $340 $341 $172 $248 forward $342 $-1 #
edge $343 -1 $-1 $254 0 $253 3.1415926535897891 $172 $344 forward @7 unknown #
coedge $-1 -1 $-1 $345 $173 $341 $346 reversed $251 $-1 #
coedge $-1 -1 $-1 $173 $345 $340 $347 forward $251 $-1 #
loop $-1 -1 $-1 $-1 $249 $348 #
attrib_edge_convexity-kcp-attrib $-1 -1 $349 $-1 $174 1 #
vertex $-1 -1 $-1 $248 $350 #
vertex $-1 -1 $-1 $248 $351 #
ellipse-curve $-1 -1 $-1 -134.9375 0 77.78749999999998 0 -1 0 6.7475100000000054 0 1.4210854715202004e-014 1 I I #
attrib_edge_convexity-kcp-attrib $-1 -1 $352 $-1 $176 1 #
ellipse-curve $-1 -1 $-1 -134.9375 0 -77.78749999999998 0 -1 0 -6.7475100000000054 0 -1.4210854715202004e-014 1 I I #
convexity-sys-attrib $-1 -1 $-1 $178 $116 #
point $-1 -1 $-1 -128.18998999999999 0 -77.787499999999994 #
point $-1 -1 $-1 -141.68501000000001 0 -77.787499999999994 #
coedge $-1 -1 $-1 $261 $261 $185 $262 forward $182 $-1 #
edge $353 -1 $-1 $354 -3.1415926535897931 $354 3.1415926535897931 $185 $355 forward @7 unknown #
vertex $-1 -1 $-1 $186 $356 #
ellipse-curve $-1 -1 $-1 -134.9375 -12.700000000000003 77.787499999999994 0 1 0 -6.7475099999999992 0 0 1 I I #
coedge $-1 -1 $-1 $265 $265 $190 $266 forward $187 $-1 #
edge $-1 -1 $-1 $357 -3.1415926535897869 $357 3.1415926535897993 $190 $358 forward @7 unknown #
vertex $-1 -1 $-1 $191 $359 #
ellipse-curve $-1 -1 $-1 -134.9375 25.399999999999999 -77.78749999999998 0 -1 0 -4.3687999999999931 0 -1.4210854715202004e-014 1 I I #
model_id-kcp-attrib $-1 -1 $-1 $-1 $193 1 1021575294 1021575295 -812580862 6 #
face $360 -1 $-1 $361 $362 $47 $-1 $363 reversed single #
loop $-1 -1 $-1 $-1 $364 $193 #
plane-surface $-1 -1 $-1 -150.8125 0 0 1 0 0 0 0 -1 forward_v I I I I #
coedge $-1 -1 $-1 $365 $281 $366 $367 forward $194 $-1 #
coedge $-1 -1 $-1 $368 $196 $365 $369 forward $129 $-1 #
coedge $-1 -1 $-1 $196 $368 $370 $371 forward $129 $-1 #
coedge $-1 -1 $-1 $284 $283 $196 $277 reversed $285 $-1 #
edge $-1 -1 $-1 $372 -12.699999999999999 $373 12.699999999999999 $276 $374 forward @7 unknown #
coedge $-1 -1 $-1 $198 $197 $375 $376 forward $87 $-1 #
coedge $-1 -1 $-1 $377 $378 $197 $280 reversed $362 $-1 #
edge $-1 -1 $-1 $287 -150.8125 $379 150.8125 $279 $380 forward @7 unknown #
coedge $-1 -1 $-1 $273 $381 $198 $282 reversed $194 $-1 #
edge $-1 -1 $-1 $382 -150.8125 $286 150.8125 $281 $383 forward @7 unknown #
coedge $-1 -1 $-1 $276 $199 $381 $384 forward $285 $-1 #
coedge $-1 -1 $-1 $199 $276 $377 $385 reversed $285 $-1 #
loop $-1 -1 $-1 $-1 $283 $361 #
vertex $-1 -1 $-1 $200 $386 #
vertex $-1 -1 $-1 $200 $387 #
straight-curve $-1 -1 $-1 150.8125 0 87.3125 0 1 0 I I #
coedge $-1 -1 $-1 $289 $289 $204 $290 forward $201 $-1 #
edge $388 -1 $-1 $389 -3.1415926535897931 $389 3.1415926535897931 $204 $390 forward @7 unknown #
vertex $-1 -1 $-1 $205 $391 #
ellipse-curve $-1 -1 $-1 134.9375 -12.700000000000003 -77.787499999999994 0 1 0 -6.7475099999999992 0 0 1 I I #
coedge $-1 -1 $-1 $293 $293 $209 $294 reversed $206 $-1 #
edge $-1 -1 $-1 $392 0 $392 6.2831853071795862 $209 $393 forward @7 unknown #
vertex $-1 -1 $-1 $210 $394 #
ellipse-curve $-1 -1 $-1 -134.9375 8.1280000000000001 77.787499999999994 0 1 0 -4.3687999999999931 0 0 1 I I #
coedge $-1 -1 $-1 $297 $297 $214 $298 forward $211 $-1 #
edge $395 -1 $-1 $396 -3.1415926535897931 $396 3.1415926535897931 $214 $397 forward @7 unknown #
vertex $-1 -1 $-1 $215 $398 #
ellipse-curve $-1 -1 $-1 134.9375 -12.700000000000003 77.787499999999994 0 1 0 -6.7475099999999992 0 0 1 I I #
coedge $-1 -1 $-1 $301 $301 $219 $302 reversed $216 $-1 #
edge $-1 -1 $-1 $399 0 $399 6.2831853071795862 $219 $400 forward @7 unknown #
vertex $-1 -1 $-1 $220 $401 #
ellipse-curve $-1 -1 $-1 134.9375 8.1280000000000001 -77.787499999999994 0 1 0 -4.3687999999999931 0 0 1 I I #
coedge $-1 -1 $-1 $305 $305 $224 $306 reversed $221 $-1 #
edge $-1 -1 $-1 $402 0 $402 6.2831853071795862 $224 $403 forward @7 unknown #
vertex $-1 -1 $-1 $225 $404 #
ellipse-curve $-1 -1 $-1 134.9375 8.1280000000000001 77.787499999999994 0 1 0 -4.3687999999999931 0 0 1 I I #
coedge $-1 -1 $-1 $309 $309 $229 $310 forward $226 $-1 #
edge $405 -1 $-1 $406 -3.1415926535897931 $406 3.1415926535897931 $229 $407 forward @7 unknown #
vertex $-1 -1 $-1 $230 $408 #
ellipse-curve $-1 -1 $-1 -134.9375 -12.700000000000003 -77.787499999999994 0 1 0 -6.7475099999999992 0 0 1 I I #
model_id-kcp-attrib $-1 -1 $-1 $-1 $232 1 1021575294 1021575295 -812580863 7 #
face $409 -1 $-1 $410 $411 $14 $-1 $412 forward single #
loop $-1 -1 $-1 $-1 $413 $232 #
cone-surface $-1 -1 $-1 -134.9375 26.669999999999998 -77.787499999999994 0 -1 0 -4.3687999999999994 0 0 1 I I 0 1 4.3687999999999994 forward I I I I #
coedge $-1 -1 $-1 $414 $415 $416 $417 forward $233 $-1 #
coedge $-1 -1 $-1 $418 $418 $414 $419 reversed $235 $-1 #
coedge $-1 -1 $-1 $236 $236 $237 $320 forward $164 $-1 #
edge $420 -1 $-1 $240 0 $321 3.1415926535897891 $319 $421 forward @7 unknown #
vertex $-1 -1 $-1 $320 $422 #
straight-curve $-1 -1 $-1 -128.18998999999999 8.1280000000000001 -77.787499999999994 0 -1 0 I I #
attrib_edge_convexity-kcp-attrib $-1 -1 $423 $-1 $239 2 #
ellipse-curve $-1 -1 $-1 -134.9375 8.1280000000000001 -77.787500000000009 0 1 0 -6.7475100000000054 0 1.4210854715202004e-014 1 I I #
point $-1 -1 $-1 -141.68501000000001 8.1280000000000001 -77.787499999999994 #
coedge $-1 -1 $-1 $424 $424 $425 $426 reversed $242 $-1 #
coedge $-1 -1 $-1 $427 $243 $428 $429 reversed $170 $-1 #
coedge $-1 -1 $-1 $243 $427 $430 $431 reversed $170 $-1 #
coedge $-1 -1 $-1 $432 $433 $243 $330 forward $434 $-1 #
edge $435 -1 $-1 $436 0 $437 174.625 $243 $438 forward @7 unknown #
coedge $-1 -1 $-1 $439 $440 $244 $332 forward $441 $-1 #
edge $442 -1 $-1 $338 0 $337 3.1415926535897891 $244 $443 forward @7 unknown #
coedge $-1 -1 $-1 $444 $245 $440 $445 reversed $335 $-1 #
coedge $-1 -1 $-1 $245 $444 $439 $446 forward $335 $-1 #
loop $-1 -1 $-1 $-1 $333 $447 #
attrib_edge_convexity-kcp-attrib $-1 -1 $448 $-1 $246 1 #
vertex $-1 -1 $-1 $332 $449 #
vertex $-1 -1 $-1 $332 $450 #
ellipse-curve $-1 -1 $-1 134.9375 0 -77.787500000000009 0 -1 0 6.7475100000000054 0 1.4210854715202004e-014 1 I I #
coedge $-1 -1 $-1 $451 $247 $250 $347 reversed $342 $-1 #
coedge $-1 -1 $-1 $247 $451 $249 $346 forward $342 $-1 #
loop $-1 -1 $-1 $-1 $340 $452 #
attrib_edge_convexity-kcp-attrib $-1 -1 $453 $-1 $248 1 #
ellipse-curve $-1 -1 $-1 -134.9375 0 77.787500000000009 0 -1 0 -6.7475100000000054 0 -1.4210854715202004e-014 1 I I #
coedge $-1 -1 $-1 $250 $249 $454 $455 forward $251 $-1 #
edge $-1 -1 $-1 $456 0 $254 8.1280000000000001 $341 $457 forward @7 unknown #
edge $-1 -1 $-1 $458 0 $253 8.1280000000000001 $340 $459 forward @7 unknown #
face $460 -1 $-1 $452 $251 $14 $-1 $461 reversed single #
convexity-sys-attrib $-1 -1 $-1 $252 $174 #
point $-1 -1 $-1 -128.18998999999999 0 77.787499999999994 #
point $-1 -1 $-1 -141.68501000000001 0 77.787499999999994 #
convexity-sys-attrib $-1 -1 $-1 $256 $176 #
convexity-sys-attrib $-1 -1 $-1 $-1 $262 #
vertex $-1 -1 $-1 $262 $462 #
ellipse-curve $-1 -1 $-1 -134.9375 -4.5720000000000027 77.787499999999994 0 1 0 -6.7475099999999992 0 0 1 I I #
point $-1 -1 $-1 -141.68501000000001 -12.699999999999999 77.787499999999994 #
vertex $-1 -1 $-1 $266 $463 #
ellipse-curve $-1 -1 $-1 -134.9375 8.1280000000000001 -77.787500000000009 0 -1 0 -4.3687999999999931 0 1.4210854715202004e-014 1 I I #
point $-1 -1 $-1 -139.30629999999999 25.399999999999999 -77.787499999999994 #
model_id-kcp-attrib $-1 -1 $-1 $-1 $270 1 1021575294 1021575295 -812580862 3 #
face $464 -1 $-1 $-1 $285 $47 $-1 $465 reversed single #
loop $-1 -1 $-1 $-1 $377 $270 #
plane-surface $-1 -1 $-1 0 12.699999999999999 0 0 -1 0 0 0 -1 forward_v I I I I #
coedge $-1 -1 $-1 $466 $375 $378 $467 forward $271 $-1 #
coedge $-1 -1 $-1 $381 $273 $274 $369 reversed $194 $-1 #
coedge $-1 -1 $-1 $375 $466 $273 $367 reversed $271 $-1 #
edge $-1 -1 $-1 $382 -87.3125 $468 87.3125 $366 $469 forward @7 unknown #
coedge $-1 -1 $-1 $275 $274 $466 $470 forward $129 $-1 #
edge $-1 -1 $-1 $373 -150.8125 $468 150.8125 $365 $471 forward @7 unknown #
coedge $-1 -1 $-1 $378 $377 $275 $371 reversed $362 $-1 #
edge $-1 -1 $-1 $472 -150.8125 $372 150.8125 $370 $473 forward @7 unknown #
vertex $-1 -1 $-1 $277 $474 #
vertex $-1 -1 $-1 $384 $475 #
straight-curve $-1 -1 $-1 150.8125 0 -87.3125 0 -1 0 I I #
coedge $-1 -1 $-1 $364 $366 $278 $376 reversed $271 $-1 #
edge $-1 -1 $-1 $379 -12.699999999999999 $382 12.699999999999999 $375 $476 forward @7 unknown #
coedge $-1 -1 $-1 $370 $279 $284 $385 forward $362 $-1 #
coedge $-1 -1 $-1 $279 $370 $364 $467 reversed $362 $-1 #
vertex $-1 -1 $-1 $280 $477 #
straight-curve $-1 -1 $-1 0 12.699999999999999 87.3125 -1 0 0 I I #
coedge $-1 -1 $-1 $281 $365 $283 $384 reversed $194 $-1 #
vertex $-1 -1 $-1 $376 $478 #
straight-curve $-1 -1 $-1 0 -12.699999999999999 87.3125 1 0 0 I I #
edge $-1 -1 $-1 $286 -87.3125 $373 87.3125 $283 $479 forward @7 unknown #
edge $-1 -1 $-1 $287 -87.3125 $372 87.3125 $284 $480 forward @7 unknown #
point $-1 -1 $-1 150.8125 -12.699999999999999 87.3125 #
point $-1 -1 $-1 150.8125 12.699999999999999 87.3125 #
convexity-sys-attrib $-1 -1 $-1 $-1 $290 #
vertex $-1 -1 $-1 $290 $481 #
ellipse-curve $-1 -1 $-1 134.9375 -4.5720000000000027 -77.787499999999994 0 1 0 -6.7475099999999992 0 0 1 I I #
point $-1 -1 $-1 128.18998999999999 -12.699999999999999 -77.787499999999994 #
vertex $-1 -1 $-1 $294 $482 #
ellipse-curve $-1 -1 $-1 -134.9375 25.399999999999999 77.787499999999994 0 -1 0 4.3687999999999931 0 0 1 I I #
point $-1 -1 $-1 -139.30629999999999 8.1280000000000001 77.787499999999994 #
convexity-sys-attrib $-1 -1 $-1 $-1 $298 #
vertex $-1 -1 $-1 $298 $483 #
ellipse-curve $-1 -1 $-1 134.9375 -4.5720000000000027 77.787499999999994 0 1 0 -6.7475099999999992 0 0 1 I I #
point $-1 -1 $-1 128.18998999999999 -12.699999999999999 77.787499999999994 #
vertex $-1 -1 $-1 $302 $484 #
ellipse-curve $-1 -1 $-1 134.9375 25.399999999999999 -77.787499999999994 0 -1 0 4.3687999999999931 0 0 1 I I #
point $-1 -1 $-1 130.56870000000001 8.1280000000000001 -77.787499999999994 #
vertex $-1 -1 $-1 $306 $485 #
ellipse-curve $-1 -1 $-1 134.9375 25.399999999999999 77.787499999999994 0 -1 0 4.3687999999999931 0 0 1 I I #
point $-1 -1 $-1 130.56870000000001 8.1280000000000001 77.787499999999994 #
convexity-sys-attrib $-1 -1 $-1 $-1 $310 #
vertex $-1 -1 $-1 $310 $486 #
ellipse-curve $-1 -1 $-1 -134.9375 -4.5720000000000027 -77.787499999999994 0 1 0 -6.7475099999999992 0 0 1 I I #
point $-1 -1 $-1 -141.68501000000001 -12.699999999999999 -77.787499999999994 #
model_id-kcp-attrib $-1 -1 $-1 $-1 $314 1 1021575294 1021575295 -812580863 8 #
face $487 -1 $-1 $488 $489 $14 $-1 $490 reversed single #
loop $-1 -1 $-1 $491 $492 $314 #
plane-surface $-1 -1 $-1 0 25.399999999999999 0 0 1 0 -1 0 0 forward_v I I I I #
coedge $-1 -1 $-1 $493 $494 $495 $496 forward $315 $-1 #
coedge $-1 -1 $-1 $495 $317 $318 $419 forward $233 $-1 #
coedge $-1 -1 $-1 $317 $495 $497 $498 reversed $233 $-1 #
coedge $-1 -1 $-1 $494 $493 $317 $417 reversed $315 $-1 #
edge $-1 -1 $-1 $499 0 $500 17.271999999999998 $317 $501 forward @7 unknown #
coedge $-1 -1 $-1 $318 $318 $493 $502 forward $235 $-1 #
edge $503 -1 $-1 $500 0 $504 3.1415926535897993 $414 $505 forward @7 unknown #
attrib_edge_convexity-kcp-attrib $-1 -1 $506 $-1 $320 2 #
ellipse-curve $-1 -1 $-1 -134.9375 8.1280000000000001 -77.78749999999998 0 -1 0 -6.7475100000000054 0 -1.4210854715202004e-014 1 I I #
point $-1 -1 $-1 -128.18998999999999 8.1280000000000001 -77.787499999999994 #
convexity-sys-attrib $-1 -1 $-1 $323 $239 #
coedge $-1 -1 $-1 $326 $326 $507 $508 reversed $242 $-1 #
coedge $-1 -1 $-1 $509 $510 $326 $426 forward $511 $-1 #
edge $512 -1 $-1 $513 0 $514 3.1415926535897891 $326 $515 forward @7 unknown #
coedge $-1 -1 $-1 $328 $327 $516 $517 reversed $170 $-1 #
coedge $-1 -1 $-1 $518 $519 $327 $429 forward $520 $-1 #
edge $521 -1 $-1 $522 0 $436 301.625 $327 $523 forward @7 unknown #
coedge $-1 -1 $-1 $524 $525 $328 $431 forward $526 $-1 #
edge $527 -1 $-1 $437 0 $528 301.625 $328 $529 forward @7 unknown #
coedge $-1 -1 $-1 $530 $329 $525 $531 forward $434 $-1 #
coedge $-1 -1 $-1 $329 $530 $518 $532 reversed $434 $-1 #
loop $-1 -1 $-1 $-1 $432 $533 #
attrib_edge_convexity-kcp-attrib $-1 -1 $534 $-1 $330 1 #
vertex $-1 -1 $-1 $429 $535 #
vertex $-1 -1 $-1 $431 $536 #
straight-curve $-1 -1 $-1 -150.8125 0 -87.3125 0 0 1 I I #
coedge $-1 -1 $-1 $537 $331 $334 $446 reversed $441 $-1 #
coedge $-1 -1 $-1 $331 $537 $333 $445 forward $441 $-1 #
loop $-1 -1 $-1 $-1 $439 $538 #
attrib_edge_convexity-kcp-attrib $-1 -1 $539 $-1 $332 1 #
ellipse-curve $-1 -1 $-1 134.9375 0 -77.78749999999998 0 -1 0 -6.7475100000000054 0 -1.4210854715202004e-014 1 I I #
coedge $-1 -1 $-1 $334 $333 $540 $541 forward $335 $-1 #
edge $-1 -1 $-1 $542 0 $338 8.1280000000000001 $440 $543 forward @7 unknown #
edge $-1 -1 $-1 $544 0 $337 8.1280000000000001 $439 $545 forward @7 unknown #
face $546 -1 $-1 $538 $335 $14 $-1 $547 reversed single #
convexity-sys-attrib $-1 -1 $-1 $336 $246 #
point $-1 -1 $-1 141.68501000000001 0 -77.787499999999994 #
point $-1 -1 $-1 128.18998999999999 0 -77.787499999999994 #
coedge $-1 -1 $-1 $341 $340 $548 $549 reversed $342 $-1 #
face $550 -1 $-1 $551 $342 $14 $-1 $552 reversed single #
convexity-sys-attrib $-1 -1 $-1 $343 $248 #
coedge $-1 -1 $-1 $548 $548 $345 $455 reversed $553 $-1 #
edge $554 -1 $-1 $456 0 $458 3.1415926535897891 $454 $555 forward @7 unknown #
vertex $-1 -1 $-1 $549 $556 #
straight-curve $-1 -1 $-1 -141.68501000000001 8.1280000000000001 77.787499999999994 0 -1 0 I I #
vertex $-1 -1 $-1 $549 $557 #
straight-curve $-1 -1 $-1 -128.18998999999999 8.1280000000000001 77.787499999999994 0 -1 0 I I #
model_id-kcp-attrib $-1 -1 $-1 $-1 $348 1 1021575294 1021575295 -812580863 12 #
cone-surface $-1 -1 $-1 -134.9375 26.669999999999998 77.787499999999994 0 -1 0 -6.7475099999999992 0 0 1 I I 0 1 6.7475099999999992 forward I I I I #
point $-1 -1 $-1 -128.18998999999999 -4.5719999999999992 77.787499999999994 #
point $-1 -1 $-1 -130.56870000000001 8.1280000000000001 -77.787499999999994 #
model_id-kcp-attrib $-1 -1 $-1 $-1 $361 1 1021575294 1021575295 -812580862 4 #
plane-surface $-1 -1 $-1 150.8125 0 0 -1 0 0 0 0 1 forward_v I I I I #
coedge $-1 -1 $-1 $366 $364 $368 $470 reversed $271 $-1 #
edge $-1 -1 $-1 $379 -87.3125 $472 87.3125 $378 $558 forward @7 unknown #
vertex $-1 -1 $-1 $470 $559 #
straight-curve $-1 -1 $-1 -150.8125 -12.699999999999999 0 0 0 -1 I I #
edge $-1 -1 $-1 $468 -12.699999999999999 $472 12.699999999999999 $466 $560 forward @7 unknown #
straight-curve $-1 -1 $-1 0 -12.699999999999999 -87.3125 -1 0 0 I I #
vertex $-1 -1 $-1 $371 $561 #
straight-curve $-1 -1 $-1 0 12.699999999999999 -87.3125 1 0 0 I I #
point $-1 -1 $-1 150.8125 12.699999999999999 -87.3125 #
point $-1 -1 $-1 150.8125 -12.699999999999999 -87.3125 #
straight-curve $-1 -1 $-1 -150.8125 0 87.3125 0 -1 0 I I #
point $-1 -1 $-1 -150.8125 12.699999999999999 87.3125 #
point $-1 -1 $-1 -150.8125 -12.699999999999999 87.3125 #
straight-curve $-1 -1 $-1 150.8125 -12.699999999999999 0 0 0 -1 I I #
straight-curve $-1 -1 $-1 150.8125 12.699999999999999 0 0 0 -1 I I #
point $-1 -1 $-1 141.68501000000001 -4.5719999999999992 -77.787499999999994 #
point $-1 -1 $-1 -130.56870000000001 25.399999999999999 77.787499999999994 #
point $-1 -1 $-1 141.68501000000001 -4.5719999999999992 77.787499999999994 #
point $-1 -1 $-1 139.30629999999999 25.399999999999999 -77.787499999999994 #
point $-1 -1 $-1 139.30629999999999 25.399999999999999 77.787499999999994 #
point $-1 -1 $-1 -128.18998999999999 -4.5719999999999992 -77.787499999999994 #
model_id-kcp-attrib $-1 -1 $-1 $-1 $410 1 1021575294 1021575295 -812580863 9 #
face $562 -1 $-1 $563 $564 $14 $-1 $565 reversed single #
loop $-1 -1 $-1 $-1 $566 $410 #
cone-surface $-1 -1 $-1 -134.9375 26.669999999999998 77.787499999999994 0 -1 0 -4.3687999999999994 0 0 1 I I 0 1 4.3687999999999994 forward I I I I #
loop $-1 -1 $-1 $567 $568 $314 #
coedge $-1 -1 $-1 $497 $497 $494 $569 forward $411 $-1 #
coedge $-1 -1 $-1 $416 $413 $418 $502 reversed $315 $-1 #
coedge $-1 -1 $-1 $413 $416 $492 $569 reversed $315 $-1 #
coedge $-1 -1 $-1 $415 $414 $413 $496 reversed $233 $-1 #
edge $-1 -1 $-1 $570 0 $504 17.271999999999998 $495 $571 forward @7 unknown #
coedge $-1 -1 $-1 $492 $492 $415 $498 forward $411 $-1 #
edge $-1 -1 $-1 $499 0 $570 3.1415926535897931 $497 $572 forward @7 unknown #
vertex $-1 -1 $-1 $498 $573 #
vertex $-1 -1 $-1 $419 $574 #
straight-curve $-1 -1 $-1 -139.30629999999999 25.399999999999999 -77.787499999999994 0 -1 0 I I #
edge $575 -1 $-1 $500 0 $504 3.1415926535897993 $418 $576 forward @7 unknown #
attrib_edge_convexity-kcp-attrib $-1 -1 $577 $-1 $419 1 #
vertex $-1 -1 $-1 $496 $578 #
ellipse-curve $-1 -1 $-1 -134.9375 8.1280000000000001 -77.787500000000009 0 -1 0 -4.3687999999999931 0 1.4210854715202004e-014 1 I I #
convexity-sys-attrib $-1 -1 $-1 $420 $320 #
coedge $-1 -1 $-1 $579 $580 $424 $508 forward $581 $-1 #
edge $582 -1 $-1 $514 0 $513 3.1415926535897891 $424 $583 forward @7 unknown #
coedge $-1 -1 $-1 $584 $425 $580 $585 reversed $511 $-1 #
coedge $-1 -1 $-1 $425 $584 $579 $586 forward $511 $-1 #
loop $-1 -1 $-1 $-1 $509 $587 #
attrib_edge_convexity-kcp-attrib $-1 -1 $588 $-1 $426 1 #
vertex $-1 -1 $-1 $508 $589 #
vertex $-1 -1 $-1 $508 $590 #
ellipse-curve $-1 -1 $-1 134.9375 0 77.78749999999998 0 -1 0 6.7475100000000054 0 1.4210854715202004e-014 1 I I #
coedge $-1 -1 $-1 $591 $592 $427 $517 forward $593 $-1 #
edge $594 -1 $-1 $528 0 $522 174.625 $427 $595 forward @7 unknown #
coedge $-1 -1 $-1 $596 $428 $433 $532 forward $520 $-1 #
coedge $-1 -1 $-1 $428 $596 $591 $597 reversed $520 $-1 #
loop $-1 -1 $-1 $-1 $518 $598 #
attrib_edge_convexity-kcp-attrib $-1 -1 $599 $-1 $429 1 #
vertex $-1 -1 $-1 $517 $600 #
straight-curve $-1 -1 $-1 150.8125 0 -87.3125 -1 0 0 I I #
coedge $-1 -1 $-1 $601 $430 $592 $602 forward $526 $-1 #
coedge $-1 -1 $-1 $430 $601 $432 $531 reversed $526 $-1 #
loop $-1 -1 $-1 $-1 $524 $603 #
attrib_edge_convexity-kcp-attrib $-1 -1 $604 $-1 $431 1 #
vertex $-1 -1 $-1 $431 $605 #
straight-curve $-1 -1 $-1 -150.8125 0 87.3125 1 0 0 I I #
coedge $-1 -1 $-1 $433 $432 $606 $607 reversed $434 $-1 #
edge $-1 -1 $-1 $437 0 $608 25.399999999999999 $525 $609 forward @7 unknown #
edge $610 -1 $-1 $436 0 $611 25.399999999999999 $518 $612 forward @7 unknown #
face $613 -1 $-1 $603 $434 $14 $-1 $614 forward single #
convexity-sys-attrib $-1 -1 $-1 $435 $330 #
point $-1 -1 $-1 -150.8125 0 -87.3125 #
point $-1 -1 $-1 -150.8125 0 87.3125 #
coedge $-1 -1 $-1 $440 $439 $615 $616 reversed $441 $-1 #
face $617 -1 $-1 $618 $441 $14 $-1 $619 reversed single #
convexity-sys-attrib $-1 -1 $-1 $442 $332 #
coedge $-1 -1 $-1 $615 $615 $444 $541 reversed $620 $-1 #
edge $621 -1 $-1 $542 0 $544 3.1415926535897891 $540 $622 forward @7 unknown #
vertex $-1 -1 $-1 $616 $623 #
straight-curve $-1 -1 $-1 128.18998999999999 8.1280000000000001 -77.787499999999994 0 -1 0 I I #
vertex $-1 -1 $-1 $616 $624 #
straight-curve $-1 -1 $-1 141.68501000000001 8.1280000000000001 -77.787499999999994 0 -1 0 I I #
model_id-kcp-attrib $-1 -1 $-1 $-1 $447 1 1021575294 1021575295 -812580863 17 #
cone-surface $-1 -1 $-1 134.9375 26.669999999999998 -77.787499999999994 0 -1 0 -6.7475099999999992 0 0 1 I I 0 1 6.7475099999999992 forward I I I I #
coedge $-1 -1 $-1 $454 $454 $451 $549 forward $553 $-1 #
edge $625 -1 $-1 $456 0 $458 3.1415926535897891 $548 $626 forward @7 unknown #
model_id-kcp-attrib $-1 -1 $-1 $-1 $452 1 1021575294 1021575295 -812580863 13 #
face $627 -1 $-1 $628 $629 $14 $-1 $630 reversed single #
cone-surface $-1 -1 $-1 -134.9375 26.669999999999998 77.787499999999994 0 -1 0 -6.7475099999999992 0 0 1 I I 0 1 6.7475099999999992 forward I I I I #
loop $-1 -1 $-1 $631 $454 $563 #
attrib_edge_convexity-kcp-attrib $-1 -1 $632 $-1 $455 2 #
ellipse-curve $-1 -1 $-1 -134.9375 8.1280000000000001 77.78749999999998 0 1 0 -6.7475100000000054 0 1.4210854715202004e-014 1 I I #
point $-1 -1 $-1 -141.68501000000001 8.1280000000000001 77.787499999999994 #
point $-1 -1 $-1 -128.18998999999999 8.1280000000000001 77.787499999999994 #
straight-curve $-1 -1 $-1 -150.8125 12.699999999999999 0 0 0 -1 I I #
point $-1 -1 $-1 -150.8125 -12.699999999999999 -87.3125 #
straight-curve $-1 -1 $-1 -150.8125 0 -87.3125 0 1 0 I I #
point $-1 -1 $-1 -150.8125 12.699999999999999 -87.3125 #
model_id-kcp-attrib $-1 -1 $-1 $-1 $488 1 1021575294 1021575295 -812580863 10 #
face $633 -1 $-1 $348 $553 $14 $-1 $634 forward single #
loop $-1 -1 $-1 $-1 $635 $488 #
cone-surface $-1 -1 $-1 -134.9375 26.669999999999998 77.787499999999994 0 -1 0 -4.3687999999999994 0 0 1 I I 0 1 4.3687999999999994 forward I I I I #
coedge $-1 -1 $-1 $636 $637 $638 $639 forward $489 $-1 #
loop $-1 -1 $-1 $640 $641 $314 #
coedge $-1 -1 $-1 $642 $642 $637 $643 forward $491 $-1 #
edge $-1 -1 $-1 $570 0 $499 3.1415926535897931 $492 $644 forward @7 unknown #
vertex $-1 -1 $-1 $498 $645 #
straight-curve $-1 -1 $-1 -130.56870000000001 25.399999999999999 -77.787499999999994 0 -1 0 I I #
ellipse-curve $-1 -1 $-1 -134.9375 25.399999999999999 -77.787499999999994 0 -1 0 -4.3687999999999931 0 0 1 I I #
point $-1 -1 $-1 -139.30629999999999 25.399999999999999 -77.787499999999994 #
point $-1 -1 $-1 -139.30629999999999 8.1280000000000001 -77.787499999999994 #
attrib_edge_convexity-kcp-attrib $-1 -1 $646 $-1 $502 1 #
ellipse-curve $-1 -1 $-1 -134.9375 8.1280000000000001 -77.78749999999998 0 1 0 -4.3687999999999931 0 -1.4210854715202004e-014 1 I I #
convexity-sys-attrib $-1 -1 $-1 $503 $419 #
point $-1 -1 $-1 -130.56870000000001 8.1280000000000001 -77.787499999999994 #
coedge $-1 -1 $-1 $647 $507 $510 $586 reversed $581 $-1 #
coedge $-1 -1 $-1 $507 $647 $509 $585 forward $581 $-1 #
loop $-1 -1 $-1 $-1 $579 $648 #
attrib_edge_convexity-kcp-attrib $-1 -1 $649 $-1 $508 1 #
ellipse-curve $-1 -1 $-1 134.9375 0 77.787500000000009 0 -1 0 -6.7475100000000054 0 -1.4210854715202004e-014 1 I I #
coedge $-1 -1 $-1 $510 $509 $650 $651 forward $511 $-1 #
edge $-1 -1 $-1 $652 0 $514 8.1280000000000001 $580 $653 forward @7 unknown #
edge $-1 -1 $-1 $654 0 $513 8.1280000000000001 $579 $655 forward @7 unknown #
face $656 -1 $-1 $648 $511 $14 $-1 $657 reversed single #
convexity-sys-attrib $-1 -1 $-1 $512 $426 #
point $-1 -1 $-1 141.68501000000001 0 77.787499999999994 #
point $-1 -1 $-1 128.18998999999999 0 77.787499999999994 #
coedge $-1 -1 $-1 $658 $516 $519 $597 forward $593 $-1 #
coedge $-1 -1 $-1 $516 $658 $524 $602 reversed $593 $-1 #
loop $-1 -1 $-1 $-1 $591 $618 #
attrib_edge_convexity-kcp-attrib $-1 -1 $659 $-1 $517 1 #
straight-curve $-1 -1 $-1 150.8125 0 87.3125 0 0 -1 I I #
coedge $-1 -1 $-1 $519 $518 $660 $661 reversed $520 $-1 #
edge $662 -1 $-1 $522 0 $663 25.399999999999999 $591 $664 forward @7 unknown #
face $665 -1 $-1 $533 $520 $14 $-1 $666 forward single #
convexity-sys-attrib $-1 -1 $-1 $521 $429 #
point $-1 -1 $-1 150.8125 0 -87.3125 #
coedge $-1 -1 $-1 $525 $524 $667 $668 reversed $526 $-1 #
edge $669 -1 $-1 $528 0 $670 25.399999999999999 $524 $671 forward @7 unknown #
face $672 -1 $-1 $673 $526 $14 $-1 $674 forward single #
convexity-sys-attrib $-1 -1 $-1 $527 $431 #
point $-1 -1 $-1 150.8125 0 87.3125 #
coedge $-1 -1 $-1 $667 $660 $530 $607 forward $640 $-1 #
edge $-1 -1 $-1 $611 0 $608 174.625 $606 $675 forward @7 unknown #
vertex $-1 -1 $-1 $668 $676 #
straight-curve $-1 -1 $-1 -150.8125 0 87.3125 0 1 0 I I #
attrib_edge_convexity-kcp-attrib $-1 -1 $677 $-1 $532 1 #
vertex $-1 -1 $-1 $607 $678 #
straight-curve $-1 -1 $-1 -150.8125 0 -87.3125 0 1 0 I I #
model_id-kcp-attrib $-1 -1 $-1 $-1 $533 1 1021575294 1021575295 -812580863 21 #
plane-surface $-1 -1 $-1 -150.8125 0 -87.3125 -1 0 0 0 0 1 forward_v I I I I #
coedge $-1 -1 $-1 $540 $540 $537 $616 forward $620 $-1 #
edge $679 -1 $-1 $542 0 $544 3.1415926535897891 $615 $680 forward @7 unknown #
model_id-kcp-attrib $-1 -1 $-1 $-1 $538 1 1021575294 1021575295 -812580863 18 #
face $681 -1 $-1 $598 $593 $14 $-1 $682 forward single #
cone-surface $-1 -1 $-1 134.9375 26.669999999999998 -77.787499999999994 0 -1 0 -6.7475099999999992 0 0 1 I I 0 1 6.7475099999999992 forward I I I I #
loop $-1 -1 $-1 $683 $540 $684 #
attrib_edge_convexity-kcp-attrib $-1 -1 $685 $-1 $541 2 #
ellipse-curve $-1 -1 $-1 134.9375 8.1280000000000001 -77.787500000000009 0 1 0 -6.7475100000000054 0 1.4210854715202004e-014 1 I I #
point $-1 -1 $-1 128.18998999999999 8.1280000000000001 -77.787499999999994 #
point $-1 -1 $-1 141.68501000000001 8.1280000000000001 -77.787499999999994 #
attrib_edge_convexity-kcp-attrib $-1 -1 $686 $-1 $549 2 #
ellipse-curve $-1 -1 $-1 -134.9375 8.1280000000000001 77.787500000000009 0 -1 0 -6.7475100000000054 0 -1.4210854715202004e-014 1 I I #
model_id-kcp-attrib $-1 -1 $-1 $-1 $551 1 1021575294 1021575295 -812580863 14 #
face $687 -1 $-1 $684 $688 $14 $-1 $689 reversed single #
loop $-1 -1 $-1 $-1 $690 $551 #
cone-surface $-1 -1 $-1 134.9375 26.669999999999998 -77.787499999999994 0 -1 0 -4.3687999999999994 0 0 1 I I 0 1 4.3687999999999994 forward I I I I #
loop $-1 -1 $-1 $-1 $691 $563 #
convexity-sys-attrib $-1 -1 $-1 $554 $455 #
model_id-kcp-attrib $-1 -1 $-1 $-1 $563 1 1021575294 1021575295 -812580863 11 #
plane-surface $-1 -1 $-1 -134.9375 8.1280000000000001 77.787499999999994 0 -1 0 -1 0 0 forward_v I I I I #
coedge $-1 -1 $-1 $692 $693 $694 $695 forward $564 $-1 #
coedge $-1 -1 $-1 $694 $566 $696 $697 reversed $489 $-1 #
coedge $-1 -1 $-1 $566 $694 $568 $643 reversed $489 $-1 #
coedge $-1 -1 $-1 $693 $692 $566 $639 reversed $564 $-1 #
edge $-1 -1 $-1 $698 0 $699 17.271999999999998 $638 $700 forward @7 unknown #
loop $-1 -1 $-1 $701 $702 $314 #
coedge $-1 -1 $-1 $703 $703 $704 $705 forward $567 $-1 #
coedge $-1 -1 $-1 $568 $568 $693 $706 forward $491 $-1 #
edge $-1 -1 $-1 $698 0 $707 3.1415926535897931 $568 $708 forward @7 unknown #
ellipse-curve $-1 -1 $-1 -134.9375 25.399999999999999 -77.787499999999994 0 -1 0 4.3687999999999931 0 0 1 I I #
point $-1 -1 $-1 -130.56870000000001 25.399999999999999 -77.787499999999994 #
convexity-sys-attrib $-1 -1 $-1 $575 $502 #
coedge $-1 -1 $-1 $580 $579 $709 $710 reversed $581 $-1 #
face $711 -1 $-1 $-1 $581 $14 $-1 $712 reversed single #
convexity-sys-attrib $-1 -1 $-1 $582 $508 #
coedge $-1 -1 $-1 $709 $709 $584 $651 reversed $713 $-1 #
edge $714 -1 $-1 $652 0 $654 3.1415926535897891 $650 $715 forward @7 unknown #
vertex $-1 -1 $-1 $710 $716 #
straight-curve $-1 -1 $-1 128.18998999999999 8.1280000000000001 77.787499999999994 0 -1 0 I I #
vertex $-1 -1 $-1 $710 $717 #
straight-curve $-1 -1 $-1 141.68501000000001 8.1280000000000001 77.787499999999994 0 -1 0 I I #
model_id-kcp-attrib $-1 -1 $-1 $-1 $587 1 1021575294 1021575295 -812580863 26 #
cone-surface $-1 -1 $-1 134.9375 26.669999999999998 77.787499999999994 0 -1 0 -6.7475099999999992 0 0 1 I I 0 1 6.7475099999999992 forward I I I I #
coedge $-1 -1 $-1 $592 $591 $702 $718 reversed $593 $-1 #
convexity-sys-attrib $-1 -1 $-1 $594 $517 #
coedge $-1 -1 $-1 $606 $702 $596 $661 forward $640 $-1 #
edge $719 -1 $-1 $663 0 $611 301.625 $660 $720 forward @7 unknown #
attrib_edge_convexity-kcp-attrib $-1 -1 $721 $-1 $597 1 #
vertex $-1 -1 $-1 $661 $722 #
straight-curve $-1 -1 $-1 150.8125 0 -87.3125 0 1 0 I I #
model_id-kcp-attrib $-1 -1 $-1 $-1 $598 1 1021575294 1021575295 -812580863 20 #
plane-surface $-1 -1 $-1 150.8125 0 -87.3125 0 0 -1 -1 0 0 forward_v I I I I #
coedge $-1 -1 $-1 $702 $606 $601 $668 forward $640 $-1 #
edge $-1 -1 $-1 $608 0 $670 301.625 $667 $723 forward @7 unknown #
attrib_edge_convexity-kcp-attrib $-1 -1 $724 $-1 $602 1 #
vertex $-1 -1 $-1 $668 $725 #
straight-curve $-1 -1 $-1 150.8125 0 87.3125 0 1 0 I I #
model_id-kcp-attrib $-1 -1 $-1 $-1 $603 1 1021575294 1021575295 -812580863 22 #
face $726 -1 $-1 $727 $728 $14 $-1 $729 reversed single #
plane-surface $-1 -1 $-1 -150.8125 0 87.3125 0 0 1 1 0 0 forward_v I I I I #
straight-curve $-1 -1 $-1 -150.8125 25.399999999999999 -87.3125 0 0 1 I I #
point $-1 -1 $-1 -150.8125 25.399999999999999 87.3125 #
convexity-sys-attrib $-1 -1 $-1 $610 $532 #
point $-1 -1 $-1 -150.8125 25.399999999999999 -87.3125 #
attrib_edge_convexity-kcp-attrib $-1 -1 $730 $-1 $616 2 #
ellipse-curve $-1 -1 $-1 134.9375 8.1280000000000001 -77.78749999999998 0 -1 0 -6.7475100000000054 0 -1.4210854715202004e-014 1 I I #
model_id-kcp-attrib $-1 -1 $-1 $-1 $618 1 1021575294 1021575295 -812580863 19 #
plane-surface $-1 -1 $-1 150.8125 0 87.3125 1 0 0 0 0 -1 forward_v I I I I #
loop $-1 -1 $-1 $-1 $731 $684 #
face $732 -1 $-1 $447 $620 $14 $-1 $733 forward single #
convexity-sys-attrib $-1 -1 $-1 $621 $541 #
convexity-sys-attrib $-1 -1 $-1 $625 $549 #
model_id-kcp-attrib $-1 -1 $-1 $-1 $628 1 1021575294 1021575295 -812580863 15 #
loop $-1 -1 $-1 $-1 $734 $628 #
cone-surface $-1 -1 $-1 134.9375 26.669999999999998 -77.787499999999994 0 -1 0 -4.3687999999999994 0 0 1 I I 0 1 4.3687999999999994 forward I I I I #
coedge $-1 -1 $-1 $735 $704 $736 $737 forward $629 $-1 #
coedge $-1 -1 $-1 $696 $696 $692 $738 reversed $631 $-1 #
coedge $-1 -1 $-1 $638 $635 $691 $738 forward $564 $-1 #
coedge $-1 -1 $-1 $635 $638 $642 $706 reversed $564 $-1 #
coedge $-1 -1 $-1 $637 $636 $635 $695 reversed $489 $-1 #
edge $-1 -1 $-1 $707 0 $739 17.271999999999998 $635 $740 forward @7 unknown #
coedge $-1 -1 $-1 $691 $691 $636 $697 forward $631 $-1 #
edge $741 -1 $-1 $739 0 $699 3.1415926535897993 $696 $742 forward @7 unknown #
vertex $-1 -1 $-1 $706 $743 #
vertex $-1 -1 $-1 $639 $744 #
straight-curve $-1 -1 $-1 -130.56870000000001 25.399999999999999 77.787499999999994 0 -1 0 I I #
loop $-1 -1 $-1 $-1 $745 $314 #
coedge $-1 -1 $-1 $660 $667 $658 $718 forward $640 $-1 #
coedge $-1 -1 $-1 $641 $641 $746 $747 forward $567 $-1 #
coedge $-1 -1 $-1 $690 $748 $641 $705 reversed $629 $-1 #
edge $-1 -1 $-1 $749 0 $750 3.1415926535897931 $641 $751 forward @7 unknown #
edge $-1 -1 $-1 $707 0 $698 3.1415926535897931 $642 $752 forward @7 unknown #
vertex $-1 -1 $-1 $706 $753 #
ellipse-curve $-1 -1 $-1 -134.9375 25.399999999999999 77.787499999999994 0 -1 0 4.3687999999999931 0 0 1 I I #
coedge $-1 -1 $-1 $650 $650 $647 $710 forward $713 $-1 #
edge $754 -1 $-1 $652 0 $654 3.1415926535897891 $709 $755 forward @7 unknown #
model_id-kcp-attrib $-1 -1 $-1 $-1 $648 1 1021575294 1021575295 -812580863 27 #
cone-surface $-1 -1 $-1 134.9375 26.669999999999998 77.787499999999994 0 -1 0 -6.7475099999999992 0 0 1 I I 0 1 6.7475099999999992 forward I I I I #
loop $-1 -1 $-1 $756 $650 $757 #
attrib_edge_convexity-kcp-attrib $-1 -1 $758 $-1 $651 2 #
ellipse-curve $-1 -1 $-1 134.9375 8.1280000000000001 77.78749999999998 0 1 0 -6.7475100000000054 0 1.4210854715202004e-014 1 I I #
point $-1 -1 $-1 128.18998999999999 8.1280000000000001 77.787499999999994 #
point $-1 -1 $-1 141.68501000000001 8.1280000000000001 77.787499999999994 #
edge $759 -1 $-1 $670 0 $663 174.625 $702 $760 forward @7 unknown #
attrib_edge_convexity-kcp-attrib $-1 -1 $761 $-1 $661 1 #
straight-curve $-1 -1 $-1 150.8125 25.399999999999999 -87.3125 -1 0 0 I I #
convexity-sys-attrib $-1 -1 $-1 $662 $597 #
point $-1 -1 $-1 150.8125 25.399999999999999 -87.3125 #
straight-curve $-1 -1 $-1 -150.8125 25.399999999999999 87.3125 1 0 0 I I #
convexity-sys-attrib $-1 -1 $-1 $669 $602 #
point $-1 -1 $-1 150.8125 25.399999999999999 87.3125 #
model_id-kcp-attrib $-1 -1 $-1 $-1 $673 1 1021575294 1021575295 -812580863 23 #
face $762 -1 $-1 $757 $763 $14 $-1 $764 reversed single #
loop $-1 -1 $-1 $-1 $765 $673 #
cone-surface $-1 -1 $-1 134.9375 26.669999999999998 77.787499999999994 0 -1 0 -4.3687999999999994 0 0 1 I I 0 1 4.3687999999999994 forward I I I I #
convexity-sys-attrib $-1 -1 $-1 $679 $616 #
coedge $-1 -1 $-1 $766 $766 $767 $768 reversed $683 $-1 #
model_id-kcp-attrib $-1 -1 $-1 $-1 $684 1 1021575294 1021575295 -812580863 16 #
plane-surface $-1 -1 $-1 134.9375 8.1280000000000001 -77.787499999999994 0 -1 0 -1 0 0 forward_v I I I I #
coedge $-1 -1 $-1 $767 $746 $748 $769 forward $688 $-1 #
coedge $-1 -1 $-1 $748 $690 $766 $770 reversed $629 $-1 #
coedge $-1 -1 $-1 $746 $767 $690 $737 reversed $688 $-1 #
edge $-1 -1 $-1 $749 0 $771 17.271999999999998 $736 $772 forward @7 unknown #
edge $773 -1 $-1 $739 0 $699 3.1415926535897993 $692 $774 forward @7 unknown #
vertex $-1 -1 $-1 $738 $775 #
straight-curve $-1 -1 $-1 -139.30629999999999 25.399999999999999 77.787499999999994 0 -1 0 I I #
attrib_edge_convexity-kcp-attrib $-1 -1 $776 $-1 $697 1 #
ellipse-curve $-1 -1 $-1 -134.9375 8.1280000000000001 77.787500000000009 0 1 0 -4.3687999999999931 0 -1.4210854715202004e-014 1 I I #
point $-1 -1 $-1 -130.56870000000001 25.399999999999999 77.787499999999994 #
point $-1 -1 $-1 -130.56870000000001 8.1280000000000001 77.787499999999994 #
coedge $-1 -1 $-1 $777 $777 $778 $779 forward $701 $-1 #
coedge $-1 -1 $-1 $734 $736 $703 $747 reversed $688 $-1 #
edge $-1 -1 $-1 $750 0 $749 3.1415926535897931 $703 $780 forward @7 unknown #
coedge $-1 -1 $-1 $704 $735 $734 $769 reversed $629 $-1 #
vertex $-1 -1 $-1 $747 $781 #
vertex $-1 -1 $-1 $747 $782 #
ellipse-curve $-1 -1 $-1 134.9375 25.399999999999999 -77.787499999999994 0 -1 0 4.3687999999999931 0 0 1 I I #
ellipse-curve $-1 -1 $-1 -134.9375 25.399999999999999 77.787499999999994 0 -1 0 -4.3687999999999931 0 0 1 I I #
point $-1 -1 $-1 -139.30629999999999 25.399999999999999 77.787499999999994 #
attrib_edge_convexity-kcp-attrib $-1 -1 $783 $-1 $710 2 #
ellipse-curve $-1 -1 $-1 134.9375 8.1280000000000001 77.787500000000009 0 -1 0 -6.7475100000000054 0 -1.4210854715202004e-014 1 I I #
loop $-1 -1 $-1 $-1 $784 $757 #
face $785 -1 $-1 $587 $713 $14 $-1 $786 forward single #
convexity-sys-attrib $-1 -1 $-1 $714 $651 #
attrib_edge_convexity-kcp-attrib $-1 -1 $787 $-1 $718 1 #
straight-curve $-1 -1 $-1 150.8125 25.399999999999999 87.3125 0 0 -1 I I #
convexity-sys-attrib $-1 -1 $-1 $719 $661 #
model_id-kcp-attrib $-1 -1 $-1 $-1 $727 1 1021575294 1021575295 -812580863 24 #
loop $-1 -1 $-1 $-1 $788 $727 #
cone-surface $-1 -1 $-1 134.9375 26.669999999999998 77.787499999999994 0 -1 0 -4.3687999999999994 0 0 1 I I 0 1 4.3687999999999994 forward I I I I #
coedge $-1 -1 $-1 $789 $778 $790 $791 forward $728 $-1 #
coedge $-1 -1 $-1 $731 $731 $735 $770 forward $683 $-1 #
coedge $-1 -1 $-1 $736 $734 $731 $768 forward $688 $-1 #
edge $792 -1 $-1 $793 0 $771 3.1415926535897993 $767 $794 forward @7 unknown #
edge $-1 -1 $-1 $750 0 $793 17.271999999999998 $734 $795 forward @7 unknown #
edge $796 -1 $-1 $793 0 $771 3.1415926535897993 $766 $797 forward @7 unknown #
vertex $-1 -1 $-1 $737 $798 #
straight-curve $-1 -1 $-1 139.30629999999999 25.399999999999999 -77.787499999999994 0 -1 0 I I #
attrib_edge_convexity-kcp-attrib $-1 -1 $799 $-1 $738 1 #
ellipse-curve $-1 -1 $-1 -134.9375 8.1280000000000001 77.78749999999998 0 -1 0 -4.3687999999999931 0 1.4210854715202004e-014 1 I I #
point $-1 -1 $-1 -139.30629999999999 8.1280000000000001 77.787499999999994 #
convexity-sys-attrib $-1 -1 $-1 $741 $697 #
coedge $-1 -1 $-1 $745 $745 $800 $801 forward $701 $-1 #
coedge $-1 -1 $-1 $765 $802 $745 $779 reversed $728 $-1 #
edge $-1 -1 $-1 $803 0 $804 3.1415926535897931 $745 $805 forward @7 unknown #
ellipse-curve $-1 -1 $-1 134.9375 25.399999999999999 -77.787499999999994 0 -1 0 -4.3687999999999931 0 0 1 I I #
point $-1 -1 $-1 139.30629999999999 25.399999999999999 -77.787499999999994 #
point $-1 -1 $-1 130.56870000000001 25.399999999999999 -77.787499999999994 #
convexity-sys-attrib $-1 -1 $-1 $754 $710 #
coedge $-1 -1 $-1 $806 $806 $807 $808 reversed $756 $-1 #
model_id-kcp-attrib $-1 -1 $-1 $-1 $757 1 1021575294 1021575295 -812580863 25 #
plane-surface $-1 -1 $-1 134.9375 8.1280000000000001 77.787499999999994 0 -1 0 -1 0 0 forward_v I I I I #
convexity-sys-attrib $-1 -1 $-1 $759 $718 #
coedge $-1 -1 $-1 $807 $800 $802 $809 forward $763 $-1 #
coedge $-1 -1 $-1 $802 $765 $806 $810 reversed $728 $-1 #
coedge $-1 -1 $-1 $800 $807 $765 $791 reversed $763 $-1 #
edge $-1 -1 $-1 $803 0 $811 17.271999999999998 $790 $812 forward @7 unknown #
attrib_edge_convexity-kcp-attrib $-1 -1 $813 $-1 $768 1 #
vertex $-1 -1 $-1 $768 $814 #
ellipse-curve $-1 -1 $-1 134.9375 8.1280000000000001 -77.787500000000009 0 -1 0 -4.3687999999999931 0 1.4210854715202004e-014 1 I I #
straight-curve $-1 -1 $-1 130.56870000000001 25.399999999999999 -77.787499999999994 0 -1 0 I I #
attrib_edge_convexity-kcp-attrib $-1 -1 $815 $-1 $770 1 #
ellipse-curve $-1 -1 $-1 134.9375 8.1280000000000001 -77.78749999999998 0 1 0 -4.3687999999999931 0 -1.4210854715202004e-014 1 I I #
point $-1 -1 $-1 139.30629999999999 8.1280000000000001 -77.787499999999994 #
convexity-sys-attrib $-1 -1 $-1 $773 $738 #
coedge $-1 -1 $-1 $788 $790 $777 $801 reversed $763 $-1 #
edge $-1 -1 $-1 $804 0 $803 3.1415926535897931 $777 $816 forward @7 unknown #
coedge $-1 -1 $-1 $778 $789 $788 $809 reversed $728 $-1 #
vertex $-1 -1 $-1 $801 $817 #
vertex $-1 -1 $-1 $801 $818 #
ellipse-curve $-1 -1 $-1 134.9375 25.399999999999999 77.787499999999994 0 -1 0 4.3687999999999931 0 0 1 I I #
coedge $-1 -1 $-1 $784 $784 $789 $810 forward $756 $-1 #
coedge $-1 -1 $-1 $790 $788 $784 $808 forward $763 $-1 #
edge $819 -1 $-1 $820 0 $811 3.1415926535897993 $807 $821 forward @7 unknown #
edge $-1 -1 $-1 $804 0 $820 17.271999999999998 $788 $822 forward @7 unknown #
edge $823 -1 $-1 $820 0 $811 3.1415926535897993 $806 $824 forward @7 unknown #
vertex $-1 -1 $-1 $791 $825 #
straight-curve $-1 -1 $-1 139.30629999999999 25.399999999999999 77.787499999999994 0 -1 0 I I #
convexity-sys-attrib $-1 -1 $-1 $792 $768 #
point $-1 -1 $-1 130.56870000000001 8.1280000000000001 -77.787499999999994 #
convexity-sys-attrib $-1 -1 $-1 $796 $770 #
ellipse-curve $-1 -1 $-1 134.9375 25.399999999999999 77.787499999999994 0 -1 0 -4.3687999999999931 0 0 1 I I #
point $-1 -1 $-1 139.30629999999999 25.399999999999999 77.787499999999994 #
point $-1 -1 $-1 130.56870000000001 25.399999999999999 77.787499999999994 #
attrib_edge_convexity-kcp-attrib $-1 -1 $826 $-1 $808 1 #
vertex $-1 -1 $-1 $808 $827 #
ellipse-curve $-1 -1 $-1 134.9375 8.1280000000000001 77.78749999999998 0 -1 0 -4.3687999999999931 0 1.4210854715202004e-014 1 I I #
straight-curve $-1 -1 $-1 130.56870000000001 25.399999999999999 77.787499999999994 0 -1 0 I I #
attrib_edge_convexity-kcp-attrib $-1 -1 $828 $-1 $810 1 #
ellipse-curve $-1 -1 $-1 134.9375 8.1280000000000001 77.787500000000009 0 1 0 -4.3687999999999931 0 -1.4210854715202004e-014 1 I I #
point $-1 -1 $-1 139.30629999999999 8.1280000000000001 77.787499999999994 #
convexity-sys-attrib $-1 -1 $-1 $819 $808 #
point $-1 -1 $-1 130.56870000000001 8.1280000000000001 77.787499999999994 #
convexity-sys-attrib $-1 -1 $-1 $823 $810 #
End-of-ACIS-data 