600 0 1 0           
103 GICL Pro/E ACIS Translator - Source: f:/data5/repository/PTC/V18/bboxrev2/boombox/1012sup_pl_.prt - 6 0 13 ACIS 6.0.3 NT 24 Thu Apr 04 10:05:08 2002 
1 9.9999999999999995e-007 1e-010 
body $-1 $1 $-1 $-1 #
lump $-1 $-1 $2 $0 #
shell $-1 $-1 $-1 $3 $-1 $1 #
face $-1 $4 $5 $2 $-1 $6 reversed single #
face $-1 $7 $8 $2 $-1 $9 reversed single #
loop $-1 $10 $11 $3 #
plane-surface $-1 0 0 0 0 1 0 -1 0 0 forward_v I I I I #
face $-1 $12 $13 $2 $-1 $14 reversed single #
loop $-1 $-1 $15 $4 #
cone-surface $-1 -123.82499999999999 47.625 -103.1875 0 -1 0 14.2875 0 0 1 I I 0 1 14.2875 forward I I I I #
loop $-1 $16 $17 $3 #
coedge $-1 $18 $18 $19 $20 reversed $5 $-1 #
face $-1 $21 $22 $2 $-1 $23 forward single #
loop $-1 $-1 $24 $7 #
cone-surface $-1 -123.82499999999999 47.625 -103.1875 0 -1 0 14.2875 0 0 1 I I 0 1 14.2875 forward I I I I #
coedge $-1 $25 $19 $26 $27 reversed $8 $-1 #
loop $-1 $28 $29 $3 #
coedge $-1 $30 $31 $32 $33 reversed $10 $-1 #
coedge $-1 $11 $11 $34 $35 reversed $5 $-1 #
coedge $-1 $15 $36 $11 $20 forward $8 $-1 #
edge $-1 $37 0 $38 3.1415926535897931 $11 $39 forward 7 unknown #
face $-1 $40 $41 $2 $-1 $42 forward single #
loop $-1 $43 $44 $12 #
plane-surface $-1 0 47.625 0 0 1 0 -1 0 0 forward_v I I I I #
coedge $-1 $45 $34 $36 $46 reversed $13 $-1 #
coedge $-1 $36 $15 $44 $47 reversed $8 $-1 #
coedge $-1 $34 $45 $15 $27 forward $13 $-1 #
edge $-1 $48 0 $38 47.625 $26 $49 forward 7 unknown #
loop $-1 $50 $51 $3 #
coedge $-1 $52 $52 $53 $54 reversed $16 $-1 #
coedge $-1 $55 $17 $56 $57 reversed $10 $-1 #
coedge $-1 $17 $55 $58 $59 reversed $10 $-1 #
coedge $-1 $60 $61 $17 $33 forward $62 $-1 #
edge $-1 $63 0 $64 301.625 $17 $65 forward 7 unknown #
coedge $-1 $24 $26 $18 $35 forward $13 $-1 #
edge $-1 $38 0 $37 3.1415926535897931 $18 $66 forward 7 unknown #
coedge $-1 $19 $25 $24 $46 forward $8 $-1 #
vertex $-1 $35 $67 #
vertex $-1 $35 $68 #
ellipse-curve $-1 -123.82499999999999 0 -103.1875 0 -1 0 -14.287499999999994 0 0 1 I I #
face $-1 $69 $70 $2 $-1 $71 forward single #
loop $-1 $-1 $72 $21 #
plane-surface $-1 150.8125 0 -125.41249999999999 0 0 -1 -1 0 0 forward_v I I I I #
loop $-1 $73 $74 $12 #
coedge $-1 $75 $75 $25 $47 forward $22 $-1 #
coedge $-1 $26 $24 $75 $76 reversed $13 $-1 #
edge $-1 $77 0 $37 47.625 $24 $78 forward 7 unknown #
edge $-1 $77 0 $48 3.1415926535897931 $44 $79 forward 7 unknown #
vertex $-1 $76 $80 #
straight-curve $-1 -109.53749999999999 47.625 -103.1875 0 -1 0 I I #
loop $-1 $81 $82 $3 #
coedge $-1 $83 $83 $84 $85 reversed $28 $-1 #
coedge $-1 $29 $29 $86 $87 reversed $16 $-1 #
coedge $-1 $88 $89 $29 $54 forward $90 $-1 #
edge $-1 $91 0 $92 3.1415926535897931 $29 $93 forward 7 unknown #
coedge $-1 $31 $30 $94 $95 reversed $10 $-1 #
coedge $-1 $96 $97 $30 $57 forward $70 $-1 #
edge $-1 $98 0 $63 250.82499999999999 $30 $99 forward 7 unknown #
coedge $-1 $100 $101 $31 $59 forward $102 $-1 #
edge $-1 $64 0 $103 250.82499999999999 $31 $104 forward 7 unknown #
coedge $-1 $105 $32 $101 $106 forward $62 $-1 #
coedge $-1 $32 $105 $96 $107 reversed $62 $-1 #
loop $-1 $-1 $60 $69 #
vertex $-1 $57 $108 #
vertex $-1 $59 $109 #
straight-curve $-1 -150.8125 0 125.41249999999999 1 0 0 I I #
ellipse-curve $-1 -123.82499999999999 0 -103.1875 0 -1 0 14.287499999999994 0 0 1 I I #
point $-1 -138.11249999999998 0 -103.1875 #
point $-1 -109.53749999999999 0 -103.1875 #
face $-1 $110 $62 $2 $-1 $111 forward single #
loop $-1 $-1 $96 $40 #
plane-surface $-1 -150.8125 0 -125.41249999999999 -1 0 0 0 0 1 forward_v I I I I #
coedge $-1 $112 $94 $97 $113 forward $41 $-1 #
loop $-1 $114 $115 $12 #
coedge $-1 $116 $117 $112 $118 forward $43 $-1 #
coedge $-1 $44 $44 $45 $76 forward $22 $-1 #
edge $-1 $48 0 $77 3.1415926535897931 $75 $119 forward 7 unknown #
vertex $-1 $76 $120 #
straight-curve $-1 -138.11249999999998 47.625 -103.1875 0 -1 0 I I #
ellipse-curve $-1 -123.82499999999999 47.625 -103.1875 0 -1 0 -14.287499999999994 0 0 1 I I #
point $-1 -109.53749999999999 47.625 -103.1875 #
loop $-1 $121 $122 $3 #
coedge $-1 $123 $123 $124 $125 reversed $50 $-1 #
coedge $-1 $51 $51 $126 $127 reversed $28 $-1 #
coedge $-1 $128 $129 $51 $85 forward $130 $-1 #
edge $-1 $131 0 $132 3.1415926535897931 $51 $133 forward 7 unknown #
coedge $-1 $134 $135 $52 $87 forward $136 $-1 #
edge $-1 $92 0 $91 3.1415926535897913 $52 $137 forward 7 unknown #
coedge $-1 $138 $53 $135 $139 reversed $90 $-1 #
coedge $-1 $53 $138 $134 $140 forward $90 $-1 #
loop $-1 $-1 $88 $141 #
vertex $-1 $87 $142 #
vertex $-1 $87 $143 #
ellipse-curve $-1 134.9375 0 57.149999999999999 0 -1 0 -7.9375 0 0 1 I I #
coedge $-1 $72 $144 $55 $95 forward $41 $-1 #
edge $-1 $103 0 $98 301.625 $55 $145 forward 7 unknown #
coedge $-1 $146 $56 $61 $107 forward $70 $-1 #
coedge $-1 $56 $146 $72 $113 reversed $70 $-1 #
vertex $-1 $95 $147 #
straight-curve $-1 -150.8125 0 -125.41249999999999 0 0 1 I I #
coedge $-1 $148 $58 $144 $149 forward $102 $-1 #
coedge $-1 $58 $148 $60 $106 reversed $102 $-1 #
loop $-1 $-1 $100 $110 #
vertex $-1 $59 $150 #
straight-curve $-1 150.8125 0 125.41249999999999 0 0 -1 I I #
coedge $-1 $61 $60 $151 $152 reversed $62 $-1 #
edge $-1 $64 0 $153 47.625 $101 $154 forward 7 unknown #
edge $-1 $63 0 $155 47.625 $96 $156 forward 7 unknown #
point $-1 -150.8125 0 125.41249999999999 #
point $-1 150.8125 0 125.41249999999999 #
face $-1 $141 $102 $2 $-1 $157 forward single #
plane-surface $-1 -150.8125 0 125.41249999999999 0 0 1 1 0 0 forward_v I I I I #
coedge $-1 $144 $72 $74 $118 reversed $41 $-1 #
edge $-1 $98 0 $158 47.625 $72 $159 forward 7 unknown #
loop $-1 $160 $161 $12 #
coedge $-1 $162 $162 $138 $163 forward $73 $-1 #
coedge $-1 $151 $74 $146 $164 forward $43 $-1 #
coedge $-1 $74 $151 $148 $165 forward $43 $-1 #
edge $-1 $166 0 $158 301.625 $74 $167 forward 7 unknown #
ellipse-curve $-1 -123.82499999999999 47.625 -103.1875 0 -1 0 14.287499999999994 0 0 1 I I #
point $-1 -138.11249999999998 47.625 -103.1875 #
loop $-1 $168 $169 $3 #
coedge $-1 $170 $170 $171 $172 reversed $81 $-1 #
coedge $-1 $82 $82 $173 $174 reversed $50 $-1 #
coedge $-1 $175 $176 $82 $125 forward $177 $-1 #
edge $-1 $178 0 $179 3.1415926535897931 $82 $180 forward 7 unknown #
coedge $-1 $181 $182 $83 $127 forward $183 $-1 #
edge $-1 $132 0 $131 3.1415926535897931 $83 $184 forward 7 unknown #
coedge $-1 $185 $84 $182 $186 reversed $130 $-1 #
coedge $-1 $84 $185 $181 $187 forward $130 $-1 #
loop $-1 $-1 $128 $188 #
vertex $-1 $127 $189 #
vertex $-1 $127 $190 #
ellipse-curve $-1 0 0 0 0 -1 0 -4.7624999999999993 0 0 1 I I #
coedge $-1 $191 $86 $89 $140 reversed $136 $-1 #
coedge $-1 $86 $191 $88 $139 forward $136 $-1 #
loop $-1 $-1 $134 $192 #
ellipse-curve $-1 134.9375 0 57.149999999999991 0 -1 0 7.9375 0 7.1054273576010019e-015 1 I I #
coedge $-1 $89 $88 $115 $163 reversed $90 $-1 #
edge $-1 $193 0 $92 47.625 $135 $194 forward 7 unknown #
edge $-1 $195 0 $91 47.625 $134 $196 forward 7 unknown #
face $-1 $192 $90 $2 $-1 $197 reversed single #
point $-1 127 0 57.149999999999999 #
point $-1 142.875 0 57.149999999999999 #
coedge $-1 $94 $112 $100 $149 reversed $41 $-1 #
straight-curve $-1 150.8125 0 -125.41249999999999 -1 0 0 I I #
coedge $-1 $97 $96 $116 $164 reversed $70 $-1 #
point $-1 -150.8125 0 -125.41249999999999 #
coedge $-1 $101 $100 $117 $165 reversed $102 $-1 #
edge $-1 $103 0 $166 47.625 $100 $198 forward 7 unknown #
point $-1 150.8125 0 -125.41249999999999 #
coedge $-1 $117 $116 $105 $152 forward $43 $-1 #
edge $-1 $155 0 $153 301.625 $151 $199 forward 7 unknown #
vertex $-1 $165 $200 #
straight-curve $-1 150.8125 0 125.41249999999999 0 1 0 I I #
vertex $-1 $152 $201 #
straight-curve $-1 -150.8125 0 125.41249999999999 0 1 0 I I #
plane-surface $-1 150.8125 0 125.41249999999999 1 0 0 0 0 -1 forward_v I I I I #
vertex $-1 $164 $202 #
straight-curve $-1 -150.8125 0 -125.41249999999999 0 1 0 I I #
loop $-1 $203 $204 $12 #
coedge $-1 $205 $205 $185 $206 forward $114 $-1 #
coedge $-1 $115 $115 $191 $207 forward $73 $-1 #
edge $-1 $195 0 $193 3.1415926535897931 $115 $208 forward 7 unknown #
edge $-1 $158 0 $155 250.82499999999999 $116 $209 forward 7 unknown #
edge $-1 $153 0 $166 250.82499999999999 $117 $210 forward 7 unknown #
vertex $-1 $165 $211 #
straight-curve $-1 150.8125 47.625 -125.41249999999999 -1 0 0 I I #
loop $-1 $212 $213 $3 #
coedge $-1 $214 $214 $215 $216 forward $121 $-1 #
coedge $-1 $122 $122 $217 $218 reversed $81 $-1 #
coedge $-1 $219 $220 $122 $172 forward $221 $-1 #
edge $-1 $222 0 $223 3.1415926535897905 $122 $224 forward 7 unknown #
coedge $-1 $225 $226 $123 $174 forward $227 $-1 #
edge $-1 $179 0 $178 3.1415926535897931 $123 $228 forward 7 unknown #
coedge $-1 $229 $124 $226 $230 reversed $177 $-1 #
coedge $-1 $124 $229 $225 $231 forward $177 $-1 #
loop $-1 $-1 $175 $232 #
vertex $-1 $174 $233 #
vertex $-1 $174 $234 #
ellipse-curve $-1 128.58750000000001 0 103.1875 0 -1 0 -14.287500000000009 0 0 1 I I #
coedge $-1 $235 $126 $129 $187 reversed $183 $-1 #
coedge $-1 $126 $235 $128 $186 forward $183 $-1 #
loop $-1 $-1 $181 $236 #
ellipse-curve $-1 0 0 0 0 -1 0 4.7624999999999993 0 0 1 I I #
coedge $-1 $129 $128 $161 $206 reversed $130 $-1 #
edge $-1 $237 0 $132 47.625 $182 $238 forward 7 unknown #
edge $-1 $239 0 $131 47.625 $181 $240 forward 7 unknown #
face $-1 $236 $130 $2 $-1 $241 reversed single #
point $-1 -4.7624999999999993 0 0 #
point $-1 4.7624999999999993 0 0 #
coedge $-1 $135 $134 $162 $207 reversed $136 $-1 #
face $-1 $188 $136 $2 $-1 $242 reversed single #
vertex $-1 $207 $243 #
straight-curve $-1 142.875 47.625 57.149999999999999 0 -1 0 I I #
vertex $-1 $207 $244 #
straight-curve $-1 127 47.625 57.149999999999999 0 -1 0 I I #
cone-surface $-1 134.9375 47.625 57.149999999999999 0 -1 0 7.9375 0 0 1 I I 0 1 7.9375 forward I I I I #
straight-curve $-1 150.8125 0 -125.41249999999999 0 1 0 I I #
straight-curve $-1 -150.8125 47.625 125.41249999999999 1 0 0 I I #
point $-1 150.8125 47.625 125.41249999999999 #
point $-1 -150.8125 47.625 125.41249999999999 #
point $-1 -150.8125 47.625 -125.41249999999999 #
loop $-1 $245 $246 $12 #
coedge $-1 $247 $247 $229 $248 forward $160 $-1 #
coedge $-1 $161 $161 $235 $249 forward $114 $-1 #
edge $-1 $239 0 $237 3.1415926535897931 $161 $250 forward 7 unknown #
edge $-1 $193 0 $195 3.1415926535897931 $162 $251 forward 7 unknown #
ellipse-curve $-1 134.9375 47.625 57.149999999999999 0 -1 0 -7.9375 0 0 1 I I #
straight-curve $-1 -150.8125 47.625 -125.41249999999999 0 0 1 I I #
straight-curve $-1 150.8125 47.625 125.41249999999999 0 0 -1 I I #
point $-1 150.8125 47.625 -125.41249999999999 #
loop $-1 $252 $253 $3 #
coedge $-1 $254 $254 $255 $256 forward $168 $-1 #
coedge $-1 $169 $169 $257 $258 forward $121 $-1 #
coedge $-1 $259 $260 $169 $216 reversed $261 $-1 #
edge $-1 $262 0 $263 3.1415926535897931 $169 $264 forward 7 unknown #
coedge $-1 $265 $266 $170 $218 forward $267 $-1 #
edge $-1 $223 0 $222 3.1415926535897905 $170 $268 forward 7 unknown #
coedge $-1 $269 $171 $266 $270 reversed $221 $-1 #
coedge $-1 $171 $269 $265 $271 forward $221 $-1 #
loop $-1 $-1 $219 $272 #
vertex $-1 $218 $273 #
vertex $-1 $218 $274 #
ellipse-curve $-1 82.549999999999997 0 101.60000000000001 0 -1 0 -9.5275400000000019 0 -1.4210854715202004e-014 1 I I #
coedge $-1 $275 $173 $176 $231 reversed $227 $-1 #
coedge $-1 $173 $275 $175 $230 forward $227 $-1 #
loop $-1 $-1 $225 $276 #
ellipse-curve $-1 128.58750000000001 0 103.1875 0 -1 0 14.287499999999994 0 0 1 I I #
coedge $-1 $176 $175 $204 $248 reversed $177 $-1 #
edge $-1 $277 0 $179 47.625 $226 $278 forward 7 unknown #
edge $-1 $279 0 $178 47.625 $225 $280 forward 7 unknown #
face $-1 $276 $177 $2 $-1 $281 reversed single #
point $-1 114.3 0 103.1875 #
point $-1 142.875 0 103.1875 #
coedge $-1 $182 $181 $205 $249 reversed $183 $-1 #
face $-1 $232 $183 $2 $-1 $282 reversed single #
vertex $-1 $249 $283 #
straight-curve $-1 4.7624999999999993 47.625 0 0 -1 0 I I #
vertex $-1 $249 $284 #
straight-curve $-1 -4.7624999999999993 47.625 5.8321877600790713e-016 0 -1 0 I I #
cone-surface $-1 0 47.625 0 0 -1 0 4.7624999999999993 0 0 1 I I 0 1 4.7624999999999993 forward I I I I #
cone-surface $-1 134.9375 47.625 57.149999999999999 0 -1 0 7.9375 0 0 1 I I 0 1 7.9375 forward I I I I #
point $-1 142.875 47.625 57.149999999999999 #
point $-1 127 47.625 57.149999999999999 #
loop $-1 $285 $286 $12 #
coedge $-1 $287 $287 $269 $288 forward $203 $-1 #
coedge $-1 $204 $204 $275 $289 forward $160 $-1 #
edge $-1 $279 0 $277 3.1415926535897931 $204 $290 forward 7 unknown #
edge $-1 $237 0 $239 3.1415926535897931 $205 $291 forward 7 unknown #
ellipse-curve $-1 0 47.625 0 0 -1 0 -4.7624999999999993 0 0 1 I I #
ellipse-curve $-1 134.9375 47.625 57.149999999999999 0 -1 0 7.9375 0 0 1 I I #
loop $-1 $292 $293 $3 #
coedge $-1 $294 $294 $295 $296 forward $212 $-1 #
coedge $-1 $213 $213 $297 $298 forward $168 $-1 #
coedge $-1 $299 $300 $213 $256 reversed $301 $-1 #
edge $-1 $302 0 $303 3.1415926535897931 $213 $304 forward 7 unknown #
coedge $-1 $305 $306 $214 $258 reversed $307 $-1 #
edge $-1 $263 0 $262 3.1415926535897913 $214 $308 forward 7 unknown #
coedge $-1 $309 $215 $306 $310 reversed $261 $-1 #
coedge $-1 $215 $309 $305 $311 forward $261 $-1 #
loop $-1 $-1 $259 $312 #
vertex $-1 $258 $313 #
vertex $-1 $258 $314 #
ellipse-curve $-1 134.9375 0 -57.149999999999999 0 1 0 -7.9375 0 0 1 I I #
coedge $-1 $315 $217 $220 $271 reversed $267 $-1 #
coedge $-1 $217 $315 $219 $270 forward $267 $-1 #
loop $-1 $-1 $265 $316 #
ellipse-curve $-1 82.549999999999997 0 101.59999999999998 0 -1 0 9.5275400000000019 0 1.4210854715202004e-014 1 I I #
coedge $-1 $220 $219 $246 $288 reversed $221 $-1 #
edge $-1 $317 0 $223 47.625 $266 $318 forward 7 unknown #
edge $-1 $319 0 $222 47.625 $265 $320 forward 7 unknown #
face $-1 $316 $221 $2 $-1 $321 reversed single #
point $-1 73.022459999999995 0 101.59999999999999 #
point $-1 92.077539999999999 0 101.59999999999999 #
coedge $-1 $226 $225 $247 $289 reversed $227 $-1 #
face $-1 $272 $227 $2 $-1 $322 reversed single #
vertex $-1 $289 $323 #
straight-curve $-1 142.87499999999997 47.625 103.1875 0 -1 0 I I #
vertex $-1 $289 $324 #
straight-curve $-1 114.29999999999998 47.625 103.1875 0 -1 0 I I #
cone-surface $-1 128.58749999999998 47.625 103.1875 0 -1 0 14.2875 0 0 1 I I 0 1 14.2875 forward I I I I #
cone-surface $-1 0 47.625 0 0 -1 0 4.7624999999999993 0 0 1 I I 0 1 4.7624999999999993 forward I I I I #
point $-1 4.7624999999999993 47.625 0 #
point $-1 -4.7624999999999993 47.625 0 #
loop $-1 $325 $326 $12 #
coedge $-1 $327 $327 $309 $328 reversed $245 $-1 #
coedge $-1 $246 $246 $315 $329 forward $203 $-1 #
edge $-1 $319 0 $317 3.1415926535897931 $246 $330 forward 7 unknown #
edge $-1 $277 0 $279 3.1415926535897931 $247 $331 forward 7 unknown #
ellipse-curve $-1 128.58749999999998 47.625 103.1875 0 -1 0 -14.28749999999998 0 0 1 I I #
ellipse-curve $-1 0 47.625 0 0 -1 0 4.7624999999999993 0 0 1 I I #
loop $-1 $332 $333 $3 #
coedge $-1 $334 $334 $335 $336 forward $252 $-1 #
coedge $-1 $253 $253 $337 $338 forward $212 $-1 #
coedge $-1 $339 $340 $253 $296 reversed $341 $-1 #
edge $-1 $342 0 $343 3.1415926535897931 $253 $344 forward 7 unknown #
coedge $-1 $345 $346 $254 $298 reversed $347 $-1 #
edge $-1 $303 0 $302 3.1415926535897913 $254 $348 forward 7 unknown #
coedge $-1 $349 $255 $346 $350 reversed $301 $-1 #
coedge $-1 $255 $349 $345 $351 forward $301 $-1 #
loop $-1 $-1 $299 $352 #
vertex $-1 $298 $353 #
vertex $-1 $298 $354 #
ellipse-curve $-1 -134.9375 0 57.149999999999999 0 1 0 7.9375 0 0 1 I I #
coedge $-1 $355 $257 $260 $311 reversed $307 $-1 #
coedge $-1 $257 $355 $259 $310 forward $307 $-1 #
loop $-1 $-1 $305 $356 #
ellipse-curve $-1 134.9375 0 -57.149999999999991 0 1 0 7.9375 0 -7.1054273576010019e-015 1 I I #
coedge $-1 $260 $259 $286 $328 forward $261 $-1 #
edge $-1 $357 0 $262 47.625 $306 $358 forward 7 unknown #
edge $-1 $359 0 $263 47.625 $305 $360 forward 7 unknown #
face $-1 $356 $261 $2 $-1 $361 reversed single #
point $-1 127 0 -57.149999999999999 #
point $-1 142.875 0 -57.149999999999999 #
coedge $-1 $266 $265 $287 $329 reversed $267 $-1 #
face $-1 $312 $267 $2 $-1 $362 reversed single #
vertex $-1 $329 $363 #
straight-curve $-1 92.077539999999999 47.625 101.59999999999999 0 -1 0 I I #
vertex $-1 $329 $364 #
straight-curve $-1 73.022459999999995 47.625 101.59999999999999 0 -1 0 I I #
cone-surface $-1 82.549999999999997 47.625 101.59999999999999 0 -1 0 9.5275399999999983 0 0 1 I I 0 1 9.5275399999999983 forward I I I I #
cone-surface $-1 128.58749999999998 47.625 103.1875 0 -1 0 14.2875 0 0 1 I I 0 1 14.2875 forward I I I I #
point $-1 142.875 47.625 103.1875 #
point $-1 114.3 47.625 103.1875 #
loop $-1 $365 $366 $12 #
coedge $-1 $367 $367 $349 $368 reversed $285 $-1 #
coedge $-1 $286 $286 $355 $369 reversed $245 $-1 #
edge $-1 $357 0 $359 3.1415926535897931 $286 $370 forward 7 unknown #
edge $-1 $317 0 $319 3.1415926535897931 $287 $371 forward 7 unknown #
ellipse-curve $-1 82.549999999999997 47.625 101.59999999999999 0 -1 0 -9.5275400000000019 0 0 1 I I #
ellipse-curve $-1 128.58749999999998 47.625 103.1875 0 -1 0 14.287500000000023 0 0 1 I I #
loop $-1 $372 $373 $3 #
coedge $-1 $374 $374 $375 $376 reversed $292 $-1 #
coedge $-1 $293 $293 $377 $378 forward $252 $-1 #
coedge $-1 $379 $380 $293 $336 reversed $381 $-1 #
edge $-1 $382 0 $383 3.1415926535897931 $293 $384 forward 7 unknown #
coedge $-1 $385 $386 $294 $338 reversed $387 $-1 #
edge $-1 $343 0 $342 3.1415926535897931 $294 $388 forward 7 unknown #
coedge $-1 $389 $295 $386 $390 reversed $341 $-1 #
coedge $-1 $295 $389 $385 $391 forward $341 $-1 #
loop $-1 $-1 $339 $392 #
vertex $-1 $338 $393 #
vertex $-1 $338 $394 #
ellipse-curve $-1 128.58750000000001 0 -103.1875 0 1 0 -14.287500000000009 0 0 1 I I #
coedge $-1 $395 $297 $300 $351 reversed $347 $-1 #
coedge $-1 $297 $395 $299 $350 forward $347 $-1 #
loop $-1 $-1 $345 $396 #
ellipse-curve $-1 -134.9375 0 57.149999999999991 0 1 0 -7.9375 0 7.1054273576010019e-015 1 I I #
coedge $-1 $300 $299 $326 $368 forward $301 $-1 #
edge $-1 $397 0 $302 47.625 $346 $398 forward 7 unknown #
edge $-1 $399 0 $303 47.625 $345 $400 forward 7 unknown #
face $-1 $396 $301 $2 $-1 $401 reversed single #
point $-1 -127 0 57.149999999999999 #
point $-1 -142.875 0 57.149999999999999 #
coedge $-1 $306 $305 $327 $369 forward $307 $-1 #
face $-1 $352 $307 $2 $-1 $402 reversed single #
vertex $-1 $369 $403 #
straight-curve $-1 127 47.625 -57.149999999999999 0 -1 0 I I #
vertex $-1 $369 $404 #
straight-curve $-1 142.875 47.625 -57.149999999999999 0 -1 0 I I #
cone-surface $-1 134.9375 47.625 -57.149999999999999 0 1 0 7.9375 0 0 1 I I 0 1 7.9375 forward I I I I #
cone-surface $-1 82.549999999999997 47.625 101.59999999999999 0 -1 0 9.5275399999999983 0 0 1 I I 0 1 9.5275399999999983 forward I I I I #
point $-1 92.077539999999999 47.625 101.59999999999999 #
point $-1 73.022459999999995 47.625 101.59999999999999 #
loop $-1 $405 $406 $12 #
coedge $-1 $407 $407 $389 $408 reversed $325 $-1 #
coedge $-1 $326 $326 $395 $409 reversed $285 $-1 #
edge $-1 $397 0 $399 3.1415926535897931 $326 $410 forward 7 unknown #
edge $-1 $359 0 $357 3.1415926535897931 $327 $411 forward 7 unknown #
ellipse-curve $-1 134.9375 47.625 -57.149999999999999 0 1 0 -7.9375 0 0 1 I I #
ellipse-curve $-1 82.549999999999997 47.625 101.59999999999999 0 -1 0 9.5275400000000019 0 0 1 I I #
loop $-1 $412 $413 $3 #
coedge $-1 $414 $414 $415 $416 reversed $332 $-1 #
coedge $-1 $333 $333 $417 $418 reversed $292 $-1 #
coedge $-1 $419 $420 $333 $376 forward $421 $-1 #
edge $-1 $422 0 $423 3.1415926535897913 $333 $424 forward 7 unknown #
coedge $-1 $425 $426 $334 $378 reversed $427 $-1 #
edge $-1 $383 0 $382 3.1415926535897931 $334 $428 forward 7 unknown #
coedge $-1 $429 $335 $426 $430 reversed $381 $-1 #
coedge $-1 $335 $429 $425 $431 forward $381 $-1 #
loop $-1 $-1 $379 $432 #
vertex $-1 $378 $433 #
vertex $-1 $378 $434 #
ellipse-curve $-1 -128.58750000000001 0 103.1875 0 1 0 14.287500000000009 0 0 1 I I #
coedge $-1 $435 $337 $340 $391 reversed $387 $-1 #
coedge $-1 $337 $435 $339 $390 forward $387 $-1 #
loop $-1 $-1 $385 $436 #
ellipse-curve $-1 128.58750000000001 0 -103.1875 0 1 0 14.287499999999994 0 0 1 I I #
coedge $-1 $340 $339 $366 $408 forward $341 $-1 #
edge $-1 $437 0 $342 47.625 $386 $438 forward 7 unknown #
edge $-1 $439 0 $343 47.625 $385 $440 forward 7 unknown #
face $-1 $436 $341 $2 $-1 $441 reversed single #
point $-1 114.3 0 -103.1875 #
point $-1 142.875 0 -103.1875 #
coedge $-1 $346 $345 $367 $409 forward $347 $-1 #
face $-1 $392 $347 $2 $-1 $442 reversed single #
vertex $-1 $409 $443 #
straight-curve $-1 -127 47.625 57.149999999999999 0 -1 0 I I #
vertex $-1 $409 $444 #
straight-curve $-1 -142.875 47.625 57.149999999999999 0 -1 0 I I #
cone-surface $-1 -134.9375 47.625 57.149999999999999 0 1 0 -7.9375 0 0 1 I I 0 1 7.9375 forward I I I I #
cone-surface $-1 134.9375 47.625 -57.149999999999999 0 1 0 7.9375 0 0 1 I I 0 1 7.9375 forward I I I I #
point $-1 127 47.625 -57.149999999999999 #
point $-1 142.875 47.625 -57.149999999999999 #
loop $-1 $445 $446 $12 #
coedge $-1 $447 $447 $429 $448 reversed $365 $-1 #
coedge $-1 $366 $366 $435 $449 reversed $325 $-1 #
edge $-1 $437 0 $439 3.1415926535897931 $366 $450 forward 7 unknown #
edge $-1 $399 0 $397 3.1415926535897931 $367 $451 forward 7 unknown #
ellipse-curve $-1 -134.9375 47.625 57.149999999999999 0 1 0 7.9375 0 0 1 I I #
ellipse-curve $-1 134.9375 47.625 -57.149999999999999 0 1 0 7.9375 0 0 1 I I #
loop $-1 $-1 $452 $3 #
coedge $-1 $453 $453 $454 $455 reversed $372 $-1 #
coedge $-1 $373 $373 $456 $457 reversed $332 $-1 #
coedge $-1 $458 $459 $373 $416 forward $460 $-1 #
edge $-1 $461 0 $462 3.1415926535897931 $373 $463 forward 7 unknown #
coedge $-1 $464 $465 $374 $418 forward $466 $-1 #
edge $-1 $423 0 $422 3.1415926535897931 $374 $467 forward 7 unknown #
coedge $-1 $468 $375 $465 $469 reversed $421 $-1 #
coedge $-1 $375 $468 $464 $470 forward $421 $-1 #
loop $-1 $-1 $419 $471 #
vertex $-1 $418 $472 #
vertex $-1 $418 $473 #
ellipse-curve $-1 -131.76249999999999 0 -57.149999999999991 0 -1 0 -7.9375 0 -7.1054273576010019e-015 1 I I #
coedge $-1 $474 $377 $380 $431 reversed $427 $-1 #
coedge $-1 $377 $474 $379 $430 forward $427 $-1 #
loop $-1 $-1 $425 $475 #
ellipse-curve $-1 -128.58750000000001 0 103.1875 0 1 0 -14.287499999999994 0 0 1 I I #
coedge $-1 $380 $379 $406 $448 forward $381 $-1 #
edge $-1 $476 0 $382 47.625 $426 $477 forward 7 unknown #
edge $-1 $478 0 $383 47.625 $425 $479 forward 7 unknown #
face $-1 $475 $381 $2 $-1 $480 reversed single #
point $-1 -114.3 0 103.1875 #
point $-1 -142.875 0 103.1875 #
coedge $-1 $386 $385 $407 $449 forward $387 $-1 #
face $-1 $432 $387 $2 $-1 $481 reversed single #
vertex $-1 $449 $482 #
straight-curve $-1 114.29999999999998 47.625 -103.1875 0 -1 0 I I #
vertex $-1 $449 $483 #
straight-curve $-1 142.87499999999997 47.625 -103.1875 0 -1 0 I I #
cone-surface $-1 128.58749999999998 47.625 -103.1875 0 1 0 14.2875 0 0 1 I I 0 1 14.2875 forward I I I I #
cone-surface $-1 -134.9375 47.625 57.149999999999999 0 1 0 -7.9375 0 0 1 I I 0 1 7.9375 forward I I I I #
point $-1 -127 47.625 57.149999999999999 #
point $-1 -142.875 47.625 57.149999999999999 #
loop $-1 $484 $485 $12 #
coedge $-1 $486 $486 $468 $487 forward $405 $-1 #
coedge $-1 $406 $406 $474 $488 reversed $365 $-1 #
edge $-1 $476 0 $478 3.1415926535897931 $406 $489 forward 7 unknown #
edge $-1 $439 0 $437 3.1415926535897931 $407 $490 forward 7 unknown #
ellipse-curve $-1 128.58749999999998 47.625 -103.1875 0 1 0 -14.28749999999998 0 0 1 I I #
ellipse-curve $-1 -134.9375 47.625 57.149999999999999 0 1 0 -7.9375 0 0 1 I I #
coedge $-1 $491 $491 $492 $493 reversed $412 $-1 #
coedge $-1 $413 $413 $494 $495 reversed $372 $-1 #
coedge $-1 $496 $497 $413 $455 forward $498 $-1 #
edge $-1 $499 0 $500 3.1415926535897905 $413 $501 forward 7 unknown #
coedge $-1 $502 $503 $414 $457 forward $504 $-1 #
edge $-1 $462 0 $461 3.1415926535897931 $414 $505 forward 7 unknown #
coedge $-1 $506 $415 $503 $507 reversed $460 $-1 #
coedge $-1 $415 $506 $502 $508 forward $460 $-1 #
loop $-1 $-1 $458 $509 #
vertex $-1 $457 $510 #
vertex $-1 $457 $511 #
ellipse-curve $-1 82.549999999999983 0 -101.59999999999999 0 -1 0 -6.3525399999999905 0 0 1 I I #
coedge $-1 $512 $417 $420 $470 reversed $466 $-1 #
coedge $-1 $417 $512 $419 $469 forward $466 $-1 #
loop $-1 $-1 $464 $513 #
ellipse-curve $-1 -131.76249999999999 0 -57.149999999999999 0 -1 0 7.9375 0 0 1 I I #
coedge $-1 $420 $419 $446 $487 reversed $421 $-1 #
edge $-1 $514 0 $423 47.625 $465 $515 forward 7 unknown #
edge $-1 $516 0 $422 47.625 $464 $517 forward 7 unknown #
face $-1 $513 $421 $2 $-1 $518 reversed single #
point $-1 -139.69999999999999 0 -57.149999999999999 #
point $-1 -123.82499999999999 0 -57.149999999999999 #
coedge $-1 $426 $425 $447 $488 forward $427 $-1 #
face $-1 $471 $427 $2 $-1 $519 reversed single #
vertex $-1 $488 $520 #
straight-curve $-1 -114.29999999999998 47.625 103.1875 0 -1 0 I I #
vertex $-1 $488 $521 #
straight-curve $-1 -142.87499999999997 47.625 103.1875 0 -1 0 I I #
cone-surface $-1 -128.58749999999998 47.625 103.1875 0 1 0 -14.2875 0 0 1 I I 0 1 14.2875 forward I I I I #
cone-surface $-1 128.58749999999998 47.625 -103.1875 0 1 0 14.2875 0 0 1 I I 0 1 14.2875 forward I I I I #
point $-1 114.3 47.625 -103.1875 #
point $-1 142.875 47.625 -103.1875 #
loop $-1 $522 $523 $12 #
coedge $-1 $524 $524 $506 $525 forward $445 $-1 #
coedge $-1 $446 $446 $512 $526 forward $405 $-1 #
edge $-1 $516 0 $514 3.1415926535897931 $446 $527 forward 7 unknown #
edge $-1 $478 0 $476 3.1415926535897931 $447 $528 forward 7 unknown #
ellipse-curve $-1 -128.58749999999998 47.625 103.1875 0 1 0 14.28749999999998 0 0 1 I I #
ellipse-curve $-1 128.58749999999998 47.625 -103.1875 0 1 0 14.287500000000023 0 0 1 I I #
coedge $-1 $452 $452 $529 $530 reversed $412 $-1 #
coedge $-1 $531 $532 $452 $493 forward $533 $-1 #
edge $-1 $534 0 $535 3.1415926535897931 $452 $536 forward 7 unknown #
coedge $-1 $537 $538 $453 $495 forward $539 $-1 #
edge $-1 $500 0 $499 3.1415926535897905 $453 $540 forward 7 unknown #
coedge $-1 $541 $454 $538 $542 reversed $498 $-1 #
coedge $-1 $454 $541 $537 $543 forward $498 $-1 #
loop $-1 $-1 $496 $544 #
vertex $-1 $495 $545 #
vertex $-1 $495 $546 #
ellipse-curve $-1 -82.549999999999997 0 -101.59999999999998 0 -1 0 -9.5275400000000019 0 -1.4210854715202004e-014 1 I I #
coedge $-1 $547 $456 $459 $508 reversed $504 $-1 #
coedge $-1 $456 $547 $458 $507 forward $504 $-1 #
loop $-1 $-1 $502 $548 #
ellipse-curve $-1 82.550000000000011 0 -101.59999999999999 0 -1 0 6.3525399999999905 0 0 1 I I #
coedge $-1 $459 $458 $485 $525 reversed $460 $-1 #
edge $-1 $549 0 $462 47.625 $503 $550 forward 7 unknown #
edge $-1 $551 0 $461 47.625 $502 $552 forward 7 unknown #
face $-1 $548 $460 $2 $-1 $553 reversed single #
point $-1 76.197459999999992 0 -101.59999999999999 #
point $-1 88.902540000000002 0 -101.59999999999999 #
coedge $-1 $465 $464 $486 $526 reversed $466 $-1 #
face $-1 $509 $466 $2 $-1 $554 reversed single #
vertex $-1 $526 $555 #
straight-curve $-1 -123.82499999999999 47.625 -57.149999999999999 0 -1 0 I I #
vertex $-1 $526 $556 #
straight-curve $-1 -139.69999999999999 47.625 -57.149999999999999 0 -1 0 I I #
cone-surface $-1 -131.76249999999999 47.625 -57.149999999999999 0 -1 0 7.9375 0 0 1 I I 0 1 7.9375 forward I I I I #
cone-surface $-1 -128.58749999999998 47.625 103.1875 0 1 0 -14.2875 0 0 1 I I 0 1 14.2875 forward I I I I #
point $-1 -114.3 47.625 103.1875 #
point $-1 -142.875 47.625 103.1875 #
loop $-1 $-1 $557 $12 #
coedge $-1 $558 $558 $541 $559 forward $484 $-1 #
coedge $-1 $485 $485 $547 $560 forward $445 $-1 #
edge $-1 $551 0 $549 3.1415926535897931 $485 $561 forward 7 unknown #
edge $-1 $514 0 $516 3.1415926535897931 $486 $562 forward 7 unknown #
ellipse-curve $-1 -131.76249999999999 47.625 -57.149999999999999 0 -1 0 -7.9375 0 0 1 I I #
ellipse-curve $-1 -128.58749999999998 47.625 103.1875 0 1 0 -14.287500000000023 0 0 1 I I #
coedge $-1 $563 $564 $491 $530 forward $565 $-1 #
edge $-1 $535 0 $534 3.1415926535897931 $491 $566 forward 7 unknown #
coedge $-1 $567 $492 $564 $568 reversed $533 $-1 #
coedge $-1 $492 $567 $563 $569 forward $533 $-1 #
loop $-1 $-1 $531 $570 #
vertex $-1 $530 $571 #
vertex $-1 $530 $572 #
ellipse-curve $-1 -82.550000000000011 0 101.59999999999999 0 -1 0 -6.3525399999999905 0 0 1 I I #
coedge $-1 $573 $494 $497 $543 reversed $539 $-1 #
coedge $-1 $494 $573 $496 $542 forward $539 $-1 #
loop $-1 $-1 $537 $574 #
ellipse-curve $-1 -82.549999999999997 0 -101.60000000000001 0 -1 0 9.5275400000000019 0 1.4210854715202004e-014 1 I I #
coedge $-1 $497 $496 $523 $559 reversed $498 $-1 #
edge $-1 $575 0 $500 47.625 $538 $576 forward 7 unknown #
edge $-1 $577 0 $499 47.625 $537 $578 forward 7 unknown #
face $-1 $574 $498 $2 $-1 $579 reversed single #
point $-1 -92.077539999999999 0 -101.59999999999999 #
point $-1 -73.022459999999995 0 -101.59999999999999 #
coedge $-1 $503 $502 $524 $560 reversed $504 $-1 #
face $-1 $544 $504 $2 $-1 $580 reversed single #
vertex $-1 $560 $581 #
straight-curve $-1 88.902540000000002 47.625 -101.59999999999999 0 -1 0 I I #
vertex $-1 $560 $582 #
straight-curve $-1 76.197459999999992 47.625 -101.59999999999999 0 -1 0 I I #
cone-surface $-1 82.549999999999997 47.625 -101.59999999999999 0 -1 0 6.3525399999999994 0 0 1 I I 0 1 6.3525399999999994 forward I I I I #
cone-surface $-1 -131.76249999999999 47.625 -57.149999999999999 0 -1 0 7.9375 0 0 1 I I 0 1 7.9375 forward I I I I #
point $-1 -123.82499999999999 47.625 -57.149999999999999 #
point $-1 -139.69999999999999 47.625 -57.149999999999999 #
coedge $-1 $583 $583 $567 $584 forward $522 $-1 #
coedge $-1 $523 $523 $573 $585 forward $484 $-1 #
edge $-1 $577 0 $575 3.1415926535897931 $523 $586 forward 7 unknown #
edge $-1 $549 0 $551 3.1415926535897931 $524 $587 forward 7 unknown #
ellipse-curve $-1 82.549999999999997 47.625 -101.59999999999999 0 -1 0 -6.3525400000000047 0 0 1 I I #
ellipse-curve $-1 -131.76249999999999 47.625 -57.149999999999999 0 -1 0 7.9375 0 0 1 I I #
coedge $-1 $588 $529 $532 $569 reversed $565 $-1 #
coedge $-1 $529 $588 $531 $568 forward $565 $-1 #
loop $-1 $-1 $563 $589 #
ellipse-curve $-1 -82.549999999999983 0 101.59999999999999 0 -1 0 6.3525399999999905 0 0 1 I I #
coedge $-1 $532 $531 $557 $584 reversed $533 $-1 #
edge $-1 $590 0 $535 47.625 $564 $591 forward 7 unknown #
edge $-1 $592 0 $534 47.625 $563 $593 forward 7 unknown #
face $-1 $589 $533 $2 $-1 $594 reversed single #
point $-1 -88.902540000000002 0 101.59999999999999 #
point $-1 -76.197459999999992 0 101.59999999999999 #
coedge $-1 $538 $537 $558 $585 reversed $539 $-1 #
face $-1 $570 $539 $2 $-1 $595 reversed single #
vertex $-1 $585 $596 #
straight-curve $-1 -73.022459999999995 47.625 -101.59999999999999 0 -1 0 I I #
vertex $-1 $585 $597 #
straight-curve $-1 -92.077539999999999 47.625 -101.59999999999999 0 -1 0 I I #
cone-surface $-1 -82.549999999999997 47.625 -101.59999999999999 0 -1 0 9.5275399999999983 0 0 1 I I 0 1 9.5275399999999983 forward I I I I #
cone-surface $-1 82.549999999999997 47.625 -101.59999999999999 0 -1 0 6.3525399999999994 0 0 1 I I 0 1 6.3525399999999994 forward I I I I #
point $-1 88.902540000000002 47.625 -101.59999999999999 #
point $-1 76.197459999999992 47.625 -101.59999999999999 #
coedge $-1 $557 $557 $588 $598 forward $522 $-1 #
edge $-1 $592 0 $590 3.1415926535897931 $557 $599 forward 7 unknown #
edge $-1 $575 0 $577 3.1415926535897931 $558 $600 forward 7 unknown #
ellipse-curve $-1 -82.549999999999997 47.625 -101.59999999999999 0 -1 0 -9.5275400000000019 0 0 1 I I #
ellipse-curve $-1 82.549999999999997 47.625 -101.59999999999999 0 -1 0 6.3525400000000047 0 0 1 I I #
coedge $-1 $564 $563 $583 $598 reversed $565 $-1 #
face $-1 $-1 $565 $2 $-1 $601 reversed single #
vertex $-1 $598 $602 #
straight-curve $-1 -76.197459999999992 47.625 101.59999999999999 0 -1 0 I I #
vertex $-1 $598 $603 #
straight-curve $-1 -88.902540000000002 47.625 101.59999999999999 0 -1 0 I I #
cone-surface $-1 -82.549999999999997 47.625 101.59999999999999 0 -1 0 6.3525399999999994 0 0 1 I I 0 1 6.3525399999999994 forward I I I I #
cone-surface $-1 -82.549999999999997 47.625 -101.59999999999999 0 -1 0 9.5275399999999983 0 0 1 I I 0 1 9.5275399999999983 forward I I I I #
point $-1 -73.022459999999995 47.625 -101.59999999999999 #
point $-1 -92.077539999999999 47.625 -101.59999999999999 #
edge $-1 $590 0 $592 3.1415926535897931 $583 $604 forward 7 unknown #
ellipse-curve $-1 -82.549999999999997 47.625 101.59999999999999 0 -1 0 -6.3525400000000047 0 0 1 I I #
ellipse-curve $-1 -82.549999999999997 47.625 -101.59999999999999 0 -1 0 9.5275400000000019 0 0 1 I I #
cone-surface $-1 -82.549999999999997 47.625 101.59999999999999 0 -1 0 6.3525399999999994 0 0 1 I I 0 1 6.3525399999999994 forward I I I I #
point $-1 -76.197459999999992 47.625 101.59999999999999 #
point $-1 -88.902540000000002 47.625 101.59999999999999 #
ellipse-curve $-1 -82.549999999999997 47.625 101.59999999999999 0 -1 0 6.3525400000000047 0 0 1 I I #
End-of-ACIS-data 