600 0 1 0           
98 GICL Pro/E ACIS Translator - Source: f:/data5/repository/PTC/V18/bboxrev2/boombox/1012a_.prt - 6 0 13 ACIS 6.0.3 NT 24 Thu Apr 04 13:42:38 2002 
1 9.9999999999999995e-007 1e-010 
body $-1 $1 $-1 $-1 #
lump $-1 $-1 $2 $0 #
shell $-1 $-1 $-1 $3 $-1 $1 #
face $-1 $4 $5 $2 $-1 $6 reversed single #
face $-1 $7 $8 $2 $-1 $9 reversed single #
loop $-1 $10 $11 $3 #
plane-surface $-1 0 0 0 0 -1 0 -1 0 0 forward_v I I I I #
face $-1 $12 $13 $2 $-1 $14 reversed single #
loop $-1 $-1 $15 $4 #
cone-surface $-1 -82.549999999999997 1.0162732465412503 -101.59999999999999 0 -1 0 -6.3499999999999996 0 0 1 I I 0 1 6.3499999999999996 forward I I I I #
loop $-1 $16 $17 $3 #
coedge $-1 $18 $18 $19 $20 forward $5 $-1 #
face $-1 $21 $22 $2 $-1 $23 reversed single #
loop $-1 $-1 $24 $7 #
cone-surface $-1 -82.549999999999997 1.0162732465412503 -101.59999999999999 0 -1 0 -6.3499999999999996 0 0 1 I I 0 1 6.3499999999999996 forward I I I I #
coedge $-1 $25 $19 $26 $27 forward $8 $-1 #
loop $-1 $28 $29 $3 #
coedge $-1 $30 $30 $31 $32 forward $10 $-1 #
coedge $-1 $11 $11 $33 $34 forward $5 $-1 #
coedge $-1 $15 $35 $11 $20 reversed $8 $-1 #
edge $-1 $36 0 $37 3.1415926535897887 $11 $38 forward 7 unknown #
face $-1 $39 $40 $2 $-1 $41 reversed single #
loop $-1 $-1 $42 $12 #
cone-surface $-1 -82.549999999999997 -19.325464930825007 -101.59999999999999 0 -1 0 -1.6642794823505171 0 0 1 I I -0.85716730070211222 0.51503807491005438 1.6642794823505171 forward I I I I #
coedge $-1 $43 $33 $35 $44 forward $13 $-1 #
coedge $-1 $35 $15 $45 $46 reversed $8 $-1 #
coedge $-1 $33 $43 $15 $27 reversed $13 $-1 #
edge $-1 $36 2.2204460492503131e-016 $47 16.509999999999994 $26 $48 forward 7 unknown #
loop $-1 $49 $50 $3 #
coedge $-1 $51 $51 $52 $53 forward $16 $-1 #
coedge $-1 $17 $17 $54 $55 forward $10 $-1 #
coedge $-1 $56 $57 $17 $32 reversed $58 $-1 #
edge $-1 $59 0 $60 3.1415926535897887 $17 $61 forward 7 unknown #
coedge $-1 $24 $26 $18 $34 reversed $13 $-1 #
edge $-1 $37 0 $36 3.1415926535897887 $18 $62 forward 7 unknown #
coedge $-1 $19 $25 $24 $44 reversed $8 $-1 #
vertex $-1 $34 $63 #
vertex $-1 $34 $64 #
ellipse-curve $-1 -82.549999999999983 0 -101.60000000000001 0 -1 0 6.3499999999999943 0 1.4210854715202004e-014 1 I I #
face $-1 $65 $58 $2 $-1 $66 reversed single #
loop $-1 $-1 $45 $21 #
cone-surface $-1 -82.549999999999997 -19.325464930825007 -101.59999999999999 0 -1 0 -1.6642794823505171 0 0 1 I I -0.85716730070211222 0.51503807491005438 1.6642794823505171 forward I I I I #
coedge $-1 $67 $68 $69 $70 reversed $22 $-1 #
coedge $-1 $26 $24 $67 $71 forward $13 $-1 #
edge $-1 $37 2.2204460492503131e-016 $72 16.510000000000005 $24 $73 forward 7 unknown #
coedge $-1 $69 $74 $25 $46 forward $40 $-1 #
edge $-1 $72 0 $47 3.1415926535897976 $25 $75 forward 7 unknown #
vertex $-1 $27 $76 #
straight-curve $-1 -76.200000000000003 2.2204460492503131e-016 -101.59999999999999 0 -1 0 I I #
loop $-1 $77 $78 $3 #
coedge $-1 $79 $79 $80 $81 forward $28 $-1 #
coedge $-1 $29 $29 $82 $83 forward $16 $-1 #
coedge $-1 $84 $85 $29 $53 reversed $86 $-1 #
edge $-1 $87 0 $88 3.1415926535897887 $29 $89 forward 7 unknown #
coedge $-1 $90 $91 $30 $55 reversed $92 $-1 #
edge $-1 $60 0 $59 3.1415926535897887 $30 $93 forward 7 unknown #
coedge $-1 $94 $31 $91 $95 forward $58 $-1 #
coedge $-1 $31 $94 $90 $96 reversed $58 $-1 #
loop $-1 $-1 $56 $39 #
vertex $-1 $55 $97 #
vertex $-1 $55 $98 #
ellipse-curve $-1 -82.549999999999983 0 101.59999999999998 0 -1 0 6.3499999999999943 0 1.4210854715202004e-014 1 I I #
ellipse-curve $-1 -82.549999999999997 0 -101.59999999999998 0 -1 0 -6.3499999999999943 0 -1.4210854715202004e-014 1 I I #
point $-1 -76.199999999999989 0 -101.59999999999999 #
point $-1 -88.899999999999991 0 -101.59999999999999 #
face $-1 $99 $92 $2 $-1 $100 reversed single #
cone-surface $-1 -82.549999999999997 1.0162732465412503 101.59999999999999 0 -1 0 -6.3499999999999996 0 0 1 I I 0 1 6.3499999999999996 forward I I I I #
coedge $-1 $68 $42 $43 $71 reversed $22 $-1 #
coedge $-1 $42 $67 $74 $101 forward $22 $-1 #
coedge $-1 $74 $45 $42 $70 forward $40 $-1 #
edge $-1 $47 6.6917315353915362e-015 $102 7.40812207231735 $42 $103 forward 7 unknown #
edge $-1 $72 0 $47 3.1415926535897976 $43 $104 forward 7 unknown #
vertex $-1 $71 $105 #
straight-curve $-1 -88.899999999999991 2.2204460492503131e-016 -101.59999999999999 0 -1 0 I I #
coedge $-1 $45 $69 $68 $101 reversed $40 $-1 #
ellipse-curve $-1 -82.549999999999997 -16.510000000000005 -101.59999999999998 0 1 0 -6.3500000000000085 0 -1.4210854715202004e-014 1 I I #
point $-1 -76.200000000000003 -16.509999999999994 -101.59999999999999 #
loop $-1 $106 $107 $3 #
coedge $-1 $108 $109 $110 $111 reversed $49 $-1 #
coedge $-1 $50 $50 $112 $113 forward $28 $-1 #
coedge $-1 $114 $115 $50 $81 reversed $116 $-1 #
edge $-1 $117 0 $118 3.1415926535897931 $50 $119 forward 7 unknown #
coedge $-1 $120 $121 $51 $83 reversed $122 $-1 #
edge $-1 $88 0 $87 3.1415926535897887 $51 $123 forward 7 unknown #
coedge $-1 $124 $52 $121 $125 forward $86 $-1 #
coedge $-1 $52 $124 $120 $126 reversed $86 $-1 #
loop $-1 $-1 $84 $127 #
vertex $-1 $83 $128 #
vertex $-1 $83 $129 #
ellipse-curve $-1 82.549999999999997 0 -101.60000000000001 0 -1 0 6.3499999999999943 0 1.4210854715202004e-014 1 I I #
coedge $-1 $130 $54 $57 $96 forward $92 $-1 #
coedge $-1 $54 $130 $56 $95 reversed $92 $-1 #
loop $-1 $-1 $90 $65 #
ellipse-curve $-1 -82.549999999999997 0 101.60000000000001 0 -1 0 -6.3499999999999943 0 -1.4210854715202004e-014 1 I I #
coedge $-1 $57 $56 $131 $132 reversed $58 $-1 #
edge $-1 $59 2.2204460492503131e-016 $133 16.509999999999994 $91 $134 forward 7 unknown #
edge $-1 $60 2.2204460492503131e-016 $135 16.510000000000005 $90 $136 forward 7 unknown #
point $-1 -76.199999999999989 0 101.59999999999999 #
point $-1 -88.899999999999991 0 101.59999999999999 #
face $-1 $137 $138 $2 $-1 $139 reversed single #
cone-surface $-1 -82.549999999999997 1.0162732465412503 101.59999999999999 0 -1 0 -6.3499999999999996 0 0 1 I I 0 1 6.3499999999999996 forward I I I I #
edge $-1 $72 0 $102 7.40812207231735 $68 $140 forward 7 unknown #
vertex $-1 $101 $141 #
straight-curve $-1 -76.199999999999989 -16.510000000000005 -101.59999999999999 -0.85716730070211322 -0.5150380749100526 0 I I #
ellipse-curve $-1 -82.549999999999997 -16.510000000000005 -101.60000000000001 0 -1 0 -6.3500000000000085 0 1.4210854715202004e-014 1 I I #
point $-1 -88.900000000000006 -16.510000000000005 -101.59999999999999 #
loop $-1 $142 $143 $3 #
coedge $-1 $144 $144 $145 $146 forward $77 $-1 #
coedge $-1 $147 $78 $148 $149 forward $49 $-1 #
coedge $-1 $78 $150 $151 $152 forward $49 $-1 #
coedge $-1 $153 $154 $78 $111 forward $155 $-1 #
edge $-1 $156 0 $157 203.19999999999999 $78 $158 forward 7 unknown #
coedge $-1 $159 $160 $79 $113 reversed $161 $-1 #
edge $-1 $118 0 $117 3.1415926535897931 $79 $162 forward 7 unknown #
coedge $-1 $163 $80 $160 $164 forward $116 $-1 #
coedge $-1 $80 $163 $159 $165 reversed $116 $-1 #
loop $-1 $-1 $114 $166 #
vertex $-1 $113 $167 #
vertex $-1 $113 $168 #
ellipse-curve $-1 -123.82499999999999 0 -103.1875 0 -1 0 14.287499999999994 0 0 1 I I #
coedge $-1 $169 $82 $85 $126 forward $122 $-1 #
coedge $-1 $82 $169 $84 $125 reversed $122 $-1 #
loop $-1 $-1 $120 $170 #
ellipse-curve $-1 82.549999999999983 0 -101.59999999999998 0 -1 0 -6.3499999999999943 0 -1.4210854715202004e-014 1 I I #
coedge $-1 $85 $84 $171 $172 reversed $86 $-1 #
edge $-1 $87 2.2204460492503131e-016 $173 16.509999999999994 $121 $174 forward 7 unknown #
edge $-1 $88 2.2204460492503131e-016 $175 16.510000000000005 $120 $176 forward 7 unknown #
face $-1 $170 $86 $2 $-1 $177 reversed single #
point $-1 88.899999999999991 0 -101.59999999999999 #
point $-1 76.199999999999989 0 -101.59999999999999 #
coedge $-1 $91 $90 $178 $179 forward $92 $-1 #
coedge $-1 $180 $181 $94 $132 forward $182 $-1 #
edge $-1 $135 0 $133 3.1415926535897976 $94 $183 forward 7 unknown #
vertex $-1 $95 $184 #
straight-curve $-1 -76.200000000000003 2.2204460492503131e-016 101.59999999999999 0 -1 0 I I #
vertex $-1 $179 $185 #
straight-curve $-1 -88.899999999999991 2.2204460492503131e-016 101.59999999999999 0 -1 0 I I #
face $-1 $127 $182 $2 $-1 $186 reversed single #
loop $-1 $-1 $187 $99 #
cone-surface $-1 -82.549999999999997 -19.325464930825007 101.59999999999999 0 -1 0 -1.6642794823505171 0 0 1 I I -0.85716730070211222 0.51503807491005438 1.6642794823505171 forward I I I I #
straight-curve $-1 -88.900000000000006 -16.510000000000005 -101.59999999999999 0.85716730070211322 -0.5150380749100526 0 I I #
point $-1 -82.549999999999997 -20.325464930825003 -101.59999999999999 #
loop $-1 $188 $189 $3 #
coedge $-1 $190 $190 $191 $192 forward $106 $-1 #
coedge $-1 $107 $107 $193 $194 forward $77 $-1 #
coedge $-1 $195 $196 $107 $146 reversed $197 $-1 #
edge $-1 $198 0 $199 3.1415926535897931 $107 $200 forward 7 unknown #
coedge $-1 $201 $108 $202 $203 reversed $49 $-1 #
coedge $-1 $204 $205 $108 $149 reversed $206 $-1 #
edge $-1 $156 0 $207 1.5707963267948992 $108 $208 forward 7 unknown #
coedge $-1 $109 $209 $210 $211 reversed $49 $-1 #
coedge $-1 $212 $213 $109 $152 reversed $214 $-1 #
edge $-1 $215 0 $157 1.5707963267948966 $109 $216 forward 7 unknown #
coedge $-1 $217 $110 $213 $218 reversed $155 $-1 #
coedge $-1 $110 $217 $204 $219 forward $155 $-1 #
loop $-1 $-1 $153 $220 #
vertex $-1 $149 $221 #
vertex $-1 $152 $222 #
straight-curve $-1 101.59999999999999 0 109.53749999999999 -1 0 0 I I #
coedge $-1 $223 $112 $115 $165 forward $161 $-1 #
coedge $-1 $112 $223 $114 $164 reversed $161 $-1 #
loop $-1 $-1 $159 $224 #
ellipse-curve $-1 -123.82499999999999 0 -103.1875 0 -1 0 -14.287499999999994 0 0 1 I I #
coedge $-1 $115 $114 $225 $226 reversed $116 $-1 #
edge $-1 $117 0 $227 6.3499999999999996 $160 $228 forward 7 unknown #
edge $-1 $118 0 $229 6.3499999999999996 $159 $230 forward 7 unknown #
face $-1 $224 $116 $2 $-1 $231 reversed single #
point $-1 -109.53749999999999 0 -103.1875 #
point $-1 -138.11249999999998 0 -103.1875 #
coedge $-1 $121 $120 $232 $233 forward $122 $-1 #
face $-1 $234 $122 $2 $-1 $235 reversed single #
coedge $-1 $236 $237 $124 $172 forward $238 $-1 #
edge $-1 $175 0 $173 3.1415926535897976 $124 $239 forward 7 unknown #
vertex $-1 $125 $240 #
straight-curve $-1 88.899999999999991 2.2204460492503131e-016 -101.59999999999999 0 -1 0 I I #
vertex $-1 $233 $241 #
straight-curve $-1 76.200000000000003 2.2204460492503131e-016 -101.59999999999999 0 -1 0 I I #
cone-surface $-1 82.549999999999997 1.0162732465412503 -101.59999999999999 0 -1 0 -6.3499999999999996 0 0 1 I I 0 1 6.3499999999999996 forward I I I I #
coedge $-1 $242 $187 $130 $179 reversed $138 $-1 #
edge $-1 $135 0 $133 3.1415926535897976 $130 $243 forward 7 unknown #
coedge $-1 $181 $131 $187 $244 forward $182 $-1 #
coedge $-1 $131 $180 $242 $245 reversed $182 $-1 #
loop $-1 $-1 $131 $137 #
ellipse-curve $-1 -82.549999999999997 -16.510000000000005 101.60000000000001 0 1 0 -6.3500000000000085 0 -1.4210854715202004e-014 1 I I #
point $-1 -76.200000000000003 -16.509999999999994 101.59999999999999 #
point $-1 -88.900000000000006 -16.510000000000005 101.59999999999999 #
cone-surface $-1 -82.549999999999997 -19.325464930825007 101.59999999999999 0 -1 0 -1.6642794823505171 0 0 1 I I -0.85716730070211222 0.51503807491005438 1.6642794823505171 forward I I I I #
coedge $-1 $178 $242 $180 $244 reversed $138 $-1 #
loop $-1 $246 $247 $3 #
coedge $-1 $248 $248 $249 $250 reversed $142 $-1 #
coedge $-1 $143 $143 $251 $252 forward $106 $-1 #
coedge $-1 $253 $254 $143 $192 reversed $255 $-1 #
edge $-1 $256 0 $257 3.1415926535897931 $143 $258 forward 7 unknown #
coedge $-1 $259 $260 $144 $194 reversed $261 $-1 #
edge $-1 $199 0 $198 3.1415926535897931 $144 $262 forward 7 unknown #
coedge $-1 $263 $145 $260 $264 forward $197 $-1 #
coedge $-1 $145 $263 $259 $265 reversed $197 $-1 #
loop $-1 $-1 $195 $266 #
vertex $-1 $194 $267 #
vertex $-1 $194 $268 #
ellipse-curve $-1 8.8817841970012523e-016 0 -1.7763568394002505e-015 0 -1 0 -19.049999999999997 0 4.109231943431879e-015 1 I I #
coedge $-1 $269 $147 $270 $271 reversed $49 $-1 #
coedge $-1 $272 $273 $147 $203 forward $274 $-1 #
edge $-1 $275 0 $207 33.337500000000006 $147 $276 forward 7 unknown #
coedge $-1 $277 $148 $154 $219 reversed $206 $-1 #
coedge $-1 $148 $277 $272 $278 forward $206 $-1 #
loop $-1 $-1 $277 $279 #
vertex $-1 $203 $280 #
ellipse-curve $-1 101.60000000000001 0 125.41249999999997 0 -1 0 -1.4210854715202004e-014 0 -15.874999999999972 1 I I #
coedge $-1 $150 $281 $282 $283 reversed $49 $-1 #
coedge $-1 $284 $285 $150 $211 forward $274 $-1 #
edge $-1 $215 -2.8421709430404007e-014 $286 33.337499999999977 $150 $287 forward 7 unknown #
coedge $-1 $288 $151 $285 $289 reversed $214 $-1 #
coedge $-1 $151 $288 $153 $218 forward $214 $-1 #
loop $-1 $-1 $288 $290 #
vertex $-1 $152 $291 #
ellipse-curve $-1 -101.59999999999999 0 125.41249999999999 0 -1 0 -15.875 0 0 1 I I #
coedge $-1 $154 $153 $292 $293 reversed $155 $-1 #
edge $-1 $294 0 $157 20.637499999999999 $153 $295 forward 7 unknown #
edge $-1 $296 0 $156 20.637499999999999 $154 $297 forward 7 unknown #
face $-1 $298 $155 $2 $-1 $299 reversed single #
point $-1 101.59999999999999 0 109.53749999999999 #
point $-1 -101.59999999999999 0 109.53749999999999 #
coedge $-1 $160 $159 $300 $301 forward $161 $-1 #
face $-1 $302 $161 $2 $-1 $303 reversed single #
coedge $-1 $300 $300 $163 $226 forward $304 $-1 #
edge $-1 $229 0 $227 3.1415926535897913 $225 $305 forward 7 unknown #
vertex $-1 $164 $306 #
straight-curve $-1 -109.53749999999999 0 -103.1875 0 -1 0 I I #
vertex $-1 $301 $307 #
straight-curve $-1 -138.11249999999998 0 -103.1875 0 -1 0 I I #
cone-surface $-1 -123.82499999999999 1.1112499999999998 -103.1875 0 -1 0 -14.2875 0 0 1 I I 0 1 14.2875 forward I I I I #
coedge $-1 $308 $309 $169 $233 reversed $310 $-1 #
edge $-1 $175 0 $173 3.1415926535897976 $169 $311 forward 7 unknown #
face $-1 $312 $310 $2 $-1 $313 reversed single #
cone-surface $-1 82.549999999999997 1.0162732465412503 -101.59999999999999 0 -1 0 -6.3499999999999996 0 0 1 I I 0 1 6.3499999999999996 forward I I I I #
coedge $-1 $237 $171 $309 $314 forward $238 $-1 #
coedge $-1 $171 $236 $308 $315 reversed $238 $-1 #
loop $-1 $-1 $171 $312 #
ellipse-curve $-1 82.549999999999997 -16.510000000000005 -101.59999999999998 0 1 0 -6.3500000000000085 0 -1.4210854715202004e-014 1 I I #
point $-1 88.899999999999991 -16.509999999999994 -101.59999999999999 #
point $-1 76.199999999999989 -16.510000000000005 -101.59999999999999 #
coedge $-1 $187 $178 $181 $245 forward $138 $-1 #
ellipse-curve $-1 -82.549999999999997 -16.510000000000005 101.59999999999998 0 -1 0 -6.3500000000000085 0 1.4210854715202004e-014 1 I I #
edge $-1 $133 6.6917315353915362e-015 $316 7.40812207231735 $187 $317 forward 7 unknown #
edge $-1 $135 0 $316 7.40812207231735 $242 $318 forward 7 unknown #
loop $-1 $-1 $319 $3 #
coedge $-1 $320 $320 $321 $322 reversed $188 $-1 #
coedge $-1 $189 $189 $323 $324 reversed $142 $-1 #
coedge $-1 $325 $326 $189 $250 forward $327 $-1 #
edge $-1 $328 0 $329 3.1415926535897931 $189 $330 forward 7 unknown #
coedge $-1 $331 $332 $190 $252 reversed $333 $-1 #
edge $-1 $257 0 $256 3.1415926535897931 $190 $334 forward 7 unknown #
coedge $-1 $335 $191 $332 $336 forward $255 $-1 #
coedge $-1 $191 $335 $331 $337 reversed $255 $-1 #
loop $-1 $-1 $253 $338 #
vertex $-1 $252 $339 #
vertex $-1 $252 $340 #
ellipse-curve $-1 128.58750000000001 0 103.1875 0 -1 0 14.287499999999994 0 0 1 I I #
coedge $-1 $341 $193 $196 $265 forward $261 $-1 #
coedge $-1 $193 $341 $195 $264 reversed $261 $-1 #
loop $-1 $-1 $259 $342 #
ellipse-curve $-1 8.8817841970012523e-016 0 0 0 -1 0 19.049999999999997 0 0 1 I I #
coedge $-1 $196 $195 $343 $344 forward $197 $-1 #
edge $-1 $198 1.2006191383418254e-064 $345 1.5707963267948966 $195 $346 forward 7 unknown #
edge $-1 $199 0 $347 1.5707963267948966 $196 $348 forward 7 unknown #
face $-1 $349 $197 $2 $-1 $350 forward single #
point $-1 -19.049999999999997 0 2.3328751040316285e-015 #
point $-1 19.049999999999997 0 0 #
coedge $-1 $351 $201 $352 $353 reversed $49 $-1 #
coedge $-1 $354 $355 $201 $271 forward $356 $-1 #
edge $-1 $357 0 $275 250.82499999999999 $201 $358 forward 7 unknown #
coedge $-1 $359 $202 $205 $278 reversed $274 $-1 #
coedge $-1 $202 $360 $354 $361 reversed $274 $-1 #
loop $-1 $-1 $285 $362 #
vertex $-1 $271 $363 #
straight-curve $-1 150.8125 0 125.41249999999999 -1 0 0 I I #
coedge $-1 $205 $204 $364 $365 forward $206 $-1 #
edge $-1 $366 0 $207 20.637499999999999 $272 $367 forward 7 unknown #
face $-1 $220 $206 $2 $-1 $368 reversed single #
point $-1 117.47499999999999 0 125.41249999999999 #
coedge $-1 $209 $369 $370 $371 reversed $49 $-1 #
coedge $-1 $372 $373 $209 $283 forward $374 $-1 #
edge $-1 $286 0 $375 250.82499999999999 $209 $376 forward 7 unknown #
coedge $-1 $360 $210 $373 $377 forward $274 $-1 #
coedge $-1 $210 $359 $212 $289 forward $274 $-1 #
vertex $-1 $211 $378 #
straight-curve $-1 -117.47500000000002 0 125.41249999999999 -1 0 0 I I #
coedge $-1 $213 $212 $379 $380 forward $214 $-1 #
edge $-1 $381 0 $215 20.637499999999999 $285 $382 forward 7 unknown #
face $-1 $383 $214 $2 $-1 $384 reversed single #
point $-1 -117.47499999999999 0 125.41249999999999 #
coedge $-1 $379 $364 $217 $293 forward $385 $-1 #
edge $-1 $296 0 $294 203.19999999999999 $292 $386 forward 7 unknown #
vertex $-1 $380 $387 #
straight-curve $-1 -101.59999999999999 -20.637499999999999 109.53749999999999 0 1 0 I I #
vertex $-1 $293 $388 #
straight-curve $-1 101.59999999999999 -20.637499999999999 109.53749999999999 0 1 0 I I #
face $-1 $389 $374 $2 $-1 $390 forward single #
plane-surface $-1 117.47499999999999 -20.637499999999999 109.53749999999999 0 0 -1 -1 0 0 forward_v I I I I #
coedge $-1 $225 $225 $223 $301 reversed $304 $-1 #
edge $-1 $229 0 $227 3.1415926535897913 $223 $391 forward 7 unknown #
face $-1 $392 $393 $2 $-1 $394 reversed single #
cone-surface $-1 -123.82499999999999 1.1112499999999998 -103.1875 0 -1 0 -14.2875 0 0 1 I I 0 1 14.2875 forward I I I I #
loop $-1 $-1 $300 $302 #
ellipse-curve $-1 -123.82499999999999 -6.3499999999999996 -103.18750000000001 0 1 0 -14.287499999999994 0 1.4210854715202004e-014 1 I I #
point $-1 -109.53749999999999 -6.3499999999999996 -103.1875 #
point $-1 -138.11249999999998 -6.3499999999999996 -103.1875 #
coedge $-1 $309 $232 $237 $315 forward $310 $-1 #
coedge $-1 $232 $308 $236 $314 reversed $310 $-1 #
loop $-1 $-1 $309 $234 #
ellipse-curve $-1 82.549999999999997 -16.510000000000005 -101.60000000000001 0 -1 0 -6.3500000000000085 0 1.4210854715202004e-014 1 I I #
face $-1 $166 $238 $2 $-1 $395 reversed single #
cone-surface $-1 82.549999999999997 -19.325464930825007 -101.59999999999999 0 -1 0 -1.6642794823505171 0 0 1 I I -0.85716730070211222 0.51503807491005438 1.6642794823505171 forward I I I I #
edge $-1 $173 6.6917315353915362e-015 $396 7.40812207231735 $309 $397 forward 7 unknown #
edge $-1 $175 0 $396 7.40812207231735 $308 $398 forward 7 unknown #
vertex $-1 $245 $399 #
straight-curve $-1 -76.199999999999989 -16.510000000000005 101.59999999999999 -0.85716730070211322 -0.5150380749100526 0 I I #
straight-curve $-1 -88.900000000000006 -16.510000000000005 101.59999999999999 0.85716730070211322 -0.5150380749100526 0 I I #
coedge $-1 $400 $400 $401 $402 forward $246 $-1 #
coedge $-1 $247 $247 $403 $404 reversed $188 $-1 #
coedge $-1 $405 $406 $247 $322 forward $407 $-1 #
edge $-1 $408 0 $409 3.1415926535897931 $247 $410 forward 7 unknown #
coedge $-1 $411 $412 $248 $324 forward $413 $-1 #
edge $-1 $329 0 $328 3.1415926535897931 $248 $414 forward 7 unknown #
coedge $-1 $415 $249 $412 $416 forward $327 $-1 #
coedge $-1 $249 $415 $411 $417 reversed $327 $-1 #
loop $-1 $-1 $325 $418 #
vertex $-1 $324 $419 #
vertex $-1 $324 $420 #
ellipse-curve $-1 128.58750000000001 0 -103.1875 0 1 0 14.287499999999994 0 0 1 I I #
coedge $-1 $421 $251 $254 $337 forward $333 $-1 #
coedge $-1 $251 $421 $253 $336 reversed $333 $-1 #
loop $-1 $-1 $331 $422 #
ellipse-curve $-1 128.58750000000001 0 103.1875 0 -1 0 -14.287500000000009 0 0 1 I I #
coedge $-1 $254 $253 $423 $424 reversed $255 $-1 #
edge $-1 $256 0 $425 6.3499999999999996 $332 $426 forward 7 unknown #
edge $-1 $257 0 $427 6.3499999999999996 $331 $428 forward 7 unknown #
face $-1 $429 $255 $2 $-1 $430 reversed single #
point $-1 142.875 0 103.1875 #
point $-1 114.3 0 103.1875 #
coedge $-1 $260 $259 $431 $432 forward $261 $-1 #
face $-1 $266 $261 $2 $-1 $433 forward single #
coedge $-1 $434 $435 $263 $344 reversed $436 $-1 #
edge $-1 $345 0 $347 3.1415926535897931 $343 $437 forward 7 unknown #
vertex $-1 $432 $438 #
ellipse-curve $-1 -19.049999999999997 -6.3499999999999996 2.3328751040316281e-015 -1.2246063538223768e-016 6.2115031907166283e-032 -1 0 6.3499999999999996 3.944304526105059e-031 1 I I #
vertex $-1 $432 $439 #
ellipse-curve $-1 19.049999999999997 -6.3499999999999996 0 0 0 1 0 6.3499999999999996 0 1 I I #
face $-1 $440 $441 $2 $-1 $442 reversed single #
torus-surface $-1 0 -6.3499999999999996 0 0 -1 0 19.049999999999997 6.3499999999999996 1 0 0 forward_v I I I I #
coedge $-1 $443 $269 $444 $445 reversed $49 $-1 #
coedge $-1 $446 $447 $269 $353 forward $448 $-1 #
edge $-1 $449 -2.8421709430404007e-014 $357 33.337499999999977 $269 $450 forward 7 unknown #
coedge $-1 $451 $270 $273 $361 forward $356 $-1 #
coedge $-1 $270 $451 $446 $452 reversed $356 $-1 #
loop $-1 $-1 $354 $453 #
vertex $-1 $353 $454 #
straight-curve $-1 150.8125 0 -125.41249999999999 0 0 1 I I #
coedge $-1 $285 $272 $455 $456 reversed $274 $-1 #
coedge $-1 $273 $284 $457 $458 reversed $274 $-1 #
edge $-1 $275 0 $459 22.224999999999998 $354 $460 forward 7 unknown #
face $-1 $290 $274 $2 $-1 $461 forward single #
point $-1 150.8125 0 125.41249999999999 #
coedge $-1 $292 $455 $277 $365 reversed $385 $-1 #
edge $-1 $296 0 $366 1.5707963267948992 $364 $462 forward 7 unknown #
vertex $-1 $456 $463 #
straight-curve $-1 117.47499999999999 -20.637499999999999 125.41249999999999 0 1 0 I I #
cone-surface $-1 101.59999999999999 -20.637499999999999 125.41249999999999 0 -1 0 0 0 -15.875 1 I I 0 1 15.875 forward I I I I #
coedge $-1 $281 $443 $464 $465 reversed $49 $-1 #
coedge $-1 $466 $467 $281 $371 forward $448 $-1 #
edge $-1 $375 0 $468 33.337500000000006 $281 $469 forward 7 unknown #
coedge $-1 $470 $282 $467 $471 forward $374 $-1 #
coedge $-1 $282 $470 $284 $377 reversed $374 $-1 #
loop $-1 $-1 $372 $298 #
vertex $-1 $283 $472 #
straight-curve $-1 -150.8125 0 125.41249999999999 0 0 -1 I I #
edge $-1 $286 0 $473 22.224999999999998 $284 $474 forward 7 unknown #
point $-1 -150.8125 0 125.41249999999999 #
coedge $-1 $455 $292 $288 $380 reversed $385 $-1 #
edge $-1 $381 0 $294 1.5707963267948966 $379 $475 forward 7 unknown #
vertex $-1 $456 $476 #
straight-curve $-1 -117.47500000000002 -20.637499999999999 125.41249999999999 0 1 0 I I #
face $-1 $279 $385 $2 $-1 $477 forward single #
cone-surface $-1 -101.59999999999999 -20.637499999999999 125.41249999999999 0 -1 0 -15.875 0 0 1 I I 0 1 15.875 forward I I I I #
loop $-1 $-1 $364 $383 #
straight-curve $-1 101.59999999999999 -20.637499999999999 109.53749999999999 -1 0 0 I I #
point $-1 -101.59999999999999 -20.637499999999999 109.53749999999999 #
point $-1 101.59999999999999 -20.637499999999999 109.53749999999999 #
face $-1 $478 $448 $2 $-1 $479 forward single #
plane-surface $-1 -150.8125 0 125.41249999999999 -1 0 0 0 0 -1 forward_v I I I I #
ellipse-curve $-1 -123.82499999999999 -6.3499999999999996 -103.18749999999999 0 -1 0 -14.287499999999994 0 -1.4210854715202004e-014 1 I I #
face $-1 $480 $481 $2 $-1 $482 reversed single #
loop $-1 $304 $483 $302 #
plane-surface $-1 -123.82499999999999 -6.3499999999999996 -103.1875 0 -1 0 -1 0 0 forward_v I I I I #
cone-surface $-1 82.549999999999997 -19.325464930825007 -101.59999999999999 0 -1 0 -1.6642794823505171 0 0 1 I I -0.85716730070211222 0.51503807491005438 1.6642794823505171 forward I I I I #
vertex $-1 $315 $484 #
straight-curve $-1 88.900000000000006 -16.510000000000005 -101.59999999999999 -0.85716730070211322 -0.5150380749100526 0 I I #
straight-curve $-1 76.199999999999989 -16.510000000000005 -101.59999999999999 0.85716730070211322 -0.5150380749100526 0 I I #
point $-1 -82.549999999999997 -20.325464930825003 101.59999999999999 #
coedge $-1 $319 $319 $485 $486 forward $246 $-1 #
coedge $-1 $487 $488 $319 $402 reversed $489 $-1 #
edge $-1 $490 0 $491 3.1415926535897887 $319 $492 forward 7 unknown #
coedge $-1 $493 $494 $320 $404 forward $495 $-1 #
edge $-1 $409 0 $408 3.1415926535897931 $320 $496 forward 7 unknown #
coedge $-1 $497 $321 $494 $498 forward $407 $-1 #
coedge $-1 $321 $497 $493 $499 reversed $407 $-1 #
loop $-1 $-1 $405 $500 #
vertex $-1 $404 $501 #
vertex $-1 $404 $502 #
ellipse-curve $-1 -128.58750000000001 0 103.1875 0 1 0 -14.287499999999994 0 0 1 I I #
coedge $-1 $503 $323 $326 $417 forward $413 $-1 #
coedge $-1 $323 $503 $325 $416 reversed $413 $-1 #
loop $-1 $-1 $411 $504 #
ellipse-curve $-1 128.58750000000001 0 -103.1875 0 1 0 -14.287500000000009 0 0 1 I I #
coedge $-1 $326 $325 $505 $506 forward $327 $-1 #
edge $-1 $329 0 $507 6.3499999999999996 $412 $508 forward 7 unknown #
edge $-1 $328 0 $509 6.3499999999999996 $411 $510 forward 7 unknown #
face $-1 $511 $327 $2 $-1 $512 reversed single #
point $-1 142.875 0 -103.1875 #
point $-1 114.3 0 -103.1875 #
coedge $-1 $332 $331 $513 $514 forward $333 $-1 #
face $-1 $338 $333 $2 $-1 $515 reversed single #
coedge $-1 $513 $513 $335 $424 forward $516 $-1 #
edge $-1 $427 0 $425 3.1415926535897913 $423 $517 forward 7 unknown #
vertex $-1 $336 $518 #
straight-curve $-1 142.87499999999997 0 103.1875 0 -1 0 I I #
vertex $-1 $514 $519 #
straight-curve $-1 114.29999999999998 0 103.1875 0 -1 0 I I #
face $-1 $520 $521 $2 $-1 $522 reversed single #
cone-surface $-1 128.58749999999998 1.1112499999999998 103.1875 0 -1 0 -14.2875 0 0 1 I I 0 1 14.2875 forward I I I I #
coedge $-1 $523 $524 $341 $432 reversed $525 $-1 #
edge $-1 $347 0 $345 3.1415926535897931 $431 $526 forward 7 unknown #
torus-surface $-1 0 -6.3499999999999996 0 0 -1 0 19.049999999999997 6.3499999999999996 1 0 0 forward_v I I I I #
coedge $-1 $527 $343 $524 $528 forward $436 $-1 #
coedge $-1 $343 $527 $523 $529 reversed $436 $-1 #
loop $-1 $-1 $434 $530 #
ellipse-curve $-1 0 -6.3499999999999988 0 0 -1 0 -12.699999999999998 0 1.5552500693544189e-015 1 I I #
point $-1 -12.699999999999998 -6.3499999999999988 1.5552500693544189e-015 #
point $-1 12.699999999999998 -6.3499999999999988 0 #
face $-1 $531 $532 $2 $-1 $533 reversed single #
loop $-1 $-1 $534 $349 #
cone-surface $-1 128.58749999999998 1.1112499999999998 103.1875 0 -1 0 -11.112499999999999 0 0 1 I I 0 1 11.112499999999999 forward I I I I #
coedge $-1 $369 $351 $535 $536 forward $49 $-1 #
coedge $-1 $537 $538 $351 $445 forward $539 $-1 #
edge $-1 $540 0 $449 1.5707963267948992 $351 $541 forward 7 unknown #
coedge $-1 $542 $352 $355 $452 forward $448 $-1 #
coedge $-1 $352 $543 $537 $544 reversed $448 $-1 #
loop $-1 $-1 $447 $389 #
vertex $-1 $445 $545 #
straight-curve $-1 117.47500000000002 0 -125.41249999999999 1 0 0 I I #
coedge $-1 $355 $354 $546 $547 reversed $356 $-1 #
edge $-1 $357 0 $548 22.224999999999998 $355 $549 forward 7 unknown #
face $-1 $530 $356 $2 $-1 $550 forward single #
point $-1 150.8125 0 -125.41249999999999 #
coedge $-1 $364 $379 $359 $456 forward $385 $-1 #
edge $-1 $381 0 $366 234.94999999999996 $359 $551 forward 7 unknown #
coedge $-1 $552 $546 $360 $458 forward $553 $-1 #
edge $-1 $459 0 $473 301.625 $457 $554 forward 7 unknown #
vertex $-1 $547 $555 #
straight-curve $-1 150.8125 0 125.41249999999999 0 -1 0 I I #
plane-surface $-1 150.8125 0 125.41249999999999 0 0 1 -1 0 0 forward_v I I I I #
ellipse-curve $-1 101.60000000000001 -20.637499999999999 125.41249999999997 0 -1 0 -1.4210854715202004e-014 0 -15.874999999999972 1 I I #
point $-1 117.47499999999999 -20.637499999999999 125.41249999999999 #
coedge $-1 $556 $557 $369 $465 forward $558 $-1 #
edge $-1 $468 0 $559 1.5707963267948966 $369 $560 forward 7 unknown #
coedge $-1 $543 $370 $557 $561 forward $448 $-1 #
coedge $-1 $370 $542 $372 $471 reversed $448 $-1 #
vertex $-1 $371 $562 #
straight-curve $-1 -150.8125 0 -125.41249999999999 1 0 0 I I #
coedge $-1 $373 $372 $552 $563 reversed $374 $-1 #
edge $-1 $375 0 $564 22.224999999999998 $372 $565 forward 7 unknown #
point $-1 -150.8125 0 -125.41249999999999 #
vertex $-1 $563 $566 #
straight-curve $-1 -150.8125 0 125.41249999999999 0 -1 0 I I #
ellipse-curve $-1 -101.59999999999999 -20.637499999999999 125.41249999999999 0 -1 0 -15.875 0 0 1 I I #
point $-1 -117.47499999999997 -20.637499999999999 125.41249999999999 #
plane-surface $-1 0 -20.637499999999999 0 0 1 0 1 0 0 forward_v I I I I #
face $-1 $567 $539 $2 $-1 $568 reversed single #
plane-surface $-1 -150.8125 0 -125.41249999999999 0 0 -1 1 0 0 forward_v I I I I #
face $-1 $569 $570 $2 $-1 $571 reversed single #
loop $-1 $-1 $572 $392 #
cone-surface $-1 -123.82499999999999 1.1112499999999998 -103.1875 0 -1 0 -11.112499999999999 0 0 1 I I 0 1 11.112499999999999 forward I I I I #
coedge $-1 $573 $573 $574 $575 reversed $393 $-1 #
point $-1 82.549999999999997 -20.325464930825003 -101.59999999999999 #
coedge $-1 $576 $577 $400 $486 reversed $578 $-1 #
edge $-1 $491 0 $490 3.1415926535897887 $400 $579 forward 7 unknown #
coedge $-1 $580 $401 $577 $581 forward $489 $-1 #
coedge $-1 $401 $580 $576 $582 reversed $489 $-1 #
loop $-1 $-1 $487 $583 #
vertex $-1 $486 $584 #
vertex $-1 $486 $585 #
ellipse-curve $-1 82.549999999999997 0 101.59999999999998 0 -1 0 6.3499999999999943 0 1.4210854715202004e-014 1 I I #
coedge $-1 $586 $403 $406 $499 forward $495 $-1 #
coedge $-1 $403 $586 $405 $498 reversed $495 $-1 #
loop $-1 $-1 $493 $587 #
ellipse-curve $-1 -128.58750000000001 0 103.1875 0 1 0 14.287500000000009 0 0 1 I I #
coedge $-1 $406 $405 $588 $589 forward $407 $-1 #
edge $-1 $409 0 $590 6.3499999999999996 $494 $591 forward 7 unknown #
edge $-1 $408 0 $592 6.3499999999999996 $493 $593 forward 7 unknown #
face $-1 $583 $407 $2 $-1 $594 reversed single #
point $-1 -142.875 0 103.1875 #
point $-1 -114.3 0 103.1875 #
coedge $-1 $412 $411 $595 $596 reversed $413 $-1 #
face $-1 $418 $413 $2 $-1 $597 reversed single #
coedge $-1 $595 $595 $415 $506 reversed $598 $-1 #
edge $-1 $507 0 $509 3.1415926535897913 $505 $599 forward 7 unknown #
vertex $-1 $416 $600 #
straight-curve $-1 114.29999999999998 0 -103.1875 0 -1 0 I I #
vertex $-1 $596 $601 #
straight-curve $-1 142.87499999999997 0 -103.1875 0 -1 0 I I #
face $-1 $602 $603 $2 $-1 $604 reversed single #
cone-surface $-1 128.58749999999998 1.1112499999999998 -103.1875 0 1 0 -14.2875 0 0 1 I I 0 1 14.2875 forward I I I I #
coedge $-1 $423 $423 $421 $514 reversed $516 $-1 #
edge $-1 $427 0 $425 3.1415926535897913 $421 $605 forward 7 unknown #
cone-surface $-1 128.58749999999998 1.1112499999999998 103.1875 0 -1 0 -14.2875 0 0 1 I I 0 1 14.2875 forward I I I I #
loop $-1 $-1 $513 $531 #
ellipse-curve $-1 128.58749999999998 -6.3499999999999996 103.18749999999999 0 1 0 -14.287499999999994 0 1.4210854715202004e-014 1 I I #
point $-1 142.87499999999997 -6.3499999999999996 103.1875 #
point $-1 114.29999999999998 -6.3499999999999996 103.1875 #
face $-1 $606 $607 $2 $-1 $608 reversed single #
loop $-1 $-1 $609 $429 #
cone-surface $-1 128.58749999999998 1.1112499999999998 -103.1875 0 1 0 -11.112499999999999 0 0 1 I I 0 1 11.112499999999999 forward I I I I #
coedge $-1 $610 $431 $435 $529 forward $525 $-1 #
coedge $-1 $431 $610 $434 $528 reversed $525 $-1 #
loop $-1 $-1 $523 $611 #
ellipse-curve $-1 0 -6.3499999999999988 0 0 -1 0 12.699999999999998 0 0 1 I I #
coedge $-1 $435 $434 $612 $613 forward $436 $-1 #
edge $-1 $345 0 $614 15.875 $524 $615 forward 7 unknown #
edge $-1 $347 0 $616 15.875 $523 $617 forward 7 unknown #
face $-1 $611 $436 $2 $-1 $618 reversed single #
face $-1 $422 $619 $2 $-1 $620 reversed single #
loop $-1 $-1 $621 $440 #
cone-surface $-1 128.58749999999998 1.1112499999999998 103.1875 0 -1 0 -11.112499999999999 0 0 1 I I 0 1 11.112499999999999 forward I I I I #
coedge $-1 $622 $623 $624 $625 reversed $441 $-1 #
coedge $-1 $626 $627 $443 $536 reversed $628 $-1 #
edge $-1 $540 0 $559 203.19999999999999 $443 $629 forward 7 unknown #
coedge $-1 $630 $444 $447 $544 forward $539 $-1 #
coedge $-1 $444 $630 $626 $631 reversed $539 $-1 #
loop $-1 $-1 $444 $478 #
vertex $-1 $536 $632 #
ellipse-curve $-1 101.60000000000001 0 -125.41249999999997 0 1 0 -1.4210854715202004e-014 0 15.874999999999972 1 I I #
coedge $-1 $467 $446 $633 $634 reversed $448 $-1 #
coedge $-1 $447 $466 $635 $636 forward $448 $-1 #
edge $-1 $449 0 $637 20.637499999999999 $447 $638 forward 7 unknown #
point $-1 117.47499999999999 0 -125.41249999999999 #
coedge $-1 $457 $633 $451 $547 forward $553 $-1 #
edge $-1 $548 0 $459 250.82499999999999 $546 $639 forward 7 unknown #
vertex $-1 $547 $640 #
straight-curve $-1 150.8125 0 -125.41249999999999 0 -1 0 I I #
plane-surface $-1 150.8125 0 -125.41249999999999 1 0 0 0 0 1 forward_v I I I I #
straight-curve $-1 -117.47499999999997 -20.637499999999999 125.41249999999999 1 0 0 I I #
coedge $-1 $633 $457 $470 $563 forward $553 $-1 #
loop $-1 $641 $457 $569 #
straight-curve $-1 150.8125 -22.224999999999998 125.41249999999999 -1 0 0 I I #
point $-1 150.8125 -22.224999999999998 125.41249999999999 #
coedge $-1 $642 $464 $627 $643 forward $558 $-1 #
coedge $-1 $464 $642 $466 $561 reversed $558 $-1 #
loop $-1 $-1 $464 $644 #
vertex $-1 $465 $645 #
ellipse-curve $-1 -101.59999999999999 0 -125.41249999999999 0 1 0 -15.875 0 0 1 I I #
edge $-1 $468 0 $646 20.637499999999999 $466 $647 forward 7 unknown #
point $-1 -117.47499999999999 0 -125.41249999999999 #
edge $-1 $473 0 $564 250.82499999999999 $552 $648 forward 7 unknown #
vertex $-1 $634 $649 #
straight-curve $-1 -150.8125 0 -125.41249999999999 0 -1 0 I I #
point $-1 -150.8125 -22.224999999999998 125.41249999999999 #
face $-1 $644 $650 $2 $-1 $651 reversed single #
cone-surface $-1 101.59999999999999 0 -125.41249999999999 0 1 0 0 0 15.875 1 I I 0 1 15.875 forward I I I I #
face $-1 $362 $652 $2 $-1 $653 forward single #
loop $-1 $-1 $654 $480 #
cone-surface $-1 -123.82499999999999 1.1112499999999998 -103.1875 0 -1 0 -11.112499999999999 0 0 1 I I 0 1 11.112499999999999 forward I I I I #
coedge $-1 $574 $655 $656 $657 reversed $481 $-1 #
coedge $-1 $483 $483 $658 $659 forward $393 $-1 #
coedge $-1 $660 $572 $483 $575 forward $481 $-1 #
edge $-1 $661 0 $662 3.1415926535897931 $483 $663 forward 7 unknown #
coedge $-1 $664 $485 $488 $582 forward $578 $-1 #
coedge $-1 $485 $664 $487 $581 reversed $578 $-1 #
loop $-1 $-1 $576 $665 #
ellipse-curve $-1 82.549999999999983 0 101.60000000000001 0 -1 0 -6.3499999999999943 0 -1.4210854715202004e-014 1 I I #
coedge $-1 $488 $487 $666 $667 reversed $489 $-1 #
edge $-1 $490 2.2204460492503131e-016 $668 16.509999999999994 $577 $669 forward 7 unknown #
edge $-1 $491 2.2204460492503131e-016 $670 16.510000000000005 $576 $671 forward 7 unknown #
face $-1 $665 $489 $2 $-1 $672 reversed single #
point $-1 88.899999999999991 0 101.59999999999999 #
point $-1 76.199999999999989 0 101.59999999999999 #
coedge $-1 $494 $493 $673 $674 reversed $495 $-1 #
face $-1 $500 $495 $2 $-1 $675 reversed single #
coedge $-1 $673 $673 $497 $589 reversed $676 $-1 #
edge $-1 $590 0 $592 3.1415926535897913 $588 $677 forward 7 unknown #
vertex $-1 $498 $678 #
straight-curve $-1 -114.29999999999998 0 103.1875 0 -1 0 I I #
vertex $-1 $674 $679 #
straight-curve $-1 -142.87499999999997 0 103.1875 0 -1 0 I I #
cone-surface $-1 -128.58749999999998 1.1112499999999998 103.1875 0 1 0 14.2875 0 0 1 I I 0 1 14.2875 forward I I I I #
coedge $-1 $505 $505 $503 $596 forward $598 $-1 #
edge $-1 $507 0 $509 3.1415926535897913 $503 $680 forward 7 unknown #
cone-surface $-1 128.58749999999998 1.1112499999999998 -103.1875 0 1 0 -14.2875 0 0 1 I I 0 1 14.2875 forward I I I I #
loop $-1 $-1 $595 $606 #
ellipse-curve $-1 128.58749999999998 -6.3499999999999996 -103.18749999999999 0 -1 0 -14.287499999999994 0 -1.4210854715202004e-014 1 I I #
point $-1 114.29999999999998 -6.3499999999999996 -103.1875 #
point $-1 142.87499999999997 -6.3499999999999996 -103.1875 #
face $-1 $681 $682 $2 $-1 $683 reversed single #
loop $-1 $-1 $684 $511 #
cone-surface $-1 -128.58749999999998 1.1112499999999998 103.1875 0 1 0 11.112499999999999 0 0 1 I I 0 1 11.112499999999999 forward I I I I #
ellipse-curve $-1 128.58749999999998 -6.3499999999999996 103.18750000000001 0 -1 0 -14.287499999999994 0 -1.4210854715202004e-014 1 I I #
face $-1 $504 $685 $2 $-1 $686 forward single #
loop $-1 $-1 $687 $520 #
cone-surface $-1 128.58749999999998 1.1112499999999998 -103.1875 0 1 0 -11.112499999999999 0 0 1 I I 0 1 11.112499999999999 forward I I I I #
coedge $-1 $688 $689 $690 $691 reversed $521 $-1 #
coedge $-1 $524 $523 $692 $693 forward $525 $-1 #
face $-1 $342 $525 $2 $-1 $694 reversed single #
coedge $-1 $692 $692 $527 $613 reversed $641 $-1 #
edge $-1 $614 0 $616 3.1415926535897931 $612 $695 forward 7 unknown #
vertex $-1 $693 $696 #
straight-curve $-1 -12.699999999999999 -6.3499999999999988 1.5552500693544191e-015 0 -1 0 I I #
vertex $-1 $693 $697 #
straight-curve $-1 12.699999999999999 -6.3499999999999988 0 0 -1 0 I I #
cone-surface $-1 0 0 0 0 -1 0 12.699999999999999 0 0 1 I I 0 1 12.699999999999999 forward I I I I #
loop $-1 $516 $698 $531 #
plane-surface $-1 128.58749999999998 -6.3499999999999996 103.1875 0 -1 0 -1 0 0 forward_v I I I I #
coedge $-1 $699 $700 $701 $702 reversed $532 $-1 #
coedge $-1 $701 $534 $698 $703 forward $441 $-1 #
coedge $-1 $534 $701 $704 $705 forward $441 $-1 #
coedge $-1 $700 $699 $534 $625 forward $532 $-1 #
edge $-1 $706 0 $707 15.874999999999998 $624 $708 forward 7 unknown #
coedge $-1 $709 $535 $538 $631 forward $628 $-1 #
coedge $-1 $535 $709 $556 $643 reversed $628 $-1 #
loop $-1 $-1 $626 $710 #
straight-curve $-1 101.59999999999999 0 -109.53749999999999 -1 0 0 I I #
coedge $-1 $538 $537 $711 $712 reversed $539 $-1 #
edge $-1 $540 0 $713 20.637499999999999 $626 $714 forward 7 unknown #
point $-1 101.59999999999999 0 -109.53749999999999 #
coedge $-1 $546 $552 $542 $634 forward $553 $-1 #
edge $-1 $564 0 $548 301.625 $633 $715 forward 7 unknown #
coedge $-1 $716 $711 $543 $636 reversed $650 $-1 #
edge $-1 $646 0 $637 234.94999999999996 $543 $717 forward 7 unknown #
vertex $-1 $636 $718 #
straight-curve $-1 117.47500000000002 0 -125.41249999999999 0 -1 0 I I #
straight-curve $-1 150.8125 -22.224999999999998 -125.41249999999999 0 0 1 I I #
point $-1 150.8125 -22.224999999999998 -125.41249999999999 #
loop $-1 $719 $612 $569 #
coedge $-1 $557 $556 $716 $720 reversed $558 $-1 #
edge $-1 $559 0 $721 20.637499999999999 $627 $722 forward 7 unknown #
face $-1 $710 $558 $2 $-1 $723 reversed single #
point $-1 -101.59999999999999 0 -109.53749999999999 #
vertex $-1 $636 $724 #
straight-curve $-1 -117.47499999999999 0 -125.41249999999999 0 -1 0 I I #
straight-curve $-1 -150.8125 -22.224999999999998 125.41249999999999 0 0 -1 I I #
point $-1 -150.8125 -22.224999999999998 -125.41249999999999 #
loop $-1 $-1 $716 $567 #
plane-surface $-1 0 -20.637499999999999 0 0 -1 0 1 0 0 forward_v I I I I #
loop $-1 $553 $725 $569 #
plane-surface $-1 0 -22.224999999999998 0 0 -1 0 -1 0 0 forward_v I I I I #
coedge $-1 $658 $726 $660 $727 reversed $570 $-1 #
coedge $-1 $572 $660 $725 $728 forward $481 $-1 #
coedge $-1 $726 $658 $572 $657 forward $570 $-1 #
edge $-1 $661 0 $729 15.874999999999998 $656 $730 forward 7 unknown #
coedge $-1 $656 $654 $573 $659 reversed $570 $-1 #
edge $-1 $661 0 $662 3.1415926535897931 $573 $731 forward 7 unknown #
coedge $-1 $655 $574 $654 $727 forward $481 $-1 #
vertex $-1 $659 $732 #
vertex $-1 $659 $733 #
ellipse-curve $-1 -123.82499999999999 -6.3499999999999996 -103.1875 0 1 0 -11.112500000000011 0 0 1 I I #
coedge $-1 $577 $576 $734 $735 forward $578 $-1 #
face $-1 $736 $578 $2 $-1 $737 reversed single #
coedge $-1 $738 $739 $580 $667 forward $740 $-1 #
edge $-1 $670 0 $668 3.1415926535897976 $580 $741 forward 7 unknown #
vertex $-1 $581 $742 #
straight-curve $-1 88.899999999999991 2.2204460492503131e-016 101.59999999999999 0 -1 0 I I #
vertex $-1 $735 $743 #
straight-curve $-1 76.200000000000003 2.2204460492503131e-016 101.59999999999999 0 -1 0 I I #
cone-surface $-1 82.549999999999997 1.0162732465412503 101.59999999999999 0 -1 0 -6.3499999999999996 0 0 1 I I 0 1 6.3499999999999996 forward I I I I #
coedge $-1 $588 $588 $586 $674 forward $676 $-1 #
edge $-1 $590 0 $592 3.1415926535897913 $586 $744 forward 7 unknown #
cone-surface $-1 -128.58749999999998 1.1112499999999998 103.1875 0 1 0 14.2875 0 0 1 I I 0 1 14.2875 forward I I I I #
loop $-1 $-1 $673 $681 #
ellipse-curve $-1 -128.58749999999998 -6.3499999999999996 103.18749999999999 0 -1 0 14.287499999999994 0 1.4210854715202004e-014 1 I I #
point $-1 -114.29999999999998 -6.3499999999999996 103.1875 #
point $-1 -142.87499999999997 -6.3499999999999996 103.1875 #
ellipse-curve $-1 128.58749999999998 -6.3499999999999996 -103.18750000000001 0 1 0 -14.287499999999994 0 1.4210854715202004e-014 1 I I #
face $-1 $587 $745 $2 $-1 $746 forward single #
loop $-1 $-1 $747 $602 #
cone-surface $-1 -128.58749999999998 1.1112499999999998 103.1875 0 1 0 11.112499999999999 0 0 1 I I 0 1 11.112499999999999 forward I I I I #
coedge $-1 $748 $749 $750 $751 reversed $603 $-1 #
loop $-1 $598 $752 $606 #
plane-surface $-1 128.58749999999998 -6.3499999999999996 -103.1875 0 1 0 -1 0 0 forward_v I I I I #
coedge $-1 $753 $754 $755 $756 reversed $607 $-1 #
coedge $-1 $755 $609 $752 $757 reversed $521 $-1 #
coedge $-1 $609 $755 $758 $759 reversed $521 $-1 #
coedge $-1 $754 $753 $609 $691 forward $607 $-1 #
edge $-1 $760 0 $761 15.874999999999998 $690 $762 forward 7 unknown #
coedge $-1 $612 $612 $610 $693 reversed $641 $-1 #
edge $-1 $616 0 $614 3.1415926535897931 $692 $763 forward 7 unknown #
cone-surface $-1 0 0 0 0 -1 0 12.699999999999999 0 0 1 I I 0 1 12.699999999999999 forward I I I I #
ellipse-curve $-1 0 -22.224999999999998 -1.3322676295501878e-015 0 -1 0 -12.699999999999999 0 1.3322676295501878e-015 1 I I #
point $-1 -12.699999999999999 -22.224999999999998 0 #
point $-1 12.699999999999999 -22.224999999999998 0 #
coedge $-1 $764 $764 $622 $703 reversed $619 $-1 #
coedge $-1 $624 $621 $764 $765 reversed $532 $-1 #
coedge $-1 $621 $624 $766 $767 forward $532 $-1 #
coedge $-1 $623 $622 $621 $702 forward $441 $-1 #
edge $-1 $768 0 $769 15.874999999999998 $621 $770 forward 7 unknown #
edge $-1 $706 0 $768 3.1415926535897931 $698 $771 forward 7 unknown #
coedge $-1 $766 $766 $623 $705 reversed $719 $-1 #
edge $-1 $769 0 $707 3.1415926535897931 $704 $772 forward 7 unknown #
vertex $-1 $765 $773 #
vertex $-1 $767 $774 #
straight-curve $-1 117.47499999999998 -6.3499999999999996 103.1875 0 -1 0 I I #
coedge $-1 $627 $626 $775 $776 forward $628 $-1 #
face $-1 $453 $628 $2 $-1 $777 forward single #
coedge $-1 $635 $775 $630 $712 forward $650 $-1 #
edge $-1 $713 0 $637 1.5707963267948992 $711 $778 forward 7 unknown #
vertex $-1 $712 $779 #
straight-curve $-1 101.59999999999999 0 -109.53749999999999 0 -1 0 I I #
straight-curve $-1 -150.8125 -22.224999999999998 -125.41249999999999 1 0 0 I I #
coedge $-1 $775 $635 $642 $720 forward $650 $-1 #
straight-curve $-1 -117.47499999999999 -20.637499999999999 -125.41249999999999 1 0 0 I I #
point $-1 117.47499999999997 -20.637499999999999 -125.41249999999999 #
loop $-1 $780 $704 $569 #
edge $-1 $646 0 $721 1.5707963267948966 $716 $781 forward 7 unknown #
vertex $-1 $776 $782 #
straight-curve $-1 -101.59999999999999 0 -109.53749999999999 0 -1 0 I I #
cone-surface $-1 -101.59999999999999 0 -125.41249999999999 0 1 0 -15.875 0 0 1 I I 0 1 15.875 forward I I I I #
point $-1 -117.47499999999999 -20.637499999999999 -125.41249999999999 #
coedge $-1 $783 $783 $655 $728 reversed $652 $-1 #
coedge $-1 $654 $656 $783 $784 forward $570 $-1 #
edge $-1 $662 0 $785 15.874999999999998 $654 $786 forward 7 unknown #
edge $-1 $785 0 $729 3.1415926535897931 $725 $787 forward 7 unknown #
vertex $-1 $784 $788 #
straight-curve $-1 -134.9375 -6.3499999999999996 -103.1875 0 -1 0 I I #
ellipse-curve $-1 -123.82499999999999 -6.3499999999999996 -103.1875 0 -1 0 -11.112500000000011 0 0 1 I I #
point $-1 -134.9375 -6.3499999999999996 -103.1875 #
point $-1 -112.71249999999999 -6.3499999999999996 -103.1875 #
coedge $-1 $789 $790 $664 $735 reversed $791 $-1 #
edge $-1 $670 0 $668 3.1415926535897976 $664 $792 forward 7 unknown #
face $-1 $793 $791 $2 $-1 $794 reversed single #
cone-surface $-1 82.549999999999997 1.0162732465412503 101.59999999999999 0 -1 0 -6.3499999999999996 0 0 1 I I 0 1 6.3499999999999996 forward I I I I #
coedge $-1 $739 $666 $790 $795 forward $740 $-1 #
coedge $-1 $666 $738 $789 $796 reversed $740 $-1 #
loop $-1 $-1 $666 $793 #
ellipse-curve $-1 82.549999999999997 -16.510000000000005 101.60000000000001 0 1 0 -6.3500000000000085 0 -1.4210854715202004e-014 1 I I #
point $-1 88.899999999999991 -16.509999999999994 101.59999999999999 #
point $-1 76.199999999999989 -16.510000000000005 101.59999999999999 #
ellipse-curve $-1 -128.58749999999998 -6.3499999999999996 103.18750000000001 0 1 0 14.287499999999994 0 -1.4210854715202004e-014 1 I I #
loop $-1 $676 $797 $681 #
plane-surface $-1 -128.58749999999998 -6.3499999999999996 103.1875 0 1 0 1 0 0 forward_v I I I I #
coedge $-1 $798 $799 $800 $801 reversed $682 $-1 #
coedge $-1 $800 $684 $797 $802 reversed $603 $-1 #
coedge $-1 $684 $800 $803 $804 reversed $603 $-1 #
coedge $-1 $799 $798 $684 $751 forward $682 $-1 #
edge $-1 $805 0 $806 15.874999999999998 $750 $807 forward 7 unknown #
coedge $-1 $808 $808 $688 $757 forward $685 $-1 #
coedge $-1 $690 $687 $808 $809 forward $607 $-1 #
coedge $-1 $687 $690 $810 $811 reversed $607 $-1 #
coedge $-1 $689 $688 $687 $756 forward $521 $-1 #
edge $-1 $812 0 $813 15.874999999999998 $687 $814 forward 7 unknown #
edge $-1 $812 0 $760 3.1415926535897931 $752 $815 forward 7 unknown #
coedge $-1 $810 $810 $689 $759 forward $780 $-1 #
edge $-1 $761 0 $813 3.1415926535897931 $758 $816 forward 7 unknown #
vertex $-1 $809 $817 #
vertex $-1 $811 $818 #
straight-curve $-1 139.69999999999999 -6.3499999999999996 -103.1875 0 -1 0 I I #
ellipse-curve $-1 0 -22.224999999999998 -4.4408920985006262e-016 0 -1 0 12.699999999999999 0 4.4408920985006262e-016 1 I I #
coedge $-1 $698 $698 $699 $765 forward $619 $-1 #
edge $-1 $706 0 $768 3.1415926535897931 $764 $819 forward 7 unknown #
coedge $-1 $704 $704 $700 $767 reversed $719 $-1 #
edge $-1 $707 0 $769 3.1415926535897953 $766 $820 forward 7 unknown #
vertex $-1 $765 $821 #
vertex $-1 $767 $822 #
straight-curve $-1 139.69999999999999 -6.3499999999999996 103.1875 0 -1 0 I I #
ellipse-curve $-1 128.58749999999998 -6.3499999999999996 103.1875 0 1 0 -11.112499999999997 0 0 1 I I #
ellipse-curve $-1 128.58750000000001 -22.224999999999998 103.1875 0 -1 0 11.112499999999983 0 0 1 I I #
point $-1 117.47499999999998 -6.3499999999999996 103.1875 #
point $-1 117.47499999999999 -22.224999999999998 103.1875 #
coedge $-1 $711 $716 $709 $776 reversed $650 $-1 #
edge $-1 $713 0 $721 203.19999999999999 $775 $823 forward 7 unknown #
plane-surface $-1 117.47499999999999 -20.637499999999999 -109.53749999999999 0 0 -1 -1 0 0 forward_v I I I I #
ellipse-curve $-1 101.60000000000001 -20.637499999999999 -125.41249999999997 0 1 0 -1.4210854715202004e-014 0 15.874999999999972 1 I I #
point $-1 101.59999999999999 -20.637499999999999 -109.53749999999999 #
loop $-1 $824 $758 $569 #
ellipse-curve $-1 -101.59999999999999 -20.637499999999999 -125.41249999999999 0 1 0 -15.875 0 0 1 I I #
point $-1 -101.59999999999999 -20.637499999999999 -109.53749999999999 #
coedge $-1 $725 $725 $726 $784 reversed $652 $-1 #
edge $-1 $729 0 $785 3.1415926535897931 $783 $825 forward 7 unknown #
vertex $-1 $784 $826 #
straight-curve $-1 -112.71249999999999 -6.3499999999999996 -103.1875 0 -1 0 I I #
ellipse-curve $-1 -123.825 -22.224999999999998 -103.1875 0 -1 0 11.112500000000011 0 0 1 I I #
point $-1 -134.9375 -22.224999999999998 -103.1875 #
coedge $-1 $790 $734 $739 $796 forward $791 $-1 #
coedge $-1 $734 $789 $738 $795 reversed $791 $-1 #
loop $-1 $-1 $790 $736 #
ellipse-curve $-1 82.549999999999997 -16.510000000000005 101.59999999999998 0 -1 0 -6.3500000000000085 0 1.4210854715202004e-014 1 I I #
face $-1 $-1 $740 $2 $-1 $827 reversed single #
cone-surface $-1 82.549999999999997 -19.325464930825007 101.59999999999999 0 -1 0 -1.6642794823505171 0 0 1 I I -0.85716730070211222 0.51503807491005438 1.6642794823505171 forward I I I I #
edge $-1 $668 6.6917315353915362e-015 $828 7.40812207231735 $790 $829 forward 7 unknown #
edge $-1 $670 0 $828 7.40812207231735 $789 $830 forward 7 unknown #
coedge $-1 $831 $831 $748 $802 forward $745 $-1 #
coedge $-1 $750 $747 $831 $832 forward $682 $-1 #
coedge $-1 $747 $750 $833 $834 reversed $682 $-1 #
coedge $-1 $749 $748 $747 $801 forward $603 $-1 #
edge $-1 $835 0 $836 15.874999999999998 $747 $837 forward 7 unknown #
edge $-1 $835 0 $805 3.1415926535897931 $797 $838 forward 7 unknown #
coedge $-1 $833 $833 $749 $804 forward $824 $-1 #
edge $-1 $806 0 $836 3.1415926535897931 $803 $839 forward 7 unknown #
vertex $-1 $832 $840 #
vertex $-1 $834 $841 #
straight-curve $-1 -139.69999999999999 -6.3499999999999996 103.1875 0 -1 0 I I #
coedge $-1 $752 $752 $753 $809 reversed $685 $-1 #
edge $-1 $812 0 $760 3.1415926535897931 $808 $842 forward 7 unknown #
coedge $-1 $758 $758 $754 $811 forward $780 $-1 #
edge $-1 $813 0 $761 3.1415926535897953 $810 $843 forward 7 unknown #
vertex $-1 $809 $844 #
vertex $-1 $811 $845 #
straight-curve $-1 117.47499999999998 -6.3499999999999996 -103.1875 0 -1 0 I I #
ellipse-curve $-1 128.58749999999998 -6.3499999999999996 -103.1875 0 -1 0 -11.112499999999997 0 0 1 I I #
ellipse-curve $-1 128.58750000000001 -22.224999999999998 -103.1875 0 1 0 11.112499999999983 0 0 1 I I #
point $-1 139.69999999999999 -6.3499999999999996 -103.1875 #
point $-1 139.69999999999999 -22.224999999999998 -103.1875 #
ellipse-curve $-1 128.58749999999998 -6.3499999999999996 103.1875 0 -1 0 -11.112499999999997 0 0 1 I I #
ellipse-curve $-1 128.58749999999998 -22.224999999999998 103.18749999999999 0 -1 0 -11.112499999999983 0 1.4210854715202004e-014 1 I I #
point $-1 139.69999999999999 -6.3499999999999996 103.1875 #
point $-1 139.69999999999999 -22.224999999999998 103.1875 #
straight-curve $-1 101.59999999999999 -20.637499999999999 -109.53749999999999 -1 0 0 I I #
loop $-1 $-1 $803 $569 #
ellipse-curve $-1 -123.82499999999999 -22.224999999999998 -103.1875 0 -1 0 -11.112500000000011 0 0 1 I I #
point $-1 -112.71249999999999 -22.224999999999998 -103.1875 #
cone-surface $-1 82.549999999999997 -19.325464930825007 101.59999999999999 0 -1 0 -1.6642794823505171 0 0 1 I I -0.85716730070211222 0.51503807491005438 1.6642794823505171 forward I I I I #
vertex $-1 $796 $846 #
straight-curve $-1 88.900000000000006 -16.510000000000005 101.59999999999999 -0.85716730070211322 -0.5150380749100526 0 I I #
straight-curve $-1 76.199999999999989 -16.510000000000005 101.59999999999999 0.85716730070211322 -0.5150380749100526 0 I I #
coedge $-1 $797 $797 $798 $832 reversed $745 $-1 #
edge $-1 $835 0 $805 3.1415926535897931 $831 $847 forward 7 unknown #
coedge $-1 $803 $803 $799 $834 forward $824 $-1 #
edge $-1 $836 0 $806 3.1415926535897953 $833 $848 forward 7 unknown #
vertex $-1 $832 $849 #
vertex $-1 $834 $850 #
straight-curve $-1 -117.47499999999998 -6.3499999999999996 103.1875 0 -1 0 I I #
ellipse-curve $-1 -128.58749999999998 -6.3499999999999996 103.1875 0 -1 0 11.112499999999997 0 0 1 I I #
ellipse-curve $-1 -128.58750000000001 -22.224999999999998 103.1875 0 1 0 -11.112499999999983 0 0 1 I I #
point $-1 -139.69999999999999 -6.3499999999999996 103.1875 #
point $-1 -139.69999999999999 -22.224999999999998 103.1875 #
ellipse-curve $-1 128.58749999999998 -6.3499999999999996 -103.1875 0 1 0 -11.112499999999997 0 0 1 I I #
ellipse-curve $-1 128.58749999999998 -22.224999999999998 -103.18749999999999 0 1 0 -11.112499999999983 0 -1.4210854715202004e-014 1 I I #
point $-1 117.47499999999998 -6.3499999999999996 -103.1875 #
point $-1 117.47499999999999 -22.224999999999998 -103.1875 #
point $-1 82.549999999999997 -20.325464930825003 101.59999999999999 #
ellipse-curve $-1 -128.58749999999998 -6.3499999999999996 103.1875 0 1 0 11.112499999999997 0 0 1 I I #
ellipse-curve $-1 -128.58749999999998 -22.224999999999998 103.18749999999999 0 1 0 11.112499999999983 0 1.4210854715202004e-014 1 I I #
point $-1 -117.47499999999998 -6.3499999999999996 103.1875 #
point $-1 -117.47499999999999 -22.224999999999998 103.1875 #
End-of-ACIS-data 