600 0 1 0           
100 GICL Pro/E ACIS Translator - Source: f:/data5/repository/PTC/V18/bboxrev2/boombox/1012top_.prt - 6 0 13 ACIS 6.0.3 NT 24 Thu Apr 04 13:43:05 2002 
1 9.9999999999999995e-007 1e-010 
body $-1 $1 $-1 $-1 #
lump $-1 $-1 $2 $0 #
shell $-1 $-1 $-1 $3 $-1 $1 #
face $-1 $4 $5 $2 $-1 $6 reversed single #
face $-1 $7 $8 $2 $-1 $9 reversed single #
loop $-1 $10 $11 $3 #
plane-surface $-1 0 0 0 0 -1 0 -1 0 0 forward_v I I I I #
face $-1 $12 $13 $2 $-1 $14 reversed single #
loop $-1 $-1 $15 $4 #
cone-surface $-1 -82.549999999999997 1.1112499999999998 -101.59999999999999 0 -1 0 -10.31875 0 0 1 I I 0 1 10.31875 forward I I I I #
loop $-1 $16 $17 $3 #
coedge $-1 $18 $18 $19 $20 forward $5 $-1 #
face $-1 $21 $22 $2 $-1 $23 reversed single #
loop $-1 $-1 $24 $7 #
cone-surface $-1 -82.549999999999997 1.1112499999999998 -101.59999999999999 0 -1 0 -10.31875 0 0 1 I I 0 1 10.31875 forward I I I I #
coedge $-1 $25 $19 $26 $27 forward $8 $-1 #
loop $-1 $28 $29 $3 #
coedge $-1 $30 $30 $31 $32 forward $10 $-1 #
coedge $-1 $11 $11 $33 $34 forward $5 $-1 #
coedge $-1 $15 $35 $11 $20 reversed $8 $-1 #
edge $-1 $36 0 $37 3.1415926535897931 $11 $38 forward 7 unknown #
face $-1 $39 $40 $2 $-1 $41 reversed single #
loop $-1 $42 $43 $12 #
plane-surface $-1 -82.549999999999997 -12.953999999999999 -101.59999999999999 0 -1 0 -1 0 0 forward_v I I I I #
coedge $-1 $44 $33 $35 $45 forward $13 $-1 #
coedge $-1 $35 $15 $46 $47 reversed $8 $-1 #
coedge $-1 $33 $44 $15 $27 reversed $13 $-1 #
edge $-1 $36 0 $48 12.953999999999999 $26 $49 forward 7 unknown #
loop $-1 $50 $51 $3 #
coedge $-1 $52 $52 $53 $54 forward $16 $-1 #
coedge $-1 $17 $17 $55 $56 forward $10 $-1 #
coedge $-1 $57 $58 $17 $32 reversed $59 $-1 #
edge $-1 $60 0 $61 3.1415926535897931 $17 $62 forward 7 unknown #
coedge $-1 $24 $26 $18 $34 reversed $13 $-1 #
edge $-1 $37 0 $36 3.1415926535897931 $18 $63 forward 7 unknown #
coedge $-1 $19 $25 $24 $45 reversed $8 $-1 #
vertex $-1 $34 $64 #
vertex $-1 $34 $65 #
ellipse-curve $-1 -82.549999999999997 0 -101.59999999999999 0 -1 0 10.318750000000009 0 0 1 I I #
face $-1 $66 $67 $2 $-1 $68 reversed single #
loop $-1 $-1 $69 $21 #
cone-surface $-1 -82.549999999999997 -24.096368981380849 -101.59999999999999 0 -1 0 -0.57735026918962629 0 0 1 I I -0.50000000000000033 0.86602540378443849 0.57735026918962629 forward I I I I #
loop $-1 $-1 $70 $12 #
coedge $-1 $71 $71 $69 $72 reversed $22 $-1 #
coedge $-1 $26 $24 $70 $73 forward $13 $-1 #
edge $-1 $37 0 $74 12.953999999999999 $24 $75 forward 7 unknown #
coedge $-1 $70 $70 $25 $47 forward $42 $-1 #
edge $-1 $74 0 $48 3.1415926535897931 $46 $76 forward 7 unknown #
vertex $-1 $27 $77 #
straight-curve $-1 -72.231250000000003 0 -101.59999999999999 0 -1 0 I I #
loop $-1 $78 $79 $3 #
coedge $-1 $80 $81 $82 $83 reversed $28 $-1 #
coedge $-1 $29 $29 $84 $85 forward $16 $-1 #
coedge $-1 $86 $87 $29 $54 reversed $88 $-1 #
edge $-1 $89 0 $90 3.1415926535897931 $29 $91 forward 7 unknown #
coedge $-1 $92 $93 $30 $56 reversed $94 $-1 #
edge $-1 $61 0 $60 3.1415926535897931 $30 $95 forward 7 unknown #
coedge $-1 $96 $31 $93 $97 forward $59 $-1 #
coedge $-1 $31 $96 $92 $98 reversed $59 $-1 #
loop $-1 $-1 $57 $99 #
vertex $-1 $56 $100 #
vertex $-1 $56 $101 #
ellipse-curve $-1 -82.549999999999997 0 101.59999999999999 0 -1 0 10.318750000000009 0 0 1 I I #
ellipse-curve $-1 -82.549999999999983 0 -101.59999999999999 0 -1 0 -10.318750000000009 0 0 1 I I #
point $-1 -72.231249999999989 0 -101.59999999999999 #
point $-1 -92.868749999999991 0 -101.59999999999999 #
face $-1 $102 $103 $2 $-1 $104 reversed single #
loop $-1 $-1 $105 $39 #
cone-surface $-1 -82.549999999999997 -24.096368981380849 -101.59999999999999 0 -1 0 -0.57735026918962629 0 0 1 I I -0.50000000000000033 0.86602540378443849 0.57735026918962629 forward I I I I #
coedge $-1 $106 $107 $43 $72 forward $40 $-1 #
coedge $-1 $46 $46 $44 $73 reversed $42 $-1 #
coedge $-1 $43 $43 $108 $109 forward $22 $-1 #
edge $-1 $110 0 $111 3.1415926535897971 $43 $112 forward 7 unknown #
edge $-1 $74 0 $48 3.1415926535897931 $44 $113 forward 7 unknown #
vertex $-1 $73 $114 #
straight-curve $-1 -92.868749999999991 0 -101.59999999999999 0 -1 0 I I #
ellipse-curve $-1 -82.549999999999997 -12.953999999999999 -101.59999999999999 0 1 0 -10.318749999999994 0 0 1 I I #
point $-1 -72.231250000000003 -12.953999999999999 -101.59999999999999 #
loop $-1 $-1 $115 $3 #
coedge $-1 $116 $116 $117 $118 forward $50 $-1 #
coedge $-1 $119 $51 $120 $121 reversed $28 $-1 #
coedge $-1 $51 $119 $122 $123 reversed $28 $-1 #
coedge $-1 $124 $125 $51 $83 forward $126 $-1 #
edge $-1 $127 0 $128 250.82499999999999 $51 $129 forward 7 unknown #
coedge $-1 $130 $131 $52 $85 reversed $132 $-1 #
edge $-1 $90 0 $89 3.1415926535897931 $52 $133 forward 7 unknown #
coedge $-1 $134 $53 $131 $135 forward $88 $-1 #
coedge $-1 $53 $134 $130 $136 reversed $88 $-1 #
loop $-1 $-1 $86 $137 #
vertex $-1 $85 $138 #
vertex $-1 $85 $139 #
ellipse-curve $-1 82.549999999999983 0 -101.59999999999999 0 -1 0 10.318750000000009 0 0 1 I I #
coedge $-1 $140 $55 $58 $98 forward $94 $-1 #
coedge $-1 $55 $140 $57 $97 reversed $94 $-1 #
loop $-1 $-1 $92 $141 #
ellipse-curve $-1 -82.549999999999983 0 101.59999999999999 0 -1 0 -10.318750000000009 0 0 1 I I #
coedge $-1 $58 $57 $142 $143 reversed $59 $-1 #
edge $-1 $60 0 $144 12.953999999999999 $93 $145 forward 7 unknown #
edge $-1 $61 0 $146 12.953999999999999 $92 $147 forward 7 unknown #
face $-1 $148 $59 $2 $-1 $149 reversed single #
point $-1 -72.231249999999989 0 101.59999999999999 #
point $-1 -92.868749999999991 0 101.59999999999999 #
face $-1 $150 $151 $2 $-1 $152 reversed single #
loop $-1 $-1 $153 $66 #
cone-surface $-1 -82.549999999999997 1.1112499999999998 -101.59999999999999 0 -1 0 -6.7436999999999996 0 0 1 I I 0 1 6.7436999999999996 forward I I I I #
coedge $-1 $154 $155 $156 $157 forward $67 $-1 #
coedge $-1 $158 $69 $154 $159 forward $40 $-1 #
coedge $-1 $69 $158 $155 $160 reversed $40 $-1 #
coedge $-1 $155 $154 $71 $109 reversed $67 $-1 #
edge $-1 $110 0 $111 3.1415926535897971 $71 $161 forward 7 unknown #
vertex $-1 $109 $162 #
vertex $-1 $109 $163 #
ellipse-curve $-1 -82.549999999999997 -12.953999999999999 -101.59999999999998 2.2804991947110497e-015 1 4.6228236240691073e-030 -7.0103999999999616 1.5987211554602254e-014 -1.4210854715202004e-014 1 I I #
ellipse-curve $-1 -82.549999999999997 -12.953999999999999 -101.59999999999999 0 -1 0 -10.318749999999994 0 0 1 I I #
point $-1 -92.868749999999991 -12.953999999999999 -101.59999999999999 #
coedge $-1 $164 $164 $165 $166 forward $78 $-1 #
coedge $-1 $79 $79 $167 $168 forward $50 $-1 #
coedge $-1 $169 $170 $79 $118 reversed $171 $-1 #
edge $-1 $172 0 $173 3.1415926535897931 $79 $174 forward 7 unknown #
coedge $-1 $81 $80 $175 $176 reversed $28 $-1 #
coedge $-1 $177 $178 $80 $121 forward $179 $-1 #
edge $-1 $180 0 $127 301.625 $80 $181 forward 7 unknown #
coedge $-1 $182 $183 $81 $123 forward $184 $-1 #
edge $-1 $128 0 $185 301.625 $81 $186 forward 7 unknown #
coedge $-1 $187 $82 $183 $188 forward $126 $-1 #
coedge $-1 $82 $187 $177 $189 reversed $126 $-1 #
loop $-1 $-1 $124 $190 #
vertex $-1 $121 $191 #
vertex $-1 $123 $192 #
straight-curve $-1 -150.8125 0 125.41249999999999 0 0 -1 I I #
coedge $-1 $193 $84 $87 $136 forward $132 $-1 #
coedge $-1 $84 $193 $86 $135 reversed $132 $-1 #
loop $-1 $-1 $130 $194 #
ellipse-curve $-1 82.549999999999997 0 -101.59999999999999 0 -1 0 -10.318750000000009 0 0 1 I I #
coedge $-1 $87 $86 $195 $196 reversed $88 $-1 #
edge $-1 $89 0 $197 12.953999999999999 $131 $198 forward 7 unknown #
edge $-1 $90 0 $199 12.953999999999999 $130 $200 forward 7 unknown #
face $-1 $201 $88 $2 $-1 $202 reversed single #
point $-1 92.868749999999991 0 -101.59999999999999 #
point $-1 72.231249999999989 0 -101.59999999999999 #
coedge $-1 $93 $92 $203 $204 forward $94 $-1 #
face $-1 $99 $94 $2 $-1 $205 reversed single #
coedge $-1 $203 $203 $96 $143 forward $206 $-1 #
edge $-1 $146 0 $144 3.1415926535897931 $142 $207 forward 7 unknown #
vertex $-1 $97 $208 #
straight-curve $-1 -72.231250000000003 0 101.59999999999999 0 -1 0 I I #
vertex $-1 $204 $209 #
straight-curve $-1 -92.868749999999991 0 101.59999999999999 0 -1 0 I I #
face $-1 $210 $211 $2 $-1 $212 reversed single #
cone-surface $-1 -82.549999999999997 1.1112499999999998 101.59999999999999 0 -1 0 -10.31875 0 0 1 I I 0 1 10.31875 forward I I I I #
face $-1 $213 $214 $2 $-1 $215 forward single #
loop $-1 $-1 $216 $102 #
cone-surface $-1 -82.549999999999997 1.1112499999999998 -101.59999999999999 0 -1 0 -6.7436999999999996 0 0 1 I I 0 1 6.7436999999999996 forward I I I I #
coedge $-1 $156 $217 $218 $219 reversed $103 $-1 #
coedge $-1 $108 $105 $106 $159 reversed $67 $-1 #
coedge $-1 $105 $108 $107 $160 forward $67 $-1 #
coedge $-1 $220 $153 $105 $157 reversed $103 $-1 #
edge $-1 $221 0 $222 3.1415926535897931 $105 $223 forward 7 unknown #
coedge $-1 $107 $106 $224 $225 reversed $40 $-1 #
edge $-1 $111 0 $222 0.53339999999999388 $154 $226 forward 7 unknown #
edge $-1 $110 0 $221 0.53340000000000132 $155 $227 forward 7 unknown #
ellipse-curve $-1 -82.549999999999997 -12.953999999999999 -101.60000000000001 -2.2804991947110497e-015 -1 4.6228236240691073e-030 -7.0103999999999616 1.5987211554602254e-014 1.4210854715202004e-014 1 I I #
point $-1 -89.560399999999959 -12.953999999999983 -101.59999999999999 #
point $-1 -75.539600000000036 -12.953999999999983 -101.59999999999999 #
coedge $-1 $115 $115 $228 $229 forward $78 $-1 #
coedge $-1 $230 $231 $115 $166 reversed $232 $-1 #
edge $-1 $233 0 $234 3.1415926535897931 $115 $235 forward 7 unknown #
coedge $-1 $236 $237 $116 $168 reversed $238 $-1 #
edge $-1 $173 0 $172 3.1415926535897931 $116 $239 forward 7 unknown #
coedge $-1 $240 $117 $237 $241 forward $171 $-1 #
coedge $-1 $117 $240 $236 $242 reversed $171 $-1 #
loop $-1 $-1 $169 $243 #
vertex $-1 $168 $244 #
vertex $-1 $168 $245 #
ellipse-curve $-1 0 0 0 0 -1 0 50.799999999999997 0 0 1 I I #
coedge $-1 $246 $247 $119 $176 forward $248 $-1 #
edge $-1 $185 0 $180 250.82499999999999 $119 $249 forward 7 unknown #
coedge $-1 $250 $120 $125 $189 forward $179 $-1 #
coedge $-1 $120 $250 $246 $251 reversed $179 $-1 #
loop $-1 $-1 $177 $252 #
vertex $-1 $176 $253 #
straight-curve $-1 150.8125 0 125.41249999999999 -1 0 0 I I #
coedge $-1 $254 $122 $247 $255 forward $184 $-1 #
coedge $-1 $122 $254 $124 $188 reversed $184 $-1 #
loop $-1 $-1 $182 $256 #
vertex $-1 $123 $257 #
straight-curve $-1 -150.8125 0 -125.41249999999999 1 0 0 I I #
coedge $-1 $125 $124 $258 $259 reversed $126 $-1 #
edge $-1 $128 0 $260 22.224999999999998 $183 $261 forward 7 unknown #
edge $-1 $127 0 $262 22.224999999999998 $177 $263 forward 7 unknown #
face $-1 $256 $126 $2 $-1 $264 forward single #
point $-1 -150.8125 0 125.41249999999999 #
point $-1 -150.8125 0 -125.41249999999999 #
coedge $-1 $131 $130 $265 $266 forward $132 $-1 #
face $-1 $137 $132 $2 $-1 $267 reversed single #
coedge $-1 $265 $265 $134 $196 forward $268 $-1 #
edge $-1 $199 0 $197 3.1415926535897931 $195 $269 forward 7 unknown #
vertex $-1 $135 $270 #
straight-curve $-1 92.868749999999991 0 -101.59999999999999 0 -1 0 I I #
vertex $-1 $266 $271 #
straight-curve $-1 72.231250000000003 0 -101.59999999999999 0 -1 0 I I #
face $-1 $252 $248 $2 $-1 $272 forward single #
cone-surface $-1 82.549999999999997 1.1112499999999998 -101.59999999999999 0 -1 0 -10.31875 0 0 1 I I 0 1 10.31875 forward I I I I #
coedge $-1 $142 $142 $140 $204 reversed $206 $-1 #
edge $-1 $146 0 $144 3.1415926535897931 $140 $273 forward 7 unknown #
cone-surface $-1 -82.549999999999997 1.1112499999999998 101.59999999999999 0 -1 0 -10.31875 0 0 1 I I 0 1 10.31875 forward I I I I #
loop $-1 $-1 $203 $274 #
ellipse-curve $-1 -82.549999999999997 -12.953999999999999 101.59999999999999 0 1 0 -10.318749999999994 0 0 1 I I #
point $-1 -72.231250000000003 -12.953999999999999 101.59999999999999 #
point $-1 -92.868749999999991 -12.953999999999999 101.59999999999999 #
face $-1 $275 $276 $2 $-1 $277 reversed single #
loop $-1 $-1 $278 $148 #
cone-surface $-1 82.549999999999997 1.1112499999999998 -101.59999999999999 0 -1 0 -6.7436999999999996 0 0 1 I I 0 1 6.7436999999999996 forward I I I I #
face $-1 $279 $280 $2 $-1 $281 reversed single #
loop $-1 $282 $283 $150 #
plane-surface $-1 0 -22.224999999999998 0 0 -1 0 -1 0 0 forward_v I I I I #
coedge $-1 $224 $284 $220 $285 reversed $151 $-1 #
coedge $-1 $153 $220 $286 $287 forward $103 $-1 #
coedge $-1 $284 $224 $153 $219 forward $151 $-1 #
edge $-1 $222 0 $288 8.8090620496213781 $153 $289 forward 7 unknown #
coedge $-1 $217 $156 $216 $285 forward $103 $-1 #
vertex $-1 $160 $290 #
vertex $-1 $159 $291 #
ellipse-curve $-1 -82.549999999999997 -13.41593795037862 -101.59999999999999 0 -1 0 -6.743700000000004 0 0 1 I I #
coedge $-1 $218 $216 $158 $225 forward $151 $-1 #
edge $-1 $221 0 $222 3.1415926535897931 $158 $292 forward 7 unknown #
straight-curve $-1 -75.539600000000036 -12.953999999999983 -101.59999999999999 -0.49999999999999917 -0.86602540378443926 0 I I #
straight-curve $-1 -89.560399999999959 -12.953999999999983 -101.59999999999999 0.49999999999999917 -0.86602540378443926 0 I I #
coedge $-1 $293 $294 $164 $229 reversed $295 $-1 #
edge $-1 $234 0 $233 3.1415926535897931 $164 $296 forward 7 unknown #
coedge $-1 $297 $165 $294 $298 forward $232 $-1 #
coedge $-1 $165 $297 $293 $299 reversed $232 $-1 #
loop $-1 $-1 $230 $300 #
vertex $-1 $229 $301 #
vertex $-1 $229 $302 #
ellipse-curve $-1 82.549999999999983 0 101.59999999999999 0 -1 0 10.318750000000009 0 0 1 I I #
coedge $-1 $303 $167 $170 $242 forward $238 $-1 #
coedge $-1 $167 $303 $169 $241 reversed $238 $-1 #
loop $-1 $-1 $236 $304 #
ellipse-curve $-1 0 0 0 0 -1 0 -50.799999999999997 0 0 1 I I #
coedge $-1 $170 $169 $305 $306 reversed $171 $-1 #
edge $-1 $172 5.5511151231257827e-017 $307 5.5575199999999993 $237 $308 forward 7 unknown #
edge $-1 $173 5.5511151231257827e-017 $309 5.5575199999999993 $236 $310 forward 7 unknown #
face $-1 $311 $171 $2 $-1 $312 reversed single #
point $-1 50.799999999999997 0 0 #
point $-1 -50.799999999999997 0 0 #
coedge $-1 $313 $175 $178 $251 forward $248 $-1 #
coedge $-1 $175 $313 $182 $255 reversed $248 $-1 #
loop $-1 $-1 $246 $201 #
straight-curve $-1 150.8125 0 -125.41249999999999 0 0 1 I I #
coedge $-1 $178 $177 $314 $315 reversed $179 $-1 #
edge $-1 $180 0 $316 22.224999999999998 $246 $317 forward 7 unknown #
face $-1 $190 $179 $2 $-1 $318 forward single #
point $-1 150.8125 0 125.41249999999999 #
coedge $-1 $183 $182 $319 $320 reversed $184 $-1 #
edge $-1 $185 0 $321 22.224999999999998 $182 $322 forward 7 unknown #
face $-1 $323 $184 $2 $-1 $324 forward single #
point $-1 150.8125 0 -125.41249999999999 #
coedge $-1 $319 $314 $187 $259 forward $325 $-1 #
edge $-1 $262 0 $260 250.82499999999999 $258 $326 forward 7 unknown #
vertex $-1 $320 $327 #
straight-curve $-1 -150.8125 0 -125.41249999999999 0 -1 0 I I #
vertex $-1 $259 $328 #
straight-curve $-1 -150.8125 0 125.41249999999999 0 -1 0 I I #
plane-surface $-1 -150.8125 0 125.41249999999999 -1 0 0 0 0 -1 forward_v I I I I #
coedge $-1 $195 $195 $193 $266 reversed $268 $-1 #
edge $-1 $199 0 $197 3.1415926535897931 $193 $329 forward 7 unknown #
cone-surface $-1 82.549999999999997 1.1112499999999998 -101.59999999999999 0 -1 0 -10.31875 0 0 1 I I 0 1 10.31875 forward I I I I #
loop $-1 $-1 $265 $330 #
ellipse-curve $-1 82.549999999999997 -12.953999999999999 -101.59999999999999 0 1 0 -10.318749999999994 0 0 1 I I #
point $-1 92.868749999999991 -12.953999999999999 -101.59999999999999 #
point $-1 72.231250000000003 -12.953999999999999 -101.59999999999999 #
plane-surface $-1 150.8125 0 -125.41249999999999 1 0 0 0 0 1 forward_v I I I I #
ellipse-curve $-1 -82.549999999999997 -12.953999999999999 101.59999999999999 0 -1 0 -10.318749999999994 0 0 1 I I #
face $-1 $141 $331 $2 $-1 $332 reversed single #
face $-1 $333 $334 $2 $-1 $335 reversed single #
loop $-1 $-1 $336 $210 #
cone-surface $-1 82.549999999999997 1.1112499999999998 -101.59999999999999 0 -1 0 -6.7436999999999996 0 0 1 I I 0 1 6.7436999999999996 forward I I I I #
coedge $-1 $337 $338 $339 $340 reversed $211 $-1 #
face $-1 $341 $342 $2 $-1 $343 reversed single #
loop $-1 $-1 $344 $213 #
cone-surface $-1 -82.549999999999997 1.1112499999999998 101.59999999999999 0 -1 0 -6.7436999999999996 0 0 1 I I 0 1 6.7436999999999996 forward I I I I #
loop $-1 $345 $346 $150 #
coedge $-1 $286 $286 $284 $347 reversed $214 $-1 #
coedge $-1 $216 $218 $283 $347 forward $151 $-1 #
edge $-1 $221 -1.5987211554602254e-014 $348 8.8090620496213781 $220 $349 forward 7 unknown #
coedge $-1 $283 $283 $217 $287 reversed $214 $-1 #
edge $-1 $348 0 $288 3.1415926535897891 $286 $350 forward 7 unknown #
vertex $-1 $287 $351 #
straight-curve $-1 -75.806299999999993 -13.41593795037862 -101.59999999999999 0 -1 0 I I #
point $-1 -89.293699999999959 -13.415937950378604 -101.59999999999999 #
point $-1 -75.806299999999993 -13.41593795037862 -101.59999999999999 #
ellipse-curve $-1 -82.549999999999997 -13.41593795037862 -101.59999999999999 0 1 0 -6.743700000000004 0 0 1 I I #
coedge $-1 $352 $228 $231 $299 forward $295 $-1 #
coedge $-1 $228 $352 $230 $298 reversed $295 $-1 #
loop $-1 $-1 $293 $353 #
ellipse-curve $-1 82.549999999999997 0 101.59999999999999 0 -1 0 -10.318750000000009 0 0 1 I I #
coedge $-1 $231 $230 $354 $355 reversed $232 $-1 #
edge $-1 $233 0 $356 12.953999999999999 $294 $357 forward 7 unknown #
edge $-1 $234 0 $358 12.953999999999999 $293 $359 forward 7 unknown #
face $-1 $-1 $232 $2 $-1 $360 reversed single #
point $-1 92.868749999999991 0 101.59999999999999 #
point $-1 72.231249999999989 0 101.59999999999999 #
coedge $-1 $237 $236 $361 $362 forward $238 $-1 #
face $-1 $243 $238 $2 $-1 $363 reversed single #
coedge $-1 $361 $361 $240 $306 forward $364 $-1 #
edge $-1 $309 0 $307 3.1415926535897931 $305 $365 forward 7 unknown #
vertex $-1 $241 $366 #
straight-curve $-1 50.799999999999997 5.5511151231257827e-017 6.2210002774176763e-015 0 -1 0 I I #
vertex $-1 $362 $367 #
straight-curve $-1 -50.799999999999997 5.5511151231257827e-017 0 0 -1 0 I I #
face $-1 $368 $369 $2 $-1 $370 reversed single #
cone-surface $-1 0 0.27787600000000001 0 0 -1 0 -50.799999999999997 0 0 1 I I 0 1 50.799999999999997 forward I I I I #
coedge $-1 $247 $246 $371 $372 reversed $248 $-1 #
coedge $-1 $258 $371 $250 $315 forward $325 $-1 #
edge $-1 $316 0 $262 301.625 $314 $373 forward 7 unknown #
vertex $-1 $315 $374 #
straight-curve $-1 150.8125 0 125.41249999999999 0 -1 0 I I #
plane-surface $-1 150.8125 0 125.41249999999999 0 0 1 -1 0 0 forward_v I I I I #
coedge $-1 $371 $258 $254 $320 forward $325 $-1 #
edge $-1 $260 0 $321 301.625 $319 $375 forward 7 unknown #
vertex $-1 $320 $376 #
straight-curve $-1 150.8125 0 -125.41249999999999 0 -1 0 I I #
face $-1 $377 $378 $2 $-1 $379 reversed single #
plane-surface $-1 -150.8125 0 -125.41249999999999 0 0 -1 1 0 0 forward_v I I I I #
loop $-1 $380 $371 $150 #
straight-curve $-1 -150.8125 -22.224999999999998 125.41249999999999 0 0 -1 I I #
point $-1 -150.8125 -22.224999999999998 -125.41249999999999 #
point $-1 -150.8125 -22.224999999999998 125.41249999999999 #
ellipse-curve $-1 82.549999999999997 -12.953999999999999 -101.59999999999999 0 -1 0 -10.318749999999994 0 0 1 I I #
face $-1 $194 $381 $2 $-1 $382 reversed single #
loop $-1 $206 $383 $274 #
plane-surface $-1 -82.549999999999997 -12.953999999999999 101.59999999999999 0 -1 0 -1 0 0 forward_v I I I I #
face $-1 $330 $384 $2 $-1 $385 reversed single #
loop $-1 $-1 $386 $275 #
cone-surface $-1 82.549999999999997 -24.096368981380849 -101.59999999999999 0 -1 0 -0.57735026918962629 0 0 1 I I -0.50000000000000033 0.86602540378443849 0.57735026918962629 forward I I I I #
coedge $-1 $387 $388 $389 $390 reversed $276 $-1 #
coedge $-1 $389 $278 $391 $392 forward $211 $-1 #
coedge $-1 $278 $389 $393 $394 forward $211 $-1 #
coedge $-1 $388 $387 $278 $340 forward $276 $-1 #
edge $-1 $395 -1.5987211554602254e-014 $396 8.8090620496213781 $339 $397 forward 7 unknown #
face $-1 $398 $399 $2 $-1 $400 reversed single #
loop $-1 $-1 $401 $279 #
cone-surface $-1 -82.549999999999997 1.1112499999999998 101.59999999999999 0 -1 0 -6.7436999999999996 0 0 1 I I 0 1 6.7436999999999996 forward I I I I #
coedge $-1 $402 $403 $404 $405 reversed $280 $-1 #
loop $-1 $325 $393 $150 #
coedge $-1 $406 $406 $403 $407 reversed $282 $-1 #
edge $-1 $288 0 $348 3.1415926535897891 $283 $408 forward 7 unknown #
vertex $-1 $287 $409 #
straight-curve $-1 -89.293700000000001 -13.41593795037862 -101.59999999999999 0 -1 0 I I #
ellipse-curve $-1 -82.549999999999997 -22.224999999999998 -101.59999999999998 0 -1 0 -6.743700000000004 0 -1.4210854715202004e-014 1 I I #
point $-1 -75.806299999999993 -22.224999999999998 -101.59999999999999 #
coedge $-1 $294 $293 $410 $411 forward $295 $-1 #
face $-1 $300 $295 $2 $-1 $412 reversed single #
coedge $-1 $410 $410 $297 $355 forward $413 $-1 #
edge $-1 $358 0 $356 3.1415926535897931 $354 $414 forward 7 unknown #
vertex $-1 $298 $415 #
straight-curve $-1 92.868749999999991 0 101.59999999999999 0 -1 0 I I #
vertex $-1 $411 $416 #
straight-curve $-1 72.231250000000003 0 101.59999999999999 0 -1 0 I I #
cone-surface $-1 82.549999999999997 1.1112499999999998 101.59999999999999 0 -1 0 -10.31875 0 0 1 I I 0 1 10.31875 forward I I I I #
coedge $-1 $305 $305 $303 $362 reversed $364 $-1 #
edge $-1 $309 0 $307 3.1415926535897931 $303 $417 forward 7 unknown #
cone-surface $-1 0 0.27787600000000001 0 0 -1 0 -50.799999999999997 0 0 1 I I 0 1 50.799999999999997 forward I I I I #
loop $-1 $418 $361 $419 #
ellipse-curve $-1 -1.7763568394002505e-015 -5.5575199999999993 0 0 1 0 -50.799999999999997 0 0 1 I I #
point $-1 50.799999999999997 -5.5575199999999993 0 #
point $-1 -50.799999999999997 -5.5575199999999993 0 #
face $-1 $420 $421 $2 $-1 $422 reversed single #
loop $-1 $-1 $423 $311 #
cone-surface $-1 42.07002 -21.145628350950791 0 0 1 0 3.96875 0 0 1 I I 0 1 3.96875 forward I I I I #
coedge $-1 $314 $319 $313 $372 forward $325 $-1 #
edge $-1 $321 0 $316 250.82499999999999 $371 $424 forward 7 unknown #
straight-curve $-1 150.8125 -22.224999999999998 125.41249999999999 -1 0 0 I I #
point $-1 150.8125 -22.224999999999998 125.41249999999999 #
straight-curve $-1 -150.8125 -22.224999999999998 -125.41249999999999 1 0 0 I I #
point $-1 150.8125 -22.224999999999998 -125.41249999999999 #
face $-1 $419 $425 $2 $-1 $426 reversed single #
loop $-1 $-1 $427 $323 #
cone-surface $-1 0 -5.5575199999999993 0 0 -1 0 25.399999999999999 0 0 1 I I 0 1 25.399999999999999 forward I I I I #
loop $-1 $428 $429 $150 #
loop $-1 $268 $430 $330 #
plane-surface $-1 82.549999999999997 -12.953999999999999 -101.59999999999999 0 -1 0 -1 0 0 forward_v I I I I #
coedge $-1 $431 $431 $432 $433 reversed $331 $-1 #
loop $-1 $-1 $434 $333 #
cone-surface $-1 82.549999999999997 -24.096368981380849 -101.59999999999999 0 -1 0 -0.57735026918962629 0 0 1 I I -0.50000000000000033 0.86602540378443849 0.57735026918962629 forward I I I I #
coedge $-1 $435 $436 $387 $437 forward $334 $-1 #
coedge $-1 $339 $336 $386 $437 reversed $276 $-1 #
coedge $-1 $336 $339 $438 $439 forward $276 $-1 #
coedge $-1 $338 $337 $336 $390 forward $211 $-1 #
edge $-1 $440 0 $441 8.8090620496213781 $336 $442 forward 7 unknown #
coedge $-1 $443 $444 $337 $392 reversed $384 $-1 #
edge $-1 $395 0 $440 3.1415926535897931 $391 $445 forward 7 unknown #
coedge $-1 $438 $438 $338 $394 reversed $345 $-1 #
edge $-1 $441 0 $396 3.1415926535897891 $393 $446 forward 7 unknown #
vertex $-1 $447 $448 #
vertex $-1 $439 $449 #
straight-curve $-1 75.806299999999993 -13.41593795037862 -101.59999999999999 0 -1 0 I I #
face $-1 $274 $450 $2 $-1 $451 reversed single #
loop $-1 $-1 $452 $341 #
cone-surface $-1 -82.549999999999997 -24.096368981380849 101.59999999999999 0 -1 0 -0.57735026918962629 0 0 1 I I -0.50000000000000033 0.86602540378443849 0.57735026918962629 forward I I I I #
coedge $-1 $453 $454 $455 $456 reversed $342 $-1 #
coedge $-1 $455 $344 $457 $458 forward $280 $-1 #
coedge $-1 $344 $455 $346 $407 forward $280 $-1 #
coedge $-1 $454 $453 $344 $405 forward $342 $-1 #
edge $-1 $459 -1.5987211554602254e-014 $460 8.8090620496213781 $404 $461 forward 7 unknown #
coedge $-1 $346 $346 $454 $462 reversed $282 $-1 #
edge $-1 $463 0 $460 3.1415926535897891 $346 $464 forward 7 unknown #
ellipse-curve $-1 -82.549999999999997 -22.224999999999998 -101.60000000000001 0 -1 0 6.743700000000004 0 1.4210854715202004e-014 1 I I #
point $-1 -89.293700000000001 -22.224999999999998 -101.59999999999999 #
coedge $-1 $354 $354 $352 $411 reversed $413 $-1 #
edge $-1 $358 0 $356 3.1415926535897931 $352 $465 forward 7 unknown #
cone-surface $-1 82.549999999999997 1.1112499999999998 101.59999999999999 0 -1 0 -10.31875 0 0 1 I I 0 1 10.31875 forward I I I I #
loop $-1 $-1 $410 $466 #
ellipse-curve $-1 82.549999999999997 -12.953999999999999 101.59999999999999 0 1 0 -10.318749999999994 0 0 1 I I #
point $-1 92.868749999999991 -12.953999999999999 101.59999999999999 #
point $-1 72.231250000000003 -12.953999999999999 101.59999999999999 #
ellipse-curve $-1 -1.7763568394002505e-015 -5.5575199999999993 0 0 -1 0 -50.799999999999997 0 0 1 I I #
loop $-1 $467 $468 $419 #
face $-1 $469 $470 $2 $-1 $471 reversed single #
face $-1 $472 $473 $2 $-1 $474 forward single #
loop $-1 $-1 $475 $368 #
cone-surface $-1 42.07002 -21.145628350950791 0 0 1 0 3.96875 0 0 1 I I 0 1 3.96875 forward I I I I #
coedge $-1 $476 $477 $478 $479 reversed $369 $-1 #
straight-curve $-1 150.8125 -22.224999999999998 -125.41249999999999 0 0 1 I I #
loop $-1 $-1 $480 $377 #
cone-surface $-1 0 -5.5575199999999993 0 0 -1 0 25.399999999999999 0 0 1 I I 0 1 25.399999999999999 forward I I I I #
coedge $-1 $481 $482 $483 $484 reversed $378 $-1 #
loop $-1 $-1 $485 $150 #
coedge $-1 $486 $486 $482 $487 reversed $380 $-1 #
coedge $-1 $488 $488 $434 $489 reversed $381 $-1 #
coedge $-1 $383 $383 $490 $491 forward $331 $-1 #
coedge $-1 $492 $493 $383 $433 forward $450 $-1 #
edge $-1 $494 0 $495 3.1415926535897971 $383 $496 forward 7 unknown #
coedge $-1 $444 $443 $430 $489 forward $384 $-1 #
coedge $-1 $497 $386 $444 $498 reversed $334 $-1 #
coedge $-1 $386 $497 $443 $447 forward $334 $-1 #
edge $-1 $395 0 $440 3.1415926535897931 $386 $499 forward 7 unknown #
coedge $-1 $393 $393 $388 $439 reversed $345 $-1 #
edge $-1 $396 0 $441 3.1415926535897891 $438 $500 forward 7 unknown #
vertex $-1 $498 $501 #
vertex $-1 $439 $502 #
straight-curve $-1 89.293700000000001 -13.41593795037862 -101.59999999999999 0 -1 0 I I #
coedge $-1 $434 $391 $436 $447 reversed $384 $-1 #
coedge $-1 $391 $434 $435 $498 forward $384 $-1 #
ellipse-curve $-1 82.549999999999997 -13.41593795037862 -101.59999999999999 0 1 0 -6.743700000000004 0 0 1 I I #
ellipse-curve $-1 82.549999999999997 -22.224999999999998 -101.60000000000001 0 -1 0 6.743700000000004 0 1.4210854715202004e-014 1 I I #
edge $-1 $503 0 $395 0.53340000000000132 $436 $504 forward 7 unknown #
point $-1 75.806300000000036 -13.415937950378604 -101.59999999999999 #
point $-1 75.806299999999993 -22.224999999999998 -101.59999999999999 #
loop $-1 $-1 $432 $398 #
cone-surface $-1 -82.549999999999997 -24.096368981380849 101.59999999999999 0 -1 0 -0.57735026918962629 0 0 1 I I -0.50000000000000033 0.86602540378443849 0.57735026918962629 forward I I I I #
coedge $-1 $505 $506 $453 $507 forward $399 $-1 #
coedge $-1 $404 $401 $452 $507 reversed $342 $-1 #
coedge $-1 $401 $404 $406 $462 forward $342 $-1 #
coedge $-1 $403 $402 $401 $456 forward $280 $-1 #
edge $-1 $508 0 $463 8.8090620496213781 $401 $509 forward 7 unknown #
coedge $-1 $493 $492 $402 $458 reversed $450 $-1 #
edge $-1 $459 0 $508 3.1415926535897931 $457 $510 forward 7 unknown #
vertex $-1 $511 $512 #
vertex $-1 $462 $513 #
straight-curve $-1 -89.293700000000001 -13.41593795037862 101.59999999999999 0 -1 0 I I #
edge $-1 $460 0 $463 3.1415926535897891 $406 $514 forward 7 unknown #
vertex $-1 $462 $515 #
ellipse-curve $-1 -82.549999999999997 -22.224999999999998 101.59999999999998 0 -1 0 6.743700000000004 0 1.4210854715202004e-014 1 I I #
ellipse-curve $-1 82.549999999999997 -12.953999999999999 101.59999999999999 0 -1 0 -10.318749999999994 0 0 1 I I #
face $-1 $353 $516 $2 $-1 $517 reversed single #
loop $-1 $-1 $518 $419 #
coedge $-1 $519 $519 $481 $520 forward $418 $-1 #
face $-1 $521 $522 $2 $-1 $523 reversed single #
loop $-1 $364 $524 $419 #
plane-surface $-1 0 -5.5575199999999993 0 0 -1 0 -1 0 0 forward_v I I I I #
face $-1 $525 $526 $2 $-1 $527 reversed single #
loop $-1 $528 $529 $420 #
plane-surface $-1 42.07002 -17.465040000000005 0 0 1 0 1 0 0 forward_v I I I I #
coedge $-1 $530 $531 $532 $533 reversed $421 $-1 #
coedge $-1 $532 $423 $529 $534 forward $369 $-1 #
coedge $-1 $423 $532 $518 $535 forward $369 $-1 #
coedge $-1 $531 $530 $423 $479 forward $421 $-1 #
edge $-1 $536 0 $537 11.907520000000005 $478 $538 forward 7 unknown #
coedge $-1 $539 $540 $541 $542 reversed $425 $-1 #
coedge $-1 $541 $427 $468 $520 reversed $378 $-1 #
coedge $-1 $427 $541 $429 $487 forward $378 $-1 #
coedge $-1 $540 $539 $427 $484 forward $425 $-1 #
edge $-1 $543 0 $544 16.667479999999998 $483 $545 forward 7 unknown #
coedge $-1 $546 $546 $547 $548 reversed $428 $-1 #
coedge $-1 $429 $429 $540 $549 reversed $380 $-1 #
edge $-1 $550 0 $544 3.1415926535897931 $429 $551 forward 7 unknown #
coedge $-1 $430 $430 $497 $552 forward $381 $-1 #
edge $-1 $503 0 $553 3.1415926535897971 $430 $554 forward 7 unknown #
coedge $-1 $506 $505 $431 $491 reversed $399 $-1 #
edge $-1 $494 0 $495 3.1415926535897971 $431 $555 forward 7 unknown #
coedge $-1 $457 $432 $505 $556 forward $450 $-1 #
coedge $-1 $432 $457 $506 $511 reversed $450 $-1 #
vertex $-1 $491 $557 #
vertex $-1 $491 $558 #
ellipse-curve $-1 -82.549999999999997 -12.953999999999999 101.60000000000001 2.2804991947110497e-015 1 4.6228236240691073e-030 -7.0103999999999616 1.5987211554602254e-014 -1.4210854715202004e-014 1 I I #
coedge $-1 $436 $435 $488 $552 reversed $334 $-1 #
edge $-1 $553 0 $440 0.53339999999999388 $435 $559 forward 7 unknown #
ellipse-curve $-1 82.549999999999997 -13.41593795037862 -101.59999999999999 0 -1 0 -6.743700000000004 0 0 1 I I #
ellipse-curve $-1 82.549999999999997 -22.224999999999998 -101.59999999999998 0 -1 0 -6.743700000000004 0 -1.4210854715202004e-014 1 I I #
point $-1 89.293700000000001 -13.41593795037862 -101.59999999999999 #
point $-1 89.293700000000001 -22.224999999999998 -101.59999999999999 #
vertex $-1 $552 $560 #
straight-curve $-1 75.539600000000036 -12.953999999999983 -101.59999999999999 0.49999999999999917 -0.86602540378443926 0 I I #
coedge $-1 $490 $452 $492 $556 reversed $399 $-1 #
coedge $-1 $452 $490 $493 $511 forward $399 $-1 #
edge $-1 $459 0 $508 3.1415926535897931 $452 $561 forward 7 unknown #
vertex $-1 $556 $562 #
straight-curve $-1 -75.806299999999993 -13.41593795037862 101.59999999999999 0 -1 0 I I #
ellipse-curve $-1 -82.549999999999997 -13.41593795037862 101.59999999999999 0 1 0 -6.743700000000004 0 0 1 I I #
edge $-1 $494 0 $459 0.53340000000000132 $506 $563 forward 7 unknown #
point $-1 -89.293699999999959 -13.415937950378604 101.59999999999999 #
point $-1 -89.293700000000001 -22.224999999999998 101.59999999999999 #
ellipse-curve $-1 -82.549999999999997 -22.224999999999998 101.60000000000001 0 -1 0 -6.743700000000004 0 -1.4210854715202004e-014 1 I I #
point $-1 -75.806299999999993 -22.224999999999998 101.59999999999999 #
loop $-1 $413 $564 $466 #
plane-surface $-1 82.549999999999997 -12.953999999999999 101.59999999999999 0 -1 0 -1 0 0 forward_v I I I I #
coedge $-1 $565 $565 $477 $535 reversed $467 $-1 #
coedge $-1 $468 $468 $539 $566 forward $418 $-1 #
edge $-1 $567 0 $543 3.1415926535897931 $468 $568 forward 7 unknown #
face $-1 $569 $570 $2 $-1 $571 reversed single #
loop $-1 $-1 $572 $469 #
cone-surface $-1 -42.07002 -21.145628350950791 0 0 1 0 -3.96875 0 0 1 I I 0 1 3.96875 forward I I I I #
coedge $-1 $573 $573 $574 $575 reversed $470 $-1 #
face $-1 $576 $577 $2 $-1 $578 reversed single #
loop $-1 $-1 $579 $472 #
cone-surface $-1 42.07002 -21.145628350950791 0 0 1 0 3.5712400000000031 0 0 1 I I 0 1 3.5712400000000031 forward I I I I #
loop $-1 $-1 $580 $420 #
coedge $-1 $581 $581 $476 $534 reversed $473 $-1 #
coedge $-1 $478 $475 $581 $582 reversed $421 $-1 #
coedge $-1 $475 $478 $565 $583 forward $421 $-1 #
coedge $-1 $477 $476 $475 $533 forward $369 $-1 #
edge $-1 $584 0 $585 11.907520000000005 $475 $586 forward 7 unknown #
edge $-1 $536 0 $584 3.1415926535897931 $529 $587 forward 7 unknown #
edge $-1 $585 0 $537 3.1415926535897931 $518 $588 forward 7 unknown #
vertex $-1 $582 $589 #
vertex $-1 $583 $590 #
straight-curve $-1 46.03877 -17.465040000000005 0 0 1 0 I I #
coedge $-1 $483 $480 $519 $566 reversed $425 $-1 #
coedge $-1 $480 $483 $486 $549 forward $425 $-1 #
coedge $-1 $482 $481 $480 $542 forward $378 $-1 #
edge $-1 $567 2.1050587455618996e-030 $550 16.667479999999998 $480 $591 forward 7 unknown #
vertex $-1 $566 $592 #
vertex $-1 $549 $593 #
straight-curve $-1 25.399999999999999 -5.5575199999999993 0 0 -1 0 I I #
coedge $-1 $485 $485 $594 $595 reversed $428 $-1 #
coedge $-1 $596 $597 $485 $548 forward $598 $-1 #
edge $-1 $599 0 $600 3.1415926535897891 $485 $601 forward 7 unknown #
edge $-1 $544 0 $550 3.1415926535897931 $486 $602 forward 7 unknown #
vertex $-1 $549 $603 #
ellipse-curve $-1 0 -22.224999999999998 2.6645352591003757e-015 0 -1 0 -25.399999999999999 0 -8.3044682241961627e-015 1 I I #
edge $-1 $503 0 $553 3.1415926535897971 $488 $604 forward 7 unknown #
vertex $-1 $552 $605 #
ellipse-curve $-1 82.549999999999997 -12.953999999999999 -101.59999999999998 2.2804991947110497e-015 1 4.6228236240691073e-030 -7.0103999999999616 1.5987211554602254e-014 -1.4210854715202004e-014 1 I I #
ellipse-curve $-1 -82.549999999999997 -12.953999999999999 101.59999999999998 -2.2804991947110497e-015 -1 4.6228236240691073e-030 -7.0103999999999616 1.5987211554602254e-014 1.4210854715202004e-014 1 I I #
edge $-1 $495 0 $508 0.53339999999999388 $505 $606 forward 7 unknown #
point $-1 -89.560399999999959 -12.953999999999983 101.59999999999999 #
point $-1 -75.539600000000036 -12.953999999999983 101.59999999999999 #
straight-curve $-1 89.560399999999959 -12.953999999999983 -101.59999999999999 -0.49999999999999917 -0.86602540378443926 0 I I #
point $-1 75.539600000000036 -12.953999999999983 -101.59999999999999 #
ellipse-curve $-1 -82.549999999999997 -13.41593795037862 101.59999999999999 0 -1 0 -6.743700000000004 0 0 1 I I #
point $-1 -75.806299999999993 -13.41593795037862 101.59999999999999 #
straight-curve $-1 -89.560399999999959 -12.953999999999983 101.59999999999999 0.49999999999999917 -0.86602540378443926 0 I I #
coedge $-1 $607 $607 $608 $609 reversed $516 $-1 #
coedge $-1 $518 $518 $531 $583 reversed $467 $-1 #
edge $-1 $543 0 $567 3.1415926535897931 $519 $610 forward 7 unknown #
vertex $-1 $566 $611 #
ellipse-curve $-1 0 -5.5575199999999993 0 0 -1 0 -25.399999999999999 0 0 1 I I #
face $-1 $612 $613 $2 $-1 $614 forward single #
loop $-1 $-1 $615 $521 #
cone-surface $-1 -42.07002 -21.145628350950791 0 0 1 0 -3.96875 0 0 1 I I 0 1 3.96875 forward I I I I #
coedge $-1 $616 $574 $617 $618 reversed $522 $-1 #
coedge $-1 $524 $524 $619 $620 reversed $470 $-1 #
coedge $-1 $572 $621 $524 $575 forward $522 $-1 #
edge $-1 $622 0 $623 3.1415926535897931 $524 $624 forward 7 unknown #
face $-1 $625 $626 $2 $-1 $627 reversed single #
loop $-1 $-1 $628 $525 #
cone-surface $-1 42.07002 -21.145628350950791 0 0 1 0 3.5712400000000031 0 0 1 I I 0 1 3.5712400000000031 forward I I I I #
coedge $-1 $629 $630 $580 $631 forward $526 $-1 #
coedge $-1 $632 $632 $579 $631 reversed $528 $-1 #
coedge $-1 $529 $529 $530 $582 forward $473 $-1 #
edge $-1 $536 0 $584 3.1415926535897931 $581 $633 forward 7 unknown #
edge $-1 $537 0 $585 3.1415926535897931 $565 $634 forward 7 unknown #
vertex $-1 $582 $635 #
vertex $-1 $583 $636 #
straight-curve $-1 38.10127 -17.465040000000005 4.8601564667325597e-016 0 1 0 I I #
ellipse-curve $-1 42.07002 -17.465040000000005 0 0 -1 0 3.96875 0 0 1 I I #
ellipse-curve $-1 42.07002 -5.5575199999999993 0 0 1 0 -3.96875 0 0 1 I I #
point $-1 46.03877 -17.465040000000005 0 #
point $-1 46.03877 -5.5575199999999993 0 #
straight-curve $-1 -25.399999999999999 -5.5575199999999993 3.1105001387088382e-015 0 -1 -6.7675892997571282e-016 I I #
point $-1 25.399999999999999 -5.5575199999999993 0 #
point $-1 25.399999999999999 -22.224999999999998 1.1279865930191479e-014 #
coedge $-1 $637 $638 $546 $595 forward $639 $-1 #
edge $-1 $600 0 $599 3.1415926535897891 $546 $640 forward 7 unknown #
coedge $-1 $641 $547 $638 $642 reversed $598 $-1 #
coedge $-1 $547 $641 $637 $643 forward $598 $-1 #
loop $-1 $-1 $596 $644 #
vertex $-1 $595 $645 #
vertex $-1 $595 $646 #
ellipse-curve $-1 82.549999999999997 -22.224999999999998 101.59999999999998 0 -1 0 6.743700000000004 0 1.4210854715202004e-014 1 I I #
ellipse-curve $-1 0 -22.224999999999998 0 0 -1 0 25.399999999999999 0 1.1279865930191479e-014 1 I I #
point $-1 -25.399999999999999 -22.224999999999998 -5.6399329650957862e-015 #
ellipse-curve $-1 82.549999999999997 -12.953999999999999 -101.60000000000001 -2.2804991947110497e-015 -1 4.6228236240691073e-030 -7.0103999999999616 1.5987211554602254e-014 1.4210854715202004e-014 1 I I #
point $-1 89.560399999999959 -12.953999999999983 -101.59999999999999 #
straight-curve $-1 -75.539600000000036 -12.953999999999983 101.59999999999999 -0.49999999999999917 -0.86602540378443926 0 I I #
coedge $-1 $564 $564 $647 $648 forward $516 $-1 #
coedge $-1 $649 $650 $564 $609 forward $651 $-1 #
edge $-1 $652 0 $653 3.1415926535897971 $564 $654 forward 7 unknown #
ellipse-curve $-1 0 -5.5575199999999993 0 0 -1 0 25.399999999999999 0 0 1 I I #
point $-1 -25.399999999999999 -5.5575199999999993 0 #
face $-1 $655 $656 $2 $-1 $657 reversed single #
loop $-1 $658 $659 $569 #
plane-surface $-1 -42.07002 -17.465040000000005 0 0 1 0 -1 0 0 forward_v I I I I #
coedge $-1 $660 $619 $621 $661 reversed $570 $-1 #
coedge $-1 $621 $572 $659 $662 forward $522 $-1 #
coedge $-1 $619 $660 $572 $618 forward $570 $-1 #
edge $-1 $663 0 $623 11.907520000000005 $617 $664 forward 7 unknown #
coedge $-1 $615 $617 $573 $620 forward $570 $-1 #
edge $-1 $623 0 $622 3.1415926535897931 $573 $665 forward 7 unknown #
coedge $-1 $574 $616 $615 $661 forward $522 $-1 #
vertex $-1 $620 $666 #
vertex $-1 $620 $667 #
ellipse-curve $-1 -42.07002 -5.5575199999999993 0 0 1 0 3.96875 0 0 1 I I #
face $-1 $644 $668 $2 $-1 $669 reversed single #
loop $-1 $-1 $670 $576 #
cone-surface $-1 42.07002 -19.403337477095992 0 0 -1 0 1.6642794823505167 0 0 1 I I -0.85716730070211211 0.51503807491005449 1.6642794823505167 forward I I I I #
coedge $-1 $671 $672 $673 $674 forward $577 $-1 #
coedge $-1 $675 $579 $671 $676 reversed $526 $-1 #
coedge $-1 $579 $675 $672 $677 forward $526 $-1 #
edge $-1 $678 0 $679 3.1415926535897931 $579 $680 forward 7 unknown #
coedge $-1 $580 $580 $681 $682 forward $528 $-1 #
ellipse-curve $-1 42.07002 -17.465040000000005 0 0 1 0 3.96875 0 0 1 I I #
ellipse-curve $-1 42.07002 -5.5575199999999993 0 0 1 0 3.96875 0 0 1 I I #
point $-1 38.10127 -17.465040000000005 -4.8601564667325597e-016 #
point $-1 38.10127 -5.5575199999999993 0 #
coedge $-1 $683 $594 $597 $643 reversed $639 $-1 #
coedge $-1 $594 $683 $596 $642 forward $639 $-1 #
loop $-1 $-1 $637 $684 #
ellipse-curve $-1 82.549999999999997 -22.224999999999998 101.60000000000001 0 -1 0 -6.743700000000004 0 -1.4210854715202004e-014 1 I I #
coedge $-1 $597 $596 $685 $686 forward $598 $-1 #
edge $-1 $687 -1.5987211554602254e-014 $600 8.8090620496213781 $638 $688 forward 7 unknown #
edge $-1 $689 0 $599 8.8090620496213781 $637 $690 forward 7 unknown #
face $-1 $684 $598 $2 $-1 $691 reversed single #
point $-1 89.293700000000001 -22.224999999999998 101.59999999999999 #
point $-1 75.806299999999993 -22.224999999999998 101.59999999999999 #
coedge $-1 $692 $693 $607 $648 reversed $694 $-1 #
edge $-1 $652 0 $653 3.1415926535897971 $607 $695 forward 7 unknown #
coedge $-1 $685 $608 $693 $696 forward $651 $-1 #
coedge $-1 $608 $685 $692 $697 reversed $651 $-1 #
loop $-1 $-1 $608 $698 #
vertex $-1 $648 $699 #
vertex $-1 $648 $700 #
ellipse-curve $-1 82.549999999999997 -12.953999999999999 101.60000000000001 2.2804991947110497e-015 1 4.6228236240691073e-030 -7.0103999999999616 1.5987211554602254e-014 -1.4210854715202004e-014 1 I I #
face $-1 $701 $702 $2 $-1 $703 reversed single #
loop $-1 $-1 $704 $612 #
cone-surface $-1 -42.07002 -21.145628350950791 0 0 1 0 -3.5712400000000031 0 0 1 I I 0 1 3.5712400000000031 forward I I I I #
loop $-1 $-1 $705 $569 #
coedge $-1 $706 $706 $616 $662 reversed $613 $-1 #
coedge $-1 $617 $615 $706 $707 reversed $570 $-1 #
edge $-1 $708 0 $622 11.907520000000005 $615 $709 forward 7 unknown #
edge $-1 $663 0 $708 3.1415926535897931 $659 $710 forward 7 unknown #
vertex $-1 $707 $711 #
straight-curve $-1 -46.03877 -17.465040000000005 0 0 1 0 I I #
ellipse-curve $-1 -42.07002 -5.5575199999999993 0 0 1 0 -3.96875 0 0 1 I I #
point $-1 -38.10127 -5.5575199999999993 0 #
point $-1 -46.03877 -5.5575199999999993 0 #
loop $-1 $-1 $712 $625 #
cone-surface $-1 42.07002 -19.403337477095992 0 0 -1 0 1.6642794823505167 0 0 1 I I -0.85716730070211211 0.51503807491005449 1.6642794823505167 forward I I I I #
coedge $-1 $673 $713 $714 $715 forward $626 $-1 #
coedge $-1 $681 $628 $629 $676 forward $577 $-1 #
coedge $-1 $628 $681 $630 $677 reversed $577 $-1 #
coedge $-1 $713 $670 $628 $674 reversed $626 $-1 #
edge $-1 $716 0 $717 3.1415926535897931 $673 $718 forward 7 unknown #
coedge $-1 $630 $629 $712 $719 reversed $526 $-1 #
edge $-1 $717 0 $679 0.79247999999999763 $629 $720 forward 7 unknown #
edge $-1 $716 0 $678 0.79247999999999763 $630 $721 forward 7 unknown #
vertex $-1 $677 $722 #
vertex $-1 $676 $723 #
ellipse-curve $-1 42.07002 -17.465040000000005 0 0 1 0 3.5712400000000031 0 0 1 I I #
coedge $-1 $672 $671 $632 $682 reversed $577 $-1 #
edge $-1 $678 0 $679 3.1415926535897931 $632 $724 forward 7 unknown #
coedge $-1 $638 $637 $725 $726 reversed $639 $-1 #
face $-1 $727 $639 $2 $-1 $728 reversed single #
coedge $-1 $650 $649 $641 $686 reversed $651 $-1 #
edge $-1 $687 0 $689 3.1415926535897931 $685 $729 forward 7 unknown #
vertex $-1 $697 $730 #
straight-curve $-1 75.806299999999993 -13.41593795037862 101.59999999999999 0 -1 0 I I #
vertex $-1 $696 $731 #
straight-curve $-1 89.293700000000001 -13.41593795037862 101.59999999999999 0 -1 0 I I #
cone-surface $-1 82.549999999999997 1.1112499999999998 101.59999999999999 0 -1 0 -6.7436999999999996 0 0 1 I I 0 1 6.7436999999999996 forward I I I I #
coedge $-1 $725 $647 $650 $697 forward $694 $-1 #
coedge $-1 $647 $725 $649 $696 reversed $694 $-1 #
loop $-1 $-1 $725 $727 #
ellipse-curve $-1 82.549999999999997 -12.953999999999999 101.59999999999998 -2.2804991947110497e-015 -1 4.6228236240691073e-030 -7.0103999999999616 1.5987211554602254e-014 1.4210854715202004e-014 1 I I #
edge $-1 $653 0 $689 0.53339999999999388 $693 $732 forward 7 unknown #
edge $-1 $652 0 $687 0.53340000000000132 $692 $733 forward 7 unknown #
face $-1 $466 $651 $2 $-1 $734 reversed single #
point $-1 75.539600000000036 -12.953999999999983 101.59999999999999 #
point $-1 89.560399999999959 -12.953999999999983 101.59999999999999 #
face $-1 $735 $736 $2 $-1 $737 reversed single #
loop $-1 $-1 $738 $655 #
cone-surface $-1 -42.07002 -21.145628350950791 0 0 1 0 -3.5712400000000031 0 0 1 I I 0 1 3.5712400000000031 forward I I I I #
coedge $-1 $739 $740 $705 $741 forward $656 $-1 #
coedge $-1 $742 $742 $704 $741 reversed $658 $-1 #
coedge $-1 $659 $659 $660 $707 forward $613 $-1 #
edge $-1 $663 0 $708 3.1415926535897931 $706 $743 forward 7 unknown #
vertex $-1 $707 $744 #
straight-curve $-1 -38.10127 -17.465040000000005 -4.8601564667325597e-016 0 1 0 I I #
ellipse-curve $-1 -42.07002 -17.465040000000005 0 0 -1 0 -3.96875 0 0 1 I I #
point $-1 -46.03877 -17.465040000000005 0 #
coedge $-1 $714 $745 $675 $719 forward $668 $-1 #
coedge $-1 $670 $673 $745 $746 reversed $626 $-1 #
coedge $-1 $745 $712 $670 $715 reversed $668 $-1 #
edge $-1 $747 1.0350767421042472e-047 $717 4.1663278534712829 $714 $748 forward 7 unknown #
vertex $-1 $746 $749 #
vertex $-1 $715 $750 #
ellipse-curve $-1 42.07002 -18.257520000000003 -3.3306690738754696e-016 0 -1 0 3.5712400000000031 0 3.3306690738754696e-016 1 I I #
edge $-1 $716 0 $717 3.1415926535897931 $712 $751 forward 7 unknown #
straight-curve $-1 38.498779999999996 -18.257520000000003 4.3733631950246306e-016 0 1 0 I I #
straight-curve $-1 45.641260000000003 -18.257520000000003 0 0 1 0 I I #
point $-1 45.641260000000003 -17.465040000000005 0 #
point $-1 38.498779999999996 -17.465040000000005 0 #
ellipse-curve $-1 42.07002 -17.465040000000005 0 0 -1 0 3.5712400000000031 0 0 1 I I #
coedge $-1 $693 $692 $683 $726 forward $694 $-1 #
edge $-1 $687 0 $689 3.1415926535897931 $725 $752 forward 7 unknown #
face $-1 $698 $694 $2 $-1 $753 reversed single #
cone-surface $-1 82.549999999999997 1.1112499999999998 101.59999999999999 0 -1 0 -6.7436999999999996 0 0 1 I I 0 1 6.7436999999999996 forward I I I I #
ellipse-curve $-1 82.549999999999997 -13.41593795037862 101.59999999999999 0 1 0 -6.743700000000004 0 0 1 I I #
point $-1 75.806300000000036 -13.415937950378604 101.59999999999999 #
point $-1 89.293700000000001 -13.41593795037862 101.59999999999999 #
straight-curve $-1 89.560399999999959 -12.953999999999983 101.59999999999999 -0.49999999999999917 -0.86602540378443926 0 I I #
straight-curve $-1 75.539600000000036 -12.953999999999983 101.59999999999999 0.49999999999999917 -0.86602540378443926 0 I I #
cone-surface $-1 82.549999999999997 -24.096368981380849 101.59999999999999 0 -1 0 -0.57735026918962629 0 0 1 I I -0.50000000000000033 0.86602540378443849 0.57735026918962629 forward I I I I #
face $-1 $304 $754 $2 $-1 $755 reversed single #
loop $-1 $-1 $756 $701 #
cone-surface $-1 -42.07002 -19.403337477095992 0 0 -1 0 -1.6642794823505167 0 0 1 I I -0.85716730070211211 0.51503807491005449 1.6642794823505167 forward I I I I #
coedge $-1 $757 $758 $759 $760 forward $702 $-1 #
coedge $-1 $761 $704 $757 $762 reversed $656 $-1 #
coedge $-1 $704 $761 $758 $763 forward $656 $-1 #
edge $-1 $764 0 $765 3.1415926535897931 $704 $766 forward 7 unknown #
coedge $-1 $705 $705 $767 $768 forward $658 $-1 #
ellipse-curve $-1 -42.07002 -17.465040000000005 0 0 1 0 -3.96875 0 0 1 I I #
point $-1 -38.10127 -17.465040000000005 4.8601564667325597e-016 #
coedge $-1 $712 $714 $713 $746 forward $668 $-1 #
edge $-1 $747 0 $716 4.1663278534712829 $745 $769 forward 7 unknown #
vertex $-1 $746 $770 #
straight-curve $-1 42.07002 -20.403337477095992 -9.8607613152626476e-032 -0.857167300702112 0.51503807491005449 1.0496925227285831e-016 I I #
point $-1 45.641260000000003 -18.257520000000003 0 #
point $-1 38.498779999999996 -18.257520000000003 4.3733631950246306e-016 #
ellipse-curve $-1 42.07002 -18.257520000000003 3.3306690738754696e-016 0 1 0 3.5712400000000031 0 -3.3306690738754696e-016 1 I I #
ellipse-curve $-1 82.549999999999997 -13.41593795037862 101.59999999999999 0 -1 0 -6.743700000000004 0 0 1 I I #
cone-surface $-1 82.549999999999997 -24.096368981380849 101.59999999999999 0 -1 0 -0.57735026918962629 0 0 1 I I -0.50000000000000033 0.86602540378443849 0.57735026918962629 forward I I I I #
loop $-1 $-1 $771 $735 #
cone-surface $-1 -42.07002 -19.403337477095992 0 0 -1 0 -1.6642794823505167 0 0 1 I I -0.85716730070211211 0.51503807491005449 1.6642794823505167 forward I I I I #
coedge $-1 $759 $772 $773 $774 forward $736 $-1 #
coedge $-1 $767 $738 $739 $762 forward $702 $-1 #
coedge $-1 $738 $767 $740 $763 reversed $702 $-1 #
coedge $-1 $772 $756 $738 $760 reversed $736 $-1 #
edge $-1 $775 0 $776 3.1415926535897931 $759 $777 forward 7 unknown #
coedge $-1 $740 $739 $771 $778 reversed $656 $-1 #
edge $-1 $776 0 $765 0.79247999999999763 $739 $779 forward 7 unknown #
edge $-1 $775 0 $764 0.79247999999999763 $740 $780 forward 7 unknown #
vertex $-1 $763 $781 #
vertex $-1 $762 $782 #
ellipse-curve $-1 -42.07002 -17.465040000000005 0 0 1 0 -3.5712400000000031 0 0 1 I I #
coedge $-1 $758 $757 $742 $768 reversed $702 $-1 #
edge $-1 $764 0 $765 3.1415926535897931 $742 $783 forward 7 unknown #
straight-curve $-1 42.07002 -20.403337477095992 0 0.857167300702112 0.51503807491005449 0 I I #
point $-1 42.07002 -20.403337477095992 0 #
coedge $-1 $773 $784 $761 $778 forward $754 $-1 #
coedge $-1 $756 $759 $784 $785 reversed $736 $-1 #
coedge $-1 $784 $771 $756 $774 reversed $754 $-1 #
edge $-1 $786 1.0350767421042472e-047 $776 4.1663278534712829 $773 $787 forward 7 unknown #
vertex $-1 $785 $788 #
vertex $-1 $774 $789 #
ellipse-curve $-1 -42.07002 -18.257520000000003 3.3306690738754696e-016 0 -1 0 -3.5712400000000031 0 -3.3306690738754696e-016 1 I I #
edge $-1 $775 0 $776 3.1415926535897931 $771 $790 forward 7 unknown #
straight-curve $-1 -38.498779999999996 -18.257520000000003 -4.3733631950246306e-016 0 1 0 I I #
straight-curve $-1 -45.641260000000003 -18.257520000000003 0 0 1 0 I I #
point $-1 -45.641260000000003 -17.465040000000005 0 #
point $-1 -38.498779999999996 -17.465040000000005 0 #
ellipse-curve $-1 -42.07002 -17.465040000000005 0 0 -1 0 -3.5712400000000031 0 0 1 I I #
coedge $-1 $771 $773 $772 $785 forward $754 $-1 #
edge $-1 $786 0 $775 4.1663278534712829 $784 $791 forward 7 unknown #
vertex $-1 $785 $792 #
straight-curve $-1 -42.07002 -20.403337477095992 9.8607613152626476e-032 0.857167300702112 0.51503807491005449 -1.0496925227285831e-016 I I #
point $-1 -45.641260000000003 -18.257520000000003 0 #
point $-1 -38.498779999999996 -18.257520000000003 -4.3733631950246306e-016 #
ellipse-curve $-1 -42.07002 -18.257520000000003 -3.3306690738754696e-016 0 1 0 -3.5712400000000031 0 3.3306690738754696e-016 1 I I #
straight-curve $-1 -42.07002 -20.403337477095992 0 -0.857167300702112 0.51503807491005449 0 I I #
point $-1 -42.07002 -20.403337477095992 0 #
End-of-ACIS-data 