600 0 1 0           
103 GICL Pro/E ACIS Translator - Source: f:/data5/repository/PTC/V18/bboxrev2/boombox/antenna.prt.2.2 - 6 0 13 ACIS 6.0.3 NT 24 Thu Apr 04 13:41:41 2002 
1 9.9999999999999995e-007 1e-010 
body $-1 $1 $-1 $-1 #
lump $-1 $-1 $2 $0 #
shell $-1 $-1 $-1 $3 $-1 $1 #
face $-1 $4 $5 $2 $-1 $6 forward single #
face $-1 $7 $8 $2 $-1 $9 forward single #
loop $-1 $-1 $10 $3 #
plane-surface $-1 0 -20 0 0 -1 0 -1 0 0 forward_v I I I I #
face $-1 $11 $12 $2 $-1 $13 forward single #
loop $-1 $-1 $14 $4 #
cone-surface $-1 0 0 0 0 -1 0 -5 0 0 1 I I 0 1 5 forward I I I I #
coedge $-1 $15 $15 $16 $17 forward $5 $-1 #
face $-1 $18 $19 $2 $-1 $20 forward single #
loop $-1 $-1 $21 $7 #
sphere-surface $-1 0 3.96 0 5 1 0 0 0 0 1 forward_v I I I I #
coedge $-1 $22 $23 $24 $25 forward $8 $-1 #
coedge $-1 $10 $10 $26 $27 forward $5 $-1 #
coedge $-1 $28 $22 $10 $17 reversed $8 $-1 #
edge $-1 $29 0 $30 3.1415926535897931 $10 $31 forward 7 unknown #
face $-1 $32 $33 $2 $-1 $34 reversed single #
loop $-1 $-1 $35 $11 #
cone-surface $-1 0 0 0 0 -1 0 -5 0 0 1 I I 0 1 5 forward I I I I #
coedge $-1 $24 $36 $37 $38 forward $12 $-1 #
coedge $-1 $16 $14 $39 $40 forward $8 $-1 #
coedge $-1 $14 $41 $42 $43 reversed $8 $-1 #
coedge $-1 $36 $21 $14 $25 reversed $12 $-1 #
edge $-1 $44 -1.4210854715202002e-016 $45 0.9920199639443259 $14 $46 forward 7 unknown #
coedge $-1 $39 $47 $15 $27 reversed $19 $-1 #
edge $-1 $30 0 $29 3.1415926535897931 $15 $48 forward 7 unknown #
coedge $-1 $49 $16 $47 $50 forward $8 $-1 #
vertex $-1 $27 $51 #
vertex $-1 $27 $52 #
ellipse-curve $-1 0 -20 0 0 -1 0 5 0 0 1 I I #
face $-1 $53 $54 $2 $-1 $55 reversed single #
loop $-1 $-1 $56 $18 #
plane-surface $-1 -2.7349999999999999 8.1456630299153314 6 -1 0 0 0 -1 0 forward_v I I I I #
coedge $-1 $57 $58 $59 $60 forward $19 $-1 #
coedge $-1 $21 $24 $61 $62 forward $12 $-1 #
coedge $-1 $58 $39 $21 $38 reversed $19 $-1 #
edge $-1 $63 -7.105427357601002e-017 $45 0.9920199639443259 $37 $64 forward 7 unknown #
coedge $-1 $37 $26 $22 $40 reversed $19 $-1 #
edge $-1 $45 0 $30 23.960000000000001 $39 $65 forward 7 unknown #
coedge $-1 $23 $66 $67 $68 reversed $8 $-1 #
coedge $-1 $69 $61 $23 $43 forward $70 $-1 #
edge $-1 $44 0 $71 3.8313744291578242 $23 $72 forward 7 unknown #
vertex $-1 $43 $73 #
vertex $-1 $38 $74 #
ellipse-curve $-1 0 3.96 0 0 -1 0 -2.7350000000000003 0 4.1856630299153323 1 I I #
coedge $-1 $26 $75 $28 $50 reversed $19 $-1 #
ellipse-curve $-1 0 -20 0 0 -1 0 -5 0 0 1 I I #
coedge $-1 $76 $28 $77 $78 forward $8 $-1 #
edge $-1 $29 0 $79 23.960000000000001 $47 $80 forward 7 unknown #
point $-1 5 -20 0 #
point $-1 -5 -20 0 #
face $-1 $81 $82 $2 $-1 $83 reversed single #
loop $-1 $-1 $84 $32 #
plane-surface $-1 -2.7349999999999999 0 6 0 -1 0 1 0 0 forward_v I I I I #
coedge $-1 $59 $85 $86 $87 forward $33 $-1 #
coedge $-1 $88 $35 $89 $90 forward $19 $-1 #
coedge $-1 $35 $37 $91 $92 forward $19 $-1 #
coedge $-1 $85 $56 $35 $60 reversed $33 $-1 #
edge $-1 $93 0 $94 2.3076607491196022 $35 $95 forward 7 unknown #
coedge $-1 $42 $91 $36 $62 reversed $70 $-1 #
edge $-1 $44 -2.7585401341624928e-015 $63 3.1415926535897931 $36 $96 forward 7 unknown #
vertex $-1 $92 $97 #
ellipse-curve $-1 0 3.96 0 0 1 0 -2.7350000000000003 0 -4.1856630299153323 1 I I #
straight-curve $-1 -5 3.96 0 0 -1 0 I I #
coedge $-1 $41 $98 $99 $100 forward $8 $-1 #
coedge $-1 $101 $102 $41 $68 forward $103 $-1 #
edge $-1 $71 0 $104 0.12862557084216419 $41 $105 forward 7 unknown #
coedge $-1 $106 $42 $107 $108 reversed $70 $-1 #
loop $-1 $-1 $109 $110 #
vertex $-1 $43 $111 #
straight-curve $-1 -2.7349999999999999 3.9599999999999884 4.1856630299153332 0 -1 -2.3181718104626908e-016 I I #
point $-1 -2.7349999999999999 3.9599999999999884 4.1856630299153332 #
point $-1 -5 3.96 0 #
coedge $-1 $47 $112 $113 $114 reversed $19 $-1 #
coedge $-1 $98 $49 $115 $116 forward $8 $-1 #
coedge $-1 $113 $117 $49 $78 reversed $118 $-1 #
edge $-1 $79 -2.4492127076447545e-016 $119 0.99201996394432568 $49 $120 forward 7 unknown #
vertex $-1 $50 $121 #
straight-curve $-1 5 -20 -6.1230317691118863e-016 0 1 0 I I #
face $-1 $110 $122 $2 $-1 $123 forward single #
loop $-1 $-1 $124 $53 #
plane-surface $-1 2.7349999999999999 0 6 1 0 0 0 1 0 forward_v I I I I #
coedge $-1 $89 $125 $126 $127 forward $54 $-1 #
coedge $-1 $56 $59 $128 $129 reversed $33 $-1 #
coedge $-1 $125 $89 $56 $87 reversed $54 $-1 #
edge $-1 $130 0 $94 2.0482814542485084 $56 $131 forward 7 unknown #
coedge $-1 $112 $57 $124 $132 reversed $19 $-1 #
coedge $-1 $86 $84 $57 $90 reversed $54 $-1 #
edge $-1 $94 0 $133 1.1575527257011413 $57 $134 forward 7 unknown #
coedge $-1 $61 $135 $58 $92 reversed $70 $-1 #
edge $-1 $63 0 $93 1.6523392508803987 $58 $136 forward 7 unknown #
vertex $-1 $92 $137 #
vertex $-1 $90 $138 #
straight-curve $-1 -2.7349999999999999 2.3076607491196022 -4.1856630299153323 1.9244128930974256e-016 -1 0 I I #
ellipse-curve $-1 -2.7349999999999999 3.9600000000000009 0 -1 2.2513442815932619e-032 -1.060976974677882e-016 -4.4408920985006262e-016 -8.8817841970012523e-016 4.1856630299153323 1 I I #
point $-1 -2.7349999999999999 3.9600000000000009 -4.1856630299153323 #
coedge $-1 $66 $76 $139 $140 forward $8 $-1 #
coedge $-1 $141 $142 $66 $100 reversed $143 $-1 #
edge $-1 $144 0 $104 1.1575527257011413 $66 $145 forward 7 unknown #
coedge $-1 $102 $67 $142 $146 forward $103 $-1 #
coedge $-1 $67 $101 $147 $148 reversed $103 $-1 #
loop $-1 $-1 $67 $149 #
vertex $-1 $68 $150 #
straight-curve $-1 -2.7349999999999999 0.12862557084216419 4.1856630299153323 1.3810293145987349e-014 -1 6.9051465729936747e-015 I I #
coedge $-1 $109 $69 $151 $152 reversed $70 $-1 #
coedge $-1 $147 $153 $69 $108 forward $154 $-1 #
edge $-1 $155 1.7879276285636341e-015 $71 1.9432377842257491 $69 $156 forward 7 unknown #
coedge $-1 $135 $106 $157 $158 reversed $70 $-1 #
face $-1 $159 $70 $2 $-1 $160 forward single #
point $-1 -2.7349999999999999 0.12862557084216419 4.1856630299153323 #
coedge $-1 $75 $88 $161 $162 reversed $19 $-1 #
coedge $-1 $117 $77 $75 $114 forward $118 $-1 #
edge $-1 $79 2.4492127076447545e-016 $163 0.99201996394432612 $75 $164 forward 7 unknown #
coedge $-1 $165 $166 $76 $116 reversed $167 $-1 #
edge $-1 $119 3.9968028886505635e-015 $168 3.8313744291578402 $76 $169 forward 7 unknown #
coedge $-1 $77 $113 $165 $170 forward $118 $-1 #
loop $-1 $-1 $77 $171 #
vertex $-1 $116 $172 #
ellipse-curve $-1 0 3.96 0 0 -1 0 5 0 6.1230317691118863e-016 1 I I #
point $-1 5 3.96 -6.1230317691118863e-016 #
loop $-1 $-1 $173 $81 #
cone-surface $-1 -2.7350000000000003 3.9600000000000009 0 1 0 0 0 -0.78141679950118659 -4.431634888554937 1 I I 0 1 4.5000000000000009 forward I I I I #
coedge $-1 $126 $174 $88 $132 forward $82 $-1 #
coedge $-1 $84 $86 $175 $176 reversed $54 $-1 #
coedge $-1 $174 $124 $84 $127 reversed $82 $-1 #
edge $-1 $177 0 $133 2.0482814542485084 $84 $178 forward 7 unknown #
coedge $-1 $173 $175 $85 $129 forward $122 $-1 #
edge $-1 $130 0 $93 0.69987978183818578 $85 $179 forward 7 unknown #
vertex $-1 $129 $180 #
straight-curve $-1 -2.7349999999999999 0 -2.137381575666824 0 0 -1 I I #
edge $-1 $181 0 $133 2.3076607491196026 $88 $182 forward 7 unknown #
vertex $-1 $132 $183 #
ellipse-curve $-1 0 0 0 0 -1 0 -2.7349999999999999 0 -4.1856630299153323 1 I I #
coedge $-1 $91 $109 $173 $184 reversed $70 $-1 #
straight-curve $-1 -2.7349999999999999 3.9600000000000009 -4.1856630299153323 0 -1 0 I I #
point $-1 -2.7349999999999999 2.3076607491196022 -4.1856630299153323 #
point $-1 -2.7349999999999999 0 -4.1856630299153323 #
coedge $-1 $185 $186 $98 $140 reversed $187 $-1 #
edge $-1 $168 0 $144 0.12862557084216375 $98 $188 forward 7 unknown #
coedge $-1 $189 $99 $186 $190 forward $143 $-1 #
coedge $-1 $99 $189 $101 $146 reversed $143 $-1 #
loop $-1 $-1 $99 $191 #
vertex $-1 $100 $192 #
ellipse-curve $-1 0 0 0 0 -1 0 2.7349999999999999 0 4.1856630299153323 1 I I #
edge $-1 $104 0 $193 0.72947186145511322 $101 $194 forward 7 unknown #
coedge $-1 $195 $107 $102 $148 forward $154 $-1 #
edge $-1 $71 -7.711528201201027e-017 $193 0.74072514074335327 $102 $196 forward 7 unknown #
face $-1 $191 $103 $2 $-1 $197 reversed single #
point $-1 -2.7349999999999999 0 4.1856630299153323 #
coedge $-1 $198 $199 $106 $152 forward $200 $-1 #
edge $-1 $201 1.2866782954855663e-015 $155 9.0000000000000036 $106 $202 forward 7 unknown #
coedge $-1 $107 $203 $198 $204 reversed $154 $-1 #
loop $-1 $-1 $107 $205 #
vertex $-1 $152 $206 #
straight-curve $-1 -2.7349999999999999 0.46606527084648852 6.0993786657671141 0 -0.17364817766693028 -0.98480775301220802 I I #
coedge $-1 $207 $208 $109 $158 forward $209 $-1 #
edge $-1 $210 3.280068726670553e-016 $201 5.3999999999999995 $109 $211 forward 7 unknown #
face $-1 $212 $209 $2 $-1 $213 forward single #
plane-surface $-1 -2.7349999999999999 8.1456630299153314 6 -1 0 0 0 -1 0 forward_v I I I I #
coedge $-1 $214 $165 $112 $162 forward $167 $-1 #
edge $-1 $163 -8.8817841970012523e-016 $181 1.6523392508803965 $112 $215 forward 7 unknown #
vertex $-1 $114 $216 #
ellipse-curve $-1 0 3.96 0 0 1 0 5 0 6.1230317691118863e-016 1 I I #
coedge $-1 $161 $115 $117 $170 reversed $167 $-1 #
coedge $-1 $115 $217 $203 $218 forward $167 $-1 #
loop $-1 $-1 $166 $212 #
vertex $-1 $140 $219 #
straight-curve $-1 2.7349999999999999 3.960000000000004 4.1856630299153323 0 -1 0 I I #
edge $-1 $163 0 $119 3.1415926535897936 $117 $220 forward 7 unknown #
face $-1 $-1 $118 $2 $-1 $221 forward single #
point $-1 2.7350000000000008 3.96 4.1856630299153323 #
coedge $-1 $222 $128 $135 $184 forward $122 $-1 #
coedge $-1 $124 $126 $223 $224 forward $82 $-1 #
coedge $-1 $128 $223 $125 $176 forward $122 $-1 #
edge $-1 $177 0 $130 5.4699999999999998 $125 $225 forward 7 unknown #
vertex $-1 $176 $226 #
straight-curve $-1 2.7349999999999999 0 -2.137381575666824 0 0 -1 I I #
ellipse-curve $-1 -2.7350000000000003 3.9600000000000009 0 1 8.6844112148456706e-017 4.6873486177084525e-017 4.4408920985006262e-016 -3.9600000000000009 -2.137381575666824 1 I I #
point $-1 -2.7349999999999999 0 -2.137381575666824 #
vertex $-1 $162 $227 #
straight-curve $-1 2.7349999999999999 2.3076607491196026 -4.1856630299153323 3.8488257861948507e-016 -1 0 I I #
point $-1 2.7349999999999999 0 -4.1856630299153323 #
edge $-1 $93 0 $210 1.7722458202112794 $135 $228 forward 7 unknown #
coedge $-1 $186 $139 $229 $230 forward $187 $-1 #
coedge $-1 $139 $185 $141 $190 reversed $187 $-1 #
loop $-1 $-1 $186 $231 #
straight-curve $-1 2.7349999999999999 0.12862557084216375 4.1856630299153323 -3.4525732864968492e-015 -1 0 I I #
coedge $-1 $142 $141 $195 $232 reversed $143 $-1 #
edge $-1 $144 0 $233 0.72947186145511367 $141 $234 forward 7 unknown #
face $-1 $231 $143 $2 $-1 $235 reversed single #
point $-1 2.7349999999999999 0 4.1856630299153323 #
vertex $-1 $148 $236 #
straight-curve $-1 -2.7349999999999999 0 4.1856630299153323 0 0 -1 I I #
coedge $-1 $229 $147 $189 $232 forward $154 $-1 #
straight-curve $-1 -2.7349999999999999 0.12862557084216375 4.1856630299153323 0 -0.17364817766693003 -0.98480775301220802 I I #
plane-surface $-1 -2.7349999999999999 8.1456630299153314 6 -1 0 0 0 -1 0 forward_v I I I I #
coedge $-1 $237 $151 $153 $204 forward $200 $-1 #
coedge $-1 $151 $237 $207 $238 reversed $200 $-1 #
loop $-1 $-1 $198 $239 #
vertex $-1 $152 $240 #
straight-curve $-1 -2.7349999999999999 9.3293350479563628 4.5365450667647398 0 -0.98480775301220802 0.17364817766693033 I I #
coedge $-1 $153 $229 $166 $218 reversed $154 $-1 #
edge $-1 $155 0 $241 5.4700000000000006 $153 $242 forward 7 unknown #
face $-1 $149 $154 $2 $-1 $243 forward single #
point $-1 -2.7350000000000003 0.4660652708464883 6.0993786657671123 #
coedge $-1 $244 $157 $199 $238 forward $209 $-1 #
coedge $-1 $157 $244 $222 $245 reversed $209 $-1 #
loop $-1 $-1 $244 $159 #
vertex $-1 $184 $246 #
straight-curve $-1 -2.7349999999999999 8.3916348885549379 -0.78141679950118625 0 0.17364817766693044 0.98480775301220802 I I #
face $-1 $205 $167 $2 $-1 $247 forward single #
plane-surface $-1 -2.7350000000000003 8.3916348885549379 -0.78141679950118592 0 0.98480775301220813 -0.17364817766693036 0 0.17364817766693036 0.98480775301220813 forward_v I I I I #
coedge $-1 $248 $161 $249 $250 forward $167 $-1 #
straight-curve $-1 2.7349999999999999 3.9599999999999991 -4.1856630299153323 0 -1 0 I I #
point $-1 2.7349999999999994 3.96 -4.1856630299153323 #
coedge $-1 $166 $248 $237 $251 forward $167 $-1 #
edge $-1 $241 0 $168 1.9432377842257476 $166 $252 forward 7 unknown #
point $-1 2.7349999999999999 0.12862557084216375 4.1856630299153323 #
ellipse-curve $-1 2.7349999999999999 3.9600000000000013 0 1 -3.3770164223898931e-032 -1.060976974677882e-016 -4.4408920985006262e-016 -1.3322676295501878e-015 -4.1856630299153323 1 I I #
sphere-surface $-1 0 3.96 0 5 1 0 0 0 0 1 forward_v I I I I #
coedge $-1 $249 $173 $208 $245 forward $122 $-1 #
coedge $-1 $175 $249 $174 $224 reversed $122 $-1 #
edge $-1 $177 0 $181 0.69987978183818733 $174 $253 forward 7 unknown #
straight-curve $-1 2.7349999999999999 0 -2.137381575666824 -1 0 -1.6237265442415449e-016 I I #
point $-1 2.7349999999999999 0 -2.137381575666824 #
point $-1 2.7349999999999999 2.3076607491196026 -4.1856630299153323 #
ellipse-curve $-1 -2.7350000000000003 3.9600000000000009 0 1 3.6236347275442999e-017 9.1792977168084903e-017 4.4408920985006262e-016 -1.6523392508803987 -4.1856630299153323 1 I I #
coedge $-1 $203 $195 $185 $230 reversed $154 $-1 #
edge $-1 $168 0 $233 0.74072514074335372 $185 $254 forward 7 unknown #
face $-1 $239 $187 $2 $-1 $255 reversed single #
edge $-1 $193 0 $233 5.4699999999999998 $189 $256 forward 7 unknown #
vertex $-1 $232 $257 #
straight-curve $-1 2.7349999999999999 0 4.1856630299153323 0 0 -1 I I #
plane-surface $-1 -2.7349999999999999 0 6 0 -1 0 1 0 0 forward_v I I I I #
point $-1 -2.7349999999999999 0 3.4561911684602191 #
coedge $-1 $199 $198 $217 $251 reversed $200 $-1 #
edge $-1 $201 0 $258 5.4700000000000006 $207 $259 forward 7 unknown #
face $-1 $260 $261 $2 $-1 $262 forward single #
point $-1 -2.7350000000000003 9.329335047956361 4.5365450667647371 #
vertex $-1 $251 $263 #
straight-curve $-1 -2.7350000000000003 0.46606527084648786 6.0993786657671132 1 0 0 I I #
plane-surface $-1 -2.7350000000000003 2.166080930205736 15.740646567756627 0 -0.98480775301220813 0.17364817766693036 0 -0.17364817766693036 -0.98480775301220813 forward_v I I I I #
coedge $-1 $208 $207 $248 $264 reversed $209 $-1 #
edge $-1 $210 0 $265 5.4700000000000006 $222 $266 forward 7 unknown #
point $-1 -2.7350000000000003 8.3916348885549379 -0.78141679950118592 #
plane-surface $-1 2.7349999999999999 0 6 1 0 0 0 1 0 forward_v I I I I #
coedge $-1 $217 $214 $244 $264 forward $167 $-1 #
coedge $-1 $223 $222 $214 $250 reversed $122 $-1 #
edge $-1 $181 -8.7721325402481561e-017 $265 1.7722458202112801 $214 $267 forward 7 unknown #
edge $-1 $258 1.2866782954855663e-015 $241 9.0000000000000036 $217 $268 forward 7 unknown #
straight-curve $-1 2.7350000000000003 0.4660652708464883 6.0993786657671123 0 -0.17364817766693033 -0.98480775301220802 I I #
ellipse-curve $-1 2.7349999999999999 3.9599999999999937 -7.1054273576010019e-015 1 0 0 0 -3.9599999999999937 -2.1373815756668169 1 I I #
straight-curve $-1 2.7350000000000003 0.12862557084216375 4.1856630299153323 0 -0.17364817766693003 -0.98480775301220802 I I #
plane-surface $-1 2.7349999999999999 0 6 1 0 0 0 1 0 forward_v I I I I #
straight-curve $-1 -2.7349999999999999 4.4408920985006262e-016 3.4561911684602205 1 0 0 I I #
point $-1 2.7349999999999999 0 3.4561911684602187 #
vertex $-1 $251 $269 #
straight-curve $-1 -2.7350000000000003 9.3293350479563628 4.5365450667647407 1 0 0 I I #
face $-1 $270 $271 $2 $-1 $272 forward single #
loop $-1 $200 $273 $239 #
plane-surface $-1 0 4.8977001594014249 5.3179618662659269 0 -0.17364817766693036 -0.98480775301220813 0 -0.98480775301220813 0.17364817766693036 forward_v I I I I #
point $-1 2.7350000000000003 0.4660652708464883 6.0993786657671123 #
edge $-1 $265 3.2800687266705535e-016 $258 5.4000000000000004 $248 $274 forward 7 unknown #
vertex $-1 $264 $275 #
straight-curve $-1 -2.7350000000000003 8.3916348885549379 -0.78141679950118592 1 0 0 I I #
ellipse-curve $-1 2.7349999999999999 3.9600000000000022 -1.7763568394002505e-015 1 0 0 0 -1.6523392508803991 -4.1856630299153306 1 I I #
straight-curve $-1 2.7349999999999999 9.3293350479563628 4.5365450667647398 0 -0.98480775301220802 0.17364817766693033 I I #
point $-1 2.7350000000000003 9.329335047956361 4.5365450667647371 #
face $-1 $276 $277 $2 $-1 $278 forward single #
loop $-1 $-1 $279 $260 #
cone-surface $-1 0 6.6827166017286359 15.441293163354919 0 -0.17364817766693036 -0.98480775301220813 0 -5.9088465180732488 1.0418890660015823 1 I I 0 1 6 forward I I I I #
coedge $-1 $280 $280 $281 $282 forward $261 $-1 #
straight-curve $-1 2.7350000000000003 8.3916348885549379 -0.78141679950118625 0 0.17364817766693044 0.98480775301220813 I I #
point $-1 2.7350000000000003 8.3916348885549379 -0.78141679950118592 #
face $-1 $283 $284 $2 $-1 $285 forward single #
loop $-1 $286 $287 $270 #
plane-surface $-1 -2.7350000000000003 11.02935070731561 14.177812968754255 0 0.17364817766693036 0.98480775301220813 0 -0.98480775301220813 0.17364817766693036 forward_v I I I I #
coedge $-1 $288 $289 $287 $290 forward $271 $-1 #
coedge $-1 $273 $273 $291 $292 reversed $261 $-1 #
coedge $-1 $289 $288 $273 $282 reversed $271 $-1 #
edge $-1 $293 0 $294 3.1415926535897931 $273 $295 forward 7 unknown #
face $-1 $296 $297 $2 $-1 $298 forward single #
loop $-1 $-1 $291 $276 #
cone-surface $-1 0 6.6827166017286359 15.441293163354919 0 -0.17364817766693036 -0.98480775301220813 0 -5.9088465180732488 1.0418890660015823 1 I I 0 1 6 forward I I I I #
loop $-1 $-1 $299 $270 #
coedge $-1 $300 $300 $279 $290 reversed $277 $-1 #
coedge $-1 $281 $279 $301 $302 reversed $271 $-1 #
coedge $-1 $279 $281 $303 $304 forward $271 $-1 #
edge $-1 $305 0 $306 3.1415926535897931 $287 $307 forward 7 unknown #
coedge $-1 $301 $303 $280 $292 forward $284 $-1 #
edge $-1 $293 -2.1912802922805871e-032 $294 3.1415926535897931 $280 $308 forward 7 unknown #
vertex $-1 $292 $309 #
vertex $-1 $292 $310 #
ellipse-curve $-1 -4.4408920985006262e-016 4.8977001594014258 5.3179618662659269 -6.0260208037716163e-032 -0.17364817766693066 -0.98480775301220802 1.178853022143489e-015 5.9088465180732488 -1.041889066001584 1 I I #
face $-1 $311 $312 $2 $-1 $313 forward single #
loop $-1 $-1 $314 $283 #
cone-surface $-1 0 6.5977158187606717 14.959229768255442 0 0.17364817766693036 0.98480775301220813 4 0 0 1 I I 0 1 4 forward I I I I #
coedge $-1 $315 $315 $316 $317 reversed $286 $-1 #
coedge $-1 $287 $287 $318 $319 forward $277 $-1 #
coedge $-1 $318 $291 $288 $302 forward $284 $-1 #
edge $-1 $294 0 $306 9.7900000000000009 $288 $320 forward 7 unknown #
coedge $-1 $291 $318 $289 $304 reversed $284 $-1 #
edge $-1 $293 0 $305 9.7900000000000009 $289 $321 forward 7 unknown #
vertex $-1 $319 $322 #
vertex $-1 $319 $323 #
ellipse-curve $-1 -8.8817841970012523e-016 6.5977158187606726 14.959229768255442 -5.4782007307014706e-033 -0.17364817766693039 -0.98480775301220813 8.8817841970012523e-016 5.9088465180732488 -1.0418890660015823 1 I I #
ellipse-curve $-1 0 4.8977001594014249 5.3179618662659269 3.5608304749559538e-032 0.17364817766693061 0.98480775301220802 7.3476381229342635e-016 5.9088465180732497 -1.041889066001584 1 I I #
point $-1 7.3476381229342635e-016 10.806546677474675 4.2760728002643429 #
point $-1 -1.4695276245868527e-015 -1.0111463586718237 6.3598509322675074 #
face $-1 $324 $325 $2 $-1 $326 forward single #
loop $-1 $327 $328 $296 #
plane-surface $-1 -2.7350000000000003 37.076577357355163 161.89897592058549 0 0.17364817766693036 0.98480775301220813 1 0 0 forward_v I I I I #
coedge $-1 $329 $330 $328 $331 reversed $297 $-1 #
coedge $-1 $299 $299 $332 $333 reversed $286 $-1 #
coedge $-1 $330 $329 $299 $317 forward $297 $-1 #
edge $-1 $334 0 $335 3.1415926535897909 $299 $336 forward 7 unknown #
coedge $-1 $303 $301 $300 $319 reversed $284 $-1 #
edge $-1 $305 0 $306 3.1415926535897931 $300 $337 forward 7 unknown #
straight-curve $-1 -1.4695276245868527e-015 -1.0111463586718237 6.3598509322675074 0 0.17364817766693036 0.98480775301220813 I I #
straight-curve $-1 7.3476381229342635e-016 10.806546677474675 4.2760728002643429 0 0.17364817766693022 0.98480775301220813 I I #
point $-1 0 12.506562336833921 13.91734070225386 #
point $-1 0 0.6888693006874238 16.001118834257024 #
face $-1 $338 $339 $2 $-1 $340 forward single #
loop $-1 $-1 $332 $311 #
cone-surface $-1 0 6.5977158187606717 14.959229768255442 0 0.17364817766693036 0.98480775301220813 4 0 0 1 I I 0 1 4 forward I I I I #
loop $-1 $-1 $341 $296 #
coedge $-1 $342 $342 $314 $331 forward $312 $-1 #
coedge $-1 $316 $314 $343 $344 reversed $297 $-1 #
coedge $-1 $314 $316 $345 $346 forward $297 $-1 #
edge $-1 $347 -4.9303806576313085e-032 $348 3.1415926535897922 $328 $349 forward 7 unknown #
coedge $-1 $343 $345 $315 $333 forward $325 $-1 #
edge $-1 $335 0 $334 3.1415926535897953 $315 $350 forward 7 unknown #
vertex $-1 $333 $351 #
vertex $-1 $333 $352 #
ellipse-curve $-1 0 6.5977158187606717 14.959229768255442 2.4651903288156602e-032 0.1736481776669305 0.98480775301220813 8.8817841970012523e-016 3.9392310120488334 -0.6945927106677221 1 I I #
ellipse-curve $-1 4.4408920985006262e-016 6.5977158187606726 14.959229768255442 -2.7391003653507353e-033 0.17364817766693039 0.98480775301220813 -4.4408920985006262e-016 5.9088465180732488 -1.0418890660015823 1 I I #
face $-1 $353 $354 $2 $-1 $355 forward single #
loop $-1 $-1 $356 $324 #
cone-surface $-1 0 32.644942468800224 162.68039272008667 0 0.17364817766693036 0.98480775301220813 3 0 0 1 I I 0 1 3 forward I I I I #
coedge $-1 $357 $357 $358 $359 reversed $327 $-1 #
coedge $-1 $328 $328 $360 $361 forward $312 $-1 #
coedge $-1 $360 $332 $329 $344 forward $325 $-1 #
edge $-1 $334 0 $347 150.00000000000003 $343 $362 forward 7 unknown #
coedge $-1 $332 $360 $330 $346 reversed $325 $-1 #
edge $-1 $335 -1.5951394235336078e-015 $348 150.00000000000006 $345 $363 forward 7 unknown #
vertex $-1 $361 $364 #
vertex $-1 $361 $365 #
ellipse-curve $-1 2.2204460492503131e-015 32.644942468800224 162.68039272008667 -1.0230539864584967e-030 0.17364817766693341 0.98480775301220758 -1.3322676295501878e-015 3.9392310120488361 -0.69459271066773454 1 I I #
ellipse-curve $-1 0 6.5977158187606717 14.959229768255442 -6.4094948549207227e-031 0.17364817766693011 0.98480775301220813 -1.021405182655144e-014 -3.9392310120488316 0.69459271066772033 1 I I #
point $-1 8.8817841970012523e-016 10.536946830809505 14.26463705758772 #
point $-1 -1.021405182655144e-014 2.6584848067118401 15.653822478923162 #
face $-1 $366 $367 $2 $-1 $368 forward single #
loop $-1 $-1 $369 $338 #
cone-surface $-1 0 32.644942468800224 162.68039272008667 0 0.17364817766693036 0.98480775301220813 3 0 0 1 I I 0 1 3 forward I I I I #
coedge $-1 $370 $358 $371 $372 forward $339 $-1 #
coedge $-1 $341 $341 $373 $374 reversed $327 $-1 #
coedge $-1 $356 $375 $341 $359 forward $339 $-1 #
edge $-1 $376 0 $377 3.1415926535897896 $341 $378 forward 7 unknown #
coedge $-1 $345 $343 $342 $361 reversed $325 $-1 #
edge $-1 $348 0 $347 3.1415926535897922 $342 $379 forward 7 unknown #
straight-curve $-1 2.4492127076447545e-016 10.536946830809505 14.26463705758772 0 0.17364817766693036 0.98480775301220813 I I #
straight-curve $-1 -7.3476381229342635e-016 2.6584848067118392 15.653822478923164 0 0.17364817766693036 0.98480775301220813 I I #
point $-1 8.8817841970012523e-016 36.58417348084906 161.98580000941894 #
point $-1 -8.8817841970012523e-016 28.705711456751395 163.37498543075441 #
face $-1 $380 $381 $2 $-1 $382 forward single #
loop $-1 $383 $384 $353 #
plane-surface $-1 -2.7350000000000003 58.782599565721455 284.99994504711151 0 0.17364817766693036 0.98480775301220813 1 0 0 forward_v I I I I #
coedge $-1 $385 $373 $375 $386 forward $354 $-1 #
coedge $-1 $375 $356 $384 $387 reversed $339 $-1 #
coedge $-1 $373 $385 $356 $372 reversed $354 $-1 #
edge $-1 $377 0 $388 125 $371 $389 forward 7 unknown #
coedge $-1 $369 $371 $357 $374 forward $354 $-1 #
edge $-1 $377 -7.0120969352978771e-031 $376 3.1415926535897967 $357 $390 forward 7 unknown #
coedge $-1 $358 $370 $369 $386 reversed $339 $-1 #
vertex $-1 $374 $391 #
vertex $-1 $374 $392 #
ellipse-curve $-1 0 32.644942468800224 162.68039272008667 9.6416332860345843e-031 0.17364817766693361 0.98480775301220758 8.8817841970012523e-016 2.9544232590366235 -0.5209445330008009 1 I I #
ellipse-curve $-1 -2.2204460492503131e-015 32.644942468800224 162.68039272008667 -1.1216615996111269e-030 0.17364817766693369 0.98480775301220758 1.3322676295501878e-015 -3.939231012048829 0.69459271066773454 1 I I #
face $-1 $393 $394 $2 $-1 $395 forward single #
loop $-1 $-1 $396 $366 #
cone-surface $-1 0 54.350964677166509 285.7813618466127 0 0.17364817766693036 0.98480775301220813 2 0 0 1 I I 0 1 2 forward I I I I #
loop $-1 $-1 $397 $353 #
coedge $-1 $398 $398 $370 $387 forward $367 $-1 #
coedge $-1 $371 $369 $398 $399 reversed $354 $-1 #
edge $-1 $376 0 $400 125.00000000000006 $369 $401 forward 7 unknown #
edge $-1 $400 0 $388 3.1415926535898016 $384 $402 forward 7 unknown #
vertex $-1 $399 $403 #
straight-curve $-1 -5.5107285922006977e-016 29.6905192097636 163.20133725308747 0 0.17364817766693041 0.98480775301220813 I I #
ellipse-curve $-1 0 32.644942468800224 162.68039272008667 1.3585937812139642e-029 0.17364817766693361 0.98480775301220758 -1.2434497875801753e-014 -2.9544232590366235 0.5209445330008009 1 I I #
point $-1 8.8817841970012523e-016 35.599365727836847 162.15944818708587 #
point $-1 -1.2434497875801753e-014 29.6905192097636 163.20133725308747 #
face $-1 $404 $405 $2 $-1 $406 forward single #
loop $-1 $-1 $407 $380 #
sphere-surface $-1 -1.7763568394002505e-015 71.715782443859567 384.26213714783353 4 1 0 0 0 0 1 forward_v I I I I #
coedge $-1 $408 $409 $407 $410 reversed $381 $-1 #
coedge $-1 $411 $411 $412 $413 reversed $383 $-1 #
coedge $-1 $384 $384 $385 $399 forward $367 $-1 #
edge $-1 $388 7.0120969352979007e-031 $400 3.1415926535898007 $398 $414 forward 7 unknown #
vertex $-1 $399 $415 #
straight-curve $-1 8.4982476784845051e-016 35.599365727836847 162.15944818708587 0 0.17364817766693041 0.98480775301220813 I I #
ellipse-curve $-1 -1.2434497875801753e-014 54.350964677166516 285.7813618466127 -2.6821270777514474e-029 0.17364817766692442 0.98480775301220913 1.3322676295501878e-014 2.9544232590366235 -0.52094453300077248 1 I I #
point $-1 -4.4408920985006262e-016 51.396541418129893 286.30230637961347 #
face $-1 $171 $416 $2 $-1 $417 forward single #
loop $-1 $-1 $418 $393 #
sphere-surface $-1 -1.7763568394002505e-015 71.715782443859567 384.26213714783353 4 1 0 0 0 0 1 forward_v I I I I #
coedge $-1 $419 $420 $396 $410 forward $394 $-1 #
coedge $-1 $412 $396 $421 $422 reversed $381 $-1 #
coedge $-1 $396 $423 $424 $425 reversed $381 $-1 #
edge $-1 $426 7.8886090522099289e-031 $427 1.5707963267948835 $396 $428 forward 7 unknown #
coedge $-1 $397 $397 $429 $430 reversed $383 $-1 #
coedge $-1 $423 $408 $397 $413 forward $381 $-1 #
edge $-1 $431 0 $432 3.1415926535897931 $397 $433 forward 7 unknown #
ellipse-curve $-1 1.1990408665951691e-014 54.350964677166516 285.7813618466127 -2.5155897755381222e-029 0.17364817766692442 0.98480775301220913 -1.2434497875801753e-014 -2.9544232590366235 0.52094453300077248 1 I I #
point $-1 8.8817841970012523e-016 57.30538793620314 285.26041731361192 #
loop $-1 $-1 $434 $404 #
cone-surface $-1 0 54.350964677166509 285.7813618466127 0 0.17364817766693036 0.98480775301220813 2 0 0 1 I I 0 1 2 forward I I I I #
coedge $-1 $435 $436 $437 $438 reversed $405 $-1 #
coedge $-1 $437 $407 $435 $439 reversed $394 $-1 #
coedge $-1 $407 $437 $440 $441 forward $394 $-1 #
coedge $-1 $440 $429 $408 $422 forward $416 $-1 #
edge $-1 $431 1.2338445121921667e-015 $426 96.535898384862307 $421 $442 forward 7 unknown #
coedge $-1 $409 $412 $434 $443 forward $381 $-1 #
coedge $-1 $436 $435 $409 $425 forward $405 $-1 #
edge $-1 $427 0 $444 1.5707963267948957 $409 $445 forward 7 unknown #
vertex $-1 $441 $446 #
vertex $-1 $425 $447 #
ellipse-curve $-1 1.3655743202889425e-014 71.114247511137791 380.85066302002377 -7.2969633732941854e-030 0.17364817766693158 0.98480775301220791 -1.2246768269635899e-014 1.9696155060244394 -0.34729635533386727 1 I I #
coedge $-1 $421 $434 $411 $430 forward $416 $-1 #
edge $-1 $432 0 $431 3.1415926535897931 $411 $448 forward 7 unknown #
vertex $-1 $430 $449 #
vertex $-1 $430 $450 #
ellipse-curve $-1 0 54.350964677166509 285.7813618466127 5.4234187233944019e-031 0.17364817766693277 0.98480775301220769 4.4408920985006262e-016 1.9696155060244251 -0.34729635533386727 1 I I #
coedge $-1 $429 $451 $423 $443 reversed $416 $-1 #
coedge $-1 $424 $418 $419 $439 forward $405 $-1 #
coedge $-1 $418 $424 $451 $452 forward $405 $-1 #
coedge $-1 $420 $419 $418 $438 forward $394 $-1 #
edge $-1 $453 2.465190328815675e-032 $454 2.6179938779914895 $418 $455 forward 7 unknown #
edge $-1 $453 3.6738190614671416e-016 $427 2.6179938779914931 $435 $456 forward 7 unknown #
coedge $-1 $451 $421 $420 $441 reversed $416 $-1 #
edge $-1 $454 -2.2876966251409281e-029 $426 1.5707963267948906 $440 $457 forward 7 unknown #
straight-curve $-1 5.6654984523230034e-016 56.320580183190927 285.43406549127883 0 0.17364817766693036 0.98480775301220802 I I #
edge $-1 $432 2.4676890243843334e-015 $444 96.535898384862307 $434 $458 forward 7 unknown #
vertex $-1 $452 $459 #
ellipse-curve $-1 1.7208456881689926e-015 71.114247511137805 380.85066302002377 0 0.17364817766693033 0.98480775301220813 -2.0000000000000027 0 0 1 I I #
point $-1 1.4089749332535258e-015 73.08386301716223 380.50336666468991 #
point $-1 -2.0000000000000009 71.114247511137805 380.85066302002377 #
ellipse-curve $-1 0 54.350964677166509 285.7813618466127 9.5526125241607932e-031 0.17364817766693458 0.98480775301220735 -4.4408920985006262e-016 -1.9696155060244038 0.34729635533386727 1 I I #
point $-1 4.4408920985006262e-016 56.320580183190934 285.43406549127883 #
point $-1 -4.4408920985006262e-016 52.381349171142105 286.12865820194656 #
coedge $-1 $434 $440 $436 $452 reversed $416 $-1 #
edge $-1 $444 7.8886090522099289e-031 $454 1.5707963267948895 $451 $460 forward 7 unknown #
vertex $-1 $439 $461 #
vertex $-1 $452 $462 #
ellipse-curve $-1 -1.7763568394002505e-015 71.715782443859567 384.26213714783353 -6.2030058637772401e-016 0.98480775301220802 -0.17364817766693053 -7.3476381229342635e-016 0.69459271066772033 3.9392310120488219 1 I I #
ellipse-curve $-1 -1.7763568394002505e-015 71.715782443859567 384.26213714783353 -2.423049165537981e-015 -0.98480775301220802 0.17364817766693055 7.3476381229342635e-016 0.69459271066772033 3.9392310120488219 1 I I #
ellipse-curve $-1 3.4416913763379853e-015 71.114247511137819 380.85066302002377 -1.2338445121921667e-015 0.17364817766693039 0.98480775301220813 1.9999999999999996 1.4210854715202004e-014 0 1 I I #
straight-curve $-1 -3.6738190614671318e-016 52.381349171142091 286.12865820194656 0 0.17364817766693036 0.98480775301220802 I I #
point $-1 -3.2162857446780773e-016 69.144632005113394 381.19795937535764 #
ellipse-curve $-1 -1.4432899320127035e-014 71.114247511137833 380.85066302002377 -8.4802547311256751e-030 0.17364817766693158 0.98480775301220791 1.4111270745659227e-014 -1.9696155060244394 0.34729635533386727 1 I I #
point $-1 -2.5111206516936768e-015 72.410375154527287 388.20136815988235 #
point $-1 2.0000000000000093 71.114247511137833 380.85066302002377 #
End-of-ACIS-data 