700 0 2 0           
24 FBMach with ACIS - 7.0.3 13 ACIS 7.0.3 NT 24 Thu May 16 13:35:36 2002 
1 9.9999999999999995e-007 1e-010 
body $2 -1 $-1 $3 $-1 $4 #
bdycol-kcp $-1 -1 1 6 $5 $6 $7 $8 $9 $10 #
model_id-kcp-attrib $-1 -1 $-1 $-1 $0 1 1021570535 1021570535 -1962737663 1 #
lump $-1 -1 $-1 $-1 $11 $0 #
transform $-1 -1 1.0000000000000002 0 0 0 1.0000000000000002 0 0 0 1 -2.8421709430404007e-014 -1.4210854715202004e-014 0 1 rotate no_reflect no_shear #
body $12 -1 $-1 $13 $-1 $14 #
body $15 -1 $-1 $16 $-1 $17 #
body $18 -1 $-1 $19 $-1 $20 #
body $21 -1 $-1 $22 $-1 $23 #
body $24 -1 $-1 $25 $-1 $26 #
body $27 -1 $-1 $28 $-1 $29 #
shell $-1 -1 $-1 $-1 $-1 $30 $-1 $3 #
model_id-kcp-attrib $-1 -1 $-1 $-1 $5 1 1021570535 1021570535 -1962082302 1 #
lump $-1 -1 $-1 $-1 $31 $5 #
transform $-1 -1 1 0 0 0 1 0 0 0 1 60 37.5 0.76200000000000001 1 no_rotate no_reflect no_shear #
rgb_color-st-attrib $-1 -1 $32 $-1 $6 0.5 0.5 1 #
lump $-1 -1 $-1 $-1 $33 $6 #
transform $-1 -1 1 0 0 0 1 0 0 0 1 60 37.5 0.76200000000000001 1 no_rotate no_reflect no_shear #
rgb_color-st-attrib $-1 -1 $34 $-1 $7 0.5 1 1 #
lump $-1 -1 $-1 $-1 $35 $7 #
transform $-1 -1 1 0 0 0 1 0 0 0 1 0 0 0 1 no_rotate no_reflect no_shear #
rgb_color-st-attrib $-1 -1 $36 $-1 $8 0.5 1 1 #
lump $-1 -1 $-1 $-1 $37 $8 #
transform $-1 -1 1 0 0 0 1 0 0 0 1 0 0 0 1 no_rotate no_reflect no_shear #
rgb_color-st-attrib $-1 -1 $38 $-1 $9 0.5 1 1 #
lump $-1 -1 $-1 $-1 $39 $9 #
transform $-1 -1 1 0 0 0 1 0 0 0 1 0 0 0 1 no_rotate no_reflect no_shear #
rgb_color-st-attrib $-1 -1 $40 $-1 $10 0.5 1 1 #
lump $-1 -1 $-1 $-1 $41 $10 #
transform $-1 -1 1 0 0 0 1 0 0 0 1 0 0 0 1 no_rotate no_reflect no_shear #
face $42 -1 $-1 $43 $44 $11 $-1 $45 reversed single #
shell $-1 -1 $-1 $-1 $-1 $46 $-1 $13 #
model_id-kcp-attrib $-1 -1 $-1 $15 $6 1 1021570535 1021570536 -1960181757 1 #
shell $-1 -1 $-1 $-1 $-1 $47 $-1 $16 #
model_id-kcp-attrib $-1 -1 $-1 $18 $7 1 1021570535 1021570536 -1956904956 1 #
shell $-1 -1 $-1 $-1 $-1 $48 $-1 $19 #
model_id-kcp-attrib $-1 -1 $-1 $21 $8 1 1021570535 1021570536 -1954938875 1 #
shell $-1 -1 $-1 $-1 $-1 $49 $-1 $22 #
model_id-kcp-attrib $-1 -1 $-1 $24 $9 1 1021570535 1021570536 -1952317434 1 #
shell $-1 -1 $-1 $-1 $-1 $50 $-1 $25 #
model_id-kcp-attrib $-1 -1 $-1 $27 $10 1 1021570535 1021570536 -1949695993 1 #
shell $-1 -1 $-1 $-1 $-1 $51 $-1 $28 #
model_id-kcp-attrib $-1 -1 $-1 $-1 $30 1 1021570535 1021570535 -1962737663 2 #
face $52 -1 $-1 $53 $54 $11 $-1 $55 forward single #
loop $-1 -1 $-1 $56 $57 $30 #
plane-surface $-1 -1 $-1 0 0 0 0 0 1 1 0 0 forward_v I I I I #
face $58 -1 $-1 $59 $60 $31 $-1 $61 forward single #
face $-1 -1 $-1 $62 $63 $33 $-1 $64 reversed single #
face $-1 -1 $-1 $65 $66 $35 $-1 $67 forward single #
face $-1 -1 $-1 $68 $69 $37 $-1 $70 forward single #
face $-1 -1 $-1 $71 $72 $39 $-1 $73 forward single #
face $-1 -1 $-1 $74 $75 $41 $-1 $76 forward single #
model_id-kcp-attrib $-1 -1 $-1 $-1 $43 1 1021570535 1021570535 -1962737663 3 #
face $77 -1 $-1 $78 $79 $11 $-1 $80 forward single #
loop $-1 -1 $-1 $-1 $81 $43 #
plane-surface $-1 -1 $-1 102.67949192431122 0 0 0.86602540378443871 -0.50000000000000011 0 0.5 0.8660254037844386 0 forward_v I I I I #
loop $-1 -1 $-1 $82 $83 $30 #
coedge $-1 -1 $-1 $84 $85 $86 $87 reversed $44 $-1 #
model_id-kcp-attrib $-1 -1 $-1 $-1 $46 1 1021570535 1021570535 -1962082302 7 #
face $88 -1 $-1 $89 $90 $31 $-1 $91 reversed single #
loop $-1 -1 $-1 $-1 $92 $46 #
plane-surface $-1 -1 $-1 0 0 0.76200000000000001 0 0 1 1 0 0 forward_v I I I I #
face $-1 -1 $-1 $93 $94 $33 $-1 $95 reversed single #
loop $-1 -1 $-1 $-1 $96 $47 #
plane-surface $-1 -1 $-1 51.339745962155646 -22.5 0 0.86602540378443871 -0.50000000000000011 0 0.50000000000000011 0.86602540378443871 0 forward_v I I I I #
face $-1 -1 $-1 $97 $98 $35 $-1 $99 forward single #
loop $-1 -1 $-1 $100 $101 $48 #
cone-surface $-1 -1 $-1 8 70 0 0 0 1 2 0 0 1 I I 0 1 2 forward I I I I #
face $-1 -1 $-1 $102 $103 $37 $-1 $104 forward single #
loop $-1 -1 $-1 $105 $106 $49 #
cone-surface $-1 -1 $-1 15 15 0 0 0 1 2 0 0 1 I I 0 1 2 forward I I I I #
face $-1 -1 $-1 $107 $108 $39 $-1 $109 forward single #
loop $-1 -1 $-1 $110 $111 $50 #
cone-surface $-1 -1 $-1 85 60 0 0 0 1 2 0 0 1 I I 0 1 2 forward I I I I #
face $-1 -1 $-1 $112 $113 $41 $-1 $114 forward single #
loop $-1 -1 $-1 $115 $116 $51 #
cone-surface $-1 -1 $-1 95 15.000000000000002 0 0 0 1 2 -1.7763568394002505e-015 0 1 I I 0 1 2 forward I I I I #
model_id-kcp-attrib $-1 -1 $-1 $-1 $53 1 1021570535 1021570535 -1962737663 4 #
face $117 -1 $-1 $118 $119 $11 $-1 $120 forward single #
loop $-1 -1 $-1 $-1 $121 $53 #
plane-surface $-1 -1 $-1 120 30 0 1 0 0 0 1 0 forward_v I I I I #
coedge $-1 -1 $-1 $122 $86 $123 $124 forward $54 $-1 #
loop $-1 -1 $-1 $125 $126 $30 #
coedge $-1 -1 $-1 $127 $127 $128 $129 reversed $56 $-1 #
coedge $-1 -1 $-1 $130 $57 $131 $132 reversed $44 $-1 #
coedge $-1 -1 $-1 $57 $133 $134 $135 reversed $44 $-1 #
coedge $-1 -1 $-1 $81 $136 $57 $87 forward $54 $-1 #
edge $137 -1 $-1 $138 0 $139 34.641016151377549 $57 $140 forward @7 unknown #
model_id-kcp-attrib $-1 -1 $-1 $-1 $59 1 1021570535 1021570535 -1962082302 2 #
face $141 -1 $-1 $142 $143 $31 $-1 $144 reversed single #
loop $-1 -1 $-1 $-1 $145 $59 #
plane-surface $-1 -1 $-1 0 0 -0.76200000000000001 0 0 1 1 0 0 forward_v I I I I #
coedge $-1 -1 $-1 $146 $147 $148 $149 forward $60 $-1 #
face $-1 -1 $-1 $150 $151 $33 $-1 $152 reversed single #
loop $-1 -1 $-1 $-1 $153 $62 #
plane-surface $-1 -1 $-1 0 -37.5 0 0 1 0 0 0 1 forward_v I I I I #
coedge $-1 -1 $-1 $154 $155 $156 $157 forward $63 $-1 #
face $-1 -1 $-1 $-1 $158 $35 $-1 $159 reversed single #
loop $-1 -1 $-1 $-1 $160 $65 #
plane-surface $-1 -1 $-1 8 70 1.524 0 0 1 1 0 0 forward_v I I I I #
loop $-1 -1 $-1 $-1 $161 $48 #
coedge $-1 -1 $-1 $101 $101 $160 $162 forward $66 $-1 #
face $-1 -1 $-1 $-1 $163 $37 $-1 $164 reversed single #
loop $-1 -1 $-1 $-1 $165 $68 #
plane-surface $-1 -1 $-1 15 15 1.524 0 0 1 1 0 0 forward_v I I I I #
loop $-1 -1 $-1 $-1 $166 $49 #
coedge $-1 -1 $-1 $106 $106 $165 $167 forward $69 $-1 #
face $-1 -1 $-1 $-1 $168 $39 $-1 $169 reversed single #
loop $-1 -1 $-1 $-1 $170 $71 #
plane-surface $-1 -1 $-1 85 60.000000000000007 1.524 0 0 1 1 0 0 forward_v I I I I #
loop $-1 -1 $-1 $-1 $171 $50 #
coedge $-1 -1 $-1 $111 $111 $170 $172 forward $72 $-1 #
face $-1 -1 $-1 $-1 $173 $41 $-1 $174 reversed single #
loop $-1 -1 $-1 $-1 $175 $74 #
plane-surface $-1 -1 $-1 95 15 1.524 0 0 1 1 0 0 forward_v I I I I #
loop $-1 -1 $-1 $-1 $176 $51 #
coedge $-1 -1 $-1 $116 $116 $175 $177 forward $75 $-1 #
model_id-kcp-attrib $-1 -1 $-1 $-1 $78 1 1021570535 1021570535 -1962737663 5 #
face $178 -1 $-1 $179 $180 $11 $-1 $181 forward single #
loop $-1 -1 $-1 $-1 $182 $78 #
plane-surface $-1 -1 $-1 120 62.299999999999997 0 0 1 0 -1 0 0 forward_v I I I I #
coedge $-1 -1 $-1 $183 $134 $184 $185 forward $79 $-1 #
coedge $-1 -1 $-1 $136 $81 $186 $187 reversed $54 $-1 #
coedge $-1 -1 $-1 $134 $183 $81 $124 reversed $79 $-1 #
edge $188 -1 $-1 $139 0 $189 1.524 $123 $190 forward @7 unknown #
loop $-1 -1 $-1 $191 $192 $30 #
coedge $-1 -1 $-1 $193 $193 $194 $195 reversed $82 $-1 #
coedge $-1 -1 $-1 $83 $83 $196 $197 reversed $56 $-1 #
coedge $-1 -1 $-1 $198 $199 $83 $129 forward $200 $-1 #
edge $201 -1 $-1 $202 0 $203 3.1415926535897931 $83 $204 forward @7 unknown #
coedge $-1 -1 $-1 $205 $84 $206 $207 reversed $44 $-1 #
coedge $-1 -1 $-1 $208 $209 $84 $132 forward $210 $-1 #
edge $211 -1 $-1 $212 0 $138 102.67949192431122 $84 $213 forward @7 unknown #
coedge $-1 -1 $-1 $85 $214 $215 $216 reversed $44 $-1 #
coedge $-1 -1 $-1 $121 $123 $85 $135 forward $79 $-1 #
edge $217 -1 $-1 $139 0 $218 32.299999999999997 $85 $219 forward @7 unknown #
coedge $-1 -1 $-1 $86 $122 $208 $220 reversed $54 $-1 #
attrib_edge_convexity-kcp-attrib $-1 -1 $221 $-1 $87 1 #
vertex $-1 -1 $-1 $132 $222 #
vertex $-1 -1 $-1 $135 $223 #
straight-curve $-1 -1 $-1 102.67949192431122 0 0 0.50000000000000011 0.8660254037844386 0 I I #
model_id-kcp-attrib $-1 -1 $-1 $-1 $89 1 1021570535 1021570535 -1962082302 6 #
face $224 -1 $-1 $225 $226 $31 $-1 $227 reversed single #
loop $-1 -1 $-1 $-1 $228 $89 #
plane-surface $-1 -1 $-1 0 -37.5 0 0 1 0 0 0 1 forward_v I I I I #
coedge $-1 -1 $-1 $229 $230 $231 $232 forward $90 $-1 #
coedge $-1 -1 $-1 $233 $92 $234 $235 forward $60 $-1 #
coedge $-1 -1 $-1 $92 $233 $236 $237 forward $60 $-1 #
coedge $-1 -1 $-1 $238 $239 $92 $149 reversed $240 $-1 #
edge $-1 -1 $-1 $241 -37.5 $242 37.5 $148 $243 forward @7 unknown #
face $-1 -1 $-1 $244 $245 $33 $-1 $246 forward single #
loop $-1 -1 $-1 $-1 $156 $93 #
plane-surface $-1 -1 $-1 0 0 -0.76200000000000001 0 0 1 1 0 0 forward_v I I I I #
coedge $-1 -1 $-1 $247 $248 $154 $249 reversed $94 $-1 #
coedge $-1 -1 $-1 $250 $96 $153 $249 forward $63 $-1 #
coedge $-1 -1 $-1 $96 $250 $251 $252 forward $63 $-1 #
coedge $-1 -1 $-1 $253 $254 $96 $157 reversed $151 $-1 #
edge $255 -1 $-1 $256 -20.412658773652684 $257 14.228357377724798 $156 $258 forward @7 unknown #
loop $-1 -1 $-1 $-1 $259 $97 #
plane-surface $-1 -1 $-1 8 70 0 0 0 1 1 0 0 forward_v I I I I #
coedge $-1 -1 $-1 $160 $160 $101 $162 reversed $98 $-1 #
coedge $-1 -1 $-1 $161 $161 $259 $260 reversed $100 $-1 #
edge $-1 -1 $-1 $261 -3.1415926535897931 $261 3.1415926535897931 $101 $262 forward @7 unknown #
loop $-1 -1 $-1 $-1 $263 $102 #
plane-surface $-1 -1 $-1 15 15 0 0 0 1 1 0 0 forward_v I I I I #
coedge $-1 -1 $-1 $165 $165 $106 $167 reversed $103 $-1 #
coedge $-1 -1 $-1 $166 $166 $263 $264 reversed $105 $-1 #
edge $-1 -1 $-1 $265 -3.1415926535897931 $265 3.1415926535897931 $106 $266 forward @7 unknown #
loop $-1 -1 $-1 $-1 $267 $107 #
plane-surface $-1 -1 $-1 85 60.000000000000007 0 0 0 1 1 0 0 forward_v I I I I #
coedge $-1 -1 $-1 $170 $170 $111 $172 reversed $108 $-1 #
coedge $-1 -1 $-1 $171 $171 $267 $268 reversed $110 $-1 #
edge $-1 -1 $-1 $269 -3.141592653589786 $269 3.1415926535898002 $111 $270 forward @7 unknown #
loop $-1 -1 $-1 $-1 $271 $112 #
plane-surface $-1 -1 $-1 95 15 0 0 0 1 1 0 0 forward_v I I I I #
coedge $-1 -1 $-1 $175 $175 $116 $177 reversed $113 $-1 #
coedge $-1 -1 $-1 $176 $176 $271 $272 reversed $115 $-1 #
edge $-1 -1 $-1 $273 -3.1415926535897949 $273 3.1415926535897913 $116 $274 forward @7 unknown #
model_id-kcp-attrib $-1 -1 $-1 $-1 $118 1 1021570535 1021570535 -1962737663 6 #
face $275 -1 $-1 $276 $277 $11 $-1 $278 forward single #
loop $-1 -1 $-1 $-1 $279 $118 #
plane-surface $-1 -1 $-1 95.33234841870825 62.299999999999997 0 0.86602540378443871 0.50000000000000011 0 -0.5 0.8660254037844386 0 forward_v I I I I #
coedge $-1 -1 $-1 $280 $215 $281 $282 forward $119 $-1 #
coedge $-1 -1 $-1 $123 $121 $283 $284 reversed $79 $-1 #
coedge $-1 -1 $-1 $215 $280 $121 $185 reversed $119 $-1 #
edge $285 -1 $-1 $218 0 $286 1.524 $121 $287 forward @7 unknown #
coedge $-1 -1 $-1 $283 $288 $122 $187 forward $289 $-1 #
edge $290 -1 $-1 $291 0 $189 34.641016151377549 $186 $292 forward @7 unknown #
attrib_edge_convexity-kcp-attrib $-1 -1 $293 $-1 $124 1 #
vertex $-1 -1 $-1 $284 $294 #
straight-curve $-1 -1 $-1 120 30 0 0 0 1 I I #
loop $-1 -1 $-1 $-1 $295 $30 #
coedge $-1 -1 $-1 $296 $296 $297 $298 reversed $125 $-1 #
coedge $-1 -1 $-1 $126 $126 $299 $300 reversed $82 $-1 #
coedge $-1 -1 $-1 $301 $302 $126 $195 forward $303 $-1 #
edge $304 -1 $-1 $305 0 $306 3.1415926535897931 $126 $307 forward @7 unknown #
coedge $-1 -1 $-1 $308 $309 $127 $197 forward $310 $-1 #
edge $311 -1 $-1 $203 0 $202 3.1415926535897931 $127 $312 forward @7 unknown #
coedge $-1 -1 $-1 $313 $128 $309 $314 reversed $200 $-1 #
coedge $-1 -1 $-1 $128 $313 $308 $315 forward $200 $-1 #
loop $-1 -1 $-1 $-1 $198 $316 #
attrib_edge_convexity-kcp-attrib $-1 -1 $317 $-1 $129 1 #
vertex $-1 -1 $-1 $197 $318 #
vertex $-1 -1 $-1 $197 $319 #
ellipse-curve $-1 -1 $-1 8 70 0 0 0 -1 2 0 0 1 I I #
coedge $-1 -1 $-1 $214 $130 $320 $321 reversed $44 $-1 #
coedge $-1 -1 $-1 $322 $323 $130 $207 forward $324 $-1 #
edge $325 -1 $-1 $326 0 $212 75 $130 $327 forward @7 unknown #
coedge $-1 -1 $-1 $328 $131 $136 $220 forward $210 $-1 #
coedge $-1 -1 $-1 $131 $328 $322 $329 reversed $210 $-1 #
loop $-1 -1 $-1 $-1 $208 $330 #
attrib_edge_convexity-kcp-attrib $-1 -1 $331 $-1 $132 1 #
vertex $-1 -1 $-1 $207 $332 #
straight-curve $-1 -1 $-1 0 0 0 1 0 0 I I #
coedge $-1 -1 $-1 $133 $205 $333 $334 reversed $44 $-1 #
coedge $-1 -1 $-1 $182 $184 $133 $216 forward $119 $-1 #
edge $335 -1 $-1 $218 0 $336 24.66765158129175 $133 $337 forward @7 unknown #
attrib_edge_convexity-kcp-attrib $-1 -1 $338 $-1 $135 1 #
vertex $-1 -1 $-1 $135 $339 #
straight-curve $-1 -1 $-1 120 30 0 0 1 0 I I #
edge $340 -1 $-1 $138 0 $291 1.524 $208 $341 forward @7 unknown #
convexity-sys-attrib $-1 -1 $-1 $137 $87 #
point $-1 -1 $-1 102.67949192431122 0 0 #
point $-1 -1 $-1 120 30 0 #
model_id-kcp-attrib $-1 -1 $-1 $-1 $142 1 1021570535 1021570535 -1962082302 5 #
face $342 -1 $-1 $343 $344 $31 $-1 $345 reversed single #
loop $-1 -1 $-1 $-1 $346 $142 #
plane-surface $-1 -1 $-1 -60 0 0 1 0 0 0 0 -1 forward_v I I I I #
coedge $-1 -1 $-1 $347 $236 $348 $349 forward $143 $-1 #
coedge $-1 -1 $-1 $350 $145 $347 $351 forward $90 $-1 #
coedge $-1 -1 $-1 $145 $350 $352 $353 forward $90 $-1 #
coedge $-1 -1 $-1 $239 $238 $145 $232 reversed $240 $-1 #
edge $-1 -1 $-1 $354 -37.5 $355 37.5 $231 $356 forward @7 unknown #
coedge $-1 -1 $-1 $147 $146 $357 $358 forward $60 $-1 #
coedge $-1 -1 $-1 $359 $360 $146 $235 reversed $344 $-1 #
edge $-1 -1 $-1 $242 -60 $361 60 $234 $362 forward @7 unknown #
coedge $-1 -1 $-1 $228 $363 $147 $237 reversed $143 $-1 #
edge $-1 -1 $-1 $364 -60 $241 60 $236 $365 forward @7 unknown #
coedge $-1 -1 $-1 $231 $148 $363 $366 forward $240 $-1 #
coedge $-1 -1 $-1 $148 $231 $359 $367 reversed $240 $-1 #
loop $-1 -1 $-1 $-1 $238 $343 #
vertex $-1 -1 $-1 $149 $368 #
vertex $-1 -1 $-1 $149 $369 #
straight-curve $-1 -1 $-1 60 0 0.76200000000000001 0 1 0 I I #
face $-1 -1 $-1 $-1 $370 $33 $-1 $371 reversed single #
loop $-1 -1 $-1 $-1 $372 $150 #
plane-surface $-1 -1 $-1 0 0 0.76200000000000001 0 0 1 1 0 0 forward_v I I I I #
coedge $-1 -1 $-1 $373 $153 $254 $374 reversed $94 $-1 #
coedge $-1 -1 $-1 $153 $373 $375 $376 reversed $94 $-1 #
edge $377 -1 $-1 $257 -0.76200000000000001 $378 0.76200000000000001 $153 $379 forward @7 unknown #
coedge $-1 -1 $-1 $155 $154 $372 $380 forward $63 $-1 #
coedge $-1 -1 $-1 $381 $382 $155 $252 reversed $370 $-1 #
edge $383 -1 $-1 $384 -0.76200000000000001 $256 0.76200000000000001 $251 $385 forward @7 unknown #
coedge $-1 -1 $-1 $254 $156 $382 $386 forward $151 $-1 #
coedge $-1 -1 $-1 $156 $253 $247 $374 forward $151 $-1 #
convexity-sys-attrib $-1 -1 $-1 $-1 $157 #
vertex $-1 -1 $-1 $386 $387 #
vertex $-1 -1 $-1 $157 $388 #
straight-curve $-1 -1 $-1 49.79367061317366 -25.177881056766591 -0.76200000000000001 -0.50000000000000011 -0.86602540378443871 0 I I #
coedge $-1 -1 $-1 $259 $259 $161 $260 forward $158 $-1 #
edge $-1 -1 $-1 $389 -3.1415926535897931 $389 3.1415926535897931 $161 $390 forward @7 unknown #
vertex $-1 -1 $-1 $162 $391 #
ellipse-curve $-1 -1 $-1 8 70 1.524 0 0 -1 -2 0 0 1 I I #
coedge $-1 -1 $-1 $263 $263 $166 $264 forward $163 $-1 #
edge $-1 -1 $-1 $392 -3.1415926535897931 $392 3.1415926535897931 $166 $393 forward @7 unknown #
vertex $-1 -1 $-1 $167 $394 #
ellipse-curve $-1 -1 $-1 15 15 1.524 0 0 -1 -2 0 0 1 I I #
coedge $-1 -1 $-1 $267 $267 $171 $268 forward $168 $-1 #
edge $-1 -1 $-1 $395 -3.1415926535897931 $395 3.1415926535897931 $171 $396 forward @7 unknown #
vertex $-1 -1 $-1 $172 $397 #
ellipse-curve $-1 -1 $-1 85 60.000000000000007 1.524 0 0 -1 -2 -7.1054273576010019e-015 0 1 I I #
coedge $-1 -1 $-1 $271 $271 $176 $272 forward $173 $-1 #
edge $-1 -1 $-1 $398 -3.1415926535897949 $398 3.1415926535897913 $176 $399 forward @7 unknown #
vertex $-1 -1 $-1 $177 $400 #
ellipse-curve $-1 -1 $-1 95 14.999999999999998 1.524 0 0 -1 -2 1.7763568394002505e-015 0 1 I I #
model_id-kcp-attrib $-1 -1 $-1 $-1 $179 1 1021570535 1021570535 -1962737663 7 #
face $401 -1 $-1 $330 $324 $11 $-1 $402 forward single #
loop $-1 -1 $-1 $-1 $403 $179 #
plane-surface $-1 -1 $-1 88 75 0 0 1 0 -1 0 0 forward_v I I I I #
coedge $-1 -1 $-1 $404 $333 $405 $406 forward $180 $-1 #
coedge $-1 -1 $-1 $184 $182 $407 $408 reversed $119 $-1 #
coedge $-1 -1 $-1 $333 $404 $182 $282 reversed $180 $-1 #
edge $409 -1 $-1 $336 0 $410 1.524 $182 $411 forward @7 unknown #
coedge $-1 -1 $-1 $407 $186 $183 $284 forward $289 $-1 #
edge $412 -1 $-1 $189 0 $286 32.299999999999997 $283 $413 forward @7 unknown #
attrib_edge_convexity-kcp-attrib $-1 -1 $414 $-1 $185 1 #
vertex $-1 -1 $-1 $284 $415 #
straight-curve $-1 -1 $-1 120 62.299999999999997 0 0 0 1 I I #
coedge $-1 -1 $-1 $186 $416 $328 $417 forward $289 $-1 #
loop $-1 -1 $-1 $418 $407 $419 #
attrib_edge_convexity-kcp-attrib $-1 -1 $420 $-1 $187 1 #
vertex $-1 -1 $-1 $187 $421 #
straight-curve $-1 -1 $-1 102.67949192431122 0 1.524 0.50000000000000011 0.8660254037844386 0 I I #
convexity-sys-attrib $-1 -1 $-1 $188 $124 #
point $-1 -1 $-1 120 30 1.524 #
coedge $-1 -1 $-1 $422 $422 $423 $424 reversed $191 $-1 #
coedge $-1 -1 $-1 $192 $192 $425 $426 reversed $125 $-1 #
coedge $-1 -1 $-1 $427 $428 $192 $298 forward $429 $-1 #
edge $430 -1 $-1 $431 0 $432 3.1415926535897931 $192 $433 forward @7 unknown #
coedge $-1 -1 $-1 $434 $435 $193 $300 forward $436 $-1 #
edge $437 -1 $-1 $306 0 $305 3.1415926535897931 $193 $438 forward @7 unknown #
coedge $-1 -1 $-1 $439 $194 $435 $440 reversed $303 $-1 #
coedge $-1 -1 $-1 $194 $439 $434 $441 forward $303 $-1 #
loop $-1 -1 $-1 $-1 $301 $442 #
attrib_edge_convexity-kcp-attrib $-1 -1 $443 $-1 $195 1 #
vertex $-1 -1 $-1 $300 $444 #
vertex $-1 -1 $-1 $300 $445 #
ellipse-curve $-1 -1 $-1 15 15 0 0 0 -1 2 0 0 1 I I #
coedge $-1 -1 $-1 $446 $196 $199 $315 reversed $310 $-1 #
coedge $-1 -1 $-1 $196 $446 $198 $314 forward $310 $-1 #
loop $-1 -1 $-1 $-1 $308 $447 #
attrib_edge_convexity-kcp-attrib $-1 -1 $448 $-1 $197 1 #
ellipse-curve $-1 -1 $-1 8 70 0 0 0 -1 -2 0 0 1 I I #
coedge $-1 -1 $-1 $199 $198 $449 $450 reversed $200 $-1 #
edge $-1 -1 $-1 $451 0 $203 1.524 $309 $452 forward @7 unknown #
edge $-1 -1 $-1 $453 0 $202 1.524 $308 $454 forward @7 unknown #
face $455 -1 $-1 $447 $200 $11 $-1 $456 reversed single #
convexity-sys-attrib $-1 -1 $-1 $201 $129 #
point $-1 -1 $-1 10 70 0 #
point $-1 -1 $-1 6 70 0 #
coedge $-1 -1 $-1 $403 $405 $205 $321 forward $277 $-1 #
edge $457 -1 $-1 $458 0 $326 88 $205 $459 forward @7 unknown #
coedge $-1 -1 $-1 $460 $206 $209 $329 forward $324 $-1 #
coedge $-1 -1 $-1 $206 $460 $403 $461 reversed $324 $-1 #
loop $-1 -1 $-1 $-1 $322 $276 #
attrib_edge_convexity-kcp-attrib $-1 -1 $462 $-1 $207 1 #
vertex $-1 -1 $-1 $321 $463 #
straight-curve $-1 -1 $-1 0 75 0 0 -1 0 I I #
coedge $-1 -1 $-1 $209 $208 $288 $417 reversed $210 $-1 #
edge $-1 -1 $-1 $212 0 $464 1.524 $322 $465 forward @7 unknown #
face $466 -1 $-1 $419 $210 $11 $-1 $467 forward single #
convexity-sys-attrib $-1 -1 $-1 $211 $132 #
point $-1 -1 $-1 0 0 0 #
coedge $-1 -1 $-1 $279 $281 $214 $334 forward $180 $-1 #
edge $468 -1 $-1 $336 0 $458 14.6646968374165 $214 $469 forward @7 unknown #
attrib_edge_convexity-kcp-attrib $-1 -1 $470 $-1 $216 1 #
vertex $-1 -1 $-1 $216 $471 #
straight-curve $-1 -1 $-1 120 62.299999999999997 0 -1 0 0 I I #
convexity-sys-attrib $-1 -1 $-1 $217 $135 #
point $-1 -1 $-1 120 62.299999999999997 0 #
attrib_edge_convexity-kcp-attrib $-1 -1 $472 $-1 $220 1 #
straight-curve $-1 -1 $-1 102.67949192431122 0 0 0 0 1 I I #
model_id-kcp-attrib $-1 -1 $-1 $-1 $225 1 1021570535 1021570535 -1962082302 4 #
face $473 -1 $-1 $-1 $240 $31 $-1 $474 reversed single #
loop $-1 -1 $-1 $-1 $359 $225 #
plane-surface $-1 -1 $-1 0 37.5 0 0 -1 0 0 0 -1 forward_v I I I I #
coedge $-1 -1 $-1 $475 $357 $360 $476 forward $226 $-1 #
coedge $-1 -1 $-1 $363 $228 $229 $351 reversed $143 $-1 #
coedge $-1 -1 $-1 $357 $475 $228 $349 reversed $226 $-1 #
edge $-1 -1 $-1 $364 -0.76200000000000001 $477 0.76200000000000001 $348 $478 forward @7 unknown #
coedge $-1 -1 $-1 $230 $229 $475 $479 forward $90 $-1 #
edge $-1 -1 $-1 $355 -60 $477 60 $347 $480 forward @7 unknown #
coedge $-1 -1 $-1 $360 $359 $230 $353 reversed $344 $-1 #
edge $-1 -1 $-1 $481 -60 $354 60 $352 $482 forward @7 unknown #
vertex $-1 -1 $-1 $232 $483 #
vertex $-1 -1 $-1 $366 $484 #
straight-curve $-1 -1 $-1 60 0 -0.76200000000000001 0 -1 0 I I #
coedge $-1 -1 $-1 $346 $348 $233 $358 reversed $226 $-1 #
edge $-1 -1 $-1 $361 -37.5 $364 37.5 $357 $485 forward @7 unknown #
coedge $-1 -1 $-1 $352 $234 $239 $367 forward $344 $-1 #
coedge $-1 -1 $-1 $234 $352 $346 $476 reversed $344 $-1 #
vertex $-1 -1 $-1 $235 $486 #
straight-curve $-1 -1 $-1 0 37.5 0.76200000000000001 -1 0 0 I I #
coedge $-1 -1 $-1 $236 $347 $238 $366 reversed $143 $-1 #
vertex $-1 -1 $-1 $358 $487 #
straight-curve $-1 -1 $-1 0 -37.5 0.76200000000000001 1 0 0 I I #
edge $-1 -1 $-1 $241 -0.76200000000000001 $355 0.76200000000000001 $238 $488 forward @7 unknown #
edge $-1 -1 $-1 $242 -0.76200000000000001 $354 0.76200000000000001 $239 $489 forward @7 unknown #
point $-1 -1 $-1 60 -37.5 0.76200000000000001 #
point $-1 -1 $-1 60 37.5 0.76200000000000001 #
loop $-1 -1 $-1 $-1 $251 $244 #
plane-surface $-1 -1 $-1 60 0 0 -1 0 0 0 0 1 forward_v I I I I #
coedge $-1 -1 $-1 $375 $490 $250 $380 reversed $245 $-1 #
coedge $-1 -1 $-1 $248 $247 $491 $492 reversed $94 $-1 #
edge $-1 -1 $-1 $493 -60 $257 -42.679491924311257 $247 $494 forward @7 unknown #
coedge $-1 -1 $-1 $490 $372 $248 $376 forward $245 $-1 #
edge $-1 -1 $-1 $378 42.679491924311257 $495 60 $248 $496 forward @7 unknown #
convexity-sys-attrib $-1 -1 $-1 $-1 $249 #
vertex $-1 -1 $-1 $376 $497 #
straight-curve $-1 -1 $-1 42.679491924311264 -37.5 0 0 0 1 I I #
edge $498 -1 $-1 $378 -14.228357377724798 $384 20.412658773652684 $372 $499 forward @7 unknown #
coedge $-1 -1 $-1 $491 $251 $490 $500 reversed $370 $-1 #
coedge $-1 -1 $-1 $251 $491 $253 $386 reversed $370 $-1 #
convexity-sys-attrib $-1 -1 $-1 $-1 $252 #
vertex $-1 -1 $-1 $252 $501 #
straight-curve $-1 -1 $-1 60 -7.5000000000000613 0 0 0 -1 I I #
edge $-1 -1 $-1 $256 7.5000000000000586 $493 37.5 $382 $502 forward @7 unknown #
point $-1 -1 $-1 60 -7.5000000000000586 -0.76200000000000001 #
point $-1 -1 $-1 42.679491924311257 -37.5 -0.76200000000000001 #
vertex $-1 -1 $-1 $260 $503 #
ellipse-curve $-1 -1 $-1 8 70 0 0 0 -1 2 0 0 1 I I #
point $-1 -1 $-1 10 70 1.524 #
vertex $-1 -1 $-1 $264 $504 #
ellipse-curve $-1 -1 $-1 15 15 0 0 0 -1 2 0 0 1 I I #
point $-1 -1 $-1 17 15 1.524 #
vertex $-1 -1 $-1 $268 $505 #
ellipse-curve $-1 -1 $-1 85 60 0 0 0 -1 2 0 0 1 I I #
point $-1 -1 $-1 87 60 1.524 #
vertex $-1 -1 $-1 $272 $506 #
ellipse-curve $-1 -1 $-1 95 15.000000000000002 0 0 0 -1 2 -1.7763568394002505e-015 0 1 I I #
point $-1 -1 $-1 97 15 1.524 #
model_id-kcp-attrib $-1 -1 $-1 $-1 $276 1 1021570535 1021570535 -1962737663 8 #
plane-surface $-1 -1 $-1 0 75 0 -1 0 0 0 -1 0 forward_v I I I I #
coedge $-1 -1 $-1 $507 $320 $323 $461 forward $277 $-1 #
coedge $-1 -1 $-1 $281 $279 $508 $509 reversed $180 $-1 #
coedge $-1 -1 $-1 $320 $507 $279 $406 reversed $277 $-1 #
edge $510 -1 $-1 $458 0 $511 1.524 $279 $512 forward @7 unknown #
coedge $-1 -1 $-1 $508 $283 $280 $408 forward $289 $-1 #
edge $513 -1 $-1 $286 0 $410 24.66765158129175 $407 $514 forward @7 unknown #
attrib_edge_convexity-kcp-attrib $-1 -1 $515 $-1 $282 2 #
vertex $-1 -1 $-1 $509 $516 #
straight-curve $-1 -1 $-1 95.33234841870825 62.299999999999997 0 0 0 1 I I #
attrib_edge_convexity-kcp-attrib $-1 -1 $517 $-1 $284 1 #
straight-curve $-1 -1 $-1 120 30 1.524 0 1 0 I I #
convexity-sys-attrib $-1 -1 $-1 $285 $185 #
point $-1 -1 $-1 120 62.299999999999997 1.524 #
coedge $-1 -1 $-1 $288 $518 $460 $519 forward $289 $-1 #
edge $-1 -1 $-1 $464 0 $291 102.67949192431122 $288 $520 forward @7 unknown #
loop $-1 -1 $-1 $521 $449 $419 #
face $522 -1 $-1 $316 $289 $11 $-1 $523 forward single #
convexity-sys-attrib $-1 -1 $-1 $290 $187 #
point $-1 -1 $-1 102.67949192431122 0 1.524 #
coedge $-1 -1 $-1 $295 $295 $524 $525 reversed $191 $-1 #
coedge $-1 -1 $-1 $526 $527 $295 $424 forward $528 $-1 #
edge $529 -1 $-1 $530 0 $531 3.1415926535897913 $295 $532 forward @7 unknown #
coedge $-1 -1 $-1 $533 $534 $296 $426 forward $535 $-1 #
edge $536 -1 $-1 $432 0 $431 3.1415926535898002 $296 $537 forward @7 unknown #
coedge $-1 -1 $-1 $538 $297 $534 $539 reversed $429 $-1 #
coedge $-1 -1 $-1 $297 $538 $533 $540 forward $429 $-1 #
loop $-1 -1 $-1 $-1 $427 $541 #
attrib_edge_convexity-kcp-attrib $-1 -1 $542 $-1 $298 1 #
vertex $-1 -1 $-1 $426 $543 #
vertex $-1 -1 $-1 $426 $544 #
ellipse-curve $-1 -1 $-1 85 60 0 0 0 -1 2 0 0 1 I I #
coedge $-1 -1 $-1 $545 $299 $302 $441 reversed $436 $-1 #
coedge $-1 -1 $-1 $299 $545 $301 $440 forward $436 $-1 #
loop $-1 -1 $-1 $-1 $434 $546 #
attrib_edge_convexity-kcp-attrib $-1 -1 $547 $-1 $300 1 #
ellipse-curve $-1 -1 $-1 15 15 0 0 0 -1 -2 0 0 1 I I #
coedge $-1 -1 $-1 $302 $301 $548 $549 reversed $303 $-1 #
edge $-1 -1 $-1 $550 0 $306 1.524 $435 $551 forward @7 unknown #
edge $-1 -1 $-1 $552 0 $305 1.524 $434 $553 forward @7 unknown #
face $554 -1 $-1 $546 $303 $11 $-1 $555 reversed single #
convexity-sys-attrib $-1 -1 $-1 $304 $195 #
point $-1 -1 $-1 17 15 0 #
point $-1 -1 $-1 13 15 0 #
coedge $-1 -1 $-1 $309 $308 $556 $557 reversed $310 $-1 #
face $558 -1 $-1 $442 $310 $11 $-1 $559 reversed single #
convexity-sys-attrib $-1 -1 $-1 $311 $197 #
coedge $-1 -1 $-1 $556 $556 $313 $450 forward $418 $-1 #
edge $-1 -1 $-1 $453 0 $451 3.1415926535897931 $449 $560 forward @7 unknown #
vertex $-1 -1 $-1 $557 $561 #
straight-curve $-1 -1 $-1 6 70 1.524 0 0 -1 I I #
vertex $-1 -1 $-1 $557 $562 #
straight-curve $-1 -1 $-1 10 70 1.524 0 0 -1 I I #
model_id-kcp-attrib $-1 -1 $-1 $-1 $316 1 1021570535 1021570535 -1962737663 11 #
cone-surface $-1 -1 $-1 8 70 1.524 0 0 -1 -2 0 0 1 I I 0 1 2 forward I I I I #
attrib_edge_convexity-kcp-attrib $-1 -1 $563 $-1 $321 1 #
vertex $-1 -1 $-1 $334 $564 #
straight-curve $-1 -1 $-1 88 75 0 -1 0 0 I I #
coedge $-1 -1 $-1 $323 $322 $416 $519 reversed $324 $-1 #
edge $565 -1 $-1 $326 0 $566 1.524 $403 $567 forward @7 unknown #
convexity-sys-attrib $-1 -1 $-1 $325 $207 #
point $-1 -1 $-1 0 75 0 #
vertex $-1 -1 $-1 $417 $568 #
straight-curve $-1 -1 $-1 0 0 0 0 0 1 I I #
model_id-kcp-attrib $-1 -1 $-1 $-1 $330 1 1021570535 1021570535 -1962737663 9 #
plane-surface $-1 -1 $-1 0 0 0 0 -1 0 1 0 0 forward_v I I I I #
attrib_edge_convexity-kcp-attrib $-1 -1 $569 $-1 $334 1 #
straight-curve $-1 -1 $-1 95.33234841870825 62.299999999999997 0 -0.50000000000000011 0.8660254037844386 0 I I #
convexity-sys-attrib $-1 -1 $-1 $335 $216 #
point $-1 -1 $-1 95.33234841870825 62.299999999999997 0 #
convexity-sys-attrib $-1 -1 $-1 $340 $220 #
model_id-kcp-attrib $-1 -1 $-1 $-1 $343 1 1021570535 1021570535 -1962082302 3 #
plane-surface $-1 -1 $-1 60 0 0 -1 0 0 0 0 1 forward_v I I I I #
coedge $-1 -1 $-1 $348 $346 $350 $479 reversed $226 $-1 #
edge $-1 -1 $-1 $361 -0.76200000000000001 $481 0.76200000000000001 $360 $570 forward @7 unknown #
vertex $-1 -1 $-1 $479 $571 #
straight-curve $-1 -1 $-1 -60 -37.5 0 0 0 -1 I I #
edge $-1 -1 $-1 $477 -37.5 $481 37.5 $475 $572 forward @7 unknown #
straight-curve $-1 -1 $-1 0 -37.5 -0.76200000000000001 -1 0 0 I I #
vertex $-1 -1 $-1 $353 $573 #
straight-curve $-1 -1 $-1 0 37.5 -0.76200000000000001 1 0 0 I I #
point $-1 -1 $-1 60 37.5 -0.76200000000000001 #
point $-1 -1 $-1 60 -37.5 -0.76200000000000001 #
straight-curve $-1 -1 $-1 -60 0 0.76200000000000001 0 -1 0 I I #
point $-1 -1 $-1 -60 37.5 0.76200000000000001 #
point $-1 -1 $-1 -60 -37.5 0.76200000000000001 #
straight-curve $-1 -1 $-1 60 -37.5 0 0 0 -1 I I #
straight-curve $-1 -1 $-1 60 37.5 0 0 0 -1 I I #
coedge $-1 -1 $-1 $372 $375 $381 $500 forward $245 $-1 #
coedge $-1 -1 $-1 $382 $381 $373 $492 forward $370 $-1 #
edge $-1 -1 $-1 $495 -0.76200000000000001 $493 0.76200000000000001 $491 $574 forward @7 unknown #
vertex $-1 -1 $-1 $492 $575 #
straight-curve $-1 -1 $-1 0 -37.5 -0.76200000000000001 -1 0 0 I I #
vertex $-1 -1 $-1 $500 $576 #
straight-curve $-1 -1 $-1 0 -37.5 0.76200000000000001 1 0 0 I I #
point $-1 -1 $-1 42.679491924311257 -37.5 0.76200000000000001 #
convexity-sys-attrib $-1 -1 $-1 $-1 $380 #
straight-curve $-1 -1 $-1 49.79367061317366 -25.177881056766591 0.76200000000000001 0.50000000000000011 0.86602540378443871 0 I I #
edge $-1 -1 $-1 $495 -37.5 $384 -7.5000000000000586 $381 $577 forward @7 unknown #
point $-1 -1 $-1 60 -7.5000000000000586 0.76200000000000001 #
straight-curve $-1 -1 $-1 60 0 -0.76200000000000001 0 -1 0 I I #
point $-1 -1 $-1 6 70 0 #
point $-1 -1 $-1 13 15 0 #
point $-1 -1 $-1 83 60 0 #
point $-1 -1 $-1 93 15 0 #
coedge $-1 -1 $-1 $405 $403 $518 $578 reversed $277 $-1 #
coedge $-1 -1 $-1 $518 $407 $404 $509 forward $289 $-1 #
edge $579 -1 $-1 $410 0 $511 14.6646968374165 $508 $580 forward @7 unknown #
attrib_edge_convexity-kcp-attrib $-1 -1 $581 $-1 $406 1 #
vertex $-1 -1 $-1 $578 $582 #
straight-curve $-1 -1 $-1 88 75 0 0 0 1 I I #
attrib_edge_convexity-kcp-attrib $-1 -1 $583 $-1 $408 1 #
straight-curve $-1 -1 $-1 120 62.299999999999997 1.524 -1 0 0 I I #
convexity-sys-attrib $-1 -1 $-1 $409 $282 #
point $-1 -1 $-1 95.33234841870825 62.299999999999997 1.524 #
convexity-sys-attrib $-1 -1 $-1 $412 $284 #
coedge $-1 -1 $-1 $416 $508 $507 $578 forward $289 $-1 #
edge $-1 -1 $-1 $566 0 $464 75 $416 $584 forward @7 unknown #
straight-curve $-1 -1 $-1 0 0 1.524 1 0 0 I I #
loop $-1 -1 $-1 $585 $548 $419 #
model_id-kcp-attrib $-1 -1 $-1 $-1 $419 1 1021570535 1021570535 -1962737663 10 #
plane-surface $-1 -1 $-1 0 0 1.524 0 0 1 1 0 0 forward_v I I I I #
coedge $-1 -1 $-1 $586 $587 $422 $525 forward $588 $-1 #
edge $589 -1 $-1 $531 0 $530 3.1415926535897913 $422 $590 forward @7 unknown #
coedge $-1 -1 $-1 $591 $423 $587 $592 reversed $528 $-1 #
coedge $-1 -1 $-1 $423 $591 $586 $593 forward $528 $-1 #
loop $-1 -1 $-1 $-1 $526 $594 #
attrib_edge_convexity-kcp-attrib $-1 -1 $595 $-1 $424 1 #
vertex $-1 -1 $-1 $525 $596 #
vertex $-1 -1 $-1 $525 $597 #
ellipse-curve $-1 -1 $-1 95 15.000000000000002 0 0 0 -1 2 -1.7763568394002505e-015 0 1 I I #
coedge $-1 -1 $-1 $598 $425 $428 $540 reversed $535 $-1 #
coedge $-1 -1 $-1 $425 $598 $427 $539 forward $535 $-1 #
loop $-1 -1 $-1 $-1 $533 $599 #
attrib_edge_convexity-kcp-attrib $-1 -1 $600 $-1 $426 1 #
ellipse-curve $-1 -1 $-1 85 60.000000000000007 0 0 0 -1 -2 -7.1054273576010019e-015 0 1 I I #
coedge $-1 -1 $-1 $428 $427 $601 $602 reversed $429 $-1 #
edge $-1 -1 $-1 $603 0 $432 1.524 $534 $604 forward @7 unknown #
edge $-1 -1 $-1 $605 0 $431 1.524 $533 $606 forward @7 unknown #
face $607 -1 $-1 $599 $429 $11 $-1 $608 reversed single #
convexity-sys-attrib $-1 -1 $-1 $430 $298 #
point $-1 -1 $-1 87 60 0 #
point $-1 -1 $-1 83 60 0 #
coedge $-1 -1 $-1 $435 $434 $609 $610 reversed $436 $-1 #
face $611 -1 $-1 $541 $436 $11 $-1 $612 reversed single #
convexity-sys-attrib $-1 -1 $-1 $437 $300 #
coedge $-1 -1 $-1 $609 $609 $439 $549 forward $521 $-1 #
edge $-1 -1 $-1 $552 0 $550 3.1415926535897931 $548 $613 forward @7 unknown #
vertex $-1 -1 $-1 $610 $614 #
straight-curve $-1 -1 $-1 13 15 1.524 0 0 -1 I I #
vertex $-1 -1 $-1 $610 $615 #
straight-curve $-1 -1 $-1 17 15 1.524 0 0 -1 I I #
model_id-kcp-attrib $-1 -1 $-1 $-1 $442 1 1021570535 1021570535 -1962737663 13 #
cone-surface $-1 -1 $-1 15 15 1.524 0 0 -1 -2 0 0 1 I I 0 1 2 forward I I I I #
coedge $-1 -1 $-1 $449 $449 $446 $557 forward $418 $-1 #
edge $-1 -1 $-1 $451 0 $453 3.1415926535897931 $556 $616 forward @7 unknown #
model_id-kcp-attrib $-1 -1 $-1 $-1 $447 1 1021570535 1021570535 -1962737663 12 #
cone-surface $-1 -1 $-1 8 70 1.524 0 0 -1 -2 0 0 1 I I 0 1 2 forward I I I I #
ellipse-curve $-1 -1 $-1 8 70 1.524 0 0 -1 2 0 0 1 I I #
point $-1 -1 $-1 6 70 1.524 #
point $-1 -1 $-1 10 70 1.524 #
convexity-sys-attrib $-1 -1 $-1 $457 $321 #
point $-1 -1 $-1 88 75 0 #
attrib_edge_convexity-kcp-attrib $-1 -1 $617 $-1 $461 1 #
vertex $-1 -1 $-1 $519 $618 #
straight-curve $-1 -1 $-1 0 75 0 0 0 1 I I #
point $-1 -1 $-1 0 0 1.524 #
convexity-sys-attrib $-1 -1 $-1 $468 $334 #
straight-curve $-1 -1 $-1 -60 37.5 0 0 0 -1 I I #
point $-1 -1 $-1 -60 -37.5 -0.76200000000000001 #
straight-curve $-1 -1 $-1 -60 0 -0.76200000000000001 0 1 0 I I #
point $-1 -1 $-1 -60 37.5 -0.76200000000000001 #
straight-curve $-1 -1 $-1 60 -37.5 0 0 0 -1 I I #
point $-1 -1 $-1 60 -37.5 -0.76200000000000001 #
point $-1 -1 $-1 60 -37.5 0.76200000000000001 #
straight-curve $-1 -1 $-1 60 0 0.76200000000000001 0 1 0 I I #
edge $619 -1 $-1 $511 0 $566 88 $518 $620 forward @7 unknown #
attrib_edge_convexity-kcp-attrib $-1 -1 $621 $-1 $509 1 #
straight-curve $-1 -1 $-1 95.33234841870825 62.299999999999997 1.524 -0.50000000000000011 0.8660254037844386 0 I I #
convexity-sys-attrib $-1 -1 $-1 $510 $406 #
point $-1 -1 $-1 88 75 1.524 #
convexity-sys-attrib $-1 -1 $-1 $513 $408 #
straight-curve $-1 -1 $-1 0 75 1.524 0 -1 0 I I #
loop $-1 -1 $-1 $622 $601 $419 #
coedge $-1 -1 $-1 $623 $524 $527 $593 reversed $588 $-1 #
coedge $-1 -1 $-1 $524 $623 $526 $592 forward $588 $-1 #
loop $-1 -1 $-1 $-1 $586 $624 #
attrib_edge_convexity-kcp-attrib $-1 -1 $625 $-1 $525 1 #
ellipse-curve $-1 -1 $-1 95 14.999999999999998 0 0 0 -1 -2 1.7763568394002505e-015 0 1 I I #
coedge $-1 -1 $-1 $527 $526 $626 $627 reversed $528 $-1 #
edge $-1 -1 $-1 $628 0 $531 1.524 $587 $629 forward @7 unknown #
edge $-1 -1 $-1 $630 0 $530 1.524 $586 $631 forward @7 unknown #
face $632 -1 $-1 $624 $528 $11 $-1 $633 reversed single #
convexity-sys-attrib $-1 -1 $-1 $529 $424 #
point $-1 -1 $-1 97 15 0 #
point $-1 -1 $-1 93 15 0 #
coedge $-1 -1 $-1 $534 $533 $634 $635 reversed $535 $-1 #
face $636 -1 $-1 $594 $535 $11 $-1 $637 reversed single #
convexity-sys-attrib $-1 -1 $-1 $536 $426 #
coedge $-1 -1 $-1 $634 $634 $538 $602 forward $585 $-1 #
edge $-1 -1 $-1 $605 0 $603 3.1415926535897931 $601 $638 forward @7 unknown #
vertex $-1 -1 $-1 $635 $639 #
straight-curve $-1 -1 $-1 83 60 1.524 0 0 -1 I I #
vertex $-1 -1 $-1 $635 $640 #
straight-curve $-1 -1 $-1 87 60 1.524 0 0 -1 I I #
model_id-kcp-attrib $-1 -1 $-1 $-1 $541 1 1021570535 1021570535 -1962737663 15 #
cone-surface $-1 -1 $-1 85 60 1.524 0 0 -1 -2 0 0 1 I I 0 1 2 forward I I I I #
coedge $-1 -1 $-1 $548 $548 $545 $610 forward $521 $-1 #
edge $-1 -1 $-1 $550 0 $552 3.1415926535897931 $609 $641 forward @7 unknown #
model_id-kcp-attrib $-1 -1 $-1 $-1 $546 1 1021570535 1021570535 -1962737663 14 #
cone-surface $-1 -1 $-1 15 15 1.524 0 0 -1 -2 0 0 1 I I 0 1 2 forward I I I I #
ellipse-curve $-1 -1 $-1 15 15 1.524 0 0 -1 2 0 0 1 I I #
point $-1 -1 $-1 13 15 1.524 #
point $-1 -1 $-1 17 15 1.524 #
ellipse-curve $-1 -1 $-1 8 70 1.524 0 0 -1 -2 0 0 1 I I #
convexity-sys-attrib $-1 -1 $-1 $565 $461 #
point $-1 -1 $-1 0 75 1.524 #
attrib_edge_convexity-kcp-attrib $-1 -1 $642 $-1 $578 1 #
straight-curve $-1 -1 $-1 88 75 1.524 -1 0 0 I I #
convexity-sys-attrib $-1 -1 $-1 $579 $509 #
loop $-1 -1 $-1 $-1 $626 $419 #
coedge $-1 -1 $-1 $587 $586 $643 $644 reversed $588 $-1 #
face $645 -1 $-1 $-1 $588 $11 $-1 $646 reversed single #
convexity-sys-attrib $-1 -1 $-1 $589 $525 #
coedge $-1 -1 $-1 $643 $643 $591 $627 forward $622 $-1 #
edge $-1 -1 $-1 $630 0 $628 3.1415926535897931 $626 $647 forward @7 unknown #
vertex $-1 -1 $-1 $644 $648 #
straight-curve $-1 -1 $-1 93 15 1.524 0 0 -1 I I #
vertex $-1 -1 $-1 $644 $649 #
straight-curve $-1 -1 $-1 97 15 1.524 0 0 -1 I I #
model_id-kcp-attrib $-1 -1 $-1 $-1 $594 1 1021570535 1021570535 -1962737663 17 #
cone-surface $-1 -1 $-1 95 15 1.524 0 0 -1 -2 0 0 1 I I 0 1 2 forward I I I I #
coedge $-1 -1 $-1 $601 $601 $598 $635 forward $585 $-1 #
edge $-1 -1 $-1 $603 0 $605 3.1415926535897931 $634 $650 forward @7 unknown #
model_id-kcp-attrib $-1 -1 $-1 $-1 $599 1 1021570535 1021570535 -1962737663 16 #
cone-surface $-1 -1 $-1 85 60 1.524 0 0 -1 -2 0 0 1 I I 0 1 2 forward I I I I #
ellipse-curve $-1 -1 $-1 85 60 1.524 0 0 -1 2 0 0 1 I I #
point $-1 -1 $-1 83 60 1.524 #
point $-1 -1 $-1 87 60 1.524 #
ellipse-curve $-1 -1 $-1 15 15 1.524 0 0 -1 -2 0 0 1 I I #
convexity-sys-attrib $-1 -1 $-1 $619 $578 #
coedge $-1 -1 $-1 $626 $626 $623 $644 forward $622 $-1 #
edge $-1 -1 $-1 $628 0 $630 3.1415926535897931 $643 $651 forward @7 unknown #
model_id-kcp-attrib $-1 -1 $-1 $-1 $624 1 1021570535 1021570535 -1962737663 18 #
cone-surface $-1 -1 $-1 95 15 1.524 0 0 -1 -2 0 0 1 I I 0 1 2 forward I I I I #
ellipse-curve $-1 -1 $-1 95 15 1.524 0 0 -1 2 0 0 1 I I #
point $-1 -1 $-1 93 15 1.524 #
point $-1 -1 $-1 97 15 1.524 #
ellipse-curve $-1 -1 $-1 85 60 1.524 0 0 -1 -2 0 0 1 I I #
ellipse-curve $-1 -1 $-1 95 15 1.524 0 0 -1 -2 0 0 1 I I #
End-of-ACIS-data 