600 0 1 0           
100 GICL Pro/E ACIS Translator - Source: f:/data5/repository/PTC/V18/bboxrev2/boombox/cap100uf.prt - 6 0 13 ACIS 6.0.3 NT 24 Thu Apr 04 13:41:55 2002 
1 9.9999999999999995e-007 1e-010 
body $-1 $1 $-1 $-1 #
lump $-1 $-1 $2 $0 #
shell $-1 $-1 $-1 $3 $-1 $1 #
face $-1 $4 $5 $2 $-1 $6 reversed single #
face $-1 $7 $8 $2 $-1 $9 forward single #
loop $-1 $-1 $10 $3 #
plane-surface $-1 0 0 0 0 0 1 1 0 0 forward_v I I I I #
face $-1 $11 $12 $2 $-1 $13 forward single #
loop $-1 $-1 $14 $4 #
torus-surface $-1 0 0 0.5 0 0 1 5.5 0.5 1 0 0 forward_v I I I I #
coedge $-1 $15 $16 $17 $18 forward $5 $-1 #
face $-1 $19 $20 $2 $-1 $21 reversed single #
loop $-1 $-1 $22 $7 #
cone-surface $-1 -4.5961940777125587 3.8890872965260121 0.5 0.70710678118654713 -0.70710678118654791 0 0 0 -0.5 1 I I 0 1 0.5 forward I I I I #
coedge $-1 $17 $23 $22 $24 forward $8 $-1 #
coedge $-1 $25 $10 $26 $27 forward $5 $-1 #
coedge $-1 $10 $25 $28 $29 forward $5 $-1 #
coedge $-1 $30 $14 $10 $18 reversed $8 $-1 #
edge $-1 $31 -6.6062857663645685e-016 $32 5.3157175877073071 $10 $33 forward 7 unknown #
face $-1 $34 $35 $2 $-1 $36 forward single #
loop $-1 $-1 $37 $11 #
plane-surface $-1 -4.2426406871192848 4.2426406871192857 15 -0.70710678118654779 -0.70710678118654735 0 0.70710678118654735 -0.70710678118654779 0 forward_v I I I I #
coedge $-1 $38 $26 $14 $24 reversed $12 $-1 #
coedge $-1 $14 $30 $39 $40 forward $8 $-1 #
edge $-1 $41 0 $32 1 $22 $42 forward 7 unknown #
coedge $-1 $16 $15 $43 $44 reversed $5 $-1 #
coedge $-1 $22 $45 $15 $27 reversed $12 $-1 #
edge $-1 $32 0 $46 0.050209820513997722 $15 $47 forward 7 unknown #
coedge $-1 $48 $49 $16 $29 reversed $50 $-1 #
edge $-1 $51 0 $31 0.050209820513998693 $16 $52 forward 7 unknown #
coedge $-1 $23 $17 $49 $53 reversed $8 $-1 #
vertex $-1 $29 $54 #
vertex $-1 $27 $55 #
ellipse-curve $-1 1.1102230246251565e-016 5.5511151231257827e-017 0 0 0 -1 0.50000000000000344 5.4772255750516603 0 1 I I #
face $-1 $56 $57 $2 $-1 $58 reversed single #
loop $-1 $-1 $59 $19 #
torus-surface $-1 0 0 14.449999999999999 0 0 1 5.4499999999999993 0.5 0 1 0 forward_v I I I I #
coedge $-1 $60 $61 $62 $63 forward $20 $-1 #
coedge $-1 $45 $22 $64 $65 forward $12 $-1 #
coedge $-1 $66 $67 $23 $40 reversed $68 $-1 #
edge $-1 $69 0 $41 5.497787143782138 $39 $70 forward 7 unknown #
vertex $-1 $40 $71 #
intcurve-curve $-1 forward { surfintcur full nurbs 3 open 8 
	0 3 0.13794472386415002 1 0.2769417539632556 1 0.41733145926615989 1 0.55951950139643447 1 
	0.70387406027571187 1 0.85059166788715135 1 1 3 
	-4.2426406871192848 4.2426406871192857 0.5 1 
	-4.2426532719216805 4.2428635472218961 0.46673985738046403 1 
	-4.2426388918461875 4.2334226646897291 0.40061428545396438 1 
	-4.2425922263455309 4.1893725905509349 0.29993376613612716 0.99999999999999978 
	-4.2422300703482305 4.1142007083298848 0.20631149227070558 0.99999999999999989 
	-4.24115580639205 4.0086885478264698 0.12369962178667107 1 
	-4.2387537106741568 3.8733137564246469 0.057089557816929717 1 
	-4.2343947368224439 3.7102620338803725 0.011449667313363811 1 
	-4.2294709122827348 3.5860507313038701 0.00073397058434958144 0.99999999999999989 
	-4.2265367368006901 3.5194299556141435 0 1 
	0.001 
	torus 0 0 0.5 0 0 1 5.5 0.5 1 0 0 forward_v I I I I 
	cone -4.5961940777125587 3.8890872965260121 0.5 0.70710678118654713 -0.70710678118654791 0 0 0 -0.5 1 I I 0 1 0.5 forward I I I I 
	nullbs 
	nullbs 
	I F 0.99999925321297534 
	0 
	1 0.99999925321297534 
	0 
	} I I #
coedge $-1 $72 $73 $25 $44 forward $74 $-1 #
edge $-1 $51 5.9804960505016366e-016 $46 0.96914277623237799 $25 $75 forward 7 unknown #
coedge $-1 $26 $38 $72 $76 reversed $12 $-1 #
vertex $-1 $44 $77 #
straight-curve $-1 -4.2265367368006901 3.5194299556141431 0 0.70710678118654757 -0.70710678118654757 0 I I #
coedge $-1 $78 $28 $73 $79 forward $50 $-1 #
coedge $-1 $28 $78 $30 $53 forward $50 $-1 #
loop $-1 $-1 $48 $80 #
vertex $-1 $29 $81 #
straight-curve $-1 0.5 5.4270157545376625 0 -1.1055835424821146e-015 1 0 I I #
edge $-1 $69 0 $31 1 $49 $82 forward 7 unknown #
point $-1 0.49999999999999994 5.4772255750516612 0 #
point $-1 -4.2265367368006901 3.5194299556141431 0 #
face $-1 $83 $84 $2 $-1 $85 reversed single #
loop $-1 $-1 $86 $34 #
plane-surface $-1 1.2246063538223773e-015 5 15 1 1.2246063538223773e-015 0 -1.2246063538223773e-015 1 0 forward_v I I I I #
coedge $-1 $87 $88 $89 $90 forward $35 $-1 #
coedge $-1 $64 $37 $91 $92 reversed $20 $-1 #
coedge $-1 $37 $93 $94 $95 reversed $20 $-1 #
coedge $-1 $88 $87 $37 $63 reversed $35 $-1 #
edge $-1 $96 1.8841109504205358e-015 $97 1.5707963267949028 $37 $98 forward 7 unknown #
coedge $-1 $99 $60 $38 $65 reversed $20 $-1 #
edge $-1 $41 0 $100 0.049999999999999906 $64 $101 forward 7 unknown #
coedge $-1 $102 $39 $103 $104 forward $68 $-1 #
coedge $-1 $39 $102 $99 $105 reversed $68 $-1 #
loop $-1 $-1 $67 $106 #
vertex $-1 $104 $107 #
ellipse-curve $-1 0 0 0.5 0 0 -1 1.8369095307335659e-015 6 0 1 I I #
point $-1 -4.2426406871192848 4.2426406871192857 0.5 #
coedge $-1 $108 $43 $45 $76 forward $74 $-1 #
coedge $-1 $43 $108 $48 $79 reversed $74 $-1 #
loop $-1 $-1 $72 $109 #
ellipse-curve $-1 9.9920072216264089e-016 -3.5527136788005009e-015 0 0 0 1 0.50000000000000233 5.427015754537666 0 1 I I #
edge $-1 $46 0 $100 1 $72 $110 forward 7 unknown #
point $-1 -4.1910330322330838 3.483926251046535 0 #
coedge $-1 $49 $48 $111 $112 forward $50 $-1 #
edge $-1 $51 0 $113 1 $48 $114 forward 7 unknown #
face $-1 $109 $50 $2 $-1 $115 forward single #
point $-1 0.5 5.4270157545376625 0 #
intcurve-curve $-1 forward { surfintcur full nurbs 3 open 8 
	0 3 0.13794472386415002 1 0.27694175396325571 1 0.41733145926615989 1 0.55951950139643436 1 
	0.70387406027571175 1 0.85059166788715135 1 1 3 
	1.8369095307335659e-015 6 0.5 1 
	-0.00014868709069856912 6.0001664846889264 0.46673985738046392 0.99999999999999978 
	0.0065168567192843904 5.9934806043811477 0.4006142854539636 1 
	0.037631965362641621 5.9622995007538782 0.29993376613612616 1.0000000000000002 
	0.090530430074158758 5.9088888701192746 0.20631149227070539 0.99999999999999978 
	0.16437917493556939 5.8335208866014687 0.12369962178667236 1.0000000000000002 
	0.25840506976632943 5.7360979154283447 0.057089557816929551 1.0000000000000002 
	0.37061778849197641 5.6177206767635806 0.011449667313364035 1.0000000000000002 
	0.45496677312243472 5.5264083526903187 0.00073397058434963012 0.99999999999999978 
	0.50000000000000355 5.4772255750516603 0 1 
	0.001 
	cone 0.5 5.4270157545376625 0.5 -1.1625691632020241e-015 1 0 0 0 -0.5 1 I I 0 1 0.5 forward I I I I 
	torus 0 0 0.5 0 0 1 5.5 0.5 1 0 0 forward_v I I I I 
	nullbs 
	nullbs 
	I F 0.99999925321297534 
	0 
	1 0.99999925321297534 
	0 
	} I I #
face $-1 $116 $117 $2 $-1 $118 forward single #
loop $-1 $-1 $119 $56 #
cone-surface $-1 0 0 15 0 0 1 0 5 0 1 I I 0 1 5 forward I I I I #
coedge $-1 $120 $121 $122 $123 forward $57 $-1 #
coedge $-1 $62 $59 $124 $125 forward $35 $-1 #
coedge $-1 $59 $62 $126 $127 reversed $35 $-1 #
coedge $-1 $121 $128 $59 $90 reversed $57 $-1 #
edge $-1 $129 1.776356839400252e-015 $130 1.5707963267948983 $89 $131 forward 7 unknown #
coedge $-1 $124 $132 $60 $92 forward $133 $-1 #
edge $-1 $100 0 $97 13.949999999999999 $60 $134 forward 7 unknown #
coedge $-1 $61 $135 $136 $137 reversed $20 $-1 #
coedge $-1 $138 $126 $61 $95 forward $139 $-1 #
edge $-1 $96 0 $140 0.4500000000000004 $61 $141 forward 7 unknown #
vertex $-1 $95 $142 #
vertex $-1 $92 $143 #
ellipse-curve $-1 -3.853731957466684 3.8537319574666848 14.450000000000001 -0.70710678118654779 -0.70710678118654735 1.2560739669470255e-015 1.3322676295501878e-015 -4.4408920985006262e-016 0.49999999999999822 1 I I #
coedge $-1 $144 $64 $67 $105 forward $20 $-1 #
vertex $-1 $65 $145 #
straight-curve $-1 -4.2426406871192848 4.2426406871192857 0.5 0.70710678118654757 -0.70710678118654757 0 I I #
coedge $-1 $67 $66 $146 $147 reversed $68 $-1 #
coedge $-1 $111 $148 $66 $104 reversed $57 $-1 #
edge $-1 $69 0 $149 14 $66 $150 forward 7 unknown #
edge $-1 $41 0 $151 14 $67 $152 forward 7 unknown #
face $-1 $80 $68 $2 $-1 $153 forward single #
point $-1 1.8369095307335659e-015 6 0.5 #
coedge $-1 $73 $72 $132 $154 reversed $74 $-1 #
face $-1 $155 $74 $2 $-1 $156 forward single #
intcurve-curve $-1 forward { surfintcur full nurbs 3 open 8 
	0 3 0.14940840325719423 1 0.29612629818062175 1 0.4404811416958907 1 0.58266915840536548 1 
	0.72305871379007258 1 0.86205542158949366 1 1 3 
	-4.1910330322330829 3.4839262510465359 0 1 
	-4.1939945260986082 3.5505553087310142 0.00073221265022168497 1 
	-4.198964108169486 3.6747843485736755 0.011443338475471097 1.0000000000000002 
	-4.2033630715768666 3.8378671856438413 0.057068082168253799 0.99999999999999978 
	-4.205787081895437 3.9732738730404065 0.12367027152958752 0.99999999999999978 
	-4.2068710436076042 4.0788117849173906 0.20628083577607942 1 
	-4.2072364550810928 4.1540033699209573 0.29990971170158232 1.0000000000000002 
	-4.2072835360649483 4.1980646063166178 0.40060029936254798 1 
	-4.2072980456258744 4.2075081333655424 0.46673481276764783 0.99999999999999978 
	-4.2072853480599575 4.2072853480599584 0.49999999999999994 1 
	0.001 
	cone -4.5961940777125587 3.8890872965260121 0.5 0.70710678118654713 -0.70710678118654791 0 0 0 -0.5 1 I I 0 1 0.5 forward I I I I 
	torus 0 0 0.5 0 0 1 5.4499999999999993 0.5 0 1 0 forward_v I I I I 
	nullbs 
	nullbs 
	F 7.4668144516765261e-007 I 
	0 
	1 7.4668144516765261e-007 
	0 
	} I I #
coedge $-1 $128 $103 $78 $112 reversed $57 $-1 #
edge $-1 $113 -8.8817841970012701e-016 $69 0.049999999999999822 $111 $157 forward 7 unknown #
vertex $-1 $158 $159 #
intcurve-curve $-1 forward { surfintcur full nurbs 3 open 8 
	0 3 0.14940840325719429 1 0.29612629818062192 1 0.44048114169589059 1 0.58266915840536548 1 
	0.72305871379007269 1 0.86205542158949366 1 1 3 
	0.50000000000000333 5.4270157545376625 0 1 
	0.45498023388199466 5.4762237054451832 0.00073221265022167976 1 
	0.37065106257093466 5.5675809271201997 0.011443338475470946 1.0000000000000002 
	0.25844461943902886 5.6860084439632113 0.057068082168254604 1 
	0.16441166669683754 5.7834694649732503 0.12367027152958587 1.0000000000000002 
	0.090551570213575114 5.8588625148109594 0.20628083577607934 1 
	0.037641475500211907 5.9122893793859719 0.29990971170158154 0.99999999999999989 
	0.0065187677403251518 5.9434786697117588 0.40060029936254649 1 
	-0.00014855446536413131 5.9501665115352909 0.46673481276764722 1 
	1.4572815610486289e-015 5.9499999999999993 0.5 1 
	0.001 
	torus 0 0 0.5 0 0 1 5.4499999999999993 0.5 0 1 0 forward_v I I I I 
	cone 0.5 5.4270157545376625 0.5 -1.1625691632020241e-015 1 0 0 0 -0.5 1 I I 0 1 0.5 forward I I I I 
	nullbs 
	nullbs 
	F 7.4668144516764583e-007 I 
	0 
	1 7.4668144516764583e-007 
	0 
	} I I #
cone-surface $-1 0.5 5.4270157545376625 0.5 -1.1625691632020241e-015 1 0 0 0 -0.5 1 I I 0 1 0.5 forward I I I I #
face $-1 $160 $161 $2 $-1 $162 reversed single #
loop $-1 $-1 $163 $83 #
plane-surface $-1 0 0 14.699999999999999 0 0 1 0 1 0 forward_v I I I I #
coedge $-1 $164 $165 $163 $166 reversed $84 $-1 #
coedge $-1 $148 $86 $167 $168 forward $57 $-1 #
coedge $-1 $86 $89 $169 $170 reversed $57 $-1 #
coedge $-1 $165 $171 $86 $123 reversed $84 $-1 #
edge $-1 $172 0 $173 0.050000000000000711 $122 $174 forward 7 unknown #
coedge $-1 $175 $91 $87 $125 reversed $133 $-1 #
edge $-1 $130 2.3463046106848912e-016 $97 0.7853981633974485 $124 $176 forward 7 unknown #
coedge $-1 $94 $169 $88 $127 forward $139 $-1 #
edge $-1 $129 1.2133714331451083e-016 $96 0.78539816339744861 $126 $177 forward 7 unknown #
coedge $-1 $89 $111 $175 $158 forward $57 $-1 #
vertex $-1 $170 $178 #
vertex $-1 $90 $179 #
ellipse-curve $-1 6.7353349460230729e-016 5.4500000000000002 14.449999999999999 -1 -1.2246063538223796e-015 1.3225748621281655e-015 6.6128743106408384e-016 -8.8817841970012523e-016 0.5 1 I I #
coedge $-1 $91 $175 $108 $154 forward $133 $-1 #
loop $-1 $-1 $124 $155 #
straight-curve $-1 -4.2072853480599575 4.2072853480599584 0.5 0 0 1 I I #
coedge $-1 $93 $144 $180 $181 forward $20 $-1 #
coedge $-1 $171 $164 $93 $137 forward $84 $-1 #
edge $-1 $140 0 $182 0.050000000000000711 $136 $183 forward 7 unknown #
coedge $-1 $169 $94 $184 $185 forward $139 $-1 #
loop $-1 $-1 $138 $160 #
vertex $-1 $137 $186 #
straight-curve $-1 -3.853731957466684 3.8537319574666844 14.949999999999999 0.70710678118654757 -0.70710678118654757 0 I I #
point $-1 -3.853731957466684 3.8537319574666844 14.949999999999999 #
point $-1 -4.2072853480599575 4.2072853480599584 14.449999999999999 #
coedge $-1 $135 $99 $187 $188 forward $20 $-1 #
point $-1 -4.2072853480599575 4.2072853480599584 0.5 #
coedge $-1 $189 $187 $102 $147 forward $190 $-1 #
edge $-1 $151 0 $149 5.497787143782138 $102 $191 forward 7 unknown #
coedge $-1 $103 $120 $189 $192 reversed $57 $-1 #
vertex $-1 $147 $193 #
straight-curve $-1 0 6 0.5 0 0 1 I I #
vertex $-1 $147 $194 #
straight-curve $-1 -4.2426406871192848 4.2426406871192857 0.5 0 0 1 I I #
cone-surface $-1 0 0 0 0 0 1 6 0 0 1 I I 0 1 6 forward I I I I #
edge $-1 $113 0 $100 0.7853981633974485 $132 $195 forward 7 unknown #
face $-1 $-1 $133 $2 $-1 $196 forward single #
torus-surface $-1 0 0 0.5 0 0 1 5.4499999999999993 0.5 0 1 0 forward_v I I I I #
straight-curve $-1 6.1230317691118666e-017 5.9500000000000002 0.5 -1.2246063538223777e-015 1 0 I I #
edge $-1 $113 0 $130 13.949999999999999 $128 $197 forward 7 unknown #
point $-1 1.4572815610486289e-015 5.9499999999999993 0.5 #
face $-1 $198 $139 $2 $-1 $199 forward single #
loop $-1 $-1 $200 $116 #
cone-surface $-1 0 0 14.949999999999999 0 0 1 0 5 0 1 I I 0 1 5 forward I I I I #
coedge $-1 $201 $201 $119 $166 forward $117 $-1 #
coedge $-1 $136 $119 $202 $203 forward $84 $-1 #
coedge $-1 $119 $122 $200 $204 reversed $84 $-1 #
edge $-1 $205 -2.8421709430403998e-016 $206 5.4977871437821388 $163 $207 forward 7 unknown #
coedge $-1 $208 $209 $120 $168 reversed $210 $-1 #
edge $-1 $173 0 $211 0.5 $167 $212 forward 7 unknown #
coedge $-1 $126 $138 $121 $170 forward $139 $-1 #
edge $-1 $172 0 $129 0.45000000000000018 $121 $213 forward 7 unknown #
coedge $-1 $122 $136 $208 $214 reversed $84 $-1 #
vertex $-1 $204 $215 #
vertex $-1 $214 $216 #
straight-curve $-1 1.2246063538223773e-015 5 14.949999999999999 -2.4492127076447198e-014 0 1 I I #
coedge $-1 $132 $124 $128 $158 reversed $133 $-1 #
ellipse-curve $-1 0 0 14.449999999999999 0 0 1 1.4572815610486289e-015 5.9499999999999993 0 1 I I #
ellipse-curve $-1 -5.5511151231257827e-016 4.4408920985006262e-016 14.949999999999999 0 0 1 1.8899324379789694e-015 5.4499999999999993 0 1 I I #
point $-1 6.735334946023072e-016 5.4500000000000002 14.949999999999999 #
point $-1 6.1230317691118863e-017 5.9500000000000002 14.449999999999999 #
coedge $-1 $209 $208 $135 $181 reversed $210 $-1 #
edge $-1 $217 0 $182 0.49999999999999939 $180 $218 forward 7 unknown #
vertex $-1 $181 $219 #
straight-curve $-1 -3.5355339059327373 3.5355339059327378 14.949999999999999 0 0 1 I I #
coedge $-1 $202 $200 $138 $185 reversed $161 $-1 #
edge $-1 $140 0 $172 0.78539816339744839 $138 $220 forward 7 unknown #
point $-1 -3.5355339059327373 3.5355339059327378 14.949999999999999 #
coedge $-1 $146 $221 $144 $188 reversed $190 $-1 #
edge $-1 $151 0 $217 1.5707963267948906 $144 $222 forward 7 unknown #
coedge $-1 $221 $146 $148 $192 forward $190 $-1 #
loop $-1 $-1 $189 $223 #
ellipse-curve $-1 0 0 14.5 0 0 1 -4.2426406871192848 4.2426406871192857 0 1 I I #
edge $-1 $149 0 $211 1.5707963267948948 $148 $224 forward 7 unknown #
point $-1 1.8369095307335659e-015 6 14.5 #
point $-1 -4.2426406871192848 4.2426406871192857 14.5 #
ellipse-curve $-1 0 0 0.5 0 0 1 1.4572815610486289e-015 5.9499999999999993 0 1 I I #
cone-surface $-1 0 0 14.949999999999999 0 0 1 0 5.9499999999999993 0 1 I I 0 1 5.9499999999999993 forward I I I I #
straight-curve $-1 6.1230317691118666e-017 5.9500000000000002 0.5 0 0 1 I I #
face $-1 $223 $210 $2 $-1 $225 forward single #
plane-surface $-1 0 0 14.949999999999999 0 0 1 0 1 0 forward_v I I I I #
coedge $-1 $184 $226 $165 $204 forward $161 $-1 #
coedge $-1 $163 $163 $226 $227 forward $117 $-1 #
coedge $-1 $226 $184 $164 $203 reversed $161 $-1 #
edge $-1 $205 0 $140 0.25 $164 $228 forward 7 unknown #
edge $-1 $206 0 $172 0.25 $165 $229 forward 7 unknown #
vertex $-1 $227 $230 #
vertex $-1 $227 $231 #
ellipse-curve $-1 1.2212453270876722e-015 2.4980018054066022e-016 14.699999999999999 0 0 1 -3.535533905932736 3.53553390593274 0 1 I I #
coedge $-1 $180 $167 $171 $214 forward $210 $-1 #
coedge $-1 $167 $180 $221 $232 forward $210 $-1 #
loop $-1 $-1 $209 $198 #
vertex $-1 $168 $233 #
straight-curve $-1 1.2246063538223773e-015 5 15 -1.2246063538223773e-015 1 0 I I #
straight-curve $-1 1.2246063538223773e-015 5 14.949999999999999 -1.2246063538223775e-015 1 0 I I #
edge $-1 $173 0 $182 5.497787143782138 $208 $234 forward 7 unknown #
point $-1 1.2246063538223773e-015 5 14.949999999999999 #
point $-1 1.2246063538223773e-015 5 15 #
vertex $-1 $181 $235 #
straight-curve $-1 -3.8890872965260108 3.8890872965260117 15 0.70710678118654702 -0.70710678118654791 0 I I #
point $-1 -3.5355339059327378 3.5355339059327382 15 #
ellipse-curve $-1 0 0 14.949999999999999 0 0 -1 -3.5355339059327373 3.5355339059327378 0 1 I I #
coedge $-1 $187 $189 $209 $232 reversed $190 $-1 #
ellipse-curve $-1 -3.8890872965260099 3.8890872965260108 14.499999999999998 0.70710678118654757 0.70710678118654757 7.8886090522100699e-031 -0.35355339059327484 0.35355339059327484 1.7763568394002505e-015 1 I I #
face $-1 $106 $190 $2 $-1 $236 forward single #
ellipse-curve $-1 6.1230317691118971e-016 5.4999999999999991 14.5 1 -2.4492127076447478e-015 0 1.2246063538223761e-015 0.50000000000000089 0 1 I I #
plane-surface $-1 0 0 15 0 0 1 1 0 0 forward_v I I I I #
coedge $-1 $200 $202 $201 $227 reversed $161 $-1 #
edge $-1 $206 0 $205 0.7853981633974485 $201 $237 forward 7 unknown #
straight-curve $-1 -3.5355339059327333 3.5355339059327417 14.699999999999999 0 0 1 I I #
straight-curve $-1 1.2246063538223773e-015 5 14.699999999999999 -4.898425415289509e-015 0 1 I I #
point $-1 -3.5355339059327338 3.5355339059327417 14.699999999999999 #
point $-1 1.2246063538223773e-015 5 14.699999999999999 #
edge $-1 $217 0 $211 5.497787143782138 $209 $238 forward 7 unknown #
point $-1 0 5.5 15 #
ellipse-curve $-1 -1.1657341758564144e-015 -5.5511151231257827e-016 15 0 0 -1 2.3903405296787916e-015 5.0000000000000009 0 1 I I #
point $-1 -3.8890872965260108 3.8890872965260117 15 #
torus-surface $-1 0 0 14.5 0 0 1 5.5 0.5 1 0 0 forward_v I I I I #
ellipse-curve $-1 -3.1641356201816961e-015 6.6613381477509392e-015 14.699999999999999 0 0 1 4.3887419740040734e-015 4.9999999999999929 0 1 I I #
ellipse-curve $-1 1.4432899320127035e-015 9.9920072216264089e-016 15 0 0 1 -3.8890872965260121 3.8890872965260108 0 1 I I #
End-of-ACIS-data 