600 0 1 0           
97 GICL ACIS Healer - Source: /gicl/data5/repository/PTC/V18/bboxrev2/boombox/cap100uf.prt.sat - 6 0 18 ACIS 6.0.3 Solaris 24 Sat Apr 13 22:51:39 2002 
1 9.999999999999999547e-07 1.000000000000000036e-10 
body $-1 $1 $-1 $-1 #
lump $-1 $-1 $2 $0 #
shell $-1 $-1 $-1 $3 $-1 $1 #
face $-1 $4 $5 $2 $-1 $6 reversed single #
face $-1 $7 $8 $2 $-1 $9 forward single #
loop $-1 $-1 $10 $3 #
plane-surface $-1 0 0 0 0 0 1 1 0 0 forward_v I I I I #
face $-1 $11 $12 $2 $-1 $13 forward single #
loop $-1 $-1 $14 $4 #
torus-surface $-1 0 0 0.5 0 0 1 5.5 0.5 1 0 0 forward_v I I I I #
coedge $-1 $15 $16 $17 $18 forward $5 $-1 #
face $-1 $19 $20 $2 $-1 $21 reversed single #
loop $-1 $-1 $22 $7 #
cone-surface $-1 -4.596194077712558723 3.88908729652601215 0.5 0.7071067811865471286 -0.7071067811865479058 0 0 0 -0.5 1 I I 0 1 0.5 forward I I I I #
coedge $-1 $17 $23 $22 $24 forward $8 $-1 #
coedge $-1 $25 $10 $26 $27 forward $5 $-1 #
coedge $-1 $10 $25 $28 $29 forward $5 $-1 #
coedge $-1 $30 $14 $10 $18 reversed $8 $-1 #
edge $-1 $31 -6.60628576636456852e-16 $32 5.315717587707307068 $10 $33 forward 7 unknown #
face $-1 $34 $35 $2 $-1 $36 forward single #
loop $-1 $-1 $37 $11 #
plane-surface $-1 -4.24264068711928477 4.242640687119285658 15 -0.7071067811865477948 -0.7071067811865473507 0 0.7071067811865473507 -0.7071067811865477948 0 forward_v I I I I #
coedge $-1 $38 $26 $14 $24 reversed $12 $-1 #
coedge $-1 $14 $30 $39 $40 forward $8 $-1 #
edge $-1 $41 0 $32 1 $22 $42 forward 7 unknown #
coedge $-1 $16 $15 $43 $44 reversed $5 $-1 #
coedge $-1 $22 $45 $15 $27 reversed $12 $-1 #
edge $-1 $32 0 $46 0.05020982051399772161 $15 $47 forward 7 unknown #
coedge $-1 $48 $49 $16 $29 reversed $50 $-1 #
edge $-1 $51 0 $31 0.05020982051399869306 $16 $52 forward 7 unknown #
coedge $-1 $23 $17 $49 $53 reversed $8 $-1 #
vertex $-1 $29 $54 #
vertex $-1 $27 $55 #
ellipse-curve $-1 1.11022302462515654e-16 5.551115123125782702e-17 0 0 0 -1 0.5000000000000034417 5.4772255750516603 0 1 I I #
face $-1 $56 $57 $2 $-1 $58 reversed single #
loop $-1 $-1 $59 $19 #
torus-surface $-1 0 0 14.44999999999999929 0 0 1 5.449999999999999289 0.5 0 1 0 forward_v I I I I #
coedge $-1 $60 $61 $62 $63 forward $20 $-1 #
coedge $-1 $45 $22 $64 $65 forward $12 $-1 #
coedge $-1 $66 $67 $23 $40 reversed $68 $-1 #
edge $-1 $69 0 $41 5.497787143782137953 $39 $70 forward 7 unknown #
vertex $-1 $40 $71 #
intcurve-curve $-1 forward { surfintcur full nurbs 3 open 8 
	0 3 0.1379447238641500206 1 0.2769417539632555991 1 0.4173314592661598876 1 0.559519501396434471 1 
	0.7038740602757118658 1 0.8505916678871513481 1 1 3 
	-4.24264068711928477 4.242640687119285658 0.5 1 
	-4.242653271921680513 4.24286354722189607 0.4667398573804640294 1 
	-4.242638891846187477 4.233422664689729054 0.4006142854539643805 1 
	-4.242592226345530904 4.189372590550934916 0.2999337661361271556 0.999999999999999778 
	-4.24223007034823052 4.114200708329884826 0.2063114922707055821 0.999999999999999889 
	-4.241155806392050032 4.008688547826469772 0.1236996217866710712 1 
	-4.238753710674156849 3.873313756424646925 0.05708955781692971743 1 
	-4.234394736822443939 3.710262033880372456 0.01144966731336381077 1 
	-4.229470912282734751 3.586050731303870087 0.0007339705843495814399 0.999999999999999889 
	-4.226536736800690086 3.519429955614143513 0 1 
	0.001000000000000000021 
	torus 0 0 0.5 0 0 1 5.5 0.5 1 0 0 forward_v I I I I 
	cone -4.596194077712558723 3.88908729652601215 0.5 0.7071067811865471286 -0.7071067811865479058 0 0 0 -0.5 1 I I 0 1 0.5 forward I I I I 
	nullbs 
	nullbs 
	I F 0.9999992532129753364 
	0 
	1 0.9999992532129753364 
	0 
	} I I #
coedge $-1 $72 $73 $25 $44 forward $74 $-1 #
edge $-1 $51 5.980496050501636623e-16 $46 0.9691427762323779893 $25 $75 forward 7 unknown #
coedge $-1 $26 $38 $72 $76 reversed $12 $-1 #
vertex $-1 $44 $77 #
straight-curve $-1 -4.226536736800690086 3.519429955614143068 0 0.7071067811865475727 -0.7071067811865475727 0 I I #
coedge $-1 $78 $28 $73 $79 forward $50 $-1 #
coedge $-1 $28 $78 $30 $53 forward $50 $-1 #
loop $-1 $-1 $48 $80 #
vertex $-1 $29 $81 #
straight-curve $-1 0.5 5.427015754537662495 0 -1.105583542482114614e-15 1 0 I I #
edge $-1 $69 0 $31 1 $49 $82 forward 7 unknown #
point $-1 0.4999999999999999445 5.477225575051661188 0 #
point $-1 -4.226536736800690086 3.519429955614143068 0 #
face $-1 $83 $84 $2 $-1 $85 reversed single #
loop $-1 $-1 $86 $34 #
plane-surface $-1 1.224606353822377258e-15 5 15 1 1.224606353822377258e-15 0 -1.224606353822377258e-15 1 0 forward_v I I I I #
coedge $-1 $87 $88 $89 $90 forward $35 $-1 #
coedge $-1 $64 $37 $91 $92 reversed $20 $-1 #
coedge $-1 $37 $93 $94 $95 reversed $20 $-1 #
coedge $-1 $88 $87 $37 $63 reversed $35 $-1 #
edge $-1 $96 1.884110950420536215e-15 $97 1.570796326794902775 $37 $98 forward 7 unknown #
coedge $-1 $99 $60 $38 $65 reversed $20 $-1 #
edge $-1 $41 0 $100 0.04999999999999990563 $64 $101 forward 7 unknown #
coedge $-1 $102 $39 $103 $104 forward $68 $-1 #
coedge $-1 $39 $102 $99 $105 reversed $68 $-1 #
loop $-1 $-1 $67 $106 #
vertex $-1 $104 $107 #
ellipse-curve $-1 0 0 0.5 0 0 -1 1.836909530733565887e-15 6 0 1 I I #
point $-1 -4.24264068711928477 4.242640687119285658 0.5 #
coedge $-1 $108 $43 $45 $76 forward $74 $-1 #
coedge $-1 $43 $108 $48 $79 reversed $74 $-1 #
loop $-1 $-1 $72 $109 #
ellipse-curve $-1 9.992007221626408864e-16 -3.552713678800500929e-15 0 0 0 1 0.5000000000000023315 5.427015754537666048 0 1 I I #
edge $-1 $46 0 $100 1 $72 $110 forward 7 unknown #
point $-1 -4.191033032233083766 3.483926251046534972 0 #
coedge $-1 $49 $48 $111 $112 forward $50 $-1 #
edge $-1 $51 0 $113 1 $48 $114 forward 7 unknown #
face $-1 $109 $50 $2 $-1 $115 forward single #
point $-1 0.5 5.427015754537662495 0 #
intcurve-curve $-1 forward { surfintcur full nurbs 3 open 8 
	0 3 0.1379447238641500206 1 0.2769417539632557101 1 0.4173314592661598876 1 0.55951950139643436 1 
	0.7038740602757117548 1 0.8505916678871513481 1 1 3 
	1.836909530733565887e-15 6 0.5 1 
	-0.0001486870906985691195 6.000166484688926438 0.4667398573804639184 0.999999999999999778 
	0.00651685671928439042 5.993480604381147714 0.4006142854539636033 1 
	0.03763196536264162145 5.962299500753878156 0.2999337661361261564 1.000000000000000222 
	0.09053043007415875754 5.90888887011927455 0.2063114922707053878 0.999999999999999778 
	0.1643791749355693887 5.833520886601468725 0.1236996217866723619 1.000000000000000222 
	0.2584050697663294316 5.736097915428344685 0.05708955781692955089 1.000000000000000222 
	0.3706177884919764076 5.617720676763580556 0.01144966731336403455 1.000000000000000222 
	0.45496677312243472 5.526408352690318715 0.0007339705843496301205 0.999999999999999778 
	0.5000000000000035527 5.4772255750516603 0 1 
	0.001000000000000000021 
	cone 0.5 5.427015754537662495 0.5 -1.162569163202024111e-15 1 0 0 0 -0.5 1 I I 0 1 0.5 forward I I I I 
	torus 0 0 0.5 0 0 1 5.5 0.5 1 0 0 forward_v I I I I 
	nullbs 
	nullbs 
	I F 0.9999992532129753364 
	0 
	1 0.9999992532129753364 
	0 
	} I I #
face $-1 $116 $117 $2 $-1 $118 forward single #
loop $-1 $-1 $119 $56 #
cone-surface $-1 0 0 15 0 0 1 0 5 0 1 I I 0 1 5 forward I I I I #
coedge $-1 $120 $121 $122 $123 forward $57 $-1 #
coedge $-1 $62 $59 $124 $125 forward $35 $-1 #
coedge $-1 $59 $62 $126 $127 reversed $35 $-1 #
coedge $-1 $121 $128 $59 $90 reversed $57 $-1 #
edge $-1 $129 1.776356839400252042e-15 $130 1.570796326794898556 $89 $131 forward 7 unknown #
coedge $-1 $124 $132 $60 $92 forward $133 $-1 #
edge $-1 $100 0 $97 13.94999999999999929 $60 $134 forward 7 unknown #
coedge $-1 $61 $135 $136 $137 reversed $20 $-1 #
coedge $-1 $138 $126 $61 $95 forward $139 $-1 #
edge $-1 $96 0 $140 0.4500000000000003997 $61 $141 forward 7 unknown #
vertex $-1 $95 $142 #
vertex $-1 $92 $143 #
ellipse-curve $-1 -3.853731957466683955 3.853731957466684843 14.45000000000000107 -0.7071067811865477948 -0.7071067811865473507 1.256073966947025458e-15 1.332267629550187849e-15 -4.440892098500626162e-16 0.4999999999999982236 1 I I #
coedge $-1 $144 $64 $67 $105 forward $20 $-1 #
vertex $-1 $65 $145 #
straight-curve $-1 -4.24264068711928477 4.242640687119285658 0.5 0.7071067811865475727 -0.7071067811865475727 0 I I #
coedge $-1 $67 $66 $146 $147 reversed $68 $-1 #
coedge $-1 $111 $148 $66 $104 reversed $57 $-1 #
edge $-1 $69 0 $149 14 $66 $150 forward 7 unknown #
edge $-1 $41 0 $151 14 $67 $152 forward 7 unknown #
face $-1 $80 $68 $2 $-1 $153 forward single #
point $-1 1.836909530733565887e-15 6 0.5 #
coedge $-1 $73 $72 $132 $154 reversed $74 $-1 #
face $-1 $155 $74 $2 $-1 $156 forward single #
intcurve-curve $-1 forward { surfintcur full nurbs 3 open 8 
	0 3 0.1494084032571942333 1 0.2961262981806217498 1 0.4404811416958906989 1 0.5826691584053654838 1 
	0.7230587137900725825 1 0.8620554215894936645 1 1 3 
	-4.191033032233082878 3.48392625104653586 0 1 
	-4.193994526098608233 3.550555308731014215 0.0007322126502216849686 1 
	-4.198964108169485954 3.67478434857367553 0.01144333847547109734 1.000000000000000222 
	-4.203363071576866616 3.837867185643841328 0.05706808216825379892 0.999999999999999778 
	-4.205787081895437041 3.973273873040406468 0.1236702715295875249 0.999999999999999778 
	-4.206871043607604221 4.078811784917390604 0.2062808357760794187 1 
	-4.207236455081092785 4.154003369920957311 0.2999097117015823155 1.000000000000000222 
	-4.207283536064948315 4.198064606316617819 0.4006002993625479847 1 
	-4.207298045625874394 4.207508133365542413 0.4667348127676478331 0.999999999999999778 
	-4.207285348059957464 4.207285348059958352 0.4999999999999999445 1 
	0.001000000000000000021 
	cone -4.596194077712558723 3.88908729652601215 0.5 0.7071067811865471286 -0.7071067811865479058 0 0 0 -0.5 1 I I 0 1 0.5 forward I I I I 
	torus 0 0 0.5 0 0 1 5.449999999999999289 0.5 0 1 0 forward_v I I I I 
	nullbs 
	nullbs 
	F 7.466814451676526098e-07 I 
	0 
	1 7.466814451676526098e-07 
	0 
	} I I #
coedge $-1 $128 $103 $78 $112 reversed $57 $-1 #
edge $-1 $113 -8.881784197001270073e-16 $69 0.04999999999999982236 $111 $157 forward 7 unknown #
vertex $-1 $158 $159 #
intcurve-curve $-1 forward { surfintcur full nurbs 3 open 8 
	0 3 0.1494084032571942888 1 0.2961262981806219163 1 0.4404811416958905879 1 0.5826691584053654838 1 
	0.7230587137900726935 1 0.8620554215894936645 1 1 3 
	0.5000000000000033307 5.427015754537662495 0 1 
	0.4549802338819946557 5.476223705445183221 0.0007322126502216797644 1 
	0.370651062570934664 5.567580927120199696 0.01144333847547094642 1.000000000000000222 
	0.2584446194390288554 5.686008443963211256 0.05706808216825460384 1 
	0.164411666696837544 5.783469464973250318 0.1236702715295858734 1.000000000000000222 
	0.09055157021357511382 5.858862514810959432 0.2062808357760793354 1 
	0.03764147550021190725 5.912289379385971877 0.2999097117015815384 0.999999999999999889 
	0.006518767740325151841 5.943478669711758755 0.4006002993625464859 1 
	-0.0001485544653641313051 5.950166511535290859 0.4667348127676472225 1 
	1.457281561048628858e-15 5.949999999999999289 0.5 1 
	0.001000000000000000021 
	torus 0 0 0.5 0 0 1 5.449999999999999289 0.5 0 1 0 forward_v I I I I 
	cone 0.5 5.427015754537662495 0.5 -1.162569163202024111e-15 1 0 0 0 -0.5 1 I I 0 1 0.5 forward I I I I 
	nullbs 
	nullbs 
	F 7.466814451676458335e-07 I 
	0 
	1 7.466814451676458335e-07 
	0 
	} I I #
cone-surface $-1 0.5 5.427015754537662495 0.5 -1.162569163202024111e-15 1 0 0 0 -0.5 1 I I 0 1 0.5 forward I I I I #
face $-1 $160 $161 $2 $-1 $162 reversed single #
loop $-1 $-1 $163 $83 #
plane-surface $-1 0 0 14.69999999999999929 0 0 1 0 1 0 forward_v I I I I #
coedge $-1 $164 $165 $163 $166 reversed $84 $-1 #
coedge $-1 $148 $86 $167 $168 forward $57 $-1 #
coedge $-1 $86 $89 $169 $170 reversed $57 $-1 #
coedge $-1 $165 $171 $86 $123 reversed $84 $-1 #
edge $-1 $172 0 $173 0.05000000000000071054 $122 $174 forward 7 unknown #
coedge $-1 $175 $91 $87 $125 reversed $133 $-1 #
edge $-1 $130 2.346304610684891151e-16 $97 0.785398163397448501 $124 $176 forward 7 unknown #
coedge $-1 $94 $169 $88 $127 forward $139 $-1 #
edge $-1 $129 1.213371433145108283e-16 $96 0.785398163397448501 $126 $177 forward 7 unknown #
coedge $-1 $89 $111 $175 $158 forward $57 $-1 #
vertex $-1 $170 $178 #
vertex $-1 $90 $179 #
ellipse-curve $-1 6.735334946023072948e-16 5.450000000000000178 14.44999999999999929 -1 -1.224606353822379625e-15 1.322574862128165506e-15 6.612874310640838378e-16 -8.881784197001252323e-16 0.5 1 I I #
coedge $-1 $91 $175 $108 $154 forward $133 $-1 #
loop $-1 $-1 $124 $155 #
straight-curve $-1 -4.207285348059957464 4.207285348059958352 0.5 0 0 1 I I #
coedge $-1 $93 $144 $180 $181 forward $20 $-1 #
coedge $-1 $171 $164 $93 $137 forward $84 $-1 #
edge $-1 $140 0 $182 0.05000000000000071054 $136 $183 forward 7 unknown #
coedge $-1 $169 $94 $184 $185 forward $139 $-1 #
loop $-1 $-1 $138 $160 #
vertex $-1 $137 $186 #
straight-curve $-1 -3.853731957466683955 3.853731957466684399 14.94999999999999929 0.7071067811865475727 -0.7071067811865475727 0 I I #
point $-1 -3.853731957466683955 3.853731957466684399 14.94999999999999929 #
point $-1 -4.207285348059957464 4.207285348059958352 14.44999999999999929 #
coedge $-1 $135 $99 $187 $188 forward $20 $-1 #
point $-1 -4.207285348059957464 4.207285348059958352 0.5 #
coedge $-1 $189 $187 $102 $147 forward $190 $-1 #
edge $-1 $151 0 $149 5.497787143782137953 $102 $191 forward 7 unknown #
coedge $-1 $103 $120 $189 $192 reversed $57 $-1 #
vertex $-1 $147 $193 #
straight-curve $-1 0 6 0.5 0 0 1 I I #
vertex $-1 $147 $194 #
straight-curve $-1 -4.24264068711928477 4.242640687119285658 0.5 0 0 1 I I #
cone-surface $-1 0 0 0 0 0 1 6 0 0 1 I I 0 1 6 forward I I I I #
edge $-1 $113 0 $100 0.785398163397448501 $132 $195 forward 7 unknown #
face $-1 $-1 $133 $2 $-1 $196 forward single #
torus-surface $-1 0 0 0.5 0 0 1 5.449999999999999289 0.5 0 1 0 forward_v I I I I #
straight-curve $-1 6.12303176911186657e-17 5.950000000000000178 0.5 -1.224606353822377653e-15 1 0 I I #
edge $-1 $113 0 $130 13.94999999999999929 $128 $197 forward 7 unknown #
point $-1 1.457281561048628858e-15 5.949999999999999289 0.5 #
face $-1 $198 $139 $2 $-1 $199 forward single #
loop $-1 $-1 $200 $116 #
cone-surface $-1 0 0 14.94999999999999929 0 0 1 0 5 0 1 I I 0 1 5 forward I I I I #
coedge $-1 $201 $201 $119 $166 forward $117 $-1 #
coedge $-1 $136 $119 $202 $203 forward $84 $-1 #
coedge $-1 $119 $122 $200 $204 reversed $84 $-1 #
edge $-1 $205 -2.842170943040399817e-16 $206 5.497787143782138841 $163 $207 forward 7 unknown #
coedge $-1 $208 $209 $120 $168 reversed $210 $-1 #
edge $-1 $173 0 $211 0.5 $167 $212 forward 7 unknown #
coedge $-1 $126 $138 $121 $170 forward $139 $-1 #
edge $-1 $172 0 $129 0.4500000000000001776 $121 $213 forward 7 unknown #
coedge $-1 $122 $136 $208 $214 reversed $84 $-1 #
vertex $-1 $204 $215 #
vertex $-1 $214 $216 #
straight-curve $-1 1.224606353822377258e-15 5 14.94999999999999929 -2.449212707644719807e-14 0 1 I I #
coedge $-1 $132 $124 $128 $158 reversed $133 $-1 #
ellipse-curve $-1 0 0 14.44999999999999929 0 0 1 1.457281561048628858e-15 5.949999999999999289 0 1 I I #
ellipse-curve $-1 -5.551115123125782702e-16 4.440892098500626162e-16 14.94999999999999929 0 0 1 1.889932437978969403e-15 5.449999999999999289 0 1 I I #
point $-1 6.735334946023071962e-16 5.450000000000000178 14.94999999999999929 #
point $-1 6.123031769111886291e-17 5.950000000000000178 14.44999999999999929 #
coedge $-1 $209 $208 $135 $181 reversed $210 $-1 #
edge $-1 $217 0 $182 0.4999999999999993894 $180 $218 forward 7 unknown #
vertex $-1 $181 $219 #
straight-curve $-1 -3.535533905932737309 3.535533905932737753 14.94999999999999929 0 0 1 I I #
coedge $-1 $202 $200 $138 $185 reversed $161 $-1 #
edge $-1 $140 0 $172 0.78539816339744839 $138 $220 forward 7 unknown #
point $-1 -3.535533905932737309 3.535533905932737753 14.94999999999999929 #
coedge $-1 $146 $221 $144 $188 reversed $190 $-1 #
edge $-1 $151 0 $217 1.570796326794890563 $144 $222 forward 7 unknown #
coedge $-1 $221 $146 $148 $192 forward $190 $-1 #
loop $-1 $-1 $189 $223 #
ellipse-curve $-1 0 0 14.5 0 0 1 -4.24264068711928477 4.242640687119285658 0 1 I I #
edge $-1 $149 0 $211 1.570796326794894782 $148 $224 forward 7 unknown #
point $-1 1.836909530733565887e-15 6 14.5 #
point $-1 -4.24264068711928477 4.242640687119285658 14.5 #
ellipse-curve $-1 0 0 0.5 0 0 1 1.457281561048628858e-15 5.949999999999999289 0 1 I I #
cone-surface $-1 0 0 14.94999999999999929 0 0 1 0 5.949999999999999289 0 1 I I 0 1 5.949999999999999289 forward I I I I #
straight-curve $-1 6.12303176911186657e-17 5.950000000000000178 0.5 0 0 1 I I #
face $-1 $223 $210 $2 $-1 $225 forward single #
plane-surface $-1 0 0 14.94999999999999929 0 0 1 0 1 0 forward_v I I I I #
coedge $-1 $184 $226 $165 $204 forward $161 $-1 #
coedge $-1 $163 $163 $226 $227 forward $117 $-1 #
coedge $-1 $226 $184 $164 $203 reversed $161 $-1 #
edge $-1 $205 0 $140 0.25 $164 $228 forward 7 unknown #
edge $-1 $206 0 $172 0.25 $165 $229 forward 7 unknown #
vertex $-1 $227 $230 #
vertex $-1 $227 $231 #
ellipse-curve $-1 1.221245327087672194e-15 2.498001805406602216e-16 14.69999999999999929 0 0 1 -3.535533905932735976 3.535533905932739973 0 1 I I #
coedge $-1 $180 $167 $171 $214 forward $210 $-1 #
coedge $-1 $167 $180 $221 $232 forward $210 $-1 #
loop $-1 $-1 $209 $198 #
vertex $-1 $168 $233 #
straight-curve $-1 1.224606353822377258e-15 5 15 -1.224606353822377258e-15 1 0 I I #
straight-curve $-1 1.224606353822377258e-15 5 14.94999999999999929 -1.224606353822377455e-15 1 0 I I #
edge $-1 $173 0 $182 5.497787143782137953 $208 $234 forward 7 unknown #
point $-1 1.224606353822377258e-15 5 14.94999999999999929 #
point $-1 1.224606353822377258e-15 5 15 #
vertex $-1 $181 $235 #
straight-curve $-1 -3.889087296526010817 3.889087296526011706 15 0.7071067811865470176 -0.7071067811865479058 0 I I #
point $-1 -3.535533905932737753 3.535533905932738197 15 #
ellipse-curve $-1 0 0 14.94999999999999929 0 0 -1 -3.535533905932737309 3.535533905932737753 0 1 I I #
coedge $-1 $187 $189 $209 $232 reversed $190 $-1 #
ellipse-curve $-1 -3.889087296526009929 3.889087296526010817 14.49999999999999822 0.7071067811865475727 0.7071067811865475727 7.888609052210069884e-31 -0.3535533905932748411 0.3535533905932748411 1.776356839400250465e-15 1 I I #
face $-1 $106 $190 $2 $-1 $236 forward single #
ellipse-curve $-1 6.123031769111897138e-16 5.499999999999999112 14.5 1 -2.449212707644747811e-15 0 1.224606353822376075e-15 0.5000000000000008882 0 1 I I #
plane-surface $-1 0 0 15 0 0 1 1 0 0 forward_v I I I I #
coedge $-1 $200 $202 $201 $227 reversed $161 $-1 #
edge $-1 $206 0 $205 0.785398163397448501 $201 $237 forward 7 unknown #
straight-curve $-1 -3.535533905932733312 3.535533905932741749 14.69999999999999929 0 0 1 I I #
straight-curve $-1 1.224606353822377258e-15 5 14.69999999999999929 -4.898425415289509033e-15 0 1 I I #
point $-1 -3.535533905932733756 3.535533905932741749 14.69999999999999929 #
point $-1 1.224606353822377258e-15 5 14.69999999999999929 #
edge $-1 $217 0 $211 5.497787143782137953 $209 $238 forward 7 unknown #
point $-1 0 5.5 15 #
ellipse-curve $-1 -1.165734175856414367e-15 -5.551115123125782702e-16 15 0 0 -1 2.390340529678791626e-15 5.000000000000000888 0 1 I I #
point $-1 -3.889087296526010817 3.889087296526011706 15 #
torus-surface $-1 0 0 14.5 0 0 1 5.5 0.5 1 0 0 forward_v I I I I #
ellipse-curve $-1 -3.16413562018169614e-15 6.661338147750939243e-15 14.69999999999999929 0 0 1 4.388741974004073398e-15 4.999999999999992895 0 1 I I #
ellipse-curve $-1 1.443289932012703503e-15 9.992007221626408864e-16 15 0 0 1 -3.88908729652601215 3.889087296526010817 0 1 I I #
End-of-ACIS-data 