700 0 2 0           
24 FBMach with ACIS - 7.0.3 13 ACIS 7.0.3 NT 24 Thu May 16 14:54:18 2002 
1 9.9999999999999995e-007 1e-010 
body $2 -1 $-1 $3 $-1 $4 #
bdycol-kcp $-1 -1 1 3 $5 $6 $7 #
model_id-kcp-attrib $-1 -1 $-1 $-1 $0 1 1021575255 1021575255 -1406271487 1 #
lump $-1 -1 $-1 $-1 $8 $0 #
transform $-1 -1 1 0 0 0 1 0 0 0 1 0 0 0 1 rotate no_reflect no_shear #
body $9 -1 $-1 $10 $-1 $11 #
body $12 -1 $-1 $13 $-1 $14 #
body $15 -1 $-1 $16 $-1 $17 #
shell $-1 -1 $-1 $-1 $-1 $18 $-1 $3 #
rgb_color-st-attrib $-1 -1 $19 $-1 $5 0 0 1 #
lump $-1 -1 $-1 $-1 $20 $5 #
transform $-1 -1 1 0 0 0 1 0 0 0 1 4.4408920985006262e-016 0 8.7500000000000018 1 no_rotate no_reflect no_shear #
model_id-kcp-attrib $-1 -1 $-1 $-1 $6 1 1021575255 1021575255 -1405616126 1 #
lump $-1 -1 $-1 $-1 $21 $6 #
transform $-1 -1 1 0 0 0 1 0 0 0 1 4.4408920985006262e-016 0 8.7500000000000018 1 no_rotate no_reflect no_shear #
rgb_color-st-attrib $-1 -1 $22 $-1 $7 0.59999999999999998 0.90000000000000002 1 #
lump $-1 -1 $-1 $-1 $23 $7 #
transform $-1 -1 1 0 0 0 1 0 0 0 1 4.4408920985006262e-016 0 8.7500000000000018 1 no_rotate no_reflect no_shear #
face $24 -1 $-1 $25 $26 $8 $-1 $27 reversed single #
model_id-kcp-attrib $-1 -1 $-1 $9 $5 1 1021575255 1021575255 -1407320061 1 #
shell $-1 -1 $-1 $-1 $-1 $28 $-1 $10 #
shell $-1 -1 $-1 $-1 $-1 $29 $-1 $13 #
model_id-kcp-attrib $-1 -1 $-1 $15 $7 1 1021575255 1021575256 -1397948412 1 #
shell $-1 -1 $-1 $-1 $-1 $30 $-1 $16 #
model_id-kcp-attrib $-1 -1 $-1 $-1 $18 1 1021575255 1021575255 -1406271487 2 #
face $31 -1 $-1 $32 $33 $8 $-1 $34 forward single #
loop $-1 -1 $-1 $-1 $35 $18 #
plane-surface $-1 -1 $-1 0 0 0 0 0 1 1 0 0 forward_v I I I I #
face $-1 -1 $-1 $36 $37 $20 $-1 $38 forward single #
face $39 -1 $-1 $40 $41 $21 $-1 $42 forward single #
face $-1 -1 $-1 $43 $44 $23 $-1 $45 forward single #
model_id-kcp-attrib $-1 -1 $-1 $-1 $25 1 1021575255 1021575255 -1406271487 3 #
face $46 -1 $-1 $47 $48 $8 $-1 $49 reversed single #
loop $-1 -1 $-1 $-1 $50 $25 #
cone-surface $-1 -1 $-1 0 0 0 0 0 1 6 0 0 1 I I 0 1 6 forward I I I I #
coedge $-1 -1 $-1 $51 $52 $53 $54 forward $26 $-1 #
face $-1 -1 $-1 $55 $56 $20 $-1 $57 forward single #
loop $-1 -1 $-1 $58 $59 $28 #
cone-surface $-1 -1 $-1 -4.4408920985006262e-016 0 8.5999999999999979 0 0 1 0 4.5 0 1 I I 0 1 4.5 forward I I I I #
model_id-kcp-attrib $-1 -1 $-1 $-1 $29 1 1021575255 1021575255 -1405616126 3 #
face $60 -1 $-1 $61 $62 $21 $-1 $63 reversed single #
loop $-1 -1 $-1 $-1 $64 $29 #
plane-surface $-1 -1 $-1 0 0 8.7500000000000018 0 0 1 1 0 0 forward_v I I I I #
face $-1 -1 $-1 $65 $66 $23 $-1 $67 forward single #
loop $-1 -1 $-1 $-1 $68 $30 #
plane-surface $-1 -1 $-1 8.8817841970012523e-016 5.8589724735885191 8.7249999999999961 1 0 0 0 0 -1 forward_v I I I I #
model_id-kcp-attrib $-1 -1 $-1 $-1 $32 1 1021575255 1021575255 -1406271487 4 #
face $69 -1 $-1 $70 $71 $8 $-1 $72 forward single #
loop $-1 -1 $-1 $-1 $73 $32 #
plane-surface $-1 -1 $-1 -4.2426406871192839 4.2426406871192848 17.5 -0.70710678118654779 -0.70710678118654746 0 0.70710678118654746 -0.70710678118654779 0 forward_v I I I I #
coedge $-1 -1 $-1 $53 $74 $75 $76 reversed $33 $-1 #
coedge $-1 -1 $-1 $77 $35 $78 $79 forward $26 $-1 #
coedge $-1 -1 $-1 $35 $77 $80 $81 forward $26 $-1 #
coedge $-1 -1 $-1 $82 $50 $35 $54 reversed $33 $-1 #
edge $83 -1 $-1 $84 -3.0615158845559431e-016 $85 5.4977871437821388 $35 $86 forward @7 unknown #
face $-1 -1 $-1 $-1 $87 $20 $-1 $88 reversed single #
loop $-1 -1 $-1 $-1 $89 $36 #
plane-surface $-1 -1 $-1 -0.14936515929894414 0.36059939332552626 8.7249999999999961 -5.2992431898941295e-032 1.5646341858106451e-032 1 1 0 5.2992431898941295e-032 forward_v I I I I #
loop $-1 -1 $-1 $-1 $90 $28 #
coedge $-1 -1 $-1 $59 $59 $89 $91 forward $37 $-1 #
model_id-kcp-attrib $-1 -1 $-1 $-1 $40 1 1021575255 1021575255 -1405616126 2 #
face $-1 -1 $-1 $92 $93 $21 $-1 $94 reversed single #
loop $-1 -1 $-1 $-1 $95 $40 #
plane-surface $-1 -1 $-1 0 0 -8.7500000000000018 0 0 1 1 0 0 forward_v I I I I #
coedge $-1 -1 $-1 $96 $97 $98 $99 forward $41 $-1 #
face $-1 -1 $-1 $100 $101 $23 $-1 $102 forward single #
loop $-1 -1 $-1 $-1 $103 $43 #
cone-surface $-1 -1 $-1 -4.4408920985006262e-016 0 8.7249999999999979 0 0 1 5.8589724735885174 0 0 1 I I 0 -1 5.8589724735885174 forward I I I I #
coedge $-1 -1 $-1 $104 $105 $106 $107 forward $44 $-1 #
model_id-kcp-attrib $-1 -1 $-1 $-1 $47 1 1021575255 1021575255 -1406271487 5 #
face $108 -1 $-1 $109 $110 $8 $-1 $111 reversed single #
loop $-1 -1 $-1 $-1 $112 $47 #
torus-surface $-1 -1 $-1 0 0 17.224999999999998 0 0 1 5.7249999999999996 0.25 0 1 0 forward_v I I I I #
coedge $-1 -1 $-1 $113 $114 $115 $116 forward $48 $-1 #
coedge $-1 -1 $-1 $50 $82 $117 $118 reversed $33 $-1 #
coedge $-1 -1 $-1 $119 $78 $50 $76 forward $48 $-1 #
edge $120 -1 $-1 $85 4.5731066969334024e-032 $121 17.25 $50 $122 forward @7 unknown #
coedge $-1 -1 $-1 $52 $51 $123 $124 reversed $26 $-1 #
coedge $-1 -1 $-1 $75 $125 $51 $79 reversed $48 $-1 #
edge $126 -1 $-1 $85 -6.2803698347351007e-016 $127 0.27499999999999764 $51 $128 forward @7 unknown #
coedge $-1 -1 $-1 $129 $130 $52 $81 reversed $110 $-1 #
edge $131 -1 $-1 $132 0 $84 0.27500000000000036 $52 $133 forward @7 unknown #
coedge $-1 -1 $-1 $74 $53 $130 $134 forward $33 $-1 #
attrib_edge_convexity-kcp-attrib $-1 -1 $135 $-1 $54 1 #
vertex $-1 -1 $-1 $81 $136 #
vertex $-1 -1 $-1 $79 $137 #
ellipse-curve $-1 -1 $-1 7.7715611723760958e-016 -4.163336342344337e-017 0 0 0 -1 1.0597534134959563e-015 6 0 1 I I #
loop $-1 -1 $-1 $-1 $138 $55 #
plane-surface $-1 -1 $-1 -0.14936515929894414 0.36059939332552626 8.5999999999999961 -5.2992431898941295e-032 1.5646341858106451e-032 1 1 0 5.2992431898941295e-032 forward_v I I I I #
coedge $-1 -1 $-1 $89 $89 $59 $91 reversed $56 $-1 #
coedge $-1 -1 $-1 $90 $90 $138 $139 reversed $58 $-1 #
edge $-1 -1 $-1 $140 2.4492935982947064e-016 $140 6.2831853071795862 $59 $141 forward @7 unknown #
face $-1 -1 $-1 $142 $143 $21 $-1 $144 reversed single #
loop $-1 -1 $-1 $-1 $145 $61 #
plane-surface $-1 -1 $-1 0 -6 0 0 1 0 0 0 1 forward_v I I I I #
coedge $-1 -1 $-1 $146 $147 $148 $149 forward $62 $-1 #
coedge $-1 -1 $-1 $150 $64 $151 $152 forward $41 $-1 #
coedge $-1 -1 $-1 $64 $150 $153 $154 forward $41 $-1 #
coedge $-1 -1 $-1 $155 $156 $64 $99 reversed $157 $-1 #
edge $-1 -1 $-1 $158 -6 $159 6 $98 $160 forward @7 unknown #
face $-1 -1 $-1 $161 $162 $23 $-1 $163 forward single #
loop $-1 -1 $-1 $-1 $164 $65 #
cone-surface $-1 -1 $-1 -4.4408920985006262e-016 0 8.7249999999999979 0 0 1 0 4.5 0 1 I I 0 1 4.5 forward I I I I #
coedge $-1 -1 $-1 $165 $166 $167 $168 forward $66 $-1 #
coedge $-1 -1 $-1 $169 $68 $170 $171 reversed $44 $-1 #
coedge $-1 -1 $-1 $68 $169 $165 $172 forward $44 $-1 #
coedge $-1 -1 $-1 $167 $173 $68 $107 reversed $174 $-1 #
edge $-1 -1 $-1 $175 -3.3027224735885192 $176 -1.9437500000000001 $68 $177 forward @7 unknown #
model_id-kcp-attrib $-1 -1 $-1 $-1 $70 1 1021575255 1021575255 -1406271487 6 #
face $178 -1 $-1 $179 $180 $8 $-1 $181 reversed single #
loop $-1 -1 $-1 $-1 $182 $70 #
plane-surface $-1 -1 $-1 1.1021821192326179e-015 4.5 17.5 1 0 0 0 1 0 forward_v I I I I #
coedge $-1 -1 $-1 $183 $184 $185 $186 forward $71 $-1 #
coedge $-1 -1 $-1 $125 $73 $187 $188 reversed $48 $-1 #
coedge $-1 -1 $-1 $73 $189 $190 $191 reversed $48 $-1 #
coedge $-1 -1 $-1 $184 $183 $73 $116 reversed $71 $-1 #
edge $192 -1 $-1 $193 -2.5121479338938975e-015 $194 1.5707963267949068 $73 $195 forward @7 unknown #
coedge $-1 -1 $-1 $196 $197 $74 $118 forward $198 $-1 #
edge $-1 -1 $-1 $121 0 $199 5.497787143782138 $74 $200 forward @7 unknown #
coedge $-1 -1 $-1 $201 $75 $197 $202 forward $48 $-1 #
attrib_edge_convexity-kcp-attrib $-1 -1 $203 $-1 $76 1 #
vertex $-1 -1 $-1 $118 $204 #
straight-curve $-1 -1 $-1 -4.2426406871192848 4.2426406871192857 0 5.1488604040586971e-017 -5.1488604040586971e-017 1 I I #
coedge $-1 -1 $-1 $205 $206 $77 $124 forward $207 $-1 #
edge $208 -1 $-1 $132 2.4492127076447501e-016 $127 0.78539816339744684 $77 $209 forward @7 unknown #
coedge $-1 -1 $-1 $78 $113 $205 $210 reversed $48 $-1 #
attrib_edge_convexity-kcp-attrib $-1 -1 $211 $-1 $79 1 #
vertex $-1 -1 $-1 $124 $212 #
straight-curve $-1 -1 $-1 -4.2426406871192839 4.2426406871192848 0 0.70710678118654746 -0.70710678118654746 0 I I #
coedge $-1 -1 $-1 $213 $80 $206 $214 forward $110 $-1 #
coedge $-1 -1 $-1 $80 $215 $82 $134 reversed $110 $-1 #
attrib_edge_convexity-kcp-attrib $-1 -1 $216 $-1 $81 1 #
vertex $-1 -1 $-1 $81 $217 #
straight-curve $-1 -1 $-1 1.1021821192326179e-015 5.7249999999999996 0 0 1 0 I I #
edge $218 -1 $-1 $84 5.8868708231162076e-032 $199 17.25 $82 $219 forward @7 unknown #
convexity-sys-attrib $-1 -1 $-1 $83 $54 #
point $-1 -1 $-1 0 6 0 #
point $-1 -1 $-1 -4.2426406871192803 4.2426406871192892 0 #
coedge $-1 -1 $-1 $138 $138 $90 $139 forward $87 $-1 #
edge $220 -1 $-1 $221 -0.78539816339744806 $221 5.497787143782138 $90 $222 forward @7 unknown #
vertex $-1 -1 $-1 $91 $223 #
ellipse-curve $-1 -1 $-1 -4.4408920985006262e-016 0 8.7249999999999979 0 0 -1 0 4.5 0 1 I I #
face $-1 -1 $-1 $224 $225 $21 $-1 $226 reversed single #
loop $-1 -1 $-1 $-1 $227 $92 #
plane-surface $-1 -1 $-1 -6 0 0 1 0 0 0 0 -1 forward_v I I I I #
coedge $-1 -1 $-1 $228 $153 $229 $230 forward $93 $-1 #
coedge $-1 -1 $-1 $231 $95 $228 $232 forward $62 $-1 #
coedge $-1 -1 $-1 $95 $231 $233 $234 forward $62 $-1 #
coedge $-1 -1 $-1 $156 $155 $95 $149 reversed $157 $-1 #
edge $-1 -1 $-1 $235 -6 $236 6 $148 $237 forward @7 unknown #
coedge $-1 -1 $-1 $97 $96 $238 $239 forward $41 $-1 #
coedge $-1 -1 $-1 $240 $241 $96 $152 reversed $225 $-1 #
edge $-1 -1 $-1 $159 -6 $242 6 $151 $243 forward @7 unknown #
coedge $-1 -1 $-1 $145 $244 $97 $154 reversed $93 $-1 #
edge $-1 -1 $-1 $245 -6 $158 6 $153 $246 forward @7 unknown #
coedge $-1 -1 $-1 $148 $98 $244 $247 forward $157 $-1 #
coedge $-1 -1 $-1 $98 $148 $240 $248 reversed $157 $-1 #
loop $-1 -1 $-1 $-1 $155 $224 #
vertex $-1 -1 $-1 $99 $249 #
vertex $-1 -1 $-1 $99 $250 #
straight-curve $-1 -1 $-1 6 0 8.7500000000000018 0 1 0 I I #
face $-1 -1 $-1 $251 $252 $23 $-1 $253 forward single #
loop $-1 -1 $-1 $-1 $254 $100 #
plane-surface $-1 -1 $-1 -3.1819805153394629 3.1819805153394629 8.7249999999999996 -0.70710678118654779 -0.70710678118654746 0 0 0 1 forward_v I I I I #
coedge $-1 -1 $-1 $255 $170 $173 $256 forward $101 $-1 #
coedge $-1 -1 $-1 $257 $103 $105 $172 reversed $66 $-1 #
coedge $-1 -1 $-1 $103 $257 $258 $259 forward $66 $-1 #
coedge $-1 -1 $-1 $260 $106 $103 $168 reversed $174 $-1 #
edge $-1 -1 $-1 $261 2.3561944901923448 $175 7.8539816339744828 $103 $262 forward @7 unknown #
coedge $-1 -1 $-1 $105 $104 $263 $264 reversed $44 $-1 #
coedge $-1 -1 $-1 $164 $265 $104 $171 forward $101 $-1 #
edge $266 -1 $-1 $267 0 $176 0.025000000000002132 $170 $268 forward @7 unknown #
edge $-1 -1 $-1 $269 0 $175 0.025000000000002132 $105 $270 forward @7 unknown #
coedge $-1 -1 $-1 $106 $260 $164 $256 reversed $174 $-1 #
loop $-1 -1 $-1 $-1 $167 $271 #
vertex $-1 -1 $-1 $172 $272 #
vertex $-1 -1 $-1 $171 $273 #
straight-curve $-1 -1 $-1 6.5809290938255529e-016 2.5562499999999999 8.75 0 -1 0 I I #
model_id-kcp-attrib $-1 -1 $-1 $-1 $109 1 1021575255 1021575255 -1406271487 7 #
face $274 -1 $-1 $275 $276 $8 $-1 $277 forward single #
loop $-1 -1 $-1 $-1 $278 $109 #
cone-surface $-1 -1 $-1 0 0 17.5 0 0 1 0 4.5 0 1 I I 0 1 4.5 forward I I I I #
coedge $-1 -1 $-1 $279 $280 $281 $282 forward $110 $-1 #
coedge $-1 -1 $-1 $115 $112 $283 $284 forward $71 $-1 #
coedge $-1 -1 $-1 $112 $115 $285 $286 reversed $71 $-1 #
coedge $-1 -1 $-1 $280 $213 $112 $186 reversed $110 $-1 #
edge $287 -1 $-1 $288 0 $289 1.5707963267948966 $185 $290 forward @7 unknown #
coedge $-1 -1 $-1 $283 $291 $113 $188 forward $292 $-1 #
edge $293 -1 $-1 $294 0 $194 16.975000000000001 $113 $295 forward @7 unknown #
coedge $-1 -1 $-1 $114 $201 $296 $297 reversed $48 $-1 #
coedge $-1 -1 $-1 $298 $285 $114 $191 forward $299 $-1 #
edge $300 -1 $-1 $193 0 $301 1.2249999999999996 $114 $302 forward @7 unknown #
attrib_edge_convexity-kcp-attrib $-1 -1 $303 $-1 $116 2 #
vertex $-1 -1 $-1 $191 $304 #
vertex $-1 -1 $-1 $188 $305 #
ellipse-curve $-1 -1 $-1 -4.0481863222929855 4.0481863222929855 17.225000000000001 -0.70710678118654768 -0.70710678118654735 5.0242958677881547e-015 2.6645352591003757e-015 -8.8817841970012523e-016 0.24999999999999645 1 I I #
coedge $-1 -1 $-1 $306 $117 $215 $307 forward $198 $-1 #
coedge $-1 -1 $-1 $117 $306 $119 $202 reversed $198 $-1 #
loop $-1 -1 $-1 $-1 $196 $308 #
vertex $-1 -1 $-1 $118 $309 #
ellipse-curve $-1 -1 $-1 0 0 17.25 0 0 1 -4.2426406871192848 4.2426406871192848 0 1 I I #
coedge $-1 -1 $-1 $189 $119 $310 $311 forward $48 $-1 #
edge $312 -1 $-1 $121 0 $313 1.570796326794889 $119 $314 forward @7 unknown #
convexity-sys-attrib $-1 -1 $-1 $120 $76 #
point $-1 -1 $-1 -4.2426406871192848 4.2426406871192848 17.25 #
coedge $-1 -1 $-1 $315 $123 $125 $210 forward $207 $-1 #
coedge $-1 -1 $-1 $123 $315 $129 $214 reversed $207 $-1 #
loop $-1 -1 $-1 $-1 $205 $316 #
attrib_edge_convexity-kcp-attrib $-1 -1 $317 $-1 $124 3 #
ellipse-curve $-1 -1 $-1 1.8873791418627661e-015 -1.021405182655144e-014 0 0 0 1 -4.852048667361442e-016 5.7250000000000103 0 1 I I #
edge $318 -1 $-1 $127 0 $294 1.5707963267948917 $125 $319 forward @7 unknown #
convexity-sys-attrib $-1 -1 $-1 $126 $79 #
point $-1 -1 $-1 -4.0481863222929846 4.0481863222929864 0 #
coedge $-1 -1 $-1 $185 $129 $320 $321 forward $110 $-1 #
edge $322 -1 $-1 $132 0 $323 1.570796326794893 $129 $324 forward @7 unknown #
coedge $-1 -1 $-1 $130 $279 $196 $307 reversed $110 $-1 #
convexity-sys-attrib $-1 -1 $-1 $131 $81 #
point $-1 -1 $-1 0 5.7249999999999996 0 #
attrib_edge_convexity-kcp-attrib $-1 -1 $325 $-1 $134 1 #
straight-curve $-1 -1 $-1 1.699649535696901e-015 6 0 -3.4635792258799024e-017 0 1 I I #
convexity-sys-attrib $-1 -1 $-1 $-1 $139 #
vertex $-1 -1 $-1 $139 $326 #
ellipse-curve $-1 -1 $-1 -4.4408920985006262e-016 0 8.5999999999999979 0 0 -1 0 4.5 0 1 I I #
point $-1 -1 $-1 6.5809290938255529e-016 4.5 8.7249999999999961 #
face $-1 -1 $-1 $-1 $157 $21 $-1 $327 reversed single #
loop $-1 -1 $-1 $-1 $240 $142 #
plane-surface $-1 -1 $-1 0 6 0 0 -1 0 0 0 -1 forward_v I I I I #
coedge $-1 -1 $-1 $328 $238 $241 $329 forward $143 $-1 #
coedge $-1 -1 $-1 $244 $145 $146 $232 reversed $93 $-1 #
coedge $-1 -1 $-1 $238 $328 $145 $230 reversed $143 $-1 #
edge $-1 -1 $-1 $245 -8.7500000000000018 $330 8.7500000000000018 $229 $331 forward @7 unknown #
coedge $-1 -1 $-1 $147 $146 $328 $332 forward $62 $-1 #
edge $-1 -1 $-1 $236 -6 $330 6 $228 $333 forward @7 unknown #
coedge $-1 -1 $-1 $241 $240 $147 $234 reversed $225 $-1 #
edge $-1 -1 $-1 $334 -6 $235 6 $233 $335 forward @7 unknown #
vertex $-1 -1 $-1 $149 $336 #
vertex $-1 -1 $-1 $247 $337 #
straight-curve $-1 -1 $-1 6 0 -8.7500000000000018 0 -1 0 I I #
coedge $-1 -1 $-1 $227 $229 $150 $239 reversed $143 $-1 #
edge $-1 -1 $-1 $242 -6 $245 6 $238 $338 forward @7 unknown #
coedge $-1 -1 $-1 $233 $151 $156 $248 forward $225 $-1 #
coedge $-1 -1 $-1 $151 $233 $227 $329 reversed $225 $-1 #
vertex $-1 -1 $-1 $152 $339 #
straight-curve $-1 -1 $-1 0 6 8.7500000000000018 -1 0 0 I I #
coedge $-1 -1 $-1 $153 $228 $155 $247 reversed $93 $-1 #
vertex $-1 -1 $-1 $239 $340 #
straight-curve $-1 -1 $-1 0 -6 8.7500000000000018 1 0 0 I I #
edge $-1 -1 $-1 $158 -8.7500000000000018 $236 8.7500000000000018 $155 $341 forward @7 unknown #
edge $-1 -1 $-1 $159 -8.7500000000000018 $235 8.7500000000000018 $156 $342 forward @7 unknown #
point $-1 -1 $-1 6 -6 8.7500000000000018 #
point $-1 -1 $-1 6 6 8.7500000000000018 #
face $-1 -1 $-1 $343 $344 $23 $-1 $345 forward single #
loop $-1 -1 $-1 $-1 $346 $161 #
plane-surface $-1 -1 $-1 -6 -6 8.7249999999999979 -1 0 0 0 0 1 forward_v I I I I #
coedge $-1 -1 $-1 $347 $258 $348 $349 reversed $162 $-1 #
coedge $-1 -1 $-1 $265 $164 $347 $350 reversed $101 $-1 #
edge $-1 -1 $-1 $176 2.9605947323337506e-016 $351 5.497787143782138 $164 $352 forward @7 unknown #
coedge $-1 -1 $-1 $166 $165 $353 $354 reversed $66 $-1 #
coedge $-1 -1 $-1 $254 $355 $166 $259 reversed $162 $-1 #
edge $-1 -1 $-1 $356 0 $261 0.025000000000002132 $166 $357 forward @7 unknown #
coedge $-1 -1 $-1 $173 $167 $355 $358 reversed $174 $-1 #
vertex $-1 -1 $-1 $259 $359 #
ellipse-curve $-1 -1 $-1 -4.4408920985006262e-016 0 8.75 0 0 1 5.8589724735885174 0 0 1 I I #
coedge $-1 -1 $-1 $360 $353 $169 $264 forward $361 $-1 #
edge $362 -1 $-1 $269 -3.3027224735885192 $267 -1.9437500000000001 $169 $363 forward @7 unknown #
coedge $-1 -1 $-1 $170 $255 $360 $364 reversed $101 $-1 #
convexity-sys-attrib $-1 -1 $-1 $-1 $171 #
vertex $-1 -1 $-1 $264 $365 #
straight-curve $-1 -1 $-1 8.8817841970012523e-016 4.5 8.7249999999999961 0 0 1 I I #
vertex $-1 -1 $-1 $354 $366 #
straight-curve $-1 -1 $-1 8.8817841970012523e-016 5.8589724735885191 8.7249999999999961 0 0 1 I I #
face $-1 -1 $-1 $367 $368 $23 $-1 $369 forward single #
point $-1 -1 $-1 8.8817841970012523e-016 5.8589724735885191 8.7499999999999982 #
point $-1 -1 $-1 8.8817841970012523e-016 4.5 8.7499999999999982 #
model_id-kcp-attrib $-1 -1 $-1 $-1 $179 1 1021575255 1021575255 -1406271487 8 #
face $370 -1 $-1 $371 $372 $8 $-1 $373 reversed single #
loop $-1 -1 $-1 $-1 $374 $179 #
plane-surface $-1 -1 $-1 0 0 17.349999999999998 0 0 1 0 1 0 forward_v I I I I #
coedge $-1 -1 $-1 $375 $376 $374 $377 reversed $180 $-1 #
coedge $-1 -1 $-1 $215 $182 $378 $379 forward $110 $-1 #
coedge $-1 -1 $-1 $182 $185 $380 $381 reversed $110 $-1 #
coedge $-1 -1 $-1 $376 $382 $182 $282 reversed $180 $-1 #
edge $383 -1 $-1 $384 -3.5527136788005009e-015 $385 0.024999999999998579 $281 $386 forward @7 unknown #
coedge $-1 -1 $-1 $320 $187 $183 $284 reversed $292 $-1 #
edge $-1 -1 $-1 $289 6.0455644114664927e-017 $194 0.78539816339744839 $283 $387 forward @7 unknown #
coedge $-1 -1 $-1 $190 $380 $184 $286 forward $299 $-1 #
edge $388 -1 $-1 $288 5.2400376575371922e-017 $193 0.78539816339744928 $285 $389 forward @7 unknown #
attrib_edge_convexity-kcp-attrib $-1 -1 $390 $-1 $186 2 #
vertex $-1 -1 $-1 $381 $391 #
vertex $-1 -1 $-1 $186 $392 #
ellipse-curve $-1 -1 $-1 1.1021821192326179e-015 5.7249999999999996 17.225000000000001 -1 0 1.1999686235760332e-015 2.9999215589400401e-016 0 0.24999999999999645 1 I I #
coedge $-1 -1 $-1 $187 $320 $315 $393 forward $292 $-1 #
loop $-1 -1 $-1 $-1 $283 $394 #
attrib_edge_convexity-kcp-attrib $-1 -1 $395 $-1 $188 2 #
vertex $-1 -1 $-1 $210 $396 #
straight-curve $-1 -1 $-1 -4.2249630175896193 4.2249630175896202 0.25 0 0 1 I I #
coedge $-1 -1 $-1 $382 $375 $189 $297 forward $180 $-1 #
edge $397 -1 $-1 $301 0 $398 0.024999999999998579 $296 $399 forward @7 unknown #
coedge $-1 -1 $-1 $380 $190 $400 $401 forward $299 $-1 #
loop $-1 -1 $-1 $-1 $298 $371 #
attrib_edge_convexity-kcp-attrib $-1 -1 $402 $-1 $191 2 #
vertex $-1 -1 $-1 $297 $403 #
straight-curve $-1 -1 $-1 -4.0481863222929828 4.0481863222929837 17.474999999999998 0.70710678118654724 -0.70710678118654791 0 I I #
convexity-sys-attrib $-1 -1 $-1 $192 $116 #
point $-1 -1 $-1 -4.0481863222929828 4.0481863222929837 17.475000000000001 #
point $-1 -1 $-1 -4.2249630175896193 4.2249630175896202 17.225000000000001 #
coedge $-1 -1 $-1 $197 $196 $404 $405 reversed $198 $-1 #
edge $406 -1 $-1 $199 0 $407 1.5707963267949039 $215 $408 forward @7 unknown #
face $409 -1 $-1 $316 $198 $8 $-1 $410 forward single #
point $-1 -1 $-1 1.8369095307335659e-015 6 17.25 #
coedge $-1 -1 $-1 $404 $411 $201 $311 reversed $412 $-1 #
edge $413 -1 $-1 $313 0 $398 1.2499999999999993 $310 $414 forward @7 unknown #
attrib_edge_convexity-kcp-attrib $-1 -1 $415 $-1 $202 1 #
vertex $-1 -1 $-1 $311 $416 #
ellipse-curve $-1 -1 $-1 -4.0658639918226465 4.0658639918226465 17.25 0.70710678118654757 0.70710678118654757 0 -0.17677669529663831 0.17677669529663831 0 1 I I #
coedge $-1 -1 $-1 $206 $205 $291 $393 reversed $207 $-1 #
face $417 -1 $-1 $394 $207 $8 $-1 $418 forward single #
convexity-sys-attrib $-1 -1 $-1 $208 $124 #
attrib_edge_convexity-kcp-attrib $-1 -1 $419 $-1 $210 2 #
ellipse-curve $-1 -1 $-1 -4.0481863222929846 4.0481863222929846 0.25 0.70710678118654779 0.70710678118654746 5.0242958677880797e-015 0 1.7763568394002505e-015 -0.25 1 I I #
coedge $-1 -1 $-1 $291 $283 $213 $321 reversed $292 $-1 #
edge $420 -1 $-1 $323 0 $289 16.975000000000001 $213 $421 forward @7 unknown #
attrib_edge_convexity-kcp-attrib $-1 -1 $422 $-1 $214 2 #
vertex $-1 -1 $-1 $321 $423 #
ellipse-curve $-1 -1 $-1 1.1021821192326179e-015 5.7249999999999988 0.25 1 -4.2631449431099215e-030 1.199968623576016e-015 2.9999215589400401e-016 8.8817841970012523e-016 -0.25 1 I I #
convexity-sys-attrib $-1 -1 $-1 $218 $134 #
point $-1 -1 $-1 -3.1819805153394634 3.1819805153394642 8.5999999999999961 #
plane-surface $-1 -1 $-1 6 0 0 -1 0 0 0 0 1 forward_v I I I I #
coedge $-1 -1 $-1 $229 $227 $231 $332 reversed $143 $-1 #
edge $-1 -1 $-1 $242 -8.7500000000000018 $334 8.7500000000000018 $241 $424 forward @7 unknown #
vertex $-1 -1 $-1 $332 $425 #
straight-curve $-1 -1 $-1 -6 -6 0 0 0 -1 I I #
edge $-1 -1 $-1 $330 -6 $334 6 $328 $426 forward @7 unknown #
straight-curve $-1 -1 $-1 0 -6 -8.7500000000000018 -1 0 0 I I #
vertex $-1 -1 $-1 $234 $427 #
straight-curve $-1 -1 $-1 0 6 -8.7500000000000018 1 0 0 I I #
point $-1 -1 $-1 6 6 -8.7500000000000018 #
point $-1 -1 $-1 6 -6 -8.7500000000000018 #
straight-curve $-1 -1 $-1 -6 0 8.7500000000000018 0 -1 0 I I #
point $-1 -1 $-1 -6 6 8.7500000000000018 #
point $-1 -1 $-1 -6 -6 8.7500000000000018 #
straight-curve $-1 -1 $-1 6 -6 0 0 0 -1 I I #
straight-curve $-1 -1 $-1 6 6 0 0 0 -1 I I #
face $-1 -1 $-1 $428 $429 $23 $-1 $430 forward single #
loop $-1 -1 $-1 $-1 $431 $251 #
plane-surface $-1 -1 $-1 -6 6 8.7249999999999979 0 1 0 0 0 1 forward_v I I I I #
coedge $-1 -1 $-1 $432 $433 $434 $435 forward $252 $-1 #
coedge $-1 -1 $-1 $355 $254 $255 $350 forward $162 $-1 #
coedge $-1 -1 $-1 $353 $360 $254 $349 forward $361 $-1 #
edge $436 -1 $-1 $437 1.2834485482616196 $356 2.6424210218501449 $254 $438 forward @7 unknown #
edge $-1 -1 $-1 $437 0 $351 0.025000000000002132 $347 $439 forward @7 unknown #
vertex $-1 -1 $-1 $350 $440 #
ellipse-curve $-1 -1 $-1 -4.4408920985006262e-016 0 8.75 0 0 -1 0 4.5 0 1 I I #
coedge $-1 -1 $-1 $263 $348 $257 $354 forward $361 $-1 #
edge $441 -1 $-1 $356 2.3561944901923453 $269 7.8539816339744828 $257 $442 forward @7 unknown #
coedge $-1 -1 $-1 $258 $347 $260 $358 forward $162 $-1 #
vertex $-1 -1 $-1 $349 $443 #
straight-curve $-1 -1 $-1 -4.142919166859766 4.142919166859766 8.7249999999999961 0 0 1 I I #
edge $-1 -1 $-1 $351 1.2834485482616191 $261 2.6424210218501454 $355 $444 forward @7 unknown #
point $-1 -1 $-1 -4.142919166859766 4.142919166859766 8.7499999999999982 #
coedge $-1 -1 $-1 $348 $263 $265 $364 forward $361 $-1 #
loop $-1 -1 $-1 $-1 $348 $367 #
convexity-sys-attrib $-1 -1 $-1 $-1 $264 #
straight-curve $-1 -1 $-1 6.5809290938255529e-016 2.5562499999999999 8.7249999999999979 0 -1 0 I I #
edge $445 -1 $-1 $267 2.4492127076447545e-016 $437 5.497787143782138 $265 $446 forward @7 unknown #
point $-1 -1 $-1 6.5805650859007692e-016 4.5 8.7249999999999961 #
point $-1 -1 $-1 9.7835316316074421e-016 5.8589724735885191 8.7249999999999961 #
face $-1 -1 $-1 $-1 $447 $23 $-1 $448 reversed single #
loop $-1 -1 $-1 $174 $434 $271 #
plane-surface $-1 -1 $-1 -0.0042448739411494602 0.010248032239285831 8.75 1.8424968167274793e-031 7.1062700839381877e-031 1 1 0 -1.8424968167274793e-031 forward_v I I I I #
model_id-kcp-attrib $-1 -1 $-1 $-1 $275 1 1021575255 1021575255 -1406271487 9 #
face $449 -1 $-1 $450 $299 $8 $-1 $451 forward single #
loop $-1 -1 $-1 $-1 $452 $275 #
cone-surface $-1 -1 $-1 0 0 17.474999999999998 0 0 1 0 4.5 0 1 I I 0 1 4.5 forward I I I I #
coedge $-1 -1 $-1 $453 $453 $278 $377 forward $276 $-1 #
coedge $-1 -1 $-1 $296 $278 $454 $455 forward $180 $-1 #
coedge $-1 -1 $-1 $278 $281 $452 $456 reversed $180 $-1 #
edge $457 -1 $-1 $458 -8.7721325402481537e-017 $459 5.497787143782138 $374 $460 forward @7 unknown #
coedge $-1 -1 $-1 $411 $404 $279 $379 reversed $412 $-1 #
edge $461 -1 $-1 $385 0 $407 1.25 $378 $462 forward @7 unknown #
coedge $-1 -1 $-1 $285 $298 $280 $381 forward $299 $-1 #
edge $463 -1 $-1 $384 0 $288 1.2249999999999996 $280 $464 forward @7 unknown #
coedge $-1 -1 $-1 $281 $296 $411 $465 reversed $180 $-1 #
attrib_edge_convexity-kcp-attrib $-1 -1 $466 $-1 $282 1 #
vertex $-1 -1 $-1 $456 $467 #
vertex $-1 -1 $-1 $465 $468 #
straight-curve $-1 -1 $-1 1.1021821192326179e-015 4.5 17.475000000000001 -4.4087284769307222e-014 0 1 I I #
ellipse-curve $-1 -1 $-1 0 0 17.224999999999998 0 0 1 1.4634045928177408e-015 5.9749999999999996 0 1 I I #
attrib_edge_convexity-kcp-attrib $-1 -1 $469 $-1 $286 3 #
ellipse-curve $-1 -1 $-1 -1.1102230246251565e-015 6.6613381477509392e-015 17.474999999999998 0 0 1 2.5123972997517787e-015 5.7249999999999925 0 1 I I #
convexity-sys-attrib $-1 -1 $-1 $287 $186 #
point $-1 -1 $-1 1.1021821192326179e-015 5.7249999999999996 17.475000000000001 #
point $-1 -1 $-1 1.1021821192326179e-015 5.9749999999999996 17.225000000000001 #
edge $-1 -1 $-1 $323 0 $294 0.78539816339744839 $291 $470 forward @7 unknown #
face $471 -1 $-1 $-1 $292 $8 $-1 $472 forward single #
convexity-sys-attrib $-1 -1 $-1 $293 $188 #
point $-1 -1 $-1 -4.2249630175896193 4.2249630175896202 0.25 #
attrib_edge_convexity-kcp-attrib $-1 -1 $473 $-1 $297 1 #
vertex $-1 -1 $-1 $311 $474 #
straight-curve $-1 -1 $-1 -3.1819805153394629 3.1819805153394629 17.475000000000001 -3.5527136788007029e-014 5.3290705182010543e-014 1 I I #
coedge $-1 -1 $-1 $454 $452 $298 $401 reversed $372 $-1 #
edge $475 -1 $-1 $301 -8.7721325402481537e-017 $384 0.7853981633974485 $298 $476 forward @7 unknown #
convexity-sys-attrib $-1 -1 $-1 $300 $191 #
point $-1 -1 $-1 -3.1819805153394629 3.1819805153394629 17.475000000000001 #
coedge $-1 -1 $-1 $378 $310 $306 $405 forward $412 $-1 #
edge $-1 -1 $-1 $313 -1.0745447799774667e-016 $407 5.497787143782138 $404 $477 forward @7 unknown #
attrib_edge_convexity-kcp-attrib $-1 -1 $478 $-1 $307 1 #
vertex $-1 -1 $-1 $379 $479 #
ellipse-curve $-1 -1 $-1 1.1021821192326179e-015 5.7500000000000018 17.25 1 -2.9389096460038128e-015 0 7.3472741150094798e-016 0.24999999999999822 0 1 I I #
model_id-kcp-attrib $-1 -1 $-1 $-1 $308 1 1021575255 1021575255 -1406271487 12 #
torus-surface $-1 -1 $-1 0 0 17.25 0 0 1 5.75 0.25 1 0 0 forward_v I I I I #
coedge $-1 -1 $-1 $310 $378 $382 $465 forward $412 $-1 #
loop $-1 -1 $-1 $-1 $404 $450 #
attrib_edge_convexity-kcp-attrib $-1 -1 $480 $-1 $311 1 #
straight-curve $-1 -1 $-1 -4.0658639918226473 4.0658639918226482 17.5 0.70710678118654713 -0.70710678118654779 0 I I #
convexity-sys-attrib $-1 -1 $-1 $312 $202 #
point $-1 -1 $-1 -4.0658639918226473 4.0658639918226482 17.5 #
model_id-kcp-attrib $-1 -1 $-1 $-1 $316 1 1021575255 1021575255 -1406271487 13 #
torus-surface $-1 -1 $-1 0 0 0.25 0 0 1 5.7249999999999996 0.25 0 1 0 forward_v I I I I #
convexity-sys-attrib $-1 -1 $-1 $318 $210 #
attrib_edge_convexity-kcp-attrib $-1 -1 $481 $-1 $321 2 #
straight-curve $-1 -1 $-1 1.1021821192326179e-015 5.9749999999999996 0.25 0 0 1 I I #
convexity-sys-attrib $-1 -1 $-1 $322 $214 #
point $-1 -1 $-1 1.4634045928177408e-015 5.9749999999999996 0.25 #
straight-curve $-1 -1 $-1 -6 6 0 0 0 -1 I I #
point $-1 -1 $-1 -6 -6 -8.7500000000000018 #
straight-curve $-1 -1 $-1 -6 0 -8.7500000000000018 0 1 0 I I #
point $-1 -1 $-1 -6 6 -8.7500000000000018 #
face $-1 -1 $-1 $271 $482 $23 $-1 $483 forward single #
loop $-1 -1 $-1 $-1 $484 $343 #
plane-surface $-1 -1 $-1 6 6 8.7249999999999979 1 0 0 0 0 -1 forward_v I I I I #
coedge $-1 -1 $-1 $485 $486 $487 $488 forward $344 $-1 #
coedge $-1 -1 $-1 $489 $346 $486 $490 reversed $252 $-1 #
coedge $-1 -1 $-1 $346 $489 $491 $492 forward $252 $-1 #
coedge $-1 -1 $-1 $493 $487 $346 $435 reversed $368 $-1 #
edge $-1 -1 $-1 $494 -6.3062500000000004 $495 5.6937499999999996 $346 $496 forward @7 unknown #
convexity-sys-attrib $-1 -1 $-1 $-1 $349 #
vertex $-1 -1 $-1 $349 $497 #
straight-curve $-1 -1 $-1 -2.2744453435596421 2.2744453435596421 8.7249999999999979 -0.70710678118654746 0.70710678118654779 0 I I #
straight-curve $-1 -1 $-1 -3.1819805153394629 3.1819805153394629 8.7249999999999996 0 0 1 I I #
point $-1 -1 $-1 -3.1819805153394629 3.1819805153394629 8.7500000000000018 #
convexity-sys-attrib $-1 -1 $-1 $-1 $354 #
ellipse-curve $-1 -1 $-1 -4.4408920985006262e-016 0 8.7249999999999979 0 0 1 5.8589724735885174 0 0 1 I I #
point $-1 -1 $-1 -4.142919166859766 4.1429191668597651 8.7249999999999961 #
straight-curve $-1 -1 $-1 -2.2744453435596421 2.2744453435596421 8.75 -0.70710678118654746 0.70710678118654779 0 I I #
convexity-sys-attrib $-1 -1 $-1 $-1 $364 #
ellipse-curve $-1 -1 $-1 -4.4408920985006262e-016 0 8.7249999999999979 0 0 -1 0 4.5 0 1 I I #
loop $-1 -1 $-1 $361 $498 $367 #
plane-surface $-1 -1 $-1 -0.0042448739411494602 0.010248032239285831 8.7249999999999979 1.8424968167274793e-031 7.1062700839381877e-031 1 1 0 -1.8424968167274793e-031 forward_v I I I I #
model_id-kcp-attrib $-1 -1 $-1 $-1 $371 1 1021575255 1021575255 -1406271487 10 #
face $499 -1 $-1 $308 $412 $8 $-1 $500 forward single #
plane-surface $-1 -1 $-1 0 0 17.474999999999998 0 0 1 0 1 0 forward_v I I I I #
coedge $-1 -1 $-1 $400 $501 $376 $456 forward $372 $-1 #
coedge $-1 -1 $-1 $374 $374 $501 $502 forward $276 $-1 #
coedge $-1 -1 $-1 $501 $400 $375 $455 reversed $372 $-1 #
edge $-1 -1 $-1 $458 -1.5777218104420236e-030 $301 0.12500000000000355 $375 $503 forward @7 unknown #
edge $-1 -1 $-1 $459 -3.2095182062298512e-034 $384 0.125 $376 $504 forward @7 unknown #
attrib_edge_convexity-kcp-attrib $-1 -1 $505 $-1 $377 2 #
vertex $-1 -1 $-1 $502 $506 #
vertex $-1 -1 $-1 $502 $507 #
ellipse-curve $-1 -1 $-1 -1.8873791418627661e-015 -6.106226635438361e-016 17.349999999999998 5.5825509642089766e-016 -5.5825509642089815e-016 1 -3.181980515339462 3.1819805153394647 3.5527136788005009e-015 1 I I #
attrib_edge_convexity-kcp-attrib $-1 -1 $508 $-1 $379 1 #
straight-curve $-1 -1 $-1 1.1021821192326179e-015 4.5 17.5 0 1 0 I I #
attrib_edge_convexity-kcp-attrib $-1 -1 $509 $-1 $381 2 #
straight-curve $-1 -1 $-1 1.1021821192326179e-015 4.5 17.474999999999998 0 1 0 I I #
edge $-1 -1 $-1 $385 0 $398 5.497787143782138 $411 $510 forward @7 unknown #
convexity-sys-attrib $-1 -1 $-1 $383 $282 #
point $-1 -1 $-1 1.1021457184401395e-015 4.5 17.474999999999998 #
point $-1 -1 $-1 1.1021457184401395e-015 4.5 17.5 #
convexity-sys-attrib $-1 -1 $-1 $388 $286 #
ellipse-curve $-1 -1 $-1 0 0 0.25 0 0 1 1.4634045928177408e-015 5.9749999999999996 0 1 I I #
model_id-kcp-attrib $-1 -1 $-1 $-1 $394 1 1021575255 1021575255 -1406271487 14 #
cone-surface $-1 -1 $-1 0 0 17.474999999999998 0 0 1 0 5.9749999999999996 0 1 I I 0 1 5.9749999999999996 forward I I I I #
convexity-sys-attrib $-1 -1 $-1 $397 $297 #
point $-1 -1 $-1 -3.1819805153394638 3.1819805153394642 17.5 #
attrib_edge_convexity-kcp-attrib $-1 -1 $511 $-1 $401 1 #
ellipse-curve $-1 -1 $-1 0 0 17.474999999999998 0 0 -1 -3.1819805153394638 3.1819805153394642 0 1 I I #
ellipse-curve $-1 -1 $-1 7.7715611723760958e-016 0 17.5 0 0 1 -4.06586399182265 4.0658639918226491 0 1 I I #
convexity-sys-attrib $-1 -1 $-1 $406 $307 #
point $-1 -1 $-1 0 5.75 17.5 #
convexity-sys-attrib $-1 -1 $-1 $413 $311 #
convexity-sys-attrib $-1 -1 $-1 $420 $321 #
loop $-1 -1 $-1 $-1 $512 $428 #
plane-surface $-1 -1 $-1 6 -6 8.7249999999999979 0 -1 0 0 0 -1 forward_v I I I I #
coedge $-1 -1 $-1 $513 $514 $515 $516 forward $429 $-1 #
coedge $-1 -1 $-1 $517 $431 $514 $518 reversed $344 $-1 #
coedge $-1 -1 $-1 $431 $517 $432 $490 forward $344 $-1 #
coedge $-1 -1 $-1 $434 $515 $431 $488 reversed $368 $-1 #
edge $-1 -1 $-1 $495 -6 $519 6 $431 $520 forward @7 unknown #
coedge $-1 -1 $-1 $433 $432 $521 $522 reversed $252 $-1 #
edge $-1 -1 $-1 $523 0 $495 0.025000000000002132 $486 $524 forward @7 unknown #
coedge $-1 -1 $-1 $525 $512 $433 $492 reversed $482 $-1 #
edge $-1 -1 $-1 $526 0 $494 0.025000000000002132 $433 $527 forward @7 unknown #
coedge $-1 -1 $-1 $515 $434 $512 $528 reversed $368 $-1 #
vertex $-1 -1 $-1 $492 $529 #
vertex $-1 -1 $-1 $490 $530 #
straight-curve $-1 -1 $-1 -6 0.30624999999999991 8.75 0 1 0 I I #
point $-1 -1 $-1 -3.1819805153394634 3.1819805153394629 8.7249999999999996 #
coedge $-1 -1 $-1 $521 $531 $525 $532 forward $447 $-1 #
model_id-kcp-attrib $-1 -1 $-1 $-1 $450 1 1021575255 1021575255 -1406271487 11 #
plane-surface $-1 -1 $-1 0 0 17.5 0 0 1 1 0 0 forward_v I I I I #
coedge $-1 -1 $-1 $452 $454 $453 $502 reversed $372 $-1 #
edge $533 -1 $-1 $459 0 $458 0.78539816339745028 $453 $534 forward @7 unknown #
straight-curve $-1 -1 $-1 -3.1819805153394629 3.1819805153394647 17.349999999999998 3.5527136788005009e-015 3.5527136788005009e-015 1 I I #
straight-curve $-1 -1 $-1 1.1021457184401395e-015 4.5 17.349999999999998 -8.8171657475211163e-015 0 1 I I #
convexity-sys-attrib $-1 -1 $-1 $457 $377 #
point $-1 -1 $-1 -3.1819805153394629 3.1819805153394642 17.349999999999998 #
point $-1 -1 $-1 1.1021821192326179e-015 4.5 17.349999999999998 #
convexity-sys-attrib $-1 -1 $-1 $461 $379 #
convexity-sys-attrib $-1 -1 $-1 $463 $381 #
ellipse-curve $-1 -1 $-1 2.2204460492503131e-016 -1.9428902930940239e-016 17.5 0 0 -1 8.8010111351510822e-016 4.5 0 1 I I #
convexity-sys-attrib $-1 -1 $-1 $475 $401 #
coedge $-1 -1 $-1 $491 $535 $493 $528 forward $482 $-1 #
coedge $-1 -1 $-1 $536 $484 $535 $537 reversed $429 $-1 #
coedge $-1 -1 $-1 $484 $536 $485 $518 forward $429 $-1 #
coedge $-1 -1 $-1 $487 $493 $484 $516 reversed $368 $-1 #
edge $-1 -1 $-1 $519 -5.6937499999999996 $538 6.3062500000000004 $484 $539 forward @7 unknown #
coedge $-1 -1 $-1 $486 $485 $540 $541 reversed $344 $-1 #
edge $-1 -1 $-1 $542 0 $519 0.025000000000002132 $514 $543 forward @7 unknown #
vertex $-1 -1 $-1 $518 $544 #
straight-curve $-1 -1 $-1 -2.2204460492503131e-016 6 8.75 1 0 0 I I #
coedge $-1 -1 $-1 $540 $498 $489 $522 forward $447 $-1 #
edge $545 -1 $-1 $526 -6.3062500000000004 $523 5.6937499999999996 $489 $546 forward @7 unknown #
vertex $-1 -1 $-1 $522 $547 #
straight-curve $-1 -1 $-1 -6 6 8.7249999999999979 0 0 1 I I #
coedge $-1 -1 $-1 $535 $491 $498 $532 reversed $482 $-1 #
vertex $-1 -1 $-1 $532 $548 #
straight-curve $-1 -1 $-1 -6 -6 8.7249999999999979 0 0 1 I I #
edge $-1 -1 $-1 $538 -6 $494 6 $512 $549 forward @7 unknown #
point $-1 -1 $-1 -6 -6 8.75 #
point $-1 -1 $-1 -6 6 8.75 #
coedge $-1 -1 $-1 $498 $540 $536 $550 forward $447 $-1 #
edge $551 -1 $-1 $552 -6 $526 6 $525 $553 forward @7 unknown #
attrib_edge_convexity-kcp-attrib $-1 -1 $554 $-1 $502 2 #
ellipse-curve $-1 -1 $-1 -3.8857805861880479e-015 1.1102230246251565e-014 17.349999999999998 0 0 1 4.9879627054206658e-015 4.4999999999999893 0 1 I I #
coedge $-1 -1 $-1 $512 $525 $513 $537 forward $482 $-1 #
coedge $-1 -1 $-1 $514 $513 $531 $550 reversed $429 $-1 #
edge $-1 -1 $-1 $552 0 $538 0.025000000000002132 $535 $555 forward @7 unknown #
vertex $-1 -1 $-1 $537 $556 #
straight-curve $-1 -1 $-1 6 0.30624999999999991 8.75 0 -1 0 I I #
coedge $-1 -1 $-1 $531 $521 $517 $541 forward $447 $-1 #
edge $557 -1 $-1 $523 -6 $542 6 $517 $558 forward @7 unknown #
vertex $-1 -1 $-1 $541 $559 #
straight-curve $-1 -1 $-1 6 6 8.7249999999999979 0 0 1 I I #
point $-1 -1 $-1 6 6 8.75 #
convexity-sys-attrib $-1 -1 $-1 $-1 $522 #
straight-curve $-1 -1 $-1 -6 0.30624999999999991 8.7249999999999979 0 1 0 I I #
point $-1 -1 $-1 -6 6 8.7249999999999979 #
point $-1 -1 $-1 -6 -6 8.7249999999999979 #
straight-curve $-1 -1 $-1 -2.2204460492503131e-016 -6 8.75 -1 0 0 I I #
edge $560 -1 $-1 $542 -5.6937499999999996 $552 6.3062500000000004 $536 $561 forward @7 unknown #
convexity-sys-attrib $-1 -1 $-1 $-1 $532 #
vertex $-1 -1 $-1 $532 $562 #
straight-curve $-1 -1 $-1 -2.2204460492503131e-016 -6 8.7249999999999979 -1 0 0 I I #
convexity-sys-attrib $-1 -1 $-1 $533 $502 #
straight-curve $-1 -1 $-1 6 -6 8.7249999999999979 0 0 1 I I #
point $-1 -1 $-1 6 -6 8.75 #
convexity-sys-attrib $-1 -1 $-1 $-1 $541 #
straight-curve $-1 -1 $-1 -2.2204460492503131e-016 6 8.7249999999999979 1 0 0 I I #
point $-1 -1 $-1 6 6 8.7249999999999979 #
convexity-sys-attrib $-1 -1 $-1 $-1 $550 #
straight-curve $-1 -1 $-1 6 0.30624999999999991 8.7249999999999979 0 -1 0 I I #
point $-1 -1 $-1 6 -6 8.7249999999999979 #
End-of-ACIS-data 