600 0 1 0           
96 GICL ACIS Healer - Source: /gicl/data5/repository/PTC/V18/bboxrev2/boombox/cap22uf.prt.sat - 6 0 18 ACIS 6.0.3 Solaris 24 Sat Apr 13 22:53:27 2002 
1 9.999999999999999547e-07 1.000000000000000036e-10 
body $-1 $1 $-1 $-1 #
lump $-1 $-1 $2 $0 #
shell $-1 $-1 $-1 $3 $-1 $1 #
face $-1 $4 $5 $2 $-1 $6 reversed single #
face $-1 $7 $8 $2 $-1 $9 forward single #
loop $-1 $-1 $10 $3 #
plane-surface $-1 0 0 0 0 0 1 1 0 0 forward_v I I I I #
face $-1 $11 $12 $2 $-1 $13 reversed single #
loop $-1 $-1 $14 $4 #
cone-surface $-1 0 0 0 0 0 1 6 0 0 1 I I 0 1 6 forward I I I I #
coedge $-1 $15 $16 $17 $18 forward $5 $-1 #
face $-1 $19 $20 $2 $-1 $21 forward single #
loop $-1 $-1 $22 $7 #
plane-surface $-1 -4.242640687119283882 4.24264068711928477 17.5 -0.7071067811865477948 -0.7071067811865474617 0 0.7071067811865474617 -0.7071067811865477948 0 forward_v I I I I #
coedge $-1 $17 $23 $24 $25 reversed $8 $-1 #
coedge $-1 $26 $10 $27 $28 forward $5 $-1 #
coedge $-1 $10 $26 $29 $30 forward $5 $-1 #
coedge $-1 $31 $14 $10 $18 reversed $8 $-1 #
edge $-1 $32 -3.061515884555943146e-16 $33 5.497787143782138841 $10 $34 forward 7 unknown #
face $-1 $35 $36 $2 $-1 $37 reversed single #
loop $-1 $-1 $38 $11 #
torus-surface $-1 0 0 17.22499999999999787 0 0 1 5.724999999999999645 0.25 0 1 0 forward_v I I I I #
coedge $-1 $39 $40 $41 $42 forward $12 $-1 #
coedge $-1 $14 $31 $43 $44 reversed $8 $-1 #
coedge $-1 $45 $27 $14 $25 forward $12 $-1 #
edge $-1 $33 4.573106696933402373e-32 $46 17.25 $14 $47 forward 7 unknown #
coedge $-1 $16 $15 $48 $49 reversed $5 $-1 #
coedge $-1 $24 $50 $15 $28 reversed $12 $-1 #
edge $-1 $33 -6.280369834735100667e-16 $51 0.2749999999999976352 $15 $52 forward 7 unknown #
coedge $-1 $53 $54 $16 $30 reversed $36 $-1 #
edge $-1 $55 0 $32 0.2750000000000003553 $16 $56 forward 7 unknown #
coedge $-1 $23 $17 $54 $57 forward $8 $-1 #
vertex $-1 $30 $58 #
vertex $-1 $28 $59 #
ellipse-curve $-1 7.771561172376095783e-16 -4.163336342344337027e-17 0 0 0 -1 1.059753413495956309e-15 6 0 1 I I #
face $-1 $60 $61 $2 $-1 $62 reversed single #
loop $-1 $-1 $63 $19 #
plane-surface $-1 1.102182119232617911e-15 4.5 17.5 1 0 0 0 1 0 forward_v I I I I #
coedge $-1 $64 $65 $66 $67 forward $20 $-1 #
coedge $-1 $50 $22 $68 $69 reversed $12 $-1 #
coedge $-1 $22 $70 $71 $72 reversed $12 $-1 #
coedge $-1 $65 $64 $22 $42 reversed $20 $-1 #
edge $-1 $73 -2.512147933893897483e-15 $74 1.570796326794906772 $22 $75 forward 7 unknown #
coedge $-1 $76 $77 $23 $44 forward $78 $-1 #
edge $-1 $46 0 $79 5.497787143782137953 $23 $80 forward 7 unknown #
coedge $-1 $81 $24 $77 $82 forward $12 $-1 #
vertex $-1 $44 $83 #
straight-curve $-1 -4.24264068711928477 4.242640687119285658 0 5.148860404058697062e-17 -5.148860404058697062e-17 1 I I #
coedge $-1 $84 $85 $26 $49 forward $86 $-1 #
edge $-1 $55 2.449212707644750079e-16 $51 0.7853981633974468357 $26 $87 forward 7 unknown #
coedge $-1 $27 $39 $84 $88 reversed $12 $-1 #
vertex $-1 $49 $89 #
straight-curve $-1 -4.242640687119283882 4.24264068711928477 0 0.7071067811865474617 -0.7071067811865474617 0 I I #
coedge $-1 $90 $29 $85 $91 forward $36 $-1 #
coedge $-1 $29 $92 $31 $57 reversed $36 $-1 #
vertex $-1 $30 $93 #
straight-curve $-1 1.102182119232617911e-15 5.724999999999999645 0 0 1 0 I I #
edge $-1 $32 5.886870823116207612e-32 $79 17.25 $31 $94 forward 7 unknown #
point $-1 0 6 0 #
point $-1 -4.242640687119280329 4.242640687119289211 0 #
face $-1 $95 $96 $2 $-1 $97 forward single #
loop $-1 $-1 $98 $35 #
cone-surface $-1 0 0 17.5 0 0 1 0 4.5 0 1 I I 0 1 4.5 forward I I I I #
coedge $-1 $99 $100 $101 $102 forward $36 $-1 #
coedge $-1 $41 $38 $103 $104 forward $20 $-1 #
coedge $-1 $38 $41 $105 $106 reversed $20 $-1 #
coedge $-1 $100 $90 $38 $67 reversed $36 $-1 #
edge $-1 $107 0 $108 1.570796326794896558 $66 $109 forward 7 unknown #
coedge $-1 $103 $110 $39 $69 forward $111 $-1 #
edge $-1 $112 0 $74 16.97500000000000142 $39 $113 forward 7 unknown #
coedge $-1 $40 $81 $114 $115 reversed $12 $-1 #
coedge $-1 $116 $105 $40 $72 forward $117 $-1 #
edge $-1 $73 0 $118 1.224999999999999645 $40 $119 forward 7 unknown #
vertex $-1 $72 $120 #
vertex $-1 $69 $121 #
ellipse-curve $-1 -4.048186322292985473 4.048186322292985473 17.22500000000000142 -0.7071067811865476838 -0.7071067811865473507 5.024295867788154686e-15 2.664535259100375697e-15 -8.881784197001252323e-16 0.2499999999999964473 1 I I #
coedge $-1 $122 $43 $92 $123 forward $78 $-1 #
coedge $-1 $43 $122 $45 $82 reversed $78 $-1 #
loop $-1 $-1 $76 $124 #
vertex $-1 $44 $125 #
ellipse-curve $-1 0 0 17.25 0 0 1 -4.24264068711928477 4.24264068711928477 0 1 I I #
coedge $-1 $70 $45 $126 $127 forward $12 $-1 #
edge $-1 $46 0 $128 1.570796326794889008 $45 $129 forward 7 unknown #
point $-1 -4.24264068711928477 4.24264068711928477 17.25 #
coedge $-1 $130 $48 $50 $88 forward $86 $-1 #
coedge $-1 $48 $130 $53 $91 reversed $86 $-1 #
loop $-1 $-1 $84 $131 #
ellipse-curve $-1 1.887379141862766119e-15 -1.021405182655144017e-14 0 0 0 1 -4.852048667361441975e-16 5.725000000000010303 0 1 I I #
edge $-1 $51 0 $112 1.570796326794891673 $50 $132 forward 7 unknown #
point $-1 -4.048186322292984585 4.048186322292986361 0 #
coedge $-1 $66 $53 $133 $134 forward $36 $-1 #
edge $-1 $55 0 $135 1.570796326794893005 $53 $136 forward 7 unknown #
coedge $-1 $54 $99 $76 $123 reversed $36 $-1 #
point $-1 0 5.724999999999999645 0 #
straight-curve $-1 1.699649535696901026e-15 6 0 -3.463579225879902365e-17 0 1 I I #
face $-1 $137 $138 $2 $-1 $139 reversed single #
loop $-1 $-1 $140 $60 #
plane-surface $-1 0 0 17.34999999999999787 0 0 1 0 1 0 forward_v I I I I #
coedge $-1 $141 $142 $140 $143 reversed $61 $-1 #
coedge $-1 $92 $63 $144 $145 forward $36 $-1 #
coedge $-1 $63 $66 $146 $147 reversed $36 $-1 #
coedge $-1 $142 $148 $63 $102 reversed $61 $-1 #
edge $-1 $149 -3.552713678800500929e-15 $150 0.02499999999999857891 $101 $151 forward 7 unknown #
coedge $-1 $133 $68 $64 $104 reversed $111 $-1 #
edge $-1 $108 6.045564411466492682e-17 $74 0.78539816339744839 $103 $152 forward 7 unknown #
coedge $-1 $71 $146 $65 $106 forward $117 $-1 #
edge $-1 $107 5.240037657537192202e-17 $73 0.7853981633974492782 $105 $153 forward 7 unknown #
vertex $-1 $147 $154 #
vertex $-1 $67 $155 #
ellipse-curve $-1 1.102182119232617911e-15 5.724999999999999645 17.22500000000000142 -1 0 1.199968623576033198e-15 2.999921558940040101e-16 0 0.2499999999999964473 1 I I #
coedge $-1 $68 $133 $130 $156 forward $111 $-1 #
loop $-1 $-1 $103 $157 #
vertex $-1 $88 $158 #
straight-curve $-1 -4.224963017589619341 4.224963017589620229 0.25 0 0 1 I I #
coedge $-1 $148 $141 $70 $115 forward $61 $-1 #
edge $-1 $118 0 $159 0.02499999999999857891 $114 $160 forward 7 unknown #
coedge $-1 $146 $71 $161 $162 forward $117 $-1 #
loop $-1 $-1 $116 $137 #
vertex $-1 $115 $163 #
straight-curve $-1 -4.048186322292982808 4.048186322292983697 17.47499999999999787 0.7071067811865472397 -0.7071067811865479058 0 I I #
point $-1 -4.048186322292982808 4.048186322292983697 17.47500000000000142 #
point $-1 -4.224963017589619341 4.224963017589620229 17.22500000000000142 #
coedge $-1 $77 $76 $164 $165 reversed $78 $-1 #
edge $-1 $79 0 $166 1.570796326794903885 $92 $167 forward 7 unknown #
face $-1 $131 $78 $2 $-1 $168 forward single #
point $-1 1.836909530733565887e-15 6 17.25 #
coedge $-1 $164 $169 $81 $127 reversed $170 $-1 #
edge $-1 $128 0 $159 1.249999999999999334 $126 $171 forward 7 unknown #
vertex $-1 $127 $172 #
ellipse-curve $-1 -4.065863991822646462 4.065863991822646462 17.25 0.7071067811865475727 0.7071067811865475727 0 -0.1767766952966383087 0.1767766952966383087 0 1 I I #
coedge $-1 $85 $84 $110 $156 reversed $86 $-1 #
face $-1 $157 $86 $2 $-1 $173 forward single #
ellipse-curve $-1 -4.048186322292984585 4.048186322292984585 0.25 0.7071067811865477948 0.7071067811865474617 5.024295867788079745e-15 0 1.776356839400250465e-15 -0.25 1 I I #
coedge $-1 $110 $103 $90 $134 reversed $111 $-1 #
edge $-1 $135 0 $108 16.97500000000000142 $90 $174 forward 7 unknown #
vertex $-1 $134 $175 #
ellipse-curve $-1 1.102182119232617911e-15 5.724999999999998757 0.25 1 -4.263144943109921458e-30 1.19996862357601604e-15 2.999921558940040101e-16 8.881784197001252323e-16 -0.25 1 I I #
face $-1 $176 $117 $2 $-1 $177 forward single #
loop $-1 $-1 $178 $95 #
cone-surface $-1 0 0 17.47499999999999787 0 0 1 0 4.5 0 1 I I 0 1 4.5 forward I I I I #
coedge $-1 $179 $179 $98 $143 forward $96 $-1 #
coedge $-1 $114 $98 $180 $181 forward $61 $-1 #
coedge $-1 $98 $101 $178 $182 reversed $61 $-1 #
edge $-1 $183 -8.772132540248153654e-17 $184 5.497787143782137953 $140 $185 forward 7 unknown #
coedge $-1 $169 $164 $99 $145 reversed $170 $-1 #
edge $-1 $150 0 $166 1.25 $144 $186 forward 7 unknown #
coedge $-1 $105 $116 $100 $147 forward $117 $-1 #
edge $-1 $149 0 $107 1.224999999999999645 $100 $187 forward 7 unknown #
coedge $-1 $101 $114 $169 $188 reversed $61 $-1 #
vertex $-1 $182 $189 #
vertex $-1 $188 $190 #
straight-curve $-1 1.102182119232617911e-15 4.5 17.47500000000000142 -4.408728476930722187e-14 0 1 I I #
ellipse-curve $-1 0 0 17.22499999999999787 0 0 1 1.463404592817740784e-15 5.974999999999999645 0 1 I I #
ellipse-curve $-1 -1.11022302462515654e-15 6.661338147750939243e-15 17.47499999999999787 0 0 1 2.512397299751778659e-15 5.724999999999992539 0 1 I I #
point $-1 1.102182119232617911e-15 5.724999999999999645 17.47500000000000142 #
point $-1 1.102182119232617911e-15 5.974999999999999645 17.22500000000000142 #
edge $-1 $135 0 $112 0.78539816339744839 $110 $191 forward 7 unknown #
face $-1 $-1 $111 $2 $-1 $192 forward single #
point $-1 -4.224963017589619341 4.224963017589620229 0.25 #
vertex $-1 $127 $193 #
straight-curve $-1 -3.181980515339462912 3.181980515339462912 17.47500000000000142 -3.552713678800702878e-14 5.329070518201054317e-14 1 I I #
coedge $-1 $180 $178 $116 $162 reversed $138 $-1 #
edge $-1 $118 -8.772132540248153654e-17 $149 0.785398163397448501 $116 $194 forward 7 unknown #
point $-1 -3.181980515339462912 3.181980515339462912 17.47500000000000142 #
coedge $-1 $144 $126 $122 $165 forward $170 $-1 #
edge $-1 $128 -1.074544779977466736e-16 $166 5.497787143782137953 $164 $195 forward 7 unknown #
vertex $-1 $145 $196 #
ellipse-curve $-1 1.102182119232617911e-15 5.750000000000001776 17.25 1 -2.93890964600381281e-15 0 7.347274115009479762e-16 0.2499999999999982236 0 1 I I #
torus-surface $-1 0 0 17.25 0 0 1 5.75 0.25 1 0 0 forward_v I I I I #
coedge $-1 $126 $144 $148 $188 forward $170 $-1 #
loop $-1 $-1 $164 $176 #
straight-curve $-1 -4.06586399182264735 4.065863991822648238 17.5 0.7071067811865471286 -0.7071067811865477948 0 I I #
point $-1 -4.06586399182264735 4.065863991822648238 17.5 #
torus-surface $-1 0 0 0.25 0 0 1 5.724999999999999645 0.25 0 1 0 forward_v I I I I #
straight-curve $-1 1.102182119232617911e-15 5.974999999999999645 0.25 0 0 1 I I #
point $-1 1.463404592817740784e-15 5.974999999999999645 0.25 #
face $-1 $124 $170 $2 $-1 $197 forward single #
plane-surface $-1 0 0 17.47499999999999787 0 0 1 0 1 0 forward_v I I I I #
coedge $-1 $161 $198 $142 $182 forward $138 $-1 #
coedge $-1 $140 $140 $198 $199 forward $96 $-1 #
coedge $-1 $198 $161 $141 $181 reversed $138 $-1 #
edge $-1 $183 -1.577721810442023611e-30 $118 0.1250000000000035527 $141 $200 forward 7 unknown #
edge $-1 $184 -3.209518206229851154e-34 $149 0.125 $142 $201 forward 7 unknown #
vertex $-1 $199 $202 #
vertex $-1 $199 $203 #
ellipse-curve $-1 -1.887379141862766119e-15 -6.106226635438360972e-16 17.34999999999999787 5.582550964208976618e-16 -5.582550964208981548e-16 1 -3.181980515339462023 3.181980515339464688 3.552713678800500929e-15 1 I I #
straight-curve $-1 1.102182119232617911e-15 4.5 17.5 0 1 0 I I #
straight-curve $-1 1.102182119232617911e-15 4.5 17.47499999999999787 0 1 0 I I #
edge $-1 $150 0 $159 5.497787143782137953 $169 $204 forward 7 unknown #
point $-1 1.102145718440139532e-15 4.5 17.47499999999999787 #
point $-1 1.102145718440139532e-15 4.5 17.5 #
ellipse-curve $-1 0 0 0.25 0 0 1 1.463404592817740784e-15 5.974999999999999645 0 1 I I #
cone-surface $-1 0 0 17.47499999999999787 0 0 1 0 5.974999999999999645 0 1 I I 0 1 5.974999999999999645 forward I I I I #
point $-1 -3.1819805153394638 3.181980515339464244 17.5 #
ellipse-curve $-1 0 0 17.47499999999999787 0 0 -1 -3.1819805153394638 3.181980515339464244 0 1 I I #
ellipse-curve $-1 7.771561172376095783e-16 0 17.5 0 0 1 -4.065863991822650014 4.065863991822649126 0 1 I I #
point $-1 0 5.75 17.5 #
plane-surface $-1 0 0 17.5 0 0 1 1 0 0 forward_v I I I I #
coedge $-1 $178 $180 $179 $199 reversed $138 $-1 #
edge $-1 $184 0 $183 0.7853981633974502774 $179 $205 forward 7 unknown #
straight-curve $-1 -3.181980515339462912 3.181980515339464688 17.34999999999999787 3.552713678800500929e-15 3.552713678800500929e-15 1 I I #
straight-curve $-1 1.102145718440139532e-15 4.5 17.34999999999999787 -8.817165747521116259e-15 0 1 I I #
point $-1 -3.181980515339462912 3.181980515339464244 17.34999999999999787 #
point $-1 1.102182119232617911e-15 4.5 17.34999999999999787 #
ellipse-curve $-1 2.220446049250313081e-16 -1.942890293094023946e-16 17.5 0 0 -1 8.801011135151082243e-16 4.5 0 1 I I #
ellipse-curve $-1 -3.885780586188047891e-15 1.11022302462515654e-14 17.34999999999999787 0 0 1 4.987962705420665803e-15 4.499999999999989342 0 1 I I #
End-of-ACIS-data 