600 0 1 0           
99 GICL Pro/E ACIS Translator - Source: f:/data5/repository/PTC/V18/bboxrev2/boombox/cap22uf.prt - 6 0 13 ACIS 6.0.3 NT 24 Thu Apr 04 10:05:10 2002 
1 9.9999999999999995e-007 1e-010 
body $-1 $1 $-1 $-1 #
lump $-1 $-1 $2 $0 #
shell $-1 $-1 $-1 $3 $-1 $1 #
face $-1 $4 $5 $2 $-1 $6 reversed single #
face $-1 $7 $8 $2 $-1 $9 forward single #
loop $-1 $-1 $10 $3 #
plane-surface $-1 0 0 0 0 0 1 1 0 0 forward_v I I I I #
face $-1 $11 $12 $2 $-1 $13 reversed single #
loop $-1 $-1 $14 $4 #
cone-surface $-1 0 0 0 0 0 1 6 0 0 1 I I 0 1 6 forward I I I I #
coedge $-1 $15 $16 $17 $18 forward $5 $-1 #
face $-1 $19 $20 $2 $-1 $21 forward single #
loop $-1 $-1 $22 $7 #
plane-surface $-1 -4.2426406871192839 4.2426406871192848 17.5 -0.70710678118654779 -0.70710678118654746 0 0.70710678118654746 -0.70710678118654779 0 forward_v I I I I #
coedge $-1 $17 $23 $24 $25 reversed $8 $-1 #
coedge $-1 $26 $10 $27 $28 forward $5 $-1 #
coedge $-1 $10 $26 $29 $30 forward $5 $-1 #
coedge $-1 $31 $14 $10 $18 reversed $8 $-1 #
edge $-1 $32 -3.0615158845559431e-016 $33 5.4977871437821388 $10 $34 forward 7 unknown #
face $-1 $35 $36 $2 $-1 $37 reversed single #
loop $-1 $-1 $38 $11 #
torus-surface $-1 0 0 17.224999999999998 0 0 1 5.7249999999999996 0.25 0 1 0 forward_v I I I I #
coedge $-1 $39 $40 $41 $42 forward $12 $-1 #
coedge $-1 $14 $31 $43 $44 reversed $8 $-1 #
coedge $-1 $45 $27 $14 $25 forward $12 $-1 #
edge $-1 $33 4.5731066969334024e-032 $46 17.25 $14 $47 forward 7 unknown #
coedge $-1 $16 $15 $48 $49 reversed $5 $-1 #
coedge $-1 $24 $50 $15 $28 reversed $12 $-1 #
edge $-1 $33 -6.2803698347351007e-016 $51 0.27499999999999764 $15 $52 forward 7 unknown #
coedge $-1 $53 $54 $16 $30 reversed $36 $-1 #
edge $-1 $55 0 $32 0.27500000000000036 $16 $56 forward 7 unknown #
coedge $-1 $23 $17 $54 $57 forward $8 $-1 #
vertex $-1 $30 $58 #
vertex $-1 $28 $59 #
ellipse-curve $-1 7.7715611723760958e-016 -4.163336342344337e-017 0 0 0 -1 1.0597534134959563e-015 6 0 1 I I #
face $-1 $60 $61 $2 $-1 $62 reversed single #
loop $-1 $-1 $63 $19 #
plane-surface $-1 1.1021821192326179e-015 4.5 17.5 1 0 0 0 1 0 forward_v I I I I #
coedge $-1 $64 $65 $66 $67 forward $20 $-1 #
coedge $-1 $50 $22 $68 $69 reversed $12 $-1 #
coedge $-1 $22 $70 $71 $72 reversed $12 $-1 #
coedge $-1 $65 $64 $22 $42 reversed $20 $-1 #
edge $-1 $73 -2.5121479338938967e-015 $74 1.5707963267949068 $22 $75 forward 7 unknown #
coedge $-1 $76 $77 $23 $44 forward $78 $-1 #
edge $-1 $46 0 $79 5.497787143782138 $23 $80 forward 7 unknown #
coedge $-1 $81 $24 $77 $82 forward $12 $-1 #
vertex $-1 $44 $83 #
straight-curve $-1 -4.2426406871192848 4.2426406871192857 0 5.1488604040586971e-017 -5.1488604040586971e-017 1 I I #
coedge $-1 $84 $85 $26 $49 forward $86 $-1 #
edge $-1 $55 2.4492127076447501e-016 $51 0.78539816339744684 $26 $87 forward 7 unknown #
coedge $-1 $27 $39 $84 $88 reversed $12 $-1 #
vertex $-1 $49 $89 #
straight-curve $-1 -4.2426406871192839 4.2426406871192848 0 0.70710678118654746 -0.70710678118654746 0 I I #
coedge $-1 $90 $29 $85 $91 forward $36 $-1 #
coedge $-1 $29 $92 $31 $57 reversed $36 $-1 #
vertex $-1 $30 $93 #
straight-curve $-1 1.1021821192326179e-015 5.7249999999999996 0 0 1 0 I I #
edge $-1 $32 5.8868708231162076e-032 $79 17.25 $31 $94 forward 7 unknown #
point $-1 0 6 0 #
point $-1 -4.2426406871192803 4.2426406871192892 0 #
face $-1 $95 $96 $2 $-1 $97 forward single #
loop $-1 $-1 $98 $35 #
cone-surface $-1 0 0 17.5 0 0 1 0 4.5 0 1 I I 0 1 4.5 forward I I I I #
coedge $-1 $99 $100 $101 $102 forward $36 $-1 #
coedge $-1 $41 $38 $103 $104 forward $20 $-1 #
coedge $-1 $38 $41 $105 $106 reversed $20 $-1 #
coedge $-1 $100 $90 $38 $67 reversed $36 $-1 #
edge $-1 $107 0 $108 1.5707963267948966 $66 $109 forward 7 unknown #
coedge $-1 $103 $110 $39 $69 forward $111 $-1 #
edge $-1 $112 0 $74 16.975000000000001 $39 $113 forward 7 unknown #
coedge $-1 $40 $81 $114 $115 reversed $12 $-1 #
coedge $-1 $116 $105 $40 $72 forward $117 $-1 #
edge $-1 $73 0 $118 1.2249999999999996 $40 $119 forward 7 unknown #
vertex $-1 $72 $120 #
vertex $-1 $69 $121 #
ellipse-curve $-1 -4.0481863222929855 4.0481863222929855 17.225000000000001 -0.70710678118654768 -0.70710678118654735 5.0242958677881547e-015 2.6645352591003757e-015 -8.8817841970012523e-016 0.24999999999999645 1 I I #
coedge $-1 $122 $43 $92 $123 forward $78 $-1 #
coedge $-1 $43 $122 $45 $82 reversed $78 $-1 #
loop $-1 $-1 $76 $124 #
vertex $-1 $44 $125 #
ellipse-curve $-1 0 0 17.25 0 0 1 -4.2426406871192848 4.2426406871192848 0 1 I I #
coedge $-1 $70 $45 $126 $127 forward $12 $-1 #
edge $-1 $46 0 $128 1.570796326794889 $45 $129 forward 7 unknown #
point $-1 -4.2426406871192848 4.2426406871192848 17.25 #
coedge $-1 $130 $48 $50 $88 forward $86 $-1 #
coedge $-1 $48 $130 $53 $91 reversed $86 $-1 #
loop $-1 $-1 $84 $131 #
ellipse-curve $-1 1.8873791418627661e-015 -1.021405182655144e-014 0 0 0 1 -4.852048667361442e-016 5.7250000000000103 0 1 I I #
edge $-1 $51 0 $112 1.5707963267948917 $50 $132 forward 7 unknown #
point $-1 -4.0481863222929846 4.0481863222929864 0 #
coedge $-1 $66 $53 $133 $134 forward $36 $-1 #
edge $-1 $55 0 $135 1.570796326794893 $53 $136 forward 7 unknown #
coedge $-1 $54 $99 $76 $123 reversed $36 $-1 #
point $-1 0 5.7249999999999996 0 #
straight-curve $-1 1.699649535696901e-015 6 0 -3.4635792258799024e-017 0 1 I I #
face $-1 $137 $138 $2 $-1 $139 reversed single #
loop $-1 $-1 $140 $60 #
plane-surface $-1 0 0 17.349999999999998 0 0 1 0 1 0 forward_v I I I I #
coedge $-1 $141 $142 $140 $143 reversed $61 $-1 #
coedge $-1 $92 $63 $144 $145 forward $36 $-1 #
coedge $-1 $63 $66 $146 $147 reversed $36 $-1 #
coedge $-1 $142 $148 $63 $102 reversed $61 $-1 #
edge $-1 $149 -3.5527136788005009e-015 $150 0.024999999999998579 $101 $151 forward 7 unknown #
coedge $-1 $133 $68 $64 $104 reversed $111 $-1 #
edge $-1 $108 6.0455644114664927e-017 $74 0.7853981633974485 $103 $152 forward 7 unknown #
coedge $-1 $71 $146 $65 $106 forward $117 $-1 #
edge $-1 $107 5.2400376575371922e-017 $73 0.78539816339744928 $105 $153 forward 7 unknown #
vertex $-1 $147 $154 #
vertex $-1 $67 $155 #
ellipse-curve $-1 1.1021821192326179e-015 5.7249999999999996 17.225000000000001 -1 0 1.1999686235760332e-015 2.9999215589400401e-016 0 0.24999999999999645 1 I I #
coedge $-1 $68 $133 $130 $156 forward $111 $-1 #
loop $-1 $-1 $103 $157 #
vertex $-1 $88 $158 #
straight-curve $-1 -4.2249630175896193 4.2249630175896202 0.25 0 0 1 I I #
coedge $-1 $148 $141 $70 $115 forward $61 $-1 #
edge $-1 $118 0 $159 0.024999999999998579 $114 $160 forward 7 unknown #
coedge $-1 $146 $71 $161 $162 forward $117 $-1 #
loop $-1 $-1 $116 $137 #
vertex $-1 $115 $163 #
straight-curve $-1 -4.0481863222929828 4.0481863222929837 17.474999999999998 0.70710678118654724 -0.70710678118654791 0 I I #
point $-1 -4.0481863222929828 4.0481863222929837 17.475000000000001 #
point $-1 -4.2249630175896193 4.2249630175896202 17.225000000000001 #
coedge $-1 $77 $76 $164 $165 reversed $78 $-1 #
edge $-1 $79 0 $166 1.5707963267949037 $92 $167 forward 7 unknown #
face $-1 $131 $78 $2 $-1 $168 forward single #
point $-1 1.8369095307335659e-015 6 17.25 #
coedge $-1 $164 $169 $81 $127 reversed $170 $-1 #
edge $-1 $128 0 $159 1.2499999999999993 $126 $171 forward 7 unknown #
vertex $-1 $127 $172 #
ellipse-curve $-1 -4.0658639918226465 4.0658639918226465 17.25 0.70710678118654757 0.70710678118654757 0 -0.17677669529663831 0.17677669529663831 0 1 I I #
coedge $-1 $85 $84 $110 $156 reversed $86 $-1 #
face $-1 $157 $86 $2 $-1 $173 forward single #
ellipse-curve $-1 -4.0481863222929846 4.0481863222929846 0.25 0.70710678118654779 0.70710678118654746 5.0242958677880797e-015 0 1.7763568394002505e-015 -0.25 1 I I #
coedge $-1 $110 $103 $90 $134 reversed $111 $-1 #
edge $-1 $135 0 $108 16.975000000000001 $90 $174 forward 7 unknown #
vertex $-1 $134 $175 #
ellipse-curve $-1 1.1021821192326179e-015 5.7249999999999988 0.25 1 -4.2631449431099215e-030 1.199968623576016e-015 2.9999215589400401e-016 8.8817841970012523e-016 -0.25 1 I I #
face $-1 $176 $117 $2 $-1 $177 forward single #
loop $-1 $-1 $178 $95 #
cone-surface $-1 0 0 17.474999999999998 0 0 1 0 4.5 0 1 I I 0 1 4.5 forward I I I I #
coedge $-1 $179 $179 $98 $143 forward $96 $-1 #
coedge $-1 $114 $98 $180 $181 forward $61 $-1 #
coedge $-1 $98 $101 $178 $182 reversed $61 $-1 #
edge $-1 $183 -8.7721325402481537e-017 $184 5.497787143782138 $140 $185 forward 7 unknown #
coedge $-1 $169 $164 $99 $145 reversed $170 $-1 #
edge $-1 $150 0 $166 1.25 $144 $186 forward 7 unknown #
coedge $-1 $105 $116 $100 $147 forward $117 $-1 #
edge $-1 $149 0 $107 1.2249999999999996 $100 $187 forward 7 unknown #
coedge $-1 $101 $114 $169 $188 reversed $61 $-1 #
vertex $-1 $182 $189 #
vertex $-1 $188 $190 #
straight-curve $-1 1.1021821192326179e-015 4.5 17.475000000000001 -4.4087284769307222e-014 0 1 I I #
ellipse-curve $-1 0 0 17.224999999999998 0 0 1 1.4634045928177408e-015 5.9749999999999996 0 1 I I #
ellipse-curve $-1 -1.1102230246251565e-015 6.6613381477509392e-015 17.474999999999998 0 0 1 2.5123972997517787e-015 5.7249999999999925 0 1 I I #
point $-1 1.1021821192326179e-015 5.7249999999999996 17.475000000000001 #
point $-1 1.1021821192326179e-015 5.9749999999999996 17.225000000000001 #
edge $-1 $135 0 $112 0.7853981633974485 $110 $191 forward 7 unknown #
face $-1 $-1 $111 $2 $-1 $192 forward single #
point $-1 -4.2249630175896193 4.2249630175896202 0.25 #
vertex $-1 $127 $193 #
straight-curve $-1 -3.1819805153394629 3.1819805153394629 17.475000000000001 -3.5527136788007029e-014 5.3290705182010543e-014 1 I I #
coedge $-1 $180 $178 $116 $162 reversed $138 $-1 #
edge $-1 $118 -8.7721325402481537e-017 $149 0.7853981633974485 $116 $194 forward 7 unknown #
point $-1 -3.1819805153394629 3.1819805153394629 17.475000000000001 #
coedge $-1 $144 $126 $122 $165 forward $170 $-1 #
edge $-1 $128 -1.0745447799774667e-016 $166 5.497787143782138 $164 $195 forward 7 unknown #
vertex $-1 $145 $196 #
ellipse-curve $-1 1.1021821192326179e-015 5.7500000000000018 17.25 1 -2.9389096460038128e-015 0 7.3472741150094798e-016 0.24999999999999822 0 1 I I #
torus-surface $-1 0 0 17.25 0 0 1 5.75 0.25 1 0 0 forward_v I I I I #
coedge $-1 $126 $144 $148 $188 forward $170 $-1 #
loop $-1 $-1 $164 $176 #
straight-curve $-1 -4.0658639918226473 4.0658639918226482 17.5 0.70710678118654713 -0.70710678118654779 0 I I #
point $-1 -4.0658639918226473 4.0658639918226482 17.5 #
torus-surface $-1 0 0 0.25 0 0 1 5.7249999999999996 0.25 0 1 0 forward_v I I I I #
straight-curve $-1 1.1021821192326179e-015 5.9749999999999996 0.25 0 0 1 I I #
point $-1 1.4634045928177408e-015 5.9749999999999996 0.25 #
face $-1 $124 $170 $2 $-1 $197 forward single #
plane-surface $-1 0 0 17.474999999999998 0 0 1 0 1 0 forward_v I I I I #
coedge $-1 $161 $198 $142 $182 forward $138 $-1 #
coedge $-1 $140 $140 $198 $199 forward $96 $-1 #
coedge $-1 $198 $161 $141 $181 reversed $138 $-1 #
edge $-1 $183 -1.5777218104420236e-030 $118 0.12500000000000355 $141 $200 forward 7 unknown #
edge $-1 $184 -3.2095182062298512e-034 $149 0.125 $142 $201 forward 7 unknown #
vertex $-1 $199 $202 #
vertex $-1 $199 $203 #
ellipse-curve $-1 -1.8873791418627661e-015 -6.106226635438361e-016 17.349999999999998 5.5825509642089766e-016 -5.5825509642089815e-016 1 -3.181980515339462 3.1819805153394647 3.5527136788005009e-015 1 I I #
straight-curve $-1 1.1021821192326179e-015 4.5 17.5 0 1 0 I I #
straight-curve $-1 1.1021821192326179e-015 4.5 17.474999999999998 0 1 0 I I #
edge $-1 $150 0 $159 5.497787143782138 $169 $204 forward 7 unknown #
point $-1 1.1021457184401395e-015 4.5 17.474999999999998 #
point $-1 1.1021457184401395e-015 4.5 17.5 #
ellipse-curve $-1 0 0 0.25 0 0 1 1.4634045928177408e-015 5.9749999999999996 0 1 I I #
cone-surface $-1 0 0 17.474999999999998 0 0 1 0 5.9749999999999996 0 1 I I 0 1 5.9749999999999996 forward I I I I #
point $-1 -3.1819805153394638 3.1819805153394642 17.5 #
ellipse-curve $-1 0 0 17.474999999999998 0 0 -1 -3.1819805153394638 3.1819805153394642 0 1 I I #
ellipse-curve $-1 7.7715611723760958e-016 0 17.5 0 0 1 -4.06586399182265 4.0658639918226491 0 1 I I #
point $-1 0 5.75 17.5 #
plane-surface $-1 0 0 17.5 0 0 1 1 0 0 forward_v I I I I #
coedge $-1 $178 $180 $179 $199 reversed $138 $-1 #
edge $-1 $184 0 $183 0.78539816339745028 $179 $205 forward 7 unknown #
straight-curve $-1 -3.1819805153394629 3.1819805153394647 17.349999999999998 3.5527136788005009e-015 3.5527136788005009e-015 1 I I #
straight-curve $-1 1.1021457184401395e-015 4.5 17.349999999999998 -8.8171657475211163e-015 0 1 I I #
point $-1 -3.1819805153394629 3.1819805153394642 17.349999999999998 #
point $-1 1.1021821192326179e-015 4.5 17.349999999999998 #
ellipse-curve $-1 2.2204460492503131e-016 -1.9428902930940239e-016 17.5 0 0 -1 8.8010111351510822e-016 4.5 0 1 I I #
ellipse-curve $-1 -3.8857805861880479e-015 1.1102230246251565e-014 17.349999999999998 0 0 1 4.9879627054206658e-015 4.4999999999999893 0 1 I I #
End-of-ACIS-data 