600 0 1 0           
96 GICL ACIS Healer - Source: /gicl/data5/repository/PTC/V18/bboxrev2/boombox/cassette_bd.sat - 6 0 18 ACIS 6.0.3 Solaris 24 Sat Apr 13 22:36:04 2002 
1 9.999999999999999547e-07 1.000000000000000036e-10 
body $-1 $1 $-1 $-1 #
lump $-1 $-1 $2 $0 #
shell $-1 $-1 $-1 $3 $-1 $1 #
face $-1 $4 $5 $2 $-1 $6 reversed single #
face $-1 $7 $8 $2 $-1 $9 forward single #
loop $-1 $10 $11 $3 #
plane-surface $-1 0 0 0 0 0 -1 -1 0 0 forward_v I I I I #
face $-1 $12 $13 $2 $-1 $14 forward single #
loop $-1 $-1 $15 $4 #
plane-surface $-1 30 35 0 1 0 0 0 -1 0 forward_v I I I I #
loop $-1 $16 $17 $3 #
coedge $-1 $18 $19 $20 $21 reversed $5 $-1 #
face $-1 $22 $23 $2 $-1 $24 forward single #
loop $-1 $-1 $25 $7 #
plane-surface $-1 30 0 0 0 -1 0 -1 0 0 forward_v I I I I #
coedge $-1 $26 $20 $27 $28 forward $8 $-1 #
loop $-1 $29 $30 $3 #
coedge $-1 $31 $31 $32 $33 reversed $10 $-1 #
coedge $-1 $34 $11 $35 $36 reversed $5 $-1 #
coedge $-1 $11 $34 $37 $38 reversed $5 $-1 #
coedge $-1 $15 $39 $11 $21 forward $8 $-1 #
edge $-1 $40 0 $41 35 $11 $42 forward 7 unknown #
face $-1 $43 $44 $2 $-1 $45 forward single #
loop $-1 $-1 $46 $12 #
plane-surface $-1 -30 0 0 -1 0 0 0 1 0 forward_v I I I I #
coedge $-1 $47 $37 $48 $49 forward $13 $-1 #
coedge $-1 $39 $15 $50 $51 reversed $8 $-1 #
coedge $-1 $37 $47 $15 $28 reversed $13 $-1 #
edge $-1 $41 0 $52 2 $27 $53 forward 7 unknown #
loop $-1 $54 $55 $3 #
coedge $-1 $56 $56 $57 $58 reversed $16 $-1 #
coedge $-1 $17 $17 $59 $60 reversed $10 $-1 #
coedge $-1 $61 $62 $17 $33 forward $63 $-1 #
edge $-1 $64 0 $65 3.141592653589793116 $17 $66 forward 7 unknown #
coedge $-1 $19 $18 $67 $68 reversed $5 $-1 #
coedge $-1 $69 $70 $18 $36 forward $44 $-1 #
edge $-1 $71 0 $40 60 $18 $72 forward 7 unknown #
coedge $-1 $25 $27 $19 $38 forward $13 $-1 #
edge $-1 $41 0 $73 60 $19 $74 forward 7 unknown #
coedge $-1 $20 $26 $69 $75 reversed $8 $-1 #
vertex $-1 $36 $76 #
vertex $-1 $38 $77 #
straight-curve $-1 30 35 0 0 -1 0 I I #
face $-1 $78 $79 $2 $-1 $80 forward single #
loop $-1 $-1 $69 $22 #
plane-surface $-1 -30 35 0 0 1 0 1 0 0 forward_v I I I I #
coedge $-1 $81 $67 $70 $82 forward $23 $-1 #
coedge $-1 $27 $25 $83 $84 reversed $13 $-1 #
coedge $-1 $67 $81 $25 $49 reversed $23 $-1 #
edge $-1 $73 0 $85 2 $25 $86 forward 7 unknown #
coedge $-1 $83 $87 $26 $51 forward $79 $-1 #
edge $-1 $88 0 $52 35 $50 $89 forward 7 unknown #
vertex $-1 $84 $90 #
straight-curve $-1 30 0 0 0 0 -1 I I #
loop $-1 $-1 $91 $3 #
coedge $-1 $92 $92 $93 $94 reversed $29 $-1 #
coedge $-1 $30 $30 $95 $96 reversed $16 $-1 #
coedge $-1 $97 $98 $30 $58 forward $99 $-1 #
edge $-1 $100 0 $101 3.141592653589793116 $30 $102 forward 7 unknown #
coedge $-1 $103 $104 $31 $60 forward $105 $-1 #
edge $-1 $65 0 $64 3.141592653589793116 $31 $106 forward 7 unknown #
coedge $-1 $107 $32 $104 $108 forward $63 $-1 #
coedge $-1 $32 $107 $103 $109 reversed $63 $-1 #
loop $-1 $-1 $61 $110 #
vertex $-1 $60 $111 #
vertex $-1 $60 $112 #
ellipse-curve $-1 -25 32.5 0 0 0 1 -1.5 0 0 1 I I #
coedge $-1 $46 $48 $34 $68 forward $23 $-1 #
edge $-1 $73 0 $71 35 $34 $113 forward 7 unknown #
coedge $-1 $114 $35 $39 $75 forward $44 $-1 #
coedge $-1 $35 $114 $46 $82 reversed $44 $-1 #
vertex $-1 $68 $115 #
straight-curve $-1 -30 35 0 1 0 0 I I #
vertex $-1 $38 $116 #
straight-curve $-1 30 0 0 -1 0 0 I I #
edge $-1 $40 0 $88 2 $69 $117 forward 7 unknown #
point $-1 30 35 0 #
point $-1 30 0 0 #
face $-1 $118 $119 $2 $-1 $120 forward single #
loop $-1 $121 $122 $43 #
plane-surface $-1 0 0 -2 0 0 -1 -1 0 0 forward_v I I I I #
coedge $-1 $48 $46 $122 $123 reversed $23 $-1 #
edge $-1 $71 0 $124 2 $46 $125 forward 7 unknown #
coedge $-1 $122 $50 $47 $84 forward $79 $-1 #
edge $-1 $52 0 $85 60 $83 $126 forward 7 unknown #
vertex $-1 $84 $127 #
straight-curve $-1 -30 0 0 0 0 -1 I I #
coedge $-1 $50 $122 $114 $128 forward $79 $-1 #
vertex $-1 $51 $129 #
straight-curve $-1 30 35 -2 0 -1 0 I I #
point $-1 30 0 -2 #
coedge $-1 $130 $130 $131 $132 reversed $54 $-1 #
coedge $-1 $55 $55 $133 $134 reversed $29 $-1 #
coedge $-1 $135 $136 $55 $94 forward $137 $-1 #
edge $-1 $138 0 $139 3.141592653589793116 $55 $140 forward 7 unknown #
coedge $-1 $141 $142 $56 $96 forward $143 $-1 #
edge $-1 $101 0 $100 3.141592653589793116 $56 $144 forward 7 unknown #
coedge $-1 $145 $57 $142 $146 forward $99 $-1 #
coedge $-1 $57 $145 $141 $147 reversed $99 $-1 #
loop $-1 $-1 $97 $148 #
vertex $-1 $96 $149 #
vertex $-1 $96 $150 #
ellipse-curve $-1 -25 2.5 0 0 0 1 -1.5 0 0 1 I I #
coedge $-1 $151 $59 $62 $109 forward $105 $-1 #
coedge $-1 $59 $151 $61 $108 reversed $105 $-1 #
loop $-1 $-1 $103 $152 #
ellipse-curve $-1 -25 32.5 0 0 0 1 1.5 0 0 1 I I #
coedge $-1 $62 $61 $153 $154 reversed $63 $-1 #
edge $-1 $65 0 $155 1 $104 $156 forward 7 unknown #
edge $-1 $64 0 $157 1 $103 $158 forward 7 unknown #
face $-1 $152 $63 $2 $-1 $159 forward single #
point $-1 -26.5 32.5 0 #
point $-1 -23.5 32.5 0 #
straight-curve $-1 -30 0 0 0 1 0 I I #
coedge $-1 $70 $69 $87 $128 reversed $44 $-1 #
point $-1 -30 35 0 #
point $-1 -30 0 0 #
straight-curve $-1 30 35 0 0 0 -1 I I #
face $-1 $160 $161 $2 $-1 $162 forward single #
loop $-1 $-1 $163 $78 #
plane-surface $-1 -11 3 -2 0 -1 0 -1 0 0 forward_v I I I I #
loop $-1 $164 $165 $43 #
coedge $-1 $87 $83 $81 $123 forward $79 $-1 #
edge $-1 $85 0 $124 35 $122 $166 forward 7 unknown #
vertex $-1 $128 $167 #
straight-curve $-1 -30 35 0 0 0 -1 I I #
straight-curve $-1 30 0 -2 -1 0 0 I I #
point $-1 -30 0 -2 #
edge $-1 $124 0 $88 60 $87 $168 forward 7 unknown #
point $-1 30 35 -2 #
coedge $-1 $91 $91 $169 $170 reversed $54 $-1 #
coedge $-1 $171 $172 $91 $132 forward $173 $-1 #
edge $-1 $174 0 $175 3.141592653589793116 $91 $176 forward 7 unknown #
coedge $-1 $177 $178 $92 $134 forward $179 $-1 #
edge $-1 $139 0 $138 3.141592653589793116 $92 $180 forward 7 unknown #
coedge $-1 $181 $93 $178 $182 forward $137 $-1 #
coedge $-1 $93 $181 $177 $183 reversed $137 $-1 #
loop $-1 $-1 $135 $184 #
vertex $-1 $134 $185 #
vertex $-1 $134 $186 #
ellipse-curve $-1 25 32.5 0 0 0 1 -1.5 0 0 1 I I #
coedge $-1 $187 $95 $98 $147 forward $143 $-1 #
coedge $-1 $95 $187 $97 $146 reversed $143 $-1 #
loop $-1 $-1 $141 $188 #
ellipse-curve $-1 -25 2.5 0 0 0 1 1.5 0 0 1 I I #
coedge $-1 $98 $97 $189 $190 reversed $99 $-1 #
edge $-1 $101 0 $191 1 $142 $192 forward 7 unknown #
edge $-1 $100 0 $193 1 $141 $194 forward 7 unknown #
face $-1 $188 $99 $2 $-1 $195 forward single #
point $-1 -26.5 2.5 0 #
point $-1 -23.5 2.5 0 #
coedge $-1 $104 $103 $196 $197 reversed $105 $-1 #
face $-1 $198 $105 $2 $-1 $199 forward single #
coedge $-1 $196 $196 $107 $154 forward $200 $-1 #
edge $-1 $157 0 $155 3.141592653589793116 $153 $201 forward 7 unknown #
vertex $-1 $197 $202 #
straight-curve $-1 -23.5 32.5 0 0 0 1 I I #
vertex $-1 $197 $203 #
straight-curve $-1 -26.5 32.5 0 0 0 1 I I #
cone-surface $-1 -25 32.5 0 0 0 1 1.5 0 0 1 I I 0 1 1.5 forward I I I I #
face $-1 $204 $205 $2 $-1 $206 forward single #
loop $-1 $-1 $207 $118 #
plane-surface $-1 -26 3 -2 -1 0 0 0 1 0 forward_v I I I I #
coedge $-1 $208 $209 $207 $210 forward $119 $-1 #
loop $-1 $211 $212 $43 #
coedge $-1 $213 $214 $209 $215 reversed $121 $-1 #
straight-curve $-1 -30 0 -2 0 1 0 I I #
point $-1 -30 35 -2 #
straight-curve $-1 -30 35 -2 1 0 0 I I #
coedge $-1 $216 $217 $130 $170 forward $218 $-1 #
edge $-1 $175 0 $174 3.141592653589793116 $130 $219 forward 7 unknown #
coedge $-1 $220 $131 $217 $221 forward $173 $-1 #
coedge $-1 $131 $220 $216 $222 reversed $173 $-1 #
loop $-1 $-1 $171 $223 #
vertex $-1 $170 $224 #
vertex $-1 $170 $225 #
ellipse-curve $-1 25 2.5 0 0 0 1 -1.5 0 0 1 I I #
coedge $-1 $226 $133 $136 $183 forward $179 $-1 #
coedge $-1 $133 $226 $135 $182 reversed $179 $-1 #
loop $-1 $-1 $177 $227 #
ellipse-curve $-1 25 32.5 0 0 0 1 1.5 0 0 1 I I #
coedge $-1 $136 $135 $228 $229 reversed $137 $-1 #
edge $-1 $139 0 $230 1 $178 $231 forward 7 unknown #
edge $-1 $138 0 $232 1 $177 $233 forward 7 unknown #
face $-1 $227 $137 $2 $-1 $234 forward single #
point $-1 23.5 32.5 0 #
point $-1 26.5 32.5 0 #
coedge $-1 $142 $141 $235 $236 reversed $143 $-1 #
face $-1 $237 $143 $2 $-1 $238 forward single #
coedge $-1 $235 $235 $145 $190 forward $239 $-1 #
edge $-1 $193 0 $191 3.14159265358979356 $189 $240 forward 7 unknown #
vertex $-1 $236 $241 #
straight-curve $-1 -23.5 2.5 0 0 0 1 I I #
vertex $-1 $236 $242 #
straight-curve $-1 -26.5 2.5 0 0 0 1 I I #
cone-surface $-1 -25 2.5 0 0 0 1 1.5 0 0 1 I I 0 1 1.5 forward I I I I #
coedge $-1 $153 $153 $151 $197 forward $200 $-1 #
edge $-1 $155 0 $157 3.141592653589793116 $196 $243 forward 7 unknown #
face $-1 $148 $200 $2 $-1 $244 forward single #
cone-surface $-1 -25 32.5 0 0 0 1 1.5 0 0 1 I I 0 1 1.5 forward I I I I #
loop $-1 $-1 $153 $198 #
ellipse-curve $-1 -25 32.5 1 0 0 1 -1.5 0 0 1 I I #
point $-1 -23.5 32.5 1 #
point $-1 -26.5 32.5 1 #
face $-1 $245 $246 $2 $-1 $247 forward single #
loop $-1 $-1 $248 $160 #
plane-surface $-1 -26 20 -2 0 1 0 1 0 0 forward_v I I I I #
coedge $-1 $249 $250 $163 $210 reversed $161 $-1 #
coedge $-1 $251 $163 $252 $253 reversed $119 $-1 #
coedge $-1 $163 $251 $165 $215 forward $119 $-1 #
edge $-1 $254 0 $255 2 $207 $256 forward 7 unknown #
loop $-1 $-1 $257 $43 #
coedge $-1 $258 $258 $259 $260 reversed $164 $-1 #
coedge $-1 $261 $165 $262 $263 reversed $121 $-1 #
coedge $-1 $165 $261 $249 $264 reversed $121 $-1 #
edge $-1 $265 0 $254 15 $165 $266 forward 7 unknown #
coedge $-1 $267 $169 $172 $222 forward $218 $-1 #
coedge $-1 $169 $267 $171 $221 reversed $218 $-1 #
loop $-1 $-1 $216 $268 #
ellipse-curve $-1 25 2.5 0 0 0 1 1.5 0 0 1 I I #
coedge $-1 $172 $171 $269 $270 reversed $173 $-1 #
edge $-1 $175 0 $271 1 $217 $272 forward 7 unknown #
edge $-1 $174 0 $273 1 $216 $274 forward 7 unknown #
face $-1 $268 $173 $2 $-1 $275 forward single #
point $-1 23.5 2.5 0 #
point $-1 26.5 2.5 0 #
coedge $-1 $178 $177 $276 $277 reversed $179 $-1 #
face $-1 $278 $179 $2 $-1 $279 forward single #
coedge $-1 $276 $276 $181 $229 forward $280 $-1 #
edge $-1 $232 0 $230 3.141592653589793116 $228 $281 forward 7 unknown #
vertex $-1 $277 $282 #
straight-curve $-1 26.5 32.5 0 0 0 1 I I #
vertex $-1 $277 $283 #
straight-curve $-1 23.5 32.5 0 0 0 1 I I #
cone-surface $-1 25 32.5 0 0 0 1 1.5 0 0 1 I I 0 1 1.5 forward I I I I #
coedge $-1 $189 $189 $187 $236 forward $239 $-1 #
edge $-1 $191 0 $193 3.14159265358979356 $235 $284 forward 7 unknown #
face $-1 $184 $239 $2 $-1 $285 forward single #
cone-surface $-1 -25 2.5 0 0 0 1 1.5 0 0 1 I I 0 1 1.5 forward I I I I #
loop $-1 $-1 $189 $237 #
ellipse-curve $-1 -25 2.499999999999999556 1 0 0 1 -1.5 4.440892098500626162e-16 0 1 I I #
point $-1 -23.5 2.5 1 #
point $-1 -26.5 2.5 1 #
ellipse-curve $-1 -25 32.5 1 0 0 1 1.5 0 0 1 I I #
plane-surface $-1 0 0 1 0 0 1 1 0 0 forward_v I I I I #
face $-1 $286 $287 $2 $-1 $288 forward single #
loop $-1 $-1 $289 $204 #
plane-surface $-1 -11 20 -2 1 0 0 0 -1 0 forward_v I I I I #
coedge $-1 $290 $291 $292 $293 reversed $205 $-1 #
coedge $-1 $292 $207 $214 $264 forward $161 $-1 #
coedge $-1 $207 $294 $295 $296 reversed $161 $-1 #
coedge $-1 $209 $208 $297 $298 reversed $119 $-1 #
coedge $-1 $295 $299 $208 $253 forward $287 $-1 #
edge $-1 $300 0 $255 15 $252 $301 forward 7 unknown #
vertex $-1 $264 $302 #
vertex $-1 $296 $303 #
straight-curve $-1 -26 3 -2 0 0 -1 I I #
coedge $-1 $304 $304 $305 $306 reversed $211 $-1 #
coedge $-1 $212 $212 $307 $308 reversed $164 $-1 #
coedge $-1 $309 $310 $212 $260 forward $311 $-1 #
edge $-1 $312 0 $313 3.141592653589793116 $212 $314 forward 7 unknown #
coedge $-1 $214 $213 $290 $315 reversed $121 $-1 #
coedge $-1 $297 $289 $213 $263 forward $246 $-1 #
edge $-1 $316 0 $265 17 $213 $317 forward 7 unknown #
edge $-1 $254 0 $318 17 $214 $319 forward 7 unknown #
vertex $-1 $263 $320 #
straight-curve $-1 -11 3 -2 -1 0 0 I I #
coedge $-1 $217 $216 $321 $322 reversed $218 $-1 #
face $-1 $323 $218 $2 $-1 $324 forward single #
coedge $-1 $321 $321 $220 $270 forward $325 $-1 #
edge $-1 $273 0 $271 3.14159265358979356 $269 $326 forward 7 unknown #
vertex $-1 $322 $327 #
straight-curve $-1 26.5 2.5 0 0 0 1 I I #
vertex $-1 $322 $328 #
straight-curve $-1 23.5 2.5 0 0 0 1 I I #
cone-surface $-1 25 2.5 0 0 0 1 1.5 0 0 1 I I 0 1 1.5 forward I I I I #
coedge $-1 $228 $228 $226 $277 forward $280 $-1 #
edge $-1 $230 0 $232 3.141592653589793116 $276 $329 forward 7 unknown #
face $-1 $223 $280 $2 $-1 $330 forward single #
cone-surface $-1 25 32.5 0 0 0 1 1.5 0 0 1 I I 0 1 1.5 forward I I I I #
loop $-1 $-1 $228 $278 #
ellipse-curve $-1 25 32.5 1 0 0 1 -1.5 0 0 1 I I #
point $-1 26.5 32.5 1 #
point $-1 23.5 32.5 1 #
ellipse-curve $-1 -25 2.500000000000000444 1 0 0 1 1.5 -4.440892098500626162e-16 0 1 I I #
plane-surface $-1 0 0 1 0 0 1 1 0 0 forward_v I I I I #
face $-1 $331 $332 $2 $-1 $333 forward single #
loop $-1 $-1 $299 $245 #
plane-surface $-1 0 0 -4 0 0 -1 1 0 0 forward_v I I I I #
coedge $-1 $262 $334 $335 $336 reversed $246 $-1 #
coedge $-1 $335 $248 $261 $315 forward $205 $-1 #
coedge $-1 $248 $337 $338 $339 reversed $205 $-1 #
coedge $-1 $294 $249 $248 $293 forward $161 $-1 #
edge $-1 $318 0 $340 2 $292 $341 forward 7 unknown #
coedge $-1 $250 $292 $342 $343 reversed $161 $-1 #
coedge $-1 $344 $252 $250 $296 forward $287 $-1 #
edge $-1 $255 0 $345 9.5 $295 $346 forward 7 unknown #
coedge $-1 $347 $262 $251 $298 forward $246 $-1 #
edge $-1 $265 0 $300 2 $297 $348 forward 7 unknown #
coedge $-1 $252 $344 $347 $349 forward $287 $-1 #
vertex $-1 $253 $350 #
straight-curve $-1 -11 3 -4 -1 0 0 I I #
point $-1 -26 3 -2 #
point $-1 -26 3 -4 #
coedge $-1 $257 $257 $351 $352 reversed $211 $-1 #
coedge $-1 $353 $354 $257 $306 forward $355 $-1 #
edge $-1 $356 0 $357 3.141592653589793116 $257 $358 forward 7 unknown #
coedge $-1 $359 $360 $258 $308 forward $361 $-1 #
edge $-1 $313 0 $312 3.141592653589793116 $258 $362 forward 7 unknown #
coedge $-1 $363 $259 $360 $364 forward $311 $-1 #
coedge $-1 $259 $363 $359 $365 reversed $311 $-1 #
loop $-1 $-1 $310 $366 #
vertex $-1 $308 $367 #
vertex $-1 $308 $368 #
ellipse-curve $-1 -3 25 -2 0 0 -1 -9 0 0 1 I I #
edge $-1 $318 0 $316 15 $261 $369 forward 7 unknown #
vertex $-1 $315 $370 #
straight-curve $-1 -11 20 -2 0 -1 0 I I #
vertex $-1 $264 $371 #
straight-curve $-1 -26 3 -2 0 1 0 I I #
point $-1 -11 3 -2 #
coedge $-1 $269 $269 $267 $322 forward $325 $-1 #
edge $-1 $271 0 $273 3.14159265358979356 $321 $372 forward 7 unknown #
face $-1 $-1 $325 $2 $-1 $373 forward single #
cone-surface $-1 25 2.5 0 0 0 1 1.5 0 0 1 I I 0 1 1.5 forward I I I I #
loop $-1 $-1 $269 $323 #
ellipse-curve $-1 25 2.499999999999999556 1 0 0 1 -1.5 4.440892098500626162e-16 0 1 I I #
point $-1 26.5 2.5 1 #
point $-1 23.5 2.5 1 #
ellipse-curve $-1 25 32.5 1 0 0 1 1.5 0 0 1 I I #
plane-surface $-1 0 0 1 0 0 1 1 0 0 forward_v I I I I #
face $-1 $374 $375 $2 $-1 $376 forward single #
loop $-1 $-1 $377 $286 #
cone-surface $-1 -18.5 12.5 -4 0 0 -1 7.5 0 0 1 I I 0 1 7.5 forward I I I I #
coedge $-1 $289 $347 $378 $379 reversed $246 $-1 #
coedge $-1 $337 $290 $289 $336 forward $205 $-1 #
edge $-1 $316 0 $380 2 $335 $381 forward 7 unknown #
coedge $-1 $291 $335 $382 $383 reversed $205 $-1 #
coedge $-1 $384 $342 $291 $339 forward $385 $-1 #
edge $-1 $340 0 $386 7.5 $338 $387 forward 7 unknown #
vertex $-1 $339 $388 #
straight-curve $-1 -26 20 -2 0 0 -1 I I #
coedge $-1 $338 $384 $294 $343 forward $385 $-1 #
edge $-1 $345 0 $340 7.5 $342 $389 forward 7 unknown #
coedge $-1 $299 $295 $390 $391 reversed $287 $-1 #
vertex $-1 $392 $393 #
straight-curve $-1 -26 3 -4 0 1 0 I I #
coedge $-1 $334 $297 $299 $349 reversed $246 $-1 #
straight-curve $-1 -11 3 -2 0 0 -1 I I #
edge $-1 $394 0 $300 9.5 $299 $395 forward 7 unknown #
point $-1 -11 3 -4 #
coedge $-1 $396 $397 $304 $352 forward $398 $-1 #
edge $-1 $357 0 $356 3.141592653589793116 $304 $399 forward 7 unknown #
coedge $-1 $400 $305 $397 $401 forward $355 $-1 #
coedge $-1 $305 $400 $396 $402 reversed $355 $-1 #
loop $-1 $-1 $354 $403 #
vertex $-1 $352 $404 #
vertex $-1 $352 $405 #
ellipse-curve $-1 12 9 -2 0 0 -1 -4 0 0 1 I I #
coedge $-1 $406 $307 $310 $365 forward $361 $-1 #
coedge $-1 $307 $406 $309 $364 reversed $361 $-1 #
loop $-1 $-1 $360 $407 #
ellipse-curve $-1 -3 25 -2 0 0 -1 9 0 0 1 I I #
coedge $-1 $310 $309 $408 $409 reversed $311 $-1 #
edge $-1 $313 0 $410 0.75 $360 $411 forward 7 unknown #
edge $-1 $312 0 $412 0.75 $359 $413 forward 7 unknown #
face $-1 $407 $311 $2 $-1 $414 forward single #
point $-1 -12 25 -2 #
point $-1 6 25 -2 #
straight-curve $-1 -26 20 -2 1 0 0 I I #
point $-1 -11 20 -2 #
point $-1 -26 20 -2 #
ellipse-curve $-1 25 2.500000000000000444 1 0 0 1 1.5 -4.440892098500626162e-16 0 1 I I #
plane-surface $-1 0 0 1 0 0 1 1 0 0 forward_v I I I I #
face $-1 $415 $416 $2 $-1 $417 forward single #
loop $-1 $-1 $418 $331 #
cone-surface $-1 -18.5 12.5 -4 0 0 -1 7.5 0 0 1 I I 0 1 7.5 forward I I I I #
coedge $-1 $419 $390 $420 $421 forward $332 $-1 #
coedge $-1 $422 $382 $334 $379 forward $416 $-1 #
edge $-1 $380 0 $394 7.5 $378 $423 forward 7 unknown #
vertex $-1 $379 $424 #
straight-curve $-1 -11 20 -2 0 0 -1 I I #
coedge $-1 $378 $422 $337 $383 forward $416 $-1 #
edge $-1 $386 0 $380 7.5 $382 $425 forward 7 unknown #
coedge $-1 $342 $338 $426 $392 reversed $385 $-1 #
loop $-1 $-1 $342 $427 #
vertex $-1 $428 $429 #
straight-curve $-1 -26 20 -4 1 0 0 I I #
point $-1 -26 20 -4 #
straight-curve $-1 -26 12.5 -4 0 1 0 I I #
coedge $-1 $377 $430 $344 $391 forward $332 $-1 #
edge $-1 $394 0 $345 3.141592653589793116 $344 $431 forward 7 unknown #
edge $-1 $345 0 $386 1.570796326794896558 $384 $432 forward 7 unknown #
point $-1 -26 12.5 -4 #
vertex $-1 $428 $433 #
straight-curve $-1 -11 12.5 -4 0 -1 0 I I #
coedge $-1 $434 $351 $354 $402 forward $398 $-1 #
coedge $-1 $351 $434 $353 $401 reversed $398 $-1 #
loop $-1 $-1 $397 $435 #
ellipse-curve $-1 12 9 -2 0 0 -1 4 0 0 1 I I #
coedge $-1 $354 $353 $436 $437 reversed $355 $-1 #
edge $-1 $357 0 $438 0.75 $397 $439 forward 7 unknown #
edge $-1 $356 0 $440 0.75 $396 $441 forward 7 unknown #
face $-1 $435 $355 $2 $-1 $442 forward single #
point $-1 8 9 -2 #
point $-1 16 9 -2 #
coedge $-1 $360 $359 $443 $444 reversed $361 $-1 #
face $-1 $445 $361 $2 $-1 $446 forward single #
coedge $-1 $443 $443 $363 $409 forward $447 $-1 #
edge $-1 $412 0 $410 3.141592653589793116 $363 $448 forward 7 unknown #
vertex $-1 $444 $449 #
straight-curve $-1 6 25 -2 0 0 -1 I I #
vertex $-1 $444 $450 #
straight-curve $-1 -12 25 -2 0 0 -1 I I #
cone-surface $-1 -3 25 -2 0 0 -1 9 0 0 1 I I 0 1 9 forward I I I I #
face $-1 $427 $451 $2 $-1 $452 forward single #
loop $-1 $-1 $382 $374 #
plane-surface $-1 0 0 -4 0 0 -1 1 0 0 forward_v I I I I #
coedge $-1 $453 $426 $422 $428 forward $375 $-1 #
coedge $-1 $430 $377 $454 $455 reversed $332 $-1 #
coedge $-1 $426 $456 $377 $421 reversed $375 $-1 #
edge $-1 $345 0 $457 15 $377 $458 forward 7 unknown #
coedge $-1 $382 $378 $418 $428 reversed $416 $-1 #
straight-curve $-1 -11 20 -4 0 -1 0 I I #
point $-1 -11 20 -4 #
straight-curve $-1 -18.5 20 -4 1 0 0 I I #
coedge $-1 $418 $420 $384 $392 forward $375 $-1 #
face $-1 $366 $385 $2 $-1 $459 forward single #
edge $-1 $386 0 $394 1.570796326794896558 $422 $460 forward 7 unknown #
point $-1 -18.5 20 -4 #
coedge $-1 $390 $419 $453 $461 reversed $332 $-1 #
ellipse-curve $-1 -18.5 12.5 -4 0 0 -1 7.5 0 0 1 I I #
ellipse-curve $-1 -18.5 12.5 -4 0 0 -1 -7.5 0 0 1 I I #
point $-1 -11 12.5 -4 #
coedge $-1 $397 $396 $462 $463 reversed $398 $-1 #
face $-1 $464 $398 $2 $-1 $465 forward single #
coedge $-1 $462 $462 $400 $437 forward $466 $-1 #
edge $-1 $440 0 $438 3.141592653589793116 $400 $467 forward 7 unknown #
vertex $-1 $463 $468 #
straight-curve $-1 16 9 -2 0 0 -1 I I #
vertex $-1 $463 $469 #
straight-curve $-1 8 9 -2 0 0 -1 I I #
cone-surface $-1 12 9 -2 0 0 -1 4 0 0 1 I I 0 1 4 forward I I I I #
coedge $-1 $408 $408 $406 $444 forward $447 $-1 #
edge $-1 $410 0 $412 3.141592653589793116 $406 $470 forward 7 unknown #
face $-1 $471 $472 $2 $-1 $473 forward single #
cone-surface $-1 -3 25 -2 0 0 -1 9 0 0 1 I I 0 1 9 forward I I I I #
loop $-1 $-1 $408 $445 #
ellipse-curve $-1 -3 25 -2.75 0 0 -1 -9 0 0 1 I I #
point $-1 6 25 -2.75 #
point $-1 -12 25 -2.75 #
loop $-1 $-1 $474 $415 #
plane-surface $-1 0 0 -19 0 0 -1 1 0 0 forward_v I I I I #
coedge $-1 $456 $418 $430 $461 forward $375 $-1 #
coedge $-1 $474 $474 $419 $455 forward $451 $-1 #
edge $-1 $475 0 $457 3.141592653589793116 $454 $476 forward 7 unknown #
coedge $-1 $420 $453 $474 $477 reversed $375 $-1 #
vertex $-1 $455 $478 #
straight-curve $-1 -26 12.49999999999999822 -4 0 0 -1 I I #
plane-surface $-1 0 0 -4 0 0 -1 1 0 0 forward_v I I I I #
ellipse-curve $-1 -18.5 12.5 -4 0 0 -1 0 7.5 0 1 I I #
edge $-1 $394 0 $475 15 $430 $479 forward 7 unknown #
coedge $-1 $436 $436 $434 $463 forward $466 $-1 #
edge $-1 $438 0 $440 3.141592653589793116 $434 $480 forward 7 unknown #
face $-1 $481 $482 $2 $-1 $483 reversed single #
cone-surface $-1 12 9 -2 0 0 -1 4 0 0 1 I I 0 1 4 forward I I I I #
loop $-1 $-1 $436 $484 #
ellipse-curve $-1 12 9 -2.75 0 0 -1 -4 0 0 1 I I #
point $-1 16 9 -2.75 #
point $-1 8 9 -2.75 #
ellipse-curve $-1 -3 25 -2.75 0 0 -1 9 0 0 1 I I #
face $-1 $485 $486 $2 $-1 $487 forward single #
loop $-1 $447 $488 $445 #
plane-surface $-1 -3 25 -2.75 0 0 -1 -1 0 0 forward_v I I I I #
coedge $-1 $454 $454 $456 $477 forward $451 $-1 #
vertex $-1 $455 $489 #
ellipse-curve $-1 -18.5 12.5 -19 0 0 -1 7.5 0 0 1 I I #
edge $-1 $457 0 $475 3.141592653589793116 $474 $490 forward 7 unknown #
point $-1 -26 12.5 -19 #
straight-curve $-1 -11 12.5 -4 0 0 -1 I I #
ellipse-curve $-1 12 9 -2.75 0 0 -1 4 0 0 1 I I #
face $-1 $491 $492 $2 $-1 $493 forward single #
loop $-1 $494 $495 $464 #
plane-surface $-1 12 9 -4.25 0 0 -1 -1 0 0 forward_v I I I I #
face $-1 $403 $496 $2 $-1 $497 forward single #
face $-1 $498 $499 $2 $-1 $500 forward single #
loop $-1 $-1 $501 $471 #
cone-surface $-1 -3 25 -4 0 0 -1 -7.870000000000000107 0 0 1 I I 0 1 7.870000000000000107 forward I I I I #
coedge $-1 $502 $502 $503 $504 reversed $472 $-1 #
point $-1 -11 12.5 -19 #
ellipse-curve $-1 -18.5 12.5 -19 0 0 -1 -7.5 0 0 1 I I #
face $-1 $505 $506 $2 $-1 $507 forward single #
loop $-1 $-1 $508 $481 #
cone-surface $-1 12 9 -2 0 0 -1 4 0 0 1 I I 0 1 4 forward I I I I #
loop $-1 $-1 $509 $464 #
coedge $-1 $510 $510 $511 $512 forward $482 $-1 #
loop $-1 $466 $513 $484 #
plane-surface $-1 12 9 -2.75 0 0 -1 -1 0 0 forward_v I I I I #
face $-1 $514 $515 $2 $-1 $516 reversed single #
loop $-1 $-1 $517 $485 #
plane-surface $-1 -7.363129702685167643 18.45019090373265414 -3 0.5544002163513553905 0.8322502028293958798 0 0.8322502028293958798 -0.5544002163513553905 0 forward_v I I I I #
coedge $-1 $518 $519 $520 $521 forward $486 $-1 #
coedge $-1 $488 $488 $522 $523 reversed $472 $-1 #
coedge $-1 $524 $525 $488 $504 forward $486 $-1 #
edge $-1 $526 0 $527 3.141592653589794004 $488 $528 forward 7 unknown #
face $-1 $110 $529 $2 $-1 $530 forward single #
loop $-1 $-1 $531 $491 #
cone-surface $-1 12 9 -2 0 0 -1 4 0 0 1 I I 0 1 4 forward I I I I #
coedge $-1 $532 $533 $534 $535 forward $492 $-1 #
coedge $-1 $536 $536 $533 $537 reversed $494 $-1 #
coedge $-1 $495 $495 $538 $539 forward $482 $-1 #
coedge $-1 $540 $541 $495 $512 reversed $542 $-1 #
edge $-1 $543 0 $544 3.141592653589791784 $495 $545 forward 7 unknown #
coedge $-1 $546 $546 $547 $548 reversed $496 $-1 #
face $-1 $549 $550 $2 $-1 $551 forward single #
loop $-1 $552 $553 $498 #
plane-surface $-1 12 9 -3 0 0 -1 1 0 0 forward_v I I I I #
coedge $-1 $554 $520 $555 $556 forward $499 $-1 #
coedge $-1 $557 $501 $558 $559 forward $486 $-1 #
coedge $-1 $501 $524 $560 $561 reversed $486 $-1 #
coedge $-1 $517 $562 $501 $521 reversed $499 $-1 #
edge $-1 $563 -4.434641295470443095e-23 $564 1 $501 $565 forward 7 unknown #
coedge $-1 $566 $567 $502 $523 forward $568 $-1 #
edge $-1 $527 0 $526 3.141592653589792228 $502 $569 forward 7 unknown #
coedge $-1 $519 $503 $567 $570 forward $486 $-1 #
coedge $-1 $503 $571 $566 $572 reversed $486 $-1 #
vertex $-1 $523 $573 #
vertex $-1 $523 $574 #
ellipse-curve $-1 -3.000000000000000444 24.99999999999999645 -2.75 0 0 -1 7.870000000000000995 3.552713678800500929e-15 0 1 I I #
loop $-1 $-1 $575 $505 #
plane-surface $-1 0 0 -5 0 0 -1 1 0 0 forward_v I I I I #
coedge $-1 $576 $577 $578 $579 forward $506 $-1 #
coedge $-1 $578 $508 $575 $580 reversed $492 $-1 #
coedge $-1 $508 $578 $509 $537 forward $492 $-1 #
coedge $-1 $577 $576 $508 $535 reversed $506 $-1 #
edge $-1 $581 0 $582 0.75 $534 $583 forward 7 unknown #
coedge $-1 $509 $509 $577 $584 reversed $494 $-1 #
edge $-1 $585 0 $581 3.141592653589793116 $533 $586 forward 7 unknown #
coedge $-1 $587 $588 $510 $539 reversed $589 $-1 #
edge $-1 $544 0 $543 3.141592653589793116 $538 $590 forward 7 unknown #
coedge $-1 $591 $511 $588 $592 reversed $542 $-1 #
coedge $-1 $511 $593 $587 $594 forward $542 $-1 #
loop $-1 $-1 $595 $596 #
vertex $-1 $539 $597 #
vertex $-1 $594 $598 #
ellipse-curve $-1 12 8.999999999999998224 -4.25 0 0 -1 -2.870000000000000995 1.776356839400250465e-15 0 1 I I #
coedge $-1 $513 $513 $591 $599 reversed $496 $-1 #
coedge $-1 $588 $600 $513 $548 forward $589 $-1 #
edge $-1 $601 0 $602 3.141592653589793116 $513 $603 forward 7 unknown #
face $-1 $604 $605 $2 $-1 $606 forward single #
loop $-1 $-1 $607 $514 #
plane-surface $-1 4.033954288997539273 29.05683214593519281 -3 0.8662505282016672581 0.4996098701890630545 0 0.4996098701890630545 -0.8662505282016672581 0 forward_v I I I I #
loop $-1 $-1 $560 $498 #
coedge $-1 $608 $609 $610 $611 reversed $515 $-1 #
coedge $-1 $562 $517 $612 $613 forward $499 $-1 #
coedge $-1 $560 $614 $517 $556 reversed $552 $-1 #
edge $-1 $563 7.391866699441215259e-16 $615 21.35415649288029627 $555 $616 forward 7 unknown #
coedge $-1 $571 $518 $617 $618 forward $486 $-1 #
coedge $-1 $619 $620 $518 $559 reversed $621 $-1 #
edge $-1 $564 -7.623065465301906638e-09 $622 0.9831542032539145604 $518 $623 forward 7 unknown #
coedge $-1 $624 $555 $519 $561 forward $552 $-1 #
edge $-1 $563 0 $625 0.9831542032539145604 $519 $626 forward 7 unknown #
coedge $-1 $520 $554 $619 $627 reversed $499 $-1 #
vertex $-1 $561 $628 #
vertex $-1 $559 $629 #
straight-curve $-1 -7.363129702685166755 18.45019090373265414 -3 8.881784197001252323e-16 0 -1 I I #
coedge $-1 $630 $522 $525 $572 forward $568 $-1 #
coedge $-1 $522 $631 $524 $570 reversed $568 $-1 #
loop $-1 $-1 $567 $632 #
ellipse-curve $-1 -3.000000000000000888 24.99999999999999645 -2.75 0 0 -1 -7.870000000000000107 3.552713678800500929e-15 0 1 I I #
edge $-1 $527 0 $625 0.25 $524 $633 forward 7 unknown #
coedge $-1 $525 $557 $634 $635 reversed $486 $-1 #
edge $-1 $526 0 $636 1.5 $525 $637 forward 7 unknown #
point $-1 4.870000000000000107 25 -2.75 #
point $-1 -10.87000000000000099 25 -2.75 #
coedge $-1 $638 $638 $532 $580 forward $529 $-1 #
coedge $-1 $534 $531 $638 $639 reversed $506 $-1 #
coedge $-1 $531 $534 $536 $584 forward $506 $-1 #
coedge $-1 $533 $532 $531 $579 reversed $492 $-1 #
edge $-1 $585 0 $640 0.75 $531 $641 forward 7 unknown #
edge $-1 $640 0 $582 3.141592653589793116 $575 $642 forward 7 unknown #
vertex $-1 $584 $643 #
vertex $-1 $639 $644 #
straight-curve $-1 16 9 -4.25 0 0 -1 I I #
edge $-1 $581 0 $585 3.141592653589793116 $577 $645 forward 7 unknown #
vertex $-1 $584 $646 #
ellipse-curve $-1 12 9 -4.25 0 0 -1 -4 0 0 1 I I #
coedge $-1 $647 $538 $541 $594 reversed $589 $-1 #
coedge $-1 $538 $547 $540 $592 forward $589 $-1 #
loop $-1 $-1 $600 $648 #
ellipse-curve $-1 12 9 -4.25 0 0 -1 2.870000000000000995 0 0 1 I I #
coedge $-1 $649 $540 $546 $599 forward $542 $-1 #
edge $-1 $602 0 $543 1.5 $588 $650 forward 7 unknown #
coedge $-1 $541 $595 $651 $652 forward $542 $-1 #
edge $-1 $653 0 $544 0.25 $587 $654 forward 7 unknown #
coedge $-1 $593 $655 $656 $657 forward $542 $-1 #
face $-1 $648 $542 $2 $-1 $658 forward single #
point $-1 9.129999999999999005 9 -4.25 #
point $-1 14.87000000000000099 9 -4.25 #
edge $-1 $602 0 $601 3.141592653589791784 $546 $659 forward 7 unknown #
coedge $-1 $547 $660 $649 $661 reversed $589 $-1 #
vertex $-1 $599 $662 #
vertex $-1 $599 $663 #
ellipse-curve $-1 12 9 -2.75 0 0 -1 2.870000000000000995 0 0 1 I I #
face $-1 $664 $665 $2 $-1 $666 forward single #
loop $-1 $-1 $667 $549 #
cone-surface $-1 12 9 -3 0 0 -1 3.120000000000000107 0 0 1 I I 0 1 3.120000000000000107 forward I I I I #
coedge $-1 $668 $610 $667 $669 forward $550 $-1 #
coedge $-1 $670 $553 $671 $672 forward $515 $-1 #
coedge $-1 $553 $670 $673 $674 forward $515 $-1 #
coedge $-1 $607 $675 $553 $611 forward $550 $-1 #
edge $-1 $676 0 $677 21.35415650406262955 $553 $678 forward 7 unknown #
coedge $-1 $660 $647 $554 $613 reversed $589 $-1 #
edge $-1 $615 -1.402719234842675283e-22 $679 1 $612 $680 forward 7 unknown #
coedge $-1 $555 $681 $660 $682 forward $552 $-1 #
vertex $-1 $682 $683 #
straight-curve $-1 -7.363129752614789858 18.45019093699307788 -3 0.8322502028293956577 -0.5544002163513553905 0 I I #
coedge $-1 $684 $630 $557 $618 reversed $568 $-1 #
edge $-1 $622 0 $685 0.25 $557 $686 forward 7 unknown #
coedge $-1 $687 $558 $562 $627 forward $621 $-1 #
coedge $-1 $558 $688 $684 $689 reversed $621 $-1 #
loop $-1 $-1 $620 $690 #
vertex $-1 $618 $691 #
ellipse-curve $-1 -3 25 -4 0 0 -1 -4.36312975261478897 -6.549809063006922116 0 1 I I #
coedge $-1 $692 $560 $631 $693 forward $552 $-1 #
vertex $-1 $561 $694 #
ellipse-curve $-1 -3 25 -3 0 0 -1 -4.36312975261478897 -6.549809063006922116 0 1 I I #
edge $-1 $564 5.999352581570613369e-08 $679 21.35415649288029627 $619 $695 forward 7 unknown #
point $-1 -7.36312975261478897 18.45019093699307788 -3 #
point $-1 -7.363129702685165867 18.45019090373265414 -4 #
coedge $-1 $617 $566 $696 $697 reversed $568 $-1 #
coedge $-1 $567 $698 $624 $693 reversed $568 $-1 #
face $-1 $699 $568 $2 $-1 $700 forward single #
straight-curve $-1 -10.87000000000000099 25 -2.75 0 0 -1 I I #
coedge $-1 $696 $696 $571 $635 forward $701 $-1 #
edge $-1 $636 0 $685 3.141592653589793116 $571 $702 forward 7 unknown #
vertex $-1 $572 $703 #
straight-curve $-1 4.870000000000000107 25 -2.75 0 0 -1 I I #
coedge $-1 $575 $575 $576 $639 forward $529 $-1 #
edge $-1 $582 0 $640 3.141592653589793116 $638 $704 forward 7 unknown #
vertex $-1 $639 $705 #
straight-curve $-1 8 9 -4.25 0 0 -1 I I #
ellipse-curve $-1 12 9 -5 0 0 -1 -4 0 0 1 I I #
point $-1 16 9 -4.25 #
point $-1 16 9 -5 #
ellipse-curve $-1 12 9 -4.25 0 0 -1 4 0 0 1 I I #
point $-1 8 9 -4.25 #
coedge $-1 $612 $587 $687 $706 forward $589 $-1 #
face $-1 $484 $589 $2 $-1 $707 forward single #
coedge $-1 $655 $591 $600 $661 forward $542 $-1 #
straight-curve $-1 9.129999999999999005 9 -2.75 0 0 -1 I I #
coedge $-1 $688 $687 $593 $652 reversed $621 $-1 #
edge $-1 $708 0 $653 0.5231483218110372091 $593 $709 forward 7 unknown #
vertex $-1 $706 $710 #
straight-curve $-1 14.87000000000000099 9 -4 0 0 -1 I I #
coedge $-1 $595 $649 $681 $711 reversed $542 $-1 #
coedge $-1 $712 $713 $595 $657 reversed $714 $-1 #
edge $-1 $715 -1.291157105676690396e-22 $708 1 $595 $716 forward 7 unknown #
cone-surface $-1 12 9 -4 0 0 -1 2.870000000000000107 0 0 1 I I 0 1 2.870000000000000107 forward I I I I #
ellipse-curve $-1 12 8.999999999999998224 -2.75 0 0 -1 -2.870000000000000995 1.776356839400250465e-15 0 1 I I #
coedge $-1 $600 $612 $614 $682 reversed $589 $-1 #
edge $-1 $601 0 $717 0.25 $600 $718 forward 7 unknown #
point $-1 14.87000000000000099 9 -2.75 #
point $-1 9.129999999999999005 9 -2.75 #
face $-1 $690 $719 $2 $-1 $720 forward single #
loop $-1 $-1 $721 $604 #
plane-surface $-1 10.27027132498377071 6.403379367172285619 -3 -0.5544002163513553905 -0.8322502028293958798 0 -0.8322502028293958798 0.5544002163513553905 0 forward_v I I I I #
coedge $-1 $673 $722 $607 $669 reversed $605 $-1 #
coedge $-1 $675 $607 $723 $724 reversed $550 $-1 #
edge $-1 $677 0 $725 1 $667 $726 forward 7 unknown #
coedge $-1 $609 $608 $727 $728 reversed $515 $-1 #
coedge $-1 $729 $730 $608 $672 reversed $719 $-1 #
edge $-1 $676 1.023768471347422692e-15 $731 3.60159851341936621 $608 $732 forward 7 unknown #
coedge $-1 $733 $667 $609 $674 reversed $605 $-1 #
edge $-1 $734 0 $677 2.681586793760223131 $609 $735 forward 7 unknown #
coedge $-1 $610 $668 $729 $736 reversed $550 $-1 #
vertex $-1 $672 $737 #
vertex $-1 $674 $738 #
straight-curve $-1 4.033954288997534832 29.05683214593519992 -3 0.4996098701890630545 -0.8662505282016673691 0 I I #
vertex $-1 $613 $739 #
straight-curve $-1 10.4088713790716092 6.611441917879634644 -3 1.776356839400250465e-15 -8.881784197001252323e-16 -1 I I #
coedge $-1 $614 $692 $655 $711 forward $552 $-1 #
edge $-1 $717 0 $615 2.158438467512760361 $660 $740 forward 7 unknown #
point $-1 10.40887131983549097 6.611441957339543762 -3 #
coedge $-1 $698 $617 $620 $689 forward $568 $-1 #
vertex $-1 $635 $741 #
straight-curve $-1 -10.87000000000000099 25 -4 0 0 -1 I I #
coedge $-1 $651 $619 $647 $706 reversed $621 $-1 #
coedge $-1 $620 $651 $713 $742 forward $621 $-1 #
edge $-1 $622 0 $743 2.618444298744353915 $684 $744 forward 7 unknown #
face $-1 $632 $745 $2 $-1 $746 forward single #
point $-1 -10.87000000000000099 25 -4 #
coedge $-1 $681 $624 $712 $747 reversed $552 $-1 #
edge $-1 $625 0 $748 2.618444298744354803 $631 $749 forward 7 unknown #
point $-1 -10.87000000000000099 25 -3 #
straight-curve $-1 -7.363129752614789858 18.45019093699307788 -4 0.8322502028293956577 -0.5544002163513553905 0 I I #
coedge $-1 $634 $634 $630 $697 forward $701 $-1 #
edge $-1 $685 0 $636 3.141592653589792228 $696 $750 forward 7 unknown #
coedge $-1 $631 $684 $751 $752 reversed $568 $-1 #
face $-1 $753 $701 $2 $-1 $754 reversed single #
cone-surface $-1 -3 25 -4 0 0 -1 7.870000000000000107 0 0 1 I I 0 1 7.870000000000000107 forward I I I I #
loop $-1 $755 $696 $699 #
ellipse-curve $-1 -3.000000000000000888 25 -4.25 0 0 -1 7.870000000000000995 0 0 1 I I #
point $-1 4.870000000000000107 25 -4.25 #
ellipse-curve $-1 12 9 -5 0 0 -1 4 0 0 1 I I #
point $-1 8 9 -5 #
edge $-1 $653 0 $679 2.158438467512762582 $647 $756 forward 7 unknown #
cone-surface $-1 12 9 -4 0 0 -1 -2.870000000000000107 0 0 1 I I 0 1 2.870000000000000107 forward I I I I #
vertex $-1 $652 $757 #
ellipse-curve $-1 12 9 -4 0 0 -1 2.48613905786024425 1.433880254756926931 0 1 I I #
point $-1 14.87000000000000099 9 -4 #
edge $-1 $715 0 $717 0.5231483218110305478 $655 $758 forward 7 unknown #
coedge $-1 $751 $656 $692 $747 forward $714 $-1 #
coedge $-1 $656 $751 $688 $742 reversed $714 $-1 #
loop $-1 $-1 $713 $759 #
vertex $-1 $711 $760 #
straight-curve $-1 14.48613901593878595 10.43388032744261018 -3 0 1.776356839400250465e-15 -1 I I #
vertex $-1 $682 $761 #
straight-curve $-1 14.87000000000000099 9 -2.75 0 0 -1 I I #
loop $-1 $-1 $730 $664 #
cone-surface $-1 -3 25 -3 0 0 -1 8.120000000000000995 0 0 1 I I 0 1 8.120000000000000995 forward I I I I #
coedge $-1 $762 $727 $730 $763 forward $665 $-1 #
coedge $-1 $667 $733 $764 $765 reversed $605 $-1 #
coedge $-1 $764 $766 $668 $724 forward $745 $-1 #
edge $-1 $767 8.37379372647597853e-15 $725 21.35415650406262955 $723 $768 forward 7 unknown #
vertex $-1 $765 $769 #
straight-curve $-1 14.70270164798920121 10.55878279498987737 -3 0 0 -1 I I #
coedge $-1 $721 $770 $670 $728 forward $665 $-1 #
edge $-1 $734 -1.478373339888243052e-15 $731 21.35415650406260113 $670 $771 forward 7 unknown #
coedge $-1 $772 $671 $675 $736 forward $719 $-1 #
coedge $-1 $671 $772 $721 $763 reversed $719 $-1 #
vertex $-1 $728 $773 #
ellipse-curve $-1 -3 25 -3 0 0 1 7.033954288997539273 4.056832145935192813 0 1 I I #
coedge $-1 $722 $673 $770 $774 forward $605 $-1 #
vertex $-1 $674 $775 #
ellipse-curve $-1 12 9 -3 0 0 1 -1.729728675016229289 -2.596620632827713493 0 1 I I #
edge $-1 $676 0 $767 1 $729 $776 forward 7 unknown #
point $-1 4.033954288997534832 29.05683214593519992 -3 #
point $-1 14.70270164798920121 10.55878279498987737 -3 #
point $-1 10.40887131983549097 6.611441957339543762 -4 #
ellipse-curve $-1 11.99999999999999822 9.000000000000003553 -3 0 0 -1 2.870000000000002771 -3.552713678800500929e-15 0 1 I I #
point $-1 -10.87000000000000099 25 -4.25 #
edge $-1 $708 0 $743 21.35415661786151631 $688 $777 forward 7 unknown #
vertex $-1 $752 $778 #
ellipse-curve $-1 -3 25 -4 0 0 -1 -7.870000000000000995 0 0 1 I I #
loop $-1 $621 $779 $690 #
plane-surface $-1 12 9 -4 0 0 -1 1 0 0 forward_v I I I I #
edge $-1 $715 0 $748 21.35415661786151631 $692 $780 forward 7 unknown #
vertex $-1 $693 $781 #
ellipse-curve $-1 -3 25.00000000000000355 -3 0 0 -1 -7.870000000000000995 -3.552713678800500929e-15 0 1 I I #
ellipse-curve $-1 -3.000000000000000888 24.99999999999999645 -4.25 0 0 -1 -7.870000000000000107 3.552713678800500929e-15 0 1 I I #
coedge $-1 $713 $712 $698 $752 forward $714 $-1 #
edge $-1 $748 1.185166069995557338e-22 $743 1 $698 $782 forward 7 unknown #
face $-1 $783 $784 $2 $-1 $785 forward single #
plane-surface $-1 -3 25 -4.25 0 0 -1 -1 0 0 forward_v I I I I #
loop $-1 $-1 $786 $699 #
ellipse-curve $-1 12 9 -4 0 0 -1 2.870000000000000995 0 0 1 I I #
point $-1 14.48613905786024425 10.43388025475692693 -4 #
ellipse-curve $-1 11.9999999999999627 8.999999999999992895 -3 0 0 -1 2.486139057860281554 1.433880254756934036 0 1 I I #
face $-1 $596 $714 $2 $-1 $787 forward single #
point $-1 14.48613905786024425 10.43388025475692693 -3 #
point $-1 14.87000000000000099 9 -3 #
coedge $-1 $770 $721 $779 $788 reversed $665 $-1 #
edge $-1 $731 0 $789 1 $721 $790 forward 7 unknown #
coedge $-1 $779 $723 $722 $765 forward $745 $-1 #
edge $-1 $725 0 $791 2.681586793760222243 $764 $792 forward 7 unknown #
coedge $-1 $723 $779 $772 $793 forward $745 $-1 #
vertex $-1 $724 $794 #
straight-curve $-1 4.033954288997534832 29.05683214593519992 -4 0.4996098701890630545 -0.8662505282016673691 0 I I #
point $-1 14.70270164798920121 10.55878279498987737 -4 #
coedge $-1 $727 $762 $733 $774 reversed $665 $-1 #
straight-curve $-1 10.27027132498376893 6.403379367172286507 -3 -0.8322502028293958798 0.5544002163513552794 0 I I #
coedge $-1 $730 $729 $766 $793 reversed $719 $-1 #
point $-1 -7.501729756772991919 18.24212835302529356 -3 #
edge $-1 $734 0 $791 1 $733 $795 forward 7 unknown #
point $-1 10.27027132498377071 6.403379367172286507 -3 #
straight-curve $-1 4.033954288997539273 29.05683214593519281 -3 0 0 -1 I I #
straight-curve $-1 14.48613905786024425 10.43388025475692693 -4 -0.4996098701890631655 0.8662505282016671471 0 I I #
point $-1 3.81739164201353276 28.93192970428058786 -4 #
coedge $-1 $766 $764 $762 $788 forward $745 $-1 #
straight-curve $-1 14.48613905786024425 10.43388025475692693 -3 -0.4996098701890631655 0.8662505282016671471 0 I I #
point $-1 3.81739164201353276 28.93192970428058786 -3 #
straight-curve $-1 3.817391656947123124 28.93192967838792384 -3 -1.776356839400250465e-15 3.552713678800500929e-15 -1 I I #
face $-1 $796 $797 $2 $-1 $798 forward single #
loop $-1 $-1 $799 $753 #
cone-surface $-1 -3 25 -2 0 0 -1 9 0 0 1 I I 0 1 9 forward I I I I #
coedge $-1 $800 $800 $801 $802 reversed $755 $-1 #
plane-surface $-1 14.48613901593878595 10.43388032744261018 -3 -0.8662505282016672581 -0.4996098701890630545 0 -0.4996098701890630545 0.8662505282016672581 0 forward_v I I I I #
edge $-1 $791 -1.478373339888243052e-15 $789 21.35415650406261889 $779 $803 forward 7 unknown #
vertex $-1 $793 $804 #
straight-curve $-1 -7.50172975677300613 18.24212835302530422 -3 0 0 -1 I I #
vertex $-1 $765 $805 #
ellipse-curve $-1 12 9.000000000000001776 -4 0 0 -1 2.702701647989201206 1.558782794989875597 0 1 I I #
edge $-1 $789 0 $767 3.601598513419363545 $766 $806 forward 7 unknown #
point $-1 4.033954288997539273 29.05683214593519281 -4 #
straight-curve $-1 10.27027132498377071 6.403379367172285619 -3 0 0 -1 I I #
face $-1 $759 $807 $2 $-1 $808 forward single #
loop $-1 $-1 $809 $783 #
cone-surface $-1 -3 25 -2 0 0 -1 9 0 0 1 I I 0 1 9 forward I I I I #
coedge $-1 $810 $801 $811 $812 forward $784 $-1 #
coedge $-1 $786 $786 $813 $814 reversed $755 $-1 #
coedge $-1 $799 $815 $786 $802 forward $784 $-1 #
edge $-1 $816 0 $817 3.141592653589793116 $801 $818 forward 7 unknown #
straight-curve $-1 10.27027132498376893 6.403379367172286507 -4 -0.8322502028293958798 0.5544002163513552794 0 I I #
point $-1 -7.501729756773005242 18.24212835302530422 -4 #
point $-1 10.27027132498377071 6.403379367172286507 -4 #
ellipse-curve $-1 -3.000000000000001776 24.99999999999999645 -4 0 0 -1 -4.501729756773003466 -6.757871646974692226 0 1 I I #
loop $-1 $-1 $819 $796 #
plane-surface $-1 0 0 -5 0 0 -1 1 0 0 forward_v I I I I #
coedge $-1 $820 $813 $815 $821 forward $797 $-1 #
coedge $-1 $815 $799 $819 $822 reversed $784 $-1 #
coedge $-1 $813 $820 $799 $812 reversed $797 $-1 #
edge $-1 $817 0 $823 0.75 $811 $824 forward 7 unknown #
coedge $-1 $809 $811 $800 $814 forward $797 $-1 #
edge $-1 $817 0 $816 3.141592653589793116 $813 $825 forward 7 unknown #
coedge $-1 $801 $810 $809 $821 reversed $784 $-1 #
vertex $-1 $814 $826 #
vertex $-1 $814 $827 #
ellipse-curve $-1 -3 25 -4.25 0 0 -1 -9 0 0 1 I I #
coedge $-1 $828 $828 $810 $822 forward $807 $-1 #
coedge $-1 $811 $809 $828 $829 reversed $797 $-1 #
edge $-1 $816 0 $830 0.75 $809 $831 forward 7 unknown #
edge $-1 $830 0 $823 3.141592653589793116 $819 $832 forward 7 unknown #
vertex $-1 $829 $833 #
straight-curve $-1 6 25 -4.25 0 0 -1 I I #
ellipse-curve $-1 -3 25 -4.25 0 0 -1 9 0 0 1 I I #
point $-1 -12 25 -4.25 #
point $-1 6 25 -4.25 #
coedge $-1 $819 $819 $820 $829 forward $807 $-1 #
edge $-1 $823 0 $830 3.141592653589793116 $828 $834 forward 7 unknown #
vertex $-1 $829 $835 #
straight-curve $-1 -12 25 -4.25 0 0 -1 I I #
ellipse-curve $-1 -2.999999999999999112 25 -5 0 0 -1 -9 0 0 1 I I #
point $-1 6 25 -5 #
ellipse-curve $-1 -3.000000000000000888 25 -5 0 0 -1 9 0 0 1 I I #
point $-1 -12 25 -5 #
End-of-ACIS-data 