600 0 1 0           
103 GICL Pro/E ACIS Translator - Source: f:/data5/repository/PTC/V18/bboxrev2/boombox/cd_spindle_.prt - 6 0 13 ACIS 6.0.3 NT 24 Thu Apr 04 10:03:35 2002 
1 9.9999999999999995e-007 1e-010 
body $-1 $1 $-1 $-1 #
lump $-1 $-1 $2 $0 #
shell $-1 $-1 $-1 $3 $-1 $1 #
face $-1 $4 $5 $2 $-1 $6 reversed single #
face $-1 $7 $8 $2 $-1 $9 reversed single #
loop $-1 $-1 $10 $3 #
sphere-surface $-1 0 0 -8.8786796564403634 1.5 1 0 0 0 0 1 forward_v I I I I #
face $-1 $11 $12 $2 $-1 $13 forward single #
loop $-1 $-1 $14 $4 #
sphere-surface $-1 0 0 -8.8786796564403634 1.5 1 0 0 0 0 1 forward_v I I I I #
coedge $-1 $15 $16 $17 $18 reversed $5 $-1 #
face $-1 $19 $20 $2 $-1 $21 forward single #
loop $-1 $-1 $22 $7 #
cone-surface $-1 0 0 -10 0 0 -1 0 -1.0000000000000018 0 1 I I -0.70710678118654813 0.70710678118654691 1.0000000000000018 forward I I I I #
coedge $-1 $17 $23 $24 $25 forward $8 $-1 #
coedge $-1 $16 $10 $26 $27 reversed $5 $-1 #
coedge $-1 $10 $15 $23 $28 forward $5 $-1 #
coedge $-1 $23 $14 $10 $18 forward $8 $-1 #
edge $-1 $29 2.9993214436442749e-032 $30 2.3561944901923439 $10 $31 forward 7 unknown #
face $-1 $32 $33 $2 $-1 $34 forward single #
loop $-1 $-1 $35 $11 #
cone-surface $-1 0 0 -10.436306819631191 0 0 1 0 -2.1213203435596424 0 1 I I 0 1 2.1213203435596424 forward I I I I #
coedge $-1 $36 $37 $38 $39 forward $12 $-1 #
coedge $-1 $14 $17 $16 $28 reversed $8 $-1 #
coedge $-1 $37 $36 $14 $25 reversed $12 $-1 #
edge $-1 $40 0 $29 3.1415926535897931 $14 $41 forward 7 unknown #
coedge $-1 $42 $43 $15 $27 forward $44 $-1 #
edge $-1 $40 0 $29 3.1415926535897931 $15 $45 forward 7 unknown #
edge $-1 $40 7.4983036091106872e-033 $30 2.3561944901923444 $16 $46 forward 7 unknown #
vertex $-1 $27 $47 #
vertex $-1 $28 $48 #
ellipse-curve $-1 0 0 -8.8786796564403634 -1 -2.4492127076447545e-016 0 2.5977823712158093e-016 -1.0606601717798225 -1.060660171779821 1 I I #
face $-1 $49 $50 $2 $-1 $51 forward single #
loop $-1 $-1 $52 $19 #
cone-surface $-1 0 0 -8.5 0 0 -1 0 -0.99999999999999922 0 1 I I -0.70710678118654724 0.70710678118654779 0.99999999999999922 forward I I I I #
coedge $-1 $53 $54 $55 $56 forward $20 $-1 #
coedge $-1 $24 $22 $42 $57 forward $12 $-1 #
coedge $-1 $22 $24 $43 $58 reversed $12 $-1 #
coedge $-1 $54 $53 $22 $39 reversed $20 $-1 #
edge $-1 $59 2.1912802922805893e-032 $60 3.1415926535897931 $38 $61 forward 7 unknown #
vertex $-1 $28 $62 #
ellipse-curve $-1 1.1102230246251565e-016 -8.3266726846886741e-017 -9.9393398282201844 0 0 -1 -2.4091142102330612e-016 1.0606601717798225 0 1 I I #
coedge $-1 $63 $26 $36 $57 reversed $44 $-1 #
coedge $-1 $26 $63 $37 $58 forward $44 $-1 #
loop $-1 $-1 $26 $64 #
ellipse-curve $-1 1.1102230246251565e-016 5.5511151231257827e-017 -9.9393398282201844 0 0 1 -2.4091142102330612e-016 1.0606601717798225 0 1 I I #
ellipse-curve $-1 0 0 -8.8786796564403634 1 1.2246063538223773e-016 0 -1.2988911856079047e-016 1.0606601717798225 -1.060660171779821 1 I I #
point $-1 2.5977823712158093e-016 -1.0606601717798225 -9.9393398282201844 #
point $-1 3.3742366240998092e-032 -2.7553642961003488e-016 -7.3786796564403634 #
face $-1 $65 $66 $2 $-1 $67 forward single #
loop $-1 $-1 $68 $32 #
cone-surface $-1 0 0 -10.436306819631191 0 0 1 0 -8 0 1 I I 0 1 8 forward I I I I #
coedge $-1 $69 $70 $71 $72 forward $33 $-1 #
coedge $-1 $38 $35 $73 $74 forward $20 $-1 #
coedge $-1 $35 $38 $75 $76 reversed $20 $-1 #
coedge $-1 $70 $69 $35 $56 reversed $33 $-1 #
edge $-1 $77 -2.1912802922805893e-032 $78 3.1415926535897931 $55 $79 forward 7 unknown #
edge $-1 $60 0 $29 1.4999999999999998 $42 $80 forward 7 unknown #
edge $-1 $59 9.4205547521026397e-016 $40 1.4999999999999998 $43 $81 forward 7 unknown #
vertex $-1 $76 $82 #
vertex $-1 $74 $83 #
ellipse-curve $-1 1.1102230246251565e-016 0 -8.8786796564403616 0 0 -1 -3.7080053958409624e-016 2.1213203435596419 0 1 I I #
point $-1 -1.2988911856079047e-016 1.0606601717798225 -9.9393398282201844 #
coedge $-1 $43 $42 $84 $85 reversed $44 $-1 #
face $-1 $-1 $44 $2 $-1 $86 forward single #
face $-1 $87 $88 $2 $-1 $89 reversed single #
loop $-1 $90 $91 $49 #
plane-surface $-1 0 0 1 0 0 -1 0 -1 0 forward_v I I I I #
coedge $-1 $92 $93 $94 $95 reversed $50 $-1 #
coedge $-1 $55 $52 $96 $97 forward $33 $-1 #
coedge $-1 $52 $55 $98 $99 reversed $33 $-1 #
coedge $-1 $100 $101 $52 $72 reversed $50 $-1 #
edge $-1 $102 0 $103 3.1415926535897931 $71 $104 forward 7 unknown #
coedge $-1 $105 $84 $53 $74 reversed $106 $-1 #
edge $-1 $78 0 $60 1.5 $73 $107 forward 7 unknown #
coedge $-1 $84 $105 $54 $76 forward $106 $-1 #
edge $-1 $77 -5.3290705182007514e-015 $59 1.5000000000000018 $75 $108 forward 7 unknown #
vertex $-1 $99 $109 #
vertex $-1 $97 $110 #
ellipse-curve $-1 1.1102230246251565e-016 0 -7.3786796564403616 0 0 -1 -3.7080053958409629e-016 2.1213203435596424 0 1 I I #
straight-curve $-1 5.1955647424316118e-016 -2.1213203435596419 -8.8786796564403616 -1.7318549141438726e-016 0.70710678118654813 -0.70710678118654702 I I #
straight-curve $-1 -2.5977823712158059e-016 2.1213203435596419 -8.8786796564403616 8.6592745707193628e-017 -0.70710678118654813 -0.70710678118654702 I I #
point $-1 -2.5977823712158064e-016 2.1213203435596424 -8.8786796564403634 #
point $-1 5.1955647424316118e-016 -2.1213203435596419 -8.8786796564403616 #
coedge $-1 $73 $75 $63 $85 forward $106 $-1 #
edge $-1 $59 -4.3825605845611786e-032 $60 3.1415926535897931 $84 $111 forward 7 unknown #
cone-surface $-1 0 0 -10 0 0 -1 0 -1.0000000000000018 0 1 I I -0.70710678118654813 0.70710678118654691 1.0000000000000018 forward I I I I #
face $-1 $112 $113 $2 $-1 $114 reversed single #
loop $-1 $-1 $115 $65 #
cone-surface $-1 8.9348138931738816 2.3940761671983202 0 0 0 1 0 1 0 1 I I 0 1 1 forward I I I I #
loop $-1 $116 $117 $49 #
coedge $-1 $118 $118 $119 $120 forward $66 $-1 #
coedge $-1 $121 $68 $122 $123 reversed $50 $-1 #
coedge $-1 $68 $124 $125 $126 reversed $50 $-1 #
coedge $-1 $127 $128 $68 $95 forward $129 $-1 #
edge $-1 $130 2.2204460492503131e-016 $131 1.7425835660657627 $68 $132 forward 7 unknown #
coedge $-1 $133 $134 $69 $97 reversed $135 $-1 #
edge $-1 $103 3.3933448508145426e-031 $78 8.3137084989847594 $96 $136 forward 7 unknown #
coedge $-1 $134 $133 $70 $99 forward $135 $-1 #
edge $-1 $102 0 $77 8.3137084989847558 $98 $137 forward 7 unknown #
coedge $-1 $124 $71 $138 $139 forward $50 $-1 #
coedge $-1 $71 $121 $140 $141 forward $50 $-1 #
vertex $-1 $142 $143 #
vertex $-1 $141 $144 #
ellipse-curve $-1 -8.8817841970012523e-016 -2.2204460492503131e-016 -1.5 0 0 -1 -9.1506663357775785e-017 7.9999999999999938 0 1 I I #
coedge $-1 $75 $73 $134 $145 reversed $106 $-1 #
loop $-1 $-1 $84 $146 #
straight-curve $-1 5.1955647424316128e-016 -2.1213203435596424 -7.3786796564403616 0 0 -1 I I #
straight-curve $-1 -2.5977823712158064e-016 2.1213203435596424 -7.3786796564403616 0 0 -1 I I #
point $-1 -2.5977823712158059e-016 2.1213203435596419 -7.3786796564403563 #
point $-1 5.1955647424316128e-016 -2.1213203435596424 -7.3786796564403616 #
ellipse-curve $-1 2.2204460492503131e-016 0 -8.8786796564403616 0 0 1 -4.8182284204661195e-016 2.1213203435596419 0 1 I I #
face $-1 $147 $148 $2 $-1 $149 forward single #
loop $-1 $-1 $150 $87 #
cone-surface $-1 8.9348138931738816 2.3940761671983202 0 0 0 1 0 1 0 1 I I 0 1 1 forward I I I I #
coedge $-1 $119 $151 $152 $153 reversed $88 $-1 #
loop $-1 $154 $155 $49 #
coedge $-1 $156 $156 $157 $158 forward $90 $-1 #
coedge $-1 $91 $91 $159 $160 forward $66 $-1 #
coedge $-1 $161 $115 $91 $120 reversed $88 $-1 #
edge $-1 $162 0 $163 3.1415926535897967 $91 $164 forward 7 unknown #
coedge $-1 $101 $92 $165 $166 reversed $50 $-1 #
coedge $-1 $167 $168 $92 $123 forward $169 $-1 #
edge $-1 $170 0 $130 0.3518115363274304 $92 $171 forward 7 unknown #
coedge $-1 $93 $100 $172 $173 reversed $50 $-1 #
coedge $-1 $174 $175 $93 $126 forward $176 $-1 #
edge $-1 $131 0 $177 0.35181153632743506 $93 $178 forward 7 unknown #
coedge $-1 $179 $94 $180 $181 reversed $129 $-1 #
coedge $-1 $94 $182 $183 $184 reversed $129 $-1 #
loop $-1 $-1 $185 $49 #
vertex $-1 $123 $186 #
vertex $-1 $126 $187 #
ellipse-curve $-1 -4.4408920985006262e-016 -1.3322676295501878e-015 1 0 0 1 6.5595096199188951 -4.5796106325965624 0 1 I I #
coedge $-1 $98 $96 $188 $142 reversed $135 $-1 #
coedge $-1 $96 $98 $105 $145 forward $135 $-1 #
loop $-1 $-1 $134 $189 #
straight-curve $-1 1.959370166115802e-015 -7.9999999999999938 -1.5 -1.7318549141438701e-016 0.70710678118654724 -0.70710678118654779 I I #
straight-curve $-1 -9.7968508305790102e-016 7.9999999999999938 -1.5 8.6592745707193505e-017 -0.70710678118654724 -0.70710678118654779 I I #
coedge $-1 $188 $190 $100 $139 reversed $191 $-1 #
edge $-1 $102 0 $192 2.5 $138 $193 forward 7 unknown #
coedge $-1 $194 $188 $101 $141 reversed $191 $-1 #
edge $-1 $195 0 $103 2.5 $140 $196 forward 7 unknown #
edge $-1 $102 0 $103 3.1415926535897931 $188 $197 forward 7 unknown #
point $-1 -9.7968508305790102e-016 7.9999999999999938 -1.5 #
point $-1 0 -7.9999999999999938 -1.5 #
edge $-1 $77 8.7651211691223573e-032 $78 3.1415926535897931 $134 $198 forward 7 unknown #
face $-1 $64 $106 $2 $-1 $199 forward single #
face $-1 $200 $201 $2 $-1 $202 reversed single #
loop $-1 $203 $204 $112 #
plane-surface $-1 0 0 1.5 0 0 1 -1 0 0 forward_v I I I I #
coedge $-1 $159 $205 $161 $206 reversed $113 $-1 #
coedge $-1 $115 $161 $204 $207 forward $88 $-1 #
coedge $-1 $205 $159 $115 $153 forward $113 $-1 #
edge $-1 $163 0 $208 0.5 $152 $209 forward 7 unknown #
loop $-1 $129 $210 $49 #
coedge $-1 $211 $211 $212 $213 forward $116 $-1 #
coedge $-1 $117 $117 $214 $215 forward $90 $-1 #
coedge $-1 $216 $217 $117 $158 reversed $201 $-1 #
edge $-1 $218 0 $219 3.1415926535897931 $117 $220 forward 7 unknown #
coedge $-1 $152 $150 $118 $160 reversed $113 $-1 #
edge $-1 $163 0 $162 3.1415926535897896 $118 $221 forward 7 unknown #
coedge $-1 $151 $119 $150 $206 forward $88 $-1 #
vertex $-1 $160 $222 #
vertex $-1 $160 $223 #
ellipse-curve $-1 8.9348138931738834 2.3940761671983202 1 0 0 1 -1.7763568394002505e-015 -1 0 1 I I #
coedge $-1 $224 $225 $121 $166 forward $129 $-1 #
edge $-1 $195 -2.4492935982947094e-016 $170 0.60949239523373266 $121 $226 forward 7 unknown #
coedge $-1 $227 $122 $228 $229 reversed $169 $-1 #
coedge $-1 $122 $227 $230 $231 reversed $169 $-1 #
loop $-1 $-1 $167 $232 #
vertex $-1 $166 $233 #
ellipse-curve $-1 -3.4194869158454821e-014 3.3750779948604753e-014 1 0 0 1 4.5796106325965962 -6.5595096199189289 0 1 I I #
coedge $-1 $234 $235 $124 $173 forward $129 $-1 #
edge $-1 $177 5.5511151231261352e-017 $192 0.085893619635436277 $124 $236 forward 7 unknown #
coedge $-1 $237 $125 $238 $239 reversed $176 $-1 #
coedge $-1 $125 $237 $240 $241 reversed $176 $-1 #
loop $-1 $-1 $174 $242 #
vertex $-1 $126 $243 #
ellipse-curve $-1 1.6542323066914832e-014 5.4622972811557702e-014 1 0 0 1 3.3908966509198746 7.2458139572293376 0 1 I I #
coedge $-1 $235 $127 $244 $245 reversed $129 $-1 #
coedge $-1 $240 $246 $127 $181 forward $247 $-1 #
edge $-1 $248 0 $131 0.54345253299391438 $127 $249 forward 7 unknown #
coedge $-1 $128 $224 $250 $251 reversed $129 $-1 #
coedge $-1 $252 $228 $128 $184 forward $253 $-1 #
edge $-1 $130 -1.2560739669470201e-015 $254 0.54345253299391161 $128 $255 forward 7 unknown #
coedge $-1 $256 $257 $258 $259 reversed $129 $-1 #
point $-1 6.5595096199188943 -4.5796106325965624 1 #
point $-1 3.390896650919891 7.2458139572293918 1 #
coedge $-1 $140 $138 $133 $142 forward $191 $-1 #
face $-1 $146 $135 $2 $-1 $260 forward single #
coedge $-1 $138 $261 $234 $262 reversed $191 $-1 #
loop $-1 $-1 $190 $263 #
vertex $-1 $139 $264 #
straight-curve $-1 -9.7968508305790181e-016 8 -1.5 0 0 1 I I #
coedge $-1 $261 $140 $225 $265 reversed $191 $-1 #
vertex $-1 $265 $266 #
straight-curve $-1 0 -8 1 0 0 -1 I I #
ellipse-curve $-1 -4.4408920985006262e-016 0 -1.5 0 0 1 -5.355958732078384e-016 7.9999999999999938 0 1 I I #
ellipse-curve $-1 4.4408920985006262e-016 0 -7.3786796564403616 0 0 1 -7.0386744697164325e-016 2.1213203435596424 0 1 I I #
cone-surface $-1 0 0 -10.436306819631191 0 0 1 0 -2.1213203435596424 0 1 I I 0 1 2.1213203435596424 forward I I I I #
face $-1 $267 $268 $2 $-1 $269 reversed single #
loop $-1 $-1 $217 $147 #
cone-surface $-1 -2.3940761671983193 -8.9348138931738816 0 0 0 1 0 1 0 1 I I 0 1 1 forward I I I I #
loop $-1 $270 $271 $112 #
coedge $-1 $272 $272 $151 $207 reversed $148 $-1 #
coedge $-1 $150 $152 $272 $273 forward $113 $-1 #
edge $-1 $162 0 $274 0.5 $150 $275 forward 7 unknown #
edge $-1 $274 0 $208 3.1415926535897967 $204 $276 forward 7 unknown #
vertex $-1 $273 $277 #
straight-curve $-1 8.9348138931738816 3.3940761671983202 1 0 0 1 I I #
coedge $-1 $278 $278 $279 $280 forward $154 $-1 #
coedge $-1 $155 $155 $281 $282 forward $116 $-1 #
coedge $-1 $283 $284 $155 $213 reversed $285 $-1 #
edge $-1 $286 0 $287 3.1415926535897931 $155 $288 forward 7 unknown #
coedge $-1 $289 $290 $156 $215 reversed $268 $-1 #
edge $-1 $219 0 $218 3.1415926535897931 $156 $291 forward 7 unknown #
coedge $-1 $292 $157 $290 $293 forward $201 $-1 #
coedge $-1 $157 $292 $289 $294 reversed $201 $-1 #
vertex $-1 $215 $295 #
vertex $-1 $215 $296 #
ellipse-curve $-1 -2.3940761671983193 -8.9348138931738816 1 0 0 1 0 -1 0 1 I I #
ellipse-curve $-1 8.9348138931738834 2.3940761671983202 1 0 0 1 -1.7763568394002505e-015 1 0 1 I I #
point $-1 8.9348138931738816 1.3940761671983202 1 #
point $-1 8.9348138931738816 3.3940761671983202 1 #
coedge $-1 $182 $165 $297 $298 reversed $129 $-1 #
coedge $-1 $165 $256 $194 $265 forward $129 $-1 #
ellipse-curve $-1 3.8857805861880479e-015 -1.021405182655144e-014 1 0 0 1 -1.9263457075522828e-015 -7.9999999999999893 0 1 I I #
coedge $-1 $168 $167 $299 $300 reversed $169 $-1 #
coedge $-1 $183 $301 $167 $229 forward $253 $-1 #
edge $-1 $302 0 $130 0.95654746700608684 $167 $303 forward 7 unknown #
coedge $-1 $304 $297 $168 $231 forward $305 $-1 #
edge $-1 $170 0 $306 0.95654746700608684 $168 $307 forward 7 unknown #
face $-1 $308 $169 $2 $-1 $309 reversed single #
point $-1 4.5796106325965615 -6.5595096199188951 1 #
coedge $-1 $257 $172 $190 $262 forward $129 $-1 #
coedge $-1 $172 $179 $310 $311 reversed $129 $-1 #
ellipse-curve $-1 8.6319840164605921e-015 2.5357493882438575e-013 1 0 0 1 0.68630433731049201 7.9705072835161968 0 1 I I #
coedge $-1 $175 $174 $312 $313 reversed $176 $-1 #
coedge $-1 $310 $314 $174 $239 forward $315 $-1 #
edge $-1 $316 0 $177 0.95654746700608573 $174 $317 forward 7 unknown #
coedge $-1 $318 $180 $175 $241 forward $247 $-1 #
edge $-1 $131 0 $319 0.95654746700608573 $175 $320 forward 7 unknown #
face $-1 $321 $176 $2 $-1 $322 reversed single #
point $-1 0.68630433731050022 7.9705072835164499 1 #
coedge $-1 $323 $324 $179 $245 forward $325 $-1 #
edge $-1 $326 -6.4343585545572171e-016 $248 2.7999999999999989 $179 $327 forward 7 unknown #
coedge $-1 $180 $328 $323 $329 reversed $247 $-1 #
loop $-1 $-1 $246 $330 #
vertex $-1 $245 $331 #
straight-curve $-1 3.5315525165679222 7.7707487942104256 1 -0.25881904510252102 -0.9659258262890682 0 I I #
coedge $-1 $332 $333 $182 $251 forward $334 $-1 #
edge $-1 $254 0 $335 2.7999999999999998 $182 $336 forward 7 unknown #
coedge $-1 $337 $183 $333 $338 forward $253 $-1 #
loop $-1 $-1 $301 $339 #
vertex $-1 $184 $340 #
straight-curve $-1 6.5595096199188951 -4.5796106325965633 1 0.70710678118654757 -0.70710678118654757 0 I I #
coedge $-1 $225 $185 $341 $342 reversed $129 $-1 #
coedge $-1 $185 $234 $343 $344 reversed $129 $-1 #
coedge $-1 $345 $346 $185 $259 forward $347 $-1 #
edge $-1 $348 0 $349 2.8000000000000003 $185 $350 forward 7 unknown #
cone-surface $-1 0 0 -8.5 0 0 -1 0 -0.99999999999999922 0 1 I I -0.70710678118654724 0.70710678118654779 0.99999999999999922 forward I I I I #
coedge $-1 $190 $194 $351 $352 reversed $191 $-1 #
edge $-1 $192 -1.2246872444723366e-016 $353 1.6566899464303297 $190 $354 forward 7 unknown #
face $-1 $189 $191 $2 $-1 $355 forward single #
point $-1 -9.7968508305790181e-016 8 1 #
edge $-1 $356 0 $195 1.1330911708320308 $194 $357 forward 7 unknown #
point $-1 0 -8 1 #
face $-1 $358 $359 $2 $-1 $360 forward single #
loop $-1 $-1 $290 $200 #
cone-surface $-1 -2.3940761671983193 -8.9348138931738816 0 0 0 1 0 1 0 1 I I 0 1 1 forward I I I I #
loop $-1 $361 $362 $112 #
coedge $-1 $363 $363 $292 $364 reversed $203 $-1 #
coedge $-1 $204 $204 $205 $273 reversed $148 $-1 #
edge $-1 $208 0 $274 3.1415926535897896 $272 $365 forward 7 unknown #
vertex $-1 $273 $366 #
straight-curve $-1 8.9348138931738816 1.3940761671983202 1 0 0 1 I I #
ellipse-curve $-1 8.9348138931738834 2.3940761671983202 1.5 0 0 1 -1.7763568394002505e-015 -1 0 1 I I #
point $-1 8.9348138931738816 3.3940761671983202 1.5 #
coedge $-1 $210 $210 $367 $368 forward $154 $-1 #
coedge $-1 $369 $370 $210 $280 reversed $371 $-1 #
edge $-1 $372 0 $373 3.1415926535897931 $210 $374 forward 7 unknown #
coedge $-1 $375 $376 $211 $282 reversed $377 $-1 #
edge $-1 $287 0 $286 3.1415926535897931 $211 $378 forward 7 unknown #
coedge $-1 $379 $212 $376 $380 reversed $285 $-1 #
coedge $-1 $212 $379 $375 $381 forward $285 $-1 #
loop $-1 $-1 $284 $382 #
vertex $-1 $282 $383 #
vertex $-1 $282 $384 #
ellipse-curve $-1 0 4.4408920985006262e-016 1 0 0 -1 -1.3471114790620886e-015 11 0 1 I I #
coedge $-1 $385 $214 $217 $294 forward $268 $-1 #
coedge $-1 $214 $385 $216 $293 reversed $268 $-1 #
ellipse-curve $-1 -2.3940761671983193 -8.9348138931738816 1 0 0 1 0 0.99999999999999911 0 1 I I #
coedge $-1 $217 $216 $271 $364 forward $201 $-1 #
edge $-1 $218 0 $386 0.5 $290 $387 forward 7 unknown #
edge $-1 $219 0 $388 0.5 $289 $389 forward 7 unknown #
point $-1 -2.3940761671983193 -9.9348138931738816 1 #
point $-1 -2.3940761671983193 -7.9348138931738825 1 #
coedge $-1 $230 $390 $224 $298 forward $305 $-1 #
edge $-1 $335 0 $170 0.54345253299391294 $224 $391 forward 7 unknown #
coedge $-1 $392 $393 $227 $300 forward $394 $-1 #
edge $-1 $306 0 $302 2.7999999999999998 $227 $395 forward 7 unknown #
coedge $-1 $228 $337 $392 $396 reversed $253 $-1 #
vertex $-1 $300 $397 #
straight-curve $-1 5.883128419472075 -3.9032294321497432 1 0.70710678118654757 -0.70710678118654757 0 I I #
coedge $-1 $398 $230 $393 $399 forward $305 $-1 #
loop $-1 $-1 $390 $400 #
vertex $-1 $231 $401 #
straight-curve $-1 4.5796106325965615 -6.5595096199188951 1 -0.70710678118654757 0.70710678118654757 0 I I #
face $-1 $330 $402 $2 $-1 $403 reversed single #
plane-surface $-1 0 0 1 0 0 -1 0.70710678118654757 0.70710678118654746 0 forward_v I I I I #
coedge $-1 $404 $238 $235 $311 forward $315 $-1 #
edge $-1 $177 -9.7285321917468863e-016 $326 0.54345253299391427 $235 $405 forward 7 unknown #
coedge $-1 $406 $407 $237 $313 forward $402 $-1 #
edge $-1 $319 0 $316 2.7999999999999998 $237 $408 forward 7 unknown #
coedge $-1 $238 $409 $406 $410 reversed $315 $-1 #
loop $-1 $-1 $314 $411 #
vertex $-1 $313 $412 #
straight-curve $-1 0.43873163530475012 7.0465533810638812 1 0.25881904510252096 0.9659258262890682 0 I I #
coedge $-1 $328 $240 $407 $413 forward $247 $-1 #
vertex $-1 $241 $414 #
straight-curve $-1 3.390896650919891 7.2458139572293918 1 -0.25881904510252096 -0.9659258262890682 0 I I #
face $-1 $415 $416 $2 $-1 $417 reversed single #
plane-surface $-1 0 0 1 0 0 -1 -0.9659258262890682 0.25881904510252102 0 forward_v I I I I #
coedge $-1 $418 $244 $246 $329 forward $325 $-1 #
coedge $-1 $244 $418 $404 $419 reversed $325 $-1 #
loop $-1 $-1 $324 $420 #
vertex $-1 $311 $421 #
straight-curve $-1 0.82696020295853212 8.4954421204974846 1 0.9659258262890682 -0.25881904510252113 0 I I #
coedge $-1 $246 $318 $422 $423 reversed $247 $-1 #
edge $-1 $248 0 $424 0.5 $246 $425 forward 7 unknown #
face $-1 $420 $247 $2 $-1 $426 reversed single #
point $-1 3.5315525165679222 7.7707487942104256 1 #
coedge $-1 $427 $250 $390 $428 forward $334 $-1 #
coedge $-1 $250 $427 $252 $338 reversed $334 $-1 #
loop $-1 $-1 $333 $429 #
vertex $-1 $251 $430 #
straight-curve $-1 6.943788591251896 -4.9638896039295641 1 -0.70710678118654768 -0.70710678118654735 0 I I #
coedge $-1 $301 $252 $431 $432 reversed $253 $-1 #
edge $-1 $254 0 $433 0.5 $252 $434 forward 7 unknown #
face $-1 $232 $253 $2 $-1 $435 reversed single #
point $-1 6.943788591251896 -4.9638896039295641 1 #
coedge $-1 $436 $437 $256 $342 forward $438 $-1 #
edge $-1 $356 -9.7285321917468843e-016 $348 0.5434525329939125 $256 $439 forward 7 unknown #
coedge $-1 $440 $441 $257 $344 forward $442 $-1 #
edge $-1 $349 2.8734686308431569e-017 $353 0.54345253299391438 $257 $443 forward 7 unknown #
coedge $-1 $444 $258 $441 $445 forward $347 $-1 #
coedge $-1 $258 $444 $436 $446 reversed $347 $-1 #
loop $-1 $-1 $346 $447 #
vertex $-1 $342 $448 #
vertex $-1 $344 $449 #
straight-curve $-1 -7.7707487942104247 -3.5315525165679231 1 -0.25881904510252135 0.9659258262890682 0 I I #
coedge $-1 $450 $451 $261 $352 forward $452 $-1 #
edge $-1 $353 0 $356 0.35181153632743417 $261 $453 forward 7 unknown #
vertex $-1 $352 $454 #
ellipse-curve $-1 4.4408920985006262e-016 2.2204460492503131e-016 1 0 0 1 -2.4035240884858337e-015 8 0 1 I I #
cone-surface $-1 0 0 -10.436306819631191 0 0 1 0 -8 0 1 I I 0 1 8 forward I I I I #
vertex $-1 $352 $455 #
ellipse-curve $-1 -2.6645352591003757e-015 -1.7763568394002505e-015 1 0 0 1 -7.24581395722939 -3.390896650919891 0 1 I I #
face $-1 $456 $457 $2 $-1 $458 forward single #
loop $-1 $-1 $459 $267 #
cone-surface $-1 0 0 0 0 0 1 -12 0 0 1 I I 0 1 12 forward I I I I #
loop $-1 $460 $461 $112 #
coedge $-1 $462 $462 $463 $464 forward $270 $-1 #
coedge $-1 $271 $271 $385 $465 reversed $203 $-1 #
edge $-1 $386 0 $388 3.1415926535897931 $271 $466 forward 7 unknown #
ellipse-curve $-1 8.9348138931738834 2.3940761671983202 1.5 0 0 1 -1.7763568394002505e-015 1 0 1 I I #
point $-1 8.9348138931738816 1.3940761671983202 1.5 #
coedge $-1 $467 $468 $278 $368 reversed $469 $-1 #
edge $-1 $373 0 $372 3.1415926535897931 $278 $470 forward 7 unknown #
coedge $-1 $471 $279 $468 $472 forward $371 $-1 #
coedge $-1 $279 $471 $467 $473 reversed $371 $-1 #
loop $-1 $-1 $370 $474 #
vertex $-1 $368 $475 #
vertex $-1 $368 $476 #
ellipse-curve $-1 -6.5407377259755632 6.5407377259755632 1 0 0 1 0 -1 0 1 I I #
coedge $-1 $477 $281 $284 $381 reversed $377 $-1 #
coedge $-1 $281 $477 $283 $380 forward $377 $-1 #
loop $-1 $-1 $376 $478 #
ellipse-curve $-1 8.8817841970012523e-016 -4.4408920985006262e-016 1 0 0 -1 4.5893305936197047e-016 -11 0 1 I I #
coedge $-1 $284 $283 $479 $480 reversed $285 $-1 #
edge $-1 $481 -5.5511151231257827e-017 $286 0.69999999999999996 $376 $482 forward 7 unknown #
edge $-1 $483 -5.5511151231257827e-017 $287 0.69999999999999996 $375 $484 forward 7 unknown #
face $-1 $478 $285 $2 $-1 $485 reversed single #
point $-1 -1.3471114790620886e-015 11 1 #
point $-1 1.3471114790620957e-015 -11 1 #
coedge $-1 $290 $289 $363 $465 forward $268 $-1 #
vertex $-1 $465 $486 #
straight-curve $-1 -2.3940761671983193 -9.9348138931738816 1 0 0 1 I I #
vertex $-1 $465 $487 #
straight-curve $-1 -2.3940761671983193 -7.9348138931738816 1 0 0 1 I I #
coedge $-1 $297 $398 $332 $428 reversed $305 $-1 #
straight-curve $-1 4.9638896039295632 -6.9437885912518968 1 -0.70710678118654746 0.70710678118654746 0 I I #
coedge $-1 $488 $299 $301 $396 forward $394 $-1 #
coedge $-1 $299 $488 $304 $399 reversed $394 $-1 #
loop $-1 $-1 $393 $489 #
straight-curve $-1 3.9032294321497423 -5.8831284194720759 1 0.70710678118654768 0.70710678118654735 0 I I #
edge $-1 $302 0 $490 0.5 $392 $491 forward 7 unknown #
point $-1 5.883128419472075 -3.9032294321497432 1 #
coedge $-1 $390 $304 $492 $493 reversed $305 $-1 #
edge $-1 $306 0 $494 0.5 $304 $495 forward 7 unknown #
face $-1 $429 $305 $2 $-1 $496 reversed single #
point $-1 3.9032294321497423 -5.8831284194720759 1 #
loop $-1 $-1 $407 $308 #
plane-surface $-1 3.1433239489141407 6.3218600547768231 1 -0.25881904510252102 -0.9659258262890682 0 -0.9659258262890682 0.25881904510252102 0 forward_v I I I I #
coedge $-1 $409 $310 $324 $419 forward $315 $-1 #
straight-curve $-1 0.68630433731050067 7.9705072835164508 1 0.25881904510252124 0.9659258262890682 0 I I #
coedge $-1 $497 $312 $314 $410 forward $402 $-1 #
coedge $-1 $312 $497 $318 $413 reversed $402 $-1 #
straight-curve $-1 3.1433239489141407 6.3218600547768231 1 -0.9659258262890682 0.25881904510252107 0 I I #
coedge $-1 $314 $404 $498 $499 reversed $315 $-1 #
edge $-1 $316 0 $500 0.5 $406 $501 forward 7 unknown #
face $-1 $242 $315 $2 $-1 $502 reversed single #
point $-1 0.43873163530475012 7.0465533810638812 1 #
edge $-1 $319 0 $503 0.5 $318 $504 forward 7 unknown #
point $-1 3.1433239489141407 6.3218600547768231 1 #
face $-1 $447 $442 $2 $-1 $505 reversed single #
loop $-1 $-1 $506 $321 #
plane-surface $-1 -7.0465533810638821 -0.43873163530475079 1 0.9659258262890682 0.25881904510252113 0 0.25881904510252113 -0.9659258262890682 0 forward_v I I I I #
coedge $-1 $324 $323 $507 $508 reversed $325 $-1 #
edge $-1 $326 0 $509 0.5 $404 $510 forward 7 unknown #
face $-1 $411 $325 $2 $-1 $511 reversed single #
point $-1 0.82696020295853145 8.4954421204974846 1 #
coedge $-1 $512 $507 $328 $423 forward $513 $-1 #
edge $-1 $424 0 $503 1.5000000000000002 $422 $514 forward 7 unknown #
vertex $-1 $423 $515 #
straight-curve $-1 3.5315525165679222 7.7707487942104256 1 0 0 1 I I #
plane-surface $-1 3.5315525165679222 7.7707487942104256 1 0.9659258262890682 -0.25881904510252102 0 -0.25881904510252102 -0.9659258262890682 0 forward_v I I I I #
coedge $-1 $333 $332 $516 $517 reversed $334 $-1 #
edge $-1 $335 0 $518 0.5 $390 $519 forward 7 unknown #
face $-1 $339 $334 $2 $-1 $520 reversed single #
point $-1 4.9638896039295632 -6.9437885912518968 1 #
coedge $-1 $516 $521 $337 $432 forward $522 $-1 #
edge $-1 $490 0 $433 1.4999999999999998 $431 $523 forward 7 unknown #
vertex $-1 $517 $524 #
straight-curve $-1 6.943788591251896 -4.9638896039295641 1 0 0 1 I I #
plane-surface $-1 5.883128419472075 -3.9032294321497432 1 0.70710678118654757 0.70710678118654746 0 0.70710678118654746 -0.70710678118654757 0 forward_v I I I I #
coedge $-1 $525 $341 $346 $446 forward $438 $-1 #
coedge $-1 $341 $526 $450 $527 forward $438 $-1 #
loop $-1 $-1 $526 $528 #
straight-curve $-1 -7.2458139572293927 -3.3908966509198928 1 -0.96592582628906842 -0.25881904510252035 0 I I #
coedge $-1 $529 $343 $451 $530 forward $442 $-1 #
coedge $-1 $343 $531 $345 $445 reversed $442 $-1 #
loop $-1 $-1 $441 $415 #
straight-curve $-1 -8.4954421204974846 -0.82696020295853234 1 0.9659258262890682 0.25881904510252102 0 I I #
coedge $-1 $346 $345 $532 $533 reversed $347 $-1 #
edge $-1 $349 0 $534 0.5 $441 $535 forward 7 unknown #
edge $-1 $348 0 $536 0.5 $436 $537 forward 7 unknown #
face $-1 $528 $347 $2 $-1 $538 reversed single #
point $-1 -7.7707487942104247 -3.5315525165679231 1 #
point $-1 -8.4954421204974846 -0.82696020295853223 1 #
coedge $-1 $539 $351 $437 $527 reversed $452 $-1 #
coedge $-1 $351 $539 $440 $530 reversed $452 $-1 #
loop $-1 $-1 $450 $540 #
ellipse-curve $-1 -3.4194869158454821e-014 -9.9920072216264073e-015 1 0 0 1 -7.970507283516417 -0.68630433731049112 0 1 I I #
point $-1 -7.9705072835164508 -0.68630433731050111 1 #
point $-1 -7.2458139572293918 -3.3908966509198923 1 #
face $-1 $541 $542 $2 $-1 $543 forward single #
loop $-1 $-1 $544 $358 #
cone-surface $-1 0 0 0 0 0 1 -12 0 0 1 I I 0 1 12 forward I I I I #
coedge $-1 $463 $545 $546 $547 forward $359 $-1 #
loop $-1 $522 $548 $112 #
coedge $-1 $549 $549 $471 $550 reversed $361 $-1 #
coedge $-1 $362 $362 $551 $552 forward $270 $-1 #
coedge $-1 $553 $459 $362 $464 reversed $359 $-1 #
edge $-1 $554 0 $555 3.1415926535897927 $362 $556 forward 7 unknown #
edge $-1 $388 0 $386 3.1415926535897931 $363 $557 forward 7 unknown #
ellipse-curve $-1 -2.3940761671983193 -8.9348138931738816 1.5 0 0 1 0 -1 0 1 I I #
coedge $-1 $558 $367 $370 $473 forward $469 $-1 #
coedge $-1 $367 $558 $369 $472 reversed $469 $-1 #
loop $-1 $-1 $468 $559 #
ellipse-curve $-1 -6.5407377259755632 6.5407377259755632 1 0 0 1 0 1 0 1 I I #
coedge $-1 $370 $369 $461 $550 forward $371 $-1 #
edge $-1 $372 0 $560 0.5 $468 $561 forward 7 unknown #
edge $-1 $373 0 $562 0.5 $467 $563 forward 7 unknown #
face $-1 $559 $371 $2 $-1 $564 reversed single #
point $-1 -6.5407377259755632 5.5407377259755632 1 #
point $-1 -6.5407377259755632 7.5407377259755632 1 #
coedge $-1 $376 $375 $565 $566 reversed $377 $-1 #
face $-1 $474 $377 $2 $-1 $567 reversed single #
coedge $-1 $568 $569 $379 $480 forward $570 $-1 #
edge $-1 $483 1.975435547687571e-015 $481 3.1415926535897927 $379 $571 forward 7 unknown #
vertex $-1 $566 $572 #
straight-curve $-1 -1.347066989204615e-015 11 0.29999999999999999 0 0 1 I I #
vertex $-1 $566 $573 #
straight-curve $-1 0 -11 0.29999999999999999 0 0 1 I I #
cone-surface $-1 0 0 0 0 0 -1 0 -11 0 1 I I 0 1 11 forward I I I I #
point $-1 -2.3940761671983193 -9.9348138931738816 1.5 #
point $-1 -2.3940761671983193 -7.9348138931738825 1.5 #
coedge $-1 $393 $392 $521 $574 reversed $394 $-1 #
face $-1 $400 $394 $2 $-1 $575 reversed single #
vertex $-1 $432 $576 #
straight-curve $-1 5.8831284194720759 -3.9032294321497432 1 0 0 1 I I #
coedge $-1 $521 $516 $398 $493 forward $522 $-1 #
edge $-1 $518 0 $494 1.4999999999999996 $492 $577 forward 7 unknown #
vertex $-1 $493 $578 #
straight-curve $-1 3.9032294321497423 -5.8831284194720759 1 0 0 1 I I #
plane-surface $-1 4.9638896039295632 -6.9437885912518968 1 -0.70710678118654757 -0.70710678118654746 0 -0.70710678118654746 0.70710678118654757 0 forward_v I I I I #
coedge $-1 $407 $406 $512 $579 reversed $402 $-1 #
coedge $-1 $507 $512 $409 $499 forward $513 $-1 #
edge $-1 $500 -2.8734686308431575e-017 $509 1.5000000000000002 $498 $580 forward 7 unknown #
vertex $-1 $499 $581 #
straight-curve $-1 0.4387316353047499 7.0465533810638821 1 0 0 1 I I #
plane-surface $-1 0.43873163530475012 7.0465533810638812 1 -0.9659258262890682 0.25881904510252102 0 0.25881904510252102 0.9659258262890682 0 forward_v I I I I #
vertex $-1 $423 $582 #
straight-curve $-1 3.1433239489141407 6.3218600547768231 1 0 0 1 I I #
plane-surface $-1 -8.4954421204974846 -0.82696020295853234 1 -0.25881904510252113 0.9659258262890682 0 0.9659258262890682 0.25881904510252113 0 forward_v I I I I #
coedge $-1 $583 $584 $529 $585 reversed $416 $-1 #
coedge $-1 $422 $498 $418 $508 forward $513 $-1 #
edge $-1 $509 0 $424 2.7999999999999989 $507 $586 forward 7 unknown #
vertex $-1 $508 $587 #
straight-curve $-1 0.8269602029585319 8.4954421204974846 1 0 0 1 I I #
plane-surface $-1 0.82696020295853145 8.4954421204974846 1 0.25881904510252102 0.9659258262890682 0 0.9659258262890682 -0.25881904510252102 0 forward_v I I I I #
coedge $-1 $498 $422 $497 $579 forward $513 $-1 #
loop $-1 $588 $512 $112 #
straight-curve $-1 3.5315525165679222 7.7707487942104256 1.5 -0.25881904510252102 -0.9659258262890682 0 I I #
point $-1 3.5315525165679222 7.7707487942104256 1.5 #
coedge $-1 $492 $431 $427 $517 forward $522 $-1 #
edge $-1 $433 0 $518 2.7999999999999998 $516 $589 forward 7 unknown #
vertex $-1 $493 $590 #
straight-curve $-1 4.9638896039295624 -6.9437885912518968 1 0 0 1 I I #
plane-surface $-1 6.943788591251896 -4.9638896039295641 1 0.70710678118654746 -0.70710678118654757 0 -0.70710678118654757 -0.70710678118654746 0 forward_v I I I I #
coedge $-1 $431 $492 $488 $574 forward $522 $-1 #
loop $-1 $513 $521 $112 #
straight-curve $-1 5.883128419472075 -3.9032294321497436 1.5 0.70710678118654757 -0.70710678118654735 0 I I #
point $-1 6.943788591251896 -4.9638896039295641 1.5 #
coedge $-1 $526 $436 $591 $592 reversed $438 $-1 #
coedge $-1 $437 $525 $593 $594 reversed $438 $-1 #
edge $-1 $595 0 $356 0.95654746700608684 $450 $596 forward 7 unknown #
face $-1 $540 $438 $2 $-1 $597 reversed single #
coedge $-1 $531 $440 $506 $585 forward $442 $-1 #
edge $-1 $353 0 $598 0.95654746700608584 $451 $599 forward 7 unknown #
coedge $-1 $441 $529 $600 $601 reversed $442 $-1 #
coedge $-1 $600 $591 $444 $533 forward $588 $-1 #
edge $-1 $536 0 $534 2.8000000000000003 $532 $602 forward 7 unknown #
vertex $-1 $601 $603 #
straight-curve $-1 -8.4954421204974846 -0.8269602029585319 1 0 0 1 I I #
vertex $-1 $533 $604 #
straight-curve $-1 -7.7707487942104247 -3.5315525165679231 1 0 0 1 I I #
plane-surface $-1 -7.7707487942104247 -3.5315525165679231 1 -0.9659258262890682 -0.25881904510252113 0 -0.25881904510252113 0.9659258262890682 0 forward_v I I I I #
coedge $-1 $451 $450 $583 $605 reversed $452 $-1 #
face $-1 $263 $452 $2 $-1 $606 reversed single #
face $-1 $607 $608 $2 $-1 $609 forward single #
loop $-1 $-1 $610 $456 #
torus-surface $-1 0 0 0.29999999999999999 0 0 1 11.699999999999998 0.29999999999999999 0.99999563951296322 0.0029531263196623347 0 forward_v I I I I #
coedge $-1 $551 $611 $553 $612 forward $457 $-1 #
coedge $-1 $459 $553 $613 $614 reversed $359 $-1 #
coedge $-1 $611 $551 $459 $547 reversed $457 $-1 #
edge $-1 $615 0 $555 1.2 $546 $616 forward 7 unknown #
coedge $-1 $617 $617 $618 $619 reversed $460 $-1 #
coedge $-1 $461 $461 $558 $620 reversed $361 $-1 #
edge $-1 $560 0 $562 3.1415926535897931 $461 $621 forward 7 unknown #
coedge $-1 $546 $544 $462 $552 reversed $457 $-1 #
edge $-1 $555 0 $554 3.1415926535897931 $462 $622 forward 7 unknown #
coedge $-1 $545 $463 $544 $612 reversed $359 $-1 #
vertex $-1 $552 $623 #
vertex $-1 $552 $624 #
ellipse-curve $-1 8.8817841970012523e-016 -2.2204460492503131e-015 1.5 0 0 1 12 7.5086989027348933e-016 0 1 I I #
ellipse-curve $-1 -2.3940761671983193 -8.9348138931738816 1.5 0 0 1 0 0.99999999999999911 0 1 I I #
coedge $-1 $468 $467 $549 $620 forward $469 $-1 #
face $-1 $625 $469 $2 $-1 $626 reversed single #
vertex $-1 $620 $627 #
straight-curve $-1 -6.5407377259755632 5.5407377259755632 1 0 0 1 I I #
vertex $-1 $620 $628 #
straight-curve $-1 -6.5407377259755632 7.5407377259755632 1 0 0 1 I I #
cone-surface $-1 -6.5407377259755632 6.5407377259755632 0 0 0 1 0 1 0 1 I I 0 1 1 forward I I I I #
coedge $-1 $629 $630 $477 $566 forward $631 $-1 #
edge $-1 $481 0 $483 3.1415926535897953 $477 $632 forward 7 unknown #
cone-surface $-1 0 0 0 0 0 -1 0 -11 0 1 I I 0 1 11 forward I I I I #
coedge $-1 $633 $479 $630 $634 reversed $570 $-1 #
coedge $-1 $479 $633 $629 $635 forward $570 $-1 #
loop $-1 $-1 $569 $636 #
ellipse-curve $-1 0 0 0.29999999999999993 0 0 1 -2.0247815223882777e-013 -10.999999999999996 0 1 I I #
point $-1 2.0871271770841806e-013 10.999999999999996 0.29999999999999993 #
point $-1 -1.8074836121426449e-013 -10.999999999999996 0.29999999999999993 #
edge $-1 $494 0 $490 2.7999999999999989 $521 $637 forward 7 unknown #
plane-surface $-1 3.9032294321497423 -5.8831284194720759 1 -0.70710678118654746 0.70710678118654757 0 0.70710678118654757 0.70710678118654746 0 forward_v I I I I #
point $-1 5.883128419472075 -3.9032294321497436 1.5 #
straight-curve $-1 4.9638896039295632 -6.9437885912518968 1.5 -0.70710678118654757 0.70710678118654757 0 I I #
point $-1 3.9032294321497423 -5.8831284194720759 1.5 #
edge $-1 $503 0 $500 2.7999999999999994 $512 $638 forward 7 unknown #
straight-curve $-1 0.43873163530475034 7.0465533810638821 1.5 0.25881904510252107 0.9659258262890682 0 I I #
point $-1 0.43873163530475023 7.0465533810638821 1.5 #
point $-1 3.1433239489141407 6.3218600547768231 1.5 #
coedge $-1 $593 $506 $539 $605 forward $416 $-1 #
coedge $-1 $506 $593 $639 $640 reversed $416 $-1 #
edge $-1 $598 0 $641 0.5 $529 $642 forward 7 unknown #
straight-curve $-1 0.82696020295853212 8.4954421204974846 1.5 0.9659258262890682 -0.25881904510252113 0 I I #
point $-1 0.82696020295853212 8.4954421204974846 1.5 #
loop $-1 $-1 $639 $112 #
straight-curve $-1 6.943788591251896 -4.9638896039295641 1.5 -0.70710678118654768 -0.70710678118654735 0 I I #
point $-1 4.9638896039295632 -6.9437885912518968 1.5 #
coedge $-1 $532 $639 $525 $592 forward $588 $-1 #
edge $-1 $643 -1.1493874523372625e-016 $536 1.4999999999999996 $591 $644 forward 7 unknown #
coedge $-1 $584 $583 $526 $594 forward $416 $-1 #
edge $-1 $595 0 $643 0.5 $593 $645 forward 7 unknown #
vertex $-1 $605 $646 #
straight-curve $-1 -6.3218600547768222 -3.1433239489141416 1 -0.9659258262890682 -0.25881904510252118 0 I I #
plane-surface $-1 -6.3218600547768222 -3.1433239489141416 1 0.25881904510252113 -0.9659258262890682 0 -0.9659258262890682 -0.25881904510252113 0 forward_v I I I I #
vertex $-1 $530 $647 #
straight-curve $-1 -7.9705072835164508 -0.68630433731050111 1 0.9659258262890682 0.25881904510252118 0 I I #
coedge $-1 $639 $532 $531 $601 forward $588 $-1 #
edge $-1 $534 -2.8734686308431582e-017 $641 1.5000000000000002 $600 $648 forward 7 unknown #
straight-curve $-1 -7.7707487942104247 -3.5315525165679231 1.5 -0.25881904510252135 0.9659258262890682 0 I I #
point $-1 -8.4954421204974846 -0.82696020295853245 1.5 #
point $-1 -7.7707487942104247 -3.5315525165679231 1.5 #
edge $-1 $598 0 $595 2.8000000000000003 $539 $649 forward 7 unknown #
plane-surface $-1 0 0 1 0 0 -1 0.25881904510252113 -0.9659258262890682 0 forward_v I I I I #
face $-1 $650 $651 $2 $-1 $652 reversed single #
loop $-1 $-1 $653 $541 #
torus-surface $-1 0 0 0.29999999999999999 0 0 1 11.699999999999998 0.29999999999999999 -0.99999563951296322 -0.0029531263196626569 0 forward_v I I I I #
coedge $-1 $654 $655 $656 $657 forward $542 $-1 #
coedge $-1 $544 $546 $654 $658 reversed $457 $-1 #
edge $-1 $659 0 $554 1.2 $544 $660 forward 7 unknown #
coedge $-1 $656 $653 $545 $614 forward $608 $-1 #
edge $-1 $615 1.0870933782787992e-015 $659 3.1415926535897927 $545 $661 forward 7 unknown #
vertex $-1 $658 $662 #
straight-curve $-1 -12 0 0.29999999999999999 0 0 1 I I #
coedge $-1 $548 $548 $663 $664 reversed $460 $-1 #
coedge $-1 $665 $666 $548 $619 forward $667 $-1 #
edge $-1 $668 0 $669 3.1415926535897931 $548 $670 forward 7 unknown #
edge $-1 $562 0 $560 3.1415926535897931 $549 $671 forward 7 unknown #
ellipse-curve $-1 -6.5407377259755632 6.5407377259755632 1.5 0 0 1 0 -1 0 1 I I #
ellipse-curve $-1 -1.3322676295501878e-015 1.7763568394002505e-015 1.5 0 0 1 -11.999999999999998 -3.067806804234275e-016 0 1 I I #
point $-1 12 -1.4695761589768238e-015 1.5 #
point $-1 -12 1.469576158976823e-015 1.5 #
face $-1 $672 $667 $2 $-1 $673 forward single #
cone-surface $-1 -6.5407377259755632 6.5407377259755632 0 0 0 1 0 1 0 1 I I 0 1 1 forward I I I I #
point $-1 -6.5407377259755632 5.5407377259755632 1.5 #
point $-1 -6.5407377259755632 7.5407377259755632 1.5 #
coedge $-1 $674 $565 $569 $635 reversed $631 $-1 #
coedge $-1 $565 $674 $568 $634 forward $631 $-1 #
loop $-1 $-1 $630 $650 #
ellipse-curve $-1 0 0 0.29999999999999993 0 0 1 2.0871271770841806e-013 10.999999999999996 0 1 I I #
coedge $-1 $569 $568 $675 $676 reversed $570 $-1 #
edge $-1 $677 -1.1842378929329677e-014 $481 1.5707963267948652 $568 $678 forward 7 unknown #
edge $-1 $679 -3.750704631827377e-031 $483 1.5707963267948764 $569 $680 forward 7 unknown #
face $-1 $382 $570 $2 $-1 $681 forward single #
straight-curve $-1 3.9032294321497423 -5.8831284194720759 1.5 0.70710678118654768 0.70710678118654735 0 I I #
straight-curve $-1 3.1433239489141407 6.3218600547768231 1.5 -0.9659258262890682 0.25881904510252113 0 I I #
coedge $-1 $591 $600 $584 $640 forward $588 $-1 #
edge $-1 $641 0 $643 2.7999999999999998 $639 $682 forward 7 unknown #
vertex $-1 $601 $683 #
straight-curve $-1 -7.0465533810638821 -0.43873163530475057 1 0 0 1 I I #
vertex $-1 $592 $684 #
straight-curve $-1 -6.3218600547768231 -3.143323948914142 1.5 -0.9659258262890682 -0.25881904510252085 0 I I #
straight-curve $-1 -6.3218600547768231 -3.143323948914142 1 0 0 1 I I #
point $-1 -6.3218600547768222 -3.1433239489141416 1 #
point $-1 -7.0465533810638821 -0.43873163530475079 1 #
straight-curve $-1 -8.4954421204974846 -0.82696020295853234 1.5 0.9659258262890682 0.25881904510252113 0 I I #
straight-curve $-1 -7.0465533810638821 -0.43873163530475079 1 0.25881904510252102 -0.9659258262890682 0 I I #
face $-1 $636 $631 $2 $-1 $685 forward single #
loop $-1 $686 $687 $607 #
plane-surface $-1 0 0 0 0 0 1 -1 0 0 forward_v I I I I #
coedge $-1 $613 $688 $689 $690 forward $608 $-1 #
coedge $-1 $689 $610 $611 $658 forward $542 $-1 #
coedge $-1 $610 $689 $691 $692 reversed $542 $-1 #
coedge $-1 $688 $613 $610 $657 reversed $608 $-1 #
edge $-1 $693 0 $659 1.5707963267949012 $610 $694 forward 7 unknown #
edge $-1 $659 0 $615 3.1415926535897944 $611 $695 forward 7 unknown #
vertex $-1 $658 $696 #
straight-curve $-1 12 -1.4695276245868527e-015 0.29999999999999999 0 0 1 I I #
ellipse-curve $-1 0 0 0.29999999999999999 0 0 -1 -11.999999999999998 -1.6759385901857571e-013 0 1 I I #
point $-1 -11.999999999999998 -1.5454873847923012e-013 0.29999999999999999 #
coedge $-1 $697 $698 $617 $664 forward $699 $-1 #
edge $-1 $669 0 $668 3.1415926535897931 $617 $700 forward 7 unknown #
coedge $-1 $701 $618 $698 $702 forward $667 $-1 #
coedge $-1 $618 $701 $697 $703 reversed $667 $-1 #
loop $-1 $-1 $665 $625 #
vertex $-1 $664 $704 #
vertex $-1 $664 $705 #
ellipse-curve $-1 0 0 1.5 0 0 1 4 0 0 1 I I #
ellipse-curve $-1 -6.5407377259755632 6.5407377259755632 1.5 0 0 1 0 1 0 1 I I #
face $-1 $706 $699 $2 $-1 $707 forward single #
cone-surface $-1 0 0 1.5 0 0 1 -4 0 0 1 I I 0 1 4 forward I I I I #
coedge $-1 $630 $629 $708 $709 reversed $631 $-1 #
coedge $-1 $708 $708 $633 $676 forward $686 $-1 #
edge $-1 $679 0 $677 3.1415926534753345 $675 $710 forward 7 unknown #
vertex $-1 $676 $711 #
ellipse-curve $-1 1.1612036497418735e-013 11.300000000000001 0.30000000000000399 -1 -3.086411757807697e-013 3.7494794856180031e-013 -1.1248438456853997e-013 -5.3290705182007514e-015 -0.30000000000000399 1 I I #
vertex $-1 $676 $712 #
ellipse-curve $-1 -8.8605435094596409e-014 -11.300000000000001 0.30000000000000426 1 3.7957572381410375e-013 3.0455704956116951e-013 9.1367114868351486e-014 1.7763568394002505e-015 -0.30000000000000426 1 I I #
torus-surface $-1 0 0 0.29999999999999999 0 0 -1 11.299999999999997 0.29999999999999999 -0.0029531263196626574 -0.99999563951296322 0 forward_v I I I I #
straight-curve $-1 -7.0465533810638821 -0.43873163530475068 1.5 0.25881904510252107 -0.9659258262890682 0 I I #
point $-1 -7.0465533810638821 -0.43873163530475068 1.5 #
point $-1 -6.3218600547768231 -3.1433239489141416 1.5 #
torus-surface $-1 0 0 0.29999999999999999 0 0 -1 11.299999999999997 0.29999999999999999 0.0029531263196623356 0.99999563951296322 0 forward_v I I I I #
loop $-1 $-1 $708 $607 #
coedge $-1 $691 $691 $688 $713 forward $651 $-1 #
coedge $-1 $653 $656 $687 $713 reversed $608 $-1 #
coedge $-1 $655 $654 $653 $690 reversed $542 $-1 #
edge $-1 $714 7.2334162448181726e-027 $615 1.570796326794899 $689 $715 forward 7 unknown #
coedge $-1 $687 $687 $655 $692 forward $651 $-1 #
edge $-1 $693 0 $714 3.1415926535897931 $691 $716 forward 7 unknown #
vertex $-1 $692 $717 #
ellipse-curve $-1 11.699999999999998 9.0522887141032975e-014 0.30000000000000038 2.7955843165413864e-013 -1 2.8922981846339521e-013 -1.7763568394002505e-015 -8.6768945539019165e-014 -0.30000000000000038 1 I I #
ellipse-curve $-1 0 0 0.29999999999999999 0 0 -1 11.999999999999998 1.7439041663727458e-013 0 1 I I #
point $-1 11.999999999999998 1.7439041663727458e-013 0.29999999999999999 #
coedge $-1 $718 $663 $666 $703 forward $699 $-1 #
coedge $-1 $663 $718 $665 $702 reversed $699 $-1 #
loop $-1 $-1 $697 $672 #
ellipse-curve $-1 0 0 1.5 0 0 1 -4 0 0 1 I I #
coedge $-1 $666 $665 $719 $720 reversed $667 $-1 #
edge $-1 $669 0 $721 1 $698 $722 forward 7 unknown #
edge $-1 $668 0 $723 1 $697 $724 forward 7 unknown #
point $-1 4 0 1.5 #
point $-1 -4 0 1.5 #
face $-1 $725 $726 $2 $-1 $727 forward single #
cone-surface $-1 0 0 1.5 0 0 1 -4 0 0 1 I I 0 1 4 forward I I I I #
coedge $-1 $675 $675 $674 $709 forward $686 $-1 #
edge $-1 $677 -4.4458045899155062e-016 $679 3.1415926534753371 $708 $728 forward 7 unknown #
ellipse-curve $-1 -6.4668714827575968e-010 0 0 0 0 1 6.4668990995553344e-010 -11.299999999999999 0 1 I I #
point $-1 8.659739592076221e-015 11.299999999999999 0 #
point $-1 2.7616797737550769e-015 -11.299999999999999 0 #
edge $-1 $714 -6.8855177969540975e-016 $693 3.1415926535897927 $687 $729 forward 7 unknown #
vertex $-1 $692 $730 #
ellipse-curve $-1 -11.699999999999998 -8.6790502331989991e-014 0.30000000000000104 -2.6934452228861941e-013 1 2.9885421838100969e-013 1.7763568394002505e-015 8.9656265514303677e-014 -0.30000000000000104 1 I I #
ellipse-curve $-1 0 8.8817841970012523e-016 0 0 0 -1 11.699999999999996 2.8657631823136837e-015 0 1 I I #
point $-1 11.699999999999996 3.753941602013809e-015 0 #
coedge $-1 $698 $697 $731 $732 reversed $699 $-1 #
coedge $-1 $731 $731 $701 $720 forward $726 $-1 #
edge $-1 $723 0 $721 3.1415926535897931 $719 $733 forward 7 unknown #
vertex $-1 $732 $734 #
straight-curve $-1 -4 0 1.5 0 0 1 I I #
vertex $-1 $732 $735 #
straight-curve $-1 4 -4.898425415289509e-016 1.5 0 0 1 I I #
face $-1 $736 $737 $2 $-1 $738 reversed single #
loop $-1 $739 $719 $706 #
plane-surface $-1 0 0 2.5 0 0 1 -1 0 0 forward_v I I I I #
ellipse-curve $-1 6.4668048693761193e-010 8.8817841970012523e-016 0 0 0 1 -6.4667685095720628e-010 11.299999999999994 0 1 I I #
ellipse-curve $-1 -1.3322676295501878e-015 0 0 0 0 -1 -11.699999999999994 2.8657631823136845e-015 0 1 I I #
point $-1 -11.699999999999996 -5.1902926401226052e-015 0 #
coedge $-1 $719 $719 $718 $732 forward $726 $-1 #
edge $-1 $721 0 $723 3.1415926535897931 $731 $740 forward 7 unknown #
ellipse-curve $-1 0 1.1102230246251565e-016 2.5 0 0 1 4 -1.1102230246251565e-016 0 1 I I #
point $-1 -4 0 2.5 #
point $-1 4 0 2.5 #
face $-1 $741 $742 $2 $-1 $743 reversed single #
loop $-1 $-1 $744 $725 #
cone-surface $-1 0 0 2.5 0 0 -1 -0.5 0 0 1 I I 0 1 0.5 forward I I I I #
loop $-1 $-1 $745 $706 #
ellipse-curve $-1 -2.2204460492503131e-016 0 2.5 0 0 1 -4 0 0 1 I I #
face $-1 $489 $746 $2 $-1 $747 reversed single #
loop $-1 $-1 $748 $736 #
cone-surface $-1 0 0 2.5 0 0 -1 -0.5 0 0 1 I I 0 1 0.5 forward I I I I #
coedge $-1 $749 $750 $751 $752 forward $737 $-1 #
coedge $-1 $753 $753 $750 $754 forward $739 $-1 #
loop $-1 $-1 $755 $741 #
plane-surface $-1 0 0 -2.5 0 0 -1 -1 0 0 forward_v I I I I #
coedge $-1 $756 $757 $758 $759 forward $742 $-1 #
coedge $-1 $758 $744 $755 $760 forward $737 $-1 #
coedge $-1 $744 $758 $745 $754 reversed $737 $-1 #
coedge $-1 $757 $756 $744 $752 reversed $742 $-1 #
edge $-1 $761 0 $762 5 $751 $763 forward 7 unknown #
coedge $-1 $745 $745 $757 $764 forward $739 $-1 #
edge $-1 $761 0 $765 3.1415926535897931 $745 $766 forward 7 unknown #
coedge $-1 $767 $767 $749 $760 reversed $746 $-1 #
coedge $-1 $751 $748 $767 $768 forward $742 $-1 #
coedge $-1 $748 $751 $753 $764 reversed $742 $-1 #
coedge $-1 $750 $749 $748 $759 reversed $737 $-1 #
edge $-1 $765 0 $769 5 $748 $770 forward 7 unknown #
edge $-1 $762 0 $769 3.1415926535897931 $755 $771 forward 7 unknown #
vertex $-1 $764 $772 #
vertex $-1 $768 $773 #
straight-curve $-1 0.5 6.1230317691118863e-017 2.5 0 0 -1 I I #
edge $-1 $765 0 $761 3.1415926535897931 $753 $774 forward 7 unknown #
vertex $-1 $764 $775 #
ellipse-curve $-1 0 0 2.5 0 0 -1 0.5 0 0 1 I I #
coedge $-1 $755 $755 $756 $768 reversed $746 $-1 #
edge $-1 $769 0 $762 3.1415926535897931 $767 $776 forward 7 unknown #
vertex $-1 $768 $777 #
straight-curve $-1 -0.5 0 2.5 0 0 -1 I I #
ellipse-curve $-1 0 0 -2.5 0 0 -1 0.5 0 0 1 I I #
point $-1 0.5 0 2.5 #
point $-1 0.5 0 -2.5 #
ellipse-curve $-1 0 0 2.5 0 0 -1 -0.5 0 0 1 I I #
point $-1 -0.5 0 2.5 #
ellipse-curve $-1 0 0 -2.5 0 0 -1 -0.5 0 0 1 I I #
point $-1 -0.5 0 -2.5 #
End-of-ACIS-data 