600 0 1 0           
100 GICL ACIS Healer - Source: /gicl/data5/repository/PTC/V18/bboxrev2/boombox/cd_spindle_.prt.sat - 6 0 18 ACIS 6.0.3 Solaris 24 Sat Apr 13 22:44:15 2002 
1 9.999999999999999547e-07 1.000000000000000036e-10 
body $-1 $1 $-1 $-1 #
lump $-1 $-1 $2 $0 #
shell $-1 $-1 $-1 $3 $-1 $1 #
face $-1 $4 $5 $2 $-1 $6 reversed single #
face $-1 $7 $8 $2 $-1 $6 reversed single #
loop $-1 $-1 $9 $3 #
sphere-surface $-1 0 0 -8.878679656440363388 1.5 1 0 0 0 0 1 forward_v I I I I #
face $-1 $10 $11 $2 $-1 $12 forward single #
loop $-1 $-1 $13 $4 #
coedge $-1 $14 $15 $16 $17 reversed $5 $-1 #
face $-1 $18 $19 $2 $-1 $20 forward single #
loop $-1 $-1 $21 $7 #
cone-surface $-1 0 0 -10 0 0 -1 0 -1.000000000000001776 0 1 I I -0.7071067811865481278 0.7071067811865469066 1.000000000000001776 forward I I I I #
coedge $-1 $16 $22 $23 $24 forward $8 $-1 #
coedge $-1 $15 $9 $25 $26 reversed $5 $-1 #
coedge $-1 $9 $14 $22 $27 forward $5 $-1 #
coedge $-1 $22 $13 $9 $17 forward $8 $-1 #
edge $-1 $28 0 $29 2.356194490192343949 $9 $30 forward 7 unknown #
face $-1 $31 $32 $2 $-1 $33 forward single #
loop $-1 $-1 $34 $10 #
cone-surface $-1 0 0 -10.43630681963119144 0 0 1 0 -2.121320343559642385 0 1 I I 0 1 2.121320343559642385 forward I I I I #
coedge $-1 $35 $36 $37 $38 forward $11 $-1 #
coedge $-1 $13 $16 $15 $27 reversed $8 $-1 #
coedge $-1 $36 $35 $13 $24 reversed $11 $-1 #
edge $-1 $39 -3.141592653589793116 $28 -2.449212707644754023e-16 $13 $40 forward 7 unknown #
coedge $-1 $41 $42 $14 $26 forward $43 $-1 #
edge $-1 $39 -3.141592653589793116 $28 2.449212707644754023e-16 $14 $44 reversed 7 unknown #
edge $-1 $39 0 $29 2.356194490192344393 $15 $45 forward 7 unknown #
vertex $-1 $26 $46 #
vertex $-1 $27 $47 #
ellipse-curve $-1 0 0 -8.878679656440363388 -1 -2.449212707644754516e-16 0 2.597782371215809336e-16 -1.060660171779822525 -1.060660171779820971 1 I I #
face $-1 $48 $49 $2 $-1 $50 forward single #
loop $-1 $-1 $51 $18 #
cone-surface $-1 0 0 -8.5 0 0 -1 0 -1.000000000000001776 0 1 I I -0.7071067811865481278 0.7071067811865469066 0.9999999999999992228 forward I I I I #
coedge $-1 $52 $53 $54 $55 forward $19 $-1 #
coedge $-1 $23 $21 $41 $56 forward $11 $-1 #
coedge $-1 $21 $23 $42 $57 reversed $11 $-1 #
coedge $-1 $53 $52 $21 $38 reversed $19 $-1 #
edge $-1 $58 -3.141592653589793116 $59 -2.449212707644754516e-16 $37 $60 reversed 7 unknown #
vertex $-1 $27 $61 #
ellipse-curve $-1 0 0 -9.939339828220184359 0 0 -1 0 -1.060660171779818306 0 1 I I #
coedge $-1 $62 $25 $35 $56 reversed $43 $-1 #
coedge $-1 $25 $62 $36 $57 forward $43 $-1 #
loop $-1 $-1 $25 $63 #
ellipse-curve $-1 0 0 -9.939339828220184359 0 0 -1 0 -1.060660171779818306 0 1 I I #
ellipse-curve $-1 0 0 -8.878679656440363388 1 1.224606353822377258e-16 0 -1.298891185607904668e-16 1.060660171779822525 -1.060660171779820971 1 I I #
point $-1 2.597782371215809336e-16 -1.060660171779822525 -9.939339828220184359 #
point $-1 3.374236624099809239e-32 -2.755364296100348831e-16 -7.378679656440363388 #
face $-1 $64 $65 $2 $-1 $66 forward single #
loop $-1 $-1 $67 $31 #
cone-surface $-1 0 0 -10.43630681963119144 0 0 1 0 -8 0 1 I I 0 1 8 forward I I I I #
coedge $-1 $68 $69 $70 $71 forward $32 $-1 #
coedge $-1 $37 $34 $72 $73 forward $19 $-1 #
coedge $-1 $34 $37 $74 $75 reversed $19 $-1 #
coedge $-1 $69 $68 $34 $55 reversed $32 $-1 #
edge $-1 $76 -3.141592653589793116 $77 -2.449212707644754516e-16 $54 $78 forward 7 unknown #
edge $-1 $59 -3.140184917367552799e-16 $28 1.499999999999999778 $41 $79 forward 7 unknown #
edge $-1 $58 -3.140184917367552799e-16 $39 1.499999999999999778 $42 $80 forward 7 unknown #
vertex $-1 $75 $81 #
vertex $-1 $73 $82 #
ellipse-curve $-1 0 0 -8.878679656440361612 0 0 1 0 -2.121320343559642385 0 1 I I #
point $-1 -1.298891185607904668e-16 1.060660171779822525 -9.939339828220184359 #
coedge $-1 $42 $41 $83 $84 reversed $43 $-1 #
face $-1 $-1 $43 $2 $-1 $12 forward single #
face $-1 $85 $86 $2 $-1 $87 reversed single #
loop $-1 $88 $89 $48 #
plane-surface $-1 0 0 1 0 0 -1 0 -1 0 forward_v I I I I #
coedge $-1 $90 $91 $92 $93 reversed $49 $-1 #
coedge $-1 $54 $51 $94 $95 forward $32 $-1 #
coedge $-1 $51 $54 $96 $97 reversed $32 $-1 #
coedge $-1 $98 $99 $51 $71 reversed $49 $-1 #
edge $-1 $100 -3.141592653589793116 $101 -0 $70 $102 reversed 7 unknown #
coedge $-1 $103 $83 $52 $73 reversed $104 $-1 #
edge $-1 $77 0 $59 1.5 $72 $105 forward 7 unknown #
coedge $-1 $83 $103 $53 $75 forward $104 $-1 #
edge $-1 $76 0 $58 1.5 $74 $106 forward 7 unknown #
vertex $-1 $97 $107 #
vertex $-1 $95 $108 #
ellipse-curve $-1 0 0 -7.378679656440361612 -0 -0 -1 0 -2.121320343559642385 0 1 I I #
straight-curve $-1 5.195564742431611769e-16 -2.121320343559641941 -8.878679656440361612 -1.731854914143872562e-16 0.7071067811865481278 -0.7071067811865470176 I I #
straight-curve $-1 -2.597782371215805885e-16 2.121320343559641941 -8.878679656440361612 8.65927457071936281e-17 -0.7071067811865481278 -0.7071067811865470176 I I #
point $-1 -2.597782371215806378e-16 2.121320343559642385 -8.878679656440361612 #
point $-1 5.195564742431612755e-16 -2.121320343559642385 -8.878679656440361612 #
coedge $-1 $72 $74 $62 $84 forward $104 $-1 #
edge $-1 $58 -3.141592653589793116 $59 2.449212707644754516e-16 $83 $109 forward 7 unknown #
face $-1 $110 $111 $2 $-1 $87 reversed single #
loop $-1 $-1 $112 $64 #
cone-surface $-1 8.934813893173881638 2.394076167198320171 0 0 0 1 0 1.000000000000001776 0 1 I I 0 1 1 forward I I I I #
loop $-1 $113 $114 $48 #
coedge $-1 $115 $115 $116 $117 forward $65 $-1 #
coedge $-1 $118 $67 $119 $120 reversed $49 $-1 #
coedge $-1 $67 $121 $122 $123 reversed $49 $-1 #
coedge $-1 $124 $125 $67 $93 forward $126 $-1 #
edge $-1 $127 0.9613039315611645597 $128 2.70388749762692715 $67 $129 forward 7 unknown #
coedge $-1 $130 $131 $68 $95 reversed $132 $-1 #
edge $-1 $101 5.024295867788084478e-15 $77 8.313708498984759387 $94 $133 forward 7 unknown #
coedge $-1 $131 $130 $69 $97 forward $132 $-1 #
edge $-1 $100 5.024295867788084478e-15 $76 8.313708498984759387 $96 $134 forward 7 unknown #
coedge $-1 $121 $70 $135 $136 forward $49 $-1 #
coedge $-1 $70 $118 $137 $138 forward $49 $-1 #
vertex $-1 $139 $140 #
vertex $-1 $138 $141 #
ellipse-curve $-1 0 0 -1.500000000000012434 0 0 1 0 -8 0 1 I I #
coedge $-1 $74 $72 $131 $142 reversed $104 $-1 #
loop $-1 $-1 $83 $143 #
straight-curve $-1 5.195564742431612755e-16 -2.121320343559642385 -7.378679656440361612 0 0 -1 I I #
straight-curve $-1 -2.597782371215806378e-16 2.121320343559642385 -7.378679656440361612 0 0 -1 I I #
point $-1 -2.597782371215806378e-16 2.121320343559642385 -7.378679656440361612 #
point $-1 5.195564742431612755e-16 -2.121320343559642385 -7.378679656440361612 #
ellipse-curve $-1 0 0 -8.878679656440361612 0 0 1 0 -2.121320343559642385 0 1 I I #
face $-1 $144 $145 $2 $-1 $146 forward single #
loop $-1 $-1 $147 $85 #
coedge $-1 $116 $148 $149 $150 reversed $86 $-1 #
loop $-1 $151 $152 $48 #
coedge $-1 $153 $153 $154 $155 forward $88 $-1 #
coedge $-1 $89 $89 $156 $157 forward $65 $-1 #
coedge $-1 $158 $112 $89 $117 reversed $86 $-1 #
edge $-1 $159 -3.141592653589793116 $160 -0 $89 $161 reversed 7 unknown #
coedge $-1 $99 $90 $162 $163 reversed $49 $-1 #
coedge $-1 $164 $165 $90 $120 forward $166 $-1 #
edge $-1 $167 0.6094923952337319983 $127 0.9613039315611645597 $90 $168 forward 7 unknown #
coedge $-1 $91 $98 $169 $170 reversed $49 $-1 #
coedge $-1 $171 $172 $91 $123 forward $173 $-1 #
edge $-1 $128 2.70388749762692715 $174 3.055699033954359933 $91 $175 forward 7 unknown #
coedge $-1 $176 $92 $177 $178 reversed $126 $-1 #
coedge $-1 $92 $179 $180 $181 reversed $126 $-1 #
loop $-1 $-1 $182 $48 #
vertex $-1 $120 $183 #
vertex $-1 $123 $184 #
ellipse-curve $-1 0 0 1 -0 -0 1 0 -8 0 1 I I #
coedge $-1 $96 $94 $185 $139 reversed $132 $-1 #
coedge $-1 $94 $96 $103 $142 forward $132 $-1 #
loop $-1 $-1 $131 $186 #
straight-curve $-1 1.959370166115802035e-15 -7.999999999999993783 -1.5 -1.731854914143870097e-16 0.7071067811865472397 -0.7071067811865477948 I I #
straight-curve $-1 -9.796850830579010177e-16 7.999999999999993783 -1.5 8.659274570719350484e-17 -0.7071067811865472397 -0.7071067811865477948 I I #
coedge $-1 $185 $187 $98 $136 reversed $188 $-1 #
edge $-1 $100 -1.243449787580175325e-14 $189 2.5 $135 $190 forward 7 unknown #
coedge $-1 $191 $185 $99 $138 reversed $188 $-1 #
edge $-1 $192 0 $101 2.500000000000012434 $137 $193 forward 7 unknown #
edge $-1 $100 -3.141592653589793116 $101 0 $185 $194 forward 7 unknown #
point $-1 -9.796850830579016094e-16 7.999999999999999112 -1.500000000000012434 #
point $-1 0 -7.999999999999999112 -1.500000000000012434 #
edge $-1 $76 -3.141592653589793116 $77 2.449212707644754516e-16 $131 $195 reversed 7 unknown #
face $-1 $63 $104 $2 $-1 $20 forward single #
face $-1 $196 $197 $2 $-1 $198 reversed single #
loop $-1 $199 $200 $110 #
plane-surface $-1 0 0 1.5 0 0 1 -1 0 0 forward_v I I I I #
coedge $-1 $156 $201 $158 $202 reversed $111 $-1 #
coedge $-1 $112 $158 $200 $203 forward $86 $-1 #
coedge $-1 $201 $156 $112 $150 forward $111 $-1 #
edge $-1 $160 0 $204 0.5 $149 $205 forward 7 unknown #
loop $-1 $126 $206 $48 #
coedge $-1 $207 $207 $208 $209 forward $113 $-1 #
coedge $-1 $114 $114 $210 $211 forward $88 $-1 #
coedge $-1 $212 $213 $114 $155 reversed $197 $-1 #
edge $-1 $214 -3.141592653589793116 $215 -0 $114 $216 reversed 7 unknown #
coedge $-1 $149 $147 $115 $157 reversed $111 $-1 #
edge $-1 $160 -0 $159 3.141592653589793116 $115 $217 reversed 7 unknown #
coedge $-1 $148 $116 $147 $202 forward $86 $-1 #
vertex $-1 $157 $218 #
vertex $-1 $157 $219 #
ellipse-curve $-1 8.934813893173881638 2.394076167198320171 1 0 0 -1 0 1.000000000000001776 0 1 I I #
coedge $-1 $220 $221 $118 $163 forward $126 $-1 #
edge $-1 $192 0 $167 0.6094923952337319983 $118 $222 forward 7 unknown #
coedge $-1 $223 $119 $224 $225 reversed $166 $-1 #
coedge $-1 $119 $223 $226 $227 reversed $166 $-1 #
loop $-1 $-1 $164 $228 #
vertex $-1 $163 $229 #
ellipse-curve $-1 0 0 1 -0 -0 1 0 -8 0 1 I I #
coedge $-1 $230 $231 $121 $170 forward $126 $-1 #
edge $-1 $174 3.055699033954359933 $189 3.141592653589793116 $121 $232 forward 7 unknown #
coedge $-1 $233 $122 $234 $235 reversed $173 $-1 #
coedge $-1 $122 $233 $236 $237 reversed $173 $-1 #
loop $-1 $-1 $171 $238 #
vertex $-1 $123 $239 #
ellipse-curve $-1 0 0 1 -0 -0 1 0 -8 0 1 I I #
coedge $-1 $231 $124 $240 $241 reversed $126 $-1 #
coedge $-1 $236 $242 $124 $178 forward $243 $-1 #
edge $-1 $244 -4.209999999999999964 $128 -3.666547467006085803 $124 $245 forward 7 unknown #
coedge $-1 $125 $220 $246 $247 reversed $126 $-1 #
coedge $-1 $248 $224 $125 $181 forward $249 $-1 #
edge $-1 $127 4.416547467006085803 $250 4.959999999999999076 $125 $251 forward 7 unknown #
coedge $-1 $252 $253 $254 $255 reversed $126 $-1 #
point $-1 6.559509619918894252 -4.579610632596561537 1 #
point $-1 3.390896650919892341 7.245813957229391811 1 #
coedge $-1 $137 $135 $130 $139 forward $188 $-1 #
face $-1 $143 $132 $2 $-1 $33 forward single #
coedge $-1 $135 $256 $230 $257 reversed $188 $-1 #
loop $-1 $-1 $187 $258 #
vertex $-1 $136 $259 #
straight-curve $-1 -9.796850830579018066e-16 8 -1.5 0 0 1 I I #
coedge $-1 $256 $137 $221 $260 reversed $188 $-1 #
vertex $-1 $260 $261 #
straight-curve $-1 0 -8 1 0 0 -1 I I #
ellipse-curve $-1 0 0 -1.500000000000012434 0 0 1 0 -8 0 1 I I #
ellipse-curve $-1 0 0 -7.378679656440361612 -0 -0 -1 0 -2.121320343559642385 0 1 I I #
face $-1 $262 $263 $2 $-1 $198 reversed single #
loop $-1 $-1 $213 $144 #
cone-surface $-1 -2.394076167198319283 -8.934813893173881638 0 0 0 1 0 1.000000000000001776 0 1 I I 0 1 1 forward I I I I #
loop $-1 $264 $265 $110 #
coedge $-1 $266 $266 $148 $203 reversed $145 $-1 #
coedge $-1 $147 $149 $266 $267 forward $111 $-1 #
edge $-1 $159 0 $268 0.5 $147 $269 forward 7 unknown #
edge $-1 $268 -3.141592653589793116 $204 0 $200 $270 forward 7 unknown #
vertex $-1 $267 $271 #
straight-curve $-1 8.934813893173881638 3.394076167198320171 1 0 0 1 I I #
coedge $-1 $272 $272 $273 $274 forward $151 $-1 #
coedge $-1 $152 $152 $275 $276 forward $113 $-1 #
coedge $-1 $277 $278 $152 $209 reversed $279 $-1 #
edge $-1 $280 -3.141592653589793116 $281 -1.224646799147359617e-16 $152 $282 forward 7 unknown #
coedge $-1 $283 $284 $153 $211 reversed $263 $-1 #
edge $-1 $215 -0 $214 3.141592653589793116 $153 $285 reversed 7 unknown #
coedge $-1 $286 $154 $284 $287 forward $197 $-1 #
coedge $-1 $154 $286 $283 $288 reversed $197 $-1 #
vertex $-1 $211 $289 #
vertex $-1 $211 $290 #
ellipse-curve $-1 -2.394076167198319283 -8.934813893173881638 1 0 0 -1 0 1.000000000000001776 0 1 I I #
ellipse-curve $-1 8.934813893173881638 2.394076167198320171 1 0 0 -1 0 1.000000000000001776 0 1 I I #
point $-1 8.934813893173881638 1.394076167198320171 1 #
point $-1 8.934813893173881638 3.394076167198320171 1 #
coedge $-1 $179 $162 $291 $292 reversed $126 $-1 #
coedge $-1 $162 $252 $191 $260 forward $126 $-1 #
ellipse-curve $-1 0 0 1 -0 -0 1 0 -8 0 1 I I #
coedge $-1 $165 $164 $293 $294 reversed $166 $-1 #
coedge $-1 $180 $295 $164 $225 forward $249 $-1 #
edge $-1 $296 3.459999999999999964 $127 4.416547467006085803 $164 $297 forward 7 unknown #
coedge $-1 $298 $291 $165 $227 forward $299 $-1 #
edge $-1 $167 -3.666547467006087135 $300 -2.710000000000000409 $165 $301 forward 7 unknown #
face $-1 $302 $166 $2 $-1 $66 reversed single #
point $-1 4.579610632596561537 -6.55950961991889514 1 #
coedge $-1 $253 $169 $187 $257 forward $126 $-1 #
coedge $-1 $169 $176 $303 $304 reversed $126 $-1 #
ellipse-curve $-1 0 0 1 -0 -0 1 0 -8 0 1 I I #
coedge $-1 $172 $171 $305 $306 reversed $173 $-1 #
coedge $-1 $303 $307 $171 $235 forward $308 $-1 #
edge $-1 $309 3.459999999999999964 $174 4.416547467006086691 $171 $310 forward 7 unknown #
coedge $-1 $311 $177 $172 $237 forward $243 $-1 #
edge $-1 $128 -3.666547467006085803 $312 -2.709999999999999076 $172 $313 forward 7 unknown #
face $-1 $314 $173 $2 $-1 $66 reversed single #
point $-1 0.6863043373104996681 7.970507283516450769 1 #
coedge $-1 $315 $316 $176 $241 forward $317 $-1 #
edge $-1 $318 -0.6999999999999996225 $244 2.099999999999999201 $176 $319 forward 7 unknown #
coedge $-1 $177 $320 $315 $321 reversed $243 $-1 #
loop $-1 $-1 $242 $322 #
vertex $-1 $241 $323 #
straight-curve $-1 2.441924336686308372 3.7042010655334483 1 -0.258819045102521017 -0.9659258262890682012 -0 I I #
coedge $-1 $324 $325 $179 $247 forward $326 $-1 #
edge $-1 $250 -0.6999999999999986233 $327 2.099999999999999645 $179 $328 forward 7 unknown #
coedge $-1 $329 $180 $325 $330 forward $249 $-1 #
loop $-1 $-1 $295 $331 #
vertex $-1 $181 $332 #
straight-curve $-1 3.436538956566620673 -1.456639969244288402 1 0.7071067811865474617 -0.7071067811865475727 0 I I #
coedge $-1 $221 $182 $333 $334 reversed $126 $-1 #
coedge $-1 $182 $230 $335 $336 reversed $126 $-1 #
coedge $-1 $337 $338 $182 $255 forward $339 $-1 #
edge $-1 $340 -0.7000000000000000666 $341 2.100000000000000533 $182 $342 forward 7 unknown #
coedge $-1 $187 $191 $343 $344 reversed $188 $-1 #
edge $-1 $189 -3.141592653589793116 $345 -1.484902707159463153 $187 $346 forward 7 unknown #
face $-1 $186 $188 $2 $-1 $50 forward single #
point $-1 -9.796850830579018066e-16 8 1 #
edge $-1 $347 -1.133091170832030592 $192 0 $191 $348 forward 7 unknown #
point $-1 0 -8 1 #
face $-1 $349 $350 $2 $-1 $351 forward single #
loop $-1 $-1 $284 $196 #
loop $-1 $352 $353 $110 #
coedge $-1 $354 $354 $286 $355 reversed $199 $-1 #
coedge $-1 $200 $200 $201 $267 reversed $145 $-1 #
edge $-1 $204 0 $268 3.141592653589793116 $266 $356 forward 7 unknown #
vertex $-1 $267 $357 #
straight-curve $-1 8.934813893173881638 1.394076167198320171 1 0 0 1 I I #
ellipse-curve $-1 8.934813893173881638 2.394076167198320171 1.5 0 0 1 0 1.000000000000001776 0 1 I I #
point $-1 8.934813893173881638 3.394076167198320171 1.5 #
coedge $-1 $206 $206 $358 $359 forward $151 $-1 #
coedge $-1 $360 $361 $206 $274 reversed $362 $-1 #
edge $-1 $363 -3.141592653589793116 $364 -0 $206 $365 reversed 7 unknown #
coedge $-1 $366 $367 $207 $276 reversed $368 $-1 #
edge $-1 $281 -1.224646799147359617e-16 $280 3.141592653589793116 $207 $369 forward 7 unknown #
coedge $-1 $370 $208 $367 $371 reversed $279 $-1 #
coedge $-1 $208 $370 $366 $372 forward $279 $-1 #
loop $-1 $-1 $278 $373 #
vertex $-1 $276 $374 #
vertex $-1 $276 $375 #
ellipse-curve $-1 0 0 1 0 0 -1 0 -10.99999999999999645 0 1 I I #
coedge $-1 $376 $210 $213 $288 forward $263 $-1 #
coedge $-1 $210 $376 $212 $287 reversed $263 $-1 #
ellipse-curve $-1 -2.394076167198319283 -8.934813893173881638 1 0 0 -1 0 1.000000000000001776 0 1 I I #
coedge $-1 $213 $212 $265 $355 forward $197 $-1 #
edge $-1 $214 0 $377 0.5 $284 $378 forward 7 unknown #
edge $-1 $215 0 $379 0.5 $283 $380 forward 7 unknown #
point $-1 -2.394076167198319283 -9.934813893173881638 1 #
point $-1 -2.394076167198319283 -7.934813893173882526 1 #
coedge $-1 $226 $381 $220 $292 forward $299 $-1 #
edge $-1 $327 -4.209999999999999964 $167 -3.666547467006087135 $220 $382 forward 7 unknown #
coedge $-1 $383 $384 $223 $294 forward $385 $-1 #
edge $-1 $300 -0.6999999999999999556 $296 2.099999999999999645 $223 $386 forward 7 unknown #
coedge $-1 $224 $329 $383 $387 reversed $249 $-1 #
vertex $-1 $294 $388 #
straight-curve $-1 3.436538956566620673 -1.456639969244288402 1 0.7071067811865474617 -0.7071067811865475727 0 I I #
coedge $-1 $389 $226 $384 $390 forward $299 $-1 #
loop $-1 $-1 $381 $391 #
vertex $-1 $227 $392 #
straight-curve $-1 1.986970055134198443 -3.966869042456531602 1 -0.7071067811865474617 0.7071067811865475727 0 I I #
face $-1 $322 $393 $2 $-1 $394 reversed single #
coedge $-1 $395 $234 $231 $304 forward $308 $-1 #
edge $-1 $174 4.416547467006086691 $318 4.960000000000000853 $231 $396 forward 7 unknown #
coedge $-1 $397 $398 $233 $306 forward $393 $-1 #
edge $-1 $312 -0.6999999999999996225 $309 2.099999999999999201 $233 $399 forward 7 unknown #
coedge $-1 $234 $400 $397 $401 reversed $308 $-1 #
loop $-1 $-1 $307 $402 #
vertex $-1 $306 $403 #
straight-curve $-1 -0.456782260749972524 3.704450022103705109 1 0.258819045102521017 0.9659258262890682012 0 I I #
coedge $-1 $320 $236 $398 $404 forward $243 $-1 #
vertex $-1 $237 $405 #
straight-curve $-1 2.441924336686308372 3.7042010655334483 1 -0.258819045102521017 -0.9659258262890682012 -0 I I #
face $-1 $406 $407 $2 $-1 $408 reversed single #
coedge $-1 $409 $240 $242 $321 forward $317 $-1 #
coedge $-1 $240 $409 $395 $410 reversed $317 $-1 #
loop $-1 $-1 $316 $411 #
vertex $-1 $304 $412 #
straight-curve $-1 1.50310828136087915 8.314268788925719633 1 0.9659258262890682012 -0.258819045102521017 0 I I #
coedge $-1 $242 $311 $413 $414 reversed $243 $-1 #
edge $-1 $244 0 $415 0.5 $242 $416 forward 7 unknown #
face $-1 $411 $243 $2 $-1 $417 reversed single #
point $-1 3.531552516567921796 7.770748794210425636 1 #
coedge $-1 $418 $246 $381 $419 forward $326 $-1 #
coedge $-1 $246 $418 $248 $330 reversed $326 $-1 #
loop $-1 $-1 $325 $420 #
vertex $-1 $247 $421 #
straight-curve $-1 6.44881384442131278 -5.45886435076014731 1 -0.7071067811865475727 -0.7071067811865474617 -0 I I #
coedge $-1 $295 $248 $422 $423 reversed $249 $-1 #
edge $-1 $250 0 $424 0.5 $248 $425 reversed 7 unknown #
face $-1 $228 $249 $2 $-1 $426 reversed single #
point $-1 6.94378859125189507 -4.96388960392956502 1 #
coedge $-1 $427 $428 $252 $334 forward $429 $-1 #
edge $-1 $347 4.416547467006086691 $340 4.959999999999999964 $252 $430 forward 7 unknown #
coedge $-1 $431 $432 $253 $336 forward $433 $-1 #
edge $-1 $341 -4.209999999999999964 $345 -3.666547467006085803 $253 $434 forward 7 unknown #
coedge $-1 $435 $254 $432 $436 forward $339 $-1 #
coedge $-1 $254 $435 $427 $437 reversed $339 $-1 #
loop $-1 $-1 $338 $438 #
vertex $-1 $334 $439 #
vertex $-1 $336 $440 #
straight-curve $-1 -7.95192212578218971 -2.855404438165575431 1 -0.2588190451025211281 0.9659258262890682012 0 I I #
coedge $-1 $441 $442 $256 $344 forward $443 $-1 #
edge $-1 $345 -1.484902707159463153 $347 -1.133091170832030592 $256 $444 forward 7 unknown #
vertex $-1 $344 $445 #
ellipse-curve $-1 0 0 1 -0 -0 1 0 -8 0 1 I I #
vertex $-1 $344 $446 #
ellipse-curve $-1 0 0 1 -0 -0 1 0 -8 0 1 I I #
face $-1 $447 $448 $2 $-1 $351 forward single #
loop $-1 $-1 $449 $262 #
cone-surface $-1 0 0 0 0 0 1 -11.99999999999999822 0 0 1 I I 0 1 12 forward I I I I #
loop $-1 $450 $451 $110 #
coedge $-1 $452 $452 $453 $454 forward $264 $-1 #
coedge $-1 $265 $265 $376 $455 reversed $199 $-1 #
edge $-1 $377 -3.141592653589793116 $379 0 $265 $456 forward 7 unknown #
ellipse-curve $-1 8.934813893173881638 2.394076167198320171 1.5 0 0 1 0 1.000000000000001776 0 1 I I #
point $-1 8.934813893173881638 1.394076167198320171 1.5 #
coedge $-1 $457 $458 $272 $359 reversed $459 $-1 #
edge $-1 $364 -0 $363 3.141592653589793116 $272 $460 reversed 7 unknown #
coedge $-1 $461 $273 $458 $462 forward $362 $-1 #
coedge $-1 $273 $461 $457 $463 reversed $362 $-1 #
loop $-1 $-1 $361 $464 #
vertex $-1 $359 $465 #
vertex $-1 $359 $466 #
ellipse-curve $-1 -6.540737725975563244 6.540737725975563244 1 0 0 -1 0 1.000000000000001776 0 1 I I #
coedge $-1 $467 $275 $278 $372 reversed $368 $-1 #
coedge $-1 $275 $467 $277 $371 forward $368 $-1 #
loop $-1 $-1 $367 $468 #
ellipse-curve $-1 0 0 1 0 0 -1 0 -10.99999999999999645 0 1 I I #
coedge $-1 $278 $277 $469 $470 reversed $279 $-1 #
edge $-1 $471 -5.551115123125782702e-17 $280 0.6999999999999999556 $367 $472 forward 7 unknown #
edge $-1 $473 -5.551115123125782702e-17 $281 0.6999999999999999556 $366 $474 forward 7 unknown #
face $-1 $468 $279 $2 $-1 $475 reversed single #
point $-1 -1.347111479062088602e-15 11 1 #
point $-1 1.347111479062095702e-15 -11 1 #
coedge $-1 $284 $283 $354 $455 forward $263 $-1 #
vertex $-1 $455 $476 #
straight-curve $-1 -2.394076167198319283 -9.934813893173881638 1 0 0 1 I I #
vertex $-1 $455 $477 #
straight-curve $-1 -2.394076167198319283 -7.934813893173881638 1 0 0 1 I I #
coedge $-1 $291 $389 $324 $419 reversed $299 $-1 #
straight-curve $-1 1.986970055134198443 -3.966869042456531602 1 -0.7071067811865474617 0.7071067811865475727 0 I I #
coedge $-1 $478 $293 $295 $387 forward $385 $-1 #
coedge $-1 $293 $478 $298 $390 reversed $385 $-1 #
loop $-1 $-1 $384 $479 #
straight-curve $-1 4.398204178980325452 -5.388153672641492697 1 0.7071067811865475727 0.7071067811865474617 0 I I #
edge $-1 $296 -0 $480 0.5 $383 $481 reversed 7 unknown #
point $-1 5.883128419472074988 -3.903229432149743161 1 #
coedge $-1 $381 $298 $482 $483 reversed $299 $-1 #
edge $-1 $300 -0 $484 0.5 $298 $485 reversed 7 unknown #
face $-1 $420 $299 $2 $-1 $486 reversed single #
point $-1 3.903229432149742273 -5.883128419472075876 1 #
loop $-1 $-1 $398 $302 #
plane-surface $-1 3.143323948914140686 6.321860054776823112 1 -0.258819045102521017 -0.9659258262890682012 0 -0.9659258262890682012 0.258819045102521017 0 forward_v I I I I #
coedge $-1 $400 $303 $316 $410 forward $308 $-1 #
straight-curve $-1 -0.456782260749972524 3.704450022103705109 1 0.258819045102521017 0.9659258262890682012 0 I I #
coedge $-1 $487 $305 $307 $401 forward $393 $-1 #
coedge $-1 $305 $487 $311 $404 reversed $393 $-1 #
straight-curve $-1 2.46717587051179299 6.503033386348587186 1 -0.9659258262890682012 0.258819045102521017 0 I I #
coedge $-1 $307 $395 $488 $489 reversed $308 $-1 #
edge $-1 $309 -0 $490 0.5 $397 $491 reversed 7 unknown #
face $-1 $238 $308 $2 $-1 $492 reversed single #
point $-1 0.4387316353047502338 7.046553381063881183 1 #
edge $-1 $312 -0 $493 0.5 $311 $494 reversed 7 unknown #
point $-1 3.143323948914140242 6.321860054776822224 1 #
face $-1 $438 $433 $2 $-1 $495 reversed single #
loop $-1 $-1 $496 $314 #
plane-surface $-1 -7.046553381063882071 -0.4387316353047507889 1 0.9659258262890682012 0.2588190451025211281 0 0.2588190451025211281 -0.9659258262890682012 0 forward_v I I I I #
coedge $-1 $316 $315 $497 $498 reversed $317 $-1 #
edge $-1 $318 -0 $499 0.5 $395 $500 reversed 7 unknown #
face $-1 $402 $317 $2 $-1 $501 reversed single #
point $-1 0.8269602029585318981 8.495442120497484595 1 #
coedge $-1 $502 $497 $320 $414 forward $503 $-1 #
edge $-1 $415 -4.209999999999999964 $493 -2.709999999999999076 $413 $504 reversed 7 unknown #
vertex $-1 $414 $505 #
straight-curve $-1 3.53155251656792224 7.770748794210425636 1 -0 0 1 I I #
plane-surface $-1 3.53155251656792224 7.770748794210425636 1 0.9659258262890682012 -0.258819045102521017 0 -0.258819045102521017 -0.9659258262890682012 0 forward_v I I I I #
coedge $-1 $325 $324 $506 $507 reversed $326 $-1 #
edge $-1 $327 0 $508 0.5 $381 $509 forward 7 unknown #
face $-1 $331 $326 $2 $-1 $510 reversed single #
point $-1 4.963889603929563243 -6.943788591251896847 1 #
coedge $-1 $506 $511 $329 $423 forward $512 $-1 #
edge $-1 $480 3.459999999999999964 $424 4.959999999999999076 $422 $513 reversed 7 unknown #
vertex $-1 $507 $514 #
straight-curve $-1 6.943788591251895959 -4.963889603929564132 1 0 0 -1 I I #
plane-surface $-1 5.883128419472074988 -3.903229432149743161 1 0.7071067811865475727 0.7071067811865474617 0 0.7071067811865474617 -0.7071067811865475727 0 forward_v I I I I #
coedge $-1 $515 $333 $338 $437 forward $429 $-1 #
coedge $-1 $333 $516 $441 $517 forward $429 $-1 #
loop $-1 $-1 $516 $518 #
straight-curve $-1 -2.97975669581664615 -2.247810052859418484 1 -0.9659258262890682012 -0.2588190451025211281 -0 I I #
coedge $-1 $519 $335 $442 $520 forward $433 $-1 #
coedge $-1 $335 $521 $337 $436 reversed $433 $-1 #
loop $-1 $-1 $432 $406 #
straight-curve $-1 -4.428894391820507259 0.2626679769230817474 1 0.9659258262890682012 0.2588190451025211281 0 I I #
coedge $-1 $338 $337 $522 $523 reversed $339 $-1 #
edge $-1 $341 0 $524 0.5 $432 $525 forward 7 unknown #
edge $-1 $340 -0 $526 0.5 $427 $527 reversed 7 unknown #
face $-1 $518 $339 $2 $-1 $528 reversed single #
point $-1 -7.770748794210424748 -3.531552516567923128 1 #
point $-1 -8.495442120497484595 -0.8269602029585318981 1 #
coedge $-1 $529 $343 $428 $517 reversed $443 $-1 #
coedge $-1 $343 $529 $431 $520 reversed $443 $-1 #
loop $-1 $-1 $441 $530 #
ellipse-curve $-1 0 0 1 -0 -0 1 0 -8 0 1 I I #
point $-1 -7.970507283516450769 -0.6863043373105008893 1 #
point $-1 -7.245813957229391811 -3.390896650919891897 1 #
face $-1 $531 $532 $2 $-1 $533 forward single #
loop $-1 $-1 $534 $349 #
coedge $-1 $453 $535 $536 $537 forward $350 $-1 #
loop $-1 $512 $538 $110 #
coedge $-1 $539 $539 $461 $540 reversed $352 $-1 #
coedge $-1 $353 $353 $541 $542 forward $264 $-1 #
coedge $-1 $543 $449 $353 $454 reversed $350 $-1 #
edge $-1 $544 -3.141592653589793116 $545 -1.224646799147352714e-16 $353 $546 forward 7 unknown #
edge $-1 $379 0 $377 3.141592653589793116 $354 $547 forward 7 unknown #
ellipse-curve $-1 -2.394076167198319283 -8.934813893173881638 1.5 0 0 1 0 1.000000000000001776 0 1 I I #
coedge $-1 $548 $358 $361 $463 forward $459 $-1 #
coedge $-1 $358 $548 $360 $462 reversed $459 $-1 #
loop $-1 $-1 $458 $549 #
ellipse-curve $-1 -6.540737725975563244 6.540737725975563244 1 0 0 -1 0 1.000000000000001776 0 1 I I #
coedge $-1 $361 $360 $451 $540 forward $362 $-1 #
edge $-1 $363 0 $550 0.5 $458 $551 forward 7 unknown #
edge $-1 $364 0 $552 0.5 $457 $553 forward 7 unknown #
face $-1 $549 $362 $2 $-1 $554 reversed single #
point $-1 -6.540737725975563244 5.540737725975563244 1 #
point $-1 -6.540737725975563244 7.540737725975563244 1 #
coedge $-1 $367 $366 $555 $556 reversed $368 $-1 #
face $-1 $464 $368 $2 $-1 $475 reversed single #
coedge $-1 $557 $558 $370 $470 forward $559 $-1 #
edge $-1 $473 -1.643166920129677844e-14 $471 3.141592653589774464 $370 $560 reversed 7 unknown #
vertex $-1 $556 $561 #
straight-curve $-1 -1.347066989204614984e-15 11 0.2999999999999999889 0 0 1 I I #
vertex $-1 $556 $562 #
straight-curve $-1 0 -11 0.2999999999999999889 0 0 1 I I #
cone-surface $-1 0 0 0 0 0 -1 0 -10.99999999999999645 0 1 I I 0 1 11 forward I I I I #
point $-1 -2.394076167198319283 -9.934813893173881638 1.5 #
point $-1 -2.394076167198319283 -7.934813893173882526 1.5 #
coedge $-1 $384 $383 $511 $563 reversed $385 $-1 #
face $-1 $391 $385 $2 $-1 $564 reversed single #
vertex $-1 $423 $565 #
straight-curve $-1 5.883128419472074988 -3.903229432149743161 1 0 0 -1 I I #
coedge $-1 $511 $506 $389 $483 forward $512 $-1 #
edge $-1 $508 -4.209999999999999076 $484 -2.710000000000000409 $482 $566 reversed 7 unknown #
vertex $-1 $483 $567 #
straight-curve $-1 3.903229432149742273 -5.883128419472075876 1 -0 0 -1 I I #
plane-surface $-1 4.963889603929563243 -6.943788591251896847 1 -0.7071067811865475727 -0.7071067811865474617 0 -0.7071067811865474617 0.7071067811865475727 0 forward_v I I I I #
coedge $-1 $398 $397 $502 $568 reversed $393 $-1 #
coedge $-1 $497 $502 $400 $489 forward $503 $-1 #
edge $-1 $490 3.459999999999999964 $499 4.959999999999999076 $488 $569 reversed 7 unknown #
vertex $-1 $489 $570 #
straight-curve $-1 0.4387316353047501227 7.046553381063881183 1 -0 0 -1 I I #
plane-surface $-1 0.4387316353047501227 7.046553381063881183 1 -0.9659258262890682012 0.258819045102521017 0 0.258819045102521017 0.9659258262890682012 0 forward_v I I I I #
vertex $-1 $414 $571 #
straight-curve $-1 3.143323948914140686 6.321860054776823112 1 0 -0 -1 I I #
plane-surface $-1 -8.495442120497484595 -0.8269602029585323422 1 -0.2588190451025211281 0.9659258262890682012 0 0.9659258262890682012 0.2588190451025211281 0 forward_v I I I I #
coedge $-1 $572 $573 $519 $574 reversed $407 $-1 #
coedge $-1 $413 $488 $409 $498 forward $503 $-1 #
edge $-1 $499 -0.6999999999999994005 $415 2.099999999999999201 $497 $575 reversed 7 unknown #
vertex $-1 $498 $576 #
straight-curve $-1 0.8269602029585317871 8.495442120497484595 1 0 0 -1 I I #
plane-surface $-1 0.826960202958531454 8.495442120497484595 1 0.258819045102521017 0.9659258262890682012 0 0.9659258262890682012 -0.258819045102521017 0 forward_v I I I I #
coedge $-1 $488 $413 $487 $568 forward $503 $-1 #
loop $-1 $577 $502 $110 #
straight-curve $-1 2.441924336686308372 3.7042010655334483 1.5 0.258819045102521017 0.9659258262890682012 -0 I I #
point $-1 3.531552516567921796 7.770748794210425636 1.5 #
coedge $-1 $482 $422 $418 $507 forward $512 $-1 #
edge $-1 $424 -0.6999999999999999556 $508 2.100000000000000533 $506 $578 reversed 7 unknown #
vertex $-1 $483 $579 #
straight-curve $-1 4.963889603929563243 -6.943788591251896847 1 0 0 1 I I #
plane-surface $-1 6.943788591251895959 -4.963889603929564132 1 0.7071067811865474617 -0.7071067811865475727 0 -0.7071067811865475727 -0.7071067811865474617 0 forward_v I I I I #
coedge $-1 $422 $482 $478 $563 forward $512 $-1 #
loop $-1 $503 $511 $110 #
straight-curve $-1 3.436538956566620673 -1.456639969244288402 1.5 -0.7071067811865474617 0.7071067811865475727 0 I I #
point $-1 6.943788591251895959 -4.963889603929564132 1.5 #
coedge $-1 $516 $427 $580 $581 reversed $429 $-1 #
coedge $-1 $428 $515 $582 $583 reversed $429 $-1 #
edge $-1 $584 3.460000000000000409 $347 4.416547467006086691 $441 $585 forward 7 unknown #
face $-1 $530 $429 $2 $-1 $586 reversed single #
coedge $-1 $521 $431 $496 $574 forward $433 $-1 #
edge $-1 $345 -3.666547467006085803 $587 -2.709999999999999964 $442 $588 forward 7 unknown #
coedge $-1 $432 $519 $589 $590 reversed $433 $-1 #
coedge $-1 $589 $580 $435 $523 forward $577 $-1 #
edge $-1 $526 -0.7000000000000000666 $524 2.100000000000000533 $522 $591 reversed 7 unknown #
vertex $-1 $590 $592 #
straight-curve $-1 -8.495442120497484595 -0.8269602029585318981 1 0 0 1 I I #
vertex $-1 $523 $593 #
straight-curve $-1 -7.770748794210424748 -3.531552516567923128 1 0 -0 -1 I I #
plane-surface $-1 -7.770748794210424748 -3.531552516567923128 1 -0.9659258262890682012 -0.2588190451025211281 0 -0.2588190451025211281 0.9659258262890682012 0 forward_v I I I I #
coedge $-1 $442 $441 $572 $594 reversed $443 $-1 #
face $-1 $258 $443 $2 $-1 $66 reversed single #
face $-1 $595 $596 $2 $-1 $533 forward single #
loop $-1 $-1 $597 $447 #
torus-surface $-1 0 0 0.2999999999999999889 0 0 1 11.69999999999999751 0.2999999999999999889 -0.9999956395129632192 -0.00295312631966265695 0 forward_v I I I I #
coedge $-1 $541 $598 $543 $599 forward $448 $-1 #
coedge $-1 $449 $543 $600 $601 reversed $350 $-1 #
coedge $-1 $598 $541 $449 $537 reversed $448 $-1 #
edge $-1 $602 0 $545 1.199999999999999956 $536 $603 forward 7 unknown #
coedge $-1 $604 $604 $605 $606 reversed $450 $-1 #
coedge $-1 $451 $451 $548 $607 reversed $352 $-1 #
edge $-1 $550 -3.141592653589793116 $552 0 $451 $608 forward 7 unknown #
coedge $-1 $536 $534 $452 $542 reversed $448 $-1 #
edge $-1 $545 -1.224646799147352714e-16 $544 3.141592653589793116 $452 $609 forward 7 unknown #
coedge $-1 $535 $453 $534 $599 reversed $350 $-1 #
vertex $-1 $542 $610 #
vertex $-1 $542 $611 #
ellipse-curve $-1 0 0 1.5 0 0 1 -11.99999999999999822 0 0 1 I I #
ellipse-curve $-1 -2.394076167198319283 -8.934813893173881638 1.5 0 0 1 0 1.000000000000001776 0 1 I I #
coedge $-1 $458 $457 $539 $607 forward $459 $-1 #
face $-1 $612 $459 $2 $-1 $554 reversed single #
vertex $-1 $607 $613 #
straight-curve $-1 -6.540737725975563244 5.540737725975563244 1 0 0 1 I I #
vertex $-1 $607 $614 #
straight-curve $-1 -6.540737725975563244 7.540737725975563244 1 0 0 1 I I #
cone-surface $-1 -6.540737725975563244 6.540737725975563244 0 0 0 1 0 1.000000000000001776 0 1 I I 0 1 1 forward I I I I #
coedge $-1 $615 $616 $467 $556 forward $617 $-1 #
edge $-1 $471 -3.141592653589811768 $473 -1.643166920129677844e-14 $467 $618 reversed 7 unknown #
coedge $-1 $619 $469 $616 $620 reversed $559 $-1 #
coedge $-1 $469 $619 $615 $621 forward $559 $-1 #
loop $-1 $-1 $558 $622 #
ellipse-curve $-1 0 0 0.2999999999999999889 0 0 -1 0 -10.99999999999999645 0 1 I I #
point $-1 2.087127177084180557e-13 10.99999999999999645 0.2999999999999999334 #
point $-1 -1.807483612142644903e-13 -10.99999999999999645 0.2999999999999999334 #
edge $-1 $484 -0.6999999999999999556 $480 2.099999999999999645 $511 $623 reversed 7 unknown #
plane-surface $-1 3.903229432149742273 -5.883128419472075876 1 -0.7071067811865474617 0.7071067811865475727 0 0.7071067811865475727 0.7071067811865474617 0 forward_v I I I I #
point $-1 5.883128419472074988 -3.903229432149743161 1.5 #
straight-curve $-1 1.986970055134198443 -3.966869042456531602 1.5 0.7071067811865474617 -0.7071067811865475727 0 I I #
point $-1 3.903229432149742273 -5.883128419472075876 1.5 #
edge $-1 $493 -0.6999999999999996225 $490 2.099999999999999201 $502 $624 reversed 7 unknown #
straight-curve $-1 -0.456782260749972524 3.704450022103705109 1.5 -0.258819045102521017 -0.9659258262890682012 0 I I #
point $-1 0.4387316353047503448 7.046553381063881183 1.5 #
point $-1 3.143323948914140242 6.321860054776822224 1.5 #
coedge $-1 $582 $496 $529 $594 forward $407 $-1 #
coedge $-1 $496 $582 $625 $626 reversed $407 $-1 #
edge $-1 $587 -0 $627 0.5 $519 $628 reversed 7 unknown #
straight-curve $-1 1.50310828136087915 8.314268788925719633 1.5 -0.9659258262890682012 0.258819045102521017 0 I I #
point $-1 0.826960202958531676 8.495442120497482819 1.5 #
loop $-1 $-1 $625 $110 #
straight-curve $-1 6.44881384442131278 -5.45886435076014731 1.5 0.7071067811865475727 0.7071067811865474617 -0 I I #
point $-1 4.963889603929562355 -6.943788591251896847 1.5 #
coedge $-1 $522 $625 $515 $581 forward $577 $-1 #
edge $-1 $629 3.460000000000001297 $526 4.959999999999999964 $580 $630 reversed 7 unknown #
coedge $-1 $573 $572 $516 $583 forward $407 $-1 #
edge $-1 $584 -0 $629 0.5 $582 $631 reversed 7 unknown #
vertex $-1 $594 $632 #
straight-curve $-1 -2.97975669581664615 -2.247810052859418484 1 -0.9659258262890682012 -0.2588190451025211281 -0 I I #
plane-surface $-1 -6.321860054776822224 -3.143323948914141575 1 0.2588190451025211281 -0.9659258262890682012 0 -0.9659258262890682012 -0.2588190451025211281 0 forward_v I I I I #
vertex $-1 $520 $633 #
straight-curve $-1 -4.428894391820507259 0.2626679769230817474 1 0.9659258262890682012 0.2588190451025211281 0 I I #
coedge $-1 $625 $522 $521 $590 forward $577 $-1 #
edge $-1 $524 -4.209999999999999964 $627 -2.709999999999999964 $589 $634 reversed 7 unknown #
straight-curve $-1 -7.95192212578218971 -2.855404438165575431 1.5 0.2588190451025211281 -0.9659258262890682012 0 I I #
point $-1 -8.495442120497484595 -0.8269602029585318981 1.5 #
point $-1 -7.770748794210424748 -3.531552516567923128 1.5 #
edge $-1 $587 -0.7000000000000003997 $584 2.100000000000000089 $529 $635 forward 7 unknown #
face $-1 $636 $637 $2 $-1 $638 reversed single #
loop $-1 $-1 $639 $531 #
coedge $-1 $640 $641 $642 $643 forward $532 $-1 #
coedge $-1 $534 $536 $640 $644 reversed $448 $-1 #
edge $-1 $645 0 $544 1.199999999999999956 $534 $646 forward 7 unknown #
coedge $-1 $642 $639 $535 $601 forward $596 $-1 #
edge $-1 $602 -1.28790615399358447e-14 $645 3.141592653589778905 $535 $647 reversed 7 unknown #
vertex $-1 $644 $648 #
straight-curve $-1 -12 0 0.2999999999999999889 0 0 1 I I #
coedge $-1 $538 $538 $649 $650 reversed $450 $-1 #
coedge $-1 $651 $652 $538 $606 forward $653 $-1 #
edge $-1 $654 -3.141592653589793116 $655 0 $538 $656 forward 7 unknown #
edge $-1 $552 0 $550 3.141592653589793116 $539 $657 forward 7 unknown #
ellipse-curve $-1 -6.540737725975563244 6.540737725975563244 1.5 0 0 1 0 1.000000000000001776 0 1 I I #
ellipse-curve $-1 0 0 1.5 0 0 1 -11.99999999999999822 0 0 1 I I #
point $-1 12 -1.46957615897682375e-15 1.5 #
point $-1 -12 1.469576158976822961e-15 1.5 #
face $-1 $658 $653 $2 $-1 $659 forward single #
point $-1 -6.540737725975563244 5.540737725975563244 1.5 #
point $-1 -6.540737725975563244 7.540737725975563244 1.5 #
coedge $-1 $660 $555 $558 $621 reversed $617 $-1 #
coedge $-1 $555 $660 $557 $620 forward $617 $-1 #
loop $-1 $-1 $616 $636 #
ellipse-curve $-1 0 0 0.2999999999999999889 0 0 -1 0 -10.99999999999999645 0 1 I I #
coedge $-1 $558 $557 $661 $662 reversed $559 $-1 #
edge $-1 $663 -1.184237892932968039e-14 $471 1.57079632679486525 $557 $664 forward 7 unknown #
edge $-1 $665 0 $473 1.570796326794876352 $558 $666 forward 7 unknown #
face $-1 $373 $559 $2 $-1 $667 forward single #
straight-curve $-1 4.398204178980325452 -5.388153672641492697 1.5 -0.7071067811865475727 -0.7071067811865474617 0 I I #
straight-curve $-1 2.46717587051179299 6.503033386348587186 1.5 0.9659258262890682012 -0.258819045102521017 0 I I #
coedge $-1 $580 $589 $573 $626 forward $577 $-1 #
edge $-1 $627 -0.7000000000000003997 $629 2.099999999999999645 $625 $668 reversed 7 unknown #
vertex $-1 $590 $669 #
straight-curve $-1 -7.046553381063882071 -0.4387316353047505668 1 0 0 -1 I I #
vertex $-1 $581 $670 #
straight-curve $-1 -2.97975669581664615 -2.247810052859418484 1.5 0.9659258262890682012 0.2588190451025211281 -0 I I #
straight-curve $-1 -6.321860054776822224 -3.143323948914142019 1 0 0 -1 I I #
point $-1 -6.321860054776822224 -3.143323948914141575 1 #
point $-1 -7.046553381063882071 -0.4387316353047504558 1 #
straight-curve $-1 -4.428894391820507259 0.2626679769230817474 1.5 -0.9659258262890682012 -0.2588190451025211281 0 I I #
straight-curve $-1 -6.865380049492117109 -1.114879713707098485 1 0.2588190451025211281 -0.9659258262890682012 0 I I #
face $-1 $622 $617 $2 $-1 $667 forward single #
loop $-1 $671 $672 $595 #
plane-surface $-1 0 0 0 0 0 1 -1 0 0 forward_v I I I I #
coedge $-1 $600 $673 $674 $675 forward $596 $-1 #
coedge $-1 $674 $597 $598 $644 forward $532 $-1 #
coedge $-1 $597 $674 $676 $677 reversed $532 $-1 #
coedge $-1 $673 $600 $597 $643 reversed $596 $-1 #
edge $-1 $678 0 $645 1.570796326794901443 $597 $679 forward 7 unknown #
edge $-1 $645 -3.141592653589807327 $602 -1.28790615399358447e-14 $598 $680 reversed 7 unknown #
vertex $-1 $644 $681 #
straight-curve $-1 12 -1.46952762458685271e-15 0.2999999999999999889 0 0 1 I I #
ellipse-curve $-1 0 0 0.2999999999999999889 0 0 1 -11.99999999999999822 0 0 1 I I #
point $-1 -11.99999999999999822 -1.545487384792301174e-13 0.2999999999999999889 #
coedge $-1 $682 $683 $604 $650 forward $684 $-1 #
edge $-1 $655 0 $654 3.141592653589793116 $604 $685 forward 7 unknown #
coedge $-1 $686 $605 $683 $687 forward $653 $-1 #
coedge $-1 $605 $686 $682 $688 reversed $653 $-1 #
loop $-1 $-1 $651 $612 #
vertex $-1 $650 $689 #
vertex $-1 $650 $690 #
ellipse-curve $-1 0 0 1.5 0 0 1 -4 0 0 1 I I #
ellipse-curve $-1 -6.540737725975563244 6.540737725975563244 1.5 0 0 1 0 1.000000000000001776 0 1 I I #
face $-1 $691 $684 $2 $-1 $659 forward single #
cone-surface $-1 0 0 1.5 0 0 1 -4 0 0 1 I I 0 1 4 forward I I I I #
coedge $-1 $616 $615 $692 $693 reversed $617 $-1 #
coedge $-1 $692 $692 $619 $662 forward $671 $-1 #
edge $-1 $665 1.570796326794897002 $663 4.712388980384688786 $661 $694 forward 7 unknown #
vertex $-1 $662 $695 #
ellipse-curve $-1 1.16120364974187353e-13 11.30000000000000071 0.3000000000000039857 -1 -3.086411757807696988e-13 3.749479485618003053e-13 -1.124843845685399654e-13 -5.329070518200751394e-15 -0.3000000000000039857 1 I I #
vertex $-1 $662 $696 #
ellipse-curve $-1 -8.860543509459640896e-14 -11.30000000000000071 0.3000000000000042633 1 3.795757238141037505e-13 3.045570495611695075e-13 9.136711486835148586e-14 1.776356839400250465e-15 -0.3000000000000042633 1 I I #
torus-surface $-1 0 0 0.2999999999999999889 0 0 -1 11.29999999999999716 0.2999999999999999889 0.002953126319662335592 0.9999956395129632192 0 forward_v I I I I #
straight-curve $-1 -6.865380049492117109 -1.114879713707098485 1.5 -0.2588190451025211281 0.9659258262890682012 0 I I #
point $-1 -7.046553381063882071 -0.4387316353047504558 1.5 #
point $-1 -6.321860054776823112 -3.143323948914141575 1.5 #
loop $-1 $-1 $692 $595 #
coedge $-1 $676 $676 $673 $697 forward $637 $-1 #
coedge $-1 $639 $642 $672 $697 reversed $596 $-1 #
coedge $-1 $641 $640 $639 $675 reversed $532 $-1 #
edge $-1 $698 7.233416244818172553e-27 $602 1.570796326794899223 $674 $699 forward 7 unknown #
coedge $-1 $672 $672 $641 $677 forward $637 $-1 #
edge $-1 $678 -3.208497095738299558e-16 $698 3.141592653589792672 $676 $700 reversed 7 unknown #
vertex $-1 $677 $701 #
ellipse-curve $-1 11.69999999999999751 9.052288714103297521e-14 0.3000000000000003775 2.795584316541386424e-13 -1 2.892298184633952129e-13 -1.776356839400250465e-15 -8.676894553901916466e-14 -0.3000000000000003775 1 I I #
ellipse-curve $-1 0 0 0.2999999999999999889 0 0 1 -11.99999999999999822 0 0 1 I I #
point $-1 11.99999999999999822 1.743904166372745831e-13 0.2999999999999999889 #
coedge $-1 $702 $649 $652 $688 forward $684 $-1 #
coedge $-1 $649 $702 $651 $687 reversed $684 $-1 #
loop $-1 $-1 $682 $658 #
ellipse-curve $-1 0 0 1.5 0 0 1 -4 0 0 1 I I #
coedge $-1 $652 $651 $703 $704 reversed $653 $-1 #
edge $-1 $655 0 $705 1 $683 $706 forward 7 unknown #
edge $-1 $654 0 $707 1 $682 $708 forward 7 unknown #
point $-1 4 0 1.5 #
point $-1 -4 0 1.5 #
face $-1 $709 $710 $2 $-1 $711 forward single #
coedge $-1 $661 $661 $660 $693 forward $671 $-1 #
edge $-1 $663 -1.570796326794897446 $665 1.570796326794897002 $692 $712 forward 7 unknown #
ellipse-curve $-1 0 0 0 0 0 1 -11.29999999999999716 0 0 1 I I #
point $-1 8.659739592076221015e-15 11.29999999999999893 0 #
point $-1 2.761679773755076894e-15 -11.29999999999999893 0 #
edge $-1 $698 -3.14159265358979356 $678 -3.208497095738299558e-16 $672 $713 reversed 7 unknown #
vertex $-1 $677 $714 #
ellipse-curve $-1 -11.69999999999999751 -8.679050233198999125e-14 0.3000000000000010436 -2.693445222886194136e-13 1 2.988542183810096888e-13 1.776356839400250465e-15 8.965626551430367657e-14 -0.3000000000000010436 1 I I #
ellipse-curve $-1 0 0 0 0 0 1 11.69999999999999751 0 0 1 I I #
point $-1 11.69999999999999574 3.753941602013808975e-15 0 #
coedge $-1 $683 $682 $715 $716 reversed $684 $-1 #
coedge $-1 $715 $715 $686 $704 forward $710 $-1 #
edge $-1 $707 -3.141592653589793116 $705 0 $703 $717 forward 7 unknown #
vertex $-1 $716 $718 #
straight-curve $-1 -4 0 1.5 0 0 1 I I #
vertex $-1 $716 $719 #
straight-curve $-1 4 -4.898425415289509033e-16 1.5 0 0 1 I I #
face $-1 $720 $721 $2 $-1 $722 reversed single #
loop $-1 $723 $703 $691 #
plane-surface $-1 0 0 2.5 0 0 1 -1 0 0 forward_v I I I I #
ellipse-curve $-1 0 0 0 0 0 1 -11.29999999999999716 0 0 1 I I #
ellipse-curve $-1 0 0 0 0 0 1 11.69999999999999751 0 0 1 I I #
point $-1 -11.69999999999999574 -5.190292640122605249e-15 0 #
coedge $-1 $703 $703 $702 $716 forward $710 $-1 #
edge $-1 $705 0 $707 3.141592653589793116 $715 $724 forward 7 unknown #
ellipse-curve $-1 0 0 2.5 0 0 1 -4 0 0 1 I I #
point $-1 -4 0 2.5 #
point $-1 4 0 2.5 #
face $-1 $725 $726 $2 $-1 $722 reversed single #
loop $-1 $-1 $727 $709 #
cone-surface $-1 0 0 2.5 0 0 -1 -0.5 0 0 1 I I 0 1 0.5 forward I I I I #
loop $-1 $-1 $728 $691 #
ellipse-curve $-1 0 0 2.5 0 0 1 -4 0 0 1 I I #
face $-1 $479 $729 $2 $-1 $730 reversed single #
loop $-1 $-1 $731 $720 #
coedge $-1 $732 $733 $734 $735 forward $721 $-1 #
coedge $-1 $736 $736 $733 $737 forward $723 $-1 #
loop $-1 $-1 $738 $725 #
plane-surface $-1 0 0 -2.5 0 0 -1 -1 0 0 forward_v I I I I #
coedge $-1 $739 $740 $741 $742 forward $726 $-1 #
coedge $-1 $741 $727 $738 $743 forward $721 $-1 #
coedge $-1 $727 $741 $728 $737 reversed $721 $-1 #
coedge $-1 $740 $739 $727 $735 reversed $726 $-1 #
edge $-1 $744 0 $745 5 $734 $746 forward 7 unknown #
coedge $-1 $728 $728 $740 $747 forward $723 $-1 #
edge $-1 $744 -3.141592653589793116 $748 -0 $728 $749 reversed 7 unknown #
coedge $-1 $750 $750 $732 $743 reversed $729 $-1 #
coedge $-1 $734 $731 $750 $751 forward $726 $-1 #
coedge $-1 $731 $734 $736 $747 reversed $726 $-1 #
coedge $-1 $733 $732 $731 $742 reversed $721 $-1 #
edge $-1 $748 0 $752 5 $731 $753 forward 7 unknown #
edge $-1 $745 -3.141592653589793116 $752 0 $738 $754 forward 7 unknown #
vertex $-1 $747 $755 #
vertex $-1 $751 $756 #
straight-curve $-1 0.5 6.123031769111886291e-17 2.5 0 0 -1 I I #
edge $-1 $748 -0 $744 3.141592653589793116 $736 $757 reversed 7 unknown #
vertex $-1 $747 $758 #
ellipse-curve $-1 0 0 2.5 0 0 1 -0.5 0 0 1 I I #
coedge $-1 $738 $738 $739 $751 reversed $729 $-1 #
edge $-1 $752 0 $745 3.141592653589793116 $750 $759 forward 7 unknown #
vertex $-1 $751 $760 #
straight-curve $-1 -0.5 0 2.5 0 0 -1 I I #
ellipse-curve $-1 0 0 -2.5 0 0 -1 -0.5 0 0 1 I I #
point $-1 0.5 0 2.5 #
point $-1 0.5 0 -2.5 #
ellipse-curve $-1 0 0 2.5 0 0 1 -0.5 0 0 1 I I #
point $-1 -0.5 0 2.5 #
ellipse-curve $-1 0 0 -2.5 0 0 -1 -0.5 0 0 1 I I #
point $-1 -0.5 0 -2.5 #
End-of-ACIS-data 