700 0 2 0           
24 FBMach with ACIS - 7.0.3 13 ACIS 7.0.3 NT 24 Thu May 16 13:43:47 2002 
1 9.9999999999999995e-007 1e-010 
body $2 -1 $-1 $3 $-1 $4 #
bdycol-kcp $-1 -1 1 3 $5 $6 $7 #
model_id-kcp-attrib $-1 -1 $-1 $-1 $0 1 1021571027 1021571027 2062024705 1 #
lump $-1 -1 $-1 $-1 $8 $0 #
transform $-1 -1 1 0 0 0 1 0 0 0 1 0 0 0 1 rotate no_reflect no_shear #
body $9 -1 $-1 $10 $-1 $11 #
body $12 -1 $-1 $13 $-1 $14 #
body $15 -1 $-1 $16 $-1 $17 #
shell $-1 -1 $-1 $-1 $-1 $18 $-1 $3 #
rgb_color-st-attrib $-1 -1 $19 $-1 $5 0.5 1 1 #
lump $-1 -1 $-1 $-1 $20 $5 #
transform $-1 -1 1 0 0 0 1 0 0 0 1 0 0.75 0 1 no_rotate no_reflect no_shear #
rgb_color-st-attrib $-1 -1 $21 $-1 $6 0.5 1 1 #
lump $-1 -1 $-1 $-1 $22 $6 #
transform $-1 -1 1 0 0 0 1 0 0 0 1 0 0 0 1 no_rotate no_reflect no_shear #
model_id-kcp-attrib $-1 -1 $-1 $-1 $7 1 1021571027 1021571027 2062024706 1 #
lump $-1 -1 $-1 $-1 $23 $7 #
transform $-1 -1 1 0 0 0 1 0 0 0 1 0 0.75 0 1 no_rotate no_reflect no_shear #
face $24 -1 $-1 $25 $26 $8 $-1 $27 reversed single #
model_id-kcp-attrib $-1 -1 $-1 $9 $5 1 1021571027 1021571027 2051801091 1 #
shell $-1 -1 $-1 $-1 $-1 $28 $-1 $10 #
model_id-kcp-attrib $-1 -1 $-1 $12 $6 1 1021571027 1021571027 2056388612 1 #
shell $-1 -1 $-1 $-1 $-1 $29 $-1 $13 #
shell $-1 -1 $-1 $-1 $-1 $30 $-1 $16 #
model_id-kcp-attrib $-1 -1 $-1 $-1 $18 1 1021571027 1021571027 2062024705 2 #
face $31 -1 $-1 $32 $33 $8 $-1 $34 forward single #
loop $-1 -1 $-1 $35 $36 $18 #
plane-surface $-1 -1 $-1 0 0 0 0 1 0 1 0 0 forward_v I I I I #
face $-1 -1 $-1 $37 $38 $20 $-1 $39 reversed single #
face $-1 -1 $-1 $40 $41 $22 $-1 $42 forward single #
face $-1 -1 $-1 $43 $44 $23 $-1 $45 forward single #
model_id-kcp-attrib $-1 -1 $-1 $-1 $25 1 1021571027 1021571027 2062024705 3 #
face $46 -1 $-1 $47 $48 $8 $-1 $49 forward single #
loop $-1 -1 $-1 $-1 $50 $25 #
cone-surface $-1 -1 $-1 0 0 0 0 1 0 18.5 0 0 1 I I 0 1 18.5 forward I I I I #
loop $-1 -1 $-1 $-1 $51 $18 #
coedge $-1 -1 $-1 $52 $52 $53 $54 reversed $26 $-1 #
face $-1 -1 $-1 $55 $56 $20 $-1 $39 reversed single #
loop $-1 -1 $-1 $-1 $57 $28 #
cone-surface $-1 -1 $-1 -2.6246595344563632e-031 -0.75 -8.8817841970012543e-016 0 -1 0 18.5 0 3.1537749981227294e-015 1 I I 0 1 18.5 forward I I I I #
face $-1 -1 $-1 $58 $59 $22 $-1 $60 forward single #
loop $-1 -1 $-1 $61 $62 $29 #
cone-surface $-1 -1 $-1 0 0 0 0 1 0 -13.875 0 -1.6991974338169525e-015 1 I I 0 1 13.875 forward I I I I #
face $-1 -1 $-1 $63 $64 $23 $-1 $65 reversed single #
loop $-1 -1 $-1 $-1 $66 $30 #
plane-surface $-1 -1 $-1 0 0 18.5 0 0 1 1 0 0 forward_v I I I I #
model_id-kcp-attrib $-1 -1 $-1 $-1 $32 1 1021571027 1021571027 2062024705 4 #
face $67 -1 $-1 $68 $69 $8 $-1 $70 forward single #
loop $-1 -1 $-1 $-1 $71 $32 #
cone-surface $-1 -1 $-1 0 0 0 0 1 0 18.5 0 0 1 I I 0 1 18.5 forward I I I I #
coedge $-1 -1 $-1 $72 $53 $73 $74 forward $33 $-1 #
coedge $-1 -1 $-1 $75 $75 $76 $77 reversed $35 $-1 #
coedge $-1 -1 $-1 $36 $36 $78 $79 reversed $26 $-1 #
coedge $-1 -1 $-1 $50 $80 $36 $54 forward $33 $-1 #
edge $81 -1 $-1 $82 0 $83 3.1415926535897931 $36 $84 forward @7 unknown #
face $-1 -1 $-1 $85 $86 $20 $-1 $39 reversed single #
loop $-1 -1 $-1 $-1 $87 $37 #
coedge $-1 -1 $-1 $88 $89 $90 $91 reversed $38 $-1 #
face $-1 -1 $-1 $-1 $92 $22 $-1 $93 reversed single #
loop $-1 -1 $-1 $-1 $94 $40 #
plane-surface $-1 -1 $-1 0 1.5 0 0 1 0 0 0 1 forward_v I I I I #
loop $-1 -1 $-1 $-1 $95 $29 #
coedge $-1 -1 $-1 $62 $62 $94 $96 forward $41 $-1 #
face $97 -1 $-1 $98 $99 $23 $-1 $100 reversed single #
loop $-1 -1 $-1 $-1 $101 $43 #
plane-surface $-1 -1 $-1 0 0 -18.5 0 0 1 1 0 0 forward_v I I I I #
coedge $-1 -1 $-1 $102 $103 $104 $105 forward $44 $-1 #
model_id-kcp-attrib $-1 -1 $-1 $-1 $47 1 1021571027 1021571027 2062024705 5 #
face $106 -1 $-1 $107 $108 $8 $-1 $109 reversed single #
loop $-1 -1 $-1 $110 $111 $47 #
plane-surface $-1 -1 $-1 0 1.5 0 0 1 0 1 0 0 forward_v I I I I #
coedge $-1 -1 $-1 $112 $78 $80 $113 forward $48 $-1 #
coedge $-1 -1 $-1 $80 $50 $111 $114 reversed $33 $-1 #
coedge $-1 -1 $-1 $78 $112 $50 $74 reversed $48 $-1 #
edge $-1 -1 $-1 $83 0 $115 1.5 $73 $116 forward @7 unknown #
coedge $-1 -1 $-1 $51 $51 $117 $118 reversed $35 $-1 #
coedge $-1 -1 $-1 $119 $120 $51 $77 forward $108 $-1 #
edge $121 -1 $-1 $122 0 $123 3.1415926535897931 $51 $124 forward @7 unknown #
coedge $-1 -1 $-1 $71 $73 $52 $79 forward $48 $-1 #
edge $125 -1 $-1 $83 0 $82 3.1415926535897931 $52 $126 forward @7 unknown #
coedge $-1 -1 $-1 $53 $72 $71 $113 reversed $33 $-1 #
attrib_edge_convexity-kcp-attrib $-1 -1 $127 $-1 $54 1 #
vertex $-1 -1 $-1 $79 $128 #
vertex $-1 -1 $-1 $79 $129 #
ellipse-curve $-1 -1 $-1 0 0 0 0 1 0 -18.5 0 -2.2655965784226034e-015 1 I I #
face $-1 -1 $-1 $130 $131 $20 $-1 $39 reversed single #
loop $-1 -1 $-1 $-1 $132 $55 #
coedge $-1 -1 $-1 $133 $134 $135 $136 reversed $56 $-1 #
coedge $-1 -1 $-1 $137 $57 $138 $139 forward $38 $-1 #
coedge $-1 -1 $-1 $57 $137 $140 $141 reversed $38 $-1 #
coedge $-1 -1 $-1 $142 $143 $57 $91 forward $144 $-1 #
edge $-1 -1 $-1 $145 -1.7047432422285023e-016 $146 1.5707963267948966 $90 $147 forward @7 unknown #
loop $-1 -1 $-1 $-1 $148 $58 #
plane-surface $-1 -1 $-1 0 0 0 0 1 0 0 0 1 forward_v I I I I #
coedge $-1 -1 $-1 $94 $94 $62 $96 reversed $59 $-1 #
coedge $-1 -1 $-1 $95 $95 $148 $149 reversed $61 $-1 #
edge $-1 -1 $-1 $150 -3.1415926535897931 $150 3.1415926535897931 $62 $151 forward @7 unknown #
model_id-kcp-attrib $-1 -1 $-1 $-1 $63 1 1021571027 1021571027 2062024706 2 #
face $-1 -1 $-1 $152 $153 $23 $-1 $154 reversed single #
loop $-1 -1 $-1 $-1 $155 $63 #
plane-surface $-1 -1 $-1 0 -0.75 0 0 1 0 0 0 1 forward_v I I I I #
coedge $-1 -1 $-1 $156 $157 $158 $159 forward $64 $-1 #
coedge $-1 -1 $-1 $160 $66 $161 $162 forward $44 $-1 #
coedge $-1 -1 $-1 $66 $160 $163 $164 forward $44 $-1 #
coedge $-1 -1 $-1 $165 $166 $66 $105 reversed $167 $-1 #
edge $-1 -1 $-1 $168 -0.75 $169 0.75 $104 $170 forward @7 unknown #
model_id-kcp-attrib $-1 -1 $-1 $-1 $68 1 1021571027 1021571027 2062024705 6 #
face $171 -1 $-1 $-1 $172 $8 $-1 $173 reversed single #
loop $-1 -1 $-1 $-1 $119 $68 #
cone-surface $-1 -1 $-1 0 0 0 0 1 0 13.875 0 0 1 I I 0 1 13.875 forward I I I I #
loop $-1 -1 $-1 $-1 $174 $47 #
coedge $-1 -1 $-1 $175 $175 $72 $114 forward $69 $-1 #
coedge $-1 -1 $-1 $73 $71 $175 $176 reversed $48 $-1 #
edge $-1 -1 $-1 $82 0 $177 1.5 $71 $178 forward @7 unknown #
edge $-1 -1 $-1 $177 0 $115 3.1415926535897931 $111 $179 forward @7 unknown #
vertex $-1 -1 $-1 $176 $180 #
straight-curve $-1 -1 $-1 18.5 0 0 0 1 0 I I #
coedge $-1 -1 $-1 $181 $182 $75 $118 forward $172 $-1 #
edge $183 -1 $-1 $123 0 $122 3.1415926535897931 $75 $184 forward @7 unknown #
coedge $-1 -1 $-1 $185 $76 $182 $186 forward $108 $-1 #
coedge $-1 -1 $-1 $76 $185 $181 $187 reversed $108 $-1 #
attrib_edge_convexity-kcp-attrib $-1 -1 $188 $-1 $77 1 #
vertex $-1 -1 $-1 $118 $189 #
vertex $-1 -1 $-1 $118 $190 #
ellipse-curve $-1 -1 $-1 0 0 0 0 -1 0 -13.875 0 -1.6991974338169525e-015 1 I I #
attrib_edge_convexity-kcp-attrib $-1 -1 $191 $-1 $79 1 #
ellipse-curve $-1 -1 $-1 0 0 0 0 1 0 18.5 0 2.2655965784226038e-015 1 I I #
convexity-sys-attrib $-1 -1 $-1 $81 $54 #
point $-1 -1 $-1 -18.5 0 -2.2655965784226034e-015 #
point $-1 -1 $-1 18.5 0 2.2655965784226038e-015 #
face $-1 -1 $-1 $192 $193 $20 $-1 $194 forward single #
loop $-1 -1 $-1 $-1 $195 $85 #
coedge $-1 -1 $-1 $196 $197 $195 $198 forward $86 $-1 #
coedge $-1 -1 $-1 $199 $87 $200 $201 reversed $56 $-1 #
coedge $-1 -1 $-1 $87 $199 $89 $141 forward $56 $-1 #
coedge $-1 -1 $-1 $202 $203 $87 $136 forward $204 $-1 #
edge $-1 -1 $-1 $205 -3.1415926535897931 $206 -1.5707963267948966 $135 $207 forward @7 unknown #
coedge $-1 -1 $-1 $89 $88 $208 $209 reversed $38 $-1 #
coedge $-1 -1 $-1 $197 $196 $210 $139 reversed $86 $-1 #
edge $-1 -1 $-1 $145 -1.5 $211 0 $210 $212 forward @7 unknown #
coedge $-1 -1 $-1 $213 $214 $215 $141 forward $216 $-1 #
edge $-1 -1 $-1 $146 -1.5 $206 0 $140 $217 forward @7 unknown #
coedge $-1 -1 $-1 $143 $90 $214 $218 reversed $144 $-1 #
coedge $-1 -1 $-1 $90 $142 $219 $220 forward $144 $-1 #
loop $-1 -1 $-1 $-1 $90 $221 #
vertex $-1 -1 $-1 $222 $223 #
vertex $-1 -1 $-1 $224 $225 #
ellipse-curve $-1 -1 $-1 -2.6246595344563632e-031 0.75 -8.8817841970012543e-016 0 -1 0 18.5 0 3.1537749981227294e-015 1 I I #
coedge $-1 -1 $-1 $148 $148 $95 $149 forward $92 $-1 #
edge $-1 -1 $-1 $226 -3.1415926535897931 $226 3.1415926535897931 $95 $227 forward @7 unknown #
vertex $-1 -1 $-1 $96 $228 #
ellipse-curve $-1 -1 $-1 0 1.5 0 0 -1 0 13.875 0 1.6991974338169587e-015 1 I I #
face $229 -1 $-1 $230 $231 $23 $-1 $232 reversed single #
loop $-1 -1 $-1 $-1 $233 $98 #
plane-surface $-1 -1 $-1 -18.5 0 0 1 0 0 0 0 -1 forward_v I I I I #
coedge $-1 -1 $-1 $234 $163 $235 $236 forward $99 $-1 #
coedge $-1 -1 $-1 $237 $101 $234 $238 forward $64 $-1 #
coedge $-1 -1 $-1 $101 $237 $239 $240 forward $64 $-1 #
coedge $-1 -1 $-1 $166 $165 $101 $159 reversed $167 $-1 #
edge $-1 -1 $-1 $241 -0.75 $242 0.75 $158 $243 forward @7 unknown #
coedge $-1 -1 $-1 $103 $102 $244 $245 forward $44 $-1 #
coedge $-1 -1 $-1 $246 $247 $102 $162 reversed $231 $-1 #
edge $-1 -1 $-1 $169 -18.5 $248 18.5 $161 $249 forward @7 unknown #
coedge $-1 -1 $-1 $155 $250 $103 $164 reversed $99 $-1 #
edge $-1 -1 $-1 $251 -18.5 $168 18.5 $163 $252 forward @7 unknown #
coedge $-1 -1 $-1 $158 $104 $250 $253 forward $167 $-1 #
coedge $-1 -1 $-1 $104 $158 $246 $254 reversed $167 $-1 #
loop $-1 -1 $-1 $-1 $165 $230 #
vertex $-1 -1 $-1 $105 $255 #
vertex $-1 -1 $-1 $105 $256 #
straight-curve $-1 -1 $-1 18.5 0 18.5 0 1 0 I I #
model_id-kcp-attrib $-1 -1 $-1 $-1 $107 1 1021571027 1021571027 2062024705 7 #
loop $-1 -1 $-1 $-1 $181 $107 #
cone-surface $-1 -1 $-1 0 0 0 0 1 0 13.875 0 0 1 I I 0 1 13.875 forward I I I I #
coedge $-1 -1 $-1 $257 $257 $185 $258 forward $110 $-1 #
coedge $-1 -1 $-1 $111 $111 $112 $176 forward $69 $-1 #
edge $-1 -1 $-1 $115 0 $177 3.1415926535897931 $175 $259 forward @7 unknown #
vertex $-1 -1 $-1 $176 $260 #
straight-curve $-1 -1 $-1 -18.5 0 -2.2655217545713979e-015 0 1 0 I I #
ellipse-curve $-1 -1 $-1 0 1.5 8.8817841970012523e-016 0 1 0 -18.5 0 -3.1537749981227286e-015 1 I I #
point $-1 -1 $-1 18.5 1.5 2.2655965784226042e-015 #
coedge $-1 -1 $-1 $261 $117 $120 $187 forward $172 $-1 #
coedge $-1 -1 $-1 $117 $261 $119 $186 reversed $172 $-1 #
attrib_edge_convexity-kcp-attrib $-1 -1 $262 $-1 $118 1 #
ellipse-curve $-1 -1 $-1 0 0 0 0 -1 0 13.875 0 1.6991974338169587e-015 1 I I #
coedge $-1 -1 $-1 $120 $119 $174 $258 reversed $108 $-1 #
edge $-1 -1 $-1 $123 3.8495687516242128e-030 $263 1.5 $182 $264 forward @7 unknown #
edge $-1 -1 $-1 $122 0 $265 1.5 $181 $266 forward @7 unknown #
convexity-sys-attrib $-1 -1 $-1 $121 $77 #
point $-1 -1 $-1 -13.875 0 -1.6991974338169525e-015 #
point $-1 -1 $-1 13.875 0 1.6991974338169587e-015 #
convexity-sys-attrib $-1 -1 $-1 $125 $79 #
face $-1 -1 $-1 $267 $268 $20 $-1 $269 reversed single #
loop $-1 -1 $-1 $-1 $215 $130 #
plane-surface $-1 -1 $-1 0 0 18.5 0 0 1 1 0 0 forward_v I I I I #
coedge $-1 -1 $-1 $270 $271 $272 $198 reversed $131 $-1 #
coedge $-1 -1 $-1 $138 $132 $273 $274 reversed $86 $-1 #
coedge $-1 -1 $-1 $132 $138 $275 $276 reversed $86 $-1 #
edge $-1 -1 $-1 $277 -1.5 $278 0 $272 $279 forward @7 unknown #
coedge $-1 -1 $-1 $134 $133 $280 $281 reversed $56 $-1 #
coedge $-1 -1 $-1 $282 $283 $284 $201 forward $285 $-1 #
edge $-1 -1 $-1 $286 -1.5 $205 0 $200 $287 forward @7 unknown #
coedge $-1 -1 $-1 $203 $135 $288 $289 reversed $204 $-1 #
coedge $-1 -1 $-1 $135 $202 $282 $290 forward $204 $-1 #
loop $-1 -1 $-1 $-1 $135 $291 #
vertex $-1 -1 $-1 $292 $293 #
vertex $-1 -1 $-1 $294 $295 #
ellipse-curve $-1 -1 $-1 -2.6246595344563632e-031 -0.75 -8.8817841970012543e-016 0 1 0 18.5 0 3.1537749981227294e-015 1 I I #
coedge $-1 -1 $-1 $296 $297 $137 $209 forward $298 $-1 #
edge $-1 -1 $-1 $206 -1.5707963267948966 $211 1.7047432422285023e-016 $208 $207 forward @7 unknown #
coedge $-1 -1 $-1 $299 $300 $301 $139 forward $268 $-1 #
vertex $-1 -1 $-1 $302 $303 #
straight-curve $-1 -1 $-1 18.5 -0.75 -8.8817841970012543e-016 0 -1 0 I I #
coedge $-1 -1 $-1 $304 $140 $297 $294 forward $216 $-1 #
coedge $-1 -1 $-1 $140 $304 $142 $218 forward $216 $-1 #
coedge $-1 -1 $-1 $305 $288 $134 $141 reversed $193 $-1 #
loop $-1 -1 $-1 $-1 $140 $306 #
straight-curve $-1 -1 $-1 -2.6246595344563632e-031 -0.75 18.5 0 -1 0 I I #
edge $-1 -1 $-1 $307 -18.5 $146 2.6246595344563632e-031 $142 $308 forward @7 unknown #
coedge $-1 -1 $-1 $309 $301 $143 $220 reversed $310 $-1 #
edge $-1 -1 $-1 $307 -18.5 $145 8.8817841970012543e-016 $219 $311 forward @7 unknown #
face $-1 -1 $-1 $312 $144 $20 $-1 $313 reversed single #
edge $-1 -1 $-1 $145 8.8817841970012543e-016 $314 18.5 $300 $311 forward @7 unknown #
point $-1 -1 $-1 18.5 0.75 -8.8817841970012543e-016 #
edge $-1 -1 $-1 $146 2.6246595344563632e-031 $315 18.5 $316 $308 forward @7 unknown #
point $-1 -1 $-1 -2.6246595344563632e-031 0.75 18.5 #
vertex $-1 -1 $-1 $149 $317 #
ellipse-curve $-1 -1 $-1 0 0 0 0 -1 0 -13.875 0 -1.6991974338169525e-015 1 I I #
point $-1 -1 $-1 -13.875 1.5 -1.6991974338169525e-015 #
model_id-kcp-attrib $-1 -1 $-1 $-1 $152 1 1021571027 1021571027 2062024706 3 #
face $-1 -1 $-1 $-1 $167 $23 $-1 $318 reversed single #
loop $-1 -1 $-1 $-1 $246 $152 #
plane-surface $-1 -1 $-1 0 0.75 0 0 -1 0 0 0 -1 forward_v I I I I #
coedge $-1 -1 $-1 $319 $244 $247 $320 forward $153 $-1 #
coedge $-1 -1 $-1 $250 $155 $156 $238 reversed $99 $-1 #
coedge $-1 -1 $-1 $244 $319 $155 $236 reversed $153 $-1 #
edge $-1 -1 $-1 $251 -18.5 $321 18.5 $235 $322 forward @7 unknown #
coedge $-1 -1 $-1 $157 $156 $319 $323 forward $64 $-1 #
edge $-1 -1 $-1 $242 -18.5 $321 18.5 $234 $324 forward @7 unknown #
coedge $-1 -1 $-1 $247 $246 $157 $240 reversed $231 $-1 #
edge $-1 -1 $-1 $325 -18.5 $241 18.5 $239 $326 forward @7 unknown #
vertex $-1 -1 $-1 $159 $327 #
vertex $-1 -1 $-1 $253 $328 #
straight-curve $-1 -1 $-1 18.5 0 -18.5 0 -1 0 I I #
coedge $-1 -1 $-1 $233 $235 $160 $245 reversed $153 $-1 #
edge $-1 -1 $-1 $248 -0.75 $251 0.75 $244 $329 forward @7 unknown #
coedge $-1 -1 $-1 $239 $161 $166 $254 forward $231 $-1 #
coedge $-1 -1 $-1 $161 $239 $233 $320 reversed $231 $-1 #
vertex $-1 -1 $-1 $162 $330 #
straight-curve $-1 -1 $-1 0 0.75 18.5 -1 0 0 I I #
coedge $-1 -1 $-1 $163 $234 $165 $253 reversed $99 $-1 #
vertex $-1 -1 $-1 $245 $331 #
straight-curve $-1 -1 $-1 0 -0.75 18.5 1 0 0 I I #
edge $-1 -1 $-1 $168 -18.5 $242 18.5 $165 $332 forward @7 unknown #
edge $-1 -1 $-1 $169 -18.5 $241 18.5 $166 $333 forward @7 unknown #
point $-1 -1 $-1 18.5 -0.75 18.5 #
point $-1 -1 $-1 18.5 0.75 18.5 #
coedge $-1 -1 $-1 $174 $174 $261 $334 forward $110 $-1 #
edge $-1 -1 $-1 $265 0 $263 3.1415926535897931 $174 $335 forward @7 unknown #
ellipse-curve $-1 -1 $-1 8.8817841970012523e-016 1.5 -8.8817841970012523e-016 0 1 0 18.5 0 3.1537749981227294e-015 1 I I #
point $-1 -1 $-1 -18.5 1.5 -2.2655965784226034e-015 #
coedge $-1 -1 $-1 $182 $181 $257 $334 reversed $172 $-1 #
convexity-sys-attrib $-1 -1 $-1 $183 $118 #
vertex $-1 -1 $-1 $334 $336 #
straight-curve $-1 -1 $-1 13.875 0 0 0 1 2.2655217545713979e-015 I I #
vertex $-1 -1 $-1 $334 $337 #
straight-curve $-1 -1 $-1 -13.875 0 -1.6991413159285484e-015 0 1 0 I I #
face $-1 -1 $-1 $338 $339 $20 $-1 $340 reversed single #
loop $-1 -1 $-1 $-1 $210 $192 #
plane-surface $-1 -1 $-1 18.5 0 0 -1 0 0 0 0 1 forward_v I I I I #
coedge $-1 -1 $-1 $341 $195 $342 $343 reversed $131 $-1 #
coedge $-1 -1 $-1 $195 $341 $344 $345 reversed $131 $-1 #
coedge $-1 -1 $-1 $346 $347 $348 $198 forward $349 $-1 #
coedge $-1 -1 $-1 $350 $351 $196 $274 forward $352 $-1 #
edge $-1 -1 $-1 $211 1.7047432422285023e-016 $278 1.5707963267948968 $273 $207 forward @7 unknown #
coedge $-1 -1 $-1 $353 $354 $197 $276 forward $355 $-1 #
edge $-1 -1 $-1 $277 -1.5707963267948968 $145 -1.7047432422285023e-016 $275 $147 forward @7 unknown #
vertex $-1 -1 $-1 $356 $357 #
vertex $-1 -1 $-1 $358 $359 #
straight-curve $-1 -1 $-1 -2.6246595344563632e-031 -0.75 -18.5 0 -1 0 I I #
coedge $-1 -1 $-1 $360 $316 $199 $281 forward $361 $-1 #
edge $-1 -1 $-1 $146 1.5707963267948966 $286 3.1415926535897931 $280 $147 forward @7 unknown #
coedge $-1 -1 $-1 $362 $200 $203 $290 reversed $285 $-1 #
coedge $-1 -1 $-1 $200 $362 $360 $363 forward $285 $-1 #
coedge $-1 -1 $-1 $364 $365 $341 $201 reversed $339 $-1 #
loop $-1 -1 $-1 $-1 $200 $366 #
vertex $-1 -1 $-1 $367 $368 #
straight-curve $-1 -1 $-1 -18.5 -0.75 -8.8817841970012543e-016 0 -1 0 I I #
coedge $-1 -1 $-1 $215 $369 $202 $289 forward $193 $-1 #
edge $-1 -1 $-1 $370 -18.5 $206 -2.6246595344563632e-031 $202 $371 forward @7 unknown #
edge $-1 -1 $-1 $370 -18.5 $205 8.8817841970012543e-016 $282 $372 forward @7 unknown #
face $-1 -1 $-1 $373 $204 $20 $-1 $374 reversed single #
edge $-1 -1 $-1 $205 8.8817841970012543e-016 $375 18.5 $365 $372 forward @7 unknown #
point $-1 -1 $-1 -18.5 -0.75 -8.8817841970012543e-016 #
edge $-1 -1 $-1 $206 -2.6246595344563632e-031 $376 18.5 $297 $371 forward @7 unknown #
point $-1 -1 $-1 -2.6246595344563632e-031 -0.75 18.5 #
coedge $-1 -1 $-1 $297 $208 $377 $378 reversed $298 $-1 #
coedge $-1 -1 $-1 $208 $296 $213 $294 reversed $298 $-1 #
loop $-1 -1 $-1 $-1 $208 $373 #
coedge $-1 -1 $-1 $379 $210 $351 $302 forward $268 $-1 #
coedge $-1 -1 $-1 $210 $379 $353 $222 reversed $268 $-1 #
coedge $-1 -1 $-1 $219 $377 $88 $139 reversed $310 $-1 #
edge $-1 -1 $-1 $211 8.8817841970012543e-016 $380 18.5 $299 $381 forward @7 unknown #
point $-1 -1 $-1 18.5 -0.75 -8.8817841970012543e-016 #
coedge $-1 -1 $-1 $214 $213 $309 $382 forward $216 $-1 #
coedge $-1 -1 $-1 $369 $215 $316 $224 forward $193 $-1 #
face $-1 -1 $-1 $383 $216 $20 $-1 $194 forward single #
vertex $-1 -1 $-1 $382 $384 #
straight-curve $-1 -1 $-1 0 0.75 18.5 -1 0 0 I I #
coedge $-1 -1 $-1 $377 $219 $304 $382 reversed $310 $-1 #
loop $-1 -1 $-1 $-1 $301 $385 #
straight-curve $-1 -1 $-1 18.5 0.75 0 0 0 -1 I I #
face $-1 -1 $-1 $386 $361 $20 $-1 $313 reversed single #
plane-surface $-1 -1 $-1 0 0.75 0 0 -1 0 0 0 -1 forward_v I I I I #
vertex $-1 -1 $-1 $387 $388 #
vertex $-1 -1 $-1 $224 $389 #
coedge $-1 -1 $-1 $280 $360 $305 $224 reversed $361 $-1 #
point $-1 -1 $-1 13.875 0 1.6991974338169587e-015 #
plane-surface $-1 -1 $-1 18.5 0 0 -1 0 0 0 0 1 forward_v I I I I #
coedge $-1 -1 $-1 $235 $233 $237 $323 reversed $153 $-1 #
edge $-1 -1 $-1 $248 -18.5 $325 18.5 $247 $390 forward @7 unknown #
vertex $-1 -1 $-1 $323 $391 #
straight-curve $-1 -1 $-1 -18.5 -0.75 0 0 0 -1 I I #
edge $-1 -1 $-1 $321 -0.75 $325 0.75 $319 $392 forward @7 unknown #
straight-curve $-1 -1 $-1 0 -0.75 -18.5 -1 0 0 I I #
vertex $-1 -1 $-1 $240 $393 #
straight-curve $-1 -1 $-1 0 0.75 -18.5 1 0 0 I I #
point $-1 -1 $-1 18.5 0.75 -18.5 #
point $-1 -1 $-1 18.5 -0.75 -18.5 #
straight-curve $-1 -1 $-1 -18.5 0 18.5 0 -1 0 I I #
point $-1 -1 $-1 -18.5 0.75 18.5 #
point $-1 -1 $-1 -18.5 -0.75 18.5 #
straight-curve $-1 -1 $-1 18.5 -0.75 0 0 0 -1 I I #
straight-curve $-1 -1 $-1 18.5 0.75 0 0 0 -1 I I #
edge $-1 -1 $-1 $263 0 $265 3.1415926535897931 $257 $394 forward @7 unknown #
ellipse-curve $-1 -1 $-1 -4.4408920985006262e-016 1.5 0 0 -1 0 -13.875 0 -1.6991974338169525e-015 1 I I #
point $-1 -1 $-1 13.875 1.5 1.6991974338169593e-015 #
point $-1 -1 $-1 -13.875 1.5 -1.6991974338169525e-015 #
face $-1 -1 $-1 $291 $395 $20 $-1 $374 reversed single #
loop $-1 -1 $-1 $-1 $284 $267 #
plane-surface $-1 -1 $-1 -18.5 0 0 1 0 0 0 0 -1 forward_v I I I I #
coedge $-1 -1 $-1 $271 $270 $133 $201 forward $131 $-1 #
coedge $-1 -1 $-1 $396 $397 $270 $343 forward $398 $-1 #
edge $-1 -1 $-1 $286 -3.1415926535897931 $277 -1.5707963267948968 $342 $147 forward @7 unknown #
coedge $-1 -1 $-1 $399 $400 $271 $345 forward $395 $-1 #
edge $-1 -1 $-1 $278 1.5707963267948968 $205 3.1415926535897931 $344 $207 forward @7 unknown #
coedge $-1 -1 $-1 $401 $272 $400 $358 forward $349 $-1 #
coedge $-1 -1 $-1 $272 $401 $396 $402 forward $349 $-1 #
coedge $-1 -1 $-1 $403 $404 $132 $198 reversed $405 $-1 #
loop $-1 -1 $-1 $-1 $272 $383 #
coedge $-1 -1 $-1 $351 $273 $404 $406 reversed $352 $-1 #
coedge $-1 -1 $-1 $273 $350 $299 $302 reversed $352 $-1 #
loop $-1 -1 $-1 $-1 $273 $407 #
coedge $-1 -1 $-1 $354 $275 $300 $222 forward $355 $-1 #
coedge $-1 -1 $-1 $275 $353 $403 $356 reversed $355 $-1 #
loop $-1 -1 $-1 $-1 $275 $408 #
edge $-1 -1 $-1 $277 -2.6246595344563632e-031 $314 18.5 $354 $409 forward @7 unknown #
point $-1 -1 $-1 -2.6246595344563632e-031 0.75 -18.5 #
edge $-1 -1 $-1 $278 2.6246595344563632e-031 $375 18.5 $400 $410 forward @7 unknown #
point $-1 -1 $-1 -2.6246595344563632e-031 -0.75 -18.5 #
coedge $-1 -1 $-1 $316 $280 $283 $363 reversed $361 $-1 #
loop $-1 -1 $-1 $-1 $280 $312 #
coedge $-1 -1 $-1 $283 $282 $369 $411 reversed $285 $-1 #
edge $-1 -1 $-1 $315 -18.5 $286 8.8817841970012543e-016 $360 $412 forward @7 unknown #
coedge $-1 -1 $-1 $413 $284 $397 $367 forward $339 $-1 #
coedge $-1 -1 $-1 $284 $413 $399 $292 reversed $339 $-1 #
face $-1 -1 $-1 $385 $285 $20 $-1 $340 reversed single #
edge $-1 -1 $-1 $286 8.8817841970012543e-016 $414 18.5 $397 $412 forward @7 unknown #
point $-1 -1 $-1 -18.5 0.75 -8.8817841970012543e-016 #
coedge $-1 -1 $-1 $288 $305 $362 $411 forward $193 $-1 #
vertex $-1 -1 $-1 $411 $415 #
straight-curve $-1 -1 $-1 0 -0.75 18.5 1 0 0 I I #
straight-curve $-1 -1 $-1 -18.5 -0.75 0 0 0 -1 I I #
face $-1 -1 $-1 $407 $298 $20 $-1 $374 reversed single #
plane-surface $-1 -1 $-1 0 -0.75 0 0 1 0 0 0 1 forward_v I I I I #
vertex $-1 -1 $-1 $416 $417 #
vertex $-1 -1 $-1 $382 $418 #
coedge $-1 -1 $-1 $301 $309 $296 $378 forward $310 $-1 #
edge $-1 -1 $-1 $376 -18.5 $211 8.8817841970012543e-016 $377 $381 forward @7 unknown #
coedge $-1 -1 $-1 $300 $299 $419 $387 reversed $268 $-1 #
vertex $-1 -1 $-1 $302 $420 #
straight-curve $-1 -1 $-1 18.5 -0.75 0 0 0 -1 I I #
edge $-1 -1 $-1 $376 -0.75 $307 0.75 $309 $421 forward @7 unknown #
face $-1 -1 $-1 $366 $349 $20 $-1 $422 reversed single #
point $-1 -1 $-1 18.5 0.75 18.5 #
face $-1 -1 $-1 $-1 $310 $20 $-1 $269 reversed single #
face $-1 -1 $-1 $423 $398 $20 $-1 $313 reversed single #
edge $-1 -1 $-1 $314 -0.75 $380 0.75 $379 $424 forward @7 unknown #
point $-1 -1 $-1 18.5 0.75 -18.5 #
point $-1 -1 $-1 -18.5 0.75 18.5 #
straight-curve $-1 -1 $-1 -18.5 0.75 0 0 0 -1 I I #
point $-1 -1 $-1 -18.5 -0.75 -18.5 #
straight-curve $-1 -1 $-1 -18.5 0 -18.5 0 1 0 I I #
point $-1 -1 $-1 -18.5 0.75 -18.5 #
ellipse-curve $-1 -1 $-1 -4.4408920985006262e-016 1.5 4.4408920985006262e-016 0 -1 0 13.875 0 1.2551082239668966e-015 1 I I #
loop $-1 -1 $-1 $-1 $344 $338 #
coedge $-1 -1 $-1 $397 $342 $347 $402 reversed $398 $-1 #
coedge $-1 -1 $-1 $342 $396 $364 $367 reversed $398 $-1 #
loop $-1 -1 $-1 $-1 $342 $386 #
coedge $-1 -1 $-1 $400 $344 $365 $292 forward $395 $-1 #
coedge $-1 -1 $-1 $344 $399 $346 $358 reversed $395 $-1 #
coedge $-1 -1 $-1 $347 $346 $413 $416 forward $349 $-1 #
edge $-1 -1 $-1 $414 -18.5 $277 -2.6246595344563632e-031 $396 $409 forward @7 unknown #
coedge $-1 -1 $-1 $419 $348 $354 $356 forward $405 $-1 #
coedge $-1 -1 $-1 $348 $419 $350 $406 forward $405 $-1 #
loop $-1 -1 $-1 $-1 $348 $423 #
edge $-1 -1 $-1 $380 -18.5 $278 2.6246595344563632e-031 $350 $410 forward @7 unknown #
face $-1 -1 $-1 $408 $352 $20 $-1 $374 reversed single #
face $-1 -1 $-1 $221 $355 $20 $-1 $313 reversed single #
straight-curve $-1 -1 $-1 0 0.75 -18.5 1 0 0 I I #
straight-curve $-1 -1 $-1 0 -0.75 -18.5 -1 0 0 I I #
edge $-1 -1 $-1 $315 -0.75 $370 0.75 $362 $425 forward @7 unknown #
straight-curve $-1 -1 $-1 -18.5 0.75 0 0 0 -1 I I #
coedge $-1 -1 $-1 $365 $364 $401 $416 reversed $339 $-1 #
vertex $-1 -1 $-1 $402 $426 #
point $-1 -1 $-1 -18.5 -0.75 18.5 #
edge $-1 -1 $-1 $375 -0.75 $414 0.75 $413 $427 forward @7 unknown #
point $-1 -1 $-1 -18.5 -0.75 -18.5 #
point $-1 -1 $-1 18.5 -0.75 18.5 #
coedge $-1 -1 $-1 $404 $403 $379 $387 forward $405 $-1 #
point $-1 -1 $-1 18.5 -0.75 -18.5 #
straight-curve $-1 -1 $-1 18.5 0 18.5 0 1 0 I I #
plane-surface $-1 -1 $-1 0 0 -18.5 0 0 1 1 0 0 forward_v I I I I #
face $-1 -1 $-1 $306 $405 $20 $-1 $422 reversed single #
straight-curve $-1 -1 $-1 18.5 0 -18.5 0 -1 0 I I #
straight-curve $-1 -1 $-1 -18.5 0 18.5 0 -1 0 I I #
point $-1 -1 $-1 -18.5 0.75 -18.5 #
straight-curve $-1 -1 $-1 -18.5 0 -18.5 0 1 0 I I #
End-of-ACIS-data 