700 0 2 0           
24 FBMach with ACIS - 7.0.3 13 ACIS 7.0.3 NT 24 Thu May 16 09:01:41 2002 
1 9.9999999999999995e-007 1e-010 
body $2 -1 $-1 $3 $-1 $4 #
bdycol-kcp $-1 -1 1 3 $5 $6 $7 #
model_id-kcp-attrib $-1 -1 $-1 $-1 $0 1 1021554101 1021554101 -1290338303 1 #
lump $-1 -1 $-1 $-1 $8 $0 #
transform $-1 -1 1 0 0 0 1 0 0 0 1 0 0 0 1 rotate no_reflect no_shear #
body $9 -1 $-1 $10 $-1 $11 #
body $12 -1 $-1 $13 $-1 $14 #
body $15 -1 $-1 $16 $-1 $17 #
shell $-1 -1 $-1 $-1 $-1 $18 $-1 $3 #
model_id-kcp-attrib $-1 -1 $-1 $-1 $5 1 1021554101 1021554101 -1290338302 1 #
lump $-1 -1 $-1 $-1 $19 $5 #
transform $-1 -1 1 0 0 0 1 0 0 0 1 0 0.75 0 1 no_rotate no_reflect no_shear #
rgb_color-st-attrib $-1 -1 $20 $-1 $6 0.5 1 1 #
lump $-1 -1 $-1 $-1 $21 $6 #
transform $-1 -1 1 0 0 0 1 0 0 0 1 0 0.75 0 1 no_rotate no_reflect no_shear #
rgb_color-st-attrib $-1 -1 $22 $-1 $7 0.5 1 1 #
lump $-1 -1 $-1 $-1 $23 $7 #
transform $-1 -1 1 0 0 0 1 0 0 0 1 0 0 0 1 no_rotate no_reflect no_shear #
face $24 -1 $-1 $25 $26 $8 $-1 $27 reversed single #
shell $-1 -1 $-1 $-1 $-1 $28 $-1 $10 #
model_id-kcp-attrib $-1 -1 $-1 $12 $6 1 1021554101 1021554101 -1284374525 1 #
shell $-1 -1 $-1 $-1 $-1 $29 $-1 $13 #
model_id-kcp-attrib $-1 -1 $-1 $15 $7 1 1021554101 1021554101 -1279787004 1 #
shell $-1 -1 $-1 $-1 $-1 $30 $-1 $16 #
model_id-kcp-attrib $-1 -1 $-1 $-1 $18 1 1021554101 1021554101 -1290338303 2 #
face $31 -1 $-1 $32 $33 $8 $-1 $34 forward single #
loop $-1 -1 $-1 $35 $36 $18 #
plane-surface $-1 -1 $-1 0 0 0 0 1 0 1 0 0 forward_v I I I I #
face $-1 -1 $-1 $37 $38 $19 $-1 $39 forward single #
face $-1 -1 $-1 $40 $41 $21 $-1 $42 reversed single #
face $-1 -1 $-1 $43 $44 $23 $-1 $45 forward single #
model_id-kcp-attrib $-1 -1 $-1 $-1 $25 1 1021554101 1021554101 -1290338303 3 #
face $46 -1 $-1 $47 $48 $8 $-1 $49 forward single #
loop $-1 -1 $-1 $-1 $50 $25 #
cone-surface $-1 -1 $-1 0 0 0 0 1 0 18.5 0 0 1 I I 0 1 18.5 forward I I I I #
loop $-1 -1 $-1 $-1 $51 $18 #
coedge $-1 -1 $-1 $52 $52 $53 $54 reversed $26 $-1 #
face $-1 -1 $-1 $55 $56 $19 $-1 $57 reversed single #
loop $-1 -1 $-1 $-1 $58 $28 #
plane-surface $-1 -1 $-1 0 0 18.5 0 0 1 1 0 0 forward_v I I I I #
face $-1 -1 $-1 $59 $60 $21 $-1 $42 reversed single #
loop $-1 -1 $-1 $-1 $61 $29 #
cone-surface $-1 -1 $-1 -2.6246595344563632e-031 -0.75 -8.8817841970012543e-016 0 -1 0 18.5 0 3.1537749981227294e-015 1 I I 0 1 18.5 forward I I I I #
face $-1 -1 $-1 $62 $63 $23 $-1 $64 forward single #
loop $-1 -1 $-1 $65 $66 $30 #
cone-surface $-1 -1 $-1 0 0 0 0 1 0 -13.875 0 -1.6991974338169525e-015 1 I I 0 1 13.875 forward I I I I #
model_id-kcp-attrib $-1 -1 $-1 $-1 $32 1 1021554101 1021554101 -1290338303 4 #
face $67 -1 $-1 $68 $69 $8 $-1 $70 forward single #
loop $-1 -1 $-1 $-1 $71 $32 #
cone-surface $-1 -1 $-1 0 0 0 0 1 0 18.5 0 0 1 I I 0 1 18.5 forward I I I I #
coedge $-1 -1 $-1 $72 $53 $73 $74 forward $33 $-1 #
coedge $-1 -1 $-1 $75 $75 $76 $77 reversed $35 $-1 #
coedge $-1 -1 $-1 $36 $36 $78 $79 reversed $26 $-1 #
coedge $-1 -1 $-1 $50 $80 $36 $54 forward $33 $-1 #
edge $81 -1 $-1 $82 0 $83 3.1415926535897931 $36 $84 forward @7 unknown #
face $85 -1 $-1 $86 $87 $19 $-1 $88 reversed single #
loop $-1 -1 $-1 $-1 $89 $37 #
plane-surface $-1 -1 $-1 0 0 -18.5 0 0 1 1 0 0 forward_v I I I I #
coedge $-1 -1 $-1 $90 $91 $92 $93 forward $38 $-1 #
face $-1 -1 $-1 $94 $95 $21 $-1 $42 reversed single #
loop $-1 -1 $-1 $-1 $96 $40 #
coedge $-1 -1 $-1 $97 $98 $99 $100 reversed $41 $-1 #
face $-1 -1 $-1 $-1 $101 $23 $-1 $102 reversed single #
loop $-1 -1 $-1 $-1 $103 $43 #
plane-surface $-1 -1 $-1 0 1.5 0 0 1 0 0 0 1 forward_v I I I I #
loop $-1 -1 $-1 $-1 $104 $30 #
coedge $-1 -1 $-1 $66 $66 $103 $105 forward $44 $-1 #
model_id-kcp-attrib $-1 -1 $-1 $-1 $47 1 1021554101 1021554101 -1290338303 5 #
face $106 -1 $-1 $107 $108 $8 $-1 $109 reversed single #
loop $-1 -1 $-1 $110 $111 $47 #
plane-surface $-1 -1 $-1 0 1.5 0 0 1 0 1 0 0 forward_v I I I I #
coedge $-1 -1 $-1 $112 $78 $80 $113 forward $48 $-1 #
coedge $-1 -1 $-1 $80 $50 $111 $114 reversed $33 $-1 #
coedge $-1 -1 $-1 $78 $112 $50 $74 reversed $48 $-1 #
edge $-1 -1 $-1 $83 0 $115 1.5 $73 $116 forward @7 unknown #
coedge $-1 -1 $-1 $51 $51 $117 $118 reversed $35 $-1 #
coedge $-1 -1 $-1 $119 $120 $51 $77 forward $108 $-1 #
edge $121 -1 $-1 $122 0 $123 3.1415926535897931 $51 $124 forward @7 unknown #
coedge $-1 -1 $-1 $71 $73 $52 $79 forward $48 $-1 #
edge $125 -1 $-1 $83 0 $82 3.1415926535897931 $52 $126 forward @7 unknown #
coedge $-1 -1 $-1 $53 $72 $71 $113 reversed $33 $-1 #
attrib_edge_convexity-kcp-attrib $-1 -1 $127 $-1 $54 1 #
vertex $-1 -1 $-1 $79 $128 #
vertex $-1 -1 $-1 $79 $129 #
ellipse-curve $-1 -1 $-1 0 0 0 0 1 0 -18.5 0 -2.2655965784226034e-015 1 I I #
model_id-kcp-attrib $-1 -1 $-1 $-1 $55 1 1021554101 1021554101 -1290338302 2 #
face $-1 -1 $-1 $130 $131 $19 $-1 $132 reversed single #
loop $-1 -1 $-1 $-1 $133 $55 #
plane-surface $-1 -1 $-1 0 -0.75 0 0 1 0 0 0 1 forward_v I I I I #
coedge $-1 -1 $-1 $134 $135 $136 $137 forward $56 $-1 #
coedge $-1 -1 $-1 $138 $58 $139 $140 forward $38 $-1 #
coedge $-1 -1 $-1 $58 $138 $141 $142 forward $38 $-1 #
coedge $-1 -1 $-1 $143 $144 $58 $93 reversed $145 $-1 #
edge $-1 -1 $-1 $146 -0.75 $147 0.75 $92 $148 forward @7 unknown #
face $-1 -1 $-1 $149 $150 $21 $-1 $42 reversed single #
loop $-1 -1 $-1 $-1 $151 $59 #
coedge $-1 -1 $-1 $152 $153 $154 $155 reversed $60 $-1 #
coedge $-1 -1 $-1 $156 $61 $157 $158 forward $41 $-1 #
coedge $-1 -1 $-1 $61 $156 $159 $160 reversed $41 $-1 #
coedge $-1 -1 $-1 $161 $162 $61 $100 forward $163 $-1 #
edge $-1 -1 $-1 $164 -1.7047432422285023e-016 $165 1.5707963267948966 $99 $166 forward @7 unknown #
loop $-1 -1 $-1 $-1 $167 $62 #
plane-surface $-1 -1 $-1 0 0 0 0 1 0 0 0 1 forward_v I I I I #
coedge $-1 -1 $-1 $103 $103 $66 $105 reversed $63 $-1 #
coedge $-1 -1 $-1 $104 $104 $167 $168 reversed $65 $-1 #
edge $-1 -1 $-1 $169 -3.1415926535897931 $169 3.1415926535897931 $66 $170 forward @7 unknown #
model_id-kcp-attrib $-1 -1 $-1 $-1 $68 1 1021554101 1021554101 -1290338303 6 #
face $171 -1 $-1 $-1 $172 $8 $-1 $173 reversed single #
loop $-1 -1 $-1 $-1 $119 $68 #
cone-surface $-1 -1 $-1 0 0 0 0 1 0 13.875 0 0 1 I I 0 1 13.875 forward I I I I #
loop $-1 -1 $-1 $-1 $174 $47 #
coedge $-1 -1 $-1 $175 $175 $72 $114 forward $69 $-1 #
coedge $-1 -1 $-1 $73 $71 $175 $176 reversed $48 $-1 #
edge $-1 -1 $-1 $82 0 $177 1.5 $71 $178 forward @7 unknown #
edge $-1 -1 $-1 $177 0 $115 3.1415926535897931 $111 $179 forward @7 unknown #
vertex $-1 -1 $-1 $176 $180 #
straight-curve $-1 -1 $-1 18.5 0 0 0 1 0 I I #
coedge $-1 -1 $-1 $181 $182 $75 $118 forward $172 $-1 #
edge $183 -1 $-1 $123 0 $122 3.1415926535897931 $75 $184 forward @7 unknown #
coedge $-1 -1 $-1 $185 $76 $182 $186 forward $108 $-1 #
coedge $-1 -1 $-1 $76 $185 $181 $187 reversed $108 $-1 #
attrib_edge_convexity-kcp-attrib $-1 -1 $188 $-1 $77 1 #
vertex $-1 -1 $-1 $118 $189 #
vertex $-1 -1 $-1 $118 $190 #
ellipse-curve $-1 -1 $-1 0 0 0 0 -1 0 -13.875 0 -1.6991974338169525e-015 1 I I #
attrib_edge_convexity-kcp-attrib $-1 -1 $191 $-1 $79 1 #
ellipse-curve $-1 -1 $-1 0 0 0 0 1 0 18.5 0 2.2655965784226038e-015 1 I I #
convexity-sys-attrib $-1 -1 $-1 $81 $54 #
point $-1 -1 $-1 -18.5 0 -2.2655965784226034e-015 #
point $-1 -1 $-1 18.5 0 2.2655965784226038e-015 #
face $192 -1 $-1 $193 $194 $19 $-1 $195 reversed single #
loop $-1 -1 $-1 $-1 $196 $86 #
plane-surface $-1 -1 $-1 -18.5 0 0 1 0 0 0 0 -1 forward_v I I I I #
coedge $-1 -1 $-1 $197 $141 $198 $199 forward $87 $-1 #
coedge $-1 -1 $-1 $200 $89 $197 $201 forward $56 $-1 #
coedge $-1 -1 $-1 $89 $200 $202 $203 forward $56 $-1 #
coedge $-1 -1 $-1 $144 $143 $89 $137 reversed $145 $-1 #
edge $-1 -1 $-1 $204 -0.75 $205 0.75 $136 $206 forward @7 unknown #
coedge $-1 -1 $-1 $91 $90 $207 $208 forward $38 $-1 #
coedge $-1 -1 $-1 $209 $210 $90 $140 reversed $194 $-1 #
edge $-1 -1 $-1 $147 -18.5 $211 18.5 $139 $212 forward @7 unknown #
coedge $-1 -1 $-1 $133 $213 $91 $142 reversed $87 $-1 #
edge $-1 -1 $-1 $214 -18.5 $146 18.5 $141 $215 forward @7 unknown #
coedge $-1 -1 $-1 $136 $92 $213 $216 forward $145 $-1 #
coedge $-1 -1 $-1 $92 $136 $209 $217 reversed $145 $-1 #
loop $-1 -1 $-1 $-1 $143 $193 #
vertex $-1 -1 $-1 $93 $218 #
vertex $-1 -1 $-1 $93 $219 #
straight-curve $-1 -1 $-1 18.5 0 18.5 0 1 0 I I #
face $-1 -1 $-1 $220 $221 $21 $-1 $222 forward single #
loop $-1 -1 $-1 $-1 $223 $94 #
coedge $-1 -1 $-1 $224 $225 $223 $226 forward $95 $-1 #
coedge $-1 -1 $-1 $227 $96 $228 $229 reversed $60 $-1 #
coedge $-1 -1 $-1 $96 $227 $98 $160 forward $60 $-1 #
coedge $-1 -1 $-1 $230 $231 $96 $155 forward $232 $-1 #
edge $-1 -1 $-1 $233 -3.1415926535897931 $234 -1.5707963267948966 $154 $235 forward @7 unknown #
coedge $-1 -1 $-1 $98 $97 $236 $237 reversed $41 $-1 #
coedge $-1 -1 $-1 $225 $224 $238 $158 reversed $95 $-1 #
edge $-1 -1 $-1 $164 -1.5 $239 0 $238 $240 forward @7 unknown #
coedge $-1 -1 $-1 $241 $242 $243 $160 forward $244 $-1 #
edge $-1 -1 $-1 $165 -1.5 $234 0 $159 $245 forward @7 unknown #
coedge $-1 -1 $-1 $162 $99 $242 $246 reversed $163 $-1 #
coedge $-1 -1 $-1 $99 $161 $247 $248 forward $163 $-1 #
loop $-1 -1 $-1 $-1 $99 $249 #
vertex $-1 -1 $-1 $250 $251 #
vertex $-1 -1 $-1 $252 $253 #
ellipse-curve $-1 -1 $-1 -2.6246595344563632e-031 0.75 -8.8817841970012543e-016 0 -1 0 18.5 0 3.1537749981227294e-015 1 I I #
coedge $-1 -1 $-1 $167 $167 $104 $168 forward $101 $-1 #
edge $-1 -1 $-1 $254 -3.1415926535897931 $254 3.1415926535897931 $104 $255 forward @7 unknown #
vertex $-1 -1 $-1 $105 $256 #
ellipse-curve $-1 -1 $-1 0 1.5 0 0 -1 0 13.875 0 1.6991974338169587e-015 1 I I #
model_id-kcp-attrib $-1 -1 $-1 $-1 $107 1 1021554101 1021554101 -1290338303 7 #
loop $-1 -1 $-1 $-1 $181 $107 #
cone-surface $-1 -1 $-1 0 0 0 0 1 0 13.875 0 0 1 I I 0 1 13.875 forward I I I I #
coedge $-1 -1 $-1 $257 $257 $185 $258 forward $110 $-1 #
coedge $-1 -1 $-1 $111 $111 $112 $176 forward $69 $-1 #
edge $-1 -1 $-1 $115 0 $177 3.1415926535897931 $175 $259 forward @7 unknown #
vertex $-1 -1 $-1 $176 $260 #
straight-curve $-1 -1 $-1 -18.5 0 -2.2655217545713979e-015 0 1 0 I I #
ellipse-curve $-1 -1 $-1 0 1.5 8.8817841970012523e-016 0 1 0 -18.5 0 -3.1537749981227286e-015 1 I I #
point $-1 -1 $-1 18.5 1.5 2.2655965784226042e-015 #
coedge $-1 -1 $-1 $261 $117 $120 $187 forward $172 $-1 #
coedge $-1 -1 $-1 $117 $261 $119 $186 reversed $172 $-1 #
attrib_edge_convexity-kcp-attrib $-1 -1 $262 $-1 $118 1 #
ellipse-curve $-1 -1 $-1 0 0 0 0 -1 0 13.875 0 1.6991974338169587e-015 1 I I #
coedge $-1 -1 $-1 $120 $119 $174 $258 reversed $108 $-1 #
edge $-1 -1 $-1 $123 3.8495687516242128e-030 $263 1.5 $182 $264 forward @7 unknown #
edge $-1 -1 $-1 $122 0 $265 1.5 $181 $266 forward @7 unknown #
convexity-sys-attrib $-1 -1 $-1 $121 $77 #
point $-1 -1 $-1 -13.875 0 -1.6991974338169525e-015 #
point $-1 -1 $-1 13.875 0 1.6991974338169587e-015 #
convexity-sys-attrib $-1 -1 $-1 $125 $79 #
model_id-kcp-attrib $-1 -1 $-1 $-1 $130 1 1021554101 1021554101 -1290338302 3 #
face $-1 -1 $-1 $-1 $145 $19 $-1 $267 reversed single #
loop $-1 -1 $-1 $-1 $209 $130 #
plane-surface $-1 -1 $-1 0 0.75 0 0 -1 0 0 0 -1 forward_v I I I I #
coedge $-1 -1 $-1 $268 $207 $210 $269 forward $131 $-1 #
coedge $-1 -1 $-1 $213 $133 $134 $201 reversed $87 $-1 #
coedge $-1 -1 $-1 $207 $268 $133 $199 reversed $131 $-1 #
edge $-1 -1 $-1 $214 -18.5 $270 18.5 $198 $271 forward @7 unknown #
coedge $-1 -1 $-1 $135 $134 $268 $272 forward $56 $-1 #
edge $-1 -1 $-1 $205 -18.5 $270 18.5 $197 $273 forward @7 unknown #
coedge $-1 -1 $-1 $210 $209 $135 $203 reversed $194 $-1 #
edge $-1 -1 $-1 $274 -18.5 $204 18.5 $202 $275 forward @7 unknown #
vertex $-1 -1 $-1 $137 $276 #
vertex $-1 -1 $-1 $216 $277 #
straight-curve $-1 -1 $-1 18.5 0 -18.5 0 -1 0 I I #
coedge $-1 -1 $-1 $196 $198 $138 $208 reversed $131 $-1 #
edge $-1 -1 $-1 $211 -0.75 $214 0.75 $207 $278 forward @7 unknown #
coedge $-1 -1 $-1 $202 $139 $144 $217 forward $194 $-1 #
coedge $-1 -1 $-1 $139 $202 $196 $269 reversed $194 $-1 #
vertex $-1 -1 $-1 $140 $279 #
straight-curve $-1 -1 $-1 0 0.75 18.5 -1 0 0 I I #
coedge $-1 -1 $-1 $141 $197 $143 $216 reversed $87 $-1 #
vertex $-1 -1 $-1 $208 $280 #
straight-curve $-1 -1 $-1 0 -0.75 18.5 1 0 0 I I #
edge $-1 -1 $-1 $146 -18.5 $205 18.5 $143 $281 forward @7 unknown #
edge $-1 -1 $-1 $147 -18.5 $204 18.5 $144 $282 forward @7 unknown #
point $-1 -1 $-1 18.5 -0.75 18.5 #
point $-1 -1 $-1 18.5 0.75 18.5 #
face $-1 -1 $-1 $283 $284 $21 $-1 $285 reversed single #
loop $-1 -1 $-1 $-1 $243 $149 #
plane-surface $-1 -1 $-1 0 0 18.5 0 0 1 1 0 0 forward_v I I I I #
coedge $-1 -1 $-1 $286 $287 $288 $226 reversed $150 $-1 #
coedge $-1 -1 $-1 $157 $151 $289 $290 reversed $95 $-1 #
coedge $-1 -1 $-1 $151 $157 $291 $292 reversed $95 $-1 #
edge $-1 -1 $-1 $293 -1.5 $294 0 $288 $295 forward @7 unknown #
coedge $-1 -1 $-1 $153 $152 $296 $297 reversed $60 $-1 #
coedge $-1 -1 $-1 $298 $299 $300 $229 forward $301 $-1 #
edge $-1 -1 $-1 $302 -1.5 $233 0 $228 $303 forward @7 unknown #
coedge $-1 -1 $-1 $231 $154 $304 $305 reversed $232 $-1 #
coedge $-1 -1 $-1 $154 $230 $298 $306 forward $232 $-1 #
loop $-1 -1 $-1 $-1 $154 $307 #
vertex $-1 -1 $-1 $308 $309 #
vertex $-1 -1 $-1 $310 $311 #
ellipse-curve $-1 -1 $-1 -2.6246595344563632e-031 -0.75 -8.8817841970012543e-016 0 1 0 18.5 0 3.1537749981227294e-015 1 I I #
coedge $-1 -1 $-1 $312 $313 $156 $237 forward $314 $-1 #
edge $-1 -1 $-1 $234 -1.5707963267948966 $239 1.7047432422285023e-016 $236 $235 forward @7 unknown #
coedge $-1 -1 $-1 $315 $316 $317 $158 forward $284 $-1 #
vertex $-1 -1 $-1 $318 $319 #
straight-curve $-1 -1 $-1 18.5 -0.75 -8.8817841970012543e-016 0 -1 0 I I #
coedge $-1 -1 $-1 $320 $159 $313 $310 forward $244 $-1 #
coedge $-1 -1 $-1 $159 $320 $161 $246 forward $244 $-1 #
coedge $-1 -1 $-1 $321 $304 $153 $160 reversed $221 $-1 #
loop $-1 -1 $-1 $-1 $159 $322 #
straight-curve $-1 -1 $-1 -2.6246595344563632e-031 -0.75 18.5 0 -1 0 I I #
edge $-1 -1 $-1 $323 -18.5 $165 2.6246595344563632e-031 $161 $324 forward @7 unknown #
coedge $-1 -1 $-1 $325 $317 $162 $248 reversed $326 $-1 #
edge $-1 -1 $-1 $323 -18.5 $164 8.8817841970012543e-016 $247 $327 forward @7 unknown #
face $-1 -1 $-1 $328 $163 $21 $-1 $329 reversed single #
edge $-1 -1 $-1 $164 8.8817841970012543e-016 $330 18.5 $316 $327 forward @7 unknown #
point $-1 -1 $-1 18.5 0.75 -8.8817841970012543e-016 #
edge $-1 -1 $-1 $165 2.6246595344563632e-031 $331 18.5 $332 $324 forward @7 unknown #
point $-1 -1 $-1 -2.6246595344563632e-031 0.75 18.5 #
vertex $-1 -1 $-1 $168 $333 #
ellipse-curve $-1 -1 $-1 0 0 0 0 -1 0 -13.875 0 -1.6991974338169525e-015 1 I I #
point $-1 -1 $-1 -13.875 1.5 -1.6991974338169525e-015 #
coedge $-1 -1 $-1 $174 $174 $261 $334 forward $110 $-1 #
edge $-1 -1 $-1 $265 0 $263 3.1415926535897931 $174 $335 forward @7 unknown #
ellipse-curve $-1 -1 $-1 8.8817841970012523e-016 1.5 -8.8817841970012523e-016 0 1 0 18.5 0 3.1537749981227294e-015 1 I I #
point $-1 -1 $-1 -18.5 1.5 -2.2655965784226034e-015 #
coedge $-1 -1 $-1 $182 $181 $257 $334 reversed $172 $-1 #
convexity-sys-attrib $-1 -1 $-1 $183 $118 #
vertex $-1 -1 $-1 $334 $336 #
straight-curve $-1 -1 $-1 13.875 0 0 0 1 2.2655217545713979e-015 I I #
vertex $-1 -1 $-1 $334 $337 #
straight-curve $-1 -1 $-1 -13.875 0 -1.6991413159285484e-015 0 1 0 I I #
plane-surface $-1 -1 $-1 18.5 0 0 -1 0 0 0 0 1 forward_v I I I I #
coedge $-1 -1 $-1 $198 $196 $200 $272 reversed $131 $-1 #
edge $-1 -1 $-1 $211 -18.5 $274 18.5 $210 $338 forward @7 unknown #
vertex $-1 -1 $-1 $272 $339 #
straight-curve $-1 -1 $-1 -18.5 -0.75 0 0 0 -1 I I #
edge $-1 -1 $-1 $270 -0.75 $274 0.75 $268 $340 forward @7 unknown #
straight-curve $-1 -1 $-1 0 -0.75 -18.5 -1 0 0 I I #
vertex $-1 -1 $-1 $203 $341 #
straight-curve $-1 -1 $-1 0 0.75 -18.5 1 0 0 I I #
point $-1 -1 $-1 18.5 0.75 -18.5 #
point $-1 -1 $-1 18.5 -0.75 -18.5 #
straight-curve $-1 -1 $-1 -18.5 0 18.5 0 -1 0 I I #
point $-1 -1 $-1 -18.5 0.75 18.5 #
point $-1 -1 $-1 -18.5 -0.75 18.5 #
straight-curve $-1 -1 $-1 18.5 -0.75 0 0 0 -1 I I #
straight-curve $-1 -1 $-1 18.5 0.75 0 0 0 -1 I I #
face $-1 -1 $-1 $342 $343 $21 $-1 $344 reversed single #
loop $-1 -1 $-1 $-1 $238 $220 #
plane-surface $-1 -1 $-1 18.5 0 0 -1 0 0 0 0 1 forward_v I I I I #
coedge $-1 -1 $-1 $345 $223 $346 $347 reversed $150 $-1 #
coedge $-1 -1 $-1 $223 $345 $348 $349 reversed $150 $-1 #
coedge $-1 -1 $-1 $350 $351 $352 $226 forward $353 $-1 #
coedge $-1 -1 $-1 $354 $355 $224 $290 forward $356 $-1 #
edge $-1 -1 $-1 $239 1.7047432422285023e-016 $294 1.5707963267948968 $289 $235 forward @7 unknown #
coedge $-1 -1 $-1 $357 $358 $225 $292 forward $359 $-1 #
edge $-1 -1 $-1 $293 -1.5707963267948968 $164 -1.7047432422285023e-016 $291 $166 forward @7 unknown #
vertex $-1 -1 $-1 $360 $361 #
vertex $-1 -1 $-1 $362 $363 #
straight-curve $-1 -1 $-1 -2.6246595344563632e-031 -0.75 -18.5 0 -1 0 I I #
coedge $-1 -1 $-1 $364 $332 $227 $297 forward $365 $-1 #
edge $-1 -1 $-1 $165 1.5707963267948966 $302 3.1415926535897931 $296 $166 forward @7 unknown #
coedge $-1 -1 $-1 $366 $228 $231 $306 reversed $301 $-1 #
coedge $-1 -1 $-1 $228 $366 $364 $367 forward $301 $-1 #
coedge $-1 -1 $-1 $368 $369 $345 $229 reversed $343 $-1 #
loop $-1 -1 $-1 $-1 $228 $370 #
vertex $-1 -1 $-1 $371 $372 #
straight-curve $-1 -1 $-1 -18.5 -0.75 -8.8817841970012543e-016 0 -1 0 I I #
coedge $-1 -1 $-1 $243 $373 $230 $305 forward $221 $-1 #
edge $-1 -1 $-1 $374 -18.5 $234 -2.6246595344563632e-031 $230 $375 forward @7 unknown #
edge $-1 -1 $-1 $374 -18.5 $233 8.8817841970012543e-016 $298 $376 forward @7 unknown #
face $-1 -1 $-1 $377 $232 $21 $-1 $378 reversed single #
edge $-1 -1 $-1 $233 8.8817841970012543e-016 $379 18.5 $369 $376 forward @7 unknown #
point $-1 -1 $-1 -18.5 -0.75 -8.8817841970012543e-016 #
edge $-1 -1 $-1 $234 -2.6246595344563632e-031 $380 18.5 $313 $375 forward @7 unknown #
point $-1 -1 $-1 -2.6246595344563632e-031 -0.75 18.5 #
coedge $-1 -1 $-1 $313 $236 $381 $382 reversed $314 $-1 #
coedge $-1 -1 $-1 $236 $312 $241 $310 reversed $314 $-1 #
loop $-1 -1 $-1 $-1 $236 $377 #
coedge $-1 -1 $-1 $383 $238 $355 $318 forward $284 $-1 #
coedge $-1 -1 $-1 $238 $383 $357 $250 reversed $284 $-1 #
coedge $-1 -1 $-1 $247 $381 $97 $158 reversed $326 $-1 #
edge $-1 -1 $-1 $239 8.8817841970012543e-016 $384 18.5 $315 $385 forward @7 unknown #
point $-1 -1 $-1 18.5 -0.75 -8.8817841970012543e-016 #
coedge $-1 -1 $-1 $242 $241 $325 $386 forward $244 $-1 #
coedge $-1 -1 $-1 $373 $243 $332 $252 forward $221 $-1 #
face $-1 -1 $-1 $387 $244 $21 $-1 $222 forward single #
vertex $-1 -1 $-1 $386 $388 #
straight-curve $-1 -1 $-1 0 0.75 18.5 -1 0 0 I I #
coedge $-1 -1 $-1 $381 $247 $320 $386 reversed $326 $-1 #
loop $-1 -1 $-1 $-1 $317 $389 #
straight-curve $-1 -1 $-1 18.5 0.75 0 0 0 -1 I I #
face $-1 -1 $-1 $390 $365 $21 $-1 $329 reversed single #
plane-surface $-1 -1 $-1 0 0.75 0 0 -1 0 0 0 -1 forward_v I I I I #
vertex $-1 -1 $-1 $391 $392 #
vertex $-1 -1 $-1 $252 $393 #
coedge $-1 -1 $-1 $296 $364 $321 $252 reversed $365 $-1 #
point $-1 -1 $-1 13.875 0 1.6991974338169587e-015 #
edge $-1 -1 $-1 $263 0 $265 3.1415926535897931 $257 $394 forward @7 unknown #
ellipse-curve $-1 -1 $-1 -4.4408920985006262e-016 1.5 0 0 -1 0 -13.875 0 -1.6991974338169525e-015 1 I I #
point $-1 -1 $-1 13.875 1.5 1.6991974338169593e-015 #
point $-1 -1 $-1 -13.875 1.5 -1.6991974338169525e-015 #
straight-curve $-1 -1 $-1 -18.5 0.75 0 0 0 -1 I I #
point $-1 -1 $-1 -18.5 -0.75 -18.5 #
straight-curve $-1 -1 $-1 -18.5 0 -18.5 0 1 0 I I #
point $-1 -1 $-1 -18.5 0.75 -18.5 #
face $-1 -1 $-1 $307 $395 $21 $-1 $378 reversed single #
loop $-1 -1 $-1 $-1 $300 $283 #
plane-surface $-1 -1 $-1 -18.5 0 0 1 0 0 0 0 -1 forward_v I I I I #
coedge $-1 -1 $-1 $287 $286 $152 $229 forward $150 $-1 #
coedge $-1 -1 $-1 $396 $397 $286 $347 forward $398 $-1 #
edge $-1 -1 $-1 $302 -3.1415926535897931 $293 -1.5707963267948968 $346 $166 forward @7 unknown #
coedge $-1 -1 $-1 $399 $400 $287 $349 forward $395 $-1 #
edge $-1 -1 $-1 $294 1.5707963267948968 $233 3.1415926535897931 $348 $235 forward @7 unknown #
coedge $-1 -1 $-1 $401 $288 $400 $362 forward $353 $-1 #
coedge $-1 -1 $-1 $288 $401 $396 $402 forward $353 $-1 #
coedge $-1 -1 $-1 $403 $404 $151 $226 reversed $405 $-1 #
loop $-1 -1 $-1 $-1 $288 $387 #
coedge $-1 -1 $-1 $355 $289 $404 $406 reversed $356 $-1 #
coedge $-1 -1 $-1 $289 $354 $315 $318 reversed $356 $-1 #
loop $-1 -1 $-1 $-1 $289 $407 #
coedge $-1 -1 $-1 $358 $291 $316 $250 forward $359 $-1 #
coedge $-1 -1 $-1 $291 $357 $403 $360 reversed $359 $-1 #
loop $-1 -1 $-1 $-1 $291 $408 #
edge $-1 -1 $-1 $293 -2.6246595344563632e-031 $330 18.5 $358 $409 forward @7 unknown #
point $-1 -1 $-1 -2.6246595344563632e-031 0.75 -18.5 #
edge $-1 -1 $-1 $294 2.6246595344563632e-031 $379 18.5 $400 $410 forward @7 unknown #
point $-1 -1 $-1 -2.6246595344563632e-031 -0.75 -18.5 #
coedge $-1 -1 $-1 $332 $296 $299 $367 reversed $365 $-1 #
loop $-1 -1 $-1 $-1 $296 $328 #
coedge $-1 -1 $-1 $299 $298 $373 $411 reversed $301 $-1 #
edge $-1 -1 $-1 $331 -18.5 $302 8.8817841970012543e-016 $364 $412 forward @7 unknown #
coedge $-1 -1 $-1 $413 $300 $397 $371 forward $343 $-1 #
coedge $-1 -1 $-1 $300 $413 $399 $308 reversed $343 $-1 #
face $-1 -1 $-1 $389 $301 $21 $-1 $344 reversed single #
edge $-1 -1 $-1 $302 8.8817841970012543e-016 $414 18.5 $397 $412 forward @7 unknown #
point $-1 -1 $-1 -18.5 0.75 -8.8817841970012543e-016 #
coedge $-1 -1 $-1 $304 $321 $366 $411 forward $221 $-1 #
vertex $-1 -1 $-1 $411 $415 #
straight-curve $-1 -1 $-1 0 -0.75 18.5 1 0 0 I I #
straight-curve $-1 -1 $-1 -18.5 -0.75 0 0 0 -1 I I #
face $-1 -1 $-1 $407 $314 $21 $-1 $378 reversed single #
plane-surface $-1 -1 $-1 0 -0.75 0 0 1 0 0 0 1 forward_v I I I I #
vertex $-1 -1 $-1 $416 $417 #
vertex $-1 -1 $-1 $386 $418 #
coedge $-1 -1 $-1 $317 $325 $312 $382 forward $326 $-1 #
edge $-1 -1 $-1 $380 -18.5 $239 8.8817841970012543e-016 $381 $385 forward @7 unknown #
coedge $-1 -1 $-1 $316 $315 $419 $391 reversed $284 $-1 #
vertex $-1 -1 $-1 $318 $420 #
straight-curve $-1 -1 $-1 18.5 -0.75 0 0 0 -1 I I #
edge $-1 -1 $-1 $380 -0.75 $323 0.75 $325 $421 forward @7 unknown #
face $-1 -1 $-1 $370 $353 $21 $-1 $422 reversed single #
point $-1 -1 $-1 18.5 0.75 18.5 #
face $-1 -1 $-1 $-1 $326 $21 $-1 $285 reversed single #
face $-1 -1 $-1 $423 $398 $21 $-1 $329 reversed single #
edge $-1 -1 $-1 $330 -0.75 $384 0.75 $383 $424 forward @7 unknown #
point $-1 -1 $-1 18.5 0.75 -18.5 #
point $-1 -1 $-1 -18.5 0.75 18.5 #
ellipse-curve $-1 -1 $-1 -4.4408920985006262e-016 1.5 4.4408920985006262e-016 0 -1 0 13.875 0 1.2551082239668966e-015 1 I I #
loop $-1 -1 $-1 $-1 $348 $342 #
coedge $-1 -1 $-1 $397 $346 $351 $402 reversed $398 $-1 #
coedge $-1 -1 $-1 $346 $396 $368 $371 reversed $398 $-1 #
loop $-1 -1 $-1 $-1 $346 $390 #
coedge $-1 -1 $-1 $400 $348 $369 $308 forward $395 $-1 #
coedge $-1 -1 $-1 $348 $399 $350 $362 reversed $395 $-1 #
coedge $-1 -1 $-1 $351 $350 $413 $416 forward $353 $-1 #
edge $-1 -1 $-1 $414 -18.5 $293 -2.6246595344563632e-031 $396 $409 forward @7 unknown #
coedge $-1 -1 $-1 $419 $352 $358 $360 forward $405 $-1 #
coedge $-1 -1 $-1 $352 $419 $354 $406 forward $405 $-1 #
loop $-1 -1 $-1 $-1 $352 $423 #
edge $-1 -1 $-1 $384 -18.5 $294 2.6246595344563632e-031 $354 $410 forward @7 unknown #
face $-1 -1 $-1 $408 $356 $21 $-1 $378 reversed single #
face $-1 -1 $-1 $249 $359 $21 $-1 $329 reversed single #
straight-curve $-1 -1 $-1 0 0.75 -18.5 1 0 0 I I #
straight-curve $-1 -1 $-1 0 -0.75 -18.5 -1 0 0 I I #
edge $-1 -1 $-1 $331 -0.75 $374 0.75 $366 $425 forward @7 unknown #
straight-curve $-1 -1 $-1 -18.5 0.75 0 0 0 -1 I I #
coedge $-1 -1 $-1 $369 $368 $401 $416 reversed $343 $-1 #
vertex $-1 -1 $-1 $402 $426 #
point $-1 -1 $-1 -18.5 -0.75 18.5 #
edge $-1 -1 $-1 $379 -0.75 $414 0.75 $413 $427 forward @7 unknown #
point $-1 -1 $-1 -18.5 -0.75 -18.5 #
point $-1 -1 $-1 18.5 -0.75 18.5 #
coedge $-1 -1 $-1 $404 $403 $383 $391 forward $405 $-1 #
point $-1 -1 $-1 18.5 -0.75 -18.5 #
straight-curve $-1 -1 $-1 18.5 0 18.5 0 1 0 I I #
plane-surface $-1 -1 $-1 0 0 -18.5 0 0 1 1 0 0 forward_v I I I I #
face $-1 -1 $-1 $322 $405 $21 $-1 $422 reversed single #
straight-curve $-1 -1 $-1 18.5 0 -18.5 0 -1 0 I I #
straight-curve $-1 -1 $-1 -18.5 0 18.5 0 -1 0 I I #
point $-1 -1 $-1 -18.5 0.75 -18.5 #
straight-curve $-1 -1 $-1 -18.5 0 -18.5 0 1 0 I I #
End-of-ACIS-data 