700 0 2 0           
24 FBMach with ACIS - 7.0.3 13 ACIS 7.0.3 NT 24 Thu May 16 09:01:38 2002 
1 9.9999999999999995e-007 1e-010 
body $2 -1 $-1 $3 $-1 $4 #
bdycol-kcp $-1 -1 1 2 $5 $6 #
model_id-kcp-attrib $-1 -1 $-1 $-1 $0 1 1021554098 1021554098 -1778778111 1 #
lump $-1 -1 $-1 $-1 $7 $0 #
transform $-1 -1 1 0 0 0 1 0 0 0 1 0 0 0 1 rotate no_reflect no_shear #
body $8 -1 $-1 $9 $-1 $10 #
body $11 -1 $-1 $12 $-1 $13 #
shell $-1 -1 $-1 $-1 $-1 $14 $-1 $3 #
rgb_color-st-attrib $-1 -1 $15 $-1 $5 0.5 1 1 #
lump $-1 -1 $-1 $-1 $16 $5 #
transform $-1 -1 1 0 0 0 1 0 0 0 1 0 17.31441602675222 0 1 no_rotate no_reflect no_shear #
model_id-kcp-attrib $-1 -1 $-1 $-1 $6 1 1021554098 1021554098 -1778778110 1 #
lump $-1 -1 $-1 $-1 $17 $6 #
transform $-1 -1 1 0 0 0 1 0 0 0 1 0 17.31441602675222 0 1 no_rotate no_reflect no_shear #
face $18 -1 $-1 $19 $20 $7 $-1 $21 forward single #
model_id-kcp-attrib $-1 -1 $-1 $8 $5 1 1021554098 1021554098 -1789001725 1 #
shell $-1 -1 $-1 $-1 $-1 $22 $-1 $9 #
shell $-1 -1 $-1 $-1 $-1 $23 $-1 $12 #
model_id-kcp-attrib $-1 -1 $-1 $-1 $14 1 1021554098 1021554098 -1778778111 2 #
face $24 -1 $-1 $25 $26 $7 $-1 $27 reversed single #
loop $-1 -1 $-1 $-1 $28 $14 #
cone-surface $-1 -1 $-1 0 15.75 0 0 -1 0 -47.5 0 0 1 I I 0 1 47.5 forward I I I I #
face $-1 -1 $-1 $29 $30 $16 $-1 $31 reversed single #
face $-1 -1 $-1 $32 $33 $17 $-1 $34 forward single #
model_id-kcp-attrib $-1 -1 $-1 $-1 $19 1 1021554098 1021554098 -1778778111 3 #
face $35 -1 $-1 $36 $37 $7 $-1 $21 forward single #
loop $-1 -1 $-1 $38 $39 $19 #
plane-surface $-1 -1 $-1 0 0.34999999999999998 0 0 -1 0 -1 0 0 forward_v I I I I #
coedge $-1 -1 $-1 $40 $41 $42 $43 forward $20 $-1 #
face $-1 -1 $-1 $44 $45 $16 $-1 $31 reversed single #
loop $-1 -1 $-1 $-1 $46 $22 #
cone-surface $-1 -1 $-1 1.7808471071637882e-031 -17.31441602675222 0 0 -1 0 47.5 0 -5.816880180656292e-015 1 I I 0 1 47.5 forward I I I I #
face $-1 -1 $-1 $47 $48 $17 $-1 $49 reversed single #
loop $-1 -1 $-1 $-1 $50 $23 #
plane-surface $-1 -1 $-1 0 0 47.5 0 0 1 1 0 0 forward_v I I I I #
model_id-kcp-attrib $-1 -1 $-1 $-1 $25 1 1021554098 1021554098 -1778778111 4 #
face $51 -1 $-1 $52 $53 $7 $-1 $54 forward single #
loop $-1 -1 $-1 $-1 $55 $25 #
loop $-1 -1 $-1 $-1 $56 $19 #
coedge $-1 -1 $-1 $42 $42 $57 $58 forward $26 $-1 #
coedge $-1 -1 $-1 $59 $28 $60 $61 reversed $20 $-1 #
coedge $-1 -1 $-1 $28 $59 $62 $63 forward $20 $-1 #
coedge $-1 -1 $-1 $39 $39 $28 $43 reversed $26 $-1 #
edge $64 -1 $-1 $65 -3.1415926535897931 $66 0 $28 $67 reversed @7 unknown #
face $-1 -1 $-1 $68 $69 $16 $-1 $31 reversed single #
loop $-1 -1 $-1 $-1 $70 $29 #
coedge $-1 -1 $-1 $71 $72 $73 $74 reversed $30 $-1 #
face $75 -1 $-1 $76 $77 $17 $-1 $78 reversed single #
loop $-1 -1 $-1 $-1 $79 $32 #
plane-surface $-1 -1 $-1 0 0 -47.5 0 0 1 1 0 0 forward_v I I I I #
coedge $-1 -1 $-1 $80 $81 $82 $83 forward $33 $-1 #
model_id-kcp-attrib $-1 -1 $-1 $-1 $36 1 1021554098 1021554098 -1778778111 5 #
face $84 -1 $-1 $85 $86 $7 $-1 $87 reversed single #
loop $-1 -1 $-1 $88 $89 $36 #
plane-surface $-1 -1 $-1 0 0 0 0 -1 0 -1 0 0 forward_v I I I I #
coedge $-1 -1 $-1 $60 $62 $90 $91 forward $37 $-1 #
coedge $-1 -1 $-1 $92 $92 $93 $94 forward $38 $-1 #
coedge $-1 -1 $-1 $62 $60 $39 $58 reversed $37 $-1 #
edge $95 -1 $-1 $65 -3.1415926535897931 $66 0 $39 $96 reversed @7 unknown #
coedge $-1 -1 $-1 $41 $40 $89 $97 reversed $20 $-1 #
coedge $-1 -1 $-1 $57 $55 $40 $61 forward $37 $-1 #
edge $-1 -1 $-1 $98 0 $66 0.34999999999999998 $40 $99 forward @7 unknown #
coedge $-1 -1 $-1 $55 $57 $41 $63 reversed $37 $-1 #
edge $-1 -1 $-1 $100 0 $65 0.35000000000000142 $41 $101 forward @7 unknown #
attrib_edge_convexity-kcp-attrib $-1 -1 $102 $-1 $43 1 #
vertex $-1 -1 $-1 $63 $103 #
vertex $-1 -1 $-1 $61 $104 #
ellipse-curve $-1 -1 $-1 0 0.34999999999999964 0 0 1 0 -47.5 0 0 1 I I #
face $-1 -1 $-1 $105 $106 $16 $-1 $31 reversed single #
loop $-1 -1 $-1 $-1 $107 $44 #
coedge $-1 -1 $-1 $108 $109 $110 $111 reversed $45 $-1 #
coedge $-1 -1 $-1 $112 $46 $113 $114 forward $30 $-1 #
coedge $-1 -1 $-1 $46 $112 $115 $116 reversed $30 $-1 #
coedge $-1 -1 $-1 $117 $118 $46 $74 forward $119 $-1 #
edge $-1 -1 $-1 $120 1.2246063538223773e-016 $121 1.5707963267948968 $73 $122 forward @7 unknown #
model_id-kcp-attrib $-1 -1 $-1 $-1 $47 1 1021554098 1021554098 -1778778110 2 #
face $-1 -1 $-1 $123 $124 $17 $-1 $125 reversed single #
loop $-1 -1 $-1 $-1 $126 $47 #
plane-surface $-1 -1 $-1 0 -17.31441602675222 0 0 1 0 0 0 1 forward_v I I I I #
coedge $-1 -1 $-1 $127 $128 $129 $130 forward $48 $-1 #
coedge $-1 -1 $-1 $131 $50 $132 $133 forward $33 $-1 #
coedge $-1 -1 $-1 $50 $131 $134 $135 forward $33 $-1 #
coedge $-1 -1 $-1 $136 $137 $50 $83 reversed $138 $-1 #
edge $-1 -1 $-1 $139 -17.31441602675222 $140 17.31441602675222 $82 $141 forward @7 unknown #
model_id-kcp-attrib $-1 -1 $-1 $-1 $52 1 1021554098 1021554098 -1778778111 6 #
face $142 -1 $-1 $143 $144 $7 $-1 $87 reversed single #
loop $-1 -1 $-1 $-1 $145 $52 #
cone-surface $-1 -1 $-1 0 13.628832053504436 0 0 1 0 -2.832764505119453 0 0 1 I I -0.94296935741508892 0.33287954424412181 2.832764505119453 forward I I I I #
loop $-1 -1 $-1 $-1 $146 $36 #
coedge $-1 -1 $-1 $90 $90 $59 $97 forward $53 $-1 #
coedge $-1 -1 $-1 $89 $89 $55 $91 reversed $53 $-1 #
edge $147 -1 $-1 $100 -3.1415926535897931 $98 -2.4492127076447545e-016 $55 $148 forward @7 unknown #
coedge $-1 -1 $-1 $56 $56 $149 $150 reversed $38 $-1 #
coedge $-1 -1 $-1 $151 $152 $56 $94 reversed $153 $-1 #
edge $154 -1 $-1 $155 -3.1415926535897931 $156 2.4492127076447545e-016 $56 $157 forward @7 unknown #
attrib_edge_convexity-kcp-attrib $-1 -1 $158 $-1 $58 1 #
ellipse-curve $-1 -1 $-1 0 0.34999999999999964 0 0 -1 0 -47.5 0 0 1 I I #
edge $159 -1 $-1 $100 -3.1415926535897931 $98 2.4492127076447545e-016 $59 $160 reversed @7 unknown #
vertex $-1 -1 $-1 $97 $161 #
straight-curve $-1 -1 $-1 -47.5 0 -1.1633760361312584e-014 0 1 0 I I #
vertex $-1 -1 $-1 $63 $162 #
straight-curve $-1 -1 $-1 47.5 0 5.816880180656292e-015 0 1 0 I I #
convexity-sys-attrib $-1 -1 $-1 $64 $43 #
point $-1 -1 $-1 47.5 0.35000000000000142 5.816880180656292e-015 #
point $-1 -1 $-1 -47.5 0.34999999999999998 0 #
face $-1 -1 $-1 $163 $164 $16 $-1 $165 forward single #
loop $-1 -1 $-1 $-1 $166 $68 #
coedge $-1 -1 $-1 $167 $168 $166 $169 forward $69 $-1 #
coedge $-1 -1 $-1 $170 $70 $171 $172 reversed $45 $-1 #
coedge $-1 -1 $-1 $70 $170 $72 $116 forward $45 $-1 #
coedge $-1 -1 $-1 $173 $174 $70 $111 forward $175 $-1 #
edge $-1 -1 $-1 $176 -3.1415926535897931 $177 -1.5707963267948968 $110 $178 forward @7 unknown #
coedge $-1 -1 $-1 $72 $71 $179 $180 reversed $30 $-1 #
coedge $-1 -1 $-1 $168 $167 $181 $114 reversed $69 $-1 #
edge $-1 -1 $-1 $120 -34.628832053504439 $182 0 $181 $183 forward @7 unknown #
coedge $-1 -1 $-1 $184 $185 $186 $116 forward $187 $-1 #
edge $-1 -1 $-1 $121 -34.628832053504439 $177 0 $115 $188 forward @7 unknown #
coedge $-1 -1 $-1 $118 $73 $185 $189 reversed $119 $-1 #
coedge $-1 -1 $-1 $73 $117 $190 $191 forward $119 $-1 #
loop $-1 -1 $-1 $-1 $73 $192 #
vertex $-1 -1 $-1 $193 $194 #
vertex $-1 -1 $-1 $195 $196 #
ellipse-curve $-1 -1 $-1 1.7808471071637882e-031 17.31441602675222 0 0 -1 0 47.5 0 -5.816880180656292e-015 1 I I #
face $-1 -1 $-1 $197 $198 $17 $-1 $199 reversed single #
loop $-1 -1 $-1 $-1 $200 $76 #
plane-surface $-1 -1 $-1 -47.5 0 0 1 0 0 0 0 -1 forward_v I I I I #
coedge $-1 -1 $-1 $201 $134 $202 $203 forward $77 $-1 #
coedge $-1 -1 $-1 $204 $79 $201 $205 forward $48 $-1 #
coedge $-1 -1 $-1 $79 $204 $206 $207 forward $48 $-1 #
coedge $-1 -1 $-1 $137 $136 $79 $130 reversed $138 $-1 #
edge $-1 -1 $-1 $208 -17.31441602675222 $209 17.31441602675222 $129 $210 forward @7 unknown #
coedge $-1 -1 $-1 $81 $80 $211 $212 forward $33 $-1 #
coedge $-1 -1 $-1 $213 $214 $80 $133 reversed $198 $-1 #
edge $-1 -1 $-1 $140 -47.5 $215 47.5 $132 $216 forward @7 unknown #
coedge $-1 -1 $-1 $126 $217 $81 $135 reversed $77 $-1 #
edge $-1 -1 $-1 $218 -47.5 $139 47.5 $134 $219 forward @7 unknown #
coedge $-1 -1 $-1 $129 $82 $217 $220 forward $138 $-1 #
coedge $-1 -1 $-1 $82 $129 $213 $221 reversed $138 $-1 #
loop $-1 -1 $-1 $-1 $136 $197 #
vertex $-1 -1 $-1 $83 $222 #
vertex $-1 -1 $-1 $83 $223 #
straight-curve $-1 -1 $-1 47.5 0 47.5 0 1 0 I I #
model_id-kcp-attrib $-1 -1 $-1 $-1 $85 1 1021554098 1021554098 -1778778111 7 #
face $224 -1 $-1 $225 $226 $7 $-1 $227 forward single #
loop $-1 -1 $-1 $-1 $228 $85 #
coedge $-1 -1 $-1 $229 $230 $231 $232 reversed $86 $-1 #
coedge $-1 -1 $-1 $233 $233 $229 $234 reversed $88 $-1 #
attrib_edge_convexity-kcp-attrib $-1 -1 $235 $-1 $91 1 #
ellipse-curve $-1 -1 $-1 0 0 0 0 1 0 -47.5 0 0 1 I I #
coedge $-1 -1 $-1 $236 $237 $92 $150 forward $238 $-1 #
edge $239 -1 $-1 $155 -3.1415926535897931 $156 -2.4492127076447545e-016 $92 $240 reversed @7 unknown #
coedge $-1 -1 $-1 $152 $93 $237 $241 forward $153 $-1 #
coedge $-1 -1 $-1 $93 $151 $236 $242 reversed $153 $-1 #
loop $-1 -1 $-1 $-1 $152 $243 #
attrib_edge_convexity-kcp-attrib $-1 -1 $244 $-1 $94 2 #
vertex $-1 -1 $-1 $150 $245 #
vertex $-1 -1 $-1 $150 $246 #
ellipse-curve $-1 -1 $-1 0 0.34999999999999964 0 0 -1 0 -41.499999999999986 0 0 1 I I #
convexity-sys-attrib $-1 -1 $-1 $95 $58 #
attrib_edge_convexity-kcp-attrib $-1 -1 $247 $-1 $97 1 #
ellipse-curve $-1 -1 $-1 0 0 0 0 1 0 -47.5 0 0 1 I I #
point $-1 -1 $-1 -47.5 0 -1.1633760361312584e-014 #
point $-1 -1 $-1 47.5 0 5.816880180656292e-015 #
face $-1 -1 $-1 $248 $249 $16 $-1 $250 reversed single #
loop $-1 -1 $-1 $-1 $186 $105 #
plane-surface $-1 -1 $-1 0 0 47.5 0 0 1 1 0 0 forward_v I I I I #
coedge $-1 -1 $-1 $251 $252 $253 $169 reversed $106 $-1 #
coedge $-1 -1 $-1 $113 $107 $254 $255 reversed $69 $-1 #
coedge $-1 -1 $-1 $107 $113 $256 $257 reversed $69 $-1 #
edge $-1 -1 $-1 $258 -34.628832053504439 $259 0 $253 $260 forward @7 unknown #
coedge $-1 -1 $-1 $109 $108 $261 $262 reversed $45 $-1 #
coedge $-1 -1 $-1 $263 $264 $265 $172 forward $266 $-1 #
edge $-1 -1 $-1 $267 -34.628832053504439 $176 0 $171 $268 forward @7 unknown #
coedge $-1 -1 $-1 $174 $110 $269 $270 reversed $175 $-1 #
coedge $-1 -1 $-1 $110 $173 $263 $271 forward $175 $-1 #
loop $-1 -1 $-1 $-1 $110 $272 #
vertex $-1 -1 $-1 $273 $274 #
vertex $-1 -1 $-1 $275 $276 #
ellipse-curve $-1 -1 $-1 1.7808471071637882e-031 -17.31441602675222 0 0 1 0 47.5 0 -5.816880180656292e-015 1 I I #
coedge $-1 -1 $-1 $277 $278 $112 $180 forward $279 $-1 #
edge $-1 -1 $-1 $177 -1.5707963267948968 $182 -1.2246063538223773e-016 $179 $178 forward @7 unknown #
coedge $-1 -1 $-1 $280 $281 $282 $114 forward $249 $-1 #
vertex $-1 -1 $-1 $283 $284 #
straight-curve $-1 -1 $-1 47.5 -17.31441602675222 0 0 -1 0 I I #
coedge $-1 -1 $-1 $285 $115 $278 $275 forward $187 $-1 #
coedge $-1 -1 $-1 $115 $285 $117 $189 forward $187 $-1 #
coedge $-1 -1 $-1 $286 $269 $109 $116 reversed $164 $-1 #
loop $-1 -1 $-1 $-1 $115 $287 #
straight-curve $-1 -1 $-1 1.7808471071637882e-031 -17.31441602675222 47.5 0 -1 0 I I #
edge $-1 -1 $-1 $288 -47.5 $121 -1.7808471071637882e-031 $117 $289 forward @7 unknown #
coedge $-1 -1 $-1 $290 $282 $118 $191 reversed $291 $-1 #
edge $-1 -1 $-1 $288 -47.5 $120 0 $190 $292 forward @7 unknown #
face $-1 -1 $-1 $293 $119 $16 $-1 $294 reversed single #
edge $-1 -1 $-1 $120 0 $295 47.5 $281 $292 forward @7 unknown #
point $-1 -1 $-1 47.5 17.31441602675222 0 #
edge $-1 -1 $-1 $121 -1.7808471071637882e-031 $296 47.5 $297 $289 forward @7 unknown #
point $-1 -1 $-1 1.7808471071637882e-031 17.31441602675222 47.5 #
face $-1 -1 $-1 $-1 $138 $17 $-1 $298 reversed single #
loop $-1 -1 $-1 $-1 $213 $123 #
plane-surface $-1 -1 $-1 0 17.31441602675222 0 0 -1 0 0 0 -1 forward_v I I I I #
coedge $-1 -1 $-1 $299 $211 $214 $300 forward $124 $-1 #
coedge $-1 -1 $-1 $217 $126 $127 $205 reversed $77 $-1 #
coedge $-1 -1 $-1 $211 $299 $126 $203 reversed $124 $-1 #
edge $-1 -1 $-1 $218 -47.5 $301 47.5 $202 $302 forward @7 unknown #
coedge $-1 -1 $-1 $128 $127 $299 $303 forward $48 $-1 #
edge $-1 -1 $-1 $209 -47.5 $301 47.5 $201 $304 forward @7 unknown #
coedge $-1 -1 $-1 $214 $213 $128 $207 reversed $198 $-1 #
edge $-1 -1 $-1 $305 -47.5 $208 47.5 $206 $306 forward @7 unknown #
vertex $-1 -1 $-1 $130 $307 #
vertex $-1 -1 $-1 $220 $308 #
straight-curve $-1 -1 $-1 47.5 0 -47.5 0 -1 0 I I #
coedge $-1 -1 $-1 $200 $202 $131 $212 reversed $124 $-1 #
edge $-1 -1 $-1 $215 -17.31441602675222 $218 17.31441602675222 $211 $309 forward @7 unknown #
coedge $-1 -1 $-1 $206 $132 $137 $221 forward $198 $-1 #
coedge $-1 -1 $-1 $132 $206 $200 $300 reversed $198 $-1 #
vertex $-1 -1 $-1 $133 $310 #
straight-curve $-1 -1 $-1 0 17.31441602675222 47.5 -1 0 0 I I #
coedge $-1 -1 $-1 $134 $201 $136 $220 reversed $77 $-1 #
vertex $-1 -1 $-1 $212 $311 #
straight-curve $-1 -1 $-1 0 -17.31441602675222 47.5 1 0 0 I I #
edge $-1 -1 $-1 $139 -47.5 $209 47.5 $136 $312 forward @7 unknown #
edge $-1 -1 $-1 $140 -47.5 $208 47.5 $137 $313 forward @7 unknown #
point $-1 -1 $-1 47.5 -17.31441602675222 47.5 #
point $-1 -1 $-1 47.5 17.31441602675222 47.5 #
model_id-kcp-attrib $-1 -1 $-1 $-1 $143 1 1021554098 1021554098 -1778778111 8 #
face $314 -1 $-1 $243 $315 $7 $-1 $227 forward single #
loop $-1 -1 $-1 $-1 $316 $143 #
sphere-surface $-1 -1 $-1 0 19.628832053504436 0 15 1 0 0 0 0 1 forward_v I I I I #
coedge $-1 -1 $-1 $317 $318 $319 $320 reversed $144 $-1 #
coedge $-1 -1 $-1 $319 $145 $146 $234 forward $86 $-1 #
coedge $-1 -1 $-1 $145 $319 $321 $322 reversed $86 $-1 #
coedge $-1 -1 $-1 $318 $317 $145 $232 forward $144 $-1 #
edge $-1 -1 $-1 $323 0 $324 31.370980107227183 $145 $325 forward @7 unknown #
coedge $-1 -1 $-1 $146 $146 $317 $326 forward $88 $-1 #
edge $327 -1 $-1 $323 -3.1415926535897931 $328 2.449212707644755e-016 $146 $329 forward @7 unknown #
convexity-sys-attrib $-1 -1 $-1 $147 $91 #
coedge $-1 -1 $-1 $237 $149 $152 $242 forward $238 $-1 #
coedge $-1 -1 $-1 $149 $236 $151 $241 reversed $238 $-1 #
loop $-1 -1 $-1 $-1 $149 $330 #
attrib_edge_convexity-kcp-attrib $-1 -1 $331 $-1 $150 2 #
ellipse-curve $-1 -1 $-1 0 0.34999999999999964 0 0 -1 0 -41.499999999999986 0 0 1 I I #
edge $-1 -1 $-1 $155 0 $332 44.009913655902579 $151 $333 forward @7 unknown #
edge $-1 -1 $-1 $156 0 $332 44.009913655902579 $152 $334 forward @7 unknown #
face $335 -1 $-1 $330 $153 $7 $-1 $336 forward single #
convexity-sys-attrib $-1 -1 $-1 $154 $94 #
point $-1 -1 $-1 41.5 0.34999999999999432 5.0821163683628656e-015 #
point $-1 -1 $-1 -41.5 0.34999999999999432 -1.0164232736725731e-014 #
convexity-sys-attrib $-1 -1 $-1 $159 $97 #
face $-1 -1 $-1 $337 $338 $16 $-1 $339 reversed single #
loop $-1 -1 $-1 $-1 $181 $163 #
plane-surface $-1 -1 $-1 47.5 0 0 -1 0 0 0 0 1 forward_v I I I I #
coedge $-1 -1 $-1 $340 $166 $341 $342 reversed $106 $-1 #
coedge $-1 -1 $-1 $166 $340 $343 $344 reversed $106 $-1 #
coedge $-1 -1 $-1 $345 $346 $347 $169 forward $348 $-1 #
coedge $-1 -1 $-1 $349 $350 $167 $255 forward $351 $-1 #
edge $-1 -1 $-1 $182 -1.2246063538223773e-016 $259 1.5707963267948966 $254 $178 forward @7 unknown #
coedge $-1 -1 $-1 $352 $353 $168 $257 forward $354 $-1 #
edge $-1 -1 $-1 $258 -1.5707963267948966 $120 1.2246063538223773e-016 $256 $122 forward @7 unknown #
vertex $-1 -1 $-1 $355 $356 #
vertex $-1 -1 $-1 $357 $358 #
straight-curve $-1 -1 $-1 1.7808471071637882e-031 -17.31441602675222 -47.5 0 -1 0 I I #
coedge $-1 -1 $-1 $359 $297 $170 $262 forward $360 $-1 #
edge $-1 -1 $-1 $121 1.5707963267948968 $267 3.1415926535897931 $261 $122 forward @7 unknown #
coedge $-1 -1 $-1 $361 $171 $174 $271 reversed $266 $-1 #
coedge $-1 -1 $-1 $171 $361 $359 $362 forward $266 $-1 #
coedge $-1 -1 $-1 $363 $364 $340 $172 reversed $338 $-1 #
loop $-1 -1 $-1 $-1 $171 $365 #
vertex $-1 -1 $-1 $366 $367 #
straight-curve $-1 -1 $-1 -47.5 -17.31441602675222 0 0 -1 0 I I #
coedge $-1 -1 $-1 $186 $368 $173 $270 forward $164 $-1 #
edge $-1 -1 $-1 $369 -47.5 $177 1.7808471071637882e-031 $173 $370 forward @7 unknown #
edge $-1 -1 $-1 $369 -47.5 $176 0 $263 $371 forward @7 unknown #
face $-1 -1 $-1 $372 $175 $16 $-1 $373 reversed single #
edge $-1 -1 $-1 $176 0 $374 47.5 $364 $371 forward @7 unknown #
point $-1 -1 $-1 -47.5 -17.31441602675222 0 #
edge $-1 -1 $-1 $177 1.7808471071637882e-031 $375 47.5 $278 $370 forward @7 unknown #
point $-1 -1 $-1 1.7808471071637882e-031 -17.31441602675222 47.5 #
coedge $-1 -1 $-1 $278 $179 $376 $377 reversed $279 $-1 #
coedge $-1 -1 $-1 $179 $277 $184 $275 reversed $279 $-1 #
loop $-1 -1 $-1 $-1 $179 $372 #
coedge $-1 -1 $-1 $378 $181 $350 $283 forward $249 $-1 #
coedge $-1 -1 $-1 $181 $378 $352 $193 reversed $249 $-1 #
coedge $-1 -1 $-1 $190 $376 $71 $114 reversed $291 $-1 #
edge $-1 -1 $-1 $182 0 $379 47.5 $280 $380 forward @7 unknown #
point $-1 -1 $-1 47.5 -17.31441602675222 0 #
coedge $-1 -1 $-1 $185 $184 $290 $381 forward $187 $-1 #
coedge $-1 -1 $-1 $368 $186 $297 $195 forward $164 $-1 #
face $-1 -1 $-1 $382 $187 $16 $-1 $165 forward single #
vertex $-1 -1 $-1 $381 $383 #
straight-curve $-1 -1 $-1 0 17.31441602675222 47.5 -1 0 0 I I #
coedge $-1 -1 $-1 $376 $190 $285 $381 reversed $291 $-1 #
loop $-1 -1 $-1 $-1 $282 $384 #
straight-curve $-1 -1 $-1 47.5 17.31441602675222 0 0 0 -1 I I #
face $-1 -1 $-1 $385 $360 $16 $-1 $294 reversed single #
plane-surface $-1 -1 $-1 0 17.31441602675222 0 0 -1 0 0 0 -1 forward_v I I I I #
vertex $-1 -1 $-1 $386 $387 #
vertex $-1 -1 $-1 $195 $388 #
coedge $-1 -1 $-1 $261 $359 $286 $195 reversed $360 $-1 #
plane-surface $-1 -1 $-1 47.5 0 0 -1 0 0 0 0 1 forward_v I I I I #
coedge $-1 -1 $-1 $202 $200 $204 $303 reversed $124 $-1 #
edge $-1 -1 $-1 $215 -47.5 $305 47.5 $214 $389 forward @7 unknown #
vertex $-1 -1 $-1 $303 $390 #
straight-curve $-1 -1 $-1 -47.5 -17.31441602675222 0 0 0 -1 I I #
edge $-1 -1 $-1 $301 -17.31441602675222 $305 17.31441602675222 $299 $391 forward @7 unknown #
straight-curve $-1 -1 $-1 0 -17.31441602675222 -47.5 -1 0 0 I I #
vertex $-1 -1 $-1 $207 $392 #
straight-curve $-1 -1 $-1 0 17.31441602675222 -47.5 1 0 0 I I #
point $-1 -1 $-1 47.5 17.31441602675222 -47.5 #
point $-1 -1 $-1 47.5 -17.31441602675222 -47.5 #
straight-curve $-1 -1 $-1 -47.5 0 47.5 0 -1 0 I I #
point $-1 -1 $-1 -47.5 17.31441602675222 47.5 #
point $-1 -1 $-1 -47.5 -17.31441602675222 47.5 #
straight-curve $-1 -1 $-1 47.5 -17.31441602675222 0 0 0 -1 I I #
straight-curve $-1 -1 $-1 47.5 17.31441602675222 0 0 0 -1 I I #
model_id-kcp-attrib $-1 -1 $-1 $-1 $225 1 1021554098 1021554098 -1778778111 9 #
loop $-1 -1 $-1 $-1 $393 $225 #
coedge $-1 -1 $-1 $394 $395 $396 $397 reversed $226 $-1 #
coedge $-1 -1 $-1 $231 $228 $233 $326 reversed $144 $-1 #
coedge $-1 -1 $-1 $228 $231 $395 $398 reversed $144 $-1 #
coedge $-1 -1 $-1 $230 $229 $228 $320 forward $86 $-1 #
edge $-1 -1 $-1 $328 0 $399 31.370980107227183 $319 $400 forward @7 unknown #
coedge $-1 -1 $-1 $393 $396 $230 $322 forward $315 $-1 #
edge $-1 -1 $-1 $324 -3.1415926535897931 $399 0 $230 $401 reversed @7 unknown #
vertex $-1 -1 $-1 $326 $402 #
vertex $-1 -1 $-1 $322 $403 #
straight-curve $-1 -1 $-1 41.440036192521077 0 5.074773162399059e-015 -0.94296935741508892 0.33287954424412192 -1.1547662665503222e-016 I I #
edge $404 -1 $-1 $323 -3.1415926535897931 $328 -2.449212707644755e-016 $233 $405 reversed @7 unknown #
attrib_edge_convexity-kcp-attrib $-1 -1 $406 $-1 $234 1 #
vertex $-1 -1 $-1 $326 $407 #
ellipse-curve $-1 -1 $-1 0 0 0 0 -1 0 -41.440036192521092 0 0 1 I I #
face $408 -1 $-1 $-1 $238 $7 $-1 $336 forward single #
convexity-sys-attrib $-1 -1 $-1 $239 $150 #
vertex $-1 -1 $-1 $241 $409 #
straight-curve $-1 -1 $-1 41.5 0.34999999999999432 5.0821163683628656e-015 -0.94296935741508892 0.33287954424412186 -1.154766266550322e-016 I I #
straight-curve $-1 -1 $-1 -41.5 0.34999999999999432 -1.0164232736725731e-014 0.94296935741508892 0.33287954424412186 2.3095325331006439e-016 I I #
model_id-kcp-attrib $-1 -1 $-1 $-1 $243 1 1021554098 1021554098 -1778778111 10 #
cone-surface $-1 -1 $-1 0 14 0 0 1 0 -2.832764505119453 0 0 1 I I -0.94296935741508892 0.33287954424412181 2.832764505119453 forward I I I I #
face $-1 -1 $-1 $272 $410 $16 $-1 $373 reversed single #
loop $-1 -1 $-1 $-1 $265 $248 #
plane-surface $-1 -1 $-1 -47.5 0 0 1 0 0 0 0 -1 forward_v I I I I #
coedge $-1 -1 $-1 $252 $251 $108 $172 forward $106 $-1 #
coedge $-1 -1 $-1 $411 $412 $251 $342 forward $413 $-1 #
edge $-1 -1 $-1 $267 -3.1415926535897931 $258 -1.5707963267948966 $341 $122 forward @7 unknown #
coedge $-1 -1 $-1 $414 $415 $252 $344 forward $410 $-1 #
edge $-1 -1 $-1 $259 1.5707963267948966 $176 3.1415926535897931 $343 $178 forward @7 unknown #
coedge $-1 -1 $-1 $416 $253 $415 $357 forward $348 $-1 #
coedge $-1 -1 $-1 $253 $416 $411 $417 forward $348 $-1 #
coedge $-1 -1 $-1 $418 $419 $107 $169 reversed $420 $-1 #
loop $-1 -1 $-1 $-1 $253 $382 #
coedge $-1 -1 $-1 $350 $254 $419 $421 reversed $351 $-1 #
coedge $-1 -1 $-1 $254 $349 $280 $283 reversed $351 $-1 #
loop $-1 -1 $-1 $-1 $254 $422 #
coedge $-1 -1 $-1 $353 $256 $281 $193 forward $354 $-1 #
coedge $-1 -1 $-1 $256 $352 $418 $355 reversed $354 $-1 #
loop $-1 -1 $-1 $-1 $256 $423 #
edge $-1 -1 $-1 $258 1.7808471071637882e-031 $295 47.5 $353 $424 forward @7 unknown #
point $-1 -1 $-1 1.7808471071637882e-031 17.31441602675222 -47.5 #
edge $-1 -1 $-1 $259 -1.7808471071637882e-031 $374 47.5 $415 $425 forward @7 unknown #
point $-1 -1 $-1 1.7808471071637882e-031 -17.31441602675222 -47.5 #
coedge $-1 -1 $-1 $297 $261 $264 $362 reversed $360 $-1 #
loop $-1 -1 $-1 $-1 $261 $293 #
coedge $-1 -1 $-1 $264 $263 $368 $426 reversed $266 $-1 #
edge $-1 -1 $-1 $296 -47.5 $267 0 $359 $427 forward @7 unknown #
coedge $-1 -1 $-1 $428 $265 $412 $366 forward $338 $-1 #
coedge $-1 -1 $-1 $265 $428 $414 $273 reversed $338 $-1 #
face $-1 -1 $-1 $384 $266 $16 $-1 $339 reversed single #
edge $-1 -1 $-1 $267 0 $429 47.5 $412 $427 forward @7 unknown #
point $-1 -1 $-1 -47.5 17.31441602675222 0 #
coedge $-1 -1 $-1 $269 $286 $361 $426 forward $164 $-1 #
vertex $-1 -1 $-1 $426 $430 #
straight-curve $-1 -1 $-1 0 -17.31441602675222 47.5 1 0 0 I I #
straight-curve $-1 -1 $-1 -47.5 -17.31441602675222 0 0 0 -1 I I #
face $-1 -1 $-1 $422 $279 $16 $-1 $373 reversed single #
plane-surface $-1 -1 $-1 0 -17.31441602675222 0 0 1 0 0 0 1 forward_v I I I I #
vertex $-1 -1 $-1 $431 $432 #
vertex $-1 -1 $-1 $381 $433 #
coedge $-1 -1 $-1 $282 $290 $277 $377 forward $291 $-1 #
edge $-1 -1 $-1 $375 -47.5 $182 0 $376 $380 forward @7 unknown #
coedge $-1 -1 $-1 $281 $280 $434 $386 reversed $249 $-1 #
vertex $-1 -1 $-1 $283 $435 #
straight-curve $-1 -1 $-1 47.5 -17.31441602675222 0 0 0 -1 I I #
edge $-1 -1 $-1 $375 -17.31441602675222 $288 17.31441602675222 $290 $436 forward @7 unknown #
face $-1 -1 $-1 $365 $348 $16 $-1 $437 reversed single #
point $-1 -1 $-1 47.5 17.31441602675222 47.5 #
face $-1 -1 $-1 $-1 $291 $16 $-1 $250 reversed single #
face $-1 -1 $-1 $438 $413 $16 $-1 $294 reversed single #
edge $-1 -1 $-1 $295 -17.31441602675222 $379 17.31441602675222 $378 $439 forward @7 unknown #
point $-1 -1 $-1 47.5 17.31441602675222 -47.5 #
point $-1 -1 $-1 -47.5 17.31441602675222 47.5 #
straight-curve $-1 -1 $-1 -47.5 17.31441602675222 0 0 0 -1 I I #
point $-1 -1 $-1 -47.5 -17.31441602675222 -47.5 #
straight-curve $-1 -1 $-1 -47.5 0 -47.5 0 1 0 I I #
point $-1 -1 $-1 -47.5 17.31441602675222 -47.5 #
coedge $-1 -1 $-1 $396 $321 $394 $440 reversed $315 $-1 #
coedge $-1 -1 $-1 $395 $316 $393 $440 forward $226 $-1 #
coedge $-1 -1 $-1 $316 $394 $318 $398 forward $226 $-1 #
coedge $-1 -1 $-1 $321 $393 $316 $397 forward $315 $-1 #
edge $-1 -1 $-1 $441 -2.7547410727818632e-048 $324 0.91169714212481345 $396 $442 forward @7 unknown #
edge $-1 -1 $-1 $399 0 $324 3.1415926535897931 $318 $443 reversed @7 unknown #
vertex $-1 -1 $-1 $322 $444 #
straight-curve $-1 -1 $-1 -41.440036192521077 0 -1.0149546324798118e-014 0.94296935741508892 0.33287954424412192 2.3095325331006444e-016 I I #
ellipse-curve $-1 -1 $-1 0 10.4427575605852 0 0 1 0 -11.858163239327524 0 0 1 I I #
point $-1 -1 $-1 41.440036192521077 0 5.074773162399059e-015 #
point $-1 -1 $-1 11.858163239327522 10.4427575605852 1.452158204754343e-015 #
attrib_edge_convexity-kcp-attrib $-1 -1 $445 $-1 $326 1 #
ellipse-curve $-1 -1 $-1 0 0 0 0 -1 0 -41.440036192521092 0 0 1 I I #
convexity-sys-attrib $-1 -1 $-1 $327 $234 #
point $-1 -1 $-1 -41.440036192521077 0 -1.0149546324798118e-014 #
model_id-kcp-attrib $-1 -1 $-1 $-1 $330 1 1021554098 1021554098 -1778778111 11 #
point $-1 -1 $-1 0 15 0 #
loop $-1 -1 $-1 $-1 $343 $337 #
coedge $-1 -1 $-1 $412 $341 $346 $417 reversed $413 $-1 #
coedge $-1 -1 $-1 $341 $411 $363 $366 reversed $413 $-1 #
loop $-1 -1 $-1 $-1 $341 $385 #
coedge $-1 -1 $-1 $415 $343 $364 $273 forward $410 $-1 #
coedge $-1 -1 $-1 $343 $414 $345 $357 reversed $410 $-1 #
coedge $-1 -1 $-1 $346 $345 $428 $431 forward $348 $-1 #
edge $-1 -1 $-1 $429 -47.5 $258 1.7808471071637882e-031 $411 $424 forward @7 unknown #
coedge $-1 -1 $-1 $434 $347 $353 $355 forward $420 $-1 #
coedge $-1 -1 $-1 $347 $434 $349 $421 forward $420 $-1 #
loop $-1 -1 $-1 $-1 $347 $438 #
edge $-1 -1 $-1 $379 -47.5 $259 -1.7808471071637882e-031 $349 $425 forward @7 unknown #
face $-1 -1 $-1 $423 $351 $16 $-1 $373 reversed single #
face $-1 -1 $-1 $192 $354 $16 $-1 $294 reversed single #
straight-curve $-1 -1 $-1 0 17.31441602675222 -47.5 1 0 0 I I #
straight-curve $-1 -1 $-1 0 -17.31441602675222 -47.5 -1 0 0 I I #
edge $-1 -1 $-1 $296 -17.31441602675222 $369 17.31441602675222 $361 $446 forward @7 unknown #
straight-curve $-1 -1 $-1 -47.5 17.31441602675222 0 0 0 -1 I I #
coedge $-1 -1 $-1 $364 $363 $416 $431 reversed $338 $-1 #
vertex $-1 -1 $-1 $417 $447 #
point $-1 -1 $-1 -47.5 -17.31441602675222 47.5 #
edge $-1 -1 $-1 $374 -17.31441602675222 $429 17.31441602675222 $428 $448 forward @7 unknown #
point $-1 -1 $-1 -47.5 -17.31441602675222 -47.5 #
point $-1 -1 $-1 47.5 -17.31441602675222 47.5 #
coedge $-1 -1 $-1 $419 $418 $378 $386 forward $420 $-1 #
point $-1 -1 $-1 47.5 -17.31441602675222 -47.5 #
straight-curve $-1 -1 $-1 47.5 0 47.5 0 1 0 I I #
plane-surface $-1 -1 $-1 0 0 -47.5 0 0 1 1 0 0 forward_v I I I I #
face $-1 -1 $-1 $287 $420 $16 $-1 $437 reversed single #
straight-curve $-1 -1 $-1 47.5 0 -47.5 0 -1 0 I I #
edge $-1 -1 $-1 $441 3.6738190614671318e-016 $399 0.91169714212481345 $393 $449 forward @7 unknown #
vertex $-1 -1 $-1 $397 $450 #
ellipse-curve $-1 -1 $-1 0 19.628832053504436 0 -1.2246063538223773e-016 0 1 -2.7553642961003488e-015 -15 -3.3742366240998092e-031 1 I I #
ellipse-curve $-1 -1 $-1 0 10.4427575605852 0 0 1 0 -11.858163239327524 0 0 1 I I #
point $-1 -1 $-1 -11.858163239327522 10.4427575605852 0 #
convexity-sys-attrib $-1 -1 $-1 $404 $326 #
straight-curve $-1 -1 $-1 -47.5 0 47.5 0 -1 0 I I #
point $-1 -1 $-1 -47.5 17.31441602675222 -47.5 #
straight-curve $-1 -1 $-1 -47.5 0 -47.5 0 1 0 I I #
ellipse-curve $-1 -1 $-1 0 19.628832053504436 0 2.4492127076447545e-016 0 -1 2.7553642961003488e-015 -15 6.7484732481996185e-031 1 I I #
point $-1 -1 $-1 -2.7553642961003488e-015 4.6288320535044356 -3.3742366240998092e-031 #
End-of-ACIS-data 