600 0 1 0           
96 GICL ACIS Healer - Source: /gicl/data5/repository/PTC/V18/bboxrev2/boombox/cone_4_.prt.sat - 6 0 18 ACIS 6.0.3 Solaris 24 Sat Apr 13 22:48:43 2002 
1 9.999999999999999547e-07 1.000000000000000036e-10 
body $-1 $1 $-1 $-1 #
lump $-1 $-1 $2 $0 #
shell $-1 $-1 $-1 $3 $-1 $1 #
face $-1 $4 $5 $2 $-1 $6 forward single #
face $-1 $7 $8 $2 $-1 $9 reversed single #
loop $-1 $-1 $10 $3 #
cone-surface $-1 0 15.75 0 0 -1 0 -47.5 0 0 1 I I 0 1 47.5 forward I I I I #
face $-1 $11 $12 $2 $-1 $6 forward single #
loop $-1 $13 $14 $4 #
plane-surface $-1 0 0.3499999999999999778 0 0 -1 0 -1 0 0 forward_v I I I I #
coedge $-1 $15 $16 $17 $18 forward $5 $-1 #
face $-1 $19 $20 $2 $-1 $21 forward single #
loop $-1 $-1 $22 $7 #
loop $-1 $-1 $23 $4 #
coedge $-1 $17 $17 $24 $25 forward $8 $-1 #
coedge $-1 $26 $10 $27 $28 reversed $5 $-1 #
coedge $-1 $10 $26 $29 $30 forward $5 $-1 #
coedge $-1 $14 $14 $10 $18 reversed $8 $-1 #
edge $-1 $31 -3.141592653589793116 $32 -0 $10 $33 reversed 7 unknown #
face $-1 $34 $35 $2 $-1 $36 reversed single #
loop $-1 $37 $38 $11 #
plane-surface $-1 0 0 0 0 -1 0 -1 0 0 forward_v I I I I #
coedge $-1 $27 $29 $39 $40 forward $12 $-1 #
coedge $-1 $41 $41 $42 $43 forward $13 $-1 #
coedge $-1 $29 $27 $14 $25 reversed $12 $-1 #
edge $-1 $31 -3.141592653589793116 $32 -0 $14 $44 reversed 7 unknown #
coedge $-1 $16 $15 $38 $45 reversed $5 $-1 #
coedge $-1 $24 $22 $15 $28 forward $12 $-1 #
edge $-1 $46 0 $32 0.3499999999999999778 $15 $47 forward 7 unknown #
coedge $-1 $22 $24 $16 $30 reversed $12 $-1 #
edge $-1 $48 0 $31 0.3500000000000014211 $16 $49 forward 7 unknown #
vertex $-1 $30 $50 #
vertex $-1 $28 $51 #
ellipse-curve $-1 0 0.3499999999999996447 0 -0 1 -0 -47.5 0 0 1 I I #
face $-1 $52 $53 $2 $-1 $36 reversed single #
loop $-1 $-1 $54 $19 #
cone-surface $-1 0 13.62883205350443561 0 0 1 0 -2.832764505119452991 0 0 1 I I -0.9429693574150889157 0.3328795442441218055 2.832764505119452991 forward I I I I #
loop $-1 $-1 $55 $11 #
coedge $-1 $39 $39 $26 $45 forward $20 $-1 #
coedge $-1 $38 $38 $22 $40 reversed $20 $-1 #
edge $-1 $48 -3.141592653589793116 $46 -2.449212707644754516e-16 $22 $56 forward 7 unknown #
coedge $-1 $23 $23 $57 $58 reversed $13 $-1 #
coedge $-1 $59 $60 $23 $43 reversed $61 $-1 #
edge $-1 $62 -3.141592653589793116 $63 2.449212707644754516e-16 $23 $64 forward 7 unknown #
ellipse-curve $-1 0 0.3499999999999996447 0 0 -1 0 -47.5 0 0 1 I I #
edge $-1 $48 -3.141592653589793116 $46 2.449212707644754516e-16 $26 $65 reversed 7 unknown #
vertex $-1 $45 $66 #
straight-curve $-1 -47.5 0 -1.163376036131258395e-14 0 1 0 I I #
vertex $-1 $30 $67 #
straight-curve $-1 47.5 0 5.816880180656291977e-15 0 1 0 I I #
point $-1 47.5 0.3500000000000014211 5.816880180656291977e-15 #
point $-1 -47.5 0.3499999999999999778 0 #
face $-1 $68 $69 $2 $-1 $70 forward single #
loop $-1 $-1 $71 $34 #
coedge $-1 $72 $73 $74 $75 reversed $35 $-1 #
coedge $-1 $76 $76 $72 $77 reversed $37 $-1 #
ellipse-curve $-1 0 0 0 -0 1 -0 -47.5 0 0 1 I I #
coedge $-1 $78 $79 $41 $58 forward $80 $-1 #
edge $-1 $62 -3.141592653589793116 $63 -2.449212707644754516e-16 $41 $81 reversed 7 unknown #
coedge $-1 $60 $42 $79 $82 forward $61 $-1 #
coedge $-1 $42 $59 $78 $83 reversed $61 $-1 #
loop $-1 $-1 $60 $84 #
vertex $-1 $58 $85 #
vertex $-1 $58 $86 #
ellipse-curve $-1 0 0.3499999999999996447 0 0 -1 0 -41.49999999999998579 0 0 1 I I #
ellipse-curve $-1 0 0 0 -0 1 -0 -47.5 0 0 1 I I #
point $-1 -47.5 0 -1.163376036131258395e-14 #
point $-1 47.5 0 5.816880180656291977e-15 #
face $-1 $84 $87 $2 $-1 $70 forward single #
loop $-1 $-1 $88 $52 #
sphere-surface $-1 0 19.62883205350443561 0 15 1 0 0 0 0 1 forward_v I I I I #
coedge $-1 $89 $90 $91 $92 reversed $53 $-1 #
coedge $-1 $91 $54 $55 $77 forward $35 $-1 #
coedge $-1 $54 $91 $93 $94 reversed $35 $-1 #
coedge $-1 $90 $89 $54 $75 forward $53 $-1 #
edge $-1 $95 0 $96 31.370980107227183 $54 $97 forward 7 unknown #
coedge $-1 $55 $55 $89 $98 forward $37 $-1 #
edge $-1 $95 -3.141592653589793116 $99 2.449212707644755009e-16 $55 $100 forward 7 unknown #
coedge $-1 $79 $57 $60 $83 forward $80 $-1 #
coedge $-1 $57 $78 $59 $82 reversed $80 $-1 #
loop $-1 $-1 $57 $101 #
ellipse-curve $-1 0 0.3499999999999996447 0 0 -1 0 -41.49999999999998579 0 0 1 I I #
edge $-1 $62 0 $102 44.00991365590257942 $59 $103 forward 7 unknown #
edge $-1 $63 0 $102 44.00991365590257942 $60 $104 forward 7 unknown #
face $-1 $101 $61 $2 $-1 $105 forward single #
point $-1 41.5 0.3499999999999943157 5.082116368362865622e-15 #
point $-1 -41.5 0.3499999999999943157 -1.016423273672573124e-14 #
loop $-1 $-1 $106 $68 #
coedge $-1 $107 $108 $109 $110 reversed $69 $-1 #
coedge $-1 $74 $71 $76 $98 reversed $53 $-1 #
coedge $-1 $71 $74 $108 $111 reversed $53 $-1 #
coedge $-1 $73 $72 $71 $92 forward $35 $-1 #
edge $-1 $99 0 $112 31.370980107227183 $91 $113 forward 7 unknown #
coedge $-1 $106 $109 $73 $94 forward $87 $-1 #
edge $-1 $96 -3.141592653589793116 $112 -0 $73 $114 reversed 7 unknown #
vertex $-1 $98 $115 #
vertex $-1 $94 $116 #
straight-curve $-1 41.4400361925210774 0 5.074773162399058982e-15 -0.9429693574150889157 0.3328795442441219166 -1.154766266550322215e-16 I I #
edge $-1 $95 -3.141592653589793116 $99 -2.449212707644755009e-16 $76 $117 reversed 7 unknown #
vertex $-1 $98 $118 #
ellipse-curve $-1 0 0 0 0 -1 0 -41.44003619252109161 0 0 1 I I #
face $-1 $-1 $80 $2 $-1 $105 forward single #
vertex $-1 $82 $119 #
straight-curve $-1 41.5 0.3499999999999943157 5.082116368362865622e-15 -0.9429693574150889157 0.3328795442441218611 -1.154766266550321969e-16 I I #
straight-curve $-1 -41.5 0.3499999999999943157 -1.016423273672573124e-14 0.9429693574150889157 0.3328795442441218611 2.309532533100643937e-16 I I #
cone-surface $-1 0 14 0 0 1 0 -2.832764505119452991 0 0 1 I I -0.9429693574150889157 0.3328795442441218055 2.832764505119452991 forward I I I I #
coedge $-1 $109 $93 $107 $120 reversed $87 $-1 #
coedge $-1 $108 $88 $106 $120 forward $69 $-1 #
coedge $-1 $88 $107 $90 $111 forward $69 $-1 #
coedge $-1 $93 $106 $88 $110 forward $87 $-1 #
edge $-1 $121 -2.754741072781863176e-48 $96 0.9116971421248134533 $109 $122 forward 7 unknown #
edge $-1 $112 -0 $96 3.141592653589793116 $90 $123 reversed 7 unknown #
vertex $-1 $94 $124 #
straight-curve $-1 -41.4400361925210774 0 -1.014954632479811796e-14 0.9429693574150889157 0.3328795442441219166 2.30953253310064443e-16 I I #
ellipse-curve $-1 0 10.44275756058519988 0 0 1 0 -11.85816323932752425 0 0 1 I I #
point $-1 41.4400361925210774 0 5.074773162399058982e-15 #
point $-1 11.85816323932752248 10.44275756058519988 1.452158204754343036e-15 #
ellipse-curve $-1 0 0 0 0 -1 0 -41.44003619252109161 0 0 1 I I #
point $-1 -41.4400361925210774 0 -1.014954632479811796e-14 #
point $-1 0 15 0 #
edge $-1 $121 3.673819061467131775e-16 $112 0.9116971421248134533 $106 $125 forward 7 unknown #
vertex $-1 $110 $126 #
ellipse-curve $-1 0 19.62883205350443561 0 -1.224606353822377258e-16 0 1 -2.755364296100348831e-15 -15 -3.374236624099809239e-31 1 I I #
ellipse-curve $-1 0 10.44275756058519988 0 0 1 0 -11.85816323932752425 0 0 1 I I #
point $-1 -11.85816323932752248 10.44275756058519988 0 #
ellipse-curve $-1 0 19.62883205350443561 0 2.449212707644754516e-16 0 -1 2.755364296100348831e-15 -15 6.748473248199618478e-31 1 I I #
point $-1 -2.755364296100348831e-15 4.628832053504435606 -3.374236624099809239e-31 #
End-of-ACIS-data 