600 0 1 0           
99 GICL Pro/E ACIS Translator - Source: f:/data5/repository/PTC/V18/bboxrev2/boombox/cone_4_.prt - 6 0 13 ACIS 6.0.3 NT 24 Thu Apr 04 10:04:04 2002 
1 9.9999999999999995e-007 1e-010 
body $-1 $1 $-1 $-1 #
lump $-1 $-1 $2 $0 #
shell $-1 $-1 $-1 $3 $-1 $1 #
face $-1 $4 $5 $2 $-1 $6 forward single #
face $-1 $7 $8 $2 $-1 $9 reversed single #
loop $-1 $-1 $10 $3 #
cone-surface $-1 0 15.75 0 0 -1 0 -47.5 0 0 1 I I 0 1 47.5 forward I I I I #
face $-1 $11 $12 $2 $-1 $13 forward single #
loop $-1 $14 $15 $4 #
plane-surface $-1 0 0.34999999999999998 0 0 -1 0 -1 0 0 forward_v I I I I #
coedge $-1 $16 $17 $18 $19 forward $5 $-1 #
face $-1 $20 $21 $2 $-1 $22 forward single #
loop $-1 $-1 $23 $7 #
cone-surface $-1 0 15.75 0 0 -1 0 -47.5 0 0 1 I I 0 1 47.5 forward I I I I #
loop $-1 $-1 $24 $4 #
coedge $-1 $18 $18 $25 $26 forward $8 $-1 #
coedge $-1 $27 $10 $28 $29 reversed $5 $-1 #
coedge $-1 $10 $27 $30 $31 forward $5 $-1 #
coedge $-1 $15 $15 $10 $19 reversed $8 $-1 #
edge $-1 $32 1.2246063538223773e-016 $33 3.1415926535897931 $10 $34 forward 7 unknown #
face $-1 $35 $36 $2 $-1 $37 reversed single #
loop $-1 $38 $39 $11 #
plane-surface $-1 0 0 0 0 -1 0 -1 0 0 forward_v I I I I #
coedge $-1 $28 $30 $40 $41 forward $12 $-1 #
coedge $-1 $42 $42 $43 $44 forward $14 $-1 #
coedge $-1 $30 $28 $15 $26 reversed $12 $-1 #
edge $-1 $32 -1.2246063538223773e-016 $33 3.1415926535897931 $15 $45 forward 7 unknown #
coedge $-1 $17 $16 $39 $46 reversed $5 $-1 #
coedge $-1 $25 $23 $16 $29 forward $12 $-1 #
edge $-1 $47 0 $33 0.34999999999999998 $16 $48 forward 7 unknown #
coedge $-1 $23 $25 $17 $31 reversed $12 $-1 #
edge $-1 $49 0 $32 0.35000000000000142 $17 $50 forward 7 unknown #
vertex $-1 $31 $51 #
vertex $-1 $29 $52 #
ellipse-curve $-1 3.5527136788005009e-015 0.34999999999999998 1.7763568394002505e-015 0 -1 0 47.5 0 -1.7763568394002505e-015 1 I I #
face $-1 $53 $54 $2 $-1 $55 reversed single #
loop $-1 $-1 $56 $20 #
cone-surface $-1 0 13.628832053504436 0 0 1 0 -2.832764505119453 0 0 1 I I -0.94296935741508892 0.33287954424412186 2.832764505119453 forward I I I I #
loop $-1 $-1 $57 $11 #
coedge $-1 $40 $40 $27 $46 forward $21 $-1 #
coedge $-1 $39 $39 $23 $41 reversed $21 $-1 #
edge $-1 $49 0 $47 3.1415926535897931 $23 $58 forward 7 unknown #
coedge $-1 $24 $24 $59 $60 reversed $14 $-1 #
coedge $-1 $61 $62 $24 $44 reversed $63 $-1 #
edge $-1 $64 0 $65 3.1415926535897931 $24 $66 forward 7 unknown #
ellipse-curve $-1 3.5527136788005009e-015 0.34999999999999998 -1.7763568394002505e-015 0 1 0 47.5 0 1.7763568394002505e-015 1 I I #
edge $-1 $49 0 $47 3.1415926535897931 $27 $67 forward 7 unknown #
vertex $-1 $46 $68 #
straight-curve $-1 -47.5 0 -1.1633760361312584e-014 0 1 0 I I #
vertex $-1 $31 $69 #
straight-curve $-1 47.5 0 5.816880180656292e-015 0 1 0 I I #
point $-1 47.5 0.35000000000000142 5.816880180656292e-015 #
point $-1 -47.5 0.34999999999999998 0 #
face $-1 $70 $71 $2 $-1 $72 forward single #
loop $-1 $-1 $73 $35 #
cone-surface $-1 0 13.628832053504436 0 0 1 0 -2.832764505119453 0 0 1 I I -0.94296935741508892 0.33287954424412186 2.832764505119453 forward I I I I #
coedge $-1 $74 $75 $76 $77 reversed $36 $-1 #
coedge $-1 $78 $78 $74 $79 reversed $38 $-1 #
ellipse-curve $-1 0 0 0 0 1 0 47.5 0 5.816880180656292e-015 1 I I #
coedge $-1 $80 $81 $42 $60 forward $82 $-1 #
edge $-1 $64 0 $65 3.1415926535897931 $42 $83 forward 7 unknown #
coedge $-1 $62 $43 $81 $84 forward $63 $-1 #
coedge $-1 $43 $61 $80 $85 reversed $63 $-1 #
loop $-1 $-1 $62 $86 #
vertex $-1 $60 $87 #
vertex $-1 $60 $88 #
ellipse-curve $-1 0 0.34999999999999998 0 -1.3643704639971803e-016 -1 -1.6708167391785321e-032 41.5 -5.6621374255882984e-015 5.0821163683628656e-015 1 I I #
ellipse-curve $-1 1.7763568394002505e-015 0 0 0 -1 0 47.5 0 5.816880180656292e-015 1 I I #
point $-1 -47.5 0 -1.1633760361312584e-014 #
point $-1 47.5 0 5.816880180656292e-015 #
face $-1 $86 $89 $2 $-1 $90 forward single #
loop $-1 $-1 $91 $53 #
sphere-surface $-1 0 19.628832053504436 0 15 1 0 0 0 0 1 forward_v I I I I #
coedge $-1 $92 $93 $94 $95 reversed $54 $-1 #
coedge $-1 $94 $56 $57 $79 forward $36 $-1 #
coedge $-1 $56 $94 $96 $97 reversed $36 $-1 #
coedge $-1 $93 $92 $56 $77 forward $54 $-1 #
edge $-1 $98 0 $99 31.370980107227187 $56 $100 forward 7 unknown #
coedge $-1 $57 $57 $92 $101 forward $38 $-1 #
edge $-1 $98 0 $102 3.1415926535897931 $57 $103 forward 7 unknown #
coedge $-1 $81 $59 $62 $85 forward $82 $-1 #
coedge $-1 $59 $80 $61 $84 reversed $82 $-1 #
loop $-1 $-1 $59 $104 #
ellipse-curve $-1 0 0.34999999999999998 -1.7763568394002505e-015 1.3643704639971803e-016 1 2.2548188609127692e-032 41.5 -5.6621374255882984e-015 6.8584732077631161e-015 1 I I #
edge $-1 $64 0 $105 44.009913655902579 $61 $106 forward 7 unknown #
edge $-1 $65 0 $105 44.009913655902579 $62 $107 forward 7 unknown #
face $-1 $104 $63 $2 $-1 $108 forward single #
point $-1 41.5 0.34999999999999432 5.0821163683628656e-015 #
point $-1 -41.5 0.34999999999999432 -1.0164232736725731e-014 #
loop $-1 $-1 $109 $70 #
sphere-surface $-1 0 19.628832053504436 0 15 1 0 0 0 0 1 forward_v I I I I #
coedge $-1 $110 $111 $112 $113 reversed $71 $-1 #
coedge $-1 $76 $73 $78 $101 reversed $54 $-1 #
coedge $-1 $73 $76 $111 $114 reversed $54 $-1 #
coedge $-1 $75 $74 $73 $95 forward $36 $-1 #
edge $-1 $102 0 $115 31.370980107227187 $94 $116 forward 7 unknown #
coedge $-1 $109 $112 $75 $97 forward $89 $-1 #
edge $-1 $99 0 $115 3.1415926535897931 $75 $117 forward 7 unknown #
vertex $-1 $101 $118 #
vertex $-1 $97 $119 #
straight-curve $-1 41.440036192521077 0 5.074773162399059e-015 -0.94296935741508892 0.33287954424412192 -1.1547662665503222e-016 I I #
edge $-1 $98 0 $102 3.1415926535897931 $78 $120 forward 7 unknown #
vertex $-1 $101 $121 #
ellipse-curve $-1 3.5527136788005009e-015 0 -3.5527136788005009e-015 0 -1 0 41.440036192521077 0 8.6274868411995591e-015 1 I I #
face $-1 $-1 $82 $2 $-1 $122 forward single #
vertex $-1 $84 $123 #
straight-curve $-1 41.5 0.34999999999999432 5.0821163683628656e-015 -0.94296935741508892 0.33287954424412186 -1.154766266550322e-016 I I #
straight-curve $-1 -41.5 0.34999999999999432 -1.0164232736725731e-014 0.94296935741508892 0.33287954424412186 2.3095325331006439e-016 I I #
cone-surface $-1 0 14 0 0 1 0 -2.832764505119453 0 0 1 I I -0.94296935741508892 0.33287954424412186 2.832764505119453 forward I I I I #
coedge $-1 $112 $96 $110 $124 reversed $89 $-1 #
coedge $-1 $111 $91 $109 $124 forward $71 $-1 #
coedge $-1 $91 $110 $93 $114 forward $71 $-1 #
coedge $-1 $96 $109 $91 $113 forward $89 $-1 #
edge $-1 $125 0 $99 0.91169714212481334 $112 $126 forward 7 unknown #
edge $-1 $115 -2.449212707644755e-016 $99 3.1415926535897931 $93 $127 forward 7 unknown #
vertex $-1 $97 $128 #
straight-curve $-1 -41.440036192521077 0 -1.0149546324798118e-014 0.94296935741508892 0.33287954424412192 2.3095325331006444e-016 I I #
ellipse-curve $-1 4.4408920985006262e-016 10.442757560585198 1.3322676295501878e-015 0 -1 0 11.858163239327521 0 1.1989057520415479e-016 1 I I #
point $-1 41.440036192521077 0 5.074773162399059e-015 #
point $-1 11.858163239327521 10.442757560585198 1.4521582047543426e-015 #
ellipse-curve $-1 -1.7763568394002505e-015 0 -3.5527136788005009e-015 0 1 0 41.440036192521077 0 8.6274868411995591e-015 1 I I #
point $-1 -41.440036192521077 0 -1.0149546324798118e-014 #
cone-surface $-1 0 14 0 0 1 0 -2.832764505119453 0 0 1 I I -0.94296935741508892 0.33287954424412186 2.832764505119453 forward I I I I #
point $-1 0 15 0 #
edge $-1 $125 3.6738190614671318e-016 $115 0.91169714212481334 $109 $129 forward 7 unknown #
vertex $-1 $113 $130 #
ellipse-curve $-1 0 19.628832053504436 0 -1.2246063538223773e-016 0 1 -2.7553642961003488e-015 -15 -3.3742366240998092e-031 1 I I #
ellipse-curve $-1 0 10.442757560585198 4.4408920985006262e-016 0 -1 0 -11.858163239327521 0 -3.3484056193587479e-015 1 I I #
point $-1 -11.858163239327521 10.442757560585198 0 #
ellipse-curve $-1 0 19.628832053504436 0 2.4492127076447545e-016 0 -1 2.7553642961003488e-015 -15 6.7484732481996185e-031 1 I I #
point $-1 -2.7553642961003488e-015 4.6288320535044356 -3.3742366240998092e-031 #
End-of-ACIS-data 