600 0 1 0           
91 GICL ACIS Healer - Source: /gicl/data5/repository/PTC/V18/bboxrev2/boombox/conn3_.sat - 6 0 18 ACIS 6.0.3 Solaris 24 Sat Apr 13 22:33:19 2002 
1 9.999999999999999547e-07 1.000000000000000036e-10 
body $-1 $1 $-1 $-1 #
lump $-1 $-1 $2 $0 #
shell $-1 $-1 $-1 $3 $-1 $1 #
face $-1 $4 $5 $2 $-1 $6 reversed single #
face $-1 $7 $8 $2 $-1 $9 forward single #
loop $-1 $-1 $10 $3 #
plane-surface $-1 0 0 0 0 0 1 1 0 0 forward_v I I I I #
face $-1 $11 $12 $2 $-1 $13 forward single #
loop $-1 $-1 $14 $4 #
plane-surface $-1 -2.439000000000000057 1.724999999999999867 0 -1 0 0 0 -1 0 forward_v I I I I #
coedge $-1 $15 $16 $17 $18 reversed $5 $-1 #
face $-1 $19 $20 $2 $-1 $21 forward single #
loop $-1 $-1 $22 $7 #
plane-surface $-1 -2.439000000000000057 -1.724999999999999867 0 0 -1 0 1 0 0 forward_v I I I I #
coedge $-1 $23 $17 $24 $25 forward $8 $-1 #
coedge $-1 $26 $10 $27 $28 reversed $5 $-1 #
coedge $-1 $10 $26 $29 $30 reversed $5 $-1 #
coedge $-1 $14 $31 $10 $18 forward $8 $-1 #
edge $-1 $32 -0.8624999999999999334 $33 2.587499999999999467 $10 $34 forward 7 unknown #
face $-1 $35 $36 $2 $-1 $37 forward single #
loop $-1 $-1 $38 $11 #
plane-surface $-1 7.010999999999999233 -1.724999999999999867 0 1 0 0 0 1 0 forward_v I I I I #
coedge $-1 $39 $29 $40 $41 forward $12 $-1 #
coedge $-1 $31 $14 $42 $43 reversed $8 $-1 #
coedge $-1 $29 $39 $14 $25 reversed $12 $-1 #
edge $-1 $33 0 $44 0.8999999999999999112 $24 $45 reversed 7 unknown #
coedge $-1 $16 $15 $46 $47 reversed $5 $-1 #
coedge $-1 $48 $49 $15 $28 forward $36 $-1 #
edge $-1 $50 -3.505499999999999616 $32 5.944499999999999673 $15 $51 forward 7 unknown #
coedge $-1 $22 $24 $16 $30 forward $12 $-1 #
edge $-1 $33 -1.219500000000000028 $52 8.230499999999999261 $16 $53 forward 7 unknown #
coedge $-1 $17 $23 $48 $54 reversed $8 $-1 #
vertex $-1 $28 $55 #
vertex $-1 $30 $56 #
straight-curve $-1 -2.439000000000000057 0.8624999999999999334 0 0 -1 0 I I #
face $-1 $57 $58 $2 $-1 $59 forward single #
loop $-1 $-1 $48 $19 #
plane-surface $-1 7.010999999999999233 1.724999999999999867 0 0 1 0 -1 0 0 forward_v I I I I #
coedge $-1 $60 $46 $49 $61 forward $20 $-1 #
coedge $-1 $24 $22 $62 $63 reversed $12 $-1 #
coedge $-1 $46 $60 $22 $41 reversed $20 $-1 #
edge $-1 $52 0 $64 0.8999999999999999112 $22 $65 forward 7 unknown #
coedge $-1 $62 $66 $23 $43 forward $58 $-1 #
edge $-1 $67 -0.8624999999999999334 $44 2.587499999999999467 $42 $68 forward 7 unknown #
vertex $-1 $63 $69 #
straight-curve $-1 -2.439000000000000057 -1.724999999999999867 0 -0 -0 -1 I I #
coedge $-1 $38 $40 $26 $47 forward $20 $-1 #
edge $-1 $52 -0.8624999999999999334 $50 2.587499999999999911 $26 $70 forward 7 unknown #
coedge $-1 $71 $27 $31 $54 forward $36 $-1 #
coedge $-1 $27 $71 $38 $61 reversed $36 $-1 #
vertex $-1 $47 $72 #
straight-curve $-1 3.505499999999999616 1.724999999999999867 0 -1 0 0 I I #
vertex $-1 $30 $73 #
straight-curve $-1 -1.219500000000000028 -1.724999999999999867 0 1 0 -0 I I #
edge $-1 $32 0 $67 0.8999999999999999112 $48 $74 forward 7 unknown #
point $-1 -2.439000000000000057 1.724999999999999867 0 #
point $-1 -2.439000000000000057 -1.724999999999999645 0 #
face $-1 $75 $76 $2 $-1 $77 forward single #
loop $-1 $78 $79 $35 #
plane-surface $-1 0 0 0.8999999999999999112 0 0 1 1 0 0 forward_v I I I I #
coedge $-1 $40 $38 $79 $80 reversed $20 $-1 #
edge $-1 $50 0 $81 0.8999999999999999112 $38 $82 forward 7 unknown #
coedge $-1 $79 $42 $39 $63 forward $58 $-1 #
edge $-1 $44 -1.219500000000000028 $64 8.230499999999999261 $62 $83 forward 7 unknown #
vertex $-1 $63 $84 #
straight-curve $-1 7.010999999999999233 -1.724999999999999867 0 -0 0 1 I I #
coedge $-1 $42 $79 $71 $85 forward $58 $-1 #
vertex $-1 $43 $86 #
straight-curve $-1 -2.439000000000000057 0.8624999999999999334 0.8999999999999999112 0 -1 0 I I #
point $-1 -2.439000000000000057 -1.724999999999999645 0.8999999999999999112 #
straight-curve $-1 7.010999999999999233 -0.8624999999999999334 0 0 1 0 I I #
coedge $-1 $49 $48 $66 $85 reversed $36 $-1 #
point $-1 7.010999999999999233 1.724999999999999867 0 #
point $-1 7.010999999999999233 -1.724999999999999867 0 #
straight-curve $-1 -2.439000000000000057 1.724999999999999867 0 0 -0 1 I I #
face $-1 $87 $88 $2 $-1 $89 forward single #
loop $-1 $-1 $90 $57 #
plane-surface $-1 6.785999999999999588 1.5 0 0 1 0 -1 0 0 forward_v I I I I #
loop $-1 $-1 $91 $35 #
coedge $-1 $66 $62 $60 $80 forward $58 $-1 #
edge $-1 $64 -0.8624999999999999334 $81 2.587499999999999467 $79 $92 forward 7 unknown #
vertex $-1 $85 $93 #
straight-curve $-1 7.010999999999999233 1.724999999999999867 0 0 0 1 I I #
straight-curve $-1 -1.219500000000000028 -1.724999999999999867 0.8999999999999999112 1 0 -0 I I #
point $-1 7.010999999999999233 -1.724999999999999867 0.8999999999999999112 #
edge $-1 $81 -3.505499999999999616 $67 5.944499999999999673 $66 $94 forward 7 unknown #
point $-1 -2.439000000000000057 1.724999999999999867 0.8999999999999999112 #
face $-1 $95 $96 $2 $-1 $97 forward single #
loop $-1 $-1 $98 $75 #
plane-surface $-1 -2.213999999999999968 1.5 0 -1 0 0 0 -1 0 forward_v I I I I #
coedge $-1 $99 $100 $101 $102 forward $76 $-1 #
coedge $-1 $103 $104 $100 $105 reversed $78 $-1 #
straight-curve $-1 7.010999999999999233 -0.8624999999999999334 0.8999999999999999112 0 1 0 I I #
point $-1 7.010999999999999233 1.724999999999999645 0.8999999999999999112 #
straight-curve $-1 3.505499999999999616 1.724999999999999867 0.8999999999999999112 -1 0 0 I I #
face $-1 $106 $107 $2 $-1 $108 forward single #
loop $-1 $-1 $109 $87 #
plane-surface $-1 -2.213999999999999968 -1.5 0 0 -1 0 1 0 0 forward_v I I I I #
coedge $-1 $110 $111 $112 $113 forward $88 $-1 #
coedge $-1 $114 $90 $115 $116 reversed $76 $-1 #
coedge $-1 $90 $114 $91 $105 forward $76 $-1 #
coedge $-1 $111 $110 $90 $102 reversed $88 $-1 #
edge $-1 $117 0.8999999999999999112 $118 6.299999999999999822 $101 $119 reversed 7 unknown #
coedge $-1 $120 $91 $121 $122 reversed $78 $-1 #
coedge $-1 $91 $120 $111 $123 reversed $78 $-1 #
edge $-1 $124 -3.392999999999999794 $117 5.607000000000000206 $100 $125 reversed 7 unknown #
face $-1 $126 $127 $2 $-1 $128 forward single #
loop $-1 $-1 $129 $95 #
plane-surface $-1 6.785999999999999588 -1.5 0 1 0 0 0 1 0 forward_v I I I I #
coedge $-1 $130 $131 $132 $133 forward $96 $-1 #
coedge $-1 $101 $98 $134 $135 reversed $88 $-1 #
coedge $-1 $98 $101 $104 $123 forward $88 $-1 #
coedge $-1 $131 $130 $98 $113 reversed $96 $-1 #
edge $-1 $136 0.8999999999999999112 $137 6.299999999999999822 $98 $138 forward 7 unknown #
coedge $-1 $100 $99 $129 $139 reversed $76 $-1 #
coedge $-1 $134 $140 $99 $116 forward $127 $-1 #
edge $-1 $141 -3.392999999999999794 $118 5.606999999999999318 $115 $142 forward 7 unknown #
vertex $-1 $123 $143 #
vertex $-1 $135 $144 #
straight-curve $-1 -2.214000000000000412 1.5 0 0 0 -1 I I #
coedge $-1 $104 $103 $131 $145 reversed $78 $-1 #
coedge $-1 $129 $132 $103 $122 forward $107 $-1 #
edge $-1 $146 -0.75 $124 2.25 $121 $147 reversed 7 unknown #
edge $-1 $117 -0.75 $136 2.25 $111 $148 reversed 7 unknown #
vertex $-1 $122 $149 #
straight-curve $-1 3.392999999999999794 1.5 0.8999999999999999112 1 0 0 I I #
face $-1 $150 $151 $2 $-1 $152 reversed single #
loop $-1 $153 $154 $106 #
plane-surface $-1 0 0 6.299999999999999822 0 0 1 1 0 0 forward_v I I I I #
coedge $-1 $155 $121 $114 $139 forward $107 $-1 #
coedge $-1 $112 $109 $154 $156 reversed $96 $-1 #
coedge $-1 $109 $112 $120 $145 forward $96 $-1 #
coedge $-1 $121 $155 $109 $133 reversed $107 $-1 #
edge $-1 $146 0.8999999999999999112 $157 6.299999999999999822 $109 $158 forward 7 unknown #
coedge $-1 $154 $115 $110 $135 forward $127 $-1 #
edge $-1 $118 -0.75 $137 2.25 $134 $159 forward 7 unknown #
vertex $-1 $123 $160 #
vertex $-1 $135 $161 #
straight-curve $-1 -2.213999999999999968 -1.5 0 0 0 1 I I #
edge $-1 $124 0.8999999999999999112 $141 6.299999999999999822 $129 $162 forward 7 unknown #
coedge $-1 $115 $154 $155 $163 forward $127 $-1 #
vertex $-1 $116 $164 #
straight-curve $-1 3.392999999999999794 1.5 6.299999999999999822 -1 0 0 I I #
point $-1 -2.214000000000000412 1.5 0.8999999999999999112 #
point $-1 -2.213999999999999524 1.5 6.299999999999999822 #
edge $-1 $136 -1.106999999999999984 $146 7.892999999999999794 $131 $165 reversed 7 unknown #
vertex $-1 $145 $166 #
straight-curve $-1 6.785999999999999588 -0.75 0.8999999999999999112 0 -1 0 I I #
straight-curve $-1 -2.213999999999999968 0.75 0.8999999999999999112 0 1 -0 I I #
point $-1 6.785999999999999588 1.5 0.8999999999999999112 #
face $-1 $167 $168 $2 $-1 $169 reversed single #
loop $-1 $-1 $170 $126 #
plane-surface $-1 -1.988999999999999879 1.274999999999999911 0.9000000000000003553 -1 0 0 0 -1 0 forward_v I I I I #
loop $-1 $-1 $171 $106 #
coedge $-1 $140 $134 $130 $156 forward $127 $-1 #
coedge $-1 $132 $129 $140 $163 reversed $107 $-1 #
edge $-1 $137 -1.106999999999999984 $157 7.892999999999999794 $154 $172 forward 7 unknown #
vertex $-1 $163 $173 #
straight-curve $-1 6.785999999999999588 -1.5 0 -0 0 1 I I #
straight-curve $-1 -2.213999999999999968 0.75 6.299999999999999822 0 -1 0 I I #
point $-1 -2.213999999999999968 -1.5 0.8999999999999999112 #
point $-1 -2.213999999999999968 -1.5 6.299999999999999822 #
straight-curve $-1 6.785999999999999588 1.5 0 0 0 1 I I #
edge $-1 $157 -0.75 $141 2.25 $140 $174 forward 7 unknown #
point $-1 6.785999999999999588 1.5 6.299999999999999822 #
straight-curve $-1 -1.106999999999999984 -1.5 0.8999999999999999112 -1 0 0 I I #
point $-1 6.785999999999999588 -1.5 0.8999999999999999112 #
face $-1 $175 $176 $2 $-1 $177 reversed single #
loop $-1 $-1 $178 $150 #
plane-surface $-1 -1.988999999999999879 -1.274999999999999911 0.9000000000000003553 0 -1 0 1 0 0 forward_v I I I I #
coedge $-1 $179 $180 $181 $182 reversed $151 $-1 #
coedge $-1 $183 $184 $180 $185 reversed $153 $-1 #
straight-curve $-1 -1.106999999999999984 -1.5 6.299999999999999822 1 0 -0 I I #
point $-1 6.785999999999999588 -1.5 6.299999999999999822 #
straight-curve $-1 6.785999999999999588 -0.75 6.299999999999999822 0 1 0 I I #
face $-1 $186 $187 $2 $-1 $188 reversed single #
loop $-1 $-1 $189 $167 #
plane-surface $-1 6.560999999999999943 -1.274999999999999911 0.9000000000000003553 1 0 0 0 1 0 forward_v I I I I #
coedge $-1 $190 $191 $192 $193 reversed $168 $-1 #
coedge $-1 $194 $170 $195 $196 reversed $151 $-1 #
coedge $-1 $170 $194 $171 $185 forward $151 $-1 #
coedge $-1 $191 $190 $170 $182 forward $168 $-1 #
edge $-1 $197 0 $198 5.399999999999999467 $181 $199 reversed 7 unknown #
coedge $-1 $200 $171 $201 $202 reversed $153 $-1 #
coedge $-1 $171 $200 $191 $203 reversed $153 $-1 #
edge $-1 $204 -0.6374999999999999556 $198 1.912499999999999867 $171 $205 forward 7 unknown #
face $-1 $206 $207 $2 $-1 $208 forward single #
loop $-1 $-1 $209 $175 #
plane-surface $-1 6.560999999999999943 1.274999999999999911 0.9000000000000003553 0 1 0 -1 0 0 forward_v I I I I #
coedge $-1 $210 $211 $212 $213 reversed $176 $-1 #
coedge $-1 $181 $178 $214 $215 reversed $168 $-1 #
coedge $-1 $178 $181 $184 $203 forward $168 $-1 #
coedge $-1 $211 $210 $178 $193 forward $176 $-1 #
edge $-1 $216 0 $217 5.399999999999999467 $178 $218 forward 7 unknown #
coedge $-1 $180 $179 $209 $219 forward $151 $-1 #
coedge $-1 $214 $220 $179 $196 forward $207 $-1 #
edge $-1 $221 -0.6374999999999999556 $197 1.912499999999999867 $195 $222 forward 7 unknown #
vertex $-1 $215 $223 #
vertex $-1 $203 $224 #
straight-curve $-1 -1.988999999999999879 -1.274999999999999911 0.9000000000000003553 -0 -0 -1 I I #
coedge $-1 $184 $183 $211 $225 reversed $153 $-1 #
coedge $-1 $209 $212 $183 $202 forward $187 $-1 #
edge $-1 $226 -3.280499999999999972 $204 5.269499999999999851 $183 $227 forward 7 unknown #
edge $-1 $198 -0.9944999999999999396 $217 7.555500000000000327 $184 $228 forward 7 unknown #
vertex $-1 $202 $229 #
straight-curve $-1 -1.988999999999999879 0.6374999999999999556 6.299999999999999822 0 -1 0 I I #
face $-1 $230 $231 $2 $-1 $232 forward single #
loop $-1 $233 $234 $186 #
plane-surface $-1 0 0 0.9000000000000003553 0 0 1 1 0 0 forward_v I I I I #
coedge $-1 $235 $201 $194 $219 reversed $187 $-1 #
coedge $-1 $192 $189 $234 $236 reversed $176 $-1 #
coedge $-1 $189 $192 $200 $225 forward $176 $-1 #
coedge $-1 $201 $235 $189 $213 forward $187 $-1 #
edge $-1 $237 0 $226 5.399999999999999467 $189 $238 forward 7 unknown #
coedge $-1 $234 $195 $190 $215 forward $207 $-1 #
edge $-1 $197 -0.9944999999999999396 $216 7.555500000000000327 $214 $239 forward 7 unknown #
vertex $-1 $215 $240 #
vertex $-1 $203 $241 #
straight-curve $-1 6.560999999999999943 -1.274999999999999911 0.9000000000000003553 -0 0 1 I I #
edge $-1 $221 0 $204 5.399999999999999467 $209 $242 forward 7 unknown #
coedge $-1 $195 $234 $235 $243 forward $207 $-1 #
vertex $-1 $196 $244 #
straight-curve $-1 -1.988999999999999879 0.6374999999999999556 0.9000000000000003553 0 -1 0 I I #
point $-1 -1.988999999999999879 -1.274999999999999911 0.9000000000000003553 #
point $-1 -1.988999999999999879 -1.274999999999999911 6.299999999999999822 #
edge $-1 $217 -0.6374999999999999556 $226 1.912499999999999867 $200 $245 forward 7 unknown #
vertex $-1 $225 $246 #
straight-curve $-1 3.280499999999999972 1.274999999999999911 6.299999999999999822 -1 0 0 I I #
straight-curve $-1 -0.9944999999999999396 -1.274999999999999911 6.299999999999999822 1 0 -0 I I #
point $-1 -1.988999999999999879 1.274999999999999911 6.299999999999999822 #
face $-1 $247 $248 $2 $-1 $232 forward single #
loop $-1 $-1 $249 $206 #
cone-surface $-1 0 0 -0.2924999999999999822 0 0 1 0 0.3374999999999999112 0 1 I I 0 1 0.3374999999999999667 forward I I I I #
loop $-1 $250 $251 $186 #
coedge $-1 $220 $214 $210 $236 forward $207 $-1 #
coedge $-1 $212 $209 $220 $243 reversed $187 $-1 #
edge $-1 $216 -0.6374999999999999556 $237 1.912499999999999867 $234 $252 forward 7 unknown #
vertex $-1 $243 $253 #
straight-curve $-1 6.560999999999999943 1.274999999999999911 0.9000000000000003553 0 0 1 I I #
straight-curve $-1 -0.9944999999999999396 -1.274999999999999911 0.9000000000000003553 1 0 -0 I I #
point $-1 6.560999999999999943 -1.274999999999999911 0.9000000000000003553 #
point $-1 6.560999999999999943 -1.274999999999999911 6.299999999999999822 #
straight-curve $-1 -1.989000000000000323 1.274999999999999911 0.9000000000000003553 0 -0 1 I I #
edge $-1 $237 -3.280499999999999972 $221 5.269499999999999851 $220 $254 forward 7 unknown #
point $-1 -1.988999999999999879 1.274999999999999911 0.9000000000000003553 #
straight-curve $-1 6.560999999999999943 -0.6374999999999999556 6.299999999999999822 0 1 0 I I #
point $-1 6.560999999999999943 1.274999999999999911 6.299999999999999822 #
face $-1 $255 $256 $2 $-1 $257 forward single #
loop $-1 $-1 $258 $230 #
coedge $-1 $259 $260 $261 $262 reversed $231 $-1 #
loop $-1 $263 $264 $186 #
coedge $-1 $265 $265 $260 $266 reversed $233 $-1 #
straight-curve $-1 6.560999999999999943 -0.6374999999999999556 0.9000000000000003553 0 1 0 I I #
point $-1 6.560999999999999943 1.274999999999999911 0.9000000000000003553 #
straight-curve $-1 3.280499999999999972 1.274999999999999911 0.9000000000000003553 -1 0 0 I I #
face $-1 $267 $268 $2 $-1 $257 forward single #
loop $-1 $-1 $269 $247 #
torus-surface $-1 0 0 4.987412199544976943 0 0 1 -0.5625 0.8999999999999999112 0 -1 0 forward_v I I I I #
coedge $-1 $270 $271 $272 $273 reversed $248 $-1 #
coedge $-1 $272 $249 $274 $275 forward $231 $-1 #
coedge $-1 $249 $272 $251 $266 forward $231 $-1 #
coedge $-1 $271 $270 $249 $262 forward $248 $-1 #
edge $-1 $276 0 $277 4.087412199544976588 $261 $278 forward 7 unknown #
loop $-1 $-1 $279 $186 #
coedge $-1 $280 $280 $281 $282 reversed $250 $-1 #
coedge $-1 $251 $251 $271 $283 reversed $233 $-1 #
edge $-1 $284 0 $277 3.141592653589793116 $251 $285 forward 7 unknown #
face $-1 $286 $287 $2 $-1 $288 forward single #
loop $-1 $-1 $289 $255 #
coedge $-1 $290 $291 $270 $292 forward $256 $-1 #
coedge $-1 $261 $258 $269 $292 reversed $248 $-1 #
coedge $-1 $258 $261 $265 $283 forward $248 $-1 #
coedge $-1 $260 $259 $258 $273 forward $231 $-1 #
edge $-1 $293 0 $284 4.087412199544976588 $258 $294 forward 7 unknown #
coedge $-1 $295 $296 $259 $275 reversed $268 $-1 #
edge $-1 $276 -3.141592653589793116 $293 -2.449212707644754516e-16 $274 $297 reversed 7 unknown #
vertex $-1 $298 $299 #
vertex $-1 $283 $300 #
straight-curve $-1 4.133046444150522753e-17 -0.3374999999999999667 4.987412199544976943 3.666870406196889831e-17 0 -1 I I #
coedge $-1 $301 $301 $302 $303 reversed $263 $-1 #
coedge $-1 $264 $264 $304 $305 reversed $250 $-1 #
coedge $-1 $306 $307 $264 $282 forward $308 $-1 #
edge $-1 $309 0 $310 3.141592653589793116 $264 $311 forward 7 unknown #
edge $-1 $277 -3.141592653589793116 $284 0 $265 $312 forward 7 unknown #
vertex $-1 $283 $313 #
ellipse-curve $-1 0 0 0.9000000000000003553 0 0 1 0 0.3374999999999999112 0 1 I I #
face $-1 $314 $315 $2 $-1 $316 forward single #
loop $-1 $-1 $317 $267 #
cone-surface $-1 0 0 5.365466594928129496 0 0 1 0 0.2679491924311222517 0 1 I I -0.2588190451025203509 0.9659258262890684232 0.2679491924311222517 forward I I I I #
coedge $-1 $296 $295 $318 $319 forward $268 $-1 #
coedge $-1 $320 $269 $296 $321 reversed $256 $-1 #
coedge $-1 $269 $320 $295 $298 forward $256 $-1 #
edge $-1 $276 -3.141592653589793116 $293 2.449212707644754516e-16 $269 $322 forward 7 unknown #
vertex $-1 $321 $323 #
straight-curve $-1 -8.266092888301045507e-17 0.3374999999999999667 4.987412199544976943 0 0 -1 I I #
coedge $-1 $289 $274 $291 $298 reversed $268 $-1 #
coedge $-1 $274 $289 $290 $321 forward $268 $-1 #
ellipse-curve $-1 0 0 4.987412199544976943 0 0 1 0 0.3374999999999999112 0 1 I I #
edge $-1 $324 -6.853228547068895503e-17 $276 0.2617993877991494078 $291 $325 forward 7 unknown #
point $-1 4.133046444150522753e-17 -0.3374999999999999112 4.987412199544976943 #
point $-1 0 -0.3374999999999999667 0.9000000000000003553 #
coedge $-1 $279 $279 $326 $327 reversed $263 $-1 #
coedge $-1 $328 $329 $279 $303 forward $330 $-1 #
edge $-1 $331 0 $332 3.141592653589793116 $279 $333 forward 7 unknown #
coedge $-1 $334 $335 $280 $305 forward $336 $-1 #
edge $-1 $310 -3.141592653589793116 $309 0 $280 $337 forward 7 unknown #
coedge $-1 $338 $281 $335 $339 reversed $308 $-1 #
coedge $-1 $281 $338 $334 $340 forward $308 $-1 #
loop $-1 $-1 $306 $341 #
vertex $-1 $305 $342 #
vertex $-1 $305 $343 #
ellipse-curve $-1 2.285999999999999588 0 0.9000000000000003553 0 0 1 0 0.3374999999999999112 0 1 I I #
ellipse-curve $-1 0 0 0.9000000000000003553 0 0 1 0 0.3374999999999999112 0 1 I I #
point $-1 0 0.3374999999999999667 0.9000000000000003553 #
face $-1 $344 $345 $2 $-1 $316 forward single #
loop $-1 $-1 $346 $286 #
sphere-surface $-1 0 0 5.669999999999999929 0.1799999999999999933 1 0 0 0 0 1 forward_v I I I I #
coedge $-1 $347 $348 $349 $350 forward $287 $-1 #
coedge $-1 $348 $347 $289 $319 reversed $287 $-1 #
edge $-1 $324 -3.141592653589793116 $351 -2.449212707644755009e-16 $318 $352 reversed 7 unknown #
coedge $-1 $291 $290 $353 $354 reversed $256 $-1 #
edge $-1 $351 0 $293 0.2617993877991494078 $290 $355 forward 7 unknown #
ellipse-curve $-1 0 0 4.987412199544976943 0 0 1 0 0.3374999999999999112 0 1 I I #
point $-1 -8.266092888301045507e-17 0.3374999999999999667 4.987412199544976943 #
vertex $-1 $356 $357 #
ellipse-curve $-1 -6.888410740250857286e-17 0.5624999999999984457 4.987412199544976943 1 1.224606353822377998e-16 -7.608612125974293414e-33 1.064591013775249095e-16 -0.869333243660159849 0.2329371405922682214 1 I I #
coedge $-1 $358 $359 $301 $327 forward $360 $-1 #
edge $-1 $332 -3.141592653589793116 $331 0 $301 $361 forward 7 unknown #
coedge $-1 $362 $302 $359 $363 reversed $330 $-1 #
coedge $-1 $302 $362 $358 $364 forward $330 $-1 #
loop $-1 $-1 $328 $365 #
vertex $-1 $327 $366 #
vertex $-1 $327 $367 #
ellipse-curve $-1 4.571999999999999176 0 0.9000000000000003553 0 0 1 0 0.3374999999999999112 0 1 I I #
coedge $-1 $368 $304 $307 $340 reversed $336 $-1 #
coedge $-1 $304 $368 $306 $339 forward $336 $-1 #
loop $-1 $-1 $334 $369 #
ellipse-curve $-1 2.285999999999999588 0 0.9000000000000003553 0 0 1 0 0.3374999999999999112 0 1 I I #
coedge $-1 $307 $306 $370 $371 forward $308 $-1 #
edge $-1 $372 0 $310 4.087412199544976588 $335 $373 forward 7 unknown #
edge $-1 $374 0 $309 4.087412199544976588 $334 $375 forward 7 unknown #
face $-1 $369 $308 $2 $-1 $376 forward single #
point $-1 2.285999999999999588 0.3374999999999999667 0.9000000000000003553 #
point $-1 2.285999999999999588 -0.3374999999999999667 0.9000000000000003553 #
face $-1 $341 $377 $2 $-1 $288 forward single #
loop $-1 $-1 $378 $314 #
coedge $-1 $349 $379 $380 $381 forward $315 $-1 #
coedge $-1 $318 $317 $382 $383 forward $287 $-1 #
coedge $-1 $317 $318 $384 $356 reversed $287 $-1 #
coedge $-1 $379 $346 $317 $350 reversed $315 $-1 #
edge $-1 $385 -3.141592653589793116 $386 -2.449212707644754023e-16 $349 $387 reversed 7 unknown #
vertex $-1 $383 $388 #
ellipse-curve $-1 0 0 5.220349340137245164 0 0 1 0 0.3068332436601610702 0 1 I I #
coedge $-1 $382 $384 $320 $354 forward $377 $-1 #
edge $-1 $324 -3.141592653589793116 $351 2.449212707644755009e-16 $353 $389 forward 7 unknown #
ellipse-curve $-1 1.377682148050171457e-16 -0.5624999999999984457 4.987412199544976943 -1 -2.449212707644755996e-16 -1.521722425194858683e-32 -2.129182027550498189e-16 0.869333243660159849 0.2329371405922682214 1 I I #
edge $-1 $385 5.028570103975510596e-17 $324 0.51374347229918782 $384 $390 forward 7 unknown #
point $-1 3.757499397501629347e-17 -0.3068332436601610702 5.220349340137245164 #
coedge $-1 $391 $326 $329 $364 reversed $360 $-1 #
coedge $-1 $326 $391 $328 $363 forward $360 $-1 #
loop $-1 $-1 $358 $392 #
ellipse-curve $-1 4.571999999999999176 0 0.9000000000000003553 0 0 1 0 0.3374999999999999112 0 1 I I #
coedge $-1 $329 $328 $393 $394 forward $330 $-1 #
edge $-1 $395 0 $332 4.087412199544976588 $359 $396 forward 7 unknown #
edge $-1 $397 0 $331 4.087412199544976588 $358 $398 forward 7 unknown #
face $-1 $392 $330 $2 $-1 $399 forward single #
point $-1 4.571999999999999176 0.3374999999999999667 0.9000000000000003553 #
point $-1 4.571999999999999176 -0.3374999999999999667 0.9000000000000003553 #
coedge $-1 $335 $334 $400 $401 reversed $336 $-1 #
face $-1 $402 $336 $2 $-1 $376 forward single #
coedge $-1 $403 $404 $338 $371 reversed $405 $-1 #
edge $-1 $372 -3.141592653589793116 $374 -0 $370 $406 reversed 7 unknown #
vertex $-1 $407 $408 #
straight-curve $-1 2.285999999999999588 -0.3374999999999999667 4.987412199544976943 0 0 -1 I I #
vertex $-1 $409 $410 #
straight-curve $-1 2.285999999999999588 0.3374999999999999667 4.987412199544976943 0 0 -1 I I #
cone-surface $-1 2.285999999999999588 0 -0.2924999999999999822 0 0 1 0 0.3374999999999999112 0 1 I I 0 1 0.3374999999999999667 forward I I I I #
loop $-1 $-1 $353 $344 #
coedge $-1 $380 $411 $412 $413 forward $345 $-1 #
coedge $-1 $346 $349 $411 $414 reversed $315 $-1 #
coedge $-1 $411 $378 $346 $381 reversed $345 $-1 #
edge $-1 $415 -1.224606353822378984e-16 $386 1.308996938995749426 $380 $416 forward 7 unknown #
coedge $-1 $412 $353 $347 $383 reversed $377 $-1 #
edge $-1 $386 0 $351 0.51374347229918782 $382 $417 forward 7 unknown #
coedge $-1 $353 $412 $348 $356 forward $377 $-1 #
vertex $-1 $414 $418 #
vertex $-1 $381 $419 #
ellipse-curve $-1 0 0 5.716587428118453218 0 0 1 0 0.1738666487320321419 0 1 I I #
point $-1 -7.514998795003267322e-17 0.3068332436601614033 5.220349340137245164 #
ellipse-curve $-1 0 0 5.220349340137245164 0 0 1 0 0.3068332436601610702 0 1 I I #
straight-curve $-1 2.129182027550500162e-17 -0.1738666487320322251 5.716587428118453218 3.169514471227868939e-17 -0.2588190451025202954 -0.9659258262890685343 I I #
coedge $-1 $359 $358 $420 $421 reversed $360 $-1 #
face $-1 $422 $360 $2 $-1 $399 forward single #
coedge $-1 $423 $424 $362 $394 reversed $425 $-1 #
edge $-1 $395 -3.141592653589793116 $397 -0 $393 $426 reversed 7 unknown #
vertex $-1 $427 $428 #
straight-curve $-1 4.571999999999999176 -0.3374999999999999667 4.987412199544976943 0 0 -1 I I #
vertex $-1 $429 $430 #
straight-curve $-1 4.571999999999999176 0.3374999999999999667 4.987412199544976943 0 0 -1 I I #
cone-surface $-1 4.571999999999999176 0 -0.2924999999999999822 0 0 1 0 0.3374999999999999112 0 1 I I 0 1 0.3374999999999999667 forward I I I I #
coedge $-1 $431 $432 $368 $401 forward $433 $-1 #
edge $-1 $372 -3.141592653589793116 $374 0 $400 $434 forward 7 unknown #
face $-1 $435 $433 $2 $-1 $436 forward single #
coedge $-1 $437 $370 $432 $407 reversed $405 $-1 #
coedge $-1 $370 $437 $431 $409 forward $405 $-1 #
loop $-1 $-1 $437 $435 #
ellipse-curve $-1 2.285999999999999588 0 4.987412199544976943 0 0 1 0 0.3374999999999999112 0 1 I I #
edge $-1 $438 -6.853228547068895503e-17 $372 0.2617993877991494078 $432 $439 forward 7 unknown #
point $-1 2.285999999999999588 -0.3374999999999999112 4.987412199544976943 #
edge $-1 $440 0 $374 0.2617993877991494078 $431 $441 forward 7 unknown #
point $-1 2.285999999999999588 0.3374999999999999667 4.987412199544976943 #
coedge $-1 $378 $380 $379 $414 forward $345 $-1 #
coedge $-1 $384 $382 $378 $413 reversed $377 $-1 #
edge $-1 $385 -3.141592653589793116 $386 2.449212707644754023e-16 $378 $442 forward 7 unknown #
edge $-1 $415 0 $385 1.308996938995749648 $411 $443 forward 7 unknown #
vertex $-1 $414 $444 #
ellipse-curve $-1 0 0 5.669999999999999929 -1 -2.449212707644754516e-16 5.279535229811760639e-48 -2.699389299279847268e-33 1.102145718440139545e-17 0.1799999999999997158 1 I I #
straight-curve $-1 -4.258364055101000323e-17 0.1738666487320322251 5.716587428118453218 -6.339028942455737877e-17 0.2588190451025202954 -0.9659258262890685343 I I #
point $-1 2.129182027550502627e-17 -0.1738666487320324194 5.716587428118453218 #
point $-1 -4.258364055101000323e-17 0.1738666487320322251 5.716587428118453218 #
coedge $-1 $445 $446 $391 $421 forward $447 $-1 #
edge $-1 $395 -3.141592653589793116 $397 0 $420 $448 forward 7 unknown #
face $-1 $449 $447 $2 $-1 $450 forward single #
coedge $-1 $451 $393 $446 $427 reversed $425 $-1 #
coedge $-1 $393 $451 $445 $429 forward $425 $-1 #
loop $-1 $-1 $451 $449 #
ellipse-curve $-1 4.571999999999999176 0 4.987412199544976943 0 0 1 0 0.3374999999999999112 0 1 I I #
edge $-1 $452 -6.853228547068895503e-17 $395 0.2617993877991494078 $446 $453 forward 7 unknown #
point $-1 4.571999999999999176 -0.3374999999999999112 4.987412199544976943 #
edge $-1 $454 0 $397 0.2617993877991494078 $445 $455 forward 7 unknown #
point $-1 4.571999999999999176 0.3374999999999999667 4.987412199544976943 #
coedge $-1 $456 $400 $404 $409 reversed $433 $-1 #
coedge $-1 $400 $456 $403 $407 forward $433 $-1 #
loop $-1 $-1 $400 $402 #
ellipse-curve $-1 2.285999999999999588 0 4.987412199544976943 0 0 1 0 0.3374999999999999112 0 1 I I #
face $-1 $457 $405 $2 $-1 $436 forward single #
torus-surface $-1 2.285999999999999588 0 4.987412199544976943 0 0 1 -0.5625 0.8999999999999999112 0 -1 0 forward_v I I I I #
coedge $-1 $404 $403 $458 $459 forward $405 $-1 #
vertex $-1 $460 $461 #
ellipse-curve $-1 2.285999999999999588 0.5624999999999984457 4.987412199544976943 1 0 0 0 -0.869333243660159849 0.2329371405922682214 1 I I #
vertex $-1 $462 $463 #
ellipse-curve $-1 2.285999999999999588 -0.5624999999999984457 4.987412199544976943 -1 0 0 0 0.869333243660159849 0.2329371405922682214 1 I I #
ellipse-curve $-1 0 0 5.716587428118453218 0 0 1 0 0.1738666487320321419 0 1 I I #
ellipse-curve $-1 0 0 5.669999999999999929 1 1.224606353822377258e-16 2.63976761490588032e-48 1.349694649639923634e-33 -1.102145718440139545e-17 0.1799999999999997158 1 I I #
point $-1 1.349694649639923634e-33 -1.102145718440139545e-17 5.849999999999999645 #
coedge $-1 $464 $420 $424 $429 reversed $447 $-1 #
coedge $-1 $420 $464 $423 $427 forward $447 $-1 #
loop $-1 $-1 $420 $422 #
ellipse-curve $-1 4.571999999999999176 0 4.987412199544976943 0 0 1 0 0.3374999999999999112 0 1 I I #
face $-1 $465 $425 $2 $-1 $450 forward single #
torus-surface $-1 4.571999999999999176 0 4.987412199544976943 0 0 1 -0.5625 0.8999999999999999112 0 -1 0 forward_v I I I I #
coedge $-1 $424 $423 $466 $467 forward $425 $-1 #
vertex $-1 $468 $469 #
ellipse-curve $-1 4.571999999999999176 0.5624999999999984457 4.987412199544976943 1 0 0 0 -0.869333243660159849 0.2329371405922682214 1 I I #
vertex $-1 $470 $471 #
ellipse-curve $-1 4.571999999999999176 -0.5624999999999984457 4.987412199544976943 -1 0 0 0 0.869333243660159849 0.2329371405922682214 1 I I #
coedge $-1 $432 $431 $472 $473 reversed $433 $-1 #
face $-1 $474 $475 $2 $-1 $476 forward single #
coedge $-1 $477 $478 $437 $459 reversed $475 $-1 #
edge $-1 $438 -3.141592653589793116 $440 -0 $458 $479 reversed 7 unknown #
edge $-1 $480 5.028570103975510596e-17 $438 0.51374347229918782 $481 $482 forward 7 unknown #
point $-1 2.285999999999999588 -0.3068332436601610702 5.220349340137245164 #
edge $-1 $483 0 $440 0.51374347229918782 $484 $485 forward 7 unknown #
point $-1 2.285999999999999588 0.3068332436601614033 5.220349340137245164 #
coedge $-1 $446 $445 $486 $487 reversed $447 $-1 #
face $-1 $488 $489 $2 $-1 $490 forward single #
coedge $-1 $491 $492 $451 $467 reversed $489 $-1 #
edge $-1 $452 -3.141592653589793116 $454 -0 $466 $493 reversed 7 unknown #
edge $-1 $494 5.028570103975510596e-17 $452 0.51374347229918782 $495 $496 forward 7 unknown #
point $-1 4.571999999999999176 -0.3068332436601610702 5.220349340137245164 #
edge $-1 $497 0 $454 0.51374347229918782 $498 $499 forward 7 unknown #
point $-1 4.571999999999999176 0.3068332436601614033 5.220349340137245164 #
coedge $-1 $484 $481 $456 $473 forward $500 $-1 #
edge $-1 $438 -3.141592653589793116 $440 0 $472 $501 forward 7 unknown #
face $-1 $502 $503 $2 $-1 $504 forward single #
loop $-1 $-1 $505 $457 #
cone-surface $-1 2.285999999999999588 0 5.365466594928129496 0 0 1 0 0.2679491924311222517 0 1 I I -0.2588190451025203509 0.9659258262890684232 0.2679491924311222517 forward I I I I #
coedge $-1 $505 $458 $481 $460 reversed $475 $-1 #
coedge $-1 $458 $505 $484 $462 forward $475 $-1 #
ellipse-curve $-1 2.285999999999999588 0 5.220349340137245164 0 0 1 0 0.3068332436601610702 0 1 I I #
vertex $-1 $506 $507 #
coedge $-1 $472 $508 $477 $460 forward $500 $-1 #
straight-curve $-1 2.285999999999999588 -0.1738666487320322251 5.716587428118453218 0 -0.2588190451025202954 -0.9659258262890685343 I I #
vertex $-1 $509 $510 #
coedge $-1 $508 $472 $478 $462 reversed $500 $-1 #
straight-curve $-1 2.285999999999999588 0.1738666487320322251 5.716587428118453218 0 0.2588190451025202954 -0.9659258262890685343 I I #
coedge $-1 $498 $495 $464 $487 forward $511 $-1 #
edge $-1 $452 -3.141592653589793116 $454 0 $486 $512 forward 7 unknown #
face $-1 $513 $514 $2 $-1 $515 forward single #
loop $-1 $-1 $516 $465 #
cone-surface $-1 4.571999999999999176 0 5.365466594928129496 0 0 1 0 0.2679491924311222517 0 1 I I -0.2588190451025203509 0.9659258262890684232 0.2679491924311222517 forward I I I I #
coedge $-1 $516 $466 $495 $468 reversed $489 $-1 #
coedge $-1 $466 $516 $498 $470 forward $489 $-1 #
ellipse-curve $-1 4.571999999999999176 0 5.220349340137245164 0 0 1 0 0.3068332436601610702 0 1 I I #
vertex $-1 $517 $518 #
coedge $-1 $486 $519 $491 $468 forward $511 $-1 #
straight-curve $-1 4.571999999999999176 -0.1738666487320322251 5.716587428118453218 0 -0.2588190451025202954 -0.9659258262890685343 I I #
vertex $-1 $520 $521 #
coedge $-1 $519 $486 $492 $470 reversed $511 $-1 #
straight-curve $-1 4.571999999999999176 0.1738666487320322251 5.716587428118453218 0 0.2588190451025202954 -0.9659258262890685343 I I #
loop $-1 $-1 $472 $522 #
ellipse-curve $-1 2.285999999999999588 0 5.220349340137245164 0 0 1 0 0.3068332436601610702 0 1 I I #
face $-1 $522 $523 $2 $-1 $504 forward single #
loop $-1 $-1 $524 $474 #
sphere-surface $-1 2.285999999999999588 0 5.669999999999999929 0.1799999999999999933 1 0 0 0 0 1 forward_v I I I I #
coedge $-1 $478 $477 $525 $526 forward $475 $-1 #
edge $-1 $527 0 $480 1.308996938995749648 $528 $529 forward 7 unknown #
point $-1 2.285999999999999588 -0.1738666487320324194 5.716587428118453218 #
coedge $-1 $481 $484 $530 $531 reversed $500 $-1 #
edge $-1 $527 -1.224606353822378984e-16 $483 1.308996938995749426 $532 $533 forward 7 unknown #
point $-1 2.285999999999999588 0.1738666487320322251 5.716587428118453218 #
loop $-1 $-1 $486 $534 #
ellipse-curve $-1 4.571999999999999176 0 5.220349340137245164 0 0 1 0 0.3068332436601610702 0 1 I I #
face $-1 $534 $535 $2 $-1 $515 forward single #
loop $-1 $-1 $536 $488 #
sphere-surface $-1 4.571999999999999176 0 5.669999999999999929 0.1799999999999999933 1 0 0 0 0 1 forward_v I I I I #
coedge $-1 $492 $491 $537 $538 forward $489 $-1 #
edge $-1 $539 0 $494 1.308996938995749648 $540 $541 forward 7 unknown #
point $-1 4.571999999999999176 -0.1738666487320324194 5.716587428118453218 #
coedge $-1 $495 $498 $542 $543 reversed $511 $-1 #
edge $-1 $539 -1.224606353822378984e-16 $497 1.308996938995749426 $544 $545 forward 7 unknown #
point $-1 4.571999999999999176 0.1738666487320322251 5.716587428118453218 #
face $-1 $365 $500 $2 $-1 $476 forward single #
loop $-1 $-1 $530 $502 #
coedge $-1 $525 $546 $532 $509 forward $503 $-1 #
coedge $-1 $546 $524 $505 $526 reversed $503 $-1 #
edge $-1 $480 -3.141592653589793116 $483 -0 $525 $547 reversed 7 unknown #
vertex $-1 $506 $548 #
coedge $-1 $530 $532 $546 $506 forward $523 $-1 #
ellipse-curve $-1 2.285999999999999588 0 5.669999999999999929 1 0 0 0 -1.102145718440139545e-17 0.1799999999999997158 1 I I #
coedge $-1 $532 $528 $508 $531 forward $523 $-1 #
edge $-1 $480 -3.141592653589793116 $483 0 $530 $549 forward 7 unknown #
coedge $-1 $528 $530 $524 $509 reversed $523 $-1 #
ellipse-curve $-1 2.285999999999999588 0 5.669999999999999929 -1 0 0 0 1.102145718440139545e-17 0.1799999999999997158 1 I I #
face $-1 $-1 $511 $2 $-1 $490 forward single #
loop $-1 $-1 $542 $513 #
coedge $-1 $537 $550 $544 $520 forward $514 $-1 #
coedge $-1 $550 $536 $516 $538 reversed $514 $-1 #
edge $-1 $494 -3.141592653589793116 $497 -0 $537 $551 reversed 7 unknown #
vertex $-1 $517 $552 #
coedge $-1 $542 $544 $550 $517 forward $535 $-1 #
ellipse-curve $-1 4.571999999999999176 0 5.669999999999999929 1 0 0 0 -1.102145718440139545e-17 0.1799999999999997158 1 I I #
coedge $-1 $544 $540 $519 $543 forward $535 $-1 #
edge $-1 $494 -3.141592653589793116 $497 0 $542 $553 forward 7 unknown #
coedge $-1 $540 $542 $536 $520 reversed $535 $-1 #
ellipse-curve $-1 4.571999999999999176 0 5.669999999999999929 -1 0 0 0 1.102145718440139545e-17 0.1799999999999997158 1 I I #
coedge $-1 $524 $525 $528 $506 reversed $503 $-1 #
ellipse-curve $-1 2.285999999999999588 0 5.716587428118453218 0 0 1 0 0.1738666487320321419 0 1 I I #
point $-1 2.285999999999999588 -1.102145718440139545e-17 5.849999999999999645 #
ellipse-curve $-1 2.285999999999999588 0 5.716587428118453218 0 0 1 0 0.1738666487320321419 0 1 I I #
coedge $-1 $536 $537 $540 $517 reversed $514 $-1 #
ellipse-curve $-1 4.571999999999999176 0 5.716587428118453218 0 0 1 0 0.1738666487320321419 0 1 I I #
point $-1 4.571999999999999176 -1.102145718440139545e-17 5.849999999999999645 #
ellipse-curve $-1 4.571999999999999176 0 5.716587428118453218 0 0 1 0 0.1738666487320321419 0 1 I I #
End-of-ACIS-data 