700 0 2 0           
24 FBMach with ACIS - 7.0.3 13 ACIS 7.0.3 NT 24 Thu May 16 14:50:53 2002 
1 9.9999999999999995e-007 1e-010 
body $2 -1 $-1 $3 $-1 $4 #
bdycol-kcp $-1 -1 1 2 $5 $6 #
model_id-kcp-attrib $-1 -1 $-1 $-1 $0 1 1021575053 1021575053 1878065153 1 #
lump $-1 -1 $-1 $-1 $7 $0 #
transform $-1 -1 1 0 0 0 1 0 0 0 1 0 0 0 1 rotate no_reflect no_shear #
body $8 -1 $-1 $9 $-1 $10 #
body $11 -1 $-1 $12 $-1 $13 #
shell $-1 -1 $-1 $-1 $-1 $14 $-1 $3 #
rgb_color-st-attrib $-1 -1 $15 $-1 $5 0.5 1 1 #
lump $-1 -1 $-1 $-1 $16 $5 #
transform $-1 -1 1 0 0 0 1 0 0 0 1 0 7 0 1 no_rotate no_reflect no_shear #
model_id-kcp-attrib $-1 -1 $-1 $-1 $6 1 1021575053 1021575053 1878720514 1 #
lump $-1 -1 $-1 $-1 $17 $6 #
transform $-1 -1 1 0 0 0 1 0 0 0 1 0 7 0 1 no_rotate no_reflect no_shear #
face $18 -1 $-1 $19 $20 $7 $-1 $21 forward single #
model_id-kcp-attrib $-1 -1 $-1 $8 $5 1 1021575053 1021575053 1871183875 1 #
shell $-1 -1 $-1 $-1 $-1 $22 $-1 $9 #
shell $-1 -1 $-1 $-1 $-1 $23 $-1 $12 #
model_id-kcp-attrib $-1 -1 $-1 $-1 $14 1 1021575053 1021575053 1878065153 2 #
face $24 -1 $-1 $25 $26 $7 $-1 $27 forward single #
loop $-1 -1 $-1 $28 $29 $14 #
plane-surface $-1 -1 $-1 0 13 0 0 -1 0 -1 0 0 forward_v I I I I #
face $-1 -1 $-1 $30 $31 $16 $-1 $32 reversed single #
face $-1 -1 $-1 $33 $34 $17 $-1 $35 forward single #
model_id-kcp-attrib $-1 -1 $-1 $-1 $19 1 1021575053 1021575053 1878065153 3 #
face $36 -1 $-1 $37 $38 $7 $-1 $27 forward single #
loop $-1 -1 $-1 $-1 $39 $19 #
cone-surface $-1 -1 $-1 0 14.699999999999999 0 0 -1 0 -2.3599999999999999 0 0 1 I I 0 1 2.3599999999999999 forward I I I I #
loop $-1 -1 $-1 $-1 $40 $14 #
coedge $-1 -1 $-1 $41 $41 $39 $42 reversed $20 $-1 #
face $-1 -1 $-1 $43 $44 $16 $-1 $32 reversed single #
loop $-1 -1 $-1 $-1 $45 $22 #
cone-surface $-1 -1 $-1 5.5591113924831459e-024 7 0 0 1 0 6 0 -2.2971693232516632e-011 1 I I 0 1 6 forward I I I I #
face $-1 -1 $-1 $46 $47 $17 $-1 $48 reversed single #
loop $-1 -1 $-1 $-1 $49 $23 #
plane-surface $-1 -1 $-1 0 0 6 0 0 1 1 0 0 forward_v I I I I #
model_id-kcp-attrib $-1 -1 $-1 $-1 $25 1 1021575053 1021575053 1878065153 4 #
face $50 -1 $-1 $51 $52 $7 $-1 $53 reversed single #
loop $-1 -1 $-1 $-1 $54 $25 #
coedge $-1 -1 $-1 $55 $56 $29 $42 forward $26 $-1 #
coedge $-1 -1 $-1 $57 $57 $58 $59 reversed $28 $-1 #
coedge $-1 -1 $-1 $29 $29 $60 $61 forward $20 $-1 #
edge $-1 -1 $-1 $62 -3.1415926535897931 $63 0 $29 $64 reversed @7 unknown #
face $-1 -1 $-1 $65 $66 $16 $-1 $32 reversed single #
loop $-1 -1 $-1 $-1 $67 $30 #
coedge $-1 -1 $-1 $68 $69 $70 $71 reversed $31 $-1 #
face $72 -1 $-1 $73 $74 $17 $-1 $75 reversed single #
loop $-1 -1 $-1 $-1 $76 $33 #
plane-surface $-1 -1 $-1 0 0 -6 0 0 1 1 0 0 forward_v I I I I #
coedge $-1 -1 $-1 $77 $78 $79 $80 forward $34 $-1 #
model_id-kcp-attrib $-1 -1 $-1 $-1 $37 1 1021575053 1021575053 1878065153 5 #
face $81 -1 $-1 $82 $83 $7 $-1 $84 forward single #
loop $-1 -1 $-1 $-1 $85 $37 #
plane-surface $-1 -1 $-1 0 14 0 0 -1 0 -1 0 0 forward_v I I I I #
coedge $-1 -1 $-1 $86 $87 $85 $88 forward $38 $-1 #
coedge $-1 -1 $-1 $89 $39 $86 $90 forward $26 $-1 #
coedge $-1 -1 $-1 $39 $89 $87 $91 reversed $26 $-1 #
coedge $-1 -1 $-1 $40 $40 $92 $93 forward $28 $-1 #
coedge $-1 -1 $-1 $94 $95 $40 $59 forward $83 $-1 #
edge $-1 -1 $-1 $96 -3.1415926535897931 $97 0 $40 $98 forward @7 unknown #
coedge $-1 -1 $-1 $87 $86 $41 $61 reversed $38 $-1 #
edge $-1 -1 $-1 $62 -3.1415926535897931 $63 0 $41 $99 forward @7 unknown #
vertex $-1 -1 $-1 $61 $100 #
vertex $-1 -1 $-1 $61 $101 #
ellipse-curve $-1 -1 $-1 0 13 0 0 -1 0 -2.3599999999999999 0 0 1 I I #
face $-1 -1 $-1 $102 $103 $16 $-1 $32 reversed single #
loop $-1 -1 $-1 $-1 $104 $43 #
coedge $-1 -1 $-1 $105 $106 $107 $108 reversed $44 $-1 #
coedge $-1 -1 $-1 $109 $45 $110 $111 forward $31 $-1 #
coedge $-1 -1 $-1 $45 $109 $112 $113 reversed $31 $-1 #
coedge $-1 -1 $-1 $114 $115 $45 $71 forward $116 $-1 #
edge $-1 -1 $-1 $117 -3.1415926535936216 $118 -1.5707963267987253 $70 $119 forward @7 unknown #
model_id-kcp-attrib $-1 -1 $-1 $-1 $46 1 1021575053 1021575053 1878720514 3 #
face $-1 -1 $-1 $120 $121 $17 $-1 $122 reversed single #
loop $-1 -1 $-1 $-1 $123 $46 #
plane-surface $-1 -1 $-1 0 -7 0 0 1 0 0 0 1 forward_v I I I I #
coedge $-1 -1 $-1 $124 $125 $126 $127 forward $47 $-1 #
coedge $-1 -1 $-1 $128 $49 $129 $130 forward $34 $-1 #
coedge $-1 -1 $-1 $49 $128 $131 $132 forward $34 $-1 #
coedge $-1 -1 $-1 $133 $134 $49 $80 reversed $135 $-1 #
edge $-1 -1 $-1 $136 -7 $137 7 $79 $138 forward @7 unknown #
model_id-kcp-attrib $-1 -1 $-1 $-1 $51 1 1021575053 1021575053 1878065153 6 #
face $139 -1 $-1 $140 $141 $7 $-1 $84 forward single #
loop $-1 -1 $-1 $-1 $58 $51 #
cone-surface $-1 -1 $-1 0 14.699999999999999 0 0 -1 0 -1 0 0 1 I I 0 1 1 forward I I I I #
coedge $-1 -1 $-1 $142 $142 $54 $88 reversed $52 $-1 #
coedge $-1 -1 $-1 $60 $54 $55 $90 reversed $38 $-1 #
coedge $-1 -1 $-1 $54 $60 $56 $91 forward $38 $-1 #
edge $143 -1 $-1 $144 -3.1415926535897931 $145 0 $54 $146 reversed @7 unknown #
coedge $-1 -1 $-1 $56 $55 $142 $147 reversed $26 $-1 #
edge $-1 -1 $-1 $63 0 $145 1 $86 $148 forward @7 unknown #
edge $-1 -1 $-1 $62 0 $144 1 $87 $149 forward @7 unknown #
coedge $-1 -1 $-1 $150 $151 $57 $93 reversed $141 $-1 #
edge $-1 -1 $-1 $96 -3.1415926535897931 $97 0 $57 $152 reversed @7 unknown #
coedge $-1 -1 $-1 $153 $58 $151 $154 reversed $83 $-1 #
coedge $-1 -1 $-1 $58 $153 $150 $155 forward $83 $-1 #
vertex $-1 -1 $-1 $93 $156 #
vertex $-1 -1 $-1 $93 $157 #
ellipse-curve $-1 -1 $-1 0 13 0 0 -1 0 -1 0 0 1 I I #
ellipse-curve $-1 -1 $-1 0 13 0 0 -1 0 -2.3599999999999999 0 0 1 I I #
point $-1 -1 $-1 2.3599999999999999 13 2.8900709950208102e-016 #
point $-1 -1 $-1 -2.3599999999999999 13 0 #
face $-1 -1 $-1 $158 $159 $16 $-1 $160 forward single #
loop $-1 -1 $-1 $-1 $161 $65 #
coedge $-1 -1 $-1 $162 $163 $161 $164 forward $66 $-1 #
coedge $-1 -1 $-1 $165 $67 $166 $167 reversed $44 $-1 #
coedge $-1 -1 $-1 $67 $165 $69 $113 forward $44 $-1 #
coedge $-1 -1 $-1 $168 $169 $67 $108 forward $170 $-1 #
edge $-1 -1 $-1 $171 3.8286155387527721e-012 $172 1.5707963267987253 $107 $173 forward @7 unknown #
coedge $-1 -1 $-1 $69 $68 $174 $175 reversed $31 $-1 #
coedge $-1 -1 $-1 $163 $162 $176 $111 reversed $66 $-1 #
edge $-1 -1 $-1 $117 -14 $177 0 $176 $178 forward @7 unknown #
coedge $-1 -1 $-1 $179 $180 $181 $113 forward $182 $-1 #
edge $-1 -1 $-1 $118 -14 $172 0 $112 $183 forward @7 unknown #
coedge $-1 -1 $-1 $115 $70 $180 $184 reversed $116 $-1 #
coedge $-1 -1 $-1 $70 $114 $185 $186 forward $116 $-1 #
loop $-1 -1 $-1 $-1 $70 $187 #
vertex $-1 -1 $-1 $188 $189 #
vertex $-1 -1 $-1 $190 $191 #
ellipse-curve $-1 -1 $-1 5.5591113924831459e-024 -7 0 0 1 0 6 0 -2.2971693232516632e-011 1 I I #
face $192 -1 $-1 $193 $194 $17 $-1 $195 reversed single #
loop $-1 -1 $-1 $-1 $196 $73 #
plane-surface $-1 -1 $-1 -6 0 0 1 0 0 0 0 -1 forward_v I I I I #
coedge $-1 -1 $-1 $197 $131 $198 $199 forward $74 $-1 #
coedge $-1 -1 $-1 $200 $76 $197 $201 forward $47 $-1 #
coedge $-1 -1 $-1 $76 $200 $202 $203 forward $47 $-1 #
coedge $-1 -1 $-1 $134 $133 $76 $127 reversed $135 $-1 #
edge $-1 -1 $-1 $204 -7 $205 7 $126 $206 forward @7 unknown #
coedge $-1 -1 $-1 $78 $77 $207 $208 forward $34 $-1 #
coedge $-1 -1 $-1 $209 $210 $77 $130 reversed $194 $-1 #
edge $-1 -1 $-1 $137 -6 $211 6 $129 $212 forward @7 unknown #
coedge $-1 -1 $-1 $123 $213 $78 $132 reversed $74 $-1 #
edge $-1 -1 $-1 $214 -6 $136 6 $131 $215 forward @7 unknown #
coedge $-1 -1 $-1 $126 $79 $213 $216 forward $135 $-1 #
coedge $-1 -1 $-1 $79 $126 $209 $217 reversed $135 $-1 #
loop $-1 -1 $-1 $-1 $133 $193 #
vertex $-1 -1 $-1 $80 $218 #
vertex $-1 -1 $-1 $80 $219 #
straight-curve $-1 -1 $-1 6 0 6 0 1 0 I I #
model_id-kcp-attrib $-1 -1 $-1 $-1 $82 1 1021575053 1021575053 1878065153 7 #
face $220 -1 $-1 $221 $222 $7 $-1 $223 reversed single #
loop $-1 -1 $-1 $-1 $224 $82 #
coedge $-1 -1 $-1 $85 $85 $89 $147 forward $52 $-1 #
attrib_edge_convexity-kcp-attrib $-1 -1 $225 $-1 $88 1 #
vertex $-1 -1 $-1 $91 $226 #
vertex $-1 -1 $-1 $90 $227 #
ellipse-curve $-1 -1 $-1 0 14 0 0 1 0 -2.3599999999999999 0 0 1 I I #
edge $228 -1 $-1 $144 -3.1415926535897931 $145 0 $142 $229 reversed @7 unknown #
straight-curve $-1 -1 $-1 -2.3599999999999999 13 -5.7801419900416204e-016 0 1 0 I I #
straight-curve $-1 -1 $-1 2.3599999999999999 13 2.8900709950208102e-016 0 1 0 I I #
coedge $-1 -1 $-1 $224 $92 $95 $155 reversed $141 $-1 #
coedge $-1 -1 $-1 $92 $224 $94 $154 forward $141 $-1 #
ellipse-curve $-1 -1 $-1 0 13 0 0 -1 0 -1 0 0 1 I I #
coedge $-1 -1 $-1 $95 $94 $230 $231 reversed $83 $-1 #
edge $-1 -1 $-1 $232 0 $97 8 $94 $233 forward @7 unknown #
edge $-1 -1 $-1 $234 0 $96 8 $95 $235 forward @7 unknown #
point $-1 -1 $-1 1 13 1.2246063538223773e-016 #
point $-1 -1 $-1 -1 13 0 #
face $-1 -1 $-1 $236 $237 $16 $-1 $238 reversed single #
loop $-1 -1 $-1 $-1 $181 $102 #
plane-surface $-1 -1 $-1 0 0 6 0 0 1 1 0 0 forward_v I I I I #
coedge $-1 -1 $-1 $239 $240 $241 $164 reversed $103 $-1 #
coedge $-1 -1 $-1 $110 $104 $242 $243 reversed $66 $-1 #
coedge $-1 -1 $-1 $104 $110 $244 $245 reversed $66 $-1 #
edge $-1 -1 $-1 $246 -14 $247 0 $241 $248 forward @7 unknown #
coedge $-1 -1 $-1 $106 $105 $249 $250 reversed $44 $-1 #
coedge $-1 -1 $-1 $251 $252 $253 $167 forward $254 $-1 #
edge $-1 -1 $-1 $255 -14 $171 0 $166 $256 forward @7 unknown #
coedge $-1 -1 $-1 $169 $107 $257 $258 reversed $170 $-1 #
coedge $-1 -1 $-1 $107 $168 $251 $259 forward $170 $-1 #
loop $-1 -1 $-1 $-1 $107 $260 #
vertex $-1 -1 $-1 $261 $262 #
vertex $-1 -1 $-1 $263 $264 #
ellipse-curve $-1 -1 $-1 5.5591113924831459e-024 7 0 0 -1 0 6 0 -2.2971693232516632e-011 1 I I #
coedge $-1 -1 $-1 $265 $266 $109 $175 forward $267 $-1 #
edge $-1 -1 $-1 $172 1.5707963267987253 $177 3.1415926535936216 $174 $173 forward @7 unknown #
coedge $-1 -1 $-1 $268 $269 $270 $111 forward $237 $-1 #
vertex $-1 -1 $-1 $271 $272 #
straight-curve $-1 -1 $-1 -6 7 0 0 1 0 I I #
coedge $-1 -1 $-1 $273 $112 $266 $263 forward $182 $-1 #
coedge $-1 -1 $-1 $112 $273 $114 $184 forward $182 $-1 #
coedge $-1 -1 $-1 $274 $257 $106 $113 reversed $159 $-1 #
loop $-1 -1 $-1 $-1 $112 $275 #
straight-curve $-1 -1 $-1 5.5591113924831459e-024 7 6 0 1 0 I I #
edge $-1 -1 $-1 $276 -6 $118 5.5591113924831459e-024 $114 $277 forward @7 unknown #
coedge $-1 -1 $-1 $278 $270 $115 $186 reversed $279 $-1 #
edge $-1 -1 $-1 $276 -6 $117 0 $185 $280 forward @7 unknown #
face $-1 -1 $-1 $281 $116 $16 $-1 $282 reversed single #
edge $-1 -1 $-1 $117 0 $283 6 $269 $280 forward @7 unknown #
point $-1 -1 $-1 -6 -7 0 #
edge $-1 -1 $-1 $118 5.5591113924831459e-024 $284 6 $285 $277 forward @7 unknown #
point $-1 -1 $-1 5.5591113924831459e-024 -7 6 #
model_id-kcp-attrib $-1 -1 $-1 $-1 $120 1 1021575053 1021575053 1878720514 2 #
face $-1 -1 $-1 $-1 $135 $17 $-1 $286 reversed single #
loop $-1 -1 $-1 $-1 $209 $120 #
plane-surface $-1 -1 $-1 0 7 0 0 -1 0 0 0 -1 forward_v I I I I #
coedge $-1 -1 $-1 $287 $207 $210 $288 forward $121 $-1 #
coedge $-1 -1 $-1 $213 $123 $124 $201 reversed $74 $-1 #
coedge $-1 -1 $-1 $207 $287 $123 $199 reversed $121 $-1 #
edge $-1 -1 $-1 $214 -6 $289 6 $198 $290 forward @7 unknown #
coedge $-1 -1 $-1 $125 $124 $287 $291 forward $47 $-1 #
edge $-1 -1 $-1 $205 -6 $289 6 $197 $292 forward @7 unknown #
coedge $-1 -1 $-1 $210 $209 $125 $203 reversed $194 $-1 #
edge $-1 -1 $-1 $293 -6 $204 6 $202 $294 forward @7 unknown #
vertex $-1 -1 $-1 $127 $295 #
vertex $-1 -1 $-1 $216 $296 #
straight-curve $-1 -1 $-1 6 0 -6 0 -1 0 I I #
coedge $-1 -1 $-1 $196 $198 $128 $208 reversed $121 $-1 #
edge $-1 -1 $-1 $211 -7 $214 7 $207 $297 forward @7 unknown #
coedge $-1 -1 $-1 $202 $129 $134 $217 forward $194 $-1 #
coedge $-1 -1 $-1 $129 $202 $196 $288 reversed $194 $-1 #
vertex $-1 -1 $-1 $130 $298 #
straight-curve $-1 -1 $-1 0 7 6 -1 0 0 I I #
coedge $-1 -1 $-1 $131 $197 $133 $216 reversed $74 $-1 #
vertex $-1 -1 $-1 $208 $299 #
straight-curve $-1 -1 $-1 0 -7 6 1 0 0 I I #
edge $-1 -1 $-1 $136 -6 $205 6 $133 $300 forward @7 unknown #
edge $-1 -1 $-1 $137 -6 $204 6 $134 $301 forward @7 unknown #
point $-1 -1 $-1 6 -7 6 #
point $-1 -1 $-1 6 7 6 #
model_id-kcp-attrib $-1 -1 $-1 $-1 $140 1 1021575053 1021575053 1878065153 8 #
face $302 -1 $-1 $303 $304 $7 $-1 $305 forward single #
loop $-1 -1 $-1 $306 $230 $140 #
plane-surface $-1 -1 $-1 0 5 0 0 -1 0 -1 0 0 forward_v I I I I #
coedge $-1 -1 $-1 $151 $150 $307 $308 forward $141 $-1 #
convexity-sys-attrib $-1 -1 $-1 $143 $88 #
point $-1 -1 $-1 2.3599999999999999 14 2.8900709950208102e-016 #
point $-1 -1 $-1 -2.3599999999999999 14 0 #
attrib_edge_convexity-kcp-attrib $-1 -1 $309 $-1 $147 1 #
ellipse-curve $-1 -1 $-1 0 14 0 0 -1 0 -2.3599999999999999 0 0 1 I I #
coedge $-1 -1 $-1 $307 $307 $153 $231 forward $222 $-1 #
edge $-1 -1 $-1 $234 -3.1415926535897931 $232 2.4492127076447545e-016 $230 $310 forward @7 unknown #
vertex $-1 -1 $-1 $308 $311 #
straight-curve $-1 -1 $-1 -1 5 -2.4492127076447545e-016 0 1 0 I I #
vertex $-1 -1 $-1 $308 $312 #
straight-curve $-1 -1 $-1 1 5 1.2246063538223773e-016 0 1 0 I I #
face $-1 -1 $-1 $313 $314 $16 $-1 $315 reversed single #
loop $-1 -1 $-1 $-1 $176 $158 #
plane-surface $-1 -1 $-1 -6 0 0 1 0 0 0 0 -1 forward_v I I I I #
coedge $-1 -1 $-1 $316 $161 $317 $318 reversed $103 $-1 #
coedge $-1 -1 $-1 $161 $316 $319 $320 reversed $103 $-1 #
coedge $-1 -1 $-1 $321 $322 $323 $164 forward $324 $-1 #
coedge $-1 -1 $-1 $325 $326 $162 $243 forward $327 $-1 #
edge $-1 -1 $-1 $177 -3.1415926535859646 $247 -1.5707963267910681 $242 $173 forward @7 unknown #
coedge $-1 -1 $-1 $328 $329 $163 $245 forward $330 $-1 #
edge $-1 -1 $-1 $246 1.5707963267910681 $117 3.1415926535859646 $244 $119 forward @7 unknown #
vertex $-1 -1 $-1 $331 $332 #
vertex $-1 -1 $-1 $333 $334 #
straight-curve $-1 -1 $-1 5.5591113924831459e-024 7 -6 0 1 0 I I #
coedge $-1 -1 $-1 $335 $285 $165 $250 forward $336 $-1 #
edge $-1 -1 $-1 $118 -1.5707963267987253 $255 -3.8286155387527721e-012 $249 $119 forward @7 unknown #
coedge $-1 -1 $-1 $337 $166 $169 $259 reversed $254 $-1 #
coedge $-1 -1 $-1 $166 $337 $335 $338 forward $254 $-1 #
coedge $-1 -1 $-1 $339 $340 $316 $167 reversed $314 $-1 #
loop $-1 -1 $-1 $-1 $166 $341 #
vertex $-1 -1 $-1 $342 $343 #
straight-curve $-1 -1 $-1 6 7 0 0 1 0 I I #
coedge $-1 -1 $-1 $181 $344 $168 $258 forward $159 $-1 #
edge $-1 -1 $-1 $345 -6 $172 -5.5591113924831459e-024 $168 $346 forward @7 unknown #
edge $-1 -1 $-1 $345 -6 $171 0 $251 $347 forward @7 unknown #
face $-1 -1 $-1 $348 $170 $16 $-1 $349 reversed single #
edge $-1 -1 $-1 $171 0 $350 6 $340 $347 forward @7 unknown #
point $-1 -1 $-1 6 7 0 #
edge $-1 -1 $-1 $172 -5.5591113924831459e-024 $351 6 $266 $346 forward @7 unknown #
point $-1 -1 $-1 5.5591113924831459e-024 7 6 #
coedge $-1 -1 $-1 $266 $174 $352 $353 reversed $267 $-1 #
coedge $-1 -1 $-1 $174 $265 $179 $263 reversed $267 $-1 #
loop $-1 -1 $-1 $-1 $174 $348 #
coedge $-1 -1 $-1 $354 $176 $326 $271 forward $237 $-1 #
coedge $-1 -1 $-1 $176 $354 $328 $188 reversed $237 $-1 #
coedge $-1 -1 $-1 $185 $352 $68 $111 reversed $279 $-1 #
edge $-1 -1 $-1 $177 0 $355 6 $326 $356 forward @7 unknown #
point $-1 -1 $-1 -6 7 0 #
coedge $-1 -1 $-1 $180 $179 $278 $357 forward $182 $-1 #
coedge $-1 -1 $-1 $344 $181 $285 $190 forward $159 $-1 #
face $-1 -1 $-1 $358 $182 $16 $-1 $160 forward single #
vertex $-1 -1 $-1 $357 $359 #
straight-curve $-1 -1 $-1 0 -7 6 1 0 0 I I #
coedge $-1 -1 $-1 $352 $185 $273 $357 reversed $279 $-1 #
loop $-1 -1 $-1 $-1 $270 $360 #
straight-curve $-1 -1 $-1 -6 -7 0 0 0 -1 I I #
face $-1 -1 $-1 $361 $336 $16 $-1 $282 reversed single #
plane-surface $-1 -1 $-1 0 -7 0 0 1 0 0 0 1 forward_v I I I I #
vertex $-1 -1 $-1 $362 $363 #
vertex $-1 -1 $-1 $364 $365 #
coedge $-1 -1 $-1 $249 $335 $274 $190 reversed $336 $-1 #
plane-surface $-1 -1 $-1 6 0 0 -1 0 0 0 0 1 forward_v I I I I #
coedge $-1 -1 $-1 $198 $196 $200 $291 reversed $121 $-1 #
edge $-1 -1 $-1 $211 -6 $293 6 $210 $366 forward @7 unknown #
vertex $-1 -1 $-1 $291 $367 #
straight-curve $-1 -1 $-1 -6 -7 0 0 0 -1 I I #
edge $-1 -1 $-1 $289 -7 $293 7 $287 $368 forward @7 unknown #
straight-curve $-1 -1 $-1 0 -7 -6 -1 0 0 I I #
vertex $-1 -1 $-1 $203 $369 #
straight-curve $-1 -1 $-1 0 7 -6 1 0 0 I I #
point $-1 -1 $-1 6 7 -6 #
point $-1 -1 $-1 6 -7 -6 #
straight-curve $-1 -1 $-1 -6 0 6 0 -1 0 I I #
point $-1 -1 $-1 -6 7 6 #
point $-1 -1 $-1 -6 -7 6 #
straight-curve $-1 -1 $-1 6 -7 0 0 0 -1 I I #
straight-curve $-1 -1 $-1 6 7 0 0 0 -1 I I #
model_id-kcp-attrib $-1 -1 $-1 $-1 $221 1 1021575053 1021575053 1878065153 9 #
face $370 -1 $-1 $371 $372 $7 $-1 $305 forward single #
loop $-1 -1 $-1 $-1 $373 $221 #
torus-surface $-1 -1 $-1 0 4.25 0 0 -1 0 5.25 0.75 0.99996792813392132 0 0.0080089140058291503 forward_v I I I I #
loop $-1 -1 $-1 $-1 $374 $140 #
coedge $-1 -1 $-1 $230 $230 $224 $308 reversed $222 $-1 #
edge $-1 -1 $-1 $234 -3.1415926535897931 $232 -2.4492127076447545e-016 $307 $375 reversed @7 unknown #
convexity-sys-attrib $-1 -1 $-1 $228 $147 #
ellipse-curve $-1 -1 $-1 0 5 0 0 -1 0 -1 0 0 1 I I #
point $-1 -1 $-1 -1 5 -2.4492127076447545e-016 #
point $-1 -1 $-1 1 5 1.2246063538223773e-016 #
face $-1 -1 $-1 $260 $376 $16 $-1 $349 reversed single #
loop $-1 -1 $-1 $-1 $253 $236 #
plane-surface $-1 -1 $-1 6 0 0 -1 0 0 0 0 1 forward_v I I I I #
coedge $-1 -1 $-1 $240 $239 $105 $167 forward $103 $-1 #
coedge $-1 -1 $-1 $377 $378 $239 $318 forward $379 $-1 #
edge $-1 -1 $-1 $255 -3.8286155387527721e-012 $246 1.5707963267910681 $317 $119 forward @7 unknown #
coedge $-1 -1 $-1 $380 $381 $240 $320 forward $376 $-1 #
edge $-1 -1 $-1 $247 -1.5707963267910681 $171 3.8286155387527721e-012 $319 $173 forward @7 unknown #
coedge $-1 -1 $-1 $382 $241 $381 $333 forward $324 $-1 #
coedge $-1 -1 $-1 $241 $382 $377 $383 forward $324 $-1 #
coedge $-1 -1 $-1 $384 $385 $104 $164 reversed $386 $-1 #
loop $-1 -1 $-1 $-1 $241 $358 #
coedge $-1 -1 $-1 $326 $242 $385 $387 reversed $327 $-1 #
coedge $-1 -1 $-1 $242 $325 $268 $271 reversed $327 $-1 #
loop $-1 -1 $-1 $-1 $242 $388 #
coedge $-1 -1 $-1 $329 $244 $269 $188 forward $330 $-1 #
coedge $-1 -1 $-1 $244 $328 $384 $331 reversed $330 $-1 #
loop $-1 -1 $-1 $-1 $244 $389 #
edge $-1 -1 $-1 $246 -5.5591113924831459e-024 $283 6 $329 $390 forward @7 unknown #
point $-1 -1 $-1 5.5591113924831459e-024 -7 -6 #
edge $-1 -1 $-1 $247 5.5591113924831459e-024 $350 6 $381 $391 forward @7 unknown #
point $-1 -1 $-1 5.5591113924831459e-024 7 -6 #
coedge $-1 -1 $-1 $285 $249 $252 $338 reversed $336 $-1 #
loop $-1 -1 $-1 $-1 $249 $281 #
coedge $-1 -1 $-1 $252 $251 $344 $364 reversed $254 $-1 #
edge $-1 -1 $-1 $284 -6 $255 0 $252 $392 forward @7 unknown #
coedge $-1 -1 $-1 $393 $253 $378 $342 forward $314 $-1 #
coedge $-1 -1 $-1 $253 $393 $380 $261 reversed $314 $-1 #
face $-1 -1 $-1 $-1 $254 $16 $-1 $315 reversed single #
edge $-1 -1 $-1 $255 0 $394 6 $339 $392 forward @7 unknown #
point $-1 -1 $-1 6 -7 0 #
coedge $-1 -1 $-1 $257 $274 $337 $364 forward $159 $-1 #
vertex $-1 -1 $-1 $364 $395 #
straight-curve $-1 -1 $-1 0 7 6 -1 0 0 I I #
straight-curve $-1 -1 $-1 6 7 0 0 0 -1 I I #
face $-1 -1 $-1 $388 $267 $16 $-1 $349 reversed single #
plane-surface $-1 -1 $-1 0 7 0 0 -1 0 0 0 -1 forward_v I I I I #
vertex $-1 -1 $-1 $396 $397 #
vertex $-1 -1 $-1 $263 $398 #
coedge $-1 -1 $-1 $270 $278 $265 $353 forward $279 $-1 #
edge $-1 -1 $-1 $351 -6 $177 0 $265 $356 forward @7 unknown #
coedge $-1 -1 $-1 $269 $268 $399 $362 reversed $237 $-1 #
vertex $-1 -1 $-1 $387 $400 #
straight-curve $-1 -1 $-1 -6 7 0 0 0 -1 I I #
edge $-1 -1 $-1 $351 -7 $276 7 $278 $401 forward @7 unknown #
face $-1 -1 $-1 $360 $324 $16 $-1 $402 reversed single #
point $-1 -1 $-1 -6 -7 6 #
face $-1 -1 $-1 $341 $279 $16 $-1 $238 reversed single #
face $-1 -1 $-1 $403 $379 $16 $-1 $282 reversed single #
edge $-1 -1 $-1 $283 -7 $355 7 $354 $404 forward @7 unknown #
point $-1 -1 $-1 -6 -7 -6 #
edge $-1 -1 $-1 $284 -7 $345 7 $337 $405 forward @7 unknown #
point $-1 -1 $-1 6 -7 6 #
straight-curve $-1 -1 $-1 -6 7 0 0 0 -1 I I #
point $-1 -1 $-1 -6 -7 -6 #
straight-curve $-1 -1 $-1 -6 0 -6 0 1 0 I I #
point $-1 -1 $-1 -6 7 -6 #
model_id-kcp-attrib $-1 -1 $-1 $-1 $303 1 1021575053 1021575053 1878065153 10 #
face $406 -1 $-1 $407 $408 $7 $-1 $409 forward single #
loop $-1 -1 $-1 $-1 $410 $303 #
coedge $-1 -1 $-1 $411 $412 $413 $414 forward $304 $-1 #
coedge $-1 -1 $-1 $415 $415 $412 $416 forward $306 $-1 #
ellipse-curve $-1 -1 $-1 0 5 0 0 -1 0 -1 0 0 1 I I #
loop $-1 -1 $-1 $-1 $319 $313 #
coedge $-1 -1 $-1 $378 $317 $322 $383 reversed $379 $-1 #
coedge $-1 -1 $-1 $317 $377 $339 $342 reversed $379 $-1 #
loop $-1 -1 $-1 $-1 $317 $361 #
coedge $-1 -1 $-1 $381 $319 $340 $261 forward $376 $-1 #
coedge $-1 -1 $-1 $319 $380 $321 $333 reversed $376 $-1 #
coedge $-1 -1 $-1 $322 $321 $393 $396 forward $324 $-1 #
edge $-1 -1 $-1 $394 -6 $246 -5.5591113924831459e-024 $377 $390 forward @7 unknown #
coedge $-1 -1 $-1 $399 $323 $329 $331 forward $386 $-1 #
coedge $-1 -1 $-1 $323 $399 $325 $387 forward $386 $-1 #
loop $-1 -1 $-1 $-1 $323 $403 #
edge $-1 -1 $-1 $355 -6 $247 5.5591113924831459e-024 $325 $391 forward @7 unknown #
face $-1 -1 $-1 $389 $327 $16 $-1 $349 reversed single #
face $-1 -1 $-1 $187 $330 $16 $-1 $282 reversed single #
straight-curve $-1 -1 $-1 0 -7 -6 -1 0 0 I I #
straight-curve $-1 -1 $-1 0 7 -6 1 0 0 I I #
straight-curve $-1 -1 $-1 6 -7 0 0 0 -1 I I #
coedge $-1 -1 $-1 $340 $339 $382 $396 reversed $314 $-1 #
vertex $-1 -1 $-1 $342 $417 #
point $-1 -1 $-1 6 7 6 #
edge $-1 -1 $-1 $350 -7 $394 7 $393 $418 forward @7 unknown #
point $-1 -1 $-1 6 7 -6 #
point $-1 -1 $-1 -6 7 6 #
coedge $-1 -1 $-1 $385 $384 $354 $362 forward $386 $-1 #
point $-1 -1 $-1 -6 7 -6 #
straight-curve $-1 -1 $-1 -6 0 6 0 -1 0 I I #
plane-surface $-1 -1 $-1 0 0 -6 0 0 1 1 0 0 forward_v I I I I #
face $-1 -1 $-1 $275 $386 $16 $-1 $402 reversed single #
straight-curve $-1 -1 $-1 -6 0 -6 0 1 0 I I #
straight-curve $-1 -1 $-1 6 0 6 0 1 0 I I #
model_id-kcp-attrib $-1 -1 $-1 $-1 $371 1 1021575053 1021575053 1878065153 11 #
face $419 -1 $-1 $420 $421 $7 $-1 $409 forward single #
loop $-1 -1 $-1 $-1 $422 $371 #
cone-surface $-1 -1 $-1 0 14.699999999999999 0 0 -1 0 -6 0 0 1 I I 0 1 6 forward I I I I #
coedge $-1 -1 $-1 $423 $424 $425 $426 forward $372 $-1 #
coedge $-1 -1 $-1 $425 $373 $427 $428 forward $304 $-1 #
coedge $-1 -1 $-1 $373 $425 $374 $416 reversed $304 $-1 #
coedge $-1 -1 $-1 $424 $423 $373 $414 reversed $372 $-1 #
edge $-1 -1 $-1 $429 2.4987419533458318e-013 $430 1.5707963267952958 $413 $431 forward @7 unknown #
coedge $-1 -1 $-1 $374 $374 $424 $432 forward $306 $-1 #
edge $-1 -1 $-1 $429 -1.5707963267947733 $433 1.5707963267946354 $374 $434 reversed @7 unknown #
point $-1 -1 $-1 6 -7 -6 #
straight-curve $-1 -1 $-1 6 0 -6 0 -1 0 I I #
model_id-kcp-attrib $-1 -1 $-1 $-1 $407 1 1021575053 1021575053 1878065153 12 #
face $435 -1 $-1 $436 $437 $7 $-1 $438 forward single #
loop $-1 -1 $-1 $-1 $439 $407 #
coedge $-1 -1 $-1 $440 $441 $442 $443 forward $408 $-1 #
coedge $-1 -1 $-1 $413 $410 $440 $444 forward $372 $-1 #
coedge $-1 -1 $-1 $410 $413 $415 $432 reversed $372 $-1 #
coedge $-1 -1 $-1 $412 $411 $410 $426 reversed $304 $-1 #
edge $-1 -1 $-1 $433 -5.2844557058240517e-029 $445 1.5707963267952947 $410 $446 forward @7 unknown #
coedge $-1 -1 $-1 $442 $439 $411 $428 reversed $421 $-1 #
edge $-1 -1 $-1 $430 -3.1415926535897931 $445 -2.4492127076447545e-016 $427 $447 reversed @7 unknown #
vertex $-1 -1 $-1 $432 $448 #
vertex $-1 -1 $-1 $444 $449 #
ellipse-curve $-1 -1 $-1 5.25 4.25 2.5897091149903396e-011 2.7636901851953921e-011 -3.2700723255939994e-011 -1 -2.993161274389422e-013 0.75 -2.4525542441963267e-011 1 I I #
edge $-1 -1 $-1 $433 -4.7123889803849508 $429 -1.5707963267947733 $415 $450 reversed @7 unknown #
vertex $-1 -1 $-1 $432 $451 #
ellipse-curve $-1 -1 $-1 0 5 0 0 -1 0 0 0 -5.25 1 I I #
model_id-kcp-attrib $-1 -1 $-1 $-1 $420 1 1021575053 1021575053 1878065153 13 #
face $452 -1 $-1 $453 $454 $7 $-1 $438 forward single #
loop $-1 -1 $-1 $-1 $455 $420 #
torus-surface $-1 -1 $-1 0 0.75 0 0 -1 0 5.25 0.75 0.99998530628998583 0 0.0054209965987266698 forward_v I I I I #
coedge $-1 -1 $-1 $427 $456 $457 $458 forward $421 $-1 #
coedge $-1 -1 $-1 $457 $422 $423 $444 reversed $408 $-1 #
coedge $-1 -1 $-1 $422 $457 $459 $460 forward $408 $-1 #
coedge $-1 -1 $-1 $456 $427 $422 $443 reversed $421 $-1 #
edge $-1 -1 $-1 $461 0 $430 3.5 $422 $462 forward @7 unknown #
edge $-1 -1 $-1 $445 -2.4492127076447545e-016 $430 3.1415926535897931 $440 $463 reversed @7 unknown #
vertex $-1 -1 $-1 $458 $464 #
ellipse-curve $-1 -1 $-1 -5.25 4.25 -2.5896228125528283e-011 -2.7637693050331808e-011 -3.2699887119963523e-011 1 2.9842794901924208e-013 0.75 2.4524915339980887e-011 1 I I #
ellipse-curve $-1 -1 $-1 0 4.25 0 0 -1 0 -6 0 0 1 I I #
point $-1 -1 $-1 5.2499999999998881 5 -6.4709348990275866e-013 #
point $-1 -1 $-1 6 4.25 7.3476381229342635e-016 #
ellipse-curve $-1 -1 $-1 0 5 0 0 -1 0 0 0 -5.25 1 I I #
point $-1 -1 $-1 -5.2499999999997016 5 -1.3713127855473959e-012 #
model_id-kcp-attrib $-1 -1 $-1 $-1 $436 1 1021575053 1021575053 1878065153 14 #
face $465 -1 $-1 $-1 $466 $7 $-1 $467 forward single #
loop $-1 -1 $-1 $-1 $468 $436 #
coedge $-1 -1 $-1 $469 $470 $471 $472 forward $437 $-1 #
coedge $-1 -1 $-1 $439 $442 $470 $473 forward $421 $-1 #
coedge $-1 -1 $-1 $441 $440 $439 $458 reversed $408 $-1 #
edge $-1 -1 $-1 $474 0 $445 3.5 $457 $475 forward @7 unknown #
coedge $-1 -1 $-1 $468 $471 $441 $460 reversed $454 $-1 #
edge $-1 -1 $-1 $474 -3.309414250577245e-012 $461 3.1415926535936216 $441 $476 reversed @7 unknown #
vertex $-1 -1 $-1 $460 $477 #
straight-curve $-1 -1 $-1 6 0.75 7.3476381229342635e-016 0 1 0 I I #
ellipse-curve $-1 -1 $-1 0 4.25 0 0 -1 0 -6 0 0 1 I I #
point $-1 -1 $-1 -6 4.25 -1.4695276245868527e-015 #
model_id-kcp-attrib $-1 -1 $-1 $-1 $453 1 1021575053 1021575053 1878065153 15 #
loop $-1 -1 $-1 $-1 $478 $453 #
plane-surface $-1 -1 $-1 0 0 0 0 -1 0 -1 0 0 forward_v I I I I #
coedge $-1 -1 $-1 $479 $459 $480 $481 forward $454 $-1 #
coedge $-1 -1 $-1 $480 $455 $478 $482 forward $437 $-1 #
coedge $-1 -1 $-1 $455 $480 $456 $473 reversed $437 $-1 #
coedge $-1 -1 $-1 $459 $479 $455 $472 reversed $454 $-1 #
edge $-1 -1 $-1 $461 1.8624398326305698e-019 $483 1.5707963267948981 $471 $484 forward @7 unknown #
edge $-1 -1 $-1 $461 -3.1415926535859646 $474 -3.309414250577245e-012 $456 $485 reversed @7 unknown #
vertex $-1 -1 $-1 $460 $486 #
straight-curve $-1 -1 $-1 -6 0.75 -1.4695276245868527e-015 0 1 0 I I #
ellipse-curve $-1 -1 $-1 0 0.75 0 0 -1 0 -6 0 0 1 I I #
point $-1 -1 $-1 5.9999999999999982 0.75 -2.2972524676185508e-011 #
coedge $-1 -1 $-1 $487 $487 $469 $482 reversed $466 $-1 #
coedge $-1 -1 $-1 $471 $468 $487 $488 forward $454 $-1 #
coedge $-1 -1 $-1 $470 $469 $468 $481 reversed $437 $-1 #
edge $-1 -1 $-1 $474 -9.1759862239249202e-032 $489 1.5707963267948952 $468 $490 forward @7 unknown #
edge $-1 -1 $-1 $483 -1.5707963267948979 $489 1.5707963267948966 $478 $491 reversed @7 unknown #
vertex $-1 -1 $-1 $488 $492 #
ellipse-curve $-1 -1 $-1 5.2499999999999982 0.75000000000000067 2.446037306279501e-009 -3.2349072640777367e-009 3.2613822099905646e-009 -1 0.75000000000000089 -6.6613381477509392e-016 -2.4261804480583078e-009 1 I I #
ellipse-curve $-1 -1 $-1 0 0.75 0 0 -1 0 -6 0 0 1 I I #
point $-1 -1 $-1 -5.9999999999999991 0.75 -1.9856485503463464e-011 #
coedge $-1 -1 $-1 $478 $478 $479 $488 reversed $466 $-1 #
edge $-1 -1 $-1 $489 -4.7123889803846897 $483 -1.5707963267948979 $487 $493 reversed @7 unknown #
vertex $-1 -1 $-1 $488 $494 #
ellipse-curve $-1 -1 $-1 -5.2499999999999973 0.750000000000002 -2.4460361224973051e-009 3.2349061826584388e-009 3.2613810664516447e-009 1 -0.75000000000000178 -1.9984014443252818e-015 2.4261796369938416e-009 1 I I #
ellipse-curve $-1 -1 $-1 0 0 0 0 -1 0 0 0 -5.25 1 I I #
point $-1 -1 $-1 5.2499999999999964 0 5.6274429560687598e-015 #
ellipse-curve $-1 -1 $-1 0 0 0 0 -1 0 0 0 -5.25 1 I I #
point $-1 -1 $-1 -5.2499999999999964 0 -3.2265856653168602e-016 #
End-of-ACIS-data 