600 0 1 0           
98 GICL Pro/E ACIS Translator - Source: f:/data5/repository/PTC/V18/bboxrev2/boombox/damper.prt - 6 0 13 ACIS 6.0.3 NT 24 Thu Apr 04 13:42:22 2002 
1 9.9999999999999995e-007 1e-010 
body $-1 $1 $-1 $-1 #
lump $-1 $-1 $2 $0 #
shell $-1 $-1 $-1 $3 $-1 $1 #
face $-1 $4 $5 $2 $-1 $6 forward single #
face $-1 $7 $8 $2 $-1 $9 forward single #
loop $-1 $10 $11 $3 #
plane-surface $-1 0 13 0 0 -1 0 -1 0 0 forward_v I I I I #
face $-1 $12 $13 $2 $-1 $14 forward single #
loop $-1 $-1 $15 $4 #
cone-surface $-1 0 14.699999999999999 0 0 -1 0 -2.3599999999999999 0 0 1 I I 0 1 2.3599999999999999 forward I I I I #
loop $-1 $-1 $16 $3 #
coedge $-1 $17 $17 $15 $18 reversed $5 $-1 #
face $-1 $19 $20 $2 $-1 $21 reversed single #
loop $-1 $-1 $22 $7 #
cone-surface $-1 0 14.699999999999999 0 0 -1 0 -2.3599999999999999 0 0 1 I I 0 1 2.3599999999999999 forward I I I I #
coedge $-1 $23 $24 $11 $18 forward $8 $-1 #
coedge $-1 $25 $25 $26 $27 reversed $10 $-1 #
coedge $-1 $11 $11 $28 $29 forward $5 $-1 #
edge $-1 $30 0 $31 3.1415926535897931 $11 $32 forward 7 unknown #
face $-1 $33 $34 $2 $-1 $35 forward single #
loop $-1 $-1 $36 $12 #
plane-surface $-1 0 14 0 0 -1 0 -1 0 0 forward_v I I I I #
coedge $-1 $37 $38 $36 $39 forward $13 $-1 #
coedge $-1 $40 $15 $37 $41 forward $8 $-1 #
coedge $-1 $15 $40 $38 $42 reversed $8 $-1 #
coedge $-1 $16 $16 $43 $44 forward $10 $-1 #
coedge $-1 $45 $46 $16 $27 forward $34 $-1 #
edge $-1 $47 1.2246063538223773e-016 $48 3.1415926535897931 $16 $49 forward 7 unknown #
coedge $-1 $38 $37 $17 $29 reversed $13 $-1 #
edge $-1 $30 0 $31 3.1415926535897931 $17 $50 forward 7 unknown #
vertex $-1 $29 $51 #
vertex $-1 $29 $52 #
ellipse-curve $-1 0 13 -1.1102230246251565e-016 0 1 0 2.3599999999999999 0 4.0002940196459668e-016 1 I I #
face $-1 $53 $54 $2 $-1 $55 forward single #
loop $-1 $-1 $26 $19 #
cone-surface $-1 0 14.699999999999999 0 0 -1 0 -1 0 0 1 I I 0 1 1 forward I I I I #
coedge $-1 $56 $56 $22 $39 reversed $20 $-1 #
coedge $-1 $28 $22 $23 $41 reversed $13 $-1 #
coedge $-1 $22 $28 $24 $42 forward $13 $-1 #
edge $-1 $57 1.2246063538223773e-016 $58 3.1415926535897931 $22 $59 forward 7 unknown #
coedge $-1 $24 $23 $56 $60 reversed $8 $-1 #
edge $-1 $31 0 $58 1 $37 $61 forward 7 unknown #
edge $-1 $30 0 $57 1 $38 $62 forward 7 unknown #
coedge $-1 $63 $64 $25 $44 reversed $54 $-1 #
edge $-1 $47 -1.2246063538223773e-016 $48 3.1415926535897931 $25 $65 forward 7 unknown #
coedge $-1 $66 $26 $64 $67 reversed $34 $-1 #
coedge $-1 $26 $66 $63 $68 forward $34 $-1 #
vertex $-1 $44 $69 #
vertex $-1 $44 $70 #
ellipse-curve $-1 0 13 0 0 -1 0 1 0 0 1 I I #
ellipse-curve $-1 0 13 -2.2204460492503131e-016 0 -1 0 2.3599999999999999 0 5.1105170442711233e-016 1 I I #
point $-1 2.3599999999999999 13 2.8900709950208102e-016 #
point $-1 -2.3599999999999999 13 0 #
face $-1 $71 $72 $2 $-1 $73 reversed single #
loop $-1 $-1 $74 $33 #
cone-surface $-1 0 14.699999999999999 0 0 -1 0 -1 0 0 1 I I 0 1 1 forward I I I I #
coedge $-1 $36 $36 $40 $60 forward $20 $-1 #
vertex $-1 $42 $75 #
vertex $-1 $41 $76 #
ellipse-curve $-1 0 14 0 0 -1 0 2.3599999999999999 0 0 1 I I #
edge $-1 $57 -1.2246063538223773e-016 $58 3.1415926535897931 $56 $77 forward 7 unknown #
straight-curve $-1 -2.3599999999999999 13 -5.7801419900416204e-016 0 1 0 I I #
straight-curve $-1 2.3599999999999999 13 2.8900709950208102e-016 0 1 0 I I #
coedge $-1 $74 $43 $46 $68 reversed $54 $-1 #
coedge $-1 $43 $74 $45 $67 forward $54 $-1 #
ellipse-curve $-1 0 13 0 0 1 0 1 0 0 1 I I #
coedge $-1 $46 $45 $78 $79 reversed $34 $-1 #
edge $-1 $80 0 $48 8 $45 $81 forward 7 unknown #
edge $-1 $82 0 $47 8 $46 $83 forward 7 unknown #
point $-1 1 13 1.2246063538223773e-016 #
point $-1 -1 13 0 #
face $-1 $84 $85 $2 $-1 $86 forward single #
loop $-1 $87 $78 $53 #
plane-surface $-1 0 5 0 0 -1 0 -1 0 0 forward_v I I I I #
coedge $-1 $64 $63 $88 $89 forward $54 $-1 #
point $-1 2.3599999999999999 14 2.8900709950208102e-016 #
point $-1 -2.3599999999999999 14 0 #
ellipse-curve $-1 0 14 0 0 1 0 2.3599999999999999 0 0 1 I I #
coedge $-1 $88 $88 $66 $79 forward $72 $-1 #
edge $-1 $82 0 $80 3.1415926535897931 $78 $90 forward 7 unknown #
vertex $-1 $89 $91 #
straight-curve $-1 -1 5 -2.4492127076447545e-016 0 1 0 I I #
vertex $-1 $89 $92 #
straight-curve $-1 1 5 1.2246063538223773e-016 0 1 0 I I #
face $-1 $93 $94 $2 $-1 $95 forward single #
loop $-1 $-1 $96 $71 #
torus-surface $-1 0 4.25 0 0 -1 0 5.25 0.75 0.99996792813392132 0 0.0080089140058291503 forward_v I I I I #
loop $-1 $-1 $97 $53 #
coedge $-1 $78 $78 $74 $89 reversed $72 $-1 #
edge $-1 $82 0 $80 3.1415926535897931 $88 $98 forward 7 unknown #
ellipse-curve $-1 0 5 2.7755575615628914e-017 0 -1 0 1 0 9.4705059766608812e-017 1 I I #
point $-1 -1 5 -2.4492127076447545e-016 #
point $-1 1 5 1.2246063538223773e-016 #
face $-1 $99 $100 $2 $-1 $101 forward single #
loop $-1 $-1 $102 $84 #
torus-surface $-1 0 4.25 0 0 -1 0 5.25 0.75 -0.99996792813392132 0 -0.0080089140058291052 forward_v I I I I #
coedge $-1 $103 $104 $105 $106 forward $85 $-1 #
coedge $-1 $107 $107 $104 $108 forward $87 $-1 #
ellipse-curve $-1 -1.1102230246251565e-016 5 -5.5511151231257827e-017 0 1 0 1 0 1.7797178661349555e-016 1 I I #
face $-1 $109 $110 $2 $-1 $111 forward single #
loop $-1 $-1 $112 $93 #
cone-surface $-1 0 14.699999999999999 0 0 -1 0 -6 0 0 1 I I 0 1 6 forward I I I I #
coedge $-1 $113 $114 $115 $116 forward $94 $-1 #
coedge $-1 $115 $96 $117 $118 forward $85 $-1 #
coedge $-1 $96 $115 $97 $108 reversed $85 $-1 #
coedge $-1 $114 $113 $96 $106 reversed $94 $-1 #
edge $-1 $119 2.4987419533458318e-013 $120 1.5707963267952958 $105 $121 forward 7 unknown #
coedge $-1 $97 $97 $114 $122 forward $87 $-1 #
edge $-1 $119 3.84503275737616e-013 $123 3.1415926512233678 $97 $124 forward 7 unknown #
face $-1 $125 $126 $2 $-1 $127 forward single #
loop $-1 $-1 $128 $99 #
cone-surface $-1 0 14.699999999999999 0 0 -1 0 -6 0 0 1 I I 0 1 6 forward I I I I #
coedge $-1 $129 $130 $131 $132 forward $100 $-1 #
coedge $-1 $105 $102 $129 $133 forward $94 $-1 #
coedge $-1 $102 $105 $107 $122 reversed $94 $-1 #
coedge $-1 $104 $103 $102 $116 reversed $85 $-1 #
edge $-1 $123 -4.4877420385906447e-029 $134 1.5707963267952945 $102 $135 forward 7 unknown #
coedge $-1 $131 $128 $103 $118 reversed $110 $-1 #
edge $-1 $120 7.7706721291760913e-012 $134 3.1415926535975633 $117 $136 forward 7 unknown #
vertex $-1 $122 $137 #
vertex $-1 $133 $138 #
ellipse-curve $-1 5.25 4.25 2.5897091149903396e-011 2.7636901851953921e-011 -3.2700723255939994e-011 -1 -2.993161274389422e-013 0.75 -2.4525542441963267e-011 1 I I #
edge $-1 $123 0 $119 3.141592651223752 $107 $139 forward 7 unknown #
vertex $-1 $122 $140 #
ellipse-curve $-1 -9.3258734068513149e-014 5 6.2118663546328889e-009 0 1 0 5.2499999999997939 0 -6.2104948059249487e-009 1 I I #
face $-1 $141 $142 $2 $-1 $143 forward single #
loop $-1 $-1 $144 $109 #
torus-surface $-1 0 0.75 0 0 -1 0 5.2499999999999982 0.75 0.99998530628998572 0 0.0054209965987266689 forward_v I I I I #
coedge $-1 $117 $145 $146 $147 forward $110 $-1 #
coedge $-1 $146 $112 $113 $133 reversed $100 $-1 #
coedge $-1 $112 $146 $148 $149 forward $100 $-1 #
coedge $-1 $145 $117 $112 $132 reversed $110 $-1 #
edge $-1 $150 0 $120 3.5 $112 $151 forward 7 unknown #
edge $-1 $134 7.7705047309420931e-012 $120 3.1415926535975638 $129 $152 forward 7 unknown #
vertex $-1 $147 $153 #
ellipse-curve $-1 -5.25 4.25 -2.5896228125528283e-011 -2.7637693050331808e-011 -3.2699887119963523e-011 1 2.9842794901924208e-013 0.75 2.4524915339980887e-011 1 I I #
ellipse-curve $-1 0 4.25 0 0 1 0 6 0 4.6624767538868841e-011 1 I I #
point $-1 5.2499999999998881 5 -6.4709348990275866e-013 #
point $-1 6 4.25 7.3476381229342635e-016 #
ellipse-curve $-1 9.3258734068513149e-014 5 -6.2118674648559136e-009 0 1 0 -5.2499999999997948 0 6.2104961520703661e-009 1 I I #
point $-1 -5.2499999999997016 5 -1.3713127855473959e-012 #
face $-1 $-1 $154 $2 $-1 $155 forward single #
loop $-1 $-1 $156 $125 #
torus-surface $-1 0 0.75 0 0 -1 0 5.2499999999999982 0.75 -0.99998530628998572 0 -0.0054209965987266073 forward_v I I I I #
coedge $-1 $157 $158 $159 $160 forward $126 $-1 #
coedge $-1 $128 $131 $158 $161 forward $110 $-1 #
coedge $-1 $130 $129 $128 $147 reversed $100 $-1 #
edge $-1 $162 0 $134 3.5 $146 $163 forward 7 unknown #
coedge $-1 $156 $159 $130 $149 reversed $142 $-1 #
edge $-1 $162 0 $150 3.141592653596931 $130 $164 forward 7 unknown #
vertex $-1 $149 $165 #
straight-curve $-1 6 0.75 7.3476381229342635e-016 0 1 0 I I #
ellipse-curve $-1 0 4.25 0 0 1 0 -6 0 -4.6624497913277145e-011 1 I I #
point $-1 -6 4.25 -1.4695276245868527e-015 #
loop $-1 $-1 $166 $141 #
plane-surface $-1 0 0 0 0 -1 0 -1 0 0 forward_v I I I I #
coedge $-1 $167 $148 $168 $169 forward $142 $-1 #
coedge $-1 $168 $144 $166 $170 forward $126 $-1 #
coedge $-1 $144 $168 $145 $161 reversed $126 $-1 #
coedge $-1 $148 $167 $144 $160 reversed $142 $-1 #
edge $-1 $150 1.8624398326298714e-019 $171 1.5707963267948981 $159 $172 forward 7 unknown #
edge $-1 $150 7.1382304828964449e-012 $162 3.1415926535897931 $145 $173 forward 7 unknown #
vertex $-1 $149 $174 #
straight-curve $-1 -6 0.75 -1.4695276245868527e-015 0 1 0 I I #
ellipse-curve $-1 0 0.75 0 0 1 0 -5.9999999999999991 0 -1.9856485503463464e-011 1 I I #
point $-1 5.9999999999999982 0.75 -2.2972524676185508e-011 #
coedge $-1 $175 $175 $157 $170 reversed $154 $-1 #
coedge $-1 $159 $156 $175 $176 forward $142 $-1 #
coedge $-1 $158 $157 $156 $169 reversed $126 $-1 #
edge $-1 $162 0 $177 1.5707963267948952 $156 $178 forward 7 unknown #
edge $-1 $171 -9.4831550018565015e-016 $177 3.1415926534881544 $166 $179 forward 7 unknown #
vertex $-1 $176 $180 #
ellipse-curve $-1 5.2499999999999982 0.75000000000000067 2.446037306279501e-009 -3.2349072640777367e-009 3.2613822099905646e-009 -1 0.75000000000000089 -6.6613381477509392e-016 -2.4261804480583078e-009 1 I I #
ellipse-curve $-1 0 0.75 0 0 1 0 5.9999999999999991 0 1.9856858221193161e-011 1 I I #
point $-1 -5.9999999999999991 0.75 -1.9856485503463464e-011 #
coedge $-1 $166 $166 $167 $176 reversed $154 $-1 #
edge $-1 $177 0 $171 3.1415926534881535 $175 $181 forward 7 unknown #
vertex $-1 $176 $182 #
ellipse-curve $-1 -5.2499999999999973 0.750000000000002 -2.4460361224973051e-009 3.2349061826584388e-009 3.2613810664516447e-009 1 -0.75000000000000178 -1.9984014443252818e-015 2.4261796369938416e-009 1 I I #
ellipse-curve $-1 0 0 2.6680213593976987e-010 0 1 0 5.2499999999999973 0 -2.6680148715318985e-010 1 I I #
point $-1 5.2499999999999964 0 5.6274429560687598e-015 #
ellipse-curve $-1 -4.4408920985006262e-016 0 -2.6680191389516494e-010 0 1 0 -5.2499999999999964 0 2.6680159123659841e-010 1 I I #
point $-1 -5.2499999999999964 0 -3.2265856653168602e-016 #
End-of-ACIS-data 