700 0 2 0           
24 FBMach with ACIS - 7.0.3 13 ACIS 7.0.3 NT 24 Thu May 16 11:11:35 2002 
1 9.9999999999999995e-007 1e-010 
body $2 -1 $-1 $3 $-1 $4 #
bdycol-kcp $-1 -1 1 2 $5 $6 #
model_id-kcp-attrib $-1 -1 $-1 $-1 $0 1 1021561894 1021561894 -1373241343 1 #
lump $-1 -1 $-1 $-1 $7 $0 #
transform $-1 -1 1 0 0 0 1 0 0 0 1 0 0 0 1 rotate no_reflect no_shear #
body $8 -1 $-1 $9 $-1 $10 #
body $11 -1 $-1 $12 $-1 $13 #
shell $-1 -1 $-1 $-1 $-1 $14 $-1 $3 #
model_id-kcp-attrib $-1 -1 $-1 $-1 $5 1 1021561894 1021561894 -1372585982 1 #
lump $-1 -1 $-1 $-1 $15 $5 #
transform $-1 -1 1 0 0 0 1 0 0 0 1 0 7 0 1 no_rotate no_reflect no_shear #
rgb_color-st-attrib $-1 -1 $16 $-1 $6 0.5 1 1 #
lump $-1 -1 $-1 $-1 $17 $6 #
transform $-1 -1 1 0 0 0 1 0 0 0 1 0 7 0 1 no_rotate no_reflect no_shear #
face $18 -1 $-1 $19 $20 $7 $-1 $21 forward single #
shell $-1 -1 $-1 $-1 $-1 $22 $-1 $9 #
model_id-kcp-attrib $-1 -1 $-1 $11 $6 1 1021561894 1021561894 -1363410941 1 #
shell $-1 -1 $-1 $-1 $-1 $23 $-1 $12 #
model_id-kcp-attrib $-1 -1 $-1 $-1 $14 1 1021561894 1021561894 -1373241343 2 #
face $24 -1 $-1 $25 $26 $7 $-1 $27 forward single #
loop $-1 -1 $-1 $28 $29 $14 #
plane-surface $-1 -1 $-1 0 13 0 0 -1 0 -1 0 0 forward_v I I I I #
face $-1 -1 $-1 $30 $31 $15 $-1 $32 forward single #
face $-1 -1 $-1 $33 $34 $17 $-1 $35 reversed single #
model_id-kcp-attrib $-1 -1 $-1 $-1 $19 1 1021561894 1021561894 -1373241343 3 #
face $36 -1 $-1 $37 $38 $7 $-1 $27 forward single #
loop $-1 -1 $-1 $-1 $39 $19 #
cone-surface $-1 -1 $-1 0 14.699999999999999 0 0 -1 0 -2.3599999999999999 0 0 1 I I 0 1 2.3599999999999999 forward I I I I #
loop $-1 -1 $-1 $-1 $40 $14 #
coedge $-1 -1 $-1 $41 $41 $39 $42 reversed $20 $-1 #
face $-1 -1 $-1 $43 $44 $15 $-1 $45 reversed single #
loop $-1 -1 $-1 $-1 $46 $22 #
plane-surface $-1 -1 $-1 0 0 6 0 0 1 1 0 0 forward_v I I I I #
face $-1 -1 $-1 $47 $48 $17 $-1 $35 reversed single #
loop $-1 -1 $-1 $-1 $49 $23 #
cone-surface $-1 -1 $-1 5.5591113924831459e-024 7 0 0 1 0 6 0 -2.2971693232516632e-011 1 I I 0 1 6 forward I I I I #
model_id-kcp-attrib $-1 -1 $-1 $-1 $25 1 1021561894 1021561894 -1373241343 4 #
face $50 -1 $-1 $51 $52 $7 $-1 $53 reversed single #
loop $-1 -1 $-1 $-1 $54 $25 #
coedge $-1 -1 $-1 $55 $56 $29 $42 forward $26 $-1 #
coedge $-1 -1 $-1 $57 $57 $58 $59 reversed $28 $-1 #
coedge $-1 -1 $-1 $29 $29 $60 $61 forward $20 $-1 #
edge $-1 -1 $-1 $62 -3.1415926535897931 $63 0 $29 $64 reversed @7 unknown #
face $65 -1 $-1 $66 $67 $15 $-1 $68 reversed single #
loop $-1 -1 $-1 $-1 $69 $30 #
plane-surface $-1 -1 $-1 0 0 -6 0 0 1 1 0 0 forward_v I I I I #
coedge $-1 -1 $-1 $70 $71 $72 $73 forward $31 $-1 #
face $-1 -1 $-1 $74 $75 $17 $-1 $35 reversed single #
loop $-1 -1 $-1 $-1 $76 $33 #
coedge $-1 -1 $-1 $77 $78 $79 $80 reversed $34 $-1 #
model_id-kcp-attrib $-1 -1 $-1 $-1 $37 1 1021561894 1021561894 -1373241343 5 #
face $81 -1 $-1 $82 $83 $7 $-1 $84 forward single #
loop $-1 -1 $-1 $-1 $85 $37 #
plane-surface $-1 -1 $-1 0 14 0 0 -1 0 -1 0 0 forward_v I I I I #
coedge $-1 -1 $-1 $86 $87 $85 $88 forward $38 $-1 #
coedge $-1 -1 $-1 $89 $39 $86 $90 forward $26 $-1 #
coedge $-1 -1 $-1 $39 $89 $87 $91 reversed $26 $-1 #
coedge $-1 -1 $-1 $40 $40 $92 $93 forward $28 $-1 #
coedge $-1 -1 $-1 $94 $95 $40 $59 forward $83 $-1 #
edge $-1 -1 $-1 $96 -3.1415926535897931 $97 0 $40 $98 forward @7 unknown #
coedge $-1 -1 $-1 $87 $86 $41 $61 reversed $38 $-1 #
edge $-1 -1 $-1 $62 -3.1415926535897931 $63 0 $41 $99 forward @7 unknown #
vertex $-1 -1 $-1 $61 $100 #
vertex $-1 -1 $-1 $61 $101 #
ellipse-curve $-1 -1 $-1 0 13 0 0 -1 0 -2.3599999999999999 0 0 1 I I #
model_id-kcp-attrib $-1 -1 $-1 $-1 $43 1 1021561894 1021561894 -1372585982 3 #
face $-1 -1 $-1 $102 $103 $15 $-1 $104 reversed single #
loop $-1 -1 $-1 $-1 $105 $43 #
plane-surface $-1 -1 $-1 0 -7 0 0 1 0 0 0 1 forward_v I I I I #
coedge $-1 -1 $-1 $106 $107 $108 $109 forward $44 $-1 #
coedge $-1 -1 $-1 $110 $46 $111 $112 forward $31 $-1 #
coedge $-1 -1 $-1 $46 $110 $113 $114 forward $31 $-1 #
coedge $-1 -1 $-1 $115 $116 $46 $73 reversed $117 $-1 #
edge $-1 -1 $-1 $118 -7 $119 7 $72 $120 forward @7 unknown #
face $-1 -1 $-1 $121 $122 $17 $-1 $35 reversed single #
loop $-1 -1 $-1 $-1 $123 $47 #
coedge $-1 -1 $-1 $124 $125 $126 $127 reversed $48 $-1 #
coedge $-1 -1 $-1 $128 $49 $129 $130 forward $34 $-1 #
coedge $-1 -1 $-1 $49 $128 $131 $132 reversed $34 $-1 #
coedge $-1 -1 $-1 $133 $134 $49 $80 forward $135 $-1 #
edge $-1 -1 $-1 $136 -3.1415926535936216 $137 -1.5707963267987253 $79 $138 forward @7 unknown #
model_id-kcp-attrib $-1 -1 $-1 $-1 $51 1 1021561894 1021561894 -1373241343 6 #
face $139 -1 $-1 $140 $141 $7 $-1 $84 forward single #
loop $-1 -1 $-1 $-1 $58 $51 #
cone-surface $-1 -1 $-1 0 14.699999999999999 0 0 -1 0 -1 0 0 1 I I 0 1 1 forward I I I I #
coedge $-1 -1 $-1 $142 $142 $54 $88 reversed $52 $-1 #
coedge $-1 -1 $-1 $60 $54 $55 $90 reversed $38 $-1 #
coedge $-1 -1 $-1 $54 $60 $56 $91 forward $38 $-1 #
edge $143 -1 $-1 $144 -3.1415926535897931 $145 0 $54 $146 reversed @7 unknown #
coedge $-1 -1 $-1 $56 $55 $142 $147 reversed $26 $-1 #
edge $-1 -1 $-1 $63 0 $145 1 $86 $148 forward @7 unknown #
edge $-1 -1 $-1 $62 0 $144 1 $87 $149 forward @7 unknown #
coedge $-1 -1 $-1 $150 $151 $57 $93 reversed $141 $-1 #
edge $-1 -1 $-1 $96 -3.1415926535897931 $97 0 $57 $152 reversed @7 unknown #
coedge $-1 -1 $-1 $153 $58 $151 $154 reversed $83 $-1 #
coedge $-1 -1 $-1 $58 $153 $150 $155 forward $83 $-1 #
vertex $-1 -1 $-1 $93 $156 #
vertex $-1 -1 $-1 $93 $157 #
ellipse-curve $-1 -1 $-1 0 13 0 0 -1 0 -1 0 0 1 I I #
ellipse-curve $-1 -1 $-1 0 13 0 0 -1 0 -2.3599999999999999 0 0 1 I I #
point $-1 -1 $-1 2.3599999999999999 13 2.8900709950208102e-016 #
point $-1 -1 $-1 -2.3599999999999999 13 0 #
face $158 -1 $-1 $159 $160 $15 $-1 $161 reversed single #
loop $-1 -1 $-1 $-1 $162 $66 #
plane-surface $-1 -1 $-1 -6 0 0 1 0 0 0 0 -1 forward_v I I I I #
coedge $-1 -1 $-1 $163 $113 $164 $165 forward $67 $-1 #
coedge $-1 -1 $-1 $166 $69 $163 $167 forward $44 $-1 #
coedge $-1 -1 $-1 $69 $166 $168 $169 forward $44 $-1 #
coedge $-1 -1 $-1 $116 $115 $69 $109 reversed $117 $-1 #
edge $-1 -1 $-1 $170 -7 $171 7 $108 $172 forward @7 unknown #
coedge $-1 -1 $-1 $71 $70 $173 $174 forward $31 $-1 #
coedge $-1 -1 $-1 $175 $176 $70 $112 reversed $160 $-1 #
edge $-1 -1 $-1 $119 -6 $177 6 $111 $178 forward @7 unknown #
coedge $-1 -1 $-1 $105 $179 $71 $114 reversed $67 $-1 #
edge $-1 -1 $-1 $180 -6 $118 6 $113 $181 forward @7 unknown #
coedge $-1 -1 $-1 $108 $72 $179 $182 forward $117 $-1 #
coedge $-1 -1 $-1 $72 $108 $175 $183 reversed $117 $-1 #
loop $-1 -1 $-1 $-1 $115 $159 #
vertex $-1 -1 $-1 $73 $184 #
vertex $-1 -1 $-1 $73 $185 #
straight-curve $-1 -1 $-1 6 0 6 0 1 0 I I #
face $-1 -1 $-1 $186 $187 $17 $-1 $188 forward single #
loop $-1 -1 $-1 $-1 $189 $74 #
coedge $-1 -1 $-1 $190 $191 $189 $192 forward $75 $-1 #
coedge $-1 -1 $-1 $193 $76 $194 $195 reversed $48 $-1 #
coedge $-1 -1 $-1 $76 $193 $78 $132 forward $48 $-1 #
coedge $-1 -1 $-1 $196 $197 $76 $127 forward $198 $-1 #
edge $-1 -1 $-1 $199 3.8286155387527721e-012 $200 1.5707963267987253 $126 $201 forward @7 unknown #
coedge $-1 -1 $-1 $78 $77 $202 $203 reversed $34 $-1 #
coedge $-1 -1 $-1 $191 $190 $204 $130 reversed $75 $-1 #
edge $-1 -1 $-1 $136 -14 $205 0 $204 $206 forward @7 unknown #
coedge $-1 -1 $-1 $207 $208 $209 $132 forward $210 $-1 #
edge $-1 -1 $-1 $137 -14 $200 0 $131 $211 forward @7 unknown #
coedge $-1 -1 $-1 $134 $79 $208 $212 reversed $135 $-1 #
coedge $-1 -1 $-1 $79 $133 $213 $214 forward $135 $-1 #
loop $-1 -1 $-1 $-1 $79 $215 #
vertex $-1 -1 $-1 $216 $217 #
vertex $-1 -1 $-1 $218 $219 #
ellipse-curve $-1 -1 $-1 5.5591113924831459e-024 -7 0 0 1 0 6 0 -2.2971693232516632e-011 1 I I #
model_id-kcp-attrib $-1 -1 $-1 $-1 $82 1 1021561894 1021561894 -1373241343 7 #
face $220 -1 $-1 $221 $222 $7 $-1 $223 reversed single #
loop $-1 -1 $-1 $-1 $224 $82 #
coedge $-1 -1 $-1 $85 $85 $89 $147 forward $52 $-1 #
attrib_edge_convexity-kcp-attrib $-1 -1 $225 $-1 $88 1 #
vertex $-1 -1 $-1 $91 $226 #
vertex $-1 -1 $-1 $90 $227 #
ellipse-curve $-1 -1 $-1 0 14 0 0 1 0 -2.3599999999999999 0 0 1 I I #
edge $228 -1 $-1 $144 -3.1415926535897931 $145 0 $142 $229 reversed @7 unknown #
straight-curve $-1 -1 $-1 -2.3599999999999999 13 -5.7801419900416204e-016 0 1 0 I I #
straight-curve $-1 -1 $-1 2.3599999999999999 13 2.8900709950208102e-016 0 1 0 I I #
coedge $-1 -1 $-1 $224 $92 $95 $155 reversed $141 $-1 #
coedge $-1 -1 $-1 $92 $224 $94 $154 forward $141 $-1 #
ellipse-curve $-1 -1 $-1 0 13 0 0 -1 0 -1 0 0 1 I I #
coedge $-1 -1 $-1 $95 $94 $230 $231 reversed $83 $-1 #
edge $-1 -1 $-1 $232 0 $97 8 $94 $233 forward @7 unknown #
edge $-1 -1 $-1 $234 0 $96 8 $95 $235 forward @7 unknown #
point $-1 -1 $-1 1 13 1.2246063538223773e-016 #
point $-1 -1 $-1 -1 13 0 #
model_id-kcp-attrib $-1 -1 $-1 $-1 $102 1 1021561894 1021561894 -1372585982 2 #
face $-1 -1 $-1 $-1 $117 $15 $-1 $236 reversed single #
loop $-1 -1 $-1 $-1 $175 $102 #
plane-surface $-1 -1 $-1 0 7 0 0 -1 0 0 0 -1 forward_v I I I I #
coedge $-1 -1 $-1 $237 $173 $176 $238 forward $103 $-1 #
coedge $-1 -1 $-1 $179 $105 $106 $167 reversed $67 $-1 #
coedge $-1 -1 $-1 $173 $237 $105 $165 reversed $103 $-1 #
edge $-1 -1 $-1 $180 -6 $239 6 $164 $240 forward @7 unknown #
coedge $-1 -1 $-1 $107 $106 $237 $241 forward $44 $-1 #
edge $-1 -1 $-1 $171 -6 $239 6 $163 $242 forward @7 unknown #
coedge $-1 -1 $-1 $176 $175 $107 $169 reversed $160 $-1 #
edge $-1 -1 $-1 $243 -6 $170 6 $168 $244 forward @7 unknown #
vertex $-1 -1 $-1 $109 $245 #
vertex $-1 -1 $-1 $182 $246 #
straight-curve $-1 -1 $-1 6 0 -6 0 -1 0 I I #
coedge $-1 -1 $-1 $162 $164 $110 $174 reversed $103 $-1 #
edge $-1 -1 $-1 $177 -7 $180 7 $173 $247 forward @7 unknown #
coedge $-1 -1 $-1 $168 $111 $116 $183 forward $160 $-1 #
coedge $-1 -1 $-1 $111 $168 $162 $238 reversed $160 $-1 #
vertex $-1 -1 $-1 $112 $248 #
straight-curve $-1 -1 $-1 0 7 6 -1 0 0 I I #
coedge $-1 -1 $-1 $113 $163 $115 $182 reversed $67 $-1 #
vertex $-1 -1 $-1 $174 $249 #
straight-curve $-1 -1 $-1 0 -7 6 1 0 0 I I #
edge $-1 -1 $-1 $118 -6 $171 6 $115 $250 forward @7 unknown #
edge $-1 -1 $-1 $119 -6 $170 6 $116 $251 forward @7 unknown #
point $-1 -1 $-1 6 -7 6 #
point $-1 -1 $-1 6 7 6 #
face $-1 -1 $-1 $252 $253 $17 $-1 $254 reversed single #
loop $-1 -1 $-1 $-1 $209 $121 #
plane-surface $-1 -1 $-1 0 0 6 0 0 1 1 0 0 forward_v I I I I #
coedge $-1 -1 $-1 $255 $256 $257 $192 reversed $122 $-1 #
coedge $-1 -1 $-1 $129 $123 $258 $259 reversed $75 $-1 #
coedge $-1 -1 $-1 $123 $129 $260 $261 reversed $75 $-1 #
edge $-1 -1 $-1 $262 -14 $263 0 $257 $264 forward @7 unknown #
coedge $-1 -1 $-1 $125 $124 $265 $266 reversed $48 $-1 #
coedge $-1 -1 $-1 $267 $268 $269 $195 forward $270 $-1 #
edge $-1 -1 $-1 $271 -14 $199 0 $194 $272 forward @7 unknown #
coedge $-1 -1 $-1 $197 $126 $273 $274 reversed $198 $-1 #
coedge $-1 -1 $-1 $126 $196 $267 $275 forward $198 $-1 #
loop $-1 -1 $-1 $-1 $126 $276 #
vertex $-1 -1 $-1 $277 $278 #
vertex $-1 -1 $-1 $279 $280 #
ellipse-curve $-1 -1 $-1 5.5591113924831459e-024 7 0 0 -1 0 6 0 -2.2971693232516632e-011 1 I I #
coedge $-1 -1 $-1 $281 $282 $128 $203 forward $283 $-1 #
edge $-1 -1 $-1 $200 1.5707963267987253 $205 3.1415926535936216 $202 $201 forward @7 unknown #
coedge $-1 -1 $-1 $284 $285 $286 $130 forward $253 $-1 #
vertex $-1 -1 $-1 $287 $288 #
straight-curve $-1 -1 $-1 -6 7 0 0 1 0 I I #
coedge $-1 -1 $-1 $289 $131 $282 $279 forward $210 $-1 #
coedge $-1 -1 $-1 $131 $289 $133 $212 forward $210 $-1 #
coedge $-1 -1 $-1 $290 $273 $125 $132 reversed $187 $-1 #
loop $-1 -1 $-1 $-1 $131 $291 #
straight-curve $-1 -1 $-1 5.5591113924831459e-024 7 6 0 1 0 I I #
edge $-1 -1 $-1 $292 -6 $137 5.5591113924831459e-024 $133 $293 forward @7 unknown #
coedge $-1 -1 $-1 $294 $286 $134 $214 reversed $295 $-1 #
edge $-1 -1 $-1 $292 -6 $136 0 $213 $296 forward @7 unknown #
face $-1 -1 $-1 $297 $135 $17 $-1 $298 reversed single #
edge $-1 -1 $-1 $136 0 $299 6 $285 $296 forward @7 unknown #
point $-1 -1 $-1 -6 -7 0 #
edge $-1 -1 $-1 $137 5.5591113924831459e-024 $300 6 $301 $293 forward @7 unknown #
point $-1 -1 $-1 5.5591113924831459e-024 -7 6 #
model_id-kcp-attrib $-1 -1 $-1 $-1 $140 1 1021561894 1021561894 -1373241343 8 #
face $302 -1 $-1 $303 $304 $7 $-1 $305 forward single #
loop $-1 -1 $-1 $306 $230 $140 #
plane-surface $-1 -1 $-1 0 5 0 0 -1 0 -1 0 0 forward_v I I I I #
coedge $-1 -1 $-1 $151 $150 $307 $308 forward $141 $-1 #
convexity-sys-attrib $-1 -1 $-1 $143 $88 #
point $-1 -1 $-1 2.3599999999999999 14 2.8900709950208102e-016 #
point $-1 -1 $-1 -2.3599999999999999 14 0 #
attrib_edge_convexity-kcp-attrib $-1 -1 $309 $-1 $147 1 #
ellipse-curve $-1 -1 $-1 0 14 0 0 -1 0 -2.3599999999999999 0 0 1 I I #
coedge $-1 -1 $-1 $307 $307 $153 $231 forward $222 $-1 #
edge $-1 -1 $-1 $234 -3.1415926535897931 $232 2.4492127076447545e-016 $230 $310 forward @7 unknown #
vertex $-1 -1 $-1 $308 $311 #
straight-curve $-1 -1 $-1 -1 5 -2.4492127076447545e-016 0 1 0 I I #
vertex $-1 -1 $-1 $308 $312 #
straight-curve $-1 -1 $-1 1 5 1.2246063538223773e-016 0 1 0 I I #
plane-surface $-1 -1 $-1 6 0 0 -1 0 0 0 0 1 forward_v I I I I #
coedge $-1 -1 $-1 $164 $162 $166 $241 reversed $103 $-1 #
edge $-1 -1 $-1 $177 -6 $243 6 $176 $313 forward @7 unknown #
vertex $-1 -1 $-1 $241 $314 #
straight-curve $-1 -1 $-1 -6 -7 0 0 0 -1 I I #
edge $-1 -1 $-1 $239 -7 $243 7 $237 $315 forward @7 unknown #
straight-curve $-1 -1 $-1 0 -7 -6 -1 0 0 I I #
vertex $-1 -1 $-1 $169 $316 #
straight-curve $-1 -1 $-1 0 7 -6 1 0 0 I I #
point $-1 -1 $-1 6 7 -6 #
point $-1 -1 $-1 6 -7 -6 #
straight-curve $-1 -1 $-1 -6 0 6 0 -1 0 I I #
point $-1 -1 $-1 -6 7 6 #
point $-1 -1 $-1 -6 -7 6 #
straight-curve $-1 -1 $-1 6 -7 0 0 0 -1 I I #
straight-curve $-1 -1 $-1 6 7 0 0 0 -1 I I #
face $-1 -1 $-1 $317 $318 $17 $-1 $319 reversed single #
loop $-1 -1 $-1 $-1 $204 $186 #
plane-surface $-1 -1 $-1 -6 0 0 1 0 0 0 0 -1 forward_v I I I I #
coedge $-1 -1 $-1 $320 $189 $321 $322 reversed $122 $-1 #
coedge $-1 -1 $-1 $189 $320 $323 $324 reversed $122 $-1 #
coedge $-1 -1 $-1 $325 $326 $327 $192 forward $328 $-1 #
coedge $-1 -1 $-1 $329 $330 $190 $259 forward $331 $-1 #
edge $-1 -1 $-1 $205 -3.1415926535859646 $263 -1.5707963267910681 $258 $201 forward @7 unknown #
coedge $-1 -1 $-1 $332 $333 $191 $261 forward $334 $-1 #
edge $-1 -1 $-1 $262 1.5707963267910681 $136 3.1415926535859646 $260 $138 forward @7 unknown #
vertex $-1 -1 $-1 $335 $336 #
vertex $-1 -1 $-1 $337 $338 #
straight-curve $-1 -1 $-1 5.5591113924831459e-024 7 -6 0 1 0 I I #
coedge $-1 -1 $-1 $339 $301 $193 $266 forward $340 $-1 #
edge $-1 -1 $-1 $137 -1.5707963267987253 $271 -3.8286155387527721e-012 $265 $138 forward @7 unknown #
coedge $-1 -1 $-1 $341 $194 $197 $275 reversed $270 $-1 #
coedge $-1 -1 $-1 $194 $341 $339 $342 forward $270 $-1 #
coedge $-1 -1 $-1 $343 $344 $320 $195 reversed $318 $-1 #
loop $-1 -1 $-1 $-1 $194 $345 #
vertex $-1 -1 $-1 $346 $347 #
straight-curve $-1 -1 $-1 6 7 0 0 1 0 I I #
coedge $-1 -1 $-1 $209 $348 $196 $274 forward $187 $-1 #
edge $-1 -1 $-1 $349 -6 $200 -5.5591113924831459e-024 $196 $350 forward @7 unknown #
edge $-1 -1 $-1 $349 -6 $199 0 $267 $351 forward @7 unknown #
face $-1 -1 $-1 $352 $198 $17 $-1 $353 reversed single #
edge $-1 -1 $-1 $199 0 $354 6 $344 $351 forward @7 unknown #
point $-1 -1 $-1 6 7 0 #
edge $-1 -1 $-1 $200 -5.5591113924831459e-024 $355 6 $282 $350 forward @7 unknown #
point $-1 -1 $-1 5.5591113924831459e-024 7 6 #
coedge $-1 -1 $-1 $282 $202 $356 $357 reversed $283 $-1 #
coedge $-1 -1 $-1 $202 $281 $207 $279 reversed $283 $-1 #
loop $-1 -1 $-1 $-1 $202 $352 #
coedge $-1 -1 $-1 $358 $204 $330 $287 forward $253 $-1 #
coedge $-1 -1 $-1 $204 $358 $332 $216 reversed $253 $-1 #
coedge $-1 -1 $-1 $213 $356 $77 $130 reversed $295 $-1 #
edge $-1 -1 $-1 $205 0 $359 6 $330 $360 forward @7 unknown #
point $-1 -1 $-1 -6 7 0 #
coedge $-1 -1 $-1 $208 $207 $294 $361 forward $210 $-1 #
coedge $-1 -1 $-1 $348 $209 $301 $218 forward $187 $-1 #
face $-1 -1 $-1 $362 $210 $17 $-1 $188 forward single #
vertex $-1 -1 $-1 $361 $363 #
straight-curve $-1 -1 $-1 0 -7 6 1 0 0 I I #
coedge $-1 -1 $-1 $356 $213 $289 $361 reversed $295 $-1 #
loop $-1 -1 $-1 $-1 $286 $364 #
straight-curve $-1 -1 $-1 -6 -7 0 0 0 -1 I I #
face $-1 -1 $-1 $365 $340 $17 $-1 $298 reversed single #
plane-surface $-1 -1 $-1 0 -7 0 0 1 0 0 0 1 forward_v I I I I #
vertex $-1 -1 $-1 $366 $367 #
vertex $-1 -1 $-1 $368 $369 #
coedge $-1 -1 $-1 $265 $339 $290 $218 reversed $340 $-1 #
model_id-kcp-attrib $-1 -1 $-1 $-1 $221 1 1021561894 1021561894 -1373241343 9 #
face $370 -1 $-1 $371 $372 $7 $-1 $305 forward single #
loop $-1 -1 $-1 $-1 $373 $221 #
torus-surface $-1 -1 $-1 0 4.25 0 0 -1 0 5.25 0.75 0.99996792813392132 0 0.0080089140058291503 forward_v I I I I #
loop $-1 -1 $-1 $-1 $374 $140 #
coedge $-1 -1 $-1 $230 $230 $224 $308 reversed $222 $-1 #
edge $-1 -1 $-1 $234 -3.1415926535897931 $232 -2.4492127076447545e-016 $307 $375 reversed @7 unknown #
convexity-sys-attrib $-1 -1 $-1 $228 $147 #
ellipse-curve $-1 -1 $-1 0 5 0 0 -1 0 -1 0 0 1 I I #
point $-1 -1 $-1 -1 5 -2.4492127076447545e-016 #
point $-1 -1 $-1 1 5 1.2246063538223773e-016 #
straight-curve $-1 -1 $-1 -6 7 0 0 0 -1 I I #
point $-1 -1 $-1 -6 -7 -6 #
straight-curve $-1 -1 $-1 -6 0 -6 0 1 0 I I #
point $-1 -1 $-1 -6 7 -6 #
face $-1 -1 $-1 $276 $376 $17 $-1 $353 reversed single #
loop $-1 -1 $-1 $-1 $269 $252 #
plane-surface $-1 -1 $-1 6 0 0 -1 0 0 0 0 1 forward_v I I I I #
coedge $-1 -1 $-1 $256 $255 $124 $195 forward $122 $-1 #
coedge $-1 -1 $-1 $377 $378 $255 $322 forward $379 $-1 #
edge $-1 -1 $-1 $271 -3.8286155387527721e-012 $262 1.5707963267910681 $321 $138 forward @7 unknown #
coedge $-1 -1 $-1 $380 $381 $256 $324 forward $376 $-1 #
edge $-1 -1 $-1 $263 -1.5707963267910681 $199 3.8286155387527721e-012 $323 $201 forward @7 unknown #
coedge $-1 -1 $-1 $382 $257 $381 $337 forward $328 $-1 #
coedge $-1 -1 $-1 $257 $382 $377 $383 forward $328 $-1 #
coedge $-1 -1 $-1 $384 $385 $123 $192 reversed $386 $-1 #
loop $-1 -1 $-1 $-1 $257 $362 #
coedge $-1 -1 $-1 $330 $258 $385 $387 reversed $331 $-1 #
coedge $-1 -1 $-1 $258 $329 $284 $287 reversed $331 $-1 #
loop $-1 -1 $-1 $-1 $258 $388 #
coedge $-1 -1 $-1 $333 $260 $285 $216 forward $334 $-1 #
coedge $-1 -1 $-1 $260 $332 $384 $335 reversed $334 $-1 #
loop $-1 -1 $-1 $-1 $260 $389 #
edge $-1 -1 $-1 $262 -5.5591113924831459e-024 $299 6 $333 $390 forward @7 unknown #
point $-1 -1 $-1 5.5591113924831459e-024 -7 -6 #
edge $-1 -1 $-1 $263 5.5591113924831459e-024 $354 6 $381 $391 forward @7 unknown #
point $-1 -1 $-1 5.5591113924831459e-024 7 -6 #
coedge $-1 -1 $-1 $301 $265 $268 $342 reversed $340 $-1 #
loop $-1 -1 $-1 $-1 $265 $297 #
coedge $-1 -1 $-1 $268 $267 $348 $368 reversed $270 $-1 #
edge $-1 -1 $-1 $300 -6 $271 0 $268 $392 forward @7 unknown #
coedge $-1 -1 $-1 $393 $269 $378 $346 forward $318 $-1 #
coedge $-1 -1 $-1 $269 $393 $380 $277 reversed $318 $-1 #
face $-1 -1 $-1 $-1 $270 $17 $-1 $319 reversed single #
edge $-1 -1 $-1 $271 0 $394 6 $343 $392 forward @7 unknown #
point $-1 -1 $-1 6 -7 0 #
coedge $-1 -1 $-1 $273 $290 $341 $368 forward $187 $-1 #
vertex $-1 -1 $-1 $368 $395 #
straight-curve $-1 -1 $-1 0 7 6 -1 0 0 I I #
straight-curve $-1 -1 $-1 6 7 0 0 0 -1 I I #
face $-1 -1 $-1 $388 $283 $17 $-1 $353 reversed single #
plane-surface $-1 -1 $-1 0 7 0 0 -1 0 0 0 -1 forward_v I I I I #
vertex $-1 -1 $-1 $396 $397 #
vertex $-1 -1 $-1 $279 $398 #
coedge $-1 -1 $-1 $286 $294 $281 $357 forward $295 $-1 #
edge $-1 -1 $-1 $355 -6 $205 0 $281 $360 forward @7 unknown #
coedge $-1 -1 $-1 $285 $284 $399 $366 reversed $253 $-1 #
vertex $-1 -1 $-1 $387 $400 #
straight-curve $-1 -1 $-1 -6 7 0 0 0 -1 I I #
edge $-1 -1 $-1 $355 -7 $292 7 $294 $401 forward @7 unknown #
face $-1 -1 $-1 $364 $328 $17 $-1 $402 reversed single #
point $-1 -1 $-1 -6 -7 6 #
face $-1 -1 $-1 $345 $295 $17 $-1 $254 reversed single #
face $-1 -1 $-1 $403 $379 $17 $-1 $298 reversed single #
edge $-1 -1 $-1 $299 -7 $359 7 $358 $404 forward @7 unknown #
point $-1 -1 $-1 -6 -7 -6 #
edge $-1 -1 $-1 $300 -7 $349 7 $341 $405 forward @7 unknown #
point $-1 -1 $-1 6 -7 6 #
model_id-kcp-attrib $-1 -1 $-1 $-1 $303 1 1021561894 1021561894 -1373241343 10 #
face $406 -1 $-1 $407 $408 $7 $-1 $409 forward single #
loop $-1 -1 $-1 $-1 $410 $303 #
coedge $-1 -1 $-1 $411 $412 $413 $414 forward $304 $-1 #
coedge $-1 -1 $-1 $415 $415 $412 $416 forward $306 $-1 #
ellipse-curve $-1 -1 $-1 0 5 0 0 -1 0 -1 0 0 1 I I #
loop $-1 -1 $-1 $-1 $323 $317 #
coedge $-1 -1 $-1 $378 $321 $326 $383 reversed $379 $-1 #
coedge $-1 -1 $-1 $321 $377 $343 $346 reversed $379 $-1 #
loop $-1 -1 $-1 $-1 $321 $365 #
coedge $-1 -1 $-1 $381 $323 $344 $277 forward $376 $-1 #
coedge $-1 -1 $-1 $323 $380 $325 $337 reversed $376 $-1 #
coedge $-1 -1 $-1 $326 $325 $393 $396 forward $328 $-1 #
edge $-1 -1 $-1 $394 -6 $262 -5.5591113924831459e-024 $377 $390 forward @7 unknown #
coedge $-1 -1 $-1 $399 $327 $333 $335 forward $386 $-1 #
coedge $-1 -1 $-1 $327 $399 $329 $387 forward $386 $-1 #
loop $-1 -1 $-1 $-1 $327 $403 #
edge $-1 -1 $-1 $359 -6 $263 5.5591113924831459e-024 $329 $391 forward @7 unknown #
face $-1 -1 $-1 $389 $331 $17 $-1 $353 reversed single #
face $-1 -1 $-1 $215 $334 $17 $-1 $298 reversed single #
straight-curve $-1 -1 $-1 0 -7 -6 -1 0 0 I I #
straight-curve $-1 -1 $-1 0 7 -6 1 0 0 I I #
straight-curve $-1 -1 $-1 6 -7 0 0 0 -1 I I #
coedge $-1 -1 $-1 $344 $343 $382 $396 reversed $318 $-1 #
vertex $-1 -1 $-1 $346 $417 #
point $-1 -1 $-1 6 7 6 #
edge $-1 -1 $-1 $354 -7 $394 7 $393 $418 forward @7 unknown #
point $-1 -1 $-1 6 7 -6 #
point $-1 -1 $-1 -6 7 6 #
coedge $-1 -1 $-1 $385 $384 $358 $366 forward $386 $-1 #
point $-1 -1 $-1 -6 7 -6 #
straight-curve $-1 -1 $-1 -6 0 6 0 -1 0 I I #
plane-surface $-1 -1 $-1 0 0 -6 0 0 1 1 0 0 forward_v I I I I #
face $-1 -1 $-1 $291 $386 $17 $-1 $402 reversed single #
straight-curve $-1 -1 $-1 -6 0 -6 0 1 0 I I #
straight-curve $-1 -1 $-1 6 0 6 0 1 0 I I #
model_id-kcp-attrib $-1 -1 $-1 $-1 $371 1 1021561894 1021561894 -1373241343 11 #
face $419 -1 $-1 $420 $421 $7 $-1 $409 forward single #
loop $-1 -1 $-1 $-1 $422 $371 #
cone-surface $-1 -1 $-1 0 14.699999999999999 0 0 -1 0 -6 0 0 1 I I 0 1 6 forward I I I I #
coedge $-1 -1 $-1 $423 $424 $425 $426 forward $372 $-1 #
coedge $-1 -1 $-1 $425 $373 $427 $428 forward $304 $-1 #
coedge $-1 -1 $-1 $373 $425 $374 $416 reversed $304 $-1 #
coedge $-1 -1 $-1 $424 $423 $373 $414 reversed $372 $-1 #
edge $-1 -1 $-1 $429 2.4987419533458318e-013 $430 1.5707963267952958 $413 $431 forward @7 unknown #
coedge $-1 -1 $-1 $374 $374 $424 $432 forward $306 $-1 #
edge $-1 -1 $-1 $429 -1.5707963267947733 $433 1.5707963267946354 $374 $434 reversed @7 unknown #
point $-1 -1 $-1 6 -7 -6 #
straight-curve $-1 -1 $-1 6 0 -6 0 -1 0 I I #
model_id-kcp-attrib $-1 -1 $-1 $-1 $407 1 1021561894 1021561894 -1373241343 12 #
face $435 -1 $-1 $436 $437 $7 $-1 $438 forward single #
loop $-1 -1 $-1 $-1 $439 $407 #
coedge $-1 -1 $-1 $440 $441 $442 $443 forward $408 $-1 #
coedge $-1 -1 $-1 $413 $410 $440 $444 forward $372 $-1 #
coedge $-1 -1 $-1 $410 $413 $415 $432 reversed $372 $-1 #
coedge $-1 -1 $-1 $412 $411 $410 $426 reversed $304 $-1 #
edge $-1 -1 $-1 $433 -5.2844557058240517e-029 $445 1.5707963267952947 $410 $446 forward @7 unknown #
coedge $-1 -1 $-1 $442 $439 $411 $428 reversed $421 $-1 #
edge $-1 -1 $-1 $430 -3.1415926535897931 $445 -2.4492127076447545e-016 $427 $447 reversed @7 unknown #
vertex $-1 -1 $-1 $432 $448 #
vertex $-1 -1 $-1 $444 $449 #
ellipse-curve $-1 -1 $-1 5.25 4.25 2.5897091149903396e-011 2.7636901851953921e-011 -3.2700723255939994e-011 -1 -2.993161274389422e-013 0.75 -2.4525542441963267e-011 1 I I #
edge $-1 -1 $-1 $433 -4.7123889803849508 $429 -1.5707963267947733 $415 $450 reversed @7 unknown #
vertex $-1 -1 $-1 $432 $451 #
ellipse-curve $-1 -1 $-1 0 5 0 0 -1 0 0 0 -5.25 1 I I #
model_id-kcp-attrib $-1 -1 $-1 $-1 $420 1 1021561894 1021561894 -1373241343 13 #
face $452 -1 $-1 $453 $454 $7 $-1 $438 forward single #
loop $-1 -1 $-1 $-1 $455 $420 #
torus-surface $-1 -1 $-1 0 0.75 0 0 -1 0 5.25 0.75 0.99998530628998583 0 0.0054209965987266698 forward_v I I I I #
coedge $-1 -1 $-1 $427 $456 $457 $458 forward $421 $-1 #
coedge $-1 -1 $-1 $457 $422 $423 $444 reversed $408 $-1 #
coedge $-1 -1 $-1 $422 $457 $459 $460 forward $408 $-1 #
coedge $-1 -1 $-1 $456 $427 $422 $443 reversed $421 $-1 #
edge $-1 -1 $-1 $461 0 $430 3.5 $422 $462 forward @7 unknown #
edge $-1 -1 $-1 $445 -2.4492127076447545e-016 $430 3.1415926535897931 $440 $463 reversed @7 unknown #
vertex $-1 -1 $-1 $458 $464 #
ellipse-curve $-1 -1 $-1 -5.25 4.25 -2.5896228125528283e-011 -2.7637693050331808e-011 -3.2699887119963523e-011 1 2.9842794901924208e-013 0.75 2.4524915339980887e-011 1 I I #
ellipse-curve $-1 -1 $-1 0 4.25 0 0 -1 0 -6 0 0 1 I I #
point $-1 -1 $-1 5.2499999999998881 5 -6.4709348990275866e-013 #
point $-1 -1 $-1 6 4.25 7.3476381229342635e-016 #
ellipse-curve $-1 -1 $-1 0 5 0 0 -1 0 0 0 -5.25 1 I I #
point $-1 -1 $-1 -5.2499999999997016 5 -1.3713127855473959e-012 #
model_id-kcp-attrib $-1 -1 $-1 $-1 $436 1 1021561894 1021561894 -1373241343 14 #
face $465 -1 $-1 $-1 $466 $7 $-1 $467 forward single #
loop $-1 -1 $-1 $-1 $468 $436 #
coedge $-1 -1 $-1 $469 $470 $471 $472 forward $437 $-1 #
coedge $-1 -1 $-1 $439 $442 $470 $473 forward $421 $-1 #
coedge $-1 -1 $-1 $441 $440 $439 $458 reversed $408 $-1 #
edge $-1 -1 $-1 $474 0 $445 3.5 $457 $475 forward @7 unknown #
coedge $-1 -1 $-1 $468 $471 $441 $460 reversed $454 $-1 #
edge $-1 -1 $-1 $474 -3.309414250577245e-012 $461 3.1415926535936216 $441 $476 reversed @7 unknown #
vertex $-1 -1 $-1 $460 $477 #
straight-curve $-1 -1 $-1 6 0.75 7.3476381229342635e-016 0 1 0 I I #
ellipse-curve $-1 -1 $-1 0 4.25 0 0 -1 0 -6 0 0 1 I I #
point $-1 -1 $-1 -6 4.25 -1.4695276245868527e-015 #
model_id-kcp-attrib $-1 -1 $-1 $-1 $453 1 1021561894 1021561894 -1373241343 15 #
loop $-1 -1 $-1 $-1 $478 $453 #
plane-surface $-1 -1 $-1 0 0 0 0 -1 0 -1 0 0 forward_v I I I I #
coedge $-1 -1 $-1 $479 $459 $480 $481 forward $454 $-1 #
coedge $-1 -1 $-1 $480 $455 $478 $482 forward $437 $-1 #
coedge $-1 -1 $-1 $455 $480 $456 $473 reversed $437 $-1 #
coedge $-1 -1 $-1 $459 $479 $455 $472 reversed $454 $-1 #
edge $-1 -1 $-1 $461 1.8624398326305698e-019 $483 1.5707963267948981 $471 $484 forward @7 unknown #
edge $-1 -1 $-1 $461 -3.1415926535859646 $474 -3.309414250577245e-012 $456 $485 reversed @7 unknown #
vertex $-1 -1 $-1 $460 $486 #
straight-curve $-1 -1 $-1 -6 0.75 -1.4695276245868527e-015 0 1 0 I I #
ellipse-curve $-1 -1 $-1 0 0.75 0 0 -1 0 -6 0 0 1 I I #
point $-1 -1 $-1 5.9999999999999982 0.75 -2.2972524676185508e-011 #
coedge $-1 -1 $-1 $487 $487 $469 $482 reversed $466 $-1 #
coedge $-1 -1 $-1 $471 $468 $487 $488 forward $454 $-1 #
coedge $-1 -1 $-1 $470 $469 $468 $481 reversed $437 $-1 #
edge $-1 -1 $-1 $474 -9.1759862239249202e-032 $489 1.5707963267948952 $468 $490 forward @7 unknown #
edge $-1 -1 $-1 $483 -1.5707963267948979 $489 1.5707963267948966 $478 $491 reversed @7 unknown #
vertex $-1 -1 $-1 $488 $492 #
ellipse-curve $-1 -1 $-1 5.2499999999999982 0.75000000000000067 2.446037306279501e-009 -3.2349072640777367e-009 3.2613822099905646e-009 -1 0.75000000000000089 -6.6613381477509392e-016 -2.4261804480583078e-009 1 I I #
ellipse-curve $-1 -1 $-1 0 0.75 0 0 -1 0 -6 0 0 1 I I #
point $-1 -1 $-1 -5.9999999999999991 0.75 -1.9856485503463464e-011 #
coedge $-1 -1 $-1 $478 $478 $479 $488 reversed $466 $-1 #
edge $-1 -1 $-1 $489 -4.7123889803846897 $483 -1.5707963267948979 $487 $493 reversed @7 unknown #
vertex $-1 -1 $-1 $488 $494 #
ellipse-curve $-1 -1 $-1 -5.2499999999999973 0.750000000000002 -2.4460361224973051e-009 3.2349061826584388e-009 3.2613810664516447e-009 1 -0.75000000000000178 -1.9984014443252818e-015 2.4261796369938416e-009 1 I I #
ellipse-curve $-1 -1 $-1 0 0 0 0 -1 0 0 0 -5.25 1 I I #
point $-1 -1 $-1 5.2499999999999964 0 5.6274429560687598e-015 #
ellipse-curve $-1 -1 $-1 0 0 0 0 -1 0 0 0 -5.25 1 I I #
point $-1 -1 $-1 -5.2499999999999964 0 -3.2265856653168602e-016 #
End-of-ACIS-data 