600 0 1 0           
91 GICL ACIS Healer - Source: /gicl/data5/repository/PTC/V18/bboxrev2/boombox/damper.sat - 6 0 18 ACIS 6.0.3 Solaris 24 Sat Apr 13 22:37:27 2002 
1 9.999999999999999547e-07 1.000000000000000036e-10 
body $-1 $1 $-1 $-1 #
lump $-1 $-1 $2 $0 #
shell $-1 $-1 $-1 $3 $-1 $1 #
face $-1 $4 $5 $2 $-1 $6 forward single #
face $-1 $7 $8 $2 $-1 $9 forward single #
loop $-1 $10 $11 $3 #
plane-surface $-1 0 13 0 0 -1 0 -1 0 0 forward_v I I I I #
face $-1 $12 $13 $2 $-1 $9 forward single #
loop $-1 $-1 $14 $4 #
cone-surface $-1 0 14.69999999999999929 0 0 -1 0 -2.359999999999999876 0 0 1 I I 0 1 2.359999999999999876 forward I I I I #
loop $-1 $-1 $15 $3 #
coedge $-1 $16 $16 $14 $17 reversed $5 $-1 #
face $-1 $18 $19 $2 $-1 $20 reversed single #
loop $-1 $-1 $21 $7 #
coedge $-1 $22 $23 $11 $17 forward $8 $-1 #
coedge $-1 $24 $24 $25 $26 reversed $10 $-1 #
coedge $-1 $11 $11 $27 $28 forward $5 $-1 #
edge $-1 $29 -3.141592653589793116 $30 -0 $11 $31 reversed 7 unknown #
face $-1 $32 $33 $2 $-1 $34 forward single #
loop $-1 $-1 $35 $12 #
plane-surface $-1 0 14 0 0 -1 0 -1 0 0 forward_v I I I I #
coedge $-1 $36 $37 $35 $38 forward $13 $-1 #
coedge $-1 $39 $14 $36 $40 forward $8 $-1 #
coedge $-1 $14 $39 $37 $41 reversed $8 $-1 #
coedge $-1 $15 $15 $42 $43 forward $10 $-1 #
coedge $-1 $44 $45 $15 $26 forward $33 $-1 #
edge $-1 $46 -3.141592653589793116 $47 0 $15 $48 forward 7 unknown #
coedge $-1 $37 $36 $16 $28 reversed $13 $-1 #
edge $-1 $29 -3.141592653589793116 $30 0 $16 $49 forward 7 unknown #
vertex $-1 $28 $50 #
vertex $-1 $28 $51 #
ellipse-curve $-1 0 13 0 0 -1 0 -2.359999999999999876 0 0 1 I I #
face $-1 $52 $53 $2 $-1 $34 forward single #
loop $-1 $-1 $25 $18 #
cone-surface $-1 0 14.69999999999999929 0 0 -1 0 -1 0 0 1 I I 0 1 1 forward I I I I #
coedge $-1 $54 $54 $21 $38 reversed $19 $-1 #
coedge $-1 $27 $21 $22 $40 reversed $13 $-1 #
coedge $-1 $21 $27 $23 $41 forward $13 $-1 #
edge $-1 $55 -3.141592653589793116 $56 -0 $21 $57 reversed 7 unknown #
coedge $-1 $23 $22 $54 $58 reversed $8 $-1 #
edge $-1 $30 0 $56 1 $36 $59 forward 7 unknown #
edge $-1 $29 0 $55 1 $37 $60 forward 7 unknown #
coedge $-1 $61 $62 $24 $43 reversed $53 $-1 #
edge $-1 $46 -3.141592653589793116 $47 -0 $24 $63 reversed 7 unknown #
coedge $-1 $64 $25 $62 $65 reversed $33 $-1 #
coedge $-1 $25 $64 $61 $66 forward $33 $-1 #
vertex $-1 $43 $67 #
vertex $-1 $43 $68 #
ellipse-curve $-1 0 13 0 0 -1 0 -1 0 0 1 I I #
ellipse-curve $-1 0 13 0 0 -1 0 -2.359999999999999876 0 0 1 I I #
point $-1 2.359999999999999876 13 2.890070995020810211e-16 #
point $-1 -2.359999999999999876 13 0 #
face $-1 $69 $70 $2 $-1 $71 reversed single #
loop $-1 $-1 $72 $32 #
coedge $-1 $35 $35 $39 $58 forward $19 $-1 #
vertex $-1 $41 $73 #
vertex $-1 $40 $74 #
ellipse-curve $-1 0 14 0 -0 1 -0 -2.359999999999999876 0 0 1 I I #
edge $-1 $55 -3.141592653589793116 $56 -0 $54 $75 reversed 7 unknown #
straight-curve $-1 -2.359999999999999876 13 -5.780141990041620422e-16 0 1 0 I I #
straight-curve $-1 2.359999999999999876 13 2.890070995020810211e-16 0 1 0 I I #
coedge $-1 $72 $42 $45 $66 reversed $53 $-1 #
coedge $-1 $42 $72 $44 $65 forward $53 $-1 #
ellipse-curve $-1 0 13 0 0 -1 0 -1 0 0 1 I I #
coedge $-1 $45 $44 $76 $77 reversed $33 $-1 #
edge $-1 $78 0 $47 8 $44 $79 forward 7 unknown #
edge $-1 $80 0 $46 8 $45 $81 forward 7 unknown #
point $-1 1 13 1.224606353822377258e-16 #
point $-1 -1 13 0 #
face $-1 $82 $83 $2 $-1 $84 forward single #
loop $-1 $85 $76 $52 #
plane-surface $-1 0 5 0 0 -1 0 -1 0 0 forward_v I I I I #
coedge $-1 $62 $61 $86 $87 forward $53 $-1 #
point $-1 2.359999999999999876 14 2.890070995020810211e-16 #
point $-1 -2.359999999999999876 14 0 #
ellipse-curve $-1 0 14 0 0 -1 0 -2.359999999999999876 0 0 1 I I #
coedge $-1 $86 $86 $64 $77 forward $70 $-1 #
edge $-1 $80 -3.141592653589793116 $78 2.449212707644754516e-16 $76 $88 forward 7 unknown #
vertex $-1 $87 $89 #
straight-curve $-1 -1 5 -2.449212707644754516e-16 0 1 0 I I #
vertex $-1 $87 $90 #
straight-curve $-1 1 5 1.224606353822377258e-16 0 1 0 I I #
face $-1 $91 $92 $2 $-1 $84 forward single #
loop $-1 $-1 $93 $69 #
torus-surface $-1 0 4.25 0 0 -1 0 5.25 0.75 0.9999679281339213244 0 0.00800891400582915032 forward_v I I I I #
loop $-1 $-1 $94 $52 #
coedge $-1 $76 $76 $72 $87 reversed $70 $-1 #
edge $-1 $80 -3.141592653589793116 $78 -2.449212707644754516e-16 $86 $95 reversed 7 unknown #
ellipse-curve $-1 0 5 0 0 -1 0 -1 0 0 1 I I #
point $-1 -1 5 -2.449212707644754516e-16 #
point $-1 1 5 1.224606353822377258e-16 #
face $-1 $96 $97 $2 $-1 $98 forward single #
loop $-1 $-1 $99 $82 #
coedge $-1 $100 $101 $102 $103 forward $83 $-1 #
coedge $-1 $104 $104 $101 $105 forward $85 $-1 #
ellipse-curve $-1 0 5 0 0 -1 0 -1 0 0 1 I I #
face $-1 $106 $107 $2 $-1 $98 forward single #
loop $-1 $-1 $108 $91 #
cone-surface $-1 0 14.69999999999999929 0 0 -1 0 -6 0 0 1 I I 0 1 6 forward I I I I #
coedge $-1 $109 $110 $111 $112 forward $92 $-1 #
coedge $-1 $111 $93 $113 $114 forward $83 $-1 #
coedge $-1 $93 $111 $94 $105 reversed $83 $-1 #
coedge $-1 $110 $109 $93 $103 reversed $92 $-1 #
edge $-1 $115 2.498741953345831808e-13 $116 1.570796326795295794 $102 $117 forward 7 unknown #
coedge $-1 $94 $94 $110 $118 forward $85 $-1 #
edge $-1 $115 -1.570796326794773323 $119 1.570796326794635434 $94 $120 reversed 7 unknown #
face $-1 $121 $122 $2 $-1 $123 forward single #
loop $-1 $-1 $124 $96 #
coedge $-1 $125 $126 $127 $128 forward $97 $-1 #
coedge $-1 $102 $99 $125 $129 forward $92 $-1 #
coedge $-1 $99 $102 $104 $118 reversed $92 $-1 #
coedge $-1 $101 $100 $99 $112 reversed $83 $-1 #
edge $-1 $119 -5.284455705824051652e-29 $130 1.570796326795294684 $99 $131 forward 7 unknown #
coedge $-1 $127 $124 $100 $114 reversed $107 $-1 #
edge $-1 $116 -3.141592653589793116 $130 -2.449212707644754516e-16 $113 $132 reversed 7 unknown #
vertex $-1 $118 $133 #
vertex $-1 $129 $134 #
ellipse-curve $-1 5.25 4.25 2.58970911499033961e-11 2.763690185195392113e-11 -3.270072325593999356e-11 -1 -2.993161274389422033e-13 0.75 -2.452554244196326698e-11 1 I I #
edge $-1 $119 -4.712388980384950798 $115 -1.570796326794773323 $104 $135 reversed 7 unknown #
vertex $-1 $118 $136 #
ellipse-curve $-1 0 5 0 0 -1 0 0 0 -5.25 1 I I #
face $-1 $137 $138 $2 $-1 $123 forward single #
loop $-1 $-1 $139 $106 #
torus-surface $-1 0 0.75 0 0 -1 0 5.25 0.75 0.9999853062899858314 0 0.00542099659872666978 forward_v I I I I #
coedge $-1 $113 $140 $141 $142 forward $107 $-1 #
coedge $-1 $141 $108 $109 $129 reversed $97 $-1 #
coedge $-1 $108 $141 $143 $144 forward $97 $-1 #
coedge $-1 $140 $113 $108 $128 reversed $107 $-1 #
edge $-1 $145 0 $116 3.5 $108 $146 forward 7 unknown #
edge $-1 $130 -2.449212707644754516e-16 $116 3.141592653589793116 $125 $147 reversed 7 unknown #
vertex $-1 $142 $148 #
ellipse-curve $-1 -5.25 4.25 -2.589622812552828279e-11 -2.763769305033180816e-11 -3.269988711996352291e-11 1 2.984279490192420781e-13 0.75 2.452491533998088652e-11 1 I I #
ellipse-curve $-1 0 4.25 0 0 -1 0 -6 0 0 1 I I #
point $-1 5.24999999999988809 5 -6.470934899027586561e-13 #
point $-1 6 4.25 7.347638122934263549e-16 #
ellipse-curve $-1 0 5 0 0 -1 0 0 0 -5.25 1 I I #
point $-1 -5.249999999999701572 5 -1.371312785547395871e-12 #
face $-1 $-1 $149 $2 $-1 $150 forward single #
loop $-1 $-1 $151 $121 #
coedge $-1 $152 $153 $154 $155 forward $122 $-1 #
coedge $-1 $124 $127 $153 $156 forward $107 $-1 #
coedge $-1 $126 $125 $124 $142 reversed $97 $-1 #
edge $-1 $157 0 $130 3.5 $141 $158 forward 7 unknown #
coedge $-1 $151 $154 $126 $144 reversed $138 $-1 #
edge $-1 $157 -3.309414250577245003e-12 $145 3.141592653593621609 $126 $159 reversed 7 unknown #
vertex $-1 $144 $160 #
straight-curve $-1 6 0.75 7.347638122934263549e-16 0 1 0 I I #
ellipse-curve $-1 0 4.25 0 0 -1 0 -6 0 0 1 I I #
point $-1 -6 4.25 -1.46952762458685271e-15 #
loop $-1 $-1 $161 $137 #
plane-surface $-1 0 0 0 0 -1 0 -1 0 0 forward_v I I I I #
coedge $-1 $162 $143 $163 $164 forward $138 $-1 #
coedge $-1 $163 $139 $161 $165 forward $122 $-1 #
coedge $-1 $139 $163 $140 $156 reversed $122 $-1 #
coedge $-1 $143 $162 $139 $155 reversed $138 $-1 #
edge $-1 $145 1.862439832630569756e-19 $166 1.570796326794898112 $154 $167 forward 7 unknown #
edge $-1 $145 -3.141592653585964623 $157 -3.309414250577245003e-12 $140 $168 reversed 7 unknown #
vertex $-1 $144 $169 #
straight-curve $-1 -6 0.75 -1.46952762458685271e-15 0 1 0 I I #
ellipse-curve $-1 0 0.75 0 0 -1 0 -6 0 0 1 I I #
point $-1 5.999999999999998224 0.75 -2.297252467618550836e-11 #
coedge $-1 $170 $170 $152 $165 reversed $149 $-1 #
coedge $-1 $154 $151 $170 $171 forward $138 $-1 #
coedge $-1 $153 $152 $151 $164 reversed $122 $-1 #
edge $-1 $157 -9.175986223924920161e-32 $172 1.570796326794895226 $151 $173 forward 7 unknown #
edge $-1 $166 -1.57079632679489789 $172 1.570796326794896558 $161 $174 reversed 7 unknown #
vertex $-1 $171 $175 #
ellipse-curve $-1 5.249999999999998224 0.7500000000000006661 2.446037306279501016e-09 -3.234907264077736699e-09 3.261382209990564643e-09 -1 0.7500000000000008882 -6.661338147750939243e-16 -2.426180448058307797e-09 1 I I #
ellipse-curve $-1 0 0.75 0 0 -1 0 -6 0 0 1 I I #
point $-1 -5.999999999999999112 0.75 -1.985648550346346356e-11 #
coedge $-1 $161 $161 $162 $171 reversed $149 $-1 #
edge $-1 $172 -4.712388980384689674 $166 -1.57079632679489789 $170 $176 reversed 7 unknown #
vertex $-1 $171 $177 #
ellipse-curve $-1 -5.249999999999997335 0.7500000000000019984 -2.446036122497305053e-09 3.234906182658438849e-09 3.261381066451644745e-09 1 -0.7500000000000017764 -1.998401444325281773e-15 2.426179636993841648e-09 1 I I #
ellipse-curve $-1 0 0 0 0 -1 0 0 0 -5.25 1 I I #
point $-1 5.249999999999996447 0 5.627442956068759848e-15 #
ellipse-curve $-1 0 0 0 0 -1 0 0 0 -5.25 1 I I #
point $-1 -5.249999999999996447 0 -3.22658566531686021e-16 #
End-of-ACIS-data 