600 0 1 0           
100 GICL ACIS Healer - Source: /gicl/data5/repository/PTC/V18/bboxrev2/boombox/eq_switch2_.prt.sat - 6 0 18 ACIS 6.0.3 Solaris 24 Sat Apr 13 22:53:16 2002 
1 9.999999999999999547e-07 1.000000000000000036e-10 
body $-1 $1 $-1 $-1 #
lump $-1 $-1 $2 $0 #
shell $-1 $-1 $-1 $3 $-1 $1 #
face $-1 $4 $5 $2 $-1 $6 reversed single #
face $-1 $7 $8 $2 $-1 $9 forward single #
loop $-1 $-1 $10 $3 #
plane-surface $-1 -15 0 0 1 0 0 0 0 -1 forward_v I I I I #
face $-1 $11 $12 $2 $-1 $13 forward single #
loop $-1 $-1 $14 $4 #
plane-surface $-1 -15 10 7 0 0 1 0 -1 0 forward_v I I I I #
coedge $-1 $15 $16 $17 $18 reversed $5 $-1 #
face $-1 $19 $20 $2 $-1 $21 forward single #
loop $-1 $-1 $22 $7 #
plane-surface $-1 -15 0 7 0 -1 0 0 0 -1 forward_v I I I I #
coedge $-1 $23 $17 $24 $25 forward $8 $-1 #
coedge $-1 $26 $10 $27 $28 reversed $5 $-1 #
coedge $-1 $10 $29 $30 $31 reversed $5 $-1 #
coedge $-1 $14 $32 $10 $18 forward $8 $-1 #
edge $-1 $33 0 $34 10 $10 $35 forward 7 unknown #
face $-1 $36 $37 $2 $-1 $38 forward single #
loop $-1 $-1 $39 $11 #
plane-surface $-1 -15 0 -7 0 0 -1 0 1 0 forward_v I I I I #
coedge $-1 $40 $30 $41 $42 forward $12 $-1 #
coedge $-1 $32 $14 $43 $44 reversed $8 $-1 #
coedge $-1 $30 $40 $14 $25 reversed $12 $-1 #
edge $-1 $34 0 $45 30 $24 $46 forward 7 unknown #
coedge $-1 $47 $15 $48 $49 reversed $5 $-1 #
coedge $-1 $50 $51 $15 $28 forward $52 $-1 #
edge $-1 $53 0 $33 5 $15 $54 forward 7 unknown #
coedge $-1 $16 $55 $56 $57 reversed $5 $-1 #
coedge $-1 $22 $24 $16 $31 forward $12 $-1 #
edge $-1 $34 0 $58 14 $16 $59 forward 7 unknown #
coedge $-1 $17 $23 $50 $60 reversed $8 $-1 #
vertex $-1 $28 $61 #
vertex $-1 $31 $62 #
straight-curve $-1 -15 10 7 0 -1 0 I I #
face $-1 $63 $64 $2 $-1 $65 forward single #
loop $-1 $-1 $66 $19 #
plane-surface $-1 -15 10 -7 0 1 0 0 0 1 forward_v I I I I #
coedge $-1 $67 $56 $68 $69 forward $20 $-1 #
coedge $-1 $24 $22 $70 $71 reversed $12 $-1 #
coedge $-1 $56 $67 $22 $42 reversed $20 $-1 #
edge $-1 $58 0 $72 30 $22 $73 forward 7 unknown #
coedge $-1 $70 $74 $23 $44 forward $75 $-1 #
edge $-1 $76 0 $45 10 $43 $77 forward 7 unknown #
vertex $-1 $71 $78 #
straight-curve $-1 -15 0 7 1 0 0 I I #
coedge $-1 $79 $26 $80 $81 reversed $5 $-1 #
coedge $-1 $82 $83 $26 $49 forward $84 $-1 #
edge $-1 $85 0 $53 3 $26 $86 forward 7 unknown #
coedge $-1 $87 $27 $32 $60 forward $52 $-1 #
coedge $-1 $27 $87 $82 $88 reversed $52 $-1 #
loop $-1 $-1 $50 $89 #
vertex $-1 $49 $90 #
straight-curve $-1 -15 10 2 0 0 1 I I #
coedge $-1 $29 $91 $92 $93 reversed $5 $-1 #
coedge $-1 $39 $41 $29 $57 forward $20 $-1 #
edge $-1 $58 0 $94 10 $29 $95 forward 7 unknown #
vertex $-1 $31 $96 #
straight-curve $-1 -15 0 7 0 0 -1 I I #
edge $-1 $33 0 $76 30 $50 $97 forward 7 unknown #
point $-1 -15 10 7 #
point $-1 -15 0 7 #
face $-1 $98 $99 $2 $-1 $100 forward single #
loop $-1 $-1 $101 $36 #
plane-surface $-1 -15 10 -2 0 0 -1 0 1 0 forward_v I I I I #
coedge $-1 $102 $92 $103 $104 forward $37 $-1 #
coedge $-1 $41 $39 $105 $106 reversed $20 $-1 #
coedge $-1 $92 $102 $39 $69 reversed $37 $-1 #
edge $-1 $94 0 $107 30 $39 $108 forward 7 unknown #
coedge $-1 $105 $43 $40 $71 forward $75 $-1 #
edge $-1 $45 0 $72 14 $70 $109 forward 7 unknown #
vertex $-1 $71 $110 #
straight-curve $-1 -15 0 -7 1 0 0 I I #
coedge $-1 $43 $111 $87 $112 forward $75 $-1 #
loop $-1 $-1 $105 $113 #
vertex $-1 $44 $114 #
straight-curve $-1 15 10 7 0 -1 0 I I #
point $-1 15 0 7 #
coedge $-1 $115 $47 $116 $117 reversed $5 $-1 #
coedge $-1 $118 $119 $47 $81 forward $120 $-1 #
edge $-1 $121 0 $85 2 $47 $122 forward 7 unknown #
coedge $-1 $123 $48 $51 $88 forward $84 $-1 #
coedge $-1 $48 $124 $118 $125 reversed $84 $-1 #
loop $-1 $-1 $124 $126 #
vertex $-1 $81 $127 #
straight-curve $-1 -15 13 2 0 -1 0 I I #
coedge $-1 $51 $50 $74 $112 reversed $52 $-1 #
edge $-1 $53 0 $128 30 $82 $129 forward 7 unknown #
face $-1 $113 $52 $2 $-1 $130 forward single #
point $-1 -15 10 2 #
coedge $-1 $55 $131 $132 $133 reversed $5 $-1 #
coedge $-1 $66 $68 $55 $93 forward $37 $-1 #
edge $-1 $94 0 $134 5 $55 $135 forward 7 unknown #
vertex $-1 $57 $136 #
straight-curve $-1 -15 0 -7 0 1 0 I I #
point $-1 -15 0 -7 #
straight-curve $-1 -15 10 7 1 0 0 I I #
face $-1 $137 $138 $2 $-1 $139 forward single #
loop $-1 $-1 $140 $63 #
plane-surface $-1 2.5 0 0 1 0 0 0 0 -1 forward_v I I I I #
coedge $-1 $141 $142 $143 $144 forward $64 $-1 #
coedge $-1 $68 $66 $145 $146 reversed $37 $-1 #
coedge $-1 $132 $147 $66 $104 reversed $64 $-1 #
edge $-1 $134 0 $148 30 $66 $149 forward 7 unknown #
coedge $-1 $145 $70 $67 $106 forward $75 $-1 #
edge $-1 $72 0 $107 10 $105 $150 forward 7 unknown #
vertex $-1 $146 $151 #
straight-curve $-1 -15 10 -7 1 0 0 I I #
straight-curve $-1 15 0 7 0 0 -1 I I #
point $-1 15 0 -7 #
coedge $-1 $74 $152 $123 $153 forward $75 $-1 #
edge $-1 $128 0 $76 5 $74 $154 forward 7 unknown #
face $-1 $155 $75 $2 $-1 $156 forward single #
point $-1 15 10 7 #
coedge $-1 $157 $79 $158 $159 reversed $5 $-1 #
coedge $-1 $160 $161 $79 $117 forward $162 $-1 #
edge $-1 $163 0 $121 2 $79 $164 forward 7 unknown #
coedge $-1 $165 $80 $83 $125 forward $120 $-1 #
coedge $-1 $80 $165 $160 $166 reversed $120 $-1 #
loop $-1 $-1 $119 $167 #
vertex $-1 $117 $168 #
straight-curve $-1 -15 13 4 0 0 -1 I I #
coedge $-1 $169 $82 $111 $153 reversed $84 $-1 #
coedge $-1 $83 $170 $171 $172 reversed $84 $-1 #
edge $-1 $85 0 $173 12.5 $118 $174 forward 7 unknown #
face $-1 $89 $84 $2 $-1 $175 forward single #
point $-1 -15 13 2 #
vertex $-1 $112 $176 #
straight-curve $-1 -15 10 2 1 0 0 I I #
plane-surface $-1 -15 10 2 0 1 0 0 0 1 forward_v I I I I #
coedge $-1 $91 $157 $177 $178 reversed $5 $-1 #
coedge $-1 $179 $103 $91 $133 forward $64 $-1 #
edge $-1 $134 0 $180 3 $91 $181 forward 7 unknown #
vertex $-1 $93 $182 #
straight-curve $-1 -15 10 -7 0 0 1 I I #
point $-1 -15 10 -7 #
face $-1 $183 $184 $2 $-1 $185 reversed single #
loop $-1 $-1 $186 $98 #
plane-surface $-1 -2.5 35 0.625 0 0.03123475237772121299 0.9995120760870788157 0 -0.9995120760870788157 0.03123475237772121299 forward_v I I I I #
coedge $-1 $187 $188 $189 $190 forward $99 $-1 #
coedge $-1 $147 $101 $191 $192 forward $64 $-1 #
coedge $-1 $101 $193 $194 $195 forward $64 $-1 #
coedge $-1 $196 $197 $101 $144 reversed $99 $-1 #
edge $-1 $198 0 $199 2 $101 $200 forward 7 unknown #
coedge $-1 $201 $105 $102 $146 forward $75 $-1 #
edge $-1 $107 0 $148 5 $145 $202 forward 7 unknown #
coedge $-1 $103 $141 $201 $203 reversed $64 $-1 #
vertex $-1 $203 $204 #
straight-curve $-1 -15 10 -2 1 0 0 I I #
straight-curve $-1 15 0 -7 0 1 0 I I #
point $-1 15 10 -7 #
coedge $-1 $111 $205 $206 $207 forward $75 $-1 #
edge $-1 $208 0 $128 3 $111 $209 forward 7 unknown #
straight-curve $-1 15 10 2 0 0 1 I I #
face $-1 $210 $211 $2 $-1 $212 forward single #
plane-surface $-1 15 0 0 1 0 0 0 0 -1 forward_v I I I I #
coedge $-1 $131 $115 $213 $214 reversed $5 $-1 #
coedge $-1 $215 $216 $115 $159 forward $217 $-1 #
edge $-1 $218 0 $163 8 $115 $219 forward 7 unknown #
coedge $-1 $220 $116 $119 $166 forward $162 $-1 #
coedge $-1 $116 $220 $215 $221 reversed $162 $-1 #
loop $-1 $-1 $161 $222 #
vertex $-1 $159 $223 #
straight-curve $-1 -15 15 4 0 -1 0 I I #
coedge $-1 $119 $118 $224 $225 reversed $120 $-1 #
edge $-1 $121 0 $226 12.5 $160 $227 forward 7 unknown #
face $-1 $126 $120 $2 $-1 $228 forward single #
point $-1 -15 13 4 #
coedge $-1 $229 $123 $230 $231 reversed $84 $-1 #
coedge $-1 $124 $229 $232 $233 reversed $84 $-1 #
coedge $-1 $234 $224 $124 $172 forward $184 $-1 #
edge $-1 $173 0 $235 2 $124 $236 forward 7 unknown #
vertex $-1 $225 $237 #
straight-curve $-1 -15 13 2 1 0 0 I I #
plane-surface $-1 -15 13 2 0 0 1 0 -1 0 forward_v I I I I #
point $-1 15 10 2 #
coedge $-1 $238 $239 $131 $178 forward $240 $-1 #
edge $-1 $180 0 $241 2 $131 $242 forward 7 unknown #
coedge $-1 $193 $132 $239 $243 forward $64 $-1 #
vertex $-1 $133 $244 #
straight-curve $-1 -15 10 -2 0 1 0 I I #
point $-1 -15 10 -2 #
face $-1 $245 $246 $2 $-1 $247 forward single #
loop $-1 $-1 $248 $137 #
plane-surface $-1 -2.5 0 0 1 0 0 0 0 -1 forward_v I I I I #
coedge $-1 $249 $250 $251 $252 forward $138 $-1 #
coedge $-1 $253 $140 $254 $255 forward $99 $-1 #
coedge $-1 $140 $256 $257 $258 forward $99 $-1 #
coedge $-1 $250 $249 $140 $190 reversed $138 $-1 #
edge $-1 $259 0 $260 6.661562730931549048 $140 $261 forward 7 unknown #
coedge $-1 $262 $263 $141 $192 reversed $211 $-1 #
edge $-1 $199 0 $264 12.5 $141 $265 forward 7 unknown #
coedge $-1 $142 $179 $266 $267 reversed $64 $-1 #
coedge $-1 $268 $269 $142 $195 reversed $270 $-1 #
edge $-1 $271 0 $198 5 $142 $272 forward 7 unknown #
coedge $-1 $273 $143 $269 $274 forward $99 $-1 #
coedge $-1 $143 $275 $262 $276 reversed $99 $-1 #
vertex $-1 $195 $277 #
vertex $-1 $192 $278 #
straight-curve $-1 2.5 11 -2 0 1 0 I I #
coedge $-1 $279 $145 $147 $203 forward $75 $-1 #
straight-curve $-1 15 10 -7 0 0 1 I I #
edge $-1 $148 0 $264 3 $201 $280 forward 7 unknown #
point $-1 15 10 -2 #
coedge $-1 $152 $281 $282 $283 forward $75 $-1 #
coedge $-1 $284 $230 $152 $207 reversed $285 $-1 #
edge $-1 $286 0 $208 2 $152 $287 forward 7 unknown #
vertex $-1 $153 $288 #
straight-curve $-1 15 13 2 0 -1 0 I I #
face $-1 $289 $290 $2 $-1 $291 forward single #
loop $-1 $-1 $292 $155 #
plane-surface $-1 -15 13 -2 0 -1 0 0 0 -1 forward_v I I I I #
coedge $-1 $293 $294 $157 $214 forward $295 $-1 #
edge $-1 $241 0 $218 2 $157 $296 forward 7 unknown #
coedge $-1 $297 $158 $161 $221 forward $217 $-1 #
coedge $-1 $158 $297 $293 $298 reversed $217 $-1 #
loop $-1 $-1 $216 $299 #
vertex $-1 $214 $300 #
straight-curve $-1 -15 15 -4 0 0 1 I I #
coedge $-1 $161 $160 $301 $302 reversed $162 $-1 #
edge $-1 $163 0 $303 12.5 $215 $304 forward 7 unknown #
face $-1 $167 $162 $2 $-1 $305 forward single #
point $-1 -15 15 4 #
coedge $-1 $171 $301 $165 $225 forward $184 $-1 #
edge $-1 $226 0 $173 2 $165 $306 forward 7 unknown #
vertex $-1 $302 $307 #
straight-curve $-1 -15 13 4 1 0 0 I I #
plane-surface $-1 -15 13 4 0 -1 0 0 0 -1 forward_v I I I I #
coedge $-1 $170 $169 $308 $309 forward $84 $-1 #
coedge $-1 $206 $310 $169 $231 forward $285 $-1 #
edge $-1 $311 0 $208 12.5 $230 $312 forward 7 unknown #
coedge $-1 $313 $314 $170 $233 forward $315 $-1 #
edge $-1 $235 0 $316 5 $170 $317 forward 7 unknown #
coedge $-1 $318 $171 $314 $319 reversed $184 $-1 #
vertex $-1 $233 $320 #
straight-curve $-1 -2.5 13 2 0 -1 0 I I #
point $-1 -2.5 13 2 #
coedge $-1 $321 $177 $294 $322 forward $240 $-1 #
coedge $-1 $177 $321 $179 $243 reversed $240 $-1 #
loop $-1 $-1 $239 $323 #
vertex $-1 $178 $324 #
straight-curve $-1 -15 13 -2 0 0 -1 I I #
edge $-1 $180 0 $325 12.5 $179 $326 forward 7 unknown #
point $-1 -15 13 -2 #
face $-1 $327 $328 $2 $-1 $329 forward single #
loop $-1 $-1 $330 $183 #
plane-surface $-1 -2.5 27 -0.875 0 0.03123475237772121299 -0.9995120760870788157 0 0.9995120760870788157 0.03123475237772121299 forward_v I I I I #
coedge $-1 $331 $332 $333 $334 reversed $184 $-1 #
coedge $-1 $189 $186 $335 $336 forward $138 $-1 #
coedge $-1 $186 $189 $337 $338 reversed $138 $-1 #
coedge $-1 $332 $339 $186 $252 reversed $184 $-1 #
edge $-1 $340 0 $341 6.661562730931549048 $251 $342 forward 7 unknown #
coedge $-1 $343 $187 $344 $345 forward $99 $-1 #
coedge $-1 $335 $346 $187 $255 reversed $347 $-1 #
edge $-1 $260 0 $348 0.375 $187 $349 forward 7 unknown #
coedge $-1 $188 $350 $330 $351 forward $99 $-1 #
coedge $-1 $352 $337 $188 $258 reversed $353 $-1 #
edge $-1 $354 0 $259 1.333855475301393589 $188 $355 forward 7 unknown #
vertex $-1 $258 $356 #
vertex $-1 $255 $357 #
straight-curve $-1 2.5 33.65831239517770257 0.6669277376506967947 0 -0.9995120760870787047 0.03123475237772120952 I I #
coedge $-1 $292 $191 $197 $276 forward $211 $-1 #
coedge $-1 $191 $292 $279 $358 reversed $211 $-1 #
vertex $-1 $358 $359 #
straight-curve $-1 2.5 13 -2 1 0 0 I I #
coedge $-1 $360 $361 $193 $267 forward $184 $-1 #
edge $-1 $271 0 $325 2 $193 $362 forward 7 unknown #
coedge $-1 $363 $194 $361 $364 forward $270 $-1 #
coedge $-1 $194 $363 $196 $274 reversed $270 $-1 #
loop $-1 $-1 $268 $365 #
vertex $-1 $195 $366 #
straight-curve $-1 -2.5 11 -2 1 0 0 I I #
coedge $-1 $367 $196 $368 $369 forward $99 $-1 #
edge $-1 $198 0 $370 3 $196 $371 forward 7 unknown #
coedge $-1 $197 $372 $373 $374 reversed $99 $-1 #
edge $-1 $199 0 $375 2 $262 $376 forward 7 unknown #
point $-1 2.5 11 -2 #
point $-1 2.5 13 -2 #
coedge $-1 $377 $201 $263 $358 forward $75 $-1 #
straight-curve $-1 15 10 -2 0 1 0 I I #
coedge $-1 $205 $377 $378 $379 forward $75 $-1 #
coedge $-1 $380 $381 $205 $283 reversed $382 $-1 #
edge $-1 $383 0 $286 2 $205 $384 forward 7 unknown #
coedge $-1 $310 $206 $381 $385 reversed $285 $-1 #
loop $-1 $-1 $230 $386 #
vertex $-1 $207 $387 #
straight-curve $-1 15 13 4 0 0 -1 I I #
point $-1 15 13 2 #
face $-1 $388 $389 $2 $-1 $390 forward single #
loop $-1 $-1 $391 $210 #
plane-surface $-1 -15 13 -4 0 0 -1 0 1 0 forward_v I I I I #
coedge $-1 $263 $262 $392 $393 forward $211 $-1 #
coedge $-1 $394 $213 $216 $298 forward $295 $-1 #
coedge $-1 $213 $394 $238 $322 reversed $295 $-1 #
loop $-1 $-1 $294 $395 #
straight-curve $-1 -15 13 -4 0 1 0 I I #
coedge $-1 $216 $215 $396 $397 reversed $217 $-1 #
edge $-1 $218 0 $398 12.5 $293 $399 forward 7 unknown #
face $-1 $222 $217 $2 $-1 $400 forward single #
point $-1 -15 15 -4 #
coedge $-1 $224 $396 $220 $302 forward $184 $-1 #
edge $-1 $303 0 $226 2 $220 $401 forward 7 unknown #
vertex $-1 $397 $402 #
straight-curve $-1 -15 15 4 1 0 0 I I #
plane-surface $-1 -15 15 4 0 0 1 0 -1 0 forward_v I I I I #
straight-curve $-1 -2.5 13 4 0 0 -1 I I #
point $-1 -2.5 13 4 #
coedge $-1 $403 $404 $229 $309 reversed $99 $-1 #
edge $-1 $311 0 $316 2 $229 $405 forward 7 unknown #
coedge $-1 $230 $284 $403 $406 forward $285 $-1 #
vertex $-1 $406 $407 #
straight-curve $-1 2.5 13 2 1 0 0 I I #
coedge $-1 $408 $232 $404 $409 reversed $315 $-1 #
coedge $-1 $232 $408 $234 $319 forward $315 $-1 #
loop $-1 $-1 $313 $410 #
vertex $-1 $233 $411 #
straight-curve $-1 -2.5 11 2 1 0 0 I I #
coedge $-1 $412 $234 $413 $414 reversed $184 $-1 #
edge $-1 $415 0 $235 3 $234 $416 forward 7 unknown #
point $-1 -2.5 11 2 #
coedge $-1 $239 $238 $360 $417 reversed $240 $-1 #
edge $-1 $241 0 $418 12.5 $238 $419 forward 7 unknown #
face $-1 $395 $240 $2 $-1 $420 forward single #
point $-1 -15 13 -4 #
vertex $-1 $267 $421 #
straight-curve $-1 -15 13 -2 1 0 0 I I #
face $-1 $422 $423 $2 $-1 $424 forward single #
loop $-1 $-1 $425 $245 #
plane-surface $-1 -2.5 27 -1.25 0 1 0 0 0 1 forward_v I I I I #
coedge $-1 $426 $427 $256 $351 reversed $246 $-1 #
coedge $-1 $428 $248 $429 $430 reversed $184 $-1 #
coedge $-1 $248 $251 $431 $432 reversed $184 $-1 #
coedge $-1 $427 $426 $248 $334 forward $246 $-1 #
edge $-1 $433 0 $434 6.661562730931549048 $248 $435 forward 7 unknown #
coedge $-1 $436 $254 $249 $336 reversed $347 $-1 #
edge $-1 $341 0 $260 5 $335 $437 forward 7 unknown #
coedge $-1 $257 $431 $250 $338 forward $353 $-1 #
edge $-1 $340 0 $259 0.999999999999999889 $250 $438 forward 7 unknown #
coedge $-1 $251 $439 $436 $440 reversed $184 $-1 #
vertex $-1 $432 $441 #
vertex $-1 $252 $442 #
straight-curve $-1 -2.5 33.65831239517770257 0.6669277376506967947 0 -0.9995120760870787047 0.03123475237772120952 I I #
coedge $-1 $443 $253 $444 $445 forward $99 $-1 #
coedge $-1 $446 $447 $253 $345 reversed $448 $-1 #
edge $-1 $348 0 $449 10.02808556006579188 $253 $450 forward 7 unknown #
coedge $-1 $254 $436 $446 $451 forward $347 $-1 #
loop $-1 $-1 $436 $452 #
vertex $-1 $345 $453 #
straight-curve $-1 2.5 27 0.875 0 0 1 I I #
coedge $-1 $256 $454 $425 $455 forward $99 $-1 #
edge $-1 $456 0 $354 6.661562730931549048 $256 $457 forward 7 unknown #
coedge $-1 $431 $257 $427 $458 forward $353 $-1 #
loop $-1 $-1 $431 $459 #
vertex $-1 $258 $460 #
straight-curve $-1 2.5 33.65831239517770257 -0.6669277376506967947 0 0 1 I I #
point $-1 2.5 33.65831239517770257 0.6669277376506967947 #
point $-1 2.5 27 0.875 #
edge $-1 $264 0 $461 2 $279 $462 forward 7 unknown #
point $-1 15 13 -2 #
coedge $-1 $463 $266 $321 $417 forward $184 $-1 #
coedge $-1 $266 $464 $268 $364 reversed $184 $-1 #
straight-curve $-1 -2.5 11 -2 0 1 0 I I #
coedge $-1 $269 $268 $465 $466 forward $270 $-1 #
edge $-1 $271 0 $467 3 $361 $468 forward 7 unknown #
face $-1 $459 $270 $2 $-1 $469 forward single #
point $-1 -2.5 11 -2 #
coedge $-1 $454 $273 $470 $471 forward $99 $-1 #
coedge $-1 $465 $472 $273 $369 reversed $473 $-1 #
edge $-1 $370 0 $474 6 $273 $475 forward 7 unknown #
vertex $-1 $369 $476 #
straight-curve $-1 2.5 11 -2 0 0 -1 I I #
coedge $-1 $275 $477 $478 $479 reversed $99 $-1 #
coedge $-1 $391 $392 $275 $374 forward $290 $-1 #
edge $-1 $375 0 $480 2 $373 $481 forward 7 unknown #
vertex $-1 $276 $482 #
straight-curve $-1 2.5 13 -2 0 0 -1 I I #
coedge $-1 $281 $279 $483 $484 forward $75 $-1 #
coedge $-1 $485 $486 $281 $379 reversed $389 $-1 #
edge $-1 $487 0 $383 8 $281 $488 forward 7 unknown #
coedge $-1 $489 $282 $486 $490 reversed $382 $-1 #
coedge $-1 $282 $489 $284 $385 forward $382 $-1 #
loop $-1 $-1 $381 $388 #
vertex $-1 $283 $491 #
straight-curve $-1 15 15 4 0 -1 0 I I #
edge $-1 $492 0 $286 12.5 $381 $493 forward 7 unknown #
face $-1 $410 $285 $2 $-1 $494 forward single #
point $-1 15 13 4 #
face $-1 $386 $382 $2 $-1 $495 forward single #
loop $-1 $-1 $486 $289 #
plane-surface $-1 -15 15 -4 0 1 0 0 0 1 forward_v I I I I #
coedge $-1 $483 $373 $485 $496 forward $290 $-1 #
coedge $-1 $373 $483 $292 $393 reversed $290 $-1 #
edge $-1 $375 0 $461 12.5 $292 $497 forward 7 unknown #
coedge $-1 $294 $293 $463 $498 reversed $295 $-1 #
face $-1 $299 $295 $2 $-1 $499 forward single #
coedge $-1 $301 $463 $297 $397 forward $184 $-1 #
edge $-1 $398 0 $303 8 $297 $500 forward 7 unknown #
vertex $-1 $498 $501 #
straight-curve $-1 -15 15 -4 1 0 0 I I #
plane-surface $-1 -15 15 -4 0 1 0 0 0 1 forward_v I I I I #
straight-curve $-1 -2.5 15 4 0 -1 0 I I #
point $-1 -2.5 15 4 #
coedge $-1 $477 $308 $310 $406 reversed $99 $-1 #
coedge $-1 $308 $443 $313 $409 forward $99 $-1 #
straight-curve $-1 2.5 13 2 0 -1 0 I I #
edge $-1 $492 0 $311 2 $310 $502 forward 7 unknown #
point $-1 2.5 13 2 #
coedge $-1 $314 $313 $503 $504 reversed $315 $-1 #
edge $-1 $505 0 $316 3 $404 $506 forward 7 unknown #
face $-1 $507 $315 $2 $-1 $508 forward single #
point $-1 2.5 11 2 #
coedge $-1 $439 $318 $509 $510 reversed $184 $-1 #
coedge $-1 $503 $511 $318 $414 forward $512 $-1 #
edge $-1 $513 0 $415 6 $318 $514 forward 7 unknown #
vertex $-1 $414 $515 #
straight-curve $-1 -2.5 11 5 0 0 -1 I I #
edge $-1 $325 0 $418 2 $321 $516 forward 7 unknown #
vertex $-1 $417 $517 #
straight-curve $-1 -15 13 -4 1 0 0 I I #
plane-surface $-1 -15 13 -2 0 -1 0 0 0 -1 forward_v I I I I #
point $-1 -2.5 13 -2 #
face $-1 $518 $519 $2 $-1 $520 forward single #
loop $-1 $-1 $521 $327 #
plane-surface $-1 -2.5 17 -2 0 0.07478994824163423538 -0.9971993098884563977 0 0.9971993098884562867 0.0747899482416342215 forward_v I I I I #
coedge $-1 $522 $523 $350 $455 reversed $328 $-1 #
coedge $-1 $333 $330 $523 $524 reversed $246 $-1 #
coedge $-1 $330 $333 $352 $458 reversed $246 $-1 #
coedge $-1 $525 $331 $526 $527 reversed $184 $-1 #
coedge $-1 $523 $522 $331 $430 forward $328 $-1 #
edge $-1 $528 0 $433 0.375 $331 $529 forward 7 unknown #
coedge $-1 $337 $352 $332 $432 forward $353 $-1 #
edge $-1 $434 0 $340 1.333855475301393589 $332 $530 forward 7 unknown #
vertex $-1 $430 $531 #
vertex $-1 $432 $532 #
straight-curve $-1 -2.5 27 -0.875 0 0.9995120760870787047 0.03123475237772120952 I I #
coedge $-1 $346 $335 $339 $440 forward $347 $-1 #
straight-curve $-1 -2.5 27 0.875 1 0 0 I I #
intcurve-curve $-1 forward { surfintcur full nurbs 3 open 11 
	0 3 0.1000002611762493276 1 0.1999997843743910042 1 0.299997940424583831 1 0.3999943322434096338 1 
	0.4999887886492661027 1 0.5999885338679232794 1 0.6999890144429204986 1 0.7999908540108500166 1 0.8999944680285729692 1 
	0.999999999999999889 3 
	-2.5 33.65831239517770257 0.6669277376506969057 1 
	-2.389407176088647944 33.82436212246931007 0.6617386836728340604 1 
	-2.141673700693131455 34.12839521490921868 0.6522376495340875824 0.999999999999999778 
	-1.682499216267884456 34.50735621560587418 0.6403951182623160987 1.000000000000000222 
	-1.159549521369488856 34.78790274179340969 0.6316280393189565023 0.9999999999999996669 
	-0.5914394553277676492 34.96097173277679815 0.6262196333507250579 1.000000000000000222 
	-0.000821077837661649706 35.01945302833608764 0.6243920928644977053 0.999999999999999889 
	0.5904059541468187344 34.9612151140358165 0.6262120276863807344 1.000000000000000222 
	1.158752762046654672 34.7882431760438422 0.6316174007486299313 1 
	1.681998433188510944 34.50771354147455128 0.6403839518289202726 0.999999999999999778 
	2.141437053540302671 34.12866270893329101 0.6522292903458337676 1.000000000000000666 
	2.389331040590233268 33.8244672402821962 0.6617353987411815908 0.999999999999999778 
	2.5 33.65831239517770257 0.6669277376506969057 1 
	0.001000000000000000021 
	cone 0 32 8.399999999999998579 0 0 1 3 0 0 1 I I 0 1 3 forward I I I I 
	plane -2.5 35 0.625 0 0.03123475237772121299 0.9995120760870788157 0 -0.9995120760870788157 0.03123475237772121299 forward_v I I I I 
	nullbs 
	nullbs 
	I I 
	0 
	0 
	0 
	} I I #
coedge $-1 $339 $412 $533 $534 reversed $184 $-1 #
edge $-1 $341 0 $535 0.375 $339 $536 forward 7 unknown #
point $-1 -2.5 33.65831239517770257 0.6669277376506967947 #
point $-1 -2.5 27 0.875 #
coedge $-1 $404 $343 $537 $538 forward $99 $-1 #
coedge $-1 $539 $540 $343 $445 reversed $541 $-1 #
edge $-1 $449 0 $542 3 $343 $543 forward 7 unknown #
coedge $-1 $533 $344 $346 $451 reversed $448 $-1 #
coedge $-1 $344 $533 $539 $544 forward $448 $-1 #
loop $-1 $-1 $447 $545 #
vertex $-1 $445 $546 #
straight-curve $-1 2.5 27 1.25 0 -0.9971993098884562867 0.0747899482416342215 I I #
edge $-1 $535 0 $348 5 $346 $547 forward 7 unknown #
face $-1 $-1 $347 $2 $-1 $548 forward single #
point $-1 2.5 27 1.25 #
coedge $-1 $350 $367 $549 $550 forward $99 $-1 #
edge $-1 $551 0 $456 0.375 $350 $552 forward 7 unknown #
vertex $-1 $351 $553 #
straight-curve $-1 2.5 27 -0.875 0 0.9995120760870787047 0.03123475237772120952 I I #
edge $-1 $354 0 $434 1.000000000000000222 $427 $554 forward 7 unknown #
face $-1 $323 $353 $2 $-1 $555 forward single #
point $-1 2.5 33.65831239517770257 -0.6669277376506967947 #
vertex $-1 $484 $556 #
straight-curve $-1 15 13 -2 0 0 -1 I I #
coedge $-1 $396 $360 $394 $498 forward $184 $-1 #
coedge $-1 $361 $525 $557 $558 reversed $184 $-1 #
coedge $-1 $557 $368 $363 $466 reversed $473 $-1 #
edge $-1 $467 0 $370 5 $363 $559 forward 7 unknown #
vertex $-1 $364 $560 #
straight-curve $-1 -2.5 11 -2 0 0 -1 I I #
plane-surface $-1 -2.5 11 -2 0 -1 0 0 0 -1 forward_v I I I I #
coedge $-1 $561 $562 $367 $471 reversed $519 $-1 #
edge $-1 $474 0 $563 3 $367 $564 forward 7 unknown #
coedge $-1 $368 $557 $561 $565 forward $473 $-1 #
loop $-1 $-1 $472 $518 #
vertex $-1 $471 $566 #
straight-curve $-1 2.5 11 -5 0 1 0 I I #
point $-1 2.5 11 -5 #
coedge $-1 $372 $403 $489 $567 reversed $99 $-1 #
coedge $-1 $486 $485 $372 $479 forward $389 $-1 #
edge $-1 $480 0 $568 8 $478 $569 forward 7 unknown #
vertex $-1 $374 $570 #
straight-curve $-1 2.5 13 -4 0 1 0 I I #
point $-1 2.5 13 -4 #
coedge $-1 $392 $391 $377 $484 reversed $290 $-1 #
edge $-1 $461 0 $487 2 $377 $571 forward 7 unknown #
coedge $-1 $478 $378 $391 $496 reversed $389 $-1 #
coedge $-1 $378 $478 $380 $490 forward $389 $-1 #
vertex $-1 $379 $572 #
straight-curve $-1 15 15 -4 0 0 1 I I #
coedge $-1 $381 $380 $477 $567 forward $382 $-1 #
edge $-1 $568 0 $383 12.5 $486 $573 forward 7 unknown #
point $-1 15 15 4 #
vertex $-1 $567 $574 #
straight-curve $-1 2.5 13 4 1 0 0 I I #
plane-surface $-1 -15 13 4 0 -1 0 0 0 -1 forward_v I I I I #
plane-surface $-1 -15 15 4 0 0 1 0 -1 0 forward_v I I I I #
edge $-1 $480 0 $487 12.5 $391 $575 forward 7 unknown #
straight-curve $-1 2.5 13 -4 1 0 0 I I #
edge $-1 $418 0 $398 2 $394 $576 forward 7 unknown #
plane-surface $-1 -15 13 -4 0 0 -1 0 1 0 forward_v I I I I #
straight-curve $-1 -2.5 15 -4 0 0 1 I I #
point $-1 -2.5 15 -4 #
straight-curve $-1 2.5 13 4 0 0 -1 I I #
coedge $-1 $537 $413 $408 $504 forward $512 $-1 #
edge $-1 $415 0 $505 5 $503 $577 forward 7 unknown #
vertex $-1 $409 $578 #
straight-curve $-1 2.5 11 5 0 0 -1 I I #
face $-1 $579 $512 $2 $-1 $580 forward single #
plane-surface $-1 -2.5 11 5 0 -1 0 0 0 -1 forward_v I I I I #
coedge $-1 $540 $539 $412 $510 forward $541 $-1 #
edge $-1 $581 0 $513 3 $412 $582 forward 7 unknown #
coedge $-1 $413 $537 $540 $583 reversed $512 $-1 #
loop $-1 $-1 $503 $507 #
vertex $-1 $510 $584 #
straight-curve $-1 -2.5 17 5 0 -1 0 I I #
point $-1 -2.5 11 5 #
straight-curve $-1 -2.5 13 -2 0 0 -1 I I #
point $-1 -2.5 13 -4 #
face $-1 $365 $473 $2 $-1 $585 forward single #
loop $-1 $-1 $562 $422 #
plane-surface $-1 -2.5 17 -5 0 1 0 0 0 1 forward_v I I I I #
coedge $-1 $549 $526 $522 $586 forward $423 $-1 #
coedge $-1 $429 $425 $521 $586 reversed $328 $-1 #
coedge $-1 $425 $429 $426 $524 forward $328 $-1 #
edge $-1 $433 0 $456 5 $523 $587 forward 7 unknown #
coedge $-1 $464 $428 $588 $589 reversed $184 $-1 #
coedge $-1 $521 $590 $428 $527 forward $423 $-1 #
edge $-1 $591 0 $528 10.02808556006579188 $428 $592 forward 7 unknown #
vertex $-1 $527 $593 #
straight-curve $-1 -2.5 27 -1.25 0 0 1 I I #
straight-curve $-1 -2.5 33.65831239517770257 -0.6669277376506967947 0 0 1 I I #
point $-1 -2.5 27 -0.875 #
point $-1 -2.5 33.65831239517770257 -0.6669277376506967947 #
coedge $-1 $447 $446 $439 $534 forward $448 $-1 #
edge $-1 $535 0 $581 10.02808556006579188 $439 $594 forward 7 unknown #
vertex $-1 $440 $595 #
straight-curve $-1 -2.5 27 0.875 0 0 1 I I #
coedge $-1 $511 $503 $443 $538 reversed $512 $-1 #
edge $-1 $542 0 $505 6 $443 $596 forward 7 unknown #
coedge $-1 $509 $444 $447 $544 reversed $541 $-1 #
coedge $-1 $444 $509 $511 $583 forward $541 $-1 #
loop $-1 $-1 $540 $579 #
vertex $-1 $538 $597 #
straight-curve $-1 2.5 17 2 0 0 1 I I #
edge $-1 $581 0 $449 5 $447 $598 forward 7 unknown #
face $-1 $452 $448 $2 $-1 $599 forward single #
point $-1 2.5 17 2 #
straight-curve $-1 -2.5 27 1.25 1 0 0 I I #
plane-surface $-1 -2.5 27 -1.25 0 1 0 0 0 1 forward_v I I I I #
coedge $-1 $590 $521 $454 $550 reversed $423 $-1 #
edge $-1 $563 0 $551 10.02808556006579188 $454 $600 forward 7 unknown #
vertex $-1 $455 $601 #
straight-curve $-1 2.5 27 -1.25 0 0 1 I I #
point $-1 2.5 27 -0.875 #
intcurve-curve $-1 forward { surfintcur full nurbs 3 open 11 
	0 3 0.1000055319714269891 1 0.2000091459891498724 1 0.3000109855570794459 1 0.4000114661320767762 1 
	0.5000112113507340084 1 0.6000056677565904772 1 0.700002059575416169 1 0.8000002156256090791 1 0.8999997388237506168 1 
	1.000000000000000222 3 
	2.5 33.65831239517770257 -0.6669277376506969057 1 
	2.38933104059023238 33.8244672402821891 -0.6617353987411815908 1 
	2.141437053540304003 34.12866270893331944 -0.6522292903458341007 0.999999999999999889 
	1.681998433188511832 34.50771354147453707 -0.6403839518289200505 1.000000000000000444 
	1.158752762046654228 34.7882431760438493 -0.6316174007486300424 0.999999999999999778 
	0.5904059541468186234 34.96121511403580939 -0.6262120276863808455 0.999999999999999778 
	-0.0008210778376624465946 35.01945302833606632 -0.6243920928644975943 1.000000000000000222 
	-0.5914394553277693145 34.96097173277680525 -0.6262196333507248358 1 
	-1.159549521369488634 34.78790274179340258 -0.6316280393189563913 0.999999999999999889 
	-1.682499216267885345 34.50735621560587418 -0.6403951182623162097 1.000000000000000444 
	-2.141673700693132343 34.12839521490921157 -0.6522376495340871383 0.999999999999999778 
	-2.389407176088648832 33.82436212246932428 -0.6617386836728340604 0.999999999999999889 
	-2.5 33.65831239517770257 -0.6669277376506969057 1 
	0.001000000000000000021 
	cone 0 32 8.399999999999998579 0 0 1 3 0 0 1 I I 0 1 3 forward I I I I 
	plane -2.5 27 -0.875 0 0.03123475237772121299 -0.9995120760870788157 0 0.9995120760870788157 0.03123475237772121299 forward_v I I I I 
	nullbs 
	nullbs 
	I I 
	0 
	0 
	0 
	} I I #
cone-surface $-1 0 32 8.399999999999998579 0 0 1 3 0 0 1 I I 0 1 3 forward I I I I #
point $-1 15 13 -4 #
coedge $-1 $472 $465 $464 $558 forward $473 $-1 #
edge $-1 $467 0 $602 6 $464 $603 forward 7 unknown #
straight-curve $-1 -2.5 11 -5 1 0 0 I I #
point $-1 -2.5 11 -5 #
coedge $-1 $588 $470 $472 $565 reversed $519 $-1 #
coedge $-1 $470 $588 $590 $604 forward $519 $-1 #
vertex $-1 $550 $605 #
straight-curve $-1 2.5 17 -5 0 0 1 I I #
edge $-1 $602 0 $474 5 $472 $606 forward 7 unknown #
point $-1 2.5 17 -5 #
edge $-1 $568 0 $492 2 $489 $607 forward 7 unknown #
vertex $-1 $479 $608 #
straight-curve $-1 2.5 15 -4 0 0 1 I I #
point $-1 2.5 15 -4 #
straight-curve $-1 15 13 -4 0 1 0 I I #
point $-1 15 15 -4 #
straight-curve $-1 2.5 15 4 1 0 0 I I #
point $-1 2.5 13 4 #
straight-curve $-1 2.5 15 -4 1 0 0 I I #
straight-curve $-1 -2.5 13 -4 0 1 0 I I #
straight-curve $-1 -2.5 11 5 1 0 0 I I #
point $-1 2.5 11 5 #
face $-1 $545 $541 $2 $-1 $609 forward single #
plane-surface $-1 -2.5 17 5 0 0 1 0 -1 0 forward_v I I I I #
vertex $-1 $534 $610 #
straight-curve $-1 -2.5 17 2 0 0 1 I I #
edge $-1 $513 0 $542 5 $540 $611 forward 7 unknown #
point $-1 -2.5 17 5 #
plane-surface $-1 -2.5 11 -5 0 0 -1 0 1 0 forward_v I I I I #
edge $-1 $528 0 $551 5 $521 $612 forward 7 unknown #
straight-curve $-1 -2.5 27 -0.875 1 0 0 I I #
coedge $-1 $562 $561 $525 $589 forward $519 $-1 #
edge $-1 $602 0 $591 3 $525 $613 forward 7 unknown #
coedge $-1 $526 $549 $562 $604 reversed $423 $-1 #
vertex $-1 $589 $614 #
straight-curve $-1 -2.5 17 -2 0 0.9971993098884562867 0.0747899482416342215 I I #
point $-1 -2.5 27 -1.25 #
straight-curve $-1 -2.5 27 1.25 0 -0.9971993098884562867 0.0747899482416342215 I I #
point $-1 -2.5 27 1.25 #
straight-curve $-1 2.5 17 5 0 -1 0 I I #
point $-1 2.5 17 5 #
straight-curve $-1 -2.5 17 2 1 0 0 I I #
plane-surface $-1 -2.5 27 1.25 0 0.07478994824163423538 0.9971993098884563977 0 -0.9971993098884562867 0.0747899482416342215 forward_v I I I I #
straight-curve $-1 2.5 17 -2 0 0.9971993098884562867 0.0747899482416342215 I I #
point $-1 2.5 27 -1.25 #
vertex $-1 $558 $615 #
straight-curve $-1 -2.5 11 -5 0 1 0 I I #
edge $-1 $591 0 $563 5 $562 $616 forward 7 unknown #
point $-1 2.5 17 -2 #
straight-curve $-1 -2.5 17 -5 1 0 0 I I #
straight-curve $-1 2.5 15 4 0 -1 0 I I #
point $-1 2.5 15 4 #
plane-surface $-1 -2.5 17 2 0 1 0 0 0 1 forward_v I I I I #
point $-1 -2.5 17 2 #
straight-curve $-1 -2.5 17 5 1 0 0 I I #
straight-curve $-1 -2.5 27 -1.25 1 0 0 I I #
straight-curve $-1 -2.5 17 -5 0 0 1 I I #
point $-1 -2.5 17 -2 #
point $-1 -2.5 17 -5 #
straight-curve $-1 -2.5 17 -2 1 0 0 I I #
End-of-ACIS-data 