700 0 2 0           
24 FBMach with ACIS - 7.0.3 13 ACIS 7.0.3 NT 24 Thu May 16 15:07:29 2002 
1 9.9999999999999995e-007 1e-010 
body $2 -1 $-1 $3 $-1 $4 #
bdycol-kcp $-1 -1 1 5 $5 $6 $7 $8 $9 #
model_id-kcp-attrib $-1 -1 $-1 $-1 $0 1 1021576048 1021576049 -1757085695 1 #
lump $-1 -1 $-1 $-1 $10 $0 #
transform $-1 -1 1 0 0 0 1 0 0 0 1 0 0 0 1 rotate no_reflect no_shear #
body $11 -1 $-1 $12 $-1 $13 #
body $14 -1 $-1 $15 $-1 $16 #
body $17 -1 $-1 $18 $-1 $19 #
body $20 -1 $-1 $21 $-1 $22 #
body $23 -1 $-1 $24 $-1 $25 #
shell $-1 -1 $-1 $-1 $-1 $26 $-1 $3 #
rgb_color-st-attrib $-1 -1 $27 $-1 $5 0.5 1 1 #
lump $-1 -1 $-1 $-1 $28 $5 #
transform $-1 -1 1 0 0 0 1 0 0 0 1 0 0 0 1 no_rotate no_reflect no_shear #
rgb_color-st-attrib $-1 -1 $29 $-1 $6 0.5 1 1 #
lump $-1 -1 $-1 $-1 $30 $6 #
transform $-1 -1 1 0 0 0 1 0 0 0 1 0 0 0 1 no_rotate no_reflect no_shear #
model_id-kcp-attrib $-1 -1 $-1 $-1 $7 1 1021576048 1021576049 -1756430334 1 #
lump $-1 -1 $-1 $-1 $31 $7 #
transform $-1 -1 1 0 0 0 1 0 0 0 1 40 0.75 50 1 no_rotate no_reflect no_shear #
rgb_color-st-attrib $-1 -1 $32 $-1 $8 0.5 1 1 #
lump $-1 -1 $-1 $-1 $33 $8 #
transform $-1 -1 1 0 0 0 1 0 0 0 1 0 0 0 1 no_rotate no_reflect no_shear #
rgb_color-st-attrib $-1 -1 $34 $-1 $9 0.5 1 1 #
lump $-1 -1 $-1 $-1 $35 $9 #
transform $-1 -1 1 0 0 0 1 0 0 0 1 0 0 0 1 no_rotate no_reflect no_shear #
face $36 -1 $-1 $37 $38 $10 $-1 $39 reversed single #
model_id-kcp-attrib $-1 -1 $-1 $11 $5 1 1021576048 1021576049 -1760100349 1 #
shell $-1 -1 $-1 $-1 $-1 $40 $-1 $12 #
model_id-kcp-attrib $-1 -1 $-1 $14 $6 1 1021576048 1021576049 -1757478908 1 #
shell $-1 -1 $-1 $-1 $-1 $41 $-1 $15 #
shell $-1 -1 $-1 $-1 $-1 $42 $-1 $18 #
model_id-kcp-attrib $-1 -1 $-1 $20 $8 1 1021576048 1021576049 -1755512827 1 #
shell $-1 -1 $-1 $-1 $-1 $43 $-1 $21 #
model_id-kcp-attrib $-1 -1 $-1 $23 $9 1 1021576048 1021576049 -1753546746 1 #
shell $-1 -1 $-1 $-1 $-1 $44 $-1 $24 #
model_id-kcp-attrib $-1 -1 $-1 $-1 $26 1 1021576048 1021576049 -1757085695 2 #
face $45 -1 $-1 $46 $47 $10 $-1 $48 forward single #
loop $-1 -1 $-1 $-1 $49 $26 #
plane-surface $-1 -1 $-1 0 0 0 0 0 1 1 0 0 forward_v I I I I #
face $-1 -1 $-1 $50 $51 $28 $-1 $52 forward single #
face $-1 -1 $-1 $53 $54 $30 $-1 $55 forward single #
face $56 -1 $-1 $57 $58 $31 $-1 $59 forward single #
face $-1 -1 $-1 $60 $61 $33 $-1 $62 forward single #
face $-1 -1 $-1 $63 $64 $35 $-1 $65 forward single #
model_id-kcp-attrib $-1 -1 $-1 $-1 $37 1 1021576048 1021576049 -1757085695 3 #
face $66 -1 $-1 $67 $68 $10 $-1 $69 forward single #
loop $-1 -1 $-1 $-1 $70 $37 #
plane-surface $-1 -1 $-1 0 1.5 0 -1 0 0 0 -1 0 forward_v I I I I #
coedge $-1 -1 $-1 $71 $72 $73 $74 reversed $38 $-1 #
face $-1 -1 $-1 $75 $76 $28 $-1 $77 forward single #
loop $-1 -1 $-1 $78 $79 $40 #
cone-surface $-1 -1 $-1 70 0 90 0 1 0 -1.5 0 0 1 I I 0 1 1.5 forward I I I I #
face $-1 -1 $-1 $80 $81 $30 $-1 $82 forward single #
loop $-1 -1 $-1 $83 $84 $41 #
cone-surface $-1 -1 $-1 60 0 10 0 1 0 -1.5 0 0 1 I I 0 1 1.5 forward I I I I #
model_id-kcp-attrib $-1 -1 $-1 $-1 $42 1 1021576048 1021576049 -1756430334 7 #
face $85 -1 $-1 $86 $87 $31 $-1 $88 reversed single #
loop $-1 -1 $-1 $-1 $89 $42 #
plane-surface $-1 -1 $-1 0 0 50 0 0 1 1 0 0 forward_v I I I I #
face $-1 -1 $-1 $90 $91 $33 $-1 $92 forward single #
loop $-1 -1 $-1 $93 $94 $43 #
cone-surface $-1 -1 $-1 10 0 90 0 1 0 -1.5 0 0 1 I I 0 1 1.5 forward I I I I #
face $-1 -1 $-1 $95 $96 $35 $-1 $97 forward single #
loop $-1 -1 $-1 $98 $99 $44 #
cone-surface $-1 -1 $-1 27 0 12 0 1 0 -1.5 0 0 1 I I 0 1 1.5 forward I I I I #
model_id-kcp-attrib $-1 -1 $-1 $-1 $46 1 1021576048 1021576049 -1757085695 4 #
face $100 -1 $-1 $101 $102 $10 $-1 $103 forward single #
loop $-1 -1 $-1 $104 $105 $46 #
plane-surface $-1 -1 $-1 0 0 0 0 -1 0 1 0 0 forward_v I I I I #
coedge $-1 -1 $-1 $106 $73 $107 $108 forward $47 $-1 #
coedge $-1 -1 $-1 $109 $49 $110 $111 reversed $38 $-1 #
coedge $-1 -1 $-1 $49 $109 $112 $113 reversed $38 $-1 #
coedge $-1 -1 $-1 $70 $114 $49 $74 forward $47 $-1 #
edge $115 -1 $-1 $116 0 $117 1.5 $49 $118 forward @7 unknown #
face $-1 -1 $-1 $-1 $119 $28 $-1 $120 reversed single #
loop $-1 -1 $-1 $-1 $121 $50 #
plane-surface $-1 -1 $-1 70 1.5 90 0 1 0 0 0 1 forward_v I I I I #
loop $-1 -1 $-1 $-1 $122 $40 #
coedge $-1 -1 $-1 $79 $79 $121 $123 forward $51 $-1 #
face $-1 -1 $-1 $-1 $124 $30 $-1 $125 reversed single #
loop $-1 -1 $-1 $-1 $126 $53 #
plane-surface $-1 -1 $-1 60 1.5 10 0 1 0 0 0 1 forward_v I I I I #
loop $-1 -1 $-1 $-1 $127 $41 #
coedge $-1 -1 $-1 $84 $84 $126 $128 forward $54 $-1 #
model_id-kcp-attrib $-1 -1 $-1 $-1 $57 1 1021576048 1021576049 -1756430334 2 #
face $129 -1 $-1 $130 $131 $31 $-1 $132 reversed single #
loop $-1 -1 $-1 $-1 $133 $57 #
plane-surface $-1 -1 $-1 0 0 -50 0 0 1 1 0 0 forward_v I I I I #
coedge $-1 -1 $-1 $134 $135 $136 $137 forward $58 $-1 #
face $-1 -1 $-1 $-1 $138 $33 $-1 $139 reversed single #
loop $-1 -1 $-1 $-1 $140 $60 #
plane-surface $-1 -1 $-1 10 1.5 90 0 1 0 0 0 1 forward_v I I I I #
loop $-1 -1 $-1 $-1 $141 $43 #
coedge $-1 -1 $-1 $94 $94 $140 $142 forward $61 $-1 #
face $-1 -1 $-1 $-1 $143 $35 $-1 $144 reversed single #
loop $-1 -1 $-1 $-1 $145 $63 #
plane-surface $-1 -1 $-1 27 1.5 12 0 1 0 0 0 1 forward_v I I I I #
loop $-1 -1 $-1 $-1 $146 $44 #
coedge $-1 -1 $-1 $99 $99 $145 $147 forward $64 $-1 #
model_id-kcp-attrib $-1 -1 $-1 $-1 $67 1 1021576048 1021576049 -1757085695 5 #
face $148 -1 $-1 $149 $150 $10 $-1 $151 forward single #
loop $-1 -1 $-1 $-1 $152 $67 #
plane-surface $-1 -1 $-1 80 0 0 1 0 0 0 1 0 forward_v I I I I #
loop $-1 -1 $-1 $153 $154 $46 #
coedge $-1 -1 $-1 $155 $112 $156 $157 forward $68 $-1 #
coedge $-1 -1 $-1 $114 $70 $158 $159 reversed $47 $-1 #
coedge $-1 -1 $-1 $112 $155 $70 $108 reversed $68 $-1 #
edge $160 -1 $-1 $117 0 $161 100 $107 $162 forward @7 unknown #
coedge $-1 -1 $-1 $72 $71 $163 $164 reversed $38 $-1 #
coedge $-1 -1 $-1 $165 $166 $71 $111 forward $150 $-1 #
edge $167 -1 $-1 $168 0 $116 80 $71 $169 forward @7 unknown #
coedge $-1 -1 $-1 $105 $107 $72 $113 forward $68 $-1 #
edge $170 -1 $-1 $117 0 $171 80 $72 $172 forward @7 unknown #
coedge $-1 -1 $-1 $73 $106 $165 $173 reversed $47 $-1 #
attrib_edge_convexity-kcp-attrib $-1 -1 $174 $-1 $74 1 #
vertex $-1 -1 $-1 $111 $175 #
vertex $-1 -1 $-1 $113 $176 #
straight-curve $-1 -1 $-1 0 1.5 0 0 -1 0 I I #
loop $-1 -1 $-1 $-1 $177 $75 #
plane-surface $-1 -1 $-1 70 0 90 0 1 0 0 0 1 forward_v I I I I #
coedge $-1 -1 $-1 $121 $121 $79 $123 reversed $76 $-1 #
coedge $-1 -1 $-1 $122 $122 $177 $178 reversed $78 $-1 #
edge $-1 -1 $-1 $179 -3.1415926535897931 $179 3.1415926535897931 $79 $180 forward @7 unknown #
loop $-1 -1 $-1 $-1 $181 $80 #
plane-surface $-1 -1 $-1 60 0 10 0 1 0 0 0 1 forward_v I I I I #
coedge $-1 -1 $-1 $126 $126 $84 $128 reversed $81 $-1 #
coedge $-1 -1 $-1 $127 $127 $181 $182 reversed $83 $-1 #
edge $-1 -1 $-1 $183 -3.1415926535897931 $183 3.1415926535897931 $84 $184 forward @7 unknown #
model_id-kcp-attrib $-1 -1 $-1 $-1 $86 1 1021576048 1021576049 -1756430334 4 #
face $185 -1 $-1 $186 $187 $31 $-1 $188 reversed single #
loop $-1 -1 $-1 $-1 $189 $86 #
plane-surface $-1 -1 $-1 0 -0.75 0 0 1 0 0 0 1 forward_v I I I I #
coedge $-1 -1 $-1 $190 $191 $192 $193 forward $87 $-1 #
coedge $-1 -1 $-1 $194 $89 $195 $196 forward $58 $-1 #
coedge $-1 -1 $-1 $89 $194 $197 $198 forward $58 $-1 #
coedge $-1 -1 $-1 $199 $200 $89 $137 reversed $201 $-1 #
edge $-1 -1 $-1 $202 -0.75 $203 0.75 $136 $204 forward @7 unknown #
loop $-1 -1 $-1 $-1 $205 $90 #
plane-surface $-1 -1 $-1 10 0 90 0 1 0 0 0 1 forward_v I I I I #
coedge $-1 -1 $-1 $140 $140 $94 $142 reversed $91 $-1 #
coedge $-1 -1 $-1 $141 $141 $205 $206 reversed $93 $-1 #
edge $-1 -1 $-1 $207 -3.1415926535897931 $207 3.1415926535897931 $94 $208 forward @7 unknown #
loop $-1 -1 $-1 $-1 $209 $95 #
plane-surface $-1 -1 $-1 27 0 12 0 1 0 0 0 1 forward_v I I I I #
coedge $-1 -1 $-1 $145 $145 $99 $147 reversed $96 $-1 #
coedge $-1 -1 $-1 $146 $146 $209 $210 reversed $98 $-1 #
edge $-1 -1 $-1 $211 -3.1415926535897931 $211 3.1415926535897931 $99 $212 forward @7 unknown #
model_id-kcp-attrib $-1 -1 $-1 $-1 $101 1 1021576048 1021576049 -1757085695 6 #
face $213 -1 $-1 $214 $215 $10 $-1 $216 forward single #
loop $-1 -1 $-1 $217 $165 $101 #
plane-surface $-1 -1 $-1 80 1.5 0 0 1 0 -1 0 0 forward_v I I I I #
coedge $-1 -1 $-1 $218 $163 $166 $219 forward $102 $-1 #
loop $-1 -1 $-1 $220 $221 $46 #
coedge $-1 -1 $-1 $222 $222 $223 $224 reversed $104 $-1 #
coedge $-1 -1 $-1 $107 $105 $225 $226 reversed $68 $-1 #
coedge $-1 -1 $-1 $163 $218 $105 $157 reversed $102 $-1 #
edge $227 -1 $-1 $171 0 $228 100 $105 $229 forward @7 unknown #
coedge $-1 -1 $-1 $225 $230 $106 $159 forward $215 $-1 #
edge $231 -1 $-1 $232 0 $161 1.5 $158 $233 forward @7 unknown #
attrib_edge_convexity-kcp-attrib $-1 -1 $234 $-1 $108 1 #
vertex $-1 -1 $-1 $226 $235 #
straight-curve $-1 -1 $-1 0 0 0 0 0 1 I I #
coedge $-1 -1 $-1 $152 $156 $109 $164 forward $102 $-1 #
edge $236 -1 $-1 $171 0 $168 1.5 $109 $237 forward @7 unknown #
coedge $-1 -1 $-1 $238 $110 $114 $173 forward $150 $-1 #
coedge $-1 -1 $-1 $110 $238 $152 $219 reversed $150 $-1 #
attrib_edge_convexity-kcp-attrib $-1 -1 $239 $-1 $111 1 #
vertex $-1 -1 $-1 $164 $240 #
straight-curve $-1 -1 $-1 80 1.5 0 -1 0 0 I I #
attrib_edge_convexity-kcp-attrib $-1 -1 $241 $-1 $113 1 #
vertex $-1 -1 $-1 $113 $242 #
straight-curve $-1 -1 $-1 0 0 0 1 0 0 I I #
edge $243 -1 $-1 $116 0 $232 100 $165 $244 forward @7 unknown #
convexity-sys-attrib $-1 -1 $-1 $115 $74 #
point $-1 -1 $-1 0 1.5 0 #
point $-1 -1 $-1 0 0 0 #
coedge $-1 -1 $-1 $177 $177 $122 $178 forward $119 $-1 #
edge $-1 -1 $-1 $245 -3.1415926535897931 $245 3.1415926535897931 $122 $246 forward @7 unknown #
vertex $-1 -1 $-1 $123 $247 #
ellipse-curve $-1 -1 $-1 70 1.5 90 0 -1 0 1.5 0 0 1 I I #
coedge $-1 -1 $-1 $181 $181 $127 $182 forward $124 $-1 #
edge $-1 -1 $-1 $248 -3.1415926535897931 $248 3.1415926535897931 $127 $249 forward @7 unknown #
vertex $-1 -1 $-1 $128 $250 #
ellipse-curve $-1 -1 $-1 60 1.5 10 0 -1 0 1.5 0 0 1 I I #
model_id-kcp-attrib $-1 -1 $-1 $-1 $130 1 1021576048 1021576049 -1756430334 3 #
face $251 -1 $-1 $252 $253 $31 $-1 $254 reversed single #
loop $-1 -1 $-1 $-1 $255 $130 #
plane-surface $-1 -1 $-1 -40 0 0 1 0 0 0 0 -1 forward_v I I I I #
coedge $-1 -1 $-1 $256 $197 $257 $258 forward $131 $-1 #
coedge $-1 -1 $-1 $259 $133 $256 $260 forward $87 $-1 #
coedge $-1 -1 $-1 $133 $259 $261 $262 forward $87 $-1 #
coedge $-1 -1 $-1 $200 $199 $133 $193 reversed $201 $-1 #
edge $-1 -1 $-1 $263 -0.75 $264 0.75 $192 $265 forward @7 unknown #
coedge $-1 -1 $-1 $135 $134 $266 $267 forward $58 $-1 #
coedge $-1 -1 $-1 $268 $269 $134 $196 reversed $253 $-1 #
edge $-1 -1 $-1 $203 -40 $270 40 $195 $271 forward @7 unknown #
coedge $-1 -1 $-1 $189 $272 $135 $198 reversed $131 $-1 #
edge $-1 -1 $-1 $273 -40 $202 40 $197 $274 forward @7 unknown #
coedge $-1 -1 $-1 $192 $136 $272 $275 forward $201 $-1 #
coedge $-1 -1 $-1 $136 $192 $268 $276 reversed $201 $-1 #
loop $-1 -1 $-1 $-1 $199 $252 #
vertex $-1 -1 $-1 $137 $277 #
vertex $-1 -1 $-1 $137 $278 #
straight-curve $-1 -1 $-1 40 0 50 0 1 0 I I #
coedge $-1 -1 $-1 $205 $205 $141 $206 forward $138 $-1 #
edge $-1 -1 $-1 $279 -3.1415926535897931 $279 3.1415926535897931 $141 $280 forward @7 unknown #
vertex $-1 -1 $-1 $142 $281 #
ellipse-curve $-1 -1 $-1 10 1.5 90 0 -1 0 1.5 0 0 1 I I #
coedge $-1 -1 $-1 $209 $209 $146 $210 forward $143 $-1 #
edge $-1 -1 $-1 $282 -3.1415926535897931 $282 3.1415926535897931 $146 $283 forward @7 unknown #
vertex $-1 -1 $-1 $147 $284 #
ellipse-curve $-1 -1 $-1 27 1.5 12 0 -1 0 1.5 0 0 1 I I #
model_id-kcp-attrib $-1 -1 $-1 $-1 $149 1 1021576048 1021576049 -1757085695 7 #
face $285 -1 $-1 $286 $287 $10 $-1 $288 reversed single #
loop $-1 -1 $-1 $-1 $289 $149 #
plane-surface $-1 -1 $-1 0 0 100 0 0 1 1 0 0 forward_v I I I I #
loop $-1 -1 $-1 $290 $291 $101 #
coedge $-1 -1 $-1 $156 $152 $289 $292 reversed $102 $-1 #
edge $-1 -1 $-1 $168 0 $293 100 $152 $294 forward @7 unknown #
loop $-1 -1 $-1 $295 $296 $46 #
coedge $-1 -1 $-1 $297 $297 $298 $299 reversed $153 $-1 #
coedge $-1 -1 $-1 $154 $154 $300 $301 reversed $104 $-1 #
coedge $-1 -1 $-1 $302 $303 $154 $224 forward $287 $-1 #
edge $304 -1 $-1 $305 0 $306 3.1415926535897931 $154 $307 forward @7 unknown #
coedge $-1 -1 $-1 $289 $158 $155 $226 forward $215 $-1 #
edge $308 -1 $-1 $161 0 $228 80 $225 $309 forward @7 unknown #
attrib_edge_convexity-kcp-attrib $-1 -1 $310 $-1 $157 1 #
vertex $-1 -1 $-1 $226 $311 #
straight-curve $-1 -1 $-1 80 0 0 0 0 1 I I #
coedge $-1 -1 $-1 $158 $289 $238 $312 forward $215 $-1 #
attrib_edge_convexity-kcp-attrib $-1 -1 $313 $-1 $159 1 #
vertex $-1 -1 $-1 $159 $314 #
straight-curve $-1 -1 $-1 0 1.5 100 0 -1 0 I I #
convexity-sys-attrib $-1 -1 $-1 $160 $108 #
point $-1 -1 $-1 0 0 100 #
attrib_edge_convexity-kcp-attrib $-1 -1 $315 $-1 $164 1 #
straight-curve $-1 -1 $-1 80 0 0 0 1 0 I I #
coedge $-1 -1 $-1 $166 $165 $230 $312 reversed $150 $-1 #
convexity-sys-attrib $-1 -1 $-1 $167 $111 #
point $-1 -1 $-1 80 1.5 0 #
convexity-sys-attrib $-1 -1 $-1 $170 $113 #
point $-1 -1 $-1 80 0 0 #
attrib_edge_convexity-kcp-attrib $-1 -1 $316 $-1 $173 1 #
straight-curve $-1 -1 $-1 0 1.5 0 0 0 1 I I #
vertex $-1 -1 $-1 $178 $317 #
ellipse-curve $-1 -1 $-1 70 0 90 0 -1 0 -1.5 0 0 1 I I #
point $-1 -1 $-1 68.5 1.5 90 #
vertex $-1 -1 $-1 $182 $318 #
ellipse-curve $-1 -1 $-1 60 0 10 0 -1 0 -1.5 0 0 1 I I #
point $-1 -1 $-1 58.5 1.5 10 #
model_id-kcp-attrib $-1 -1 $-1 $-1 $186 1 1021576048 1021576049 -1756430334 6 #
face $319 -1 $-1 $-1 $201 $31 $-1 $320 reversed single #
loop $-1 -1 $-1 $-1 $268 $186 #
plane-surface $-1 -1 $-1 0 0.75 0 0 -1 0 0 0 -1 forward_v I I I I #
coedge $-1 -1 $-1 $321 $266 $269 $322 forward $187 $-1 #
coedge $-1 -1 $-1 $272 $189 $190 $260 reversed $131 $-1 #
coedge $-1 -1 $-1 $266 $321 $189 $258 reversed $187 $-1 #
edge $-1 -1 $-1 $273 -50 $323 50 $257 $324 forward @7 unknown #
coedge $-1 -1 $-1 $191 $190 $321 $325 forward $87 $-1 #
edge $-1 -1 $-1 $264 -40 $323 40 $256 $326 forward @7 unknown #
coedge $-1 -1 $-1 $269 $268 $191 $262 reversed $253 $-1 #
edge $-1 -1 $-1 $327 -40 $263 40 $261 $328 forward @7 unknown #
vertex $-1 -1 $-1 $193 $329 #
vertex $-1 -1 $-1 $275 $330 #
straight-curve $-1 -1 $-1 40 0 -50 0 -1 0 I I #
coedge $-1 -1 $-1 $255 $257 $194 $267 reversed $187 $-1 #
edge $-1 -1 $-1 $270 -0.75 $273 0.75 $266 $331 forward @7 unknown #
coedge $-1 -1 $-1 $261 $195 $200 $276 forward $253 $-1 #
coedge $-1 -1 $-1 $195 $261 $255 $322 reversed $253 $-1 #
vertex $-1 -1 $-1 $196 $332 #
straight-curve $-1 -1 $-1 0 0.75 50 -1 0 0 I I #
coedge $-1 -1 $-1 $197 $256 $199 $275 reversed $131 $-1 #
vertex $-1 -1 $-1 $267 $333 #
straight-curve $-1 -1 $-1 0 -0.75 50 1 0 0 I I #
edge $-1 -1 $-1 $202 -50 $264 50 $199 $334 forward @7 unknown #
edge $-1 -1 $-1 $203 -50 $263 50 $200 $335 forward @7 unknown #
point $-1 -1 $-1 40 -0.75 50 #
point $-1 -1 $-1 40 0.75 50 #
vertex $-1 -1 $-1 $206 $336 #
ellipse-curve $-1 -1 $-1 10 0 90 0 -1 0 -1.5 0 0 1 I I #
point $-1 -1 $-1 8.5 1.5 90 #
vertex $-1 -1 $-1 $210 $337 #
ellipse-curve $-1 -1 $-1 27 0 12 0 -1 0 -1.5 0 0 1 I I #
point $-1 -1 $-1 25.5 1.5 12 #
model_id-kcp-attrib $-1 -1 $-1 $-1 $214 1 1021576048 1021576049 -1757085695 8 #
face $338 -1 $-1 $339 $340 $10 $-1 $341 reversed single #
loop $-1 -1 $-1 $-1 $302 $214 #
cone-surface $-1 -1 $-1 70 1.5 90 0 -1 0 1.5 0 0 1 I I 0 1 1.5 forward I I I I #
coedge $-1 -1 $-1 $230 $225 $218 $292 forward $215 $-1 #
loop $-1 -1 $-1 $342 $343 $101 #
coedge $-1 -1 $-1 $344 $344 $345 $346 forward $217 $-1 #
edge $-1 -1 $-1 $228 0 $293 1.5 $289 $347 forward @7 unknown #
vertex $-1 -1 $-1 $312 $348 #
straight-curve $-1 -1 $-1 80 1.5 0 0 0 1 I I #
loop $-1 -1 $-1 $-1 $349 $46 #
coedge $-1 -1 $-1 $350 $350 $351 $352 reversed $220 $-1 #
coedge $-1 -1 $-1 $221 $221 $353 $354 reversed $153 $-1 #
coedge $-1 -1 $-1 $355 $356 $221 $299 forward $357 $-1 #
edge $358 -1 $-1 $359 0 $360 3.1415926535897931 $221 $361 forward @7 unknown #
coedge $-1 -1 $-1 $362 $363 $222 $301 forward $340 $-1 #
edge $364 -1 $-1 $306 0 $305 3.1415926535897931 $222 $365 forward @7 unknown #
coedge $-1 -1 $-1 $345 $223 $363 $366 reversed $287 $-1 #
coedge $-1 -1 $-1 $223 $345 $362 $367 forward $287 $-1 #
attrib_edge_convexity-kcp-attrib $-1 -1 $368 $-1 $224 1 #
vertex $-1 -1 $-1 $301 $369 #
vertex $-1 -1 $-1 $301 $370 #
ellipse-curve $-1 -1 $-1 70 0 90 0 -1 0 -1.5 0 0 1 I I #
attrib_edge_convexity-kcp-attrib $-1 -1 $371 $-1 $226 1 #
straight-curve $-1 -1 $-1 0 0 100 1 0 0 I I #
convexity-sys-attrib $-1 -1 $-1 $227 $157 #
point $-1 -1 $-1 80 0 100 #
edge $-1 -1 $-1 $293 0 $232 80 $230 $372 forward @7 unknown #
convexity-sys-attrib $-1 -1 $-1 $231 $159 #
point $-1 -1 $-1 0 1.5 100 #
convexity-sys-attrib $-1 -1 $-1 $236 $164 #
convexity-sys-attrib $-1 -1 $-1 $243 $173 #
point $-1 -1 $-1 71.5 0 90 #
point $-1 -1 $-1 61.5 0 10 #
model_id-kcp-attrib $-1 -1 $-1 $-1 $252 1 1021576048 1021576049 -1756430334 5 #
plane-surface $-1 -1 $-1 40 0 0 -1 0 0 0 0 1 forward_v I I I I #
coedge $-1 -1 $-1 $257 $255 $259 $325 reversed $187 $-1 #
edge $-1 -1 $-1 $270 -50 $327 50 $269 $373 forward @7 unknown #
vertex $-1 -1 $-1 $325 $374 #
straight-curve $-1 -1 $-1 -40 -0.75 0 0 0 -1 I I #
edge $-1 -1 $-1 $323 -0.75 $327 0.75 $321 $375 forward @7 unknown #
straight-curve $-1 -1 $-1 0 -0.75 -50 -1 0 0 I I #
vertex $-1 -1 $-1 $262 $376 #
straight-curve $-1 -1 $-1 0 0.75 -50 1 0 0 I I #
point $-1 -1 $-1 40 0.75 -50 #
point $-1 -1 $-1 40 -0.75 -50 #
straight-curve $-1 -1 $-1 -40 0 50 0 -1 0 I I #
point $-1 -1 $-1 -40 0.75 50 #
point $-1 -1 $-1 -40 -0.75 50 #
straight-curve $-1 -1 $-1 40 -0.75 0 0 0 -1 I I #
straight-curve $-1 -1 $-1 40 0.75 0 0 0 -1 I I #
point $-1 -1 $-1 11.5 0 90 #
point $-1 -1 $-1 28.5 0 12 #
model_id-kcp-attrib $-1 -1 $-1 $-1 $286 1 1021576048 1021576049 -1757085695 9 #
face $377 -1 $-1 $378 $357 $10 $-1 $379 reversed single #
loop $-1 -1 $-1 $-1 $362 $286 #
cone-surface $-1 -1 $-1 70 1.5 90 0 -1 0 1.5 0 0 1 I I 0 1 1.5 forward I I I I #
loop $-1 -1 $-1 $380 $381 $101 #
coedge $-1 -1 $-1 $382 $382 $383 $384 forward $290 $-1 #
coedge $-1 -1 $-1 $291 $291 $385 $386 forward $217 $-1 #
coedge $-1 -1 $-1 $303 $302 $291 $346 reversed $287 $-1 #
edge $-1 -1 $-1 $387 0 $388 3.1415926535897931 $291 $389 forward @7 unknown #
straight-curve $-1 -1 $-1 80 0 100 0 1 0 I I #
point $-1 -1 $-1 80 1.5 100 #
coedge $-1 -1 $-1 $390 $390 $391 $392 reversed $295 $-1 #
coedge $-1 -1 $-1 $296 $296 $393 $394 reversed $220 $-1 #
coedge $-1 -1 $-1 $395 $396 $296 $352 forward $397 $-1 #
edge $398 -1 $-1 $399 0 $400 3.1415926535897931 $296 $401 forward @7 unknown #
coedge $-1 -1 $-1 $402 $403 $297 $354 forward $404 $-1 #
edge $405 -1 $-1 $360 0 $359 3.1415926535897931 $297 $406 forward @7 unknown #
coedge $-1 -1 $-1 $383 $298 $403 $407 reversed $357 $-1 #
coedge $-1 -1 $-1 $298 $383 $402 $408 forward $357 $-1 #
loop $-1 -1 $-1 $-1 $355 $339 #
attrib_edge_convexity-kcp-attrib $-1 -1 $409 $-1 $299 1 #
vertex $-1 -1 $-1 $354 $410 #
vertex $-1 -1 $-1 $354 $411 #
ellipse-curve $-1 -1 $-1 60 0 10 0 -1 0 -1.5 0 0 1 I I #
coedge $-1 -1 $-1 $385 $300 $303 $367 reversed $340 $-1 #
coedge $-1 -1 $-1 $300 $385 $302 $366 forward $340 $-1 #
attrib_edge_convexity-kcp-attrib $-1 -1 $412 $-1 $301 1 #
ellipse-curve $-1 -1 $-1 70 0 90 0 -1 0 1.5 0 0 1 I I #
edge $-1 -1 $-1 $388 0 $306 1.5 $363 $413 forward @7 unknown #
edge $-1 -1 $-1 $387 0 $305 1.5 $362 $414 forward @7 unknown #
convexity-sys-attrib $-1 -1 $-1 $304 $224 #
point $-1 -1 $-1 68.5 0 90 #
point $-1 -1 $-1 71.5 0 90 #
convexity-sys-attrib $-1 -1 $-1 $308 $226 #
straight-curve $-1 -1 $-1 80 1.5 100 -1 0 0 I I #
straight-curve $-1 -1 $-1 -40 0.75 0 0 0 -1 I I #
point $-1 -1 $-1 -40 -0.75 -50 #
straight-curve $-1 -1 $-1 -40 0 -50 0 1 0 I I #
point $-1 -1 $-1 -40 0.75 -50 #
model_id-kcp-attrib $-1 -1 $-1 $-1 $339 1 1021576048 1021576049 -1757085695 10 #
face $415 -1 $-1 $416 $404 $10 $-1 $417 reversed single #
cone-surface $-1 -1 $-1 60 1.5 10 0 -1 0 1.5 0 0 1 I I 0 1 1.5 forward I I I I #
loop $-1 -1 $-1 $-1 $418 $101 #
coedge $-1 -1 $-1 $419 $419 $420 $421 forward $342 $-1 #
coedge $-1 -1 $-1 $343 $343 $422 $423 forward $290 $-1 #
coedge $-1 -1 $-1 $356 $355 $343 $384 reversed $357 $-1 #
edge $-1 -1 $-1 $424 0 $425 3.1415926535897931 $343 $426 forward @7 unknown #
coedge $-1 -1 $-1 $363 $362 $344 $386 reversed $340 $-1 #
edge $-1 -1 $-1 $388 0 $387 3.1415926535897931 $344 $427 forward @7 unknown #
vertex $-1 -1 $-1 $386 $428 #
vertex $-1 -1 $-1 $386 $429 #
ellipse-curve $-1 -1 $-1 70 1.5 90 0 -1 0 -1.5 0 0 1 I I #
coedge $-1 -1 $-1 $349 $349 $430 $431 reversed $295 $-1 #
coedge $-1 -1 $-1 $432 $433 $349 $392 forward $434 $-1 #
edge $435 -1 $-1 $436 0 $437 3.1415926535897931 $349 $438 forward @7 unknown #
coedge $-1 -1 $-1 $439 $440 $350 $394 forward $441 $-1 #
edge $442 -1 $-1 $400 0 $399 3.1415926535897931 $350 $443 forward @7 unknown #
coedge $-1 -1 $-1 $420 $351 $440 $444 reversed $397 $-1 #
coedge $-1 -1 $-1 $351 $420 $439 $445 forward $397 $-1 #
loop $-1 -1 $-1 $-1 $395 $416 #
attrib_edge_convexity-kcp-attrib $-1 -1 $446 $-1 $352 1 #
vertex $-1 -1 $-1 $394 $447 #
vertex $-1 -1 $-1 $394 $448 #
ellipse-curve $-1 -1 $-1 10 0 90 0 -1 0 -1.5 0 0 1 I I #
coedge $-1 -1 $-1 $422 $353 $356 $408 reversed $404 $-1 #
coedge $-1 -1 $-1 $353 $422 $355 $407 forward $404 $-1 #
loop $-1 -1 $-1 $-1 $402 $378 #
attrib_edge_convexity-kcp-attrib $-1 -1 $449 $-1 $354 1 #
ellipse-curve $-1 -1 $-1 60 0 10 0 -1 0 1.5 0 0 1 I I #
edge $-1 -1 $-1 $425 0 $360 1.5 $403 $450 forward @7 unknown #
edge $-1 -1 $-1 $424 0 $359 1.5 $402 $451 forward @7 unknown #
convexity-sys-attrib $-1 -1 $-1 $358 $299 #
point $-1 -1 $-1 58.5 0 10 #
point $-1 -1 $-1 61.5 0 10 #
convexity-sys-attrib $-1 -1 $-1 $364 $301 #
straight-curve $-1 -1 $-1 71.5 1.5 90 0 -1 0 I I #
straight-curve $-1 -1 $-1 68.5 1.5 90 0 -1 0 I I #
model_id-kcp-attrib $-1 -1 $-1 $-1 $378 1 1021576048 1021576049 -1757085695 11 #
face $452 -1 $-1 $453 $397 $10 $-1 $454 reversed single #
cone-surface $-1 -1 $-1 60 1.5 10 0 -1 0 1.5 0 0 1 I I 0 1 1.5 forward I I I I #
coedge $-1 -1 $-1 $455 $455 $456 $457 forward $380 $-1 #
coedge $-1 -1 $-1 $381 $381 $458 $459 forward $342 $-1 #
coedge $-1 -1 $-1 $396 $395 $381 $421 reversed $397 $-1 #
edge $-1 -1 $-1 $460 0 $461 3.1415926535897931 $381 $462 forward @7 unknown #
coedge $-1 -1 $-1 $403 $402 $382 $423 reversed $404 $-1 #
edge $-1 -1 $-1 $425 0 $424 3.1415926535897931 $382 $463 forward @7 unknown #
vertex $-1 -1 $-1 $423 $464 #
vertex $-1 -1 $-1 $423 $465 #
ellipse-curve $-1 -1 $-1 60 1.5 10 0 -1 0 -1.5 0 0 1 I I #
ellipse-curve $-1 -1 $-1 70 1.5 90 0 -1 0 1.5 0 0 1 I I #
point $-1 -1 $-1 68.5 1.5 90 #
point $-1 -1 $-1 71.5 1.5 90 #
coedge $-1 -1 $-1 $466 $467 $390 $431 forward $468 $-1 #
edge $469 -1 $-1 $437 0 $436 3.1415926535897931 $390 $470 forward @7 unknown #
coedge $-1 -1 $-1 $456 $391 $467 $471 reversed $434 $-1 #
coedge $-1 -1 $-1 $391 $456 $466 $472 forward $434 $-1 #
loop $-1 -1 $-1 $-1 $432 $473 #
attrib_edge_convexity-kcp-attrib $-1 -1 $474 $-1 $392 1 #
vertex $-1 -1 $-1 $431 $475 #
vertex $-1 -1 $-1 $431 $476 #
ellipse-curve $-1 -1 $-1 27 0 12 0 -1 0 -1.5 0 0 1 I I #
coedge $-1 -1 $-1 $458 $393 $396 $445 reversed $441 $-1 #
coedge $-1 -1 $-1 $393 $458 $395 $444 forward $441 $-1 #
loop $-1 -1 $-1 $-1 $439 $453 #
attrib_edge_convexity-kcp-attrib $-1 -1 $477 $-1 $394 1 #
ellipse-curve $-1 -1 $-1 10 0 90 0 -1 0 1.5 0 0 1 I I #
edge $-1 -1 $-1 $461 0 $400 1.5 $440 $478 forward @7 unknown #
edge $-1 -1 $-1 $460 0 $399 1.5 $439 $479 forward @7 unknown #
convexity-sys-attrib $-1 -1 $-1 $398 $352 #
point $-1 -1 $-1 8.5 0 90 #
point $-1 -1 $-1 11.5 0 90 #
convexity-sys-attrib $-1 -1 $-1 $405 $354 #
straight-curve $-1 -1 $-1 61.5 1.5 10 0 -1 1.1842378929335002e-015 I I #
straight-curve $-1 -1 $-1 58.5 1.5 10 0 -1 0 I I #
model_id-kcp-attrib $-1 -1 $-1 $-1 $416 1 1021576048 1021576049 -1757085695 12 #
face $480 -1 $-1 $473 $441 $10 $-1 $481 reversed single #
cone-surface $-1 -1 $-1 10 1.5 90 0 -1 0 1.5 0 0 1 I I 0 1 1.5 forward I I I I #
coedge $-1 -1 $-1 $418 $418 $482 $483 forward $380 $-1 #
coedge $-1 -1 $-1 $433 $432 $418 $457 reversed $434 $-1 #
edge $-1 -1 $-1 $484 0 $485 3.1415926535897931 $418 $486 forward @7 unknown #
coedge $-1 -1 $-1 $440 $439 $419 $459 reversed $441 $-1 #
edge $-1 -1 $-1 $461 0 $460 3.1415926535897931 $419 $487 forward @7 unknown #
vertex $-1 -1 $-1 $459 $488 #
vertex $-1 -1 $-1 $459 $489 #
ellipse-curve $-1 -1 $-1 10 1.5 90 0 -1 0 -1.5 0 0 1 I I #
ellipse-curve $-1 -1 $-1 60 1.5 10 0 -1 0 1.5 0 0 1 I I #
point $-1 -1 $-1 58.5 1.5 10 #
point $-1 -1 $-1 61.5 1.5 10 #
coedge $-1 -1 $-1 $482 $430 $433 $472 reversed $468 $-1 #
coedge $-1 -1 $-1 $430 $482 $432 $471 forward $468 $-1 #
loop $-1 -1 $-1 $-1 $466 $490 #
attrib_edge_convexity-kcp-attrib $-1 -1 $491 $-1 $431 1 #
ellipse-curve $-1 -1 $-1 27 0 12 0 -1 0 1.5 0 0 1 I I #
edge $-1 -1 $-1 $485 0 $437 1.5 $467 $492 forward @7 unknown #
edge $-1 -1 $-1 $484 0 $436 1.5 $466 $493 forward @7 unknown #
face $494 -1 $-1 $490 $434 $10 $-1 $495 reversed single #
convexity-sys-attrib $-1 -1 $-1 $435 $392 #
point $-1 -1 $-1 25.5 0 12 #
point $-1 -1 $-1 28.5 0 12 #
convexity-sys-attrib $-1 -1 $-1 $442 $394 #
straight-curve $-1 -1 $-1 11.5 1.5 90 0 -1 0 I I #
straight-curve $-1 -1 $-1 8.5 1.5 90 0 -1 0 I I #
model_id-kcp-attrib $-1 -1 $-1 $-1 $453 1 1021576048 1021576049 -1757085695 13 #
cone-surface $-1 -1 $-1 10 1.5 90 0 -1 0 1.5 0 0 1 I I 0 1 1.5 forward I I I I #
coedge $-1 -1 $-1 $467 $466 $455 $483 reversed $468 $-1 #
edge $-1 -1 $-1 $485 0 $484 3.1415926535897931 $455 $496 forward @7 unknown #
vertex $-1 -1 $-1 $483 $497 #
vertex $-1 -1 $-1 $483 $498 #
ellipse-curve $-1 -1 $-1 27 1.5 12 0 -1 0 -1.5 0 0 1 I I #
ellipse-curve $-1 -1 $-1 10 1.5 90 0 -1 0 1.5 0 0 1 I I #
point $-1 -1 $-1 8.5 1.5 90 #
point $-1 -1 $-1 11.5 1.5 90 #
face $499 -1 $-1 $-1 $468 $10 $-1 $500 reversed single #
convexity-sys-attrib $-1 -1 $-1 $469 $431 #
straight-curve $-1 -1 $-1 28.5 1.5 12 0 -1 0 I I #
straight-curve $-1 -1 $-1 25.5 1.5 12 0 -1 0 I I #
model_id-kcp-attrib $-1 -1 $-1 $-1 $473 1 1021576048 1021576049 -1757085695 14 #
cone-surface $-1 -1 $-1 27 1.5 12 0 -1 0 1.5 0 0 1 I I 0 1 1.5 forward I I I I #
ellipse-curve $-1 -1 $-1 27 1.5 12 0 -1 0 1.5 0 0 1 I I #
point $-1 -1 $-1 25.5 1.5 12 #
point $-1 -1 $-1 28.5 1.5 12 #
model_id-kcp-attrib $-1 -1 $-1 $-1 $490 1 1021576048 1021576049 -1757085695 15 #
cone-surface $-1 -1 $-1 27 1.5 12 0 -1 0 1.5 0 0 1 I I 0 1 1.5 forward I I I I #
End-of-ACIS-data 