999
DXF file: final_dxf.dxf
999
Pro/ENGINEER 9652 by Parametric Technology Corporation
0
SECTION
2
HEADER
9
$EXTMAX
10
22.0000000000
20
17.0000000000
9
$EXTMIN
10
0.0000000000
20
0.0000000000
9
$LIMMIN
10
0.0000000000
20
0.0000000000
9
$LIMMAX
10
22.0000000000
20
17.0000000000
9
$VIEWCTR
10
11.0000000000
20
8.5000000000
9
$VIEWSIZE
40
17.0000000000
9
$CLAYER
8
0
9
$LTSCALE
40
1.2100000000
9
$CELTYPE
6
BYLAYER
9
$DIMSCALE
40
1
9
$DIMASZ
40
0.1875000000
9
$DIMEXO
40
0.1375000000
9
$DIMDLI
40
0.8360000000
9
$DIMEXE
40
0.3960000000
9
$DIMCEN
40
0.1980000000
9
$DIMTXT
40
0.2486049107
0
ENDSEC
0
SECTION
2
TABLES
0
TABLE
2
LTYPE
70
6
0
LTYPE
2
CONTINUOUS
70
64
3
Solid line
72
65
73
0
40
0
0
LTYPE
2
CENTER
70
64
3
____ _ ____ _ ____ _ ____ _ ____ _ ____ _ ____
72
65
73
4
40
0.6
49
0.375
49
-0.075
49
0.075
49
-0.075
0
LTYPE
2
HIDDEN
70
64
3
- - - - - - - - - - - - - - - - - - - -
72
65
73
2
40
0.2
49
0.1
49
-0.1
0
LTYPE
2
PHANTOM
70
64
3
_____ _ _ _____ _ _ _____ _ _ _____
72
65
73
6
40
0.8
49
0.45
49
-0.05
49
0.1
49
-0.05
49
0.1
49
-0.05
0
LTYPE
2
DOT
70
64
3
. . . . . . . . . . . . . . . . . . . .
72
65
73
2
40
0.2
49
0.1
49
-0.1
0
LTYPE
2
DASHED
70
64
3
- - - - - - - - - - - - - - - - - - - -
72
65
73
2
40
0.2
49
0.1
49
-0.1
0
ENDTAB
0
TABLE
2
LAYER
70
36
0
LAYER
2
0
70
0
62
7
6
CONTINUOUS
0
LAYER
2
DEFAULT_1
70
0
62
7
6
CENTER
0
LAYER
2
DEFAULT_2
70
0
62
7
6
HIDDEN
0
LAYER
2
DEFAULT_3
70
0
62
7
6
PHANTOM
0
ENDTAB
0
ENDSEC
0
SECTION
2
BLOCKS
0
BLOCK
8
0
62
6
6
BYBLOCK
2
*TEXT1
70
1
10
0.0000000000
20
0.0000000000
0
TEXT
8
0
62
6
6
BYBLOCK
10
11.7573210192
20
2.6615569792
40
0.1000000000
1
GENERAL TOLERANCES UNLESS NOTED
72
5
11
14.2373210192
21
2.6615569792
0
ENDBLK
8
0
0
BLOCK
8
0
62
6
6
BYBLOCK
2
*TEXT2
70
1
10
0.0000000000
20
0.0000000000
0
TEXT
8
0
62
6
6
BYBLOCK
10
11.3342250196
20
2.5082085713
40
0.0700000000
1
UNFINISHED TO UNFINISHED SURFACE DIMENSIONS SHALL CONFORM
72
5
11
14.5262250196
21
2.5082085713
0
ENDBLK
8
0
0
BLOCK
8
0
62
6
6
BYBLOCK
2
*TEXT3
70
1
10
0.0000000000
20
0.0000000000
0
TEXT
8
0
62
6
6
BYBLOCK
10
11.3325414066
20
2.2558192742
40
0.1200000000
1
+
72
5
11
11.4285414066
21
2.2558192742
0
ENDBLK
8
0
0
BLOCK
8
0
62
6
6
BYBLOCK
2
*TEXT4
70
1
10
0.0000000000
20
0.0000000000
0
TEXT
8
0
62
6
6
BYBLOCK
10
11.3319975065
20
2.2488293525
40
0.1200000000
1
_
72
5
11
11.4279975065
21
2.2488293525
0
ENDBLK
8
0
0
BLOCK
8
0
62
6
6
BYBLOCK
2
*TEXT5
70
1
10
0.0000000000
20
0.0000000000
0
TEXT
8
0
62
6
6
BYBLOCK
10
11.4528329783
20
2.2633329354
40
0.0700000000
1
1.5 ON UNFINISHED TO MACHINED SURFACE DIMENSIONS
72
5
11
14.1408329783
21
2.2633329354
0
ENDBLK
8
0
0
BLOCK
8
0
62
6
6
BYBLOCK
2
*TEXT6
70
1
10
0.0000000000
20
0.0000000000
0
TEXT
8
0
62
6
6
BYBLOCK
10
11.3363005182
20
2.1318438644
40
0.0700000000
1
.25 TO 1.0 OUTSIDE CORNER RADIUS OR CHAMFER
72
5
11
13.7443005182
21
2.1318438644
0
ENDBLK
8
0
0
BLOCK
8
0
62
6
6
BYBLOCK
2
*TEXT7
70
1
10
0.0000000000
20
0.0000000000
0
TEXT
8
0
62
6
6
BYBLOCK
10
11.3400596299
20
1.9965979628
40
0.0700000000
1
.25 TO 1.5 INSIDE CORNER RADIUS
72
5
11
13.0760596299
21
1.9965979628
0
ENDBLK
8
0
0
BLOCK
8
0
62
6
6
BYBLOCK
2
*TEXT8
70
1
10
0.0000000000
20
0.0000000000
0
TEXT
8
0
62
6
6
BYBLOCK
10
11.5543289919
20
1.8763793835
40
0.0700000000
1
6350 MICROMILLIMETER FINISH ON MACHINED SURFACES
72
5
11
14.2423289919
21
1.8763793835
0
ENDBLK
8
0
0
BLOCK
8
0
62
6
6
BYBLOCK
2
*TEXT9
70
1
10
0.0000000000
20
0.0000000000
0
TEXT
8
0
62
6
6
BYBLOCK
10
11.6371754324
20
1.5722584753
40
0.1100000000
1
DATUM INDICATING SYMBOL
72
5
11
13.0286754324
21
1.5722584753
0
ENDBLK
8
0
0
BLOCK
8
0
62
6
6
BYBLOCK
2
*TEXT10
70
1
10
0.0000000000
20
0.0000000000
0
TEXT
8
0
62
6
6
BYBLOCK
10
11.6257886089
20
1.3143137567
40
0.1100000000
1
LOCATION
72
5
11
12.1097886089
21
1.3143137567
0
ENDBLK
8
0
0
BLOCK
8
0
62
6
6
BYBLOCK
2
*TEXT11
70
1
10
0.0000000000
20
0.0000000000
0
TEXT
8
0
62
6
6
BYBLOCK
10
11.6257886089
20
1.0601623428
40
0.1100000000
1
CONCENTRICITY
72
5
11
12.4122886089
21
1.0601623428
0
ENDBLK
8
0
0
BLOCK
8
0
62
6
6
BYBLOCK
2
*TEXT12
70
1
10
0.0000000000
20
0.0000000000
0
TEXT
8
0
62
6
6
BYBLOCK
10
11.6295842167
20
0.8249774524
40
0.1100000000
1
FLATNESS
72
5
11
12.1135842167
21
0.8249774524
0
ENDBLK
8
0
0
BLOCK
8
0
62
6
6
BYBLOCK
2
*TEXT13
70
1
10
0.0000000000
20
0.0000000000
0
TEXT
8
0
62
6
6
BYBLOCK
10
11.3904609225
20
1.5988116080
40
0.1200000000
1
A
72
5
11
11.4864609225
21
1.5988116080
0
ENDBLK
8
0
0
BLOCK
8
0
62
6
6
BYBLOCK
2
*TEXT14
70
1
10
0.0000000000
20
0.0000000000
0
TEXT
8
0
62
6
6
BYBLOCK
10
11.3183443734
20
1.5798450846
40
0.1200000000
1
-
72
5
11
11.4143443734
21
1.5798450846
0
ENDBLK
8
0
0
BLOCK
8
0
62
6
6
BYBLOCK
2
*TEXT15
70
1
10
0.0000000000
20
0.0000000000
0
TEXT
8
0
62
6
6
BYBLOCK
10
11.4663730794
20
1.5798450846
40
0.1200000000
1
-
72
5
11
11.5623730794
21
1.5798450846
0
ENDBLK
8
0
0
BLOCK
8
0
62
6
6
BYBLOCK
2
*TEXT16
70
1
10
0.0000000000
20
0.0000000000
0
TEXT
8
0
62
6
6
BYBLOCK
10
13.5054315475
20
1.5727505242
40
0.1100000000
1
PERPENDICULARITY
72
5
11
14.4734315475
21
1.5727505242
0
ENDBLK
8
0
0
BLOCK
8
0
62
6
6
BYBLOCK
2
*TEXT17
70
1
10
0.0000000000
20
0.0000000000
0
TEXT
8
0
62
6
6
BYBLOCK
10
13.5232164743
20
1.3168029808
40
0.1100000000
1
ANGULARITY
72
5
11
14.1282164743
21
1.3168029808
0
ENDBLK
8
0
0
BLOCK
8
0
62
6
6
BYBLOCK
2
*TEXT18
70
1
10
0.0000000000
20
0.0000000000
0
TEXT
8
0
62
6
6
BYBLOCK
10
13.5338874303
20
1.0679650915
40
0.1100000000
1
RUNOUT (T.I.R.)
72
5
11
14.4413874303
21
1.0679650915
0
ENDBLK
8
0
0
BLOCK
8
0
62
6
6
BYBLOCK
2
*TEXT19
70
1
10
0.0000000000
20
0.0000000000
0
TEXT
8
0
62
6
6
BYBLOCK
10
13.5303304450
20
0.8120175481
40
0.1100000000
1
PARALLELISM
72
5
11
14.1958304450
21
0.8120175481
0
ENDBLK
8
0
0
BLOCK
8
0
62
4
6
BYBLOCK
2
*TEXT20
70
1
10
0.0000000000
20
0.0000000000
0
TEXT
8
0
62
4
6
BYBLOCK
10
14.9820836772
20
2.6580089077
40
0.1000000000
1
PART
72
5
11
15.2620836772
21
2.6580089077
0
ENDBLK
8
0
0
BLOCK
8
0
62
4
6
BYBLOCK
2
*TEXT21
70
1
10
0.0000000000
20
0.0000000000
0
TEXT
8
0
62
4
6
BYBLOCK
10
14.9764127750
20
2.3576334695
40
0.1000000000
1
MODEL
72
5
11
15.3264127750
21
2.3576334695
0
ENDBLK
8
0
0
BLOCK
8
0
62
4
6
BYBLOCK
2
*TEXT22
70
1
10
0.0000000000
20
0.0000000000
0
TEXT
8
0
62
4
6
BYBLOCK
10
14.9707418728
20
2.0629254924
40
0.0750000000
1
DRAWN
72
5
11
15.2707418728
21
2.0629254924
0
ENDBLK
8
0
0
BLOCK
8
0
62
4
6
BYBLOCK
2
*TEXT23
70
1
10
0.0000000000
20
0.0000000000
0
TEXT
8
0
62
4
6
BYBLOCK
10
16.3601129068
20
2.0685929535
40
0.0750000000
1
DATE
72
5
11
16.6001129068
21
2.0685929535
0
ENDBLK
8
0
0
BLOCK
8
0
62
4
6
BYBLOCK
2
*TEXT24
70
1
10
0.0000000000
20
0.0000000000
0
TEXT
8
0
62
4
6
BYBLOCK
10
16.7400633529
20
2.0742604146
40
0.0750000000
1
CHECKED
72
5
11
17.1600633529
21
2.0742604146
0
ENDBLK
8
0
0
BLOCK
8
0
62
4
6
BYBLOCK
2
*TEXT25
70
1
10
0.0000000000
20
0.0000000000
0
TEXT
8
0
62
4
6
BYBLOCK
10
14.9764127750
20
1.7625500542
40
0.0750000000
1
APPROVED
72
5
11
15.4564127750
21
1.7625500542
0
ENDBLK
8
0
0
BLOCK
8
0
62
4
6
BYBLOCK
2
*TEXT26
70
1
10
0.0000000000
20
0.0000000000
0
TEXT
8
0
62
4
6
BYBLOCK
10
16.3544420046
20
1.7625500542
40
0.0750000000
1
DATE
72
5
11
16.5944420046
21
1.7625500542
0
ENDBLK
8
0
0
BLOCK
8
0
62
4
6
BYBLOCK
2
*TEXT27
70
1
10
0.0000000000
20
0.0000000000
0
TEXT
8
0
62
4
6
BYBLOCK
10
16.7230506463
20
1.7682175153
40
0.0750000000
1
ORDER
72
5
11
17.0230506463
21
1.7682175153
0
ENDBLK
8
0
0
BLOCK
8
0
62
4
6
BYBLOCK
2
*TEXT28
70
1
10
0.0000000000
20
0.0000000000
0
TEXT
8
0
62
4
6
BYBLOCK
10
18.1294343868
20
2.0742604146
40
0.0750000000
1
DATE
72
5
11
18.3694343868
21
2.0742604146
0
ENDBLK
8
0
0
BLOCK
8
0
62
4
6
BYBLOCK
2
*TEXT29
70
1
10
0.0000000000
20
0.0000000000
0
TEXT
8
0
62
4
6
BYBLOCK
10
14.9764127750
20
0.9974428059
40
0.0800000000
1
PATTERN
72
5
11
15.4244127750
21
0.9974428059
0
ENDBLK
8
0
0
BLOCK
8
0
62
4
6
BYBLOCK
2
*TEXT30
70
1
10
0.0000000000
20
0.0000000000
0
TEXT
8
0
62
4
6
BYBLOCK
10
16.2353530589
20
1.0031102670
40
0.0800000000
1
MATL
72
5
11
16.4913530589
21
1.0031102670
0
ENDBLK
8
0
0
BLOCK
8
0
62
4
6
BYBLOCK
2
*TEXT31
70
1
10
0.0000000000
20
0.0000000000
0
TEXT
8
0
62
4
6
BYBLOCK
10
17.4716097340
20
0.9974428059
40
0.0800000000
1
WEIGHT-LBS
72
5
11
18.1116097340
21
0.9974428059
0
ENDBLK
8
0
0
BLOCK
8
0
62
4
6
BYBLOCK
2
*TEXT32
70
1
10
0.0000000000
20
0.0000000000
0
TEXT
8
0
62
4
6
BYBLOCK
10
20.0525209850
20
2.4856984762
40
0.1000000000
1
QA
72
5
11
20.1525209850
21
2.4856984762
0
ENDBLK
8
0
0
BLOCK
8
0
62
4
6
BYBLOCK
2
*TEXT33
70
1
10
0.0000000000
20
0.0000000000
0
TEXT
8
0
62
4
6
BYBLOCK
10
19.8913805952
20
1.9158553931
40
0.1000000000
1
PATT SHOP
72
5
11
20.3413805952
21
1.9158553931
0
ENDBLK
8
0
0
BLOCK
8
0
62
4
6
BYBLOCK
2
*TEXT34
70
1
10
0.0000000000
20
0.0000000000
0
TEXT
8
0
62
4
6
BYBLOCK
10
18.5030941600
20
2.0768980035
40
0.0700000000
1
THIRD ANGLE PROJECTION
72
5
11
19.7350941600
21
2.0768980035
0
ENDBLK
8
0
0
BLOCK
8
0
62
4
6
BYBLOCK
2
*TEXT35
70
1
10
0.0000000000
20
0.0000000000
0
TEXT
8
0
62
4
6
BYBLOCK
10
18.4741715259
20
1.4864084319
40
0.1000000000
1
DRAWING
72
5
11
19.0341715259
21
1.4864084319
0
ENDBLK
8
0
0
BLOCK
8
0
62
4
6
BYBLOCK
2
*TEXT36
70
1
10
0.0000000000
20
0.0000000000
0
TEXT
8
0
62
4
6
BYBLOCK
10
21.2066084718
20
1.4861887567
40
0.1000000000
1
REV
72
5
11
21.4016084718
21
1.4861887567
0
ENDBLK
8
0
0
BLOCK
8
0
62
4
6
BYBLOCK
2
*TEXT37
70
1
10
0.0000000000
20
0.0000000000
0
TEXT
8
0
62
4
6
BYBLOCK
10
18.7262116228
20
1.0032806006
40
0.0800000000
1
SCALE
72
5
11
19.0462116228
21
1.0032806006
0
ENDBLK
8
0
0
BLOCK
8
0
62
4
6
BYBLOCK
2
*TEXT38
70
1
10
0.0000000000
20
0.0000000000
0
TEXT
8
0
62
4
6
BYBLOCK
10
19.9698848876
20
0.9908927075
40
0.0800000000
1
SHEET
72
5
11
20.2898848876
21
0.9908927075
0
ENDBLK
8
0
0
BLOCK
8
0
62
4
6
BYBLOCK
2
*TEXT39
70
1
10
0.0000000000
20
0.0000000000
0
TEXT
8
0
62
4
6
BYBLOCK
10
19.9357002797
20
2.2887280161
40
0.1000000000
1
MFG ENG
72
5
11
20.2857002797
21
2.2887280161
0
ENDBLK
8
0
0
BLOCK
8
0
62
4
6
BYBLOCK
2
*TEXT40
70
1
10
0.0000000000
20
0.0000000000
0
TEXT
8
0
62
4
6
BYBLOCK
10
19.9336747390
20
2.1004670341
40
0.1000000000
1
FDY ENG
72
5
11
20.2836747390
21
2.1004670341
0
ENDBLK
8
0
0
BLOCK
8
0
62
4
6
BYBLOCK
2
*TEXT41
70
1
10
0.0000000000
20
0.0000000000
0
TEXT
8
0
62
4
6
BYBLOCK
10
20.5223771653
20
2.6669642620
40
0.1000000000
1
COPY
72
5
11
20.8423771653
21
2.6669642620
0
ENDBLK
8
0
0
BLOCK
8
0
62
4
6
BYBLOCK
2
*TEXT42
70
1
10
0.0000000000
20
0.0000000000
0
TEXT
8
0
62
4
6
BYBLOCK
10
21.0633972681
20
2.6689520996
40
0.1000000000
1
APPR
72
5
11
21.3833972681
21
2.6689520996
0
ENDBLK
8
0
0
BLOCK
8
0
62
4
6
BYBLOCK
2
*TEXT43
70
1
10
0.0000000000
20
0.0000000000
0
TEXT
8
0
62
4
6
BYBLOCK
10
19.9734008845
20
1.6968995371
40
0.1000000000
1
COMPUTER GENERATED
72
5
11
21.3734008845
21
1.6968995371
0
ENDBLK
8
0
0
BLOCK
8
0
62
4
6
BYBLOCK
2
*TEXT44
70
1
10
0.0000000000
20
0.0000000000
0
TEXT
8
0
62
4
6
BYBLOCK
10
15.1007217815
20
1.3707983751
40
0.1800000000
1
PARAMETRIC TECHNOLOGY
72
5
11
18.3339717815
21
1.3707983751
0
ENDBLK
8
0
0
BLOCK
8
0
62
4
6
BYBLOCK
2
*TEXT45
70
1
10
0.0000000000
20
0.0000000000
0
TEXT
8
0
62
4
6
BYBLOCK
10
16.1130454846
20
1.1982201035
40
0.1200000000
1
WALTHAM, MA
72
5
11
17.2762954846
21
1.1982201035
0
ENDBLK
8
0
0
BLOCK
8
0
62
2
6
BYBLOCK
2
*TEXT46
70
1
10
0.0000000000
20
0.0000000000
0
TEXT
8
0
62
2
6
BYBLOCK
10
0.2594044544
20
15.2930470436
40
0.1500000000
1
A
72
5
11
0.4094044544
21
15.2930470436
0
ENDBLK
8
0
0
BLOCK
8
0
62
2
6
BYBLOCK
2
*TEXT47
70
1
10
0.0000000000
20
0.0000000000
0
TEXT
8
0
62
2
6
BYBLOCK
10
0.2450617867
20
13.2707309066
40
0.1500000000
1
B
72
5
11
0.3950617867
21
13.2707309066
0
ENDBLK
8
0
0
BLOCK
8
0
62
2
6
BYBLOCK
2
*TEXT48
70
1
10
0.0000000000
20
0.0000000000
0
TEXT
8
0
62
2
6
BYBLOCK
10
0.2307191191
20
10.9185334139
40
0.1500000000
1
C
72
5
11
0.3807191191
21
10.9185334139
0
ENDBLK
8
0
0
BLOCK
8
0
62
2
6
BYBLOCK
2
*TEXT49
70
1
10
0.0000000000
20
0.0000000000
0
TEXT
8
0
62
2
6
BYBLOCK
10
0.2706736932
20
8.3775441554
40
0.1500000000
1
D
72
5
11
0.4206736932
21
8.3775441554
0
ENDBLK
8
0
0
BLOCK
8
0
62
2
6
BYBLOCK
2
*TEXT50
70
1
10
0.0000000000
20
0.0000000000
0
TEXT
8
0
62
2
6
BYBLOCK
10
0.2419883579
20
6.0396893304
40
0.1500000000
1
E
72
5
11
0.3919883579
21
6.0396893304
0
ENDBLK
8
0
0
BLOCK
8
0
62
2
6
BYBLOCK
2
*TEXT51
70
1
10
0.0000000000
20
0.0000000000
0
TEXT
8
0
62
2
6
BYBLOCK
10
0.2563310256
20
3.7305198406
40
0.1500000000
1
F
72
5
11
0.4063310256
21
3.7305198406
0
ENDBLK
8
0
0
BLOCK
8
0
62
2
6
BYBLOCK
2
*TEXT52
70
1
10
0.0000000000
20
0.0000000000
0
TEXT
8
0
62
2
6
BYBLOCK
10
0.2476229774
20
1.5636084840
40
0.1500000000
1
G
72
5
11
0.3976229774
21
1.5636084840
0
ENDBLK
8
0
0
BLOCK
8
0
62
2
6
BYBLOCK
2
*TEXT53
70
1
10
0.0000000000
20
0.0000000000
0
TEXT
8
0
62
2
6
BYBLOCK
10
1.6327148807
20
16.3534290988
40
0.1500000000
1
1
72
5
11
1.7827148807
21
16.3534290988
0
ENDBLK
8
0
0
BLOCK
8
0
62
2
6
BYBLOCK
2
*TEXT54
70
1
10
0.0000000000
20
0.0000000000
0
TEXT
8
0
62
2
6
BYBLOCK
10
4.3962395918
20
16.3447359541
40
0.1500000000
1
2
72
5
11
4.5462395918
21
16.3447359541
0
ENDBLK
8
0
0
BLOCK
8
0
62
2
6
BYBLOCK
2
*TEXT55
70
1
10
0.0000000000
20
0.0000000000
0
TEXT
8
0
62
2
6
BYBLOCK
10
6.8344930903
20
16.3303932865
40
0.1500000000
1
3
72
5
11
6.9844930903
21
16.3303932865
0
ENDBLK
8
0
0
BLOCK
8
0
62
2
6
BYBLOCK
2
*TEXT56
70
1
10
0.0000000000
20
0.0000000000
0
TEXT
8
0
62
2
6
BYBLOCK
10
9.2598258236
20
16.3301046005
40
0.1500000000
1
4
72
5
11
9.4098258236
21
16.3301046005
0
ENDBLK
8
0
0
BLOCK
8
0
62
2
6
BYBLOCK
2
*TEXT57
70
1
10
0.0000000000
20
0.0000000000
0
TEXT
8
0
62
2
6
BYBLOCK
10
11.5214719792
20
16.3567415353
40
0.1500000000
1
5
72
5
11
11.6714719792
21
16.3567415353
0
ENDBLK
8
0
0
BLOCK
8
0
62
2
6
BYBLOCK
2
*TEXT58
70
1
10
0.0000000000
20
0.0000000000
0
TEXT
8
0
62
2
6
BYBLOCK
10
13.8780764862
20
16.3534290988
40
0.1500000000
1
6
72
5
11
14.0280764862
21
16.3534290988
0
ENDBLK
8
0
0
BLOCK
8
0
62
2
6
BYBLOCK
2
*TEXT59
70
1
10
0.0000000000
20
0.0000000000
0
TEXT
8
0
62
2
6
BYBLOCK
10
16.4437712988
20
16.3301046005
40
0.1500000000
1
7
72
5
11
16.5937712988
21
16.3301046005
0
ENDBLK
8
0
0
BLOCK
8
0
62
2
6
BYBLOCK
2
*TEXT60
70
1
10
0.0000000000
20
0.0000000000
0
TEXT
8
0
62
2
6
BYBLOCK
10
18.5780644573
20
16.3567415353
40
0.1500000000
1
8
72
5
11
18.7280644573
21
16.3567415353
0
ENDBLK
8
0
0
BLOCK
8
0
62
2
6
BYBLOCK
2
*TEXT61
70
1
10
0.0000000000
20
0.0000000000
0
TEXT
8
0
62
2
6
BYBLOCK
10
20.6655054903
20
16.3301046005
40
0.1500000000
1
9
72
5
11
20.8155054903
21
16.3301046005
0
ENDBLK
8
0
0
BLOCK
8
0
62
2
6
BYBLOCK
2
*TEXT62
70
1
10
0.0000000000
20
0.0000000000
0
TEXT
8
0
62
2
6
BYBLOCK
10
10.9993054054
20
4.8343846395
40
0.1562500000
1
-A-
72
5
11
11.3743054054
21
4.8343846395
0
ENDBLK
8
0
0
BLOCK
8
0
62
2
6
BYBLOCK
2
*TEXT63
70
1
10
0.0000000000
20
0.0000000000
0
TEXT
8
0
6
BYBLOCK
10
11.5917384411
20
8.9484685274
40
0.2486049107
1
x
72
5
11
11.7906223697
21
8.9484685274
0
ENDBLK
8
0
0
BLOCK
8
0
62
2
6
BYBLOCK
2
*TEXT64
70
1
10
0.0000000000
20
0.0000000000
0
TEXT
8
0
6
BYBLOCK
10
10.8217384411
20
8.9484685274
40
0.2486049107
1
y
72
5
11
11.0206223697
21
8.9484685274
0
ENDBLK
8
0
0
BLOCK
8
0
62
2
6
BYBLOCK
2
*TEXT65
70
1
10
0.0000000000
20
0.0000000000
0
TEXT
8
0
6
BYBLOCK
10
10.8217384411
20
8.1784685274
40
0.2486049107
1
z
72
5
11
11.0206223697
21
8.1784685274
0
ENDBLK
8
0
0
BLOCK
8
0
6
BYBLOCK
2
*TEXT66
70
1
10
0.0000000000
20
0.0000000000
0
TEXT
8
0
6
BYBLOCK
10
11.1411804054
20
9.2487709828
40
0.1562500000
1
CSYS_PART_DEF
72
5
11
12.7661804054
21
9.2487709828
0
ENDBLK
8
0
0
BLOCK
8
0
62
2
6
BYBLOCK
2
*TEXT67
70
1
10
0.0000000000
20
0.0000000000
0
TEXT
8
0
62
2
6
BYBLOCK
10
15.2223780828
20
9.4068014946
40
0.1562500000
1
-B-
72
5
11
15.5973780828
21
9.4068014946
0
ENDBLK
8
0
0
BLOCK
8
0
6
BYBLOCK
2
*TEXT68
70
1
10
0.0000000000
20
0.0000000000
0
TEXT
8
0
6
BYBLOCK
10
6.8591845533
20
8.3509016264
40
0.1562500000
1
B
72
5
11
6.9841845533
21
8.3509016264
0
ENDBLK
8
0
0
BLOCK
8
0
6
BYBLOCK
2
*TEXT69
70
1
10
0.0000000000
20
0.0000000000
0
TEXT
8
0
6
BYBLOCK
10
14.7642023952
20
8.3509016264
40
0.1562500000
1
B
72
5
11
14.8892023952
21
8.3509016264
0
ENDBLK
8
0
0
BLOCK
8
0
6
BYBLOCK
2
*TEXT70
70
1
10
0.0000000000
20
0.0000000000
0
TEXT
8
0
6
BYBLOCK
10
10.3315582850
20
5.3745984664
40
0.1562500000
1
A
72
5
11
10.4565582850
21
5.3745984664
0
ENDBLK
8
0
0
BLOCK
8
0
6
BYBLOCK
2
*TEXT71
70
1
10
0.0000000000
20
0.0000000000
0
TEXT
8
0
6
BYBLOCK
10
10.3315582850
20
12.9908808679
40
0.1562500000
1
A
72
5
11
10.4565582850
21
12.9908808679
0
ENDBLK
8
0
0
BLOCK
8
0
62
2
6
BYBLOCK
2
*D71
70
1
10
0.0000000000
20
0.0000000000
0
TEXT
8
0
62
2
6
BYBLOCK
10
10.5357915015
20
3.6153704507
40
0.2200000000
1
140
72
5
11
11.0637915015
21
3.6153704507
0
LINE
8
0
62
2
6
BYBLOCK
10
7.3385032401
20
8.0698320320
11
7.3385032401
21
3.6003704507
0
LINE
8
0
62
2
6
BYBLOCK
10
14.5038575708
20
8.0943770127
11
14.5038575708
21
3.6003704507
0
LINE
8
0
62
2
6
BYBLOCK
10
7.3385032401
20
3.7253704507
11
10.4257915015
21
3.7253704507
0
LINE
8
0
62
2
6
BYBLOCK
10
14.5038575708
20
3.7253704507
11
11.1737915015
21
3.7253704507
0
SOLID
8
0
62
2
6
BYBLOCK
10
7.5260032401
20
3.6941204507
11
7.5260032401
21
3.7566204507
12
7.3385032401
22
3.7253704507
13
7.3385032401
23
3.7253704507
0
SOLID
8
0
62
2
6
BYBLOCK
10
14.3163575708
20
3.7566204507
11
14.3163575708
21
3.6941204507
12
14.5038575708
22
3.7253704507
13
14.5038575708
23
3.7253704507
0
ENDBLK
8
0
0
BLOCK
8
0
62
2
6
BYBLOCK
2
*D72
70
1
10
0.0000000000
20
0.0000000000
0
TEXT
8
0
62
2
6
BYBLOCK
10
20.3843235439
20
7.5916573217
40
0.2200000000
1
135.41
72
5
11
21.4403235439
21
7.5916573217
0
LINE
8
0
62
2
6
BYBLOCK
10
19.8362155967
20
12.6764324001
11
21.0373235439
21
12.6764324001
0
LINE
8
0
62
2
6
BYBLOCK
10
18.8260001856
20
5.7459993292
11
21.0373235439
21
5.7459993292
0
LINE
8
0
62
2
6
BYBLOCK
10
20.9123235439
20
12.6764324001
11
20.9123235439
21
7.9216573217
0
LINE
8
0
62
2
6
BYBLOCK
10
20.9123235439
20
5.7459993292
11
20.9123235439
21
7.4816573217
0
SOLID
8
0
62
2
6
BYBLOCK
10
20.8810735439
20
12.4889324001
11
20.9435735439
21
12.4889324001
12
20.9123235439
22
12.6764324001
13
20.9123235439
23
12.6764324001
0
SOLID
8
0
62
2
6
BYBLOCK
10
20.9435735439
20
5.9334993292
11
20.8810735439
21
5.9334993292
12
20.9123235439
22
5.7459993292
13
20.9123235439
23
5.7459993292
0
ENDBLK
8
0
0
BLOCK
8
0
62
2
6
BYBLOCK
2
*D73
70
1
10
0.0000000000
20
0.0000000000
0
TEXT
8
0
62
2
6
BYBLOCK
10
15.1589433563
20
13.5307343962
40
0.2200000000
1
R
72
5
11
15.3349433563
21
13.5307343962
0
TEXT
8
0
62
2
6
BYBLOCK
10
15.3349433563
20
13.5307343962
40
0.2200000000
1
5
72
5
11
15.5109433563
21
13.5307343962
0
LINE
8
0
62
2
6
BYBLOCK
10
14.4326341185
20
14.0976036444
11
14.9089433563
21
13.6407343962
0
LINE
8
0
62
2
6
BYBLOCK
10
14.9089433563
20
13.6407343962
11
15.0489433563
21
13.6407343962
0
SOLID
8
0
62
2
6
BYBLOCK
10
14.5463171762
20
13.9452587236
11
14.5895813096
21
13.9903637651
12
14.4326341185
22
14.0976036444
13
14.4326341185
23
14.0976036444
0
ENDBLK
8
0
0
BLOCK
8
0
62
2
6
BYBLOCK
2
*D74
70
1
10
0.0000000000
20
0.0000000000
0
TEXT
8
0
62
2
6
BYBLOCK
10
18.8429238112
20
11.9228326763
40
0.2200000000
1
25
72
5
11
19.1949238112
21
11.9228326763
0
LINE
8
0
62
2
6
BYBLOCK
10
18.9813171153
20
12.6764324001
11
19.1439238112
21
12.6764324001
0
LINE
8
0
62
2
6
BYBLOCK
10
18.8014552050
20
11.3969048410
11
19.1439238112
21
11.3969048410
0
LINE
8
0
62
2
6
BYBLOCK
10
19.0189238112
20
12.6764324001
11
19.0189238112
21
12.2528326763
0
LINE
8
0
62
2
6
BYBLOCK
10
19.0189238112
20
11.3969048410
11
19.0189238112
21
11.8128326763
0
SOLID
8
0
62
2
6
BYBLOCK
10
18.9876738112
20
12.4889324001
11
19.0501738112
21
12.4889324001
12
19.0189238112
22
12.6764324001
13
19.0189238112
23
12.6764324001
0
SOLID
8
0
62
2
6
BYBLOCK
10
19.0501738112
20
11.5844048410
11
18.9876738112
21
11.5844048410
12
19.0189238112
22
11.3969048410
13
19.0189238112
23
11.3969048410
0
ENDBLK
8
0
0
BLOCK
8
0
62
2
6
BYBLOCK
2
*D75
70
1
10
0.0000000000
20
0.0000000000
0
TEXT
8
0
62
2
6
BYBLOCK
10
19.1163548187
20
11.0034096370
40
0.2200000000
1
50
72
5
11
19.4683548187
21
11.0034096370
0
LINE
8
0
62
2
6
BYBLOCK
10
18.9803746522
20
12.6764324001
11
19.4173548187
21
12.6764324001
0
LINE
8
0
62
2
6
BYBLOCK
10
18.8821947294
20
10.1173772820
11
19.4173548187
21
10.1173772820
0
LINE
8
0
62
2
6
BYBLOCK
10
19.2923548187
20
12.6764324001
11
19.2923548187
21
11.3334096370
0
LINE
8
0
62
2
6
BYBLOCK
10
19.2923548187
20
10.1173772820
11
19.2923548187
21
10.8934096370
0
SOLID
8
0
62
2
6
BYBLOCK
10
19.2611048187
20
12.4889324001
11
19.3236048187
21
12.4889324001
12
19.2923548187
22
12.6764324001
13
19.2923548187
23
12.6764324001
0
SOLID
8
0
62
2
6
BYBLOCK
10
19.3236048187
20
10.3048772820
11
19.2611048187
21
10.3048772820
12
19.2923548187
22
10.1173772820
13
19.2923548187
23
10.1173772820
0
ENDBLK
8
0
0
BLOCK
8
0
62
2
6
BYBLOCK
2
*D76
70
1
10
0.0000000000
20
0.0000000000
0
TEXT
8
0
62
2
6
BYBLOCK
10
20.1083339688
20
9.0398111822
40
0.2200000000
1
110
72
5
11
20.6363339688
21
9.0398111822
0
LINE
8
0
62
2
6
BYBLOCK
10
18.9567572599
20
12.6764324001
11
20.4973339688
21
12.6764324001
0
LINE
8
0
62
2
6
BYBLOCK
10
18.9076672985
20
7.0465111402
11
20.4973339688
21
7.0465111402
0
LINE
8
0
62
2
6
BYBLOCK
10
20.3723339688
20
12.6764324001
11
20.3723339688
21
9.3698111822
0
LINE
8
0
62
2
6
BYBLOCK
10
20.3723339688
20
7.0465111402
11
20.3723339688
21
8.9298111822
0
SOLID
8
0
62
2
6
BYBLOCK
10
20.3410839688
20
12.4889324001
11
20.4035839688
21
12.4889324001
12
20.3723339688
22
12.6764324001
13
20.3723339688
23
12.6764324001
0
SOLID
8
0
62
2
6
BYBLOCK
10
20.4035839688
20
7.2340111402
11
20.3410839688
21
7.2340111402
12
20.3723339688
22
7.0465111402
13
20.3723339688
23
7.0465111402
0
ENDBLK
8
0
0
BLOCK
8
0
62
2
6
BYBLOCK
2
*D77
70
1
10
0.0000000000
20
0.0000000000
0
TEXT
8
0
62
2
6
BYBLOCK
10
15.3249034184
20
6.1363597655
40
0.2200000000
1
R
72
5
11
15.5009034184
21
6.1363597655
0
TEXT
8
0
62
2
6
BYBLOCK
10
15.5009034184
20
6.1363597655
40
0.2200000000
1
54.04
72
5
11
16.3809034184
21
6.1363597655
0
LINE
8
0
62
2
6
BYBLOCK
10
14.0263158088
20
6.9582658525
11
15.0749034184
21
6.2463597655
0
LINE
8
0
62
2
6
BYBLOCK
10
15.0749034184
20
6.2463597655
11
15.2149034184
21
6.2463597655
0
SOLID
8
0
62
2
6
BYBLOCK
10
14.1638893855
20
6.8270929762
11
14.1989955305
21
6.8788018592
12
14.0263158088
22
6.9582658525
13
14.0263158088
23
6.9582658525
0
ENDBLK
8
0
0
BLOCK
8
0
62
2
6
BYBLOCK
2
*D78
70
1
10
0.0000000000
20
0.0000000000
0
TEXT
8
0
62
2
6
BYBLOCK
10
10.5070613857
20
4.2044499871
40
0.2200000000
1
31.92
72
5
11
11.3870613857
21
4.2044499871
0
LINE
8
0
62
2
6
BYBLOCK
10
11.7380307991
20
5.6834993292
11
11.7380307991
21
4.1894499871
0
LINE
8
0
62
2
6
BYBLOCK
10
10.1043300117
20
5.6834993292
11
10.1043300117
21
4.1894499871
0
LINE
8
0
62
2
6
BYBLOCK
10
11.7380307991
20
4.3144499871
11
12.2380307991
21
4.3144499871
0
LINE
8
0
62
2
6
BYBLOCK
10
10.1043300117
20
4.3144499871
11
9.6043300117
21
4.3144499871
0
SOLID
8
0
62
2
6
BYBLOCK
10
11.9255307991
20
4.2831999871
11
11.9255307991
21
4.3456999871
12
11.7380307991
22
4.3144499871
13
11.7380307991
23
4.3144499871
0
SOLID
8
0
62
2
6
BYBLOCK
10
9.9168300117
20
4.3456999871
11
9.9168300117
21
4.2831999871
12
10.1043300117
22
4.3144499871
13
10.1043300117
23
4.3144499871
0
ENDBLK
8
0
0
BLOCK
8
0
62
2
6
BYBLOCK
2
*D79
70
1
10
0.0000000000
20
0.0000000000
0
TEXT
8
0
62
2
6
BYBLOCK
10
3.8855463302
20
9.3343509504
40
0.2200000000
1
R
72
5
11
4.0615463302
21
9.3343509504
0
TEXT
8
0
62
2
6
BYBLOCK
10
4.0615463302
20
9.3343509504
40
0.2200000000
1
11
72
5
11
4.4135463302
21
9.3343509504
0
LINE
8
0
62
2
6
BYBLOCK
10
5.1124292129
20
9.8134513631
11
4.6635463302
21
9.4443509504
0
LINE
8
0
62
2
6
BYBLOCK
10
4.6635463302
20
9.4443509504
11
4.5235463302
21
9.4443509504
0
SOLID
8
0
62
2
6
BYBLOCK
10
4.9477547796
20
9.7185032535
11
4.9874500818
21
9.6702276594
12
5.1124292129
22
9.8134513631
13
5.1124292129
23
9.8134513631
0
ENDBLK
8
0
0
BLOCK
8
0
62
2
6
BYBLOCK
2
*D80
70
1
10
0.0000000000
20
0.0000000000
0
TEXT
8
0
62
2
6
BYBLOCK
10
2.5355723925
20
10.5125100233
40
0.2200000000
1
R
72
5
11
2.7115723925
21
10.5125100233
0
TEXT
8
0
62
2
6
BYBLOCK
10
2.7115723925
20
10.5125100233
40
0.2200000000
1
34
72
5
11
3.0635723925
21
10.5125100233
0
LINE
8
0
62
2
6
BYBLOCK
10
4.0362897707
20
11.5241648931
11
3.3135723925
21
10.6225100233
0
LINE
8
0
62
2
6
BYBLOCK
10
3.3135723925
20
10.6225100233
11
3.1735723925
21
10.6225100233
0
SOLID
8
0
62
2
6
BYBLOCK
10
3.8946378746
20
11.3974070420
11
3.9434053883
21
11.3583176622
12
4.0362897707
22
11.5241648931
13
4.0362897707
23
11.5241648931
0
ENDBLK
8
0
0
BLOCK
8
0
62
2
6
BYBLOCK
2
*D81
70
1
10
0.0000000000
20
0.0000000000
0
TEXT
8
0
62
2
6
BYBLOCK
10
1.0383285707
20
11.5679441927
40
0.2200000000
1
R
72
5
11
1.2143285707
21
11.5679441927
0
TEXT
8
0
62
2
6
BYBLOCK
10
1.2143285707
20
11.5679441927
40
0.2200000000
1
22
72
5
11
1.5663285707
21
11.5679441927
0
LINE
8
0
62
2
6
BYBLOCK
10
2.2697865520
20
12.3302022706
11
1.8163285707
21
11.6779441927
0
LINE
8
0
62
2
6
BYBLOCK
10
1.8163285707
20
11.6779441927
11
1.6763285707
21
11.6779441927
0
SOLID
8
0
62
2
6
BYBLOCK
10
2.1370990026
20
12.1940889841
11
2.1884161522
21
12.1584126593
12
2.2697865520
22
12.3302022706
13
2.2697865520
23
12.3302022706
0
ENDBLK
8
0
0
BLOCK
8
0
62
2
6
BYBLOCK
2
*D82
70
1
10
0.0000000000
20
0.0000000000
0
TEXT
8
0
62
2
6
BYBLOCK
10
19.4845295290
20
10.4388750812
40
0.2200000000
1
70
72
5
11
19.8365295290
21
10.4388750812
0
LINE
8
0
62
2
6
BYBLOCK
10
18.8222646516
20
12.6764324001
11
19.7855295290
21
12.6764324001
0
LINE
8
0
62
2
6
BYBLOCK
10
18.7688594062
20
9.0937552347
11
19.7855295290
21
9.0937552347
0
LINE
8
0
62
2
6
BYBLOCK
10
19.6605295290
20
12.6764324001
11
19.6605295290
21
10.7688750812
0
LINE
8
0
62
2
6
BYBLOCK
10
19.6605295290
20
9.0937552347
11
19.6605295290
21
10.3288750812
0
SOLID
8
0
62
2
6
BYBLOCK
10
19.6292795290
20
12.4889324001
11
19.6917795290
21
12.4889324001
12
19.6605295290
22
12.6764324001
13
19.6605295290
23
12.6764324001
0
SOLID
8
0
62
2
6
BYBLOCK
10
19.6917795290
20
9.2812552347
11
19.6292795290
21
9.2812552347
12
19.6605295290
22
9.0937552347
13
19.6605295290
23
9.0937552347
0
ENDBLK
8
0
0
BLOCK
8
0
62
2
6
BYBLOCK
2
*D83
70
1
10
0.0000000000
20
0.0000000000
0
TEXT
8
0
62
2
6
BYBLOCK
10
19.8036142779
20
9.5798007572
40
0.2200000000
1
90
72
5
11
20.1556142779
21
9.5798007572
0
LINE
8
0
62
2
6
BYBLOCK
10
18.8222646516
20
12.6764324001
11
20.1046142779
21
12.6764324001
0
LINE
8
0
62
2
6
BYBLOCK
10
18.7674189066
20
8.0747394867
11
20.1046142779
21
8.0747394867
0
LINE
8
0
62
2
6
BYBLOCK
10
19.9796142779
20
12.6764324001
11
19.9796142779
21
9.9098007572
0
LINE
8
0
62
2
6
BYBLOCK
10
19.9796142779
20
8.0747394867
11
19.9796142779
21
9.4698007572
0
SOLID
8
0
62
2
6
BYBLOCK
10
19.9483642779
20
12.4889324001
11
20.0108642779
21
12.4889324001
12
19.9796142779
22
12.6764324001
13
19.9796142779
23
12.6764324001
0
SOLID
8
0
62
2
6
BYBLOCK
10
20.0108642779
20
8.2622394867
11
19.9483642779
21
8.2622394867
12
19.9796142779
22
8.0747394867
13
19.9796142779
23
8.0747394867
0
ENDBLK
8
0
0
BLOCK
8
0
62
2
6
BYBLOCK
2
*D84
70
1
10
0.0000000000
20
0.0000000000
0
TEXT
8
0
62
2
6
BYBLOCK
10
7.8463559446
20
14.9604639248
40
0.2200000000
1
17
72
5
11
8.1983559446
21
14.9604639248
0
LINE
8
0
62
2
6
BYBLOCK
10
7.5432276495
20
14.8398618481
11
7.5432276495
21
15.1954639248
0
LINE
8
0
62
2
6
BYBLOCK
10
8.4133063897
20
14.8079310880
11
8.4133063897
21
15.1954639248
0
LINE
8
0
62
2
6
BYBLOCK
10
7.5432276495
20
15.0704639248
11
7.7363559446
21
15.0704639248
0
LINE
8
0
62
2
6
BYBLOCK
10
8.4133063897
20
15.0704639248
11
8.3083559446
21
15.0704639248
0
SOLID
8
0
62
2
6
BYBLOCK
10
7.7307276495
20
15.0392139248
11
7.7307276495
21
15.1017139248
12
7.5432276495
22
15.0704639248
13
7.5432276495
23
15.0704639248
0
SOLID
8
0
62
2
6
BYBLOCK
10
8.2258063897
20
15.1017139248
11
8.2258063897
21
15.0392139248
12
8.4133063897
22
15.0704639248
13
8.4133063897
23
15.0704639248
0
ENDBLK
8
0
0
BLOCK
8
0
62
2
6
BYBLOCK
2
*D85
70
1
10
0.0000000000
20
0.0000000000
0
TEXT
8
0
62
2
6
BYBLOCK
10
8.7338279888
20
15.1760563535
40
0.2200000000
1
52
72
5
11
9.0858279888
21
15.1760563535
0
LINE
8
0
62
2
6
BYBLOCK
10
7.5432276495
20
14.8398618481
11
7.5432276495
21
15.4110563535
0
LINE
8
0
62
2
6
BYBLOCK
10
10.2046449723
20
14.7669418683
11
10.2046449723
21
15.4110563535
0
LINE
8
0
62
2
6
BYBLOCK
10
7.5432276495
20
15.2860563535
11
8.6238279888
21
15.2860563535
0
LINE
8
0
62
2
6
BYBLOCK
10
10.2046449723
20
15.2860563535
11
9.1958279888
21
15.2860563535
0
SOLID
8
0
62
2
6
BYBLOCK
10
7.7307276495
20
15.2548063535
11
7.7307276495
21
15.3173063535
12
7.5432276495
22
15.2860563535
13
7.5432276495
23
15.2860563535
0
SOLID
8
0
62
2
6
BYBLOCK
10
10.0171449723
20
15.3173063535
11
10.0171449723
21
15.2548063535
12
10.2046449723
22
15.2860563535
13
10.2046449723
23
15.2860563535
0
ENDBLK
8
0
0
BLOCK
8
0
62
2
6
BYBLOCK
2
*D86
70
1
10
0.0000000000
20
0.0000000000
0
TEXT
8
0
62
2
6
BYBLOCK
10
9.7401721969
20
15.4951411024
40
0.2200000000
1
87
72
5
11
10.0921721969
21
15.4951411024
0
LINE
8
0
62
2
6
BYBLOCK
10
7.5432276495
20
14.8398618481
11
7.5432276495
21
15.7301411024
0
LINE
8
0
62
2
6
BYBLOCK
10
11.9959835550
20
14.7757418578
11
11.9959835550
21
15.7301411024
0
LINE
8
0
62
2
6
BYBLOCK
10
7.5432276495
20
15.6051411024
11
9.6301721969
21
15.6051411024
0
LINE
8
0
62
2
6
BYBLOCK
10
11.9959835550
20
15.6051411024
11
10.2021721969
21
15.6051411024
0
SOLID
8
0
62
2
6
BYBLOCK
10
7.7307276495
20
15.5738911024
11
7.7307276495
21
15.6363911024
12
7.5432276495
22
15.6051411024
13
7.5432276495
23
15.6051411024
0
SOLID
8
0
62
2
6
BYBLOCK
10
11.8084835550
20
15.6363911024
11
11.8084835550
21
15.5738911024
12
11.9959835550
22
15.6051411024
13
11.9959835550
23
15.6051411024
0
ENDBLK
8
0
0
BLOCK
8
0
62
2
6
BYBLOCK
2
*D87
70
1
10
0.0000000000
20
0.0000000000
0
TEXT
8
0
62
2
6
BYBLOCK
10
11.0757810766
20
15.8142258513
40
0.2200000000
1
122
72
5
11
11.6037810766
21
15.8142258513
0
LINE
8
0
62
2
6
BYBLOCK
10
7.5432276495
20
14.8398618481
11
7.5432276495
21
16.0492258513
0
LINE
8
0
62
2
6
BYBLOCK
10
13.7873221377
20
14.8302490707
11
13.7873221377
21
16.0492258513
0
LINE
8
0
62
2
6
BYBLOCK
10
7.5432276495
20
15.9242258513
11
10.9657810766
21
15.9242258513
0
LINE
8
0
62
2
6
BYBLOCK
10
13.7873221377
20
15.9242258513
11
11.7137810766
21
15.9242258513
0
SOLID
8
0
62
2
6
BYBLOCK
10
7.7307276495
20
15.8929758513
11
7.7307276495
21
15.9554758513
12
7.5432276495
22
15.9242258513
13
7.5432276495
23
15.9242258513
0
SOLID
8
0
62
2
6
BYBLOCK
10
13.5998221377
20
15.9554758513
11
13.5998221377
21
15.8929758513
12
13.7873221377
22
15.9242258513
13
13.7873221377
23
15.9242258513
0
ENDBLK
8
0
0
BLOCK
8
0
62
4
6
BYBLOCK
2
*TEXT89
70
1
10
0.0000000000
20
0.0000000000
0
TEXT
8
0
62
4
6
BYBLOCK
10
1.1536140922
20
2.6826611847
40
0.2200000000
1
NOTES:
72
5
11
2.2096140922
21
2.6826611847
0
ENDBLK
8
0
0
BLOCK
8
0
62
4
6
BYBLOCK
2
*TEXT90
70
1
10
0.0000000000
20
0.0000000000
0
TEXT
8
0
62
4
6
BYBLOCK
10
1.1536140922
20
2.3526611847
40
0.2200000000
1
1. UNIFORM WALL THICKNESS 
72
5
11
5.7296140922
21
2.3526611847
0
ENDBLK
8
0
0
BLOCK
8
0
62
4
6
BYBLOCK
2
*TEXT91
70
1
10
0.0000000000
20
0.0000000000
0
TEXT
8
0
62
4
6
BYBLOCK
10
5.7296140922
20
2.3526611847
40
0.2200000000
1
4
72
5
11
5.9056140922
21
2.3526611847
0
ENDBLK
8
0
0
BLOCK
8
0
62
4
6
BYBLOCK
2
*TEXT92
70
1
10
0.0000000000
20
0.0000000000
0
TEXT
8
0
62
4
6
BYBLOCK
10
5.9056140922
20
2.3526611847
40
0.2200000000
1
 mm
72
5
11
6.4336140922
21
2.3526611847
0
ENDBLK
8
0
0
BLOCK
8
0
62
4
6
BYBLOCK
2
*TEXT93
70
1
10
0.0000000000
20
0.0000000000
0
TEXT
8
0
62
4
6
BYBLOCK
10
1.1536140922
20
2.0226611847
40
0.2200000000
1
2. RIB THICKNESS TO BE 
72
5
11
5.2016140922
21
2.0226611847
0
ENDBLK
8
0
0
BLOCK
8
0
62
4
6
BYBLOCK
2
*TEXT94
70
1
10
0.0000000000
20
0.0000000000
0
TEXT
8
0
62
4
6
BYBLOCK
10
5.2016140922
20
2.0226611847
40
0.2200000000
1
1 mm
72
5
11
5.9056140922
21
2.0226611847
0
ENDBLK
8
0
0
BLOCK
8
0
62
4
6
BYBLOCK
2
*TEXT95
70
1
10
0.0000000000
20
0.0000000000
0
TEXT
8
0
62
4
6
BYBLOCK
10
1.1536140922
20
1.6926611847
40
0.2200000000
1
3. DRAFT ALL WALLS AS APPROPRIATE 5%%d
72
5
11
7.4602807589
21
1.6926611847
0
ENDBLK
8
0
0
BLOCK
8
0
62
2
6
BYBLOCK
2
*TEXT96
70
1
10
0.0000000000
20
0.0000000000
0
TEXT
8
0
62
2
6
BYBLOCK
10
4.0523273140
20
4.6846111718
40
0.2200000000
1
SEE DETAIL  
72
5
11
6.1643273140
21
4.6846111718
0
ENDBLK
8
0
0
BLOCK
8
0
62
2
6
BYBLOCK
2
*TEXT97
70
1
10
0.0000000000
20
0.0000000000
0
TEXT
8
0
62
2
6
BYBLOCK
10
6.1643273140
20
4.6846111718
40
0.2200000000
1
A
72
5
11
6.3403273140
21
4.6846111718
0
ENDBLK
8
0
0
BLOCK
8
0
62
2
6
BYBLOCK
2
*TEXT98
70
1
10
0.0000000000
20
0.0000000000
0
LINE
8
0
62
2
6
BYBLOCK
10
14.8542028809
20
12.7154948730
11
15.1797247314
21
12.7154948730
0
LINE
8
0
62
2
6
BYBLOCK
10
15.0169631348
20
12.7154948730
11
15.0169631348
21
12.9563803711
0
TEXT
8
0
62
2
6
BYBLOCK
10
15.2318075392
20
12.7545574001
40
0.1562500000
1
 0.001 A
72
5
11
16.2161825392
21
12.7545574001
0
ENDBLK
8
0
0
BLOCK
8
0
62
2
6
BYBLOCK
2
*TEXT99
70
1
10
0.0000000000
20
0.0000000000
0
LINE
8
0
62
2
6
BYBLOCK
10
7.4166284790
20
13.1160710449
11
7.7421489868
21
13.1160710449
0
LINE
8
0
62
2
6
BYBLOCK
10
7.5793887329
20
13.1160710449
11
7.5793887329
21
13.3569565430
0
TEXT
8
0
62
2
6
BYBLOCK
10
7.7942324067
20
13.1551330918
40
0.1562500000
1
 0.001 B
72
5
11
8.7786074067
21
13.1551330918
0
ENDBLK
8
0
0
BLOCK
8
0
62
2
6
BYBLOCK
2
*TEXT100
70
1
10
0.0000000000
20
0.0000000000
0
TEXT
8
0
62
2
6
BYBLOCK
10
10.1125320424
20
13.5315426476
40
0.2200000000
1
SECTION  
72
5
11
11.6965320424
21
13.5315426476
0
ENDBLK
8
0
0
BLOCK
8
0
62
2
6
BYBLOCK
2
*TEXT101
70
1
10
0.0000000000
20
0.0000000000
0
TEXT
8
0
62
2
6
BYBLOCK
10
11.6965320424
20
13.5315426476
40
0.2200000000
1
B-B
72
5
11
12.2245320424
21
13.5315426476
0
ENDBLK
8
0
0
BLOCK
8
0
62
2
6
BYBLOCK
2
*TEXT102
70
1
10
0.0000000000
20
0.0000000000
0
TEXT
8
0
62
2
6
BYBLOCK
10
18.5560053981
20
4.7935295236
40
0.2200000000
1
SECTION  
72
5
11
20.1400053981
21
4.7935295236
0
ENDBLK
8
0
0
BLOCK
8
0
62
2
6
BYBLOCK
2
*TEXT103
70
1
10
0.0000000000
20
0.0000000000
0
TEXT
8
0
62
2
6
BYBLOCK
10
20.1400053981
20
4.7935295236
40
0.2200000000
1
A-A
72
5
11
20.6680053981
21
4.7935295236
0
ENDBLK
8
0
0
BLOCK
8
0
62
2
6
BYBLOCK
2
*TEXT104
70
1
10
0.0000000000
20
0.0000000000
0
TEXT
8
0
62
2
6
BYBLOCK
10
1.5011893811
20
9.1472477492
40
0.2200000000
1
DETAIL  
72
5
11
2.9091893811
21
9.1472477492
0
ENDBLK
8
0
0
BLOCK
8
0
62
2
6
BYBLOCK
2
*TEXT105
70
1
10
0.0000000000
20
0.0000000000
0
TEXT
8
0
62
2
6
BYBLOCK
10
2.9091893811
20
9.1472477492
40
0.2200000000
1
A
72
5
11
3.0851893811
21
9.1472477492
0
ENDBLK
8
0
0
BLOCK
8
0
62
2
6
BYBLOCK
2
*TEXT106
70
1
10
0.0000000000
20
0.0000000000
0
TEXT
8
0
62
2
6
BYBLOCK
10
1.5011893811
20
8.8172477492
40
0.2200000000
1
SCALE  
72
5
11
2.7331893811
21
8.8172477492
0
ENDBLK
8
0
0
BLOCK
8
0
62
2
6
BYBLOCK
2
*TEXT107
70
1
10
0.0000000000
20
0.0000000000
0
TEXT
8
0
62
2
6
BYBLOCK
10
2.7331893811
20
8.8172477492
40
0.2200000000
1
2.000
72
5
11
3.6131893811
21
8.8172477492
0
ENDBLK
8
0
0
ENDSEC
0
SECTION
2
ENTITIES
0
INSERT
8
0
62
6
2
*TEXT1
10
0.0000000000
20
0.0000000000
0
INSERT
8
0
62
6
2
*TEXT2
10
0.0000000000
20
0.0000000000
0
INSERT
8
0
62
6
2
*TEXT3
10
0.0000000000
20
0.0000000000
0
INSERT
8
0
62
6
2
*TEXT4
10
0.0000000000
20
0.0000000000
0
INSERT
8
0
62
6
2
*TEXT5
10
0.0000000000
20
0.0000000000
0
INSERT
8
0
62
6
2
*TEXT6
10
0.0000000000
20
0.0000000000
0
INSERT
8
0
62
6
2
*TEXT7
10
0.0000000000
20
0.0000000000
0
INSERT
8
0
62
6
2
*TEXT8
10
0.0000000000
20
0.0000000000
0
INSERT
8
0
62
6
2
*TEXT9
10
0.0000000000
20
0.0000000000
0
INSERT
8
0
62
6
2
*TEXT10
10
0.0000000000
20
0.0000000000
0
INSERT
8
0
62
6
2
*TEXT11
10
0.0000000000
20
0.0000000000
0
INSERT
8
0
62
6
2
*TEXT12
10
0.0000000000
20
0.0000000000
0
INSERT
8
0
62
6
2
*TEXT13
10
0.0000000000
20
0.0000000000
0
INSERT
8
0
62
6
2
*TEXT14
10
0.0000000000
20
0.0000000000
0
INSERT
8
0
62
6
2
*TEXT15
10
0.0000000000
20
0.0000000000
0
INSERT
8
0
62
6
2
*TEXT16
10
0.0000000000
20
0.0000000000
0
INSERT
8
0
62
6
2
*TEXT17
10
0.0000000000
20
0.0000000000
0
INSERT
8
0
62
6
2
*TEXT18
10
0.0000000000
20
0.0000000000
0
INSERT
8
0
62
6
2
*TEXT19
10
0.0000000000
20
0.0000000000
0
INSERT
8
0
62
4
2
*TEXT20
10
0.0000000000
20
0.0000000000
0
INSERT
8
0
62
4
2
*TEXT21
10
0.0000000000
20
0.0000000000
0
INSERT
8
0
62
4
2
*TEXT22
10
0.0000000000
20
0.0000000000
0
INSERT
8
0
62
4
2
*TEXT23
10
0.0000000000
20
0.0000000000
0
INSERT
8
0
62
4
2
*TEXT24
10
0.0000000000
20
0.0000000000
0
INSERT
8
0
62
4
2
*TEXT25
10
0.0000000000
20
0.0000000000
0
INSERT
8
0
62
4
2
*TEXT26
10
0.0000000000
20
0.0000000000
0
INSERT
8
0
62
4
2
*TEXT27
10
0.0000000000
20
0.0000000000
0
INSERT
8
0
62
4
2
*TEXT28
10
0.0000000000
20
0.0000000000
0
INSERT
8
0
62
4
2
*TEXT29
10
0.0000000000
20
0.0000000000
0
INSERT
8
0
62
4
2
*TEXT30
10
0.0000000000
20
0.0000000000
0
INSERT
8
0
62
4
2
*TEXT31
10
0.0000000000
20
0.0000000000
0
INSERT
8
0
62
4
2
*TEXT32
10
0.0000000000
20
0.0000000000
0
INSERT
8
0
62
4
2
*TEXT33
10
0.0000000000
20
0.0000000000
0
INSERT
8
0
62
4
2
*TEXT34
10
0.0000000000
20
0.0000000000
0
INSERT
8
0
62
4
2
*TEXT35
10
0.0000000000
20
0.0000000000
0
INSERT
8
0
62
4
2
*TEXT36
10
0.0000000000
20
0.0000000000
0
INSERT
8
0
62
4
2
*TEXT37
10
0.0000000000
20
0.0000000000
0
INSERT
8
0
62
4
2
*TEXT38
10
0.0000000000
20
0.0000000000
0
INSERT
8
0
62
4
2
*TEXT39
10
0.0000000000
20
0.0000000000
0
INSERT
8
0
62
4
2
*TEXT40
10
0.0000000000
20
0.0000000000
0
INSERT
8
0
62
4
2
*TEXT41
10
0.0000000000
20
0.0000000000
0
INSERT
8
0
62
4
2
*TEXT42
10
0.0000000000
20
0.0000000000
0
INSERT
8
0
62
4
2
*TEXT43
10
0.0000000000
20
0.0000000000
0
INSERT
8
0
62
4
2
*TEXT44
10
0.0000000000
20
0.0000000000
0
INSERT
8
0
62
4
2
*TEXT45
10
0.0000000000
20
0.0000000000
0
INSERT
8
0
62
2
2
*TEXT46
10
0.0000000000
20
0.0000000000
0
INSERT
8
0
62
2
2
*TEXT47
10
0.0000000000
20
0.0000000000
0
INSERT
8
0
62
2
2
*TEXT48
10
0.0000000000
20
0.0000000000
0
INSERT
8
0
62
2
2
*TEXT49
10
0.0000000000
20
0.0000000000
0
INSERT
8
0
62
2
2
*TEXT50
10
0.0000000000
20
0.0000000000
0
INSERT
8
0
62
2
2
*TEXT51
10
0.0000000000
20
0.0000000000
0
INSERT
8
0
62
2
2
*TEXT52
10
0.0000000000
20
0.0000000000
0
INSERT
8
0
62
2
2
*TEXT53
10
0.0000000000
20
0.0000000000
0
INSERT
8
0
62
2
2
*TEXT54
10
0.0000000000
20
0.0000000000
0
INSERT
8
0
62
2
2
*TEXT55
10
0.0000000000
20
0.0000000000
0
INSERT
8
0
62
2
2
*TEXT56
10
0.0000000000
20
0.0000000000
0
INSERT
8
0
62
2
2
*TEXT57
10
0.0000000000
20
0.0000000000
0
INSERT
8
0
62
2
2
*TEXT58
10
0.0000000000
20
0.0000000000
0
INSERT
8
0
62
2
2
*TEXT59
10
0.0000000000
20
0.0000000000
0
INSERT
8
0
62
2
2
*TEXT60
10
0.0000000000
20
0.0000000000
0
INSERT
8
0
62
2
2
*TEXT61
10
0.0000000000
20
0.0000000000
0
INSERT
8
0
62
2
2
*TEXT62
10
0.0000000000
20
0.0000000000
0
INSERT
8
0
62
2
2
*TEXT63
10
0.0000000000
20
0.0000000000
0
INSERT
8
0
62
2
2
*TEXT64
10
0.0000000000
20
0.0000000000
0
INSERT
8
0
62
2
2
*TEXT65
10
0.0000000000
20
0.0000000000
0
INSERT
8
0
2
*TEXT66
10
0.0000000000
20
0.0000000000
0
INSERT
8
0
62
2
2
*TEXT67
10
0.0000000000
20
0.0000000000
0
SOLID
8
0
6
BYBLOCK
10
6.9529345533
20
8.7727766264
11
6.8904345533
21
8.7727766264
12
6.9216845533
22
8.5852766264
13
6.9216845533
23
8.5852766264
0
INSERT
8
0
2
*TEXT68
10
0.0000000000
20
0.0000000000
0
SOLID
8
0
6
BYBLOCK
10
14.8579523952
20
8.7727766264
11
14.7954523952
21
8.7727766264
12
14.8267023952
22
8.5852766264
13
14.8267023952
23
8.5852766264
0
INSERT
8
0
2
*TEXT69
10
0.0000000000
20
0.0000000000
0
SOLID
8
0
6
BYBLOCK
10
10.7065582850
20
5.4214734664
11
10.7065582850
21
5.4839734664
12
10.5190582850
22
5.4527234664
13
10.5190582850
23
5.4527234664
0
INSERT
8
0
2
*TEXT70
10
0.0000000000
20
0.0000000000
0
SOLID
8
0
6
BYBLOCK
10
10.7065582850
20
13.0377558679
11
10.7065582850
21
13.1002558679
12
10.5190582850
22
13.0690058679
13
10.5190582850
23
13.0690058679
0
INSERT
8
0
2
*TEXT71
10
0.0000000000
20
0.0000000000
0
DIMENSION
8
0
62
2
2
*D71
10
14.5038575708
20
3.7253704507
11
10.7997915015
21
3.7253704507
13
7.3385032401
23
8.0698320320
14
14.5038575708
24
8.0943770127
0
DIMENSION
8
0
62
2
2
*D72
10
20.9123235439
20
5.7459993292
11
20.9123235439
21
7.7016573217
13
19.8362155967
23
12.6764324001
14
18.8260001856
24
5.7459993292
50
270.000000
0
DIMENSION
8
0
62
2
2
*D73
10
14.2479520590
20
14.2747481274
11
15.3349433563
21
13.6407343962
70
4
15
14.4326341185
25
14.0976036444
0
DIMENSION
8
0
62
2
2
*D74
10
19.0189238112
20
11.3969048410
11
19.0189238112
21
12.0328326763
13
19.1439238112
23
12.6764324001
14
18.8014552050
24
11.3969048410
50
270.000000
0
DIMENSION
8
0
62
2
2
*D75
10
19.2923548187
20
10.1173772820
11
19.2923548187
21
11.1134096370
13
18.9803746522
23
12.6764324001
14
18.8821947294
24
10.1173772820
50
270.000000
0
DIMENSION
8
0
62
2
2
*D76
10
20.3723339688
20
7.0465111402
11
20.3723339688
21
9.1498111822
13
18.9567572599
23
12.6764324001
14
18.9076672985
24
7.0465111402
50
270.000000
0
DIMENSION
8
0
62
2
2
*D77
10
11.7380307991
20
8.5118261009
11
15.8529034184
21
6.2463597655
70
4
15
14.0263158088
25
6.9582658525
0
DIMENSION
8
0
62
2
2
*D78
10
10.1043300117
20
4.3144499871
11
10.9470613857
21
4.3144499871
13
11.7380307991
23
5.6834993292
14
10.1043300117
24
5.6834993292
50
180.000000
0
DIMENSION
8
0
62
2
2
*D79
10
5.7814453194
20
10.3635594884
11
4.1495463302
21
9.4443509504
70
4
15
5.1124292129
25
9.8134513631
0
DIMENSION
8
0
62
2
2
*D80
10
2.3619100391
20
9.4352257248
11
2.7995723925
21
10.6225100233
70
4
15
4.0362897707
25
11.5241648931
0
DIMENSION
8
0
62
2
2
*D81
10
3.2586106738
20
13.7525358664
11
1.3023285707
21
11.6779441927
70
4
15
2.2697865520
25
12.3302022706
0
DIMENSION
8
0
62
2
2
*D82
10
19.6605295290
20
9.0937552347
11
19.6605295290
21
10.5488750812
13
18.8222646516
23
12.6764324001
14
18.7688594062
24
9.0937552347
50
270.000000
0
DIMENSION
8
0
62
2
2
*D83
10
19.9796142779
20
8.0747394867
11
19.9796142779
21
9.6898007572
13
18.8222646516
23
12.6764324001
14
18.7674189066
24
8.0747394867
50
270.000000
0
DIMENSION
8
0
62
2
2
*D84
10
8.4133063897
20
15.0704639248
11
8.0223559446
21
15.0704639248
13
7.5432276495
23
14.8398618481
14
8.4133063897
24
14.8079310880
0
DIMENSION
8
0
62
2
2
*D85
10
10.2046449723
20
15.2860563535
11
8.9098279888
21
15.2860563535
13
7.5432276495
23
14.8398618481
14
10.2046449723
24
14.7669418683
0
DIMENSION
8
0
62
2
2
*D86
10
11.9959835550
20
15.6051411024
11
9.9161721969
21
15.6051411024
13
7.5432276495
23
14.8398618481
14
11.9959835550
24
14.7757418578
0
DIMENSION
8
0
62
2
2
*D87
10
13.7873221377
20
15.9242258513
11
11.3397810766
21
15.9242258513
13
7.5432276495
23
14.8398618481
14
13.7873221377
24
14.8302490707
0
INSERT
8
0
62
4
2
*TEXT89
10
0.0000000000
20
0.0000000000
0
INSERT
8
0
62
4
2
*TEXT90
10
0.0000000000
20
0.0000000000
0
INSERT
8
0
62
4
2
*TEXT91
10
0.0000000000
20
0.0000000000
0
INSERT
8
0
62
4
2
*TEXT92
10
0.0000000000
20
0.0000000000
0
INSERT
8
0
62
4
2
*TEXT93
10
0.0000000000
20
0.0000000000
0
INSERT
8
0
62
4
2
*TEXT94
10
0.0000000000
20
0.0000000000
0
INSERT
8
0
62
4
2
*TEXT95
10
0.0000000000
20
0.0000000000
0
SOLID
8
0
62
2
6
BYBLOCK
10
7.1859334171
20
5.4571124420
11
7.2309174500
21
5.4137225033
12
7.3385952498
22
5.5703695713
13
7.3385952498
23
5.5703695713
0
INSERT
8
0
62
2
2
*TEXT96
10
0.0000000000
20
0.0000000000
0
INSERT
8
0
62
2
2
*TEXT97
10
0.0000000000
20
0.0000000000
0
POLYLINE
8
0
62
2
6
BYBLOCK
66
1
70
0
0
VERTEX
8
0
62
2
6
BYBLOCK
10
16.2161820068
20
12.8326827393
0
VERTEX
8
0
62
2
6
BYBLOCK
10
16.2226931152
20
12.8001298828
0
VERTEX
8
0
62
2
6
BYBLOCK
10
16.2292028809
20
12.7805992432
0
VERTEX
8
0
62
2
6
BYBLOCK
10
16.2422237549
20
12.7610672607
0
VERTEX
8
0
62
2
6
BYBLOCK
10
16.2617557373
20
12.7415366211
0
VERTEX
8
0
62
2
6
BYBLOCK
10
16.2812863770
20
12.7285157471
0
VERTEX
8
0
62
2
6
BYBLOCK
10
16.3008183594
20
12.7220059814
0
VERTEX
8
0
62
2
6
BYBLOCK
10
16.3333698730
20
12.7154948730
0
VERTEX
8
0
62
2
6
BYBLOCK
10
16.3659227295
20
12.7220059814
0
VERTEX
8
0
62
2
6
BYBLOCK
10
16.3854533691
20
12.7285157471
0
VERTEX
8
0
62
2
6
BYBLOCK
10
16.4049840088
20
12.7415366211
0
VERTEX
8
0
62
2
6
BYBLOCK
10
16.4245159912
20
12.7610672607
0
VERTEX
8
0
62
2
6
BYBLOCK
10
16.4375368652
20
12.7805992432
0
VERTEX
8
0
62
2
6
BYBLOCK
10
16.4440466309
20
12.8001298828
0
VERTEX
8
0
62
2
6
BYBLOCK
10
16.4505577393
20
12.8326827393
0
VERTEX
8
0
62
2
6
BYBLOCK
10
16.4440466309
20
12.8652342529
0
VERTEX
8
0
62
2
6
BYBLOCK
10
16.4375368652
20
12.8847662354
0
VERTEX
8
0
62
2
6
BYBLOCK
10
16.4245159912
20
12.9042968750
0
VERTEX
8
0
62
2
6
BYBLOCK
10
16.4049840088
20
12.9238288574
0
VERTEX
8
0
62
2
6
BYBLOCK
10
16.3854533691
20
12.9368497314
0
VERTEX
8
0
62
2
6
BYBLOCK
10
16.3659227295
20
12.9433594971
0
VERTEX
8
0
62
2
6
BYBLOCK
10
16.3333698730
20
12.9498692627
0
VERTEX
8
0
62
2
6
BYBLOCK
10
16.3008183594
20
12.9433594971
0
VERTEX
8
0
62
2
6
BYBLOCK
10
16.2812863770
20
12.9368497314
0
VERTEX
8
0
62
2
6
BYBLOCK
10
16.2617557373
20
12.9238288574
0
VERTEX
8
0
62
2
6
BYBLOCK
10
16.2422237549
20
12.9042968750
0
VERTEX
8
0
62
2
6
BYBLOCK
10
16.2292028809
20
12.8847662354
0
VERTEX
8
0
62
2
6
BYBLOCK
10
16.2226931152
20
12.8652342529
0
VERTEX
8
0
62
2
6
BYBLOCK
10
16.2161820068
20
12.8326827393
0
SEQEND
0
POLYLINE
8
0
62
2
6
BYBLOCK
66
1
70
0
0
VERTEX
8
0
62
2
6
BYBLOCK
10
16.2682655029
20
12.7675783691
0
VERTEX
8
0
62
2
6
BYBLOCK
10
16.2682655029
20
12.8977871094
0
VERTEX
8
0
62
2
6
BYBLOCK
10
16.3333698730
20
12.7675783691
0
VERTEX
8
0
62
2
6
BYBLOCK
10
16.3984742432
20
12.8977871094
0
VERTEX
8
0
62
2
6
BYBLOCK
10
16.3984742432
20
12.7675783691
0
SEQEND
0
INSERT
8
0
62
2
2
*TEXT98
10
0.0000000000
20
0.0000000000
0
POLYLINE
8
0
62
2
6
BYBLOCK
66
1
70
0
0
VERTEX
8
0
62
2
6
BYBLOCK
10
8.7786076050
20
13.2332575684
0
VERTEX
8
0
62
2
6
BYBLOCK
10
8.7851180420
20
13.2007060547
0
VERTEX
8
0
62
2
6
BYBLOCK
10
8.7916284790
20
13.1811754150
0
VERTEX
8
0
62
2
6
BYBLOCK
10
8.8046493530
20
13.1616434326
0
VERTEX
8
0
62
2
6
BYBLOCK
10
8.8241799927
20
13.1421127930
0
VERTEX
8
0
62
2
6
BYBLOCK
10
8.8437113037
20
13.1290919189
0
VERTEX
8
0
62
2
6
BYBLOCK
10
8.8632426147
20
13.1225808105
0
VERTEX
8
0
62
2
6
BYBLOCK
10
8.8957947998
20
13.1160710449
0
VERTEX
8
0
62
2
6
BYBLOCK
10
8.9283469849
20
13.1225808105
0
VERTEX
8
0
62
2
6
BYBLOCK
10
8.9478782959
20
13.1290919189
0
VERTEX
8
0
62
2
6
BYBLOCK
10
8.9674096069
20
13.1421127930
0
VERTEX
8
0
62
2
6
BYBLOCK
10
8.9869409180
20
13.1616434326
0
VERTEX
8
0
62
2
6
BYBLOCK
10
8.9999617920
20
13.1811754150
0
VERTEX
8
0
62
2
6
BYBLOCK
10
9.0064722290
20
13.2007060547
0
VERTEX
8
0
62
2
6
BYBLOCK
10
9.0129826660
20
13.2332575684
0
VERTEX
8
0
62
2
6
BYBLOCK
10
9.0064722290
20
13.2658104248
0
VERTEX
8
0
62
2
6
BYBLOCK
10
8.9999617920
20
13.2853410645
0
VERTEX
8
0
62
2
6
BYBLOCK
10
8.9869409180
20
13.3048730469
0
VERTEX
8
0
62
2
6
BYBLOCK
10
8.9674096069
20
13.3244036865
0
VERTEX
8
0
62
2
6
BYBLOCK
10
8.9478782959
20
13.3374245605
0
VERTEX
8
0
62
2
6
BYBLOCK
10
8.9283469849
20
13.3439356689
0
VERTEX
8
0
62
2
6
BYBLOCK
10
8.8957947998
20
13.3504454346
0
VERTEX
8
0
62
2
6
BYBLOCK
10
8.8632426147
20
13.3439356689
0
VERTEX
8
0
62
2
6
BYBLOCK
10
8.8437113037
20
13.3374245605
0
VERTEX
8
0
62
2
6
BYBLOCK
10
8.8241799927
20
13.3244036865
0
VERTEX
8
0
62
2
6
BYBLOCK
10
8.8046493530
20
13.3048730469
0
VERTEX
8
0
62
2
6
BYBLOCK
10
8.7916284790
20
13.2853410645
0
VERTEX
8
0
62
2
6
BYBLOCK
10
8.7851180420
20
13.2658104248
0
VERTEX
8
0
62
2
6
BYBLOCK
10
8.7786076050
20
13.2332575684
0
SEQEND
0
POLYLINE
8
0
62
2
6
BYBLOCK
66
1
70
0
0
VERTEX
8
0
62
2
6
BYBLOCK
10
8.8306904297
20
13.1681545410
0
VERTEX
8
0
62
2
6
BYBLOCK
10
8.8306904297
20
13.2983619385
0
VERTEX
8
0
62
2
6
BYBLOCK
10
8.8957947998
20
13.1681545410
0
VERTEX
8
0
62
2
6
BYBLOCK
10
8.9608991699
20
13.2983619385
0
VERTEX
8
0
62
2
6
BYBLOCK
10
8.9608991699
20
13.1681545410
0
SEQEND
0
INSERT
8
0
62
2
2
*TEXT99
10
0.0000000000
20
0.0000000000
0
INSERT
8
0
62
2
2
*TEXT100
10
0.0000000000
20
0.0000000000
0
INSERT
8
0
62
2
2
*TEXT101
10
0.0000000000
20
0.0000000000
0
INSERT
8
0
62
2
2
*TEXT102
10
0.0000000000
20
0.0000000000
0
INSERT
8
0
62
2
2
*TEXT103
10
0.0000000000
20
0.0000000000
0
INSERT
8
0
62
2
2
*TEXT104
10
0.0000000000
20
0.0000000000
0
INSERT
8
0
62
2
2
*TEXT105
10
0.0000000000
20
0.0000000000
0
INSERT
8
0
62
2
2
*TEXT106
10
0.0000000000
20
0.0000000000
0
INSERT
8
0
62
2
2
*TEXT107
10
0.0000000000
20
0.0000000000
0
LINE
8
0
10
0.0932979932
20
16.5917005869
11
0.0932979932
21
0.7543662438
0
LINE
8
0
10
0.5000000000
20
0.7500000000
11
0.5000000000
21
16.5917005869
0
LINE
8
0
10
3.0321847785
20
16.2418331125
11
3.0321847785
21
16.5683760886
0
LINE
8
0
10
19.1546283229
20
1.9040548750
11
19.7072107502
21
1.9877286815
0
LINE
8
0
10
21.5000000000
20
0.7500000000
11
0.0932979932
21
0.7500000000
0
LINE
8
0
10
11.5017014293
20
0.8169531540
11
11.3137458486
21
0.8169531540
0
LINE
8
0
10
11.3776507460
20
1.0047946841
11
11.5618472152
21
1.0047946841
0
LINE
8
0
10
21.5000000000
20
1.1250000000
11
14.9375000000
21
1.1250000000
0
LINE
8
0
10
13.1853028655
20
1.3096933268
11
13.3702661040
21
1.3096933268
0
LINE
8
0
10
11.3137458486
20
1.4030187278
11
11.4979423177
21
1.4030187278
0
LINE
8
0
10
11.5618472152
20
1.5645624436
11
11.3137458486
21
1.5645624436
0
LINE
8
0
10
13.1888598508
20
1.5656408702
11
13.3738230893
21
1.5656408702
0
LINE
8
0
10
21.5000000000
20
1.6250000000
11
14.9375000000
21
1.6250000000
0
LINE
8
0
10
11.3137458486
20
1.7486471431
11
11.5618472152
21
1.7486471431
0
LINE
8
0
10
11.2500000000
20
1.8125000000
11
14.9375000000
21
1.8125000000
0
LINE
8
0
10
18.5015763633
20
1.8409776979
11
18.8686765773
21
1.8409776979
0
LINE
8
0
10
19.1211384788
20
1.8409776979
11
19.7303960269
21
1.8409776979
0
LINE
8
0
10
14.9375000000
20
1.8750000000
11
18.4375000000
21
1.8750000000
0
LINE
8
0
10
19.8125000000
20
1.8750000000
11
21.5000000000
21
1.8750000000
0
LINE
8
0
10
21.5000000000
20
2.0625000000
11
19.8125000000
21
2.0625000000
0
LINE
8
0
10
14.9375000000
20
2.1875000000
11
19.8125000000
21
2.1875000000
0
LINE
8
0
10
19.8125000000
20
2.2500000000
11
21.5000000000
21
2.2500000000
0
LINE
8
0
10
21.5000000000
20
2.4375000000
11
19.8125000000
21
2.4375000000
0
LINE
8
0
10
5.6212040894
20
16.2185086142
11
5.6212040894
21
16.5917005869
0
LINE
8
0
10
14.9375000000
20
2.5000000000
11
19.8125000000
21
2.5000000000
0
LINE
8
0
10
11.2500000000
20
2.6250000000
11
14.9375000000
21
2.6250000000
0
LINE
8
0
10
19.8125000000
20
2.6250000000
11
21.5000000000
21
2.6250000000
0
LINE
8
0
10
0.4898144642
20
2.6436506058
11
0.0932979932
21
2.6436506058
0
LINE
8
0
10
11.2500000000
20
2.8125000000
11
21.5000000000
21
2.8125000000
0
LINE
8
0
10
19.7077975057
20
1.6972959529
11
19.1551516712
21
1.7811154312
0
LINE
8
0
10
7.9769784173
20
16.2185086142
11
7.9769784173
21
16.5917005869
0
LINE
8
0
10
0.4898144642
20
4.8594779440
11
0.0932979932
21
4.8594779440
0
LINE
8
0
10
13.3026833822
20
1.2137129981
11
13.3382532358
21
1.1781647282
0
LINE
8
0
10
11.3550960763
20
1.9139476895
11
11.3889280809
21
1.8651088917
0
LINE
8
0
10
0.4898144642
20
7.3551992616
11
0.0932979932
21
7.3551992616
0
LINE
8
0
10
10.4260507384
20
16.2418331125
11
10.4260507384
21
16.5917005869
0
LINE
8
0
10
11.2500000000
20
2.8125000000
11
11.2500000000
21
0.7500000000
0
LINE
8
0
10
11.3137458486
20
1.5608056130
11
11.3137458486
21
1.7486471431
0
LINE
8
0
10
11.4039645273
20
1.5006963234
11
11.4039645273
21
1.3090979628
0
LINE
8
0
10
11.5618472152
20
1.7486471431
11
11.5618472152
21
1.5645624436
0
LINE
8
0
10
0.4898144642
20
9.7342980878
11
0.1166224915
21
9.7342980878
0
LINE
8
0
10
12.8051495646
20
16.2418331125
11
12.8051495646
21
16.5683760886
0
LINE
8
0
10
13.2777844847
20
1.5620860432
11
13.2777844847
21
1.7469370467
0
LINE
8
0
10
11.5618472152
20
1.0047946841
11
11.5017014293
21
0.8169531540
0
LINE
8
0
10
11.3137458486
20
0.8169531540
11
11.3776507460
21
1.0047946841
0
LINE
8
0
10
14.9375000000
20
0.7500000000
11
14.9375000000
21
2.8125000000
0
LINE
8
0
10
0.4898144642
20
12.1367214123
11
0.0932979932
21
12.1367214123
0
LINE
8
0
10
15.1842483908
20
16.2418331125
11
15.1842483908
21
16.5683760886
0
LINE
8
0
10
16.1875000000
20
1.1250000000
11
16.1875000000
21
0.7500000000
0
LINE
8
0
10
13.3382532358
20
1.1781647282
11
13.3738230893
21
1.2492612680
0
LINE
8
0
10
11.3889280809
20
1.8651088917
11
11.5092196526
21
1.9627864873
0
LINE
8
0
10
16.6861897821
20
2.1876096366
11
16.6861897821
21
1.6236972573
0
LINE
8
0
10
13.1888598508
20
0.8120175481
11
13.3133543383
21
1.0004233787
0
LINE
8
0
10
13.2706705140
20
0.8120175481
11
13.3951650014
21
0.9968685517
0
LINE
8
0
10
0.4898144642
20
14.4924957402
11
0.1166224915
21
14.4924957402
0
LINE
8
0
10
17.4375000000
20
1.1250000000
11
17.4375000000
21
0.7500000000
0
LINE
8
0
10
17.6099962136
20
16.2418331125
11
17.6099962136
21
16.5917005869
0
LINE
8
0
10
13.1888598508
20
1.3096933268
11
13.3738230893
21
1.5016539843
0
LINE
8
0
10
13.1888598508
20
1.0608554375
11
13.3738230893
21
1.2492612680
0
LINE
8
0
10
18.4375000000
20
2.1875000000
11
18.4375000000
21
1.1250000000
0
LINE
8
0
10
18.6844824348
20
2.0186236254
11
18.6844824348
21
1.6633317704
0
LINE
8
0
10
18.6875000000
20
1.1250000000
11
18.6875000000
21
0.7500000000
0
LINE
8
0
10
13.3738230893
20
1.2492612680
11
13.3026833822
21
1.2137129981
0
LINE
8
0
10
3.1254827717
20
16.2418331125
11
3.1721317683
21
16.2418331125
0
LINE
8
0
10
0.0932979932
20
16.2500000000
11
21.5000000000
21
16.2500000000
0
LINE
8
0
10
19.1551516712
20
1.7796186548
11
19.1551516712
21
1.9038510959
0
LINE
8
0
10
0.0932979932
20
16.5917005869
11
21.5051874290
21
16.5917005869
0
LINE
8
0
10
19.5925785687
20
16.2418331125
11
19.5925785687
21
16.5917005869
0
LINE
8
0
10
19.7077975057
20
1.9861737979
11
19.7077975057
21
1.6972959529
0
LINE
8
0
10
19.8125000000
20
1.6250000000
11
19.8125000000
21
2.8125000000
0
LINE
8
0
10
19.9375000000
20
1.1250000000
11
19.9375000000
21
0.7500000000
0
LINE
8
0
10
20.4375000000
20
2.8125000000
11
20.4375000000
21
1.8750000000
0
LINE
8
0
10
20.9504961828
20
2.8130247294
11
20.9504961828
21
1.8757684426
0
LINE
8
0
10
21.1250000000
20
1.6250000000
11
21.1250000000
21
1.1250000000
0
LINE
8
0
10
21.5000000000
20
16.5917005869
11
21.5000000000
21
0.7500000000
0
LINE
8
0
10
6.9216845533
20
8.5852766264
11
6.9216845533
21
9.3286764946
0
LINE
8
0
62
2
10
11.4524304054
20
4.7562596395
11
10.9211804054
21
4.7562596395
0
LINE
8
0
62
2
10
6.5903273140
20
4.7946111718
11
6.3403273140
21
4.7946111718
0
POLYLINE
8
0
66
1
70
0
0
VERTEX
8
0
10
7.5842953576
20
8.5122180055
0
VERTEX
8
0
10
7.6006059165
20
8.3447419121
0
VERTEX
8
0
10
7.6493707349
20
8.1824631297
0
VERTEX
8
0
10
7.7290412012
20
8.0322445032
0
VERTEX
8
0
10
7.8363679703
20
7.9004668679
0
VERTEX
8
0
10
7.9671133709
20
7.7921547394
0
VERTEX
8
0
10
8.1163523714
20
7.7112511668
0
VERTEX
8
0
10
8.2787603005
20
7.6606996723
0
SEQEND
0
POLYLINE
8
DEFAULT_2
66
1
70
0
0
VERTEX
8
DEFAULT_2
10
7.5923875884
20
8.5119044819
0
VERTEX
8
DEFAULT_2
10
7.6056080068
20
8.3608366407
0
VERTEX
8
DEFAULT_2
10
7.6452110615
20
8.2134257111
0
VERTEX
8
DEFAULT_2
10
7.7102519592
20
8.0747394854
0
SEQEND
0
LINE
8
0
10
7.3385032401
20
12.6764324001
11
7.3385032401
21
8.5118261009
0
LINE
8
0
62
2
10
7.3385032401
20
12.7389324001
11
7.3385032401
21
13.3895080918
0
LINE
8
DEFAULT_2
10
7.5432276495
20
12.4717079906
11
7.5432276495
21
11.4224953922
0
LINE
8
DEFAULT_2
10
7.5432276495
20
11.3713142898
11
7.5432276495
21
10.1429678331
0
LINE
8
DEFAULT_2
10
7.5432276495
20
10.0917867308
11
7.5432276495
21
9.1193457859
0
LINE
8
DEFAULT_2
10
7.5432276495
20
9.0681646835
11
7.5432276495
21
8.5118261009
0
LINE
8
DEFAULT_2
10
7.5923853585
20
11.3713142902
11
7.5923857289
21
10.1429678331
0
LINE
8
DEFAULT_2
10
7.5923857736
20
10.0917867307
11
7.5923861328
21
9.1193457859
0
LINE
8
DEFAULT_2
10
7.5923861330
20
9.0681646836
11
7.5923860670
21
8.5119044731
0
LINE
8
DEFAULT_2
10
7.5924193365
20
12.4717095603
11
7.5923855413
21
11.4224953923
0
LINE
8
0
10
7.5845825412
20
12.6764324010
11
7.5842953273
21
8.5122180067
0
LINE
8
0
62
2
10
10.9211804054
20
5.0687596395
11
11.4524304054
21
5.0687596395
0
LINE
8
0
10
10.5190582850
20
5.4527234664
11
10.9211804054
21
5.4527234664
0
LINE
8
0
62
2
10
7.8528261567
20
13.0770080918
11
7.8528261567
21
13.3895080918
0
POLYLINE
8
DEFAULT_2
66
1
70
0
0
VERTEX
8
DEFAULT_2
10
12.0215740092
20
6.0179249644
0
VERTEX
8
DEFAULT_2
10
12.3072449781
20
6.0671253900
0
VERTEX
8
DEFAULT_2
10
12.5883964413
20
6.1500124691
0
VERTEX
8
DEFAULT_2
10
12.8599341262
20
6.2660438177
0
VERTEX
8
DEFAULT_2
10
13.1167976319
20
6.4136608917
0
VERTEX
8
DEFAULT_2
10
13.3545406637
20
6.5905063546
0
VERTEX
8
DEFAULT_2
10
13.5695436675
20
6.7938505802
0
VERTEX
8
DEFAULT_2
10
13.7589885861
20
7.0209205851
0
SEQEND
0
POLYLINE
8
0
66
1
70
0
0
VERTEX
8
0
10
11.7420848003
20
6.0021506989
0
VERTEX
8
0
10
12.1128719193
20
6.0296126051
0
VERTEX
8
0
10
12.4883615471
20
6.1153137131
0
VERTEX
8
0
10
12.8566343348
20
6.2622034205
0
VERTEX
8
0
10
13.2025637738
20
6.4685694067
0
VERTEX
8
0
10
13.5106030435
20
6.7267051057
0
VERTEX
8
0
10
13.7727601060
20
7.0297114154
0
VERTEX
8
0
10
13.9832641201
20
7.3705359618
0
VERTEX
8
0
10
14.1364327945
20
7.7395254713
0
VERTEX
8
0
10
14.2283937512
20
8.1243366728
0
VERTEX
8
0
10
14.2586155941
20
8.5122321990
0
SEQEND
0
POLYLINE
8
DEFAULT_2
66
1
70
0
0
VERTEX
8
DEFAULT_2
10
11.7388415901
20
6.0019546711
0
VERTEX
8
DEFAULT_2
10
11.8543909347
20
6.0046210016
0
VERTEX
8
DEFAULT_2
10
11.9703929090
20
6.0126590854
0
SEQEND
0
LINE
8
0
10
11.7380307991
20
5.7459993292
11
10.1043300117
21
5.7459993292
0
LINE
8
DEFAULT_2
10
10.1043300117
20
5.9507237387
11
10.1790544212
21
5.9507237387
0
LINE
8
DEFAULT_2
10
10.2302355235
20
5.9507237387
11
11.7380307991
21
5.9507237387
0
LINE
8
0
10
10.1011929757
20
6.0021537204
11
11.7420848051
21
6.0021506992
0
POLYLINE
8
DEFAULT_2
66
1
70
0
0
VERTEX
8
DEFAULT_2
10
7.7424364962
20
8.0235583839
0
VERTEX
8
DEFAULT_2
10
7.8493406392
20
7.8947010683
0
VERTEX
8
DEFAULT_2
10
7.9787496346
20
7.7888344445
0
VERTEX
8
DEFAULT_2
10
8.1259259406
20
7.7096990301
0
VERTEX
8
DEFAULT_2
10
8.2857919684
20
7.6600850880
0
SEQEND
0
LINE
8
DEFAULT_2
10
8.3877158385
20
7.5834568764
11
8.3877158385
21
8.0235583843
0
LINE
8
DEFAULT_2
10
8.3877158385
20
8.0747394867
11
8.3877158385
21
9.0681646835
0
LINE
8
DEFAULT_2
10
8.3877158385
20
9.1193457859
11
8.3877158385
21
10.0917867308
0
LINE
8
DEFAULT_2
10
8.3877158385
20
10.1429678331
11
8.3877158385
21
11.3713142898
0
LINE
8
DEFAULT_2
10
8.3877158385
20
11.4224953922
11
8.3877158385
21
12.4717079906
0
LINE
8
DEFAULT_2
10
8.4388969408
20
12.4717079906
11
8.4388969408
21
11.4224953922
0
LINE
8
DEFAULT_2
10
8.4388969408
20
11.3713142898
11
8.4388969408
21
10.1429678331
0
LINE
8
DEFAULT_2
10
8.4388969408
20
10.0917867308
11
8.4388969408
21
9.1193457859
0
LINE
8
DEFAULT_2
10
8.4388969408
20
9.0681646835
11
8.4388969408
21
8.0747394867
0
LINE
8
DEFAULT_2
10
8.4388969408
20
8.0235583843
11
8.4388969408
21
7.5689098282
0
LINE
8
0
62
2
10
8.5950136567
20
13.0770080918
11
8.5950136567
21
13.3895080918
0
POLYLINE
8
0
66
1
70
0
0
VERTEX
8
0
10
8.2631573940
20
7.5834255272
0
VERTEX
8
0
10
8.2499299941
20
7.5136017536
0
VERTEX
8
0
10
8.2403662914
20
7.4580285131
0
VERTEX
8
0
10
8.2353976981
20
7.4221181007
0
VERTEX
8
0
10
8.2355081071
20
7.4093678426
0
SEQEND
0
POLYLINE
8
DEFAULT_2
66
1
70
0
0
VERTEX
8
DEFAULT_2
10
8.2857910157
20
7.6600804837
0
VERTEX
8
DEFAULT_2
10
8.2819538594
20
7.6409401612
0
VERTEX
8
DEFAULT_2
10
8.2789636539
20
7.6246730680
0
VERTEX
8
DEFAULT_2
10
8.2772738912
20
7.6137459056
0
VERTEX
8
DEFAULT_2
10
8.2771406056
20
7.6098142291
0
SEQEND
0
LINE
8
0
10
8.2787602705
20
7.6606996749
11
8.2631573940
21
7.5834255272
0
LINE
8
0
10
9.7282965166
20
6.2090061370
11
9.6069752917
21
6.1752621151
0
LINE
8
DEFAULT_2
10
9.8071155438
20
6.2287471908
11
9.7727054356
21
6.2192734032
0
LINE
8
0
10
9.8036867126
20
6.2295897044
11
9.7282965166
21
6.2090061370
0
POLYLINE
8
DEFAULT_2
66
1
70
0
0
VERTEX
8
DEFAULT_2
10
9.3820392899
20
7.0209205748
0
VERTEX
8
DEFAULT_2
10
9.5179410251
20
6.8474155049
0
VERTEX
8
DEFAULT_2
10
9.6232430740
20
6.6792710811
0
VERTEX
8
DEFAULT_2
10
9.7036033230
20
6.5190296478
0
VERTEX
8
DEFAULT_2
10
9.7635646261
20
6.3685878952
0
VERTEX
8
DEFAULT_2
10
9.8071133190
20
6.2287468690
0
SEQEND
0
LINE
8
0
62
2
10
9.1431907401
20
13.0770080918
11
9.1431907401
21
13.3895080918
0
LINE
8
DEFAULT_2
10
13.8204442883
20
7.0209205891
11
13.8129126889
21
7.0209205891
0
LINE
8
DEFAULT_2
10
13.7617315865
20
7.0209205891
11
12.0215741062
21
7.0209205891
0
LINE
8
DEFAULT_2
10
9.3142625812
20
7.0209205891
11
10.1790544212
21
7.0209205891
0
LINE
8
DEFAULT_2
10
10.2302355235
20
7.0209205891
11
11.9703930038
21
7.0209205891
0
LINE
8
DEFAULT_2
10
9.2655278886
20
7.0721016914
11
10.1790544212
21
7.0721016914
0
LINE
8
DEFAULT_2
10
10.2302355235
20
7.0721016914
11
11.9703930038
21
7.0721016914
0
LINE
8
DEFAULT_2
10
12.0215741062
20
7.0721016914
11
13.7617315865
21
7.0721016914
0
LINE
8
DEFAULT_2
10
13.8129126889
20
7.0721016914
11
13.8561517717
21
7.0721016914
0
POLYLINE
8
DEFAULT_2
66
1
70
0
0
VERTEX
8
DEFAULT_2
10
8.2857910157
20
7.6600804837
0
VERTEX
8
DEFAULT_2
10
8.3370011380
20
7.6487416847
0
VERTEX
8
DEFAULT_2
10
8.3877159314
20
7.6361121203
0
SEQEND
0
POLYLINE
8
0
66
1
70
0
0
VERTEX
8
0
10
8.2787602705
20
7.6606996749
0
VERTEX
8
0
10
8.5864078871
20
7.5708261456
0
VERTEX
8
0
10
8.8750926194
20
7.4335136756
0
VERTEX
8
0
10
9.1365251679
20
7.2534850446
0
VERTEX
8
0
10
9.3631744694
20
7.0378015406
0
VERTEX
8
0
10
9.5513672812
20
6.7925146850
0
VERTEX
8
0
10
9.6990095657
20
6.5219870069
0
VERTEX
8
0
10
9.8036866564
20
6.2295897182
0
SEQEND
0
POLYLINE
8
DEFAULT_2
66
1
70
0
0
VERTEX
8
DEFAULT_2
10
8.4388970366
20
7.6219262002
0
VERTEX
8
DEFAULT_2
10
8.7081608633
20
7.5219313940
0
VERTEX
8
DEFAULT_2
10
8.9527899342
20
7.3891526929
0
VERTEX
8
DEFAULT_2
10
9.1632565627
20
7.2349461652
0
VERTEX
8
DEFAULT_2
10
9.3355892517
20
7.0721016777
0
SEQEND
0
POLYLINE
8
DEFAULT_2
66
1
70
0
0
VERTEX
8
DEFAULT_2
10
9.8071155438
20
6.2287471908
0
VERTEX
8
DEFAULT_2
10
9.8378993818
20
6.1550192163
0
VERTEX
8
DEFAULT_2
10
9.8867387870
20
6.0916333150
0
VERTEX
8
DEFAULT_2
10
9.9502940131
20
6.0429915641
0
VERTEX
8
DEFAULT_2
10
10.0242297756
20
6.0124102890
0
VERTEX
8
DEFAULT_2
10
10.1037026258
20
6.0019578187
0
SEQEND
0
POLYLINE
8
0
66
1
70
0
0
VERTEX
8
0
10
9.8036867126
20
6.2295897044
0
VERTEX
8
0
10
9.8281438852
20
6.1673304280
0
VERTEX
8
0
10
9.8654750140
20
6.1117926305
0
VERTEX
8
0
10
9.9139171635
20
6.0655956739
0
VERTEX
8
0
10
9.9711942430
20
6.0309274175
0
VERTEX
8
0
10
10.0346060906
20
6.0094368661
0
VERTEX
8
0
10
10.1011930437
20
6.0021537153
0
SEQEND
0
POLYLINE
8
0
66
1
70
0
0
VERTEX
8
0
10
10.1017910541
20
5.8516082399
0
VERTEX
8
0
10
10.1024851513
20
5.7949315187
0
VERTEX
8
0
10
10.1033600518
20
5.7585396612
0
VERTEX
8
0
10
10.1043300117
20
5.7459993292
0
SEQEND
0
POLYLINE
8
DEFAULT_2
66
1
70
0
0
VERTEX
8
DEFAULT_2
10
10.1037024779
20
6.0019546169
0
VERTEX
8
DEFAULT_2
10
10.1037501314
20
5.9823545645
0
VERTEX
8
DEFAULT_2
10
10.1038861008
20
5.9657327670
0
VERTEX
8
DEFAULT_2
10
10.1040897339
20
5.9546246875
0
VERTEX
8
DEFAULT_2
10
10.1043300132
20
5.9507237387
0
SEQEND
0
LINE
8
0
10
10.1011929757
20
6.0021537204
11
10.1017910541
21
5.8516082399
0
LINE
8
DEFAULT_2
10
10.1790544212
20
5.9507237387
11
10.1790544212
21
7.0209205891
0
LINE
8
DEFAULT_2
10
10.1790544212
20
7.0721016914
11
10.1790544212
21
8.0235583843
0
LINE
8
DEFAULT_2
10
10.1790544212
20
8.0747394867
11
10.1790544212
21
9.0681646835
0
LINE
8
DEFAULT_2
10
10.1790544212
20
9.1193457859
11
10.1790544212
21
10.0917867308
0
LINE
8
DEFAULT_2
10
10.1790544212
20
10.1429678331
11
10.1790544212
21
11.3713142898
0
LINE
8
DEFAULT_2
10
10.1790544212
20
11.4224953922
11
10.1790544212
21
12.4717079906
0
LINE
8
DEFAULT_2
10
10.2302355235
20
12.4717079906
11
10.2302355235
21
11.4224953922
0
LINE
8
DEFAULT_2
10
10.2302355235
20
11.3713142898
11
10.2302355235
21
10.1429678331
0
LINE
8
DEFAULT_2
10
10.2302355235
20
10.0917867308
11
10.2302355235
21
9.1193457859
0
LINE
8
DEFAULT_2
10
10.2302355235
20
9.0681646835
11
10.2302355235
21
8.0747394867
0
LINE
8
DEFAULT_2
10
10.2302355235
20
8.0235583843
11
10.2302355235
21
7.0721016914
0
LINE
8
DEFAULT_2
10
10.2302355235
20
7.0209205891
11
10.2302355235
21
5.9507237387
0
LINE
8
DEFAULT_2
10
14.2521588824
20
8.0235583843
11
13.8129126889
21
8.0235583843
0
LINE
8
DEFAULT_2
10
13.7617315865
20
8.0235583843
11
12.0215741062
21
8.0235583843
0
LINE
8
DEFAULT_2
10
11.9703930038
20
8.0235583843
11
10.2302355235
21
8.0235583843
0
LINE
8
DEFAULT_2
10
10.1790544212
20
8.0235583843
11
8.4388969408
21
8.0235583843
0
LINE
8
DEFAULT_2
10
8.3877158385
20
8.0235583843
11
7.6832617927
21
8.0235583843
0
LINE
8
DEFAULT_2
10
7.6535172989
20
8.0747394867
11
8.3877158385
21
8.0747394867
0
LINE
8
DEFAULT_2
10
8.4388969408
20
8.0747394867
11
10.1790544212
21
8.0747394867
0
LINE
8
DEFAULT_2
10
10.2302355235
20
8.0747394867
11
11.9703930038
21
8.0747394867
0
LINE
8
DEFAULT_2
10
12.0215741062
20
8.0747394867
11
13.7617315865
21
8.0747394867
0
LINE
8
DEFAULT_2
10
13.8129126889
20
8.0747394867
11
14.2615602218
21
8.0747394867
0
LINE
8
0
62
2
10
10.9211804054
20
5.4435190987
11
10.9211804054
21
4.7562596395
0
LINE
8
DEFAULT_3
10
10.9211804054
20
5.4527234664
11
10.9211804054
21
13.0690058679
0
LINE
8
0
62
2
10
7.3385952498
20
5.5703695713
11
6.5903273140
21
4.7946111718
0
LINE
8
0
10
7.3504128315
20
8.5119443477
11
7.3385056788
21
8.5118261012
0
LINE
8
DEFAULT_2
10
7.5469343359
20
8.5118553984
11
7.5432298414
21
8.5118260968
0
LINE
8
DEFAULT_2
10
7.5923875884
20
8.5119044819
11
7.5842953576
21
8.5122180055
0
LINE
8
0
10
7.5842953576
20
8.5122180055
11
7.3504128315
21
8.5119443477
0
LINE
8
DEFAULT_2
10
14.2500847676
20
8.5119072316
11
14.2586156020
21
8.5122321993
0
POLYLINE
8
0
66
1
70
0
0
VERTEX
8
0
10
14.2586156020
20
8.5122321993
0
VERTEX
8
0
10
14.4919834386
20
8.5119484750
0
VERTEX
8
0
10
14.5038575708
20
8.5118261010
0
SEQEND
0
LINE
8
DEFAULT_2
10
14.2954386597
20
8.5118564134
11
14.2991331613
21
8.5118261010
0
LINE
8
0
62
2
10
11.4524304054
20
5.0687596395
11
11.4524304054
21
4.7562596395
0
LINE
8
DEFAULT_2
10
14.2991331613
20
9.0681646835
11
13.8129126889
21
9.0681646835
0
LINE
8
DEFAULT_2
10
13.7617315865
20
9.0681646835
11
12.0215741062
21
9.0681646835
0
LINE
8
DEFAULT_2
10
8.3877158385
20
9.0681646835
11
7.5432276495
21
9.0681646835
0
LINE
8
DEFAULT_2
10
8.4388969408
20
9.0681646835
11
10.1790544212
21
9.0681646835
0
LINE
8
DEFAULT_2
10
10.2302355235
20
9.0681646835
11
11.9703930038
21
9.0681646835
0
LINE
8
0
62
2
10
11.6911804054
20
9.0727709828
11
10.1511804054
21
9.0727709828
0
LINE
8
DEFAULT_2
10
7.5432276495
20
9.1193457859
11
8.3877158385
21
9.1193457859
0
LINE
8
DEFAULT_2
10
8.4388969408
20
9.1193457859
11
10.1790544212
21
9.1193457859
0
LINE
8
DEFAULT_2
10
10.2302355235
20
9.1193457859
11
11.9703930038
21
9.1193457859
0
LINE
8
DEFAULT_2
10
12.0215741062
20
9.1193457859
11
13.7617315865
21
9.1193457859
0
LINE
8
DEFAULT_2
10
13.8129126889
20
9.1193457859
11
14.2991331613
21
9.1193457859
0
LINE
8
DEFAULT_2
10
11.9703930038
20
5.9612863957
11
11.9703930038
21
7.0209205891
0
LINE
8
DEFAULT_2
10
11.9703930038
20
7.0721016914
11
11.9703930038
21
8.0235583843
0
LINE
8
DEFAULT_2
10
11.9703930038
20
8.0747394867
11
11.9703930038
21
9.0681646835
0
LINE
8
DEFAULT_2
10
11.9703930038
20
9.1193457859
11
11.9703930038
21
10.0917867308
0
LINE
8
DEFAULT_2
10
11.9703930038
20
10.1429678331
11
11.9703930038
21
11.3713142898
0
LINE
8
DEFAULT_2
10
11.9703930038
20
11.4224953922
11
11.9703930038
21
12.4717079906
0
LINE
8
DEFAULT_2
10
12.0215741062
20
12.4717079906
11
12.0215741062
21
11.4224953922
0
LINE
8
DEFAULT_2
10
12.0215741062
20
11.3713142898
11
12.0215741062
21
10.1429678331
0
LINE
8
DEFAULT_2
10
12.0215741062
20
10.0917867308
11
12.0215741062
21
9.1193457859
0
LINE
8
DEFAULT_2
10
12.0215741062
20
9.0681646835
11
12.0215741062
21
8.0747394867
0
LINE
8
DEFAULT_2
10
12.0215741062
20
8.0235583843
11
12.0215741062
21
7.0721016914
0
LINE
8
DEFAULT_2
10
12.0215741062
20
7.0209205891
11
12.0215741062
21
5.9664679370
0
POLYLINE
8
0
66
1
70
0
0
VERTEX
8
0
10
11.7420848003
20
6.0021506989
0
VERTEX
8
0
10
11.7418873449
20
5.9230130035
0
VERTEX
8
0
10
11.7413119267
20
5.8516072099
0
VERTEX
8
0
10
11.7404149399
20
5.7949314667
0
VERTEX
8
0
10
11.7392842942
20
5.7585402994
0
VERTEX
8
0
10
11.7380307991
20
5.7460002364
0
SEQEND
0
POLYLINE
8
DEFAULT_2
66
1
70
0
0
VERTEX
8
DEFAULT_2
10
11.7388415901
20
6.0019546711
0
VERTEX
8
DEFAULT_2
10
11.7387801074
20
5.9823532301
0
VERTEX
8
DEFAULT_2
10
11.7386043976
20
5.9657324032
0
VERTEX
8
DEFAULT_2
10
11.7383412591
20
5.9546252152
0
VERTEX
8
DEFAULT_2
10
11.7380307989
20
5.9507246194
0
SEQEND
0
LINE
8
DEFAULT_3
10
6.9216845533
20
9.3286764946
11
14.8267023952
21
9.3286764946
0
LINE
8
0
62
2
10
14.8892023952
20
9.3286764946
11
15.6755030828
21
9.3286764946
0
LINE
8
0
62
2
10
15.1442530828
20
9.6411764946
11
15.6755030828
21
9.6411764946
0
LINE
8
DEFAULT_2
10
14.2991331613
20
10.0917867308
11
13.8129126889
21
10.0917867308
0
LINE
8
DEFAULT_2
10
13.7617315865
20
10.0917867308
11
12.0215741062
21
10.0917867308
0
LINE
8
DEFAULT_2
10
8.3877158385
20
10.0917867308
11
7.5432276495
21
10.0917867308
0
LINE
8
DEFAULT_2
10
8.4388969408
20
10.0917867308
11
10.1790544212
21
10.0917867308
0
LINE
8
DEFAULT_2
10
10.2302355235
20
10.0917867308
11
11.9703930038
21
10.0917867308
0
LINE
8
DEFAULT_2
10
7.5432276495
20
10.1429678331
11
8.3877158385
21
10.1429678331
0
LINE
8
DEFAULT_2
10
8.4388969408
20
10.1429678331
11
10.1790544212
21
10.1429678331
0
LINE
8
DEFAULT_2
10
10.2302355235
20
10.1429678331
11
11.9703930038
21
10.1429678331
0
LINE
8
DEFAULT_2
10
12.0215741062
20
10.1429678331
11
13.7617315865
21
10.1429678331
0
LINE
8
DEFAULT_2
10
13.8129126889
20
10.1429678331
11
14.2991331613
21
10.1429678331
0
POLYLINE
8
0
66
1
70
0
0
VERTEX
8
0
10
9.6069752917
20
6.1752621151
0
VERTEX
8
0
10
9.5726948514
20
6.1653421305
0
VERTEX
8
0
10
9.5610083641
20
6.1614907614
0
SEQEND
0
POLYLINE
8
DEFAULT_2
66
1
70
0
0
VERTEX
8
DEFAULT_2
10
9.7727054356
20
6.2192734032
0
VERTEX
8
DEFAULT_2
10
9.7622265532
20
6.2162855367
0
VERTEX
8
DEFAULT_2
10
9.7585804228
20
6.2151275003
0
SEQEND
0
LINE
8
DEFAULT_2
10
14.2991331613
20
11.3713142898
11
13.8129126889
21
11.3713142898
0
LINE
8
DEFAULT_2
10
13.7617315865
20
11.3713142898
11
12.0215741062
21
11.3713142898
0
LINE
8
DEFAULT_2
10
8.3877158385
20
11.3713142898
11
7.5432276495
21
11.3713142898
0
LINE
8
DEFAULT_2
10
8.4388969408
20
11.3713142898
11
10.1790544212
21
11.3713142898
0
LINE
8
DEFAULT_2
10
10.2302355235
20
11.3713142898
11
11.9703930038
21
11.3713142898
0
LINE
8
DEFAULT_2
10
13.7617315865
20
6.9421526983
11
13.7617315865
21
7.0209205891
0
LINE
8
DEFAULT_2
10
13.7617315865
20
7.0721016914
11
13.7617315865
21
8.0235583843
0
LINE
8
DEFAULT_2
10
13.7617315865
20
8.0747394867
11
13.7617315865
21
9.0681646835
0
LINE
8
DEFAULT_2
10
13.7617315865
20
9.1193457859
11
13.7617315865
21
10.0917867308
0
LINE
8
DEFAULT_2
10
13.7617315865
20
10.1429678331
11
13.7617315865
21
11.3713142898
0
LINE
8
DEFAULT_2
10
13.7617315865
20
11.4224953922
11
13.7617315865
21
12.4717079906
0
LINE
8
DEFAULT_2
10
13.8129126889
20
12.4717079906
11
13.8129126889
21
11.4224953922
0
LINE
8
DEFAULT_2
10
13.8129126889
20
11.3713142898
11
13.8129126889
21
10.1429678331
0
LINE
8
DEFAULT_2
10
13.8129126889
20
10.0917867308
11
13.8129126889
21
9.1193457859
0
LINE
8
DEFAULT_2
10
13.8129126889
20
9.0681646835
11
13.8129126889
21
8.0747394867
0
LINE
8
DEFAULT_2
10
13.8129126889
20
8.0235583843
11
13.8129126889
21
7.0721016914
0
LINE
8
DEFAULT_2
10
13.8129126889
20
7.0209205891
11
13.8129126889
21
7.0104565753
0
LINE
8
DEFAULT_2
10
7.5432276495
20
11.4224953922
11
8.3877158385
21
11.4224953922
0
LINE
8
DEFAULT_2
10
8.4388969408
20
11.4224953922
11
10.1790544212
21
11.4224953922
0
LINE
8
DEFAULT_2
10
10.2302355235
20
11.4224953922
11
11.9703930038
21
11.4224953922
0
LINE
8
DEFAULT_2
10
12.0215741062
20
11.4224953922
11
13.7617315865
21
11.4224953922
0
LINE
8
DEFAULT_2
10
13.8129126889
20
11.4224953922
11
14.2991331613
21
11.4224953922
0
LINE
8
DEFAULT_2
10
14.2500847676
20
8.5119072316
11
14.2500848304
21
9.0681646835
0
LINE
8
DEFAULT_2
10
14.2500848303
20
9.1193457859
11
14.2500845403
21
10.0917867307
0
LINE
8
DEFAULT_2
10
14.2500845042
20
10.1429678332
11
14.2500838788
21
11.3713142905
0
LINE
8
DEFAULT_2
10
14.2991331613
20
8.5118261009
11
14.2991331613
21
9.0681646835
0
LINE
8
DEFAULT_2
10
14.2991331613
20
9.1193457859
11
14.2991331613
21
10.0917867308
0
LINE
8
DEFAULT_2
10
14.2991331613
20
10.1429678331
11
14.2991331613
21
11.3713142898
0
LINE
8
DEFAULT_2
10
14.2991331613
20
11.4224953922
11
14.2991331613
21
12.4717079906
0
LINE
8
0
10
14.5038575708
20
8.5118261009
11
14.5038575708
21
12.6764324001
0
LINE
8
DEFAULT_2
10
14.2500840328
20
11.4224953923
11
14.2501136697
21
12.4717089908
0
LINE
8
0
10
14.2586156020
20
8.5122321993
11
14.2586773642
21
12.2472471617
0
LINE
8
0
10
14.2586773642
20
12.2472471617
11
14.2588507457
21
12.6764324004
0
POLYLINE
8
DEFAULT_2
66
1
70
0
0
VERTEX
8
DEFAULT_2
10
14.2117031519
20
8.0747394868
0
VERTEX
8
DEFAULT_2
10
14.2404618464
20
8.2924855099
0
VERTEX
8
DEFAULT_2
10
14.2500835598
20
8.5119073139
0
SEQEND
0
POLYLINE
8
DEFAULT_2
66
1
70
0
0
VERTEX
8
DEFAULT_2
10
13.8129126784
20
7.0968102851
0
VERTEX
8
DEFAULT_2
10
13.9448835030
20
7.3126324204
0
VERTEX
8
DEFAULT_2
10
14.0544944316
20
7.5407599898
0
VERTEX
8
DEFAULT_2
10
14.1405259046
20
7.7786085478
0
VERTEX
8
DEFAULT_2
10
14.2020966481
20
8.0235583846
0
SEQEND
0
LINE
8
0
62
2
10
14.7760783726
20
12.9889324001
11
14.7760783726
21
12.6764324001
0
LINE
8
0
10
14.8267023952
20
8.5852766264
11
14.8267023952
21
9.3286764946
0
LINE
8
0
62
2
10
15.1442530828
20
9.3286764946
11
15.1442530828
21
9.6411764946
0
LINE
8
DEFAULT_2
10
13.7617315865
20
12.4717079906
11
12.0215741062
21
12.4717079906
0
LINE
8
DEFAULT_2
10
11.9703930038
20
12.4717079906
11
10.2302355235
21
12.4717079906
0
LINE
8
DEFAULT_2
10
10.1790544212
20
12.4717079906
11
8.4388969408
21
12.4717079906
0
LINE
8
DEFAULT_2
10
7.5432276495
20
12.4717079906
11
8.3877158385
21
12.4717079906
0
LINE
8
DEFAULT_2
10
13.8129126889
20
12.4717079906
11
14.2991331613
21
12.4717079906
0
LINE
8
0
10
7.3385032401
20
12.6764324001
11
14.5038575708
21
12.6764324001
0
LINE
8
0
62
2
10
14.5663575708
20
12.6764324001
11
16.5807658726
21
12.6764324001
0
LINE
8
0
62
2
10
16.5807658726
20
12.9889324001
11
14.7760783726
21
12.9889324001
0
LINE
8
0
62
2
10
15.2904012892
20
12.6764324001
11
15.2904012892
21
12.9889324001
0
LINE
8
0
62
2
10
15.6755030828
20
9.6411764946
11
15.6755030828
21
9.3286764946
0
LINE
8
0
10
10.5190582850
20
13.0690058679
11
10.9211804054
21
13.0690058679
0
LINE
8
0
62
2
10
7.3385032401
20
13.0770080918
11
9.1431907401
21
13.0770080918
0
LINE
8
0
62
2
10
9.1431907401
20
13.3895080918
11
7.3385032401
21
13.3895080918
0
LINE
8
0
62
2
10
16.0325887892
20
12.6764324001
11
16.0325887892
21
12.9889324001
0
LINE
8
0
62
2
10
16.5807658726
20
12.6764324001
11
16.5807658726
21
12.9889324001
0
LINE
8
0
10
7.3385032401
20
14.7856333296
11
7.3385032401
21
14.2637214623
0
LINE
8
0
10
7.5432276495
20
14.7773618481
11
7.5432276495
21
14.2637214623
0
LINE
8
0
10
8.3877158385
20
14.1833999622
11
8.3877158385
21
14.7462793427
0
LINE
8
0
10
8.4388969408
20
14.1817000946
11
8.4388969408
21
14.7445828334
0
LINE
8
0
62
2
10
7.5432276495
20
14.6673588138
11
7.3385032401
21
14.4626344044
0
LINE
8
0
62
2
10
7.7063494596
20
14.2082266565
11
7.5179757397
21
14.0198529365
0
LINE
8
0
10
14.2500848138
20
14.2236100764
11
13.8129126889
21
14.2059085727
0
POLYLINE
8
0
66
1
70
0
0
VERTEX
8
0
10
13.7617315865
20
14.2039142574
0
VERTEX
8
0
10
12.9181122269
20
14.1741134593
0
VERTEX
8
0
10
12.0215741062
20
14.1507904282
0
SEQEND
0
POLYLINE
8
0
66
1
70
0
0
VERTEX
8
0
10
11.9703930038
20
14.1497798549
0
VERTEX
8
0
10
11.1214671398
20
14.1389928642
0
VERTEX
8
0
10
10.2302355235
20
14.1411883793
0
SEQEND
0
POLYLINE
8
0
66
1
70
0
0
VERTEX
8
0
10
10.1790544212
20
14.1417312326
0
VERTEX
8
0
10
9.3264451466
20
14.1565354076
0
VERTEX
8
0
10
8.4388969408
20
14.1817000946
0
SEQEND
0
POLYLINE
8
0
66
1
70
0
0
VERTEX
8
0
10
7.5842955963
20
14.0080158525
0
VERTEX
8
0
10
9.4989886182
20
13.9479523318
0
VERTEX
8
0
10
11.2501122123
20
13.9351280703
0
VERTEX
8
0
10
12.8366967826
20
13.9667815764
0
VERTEX
8
0
10
14.2586158504
20
14.0190633983
0
SEQEND
0
POLYLINE
8
0
66
1
70
0
0
VERTEX
8
0
10
8.3877158385
20
14.1833999622
0
VERTEX
8
0
10
7.9933152331
20
14.1972636825
0
VERTEX
8
0
10
7.5923861193
20
14.2125804061
0
SEQEND
0
LINE
8
0
62
2
10
8.4388969408
20
14.3185201703
11
8.3877158385
21
14.2673390679
0
LINE
8
0
62
2
10
8.3066271124
20
14.1862503418
11
8.1118435537
21
13.9914667831
0
LINE
8
0
10
14.5038575708
20
14.7971473907
11
14.2991331613
21
14.7884738175
0
LINE
8
0
10
13.8129126889
20
14.7687447439
11
13.7617315865
21
14.7667533976
0
LINE
8
0
10
12.0215741062
20
14.7137457174
11
11.9703930038
21
14.7127379982
0
LINE
8
0
10
10.2302355235
20
14.7041712397
11
10.1790544212
21
14.7047124969
0
LINE
8
0
10
8.4388969408
20
14.7445828334
11
8.3877158385
21
14.7462793427
0
LINE
8
0
10
7.5432276495
20
14.7773618481
11
7.3385032401
21
14.7856333296
0
LINE
8
0
10
10.1790544212
20
14.1417312326
11
10.1790544212
21
14.7047124969
0
LINE
8
0
10
10.2302355235
20
14.1411883793
11
10.2302355235
21
14.7041712397
0
LINE
8
0
62
2
10
8.9109467860
20
14.1683160480
11
8.7151712569
21
13.9725405189
0
LINE
8
0
62
2
10
9.5180924687
20
14.1532077632
11
9.3184989602
21
13.9536142547
0
LINE
8
0
62
2
10
10.2302355235
20
14.2430968506
11
10.1790544212
21
14.1919157482
0
LINE
8
0
62
2
10
10.1297264064
20
14.1425877335
11
9.9319204512
21
13.9447817783
0
LINE
8
0
62
2
10
10.7493023184
20
14.1399096781
11
10.5496505051
21
13.9402578648
0
LINE
8
0
10
11.9703930038
20
14.1497798549
11
11.9703930038
21
14.7127379982
0
LINE
8
0
10
12.0215741062
20
14.1507904282
11
12.0215741062
21
14.7137457174
0
LINE
8
0
62
2
10
11.3738463626
20
14.1421997547
11
11.1673805590
21
13.9357339512
0
LINE
8
0
62
2
10
12.0215741062
20
14.1676735310
11
11.7999992892
21
13.9460987140
0
LINE
8
0
62
2
10
12.6431140496
20
14.1669595069
11
12.4349203904
21
13.9587658477
0
LINE
8
0
62
2
10
13.8129126889
20
14.7145041787
11
13.7617315865
21
14.6633230764
0
LINE
8
0
62
2
10
13.2854999152
20
14.1870914051
11
13.0739121378
21
13.9755036276
0
LINE
8
0
10
13.7617315865
20
14.2039142574
11
13.7617315865
21
14.7667533976
0
LINE
8
0
10
13.8129126889
20
14.2059085727
11
13.8129126889
21
14.7687447439
0
LINE
8
0
62
2
10
14.5038575708
20
14.7831950932
11
14.2991331613
21
14.5784706837
0
LINE
8
0
62
2
10
13.9312890240
20
14.2106265464
11
13.7199187968
21
13.9992563192
0
LINE
8
0
10
14.2991331613
20
14.7884738175
11
14.2991331613
21
14.2747466385
0
LINE
8
0
10
14.5038575708
20
14.7971473907
11
14.5038575708
21
14.2747466385
0
LINE
8
0
62
2
10
17.9629580068
20
12.4706720109
11
18.1687183959
21
12.6764324001
0
LINE
8
0
62
2
10
17.9359042533
20
11.8213642900
11
18.1443754121
21
12.0298354488
0
LINE
8
0
62
2
10
18.5862479539
20
12.4717079906
11
18.7534822973
21
12.6389423340
0
LINE
8
0
10
18.1853330155
20
5.7459993292
11
18.6976968526
21
5.7459993292
0
POLYLINE
8
0
66
1
70
0
0
VERTEX
8
0
10
18.1853330155
20
5.7459993292
0
VERTEX
8
0
10
18.1195827552
20
5.7545901685
0
VERTEX
8
0
10
18.0568635360
20
5.7805831898
0
VERTEX
8
0
10
18.0042810556
20
5.8210515387
0
VERTEX
8
0
10
17.9638881252
20
5.8736475283
0
VERTEX
8
0
10
17.9379708300
20
5.9363322621
0
VERTEX
8
0
10
17.9294272403
20
6.0021517651
0
SEQEND
0
LINE
8
0
62
2
10
17.9344070717
20
11.1976131410
11
18.1592893229
21
11.4224953922
0
LINE
8
0
10
18.1853330155
20
5.9507237387
11
18.6971168652
21
5.9507237387
0
LINE
8
0
62
2
10
17.9366346650
20
10.5775867669
11
18.1405552786
21
10.7815073804
0
LINE
8
0
62
2
10
17.9381147855
20
9.9568129199
11
18.1425194304
21
10.1612175647
0
POLYLINE
8
0
66
1
70
0
0
VERTEX
8
0
10
17.9294229789
20
6.0021517692
0
VERTEX
8
0
10
17.9346278981
20
7.2366126917
0
VERTEX
8
0
10
17.9366079642
20
7.8416655542
0
VERTEX
8
0
10
17.9379323363
20
8.4348308013
0
VERTEX
8
0
10
17.9386015225
20
9.0119592922
0
VERTEX
8
0
10
17.9386067712
20
9.5672252330
0
VERTEX
8
0
10
17.9379374849
20
10.0972116192
0
VERTEX
8
0
10
17.9365810234
20
10.5973654797
0
VERTEX
8
0
10
17.9346904968
20
11.0613414760
0
VERTEX
8
0
10
17.9338223704
20
11.4787393943
0
VERTEX
8
0
10
17.9361066784
20
11.8546783057
0
VERTEX
8
0
10
17.9440508890
20
12.1860675439
0
VERTEX
8
0
10
17.9618935846
20
12.4631431318
0
VERTEX
8
0
10
17.9920481162
20
12.6764324001
0
SEQEND
0
POLYLINE
8
0
66
1
70
0
0
VERTEX
8
0
10
18.1685836042
20
12.4717079906
0
VERTEX
8
0
10
18.1516466649
20
12.2459369141
0
VERTEX
8
0
10
18.1432856222
20
11.9974469179
0
VERTEX
8
0
10
18.1395208915
20
11.7251377568
0
VERTEX
8
0
10
18.1385280036
20
11.4224953922
0
SEQEND
0
LINE
8
0
10
18.1384960702
20
7.0209205891
11
18.7014860736
21
7.0209205891
0
LINE
8
0
10
18.7016970839
20
7.0721016914
11
18.1387070046
21
7.0721016914
0
POLYLINE
8
0
66
1
70
0
0
VERTEX
8
0
10
18.1341518600
20
6.0019542415
0
VERTEX
8
0
10
18.1379973545
20
5.9824408442
0
VERTEX
8
0
10
18.1491060562
20
5.9657507734
0
VERTEX
8
0
10
18.1658013439
20
5.9545971229
0
VERTEX
8
0
10
18.1853330155
20
5.9507237387
0
SEQEND
0
LINE
8
0
10
18.1385593519
20
11.3713142898
11
18.1413220050
21
10.5930830423
0
LINE
8
0
10
18.1413220050
20
10.5930830423
11
18.1425700311
21
10.1429678331
0
LINE
8
0
10
18.1426732007
20
10.0917867308
11
18.1433786441
21
9.1193457859
0
LINE
8
0
10
18.1433566402
20
9.0681646835
11
18.1419275592
21
8.0747394867
0
LINE
8
0
10
18.1418051888
20
8.0235583843
11
18.1387070046
21
7.0721016914
0
LINE
8
0
10
18.1384960702
20
7.0209205891
11
18.1341475746
21
6.0019542456
0
POLYLINE
8
0
66
1
70
0
0
VERTEX
8
0
10
18.7597646516
20
12.6764324001
0
VERTEX
8
0
10
18.7430177684
20
12.5764950637
0
VERTEX
8
0
10
18.7304596469
20
12.4717079906
0
SEQEND
0
LINE
8
0
62
2
10
17.9386045765
20
9.3350487434
11
18.1433102163
21
9.5397543833
0
LINE
8
0
62
2
10
18.6953425638
20
10.0917867308
11
18.7056442074
21
10.1020883743
0
LINE
8
0
62
2
10
17.9382542321
20
8.7124444316
11
18.1432107128
21
8.9174009123
0
LINE
8
0
62
2
10
18.2939744840
20
9.0681646835
11
18.3451555864
21
9.1193457859
0
LINE
8
0
10
18.7055613931
20
10.1429678331
11
18.7056646110
21
10.0917867308
0
LINE
8
0
10
18.6971168652
20
5.9507237387
11
18.6976968526
21
5.7459993292
0
LINE
8
0
10
18.7015203654
20
11.4224953922
11
18.7015516519
21
11.3713142898
0
LINE
8
0
10
18.7063704079
20
9.1193457859
11
18.7063484045
21
9.0681646835
0
LINE
8
0
10
18.7049189066
20
8.0747394867
11
18.7047964912
21
8.0235583843
0
LINE
8
0
10
18.7016970839
20
7.0721016914
11
18.7014860736
21
7.0209205891
0
LINE
8
0
62
2
10
17.9371604086
20
8.0890966407
11
18.1423439920
21
8.2942802241
0
LINE
8
0
10
18.7047964912
20
8.0235583843
11
18.1418051888
21
8.0235583843
0
LINE
8
0
62
2
10
17.9353754961
20
7.4650577608
11
18.1408005234
21
7.6704827880
0
LINE
8
0
62
2
10
18.4938761197
20
8.0235583843
11
18.5450572221
21
8.0747394867
0
LINE
8
0
10
18.7049189066
20
8.0747394867
11
18.1419275592
21
8.0747394867
0
LINE
8
0
62
2
10
17.9329109039
20
6.8403392011
11
18.1646733942
21
7.0721016914
0
LINE
8
0
62
2
10
17.9302977278
20
6.2154720575
11
18.1357853423
21
6.4209596720
0
LINE
8
0
10
18.1433566402
20
9.0681646835
11
18.7063484045
21
9.0681646835
0
LINE
8
0
10
18.7063704079
20
9.1193457859
11
18.1433786441
21
9.1193457859
0
LINE
8
0
62
2
10
18.0998484056
20
5.7627687679
11
18.2878033764
21
5.9507237387
0
LINE
8
0
10
18.1426732007
20
10.0917867308
11
18.7056646110
21
10.0917867308
0
LINE
8
0
10
18.7055613931
20
10.1429678331
11
18.1425700311
21
10.1429678331
0
LINE
8
0
10
18.1385593519
20
11.3713142898
11
18.7015516519
21
11.3713142898
0
LINE
8
0
10
18.7015203654
20
11.4224953922
11
18.1385280036
21
11.4224953922
0
LINE
8
0
10
18.7304596469
20
12.4717079906
11
18.1685836042
21
12.4717079906
0
LINE
8
0
10
18.7597646516
20
12.6764324001
11
17.9920481162
21
12.6764324001
0
LINE
8
0
10
1.9652674460
20
13.9171427046
11
1.5263272092
21
13.7824402392
0
LINE
8
0
10
1.5263272092
20
13.7824402392
11
1.5263272092
21
13.7525358634
0
LINE
8
0
10
6.0105908599
20
9.4974177561
11
5.7814453164
21
9.4974177561
0
LINE
8
DEFAULT_2
10
1.8412878391
20
13.8790957057
11
1.8412878391
21
13.7525358634
0
LINE
8
0
10
1.9044689714
20
13.8984848015
11
1.9044688263
21
13.7531391602
0
LINE
8
DEFAULT_2
10
1.9169161682
20
13.9023046110
11
1.9169161682
21
13.7526571045
0
LINE
8
0
10
5.2029321899
20
10.2097359619
11
5.0162843323
21
10.1578223267
0
LINE
8
DEFAULT_2
10
5.3241923523
20
10.2401068115
11
5.2712535095
21
10.2255316772
0
LINE
8
0
10
5.3189172668
20
10.2414032593
11
5.2029321899
21
10.2097359619
0
LINE
8
DEFAULT_2
10
5.7814453164
20
9.8123783860
11
5.8964059494
21
9.8123783860
0
LINE
8
DEFAULT_2
10
5.9751461068
20
9.8123783860
11
6.1472020953
21
9.8123783860
0
POLYLINE
8
0
66
1
70
0
0
VERTEX
8
0
10
1.9044689941
20
13.7531391602
0
VERTEX
8
0
10
1.9295620728
20
13.4954837646
0
VERTEX
8
0
10
2.0045848389
20
13.2458232422
0
VERTEX
8
0
10
2.1271548767
20
13.0147185059
0
VERTEX
8
0
10
2.2922728729
20
12.8119825439
0
VERTEX
8
0
10
2.4934196625
20
12.6453497314
0
VERTEX
8
0
10
2.7230181427
20
12.5208826904
0
VERTEX
8
0
10
2.9728765564
20
12.4431105957
0
SEQEND
0
POLYLINE
8
DEFAULT_2
66
1
70
0
0
VERTEX
8
DEFAULT_2
10
1.9169185181
20
13.7526571045
0
VERTEX
8
DEFAULT_2
10
1.9372576752
20
13.5202445068
0
VERTEX
8
DEFAULT_2
10
1.9981853485
20
13.2934581299
0
VERTEX
8
DEFAULT_2
10
2.0982483215
20
13.0800954590
0
SEQEND
0
LINE
8
0
10
5.7766193848
20
9.8915013428
11
6.1573569158
21
9.8915004381
0
POLYLINE
8
0
66
1
70
0
0
VERTEX
8
0
10
2.9488721313
20
12.3242268066
0
VERTEX
8
0
10
2.9285220642
20
12.2168062744
0
VERTEX
8
0
10
2.9138089600
20
12.1313092041
0
VERTEX
8
0
10
2.9061648865
20
12.0760621338
0
VERTEX
8
0
10
2.9063347473
20
12.0564468994
0
SEQEND
0
POLYLINE
8
DEFAULT_2
66
1
70
0
0
VERTEX
8
DEFAULT_2
10
2.9836929321
20
12.4421585693
0
VERTEX
8
DEFAULT_2
10
2.9777897644
20
12.4127115479
0
VERTEX
8
DEFAULT_2
10
2.9731894226
20
12.3876849365
0
VERTEX
8
DEFAULT_2
10
2.9705898132
20
12.3708734131
0
VERTEX
8
DEFAULT_2
10
2.9703847046
20
12.3648255615
0
SEQEND
0
LINE
8
0
10
2.9728765564
20
12.4431105957
11
2.9488721313
21
12.3242268066
0
LINE
8
DEFAULT_2
10
3.1405004376
20
12.3242755858
11
3.1405004376
21
13.0013547640
0
LINE
8
DEFAULT_2
10
3.1405004376
20
13.0800949215
11
3.1405004376
21
13.5600815776
0
LINE
8
DEFAULT_2
10
3.2192405950
20
13.5166156981
11
3.2192405950
21
13.0800949215
0
LINE
8
DEFAULT_2
10
3.2192405950
20
13.0013547640
11
3.2192405950
21
12.3018954778
0
LINE
8
DEFAULT_2
10
4.5659569877
20
11.4588350669
11
5.7470728204
21
11.4588350669
0
LINE
8
DEFAULT_2
10
4.4909804646
20
11.5375752244
11
5.6905925116
21
11.5375752244
0
POLYLINE
8
DEFAULT_2
66
1
70
0
0
VERTEX
8
DEFAULT_2
10
2.1477629242
20
13.0013552246
0
VERTEX
8
DEFAULT_2
10
2.3122308502
20
12.8031121826
0
VERTEX
8
DEFAULT_2
10
2.5113216858
20
12.6402404785
0
VERTEX
8
DEFAULT_2
10
2.7377466888
20
12.5184938965
0
VERTEX
8
DEFAULT_2
10
2.9836946106
20
12.4421652832
0
SEQEND
0
POLYLINE
8
DEFAULT_2
66
1
70
0
0
VERTEX
8
DEFAULT_2
10
2.9836929321
20
12.4421585693
0
VERTEX
8
DEFAULT_2
10
3.0624778137
20
12.4247132568
0
VERTEX
8
DEFAULT_2
10
3.1405006714
20
12.4052833252
0
SEQEND
0
POLYLINE
8
0
66
1
70
0
0
VERTEX
8
0
10
2.9728765564
20
12.4431105957
0
VERTEX
8
0
10
3.4461803589
20
12.3048438721
0
VERTEX
8
0
10
3.8903107300
20
12.0935933838
0
VERTEX
8
0
10
4.2925146790
20
11.8166262207
0
VERTEX
8
0
10
4.6412060852
20
11.4848054199
0
VERTEX
8
0
10
4.9307335510
20
11.1074417725
0
VERTEX
8
0
10
5.1578754272
20
10.6912451172
0
VERTEX
8
0
10
5.3189169312
20
10.2414032593
0
SEQEND
0
POLYLINE
8
DEFAULT_2
66
1
70
0
0
VERTEX
8
DEFAULT_2
10
3.2192409058
20
12.3834592285
0
VERTEX
8
DEFAULT_2
10
3.6334928894
20
12.2296203613
0
VERTEX
8
DEFAULT_2
10
4.0098450928
20
12.0253455811
0
VERTEX
8
DEFAULT_2
10
4.3336401367
20
11.7881057129
0
VERTEX
8
DEFAULT_2
10
4.5987670593
20
11.5375750732
0
SEQEND
0
POLYLINE
8
DEFAULT_2
66
1
70
0
0
VERTEX
8
DEFAULT_2
10
4.6702287903
20
11.4588348389
0
VERTEX
8
DEFAULT_2
10
4.8793083496
20
11.1919035645
0
VERTEX
8
DEFAULT_2
10
5.0413116150
20
10.9332209473
0
VERTEX
8
DEFAULT_2
10
5.1649427795
20
10.6866958008
0
VERTEX
8
DEFAULT_2
10
5.2571909790
20
10.4552466431
0
VERTEX
8
DEFAULT_2
10
5.3241889954
20
10.2401061401
0
SEQEND
0
POLYLINE
8
DEFAULT_2
66
1
70
0
0
VERTEX
8
DEFAULT_2
10
5.3241923523
20
10.2401068115
0
VERTEX
8
DEFAULT_2
10
5.3715519714
20
10.1266793823
0
VERTEX
8
DEFAULT_2
10
5.4466895447
20
10.0291624756
0
VERTEX
8
DEFAULT_2
10
5.5444669495
20
9.9543290405
0
VERTEX
8
DEFAULT_2
10
5.6582142944
20
9.9072809448
0
VERTEX
8
DEFAULT_2
10
5.7804798584
20
9.8911998901
0
SEQEND
0
POLYLINE
8
0
66
1
70
0
0
VERTEX
8
0
10
5.3189172668
20
10.2414032593
0
VERTEX
8
0
10
5.3565434570
20
10.1456192017
0
VERTEX
8
0
10
5.4139762268
20
10.0601765137
0
VERTEX
8
0
10
5.4885025024
20
9.9891041870
0
VERTEX
8
0
10
5.5766210022
20
9.9357685547
0
VERTEX
8
0
10
5.6741778564
20
9.9027061157
0
VERTEX
8
0
10
5.7766193848
20
9.8915013428
0
SEQEND
0
POLYLINE
8
0
66
1
70
0
0
VERTEX
8
0
10
5.0162843323
20
10.1578223267
0
VERTEX
8
0
10
4.9635452271
20
10.1425603638
0
VERTEX
8
0
10
4.9455658264
20
10.1366353760
0
SEQEND
0
POLYLINE
8
DEFAULT_2
66
1
70
0
0
VERTEX
8
DEFAULT_2
10
5.2712535095
20
10.2255316772
0
VERTEX
8
DEFAULT_2
10
5.2551321716
20
10.2209346924
0
VERTEX
8
DEFAULT_2
10
5.2495227356
20
10.2191535034
0
SEQEND
0
LINE
8
DEFAULT_2
10
4.1344749760
20
13.0013547640
11
3.2192405950
21
13.0013547640
0
LINE
8
DEFAULT_2
10
3.1405004376
20
13.0013547640
11
2.0567251200
21
13.0013547640
0
LINE
8
DEFAULT_2
10
2.0109643720
20
13.0800949215
11
3.1405004376
21
13.0800949215
0
LINE
8
DEFAULT_2
10
3.2192405950
20
13.0800949215
11
4.0100152225
21
13.0800949215
0
LINE
8
0
10
5.3002998527
20
12.0816888469
11
4.0920986839
21
13.0347834824
0
LINE
8
0
10
4.0920986839
20
13.0347834824
11
3.0021326104
21
13.6364629248
0
LINE
8
0
10
6.0748838682
20
11.0018281195
11
5.3002998527
21
12.0816888469
0
LINE
8
0
10
3.0021326104
20
13.6364629248
11
1.9652674460
21
13.9171427046
0
POLYLINE
8
0
66
1
70
0
0
VERTEX
8
0
10
5.7775391846
20
9.6598930664
0
VERTEX
8
0
10
5.7786073608
20
9.5726980591
0
VERTEX
8
0
10
5.7799528198
20
9.5167104492
0
VERTEX
8
0
10
5.7814453125
20
9.4974174805
0
SEQEND
0
POLYLINE
8
DEFAULT_2
66
1
70
0
0
VERTEX
8
DEFAULT_2
10
5.7804798584
20
9.8911951904
0
VERTEX
8
DEFAULT_2
10
5.7805530396
20
9.8610411987
0
VERTEX
8
DEFAULT_2
10
5.7807625122
20
9.8354694214
0
VERTEX
8
DEFAULT_2
10
5.7810753784
20
9.8183799438
0
VERTEX
8
DEFAULT_2
10
5.7814453125
20
9.8123784180
0
SEQEND
0
LINE
8
0
10
5.7766193848
20
9.8915013428
11
5.7775391846
21
9.6598930664
0
LINE
8
DEFAULT_2
10
5.8964059494
20
9.8123783860
11
5.8964059494
21
11.2506472164
0
LINE
8
0
10
1.5446496887
20
13.7527175293
11
1.5263309021
21
13.7525362549
0
LINE
8
DEFAULT_2
10
1.8469904022
20
13.7525805664
11
1.8412911682
21
13.7525362549
0
LINE
8
DEFAULT_2
10
1.9169185181
20
13.7526571045
11
1.9044689941
21
13.7531391602
0
LINE
8
0
10
1.9044689941
20
13.7531391602
11
1.5446496887
21
13.7527175293
0
LINE
8
0
10
6.1608899131
20
9.8439359934
11
6.0748838682
21
11.0018281195
0
LINE
8
DEFAULT_2
10
5.9751461068
20
11.1408742259
11
5.9751461068
21
9.8123783860
0
LINE
8
0
10
6.0105908599
20
9.4974177561
11
6.1608899131
21
9.8439359934
0
CIRCLE
8
0
10
11.4039645273
20
1.4067755584
40
0.0537910625
0
CIRCLE
8
0
10
11.4039645273
20
1.1588247387
40
0.0905007129
0
CIRCLE
8
0
10
11.4039645273
20
1.1588247387
40
0.0505599435
0
CIRCLE
8
0
10
18.6848935741
20
1.8415280344
40
0.0629015160
0
CIRCLE
8
0
10
18.6848935741
20
1.8415280344
40
0.1442347634
0
ARC
8
DEFAULT_2
10
11.7380307991
20
8.5118261009
40
2.5611023622
50
350.1736069906
51
360.0000000000
0
ARC
8
DEFAULT_2
10
11.7380307991
20
8.5118261009
40
2.5611023622
50
325.7953419619
51
349.0094287805
0
ARC
8
DEFAULT_2
10
11.7380307991
20
8.5118261009
40
2.5611023622
50
276.3563407700
51
322.2012542584
0
ARC
8
DEFAULT_2
10
11.7380307991
20
8.5118261009
40
2.5611023622
50
270.0000000000
51
275.2054721458
0
ARC
8
DEFAULT_2
10
11.7380307991
20
8.5118261009
40
2.5611023622
50
324.1107730181
51
324.3992010042
0
ARC
8
DEFAULT_2
10
10.1043300117
20
6.3089914552
40
0.3582677165
50
195.1885555455
51
270.0000000000
0
ARC
8
DEFAULT_2
10
7.8816320795
20
5.7055745089
40
1.9448818898
50
44.6381989439
51
73.3496594859
0
ARC
8
DEFAULT_2
10
7.8816320795
20
5.7055745089
40
1.9448818898
50
74.9172138698
51
78.2665528956
0
ARC
8
DEFAULT_2
10
7.8816320795
20
5.7055745089
40
1.9448818898
50
15.1885555455
51
42.5560839034
0
ARC
8
DEFAULT_2
10
8.4644874920
20
8.5118261009
40
0.9212598425
50
180.0000000000
51
208.3233727427
0
ARC
8
DEFAULT_2
10
8.4644874920
20
8.5118261009
40
0.9212598425
50
212.0055104933
51
258.2665528956
0
ARC
8
0
10
8.4644874920
20
8.5118261009
40
1.1259842520
50
180.0000000000
51
258.2665528956
0
ARC
8
0
10
7.8816320795
20
5.7055745089
40
1.7401574803
50
15.1885555455
51
78.2665528956
0
ARC
8
0
10
10.1043300117
20
6.3089914552
40
0.5629921260
50
195.1885555455
51
270.0000000000
0
ARC
8
0
10
11.7380307991
20
8.5118261009
40
2.7658267717
50
270.0000000000
51
360.0000000000
0
CIRCLE
8
0
62
2
10
8.5820331988
20
6.8594899347
40
1.7910804685
0
ARC
8
0
10
7.5944087519
20
14.2637214618
40
0.2559055118
50
179.9999998915
51
267.7351326287
0
ARC
8
0
10
7.5944087519
20
14.2637214622
40
0.0511811024
50
179.9999998898
51
267.7351280800
0
ARC
8
0
10
14.2479520590
20
14.2747466383
40
0.0511811024
50
272.3882534246
51
360.0000002520
0
ARC
8
0
10
14.2479520590
20
14.2747466374
40
0.2559055118
50
272.3882533284
51
360.0000002480
0
ARC
8
DEFAULT_2
10
5.7814453194
20
10.3635594884
40
0.5511811024
50
195.1885555455
51
270.0000000000
0
ARC
8
DEFAULT_2
10
2.3619100391
20
9.4352257248
40
2.9921259843
50
44.6381989439
51
73.3496594859
0
ARC
8
DEFAULT_2
10
2.3619100391
20
9.4352257248
40
2.9921259843
50
74.9172138698
51
78.2665528956
0
ARC
8
DEFAULT_2
10
2.3619100391
20
9.4352257248
40
2.9921259843
50
15.1885555455
51
42.5560839034
0
ARC
8
DEFAULT_2
10
3.2586106738
20
13.7525358664
40
1.4173228346
50
180.0000000000
51
208.3233727427
0
ARC
8
DEFAULT_2
10
3.2586106738
20
13.7525358664
40
1.4173228346
50
212.0055104933
51
258.2665528956
0
ARC
8
0
10
3.2586106738
20
13.7525358664
40
1.7322834646
50
180.0000000000
51
258.2665528956
0
ARC
8
0
10
2.3619100391
20
9.4352257248
40
2.6771653543
50
15.1885555455
51
78.2665528956
0
ARC
8
0
10
5.7814453194
20
10.3635594884
40
0.8661417323
50
195.1885555455
51
270.0000000000
0
ENDSEC
0
EOF
