600 0 1 0           
100 GICL Pro/E ACIS Translator - Source: f:/data5/repository/PTC/V18/bboxrev2/boombox/l_block_.prt - 6 0 13 ACIS 6.0.3 NT 24 Thu Apr 04 10:05:12 2002 
1 9.9999999999999995e-007 1e-010 
body $-1 $1 $-1 $-1 #
lump $-1 $-1 $2 $0 #
shell $-1 $-1 $-1 $3 $-1 $1 #
face $-1 $4 $5 $2 $-1 $6 reversed single #
face $-1 $7 $8 $2 $-1 $9 forward single #
loop $-1 $-1 $10 $3 #
plane-surface $-1 10 0 6.3700000000000001 0 0 -1 1 0 0 forward_v I I I I #
face $-1 $11 $12 $2 $-1 $13 forward single #
loop $-1 $-1 $14 $4 #
plane-surface $-1 -8.5999999999999996 -0.5 6.3700000000000001 0 1 0 1 0 0 forward_v I I I I #
coedge $-1 $15 $16 $17 $18 reversed $5 $-1 #
face $-1 $19 $20 $2 $-1 $21 forward single #
loop $-1 $-1 $22 $7 #
plane-surface $-1 -10 0 -6.3700000000000001 0 0 -1 1 0 0 forward_v I I I I #
coedge $-1 $23 $24 $25 $26 reversed $8 $-1 #
coedge $-1 $27 $10 $28 $29 reversed $5 $-1 #
coedge $-1 $10 $27 $30 $31 forward $5 $-1 #
coedge $-1 $24 $23 $10 $18 forward $8 $-1 #
edge $-1 $32 0 $33 0.58999999999999808 $10 $34 forward 7 unknown #
face $-1 $35 $36 $2 $-1 $37 forward single #
loop $-1 $-1 $38 $11 #
plane-surface $-1 -2.5 -7.8799999999999999 6.3700000000000001 -0.0016393420594719367 -0.9999986562779033 0 -0.99999865627790319 0.0016393420594719365 0 forward_v I I I I #
coedge $-1 $39 $40 $41 $42 forward $12 $-1 #
coedge $-1 $17 $14 $43 $44 reversed $8 $-1 #
coedge $-1 $14 $17 $45 $46 forward $8 $-1 #
coedge $-1 $40 $39 $14 $26 forward $12 $-1 #
edge $-1 $47 0 $48 0.58999999999999986 $25 $49 forward 7 unknown #
coedge $-1 $16 $15 $38 $50 reversed $5 $-1 #
coedge $-1 $43 $51 $15 $29 forward $36 $-1 #
edge $-1 $52 0 $32 7.3700000000000001 $15 $53 forward 7 unknown #
coedge $-1 $54 $45 $16 $31 reversed $55 $-1 #
edge $-1 $56 0 $33 7.3709672131147546 $16 $57 forward 7 unknown #
vertex $-1 $29 $58 #
vertex $-1 $31 $59 #
straight-curve $-1 -8.5999999999999979 -0.5 6.3700000000000001 1 0 0 I I #
face $-1 $60 $55 $2 $-1 $61 reversed single #
loop $-1 $-1 $43 $19 #
plane-surface $-1 -8.5999999999999996 -7.8700000000000001 6.3700000000000001 -1 0 0 0 1 0 forward_v I I I I #
coedge $-1 $62 $63 $27 $50 forward $20 $-1 #
coedge $-1 $25 $22 $64 $65 forward $12 $-1 #
coedge $-1 $22 $25 $66 $67 forward $12 $-1 #
coedge $-1 $63 $62 $22 $42 reversed $20 $-1 #
edge $-1 $68 1.7763544524703139e-015 $69 0.59000079279710238 $22 $70 forward 7 unknown #
coedge $-1 $64 $28 $23 $44 forward $36 $-1 #
edge $-1 $32 0 $47 12.74 $43 $71 forward 7 unknown #
coedge $-1 $30 $66 $24 $46 reversed $55 $-1 #
edge $-1 $33 0 $48 12.74 $24 $72 forward 7 unknown #
vertex $-1 $26 $73 #
vertex $-1 $67 $74 #
straight-curve $-1 -8.5999999999999996 -0.5 -6.3700000000000001 1 0 0 I I #
edge $-1 $56 1.7763544524703139e-015 $52 0.59000079279710238 $27 $75 forward 7 unknown #
coedge $-1 $28 $64 $62 $76 reversed $36 $-1 #
vertex $-1 $50 $77 #
straight-curve $-1 -8.5999999999999996 -7.8700000000000001 6.3700000000000001 0 1 0 I I #
coedge $-1 $66 $30 $63 $78 forward $55 $-1 #
loop $-1 $79 $54 $35 #
vertex $-1 $31 $80 #
straight-curve $-1 -8.009999999999998 -7.8709672131147546 6.3700000000000001 0 1 0 I I #
point $-1 -8.5999999999999979 -0.5 6.3700000000000001 #
point $-1 -8.0099999999999998 -0.5 6.3700000000000001 #
face $-1 $81 $82 $2 $-1 $83 reversed single #
plane-surface $-1 -8.0099999999999998 -7.8709672131147563 -6.3700000000000001 -1 0 0 0 1 0 forward_v I I I I #
coedge $-1 $41 $38 $51 $76 forward $20 $-1 #
coedge $-1 $38 $41 $54 $78 reversed $20 $-1 #
coedge $-1 $51 $43 $39 $65 reversed $36 $-1 #
edge $-1 $69 0 $47 7.3700000000000001 $39 $84 forward 7 unknown #
coedge $-1 $45 $54 $40 $67 reversed $55 $-1 #
edge $-1 $48 0 $68 7.3709672131147546 $40 $85 forward 7 unknown #
vertex $-1 $67 $86 #
vertex $-1 $65 $87 #
straight-curve $-1 -8.0099999999999998 -7.8709672131147546 -6.3700000000000001 -0.99999865627790319 0.0016393420594725697 0 I I #
straight-curve $-1 -8.5999999999999996 -0.5 6.3700000000000001 0 0 -1 I I #
straight-curve $-1 -8.0099999999999998 -0.5 6.3700000000000001 0 0 -1 I I #
point $-1 -8.5999999999999996 -0.5 -6.3700000000000001 #
point $-1 -8.0099999999999998 -0.5 -6.3700000000000001 #
straight-curve $-1 -8.009999999999998 -7.8709672131147546 6.3700000000000001 -0.99999865627790319 0.0016393420594725697 0 I I #
edge $-1 $52 0 $69 12.74 $51 $88 forward 7 unknown #
point $-1 -8.5999999999999979 -7.8700000000000001 6.3700000000000001 #
edge $-1 $56 0 $68 12.74 $63 $89 forward 7 unknown #
loop $-1 $-1 $90 $35 #
point $-1 -8.0099999999999998 -7.8709672131147546 6.3700000000000001 #
face $-1 $91 $92 $2 $-1 $93 reversed single #
loop $-1 $-1 $94 $60 #
plane-surface $-1 -8.0099999999999998 -0.5 -6.0699999999999994 0 0 1 1 0 0 forward_v I I I I #
straight-curve $-1 -8.5999999999999996 -7.8700000000000001 -6.3700000000000001 0 1 0 I I #
straight-curve $-1 -8.0099999999999998 -0.5 -6.3700000000000001 0 -1 0 I I #
point $-1 -8.0100000000000016 -7.8709672131147546 -6.3700000000000001 #
point $-1 -8.5999999999999996 -7.8700000000000001 -6.3700000000000001 #
straight-curve $-1 -8.5999999999999996 -7.8700000000000001 6.3700000000000001 0 0 -1 I I #
straight-curve $-1 -8.0099999999999998 -7.8709672131147546 6.3700000000000001 0 0 -1 I I #
coedge $-1 $95 $96 $97 $98 forward $79 $-1 #
face $-1 $99 $100 $2 $-1 $101 forward single #
loop $-1 $-1 $102 $81 #
plane-surface $-1 -5.8100029561886126 -0.5 -6.0699999999999994 1 0 0 0 0 -1 forward_v I I I I #
coedge $-1 $103 $104 $105 $106 forward $82 $-1 #
coedge $-1 $107 $90 $108 $109 forward $79 $-1 #
coedge $-1 $90 $107 $110 $111 reversed $79 $-1 #
coedge $-1 $104 $103 $90 $98 reversed $82 $-1 #
edge $-1 $112 0 $113 6.8709669443699761 $90 $114 forward 7 unknown #
face $-1 $115 $116 $2 $-1 $117 reversed single #
loop $-1 $-1 $118 $91 #
plane-surface $-1 -8.5999999999999996 -0.5 6.3700000000000001 0 1 0 1 0 0 forward_v I I I I #
coedge $-1 $119 $120 $121 $122 reversed $92 $-1 #
coedge $-1 $97 $94 $123 $124 reversed $82 $-1 #
coedge $-1 $94 $97 $125 $126 forward $82 $-1 #
coedge $-1 $127 $128 $94 $106 reversed $92 $-1 #
edge $-1 $129 0 $130 6.8745734969008145 $94 $131 forward 7 unknown #
coedge $-1 $96 $95 $132 $133 reversed $79 $-1 #
coedge $-1 $123 $134 $95 $109 reversed $135 $-1 #
edge $-1 $113 0 $136 12.140000000000001 $95 $137 forward 7 unknown #
coedge $-1 $138 $125 $96 $111 forward $139 $-1 #
edge $-1 $112 0 $140 12.140000000000001 $96 $141 forward 7 unknown #
vertex $-1 $111 $142 #
vertex $-1 $109 $143 #
straight-curve $-1 -8.0099999999999998 -0.79999999999999982 -6.0699999999999994 0 -1 0 I I #
face $-1 $144 $145 $2 $-1 $146 forward single #
loop $-1 $-1 $147 $99 #
plane-surface $-1 10 0 6.3700000000000001 0 0 -1 1 0 0 forward_v I I I I #
coedge $-1 $148 $121 $149 $150 forward $100 $-1 #
coedge $-1 $151 $102 $152 $153 forward $92 $-1 #
coedge $-1 $102 $154 $155 $156 reversed $92 $-1 #
coedge $-1 $118 $157 $102 $122 forward $100 $-1 #
edge $-1 $158 0 $159 12.74 $121 $160 forward 7 unknown #
coedge $-1 $161 $108 $103 $124 forward $135 $-1 #
edge $-1 $113 0 $130 2.1999999999999997 $123 $162 forward 7 unknown #
coedge $-1 $110 $163 $104 $126 reversed $139 $-1 #
edge $-1 $112 -5.3290705182007514e-015 $129 2.1999970438113818 $104 $164 forward 7 unknown #
coedge $-1 $165 $105 $163 $166 forward $92 $-1 #
tcoedge-coedge $-1 $105 $151 $167 $168 reversed $92 $169 -1 0 #
vertex $-1 $126 $170 #
tvertex-vertex $-1 $171 $172 1.7763568394002505e-015 #
straight-curve $-1 -5.8100029561886126 -0.80000000000000004 -6.0699999999999994 0 -1 0 I I #
coedge $-1 $173 $174 $107 $133 forward $175 $-1 #
edge $-1 $140 0 $136 6.870966944369977 $107 $176 forward 7 unknown #
coedge $-1 $108 $161 $173 $177 reversed $135 $-1 #
loop $-1 $-1 $108 $178 #
vertex $-1 $133 $179 #
straight-curve $-1 -8.0099999999999998 -7.6709669443699759 -6.0699999999999994 0 0 1 I I #
coedge $-1 $163 $110 $174 $180 reversed $139 $-1 #
loop $-1 $-1 $163 $181 #
vertex $-1 $111 $182 #
straight-curve $-1 -8.0099999999999998 -0.79999999999999993 -6.0699999999999994 0 0 1 I I #
point $-1 -8.0099999999999998 -0.79999999999999982 -6.0699999999999994 #
point $-1 -8.0099999999999998 -7.6709669443699759 -6.0699999999999994 #
face $-1 $178 $183 $2 $-1 $184 reversed single #
loop $-1 $-1 $185 $115 #
plane-surface $-1 -2.5 -7.8799999999999999 6.3700000000000001 -0.0016393420594719367 -0.9999986562779033 0 -0.99999865627790319 0.0016393420594719365 0 forward_v I I I I #
coedge $-1 $186 $155 $187 $188 reversed $116 $-1 #
coedge $-1 $157 $118 $189 $190 forward $100 $-1 #
coedge $-1 $155 $186 $118 $150 reversed $116 $-1 #
edge $-1 $159 -8.8817841970012523e-016 $191 3.3100029561886117 $149 $192 forward 7 unknown #
coedge $-1 $128 $119 $193 $194 forward $92 $-1 #
coedge $-1 $195 $196 $119 $153 reversed $197 $-1 #
edge $-1 $158 0 $198 7.3745737656455921 $152 $199 forward 7 unknown #
coedge $-1 $120 $200 $185 $201 reversed $92 $-1 #
coedge $-1 $147 $149 $120 $156 forward $116 $-1 #
edge $-1 $159 0 $202 7.3745737656455921 $155 $203 forward 7 unknown #
coedge $-1 $121 $148 $195 $204 reversed $100 $-1 #
vertex $-1 $153 $205 #
vertex $-1 $156 $206 #
straight-curve $-1 -5.8100029561886126 -0.5 -6.3700000000000001 0 0 1 I I #
coedge $-1 $134 $123 $207 $171 forward $135 $-1 #
straight-curve $-1 -8.0099999999999998 -7.6709669443699759 -6.0699999999999994 0.99999865627790319 -0.0016393420594720068 0 I I #
coedge $-1 $125 $138 $127 $166 reversed $139 $-1 #
straight-curve $-1 -8.0099999999999945 -0.79999999999999993 -6.0699999999999994 1 0 0 I I #
coedge $-1 $200 $127 $208 $209 forward $92 $-1 #
edge $-1 $129 0 $210 12.140000000000001 $127 $211 forward 7 unknown #
tcoedge-coedge $-1 $212 $207 $128 $168 forward $183 $213 0 1 #
tedge-edge $-1 $130 0 $214 1 $167 $215 forward 7 unknown 0.00032786797133107354 #
pcurve $-1 0 forward { exppc nubs 2 open 7 
	-1 2 -0.83333333333333337 2 -0.66666666666666674 2 -0.5 2 -0.33333333333333337 2 
	-0.16666666666666663 2 0 2 
	0 -7.3745732281563923 
	-4.4408920985006262e-016 -7.357906583885093 
	-8.8817841970012523e-016 -7.3412399396137955 
	-4.4408920985005818e-016 -7.3245732953424962 
	0 -7.3079066510711979 
	-4.4408920985005813e-016 -7.2912400067998995 
	-8.8817841970012523e-016 -7.2745733625286029 
	-8.8817841970012523e-016 -7.2579067182573045 
	-8.8817841970012523e-016 -7.241240073986007 
	-8.8817841970012523e-016 -7.2245734297147095 
	-8.8817841970012523e-016 -7.2079067854434111 
	-4.440892098500639e-016 -7.1912401411721127 
	0 -7.1745734969008144 
	0.001 
	plane -5.8100029561886126 -0.5 -6.0699999999999994 -1 0 0 0 0 -1 reverse_v I I I I 
	} 0 0 #
point $-1 -5.8100029561886126 -0.80000000000000004 -6.0699999999999994 #
edge $-1 $130 0 $216 12.140000000000001 $161 $217 forward 7 unknown #
point $-1 -5.8100029561886135 -7.6745734969008144 -6.0699999999999994 #
coedge $-1 $208 $132 $134 $177 forward $175 $-1 #
coedge $-1 $132 $208 $138 $180 forward $175 $-1 #
loop $-1 $-1 $208 $218 #
straight-curve $-1 -8.0099999999999998 -0.79999999999999893 6.0700000000000003 0 -1 0 I I #
edge $-1 $136 0 $216 2.1999999999999997 $134 $219 forward 7 unknown #
face $-1 $218 $135 $2 $-1 $220 reversed single #
point $-1 -8.0099999999999998 -7.6709669443699759 6.0700000000000012 #
edge $-1 $210 0 $140 2.1999970438113872 $138 $221 forward 7 unknown #
face $-1 $222 $139 $2 $-1 $223 reversed single #
point $-1 -8.0099999999999998 -0.79999999999999893 6.0700000000000012 #
loop $-1 $-1 $207 $144 #
plane-surface $-1 -5.8100029561886126 -7.6745734969008144 -6.3700000000000001 0.9999986562779033 -0.0016393420594719367 0 -0.0016393420594719365 -0.99999865627790319 0 forward_v I I I I #
coedge $-1 $224 $187 $154 $201 forward $145 $-1 #
coedge $-1 $149 $147 $225 $226 reversed $116 $-1 #
coedge $-1 $185 $227 $147 $188 forward $145 $-1 #
edge $-1 $228 0 $202 3.3100074039187022 $147 $229 forward 7 unknown #
coedge $-1 $225 $230 $148 $190 reversed $231 $-1 #
edge $-1 $191 0 $232 12.74 $148 $233 forward 7 unknown #
vertex $-1 $150 $234 #
straight-curve $-1 -5.8100029561886117 -0.5 6.3700000000000001 1 0 0 I I #
coedge $-1 $235 $224 $151 $194 reversed $145 $-1 #
edge $-1 $198 0 $214 1 $193 $236 forward 7 unknown #
coedge $-1 $237 $152 $157 $204 forward $197 $-1 #
coedge $-1 $152 $237 $235 $238 forward $197 $-1 #
loop $-1 $-1 $195 $222 #
vertex $-1 $153 $239 #
straight-curve $-1 -5.8100029561886126 -0.5 -6.3700000000000001 0 -1 0 I I #
tcoedge-coedge $-1 $154 $165 $240 $241 forward $92 $242 0 1 #
edge $-1 $202 0 $243 1 $185 $244 forward 7 unknown #
vertex $-1 $156 $245 #
straight-curve $-1 -5.8100029561886117 -0.5 6.3700000000000001 0 -1 0 I I #
edge $-1 $158 0 $232 3.3100029561886126 $195 $246 forward 7 unknown #
point $-1 -5.8100029561886126 -0.5 -6.3700000000000001 #
point $-1 -5.8100029561886126 -0.5 6.3700000000000001 #
coedge $-1 $167 $240 $161 $171 reversed $183 $-1 #
coedge $-1 $174 $173 $165 $209 reversed $175 $-1 #
edge $-1 $210 -1.1102230246251565e-016 $216 6.8745734969008145 $165 $247 forward 7 unknown #
vertex $-1 $209 $248 #
straight-curve $-1 -5.8100029561886126 -0.79999999999999993 -6.0699999999999994 0 0 1 I I #
coedge $-1 $240 $167 $224 $249 reversed $183 $-1 #
pcurve $-1 0 forward { exppc nurbs 3 open 2 
	0 3 1 3 
	0 -0.30000000000000071 1 
	0.066666666666664653 -0.3000000000000016 1 
	0.1333333333333302 -0.3000000000000016 1 
	0.19999999999999751 -0.30000000000000071 1 
	0 
	plane -5.8100029561886126 -7.6745734969008144 -6.3700000000000001 -0.9999986562779033 0.0016393420594719367 0 -0.0016393420594719365 -0.99999865627790319 0 reverse_v I I I I 
	} 0 0 #
tvertex-vertex $-1 $194 $250 0.00024590163934301584 #
intcurve-curve $-1 forward { exactcur full nurbs 3 open 2 
	0 3 1 3 
	-5.8100029561886126 -7.6745734969008144 -6.0699999999999994 1 
	-5.8101122456592442 -7.7412400739860061 -6.0699999999999985 1 
	-5.8102215351298749 -7.8079066510711987 -6.0699999999999985 1 
	-5.8103308246005074 -7.8745732281563923 -6.0699999999999994 1 
	0 
	null_surface 
	null_surface 
	nullbs 
	nullbs 
	I I 
	0 
	0 
	0 
	F 1 F 0 } I I #
tvertex-vertex $-1 $177 $251 3.66205343881779e-015 #
straight-curve $-1 -5.8100029561886117 -7.6745734969008144 -6.0699999999999994 0 0 1 I I #
face $-1 $181 $175 $2 $-1 $252 reversed single #
straight-curve $-1 -8.0099999999999998 -7.6709669443699759 6.0700000000000003 0.99999865627790319 -0.0016393420594720068 0 I I #
plane-surface $-1 -8.0099999999999998 -7.6709669443699759 -6.3700000000000001 0.0016393420594719367 0.9999986562779033 0 0.99999865627790319 -0.0016393420594719365 0 forward_v I I I I #
straight-curve $-1 -5.8100029561886126 -0.79999999999999993 6.0700000000000003 -1 0 0 I I #
face $-1 $253 $197 $2 $-1 $254 forward single #
plane-surface $-1 -5.8100029561886126 -0.79999999999999993 -6.3700000000000001 0 -1 0 -1 0 0 forward_v I I I I #
coedge $-1 $193 $185 $212 $249 forward $145 $-1 #
coedge $-1 $255 $189 $186 $226 forward $231 $-1 #
edge $-1 $191 0 $228 7.3799999999999999 $186 $256 forward 7 unknown #
coedge $-1 $187 $235 $255 $257 reversed $145 $-1 #
vertex $-1 $226 $258 #
straight-curve $-1 -2.5 -7.8799999999999999 6.3700000000000001 -0.99999865627790319 0.0016393420594720482 0 I I #
coedge $-1 $189 $255 $237 $259 reversed $231 $-1 #
loop $-1 $-1 $255 $253 #
vertex $-1 $259 $260 #
straight-curve $-1 -2.5 -0.5 6.3700000000000001 0 0 -1 I I #
point $-1 -2.5 -0.5 6.3700000000000001 #
coedge $-1 $227 $193 $196 $238 reversed $145 $-1 #
intcurve-curve $-1 forward { surfintcur full nurbs 3 open 2 
	0 3 1 3 
	-5.8100029561886144 -7.8745737656455921 -6.3700000000000001 1 
	-5.8100302785562725 -7.8745737208548245 -6.2699999999999996 1 
	-5.8100576009239298 -7.8745736760640579 -6.169999999999999 1 
	-5.8100849232915879 -7.8745736312732921 -6.0699999999999994 1 
	0.001 
	plane -2.5 -7.8799999999999999 6.3700000000000001 -0.0016393420594719367 -0.9999986562779033 0 -0.99999865627790319 0.0016393420594719365 0 forward_v I I I I 
	plane -5.8100029561886126 -0.5 -6.0699999999999994 1 0 0 0 0 -1 forward_v I I I I 
	nullbs 
	nullbs 
	I I 
	0 
	0 
	0 
	} I I #
coedge $-1 $196 $195 $230 $259 forward $197 $-1 #
edge $-1 $261 0 $198 3.3100074039187022 $196 $262 forward 7 unknown #
point $-1 -5.8100029561886126 -7.8745737656455921 -6.3700000000000001 #
tcoedge-coedge $-1 $207 $212 $200 $241 reversed $183 $263 -1 0 #
tedge-edge $-1 $216 0 $243 1 $240 $264 forward 7 unknown 0.00032786797133107354 #
pcurve $-1 0 forward { exppc nubs 2 open 7 
	0 2 0.16666666666666666 2 0.33333333333333331 2 0.5 2 0.66666666666666663 2 
	0.83333333333333337 2 1 2 
	-12.140000000000001 -7.1745734969008144 
	-12.140000000000002 -7.1912401411721127 
	-12.140000000000001 -7.2079067854434111 
	-12.140000000000001 -7.2245734297147095 
	-12.140000000000001 -7.2412400739860079 
	-12.140000000000001 -7.2579067182573045 
	-12.140000000000001 -7.2745733625286029 
	-12.140000000000001 -7.2912400067999004 
	-12.140000000000001 -7.3079066510711979 
	-12.140000000000001 -7.3245732953424953 
	-12.140000000000001 -7.3412399396137955 
	-12.140000000000001 -7.357906583885093 
	-12.140000000000001 -7.3745732281563923 
	0.001 
	plane -5.8100029561886126 -0.5 -6.0699999999999994 -1 0 0 0 0 -1 reverse_v I I I I 
	} 0 0 #
tvertex-vertex $-1 $249 $265 0.00016393442775901069 #
intcurve-curve $-1 forward { surfintcur full nurbs 3 open 2 
	0 3 1 3 
	-5.8100029561886135 -7.8745737656455921 6.3700000000000001 1 
	-5.8100302785562707 -7.8745737208548245 6.2699999999999996 1 
	-5.8100576009239289 -7.8745736760640579 6.1699999999999999 1 
	-5.810084923291587 -7.8745736312732921 6.0700000000000003 1 
	0.001 
	plane -5.8100029561886126 -0.5 -6.0699999999999994 1 0 0 0 0 -1 forward_v I I I I 
	plane -2.5 -7.8799999999999999 6.3700000000000001 -0.0016393420594719367 -0.9999986562779033 0 -0.99999865627790319 0.0016393420594719365 0 forward_v I I I I 
	nullbs 
	nullbs 
	I I 
	0 
	0 
	0 
	} I I #
point $-1 -5.8100029561886126 -7.8745737656455921 6.3700000000000001 #
straight-curve $-1 -5.8100029561886126 -0.5 -6.3700000000000001 1 0 0 I I #
straight-curve $-1 -5.8100029561886126 -0.80000000000000004 6.0700000000000012 0 -1 0 I I #
point $-1 -5.8100029561886126 -0.79999999999999993 6.0700000000000012 #
edge $-1 $243 0 $214 1 $224 $266 forward 7 unknown #
point $-1 -5.8100849232915879 -7.8745736312732921 -6.0699999999999994 #
point $-1 -5.8100029561886135 -7.6745734969008144 6.0700000000000012 #
plane-surface $-1 -5.8100029561886117 -0.5 6.0700000000000003 0 0 -1 -1 0 0 forward_v I I I I #
face $-1 $-1 $231 $2 $-1 $267 forward single #
plane-surface $-1 -10 0 -6.3700000000000001 0 0 -1 1 0 0 forward_v I I I I #
coedge $-1 $230 $225 $227 $257 forward $231 $-1 #
straight-curve $-1 -2.5 -0.5 6.3700000000000001 0 -1 0 I I #
edge $-1 $228 0 $261 12.74 $255 $268 forward 7 unknown #
point $-1 -2.5 -7.8799999999999999 6.3700000000000001 #
edge $-1 $232 0 $261 7.3799999999999999 $237 $269 forward 7 unknown #
point $-1 -2.5 -0.5 -6.3700000000000001 #
vertex $-1 $238 $270 #
straight-curve $-1 -2.5 -7.8799999999999999 -6.3700000000000001 -0.99999865627790319 0.0016393420594720473 0 I I #
pcurve $-1 0 forward { exppc nurbs 3 open 2 
	-1 3 0 3 
	0.19999999999999751 -12.440000000000005 1 
	0.1333333333333302 -12.440000000000005 1 
	0.066666666666664653 -12.440000000000005 1 
	0 -12.440000000000005 1 
	0 
	plane -5.8100029561886126 -7.6745734969008144 -6.3700000000000001 -0.9999986562779033 0.0016393420594719367 0 -0.0016393420594719365 -0.99999865627790319 0 reverse_v I I I I 
	} 0 0 #
intcurve-curve $-1 forward { exactcur full nurbs 3 open 2 
	0 3 1 3 
	-5.8100029561886126 -7.6745734969008144 6.0700000000000012 1 
	-5.8101122456592442 -7.7412400739860061 6.0700000000000003 1 
	-5.8102215351298749 -7.8079066510711987 6.0700000000000003 1 
	-5.8103308246005074 -7.8745732281563923 6.0700000000000012 1 
	0 
	null_surface 
	null_surface 
	nullbs 
	nullbs 
	I I 
	0 
	0 
	0 
	F 1 F 0 } I I #
point $-1 -5.8101668903945596 -7.8745734969009922 6.0700000000000003 #
intcurve-curve $-1 forward { surfintcur full nurbs 3 open 2 
	0 3 1 3 
	-5.810084923291587 -7.8745736312732921 6.0700000000000003 1 
	-5.810084923291587 -7.8745736312732912 2.0233333333333334 1 
	-5.810084923291587 -7.8745736312732912 -2.0233333333333325 1 
	-5.8100849232915879 -7.8745736312732921 -6.0699999999999994 1 
	0.001 
	plane -5.8100029561886126 -7.6745734969008144 -6.3700000000000001 0.9999986562779033 -0.0016393420594719367 0 -0.0016393420594719365 -0.99999865627790319 0 forward_v I I I I 
	plane -2.5 -7.8799999999999999 6.3700000000000001 -0.0016393420594719367 -0.9999986562779033 0 -0.99999865627790319 0.0016393420594719365 0 forward_v I I I I 
	nullbs 
	nullbs 
	I I 
	0 
	0 
	0 
	} I I #
plane-surface $-1 -2.5 -0.5 6.3700000000000001 1 0 0 0 -1 0 forward_v I I I I #
straight-curve $-1 -2.5 -7.8799999999999999 6.3700000000000001 0 0 -1 I I #
straight-curve $-1 -2.5 -0.5 -6.3700000000000001 0 -1 0 I I #
point $-1 -2.5 -7.8799999999999999 -6.3700000000000001 #
End-of-ACIS-data 