700 0 2 0           
24 FBMach with ACIS - 7.0.3 13 ACIS 7.0.3 NT 24 Thu May 16 15:25:57 2002 
1 9.9999999999999995e-007 1e-010 
body $2 -1 $-1 $3 $-1 $4 #
bdycol-kcp $-1 -1 1 3 $5 $6 $7 #
model_id-kcp-attrib $-1 -1 $-1 $-1 $0 1 1021577156 1021577156 1872429057 1 #
lump $-1 -1 $-1 $-1 $8 $0 #
transform $-1 -1 1 0 0 0 1 0 0 0 1 8.8817841970012523e-016 8.8817841970012523e-016 0 1 rotate no_reflect no_shear #
body $9 -1 $-1 $10 $-1 $11 #
body $12 -1 $-1 $13 $-1 $14 #
body $15 -1 $-1 $16 $-1 $17 #
shell $-1 -1 $-1 $-1 $-1 $18 $-1 $3 #
rgb_color-st-attrib $-1 -1 $19 $-1 $5 0.5 0.5 1 #
lump $-1 -1 $-1 $-1 $20 $5 #
transform $-1 -1 1 0 0 0 1 0 0 0 1 -5.5500000000000016 -4.1900000000000004 -4.4408920985006262e-016 1 no_rotate no_reflect no_shear #
model_id-kcp-attrib $-1 -1 $-1 $-1 $6 1 1021577156 1021577156 1872429058 1 #
lump $-1 -1 $-1 $-1 $21 $6 #
transform $-1 -1 1 0 0 0 1 0 0 0 1 -5.5500000000000016 -4.1900000000000004 -4.4408920985006262e-016 1 no_rotate no_reflect no_shear #
rgb_color-st-attrib $-1 -1 $22 $-1 $7 1 0 0 #
lump $-1 -1 $-1 $-1 $23 $7 #
transform $-1 -1 1 0 0 0 -3.8285889215894375e-016 -1 0 1 -3.8285889215894375e-016 -6.9100014780945003 15.136812730279543 -5.7952633527322225e-015 1 rotate no_reflect no_shear #
face $24 -1 $-1 $25 $26 $8 $-1 $27 reversed single #
model_id-kcp-attrib $-1 -1 $-1 $9 $5 1 1021577156 1021577156 1870069763 1 #
shell $-1 -1 $-1 $-1 $-1 $28 $-1 $10 #
shell $-1 -1 $-1 $-1 $-1 $29 $-1 $13 #
model_id-kcp-attrib $-1 -1 $-1 $15 $7 1 1021577156 1021577156 1877999620 1 #
shell $-1 -1 $-1 $-1 $-1 $30 $-1 $16 #
model_id-kcp-attrib $-1 -1 $-1 $-1 $18 1 1021577156 1021577156 1872429057 2 #
face $31 -1 $-1 $32 $33 $8 $-1 $34 forward single #
loop $-1 -1 $-1 $-1 $35 $18 #
plane-surface $-1 -1 $-1 10 0 6.3700000000000001 0 0 -1 1 0 0 forward_v I I I I #
face $-1 -1 $-1 $36 $37 $20 $-1 $38 reversed single #
face $39 -1 $-1 $40 $41 $21 $-1 $42 forward single #
face $-1 -1 $-1 $43 $44 $23 $-1 $45 reversed single #
model_id-kcp-attrib $-1 -1 $-1 $-1 $25 1 1021577156 1021577156 1872429057 3 #
face $46 -1 $-1 $47 $48 $8 $-1 $49 reversed single #
loop $-1 -1 $-1 $-1 $50 $25 #
plane-surface $-1 -1 $-1 -2.5 -7.8799999999999999 6.3700000000000001 -0.0016393420594720055 -0.9999986562779033 0 -0.99999865627790319 0.0016393420594720052 0 forward_v I I I I #
coedge $-1 -1 $-1 $51 $52 $53 $54 forward $26 $-1 #
face $-1 -1 $-1 $55 $56 $20 $-1 $57 reversed single #
loop $-1 -1 $-1 $-1 $58 $28 #
plane-surface $-1 -1 $-1 1.3948345876995543 -3.6872866140781984 0 -0.0016393420594720055 -0.9999986562779033 0 0.9999986562779033 -0.0016393420594720055 0 forward_v I I I I #
model_id-kcp-attrib $-1 -1 $-1 $-1 $29 1 1021577156 1021577156 1872429058 2 #
face $59 -1 $-1 $60 $61 $21 $-1 $62 reversed single #
loop $-1 -1 $-1 $-1 $63 $29 #
plane-surface $-1 -1 $-1 0 0 6.370000000000001 0 0 1 1 0 0 forward_v I I I I #
face $-1 -1 $-1 $64 $65 $23 $-1 $66 forward single #
loop $-1 -1 $-1 $-1 $67 $30 #
plane-surface $-1 -1 $-1 1.3600014780944987 6.3700000000000028 -19.326812730279538 0 -1 -3.8285889215894375e-016 1 0 0 forward_v I I I I #
model_id-kcp-attrib $-1 -1 $-1 $-1 $32 1 1021577156 1021577156 1872429057 4 #
face $68 -1 $-1 $69 $70 $8 $-1 $71 forward single #
loop $-1 -1 $-1 $-1 $72 $32 #
plane-surface $-1 -1 $-1 -5.8100029561889999 -0.5 -6.0700000000000003 1 0 0 0 0 -1 forward_v I I I I #
coedge $-1 -1 $-1 $73 $53 $74 $75 reversed $33 $-1 #
coedge $-1 -1 $-1 $76 $35 $77 $78 forward $26 $-1 #
coedge $-1 -1 $-1 $35 $76 $79 $80 reversed $26 $-1 #
coedge $-1 -1 $-1 $50 $81 $35 $54 reversed $33 $-1 #
edge $82 -1 $-1 $83 -9.5535399979416642 $84 -6.2435325940225752 $35 $85 reversed @7 unknown #
face $-1 -1 $-1 $86 $87 $20 $-1 $88 reversed single #
loop $-1 -1 $-1 $-1 $89 $36 #
plane-surface $-1 -1 $-1 -3.0500000000000016 0 0 1 0 0 0 0 -1 forward_v I I I I #
coedge $-1 -1 $-1 $90 $91 $92 $93 forward $37 $-1 #
model_id-kcp-attrib $-1 -1 $-1 $-1 $40 1 1021577156 1021577156 1872429058 5 #
face $-1 -1 $-1 $94 $95 $21 $-1 $96 reversed single #
loop $-1 -1 $-1 $-1 $97 $40 #
plane-surface $-1 -1 $-1 0 0 -6.370000000000001 0 0 1 1 0 0 forward_v I I I I #
coedge $-1 -1 $-1 $98 $99 $100 $101 forward $41 $-1 #
face $-1 -1 $-1 $102 $103 $23 $-1 $104 reversed single #
loop $-1 -1 $-1 $-1 $105 $43 #
plane-surface $-1 -1 $-1 1.3600014780944987 -6.3699999999999992 -19.326812730279546 0 -1 -3.8285889215894375e-016 1 0 0 forward_v I I I I #
coedge $-1 -1 $-1 $106 $107 $108 $109 forward $44 $-1 #
model_id-kcp-attrib $-1 -1 $-1 $-1 $47 1 1021577156 1021577156 1872429057 5 #
face $110 -1 $-1 $111 $112 $8 $-1 $113 forward single #
loop $-1 -1 $-1 $-1 $114 $47 #
plane-surface $-1 -1 $-1 -8.5999999999999996 -0.5 6.3700000000000001 0 1 0 1 0 0 forward_v I I I I #
coedge $-1 -1 $-1 $115 $79 $116 $117 forward $48 $-1 #
coedge $-1 -1 $-1 $118 $50 $119 $120 reversed $33 $-1 #
coedge $-1 -1 $-1 $79 $121 $50 $75 forward $48 $-1 #
edge $122 -1 $-1 $123 5.9199999999999999 $83 6.2200000000000006 $74 $124 reversed @7 unknown #
coedge $-1 -1 $-1 $52 $51 $114 $125 forward $26 $-1 #
coedge $-1 -1 $-1 $126 $127 $51 $78 reversed $112 $-1 #
edge $128 -1 $-1 $84 -7.6300000000000008 $129 -0.25 $51 $130 reversed @7 unknown #
coedge $-1 -1 $-1 $72 $74 $52 $80 forward $48 $-1 #
edge $131 -1 $-1 $83 -7.6245737656455921 $132 -0.25 $52 $133 reversed @7 unknown #
coedge $-1 -1 $-1 $53 $134 $126 $135 forward $33 $-1 #
attrib_edge_convexity-kcp-attrib $-1 -1 $136 $-1 $54 1 #
vertex $-1 -1 $-1 $80 $137 #
vertex $-1 -1 $-1 $78 $138 #
straight-curve $-1 -1 $-1 3.7435242044498671 -7.890235285581066 6.3700000000000001 -0.9999986562779033 0.0016393420594720055 0 I I #
face $-1 -1 $-1 $139 $140 $20 $-1 $141 forward single #
loop $-1 -1 $-1 $-1 $92 $55 #
plane-surface $-1 -1 $-1 0 0 -6.370000000000001 0 0 1 1 0 0 forward_v I I I I #
coedge $-1 -1 $-1 $142 $143 $90 $144 reversed $56 $-1 #
coedge $-1 -1 $-1 $145 $58 $89 $144 forward $37 $-1 #
coedge $-1 -1 $-1 $58 $145 $146 $147 forward $37 $-1 #
coedge $-1 -1 $-1 $148 $149 $58 $93 reversed $87 $-1 #
edge $150 -1 $-1 $151 -2.3556063551164161 $152 3.7444018415993918 $92 $153 forward @7 unknown #
face $154 -1 $-1 $155 $156 $21 $-1 $157 reversed single #
loop $-1 -1 $-1 $-1 $158 $60 #
plane-surface $-1 -1 $-1 0 -3.6900000000000004 0 0 1 0 0 0 1 forward_v I I I I #
coedge $-1 -1 $-1 $159 $160 $161 $162 forward $61 $-1 #
coedge $-1 -1 $-1 $163 $63 $164 $165 forward $41 $-1 #
coedge $-1 -1 $-1 $63 $163 $166 $167 forward $41 $-1 #
coedge $-1 -1 $-1 $168 $169 $63 $101 reversed $170 $-1 #
edge $-1 -1 $-1 $171 -3.6900000000000004 $172 3.6900000000000004 $100 $173 forward @7 unknown #
face $-1 -1 $-1 $174 $175 $23 $-1 $176 reversed single #
loop $-1 -1 $-1 $-1 $177 $64 #
plane-surface $-1 -1 $-1 1.3600014780944987 6.355186559295343e-016 -15.636812730279541 0 3.8285889215894375e-016 -1 0 1 3.8285889215894375e-016 forward_v I I I I #
coedge $-1 -1 $-1 $178 $179 $180 $181 forward $65 $-1 #
coedge $-1 -1 $-1 $182 $67 $183 $184 forward $44 $-1 #
coedge $-1 -1 $-1 $67 $182 $185 $186 forward $44 $-1 #
coedge $-1 -1 $-1 $187 $188 $67 $109 reversed $189 $-1 #
edge $-1 -1 $-1 $190 5.9734063651397715 $191 6.2734063651397722 $108 $192 forward @7 unknown #
model_id-kcp-attrib $-1 -1 $-1 $-1 $69 1 1021577156 1021577156 1872429057 6 #
face $193 -1 $-1 $194 $195 $8 $-1 $196 forward single #
loop $-1 -1 $-1 $-1 $126 $69 #
plane-surface $-1 -1 $-1 -2.5 -0.5 6.3700000000000001 1 0 0 0 -1 0 forward_v I I I I #
coedge $-1 -1 $-1 $197 $116 $76 $125 reversed $70 $-1 #
coedge $-1 -1 $-1 $198 $72 $199 $200 reversed $48 $-1 #
coedge $-1 -1 $-1 $114 $201 $72 $117 reversed $70 $-1 #
edge $202 -1 $-1 $132 -6.2200000000000006 $203 6.5199999999999996 $72 $204 reversed @7 unknown #
coedge $-1 -1 $-1 $134 $73 $198 $205 forward $33 $-1 #
coedge $-1 -1 $-1 $206 $207 $73 $120 forward $208 $-1 #
edge $209 -1 $-1 $210 -6.0700000000000092 $123 6.0700000000000003 $73 $211 forward @7 unknown #
coedge $-1 -1 $-1 $74 $212 $206 $213 reversed $48 $-1 #
attrib_edge_convexity-kcp-attrib $-1 -1 $214 $-1 $75 1 #
vertex $-1 -1 $-1 $75 $215 #
straight-curve $-1 -1 $-1 -5.810002956188999 -7.8745737656455912 0.14999999999999991 0 0 -1 I I #
edge $216 -1 $-1 $129 3.2000000000000002 $132 6.5100029561889992 $76 $217 reversed @7 unknown #
coedge $-1 -1 $-1 $218 $77 $81 $135 reversed $112 $-1 #
coedge $-1 -1 $-1 $77 $218 $197 $219 forward $112 $-1 #
attrib_edge_convexity-kcp-attrib $-1 -1 $220 $-1 $78 1 #
vertex $-1 -1 $-1 $125 $221 #
straight-curve $-1 -1 $-1 -2.5 -0.25 6.3700000000000001 0 -1 0 I I #
attrib_edge_convexity-kcp-attrib $-1 -1 $222 $-1 $80 1 #
vertex $-1 -1 $-1 $80 $223 #
straight-curve $-1 -1 $-1 -5.810002956188999 -0.25 6.370000000000001 0 -1 0 I I #
coedge $-1 -1 $-1 $81 $118 $224 $225 forward $33 $-1 #
edge $226 -1 $-1 $227 -12.740000000000002 $84 0 $81 $228 forward @7 unknown #
convexity-sys-attrib $-1 -1 $-1 $82 $54 #
point $-1 -1 $-1 -5.810002956188999 -7.8745737656455921 6.3700000000000001 #
point $-1 -1 $-1 -2.4999999999999996 -7.8800000000000008 6.3700000000000001 #
face $-1 -1 $-1 $-1 $229 $20 $-1 $230 reversed single #
loop $-1 -1 $-1 $-1 $231 $86 #
plane-surface $-1 -1 $-1 0 0 6.370000000000001 0 0 1 1 0 0 forward_v I I I I #
coedge $-1 -1 $-1 $232 $89 $149 $233 reversed $56 $-1 #
coedge $-1 -1 $-1 $89 $232 $234 $235 reversed $56 $-1 #
edge $236 -1 $-1 $152 -6.370000000000001 $237 6.370000000000001 $89 $238 forward @7 unknown #
coedge $-1 -1 $-1 $91 $90 $231 $239 forward $37 $-1 #
coedge $-1 -1 $-1 $240 $241 $91 $147 reversed $229 $-1 #
edge $242 -1 $-1 $243 -6.370000000000001 $151 6.370000000000001 $146 $244 forward @7 unknown #
coedge $-1 -1 $-1 $149 $92 $241 $245 forward $87 $-1 #
coedge $-1 -1 $-1 $92 $148 $142 $233 forward $87 $-1 #
convexity-sys-attrib $-1 -1 $-1 $-1 $93 #
vertex $-1 -1 $-1 $147 $246 #
vertex $-1 -1 $-1 $93 $247 #
straight-curve $-1 -1 $-1 0.69439681016389609 -3.6861383554265004 -6.370000000000001 -0.9999986562779033 0.0016393420594720055 0 I I #
model_id-kcp-attrib $-1 -1 $-1 $-1 $94 1 1021577156 1021577156 1872429058 9 #
face $248 -1 $-1 $249 $250 $21 $-1 $251 reversed single #
loop $-1 -1 $-1 $-1 $252 $94 #
plane-surface $-1 -1 $-1 -3.0500000000000016 0 0 1 0 0 0 0 -1 forward_v I I I I #
coedge $-1 -1 $-1 $253 $166 $254 $255 forward $95 $-1 #
coedge $-1 -1 $-1 $256 $97 $253 $257 forward $61 $-1 #
coedge $-1 -1 $-1 $97 $256 $258 $259 forward $61 $-1 #
coedge $-1 -1 $-1 $169 $168 $97 $162 reversed $170 $-1 #
edge $-1 -1 $-1 $260 -3.6900000000000004 $261 3.6900000000000004 $161 $262 forward @7 unknown #
coedge $-1 -1 $-1 $99 $98 $263 $264 forward $41 $-1 #
coedge $-1 -1 $-1 $265 $266 $98 $165 reversed $250 $-1 #
edge $-1 -1 $-1 $172 -3.0500000000000016 $267 3.0500000000000016 $164 $268 forward @7 unknown #
coedge $-1 -1 $-1 $158 $269 $99 $167 reversed $95 $-1 #
edge $-1 -1 $-1 $270 -3.0500000000000016 $171 3.0500000000000016 $166 $271 forward @7 unknown #
coedge $-1 -1 $-1 $161 $100 $269 $272 forward $170 $-1 #
coedge $-1 -1 $-1 $100 $161 $265 $273 reversed $170 $-1 #
loop $-1 -1 $-1 $-1 $168 $249 #
vertex $-1 -1 $-1 $101 $274 #
vertex $-1 -1 $-1 $101 $275 #
straight-curve $-1 -1 $-1 3.0500000000000016 0 6.370000000000001 0 1 0 I I #
face $-1 -1 $-1 $276 $277 $23 $-1 $278 reversed single #
loop $-1 -1 $-1 $-1 $279 $102 #
plane-surface $-1 -1 $-1 0 0 -15.936812730279543 0 0 1 1 0 0 forward_v I I I I #
coedge $-1 -1 $-1 $185 $280 $187 $281 forward $103 $-1 #
coedge $-1 -1 $-1 $282 $105 $280 $283 forward $65 $-1 #
coedge $-1 -1 $-1 $105 $282 $279 $284 forward $65 $-1 #
coedge $-1 -1 $-1 $188 $187 $105 $181 reversed $189 $-1 #
edge $-1 -1 $-1 $285 -6.2734063651397705 $286 -5.9734063651397697 $180 $287 forward @7 unknown #
coedge $-1 -1 $-1 $107 $106 $288 $289 forward $44 $-1 #
coedge $-1 -1 $-1 $290 $291 $106 $184 reversed $175 $-1 #
edge $292 -1 $-1 $191 -0.41999778285825196 $293 1.7799992609527471 $183 $294 forward @7 unknown #
coedge $-1 -1 $-1 $295 $177 $107 $186 reversed $103 $-1 #
edge $-1 -1 $-1 $296 -2.4599999999999964 $190 -0.26000295618899916 $185 $297 forward @7 unknown #
coedge $-1 -1 $-1 $180 $108 $177 $281 reversed $189 $-1 #
coedge $-1 -1 $-1 $108 $180 $290 $298 reversed $189 $-1 #
loop $-1 -1 $-1 $-1 $180 $276 #
vertex $-1 -1 $-1 $109 $299 #
vertex $-1 -1 $-1 $298 $300 #
straight-curve $-1 -1 $-1 1.0999985219055 6.3699999999999992 -9.6634063651397675 0 3.8285889215894375e-016 -1 I I #
model_id-kcp-attrib $-1 -1 $-1 $-1 $111 1 1021577156 1021577156 1872429057 7 #
face $301 -1 $-1 $302 $208 $8 $-1 $303 reversed single #
loop $-1 -1 $-1 $-1 $304 $111 #
plane-surface $-1 -1 $-1 -10 0 -6.3700000000000001 0 0 -1 1 0 0 forward_v I I I I #
coedge $-1 -1 $-1 $201 $114 $127 $219 reversed $70 $-1 #
coedge $-1 -1 $-1 $305 $115 $118 $205 reversed $48 $-1 #
coedge $-1 -1 $-1 $304 $224 $115 $200 forward $195 $-1 #
edge $-1 -1 $-1 $306 -7.6245737656455912 $203 -0.25 $115 $307 forward @7 unknown #
coedge $-1 -1 $-1 $116 $197 $304 $308 forward $70 $-1 #
attrib_edge_convexity-kcp-attrib $-1 -1 $309 $-1 $117 1 #
vertex $-1 -1 $-1 $200 $310 #
straight-curve $-1 -1 $-1 -5.8100029561890008 -0.5 0.14999999999999991 0 0 1 I I #
edge $311 -1 $-1 $210 6.2200000000000095 $306 6.5199999999999996 $198 $312 forward @7 unknown #
coedge $-1 -1 $-1 $313 $119 $121 $213 forward $208 $-1 #
coedge $-1 -1 $-1 $119 $313 $305 $314 reversed $208 $-1 #
loop $-1 -1 $-1 $-1 $313 $194 #
attrib_edge_convexity-kcp-attrib $-1 -1 $315 $-1 $120 1 #
vertex $-1 -1 $-1 $314 $316 #
straight-curve $-1 -1 $-1 -5.8103308246008938 -7.8745732281563923 0 0 0 1 I I #
coedge $-1 -1 $-1 $121 $317 $318 $319 reversed $48 $-1 #
edge $-1 -1 $-1 $123 0 $320 1 $121 $321 forward @7 unknown #
convexity-sys-attrib $-1 -1 $-1 $122 $75 #
point $-1 -1 $-1 -5.8100029561889999 -7.8745736312736998 6.0700000000000003 #
attrib_edge_convexity-kcp-attrib $-1 -1 $322 $-1 $125 1 #
straight-curve $-1 -1 $-1 0.70000000000000018 -0.5 6.3700000000000001 1 0 0 I I #
coedge $-1 -1 $-1 $127 $126 $323 $324 forward $112 $-1 #
edge $325 -1 $-1 $326 -12.74 $129 0 $127 $327 forward @7 unknown #
convexity-sys-attrib $-1 -1 $-1 $128 $78 #
point $-1 -1 $-1 -2.5 -0.5 6.3700000000000001 #
convexity-sys-attrib $-1 -1 $-1 $131 $80 #
point $-1 -1 $-1 -5.810002956188999 -0.5 6.3700000000000001 #
coedge $-1 -1 $-1 $199 $323 $134 $225 reversed $195 $-1 #
edge $328 -1 $-1 $306 0.44644656483736855 $227 3.7564539687564569 $134 $329 forward @7 unknown #
attrib_edge_convexity-kcp-attrib $-1 -1 $330 $-1 $135 1 #
vertex $-1 -1 $-1 $135 $331 #
straight-curve $-1 -1 $-1 -2.5 -7.8799999999999999 6.3700000000000001 0 0 1 I I #
loop $-1 -1 $-1 $-1 $332 $139 #
plane-surface $-1 -1 $-1 0 -3.6900000000000004 0 0 1 0 0 0 1 forward_v I I I I #
coedge $-1 -1 $-1 $234 $333 $145 $239 reversed $140 $-1 #
coedge $-1 -1 $-1 $143 $142 $332 $334 reversed $56 $-1 #
edge $-1 -1 $-1 $335 -3.6900000000000004 $152 -3.6800000000000024 $142 $336 forward @7 unknown #
coedge $-1 -1 $-1 $333 $231 $143 $235 forward $140 $-1 #
edge $-1 -1 $-1 $237 3.6800000000000024 $337 3.6900000000000004 $143 $338 forward @7 unknown #
convexity-sys-attrib $-1 -1 $-1 $-1 $144 #
vertex $-1 -1 $-1 $235 $339 #
straight-curve $-1 -1 $-1 -3.0500000000000016 -3.6800000000000028 0 0 0 1 I I #
edge $340 -1 $-1 $237 -3.7444018415993918 $243 2.3556063551164161 $231 $341 forward @7 unknown #
coedge $-1 -1 $-1 $332 $146 $333 $342 reversed $229 $-1 #
coedge $-1 -1 $-1 $146 $332 $148 $245 reversed $229 $-1 #
convexity-sys-attrib $-1 -1 $-1 $-1 $147 #
vertex $-1 -1 $-1 $239 $343 #
straight-curve $-1 -1 $-1 3.0500000000000016 -3.6900000000000004 0 0 0 -1 I I #
edge $-1 -1 $-1 $151 -3.0500000000000016 $335 3.0500000000000016 $241 $344 forward @7 unknown #
point $-1 -1 $-1 3.0500000000000016 -3.6900000000000004 -6.370000000000001 #
point $-1 -1 $-1 -3.0500000000000016 -3.6800000000000024 -6.370000000000001 #
model_id-kcp-attrib $-1 -1 $-1 $-1 $155 1 1021577156 1021577156 1872429058 3 #
face $345 -1 $-1 $-1 $170 $21 $-1 $346 reversed single #
loop $-1 -1 $-1 $-1 $265 $155 #
plane-surface $-1 -1 $-1 0 3.6900000000000004 0 0 -1 0 0 0 -1 forward_v I I I I #
coedge $-1 -1 $-1 $347 $263 $266 $348 forward $156 $-1 #
coedge $-1 -1 $-1 $269 $158 $159 $257 reversed $95 $-1 #
coedge $-1 -1 $-1 $263 $347 $158 $255 reversed $156 $-1 #
edge $-1 -1 $-1 $270 -6.370000000000001 $349 6.370000000000001 $254 $350 forward @7 unknown #
coedge $-1 -1 $-1 $160 $159 $347 $351 forward $61 $-1 #
edge $-1 -1 $-1 $261 -3.0500000000000016 $349 3.0500000000000016 $253 $352 forward @7 unknown #
coedge $-1 -1 $-1 $266 $265 $160 $259 reversed $250 $-1 #
edge $-1 -1 $-1 $353 -3.0500000000000016 $260 3.0500000000000016 $258 $354 forward @7 unknown #
vertex $-1 -1 $-1 $162 $355 #
vertex $-1 -1 $-1 $272 $356 #
straight-curve $-1 -1 $-1 3.0500000000000016 0 -6.370000000000001 0 -1 0 I I #
coedge $-1 -1 $-1 $252 $254 $163 $264 reversed $156 $-1 #
edge $-1 -1 $-1 $267 -3.6900000000000004 $270 3.6900000000000004 $263 $357 forward @7 unknown #
coedge $-1 -1 $-1 $258 $164 $169 $273 forward $250 $-1 #
coedge $-1 -1 $-1 $164 $258 $252 $348 reversed $250 $-1 #
vertex $-1 -1 $-1 $165 $358 #
straight-curve $-1 -1 $-1 0 3.6900000000000004 6.370000000000001 -1 0 0 I I #
coedge $-1 -1 $-1 $166 $253 $168 $272 reversed $95 $-1 #
vertex $-1 -1 $-1 $264 $359 #
straight-curve $-1 -1 $-1 0 -3.6900000000000004 6.370000000000001 1 0 0 I I #
edge $-1 -1 $-1 $171 -6.370000000000001 $261 6.370000000000001 $168 $360 forward @7 unknown #
edge $-1 -1 $-1 $172 -6.370000000000001 $260 6.370000000000001 $169 $361 forward @7 unknown #
point $-1 -1 $-1 3.0500000000000016 -3.6900000000000004 6.370000000000001 #
point $-1 -1 $-1 3.0500000000000016 3.6900000000000004 6.370000000000001 #
face $-1 -1 $-1 $-1 $189 $23 $-1 $362 reversed single #
loop $-1 -1 $-1 $-1 $363 $174 #
plane-surface $-1 -1 $-1 -1.0999985219055 0 0 1 0 0 0 0 -1 forward_v I I I I #
coedge $-1 -1 $-1 $291 $290 $179 $284 reversed $175 $-1 #
coedge $-1 -1 $-1 $177 $295 $178 $283 reversed $103 $-1 #
edge $-1 -1 $-1 $286 -6.3700000000000045 $190 6.3699999999999957 $187 $364 forward @7 unknown #
coedge $-1 -1 $-1 $179 $178 $363 $365 forward $65 $-1 #
edge $-1 -1 $-1 $286 0.26000295618899738 $366 2.4599999999999982 $280 $367 forward @7 unknown #
edge $368 -1 $-1 $369 -1.7799992609527471 $285 0.41999778285825196 $279 $370 forward @7 unknown #
vertex $-1 -1 $-1 $284 $371 #
vertex $-1 -1 $-1 $181 $372 #
straight-curve $-1 -1 $-1 1.0999985219055 -6.3700000000000028 -9.6634063651397746 0 -3.8285889215894375e-016 1 I I #
coedge $-1 -1 $-1 $373 $374 $182 $289 reversed $277 $-1 #
edge $-1 -1 $-1 $293 -6.2734063651397722 $296 -5.9734063651397715 $288 $375 forward @7 unknown #
coedge $-1 -1 $-1 $279 $183 $188 $298 forward $175 $-1 #
coedge $-1 -1 $-1 $183 $279 $373 $376 forward $175 $-1 #
convexity-sys-attrib $-1 -1 $-1 $-1 $184 #
vertex $-1 -1 $-1 $184 $377 #
straight-curve $-1 -1 $-1 0.68000073904724934 6.3700000000000019 -15.936812730279543 -1 0 0 I I #
coedge $-1 -1 $-1 $280 $185 $374 $378 forward $103 $-1 #
vertex $-1 -1 $-1 $289 $379 #
straight-curve $-1 -1 $-1 1.3600014780944987 6.370000000000001 -15.636812730279539 1 0 0 I I #
edge $380 -1 $-1 $191 -6.3700000000000001 $285 6.3700000000000001 $188 $381 forward @7 unknown #
point $-1 -1 $-1 1.0999985219054995 6.3699999999999992 -15.636812730279539 #
point $-1 -1 $-1 1.0999985219055013 6.3700000000000001 -15.93681273027954 #
model_id-kcp-attrib $-1 -1 $-1 $-1 $194 1 1021577156 1021577156 1872429057 8 #
face $382 -1 $-1 $383 $384 $8 $-1 $385 reversed single #
plane-surface $-1 -1 $-1 -5.8100029561889999 -7.674573496901 -6.3700000000000001 0.9999986562779033 -0.0016393420594720055 0 -0.0016393420594720052 -0.99999865627790319 0 forward_v I I I I #
coedge $-1 -1 $-1 $323 $199 $201 $308 reversed $195 $-1 #
coedge $-1 -1 $-1 $386 $198 $207 $314 forward $48 $-1 #
vertex $-1 -1 $-1 $205 $387 #
straight-curve $-1 -1 $-1 -5.810002956188999 -0.25 -6.3700000000000001 0 1 0 I I #
edge $388 -1 $-1 $326 -6.8000000000000007 $203 -3.489997043811 $201 $389 forward @7 unknown #
convexity-sys-attrib $-1 -1 $-1 $202 $117 #
point $-1 -1 $-1 -5.8100029561890008 -0.5 -6.3699999999999992 #
attrib_edge_convexity-kcp-attrib $-1 -1 $390 $-1 $205 1 #
straight-curve $-1 -1 $-1 -5.810002956188999 -7.8745737656455912 0.14999999999999991 0 0 -1 I I #
coedge $-1 -1 $-1 $207 $206 $391 $392 forward $208 $-1 #
edge $-1 -1 $-1 $210 0 $393 1 $305 $394 forward @7 unknown #
convexity-sys-attrib $-1 -1 $-1 $209 $120 #
point $-1 -1 $-1 -5.810002956188999 -7.8745737656455912 -6.0700000000000092 #
coedge $-1 -1 $-1 $212 $386 $395 $396 reversed $48 $-1 #
coedge $-1 -1 $-1 $397 $398 $212 $319 forward $399 $-1 #
edge $400 -1 $-1 $320 -7.1745734969008375 $401 -0.29999999999999993 $212 $402 forward @7 unknown #
vertex $-1 -1 $-1 $213 $403 #
intcurve-curve $-1 -1 $-1 forward { exactcur full nurbs 3 open 2 
	0 3 1 3 
	-5.8100029561889999 -7.8745736312736998 6.0700000000000003 1 
	-5.8100029561889999 -7.8079069198161326 6.0700000000000003 1 
	-5.8100029561889999 -7.7412402083585663 6.0700000000000003 1 
	-5.8100029561889999 -7.674573496901 6.0700000000000003 1 
	0 
	null_surface 
	null_surface 
	nullbs 
	nullbs 
	I I 
	0 
	0 
	0 
	F 1 F 0 } I I #
convexity-sys-attrib $-1 -1 $-1 $216 $125 #
coedge $-1 -1 $-1 $224 $304 $218 $324 reversed $195 $-1 #
edge $404 -1 $-1 $227 -7.6300000000000008 $326 -0.25 $218 $405 forward @7 unknown #
attrib_edge_convexity-kcp-attrib $-1 -1 $406 $-1 $219 1 #
vertex $-1 -1 $-1 $219 $407 #
straight-curve $-1 -1 $-1 -2.5 -0.5 6.3700000000000001 0 0 1 I I #
attrib_edge_convexity-kcp-attrib $-1 -1 $408 $-1 $225 1 #
straight-curve $-1 -1 $-1 -6.2564489211262533 -7.8738418870145477 -6.370000000000001 0.9999986562779033 -0.0016393420594720055 0 I I #
convexity-sys-attrib $-1 -1 $-1 $226 $135 #
point $-1 -1 $-1 -2.5 -7.8800000000000008 -6.370000000000001 #
coedge $-1 -1 $-1 $241 $240 $232 $334 forward $229 $-1 #
coedge $-1 -1 $-1 $231 $234 $240 $342 forward $140 $-1 #
edge $-1 -1 $-1 $337 -6.370000000000001 $335 6.370000000000001 $232 $409 forward @7 unknown #
vertex $-1 -1 $-1 $233 $410 #
straight-curve $-1 -1 $-1 -3.0500000000000016 0 -6.370000000000001 0 1 0 I I #
vertex $-1 -1 $-1 $235 $411 #
straight-curve $-1 -1 $-1 -3.0500000000000016 0 6.370000000000001 0 -1 0 I I #
point $-1 -1 $-1 -3.0500000000000016 -3.6800000000000024 6.370000000000001 #
convexity-sys-attrib $-1 -1 $-1 $-1 $239 #
straight-curve $-1 -1 $-1 0.69439681016389609 -3.6861383554265004 6.370000000000001 0.9999986562779033 -0.0016393420594720055 0 I I #
edge $-1 -1 $-1 $337 -3.0500000000000016 $243 3.0500000000000016 $240 $412 forward @7 unknown #
point $-1 -1 $-1 3.0500000000000016 -3.6900000000000004 6.370000000000001 #
straight-curve $-1 -1 $-1 0 -3.6900000000000004 -6.370000000000001 -1 0 0 I I #
model_id-kcp-attrib $-1 -1 $-1 $-1 $249 1 1021577156 1021577156 1872429058 4 #
plane-surface $-1 -1 $-1 3.0500000000000016 0 0 -1 0 0 0 0 1 forward_v I I I I #
coedge $-1 -1 $-1 $254 $252 $256 $351 reversed $156 $-1 #
edge $-1 -1 $-1 $267 -6.370000000000001 $353 6.370000000000001 $266 $413 forward @7 unknown #
vertex $-1 -1 $-1 $351 $414 #
straight-curve $-1 -1 $-1 -3.0500000000000016 -3.6900000000000004 0 0 0 -1 I I #
edge $-1 -1 $-1 $349 -3.6900000000000004 $353 3.6900000000000004 $347 $415 forward @7 unknown #
straight-curve $-1 -1 $-1 0 -3.6900000000000004 -6.370000000000001 -1 0 0 I I #
vertex $-1 -1 $-1 $259 $416 #
straight-curve $-1 -1 $-1 0 3.6900000000000004 -6.370000000000001 1 0 0 I I #
point $-1 -1 $-1 3.0500000000000016 3.6900000000000004 -6.370000000000001 #
point $-1 -1 $-1 3.0500000000000016 -3.6900000000000004 -6.370000000000001 #
straight-curve $-1 -1 $-1 -3.0500000000000016 0 6.370000000000001 0 -1 0 I I #
point $-1 -1 $-1 -3.0500000000000016 3.6900000000000004 6.370000000000001 #
point $-1 -1 $-1 -3.0500000000000016 -3.6900000000000004 6.370000000000001 #
straight-curve $-1 -1 $-1 3.0500000000000016 -3.6900000000000004 0 0 0 -1 I I #
straight-curve $-1 -1 $-1 3.0500000000000016 3.6900000000000004 0 0 0 -1 I I #
plane-surface $-1 -1 $-1 1.0999985219055 0 0 -1 0 0 0 0 1 forward_v I I I I #
coedge $-1 -1 $-1 $374 $373 $282 $365 reversed $277 $-1 #
straight-curve $-1 -1 $-1 1.0999985219055 3.311105727370614e-015 -15.636812730279541 0 1 3.8285889215894375e-016 I I #
edge $-1 -1 $-1 $366 5.9734063651397697 $369 6.2734063651397705 $363 $417 forward @7 unknown #
vertex $-1 -1 $-1 $365 $418 #
straight-curve $-1 -1 $-1 1.3600014780944987 -6.370000000000001 -15.636812730279544 -1 0 0 I I #
convexity-sys-attrib $-1 -1 $-1 $-1 $284 #
vertex $-1 -1 $-1 $376 $419 #
straight-curve $-1 -1 $-1 0.68000073904724934 -6.3700000000000001 -15.936812730279543 1 0 0 I I #
point $-1 -1 $-1 1.0999985219055013 -6.3700000000000001 -15.936812730279545 #
point $-1 -1 $-1 1.0999985219055013 -6.370000000000001 -15.636812730279544 #
coedge $-1 -1 $-1 $363 $288 $291 $376 reversed $277 $-1 #
coedge $-1 -1 $-1 $288 $363 $295 $378 reversed $277 $-1 #
straight-curve $-1 -1 $-1 -1.0999985219055 6.3699999999999992 -9.6634063651397675 0 -3.8285889215894375e-016 1 I I #
edge $420 -1 $-1 $369 -6.3700000000000001 $293 6.3700000000000001 $373 $421 forward @7 unknown #
point $-1 -1 $-1 -1.0999985219054977 6.3700000000000001 -15.93681273027954 #
edge $-1 -1 $-1 $296 -6.3699999999999957 $366 6.3700000000000045 $374 $422 forward @7 unknown #
point $-1 -1 $-1 -1.0999985219054977 6.3699999999999992 -15.636812730279539 #
convexity-sys-attrib $-1 -1 $-1 $-1 $298 #
straight-curve $-1 -1 $-1 1.0999985219055 0 -15.936812730279543 0 -1 0 I I #
model_id-kcp-attrib $-1 -1 $-1 $-1 $302 1 1021577156 1021577156 1872429057 9 #
face $423 -1 $-1 $424 $425 $8 $-1 $426 reversed single #
loop $-1 -1 $-1 $-1 $427 $302 #
plane-surface $-1 -1 $-1 -8.0099999999999998 -7.6709669443699999 -6.3700000000000001 0.0016393420594720055 0.9999986562779033 0 0.99999865627790319 -0.0016393420594720052 0 forward_v I I I I #
coedge $-1 -1 $-1 $317 $305 $428 $429 forward $48 $-1 #
point $-1 -1 $-1 -5.810002956188999 -7.8745737656455912 -6.3700000000000001 #
attrib_edge_convexity-kcp-attrib $-1 -1 $430 $-1 $308 1 #
straight-curve $-1 -1 $-1 -9.3000000000000007 -0.5 -6.3700000000000001 -1 0 0 I I #
convexity-sys-attrib $-1 -1 $-1 $311 $205 #
coedge $-1 -1 $-1 $431 $432 $313 $392 reversed $384 $-1 #
edge $-1 -1 $-1 $320 -12.440000000000001 $393 -0.29999999999999982 $313 $433 reversed @7 unknown #
vertex $-1 -1 $-1 $429 $434 #
intcurve-curve $-1 -1 $-1 forward { exactcur full nurbs 3 open 2 
	0 3 1 3 
	-5.8103308246008938 -7.8745732281564003 -6.0700000000000003 1 
	-5.8102215351302622 -7.8079066510712662 -6.0700000000000003 1 
	-5.8101122456596315 -7.7412400739861331 -6.0700000000000003 1 
	-5.8100029561889999 -7.674573496901 -6.0700000000000003 1 
	0 
	null_surface 
	null_surface 
	nullbs 
	nullbs 
	I I 
	0 
	0 
	0 
	F 1 F 0 } I I #
coedge $-1 -1 $-1 $435 $436 $317 $396 forward $437 $-1 #
edge $438 -1 $-1 $401 -12.290000000000001 $439 -0.15000000000000036 $317 $440 forward @7 unknown #
coedge $-1 -1 $-1 $441 $318 $436 $442 reversed $399 $-1 #
coedge $-1 -1 $-1 $318 $441 $431 $443 reversed $399 $-1 #
loop $-1 -1 $-1 $-1 $318 $444 #
attrib_edge_convexity-kcp-attrib $-1 -1 $445 $-1 $319 2 #
vertex $-1 -1 $-1 $319 $446 #
straight-curve $-1 -1 $-1 -5.8100029561889999 -0.5 6.0700000000000003 0 1 0 I I #
point $-1 -1 $-1 -5.8100029561889999 -7.6745734969008375 6.0700000000000012 #
attrib_edge_convexity-kcp-attrib $-1 -1 $447 $-1 $324 1 #
straight-curve $-1 -1 $-1 -2.5 -0.25 -6.3700000000000001 0 1 0 I I #
convexity-sys-attrib $-1 -1 $-1 $325 $219 #
point $-1 -1 $-1 -2.5 -0.5 -6.3700000000000001 #
convexity-sys-attrib $-1 -1 $-1 $328 $225 #
straight-curve $-1 -1 $-1 -3.0500000000000016 -3.6900000000000004 0 0 0 -1 I I #
point $-1 -1 $-1 -3.0500000000000016 -3.6900000000000004 -6.370000000000001 #
point $-1 -1 $-1 -3.0500000000000016 -3.6900000000000004 6.370000000000001 #
straight-curve $-1 -1 $-1 0 -3.6900000000000004 6.370000000000001 1 0 0 I I #
straight-curve $-1 -1 $-1 -3.0500000000000016 3.6900000000000004 0 0 0 -1 I I #
point $-1 -1 $-1 -3.0500000000000016 -3.6900000000000004 -6.370000000000001 #
straight-curve $-1 -1 $-1 -3.0500000000000016 0 -6.370000000000001 0 1 0 I I #
point $-1 -1 $-1 -3.0500000000000016 3.6900000000000004 -6.370000000000001 #
straight-curve $-1 -1 $-1 -1.0999985219055 -6.3700000000000028 -9.6634063651397746 0 3.8285889215894375e-016 -1 I I #
point $-1 -1 $-1 -1.0999985219054995 -6.370000000000001 -15.636812730279544 #
point $-1 -1 $-1 -1.0999985219054977 -6.3700000000000001 -15.936812730279545 #
convexity-sys-attrib $-1 -1 $-1 $-1 $376 #
straight-curve $-1 -1 $-1 -1.0999985219055 0 -15.936812730279543 0 1 0 I I #
straight-curve $-1 -1 $-1 -1.0999985219055 3.311105727370614e-015 -15.636812730279541 0 -1 -3.8285889215894375e-016 I I #
model_id-kcp-attrib $-1 -1 $-1 $-1 $383 1 1021577156 1021577156 1872429057 10 #
face $448 -1 $-1 $449 $450 $8 $-1 $451 forward single #
loop $-1 -1 $-1 $452 $453 $383 #
plane-surface $-1 -1 $-1 -8.0099999999999998 -7.8709672131149997 -6.3700000000000001 -1 0 0 0 1 0 forward_v I I I I #
coedge $-1 -1 $-1 $432 $431 $454 $455 forward $384 $-1 #
coedge $-1 -1 $-1 $456 $457 $386 $429 reversed $458 $-1 #
edge $459 -1 $-1 $393 -7.1745734969008383 $439 -0.29999999999999993 $386 $460 reversed @7 unknown #
convexity-sys-attrib $-1 -1 $-1 $388 $308 #
coedge $-1 -1 $-1 $427 $391 $398 $443 forward $384 $-1 #
coedge $-1 -1 $-1 $391 $427 $456 $461 reversed $384 $-1 #
straight-curve $-1 -1 $-1 -5.8100029561889999 -7.6745734969008375 -6.3700000000000001 0 0 1 I I #
point $-1 -1 $-1 -5.8100029561890008 -7.6745734969008383 -6.0700000000000003 #
coedge $-1 -1 $-1 $462 $395 $457 $463 forward $437 $-1 #
coedge $-1 -1 $-1 $395 $462 $397 $442 forward $437 $-1 #
loop $-1 -1 $-1 $-1 $395 $464 #
attrib_edge_convexity-kcp-attrib $-1 -1 $465 $-1 $396 2 #
vertex $-1 -1 $-1 $396 $466 #
straight-curve $-1 -1 $-1 -5.8100029561889999 -0.79999999999999993 -6.2200000000000006 0 0 -1 I I #
coedge $-1 -1 $-1 $398 $397 $467 $468 reversed $399 $-1 #
edge $469 -1 $-1 $470 -2.1999970438109999 $401 0 $397 $471 reversed @7 unknown #
edge $472 -1 $-1 $320 -1.1058807900459284 $473 1.0941192099536845 $431 $474 forward @7 unknown #
face $475 -1 $-1 $-1 $399 $8 $-1 $476 reversed single #
convexity-sys-attrib $-1 -1 $-1 $400 $319 #
point $-1 -1 $-1 -5.8100029561889999 -0.79999999999999993 6.0700000000000003 #
convexity-sys-attrib $-1 -1 $-1 $404 $324 #
model_id-kcp-attrib $-1 -1 $-1 $-1 $424 1 1021577156 1021577156 1872429057 11 #
face $477 -1 $-1 $478 $479 $8 $-1 $480 reversed single #
loop $-1 -1 $-1 $-1 $481 $424 #
plane-surface $-1 -1 $-1 -2.5 -7.8799999999999999 6.3700000000000001 -0.0016393420594720055 -0.9999986562779033 0 -0.99999865627790319 0.0016393420594720052 0 forward_v I I I I #
loop $-1 -1 $-1 $-1 $482 $383 #
coedge $-1 -1 $-1 $483 $484 $485 $486 reversed $425 $-1 #
coedge $-1 -1 $-1 $467 $482 $427 $455 reversed $452 $-1 #
edge $-1 -1 $-1 $473 -12.440000000000001 $487 -0.29999999999999982 $427 $488 reversed @7 unknown #
coedge $-1 -1 $-1 $489 $428 $432 $461 forward $458 $-1 #
coedge $-1 -1 $-1 $428 $489 $435 $463 reversed $458 $-1 #
loop $-1 -1 $-1 $-1 $428 $490 #
attrib_edge_convexity-kcp-attrib $-1 -1 $491 $-1 $429 2 #
straight-curve $-1 -1 $-1 -5.8100029561890008 -0.5 -6.0700000000000003 0 -1 0 I I #
edge $492 -1 $-1 $393 -2.2058778338591063 $487 -0.0058778338594940409 $432 $493 reversed @7 unknown #
coedge $-1 -1 $-1 $436 $435 $494 $495 reversed $437 $-1 #
edge $496 -1 $-1 $439 -1.0999985219054995 $497 1.0999985219054995 $435 $498 forward @7 unknown #
face $499 -1 $-1 $444 $437 $8 $-1 $500 reversed single #
convexity-sys-attrib $-1 -1 $-1 $438 $396 #
point $-1 -1 $-1 -5.8100029561890008 -0.79999999999999993 -6.0700000000000003 #
coedge $-1 -1 $-1 $494 $454 $441 $468 forward $452 $-1 #
edge $501 -1 $-1 $473 -3.4854833378124992 $470 3.3854836065575 $441 $502 forward @7 unknown #
attrib_edge_convexity-kcp-attrib $-1 -1 $503 $-1 $442 1 #
vertex $-1 -1 $-1 $468 $504 #
straight-curve $-1 -1 $-1 -5.8100029561889999 -0.79999999999999993 6.0700000000000003 -1 0 0 I I #
attrib_edge_convexity-kcp-attrib $-1 -1 $505 $-1 $443 1 #
vertex $-1 -1 $-1 $443 $506 #
straight-curve $-1 -1 $-1 -6.9158822602384742 -7.672760580008954 6.0700000000000021 -0.9999986562779033 0.0016393420594720055 0 I I #
model_id-kcp-attrib $-1 -1 $-1 $-1 $444 1 1021577156 1021577156 1872429057 18 #
plane-surface $-1 -1 $-1 -5.8100029561889999 -0.5 6.0700000000000003 0 0 -1 -1 0 0 forward_v I I I I #
model_id-kcp-attrib $-1 -1 $-1 $-1 $449 1 1021577156 1021577156 1872429057 12 #
face $507 -1 $-1 $508 $509 $8 $-1 $510 forward single #
loop $-1 -1 $-1 $-1 $511 $449 #
plane-surface $-1 -1 $-1 10 0 6.3700000000000001 0 0 -1 1 0 0 forward_v I I I I #
coedge $-1 -1 $-1 $512 $485 $513 $514 reversed $450 $-1 #
coedge $-1 -1 $-1 $454 $494 $489 $515 reversed $452 $-1 #
coedge $-1 -1 $-1 $516 $453 $517 $518 forward $425 $-1 #
coedge $-1 -1 $-1 $453 $516 $519 $520 forward $425 $-1 #
coedge $-1 -1 $-1 $481 $521 $453 $486 forward $450 $-1 #
edge $522 -1 $-1 $523 -6.3700000000000001 $524 6.3700000000000001 $453 $525 forward @7 unknown #
vertex $-1 -1 $-1 $461 $526 #
straight-curve $-1 -1 $-1 -8.0099999999999998 -7.670966944369999 -6.3700000000000001 0 0 1 I I #
coedge $-1 -1 $-1 $457 $456 $482 $515 forward $458 $-1 #
face $527 -1 $-1 $464 $458 $8 $-1 $528 reversed single #
convexity-sys-attrib $-1 -1 $-1 $459 $429 #
attrib_edge_convexity-kcp-attrib $-1 -1 $529 $-1 $461 1 #
straight-curve $-1 -1 $-1 -8.0158778259613186 -7.6709573085897365 -6.0700000000000003 0.9999986562779033 -0.0016393420594720055 0 I I #
coedge $-1 -1 $-1 $482 $467 $462 $495 forward $452 $-1 #
edge $530 -1 $-1 $470 -12.440000000000001 $497 -0.29999999999999982 $494 $531 reversed @7 unknown #
attrib_edge_convexity-kcp-attrib $-1 -1 $532 $-1 $463 1 #
vertex $-1 -1 $-1 $495 $533 #
straight-curve $-1 -1 $-1 -6.9100014780945003 -0.79999999999999982 -6.0700000000000003 -1 0 0 I I #
model_id-kcp-attrib $-1 -1 $-1 $-1 $464 1 1021577156 1021577156 1872429057 17 #
plane-surface $-1 -1 $-1 -5.8100029561889999 -0.79999999999999993 -6.3700000000000001 0 -1 0 -1 0 0 forward_v I I I I #
attrib_edge_convexity-kcp-attrib $-1 -1 $534 $-1 $468 2 #
straight-curve $-1 -1 $-1 -8.0099999999999998 -4.1854836065574998 6.0700000000000003 0 1 0 I I #
convexity-sys-attrib $-1 -1 $-1 $469 $442 #
point $-1 -1 $-1 -8.0099999999999998 -0.79999999999999993 6.0700000000000003 #
convexity-sys-attrib $-1 -1 $-1 $472 $443 #
point $-1 -1 $-1 -8.0099999999999998 -7.670966944369999 6.0700000000000012 #
model_id-kcp-attrib $-1 -1 $-1 $-1 $478 1 1021577156 1021577156 1872429057 13 #
face $535 -1 $-1 $536 $537 $8 $-1 $538 forward single #
loop $-1 -1 $-1 $-1 $539 $478 #
plane-surface $-1 -1 $-1 -8.5999999999999996 -0.5 6.3700000000000001 0 1 0 1 0 0 forward_v I I I I #
coedge $-1 -1 $-1 $540 $519 $541 $542 forward $479 $-1 #
coedge $-1 -1 $-1 $521 $481 $543 $544 reversed $450 $-1 #
coedge $-1 -1 $-1 $519 $540 $481 $514 forward $479 $-1 #
edge $545 -1 $-1 $546 -12.343540790738382 $524 -11.75353999794128 $513 $547 reversed @7 unknown #
edge $548 -1 $-1 $487 -3.4854833378124992 $497 3.3854836065575 $482 $549 forward @7 unknown #
coedge $-1 -1 $-1 $484 $483 $550 $551 forward $425 $-1 #
coedge $-1 -1 $-1 $552 $553 $483 $518 reversed $537 $-1 #
edge $-1 -1 $-1 $523 -3.9354836065572538 $554 3.4354836065574998 $483 $555 reversed @7 unknown #
coedge $-1 -1 $-1 $511 $513 $484 $520 reversed $479 $-1 #
edge $-1 -1 $-1 $556 -3.4354836065574998 $524 3.9354836065572538 $484 $557 forward @7 unknown #
coedge $-1 -1 $-1 $485 $512 $552 $558 forward $450 $-1 #
attrib_edge_convexity-kcp-attrib $-1 -1 $559 $-1 $486 1 #
vertex $-1 -1 $-1 $518 $560 #
vertex $-1 -1 $-1 $520 $561 #
straight-curve $-1 -1 $-1 -8.0099999999999998 -7.8709672131147537 0 0 0 1 I I #
point $-1 -1 $-1 -8.0099999999999998 -7.670966944369999 -6.0700000000000003 #
model_id-kcp-attrib $-1 -1 $-1 $-1 $490 1 1021577156 1021577156 1872429057 16 #
plane-surface $-1 -1 $-1 -8.0099999999999998 -0.5 -6.0700000000000003 0 0 1 1 0 0 forward_v I I I I #
convexity-sys-attrib $-1 -1 $-1 $492 $461 #
attrib_edge_convexity-kcp-attrib $-1 -1 $562 $-1 $495 2 #
straight-curve $-1 -1 $-1 -8.0099999999999998 -0.79999999999999982 -6.3700000000000001 0 0 1 I I #
convexity-sys-attrib $-1 -1 $-1 $496 $463 #
point $-1 -1 $-1 -8.0099999999999998 -0.79999999999999982 -6.0700000000000003 #
convexity-sys-attrib $-1 -1 $-1 $501 $468 #
model_id-kcp-attrib $-1 -1 $-1 $-1 $508 1 1021577156 1021577156 1872429057 14 #
face $563 -1 $-1 $490 $564 $8 $-1 $565 forward single #
loop $-1 -1 $-1 $-1 $552 $508 #
plane-surface $-1 -1 $-1 -10 0 -6.3700000000000001 0 0 -1 1 0 0 forward_v I I I I #
coedge $-1 -1 $-1 $566 $550 $553 $567 forward $509 $-1 #
coedge $-1 -1 $-1 $513 $511 $568 $569 forward $479 $-1 #
coedge $-1 -1 $-1 $550 $566 $511 $542 reversed $509 $-1 #
edge $-1 -1 $-1 $556 8.7100000000000009 $570 9.3000000000000007 $511 $571 reversed @7 unknown #
coedge $-1 -1 $-1 $568 $572 $512 $544 forward $564 $-1 #
edge $573 -1 $-1 $574 -12.740000000000002 $546 0 $512 $575 reversed @7 unknown #
attrib_edge_convexity-kcp-attrib $-1 -1 $576 $-1 $514 1 #
vertex $-1 -1 $-1 $514 $577 #
straight-curve $-1 -1 $-1 3.7435242044498671 -7.890235285581066 6.3700000000000001 -0.9999986562779033 0.0016393420594720055 0 I I #
attrib_edge_convexity-kcp-attrib $-1 -1 $578 $-1 $515 2 #
straight-curve $-1 -1 $-1 -8.0099999999999998 -4.1854836065574998 -6.0700000000000003 0 1 0 I I #
coedge $-1 -1 $-1 $539 $541 $516 $551 reversed $509 $-1 #
edge $-1 -1 $-1 $554 -6.3700000000000001 $556 6.3700000000000001 $516 $579 reversed @7 unknown #
coedge $-1 -1 $-1 $580 $517 $521 $558 reversed $537 $-1 #
coedge $-1 -1 $-1 $517 $580 $539 $567 reversed $537 $-1 #
vertex $-1 -1 $-1 $551 $581 #
straight-curve $-1 -1 $-1 -8.009999999999998 -3.9354836065574998 -6.3700000000000001 0 -1 0 I I #
vertex $-1 -1 $-1 $520 $582 #
straight-curve $-1 -1 $-1 -8.009999999999998 -3.9354836065574998 6.3700000000000001 0 -1 0 I I #
edge $583 -1 $-1 $574 -2.3435542279593475 $523 -1.7535534351622453 $521 $584 forward @7 unknown #
convexity-sys-attrib $-1 -1 $-1 $522 $486 #
point $-1 -1 $-1 -8.0099999999999998 -7.8709672131147537 -6.3700000000000001 #
point $-1 -1 $-1 -8.0099999999999998 -7.8709672131147537 6.3700000000000001 #
convexity-sys-attrib $-1 -1 $-1 $530 $495 #
model_id-kcp-attrib $-1 -1 $-1 $-1 $536 1 1021577156 1021577156 1872429057 15 #
loop $-1 -1 $-1 $-1 $585 $536 #
plane-surface $-1 -1 $-1 -8.5999999999999996 -7.8700000000000001 6.3700000000000001 -1 0 0 0 1 0 forward_v I I I I #
coedge $-1 -1 $-1 $541 $539 $585 $586 forward $509 $-1 #
edge $-1 -1 $-1 $554 -1.2900000000000027 $587 -0.70000000000000107 $553 $588 reversed @7 unknown #
coedge $-1 -1 $-1 $585 $543 $540 $569 reversed $564 $-1 #
edge $-1 -1 $-1 $570 -3.4350000000000001 $546 3.9350000000000001 $540 $589 reversed @7 unknown #
vertex $-1 -1 $-1 $569 $590 #
straight-curve $-1 -1 $-1 0.70000000000000018 -0.5 6.3700000000000001 1 0 0 I I #
coedge $-1 -1 $-1 $543 $585 $580 $591 forward $564 $-1 #
attrib_edge_convexity-kcp-attrib $-1 -1 $592 $-1 $544 1 #
vertex $-1 -1 $-1 $558 $593 #
straight-curve $-1 -1 $-1 -8.5999999999999996 -7.8700000000000001 6.3700000000000001 0 0 -1 I I #
convexity-sys-attrib $-1 -1 $-1 $545 $514 #
point $-1 -1 $-1 -8.6000000000000014 -7.8700000000000001 6.3700000000000001 #
convexity-sys-attrib $-1 -1 $-1 $548 $515 #
straight-curve $-1 -1 $-1 -8.0099999999999998 -0.5 0 0 0 -1 I I #
coedge $-1 -1 $-1 $553 $552 $572 $591 reversed $537 $-1 #
point $-1 -1 $-1 -8.009999999999998 -0.5 -6.3700000000000001 #
point $-1 -1 $-1 -8.0099999999999998 -0.5 6.3700000000000001 #
attrib_edge_convexity-kcp-attrib $-1 -1 $594 $-1 $558 1 #
straight-curve $-1 -1 $-1 -6.2564489211262533 -7.8738418870145477 -6.370000000000001 0.9999986562779033 -0.0016393420594720055 0 I I #
coedge $-1 -1 $-1 $572 $568 $566 $586 reversed $564 $-1 #
edge $-1 -1 $-1 $587 -12.74 $570 0 $566 $595 forward @7 unknown #
vertex $-1 -1 $-1 $567 $596 #
straight-curve $-1 -1 $-1 -9.3000000000000007 -0.5 -6.3700000000000001 1 0 0 I I #
straight-curve $-1 -1 $-1 -8.6000000000000014 -3.9350000000000001 6.3700000000000001 0 1 0 I I #
point $-1 -1 $-1 -8.6000000000000014 -0.5 6.3700000000000001 #
edge $-1 -1 $-1 $587 -3.4350000000000001 $574 3.9350000000000001 $580 $597 reversed @7 unknown #
convexity-sys-attrib $-1 -1 $-1 $573 $544 #
point $-1 -1 $-1 -8.5999999999999996 -7.8700000000000001 -6.3700000000000019 #
convexity-sys-attrib $-1 -1 $-1 $583 $558 #
straight-curve $-1 -1 $-1 -8.5999999999999996 -0.50000000000000044 6.3700000000000001 0 0 1 I I #
point $-1 -1 $-1 -8.5999999999999996 -0.5 -6.3700000000000001 #
straight-curve $-1 -1 $-1 -8.5999999999999996 -3.9350000000000001 -6.3700000000000001 0 1 0 I I #
End-of-ACIS-data 