600 0 1 0           
93 GICL ACIS Healer - Source: /gicl/data5/repository/PTC/V18/bboxrev2/boombox/l_block_.sat - 6 0 18 ACIS 6.0.3 Solaris 24 Sat Apr 13 22:38:36 2002 
1 9.999999999999999547e-07 1.000000000000000036e-10 
body $-1 $1 $-1 $-1 #
lump $-1 $-1 $2 $0 #
shell $-1 $-1 $-1 $3 $-1 $1 #
face $-1 $4 $5 $2 $-1 $6 reversed single #
face $-1 $7 $8 $2 $-1 $9 forward single #
loop $-1 $-1 $10 $3 #
plane-surface $-1 10 0 6.370000000000000107 0 0 -1 1 0 0 forward_v I I I I #
face $-1 $11 $12 $2 $-1 $13 forward single #
loop $-1 $-1 $14 $4 #
plane-surface $-1 -8.599999999999999645 -0.5 6.370000000000000107 0 1 0 1 0 0 forward_v I I I I #
coedge $-1 $15 $16 $17 $18 reversed $5 $-1 #
face $-1 $19 $20 $2 $-1 $21 forward single #
loop $-1 $-1 $22 $7 #
plane-surface $-1 -10 0 -6.370000000000000107 0 0 -1 1 0 0 forward_v I I I I #
coedge $-1 $23 $24 $25 $26 reversed $8 $-1 #
coedge $-1 $27 $10 $28 $29 reversed $5 $-1 #
coedge $-1 $10 $27 $30 $31 forward $5 $-1 #
coedge $-1 $24 $23 $10 $18 forward $8 $-1 #
edge $-1 $32 -9.300000000000000711 $33 -8.7099999999999973 $10 $34 forward 7 unknown #
face $-1 $35 $36 $2 $-1 $37 forward single #
loop $-1 $-1 $38 $11 #
plane-surface $-1 -2.5 -7.879999999999999893 6.370000000000000107 2.168404344971008868e-19 -1 0 -0.999999999999999889 -2.168404344971008868e-19 0 forward_v I I I I #
coedge $-1 $39 $40 $41 $42 forward $12 $-1 #
coedge $-1 $17 $14 $43 $44 reversed $8 $-1 #
coedge $-1 $14 $17 $45 $46 forward $8 $-1 #
coedge $-1 $40 $39 $14 $26 forward $12 $-1 #
edge $-1 $47 0.7000000000000010658 $48 1.290000000000000924 $25 $49 forward 7 unknown #
coedge $-1 $16 $15 $38 $50 reversed $5 $-1 #
coedge $-1 $43 $51 $15 $29 forward $36 $-1 #
edge $-1 $52 -3.94499999999999984 $32 3.435000000000000053 $15 $53 forward 7 unknown #
coedge $-1 $54 $45 $16 $31 reversed $55 $-1 #
edge $-1 $56 -3.944516393442621727 $33 3.435483606557378167 $16 $57 forward 7 unknown #
vertex $-1 $29 $58 #
vertex $-1 $31 $59 #
straight-curve $-1 0.7000000000000001776 -0.5 6.370000000000000107 1 -0 0 I I #
face $-1 $60 $55 $2 $-1 $61 reversed single #
loop $-1 $-1 $43 $19 #
plane-surface $-1 -8.599999999999999645 -7.870000000000000107 6.370000000000000107 -1 0 0 0 1 0 forward_v I I I I #
coedge $-1 $62 $63 $27 $50 forward $20 $-1 #
coedge $-1 $25 $22 $64 $65 forward $12 $-1 #
coedge $-1 $22 $25 $66 $67 forward $12 $-1 #
coedge $-1 $63 $62 $22 $42 reversed $20 $-1 #
edge $-1 $68 1.759999999999999787 $69 2.349999999999999645 $22 $70 forward 7 unknown #
coedge $-1 $64 $28 $23 $44 forward $36 $-1 #
edge $-1 $32 0 $47 12.74000000000000021 $43 $71 forward 7 unknown #
coedge $-1 $30 $66 $24 $46 reversed $55 $-1 #
edge $-1 $33 -6.370000000000000107 $48 6.370000000000000107 $24 $72 reversed 7 unknown #
vertex $-1 $26 $73 #
vertex $-1 $67 $74 #
straight-curve $-1 -9.300000000000000711 -0.5 -6.370000000000000107 1 -0 0 I I #
edge $-1 $56 11.75999999999999801 $52 12.35000000000000142 $27 $75 forward 7 unknown #
coedge $-1 $28 $64 $62 $76 reversed $36 $-1 #
vertex $-1 $50 $77 #
straight-curve $-1 -8.600000000000001421 -3.935000000000000053 6.370000000000000107 0 1 0 I I #
coedge $-1 $66 $30 $63 $78 forward $55 $-1 #
loop $-1 $79 $54 $35 #
vertex $-1 $31 $80 #
straight-curve $-1 -8.00999999999999801 -3.935483606557378167 6.370000000000000107 0 1 0 I I #
point $-1 -8.600000000000001421 -0.5 6.370000000000000107 #
point $-1 -8.00999999999999801 -0.5 6.370000000000000107 #
face $-1 $81 $82 $2 $-1 $83 reversed single #
plane-surface $-1 -8.009999999999999787 -7.870967213114756333 -6.370000000000000107 -1 0 0 0 1 0 forward_v I I I I #
coedge $-1 $41 $38 $51 $76 forward $20 $-1 #
coedge $-1 $38 $41 $54 $78 reversed $20 $-1 #
coedge $-1 $51 $43 $39 $65 reversed $36 $-1 #
edge $-1 $69 -3.94499999999999984 $47 3.435000000000000053 $39 $84 forward 7 unknown #
coedge $-1 $45 $54 $40 $67 reversed $55 $-1 #
edge $-1 $48 -3.435483606557378167 $68 3.944516393442621727 $40 $85 reversed 7 unknown #
vertex $-1 $67 $86 #
vertex $-1 $65 $87 #
straight-curve $-1 -6.25 -7.879999999999999893 -6.370000000000000107 -1 -2.168404344971008868e-19 -0 I I #
straight-curve $-1 -8.599999999999999645 -0.5 6.370000000000000107 0 0 -1 I I #
straight-curve $-1 -8.009999999999999787 -0.5 0 0 -0 1 I I #
point $-1 -8.599999999999999645 -0.5 -6.370000000000000107 #
point $-1 -8.009999999999999787 -0.5 -6.370000000000000107 #
straight-curve $-1 3.75 -7.879999999999999893 6.370000000000000107 -1 -2.168404344971008868e-19 -0 I I #
edge $-1 $52 -0 $69 12.74000000000000021 $51 $88 reversed 7 unknown #
point $-1 -8.600000000000001421 -7.879999999999999893 6.370000000000000107 #
edge $-1 $56 -6.370000000000000107 $68 6.370000000000000107 $63 $89 forward 7 unknown #
loop $-1 $-1 $90 $35 #
point $-1 -8.00999999999999801 -7.879999999999999893 6.370000000000000107 #
face $-1 $91 $92 $2 $-1 $93 reversed single #
loop $-1 $-1 $94 $60 #
plane-surface $-1 -8.009999999999999787 -0.5 -6.069999999999999396 0 0 1 1 0 0 forward_v I I I I #
straight-curve $-1 -8.599999999999999645 -3.935000000000000053 -6.370000000000000107 0 1 0 I I #
straight-curve $-1 -8.009999999999999787 -3.935483606557378167 -6.370000000000000107 0 1 0 I I #
point $-1 -8.009999999999999787 -7.879999999999999893 -6.370000000000000107 #
point $-1 -8.599999999999999645 -7.879999999999999893 -6.370000000000000107 #
straight-curve $-1 -8.599999999999999645 -7.879999999999999893 6.370000000000000107 0 0 1 I I #
straight-curve $-1 -8.009999999999999787 -7.879999999999999893 0 -0 -0 -1 I I #
coedge $-1 $95 $96 $97 $98 forward $79 $-1 #
face $-1 $99 $100 $2 $-1 $101 forward single #
loop $-1 $-1 $102 $81 #
plane-surface $-1 -5.810002956188612622 -0.5 -6.069999999999999396 1 0 0 0 0 -1 forward_v I I I I #
coedge $-1 $103 $104 $105 $106 forward $82 $-1 #
coedge $-1 $107 $90 $108 $109 forward $79 $-1 #
coedge $-1 $90 $107 $110 $111 reversed $79 $-1 #
coedge $-1 $104 $103 $90 $98 reversed $82 $-1 #
edge $-1 $112 -3.385483606557378344 $113 3.485483337812597782 $90 $114 reversed 7 unknown #
face $-1 $115 $116 $2 $-1 $117 reversed single #
loop $-1 $-1 $118 $91 #
plane-surface $-1 -8.599999999999999645 -0.5 6.370000000000000107 0 1 0 1 0 0 forward_v I I I I #
coedge $-1 $119 $120 $121 $122 reversed $92 $-1 #
coedge $-1 $97 $94 $123 $124 reversed $82 $-1 #
coedge $-1 $94 $97 $125 $126 forward $82 $-1 #
coedge $-1 $127 $128 $94 $106 reversed $92 $-1 #
edge $-1 $129 0.2999999999999999334 $130 7.174573496900814362 $94 $131 reversed 7 unknown #
coedge $-1 $96 $95 $132 $133 reversed $79 $-1 #
coedge $-1 $123 $134 $95 $109 reversed $135 $-1 #
edge $-1 $113 0.3000000000000007105 $136 12.44000000000000128 $95 $137 reversed 7 unknown #
coedge $-1 $138 $125 $96 $111 forward $139 $-1 #
edge $-1 $112 0.3000000000000007105 $140 12.44000000000000128 $96 $141 forward 7 unknown #
vertex $-1 $111 $142 #
vertex $-1 $109 $143 #
straight-curve $-1 -8.009999999999999787 -4.185483606557378167 -6.069999999999999396 0 1 -0 I I #
face $-1 $144 $145 $2 $-1 $146 forward single #
loop $-1 $-1 $147 $99 #
plane-surface $-1 10 0 6.370000000000000107 0 0 -1 1 0 0 forward_v I I I I #
coedge $-1 $148 $121 $149 $150 forward $100 $-1 #
coedge $-1 $151 $102 $152 $153 forward $92 $-1 #
coedge $-1 $102 $154 $155 $156 reversed $92 $-1 #
coedge $-1 $118 $157 $102 $122 forward $100 $-1 #
edge $-1 $158 -6.520000000000000462 $159 6.219999999999999751 $121 $160 reversed 7 unknown #
coedge $-1 $161 $108 $103 $124 forward $135 $-1 #
edge $-1 $113 0.005877833859494043488 $130 2.20587783385949443 $123 $162 forward 7 unknown #
coedge $-1 $110 $163 $104 $126 reversed $139 $-1 #
edge $-1 $112 -1.099998521905693138 $129 1.099998521905694027 $104 $164 forward 7 unknown #
coedge $-1 $165 $105 $163 $166 forward $92 $-1 #
coedge $-1 $105 $151 $167 $168 reversed $92 $-1 #
vertex $-1 $126 $169 #
vertex $-1 $170 $171 #
straight-curve $-1 -5.810002956188612622 -0.5 -6.069999999999999396 0 1 0 I I #
coedge $-1 $172 $173 $107 $133 forward $174 $-1 #
edge $-1 $140 -3.385483606557378344 $136 3.485483337812597782 $107 $175 forward 7 unknown #
coedge $-1 $108 $161 $172 $176 reversed $135 $-1 #
loop $-1 $-1 $108 $177 #
vertex $-1 $133 $178 #
straight-curve $-1 -8.009999999999999787 -7.670966944369975948 -6.370000000000000107 0 0 -1 I I #
coedge $-1 $163 $110 $173 $179 reversed $139 $-1 #
loop $-1 $-1 $163 $180 #
vertex $-1 $111 $181 #
straight-curve $-1 -8.009999999999999787 -0.7999999999999998224 -6.370000000000000107 0 0 1 I I #
point $-1 -8.009999999999999787 -0.7999999999999998224 -6.069999999999999396 #
point $-1 -8.009999999999999787 -7.670966944369975948 -6.069999999999999396 #
face $-1 $177 $182 $2 $-1 $93 reversed single #
loop $-1 $-1 $183 $115 #
plane-surface $-1 -2.5 -7.879999999999999893 6.370000000000000107 -0.00163934205947193672 -0.9999986562779032973 0 -0.9999986562779031862 0.001639342059471936503 0 forward_v I I I I #
coedge $-1 $184 $155 $185 $186 reversed $116 $-1 #
coedge $-1 $157 $118 $187 $188 forward $100 $-1 #
coedge $-1 $155 $184 $118 $150 reversed $116 $-1 #
edge $-1 $159 -6.510002956188611911 $189 -3.200000000000000178 $149 $190 forward 7 unknown #
coedge $-1 $128 $119 $191 $192 forward $92 $-1 #
coedge $-1 $193 $194 $119 $153 reversed $195 $-1 #
edge $-1 $158 0.25 $196 7.624573765645592971 $152 $197 forward 7 unknown #
coedge $-1 $120 $198 $183 $199 reversed $92 $-1 #
coedge $-1 $147 $149 $120 $156 forward $116 $-1 #
edge $-1 $159 0.25 $200 7.624573765645592971 $155 $201 forward 7 unknown #
coedge $-1 $121 $148 $193 $202 reversed $100 $-1 #
vertex $-1 $153 $203 #
vertex $-1 $156 $204 #
straight-curve $-1 -5.810002956188612622 -0.5 0.1500000000000003553 0 0 -1 I I #
coedge $-1 $134 $123 $205 $170 forward $135 $-1 #
straight-curve $-1 -8.015877825961318592 -7.670957308589711587 -6.069999999999999396 0.9999986562779032973 -0.00163934205947193672 0 I I #
coedge $-1 $125 $138 $127 $166 reversed $139 $-1 #
straight-curve $-1 -6.910001478094306648 -0.7999999999999999334 -6.069999999999999396 1 0 -0 I I #
coedge $-1 $198 $127 $206 $207 forward $92 $-1 #
edge $-1 $129 0.1500000000000003553 $208 12.28999999999999915 $127 $209 reversed 7 unknown #
coedge $-1 $210 $205 $128 $168 forward $182 $-1 #
edge $-1 $130 0 $211 1 $167 $212 forward 7 unknown #
point $-1 -5.810002956188612622 -0.7999999999999999334 -6.069999999999999396 #
edge $-1 $130 0.1500000000000003553 $213 12.2900000000000027 $161 $214 reversed 7 unknown #
point $-1 -5.810002956188612622 -7.674573496900814362 -6.069999999999999396 #
coedge $-1 $206 $132 $134 $176 forward $174 $-1 #
coedge $-1 $132 $206 $138 $179 forward $174 $-1 #
loop $-1 $-1 $206 $215 #
straight-curve $-1 -8.009999999999999787 -4.185483606557378167 6.070000000000000284 -0 -1 -0 I I #
edge $-1 $136 -1.094119209953879013 $213 1.105880790046121165 $134 $216 reversed 7 unknown #
face $-1 $215 $135 $2 $-1 $217 reversed single #
point $-1 -8.009999999999999787 -7.670966944369975948 6.070000000000001172 #
edge $-1 $208 8.881784197001252323e-16 $140 2.199997043811388053 $138 $218 reversed 7 unknown #
face $-1 $219 $139 $2 $-1 $220 reversed single #
point $-1 -8.009999999999999787 -0.7999999999999998224 6.070000000000000284 #
loop $-1 $-1 $205 $144 #
coedge $-1 $221 $185 $154 $199 forward $145 $-1 #
coedge $-1 $149 $147 $222 $223 reversed $116 $-1 #
coedge $-1 $183 $224 $147 $186 forward $145 $-1 #
edge $-1 $225 6.243532594022575211 $200 9.553539997941276951 $147 $226 forward 7 unknown #
coedge $-1 $222 $227 $148 $188 reversed $228 $-1 #
edge $-1 $189 0 $229 12.74000000000000021 $148 $230 forward 7 unknown #
vertex $-1 $150 $231 #
straight-curve $-1 0.7000000000000001776 -0.5 6.370000000000000107 1 -0 0 I I #
coedge $-1 $232 $221 $151 $192 reversed $145 $-1 #
edge $-1 $196 -6.520000000000000462 $211 -6.219999999999999751 $191 $233 forward 7 unknown #
coedge $-1 $234 $152 $157 $202 forward $195 $-1 #
coedge $-1 $152 $234 $232 $235 forward $195 $-1 #
loop $-1 $-1 $193 $219 #
vertex $-1 $153 $236 #
straight-curve $-1 -5.810002956188612622 -0.25 -6.370000000000000107 0 -1 0 I I #
coedge $-1 $154 $165 $237 $238 forward $92 $-1 #
edge $-1 $200 -6.219999999999999751 $239 -5.919999999999999929 $183 $240 reversed 7 unknown #
vertex $-1 $156 $241 #
straight-curve $-1 -5.810002956188611734 -0.25 6.370000000000000107 0 -1 0 I I #
edge $-1 $158 3.489997043811388089 $229 6.800000000000000711 $193 $242 forward 7 unknown #
point $-1 -5.810002956188612622 -0.5 -6.370000000000000107 #
point $-1 -5.810002956188611734 -0.5 6.370000000000000107 #
coedge $-1 $167 $237 $161 $170 reversed $182 $-1 #
coedge $-1 $173 $172 $165 $207 reversed $174 $-1 #
edge $-1 $208 0.2999999999999999334 $213 7.174573496900814362 $165 $243 reversed 7 unknown #
vertex $-1 $207 $244 #
straight-curve $-1 -5.810002956188612622 -0.7999999999999999334 -6.219999999999999751 0 0 -1 I I #
coedge $-1 $237 $167 $221 $245 reversed $182 $-1 #
vertex $-1 $192 $246 #
intcurve-curve $-1 forward { surfcur full nurbs 3 open 2 
	0 3 1 3 
	-5.810002956188612622 -7.674573496900814362 -6.069999999999999396 1 
	-5.809784377247349418 -7.741240611475206812 -6.069999999999998508 1 
	-5.809893666717980132 -7.807907188560399447 -6.069999999999998508 1 
	-5.810002956188612622 -7.874573765645592971 -6.069999999999999396 1 
	0.01000000000000000021 
	plane -5.810002956188612622 -0.5 -6.069999999999999396 1 0 0 0 0 -1 forward_v I I I I 
	null_surface 
	nullbs 
	nullbs 
	I I 
	0 
	0 
	0 
	surf1 } I I #
vertex $-1 $176 $247 #
straight-curve $-1 -5.810002956188612622 -7.674573496900814362 -6.219999999999999751 0 0 -1 I I #
face $-1 $180 $174 $2 $-1 $248 reversed single #
straight-curve $-1 -6.915882260238279677 -7.67276058000893002 6.070000000000002061 -0.9999986562779032973 0.00163934205947193672 0 I I #
plane-surface $-1 -8.009999999999999787 -7.670966944369975948 -6.370000000000000107 0.00163934205947193672 0.9999986562779032973 0 0.9999986562779031862 -0.001639342059471936503 0 forward_v I I I I #
straight-curve $-1 -5.810002956188611734 -0.7999999999999998224 6.070000000000000284 1 0 0 I I #
face $-1 $249 $195 $2 $-1 $250 forward single #
plane-surface $-1 -5.810002956188612622 -0.7999999999999999334 -6.370000000000000107 0 -1 0 -1 0 0 forward_v I I I I #
coedge $-1 $191 $183 $210 $245 forward $145 $-1 #
coedge $-1 $251 $187 $184 $223 forward $228 $-1 #
edge $-1 $189 0.25 $225 7.629999999999999893 $184 $252 forward 7 unknown #
coedge $-1 $185 $232 $251 $253 reversed $145 $-1 #
vertex $-1 $223 $254 #
straight-curve $-1 3.74352420444986711 -7.890235285581065128 6.370000000000000107 -0.9999986562779032973 0.00163934205947193672 0 I I #
coedge $-1 $187 $251 $234 $255 reversed $228 $-1 #
loop $-1 $-1 $251 $249 #
vertex $-1 $255 $256 #
straight-curve $-1 -2.5 -0.5 6.370000000000000107 0 0 -1 I I #
point $-1 -2.5 -0.5 6.370000000000000107 #
coedge $-1 $224 $191 $194 $235 reversed $145 $-1 #
straight-curve $-1 -5.810002956188612622 -7.874573765645592971 0.1500000000000003553 -0 0 1 I I #
coedge $-1 $194 $193 $227 $255 forward $195 $-1 #
edge $-1 $257 -3.756453968756456874 $196 -0.4464465648377549112 $194 $258 forward 7 unknown #
point $-1 -5.810002956188612622 -7.874573765645592971 -6.370000000000000107 #
coedge $-1 $205 $210 $198 $238 reversed $182 $-1 #
edge $-1 $213 0 $239 1 $237 $259 forward 7 unknown #
vertex $-1 $245 $260 #
straight-curve $-1 -5.810002956188612622 -7.874573765645592971 0.1500000000000003553 -0 0 1 I I #
point $-1 -5.810002956188611734 -7.874573765645592971 6.370000000000000107 #
straight-curve $-1 -9.300000000000000711 -0.5 -6.370000000000000107 1 -0 0 I I #
straight-curve $-1 -5.810002956188611734 -0.5 6.070000000000000284 -0 1 0 I I #
point $-1 -5.810002956188612622 -0.7999999999999999334 6.069999999999999396 #
edge $-1 $239 -5.919999999999999929 $211 6.219999999999999751 $221 $261 reversed 7 unknown #
point $-1 -5.810002956188612622 -7.874573765645592971 -6.069999999999999396 #
point $-1 -5.810002956188612622 -7.674573496900814362 6.070000000000002949 #
plane-surface $-1 -5.810002956188611734 -0.5 6.070000000000000284 0 0 -1 -1 0 0 forward_v I I I I #
face $-1 $-1 $228 $2 $-1 $262 forward single #
plane-surface $-1 -10 0 -6.370000000000000107 0 0 -1 1 0 0 forward_v I I I I #
coedge $-1 $227 $222 $224 $253 forward $228 $-1 #
straight-curve $-1 -2.5 -0.25 6.370000000000000107 0 -1 0 I I #
edge $-1 $225 0 $257 12.74000000000000021 $251 $263 forward 7 unknown #
point $-1 -2.499999999999999556 -7.879999999999999893 6.370000000000000107 #
edge $-1 $229 0.25 $257 7.630000000000000782 $234 $264 forward 7 unknown #
point $-1 -2.5 -0.5 -6.370000000000000107 #
vertex $-1 $235 $265 #
straight-curve $-1 -6.256448921126253282 -7.87384188701454768 -6.370000000000000107 -0.9999986562779032973 0.00163934205947193672 0 I I #
intcurve-curve $-1 forward { surfcur full nurbs 3 open 2 
	0 3 1 3 
	-5.810002956188612622 -7.674573496900814362 6.070000000000002949 1 
	-5.809784377247349418 -7.741240611475206812 6.070000000000001172 1 
	-5.809893666717980132 -7.807907188560399447 6.070000000000001172 1 
	-5.810002956188612622 -7.874573765645592971 6.070000000000000284 1 
	0.01000000000000000021 
	plane -5.810002956188612622 -0.5 -6.069999999999999396 1 0 0 0 0 -1 forward_v I I I I 
	null_surface 
	nullbs 
	nullbs 
	I I 
	0 
	0 
	0 
	surf1 } I I #
point $-1 -5.810002956188612622 -7.874573765645592971 6.070000000000000284 #
straight-curve $-1 -5.810002956188612622 -7.874573765645592971 0.1500000000000003553 -0 0 1 I I #
plane-surface $-1 -2.5 -0.5 6.370000000000000107 1 0 0 0 -1 0 forward_v I I I I #
straight-curve $-1 -2.5 -7.880000000000000782 6.370000000000000107 0 -0 -1 I I #
straight-curve $-1 -2.5 -0.25 -6.370000000000000107 0 -1 0 I I #
point $-1 -2.5 -7.880000000000000782 -6.370000000000000107 #
End-of-ACIS-data 