600 0 1 0           
104 GICL Pro/E ACIS Translator - Source: f:/data5/repository/PTC/V18/bboxrev2/boombox/l_block_step.prt - 6 0 13 ACIS 6.0.3 NT 24 Thu Apr 04 10:05:32 2002 
1 9.9999999999999995e-007 1e-010 
body $-1 $1 $-1 $-1 #
lump $-1 $-1 $2 $0 #
shell $-1 $-1 $-1 $3 $-1 $1 #
face $-1 $4 $5 $2 $-1 $6 reversed single #
face $-1 $7 $8 $2 $-1 $9 forward single #
loop $-1 $-1 $10 $3 #
plane-surface $-1 10 0 6.3700000000000001 0 0 -1 1 0 0 forward_v I I I I #
face $-1 $11 $12 $2 $-1 $13 reversed single #
loop $-1 $-1 $14 $4 #
plane-surface $-1 -2.5 -7.8799999999999999 6.3700000000000001 -0.0016393420594720055 -0.9999986562779033 0 -0.99999865627790319 0.0016393420594720052 0 forward_v I I I I #
coedge $-1 $15 $16 $17 $18 forward $5 $-1 #
face $-1 $19 $20 $2 $-1 $21 forward single #
loop $-1 $-1 $22 $7 #
plane-surface $-1 -5.8100029561889999 -0.5 -6.0700000000000003 1 0 0 0 0 -1 forward_v I I I I #
coedge $-1 $23 $17 $24 $25 reversed $8 $-1 #
coedge $-1 $26 $10 $27 $28 forward $5 $-1 #
coedge $-1 $10 $26 $29 $30 reversed $5 $-1 #
coedge $-1 $14 $31 $10 $18 reversed $8 $-1 #
edge $-1 $32 8.1967213114636151e-005 $33 3.3100893711322033 $10 $34 forward 7 unknown #
face $-1 $35 $36 $2 $-1 $37 forward single #
loop $-1 $-1 $38 $11 #
plane-surface $-1 -8.5999999999999996 -0.5 6.3700000000000001 0 1 0 1 0 0 forward_v I I I I #
coedge $-1 $39 $29 $40 $41 forward $12 $-1 #
tcoedge-coedge $-1 $42 $14 $43 $44 reversed $8 $45 -0.00015191616928841392 -1.1102230246251565e-016 #
coedge $-1 $29 $46 $14 $25 forward $12 $-1 #
edge $-1 $47 5.5988390795569743e-008 $32 1 $24 $48 forward 7 unknown #
coedge $-1 $16 $15 $38 $49 forward $5 $-1 #
coedge $-1 $50 $51 $15 $28 reversed $36 $-1 #
edge $-1 $33 0 $52 7.3799999999999999 $15 $53 forward 7 unknown #
coedge $-1 $22 $24 $16 $30 forward $12 $-1 #
edge $-1 $32 0 $54 7.3745737656455921 $16 $55 forward 7 unknown #
coedge $-1 $17 $56 $50 $57 forward $8 $-1 #
vertex $-1 $30 $58 #
vertex $-1 $28 $59 #
straight-curve $-1 -5.8100849232919725 -7.8745736312732912 6.3700000000000001 0.99999865627790319 -0.0016393420594721239 0 I I #
face $-1 $60 $61 $2 $-1 $62 forward single #
loop $-1 $-1 $50 $19 #
plane-surface $-1 -2.5 -0.5 6.3700000000000001 1 0 0 0 -1 0 forward_v I I I I #
coedge $-1 $63 $40 $26 $49 reversed $20 $-1 #
coedge $-1 $64 $22 $65 $66 reversed $12 $-1 #
coedge $-1 $38 $67 $22 $41 reversed $20 $-1 #
edge $-1 $54 8.8817841970012523e-016 $68 12.740000000000002 $22 $69 forward 7 unknown #
coedge $-1 $56 $23 $64 $70 forward $8 $-1 #
tcoedge-coedge $-1 $71 $72 $23 $44 forward $73 $74 0 0.00015191616928841392 #
tedge-edge $-1 $75 0 $47 0.00015191616928841392 $23 $76 forward 7 unknown 0.00020491804152765445 #
pcurve $-1 0 forward { exppc nurbs 2 open 2 
	-0.00015191616928844631 2 -1.1102230246251565e-016 2 
	3.3101303547414647 0.2999999906501305 1 
	3.3105914203168529 6.3699999953213746 0.99999999711518472 
	3.3101303547421796 12.439999999992619 1 
	0 
	plane -2.5 -7.8799999999999999 6.3700000000000001 -0.0016393420594720055 -0.9999986562779033 0 -0.99999865627790319 0.0016393420594720052 0 forward_v I I I I 
	} 0 0 #
tcoedge-coedge $-1 $24 $77 $71 $78 reversed $12 $79 -1 0 #
tvertex-vertex $-1 $25 $80 0.00032786865984510037 #
intcurve-curve $-1 forward { surfintcur full nurbs 3 open 2 
	0 3 1 3 
	-5.8101259068434867 -7.8745735640871413 6.0700000000000127 1 
	-5.8101122456596483 -7.8745735864825246 6.1700000000000079 1 
	-5.81009858447581 -7.8745736088779079 6.2700000000000031 1 
	-5.8100849232919725 -7.8745736312732912 6.3700000000000001 1 
	0.001 
	plane -2.5 -7.8799999999999999 6.3700000000000001 -0.0016393420594720055 -0.9999986562779033 0 -0.99999865627790319 0.0016393420594720052 0 forward_v I I I I 
	plane -5.8100029561889999 -0.5 -6.0700000000000003 1 0 0 0 0 -1 forward_v I I I I 
	nullbs 
	nullbs 
	I I 
	0 
	0 
	0 
	} I I #
edge $-1 $52 0 $54 3.310002956188999 $26 $81 forward 7 unknown #
coedge $-1 $82 $27 $31 $57 reversed $36 $-1 #
coedge $-1 $27 $82 $63 $83 forward $36 $-1 #
vertex $-1 $49 $84 #
straight-curve $-1 -2.5 -7.8799999999999999 6.3700000000000001 0 1 0 I I #
vertex $-1 $30 $85 #
straight-curve $-1 -5.8100029561889999 -7.8745737656455921 6.370000000000001 0 1 0 I I #
coedge $-1 $31 $42 $86 $87 forward $8 $-1 #
edge $-1 $88 0 $33 12.74 $31 $89 forward 7 unknown #
point $-1 -5.810002956188999 -7.8745737656455921 6.3700000000000001 #
point $-1 -2.5 -7.8799999999999999 6.3700000000000001 #
face $-1 $90 $73 $2 $-1 $91 reversed single #
loop $-1 $-1 $92 $35 #
plane-surface $-1 -10 0 -6.3700000000000001 0 0 -1 1 0 0 forward_v I I I I #
coedge $-1 $67 $38 $51 $83 reversed $20 $-1 #
coedge $-1 $93 $39 $42 $70 reversed $12 $-1 #
coedge $-1 $92 $86 $39 $66 forward $61 $-1 #
edge $-1 $94 0 $68 7.3745736312736998 $39 $95 forward 7 unknown #
coedge $-1 $40 $63 $92 $96 forward $20 $-1 #
vertex $-1 $66 $97 #
straight-curve $-1 -5.8100029561889999 -0.5 6.370000000000001 0 0 -1 I I #
edge $-1 $75 8.8817841970012523e-015 $94 0.29999999999999893 $64 $98 forward 7 unknown #
tcoedge-coedge $-1 $99 $43 $46 $78 forward $73 $100 0 1 #
tcoedge-coedge $-1 $43 $99 $93 $101 reversed $73 $102 -1 0 #
loop $-1 $-1 $99 $60 #
pcurve $-1 0 forward { exppc nubs 2 open 7 
	0 2 2.5319361548068986e-005 2 5.0638723096137972e-005 2 7.5958084644206961e-005 2 0.00010127744619227594 2 
	0.00012659680774034494 2 0.00015191616928841392 2 
	0.19999999999982301 -0.29999999999999011 
	0.19999999999982374 -1.3116666655533142 
	0.19999999999982443 -2.3233333327280108 
	0.19999999999981449 -3.3349999999027071 
	0.19999999999980456 -4.3466666680502275 
	0.19999999999980828 -5.3583333361977479 
	0.19999999999981194 -6.3700000046695422 
	0.1999999999998191 -7.3816666731413392 
	0.19999999999982621 -8.3933333412888587 
	0.19999999999982065 -9.4050000094363799 
	0.1999999999998151 -10.416666676611078 
	0.1999999999998128 -11.428333343785773 
	0.19999999999981052 -12.440000009339096 
	0.001 
	plane -5.8100029561889999 -7.674573496901 -6.3700000000000001 -0.9999986562779033 0.0016393420594720055 0 -0.0016393420594720052 -0.99999865627790319 0 reverse_v I I I I 
	} 0 0 #
tvertex-vertex $-1 $101 $103 0.00020491803275992678 #
ellipse-curve $-1 79906.57662047859 -138.87848626308227 8.8817841970012523e-016 0.0016393420594720052 0.9999986562779033 -1.7802492558240611e-023 -79912.38674638544 131.00391269899512 -6.0700000000000109 1 F 0 F 0.00015191616928841392 #
coedge $-1 $46 $104 $105 $106 reversed $12 $-1 #
tedge-edge $-1 $47 0 $107 1 $46 $108 forward 7 unknown 0.00032786819161323422 #
pcurve $-1 0 forward { exppc nurbs 3 open 2 
	-1 3 0 3 
	-12.140000000000001 -7.174573496901 1 
	-12.140000000000001 -7.2412402083585663 1 
	-12.140000000000001 -7.3079069198161326 1 
	-12.140000000000001 -7.3745736312736998 1 
	0 
	plane -5.8100029561889999 -0.5 -6.0700000000000003 -1 0 0 0 0 -1 reverse_v I I I I 
	} 0 0 #
point $-1 -5.8100029561889999 -7.8745736312736998 6.0700000000000003 #
straight-curve $-1 -2.5 -0.5 6.3700000000000001 -1 0 0 I I #
coedge $-1 $51 $50 $109 $110 forward $36 $-1 #
edge $-1 $111 0 $52 12.74 $51 $112 forward 7 unknown #
point $-1 -2.5 -0.5 6.3700000000000001 #
point $-1 -5.810002956188999 -0.5 6.3700000000000001 #
coedge $-1 $65 $109 $56 $87 reversed $61 $-1 #
edge $-1 $94 -2.2028060499174253e-010 $88 3.3100074039190903 $56 $113 forward 7 unknown #
vertex $-1 $57 $114 #
straight-curve $-1 -2.5 -7.8799999999999999 -6.3700000000000001 0 0 1 I I #
face $-1 $115 $116 $2 $-1 $117 reversed single #
plane-surface $-1 -5.8100029561889999 -7.674573496901 -6.3700000000000001 0.9999986562779033 -0.0016393420594720055 0 -0.0016393420594720052 -0.99999865627790319 0 forward_v I I I I #
coedge $-1 $109 $65 $67 $96 reversed $61 $-1 #
tcoedge-coedge $-1 $118 $64 $72 $101 forward $12 $119 0 1 #
vertex $-1 $70 $120 #
straight-curve $-1 -5.8100029561889999 -7.8745736312736998 -6.3700000000000001 0 1 0 I I #
edge $-1 $111 0 $68 3.3100029561889999 $67 $121 forward 7 unknown #
point $-1 -5.8100029561889999 -0.5 -6.3700000000000001 #
straight-curve $-1 -5.8100029564092814 -7.8745737656452306 -6.0700000000000012 0 0 -1 I I #
coedge $-1 $72 $71 $122 $123 forward $73 $-1 #
pcurve $-1 0 forward { exppc nubs 2 open 7 
	0 2 0.16666666666666666 2 0.33333333333333331 2 0.5 2 0.66666666666666663 2 
	0.83333333333333337 2 1 2 
	0.1999998656280999 -12.440000000000003 
	0.18333321015909221 -12.440000000000001 
	0.16666655469008432 -12.440000000000003 
	0.14999989922107546 -12.440000000000003 
	0.13333324375206693 -12.440000000000003 
	0.11666658828305815 -12.440000000000001 
	0.099999932814049508 -12.440000000000003 
	0.083333277345041035 -12.440000000000003 
	0.066666621876032131 -12.440000000000003 
	0.04999996640702406 -12.440000000000005 
	0.03333331093801651 -12.440000000000003 
	0.016666655469008303 -12.440000000000005 
	0 -12.440000000000003 
	0.001 
	plane -5.8100029561889999 -7.674573496901 -6.3700000000000001 -0.9999986562779033 0.0016393420594720055 0 -0.0016393420594720052 -0.99999865627790319 0 reverse_v I I I I 
	} 0 0 #
tedge-edge $-1 $75 0 $124 1 $93 $125 forward 7 unknown 0.00032786797133107647 #
pcurve $-1 0 forward { exppc nurbs 3 open 2 
	-1 3 0 3 
	0 -0.29999999999999982 1 
	0.066666666666606034 -0.29999999999999982 1 
	0.13333333333321207 -0.29999999999999982 1 
	0.19999999999981988 -0.29999999999999982 1 
	0 
	plane -5.8100029561889999 -7.674573496901 -6.3700000000000001 -0.9999986562779033 0.0016393420594720055 0 -0.0016393420594720052 -0.99999865627790319 0 reverse_v I I I I 
	} 0 0 #
point $-1 -5.8101259068434867 -7.8745735640871413 -6.0700000000000101 #
coedge $-1 $77 $118 $126 $127 reversed $12 $-1 #
coedge $-1 $128 $129 $77 $106 forward $130 $-1 #
edge $-1 $107 1.6253665080512292e-013 $131 6.8745734969010002 $77 $132 forward 7 unknown #
tvertex-vertex $-1 $78 $133 1.6255848979088559e-013 #
intcurve-curve $-1 forward { exactcur full nurbs 3 open 2 
	0 3 1 3 
	-5.8100029561889999 -7.8745736312736998 6.0700000000000003 1 
	-5.8100029561889999 -7.8079069198161326 6.0700000000000003 1 
	-5.8100029561889999 -7.7412402083585663 6.0700000000000003 1 
	-5.8100029561889999 -7.674573496901 6.0700000000000003 1 
	0 
	null_surface 
	null_surface 
	nullbs 
	nullbs 
	I I 
	0 
	0 
	0 
	F 1 F 0 } I I #
coedge $-1 $86 $92 $82 $110 reversed $61 $-1 #
edge $-1 $88 0 $111 7.3799999999999999 $82 $134 forward 7 unknown #
vertex $-1 $83 $135 #
straight-curve $-1 -2.5 -0.5 -6.3700000000000001 0 0 1 I I #
straight-curve $-1 -5.8100029561890008 -7.8745737656455912 -6.3700000000000001 0.99999865627790319 -0.0016393420594721239 0 I I #
point $-1 -2.5 -7.8799999999999999 -6.3700000000000001 #
face $-1 $136 $137 $2 $-1 $138 reversed single #
loop $-1 $-1 $139 $90 #
plane-surface $-1 -8.0099999999999998 -7.6709669443699999 -6.3700000000000001 0.0016393420594720055 0.9999986562779033 0 0.99999865627790319 -0.0016393420594720052 0 forward_v I I I I #
coedge $-1 $104 $93 $140 $141 forward $12 $-1 #
pcurve $-1 0 forward { exppc nubs 2 open 7 
	0 2 0.16666666666666666 2 0.33333333333333331 2 0.5 2 0.66666666666666663 2 
	0.83333333333333337 2 1 2 
	0 -7.3745732281564003 
	0 -7.3579065838851188 
	0 -7.3412399396138355 
	4.440892098500706e-016 -7.3245732953425513 
	8.8817841970012523e-016 -7.3079066510712671 
	4.4408920985006705e-016 -7.291240006799983 
	0 -7.2745733625287006 
	0 -7.2579067182574164 
	0 -7.2412400739861322 
	0 -7.2245734297148498 
	0 -7.2079067854435666 
	0 -7.1912401411722833 
	0 -7.174573496901 
	0.001 
	plane -5.8100029561889999 -0.5 -6.0700000000000003 -1 0 0 0 0 -1 reverse_v I I I I 
	} 0 0 #
point $-1 -5.8100029561889999 -7.8745736312736998 -6.3700000000000001 #
straight-curve $-1 -2.5 -0.5 -6.3700000000000001 -1 0 0 I I #
coedge $-1 $142 $143 $99 $123 reversed $116 $-1 #
edge $-1 $107 -8.8817841970012523e-016 $124 12.140000000000001 $99 $144 forward 7 unknown #
tvertex-vertex $-1 $141 $145 1.6253665080512292e-013 #
intcurve-curve $-1 forward { exactcur full nurbs 3 open 2 
	0 3 1 3 
	-5.8103308246008938 -7.8745732281564003 -6.0700000000000003 1 
	-5.8102215351302622 -7.8079066510712662 -6.0700000000000003 1 
	-5.8101122456596315 -7.7412400739861331 -6.0700000000000003 1 
	-5.8100029561889999 -7.674573496901 -6.0700000000000003 1 
	0 
	null_surface 
	null_surface 
	nullbs 
	nullbs 
	I I 
	0 
	0 
	0 
	F 1 F 0 } I I #
coedge $-1 $146 $147 $104 $127 forward $148 $-1 #
edge $-1 $131 8.8817841970012523e-016 $149 12.140000000000001 $104 $150 forward 7 unknown #
coedge $-1 $151 $105 $147 $152 reversed $130 $-1 #
coedge $-1 $105 $151 $142 $153 reversed $130 $-1 #
loop $-1 $-1 $105 $154 #
vertex $-1 $106 $155 #
straight-curve $-1 -5.8100029561889999 -7.674573496901 6.0700000000000003 0 1 0 I I #
point $-1 -5.8100029561889999 -7.6745734969008375 6.0700000000000003 #
straight-curve $-1 -2.5 -7.8799999999999999 -6.3700000000000001 0 1 0 I I #
point $-1 -2.5 -0.5 -6.3700000000000001 #
face $-1 $156 $157 $2 $-1 $158 forward single #
loop $-1 $159 $160 $115 #
plane-surface $-1 -8.0099999999999998 -7.8709672131149997 -6.3700000000000001 -1 0 0 0 1 0 forward_v I I I I #
coedge $-1 $143 $142 $161 $162 forward $116 $-1 #
coedge $-1 $163 $164 $118 $141 reversed $165 $-1 #
edge $-1 $124 0 $149 6.8745734969008376 $118 $166 forward 7 unknown #
coedge $-1 $139 $122 $129 $153 forward $116 $-1 #
coedge $-1 $122 $139 $163 $167 reversed $116 $-1 #
straight-curve $-1 -5.8100029561889999 -7.6745734969008375 6.0699999999999994 0 0 -1 I I #
point $-1 -5.8100029561889999 -7.6745734969008375 -6.0700000000000003 #
coedge $-1 $168 $126 $164 $169 forward $148 $-1 #
coedge $-1 $126 $168 $128 $152 forward $148 $-1 #
loop $-1 $-1 $126 $170 #
vertex $-1 $127 $171 #
straight-curve $-1 -5.8100029561889999 -0.79999999999999993 6.0700000000000012 0 0 -1 I I #
coedge $-1 $129 $128 $172 $173 reversed $130 $-1 #
edge $-1 $174 0 $131 2.1999970438109999 $128 $175 forward 7 unknown #
edge $-1 $107 8.8817722623515697e-016 $176 2.1999999999996143 $142 $177 forward 7 unknown #
face $-1 $-1 $130 $2 $-1 $178 reversed single #
point $-1 -5.8100029561889999 -0.80000000000000004 6.0700000000000003 #
face $-1 $179 $180 $2 $-1 $181 reversed single #
loop $-1 $-1 $182 $136 #
plane-surface $-1 -2.5 -7.8799999999999999 6.3700000000000001 -0.0016393420594720055 -0.9999986562779033 0 -0.99999865627790319 0.0016393420594720052 0 forward_v I I I I #
loop $-1 $-1 $183 $115 #
coedge $-1 $184 $185 $186 $187 reversed $137 $-1 #
coedge $-1 $172 $183 $139 $162 reversed $159 $-1 #
edge $-1 $176 8.8817841970012523e-016 $188 12.140000000000001 $139 $189 forward 7 unknown #
coedge $-1 $190 $140 $143 $167 forward $165 $-1 #
coedge $-1 $140 $190 $146 $169 reversed $165 $-1 #
loop $-1 $-1 $140 $191 #
straight-curve $-1 -5.8100029561889999 -7.6745734969008375 -6.0700000000000003 0 1 0 I I #
edge $-1 $124 0 $188 2.1999999999996134 $143 $192 forward 7 unknown #
coedge $-1 $147 $146 $193 $194 reversed $148 $-1 #
edge $-1 $149 0 $195 2.1999970438109999 $146 $196 forward 7 unknown #
face $-1 $154 $148 $2 $-1 $197 reversed single #
point $-1 -5.8100029561889999 -0.80000000000000004 -6.0700000000000003 #
coedge $-1 $193 $161 $151 $173 forward $159 $-1 #
edge $-1 $176 0 $174 6.8709669443700001 $151 $198 forward 7 unknown #
vertex $-1 $173 $199 #
straight-curve $-1 -8.0099999999999998 -0.79999999999999993 6.0700000000000012 1 0 0 I I #
vertex $-1 $153 $200 #
straight-curve $-1 -5.810002956188999 -7.6745734969008375 6.0700000000000012 -0.99999865627790319 0.0016393420594718903 0 I I #
plane-surface $-1 -5.8100029561889999 -0.5 6.0700000000000003 0 0 -1 -1 0 0 forward_v I I I I #
face $-1 $201 $202 $2 $-1 $203 forward single #
loop $-1 $-1 $204 $156 #
plane-surface $-1 10 0 6.3700000000000001 0 0 -1 1 0 0 forward_v I I I I #
coedge $-1 $205 $186 $206 $207 reversed $157 $-1 #
coedge $-1 $161 $193 $190 $208 reversed $159 $-1 #
coedge $-1 $209 $160 $210 $211 forward $137 $-1 #
coedge $-1 $160 $209 $212 $213 forward $137 $-1 #
coedge $-1 $182 $214 $160 $187 forward $157 $-1 #
edge $-1 $215 0 $216 12.74 $160 $217 forward 7 unknown #
vertex $-1 $167 $218 #
straight-curve $-1 -8.0099999999999998 -7.6709669443699999 6.0700000000000012 0 0 -1 I I #
coedge $-1 $164 $163 $183 $208 forward $165 $-1 #
face $-1 $170 $165 $2 $-1 $219 reversed single #
straight-curve $-1 -5.8100029561889999 -7.6745734969008375 -6.0700000000000003 -0.99999865627790319 0.001639342059471891 0 I I #
coedge $-1 $183 $172 $168 $194 forward $159 $-1 #
edge $-1 $174 0 $195 12.140000000000001 $193 $220 forward 7 unknown #
vertex $-1 $194 $221 #
straight-curve $-1 -5.8100029561889999 -0.79999999999999993 -6.0700000000000003 -1 0 0 I I #
plane-surface $-1 -5.8100029561889999 -0.79999999999999993 -6.3700000000000001 0 -1 0 -1 0 0 forward_v I I I I #
straight-curve $-1 -8.0099999999999998 -7.6709669443699999 6.0700000000000012 0 1 0 I I #
point $-1 -8.0099999999999998 -0.79999999999999993 6.0700000000000012 #
point $-1 -8.0099999999999998 -7.6709669443699999 6.0700000000000003 #
face $-1 $222 $223 $2 $-1 $224 forward single #
loop $-1 $-1 $225 $179 #
plane-surface $-1 -8.5999999999999996 -0.5 6.3700000000000001 0 1 0 1 0 0 forward_v I I I I #
coedge $-1 $226 $212 $227 $228 forward $180 $-1 #
coedge $-1 $214 $182 $229 $230 reversed $157 $-1 #
coedge $-1 $212 $226 $182 $207 forward $180 $-1 #
edge $-1 $231 -1.7763544524703139e-015 $216 0.59000052853157947 $206 $232 forward 7 unknown #
edge $-1 $188 0 $195 6.8709669443700001 $183 $233 forward 7 unknown #
coedge $-1 $185 $184 $234 $235 forward $137 $-1 #
coedge $-1 $236 $237 $184 $211 reversed $223 $-1 #
edge $-1 $215 -0.00016120218579196433 $238 7.370483606557622 $184 $239 forward 7 unknown #
coedge $-1 $204 $206 $185 $213 reversed $180 $-1 #
edge $-1 $240 0 $216 7.3708060109291251 $185 $241 forward 7 unknown #
coedge $-1 $186 $205 $236 $242 forward $157 $-1 #
tvertex-vertex $-1 $211 $243 0.00032240437133967959 #
tvertex-vertex $-1 $213 $244 0.0001612021856285395 #
straight-curve $-1 -8.0099999999999998 -7.8709672131147537 -6.3700000000000001 0 0 1 I I #
point $-1 -8.0099999999999998 -7.6709669443699999 -6.0700000000000003 #
plane-surface $-1 -8.0099999999999998 -0.5 -6.0700000000000003 0 0 1 1 0 0 forward_v I I I I #
straight-curve $-1 -8.0099999999999998 -0.79999999999999982 6.0700000000000012 0 0 -1 I I #
point $-1 -8.0099999999999998 -0.79999999999999993 -6.0700000000000003 #
face $-1 $191 $245 $2 $-1 $246 forward single #
loop $-1 $-1 $236 $201 #
plane-surface $-1 -10 0 -6.3700000000000001 0 0 -1 1 0 0 forward_v I I I I #
coedge $-1 $247 $234 $237 $248 forward $202 $-1 #
coedge $-1 $206 $204 $249 $250 forward $180 $-1 #
coedge $-1 $234 $247 $204 $228 reversed $202 $-1 #
edge $-1 $240 0 $251 0.59000000000000163 $204 $252 forward 7 unknown #
coedge $-1 $249 $253 $205 $230 forward $245 $-1 #
edge $-1 $254 -1.7763568394002505e-015 $231 12.739999999999998 $205 $255 forward 7 unknown #
vertex $-1 $207 $256 #
straight-curve $-1 -8.5999999999999979 -7.8700000000000001 6.3700000000000001 0.99999865627790319 -0.0016393420594710644 0 I I #
straight-curve $-1 -8.0099999999999998 -7.6709669443699999 -6.0700000000000003 0 1 0 I I #
coedge $-1 $225 $227 $209 $235 reversed $202 $-1 #
edge $-1 $238 0 $240 12.74 $209 $257 forward 7 unknown #
coedge $-1 $258 $210 $214 $242 reversed $223 $-1 #
coedge $-1 $210 $258 $225 $248 reversed $223 $-1 #
vertex $-1 $235 $259 #
straight-curve $-1 -8.0099999999999998 -7.870483606557622 -6.3700000000000001 0 1 0 I I #
vertex $-1 $213 $260 #
straight-curve $-1 -8.0099999999999998 -0.5 6.3700000000000001 0 -1 0 I I #
edge $-1 $254 0 $215 0.99999999999997902 $214 $261 forward 7 unknown #
point $-1 -8.0099999999999998 -7.870644808743414 -6.3700000000000001 #
point $-1 -8.009999999999998 -7.8708060109291251 6.3700000000000001 #
loop $-1 $-1 $262 $222 #
plane-surface $-1 -8.5999999999999996 -7.8700000000000001 6.3700000000000001 -1 0 0 0 1 0 forward_v I I I I #
coedge $-1 $227 $225 $262 $263 forward $202 $-1 #
edge $-1 $238 0 $264 0.58999999999999986 $237 $265 forward 7 unknown #
coedge $-1 $262 $229 $226 $250 reversed $245 $-1 #
edge $-1 $251 0 $231 7.3700000000000001 $226 $266 forward 7 unknown #
vertex $-1 $250 $267 #
straight-curve $-1 -8.009999999999998 -0.5 6.3700000000000001 -1 0 0 I I #
coedge $-1 $229 $262 $258 $268 forward $245 $-1 #
tvertex-vertex $-1 $242 $269 0.00032240437174824166 #
straight-curve $-1 -8.5999999999999996 -7.8700000000000001 -6.3699999999999983 0 0 1 I I #
point $-1 -8.5999999999999996 -7.8700000000000001 6.3700000000000001 #
straight-curve $-1 -8.0099999999999998 -0.5 -6.3700000000000001 0 0 1 I I #
coedge $-1 $237 $236 $253 $268 reversed $223 $-1 #
point $-1 -8.0099999999999998 -0.5 -6.3700000000000001 #
point $-1 -8.009999999999998 -0.5 6.3700000000000001 #
intcurve-curve $-1 forward { surfintcur full nurbs 3 open 2 
	0 3 1 3 
	-8.5999999999999996 -7.870483606557622 -6.3700000000000001 1 
	-8.4033333333333324 -7.870483606557622 -6.3699999999999992 1 
	-8.206666666666667 -7.870483606557622 -6.3699999999999992 1 
	-8.0099999999999998 -7.870483606557622 -6.3700000000000001 1 
	0.001 
	plane -2.5 -7.8799999999999999 6.3700000000000001 -0.0016393420594720055 -0.9999986562779033 0 -0.99999865627790319 0.0016393420594720052 0 forward_v I I I I 
	plane -10 0 -6.3700000000000001 0 0 -1 1 0 0 forward_v I I I I 
	nullbs 
	nullbs 
	I I 
	0 
	0 
	0 
	} I I #
coedge $-1 $253 $249 $247 $263 reversed $245 $-1 #
edge $-1 $264 0 $251 12.74 $247 $270 forward 7 unknown #
vertex $-1 $248 $271 #
straight-curve $-1 -8.0099999999999998 -0.5 -6.3700000000000001 -1 0 0 I I #
straight-curve $-1 -8.6000000000000014 -0.5 6.3700000000000001 0 -1 0 I I #
point $-1 -8.5999999999999996 -0.5 6.3700000000000001 #
edge $-1 $264 0 $254 7.3703224043717483 $258 $272 forward 7 unknown #
point $-1 -8.5999999999999996 -7.8703224043717483 -6.3700000000000001 #
straight-curve $-1 -8.5999999999999996 -0.5 -6.3700000000000001 0 0 1 I I #
point $-1 -8.5999999999999996 -0.5 -6.3700000000000001 #
straight-curve $-1 -8.5999999999999996 -0.5 -6.3700000000000001 0 -1 0 I I #
End-of-ACIS-data 