600 0 1 0           
97 GICL ACIS Healer - Source: /gicl/data5/repository/PTC/V18/bboxrev2/boombox/l_block_step.sat - 6 0 18 ACIS 6.0.3 Solaris 24 Sat Apr 13 22:40:18 2002 
1 9.999999999999999547e-07 1.000000000000000036e-10 
body $-1 $1 $-1 $-1 #
lump $-1 $-1 $2 $0 #
shell $-1 $-1 $-1 $3 $-1 $1 #
face $-1 $4 $5 $2 $-1 $6 reversed single #
face $-1 $7 $8 $2 $-1 $9 forward single #
loop $-1 $-1 $10 $3 #
plane-surface $-1 10 0 6.370000000000000107 0 0 -1 1 0 0 forward_v I I I I #
face $-1 $11 $12 $2 $-1 $13 reversed single #
loop $-1 $-1 $14 $4 #
plane-surface $-1 -2.5 -7.879999999999999893 6.370000000000000107 -0.001639342059472005458 -0.9999986562779032973 0 -0.9999986562779031862 0.001639342059472005241 0 forward_v I I I I #
coedge $-1 $15 $16 $17 $18 forward $5 $-1 #
face $-1 $19 $20 $2 $-1 $21 forward single #
loop $-1 $-1 $22 $7 #
plane-surface $-1 -5.810002956188999867 -0.5 -6.070000000000000284 1 0 0 0 0 -1 forward_v I I I I #
coedge $-1 $23 $17 $24 $25 reversed $8 $-1 #
coedge $-1 $26 $10 $27 $28 forward $5 $-1 #
coedge $-1 $10 $26 $29 $30 reversed $5 $-1 #
coedge $-1 $14 $31 $10 $18 reversed $8 $-1 #
edge $-1 $32 -9.553539997941664197 $33 -6.243532594022575211 $10 $34 reversed 7 unknown #
face $-1 $35 $36 $2 $-1 $37 forward single #
loop $-1 $-1 $38 $11 #
plane-surface $-1 -8.599999999999999645 -0.5 6.370000000000000107 0 1 0 1 0 0 forward_v I I I I #
coedge $-1 $39 $29 $40 $41 forward $12 $-1 #
coedge $-1 $42 $14 $43 $44 reversed $8 $-1 #
coedge $-1 $29 $45 $14 $25 forward $12 $-1 #
edge $-1 $46 5.919999999999999929 $32 6.220000000000000639 $24 $47 reversed 7 unknown #
coedge $-1 $16 $15 $38 $48 forward $5 $-1 #
coedge $-1 $49 $50 $15 $28 reversed $36 $-1 #
edge $-1 $33 -7.630000000000000782 $51 -0.25 $15 $52 reversed 7 unknown #
coedge $-1 $22 $24 $16 $30 forward $12 $-1 #
edge $-1 $32 -7.624573765645592083 $53 -0.25 $16 $54 reversed 7 unknown #
coedge $-1 $17 $55 $49 $56 forward $8 $-1 #
vertex $-1 $30 $57 #
vertex $-1 $28 $58 #
straight-curve $-1 3.74352420444986711 -7.890235285581066016 6.370000000000000107 -0.9999986562779032973 0.001639342059472005458 0 I I #
face $-1 $59 $60 $2 $-1 $61 forward single #
loop $-1 $-1 $49 $19 #
plane-surface $-1 -2.5 -0.5 6.370000000000000107 1 0 0 0 -1 0 forward_v I I I I #
coedge $-1 $62 $40 $26 $48 reversed $20 $-1 #
coedge $-1 $63 $22 $64 $65 reversed $12 $-1 #
coedge $-1 $38 $66 $22 $41 reversed $20 $-1 #
edge $-1 $53 -6.220000000000000639 $67 6.519999999999999574 $22 $68 reversed 7 unknown #
coedge $-1 $55 $23 $63 $69 forward $8 $-1 #
coedge $-1 $70 $71 $23 $44 forward $72 $-1 #
edge $-1 $73 -6.070000000000009166 $46 6.070000000000000284 $23 $74 forward 7 unknown #
coedge $-1 $24 $75 $70 $76 reversed $12 $-1 #
vertex $-1 $25 $77 #
straight-curve $-1 -5.810002956188998979 -7.874573765645591195 0.1499999999999999112 0 -0 -1 I I #
edge $-1 $51 3.200000000000000178 $53 6.510002956188999157 $26 $78 reversed 7 unknown #
coedge $-1 $79 $27 $31 $56 reversed $36 $-1 #
coedge $-1 $27 $79 $62 $80 forward $36 $-1 #
vertex $-1 $48 $81 #
straight-curve $-1 -2.5 -0.25 6.370000000000000107 0 -1 0 I I #
vertex $-1 $30 $82 #
straight-curve $-1 -5.810002956188998979 -0.25 6.370000000000000995 0 -1 0 I I #
coedge $-1 $31 $42 $83 $84 forward $8 $-1 #
edge $-1 $85 -12.74000000000000199 $33 0 $31 $86 forward 7 unknown #
point $-1 -5.810002956188998979 -7.874573765645592083 6.370000000000000107 #
point $-1 -2.499999999999999556 -7.880000000000000782 6.370000000000000107 #
face $-1 $87 $72 $2 $-1 $88 reversed single #
loop $-1 $-1 $89 $35 #
plane-surface $-1 -10 0 -6.370000000000000107 0 0 -1 1 0 0 forward_v I I I I #
coedge $-1 $66 $38 $50 $80 reversed $20 $-1 #
coedge $-1 $90 $39 $42 $69 reversed $12 $-1 #
coedge $-1 $89 $83 $39 $65 forward $60 $-1 #
edge $-1 $91 -7.624573765645591195 $67 -0.25 $39 $92 forward 7 unknown #
coedge $-1 $40 $62 $89 $93 forward $20 $-1 #
vertex $-1 $65 $94 #
straight-curve $-1 -5.810002956189000756 -0.5 0.1499999999999999112 0 0 1 I I #
edge $-1 $73 6.220000000000009521 $91 6.519999999999999574 $63 $95 forward 7 unknown #
coedge $-1 $96 $43 $45 $76 forward $72 $-1 #
coedge $-1 $43 $96 $90 $97 reversed $72 $-1 #
loop $-1 $-1 $96 $59 #
vertex $-1 $97 $98 #
straight-curve $-1 -5.810330824600893784 -7.874573228156392268 0 0 0 1 I I #
coedge $-1 $45 $99 $100 $101 reversed $12 $-1 #
edge $-1 $46 0 $102 1 $45 $103 forward 7 unknown #
point $-1 -5.810002956188999867 -7.874573631273699803 6.070000000000000284 #
straight-curve $-1 0.7000000000000001776 -0.5 6.370000000000000107 1 -0 0 I I #
coedge $-1 $50 $49 $104 $105 forward $36 $-1 #
edge $-1 $106 -12.74000000000000021 $51 0 $50 $107 forward 7 unknown #
point $-1 -2.5 -0.5 6.370000000000000107 #
point $-1 -5.810002956188998979 -0.5 6.370000000000000107 #
coedge $-1 $64 $104 $55 $84 reversed $60 $-1 #
edge $-1 $91 0.4464465648373685536 $85 3.756453968756456874 $55 $108 forward 7 unknown #
vertex $-1 $56 $109 #
straight-curve $-1 -2.5 -7.879999999999999893 6.370000000000000107 -0 0 1 I I #
face $-1 $110 $111 $2 $-1 $112 reversed single #
plane-surface $-1 -5.810002956188999867 -7.674573496900999992 -6.370000000000000107 0.9999986562779032973 -0.001639342059472005458 0 -0.001639342059472005241 -0.9999986562779031862 0 forward_v I I I I #
coedge $-1 $104 $64 $66 $93 reversed $60 $-1 #
coedge $-1 $113 $63 $71 $97 forward $12 $-1 #
vertex $-1 $69 $114 #
straight-curve $-1 -5.810002956188998979 -0.25 -6.370000000000000107 -0 1 0 I I #
edge $-1 $106 -6.800000000000000711 $67 -3.489997043810999955 $66 $115 forward 7 unknown #
point $-1 -5.810002956189000756 -0.5 -6.369999999999999218 #
straight-curve $-1 -5.810002956188998979 -7.874573765645591195 0.1499999999999999112 0 -0 -1 I I #
coedge $-1 $71 $70 $116 $117 forward $72 $-1 #
edge $-1 $73 0 $118 1 $90 $119 forward 7 unknown #
point $-1 -5.810002956188998979 -7.874573765645591195 -6.070000000000009166 #
coedge $-1 $75 $113 $120 $121 reversed $12 $-1 #
coedge $-1 $122 $123 $75 $101 forward $124 $-1 #
edge $-1 $102 -7.174573496900837455 $125 -0.2999999999999999334 $75 $126 forward 7 unknown #
vertex $-1 $76 $127 #
intcurve-curve $-1 forward { exactcur full nurbs 3 open 2 
	0 3 1 3 
	-5.810002956188999867 -7.874573631273699803 6.070000000000000284 1 
	-5.810002956188999867 -7.807906919816132607 6.070000000000000284 1 
	-5.810002956188999867 -7.741240208358566299 6.070000000000000284 1 
	-5.810002956188999867 -7.674573496900999992 6.070000000000000284 1 
	0 
	null_surface 
	null_surface 
	nullbs 
	nullbs 
	I I 
	0 
	0 
	0 
	F 1 F 0 } I I #
coedge $-1 $83 $89 $79 $105 reversed $60 $-1 #
edge $-1 $85 -7.630000000000000782 $106 -0.25 $79 $128 forward 7 unknown #
vertex $-1 $80 $129 #
straight-curve $-1 -2.5 -0.5 6.370000000000000107 0 0 1 I I #
straight-curve $-1 -6.256448921126253282 -7.87384188701454768 -6.370000000000000995 0.9999986562779032973 -0.001639342059472005458 0 I I #
point $-1 -2.5 -7.880000000000000782 -6.370000000000000995 #
face $-1 $130 $131 $2 $-1 $132 reversed single #
loop $-1 $-1 $133 $87 #
plane-surface $-1 -8.009999999999999787 -7.670966944369999929 -6.370000000000000107 0.001639342059472005458 0.9999986562779032973 0 0.9999986562779031862 -0.001639342059472005241 0 forward_v I I I I #
coedge $-1 $99 $90 $134 $135 forward $12 $-1 #
point $-1 -5.810002956188998979 -7.874573765645591195 -6.370000000000000107 #
straight-curve $-1 -9.300000000000000711 -0.5 -6.370000000000000107 -1 0 0 I I #
coedge $-1 $136 $137 $96 $117 reversed $111 $-1 #
edge $-1 $102 -12.44000000000000128 $118 -0.2999999999999998224 $96 $138 reversed 7 unknown #
vertex $-1 $135 $139 #
intcurve-curve $-1 forward { exactcur full nurbs 3 open 2 
	0 3 1 3 
	-5.810330824600893784 -7.874573228156400262 -6.070000000000000284 1 
	-5.810221535130262183 -7.807906651071266246 -6.070000000000000284 1 
	-5.810112245659631469 -7.741240073986133119 -6.070000000000000284 1 
	-5.810002956188999867 -7.674573496900999992 -6.070000000000000284 1 
	0 
	null_surface 
	null_surface 
	nullbs 
	nullbs 
	I I 
	0 
	0 
	0 
	F 1 F 0 } I I #
coedge $-1 $140 $141 $99 $121 forward $142 $-1 #
edge $-1 $125 -12.29000000000000092 $143 -0.1500000000000003553 $99 $144 forward 7 unknown #
coedge $-1 $145 $100 $141 $146 reversed $124 $-1 #
coedge $-1 $100 $145 $136 $147 reversed $124 $-1 #
loop $-1 $-1 $100 $148 #
vertex $-1 $101 $149 #
straight-curve $-1 -5.810002956188999867 -0.5 6.070000000000000284 -0 1 0 I I #
point $-1 -5.810002956188999867 -7.674573496900837455 6.070000000000001172 #
straight-curve $-1 -2.5 -0.25 -6.370000000000000107 -0 1 0 I I #
point $-1 -2.5 -0.5 -6.370000000000000107 #
face $-1 $150 $151 $2 $-1 $152 forward single #
loop $-1 $153 $154 $110 #
plane-surface $-1 -8.009999999999999787 -7.870967213114999694 -6.370000000000000107 -1 0 0 0 1 0 forward_v I I I I #
coedge $-1 $137 $136 $155 $156 forward $111 $-1 #
coedge $-1 $157 $158 $113 $135 reversed $159 $-1 #
edge $-1 $118 -7.174573496900838343 $143 -0.2999999999999999334 $113 $160 reversed 7 unknown #
coedge $-1 $133 $116 $123 $147 forward $111 $-1 #
coedge $-1 $116 $133 $157 $161 reversed $111 $-1 #
straight-curve $-1 -5.810002956188999867 -7.674573496900837455 -6.370000000000000107 -0 0 1 I I #
point $-1 -5.810002956189000756 -7.674573496900838343 -6.070000000000000284 #
coedge $-1 $162 $120 $158 $163 forward $142 $-1 #
coedge $-1 $120 $162 $122 $146 forward $142 $-1 #
loop $-1 $-1 $120 $164 #
vertex $-1 $121 $165 #
straight-curve $-1 -5.810002956188999867 -0.7999999999999999334 -6.220000000000000639 0 0 -1 I I #
coedge $-1 $123 $122 $166 $167 reversed $124 $-1 #
edge $-1 $168 -2.199997043810999919 $125 0 $122 $169 reversed 7 unknown #
edge $-1 $102 -1.10588079004592843 $170 1.094119209953684502 $136 $171 forward 7 unknown #
face $-1 $-1 $124 $2 $-1 $172 reversed single #
point $-1 -5.810002956188999867 -0.7999999999999999334 6.070000000000000284 #
face $-1 $173 $174 $2 $-1 $175 reversed single #
loop $-1 $-1 $176 $130 #
plane-surface $-1 -2.5 -7.879999999999999893 6.370000000000000107 -0.001639342059472005458 -0.9999986562779032973 0 -0.9999986562779031862 0.001639342059472005241 0 forward_v I I I I #
loop $-1 $-1 $177 $110 #
coedge $-1 $178 $179 $180 $181 reversed $131 $-1 #
coedge $-1 $166 $177 $133 $156 reversed $153 $-1 #
edge $-1 $170 -12.44000000000000128 $182 -0.2999999999999998224 $133 $183 reversed 7 unknown #
coedge $-1 $184 $134 $137 $161 forward $159 $-1 #
coedge $-1 $134 $184 $140 $163 reversed $159 $-1 #
loop $-1 $-1 $134 $185 #
straight-curve $-1 -5.810002956189000756 -0.5 -6.070000000000000284 0 -1 0 I I #
edge $-1 $118 -2.205877833859106296 $182 -0.005877833859494040886 $137 $186 reversed 7 unknown #
coedge $-1 $141 $140 $187 $188 reversed $142 $-1 #
edge $-1 $143 -1.099998521905499516 $189 1.099998521905499516 $140 $190 forward 7 unknown #
face $-1 $148 $142 $2 $-1 $191 reversed single #
point $-1 -5.810002956189000756 -0.7999999999999999334 -6.070000000000000284 #
coedge $-1 $187 $155 $145 $167 forward $153 $-1 #
edge $-1 $170 -3.485483337812499194 $168 3.385483606557500025 $145 $192 forward 7 unknown #
vertex $-1 $167 $193 #
straight-curve $-1 -5.810002956188999867 -0.7999999999999999334 6.070000000000000284 -1 -0 -0 I I #
vertex $-1 $147 $194 #
straight-curve $-1 -6.915882260238474188 -7.672760580008954001 6.070000000000002061 -0.9999986562779032973 0.001639342059472005458 0 I I #
plane-surface $-1 -5.810002956188999867 -0.5 6.070000000000000284 0 0 -1 -1 0 0 forward_v I I I I #
face $-1 $195 $196 $2 $-1 $197 forward single #
loop $-1 $-1 $198 $150 #
plane-surface $-1 10 0 6.370000000000000107 0 0 -1 1 0 0 forward_v I I I I #
coedge $-1 $199 $180 $200 $201 reversed $151 $-1 #
coedge $-1 $155 $187 $184 $202 reversed $153 $-1 #
coedge $-1 $203 $154 $204 $205 forward $131 $-1 #
coedge $-1 $154 $203 $206 $207 forward $131 $-1 #
coedge $-1 $176 $208 $154 $181 forward $151 $-1 #
edge $-1 $209 -6.370000000000000107 $210 6.370000000000000107 $154 $211 forward 7 unknown #
vertex $-1 $161 $212 #
straight-curve $-1 -8.009999999999999787 -7.670966944369999041 -6.370000000000000107 0 -0 1 I I #
coedge $-1 $158 $157 $177 $202 forward $159 $-1 #
face $-1 $164 $159 $2 $-1 $213 reversed single #
straight-curve $-1 -8.015877825961318592 -7.670957308589736456 -6.070000000000000284 0.9999986562779032973 -0.001639342059472005458 0 I I #
coedge $-1 $177 $166 $162 $188 forward $153 $-1 #
edge $-1 $168 -12.44000000000000128 $189 -0.2999999999999998224 $187 $214 reversed 7 unknown #
vertex $-1 $188 $215 #
straight-curve $-1 -6.910001478094500271 -0.7999999999999998224 -6.070000000000000284 -1 0 0 I I #
plane-surface $-1 -5.810002956188999867 -0.7999999999999999334 -6.370000000000000107 0 -1 0 -1 0 0 forward_v I I I I #
straight-curve $-1 -8.009999999999999787 -4.185483606557499847 6.070000000000000284 0 1 0 I I #
point $-1 -8.009999999999999787 -0.7999999999999999334 6.070000000000000284 #
point $-1 -8.009999999999999787 -7.670966944369999041 6.070000000000001172 #
face $-1 $216 $217 $2 $-1 $218 forward single #
loop $-1 $-1 $219 $173 #
plane-surface $-1 -8.599999999999999645 -0.5 6.370000000000000107 0 1 0 1 0 0 forward_v I I I I #
coedge $-1 $220 $206 $221 $222 forward $174 $-1 #
coedge $-1 $208 $176 $223 $224 reversed $151 $-1 #
coedge $-1 $206 $220 $176 $201 forward $174 $-1 #
edge $-1 $225 -12.34354079073838228 $210 -11.75353999794127979 $200 $226 reversed 7 unknown #
edge $-1 $182 -3.485483337812499194 $189 3.385483606557500025 $177 $227 forward 7 unknown #
coedge $-1 $179 $178 $228 $229 forward $131 $-1 #
coedge $-1 $230 $231 $178 $205 reversed $217 $-1 #
edge $-1 $209 -3.935483606557253822 $232 3.435483606557499847 $178 $233 reversed 7 unknown #
coedge $-1 $198 $200 $179 $207 reversed $174 $-1 #
edge $-1 $234 -3.435483606557499847 $210 3.935483606557253822 $179 $235 forward 7 unknown #
coedge $-1 $180 $199 $230 $236 forward $151 $-1 #
vertex $-1 $205 $237 #
vertex $-1 $207 $238 #
straight-curve $-1 -8.009999999999999787 -7.870967213114753669 0 0 0 1 I I #
point $-1 -8.009999999999999787 -7.670966944369999041 -6.070000000000000284 #
plane-surface $-1 -8.009999999999999787 -0.5 -6.070000000000000284 0 0 1 1 0 0 forward_v I I I I #
straight-curve $-1 -8.009999999999999787 -0.7999999999999998224 -6.370000000000000107 0 0 1 I I #
point $-1 -8.009999999999999787 -0.7999999999999998224 -6.070000000000000284 #
face $-1 $185 $239 $2 $-1 $240 forward single #
loop $-1 $-1 $230 $195 #
plane-surface $-1 -10 0 -6.370000000000000107 0 0 -1 1 0 0 forward_v I I I I #
coedge $-1 $241 $228 $231 $242 forward $196 $-1 #
coedge $-1 $200 $198 $243 $244 forward $174 $-1 #
coedge $-1 $228 $241 $198 $222 reversed $196 $-1 #
edge $-1 $234 8.710000000000000853 $245 9.300000000000000711 $198 $246 reversed 7 unknown #
coedge $-1 $243 $247 $199 $224 forward $239 $-1 #
edge $-1 $248 -12.74000000000000199 $225 -0 $199 $249 reversed 7 unknown #
vertex $-1 $201 $250 #
straight-curve $-1 3.74352420444986711 -7.890235285581066016 6.370000000000000107 -0.9999986562779032973 0.001639342059472005458 0 I I #
straight-curve $-1 -8.009999999999999787 -4.185483606557499847 -6.070000000000000284 0 1 -0 I I #
coedge $-1 $219 $221 $203 $229 reversed $196 $-1 #
edge $-1 $232 -6.370000000000000107 $234 6.370000000000000107 $203 $251 reversed 7 unknown #
coedge $-1 $252 $204 $208 $236 reversed $217 $-1 #
coedge $-1 $204 $252 $219 $242 reversed $217 $-1 #
vertex $-1 $229 $253 #
straight-curve $-1 -8.00999999999999801 -3.935483606557499847 -6.370000000000000107 -0 -1 -0 I I #
vertex $-1 $207 $254 #
straight-curve $-1 -8.00999999999999801 -3.935483606557499847 6.370000000000000107 -0 -1 -0 I I #
edge $-1 $248 -2.343554227959347536 $209 -1.753553435162245266 $208 $255 forward 7 unknown #
point $-1 -8.009999999999999787 -7.870967213114753669 -6.370000000000000107 #
point $-1 -8.009999999999999787 -7.870967213114753669 6.370000000000000107 #
loop $-1 $-1 $256 $216 #
plane-surface $-1 -8.599999999999999645 -7.870000000000000107 6.370000000000000107 -1 0 0 0 1 0 forward_v I I I I #
coedge $-1 $221 $219 $256 $257 forward $196 $-1 #
edge $-1 $232 -1.2900000000000027 $258 -0.7000000000000010658 $231 $259 reversed 7 unknown #
coedge $-1 $256 $223 $220 $244 reversed $239 $-1 #
edge $-1 $245 -3.435000000000000053 $225 3.935000000000000053 $220 $260 reversed 7 unknown #
vertex $-1 $244 $261 #
straight-curve $-1 0.7000000000000001776 -0.5 6.370000000000000107 1 -0 0 I I #
coedge $-1 $223 $256 $252 $262 forward $239 $-1 #
vertex $-1 $236 $263 #
straight-curve $-1 -8.599999999999999645 -7.870000000000000107 6.370000000000000107 -0 0 -1 I I #
point $-1 -8.600000000000001421 -7.870000000000000107 6.370000000000000107 #
straight-curve $-1 -8.009999999999999787 -0.5 0 0 0 -1 I I #
coedge $-1 $231 $230 $247 $262 reversed $217 $-1 #
point $-1 -8.00999999999999801 -0.5 -6.370000000000000107 #
point $-1 -8.009999999999999787 -0.5 6.370000000000000107 #
straight-curve $-1 -6.256448921126253282 -7.87384188701454768 -6.370000000000000995 0.9999986562779032973 -0.001639342059472005458 0 I I #
coedge $-1 $247 $243 $241 $257 reversed $239 $-1 #
edge $-1 $258 -12.74000000000000021 $245 0 $241 $264 forward 7 unknown #
vertex $-1 $242 $265 #
straight-curve $-1 -9.300000000000000711 -0.5 -6.370000000000000107 1 -0 0 I I #
straight-curve $-1 -8.600000000000001421 -3.935000000000000053 6.370000000000000107 0 1 0 I I #
point $-1 -8.600000000000001421 -0.5 6.370000000000000107 #
edge $-1 $258 -3.435000000000000053 $248 3.935000000000000053 $252 $266 reversed 7 unknown #
point $-1 -8.599999999999999645 -7.870000000000000107 -6.370000000000001883 #
straight-curve $-1 -8.599999999999999645 -0.5000000000000004441 6.370000000000000107 0 -0 1 I I #
point $-1 -8.599999999999999645 -0.5 -6.370000000000000107 #
straight-curve $-1 -8.599999999999999645 -3.935000000000000053 -6.370000000000000107 0 1 0 I I #
End-of-ACIS-data 