600 0 1 0           
101 GICL Pro/E ACIS Translator - Source: f:/data5/repository/PTC/V18/bboxrev2/boombox/left_mesh.prt - 6 0 13 ACIS 6.0.3 NT 24 Thu Apr 04 13:43:36 2002 
1 9.9999999999999995e-007 1e-010 
body $-1 $1 $-1 $-1 #
lump $-1 $-1 $2 $0 #
shell $-1 $-1 $-1 $3 $-1 $1 #
face $-1 $4 $5 $2 $-1 $6 reversed single #
face $-1 $7 $8 $2 $-1 $9 reversed single #
loop $-1 $-1 $10 $3 #
spline-surface $-1 forward { exactsur full nurbs 3 3 both open open none none 2 2 
	0 3 1 3 
	0 3 1 3 
	0 25 105.6341951940978 1 
	-106.7339375813802 25 105.6341951940978 1 
	-166.66666666666669 24.999999999999989 105.89502036555911 1 
	-250 25 106.025432954076 1 
	0 75 104.4940718267882 1 
	-101.09538438587479 75 104.4940718267882 1 
	-166.66666581895618 75 104.6679552798135 1 
	-250 75 104.7548970081836 1 
	0 125 103.3539485140862 1 
	-95.456831190297009 125 103.3539485140862 1 
	-166.66666497124561 125 103.44089023252219 1 
	-250 125 103.484361092669 1 
	0 175 102.2138251467766 1 
	-89.818277994791657 175 102.2138251467766 1 
	-166.6666641235351 175 102.2138251467767 1 
	-250 175 102.2138251467766 1 
	0 
	0 
	0 
	0 
	0 
	0 
	0 
	F 1 F 0 F 1 F 0 } I I I I #
face $-1 $11 $12 $2 $-1 $13 forward single #
loop $-1 $-1 $14 $4 #
plane-surface $-1 -62 55 0 -0.98480775301220813 -0.17364817766693005 0 -0.17364817766693005 0.98480775301220813 0 forward_v I I I I #
coedge $-1 $15 $15 $16 $17 forward $5 $18 #
face $-1 $-1 $19 $2 $-1 $20 forward single #
loop $-1 $-1 $21 $7 #
spline-surface $-1 forward { sweepsur angled 
	intcurve forward { exactcur full nurbs 3 open 8 
	0 3 0.070356439038061977 2 0.24341591216128328 2 0.40883722106391551 2 0.51922280234972329 2 
	0.62330593688868285 2 0.83612129325306817 2 1 3 
	-62 55 105.26881484504804 1 
	-68.934326169237124 53.7442257055434 105.26881484504804 1 
	-75.75054640482783 52.113976268666562 105.26881484504804 1 
	-98.940066283371976 47.946581946106015 105.26881484504804 1 
	-114.73980028691112 47.559458315808982 105.26881484504804 1 
	-151.72725799532543 47.590460373861688 105.26881484504804 1 
	-172.64639927480488 47.973799639473846 105.26881484504804 1 
	-187.02926777868825 66.841082325394666 105.26881484504804 1 
	-187.31189112136286 79.260516740349658 105.26881484504804 1 
	-186.26242654826993 103.13792209377101 105.26881484504804 1 
	-185.02160900692246 114.61030250699541 105.26881484504804 1 
	-169.1432538285232 135.92411677717911 105.26881484504804 1 
	-141.86474452654568 131.54161007260905 105.26881484504804 1 
	-97.414750869195558 117.85668337425663 105.26881484504804 1 
	-79.36155916402366 109.91732338651831 105.26881484504804 1 
	-71.169002996840149 107 105.26881484504804 1 
	0 
	null_surface 
	null_surface 
	nullbs 
	nullbs 
	I I 
	0 
	0 
	5 0.070356439038061977 0.24341591216128328 0.40883722106391551 0.51922280234972329 0.62330593688868285 
	F 1 F 0 } I I 
	straight 0 0 0 0 0 -1 I I 
	angled 
	3.3192391127044368e-031 2.9296206188474728e-031 -1 
	0 0 105.26881484504804 
	0 -1 0 
	-1 0 0 
	0 0 -1 
	-105.26881484504804 -100.27370506983478 
	0 0 11 VEC(0,-1,0) 
	0 
	1 0 
	0 
	55 VEC(0.57735026918963,0.57735026918963,0.57735026918963) 
	0 
	full nubs 3 3 open open none none 37 2 
	0 3 0.0625 2 0.078125 2 0.09375 1 0.15625 2 
	0.21875 2 0.23828125 1 0.25 2 0.296875 2 0.34375 2 
	0.375 2 0.390625 2 0.40625 1 0.421875 2 0.4375 2 
	0.46875 2 0.5 2 0.515625 1 0.5234375 1 0.53125 1 
	0.5625 2 0.59375 2 0.625 2 0.640625 2 0.65625 2 
	0.671875 2 0.6875 2 0.71875 2 0.75 2 0.78125 2 
	0.8125 2 0.859375 2 0.90625 2 0.953125 2 0.984375 2 
	0.9921875 1 1 3 
	-105.26881484504804 3 -100.27370506983478 3 
	-62 55 105.26881484504804 
	-68.159846915861536 53.883980959096064 105.26881484505692 
	-74.226934356239397 52.472969285151123 105.26881484504804 
	-81.697720858060634 51.041469927843877 105.26881484504804 
	-83.186009470869735 50.772706001328217 105.26881484504804 
	-86.153293961285797 50.278916489462034 105.26881484504804 
	-93.550694935467021 49.144455635065249 105.26881484504804 
	-100.9122554233151 48.475312318793165 105.26881484504804 
	-113.00432779511756 47.796045706134827 105.26881484504804 
	-119.20559653958703 47.650933645633842 105.26881484505101 
	-127.78643573873025 47.583270869252026 105.26881484504713 
	-131.10653788719503 47.572422175885016 105.26881484504831 
	-134.5268482660301 47.575165112690883 105.26881484504804 
	-141.00181632546901 47.597010882325819 105.26881484504804 
	-146.36126704507194 47.676896761272062 105.26881484504804 
	-156.75054141819351 48.446951648385735 105.26881484504804 
	-161.78247372822645 49.133230986412684 105.26881484504804 
	-169.3166895577194 51.188798339041334 105.26881484504804 
	-172.10670618805193 52.250293230641688 105.26881484504804 
	-175.79518032213005 54.316265698762145 105.26881484504804 
	-176.9442771168485 55.081623760012093 105.26881484504804 
	-179.04937803748592 56.789900773182538 105.26881484504804 
	-180.96816891751325 58.66949581180176 105.26881484504804 
	-182.45077744544756 60.938697385523511 105.26881484504804 
	-183.73146214830916 63.383350811300659 105.26881484504804 
	-184.27494645070146 64.689835788759964 105.26881484504804 
	-185.64379419657433 68.828293978071102 105.26881484504804 
	-186.21739615131835 71.871032819048779 105.26881484504804 
	-186.88662791858948 78.306046615586965 105.26881484504804 
	-186.98679407008635 81.695007132918136 105.26881484504804 
	-186.93837357035216 86.868864380815779 105.26881484504804 
	-186.86520135496909 89.477756647749388 105.26881484504798 
	-186.710733168329 92.958516198903624 105.26881484504787 
	-186.4233476250551 98.159945176245373 105.26881484504804 
	-186.02840518404619 102.40788013870335 105.26881484504804 
	-185.0194415849115 108.85513047230219 105.26881484504804 
	-184.32955438134232 111.9071018889659 105.26881484504952 
	-182.39454703765855 117.42297969920484 105.26881484504656 
	-181.15427830486493 119.89199517429488 105.26881484504506 
	-178.74587721298258 122.97742412895379 105.26881484504949 
	-177.85597330777404 123.90766056580135 105.26881484504804 
	-175.91029493612979 125.57634651764765 105.26881484504804 
	-174.85764279997161 126.31840702024883 105.26881484504804 
	-172.60162002649398 127.62312240516209 105.26881484504804 
	-171.40108628033011 128.18915503234459 105.26881484504804 
	-168.86445234690245 129.15419596798185 105.26881484504804 
	-167.53090361167833 129.55634877857636 105.26881484504804 
	-163.3496358344415 130.53084268459938 105.26881484504804 
	-160.32809325963885 130.8799530325112 105.26881484504804 
	-153.92795733573215 131.06354162000798 105.26881484504804 
	-150.5527542560005 130.9029094075093 105.26881484504804 
	-143.5653720462665 130.16513031573419 105.26881484504804 
	-139.95544142914554 129.5919400134527 105.26881484504804 
	-132.61867886869294 128.12716218366774 105.26881484504804 
	-128.89295368173262 127.23859826223406 105.26881484504952 
	-119.58260746161397 124.7418387290607 105.26881484504582 
	-113.99990417688922 122.99988819343955 105.26881484504804 
	-103.24557922001499 119.35202235821828 105.26881484504804 
	-98.071336095616161 117.44714382680755 105.26881484504804 
	-88.537899176960011 113.80351877293461 105.26881484504804 
	-84.173514978353211 112.06370983409599 105.26881484504804 
	-77.91538885378344 109.5775522543008 105.26881484504804 
	-75.678720327637123 108.69160584004628 105.26881484504804 
	-73.297624907467764 107.78377666275649 105.26881484504804 
	-72.385225597426569 107.43991830759964 105.26881484504804 
	-71.559849044385615 107.13922201300809 105.26881484504804 
	-71.169002996840149 107 105.26881484504804 
	-62 55 103.60377825325502 
	-68.159846915861536 53.883980959096064 103.6037782532639 
	-74.226934356239397 52.472969285151123 103.60377825325502 
	-81.697720858060634 51.041469927843877 103.60377825325502 
	-83.186009470869735 50.772706001328217 103.60377825325502 
	-86.153293961285797 50.278916489462034 103.60377825325502 
	-93.550694935467021 49.144455635065249 103.60377825325502 
	-100.9122554233151 48.475312318793165 103.60377825325502 
	-113.00432779511756 47.796045706134827 103.60377825325502 
	-119.20559653958703 47.650933645633842 103.60377825325799 
	-127.78643573873025 47.583270869252026 103.60377825325411 
	-131.10653788719503 47.572422175885016 103.60377825325529 
	-134.5268482660301 47.575165112690883 103.60377825325502 
	-141.00181632546901 47.597010882325819 103.60377825325502 
	-146.36126704507194 47.676896761272062 103.60377825325502 
	-156.75054141819351 48.446951648385735 103.60377825325502 
	-161.78247372822645 49.133230986412684 103.60377825325502 
	-169.3166895577194 51.188798339041334 103.60377825325502 
	-172.10670618805193 52.250293230641688 103.60377825325502 
	-175.79518032213005 54.316265698762145 103.60377825325502 
	-176.9442771168485 55.081623760012093 103.60377825325502 
	-179.04937803748592 56.789900773182538 103.60377825325502 
	-180.96816891751325 58.66949581180176 103.60377825325502 
	-182.45077744544756 60.938697385523511 103.60377825325502 
	-183.73146214830916 63.383350811300659 103.60377825325502 
	-184.27494645070146 64.689835788759964 103.60377825325502 
	-185.64379419657433 68.828293978071102 103.60377825325502 
	-186.21739615131835 71.871032819048779 103.60377825325502 
	-186.88662791858948 78.306046615586965 103.60377825325502 
	-186.98679407008635 81.695007132918136 103.60377825325502 
	-186.93837357035216 86.868864380815779 103.60377825325502 
	-186.86520135496909 89.477756647749388 103.60377825325494 
	-186.710733168329 92.958516198903624 103.60377825325484 
	-186.4233476250551 98.159945176245373 103.60377825325502 
	-186.02840518404619 102.40788013870335 103.60377825325502 
	-185.0194415849115 108.85513047230219 103.60377825325502 
	-184.32955438134232 111.9071018889659 103.60377825325649 
	-182.39454703765855 117.42297969920484 103.60377825325354 
	-181.15427830486493 119.89199517429488 103.60377825325203 
	-178.74587721298258 122.97742412895379 103.60377825325646 
	-177.85597330777404 123.90766056580135 103.60377825325502 
	-175.91029493612979 125.57634651764765 103.60377825325502 
	-174.85764279997161 126.31840702024883 103.60377825325502 
	-172.60162002649398 127.62312240516209 103.60377825325502 
	-171.40108628033011 128.18915503234459 103.60377825325502 
	-168.86445234690245 129.15419596798185 103.60377825325502 
	-167.53090361167833 129.55634877857636 103.60377825325502 
	-163.3496358344415 130.53084268459938 103.60377825325502 
	-160.32809325963885 130.8799530325112 103.60377825325502 
	-153.92795733573215 131.06354162000798 103.60377825325502 
	-150.5527542560005 130.9029094075093 103.60377825325502 
	-143.5653720462665 130.16513031573419 103.60377825325502 
	-139.95544142914554 129.5919400134527 103.60377825325502 
	-132.61867886869294 128.12716218366774 103.60377825325502 
	-128.89295368173262 127.23859826223406 103.60377825325649 
	-119.58260746161397 124.7418387290607 103.6037782532528 
	-113.99990417688922 122.99988819343955 103.60377825325502 
	-103.24557922001499 119.35202235821828 103.60377825325502 
	-98.071336095616161 117.44714382680755 103.60377825325502 
	-88.537899176960011 113.80351877293461 103.60377825325502 
	-84.173514978353211 112.06370983409599 103.60377825325502 
	-77.91538885378344 109.5775522543008 103.60377825325502 
	-75.678720327637123 108.69160584004628 103.60377825325502 
	-73.297624907467764 107.78377666275649 103.60377825325502 
	-72.385225597426569 107.43991830759964 103.60377825325502 
	-71.559849044385615 107.13922201300809 103.60377825325502 
	-71.169002996840149 107 103.60377825325502 
	-62 55 101.9387416616278 
	-68.159846915861536 53.883980959096064 101.93874166163668 
	-74.226934356239397 52.472969285151123 101.9387416616278 
	-81.697720858060634 51.041469927843877 101.9387416616278 
	-83.186009470869735 50.772706001328217 101.9387416616278 
	-86.153293961285797 50.278916489462034 101.9387416616278 
	-93.550694935467021 49.144455635065249 101.9387416616278 
	-100.9122554233151 48.475312318793165 101.9387416616278 
	-113.00432779511756 47.796045706134827 101.9387416616278 
	-119.20559653958703 47.650933645633842 101.93874166163077 
	-127.78643573873025 47.583270869252026 101.93874166162689 
	-131.10653788719503 47.572422175885016 101.93874166162807 
	-134.5268482660301 47.575165112690883 101.9387416616278 
	-141.00181632546901 47.597010882325819 101.9387416616278 
	-146.36126704507194 47.676896761272062 101.9387416616278 
	-156.75054141819351 48.446951648385735 101.9387416616278 
	-161.78247372822645 49.133230986412684 101.9387416616278 
	-169.3166895577194 51.188798339041334 101.9387416616278 
	-172.10670618805193 52.250293230641688 101.9387416616278 
	-175.79518032213005 54.316265698762145 101.9387416616278 
	-176.9442771168485 55.081623760012093 101.9387416616278 
	-179.04937803748592 56.789900773182538 101.9387416616278 
	-180.96816891751325 58.66949581180176 101.9387416616278 
	-182.45077744544756 60.938697385523511 101.9387416616278 
	-183.73146214830916 63.383350811300659 101.9387416616278 
	-184.27494645070146 64.689835788759964 101.9387416616278 
	-185.64379419657433 68.828293978071102 101.9387416616278 
	-186.21739615131835 71.871032819048779 101.9387416616278 
	-186.88662791858948 78.306046615586965 101.9387416616278 
	-186.98679407008635 81.695007132918136 101.9387416616278 
	-186.93837357035216 86.868864380815779 101.9387416616278 
	-186.86520135496909 89.477756647749388 101.93874166162774 
	-186.710733168329 92.958516198903624 101.93874166162763 
	-186.4233476250551 98.159945176245373 101.9387416616278 
	-186.02840518404619 102.40788013870335 101.9387416616278 
	-185.0194415849115 108.85513047230219 101.9387416616278 
	-184.32955438134232 111.9071018889659 101.93874166162928 
	-182.39454703765855 117.42297969920484 101.93874166162632 
	-181.15427830486493 119.89199517429488 101.93874166162482 
	-178.74587721298258 122.97742412895379 101.93874166162925 
	-177.85597330777404 123.90766056580135 101.9387416616278 
	-175.91029493612979 125.57634651764765 101.9387416616278 
	-174.85764279997161 126.31840702024883 101.9387416616278 
	-172.60162002649398 127.62312240516209 101.9387416616278 
	-171.40108628033011 128.18915503234459 101.9387416616278 
	-168.86445234690245 129.15419596798185 101.9387416616278 
	-167.53090361167833 129.55634877857636 101.9387416616278 
	-163.3496358344415 130.53084268459938 101.9387416616278 
	-160.32809325963885 130.8799530325112 101.9387416616278 
	-153.92795733573215 131.06354162000798 101.9387416616278 
	-150.5527542560005 130.9029094075093 101.9387416616278 
	-143.5653720462665 130.16513031573419 101.9387416616278 
	-139.95544142914554 129.5919400134527 101.9387416616278 
	-132.61867886869294 128.12716218366774 101.9387416616278 
	-128.89295368173262 127.23859826223406 101.93874166162928 
	-119.58260746161397 124.7418387290607 101.93874166162558 
	-113.99990417688922 122.99988819343955 101.9387416616278 
	-103.24557922001499 119.35202235821828 101.9387416616278 
	-98.071336095616161 117.44714382680755 101.9387416616278 
	-88.537899176960011 113.80351877293461 101.9387416616278 
	-84.173514978353211 112.06370983409599 101.9387416616278 
	-77.91538885378344 109.5775522543008 101.9387416616278 
	-75.678720327637123 108.69160584004628 101.9387416616278 
	-73.297624907467764 107.78377666275649 101.9387416616278 
	-72.385225597426569 107.43991830759964 101.9387416616278 
	-71.559849044385615 107.13922201300809 101.9387416616278 
	-71.169002996840149 107 101.9387416616278 
	-62 55 100.27370506983478 
	-68.159846915861536 53.883980959096064 100.27370506984366 
	-74.226934356239397 52.472969285151123 100.27370506983478 
	-81.697720858060634 51.041469927843877 100.27370506983478 
	-83.186009470869735 50.772706001328217 100.27370506983478 
	-86.153293961285797 50.278916489462034 100.27370506983478 
	-93.550694935467021 49.144455635065249 100.27370506983478 
	-100.9122554233151 48.475312318793165 100.27370506983478 
	-113.00432779511756 47.796045706134827 100.27370506983478 
	-119.20559653958703 47.650933645633842 100.27370506983775 
	-127.78643573873025 47.583270869252026 100.27370506983387 
	-131.10653788719503 47.572422175885016 100.27370506983505 
	-134.5268482660301 47.575165112690883 100.27370506983478 
	-141.00181632546901 47.597010882325819 100.27370506983478 
	-146.36126704507194 47.676896761272062 100.27370506983478 
	-156.75054141819351 48.446951648385735 100.27370506983478 
	-161.78247372822645 49.133230986412684 100.27370506983478 
	-169.3166895577194 51.188798339041334 100.27370506983478 
	-172.10670618805193 52.250293230641688 100.27370506983478 
	-175.79518032213005 54.316265698762145 100.27370506983478 
	-176.9442771168485 55.081623760012093 100.27370506983478 
	-179.04937803748592 56.789900773182538 100.27370506983478 
	-180.96816891751325 58.66949581180176 100.27370506983478 
	-182.45077744544756 60.938697385523511 100.27370506983478 
	-183.73146214830916 63.383350811300659 100.27370506983478 
	-184.27494645070146 64.689835788759964 100.27370506983478 
	-185.64379419657433 68.828293978071102 100.27370506983478 
	-186.21739615131835 71.871032819048779 100.27370506983478 
	-186.88662791858948 78.306046615586965 100.27370506983478 
	-186.98679407008635 81.695007132918136 100.27370506983478 
	-186.93837357035216 86.868864380815779 100.27370506983478 
	-186.86520135496909 89.477756647749388 100.2737050698347 
	-186.710733168329 92.958516198903624 100.27370506983461 
	-186.4233476250551 98.159945176245373 100.27370506983478 
	-186.02840518404619 102.40788013870335 100.27370506983478 
	-185.0194415849115 108.85513047230219 100.27370506983478 
	-184.32955438134232 111.9071018889659 100.27370506983625 
	-182.39454703765855 117.42297969920484 100.2737050698333 
	-181.15427830486493 119.89199517429488 100.27370506983179 
	-178.74587721298258 122.97742412895379 100.27370506983623 
	-177.85597330777404 123.90766056580135 100.27370506983478 
	-175.91029493612979 125.57634651764765 100.27370506983478 
	-174.85764279997161 126.31840702024883 100.27370506983478 
	-172.60162002649398 127.62312240516209 100.27370506983478 
	-171.40108628033011 128.18915503234459 100.27370506983478 
	-168.86445234690245 129.15419596798185 100.27370506983478 
	-167.53090361167833 129.55634877857636 100.27370506983478 
	-163.3496358344415 130.53084268459938 100.27370506983478 
	-160.32809325963885 130.8799530325112 100.27370506983478 
	-153.92795733573215 131.06354162000798 100.27370506983478 
	-150.5527542560005 130.9029094075093 100.27370506983478 
	-143.5653720462665 130.16513031573419 100.27370506983478 
	-139.95544142914554 129.5919400134527 100.27370506983478 
	-132.61867886869294 128.12716218366774 100.27370506983478 
	-128.89295368173262 127.23859826223406 100.27370506983625 
	-119.58260746161397 124.7418387290607 100.27370506983256 
	-113.99990417688922 122.99988819343955 100.27370506983478 
	-103.24557922001499 119.35202235821828 100.27370506983478 
	-98.071336095616161 117.44714382680755 100.27370506983478 
	-88.537899176960011 113.80351877293461 100.27370506983478 
	-84.173514978353211 112.06370983409599 100.27370506983478 
	-77.91538885378344 109.5775522543008 100.27370506983478 
	-75.678720327637123 108.69160584004628 100.27370506983478 
	-73.297624907467764 107.78377666275649 100.27370506983478 
	-72.385225597426569 107.43991830759964 100.27370506983478 
	-71.559849044385615 107.13922201300809 100.27370506983478 
	-71.169002996840149 107 100.27370506983478 
	0.001 
	0 
	0 
	0 
	0 
	0 
	0 
	} I I I I #
coedge $-1 $22 $16 $23 $24 reversed $8 $-1 #
coedge $-1 $10 $10 $25 $26 forward $5 $27 #
coedge $-1 $14 $28 $10 $17 reversed $8 $-1 #
edge $-1 $29 0 $30 1 $10 $31 forward 7 unknown #
pcurve $-1 0 forward { exppc nurbs 3 open 4 
	0 3 0.33104139085201878 1 0.66437494168576705 1 1 3 
	0.21610166071829032 0.19999999999999998 1 
	0.22071955554626352 0.23707935471499506 0.99999999999999989 
	0.23017305850904024 0.31227537510680048 1.0000000000000002 
	0.24497696166826219 0.42784535190002482 1 
	0.25523974446793668 0.50670625791673185 0.99999999999999989 
	0.26048153201504287 0.54666666666666697 1 
	0.001 
	spline forward { ref 0 } I I I I 
	} 0 0 #
loop $-1 $-1 $32 $11 #
spline-surface $-1 forward { exactsur full nurbs 3 3 both open open none none 2 2 
	0 3 1 3 
	0 3 1 3 
	0 24.931610375329623 102.63497481886068 1 
	-106.73882370093037 24.931610375329623 102.63497481886068 1 
	-166.67536759558487 24.926398419883135 102.89593217807737 1 
	-250.00469333243257 24.923792536320949 103.02640471227662 1 
	0 74.931610377512214 101.49485145150132 1 
	-101.09889992351604 74.931610377512243 101.49485145150292 1 
	-166.67225474369985 74.926398246757017 101.66886013603379 1 
	-250.00312889216653 74.92379247536266 101.75586631966077 1 
	0 124.93161037751223 100.35472813879932 1 
	-95.45876663431585 124.93161037751224 100.3547281387991 1 
	-166.66935357842064 124.92639817203178 100.44179210723168 1 
	-250.00156444591406 124.92379244427639 100.485329180793 1 
	0 174.93161037532963 99.214604771539484 1 
	-89.818277994791657 174.93161037532963 99.214604771539484 1 
	-166.6666641235351 174.9263981704685 99.214727021524851 1 
	-250 174.92379244306244 99.214793234931449 1 
	0 
	0 
	0 
	0 
	0 
	0 
	0 
	F 1 F 0 F 1 F 0 } I I I I #
coedge $-1 $33 $25 $28 $34 reversed $12 $35 #
coedge $-1 $28 $14 $32 $36 reversed $8 $-1 #
coedge $-1 $25 $33 $14 $24 forward $12 $37 #
edge $-1 $38 -1.4210854715202004e-014 $29 3.0007930473197746 $23 $39 forward 7 unknown #
coedge $-1 $21 $23 $15 $26 reversed $12 $40 #
edge $-1 $30 0 $29 1.0000000000000002 $15 $41 forward 7 unknown #
pcurve $-1 0 forward { exppc nurbs 3 open 45 
	0 3 0.022443843029619444 1 0.044903532287212437 1 0.067377178846272423 1 0.089871397356406452 1 
	0.11240019916999058 1 0.13496575319630019 1 0.15757024332642849 1 0.18021788085661605 1 0.202913743578646 1 
	0.22565215001681374 1 0.24841010473803113 1 0.27116443318193684 1 0.29389552296143201 1 0.3165902724215513 1 
	0.33923788125788246 1 0.3618346869471683 1 0.38439498005377437 1 0.40693127999492357 1 0.42946366618170001 1 
	0.45201715425550648 1 0.47461763501152043 1 0.49728585902576 1 0.52002742972337235 1 0.54283423132905562 1 
	0.56570401791665803 1 0.58860220696494536 1 0.6114903275157495 1 0.63434145361185335 1 0.6571533950866838 1 
	0.67992529052692952 1 0.70265936137466956 1 0.72536566281859216 1 0.74804956180802074 1 0.77071961299006264 1 
	0.79338950709202705 1 0.81609357605730692 1 0.83884273824498512 1 0.86164029843738055 1 0.88449780994706284 1 
	0.90742493283164516 1 0.93043231435546225 1 0.95352576726346505 1 0.9767145715975003 1 1.0000000000000002 3 
	0.26048153201504287 0.54666666666666697 1 
	0.26448985413378079 0.54911626935532176 1 
	0.27274646415250464 0.55426430775210589 1 
	0.28588205695369778 0.56287111016413094 1 
	0.29967076192919168 0.57194606434691209 0.99999999999999989 
	0.3144845067432005 0.58165910567590795 1 
	0.33148062505649939 0.59264455934859583 0.99999999999999967 
	0.35059006774474322 0.60471099730271594 1.0000000000000004 
	0.37206014821484695 0.61782993742499148 0.99999999999999989 
	0.39620176332896506 0.63194564245221785 1 
	0.42357950706040043 0.64703409396733336 1 
	0.4541860450284898 0.66256449525279815 1 
	0.48658531330673244 0.67720907827564114 1 
	0.51955540394737532 0.68985172246018234 1.0000000000000002 
	0.55184186606337515 0.69950814190233257 1 
	0.58259070567196625 0.70550636100221009 0.99999999999999989 
	0.61075208966672967 0.70732592097175995 1 
	0.63523557301326172 0.70503549798384202 0.99999999999999956 
	0.65671073457734486 0.6988332023140168 1 
	0.67488295425181866 0.68904832232774194 1 
	0.69029298298684894 0.67578239955078001 1 
	0.70345283647603118 0.65851799094119468 1 
	0.71437832655177835 0.63621377693549541 1.0000000000000002 
	0.72294557772821699 0.60807132474038894 0.99999999999999967 
	0.7293320247705295 0.57421008696479781 1.0000000000000002 
	0.73361214703268451 0.5360200485948694 1 
	0.73622042814124988 0.49293914548867585 0.99999999999999978 
	0.737426999175956 0.44801548274994724 1 
	0.73791192616803025 0.40379876914316504 1 
	0.73718262750292973 0.3624015128128229 1.0000000000000002 
	0.73474706359642727 0.32355943795042619 1.0000000000000002 
	0.73006527975224278 0.28759482946811649 0.99999999999999978 
	0.72250007227574597 0.25479914010959209 1 
	0.71069159515041458 0.22495206211687732 0.99999999999999989 
	0.6929256880714828 0.19995160393860409 0.99999999999999978 
	0.6700459547813562 0.18092240222693151 1.0000000000000002 
	0.64403380391870657 0.16766903914080522 0.99999999999999967 
	0.61355560327175507 0.15842266843539413 1.0000000000000002 
	0.5791691070087146 0.15299698047196267 0.99999999999999978 
	0.54144184677990848 0.15065224244319494 0.99999999999999989 
	0.49963133811142174 0.15042187476153479 1.0000000000000002 
	0.45329380713310791 0.15065461411271427 1 
	0.4015976840265319 0.15281790761640734 1 
	0.34447454455709636 0.15890825410403395 0.99999999999999978 
	0.28269334457624801 0.1754224667638403 1.0000000000000002 
	0.23878870319763432 0.19091061196881637 1 
	0.21610166071829032 0.19999999999999998 1 
	0.001 
	spline forward { ref 0 } I I I I 
	} 0 0 #
coedge $-1 $16 $22 $21 $34 forward $8 $-1 #
vertex $-1 $26 $42 #
tvertex-vertex $-1 $26 $43 6.0291550413456957e-014 #
intcurve-curve $-1 forward { surfintcur full nurbs 3 open 4 
	0 3 0.33106456627046299 1 0.66439789825920625 1 1 3 
	-62 55 104.97619574375125 1 
	-62.980677607353684 60.561699085491242 104.84922970273544 1.0000000000000002 
	-64.969470345204996 71.840703182654991 104.59146946727728 1.0000000000000002 
	-68.026187339261341 89.176206698763352 104.19457030375655 0.99999999999999978 
	-70.112053751946775 101.0057429631774 103.92305735352885 1 
	-71.169002996840163 107.00000000000001 103.78532637802546 1 
	0.001 
	spline forward { ref 0 } I I I I 
	plane -62 55 0 -0.98480775301220813 -0.17364817766693005 0 -0.17364817766693005 0.98480775301220813 0 forward_v I I I I 
	nurbs 3 open 4 
	0 3 0.33104139085201878 1 0.66437494168576705 1 1 3 
	0.21610166071829032 0.19999999999999998 1 
	0.22071955554626352 0.23707935471499506 0.99999999999999989 
	0.23017305850904024 0.31227537510680048 1.0000000000000002 
	0.24497696166826219 0.42784535190002482 1 
	0.25523974446793668 0.50670625791673185 0.99999999999999989 
	0.26048153201504287 0.54666666666666697 1 
	
	nullbs 
	I I 
	0 
	0 
	0 
	} I I #
coedge $-1 $44 $44 $22 $36 forward $19 $45 #
tcoedge-coedge $-1 $23 $21 $44 $46 reversed $12 $47 -1.0000000000000002 0 #
edge $-1 $48 -2.8421709430403872e-014 $30 3.0007991879500082 $21 $49 forward 7 unknown #
pcurve $-1 0 forward { exppc nurbs 3 open 2 
	-3.0007991879500082 3 2.8421709430404007e-014 3 
	1 -103.78532637802549 1 
	1 -102.78505998204214 1 
	1 -101.7847935860588 1 
	1 -100.78452719007545 1 
	0.001 
	spline forward { ref 1 } I I I I 
	} 0 0 #
edge $-1 $48 0 $38 1 $32 $50 forward 7 unknown #
pcurve $-1 0 forward { exppc nurbs 3 open 2 
	-1.4210854715202004e-014 3 3.0007930473197746 3 
	0 -101.97540269643144 1 
	0 -102.97566704553805 1 
	0 -103.97593139464463 1 
	0 -104.97619574375123 1 
	0.001 
	spline forward { ref 1 } I I I I 
	} 0 0 #
tvertex-vertex $-1 $46 $51 2.4613922385709617e-014 #
straight-curve $-1 -62 55 101.97540269643144 0 0 1 I I #
pcurve $-1 0 forward { exppc nurbs 3 open 45 
	-1.0000000000000002 3 -0.97695076228812783 1 -0.95406193470930367 1 -0.93136099010315354 1 -0.90877605589955923 1 
	-0.88626397715490113 1 -0.86380231442712485 1 -0.84138618383292463 1 -0.81898674367849045 1 -0.79654462796941505 1 
	-0.77400736465691633 1 -0.75132524426183633 1 -0.72848187376578033 1 -0.70550013152539592 1 -0.68241967089733224 1 
	-0.65924925191085193 1 -0.63599662572211391 1 -0.61266926009839218 1 -0.58927421106319577 1 -0.56586020906444678 1 
	-0.5424953947269362 1 -0.51924281497643443 1 -0.49611108547913363 1 -0.47312280941761642 1 -0.45028191183122168 1 
	-0.42756905988266303 1 -0.40495811195029596 1 -0.38243151545761223 1 -0.35998156630074618 1 -0.3375948004931123 1 
	-0.31522248487435311 1 -0.29280470334137976 1 -0.27031973632606376 1 -0.24777307372623525 1 -0.22518361772249129 1 
	-0.20257681219164692 1 -0.17997970890721882 1 -0.15740524207810935 1 -0.13485518092885029 1 -0.11232994337263202 1 
	-0.089830456722013063 1 -0.067356837129178726 1 -0.044897232271603915 1 -0.022445182032972189 1 0 3 
	0 -104.97619574375123 1 
	0.020653846179644653 -105.01285553170683 1 
	0.060309797416099722 -105.07759635605515 1.0000000000000002 
	0.1158577825877701 -105.15474156938592 1 
	0.16504812047054548 -105.19664694215574 1 
	0.20652125320669598 -105.22433561394259 1 
	0.2410039769790627 -105.2440909023826 1 
	0.26994754605388294 -105.26094078378671 0.99999999999999989 
	0.2956958175218693 -105.26881484504804 1.0000000000000004 
	0.31979302608271187 -105.26418307835215 0.99999999999999967 
	0.34254071321060792 -105.24382259662922 1.0000000000000002 
	0.36395727249107401 -105.20663399460175 0.99999999999999967 
	0.38578509940723621 -105.1465708453767 1 
	0.40702810308121412 -105.06206469351969 1 
	0.42682750058992508 -104.95699667340557 1 
	0.44547178828583323 -104.83906897130164 0.99999999999999978 
	0.46390616626493913 -104.70817125256202 0.99999999999999978 
	0.48244732170187582 -104.56574004408473 1 
	0.50136115648490742 -104.41324704292779 0.99999999999999989 
	0.52115960394786021 -104.25005110663587 1.0000000000000002 
	0.54139491677411866 -104.08410818493763 1 
	0.56152531455128951 -103.92466799973349 0.99999999999999989 
	0.58060227668263664 -103.78290005339441 1 
	0.59926174830787671 -103.65684875573938 0.99999999999999989 
	0.61707018170108108 -103.55161076306105 1.0000000000000002 
	0.63417145976467482 -103.46762782877182 0.99999999999999978 
	0.65084987875317757 -103.40199698243056 1.0000000000000002 
	0.66758469555697342 -103.35087468834617 0.99999999999999978 
	0.68501393413433354 -103.31223228409699 0.99999999999999989 
	0.70357955159256558 -103.28628935643327 0.99999999999999978 
	0.7230306516620788 -103.27421410091269 1 
	0.74393120750376374 -103.27653925099413 1 
	0.7655590863882451 -103.29351023766451 1.0000000000000002 
	0.7874881274537332 -103.32321115829728 0.99999999999999978 
	0.80950641830785441 -103.36322886111502 1.0000000000000002 
	0.83115560856883897 -103.41016474601237 0.99999999999999989 
	0.85196547427428826 -103.46023338208177 1.0000000000000002 
	0.87118389531447593 -103.50901465432895 0.99999999999999978 
	0.88887845999989379 -103.5547213097726 1.0000000000000004 
	0.90547629582635558 -103.59723994263592 1 
	0.92121376383173426 -103.63636887103263 1 
	0.93630063840687305 -103.67200187428544 1 
	0.95060489788071256 -103.70350762479239 0.99999999999999978 
	0.96535130494062704 -103.73293282632059 1.0000000000000002 
	0.98117342421481601 -103.76081907396522 1 
	0.99348859416434587 -103.77743377787905 1 
	1 -103.78532637802549 1 
	0.001 
	spline forward { ref 1 } I I I I 
	} 0 0 #
intcurve-curve $-1 forward { surfintcur full nurbs 3 open 45 
	0 3 0.022466554160749583 1 0.044947467132667437 1 0.067441790015044217 1 0.089957211730318773 1 
	0.11250913402180904 1 0.13510019850380084 1 0.15773322265029607 1 0.18041346230055938 1 0.20314753774436373 1 
	0.22593102954826383 1 0.24874101012389208 1 0.27155390947282959 1 0.2943489289826885 1 0.31711071014940861 1 
	0.33982394567840607 1 0.36247875495551807 1 0.38508409043919239 1 0.40764605821042882 1 0.43017956232919646 1 
	0.45270460418892955 1 0.47524186042765848 1 0.4978109172269809 1 0.52042216274447339 1 0.54307442869339639 1 
	0.56576925363410713 1 0.58848328003588857 1 0.61118943049110031 1 0.63386844047418867 1 0.6565196268544643 1 
	0.6791446203267365 1 0.70174990058044062 1 0.72435349846222663 1 0.74697606879477907 1 0.76962868974980736 1 
	0.7923138058725121 1 0.81505554124960877 1 0.83785867282125703 1 0.86072342393853118 1 0.88366267315096236 1 
	0.90669055452280878 1 0.92982575365831222 1 0.95308221072378707 1 0.97647122476949466 1 1.0000000000000002 3 
	-71.169002996840149 107 103.78532637802549 1 
	-72.181079717943888 107.36742548625246 103.77743217159259 0.99999999999999989 
	-74.258798407519805 108.13960330361927 103.76081464671978 1.0000000000000002 
	-77.54394858567791 109.43065003789674 103.73292918623703 1 
	-80.972997111975431 110.79192285134144 103.7035030626112 1 
	-84.637575263052909 112.24893309714024 103.67199397827713 0.99999999999999989 
	-88.81937696902844 113.8967726808183 103.63635792974016 1 
	-93.495259534071593 115.70677271289669 103.59722469185746 0.99999999999999978 
	-98.720431958837011 117.67466868657975 103.5546994872832 1.0000000000000002 
	-104.56530212872661 119.79211315203847 103.50898245420167 1.0000000000000002 
	-111.16143237388323 122.05546525081689 103.46018947690297 1 
	-118.50326925621745 124.38502181586286 103.41011714460205 0.99999999999999989 
	-126.24892917334722 126.58166092393435 103.36318400251186 0.99999999999999989 
	-134.11437350163732 128.4779581204254 103.32317655711473 1.0000000000000002 
	-141.81014162719799 129.92630062030545 103.29349222326303 1 
	-149.14110523381635 130.82592111188634 103.27654363393164 1 
	-155.86299075475807 131.09887718383808 103.27421073496517 1 
	-161.71790062247027 130.75548877874843 103.28624186620995 1 
	-166.86508545558453 129.82548328720483 103.31214492231771 1.0000000000000002 
	-171.23303556228453 128.35817588816988 103.35076271292628 1 
	-174.94954650049689 126.36882578583236 103.40185720983068 0.99999999999999989 
	-178.13757739259211 123.77996467858095 103.46743921654671 1 
	-180.80355904287305 120.43509074908826 103.55137159569111 0.99999999999999989 
	-182.91961060094727 116.21394132967286 103.65659100899404 0.99999999999999989 
	-184.52732795727758 111.13431072543717 103.78267693984429 1.0000000000000002 
	-185.64191325088973 105.40582243291585 103.92443478689282 1 
	-186.37017777529806 98.942198865159924 104.08400438578373 1 
	-186.77023784758683 92.201975954822672 104.2500917688461 0.99999999999999978 
	-186.9976816244907 85.568379687504049 104.41338900540468 1.0000000000000002 
	-186.9334492947136 79.358782840620037 104.56588400076605 0.99999999999999989 
	-186.46614632313114 73.532228671598745 104.70833489296011 1.0000000000000002 
	-185.47265814176296 68.137192158144771 104.83925654891046 1 
	-183.80845243986954 63.217212846925641 104.95722842575431 1 
	-181.16390354762405 58.738870530193957 105.062405412918 1 
	-177.14738559545199 54.989492003147554 105.14688173549514 0.99999999999999989 
	-171.95636309657499 52.136711265372888 105.20681808713125 1 
	-166.03915199034495 50.149570579604735 105.24391541617952 0.99999999999999978 
	-159.08413776535639 48.763025815368742 105.2642067218116 1.0000000000000002 
	-151.20045178948317 47.949391759952924 105.2688098393478 0.99999999999999967 
	-142.49179560548083 47.597786214921534 105.26093359742217 1.0000000000000002 
	-132.7505430400459 47.563278114256335 105.24407514745226 0.99999999999999989 
	-121.82385121150344 47.598261668859081 105.22432064995994 0.99999999999999978 
	-109.41940492646927 47.923067171587341 105.1966325072656 1.0000000000000004 
	-95.374082817362179 48.837405764273136 105.15482918931465 1 
	-79.676483540892121 51.316448974317062 105.077640252701 1 
	-68.085293248186858 53.637142698227173 105.01286642061035 1 
	-62 55 104.97619574375123 1 
	0.001 
	spline forward { ref 1 } I I I I 
	spline forward { ref 0 } I I I I 
	nurbs 3 open 45 
	0 3 0.022445182032972189 1 0.044897232271603915 1 0.067356837129178726 1 0.089830456722013063 1 
	0.11232994337263202 1 0.13485518092885029 1 0.15740524207810935 1 0.17997970890721882 1 0.20257681219164692 1 
	0.22518361772249129 1 0.24777307372623525 1 0.27031973632606376 1 0.29280470334137976 1 0.31522248487435311 1 
	0.3375948004931123 1 0.35998156630074618 1 0.38243151545761223 1 0.40495811195029596 1 0.42756905988266303 1 
	0.45028191183122168 1 0.47312280941761642 1 0.49611108547913363 1 0.51924281497643443 1 0.5424953947269362 1 
	0.56586020906444678 1 0.58927421106319577 1 0.61266926009839218 1 0.63599662572211391 1 0.65924925191085193 1 
	0.68241967089733224 1 0.70550013152539592 1 0.72848187376578033 1 0.75132524426183633 1 0.77400736465691633 1 
	0.79654462796941505 1 0.81898674367849045 1 0.84138618383292463 1 0.86380231442712485 1 0.88626397715490113 1 
	0.90877605589955923 1 0.93136099010315354 1 0.95406193470930367 1 0.97695076228812783 1 1.0000000000000002 3 
	1 -103.78532637802549 1 
	0.99348859416434587 -103.77743377787905 1 
	0.98117342421481601 -103.76081907396522 1 
	0.96535130494062704 -103.73293282632059 1.0000000000000002 
	0.95060489788071256 -103.70350762479239 0.99999999999999978 
	0.93630063840687305 -103.67200187428544 1 
	0.92121376383173426 -103.63636887103263 1 
	0.90547629582635558 -103.59723994263592 1 
	0.88887845999989379 -103.5547213097726 1.0000000000000004 
	0.87118389531447593 -103.50901465432895 0.99999999999999978 
	0.85196547427428826 -103.46023338208177 1.0000000000000002 
	0.83115560856883897 -103.41016474601237 0.99999999999999989 
	0.80950641830785441 -103.36322886111502 1.0000000000000002 
	0.7874881274537332 -103.32321115829728 0.99999999999999978 
	0.7655590863882451 -103.29351023766451 1.0000000000000002 
	0.74393120750376374 -103.27653925099413 1 
	0.7230306516620788 -103.27421410091269 1 
	0.70357955159256558 -103.28628935643327 0.99999999999999978 
	0.68501393413433354 -103.31223228409699 0.99999999999999989 
	0.66758469555697342 -103.35087468834617 0.99999999999999978 
	0.65084987875317757 -103.40199698243056 1.0000000000000002 
	0.63417145976467482 -103.46762782877182 0.99999999999999978 
	0.61707018170108108 -103.55161076306105 1.0000000000000002 
	0.59926174830787671 -103.65684875573938 0.99999999999999989 
	0.58060227668263664 -103.78290005339441 1 
	0.56152531455128951 -103.92466799973349 0.99999999999999989 
	0.54139491677411866 -104.08410818493763 1 
	0.52115960394786021 -104.25005110663587 1.0000000000000002 
	0.50136115648490742 -104.41324704292779 0.99999999999999989 
	0.48244732170187582 -104.56574004408473 1 
	0.46390616626493913 -104.70817125256202 0.99999999999999978 
	0.44547178828583323 -104.83906897130164 0.99999999999999978 
	0.42682750058992508 -104.95699667340557 1 
	0.40702810308121412 -105.06206469351969 1 
	0.38578509940723621 -105.1465708453767 1 
	0.36395727249107401 -105.20663399460175 0.99999999999999967 
	0.34254071321060792 -105.24382259662922 1.0000000000000002 
	0.31979302608271187 -105.26418307835215 0.99999999999999967 
	0.2956958175218693 -105.26881484504804 1.0000000000000004 
	0.26994754605388294 -105.26094078378671 0.99999999999999989 
	0.2410039769790627 -105.2440909023826 1 
	0.20652125320669598 -105.22433561394259 1 
	0.16504812047054548 -105.19664694215574 1 
	0.1158577825877701 -105.15474156938592 1 
	0.060309797416099722 -105.07759635605515 1.0000000000000002 
	0.020653846179644653 -105.01285553170683 1 
	0 -104.97619574375123 1 
	
	nurbs 3 open 45 
	0 3 0.022443843029619444 1 0.044903532287212437 1 0.067377178846272423 1 0.089871397356406452 1 
	0.11240019916999058 1 0.13496575319630019 1 0.15757024332642849 1 0.18021788085661605 1 0.202913743578646 1 
	0.22565215001681374 1 0.24841010473803113 1 0.27116443318193684 1 0.29389552296143201 1 0.3165902724215513 1 
	0.33923788125788246 1 0.3618346869471683 1 0.38439498005377437 1 0.40693127999492357 1 0.42946366618170001 1 
	0.45201715425550648 1 0.47461763501152043 1 0.49728585902576 1 0.52002742972337235 1 0.54283423132905562 1 
	0.56570401791665803 1 0.58860220696494536 1 0.6114903275157495 1 0.63434145361185335 1 0.6571533950866838 1 
	0.67992529052692952 1 0.70265936137466956 1 0.72536566281859216 1 0.74804956180802074 1 0.77071961299006264 1 
	0.79338950709202705 1 0.81609357605730692 1 0.83884273824498512 1 0.86164029843738055 1 0.88449780994706284 1 
	0.90742493283164516 1 0.93043231435546225 1 0.95352576726346505 1 0.9767145715975003 1 1.0000000000000002 3 
	0.26048153201504287 0.54666666666666697 1 
	0.26448985413378079 0.54911626935532176 1 
	0.27274646415250464 0.55426430775210589 1 
	0.28588205695369778 0.56287111016413094 1 
	0.29967076192919168 0.57194606434691209 0.99999999999999989 
	0.3144845067432005 0.58165910567590795 1 
	0.33148062505649939 0.59264455934859583 0.99999999999999967 
	0.35059006774474322 0.60471099730271594 1.0000000000000004 
	0.37206014821484695 0.61782993742499148 0.99999999999999989 
	0.39620176332896506 0.63194564245221785 1 
	0.42357950706040043 0.64703409396733336 1 
	0.4541860450284898 0.66256449525279815 1 
	0.48658531330673244 0.67720907827564114 1 
	0.51955540394737532 0.68985172246018234 1.0000000000000002 
	0.55184186606337515 0.69950814190233257 1 
	0.58259070567196625 0.70550636100221009 0.99999999999999989 
	0.61075208966672967 0.70732592097175995 1 
	0.63523557301326172 0.70503549798384202 0.99999999999999956 
	0.65671073457734486 0.6988332023140168 1 
	0.67488295425181866 0.68904832232774194 1 
	0.69029298298684894 0.67578239955078001 1 
	0.70345283647603118 0.65851799094119468 1 
	0.71437832655177835 0.63621377693549541 1.0000000000000002 
	0.72294557772821699 0.60807132474038894 0.99999999999999967 
	0.7293320247705295 0.57421008696479781 1.0000000000000002 
	0.73361214703268451 0.5360200485948694 1 
	0.73622042814124988 0.49293914548867585 0.99999999999999978 
	0.737426999175956 0.44801548274994724 1 
	0.73791192616803025 0.40379876914316504 1 
	0.73718262750292973 0.3624015128128229 1.0000000000000002 
	0.73474706359642727 0.32355943795042619 1.0000000000000002 
	0.73006527975224278 0.28759482946811649 0.99999999999999978 
	0.72250007227574597 0.25479914010959209 1 
	0.71069159515041458 0.22495206211687732 0.99999999999999989 
	0.6929256880714828 0.19995160393860409 0.99999999999999978 
	0.6700459547813562 0.18092240222693151 1.0000000000000002 
	0.64403380391870657 0.16766903914080522 0.99999999999999967 
	0.61355560327175507 0.15842266843539413 1.0000000000000002 
	0.5791691070087146 0.15299698047196267 0.99999999999999978 
	0.54144184677990848 0.15065224244319494 0.99999999999999989 
	0.49963133811142174 0.15042187476153479 1.0000000000000002 
	0.45329380713310791 0.15065461411271427 1 
	0.4015976840265319 0.15281790761640734 1 
	0.34447454455709636 0.15890825410403395 0.99999999999999978 
	0.28269334457624801 0.1754224667638403 1.0000000000000002 
	0.23878870319763432 0.19091061196881637 1 
	0.21610166071829032 0.19999999999999998 1 
	
	I I 
	0 
	0 
	0 
	} I I #
point $-1 -61.999999999999979 54.999999999999993 104.97619574375122 #
point $-1 -71.169002996840192 107.00000000000004 103.78532637802547 #
tcoedge-coedge $-1 $32 $32 $33 $46 forward $19 $52 0 1.0000000000000002 #
pcurve $-1 0 forward { exppc nurbs 3 open 4 
	0 3 0.33562576956380608 1 0.66895931906724881 1 1 3 
	0.26048813985434444 0.54712874951234014 1 
	0.25524575551396927 0.50716769074122947 1 
	0.24498188967426038 0.42830581843423698 1 
	0.23017667351044527 0.31273522998856418 1 
	0.22072248565064961 0.23753938196715002 1 
	0.21610429942290046 0.20046027296003452 1 
	0.001 
	spline forward { ref 4 } I I I I 
	} 0 0 #
tedge-edge $-1 $38 0 $48 1.0000000000000002 $44 $53 forward 7 unknown 0.15358575201090596 #
pcurve $-1 0 forward { exppc nurbs 3 open 45 
	-1.0000000000000002 3 -0.97755933649283822 1 -0.95510750347462525 1 -0.93264489464575606 1 -0.91016598574693608 1 
	-0.88765937880077872 1 -0.86512622222582236 1 -0.8425682690946753 1 -0.81998670873287105 1 -0.79738423963640104 1 
	-0.77477617623440675 1 -0.75219009730885755 1 -0.72965087616312529 1 -0.7071753414199009 1 -0.68476560605255243 1 
	-0.66239690496361936 1 -0.64001003983353977 1 -0.61755805258797503 1 -0.59502624110301794 1 -0.57240486685089009 1 
	-0.54967552339763326 1 -0.52681414040034857 1 -0.50380863983198576 1 -0.48067082133280181 1 -0.45742606971182909 1 
	-0.43408261421854588 1 -0.41069914704133093 1 -0.38733654245928151 1 -0.36403789769151973 1 -0.34080732641601774 1 
	-0.3176499293509788 1 -0.29457170994594473 1 -0.27158152778268974 1 -0.24872090287724458 1 -0.22602178464938127 1 
	-0.20347324368102127 1 -0.18102485381737077 1 -0.15862357834293594 1 -0.13620799239204129 1 -0.11374651150036885 1 
	-0.091234128860359975 1 -0.068648708363932887 1 -0.045946371229016125 1 -0.023054251424993621 1 0 3 
	1 -100.78452719007545 1 
	0.99366318733072956 -100.7768899571526 0.99999999999999989 
	0.98158507622260172 -100.76062923824497 1 
	0.96568672193524274 -100.73278304299929 1 
	0.95072478725807474 -100.70297069478153 0.99999999999999989 
	0.93611622479043721 -100.67079166544831 1 
	0.9206528726990616 -100.6342079746839 1 
	0.9045279632296489 -100.59403064557945 1 
	0.88754531759574606 -100.55046096758633 1.0000000000000004 
	0.8694891391294266 -100.5038290426469 0.99999999999999967 
	0.8499133001713145 -100.45430209679387 1.0000000000000002 
	0.82889143757455952 -100.40413118866684 0.99999999999999989 
	0.80717676172094599 -100.35774670177273 1 
	0.78527497685913628 -100.31889376942992 1 
	0.76364994631199667 -100.29069017886731 0.99999999999999956 
	0.74243808360614671 -100.27510873150796 1.0000000000000004 
	0.72198928464340517 -100.27370506983478 1 
	0.70284272933460468 -100.28620201365192 1 
	0.68437630403654304 -100.31250032797665 0.99999999999999978 
	0.66686213308591791 -100.35184336417754 1 
	0.64988725657858037 -100.40439539552361 1.0000000000000002 
	0.6328815541649675 -100.47234679857414 0.99999999999999978 
	0.61547969436448391 -100.55936090088923 1 
	0.59750375421895219 -100.66719216795329 1 
	0.57891244753514137 -100.79413625508353 1 
	0.56010028445940374 -100.93483436123707 1 
	0.54040862189635752 -101.09124350897063 1 
	0.52071643732983719 -101.25281146813023 1 
	0.50146991691653875 -101.41141645758141 0.99999999999999989 
	0.4830634477267039 -101.55989727499789 1.0000000000000002 
	0.46497297169476032 -101.69924144754381 0.99999999999999978 
	0.44691519355613424 -101.82831105951179 1.0000000000000002 
	0.4285262944151369 -101.94597679632768 0.99999999999999989 
	0.40891722946172149 -102.05224971591943 1 
	0.38763755878062961 -102.13948258592552 0.99999999999999989 
	0.36559840843065389 -102.20211886300305 1.0000000000000002 
	0.34405519092478409 -102.24096264049069 1 
	0.32127923216361254 -102.26253483668859 0.99999999999999967 
	0.29712643577659353 -102.26807844095381 1 
	0.27130236917462225 -102.26076239616859 1 
	0.24230552267656247 -102.24401353504165 1.0000000000000002 
	0.20777029112338077 -102.22424486399041 1 
	0.16616638931072825 -102.19667216802934 0.99999999999999989 
	0.11667621309832325 -102.15485515653006 0.99999999999999989 
	0.060659657787282759 -102.07744374358069 1.0000000000000002 
	0.020768496076686477 -102.01231418712692 1.0000000000000002 
	0 -101.97540269643144 1 
	0.001 
	spline forward { ref 1 } I I I I 
	} 0 0 #
tvertex-vertex $-1 $46 $54 4.713207304057789e-014 #
straight-curve $-1 -71.169002996840163 107 100.78452719007547 0 4.7356900029389157e-015 1 I I #
intcurve-curve $-1 forward { surfintcur full nurbs 3 open 4 
	0 3 0.33560276745103179 1 0.66893609943949617 1 1 3 
	-71.169002996840163 107 100.78452719007547 1 
	-70.112042541209178 101.00567938392521 100.92226043318537 1 
	-68.026162019359489 89.176063102464141 101.19377674870297 0.99999999999999989 
	-64.969444800788466 71.840558313070147 101.59067795751591 1.0000000000000002 
	-62.980666438113659 60.561635741583189 101.84843753770804 1 
	-62 55 101.97540269643144 1 
	0.001 
	plane -62 55 0 -0.98480775301220813 -0.17364817766693005 0 -0.17364817766693005 0.98480775301220813 0 forward_v I I I I 
	spline forward { ref 4 } I I I I 
	nullbs 
	nurbs 3 open 4 
	0 3 0.33562576956380608 1 0.66895931906724881 1 1 3 
	0.26048813985434444 0.54712874951234014 1 
	0.25524575551396927 0.50716769074122947 1 
	0.24498188967426038 0.42830581843423698 1 
	0.23017667351044527 0.31273522998856418 1 
	0.22072248565064961 0.23753938196715002 1 
	0.21610429942290046 0.20046027296003452 1 
	
	I I 
	0 
	0 
	0 
	} I I #
point $-1 -61.999999999999986 54.999999999999986 101.97540269643143 #
pcurve $-1 0 forward { exppc nurbs 3 open 45 
	0 3 0.023292013107526426 1 0.046488073048299605 1 0.069587581748880481 1 0.092599217563666084 1 
	0.11552954719945144 1 0.13838954412789278 1 0.16118856641592666 1 0.18393808259618963 1 0.20664216193139151 1 
	0.22931409759967511 1 0.25198870848053057 1 0.27467696551729837 1 0.29738443490556143 1 0.32011548712507698 1 
	0.3428791891623082 1 0.36567830828363068 1 0.38851306387181062 1 0.41138278628006442 1 0.4342636972067464 1 
	0.45712140599730111 1 0.47992365202514109 1 0.50266820654593591 1 0.5253452490931757 1 0.54795601745123779 1 
	0.57051772286426128 1 0.59305510400149375 1 0.61559286437762639 1 0.63815079821496623 1 0.66074091681937941 1 
	0.68337813788078683 1 0.70606168241788081 1 0.72878357545373951 1 0.75153320105601673 1 0.77429178259159404 1 
	0.79703568069842556 1 0.81974073349266363 1 0.84239838642190235 1 0.86501291463459407 1 0.88758787825206231 1 
	0.91012472977665571 1 0.93262468667443221 1 0.9551014343371661 1 0.97756075912197182 1 1.0000000000000002 3 
	0.21610429942290046 0.20046027296003452 1 
	0.23891555336909392 0.19130615702547152 1 
	0.28308553544227355 0.17572642629234655 0.99999999999999978 
	0.34539174934527811 0.1591960057234526 1.0000000000000002 
	0.40292940827533008 0.15318706926125919 1 
	0.45489616882911216 0.15109752212366112 1 
	0.5014410389823315 0.1508934348931899 0.99999999999999989 
	0.54342078814251593 0.15117857267672069 1 
	0.58123723631678081 0.15369241076187576 0.99999999999999978 
	0.61560765284602004 0.15936676151399556 1.0000000000000002 
	0.64595953108608173 0.16892674157275472 1 
	0.67189863170669673 0.18261702638715074 1.0000000000000002 
	0.69466577350807868 0.20232532863601993 1 
	0.71200752906758935 0.22801405457259374 1 
	0.72329603664965969 0.25812566486982969 1 
	0.73049878203998342 0.29080747460845685 1.0000000000000002 
	0.73491352909677099 0.32624686171331124 0.99999999999999978 
	0.73720441941293835 0.3642369679346677 1.0000000000000002 
	0.73789105291502521 0.40454209883623476 1 
	0.73742882920721819 0.44751353639758451 0.99999999999999978 
	0.73628694261231231 0.49125183353188867 1.0000000000000002 
	0.733835213377656 0.53351819011494162 1 
	0.72978134796733041 0.57142929234357087 1 
	0.72364863859392026 0.60554374166244285 1.0000000000000002 
	0.71525948716508303 0.63439727511626609 0.99999999999999978 
	0.70438487784055126 0.65752486217480544 1 
	0.69112409007955422 0.67541239327119851 1 
	0.67559738761267485 0.68905993138434241 1.0000000000000002 
	0.65741234480432498 0.69903340121806745 1 
	0.63612274795151846 0.70533955745594468 1.0000000000000002 
	0.61210244867022268 0.7077650270761453 1 
	0.58465181051251369 0.70622936533016278 1 
	0.55460413452848001 0.70064821407305433 1 
	0.52284914197191035 0.69143755843308641 0.99999999999999989 
	0.49008708486191821 0.6791388079986177 1 
	0.45756232035020183 0.66465333895170176 1.0000000000000002 
	0.42656462795728867 0.64908486328199977 0.99999999999999989 
	0.39857459876001516 0.63376303065011586 0.99999999999999978 
	0.37383746317914873 0.61936023528883288 1.0000000000000002 
	0.35178032555589489 0.60591644588253368 1 
	0.33213506671544274 0.59352652016552032 1 
	0.31468018584889751 0.58224796914323385 1 
	0.29955150433734756 0.57232734237903382 1 
	0.28558389061956424 0.56313294796466384 1 
	0.27245672884099009 0.55453786387474391 1 
	0.26437222722888243 0.54949935413244033 1 
	0.26048813985434444 0.54712874951234014 1 
	0.001 
	spline forward { ref 4 } I I I I 
	} 0 0 #
intcurve-curve $-1 forward { exactcur full nurbs 3 open 45 
	0 3 0.023536777962600498 1 0.046934445163561697 1 0.070197708270871656 1 0.093337383129876661 1 
	0.11636852441389531 1 0.13931024838932018 1 0.16217627296959489 1 0.18497922747978388 1 0.20771991483157098 1 
	0.23040519961575898 1 0.25305896514386506 1 0.27568147910523561 1 0.29828351755424243 1 0.32088553678583548 1 
	0.34350419683572725 1 0.36614598273016163 1 0.38881309498538075 1 0.41150586566626429 1 0.43420728601680558 1 
	0.45689315884945964 1 0.47954168103582179 1 0.50215427248094757 1 0.52472857474361367 1 0.54727216486905839 1 
	0.56980271507259206 1 0.5923398430561404 1 0.61490255338730715 1 0.63750475516138561 1 0.66015169436987364 1 
	0.68285314402965547 1 0.70560268072528853 1 0.72838810457025704 1 0.75119655861133861 1 0.77400786635098362 1 
	0.79679776251207546 1 0.81954200496993379 1 0.8422331243784309 1 0.86487695358189964 1 0.88747810769548763 1 
	0.91003866059684824 1 0.93256025425843037 1 0.95505794236536701 1 0.97753849303299833 1 1.0000000000000002 3 
	-62 55 101.97540269643143 1 
	-68.170682015244054 53.882518118575661 102.0063294184166 1.0000000000000002 
	-79.77924373537796 51.292605787737429 102.07749318717174 1 
	-95.604342407801326 48.810665337617003 102.154942470297 1 
	-109.7436956305099 47.908024174405959 102.19665663882546 1 
	-122.20612983219671 47.59380939571934 102.22422947167512 1 
	-133.17637767576613 47.562677790235846 102.24399770258088 1.0000000000000002 
	-142.95282998607343 47.604979240178452 102.26075514210052 1 
	-151.67864277842651 47.981557584621726 102.26807365180838 1 
	-159.55625820363088 48.832121135015321 102.26256264112398 1 
	-166.48096865696579 50.26536793418321 102.2410622421876 1.0000000000000002 
	-172.38047511070604 52.317685854248566 102.20231642301873 1.0000000000000002 
	-177.54493748672854 55.272023227165697 102.13981009419595 0.99999999999999989 
	-181.46361757770643 59.124773511916317 102.05258083760386 1 
	-183.98829534296385 63.642844156744637 101.94618676865423 0.99999999999999978 
	-185.56928402015947 68.545656490042703 101.82847660530742 1 
	-186.50220716626325 73.861830069518817 101.69938495903469 0.99999999999999978 
	-186.93783776778602 79.560512634457893 101.56002522290578 1 
	-186.99462816284449 85.606232982175044 101.41154704043782 1 
	-186.77542245994138 92.052891370662053 101.25285456107353 1 
	-186.39341604054144 98.615100741352222 101.09116142010475 1 
	-185.70415601516055 104.95647735308842 100.93463105639974 1 
	-184.64399542251573 110.64322083785227 100.79393870249113 1.0000000000000002 
	-183.0960946116848 115.76103319450044 100.66694940144333 1 
	-181.020667713074 120.08916012683821 100.55911826020869 1.0000000000000002 
	-178.36451429611878 123.55776225082289 100.47214504444287 1 
	-175.15062186171764 126.24016392472141 100.40424563609589 1.0000000000000002 
	-171.40512444283135 128.28684661020822 100.35172660365663 1.0000000000000004 
	-167.03349050469518 129.78259140967509 100.31241246965369 0.99999999999999967 
	-161.93019276491509 130.72839121544374 100.28615508694898 0.99999999999999978 
	-156.18531668158479 131.09229523980611 100.27370014627354 1 
	-149.6321431785135 130.86219913642725 100.27511366341942 1 
	-142.46760306340488 130.02542622586247 100.29067542284402 0.99999999999999989 
	-134.89843173545341 128.64425658751733 100.31886295977836 1.0000000000000002 
	-127.08362338911903 126.79987162537657 100.35770434474234 1.0000000000000002 
	-119.31011408194306 124.62742429552102 100.40408421025674 0.99999999999999989 
	-111.87741520694735 122.29245419279886 100.45425738168061 1.0000000000000004 
	-105.13681668585157 119.99435575166883 100.50379506945505 0.99999999999999978 
	-99.150314009611776 117.83405627040042 100.55043781911199 1.0000000000000004 
	-93.784227434424679 115.8176136504444 100.59401431134742 1.0000000000000002 
	-88.978478029050521 113.95924569241588 100.63419618755852 1 
	-84.684351396594366 112.26757582525842 100.67078309765654 0.99999999999999989 
	-80.94185433839516 110.77953785628462 100.70296571782819 1.0000000000000004 
	-77.467994513333224 109.40045079021057 100.73277903338671 0.99999999999999978 
	-74.184352858083329 108.11125779552464 100.76062467834177 1 
	-72.151851553056588 107.34998686856018 100.7770170463145 0.99999999999999978 
	-71.169002996840149 107 100.78452719007545 1 
	0 
	null_surface 
	null_surface 
	nullbs 
	nullbs 
	I I 
	0 
	0 
	43 0.023536777962600498 0.046934445163561697 0.070197708270871656 0.093337383129876661 0.11636852441389531 0.13931024838932018 0.16217627296959489 0.18497922747978388 0.20771991483157098 0.23040519961575898 0.25305896514386506 0.27568147910523561 0.29828351755424243 0.32088553678583548 0.34350419683572725 0.36614598273016163 0.38881309498538075 0.41150586566626429 0.43420728601680558 0.45689315884945964 0.47954168103582179 0.50215427248094757 0.52472857474361367 0.54727216486905839 0.56980271507259206 0.5923398430561404 0.61490255338730715 0.63750475516138561 0.66015169436987364 0.68285314402965547 0.70560268072528853 0.72838810457025704 0.75119655861133861 0.77400786635098362 0.79679776251207546 0.81954200496993379 0.8422331243784309 0.86487695358189964 0.88747810769548763 0.91003866059684824 0.93256025425843037 0.95505794236536701 0.97753849303299833 
	F 1 F 0 } I I #
point $-1 -71.169002996840163 107.00000000000003 100.78452719007544 #
End-of-ACIS-data 