700 0 2 0           
24 FBMach with ACIS - 7.0.3 13 ACIS 7.0.3 NT 24 Thu May 16 14:48:04 2002 
1 9.9999999999999995e-007 1e-010 
body $2 -1 $-1 $3 $-1 $4 #
bdycol-kcp $-1 -1 1 6 $5 $6 $7 $8 $9 $10 #
model_id-kcp-attrib $-1 -1 $-1 $-1 $0 1 1021574883 1021574883 295501825 1 #
lump $-1 -1 $-1 $-1 $11 $0 #
transform $-1 -1 1 0 0 0 1 0 0 0 1 0 0 0 1 rotate no_reflect no_shear #
body $12 -1 $-1 $13 $-1 $-1 #
body $14 -1 $-1 $15 $-1 $-1 #
body $16 -1 $-1 $17 $-1 $18 #
body $19 -1 $-1 $20 $-1 $21 #
body $22 -1 $-1 $23 $-1 $24 #
body $25 -1 $-1 $26 $-1 $27 #
shell $-1 -1 $-1 $-1 $-1 $28 $-1 $3 #
rgb_color-st-attrib $-1 -1 $29 $-1 $5 0.5 1 1 #
lump $-1 -1 $-1 $-1 $30 $5 #
rgb_color-st-attrib $-1 -1 $31 $-1 $6 0.5 1 1 #
lump $-1 -1 $-1 $-1 $32 $6 #
rgb_color-st-attrib $-1 -1 $33 $-1 $7 1 0.5 1 #
lump $-1 -1 $-1 $-1 $34 $7 #
transform $-1 -1 1 0 0 0 1 0 0 0 1 0.95000000000000018 -0.25 -4.4408920985006262e-016 1 no_rotate no_reflect no_shear #
model_id-kcp-attrib $-1 -1 $-1 $-1 $8 1 1021574883 1021574883 296157186 1 #
lump $-1 -1 $-1 $-1 $35 $8 #
transform $-1 -1 1 0 0 0 1 0 0 0 1 0.95000000000000018 -0.25 -4.4408920985006262e-016 1 no_rotate no_reflect no_shear #
rgb_color-st-attrib $-1 -1 $36 $-1 $9 1 0.5 1 #
lump $-1 -1 $-1 $-1 $37 $9 #
transform $-1 -1 1 0 0 0 1 0 0 0 1 0.95000000000000018 -0.25 -4.4408920985006262e-016 1 no_rotate no_reflect no_shear #
rgb_color-st-attrib $-1 -1 $38 $-1 $10 1 0 0 #
lump $-1 -1 $-1 $-1 $39 $10 #
transform $-1 -1 3.8285889215894375e-016 -4.6885143195523885e-032 -1 -1.2246063538223773e-016 -1 0 -1 1.2246063538223773e-016 -3.8285889215894375e-016 -32.486671754036209 -0.24999999999999603 -9.7732758985811777e-015 1 rotate no_reflect no_shear #
face $40 -1 $-1 $41 $42 $11 $-1 $43 reversed single #
model_id-kcp-attrib $-1 -1 $-1 $12 $5 1 1021574883 1021574883 289865731 1 #
shell $-1 -1 $-1 $-1 $-1 $44 $-1 $13 #
model_id-kcp-attrib $-1 -1 $-1 $14 $6 1 1021574883 1021574883 291176452 1 #
shell $-1 -1 $-1 $-1 $-1 $45 $-1 $15 #
model_id-kcp-attrib $-1 -1 $-1 $16 $7 1 1021574883 1021574883 292093958 1 #
shell $-1 -1 $-1 $-1 $-1 $46 $-1 $17 #
shell $-1 -1 $-1 $-1 $-1 $47 $-1 $20 #
model_id-kcp-attrib $-1 -1 $-1 $22 $9 1 1021574883 1021574883 297402375 1 #
shell $-1 -1 $-1 $-1 $-1 $48 $-1 $23 #
model_id-kcp-attrib $-1 -1 $-1 $25 $10 1 1021574883 1021574883 299040773 1 #
shell $-1 -1 $-1 $-1 $-1 $49 $-1 $26 #
model_id-kcp-attrib $-1 -1 $-1 $-1 $28 1 1021574883 1021574883 295501825 2 #
face $50 -1 $-1 $51 $52 $11 $-1 $53 forward single #
loop $-1 -1 $-1 $-1 $54 $28 #
plane-surface $-1 -1 $-1 -10 0 -6.3700000000000001 0 0 1 -1 0 0 forward_v I I I I #
face $-1 -1 $-1 $55 $56 $30 $-1 $57 forward single #
face $-1 -1 $-1 $58 $59 $32 $-1 $60 forward single #
face $-1 -1 $-1 $61 $62 $34 $-1 $63 forward single #
face $64 -1 $-1 $65 $66 $35 $-1 $67 forward single #
face $-1 -1 $-1 $68 $69 $37 $-1 $70 forward single #
face $-1 -1 $-1 $71 $72 $39 $-1 $73 reversed single #
model_id-kcp-attrib $-1 -1 $-1 $-1 $41 1 1021574883 1021574883 295501825 3 #
face $74 -1 $-1 $75 $76 $11 $-1 $77 forward single #
loop $-1 -1 $-1 $-1 $78 $41 #
plane-surface $-1 -1 $-1 -9.8699999999999992 -0.5 -6.3700000000000001 0 -1 0 1 0 0 forward_v I I I I #
coedge $-1 -1 $-1 $79 $80 $81 $82 forward $42 $-1 #
face $-1 -1 $-1 $83 $84 $30 $-1 $85 forward single #
loop $-1 -1 $-1 $-1 $86 $44 #
plane-surface $-1 -1 $-1 11.770000000000001 -0.5 3.8700000000000001 1 0 7.1054273576010023e-016 7.1054273576010023e-016 0 -1 forward_v I I I I #
face $-1 -1 $-1 $87 $88 $32 $-1 $89 forward single #
loop $-1 -1 $-1 $-1 $90 $45 #
plane-surface $-1 -1 $-1 11.77 0 -3.8700000000000001 1 0 0 0 0 -1 forward_v I I I I #
face $-1 -1 $-1 $91 $92 $34 $-1 $93 forward single #
loop $-1 -1 $-1 $-1 $94 $46 #
plane-surface $-1 -1 $-1 -5.8199999999999994 0.25 -4.2999999999999989 0 1 0 0 0 1 forward_v I I I I #
model_id-kcp-attrib $-1 -1 $-1 $-1 $47 1 1021574883 1021574883 296157186 8 #
face $95 -1 $-1 $96 $97 $35 $-1 $98 reversed single #
loop $-1 -1 $-1 $-1 $99 $47 #
plane-surface $-1 -1 $-1 0 0 6.370000000000001 0 0 1 1 0 0 forward_v I I I I #
face $-1 -1 $-1 $100 $101 $37 $-1 $102 forward single #
loop $-1 -1 $-1 $-1 $103 $48 #
plane-surface $-1 -1 $-1 -7.8200000000000003 -0.25 4.3000000000000007 0 -1 0 0 0 -1 forward_v I I I I #
face $-1 -1 $-1 $104 $105 $39 $-1 $106 reversed single #
loop $-1 -1 $-1 $-1 $107 $49 #
plane-surface $-1 -1 $-1 3.4723404165014349e-015 0.24999999999999989 -33.436671754036212 -4.6885143195523885e-032 -1 1.2246063538223773e-016 -1 0 -3.8285889215894375e-016 forward_v I I I I #
model_id-kcp-attrib $-1 -1 $-1 $-1 $51 1 1021574883 1021574883 295501825 4 #
face $108 -1 $-1 $109 $110 $11 $-1 $111 forward single #
loop $-1 -1 $-1 $-1 $112 $51 #
plane-surface $-1 -1 $-1 11.77 -0.5 -6.3700000000000001 1 0 0 0 1 0 forward_v I I I I #
coedge $-1 -1 $-1 $113 $114 $115 $116 reversed $52 $-1 #
coedge $-1 -1 $-1 $117 $54 $118 $119 forward $42 $-1 #
coedge $-1 -1 $-1 $54 $117 $120 $121 reversed $42 $-1 #
coedge $-1 -1 $-1 $114 $122 $54 $82 reversed $52 $-1 #
edge $123 -1 $-1 $124 3.5527136788005009e-015 $125 14.140000000000004 $54 $126 forward @7 unknown #
face $-1 -1 $-1 $127 $128 $30 $-1 $129 forward single #
loop $-1 -1 $-1 $-1 $130 $55 #
plane-surface $-1 -1 $-1 11.77 -0.5 6.3700000000000001 0 0 1 1 0 0 forward_v I I I I #
coedge $-1 -1 $-1 $131 $132 $133 $134 forward $56 $-1 #
face $-1 -1 $-1 $135 $136 $32 $-1 $137 forward single #
loop $-1 -1 $-1 $-1 $138 $58 #
plane-surface $-1 -1 $-1 11.77 0 -6.3700000000000001 0 0 -1 -1 0 0 forward_v I I I I #
coedge $-1 -1 $-1 $139 $140 $141 $142 forward $59 $-1 #
face $-1 -1 $-1 $143 $144 $34 $-1 $145 forward single #
loop $-1 -1 $-1 $-1 $146 $61 #
plane-surface $-1 -1 $-1 -10.82 0.25 -4.3000000000000007 -1 0 0 0 0 1 forward_v I I I I #
coedge $-1 -1 $-1 $147 $148 $149 $150 forward $62 $-1 #
model_id-kcp-attrib $-1 -1 $-1 $-1 $65 1 1021574883 1021574883 296157186 2 #
face $151 -1 $-1 $152 $153 $35 $-1 $154 reversed single #
loop $-1 -1 $-1 $-1 $155 $65 #
plane-surface $-1 -1 $-1 0 0 -6.370000000000001 0 0 1 1 0 0 forward_v I I I I #
coedge $-1 -1 $-1 $156 $157 $158 $159 forward $66 $-1 #
face $-1 -1 $-1 $160 $161 $37 $-1 $162 forward single #
loop $-1 -1 $-1 $-1 $163 $68 #
plane-surface $-1 -1 $-1 -10.82 -0.25 4.3000000000000007 -1 0 0 0 0 1 forward_v I I I I #
coedge $-1 -1 $-1 $164 $165 $166 $167 forward $69 $-1 #
face $-1 -1 $-1 $168 $169 $39 $-1 $170 reversed single #
loop $-1 -1 $-1 $-1 $171 $71 #
plane-surface $-1 -1 $-1 3.4723404165014349e-015 -0.25000000000000011 -33.436671754036212 4.6885143195523885e-032 1 -1.2246063538223773e-016 1 0 3.8285889215894375e-016 forward_v I I I I #
coedge $-1 -1 $-1 $172 $173 $174 $175 forward $72 $-1 #
model_id-kcp-attrib $-1 -1 $-1 $-1 $75 1 1021574883 1021574883 295501825 5 #
face $176 -1 $-1 $177 $178 $11 $-1 $179 reversed single #
loop $-1 -1 $-1 $-1 $180 $75 #
plane-surface $-1 -1 $-1 11.77 0 -6.3700000000000001 0 1 0 -1 0 0 forward_v I I I I #
coedge $-1 -1 $-1 $181 $182 $183 $184 reversed $76 $-1 #
coedge $-1 -1 $-1 $185 $78 $186 $187 reversed $52 $-1 #
coedge $-1 -1 $-1 $78 $81 $188 $189 reversed $52 $-1 #
coedge $-1 -1 $-1 $182 $181 $78 $116 forward $76 $-1 #
edge $190 -1 $-1 $191 0 $192 7.7400000000000002 $78 $193 forward @7 unknown #
coedge $-1 -1 $-1 $80 $79 $180 $194 forward $42 $-1 #
coedge $-1 -1 $-1 $195 $196 $79 $119 reversed $178 $-1 #
edge $197 -1 $-1 $125 0 $198 0.5 $79 $199 forward @7 unknown #
coedge $-1 -1 $-1 $200 $188 $80 $121 forward $201 $-1 #
edge $202 -1 $-1 $124 0 $203 0.5 $80 $204 forward @7 unknown #
coedge $-1 -1 $-1 $81 $205 $195 $206 forward $52 $-1 #
attrib_edge_convexity-kcp-attrib $-1 -1 $207 $-1 $82 1 #
vertex $-1 -1 $-1 $121 $208 #
vertex $-1 -1 $-1 $119 $209 #
straight-curve $-1 -1 $-1 9.2700000000000031 -0.5 -6.3700000000000001 -1 0 0 I I #
face $-1 -1 $-1 $210 $211 $30 $-1 $212 forward single #
loop $-1 -1 $-1 $-1 $213 $83 #
cone-surface $-1 -1 $-1 9.2699999999999942 -0.5 3.8699999999999948 0 1 0 7.1054273576010019e-015 0 2.5000000000000053 1 I I 0 -1 2.5000000000000053 forward I I I I #
coedge $-1 -1 $-1 $214 $215 $216 $217 forward $84 $-1 #
coedge $-1 -1 $-1 $218 $86 $215 $219 reversed $56 $-1 #
coedge $-1 -1 $-1 $86 $218 $220 $221 forward $56 $-1 #
coedge $-1 -1 $-1 $222 $216 $86 $134 reversed $211 $-1 #
edge $-1 -1 $-1 $223 0 $224 2.5 $86 $225 forward @7 unknown #
face $-1 -1 $-1 $226 $227 $32 $-1 $228 reversed single #
loop $-1 -1 $-1 $-1 $229 $87 #
cone-surface $-1 -1 $-1 9.2700000000000014 0 -3.870000000000001 0 -1 0 -1.7763568394002505e-015 0 -2.4999999999999991 1 I I 0 -1 2.4999999999999991 forward I I I I #
coedge $-1 -1 $-1 $230 $231 $232 $233 forward $88 $-1 #
coedge $-1 -1 $-1 $234 $90 $231 $235 reversed $59 $-1 #
coedge $-1 -1 $-1 $90 $234 $236 $237 forward $59 $-1 #
coedge $-1 -1 $-1 $238 $232 $90 $142 reversed $227 $-1 #
edge $-1 -1 $-1 $239 0 $240 2.5 $90 $241 forward @7 unknown #
face $-1 -1 $-1 $242 $243 $34 $-1 $244 forward single #
loop $-1 -1 $-1 $-1 $245 $91 #
plane-surface $-1 -1 $-1 -10.82 -0.25 -4.3000000000000007 0 -1 0 0 0 -1 forward_v I I I I #
coedge $-1 -1 $-1 $246 $247 $248 $249 forward $92 $-1 #
coedge $-1 -1 $-1 $250 $94 $247 $251 reversed $62 $-1 #
coedge $-1 -1 $-1 $94 $250 $252 $253 forward $62 $-1 #
coedge $-1 -1 $-1 $254 $248 $94 $150 reversed $255 $-1 #
edge $-1 -1 $-1 $256 1.6599999999999993 $257 6.6600000000000001 $94 $258 forward @7 unknown #
model_id-kcp-attrib $-1 -1 $-1 $-1 $96 1 1021574883 1021574883 296157186 3 #
face $259 -1 $-1 $260 $261 $35 $-1 $262 reversed single #
loop $-1 -1 $-1 $-1 $263 $96 #
plane-surface $-1 -1 $-1 0 -0.25 0 0 1 0 0 0 1 forward_v I I I I #
coedge $-1 -1 $-1 $264 $265 $266 $267 forward $97 $-1 #
coedge $-1 -1 $-1 $268 $99 $269 $270 forward $66 $-1 #
coedge $-1 -1 $-1 $99 $268 $271 $272 forward $66 $-1 #
coedge $-1 -1 $-1 $273 $274 $99 $159 reversed $275 $-1 #
edge $-1 -1 $-1 $276 -0.25 $277 0.25 $158 $278 forward @7 unknown #
face $-1 -1 $-1 $279 $280 $37 $-1 $281 forward single #
loop $-1 -1 $-1 $-1 $282 $100 #
plane-surface $-1 -1 $-1 -10.82 0.25 4.3000000000000007 0 1 0 0 0 1 forward_v I I I I #
coedge $-1 -1 $-1 $283 $284 $285 $286 forward $101 $-1 #
coedge $-1 -1 $-1 $287 $103 $284 $288 reversed $69 $-1 #
coedge $-1 -1 $-1 $103 $287 $289 $290 forward $69 $-1 #
coedge $-1 -1 $-1 $291 $285 $103 $167 reversed $292 $-1 #
edge $-1 -1 $-1 $293 3.1600000000000001 $294 6.1600000000000001 $103 $295 forward @7 unknown #
face $-1 -1 $-1 $296 $297 $39 $-1 $298 reversed single #
loop $-1 -1 $-1 $-1 $299 $104 #
plane-surface $-1 -1 $-1 -6.7019279665833653e-016 1.2140017723732966e-015 -22.616671754036211 3.8285889215894375e-016 -1.2246063538223773e-016 -1 1 0 3.8285889215894375e-016 forward_v I I I I #
coedge $-1 -1 $-1 $300 $301 $302 $303 forward $105 $-1 #
coedge $-1 -1 $-1 $304 $107 $305 $306 forward $72 $-1 #
coedge $-1 -1 $-1 $107 $304 $307 $308 forward $72 $-1 #
coedge $-1 -1 $-1 $309 $310 $107 $175 reversed $297 $-1 #
edge $-1 -1 $-1 $311 -8.3983358770181056 $312 -5.8983358770181056 $174 $313 forward @7 unknown #
model_id-kcp-attrib $-1 -1 $-1 $-1 $109 1 1021574883 1021574883 295501825 6 #
face $314 -1 $-1 $315 $316 $11 $-1 $317 reversed single #
loop $-1 -1 $-1 $-1 $195 $109 #
plane-surface $-1 -1 $-1 -4.8700000000000001 0 -4.2999999999999998 1 0 0 0 0 -1 forward_v I I I I #
coedge $-1 -1 $-1 $318 $319 $117 $194 reversed $110 $-1 #
coedge $-1 -1 $-1 $115 $112 $320 $321 forward $76 $-1 #
coedge $-1 -1 $-1 $112 $115 $322 $323 forward $76 $-1 #
coedge $-1 -1 $-1 $319 $324 $112 $184 forward $110 $-1 #
edge $325 -1 $-1 $326 0 $327 7.7400000000000002 $183 $328 forward @7 unknown #
coedge $-1 -1 $-1 $329 $113 $330 $331 forward $52 $-1 #
coedge $-1 -1 $-1 $320 $332 $113 $187 forward $333 $-1 #
edge $334 -1 $-1 $335 -7.1054273576009865e-016 $191 1.5707963267948917 $113 $336 forward @7 unknown #
coedge $-1 -1 $-1 $120 $322 $114 $189 forward $201 $-1 #
edge $337 -1 $-1 $192 0 $124 1.5707963267948979 $188 $338 forward @7 unknown #
attrib_edge_convexity-kcp-attrib $-1 -1 $339 $-1 $116 1 #
vertex $-1 -1 $-1 $187 $340 #
vertex $-1 -1 $-1 $189 $341 #
straight-curve $-1 -1 $-1 11.77 -0.5 3.8700000000000001 0 0 -1 I I #
edge $342 -1 $-1 $198 8.8817841970012523e-016 $203 14.140000000000001 $117 $343 forward @7 unknown #
coedge $-1 -1 $-1 $344 $118 $122 $206 reversed $178 $-1 #
coedge $-1 -1 $-1 $118 $344 $318 $345 forward $178 $-1 #
attrib_edge_convexity-kcp-attrib $-1 -1 $346 $-1 $119 1 #
vertex $-1 -1 $-1 $194 $347 #
straight-curve $-1 -1 $-1 -4.8700000000000001 -0.5 -6.3700000000000001 0 1 0 I I #
coedge $-1 -1 $-1 $322 $120 $319 $348 forward $201 $-1 #
loop $-1 -1 $-1 $-1 $200 $349 #
attrib_edge_convexity-kcp-attrib $-1 -1 $350 $-1 $121 3 #
vertex $-1 -1 $-1 $121 $351 #
straight-curve $-1 -1 $-1 9.2699999999999996 -0.5 -6.3700000000000001 0 1 0 I I #
coedge $-1 -1 $-1 $122 $352 $353 $354 reversed $52 $-1 #
edge $355 -1 $-1 $356 0 $125 2.0700000000000003 $122 $357 forward @7 unknown #
convexity-sys-attrib $-1 -1 $-1 $123 $82 #
point $-1 -1 $-1 9.2699999999999996 -0.5 -6.3700000000000001 #
point $-1 -1 $-1 -4.8700000000000001 -0.5 -6.3700000000000001 #
face $-1 -1 $-1 $-1 $358 $30 $-1 $359 reversed single #
loop $-1 -1 $-1 $-1 $133 $127 #
plane-surface $-1 -1 $-1 11.0053417157418 0 5.6053417157418011 0 1 0 0 0 1 forward_v I I I I #
coedge $-1 -1 $-1 $220 $360 $222 $361 forward $128 $-1 #
coedge $-1 -1 $-1 $362 $130 $360 $363 reversed $84 $-1 #
coedge $-1 -1 $-1 $130 $362 $131 $219 forward $84 $-1 #
coedge $-1 -1 $-1 $133 $222 $130 $217 reversed $211 $-1 #
edge $-1 -1 $-1 $224 0 $364 2.5 $130 $365 forward @7 unknown #
coedge $-1 -1 $-1 $132 $131 $366 $367 reversed $56 $-1 #
edge $-1 -1 $-1 $368 0 $224 0.5 $215 $369 forward @7 unknown #
coedge $-1 -1 $-1 $370 $213 $132 $221 reversed $128 $-1 #
edge $-1 -1 $-1 $371 0 $223 0.5 $132 $372 forward @7 unknown #
coedge $-1 -1 $-1 $216 $133 $213 $361 reversed $211 $-1 #
vertex $-1 -1 $-1 $221 $373 #
vertex $-1 -1 $-1 $219 $374 #
straight-curve $-1 -1 $-1 11.770000000000001 0 3.8700000000000001 -7.1054273576010023e-016 0 1 I I #
face $-1 -1 $-1 $-1 $375 $32 $-1 $376 forward single #
loop $-1 -1 $-1 $-1 $141 $135 #
plane-surface $-1 -1 $-1 11.005341715741801 -0.5 -5.605341715741802 0 1 0 0 0 1 forward_v I I I I #
coedge $-1 -1 $-1 $236 $377 $238 $378 forward $136 $-1 #
coedge $-1 -1 $-1 $379 $138 $377 $380 reversed $88 $-1 #
coedge $-1 -1 $-1 $138 $379 $139 $235 forward $88 $-1 #
coedge $-1 -1 $-1 $141 $238 $138 $233 reversed $227 $-1 #
edge $-1 -1 $-1 $240 0 $381 2.5 $138 $382 forward @7 unknown #
coedge $-1 -1 $-1 $140 $139 $383 $384 reversed $59 $-1 #
edge $-1 -1 $-1 $385 0 $240 0.5 $231 $386 forward @7 unknown #
coedge $-1 -1 $-1 $387 $229 $140 $237 reversed $136 $-1 #
edge $-1 -1 $-1 $388 0 $239 0.5 $140 $389 forward @7 unknown #
coedge $-1 -1 $-1 $232 $141 $229 $378 reversed $227 $-1 #
vertex $-1 -1 $-1 $237 $390 #
vertex $-1 -1 $-1 $235 $391 #
straight-curve $-1 -1 $-1 11.77 -0.5 -3.8700000000000001 0 0 -1 I I #
face $-1 -1 $-1 $392 $255 $34 $-1 $393 reversed single #
loop $-1 -1 $-1 $-1 $394 $143 #
plane-surface $-1 -1 $-1 -5.8200000000000003 -0.25 -4.2999999999999989 1 0 0 0 0 -1 forward_v I I I I #
coedge $-1 -1 $-1 $395 $396 $397 $398 forward $144 $-1 #
coedge $-1 -1 $-1 $399 $146 $396 $400 reversed $92 $-1 #
coedge $-1 -1 $-1 $146 $399 $147 $251 forward $92 $-1 #
coedge $-1 -1 $-1 $149 $397 $146 $249 reversed $255 $-1 #
edge $-1 -1 $-1 $257 -0.25 $401 0.25 $146 $402 forward @7 unknown #
coedge $-1 -1 $-1 $148 $147 $403 $404 reversed $62 $-1 #
edge $-1 -1 $-1 $405 0 $257 2.0700000000000003 $247 $406 forward @7 unknown #
coedge $-1 -1 $-1 $407 $394 $148 $253 reversed $243 $-1 #
edge $-1 -1 $-1 $408 0 $256 2.0700000000000003 $148 $409 forward @7 unknown #
coedge $-1 -1 $-1 $397 $149 $394 $410 reversed $255 $-1 #
loop $-1 -1 $-1 $-1 $149 $242 #
vertex $-1 -1 $-1 $253 $411 #
vertex $-1 -1 $-1 $251 $412 #
straight-curve $-1 -1 $-1 -4.1600000000000001 0.25 -6.370000000000001 -1 0 0 I I #
model_id-kcp-attrib $-1 -1 $-1 $-1 $152 1 1021574883 1021574883 296157186 6 #
face $413 -1 $-1 $414 $415 $35 $-1 $416 reversed single #
loop $-1 -1 $-1 $-1 $417 $152 #
plane-surface $-1 -1 $-1 -10.82 0 0 1 0 0 0 0 -1 forward_v I I I I #
coedge $-1 -1 $-1 $418 $271 $419 $420 forward $153 $-1 #
coedge $-1 -1 $-1 $421 $155 $418 $422 forward $97 $-1 #
coedge $-1 -1 $-1 $155 $421 $423 $424 forward $97 $-1 #
coedge $-1 -1 $-1 $274 $273 $155 $267 reversed $275 $-1 #
edge $-1 -1 $-1 $425 -0.25 $426 0.25 $266 $427 forward @7 unknown #
coedge $-1 -1 $-1 $157 $156 $428 $429 forward $66 $-1 #
coedge $-1 -1 $-1 $430 $431 $156 $270 reversed $415 $-1 #
edge $-1 -1 $-1 $277 -10.82 $432 10.82 $269 $433 forward @7 unknown #
coedge $-1 -1 $-1 $263 $434 $157 $272 reversed $153 $-1 #
edge $-1 -1 $-1 $435 -10.82 $276 10.82 $271 $436 forward @7 unknown #
coedge $-1 -1 $-1 $266 $158 $434 $437 forward $275 $-1 #
coedge $-1 -1 $-1 $158 $266 $430 $438 reversed $275 $-1 #
loop $-1 -1 $-1 $-1 $273 $414 #
vertex $-1 -1 $-1 $159 $439 #
vertex $-1 -1 $-1 $159 $440 #
straight-curve $-1 -1 $-1 10.82 0 6.370000000000001 0 1 0 I I #
face $-1 -1 $-1 $441 $292 $37 $-1 $442 forward single #
loop $-1 -1 $-1 $-1 $443 $160 #
plane-surface $-1 -1 $-1 -7.8200000000000003 0.25 4.3000000000000007 1 0 0 0 0 -1 forward_v I I I I #
coedge $-1 -1 $-1 $444 $445 $446 $447 forward $161 $-1 #
coedge $-1 -1 $-1 $448 $163 $445 $449 reversed $101 $-1 #
coedge $-1 -1 $-1 $163 $448 $164 $288 forward $101 $-1 #
coedge $-1 -1 $-1 $166 $446 $163 $286 reversed $292 $-1 #
edge $-1 -1 $-1 $294 -0.25 $450 0.25 $163 $451 forward @7 unknown #
coedge $-1 -1 $-1 $165 $164 $452 $453 reversed $69 $-1 #
edge $-1 -1 $-1 $454 0 $294 2.0700000000000003 $284 $455 forward @7 unknown #
coedge $-1 -1 $-1 $456 $443 $165 $290 reversed $280 $-1 #
edge $-1 -1 $-1 $457 0 $293 2.0700000000000003 $165 $458 forward @7 unknown #
coedge $-1 -1 $-1 $446 $166 $443 $459 reversed $292 $-1 #
loop $-1 -1 $-1 $-1 $166 $279 #
vertex $-1 -1 $-1 $290 $460 #
vertex $-1 -1 $-1 $288 $461 #
straight-curve $-1 -1 $-1 -4.6600000000000001 -0.25 6.370000000000001 -1 0 0 I I #
face $-1 -1 $-1 $462 $463 $39 $-1 $464 reversed single #
loop $-1 -1 $-1 $-1 $302 $168 #
plane-surface $-1 -1 $-1 -3.0499999999999998 0 0 1 0 0 0 0 -1 forward_v I I I I #
coedge $-1 -1 $-1 $465 $305 $310 $466 forward $169 $-1 #
coedge $-1 -1 $-1 $467 $171 $468 $469 forward $105 $-1 #
coedge $-1 -1 $-1 $171 $467 $465 $470 reversed $105 $-1 #
coedge $-1 -1 $-1 $310 $309 $171 $303 reversed $297 $-1 #
edge $-1 -1 $-1 $471 5.8983358770181056 $472 8.3983358770181056 $302 $473 forward @7 unknown #
coedge $-1 -1 $-1 $173 $172 $474 $475 forward $72 $-1 #
coedge $-1 -1 $-1 $299 $476 $172 $306 reversed $169 $-1 #
edge $-1 -1 $-1 $312 -3.0499999999999998 $477 3.0499999999999998 $305 $478 forward @7 unknown #
coedge $-1 -1 $-1 $479 $480 $173 $308 reversed $463 $-1 #
edge $481 -1 $-1 $482 -3.049999999999998 $311 3.0500000000000016 $307 $483 forward @7 unknown #
coedge $-1 -1 $-1 $302 $174 $480 $484 reversed $297 $-1 #
coedge $-1 -1 $-1 $174 $302 $299 $466 reversed $297 $-1 #
vertex $-1 -1 $-1 $308 $485 #
vertex $-1 -1 $-1 $175 $486 #
straight-curve $-1 -1 $-1 -3.0499999999999998 0.25000000000000194 -16.718335877018106 0 1.2246063538223773e-016 1 I I #
model_id-kcp-attrib $-1 -1 $-1 $-1 $177 1 1021574883 1021574883 295501825 7 #
face $487 -1 $-1 $488 $489 $11 $-1 $490 forward single #
loop $-1 -1 $-1 $-1 $491 $177 #
plane-surface $-1 -1 $-1 -9.8699999999999992 0 -4.2999999999999998 0 0 1 1 0 0 forward_v I I I I #
coedge $-1 -1 $-1 $492 $180 $196 $345 reversed $110 $-1 #
coedge $-1 -1 $-1 $180 $183 $200 $348 reversed $110 $-1 #
coedge $-1 -1 $-1 $493 $186 $181 $321 reversed $333 $-1 #
edge $494 -1 $-1 $326 -2.2204460492503131e-016 $191 0.49999999999999978 $181 $495 forward @7 unknown #
coedge $-1 -1 $-1 $188 $200 $182 $323 reversed $201 $-1 #
edge $496 -1 $-1 $192 -1.1102230246251565e-016 $327 0.49999999999999989 $322 $497 forward @7 unknown #
coedge $-1 -1 $-1 $183 $498 $493 $499 reversed $110 $-1 #
attrib_edge_convexity-kcp-attrib $-1 -1 $500 $-1 $184 1 #
vertex $-1 -1 $-1 $184 $501 #
vertex $-1 -1 $-1 $323 $502 #
straight-curve $-1 -1 $-1 11.77 0 3.8700000000000001 0 0 -1 I I #
coedge $-1 -1 $-1 $503 $185 $504 $505 reversed $52 $-1 #
coedge $-1 -1 $-1 $506 $507 $185 $331 reversed $508 $-1 #
edge $509 -1 $-1 $335 1.7763568394002505e-015 $510 16.140000000000001 $185 $511 forward @7 unknown #
coedge $-1 -1 $-1 $186 $493 $506 $512 forward $333 $-1 #
loop $-1 -1 $-1 $-1 $186 $513 #
attrib_edge_convexity-kcp-attrib $-1 -1 $514 $-1 $187 1 #
vertex $-1 -1 $-1 $331 $515 #
ellipse-curve $-1 -1 $-1 9.2699999999999942 -0.5 3.8699999999999948 0 1 0 7.1054273576010019e-015 0 2.5000000000000053 1 I I #
attrib_edge_convexity-kcp-attrib $-1 -1 $516 $-1 $189 1 #
ellipse-curve $-1 -1 $-1 9.2700000000000014 -0.5 -3.870000000000001 0 1 0 2.5 0 8.8817841970012523e-016 1 I I #
convexity-sys-attrib $-1 -1 $-1 $190 $116 #
point $-1 -1 $-1 11.770000000000001 -0.5 3.8700000000000001 #
point $-1 -1 $-1 11.770000000000001 -0.5 -3.8700000000000001 #
attrib_edge_convexity-kcp-attrib $-1 -1 $517 $-1 $194 1 #
straight-curve $-1 -1 $-1 -4.870000000000001 0 -6.3700000000000001 1 0 0 I I #
coedge $-1 -1 $-1 $196 $195 $491 $518 forward $178 $-1 #
edge $519 -1 $-1 $520 0 $198 2.0700000000000003 $196 $521 forward @7 unknown #
convexity-sys-attrib $-1 -1 $-1 $197 $119 #
point $-1 -1 $-1 -4.8700000000000001 0 -6.3700000000000001 #
edge $-1 -1 $-1 $203 0 $327 1.5707963267948979 $200 $522 forward @7 unknown #
face $523 -1 $-1 $-1 $201 $11 $-1 $524 forward single #
convexity-sys-attrib $-1 -1 $-1 $202 $121 #
point $-1 -1 $-1 9.2699999999999996 0 -6.3700000000000001 #
coedge $-1 -1 $-1 $205 $525 $526 $527 forward $52 $-1 #
coedge $-1 -1 $-1 $528 $491 $205 $354 forward $316 $-1 #
edge $529 -1 $-1 $356 8.8817841970012523e-016 $530 5 $205 $531 forward @7 unknown #
attrib_edge_convexity-kcp-attrib $-1 -1 $532 $-1 $206 1 #
vertex $-1 -1 $-1 $206 $533 #
straight-curve $-1 -1 $-1 -4.8700000000000001 -0.5 -4.2999999999999998 0 0 -1 I I #
loop $-1 -1 $-1 $-1 $534 $210 #
plane-surface $-1 -1 $-1 11.0053417157418 -0.5 5.6053417157418011 0 1 0 0 0 1 forward_v I I I I #
coedge $-1 -1 $-1 $213 $370 $214 $363 forward $128 $-1 #
edge $-1 -1 $-1 $364 -7.1054273576009865e-016 $223 1.5707963267948917 $213 $535 forward @7 unknown #
coedge $-1 -1 $-1 $215 $214 $536 $537 reversed $84 $-1 #
edge $-1 -1 $-1 $538 0 $364 0.5 $360 $539 forward @7 unknown #
vertex $-1 -1 $-1 $363 $540 #
straight-curve $-1 -1 $-1 11.77 0 6.3700000000000001 -1 0 0 I I #
coedge $-1 -1 $-1 $536 $534 $218 $367 forward $358 $-1 #
edge $-1 -1 $-1 $371 0 $368 2.5 $218 $541 forward @7 unknown #
vertex $-1 -1 $-1 $367 $542 #
straight-curve $-1 -1 $-1 11.77 -0.5 6.3700000000000001 0 1 0 I I #
coedge $-1 -1 $-1 $360 $220 $534 $543 reversed $128 $-1 #
vertex $-1 -1 $-1 $543 $544 #
straight-curve $-1 -1 $-1 11.770000000000001 -0.5 3.8700000000000001 0 1 0 I I #
point $-1 -1 $-1 11.770000000000001 0 3.8700000000000001 #
point $-1 -1 $-1 11.77 0 6.3700000000000001 #
loop $-1 -1 $-1 $-1 $545 $226 #
plane-surface $-1 -1 $-1 11.005341715741801 0 -5.605341715741802 0 1 0 0 0 1 forward_v I I I I #
coedge $-1 -1 $-1 $229 $387 $230 $380 forward $136 $-1 #
edge $-1 -1 $-1 $381 0 $239 1.5707963267948977 $229 $546 forward @7 unknown #
coedge $-1 -1 $-1 $231 $230 $547 $548 reversed $88 $-1 #
edge $-1 -1 $-1 $549 0 $381 0.5 $377 $550 forward @7 unknown #
vertex $-1 -1 $-1 $380 $551 #
straight-curve $-1 -1 $-1 11.77 -0.5 -6.3700000000000001 -1 0 0 I I #
coedge $-1 -1 $-1 $547 $545 $234 $384 forward $375 $-1 #
edge $-1 -1 $-1 $388 0 $385 2.5 $234 $552 forward @7 unknown #
vertex $-1 -1 $-1 $384 $553 #
straight-curve $-1 -1 $-1 11.77 0 -6.3700000000000001 0 -1 0 I I #
coedge $-1 -1 $-1 $377 $236 $545 $554 reversed $136 $-1 #
vertex $-1 -1 $-1 $554 $555 #
straight-curve $-1 -1 $-1 11.77 0 -3.8700000000000001 0 -1 0 I I #
point $-1 -1 $-1 11.77 -0.5 -3.8700000000000001 #
point $-1 -1 $-1 11.77 -0.5 -6.3700000000000001 #
face $-1 -1 $-1 $-1 $556 $34 $-1 $557 forward single #
plane-surface $-1 -1 $-1 -8.3199999999999985 2.7755575615628914e-017 -6.3700000000000001 7.4411954044728249e-031 -4.9321710261376936e-046 1 1 0 -7.4411954044728249e-031 forward_v I I I I #
coedge $-1 -1 $-1 $252 $558 $254 $410 forward $243 $-1 #
coedge $-1 -1 $-1 $559 $245 $558 $560 reversed $144 $-1 #
coedge $-1 -1 $-1 $245 $559 $246 $400 forward $144 $-1 #
coedge $-1 -1 $-1 $248 $254 $245 $398 reversed $255 $-1 #
edge $-1 -1 $-1 $401 -6.6600000000000001 $561 -1.6600000000000001 $245 $562 forward @7 unknown #
coedge $-1 -1 $-1 $247 $246 $563 $564 reversed $92 $-1 #
edge $-1 -1 $-1 $565 0 $401 2.0700000000000003 $396 $566 forward @7 unknown #
vertex $-1 -1 $-1 $400 $567 #
straight-curve $-1 -1 $-1 -10.82 0 -6.370000000000001 0 -1 0 I I #
coedge $-1 -1 $-1 $563 $568 $250 $404 forward $556 $-1 #
edge $569 -1 $-1 $408 1.6599999999999993 $405 6.6600000000000001 $250 $570 forward @7 unknown #
vertex $-1 -1 $-1 $404 $571 #
straight-curve $-1 -1 $-1 -10.82 0.25 -4.3000000000000007 0 0 -1 I I #
coedge $-1 -1 $-1 $558 $252 $568 $572 reversed $243 $-1 #
vertex $-1 -1 $-1 $572 $573 #
straight-curve $-1 -1 $-1 -5.8199999999999994 0.25 -4.2999999999999989 0 0 -1 I I #
edge $-1 -1 $-1 $561 -0.375 $256 0.125 $394 $574 forward @7 unknown #
point $-1 -1 $-1 -5.8199999999999994 0.25 -6.3699999999999992 #
point $-1 -1 $-1 -10.82 0.25 -6.370000000000001 #
model_id-kcp-attrib $-1 -1 $-1 $-1 $260 1 1021574883 1021574883 296157186 5 #
face $575 -1 $-1 $-1 $275 $35 $-1 $576 reversed single #
loop $-1 -1 $-1 $-1 $430 $260 #
plane-surface $-1 -1 $-1 0 0.25 0 0 -1 0 0 0 -1 forward_v I I I I #
coedge $-1 -1 $-1 $577 $428 $431 $578 forward $261 $-1 #
coedge $-1 -1 $-1 $434 $263 $264 $422 reversed $153 $-1 #
coedge $-1 -1 $-1 $428 $577 $263 $420 reversed $261 $-1 #
edge $-1 -1 $-1 $435 -6.370000000000001 $579 6.370000000000001 $419 $580 forward @7 unknown #
coedge $-1 -1 $-1 $265 $264 $577 $581 forward $97 $-1 #
edge $-1 -1 $-1 $426 -10.82 $579 10.82 $418 $582 forward @7 unknown #
coedge $-1 -1 $-1 $431 $430 $265 $424 reversed $415 $-1 #
edge $-1 -1 $-1 $583 -10.82 $425 10.82 $423 $584 forward @7 unknown #
vertex $-1 -1 $-1 $267 $585 #
vertex $-1 -1 $-1 $437 $586 #
straight-curve $-1 -1 $-1 10.82 0 -6.370000000000001 0 -1 0 I I #
coedge $-1 -1 $-1 $417 $419 $268 $429 reversed $261 $-1 #
edge $-1 -1 $-1 $432 -0.25 $435 0.25 $428 $587 forward @7 unknown #
coedge $-1 -1 $-1 $423 $269 $274 $438 forward $415 $-1 #
coedge $-1 -1 $-1 $269 $423 $417 $578 reversed $415 $-1 #
vertex $-1 -1 $-1 $270 $588 #
straight-curve $-1 -1 $-1 0 0.25 6.370000000000001 -1 0 0 I I #
coedge $-1 -1 $-1 $271 $418 $273 $437 reversed $153 $-1 #
vertex $-1 -1 $-1 $429 $589 #
straight-curve $-1 -1 $-1 0 -0.25 6.370000000000001 1 0 0 I I #
edge $-1 -1 $-1 $276 -6.370000000000001 $426 6.370000000000001 $273 $590 forward @7 unknown #
edge $-1 -1 $-1 $277 -6.370000000000001 $425 6.370000000000001 $274 $591 forward @7 unknown #
point $-1 -1 $-1 10.82 -0.25 6.370000000000001 #
point $-1 -1 $-1 10.82 0.25 6.370000000000001 #
face $-1 -1 $-1 $-1 $592 $37 $-1 $593 reversed single #
plane-surface $-1 -1 $-1 -9.3199999999999985 0 6.3700000000000001 -1.0727461729373627e-030 -3.555186569473374e-046 1 1 0 1.0727461729373627e-030 forward_v I I I I #
coedge $-1 -1 $-1 $289 $594 $291 $459 forward $280 $-1 #
coedge $-1 -1 $-1 $595 $282 $594 $596 reversed $161 $-1 #
coedge $-1 -1 $-1 $282 $595 $283 $449 forward $161 $-1 #
coedge $-1 -1 $-1 $285 $291 $282 $447 reversed $292 $-1 #
edge $-1 -1 $-1 $450 -6.1600000000000001 $597 -3.1600000000000001 $282 $598 forward @7 unknown #
coedge $-1 -1 $-1 $284 $283 $599 $600 reversed $101 $-1 #
edge $-1 -1 $-1 $601 0 $450 2.0700000000000003 $445 $602 forward @7 unknown #
vertex $-1 -1 $-1 $449 $603 #
straight-curve $-1 -1 $-1 -10.82 0 6.370000000000001 0 1 0 I I #
coedge $-1 -1 $-1 $599 $604 $287 $453 forward $592 $-1 #
edge $605 -1 $-1 $457 3.1600000000000001 $454 6.1600000000000001 $287 $606 forward @7 unknown #
vertex $-1 -1 $-1 $453 $607 #
straight-curve $-1 -1 $-1 -10.82 -0.25 4.3000000000000007 0 0 1 I I #
coedge $-1 -1 $-1 $594 $289 $604 $608 reversed $280 $-1 #
vertex $-1 -1 $-1 $608 $609 #
straight-curve $-1 -1 $-1 -7.8200000000000003 -0.25 4.3000000000000007 0 0 1 I I #
edge $-1 -1 $-1 $597 -0.125 $293 0.375 $443 $610 forward @7 unknown #
point $-1 -1 $-1 -7.8200000000000003 -0.25 6.370000000000001 #
point $-1 -1 $-1 -10.82 -0.25 6.370000000000001 #
face $-1 -1 $-1 $-1 $611 $39 $-1 $612 reversed single #
loop $-1 -1 $-1 $-1 $468 $296 #
plane-surface $-1 -1 $-1 0 0 -25.116671754036211 0 0 1 1 0 0 forward_v I I I I #
coedge $-1 -1 $-1 $476 $299 $301 $470 forward $169 $-1 #
edge $-1 -1 $-1 $312 -0.250000000000002 $471 0.249999999999998 $310 $613 forward @7 unknown #
coedge $-1 -1 $-1 $301 $300 $614 $615 forward $105 $-1 #
coedge $-1 -1 $-1 $480 $479 $300 $469 reversed $463 $-1 #
edge $616 -1 $-1 $472 -3.0500000000000016 $617 3.049999999999998 $468 $618 forward @7 unknown #
edge $-1 -1 $-1 $471 -3.0499999999999998 $619 3.0499999999999998 $301 $620 forward @7 unknown #
vertex $-1 -1 $-1 $303 $621 #
vertex $-1 -1 $-1 $484 $622 #
straight-curve $-1 -1 $-1 -3.0499999999999998 -0.24999999999999806 -16.718335877018106 0 -1.2246063538223773e-016 -1 I I #
coedge $-1 -1 $-1 $623 $624 $304 $475 reversed $611 $-1 #
edge $-1 -1 $-1 $477 5.8983358770181056 $482 8.3983358770181056 $474 $625 forward @7 unknown #
coedge $-1 -1 $-1 $305 $465 $623 $626 forward $169 $-1 #
vertex $-1 -1 $-1 $475 $627 #
straight-curve $-1 -1 $-1 -6.7019279665833653e-016 0.25000000000000122 -22.616671754036211 1 0 3.8285889215894375e-016 I I #
coedge $-1 -1 $-1 $468 $307 $624 $628 forward $463 $-1 #
coedge $-1 -1 $-1 $307 $468 $309 $484 forward $463 $-1 #
convexity-sys-attrib $-1 -1 $-1 $-1 $308 #
vertex $-1 -1 $-1 $628 $629 #
straight-curve $-1 -1 $-1 1.7361702082507174e-015 0.25000000000000089 -25.116671754036211 -1 4.6885143195523885e-032 0 I I #
edge $630 -1 $-1 $472 -0.24999999999999908 $311 0.25000000000000089 $309 $631 forward @7 unknown #
point $-1 -1 $-1 -3.0499999999999998 0.25000000000000089 -25.116671754036211 #
point $-1 -1 $-1 -3.0500000000000007 0.25000000000000122 -22.616671754036211 #
model_id-kcp-attrib $-1 -1 $-1 $-1 $315 1 1021574883 1021574883 295501825 8 #
face $632 -1 $-1 $633 $634 $11 $-1 $635 reversed single #
loop $-1 -1 $-1 $-1 $636 $315 #
plane-surface $-1 -1 $-1 -9.8699999999999992 0 -6.3700000000000001 -1 0 0 0 -1 0 forward_v I I I I #
coedge $-1 -1 $-1 $353 $637 $344 $518 reversed $316 $-1 #
coedge $-1 -1 $-1 $638 $318 $637 $639 forward $110 $-1 #
coedge $-1 -1 $-1 $332 $320 $324 $499 forward $333 $-1 #
attrib_edge_convexity-kcp-attrib $-1 -1 $640 $-1 $321 3 #
straight-curve $-1 -1 $-1 11.77 -2.2204460492503131e-016 3.8700000000000001 0 -1 0 I I #
attrib_edge_convexity-kcp-attrib $-1 -1 $641 $-1 $323 3 #
straight-curve $-1 -1 $-1 11.77 -0.49999999999999989 -3.8700000000000006 0 1 0 I I #
coedge $-1 -1 $-1 $324 $642 $643 $644 forward $110 $-1 #
edge $-1 -1 $-1 $326 0 $645 1.5707963267948974 $324 $646 forward @7 unknown #
convexity-sys-attrib $-1 -1 $-1 $325 $184 #
point $-1 -1 $-1 11.77 0 3.8700000000000001 #
point $-1 -1 $-1 11.77 0 -3.8700000000000001 #
coedge $-1 -1 $-1 $647 $329 $648 $649 forward $52 $-1 #
coedge $-1 -1 $-1 $650 $651 $329 $505 forward $652 $-1 #
edge $653 -1 $-1 $654 0 $510 2.0700000000000003 $329 $655 forward @7 unknown #
coedge $-1 -1 $-1 $643 $330 $332 $512 reversed $508 $-1 #
coedge $-1 -1 $-1 $330 $643 $650 $656 reversed $508 $-1 #
loop $-1 -1 $-1 $-1 $643 $657 #
attrib_edge_convexity-kcp-attrib $-1 -1 $658 $-1 $331 1 #
vertex $-1 -1 $-1 $505 $659 #
straight-curve $-1 -1 $-1 9.2700000000000014 -0.5 6.3700000000000001 -1 0 0 I I #
edge $-1 -1 $-1 $645 0 $335 0.5 $332 $660 forward @7 unknown #
face $661 -1 $-1 $349 $333 $11 $-1 $662 forward single #
convexity-sys-attrib $-1 -1 $-1 $334 $187 #
point $-1 -1 $-1 9.2699999999999996 -0.5 6.3700000000000001 #
convexity-sys-attrib $-1 -1 $-1 $337 $189 #
convexity-sys-attrib $-1 -1 $-1 $342 $194 #
edge $663 -1 $-1 $356 0 $520 0.5 $344 $664 forward @7 unknown #
attrib_edge_convexity-kcp-attrib $-1 -1 $665 $-1 $345 1 #
vertex $-1 -1 $-1 $345 $666 #
straight-curve $-1 -1 $-1 -4.8700000000000001 0 -4.2999999999999998 0 0 -1 I I #
ellipse-curve $-1 -1 $-1 9.2700000000000014 0 -3.870000000000001 0 -1 0 -1.7763568394002505e-015 0 -2.4999999999999991 1 I I #
model_id-kcp-attrib $-1 -1 $-1 $-1 $349 1 1021574883 1021574883 295501825 17 #
cone-surface $-1 -1 $-1 9.2699999999999996 0.037875430594129997 -3.8700000000000001 0 -1 0 2.5 0 0 1 I I 0 1 2.5 forward I I I I #
coedge $-1 -1 $-1 $352 $667 $668 $669 forward $52 $-1 #
coedge $-1 -1 $-1 $670 $636 $352 $527 reversed $489 $-1 #
edge $671 -1 $-1 $672 0 $530 1.25 $352 $673 forward @7 unknown #
coedge $-1 -1 $-1 $637 $353 $636 $674 forward $316 $-1 #
attrib_edge_convexity-kcp-attrib $-1 -1 $675 $-1 $354 1 #
vertex $-1 -1 $-1 $354 $676 #
straight-curve $-1 -1 $-1 -4.8699999999999992 -0.5 -4.2999999999999998 -1 0 0 I I #
convexity-sys-attrib $-1 -1 $-1 $355 $206 #
point $-1 -1 $-1 -4.8700000000000001 -0.5 -4.2999999999999998 #
coedge $-1 -1 $-1 $366 $536 $370 $543 forward $358 $-1 #
ellipse-curve $-1 -1 $-1 9.2699999999999942 0 3.8699999999999948 0 1 0 7.1054273576010019e-015 0 2.5000000000000053 1 I I #
coedge $-1 -1 $-1 $534 $366 $362 $537 forward $358 $-1 #
edge $-1 -1 $-1 $368 0 $538 2.5 $362 $677 forward @7 unknown #
vertex $-1 -1 $-1 $543 $678 #
straight-curve $-1 -1 $-1 9.2699999999999996 -0.5 6.3700000000000001 0 1 0 I I #
point $-1 -1 $-1 9.2699999999999996 0 6.3700000000000001 #
straight-curve $-1 -1 $-1 11.770000000000001 -0.5 3.8700000000000001 -7.1054273576010023e-016 0 1 I I #
point $-1 -1 $-1 11.77 -0.5 6.3700000000000001 #
edge $-1 -1 $-1 $538 -7.1054273576009865e-016 $371 1.5707963267948917 $370 $679 forward @7 unknown #
point $-1 -1 $-1 11.770000000000001 -0.5 3.8700000000000001 #
coedge $-1 -1 $-1 $383 $547 $387 $554 forward $375 $-1 #
ellipse-curve $-1 -1 $-1 9.2700000000000014 -0.5 -3.870000000000001 0 -1 0 -1.7763568394002505e-015 0 -2.4999999999999991 1 I I #
coedge $-1 -1 $-1 $545 $383 $379 $548 forward $375 $-1 #
edge $-1 -1 $-1 $385 0 $549 2.5 $379 $680 forward @7 unknown #
vertex $-1 -1 $-1 $554 $681 #
straight-curve $-1 -1 $-1 9.2699999999999996 0 -6.3700000000000001 0 -1 0 I I #
point $-1 -1 $-1 9.2699999999999996 -0.5 -6.3700000000000001 #
straight-curve $-1 -1 $-1 11.77 0 -3.8700000000000001 0 0 -1 I I #
point $-1 -1 $-1 11.77 0 -6.3700000000000001 #
edge $-1 -1 $-1 $549 0 $388 1.5707963267948977 $387 $682 forward @7 unknown #
point $-1 -1 $-1 11.77 0 -3.8700000000000001 #
loop $-1 -1 $-1 $-1 $568 $392 #
plane-surface $-1 -1 $-1 -8.3199999999999985 2.7755575615628914e-017 -4.2999999999999998 7.4411954044728249e-031 -4.9321710261376936e-046 1 1 0 -7.4411954044728249e-031 forward_v I I I I #
coedge $-1 -1 $-1 $394 $407 $395 $560 forward $243 $-1 #
coedge $-1 -1 $-1 $396 $395 $683 $684 reversed $144 $-1 #
edge $-1 -1 $-1 $685 0 $561 2.0700000000000003 $558 $686 forward @7 unknown #
vertex $-1 -1 $-1 $560 $687 #
straight-curve $-1 -1 $-1 -4.1600000000000001 -0.25 -6.370000000000001 1 0 0 I I #
coedge $-1 -1 $-1 $683 $403 $399 $564 forward $556 $-1 #
edge $688 -1 $-1 $405 -0.25 $565 0.25 $399 $689 forward @7 unknown #
vertex $-1 -1 $-1 $564 $690 #
straight-curve $-1 -1 $-1 -10.82 -0.25 -4.3000000000000007 0 0 -1 I I #
point $-1 -1 $-1 -10.82 -0.25 -6.370000000000001 #
coedge $-1 -1 $-1 $403 $683 $407 $572 forward $556 $-1 #
convexity-sys-attrib $-1 -1 $-1 $-1 $404 #
straight-curve $-1 -1 $-1 -4.1600000000000001 0.25 -4.3000000000000007 -1 0 0 I I #
point $-1 -1 $-1 -10.82 0.25 -4.3000000000000007 #
edge $691 -1 $-1 $685 -0.375 $408 0.125 $407 $692 forward @7 unknown #
point $-1 -1 $-1 -5.8199999999999994 0.25 -4.2999999999999989 #
straight-curve $-1 -1 $-1 -5.8200000000000003 0.125 -6.370000000000001 0 1 0 I I #
model_id-kcp-attrib $-1 -1 $-1 $-1 $414 1 1021574883 1021574883 296157186 4 #
plane-surface $-1 -1 $-1 10.82 0 0 -1 0 0 0 0 1 forward_v I I I I #
coedge $-1 -1 $-1 $419 $417 $421 $581 reversed $261 $-1 #
edge $-1 -1 $-1 $432 -6.370000000000001 $583 6.370000000000001 $431 $693 forward @7 unknown #
vertex $-1 -1 $-1 $581 $694 #
straight-curve $-1 -1 $-1 -10.82 -0.25 0 0 0 -1 I I #
edge $-1 -1 $-1 $579 -0.25 $583 0.25 $577 $695 forward @7 unknown #
straight-curve $-1 -1 $-1 0 -0.25 -6.370000000000001 -1 0 0 I I #
vertex $-1 -1 $-1 $424 $696 #
straight-curve $-1 -1 $-1 0 0.25 -6.370000000000001 1 0 0 I I #
point $-1 -1 $-1 10.82 0.25 -6.370000000000001 #
point $-1 -1 $-1 10.82 -0.25 -6.370000000000001 #
straight-curve $-1 -1 $-1 -10.82 0 6.370000000000001 0 -1 0 I I #
point $-1 -1 $-1 -10.82 0.25 6.370000000000001 #
point $-1 -1 $-1 -10.82 -0.25 6.370000000000001 #
straight-curve $-1 -1 $-1 10.82 -0.25 0 0 0 -1 I I #
straight-curve $-1 -1 $-1 10.82 0.25 0 0 0 -1 I I #
loop $-1 -1 $-1 $-1 $604 $441 #
plane-surface $-1 -1 $-1 -9.3199999999999985 0 4.2999999999999998 -1.0727461729373627e-030 -3.555186569473374e-046 1 1 0 1.0727461729373627e-030 forward_v I I I I #
coedge $-1 -1 $-1 $443 $456 $444 $596 forward $280 $-1 #
coedge $-1 -1 $-1 $445 $444 $697 $698 reversed $161 $-1 #
edge $-1 -1 $-1 $699 0 $597 2.0700000000000003 $594 $700 forward @7 unknown #
vertex $-1 -1 $-1 $596 $701 #
straight-curve $-1 -1 $-1 -4.6600000000000001 0.25 6.370000000000001 1 0 0 I I #
coedge $-1 -1 $-1 $697 $452 $448 $600 forward $592 $-1 #
edge $702 -1 $-1 $454 -0.25 $601 0.25 $448 $703 forward @7 unknown #
vertex $-1 -1 $-1 $600 $704 #
straight-curve $-1 -1 $-1 -10.82 0.25 4.3000000000000007 0 0 1 I I #
point $-1 -1 $-1 -10.82 0.25 6.370000000000001 #
coedge $-1 -1 $-1 $452 $697 $456 $608 forward $592 $-1 #
convexity-sys-attrib $-1 -1 $-1 $-1 $453 #
straight-curve $-1 -1 $-1 -4.6600000000000001 -0.25 4.3000000000000007 -1 0 0 I I #
point $-1 -1 $-1 -10.82 -0.25 4.3000000000000007 #
edge $705 -1 $-1 $699 -0.125 $457 0.375 $456 $706 forward @7 unknown #
point $-1 -1 $-1 -7.8200000000000003 -0.25 4.3000000000000007 #
straight-curve $-1 -1 $-1 -7.8200000000000003 0.125 6.370000000000001 0 -1 0 I I #
loop $-1 -1 $-1 $-1 $614 $462 #
plane-surface $-1 -1 $-1 3.0499999999999998 0 0 -1 0 0 0 0 1 forward_v I I I I #
straight-curve $-1 -1 $-1 -3.0499999999999998 -7.7782511042874349e-016 -22.616671754036211 0 -1 1.2246063538223773e-016 I I #
coedge $-1 -1 $-1 $624 $623 $467 $615 reversed $611 $-1 #
edge $-1 -1 $-1 $617 -8.3983358770181056 $619 -5.8983358770181056 $614 $707 forward @7 unknown #
convexity-sys-attrib $-1 -1 $-1 $-1 $469 #
vertex $-1 -1 $-1 $469 $708 #
straight-curve $-1 -1 $-1 1.7361702082507174e-015 -0.24999999999999911 -25.116671754036211 1 -4.6885143195523885e-032 0 I I #
vertex $-1 -1 $-1 $615 $709 #
straight-curve $-1 -1 $-1 -6.7019279665833653e-016 -0.24999999999999878 -22.616671754036211 1 0 3.8285889215894375e-016 I I #
point $-1 -1 $-1 -3.0500000000000007 -0.24999999999999878 -22.616671754036211 #
point $-1 -1 $-1 -3.0499999999999998 -0.24999999999999908 -25.116671754036211 #
coedge $-1 -1 $-1 $614 $474 $476 $626 reversed $611 $-1 #
coedge $-1 -1 $-1 $474 $614 $479 $628 reversed $611 $-1 #
straight-curve $-1 -1 $-1 3.0499999999999998 0.25000000000000194 -16.718335877018106 0 -1.2246063538223773e-016 -1 I I #
edge $-1 -1 $-1 $619 -0.249999999999998 $477 0.250000000000002 $623 $710 forward @7 unknown #
point $-1 -1 $-1 3.0499999999999989 0.25000000000000122 -22.616671754036211 #
edge $711 -1 $-1 $482 -0.25000000000000089 $617 0.24999999999999908 $624 $712 forward @7 unknown #
point $-1 -1 $-1 3.0499999999999998 0.25000000000000089 -25.116671754036211 #
convexity-sys-attrib $-1 -1 $-1 $-1 $484 #
straight-curve $-1 -1 $-1 -3.0499999999999998 0 -25.116671754036211 0 1 0 I I #
model_id-kcp-attrib $-1 -1 $-1 $-1 $488 1 1021574883 1021574883 295501825 9 #
face $713 -1 $-1 $714 $715 $11 $-1 $716 reversed single #
loop $-1 -1 $-1 $-1 $717 $488 #
plane-surface $-1 -1 $-1 -7.3700000000000001 0 -3.0499999999999998 0 0 -1 -1 0 0 forward_v I I I I #
coedge $-1 -1 $-1 $526 $718 $528 $674 reversed $489 $-1 #
coedge $-1 -1 $-1 $491 $528 $492 $639 reversed $316 $-1 #
coedge $-1 -1 $-1 $719 $492 $718 $720 reversed $110 $-1 #
edge $721 -1 $-1 $520 -1.7763568394002505e-015 $722 5 $492 $723 forward @7 unknown #
convexity-sys-attrib $-1 -1 $-1 $494 $321 #
convexity-sys-attrib $-1 -1 $-1 $496 $323 #
coedge $-1 -1 $-1 $498 $724 $725 $726 forward $110 $-1 #
coedge $-1 -1 $-1 $507 $506 $498 $644 reversed $508 $-1 #
edge $-1 -1 $-1 $727 8.8817841970012523e-016 $645 16.140000000000001 $498 $728 forward @7 unknown #
vertex $-1 -1 $-1 $499 $729 #
ellipse-curve $-1 -1 $-1 9.2700000000000014 0 3.8700000000000001 0 -1 0 2.4999999999999982 0 0 1 I I #
coedge $-1 -1 $-1 $730 $503 $731 $732 forward $52 $-1 #
coedge $-1 -1 $-1 $733 $734 $503 $649 reversed $735 $-1 #
edge $736 -1 $-1 $654 0 $737 3.0000000000000009 $503 $738 forward @7 unknown #
coedge $-1 -1 $-1 $725 $504 $507 $656 forward $652 $-1 #
coedge $-1 -1 $-1 $504 $725 $733 $739 reversed $652 $-1 #
loop $-1 -1 $-1 $-1 $651 $740 #
attrib_edge_convexity-kcp-attrib $-1 -1 $741 $-1 $505 1 #
vertex $-1 -1 $-1 $649 $742 #
straight-curve $-1 -1 $-1 -6.8700000000000001 -0.5 4.2999999999999998 0 0 1 I I #
edge $743 -1 $-1 $510 0 $727 0.5 $507 $744 forward @7 unknown #
face $745 -1 $-1 $513 $508 $11 $-1 $746 forward single #
convexity-sys-attrib $-1 -1 $-1 $509 $331 #
point $-1 -1 $-1 -6.8699999999999992 -0.5 6.3700000000000001 #
straight-curve $-1 -1 $-1 9.2699999999999996 0 6.3700000000000001 0 -1 0 I I #
model_id-kcp-attrib $-1 -1 $-1 $-1 $513 1 1021574883 1021574883 295501825 16 #
cone-surface $-1 -1 $-1 9.2699999999999996 -0.53713401610169997 3.8700000000000001 0 1 0 2.5 0 0 1 I I 0 1 2.5 forward I I I I #
attrib_edge_convexity-kcp-attrib $-1 -1 $747 $-1 $518 2 #
straight-curve $-1 -1 $-1 -4.8700000000000001 -0.5 -4.2999999999999998 0 1 0 I I #
convexity-sys-attrib $-1 -1 $-1 $519 $345 #
point $-1 -1 $-1 -4.8699999999999992 0 -4.2999999999999998 #
coedge $-1 -1 $-1 $525 $730 $748 $749 reversed $52 $-1 #
coedge $-1 -1 $-1 $750 $717 $525 $669 reversed $634 $-1 #
edge $751 -1 $-1 $752 0 $672 2.4999999999999991 $525 $753 forward @7 unknown #
coedge $-1 -1 $-1 $718 $526 $717 $754 forward $489 $-1 #
attrib_edge_convexity-kcp-attrib $-1 -1 $755 $-1 $527 1 #
vertex $-1 -1 $-1 $527 $756 #
straight-curve $-1 -1 $-1 -9.8699999999999992 -0.5 -3.0499999999999998 0 0 -1 I I #
edge $757 -1 $-1 $530 0 $722 0.5 $636 $758 forward @7 unknown #
convexity-sys-attrib $-1 -1 $-1 $529 $354 #
point $-1 -1 $-1 -9.8699999999999992 -0.5 -4.2999999999999998 #
straight-curve $-1 -1 $-1 11.77 -0.5 6.3700000000000001 -1 0 0 I I #
point $-1 -1 $-1 9.2699999999999996 -0.5 6.3700000000000001 #
ellipse-curve $-1 -1 $-1 9.2699999999999942 -0.5 3.8699999999999948 0 1 0 7.1054273576010019e-015 0 2.5000000000000053 1 I I #
straight-curve $-1 -1 $-1 11.77 0 -6.3700000000000001 -1 0 0 I I #
point $-1 -1 $-1 9.2699999999999996 0 -6.3700000000000001 #
ellipse-curve $-1 -1 $-1 9.2700000000000014 0 -3.870000000000001 0 -1 0 -1.7763568394002505e-015 0 -2.4999999999999991 1 I I #
coedge $-1 -1 $-1 $568 $563 $559 $684 forward $556 $-1 #
edge $759 -1 $-1 $565 -6.6600000000000001 $685 -1.6600000000000001 $559 $760 forward @7 unknown #
vertex $-1 -1 $-1 $572 $761 #
straight-curve $-1 -1 $-1 -5.8200000000000003 -0.25 -4.2999999999999989 0 0 -1 I I #
point $-1 -1 $-1 -5.8200000000000003 -0.25 -6.3699999999999992 #
convexity-sys-attrib $-1 -1 $-1 $-1 $564 #
straight-curve $-1 -1 $-1 -10.82 0 -4.3000000000000007 0 -1 0 I I #
point $-1 -1 $-1 -10.82 -0.25 -4.3000000000000007 #
convexity-sys-attrib $-1 -1 $-1 $-1 $572 #
straight-curve $-1 -1 $-1 -5.8200000000000003 0.125 -4.3000000000000007 0 1 0 I I #
straight-curve $-1 -1 $-1 -10.82 0.25 0 0 0 -1 I I #
point $-1 -1 $-1 -10.82 -0.25 -6.370000000000001 #
straight-curve $-1 -1 $-1 -10.82 0 -6.370000000000001 0 1 0 I I #
point $-1 -1 $-1 -10.82 0.25 -6.370000000000001 #
coedge $-1 -1 $-1 $604 $599 $595 $698 forward $592 $-1 #
edge $762 -1 $-1 $601 -6.1600000000000001 $699 -3.1600000000000001 $595 $763 forward @7 unknown #
vertex $-1 -1 $-1 $608 $764 #
straight-curve $-1 -1 $-1 -7.8200000000000003 0.25 4.3000000000000007 0 0 1 I I #
point $-1 -1 $-1 -7.8200000000000003 0.25 6.370000000000001 #
convexity-sys-attrib $-1 -1 $-1 $-1 $600 #
straight-curve $-1 -1 $-1 -10.82 0 4.3000000000000007 0 1 0 I I #
point $-1 -1 $-1 -10.82 0.25 4.3000000000000007 #
convexity-sys-attrib $-1 -1 $-1 $-1 $608 #
straight-curve $-1 -1 $-1 -7.8200000000000003 0.125 4.3000000000000007 0 -1 0 I I #
straight-curve $-1 -1 $-1 3.0499999999999998 -0.24999999999999806 -16.718335877018106 0 1.2246063538223773e-016 1 I I #
point $-1 -1 $-1 3.0499999999999998 -0.24999999999999908 -25.116671754036211 #
point $-1 -1 $-1 3.0499999999999989 -0.24999999999999878 -22.616671754036211 #
straight-curve $-1 -1 $-1 3.0499999999999998 -7.7782511042874329e-016 -22.616671754036211 0 1 -1.2246063538223773e-016 I I #
convexity-sys-attrib $-1 -1 $-1 $-1 $628 #
straight-curve $-1 -1 $-1 3.0499999999999998 0 -25.116671754036211 0 -1 0 I I #
model_id-kcp-attrib $-1 -1 $-1 $-1 $633 1 1021574883 1021574883 295501825 10 #
face $765 -1 $-1 $766 $767 $11 $-1 $768 reversed single #
loop $-1 -1 $-1 $-1 $769 $633 #
plane-surface $-1 -1 $-1 -7.3700000000000001 0 3.0499999999999998 1 0 0 0 0 -1 forward_v I I I I #
coedge $-1 -1 $-1 $668 $770 $670 $754 reversed $634 $-1 #
coedge $-1 -1 $-1 $636 $670 $638 $720 forward $489 $-1 #
coedge $-1 -1 $-1 $771 $638 $770 $772 reversed $110 $-1 #
edge $-1 -1 $-1 $773 0 $722 1.25 $638 $774 forward @7 unknown #
attrib_edge_convexity-kcp-attrib $-1 -1 $775 $-1 $639 1 #
vertex $-1 -1 $-1 $720 $776 #
straight-curve $-1 -1 $-1 -4.870000000000001 0 -4.2999999999999998 -1 0 0 I I #
coedge $-1 -1 $-1 $642 $777 $778 $779 reversed $110 $-1 #
coedge $-1 -1 $-1 $651 $650 $642 $726 reversed $652 $-1 #
edge $780 -1 $-1 $781 0 $727 2.0700000000000003 $642 $782 forward @7 unknown #
vertex $-1 -1 $-1 $644 $783 #
straight-curve $-1 -1 $-1 -6.870000000000001 0 6.3700000000000001 1 0 0 I I #
point $-1 -1 $-1 9.2699999999999996 0 6.3700000000000001 #
coedge $-1 -1 $-1 $667 $647 $784 $785 reversed $52 $-1 #
coedge $-1 -1 $-1 $786 $787 $647 $732 reversed $788 $-1 #
edge $789 -1 $-1 $737 0 $790 1.25 $647 $791 forward @7 unknown #
coedge $-1 -1 $-1 $778 $648 $651 $739 forward $735 $-1 #
coedge $-1 -1 $-1 $648 $778 $786 $792 reversed $735 $-1 #
loop $-1 -1 $-1 $-1 $734 $793 #
attrib_edge_convexity-kcp-attrib $-1 -1 $794 $-1 $649 1 #
vertex $-1 -1 $-1 $732 $795 #
straight-curve $-1 -1 $-1 -6.8700000000000001 -0.5 4.2999999999999998 -1 0 0 I I #
edge $796 -1 $-1 $654 0 $781 0.5 $651 $797 forward @7 unknown #
face $798 -1 $-1 $657 $652 $11 $-1 $799 reversed single #
convexity-sys-attrib $-1 -1 $-1 $653 $505 #
point $-1 -1 $-1 -6.8700000000000001 -0.5 4.2999999999999998 #
attrib_edge_convexity-kcp-attrib $-1 -1 $800 $-1 $656 1 #
straight-curve $-1 -1 $-1 -6.8700000000000001 -0.5 6.3700000000000001 0 1 0 I I #
model_id-kcp-attrib $-1 -1 $-1 $-1 $657 1 1021574883 1021574883 295501825 15 #
plane-surface $-1 -1 $-1 10 0 6.3700000000000001 0 0 1 -1 0 0 forward_v I I I I #
convexity-sys-attrib $-1 -1 $-1 $663 $518 #
coedge $-1 -1 $-1 $801 $769 $667 $749 forward $715 $-1 #
edge $802 -1 $-1 $752 0 $803 6.0999999999999996 $667 $804 forward @7 unknown #
coedge $-1 -1 $-1 $770 $668 $769 $805 forward $634 $-1 #
attrib_edge_convexity-kcp-attrib $-1 -1 $806 $-1 $669 1 #
vertex $-1 -1 $-1 $669 $807 #
straight-curve $-1 -1 $-1 -7.3700000000000001 -0.5 -3.0499999999999998 -1 0 0 I I #
edge $-1 -1 $-1 $672 0 $773 0.5 $717 $808 forward @7 unknown #
convexity-sys-attrib $-1 -1 $-1 $671 $527 #
point $-1 -1 $-1 -9.8699999999999992 -0.5 -3.0499999999999998 #
attrib_edge_convexity-kcp-attrib $-1 -1 $809 $-1 $674 1 #
straight-curve $-1 -1 $-1 -9.8699999999999992 -0.5 -4.2999999999999998 0 1 0 I I #
convexity-sys-attrib $-1 -1 $-1 $-1 $684 #
straight-curve $-1 -1 $-1 -4.1600000000000001 -0.25 -4.3000000000000007 1 0 0 I I #
point $-1 -1 $-1 -5.8200000000000003 -0.25 -4.2999999999999989 #
convexity-sys-attrib $-1 -1 $-1 $-1 $698 #
straight-curve $-1 -1 $-1 -4.6600000000000001 0.25 4.3000000000000007 1 0 0 I I #
point $-1 -1 $-1 -7.8200000000000003 0.25 4.3000000000000007 #
model_id-kcp-attrib $-1 -1 $-1 $-1 $714 1 1021574883 1021574883 295501825 11 #
face $810 -1 $-1 $793 $788 $11 $-1 $811 forward single #
loop $-1 -1 $-1 $-1 $812 $714 #
plane-surface $-1 -1 $-1 -9.8699999999999992 0 3.0499999999999998 0 0 1 1 0 0 forward_v I I I I #
coedge $-1 -1 $-1 $748 $813 $750 $805 reversed $715 $-1 #
coedge $-1 -1 $-1 $717 $750 $719 $772 forward $634 $-1 #
coedge $-1 -1 $-1 $814 $719 $813 $815 forward $110 $-1 #
edge $-1 -1 $-1 $816 0 $773 2.5 $719 $817 forward @7 unknown #
vertex $-1 -1 $-1 $772 $818 #
straight-curve $-1 -1 $-1 -9.8699999999999992 0 -3.0499999999999998 0 0 -1 I I #
convexity-sys-attrib $-1 -1 $-1 $721 $639 #
point $-1 -1 $-1 -9.870000000000001 0 -4.2999999999999998 #
coedge $-1 -1 $-1 $724 $814 $819 $820 reversed $110 $-1 #
coedge $-1 -1 $-1 $734 $733 $724 $779 forward $735 $-1 #
edge $821 -1 $-1 $781 -8.8817841970012523e-016 $822 3 $724 $823 forward @7 unknown #
attrib_edge_convexity-kcp-attrib $-1 -1 $824 $-1 $726 1 #
vertex $-1 -1 $-1 $726 $825 #
straight-curve $-1 -1 $-1 -6.870000000000001 0 4.2999999999999998 0 0 1 I I #
point $-1 -1 $-1 -6.8700000000000001 0 6.3700000000000001 #
coedge $-1 -1 $-1 $826 $812 $730 $785 forward $767 $-1 #
edge $827 -1 $-1 $803 0 $790 2.5 $730 $828 forward @7 unknown #
coedge $-1 -1 $-1 $819 $731 $734 $792 forward $788 $-1 #
coedge $-1 -1 $-1 $731 $819 $826 $829 reversed $788 $-1 #
loop $-1 -1 $-1 $-1 $819 $766 #
attrib_edge_convexity-kcp-attrib $-1 -1 $830 $-1 $732 1 #
vertex $-1 -1 $-1 $785 $831 #
straight-curve $-1 -1 $-1 -9.8699999999999992 -0.5 4.2999999999999998 0 0 -1 I I #
edge $832 -1 $-1 $737 0 $822 0.5 $734 $833 forward @7 unknown #
face $834 -1 $-1 $740 $735 $11 $-1 $835 reversed single #
convexity-sys-attrib $-1 -1 $-1 $736 $649 #
point $-1 -1 $-1 -9.870000000000001 -0.5 4.2999999999999998 #
attrib_edge_convexity-kcp-attrib $-1 -1 $836 $-1 $739 2 #
straight-curve $-1 -1 $-1 -6.8700000000000001 -0.5 4.2999999999999998 0 1 0 I I #
model_id-kcp-attrib $-1 -1 $-1 $-1 $740 1 1021574883 1021574883 295501825 14 #
plane-surface $-1 -1 $-1 -6.8700000000000001 0 6.3700000000000001 1 0 0 0 0 -1 forward_v I I I I #
convexity-sys-attrib $-1 -1 $-1 $743 $656 #
coedge $-1 -1 $-1 $813 $748 $812 $837 forward $715 $-1 #
attrib_edge_convexity-kcp-attrib $-1 -1 $838 $-1 $749 1 #
vertex $-1 -1 $-1 $749 $839 #
straight-curve $-1 -1 $-1 -7.3700000000000001 -0.5 -3.0499999999999998 0 0 1 I I #
edge $840 -1 $-1 $752 0 $816 0.5 $769 $841 forward @7 unknown #
convexity-sys-attrib $-1 -1 $-1 $751 $669 #
point $-1 -1 $-1 -7.3700000000000001 -0.5 -3.0499999999999998 #
straight-curve $-1 -1 $-1 -9.8699999999999992 -0.5 -3.0499999999999998 0 1 0 I I #
convexity-sys-attrib $-1 -1 $-1 $757 $674 #
model_id-kcp-attrib $-1 -1 $-1 $-1 $766 1 1021574883 1021574883 295501825 12 #
plane-surface $-1 -1 $-1 -9.8699999999999992 0 -6.3700000000000001 -1 0 0 0 -1 0 forward_v I I I I #
coedge $-1 -1 $-1 $784 $842 $801 $837 reversed $767 $-1 #
coedge $-1 -1 $-1 $769 $801 $771 $815 reversed $715 $-1 #
coedge $-1 -1 $-1 $777 $771 $842 $843 forward $110 $-1 #
edge $844 -1 $-1 $816 0 $845 6.0999999999999996 $771 $846 forward @7 unknown #
vertex $-1 -1 $-1 $815 $847 #
straight-curve $-1 -1 $-1 -7.370000000000001 0 -3.0499999999999998 -1 0 0 I I #
point $-1 -1 $-1 -9.870000000000001 0 -3.0499999999999998 #
coedge $-1 -1 $-1 $787 $786 $777 $820 forward $788 $-1 #
edge $-1 -1 $-1 $822 0 $848 1.25 $777 $849 forward @7 unknown #
attrib_edge_convexity-kcp-attrib $-1 -1 $850 $-1 $779 1 #
vertex $-1 -1 $-1 $779 $851 #
straight-curve $-1 -1 $-1 -6.870000000000001 0 4.2999999999999998 -1 0 0 I I #
convexity-sys-attrib $-1 -1 $-1 $780 $726 #
point $-1 -1 $-1 -6.8700000000000001 0 4.2999999999999998 #
coedge $-1 -1 $-1 $842 $784 $787 $829 forward $767 $-1 #
attrib_edge_convexity-kcp-attrib $-1 -1 $852 $-1 $785 1 #
straight-curve $-1 -1 $-1 -7.3699999999999992 -0.5 3.0499999999999998 -1 0 0 I I #
edge $-1 -1 $-1 $790 0 $848 0.5 $787 $853 forward @7 unknown #
convexity-sys-attrib $-1 -1 $-1 $789 $732 #
point $-1 -1 $-1 -9.8699999999999992 -0.5 3.0499999999999998 #
attrib_edge_convexity-kcp-attrib $-1 -1 $854 $-1 $792 1 #
straight-curve $-1 -1 $-1 -9.8699999999999992 -0.5 4.2999999999999998 0 1 0 I I #
model_id-kcp-attrib $-1 -1 $-1 $-1 $793 1 1021574883 1021574883 295501825 13 #
plane-surface $-1 -1 $-1 -6.8700000000000001 0 4.2999999999999998 0 0 -1 -1 0 0 forward_v I I I I #
convexity-sys-attrib $-1 -1 $-1 $796 $739 #
edge $855 -1 $-1 $803 0 $845 0.5 $812 $856 forward @7 unknown #
convexity-sys-attrib $-1 -1 $-1 $802 $749 #
point $-1 -1 $-1 -7.3699999999999992 -0.5 3.0499999999999998 #
attrib_edge_convexity-kcp-attrib $-1 -1 $857 $-1 $805 2 #
straight-curve $-1 -1 $-1 -7.3700000000000001 -0.5 -3.0499999999999998 0 1 0 I I #
coedge $-1 -1 $-1 $812 $826 $814 $843 reversed $767 $-1 #
edge $-1 -1 $-1 $845 -8.8817841970012523e-016 $848 2.4999999999999982 $814 $858 forward @7 unknown #
attrib_edge_convexity-kcp-attrib $-1 -1 $859 $-1 $815 1 #
vertex $-1 -1 $-1 $843 $860 #
straight-curve $-1 -1 $-1 -7.370000000000001 0 -3.0499999999999998 0 0 1 I I #
point $-1 -1 $-1 -7.370000000000001 0 -3.0499999999999998 #
vertex $-1 -1 $-1 $820 $861 #
straight-curve $-1 -1 $-1 -9.8699999999999992 0 4.2999999999999998 0 0 -1 I I #
convexity-sys-attrib $-1 -1 $-1 $821 $779 #
point $-1 -1 $-1 -9.870000000000001 0 4.2999999999999998 #
convexity-sys-attrib $-1 -1 $-1 $827 $785 #
straight-curve $-1 -1 $-1 -9.8699999999999992 -0.5 3.0499999999999998 0 1 0 I I #
convexity-sys-attrib $-1 -1 $-1 $832 $792 #
attrib_edge_convexity-kcp-attrib $-1 -1 $862 $-1 $837 2 #
straight-curve $-1 -1 $-1 -7.3700000000000001 -0.5 3.0499999999999998 0 1 0 I I #
convexity-sys-attrib $-1 -1 $-1 $840 $805 #
straight-curve $-1 -1 $-1 -7.370000000000001 0 3.0499999999999998 -1 0 0 I I #
convexity-sys-attrib $-1 -1 $-1 $844 $815 #
point $-1 -1 $-1 -7.3700000000000001 0 3.0499999999999998 #
point $-1 -1 $-1 -9.8699999999999992 0 3.0499999999999998 #
convexity-sys-attrib $-1 -1 $-1 $855 $837 #
End-of-ACIS-data 