600 0 1 0           
104 GICL Pro/E ACIS Translator - Source: f:/data5/repository/PTC/V18/bboxrev2/boombox/m_plate_step.prt - 6 0 13 ACIS 6.0.3 NT 24 Thu Apr 04 13:42:00 2002 
1 9.9999999999999995e-007 1e-010 
body $-1 $1 $-1 $-1 #
lump $-1 $-1 $2 $0 #
shell $-1 $-1 $-1 $3 $-1 $1 #
face $-1 $4 $5 $2 $-1 $6 reversed single #
face $-1 $7 $8 $2 $-1 $9 forward single #
loop $-1 $-1 $10 $3 #
plane-surface $-1 -10 0 -6.3700000000000001 0 0 1 -1 0 0 forward_v I I I I #
face $-1 $11 $12 $2 $-1 $13 forward single #
loop $-1 $-1 $14 $4 #
plane-surface $-1 -9.8699999999999992 -0.5 -6.3700000000000001 0 -1 0 1 0 0 forward_v I I I I #
coedge $-1 $15 $16 $17 $18 forward $5 $-1 #
face $-1 $19 $20 $2 $-1 $21 forward single #
loop $-1 $-1 $22 $7 #
plane-surface $-1 11.77 -0.5 -6.3700000000000001 1 0 0 0 1 0 forward_v I I I I #
coedge $-1 $23 $24 $25 $26 reversed $8 $-1 #
coedge $-1 $27 $10 $28 $29 forward $5 $-1 #
coedge $-1 $10 $27 $30 $31 reversed $5 $-1 #
coedge $-1 $24 $32 $10 $18 reversed $8 $-1 #
edge $-1 $33 3.5527136788005009e-015 $34 14.140000000000004 $10 $35 forward 7 unknown #
face $-1 $36 $37 $2 $-1 $38 reversed single #
loop $-1 $-1 $39 $11 #
plane-surface $-1 11.77 0 -6.3700000000000001 0 1 0 -1 0 0 forward_v I I I I #
coedge $-1 $40 $41 $42 $43 reversed $12 $-1 #
coedge $-1 $44 $14 $45 $46 reversed $8 $-1 #
coedge $-1 $14 $17 $47 $48 reversed $8 $-1 #
coedge $-1 $41 $40 $14 $26 forward $12 $-1 #
edge $-1 $49 0 $50 7.7400000000000002 $14 $51 forward 7 unknown #
coedge $-1 $16 $15 $39 $52 forward $5 $-1 #
coedge $-1 $53 $54 $15 $29 reversed $37 $-1 #
edge $-1 $34 0 $55 0.5 $15 $56 forward 7 unknown #
coedge $-1 $57 $47 $16 $31 forward $58 $-1 #
edge $-1 $33 0 $59 0.5 $16 $60 forward 7 unknown #
coedge $-1 $17 $61 $53 $62 forward $8 $-1 #
vertex $-1 $31 $63 #
vertex $-1 $29 $64 #
straight-curve $-1 9.2700000000000031 -0.5 -6.3700000000000001 -1 0 0 I I #
face $-1 $65 $66 $2 $-1 $67 reversed single #
loop $-1 $-1 $53 $19 #
plane-surface $-1 -4.8700000000000001 0 -4.2999999999999998 1 0 0 0 0 -1 forward_v I I I I #
coedge $-1 $68 $69 $27 $52 reversed $20 $-1 #
coedge $-1 $25 $22 $70 $71 forward $12 $-1 #
coedge $-1 $22 $25 $72 $73 forward $12 $-1 #
coedge $-1 $69 $74 $22 $43 forward $20 $-1 #
edge $-1 $75 0 $76 7.7400000000000002 $42 $77 forward 7 unknown #
coedge $-1 $78 $23 $79 $80 forward $8 $-1 #
coedge $-1 $70 $81 $23 $46 forward $82 $-1 #
edge $-1 $83 -7.1054273576009865e-016 $49 1.5707963267948917 $23 $84 forward 7 unknown #
coedge $-1 $30 $72 $24 $48 forward $58 $-1 #
edge $-1 $50 0 $33 1.5707963267948977 $47 $85 forward 7 unknown #
vertex $-1 $46 $86 #
vertex $-1 $48 $87 #
straight-curve $-1 11.77 -0.5 3.8700000000000001 0 0 -1 I I #
edge $-1 $55 8.8817841970012523e-016 $59 14.140000000000001 $27 $88 forward 7 unknown #
coedge $-1 $89 $28 $32 $62 reversed $37 $-1 #
coedge $-1 $28 $89 $68 $90 forward $37 $-1 #
vertex $-1 $52 $91 #
straight-curve $-1 -4.8700000000000001 -0.5 -6.3700000000000001 0 1 0 I I #
coedge $-1 $72 $30 $69 $92 forward $58 $-1 #
loop $-1 $-1 $57 $93 #
vertex $-1 $31 $94 #
straight-curve $-1 9.2699999999999996 -0.5 -6.3700000000000001 0 1 0 I I #
coedge $-1 $32 $95 $96 $97 reversed $8 $-1 #
edge $-1 $98 0 $34 2.0700000000000003 $32 $99 forward 7 unknown #
point $-1 9.2699999999999996 -0.5 -6.3700000000000001 #
point $-1 -4.8700000000000001 -0.5 -6.3700000000000001 #
face $-1 $100 $101 $2 $-1 $102 forward single #
loop $-1 $-1 $103 $36 #
plane-surface $-1 -9.8699999999999992 0 -4.2999999999999998 0 0 1 1 0 0 forward_v I I I I #
coedge $-1 $104 $39 $54 $90 reversed $20 $-1 #
coedge $-1 $39 $42 $57 $92 reversed $20 $-1 #
coedge $-1 $105 $45 $40 $71 reversed $82 $-1 #
edge $-1 $75 -2.2204460492503131e-016 $49 0.49999999999999978 $40 $106 forward 7 unknown #
coedge $-1 $47 $57 $41 $73 reversed $58 $-1 #
edge $-1 $50 -1.1102230246251565e-016 $76 0.49999999999999989 $72 $107 forward 7 unknown #
coedge $-1 $42 $108 $105 $109 reversed $20 $-1 #
vertex $-1 $43 $110 #
vertex $-1 $73 $111 #
straight-curve $-1 11.77 0 3.8700000000000001 0 0 -1 I I #
coedge $-1 $112 $44 $113 $114 reversed $8 $-1 #
coedge $-1 $115 $116 $44 $80 reversed $117 $-1 #
edge $-1 $83 1.7763568394002505e-015 $118 16.140000000000001 $44 $119 forward 7 unknown #
coedge $-1 $45 $105 $115 $120 forward $82 $-1 #
loop $-1 $-1 $45 $121 #
vertex $-1 $80 $122 #
ellipse-curve $-1 9.2699999999999942 -0.5 3.8699999999999948 0 1 0 7.1054273576010019e-015 0 2.5000000000000053 1 I I #
ellipse-curve $-1 9.2700000000000014 -0.5 -3.870000000000001 0 1 0 2.5 0 8.8817841970012523e-016 1 I I #
point $-1 11.770000000000001 -0.5 3.8700000000000001 #
point $-1 11.770000000000001 -0.5 -3.8700000000000001 #
straight-curve $-1 -4.870000000000001 0 -6.3700000000000001 1 0 0 I I #
coedge $-1 $54 $53 $103 $123 forward $37 $-1 #
edge $-1 $124 0 $55 2.0700000000000003 $54 $125 forward 7 unknown #
point $-1 -4.8700000000000001 0 -6.3700000000000001 #
edge $-1 $59 0 $76 1.5707963267948977 $57 $126 forward 7 unknown #
face $-1 $-1 $58 $2 $-1 $127 forward single #
point $-1 9.2699999999999996 0 -6.3700000000000001 #
coedge $-1 $61 $128 $129 $130 forward $8 $-1 #
coedge $-1 $131 $103 $61 $97 forward $66 $-1 #
edge $-1 $98 8.8817841970012523e-016 $132 5 $61 $133 forward 7 unknown #
vertex $-1 $62 $134 #
straight-curve $-1 -4.8700000000000001 -0.5 -4.2999999999999998 0 0 -1 I I #
face $-1 $135 $136 $2 $-1 $137 reversed single #
loop $-1 $-1 $138 $65 #
plane-surface $-1 -9.8699999999999992 0 -6.3700000000000001 -1 0 0 0 -1 0 forward_v I I I I #
coedge $-1 $96 $139 $89 $123 reversed $66 $-1 #
coedge $-1 $140 $68 $139 $141 forward $20 $-1 #
coedge $-1 $81 $70 $74 $109 forward $82 $-1 #
straight-curve $-1 11.77 -2.2204460492503131e-016 3.8700000000000001 0 -1 0 I I #
straight-curve $-1 11.77 -0.49999999999999989 -3.8700000000000006 0 1 0 I I #
coedge $-1 $74 $142 $143 $144 forward $20 $-1 #
edge $-1 $75 0 $145 1.5707963267948972 $74 $146 forward 7 unknown #
point $-1 11.77 0 3.8700000000000001 #
point $-1 11.77 0 -3.8700000000000001 #
coedge $-1 $147 $78 $148 $149 forward $8 $-1 #
coedge $-1 $150 $151 $78 $114 forward $152 $-1 #
edge $-1 $153 0 $118 2.0700000000000003 $78 $154 forward 7 unknown #
coedge $-1 $143 $79 $81 $120 reversed $117 $-1 #
coedge $-1 $79 $143 $150 $155 reversed $117 $-1 #
loop $-1 $-1 $143 $156 #
vertex $-1 $114 $157 #
straight-curve $-1 9.2700000000000014 -0.5 6.3700000000000001 -1 0 0 I I #
edge $-1 $145 0 $83 0.5 $81 $158 forward 7 unknown #
face $-1 $93 $82 $2 $-1 $159 forward single #
point $-1 9.2699999999999996 -0.5 6.3700000000000001 #
edge $-1 $98 0 $124 0.5 $89 $160 forward 7 unknown #
vertex $-1 $90 $161 #
straight-curve $-1 -4.8700000000000001 0 -4.2999999999999998 0 0 -1 I I #
ellipse-curve $-1 9.2700000000000014 0 -3.870000000000001 0 -1 0 -1.7763568394002505e-015 0 -2.4999999999999991 1 I I #
cone-surface $-1 9.2699999999999996 0.037875430594129997 -3.8700000000000001 0 -1 0 2.5 0 0 1 I I 0 1 2.5 forward I I I I #
coedge $-1 $95 $162 $163 $164 forward $8 $-1 #
coedge $-1 $165 $138 $95 $130 reversed $101 $-1 #
edge $-1 $166 0 $132 1.25 $95 $167 forward 7 unknown #
coedge $-1 $139 $96 $138 $168 forward $66 $-1 #
vertex $-1 $97 $169 #
straight-curve $-1 -4.8699999999999992 -0.5 -4.2999999999999998 -1 0 0 I I #
point $-1 -4.8700000000000001 -0.5 -4.2999999999999998 #
face $-1 $170 $171 $2 $-1 $172 reversed single #
loop $-1 $-1 $173 $100 #
plane-surface $-1 -7.3700000000000001 0 -3.0499999999999998 0 0 -1 -1 0 0 forward_v I I I I #
coedge $-1 $129 $174 $131 $168 reversed $101 $-1 #
coedge $-1 $103 $131 $104 $141 reversed $66 $-1 #
coedge $-1 $175 $104 $174 $176 reversed $20 $-1 #
edge $-1 $124 -1.7763568394002505e-015 $177 5 $104 $178 forward 7 unknown #
coedge $-1 $108 $179 $180 $181 forward $20 $-1 #
coedge $-1 $116 $115 $108 $144 reversed $117 $-1 #
edge $-1 $182 8.8817841970012523e-016 $145 16.140000000000001 $108 $183 forward 7 unknown #
vertex $-1 $109 $184 #
ellipse-curve $-1 9.2700000000000014 0 3.8700000000000001 0 -1 0 2.4999999999999982 0 0 1 I I #
coedge $-1 $185 $112 $186 $187 forward $8 $-1 #
coedge $-1 $188 $189 $112 $149 reversed $190 $-1 #
edge $-1 $153 0 $191 3.0000000000000009 $112 $192 forward 7 unknown #
coedge $-1 $180 $113 $116 $155 forward $152 $-1 #
coedge $-1 $113 $180 $188 $193 reversed $152 $-1 #
loop $-1 $-1 $151 $194 #
vertex $-1 $149 $195 #
straight-curve $-1 -6.8700000000000001 -0.5 4.2999999999999998 0 0 1 I I #
edge $-1 $118 0 $182 0.5 $116 $196 forward 7 unknown #
face $-1 $121 $117 $2 $-1 $197 forward single #
point $-1 -6.8699999999999992 -0.5 6.3700000000000001 #
straight-curve $-1 9.2699999999999996 0 6.3700000000000001 0 -1 0 I I #
cone-surface $-1 9.2699999999999996 -0.53713401610169997 3.8700000000000001 0 1 0 2.5 0 0 1 I I 0 1 2.5 forward I I I I #
straight-curve $-1 -4.8700000000000001 -0.5 -4.2999999999999998 0 1 0 I I #
point $-1 -4.8699999999999992 0 -4.2999999999999998 #
coedge $-1 $128 $185 $198 $199 reversed $8 $-1 #
coedge $-1 $200 $173 $128 $164 reversed $136 $-1 #
edge $-1 $201 0 $166 2.4999999999999991 $128 $202 forward 7 unknown #
coedge $-1 $174 $129 $173 $203 forward $101 $-1 #
vertex $-1 $130 $204 #
straight-curve $-1 -9.8699999999999992 -0.5 -3.0499999999999998 0 0 -1 I I #
edge $-1 $132 0 $177 0.5 $138 $205 forward 7 unknown #
point $-1 -9.8699999999999992 -0.5 -4.2999999999999998 #
face $-1 $206 $207 $2 $-1 $208 reversed single #
loop $-1 $-1 $209 $135 #
plane-surface $-1 -7.3700000000000001 0 3.0499999999999998 1 0 0 0 0 -1 forward_v I I I I #
coedge $-1 $163 $210 $165 $203 reversed $136 $-1 #
coedge $-1 $138 $165 $140 $176 forward $101 $-1 #
coedge $-1 $211 $140 $210 $212 reversed $20 $-1 #
edge $-1 $213 0 $177 1.25 $140 $214 forward 7 unknown #
vertex $-1 $176 $215 #
straight-curve $-1 -4.870000000000001 0 -4.2999999999999998 -1 0 0 I I #
coedge $-1 $142 $216 $217 $218 reversed $20 $-1 #
coedge $-1 $151 $150 $142 $181 reversed $152 $-1 #
edge $-1 $219 0 $182 2.0700000000000003 $142 $220 forward 7 unknown #
vertex $-1 $144 $221 #
straight-curve $-1 -6.870000000000001 0 6.3700000000000001 1 0 0 I I #
point $-1 9.2699999999999996 0 6.3700000000000001 #
coedge $-1 $162 $147 $222 $223 reversed $8 $-1 #
coedge $-1 $224 $225 $147 $187 reversed $226 $-1 #
edge $-1 $191 0 $227 1.25 $147 $228 forward 7 unknown #
coedge $-1 $217 $148 $151 $193 forward $190 $-1 #
coedge $-1 $148 $217 $224 $229 reversed $190 $-1 #
loop $-1 $-1 $189 $230 #
vertex $-1 $187 $231 #
straight-curve $-1 -6.8700000000000001 -0.5 4.2999999999999998 -1 0 0 I I #
edge $-1 $153 0 $219 0.5 $151 $232 forward 7 unknown #
face $-1 $156 $152 $2 $-1 $233 reversed single #
point $-1 -6.8700000000000001 -0.5 4.2999999999999998 #
straight-curve $-1 -6.8700000000000001 -0.5 6.3700000000000001 0 1 0 I I #
plane-surface $-1 10 0 6.3700000000000001 0 0 1 -1 0 0 forward_v I I I I #
coedge $-1 $234 $209 $162 $199 forward $171 $-1 #
edge $-1 $201 0 $235 6.0999999999999996 $162 $236 forward 7 unknown #
coedge $-1 $210 $163 $209 $237 forward $136 $-1 #
vertex $-1 $164 $238 #
straight-curve $-1 -7.3700000000000001 -0.5 -3.0499999999999998 -1 0 0 I I #
edge $-1 $166 0 $213 0.5 $173 $239 forward 7 unknown #
point $-1 -9.8699999999999992 -0.5 -3.0499999999999998 #
straight-curve $-1 -9.8699999999999992 -0.5 -4.2999999999999998 0 1 0 I I #
face $-1 $230 $226 $2 $-1 $240 forward single #
loop $-1 $-1 $241 $170 #
plane-surface $-1 -9.8699999999999992 0 3.0499999999999998 0 0 1 1 0 0 forward_v I I I I #
coedge $-1 $198 $242 $200 $237 reversed $171 $-1 #
coedge $-1 $173 $200 $175 $212 forward $136 $-1 #
coedge $-1 $243 $175 $242 $244 forward $20 $-1 #
edge $-1 $245 0 $213 2.5 $175 $246 forward 7 unknown #
vertex $-1 $212 $247 #
straight-curve $-1 -9.8699999999999992 0 -3.0499999999999998 0 0 -1 I I #
point $-1 -9.870000000000001 0 -4.2999999999999998 #
coedge $-1 $179 $243 $248 $249 reversed $20 $-1 #
coedge $-1 $189 $188 $179 $218 forward $190 $-1 #
edge $-1 $219 -8.8817841970012523e-016 $250 3 $179 $251 forward 7 unknown #
vertex $-1 $181 $252 #
straight-curve $-1 -6.870000000000001 0 4.2999999999999998 0 0 1 I I #
point $-1 -6.8700000000000001 0 6.3700000000000001 #
coedge $-1 $253 $241 $185 $223 forward $207 $-1 #
edge $-1 $235 0 $227 2.5 $185 $254 forward 7 unknown #
coedge $-1 $248 $186 $189 $229 forward $226 $-1 #
coedge $-1 $186 $248 $253 $255 reversed $226 $-1 #
loop $-1 $-1 $248 $206 #
vertex $-1 $223 $256 #
straight-curve $-1 -9.8699999999999992 -0.5 4.2999999999999998 0 0 -1 I I #
edge $-1 $191 0 $250 0.5 $189 $257 forward 7 unknown #
face $-1 $194 $190 $2 $-1 $258 reversed single #
point $-1 -9.870000000000001 -0.5 4.2999999999999998 #
straight-curve $-1 -6.8700000000000001 -0.5 4.2999999999999998 0 1 0 I I #
plane-surface $-1 -6.8700000000000001 0 6.3700000000000001 1 0 0 0 0 -1 forward_v I I I I #
coedge $-1 $242 $198 $241 $259 forward $171 $-1 #
vertex $-1 $199 $260 #
straight-curve $-1 -7.3700000000000001 -0.5 -3.0499999999999998 0 0 1 I I #
edge $-1 $201 0 $245 0.5 $209 $261 forward 7 unknown #
point $-1 -7.3700000000000001 -0.5 -3.0499999999999998 #
straight-curve $-1 -9.8699999999999992 -0.5 -3.0499999999999998 0 1 0 I I #
plane-surface $-1 -9.8699999999999992 0 -6.3700000000000001 -1 0 0 0 -1 0 forward_v I I I I #
coedge $-1 $222 $262 $234 $259 reversed $207 $-1 #
coedge $-1 $209 $234 $211 $244 reversed $171 $-1 #
coedge $-1 $216 $211 $262 $263 forward $20 $-1 #
edge $-1 $245 0 $264 6.0999999999999996 $211 $265 forward 7 unknown #
vertex $-1 $244 $266 #
straight-curve $-1 -7.370000000000001 0 -3.0499999999999998 -1 0 0 I I #
point $-1 -9.870000000000001 0 -3.0499999999999998 #
coedge $-1 $225 $224 $216 $249 forward $226 $-1 #
edge $-1 $250 0 $267 1.25 $216 $268 forward 7 unknown #
vertex $-1 $218 $269 #
straight-curve $-1 -6.870000000000001 0 4.2999999999999998 -1 0 0 I I #
point $-1 -6.8700000000000001 0 4.2999999999999998 #
coedge $-1 $262 $222 $225 $255 forward $207 $-1 #
straight-curve $-1 -7.3699999999999992 -0.5 3.0499999999999998 -1 0 0 I I #
edge $-1 $227 0 $267 0.5 $225 $270 forward 7 unknown #
point $-1 -9.8699999999999992 -0.5 3.0499999999999998 #
straight-curve $-1 -9.8699999999999992 -0.5 4.2999999999999998 0 1 0 I I #
plane-surface $-1 -6.8700000000000001 0 4.2999999999999998 0 0 -1 -1 0 0 forward_v I I I I #
edge $-1 $235 0 $264 0.5 $241 $271 forward 7 unknown #
point $-1 -7.3699999999999992 -0.5 3.0499999999999998 #
straight-curve $-1 -7.3700000000000001 -0.5 -3.0499999999999998 0 1 0 I I #
coedge $-1 $241 $253 $243 $263 reversed $207 $-1 #
edge $-1 $264 -8.8817841970012523e-016 $267 2.4999999999999982 $243 $272 forward 7 unknown #
vertex $-1 $263 $273 #
straight-curve $-1 -7.370000000000001 0 -3.0499999999999998 0 0 1 I I #
point $-1 -7.370000000000001 0 -3.0499999999999998 #
vertex $-1 $249 $274 #
straight-curve $-1 -9.8699999999999992 0 4.2999999999999998 0 0 -1 I I #
point $-1 -9.870000000000001 0 4.2999999999999998 #
straight-curve $-1 -9.8699999999999992 -0.5 3.0499999999999998 0 1 0 I I #
straight-curve $-1 -7.3700000000000001 -0.5 3.0499999999999998 0 1 0 I I #
straight-curve $-1 -7.370000000000001 0 3.0499999999999998 -1 0 0 I I #
point $-1 -7.3700000000000001 0 3.0499999999999998 #
point $-1 -9.8699999999999992 0 3.0499999999999998 #
End-of-ACIS-data 