700 0 2 0           
24 FBMach with ACIS - 7.0.3 13 ACIS 7.0.3 NT 24 Thu May 16 11:14:43 2002 
1 9.9999999999999995e-007 1e-010 
body $2 -1 $-1 $3 $-1 $4 #
bdycol-kcp $-1 -1 1 6 $5 $6 $7 $8 $9 $10 #
model_id-kcp-attrib $-1 -1 $-1 $-1 $0 1 1021562082 1021562082 -867958783 1 #
lump $-1 -1 $-1 $-1 $11 $0 #
transform $-1 -1 1 0 0 0 1 0 0 0 1 0 0 0 1 rotate no_reflect no_shear #
body $12 -1 $-1 $13 $-1 $14 #
body $15 -1 $-1 $16 $-1 $-1 #
body $17 -1 $-1 $18 $-1 $19 #
body $20 -1 $-1 $21 $-1 $-1 #
body $22 -1 $-1 $23 $-1 $24 #
body $25 -1 $-1 $26 $-1 $27 #
shell $-1 -1 $-1 $-1 $-1 $28 $-1 $3 #
model_id-kcp-attrib $-1 -1 $-1 $-1 $5 1 1021562082 1021562082 -867958782 1 #
lump $-1 -1 $-1 $-1 $29 $5 #
transform $-1 -1 1 0 0 0 1 0 0 0 1 0.95000000000000018 -0.25 -8.8817841970012523e-016 1 no_rotate no_reflect no_shear #
rgb_color-st-attrib $-1 -1 $30 $-1 $6 0.5 1 1 #
lump $-1 -1 $-1 $-1 $31 $6 #
rgb_color-st-attrib $-1 -1 $32 $-1 $7 1 0.5 1 #
lump $-1 -1 $-1 $-1 $33 $7 #
transform $-1 -1 1 0 0 0 1 0 0 0 1 0.95000000000000018 -0.25 -8.8817841970012523e-016 1 no_rotate no_reflect no_shear #
rgb_color-st-attrib $-1 -1 $34 $-1 $8 0.5 1 1 #
lump $-1 -1 $-1 $-1 $35 $8 #
rgb_color-st-attrib $-1 -1 $36 $-1 $9 1 0.5 1 #
lump $-1 -1 $-1 $-1 $37 $9 #
transform $-1 -1 1 0 0 0 1 0 0 0 1 0.95000000000000018 -0.25 -8.8817841970012523e-016 1 no_rotate no_reflect no_shear #
rgb_color-st-attrib $-1 -1 $38 $-1 $10 1 0 0 #
lump $-1 -1 $-1 $-1 $39 $10 #
transform $-1 -1 3.8285889215894375e-016 -4.6885143195523885e-032 -1 -1.2246063538223773e-016 -1 0 -1 1.2246063538223773e-016 -3.8285889215894375e-016 -32.486671754036209 -0.24999999999999603 -9.7732758985811777e-015 1 rotate no_reflect no_shear #
face $40 -1 $-1 $41 $42 $11 $-1 $43 reversed single #
shell $-1 -1 $-1 $-1 $-1 $44 $-1 $13 #
model_id-kcp-attrib $-1 -1 $-1 $15 $6 1 1021562082 1021562083 -869335037 1 #
shell $-1 -1 $-1 $-1 $-1 $45 $-1 $16 #
model_id-kcp-attrib $-1 -1 $-1 $17 $7 1 1021562082 1021562083 -868417530 1 #
shell $-1 -1 $-1 $-1 $-1 $46 $-1 $18 #
model_id-kcp-attrib $-1 -1 $-1 $20 $8 1 1021562082 1021562083 -868024316 1 #
shell $-1 -1 $-1 $-1 $-1 $47 $-1 $21 #
model_id-kcp-attrib $-1 -1 $-1 $22 $9 1 1021562082 1021562083 -862519289 1 #
shell $-1 -1 $-1 $-1 $-1 $48 $-1 $23 #
model_id-kcp-attrib $-1 -1 $-1 $25 $10 1 1021562082 1021562083 -860159995 1 #
shell $-1 -1 $-1 $-1 $-1 $49 $-1 $26 #
model_id-kcp-attrib $-1 -1 $-1 $-1 $28 1 1021562082 1021562082 -867958783 2 #
face $50 -1 $-1 $51 $52 $11 $-1 $53 forward single #
loop $-1 -1 $-1 $-1 $54 $28 #
plane-surface $-1 -1 $-1 -10 0 -6.3700000000000001 0 0 1 -1 0 0 forward_v I I I I #
face $55 -1 $-1 $56 $57 $29 $-1 $58 forward single #
face $-1 -1 $-1 $59 $60 $31 $-1 $61 forward single #
face $-1 -1 $-1 $62 $63 $33 $-1 $64 forward single #
face $-1 -1 $-1 $65 $66 $35 $-1 $67 forward single #
face $-1 -1 $-1 $68 $69 $37 $-1 $70 forward single #
face $-1 -1 $-1 $71 $72 $39 $-1 $73 reversed single #
model_id-kcp-attrib $-1 -1 $-1 $-1 $41 1 1021562082 1021562082 -867958783 3 #
face $74 -1 $-1 $75 $76 $11 $-1 $77 forward single #
loop $-1 -1 $-1 $-1 $78 $41 #
plane-surface $-1 -1 $-1 -9.8699999999999992 -0.5 -6.3700000000000001 0 -1 0 1 0 0 forward_v I I I I #
coedge $-1 -1 $-1 $79 $80 $81 $82 reversed $42 $-1 #
model_id-kcp-attrib $-1 -1 $-1 $-1 $44 1 1021562082 1021562082 -867958782 8 #
face $83 -1 $-1 $84 $85 $29 $-1 $86 reversed single #
loop $-1 -1 $-1 $-1 $87 $44 #
plane-surface $-1 -1 $-1 0 0 6.370000000000001 0 0 1 1 0 0 forward_v I I I I #
face $-1 -1 $-1 $88 $89 $31 $-1 $90 forward single #
loop $-1 -1 $-1 $-1 $91 $45 #
plane-surface $-1 -1 $-1 11.77 -0.5 3.8700000000000001 1 0 0 0 0 -1 forward_v I I I I #
face $-1 -1 $-1 $92 $93 $33 $-1 $94 forward single #
loop $-1 -1 $-1 $-1 $95 $46 #
plane-surface $-1 -1 $-1 -5.8200000000000012 0.25 -4.2999999999999989 0 1 0 0 0 1 forward_v I I I I #
face $-1 -1 $-1 $96 $97 $35 $-1 $98 forward single #
loop $-1 -1 $-1 $-1 $99 $47 #
plane-surface $-1 -1 $-1 11.77 0 -3.8700000000000001 1 0 0 0 0 -1 forward_v I I I I #
face $-1 -1 $-1 $100 $101 $37 $-1 $102 forward single #
loop $-1 -1 $-1 $-1 $103 $48 #
plane-surface $-1 -1 $-1 -7.8200000000000012 -0.25 4.3000000000000007 0 -1 0 0 0 -1 forward_v I I I I #
face $-1 -1 $-1 $104 $105 $39 $-1 $106 reversed single #
loop $-1 -1 $-1 $-1 $107 $49 #
plane-surface $-1 -1 $-1 3.9164296263514975e-015 0.24999999999999989 -33.436671754036212 -4.6885143195523885e-032 -1 1.2246063538223773e-016 -1 0 -3.8285889215894375e-016 forward_v I I I I #
model_id-kcp-attrib $-1 -1 $-1 $-1 $51 1 1021562082 1021562082 -867958783 4 #
face $108 -1 $-1 $109 $110 $11 $-1 $111 forward single #
loop $-1 -1 $-1 $-1 $112 $51 #
plane-surface $-1 -1 $-1 11.77 -0.5 -6.3700000000000001 1 0 0 0 1 0 forward_v I I I I #
coedge $-1 -1 $-1 $113 $114 $115 $116 forward $52 $-1 #
coedge $-1 -1 $-1 $117 $54 $118 $119 reversed $42 $-1 #
coedge $-1 -1 $-1 $54 $117 $120 $121 forward $42 $-1 #
coedge $-1 -1 $-1 $114 $122 $54 $82 forward $52 $-1 #
edge $123 -1 $-1 $124 0 $125 14.140000000000001 $54 $126 forward @7 unknown #
model_id-kcp-attrib $-1 -1 $-1 $-1 $56 1 1021562082 1021562082 -867958782 2 #
face $127 -1 $-1 $128 $129 $29 $-1 $130 reversed single #
loop $-1 -1 $-1 $-1 $131 $56 #
plane-surface $-1 -1 $-1 0 0 -6.370000000000001 0 0 1 1 0 0 forward_v I I I I #
coedge $-1 -1 $-1 $132 $133 $134 $135 forward $57 $-1 #
face $-1 -1 $-1 $136 $137 $31 $-1 $138 forward single #
loop $-1 -1 $-1 $-1 $139 $59 #
plane-surface $-1 -1 $-1 11.77 -0.5 6.3700000000000001 0 0 1 1 0 0 forward_v I I I I #
coedge $-1 -1 $-1 $140 $141 $142 $143 forward $60 $-1 #
face $-1 -1 $-1 $144 $145 $33 $-1 $146 forward single #
loop $-1 -1 $-1 $-1 $147 $62 #
plane-surface $-1 -1 $-1 -10.82 0.25 -4.3000000000000007 -1 0 0 0 0 1 forward_v I I I I #
coedge $-1 -1 $-1 $148 $149 $150 $151 forward $63 $-1 #
face $-1 -1 $-1 $152 $153 $35 $-1 $154 forward single #
loop $-1 -1 $-1 $-1 $155 $65 #
plane-surface $-1 -1 $-1 11.77 0 -6.3700000000000001 0 0 -1 -1 0 0 forward_v I I I I #
coedge $-1 -1 $-1 $156 $157 $158 $159 forward $66 $-1 #
face $-1 -1 $-1 $160 $161 $37 $-1 $162 forward single #
loop $-1 -1 $-1 $-1 $163 $68 #
plane-surface $-1 -1 $-1 -10.82 -0.25 4.3000000000000007 -1 0 0 0 0 1 forward_v I I I I #
coedge $-1 -1 $-1 $164 $165 $166 $167 forward $69 $-1 #
face $-1 -1 $-1 $168 $169 $39 $-1 $170 reversed single #
loop $-1 -1 $-1 $-1 $171 $71 #
plane-surface $-1 -1 $-1 3.9164296263514975e-015 -0.25000000000000011 -33.436671754036212 4.6885143195523885e-032 1 -1.2246063538223773e-016 1 0 3.8285889215894375e-016 forward_v I I I I #
coedge $-1 -1 $-1 $172 $173 $174 $175 forward $72 $-1 #
model_id-kcp-attrib $-1 -1 $-1 $-1 $75 1 1021562082 1021562082 -867958783 5 #
face $176 -1 $-1 $177 $178 $11 $-1 $179 reversed single #
loop $-1 -1 $-1 $-1 $180 $75 #
plane-surface $-1 -1 $-1 11.77 0 -6.3700000000000001 0 1 0 -1 0 0 forward_v I I I I #
coedge $-1 -1 $-1 $181 $182 $183 $184 forward $76 $-1 #
coedge $-1 -1 $-1 $185 $78 $186 $187 forward $52 $-1 #
coedge $-1 -1 $-1 $78 $81 $188 $189 forward $52 $-1 #
coedge $-1 -1 $-1 $182 $181 $78 $116 reversed $76 $-1 #
edge $190 -1 $-1 $191 0 $192 7.7400000000000002 $78 $193 forward @7 unknown #
coedge $-1 -1 $-1 $80 $79 $180 $194 reversed $42 $-1 #
coedge $-1 -1 $-1 $195 $196 $79 $119 forward $178 $-1 #
edge $197 -1 $-1 $198 0 $124 0.5 $79 $199 forward @7 unknown #
coedge $-1 -1 $-1 $200 $188 $80 $121 reversed $201 $-1 #
edge $202 -1 $-1 $203 0 $125 0.5 $80 $204 forward @7 unknown #
coedge $-1 -1 $-1 $81 $205 $195 $206 reversed $52 $-1 #
attrib_edge_convexity-kcp-attrib $-1 -1 $207 $-1 $82 1 #
vertex $-1 -1 $-1 $119 $208 #
vertex $-1 -1 $-1 $121 $209 #
straight-curve $-1 -1 $-1 -4.870000000000001 -0.5 -6.3700000000000001 1 0 0 I I #
model_id-kcp-attrib $-1 -1 $-1 $-1 $84 1 1021562082 1021562082 -867958782 3 #
face $210 -1 $-1 $211 $212 $29 $-1 $213 reversed single #
loop $-1 -1 $-1 $-1 $214 $84 #
plane-surface $-1 -1 $-1 0 -0.25 0 0 1 0 0 0 1 forward_v I I I I #
coedge $-1 -1 $-1 $215 $216 $217 $218 forward $85 $-1 #
coedge $-1 -1 $-1 $219 $87 $220 $221 forward $57 $-1 #
coedge $-1 -1 $-1 $87 $219 $222 $223 forward $57 $-1 #
coedge $-1 -1 $-1 $224 $225 $87 $135 reversed $226 $-1 #
edge $-1 -1 $-1 $227 -0.25 $228 0.25 $134 $229 forward @7 unknown #
face $-1 -1 $-1 $230 $231 $31 $-1 $232 forward single #
loop $-1 -1 $-1 $-1 $233 $88 #
cone-surface $-1 -1 $-1 9.2700000000000014 -0.5 3.8700000000000001 0 1 0 2.4999999999999982 0 0 1 I I 0 -1 2.4999999999999982 forward I I I I #
coedge $-1 -1 $-1 $234 $235 $236 $237 forward $89 $-1 #
coedge $-1 -1 $-1 $238 $91 $235 $239 reversed $60 $-1 #
coedge $-1 -1 $-1 $91 $238 $240 $241 forward $60 $-1 #
coedge $-1 -1 $-1 $242 $236 $91 $143 reversed $231 $-1 #
edge $-1 -1 $-1 $243 0 $244 2.5 $91 $245 forward @7 unknown #
face $-1 -1 $-1 $246 $247 $33 $-1 $248 forward single #
loop $-1 -1 $-1 $-1 $249 $92 #
plane-surface $-1 -1 $-1 -10.82 -0.25 -4.3000000000000007 0 -1 0 0 0 -1 forward_v I I I I #
coedge $-1 -1 $-1 $250 $251 $252 $253 forward $93 $-1 #
coedge $-1 -1 $-1 $254 $95 $251 $255 reversed $63 $-1 #
coedge $-1 -1 $-1 $95 $254 $256 $257 forward $63 $-1 #
coedge $-1 -1 $-1 $258 $252 $95 $151 reversed $259 $-1 #
edge $-1 -1 $-1 $260 1.660000000000001 $261 6.6600000000000001 $95 $262 forward @7 unknown #
face $-1 -1 $-1 $263 $264 $35 $-1 $265 reversed single #
loop $-1 -1 $-1 $-1 $266 $96 #
cone-surface $-1 -1 $-1 9.2699999999999996 0 -3.8700000000000019 0 -1 0 2.5 0 1.7763568394002505e-015 1 I I 0 -1 2.5 forward I I I I #
coedge $-1 -1 $-1 $267 $268 $269 $270 forward $97 $-1 #
coedge $-1 -1 $-1 $271 $99 $268 $272 reversed $66 $-1 #
coedge $-1 -1 $-1 $99 $271 $273 $274 forward $66 $-1 #
coedge $-1 -1 $-1 $275 $269 $99 $159 reversed $264 $-1 #
edge $-1 -1 $-1 $276 0 $277 2.5 $99 $278 forward @7 unknown #
face $-1 -1 $-1 $279 $280 $37 $-1 $281 forward single #
loop $-1 -1 $-1 $-1 $282 $100 #
plane-surface $-1 -1 $-1 -10.82 0.25 4.3000000000000007 0 1 0 0 0 1 forward_v I I I I #
coedge $-1 -1 $-1 $283 $284 $285 $286 forward $101 $-1 #
coedge $-1 -1 $-1 $287 $103 $284 $288 reversed $69 $-1 #
coedge $-1 -1 $-1 $103 $287 $289 $290 forward $69 $-1 #
coedge $-1 -1 $-1 $291 $285 $103 $167 reversed $292 $-1 #
edge $-1 -1 $-1 $293 3.160000000000001 $294 6.1600000000000001 $103 $295 forward @7 unknown #
face $-1 -1 $-1 $296 $297 $39 $-1 $298 reversed single #
loop $-1 -1 $-1 $-1 $299 $104 #
plane-surface $-1 -1 $-1 -2.2610358680827392e-016 1.2140017723732966e-015 -22.616671754036211 3.8285889215894375e-016 -1.2246063538223773e-016 -1 1 0 3.8285889215894375e-016 forward_v I I I I #
coedge $-1 -1 $-1 $300 $301 $302 $303 forward $105 $-1 #
coedge $-1 -1 $-1 $304 $107 $305 $306 forward $72 $-1 #
coedge $-1 -1 $-1 $107 $304 $307 $308 forward $72 $-1 #
coedge $-1 -1 $-1 $309 $310 $107 $175 reversed $297 $-1 #
edge $-1 -1 $-1 $311 -8.3983358770181056 $312 -5.8983358770181056 $174 $313 forward @7 unknown #
model_id-kcp-attrib $-1 -1 $-1 $-1 $109 1 1021562082 1021562082 -867958783 6 #
face $314 -1 $-1 $315 $316 $11 $-1 $317 reversed single #
loop $-1 -1 $-1 $-1 $195 $109 #
plane-surface $-1 -1 $-1 -4.870000000000001 0 -4.2999999999999998 1 0 0 0 0 -1 forward_v I I I I #
coedge $-1 -1 $-1 $318 $319 $117 $194 forward $110 $-1 #
coedge $-1 -1 $-1 $115 $112 $320 $321 reversed $76 $-1 #
coedge $-1 -1 $-1 $112 $115 $322 $323 reversed $76 $-1 #
coedge $-1 -1 $-1 $319 $324 $112 $184 reversed $110 $-1 #
edge $325 -1 $-1 $326 0 $327 7.7399999999999984 $183 $328 forward @7 unknown #
coedge $-1 -1 $-1 $329 $113 $330 $331 reversed $52 $-1 #
coedge $-1 -1 $-1 $320 $332 $113 $187 reversed $333 $-1 #
edge $334 -1 $-1 $192 0 $335 1.5707963267948974 $113 $336 forward @7 unknown #
coedge $-1 -1 $-1 $120 $322 $114 $189 reversed $201 $-1 #
edge $337 -1 $-1 $125 0 $191 1.5707963267948952 $114 $338 forward @7 unknown #
attrib_edge_convexity-kcp-attrib $-1 -1 $339 $-1 $116 1 #
vertex $-1 -1 $-1 $189 $340 #
vertex $-1 -1 $-1 $187 $341 #
straight-curve $-1 -1 $-1 11.770000000000001 -0.5 -3.8700000000000001 0 0 1 I I #
edge $342 -1 $-1 $203 0 $198 14.140000000000001 $117 $343 forward @7 unknown #
coedge $-1 -1 $-1 $344 $118 $122 $206 forward $178 $-1 #
coedge $-1 -1 $-1 $118 $344 $318 $345 reversed $178 $-1 #
attrib_edge_convexity-kcp-attrib $-1 -1 $346 $-1 $119 1 #
vertex $-1 -1 $-1 $194 $347 #
straight-curve $-1 -1 $-1 -4.870000000000001 0 -6.3700000000000001 0 -1 0 I I #
coedge $-1 -1 $-1 $322 $120 $319 $348 reversed $201 $-1 #
loop $-1 -1 $-1 $-1 $200 $349 #
attrib_edge_convexity-kcp-attrib $-1 -1 $350 $-1 $121 3 #
vertex $-1 -1 $-1 $121 $351 #
straight-curve $-1 -1 $-1 9.2699999999999996 0 -6.3700000000000001 0 -1 0 I I #
coedge $-1 -1 $-1 $122 $352 $353 $354 forward $52 $-1 #
edge $355 -1 $-1 $124 0 $356 2.0700000000000003 $122 $357 forward @7 unknown #
convexity-sys-attrib $-1 -1 $-1 $123 $82 #
point $-1 -1 $-1 -4.870000000000001 -0.5 -6.3700000000000001 #
point $-1 -1 $-1 9.2699999999999996 -0.5 -6.3700000000000001 #
model_id-kcp-attrib $-1 -1 $-1 $-1 $128 1 1021562082 1021562082 -867958782 6 #
face $358 -1 $-1 $359 $360 $29 $-1 $361 reversed single #
loop $-1 -1 $-1 $-1 $362 $128 #
plane-surface $-1 -1 $-1 -10.82 0 0 1 0 0 0 0 -1 forward_v I I I I #
coedge $-1 -1 $-1 $363 $222 $364 $365 forward $129 $-1 #
coedge $-1 -1 $-1 $366 $131 $363 $367 forward $85 $-1 #
coedge $-1 -1 $-1 $131 $366 $368 $369 forward $85 $-1 #
coedge $-1 -1 $-1 $225 $224 $131 $218 reversed $226 $-1 #
edge $-1 -1 $-1 $370 -0.25 $371 0.25 $217 $372 forward @7 unknown #
coedge $-1 -1 $-1 $133 $132 $373 $374 forward $57 $-1 #
coedge $-1 -1 $-1 $375 $376 $132 $221 reversed $360 $-1 #
edge $-1 -1 $-1 $228 -10.82 $377 10.82 $220 $378 forward @7 unknown #
coedge $-1 -1 $-1 $214 $379 $133 $223 reversed $129 $-1 #
edge $-1 -1 $-1 $380 -10.82 $227 10.82 $222 $381 forward @7 unknown #
coedge $-1 -1 $-1 $217 $134 $379 $382 forward $226 $-1 #
coedge $-1 -1 $-1 $134 $217 $375 $383 reversed $226 $-1 #
loop $-1 -1 $-1 $-1 $224 $359 #
vertex $-1 -1 $-1 $135 $384 #
vertex $-1 -1 $-1 $135 $385 #
straight-curve $-1 -1 $-1 10.82 0 6.370000000000001 0 1 0 I I #
face $-1 -1 $-1 $-1 $386 $31 $-1 $387 reversed single #
loop $-1 -1 $-1 $-1 $142 $136 #
plane-surface $-1 -1 $-1 11.0053417157418 0 5.6053417157418002 0 1 0 0 0 1 forward_v I I I I #
coedge $-1 -1 $-1 $240 $388 $242 $389 forward $137 $-1 #
coedge $-1 -1 $-1 $390 $139 $388 $391 reversed $89 $-1 #
coedge $-1 -1 $-1 $139 $390 $140 $239 forward $89 $-1 #
coedge $-1 -1 $-1 $142 $242 $139 $237 reversed $231 $-1 #
edge $-1 -1 $-1 $244 0 $392 2.5 $139 $393 forward @7 unknown #
coedge $-1 -1 $-1 $141 $140 $394 $395 reversed $60 $-1 #
edge $-1 -1 $-1 $396 0 $244 0.5 $235 $397 forward @7 unknown #
coedge $-1 -1 $-1 $398 $233 $141 $241 reversed $137 $-1 #
edge $-1 -1 $-1 $399 0 $243 0.5 $141 $400 forward @7 unknown #
coedge $-1 -1 $-1 $236 $142 $233 $389 reversed $231 $-1 #
vertex $-1 -1 $-1 $241 $401 #
vertex $-1 -1 $-1 $239 $402 #
straight-curve $-1 -1 $-1 11.77 0 3.8700000000000001 0 0 1 I I #
face $-1 -1 $-1 $403 $259 $33 $-1 $404 reversed single #
loop $-1 -1 $-1 $-1 $405 $144 #
plane-surface $-1 -1 $-1 -5.8200000000000012 -0.25 -4.2999999999999989 1 0 0 0 0 -1 forward_v I I I I #
coedge $-1 -1 $-1 $406 $407 $408 $409 forward $145 $-1 #
coedge $-1 -1 $-1 $410 $147 $407 $411 reversed $93 $-1 #
coedge $-1 -1 $-1 $147 $410 $148 $255 forward $93 $-1 #
coedge $-1 -1 $-1 $150 $408 $147 $253 reversed $259 $-1 #
edge $-1 -1 $-1 $261 -0.25 $412 0.25 $147 $413 forward @7 unknown #
coedge $-1 -1 $-1 $149 $148 $414 $415 reversed $63 $-1 #
edge $-1 -1 $-1 $416 0 $261 2.0700000000000003 $251 $417 forward @7 unknown #
coedge $-1 -1 $-1 $418 $405 $149 $257 reversed $247 $-1 #
edge $-1 -1 $-1 $419 0 $260 2.0700000000000003 $149 $420 forward @7 unknown #
coedge $-1 -1 $-1 $408 $150 $405 $421 reversed $259 $-1 #
loop $-1 -1 $-1 $-1 $150 $246 #
vertex $-1 -1 $-1 $257 $422 #
vertex $-1 -1 $-1 $255 $423 #
straight-curve $-1 -1 $-1 -4.1600000000000001 0.25 -6.370000000000001 -1 0 0 I I #
face $-1 -1 $-1 $-1 $424 $35 $-1 $425 forward single #
loop $-1 -1 $-1 $-1 $158 $152 #
plane-surface $-1 -1 $-1 11.005341715741801 -0.5 -5.605341715741802 0 1 0 0 0 1 forward_v I I I I #
coedge $-1 -1 $-1 $273 $426 $275 $427 forward $153 $-1 #
coedge $-1 -1 $-1 $428 $155 $426 $429 reversed $97 $-1 #
coedge $-1 -1 $-1 $155 $428 $156 $272 forward $97 $-1 #
coedge $-1 -1 $-1 $158 $275 $155 $270 reversed $264 $-1 #
edge $-1 -1 $-1 $277 0 $430 2.5 $155 $431 forward @7 unknown #
coedge $-1 -1 $-1 $157 $156 $432 $433 reversed $66 $-1 #
edge $-1 -1 $-1 $434 0 $277 0.5 $268 $435 forward @7 unknown #
coedge $-1 -1 $-1 $436 $266 $157 $274 reversed $153 $-1 #
edge $-1 -1 $-1 $437 0 $276 0.5 $157 $438 forward @7 unknown #
coedge $-1 -1 $-1 $269 $158 $266 $427 reversed $264 $-1 #
vertex $-1 -1 $-1 $274 $439 #
vertex $-1 -1 $-1 $272 $440 #
straight-curve $-1 -1 $-1 11.77 -0.5 -3.8700000000000001 0 0 -1 I I #
face $-1 -1 $-1 $441 $292 $37 $-1 $442 forward single #
loop $-1 -1 $-1 $-1 $443 $160 #
plane-surface $-1 -1 $-1 -7.8200000000000012 0.25 4.3000000000000007 1 0 0 0 0 -1 forward_v I I I I #
coedge $-1 -1 $-1 $444 $445 $446 $447 forward $161 $-1 #
coedge $-1 -1 $-1 $448 $163 $445 $449 reversed $101 $-1 #
coedge $-1 -1 $-1 $163 $448 $164 $288 forward $101 $-1 #
coedge $-1 -1 $-1 $166 $446 $163 $286 reversed $292 $-1 #
edge $-1 -1 $-1 $294 -0.25 $450 0.25 $163 $451 forward @7 unknown #
coedge $-1 -1 $-1 $165 $164 $452 $453 reversed $69 $-1 #
edge $-1 -1 $-1 $454 0 $294 2.0700000000000003 $284 $455 forward @7 unknown #
coedge $-1 -1 $-1 $456 $443 $165 $290 reversed $280 $-1 #
edge $-1 -1 $-1 $457 0 $293 2.0700000000000003 $165 $458 forward @7 unknown #
coedge $-1 -1 $-1 $446 $166 $443 $459 reversed $292 $-1 #
loop $-1 -1 $-1 $-1 $166 $279 #
vertex $-1 -1 $-1 $290 $460 #
vertex $-1 -1 $-1 $288 $461 #
straight-curve $-1 -1 $-1 -4.6600000000000001 -0.25 6.370000000000001 -1 0 0 I I #
face $-1 -1 $-1 $462 $463 $39 $-1 $464 reversed single #
loop $-1 -1 $-1 $-1 $302 $168 #
plane-surface $-1 -1 $-1 -3.0499999999999998 0 0 1 0 0 0 0 -1 forward_v I I I I #
coedge $-1 -1 $-1 $465 $305 $310 $466 forward $169 $-1 #
coedge $-1 -1 $-1 $467 $171 $468 $469 forward $105 $-1 #
coedge $-1 -1 $-1 $171 $467 $465 $470 reversed $105 $-1 #
coedge $-1 -1 $-1 $310 $309 $171 $303 reversed $297 $-1 #
edge $-1 -1 $-1 $471 5.8983358770181056 $472 8.3983358770181056 $302 $473 forward @7 unknown #
coedge $-1 -1 $-1 $173 $172 $474 $475 forward $72 $-1 #
coedge $-1 -1 $-1 $299 $476 $172 $306 reversed $169 $-1 #
edge $-1 -1 $-1 $312 -3.0500000000000003 $477 3.0499999999999994 $305 $478 forward @7 unknown #
coedge $-1 -1 $-1 $479 $480 $173 $308 reversed $463 $-1 #
edge $481 -1 $-1 $482 -3.049999999999998 $311 3.0500000000000016 $307 $483 forward @7 unknown #
coedge $-1 -1 $-1 $302 $174 $480 $484 reversed $297 $-1 #
coedge $-1 -1 $-1 $174 $302 $299 $466 reversed $297 $-1 #
vertex $-1 -1 $-1 $308 $485 #
vertex $-1 -1 $-1 $175 $486 #
straight-curve $-1 -1 $-1 -3.0499999999999998 0.25000000000000194 -16.718335877018106 0 1.2246063538223773e-016 1 I I #
model_id-kcp-attrib $-1 -1 $-1 $-1 $177 1 1021562082 1021562082 -867958783 7 #
face $487 -1 $-1 $488 $489 $11 $-1 $490 forward single #
loop $-1 -1 $-1 $-1 $491 $177 #
plane-surface $-1 -1 $-1 -9.870000000000001 0 -4.2999999999999998 0 0 1 1 0 0 forward_v I I I I #
coedge $-1 -1 $-1 $492 $180 $196 $345 forward $110 $-1 #
coedge $-1 -1 $-1 $180 $183 $200 $348 forward $110 $-1 #
coedge $-1 -1 $-1 $493 $186 $181 $321 forward $333 $-1 #
edge $494 -1 $-1 $192 0 $327 0.5 $181 $495 forward @7 unknown #
coedge $-1 -1 $-1 $188 $200 $182 $323 forward $201 $-1 #
edge $496 -1 $-1 $326 0 $191 0.5 $182 $497 forward @7 unknown #
coedge $-1 -1 $-1 $183 $498 $493 $499 forward $110 $-1 #
attrib_edge_convexity-kcp-attrib $-1 -1 $500 $-1 $184 1 #
vertex $-1 -1 $-1 $348 $501 #
vertex $-1 -1 $-1 $184 $502 #
straight-curve $-1 -1 $-1 11.77 0 -3.8700000000000001 0 0 1 I I #
coedge $-1 -1 $-1 $503 $185 $504 $505 forward $52 $-1 #
coedge $-1 -1 $-1 $506 $507 $185 $331 forward $508 $-1 #
edge $509 -1 $-1 $510 0 $335 16.140000000000001 $330 $511 forward @7 unknown #
coedge $-1 -1 $-1 $186 $493 $506 $512 reversed $333 $-1 #
loop $-1 -1 $-1 $-1 $186 $513 #
attrib_edge_convexity-kcp-attrib $-1 -1 $514 $-1 $187 1 #
vertex $-1 -1 $-1 $512 $515 #
ellipse-curve $-1 -1 $-1 9.2700000000000014 -0.5 3.8700000000000001 0 -1 0 2.4999999999999982 0 0 1 I I #
attrib_edge_convexity-kcp-attrib $-1 -1 $516 $-1 $189 1 #
ellipse-curve $-1 -1 $-1 9.2699999999999978 -0.5 -3.8699999999999983 0 -1 0 1.7763568394002505e-015 0 -2.5000000000000018 1 I I #
convexity-sys-attrib $-1 -1 $-1 $190 $116 #
point $-1 -1 $-1 11.77 -0.5 -3.8700000000000001 #
point $-1 -1 $-1 11.77 -0.5 3.8700000000000001 #
attrib_edge_convexity-kcp-attrib $-1 -1 $517 $-1 $194 1 #
straight-curve $-1 -1 $-1 9.2699999999999996 0 -6.3700000000000001 -1 0 0 I I #
coedge $-1 -1 $-1 $196 $195 $491 $518 reversed $178 $-1 #
edge $519 -1 $-1 $198 0 $520 2.0700000000000003 $318 $521 forward @7 unknown #
convexity-sys-attrib $-1 -1 $-1 $197 $119 #
point $-1 -1 $-1 -4.870000000000001 0 -6.3700000000000001 #
edge $-1 -1 $-1 $326 0 $203 1.5707963267948974 $319 $522 forward @7 unknown #
face $523 -1 $-1 $-1 $201 $11 $-1 $524 forward single #
convexity-sys-attrib $-1 -1 $-1 $202 $121 #
point $-1 -1 $-1 9.2699999999999996 0 -6.3700000000000001 #
coedge $-1 -1 $-1 $205 $525 $526 $527 reversed $52 $-1 #
coedge $-1 -1 $-1 $528 $491 $205 $354 reversed $316 $-1 #
edge $529 -1 $-1 $530 0 $356 4.9999999999999982 $205 $531 forward @7 unknown #
attrib_edge_convexity-kcp-attrib $-1 -1 $532 $-1 $206 1 #
vertex $-1 -1 $-1 $206 $533 #
straight-curve $-1 -1 $-1 -4.870000000000001 -0.5 -6.3700000000000001 0 0 1 I I #
model_id-kcp-attrib $-1 -1 $-1 $-1 $211 1 1021562082 1021562082 -867958782 5 #
face $534 -1 $-1 $-1 $226 $29 $-1 $535 reversed single #
loop $-1 -1 $-1 $-1 $375 $211 #
plane-surface $-1 -1 $-1 0 0.25 0 0 -1 0 0 0 -1 forward_v I I I I #
coedge $-1 -1 $-1 $536 $373 $376 $537 forward $212 $-1 #
coedge $-1 -1 $-1 $379 $214 $215 $367 reversed $129 $-1 #
coedge $-1 -1 $-1 $373 $536 $214 $365 reversed $212 $-1 #
edge $-1 -1 $-1 $380 -6.370000000000001 $538 6.370000000000001 $364 $539 forward @7 unknown #
coedge $-1 -1 $-1 $216 $215 $536 $540 forward $85 $-1 #
edge $-1 -1 $-1 $371 -10.82 $538 10.82 $363 $541 forward @7 unknown #
coedge $-1 -1 $-1 $376 $375 $216 $369 reversed $360 $-1 #
edge $-1 -1 $-1 $542 -10.82 $370 10.82 $368 $543 forward @7 unknown #
vertex $-1 -1 $-1 $218 $544 #
vertex $-1 -1 $-1 $382 $545 #
straight-curve $-1 -1 $-1 10.82 0 -6.370000000000001 0 -1 0 I I #
coedge $-1 -1 $-1 $362 $364 $219 $374 reversed $212 $-1 #
edge $-1 -1 $-1 $377 -0.25 $380 0.25 $373 $546 forward @7 unknown #
coedge $-1 -1 $-1 $368 $220 $225 $383 forward $360 $-1 #
coedge $-1 -1 $-1 $220 $368 $362 $537 reversed $360 $-1 #
vertex $-1 -1 $-1 $221 $547 #
straight-curve $-1 -1 $-1 0 0.25 6.370000000000001 -1 0 0 I I #
coedge $-1 -1 $-1 $222 $363 $224 $382 reversed $129 $-1 #
vertex $-1 -1 $-1 $374 $548 #
straight-curve $-1 -1 $-1 0 -0.25 6.370000000000001 1 0 0 I I #
edge $-1 -1 $-1 $227 -6.370000000000001 $371 6.370000000000001 $224 $549 forward @7 unknown #
edge $-1 -1 $-1 $228 -6.370000000000001 $370 6.370000000000001 $225 $550 forward @7 unknown #
point $-1 -1 $-1 10.82 -0.25 6.370000000000001 #
point $-1 -1 $-1 10.82 0.25 6.370000000000001 #
loop $-1 -1 $-1 $-1 $551 $230 #
plane-surface $-1 -1 $-1 11.0053417157418 -0.5 5.6053417157418002 0 1 0 0 0 1 forward_v I I I I #
coedge $-1 -1 $-1 $233 $398 $234 $391 forward $137 $-1 #
edge $-1 -1 $-1 $392 -1.5707963267948972 $243 0 $233 $552 forward @7 unknown #
coedge $-1 -1 $-1 $235 $234 $553 $554 reversed $89 $-1 #
edge $-1 -1 $-1 $555 0 $392 0.5 $388 $556 forward @7 unknown #
vertex $-1 -1 $-1 $391 $557 #
straight-curve $-1 -1 $-1 11.77 0 6.3700000000000001 -1 0 0 I I #
coedge $-1 -1 $-1 $553 $551 $238 $395 forward $386 $-1 #
edge $-1 -1 $-1 $399 0 $396 2.5 $238 $558 forward @7 unknown #
vertex $-1 -1 $-1 $395 $559 #
straight-curve $-1 -1 $-1 11.77 -0.5 6.3700000000000001 0 1 0 I I #
coedge $-1 -1 $-1 $388 $240 $551 $560 forward $137 $-1 #
vertex $-1 -1 $-1 $560 $561 #
straight-curve $-1 -1 $-1 11.77 -0.5 3.8700000000000001 0 1 0 I I #
point $-1 -1 $-1 11.77 0 3.8700000000000001 #
point $-1 -1 $-1 11.77 0 6.3700000000000001 #
face $-1 -1 $-1 $-1 $562 $33 $-1 $563 forward single #
plane-surface $-1 -1 $-1 -8.3200000000000021 0 -6.3700000000000001 7.62958009825695e-031 -5.0570361154070033e-046 1 1 0 -7.62958009825695e-031 forward_v I I I I #
coedge $-1 -1 $-1 $256 $564 $258 $421 forward $247 $-1 #
coedge $-1 -1 $-1 $565 $249 $564 $566 reversed $145 $-1 #
coedge $-1 -1 $-1 $249 $565 $250 $411 forward $145 $-1 #
coedge $-1 -1 $-1 $252 $258 $249 $409 reversed $259 $-1 #
edge $-1 -1 $-1 $412 -6.6600000000000001 $567 -1.660000000000001 $249 $568 forward @7 unknown #
coedge $-1 -1 $-1 $251 $250 $569 $570 reversed $93 $-1 #
edge $-1 -1 $-1 $571 0 $412 2.0700000000000003 $407 $572 forward @7 unknown #
vertex $-1 -1 $-1 $411 $573 #
straight-curve $-1 -1 $-1 -10.82 0 -6.370000000000001 0 -1 0 I I #
coedge $-1 -1 $-1 $569 $574 $254 $415 forward $562 $-1 #
edge $575 -1 $-1 $419 1.660000000000001 $416 6.6600000000000001 $254 $576 forward @7 unknown #
vertex $-1 -1 $-1 $415 $577 #
straight-curve $-1 -1 $-1 -10.82 0.25 -4.3000000000000007 0 0 -1 I I #
coedge $-1 -1 $-1 $564 $256 $574 $578 reversed $247 $-1 #
vertex $-1 -1 $-1 $578 $579 #
straight-curve $-1 -1 $-1 -5.8200000000000012 0.25 -4.2999999999999989 0 0 -1 I I #
edge $-1 -1 $-1 $567 -0.375 $260 0.125 $405 $580 forward @7 unknown #
point $-1 -1 $-1 -5.8200000000000012 0.25 -6.3699999999999992 #
point $-1 -1 $-1 -10.82 0.25 -6.370000000000001 #
loop $-1 -1 $-1 $-1 $581 $263 #
plane-surface $-1 -1 $-1 11.005341715741801 0 -5.605341715741802 0 1 0 0 0 1 forward_v I I I I #
coedge $-1 -1 $-1 $266 $436 $267 $429 forward $153 $-1 #
edge $-1 -1 $-1 $430 -1.5707963267948972 $276 0 $266 $582 forward @7 unknown #
coedge $-1 -1 $-1 $268 $267 $583 $584 reversed $97 $-1 #
edge $-1 -1 $-1 $585 0 $430 0.5 $426 $586 forward @7 unknown #
vertex $-1 -1 $-1 $429 $587 #
straight-curve $-1 -1 $-1 11.77 -0.5 -6.3700000000000001 -1 0 0 I I #
coedge $-1 -1 $-1 $583 $581 $271 $433 forward $424 $-1 #
edge $-1 -1 $-1 $437 0 $434 2.5 $271 $588 forward @7 unknown #
vertex $-1 -1 $-1 $433 $589 #
straight-curve $-1 -1 $-1 11.77 0 -6.3700000000000001 0 -1 0 I I #
coedge $-1 -1 $-1 $426 $273 $581 $590 forward $153 $-1 #
vertex $-1 -1 $-1 $590 $591 #
straight-curve $-1 -1 $-1 11.77 0 -3.8700000000000001 0 -1 0 I I #
point $-1 -1 $-1 11.77 -0.5 -3.8700000000000001 #
point $-1 -1 $-1 11.77 -0.5 -6.3700000000000001 #
face $-1 -1 $-1 $-1 $592 $37 $-1 $593 reversed single #
plane-surface $-1 -1 $-1 -9.3200000000000003 0 6.3700000000000001 -1.2035688769541141e-030 -7.9774918144280556e-047 1 1 0 1.2035688769541141e-030 forward_v I I I I #
coedge $-1 -1 $-1 $289 $594 $291 $459 forward $280 $-1 #
coedge $-1 -1 $-1 $595 $282 $594 $596 reversed $161 $-1 #
coedge $-1 -1 $-1 $282 $595 $283 $449 forward $161 $-1 #
coedge $-1 -1 $-1 $285 $291 $282 $447 reversed $292 $-1 #
edge $-1 -1 $-1 $450 -6.1600000000000001 $597 -3.160000000000001 $282 $598 forward @7 unknown #
coedge $-1 -1 $-1 $284 $283 $599 $600 reversed $101 $-1 #
edge $-1 -1 $-1 $601 0 $450 2.0700000000000003 $445 $602 forward @7 unknown #
vertex $-1 -1 $-1 $449 $603 #
straight-curve $-1 -1 $-1 -10.82 0 6.370000000000001 0 1 0 I I #
coedge $-1 -1 $-1 $599 $604 $287 $453 forward $592 $-1 #
edge $605 -1 $-1 $457 3.160000000000001 $454 6.1600000000000001 $287 $606 forward @7 unknown #
vertex $-1 -1 $-1 $453 $607 #
straight-curve $-1 -1 $-1 -10.82 -0.25 4.3000000000000007 0 0 1 I I #
coedge $-1 -1 $-1 $594 $289 $604 $608 reversed $280 $-1 #
vertex $-1 -1 $-1 $608 $609 #
straight-curve $-1 -1 $-1 -7.8200000000000012 -0.25 4.3000000000000007 0 0 1 I I #
edge $-1 -1 $-1 $597 -0.125 $293 0.375 $443 $610 forward @7 unknown #
point $-1 -1 $-1 -7.8200000000000012 -0.25 6.370000000000001 #
point $-1 -1 $-1 -10.82 -0.25 6.370000000000001 #
face $-1 -1 $-1 $-1 $611 $39 $-1 $612 reversed single #
loop $-1 -1 $-1 $-1 $468 $296 #
plane-surface $-1 -1 $-1 0 0 -25.116671754036204 0 0 1 1 0 0 forward_v I I I I #
coedge $-1 -1 $-1 $476 $299 $301 $470 forward $169 $-1 #
edge $-1 -1 $-1 $312 -0.250000000000002 $471 0.249999999999998 $310 $613 forward @7 unknown #
coedge $-1 -1 $-1 $301 $300 $614 $615 forward $105 $-1 #
coedge $-1 -1 $-1 $480 $479 $300 $469 reversed $463 $-1 #
edge $616 -1 $-1 $472 -3.0500000000000016 $617 3.049999999999998 $468 $618 forward @7 unknown #
edge $-1 -1 $-1 $471 -3.0500000000000003 $619 3.0499999999999994 $301 $620 forward @7 unknown #
vertex $-1 -1 $-1 $303 $621 #
vertex $-1 -1 $-1 $484 $622 #
straight-curve $-1 -1 $-1 -3.0499999999999998 -0.24999999999999806 -16.718335877018106 0 -1.2246063538223773e-016 -1 I I #
coedge $-1 -1 $-1 $623 $624 $304 $475 reversed $611 $-1 #
edge $-1 -1 $-1 $477 5.8983358770181056 $482 8.3983358770181056 $474 $625 forward @7 unknown #
coedge $-1 -1 $-1 $305 $465 $623 $626 forward $169 $-1 #
vertex $-1 -1 $-1 $475 $627 #
straight-curve $-1 -1 $-1 -2.2610358680827392e-016 0.25000000000000122 -22.616671754036211 1 0 3.8285889215894375e-016 I I #
coedge $-1 -1 $-1 $468 $307 $624 $628 forward $463 $-1 #
coedge $-1 -1 $-1 $307 $468 $309 $484 forward $463 $-1 #
convexity-sys-attrib $-1 -1 $-1 $-1 $308 #
vertex $-1 -1 $-1 $628 $629 #
straight-curve $-1 -1 $-1 1.9582148131757487e-015 0.25000000000000089 -25.116671754036204 -1 4.6885143195523885e-032 0 I I #
edge $630 -1 $-1 $472 -0.24999999999999908 $311 0.25000000000000089 $309 $631 forward @7 unknown #
point $-1 -1 $-1 -3.0499999999999998 0.25000000000000089 -25.116671754036211 #
point $-1 -1 $-1 -3.0500000000000007 0.25000000000000122 -22.616671754036211 #
model_id-kcp-attrib $-1 -1 $-1 $-1 $315 1 1021562082 1021562082 -867958783 8 #
face $632 -1 $-1 $633 $634 $11 $-1 $635 reversed single #
loop $-1 -1 $-1 $-1 $636 $315 #
plane-surface $-1 -1 $-1 -9.8699999999999992 0 -6.3700000000000001 -1 0 0 0 -1 0 forward_v I I I I #
coedge $-1 -1 $-1 $353 $637 $344 $518 forward $316 $-1 #
coedge $-1 -1 $-1 $638 $318 $637 $639 reversed $110 $-1 #
coedge $-1 -1 $-1 $332 $320 $324 $499 reversed $333 $-1 #
attrib_edge_convexity-kcp-attrib $-1 -1 $640 $-1 $321 3 #
straight-curve $-1 -1 $-1 11.77 -0.5 3.8700000000000001 0 1 0 I I #
attrib_edge_convexity-kcp-attrib $-1 -1 $641 $-1 $323 3 #
straight-curve $-1 -1 $-1 11.77 0 -3.8700000000000001 0 -1 0 I I #
coedge $-1 -1 $-1 $324 $642 $643 $644 reversed $110 $-1 #
edge $-1 -1 $-1 $645 0 $327 1.5707963267948959 $324 $646 forward @7 unknown #
convexity-sys-attrib $-1 -1 $-1 $325 $184 #
point $-1 -1 $-1 11.77 0 -3.8700000000000001 #
point $-1 -1 $-1 11.77 0 3.8699999999999983 #
coedge $-1 -1 $-1 $647 $329 $648 $649 reversed $52 $-1 #
coedge $-1 -1 $-1 $650 $651 $329 $505 reversed $652 $-1 #
edge $653 -1 $-1 $510 0 $654 2.0700000000000003 $329 $655 forward @7 unknown #
coedge $-1 -1 $-1 $643 $330 $332 $512 forward $508 $-1 #
coedge $-1 -1 $-1 $330 $643 $650 $656 forward $508 $-1 #
loop $-1 -1 $-1 $-1 $643 $657 #
attrib_edge_convexity-kcp-attrib $-1 -1 $658 $-1 $331 1 #
vertex $-1 -1 $-1 $331 $659 #
straight-curve $-1 -1 $-1 -6.870000000000001 -0.5 6.3700000000000001 1 0 0 I I #
edge $-1 -1 $-1 $335 0 $645 0.5 $506 $660 forward @7 unknown #
face $661 -1 $-1 $349 $333 $11 $-1 $662 forward single #
convexity-sys-attrib $-1 -1 $-1 $334 $187 #
point $-1 -1 $-1 9.2699999999999996 -0.5 6.3700000000000001 #
convexity-sys-attrib $-1 -1 $-1 $337 $189 #
convexity-sys-attrib $-1 -1 $-1 $342 $194 #
edge $663 -1 $-1 $520 0 $356 0.5 $491 $664 forward @7 unknown #
attrib_edge_convexity-kcp-attrib $-1 -1 $665 $-1 $345 1 #
vertex $-1 -1 $-1 $639 $666 #
straight-curve $-1 -1 $-1 -4.870000000000001 0 -6.3700000000000001 0 0 1 I I #
ellipse-curve $-1 -1 $-1 9.2699999999999996 0 -3.8700000000000019 0 1 0 2.5 0 1.7763568394002505e-015 1 I I #
model_id-kcp-attrib $-1 -1 $-1 $-1 $349 1 1021562082 1021562082 -867958783 17 #
cone-surface $-1 -1 $-1 9.2699999999999996 0.037875430594129886 -3.8700000000000001 0 -1 0 2.5 0 0 1 I I 0 1 2.5 forward I I I I #
coedge $-1 -1 $-1 $352 $667 $668 $669 reversed $52 $-1 #
coedge $-1 -1 $-1 $670 $636 $352 $527 forward $489 $-1 #
edge $671 -1 $-1 $530 0 $672 1.25 $526 $673 forward @7 unknown #
coedge $-1 -1 $-1 $637 $353 $636 $674 reversed $316 $-1 #
attrib_edge_convexity-kcp-attrib $-1 -1 $675 $-1 $354 1 #
vertex $-1 -1 $-1 $527 $676 #
straight-curve $-1 -1 $-1 -9.8699999999999992 -0.5 -4.2999999999999998 1 0 0 I I #
convexity-sys-attrib $-1 -1 $-1 $355 $206 #
point $-1 -1 $-1 -4.870000000000001 -0.5 -4.2999999999999998 #
model_id-kcp-attrib $-1 -1 $-1 $-1 $359 1 1021562082 1021562082 -867958782 4 #
plane-surface $-1 -1 $-1 10.82 0 0 -1 0 0 0 0 1 forward_v I I I I #
coedge $-1 -1 $-1 $364 $362 $366 $540 reversed $212 $-1 #
edge $-1 -1 $-1 $377 -6.370000000000001 $542 6.370000000000001 $376 $677 forward @7 unknown #
vertex $-1 -1 $-1 $540 $678 #
straight-curve $-1 -1 $-1 -10.82 -0.25 0 0 0 -1 I I #
edge $-1 -1 $-1 $538 -0.25 $542 0.25 $536 $679 forward @7 unknown #
straight-curve $-1 -1 $-1 0 -0.25 -6.370000000000001 -1 0 0 I I #
vertex $-1 -1 $-1 $369 $680 #
straight-curve $-1 -1 $-1 0 0.25 -6.370000000000001 1 0 0 I I #
point $-1 -1 $-1 10.82 0.25 -6.370000000000001 #
point $-1 -1 $-1 10.82 -0.25 -6.370000000000001 #
straight-curve $-1 -1 $-1 -10.82 0 6.370000000000001 0 -1 0 I I #
point $-1 -1 $-1 -10.82 0.25 6.370000000000001 #
point $-1 -1 $-1 -10.82 -0.25 6.370000000000001 #
straight-curve $-1 -1 $-1 10.82 -0.25 0 0 0 -1 I I #
straight-curve $-1 -1 $-1 10.82 0.25 0 0 0 -1 I I #
coedge $-1 -1 $-1 $394 $553 $398 $560 reversed $386 $-1 #
ellipse-curve $-1 -1 $-1 9.2700000000000014 0 3.8700000000000001 0 1 0 2.4999999999999982 0 0 1 I I #
coedge $-1 -1 $-1 $551 $394 $390 $554 forward $386 $-1 #
edge $-1 -1 $-1 $396 0 $555 2.5 $390 $681 forward @7 unknown #
vertex $-1 -1 $-1 $560 $682 #
straight-curve $-1 -1 $-1 9.2699999999999996 -0.5 6.3700000000000001 0 1 0 I I #
point $-1 -1 $-1 9.2699999999999996 0 6.3700000000000001 #
straight-curve $-1 -1 $-1 11.77 -0.5 3.8700000000000001 0 0 1 I I #
point $-1 -1 $-1 11.77 -0.5 6.3700000000000001 #
edge $-1 -1 $-1 $399 0 $555 1.5707963267948972 $398 $683 forward @7 unknown #
point $-1 -1 $-1 11.77 -0.5 3.8700000000000001 #
loop $-1 -1 $-1 $-1 $574 $403 #
plane-surface $-1 -1 $-1 -8.3200000000000021 0 -4.2999999999999998 7.62958009825695e-031 -5.0570361154070033e-046 1 1 0 -7.62958009825695e-031 forward_v I I I I #
coedge $-1 -1 $-1 $405 $418 $406 $566 forward $247 $-1 #
coedge $-1 -1 $-1 $407 $406 $684 $685 reversed $145 $-1 #
edge $-1 -1 $-1 $686 0 $567 2.0700000000000003 $564 $687 forward @7 unknown #
vertex $-1 -1 $-1 $566 $688 #
straight-curve $-1 -1 $-1 -4.1600000000000001 -0.25 -6.370000000000001 1 0 0 I I #
coedge $-1 -1 $-1 $684 $414 $410 $570 forward $562 $-1 #
edge $689 -1 $-1 $416 -0.25 $571 0.25 $410 $690 forward @7 unknown #
vertex $-1 -1 $-1 $570 $691 #
straight-curve $-1 -1 $-1 -10.82 -0.25 -4.3000000000000007 0 0 -1 I I #
point $-1 -1 $-1 -10.82 -0.25 -6.370000000000001 #
coedge $-1 -1 $-1 $414 $684 $418 $578 forward $562 $-1 #
convexity-sys-attrib $-1 -1 $-1 $-1 $415 #
straight-curve $-1 -1 $-1 -4.1600000000000001 0.25 -4.3000000000000007 -1 0 0 I I #
point $-1 -1 $-1 -10.82 0.25 -4.3000000000000007 #
edge $692 -1 $-1 $686 -0.375 $419 0.125 $418 $693 forward @7 unknown #
point $-1 -1 $-1 -5.8200000000000012 0.25 -4.2999999999999989 #
straight-curve $-1 -1 $-1 -5.8200000000000003 0.125 -6.370000000000001 0 1 0 I I #
coedge $-1 -1 $-1 $432 $583 $436 $590 reversed $424 $-1 #
ellipse-curve $-1 -1 $-1 9.2699999999999996 -0.5 -3.8700000000000019 0 -1 0 2.5 0 1.7763568394002505e-015 1 I I #
coedge $-1 -1 $-1 $581 $432 $428 $584 forward $424 $-1 #
edge $-1 -1 $-1 $434 0 $585 2.5 $428 $694 forward @7 unknown #
vertex $-1 -1 $-1 $590 $695 #
straight-curve $-1 -1 $-1 9.2699999999999996 0 -6.3700000000000001 0 -1 0 I I #
point $-1 -1 $-1 9.2699999999999996 -0.5 -6.3700000000000001 #
straight-curve $-1 -1 $-1 11.77 0 -3.8700000000000001 0 0 -1 I I #
point $-1 -1 $-1 11.77 0 -6.3700000000000001 #
edge $-1 -1 $-1 $437 0 $585 1.5707963267948972 $436 $696 forward @7 unknown #
point $-1 -1 $-1 11.77 0 -3.8700000000000001 #
loop $-1 -1 $-1 $-1 $604 $441 #
plane-surface $-1 -1 $-1 -9.3200000000000003 0 4.2999999999999998 -1.2035688769541141e-030 -7.9774918144280556e-047 1 1 0 1.2035688769541141e-030 forward_v I I I I #
coedge $-1 -1 $-1 $443 $456 $444 $596 forward $280 $-1 #
coedge $-1 -1 $-1 $445 $444 $697 $698 reversed $161 $-1 #
edge $-1 -1 $-1 $699 0 $597 2.0700000000000003 $594 $700 forward @7 unknown #
vertex $-1 -1 $-1 $596 $701 #
straight-curve $-1 -1 $-1 -4.6600000000000001 0.25 6.370000000000001 1 0 0 I I #
coedge $-1 -1 $-1 $697 $452 $448 $600 forward $592 $-1 #
edge $702 -1 $-1 $454 -0.25 $601 0.25 $448 $703 forward @7 unknown #
vertex $-1 -1 $-1 $600 $704 #
straight-curve $-1 -1 $-1 -10.82 0.25 4.3000000000000007 0 0 1 I I #
point $-1 -1 $-1 -10.82 0.25 6.370000000000001 #
coedge $-1 -1 $-1 $452 $697 $456 $608 forward $592 $-1 #
convexity-sys-attrib $-1 -1 $-1 $-1 $453 #
straight-curve $-1 -1 $-1 -4.6600000000000001 -0.25 4.3000000000000007 -1 0 0 I I #
point $-1 -1 $-1 -10.82 -0.25 4.3000000000000007 #
edge $705 -1 $-1 $699 -0.125 $457 0.375 $456 $706 forward @7 unknown #
point $-1 -1 $-1 -7.8200000000000012 -0.25 4.3000000000000007 #
straight-curve $-1 -1 $-1 -7.8200000000000003 0.125 6.370000000000001 0 -1 0 I I #
loop $-1 -1 $-1 $-1 $614 $462 #
plane-surface $-1 -1 $-1 3.0499999999999998 0 0 -1 0 0 0 0 1 forward_v I I I I #
straight-curve $-1 -1 $-1 -3.0499999999999998 -7.7782511042874349e-016 -22.616671754036211 0 -1 1.2246063538223773e-016 I I #
coedge $-1 -1 $-1 $624 $623 $467 $615 reversed $611 $-1 #
edge $-1 -1 $-1 $617 -8.3983358770181056 $619 -5.8983358770181056 $614 $707 forward @7 unknown #
convexity-sys-attrib $-1 -1 $-1 $-1 $469 #
vertex $-1 -1 $-1 $469 $708 #
straight-curve $-1 -1 $-1 1.9582148131757487e-015 -0.24999999999999911 -25.116671754036204 1 -4.6885143195523885e-032 0 I I #
vertex $-1 -1 $-1 $615 $709 #
straight-curve $-1 -1 $-1 -2.2610358680827392e-016 -0.24999999999999878 -22.616671754036211 1 0 3.8285889215894375e-016 I I #
point $-1 -1 $-1 -3.0500000000000007 -0.24999999999999878 -22.616671754036211 #
point $-1 -1 $-1 -3.0499999999999998 -0.24999999999999908 -25.116671754036211 #
coedge $-1 -1 $-1 $614 $474 $476 $626 reversed $611 $-1 #
coedge $-1 -1 $-1 $474 $614 $479 $628 reversed $611 $-1 #
straight-curve $-1 -1 $-1 3.0499999999999998 0.25000000000000194 -16.718335877018106 0 -1.2246063538223773e-016 -1 I I #
edge $-1 -1 $-1 $619 -0.249999999999998 $477 0.250000000000002 $623 $710 forward @7 unknown #
point $-1 -1 $-1 3.0499999999999989 0.25000000000000122 -22.616671754036211 #
edge $711 -1 $-1 $482 -0.25000000000000089 $617 0.24999999999999908 $624 $712 forward @7 unknown #
point $-1 -1 $-1 3.0499999999999998 0.25000000000000089 -25.116671754036211 #
convexity-sys-attrib $-1 -1 $-1 $-1 $484 #
straight-curve $-1 -1 $-1 -3.0499999999999998 0 -25.116671754036204 0 1 0 I I #
model_id-kcp-attrib $-1 -1 $-1 $-1 $488 1 1021562082 1021562082 -867958783 9 #
face $713 -1 $-1 $714 $715 $11 $-1 $716 reversed single #
loop $-1 -1 $-1 $-1 $717 $488 #
plane-surface $-1 -1 $-1 -7.370000000000001 0 -3.0499999999999998 0 0 -1 -1 0 0 forward_v I I I I #
coedge $-1 -1 $-1 $526 $718 $528 $674 forward $489 $-1 #
coedge $-1 -1 $-1 $491 $528 $492 $639 forward $316 $-1 #
coedge $-1 -1 $-1 $719 $492 $718 $720 forward $110 $-1 #
edge $721 -1 $-1 $722 1.7763568394002505e-015 $520 5 $492 $723 forward @7 unknown #
convexity-sys-attrib $-1 -1 $-1 $494 $321 #
convexity-sys-attrib $-1 -1 $-1 $496 $323 #
coedge $-1 -1 $-1 $498 $724 $725 $726 reversed $110 $-1 #
coedge $-1 -1 $-1 $507 $506 $498 $644 forward $508 $-1 #
edge $-1 -1 $-1 $645 0 $727 16.140000000000001 $643 $728 forward @7 unknown #
vertex $-1 -1 $-1 $512 $729 #
ellipse-curve $-1 -1 $-1 9.2699999999999978 0 3.8699999999999983 0 1 0 1.7763568394002505e-015 0 2.5000000000000018 1 I I #
coedge $-1 -1 $-1 $730 $503 $731 $732 reversed $52 $-1 #
coedge $-1 -1 $-1 $733 $734 $503 $649 forward $735 $-1 #
edge $736 -1 $-1 $737 0 $654 2.9999999999999982 $503 $738 forward @7 unknown #
coedge $-1 -1 $-1 $725 $504 $507 $656 reversed $652 $-1 #
coedge $-1 -1 $-1 $504 $725 $733 $739 forward $652 $-1 #
loop $-1 -1 $-1 $-1 $651 $740 #
attrib_edge_convexity-kcp-attrib $-1 -1 $741 $-1 $505 1 #
vertex $-1 -1 $-1 $649 $742 #
straight-curve $-1 -1 $-1 -6.870000000000001 -0.5 6.3700000000000001 0 0 -1 I I #
edge $743 -1 $-1 $727 0 $510 0.5 $507 $744 forward @7 unknown #
face $745 -1 $-1 $513 $508 $11 $-1 $746 forward single #
convexity-sys-attrib $-1 -1 $-1 $509 $331 #
point $-1 -1 $-1 -6.870000000000001 -0.5 6.3700000000000001 #
straight-curve $-1 -1 $-1 9.2699999999999996 -0.5 6.3700000000000001 0 1 0 I I #
model_id-kcp-attrib $-1 -1 $-1 $-1 $513 1 1021562082 1021562082 -867958783 16 #
cone-surface $-1 -1 $-1 9.2699999999999996 -0.53713401610171674 3.8700000000000001 0 1 0 2.5 0 0 1 I I 0 1 2.5 forward I I I I #
attrib_edge_convexity-kcp-attrib $-1 -1 $747 $-1 $518 2 #
straight-curve $-1 -1 $-1 -4.870000000000001 0 -4.2999999999999998 0 -1 0 I I #
convexity-sys-attrib $-1 -1 $-1 $519 $345 #
point $-1 -1 $-1 -4.870000000000001 0 -4.2999999999999998 #
coedge $-1 -1 $-1 $525 $730 $748 $749 forward $52 $-1 #
coedge $-1 -1 $-1 $750 $717 $525 $669 forward $634 $-1 #
edge $751 -1 $-1 $672 0 $752 2.5 $525 $753 forward @7 unknown #
coedge $-1 -1 $-1 $718 $526 $717 $754 reversed $489 $-1 #
attrib_edge_convexity-kcp-attrib $-1 -1 $755 $-1 $527 1 #
vertex $-1 -1 $-1 $754 $756 #
straight-curve $-1 -1 $-1 -9.8699999999999992 -0.5 -4.2999999999999998 0 0 1 I I #
edge $757 -1 $-1 $722 0 $530 0.5 $636 $758 forward @7 unknown #
convexity-sys-attrib $-1 -1 $-1 $529 $354 #
point $-1 -1 $-1 -9.8699999999999992 -0.5 -4.2999999999999998 #
straight-curve $-1 -1 $-1 -10.82 0.25 0 0 0 -1 I I #
point $-1 -1 $-1 -10.82 -0.25 -6.370000000000001 #
straight-curve $-1 -1 $-1 -10.82 0 -6.370000000000001 0 1 0 I I #
point $-1 -1 $-1 -10.82 0.25 -6.370000000000001 #
straight-curve $-1 -1 $-1 11.77 -0.5 6.3700000000000001 -1 0 0 I I #
point $-1 -1 $-1 9.2699999999999996 -0.5 6.3700000000000001 #
ellipse-curve $-1 -1 $-1 9.2700000000000014 -0.5 3.8700000000000001 0 -1 0 2.4999999999999982 0 0 1 I I #
coedge $-1 -1 $-1 $574 $569 $565 $685 forward $562 $-1 #
edge $759 -1 $-1 $571 -6.6600000000000001 $686 -1.660000000000001 $565 $760 forward @7 unknown #
vertex $-1 -1 $-1 $578 $761 #
straight-curve $-1 -1 $-1 -5.8200000000000012 -0.25 -4.2999999999999989 0 0 -1 I I #
point $-1 -1 $-1 -5.8200000000000012 -0.25 -6.3699999999999992 #
convexity-sys-attrib $-1 -1 $-1 $-1 $570 #
straight-curve $-1 -1 $-1 -10.82 0 -4.3000000000000007 0 -1 0 I I #
point $-1 -1 $-1 -10.82 -0.25 -4.3000000000000007 #
convexity-sys-attrib $-1 -1 $-1 $-1 $578 #
straight-curve $-1 -1 $-1 -5.8200000000000003 0.125 -4.3000000000000007 0 1 0 I I #
straight-curve $-1 -1 $-1 11.77 0 -6.3700000000000001 -1 0 0 I I #
point $-1 -1 $-1 9.2699999999999996 0 -6.3700000000000001 #
ellipse-curve $-1 -1 $-1 9.2699999999999996 0 -3.8700000000000019 0 1 0 2.5 0 1.7763568394002505e-015 1 I I #
coedge $-1 -1 $-1 $604 $599 $595 $698 forward $592 $-1 #
edge $762 -1 $-1 $601 -6.1600000000000001 $699 -3.160000000000001 $595 $763 forward @7 unknown #
vertex $-1 -1 $-1 $608 $764 #
straight-curve $-1 -1 $-1 -7.8200000000000012 0.25 4.3000000000000007 0 0 1 I I #
point $-1 -1 $-1 -7.8200000000000012 0.25 6.370000000000001 #
convexity-sys-attrib $-1 -1 $-1 $-1 $600 #
straight-curve $-1 -1 $-1 -10.82 0 4.3000000000000007 0 1 0 I I #
point $-1 -1 $-1 -10.82 0.25 4.3000000000000007 #
convexity-sys-attrib $-1 -1 $-1 $-1 $608 #
straight-curve $-1 -1 $-1 -7.8200000000000003 0.125 4.3000000000000007 0 -1 0 I I #
straight-curve $-1 -1 $-1 3.0499999999999998 -0.24999999999999806 -16.718335877018106 0 1.2246063538223773e-016 1 I I #
point $-1 -1 $-1 3.0499999999999998 -0.24999999999999908 -25.116671754036211 #
point $-1 -1 $-1 3.0499999999999989 -0.24999999999999878 -22.616671754036211 #
straight-curve $-1 -1 $-1 3.0499999999999998 -7.7782511042874329e-016 -22.616671754036211 0 1 -1.2246063538223773e-016 I I #
convexity-sys-attrib $-1 -1 $-1 $-1 $628 #
straight-curve $-1 -1 $-1 3.0499999999999998 0 -25.116671754036204 0 -1 0 I I #
model_id-kcp-attrib $-1 -1 $-1 $-1 $633 1 1021562082 1021562082 -867958783 10 #
face $765 -1 $-1 $766 $767 $11 $-1 $768 reversed single #
loop $-1 -1 $-1 $-1 $769 $633 #
plane-surface $-1 -1 $-1 -7.370000000000001 0 3.0499999999999998 1 0 0 0 0 -1 forward_v I I I I #
coedge $-1 -1 $-1 $668 $770 $670 $754 forward $634 $-1 #
coedge $-1 -1 $-1 $636 $670 $638 $720 reversed $489 $-1 #
coedge $-1 -1 $-1 $771 $638 $770 $772 forward $110 $-1 #
edge $-1 -1 $-1 $722 0 $773 1.25 $638 $774 forward @7 unknown #
attrib_edge_convexity-kcp-attrib $-1 -1 $775 $-1 $639 1 #
vertex $-1 -1 $-1 $720 $776 #
straight-curve $-1 -1 $-1 -9.870000000000001 0 -4.2999999999999998 1 0 0 I I #
coedge $-1 -1 $-1 $642 $777 $778 $779 forward $110 $-1 #
coedge $-1 -1 $-1 $651 $650 $642 $726 forward $652 $-1 #
edge $780 -1 $-1 $727 0 $781 2.0700000000000003 $642 $782 forward @7 unknown #
vertex $-1 -1 $-1 $656 $783 #
straight-curve $-1 -1 $-1 9.2699999999999996 0 6.3700000000000001 -1 0 0 I I #
point $-1 -1 $-1 9.2699999999999996 0 6.3700000000000001 #
coedge $-1 -1 $-1 $667 $647 $784 $785 forward $52 $-1 #
coedge $-1 -1 $-1 $786 $787 $647 $732 forward $788 $-1 #
edge $789 -1 $-1 $790 0 $737 1.25 $731 $791 forward @7 unknown #
coedge $-1 -1 $-1 $778 $648 $651 $739 reversed $735 $-1 #
coedge $-1 -1 $-1 $648 $778 $786 $792 forward $735 $-1 #
loop $-1 -1 $-1 $-1 $734 $793 #
attrib_edge_convexity-kcp-attrib $-1 -1 $794 $-1 $649 1 #
vertex $-1 -1 $-1 $792 $795 #
straight-curve $-1 -1 $-1 -9.8699999999999992 -0.5 4.2999999999999998 1 0 0 I I #
edge $796 -1 $-1 $781 0 $654 0.5 $651 $797 forward @7 unknown #
face $798 -1 $-1 $657 $652 $11 $-1 $799 reversed single #
convexity-sys-attrib $-1 -1 $-1 $653 $505 #
point $-1 -1 $-1 -6.870000000000001 -0.5 4.2999999999999998 #
attrib_edge_convexity-kcp-attrib $-1 -1 $800 $-1 $656 1 #
straight-curve $-1 -1 $-1 -6.870000000000001 0 6.3700000000000001 0 -1 0 I I #
model_id-kcp-attrib $-1 -1 $-1 $-1 $657 1 1021562082 1021562082 -867958783 15 #
plane-surface $-1 -1 $-1 10 0 6.3700000000000001 0 0 1 -1 0 0 forward_v I I I I #
convexity-sys-attrib $-1 -1 $-1 $663 $518 #
coedge $-1 -1 $-1 $801 $769 $667 $749 reversed $715 $-1 #
edge $802 -1 $-1 $803 0 $752 6.0999999999999996 $667 $804 forward @7 unknown #
coedge $-1 -1 $-1 $770 $668 $769 $805 reversed $634 $-1 #
attrib_edge_convexity-kcp-attrib $-1 -1 $806 $-1 $669 1 #
vertex $-1 -1 $-1 $669 $807 #
straight-curve $-1 -1 $-1 -9.8699999999999992 -0.5 -3.0499999999999998 1 0 0 I I #
edge $-1 -1 $-1 $773 0 $672 0.5 $670 $808 forward @7 unknown #
convexity-sys-attrib $-1 -1 $-1 $671 $527 #
point $-1 -1 $-1 -9.8699999999999992 -0.5 -3.0499999999999998 #
attrib_edge_convexity-kcp-attrib $-1 -1 $809 $-1 $674 1 #
straight-curve $-1 -1 $-1 -9.8699999999999992 0 -4.2999999999999998 0 -1 0 I I #
convexity-sys-attrib $-1 -1 $-1 $-1 $685 #
straight-curve $-1 -1 $-1 -4.1600000000000001 -0.25 -4.3000000000000007 1 0 0 I I #
point $-1 -1 $-1 -5.8200000000000012 -0.25 -4.2999999999999989 #
convexity-sys-attrib $-1 -1 $-1 $-1 $698 #
straight-curve $-1 -1 $-1 -4.6600000000000001 0.25 4.3000000000000007 1 0 0 I I #
point $-1 -1 $-1 -7.8200000000000012 0.25 4.3000000000000007 #
model_id-kcp-attrib $-1 -1 $-1 $-1 $714 1 1021562082 1021562082 -867958783 11 #
face $810 -1 $-1 $793 $788 $11 $-1 $811 forward single #
loop $-1 -1 $-1 $-1 $812 $714 #
plane-surface $-1 -1 $-1 -9.870000000000001 0 3.0499999999999998 0 0 1 1 0 0 forward_v I I I I #
coedge $-1 -1 $-1 $748 $813 $750 $805 forward $715 $-1 #
coedge $-1 -1 $-1 $717 $750 $719 $772 reversed $634 $-1 #
coedge $-1 -1 $-1 $814 $719 $813 $815 reversed $110 $-1 #
edge $-1 -1 $-1 $773 1.7763568394002505e-015 $816 2.5 $719 $817 forward @7 unknown #
vertex $-1 -1 $-1 $772 $818 #
straight-curve $-1 -1 $-1 -9.870000000000001 0 -4.2999999999999998 0 0 1 I I #
convexity-sys-attrib $-1 -1 $-1 $721 $639 #
point $-1 -1 $-1 -9.8699999999999992 0 -4.2999999999999998 #
coedge $-1 -1 $-1 $724 $814 $819 $820 forward $110 $-1 #
coedge $-1 -1 $-1 $734 $733 $724 $779 reversed $735 $-1 #
edge $821 -1 $-1 $822 1.7763568394002505e-015 $781 3 $724 $823 forward @7 unknown #
attrib_edge_convexity-kcp-attrib $-1 -1 $824 $-1 $726 1 #
vertex $-1 -1 $-1 $726 $825 #
straight-curve $-1 -1 $-1 -6.870000000000001 0 6.3700000000000001 0 0 -1 I I #
point $-1 -1 $-1 -6.870000000000001 0 6.3700000000000001 #
coedge $-1 -1 $-1 $826 $812 $730 $785 reversed $767 $-1 #
edge $827 -1 $-1 $790 0 $803 2.4999999999999982 $730 $828 forward @7 unknown #
coedge $-1 -1 $-1 $819 $731 $734 $792 reversed $788 $-1 #
coedge $-1 -1 $-1 $731 $819 $826 $829 forward $788 $-1 #
loop $-1 -1 $-1 $-1 $819 $766 #
attrib_edge_convexity-kcp-attrib $-1 -1 $830 $-1 $732 1 #
vertex $-1 -1 $-1 $732 $831 #
straight-curve $-1 -1 $-1 -9.8699999999999992 -0.5 3.0499999999999998 0 0 1 I I #
edge $832 -1 $-1 $822 0 $737 0.5 $786 $833 forward @7 unknown #
face $834 -1 $-1 $740 $735 $11 $-1 $835 reversed single #
convexity-sys-attrib $-1 -1 $-1 $736 $649 #
point $-1 -1 $-1 -9.8699999999999992 -0.5 4.2999999999999998 #
attrib_edge_convexity-kcp-attrib $-1 -1 $836 $-1 $739 2 #
straight-curve $-1 -1 $-1 -6.870000000000001 0 4.2999999999999998 0 -1 0 I I #
model_id-kcp-attrib $-1 -1 $-1 $-1 $740 1 1021562082 1021562082 -867958783 14 #
plane-surface $-1 -1 $-1 -6.870000000000001 0 6.3700000000000001 1 0 0 0 0 -1 forward_v I I I I #
convexity-sys-attrib $-1 -1 $-1 $743 $656 #
coedge $-1 -1 $-1 $813 $748 $812 $837 reversed $715 $-1 #
attrib_edge_convexity-kcp-attrib $-1 -1 $838 $-1 $749 1 #
vertex $-1 -1 $-1 $749 $839 #
straight-curve $-1 -1 $-1 -7.370000000000001 -0.5 3.0499999999999998 0 0 -1 I I #
edge $840 -1 $-1 $816 0 $752 0.5 $769 $841 forward @7 unknown #
convexity-sys-attrib $-1 -1 $-1 $751 $669 #
point $-1 -1 $-1 -7.3699999999999992 -0.5 -3.0499999999999998 #
straight-curve $-1 -1 $-1 -9.8699999999999992 0 -3.0499999999999998 0 -1 0 I I #
convexity-sys-attrib $-1 -1 $-1 $757 $674 #
model_id-kcp-attrib $-1 -1 $-1 $-1 $766 1 1021562082 1021562082 -867958783 12 #
plane-surface $-1 -1 $-1 -9.8699999999999992 0 -6.3700000000000001 -1 0 0 0 -1 0 forward_v I I I I #
coedge $-1 -1 $-1 $784 $842 $801 $837 forward $767 $-1 #
coedge $-1 -1 $-1 $769 $801 $771 $815 forward $715 $-1 #
coedge $-1 -1 $-1 $777 $771 $842 $843 reversed $110 $-1 #
edge $844 -1 $-1 $845 0 $816 6.0999999999999996 $771 $846 forward @7 unknown #
vertex $-1 -1 $-1 $815 $847 #
straight-curve $-1 -1 $-1 -9.870000000000001 0 -3.0499999999999998 1 0 0 I I #
point $-1 -1 $-1 -9.8699999999999992 0 -3.0499999999999998 #
coedge $-1 -1 $-1 $787 $786 $777 $820 reversed $788 $-1 #
edge $-1 -1 $-1 $848 0 $822 1.25 $777 $849 forward @7 unknown #
attrib_edge_convexity-kcp-attrib $-1 -1 $850 $-1 $779 1 #
vertex $-1 -1 $-1 $779 $851 #
straight-curve $-1 -1 $-1 -9.870000000000001 0 4.2999999999999998 1 0 0 I I #
convexity-sys-attrib $-1 -1 $-1 $780 $726 #
point $-1 -1 $-1 -6.870000000000001 0 4.2999999999999998 #
coedge $-1 -1 $-1 $842 $784 $787 $829 reversed $767 $-1 #
attrib_edge_convexity-kcp-attrib $-1 -1 $852 $-1 $785 1 #
straight-curve $-1 -1 $-1 -9.8699999999999992 -0.5 3.0499999999999998 1 0 0 I I #
edge $-1 -1 $-1 $848 0 $790 0.5 $787 $853 forward @7 unknown #
convexity-sys-attrib $-1 -1 $-1 $789 $732 #
point $-1 -1 $-1 -9.8699999999999992 -0.5 3.0499999999999998 #
attrib_edge_convexity-kcp-attrib $-1 -1 $854 $-1 $792 1 #
straight-curve $-1 -1 $-1 -9.8699999999999992 0 4.2999999999999998 0 -1 0 I I #
model_id-kcp-attrib $-1 -1 $-1 $-1 $793 1 1021562082 1021562082 -867958783 13 #
plane-surface $-1 -1 $-1 -6.870000000000001 0 4.2999999999999998 0 0 -1 -1 0 0 forward_v I I I I #
convexity-sys-attrib $-1 -1 $-1 $796 $739 #
edge $855 -1 $-1 $845 0 $803 0.5 $812 $856 forward @7 unknown #
convexity-sys-attrib $-1 -1 $-1 $802 $749 #
point $-1 -1 $-1 -7.370000000000001 -0.5 3.0499999999999998 #
attrib_edge_convexity-kcp-attrib $-1 -1 $857 $-1 $805 2 #
straight-curve $-1 -1 $-1 -7.370000000000001 0 -3.0499999999999998 0 -1 0 I I #
coedge $-1 -1 $-1 $812 $826 $814 $843 forward $767 $-1 #
edge $-1 -1 $-1 $848 0 $845 2.5 $814 $858 forward @7 unknown #
attrib_edge_convexity-kcp-attrib $-1 -1 $859 $-1 $815 1 #
vertex $-1 -1 $-1 $843 $860 #
straight-curve $-1 -1 $-1 -7.370000000000001 0 3.0499999999999998 0 0 -1 I I #
point $-1 -1 $-1 -7.370000000000001 0 -3.0499999999999998 #
vertex $-1 -1 $-1 $820 $861 #
straight-curve $-1 -1 $-1 -9.870000000000001 0 3.0499999999999998 0 0 1 I I #
convexity-sys-attrib $-1 -1 $-1 $821 $779 #
point $-1 -1 $-1 -9.8699999999999992 0 4.2999999999999998 #
convexity-sys-attrib $-1 -1 $-1 $827 $785 #
straight-curve $-1 -1 $-1 -9.8699999999999992 0 3.0499999999999998 0 -1 0 I I #
convexity-sys-attrib $-1 -1 $-1 $832 $792 #
attrib_edge_convexity-kcp-attrib $-1 -1 $862 $-1 $837 2 #
straight-curve $-1 -1 $-1 -7.370000000000001 0 3.0499999999999998 0 -1 0 I I #
convexity-sys-attrib $-1 -1 $-1 $840 $805 #
straight-curve $-1 -1 $-1 -9.870000000000001 0 3.0499999999999998 1 0 0 I I #
convexity-sys-attrib $-1 -1 $-1 $844 $815 #
point $-1 -1 $-1 -7.370000000000001 0 3.0499999999999998 #
point $-1 -1 $-1 -9.870000000000001 0 3.0499999999999998 #
convexity-sys-attrib $-1 -1 $-1 $855 $837 #
End-of-ACIS-data 