700 0 2 0           
24 FBMach with ACIS - 7.0.3 13 ACIS 7.0.3 NT 24 Thu May 16 14:54:32 2002 
1 9.9999999999999995e-007 1e-010 
body $2 -1 $-1 $3 $-1 $4 #
bdycol-kcp $-1 -1 1 6 $5 $6 $7 $8 $9 $10 #
model_id-kcp-attrib $-1 -1 $-1 $-1 $0 1 1021575271 1021575271 -176095231 1 #
lump $-1 -1 $-1 $-1 $11 $0 #
transform $-1 -1 1 0 0 0 1 0 0 0 1 0 0 0 1 rotate no_reflect no_shear #
body $12 -1 $-1 $13 $-1 $-1 #
body $14 -1 $-1 $15 $-1 $-1 #
body $16 -1 $-1 $17 $-1 $18 #
body $19 -1 $-1 $20 $-1 $21 #
body $22 -1 $-1 $23 $-1 $24 #
body $25 -1 $-1 $26 $-1 $27 #
shell $-1 -1 $-1 $-1 $-1 $28 $-1 $3 #
rgb_color-st-attrib $-1 -1 $29 $-1 $5 0.5 1 1 #
lump $-1 -1 $-1 $-1 $30 $5 #
rgb_color-st-attrib $-1 -1 $31 $-1 $6 0.5 1 1 #
lump $-1 -1 $-1 $-1 $32 $6 #
model_id-kcp-attrib $-1 -1 $-1 $-1 $7 1 1021575271 1021575271 -175439870 1 #
lump $-1 -1 $-1 $-1 $33 $7 #
transform $-1 -1 1 0 0 0 1 0 0 0 1 0.95000000000000018 -0.25 -8.8817841970012523e-016 1 no_rotate no_reflect no_shear #
rgb_color-st-attrib $-1 -1 $34 $-1 $8 1 0 0 #
lump $-1 -1 $-1 $-1 $35 $8 #
transform $-1 -1 3.8285889215894375e-016 -4.6885143195523885e-032 -1 -1.2246063538223773e-016 -1 0 -1 1.2246063538223773e-016 -3.8285889215894375e-016 -32.486671754036209 -0.24999999999999603 -9.7732758985811777e-015 1 rotate no_reflect no_shear #
rgb_color-st-attrib $-1 -1 $36 $-1 $9 1 0.5 1 #
lump $-1 -1 $-1 $-1 $37 $9 #
transform $-1 -1 1 0 0 0 1 0 0 0 1 0.95000000000000018 -0.25 -8.8817841970012523e-016 1 no_rotate no_reflect no_shear #
rgb_color-st-attrib $-1 -1 $38 $-1 $10 1 0.5 1 #
lump $-1 -1 $-1 $-1 $39 $10 #
transform $-1 -1 1 0 0 0 1 0 0 0 1 0.95000000000000018 -0.25 -8.8817841970012523e-016 1 no_rotate no_reflect no_shear #
face $40 -1 $-1 $41 $42 $11 $-1 $43 reversed single #
model_id-kcp-attrib $-1 -1 $-1 $12 $5 1 1021575271 1021575271 -181731325 1 #
shell $-1 -1 $-1 $-1 $-1 $44 $-1 $13 #
model_id-kcp-attrib $-1 -1 $-1 $14 $6 1 1021575271 1021575271 -180420604 1 #
shell $-1 -1 $-1 $-1 $-1 $45 $-1 $15 #
shell $-1 -1 $-1 $-1 $-1 $46 $-1 $17 #
model_id-kcp-attrib $-1 -1 $-1 $19 $8 1 1021575271 1021575271 -172556283 1 #
shell $-1 -1 $-1 $-1 $-1 $47 $-1 $20 #
model_id-kcp-attrib $-1 -1 $-1 $22 $9 1 1021575271 1021575272 -178520058 1 #
shell $-1 -1 $-1 $-1 $-1 $48 $-1 $23 #
model_id-kcp-attrib $-1 -1 $-1 $25 $10 1 1021575271 1021575272 -173277177 1 #
shell $-1 -1 $-1 $-1 $-1 $49 $-1 $26 #
model_id-kcp-attrib $-1 -1 $-1 $-1 $28 1 1021575271 1021575271 -176095231 2 #
face $50 -1 $-1 $51 $52 $11 $-1 $53 forward single #
loop $-1 -1 $-1 $-1 $54 $28 #
plane-surface $-1 -1 $-1 -10 0 -6.3700000000000001 0 0 1 -1 0 0 forward_v I I I I #
face $-1 -1 $-1 $55 $56 $30 $-1 $57 forward single #
face $-1 -1 $-1 $58 $59 $32 $-1 $60 forward single #
face $61 -1 $-1 $62 $63 $33 $-1 $64 forward single #
face $-1 -1 $-1 $65 $66 $35 $-1 $67 reversed single #
face $-1 -1 $-1 $68 $69 $37 $-1 $70 forward single #
face $-1 -1 $-1 $71 $72 $39 $-1 $73 forward single #
model_id-kcp-attrib $-1 -1 $-1 $-1 $41 1 1021575271 1021575271 -176095231 3 #
face $74 -1 $-1 $75 $76 $11 $-1 $77 forward single #
loop $-1 -1 $-1 $-1 $78 $41 #
plane-surface $-1 -1 $-1 -9.8699999999999992 -0.5 -6.3700000000000001 0 -1 0 1 0 0 forward_v I I I I #
coedge $-1 -1 $-1 $79 $80 $81 $82 reversed $42 $-1 #
face $-1 -1 $-1 $83 $84 $30 $-1 $85 forward single #
loop $-1 -1 $-1 $-1 $86 $44 #
plane-surface $-1 -1 $-1 11.77 -0.5 3.8700000000000001 1 0 0 0 0 -1 forward_v I I I I #
face $-1 -1 $-1 $87 $88 $32 $-1 $89 forward single #
loop $-1 -1 $-1 $-1 $90 $45 #
plane-surface $-1 -1 $-1 11.77 0 -3.8700000000000001 1 0 0 0 0 -1 forward_v I I I I #
model_id-kcp-attrib $-1 -1 $-1 $-1 $46 1 1021575271 1021575271 -175439870 8 #
face $91 -1 $-1 $92 $93 $33 $-1 $94 reversed single #
loop $-1 -1 $-1 $-1 $95 $46 #
plane-surface $-1 -1 $-1 0 0 6.370000000000001 0 0 1 1 0 0 forward_v I I I I #
face $-1 -1 $-1 $96 $97 $35 $-1 $98 reversed single #
loop $-1 -1 $-1 $-1 $99 $47 #
plane-surface $-1 -1 $-1 3.9164296263514975e-015 0.24999999999999989 -33.436671754036212 -4.6885143195523885e-032 -1 1.2246063538223773e-016 -1 0 -3.8285889215894375e-016 forward_v I I I I #
face $-1 -1 $-1 $100 $101 $37 $-1 $102 forward single #
loop $-1 -1 $-1 $-1 $103 $48 #
plane-surface $-1 -1 $-1 -5.8200000000000012 0.25 -4.2999999999999989 0 1 0 0 0 1 forward_v I I I I #
face $-1 -1 $-1 $104 $105 $39 $-1 $106 forward single #
loop $-1 -1 $-1 $-1 $107 $49 #
plane-surface $-1 -1 $-1 -7.8200000000000012 -0.25 4.3000000000000007 0 -1 0 0 0 -1 forward_v I I I I #
model_id-kcp-attrib $-1 -1 $-1 $-1 $51 1 1021575271 1021575271 -176095231 4 #
face $108 -1 $-1 $109 $110 $11 $-1 $111 forward single #
loop $-1 -1 $-1 $-1 $112 $51 #
plane-surface $-1 -1 $-1 11.77 -0.5 -6.3700000000000001 1 0 0 0 1 0 forward_v I I I I #
coedge $-1 -1 $-1 $113 $114 $115 $116 forward $52 $-1 #
coedge $-1 -1 $-1 $117 $54 $118 $119 reversed $42 $-1 #
coedge $-1 -1 $-1 $54 $117 $120 $121 forward $42 $-1 #
coedge $-1 -1 $-1 $114 $122 $54 $82 forward $52 $-1 #
edge $123 -1 $-1 $124 0 $125 14.140000000000001 $54 $126 forward @7 unknown #
face $-1 -1 $-1 $127 $128 $30 $-1 $129 forward single #
loop $-1 -1 $-1 $-1 $130 $55 #
plane-surface $-1 -1 $-1 11.77 -0.5 6.3700000000000001 0 0 1 1 0 0 forward_v I I I I #
coedge $-1 -1 $-1 $131 $132 $133 $134 forward $56 $-1 #
face $-1 -1 $-1 $135 $136 $32 $-1 $137 forward single #
loop $-1 -1 $-1 $-1 $138 $58 #
plane-surface $-1 -1 $-1 11.77 0 -6.3700000000000001 0 0 -1 -1 0 0 forward_v I I I I #
coedge $-1 -1 $-1 $139 $140 $141 $142 forward $59 $-1 #
model_id-kcp-attrib $-1 -1 $-1 $-1 $62 1 1021575271 1021575271 -175439870 2 #
face $143 -1 $-1 $144 $145 $33 $-1 $146 reversed single #
loop $-1 -1 $-1 $-1 $147 $62 #
plane-surface $-1 -1 $-1 0 0 -6.370000000000001 0 0 1 1 0 0 forward_v I I I I #
coedge $-1 -1 $-1 $148 $149 $150 $151 forward $63 $-1 #
face $-1 -1 $-1 $152 $153 $35 $-1 $154 reversed single #
loop $-1 -1 $-1 $-1 $155 $65 #
plane-surface $-1 -1 $-1 3.9164296263514975e-015 -0.25000000000000011 -33.436671754036212 4.6885143195523885e-032 1 -1.2246063538223773e-016 1 0 3.8285889215894375e-016 forward_v I I I I #
coedge $-1 -1 $-1 $156 $157 $158 $159 forward $66 $-1 #
face $-1 -1 $-1 $160 $161 $37 $-1 $162 forward single #
loop $-1 -1 $-1 $-1 $163 $68 #
plane-surface $-1 -1 $-1 -10.82 0.25 -4.3000000000000007 -1 0 0 0 0 1 forward_v I I I I #
coedge $-1 -1 $-1 $164 $165 $166 $167 forward $69 $-1 #
face $-1 -1 $-1 $168 $169 $39 $-1 $170 forward single #
loop $-1 -1 $-1 $-1 $171 $71 #
plane-surface $-1 -1 $-1 -10.82 -0.25 4.3000000000000007 -1 0 0 0 0 1 forward_v I I I I #
coedge $-1 -1 $-1 $172 $173 $174 $175 forward $72 $-1 #
model_id-kcp-attrib $-1 -1 $-1 $-1 $75 1 1021575271 1021575271 -176095231 5 #
face $176 -1 $-1 $177 $178 $11 $-1 $179 reversed single #
loop $-1 -1 $-1 $-1 $180 $75 #
plane-surface $-1 -1 $-1 11.77 0 -6.3700000000000001 0 1 0 -1 0 0 forward_v I I I I #
coedge $-1 -1 $-1 $181 $182 $183 $184 forward $76 $-1 #
coedge $-1 -1 $-1 $185 $78 $186 $187 forward $52 $-1 #
coedge $-1 -1 $-1 $78 $81 $188 $189 forward $52 $-1 #
coedge $-1 -1 $-1 $182 $181 $78 $116 reversed $76 $-1 #
edge $190 -1 $-1 $191 0 $192 7.7400000000000002 $78 $193 forward @7 unknown #
coedge $-1 -1 $-1 $80 $79 $180 $194 reversed $42 $-1 #
coedge $-1 -1 $-1 $195 $196 $79 $119 forward $178 $-1 #
edge $197 -1 $-1 $198 0 $124 0.5 $79 $199 forward @7 unknown #
coedge $-1 -1 $-1 $200 $188 $80 $121 reversed $201 $-1 #
edge $202 -1 $-1 $203 0 $125 0.5 $80 $204 forward @7 unknown #
coedge $-1 -1 $-1 $81 $205 $195 $206 reversed $52 $-1 #
attrib_edge_convexity-kcp-attrib $-1 -1 $207 $-1 $82 1 #
vertex $-1 -1 $-1 $119 $208 #
vertex $-1 -1 $-1 $121 $209 #
straight-curve $-1 -1 $-1 -4.870000000000001 -0.5 -6.3700000000000001 1 0 0 I I #
face $-1 -1 $-1 $210 $211 $30 $-1 $212 forward single #
loop $-1 -1 $-1 $-1 $213 $83 #
cone-surface $-1 -1 $-1 9.2700000000000014 -0.5 3.8700000000000001 0 1 0 2.4999999999999982 0 0 1 I I 0 -1 2.4999999999999982 forward I I I I #
coedge $-1 -1 $-1 $214 $215 $216 $217 forward $84 $-1 #
coedge $-1 -1 $-1 $218 $86 $215 $219 reversed $56 $-1 #
coedge $-1 -1 $-1 $86 $218 $220 $221 forward $56 $-1 #
coedge $-1 -1 $-1 $222 $216 $86 $134 reversed $211 $-1 #
edge $-1 -1 $-1 $223 0 $224 2.5 $86 $225 forward @7 unknown #
face $-1 -1 $-1 $226 $227 $32 $-1 $228 reversed single #
loop $-1 -1 $-1 $-1 $229 $87 #
cone-surface $-1 -1 $-1 9.2699999999999996 0 -3.8700000000000019 0 -1 0 2.5 0 1.7763568394002505e-015 1 I I 0 -1 2.5 forward I I I I #
coedge $-1 -1 $-1 $230 $231 $232 $233 forward $88 $-1 #
coedge $-1 -1 $-1 $234 $90 $231 $235 reversed $59 $-1 #
coedge $-1 -1 $-1 $90 $234 $236 $237 forward $59 $-1 #
coedge $-1 -1 $-1 $238 $232 $90 $142 reversed $227 $-1 #
edge $-1 -1 $-1 $239 0 $240 2.5 $90 $241 forward @7 unknown #
model_id-kcp-attrib $-1 -1 $-1 $-1 $92 1 1021575271 1021575271 -175439870 3 #
face $242 -1 $-1 $243 $244 $33 $-1 $245 reversed single #
loop $-1 -1 $-1 $-1 $246 $92 #
plane-surface $-1 -1 $-1 0 -0.25 0 0 1 0 0 0 1 forward_v I I I I #
coedge $-1 -1 $-1 $247 $248 $249 $250 forward $93 $-1 #
coedge $-1 -1 $-1 $251 $95 $252 $253 forward $63 $-1 #
coedge $-1 -1 $-1 $95 $251 $254 $255 forward $63 $-1 #
coedge $-1 -1 $-1 $256 $257 $95 $151 reversed $258 $-1 #
edge $-1 -1 $-1 $259 -0.25 $260 0.25 $150 $261 forward @7 unknown #
face $-1 -1 $-1 $262 $263 $35 $-1 $264 reversed single #
loop $-1 -1 $-1 $-1 $265 $96 #
plane-surface $-1 -1 $-1 -2.2610358680827392e-016 1.2140017723732966e-015 -22.616671754036211 3.8285889215894375e-016 -1.2246063538223773e-016 -1 1 0 3.8285889215894375e-016 forward_v I I I I #
coedge $-1 -1 $-1 $266 $267 $268 $269 forward $97 $-1 #
coedge $-1 -1 $-1 $270 $99 $271 $272 forward $66 $-1 #
coedge $-1 -1 $-1 $99 $270 $273 $274 forward $66 $-1 #
coedge $-1 -1 $-1 $275 $276 $99 $159 reversed $263 $-1 #
edge $-1 -1 $-1 $277 -8.3983358770181056 $278 -5.8983358770181056 $158 $279 forward @7 unknown #
face $-1 -1 $-1 $280 $281 $37 $-1 $282 forward single #
loop $-1 -1 $-1 $-1 $283 $100 #
plane-surface $-1 -1 $-1 -10.82 -0.25 -4.3000000000000007 0 -1 0 0 0 -1 forward_v I I I I #
coedge $-1 -1 $-1 $284 $285 $286 $287 forward $101 $-1 #
coedge $-1 -1 $-1 $288 $103 $285 $289 reversed $69 $-1 #
coedge $-1 -1 $-1 $103 $288 $290 $291 forward $69 $-1 #
coedge $-1 -1 $-1 $292 $286 $103 $167 reversed $293 $-1 #
edge $-1 -1 $-1 $294 1.660000000000001 $295 6.6600000000000001 $103 $296 forward @7 unknown #
face $-1 -1 $-1 $297 $298 $39 $-1 $299 forward single #
loop $-1 -1 $-1 $-1 $300 $104 #
plane-surface $-1 -1 $-1 -10.82 0.25 4.3000000000000007 0 1 0 0 0 1 forward_v I I I I #
coedge $-1 -1 $-1 $301 $302 $303 $304 forward $105 $-1 #
coedge $-1 -1 $-1 $305 $107 $302 $306 reversed $72 $-1 #
coedge $-1 -1 $-1 $107 $305 $307 $308 forward $72 $-1 #
coedge $-1 -1 $-1 $309 $303 $107 $175 reversed $310 $-1 #
edge $-1 -1 $-1 $311 3.160000000000001 $312 6.1600000000000001 $107 $313 forward @7 unknown #
model_id-kcp-attrib $-1 -1 $-1 $-1 $109 1 1021575271 1021575271 -176095231 6 #
face $314 -1 $-1 $315 $316 $11 $-1 $317 reversed single #
loop $-1 -1 $-1 $-1 $195 $109 #
plane-surface $-1 -1 $-1 -4.870000000000001 0 -4.2999999999999998 1 0 0 0 0 -1 forward_v I I I I #
coedge $-1 -1 $-1 $318 $319 $117 $194 forward $110 $-1 #
coedge $-1 -1 $-1 $115 $112 $320 $321 reversed $76 $-1 #
coedge $-1 -1 $-1 $112 $115 $322 $323 reversed $76 $-1 #
coedge $-1 -1 $-1 $319 $324 $112 $184 reversed $110 $-1 #
edge $325 -1 $-1 $326 0 $327 7.7399999999999984 $183 $328 forward @7 unknown #
coedge $-1 -1 $-1 $329 $113 $330 $331 reversed $52 $-1 #
coedge $-1 -1 $-1 $320 $332 $113 $187 reversed $333 $-1 #
edge $334 -1 $-1 $192 0 $335 1.5707963267948974 $113 $336 forward @7 unknown #
coedge $-1 -1 $-1 $120 $322 $114 $189 reversed $201 $-1 #
edge $337 -1 $-1 $125 0 $191 1.5707963267948952 $114 $338 forward @7 unknown #
attrib_edge_convexity-kcp-attrib $-1 -1 $339 $-1 $116 1 #
vertex $-1 -1 $-1 $189 $340 #
vertex $-1 -1 $-1 $187 $341 #
straight-curve $-1 -1 $-1 11.770000000000001 -0.5 -3.8700000000000001 0 0 1 I I #
edge $342 -1 $-1 $203 0 $198 14.140000000000001 $117 $343 forward @7 unknown #
coedge $-1 -1 $-1 $344 $118 $122 $206 forward $178 $-1 #
coedge $-1 -1 $-1 $118 $344 $318 $345 reversed $178 $-1 #
attrib_edge_convexity-kcp-attrib $-1 -1 $346 $-1 $119 1 #
vertex $-1 -1 $-1 $194 $347 #
straight-curve $-1 -1 $-1 -4.870000000000001 0 -6.3700000000000001 0 -1 0 I I #
coedge $-1 -1 $-1 $322 $120 $319 $348 reversed $201 $-1 #
loop $-1 -1 $-1 $-1 $200 $349 #
attrib_edge_convexity-kcp-attrib $-1 -1 $350 $-1 $121 3 #
vertex $-1 -1 $-1 $121 $351 #
straight-curve $-1 -1 $-1 9.2699999999999996 0 -6.3700000000000001 0 -1 0 I I #
coedge $-1 -1 $-1 $122 $352 $353 $354 forward $52 $-1 #
edge $355 -1 $-1 $124 0 $356 2.0700000000000003 $122 $357 forward @7 unknown #
convexity-sys-attrib $-1 -1 $-1 $123 $82 #
point $-1 -1 $-1 -4.870000000000001 -0.5 -6.3700000000000001 #
point $-1 -1 $-1 9.2699999999999996 -0.5 -6.3700000000000001 #
face $-1 -1 $-1 $-1 $358 $30 $-1 $359 reversed single #
loop $-1 -1 $-1 $-1 $133 $127 #
plane-surface $-1 -1 $-1 11.0053417157418 0 5.6053417157418002 0 1 0 0 0 1 forward_v I I I I #
coedge $-1 -1 $-1 $220 $360 $222 $361 forward $128 $-1 #
coedge $-1 -1 $-1 $362 $130 $360 $363 reversed $84 $-1 #
coedge $-1 -1 $-1 $130 $362 $131 $219 forward $84 $-1 #
coedge $-1 -1 $-1 $133 $222 $130 $217 reversed $211 $-1 #
edge $-1 -1 $-1 $224 0 $364 2.5 $130 $365 forward @7 unknown #
coedge $-1 -1 $-1 $132 $131 $366 $367 reversed $56 $-1 #
edge $-1 -1 $-1 $368 0 $224 0.5 $215 $369 forward @7 unknown #
coedge $-1 -1 $-1 $370 $213 $132 $221 reversed $128 $-1 #
edge $-1 -1 $-1 $371 0 $223 0.5 $132 $372 forward @7 unknown #
coedge $-1 -1 $-1 $216 $133 $213 $361 reversed $211 $-1 #
vertex $-1 -1 $-1 $221 $373 #
vertex $-1 -1 $-1 $219 $374 #
straight-curve $-1 -1 $-1 11.77 0 3.8700000000000001 0 0 1 I I #
face $-1 -1 $-1 $-1 $375 $32 $-1 $376 forward single #
loop $-1 -1 $-1 $-1 $141 $135 #
plane-surface $-1 -1 $-1 11.005341715741801 -0.5 -5.605341715741802 0 1 0 0 0 1 forward_v I I I I #
coedge $-1 -1 $-1 $236 $377 $238 $378 forward $136 $-1 #
coedge $-1 -1 $-1 $379 $138 $377 $380 reversed $88 $-1 #
coedge $-1 -1 $-1 $138 $379 $139 $235 forward $88 $-1 #
coedge $-1 -1 $-1 $141 $238 $138 $233 reversed $227 $-1 #
edge $-1 -1 $-1 $240 0 $381 2.5 $138 $382 forward @7 unknown #
coedge $-1 -1 $-1 $140 $139 $383 $384 reversed $59 $-1 #
edge $-1 -1 $-1 $385 0 $240 0.5 $231 $386 forward @7 unknown #
coedge $-1 -1 $-1 $387 $229 $140 $237 reversed $136 $-1 #
edge $-1 -1 $-1 $388 0 $239 0.5 $140 $389 forward @7 unknown #
coedge $-1 -1 $-1 $232 $141 $229 $378 reversed $227 $-1 #
vertex $-1 -1 $-1 $237 $390 #
vertex $-1 -1 $-1 $235 $391 #
straight-curve $-1 -1 $-1 11.77 -0.5 -3.8700000000000001 0 0 -1 I I #
model_id-kcp-attrib $-1 -1 $-1 $-1 $144 1 1021575271 1021575271 -175439870 6 #
face $392 -1 $-1 $393 $394 $33 $-1 $395 reversed single #
loop $-1 -1 $-1 $-1 $396 $144 #
plane-surface $-1 -1 $-1 -10.82 0 0 1 0 0 0 0 -1 forward_v I I I I #
coedge $-1 -1 $-1 $397 $254 $398 $399 forward $145 $-1 #
coedge $-1 -1 $-1 $400 $147 $397 $401 forward $93 $-1 #
coedge $-1 -1 $-1 $147 $400 $402 $403 forward $93 $-1 #
coedge $-1 -1 $-1 $257 $256 $147 $250 reversed $258 $-1 #
edge $-1 -1 $-1 $404 -0.25 $405 0.25 $249 $406 forward @7 unknown #
coedge $-1 -1 $-1 $149 $148 $407 $408 forward $63 $-1 #
coedge $-1 -1 $-1 $409 $410 $148 $253 reversed $394 $-1 #
edge $-1 -1 $-1 $260 -10.82 $411 10.82 $252 $412 forward @7 unknown #
coedge $-1 -1 $-1 $246 $413 $149 $255 reversed $145 $-1 #
edge $-1 -1 $-1 $414 -10.82 $259 10.82 $254 $415 forward @7 unknown #
coedge $-1 -1 $-1 $249 $150 $413 $416 forward $258 $-1 #
coedge $-1 -1 $-1 $150 $249 $409 $417 reversed $258 $-1 #
loop $-1 -1 $-1 $-1 $256 $393 #
vertex $-1 -1 $-1 $151 $418 #
vertex $-1 -1 $-1 $151 $419 #
straight-curve $-1 -1 $-1 10.82 0 6.370000000000001 0 1 0 I I #
face $-1 -1 $-1 $420 $421 $35 $-1 $422 reversed single #
loop $-1 -1 $-1 $-1 $268 $152 #
plane-surface $-1 -1 $-1 -3.0499999999999998 0 0 1 0 0 0 0 -1 forward_v I I I I #
coedge $-1 -1 $-1 $423 $271 $276 $424 forward $153 $-1 #
coedge $-1 -1 $-1 $425 $155 $426 $427 forward $97 $-1 #
coedge $-1 -1 $-1 $155 $425 $423 $428 reversed $97 $-1 #
coedge $-1 -1 $-1 $276 $275 $155 $269 reversed $263 $-1 #
edge $-1 -1 $-1 $429 5.8983358770181056 $430 8.3983358770181056 $268 $431 forward @7 unknown #
coedge $-1 -1 $-1 $157 $156 $432 $433 forward $66 $-1 #
coedge $-1 -1 $-1 $265 $434 $156 $272 reversed $153 $-1 #
edge $-1 -1 $-1 $278 -3.0500000000000003 $435 3.0499999999999994 $271 $436 forward @7 unknown #
coedge $-1 -1 $-1 $437 $438 $157 $274 reversed $421 $-1 #
edge $439 -1 $-1 $440 -3.049999999999998 $277 3.0500000000000016 $273 $441 forward @7 unknown #
coedge $-1 -1 $-1 $268 $158 $438 $442 reversed $263 $-1 #
coedge $-1 -1 $-1 $158 $268 $265 $424 reversed $263 $-1 #
vertex $-1 -1 $-1 $274 $443 #
vertex $-1 -1 $-1 $159 $444 #
straight-curve $-1 -1 $-1 -3.0499999999999998 0.25000000000000194 -16.718335877018106 0 1.2246063538223773e-016 1 I I #
face $-1 -1 $-1 $445 $293 $37 $-1 $446 reversed single #
loop $-1 -1 $-1 $-1 $447 $160 #
plane-surface $-1 -1 $-1 -5.8200000000000012 -0.25 -4.2999999999999989 1 0 0 0 0 -1 forward_v I I I I #
coedge $-1 -1 $-1 $448 $449 $450 $451 forward $161 $-1 #
coedge $-1 -1 $-1 $452 $163 $449 $453 reversed $101 $-1 #
coedge $-1 -1 $-1 $163 $452 $164 $289 forward $101 $-1 #
coedge $-1 -1 $-1 $166 $450 $163 $287 reversed $293 $-1 #
edge $-1 -1 $-1 $295 -0.25 $454 0.25 $163 $455 forward @7 unknown #
coedge $-1 -1 $-1 $165 $164 $456 $457 reversed $69 $-1 #
edge $-1 -1 $-1 $458 0 $295 2.0700000000000003 $285 $459 forward @7 unknown #
coedge $-1 -1 $-1 $460 $447 $165 $291 reversed $281 $-1 #
edge $-1 -1 $-1 $461 0 $294 2.0700000000000003 $165 $462 forward @7 unknown #
coedge $-1 -1 $-1 $450 $166 $447 $463 reversed $293 $-1 #
loop $-1 -1 $-1 $-1 $166 $280 #
vertex $-1 -1 $-1 $291 $464 #
vertex $-1 -1 $-1 $289 $465 #
straight-curve $-1 -1 $-1 -4.1600000000000001 0.25 -6.370000000000001 -1 0 0 I I #
face $-1 -1 $-1 $466 $310 $39 $-1 $467 forward single #
loop $-1 -1 $-1 $-1 $468 $168 #
plane-surface $-1 -1 $-1 -7.8200000000000012 0.25 4.3000000000000007 1 0 0 0 0 -1 forward_v I I I I #
coedge $-1 -1 $-1 $469 $470 $471 $472 forward $169 $-1 #
coedge $-1 -1 $-1 $473 $171 $470 $474 reversed $105 $-1 #
coedge $-1 -1 $-1 $171 $473 $172 $306 forward $105 $-1 #
coedge $-1 -1 $-1 $174 $471 $171 $304 reversed $310 $-1 #
edge $-1 -1 $-1 $312 -0.25 $475 0.25 $171 $476 forward @7 unknown #
coedge $-1 -1 $-1 $173 $172 $477 $478 reversed $72 $-1 #
edge $-1 -1 $-1 $479 0 $312 2.0700000000000003 $302 $480 forward @7 unknown #
coedge $-1 -1 $-1 $481 $468 $173 $308 reversed $298 $-1 #
edge $-1 -1 $-1 $482 0 $311 2.0700000000000003 $173 $483 forward @7 unknown #
coedge $-1 -1 $-1 $471 $174 $468 $484 reversed $310 $-1 #
loop $-1 -1 $-1 $-1 $174 $297 #
vertex $-1 -1 $-1 $308 $485 #
vertex $-1 -1 $-1 $306 $486 #
straight-curve $-1 -1 $-1 -4.6600000000000001 -0.25 6.370000000000001 -1 0 0 I I #
model_id-kcp-attrib $-1 -1 $-1 $-1 $177 1 1021575271 1021575271 -176095231 7 #
face $487 -1 $-1 $488 $489 $11 $-1 $490 forward single #
loop $-1 -1 $-1 $-1 $491 $177 #
plane-surface $-1 -1 $-1 -9.870000000000001 0 -4.2999999999999998 0 0 1 1 0 0 forward_v I I I I #
coedge $-1 -1 $-1 $492 $180 $196 $345 forward $110 $-1 #
coedge $-1 -1 $-1 $180 $183 $200 $348 forward $110 $-1 #
coedge $-1 -1 $-1 $493 $186 $181 $321 forward $333 $-1 #
edge $494 -1 $-1 $192 0 $327 0.5 $181 $495 forward @7 unknown #
coedge $-1 -1 $-1 $188 $200 $182 $323 forward $201 $-1 #
edge $496 -1 $-1 $326 0 $191 0.5 $182 $497 forward @7 unknown #
coedge $-1 -1 $-1 $183 $498 $493 $499 forward $110 $-1 #
attrib_edge_convexity-kcp-attrib $-1 -1 $500 $-1 $184 1 #
vertex $-1 -1 $-1 $348 $501 #
vertex $-1 -1 $-1 $184 $502 #
straight-curve $-1 -1 $-1 11.77 0 -3.8700000000000001 0 0 1 I I #
coedge $-1 -1 $-1 $503 $185 $504 $505 forward $52 $-1 #
coedge $-1 -1 $-1 $506 $507 $185 $331 forward $508 $-1 #
edge $509 -1 $-1 $510 0 $335 16.140000000000001 $330 $511 forward @7 unknown #
coedge $-1 -1 $-1 $186 $493 $506 $512 reversed $333 $-1 #
loop $-1 -1 $-1 $-1 $186 $513 #
attrib_edge_convexity-kcp-attrib $-1 -1 $514 $-1 $187 1 #
vertex $-1 -1 $-1 $512 $515 #
ellipse-curve $-1 -1 $-1 9.2700000000000014 -0.5 3.8700000000000001 0 -1 0 2.4999999999999982 0 0 1 I I #
attrib_edge_convexity-kcp-attrib $-1 -1 $516 $-1 $189 1 #
ellipse-curve $-1 -1 $-1 9.2699999999999978 -0.5 -3.8699999999999983 0 -1 0 1.7763568394002505e-015 0 -2.5000000000000018 1 I I #
convexity-sys-attrib $-1 -1 $-1 $190 $116 #
point $-1 -1 $-1 11.77 -0.5 -3.8700000000000001 #
point $-1 -1 $-1 11.77 -0.5 3.8700000000000001 #
attrib_edge_convexity-kcp-attrib $-1 -1 $517 $-1 $194 1 #
straight-curve $-1 -1 $-1 9.2699999999999996 0 -6.3700000000000001 -1 0 0 I I #
coedge $-1 -1 $-1 $196 $195 $491 $518 reversed $178 $-1 #
edge $519 -1 $-1 $198 0 $520 2.0700000000000003 $318 $521 forward @7 unknown #
convexity-sys-attrib $-1 -1 $-1 $197 $119 #
point $-1 -1 $-1 -4.870000000000001 0 -6.3700000000000001 #
edge $-1 -1 $-1 $326 0 $203 1.5707963267948974 $319 $522 forward @7 unknown #
face $523 -1 $-1 $-1 $201 $11 $-1 $524 forward single #
convexity-sys-attrib $-1 -1 $-1 $202 $121 #
point $-1 -1 $-1 9.2699999999999996 0 -6.3700000000000001 #
coedge $-1 -1 $-1 $205 $525 $526 $527 reversed $52 $-1 #
coedge $-1 -1 $-1 $528 $491 $205 $354 reversed $316 $-1 #
edge $529 -1 $-1 $530 0 $356 4.9999999999999982 $205 $531 forward @7 unknown #
attrib_edge_convexity-kcp-attrib $-1 -1 $532 $-1 $206 1 #
vertex $-1 -1 $-1 $206 $533 #
straight-curve $-1 -1 $-1 -4.870000000000001 -0.5 -6.3700000000000001 0 0 1 I I #
loop $-1 -1 $-1 $-1 $534 $210 #
plane-surface $-1 -1 $-1 11.0053417157418 -0.5 5.6053417157418002 0 1 0 0 0 1 forward_v I I I I #
coedge $-1 -1 $-1 $213 $370 $214 $363 forward $128 $-1 #
edge $-1 -1 $-1 $364 -1.5707963267948972 $223 0 $213 $535 forward @7 unknown #
coedge $-1 -1 $-1 $215 $214 $536 $537 reversed $84 $-1 #
edge $-1 -1 $-1 $538 0 $364 0.5 $360 $539 forward @7 unknown #
vertex $-1 -1 $-1 $363 $540 #
straight-curve $-1 -1 $-1 11.77 0 6.3700000000000001 -1 0 0 I I #
coedge $-1 -1 $-1 $536 $534 $218 $367 forward $358 $-1 #
edge $-1 -1 $-1 $371 0 $368 2.5 $218 $541 forward @7 unknown #
vertex $-1 -1 $-1 $367 $542 #
straight-curve $-1 -1 $-1 11.77 -0.5 6.3700000000000001 0 1 0 I I #
coedge $-1 -1 $-1 $360 $220 $534 $543 forward $128 $-1 #
vertex $-1 -1 $-1 $543 $544 #
straight-curve $-1 -1 $-1 11.77 -0.5 3.8700000000000001 0 1 0 I I #
point $-1 -1 $-1 11.77 0 3.8700000000000001 #
point $-1 -1 $-1 11.77 0 6.3700000000000001 #
loop $-1 -1 $-1 $-1 $545 $226 #
plane-surface $-1 -1 $-1 11.005341715741801 0 -5.605341715741802 0 1 0 0 0 1 forward_v I I I I #
coedge $-1 -1 $-1 $229 $387 $230 $380 forward $136 $-1 #
edge $-1 -1 $-1 $381 -1.5707963267948972 $239 0 $229 $546 forward @7 unknown #
coedge $-1 -1 $-1 $231 $230 $547 $548 reversed $88 $-1 #
edge $-1 -1 $-1 $549 0 $381 0.5 $377 $550 forward @7 unknown #
vertex $-1 -1 $-1 $380 $551 #
straight-curve $-1 -1 $-1 11.77 -0.5 -6.3700000000000001 -1 0 0 I I #
coedge $-1 -1 $-1 $547 $545 $234 $384 forward $375 $-1 #
edge $-1 -1 $-1 $388 0 $385 2.5 $234 $552 forward @7 unknown #
vertex $-1 -1 $-1 $384 $553 #
straight-curve $-1 -1 $-1 11.77 0 -6.3700000000000001 0 -1 0 I I #
coedge $-1 -1 $-1 $377 $236 $545 $554 forward $136 $-1 #
vertex $-1 -1 $-1 $554 $555 #
straight-curve $-1 -1 $-1 11.77 0 -3.8700000000000001 0 -1 0 I I #
point $-1 -1 $-1 11.77 -0.5 -3.8700000000000001 #
point $-1 -1 $-1 11.77 -0.5 -6.3700000000000001 #
model_id-kcp-attrib $-1 -1 $-1 $-1 $243 1 1021575271 1021575271 -175439870 5 #
face $556 -1 $-1 $-1 $258 $33 $-1 $557 reversed single #
loop $-1 -1 $-1 $-1 $409 $243 #
plane-surface $-1 -1 $-1 0 0.25 0 0 -1 0 0 0 -1 forward_v I I I I #
coedge $-1 -1 $-1 $558 $407 $410 $559 forward $244 $-1 #
coedge $-1 -1 $-1 $413 $246 $247 $401 reversed $145 $-1 #
coedge $-1 -1 $-1 $407 $558 $246 $399 reversed $244 $-1 #
edge $-1 -1 $-1 $414 -6.370000000000001 $560 6.370000000000001 $398 $561 forward @7 unknown #
coedge $-1 -1 $-1 $248 $247 $558 $562 forward $93 $-1 #
edge $-1 -1 $-1 $405 -10.82 $560 10.82 $397 $563 forward @7 unknown #
coedge $-1 -1 $-1 $410 $409 $248 $403 reversed $394 $-1 #
edge $-1 -1 $-1 $564 -10.82 $404 10.82 $402 $565 forward @7 unknown #
vertex $-1 -1 $-1 $250 $566 #
vertex $-1 -1 $-1 $416 $567 #
straight-curve $-1 -1 $-1 10.82 0 -6.370000000000001 0 -1 0 I I #
coedge $-1 -1 $-1 $396 $398 $251 $408 reversed $244 $-1 #
edge $-1 -1 $-1 $411 -0.25 $414 0.25 $407 $568 forward @7 unknown #
coedge $-1 -1 $-1 $402 $252 $257 $417 forward $394 $-1 #
coedge $-1 -1 $-1 $252 $402 $396 $559 reversed $394 $-1 #
vertex $-1 -1 $-1 $253 $569 #
straight-curve $-1 -1 $-1 0 0.25 6.370000000000001 -1 0 0 I I #
coedge $-1 -1 $-1 $254 $397 $256 $416 reversed $145 $-1 #
vertex $-1 -1 $-1 $408 $570 #
straight-curve $-1 -1 $-1 0 -0.25 6.370000000000001 1 0 0 I I #
edge $-1 -1 $-1 $259 -6.370000000000001 $405 6.370000000000001 $256 $571 forward @7 unknown #
edge $-1 -1 $-1 $260 -6.370000000000001 $404 6.370000000000001 $257 $572 forward @7 unknown #
point $-1 -1 $-1 10.82 -0.25 6.370000000000001 #
point $-1 -1 $-1 10.82 0.25 6.370000000000001 #
face $-1 -1 $-1 $-1 $573 $35 $-1 $574 reversed single #
loop $-1 -1 $-1 $-1 $426 $262 #
plane-surface $-1 -1 $-1 0 0 -25.116671754036204 0 0 1 1 0 0 forward_v I I I I #
coedge $-1 -1 $-1 $434 $265 $267 $428 forward $153 $-1 #
edge $-1 -1 $-1 $278 -0.250000000000002 $429 0.249999999999998 $276 $575 forward @7 unknown #
coedge $-1 -1 $-1 $267 $266 $576 $577 forward $97 $-1 #
coedge $-1 -1 $-1 $438 $437 $266 $427 reversed $421 $-1 #
edge $578 -1 $-1 $430 -3.0500000000000016 $579 3.049999999999998 $426 $580 forward @7 unknown #
edge $-1 -1 $-1 $429 -3.0500000000000003 $581 3.0499999999999994 $267 $582 forward @7 unknown #
vertex $-1 -1 $-1 $269 $583 #
vertex $-1 -1 $-1 $442 $584 #
straight-curve $-1 -1 $-1 -3.0499999999999998 -0.24999999999999806 -16.718335877018106 0 -1.2246063538223773e-016 -1 I I #
coedge $-1 -1 $-1 $585 $586 $270 $433 reversed $573 $-1 #
edge $-1 -1 $-1 $435 5.8983358770181056 $440 8.3983358770181056 $432 $587 forward @7 unknown #
coedge $-1 -1 $-1 $271 $423 $585 $588 forward $153 $-1 #
vertex $-1 -1 $-1 $433 $589 #
straight-curve $-1 -1 $-1 -2.2610358680827392e-016 0.25000000000000122 -22.616671754036211 1 0 3.8285889215894375e-016 I I #
coedge $-1 -1 $-1 $426 $273 $586 $590 forward $421 $-1 #
coedge $-1 -1 $-1 $273 $426 $275 $442 forward $421 $-1 #
convexity-sys-attrib $-1 -1 $-1 $-1 $274 #
vertex $-1 -1 $-1 $590 $591 #
straight-curve $-1 -1 $-1 1.9582148131757487e-015 0.25000000000000089 -25.116671754036204 -1 4.6885143195523885e-032 0 I I #
edge $592 -1 $-1 $430 -0.24999999999999908 $277 0.25000000000000089 $275 $593 forward @7 unknown #
point $-1 -1 $-1 -3.0499999999999998 0.25000000000000089 -25.116671754036211 #
point $-1 -1 $-1 -3.0500000000000007 0.25000000000000122 -22.616671754036211 #
face $-1 -1 $-1 $-1 $594 $37 $-1 $595 forward single #
plane-surface $-1 -1 $-1 -8.3200000000000021 0 -6.3700000000000001 7.62958009825695e-031 -5.0570361154070033e-046 1 1 0 -7.62958009825695e-031 forward_v I I I I #
coedge $-1 -1 $-1 $290 $596 $292 $463 forward $281 $-1 #
coedge $-1 -1 $-1 $597 $283 $596 $598 reversed $161 $-1 #
coedge $-1 -1 $-1 $283 $597 $284 $453 forward $161 $-1 #
coedge $-1 -1 $-1 $286 $292 $283 $451 reversed $293 $-1 #
edge $-1 -1 $-1 $454 -6.6600000000000001 $599 -1.660000000000001 $283 $600 forward @7 unknown #
coedge $-1 -1 $-1 $285 $284 $601 $602 reversed $101 $-1 #
edge $-1 -1 $-1 $603 0 $454 2.0700000000000003 $449 $604 forward @7 unknown #
vertex $-1 -1 $-1 $453 $605 #
straight-curve $-1 -1 $-1 -10.82 0 -6.370000000000001 0 -1 0 I I #
coedge $-1 -1 $-1 $601 $606 $288 $457 forward $594 $-1 #
edge $607 -1 $-1 $461 1.660000000000001 $458 6.6600000000000001 $288 $608 forward @7 unknown #
vertex $-1 -1 $-1 $457 $609 #
straight-curve $-1 -1 $-1 -10.82 0.25 -4.3000000000000007 0 0 -1 I I #
coedge $-1 -1 $-1 $596 $290 $606 $610 reversed $281 $-1 #
vertex $-1 -1 $-1 $610 $611 #
straight-curve $-1 -1 $-1 -5.8200000000000012 0.25 -4.2999999999999989 0 0 -1 I I #
edge $-1 -1 $-1 $599 -0.375 $294 0.125 $447 $612 forward @7 unknown #
point $-1 -1 $-1 -5.8200000000000012 0.25 -6.3699999999999992 #
point $-1 -1 $-1 -10.82 0.25 -6.370000000000001 #
face $-1 -1 $-1 $-1 $613 $39 $-1 $614 reversed single #
plane-surface $-1 -1 $-1 -9.3200000000000003 0 6.3700000000000001 -1.2035688769541141e-030 -7.9774918144280556e-047 1 1 0 1.2035688769541141e-030 forward_v I I I I #
coedge $-1 -1 $-1 $307 $615 $309 $484 forward $298 $-1 #
coedge $-1 -1 $-1 $616 $300 $615 $617 reversed $169 $-1 #
coedge $-1 -1 $-1 $300 $616 $301 $474 forward $169 $-1 #
coedge $-1 -1 $-1 $303 $309 $300 $472 reversed $310 $-1 #
edge $-1 -1 $-1 $475 -6.1600000000000001 $618 -3.160000000000001 $300 $619 forward @7 unknown #
coedge $-1 -1 $-1 $302 $301 $620 $621 reversed $105 $-1 #
edge $-1 -1 $-1 $622 0 $475 2.0700000000000003 $470 $623 forward @7 unknown #
vertex $-1 -1 $-1 $474 $624 #
straight-curve $-1 -1 $-1 -10.82 0 6.370000000000001 0 1 0 I I #
coedge $-1 -1 $-1 $620 $625 $305 $478 forward $613 $-1 #
edge $626 -1 $-1 $482 3.160000000000001 $479 6.1600000000000001 $305 $627 forward @7 unknown #
vertex $-1 -1 $-1 $478 $628 #
straight-curve $-1 -1 $-1 -10.82 -0.25 4.3000000000000007 0 0 1 I I #
coedge $-1 -1 $-1 $615 $307 $625 $629 reversed $298 $-1 #
vertex $-1 -1 $-1 $629 $630 #
straight-curve $-1 -1 $-1 -7.8200000000000012 -0.25 4.3000000000000007 0 0 1 I I #
edge $-1 -1 $-1 $618 -0.125 $311 0.375 $468 $631 forward @7 unknown #
point $-1 -1 $-1 -7.8200000000000012 -0.25 6.370000000000001 #
point $-1 -1 $-1 -10.82 -0.25 6.370000000000001 #
model_id-kcp-attrib $-1 -1 $-1 $-1 $315 1 1021575271 1021575271 -176095231 8 #
face $632 -1 $-1 $633 $634 $11 $-1 $635 reversed single #
loop $-1 -1 $-1 $-1 $636 $315 #
plane-surface $-1 -1 $-1 -9.8699999999999992 0 -6.3700000000000001 -1 0 0 0 -1 0 forward_v I I I I #
coedge $-1 -1 $-1 $353 $637 $344 $518 forward $316 $-1 #
coedge $-1 -1 $-1 $638 $318 $637 $639 reversed $110 $-1 #
coedge $-1 -1 $-1 $332 $320 $324 $499 reversed $333 $-1 #
attrib_edge_convexity-kcp-attrib $-1 -1 $640 $-1 $321 3 #
straight-curve $-1 -1 $-1 11.77 -0.5 3.8700000000000001 0 1 0 I I #
attrib_edge_convexity-kcp-attrib $-1 -1 $641 $-1 $323 3 #
straight-curve $-1 -1 $-1 11.77 0 -3.8700000000000001 0 -1 0 I I #
coedge $-1 -1 $-1 $324 $642 $643 $644 reversed $110 $-1 #
edge $-1 -1 $-1 $645 0 $327 1.5707963267948959 $324 $646 forward @7 unknown #
convexity-sys-attrib $-1 -1 $-1 $325 $184 #
point $-1 -1 $-1 11.77 0 -3.8700000000000001 #
point $-1 -1 $-1 11.77 0 3.8699999999999983 #
coedge $-1 -1 $-1 $647 $329 $648 $649 reversed $52 $-1 #
coedge $-1 -1 $-1 $650 $651 $329 $505 reversed $652 $-1 #
edge $653 -1 $-1 $510 0 $654 2.0700000000000003 $329 $655 forward @7 unknown #
coedge $-1 -1 $-1 $643 $330 $332 $512 forward $508 $-1 #
coedge $-1 -1 $-1 $330 $643 $650 $656 forward $508 $-1 #
loop $-1 -1 $-1 $-1 $643 $657 #
attrib_edge_convexity-kcp-attrib $-1 -1 $658 $-1 $331 1 #
vertex $-1 -1 $-1 $331 $659 #
straight-curve $-1 -1 $-1 -6.870000000000001 -0.5 6.3700000000000001 1 0 0 I I #
edge $-1 -1 $-1 $335 0 $645 0.5 $506 $660 forward @7 unknown #
face $661 -1 $-1 $349 $333 $11 $-1 $662 forward single #
convexity-sys-attrib $-1 -1 $-1 $334 $187 #
point $-1 -1 $-1 9.2699999999999996 -0.5 6.3700000000000001 #
convexity-sys-attrib $-1 -1 $-1 $337 $189 #
convexity-sys-attrib $-1 -1 $-1 $342 $194 #
edge $663 -1 $-1 $520 0 $356 0.5 $491 $664 forward @7 unknown #
attrib_edge_convexity-kcp-attrib $-1 -1 $665 $-1 $345 1 #
vertex $-1 -1 $-1 $639 $666 #
straight-curve $-1 -1 $-1 -4.870000000000001 0 -6.3700000000000001 0 0 1 I I #
ellipse-curve $-1 -1 $-1 9.2699999999999996 0 -3.8700000000000019 0 1 0 2.5 0 1.7763568394002505e-015 1 I I #
model_id-kcp-attrib $-1 -1 $-1 $-1 $349 1 1021575271 1021575271 -176095231 17 #
cone-surface $-1 -1 $-1 9.2699999999999996 0.037875430594129886 -3.8700000000000001 0 -1 0 2.5 0 0 1 I I 0 1 2.5 forward I I I I #
coedge $-1 -1 $-1 $352 $667 $668 $669 reversed $52 $-1 #
coedge $-1 -1 $-1 $670 $636 $352 $527 forward $489 $-1 #
edge $671 -1 $-1 $530 0 $672 1.25 $526 $673 forward @7 unknown #
coedge $-1 -1 $-1 $637 $353 $636 $674 reversed $316 $-1 #
attrib_edge_convexity-kcp-attrib $-1 -1 $675 $-1 $354 1 #
vertex $-1 -1 $-1 $527 $676 #
straight-curve $-1 -1 $-1 -9.8699999999999992 -0.5 -4.2999999999999998 1 0 0 I I #
convexity-sys-attrib $-1 -1 $-1 $355 $206 #
point $-1 -1 $-1 -4.870000000000001 -0.5 -4.2999999999999998 #
coedge $-1 -1 $-1 $366 $536 $370 $543 reversed $358 $-1 #
ellipse-curve $-1 -1 $-1 9.2700000000000014 0 3.8700000000000001 0 1 0 2.4999999999999982 0 0 1 I I #
coedge $-1 -1 $-1 $534 $366 $362 $537 forward $358 $-1 #
edge $-1 -1 $-1 $368 0 $538 2.5 $362 $677 forward @7 unknown #
vertex $-1 -1 $-1 $543 $678 #
straight-curve $-1 -1 $-1 9.2699999999999996 -0.5 6.3700000000000001 0 1 0 I I #
point $-1 -1 $-1 9.2699999999999996 0 6.3700000000000001 #
straight-curve $-1 -1 $-1 11.77 -0.5 3.8700000000000001 0 0 1 I I #
point $-1 -1 $-1 11.77 -0.5 6.3700000000000001 #
edge $-1 -1 $-1 $371 0 $538 1.5707963267948972 $370 $679 forward @7 unknown #
point $-1 -1 $-1 11.77 -0.5 3.8700000000000001 #
coedge $-1 -1 $-1 $383 $547 $387 $554 reversed $375 $-1 #
ellipse-curve $-1 -1 $-1 9.2699999999999996 -0.5 -3.8700000000000019 0 -1 0 2.5 0 1.7763568394002505e-015 1 I I #
coedge $-1 -1 $-1 $545 $383 $379 $548 forward $375 $-1 #
edge $-1 -1 $-1 $385 0 $549 2.5 $379 $680 forward @7 unknown #
vertex $-1 -1 $-1 $554 $681 #
straight-curve $-1 -1 $-1 9.2699999999999996 0 -6.3700000000000001 0 -1 0 I I #
point $-1 -1 $-1 9.2699999999999996 -0.5 -6.3700000000000001 #
straight-curve $-1 -1 $-1 11.77 0 -3.8700000000000001 0 0 -1 I I #
point $-1 -1 $-1 11.77 0 -6.3700000000000001 #
edge $-1 -1 $-1 $388 0 $549 1.5707963267948972 $387 $682 forward @7 unknown #
point $-1 -1 $-1 11.77 0 -3.8700000000000001 #
model_id-kcp-attrib $-1 -1 $-1 $-1 $393 1 1021575271 1021575271 -175439870 4 #
plane-surface $-1 -1 $-1 10.82 0 0 -1 0 0 0 0 1 forward_v I I I I #
coedge $-1 -1 $-1 $398 $396 $400 $562 reversed $244 $-1 #
edge $-1 -1 $-1 $411 -6.370000000000001 $564 6.370000000000001 $410 $683 forward @7 unknown #
vertex $-1 -1 $-1 $562 $684 #
straight-curve $-1 -1 $-1 -10.82 -0.25 0 0 0 -1 I I #
edge $-1 -1 $-1 $560 -0.25 $564 0.25 $558 $685 forward @7 unknown #
straight-curve $-1 -1 $-1 0 -0.25 -6.370000000000001 -1 0 0 I I #
vertex $-1 -1 $-1 $403 $686 #
straight-curve $-1 -1 $-1 0 0.25 -6.370000000000001 1 0 0 I I #
point $-1 -1 $-1 10.82 0.25 -6.370000000000001 #
point $-1 -1 $-1 10.82 -0.25 -6.370000000000001 #
straight-curve $-1 -1 $-1 -10.82 0 6.370000000000001 0 -1 0 I I #
point $-1 -1 $-1 -10.82 0.25 6.370000000000001 #
point $-1 -1 $-1 -10.82 -0.25 6.370000000000001 #
straight-curve $-1 -1 $-1 10.82 -0.25 0 0 0 -1 I I #
straight-curve $-1 -1 $-1 10.82 0.25 0 0 0 -1 I I #
loop $-1 -1 $-1 $-1 $576 $420 #
plane-surface $-1 -1 $-1 3.0499999999999998 0 0 -1 0 0 0 0 1 forward_v I I I I #
straight-curve $-1 -1 $-1 -3.0499999999999998 -7.7782511042874349e-016 -22.616671754036211 0 -1 1.2246063538223773e-016 I I #
coedge $-1 -1 $-1 $586 $585 $425 $577 reversed $573 $-1 #
edge $-1 -1 $-1 $579 -8.3983358770181056 $581 -5.8983358770181056 $576 $687 forward @7 unknown #
convexity-sys-attrib $-1 -1 $-1 $-1 $427 #
vertex $-1 -1 $-1 $427 $688 #
straight-curve $-1 -1 $-1 1.9582148131757487e-015 -0.24999999999999911 -25.116671754036204 1 -4.6885143195523885e-032 0 I I #
vertex $-1 -1 $-1 $577 $689 #
straight-curve $-1 -1 $-1 -2.2610358680827392e-016 -0.24999999999999878 -22.616671754036211 1 0 3.8285889215894375e-016 I I #
point $-1 -1 $-1 -3.0500000000000007 -0.24999999999999878 -22.616671754036211 #
point $-1 -1 $-1 -3.0499999999999998 -0.24999999999999908 -25.116671754036211 #
coedge $-1 -1 $-1 $576 $432 $434 $588 reversed $573 $-1 #
coedge $-1 -1 $-1 $432 $576 $437 $590 reversed $573 $-1 #
straight-curve $-1 -1 $-1 3.0499999999999998 0.25000000000000194 -16.718335877018106 0 -1.2246063538223773e-016 -1 I I #
edge $-1 -1 $-1 $581 -0.249999999999998 $435 0.250000000000002 $585 $690 forward @7 unknown #
point $-1 -1 $-1 3.0499999999999989 0.25000000000000122 -22.616671754036211 #
edge $691 -1 $-1 $440 -0.25000000000000089 $579 0.24999999999999908 $586 $692 forward @7 unknown #
point $-1 -1 $-1 3.0499999999999998 0.25000000000000089 -25.116671754036211 #
convexity-sys-attrib $-1 -1 $-1 $-1 $442 #
straight-curve $-1 -1 $-1 -3.0499999999999998 0 -25.116671754036204 0 1 0 I I #
loop $-1 -1 $-1 $-1 $606 $445 #
plane-surface $-1 -1 $-1 -8.3200000000000021 0 -4.2999999999999998 7.62958009825695e-031 -5.0570361154070033e-046 1 1 0 -7.62958009825695e-031 forward_v I I I I #
coedge $-1 -1 $-1 $447 $460 $448 $598 forward $281 $-1 #
coedge $-1 -1 $-1 $449 $448 $693 $694 reversed $161 $-1 #
edge $-1 -1 $-1 $695 0 $599 2.0700000000000003 $596 $696 forward @7 unknown #
vertex $-1 -1 $-1 $598 $697 #
straight-curve $-1 -1 $-1 -4.1600000000000001 -0.25 -6.370000000000001 1 0 0 I I #
coedge $-1 -1 $-1 $693 $456 $452 $602 forward $594 $-1 #
edge $698 -1 $-1 $458 -0.25 $603 0.25 $452 $699 forward @7 unknown #
vertex $-1 -1 $-1 $602 $700 #
straight-curve $-1 -1 $-1 -10.82 -0.25 -4.3000000000000007 0 0 -1 I I #
point $-1 -1 $-1 -10.82 -0.25 -6.370000000000001 #
coedge $-1 -1 $-1 $456 $693 $460 $610 forward $594 $-1 #
convexity-sys-attrib $-1 -1 $-1 $-1 $457 #
straight-curve $-1 -1 $-1 -4.1600000000000001 0.25 -4.3000000000000007 -1 0 0 I I #
point $-1 -1 $-1 -10.82 0.25 -4.3000000000000007 #
edge $701 -1 $-1 $695 -0.375 $461 0.125 $460 $702 forward @7 unknown #
point $-1 -1 $-1 -5.8200000000000012 0.25 -4.2999999999999989 #
straight-curve $-1 -1 $-1 -5.8200000000000003 0.125 -6.370000000000001 0 1 0 I I #
loop $-1 -1 $-1 $-1 $625 $466 #
plane-surface $-1 -1 $-1 -9.3200000000000003 0 4.2999999999999998 -1.2035688769541141e-030 -7.9774918144280556e-047 1 1 0 1.2035688769541141e-030 forward_v I I I I #
coedge $-1 -1 $-1 $468 $481 $469 $617 forward $298 $-1 #
coedge $-1 -1 $-1 $470 $469 $703 $704 reversed $169 $-1 #
edge $-1 -1 $-1 $705 0 $618 2.0700000000000003 $615 $706 forward @7 unknown #
vertex $-1 -1 $-1 $617 $707 #
straight-curve $-1 -1 $-1 -4.6600000000000001 0.25 6.370000000000001 1 0 0 I I #
coedge $-1 -1 $-1 $703 $477 $473 $621 forward $613 $-1 #
edge $708 -1 $-1 $479 -0.25 $622 0.25 $473 $709 forward @7 unknown #
vertex $-1 -1 $-1 $621 $710 #
straight-curve $-1 -1 $-1 -10.82 0.25 4.3000000000000007 0 0 1 I I #
point $-1 -1 $-1 -10.82 0.25 6.370000000000001 #
coedge $-1 -1 $-1 $477 $703 $481 $629 forward $613 $-1 #
convexity-sys-attrib $-1 -1 $-1 $-1 $478 #
straight-curve $-1 -1 $-1 -4.6600000000000001 -0.25 4.3000000000000007 -1 0 0 I I #
point $-1 -1 $-1 -10.82 -0.25 4.3000000000000007 #
edge $711 -1 $-1 $705 -0.125 $482 0.375 $481 $712 forward @7 unknown #
point $-1 -1 $-1 -7.8200000000000012 -0.25 4.3000000000000007 #
straight-curve $-1 -1 $-1 -7.8200000000000003 0.125 6.370000000000001 0 -1 0 I I #
model_id-kcp-attrib $-1 -1 $-1 $-1 $488 1 1021575271 1021575271 -176095231 9 #
face $713 -1 $-1 $714 $715 $11 $-1 $716 reversed single #
loop $-1 -1 $-1 $-1 $717 $488 #
plane-surface $-1 -1 $-1 -7.370000000000001 0 -3.0499999999999998 0 0 -1 -1 0 0 forward_v I I I I #
coedge $-1 -1 $-1 $526 $718 $528 $674 forward $489 $-1 #
coedge $-1 -1 $-1 $491 $528 $492 $639 forward $316 $-1 #
coedge $-1 -1 $-1 $719 $492 $718 $720 forward $110 $-1 #
edge $721 -1 $-1 $722 1.7763568394002505e-015 $520 5 $492 $723 forward @7 unknown #
convexity-sys-attrib $-1 -1 $-1 $494 $321 #
convexity-sys-attrib $-1 -1 $-1 $496 $323 #
coedge $-1 -1 $-1 $498 $724 $725 $726 reversed $110 $-1 #
coedge $-1 -1 $-1 $507 $506 $498 $644 forward $508 $-1 #
edge $-1 -1 $-1 $645 0 $727 16.140000000000001 $643 $728 forward @7 unknown #
vertex $-1 -1 $-1 $512 $729 #
ellipse-curve $-1 -1 $-1 9.2699999999999978 0 3.8699999999999983 0 1 0 1.7763568394002505e-015 0 2.5000000000000018 1 I I #
coedge $-1 -1 $-1 $730 $503 $731 $732 reversed $52 $-1 #
coedge $-1 -1 $-1 $733 $734 $503 $649 forward $735 $-1 #
edge $736 -1 $-1 $737 0 $654 2.9999999999999982 $503 $738 forward @7 unknown #
coedge $-1 -1 $-1 $725 $504 $507 $656 reversed $652 $-1 #
coedge $-1 -1 $-1 $504 $725 $733 $739 forward $652 $-1 #
loop $-1 -1 $-1 $-1 $651 $740 #
attrib_edge_convexity-kcp-attrib $-1 -1 $741 $-1 $505 1 #
vertex $-1 -1 $-1 $649 $742 #
straight-curve $-1 -1 $-1 -6.870000000000001 -0.5 6.3700000000000001 0 0 -1 I I #
edge $743 -1 $-1 $727 0 $510 0.5 $507 $744 forward @7 unknown #
face $745 -1 $-1 $513 $508 $11 $-1 $746 forward single #
convexity-sys-attrib $-1 -1 $-1 $509 $331 #
point $-1 -1 $-1 -6.870000000000001 -0.5 6.3700000000000001 #
straight-curve $-1 -1 $-1 9.2699999999999996 -0.5 6.3700000000000001 0 1 0 I I #
model_id-kcp-attrib $-1 -1 $-1 $-1 $513 1 1021575271 1021575271 -176095231 16 #
cone-surface $-1 -1 $-1 9.2699999999999996 -0.53713401610171674 3.8700000000000001 0 1 0 2.5 0 0 1 I I 0 1 2.5 forward I I I I #
attrib_edge_convexity-kcp-attrib $-1 -1 $747 $-1 $518 2 #
straight-curve $-1 -1 $-1 -4.870000000000001 0 -4.2999999999999998 0 -1 0 I I #
convexity-sys-attrib $-1 -1 $-1 $519 $345 #
point $-1 -1 $-1 -4.870000000000001 0 -4.2999999999999998 #
coedge $-1 -1 $-1 $525 $730 $748 $749 forward $52 $-1 #
coedge $-1 -1 $-1 $750 $717 $525 $669 forward $634 $-1 #
edge $751 -1 $-1 $672 0 $752 2.5 $525 $753 forward @7 unknown #
coedge $-1 -1 $-1 $718 $526 $717 $754 reversed $489 $-1 #
attrib_edge_convexity-kcp-attrib $-1 -1 $755 $-1 $527 1 #
vertex $-1 -1 $-1 $754 $756 #
straight-curve $-1 -1 $-1 -9.8699999999999992 -0.5 -4.2999999999999998 0 0 1 I I #
edge $757 -1 $-1 $722 0 $530 0.5 $636 $758 forward @7 unknown #
convexity-sys-attrib $-1 -1 $-1 $529 $354 #
point $-1 -1 $-1 -9.8699999999999992 -0.5 -4.2999999999999998 #
straight-curve $-1 -1 $-1 11.77 -0.5 6.3700000000000001 -1 0 0 I I #
point $-1 -1 $-1 9.2699999999999996 -0.5 6.3700000000000001 #
ellipse-curve $-1 -1 $-1 9.2700000000000014 -0.5 3.8700000000000001 0 -1 0 2.4999999999999982 0 0 1 I I #
straight-curve $-1 -1 $-1 11.77 0 -6.3700000000000001 -1 0 0 I I #
point $-1 -1 $-1 9.2699999999999996 0 -6.3700000000000001 #
ellipse-curve $-1 -1 $-1 9.2699999999999996 0 -3.8700000000000019 0 1 0 2.5 0 1.7763568394002505e-015 1 I I #
straight-curve $-1 -1 $-1 -10.82 0.25 0 0 0 -1 I I #
point $-1 -1 $-1 -10.82 -0.25 -6.370000000000001 #
straight-curve $-1 -1 $-1 -10.82 0 -6.370000000000001 0 1 0 I I #
point $-1 -1 $-1 -10.82 0.25 -6.370000000000001 #
straight-curve $-1 -1 $-1 3.0499999999999998 -0.24999999999999806 -16.718335877018106 0 1.2246063538223773e-016 1 I I #
point $-1 -1 $-1 3.0499999999999998 -0.24999999999999908 -25.116671754036211 #
point $-1 -1 $-1 3.0499999999999989 -0.24999999999999878 -22.616671754036211 #
straight-curve $-1 -1 $-1 3.0499999999999998 -7.7782511042874329e-016 -22.616671754036211 0 1 -1.2246063538223773e-016 I I #
convexity-sys-attrib $-1 -1 $-1 $-1 $590 #
straight-curve $-1 -1 $-1 3.0499999999999998 0 -25.116671754036204 0 -1 0 I I #
coedge $-1 -1 $-1 $606 $601 $597 $694 forward $594 $-1 #
edge $759 -1 $-1 $603 -6.6600000000000001 $695 -1.660000000000001 $597 $760 forward @7 unknown #
vertex $-1 -1 $-1 $610 $761 #
straight-curve $-1 -1 $-1 -5.8200000000000012 -0.25 -4.2999999999999989 0 0 -1 I I #
point $-1 -1 $-1 -5.8200000000000012 -0.25 -6.3699999999999992 #
convexity-sys-attrib $-1 -1 $-1 $-1 $602 #
straight-curve $-1 -1 $-1 -10.82 0 -4.3000000000000007 0 -1 0 I I #
point $-1 -1 $-1 -10.82 -0.25 -4.3000000000000007 #
convexity-sys-attrib $-1 -1 $-1 $-1 $610 #
straight-curve $-1 -1 $-1 -5.8200000000000003 0.125 -4.3000000000000007 0 1 0 I I #
coedge $-1 -1 $-1 $625 $620 $616 $704 forward $613 $-1 #
edge $762 -1 $-1 $622 -6.1600000000000001 $705 -3.160000000000001 $616 $763 forward @7 unknown #
vertex $-1 -1 $-1 $629 $764 #
straight-curve $-1 -1 $-1 -7.8200000000000012 0.25 4.3000000000000007 0 0 1 I I #
point $-1 -1 $-1 -7.8200000000000012 0.25 6.370000000000001 #
convexity-sys-attrib $-1 -1 $-1 $-1 $621 #
straight-curve $-1 -1 $-1 -10.82 0 4.3000000000000007 0 1 0 I I #
point $-1 -1 $-1 -10.82 0.25 4.3000000000000007 #
convexity-sys-attrib $-1 -1 $-1 $-1 $629 #
straight-curve $-1 -1 $-1 -7.8200000000000003 0.125 4.3000000000000007 0 -1 0 I I #
model_id-kcp-attrib $-1 -1 $-1 $-1 $633 1 1021575271 1021575271 -176095231 10 #
face $765 -1 $-1 $766 $767 $11 $-1 $768 reversed single #
loop $-1 -1 $-1 $-1 $769 $633 #
plane-surface $-1 -1 $-1 -7.370000000000001 0 3.0499999999999998 1 0 0 0 0 -1 forward_v I I I I #
coedge $-1 -1 $-1 $668 $770 $670 $754 forward $634 $-1 #
coedge $-1 -1 $-1 $636 $670 $638 $720 reversed $489 $-1 #
coedge $-1 -1 $-1 $771 $638 $770 $772 forward $110 $-1 #
edge $-1 -1 $-1 $722 0 $773 1.25 $638 $774 forward @7 unknown #
attrib_edge_convexity-kcp-attrib $-1 -1 $775 $-1 $639 1 #
vertex $-1 -1 $-1 $720 $776 #
straight-curve $-1 -1 $-1 -9.870000000000001 0 -4.2999999999999998 1 0 0 I I #
coedge $-1 -1 $-1 $642 $777 $778 $779 forward $110 $-1 #
coedge $-1 -1 $-1 $651 $650 $642 $726 forward $652 $-1 #
edge $780 -1 $-1 $727 0 $781 2.0700000000000003 $642 $782 forward @7 unknown #
vertex $-1 -1 $-1 $656 $783 #
straight-curve $-1 -1 $-1 9.2699999999999996 0 6.3700000000000001 -1 0 0 I I #
point $-1 -1 $-1 9.2699999999999996 0 6.3700000000000001 #
coedge $-1 -1 $-1 $667 $647 $784 $785 forward $52 $-1 #
coedge $-1 -1 $-1 $786 $787 $647 $732 forward $788 $-1 #
edge $789 -1 $-1 $790 0 $737 1.25 $731 $791 forward @7 unknown #
coedge $-1 -1 $-1 $778 $648 $651 $739 reversed $735 $-1 #
coedge $-1 -1 $-1 $648 $778 $786 $792 forward $735 $-1 #
loop $-1 -1 $-1 $-1 $734 $793 #
attrib_edge_convexity-kcp-attrib $-1 -1 $794 $-1 $649 1 #
vertex $-1 -1 $-1 $792 $795 #
straight-curve $-1 -1 $-1 -9.8699999999999992 -0.5 4.2999999999999998 1 0 0 I I #
edge $796 -1 $-1 $781 0 $654 0.5 $651 $797 forward @7 unknown #
face $798 -1 $-1 $657 $652 $11 $-1 $799 reversed single #
convexity-sys-attrib $-1 -1 $-1 $653 $505 #
point $-1 -1 $-1 -6.870000000000001 -0.5 4.2999999999999998 #
attrib_edge_convexity-kcp-attrib $-1 -1 $800 $-1 $656 1 #
straight-curve $-1 -1 $-1 -6.870000000000001 0 6.3700000000000001 0 -1 0 I I #
model_id-kcp-attrib $-1 -1 $-1 $-1 $657 1 1021575271 1021575271 -176095231 15 #
plane-surface $-1 -1 $-1 10 0 6.3700000000000001 0 0 1 -1 0 0 forward_v I I I I #
convexity-sys-attrib $-1 -1 $-1 $663 $518 #
coedge $-1 -1 $-1 $801 $769 $667 $749 reversed $715 $-1 #
edge $802 -1 $-1 $803 0 $752 6.0999999999999996 $667 $804 forward @7 unknown #
coedge $-1 -1 $-1 $770 $668 $769 $805 reversed $634 $-1 #
attrib_edge_convexity-kcp-attrib $-1 -1 $806 $-1 $669 1 #
vertex $-1 -1 $-1 $669 $807 #
straight-curve $-1 -1 $-1 -9.8699999999999992 -0.5 -3.0499999999999998 1 0 0 I I #
edge $-1 -1 $-1 $773 0 $672 0.5 $670 $808 forward @7 unknown #
convexity-sys-attrib $-1 -1 $-1 $671 $527 #
point $-1 -1 $-1 -9.8699999999999992 -0.5 -3.0499999999999998 #
attrib_edge_convexity-kcp-attrib $-1 -1 $809 $-1 $674 1 #
straight-curve $-1 -1 $-1 -9.8699999999999992 0 -4.2999999999999998 0 -1 0 I I #
convexity-sys-attrib $-1 -1 $-1 $-1 $694 #
straight-curve $-1 -1 $-1 -4.1600000000000001 -0.25 -4.3000000000000007 1 0 0 I I #
point $-1 -1 $-1 -5.8200000000000012 -0.25 -4.2999999999999989 #
convexity-sys-attrib $-1 -1 $-1 $-1 $704 #
straight-curve $-1 -1 $-1 -4.6600000000000001 0.25 4.3000000000000007 1 0 0 I I #
point $-1 -1 $-1 -7.8200000000000012 0.25 4.3000000000000007 #
model_id-kcp-attrib $-1 -1 $-1 $-1 $714 1 1021575271 1021575271 -176095231 11 #
face $810 -1 $-1 $793 $788 $11 $-1 $811 forward single #
loop $-1 -1 $-1 $-1 $812 $714 #
plane-surface $-1 -1 $-1 -9.870000000000001 0 3.0499999999999998 0 0 1 1 0 0 forward_v I I I I #
coedge $-1 -1 $-1 $748 $813 $750 $805 forward $715 $-1 #
coedge $-1 -1 $-1 $717 $750 $719 $772 reversed $634 $-1 #
coedge $-1 -1 $-1 $814 $719 $813 $815 reversed $110 $-1 #
edge $-1 -1 $-1 $773 1.7763568394002505e-015 $816 2.5 $719 $817 forward @7 unknown #
vertex $-1 -1 $-1 $772 $818 #
straight-curve $-1 -1 $-1 -9.870000000000001 0 -4.2999999999999998 0 0 1 I I #
convexity-sys-attrib $-1 -1 $-1 $721 $639 #
point $-1 -1 $-1 -9.8699999999999992 0 -4.2999999999999998 #
coedge $-1 -1 $-1 $724 $814 $819 $820 forward $110 $-1 #
coedge $-1 -1 $-1 $734 $733 $724 $779 reversed $735 $-1 #
edge $821 -1 $-1 $822 1.7763568394002505e-015 $781 3 $724 $823 forward @7 unknown #
attrib_edge_convexity-kcp-attrib $-1 -1 $824 $-1 $726 1 #
vertex $-1 -1 $-1 $726 $825 #
straight-curve $-1 -1 $-1 -6.870000000000001 0 6.3700000000000001 0 0 -1 I I #
point $-1 -1 $-1 -6.870000000000001 0 6.3700000000000001 #
coedge $-1 -1 $-1 $826 $812 $730 $785 reversed $767 $-1 #
edge $827 -1 $-1 $790 0 $803 2.4999999999999982 $730 $828 forward @7 unknown #
coedge $-1 -1 $-1 $819 $731 $734 $792 reversed $788 $-1 #
coedge $-1 -1 $-1 $731 $819 $826 $829 forward $788 $-1 #
loop $-1 -1 $-1 $-1 $819 $766 #
attrib_edge_convexity-kcp-attrib $-1 -1 $830 $-1 $732 1 #
vertex $-1 -1 $-1 $732 $831 #
straight-curve $-1 -1 $-1 -9.8699999999999992 -0.5 3.0499999999999998 0 0 1 I I #
edge $832 -1 $-1 $822 0 $737 0.5 $786 $833 forward @7 unknown #
face $834 -1 $-1 $740 $735 $11 $-1 $835 reversed single #
convexity-sys-attrib $-1 -1 $-1 $736 $649 #
point $-1 -1 $-1 -9.8699999999999992 -0.5 4.2999999999999998 #
attrib_edge_convexity-kcp-attrib $-1 -1 $836 $-1 $739 2 #
straight-curve $-1 -1 $-1 -6.870000000000001 0 4.2999999999999998 0 -1 0 I I #
model_id-kcp-attrib $-1 -1 $-1 $-1 $740 1 1021575271 1021575271 -176095231 14 #
plane-surface $-1 -1 $-1 -6.870000000000001 0 6.3700000000000001 1 0 0 0 0 -1 forward_v I I I I #
convexity-sys-attrib $-1 -1 $-1 $743 $656 #
coedge $-1 -1 $-1 $813 $748 $812 $837 reversed $715 $-1 #
attrib_edge_convexity-kcp-attrib $-1 -1 $838 $-1 $749 1 #
vertex $-1 -1 $-1 $749 $839 #
straight-curve $-1 -1 $-1 -7.370000000000001 -0.5 3.0499999999999998 0 0 -1 I I #
edge $840 -1 $-1 $816 0 $752 0.5 $769 $841 forward @7 unknown #
convexity-sys-attrib $-1 -1 $-1 $751 $669 #
point $-1 -1 $-1 -7.3699999999999992 -0.5 -3.0499999999999998 #
straight-curve $-1 -1 $-1 -9.8699999999999992 0 -3.0499999999999998 0 -1 0 I I #
convexity-sys-attrib $-1 -1 $-1 $757 $674 #
model_id-kcp-attrib $-1 -1 $-1 $-1 $766 1 1021575271 1021575271 -176095231 12 #
plane-surface $-1 -1 $-1 -9.8699999999999992 0 -6.3700000000000001 -1 0 0 0 -1 0 forward_v I I I I #
coedge $-1 -1 $-1 $784 $842 $801 $837 forward $767 $-1 #
coedge $-1 -1 $-1 $769 $801 $771 $815 forward $715 $-1 #
coedge $-1 -1 $-1 $777 $771 $842 $843 reversed $110 $-1 #
edge $844 -1 $-1 $845 0 $816 6.0999999999999996 $771 $846 forward @7 unknown #
vertex $-1 -1 $-1 $815 $847 #
straight-curve $-1 -1 $-1 -9.870000000000001 0 -3.0499999999999998 1 0 0 I I #
point $-1 -1 $-1 -9.8699999999999992 0 -3.0499999999999998 #
coedge $-1 -1 $-1 $787 $786 $777 $820 reversed $788 $-1 #
edge $-1 -1 $-1 $848 0 $822 1.25 $777 $849 forward @7 unknown #
attrib_edge_convexity-kcp-attrib $-1 -1 $850 $-1 $779 1 #
vertex $-1 -1 $-1 $779 $851 #
straight-curve $-1 -1 $-1 -9.870000000000001 0 4.2999999999999998 1 0 0 I I #
convexity-sys-attrib $-1 -1 $-1 $780 $726 #
point $-1 -1 $-1 -6.870000000000001 0 4.2999999999999998 #
coedge $-1 -1 $-1 $842 $784 $787 $829 reversed $767 $-1 #
attrib_edge_convexity-kcp-attrib $-1 -1 $852 $-1 $785 1 #
straight-curve $-1 -1 $-1 -9.8699999999999992 -0.5 3.0499999999999998 1 0 0 I I #
edge $-1 -1 $-1 $848 0 $790 0.5 $787 $853 forward @7 unknown #
convexity-sys-attrib $-1 -1 $-1 $789 $732 #
point $-1 -1 $-1 -9.8699999999999992 -0.5 3.0499999999999998 #
attrib_edge_convexity-kcp-attrib $-1 -1 $854 $-1 $792 1 #
straight-curve $-1 -1 $-1 -9.8699999999999992 0 4.2999999999999998 0 -1 0 I I #
model_id-kcp-attrib $-1 -1 $-1 $-1 $793 1 1021575271 1021575271 -176095231 13 #
plane-surface $-1 -1 $-1 -6.870000000000001 0 4.2999999999999998 0 0 -1 -1 0 0 forward_v I I I I #
convexity-sys-attrib $-1 -1 $-1 $796 $739 #
edge $855 -1 $-1 $845 0 $803 0.5 $812 $856 forward @7 unknown #
convexity-sys-attrib $-1 -1 $-1 $802 $749 #
point $-1 -1 $-1 -7.370000000000001 -0.5 3.0499999999999998 #
attrib_edge_convexity-kcp-attrib $-1 -1 $857 $-1 $805 2 #
straight-curve $-1 -1 $-1 -7.370000000000001 0 -3.0499999999999998 0 -1 0 I I #
coedge $-1 -1 $-1 $812 $826 $814 $843 forward $767 $-1 #
edge $-1 -1 $-1 $848 0 $845 2.5 $814 $858 forward @7 unknown #
attrib_edge_convexity-kcp-attrib $-1 -1 $859 $-1 $815 1 #
vertex $-1 -1 $-1 $843 $860 #
straight-curve $-1 -1 $-1 -7.370000000000001 0 3.0499999999999998 0 0 -1 I I #
point $-1 -1 $-1 -7.370000000000001 0 -3.0499999999999998 #
vertex $-1 -1 $-1 $820 $861 #
straight-curve $-1 -1 $-1 -9.870000000000001 0 3.0499999999999998 0 0 1 I I #
convexity-sys-attrib $-1 -1 $-1 $821 $779 #
point $-1 -1 $-1 -9.8699999999999992 0 4.2999999999999998 #
convexity-sys-attrib $-1 -1 $-1 $827 $785 #
straight-curve $-1 -1 $-1 -9.8699999999999992 0 3.0499999999999998 0 -1 0 I I #
convexity-sys-attrib $-1 -1 $-1 $832 $792 #
attrib_edge_convexity-kcp-attrib $-1 -1 $862 $-1 $837 2 #
straight-curve $-1 -1 $-1 -7.370000000000001 0 3.0499999999999998 0 -1 0 I I #
convexity-sys-attrib $-1 -1 $-1 $840 $805 #
straight-curve $-1 -1 $-1 -9.870000000000001 0 3.0499999999999998 1 0 0 I I #
convexity-sys-attrib $-1 -1 $-1 $844 $815 #
point $-1 -1 $-1 -7.370000000000001 0 3.0499999999999998 #
point $-1 -1 $-1 -9.870000000000001 0 3.0499999999999998 #
convexity-sys-attrib $-1 -1 $-1 $855 $837 #
End-of-ACIS-data 