600 0 1 0           
93 GICL ACIS Healer - Source: /gicl/data5/repository/PTC/V18/bboxrev2/boombox/m_plate_.sat - 6 0 18 ACIS 6.0.3 Solaris 24 Sat Apr 13 22:38:37 2002 
1 9.999999999999999547e-07 1.000000000000000036e-10 
body $-1 $1 $-1 $-1 #
lump $-1 $-1 $2 $0 #
shell $-1 $-1 $-1 $3 $-1 $1 #
face $-1 $4 $5 $2 $-1 $6 reversed single #
face $-1 $7 $8 $2 $-1 $9 forward single #
loop $-1 $-1 $10 $3 #
plane-surface $-1 -10 0 -6.370000000000000107 0 0 1 -1 0 0 forward_v I I I I #
face $-1 $11 $12 $2 $-1 $13 forward single #
loop $-1 $-1 $14 $4 #
plane-surface $-1 -9.869999999999999218 -0.5 -6.370000000000000107 0 -1 0 1 0 0 forward_v I I I I #
coedge $-1 $15 $16 $17 $18 reversed $5 $-1 #
face $-1 $19 $20 $2 $-1 $21 forward single #
loop $-1 $-1 $22 $7 #
plane-surface $-1 11.76999999999999957 -0.5 -6.370000000000000107 1 0 0 0 1 0 forward_v I I I I #
coedge $-1 $23 $24 $25 $26 forward $8 $-1 #
coedge $-1 $27 $10 $28 $29 reversed $5 $-1 #
coedge $-1 $10 $27 $30 $31 forward $5 $-1 #
coedge $-1 $24 $32 $10 $18 forward $8 $-1 #
edge $-1 $33 0 $34 14.14000000000000057 $10 $35 forward 7 unknown #
face $-1 $36 $37 $2 $-1 $38 reversed single #
loop $-1 $-1 $39 $11 #
plane-surface $-1 11.76999999999999957 0 -6.370000000000000107 0 1 0 -1 0 0 forward_v I I I I #
coedge $-1 $40 $41 $42 $43 forward $12 $-1 #
coedge $-1 $44 $14 $45 $46 forward $8 $-1 #
coedge $-1 $14 $17 $47 $48 forward $8 $-1 #
coedge $-1 $41 $40 $14 $26 reversed $12 $-1 #
edge $-1 $49 0 $50 7.740000000000000213 $14 $51 forward 7 unknown #
coedge $-1 $16 $15 $39 $52 reversed $5 $-1 #
coedge $-1 $53 $54 $15 $29 forward $37 $-1 #
edge $-1 $55 0 $33 0.5 $15 $56 forward 7 unknown #
coedge $-1 $57 $47 $16 $31 reversed $58 $-1 #
edge $-1 $59 0 $34 0.5 $16 $60 forward 7 unknown #
coedge $-1 $17 $61 $53 $62 reversed $8 $-1 #
vertex $-1 $29 $63 #
vertex $-1 $31 $64 #
straight-curve $-1 -4.870000000000000995 -0.5 -6.370000000000000107 1 0 0 I I #
face $-1 $65 $66 $2 $-1 $67 reversed single #
loop $-1 $-1 $53 $19 #
plane-surface $-1 -4.870000000000000995 0 -4.299999999999999822 1 0 0 0 0 -1 forward_v I I I I #
coedge $-1 $68 $69 $27 $52 forward $20 $-1 #
coedge $-1 $25 $22 $70 $71 reversed $12 $-1 #
coedge $-1 $22 $25 $72 $73 reversed $12 $-1 #
coedge $-1 $69 $74 $22 $43 reversed $20 $-1 #
edge $-1 $75 0 $76 7.739999999999998437 $42 $77 forward 7 unknown #
coedge $-1 $78 $23 $79 $80 reversed $8 $-1 #
coedge $-1 $70 $81 $23 $46 reversed $82 $-1 #
edge $-1 $50 0 $83 1.570796326794897446 $23 $84 forward 7 unknown #
coedge $-1 $30 $72 $24 $48 reversed $58 $-1 #
edge $-1 $34 0 $49 1.570796326794895226 $24 $85 forward 7 unknown #
vertex $-1 $48 $86 #
vertex $-1 $46 $87 #
straight-curve $-1 11.77000000000000135 -0.5 -3.870000000000000107 0 0 1 I I #
edge $-1 $59 0 $55 14.14000000000000057 $27 $88 forward 7 unknown #
coedge $-1 $89 $28 $32 $62 forward $37 $-1 #
coedge $-1 $28 $89 $68 $90 reversed $37 $-1 #
vertex $-1 $52 $91 #
straight-curve $-1 -4.870000000000000995 0 -6.370000000000000107 0 -1 0 I I #
coedge $-1 $72 $30 $69 $92 reversed $58 $-1 #
loop $-1 $-1 $57 $93 #
vertex $-1 $31 $94 #
straight-curve $-1 9.269999999999999574 0 -6.370000000000000107 0 -1 0 I I #
coedge $-1 $32 $95 $96 $97 forward $8 $-1 #
edge $-1 $33 0 $98 2.070000000000000284 $32 $99 forward 7 unknown #
point $-1 -4.870000000000000995 -0.5 -6.370000000000000107 #
point $-1 9.269999999999999574 -0.5 -6.370000000000000107 #
face $-1 $100 $101 $2 $-1 $102 forward single #
loop $-1 $-1 $103 $36 #
plane-surface $-1 -9.870000000000000995 0 -4.299999999999999822 0 0 1 1 0 0 forward_v I I I I #
coedge $-1 $104 $39 $54 $90 forward $20 $-1 #
coedge $-1 $39 $42 $57 $92 forward $20 $-1 #
coedge $-1 $105 $45 $40 $71 forward $82 $-1 #
edge $-1 $50 0 $76 0.5 $40 $106 forward 7 unknown #
coedge $-1 $47 $57 $41 $73 forward $58 $-1 #
edge $-1 $75 0 $49 0.5 $41 $107 forward 7 unknown #
coedge $-1 $42 $108 $105 $109 forward $20 $-1 #
vertex $-1 $92 $110 #
vertex $-1 $43 $111 #
straight-curve $-1 11.76999999999999957 0 -3.870000000000000107 0 0 1 I I #
coedge $-1 $112 $44 $113 $114 forward $8 $-1 #
coedge $-1 $115 $116 $44 $80 forward $117 $-1 #
edge $-1 $118 0 $83 16.14000000000000057 $79 $119 forward 7 unknown #
coedge $-1 $45 $105 $115 $120 reversed $82 $-1 #
loop $-1 $-1 $45 $121 #
vertex $-1 $120 $122 #
ellipse-curve $-1 9.27000000000000135 -0.5 3.870000000000000107 0 -1 0 2.499999999999998224 0 0 1 I I #
ellipse-curve $-1 9.269999999999997797 -0.5 -3.86999999999999833 0 -1 0 1.776356839400250465e-15 0 -2.500000000000001776 1 I I #
point $-1 11.76999999999999957 -0.5 -3.870000000000000107 #
point $-1 11.76999999999999957 -0.5 3.870000000000000107 #
straight-curve $-1 9.269999999999999574 0 -6.370000000000000107 -1 0 0 I I #
coedge $-1 $54 $53 $103 $123 reversed $37 $-1 #
edge $-1 $55 0 $124 2.070000000000000284 $68 $125 forward 7 unknown #
point $-1 -4.870000000000000995 0 -6.370000000000000107 #
edge $-1 $75 0 $59 1.570796326794897446 $69 $126 forward 7 unknown #
face $-1 $-1 $58 $2 $-1 $127 forward single #
point $-1 9.269999999999999574 0 -6.370000000000000107 #
coedge $-1 $61 $128 $129 $130 reversed $8 $-1 #
coedge $-1 $131 $103 $61 $97 reversed $66 $-1 #
edge $-1 $132 0 $98 4.999999999999998224 $61 $133 forward 7 unknown #
vertex $-1 $62 $134 #
straight-curve $-1 -4.870000000000000995 -0.5 -6.370000000000000107 0 0 1 I I #
face $-1 $135 $136 $2 $-1 $137 reversed single #
loop $-1 $-1 $138 $65 #
plane-surface $-1 -9.869999999999999218 0 -6.370000000000000107 -1 0 0 0 -1 0 forward_v I I I I #
coedge $-1 $96 $139 $89 $123 forward $66 $-1 #
coedge $-1 $140 $68 $139 $141 reversed $20 $-1 #
coedge $-1 $81 $70 $74 $109 reversed $82 $-1 #
straight-curve $-1 11.76999999999999957 -0.5 3.870000000000000107 0 1 0 I I #
straight-curve $-1 11.76999999999999957 0 -3.870000000000000107 0 -1 0 I I #
coedge $-1 $74 $142 $143 $144 reversed $20 $-1 #
edge $-1 $145 0 $76 1.570796326794895892 $74 $146 forward 7 unknown #
point $-1 11.76999999999999957 0 -3.870000000000000107 #
point $-1 11.76999999999999957 0 3.86999999999999833 #
coedge $-1 $147 $78 $148 $149 reversed $8 $-1 #
coedge $-1 $150 $151 $78 $114 reversed $152 $-1 #
edge $-1 $118 0 $153 2.070000000000000284 $78 $154 forward 7 unknown #
coedge $-1 $143 $79 $81 $120 forward $117 $-1 #
coedge $-1 $79 $143 $150 $155 forward $117 $-1 #
loop $-1 $-1 $143 $156 #
vertex $-1 $80 $157 #
straight-curve $-1 -6.870000000000000995 -0.5 6.370000000000000107 1 0 0 I I #
edge $-1 $83 0 $145 0.5 $115 $158 forward 7 unknown #
face $-1 $93 $82 $2 $-1 $159 forward single #
point $-1 9.269999999999999574 -0.5 6.370000000000000107 #
edge $-1 $124 0 $98 0.5 $103 $160 forward 7 unknown #
vertex $-1 $141 $161 #
straight-curve $-1 -4.870000000000000995 0 -6.370000000000000107 0 0 1 I I #
ellipse-curve $-1 9.269999999999999574 0 -3.870000000000001883 0 1 0 2.5 0 1.776356839400250465e-15 1 I I #
cone-surface $-1 9.269999999999999574 0.03787543059412988578 -3.870000000000000107 0 -1 0 2.5 0 0 1 I I 0 1 2.5 forward I I I I #
coedge $-1 $95 $162 $163 $164 reversed $8 $-1 #
coedge $-1 $165 $138 $95 $130 forward $101 $-1 #
edge $-1 $132 0 $166 1.25 $129 $167 forward 7 unknown #
coedge $-1 $139 $96 $138 $168 reversed $66 $-1 #
vertex $-1 $130 $169 #
straight-curve $-1 -9.869999999999999218 -0.5 -4.299999999999999822 1 0 0 I I #
point $-1 -4.870000000000000995 -0.5 -4.299999999999999822 #
face $-1 $170 $171 $2 $-1 $172 reversed single #
loop $-1 $-1 $173 $100 #
plane-surface $-1 -7.370000000000000995 0 -3.049999999999999822 0 0 -1 -1 0 0 forward_v I I I I #
coedge $-1 $129 $174 $131 $168 forward $101 $-1 #
coedge $-1 $103 $131 $104 $141 forward $66 $-1 #
coedge $-1 $175 $104 $174 $176 forward $20 $-1 #
edge $-1 $177 1.776356839400250465e-15 $124 5 $104 $178 forward 7 unknown #
coedge $-1 $108 $179 $180 $181 reversed $20 $-1 #
coedge $-1 $116 $115 $108 $144 forward $117 $-1 #
edge $-1 $145 0 $182 16.14000000000000057 $143 $183 forward 7 unknown #
vertex $-1 $120 $184 #
ellipse-curve $-1 9.269999999999997797 0 3.86999999999999833 0 1 0 1.776356839400250465e-15 0 2.500000000000001776 1 I I #
coedge $-1 $185 $112 $186 $187 reversed $8 $-1 #
coedge $-1 $188 $189 $112 $149 forward $190 $-1 #
edge $-1 $191 0 $153 2.999999999999998224 $112 $192 forward 7 unknown #
coedge $-1 $180 $113 $116 $155 reversed $152 $-1 #
coedge $-1 $113 $180 $188 $193 forward $152 $-1 #
loop $-1 $-1 $151 $194 #
vertex $-1 $149 $195 #
straight-curve $-1 -6.870000000000000995 -0.5 6.370000000000000107 0 0 -1 I I #
edge $-1 $182 0 $118 0.5 $116 $196 forward 7 unknown #
face $-1 $121 $117 $2 $-1 $197 forward single #
point $-1 -6.870000000000000995 -0.5 6.370000000000000107 #
straight-curve $-1 9.269999999999999574 -0.5 6.370000000000000107 0 1 0 I I #
cone-surface $-1 9.269999999999999574 -0.5371340161017167381 3.870000000000000107 0 1 0 2.5 0 0 1 I I 0 1 2.5 forward I I I I #
straight-curve $-1 -4.870000000000000995 0 -4.299999999999999822 0 -1 0 I I #
point $-1 -4.870000000000000995 0 -4.299999999999999822 #
coedge $-1 $128 $185 $198 $199 forward $8 $-1 #
coedge $-1 $200 $173 $128 $164 forward $136 $-1 #
edge $-1 $166 0 $201 2.5 $128 $202 forward 7 unknown #
coedge $-1 $174 $129 $173 $203 reversed $101 $-1 #
vertex $-1 $203 $204 #
straight-curve $-1 -9.869999999999999218 -0.5 -4.299999999999999822 0 0 1 I I #
edge $-1 $177 0 $132 0.5 $138 $205 forward 7 unknown #
point $-1 -9.869999999999999218 -0.5 -4.299999999999999822 #
face $-1 $206 $207 $2 $-1 $208 reversed single #
loop $-1 $-1 $209 $135 #
plane-surface $-1 -7.370000000000000995 0 3.049999999999999822 1 0 0 0 0 -1 forward_v I I I I #
coedge $-1 $163 $210 $165 $203 forward $136 $-1 #
coedge $-1 $138 $165 $140 $176 reversed $101 $-1 #
coedge $-1 $211 $140 $210 $212 forward $20 $-1 #
edge $-1 $177 0 $213 1.25 $140 $214 forward 7 unknown #
vertex $-1 $176 $215 #
straight-curve $-1 -9.870000000000000995 0 -4.299999999999999822 1 0 0 I I #
coedge $-1 $142 $216 $217 $218 forward $20 $-1 #
coedge $-1 $151 $150 $142 $181 forward $152 $-1 #
edge $-1 $182 0 $219 2.070000000000000284 $142 $220 forward 7 unknown #
vertex $-1 $155 $221 #
straight-curve $-1 9.269999999999999574 0 6.370000000000000107 -1 0 0 I I #
point $-1 9.269999999999999574 0 6.370000000000000107 #
coedge $-1 $162 $147 $222 $223 forward $8 $-1 #
coedge $-1 $224 $225 $147 $187 forward $226 $-1 #
edge $-1 $227 0 $191 1.25 $186 $228 forward 7 unknown #
coedge $-1 $217 $148 $151 $193 reversed $190 $-1 #
coedge $-1 $148 $217 $224 $229 forward $190 $-1 #
loop $-1 $-1 $189 $230 #
vertex $-1 $229 $231 #
straight-curve $-1 -9.869999999999999218 -0.5 4.299999999999999822 1 0 0 I I #
edge $-1 $219 0 $153 0.5 $151 $232 forward 7 unknown #
face $-1 $156 $152 $2 $-1 $233 reversed single #
point $-1 -6.870000000000000995 -0.5 4.299999999999999822 #
straight-curve $-1 -6.870000000000000995 0 6.370000000000000107 0 -1 0 I I #
plane-surface $-1 10 0 6.370000000000000107 0 0 1 -1 0 0 forward_v I I I I #
coedge $-1 $234 $209 $162 $199 reversed $171 $-1 #
edge $-1 $235 0 $201 6.099999999999999645 $162 $236 forward 7 unknown #
coedge $-1 $210 $163 $209 $237 reversed $136 $-1 #
vertex $-1 $164 $238 #
straight-curve $-1 -9.869999999999999218 -0.5 -3.049999999999999822 1 0 0 I I #
edge $-1 $213 0 $166 0.5 $165 $239 forward 7 unknown #
point $-1 -9.869999999999999218 -0.5 -3.049999999999999822 #
straight-curve $-1 -9.869999999999999218 0 -4.299999999999999822 0 -1 0 I I #
face $-1 $230 $226 $2 $-1 $240 forward single #
loop $-1 $-1 $241 $170 #
plane-surface $-1 -9.870000000000000995 0 3.049999999999999822 0 0 1 1 0 0 forward_v I I I I #
coedge $-1 $198 $242 $200 $237 forward $171 $-1 #
coedge $-1 $173 $200 $175 $212 reversed $136 $-1 #
coedge $-1 $243 $175 $242 $244 reversed $20 $-1 #
edge $-1 $213 1.776356839400250465e-15 $245 2.5 $175 $246 forward 7 unknown #
vertex $-1 $212 $247 #
straight-curve $-1 -9.870000000000000995 0 -4.299999999999999822 0 0 1 I I #
point $-1 -9.869999999999999218 0 -4.299999999999999822 #
coedge $-1 $179 $243 $248 $249 forward $20 $-1 #
coedge $-1 $189 $188 $179 $218 reversed $190 $-1 #
edge $-1 $250 1.776356839400250465e-15 $219 3 $179 $251 forward 7 unknown #
vertex $-1 $181 $252 #
straight-curve $-1 -6.870000000000000995 0 6.370000000000000107 0 0 -1 I I #
point $-1 -6.870000000000000995 0 6.370000000000000107 #
coedge $-1 $253 $241 $185 $223 reversed $207 $-1 #
edge $-1 $227 0 $235 2.499999999999998224 $185 $254 forward 7 unknown #
coedge $-1 $248 $186 $189 $229 reversed $226 $-1 #
coedge $-1 $186 $248 $253 $255 forward $226 $-1 #
loop $-1 $-1 $248 $206 #
vertex $-1 $187 $256 #
straight-curve $-1 -9.869999999999999218 -0.5 3.049999999999999822 0 0 1 I I #
edge $-1 $250 0 $191 0.5 $224 $257 forward 7 unknown #
face $-1 $194 $190 $2 $-1 $258 reversed single #
point $-1 -9.869999999999999218 -0.5 4.299999999999999822 #
straight-curve $-1 -6.870000000000000995 0 4.299999999999999822 0 -1 0 I I #
plane-surface $-1 -6.870000000000000995 0 6.370000000000000107 1 0 0 0 0 -1 forward_v I I I I #
coedge $-1 $242 $198 $241 $259 reversed $171 $-1 #
vertex $-1 $199 $260 #
straight-curve $-1 -7.370000000000000995 -0.5 3.049999999999999822 0 0 -1 I I #
edge $-1 $245 0 $201 0.5 $209 $261 forward 7 unknown #
point $-1 -7.369999999999999218 -0.5 -3.049999999999999822 #
straight-curve $-1 -9.869999999999999218 0 -3.049999999999999822 0 -1 0 I I #
plane-surface $-1 -9.869999999999999218 0 -6.370000000000000107 -1 0 0 0 -1 0 forward_v I I I I #
coedge $-1 $222 $262 $234 $259 forward $207 $-1 #
coedge $-1 $209 $234 $211 $244 forward $171 $-1 #
coedge $-1 $216 $211 $262 $263 reversed $20 $-1 #
edge $-1 $264 0 $245 6.099999999999999645 $211 $265 forward 7 unknown #
vertex $-1 $244 $266 #
straight-curve $-1 -9.870000000000000995 0 -3.049999999999999822 1 0 0 I I #
point $-1 -9.869999999999999218 0 -3.049999999999999822 #
coedge $-1 $225 $224 $216 $249 reversed $226 $-1 #
edge $-1 $267 0 $250 1.25 $216 $268 forward 7 unknown #
vertex $-1 $218 $269 #
straight-curve $-1 -9.870000000000000995 0 4.299999999999999822 1 0 0 I I #
point $-1 -6.870000000000000995 0 4.299999999999999822 #
coedge $-1 $262 $222 $225 $255 reversed $207 $-1 #
straight-curve $-1 -9.869999999999999218 -0.5 3.049999999999999822 1 0 0 I I #
edge $-1 $267 0 $227 0.5 $225 $270 forward 7 unknown #
point $-1 -9.869999999999999218 -0.5 3.049999999999999822 #
straight-curve $-1 -9.869999999999999218 0 4.299999999999999822 0 -1 0 I I #
plane-surface $-1 -6.870000000000000995 0 4.299999999999999822 0 0 -1 -1 0 0 forward_v I I I I #
edge $-1 $264 0 $235 0.5 $241 $271 forward 7 unknown #
point $-1 -7.370000000000000995 -0.5 3.049999999999999822 #
straight-curve $-1 -7.370000000000000995 0 -3.049999999999999822 0 -1 0 I I #
coedge $-1 $241 $253 $243 $263 forward $207 $-1 #
edge $-1 $267 0 $264 2.5 $243 $272 forward 7 unknown #
vertex $-1 $263 $273 #
straight-curve $-1 -7.370000000000000995 0 3.049999999999999822 0 0 -1 I I #
point $-1 -7.370000000000000995 0 -3.049999999999999822 #
vertex $-1 $249 $274 #
straight-curve $-1 -9.870000000000000995 0 3.049999999999999822 0 0 1 I I #
point $-1 -9.869999999999999218 0 4.299999999999999822 #
straight-curve $-1 -9.869999999999999218 0 3.049999999999999822 0 -1 0 I I #
straight-curve $-1 -7.370000000000000995 0 3.049999999999999822 0 -1 0 I I #
straight-curve $-1 -9.870000000000000995 0 3.049999999999999822 1 0 0 I I #
point $-1 -7.370000000000000995 0 3.049999999999999822 #
point $-1 -9.870000000000000995 0 3.049999999999999822 #
End-of-ACIS-data 