600 0 1 0           
98 GICL ACIS Healer - Source: /gicl/data5/repository/PTC/V18/bboxrev2/boombox/magnet_4_.prt.sat - 6 0 18 ACIS 6.0.3 Solaris 24 Sat Apr 13 22:53:28 2002 
1 9.999999999999999547e-07 1.000000000000000036e-10 
body $-1 $1 $-1 $-1 #
lump $-1 $-1 $2 $0 #
shell $-1 $-1 $-1 $3 $-1 $1 #
face $-1 $4 $5 $2 $-1 $6 forward single #
face $-1 $7 $8 $2 $-1 $9 forward single #
loop $-1 $-1 $10 $3 #
plane-surface $-1 0 0 0 0 -1 0 -1 0 0 forward_v I I I I #
face $-1 $11 $12 $2 $-1 $13 forward single #
loop $-1 $-1 $14 $4 #
cone-surface $-1 0 21 0 0 -1 0 -20 0 0 1 I I 0 1 20 forward I I I I #
coedge $-1 $15 $15 $14 $16 reversed $5 $-1 #
face $-1 $17 $18 $2 $-1 $19 forward single #
loop $-1 $-1 $20 $7 #
cone-surface $-1 0 21 0 0 -1 0 -20 0 0 1 I I 0 1 20 forward I I I I #
coedge $-1 $21 $22 $10 $16 forward $8 $-1 #
coedge $-1 $10 $10 $23 $24 forward $5 $-1 #
edge $-1 $25 0 $26 3.141592653589793116 $10 $27 forward 7 unknown #
face $-1 $28 $29 $2 $-1 $30 forward single #
loop $-1 $31 $32 $11 #
plane-surface $-1 0 2 0 0 -1 0 -1 0 0 forward_v I I I I #
coedge $-1 $33 $34 $35 $36 forward $12 $-1 #
coedge $-1 $37 $14 $33 $38 forward $8 $-1 #
coedge $-1 $14 $37 $34 $39 reversed $8 $-1 #
coedge $-1 $34 $33 $15 $24 reversed $12 $-1 #
edge $-1 $25 0 $26 3.141592653589793116 $15 $40 forward 7 unknown #
vertex $-1 $24 $41 #
vertex $-1 $24 $42 #
ellipse-curve $-1 0 0 -1.776356839400250465e-15 0 1 0 20 0 4.225569547045004981e-15 1 I I #
face $-1 $43 $44 $2 $-1 $45 forward single #
loop $-1 $-1 $46 $17 #
cone-surface $-1 0 21 0 0 -1 0 -24 0 0 1 I I 0 1 24 forward I I I I #
loop $-1 $-1 $35 $11 #
coedge $-1 $47 $47 $46 $48 reversed $18 $-1 #
coedge $-1 $23 $20 $21 $38 reversed $12 $-1 #
coedge $-1 $20 $23 $22 $39 forward $12 $-1 #
coedge $-1 $49 $49 $20 $36 reversed $31 $-1 #
edge $-1 $50 1.224606353822377258e-16 $51 3.141592653589793116 $20 $52 forward 7 unknown #
coedge $-1 $22 $21 $49 $53 reversed $8 $-1 #
edge $-1 $26 0 $51 2 $33 $54 forward 7 unknown #
edge $-1 $25 0 $50 2 $34 $55 forward 7 unknown #
ellipse-curve $-1 8.881784197001252323e-16 0 -8.881784197001252323e-16 0 -1 0 20 0 3.337391127344879749e-15 1 I I #
point $-1 20 0 2.449212707644754516e-15 #
point $-1 -20 0 0 #
face $-1 $56 $57 $2 $-1 $58 reversed single #
loop $-1 $-1 $59 $28 #
cone-surface $-1 0 21 0 0 -1 0 -24 0 0 1 I I 0 1 24 forward I I I I #
coedge $-1 $60 $61 $32 $48 forward $29 $-1 #
coedge $-1 $32 $32 $62 $63 forward $18 $-1 #
edge $-1 $64 0 $65 3.141592653589793116 $32 $66 forward 7 unknown #
coedge $-1 $35 $35 $37 $53 forward $31 $-1 #
vertex $-1 $39 $67 #
vertex $-1 $38 $68 #
ellipse-curve $-1 -8.881784197001252323e-16 2 8.881784197001252323e-16 0 -1 0 20 0 -8.881784197001252323e-16 1 I I #
edge $-1 $50 -1.224606353822377258e-16 $51 3.141592653589793116 $49 $69 forward 7 unknown #
straight-curve $-1 -20 0 -4.898425415289509033e-15 0 1 0 I I #
straight-curve $-1 20 0 2.449212707644754516e-15 0 1 0 I I #
face $-1 $70 $71 $2 $-1 $72 forward single #
loop $-1 $73 $74 $43 #
plane-surface $-1 0 18 0 0 -1 0 -1 0 0 forward_v I I I I #
coedge $-1 $75 $76 $77 $78 forward $44 $-1 #
coedge $-1 $79 $46 $75 $80 forward $29 $-1 #
coedge $-1 $46 $79 $76 $81 reversed $29 $-1 #
coedge $-1 $76 $75 $47 $63 reversed $44 $-1 #
edge $-1 $64 0 $65 3.141592653589793116 $47 $82 forward 7 unknown #
vertex $-1 $63 $83 #
vertex $-1 $63 $84 #
ellipse-curve $-1 -8.881784197001252323e-16 2 -8.881784197001252323e-16 0 1 0 24 0 3.827233668873830652e-15 1 I I #
point $-1 20 2 2.449212707644754516e-15 #
point $-1 -20 2 0 #
ellipse-curve $-1 -8.881784197001252323e-16 2 -8.881784197001252323e-16 0 1 0 20 0 8.881784197001252323e-16 1 I I #
face $-1 $85 $86 $2 $-1 $87 forward single #
loop $-1 $-1 $88 $56 #
cone-surface $-1 0 21 0 0 -1 0 -20 0 0 1 I I 0 1 20 forward I I I I #
loop $-1 $-1 $77 $43 #
coedge $-1 $89 $89 $88 $90 reversed $57 $-1 #
coedge $-1 $62 $59 $60 $80 reversed $44 $-1 #
coedge $-1 $59 $62 $61 $81 forward $44 $-1 #
coedge $-1 $91 $91 $59 $78 reversed $73 $-1 #
edge $-1 $92 1.224606353822377258e-16 $93 3.141592653589793116 $59 $94 forward 7 unknown #
coedge $-1 $61 $60 $91 $95 reversed $29 $-1 #
edge $-1 $65 0 $93 16 $75 $96 forward 7 unknown #
edge $-1 $64 0 $92 16 $76 $97 forward 7 unknown #
ellipse-curve $-1 0 2 8.881784197001252323e-16 0 -1 0 24 0 2.050876829473580187e-15 1 I I #
point $-1 24 2 2.93905524917370542e-15 #
point $-1 -24 2 0 #
face $-1 $98 $99 $2 $-1 $100 reversed single #
loop $-1 $-1 $101 $70 #
cone-surface $-1 0 21 0 0 -1 0 -20 0 0 1 I I 0 1 20 forward I I I I #
coedge $-1 $102 $103 $74 $90 forward $71 $-1 #
coedge $-1 $74 $74 $104 $105 forward $57 $-1 #
edge $-1 $106 0 $107 3.141592653589793116 $74 $108 forward 7 unknown #
coedge $-1 $77 $77 $79 $95 forward $73 $-1 #
vertex $-1 $81 $109 #
vertex $-1 $80 $110 #
ellipse-curve $-1 8.881784197001252323e-16 18 0 0 -1 0 24 0 0 1 I I #
edge $-1 $92 -1.224606353822377258e-16 $93 3.141592653589793116 $91 $111 forward 7 unknown #
straight-curve $-1 -24 2 -5.878110498347410839e-15 0 1 0 I I #
straight-curve $-1 24 2 2.93905524917370542e-15 0 1 0 I I #
face $-1 $112 $113 $2 $-1 $114 reversed single #
loop $-1 $115 $116 $85 #
plane-surface $-1 0 20 0 0 -1 0 -1 0 0 forward_v I I I I #
coedge $-1 $117 $118 $119 $120 forward $86 $-1 #
coedge $-1 $121 $88 $117 $122 forward $71 $-1 #
coedge $-1 $88 $121 $118 $123 reversed $71 $-1 #
coedge $-1 $118 $117 $89 $105 reversed $86 $-1 #
edge $-1 $106 0 $107 3.141592653589793116 $89 $124 forward 7 unknown #
vertex $-1 $105 $125 #
vertex $-1 $105 $126 #
ellipse-curve $-1 0 18 -1.776356839400250465e-15 0 1 0 20 0 4.225569547045004981e-15 1 I I #
point $-1 24 18 2.93905524917370542e-15 #
point $-1 -24 18 0 #
ellipse-curve $-1 8.881784197001252323e-16 18 0 0 1 0 24 0 0 1 I I #
face $-1 $-1 $127 $2 $-1 $128 reversed single #
loop $-1 $-1 $129 $98 #
cone-surface $-1 0 17.42928578572857745 0 0 -1 0 -0.9801960588196075852 0 0 1 I I -0.7000000000000002887 0.714142842854284754 0.9801960588196075852 forward I I I I #
loop $-1 $-1 $119 $85 #
coedge $-1 $130 $130 $129 $131 reversed $99 $-1 #
coedge $-1 $104 $101 $102 $122 reversed $86 $-1 #
coedge $-1 $101 $104 $103 $123 forward $86 $-1 #
coedge $-1 $132 $132 $101 $120 reversed $115 $-1 #
edge $-1 $133 1.224606353822377258e-16 $134 3.141592653589793116 $101 $135 forward 7 unknown #
coedge $-1 $103 $102 $132 $136 reversed $71 $-1 #
edge $-1 $107 0 $134 2 $117 $137 forward 7 unknown #
edge $-1 $106 0 $133 2 $118 $138 forward 7 unknown #
ellipse-curve $-1 8.881784197001252323e-16 18 -8.881784197001252323e-16 0 -1 0 20 0 3.337391127344879749e-15 1 I I #
point $-1 20 18 2.449212707644754516e-15 #
point $-1 -20 18 0 #
loop $-1 $-1 $139 $112 #
cone-surface $-1 0 17.42928578572857745 0 0 -1 0 -0.9801960588196075852 0 0 1 I I -0.7000000000000002887 0.714142842854284754 0.9801960588196075852 forward I I I I #
coedge $-1 $140 $141 $116 $131 forward $113 $-1 #
coedge $-1 $116 $116 $142 $143 forward $99 $-1 #
edge $-1 $144 0 $145 3.141592653589793116 $116 $146 forward 7 unknown #
coedge $-1 $119 $119 $121 $136 forward $115 $-1 #
vertex $-1 $123 $147 #
vertex $-1 $122 $148 #
ellipse-curve $-1 -8.881784197001252323e-16 20 8.881784197001252323e-16 0 -1 0 20 0 -8.881784197001252323e-16 1 I I #
edge $-1 $133 -1.224606353822377258e-16 $134 3.141592653589793116 $132 $149 forward 7 unknown #
straight-curve $-1 -20 18 -4.898425415289509033e-15 0 1 0 I I #
straight-curve $-1 20 18 2.449212707644754516e-15 0 1 0 I I #
coedge $-1 $142 $150 $140 $151 reversed $127 $-1 #
coedge $-1 $141 $129 $139 $151 forward $113 $-1 #
coedge $-1 $129 $140 $150 $152 reversed $113 $-1 #
coedge $-1 $150 $139 $130 $143 reversed $127 $-1 #
edge $-1 $144 0 $145 3.141592653589793116 $130 $153 forward 7 unknown #
vertex $-1 $143 $154 #
vertex $-1 $143 $155 #
ellipse-curve $-1 0 20 -3.330669073875469621e-16 0 1 0 3.500000000000000444 0 7.616791312253790025e-16 1 I I #
point $-1 20 20 2.449212707644754516e-15 #
point $-1 -20 20 0 #
ellipse-curve $-1 -8.881784197001252323e-16 20 -8.881784197001252323e-16 0 1 0 20 0 8.881784197001252323e-16 1 I I #
coedge $-1 $139 $142 $141 $152 forward $127 $-1 #
edge $-1 $145 1.46966750738569526e-31 $156 4.999999999999998224 $139 $157 forward 7 unknown #
edge $-1 $144 -0 $156 4.999999999999998224 $150 $158 forward 7 unknown #
ellipse-curve $-1 0 20 -3.330669073875469621e-16 0 -1 0 3.500000000000000444 0 7.616791312253790025e-16 1 I I #
point $-1 3.500000000000000444 20 4.286122238378320404e-16 #
point $-1 -3.500000000000000444 20 0 #
vertex $-1 $152 $159 #
straight-curve $-1 -3.500000000000000444 20 -8.572244476756640807e-16 0.7000000000000002887 -0.714142842854284754 1.714448895351328852e-16 I I #
straight-curve $-1 3.500000000000000444 20 4.286122238378320404e-16 -0.7000000000000002887 -0.714142842854284754 -8.572244476756644259e-17 I I #
point $-1 0 16.42928578572857745 0 #
End-of-ACIS-data 