600 0 1 0           
101 GICL Pro/E ACIS Translator - Source: f:/data5/repository/PTC/V18/bboxrev2/boombox/magnet_4_.prt - 6 0 13 ACIS 6.0.3 NT 24 Thu Apr 04 13:42:41 2002 
1 9.9999999999999995e-007 1e-010 
body $-1 $1 $-1 $-1 #
lump $-1 $-1 $2 $0 #
shell $-1 $-1 $-1 $3 $-1 $1 #
face $-1 $4 $5 $2 $-1 $6 forward single #
face $-1 $7 $8 $2 $-1 $9 forward single #
loop $-1 $-1 $10 $3 #
plane-surface $-1 0 0 0 0 -1 0 -1 0 0 forward_v I I I I #
face $-1 $11 $12 $2 $-1 $13 forward single #
loop $-1 $-1 $14 $4 #
cone-surface $-1 0 21 0 0 -1 0 -20 0 0 1 I I 0 1 20 forward I I I I #
coedge $-1 $15 $15 $14 $16 reversed $5 $-1 #
face $-1 $17 $18 $2 $-1 $19 forward single #
loop $-1 $-1 $20 $7 #
cone-surface $-1 0 21 0 0 -1 0 -20 0 0 1 I I 0 1 20 forward I I I I #
coedge $-1 $21 $22 $10 $16 forward $8 $-1 #
coedge $-1 $10 $10 $23 $24 forward $5 $-1 #
edge $-1 $25 0 $26 3.1415926535897931 $10 $27 forward 7 unknown #
face $-1 $28 $29 $2 $-1 $30 forward single #
loop $-1 $31 $32 $11 #
plane-surface $-1 0 2 0 0 -1 0 -1 0 0 forward_v I I I I #
coedge $-1 $33 $34 $35 $36 forward $12 $-1 #
coedge $-1 $37 $14 $33 $38 forward $8 $-1 #
coedge $-1 $14 $37 $34 $39 reversed $8 $-1 #
coedge $-1 $34 $33 $15 $24 reversed $12 $-1 #
edge $-1 $25 0 $26 3.1415926535897931 $15 $40 forward 7 unknown #
vertex $-1 $24 $41 #
vertex $-1 $24 $42 #
ellipse-curve $-1 0 0 -1.7763568394002505e-015 0 1 0 20 0 4.225569547045005e-015 1 I I #
face $-1 $43 $44 $2 $-1 $45 forward single #
loop $-1 $-1 $46 $17 #
cone-surface $-1 0 21 0 0 -1 0 -24 0 0 1 I I 0 1 24 forward I I I I #
loop $-1 $-1 $35 $11 #
coedge $-1 $47 $47 $46 $48 reversed $18 $-1 #
coedge $-1 $23 $20 $21 $38 reversed $12 $-1 #
coedge $-1 $20 $23 $22 $39 forward $12 $-1 #
coedge $-1 $49 $49 $20 $36 reversed $31 $-1 #
edge $-1 $50 1.2246063538223773e-016 $51 3.1415926535897931 $20 $52 forward 7 unknown #
coedge $-1 $22 $21 $49 $53 reversed $8 $-1 #
edge $-1 $26 0 $51 2 $33 $54 forward 7 unknown #
edge $-1 $25 0 $50 2 $34 $55 forward 7 unknown #
ellipse-curve $-1 8.8817841970012523e-016 0 -8.8817841970012523e-016 0 -1 0 20 0 3.3373911273448797e-015 1 I I #
point $-1 20 0 2.4492127076447545e-015 #
point $-1 -20 0 0 #
face $-1 $56 $57 $2 $-1 $58 reversed single #
loop $-1 $-1 $59 $28 #
cone-surface $-1 0 21 0 0 -1 0 -24 0 0 1 I I 0 1 24 forward I I I I #
coedge $-1 $60 $61 $32 $48 forward $29 $-1 #
coedge $-1 $32 $32 $62 $63 forward $18 $-1 #
edge $-1 $64 0 $65 3.1415926535897931 $32 $66 forward 7 unknown #
coedge $-1 $35 $35 $37 $53 forward $31 $-1 #
vertex $-1 $39 $67 #
vertex $-1 $38 $68 #
ellipse-curve $-1 -8.8817841970012523e-016 2 8.8817841970012523e-016 0 -1 0 20 0 -8.8817841970012523e-016 1 I I #
edge $-1 $50 -1.2246063538223773e-016 $51 3.1415926535897931 $49 $69 forward 7 unknown #
straight-curve $-1 -20 0 -4.898425415289509e-015 0 1 0 I I #
straight-curve $-1 20 0 2.4492127076447545e-015 0 1 0 I I #
face $-1 $70 $71 $2 $-1 $72 forward single #
loop $-1 $73 $74 $43 #
plane-surface $-1 0 18 0 0 -1 0 -1 0 0 forward_v I I I I #
coedge $-1 $75 $76 $77 $78 forward $44 $-1 #
coedge $-1 $79 $46 $75 $80 forward $29 $-1 #
coedge $-1 $46 $79 $76 $81 reversed $29 $-1 #
coedge $-1 $76 $75 $47 $63 reversed $44 $-1 #
edge $-1 $64 0 $65 3.1415926535897931 $47 $82 forward 7 unknown #
vertex $-1 $63 $83 #
vertex $-1 $63 $84 #
ellipse-curve $-1 -8.8817841970012523e-016 2 -8.8817841970012523e-016 0 1 0 24 0 3.8272336688738307e-015 1 I I #
point $-1 20 2 2.4492127076447545e-015 #
point $-1 -20 2 0 #
ellipse-curve $-1 -8.8817841970012523e-016 2 -8.8817841970012523e-016 0 1 0 20 0 8.8817841970012523e-016 1 I I #
face $-1 $85 $86 $2 $-1 $87 forward single #
loop $-1 $-1 $88 $56 #
cone-surface $-1 0 21 0 0 -1 0 -20 0 0 1 I I 0 1 20 forward I I I I #
loop $-1 $-1 $77 $43 #
coedge $-1 $89 $89 $88 $90 reversed $57 $-1 #
coedge $-1 $62 $59 $60 $80 reversed $44 $-1 #
coedge $-1 $59 $62 $61 $81 forward $44 $-1 #
coedge $-1 $91 $91 $59 $78 reversed $73 $-1 #
edge $-1 $92 1.2246063538223773e-016 $93 3.1415926535897931 $59 $94 forward 7 unknown #
coedge $-1 $61 $60 $91 $95 reversed $29 $-1 #
edge $-1 $65 0 $93 16 $75 $96 forward 7 unknown #
edge $-1 $64 0 $92 16 $76 $97 forward 7 unknown #
ellipse-curve $-1 0 2 8.8817841970012523e-016 0 -1 0 24 0 2.0508768294735802e-015 1 I I #
point $-1 24 2 2.9390552491737054e-015 #
point $-1 -24 2 0 #
face $-1 $98 $99 $2 $-1 $100 reversed single #
loop $-1 $-1 $101 $70 #
cone-surface $-1 0 21 0 0 -1 0 -20 0 0 1 I I 0 1 20 forward I I I I #
coedge $-1 $102 $103 $74 $90 forward $71 $-1 #
coedge $-1 $74 $74 $104 $105 forward $57 $-1 #
edge $-1 $106 0 $107 3.1415926535897931 $74 $108 forward 7 unknown #
coedge $-1 $77 $77 $79 $95 forward $73 $-1 #
vertex $-1 $81 $109 #
vertex $-1 $80 $110 #
ellipse-curve $-1 8.8817841970012523e-016 18 0 0 -1 0 24 0 0 1 I I #
edge $-1 $92 -1.2246063538223773e-016 $93 3.1415926535897931 $91 $111 forward 7 unknown #
straight-curve $-1 -24 2 -5.8781104983474108e-015 0 1 0 I I #
straight-curve $-1 24 2 2.9390552491737054e-015 0 1 0 I I #
face $-1 $112 $113 $2 $-1 $114 reversed single #
loop $-1 $115 $116 $85 #
plane-surface $-1 0 20 0 0 -1 0 -1 0 0 forward_v I I I I #
coedge $-1 $117 $118 $119 $120 forward $86 $-1 #
coedge $-1 $121 $88 $117 $122 forward $71 $-1 #
coedge $-1 $88 $121 $118 $123 reversed $71 $-1 #
coedge $-1 $118 $117 $89 $105 reversed $86 $-1 #
edge $-1 $106 0 $107 3.1415926535897931 $89 $124 forward 7 unknown #
vertex $-1 $105 $125 #
vertex $-1 $105 $126 #
ellipse-curve $-1 0 18 -1.7763568394002505e-015 0 1 0 20 0 4.225569547045005e-015 1 I I #
point $-1 24 18 2.9390552491737054e-015 #
point $-1 -24 18 0 #
ellipse-curve $-1 8.8817841970012523e-016 18 0 0 1 0 24 0 0 1 I I #
face $-1 $-1 $127 $2 $-1 $128 reversed single #
loop $-1 $-1 $129 $98 #
cone-surface $-1 0 17.429285785728577 0 0 -1 0 -0.98019605881960759 0 0 1 I I -0.70000000000000029 0.71414284285428475 0.98019605881960759 forward I I I I #
loop $-1 $-1 $119 $85 #
coedge $-1 $130 $130 $129 $131 reversed $99 $-1 #
coedge $-1 $104 $101 $102 $122 reversed $86 $-1 #
coedge $-1 $101 $104 $103 $123 forward $86 $-1 #
coedge $-1 $132 $132 $101 $120 reversed $115 $-1 #
edge $-1 $133 1.2246063538223773e-016 $134 3.1415926535897931 $101 $135 forward 7 unknown #
coedge $-1 $103 $102 $132 $136 reversed $71 $-1 #
edge $-1 $107 0 $134 2 $117 $137 forward 7 unknown #
edge $-1 $106 0 $133 2 $118 $138 forward 7 unknown #
ellipse-curve $-1 8.8817841970012523e-016 18 -8.8817841970012523e-016 0 -1 0 20 0 3.3373911273448797e-015 1 I I #
point $-1 20 18 2.4492127076447545e-015 #
point $-1 -20 18 0 #
loop $-1 $-1 $139 $112 #
cone-surface $-1 0 17.429285785728577 0 0 -1 0 -0.98019605881960759 0 0 1 I I -0.70000000000000029 0.71414284285428475 0.98019605881960759 forward I I I I #
coedge $-1 $140 $141 $116 $131 forward $113 $-1 #
coedge $-1 $116 $116 $142 $143 forward $99 $-1 #
edge $-1 $144 0 $145 3.1415926535897931 $116 $146 forward 7 unknown #
coedge $-1 $119 $119 $121 $136 forward $115 $-1 #
vertex $-1 $123 $147 #
vertex $-1 $122 $148 #
ellipse-curve $-1 -8.8817841970012523e-016 20 8.8817841970012523e-016 0 -1 0 20 0 -8.8817841970012523e-016 1 I I #
edge $-1 $133 -1.2246063538223773e-016 $134 3.1415926535897931 $132 $149 forward 7 unknown #
straight-curve $-1 -20 18 -4.898425415289509e-015 0 1 0 I I #
straight-curve $-1 20 18 2.4492127076447545e-015 0 1 0 I I #
coedge $-1 $142 $150 $140 $151 reversed $127 $-1 #
coedge $-1 $141 $129 $139 $151 forward $113 $-1 #
coedge $-1 $129 $140 $150 $152 reversed $113 $-1 #
coedge $-1 $150 $139 $130 $143 reversed $127 $-1 #
edge $-1 $144 0 $145 3.1415926535897931 $130 $153 forward 7 unknown #
vertex $-1 $143 $154 #
vertex $-1 $143 $155 #
ellipse-curve $-1 0 20 -3.3306690738754696e-016 0 1 0 3.5000000000000004 0 7.61679131225379e-016 1 I I #
point $-1 20 20 2.4492127076447545e-015 #
point $-1 -20 20 0 #
ellipse-curve $-1 -8.8817841970012523e-016 20 -8.8817841970012523e-016 0 1 0 20 0 8.8817841970012523e-016 1 I I #
coedge $-1 $139 $142 $141 $152 forward $127 $-1 #
edge $-1 $145 1.4696675073856953e-031 $156 4.9999999999999982 $139 $157 forward 7 unknown #
edge $-1 $144 0 $156 4.9999999999999982 $150 $158 forward 7 unknown #
ellipse-curve $-1 0 20 -3.3306690738754696e-016 0 -1 0 3.5000000000000004 0 7.61679131225379e-016 1 I I #
point $-1 3.5000000000000004 20 4.2861222383783204e-016 #
point $-1 -3.5000000000000004 20 0 #
vertex $-1 $152 $159 #
straight-curve $-1 -3.5000000000000004 20 -8.5722444767566408e-016 0.70000000000000029 -0.71414284285428475 1.7144488953513289e-016 I I #
straight-curve $-1 3.5000000000000004 20 4.2861222383783204e-016 -0.70000000000000029 -0.71414284285428475 -8.5722444767566443e-017 I I #
point $-1 0 16.429285785728577 0 #
End-of-ACIS-data 