700 0 2 0           
24 FBMach with ACIS - 7.0.3 13 ACIS 7.0.3 NT 24 Thu May 16 14:54:22 2002 
1 9.9999999999999995e-007 1e-010 
body $2 -1 $-1 $3 $-1 $4 #
bdycol-kcp $-1 -1 1 4 $5 $6 $7 $8 #
model_id-kcp-attrib $-1 -1 $-1 $-1 $0 1 1021575261 1021575261 -1524170751 1 #
lump $-1 -1 $-1 $-1 $9 $0 #
transform $-1 -1 1 0 0 0 1 0 0 0 1 0 0 0 1 rotate no_reflect no_shear #
body $10 -1 $-1 $11 $-1 $12 #
body $13 -1 $-1 $14 $-1 $15 #
body $16 -1 $-1 $17 $-1 $18 #
body $19 -1 $-1 $20 $-1 $21 #
shell $-1 -1 $-1 $-1 $-1 $22 $-1 $3 #
model_id-kcp-attrib $-1 -1 $-1 $-1 $5 1 1021575261 1021575261 -1524170750 1 #
lump $-1 -1 $-1 $-1 $23 $5 #
transform $-1 -1 1 0 0 0 1 0 0 0 1 0 10 0 1 no_rotate no_reflect no_shear #
rgb_color-st-attrib $-1 -1 $24 $-1 $6 0.5 1 1 #
lump $-1 -1 $-1 $-1 $25 $6 #
transform $-1 -1 1 0 0 0 1 0 0 0 1 0 10 0 1 no_rotate no_reflect no_shear #
rgb_color-st-attrib $-1 -1 $26 $-1 $7 1 0.5 1 #
lump $-1 -1 $-1 $-1 $27 $7 #
transform $-1 -1 1 0 0 0 1 0 0 0 1 0 10 0 1 no_rotate no_reflect no_shear #
rgb_color-st-attrib $-1 -1 $28 $-1 $8 1 0.5 1 #
lump $-1 -1 $-1 $-1 $29 $8 #
transform $-1 -1 1 0 0 0 1 0 0 0 1 0 10 0 1 no_rotate no_reflect no_shear #
face $30 -1 $-1 $31 $32 $9 $-1 $33 forward single #
shell $-1 -1 $-1 $-1 $-1 $34 $-1 $11 #
model_id-kcp-attrib $-1 -1 $-1 $13 $6 1 1021575261 1021575261 -1516961789 1 #
shell $-1 -1 $-1 $-1 $-1 $35 $-1 $14 #
model_id-kcp-attrib $-1 -1 $-1 $16 $7 1 1021575261 1021575262 -1519058940 1 #
shell $-1 -1 $-1 $-1 $-1 $36 $-1 $17 #
model_id-kcp-attrib $-1 -1 $-1 $19 $8 1 1021575261 1021575262 -1511194619 1 #
shell $-1 -1 $-1 $-1 $-1 $37 $-1 $20 #
model_id-kcp-attrib $-1 -1 $-1 $-1 $22 1 1021575261 1021575261 -1524170751 2 #
face $38 -1 $-1 $39 $40 $9 $-1 $41 forward single #
loop $-1 -1 $-1 $-1 $42 $22 #
plane-surface $-1 -1 $-1 0 0 0 0 -1 0 -1 0 0 forward_v I I I I #
face $-1 -1 $-1 $43 $44 $23 $-1 $45 forward single #
face $-1 -1 $-1 $46 $47 $25 $-1 $48 reversed single #
face $-1 -1 $-1 $49 $50 $27 $-1 $51 forward single #
face $-1 -1 $-1 $52 $53 $29 $-1 $54 forward single #
model_id-kcp-attrib $-1 -1 $-1 $-1 $31 1 1021575261 1021575261 -1524170751 3 #
face $55 -1 $-1 $56 $57 $9 $-1 $58 forward single #
loop $-1 -1 $-1 $-1 $59 $31 #
cone-surface $-1 -1 $-1 0 21 0 0 -1 0 -20 0 0 1 I I 0 1 20 forward I I I I #
coedge $-1 -1 $-1 $60 $60 $59 $61 reversed $32 $-1 #
face $-1 -1 $-1 $62 $63 $23 $-1 $64 reversed single #
loop $-1 -1 $-1 $-1 $65 $34 #
plane-surface $-1 -1 $-1 0 0 24 0 0 1 1 0 0 forward_v I I I I #
face $-1 -1 $-1 $66 $67 $25 $-1 $48 reversed single #
loop $-1 -1 $-1 $-1 $68 $35 #
cone-surface $-1 -1 $-1 1.3319662899943351e-047 -10 -1.9721522630525295e-031 0 -1 0 24 0 2.9390552491737054e-015 1 I I 0 1 24 forward I I I I #
face $-1 -1 $-1 $69 $70 $27 $-1 $71 forward single #
loop $-1 -1 $-1 $72 $73 $36 #
cone-surface $-1 -1 $-1 1.3319662899943351e-047 8 -1.9721522630525295e-031 0 1 0 24 0 2.9390552491737054e-015 1 I I 0 1 24 forward I I I I #
face $-1 -1 $-1 $74 $75 $29 $-1 $76 forward single #
loop $-1 -1 $-1 $77 $78 $37 #
cone-surface $-1 -1 $-1 0 -8 0 0 -1 0 -20 0 0 1 I I 0 -1 20 forward I I I I #
model_id-kcp-attrib $-1 -1 $-1 $-1 $39 1 1021575261 1021575261 -1524170751 4 #
face $79 -1 $-1 $80 $81 $9 $-1 $82 forward single #
loop $-1 -1 $-1 $-1 $83 $39 #
cone-surface $-1 -1 $-1 0 21 0 0 -1 0 -20 0 0 1 I I 0 1 20 forward I I I I #
coedge $-1 -1 $-1 $84 $85 $42 $61 forward $40 $-1 #
coedge $-1 -1 $-1 $42 $42 $86 $87 forward $32 $-1 #
edge $88 -1 $-1 $89 0 $90 3.1415926535897931 $42 $91 forward @7 unknown #
face $92 -1 $-1 $93 $94 $23 $-1 $95 reversed single #
loop $-1 -1 $-1 $-1 $96 $43 #
plane-surface $-1 -1 $-1 0 0 -24 0 0 1 1 0 0 forward_v I I I I #
coedge $-1 -1 $-1 $97 $98 $99 $100 forward $44 $-1 #
face $-1 -1 $-1 $101 $102 $25 $-1 $48 reversed single #
loop $-1 -1 $-1 $-1 $103 $46 #
coedge $-1 -1 $-1 $104 $105 $106 $107 reversed $47 $-1 #
face $-1 -1 $-1 $108 $109 $27 $-1 $110 forward single #
loop $-1 -1 $-1 $111 $112 $49 #
cone-surface $-1 -1 $-1 0 8 0 0 1 0 -20 0 0 1 I I 0 -1 20 forward I I I I #
loop $-1 -1 $-1 $-1 $113 $36 #
coedge $-1 -1 $-1 $73 $73 $114 $115 forward $50 $-1 #
face $-1 -1 $-1 $116 $117 $29 $-1 $118 reversed single #
loop $-1 -1 $-1 $119 $120 $52 #
cone-surface $-1 -1 $-1 1.3319662899943351e-047 -8 -1.9721522630525295e-031 0 -1 0 24 0 2.9390552491737054e-015 1 I I 0 1 24 forward I I I I #
loop $-1 -1 $-1 $-1 $121 $37 #
coedge $-1 -1 $-1 $78 $78 $122 $123 forward $53 $-1 #
model_id-kcp-attrib $-1 -1 $-1 $-1 $56 1 1021575261 1021575261 -1524170751 5 #
face $124 -1 $-1 $125 $126 $9 $-1 $127 forward single #
loop $-1 -1 $-1 $128 $129 $56 #
plane-surface $-1 -1 $-1 0 2 0 0 -1 0 -1 0 0 forward_v I I I I #
coedge $-1 -1 $-1 $130 $131 $132 $133 forward $57 $-1 #
coedge $-1 -1 $-1 $134 $59 $130 $135 forward $40 $-1 #
coedge $-1 -1 $-1 $59 $134 $131 $136 reversed $40 $-1 #
coedge $-1 -1 $-1 $131 $130 $60 $87 reversed $57 $-1 #
edge $137 -1 $-1 $89 0 $90 3.1415926535897931 $60 $138 forward @7 unknown #
attrib_edge_convexity-kcp-attrib $-1 -1 $139 $-1 $61 1 #
vertex $-1 -1 $-1 $87 $140 #
vertex $-1 -1 $-1 $87 $141 #
ellipse-curve $-1 -1 $-1 0 0 -1.7763568394002505e-015 0 1 0 20 0 4.225569547045005e-015 1 I I #
model_id-kcp-attrib $-1 -1 $-1 $-1 $62 1 1021575261 1021575261 -1524170750 2 #
face $-1 -1 $-1 $142 $143 $23 $-1 $144 reversed single #
loop $-1 -1 $-1 $-1 $145 $62 #
plane-surface $-1 -1 $-1 0 -10 0 0 1 0 0 0 1 forward_v I I I I #
coedge $-1 -1 $-1 $146 $147 $148 $149 forward $63 $-1 #
coedge $-1 -1 $-1 $150 $65 $151 $152 forward $44 $-1 #
coedge $-1 -1 $-1 $65 $150 $153 $154 forward $44 $-1 #
coedge $-1 -1 $-1 $155 $156 $65 $100 reversed $157 $-1 #
edge $-1 -1 $-1 $158 -10 $159 10 $99 $160 forward @7 unknown #
face $-1 -1 $-1 $161 $162 $25 $-1 $48 reversed single #
loop $-1 -1 $-1 $-1 $163 $66 #
coedge $-1 -1 $-1 $164 $165 $166 $167 reversed $67 $-1 #
coedge $-1 -1 $-1 $168 $68 $169 $170 forward $47 $-1 #
coedge $-1 -1 $-1 $68 $168 $171 $172 reversed $47 $-1 #
coedge $-1 -1 $-1 $173 $174 $68 $107 forward $175 $-1 #
edge $-1 -1 $-1 $176 -1.2246063538223773e-016 $177 1.5707963267948966 $106 $178 forward @7 unknown #
face $-1 -1 $-1 $-1 $179 $27 $-1 $180 reversed single #
loop $-1 -1 $-1 $181 $182 $69 #
plane-surface $-1 -1 $-1 -1.190082644628099 10 -2.6425143065458272e-016 0 1 0 0 0 1 forward_v I I I I #
loop $-1 -1 $-1 $-1 $183 $49 #
coedge $-1 -1 $-1 $112 $112 $182 $184 forward $70 $-1 #
coedge $-1 -1 $-1 $113 $113 $185 $186 reversed $72 $-1 #
coedge $-1 -1 $-1 $114 $114 $73 $115 reversed $181 $-1 #
edge $-1 -1 $-1 $187 -3.1415926535897931 $187 3.1415926535897931 $73 $188 forward @7 unknown #
face $-1 -1 $-1 $-1 $189 $29 $-1 $190 forward single #
loop $-1 -1 $-1 $191 $192 $74 #
plane-surface $-1 -1 $-1 -1.1900826446280988 -10 0 0 1 0 0 0 1 forward_v I I I I #
loop $-1 -1 $-1 $-1 $193 $52 #
coedge $-1 -1 $-1 $120 $120 $192 $194 forward $75 $-1 #
coedge $-1 -1 $-1 $121 $121 $195 $196 reversed $77 $-1 #
coedge $-1 -1 $-1 $122 $122 $78 $123 reversed $191 $-1 #
edge $-1 -1 $-1 $197 0 $197 6.2831853071795862 $78 $198 forward @7 unknown #
model_id-kcp-attrib $-1 -1 $-1 $-1 $80 1 1021575261 1021575261 -1524170751 6 #
face $199 -1 $-1 $200 $201 $9 $-1 $202 forward single #
loop $-1 -1 $-1 $-1 $203 $80 #
cone-surface $-1 -1 $-1 0 21 0 0 -1 0 -24 0 0 1 I I 0 1 24 forward I I I I #
loop $-1 -1 $-1 $-1 $132 $56 #
coedge $-1 -1 $-1 $204 $204 $203 $205 reversed $81 $-1 #
coedge $-1 -1 $-1 $86 $83 $84 $135 reversed $57 $-1 #
coedge $-1 -1 $-1 $83 $86 $85 $136 forward $57 $-1 #
coedge $-1 -1 $-1 $206 $206 $83 $133 reversed $128 $-1 #
edge $207 -1 $-1 $208 1.2246063538223773e-016 $209 3.1415926535897931 $83 $210 forward @7 unknown #
coedge $-1 -1 $-1 $85 $84 $206 $211 reversed $40 $-1 #
edge $-1 -1 $-1 $90 0 $209 2 $130 $212 forward @7 unknown #
edge $-1 -1 $-1 $89 0 $208 2 $131 $213 forward @7 unknown #
attrib_edge_convexity-kcp-attrib $-1 -1 $214 $-1 $87 1 #
ellipse-curve $-1 -1 $-1 8.8817841970012523e-016 0 -8.8817841970012523e-016 0 -1 0 20 0 3.3373911273448797e-015 1 I I #
convexity-sys-attrib $-1 -1 $-1 $88 $61 #
point $-1 -1 $-1 20 0 2.4492127076447545e-015 #
point $-1 -1 $-1 -20 0 0 #
face $215 -1 $-1 $216 $217 $23 $-1 $218 reversed single #
loop $-1 -1 $-1 $-1 $219 $93 #
plane-surface $-1 -1 $-1 -24 0 0 1 0 0 0 0 -1 forward_v I I I I #
coedge $-1 -1 $-1 $220 $153 $221 $222 forward $94 $-1 #
coedge $-1 -1 $-1 $223 $96 $220 $224 forward $63 $-1 #
coedge $-1 -1 $-1 $96 $223 $225 $226 forward $63 $-1 #
coedge $-1 -1 $-1 $156 $155 $96 $149 reversed $157 $-1 #
edge $-1 -1 $-1 $227 -10 $228 10 $148 $229 forward @7 unknown #
coedge $-1 -1 $-1 $98 $97 $230 $231 forward $44 $-1 #
coedge $-1 -1 $-1 $232 $233 $97 $152 reversed $217 $-1 #
edge $-1 -1 $-1 $159 -24 $234 24 $151 $235 forward @7 unknown #
coedge $-1 -1 $-1 $145 $236 $98 $154 reversed $94 $-1 #
edge $-1 -1 $-1 $237 -24 $158 24 $153 $238 forward @7 unknown #
coedge $-1 -1 $-1 $148 $99 $236 $239 forward $157 $-1 #
coedge $-1 -1 $-1 $99 $148 $232 $240 reversed $157 $-1 #
loop $-1 -1 $-1 $-1 $155 $216 #
vertex $-1 -1 $-1 $100 $241 #
vertex $-1 -1 $-1 $100 $242 #
straight-curve $-1 -1 $-1 24 0 24 0 1 0 I I #
face $-1 -1 $-1 $243 $244 $25 $-1 $245 forward single #
loop $-1 -1 $-1 $-1 $246 $101 #
coedge $-1 -1 $-1 $247 $248 $246 $249 forward $102 $-1 #
coedge $-1 -1 $-1 $250 $103 $251 $252 reversed $67 $-1 #
coedge $-1 -1 $-1 $103 $250 $105 $172 forward $67 $-1 #
coedge $-1 -1 $-1 $253 $254 $103 $167 forward $255 $-1 #
edge $-1 -1 $-1 $256 -3.1415926535897931 $257 -1.5707963267948966 $166 $258 forward @7 unknown #
coedge $-1 -1 $-1 $105 $104 $259 $260 reversed $47 $-1 #
coedge $-1 -1 $-1 $248 $247 $261 $170 reversed $102 $-1 #
edge $-1 -1 $-1 $176 -20 $262 0 $261 $263 forward @7 unknown #
coedge $-1 -1 $-1 $264 $265 $266 $172 forward $267 $-1 #
edge $-1 -1 $-1 $177 -20 $257 0 $171 $268 forward @7 unknown #
coedge $-1 -1 $-1 $174 $106 $265 $269 reversed $175 $-1 #
coedge $-1 -1 $-1 $106 $173 $270 $271 forward $175 $-1 #
loop $-1 -1 $-1 $-1 $106 $272 #
vertex $-1 -1 $-1 $273 $274 #
vertex $-1 -1 $-1 $275 $276 #
ellipse-curve $-1 -1 $-1 1.3319662899943351e-047 10 -1.9721522630525295e-031 0 -1 0 24 0 2.9390552491737054e-015 1 I I #
loop $-1 -1 $-1 $277 $278 $108 #
plane-surface $-1 -1 $-1 -1.190082644628099 8 -2.6425143065458272e-016 0 1 0 0 0 1 forward_v I I I I #
loop $-1 -1 $-1 $-1 $114 $69 #
coedge $-1 -1 $-1 $182 $182 $112 $184 reversed $109 $-1 #
coedge $-1 -1 $-1 $183 $183 $278 $279 reversed $111 $-1 #
edge $-1 -1 $-1 $280 -3.1415926535897931 $280 3.1415926535897931 $112 $281 forward @7 unknown #
coedge $-1 -1 $-1 $185 $185 $113 $186 forward $277 $-1 #
edge $282 -1 $-1 $283 -3.1415926535897931 $283 3.1415926535897931 $113 $284 forward @7 unknown #
vertex $-1 -1 $-1 $115 $285 #
ellipse-curve $-1 -1 $-1 1.3319662899943351e-047 10 -1.9721522630525295e-031 0 -1 0 24 0 2.9390552491737054e-015 1 I I #
loop $-1 -1 $-1 $286 $287 $116 #
plane-surface $-1 -1 $-1 -1.1900826446280988 -8 0 0 1 0 0 0 1 forward_v I I I I #
loop $-1 -1 $-1 $-1 $122 $74 #
coedge $-1 -1 $-1 $192 $192 $120 $194 reversed $117 $-1 #
coedge $-1 -1 $-1 $193 $193 $287 $288 reversed $119 $-1 #
edge $-1 -1 $-1 $289 -3.1415926535897931 $289 3.1415926535897931 $120 $290 forward @7 unknown #
coedge $-1 -1 $-1 $195 $195 $121 $196 forward $286 $-1 #
edge $291 -1 $-1 $292 -3.1415926535897931 $292 3.1415926535897931 $121 $293 forward @7 unknown #
vertex $-1 -1 $-1 $123 $294 #
ellipse-curve $-1 -1 $-1 0 -10 0 0 -1 0 -20 0 0 1 I I #
model_id-kcp-attrib $-1 -1 $-1 $-1 $125 1 1021575261 1021575261 -1524170751 7 #
face $295 -1 $-1 $296 $297 $9 $-1 $298 reversed single #
loop $-1 -1 $-1 $-1 $299 $125 #
cone-surface $-1 -1 $-1 0 21 0 0 -1 0 -24 0 0 1 I I 0 1 24 forward I I I I #
coedge $-1 -1 $-1 $300 $301 $129 $205 forward $126 $-1 #
coedge $-1 -1 $-1 $129 $129 $302 $303 forward $81 $-1 #
edge $304 -1 $-1 $305 0 $306 3.1415926535897931 $129 $307 forward @7 unknown #
coedge $-1 -1 $-1 $132 $132 $134 $211 forward $128 $-1 #
attrib_edge_convexity-kcp-attrib $-1 -1 $308 $-1 $133 2 #
vertex $-1 -1 $-1 $136 $309 #
vertex $-1 -1 $-1 $135 $310 #
ellipse-curve $-1 -1 $-1 -8.8817841970012523e-016 2 8.8817841970012523e-016 0 -1 0 20 0 -8.8817841970012523e-016 1 I I #
edge $311 -1 $-1 $208 -1.2246063538223773e-016 $209 3.1415926535897931 $206 $312 forward @7 unknown #
straight-curve $-1 -1 $-1 -20 0 -4.898425415289509e-015 0 1 0 I I #
straight-curve $-1 -1 $-1 20 0 2.4492127076447545e-015 0 1 0 I I #
convexity-sys-attrib $-1 -1 $-1 $137 $87 #
model_id-kcp-attrib $-1 -1 $-1 $-1 $142 1 1021575261 1021575261 -1524170750 3 #
face $-1 -1 $-1 $-1 $157 $23 $-1 $313 reversed single #
loop $-1 -1 $-1 $-1 $232 $142 #
plane-surface $-1 -1 $-1 0 10 0 0 -1 0 0 0 -1 forward_v I I I I #
coedge $-1 -1 $-1 $314 $230 $233 $315 forward $143 $-1 #
coedge $-1 -1 $-1 $236 $145 $146 $224 reversed $94 $-1 #
coedge $-1 -1 $-1 $230 $314 $145 $222 reversed $143 $-1 #
edge $-1 -1 $-1 $237 -24 $316 24 $221 $317 forward @7 unknown #
coedge $-1 -1 $-1 $147 $146 $314 $318 forward $63 $-1 #
edge $-1 -1 $-1 $228 -24 $316 24 $220 $319 forward @7 unknown #
coedge $-1 -1 $-1 $233 $232 $147 $226 reversed $217 $-1 #
edge $-1 -1 $-1 $320 -24 $227 24 $225 $321 forward @7 unknown #
vertex $-1 -1 $-1 $149 $322 #
vertex $-1 -1 $-1 $239 $323 #
straight-curve $-1 -1 $-1 24 0 -24 0 -1 0 I I #
coedge $-1 -1 $-1 $219 $221 $150 $231 reversed $143 $-1 #
edge $-1 -1 $-1 $234 -10 $237 10 $230 $324 forward @7 unknown #
coedge $-1 -1 $-1 $225 $151 $156 $240 forward $217 $-1 #
coedge $-1 -1 $-1 $151 $225 $219 $315 reversed $217 $-1 #
vertex $-1 -1 $-1 $152 $325 #
straight-curve $-1 -1 $-1 0 10 24 -1 0 0 I I #
coedge $-1 -1 $-1 $153 $220 $155 $239 reversed $94 $-1 #
vertex $-1 -1 $-1 $231 $326 #
straight-curve $-1 -1 $-1 0 -10 24 1 0 0 I I #
edge $-1 -1 $-1 $158 -24 $228 24 $155 $327 forward @7 unknown #
edge $-1 -1 $-1 $159 -24 $227 24 $156 $328 forward @7 unknown #
point $-1 -1 $-1 24 -10 24 #
point $-1 -1 $-1 24 10 24 #
face $-1 -1 $-1 $329 $330 $25 $-1 $331 reversed single #
loop $-1 -1 $-1 $-1 $266 $161 #
plane-surface $-1 -1 $-1 0 0 24 0 0 1 1 0 0 forward_v I I I I #
coedge $-1 -1 $-1 $332 $333 $334 $249 reversed $162 $-1 #
coedge $-1 -1 $-1 $169 $163 $335 $336 reversed $102 $-1 #
coedge $-1 -1 $-1 $163 $169 $337 $338 reversed $102 $-1 #
edge $-1 -1 $-1 $339 -20 $340 0 $334 $341 forward @7 unknown #
coedge $-1 -1 $-1 $165 $164 $342 $343 reversed $67 $-1 #
coedge $-1 -1 $-1 $344 $345 $346 $252 forward $347 $-1 #
edge $-1 -1 $-1 $348 -20 $256 0 $251 $349 forward @7 unknown #
coedge $-1 -1 $-1 $254 $166 $350 $351 reversed $255 $-1 #
coedge $-1 -1 $-1 $166 $253 $344 $352 forward $255 $-1 #
loop $-1 -1 $-1 $-1 $166 $353 #
vertex $-1 -1 $-1 $354 $355 #
vertex $-1 -1 $-1 $356 $357 #
ellipse-curve $-1 -1 $-1 1.3319662899943351e-047 -10 -1.9721522630525295e-031 0 1 0 24 0 2.9390552491737054e-015 1 I I #
coedge $-1 -1 $-1 $358 $359 $168 $260 forward $360 $-1 #
edge $-1 -1 $-1 $257 -1.5707963267948966 $262 1.2246063538223773e-016 $259 $258 forward @7 unknown #
coedge $-1 -1 $-1 $361 $362 $363 $170 forward $330 $-1 #
vertex $-1 -1 $-1 $364 $365 #
straight-curve $-1 -1 $-1 24 -10 -1.9721522630525295e-031 0 -1 0 I I #
coedge $-1 -1 $-1 $366 $171 $359 $356 forward $267 $-1 #
coedge $-1 -1 $-1 $171 $366 $173 $269 forward $267 $-1 #
coedge $-1 -1 $-1 $367 $350 $165 $172 reversed $244 $-1 #
loop $-1 -1 $-1 $-1 $171 $368 #
straight-curve $-1 -1 $-1 1.3319662899943351e-047 -10 24 0 -1 0 I I #
edge $-1 -1 $-1 $369 -24 $177 -1.3319662899943351e-047 $173 $370 forward @7 unknown #
coedge $-1 -1 $-1 $371 $363 $174 $271 reversed $372 $-1 #
edge $-1 -1 $-1 $369 -24 $176 1.9721522630525295e-031 $270 $373 forward @7 unknown #
face $-1 -1 $-1 $374 $175 $25 $-1 $375 reversed single #
edge $-1 -1 $-1 $176 1.9721522630525295e-031 $376 24 $362 $373 forward @7 unknown #
point $-1 -1 $-1 24 10 -1.9721522630525295e-031 #
edge $-1 -1 $-1 $177 -1.3319662899943351e-047 $377 24 $378 $370 forward @7 unknown #
point $-1 -1 $-1 1.3319662899943351e-047 10 24 #
loop $-1 -1 $-1 $-1 $185 $108 #
coedge $-1 -1 $-1 $278 $278 $183 $279 forward $179 $-1 #
edge $379 -1 $-1 $380 0 $380 6.2831853071795862 $183 $381 forward @7 unknown #
vertex $-1 -1 $-1 $184 $382 #
ellipse-curve $-1 -1 $-1 0 10 0 0 1 0 -20 0 0 1 I I #
convexity-sys-attrib $-1 -1 $-1 $-1 $186 #
vertex $-1 -1 $-1 $186 $383 #
ellipse-curve $-1 -1 $-1 1.3319662899943351e-047 8 -1.9721522630525295e-031 0 -1 0 24 0 2.9390552491737054e-015 1 I I #
point $-1 -1 $-1 -24 10 -5.8781104983474108e-015 #
loop $-1 -1 $-1 $-1 $195 $116 #
coedge $-1 -1 $-1 $287 $287 $193 $288 forward $189 $-1 #
edge $384 -1 $-1 $385 -3.1415926535897931 $385 3.1415926535897931 $193 $386 forward @7 unknown #
vertex $-1 -1 $-1 $194 $387 #
ellipse-curve $-1 -1 $-1 1.3319662899943351e-047 -10 -1.9721522630525295e-031 0 1 0 24 0 2.9390552491737054e-015 1 I I #
convexity-sys-attrib $-1 -1 $-1 $-1 $196 #
vertex $-1 -1 $-1 $196 $388 #
ellipse-curve $-1 -1 $-1 0 -8 0 0 -1 0 -20 0 0 1 I I #
point $-1 -1 $-1 -20 -10 0 #
model_id-kcp-attrib $-1 -1 $-1 $-1 $200 1 1021575261 1021575261 -1524170751 8 #
face $389 -1 $-1 $390 $391 $9 $-1 $392 forward single #
loop $-1 -1 $-1 $393 $394 $200 #
plane-surface $-1 -1 $-1 0 18 0 0 -1 0 -1 0 0 forward_v I I I I #
coedge $-1 -1 $-1 $395 $396 $397 $398 forward $201 $-1 #
coedge $-1 -1 $-1 $399 $203 $395 $400 forward $126 $-1 #
coedge $-1 -1 $-1 $203 $399 $396 $401 reversed $126 $-1 #
coedge $-1 -1 $-1 $396 $395 $204 $303 reversed $201 $-1 #
edge $402 -1 $-1 $305 0 $306 3.1415926535897931 $204 $403 forward @7 unknown #
attrib_edge_convexity-kcp-attrib $-1 -1 $404 $-1 $205 1 #
vertex $-1 -1 $-1 $303 $405 #
vertex $-1 -1 $-1 $303 $406 #
ellipse-curve $-1 -1 $-1 -8.8817841970012523e-016 2 -8.8817841970012523e-016 0 1 0 24 0 3.8272336688738307e-015 1 I I #
convexity-sys-attrib $-1 -1 $-1 $207 $133 #
point $-1 -1 $-1 20 2 2.4492127076447545e-015 #
point $-1 -1 $-1 -20 2 0 #
attrib_edge_convexity-kcp-attrib $-1 -1 $407 $-1 $211 2 #
ellipse-curve $-1 -1 $-1 -8.8817841970012523e-016 2 -8.8817841970012523e-016 0 1 0 20 0 8.8817841970012523e-016 1 I I #
plane-surface $-1 -1 $-1 24 0 0 -1 0 0 0 0 1 forward_v I I I I #
coedge $-1 -1 $-1 $221 $219 $223 $318 reversed $143 $-1 #
edge $-1 -1 $-1 $234 -24 $320 24 $233 $408 forward @7 unknown #
vertex $-1 -1 $-1 $318 $409 #
straight-curve $-1 -1 $-1 -24 -10 0 0 0 -1 I I #
edge $-1 -1 $-1 $316 -10 $320 10 $314 $410 forward @7 unknown #
straight-curve $-1 -1 $-1 0 -10 -24 -1 0 0 I I #
vertex $-1 -1 $-1 $226 $411 #
straight-curve $-1 -1 $-1 0 10 -24 1 0 0 I I #
point $-1 -1 $-1 24 10 -24 #
point $-1 -1 $-1 24 -10 -24 #
straight-curve $-1 -1 $-1 -24 0 24 0 -1 0 I I #
point $-1 -1 $-1 -24 10 24 #
point $-1 -1 $-1 -24 -10 24 #
straight-curve $-1 -1 $-1 24 -10 0 0 0 -1 I I #
straight-curve $-1 -1 $-1 24 10 0 0 0 -1 I I #
face $-1 -1 $-1 $412 $413 $25 $-1 $414 reversed single #
loop $-1 -1 $-1 $-1 $261 $243 #
plane-surface $-1 -1 $-1 24 0 0 -1 0 0 0 0 1 forward_v I I I I #
coedge $-1 -1 $-1 $415 $246 $416 $417 reversed $162 $-1 #
coedge $-1 -1 $-1 $246 $415 $418 $419 reversed $162 $-1 #
coedge $-1 -1 $-1 $420 $421 $422 $249 forward $423 $-1 #
coedge $-1 -1 $-1 $424 $425 $247 $336 forward $426 $-1 #
edge $-1 -1 $-1 $262 1.2246063538223773e-016 $340 1.5707963267948968 $335 $258 forward @7 unknown #
coedge $-1 -1 $-1 $427 $428 $248 $338 forward $429 $-1 #
edge $-1 -1 $-1 $339 -1.5707963267948968 $176 -1.2246063538223773e-016 $337 $178 forward @7 unknown #
vertex $-1 -1 $-1 $430 $431 #
vertex $-1 -1 $-1 $432 $433 #
straight-curve $-1 -1 $-1 1.3319662899943351e-047 -10 -24 0 -1 0 I I #
coedge $-1 -1 $-1 $434 $378 $250 $343 forward $435 $-1 #
edge $-1 -1 $-1 $177 1.5707963267948966 $348 3.1415926535897931 $342 $178 forward @7 unknown #
coedge $-1 -1 $-1 $436 $251 $254 $352 reversed $347 $-1 #
coedge $-1 -1 $-1 $251 $436 $434 $437 forward $347 $-1 #
coedge $-1 -1 $-1 $438 $439 $415 $252 reversed $413 $-1 #
loop $-1 -1 $-1 $-1 $251 $440 #
vertex $-1 -1 $-1 $441 $442 #
straight-curve $-1 -1 $-1 -24 -10 -1.9721522630525295e-031 0 -1 0 I I #
coedge $-1 -1 $-1 $266 $443 $253 $351 forward $244 $-1 #
edge $-1 -1 $-1 $444 -24 $257 1.3319662899943351e-047 $253 $445 forward @7 unknown #
edge $-1 -1 $-1 $444 -24 $256 1.9721522630525295e-031 $344 $446 forward @7 unknown #
face $-1 -1 $-1 $447 $255 $25 $-1 $448 reversed single #
edge $-1 -1 $-1 $256 1.9721522630525295e-031 $449 24 $439 $446 forward @7 unknown #
point $-1 -1 $-1 -24 -10 -1.9721522630525295e-031 #
edge $-1 -1 $-1 $257 1.3319662899943351e-047 $450 24 $359 $445 forward @7 unknown #
point $-1 -1 $-1 1.3319662899943351e-047 -10 24 #
coedge $-1 -1 $-1 $359 $259 $451 $452 reversed $360 $-1 #
coedge $-1 -1 $-1 $259 $358 $264 $356 reversed $360 $-1 #
loop $-1 -1 $-1 $-1 $259 $447 #
coedge $-1 -1 $-1 $453 $261 $425 $364 forward $330 $-1 #
coedge $-1 -1 $-1 $261 $453 $427 $273 reversed $330 $-1 #
coedge $-1 -1 $-1 $270 $451 $104 $170 reversed $372 $-1 #
edge $-1 -1 $-1 $262 1.9721522630525295e-031 $454 24 $361 $455 forward @7 unknown #
point $-1 -1 $-1 24 -10 -1.9721522630525295e-031 #
coedge $-1 -1 $-1 $265 $264 $371 $456 forward $267 $-1 #
coedge $-1 -1 $-1 $443 $266 $378 $275 forward $244 $-1 #
face $-1 -1 $-1 $457 $267 $25 $-1 $245 forward single #
vertex $-1 -1 $-1 $456 $458 #
straight-curve $-1 -1 $-1 0 10 24 -1 0 0 I I #
coedge $-1 -1 $-1 $451 $270 $366 $456 reversed $372 $-1 #
loop $-1 -1 $-1 $-1 $363 $459 #
straight-curve $-1 -1 $-1 24 10 0 0 0 -1 I I #
face $-1 -1 $-1 $460 $435 $25 $-1 $375 reversed single #
plane-surface $-1 -1 $-1 0 10 0 0 -1 0 0 0 -1 forward_v I I I I #
vertex $-1 -1 $-1 $461 $462 #
vertex $-1 -1 $-1 $275 $463 #
coedge $-1 -1 $-1 $342 $434 $367 $275 reversed $435 $-1 #
convexity-sys-attrib $-1 -1 $-1 $-1 $279 #
vertex $-1 -1 $-1 $279 $464 #
ellipse-curve $-1 -1 $-1 0 8 0 0 1 0 -20 0 0 1 I I #
point $-1 -1 $-1 20 10 2.4492127076447545e-015 #
point $-1 -1 $-1 -24 8 -5.8781104983474108e-015 #
convexity-sys-attrib $-1 -1 $-1 $-1 $288 #
vertex $-1 -1 $-1 $288 $465 #
ellipse-curve $-1 -1 $-1 1.3319662899943351e-047 -8 -1.9721522630525295e-031 0 1 0 24 0 2.9390552491737054e-015 1 I I #
point $-1 -1 $-1 -24 -10 0 #
point $-1 -1 $-1 20 -8 2.4492127076447545e-015 #
model_id-kcp-attrib $-1 -1 $-1 $-1 $296 1 1021575261 1021575261 -1524170751 9 #
face $466 -1 $-1 $467 $468 $9 $-1 $469 forward single #
loop $-1 -1 $-1 $-1 $470 $296 #
cone-surface $-1 -1 $-1 0 21 0 0 -1 0 -20 0 0 1 I I 0 1 20 forward I I I I #
loop $-1 -1 $-1 $-1 $397 $200 #
coedge $-1 -1 $-1 $471 $471 $470 $472 reversed $297 $-1 #
coedge $-1 -1 $-1 $302 $299 $300 $400 reversed $201 $-1 #
coedge $-1 -1 $-1 $299 $302 $301 $401 forward $201 $-1 #
coedge $-1 -1 $-1 $473 $473 $299 $398 reversed $393 $-1 #
edge $474 -1 $-1 $475 1.2246063538223773e-016 $476 3.1415926535897931 $299 $477 forward @7 unknown #
coedge $-1 -1 $-1 $301 $300 $473 $478 reversed $126 $-1 #
edge $-1 -1 $-1 $306 0 $476 16 $395 $479 forward @7 unknown #
edge $-1 -1 $-1 $305 0 $475 16 $396 $480 forward @7 unknown #
attrib_edge_convexity-kcp-attrib $-1 -1 $481 $-1 $303 1 #
ellipse-curve $-1 -1 $-1 0 2 8.8817841970012523e-016 0 -1 0 24 0 2.0508768294735802e-015 1 I I #
convexity-sys-attrib $-1 -1 $-1 $304 $205 #
point $-1 -1 $-1 24 2 2.9390552491737054e-015 #
point $-1 -1 $-1 -24 2 0 #
convexity-sys-attrib $-1 -1 $-1 $311 $211 #
straight-curve $-1 -1 $-1 -24 10 0 0 0 -1 I I #
point $-1 -1 $-1 -24 -10 -24 #
straight-curve $-1 -1 $-1 -24 0 -24 0 1 0 I I #
point $-1 -1 $-1 -24 10 -24 #
face $-1 -1 $-1 $353 $482 $25 $-1 $448 reversed single #
loop $-1 -1 $-1 $-1 $346 $329 #
plane-surface $-1 -1 $-1 -24 0 0 1 0 0 0 0 -1 forward_v I I I I #
coedge $-1 -1 $-1 $333 $332 $164 $252 forward $162 $-1 #
coedge $-1 -1 $-1 $483 $484 $332 $417 forward $485 $-1 #
edge $-1 -1 $-1 $348 -3.1415926535897931 $339 -1.5707963267948968 $416 $178 forward @7 unknown #
coedge $-1 -1 $-1 $486 $487 $333 $419 forward $482 $-1 #
edge $-1 -1 $-1 $340 1.5707963267948968 $256 3.1415926535897931 $418 $258 forward @7 unknown #
coedge $-1 -1 $-1 $488 $334 $487 $432 forward $423 $-1 #
coedge $-1 -1 $-1 $334 $488 $483 $489 forward $423 $-1 #
coedge $-1 -1 $-1 $490 $491 $163 $249 reversed $492 $-1 #
loop $-1 -1 $-1 $-1 $334 $457 #
coedge $-1 -1 $-1 $425 $335 $491 $493 reversed $426 $-1 #
coedge $-1 -1 $-1 $335 $424 $361 $364 reversed $426 $-1 #
loop $-1 -1 $-1 $-1 $335 $494 #
coedge $-1 -1 $-1 $428 $337 $362 $273 forward $429 $-1 #
coedge $-1 -1 $-1 $337 $427 $490 $430 reversed $429 $-1 #
loop $-1 -1 $-1 $-1 $337 $495 #
edge $-1 -1 $-1 $339 1.3319662899943351e-047 $376 24 $428 $496 forward @7 unknown #
point $-1 -1 $-1 1.3319662899943351e-047 10 -24 #
edge $-1 -1 $-1 $340 -1.3319662899943351e-047 $449 24 $487 $497 forward @7 unknown #
point $-1 -1 $-1 1.3319662899943351e-047 -10 -24 #
coedge $-1 -1 $-1 $378 $342 $345 $437 reversed $435 $-1 #
loop $-1 -1 $-1 $-1 $342 $374 #
coedge $-1 -1 $-1 $345 $344 $443 $498 reversed $347 $-1 #
edge $-1 -1 $-1 $377 -24 $348 1.9721522630525295e-031 $434 $499 forward @7 unknown #
coedge $-1 -1 $-1 $500 $346 $484 $441 forward $413 $-1 #
coedge $-1 -1 $-1 $346 $500 $486 $354 reversed $413 $-1 #
face $-1 -1 $-1 $459 $347 $25 $-1 $414 reversed single #
edge $-1 -1 $-1 $348 1.9721522630525295e-031 $501 24 $484 $499 forward @7 unknown #
point $-1 -1 $-1 -24 10 -1.9721522630525295e-031 #
coedge $-1 -1 $-1 $350 $367 $436 $498 forward $244 $-1 #
vertex $-1 -1 $-1 $498 $502 #
straight-curve $-1 -1 $-1 0 -10 24 1 0 0 I I #
straight-curve $-1 -1 $-1 -24 -10 0 0 0 -1 I I #
face $-1 -1 $-1 $494 $360 $25 $-1 $448 reversed single #
plane-surface $-1 -1 $-1 0 -10 0 0 1 0 0 0 1 forward_v I I I I #
vertex $-1 -1 $-1 $503 $504 #
vertex $-1 -1 $-1 $456 $505 #
coedge $-1 -1 $-1 $363 $371 $358 $452 forward $372 $-1 #
edge $-1 -1 $-1 $450 -24 $262 1.9721522630525295e-031 $451 $455 forward @7 unknown #
coedge $-1 -1 $-1 $362 $361 $506 $461 reversed $330 $-1 #
vertex $-1 -1 $-1 $364 $507 #
straight-curve $-1 -1 $-1 24 -10 0 0 0 -1 I I #
edge $-1 -1 $-1 $450 -10 $369 10 $371 $508 forward @7 unknown #
face $-1 -1 $-1 $440 $423 $25 $-1 $509 reversed single #
point $-1 -1 $-1 24 10 24 #
face $-1 -1 $-1 $-1 $372 $25 $-1 $331 reversed single #
face $-1 -1 $-1 $510 $485 $25 $-1 $375 reversed single #
edge $-1 -1 $-1 $376 -10 $454 10 $453 $511 forward @7 unknown #
point $-1 -1 $-1 24 10 -24 #
point $-1 -1 $-1 -24 10 24 #
point $-1 -1 $-1 -20 8 0 #
point $-1 -1 $-1 -24 -8 0 #
model_id-kcp-attrib $-1 -1 $-1 $-1 $390 1 1021575261 1021575261 -1524170751 10 #
face $512 -1 $-1 $513 $514 $9 $-1 $515 reversed single #
loop $-1 -1 $-1 $-1 $516 $390 #
cone-surface $-1 -1 $-1 0 21 0 0 -1 0 -20 0 0 1 I I 0 1 20 forward I I I I #
coedge $-1 -1 $-1 $517 $518 $394 $472 forward $391 $-1 #
coedge $-1 -1 $-1 $394 $394 $519 $520 forward $297 $-1 #
edge $521 -1 $-1 $522 0 $523 3.1415926535897931 $394 $524 forward @7 unknown #
coedge $-1 -1 $-1 $397 $397 $399 $478 forward $393 $-1 #
attrib_edge_convexity-kcp-attrib $-1 -1 $525 $-1 $398 1 #
vertex $-1 -1 $-1 $401 $526 #
vertex $-1 -1 $-1 $400 $527 #
ellipse-curve $-1 -1 $-1 8.8817841970012523e-016 18 0 0 -1 0 24 0 0 1 I I #
edge $528 -1 $-1 $475 -1.2246063538223773e-016 $476 3.1415926535897931 $473 $529 forward @7 unknown #
straight-curve $-1 -1 $-1 -24 2 -5.8781104983474108e-015 0 1 0 I I #
straight-curve $-1 -1 $-1 24 2 2.9390552491737054e-015 0 1 0 I I #
convexity-sys-attrib $-1 -1 $-1 $402 $303 #
loop $-1 -1 $-1 $-1 $418 $412 #
coedge $-1 -1 $-1 $484 $416 $421 $489 reversed $485 $-1 #
coedge $-1 -1 $-1 $416 $483 $438 $441 reversed $485 $-1 #
loop $-1 -1 $-1 $-1 $416 $460 #
coedge $-1 -1 $-1 $487 $418 $439 $354 forward $482 $-1 #
coedge $-1 -1 $-1 $418 $486 $420 $432 reversed $482 $-1 #
coedge $-1 -1 $-1 $421 $420 $500 $503 forward $423 $-1 #
edge $-1 -1 $-1 $501 -24 $339 1.3319662899943351e-047 $483 $496 forward @7 unknown #
coedge $-1 -1 $-1 $506 $422 $428 $430 forward $492 $-1 #
coedge $-1 -1 $-1 $422 $506 $424 $493 forward $492 $-1 #
loop $-1 -1 $-1 $-1 $422 $510 #
edge $-1 -1 $-1 $454 -24 $340 -1.3319662899943351e-047 $424 $497 forward @7 unknown #
face $-1 -1 $-1 $495 $426 $25 $-1 $448 reversed single #
face $-1 -1 $-1 $272 $429 $25 $-1 $375 reversed single #
straight-curve $-1 -1 $-1 0 10 -24 1 0 0 I I #
straight-curve $-1 -1 $-1 0 -10 -24 -1 0 0 I I #
edge $-1 -1 $-1 $377 -10 $444 10 $436 $530 forward @7 unknown #
straight-curve $-1 -1 $-1 -24 10 0 0 0 -1 I I #
coedge $-1 -1 $-1 $439 $438 $488 $503 reversed $413 $-1 #
vertex $-1 -1 $-1 $489 $531 #
point $-1 -1 $-1 -24 -10 24 #
edge $-1 -1 $-1 $449 -10 $501 10 $500 $532 forward @7 unknown #
point $-1 -1 $-1 -24 -10 -24 #
point $-1 -1 $-1 24 -10 24 #
coedge $-1 -1 $-1 $491 $490 $453 $461 forward $492 $-1 #
point $-1 -1 $-1 24 -10 -24 #
straight-curve $-1 -1 $-1 24 0 24 0 1 0 I I #
plane-surface $-1 -1 $-1 0 0 -24 0 0 1 1 0 0 forward_v I I I I #
face $-1 -1 $-1 $368 $492 $25 $-1 $509 reversed single #
straight-curve $-1 -1 $-1 24 0 -24 0 -1 0 I I #
model_id-kcp-attrib $-1 -1 $-1 $-1 $467 1 1021575261 1021575261 -1524170751 11 #
face $533 -1 $-1 $534 $535 $9 $-1 $536 reversed single #
loop $-1 -1 $-1 $537 $538 $467 #
plane-surface $-1 -1 $-1 0 20 0 0 -1 0 -1 0 0 forward_v I I I I #
coedge $-1 -1 $-1 $539 $540 $541 $542 forward $468 $-1 #
coedge $-1 -1 $-1 $543 $470 $539 $544 forward $391 $-1 #
coedge $-1 -1 $-1 $470 $543 $540 $545 reversed $391 $-1 #
coedge $-1 -1 $-1 $540 $539 $471 $520 reversed $468 $-1 #
edge $546 -1 $-1 $522 0 $523 3.1415926535897931 $471 $547 forward @7 unknown #
attrib_edge_convexity-kcp-attrib $-1 -1 $548 $-1 $472 2 #
vertex $-1 -1 $-1 $520 $549 #
vertex $-1 -1 $-1 $520 $550 #
ellipse-curve $-1 -1 $-1 0 18 -1.7763568394002505e-015 0 1 0 20 0 4.225569547045005e-015 1 I I #
convexity-sys-attrib $-1 -1 $-1 $474 $398 #
point $-1 -1 $-1 24 18 2.9390552491737054e-015 #
point $-1 -1 $-1 -24 18 0 #
attrib_edge_convexity-kcp-attrib $-1 -1 $551 $-1 $478 1 #
ellipse-curve $-1 -1 $-1 8.8817841970012523e-016 18 0 0 1 0 24 0 0 1 I I #
straight-curve $-1 -1 $-1 -24 0 24 0 -1 0 I I #
point $-1 -1 $-1 -24 10 -24 #
straight-curve $-1 -1 $-1 -24 0 -24 0 1 0 I I #
model_id-kcp-attrib $-1 -1 $-1 $-1 $513 1 1021575261 1021575261 -1524170751 12 #
face $552 -1 $-1 $-1 $553 $9 $-1 $554 reversed single #
loop $-1 -1 $-1 $-1 $555 $513 #
cone-surface $-1 -1 $-1 0 17.429285785728577 0 0 -1 0 -0.98019605881960759 0 0 1 I I -0.70000000000000029 0.71414284285428475 0.98019605881960759 forward I I I I #
loop $-1 -1 $-1 $-1 $541 $467 #
coedge $-1 -1 $-1 $556 $556 $555 $557 reversed $514 $-1 #
coedge $-1 -1 $-1 $519 $516 $517 $544 reversed $468 $-1 #
coedge $-1 -1 $-1 $516 $519 $518 $545 forward $468 $-1 #
coedge $-1 -1 $-1 $558 $558 $516 $542 reversed $537 $-1 #
edge $-1 -1 $-1 $559 1.2246063538223773e-016 $560 3.1415926535897931 $516 $561 forward @7 unknown #
coedge $-1 -1 $-1 $518 $517 $558 $562 reversed $391 $-1 #
edge $-1 -1 $-1 $523 0 $560 2 $539 $563 forward @7 unknown #
edge $-1 -1 $-1 $522 0 $559 2 $540 $564 forward @7 unknown #
attrib_edge_convexity-kcp-attrib $-1 -1 $565 $-1 $520 2 #
ellipse-curve $-1 -1 $-1 8.8817841970012523e-016 18 -8.8817841970012523e-016 0 -1 0 20 0 3.3373911273448797e-015 1 I I #
convexity-sys-attrib $-1 -1 $-1 $521 $472 #
point $-1 -1 $-1 20 18 2.4492127076447545e-015 #
point $-1 -1 $-1 -20 18 0 #
convexity-sys-attrib $-1 -1 $-1 $528 $478 #
model_id-kcp-attrib $-1 -1 $-1 $-1 $534 1 1021575261 1021575261 -1524170751 13 #
loop $-1 -1 $-1 $-1 $566 $534 #
cone-surface $-1 -1 $-1 0 17.429285785728577 0 0 -1 0 -0.98019605881960759 0 0 1 I I -0.70000000000000029 0.71414284285428475 0.98019605881960759 forward I I I I #
coedge $-1 -1 $-1 $567 $568 $538 $557 forward $535 $-1 #
coedge $-1 -1 $-1 $538 $538 $569 $570 forward $514 $-1 #
edge $-1 -1 $-1 $571 0 $572 3.1415926535897931 $538 $573 forward @7 unknown #
coedge $-1 -1 $-1 $541 $541 $543 $562 forward $537 $-1 #
vertex $-1 -1 $-1 $545 $574 #
vertex $-1 -1 $-1 $544 $575 #
ellipse-curve $-1 -1 $-1 -8.8817841970012523e-016 20 8.8817841970012523e-016 0 -1 0 20 0 -8.8817841970012523e-016 1 I I #
edge $-1 -1 $-1 $559 -1.2246063538223773e-016 $560 3.1415926535897931 $558 $576 forward @7 unknown #
straight-curve $-1 -1 $-1 -20 18 -4.898425415289509e-015 0 1 0 I I #
straight-curve $-1 -1 $-1 20 18 2.4492127076447545e-015 0 1 0 I I #
convexity-sys-attrib $-1 -1 $-1 $546 $520 #
coedge $-1 -1 $-1 $569 $577 $567 $578 reversed $553 $-1 #
coedge $-1 -1 $-1 $568 $555 $566 $578 forward $535 $-1 #
coedge $-1 -1 $-1 $555 $567 $577 $579 reversed $535 $-1 #
coedge $-1 -1 $-1 $577 $566 $556 $570 reversed $553 $-1 #
edge $-1 -1 $-1 $571 0 $572 3.1415926535897931 $556 $580 forward @7 unknown #
vertex $-1 -1 $-1 $570 $581 #
vertex $-1 -1 $-1 $570 $582 #
ellipse-curve $-1 -1 $-1 0 20 -3.3306690738754696e-016 0 1 0 3.5000000000000004 0 7.61679131225379e-016 1 I I #
point $-1 -1 $-1 20 20 2.4492127076447545e-015 #
point $-1 -1 $-1 -20 20 0 #
ellipse-curve $-1 -1 $-1 -8.8817841970012523e-016 20 -8.8817841970012523e-016 0 1 0 20 0 8.8817841970012523e-016 1 I I #
coedge $-1 -1 $-1 $566 $569 $568 $579 forward $553 $-1 #
edge $-1 -1 $-1 $572 1.4696675073856953e-031 $583 4.9999999999999982 $566 $584 forward @7 unknown #
edge $-1 -1 $-1 $571 0 $583 4.9999999999999982 $577 $585 forward @7 unknown #
ellipse-curve $-1 -1 $-1 0 20 -3.3306690738754696e-016 0 -1 0 3.5000000000000004 0 7.61679131225379e-016 1 I I #
point $-1 -1 $-1 3.5000000000000004 20 4.2861222383783204e-016 #
point $-1 -1 $-1 -3.5000000000000004 20 0 #
vertex $-1 -1 $-1 $579 $586 #
straight-curve $-1 -1 $-1 -3.5000000000000004 20 -8.5722444767566408e-016 0.70000000000000029 -0.71414284285428475 1.7144488953513289e-016 I I #
straight-curve $-1 -1 $-1 3.5000000000000004 20 4.2861222383783204e-016 -0.70000000000000029 -0.71414284285428475 -8.5722444767566443e-017 I I #
point $-1 -1 $-1 0 16.429285785728577 0 #
End-of-ACIS-data 