700 0 2 0           
24 FBMach with ACIS - 7.0.3 13 ACIS 7.0.3 NT 24 Thu May 16 11:14:34 2002 
1 9.9999999999999995e-007 1e-010 
body $2 -1 $-1 $3 $-1 $4 #
bdycol-kcp $-1 -1 1 4 $5 $6 $7 $8 #
model_id-kcp-attrib $-1 -1 $-1 $-1 $0 1 1021562073 1021562074 -659685375 1 #
lump $-1 -1 $-1 $-1 $9 $0 #
transform $-1 -1 1 0 0 0 1 0 0 0 1 0 0 0 1 rotate no_reflect no_shear #
body $10 -1 $-1 $11 $-1 $12 #
body $13 -1 $-1 $14 $-1 $15 #
body $16 -1 $-1 $17 $-1 $18 #
body $19 -1 $-1 $20 $-1 $21 #
shell $-1 -1 $-1 $-1 $-1 $22 $-1 $3 #
rgb_color-st-attrib $-1 -1 $23 $-1 $5 0.5 1 1 #
lump $-1 -1 $-1 $-1 $24 $5 #
transform $-1 -1 1 0 0 0 1 0 0 0 1 0 10 0 1 no_rotate no_reflect no_shear #
rgb_color-st-attrib $-1 -1 $25 $-1 $6 1 0.5 1 #
lump $-1 -1 $-1 $-1 $26 $6 #
transform $-1 -1 1 0 0 0 1 0 0 0 1 0 10 0 1 no_rotate no_reflect no_shear #
model_id-kcp-attrib $-1 -1 $-1 $-1 $7 1 1021562073 1021562074 -659685374 1 #
lump $-1 -1 $-1 $-1 $27 $7 #
transform $-1 -1 1 0 0 0 1 0 0 0 1 0 10 0 1 no_rotate no_reflect no_shear #
rgb_color-st-attrib $-1 -1 $28 $-1 $8 1 0.5 1 #
lump $-1 -1 $-1 $-1 $29 $8 #
transform $-1 -1 1 0 0 0 1 0 0 0 1 0 10 0 1 no_rotate no_reflect no_shear #
face $30 -1 $-1 $31 $32 $9 $-1 $33 forward single #
model_id-kcp-attrib $-1 -1 $-1 $10 $5 1 1021562073 1021562074 -669908989 1 #
shell $-1 -1 $-1 $-1 $-1 $34 $-1 $11 #
model_id-kcp-attrib $-1 -1 $-1 $13 $6 1 1021562073 1021562074 -664993787 1 #
shell $-1 -1 $-1 $-1 $-1 $35 $-1 $14 #
shell $-1 -1 $-1 $-1 $-1 $36 $-1 $17 #
model_id-kcp-attrib $-1 -1 $-1 $19 $8 1 1021562073 1021562074 -656146428 1 #
shell $-1 -1 $-1 $-1 $-1 $37 $-1 $20 #
model_id-kcp-attrib $-1 -1 $-1 $-1 $22 1 1021562073 1021562074 -659685375 2 #
face $38 -1 $-1 $39 $40 $9 $-1 $41 forward single #
loop $-1 -1 $-1 $-1 $42 $22 #
plane-surface $-1 -1 $-1 0 0 0 0 -1 0 -1 0 0 forward_v I I I I #
face $-1 -1 $-1 $43 $44 $24 $-1 $45 reversed single #
face $-1 -1 $-1 $46 $47 $26 $-1 $48 forward single #
face $-1 -1 $-1 $49 $50 $27 $-1 $51 forward single #
face $-1 -1 $-1 $52 $53 $29 $-1 $54 forward single #
model_id-kcp-attrib $-1 -1 $-1 $-1 $31 1 1021562073 1021562074 -659685375 3 #
face $55 -1 $-1 $56 $57 $9 $-1 $58 forward single #
loop $-1 -1 $-1 $-1 $59 $31 #
cone-surface $-1 -1 $-1 0 21 0 0 -1 0 -20 0 0 1 I I 0 1 20 forward I I I I #
coedge $-1 -1 $-1 $60 $60 $59 $61 reversed $32 $-1 #
face $-1 -1 $-1 $62 $63 $24 $-1 $45 reversed single #
loop $-1 -1 $-1 $-1 $64 $34 #
cone-surface $-1 -1 $-1 1.3319662899943351e-047 -10 -1.9721522630525295e-031 0 -1 0 24 0 2.9390552491737054e-015 1 I I 0 1 24 forward I I I I #
face $-1 -1 $-1 $65 $66 $26 $-1 $67 forward single #
loop $-1 -1 $-1 $68 $69 $35 #
cone-surface $-1 -1 $-1 0 -8 0 0 -1 0 -20 0 0 1 I I 0 -1 20 forward I I I I #
face $-1 -1 $-1 $70 $71 $27 $-1 $72 reversed single #
loop $-1 -1 $-1 $-1 $73 $36 #
plane-surface $-1 -1 $-1 0 0 24 0 0 1 1 0 0 forward_v I I I I #
face $-1 -1 $-1 $74 $75 $29 $-1 $76 forward single #
loop $-1 -1 $-1 $77 $78 $37 #
cone-surface $-1 -1 $-1 1.3319662899943351e-047 8 -1.9721522630525295e-031 0 1 0 24 0 2.9390552491737054e-015 1 I I 0 1 24 forward I I I I #
model_id-kcp-attrib $-1 -1 $-1 $-1 $39 1 1021562073 1021562074 -659685375 4 #
face $79 -1 $-1 $80 $81 $9 $-1 $82 forward single #
loop $-1 -1 $-1 $-1 $83 $39 #
cone-surface $-1 -1 $-1 0 21 0 0 -1 0 -20 0 0 1 I I 0 1 20 forward I I I I #
coedge $-1 -1 $-1 $84 $85 $42 $61 forward $40 $-1 #
coedge $-1 -1 $-1 $42 $42 $86 $87 forward $32 $-1 #
edge $88 -1 $-1 $89 0 $90 3.1415926535897931 $42 $91 forward @7 unknown #
face $-1 -1 $-1 $92 $93 $24 $-1 $45 reversed single #
loop $-1 -1 $-1 $-1 $94 $43 #
coedge $-1 -1 $-1 $95 $96 $97 $98 reversed $44 $-1 #
face $-1 -1 $-1 $99 $100 $26 $-1 $101 reversed single #
loop $-1 -1 $-1 $102 $103 $46 #
cone-surface $-1 -1 $-1 1.3319662899943351e-047 -8 -1.9721522630525295e-031 0 -1 0 24 0 2.9390552491737054e-015 1 I I 0 1 24 forward I I I I #
loop $-1 -1 $-1 $-1 $104 $35 #
coedge $-1 -1 $-1 $69 $69 $105 $106 forward $47 $-1 #
face $107 -1 $-1 $108 $109 $27 $-1 $110 reversed single #
loop $-1 -1 $-1 $-1 $111 $49 #
plane-surface $-1 -1 $-1 0 0 -24 0 0 1 1 0 0 forward_v I I I I #
coedge $-1 -1 $-1 $112 $113 $114 $115 forward $50 $-1 #
face $-1 -1 $-1 $116 $117 $29 $-1 $118 forward single #
loop $-1 -1 $-1 $119 $120 $52 #
cone-surface $-1 -1 $-1 0 8 0 0 1 0 -20 0 0 1 I I 0 -1 20 forward I I I I #
loop $-1 -1 $-1 $-1 $121 $37 #
coedge $-1 -1 $-1 $78 $78 $122 $123 forward $53 $-1 #
model_id-kcp-attrib $-1 -1 $-1 $-1 $56 1 1021562073 1021562074 -659685375 5 #
face $124 -1 $-1 $125 $126 $9 $-1 $127 forward single #
loop $-1 -1 $-1 $128 $129 $56 #
plane-surface $-1 -1 $-1 0 2 0 0 -1 0 -1 0 0 forward_v I I I I #
coedge $-1 -1 $-1 $130 $131 $132 $133 forward $57 $-1 #
coedge $-1 -1 $-1 $134 $59 $130 $135 forward $40 $-1 #
coedge $-1 -1 $-1 $59 $134 $131 $136 reversed $40 $-1 #
coedge $-1 -1 $-1 $131 $130 $60 $87 reversed $57 $-1 #
edge $137 -1 $-1 $89 0 $90 3.1415926535897931 $60 $138 forward @7 unknown #
attrib_edge_convexity-kcp-attrib $-1 -1 $139 $-1 $61 1 #
vertex $-1 -1 $-1 $87 $140 #
vertex $-1 -1 $-1 $87 $141 #
ellipse-curve $-1 -1 $-1 0 0 -1.7763568394002505e-015 0 1 0 20 0 4.225569547045005e-015 1 I I #
face $-1 -1 $-1 $142 $143 $24 $-1 $45 reversed single #
loop $-1 -1 $-1 $-1 $144 $62 #
coedge $-1 -1 $-1 $145 $146 $147 $148 reversed $63 $-1 #
coedge $-1 -1 $-1 $149 $64 $150 $151 forward $44 $-1 #
coedge $-1 -1 $-1 $64 $149 $152 $153 reversed $44 $-1 #
coedge $-1 -1 $-1 $154 $155 $64 $98 forward $156 $-1 #
edge $-1 -1 $-1 $157 -1.2246063538223773e-016 $158 1.5707963267948966 $97 $159 forward @7 unknown #
face $-1 -1 $-1 $-1 $160 $26 $-1 $161 forward single #
loop $-1 -1 $-1 $162 $163 $65 #
plane-surface $-1 -1 $-1 -1.1900826446280988 -10 0 0 1 0 0 0 1 forward_v I I I I #
loop $-1 -1 $-1 $-1 $164 $46 #
coedge $-1 -1 $-1 $103 $103 $163 $165 forward $66 $-1 #
coedge $-1 -1 $-1 $104 $104 $166 $167 reversed $68 $-1 #
coedge $-1 -1 $-1 $105 $105 $69 $106 reversed $162 $-1 #
edge $-1 -1 $-1 $168 0 $168 6.2831853071795862 $69 $169 forward @7 unknown #
model_id-kcp-attrib $-1 -1 $-1 $-1 $70 1 1021562073 1021562074 -659685374 2 #
face $-1 -1 $-1 $170 $171 $27 $-1 $172 reversed single #
loop $-1 -1 $-1 $-1 $173 $70 #
plane-surface $-1 -1 $-1 0 -10 0 0 1 0 0 0 1 forward_v I I I I #
coedge $-1 -1 $-1 $174 $175 $176 $177 forward $71 $-1 #
coedge $-1 -1 $-1 $178 $73 $179 $180 forward $50 $-1 #
coedge $-1 -1 $-1 $73 $178 $181 $182 forward $50 $-1 #
coedge $-1 -1 $-1 $183 $184 $73 $115 reversed $185 $-1 #
edge $-1 -1 $-1 $186 -10 $187 10 $114 $188 forward @7 unknown #
face $-1 -1 $-1 $-1 $189 $29 $-1 $190 reversed single #
loop $-1 -1 $-1 $191 $192 $74 #
plane-surface $-1 -1 $-1 -1.190082644628099 10 -2.6425143065458272e-016 0 1 0 0 0 1 forward_v I I I I #
loop $-1 -1 $-1 $-1 $193 $52 #
coedge $-1 -1 $-1 $120 $120 $192 $194 forward $75 $-1 #
coedge $-1 -1 $-1 $121 $121 $195 $196 reversed $77 $-1 #
coedge $-1 -1 $-1 $122 $122 $78 $123 reversed $191 $-1 #
edge $-1 -1 $-1 $197 -3.1415926535897931 $197 3.1415926535897931 $78 $198 forward @7 unknown #
model_id-kcp-attrib $-1 -1 $-1 $-1 $80 1 1021562073 1021562074 -659685375 6 #
face $199 -1 $-1 $200 $201 $9 $-1 $202 forward single #
loop $-1 -1 $-1 $-1 $203 $80 #
cone-surface $-1 -1 $-1 0 21 0 0 -1 0 -24 0 0 1 I I 0 1 24 forward I I I I #
loop $-1 -1 $-1 $-1 $132 $56 #
coedge $-1 -1 $-1 $204 $204 $203 $205 reversed $81 $-1 #
coedge $-1 -1 $-1 $86 $83 $84 $135 reversed $57 $-1 #
coedge $-1 -1 $-1 $83 $86 $85 $136 forward $57 $-1 #
coedge $-1 -1 $-1 $206 $206 $83 $133 reversed $128 $-1 #
edge $207 -1 $-1 $208 1.2246063538223773e-016 $209 3.1415926535897931 $83 $210 forward @7 unknown #
coedge $-1 -1 $-1 $85 $84 $206 $211 reversed $40 $-1 #
edge $-1 -1 $-1 $90 0 $209 2 $130 $212 forward @7 unknown #
edge $-1 -1 $-1 $89 0 $208 2 $131 $213 forward @7 unknown #
attrib_edge_convexity-kcp-attrib $-1 -1 $214 $-1 $87 1 #
ellipse-curve $-1 -1 $-1 8.8817841970012523e-016 0 -8.8817841970012523e-016 0 -1 0 20 0 3.3373911273448797e-015 1 I I #
convexity-sys-attrib $-1 -1 $-1 $88 $61 #
point $-1 -1 $-1 20 0 2.4492127076447545e-015 #
point $-1 -1 $-1 -20 0 0 #
face $-1 -1 $-1 $215 $216 $24 $-1 $217 forward single #
loop $-1 -1 $-1 $-1 $218 $92 #
coedge $-1 -1 $-1 $219 $220 $218 $221 forward $93 $-1 #
coedge $-1 -1 $-1 $222 $94 $223 $224 reversed $63 $-1 #
coedge $-1 -1 $-1 $94 $222 $96 $153 forward $63 $-1 #
coedge $-1 -1 $-1 $225 $226 $94 $148 forward $227 $-1 #
edge $-1 -1 $-1 $228 -3.1415926535897931 $229 -1.5707963267948966 $147 $230 forward @7 unknown #
coedge $-1 -1 $-1 $96 $95 $231 $232 reversed $44 $-1 #
coedge $-1 -1 $-1 $220 $219 $233 $151 reversed $93 $-1 #
edge $-1 -1 $-1 $157 -20 $234 0 $233 $235 forward @7 unknown #
coedge $-1 -1 $-1 $236 $237 $238 $153 forward $239 $-1 #
edge $-1 -1 $-1 $158 -20 $229 0 $152 $240 forward @7 unknown #
coedge $-1 -1 $-1 $155 $97 $237 $241 reversed $156 $-1 #
coedge $-1 -1 $-1 $97 $154 $242 $243 forward $156 $-1 #
loop $-1 -1 $-1 $-1 $97 $244 #
vertex $-1 -1 $-1 $245 $246 #
vertex $-1 -1 $-1 $247 $248 #
ellipse-curve $-1 -1 $-1 1.3319662899943351e-047 10 -1.9721522630525295e-031 0 -1 0 24 0 2.9390552491737054e-015 1 I I #
loop $-1 -1 $-1 $249 $250 $99 #
plane-surface $-1 -1 $-1 -1.1900826446280988 -8 0 0 1 0 0 0 1 forward_v I I I I #
loop $-1 -1 $-1 $-1 $105 $65 #
coedge $-1 -1 $-1 $163 $163 $103 $165 reversed $100 $-1 #
coedge $-1 -1 $-1 $164 $164 $250 $251 reversed $102 $-1 #
edge $-1 -1 $-1 $252 -3.1415926535897931 $252 3.1415926535897931 $103 $253 forward @7 unknown #
coedge $-1 -1 $-1 $166 $166 $104 $167 forward $249 $-1 #
edge $254 -1 $-1 $255 -3.1415926535897931 $255 3.1415926535897931 $104 $256 forward @7 unknown #
vertex $-1 -1 $-1 $106 $257 #
ellipse-curve $-1 -1 $-1 0 -10 0 0 -1 0 -20 0 0 1 I I #
face $258 -1 $-1 $259 $260 $27 $-1 $261 reversed single #
loop $-1 -1 $-1 $-1 $262 $108 #
plane-surface $-1 -1 $-1 -24 0 0 1 0 0 0 0 -1 forward_v I I I I #
coedge $-1 -1 $-1 $263 $181 $264 $265 forward $109 $-1 #
coedge $-1 -1 $-1 $266 $111 $263 $267 forward $71 $-1 #
coedge $-1 -1 $-1 $111 $266 $268 $269 forward $71 $-1 #
coedge $-1 -1 $-1 $184 $183 $111 $177 reversed $185 $-1 #
edge $-1 -1 $-1 $270 -10 $271 10 $176 $272 forward @7 unknown #
coedge $-1 -1 $-1 $113 $112 $273 $274 forward $50 $-1 #
coedge $-1 -1 $-1 $275 $276 $112 $180 reversed $260 $-1 #
edge $-1 -1 $-1 $187 -24 $277 24 $179 $278 forward @7 unknown #
coedge $-1 -1 $-1 $173 $279 $113 $182 reversed $109 $-1 #
edge $-1 -1 $-1 $280 -24 $186 24 $181 $281 forward @7 unknown #
coedge $-1 -1 $-1 $176 $114 $279 $282 forward $185 $-1 #
coedge $-1 -1 $-1 $114 $176 $275 $283 reversed $185 $-1 #
loop $-1 -1 $-1 $-1 $183 $259 #
vertex $-1 -1 $-1 $115 $284 #
vertex $-1 -1 $-1 $115 $285 #
straight-curve $-1 -1 $-1 24 0 24 0 1 0 I I #
loop $-1 -1 $-1 $286 $287 $116 #
plane-surface $-1 -1 $-1 -1.190082644628099 8 -2.6425143065458272e-016 0 1 0 0 0 1 forward_v I I I I #
loop $-1 -1 $-1 $-1 $122 $74 #
coedge $-1 -1 $-1 $192 $192 $120 $194 reversed $117 $-1 #
coedge $-1 -1 $-1 $193 $193 $287 $288 reversed $119 $-1 #
edge $-1 -1 $-1 $289 -3.1415926535897931 $289 3.1415926535897931 $120 $290 forward @7 unknown #
coedge $-1 -1 $-1 $195 $195 $121 $196 forward $286 $-1 #
edge $291 -1 $-1 $292 -3.1415926535897931 $292 3.1415926535897931 $121 $293 forward @7 unknown #
vertex $-1 -1 $-1 $123 $294 #
ellipse-curve $-1 -1 $-1 1.3319662899943351e-047 10 -1.9721522630525295e-031 0 -1 0 24 0 2.9390552491737054e-015 1 I I #
model_id-kcp-attrib $-1 -1 $-1 $-1 $125 1 1021562073 1021562074 -659685375 7 #
face $295 -1 $-1 $296 $297 $9 $-1 $298 reversed single #
loop $-1 -1 $-1 $-1 $299 $125 #
cone-surface $-1 -1 $-1 0 21 0 0 -1 0 -24 0 0 1 I I 0 1 24 forward I I I I #
coedge $-1 -1 $-1 $300 $301 $129 $205 forward $126 $-1 #
coedge $-1 -1 $-1 $129 $129 $302 $303 forward $81 $-1 #
edge $304 -1 $-1 $305 0 $306 3.1415926535897931 $129 $307 forward @7 unknown #
coedge $-1 -1 $-1 $132 $132 $134 $211 forward $128 $-1 #
attrib_edge_convexity-kcp-attrib $-1 -1 $308 $-1 $133 2 #
vertex $-1 -1 $-1 $136 $309 #
vertex $-1 -1 $-1 $135 $310 #
ellipse-curve $-1 -1 $-1 -8.8817841970012523e-016 2 8.8817841970012523e-016 0 -1 0 20 0 -8.8817841970012523e-016 1 I I #
edge $311 -1 $-1 $208 -1.2246063538223773e-016 $209 3.1415926535897931 $206 $312 forward @7 unknown #
straight-curve $-1 -1 $-1 -20 0 -4.898425415289509e-015 0 1 0 I I #
straight-curve $-1 -1 $-1 20 0 2.4492127076447545e-015 0 1 0 I I #
convexity-sys-attrib $-1 -1 $-1 $137 $87 #
face $-1 -1 $-1 $313 $314 $24 $-1 $315 reversed single #
loop $-1 -1 $-1 $-1 $238 $142 #
plane-surface $-1 -1 $-1 0 0 24 0 0 1 1 0 0 forward_v I I I I #
coedge $-1 -1 $-1 $316 $317 $318 $221 reversed $143 $-1 #
coedge $-1 -1 $-1 $150 $144 $319 $320 reversed $93 $-1 #
coedge $-1 -1 $-1 $144 $150 $321 $322 reversed $93 $-1 #
edge $-1 -1 $-1 $323 -20 $324 0 $318 $325 forward @7 unknown #
coedge $-1 -1 $-1 $146 $145 $326 $327 reversed $63 $-1 #
coedge $-1 -1 $-1 $328 $329 $330 $224 forward $331 $-1 #
edge $-1 -1 $-1 $332 -20 $228 0 $223 $333 forward @7 unknown #
coedge $-1 -1 $-1 $226 $147 $334 $335 reversed $227 $-1 #
coedge $-1 -1 $-1 $147 $225 $328 $336 forward $227 $-1 #
loop $-1 -1 $-1 $-1 $147 $337 #
vertex $-1 -1 $-1 $338 $339 #
vertex $-1 -1 $-1 $340 $341 #
ellipse-curve $-1 -1 $-1 1.3319662899943351e-047 -10 -1.9721522630525295e-031 0 1 0 24 0 2.9390552491737054e-015 1 I I #
coedge $-1 -1 $-1 $342 $343 $149 $232 forward $344 $-1 #
edge $-1 -1 $-1 $229 -1.5707963267948966 $234 1.2246063538223773e-016 $231 $230 forward @7 unknown #
coedge $-1 -1 $-1 $345 $346 $347 $151 forward $314 $-1 #
vertex $-1 -1 $-1 $348 $349 #
straight-curve $-1 -1 $-1 24 -10 -1.9721522630525295e-031 0 -1 0 I I #
coedge $-1 -1 $-1 $350 $152 $343 $340 forward $239 $-1 #
coedge $-1 -1 $-1 $152 $350 $154 $241 forward $239 $-1 #
coedge $-1 -1 $-1 $351 $334 $146 $153 reversed $216 $-1 #
loop $-1 -1 $-1 $-1 $152 $352 #
straight-curve $-1 -1 $-1 1.3319662899943351e-047 -10 24 0 -1 0 I I #
edge $-1 -1 $-1 $353 -24 $158 -1.3319662899943351e-047 $154 $354 forward @7 unknown #
coedge $-1 -1 $-1 $355 $347 $155 $243 reversed $356 $-1 #
edge $-1 -1 $-1 $353 -24 $157 1.9721522630525295e-031 $242 $357 forward @7 unknown #
face $-1 -1 $-1 $358 $156 $24 $-1 $359 reversed single #
edge $-1 -1 $-1 $157 1.9721522630525295e-031 $360 24 $346 $357 forward @7 unknown #
point $-1 -1 $-1 24 10 -1.9721522630525295e-031 #
edge $-1 -1 $-1 $158 -1.3319662899943351e-047 $361 24 $362 $354 forward @7 unknown #
point $-1 -1 $-1 1.3319662899943351e-047 10 24 #
loop $-1 -1 $-1 $-1 $166 $99 #
coedge $-1 -1 $-1 $250 $250 $164 $251 forward $160 $-1 #
edge $363 -1 $-1 $364 -3.1415926535897931 $364 3.1415926535897931 $164 $365 forward @7 unknown #
vertex $-1 -1 $-1 $165 $366 #
ellipse-curve $-1 -1 $-1 1.3319662899943351e-047 -10 -1.9721522630525295e-031 0 1 0 24 0 2.9390552491737054e-015 1 I I #
convexity-sys-attrib $-1 -1 $-1 $-1 $167 #
vertex $-1 -1 $-1 $167 $367 #
ellipse-curve $-1 -1 $-1 0 -8 0 0 -1 0 -20 0 0 1 I I #
point $-1 -1 $-1 -20 -10 0 #
model_id-kcp-attrib $-1 -1 $-1 $-1 $170 1 1021562073 1021562074 -659685374 3 #
face $-1 -1 $-1 $-1 $185 $27 $-1 $368 reversed single #
loop $-1 -1 $-1 $-1 $275 $170 #
plane-surface $-1 -1 $-1 0 10 0 0 -1 0 0 0 -1 forward_v I I I I #
coedge $-1 -1 $-1 $369 $273 $276 $370 forward $171 $-1 #
coedge $-1 -1 $-1 $279 $173 $174 $267 reversed $109 $-1 #
coedge $-1 -1 $-1 $273 $369 $173 $265 reversed $171 $-1 #
edge $-1 -1 $-1 $280 -24 $371 24 $264 $372 forward @7 unknown #
coedge $-1 -1 $-1 $175 $174 $369 $373 forward $71 $-1 #
edge $-1 -1 $-1 $271 -24 $371 24 $263 $374 forward @7 unknown #
coedge $-1 -1 $-1 $276 $275 $175 $269 reversed $260 $-1 #
edge $-1 -1 $-1 $375 -24 $270 24 $268 $376 forward @7 unknown #
vertex $-1 -1 $-1 $177 $377 #
vertex $-1 -1 $-1 $282 $378 #
straight-curve $-1 -1 $-1 24 0 -24 0 -1 0 I I #
coedge $-1 -1 $-1 $262 $264 $178 $274 reversed $171 $-1 #
edge $-1 -1 $-1 $277 -10 $280 10 $273 $379 forward @7 unknown #
coedge $-1 -1 $-1 $268 $179 $184 $283 forward $260 $-1 #
coedge $-1 -1 $-1 $179 $268 $262 $370 reversed $260 $-1 #
vertex $-1 -1 $-1 $180 $380 #
straight-curve $-1 -1 $-1 0 10 24 -1 0 0 I I #
coedge $-1 -1 $-1 $181 $263 $183 $282 reversed $109 $-1 #
vertex $-1 -1 $-1 $274 $381 #
straight-curve $-1 -1 $-1 0 -10 24 1 0 0 I I #
edge $-1 -1 $-1 $186 -24 $271 24 $183 $382 forward @7 unknown #
edge $-1 -1 $-1 $187 -24 $270 24 $184 $383 forward @7 unknown #
point $-1 -1 $-1 24 -10 24 #
point $-1 -1 $-1 24 10 24 #
loop $-1 -1 $-1 $-1 $195 $116 #
coedge $-1 -1 $-1 $287 $287 $193 $288 forward $189 $-1 #
edge $384 -1 $-1 $385 0 $385 6.2831853071795862 $193 $386 forward @7 unknown #
vertex $-1 -1 $-1 $194 $387 #
ellipse-curve $-1 -1 $-1 0 10 0 0 1 0 -20 0 0 1 I I #
convexity-sys-attrib $-1 -1 $-1 $-1 $196 #
vertex $-1 -1 $-1 $196 $388 #
ellipse-curve $-1 -1 $-1 1.3319662899943351e-047 8 -1.9721522630525295e-031 0 -1 0 24 0 2.9390552491737054e-015 1 I I #
point $-1 -1 $-1 -24 10 -5.8781104983474108e-015 #
model_id-kcp-attrib $-1 -1 $-1 $-1 $200 1 1021562073 1021562074 -659685375 8 #
face $389 -1 $-1 $390 $391 $9 $-1 $392 forward single #
loop $-1 -1 $-1 $393 $394 $200 #
plane-surface $-1 -1 $-1 0 18 0 0 -1 0 -1 0 0 forward_v I I I I #
coedge $-1 -1 $-1 $395 $396 $397 $398 forward $201 $-1 #
coedge $-1 -1 $-1 $399 $203 $395 $400 forward $126 $-1 #
coedge $-1 -1 $-1 $203 $399 $396 $401 reversed $126 $-1 #
coedge $-1 -1 $-1 $396 $395 $204 $303 reversed $201 $-1 #
edge $402 -1 $-1 $305 0 $306 3.1415926535897931 $204 $403 forward @7 unknown #
attrib_edge_convexity-kcp-attrib $-1 -1 $404 $-1 $205 1 #
vertex $-1 -1 $-1 $303 $405 #
vertex $-1 -1 $-1 $303 $406 #
ellipse-curve $-1 -1 $-1 -8.8817841970012523e-016 2 -8.8817841970012523e-016 0 1 0 24 0 3.8272336688738307e-015 1 I I #
convexity-sys-attrib $-1 -1 $-1 $207 $133 #
point $-1 -1 $-1 20 2 2.4492127076447545e-015 #
point $-1 -1 $-1 -20 2 0 #
attrib_edge_convexity-kcp-attrib $-1 -1 $407 $-1 $211 2 #
ellipse-curve $-1 -1 $-1 -8.8817841970012523e-016 2 -8.8817841970012523e-016 0 1 0 20 0 8.8817841970012523e-016 1 I I #
face $-1 -1 $-1 $408 $409 $24 $-1 $410 reversed single #
loop $-1 -1 $-1 $-1 $233 $215 #
plane-surface $-1 -1 $-1 24 0 0 -1 0 0 0 0 1 forward_v I I I I #
coedge $-1 -1 $-1 $411 $218 $412 $413 reversed $143 $-1 #
coedge $-1 -1 $-1 $218 $411 $414 $415 reversed $143 $-1 #
coedge $-1 -1 $-1 $416 $417 $418 $221 forward $419 $-1 #
coedge $-1 -1 $-1 $420 $421 $219 $320 forward $422 $-1 #
edge $-1 -1 $-1 $234 1.2246063538223773e-016 $324 1.5707963267948968 $319 $230 forward @7 unknown #
coedge $-1 -1 $-1 $423 $424 $220 $322 forward $425 $-1 #
edge $-1 -1 $-1 $323 -1.5707963267948968 $157 -1.2246063538223773e-016 $321 $159 forward @7 unknown #
vertex $-1 -1 $-1 $426 $427 #
vertex $-1 -1 $-1 $428 $429 #
straight-curve $-1 -1 $-1 1.3319662899943351e-047 -10 -24 0 -1 0 I I #
coedge $-1 -1 $-1 $430 $362 $222 $327 forward $431 $-1 #
edge $-1 -1 $-1 $158 1.5707963267948966 $332 3.1415926535897931 $326 $159 forward @7 unknown #
coedge $-1 -1 $-1 $432 $223 $226 $336 reversed $331 $-1 #
coedge $-1 -1 $-1 $223 $432 $430 $433 forward $331 $-1 #
coedge $-1 -1 $-1 $434 $435 $411 $224 reversed $409 $-1 #
loop $-1 -1 $-1 $-1 $223 $436 #
vertex $-1 -1 $-1 $437 $438 #
straight-curve $-1 -1 $-1 -24 -10 -1.9721522630525295e-031 0 -1 0 I I #
coedge $-1 -1 $-1 $238 $439 $225 $335 forward $216 $-1 #
edge $-1 -1 $-1 $440 -24 $229 1.3319662899943351e-047 $225 $441 forward @7 unknown #
edge $-1 -1 $-1 $440 -24 $228 1.9721522630525295e-031 $328 $442 forward @7 unknown #
face $-1 -1 $-1 $443 $227 $24 $-1 $444 reversed single #
edge $-1 -1 $-1 $228 1.9721522630525295e-031 $445 24 $435 $442 forward @7 unknown #
point $-1 -1 $-1 -24 -10 -1.9721522630525295e-031 #
edge $-1 -1 $-1 $229 1.3319662899943351e-047 $446 24 $343 $441 forward @7 unknown #
point $-1 -1 $-1 1.3319662899943351e-047 -10 24 #
coedge $-1 -1 $-1 $343 $231 $447 $448 reversed $344 $-1 #
coedge $-1 -1 $-1 $231 $342 $236 $340 reversed $344 $-1 #
loop $-1 -1 $-1 $-1 $231 $443 #
coedge $-1 -1 $-1 $449 $233 $421 $348 forward $314 $-1 #
coedge $-1 -1 $-1 $233 $449 $423 $245 reversed $314 $-1 #
coedge $-1 -1 $-1 $242 $447 $95 $151 reversed $356 $-1 #
edge $-1 -1 $-1 $234 1.9721522630525295e-031 $450 24 $345 $451 forward @7 unknown #
point $-1 -1 $-1 24 -10 -1.9721522630525295e-031 #
coedge $-1 -1 $-1 $237 $236 $355 $452 forward $239 $-1 #
coedge $-1 -1 $-1 $439 $238 $362 $247 forward $216 $-1 #
face $-1 -1 $-1 $453 $239 $24 $-1 $217 forward single #
vertex $-1 -1 $-1 $452 $454 #
straight-curve $-1 -1 $-1 0 10 24 -1 0 0 I I #
coedge $-1 -1 $-1 $447 $242 $350 $452 reversed $356 $-1 #
loop $-1 -1 $-1 $-1 $347 $455 #
straight-curve $-1 -1 $-1 24 10 0 0 0 -1 I I #
face $-1 -1 $-1 $456 $431 $24 $-1 $359 reversed single #
plane-surface $-1 -1 $-1 0 10 0 0 -1 0 0 0 -1 forward_v I I I I #
vertex $-1 -1 $-1 $457 $458 #
vertex $-1 -1 $-1 $247 $459 #
coedge $-1 -1 $-1 $326 $430 $351 $247 reversed $431 $-1 #
convexity-sys-attrib $-1 -1 $-1 $-1 $251 #
vertex $-1 -1 $-1 $251 $460 #
ellipse-curve $-1 -1 $-1 1.3319662899943351e-047 -8 -1.9721522630525295e-031 0 1 0 24 0 2.9390552491737054e-015 1 I I #
point $-1 -1 $-1 -24 -10 0 #
point $-1 -1 $-1 20 -8 2.4492127076447545e-015 #
plane-surface $-1 -1 $-1 24 0 0 -1 0 0 0 0 1 forward_v I I I I #
coedge $-1 -1 $-1 $264 $262 $266 $373 reversed $171 $-1 #
edge $-1 -1 $-1 $277 -24 $375 24 $276 $461 forward @7 unknown #
vertex $-1 -1 $-1 $373 $462 #
straight-curve $-1 -1 $-1 -24 -10 0 0 0 -1 I I #
edge $-1 -1 $-1 $371 -10 $375 10 $369 $463 forward @7 unknown #
straight-curve $-1 -1 $-1 0 -10 -24 -1 0 0 I I #
vertex $-1 -1 $-1 $269 $464 #
straight-curve $-1 -1 $-1 0 10 -24 1 0 0 I I #
point $-1 -1 $-1 24 10 -24 #
point $-1 -1 $-1 24 -10 -24 #
straight-curve $-1 -1 $-1 -24 0 24 0 -1 0 I I #
point $-1 -1 $-1 -24 10 24 #
point $-1 -1 $-1 -24 -10 24 #
straight-curve $-1 -1 $-1 24 -10 0 0 0 -1 I I #
straight-curve $-1 -1 $-1 24 10 0 0 0 -1 I I #
convexity-sys-attrib $-1 -1 $-1 $-1 $288 #
vertex $-1 -1 $-1 $288 $465 #
ellipse-curve $-1 -1 $-1 0 8 0 0 1 0 -20 0 0 1 I I #
point $-1 -1 $-1 20 10 2.4492127076447545e-015 #
point $-1 -1 $-1 -24 8 -5.8781104983474108e-015 #
model_id-kcp-attrib $-1 -1 $-1 $-1 $296 1 1021562073 1021562074 -659685375 9 #
face $466 -1 $-1 $467 $468 $9 $-1 $469 forward single #
loop $-1 -1 $-1 $-1 $470 $296 #
cone-surface $-1 -1 $-1 0 21 0 0 -1 0 -20 0 0 1 I I 0 1 20 forward I I I I #
loop $-1 -1 $-1 $-1 $397 $200 #
coedge $-1 -1 $-1 $471 $471 $470 $472 reversed $297 $-1 #
coedge $-1 -1 $-1 $302 $299 $300 $400 reversed $201 $-1 #
coedge $-1 -1 $-1 $299 $302 $301 $401 forward $201 $-1 #
coedge $-1 -1 $-1 $473 $473 $299 $398 reversed $393 $-1 #
edge $474 -1 $-1 $475 1.2246063538223773e-016 $476 3.1415926535897931 $299 $477 forward @7 unknown #
coedge $-1 -1 $-1 $301 $300 $473 $478 reversed $126 $-1 #
edge $-1 -1 $-1 $306 0 $476 16 $395 $479 forward @7 unknown #
edge $-1 -1 $-1 $305 0 $475 16 $396 $480 forward @7 unknown #
attrib_edge_convexity-kcp-attrib $-1 -1 $481 $-1 $303 1 #
ellipse-curve $-1 -1 $-1 0 2 8.8817841970012523e-016 0 -1 0 24 0 2.0508768294735802e-015 1 I I #
convexity-sys-attrib $-1 -1 $-1 $304 $205 #
point $-1 -1 $-1 24 2 2.9390552491737054e-015 #
point $-1 -1 $-1 -24 2 0 #
convexity-sys-attrib $-1 -1 $-1 $311 $211 #
face $-1 -1 $-1 $337 $482 $24 $-1 $444 reversed single #
loop $-1 -1 $-1 $-1 $330 $313 #
plane-surface $-1 -1 $-1 -24 0 0 1 0 0 0 0 -1 forward_v I I I I #
coedge $-1 -1 $-1 $317 $316 $145 $224 forward $143 $-1 #
coedge $-1 -1 $-1 $483 $484 $316 $413 forward $485 $-1 #
edge $-1 -1 $-1 $332 -3.1415926535897931 $323 -1.5707963267948968 $412 $159 forward @7 unknown #
coedge $-1 -1 $-1 $486 $487 $317 $415 forward $482 $-1 #
edge $-1 -1 $-1 $324 1.5707963267948968 $228 3.1415926535897931 $414 $230 forward @7 unknown #
coedge $-1 -1 $-1 $488 $318 $487 $428 forward $419 $-1 #
coedge $-1 -1 $-1 $318 $488 $483 $489 forward $419 $-1 #
coedge $-1 -1 $-1 $490 $491 $144 $221 reversed $492 $-1 #
loop $-1 -1 $-1 $-1 $318 $453 #
coedge $-1 -1 $-1 $421 $319 $491 $493 reversed $422 $-1 #
coedge $-1 -1 $-1 $319 $420 $345 $348 reversed $422 $-1 #
loop $-1 -1 $-1 $-1 $319 $494 #
coedge $-1 -1 $-1 $424 $321 $346 $245 forward $425 $-1 #
coedge $-1 -1 $-1 $321 $423 $490 $426 reversed $425 $-1 #
loop $-1 -1 $-1 $-1 $321 $495 #
edge $-1 -1 $-1 $323 1.3319662899943351e-047 $360 24 $424 $496 forward @7 unknown #
point $-1 -1 $-1 1.3319662899943351e-047 10 -24 #
edge $-1 -1 $-1 $324 -1.3319662899943351e-047 $445 24 $487 $497 forward @7 unknown #
point $-1 -1 $-1 1.3319662899943351e-047 -10 -24 #
coedge $-1 -1 $-1 $362 $326 $329 $433 reversed $431 $-1 #
loop $-1 -1 $-1 $-1 $326 $358 #
coedge $-1 -1 $-1 $329 $328 $439 $498 reversed $331 $-1 #
edge $-1 -1 $-1 $361 -24 $332 1.9721522630525295e-031 $430 $499 forward @7 unknown #
coedge $-1 -1 $-1 $500 $330 $484 $437 forward $409 $-1 #
coedge $-1 -1 $-1 $330 $500 $486 $338 reversed $409 $-1 #
face $-1 -1 $-1 $455 $331 $24 $-1 $410 reversed single #
edge $-1 -1 $-1 $332 1.9721522630525295e-031 $501 24 $484 $499 forward @7 unknown #
point $-1 -1 $-1 -24 10 -1.9721522630525295e-031 #
coedge $-1 -1 $-1 $334 $351 $432 $498 forward $216 $-1 #
vertex $-1 -1 $-1 $498 $502 #
straight-curve $-1 -1 $-1 0 -10 24 1 0 0 I I #
straight-curve $-1 -1 $-1 -24 -10 0 0 0 -1 I I #
face $-1 -1 $-1 $494 $344 $24 $-1 $444 reversed single #
plane-surface $-1 -1 $-1 0 -10 0 0 1 0 0 0 1 forward_v I I I I #
vertex $-1 -1 $-1 $503 $504 #
vertex $-1 -1 $-1 $452 $505 #
coedge $-1 -1 $-1 $347 $355 $342 $448 forward $356 $-1 #
edge $-1 -1 $-1 $446 -24 $234 1.9721522630525295e-031 $447 $451 forward @7 unknown #
coedge $-1 -1 $-1 $346 $345 $506 $457 reversed $314 $-1 #
vertex $-1 -1 $-1 $348 $507 #
straight-curve $-1 -1 $-1 24 -10 0 0 0 -1 I I #
edge $-1 -1 $-1 $446 -10 $353 10 $355 $508 forward @7 unknown #
face $-1 -1 $-1 $436 $419 $24 $-1 $509 reversed single #
point $-1 -1 $-1 24 10 24 #
face $-1 -1 $-1 $-1 $356 $24 $-1 $315 reversed single #
face $-1 -1 $-1 $510 $485 $24 $-1 $359 reversed single #
edge $-1 -1 $-1 $360 -10 $450 10 $449 $511 forward @7 unknown #
point $-1 -1 $-1 24 10 -24 #
point $-1 -1 $-1 -24 10 24 #
point $-1 -1 $-1 -24 -8 0 #
straight-curve $-1 -1 $-1 -24 10 0 0 0 -1 I I #
point $-1 -1 $-1 -24 -10 -24 #
straight-curve $-1 -1 $-1 -24 0 -24 0 1 0 I I #
point $-1 -1 $-1 -24 10 -24 #
point $-1 -1 $-1 -20 8 0 #
model_id-kcp-attrib $-1 -1 $-1 $-1 $390 1 1021562073 1021562074 -659685375 10 #
face $512 -1 $-1 $513 $514 $9 $-1 $515 reversed single #
loop $-1 -1 $-1 $-1 $516 $390 #
cone-surface $-1 -1 $-1 0 21 0 0 -1 0 -20 0 0 1 I I 0 1 20 forward I I I I #
coedge $-1 -1 $-1 $517 $518 $394 $472 forward $391 $-1 #
coedge $-1 -1 $-1 $394 $394 $519 $520 forward $297 $-1 #
edge $521 -1 $-1 $522 0 $523 3.1415926535897931 $394 $524 forward @7 unknown #
coedge $-1 -1 $-1 $397 $397 $399 $478 forward $393 $-1 #
attrib_edge_convexity-kcp-attrib $-1 -1 $525 $-1 $398 1 #
vertex $-1 -1 $-1 $401 $526 #
vertex $-1 -1 $-1 $400 $527 #
ellipse-curve $-1 -1 $-1 8.8817841970012523e-016 18 0 0 -1 0 24 0 0 1 I I #
edge $528 -1 $-1 $475 -1.2246063538223773e-016 $476 3.1415926535897931 $473 $529 forward @7 unknown #
straight-curve $-1 -1 $-1 -24 2 -5.8781104983474108e-015 0 1 0 I I #
straight-curve $-1 -1 $-1 24 2 2.9390552491737054e-015 0 1 0 I I #
convexity-sys-attrib $-1 -1 $-1 $402 $303 #
loop $-1 -1 $-1 $-1 $414 $408 #
coedge $-1 -1 $-1 $484 $412 $417 $489 reversed $485 $-1 #
coedge $-1 -1 $-1 $412 $483 $434 $437 reversed $485 $-1 #
loop $-1 -1 $-1 $-1 $412 $456 #
coedge $-1 -1 $-1 $487 $414 $435 $338 forward $482 $-1 #
coedge $-1 -1 $-1 $414 $486 $416 $428 reversed $482 $-1 #
coedge $-1 -1 $-1 $417 $416 $500 $503 forward $419 $-1 #
edge $-1 -1 $-1 $501 -24 $323 1.3319662899943351e-047 $483 $496 forward @7 unknown #
coedge $-1 -1 $-1 $506 $418 $424 $426 forward $492 $-1 #
coedge $-1 -1 $-1 $418 $506 $420 $493 forward $492 $-1 #
loop $-1 -1 $-1 $-1 $418 $510 #
edge $-1 -1 $-1 $450 -24 $324 -1.3319662899943351e-047 $420 $497 forward @7 unknown #
face $-1 -1 $-1 $495 $422 $24 $-1 $444 reversed single #
face $-1 -1 $-1 $244 $425 $24 $-1 $359 reversed single #
straight-curve $-1 -1 $-1 0 10 -24 1 0 0 I I #
straight-curve $-1 -1 $-1 0 -10 -24 -1 0 0 I I #
edge $-1 -1 $-1 $361 -10 $440 10 $432 $530 forward @7 unknown #
straight-curve $-1 -1 $-1 -24 10 0 0 0 -1 I I #
coedge $-1 -1 $-1 $435 $434 $488 $503 reversed $409 $-1 #
vertex $-1 -1 $-1 $489 $531 #
point $-1 -1 $-1 -24 -10 24 #
edge $-1 -1 $-1 $445 -10 $501 10 $500 $532 forward @7 unknown #
point $-1 -1 $-1 -24 -10 -24 #
point $-1 -1 $-1 24 -10 24 #
coedge $-1 -1 $-1 $491 $490 $449 $457 forward $492 $-1 #
point $-1 -1 $-1 24 -10 -24 #
straight-curve $-1 -1 $-1 24 0 24 0 1 0 I I #
plane-surface $-1 -1 $-1 0 0 -24 0 0 1 1 0 0 forward_v I I I I #
face $-1 -1 $-1 $352 $492 $24 $-1 $509 reversed single #
straight-curve $-1 -1 $-1 24 0 -24 0 -1 0 I I #
model_id-kcp-attrib $-1 -1 $-1 $-1 $467 1 1021562073 1021562074 -659685375 11 #
face $533 -1 $-1 $534 $535 $9 $-1 $536 reversed single #
loop $-1 -1 $-1 $537 $538 $467 #
plane-surface $-1 -1 $-1 0 20 0 0 -1 0 -1 0 0 forward_v I I I I #
coedge $-1 -1 $-1 $539 $540 $541 $542 forward $468 $-1 #
coedge $-1 -1 $-1 $543 $470 $539 $544 forward $391 $-1 #
coedge $-1 -1 $-1 $470 $543 $540 $545 reversed $391 $-1 #
coedge $-1 -1 $-1 $540 $539 $471 $520 reversed $468 $-1 #
edge $546 -1 $-1 $522 0 $523 3.1415926535897931 $471 $547 forward @7 unknown #
attrib_edge_convexity-kcp-attrib $-1 -1 $548 $-1 $472 2 #
vertex $-1 -1 $-1 $520 $549 #
vertex $-1 -1 $-1 $520 $550 #
ellipse-curve $-1 -1 $-1 0 18 -1.7763568394002505e-015 0 1 0 20 0 4.225569547045005e-015 1 I I #
convexity-sys-attrib $-1 -1 $-1 $474 $398 #
point $-1 -1 $-1 24 18 2.9390552491737054e-015 #
point $-1 -1 $-1 -24 18 0 #
attrib_edge_convexity-kcp-attrib $-1 -1 $551 $-1 $478 1 #
ellipse-curve $-1 -1 $-1 8.8817841970012523e-016 18 0 0 1 0 24 0 0 1 I I #
straight-curve $-1 -1 $-1 -24 0 24 0 -1 0 I I #
point $-1 -1 $-1 -24 10 -24 #
straight-curve $-1 -1 $-1 -24 0 -24 0 1 0 I I #
model_id-kcp-attrib $-1 -1 $-1 $-1 $513 1 1021562073 1021562074 -659685375 12 #
face $552 -1 $-1 $-1 $553 $9 $-1 $554 reversed single #
loop $-1 -1 $-1 $-1 $555 $513 #
cone-surface $-1 -1 $-1 0 17.429285785728577 0 0 -1 0 -0.98019605881960759 0 0 1 I I -0.70000000000000029 0.71414284285428475 0.98019605881960759 forward I I I I #
loop $-1 -1 $-1 $-1 $541 $467 #
coedge $-1 -1 $-1 $556 $556 $555 $557 reversed $514 $-1 #
coedge $-1 -1 $-1 $519 $516 $517 $544 reversed $468 $-1 #
coedge $-1 -1 $-1 $516 $519 $518 $545 forward $468 $-1 #
coedge $-1 -1 $-1 $558 $558 $516 $542 reversed $537 $-1 #
edge $-1 -1 $-1 $559 1.2246063538223773e-016 $560 3.1415926535897931 $516 $561 forward @7 unknown #
coedge $-1 -1 $-1 $518 $517 $558 $562 reversed $391 $-1 #
edge $-1 -1 $-1 $523 0 $560 2 $539 $563 forward @7 unknown #
edge $-1 -1 $-1 $522 0 $559 2 $540 $564 forward @7 unknown #
attrib_edge_convexity-kcp-attrib $-1 -1 $565 $-1 $520 2 #
ellipse-curve $-1 -1 $-1 8.8817841970012523e-016 18 -8.8817841970012523e-016 0 -1 0 20 0 3.3373911273448797e-015 1 I I #
convexity-sys-attrib $-1 -1 $-1 $521 $472 #
point $-1 -1 $-1 20 18 2.4492127076447545e-015 #
point $-1 -1 $-1 -20 18 0 #
convexity-sys-attrib $-1 -1 $-1 $528 $478 #
model_id-kcp-attrib $-1 -1 $-1 $-1 $534 1 1021562073 1021562074 -659685375 13 #
loop $-1 -1 $-1 $-1 $566 $534 #
cone-surface $-1 -1 $-1 0 17.429285785728577 0 0 -1 0 -0.98019605881960759 0 0 1 I I -0.70000000000000029 0.71414284285428475 0.98019605881960759 forward I I I I #
coedge $-1 -1 $-1 $567 $568 $538 $557 forward $535 $-1 #
coedge $-1 -1 $-1 $538 $538 $569 $570 forward $514 $-1 #
edge $-1 -1 $-1 $571 0 $572 3.1415926535897931 $538 $573 forward @7 unknown #
coedge $-1 -1 $-1 $541 $541 $543 $562 forward $537 $-1 #
vertex $-1 -1 $-1 $545 $574 #
vertex $-1 -1 $-1 $544 $575 #
ellipse-curve $-1 -1 $-1 -8.8817841970012523e-016 20 8.8817841970012523e-016 0 -1 0 20 0 -8.8817841970012523e-016 1 I I #
edge $-1 -1 $-1 $559 -1.2246063538223773e-016 $560 3.1415926535897931 $558 $576 forward @7 unknown #
straight-curve $-1 -1 $-1 -20 18 -4.898425415289509e-015 0 1 0 I I #
straight-curve $-1 -1 $-1 20 18 2.4492127076447545e-015 0 1 0 I I #
convexity-sys-attrib $-1 -1 $-1 $546 $520 #
coedge $-1 -1 $-1 $569 $577 $567 $578 reversed $553 $-1 #
coedge $-1 -1 $-1 $568 $555 $566 $578 forward $535 $-1 #
coedge $-1 -1 $-1 $555 $567 $577 $579 reversed $535 $-1 #
coedge $-1 -1 $-1 $577 $566 $556 $570 reversed $553 $-1 #
edge $-1 -1 $-1 $571 0 $572 3.1415926535897931 $556 $580 forward @7 unknown #
vertex $-1 -1 $-1 $570 $581 #
vertex $-1 -1 $-1 $570 $582 #
ellipse-curve $-1 -1 $-1 0 20 -3.3306690738754696e-016 0 1 0 3.5000000000000004 0 7.61679131225379e-016 1 I I #
point $-1 -1 $-1 20 20 2.4492127076447545e-015 #
point $-1 -1 $-1 -20 20 0 #
ellipse-curve $-1 -1 $-1 -8.8817841970012523e-016 20 -8.8817841970012523e-016 0 1 0 20 0 8.8817841970012523e-016 1 I I #
coedge $-1 -1 $-1 $566 $569 $568 $579 forward $553 $-1 #
edge $-1 -1 $-1 $572 1.4696675073856953e-031 $583 4.9999999999999982 $566 $584 forward @7 unknown #
edge $-1 -1 $-1 $571 0 $583 4.9999999999999982 $577 $585 forward @7 unknown #
ellipse-curve $-1 -1 $-1 0 20 -3.3306690738754696e-016 0 -1 0 3.5000000000000004 0 7.61679131225379e-016 1 I I #
point $-1 -1 $-1 3.5000000000000004 20 4.2861222383783204e-016 #
point $-1 -1 $-1 -3.5000000000000004 20 0 #
vertex $-1 -1 $-1 $579 $586 #
straight-curve $-1 -1 $-1 -3.5000000000000004 20 -8.5722444767566408e-016 0.70000000000000029 -0.71414284285428475 1.7144488953513289e-016 I I #
straight-curve $-1 -1 $-1 3.5000000000000004 20 4.2861222383783204e-016 -0.70000000000000029 -0.71414284285428475 -8.5722444767566443e-017 I I #
point $-1 -1 $-1 0 16.429285785728577 0 #
End-of-ACIS-data 