600 0 1 0           
99 GICL ACIS Healer - Source: /gicl/data5/repository/PTC/V18/bboxrev2/boombox/motor_form.prt.sat - 6 0 18 ACIS 6.0.3 Solaris 24 Sat Apr 13 22:48:49 2002 
1 9.999999999999999547e-07 1.000000000000000036e-10 
body $-1 $1 $-1 $-1 #
lump $-1 $-1 $2 $0 #
shell $-1 $-1 $-1 $3 $-1 $1 #
face $-1 $4 $5 $2 $-1 $6 reversed single #
face $-1 $7 $8 $2 $-1 $9 forward single #
loop $-1 $-1 $10 $3 #
plane-surface $-1 0 0 -1.25 0 0 1 1 0 0 forward_v I I I I #
face $-1 $11 $12 $2 $-1 $13 forward single #
loop $-1 $-1 $14 $4 #
plane-surface $-1 -4 0 -1.25 -1 0 0 0 -1 0 forward_v I I I I #
coedge $-1 $15 $16 $17 $18 reversed $5 $-1 #
face $-1 $19 $20 $2 $-1 $21 forward single #
loop $-1 $-1 $22 $7 #
plane-surface $-1 -4 -0.2999999999999999889 -1.25 0 -1 0 1 0 0 forward_v I I I I #
coedge $-1 $23 $17 $24 $25 forward $8 $-1 #
coedge $-1 $26 $10 $27 $28 reversed $5 $-1 #
coedge $-1 $10 $26 $29 $30 reversed $5 $-1 #
coedge $-1 $14 $31 $10 $18 forward $8 $-1 #
edge $-1 $32 0 $33 0.2999999999999999889 $10 $34 forward 7 unknown #
face $-1 $35 $36 $2 $-1 $37 forward single #
loop $-1 $-1 $38 $11 #
plane-surface $-1 4 -0.2999999999999999889 -1.25 1 0 0 0 1 0 forward_v I I I I #
coedge $-1 $39 $29 $40 $41 forward $12 $-1 #
coedge $-1 $31 $14 $42 $43 reversed $8 $-1 #
coedge $-1 $29 $39 $14 $25 reversed $12 $-1 #
edge $-1 $33 0 $44 2.5 $24 $45 forward 7 unknown #
coedge $-1 $16 $15 $46 $47 reversed $5 $-1 #
coedge $-1 $48 $49 $15 $28 forward $36 $-1 #
edge $-1 $50 0 $32 8 $15 $51 forward 7 unknown #
coedge $-1 $22 $24 $16 $30 forward $12 $-1 #
edge $-1 $33 0 $52 8 $16 $53 forward 7 unknown #
coedge $-1 $17 $23 $48 $54 reversed $8 $-1 #
vertex $-1 $28 $55 #
vertex $-1 $30 $56 #
straight-curve $-1 -4 0 -1.25 0 -1 0 I I #
face $-1 $57 $58 $2 $-1 $59 forward single #
loop $-1 $60 $48 $19 #
plane-surface $-1 4 0 -1.25 0 1 0 -1 0 0 forward_v I I I I #
coedge $-1 $61 $46 $49 $62 forward $20 $-1 #
coedge $-1 $24 $22 $63 $64 reversed $12 $-1 #
coedge $-1 $46 $61 $22 $41 reversed $20 $-1 #
edge $-1 $52 0 $65 2.5 $22 $66 forward 7 unknown #
coedge $-1 $63 $67 $23 $43 forward $58 $-1 #
edge $-1 $68 0 $44 0.2999999999999999889 $42 $69 forward 7 unknown #
vertex $-1 $64 $70 #
straight-curve $-1 -4 -0.2999999999999999889 -1.25 0 0 1 I I #
coedge $-1 $38 $40 $26 $47 forward $20 $-1 #
edge $-1 $52 0 $50 0.2999999999999999889 $26 $71 forward 7 unknown #
coedge $-1 $72 $27 $31 $54 forward $36 $-1 #
coedge $-1 $27 $72 $38 $62 reversed $36 $-1 #
vertex $-1 $47 $73 #
straight-curve $-1 4 0 -1.25 -1 0 0 I I #
vertex $-1 $30 $74 #
straight-curve $-1 -4 -0.2999999999999999889 -1.25 1 0 0 I I #
edge $-1 $32 0 $68 2.5 $48 $75 forward 7 unknown #
point $-1 -4 0 -1.25 #
point $-1 -4 -0.2999999999999999889 -1.25 #
face $-1 $76 $77 $2 $-1 $78 forward single #
loop $-1 $-1 $79 $35 #
plane-surface $-1 0 0 1.25 0 0 1 1 0 0 forward_v I I I I #
loop $-1 $-1 $80 $19 #
coedge $-1 $40 $38 $79 $81 reversed $20 $-1 #
edge $-1 $50 0 $82 2.5 $38 $83 forward 7 unknown #
coedge $-1 $79 $42 $39 $64 forward $58 $-1 #
edge $-1 $44 0 $65 8 $63 $84 forward 7 unknown #
vertex $-1 $64 $85 #
straight-curve $-1 4 -0.2999999999999999889 -1.25 0 0 1 I I #
coedge $-1 $42 $79 $72 $86 forward $58 $-1 #
vertex $-1 $43 $87 #
straight-curve $-1 -4 0 1.25 0 -1 0 I I #
point $-1 -4 -0.2999999999999999889 1.25 #
straight-curve $-1 4 -0.2999999999999999889 -1.25 0 1 0 I I #
coedge $-1 $49 $48 $67 $86 reversed $36 $-1 #
point $-1 4 0 -1.25 #
point $-1 4 -0.2999999999999999889 -1.25 #
straight-curve $-1 -4 0 -1.25 0 0 1 I I #
face $-1 $88 $89 $2 $-1 $90 forward single #
loop $-1 $-1 $91 $57 #
plane-surface $-1 0 0 0.5999999999999999778 0 0 1 1 0 0 forward_v I I I I #
coedge $-1 $67 $63 $61 $81 forward $58 $-1 #
coedge $-1 $92 $93 $94 $95 forward $60 $-1 #
edge $-1 $65 0 $82 0.2999999999999999889 $79 $96 forward 7 unknown #
vertex $-1 $86 $97 #
straight-curve $-1 4 0 -1.25 0 0 1 I I #
straight-curve $-1 -4 -0.2999999999999999889 1.25 1 0 0 I I #
point $-1 4 -0.2999999999999999889 1.25 #
edge $-1 $82 0 $68 8 $67 $98 forward 7 unknown #
point $-1 -4 0 1.25 #
face $-1 $99 $100 $2 $-1 $101 reversed single #
loop $-1 $-1 $102 $76 #
plane-surface $-1 0 2.599999999999999645 -0.5999999999999999778 -0.659608216526857416 0.7516096065712960517 0 -0.7516096065712960517 -0.659608216526857416 0 forward_v I I I I #
coedge $-1 $103 $104 $105 $106 forward $77 $-1 #
coedge $-1 $107 $80 $108 $109 reversed $60 $-1 #
coedge $-1 $80 $107 $110 $111 reversed $60 $-1 #
coedge $-1 $112 $103 $80 $95 reversed $77 $-1 #
edge $-1 $113 0 $114 6.527806167013302741 $80 $115 forward 7 unknown #
straight-curve $-1 4 -0.2999999999999999889 1.25 0 1 0 I I #
point $-1 4 0 1.25 #
straight-curve $-1 4 0 1.25 -1 0 0 I I #
face $-1 $116 $117 $2 $-1 $118 forward single #
loop $-1 $-1 $119 $88 #
plane-surface $-1 0 0 -0.5999999999999999778 0 0 1 1 0 0 forward_v I I I I #
coedge $-1 $120 $121 $122 $123 forward $89 $-1 #
coedge $-1 $94 $91 $124 $125 forward $77 $-1 #
coedge $-1 $91 $126 $127 $128 forward $77 $-1 #
coedge $-1 $121 $120 $91 $106 reversed $89 $-1 #
edge $-1 $129 -1.379447249511008459e-15 $130 2.938400358051015182 $91 $131 forward 7 unknown #
coedge $-1 $93 $92 $132 $133 forward $60 $-1 #
coedge $-1 $124 $134 $92 $109 forward $135 $-1 #
edge $-1 $136 0 $114 1.200000000000000178 $92 $137 forward 7 unknown #
coedge $-1 $138 $139 $93 $111 forward $140 $-1 #
edge $-1 $113 0 $141 1.200000000000000178 $93 $142 forward 7 unknown #
coedge $-1 $126 $94 $139 $143 forward $77 $-1 #
vertex $-1 $111 $144 #
vertex $-1 $109 $145 #
straight-curve $-1 3.26390308350665137 0 0.6000000000000000888 -1 0 0 I I #
face $-1 $146 $140 $2 $-1 $147 reversed single #
loop $-1 $-1 $148 $99 #
plane-surface $-1 2.9626449885282784 0 -0.5999999999999999778 0.659608216526857416 0.7516096065712960517 0 -0.7516096065712960517 0.659608216526857416 0 forward_v I I I I #
coedge $-1 $149 $150 $151 $152 reversed $100 $-1 #
coedge $-1 $105 $102 $153 $154 forward $89 $-1 #
coedge $-1 $102 $105 $155 $156 forward $89 $-1 #
coedge $-1 $150 $157 $102 $123 reversed $100 $-1 #
edge $-1 $158 1.420304074120950482e-15 $159 2.938400358051017847 $122 $160 forward 7 unknown #
coedge $-1 $153 $108 $103 $125 reversed $135 $-1 #
edge $-1 $130 -1.069105884036881601e-48 $114 0.720297382298061728 $103 $161 forward 7 unknown #
coedge $-1 $104 $112 $148 $162 forward $77 $-1 #
coedge $-1 $163 $155 $104 $128 reversed $164 $-1 #
edge $-1 $165 0 $129 1.440594764596121014 $104 $166 forward 7 unknown #
vertex $-1 $128 $167 #
vertex $-1 $125 $168 #
straight-curve $-1 -0.5276865732214863769 2.136905334358872199 0.5999999999999999778 -0.7516096065712960517 -0.659608216526857416 0 I I #
coedge $-1 $157 $149 $107 $133 reversed $100 $-1 #
edge $-1 $136 0 $141 6.527806167013302741 $107 $169 forward 7 unknown #
coedge $-1 $108 $153 $157 $170 reversed $135 $-1 #
loop $-1 $-1 $124 $171 #
vertex $-1 $133 $172 #
straight-curve $-1 -3.26390308350665137 0 -0.5999999999999999778 0 0 1 I I #
coedge $-1 $173 $110 $149 $174 reversed $140 $-1 #
coedge $-1 $110 $173 $112 $143 reversed $140 $-1 #
loop $-1 $-1 $138 $116 #
vertex $-1 $111 $175 #
straight-curve $-1 3.26390308350665137 0 0.6000000000000000888 0 0 -1 I I #
edge $-1 $113 0 $176 0.7202973822980610619 $112 $177 forward 7 unknown #
point $-1 3.26390308350665137 -5.551115123125782702e-17 0.6000000000000000888 #
point $-1 -3.26390308350665137 5.551115123125782702e-17 0.6000000000000003109 #
face $-1 $171 $164 $2 $-1 $178 forward single #
cone-surface $-1 3.26390308350665137 0.7999999999999999334 1.254952549819720264 0 0 -1 -0.5276865732214859328 -0.6012876852570367969 0 1 I I 0 1 0.8000000000000000444 forward I I I I #
coedge $-1 $179 $180 $126 $162 reversed $117 $-1 #
coedge $-1 $132 $119 $138 $174 forward $100 $-1 #
coedge $-1 $119 $122 $181 $182 forward $100 $-1 #
coedge $-1 $180 $179 $119 $152 forward $117 $-1 #
edge $-1 $183 -1.106950770127958199e-15 $184 2.938400358051015182 $119 $185 forward 7 unknown #
coedge $-1 $134 $124 $120 $154 reversed $135 $-1 #
edge $-1 $159 0 $130 1.200000000000000178 $120 $186 forward 7 unknown #
coedge $-1 $127 $181 $121 $156 reversed $164 $-1 #
edge $-1 $129 1.110223024625157033e-16 $158 1.199999999999999956 $121 $187 forward 7 unknown #
coedge $-1 $122 $132 $134 $170 forward $100 $-1 #
vertex $-1 $182 $188 #
vertex $-1 $123 $189 #
straight-curve $-1 -0.5276865732214847116 2.136905334358873976 -0.5999999999999999778 -0.7516096065712960517 -0.659608216526857527 0 I I #
ellipse-curve $-1 -3.263903083506650926 0.7999999999999988232 0.5999999999999999778 9.15390286525068075e-17 -1.04306786343113628e-16 -1 0.5276865732214854887 -0.6012876852570355757 1.11022302462515654e-16 1 I I #
edge $-1 $176 1.125258575858459664e-15 $165 2.938400358051016958 $126 $190 forward 7 unknown #
coedge $-1 $181 $127 $180 $191 forward $164 $-1 #
loop $-1 $-1 $127 $146 #
vertex $-1 $128 $192 #
ellipse-curve $-1 -1.11022302462515654e-16 1.535617649101836513 0.5999999999999999778 0 0 1 0.5276865732214860438 0.6012876852570365749 0 1 I I #
point $-1 -0.5276865732214857108 2.136905334358873532 0.6000000000000000888 #
point $-1 -2.736216510285165437 0.1987123147429632475 0.6000000000000000888 #
straight-curve $-1 -3.26390308350665137 0 -0.5999999999999999778 1 0 0 I I #
edge $-1 $136 0 $159 0.7202973822980622831 $157 $193 forward 7 unknown #
face $-1 $-1 $135 $2 $-1 $194 reversed single #
point $-1 -3.26390308350665137 5.551115123125782702e-17 -0.5999999999999999778 #
coedge $-1 $139 $138 $179 $195 reversed $140 $-1 #
edge $-1 $183 -1.069105884036882664e-48 $141 0.7202973822980622831 $149 $196 forward 7 unknown #
point $-1 3.26390308350665137 -5.551115123125782702e-17 -0.6000000000000000888 #
vertex $-1 $162 $197 #
ellipse-curve $-1 3.26390308350665137 0.7999999999999993783 0.5999999999999999778 0 -1.387778780781446662e-16 -1 0 -0.7999999999999993783 1.11022302462515654e-16 1 I I #
cone-surface $-1 0 1.535617649101836291 0.6138777300827810146 0 0 -1 0.5276865732214859328 0.6012876852570366859 0 1 I I 0 1 0.7999999999999999334 forward I I I I #
coedge $-1 $151 $148 $173 $195 forward $117 $-1 #
coedge $-1 $148 $151 $163 $191 reversed $117 $-1 #
coedge $-1 $155 $163 $150 $182 reversed $164 $-1 #
edge $-1 $158 -4.276423536147515465e-48 $184 1.440594764596121458 $150 $198 forward 7 unknown #
vertex $-1 $174 $199 #
vertex $-1 $182 $200 #
straight-curve $-1 2.736216510285164549 0.1987123147429638026 -0.5999999999999999778 -0.7516096065712960517 0.659608216526857416 0 I I #
straight-curve $-1 -2.736216510285164993 0.1987123147429632475 -0.5999999999999999778 0 0 1 I I #
straight-curve $-1 -0.5276865732214854887 2.136905334358873088 0.6000000000000001998 -1.850371707708594316e-16 0 -1 I I #
point $-1 -0.5276865732214858218 2.136905334358873088 -0.5999999999999997558 #
point $-1 -2.736216510285165437 0.1987123147429632475 -0.5999999999999999778 #
straight-curve $-1 2.736216510285166326 0.1987123147429624426 0.5999999999999999778 -0.7516096065712960517 0.659608216526857416 0 I I #
edge $-1 $165 0 $184 1.199999999999999956 $180 $201 forward 7 unknown #
point $-1 0.5276865732214859328 2.136905334358873088 0.5999999999999999778 #
ellipse-curve $-1 -3.263903083506650926 0.7999999999999982681 -0.5999999999999999778 0 0 1 -4.440892098500626162e-16 -0.7999999999999982681 0 1 I I #
cone-surface $-1 -3.26390308350665137 0.7999999999999999334 -1.254952577089226029 0 0 1 0.5276865732214859328 -0.6012876852570366859 0 1 I I 0 1 0.7999999999999999334 forward I I I I #
edge $-1 $176 0 $183 1.200000000000000178 $179 $202 forward 7 unknown #
ellipse-curve $-1 3.263903083506650926 0.799999999999998157 -0.5999999999999999778 -9.15390286525069061e-17 -1.043067863431136404e-16 1 -0.5276865732214854887 -0.6012876852570350206 -1.11022302462515654e-16 1 I I #
point $-1 2.736216510285165437 0.1987123147429631365 0.5999999999999999778 #
ellipse-curve $-1 8.326672684688674053e-17 1.535617649101836513 -0.5999999999999999778 -1.830780573050132945e-16 2.086135726862270589e-16 -1 -0.5276865732214859328 0.6012876852570365749 2.220446049250313081e-16 1 I I #
point $-1 2.736216510285165437 0.1987123147429631365 -0.6000000000000000888 #
point $-1 0.5276865732214859328 2.136905334358873088 -0.5999999999999999778 #
straight-curve $-1 0.5276865732214859328 2.136905334358873088 0.5999999999999999778 0 0 -1 I I #
straight-curve $-1 2.736216510285165437 0.1987123147429631365 0.5999999999999999778 0 0 -1 I I #
End-of-ACIS-data 