700 0 2 0           
24 FBMach with ACIS - 7.0.3 13 ACIS 7.0.3 NT 24 Thu May 16 13:45:13 2002 
1 9.9999999999999995e-007 1e-010 
body $2 -1 $-1 $3 $-1 $4 #
bdycol-kcp $-1 -1 1 4 $5 $6 $7 $8 #
model_id-kcp-attrib $-1 -1 $-1 $-1 $0 1 1021571112 1021571112 -766902271 1 #
lump $-1 -1 $-1 $-1 $9 $0 #
transform $-1 -1 1 0 0 0 1 0 0 0 1 0 0 0 1 rotate no_reflect no_shear #
body $10 -1 $-1 $11 $-1 $12 #
body $13 -1 $-1 $14 $-1 $15 #
body $16 -1 $-1 $17 $-1 $18 #
body $19 -1 $-1 $20 $-1 $21 #
shell $-1 -1 $-1 $-1 $-1 $22 $-1 $3 #
model_id-kcp-attrib $-1 -1 $-1 $-1 $5 1 1021571112 1021571112 -766902270 1 #
lump $-1 -1 $-1 $-1 $23 $5 #
transform $-1 -1 1 0 0 0 1 0 0 0 1 0 1.0178088245509183 0 1 no_rotate no_reflect no_shear #
rgb_color-st-attrib $-1 -1 $24 $-1 $6 1 0.5 1 #
lump $-1 -1 $-1 $-1 $25 $6 #
transform $-1 -1 1 0 0 0 1 0 0 0 1 0 1.0178088245509183 0 1 no_rotate no_reflect no_shear #
rgb_color-st-attrib $-1 -1 $26 $-1 $7 0.5 1 1 #
lump $-1 -1 $-1 $-1 $27 $7 #
transform $-1 -1 1 0 0 0 1 0 0 0 1 0 1.0178088245509183 0 1 no_rotate no_reflect no_shear #
rgb_color-st-attrib $-1 -1 $28 $-1 $8 1 0.5 1 #
lump $-1 -1 $-1 $-1 $29 $8 #
transform $-1 -1 1 0 0 0 1 0 0 0 1 0 1.0178088245509183 0 1 no_rotate no_reflect no_shear #
face $30 -1 $-1 $31 $32 $9 $-1 $33 reversed single #
shell $-1 -1 $-1 $-1 $-1 $34 $-1 $11 #
model_id-kcp-attrib $-1 -1 $-1 $13 $6 1 1021571112 1021571112 -766312444 1 #
shell $-1 -1 $-1 $-1 $-1 $35 $-1 $14 #
model_id-kcp-attrib $-1 -1 $-1 $16 $7 1 1021571112 1021571112 -756416509 1 #
shell $-1 -1 $-1 $-1 $-1 $36 $-1 $17 #
model_id-kcp-attrib $-1 -1 $-1 $19 $8 1 1021571112 1021571113 -765788155 1 #
shell $-1 -1 $-1 $-1 $-1 $37 $-1 $20 #
model_id-kcp-attrib $-1 -1 $-1 $-1 $22 1 1021571112 1021571112 -766902271 2 #
face $38 -1 $-1 $39 $40 $9 $-1 $41 forward single #
loop $-1 -1 $-1 $-1 $42 $22 #
plane-surface $-1 -1 $-1 0 0 -1.25 0 0 1 1 0 0 forward_v I I I I #
face $43 -1 $-1 $44 $45 $23 $-1 $46 forward single #
face $-1 -1 $-1 $47 $48 $25 $-1 $49 forward single #
face $-1 -1 $-1 $50 $51 $27 $-1 $52 reversed single #
face $-1 -1 $-1 $53 $54 $29 $-1 $55 reversed single #
model_id-kcp-attrib $-1 -1 $-1 $-1 $31 1 1021571112 1021571112 -766902271 3 #
face $56 -1 $-1 $57 $58 $9 $-1 $59 forward single #
loop $-1 -1 $-1 $-1 $60 $31 #
plane-surface $-1 -1 $-1 -4 0 -1.25 -1 0 0 0 -1 0 forward_v I I I I #
coedge $-1 -1 $-1 $61 $62 $63 $64 reversed $32 $-1 #
model_id-kcp-attrib $-1 -1 $-1 $-1 $34 1 1021571112 1021571112 -766902270 6 #
face $65 -1 $-1 $66 $67 $23 $-1 $68 reversed single #
loop $-1 -1 $-1 $-1 $69 $34 #
plane-surface $-1 -1 $-1 0 0 1.25 0 0 1 1 0 0 forward_v I I I I #
face $-1 -1 $-1 $70 $71 $25 $-1 $72 forward single #
loop $-1 -1 $-1 $-1 $73 $35 #
plane-surface $-1 -1 $-1 0 0 1.25 0 0 1 1 0 0 forward_v I I I I #
face $-1 -1 $-1 $74 $75 $27 $-1 $76 reversed single #
loop $-1 -1 $-1 $-1 $77 $36 #
plane-surface $-1 -1 $-1 4 -1.0178088245509183 -1.25 3.7706414731163616e-017 1 0 0 0 -1 forward_v I I I I #
face $-1 -1 $-1 $78 $79 $29 $-1 $80 forward single #
loop $-1 -1 $-1 $-1 $81 $37 #
plane-surface $-1 -1 $-1 0 0 -1.25 0 0 1 1 0 0 forward_v I I I I #
model_id-kcp-attrib $-1 -1 $-1 $-1 $39 1 1021571112 1021571112 -766902271 4 #
face $82 -1 $-1 $83 $84 $9 $-1 $85 forward single #
loop $-1 -1 $-1 $-1 $86 $39 #
plane-surface $-1 -1 $-1 -4 -0.29999999999999999 -1.25 0 -1 0 1 0 0 forward_v I I I I #
coedge $-1 -1 $-1 $87 $63 $88 $89 forward $40 $-1 #
coedge $-1 -1 $-1 $90 $42 $91 $92 reversed $32 $-1 #
coedge $-1 -1 $-1 $42 $90 $93 $94 reversed $32 $-1 #
coedge $-1 -1 $-1 $60 $95 $42 $64 forward $40 $-1 #
edge $96 -1 $-1 $97 0 $98 0.29999999999999999 $42 $99 forward @7 unknown #
model_id-kcp-attrib $-1 -1 $-1 $-1 $44 1 1021571112 1021571112 -766902270 2 #
face $100 -1 $-1 $101 $102 $23 $-1 $103 reversed single #
loop $-1 -1 $-1 $-1 $104 $44 #
plane-surface $-1 -1 $-1 0 0 -1.25 0 0 1 1 0 0 forward_v I I I I #
coedge $-1 -1 $-1 $105 $106 $107 $108 forward $45 $-1 #
face $-1 -1 $-1 $109 $110 $25 $-1 $111 forward single #
loop $-1 -1 $-1 $-1 $112 $47 #
cone-surface $-1 -1 $-1 -1.4199282677244024e-016 0.51780882455091826 0.59999999999999964 0 0 1 0.52768657322148604 0.60128768525703657 0 1 I I 0 1 0.79999999999999993 forward I I I I #
coedge $-1 -1 $-1 $113 $114 $115 $116 forward $48 $-1 #
face $-1 -1 $-1 $117 $118 $27 $-1 $119 reversed single #
loop $-1 -1 $-1 $-1 $120 $50 #
cone-surface $-1 -1 $-1 3.2639030835066514 -0.21780882455091888 -1.25 0 0 -1 0 -0.79999999999999938 0 1 I I 0 -1 0.79999999999999938 forward I I I I #
coedge $-1 -1 $-1 $121 $122 $123 $124 reversed $51 $-1 #
face $-1 -1 $-1 $125 $126 $29 $-1 $127 forward single #
loop $-1 -1 $-1 $-1 $128 $53 #
cone-surface $-1 -1 $-1 -1.4199282677244024e-016 0.51780882455091826 -0.59999999999999964 0 0 -1 0.52768657322148604 0.60128768525703657 0 1 I I 0 1 0.79999999999999993 forward I I I I #
coedge $-1 -1 $-1 $129 $130 $131 $132 forward $54 $-1 #
model_id-kcp-attrib $-1 -1 $-1 $-1 $57 1 1021571112 1021571112 -766902271 5 #
face $133 -1 $-1 $134 $135 $9 $-1 $136 forward single #
loop $-1 -1 $-1 $-1 $137 $57 #
plane-surface $-1 -1 $-1 4 -0.29999999999999999 -1.25 1 0 0 0 1 0 forward_v I I I I #
coedge $-1 -1 $-1 $138 $93 $139 $140 forward $58 $-1 #
coedge $-1 -1 $-1 $95 $60 $141 $142 reversed $40 $-1 #
coedge $-1 -1 $-1 $93 $138 $60 $89 reversed $58 $-1 #
edge $143 -1 $-1 $98 0 $144 2.5 $88 $145 forward @7 unknown #
coedge $-1 -1 $-1 $62 $61 $146 $147 reversed $32 $-1 #
coedge $-1 -1 $-1 $148 $149 $61 $92 forward $135 $-1 #
edge $150 -1 $-1 $151 0 $97 8 $61 $152 forward @7 unknown #
coedge $-1 -1 $-1 $86 $88 $62 $94 forward $58 $-1 #
edge $153 -1 $-1 $98 0 $154 8 $62 $155 forward @7 unknown #
coedge $-1 -1 $-1 $63 $87 $148 $156 reversed $40 $-1 #
attrib_edge_convexity-kcp-attrib $-1 -1 $157 $-1 $64 1 #
vertex $-1 -1 $-1 $92 $158 #
vertex $-1 -1 $-1 $94 $159 #
straight-curve $-1 -1 $-1 -4 0 -1.25 0 -1 0 I I #
model_id-kcp-attrib $-1 -1 $-1 $-1 $66 1 1021571112 1021571112 -766902270 4 #
face $160 -1 $-1 $161 $162 $23 $-1 $163 reversed single #
loop $-1 -1 $-1 $-1 $164 $66 #
plane-surface $-1 -1 $-1 0 -1.3178088245509181 0 0 1 0 0 0 1 forward_v I I I I #
coedge $-1 -1 $-1 $165 $166 $167 $168 forward $67 $-1 #
coedge $-1 -1 $-1 $169 $69 $170 $171 forward $45 $-1 #
coedge $-1 -1 $-1 $69 $169 $172 $173 forward $45 $-1 #
coedge $-1 -1 $-1 $174 $175 $69 $108 reversed $176 $-1 #
edge $-1 -1 $-1 $177 -1.3178088245509181 $178 1.3178088245509181 $107 $179 forward @7 unknown #
face $-1 -1 $-1 $180 $181 $25 $-1 $182 forward single #
loop $-1 -1 $-1 $-1 $183 $70 #
plane-surface $-1 -1 $-1 0.52768657322148593 1.1190965098079548 0.59999999999999964 0.65960821652685753 0.75160960657129605 0 0 0 -1 forward_v I I I I #
coedge $-1 -1 $-1 $184 $185 $186 $187 reversed $71 $-1 #
coedge $-1 -1 $-1 $188 $73 $189 $190 forward $48 $-1 #
coedge $-1 -1 $-1 $73 $191 $192 $193 forward $48 $-1 #
coedge $-1 -1 $-1 $194 $195 $73 $116 reversed $196 $-1 #
edge $-1 -1 $-1 $197 -4.8958546252599771 $198 1.6319515417533257 $115 $199 forward @7 unknown #
face $-1 -1 $-1 $200 $201 $27 $-1 $202 reversed single #
loop $-1 -1 $-1 $-1 $203 $74 #
plane-surface $-1 -1 $-1 -3.2639030835066514 -1.0178088245509185 -1.25 3.3935773258047251e-016 1 0 0 0 -1 forward_v I I I I #
coedge $-1 -1 $-1 $204 $205 $206 $207 reversed $75 $-1 #
coedge $-1 -1 $-1 $208 $77 $209 $210 reversed $51 $-1 #
coedge $-1 -1 $-1 $77 $208 $204 $211 reversed $51 $-1 #
coedge $-1 -1 $-1 $206 $212 $77 $124 forward $213 $-1 #
edge $-1 -1 $-1 $214 -2 $215 -1.2639030835066514 $123 $216 forward @7 unknown #
face $-1 -1 $-1 $217 $218 $29 $-1 $219 forward single #
loop $-1 -1 $-1 $-1 $220 $78 #
plane-surface $-1 -1 $-1 -0.52768657322148549 1.1190965098079551 -0.59999999999999964 -0.65960821652685742 0.75160960657129605 0 0 0 1 forward_v I I I I #
coedge $-1 -1 $-1 $221 $222 $223 $224 reversed $79 $-1 #
coedge $-1 -1 $-1 $225 $81 $226 $227 forward $54 $-1 #
coedge $-1 -1 $-1 $81 $228 $229 $230 forward $54 $-1 #
coedge $-1 -1 $-1 $231 $232 $81 $132 reversed $233 $-1 #
edge $-1 -1 $-1 $234 -4.8958546252599771 $235 1.6319515417533257 $131 $236 forward @7 unknown #
model_id-kcp-attrib $-1 -1 $-1 $-1 $83 1 1021571112 1021571112 -766902271 6 #
face $237 -1 $-1 $238 $239 $9 $-1 $240 forward single #
loop $-1 -1 $-1 $241 $148 $83 #
plane-surface $-1 -1 $-1 4 0 -1.25 0 1 0 -1 0 0 forward_v I I I I #
coedge $-1 -1 $-1 $242 $146 $149 $243 forward $84 $-1 #
coedge $-1 -1 $-1 $88 $86 $244 $245 reversed $58 $-1 #
coedge $-1 -1 $-1 $146 $242 $86 $140 reversed $84 $-1 #
edge $246 -1 $-1 $154 0 $247 2.5 $86 $248 forward @7 unknown #
coedge $-1 -1 $-1 $244 $249 $87 $142 forward $239 $-1 #
edge $250 -1 $-1 $251 0 $144 0.29999999999999999 $141 $252 forward @7 unknown #
attrib_edge_convexity-kcp-attrib $-1 -1 $253 $-1 $89 1 #
vertex $-1 -1 $-1 $245 $254 #
straight-curve $-1 -1 $-1 -4 -0.29999999999999999 -1.25 0 0 1 I I #
coedge $-1 -1 $-1 $137 $139 $90 $147 forward $84 $-1 #
edge $255 -1 $-1 $154 0 $151 0.29999999999999999 $90 $256 forward @7 unknown #
coedge $-1 -1 $-1 $257 $91 $95 $156 forward $135 $-1 #
coedge $-1 -1 $-1 $91 $257 $137 $243 reversed $135 $-1 #
attrib_edge_convexity-kcp-attrib $-1 -1 $258 $-1 $92 1 #
vertex $-1 -1 $-1 $147 $259 #
straight-curve $-1 -1 $-1 4 0 -1.25 -1 0 0 I I #
attrib_edge_convexity-kcp-attrib $-1 -1 $260 $-1 $94 1 #
vertex $-1 -1 $-1 $94 $261 #
straight-curve $-1 -1 $-1 -4 -0.29999999999999999 -1.25 1 0 0 I I #
edge $262 -1 $-1 $97 0 $251 2.5 $148 $263 forward @7 unknown #
convexity-sys-attrib $-1 -1 $-1 $96 $64 #
point $-1 -1 $-1 -4 0 -1.25 #
point $-1 -1 $-1 -4 -0.29999999999999999 -1.25 #
model_id-kcp-attrib $-1 -1 $-1 $-1 $101 1 1021571112 1021571112 -766902270 3 #
face $-1 -1 $-1 $264 $265 $23 $-1 $266 reversed single #
loop $-1 -1 $-1 $-1 $267 $101 #
plane-surface $-1 -1 $-1 -4 0 0 1 0 0 0 0 -1 forward_v I I I I #
coedge $-1 -1 $-1 $268 $172 $269 $270 forward $102 $-1 #
coedge $-1 -1 $-1 $271 $104 $268 $272 forward $67 $-1 #
coedge $-1 -1 $-1 $104 $271 $273 $274 forward $67 $-1 #
coedge $-1 -1 $-1 $175 $174 $104 $168 reversed $176 $-1 #
edge $-1 -1 $-1 $275 -1.3178088245509181 $276 1.3178088245509181 $167 $277 forward @7 unknown #
coedge $-1 -1 $-1 $106 $105 $278 $279 forward $45 $-1 #
coedge $-1 -1 $-1 $280 $281 $105 $171 reversed $265 $-1 #
edge $-1 -1 $-1 $178 -4 $282 4 $170 $283 forward @7 unknown #
coedge $-1 -1 $-1 $164 $284 $106 $173 reversed $102 $-1 #
edge $-1 -1 $-1 $285 -4 $177 4 $172 $286 forward @7 unknown #
coedge $-1 -1 $-1 $167 $107 $284 $287 forward $176 $-1 #
coedge $-1 -1 $-1 $107 $167 $280 $288 reversed $176 $-1 #
loop $-1 -1 $-1 $-1 $174 $264 #
vertex $-1 -1 $-1 $108 $289 #
vertex $-1 -1 $-1 $108 $290 #
straight-curve $-1 -1 $-1 4 0 1.25 0 1 0 I I #
face $-1 -1 $-1 $291 $292 $25 $-1 $293 forward single #
loop $-1 -1 $-1 $-1 $189 $109 #
cone-surface $-1 -1 $-1 3.2639030835066514 -0.21780882455091888 0.59999999999999964 0 0 1 0 -0.79999999999999938 0 1 I I 0 -1 0.79999999999999938 forward I I I I #
coedge $-1 -1 $-1 $294 $295 $188 $296 reversed $110 $-1 #
coedge $-1 -1 $-1 $297 $112 $295 $298 reversed $71 $-1 #
coedge $-1 -1 $-1 $112 $297 $299 $300 forward $71 $-1 #
coedge $-1 -1 $-1 $191 $188 $112 $187 forward $48 $-1 #
edge $-1 -1 $-1 $301 0 $302 1.4405947645961208 $112 $303 forward @7 unknown #
coedge $-1 -1 $-1 $186 $113 $183 $296 forward $48 $-1 #
coedge $-1 -1 $-1 $304 $305 $113 $190 reversed $181 $-1 #
edge $-1 -1 $-1 $198 0 $306 0.72029738229806128 $189 $307 forward @7 unknown #
coedge $-1 -1 $-1 $114 $186 $308 $309 forward $48 $-1 #
coedge $-1 -1 $-1 $310 $311 $114 $193 reversed $292 $-1 #
edge $-1 -1 $-1 $312 9.5409791178724607e-016 $197 0.72029738229806162 $192 $313 forward @7 unknown #
coedge $-1 -1 $-1 $314 $115 $311 $315 reversed $196 $-1 #
coedge $-1 -1 $-1 $115 $314 $304 $316 forward $196 $-1 #
loop $-1 -1 $-1 $-1 $115 $317 #
vertex $-1 -1 $-1 $116 $318 #
vertex $-1 -1 $-1 $116 $319 #
straight-curve $-1 -1 $-1 1.6319515417533257 -1.0178088245509183 1.25 1 0 0 I I #
face $-1 -1 $-1 $320 $321 $27 $-1 $322 reversed single #
loop $-1 -1 $-1 $-1 $323 $117 #
plane-surface $-1 -1 $-1 2.7362165102851654 -0.8190965098079549 -1.25 0.65960821652685742 0.75160960657129594 0 0 0 1 forward_v I I I I #
coedge $-1 -1 $-1 $324 $325 $326 $327 reversed $118 $-1 #
coedge $-1 -1 $-1 $328 $120 $122 $211 forward $75 $-1 #
coedge $-1 -1 $-1 $120 $328 $329 $330 reversed $75 $-1 #
coedge $-1 -1 $-1 $331 $123 $120 $207 forward $213 $-1 #
edge $-1 -1 $-1 $215 0 $332 0.72029738229806128 $206 $333 forward @7 unknown #
coedge $-1 -1 $-1 $122 $121 $334 $335 reversed $51 $-1 #
coedge $-1 -1 $-1 $336 $337 $121 $210 forward $338 $-1 #
edge $-1 -1 $-1 $339 -1.875 $214 0.625 $209 $340 forward @7 unknown #
edge $-1 -1 $-1 $215 0 $341 2.5 $122 $342 forward @7 unknown #
coedge $-1 -1 $-1 $123 $343 $336 $344 forward $213 $-1 #
loop $-1 -1 $-1 $-1 $123 $345 #
vertex $-1 -1 $-1 $124 $346 #
vertex $-1 -1 $-1 $207 $347 #
straight-curve $-1 -1 $-1 2 -1.0178088245509183 -1.25 -1 3.7706414731163616e-017 0 I I #
face $-1 -1 $-1 $348 $349 $29 $-1 $350 forward single #
loop $-1 -1 $-1 $-1 $226 $125 #
cone-surface $-1 -1 $-1 -3.2639030835066514 -0.21780882455091943 -0.59999999999999964 0 0 -1 0.52768657322148593 -0.60128768525703558 0 1 I I 0 -1 0.79999999999999916 forward I I I I #
coedge $-1 -1 $-1 $351 $352 $225 $353 reversed $126 $-1 #
coedge $-1 -1 $-1 $354 $128 $352 $355 reversed $79 $-1 #
coedge $-1 -1 $-1 $128 $354 $356 $357 forward $79 $-1 #
coedge $-1 -1 $-1 $228 $225 $128 $224 forward $54 $-1 #
edge $-1 -1 $-1 $358 -1.4405947645961208 $359 0 $128 $360 forward @7 unknown #
coedge $-1 -1 $-1 $223 $129 $220 $353 forward $54 $-1 #
coedge $-1 -1 $-1 $361 $362 $129 $227 reversed $218 $-1 #
edge $-1 -1 $-1 $235 -0.72029738229806162 $363 -9.5409791178724607e-016 $226 $364 forward @7 unknown #
coedge $-1 -1 $-1 $130 $223 $365 $366 forward $54 $-1 #
coedge $-1 -1 $-1 $367 $368 $130 $230 reversed $349 $-1 #
edge $-1 -1 $-1 $369 -0.72029738229806128 $234 0 $229 $370 forward @7 unknown #
coedge $-1 -1 $-1 $371 $131 $368 $372 reversed $233 $-1 #
coedge $-1 -1 $-1 $131 $371 $361 $373 forward $233 $-1 #
loop $-1 -1 $-1 $-1 $131 $374 #
vertex $-1 -1 $-1 $132 $375 #
vertex $-1 -1 $-1 $132 $376 #
straight-curve $-1 -1 $-1 -1.6319515417533257 -1.0178088245509185 -1.25 -1 0 0 I I #
model_id-kcp-attrib $-1 -1 $-1 $-1 $134 1 1021571112 1021571112 -766902271 7 #
face $377 -1 $-1 $378 $379 $9 $-1 $380 forward single #
loop $-1 -1 $-1 $-1 $381 $134 #
plane-surface $-1 -1 $-1 0 0 1.25 0 0 1 1 0 0 forward_v I I I I #
loop $-1 -1 $-1 $-1 $382 $83 #
coedge $-1 -1 $-1 $139 $137 $381 $383 reversed $84 $-1 #
edge $384 -1 $-1 $151 0 $385 2.5 $137 $386 forward @7 unknown #
coedge $-1 -1 $-1 $381 $141 $138 $245 forward $239 $-1 #
edge $387 -1 $-1 $144 0 $247 8 $244 $388 forward @7 unknown #
attrib_edge_convexity-kcp-attrib $-1 -1 $389 $-1 $140 1 #
vertex $-1 -1 $-1 $245 $390 #
straight-curve $-1 -1 $-1 4 -0.29999999999999999 -1.25 0 0 1 I I #
coedge $-1 -1 $-1 $141 $381 $257 $391 forward $239 $-1 #
model_id-kcp-attrib $-1 -1 $392 $-1 $142 1 1021571112 1021571112 -766902271 18 #
vertex $-1 -1 $-1 $142 $393 #
straight-curve $-1 -1 $-1 -4 0 1.25 0 -1 0 I I #
convexity-sys-attrib $-1 -1 $-1 $143 $89 #
point $-1 -1 $-1 -4 -0.29999999999999999 1.25 #
attrib_edge_convexity-kcp-attrib $-1 -1 $394 $-1 $147 1 #
straight-curve $-1 -1 $-1 4 -0.29999999999999999 -1.25 0 1 0 I I #
coedge $-1 -1 $-1 $149 $148 $249 $391 reversed $135 $-1 #
convexity-sys-attrib $-1 -1 $-1 $150 $92 #
point $-1 -1 $-1 4 0 -1.25 #
convexity-sys-attrib $-1 -1 $-1 $153 $94 #
point $-1 -1 $-1 4 -0.29999999999999999 -1.25 #
attrib_edge_convexity-kcp-attrib $-1 -1 $395 $-1 $156 1 #
straight-curve $-1 -1 $-1 -4 0 -1.25 0 0 1 I I #
face $396 -1 $-1 $-1 $176 $23 $-1 $397 reversed single #
loop $-1 -1 $-1 $-1 $280 $161 #
plane-surface $-1 -1 $-1 0 1.3178088245509181 0 0 -1 0 0 0 -1 forward_v I I I I #
coedge $-1 -1 $-1 $398 $278 $281 $399 forward $162 $-1 #
coedge $-1 -1 $-1 $284 $164 $165 $272 reversed $102 $-1 #
coedge $-1 -1 $-1 $278 $398 $164 $270 reversed $162 $-1 #
edge $-1 -1 $-1 $285 -1.25 $400 1.25 $269 $401 forward @7 unknown #
coedge $-1 -1 $-1 $166 $165 $398 $402 forward $67 $-1 #
edge $-1 -1 $-1 $276 -4 $400 4 $268 $403 forward @7 unknown #
coedge $-1 -1 $-1 $281 $280 $166 $274 reversed $265 $-1 #
edge $-1 -1 $-1 $404 -4 $275 4 $273 $405 forward @7 unknown #
vertex $-1 -1 $-1 $168 $406 #
vertex $-1 -1 $-1 $287 $407 #
straight-curve $-1 -1 $-1 4 0 -1.25 0 -1 0 I I #
coedge $-1 -1 $-1 $267 $269 $169 $279 reversed $162 $-1 #
edge $-1 -1 $-1 $282 -1.3178088245509181 $285 1.3178088245509181 $278 $408 forward @7 unknown #
coedge $-1 -1 $-1 $273 $170 $175 $288 forward $265 $-1 #
coedge $-1 -1 $-1 $170 $273 $267 $399 reversed $265 $-1 #
vertex $-1 -1 $-1 $171 $409 #
straight-curve $-1 -1 $-1 0 1.3178088245509181 1.25 -1 0 0 I I #
coedge $-1 -1 $-1 $172 $268 $174 $287 reversed $102 $-1 #
vertex $-1 -1 $-1 $279 $410 #
straight-curve $-1 -1 $-1 0 -1.3178088245509181 1.25 1 0 0 I I #
edge $-1 -1 $-1 $177 -1.25 $276 1.25 $174 $411 forward @7 unknown #
edge $-1 -1 $-1 $178 -1.25 $275 1.25 $175 $412 forward @7 unknown #
point $-1 -1 $-1 4 -1.3178088245509181 1.25 #
point $-1 -1 $-1 4 1.3178088245509181 1.25 #
face $-1 -1 $-1 $317 $413 $25 $-1 $414 forward single #
loop $-1 -1 $-1 $-1 $192 $180 #
cone-surface $-1 -1 $-1 -3.2639030835066514 -0.21780882455091943 0.59999999999999964 0 0 1 0.52768657322148593 -0.60128768525703558 0 1 I I 0 -1 0.79999999999999916 forward I I I I #
coedge $-1 -1 $-1 $415 $183 $305 $416 reversed $110 $-1 #
coedge $-1 -1 $-1 $183 $415 $184 $298 forward $110 $-1 #
edge $-1 -1 $-1 $306 -2.7676248804190662 $301 0.17077547763194978 $183 $417 forward @7 unknown #
coedge $-1 -1 $-1 $185 $184 $418 $419 reversed $71 $-1 #
edge $-1 -1 $-1 $420 0 $301 0.65000000000000036 $295 $421 forward @7 unknown #
coedge $-1 -1 $-1 $422 $308 $185 $300 reversed $413 $-1 #
edge $-1 -1 $-1 $423 0 $302 0.65000000000000036 $185 $424 forward @7 unknown #
vertex $-1 -1 $-1 $296 $425 #
vertex $-1 -1 $-1 $309 $426 #
ellipse-curve $-1 -1 $-1 -1.4199282677244024e-016 0.51780882455091826 1.25 0 0 1 0.52768657322148604 0.60128768525703657 0 1 I I #
coedge $-1 -1 $-1 $427 $189 $195 $316 reversed $181 $-1 #
coedge $-1 -1 $-1 $189 $427 $294 $416 forward $181 $-1 #
vertex $-1 -1 $-1 $190 $428 #
ellipse-curve $-1 -1 $-1 3.2639030835066514 -0.21780882455091888 1.25 0 0 -1 0 -0.79999999999999938 0 1 I I #
coedge $-1 -1 $-1 $299 $429 $191 $309 reversed $413 $-1 #
edge $-1 -1 $-1 $302 -1.6399756566574588 $312 1.2984247013935586 $308 $430 forward @7 unknown #
coedge $-1 -1 $-1 $431 $192 $429 $432 reversed $292 $-1 #
coedge $-1 -1 $-1 $192 $431 $194 $315 forward $292 $-1 #
vertex $-1 -1 $-1 $193 $433 #
ellipse-curve $-1 -1 $-1 -3.2639030835066514 -0.21780882455091943 1.25 0 0 -1 0.52768657322148593 -0.60128768525703558 0 1 I I #
coedge $-1 -1 $-1 $195 $194 $434 $435 reversed $196 $-1 #
edge $-1 -1 $-1 $436 0 $197 0.65000000000000036 $311 $437 forward @7 unknown #
edge $-1 -1 $-1 $438 0 $198 0.65000000000000036 $195 $439 forward @7 unknown #
face $-1 -1 $-1 $440 $196 $25 $-1 $441 forward single #
point $-1 -1 $-1 -3.2639030835066514 -1.0178088245509185 1.25 #
point $-1 -1 $-1 3.2639030835066514 -1.0178088245509183 1.25 #
face $-1 -1 $-1 $442 $443 $27 $-1 $322 reversed single #
loop $-1 -1 $-1 $-1 $444 $200 #
cone-surface $-1 -1 $-1 -1.4199282677244024e-016 0.51780882455091826 -1.25 0 0 -1 0.52768657322148604 0.60128768525703657 0 1 I I 0 1 0.79999999999999993 forward I I I I #
coedge $-1 -1 $-1 $329 $445 $331 $446 reversed $201 $-1 #
coedge $-1 -1 $-1 $447 $203 $448 $449 forward $118 $-1 #
coedge $-1 -1 $-1 $203 $447 $450 $451 reversed $118 $-1 #
coedge $-1 -1 $-1 $452 $453 $203 $327 forward $454 $-1 #
edge $-1 -1 $-1 $455 1.6319515417533255 $456 2.3680484582466743 $326 $457 forward @7 unknown #
coedge $-1 -1 $-1 $205 $204 $458 $459 reversed $75 $-1 #
coedge $-1 -1 $-1 $460 $323 $205 $330 forward $201 $-1 #
edge $-1 -1 $-1 $332 0 $461 2.5 $205 $462 forward @7 unknown #
coedge $-1 -1 $-1 $463 $206 $323 $446 forward $213 $-1 #
vertex $-1 -1 $-1 $207 $464 #
ellipse-curve $-1 -1 $-1 3.2639030835066514 -0.21780882455091888 -1.25 0 0 -1 0 -0.79999999999999938 0 1 I I #
coedge $-1 -1 $-1 $465 $458 $208 $335 forward $466 $-1 #
edge $-1 -1 $-1 $341 1.2639030835066514 $339 2 $334 $467 forward @7 unknown #
coedge $-1 -1 $-1 $468 $209 $212 $344 reversed $338 $-1 #
coedge $-1 -1 $-1 $209 $468 $465 $469 reversed $338 $-1 #
loop $-1 -1 $-1 $-1 $209 $470 #
vertex $-1 -1 $-1 $469 $471 #
straight-curve $-1 -1 $-1 4 -1.0178088245509183 -0.625 0 0 -1 I I #
vertex $-1 -1 $-1 $459 $472 #
straight-curve $-1 -1 $-1 3.2639030835066514 -1.0178088245509183 -1.25 0 0 1 I I #
coedge $-1 -1 $-1 $212 $463 $473 $474 forward $213 $-1 #
edge $-1 -1 $-1 $475 -1.3178088245509181 $214 1.0178088245509183 $336 $476 forward @7 unknown #
face $-1 -1 $-1 $477 $213 $27 $-1 $478 reversed single #
point $-1 -1 $-1 4 -1.0178088245509183 -1.25 #
point $-1 -1 $-1 3.2639030835066514 -1.0178088245509183 -1.25 #
face $-1 -1 $-1 $374 $479 $29 $-1 $480 forward single #
loop $-1 -1 $-1 $-1 $229 $217 #
cone-surface $-1 -1 $-1 3.2639030835066514 -0.21780882455091888 -0.59999999999999964 0 0 -1 0 -0.79999999999999938 0 1 I I 0 -1 0.79999999999999938 forward I I I I #
coedge $-1 -1 $-1 $481 $220 $362 $482 reversed $126 $-1 #
coedge $-1 -1 $-1 $220 $481 $221 $355 forward $126 $-1 #
edge $-1 -1 $-1 $363 -2.7676248804190671 $358 0.17077547763195011 $220 $483 forward @7 unknown #
coedge $-1 -1 $-1 $222 $221 $484 $485 reversed $79 $-1 #
edge $-1 -1 $-1 $486 0 $358 0.65000000000000036 $352 $487 forward @7 unknown #
coedge $-1 -1 $-1 $488 $365 $222 $357 reversed $479 $-1 #
edge $-1 -1 $-1 $489 0 $359 0.65000000000000036 $222 $490 forward @7 unknown #
vertex $-1 -1 $-1 $353 $491 #
vertex $-1 -1 $-1 $366 $492 #
ellipse-curve $-1 -1 $-1 -1.4199282677244024e-016 0.51780882455091826 -1.25 0 0 -1 0.52768657322148604 0.60128768525703657 0 1 I I #
coedge $-1 -1 $-1 $493 $226 $232 $373 reversed $218 $-1 #
coedge $-1 -1 $-1 $226 $493 $351 $482 forward $218 $-1 #
vertex $-1 -1 $-1 $227 $494 #
ellipse-curve $-1 -1 $-1 -3.2639030835066514 -0.21780882455091943 -1.25 0 0 1 0.52768657322148593 -0.60128768525703558 0 1 I I #
coedge $-1 -1 $-1 $356 $495 $228 $366 reversed $479 $-1 #
edge $-1 -1 $-1 $359 -1.6399756566574581 $369 1.2984247013935581 $365 $496 forward @7 unknown #
coedge $-1 -1 $-1 $497 $229 $495 $498 reversed $349 $-1 #
coedge $-1 -1 $-1 $229 $497 $231 $372 forward $349 $-1 #
vertex $-1 -1 $-1 $230 $499 #
ellipse-curve $-1 -1 $-1 3.2639030835066514 -0.21780882455091888 -1.25 0 0 1 0 -0.79999999999999938 0 1 I I #
coedge $-1 -1 $-1 $232 $231 $500 $501 reversed $233 $-1 #
edge $-1 -1 $-1 $502 0 $234 0.65000000000000036 $368 $503 forward @7 unknown #
edge $-1 -1 $-1 $504 0 $235 0.65000000000000036 $232 $505 forward @7 unknown #
face $-1 -1 $-1 $506 $233 $29 $-1 $507 forward single #
point $-1 -1 $-1 3.2639030835066514 -1.0178088245509183 -1.25 #
point $-1 -1 $-1 -3.2639030835066514 -1.0178088245509185 -1.25 #
model_id-kcp-attrib $-1 -1 $-1 $-1 $238 1 1021571112 1021571112 -766902271 8 #
face $508 -1 $-1 $509 $510 $9 $-1 $511 forward single #
loop $-1 -1 $-1 $-1 $512 $238 #
plane-surface $-1 -1 $-1 0 0 0.59999999999999998 0 0 1 1 0 0 forward_v I I I I #
coedge $-1 -1 $-1 $249 $244 $242 $383 forward $239 $-1 #
coedge $-1 -1 $-1 $513 $514 $515 $516 forward $241 $-1 #
edge $517 -1 $-1 $247 0 $385 0.29999999999999999 $381 $518 forward @7 unknown #
attrib_edge_convexity-kcp-attrib $-1 -1 $519 $-1 $243 1 #
vertex $-1 -1 $-1 $391 $520 #
straight-curve $-1 -1 $-1 4 0 -1.25 0 0 1 I I #
model_id-kcp-attrib $-1 -1 $521 $-1 $245 1 1021571112 1021571112 -766902271 17 #
straight-curve $-1 -1 $-1 -4 -0.29999999999999999 1.25 1 0 0 I I #
convexity-sys-attrib $-1 -1 $-1 $246 $140 #
point $-1 -1 $-1 4 -0.29999999999999999 1.25 #
edge $522 -1 $-1 $385 0 $251 8 $249 $523 forward @7 unknown #
attrib_edge_convexity-kcp-attrib $-1 -1 $524 $250 $142 1 #
point $-1 -1 $-1 -4 0 1.25 #
convexity-sys-attrib $-1 -1 $-1 $255 $147 #
convexity-sys-attrib $-1 -1 $-1 $262 $156 #
model_id-kcp-attrib $-1 -1 $-1 $-1 $264 1 1021571112 1021571112 -766902270 5 #
plane-surface $-1 -1 $-1 4 0 0 -1 0 0 0 0 1 forward_v I I I I #
coedge $-1 -1 $-1 $269 $267 $271 $402 reversed $162 $-1 #
edge $-1 -1 $-1 $282 -1.25 $404 1.25 $281 $525 forward @7 unknown #
vertex $-1 -1 $-1 $402 $526 #
straight-curve $-1 -1 $-1 -4 -1.3178088245509181 0 0 0 -1 I I #
edge $-1 -1 $-1 $400 -1.3178088245509181 $404 1.3178088245509181 $398 $527 forward @7 unknown #
straight-curve $-1 -1 $-1 0 -1.3178088245509181 -1.25 -1 0 0 I I #
vertex $-1 -1 $-1 $274 $528 #
straight-curve $-1 -1 $-1 0 1.3178088245509181 -1.25 1 0 0 I I #
point $-1 -1 $-1 4 1.3178088245509181 -1.25 #
point $-1 -1 $-1 4 -1.3178088245509181 -1.25 #
straight-curve $-1 -1 $-1 -4 0 1.25 0 -1 0 I I #
point $-1 -1 $-1 -4 1.3178088245509181 1.25 #
point $-1 -1 $-1 -4 -1.3178088245509181 1.25 #
straight-curve $-1 -1 $-1 4 -1.3178088245509181 0 0 0 -1 I I #
straight-curve $-1 -1 $-1 4 1.3178088245509181 0 0 0 -1 I I #
loop $-1 -1 $-1 $-1 $308 $291 #
plane-surface $-1 -1 $-1 -2.7362165102851659 -0.81909650980795556 0.59999999999999964 -0.65960821652685742 0.75160960657129605 0 0 0 1 forward_v I I I I #
coedge $-1 -1 $-1 $295 $294 $529 $530 reversed $110 $-1 #
edge $-1 -1 $-1 $531 0 $306 0.65000000000000036 $305 $532 forward @7 unknown #
straight-curve $-1 -1 $-1 0.65604306277646085 1.0064516015806222 1.25 -0.75160960657129605 0.65960821652685753 0 I I #
coedge $-1 -1 $-1 $529 $533 $297 $419 forward $534 $-1 #
edge $535 -1 $-1 $423 -1.4405947645961208 $420 0 $297 $536 forward @7 unknown #
vertex $-1 -1 $-1 $419 $537 #
straight-curve $-1 -1 $-1 0.52768657322148593 1.1190965098079548 0.59999999999999964 0 0 1 I I #
coedge $-1 -1 $-1 $429 $299 $533 $538 reversed $413 $-1 #
vertex $-1 -1 $-1 $538 $539 #
straight-curve $-1 -1 $-1 -0.52768657322148549 1.1190965098079553 0.59999999999999964 0 0 1 I I #
point $-1 -1 $-1 0.52768657322148593 1.1190965098079548 1.25 #
point $-1 -1 $-1 -0.52768657322148549 1.1190965098079553 1.25 #
coedge $-1 -1 $-1 $305 $304 $540 $541 reversed $181 $-1 #
point $-1 -1 $-1 2.7362165102851654 -0.8190965098079549 1.25 #
coedge $-1 -1 $-1 $308 $422 $310 $432 forward $413 $-1 #
straight-curve $-1 -1 $-1 -1.7603080313083008 0.037355091772666993 1.25 -0.75160960657129605 -0.65960821652685742 0 I I #
coedge $-1 -1 $-1 $311 $310 $542 $543 reversed $292 $-1 #
edge $-1 -1 $-1 $544 0 $312 0.65000000000000036 $429 $545 forward @7 unknown #
point $-1 -1 $-1 -2.7362165102851659 -0.81909650980795556 1.25 #
coedge $-1 -1 $-1 $542 $540 $314 $435 forward $534 $-1 #
edge $546 -1 $-1 $438 -1.2639030835066514 $436 5.2639030835066514 $314 $547 forward @7 unknown #
vertex $-1 -1 $-1 $435 $548 #
straight-curve $-1 -1 $-1 -3.2639030835066514 -1.0178088245509185 0.59999999999999964 0 0 1 I I #
vertex $-1 -1 $-1 $435 $549 #
straight-curve $-1 -1 $-1 3.2639030835066514 -1.0178088245509183 0.59999999999999964 0 0 1 I I #
face $-1 -1 $-1 $-1 $534 $25 $-1 $550 reversed single #
plane-surface $-1 -1 $-1 3.2639030835066514 -1.0178088245509183 0.59999999999999964 0 -1 0 0 0 -1 forward_v I I I I #
face $-1 -1 $-1 $551 $552 $27 $-1 $553 reversed single #
loop $-1 -1 $-1 $-1 $554 $320 #
coedge $-1 -1 $-1 $555 $556 $557 $558 reversed $321 $-1 #
coedge $-1 -1 $-1 $323 $460 $559 $560 reversed $201 $-1 #
edge $-1 -1 $-1 $332 -1.2984247013935581 $561 1.6399756566574579 $331 $562 forward @7 unknown #
coedge $-1 -1 $-1 $325 $324 $563 $564 reversed $118 $-1 #
coedge $-1 -1 $-1 $565 $566 $324 $449 reversed $567 $-1 #
edge $-1 -1 $-1 $455 0 $568 2.5 $448 $569 forward @7 unknown #
coedge $-1 -1 $-1 $570 $571 $325 $451 forward $572 $-1 #
edge $-1 -1 $-1 $456 -0.625 $573 1.875 $450 $574 forward @7 unknown #
coedge $-1 -1 $-1 $575 $326 $571 $576 forward $454 $-1 #
coedge $-1 -1 $-1 $326 $577 $565 $578 forward $454 $-1 #
loop $-1 -1 $-1 $-1 $326 $579 #
vertex $-1 -1 $-1 $578 $580 #
vertex $-1 -1 $-1 $576 $581 #
straight-curve $-1 -1 $-1 -1.6319515417533259 -1.0178088245509191 -1.25 -1 3.3935773258047251e-016 0 I I #
coedge $-1 -1 $-1 $334 $582 $328 $459 forward $466 $-1 #
edge $-1 -1 $-1 $461 -0.72029738229806128 $341 0 $458 $583 forward @7 unknown #
coedge $-1 -1 $-1 $445 $329 $582 $584 reversed $201 $-1 #
vertex $-1 -1 $-1 $459 $585 #
straight-curve $-1 -1 $-1 2.7362165102851654 -0.8190965098079549 -1.25 0 0 1 I I #
coedge $-1 -1 $-1 $343 $331 $554 $586 forward $213 $-1 #
point $-1 -1 $-1 2.7362165102851654 -0.8190965098079549 -1.25 #
coedge $-1 -1 $-1 $587 $334 $337 $469 forward $466 $-1 #
loop $-1 -1 $-1 $-1 $334 $588 #
straight-curve $-1 -1 $-1 2 -1.0178088245509183 1.25 1 -3.7706414731163616e-017 0 I I #
coedge $-1 -1 $-1 $337 $336 $589 $590 reversed $338 $-1 #
edge $-1 -1 $-1 $339 -1.0178088245509183 $591 1.3178088245509181 $337 $592 forward @7 unknown #
face $-1 -1 $-1 $-1 $338 $27 $-1 $593 reversed single #
point $-1 -1 $-1 4 -1.0178088245509183 1.25 #
point $-1 -1 $-1 3.2639030835066514 -1.0178088245509183 1.25 #
coedge $-1 -1 $-1 $594 $589 $343 $474 reversed $595 $-1 #
edge $-1 -1 $-1 $596 -1.4199282677244024e-016 $475 4 $473 $597 forward @7 unknown #
vertex $-1 -1 $-1 $344 $598 #
straight-curve $-1 -1 $-1 4 0 -1.25 0 -1 0 I I #
face $-1 -1 $-1 $599 $600 $27 $-1 $601 forward single #
plane-surface $-1 -1 $-1 0 0 -1.25 0 0 1 1 0 0 forward_v I I I I #
loop $-1 -1 $-1 $-1 $365 $348 #
plane-surface $-1 -1 $-1 2.7362165102851659 -0.8190965098079549 -0.59999999999999964 0.65960821652685753 0.75160960657129605 0 0 0 -1 forward_v I I I I #
coedge $-1 -1 $-1 $352 $351 $602 $603 reversed $126 $-1 #
edge $-1 -1 $-1 $604 0 $363 0.65000000000000036 $362 $605 forward @7 unknown #
straight-curve $-1 -1 $-1 -0.65604306277646063 1.0064516015806224 -1.25 0.75160960657129605 0.65960821652685742 0 I I #
coedge $-1 -1 $-1 $602 $606 $354 $485 forward $607 $-1 #
edge $608 -1 $-1 $489 0 $486 1.4405947645961208 $354 $609 forward @7 unknown #
vertex $-1 -1 $-1 $485 $610 #
straight-curve $-1 -1 $-1 -0.52768657322148549 1.1190965098079551 -0.59999999999999964 0 0 -1 I I #
coedge $-1 -1 $-1 $495 $356 $606 $611 reversed $479 $-1 #
vertex $-1 -1 $-1 $611 $612 #
straight-curve $-1 -1 $-1 0.52768657322148593 1.1190965098079551 -0.59999999999999964 0 0 -1 I I #
point $-1 -1 $-1 -0.52768657322148549 1.1190965098079553 -1.25 #
point $-1 -1 $-1 0.52768657322148593 1.1190965098079548 -1.25 #
coedge $-1 -1 $-1 $362 $361 $613 $614 reversed $218 $-1 #
point $-1 -1 $-1 -2.7362165102851659 -0.81909650980795556 -1.25 #
coedge $-1 -1 $-1 $365 $488 $367 $498 forward $479 $-1 #
straight-curve $-1 -1 $-1 1.760308031308301 0.037355091772667548 -1.25 0.75160960657129605 -0.65960821652685753 0 I I #
coedge $-1 -1 $-1 $368 $367 $615 $616 reversed $349 $-1 #
edge $-1 -1 $-1 $617 0 $369 0.65000000000000036 $495 $618 forward @7 unknown #
point $-1 -1 $-1 2.7362165102851654 -0.8190965098079549 -1.25 #
coedge $-1 -1 $-1 $615 $613 $371 $501 forward $607 $-1 #
edge $619 -1 $-1 $504 -5.2639030835066514 $502 1.2639030835066514 $371 $620 forward @7 unknown #
vertex $-1 -1 $-1 $501 $621 #
straight-curve $-1 -1 $-1 3.2639030835066514 -1.0178088245509183 -0.59999999999999964 0 0 -1 I I #
vertex $-1 -1 $-1 $501 $622 #
straight-curve $-1 -1 $-1 -3.2639030835066514 -1.0178088245509185 -0.59999999999999964 0 0 -1 I I #
face $-1 -1 $-1 $-1 $607 $29 $-1 $623 forward single #
plane-surface $-1 -1 $-1 -3.2639030835066514 -1.0178088245509185 -0.59999999999999964 0 -1 0 0 0 -1 forward_v I I I I #
model_id-kcp-attrib $-1 -1 $-1 $-1 $378 1 1021571112 1021571112 -766902271 9 #
face $624 -1 $-1 $625 $626 $9 $-1 $627 reversed single #
loop $-1 -1 $-1 $-1 $628 $378 #
plane-surface $-1 -1 $-1 0 2.5999999999999996 -0.59999999999999998 -0.65960821652685742 0.75160960657129605 0 -0.75160960657129605 -0.65960821652685742 0 forward_v I I I I #
coedge $-1 -1 $-1 $629 $630 $631 $632 forward $379 $-1 #
coedge $-1 -1 $-1 $633 $382 $634 $635 reversed $241 $-1 #
coedge $-1 -1 $-1 $382 $633 $636 $637 reversed $241 $-1 #
coedge $-1 -1 $-1 $638 $629 $382 $516 reversed $379 $-1 #
edge $639 -1 $-1 $640 0 $641 6.5278061670133027 $382 $642 forward @7 unknown #
model_id-kcp-attrib $-1 -1 $-1 $-1 $383 1 1021571112 1021571112 -766902271 16 #
straight-curve $-1 -1 $-1 4 -0.29999999999999999 1.25 0 1 0 I I #
convexity-sys-attrib $-1 -1 $-1 $384 $243 #
point $-1 -1 $-1 4 0 1.25 #
attrib_edge_convexity-kcp-attrib $-1 -1 $643 $387 $245 1 #
attrib_edge_convexity-kcp-attrib $-1 -1 $644 $-1 $391 1 #
straight-curve $-1 -1 $-1 4 0 1.25 -1 0 0 I I #
convexity-sys-attrib $-1 -1 $-1 $392 $142 #
straight-curve $-1 -1 $-1 -4 1.3178088245509181 0 0 0 -1 I I #
point $-1 -1 $-1 -4 -1.3178088245509181 -1.25 #
straight-curve $-1 -1 $-1 -4 0 -1.25 0 1 0 I I #
point $-1 -1 $-1 -4 1.3178088245509181 -1.25 #
coedge $-1 -1 $-1 $540 $418 $415 $530 forward $534 $-1 #
edge $645 -1 $-1 $420 -1.5905050404179435 $531 1.3478953176330726 $415 $646 forward @7 unknown #
vertex $-1 -1 $-1 $530 $647 #
straight-curve $-1 -1 $-1 2.7362165102851654 -0.8190965098079549 0.59999999999999964 0 0 1 I I #
coedge $-1 -1 $-1 $418 $542 $422 $538 forward $534 $-1 #
loop $-1 -1 $-1 $-1 $434 $440 #
convexity-sys-attrib $-1 -1 $-1 $-1 $419 #
ellipse-curve $-1 -1 $-1 -1.4199282677244024e-016 0.51780882455091826 0.59999999999999964 0 0 -1 0.52768657322148604 0.60128768525703657 0 1 I I #
point $-1 -1 $-1 0.52768657322148593 1.1190965098079548 0.59999999999999964 #
edge $648 -1 $-1 $544 -2.8170954966585815 $423 0.12130486139243582 $422 $649 forward @7 unknown #
point $-1 -1 $-1 -0.52768657322148549 1.1190965098079553 0.59999999999999964 #
coedge $-1 -1 $-1 $434 $529 $427 $541 forward $534 $-1 #
edge $650 -1 $-1 $531 -0.72029738229806128 $438 0 $427 $651 forward @7 unknown #
coedge $-1 -1 $-1 $533 $434 $431 $543 forward $534 $-1 #
edge $652 -1 $-1 $436 -0.72029738229806162 $544 -9.5409791178724607e-016 $431 $653 forward @7 unknown #
vertex $-1 -1 $-1 $543 $654 #
straight-curve $-1 -1 $-1 -2.7362165102851659 -0.81909650980795556 0.59999999999999964 0 0 1 I I #
convexity-sys-attrib $-1 -1 $-1 $-1 $435 #
straight-curve $-1 -1 $-1 2 -1.0178088245509183 0.59999999999999964 -1 0 0 I I #
point $-1 -1 $-1 -3.2639030835066514 -1.0178088245509185 0.59999999999999964 #
point $-1 -1 $-1 3.2639030835066514 -1.0178088245509183 0.59999999999999964 #
plane-surface $-1 -1 $-1 1.3877787807814457e-017 -0.36902545071260984 0.59999999999999942 1.7034804065129496e-032 1.7932034148346586e-031 1 1 0 -1.7034804065129496e-032 forward_v I I I I #
face $-1 -1 $-1 $655 $567 $27 $-1 $656 reversed single #
loop $-1 -1 $-1 $-1 $657 $442 #
plane-surface $-1 -1 $-1 -0.52768657322148549 1.1190965098079553 -1.25 -0.65960821652685742 0.75160960657129605 0 0 0 -1 forward_v I I I I #
coedge $-1 -1 $-1 $559 $658 $463 $586 reversed $443 $-1 #
coedge $-1 -1 $-1 $659 $444 $660 $661 reversed $321 $-1 #
coedge $-1 -1 $-1 $444 $659 $662 $663 reversed $321 $-1 #
coedge $-1 -1 $-1 $577 $575 $444 $558 forward $454 $-1 #
edge $-1 -1 $-1 $596 0.72029738229806095 $664 1.4405947645961208 $557 $665 forward @7 unknown #
coedge $-1 -1 $-1 $666 $554 $445 $560 forward $443 $-1 #
edge $-1 -1 $-1 $561 0 $667 2.5 $445 $668 forward @7 unknown #
vertex $-1 -1 $-1 $446 $669 #
straight-curve $-1 -1 $-1 1.7603080313083006 0.037355091772667437 -1.25 -0.75160960657129605 0.65960821652685753 0 I I #
coedge $-1 -1 $-1 $670 $671 $447 $564 forward $600 $-1 #
edge $-1 -1 $-1 $573 -2.3680484582466743 $568 -1.6319515417533255 $563 $672 forward @7 unknown #
coedge $-1 -1 $-1 $673 $448 $453 $578 reversed $567 $-1 #
coedge $-1 -1 $-1 $448 $673 $670 $674 reversed $567 $-1 #
loop $-1 -1 $-1 $-1 $565 $551 #
vertex $-1 -1 $-1 $674 $675 #
straight-curve $-1 -1 $-1 -3.2639030835066514 -1.0178088245509185 -1.25 0 0 1 I I #
coedge $-1 -1 $-1 $676 $450 $671 $677 reversed $572 $-1 #
coedge $-1 -1 $-1 $450 $676 $452 $576 reversed $572 $-1 #
loop $-1 -1 $-1 $-1 $450 $655 #
vertex $-1 -1 $-1 $564 $678 #
straight-curve $-1 -1 $-1 -4 -1.017808824550918 -0.625 0 0 1 I I #
coedge $-1 -1 $-1 $557 $452 $679 $680 forward $454 $-1 #
edge $-1 -1 $-1 $456 -1.0178088245509183 $681 1.3178088245509181 $571 $682 forward @7 unknown #
coedge $-1 -1 $-1 $453 $557 $657 $683 forward $454 $-1 #
edge $-1 -1 $-1 $684 9.5409791178724607e-016 $455 0.72029738229806162 $453 $685 forward @7 unknown #
face $-1 -1 $-1 $345 $454 $27 $-1 $478 reversed single #
point $-1 -1 $-1 -3.2639030835066514 -1.0178088245509185 -1.25 #
point $-1 -1 $-1 -4 -1.0178088245509183 -1.25 #
coedge $-1 -1 $-1 $458 $686 $460 $584 forward $466 $-1 #
ellipse-curve $-1 -1 $-1 3.2639030835066514 -0.21780882455091888 1.25 0 0 1 0 -0.79999999999999938 0 1 I I #
edge $-1 -1 $-1 $667 -1.6399756566574579 $461 1.2984247013935581 $582 $687 forward @7 unknown #
point $-1 -1 $-1 2.7362165102851654 -0.8190965098079549 1.25 #
edge $-1 -1 $-1 $561 0 $596 0.72029738229806095 $463 $665 forward @7 unknown #
coedge $-1 -1 $-1 $686 $465 $688 $689 forward $466 $-1 #
face $-1 -1 $-1 $690 $466 $27 $-1 $601 forward single #
coedge $-1 -1 $-1 $473 $688 $468 $590 forward $595 $-1 #
edge $-1 -1 $-1 $591 -1.25 $475 1.25 $468 $691 forward @7 unknown #
vertex $-1 -1 $-1 $469 $692 #
straight-curve $-1 -1 $-1 4 0 1.25 0 1 0 I I #
plane-surface $-1 -1 $-1 4 0 0 -1 0 0 0 0 1 forward_v I I I I #
coedge $-1 -1 $-1 $688 $473 $658 $661 reversed $595 $-1 #
loop $-1 -1 $-1 $-1 $594 $599 #
vertex $-1 -1 $-1 $474 $693 #
straight-curve $-1 -1 $-1 0 1.3178088245509181 -1.25 1 0 0 I I #
point $-1 -1 $-1 4 1.3178088245509181 -1.25 #
face $-1 -1 $-1 $588 $595 $27 $-1 $694 reversed single #
loop $-1 -1 $-1 $-1 $563 $477 #
plane-surface $-1 -1 $-1 0 0 1.25 0 0 1 1 0 0 forward_v I I I I #
coedge $-1 -1 $-1 $613 $484 $481 $603 forward $607 $-1 #
edge $695 -1 $-1 $486 -0.12130486139243582 $604 2.8170954966585815 $481 $696 forward @7 unknown #
vertex $-1 -1 $-1 $603 $697 #
straight-curve $-1 -1 $-1 -2.7362165102851659 -0.81909650980795556 -0.59999999999999964 0 0 -1 I I #
coedge $-1 -1 $-1 $484 $615 $488 $611 forward $607 $-1 #
loop $-1 -1 $-1 $-1 $500 $506 #
convexity-sys-attrib $-1 -1 $-1 $-1 $485 #
ellipse-curve $-1 -1 $-1 -1.4199282677244024e-016 0.51780882455091826 -0.59999999999999964 0 0 1 0.52768657322148604 0.60128768525703657 0 1 I I #
point $-1 -1 $-1 -0.52768657322148549 1.1190965098079553 -0.59999999999999964 #
edge $698 -1 $-1 $617 -1.3478953176330726 $489 1.5905050404179435 $488 $699 forward @7 unknown #
point $-1 -1 $-1 0.52768657322148593 1.1190965098079548 -0.59999999999999964 #
coedge $-1 -1 $-1 $500 $602 $493 $614 forward $607 $-1 #
edge $700 -1 $-1 $604 9.5409791178724607e-016 $504 0.72029738229806162 $493 $701 forward @7 unknown #
coedge $-1 -1 $-1 $606 $500 $497 $616 forward $607 $-1 #
edge $702 -1 $-1 $502 0 $617 0.72029738229806128 $497 $703 forward @7 unknown #
vertex $-1 -1 $-1 $616 $704 #
straight-curve $-1 -1 $-1 2.7362165102851659 -0.8190965098079549 -0.59999999999999964 0 0 -1 I I #
convexity-sys-attrib $-1 -1 $-1 $-1 $501 #
straight-curve $-1 -1 $-1 2 -1.0178088245509183 -0.59999999999999964 1 0 0 I I #
point $-1 -1 $-1 3.2639030835066514 -1.0178088245509183 -0.59999999999999964 #
point $-1 -1 $-1 -3.2639030835066514 -1.0178088245509185 -0.59999999999999964 #
plane-surface $-1 -1 $-1 -5.5511151231257827e-017 -0.36902545071260989 -0.59999999999999964 -1.7034804065129472e-032 -3.607018363173163e-031 1 1 0 1.7034804065129472e-032 forward_v I I I I #
model_id-kcp-attrib $-1 -1 $-1 $-1 $509 1 1021571112 1021571112 -766902271 10 #
face $705 -1 $-1 $706 $707 $9 $-1 $708 forward single #
loop $-1 -1 $-1 $-1 $709 $509 #
plane-surface $-1 -1 $-1 0 0 -0.59999999999999998 0 0 1 1 0 0 forward_v I I I I #
coedge $-1 -1 $-1 $710 $711 $712 $713 forward $510 $-1 #
coedge $-1 -1 $-1 $515 $512 $714 $715 forward $379 $-1 #
coedge $-1 -1 $-1 $512 $716 $717 $718 forward $379 $-1 #
coedge $-1 -1 $-1 $711 $710 $512 $632 reversed $510 $-1 #
edge $719 -1 $-1 $720 -1.3794472495110085e-015 $721 2.9384003580510152 $512 $722 forward @7 unknown #
coedge $-1 -1 $-1 $514 $513 $723 $724 forward $241 $-1 #
coedge $-1 -1 $-1 $714 $725 $513 $635 forward $726 $-1 #
edge $727 -1 $-1 $728 0 $641 1.2000000000000002 $513 $729 forward @7 unknown #
coedge $-1 -1 $-1 $730 $731 $514 $637 forward $732 $-1 #
edge $733 -1 $-1 $640 0 $734 1.2000000000000002 $514 $735 forward @7 unknown #
coedge $-1 -1 $-1 $716 $515 $731 $736 forward $379 $-1 #
attrib_edge_convexity-kcp-attrib $-1 -1 $737 $-1 $516 2 #
vertex $-1 -1 $-1 $637 $738 #
vertex $-1 -1 $-1 $635 $739 #
straight-curve $-1 -1 $-1 3.2639030835066514 0 0.60000000000000009 -1 0 0 I I #
convexity-sys-attrib $-1 -1 $-1 $521 $245 #
convexity-sys-attrib $-1 -1 $-1 $522 $391 #
convexity-sys-attrib $-1 -1 $-1 $-1 $530 #
straight-curve $-1 -1 $-1 1.7231254408996799 0.069986316720898167 0.59999999999999964 0.75160960657129605 -0.65960821652685753 0 I I #
point $-1 -1 $-1 2.7362165102851654 -0.8190965098079549 0.59999999999999964 #
convexity-sys-attrib $-1 -1 $-1 $-1 $538 #
straight-curve $-1 -1 $-1 -0.6188604723678397 1.039082826528853 0.59999999999999964 0.75160960657129605 0.65960821652685742 0 I I #
convexity-sys-attrib $-1 -1 $-1 $-1 $541 #
ellipse-curve $-1 -1 $-1 3.2639030835066514 -0.21780882455091888 0.59999999999999964 0 0 1 0 -0.79999999999999938 0 1 I I #
convexity-sys-attrib $-1 -1 $-1 $-1 $543 #
ellipse-curve $-1 -1 $-1 -3.2639030835066514 -0.21780882455091943 0.59999999999999964 0 0 1 0.52768657322148593 -0.60128768525703558 0 1 I I #
point $-1 -1 $-1 -2.7362165102851659 -0.81909650980795556 0.59999999999999964 #
face $-1 -1 $-1 $579 $572 $27 $-1 $740 reversed single #
cone-surface $-1 -1 $-1 -3.2639030835066514 -0.21780882455091943 -1.25 0 0 -1 0.52768657322148593 -0.60128768525703558 0 1 I I 0 -1 0.79999999999999916 forward I I I I #
coedge $-1 -1 $-1 $662 $741 $577 $683 reversed $552 $-1 #
coedge $-1 -1 $-1 $554 $666 $555 $661 forward $443 $-1 #
coedge $-1 -1 $-1 $556 $555 $742 $743 reversed $321 $-1 #
coedge $-1 -1 $-1 $679 $744 $594 $661 forward $745 $-1 #
edge $-1 -1 $-1 $746 -2.5 $596 0 $660 $747 forward @7 unknown #
coedge $-1 -1 $-1 $748 $657 $556 $663 forward $552 $-1 #
edge $-1 -1 $-1 $664 0 $749 2.5 $556 $750 forward @7 unknown #
vertex $-1 -1 $-1 $558 $751 #
ellipse-curve $-1 -1 $-1 -1.4199282677244024e-016 0.51780882455091826 -1.25 0 0 1 0.52768657322148604 0.60128768525703657 0 1 I I #
coedge $-1 -1 $-1 $658 $559 $686 $752 reversed $443 $-1 #
vertex $-1 -1 $-1 $584 $753 #
straight-curve $-1 -1 $-1 0.52768657322148593 1.1190965098079548 -1.25 0 0 1 I I #
point $-1 -1 $-1 0.52768657322148593 1.1190965098079548 -1.25 #
coedge $-1 -1 $-1 $754 $563 $566 $674 forward $600 $-1 #
coedge $-1 -1 $-1 $563 $755 $570 $677 forward $600 $-1 #
straight-curve $-1 -1 $-1 -1.6319515417533259 -1.0178088245509191 1.25 1 -3.3935773258047251e-016 0 I I #
coedge $-1 -1 $-1 $566 $565 $741 $756 forward $567 $-1 #
edge $-1 -1 $-1 $568 -0.72029738229806162 $757 -9.5409791178724607e-016 $670 $758 forward @7 unknown #
point $-1 -1 $-1 -3.2639030835066514 -1.0178088245509185 1.25 #
coedge $-1 -1 $-1 $571 $570 $759 $760 forward $572 $-1 #
edge $-1 -1 $-1 $761 -1.3178088245509181 $573 1.0178088245509183 $570 $762 forward @7 unknown #
point $-1 -1 $-1 -4 -1.0178088245509183 1.25 #
coedge $-1 -1 $-1 $759 $660 $575 $680 reversed $745 $-1 #
edge $-1 -1 $-1 $681 -4 $596 -1.4199282677244024e-016 $679 $597 forward @7 unknown #
vertex $-1 -1 $-1 $680 $763 #
straight-curve $-1 -1 $-1 -4 0 -1.25 0 1 0 I I #
edge $-1 -1 $-1 $664 -0.17077547763195011 $684 2.7676248804190671 $577 $764 forward @7 unknown #
vertex $-1 -1 $-1 $683 $765 #
ellipse-curve $-1 -1 $-1 -3.2639030835066514 -0.21780882455091943 -1.25 0 0 -1 0.52768657322148593 -0.60128768525703558 0 1 I I #
coedge $-1 -1 $-1 $582 $587 $666 $752 forward $466 $-1 #
straight-curve $-1 -1 $-1 1.7603080313083006 0.037355091772667437 1.2500000000000002 0.75160960657129605 -0.65960821652685753 0 I I #
coedge $-1 -1 $-1 $589 $594 $587 $689 reversed $595 $-1 #
edge $-1 -1 $-1 $591 -4 $746 1.4199282677244024e-016 $688 $766 forward @7 unknown #
face $-1 -1 $-1 $470 $745 $27 $-1 $694 reversed single #
straight-curve $-1 -1 $-1 4 1.3178088245509181 0 0 0 -1 I I #
point $-1 -1 $-1 4 1.3178088245509181 1.25 #
point $-1 -1 $-1 -1.4199282677244024e-016 1.3178088245509181 -1.25 #
plane-surface $-1 -1 $-1 0 1.3178088245509181 0 0 -1 0 0 0 -1 forward_v I I I I #
convexity-sys-attrib $-1 -1 $-1 $-1 $603 #
straight-curve $-1 -1 $-1 -0.6188604723678397 1.039082826528853 -0.59999999999999964 -0.75160960657129605 -0.65960821652685742 0 I I #
point $-1 -1 $-1 -2.7362165102851659 -0.81909650980795556 -0.59999999999999964 #
convexity-sys-attrib $-1 -1 $-1 $-1 $611 #
straight-curve $-1 -1 $-1 1.7231254408996799 0.069986316720898167 -0.59999999999999964 -0.75160960657129605 0.65960821652685753 0 I I #
convexity-sys-attrib $-1 -1 $-1 $-1 $614 #
ellipse-curve $-1 -1 $-1 -3.2639030835066514 -0.21780882455091943 -0.59999999999999964 0 0 -1 0.52768657322148593 -0.60128768525703558 0 1 I I #
convexity-sys-attrib $-1 -1 $-1 $-1 $616 #
ellipse-curve $-1 -1 $-1 3.2639030835066514 -0.21780882455091888 -0.59999999999999964 0 0 -1 0 -0.79999999999999938 0 1 I I #
point $-1 -1 $-1 2.7362165102851654 -0.8190965098079549 -0.59999999999999964 #
model_id-kcp-attrib $-1 -1 $-1 $-1 $625 1 1021571112 1021571112 -766902271 11 #
face $767 -1 $-1 $768 $732 $9 $-1 $769 reversed single #
loop $-1 -1 $-1 $-1 $770 $625 #
plane-surface $-1 -1 $-1 2.9626449885282784 0 -0.59999999999999998 0.65960821652685742 0.75160960657129605 0 -0.75160960657129605 0.65960821652685742 0 forward_v I I I I #
coedge $-1 -1 $-1 $771 $772 $773 $774 reversed $626 $-1 #
coedge $-1 -1 $-1 $631 $628 $775 $776 forward $510 $-1 #
coedge $-1 -1 $-1 $628 $631 $777 $778 forward $510 $-1 #
coedge $-1 -1 $-1 $772 $779 $628 $713 reversed $626 $-1 #
edge $780 -1 $-1 $781 1.4203040741209505e-015 $782 2.9384003580510178 $712 $783 forward @7 unknown #
coedge $-1 -1 $-1 $775 $634 $629 $715 reversed $726 $-1 #
edge $784 -1 $-1 $721 -1.0691058840368816e-048 $641 0.72029738229806173 $629 $785 forward @7 unknown #
coedge $-1 -1 $-1 $630 $638 $770 $786 forward $379 $-1 #
coedge $-1 -1 $-1 $787 $777 $630 $718 reversed $788 $-1 #
edge $789 -1 $-1 $790 0 $720 1.440594764596121 $630 $791 forward @7 unknown #
attrib_edge_convexity-kcp-attrib $-1 -1 $792 $-1 $632 1 #
vertex $-1 -1 $-1 $718 $793 #
vertex $-1 -1 $-1 $715 $794 #
straight-curve $-1 -1 $-1 -0.52768657322148638 2.1369053343588722 0.59999999999999998 -0.75160960657129605 -0.65960821652685742 0 I I #
coedge $-1 -1 $-1 $779 $771 $633 $724 reversed $626 $-1 #
edge $795 -1 $-1 $728 0 $734 6.5278061670133027 $633 $796 forward @7 unknown #
coedge $-1 -1 $-1 $634 $775 $779 $797 reversed $726 $-1 #
loop $-1 -1 $-1 $-1 $714 $798 #
attrib_edge_convexity-kcp-attrib $-1 -1 $799 $-1 $635 4 #
vertex $-1 -1 $-1 $724 $800 #
straight-curve $-1 -1 $-1 -3.2639030835066514 0 -0.59999999999999998 0 0 1 I I #
coedge $-1 -1 $-1 $801 $636 $771 $802 reversed $732 $-1 #
coedge $-1 -1 $-1 $636 $801 $638 $736 reversed $732 $-1 #
loop $-1 -1 $-1 $-1 $730 $706 #
attrib_edge_convexity-kcp-attrib $-1 -1 $803 $-1 $637 4 #
vertex $-1 -1 $-1 $637 $804 #
straight-curve $-1 -1 $-1 3.2639030835066514 0 0.60000000000000009 0 0 -1 I I #
edge $805 -1 $-1 $640 0 $806 0.72029738229806106 $638 $807 forward @7 unknown #
convexity-sys-attrib $-1 -1 $-1 $639 $516 #
point $-1 -1 $-1 3.2639030835066514 -5.5511151231257827e-017 0.60000000000000009 #
point $-1 -1 $-1 -3.2639030835066514 5.5511151231257827e-017 0.60000000000000031 #
plane-surface $-1 -1 $-1 -4 0 0 1 0 0 0 0 -1 forward_v I I I I #
coedge $-1 -1 $-1 $657 $748 $673 $756 reversed $552 $-1 #
coedge $-1 -1 $-1 $755 $754 $659 $743 forward $600 $-1 #
edge $-1 -1 $-1 $749 -1.4405947645961208 $746 -0.72029738229806095 $742 $808 forward @7 unknown #
coedge $-1 -1 $-1 $660 $759 $755 $809 reversed $745 $-1 #
loop $-1 -1 $-1 $-1 $660 $690 #
vertex $-1 -1 $-1 $809 $810 #
straight-curve $-1 -1 $-1 -1.4199282677244024e-016 1.3178088245509181 -1.25 0 0 -1 I I #
coedge $-1 -1 $-1 $741 $662 $754 $811 reversed $552 $-1 #
vertex $-1 -1 $-1 $743 $812 #
straight-curve $-1 -1 $-1 -0.52768657322148549 1.1190965098079553 -1.25 0 0 1 I I #
point $-1 -1 $-1 -0.52768657322148549 1.1190965098079553 -1.25 #
edge $-1 -1 $-1 $746 -0.72029738229806095 $667 0 $686 $808 forward @7 unknown #
point $-1 -1 $-1 0.52768657322148593 1.1190965098079548 1.25 #
coedge $-1 -1 $-1 $742 $670 $748 $811 forward $600 $-1 #
coedge $-1 -1 $-1 $671 $742 $744 $809 forward $600 $-1 #
edge $-1 -1 $-1 $684 0 $757 2.5 $741 $813 forward @7 unknown #
vertex $-1 -1 $-1 $811 $814 #
ellipse-curve $-1 -1 $-1 -3.2639030835066514 -0.21780882455091943 1.25 0 0 1 0.52768657322148593 -0.60128768525703558 0 1 I I #
coedge $-1 -1 $-1 $744 $679 $676 $760 reversed $745 $-1 #
edge $-1 -1 $-1 $761 -1.25 $681 1.25 $759 $815 forward @7 unknown #
vertex $-1 -1 $-1 $809 $816 #
straight-curve $-1 -1 $-1 -4 0 1.25 0 -1 0 I I #
point $-1 -1 $-1 -4 1.3178088245509181 -1.25 #
straight-curve $-1 -1 $-1 -0.65604306277646063 1.0064516015806224 -1.25 -0.75160960657129605 -0.65960821652685742 0 I I #
point $-1 -1 $-1 -2.7362165102851659 -0.81909650980795556 -1.25 #
straight-curve $-1 -1 $-1 0 1.3178088245509181 1.25 -1 0 0 I I #
model_id-kcp-attrib $-1 -1 $-1 $-1 $706 1 1021571112 1021571112 -766902271 12 #
face $817 -1 $-1 $798 $788 $9 $-1 $818 forward single #
cone-surface $-1 -1 $-1 3.2639030835066514 0.79999999999999993 1.2549525498197203 0 0 -1 -0.52768657322148593 -0.6012876852570368 0 1 I I 0 1 0.80000000000000004 forward I I I I #
coedge $-1 -1 $-1 $819 $820 $716 $786 reversed $707 $-1 #
coedge $-1 -1 $-1 $723 $709 $730 $802 forward $626 $-1 #
coedge $-1 -1 $-1 $709 $712 $821 $822 forward $626 $-1 #
coedge $-1 -1 $-1 $820 $819 $709 $774 forward $707 $-1 #
edge $823 -1 $-1 $824 -1.1069507701279582e-015 $825 2.9384003580510152 $709 $826 forward @7 unknown #
coedge $-1 -1 $-1 $725 $714 $710 $776 reversed $726 $-1 #
edge $827 -1 $-1 $782 0 $721 1.2000000000000002 $710 $828 forward @7 unknown #
coedge $-1 -1 $-1 $717 $821 $711 $778 reversed $788 $-1 #
edge $829 -1 $-1 $720 1.110223024625157e-016 $781 1.2 $711 $830 forward @7 unknown #
coedge $-1 -1 $-1 $712 $723 $725 $797 forward $626 $-1 #
attrib_edge_convexity-kcp-attrib $-1 -1 $831 $-1 $713 1 #
vertex $-1 -1 $-1 $822 $832 #
vertex $-1 -1 $-1 $713 $833 #
straight-curve $-1 -1 $-1 -0.52768657322148471 2.136905334358874 -0.59999999999999998 -0.75160960657129605 -0.65960821652685753 0 I I #
attrib_edge_convexity-kcp-attrib $-1 -1 $834 $-1 $715 1 #
ellipse-curve $-1 -1 $-1 -3.2639030835066509 0.79999999999999882 0.59999999999999998 9.1539028652506807e-017 -1.0430678634311363e-016 -1 0.52768657322148549 -0.60128768525703558 1.1102230246251565e-016 1 I I #
edge $835 -1 $-1 $806 1.1252585758584597e-015 $790 2.938400358051017 $716 $836 forward @7 unknown #
coedge $-1 -1 $-1 $821 $717 $820 $837 forward $788 $-1 #
loop $-1 -1 $-1 $-1 $717 $768 #
attrib_edge_convexity-kcp-attrib $-1 -1 $838 $-1 $718 1 #
vertex $-1 -1 $-1 $718 $839 #
ellipse-curve $-1 -1 $-1 -1.1102230246251565e-016 1.5356176491018365 0.59999999999999998 0 0 1 0.52768657322148604 0.60128768525703657 0 1 I I #
convexity-sys-attrib $-1 -1 $-1 $719 $632 #
point $-1 -1 $-1 -0.52768657322148571 2.1369053343588735 0.60000000000000009 #
point $-1 -1 $-1 -2.7362165102851654 0.19871231474296325 0.60000000000000009 #
attrib_edge_convexity-kcp-attrib $-1 -1 $840 $-1 $724 2 #
straight-curve $-1 -1 $-1 -3.2639030835066514 0 -0.59999999999999998 1 0 0 I I #
edge $841 -1 $-1 $728 0 $782 0.72029738229806228 $779 $842 forward @7 unknown #
face $843 -1 $-1 $-1 $726 $9 $-1 $844 reversed single #
convexity-sys-attrib $-1 -1 $-1 $727 $635 #
point $-1 -1 $-1 -3.2639030835066514 5.5511151231257827e-017 -0.59999999999999998 #
coedge $-1 -1 $-1 $731 $730 $819 $845 reversed $732 $-1 #
edge $846 -1 $-1 $824 -1.0691058840368827e-048 $734 0.72029738229806228 $771 $847 forward @7 unknown #
convexity-sys-attrib $-1 -1 $-1 $733 $637 #
point $-1 -1 $-1 3.2639030835066514 -5.5511151231257827e-017 -0.60000000000000009 #
attrib_edge_convexity-kcp-attrib $-1 -1 $848 $-1 $736 1 #
vertex $-1 -1 $-1 $786 $849 #
ellipse-curve $-1 -1 $-1 3.2639030835066514 0.79999999999999938 0.59999999999999998 0 -1.3877787807814467e-016 -1 0 -0.79999999999999938 1.1102230246251565e-016 1 I I #
ellipse-curve $-1 -1 $-1 -1.4199282677244024e-016 0.51780882455091826 1.25 0 0 -1 0.52768657322148604 0.60128768525703657 0 1 I I #
edge $-1 -1 $-1 $746 1.4199282677244024e-016 $761 4 $744 $766 forward @7 unknown #
point $-1 -1 $-1 -1.4199282677244024e-016 1.3178088245509181 1.25 #
edge $-1 -1 $-1 $757 -2.7676248804190671 $749 0.17077547763195011 $754 $850 forward @7 unknown #
point $-1 -1 $-1 -0.52768657322148549 1.1190965098079553 1.25 #
straight-curve $-1 -1 $-1 -2.7362165102851659 -0.81909650980795556 -1.25 0 0 1 I I #
point $-1 -1 $-1 -2.7362165102851659 -0.81909650980795556 1.25 #
straight-curve $-1 -1 $-1 -4 1.3178088245509181 0 0 0 -1 I I #
point $-1 -1 $-1 -4 1.3178088245509181 1.25 #
model_id-kcp-attrib $-1 -1 $-1 $-1 $768 1 1021571112 1021571112 -766902271 13 #
cone-surface $-1 -1 $-1 0 1.5356176491018363 0.61387773008278101 0 0 -1 0.52768657322148593 0.60128768525703669 0 1 I I 0 1 0.79999999999999993 forward I I I I #
coedge $-1 -1 $-1 $773 $770 $801 $845 forward $707 $-1 #
coedge $-1 -1 $-1 $770 $773 $787 $837 reversed $707 $-1 #
coedge $-1 -1 $-1 $777 $787 $772 $822 reversed $788 $-1 #
edge $851 -1 $-1 $781 -4.2764235361475155e-048 $825 1.4405947645961215 $772 $852 forward @7 unknown #
attrib_edge_convexity-kcp-attrib $-1 -1 $853 $-1 $774 1 #
vertex $-1 -1 $-1 $802 $854 #
vertex $-1 -1 $-1 $822 $855 #
straight-curve $-1 -1 $-1 2.7362165102851645 0.1987123147429638 -0.59999999999999998 -0.75160960657129605 0.65960821652685742 0 I I #
attrib_edge_convexity-kcp-attrib $-1 -1 $856 $-1 $776 4 #
straight-curve $-1 -1 $-1 -2.736216510285165 0.19871231474296325 -0.59999999999999998 0 0 1 I I #
attrib_edge_convexity-kcp-attrib $-1 -1 $857 $-1 $778 3 #
straight-curve $-1 -1 $-1 -0.52768657322148549 2.1369053343588731 0.6000000000000002 -1.8503717077085943e-016 0 -1 I I #
convexity-sys-attrib $-1 -1 $-1 $780 $713 #
point $-1 -1 $-1 -0.52768657322148582 2.1369053343588731 -0.59999999999999976 #
point $-1 -1 $-1 -2.7362165102851654 0.19871231474296325 -0.59999999999999998 #
convexity-sys-attrib $-1 -1 $-1 $784 $715 #
attrib_edge_convexity-kcp-attrib $-1 -1 $858 $-1 $786 1 #
straight-curve $-1 -1 $-1 2.7362165102851663 0.19871231474296244 0.59999999999999998 -0.75160960657129605 0.65960821652685742 0 I I #
edge $859 -1 $-1 $790 0 $825 1.2 $820 $860 forward @7 unknown #
convexity-sys-attrib $-1 -1 $-1 $789 $718 #
point $-1 -1 $-1 0.52768657322148593 2.1369053343588731 0.59999999999999998 #
convexity-sys-attrib $-1 -1 $-1 $795 $724 #
attrib_edge_convexity-kcp-attrib $-1 -1 $861 $-1 $797 1 #
ellipse-curve $-1 -1 $-1 -3.2639030835066509 0.79999999999999827 -0.59999999999999998 0 0 1 -4.4408920985006262e-016 -0.79999999999999827 0 1 I I #
model_id-kcp-attrib $-1 -1 $-1 $-1 $798 1 1021571112 1021571112 -766902271 14 #
cone-surface $-1 -1 $-1 -3.2639030835066514 0.79999999999999993 -1.254952577089226 0 0 1 0.52768657322148593 -0.60128768525703669 0 1 I I 0 1 0.79999999999999993 forward I I I I #
edge $862 -1 $-1 $806 0 $824 1.2000000000000002 $819 $863 forward @7 unknown #
attrib_edge_convexity-kcp-attrib $-1 -1 $864 $-1 $802 1 #
ellipse-curve $-1 -1 $-1 3.2639030835066509 0.79999999999999816 -0.59999999999999998 -9.1539028652506906e-017 -1.0430678634311364e-016 1 -0.52768657322148549 -0.60128768525703502 -1.1102230246251565e-016 1 I I #
convexity-sys-attrib $-1 -1 $-1 $805 $736 #
point $-1 -1 $-1 2.7362165102851654 0.19871231474296314 0.59999999999999998 #
straight-curve $-1 -1 $-1 -0.65604306277646063 1.0064516015806224 1.25 0.75160960657129605 0.65960821652685742 0 I I #
attrib_edge_convexity-kcp-attrib $-1 -1 $865 $-1 $822 1 #
ellipse-curve $-1 -1 $-1 8.3266726846886741e-017 1.5356176491018365 -0.59999999999999998 -1.8307805730501329e-016 2.0861357268622706e-016 -1 -0.52768657322148593 0.60128768525703657 2.2204460492503131e-016 1 I I #
convexity-sys-attrib $-1 -1 $-1 $823 $774 #
point $-1 -1 $-1 2.7362165102851654 0.19871231474296314 -0.60000000000000009 #
point $-1 -1 $-1 0.52768657322148593 2.1369053343588731 -0.59999999999999998 #
convexity-sys-attrib $-1 -1 $-1 $827 $776 #
convexity-sys-attrib $-1 -1 $-1 $829 $778 #
convexity-sys-attrib $-1 -1 $-1 $835 $786 #
attrib_edge_convexity-kcp-attrib $-1 -1 $866 $-1 $837 3 #
straight-curve $-1 -1 $-1 0.52768657322148593 2.1369053343588731 0.59999999999999998 0 0 -1 I I #
convexity-sys-attrib $-1 -1 $-1 $841 $797 #
attrib_edge_convexity-kcp-attrib $-1 -1 $867 $-1 $845 4 #
straight-curve $-1 -1 $-1 2.7362165102851654 0.19871231474296314 0.59999999999999998 0 0 -1 I I #
convexity-sys-attrib $-1 -1 $-1 $846 $802 #
convexity-sys-attrib $-1 -1 $-1 $851 $822 #
convexity-sys-attrib $-1 -1 $-1 $859 $837 #
convexity-sys-attrib $-1 -1 $-1 $862 $845 #
End-of-ACIS-data 