700 0 2 0           
24 FBMach with ACIS - 7.0.3 13 ACIS 7.0.3 NT 24 Thu May 16 09:03:03 2002 
1 9.9999999999999995e-007 1e-010 
body $2 -1 $-1 $3 $-1 $4 #
bdycol-kcp $-1 -1 1 4 $5 $6 $7 $8 #
model_id-kcp-attrib $-1 -1 $-1 $-1 $0 1 1021554181 1021554181 -1053884415 1 #
lump $-1 -1 $-1 $-1 $9 $0 #
transform $-1 -1 1 0 0 0 1 0 0 0 1 0 0 0 1 rotate no_reflect no_shear #
body $10 -1 $-1 $11 $-1 $12 #
body $13 -1 $-1 $14 $-1 $15 #
body $16 -1 $-1 $17 $-1 $18 #
body $19 -1 $-1 $20 $-1 $21 #
shell $-1 -1 $-1 $-1 $-1 $22 $-1 $3 #
model_id-kcp-attrib $-1 -1 $-1 $-1 $5 1 1021554181 1021554181 -1053884414 1 #
lump $-1 -1 $-1 $-1 $23 $5 #
transform $-1 -1 1 0 0 0 1 0 0 0 1 0 1.0178088245509183 0 1 no_rotate no_reflect no_shear #
rgb_color-st-attrib $-1 -1 $24 $-1 $6 0.5 1 1 #
lump $-1 -1 $-1 $-1 $25 $6 #
transform $-1 -1 1 0 0 0 1 0 0 0 1 0 1.0178088245509183 0 1 no_rotate no_reflect no_shear #
rgb_color-st-attrib $-1 -1 $26 $-1 $7 1 0.5 1 #
lump $-1 -1 $-1 $-1 $27 $7 #
transform $-1 -1 1 0 0 0 1 0 0 0 1 0 1.0178088245509183 0 1 no_rotate no_reflect no_shear #
rgb_color-st-attrib $-1 -1 $28 $-1 $8 1 0.5 1 #
lump $-1 -1 $-1 $-1 $29 $8 #
transform $-1 -1 1 0 0 0 1 0 0 0 1 0 1.0178088245509183 0 1 no_rotate no_reflect no_shear #
face $30 -1 $-1 $31 $32 $9 $-1 $33 reversed single #
shell $-1 -1 $-1 $-1 $-1 $34 $-1 $11 #
model_id-kcp-attrib $-1 -1 $-1 $13 $6 1 1021554181 1021554181 -1043988477 1 #
shell $-1 -1 $-1 $-1 $-1 $35 $-1 $14 #
model_id-kcp-attrib $-1 -1 $-1 $16 $7 1 1021554181 1021554182 -1054736379 1 #
shell $-1 -1 $-1 $-1 $-1 $36 $-1 $17 #
model_id-kcp-attrib $-1 -1 $-1 $19 $8 1 1021554181 1021554182 -1052377084 1 #
shell $-1 -1 $-1 $-1 $-1 $37 $-1 $20 #
model_id-kcp-attrib $-1 -1 $-1 $-1 $22 1 1021554181 1021554181 -1053884415 2 #
face $38 -1 $-1 $39 $40 $9 $-1 $41 forward single #
loop $-1 -1 $-1 $-1 $42 $22 #
plane-surface $-1 -1 $-1 0 0 -1.25 0 0 1 1 0 0 forward_v I I I I #
face $43 -1 $-1 $44 $45 $23 $-1 $46 forward single #
face $-1 -1 $-1 $47 $48 $25 $-1 $49 reversed single #
face $-1 -1 $-1 $50 $51 $27 $-1 $52 reversed single #
face $-1 -1 $-1 $53 $54 $29 $-1 $55 forward single #
model_id-kcp-attrib $-1 -1 $-1 $-1 $31 1 1021554181 1021554181 -1053884415 3 #
face $56 -1 $-1 $57 $58 $9 $-1 $59 forward single #
loop $-1 -1 $-1 $-1 $60 $31 #
plane-surface $-1 -1 $-1 -4 0 -1.25 -1 0 0 0 -1 0 forward_v I I I I #
coedge $-1 -1 $-1 $61 $62 $63 $64 reversed $32 $-1 #
model_id-kcp-attrib $-1 -1 $-1 $-1 $34 1 1021554181 1021554181 -1053884414 6 #
face $65 -1 $-1 $66 $67 $23 $-1 $68 reversed single #
loop $-1 -1 $-1 $-1 $69 $34 #
plane-surface $-1 -1 $-1 0 0 1.25 0 0 1 1 0 0 forward_v I I I I #
face $-1 -1 $-1 $70 $71 $25 $-1 $72 reversed single #
loop $-1 -1 $-1 $-1 $73 $35 #
plane-surface $-1 -1 $-1 4 -1.0178088245509183 -1.25 3.7706414731163616e-017 1 0 0 0 -1 forward_v I I I I #
face $-1 -1 $-1 $74 $75 $27 $-1 $76 forward single #
loop $-1 -1 $-1 $-1 $77 $36 #
plane-surface $-1 -1 $-1 0 0 -1.25 0 0 1 1 0 0 forward_v I I I I #
face $-1 -1 $-1 $78 $79 $29 $-1 $80 forward single #
loop $-1 -1 $-1 $-1 $81 $37 #
plane-surface $-1 -1 $-1 0 0 1.25 0 0 1 1 0 0 forward_v I I I I #
model_id-kcp-attrib $-1 -1 $-1 $-1 $39 1 1021554181 1021554181 -1053884415 4 #
face $82 -1 $-1 $83 $84 $9 $-1 $85 forward single #
loop $-1 -1 $-1 $-1 $86 $39 #
plane-surface $-1 -1 $-1 -4 -0.29999999999999999 -1.25 0 -1 0 1 0 0 forward_v I I I I #
coedge $-1 -1 $-1 $87 $63 $88 $89 forward $40 $-1 #
coedge $-1 -1 $-1 $90 $42 $91 $92 reversed $32 $-1 #
coedge $-1 -1 $-1 $42 $90 $93 $94 reversed $32 $-1 #
coedge $-1 -1 $-1 $60 $95 $42 $64 forward $40 $-1 #
edge $96 -1 $-1 $97 0 $98 0.29999999999999999 $42 $99 forward @7 unknown #
model_id-kcp-attrib $-1 -1 $-1 $-1 $44 1 1021554181 1021554181 -1053884414 2 #
face $100 -1 $-1 $101 $102 $23 $-1 $103 reversed single #
loop $-1 -1 $-1 $-1 $104 $44 #
plane-surface $-1 -1 $-1 0 0 -1.25 0 0 1 1 0 0 forward_v I I I I #
coedge $-1 -1 $-1 $105 $106 $107 $108 forward $45 $-1 #
face $-1 -1 $-1 $109 $110 $25 $-1 $111 reversed single #
loop $-1 -1 $-1 $-1 $112 $47 #
cone-surface $-1 -1 $-1 3.2639030835066514 -0.21780882455091888 -1.25 0 0 -1 0 -0.79999999999999938 0 1 I I 0 -1 0.79999999999999938 forward I I I I #
coedge $-1 -1 $-1 $113 $114 $115 $116 reversed $48 $-1 #
face $-1 -1 $-1 $117 $118 $27 $-1 $119 forward single #
loop $-1 -1 $-1 $-1 $120 $50 #
cone-surface $-1 -1 $-1 -1.4199282677244024e-016 0.51780882455091826 -0.59999999999999964 0 0 -1 0.52768657322148604 0.60128768525703657 0 1 I I 0 1 0.79999999999999993 forward I I I I #
coedge $-1 -1 $-1 $121 $122 $123 $124 forward $51 $-1 #
face $-1 -1 $-1 $125 $126 $29 $-1 $127 forward single #
loop $-1 -1 $-1 $-1 $128 $53 #
cone-surface $-1 -1 $-1 -1.4199282677244024e-016 0.51780882455091826 0.59999999999999964 0 0 1 0.52768657322148604 0.60128768525703657 0 1 I I 0 1 0.79999999999999993 forward I I I I #
coedge $-1 -1 $-1 $129 $130 $131 $132 forward $54 $-1 #
model_id-kcp-attrib $-1 -1 $-1 $-1 $57 1 1021554181 1021554181 -1053884415 5 #
face $133 -1 $-1 $134 $135 $9 $-1 $136 forward single #
loop $-1 -1 $-1 $-1 $137 $57 #
plane-surface $-1 -1 $-1 4 -0.29999999999999999 -1.25 1 0 0 0 1 0 forward_v I I I I #
coedge $-1 -1 $-1 $138 $93 $139 $140 forward $58 $-1 #
coedge $-1 -1 $-1 $95 $60 $141 $142 reversed $40 $-1 #
coedge $-1 -1 $-1 $93 $138 $60 $89 reversed $58 $-1 #
edge $143 -1 $-1 $98 0 $144 2.5 $88 $145 forward @7 unknown #
coedge $-1 -1 $-1 $62 $61 $146 $147 reversed $32 $-1 #
coedge $-1 -1 $-1 $148 $149 $61 $92 forward $135 $-1 #
edge $150 -1 $-1 $151 0 $97 8 $61 $152 forward @7 unknown #
coedge $-1 -1 $-1 $86 $88 $62 $94 forward $58 $-1 #
edge $153 -1 $-1 $98 0 $154 8 $62 $155 forward @7 unknown #
coedge $-1 -1 $-1 $63 $87 $148 $156 reversed $40 $-1 #
attrib_edge_convexity-kcp-attrib $-1 -1 $157 $-1 $64 1 #
vertex $-1 -1 $-1 $92 $158 #
vertex $-1 -1 $-1 $94 $159 #
straight-curve $-1 -1 $-1 -4 0 -1.25 0 -1 0 I I #
model_id-kcp-attrib $-1 -1 $-1 $-1 $66 1 1021554181 1021554181 -1053884414 4 #
face $160 -1 $-1 $161 $162 $23 $-1 $163 reversed single #
loop $-1 -1 $-1 $-1 $164 $66 #
plane-surface $-1 -1 $-1 0 -1.3178088245509181 0 0 1 0 0 0 1 forward_v I I I I #
coedge $-1 -1 $-1 $165 $166 $167 $168 forward $67 $-1 #
coedge $-1 -1 $-1 $169 $69 $170 $171 forward $45 $-1 #
coedge $-1 -1 $-1 $69 $169 $172 $173 forward $45 $-1 #
coedge $-1 -1 $-1 $174 $175 $69 $108 reversed $176 $-1 #
edge $-1 -1 $-1 $177 -1.3178088245509181 $178 1.3178088245509181 $107 $179 forward @7 unknown #
face $-1 -1 $-1 $180 $181 $25 $-1 $182 reversed single #
loop $-1 -1 $-1 $-1 $183 $70 #
plane-surface $-1 -1 $-1 -3.2639030835066514 -1.0178088245509185 -1.25 3.3935773258047251e-016 1 0 0 0 -1 forward_v I I I I #
coedge $-1 -1 $-1 $184 $185 $186 $187 reversed $71 $-1 #
coedge $-1 -1 $-1 $188 $73 $189 $190 reversed $48 $-1 #
coedge $-1 -1 $-1 $73 $188 $184 $191 reversed $48 $-1 #
coedge $-1 -1 $-1 $186 $192 $73 $116 forward $193 $-1 #
edge $-1 -1 $-1 $194 -2 $195 -1.2639030835066514 $115 $196 forward @7 unknown #
face $-1 -1 $-1 $197 $198 $27 $-1 $199 forward single #
loop $-1 -1 $-1 $-1 $200 $74 #
plane-surface $-1 -1 $-1 -0.52768657322148549 1.1190965098079551 -0.59999999999999964 -0.65960821652685742 0.75160960657129605 0 0 0 1 forward_v I I I I #
coedge $-1 -1 $-1 $201 $202 $203 $204 reversed $75 $-1 #
coedge $-1 -1 $-1 $205 $77 $206 $207 forward $51 $-1 #
coedge $-1 -1 $-1 $77 $208 $209 $210 forward $51 $-1 #
coedge $-1 -1 $-1 $211 $212 $77 $124 reversed $213 $-1 #
edge $-1 -1 $-1 $214 -4.8958546252599771 $215 1.6319515417533257 $123 $216 forward @7 unknown #
face $-1 -1 $-1 $217 $218 $29 $-1 $219 forward single #
loop $-1 -1 $-1 $-1 $220 $78 #
plane-surface $-1 -1 $-1 0.52768657322148593 1.1190965098079548 0.59999999999999964 0.65960821652685753 0.75160960657129605 0 0 0 -1 forward_v I I I I #
coedge $-1 -1 $-1 $221 $222 $223 $224 reversed $79 $-1 #
coedge $-1 -1 $-1 $225 $81 $226 $227 forward $54 $-1 #
coedge $-1 -1 $-1 $81 $228 $229 $230 forward $54 $-1 #
coedge $-1 -1 $-1 $231 $232 $81 $132 reversed $233 $-1 #
edge $-1 -1 $-1 $234 -4.8958546252599771 $235 1.6319515417533257 $131 $236 forward @7 unknown #
model_id-kcp-attrib $-1 -1 $-1 $-1 $83 1 1021554181 1021554181 -1053884415 6 #
face $237 -1 $-1 $238 $239 $9 $-1 $240 forward single #
loop $-1 -1 $-1 $241 $148 $83 #
plane-surface $-1 -1 $-1 4 0 -1.25 0 1 0 -1 0 0 forward_v I I I I #
coedge $-1 -1 $-1 $242 $146 $149 $243 forward $84 $-1 #
coedge $-1 -1 $-1 $88 $86 $244 $245 reversed $58 $-1 #
coedge $-1 -1 $-1 $146 $242 $86 $140 reversed $84 $-1 #
edge $246 -1 $-1 $154 0 $247 2.5 $86 $248 forward @7 unknown #
coedge $-1 -1 $-1 $244 $249 $87 $142 forward $239 $-1 #
edge $250 -1 $-1 $251 0 $144 0.29999999999999999 $141 $252 forward @7 unknown #
attrib_edge_convexity-kcp-attrib $-1 -1 $253 $-1 $89 1 #
vertex $-1 -1 $-1 $245 $254 #
straight-curve $-1 -1 $-1 -4 -0.29999999999999999 -1.25 0 0 1 I I #
coedge $-1 -1 $-1 $137 $139 $90 $147 forward $84 $-1 #
edge $255 -1 $-1 $154 0 $151 0.29999999999999999 $90 $256 forward @7 unknown #
coedge $-1 -1 $-1 $257 $91 $95 $156 forward $135 $-1 #
coedge $-1 -1 $-1 $91 $257 $137 $243 reversed $135 $-1 #
attrib_edge_convexity-kcp-attrib $-1 -1 $258 $-1 $92 1 #
vertex $-1 -1 $-1 $147 $259 #
straight-curve $-1 -1 $-1 4 0 -1.25 -1 0 0 I I #
attrib_edge_convexity-kcp-attrib $-1 -1 $260 $-1 $94 1 #
vertex $-1 -1 $-1 $94 $261 #
straight-curve $-1 -1 $-1 -4 -0.29999999999999999 -1.25 1 0 0 I I #
edge $262 -1 $-1 $97 0 $251 2.5 $148 $263 forward @7 unknown #
convexity-sys-attrib $-1 -1 $-1 $96 $64 #
point $-1 -1 $-1 -4 0 -1.25 #
point $-1 -1 $-1 -4 -0.29999999999999999 -1.25 #
model_id-kcp-attrib $-1 -1 $-1 $-1 $101 1 1021554181 1021554181 -1053884414 3 #
face $-1 -1 $-1 $264 $265 $23 $-1 $266 reversed single #
loop $-1 -1 $-1 $-1 $267 $101 #
plane-surface $-1 -1 $-1 -4 0 0 1 0 0 0 0 -1 forward_v I I I I #
coedge $-1 -1 $-1 $268 $172 $269 $270 forward $102 $-1 #
coedge $-1 -1 $-1 $271 $104 $268 $272 forward $67 $-1 #
coedge $-1 -1 $-1 $104 $271 $273 $274 forward $67 $-1 #
coedge $-1 -1 $-1 $175 $174 $104 $168 reversed $176 $-1 #
edge $-1 -1 $-1 $275 -1.3178088245509181 $276 1.3178088245509181 $167 $277 forward @7 unknown #
coedge $-1 -1 $-1 $106 $105 $278 $279 forward $45 $-1 #
coedge $-1 -1 $-1 $280 $281 $105 $171 reversed $265 $-1 #
edge $-1 -1 $-1 $178 -4 $282 4 $170 $283 forward @7 unknown #
coedge $-1 -1 $-1 $164 $284 $106 $173 reversed $102 $-1 #
edge $-1 -1 $-1 $285 -4 $177 4 $172 $286 forward @7 unknown #
coedge $-1 -1 $-1 $167 $107 $284 $287 forward $176 $-1 #
coedge $-1 -1 $-1 $107 $167 $280 $288 reversed $176 $-1 #
loop $-1 -1 $-1 $-1 $174 $264 #
vertex $-1 -1 $-1 $108 $289 #
vertex $-1 -1 $-1 $108 $290 #
straight-curve $-1 -1 $-1 4 0 1.25 0 1 0 I I #
face $-1 -1 $-1 $291 $292 $25 $-1 $293 reversed single #
loop $-1 -1 $-1 $-1 $294 $109 #
plane-surface $-1 -1 $-1 2.7362165102851654 -0.8190965098079549 -1.25 0.65960821652685742 0.75160960657129594 0 0 0 1 forward_v I I I I #
coedge $-1 -1 $-1 $295 $296 $297 $298 reversed $110 $-1 #
coedge $-1 -1 $-1 $299 $112 $114 $191 forward $71 $-1 #
coedge $-1 -1 $-1 $112 $299 $300 $301 reversed $71 $-1 #
coedge $-1 -1 $-1 $302 $115 $112 $187 forward $193 $-1 #
edge $-1 -1 $-1 $195 0 $303 0.72029738229806128 $186 $304 forward @7 unknown #
coedge $-1 -1 $-1 $114 $113 $305 $306 reversed $48 $-1 #
coedge $-1 -1 $-1 $307 $308 $113 $190 forward $309 $-1 #
edge $-1 -1 $-1 $310 -1.875 $194 0.625 $189 $311 forward @7 unknown #
edge $-1 -1 $-1 $195 0 $312 2.5 $114 $313 forward @7 unknown #
coedge $-1 -1 $-1 $115 $314 $307 $315 forward $193 $-1 #
loop $-1 -1 $-1 $-1 $115 $316 #
vertex $-1 -1 $-1 $116 $317 #
vertex $-1 -1 $-1 $187 $318 #
straight-curve $-1 -1 $-1 2 -1.0178088245509183 -1.25 -1 3.7706414731163616e-017 0 I I #
face $-1 -1 $-1 $319 $320 $27 $-1 $321 forward single #
loop $-1 -1 $-1 $-1 $206 $117 #
cone-surface $-1 -1 $-1 -3.2639030835066514 -0.21780882455091943 -0.59999999999999964 0 0 -1 0.52768657322148593 -0.60128768525703558 0 1 I I 0 -1 0.79999999999999916 forward I I I I #
coedge $-1 -1 $-1 $322 $323 $205 $324 reversed $118 $-1 #
coedge $-1 -1 $-1 $325 $120 $323 $326 reversed $75 $-1 #
coedge $-1 -1 $-1 $120 $325 $327 $328 forward $75 $-1 #
coedge $-1 -1 $-1 $208 $205 $120 $204 forward $51 $-1 #
edge $-1 -1 $-1 $329 -1.4405947645961208 $330 0 $120 $331 forward @7 unknown #
coedge $-1 -1 $-1 $203 $121 $200 $324 forward $51 $-1 #
coedge $-1 -1 $-1 $332 $333 $121 $207 reversed $198 $-1 #
edge $-1 -1 $-1 $215 -0.72029738229806162 $334 -9.5409791178724607e-016 $206 $335 forward @7 unknown #
coedge $-1 -1 $-1 $122 $203 $336 $337 forward $51 $-1 #
coedge $-1 -1 $-1 $338 $339 $122 $210 reversed $320 $-1 #
edge $-1 -1 $-1 $340 -0.72029738229806128 $214 0 $209 $341 forward @7 unknown #
coedge $-1 -1 $-1 $342 $123 $339 $343 reversed $213 $-1 #
coedge $-1 -1 $-1 $123 $342 $332 $344 forward $213 $-1 #
loop $-1 -1 $-1 $-1 $123 $345 #
vertex $-1 -1 $-1 $124 $346 #
vertex $-1 -1 $-1 $124 $347 #
straight-curve $-1 -1 $-1 -1.6319515417533257 -1.0178088245509185 -1.25 -1 0 0 I I #
face $-1 -1 $-1 $348 $349 $29 $-1 $350 forward single #
loop $-1 -1 $-1 $-1 $226 $125 #
cone-surface $-1 -1 $-1 3.2639030835066514 -0.21780882455091888 0.59999999999999964 0 0 1 0 -0.79999999999999938 0 1 I I 0 -1 0.79999999999999938 forward I I I I #
coedge $-1 -1 $-1 $351 $352 $225 $353 reversed $126 $-1 #
coedge $-1 -1 $-1 $354 $128 $352 $355 reversed $79 $-1 #
coedge $-1 -1 $-1 $128 $354 $356 $357 forward $79 $-1 #
coedge $-1 -1 $-1 $228 $225 $128 $224 forward $54 $-1 #
edge $-1 -1 $-1 $358 0 $359 1.4405947645961208 $128 $360 forward @7 unknown #
coedge $-1 -1 $-1 $223 $129 $220 $353 forward $54 $-1 #
coedge $-1 -1 $-1 $361 $362 $129 $227 reversed $218 $-1 #
edge $-1 -1 $-1 $235 0 $363 0.72029738229806128 $226 $364 forward @7 unknown #
coedge $-1 -1 $-1 $130 $223 $365 $366 forward $54 $-1 #
coedge $-1 -1 $-1 $367 $368 $130 $230 reversed $349 $-1 #
edge $-1 -1 $-1 $369 9.5409791178724607e-016 $234 0.72029738229806162 $229 $370 forward @7 unknown #
coedge $-1 -1 $-1 $371 $131 $368 $372 reversed $233 $-1 #
coedge $-1 -1 $-1 $131 $371 $361 $373 forward $233 $-1 #
loop $-1 -1 $-1 $-1 $131 $374 #
vertex $-1 -1 $-1 $132 $375 #
vertex $-1 -1 $-1 $132 $376 #
straight-curve $-1 -1 $-1 1.6319515417533257 -1.0178088245509183 1.25 1 0 0 I I #
model_id-kcp-attrib $-1 -1 $-1 $-1 $134 1 1021554181 1021554181 -1053884415 7 #
face $377 -1 $-1 $378 $379 $9 $-1 $380 forward single #
loop $-1 -1 $-1 $-1 $381 $134 #
plane-surface $-1 -1 $-1 0 0 1.25 0 0 1 1 0 0 forward_v I I I I #
loop $-1 -1 $-1 $-1 $382 $83 #
coedge $-1 -1 $-1 $139 $137 $381 $383 reversed $84 $-1 #
edge $384 -1 $-1 $151 0 $385 2.5 $137 $386 forward @7 unknown #
coedge $-1 -1 $-1 $381 $141 $138 $245 forward $239 $-1 #
edge $387 -1 $-1 $144 0 $247 8 $244 $388 forward @7 unknown #
attrib_edge_convexity-kcp-attrib $-1 -1 $389 $-1 $140 1 #
vertex $-1 -1 $-1 $245 $390 #
straight-curve $-1 -1 $-1 4 -0.29999999999999999 -1.25 0 0 1 I I #
coedge $-1 -1 $-1 $141 $381 $257 $391 forward $239 $-1 #
model_id-kcp-attrib $-1 -1 $392 $-1 $142 1 1021554181 1021554181 -1053884415 18 #
vertex $-1 -1 $-1 $142 $393 #
straight-curve $-1 -1 $-1 -4 0 1.25 0 -1 0 I I #
convexity-sys-attrib $-1 -1 $-1 $143 $89 #
point $-1 -1 $-1 -4 -0.29999999999999999 1.25 #
attrib_edge_convexity-kcp-attrib $-1 -1 $394 $-1 $147 1 #
straight-curve $-1 -1 $-1 4 -0.29999999999999999 -1.25 0 1 0 I I #
coedge $-1 -1 $-1 $149 $148 $249 $391 reversed $135 $-1 #
convexity-sys-attrib $-1 -1 $-1 $150 $92 #
point $-1 -1 $-1 4 0 -1.25 #
convexity-sys-attrib $-1 -1 $-1 $153 $94 #
point $-1 -1 $-1 4 -0.29999999999999999 -1.25 #
attrib_edge_convexity-kcp-attrib $-1 -1 $395 $-1 $156 1 #
straight-curve $-1 -1 $-1 -4 0 -1.25 0 0 1 I I #
face $396 -1 $-1 $-1 $176 $23 $-1 $397 reversed single #
loop $-1 -1 $-1 $-1 $280 $161 #
plane-surface $-1 -1 $-1 0 1.3178088245509181 0 0 -1 0 0 0 -1 forward_v I I I I #
coedge $-1 -1 $-1 $398 $278 $281 $399 forward $162 $-1 #
coedge $-1 -1 $-1 $284 $164 $165 $272 reversed $102 $-1 #
coedge $-1 -1 $-1 $278 $398 $164 $270 reversed $162 $-1 #
edge $-1 -1 $-1 $285 -1.25 $400 1.25 $269 $401 forward @7 unknown #
coedge $-1 -1 $-1 $166 $165 $398 $402 forward $67 $-1 #
edge $-1 -1 $-1 $276 -4 $400 4 $268 $403 forward @7 unknown #
coedge $-1 -1 $-1 $281 $280 $166 $274 reversed $265 $-1 #
edge $-1 -1 $-1 $404 -4 $275 4 $273 $405 forward @7 unknown #
vertex $-1 -1 $-1 $168 $406 #
vertex $-1 -1 $-1 $287 $407 #
straight-curve $-1 -1 $-1 4 0 -1.25 0 -1 0 I I #
coedge $-1 -1 $-1 $267 $269 $169 $279 reversed $162 $-1 #
edge $-1 -1 $-1 $282 -1.3178088245509181 $285 1.3178088245509181 $278 $408 forward @7 unknown #
coedge $-1 -1 $-1 $273 $170 $175 $288 forward $265 $-1 #
coedge $-1 -1 $-1 $170 $273 $267 $399 reversed $265 $-1 #
vertex $-1 -1 $-1 $171 $409 #
straight-curve $-1 -1 $-1 0 1.3178088245509181 1.25 -1 0 0 I I #
coedge $-1 -1 $-1 $172 $268 $174 $287 reversed $102 $-1 #
vertex $-1 -1 $-1 $279 $410 #
straight-curve $-1 -1 $-1 0 -1.3178088245509181 1.25 1 0 0 I I #
edge $-1 -1 $-1 $177 -1.25 $276 1.25 $174 $411 forward @7 unknown #
edge $-1 -1 $-1 $178 -1.25 $275 1.25 $175 $412 forward @7 unknown #
point $-1 -1 $-1 4 -1.3178088245509181 1.25 #
point $-1 -1 $-1 4 1.3178088245509181 1.25 #
face $-1 -1 $-1 $413 $414 $25 $-1 $293 reversed single #
loop $-1 -1 $-1 $-1 $415 $180 #
cone-surface $-1 -1 $-1 -1.4199282677244024e-016 0.51780882455091826 -1.25 0 0 -1 0.52768657322148604 0.60128768525703657 0 1 I I 0 1 0.79999999999999993 forward I I I I #
coedge $-1 -1 $-1 $300 $416 $302 $417 reversed $181 $-1 #
coedge $-1 -1 $-1 $418 $183 $419 $420 forward $110 $-1 #
coedge $-1 -1 $-1 $183 $418 $421 $422 reversed $110 $-1 #
coedge $-1 -1 $-1 $423 $424 $183 $298 forward $425 $-1 #
edge $-1 -1 $-1 $426 1.6319515417533255 $427 2.3680484582466743 $297 $428 forward @7 unknown #
coedge $-1 -1 $-1 $185 $184 $429 $430 reversed $71 $-1 #
coedge $-1 -1 $-1 $431 $294 $185 $301 forward $181 $-1 #
edge $-1 -1 $-1 $303 0 $432 2.5 $185 $433 forward @7 unknown #
coedge $-1 -1 $-1 $434 $186 $294 $417 forward $193 $-1 #
vertex $-1 -1 $-1 $187 $435 #
ellipse-curve $-1 -1 $-1 3.2639030835066514 -0.21780882455091888 -1.25 0 0 -1 0 -0.79999999999999938 0 1 I I #
coedge $-1 -1 $-1 $436 $429 $188 $306 forward $437 $-1 #
edge $-1 -1 $-1 $312 1.2639030835066514 $310 2 $305 $438 forward @7 unknown #
coedge $-1 -1 $-1 $439 $189 $192 $315 reversed $309 $-1 #
coedge $-1 -1 $-1 $189 $439 $436 $440 reversed $309 $-1 #
loop $-1 -1 $-1 $-1 $189 $441 #
vertex $-1 -1 $-1 $440 $442 #
straight-curve $-1 -1 $-1 4 -1.0178088245509183 -0.625 0 0 -1 I I #
vertex $-1 -1 $-1 $430 $443 #
straight-curve $-1 -1 $-1 3.2639030835066514 -1.0178088245509183 -1.25 0 0 1 I I #
coedge $-1 -1 $-1 $192 $434 $444 $445 forward $193 $-1 #
edge $-1 -1 $-1 $446 -1.3178088245509181 $194 1.0178088245509183 $307 $447 forward @7 unknown #
face $-1 -1 $-1 $448 $193 $25 $-1 $449 reversed single #
point $-1 -1 $-1 4 -1.0178088245509183 -1.25 #
point $-1 -1 $-1 3.2639030835066514 -1.0178088245509183 -1.25 #
face $-1 -1 $-1 $345 $450 $27 $-1 $451 forward single #
loop $-1 -1 $-1 $-1 $209 $197 #
cone-surface $-1 -1 $-1 3.2639030835066514 -0.21780882455091888 -0.59999999999999964 0 0 -1 0 -0.79999999999999938 0 1 I I 0 -1 0.79999999999999938 forward I I I I #
coedge $-1 -1 $-1 $452 $200 $333 $453 reversed $118 $-1 #
coedge $-1 -1 $-1 $200 $452 $201 $326 forward $118 $-1 #
edge $-1 -1 $-1 $334 -2.7676248804190671 $329 0.17077547763195011 $200 $454 forward @7 unknown #
coedge $-1 -1 $-1 $202 $201 $455 $456 reversed $75 $-1 #
edge $-1 -1 $-1 $457 0 $329 0.65000000000000036 $323 $458 forward @7 unknown #
coedge $-1 -1 $-1 $459 $336 $202 $328 reversed $450 $-1 #
edge $-1 -1 $-1 $460 0 $330 0.65000000000000036 $202 $461 forward @7 unknown #
vertex $-1 -1 $-1 $324 $462 #
vertex $-1 -1 $-1 $337 $463 #
ellipse-curve $-1 -1 $-1 -1.4199282677244024e-016 0.51780882455091826 -1.25 0 0 -1 0.52768657322148604 0.60128768525703657 0 1 I I #
coedge $-1 -1 $-1 $464 $206 $212 $344 reversed $198 $-1 #
coedge $-1 -1 $-1 $206 $464 $322 $453 forward $198 $-1 #
vertex $-1 -1 $-1 $207 $465 #
ellipse-curve $-1 -1 $-1 -3.2639030835066514 -0.21780882455091943 -1.25 0 0 1 0.52768657322148593 -0.60128768525703558 0 1 I I #
coedge $-1 -1 $-1 $327 $466 $208 $337 reversed $450 $-1 #
edge $-1 -1 $-1 $330 -1.6399756566574581 $340 1.2984247013935581 $336 $467 forward @7 unknown #
coedge $-1 -1 $-1 $468 $209 $466 $469 reversed $320 $-1 #
coedge $-1 -1 $-1 $209 $468 $211 $343 forward $320 $-1 #
vertex $-1 -1 $-1 $210 $470 #
ellipse-curve $-1 -1 $-1 3.2639030835066514 -0.21780882455091888 -1.25 0 0 1 0 -0.79999999999999938 0 1 I I #
coedge $-1 -1 $-1 $212 $211 $471 $472 reversed $213 $-1 #
edge $-1 -1 $-1 $473 0 $214 0.65000000000000036 $339 $474 forward @7 unknown #
edge $-1 -1 $-1 $475 0 $215 0.65000000000000036 $212 $476 forward @7 unknown #
face $-1 -1 $-1 $477 $213 $27 $-1 $478 forward single #
point $-1 -1 $-1 3.2639030835066514 -1.0178088245509183 -1.25 #
point $-1 -1 $-1 -3.2639030835066514 -1.0178088245509185 -1.25 #
face $-1 -1 $-1 $374 $479 $29 $-1 $480 forward single #
loop $-1 -1 $-1 $-1 $229 $217 #
cone-surface $-1 -1 $-1 -3.2639030835066514 -0.21780882455091943 0.59999999999999964 0 0 1 0.52768657322148593 -0.60128768525703558 0 1 I I 0 -1 0.79999999999999916 forward I I I I #
coedge $-1 -1 $-1 $481 $220 $362 $482 reversed $126 $-1 #
coedge $-1 -1 $-1 $220 $481 $221 $355 forward $126 $-1 #
edge $-1 -1 $-1 $363 -2.7676248804190662 $358 0.17077547763194978 $220 $483 forward @7 unknown #
coedge $-1 -1 $-1 $222 $221 $484 $485 reversed $79 $-1 #
edge $-1 -1 $-1 $486 0 $358 0.65000000000000036 $352 $487 forward @7 unknown #
coedge $-1 -1 $-1 $488 $365 $222 $357 reversed $479 $-1 #
edge $-1 -1 $-1 $489 0 $359 0.65000000000000036 $222 $490 forward @7 unknown #
vertex $-1 -1 $-1 $353 $491 #
vertex $-1 -1 $-1 $366 $492 #
ellipse-curve $-1 -1 $-1 -1.4199282677244024e-016 0.51780882455091826 1.25 0 0 1 0.52768657322148604 0.60128768525703657 0 1 I I #
coedge $-1 -1 $-1 $493 $226 $232 $373 reversed $218 $-1 #
coedge $-1 -1 $-1 $226 $493 $351 $482 forward $218 $-1 #
vertex $-1 -1 $-1 $227 $494 #
ellipse-curve $-1 -1 $-1 3.2639030835066514 -0.21780882455091888 1.25 0 0 -1 0 -0.79999999999999938 0 1 I I #
coedge $-1 -1 $-1 $356 $495 $228 $366 reversed $479 $-1 #
edge $-1 -1 $-1 $359 -1.6399756566574588 $369 1.2984247013935586 $365 $496 forward @7 unknown #
coedge $-1 -1 $-1 $497 $229 $495 $498 reversed $349 $-1 #
coedge $-1 -1 $-1 $229 $497 $231 $372 forward $349 $-1 #
vertex $-1 -1 $-1 $230 $499 #
ellipse-curve $-1 -1 $-1 -3.2639030835066514 -0.21780882455091943 1.25 0 0 -1 0.52768657322148593 -0.60128768525703558 0 1 I I #
coedge $-1 -1 $-1 $232 $231 $500 $501 reversed $233 $-1 #
edge $-1 -1 $-1 $502 0 $234 0.65000000000000036 $368 $503 forward @7 unknown #
edge $-1 -1 $-1 $504 0 $235 0.65000000000000036 $232 $505 forward @7 unknown #
face $-1 -1 $-1 $506 $233 $29 $-1 $507 forward single #
point $-1 -1 $-1 -3.2639030835066514 -1.0178088245509185 1.25 #
point $-1 -1 $-1 3.2639030835066514 -1.0178088245509183 1.25 #
model_id-kcp-attrib $-1 -1 $-1 $-1 $238 1 1021554181 1021554181 -1053884415 8 #
face $508 -1 $-1 $509 $510 $9 $-1 $511 forward single #
loop $-1 -1 $-1 $-1 $512 $238 #
plane-surface $-1 -1 $-1 0 0 0.59999999999999998 0 0 1 1 0 0 forward_v I I I I #
coedge $-1 -1 $-1 $249 $244 $242 $383 forward $239 $-1 #
coedge $-1 -1 $-1 $513 $514 $515 $516 forward $241 $-1 #
edge $517 -1 $-1 $247 0 $385 0.29999999999999999 $381 $518 forward @7 unknown #
attrib_edge_convexity-kcp-attrib $-1 -1 $519 $-1 $243 1 #
vertex $-1 -1 $-1 $391 $520 #
straight-curve $-1 -1 $-1 4 0 -1.25 0 0 1 I I #
model_id-kcp-attrib $-1 -1 $521 $-1 $245 1 1021554181 1021554181 -1053884415 17 #
straight-curve $-1 -1 $-1 -4 -0.29999999999999999 1.25 1 0 0 I I #
convexity-sys-attrib $-1 -1 $-1 $246 $140 #
point $-1 -1 $-1 4 -0.29999999999999999 1.25 #
edge $522 -1 $-1 $385 0 $251 8 $249 $523 forward @7 unknown #
attrib_edge_convexity-kcp-attrib $-1 -1 $524 $250 $142 1 #
point $-1 -1 $-1 -4 0 1.25 #
convexity-sys-attrib $-1 -1 $-1 $255 $147 #
convexity-sys-attrib $-1 -1 $-1 $262 $156 #
model_id-kcp-attrib $-1 -1 $-1 $-1 $264 1 1021554181 1021554181 -1053884414 5 #
plane-surface $-1 -1 $-1 4 0 0 -1 0 0 0 0 1 forward_v I I I I #
coedge $-1 -1 $-1 $269 $267 $271 $402 reversed $162 $-1 #
edge $-1 -1 $-1 $282 -1.25 $404 1.25 $281 $525 forward @7 unknown #
vertex $-1 -1 $-1 $402 $526 #
straight-curve $-1 -1 $-1 -4 -1.3178088245509181 0 0 0 -1 I I #
edge $-1 -1 $-1 $400 -1.3178088245509181 $404 1.3178088245509181 $398 $527 forward @7 unknown #
straight-curve $-1 -1 $-1 0 -1.3178088245509181 -1.25 -1 0 0 I I #
vertex $-1 -1 $-1 $274 $528 #
straight-curve $-1 -1 $-1 0 1.3178088245509181 -1.25 1 0 0 I I #
point $-1 -1 $-1 4 1.3178088245509181 -1.25 #
point $-1 -1 $-1 4 -1.3178088245509181 -1.25 #
straight-curve $-1 -1 $-1 -4 0 1.25 0 -1 0 I I #
point $-1 -1 $-1 -4 1.3178088245509181 1.25 #
point $-1 -1 $-1 -4 -1.3178088245509181 1.25 #
straight-curve $-1 -1 $-1 4 -1.3178088245509181 0 0 0 -1 I I #
straight-curve $-1 -1 $-1 4 1.3178088245509181 0 0 0 -1 I I #
face $-1 -1 $-1 $529 $530 $25 $-1 $531 reversed single #
loop $-1 -1 $-1 $-1 $532 $291 #
coedge $-1 -1 $-1 $533 $534 $535 $536 reversed $292 $-1 #
coedge $-1 -1 $-1 $294 $431 $537 $538 reversed $181 $-1 #
edge $-1 -1 $-1 $303 -1.2984247013935581 $539 1.6399756566574579 $302 $540 forward @7 unknown #
coedge $-1 -1 $-1 $296 $295 $541 $542 reversed $110 $-1 #
coedge $-1 -1 $-1 $543 $544 $295 $420 reversed $545 $-1 #
edge $-1 -1 $-1 $426 0 $546 2.5 $419 $547 forward @7 unknown #
coedge $-1 -1 $-1 $548 $549 $296 $422 forward $550 $-1 #
edge $-1 -1 $-1 $427 -0.625 $551 1.875 $421 $552 forward @7 unknown #
coedge $-1 -1 $-1 $553 $297 $549 $554 forward $425 $-1 #
coedge $-1 -1 $-1 $297 $555 $543 $556 forward $425 $-1 #
loop $-1 -1 $-1 $-1 $297 $557 #
vertex $-1 -1 $-1 $556 $558 #
vertex $-1 -1 $-1 $554 $559 #
straight-curve $-1 -1 $-1 -1.6319515417533259 -1.0178088245509191 -1.25 -1 3.3935773258047251e-016 0 I I #
coedge $-1 -1 $-1 $305 $560 $299 $430 forward $437 $-1 #
edge $-1 -1 $-1 $432 -0.72029738229806128 $312 0 $429 $561 forward @7 unknown #
coedge $-1 -1 $-1 $416 $300 $560 $562 reversed $181 $-1 #
vertex $-1 -1 $-1 $430 $563 #
straight-curve $-1 -1 $-1 2.7362165102851654 -0.8190965098079549 -1.25 0 0 1 I I #
coedge $-1 -1 $-1 $314 $302 $532 $564 forward $193 $-1 #
point $-1 -1 $-1 2.7362165102851654 -0.8190965098079549 -1.25 #
coedge $-1 -1 $-1 $565 $305 $308 $440 forward $437 $-1 #
loop $-1 -1 $-1 $-1 $305 $566 #
straight-curve $-1 -1 $-1 2 -1.0178088245509183 1.25 1 -3.7706414731163616e-017 0 I I #
coedge $-1 -1 $-1 $308 $307 $567 $568 reversed $309 $-1 #
edge $-1 -1 $-1 $310 -1.0178088245509183 $569 1.3178088245509181 $308 $570 forward @7 unknown #
face $-1 -1 $-1 $-1 $309 $25 $-1 $571 reversed single #
point $-1 -1 $-1 4 -1.0178088245509183 1.25 #
point $-1 -1 $-1 3.2639030835066514 -1.0178088245509183 1.25 #
coedge $-1 -1 $-1 $572 $567 $314 $445 reversed $573 $-1 #
edge $-1 -1 $-1 $574 -1.4199282677244024e-016 $446 4 $444 $575 forward @7 unknown #
vertex $-1 -1 $-1 $315 $576 #
straight-curve $-1 -1 $-1 4 0 -1.25 0 -1 0 I I #
face $-1 -1 $-1 $577 $578 $25 $-1 $579 forward single #
plane-surface $-1 -1 $-1 0 0 -1.25 0 0 1 1 0 0 forward_v I I I I #
loop $-1 -1 $-1 $-1 $336 $319 #
plane-surface $-1 -1 $-1 2.7362165102851659 -0.8190965098079549 -0.59999999999999964 0.65960821652685753 0.75160960657129605 0 0 0 -1 forward_v I I I I #
coedge $-1 -1 $-1 $323 $322 $580 $581 reversed $118 $-1 #
edge $-1 -1 $-1 $582 0 $334 0.65000000000000036 $333 $583 forward @7 unknown #
straight-curve $-1 -1 $-1 -0.65604306277646063 1.0064516015806224 -1.25 0.75160960657129605 0.65960821652685742 0 I I #
coedge $-1 -1 $-1 $580 $584 $325 $456 forward $585 $-1 #
edge $586 -1 $-1 $460 0 $457 1.4405947645961208 $325 $587 forward @7 unknown #
vertex $-1 -1 $-1 $456 $588 #
straight-curve $-1 -1 $-1 -0.52768657322148549 1.1190965098079551 -0.59999999999999964 0 0 -1 I I #
coedge $-1 -1 $-1 $466 $327 $584 $589 reversed $450 $-1 #
vertex $-1 -1 $-1 $589 $590 #
straight-curve $-1 -1 $-1 0.52768657322148593 1.1190965098079551 -0.59999999999999964 0 0 -1 I I #
point $-1 -1 $-1 -0.52768657322148549 1.1190965098079553 -1.25 #
point $-1 -1 $-1 0.52768657322148593 1.1190965098079548 -1.25 #
coedge $-1 -1 $-1 $333 $332 $591 $592 reversed $198 $-1 #
point $-1 -1 $-1 -2.7362165102851659 -0.81909650980795556 -1.25 #
coedge $-1 -1 $-1 $336 $459 $338 $469 forward $450 $-1 #
straight-curve $-1 -1 $-1 1.760308031308301 0.037355091772667548 -1.25 0.75160960657129605 -0.65960821652685753 0 I I #
coedge $-1 -1 $-1 $339 $338 $593 $594 reversed $320 $-1 #
edge $-1 -1 $-1 $595 0 $340 0.65000000000000036 $466 $596 forward @7 unknown #
point $-1 -1 $-1 2.7362165102851654 -0.8190965098079549 -1.25 #
coedge $-1 -1 $-1 $593 $591 $342 $472 forward $585 $-1 #
edge $597 -1 $-1 $475 -5.2639030835066514 $473 1.2639030835066514 $342 $598 forward @7 unknown #
vertex $-1 -1 $-1 $472 $599 #
straight-curve $-1 -1 $-1 3.2639030835066514 -1.0178088245509183 -0.59999999999999964 0 0 -1 I I #
vertex $-1 -1 $-1 $472 $600 #
straight-curve $-1 -1 $-1 -3.2639030835066514 -1.0178088245509185 -0.59999999999999964 0 0 -1 I I #
face $-1 -1 $-1 $-1 $585 $27 $-1 $601 forward single #
plane-surface $-1 -1 $-1 -3.2639030835066514 -1.0178088245509185 -0.59999999999999964 0 -1 0 0 0 -1 forward_v I I I I #
loop $-1 -1 $-1 $-1 $365 $348 #
plane-surface $-1 -1 $-1 -2.7362165102851659 -0.81909650980795556 0.59999999999999964 -0.65960821652685742 0.75160960657129605 0 0 0 1 forward_v I I I I #
coedge $-1 -1 $-1 $352 $351 $602 $603 reversed $126 $-1 #
edge $-1 -1 $-1 $604 0 $363 0.65000000000000036 $362 $605 forward @7 unknown #
straight-curve $-1 -1 $-1 0.65604306277646085 1.0064516015806222 1.25 -0.75160960657129605 0.65960821652685753 0 I I #
coedge $-1 -1 $-1 $602 $606 $354 $485 forward $607 $-1 #
edge $608 -1 $-1 $489 -1.4405947645961208 $486 0 $354 $609 forward @7 unknown #
vertex $-1 -1 $-1 $485 $610 #
straight-curve $-1 -1 $-1 0.52768657322148593 1.1190965098079548 0.59999999999999964 0 0 1 I I #
coedge $-1 -1 $-1 $495 $356 $606 $611 reversed $479 $-1 #
vertex $-1 -1 $-1 $611 $612 #
straight-curve $-1 -1 $-1 -0.52768657322148549 1.1190965098079553 0.59999999999999964 0 0 1 I I #
point $-1 -1 $-1 0.52768657322148593 1.1190965098079548 1.25 #
point $-1 -1 $-1 -0.52768657322148549 1.1190965098079553 1.25 #
coedge $-1 -1 $-1 $362 $361 $613 $614 reversed $218 $-1 #
point $-1 -1 $-1 2.7362165102851654 -0.8190965098079549 1.25 #
coedge $-1 -1 $-1 $365 $488 $367 $498 forward $479 $-1 #
straight-curve $-1 -1 $-1 -1.7603080313083008 0.037355091772666993 1.25 -0.75160960657129605 -0.65960821652685742 0 I I #
coedge $-1 -1 $-1 $368 $367 $615 $616 reversed $349 $-1 #
edge $-1 -1 $-1 $617 0 $369 0.65000000000000036 $495 $618 forward @7 unknown #
point $-1 -1 $-1 -2.7362165102851659 -0.81909650980795556 1.25 #
coedge $-1 -1 $-1 $615 $613 $371 $501 forward $607 $-1 #
edge $619 -1 $-1 $504 -1.2639030835066514 $502 5.2639030835066514 $371 $620 forward @7 unknown #
vertex $-1 -1 $-1 $501 $621 #
straight-curve $-1 -1 $-1 -3.2639030835066514 -1.0178088245509185 0.59999999999999964 0 0 1 I I #
vertex $-1 -1 $-1 $501 $622 #
straight-curve $-1 -1 $-1 3.2639030835066514 -1.0178088245509183 0.59999999999999964 0 0 1 I I #
face $-1 -1 $-1 $-1 $607 $29 $-1 $623 reversed single #
plane-surface $-1 -1 $-1 3.2639030835066514 -1.0178088245509183 0.59999999999999964 0 -1 0 0 0 -1 forward_v I I I I #
model_id-kcp-attrib $-1 -1 $-1 $-1 $378 1 1021554181 1021554181 -1053884415 9 #
face $624 -1 $-1 $625 $626 $9 $-1 $627 reversed single #
loop $-1 -1 $-1 $-1 $628 $378 #
plane-surface $-1 -1 $-1 0 2.5999999999999996 -0.59999999999999998 -0.65960821652685742 0.75160960657129605 0 -0.75160960657129605 -0.65960821652685742 0 forward_v I I I I #
coedge $-1 -1 $-1 $629 $630 $631 $632 forward $379 $-1 #
coedge $-1 -1 $-1 $633 $382 $634 $635 reversed $241 $-1 #
coedge $-1 -1 $-1 $382 $633 $636 $637 reversed $241 $-1 #
coedge $-1 -1 $-1 $638 $629 $382 $516 reversed $379 $-1 #
edge $639 -1 $-1 $640 0 $641 6.5278061670133027 $382 $642 forward @7 unknown #
model_id-kcp-attrib $-1 -1 $-1 $-1 $383 1 1021554181 1021554181 -1053884415 16 #
straight-curve $-1 -1 $-1 4 -0.29999999999999999 1.25 0 1 0 I I #
convexity-sys-attrib $-1 -1 $-1 $384 $243 #
point $-1 -1 $-1 4 0 1.25 #
attrib_edge_convexity-kcp-attrib $-1 -1 $643 $387 $245 1 #
attrib_edge_convexity-kcp-attrib $-1 -1 $644 $-1 $391 1 #
straight-curve $-1 -1 $-1 4 0 1.25 -1 0 0 I I #
convexity-sys-attrib $-1 -1 $-1 $392 $142 #
straight-curve $-1 -1 $-1 -4 1.3178088245509181 0 0 0 -1 I I #
point $-1 -1 $-1 -4 -1.3178088245509181 -1.25 #
straight-curve $-1 -1 $-1 -4 0 -1.25 0 1 0 I I #
point $-1 -1 $-1 -4 1.3178088245509181 -1.25 #
face $-1 -1 $-1 $645 $545 $25 $-1 $646 reversed single #
loop $-1 -1 $-1 $-1 $647 $413 #
plane-surface $-1 -1 $-1 -0.52768657322148549 1.1190965098079553 -1.25 -0.65960821652685742 0.75160960657129605 0 0 0 -1 forward_v I I I I #
coedge $-1 -1 $-1 $537 $648 $434 $564 reversed $414 $-1 #
coedge $-1 -1 $-1 $649 $415 $650 $651 reversed $292 $-1 #
coedge $-1 -1 $-1 $415 $649 $652 $653 reversed $292 $-1 #
coedge $-1 -1 $-1 $555 $553 $415 $536 forward $425 $-1 #
edge $-1 -1 $-1 $574 0.72029738229806095 $654 1.4405947645961208 $535 $655 forward @7 unknown #
coedge $-1 -1 $-1 $656 $532 $416 $538 forward $414 $-1 #
edge $-1 -1 $-1 $539 0 $657 2.5 $416 $658 forward @7 unknown #
vertex $-1 -1 $-1 $417 $659 #
straight-curve $-1 -1 $-1 1.7603080313083006 0.037355091772667437 -1.25 -0.75160960657129605 0.65960821652685753 0 I I #
coedge $-1 -1 $-1 $660 $661 $418 $542 forward $578 $-1 #
edge $-1 -1 $-1 $551 -2.3680484582466743 $546 -1.6319515417533255 $541 $662 forward @7 unknown #
coedge $-1 -1 $-1 $663 $419 $424 $556 reversed $545 $-1 #
coedge $-1 -1 $-1 $419 $663 $660 $664 reversed $545 $-1 #
loop $-1 -1 $-1 $-1 $543 $529 #
vertex $-1 -1 $-1 $664 $665 #
straight-curve $-1 -1 $-1 -3.2639030835066514 -1.0178088245509185 -1.25 0 0 1 I I #
coedge $-1 -1 $-1 $666 $421 $661 $667 reversed $550 $-1 #
coedge $-1 -1 $-1 $421 $666 $423 $554 reversed $550 $-1 #
loop $-1 -1 $-1 $-1 $421 $645 #
vertex $-1 -1 $-1 $542 $668 #
straight-curve $-1 -1 $-1 -4 -1.017808824550918 -0.625 0 0 1 I I #
coedge $-1 -1 $-1 $535 $423 $669 $670 forward $425 $-1 #
edge $-1 -1 $-1 $427 -1.0178088245509183 $671 1.3178088245509181 $549 $672 forward @7 unknown #
coedge $-1 -1 $-1 $424 $535 $647 $673 forward $425 $-1 #
edge $-1 -1 $-1 $674 9.5409791178724607e-016 $426 0.72029738229806162 $424 $675 forward @7 unknown #
face $-1 -1 $-1 $316 $425 $25 $-1 $449 reversed single #
point $-1 -1 $-1 -3.2639030835066514 -1.0178088245509185 -1.25 #
point $-1 -1 $-1 -4 -1.0178088245509183 -1.25 #
coedge $-1 -1 $-1 $429 $676 $431 $562 forward $437 $-1 #
ellipse-curve $-1 -1 $-1 3.2639030835066514 -0.21780882455091888 1.25 0 0 1 0 -0.79999999999999938 0 1 I I #
edge $-1 -1 $-1 $657 -1.6399756566574579 $432 1.2984247013935581 $560 $677 forward @7 unknown #
point $-1 -1 $-1 2.7362165102851654 -0.8190965098079549 1.25 #
edge $-1 -1 $-1 $539 0 $574 0.72029738229806095 $434 $655 forward @7 unknown #
coedge $-1 -1 $-1 $676 $436 $678 $679 forward $437 $-1 #
face $-1 -1 $-1 $680 $437 $25 $-1 $579 forward single #
coedge $-1 -1 $-1 $444 $678 $439 $568 forward $573 $-1 #
edge $-1 -1 $-1 $569 -1.25 $446 1.25 $439 $681 forward @7 unknown #
vertex $-1 -1 $-1 $440 $682 #
straight-curve $-1 -1 $-1 4 0 1.25 0 1 0 I I #
plane-surface $-1 -1 $-1 4 0 0 -1 0 0 0 0 1 forward_v I I I I #
coedge $-1 -1 $-1 $678 $444 $648 $651 reversed $573 $-1 #
loop $-1 -1 $-1 $-1 $572 $577 #
vertex $-1 -1 $-1 $445 $683 #
straight-curve $-1 -1 $-1 0 1.3178088245509181 -1.25 1 0 0 I I #
point $-1 -1 $-1 4 1.3178088245509181 -1.25 #
face $-1 -1 $-1 $566 $573 $25 $-1 $684 reversed single #
loop $-1 -1 $-1 $-1 $541 $448 #
plane-surface $-1 -1 $-1 0 0 1.25 0 0 1 1 0 0 forward_v I I I I #
coedge $-1 -1 $-1 $591 $455 $452 $581 forward $585 $-1 #
edge $685 -1 $-1 $457 -0.12130486139243582 $582 2.8170954966585815 $452 $686 forward @7 unknown #
vertex $-1 -1 $-1 $581 $687 #
straight-curve $-1 -1 $-1 -2.7362165102851659 -0.81909650980795556 -0.59999999999999964 0 0 -1 I I #
coedge $-1 -1 $-1 $455 $593 $459 $589 forward $585 $-1 #
loop $-1 -1 $-1 $-1 $471 $477 #
convexity-sys-attrib $-1 -1 $-1 $-1 $456 #
ellipse-curve $-1 -1 $-1 -1.4199282677244024e-016 0.51780882455091826 -0.59999999999999964 0 0 1 0.52768657322148604 0.60128768525703657 0 1 I I #
point $-1 -1 $-1 -0.52768657322148549 1.1190965098079553 -0.59999999999999964 #
edge $688 -1 $-1 $595 -1.3478953176330726 $460 1.5905050404179435 $459 $689 forward @7 unknown #
point $-1 -1 $-1 0.52768657322148593 1.1190965098079548 -0.59999999999999964 #
coedge $-1 -1 $-1 $471 $580 $464 $592 forward $585 $-1 #
edge $690 -1 $-1 $582 9.5409791178724607e-016 $475 0.72029738229806162 $464 $691 forward @7 unknown #
coedge $-1 -1 $-1 $584 $471 $468 $594 forward $585 $-1 #
edge $692 -1 $-1 $473 0 $595 0.72029738229806128 $468 $693 forward @7 unknown #
vertex $-1 -1 $-1 $594 $694 #
straight-curve $-1 -1 $-1 2.7362165102851659 -0.8190965098079549 -0.59999999999999964 0 0 -1 I I #
convexity-sys-attrib $-1 -1 $-1 $-1 $472 #
straight-curve $-1 -1 $-1 2 -1.0178088245509183 -0.59999999999999964 1 0 0 I I #
point $-1 -1 $-1 3.2639030835066514 -1.0178088245509183 -0.59999999999999964 #
point $-1 -1 $-1 -3.2639030835066514 -1.0178088245509185 -0.59999999999999964 #
plane-surface $-1 -1 $-1 -5.5511151231257827e-017 -0.36902545071260989 -0.59999999999999964 -1.7034804065129472e-032 -3.607018363173163e-031 1 1 0 1.7034804065129472e-032 forward_v I I I I #
coedge $-1 -1 $-1 $613 $484 $481 $603 forward $607 $-1 #
edge $695 -1 $-1 $486 -1.5905050404179435 $604 1.3478953176330726 $481 $696 forward @7 unknown #
vertex $-1 -1 $-1 $603 $697 #
straight-curve $-1 -1 $-1 2.7362165102851654 -0.8190965098079549 0.59999999999999964 0 0 1 I I #
coedge $-1 -1 $-1 $484 $615 $488 $611 forward $607 $-1 #
loop $-1 -1 $-1 $-1 $500 $506 #
convexity-sys-attrib $-1 -1 $-1 $-1 $485 #
ellipse-curve $-1 -1 $-1 -1.4199282677244024e-016 0.51780882455091826 0.59999999999999964 0 0 -1 0.52768657322148604 0.60128768525703657 0 1 I I #
point $-1 -1 $-1 0.52768657322148593 1.1190965098079548 0.59999999999999964 #
edge $698 -1 $-1 $617 -2.8170954966585815 $489 0.12130486139243582 $488 $699 forward @7 unknown #
point $-1 -1 $-1 -0.52768657322148549 1.1190965098079553 0.59999999999999964 #
coedge $-1 -1 $-1 $500 $602 $493 $614 forward $607 $-1 #
edge $700 -1 $-1 $604 -0.72029738229806128 $504 0 $493 $701 forward @7 unknown #
coedge $-1 -1 $-1 $606 $500 $497 $616 forward $607 $-1 #
edge $702 -1 $-1 $502 -0.72029738229806162 $617 -9.5409791178724607e-016 $497 $703 forward @7 unknown #
vertex $-1 -1 $-1 $616 $704 #
straight-curve $-1 -1 $-1 -2.7362165102851659 -0.81909650980795556 0.59999999999999964 0 0 1 I I #
convexity-sys-attrib $-1 -1 $-1 $-1 $501 #
straight-curve $-1 -1 $-1 2 -1.0178088245509183 0.59999999999999964 -1 0 0 I I #
point $-1 -1 $-1 -3.2639030835066514 -1.0178088245509185 0.59999999999999964 #
point $-1 -1 $-1 3.2639030835066514 -1.0178088245509183 0.59999999999999964 #
plane-surface $-1 -1 $-1 1.3877787807814457e-017 -0.36902545071260984 0.59999999999999942 1.7034804065129496e-032 1.7932034148346586e-031 1 1 0 -1.7034804065129496e-032 forward_v I I I I #
model_id-kcp-attrib $-1 -1 $-1 $-1 $509 1 1021554181 1021554181 -1053884415 10 #
face $705 -1 $-1 $706 $707 $9 $-1 $708 forward single #
loop $-1 -1 $-1 $-1 $709 $509 #
plane-surface $-1 -1 $-1 0 0 -0.59999999999999998 0 0 1 1 0 0 forward_v I I I I #
coedge $-1 -1 $-1 $710 $711 $712 $713 forward $510 $-1 #
coedge $-1 -1 $-1 $515 $512 $714 $715 forward $379 $-1 #
coedge $-1 -1 $-1 $512 $716 $717 $718 forward $379 $-1 #
coedge $-1 -1 $-1 $711 $710 $512 $632 reversed $510 $-1 #
edge $719 -1 $-1 $720 -1.3794472495110085e-015 $721 2.9384003580510152 $512 $722 forward @7 unknown #
coedge $-1 -1 $-1 $514 $513 $723 $724 forward $241 $-1 #
coedge $-1 -1 $-1 $714 $725 $513 $635 forward $726 $-1 #
edge $727 -1 $-1 $728 0 $641 1.2000000000000002 $513 $729 forward @7 unknown #
coedge $-1 -1 $-1 $730 $731 $514 $637 forward $732 $-1 #
edge $733 -1 $-1 $640 0 $734 1.2000000000000002 $514 $735 forward @7 unknown #
coedge $-1 -1 $-1 $716 $515 $731 $736 forward $379 $-1 #
attrib_edge_convexity-kcp-attrib $-1 -1 $737 $-1 $516 2 #
vertex $-1 -1 $-1 $637 $738 #
vertex $-1 -1 $-1 $635 $739 #
straight-curve $-1 -1 $-1 3.2639030835066514 0 0.60000000000000009 -1 0 0 I I #
convexity-sys-attrib $-1 -1 $-1 $521 $245 #
convexity-sys-attrib $-1 -1 $-1 $522 $391 #
face $-1 -1 $-1 $557 $550 $25 $-1 $740 reversed single #
cone-surface $-1 -1 $-1 -3.2639030835066514 -0.21780882455091943 -1.25 0 0 -1 0.52768657322148593 -0.60128768525703558 0 1 I I 0 -1 0.79999999999999916 forward I I I I #
coedge $-1 -1 $-1 $652 $741 $555 $673 reversed $530 $-1 #
coedge $-1 -1 $-1 $532 $656 $533 $651 forward $414 $-1 #
coedge $-1 -1 $-1 $534 $533 $742 $743 reversed $292 $-1 #
coedge $-1 -1 $-1 $669 $744 $572 $651 forward $745 $-1 #
edge $-1 -1 $-1 $746 -2.5 $574 0 $650 $747 forward @7 unknown #
coedge $-1 -1 $-1 $748 $647 $534 $653 forward $530 $-1 #
edge $-1 -1 $-1 $654 0 $749 2.5 $534 $750 forward @7 unknown #
vertex $-1 -1 $-1 $536 $751 #
ellipse-curve $-1 -1 $-1 -1.4199282677244024e-016 0.51780882455091826 -1.25 0 0 1 0.52768657322148604 0.60128768525703657 0 1 I I #
coedge $-1 -1 $-1 $648 $537 $676 $752 reversed $414 $-1 #
vertex $-1 -1 $-1 $562 $753 #
straight-curve $-1 -1 $-1 0.52768657322148593 1.1190965098079548 -1.25 0 0 1 I I #
point $-1 -1 $-1 0.52768657322148593 1.1190965098079548 -1.25 #
coedge $-1 -1 $-1 $754 $541 $544 $664 forward $578 $-1 #
coedge $-1 -1 $-1 $541 $755 $548 $667 forward $578 $-1 #
straight-curve $-1 -1 $-1 -1.6319515417533259 -1.0178088245509191 1.25 1 -3.3935773258047251e-016 0 I I #
coedge $-1 -1 $-1 $544 $543 $741 $756 forward $545 $-1 #
edge $-1 -1 $-1 $546 -0.72029738229806162 $757 -9.5409791178724607e-016 $660 $758 forward @7 unknown #
point $-1 -1 $-1 -3.2639030835066514 -1.0178088245509185 1.25 #
coedge $-1 -1 $-1 $549 $548 $759 $760 forward $550 $-1 #
edge $-1 -1 $-1 $761 -1.3178088245509181 $551 1.0178088245509183 $548 $762 forward @7 unknown #
point $-1 -1 $-1 -4 -1.0178088245509183 1.25 #
coedge $-1 -1 $-1 $759 $650 $553 $670 reversed $745 $-1 #
edge $-1 -1 $-1 $671 -4 $574 -1.4199282677244024e-016 $669 $575 forward @7 unknown #
vertex $-1 -1 $-1 $670 $763 #
straight-curve $-1 -1 $-1 -4 0 -1.25 0 1 0 I I #
edge $-1 -1 $-1 $654 -0.17077547763195011 $674 2.7676248804190671 $555 $764 forward @7 unknown #
vertex $-1 -1 $-1 $673 $765 #
ellipse-curve $-1 -1 $-1 -3.2639030835066514 -0.21780882455091943 -1.25 0 0 -1 0.52768657322148593 -0.60128768525703558 0 1 I I #
coedge $-1 -1 $-1 $560 $565 $656 $752 forward $437 $-1 #
straight-curve $-1 -1 $-1 1.7603080313083006 0.037355091772667437 1.2500000000000002 0.75160960657129605 -0.65960821652685753 0 I I #
coedge $-1 -1 $-1 $567 $572 $565 $679 reversed $573 $-1 #
edge $-1 -1 $-1 $569 -4 $746 1.4199282677244024e-016 $678 $766 forward @7 unknown #
face $-1 -1 $-1 $441 $745 $25 $-1 $684 reversed single #
straight-curve $-1 -1 $-1 4 1.3178088245509181 0 0 0 -1 I I #
point $-1 -1 $-1 4 1.3178088245509181 1.25 #
point $-1 -1 $-1 -1.4199282677244024e-016 1.3178088245509181 -1.25 #
plane-surface $-1 -1 $-1 0 1.3178088245509181 0 0 -1 0 0 0 -1 forward_v I I I I #
convexity-sys-attrib $-1 -1 $-1 $-1 $581 #
straight-curve $-1 -1 $-1 -0.6188604723678397 1.039082826528853 -0.59999999999999964 -0.75160960657129605 -0.65960821652685742 0 I I #
point $-1 -1 $-1 -2.7362165102851659 -0.81909650980795556 -0.59999999999999964 #
convexity-sys-attrib $-1 -1 $-1 $-1 $589 #
straight-curve $-1 -1 $-1 1.7231254408996799 0.069986316720898167 -0.59999999999999964 -0.75160960657129605 0.65960821652685753 0 I I #
convexity-sys-attrib $-1 -1 $-1 $-1 $592 #
ellipse-curve $-1 -1 $-1 -3.2639030835066514 -0.21780882455091943 -0.59999999999999964 0 0 -1 0.52768657322148593 -0.60128768525703558 0 1 I I #
convexity-sys-attrib $-1 -1 $-1 $-1 $594 #
ellipse-curve $-1 -1 $-1 3.2639030835066514 -0.21780882455091888 -0.59999999999999964 0 0 -1 0 -0.79999999999999938 0 1 I I #
point $-1 -1 $-1 2.7362165102851654 -0.8190965098079549 -0.59999999999999964 #
convexity-sys-attrib $-1 -1 $-1 $-1 $603 #
straight-curve $-1 -1 $-1 1.7231254408996799 0.069986316720898167 0.59999999999999964 0.75160960657129605 -0.65960821652685753 0 I I #
point $-1 -1 $-1 2.7362165102851654 -0.8190965098079549 0.59999999999999964 #
convexity-sys-attrib $-1 -1 $-1 $-1 $611 #
straight-curve $-1 -1 $-1 -0.6188604723678397 1.039082826528853 0.59999999999999964 0.75160960657129605 0.65960821652685742 0 I I #
convexity-sys-attrib $-1 -1 $-1 $-1 $614 #
ellipse-curve $-1 -1 $-1 3.2639030835066514 -0.21780882455091888 0.59999999999999964 0 0 1 0 -0.79999999999999938 0 1 I I #
convexity-sys-attrib $-1 -1 $-1 $-1 $616 #
ellipse-curve $-1 -1 $-1 -3.2639030835066514 -0.21780882455091943 0.59999999999999964 0 0 1 0.52768657322148593 -0.60128768525703558 0 1 I I #
point $-1 -1 $-1 -2.7362165102851659 -0.81909650980795556 0.59999999999999964 #
model_id-kcp-attrib $-1 -1 $-1 $-1 $625 1 1021554181 1021554181 -1053884415 11 #
face $767 -1 $-1 $768 $732 $9 $-1 $769 reversed single #
loop $-1 -1 $-1 $-1 $770 $625 #
plane-surface $-1 -1 $-1 2.9626449885282784 0 -0.59999999999999998 0.65960821652685742 0.75160960657129605 0 -0.75160960657129605 0.65960821652685742 0 forward_v I I I I #
coedge $-1 -1 $-1 $771 $772 $773 $774 reversed $626 $-1 #
coedge $-1 -1 $-1 $631 $628 $775 $776 forward $510 $-1 #
coedge $-1 -1 $-1 $628 $631 $777 $778 forward $510 $-1 #
coedge $-1 -1 $-1 $772 $779 $628 $713 reversed $626 $-1 #
edge $780 -1 $-1 $781 1.4203040741209505e-015 $782 2.9384003580510178 $712 $783 forward @7 unknown #
coedge $-1 -1 $-1 $775 $634 $629 $715 reversed $726 $-1 #
edge $784 -1 $-1 $721 -1.0691058840368816e-048 $641 0.72029738229806173 $629 $785 forward @7 unknown #
coedge $-1 -1 $-1 $630 $638 $770 $786 forward $379 $-1 #
coedge $-1 -1 $-1 $787 $777 $630 $718 reversed $788 $-1 #
edge $789 -1 $-1 $790 0 $720 1.440594764596121 $630 $791 forward @7 unknown #
attrib_edge_convexity-kcp-attrib $-1 -1 $792 $-1 $632 1 #
vertex $-1 -1 $-1 $718 $793 #
vertex $-1 -1 $-1 $715 $794 #
straight-curve $-1 -1 $-1 -0.52768657322148638 2.1369053343588722 0.59999999999999998 -0.75160960657129605 -0.65960821652685742 0 I I #
coedge $-1 -1 $-1 $779 $771 $633 $724 reversed $626 $-1 #
edge $795 -1 $-1 $728 0 $734 6.5278061670133027 $633 $796 forward @7 unknown #
coedge $-1 -1 $-1 $634 $775 $779 $797 reversed $726 $-1 #
loop $-1 -1 $-1 $-1 $714 $798 #
attrib_edge_convexity-kcp-attrib $-1 -1 $799 $-1 $635 4 #
vertex $-1 -1 $-1 $724 $800 #
straight-curve $-1 -1 $-1 -3.2639030835066514 0 -0.59999999999999998 0 0 1 I I #
coedge $-1 -1 $-1 $801 $636 $771 $802 reversed $732 $-1 #
coedge $-1 -1 $-1 $636 $801 $638 $736 reversed $732 $-1 #
loop $-1 -1 $-1 $-1 $730 $706 #
attrib_edge_convexity-kcp-attrib $-1 -1 $803 $-1 $637 4 #
vertex $-1 -1 $-1 $637 $804 #
straight-curve $-1 -1 $-1 3.2639030835066514 0 0.60000000000000009 0 0 -1 I I #
edge $805 -1 $-1 $640 0 $806 0.72029738229806106 $638 $807 forward @7 unknown #
convexity-sys-attrib $-1 -1 $-1 $639 $516 #
point $-1 -1 $-1 3.2639030835066514 -5.5511151231257827e-017 0.60000000000000009 #
point $-1 -1 $-1 -3.2639030835066514 5.5511151231257827e-017 0.60000000000000031 #
plane-surface $-1 -1 $-1 -4 0 0 1 0 0 0 0 -1 forward_v I I I I #
coedge $-1 -1 $-1 $647 $748 $663 $756 reversed $530 $-1 #
coedge $-1 -1 $-1 $755 $754 $649 $743 forward $578 $-1 #
edge $-1 -1 $-1 $749 -1.4405947645961208 $746 -0.72029738229806095 $742 $808 forward @7 unknown #
coedge $-1 -1 $-1 $650 $759 $755 $809 reversed $745 $-1 #
loop $-1 -1 $-1 $-1 $650 $680 #
vertex $-1 -1 $-1 $809 $810 #
straight-curve $-1 -1 $-1 -1.4199282677244024e-016 1.3178088245509181 -1.25 0 0 -1 I I #
coedge $-1 -1 $-1 $741 $652 $754 $811 reversed $530 $-1 #
vertex $-1 -1 $-1 $743 $812 #
straight-curve $-1 -1 $-1 -0.52768657322148549 1.1190965098079553 -1.25 0 0 1 I I #
point $-1 -1 $-1 -0.52768657322148549 1.1190965098079553 -1.25 #
edge $-1 -1 $-1 $746 -0.72029738229806095 $657 0 $676 $808 forward @7 unknown #
point $-1 -1 $-1 0.52768657322148593 1.1190965098079548 1.25 #
coedge $-1 -1 $-1 $742 $660 $748 $811 forward $578 $-1 #
coedge $-1 -1 $-1 $661 $742 $744 $809 forward $578 $-1 #
edge $-1 -1 $-1 $674 0 $757 2.5 $741 $813 forward @7 unknown #
vertex $-1 -1 $-1 $811 $814 #
ellipse-curve $-1 -1 $-1 -3.2639030835066514 -0.21780882455091943 1.25 0 0 1 0.52768657322148593 -0.60128768525703558 0 1 I I #
coedge $-1 -1 $-1 $744 $669 $666 $760 reversed $745 $-1 #
edge $-1 -1 $-1 $761 -1.25 $671 1.25 $759 $815 forward @7 unknown #
vertex $-1 -1 $-1 $809 $816 #
straight-curve $-1 -1 $-1 -4 0 1.25 0 -1 0 I I #
point $-1 -1 $-1 -4 1.3178088245509181 -1.25 #
straight-curve $-1 -1 $-1 -0.65604306277646063 1.0064516015806224 -1.25 -0.75160960657129605 -0.65960821652685742 0 I I #
point $-1 -1 $-1 -2.7362165102851659 -0.81909650980795556 -1.25 #
straight-curve $-1 -1 $-1 0 1.3178088245509181 1.25 -1 0 0 I I #
model_id-kcp-attrib $-1 -1 $-1 $-1 $706 1 1021554181 1021554181 -1053884415 12 #
face $817 -1 $-1 $798 $788 $9 $-1 $818 forward single #
cone-surface $-1 -1 $-1 3.2639030835066514 0.79999999999999993 1.2549525498197203 0 0 -1 -0.52768657322148593 -0.6012876852570368 0 1 I I 0 1 0.80000000000000004 forward I I I I #
coedge $-1 -1 $-1 $819 $820 $716 $786 reversed $707 $-1 #
coedge $-1 -1 $-1 $723 $709 $730 $802 forward $626 $-1 #
coedge $-1 -1 $-1 $709 $712 $821 $822 forward $626 $-1 #
coedge $-1 -1 $-1 $820 $819 $709 $774 forward $707 $-1 #
edge $823 -1 $-1 $824 -1.1069507701279582e-015 $825 2.9384003580510152 $709 $826 forward @7 unknown #
coedge $-1 -1 $-1 $725 $714 $710 $776 reversed $726 $-1 #
edge $827 -1 $-1 $782 0 $721 1.2000000000000002 $710 $828 forward @7 unknown #
coedge $-1 -1 $-1 $717 $821 $711 $778 reversed $788 $-1 #
edge $829 -1 $-1 $720 1.110223024625157e-016 $781 1.2 $711 $830 forward @7 unknown #
coedge $-1 -1 $-1 $712 $723 $725 $797 forward $626 $-1 #
attrib_edge_convexity-kcp-attrib $-1 -1 $831 $-1 $713 1 #
vertex $-1 -1 $-1 $822 $832 #
vertex $-1 -1 $-1 $713 $833 #
straight-curve $-1 -1 $-1 -0.52768657322148471 2.136905334358874 -0.59999999999999998 -0.75160960657129605 -0.65960821652685753 0 I I #
attrib_edge_convexity-kcp-attrib $-1 -1 $834 $-1 $715 1 #
ellipse-curve $-1 -1 $-1 -3.2639030835066509 0.79999999999999882 0.59999999999999998 9.1539028652506807e-017 -1.0430678634311363e-016 -1 0.52768657322148549 -0.60128768525703558 1.1102230246251565e-016 1 I I #
edge $835 -1 $-1 $806 1.1252585758584597e-015 $790 2.938400358051017 $716 $836 forward @7 unknown #
coedge $-1 -1 $-1 $821 $717 $820 $837 forward $788 $-1 #
loop $-1 -1 $-1 $-1 $717 $768 #
attrib_edge_convexity-kcp-attrib $-1 -1 $838 $-1 $718 1 #
vertex $-1 -1 $-1 $718 $839 #
ellipse-curve $-1 -1 $-1 -1.1102230246251565e-016 1.5356176491018365 0.59999999999999998 0 0 1 0.52768657322148604 0.60128768525703657 0 1 I I #
convexity-sys-attrib $-1 -1 $-1 $719 $632 #
point $-1 -1 $-1 -0.52768657322148571 2.1369053343588735 0.60000000000000009 #
point $-1 -1 $-1 -2.7362165102851654 0.19871231474296325 0.60000000000000009 #
attrib_edge_convexity-kcp-attrib $-1 -1 $840 $-1 $724 2 #
straight-curve $-1 -1 $-1 -3.2639030835066514 0 -0.59999999999999998 1 0 0 I I #
edge $841 -1 $-1 $728 0 $782 0.72029738229806228 $779 $842 forward @7 unknown #
face $843 -1 $-1 $-1 $726 $9 $-1 $844 reversed single #
convexity-sys-attrib $-1 -1 $-1 $727 $635 #
point $-1 -1 $-1 -3.2639030835066514 5.5511151231257827e-017 -0.59999999999999998 #
coedge $-1 -1 $-1 $731 $730 $819 $845 reversed $732 $-1 #
edge $846 -1 $-1 $824 -1.0691058840368827e-048 $734 0.72029738229806228 $771 $847 forward @7 unknown #
convexity-sys-attrib $-1 -1 $-1 $733 $637 #
point $-1 -1 $-1 3.2639030835066514 -5.5511151231257827e-017 -0.60000000000000009 #
attrib_edge_convexity-kcp-attrib $-1 -1 $848 $-1 $736 1 #
vertex $-1 -1 $-1 $786 $849 #
ellipse-curve $-1 -1 $-1 3.2639030835066514 0.79999999999999938 0.59999999999999998 0 -1.3877787807814467e-016 -1 0 -0.79999999999999938 1.1102230246251565e-016 1 I I #
ellipse-curve $-1 -1 $-1 -1.4199282677244024e-016 0.51780882455091826 1.25 0 0 -1 0.52768657322148604 0.60128768525703657 0 1 I I #
edge $-1 -1 $-1 $746 1.4199282677244024e-016 $761 4 $744 $766 forward @7 unknown #
point $-1 -1 $-1 -1.4199282677244024e-016 1.3178088245509181 1.25 #
edge $-1 -1 $-1 $757 -2.7676248804190671 $749 0.17077547763195011 $754 $850 forward @7 unknown #
point $-1 -1 $-1 -0.52768657322148549 1.1190965098079553 1.25 #
straight-curve $-1 -1 $-1 -2.7362165102851659 -0.81909650980795556 -1.25 0 0 1 I I #
point $-1 -1 $-1 -2.7362165102851659 -0.81909650980795556 1.25 #
straight-curve $-1 -1 $-1 -4 1.3178088245509181 0 0 0 -1 I I #
point $-1 -1 $-1 -4 1.3178088245509181 1.25 #
model_id-kcp-attrib $-1 -1 $-1 $-1 $768 1 1021554181 1021554181 -1053884415 13 #
cone-surface $-1 -1 $-1 0 1.5356176491018363 0.61387773008278101 0 0 -1 0.52768657322148593 0.60128768525703669 0 1 I I 0 1 0.79999999999999993 forward I I I I #
coedge $-1 -1 $-1 $773 $770 $801 $845 forward $707 $-1 #
coedge $-1 -1 $-1 $770 $773 $787 $837 reversed $707 $-1 #
coedge $-1 -1 $-1 $777 $787 $772 $822 reversed $788 $-1 #
edge $851 -1 $-1 $781 -4.2764235361475155e-048 $825 1.4405947645961215 $772 $852 forward @7 unknown #
attrib_edge_convexity-kcp-attrib $-1 -1 $853 $-1 $774 1 #
vertex $-1 -1 $-1 $802 $854 #
vertex $-1 -1 $-1 $822 $855 #
straight-curve $-1 -1 $-1 2.7362165102851645 0.1987123147429638 -0.59999999999999998 -0.75160960657129605 0.65960821652685742 0 I I #
attrib_edge_convexity-kcp-attrib $-1 -1 $856 $-1 $776 4 #
straight-curve $-1 -1 $-1 -2.736216510285165 0.19871231474296325 -0.59999999999999998 0 0 1 I I #
attrib_edge_convexity-kcp-attrib $-1 -1 $857 $-1 $778 3 #
straight-curve $-1 -1 $-1 -0.52768657322148549 2.1369053343588731 0.6000000000000002 -1.8503717077085943e-016 0 -1 I I #
convexity-sys-attrib $-1 -1 $-1 $780 $713 #
point $-1 -1 $-1 -0.52768657322148582 2.1369053343588731 -0.59999999999999976 #
point $-1 -1 $-1 -2.7362165102851654 0.19871231474296325 -0.59999999999999998 #
convexity-sys-attrib $-1 -1 $-1 $784 $715 #
attrib_edge_convexity-kcp-attrib $-1 -1 $858 $-1 $786 1 #
straight-curve $-1 -1 $-1 2.7362165102851663 0.19871231474296244 0.59999999999999998 -0.75160960657129605 0.65960821652685742 0 I I #
edge $859 -1 $-1 $790 0 $825 1.2 $820 $860 forward @7 unknown #
convexity-sys-attrib $-1 -1 $-1 $789 $718 #
point $-1 -1 $-1 0.52768657322148593 2.1369053343588731 0.59999999999999998 #
convexity-sys-attrib $-1 -1 $-1 $795 $724 #
attrib_edge_convexity-kcp-attrib $-1 -1 $861 $-1 $797 1 #
ellipse-curve $-1 -1 $-1 -3.2639030835066509 0.79999999999999827 -0.59999999999999998 0 0 1 -4.4408920985006262e-016 -0.79999999999999827 0 1 I I #
model_id-kcp-attrib $-1 -1 $-1 $-1 $798 1 1021554181 1021554181 -1053884415 14 #
cone-surface $-1 -1 $-1 -3.2639030835066514 0.79999999999999993 -1.254952577089226 0 0 1 0.52768657322148593 -0.60128768525703669 0 1 I I 0 1 0.79999999999999993 forward I I I I #
edge $862 -1 $-1 $806 0 $824 1.2000000000000002 $819 $863 forward @7 unknown #
attrib_edge_convexity-kcp-attrib $-1 -1 $864 $-1 $802 1 #
ellipse-curve $-1 -1 $-1 3.2639030835066509 0.79999999999999816 -0.59999999999999998 -9.1539028652506906e-017 -1.0430678634311364e-016 1 -0.52768657322148549 -0.60128768525703502 -1.1102230246251565e-016 1 I I #
convexity-sys-attrib $-1 -1 $-1 $805 $736 #
point $-1 -1 $-1 2.7362165102851654 0.19871231474296314 0.59999999999999998 #
straight-curve $-1 -1 $-1 -0.65604306277646063 1.0064516015806224 1.25 0.75160960657129605 0.65960821652685742 0 I I #
attrib_edge_convexity-kcp-attrib $-1 -1 $865 $-1 $822 1 #
ellipse-curve $-1 -1 $-1 8.3266726846886741e-017 1.5356176491018365 -0.59999999999999998 -1.8307805730501329e-016 2.0861357268622706e-016 -1 -0.52768657322148593 0.60128768525703657 2.2204460492503131e-016 1 I I #
convexity-sys-attrib $-1 -1 $-1 $823 $774 #
point $-1 -1 $-1 2.7362165102851654 0.19871231474296314 -0.60000000000000009 #
point $-1 -1 $-1 0.52768657322148593 2.1369053343588731 -0.59999999999999998 #
convexity-sys-attrib $-1 -1 $-1 $827 $776 #
convexity-sys-attrib $-1 -1 $-1 $829 $778 #
convexity-sys-attrib $-1 -1 $-1 $835 $786 #
attrib_edge_convexity-kcp-attrib $-1 -1 $866 $-1 $837 3 #
straight-curve $-1 -1 $-1 0.52768657322148593 2.1369053343588731 0.59999999999999998 0 0 -1 I I #
convexity-sys-attrib $-1 -1 $-1 $841 $797 #
attrib_edge_convexity-kcp-attrib $-1 -1 $867 $-1 $845 4 #
straight-curve $-1 -1 $-1 2.7362165102851654 0.19871231474296314 0.59999999999999998 0 0 -1 I I #
convexity-sys-attrib $-1 -1 $-1 $846 $802 #
convexity-sys-attrib $-1 -1 $-1 $851 $822 #
convexity-sys-attrib $-1 -1 $-1 $859 $837 #
convexity-sys-attrib $-1 -1 $-1 $862 $845 #
End-of-ACIS-data 