700 0 2 0           
24 FBMach with ACIS - 7.0.3 13 ACIS 7.0.3 NT 24 Thu May 16 15:07:37 2002 
1 9.9999999999999995e-007 1e-010 
body $2 -1 $-1 $3 $-1 $4 #
bdycol-kcp $-1 -1 1 2 $5 $6 #
model_id-kcp-attrib $-1 -1 $-1 $-1 $0 1 1021576057 1021576057 -1861025791 1 #
lump $-1 -1 $-1 $-1 $7 $0 #
transform $-1 -1 1 0 0 0 1 0 0 0 1 0 0 0 1 rotate no_reflect no_shear #
body $8 -1 $-1 $9 $-1 $10 #
body $11 -1 $-1 $12 $-1 $13 #
shell $-1 -1 $-1 $-1 $-1 $14 $-1 $3 #
model_id-kcp-attrib $-1 -1 $-1 $-1 $5 1 1021576057 1021576057 -1861025790 1 #
lump $-1 -1 $-1 $-1 $15 $5 #
transform $-1 -1 1 0 0 0 1 0 0 0 1 2.54 4.4450000000000003 6.3499999999999996 1 no_rotate no_reflect no_shear #
rgb_color-st-attrib $-1 -1 $16 $-1 $6 0.5 1 1 #
lump $-1 -1 $-1 $-1 $17 $6 #
transform $-1 -1 1 0 0 0 1 0 0 0 1 2.54 4.4450000000000003 6.3499999999999996 1 no_rotate no_reflect no_shear #
face $18 -1 $-1 $19 $20 $7 $-1 $21 reversed single #
shell $-1 -1 $-1 $-1 $-1 $22 $-1 $9 #
model_id-kcp-attrib $-1 -1 $-1 $11 $6 1 1021576057 1021576057 -1850540029 1 #
shell $-1 -1 $-1 $-1 $-1 $23 $-1 $12 #
model_id-kcp-attrib $-1 -1 $-1 $-1 $14 1 1021576057 1021576057 -1861025791 2 #
face $24 -1 $-1 $25 $26 $7 $-1 $27 forward single #
loop $-1 -1 $-1 $-1 $28 $14 #
plane-surface $-1 -1 $-1 0 0 0 0 0 1 1 0 0 forward_v I I I I #
face $29 -1 $-1 $30 $31 $15 $-1 $32 forward single #
face $-1 -1 $-1 $33 $34 $17 $-1 $35 reversed single #
model_id-kcp-attrib $-1 -1 $-1 $-1 $19 1 1021576057 1021576057 -1861025791 3 #
face $36 -1 $-1 $37 $38 $7 $-1 $39 forward single #
loop $-1 -1 $-1 $-1 $40 $19 #
cone-surface $-1 -1 $-1 2.54 4.4449999999999985 0 0 0 1 6.3499999999999996 0 0 1 I I 0 1 6.3499999999999996 forward I I I I #
coedge $-1 -1 $-1 $41 $42 $43 $44 reversed $20 $-1 #
model_id-kcp-attrib $-1 -1 $-1 $-1 $22 1 1021576057 1021576057 -1861025790 3 #
face $45 -1 $-1 $46 $47 $15 $-1 $48 reversed single #
loop $-1 -1 $-1 $-1 $49 $22 #
plane-surface $-1 -1 $-1 0 0 6.3499999999999996 0 0 1 1 0 0 forward_v I I I I #
face $-1 -1 $-1 $50 $51 $17 $-1 $35 reversed single #
loop $-1 -1 $-1 $-1 $52 $23 #
cone-surface $-1 -1 $-1 -2.6645352591003757e-015 1.7763568394002505e-015 -6.3499999999999996 0 0 -1 -3.9968028886505635e-015 -6.3500000000000032 0 1 I I 0 1 6.3500000000000032 forward I I I I #
model_id-kcp-attrib $-1 -1 $-1 $-1 $25 1 1021576057 1021576057 -1861025791 4 #
face $53 -1 $-1 $54 $55 $7 $-1 $56 forward single #
loop $-1 -1 $-1 $-1 $57 $25 #
cone-surface $-1 -1 $-1 2.54 4.4450000000000003 0 0 0 1 6.3499999999999996 0 0 1 I I 0 1 6.3499999999999996 forward I I I I #
coedge $-1 -1 $-1 $58 $43 $59 $60 forward $26 $-1 #
coedge $-1 -1 $-1 $42 $28 $61 $62 reversed $20 $-1 #
coedge $-1 -1 $-1 $28 $41 $63 $64 reversed $20 $-1 #
coedge $-1 -1 $-1 $40 $65 $28 $44 forward $26 $-1 #
edge $66 -1 $-1 $67 0 $68 1.570796326794897 $28 $69 forward @7 unknown #
model_id-kcp-attrib $-1 -1 $-1 $-1 $30 1 1021576057 1021576057 -1861025790 2 #
face $-1 -1 $-1 $70 $71 $15 $-1 $72 reversed single #
loop $-1 -1 $-1 $-1 $73 $30 #
plane-surface $-1 -1 $-1 0 0 -6.3499999999999996 0 0 1 1 0 0 forward_v I I I I #
coedge $-1 -1 $-1 $74 $75 $76 $77 forward $31 $-1 #
face $-1 -1 $-1 $78 $79 $17 $-1 $35 reversed single #
loop $-1 -1 $-1 $-1 $80 $33 #
coedge $-1 -1 $-1 $81 $82 $83 $84 forward $34 $-1 #
model_id-kcp-attrib $-1 -1 $-1 $-1 $37 1 1021576057 1021576057 -1861025791 5 #
face $85 -1 $-1 $-1 $86 $7 $-1 $87 forward single #
loop $-1 -1 $-1 $-1 $88 $37 #
cone-surface $-1 -1 $-1 2.54 4.4450000000000003 0 0 0 1 6.3499999999999996 0 0 1 I I 0 1 6.3499999999999996 forward I I I I #
coedge $-1 -1 $-1 $89 $63 $90 $91 forward $38 $-1 #
coedge $-1 -1 $-1 $65 $40 $92 $93 reversed $26 $-1 #
coedge $-1 -1 $-1 $63 $89 $40 $60 reversed $38 $-1 #
edge $-1 -1 $-1 $68 -6.8326535097882922e-031 $94 12.699999999999999 $59 $95 forward @7 unknown #
coedge $-1 -1 $-1 $88 $90 $41 $62 forward $55 $-1 #
edge $96 -1 $-1 $97 0 $67 3.1415926535897922 $41 $98 forward @7 unknown #
coedge $-1 -1 $-1 $57 $59 $42 $64 forward $38 $-1 #
edge $99 -1 $-1 $68 0 $97 1.5707963267948977 $42 $100 forward @7 unknown #
coedge $-1 -1 $-1 $43 $58 $88 $101 reversed $26 $-1 #
attrib_edge_convexity-kcp-attrib $-1 -1 $102 $-1 $44 1 #
vertex $-1 -1 $-1 $62 $103 #
vertex $-1 -1 $-1 $64 $104 #
ellipse-curve $-1 -1 $-1 2.54 4.4449999999999985 0 0 0 1 -6.3499999999999996 8.8817841970012523e-015 0 1 I I #
face $-1 -1 $-1 $105 $106 $15 $-1 $107 reversed single #
loop $-1 -1 $-1 $-1 $108 $46 #
plane-surface $-1 -1 $-1 0 -6.3500000000000014 0 0 1 0 0 0 1 forward_v I I I I #
coedge $-1 -1 $-1 $109 $110 $111 $112 forward $47 $-1 #
coedge $-1 -1 $-1 $113 $49 $114 $115 forward $31 $-1 #
coedge $-1 -1 $-1 $49 $113 $116 $117 forward $31 $-1 #
coedge $-1 -1 $-1 $118 $119 $49 $77 reversed $120 $-1 #
edge $-1 -1 $-1 $121 -6.3500000000000014 $122 6.3500000000000014 $76 $123 forward @7 unknown #
face $-1 -1 $-1 $124 $125 $17 $-1 $35 reversed single #
loop $-1 -1 $-1 $-1 $126 $50 #
coedge $-1 -1 $-1 $127 $83 $128 $129 reversed $51 $-1 #
coedge $-1 -1 $-1 $130 $52 $131 $132 reversed $34 $-1 #
coedge $-1 -1 $-1 $52 $130 $133 $134 reversed $34 $-1 #
coedge $-1 -1 $-1 $80 $135 $136 $84 reversed $51 $-1 #
edge $-1 -1 $-1 $137 -12.699999999999999 $138 0 $136 $139 forward @7 unknown #
model_id-kcp-attrib $-1 -1 $-1 $-1 $54 1 1021576057 1021576057 -1861025791 6 #
loop $-1 -1 $-1 $-1 $140 $54 #
plane-surface $-1 -1 $-1 0 0 12.699999999999999 0 0 1 1 0 0 forward_v I I I I #
coedge $-1 -1 $-1 $141 $61 $65 $101 forward $55 $-1 #
coedge $-1 -1 $-1 $59 $57 $142 $143 reversed $38 $-1 #
coedge $-1 -1 $-1 $61 $141 $57 $91 reversed $55 $-1 #
edge $-1 -1 $-1 $97 0 $144 12.699999999999999 $57 $145 forward @7 unknown #
coedge $-1 -1 $-1 $142 $140 $58 $93 forward $86 $-1 #
edge $-1 -1 $-1 $146 4.1961185182683091e-016 $94 1.570796326794897 $92 $147 forward @7 unknown #
vertex $-1 -1 $-1 $143 $148 #
straight-curve $-1 -1 $-1 2.5399999999999987 -1.9050000000000011 0 1.398706172756103e-016 1.398706172756103e-016 1 I I #
attrib_edge_convexity-kcp-attrib $-1 -1 $149 $-1 $62 1 #
vertex $-1 -1 $-1 $64 $150 #
ellipse-curve $-1 -1 $-1 2.54 4.4450000000000003 0 0 0 1 6.3500000000000005 0 0 1 I I #
attrib_edge_convexity-kcp-attrib $-1 -1 $151 $-1 $64 1 #
ellipse-curve $-1 -1 $-1 2.54 4.4450000000000003 0 0 0 1 -6.6613381477509392e-015 -6.3500000000000014 0 1 I I #
edge $-1 -1 $-1 $67 2.4846012762866518e-031 $146 12.699999999999998 $88 $152 forward @7 unknown #
convexity-sys-attrib $-1 -1 $-1 $66 $44 #
point $-1 -1 $-1 -3.8100000000000001 4.4450000000000074 0 #
point $-1 -1 $-1 2.5399999999999934 -1.9050000000000007 0 #
face $-1 -1 $-1 $153 $154 $15 $-1 $155 reversed single #
loop $-1 -1 $-1 $-1 $156 $70 #
plane-surface $-1 -1 $-1 -6.3500000000000005 0 0 1 0 0 0 0 -1 forward_v I I I I #
coedge $-1 -1 $-1 $157 $116 $158 $159 forward $71 $-1 #
coedge $-1 -1 $-1 $160 $73 $157 $161 forward $47 $-1 #
coedge $-1 -1 $-1 $73 $160 $162 $163 forward $47 $-1 #
coedge $-1 -1 $-1 $119 $118 $73 $112 reversed $120 $-1 #
edge $-1 -1 $-1 $164 -6.3500000000000014 $165 6.3500000000000014 $111 $166 forward @7 unknown #
coedge $-1 -1 $-1 $75 $74 $167 $168 forward $31 $-1 #
coedge $-1 -1 $-1 $169 $170 $74 $115 reversed $154 $-1 #
edge $-1 -1 $-1 $122 -6.3500000000000005 $171 6.3500000000000005 $114 $172 forward @7 unknown #
coedge $-1 -1 $-1 $108 $173 $75 $117 reversed $71 $-1 #
edge $-1 -1 $-1 $174 -6.3500000000000005 $121 6.3500000000000005 $116 $175 forward @7 unknown #
coedge $-1 -1 $-1 $111 $76 $173 $176 forward $120 $-1 #
coedge $-1 -1 $-1 $76 $111 $169 $177 reversed $120 $-1 #
loop $-1 -1 $-1 $-1 $118 $153 #
vertex $-1 -1 $-1 $77 $178 #
vertex $-1 -1 $-1 $77 $179 #
straight-curve $-1 -1 $-1 6.3500000000000005 0 6.3499999999999996 0 1 0 I I #
face $-1 -1 $-1 $180 $181 $17 $-1 $182 reversed single #
loop $-1 -1 $-1 $-1 $183 $78 #
coedge $-1 -1 $-1 $184 $185 $186 $187 reversed $79 $-1 #
coedge $-1 -1 $-1 $135 $80 $188 $189 forward $51 $-1 #
coedge $-1 -1 $-1 $190 $191 $80 $129 forward $192 $-1 #
edge $-1 -1 $-1 $193 -3.1415926535897936 $137 -1.5707963267948972 $128 $194 forward @7 unknown #
coedge $-1 -1 $-1 $82 $81 $195 $196 reversed $34 $-1 #
coedge $-1 -1 $-1 $197 $198 $81 $132 forward $199 $-1 #
edge $-1 -1 $-1 $200 6.294177777402459e-016 $138 1.5707963267948972 $131 $201 forward @7 unknown #
coedge $-1 -1 $-1 $202 $203 $82 $134 forward $204 $-1 #
edge $-1 -1 $-1 $137 -1.5707963267948972 $205 -6.294177777402459e-016 $133 $194 forward @7 unknown #
coedge $-1 -1 $-1 $83 $127 $206 $207 reversed $51 $-1 #
coedge $-1 -1 $-1 $208 $209 $210 $84 forward $211 $-1 #
vertex $-1 -1 $-1 $212 $213 #
vertex $-1 -1 $-1 $214 $215 #
straight-curve $-1 -1 $-1 6.3500000000000005 1.7763568394002505e-015 -6.3499999999999996 0 0 -1 I I #
coedge $-1 -1 $-1 $92 $142 $141 $216 forward $86 $-1 #
coedge $-1 -1 $-1 $90 $88 $140 $216 reversed $55 $-1 #
coedge $-1 -1 $-1 $140 $92 $89 $143 forward $86 $-1 #
edge $-1 -1 $-1 $94 0 $144 1.570796326794897 $142 $217 forward @7 unknown #
vertex $-1 -1 $-1 $143 $218 #
straight-curve $-1 -1 $-1 8.8900000000000006 4.4450000000000003 0 0 0 1 I I #
vertex $-1 -1 $-1 $93 $219 #
ellipse-curve $-1 -1 $-1 2.5399999999999996 4.4449999999999994 12.699999999999999 0 0 1 -6.3499999999999996 7.9936057773011271e-015 0 1 I I #
point $-1 -1 $-1 2.5399999999999934 -1.9050000000000007 12.699999999999999 #
convexity-sys-attrib $-1 -1 $-1 $96 $62 #
point $-1 -1 $-1 8.8900000000000006 4.4450000000000003 0 #
convexity-sys-attrib $-1 -1 $-1 $99 $64 #
straight-curve $-1 -1 $-1 -3.8099999999999996 4.4450000000000038 0 0 6.9935308637805148e-017 1 I I #
face $-1 -1 $-1 $-1 $120 $15 $-1 $220 reversed single #
loop $-1 -1 $-1 $-1 $169 $105 #
plane-surface $-1 -1 $-1 0 6.3500000000000014 0 0 -1 0 0 0 -1 forward_v I I I I #
coedge $-1 -1 $-1 $221 $167 $170 $222 forward $106 $-1 #
coedge $-1 -1 $-1 $173 $108 $109 $161 reversed $71 $-1 #
coedge $-1 -1 $-1 $167 $221 $108 $159 reversed $106 $-1 #
edge $-1 -1 $-1 $174 -6.3499999999999996 $223 6.3499999999999996 $158 $224 forward @7 unknown #
coedge $-1 -1 $-1 $110 $109 $221 $225 forward $47 $-1 #
edge $-1 -1 $-1 $165 -6.3500000000000005 $223 6.3500000000000005 $157 $226 forward @7 unknown #
coedge $-1 -1 $-1 $170 $169 $110 $163 reversed $154 $-1 #
edge $-1 -1 $-1 $227 -6.3500000000000005 $164 6.3500000000000005 $162 $228 forward @7 unknown #
vertex $-1 -1 $-1 $112 $229 #
vertex $-1 -1 $-1 $176 $230 #
straight-curve $-1 -1 $-1 6.3500000000000005 0 -6.3499999999999996 0 -1 0 I I #
coedge $-1 -1 $-1 $156 $158 $113 $168 reversed $106 $-1 #
edge $-1 -1 $-1 $171 -6.3500000000000014 $174 6.3500000000000014 $167 $231 forward @7 unknown #
coedge $-1 -1 $-1 $162 $114 $119 $177 forward $154 $-1 #
coedge $-1 -1 $-1 $114 $162 $156 $222 reversed $154 $-1 #
vertex $-1 -1 $-1 $115 $232 #
straight-curve $-1 -1 $-1 0 6.3500000000000014 6.3499999999999996 -1 0 0 I I #
coedge $-1 -1 $-1 $116 $157 $118 $176 reversed $71 $-1 #
vertex $-1 -1 $-1 $168 $233 #
straight-curve $-1 -1 $-1 0 -6.3500000000000014 6.3499999999999996 1 0 0 I I #
edge $-1 -1 $-1 $121 -6.3499999999999996 $165 6.3499999999999996 $118 $234 forward @7 unknown #
edge $-1 -1 $-1 $122 -6.3499999999999996 $164 6.3499999999999996 $119 $235 forward @7 unknown #
point $-1 -1 $-1 6.3500000000000005 -6.3500000000000014 6.3499999999999996 #
point $-1 -1 $-1 6.3500000000000005 6.3500000000000014 6.3499999999999996 #
face $-1 -1 $-1 $236 $211 $17 $-1 $237 reversed single #
loop $-1 -1 $-1 $-1 $195 $124 #
plane-surface $-1 -1 $-1 0 -6.3500000000000014 0 0 1 0 0 0 1 forward_v I I I I #
coedge $-1 -1 $-1 $188 $238 $239 $240 reversed $125 $-1 #
coedge $-1 -1 $-1 $241 $126 $242 $243 reversed $79 $-1 #
coedge $-1 -1 $-1 $126 $241 $130 $196 forward $79 $-1 #
coedge $-1 -1 $-1 $244 $245 $126 $187 forward $246 $-1 #
edge $-1 -1 $-1 $247 -1.5707963267948959 $200 6.294177777402459e-016 $186 $201 forward @7 unknown #
coedge $-1 -1 $-1 $248 $183 $249 $189 reversed $125 $-1 #
edge $-1 -1 $-1 $193 -12.699999999999999 $250 0 $249 $251 forward @7 unknown #
coedge $-1 -1 $-1 $191 $128 $209 $212 forward $192 $-1 #
coedge $-1 -1 $-1 $128 $190 $252 $253 forward $192 $-1 #
loop $-1 -1 $-1 $-1 $128 $254 #
vertex $-1 -1 $-1 $255 $256 #
ellipse-curve $-1 -1 $-1 -2.6645352591003757e-015 1.7763568394002505e-015 6.3499999999999996 0 0 -1 -3.9968028886505635e-015 -6.3500000000000032 0 1 I I #
coedge $-1 -1 $-1 $257 $258 $259 $196 forward $181 $-1 #
edge $-1 -1 $-1 $205 -12.699999999999999 $200 0 $195 $260 forward @7 unknown #
coedge $-1 -1 $-1 $198 $131 $261 $214 forward $199 $-1 #
coedge $-1 -1 $-1 $131 $197 $257 $262 forward $199 $-1 #
loop $-1 -1 $-1 $-1 $131 $263 #
vertex $-1 -1 $-1 $264 $265 #
ellipse-curve $-1 -1 $-1 -2.6645352591003757e-015 1.7763568394002505e-015 -6.3499999999999996 0 0 1 -3.9968028886505635e-015 -6.3500000000000032 0 1 I I #
coedge $-1 -1 $-1 $203 $133 $258 $266 forward $204 $-1 #
coedge $-1 -1 $-1 $133 $202 $267 $268 forward $204 $-1 #
loop $-1 -1 $-1 $-1 $133 $269 #
vertex $-1 -1 $-1 $266 $270 #
coedge $-1 -1 $-1 $271 $272 $135 $207 forward $273 $-1 #
edge $-1 -1 $-1 $138 1.5707963267948972 $250 3.1415926535897936 $206 $201 forward @7 unknown #
coedge $-1 -1 $-1 $274 $136 $272 $275 reversed $211 $-1 #
coedge $-1 -1 $-1 $136 $274 $190 $212 reversed $211 $-1 #
coedge $-1 -1 $-1 $267 $261 $52 $84 reversed $276 $-1 #
loop $-1 -1 $-1 $-1 $136 $180 #
edge $-1 -1 $-1 $137 1.7763568394002505e-015 $277 6.3500000000000014 $209 $278 forward @7 unknown #
point $-1 -1 $-1 6.3500000000000005 1.7763568394002505e-015 6.3499999999999996 #
edge $-1 -1 $-1 $138 -1.7763568394002505e-015 $279 6.3500000000000014 $261 $280 forward @7 unknown #
point $-1 -1 $-1 6.3500000000000005 1.7763568394002505e-015 -6.3499999999999996 #
edge $-1 -1 $-1 $144 0 $146 3.1415926535897931 $140 $281 forward @7 unknown #
ellipse-curve $-1 -1 $-1 2.5399999999999974 4.4450000000000021 12.699999999999999 0 0 1 -3.9968028886505635e-015 -6.3500000000000032 0 1 I I #
point $-1 -1 $-1 8.8900000000000006 4.4450000000000003 12.699999999999999 #
point $-1 -1 $-1 -3.8099999999999996 4.4450000000000047 12.699999999999998 #
plane-surface $-1 -1 $-1 6.3500000000000005 0 0 -1 0 0 0 0 1 forward_v I I I I #
coedge $-1 -1 $-1 $158 $156 $160 $225 reversed $106 $-1 #
edge $-1 -1 $-1 $171 -6.3499999999999996 $227 6.3499999999999996 $170 $282 forward @7 unknown #
vertex $-1 -1 $-1 $225 $283 #
straight-curve $-1 -1 $-1 -6.3500000000000005 -6.3500000000000014 0 0 0 -1 I I #
edge $-1 -1 $-1 $223 -6.3500000000000014 $227 6.3500000000000014 $221 $284 forward @7 unknown #
straight-curve $-1 -1 $-1 0 -6.3500000000000014 -6.3499999999999996 -1 0 0 I I #
vertex $-1 -1 $-1 $163 $285 #
straight-curve $-1 -1 $-1 0 6.3500000000000014 -6.3499999999999996 1 0 0 I I #
point $-1 -1 $-1 6.3500000000000005 6.3500000000000014 -6.3499999999999996 #
point $-1 -1 $-1 6.3500000000000005 -6.3500000000000014 -6.3499999999999996 #
straight-curve $-1 -1 $-1 -6.3500000000000005 0 6.3499999999999996 0 -1 0 I I #
point $-1 -1 $-1 -6.3500000000000005 6.3500000000000014 6.3499999999999996 #
point $-1 -1 $-1 -6.3500000000000005 -6.3500000000000014 6.3499999999999996 #
straight-curve $-1 -1 $-1 6.3500000000000005 -6.3500000000000014 0 0 0 -1 I I #
straight-curve $-1 -1 $-1 6.3500000000000005 6.3500000000000014 0 0 0 -1 I I #
face $-1 -1 $-1 $286 $287 $17 $-1 $288 reversed single #
plane-surface $-1 -1 $-1 6.3500000000000005 0 0 -1 0 0 0 0 1 forward_v I I I I #
coedge $-1 -1 $-1 $183 $248 $184 $243 forward $125 $-1 #
coedge $-1 -1 $-1 $289 $290 $183 $240 forward $291 $-1 #
edge $-1 -1 $-1 $250 -3.1415926535897927 $247 -1.5707963267948959 $239 $201 forward @7 unknown #
coedge $-1 -1 $-1 $185 $184 $292 $293 reversed $79 $-1 #
coedge $-1 -1 $-1 $294 $295 $296 $243 forward $297 $-1 #
edge $-1 -1 $-1 $298 -12.699999999999999 $247 0 $242 $299 forward @7 unknown #
coedge $-1 -1 $-1 $245 $186 $300 $264 forward $246 $-1 #
coedge $-1 -1 $-1 $186 $244 $294 $301 forward $246 $-1 #
loop $-1 -1 $-1 $-1 $186 $302 #
vertex $-1 -1 $-1 $303 $304 #
coedge $-1 -1 $-1 $238 $188 $305 $306 reversed $125 $-1 #
coedge $-1 -1 $-1 $307 $308 $309 $189 forward $287 $-1 #
vertex $-1 -1 $-1 $310 $311 #
straight-curve $-1 -1 $-1 -2.6645352591003757e-015 6.3500000000000014 -6.3499999999999996 0 0 -1 I I #
coedge $-1 -1 $-1 $312 $309 $191 $253 reversed $313 $-1 #
edge $-1 -1 $-1 $277 -6.3500000000000005 $193 2.6645352591003757e-015 $252 $314 forward @7 unknown #
face $-1 -1 $-1 $269 $192 $17 $-1 $315 forward single #
edge $-1 -1 $-1 $193 2.6645352591003757e-015 $316 6.3500000000000005 $308 $314 forward @7 unknown #
point $-1 -1 $-1 -2.6645352591003757e-015 6.3500000000000014 6.3499999999999996 #
coedge $-1 -1 $-1 $317 $195 $198 $262 reversed $181 $-1 #
coedge $-1 -1 $-1 $195 $317 $202 $266 reversed $181 $-1 #
coedge $-1 -1 $-1 $318 $300 $185 $196 reversed $319 $-1 #
straight-curve $-1 -1 $-1 -2.6645352591003757e-015 -6.3500000000000014 -6.3499999999999996 0 0 -1 I I #
coedge $-1 -1 $-1 $210 $320 $197 $214 reversed $276 $-1 #
edge $-1 -1 $-1 $279 -6.3500000000000005 $200 2.6645352591003757e-015 $257 $321 forward @7 unknown #
face $-1 -1 $-1 $322 $199 $17 $-1 $323 reversed single #
edge $-1 -1 $-1 $200 2.6645352591003757e-015 $324 6.3500000000000005 $300 $321 forward @7 unknown #
point $-1 -1 $-1 -2.6645352591003757e-015 -6.3500000000000014 -6.3499999999999996 #
edge $-1 -1 $-1 $205 -2.6645352591003757e-015 $325 6.3500000000000005 $258 $326 forward @7 unknown #
coedge $-1 -1 $-1 $320 $210 $203 $268 reversed $276 $-1 #
edge $-1 -1 $-1 $325 -6.3500000000000014 $137 1.7763568394002505e-015 $267 $278 forward @7 unknown #
face $-1 -1 $-1 $327 $204 $17 $-1 $315 forward single #
point $-1 -1 $-1 -2.6645352591003757e-015 -6.3500000000000014 6.3499999999999996 #
coedge $-1 -1 $-1 $272 $206 $328 $310 forward $273 $-1 #
coedge $-1 -1 $-1 $206 $271 $208 $275 forward $273 $-1 #
loop $-1 -1 $-1 $-1 $206 $322 #
coedge $-1 -1 $-1 $209 $208 $312 $329 reversed $211 $-1 #
edge $-1 -1 $-1 $330 -6.3500000000000014 $138 -1.7763568394002505e-015 $208 $280 forward @7 unknown #
loop $-1 -1 $-1 $-1 $210 $331 #
vertex $-1 -1 $-1 $212 $332 #
straight-curve $-1 -1 $-1 6.3500000000000005 0 6.3499999999999996 0 1 0 I I #
vertex $-1 -1 $-1 $333 $334 #
straight-curve $-1 -1 $-1 6.3500000000000005 0 -6.3499999999999996 0 -1 0 I I #
ellipse-curve $-1 -1 $-1 2.54 4.4450000000000021 12.699999999999999 0 0 1 6.3500000000000005 -1.7763568394002505e-015 0 1 I I #
straight-curve $-1 -1 $-1 -6.3500000000000005 6.3500000000000014 0 0 0 -1 I I #
point $-1 -1 $-1 -6.3500000000000005 -6.3500000000000014 -6.3499999999999996 #
straight-curve $-1 -1 $-1 -6.3500000000000005 0 -6.3499999999999996 0 1 0 I I #
point $-1 -1 $-1 -6.3500000000000005 6.3500000000000014 -6.3499999999999996 #
face $-1 -1 $-1 $254 $335 $17 $-1 $315 forward single #
loop $-1 -1 $-1 $-1 $249 $236 #
plane-surface $-1 -1 $-1 0 6.3500000000000014 0 0 -1 0 0 0 -1 forward_v I I I I #
coedge $-1 -1 $-1 $290 $239 $336 $303 forward $291 $-1 #
coedge $-1 -1 $-1 $239 $289 $307 $337 forward $291 $-1 #
loop $-1 -1 $-1 $-1 $239 $338 #
coedge $-1 -1 $-1 $339 $340 $241 $293 forward $341 $-1 #
edge $-1 -1 $-1 $205 -6.294177777402459e-016 $298 1.5707963267948959 $292 $194 forward @7 unknown #
coedge $-1 -1 $-1 $342 $242 $245 $301 reversed $297 $-1 #
coedge $-1 -1 $-1 $242 $342 $339 $343 reversed $297 $-1 #
coedge $-1 -1 $-1 $344 $336 $238 $243 reversed $345 $-1 #
loop $-1 -1 $-1 $-1 $242 $346 #
vertex $-1 -1 $-1 $343 $347 #
straight-curve $-1 -1 $-1 -6.3500000000000005 1.7763568394002505e-015 -6.3499999999999996 0 0 -1 I I #
coedge $-1 -1 $-1 $259 $348 $244 $264 reversed $319 $-1 #
edge $-1 -1 $-1 $324 -6.3500000000000014 $247 1.7763568394002505e-015 $294 $349 forward @7 unknown #
face $-1 -1 $-1 $263 $246 $17 $-1 $323 reversed single #
edge $-1 -1 $-1 $247 1.7763568394002505e-015 $350 6.3500000000000014 $336 $349 forward @7 unknown #
point $-1 -1 $-1 -6.3500000000000005 1.7763568394002505e-015 -6.3499999999999996 #
coedge $-1 -1 $-1 $351 $352 $248 $306 forward $335 $-1 #
edge $-1 -1 $-1 $298 1.5707963267948959 $193 3.1415926535897927 $305 $194 forward @7 unknown #
coedge $-1 -1 $-1 $353 $249 $290 $337 reversed $287 $-1 #
coedge $-1 -1 $-1 $249 $353 $351 $255 reversed $287 $-1 #
coedge $-1 -1 $-1 $252 $328 $127 $189 reversed $313 $-1 #
edge $-1 -1 $-1 $250 -2.6645352591003757e-015 $330 6.3500000000000005 $328 $354 forward @7 unknown #
point $-1 -1 $-1 -2.6645352591003757e-015 6.3500000000000014 -6.3499999999999996 #
coedge $-1 -1 $-1 $328 $252 $274 $329 forward $313 $-1 #
loop $-1 -1 $-1 $-1 $309 $355 #
straight-curve $-1 -1 $-1 0 6.3500000000000014 6.3499999999999996 -1 0 0 I I #
plane-surface $-1 -1 $-1 0 0 6.3499999999999996 0 0 1 1 0 0 forward_v I I I I #
vertex $-1 -1 $-1 $255 $356 #
coedge $-1 -1 $-1 $258 $257 $320 $333 reversed $181 $-1 #
coedge $-1 -1 $-1 $348 $259 $340 $357 reversed $319 $-1 #
loop $-1 -1 $-1 $-1 $259 $358 #
coedge $-1 -1 $-1 $261 $267 $317 $333 forward $276 $-1 #
straight-curve $-1 -1 $-1 0 -6.3500000000000014 -6.3499999999999996 -1 0 0 I I #
face $-1 -1 $-1 $358 $273 $17 $-1 $323 reversed single #
plane-surface $-1 -1 $-1 0 0 -6.3499999999999996 0 0 1 1 0 0 forward_v I I I I #
vertex $-1 -1 $-1 $301 $359 #
vertex $-1 -1 $-1 $268 $360 #
straight-curve $-1 -1 $-1 0 -6.3500000000000014 6.3499999999999996 1 0 0 I I #
face $-1 -1 $-1 $346 $341 $17 $-1 $315 forward single #
coedge $-1 -1 $-1 $309 $312 $271 $310 reversed $313 $-1 #
edge $-1 -1 $-1 $277 -6.3499999999999996 $330 6.3499999999999996 $274 $361 forward @7 unknown #
vertex $-1 -1 $-1 $275 $362 #
face $-1 -1 $-1 $-1 $276 $17 $-1 $237 reversed single #
point $-1 -1 $-1 6.3500000000000005 6.3500000000000014 6.3499999999999996 #
edge $-1 -1 $-1 $325 -6.3499999999999996 $279 6.3499999999999996 $320 $363 forward @7 unknown #
point $-1 -1 $-1 6.3500000000000005 -6.3500000000000014 -6.3499999999999996 #
loop $-1 -1 $-1 $-1 $305 $286 #
coedge $-1 -1 $-1 $296 $364 $289 $303 reversed $345 $-1 #
edge $-1 -1 $-1 $350 -6.3500000000000005 $250 -2.6645352591003757e-015 $307 $354 forward @7 unknown #
face $-1 -1 $-1 $302 $291 $17 $-1 $323 reversed single #
coedge $-1 -1 $-1 $340 $292 $295 $343 forward $341 $-1 #
coedge $-1 -1 $-1 $292 $339 $318 $357 forward $341 $-1 #
loop $-1 -1 $-1 $-1 $292 $327 #
coedge $-1 -1 $-1 $295 $294 $348 $365 reversed $297 $-1 #
edge $-1 -1 $-1 $298 -1.7763568394002505e-015 $366 6.3500000000000014 $295 $367 forward @7 unknown #
coedge $-1 -1 $-1 $364 $296 $352 $368 reversed $345 $-1 #
loop $-1 -1 $-1 $-1 $296 $369 #
face $-1 -1 $-1 $338 $297 $17 $-1 $370 reversed single #
point $-1 -1 $-1 -6.3500000000000005 1.7763568394002505e-015 6.3499999999999996 #
coedge $-1 -1 $-1 $300 $318 $342 $365 forward $319 $-1 #
straight-curve $-1 -1 $-1 -6.3500000000000005 0 -6.3499999999999996 0 1 0 I I #
vertex $-1 -1 $-1 $337 $371 #
coedge $-1 -1 $-1 $352 $305 $308 $255 forward $335 $-1 #
coedge $-1 -1 $-1 $305 $351 $344 $368 forward $335 $-1 #
coedge $-1 -1 $-1 $308 $307 $364 $372 reversed $287 $-1 #
straight-curve $-1 -1 $-1 0 6.3500000000000014 -6.3499999999999996 1 0 0 I I #
face $-1 -1 $-1 $331 $313 $17 $-1 $288 reversed single #
point $-1 -1 $-1 -6.3500000000000005 6.3500000000000014 6.3499999999999996 #
edge $-1 -1 $-1 $366 -6.3500000000000005 $205 -2.6645352591003757e-015 $318 $326 forward @7 unknown #
face $-1 -1 $-1 $369 $319 $17 $-1 $182 reversed single #
point $-1 -1 $-1 -6.3500000000000005 -6.3500000000000014 -6.3499999999999996 #
point $-1 -1 $-1 6.3500000000000005 -6.3500000000000014 6.3499999999999996 #
straight-curve $-1 -1 $-1 6.3500000000000005 6.3500000000000014 0 0 0 -1 I I #
point $-1 -1 $-1 6.3500000000000005 6.3500000000000014 -6.3499999999999996 #
straight-curve $-1 -1 $-1 6.3500000000000005 -6.3500000000000014 0 0 0 -1 I I #
coedge $-1 -1 $-1 $336 $344 $353 $372 forward $345 $-1 #
edge $-1 -1 $-1 $366 -6.3499999999999996 $324 6.3499999999999996 $342 $373 forward @7 unknown #
vertex $-1 -1 $-1 $343 $374 #
straight-curve $-1 -1 $-1 -6.3500000000000005 0 6.3499999999999996 0 -1 0 I I #
edge $-1 -1 $-1 $316 -6.3500000000000014 $298 -1.7763568394002505e-015 $344 $367 forward @7 unknown #
face $-1 -1 $-1 $355 $345 $17 $-1 $370 reversed single #
plane-surface $-1 -1 $-1 -6.3500000000000005 0 0 1 0 0 0 0 -1 forward_v I I I I #
point $-1 -1 $-1 -6.3500000000000005 6.3500000000000014 -6.3499999999999996 #
edge $-1 -1 $-1 $316 -6.3499999999999996 $350 6.3499999999999996 $353 $375 forward @7 unknown #
straight-curve $-1 -1 $-1 -6.3500000000000005 -6.3500000000000014 0 0 0 -1 I I #
point $-1 -1 $-1 -6.3500000000000005 -6.3500000000000014 6.3499999999999996 #
straight-curve $-1 -1 $-1 -6.3500000000000005 6.3500000000000014 0 0 0 -1 I I #
End-of-ACIS-data 