600 0 1 0           
99 GICL Pro/E ACIS Translator - Source: f:/data5/repository/PTC/V18/bboxrev2/boombox/opamp_m.prt - 6 0 13 ACIS 6.0.3 NT 24 Thu Apr 04 13:43:03 2002 
1 9.9999999999999995e-007 1e-010 
body $-1 $1 $-1 $-1 #
lump $-1 $-1 $2 $0 #
shell $-1 $-1 $-1 $3 $-1 $1 #
face $-1 $4 $5 $2 $-1 $6 reversed single #
face $-1 $7 $8 $2 $-1 $9 forward single #
loop $-1 $-1 $10 $3 #
plane-surface $-1 0 0 0 0 0 1 1 0 0 forward_v I I I I #
face $-1 $11 $12 $2 $-1 $13 forward single #
loop $-1 $-1 $14 $4 #
cone-surface $-1 2.54 4.4449999999999985 0 0 0 1 6.3499999999999996 0 0 1 I I 0 1 6.3499999999999996 forward I I I I #
coedge $-1 $15 $16 $17 $18 reversed $5 $-1 #
face $-1 $19 $20 $2 $-1 $21 forward single #
loop $-1 $-1 $22 $7 #
cone-surface $-1 2.54 4.4450000000000003 0 0 0 1 6.3499999999999996 0 0 1 I I 0 1 6.3499999999999996 forward I I I I #
coedge $-1 $23 $17 $24 $25 forward $8 $-1 #
coedge $-1 $16 $10 $26 $27 reversed $5 $-1 #
coedge $-1 $10 $15 $28 $29 reversed $5 $-1 #
coedge $-1 $14 $30 $10 $18 forward $8 $-1 #
edge $-1 $31 0 $32 1.570796326794897 $10 $33 forward 7 unknown #
face $-1 $-1 $34 $2 $-1 $35 forward single #
loop $-1 $-1 $36 $11 #
cone-surface $-1 2.54 4.4450000000000003 0 0 0 1 6.3499999999999996 0 0 1 I I 0 1 6.3499999999999996 forward I I I I #
coedge $-1 $37 $28 $38 $39 forward $12 $-1 #
coedge $-1 $30 $14 $40 $41 reversed $8 $-1 #
coedge $-1 $28 $37 $14 $25 reversed $12 $-1 #
edge $-1 $32 -6.8326535097882922e-031 $42 12.699999999999999 $24 $43 forward 7 unknown #
coedge $-1 $36 $38 $15 $27 forward $20 $-1 #
edge $-1 $44 0 $31 3.1415926535897922 $15 $45 forward 7 unknown #
coedge $-1 $22 $24 $16 $29 forward $12 $-1 #
edge $-1 $32 0 $44 1.5707963267948977 $16 $46 forward 7 unknown #
coedge $-1 $17 $23 $36 $47 reversed $8 $-1 #
vertex $-1 $27 $48 #
vertex $-1 $29 $49 #
ellipse-curve $-1 2.54 4.4449999999999985 0 0 0 1 -6.3499999999999996 8.8817841970012523e-015 0 1 I I #
loop $-1 $-1 $50 $19 #
plane-surface $-1 0 0 12.699999999999999 0 0 1 1 0 0 forward_v I I I I #
coedge $-1 $51 $26 $30 $47 forward $20 $-1 #
coedge $-1 $24 $22 $52 $53 reversed $12 $-1 #
coedge $-1 $26 $51 $22 $39 reversed $20 $-1 #
edge $-1 $44 0 $54 12.699999999999999 $22 $55 forward 7 unknown #
coedge $-1 $52 $50 $23 $41 forward $34 $-1 #
edge $-1 $56 4.1961185182683091e-016 $42 1.570796326794897 $40 $57 forward 7 unknown #
vertex $-1 $53 $58 #
straight-curve $-1 2.5399999999999987 -1.9050000000000011 0 1.398706172756103e-016 1.398706172756103e-016 1 I I #
vertex $-1 $29 $59 #
ellipse-curve $-1 2.54 4.4450000000000003 0 0 0 1 6.3500000000000005 0 0 1 I I #
ellipse-curve $-1 2.54 4.4450000000000003 0 0 0 1 -6.6613381477509392e-015 -6.3500000000000014 0 1 I I #
edge $-1 $31 2.4846012762866518e-031 $56 12.699999999999998 $36 $60 forward 7 unknown #
point $-1 -3.8100000000000001 4.4450000000000074 0 #
point $-1 2.5399999999999934 -1.9050000000000007 0 #
coedge $-1 $40 $52 $51 $61 forward $34 $-1 #
coedge $-1 $38 $36 $50 $61 reversed $20 $-1 #
coedge $-1 $50 $40 $37 $53 forward $34 $-1 #
edge $-1 $42 0 $54 1.570796326794897 $52 $62 forward 7 unknown #
vertex $-1 $53 $63 #
straight-curve $-1 8.8900000000000006 4.4450000000000003 0 0 0 1 I I #
vertex $-1 $41 $64 #
ellipse-curve $-1 2.5399999999999996 4.4449999999999994 12.699999999999999 0 0 1 -6.3499999999999996 7.9936057773011271e-015 0 1 I I #
point $-1 2.5399999999999934 -1.9050000000000007 12.699999999999999 #
point $-1 8.8900000000000006 4.4450000000000003 0 #
straight-curve $-1 -3.8099999999999996 4.4450000000000038 0 0 6.9935308637805148e-017 1 I I #
edge $-1 $54 0 $56 3.1415926535897931 $50 $65 forward 7 unknown #
ellipse-curve $-1 2.5399999999999974 4.4450000000000021 12.699999999999999 0 0 1 -3.9968028886505635e-015 -6.3500000000000032 0 1 I I #
point $-1 8.8900000000000006 4.4450000000000003 12.699999999999999 #
point $-1 -3.8099999999999996 4.4450000000000047 12.699999999999998 #
ellipse-curve $-1 2.54 4.4450000000000021 12.699999999999999 0 0 1 6.3500000000000005 -1.7763568394002505e-015 0 1 I I #
End-of-ACIS-data 