700 0 2 0           
24 FBMach with ACIS - 7.0.3 13 ACIS 7.0.3 NT 24 Thu May 16 11:48:46 2002 
1 9.9999999999999995e-007 1e-010 
body $2 -1 $-1 $3 $-1 $4 #
bdycol-kcp $-1 -1 1 2 $5 $6 #
model_id-kcp-attrib $-1 -1 $-1 $-1 $0 1 1021564126 1021564126 -178061311 1 #
lump $-1 -1 $-1 $-1 $7 $0 #
transform $-1 -1 1 0 0 0 1 0 0 0 1 0 0 0 1 rotate no_reflect no_shear #
body $8 -1 $-1 $9 $-1 $10 #
body $11 -1 $-1 $12 $-1 $13 #
shell $-1 -1 $-1 $-1 $-1 $14 $-1 $3 #
rgb_color-st-attrib $-1 -1 $15 $-1 $5 0.5 1 1 #
lump $-1 -1 $-1 $-1 $16 $5 #
transform $-1 -1 1 0 0 0 1 0 0 0 1 2.54 4.4450000000000003 6.3499999999999996 1 no_rotate no_reflect no_shear #
model_id-kcp-attrib $-1 -1 $-1 $-1 $6 1 1021564126 1021564126 -177405950 1 #
lump $-1 -1 $-1 $-1 $17 $6 #
transform $-1 -1 1 0 0 0 1 0 0 0 1 2.54 4.4450000000000003 6.3499999999999996 1 no_rotate no_reflect no_shear #
face $18 -1 $-1 $19 $20 $7 $-1 $21 reversed single #
model_id-kcp-attrib $-1 -1 $-1 $8 $5 1 1021564126 1021564126 -184352765 1 #
shell $-1 -1 $-1 $-1 $-1 $22 $-1 $9 #
shell $-1 -1 $-1 $-1 $-1 $23 $-1 $12 #
model_id-kcp-attrib $-1 -1 $-1 $-1 $14 1 1021564126 1021564126 -178061311 2 #
face $24 -1 $-1 $25 $26 $7 $-1 $27 forward single #
loop $-1 -1 $-1 $-1 $28 $14 #
plane-surface $-1 -1 $-1 0 0 0 0 0 1 1 0 0 forward_v I I I I #
face $-1 -1 $-1 $29 $30 $16 $-1 $31 reversed single #
face $32 -1 $-1 $33 $34 $17 $-1 $35 forward single #
model_id-kcp-attrib $-1 -1 $-1 $-1 $19 1 1021564126 1021564126 -178061311 3 #
face $36 -1 $-1 $37 $38 $7 $-1 $39 forward single #
loop $-1 -1 $-1 $-1 $40 $19 #
cone-surface $-1 -1 $-1 2.54 4.4449999999999985 0 0 0 1 6.3499999999999996 0 0 1 I I 0 1 6.3499999999999996 forward I I I I #
coedge $-1 -1 $-1 $41 $42 $43 $44 reversed $20 $-1 #
face $-1 -1 $-1 $45 $46 $16 $-1 $31 reversed single #
loop $-1 -1 $-1 $-1 $47 $22 #
cone-surface $-1 -1 $-1 -2.6645352591003757e-015 1.7763568394002505e-015 -6.3499999999999996 0 0 -1 -3.9968028886505635e-015 -6.3500000000000032 0 1 I I 0 1 6.3500000000000032 forward I I I I #
model_id-kcp-attrib $-1 -1 $-1 $-1 $23 1 1021564126 1021564126 -177405950 3 #
face $48 -1 $-1 $49 $50 $17 $-1 $51 reversed single #
loop $-1 -1 $-1 $-1 $52 $23 #
plane-surface $-1 -1 $-1 0 0 6.3499999999999996 0 0 1 1 0 0 forward_v I I I I #
model_id-kcp-attrib $-1 -1 $-1 $-1 $25 1 1021564126 1021564126 -178061311 4 #
face $53 -1 $-1 $54 $55 $7 $-1 $56 forward single #
loop $-1 -1 $-1 $-1 $57 $25 #
cone-surface $-1 -1 $-1 2.54 4.4450000000000003 0 0 0 1 6.3499999999999996 0 0 1 I I 0 1 6.3499999999999996 forward I I I I #
coedge $-1 -1 $-1 $58 $43 $59 $60 forward $26 $-1 #
coedge $-1 -1 $-1 $42 $28 $61 $62 reversed $20 $-1 #
coedge $-1 -1 $-1 $28 $41 $63 $64 reversed $20 $-1 #
coedge $-1 -1 $-1 $40 $65 $28 $44 forward $26 $-1 #
edge $66 -1 $-1 $67 0 $68 1.570796326794897 $28 $69 forward @7 unknown #
face $-1 -1 $-1 $70 $71 $16 $-1 $31 reversed single #
loop $-1 -1 $-1 $-1 $72 $29 #
coedge $-1 -1 $-1 $73 $74 $75 $76 forward $30 $-1 #
model_id-kcp-attrib $-1 -1 $-1 $-1 $33 1 1021564126 1021564126 -177405950 2 #
face $-1 -1 $-1 $77 $78 $17 $-1 $79 reversed single #
loop $-1 -1 $-1 $-1 $80 $33 #
plane-surface $-1 -1 $-1 0 0 -6.3499999999999996 0 0 1 1 0 0 forward_v I I I I #
coedge $-1 -1 $-1 $81 $82 $83 $84 forward $34 $-1 #
model_id-kcp-attrib $-1 -1 $-1 $-1 $37 1 1021564126 1021564126 -178061311 5 #
face $85 -1 $-1 $-1 $86 $7 $-1 $87 forward single #
loop $-1 -1 $-1 $-1 $88 $37 #
cone-surface $-1 -1 $-1 2.54 4.4450000000000003 0 0 0 1 6.3499999999999996 0 0 1 I I 0 1 6.3499999999999996 forward I I I I #
coedge $-1 -1 $-1 $89 $63 $90 $91 forward $38 $-1 #
coedge $-1 -1 $-1 $65 $40 $92 $93 reversed $26 $-1 #
coedge $-1 -1 $-1 $63 $89 $40 $60 reversed $38 $-1 #
edge $-1 -1 $-1 $68 -6.8326535097882922e-031 $94 12.699999999999999 $59 $95 forward @7 unknown #
coedge $-1 -1 $-1 $88 $90 $41 $62 forward $55 $-1 #
edge $96 -1 $-1 $97 0 $67 3.1415926535897922 $41 $98 forward @7 unknown #
coedge $-1 -1 $-1 $57 $59 $42 $64 forward $38 $-1 #
edge $99 -1 $-1 $68 0 $97 1.5707963267948977 $42 $100 forward @7 unknown #
coedge $-1 -1 $-1 $43 $58 $88 $101 reversed $26 $-1 #
attrib_edge_convexity-kcp-attrib $-1 -1 $102 $-1 $44 1 #
vertex $-1 -1 $-1 $62 $103 #
vertex $-1 -1 $-1 $64 $104 #
ellipse-curve $-1 -1 $-1 2.54 4.4449999999999985 0 0 0 1 -6.3499999999999996 8.8817841970012523e-015 0 1 I I #
face $-1 -1 $-1 $105 $106 $16 $-1 $31 reversed single #
loop $-1 -1 $-1 $-1 $107 $45 #
coedge $-1 -1 $-1 $108 $75 $109 $110 reversed $46 $-1 #
coedge $-1 -1 $-1 $111 $47 $112 $113 reversed $30 $-1 #
coedge $-1 -1 $-1 $47 $111 $114 $115 reversed $30 $-1 #
coedge $-1 -1 $-1 $72 $116 $117 $76 reversed $46 $-1 #
edge $-1 -1 $-1 $118 -12.699999999999999 $119 0 $117 $120 forward @7 unknown #
face $-1 -1 $-1 $121 $122 $17 $-1 $123 reversed single #
loop $-1 -1 $-1 $-1 $124 $49 #
plane-surface $-1 -1 $-1 0 -6.3500000000000014 0 0 1 0 0 0 1 forward_v I I I I #
coedge $-1 -1 $-1 $125 $126 $127 $128 forward $50 $-1 #
coedge $-1 -1 $-1 $129 $52 $130 $131 forward $34 $-1 #
coedge $-1 -1 $-1 $52 $129 $132 $133 forward $34 $-1 #
coedge $-1 -1 $-1 $134 $135 $52 $84 reversed $136 $-1 #
edge $-1 -1 $-1 $137 -6.3500000000000014 $138 6.3500000000000014 $83 $139 forward @7 unknown #
model_id-kcp-attrib $-1 -1 $-1 $-1 $54 1 1021564126 1021564126 -178061311 6 #
loop $-1 -1 $-1 $-1 $140 $54 #
plane-surface $-1 -1 $-1 0 0 12.699999999999999 0 0 1 1 0 0 forward_v I I I I #
coedge $-1 -1 $-1 $141 $61 $65 $101 forward $55 $-1 #
coedge $-1 -1 $-1 $59 $57 $142 $143 reversed $38 $-1 #
coedge $-1 -1 $-1 $61 $141 $57 $91 reversed $55 $-1 #
edge $-1 -1 $-1 $97 0 $144 12.699999999999999 $57 $145 forward @7 unknown #
coedge $-1 -1 $-1 $142 $140 $58 $93 forward $86 $-1 #
edge $-1 -1 $-1 $146 4.1961185182683091e-016 $94 1.570796326794897 $92 $147 forward @7 unknown #
vertex $-1 -1 $-1 $143 $148 #
straight-curve $-1 -1 $-1 2.5399999999999987 -1.9050000000000011 0 1.398706172756103e-016 1.398706172756103e-016 1 I I #
attrib_edge_convexity-kcp-attrib $-1 -1 $149 $-1 $62 1 #
vertex $-1 -1 $-1 $64 $150 #
ellipse-curve $-1 -1 $-1 2.54 4.4450000000000003 0 0 0 1 6.3500000000000005 0 0 1 I I #
attrib_edge_convexity-kcp-attrib $-1 -1 $151 $-1 $64 1 #
ellipse-curve $-1 -1 $-1 2.54 4.4450000000000003 0 0 0 1 -6.6613381477509392e-015 -6.3500000000000014 0 1 I I #
edge $-1 -1 $-1 $67 2.4846012762866518e-031 $146 12.699999999999998 $88 $152 forward @7 unknown #
convexity-sys-attrib $-1 -1 $-1 $66 $44 #
point $-1 -1 $-1 -3.8100000000000001 4.4450000000000074 0 #
point $-1 -1 $-1 2.5399999999999934 -1.9050000000000007 0 #
face $-1 -1 $-1 $153 $154 $16 $-1 $155 reversed single #
loop $-1 -1 $-1 $-1 $156 $70 #
coedge $-1 -1 $-1 $157 $158 $159 $160 reversed $71 $-1 #
coedge $-1 -1 $-1 $116 $72 $161 $162 forward $46 $-1 #
coedge $-1 -1 $-1 $163 $164 $72 $110 forward $165 $-1 #
edge $-1 -1 $-1 $166 -3.1415926535897936 $118 -1.5707963267948972 $109 $167 forward @7 unknown #
coedge $-1 -1 $-1 $74 $73 $168 $169 reversed $30 $-1 #
coedge $-1 -1 $-1 $170 $171 $73 $113 forward $172 $-1 #
edge $-1 -1 $-1 $173 6.294177777402459e-016 $119 1.5707963267948972 $112 $174 forward @7 unknown #
coedge $-1 -1 $-1 $175 $176 $74 $115 forward $177 $-1 #
edge $-1 -1 $-1 $118 -1.5707963267948972 $178 -6.294177777402459e-016 $114 $167 forward @7 unknown #
coedge $-1 -1 $-1 $75 $108 $179 $180 reversed $46 $-1 #
coedge $-1 -1 $-1 $181 $182 $183 $76 forward $184 $-1 #
vertex $-1 -1 $-1 $185 $186 #
vertex $-1 -1 $-1 $187 $188 #
straight-curve $-1 -1 $-1 6.3500000000000005 1.7763568394002505e-015 -6.3499999999999996 0 0 -1 I I #
face $-1 -1 $-1 $189 $190 $17 $-1 $191 reversed single #
loop $-1 -1 $-1 $-1 $192 $77 #
plane-surface $-1 -1 $-1 -6.3500000000000005 0 0 1 0 0 0 0 -1 forward_v I I I I #
coedge $-1 -1 $-1 $193 $132 $194 $195 forward $78 $-1 #
coedge $-1 -1 $-1 $196 $80 $193 $197 forward $50 $-1 #
coedge $-1 -1 $-1 $80 $196 $198 $199 forward $50 $-1 #
coedge $-1 -1 $-1 $135 $134 $80 $128 reversed $136 $-1 #
edge $-1 -1 $-1 $200 -6.3500000000000014 $201 6.3500000000000014 $127 $202 forward @7 unknown #
coedge $-1 -1 $-1 $82 $81 $203 $204 forward $34 $-1 #
coedge $-1 -1 $-1 $205 $206 $81 $131 reversed $190 $-1 #
edge $-1 -1 $-1 $138 -6.3500000000000005 $207 6.3500000000000005 $130 $208 forward @7 unknown #
coedge $-1 -1 $-1 $124 $209 $82 $133 reversed $78 $-1 #
edge $-1 -1 $-1 $210 -6.3500000000000005 $137 6.3500000000000005 $132 $211 forward @7 unknown #
coedge $-1 -1 $-1 $127 $83 $209 $212 forward $136 $-1 #
coedge $-1 -1 $-1 $83 $127 $205 $213 reversed $136 $-1 #
loop $-1 -1 $-1 $-1 $134 $189 #
vertex $-1 -1 $-1 $84 $214 #
vertex $-1 -1 $-1 $84 $215 #
straight-curve $-1 -1 $-1 6.3500000000000005 0 6.3499999999999996 0 1 0 I I #
coedge $-1 -1 $-1 $92 $142 $141 $216 forward $86 $-1 #
coedge $-1 -1 $-1 $90 $88 $140 $216 reversed $55 $-1 #
coedge $-1 -1 $-1 $140 $92 $89 $143 forward $86 $-1 #
edge $-1 -1 $-1 $94 0 $144 1.570796326794897 $142 $217 forward @7 unknown #
vertex $-1 -1 $-1 $143 $218 #
straight-curve $-1 -1 $-1 8.8900000000000006 4.4450000000000003 0 0 0 1 I I #
vertex $-1 -1 $-1 $93 $219 #
ellipse-curve $-1 -1 $-1 2.5399999999999996 4.4449999999999994 12.699999999999999 0 0 1 -6.3499999999999996 7.9936057773011271e-015 0 1 I I #
point $-1 -1 $-1 2.5399999999999934 -1.9050000000000007 12.699999999999999 #
convexity-sys-attrib $-1 -1 $-1 $96 $62 #
point $-1 -1 $-1 8.8900000000000006 4.4450000000000003 0 #
convexity-sys-attrib $-1 -1 $-1 $99 $64 #
straight-curve $-1 -1 $-1 -3.8099999999999996 4.4450000000000038 0 0 6.9935308637805148e-017 1 I I #
face $-1 -1 $-1 $220 $184 $16 $-1 $221 reversed single #
loop $-1 -1 $-1 $-1 $168 $105 #
plane-surface $-1 -1 $-1 0 -6.3500000000000014 0 0 1 0 0 0 1 forward_v I I I I #
coedge $-1 -1 $-1 $161 $222 $223 $224 reversed $106 $-1 #
coedge $-1 -1 $-1 $225 $107 $226 $227 reversed $71 $-1 #
coedge $-1 -1 $-1 $107 $225 $111 $169 forward $71 $-1 #
coedge $-1 -1 $-1 $228 $229 $107 $160 forward $230 $-1 #
edge $-1 -1 $-1 $231 -1.5707963267948959 $173 6.294177777402459e-016 $159 $174 forward @7 unknown #
coedge $-1 -1 $-1 $232 $156 $233 $162 reversed $106 $-1 #
edge $-1 -1 $-1 $166 -12.699999999999999 $234 0 $233 $235 forward @7 unknown #
coedge $-1 -1 $-1 $164 $109 $182 $185 forward $165 $-1 #
coedge $-1 -1 $-1 $109 $163 $236 $237 forward $165 $-1 #
loop $-1 -1 $-1 $-1 $109 $238 #
vertex $-1 -1 $-1 $239 $240 #
ellipse-curve $-1 -1 $-1 -2.6645352591003757e-015 1.7763568394002505e-015 6.3499999999999996 0 0 -1 -3.9968028886505635e-015 -6.3500000000000032 0 1 I I #
coedge $-1 -1 $-1 $241 $242 $243 $169 forward $154 $-1 #
edge $-1 -1 $-1 $178 -12.699999999999999 $173 0 $168 $244 forward @7 unknown #
coedge $-1 -1 $-1 $171 $112 $245 $187 forward $172 $-1 #
coedge $-1 -1 $-1 $112 $170 $241 $246 forward $172 $-1 #
loop $-1 -1 $-1 $-1 $112 $247 #
vertex $-1 -1 $-1 $248 $249 #
ellipse-curve $-1 -1 $-1 -2.6645352591003757e-015 1.7763568394002505e-015 -6.3499999999999996 0 0 1 -3.9968028886505635e-015 -6.3500000000000032 0 1 I I #
coedge $-1 -1 $-1 $176 $114 $242 $250 forward $177 $-1 #
coedge $-1 -1 $-1 $114 $175 $251 $252 forward $177 $-1 #
loop $-1 -1 $-1 $-1 $114 $253 #
vertex $-1 -1 $-1 $250 $254 #
coedge $-1 -1 $-1 $255 $256 $116 $180 forward $257 $-1 #
edge $-1 -1 $-1 $119 1.5707963267948972 $234 3.1415926535897936 $179 $174 forward @7 unknown #
coedge $-1 -1 $-1 $258 $117 $256 $259 reversed $184 $-1 #
coedge $-1 -1 $-1 $117 $258 $163 $185 reversed $184 $-1 #
coedge $-1 -1 $-1 $251 $245 $47 $76 reversed $260 $-1 #
loop $-1 -1 $-1 $-1 $117 $153 #
edge $-1 -1 $-1 $118 1.7763568394002505e-015 $261 6.3500000000000014 $182 $262 forward @7 unknown #
point $-1 -1 $-1 6.3500000000000005 1.7763568394002505e-015 6.3499999999999996 #
edge $-1 -1 $-1 $119 -1.7763568394002505e-015 $263 6.3500000000000014 $245 $264 forward @7 unknown #
point $-1 -1 $-1 6.3500000000000005 1.7763568394002505e-015 -6.3499999999999996 #
face $-1 -1 $-1 $-1 $136 $17 $-1 $265 reversed single #
loop $-1 -1 $-1 $-1 $205 $121 #
plane-surface $-1 -1 $-1 0 6.3500000000000014 0 0 -1 0 0 0 -1 forward_v I I I I #
coedge $-1 -1 $-1 $266 $203 $206 $267 forward $122 $-1 #
coedge $-1 -1 $-1 $209 $124 $125 $197 reversed $78 $-1 #
coedge $-1 -1 $-1 $203 $266 $124 $195 reversed $122 $-1 #
edge $-1 -1 $-1 $210 -6.3499999999999996 $268 6.3499999999999996 $194 $269 forward @7 unknown #
coedge $-1 -1 $-1 $126 $125 $266 $270 forward $50 $-1 #
edge $-1 -1 $-1 $201 -6.3500000000000005 $268 6.3500000000000005 $193 $271 forward @7 unknown #
coedge $-1 -1 $-1 $206 $205 $126 $199 reversed $190 $-1 #
edge $-1 -1 $-1 $272 -6.3500000000000005 $200 6.3500000000000005 $198 $273 forward @7 unknown #
vertex $-1 -1 $-1 $128 $274 #
vertex $-1 -1 $-1 $212 $275 #
straight-curve $-1 -1 $-1 6.3500000000000005 0 -6.3499999999999996 0 -1 0 I I #
coedge $-1 -1 $-1 $192 $194 $129 $204 reversed $122 $-1 #
edge $-1 -1 $-1 $207 -6.3500000000000014 $210 6.3500000000000014 $203 $276 forward @7 unknown #
coedge $-1 -1 $-1 $198 $130 $135 $213 forward $190 $-1 #
coedge $-1 -1 $-1 $130 $198 $192 $267 reversed $190 $-1 #
vertex $-1 -1 $-1 $131 $277 #
straight-curve $-1 -1 $-1 0 6.3500000000000014 6.3499999999999996 -1 0 0 I I #
coedge $-1 -1 $-1 $132 $193 $134 $212 reversed $78 $-1 #
vertex $-1 -1 $-1 $204 $278 #
straight-curve $-1 -1 $-1 0 -6.3500000000000014 6.3499999999999996 1 0 0 I I #
edge $-1 -1 $-1 $137 -6.3499999999999996 $201 6.3499999999999996 $134 $279 forward @7 unknown #
edge $-1 -1 $-1 $138 -6.3499999999999996 $200 6.3499999999999996 $135 $280 forward @7 unknown #
point $-1 -1 $-1 6.3500000000000005 -6.3500000000000014 6.3499999999999996 #
point $-1 -1 $-1 6.3500000000000005 6.3500000000000014 6.3499999999999996 #
edge $-1 -1 $-1 $144 0 $146 3.1415926535897931 $140 $281 forward @7 unknown #
ellipse-curve $-1 -1 $-1 2.5399999999999974 4.4450000000000021 12.699999999999999 0 0 1 -3.9968028886505635e-015 -6.3500000000000032 0 1 I I #
point $-1 -1 $-1 8.8900000000000006 4.4450000000000003 12.699999999999999 #
point $-1 -1 $-1 -3.8099999999999996 4.4450000000000047 12.699999999999998 #
face $-1 -1 $-1 $282 $283 $16 $-1 $284 reversed single #
plane-surface $-1 -1 $-1 6.3500000000000005 0 0 -1 0 0 0 0 1 forward_v I I I I #
coedge $-1 -1 $-1 $156 $232 $157 $227 forward $106 $-1 #
coedge $-1 -1 $-1 $285 $286 $156 $224 forward $287 $-1 #
edge $-1 -1 $-1 $234 -3.1415926535897927 $231 -1.5707963267948959 $223 $174 forward @7 unknown #
coedge $-1 -1 $-1 $158 $157 $288 $289 reversed $71 $-1 #
coedge $-1 -1 $-1 $290 $291 $292 $227 forward $293 $-1 #
edge $-1 -1 $-1 $294 -12.699999999999999 $231 0 $226 $295 forward @7 unknown #
coedge $-1 -1 $-1 $229 $159 $296 $248 forward $230 $-1 #
coedge $-1 -1 $-1 $159 $228 $290 $297 forward $230 $-1 #
loop $-1 -1 $-1 $-1 $159 $298 #
vertex $-1 -1 $-1 $299 $300 #
coedge $-1 -1 $-1 $222 $161 $301 $302 reversed $106 $-1 #
coedge $-1 -1 $-1 $303 $304 $305 $162 forward $283 $-1 #
vertex $-1 -1 $-1 $306 $307 #
straight-curve $-1 -1 $-1 -2.6645352591003757e-015 6.3500000000000014 -6.3499999999999996 0 0 -1 I I #
coedge $-1 -1 $-1 $308 $305 $164 $237 reversed $309 $-1 #
edge $-1 -1 $-1 $261 -6.3500000000000005 $166 2.6645352591003757e-015 $236 $310 forward @7 unknown #
face $-1 -1 $-1 $253 $165 $16 $-1 $311 forward single #
edge $-1 -1 $-1 $166 2.6645352591003757e-015 $312 6.3500000000000005 $304 $310 forward @7 unknown #
point $-1 -1 $-1 -2.6645352591003757e-015 6.3500000000000014 6.3499999999999996 #
coedge $-1 -1 $-1 $313 $168 $171 $246 reversed $154 $-1 #
coedge $-1 -1 $-1 $168 $313 $175 $250 reversed $154 $-1 #
coedge $-1 -1 $-1 $314 $296 $158 $169 reversed $315 $-1 #
straight-curve $-1 -1 $-1 -2.6645352591003757e-015 -6.3500000000000014 -6.3499999999999996 0 0 -1 I I #
coedge $-1 -1 $-1 $183 $316 $170 $187 reversed $260 $-1 #
edge $-1 -1 $-1 $263 -6.3500000000000005 $173 2.6645352591003757e-015 $241 $317 forward @7 unknown #
face $-1 -1 $-1 $318 $172 $16 $-1 $319 reversed single #
edge $-1 -1 $-1 $173 2.6645352591003757e-015 $320 6.3500000000000005 $296 $317 forward @7 unknown #
point $-1 -1 $-1 -2.6645352591003757e-015 -6.3500000000000014 -6.3499999999999996 #
edge $-1 -1 $-1 $178 -2.6645352591003757e-015 $321 6.3500000000000005 $242 $322 forward @7 unknown #
coedge $-1 -1 $-1 $316 $183 $176 $252 reversed $260 $-1 #
edge $-1 -1 $-1 $321 -6.3500000000000014 $118 1.7763568394002505e-015 $251 $262 forward @7 unknown #
face $-1 -1 $-1 $323 $177 $16 $-1 $311 forward single #
point $-1 -1 $-1 -2.6645352591003757e-015 -6.3500000000000014 6.3499999999999996 #
coedge $-1 -1 $-1 $256 $179 $324 $306 forward $257 $-1 #
coedge $-1 -1 $-1 $179 $255 $181 $259 forward $257 $-1 #
loop $-1 -1 $-1 $-1 $179 $318 #
coedge $-1 -1 $-1 $182 $181 $308 $325 reversed $184 $-1 #
edge $-1 -1 $-1 $326 -6.3500000000000014 $119 -1.7763568394002505e-015 $181 $264 forward @7 unknown #
loop $-1 -1 $-1 $-1 $183 $327 #
vertex $-1 -1 $-1 $185 $328 #
straight-curve $-1 -1 $-1 6.3500000000000005 0 6.3499999999999996 0 1 0 I I #
vertex $-1 -1 $-1 $329 $330 #
straight-curve $-1 -1 $-1 6.3500000000000005 0 -6.3499999999999996 0 -1 0 I I #
plane-surface $-1 -1 $-1 6.3500000000000005 0 0 -1 0 0 0 0 1 forward_v I I I I #
coedge $-1 -1 $-1 $194 $192 $196 $270 reversed $122 $-1 #
edge $-1 -1 $-1 $207 -6.3499999999999996 $272 6.3499999999999996 $206 $331 forward @7 unknown #
vertex $-1 -1 $-1 $270 $332 #
straight-curve $-1 -1 $-1 -6.3500000000000005 -6.3500000000000014 0 0 0 -1 I I #
edge $-1 -1 $-1 $268 -6.3500000000000014 $272 6.3500000000000014 $266 $333 forward @7 unknown #
straight-curve $-1 -1 $-1 0 -6.3500000000000014 -6.3499999999999996 -1 0 0 I I #
vertex $-1 -1 $-1 $199 $334 #
straight-curve $-1 -1 $-1 0 6.3500000000000014 -6.3499999999999996 1 0 0 I I #
point $-1 -1 $-1 6.3500000000000005 6.3500000000000014 -6.3499999999999996 #
point $-1 -1 $-1 6.3500000000000005 -6.3500000000000014 -6.3499999999999996 #
straight-curve $-1 -1 $-1 -6.3500000000000005 0 6.3499999999999996 0 -1 0 I I #
point $-1 -1 $-1 -6.3500000000000005 6.3500000000000014 6.3499999999999996 #
point $-1 -1 $-1 -6.3500000000000005 -6.3500000000000014 6.3499999999999996 #
straight-curve $-1 -1 $-1 6.3500000000000005 -6.3500000000000014 0 0 0 -1 I I #
straight-curve $-1 -1 $-1 6.3500000000000005 6.3500000000000014 0 0 0 -1 I I #
ellipse-curve $-1 -1 $-1 2.54 4.4450000000000021 12.699999999999999 0 0 1 6.3500000000000005 -1.7763568394002505e-015 0 1 I I #
face $-1 -1 $-1 $238 $335 $16 $-1 $311 forward single #
loop $-1 -1 $-1 $-1 $233 $220 #
plane-surface $-1 -1 $-1 0 6.3500000000000014 0 0 -1 0 0 0 -1 forward_v I I I I #
coedge $-1 -1 $-1 $286 $223 $336 $299 forward $287 $-1 #
coedge $-1 -1 $-1 $223 $285 $303 $337 forward $287 $-1 #
loop $-1 -1 $-1 $-1 $223 $338 #
coedge $-1 -1 $-1 $339 $340 $225 $289 forward $341 $-1 #
edge $-1 -1 $-1 $178 -6.294177777402459e-016 $294 1.5707963267948959 $288 $167 forward @7 unknown #
coedge $-1 -1 $-1 $342 $226 $229 $297 reversed $293 $-1 #
coedge $-1 -1 $-1 $226 $342 $339 $343 reversed $293 $-1 #
coedge $-1 -1 $-1 $344 $336 $222 $227 reversed $345 $-1 #
loop $-1 -1 $-1 $-1 $226 $346 #
vertex $-1 -1 $-1 $343 $347 #
straight-curve $-1 -1 $-1 -6.3500000000000005 1.7763568394002505e-015 -6.3499999999999996 0 0 -1 I I #
coedge $-1 -1 $-1 $243 $348 $228 $248 reversed $315 $-1 #
edge $-1 -1 $-1 $320 -6.3500000000000014 $231 1.7763568394002505e-015 $290 $349 forward @7 unknown #
face $-1 -1 $-1 $247 $230 $16 $-1 $319 reversed single #
edge $-1 -1 $-1 $231 1.7763568394002505e-015 $350 6.3500000000000014 $336 $349 forward @7 unknown #
point $-1 -1 $-1 -6.3500000000000005 1.7763568394002505e-015 -6.3499999999999996 #
coedge $-1 -1 $-1 $351 $352 $232 $302 forward $335 $-1 #
edge $-1 -1 $-1 $294 1.5707963267948959 $166 3.1415926535897927 $301 $167 forward @7 unknown #
coedge $-1 -1 $-1 $353 $233 $286 $337 reversed $283 $-1 #
coedge $-1 -1 $-1 $233 $353 $351 $239 reversed $283 $-1 #
coedge $-1 -1 $-1 $236 $324 $108 $162 reversed $309 $-1 #
edge $-1 -1 $-1 $234 -2.6645352591003757e-015 $326 6.3500000000000005 $324 $354 forward @7 unknown #
point $-1 -1 $-1 -2.6645352591003757e-015 6.3500000000000014 -6.3499999999999996 #
coedge $-1 -1 $-1 $324 $236 $258 $325 forward $309 $-1 #
loop $-1 -1 $-1 $-1 $305 $355 #
straight-curve $-1 -1 $-1 0 6.3500000000000014 6.3499999999999996 -1 0 0 I I #
plane-surface $-1 -1 $-1 0 0 6.3499999999999996 0 0 1 1 0 0 forward_v I I I I #
vertex $-1 -1 $-1 $239 $356 #
coedge $-1 -1 $-1 $242 $241 $316 $329 reversed $154 $-1 #
coedge $-1 -1 $-1 $348 $243 $340 $357 reversed $315 $-1 #
loop $-1 -1 $-1 $-1 $243 $358 #
coedge $-1 -1 $-1 $245 $251 $313 $329 forward $260 $-1 #
straight-curve $-1 -1 $-1 0 -6.3500000000000014 -6.3499999999999996 -1 0 0 I I #
face $-1 -1 $-1 $358 $257 $16 $-1 $319 reversed single #
plane-surface $-1 -1 $-1 0 0 -6.3499999999999996 0 0 1 1 0 0 forward_v I I I I #
vertex $-1 -1 $-1 $297 $359 #
vertex $-1 -1 $-1 $252 $360 #
straight-curve $-1 -1 $-1 0 -6.3500000000000014 6.3499999999999996 1 0 0 I I #
face $-1 -1 $-1 $346 $341 $16 $-1 $311 forward single #
coedge $-1 -1 $-1 $305 $308 $255 $306 reversed $309 $-1 #
edge $-1 -1 $-1 $261 -6.3499999999999996 $326 6.3499999999999996 $258 $361 forward @7 unknown #
vertex $-1 -1 $-1 $259 $362 #
face $-1 -1 $-1 $-1 $260 $16 $-1 $221 reversed single #
point $-1 -1 $-1 6.3500000000000005 6.3500000000000014 6.3499999999999996 #
edge $-1 -1 $-1 $321 -6.3499999999999996 $263 6.3499999999999996 $316 $363 forward @7 unknown #
point $-1 -1 $-1 6.3500000000000005 -6.3500000000000014 -6.3499999999999996 #
straight-curve $-1 -1 $-1 -6.3500000000000005 6.3500000000000014 0 0 0 -1 I I #
point $-1 -1 $-1 -6.3500000000000005 -6.3500000000000014 -6.3499999999999996 #
straight-curve $-1 -1 $-1 -6.3500000000000005 0 -6.3499999999999996 0 1 0 I I #
point $-1 -1 $-1 -6.3500000000000005 6.3500000000000014 -6.3499999999999996 #
loop $-1 -1 $-1 $-1 $301 $282 #
coedge $-1 -1 $-1 $292 $364 $285 $299 reversed $345 $-1 #
edge $-1 -1 $-1 $350 -6.3500000000000005 $234 -2.6645352591003757e-015 $303 $354 forward @7 unknown #
face $-1 -1 $-1 $298 $287 $16 $-1 $319 reversed single #
coedge $-1 -1 $-1 $340 $288 $291 $343 forward $341 $-1 #
coedge $-1 -1 $-1 $288 $339 $314 $357 forward $341 $-1 #
loop $-1 -1 $-1 $-1 $288 $323 #
coedge $-1 -1 $-1 $291 $290 $348 $365 reversed $293 $-1 #
edge $-1 -1 $-1 $294 -1.7763568394002505e-015 $366 6.3500000000000014 $291 $367 forward @7 unknown #
coedge $-1 -1 $-1 $364 $292 $352 $368 reversed $345 $-1 #
loop $-1 -1 $-1 $-1 $292 $369 #
face $-1 -1 $-1 $338 $293 $16 $-1 $370 reversed single #
point $-1 -1 $-1 -6.3500000000000005 1.7763568394002505e-015 6.3499999999999996 #
coedge $-1 -1 $-1 $296 $314 $342 $365 forward $315 $-1 #
straight-curve $-1 -1 $-1 -6.3500000000000005 0 -6.3499999999999996 0 1 0 I I #
vertex $-1 -1 $-1 $337 $371 #
coedge $-1 -1 $-1 $352 $301 $304 $239 forward $335 $-1 #
coedge $-1 -1 $-1 $301 $351 $344 $368 forward $335 $-1 #
coedge $-1 -1 $-1 $304 $303 $364 $372 reversed $283 $-1 #
straight-curve $-1 -1 $-1 0 6.3500000000000014 -6.3499999999999996 1 0 0 I I #
face $-1 -1 $-1 $327 $309 $16 $-1 $284 reversed single #
point $-1 -1 $-1 -6.3500000000000005 6.3500000000000014 6.3499999999999996 #
edge $-1 -1 $-1 $366 -6.3500000000000005 $178 -2.6645352591003757e-015 $314 $322 forward @7 unknown #
face $-1 -1 $-1 $369 $315 $16 $-1 $155 reversed single #
point $-1 -1 $-1 -6.3500000000000005 -6.3500000000000014 -6.3499999999999996 #
point $-1 -1 $-1 6.3500000000000005 -6.3500000000000014 6.3499999999999996 #
straight-curve $-1 -1 $-1 6.3500000000000005 6.3500000000000014 0 0 0 -1 I I #
point $-1 -1 $-1 6.3500000000000005 6.3500000000000014 -6.3499999999999996 #
straight-curve $-1 -1 $-1 6.3500000000000005 -6.3500000000000014 0 0 0 -1 I I #
coedge $-1 -1 $-1 $336 $344 $353 $372 forward $345 $-1 #
edge $-1 -1 $-1 $366 -6.3499999999999996 $320 6.3499999999999996 $342 $373 forward @7 unknown #
vertex $-1 -1 $-1 $343 $374 #
straight-curve $-1 -1 $-1 -6.3500000000000005 0 6.3499999999999996 0 -1 0 I I #
edge $-1 -1 $-1 $312 -6.3500000000000014 $294 -1.7763568394002505e-015 $344 $367 forward @7 unknown #
face $-1 -1 $-1 $355 $345 $16 $-1 $370 reversed single #
plane-surface $-1 -1 $-1 -6.3500000000000005 0 0 1 0 0 0 0 -1 forward_v I I I I #
point $-1 -1 $-1 -6.3500000000000005 6.3500000000000014 -6.3499999999999996 #
edge $-1 -1 $-1 $312 -6.3499999999999996 $350 6.3499999999999996 $353 $375 forward @7 unknown #
straight-curve $-1 -1 $-1 -6.3500000000000005 -6.3500000000000014 0 0 0 -1 I I #
point $-1 -1 $-1 -6.3500000000000005 -6.3500000000000014 6.3499999999999996 #
straight-curve $-1 -1 $-1 -6.3500000000000005 6.3500000000000014 0 0 0 -1 I I #
End-of-ACIS-data 