600 0 1 0           
92 GICL ACIS Healer - Source: /gicl/data5/repository/PTC/V18/bboxrev2/boombox/opamp_m.sat - 6 0 18 ACIS 6.0.3 Solaris 24 Sat Apr 13 22:40:06 2002 
1 9.999999999999999547e-07 1.000000000000000036e-10 
body $-1 $1 $-1 $-1 #
lump $-1 $-1 $2 $0 #
shell $-1 $-1 $-1 $3 $-1 $1 #
face $-1 $4 $5 $2 $-1 $6 reversed single #
face $-1 $7 $8 $2 $-1 $9 forward single #
loop $-1 $-1 $10 $3 #
plane-surface $-1 0 0 0 0 0 1 1 0 0 forward_v I I I I #
face $-1 $11 $12 $2 $-1 $13 forward single #
loop $-1 $-1 $14 $4 #
cone-surface $-1 2.540000000000000036 4.444999999999998508 0 0 0 1 6.349999999999999645 0 0 1 I I 0 1 6.349999999999999645 forward I I I I #
coedge $-1 $15 $16 $17 $18 reversed $5 $-1 #
face $-1 $19 $20 $2 $-1 $21 forward single #
loop $-1 $-1 $22 $7 #
cone-surface $-1 2.540000000000000036 4.445000000000000284 0 0 0 1 6.349999999999999645 0 0 1 I I 0 1 6.349999999999999645 forward I I I I #
coedge $-1 $23 $17 $24 $25 forward $8 $-1 #
coedge $-1 $16 $10 $26 $27 reversed $5 $-1 #
coedge $-1 $10 $15 $28 $29 reversed $5 $-1 #
coedge $-1 $14 $30 $10 $18 forward $8 $-1 #
edge $-1 $31 0 $32 1.570796326794897002 $10 $33 forward 7 unknown #
face $-1 $-1 $34 $2 $-1 $35 forward single #
loop $-1 $-1 $36 $11 #
cone-surface $-1 2.540000000000000036 4.445000000000000284 0 0 0 1 6.349999999999999645 0 0 1 I I 0 1 6.349999999999999645 forward I I I I #
coedge $-1 $37 $28 $38 $39 forward $12 $-1 #
coedge $-1 $30 $14 $40 $41 reversed $8 $-1 #
coedge $-1 $28 $37 $14 $25 reversed $12 $-1 #
edge $-1 $32 -6.832653509788292228e-31 $42 12.69999999999999929 $24 $43 forward 7 unknown #
coedge $-1 $36 $38 $15 $27 forward $20 $-1 #
edge $-1 $44 0 $31 3.141592653589792228 $15 $45 forward 7 unknown #
coedge $-1 $22 $24 $16 $29 forward $12 $-1 #
edge $-1 $32 0 $44 1.570796326794897668 $16 $46 forward 7 unknown #
coedge $-1 $17 $23 $36 $47 reversed $8 $-1 #
vertex $-1 $27 $48 #
vertex $-1 $29 $49 #
ellipse-curve $-1 2.540000000000000036 4.444999999999998508 0 0 0 1 -6.349999999999999645 8.881784197001252323e-15 0 1 I I #
loop $-1 $-1 $50 $19 #
plane-surface $-1 0 0 12.69999999999999929 0 0 1 1 0 0 forward_v I I I I #
coedge $-1 $51 $26 $30 $47 forward $20 $-1 #
coedge $-1 $24 $22 $52 $53 reversed $12 $-1 #
coedge $-1 $26 $51 $22 $39 reversed $20 $-1 #
edge $-1 $44 0 $54 12.69999999999999929 $22 $55 forward 7 unknown #
coedge $-1 $52 $50 $23 $41 forward $34 $-1 #
edge $-1 $56 4.196118518268309112e-16 $42 1.570796326794897002 $40 $57 forward 7 unknown #
vertex $-1 $53 $58 #
straight-curve $-1 2.539999999999998703 -1.905000000000001137 0 1.398706172756102955e-16 1.398706172756102955e-16 1 I I #
vertex $-1 $29 $59 #
ellipse-curve $-1 2.540000000000000036 4.445000000000000284 0 0 0 1 6.350000000000000533 0 0 1 I I #
ellipse-curve $-1 2.540000000000000036 4.445000000000000284 0 0 0 1 -6.661338147750939243e-15 -6.350000000000001421 0 1 I I #
edge $-1 $31 2.484601276286651759e-31 $56 12.69999999999999751 $36 $60 forward 7 unknown #
point $-1 -3.810000000000000053 4.44500000000000739 0 #
point $-1 2.539999999999993374 -1.905000000000000693 0 #
coedge $-1 $40 $52 $51 $61 forward $34 $-1 #
coedge $-1 $38 $36 $50 $61 reversed $20 $-1 #
coedge $-1 $50 $40 $37 $53 forward $34 $-1 #
edge $-1 $42 0 $54 1.570796326794897002 $52 $62 forward 7 unknown #
vertex $-1 $53 $63 #
straight-curve $-1 8.890000000000000568 4.445000000000000284 0 0 0 1 I I #
vertex $-1 $41 $64 #
ellipse-curve $-1 2.539999999999999591 4.444999999999999396 12.69999999999999929 0 0 1 -6.349999999999999645 7.993605777301127091e-15 0 1 I I #
point $-1 2.539999999999993374 -1.905000000000000693 12.69999999999999929 #
point $-1 8.890000000000000568 4.445000000000000284 0 #
straight-curve $-1 -3.809999999999999609 4.445000000000003837 0 0 6.993530863780514776e-17 1 I I #
edge $-1 $54 0 $56 3.141592653589793116 $50 $65 forward 7 unknown #
ellipse-curve $-1 2.539999999999997371 4.445000000000002061 12.69999999999999929 0 0 1 -3.996802888650563546e-15 -6.350000000000003197 0 1 I I #
point $-1 8.890000000000000568 4.445000000000000284 12.69999999999999929 #
point $-1 -3.809999999999999609 4.445000000000004725 12.69999999999999751 #
ellipse-curve $-1 2.540000000000000036 4.445000000000002061 12.69999999999999929 0 0 1 6.350000000000000533 -1.776356839400250465e-15 0 1 I I #
End-of-ACIS-data 