600 0 1 0           
99 GICL Pro/E ACIS Translator - Source: f:/data5/repository/PTC/V18/bboxrev2/boombox/plcc_32.prt - 6 0 13 ACIS 6.0.3 NT 24 Thu Apr 04 10:04:32 2002 
1 9.9999999999999995e-007 1e-010 
body $-1 $1 $-1 $2 #
lump $-1 $-1 $3 $0 #
transform $-1 1 0 0 0 1 0 0 0 1 0 0 0 25.399999999999999 no_rotate no_reflect no_shear #
shell $-1 $-1 $-1 $4 $-1 $1 #
face $-1 $5 $6 $3 $-1 $7 reversed single #
face $-1 $8 $9 $3 $-1 $10 forward single #
loop $-1 $-1 $11 $4 #
plane-surface $-1 0 0 0 0 0 1 1 0 0 forward_v I I I I #
face $-1 $12 $13 $3 $-1 $14 forward single #
loop $-1 $-1 $15 $5 #
plane-surface $-1 -0.29499999999999998 0.27000000000000002 0 -0.70710678118654757 0.70710678118654757 0 -0.70710678118654746 -0.70710678118654746 0 forward_v I I I I #
coedge $-1 $16 $17 $18 $19 reversed $6 $-1 #
face $-1 $20 $21 $3 $-1 $22 forward single #
loop $-1 $-1 $23 $8 #
plane-surface $-1 -0.32000000000000001 0.245 0 -1 0 0 0 -1 0 forward_v I I I I #
coedge $-1 $24 $18 $25 $26 forward $9 $-1 #
coedge $-1 $27 $11 $28 $29 reversed $6 $-1 #
coedge $-1 $11 $30 $31 $32 reversed $6 $-1 #
coedge $-1 $15 $33 $11 $19 forward $9 $-1 #
edge $-1 $34 0 $35 0.035355339059327417 $11 $36 forward 7 unknown #
face $-1 $37 $38 $3 $-1 $39 forward single #
loop $-1 $-1 $40 $12 #
plane-surface $-1 -0.32000000000000001 -0.27000000000000002 0 0 -1 0 1 0 0 forward_v I I I I #
coedge $-1 $41 $31 $42 $43 forward $13 $-1 #
coedge $-1 $33 $15 $44 $45 reversed $9 $-1 #
coedge $-1 $31 $41 $15 $26 reversed $13 $-1 #
edge $-1 $35 0 $46 0.14000000000000001 $25 $47 forward 7 unknown #
coedge $-1 $30 $16 $48 $49 reversed $6 $-1 #
coedge $-1 $50 $51 $16 $29 forward $52 $-1 #
edge $-1 $53 0 $34 0.61499999999999999 $16 $54 forward 7 unknown #
coedge $-1 $17 $27 $55 $56 reversed $6 $-1 #
coedge $-1 $23 $25 $17 $32 forward $13 $-1 #
edge $-1 $35 0 $57 0.51500000000000001 $17 $58 forward 7 unknown #
coedge $-1 $18 $24 $50 $59 reversed $9 $-1 #
vertex $-1 $29 $60 #
vertex $-1 $32 $61 #
straight-curve $-1 -0.29499999999999998 0.27000000000000002 0 -0.70710678118654746 -0.70710678118654746 0 I I #
face $-1 $62 $52 $3 $-1 $63 forward single #
loop $-1 $-1 $64 $20 #
plane-surface $-1 0.32000000000000001 -0.27000000000000002 0 1 0 0 0 1 0 forward_v I I I I #
coedge $-1 $65 $55 $66 $67 forward $21 $-1 #
coedge $-1 $25 $23 $68 $69 reversed $13 $-1 #
coedge $-1 $55 $65 $23 $43 reversed $21 $-1 #
edge $-1 $57 0 $70 0.14000000000000001 $23 $71 forward 7 unknown #
coedge $-1 $68 $72 $24 $45 forward $73 $-1 #
edge $-1 $74 0 $46 0.035355339059327417 $44 $75 forward 7 unknown #
vertex $-1 $69 $76 #
straight-curve $-1 -0.32000000000000001 0.245 0 0 0 1 I I #
coedge $-1 $64 $66 $27 $49 forward $38 $-1 #
edge $-1 $77 0 $53 0.54000000000000004 $27 $78 forward 7 unknown #
coedge $-1 $79 $28 $33 $59 forward $52 $-1 #
coedge $-1 $28 $79 $64 $80 reversed $52 $-1 #
loop $-1 $-1 $50 $37 #
vertex $-1 $49 $81 #
straight-curve $-1 0.32000000000000001 0.27000000000000002 0 -1 0 0 I I #
coedge $-1 $40 $42 $30 $56 forward $21 $-1 #
edge $-1 $57 0 $77 0.64000000000000001 $30 $82 forward 7 unknown #
vertex $-1 $32 $83 #
straight-curve $-1 -0.32000000000000001 0.245 0 0 -1 0 I I #
edge $-1 $34 0 $74 0.14000000000000001 $50 $84 forward 7 unknown #
point $-1 -0.29499999999999998 0.27000000000000002 0 #
point $-1 -0.32000000000000001 0.245 0 #
face $-1 $-1 $73 $3 $-1 $85 forward single #
plane-surface $-1 0.32000000000000001 0.27000000000000002 0 0 1 0 -1 0 0 forward_v I I I I #
coedge $-1 $86 $48 $51 $80 forward $38 $-1 #
coedge $-1 $42 $40 $87 $88 reversed $21 $-1 #
coedge $-1 $48 $86 $40 $67 reversed $38 $-1 #
edge $-1 $77 0 $89 0.14000000000000001 $40 $90 forward 7 unknown #
coedge $-1 $87 $44 $41 $69 forward $73 $-1 #
edge $-1 $46 0 $70 0.51500000000000001 $68 $91 forward 7 unknown #
vertex $-1 $69 $92 #
straight-curve $-1 -0.32000000000000001 -0.27000000000000002 0 0 0 1 I I #
coedge $-1 $44 $93 $79 $94 forward $73 $-1 #
loop $-1 $-1 $87 $62 #
vertex $-1 $45 $95 #
straight-curve $-1 -0.29499999999999998 0.27000000000000002 0.14000000000000001 -0.70710678118654746 -0.70710678118654746 0 I I #
point $-1 -0.32000000000000001 0.245 0.14000000000000001 #
vertex $-1 $56 $96 #
straight-curve $-1 0.32000000000000001 -0.27000000000000002 0 0 1 0 I I #
coedge $-1 $51 $50 $72 $94 reversed $52 $-1 #
edge $-1 $53 0 $97 0.14000000000000001 $64 $98 forward 7 unknown #
point $-1 0.32000000000000001 0.27000000000000002 0 #
straight-curve $-1 -0.32000000000000001 -0.27000000000000002 0 1 0 0 I I #
point $-1 -0.32000000000000001 -0.27000000000000002 0 #
straight-curve $-1 -0.29499999999999998 0.27000000000000002 0 0 0 1 I I #
plane-surface $-1 0 0 0.14000000000000001 0 0 1 1 0 0 forward_v I I I I #
coedge $-1 $66 $64 $93 $99 reversed $38 $-1 #
coedge $-1 $93 $68 $65 $88 forward $73 $-1 #
edge $-1 $70 0 $89 0.64000000000000001 $87 $100 forward 7 unknown #
vertex $-1 $99 $101 #
straight-curve $-1 0.32000000000000001 -0.27000000000000002 0 0 0 1 I I #
straight-curve $-1 -0.32000000000000001 0.245 0.14000000000000001 0 -1 0 I I #
point $-1 -0.32000000000000001 -0.27000000000000002 0.14000000000000001 #
coedge $-1 $72 $87 $86 $99 forward $73 $-1 #
edge $-1 $97 0 $74 0.61499999999999999 $72 $102 forward 7 unknown #
point $-1 -0.29499999999999998 0.27000000000000002 0.14000000000000001 #
point $-1 0.32000000000000001 -0.27000000000000002 0 #
vertex $-1 $94 $103 #
straight-curve $-1 0.32000000000000001 0.27000000000000002 0 0 0 1 I I #
edge $-1 $89 0 $97 0.54000000000000004 $93 $104 forward 7 unknown #
straight-curve $-1 -0.32000000000000001 -0.27000000000000002 0.14000000000000001 1 0 0 I I #
point $-1 0.32000000000000001 -0.27000000000000002 0.14000000000000001 #
straight-curve $-1 0.32000000000000001 0.27000000000000002 0.14000000000000001 -1 0 0 I I #
point $-1 0.32000000000000001 0.27000000000000002 0.14000000000000001 #
straight-curve $-1 0.32000000000000001 -0.27000000000000002 0.14000000000000001 0 1 0 I I #
End-of-ACIS-data 