700 0 2 0           
24 FBMach with ACIS - 7.0.3 13 ACIS 7.0.3 NT 24 Thu May 16 15:18:08 2002 
1 9.9999999999999995e-007 1e-010 
body $2 -1 $-1 $3 $-1 $4 #
bdycol-kcp $-1 -1 1 2 $5 $6 #
model_id-kcp-attrib $-1 -1 $-1 $-1 $0 1 1021576688 1021576688 -1978269695 1 #
lump $-1 -1 $-1 $-1 $7 $0 #
transform $-1 -1 1 0 0 0 1 0 0 0 1 0 0 0 1 rotate no_reflect no_shear #
body $8 -1 $-1 $9 $-1 $10 #
body $11 -1 $-1 $12 $-1 $13 #
shell $-1 -1 $-1 $-1 $-1 $14 $-1 $3 #
model_id-kcp-attrib $-1 -1 $-1 $-1 $5 1 1021576688 1021576688 -1978269694 1 #
lump $-1 -1 $-1 $-1 $15 $5 #
transform $-1 -1 1 0 0 0 1 0 0 0 1 0 15.25 0 1 no_rotate no_reflect no_shear #
rgb_color-st-attrib $-1 -1 $16 $-1 $6 0.5 1 1 #
lump $-1 -1 $-1 $-1 $17 $6 #
transform $-1 -1 1 0 0 0 1 0 0 0 1 0 0 0 1 no_rotate no_reflect no_shear #
face $18 -1 $-1 $19 $20 $7 $-1 $21 reversed single #
shell $-1 -1 $-1 $-1 $-1 $22 $-1 $9 #
model_id-kcp-attrib $-1 -1 $-1 $11 $6 1 1021576688 1021576688 -1969094653 1 #
shell $-1 -1 $-1 $-1 $-1 $23 $-1 $12 #
model_id-kcp-attrib $-1 -1 $-1 $-1 $14 1 1021576688 1021576688 -1978269695 2 #
face $24 -1 $-1 $25 $26 $7 $-1 $27 forward single #
loop $-1 -1 $-1 $28 $29 $14 #
plane-surface $-1 -1 $-1 0 0 -9.5 0 0 1 1 0 0 forward_v I I I I #
face $30 -1 $-1 $31 $32 $15 $-1 $33 forward single #
face $-1 -1 $-1 $34 $35 $17 $-1 $36 forward single #
model_id-kcp-attrib $-1 -1 $-1 $-1 $19 1 1021576688 1021576688 -1978269695 3 #
face $37 -1 $-1 $38 $39 $7 $-1 $40 forward single #
loop $-1 -1 $-1 $-1 $41 $19 #
plane-surface $-1 -1 $-1 -23 31 -9.5 0 -1 0 1 0 0 forward_v I I I I #
loop $-1 -1 $-1 $-1 $42 $14 #
coedge $-1 -1 $-1 $43 $44 $45 $46 reversed $20 $-1 #
model_id-kcp-attrib $-1 -1 $-1 $-1 $22 1 1021576688 1021576688 -1978269694 3 #
face $47 -1 $-1 $48 $49 $15 $-1 $50 reversed single #
loop $-1 -1 $-1 $-1 $51 $22 #
plane-surface $-1 -1 $-1 0 0 9.5 0 0 1 1 0 0 forward_v I I I I #
face $-1 -1 $-1 $52 $53 $17 $-1 $54 forward single #
loop $-1 -1 $-1 $-1 $55 $23 #
plane-surface $-1 -1 $-1 23 31 -9.5 1 0 0 0 0 -1 forward_v I I I I #
model_id-kcp-attrib $-1 -1 $-1 $-1 $25 1 1021576688 1021576688 -1978269695 4 #
face $56 -1 $-1 $57 $58 $7 $-1 $59 forward single #
loop $-1 -1 $-1 $-1 $60 $25 #
plane-surface $-1 -1 $-1 23 31 -9.5 -1 0 0 0 -1 0 forward_v I I I I #
coedge $-1 -1 $-1 $61 $45 $62 $63 forward $26 $-1 #
coedge $-1 -1 $-1 $64 $65 $66 $67 reversed $28 $-1 #
coedge $-1 -1 $-1 $68 $29 $69 $70 reversed $20 $-1 #
coedge $-1 -1 $-1 $29 $68 $71 $72 reversed $20 $-1 #
coedge $-1 -1 $-1 $41 $73 $29 $46 forward $26 $-1 #
edge $74 -1 $-1 $75 0 $76 46 $29 $77 forward @7 unknown #
model_id-kcp-attrib $-1 -1 $-1 $-1 $31 1 1021576688 1021576688 -1978269694 2 #
face $78 -1 $-1 $79 $80 $15 $-1 $81 reversed single #
loop $-1 -1 $-1 $-1 $82 $31 #
plane-surface $-1 -1 $-1 0 0 -9.5 0 0 1 1 0 0 forward_v I I I I #
coedge $-1 -1 $-1 $83 $84 $85 $86 forward $32 $-1 #
face $-1 -1 $-1 $87 $88 $17 $-1 $89 forward single #
loop $-1 -1 $-1 $-1 $90 $34 #
plane-surface $-1 -1 $-1 23 -0.5 -9.5 0 -1 0 0 0 -1 forward_v I I I I #
coedge $-1 -1 $-1 $91 $92 $93 $94 forward $35 $-1 #
model_id-kcp-attrib $-1 -1 $-1 $-1 $38 1 1021576688 1021576688 -1978269695 5 #
face $95 -1 $-1 $96 $97 $7 $-1 $98 forward single #
loop $-1 -1 $-1 $-1 $99 $38 #
plane-surface $-1 -1 $-1 23 -0.5 -9.5 0 1 0 -1 0 0 forward_v I I I I #
coedge $-1 -1 $-1 $100 $71 $101 $102 forward $39 $-1 #
coedge $-1 -1 $-1 $73 $41 $103 $104 reversed $26 $-1 #
coedge $-1 -1 $-1 $71 $100 $41 $63 reversed $39 $-1 #
edge $-1 -1 $-1 $76 0 $105 19 $62 $106 forward @7 unknown #
coedge $-1 -1 $-1 $107 $42 $108 $109 reversed $28 $-1 #
coedge $-1 -1 $-1 $42 $107 $110 $111 reversed $28 $-1 #
coedge $-1 -1 $-1 $112 $113 $42 $67 forward $114 $-1 #
edge $115 -1 $-1 $116 0 $117 40 $42 $118 forward @7 unknown #
coedge $-1 -1 $-1 $44 $43 $119 $120 reversed $20 $-1 #
coedge $-1 -1 $-1 $121 $122 $43 $70 forward $97 $-1 #
edge $123 -1 $-1 $124 0 $75 31.5 $43 $125 forward @7 unknown #
coedge $-1 -1 $-1 $60 $62 $44 $72 forward $39 $-1 #
edge $126 -1 $-1 $76 0 $127 31.5 $44 $128 forward @7 unknown #
coedge $-1 -1 $-1 $45 $61 $121 $129 reversed $26 $-1 #
attrib_edge_convexity-kcp-attrib $-1 -1 $130 $-1 $46 1 #
vertex $-1 -1 $-1 $70 $131 #
vertex $-1 -1 $-1 $72 $132 #
straight-curve $-1 -1 $-1 -23 31 -9.5 1 0 0 I I #
model_id-kcp-attrib $-1 -1 $-1 $-1 $48 1 1021576688 1021576688 -1978269694 7 #
face $133 -1 $-1 $134 $135 $15 $-1 $136 reversed single #
loop $-1 -1 $-1 $-1 $137 $48 #
plane-surface $-1 -1 $-1 0 -20 0 0 1 0 0 0 1 forward_v I I I I #
coedge $-1 -1 $-1 $138 $139 $140 $141 forward $49 $-1 #
coedge $-1 -1 $-1 $142 $51 $143 $144 forward $32 $-1 #
coedge $-1 -1 $-1 $51 $142 $145 $146 forward $32 $-1 #
coedge $-1 -1 $-1 $147 $148 $51 $86 reversed $149 $-1 #
edge $-1 -1 $-1 $150 -20 $151 20 $85 $152 forward @7 unknown #
face $-1 -1 $-1 $153 $154 $17 $-1 $155 forward single #
loop $-1 -1 $-1 $-1 $156 $52 #
plane-surface $-1 -1 $-1 -23 -0.5 -9.5 -1 0 0 0 0 1 forward_v I I I I #
coedge $-1 -1 $-1 $157 $158 $159 $160 forward $53 $-1 #
coedge $-1 -1 $-1 $161 $55 $158 $162 reversed $35 $-1 #
coedge $-1 -1 $-1 $55 $161 $163 $164 forward $35 $-1 #
coedge $-1 -1 $-1 $165 $159 $55 $94 reversed $166 $-1 #
edge $-1 -1 $-1 $167 0 $168 31.5 $55 $169 forward @7 unknown #
model_id-kcp-attrib $-1 -1 $-1 $-1 $57 1 1021576688 1021576688 -1978269695 6 #
face $170 -1 $-1 $171 $172 $7 $-1 $173 forward single #
loop $-1 -1 $-1 $-1 $121 $57 #
plane-surface $-1 -1 $-1 -23 -0.5 -9.5 1 0 0 0 1 0 forward_v I I I I #
coedge $-1 -1 $-1 $174 $119 $122 $175 forward $58 $-1 #
coedge $-1 -1 $-1 $62 $60 $176 $177 reversed $39 $-1 #
coedge $-1 -1 $-1 $119 $174 $60 $102 reversed $58 $-1 #
edge $-1 -1 $-1 $127 0 $178 19 $60 $179 forward @7 unknown #
coedge $-1 -1 $-1 $176 $180 $61 $104 forward $172 $-1 #
edge $-1 -1 $-1 $181 0 $105 46 $103 $182 forward @7 unknown #
vertex $-1 -1 $-1 $177 $183 #
straight-curve $-1 -1 $-1 23 31 -9.5 0 0 1 I I #
coedge $-1 -1 $-1 $65 $64 $184 $185 reversed $28 $-1 #
coedge $-1 -1 $-1 $186 $187 $64 $109 forward $188 $-1 #
edge $189 -1 $-1 $190 0 $116 55 $64 $191 forward @7 unknown #
coedge $-1 -1 $-1 $192 $193 $65 $111 forward $194 $-1 #
edge $195 -1 $-1 $117 0 $196 55 $65 $197 forward @7 unknown #
coedge $-1 -1 $-1 $198 $66 $193 $199 forward $114 $-1 #
coedge $-1 -1 $-1 $66 $198 $186 $200 reversed $114 $-1 #
loop $-1 -1 $-1 $-1 $112 $201 #
attrib_edge_convexity-kcp-attrib $-1 -1 $202 $-1 $67 1 #
vertex $-1 -1 $-1 $109 $203 #
vertex $-1 -1 $-1 $111 $204 #
straight-curve $-1 -1 $-1 -27.5 35.25 -9.5 0 -1 0 I I #
coedge $-1 -1 $-1 $99 $101 $68 $120 forward $58 $-1 #
edge $205 -1 $-1 $127 0 $124 46 $68 $206 forward @7 unknown #
coedge $-1 -1 $-1 $207 $69 $73 $129 forward $97 $-1 #
coedge $-1 -1 $-1 $69 $207 $99 $175 reversed $97 $-1 #
attrib_edge_convexity-kcp-attrib $-1 -1 $208 $-1 $70 1 #
vertex $-1 -1 $-1 $120 $209 #
straight-curve $-1 -1 $-1 -23 -0.5 -9.5 0 1 0 I I #
attrib_edge_convexity-kcp-attrib $-1 -1 $210 $-1 $72 1 #
vertex $-1 -1 $-1 $72 $211 #
straight-curve $-1 -1 $-1 23 31 -9.5 0 -1 0 I I #
edge $-1 -1 $-1 $75 0 $181 19 $121 $212 forward @7 unknown #
convexity-sys-attrib $-1 -1 $-1 $74 $46 #
point $-1 -1 $-1 -23 31 -9.5 #
point $-1 -1 $-1 23 31 -9.5 #
model_id-kcp-attrib $-1 -1 $-1 $-1 $79 1 1021576688 1021576688 -1978269694 6 #
face $213 -1 $-1 $214 $215 $15 $-1 $216 reversed single #
loop $-1 -1 $-1 $-1 $217 $79 #
plane-surface $-1 -1 $-1 -27.5 0 0 1 0 0 0 0 -1 forward_v I I I I #
coedge $-1 -1 $-1 $218 $145 $219 $220 forward $80 $-1 #
coedge $-1 -1 $-1 $221 $82 $218 $222 forward $49 $-1 #
coedge $-1 -1 $-1 $82 $221 $223 $224 forward $49 $-1 #
coedge $-1 -1 $-1 $148 $147 $82 $141 reversed $149 $-1 #
edge $-1 -1 $-1 $225 -20 $226 20 $140 $227 forward @7 unknown #
coedge $-1 -1 $-1 $84 $83 $228 $229 forward $32 $-1 #
coedge $-1 -1 $-1 $230 $231 $83 $144 reversed $215 $-1 #
edge $-1 -1 $-1 $151 -27.5 $232 27.5 $143 $233 forward @7 unknown #
coedge $-1 -1 $-1 $137 $234 $84 $146 reversed $80 $-1 #
edge $-1 -1 $-1 $235 -27.5 $150 27.5 $145 $236 forward @7 unknown #
coedge $-1 -1 $-1 $140 $85 $234 $237 forward $149 $-1 #
coedge $-1 -1 $-1 $85 $140 $230 $238 reversed $149 $-1 #
loop $-1 -1 $-1 $-1 $147 $214 #
vertex $-1 -1 $-1 $86 $239 #
vertex $-1 -1 $-1 $86 $240 #
straight-curve $-1 -1 $-1 27.5 0 9.5 0 1 0 I I #
face $-1 -1 $-1 $241 $166 $17 $-1 $242 forward single #
loop $-1 -1 $-1 $-1 $243 $87 #
plane-surface $-1 -1 $-1 -23 31 -9.5 0 1 0 0 0 1 forward_v I I I I #
coedge $-1 -1 $-1 $244 $245 $246 $247 forward $88 $-1 #
coedge $-1 -1 $-1 $248 $90 $245 $249 reversed $53 $-1 #
coedge $-1 -1 $-1 $90 $248 $91 $162 forward $53 $-1 #
coedge $-1 -1 $-1 $93 $246 $90 $160 reversed $166 $-1 #
edge $-1 -1 $-1 $168 0 $250 46 $90 $251 forward @7 unknown #
coedge $-1 -1 $-1 $92 $91 $252 $253 reversed $35 $-1 #
edge $-1 -1 $-1 $254 0 $168 19 $158 $255 forward @7 unknown #
coedge $-1 -1 $-1 $256 $243 $92 $164 reversed $154 $-1 #
edge $-1 -1 $-1 $257 0 $167 19 $92 $258 forward @7 unknown #
coedge $-1 -1 $-1 $246 $93 $243 $259 reversed $166 $-1 #
loop $-1 -1 $-1 $-1 $93 $153 #
vertex $-1 -1 $-1 $164 $260 #
vertex $-1 -1 $-1 $162 $261 #
straight-curve $-1 -1 $-1 23 31 9.5 0 -1 0 I I #
model_id-kcp-attrib $-1 -1 $-1 $-1 $96 1 1021576688 1021576688 -1978269695 7 #
face $262 -1 $-1 $263 $264 $7 $-1 $265 forward single #
loop $-1 -1 $-1 $266 $267 $96 #
plane-surface $-1 -1 $-1 0 0 9.5 0 0 1 1 0 0 forward_v I I I I #
coedge $-1 -1 $-1 $101 $99 $267 $268 reversed $58 $-1 #
edge $-1 -1 $-1 $124 0 $269 19 $99 $270 forward @7 unknown #
coedge $-1 -1 $-1 $267 $103 $100 $177 forward $172 $-1 #
edge $-1 -1 $-1 $105 0 $178 31.5 $176 $271 forward @7 unknown #
vertex $-1 -1 $-1 $177 $272 #
straight-curve $-1 -1 $-1 23 -0.5 -9.5 0 0 1 I I #
coedge $-1 -1 $-1 $103 $267 $207 $273 forward $172 $-1 #
vertex $-1 -1 $-1 $104 $274 #
straight-curve $-1 -1 $-1 -23 31 9.5 1 0 0 I I #
point $-1 -1 $-1 23 31 9.5 #
coedge $-1 -1 $-1 $275 $276 $107 $185 forward $264 $-1 #
edge $277 -1 $-1 $196 0 $190 40 $107 $278 forward @7 unknown #
coedge $-1 -1 $-1 $279 $108 $113 $200 forward $188 $-1 #
coedge $-1 -1 $-1 $108 $279 $275 $280 reversed $188 $-1 #
loop $-1 -1 $-1 $-1 $186 $263 #
attrib_edge_convexity-kcp-attrib $-1 -1 $281 $-1 $109 1 #
vertex $-1 -1 $-1 $185 $282 #
straight-curve $-1 -1 $-1 27.5 35.25 -9.5 -1 0 0 I I #
coedge $-1 -1 $-1 $283 $110 $276 $284 forward $194 $-1 #
coedge $-1 -1 $-1 $110 $283 $112 $199 reversed $194 $-1 #
loop $-1 -1 $-1 $-1 $192 $285 #
attrib_edge_convexity-kcp-attrib $-1 -1 $286 $-1 $111 1 #
vertex $-1 -1 $-1 $111 $287 #
straight-curve $-1 -1 $-1 -27.5 -4.75 -9.5 1 0 0 I I #
coedge $-1 -1 $-1 $113 $112 $288 $289 reversed $114 $-1 #
edge $-1 -1 $-1 $117 0 $290 19 $193 $291 forward @7 unknown #
edge $292 -1 $-1 $116 0 $293 19 $186 $294 forward @7 unknown #
face $295 -1 $-1 $285 $114 $7 $-1 $296 forward single #
convexity-sys-attrib $-1 -1 $-1 $115 $67 #
point $-1 -1 $-1 -27.5 35.25 -9.5 #
point $-1 -1 $-1 -27.5 -4.75 -9.5 #
attrib_edge_convexity-kcp-attrib $-1 -1 $297 $-1 $120 1 #
straight-curve $-1 -1 $-1 23 -0.5 -9.5 -1 0 0 I I #
coedge $-1 -1 $-1 $122 $121 $180 $273 reversed $97 $-1 #
convexity-sys-attrib $-1 -1 $-1 $123 $70 #
point $-1 -1 $-1 -23 -0.5 -9.5 #
convexity-sys-attrib $-1 -1 $-1 $126 $72 #
point $-1 -1 $-1 23 -0.5 -9.5 #
straight-curve $-1 -1 $-1 -23 31 -9.5 0 0 1 I I #
model_id-kcp-attrib $-1 -1 $-1 $-1 $134 1 1021576688 1021576688 -1978269694 5 #
face $298 -1 $-1 $-1 $149 $15 $-1 $299 reversed single #
loop $-1 -1 $-1 $-1 $230 $134 #
plane-surface $-1 -1 $-1 0 20 0 0 -1 0 0 0 -1 forward_v I I I I #
coedge $-1 -1 $-1 $300 $228 $231 $301 forward $135 $-1 #
coedge $-1 -1 $-1 $234 $137 $138 $222 reversed $80 $-1 #
coedge $-1 -1 $-1 $228 $300 $137 $220 reversed $135 $-1 #
edge $-1 -1 $-1 $235 -9.5 $302 9.5 $219 $303 forward @7 unknown #
coedge $-1 -1 $-1 $139 $138 $300 $304 forward $49 $-1 #
edge $-1 -1 $-1 $226 -27.5 $302 27.5 $218 $305 forward @7 unknown #
coedge $-1 -1 $-1 $231 $230 $139 $224 reversed $215 $-1 #
edge $-1 -1 $-1 $306 -27.5 $225 27.5 $223 $307 forward @7 unknown #
vertex $-1 -1 $-1 $141 $308 #
vertex $-1 -1 $-1 $237 $309 #
straight-curve $-1 -1 $-1 27.5 0 -9.5 0 -1 0 I I #
coedge $-1 -1 $-1 $217 $219 $142 $229 reversed $135 $-1 #
edge $-1 -1 $-1 $232 -20 $235 20 $228 $310 forward @7 unknown #
coedge $-1 -1 $-1 $223 $143 $148 $238 forward $215 $-1 #
coedge $-1 -1 $-1 $143 $223 $217 $301 reversed $215 $-1 #
vertex $-1 -1 $-1 $144 $311 #
straight-curve $-1 -1 $-1 0 20 9.5 -1 0 0 I I #
coedge $-1 -1 $-1 $145 $218 $147 $237 reversed $80 $-1 #
vertex $-1 -1 $-1 $229 $312 #
straight-curve $-1 -1 $-1 0 -20 9.5 1 0 0 I I #
edge $-1 -1 $-1 $150 -9.5 $226 9.5 $147 $313 forward @7 unknown #
edge $-1 -1 $-1 $151 -9.5 $225 9.5 $148 $314 forward @7 unknown #
point $-1 -1 $-1 27.5 -20 9.5 #
point $-1 -1 $-1 27.5 20 9.5 #
face $-1 -1 $-1 $-1 $315 $17 $-1 $316 reversed single #
plane-surface $-1 -1 $-1 0 15.25 9.5 0 0 1 1 0 0 forward_v I I I I #
coedge $-1 -1 $-1 $163 $317 $165 $259 forward $154 $-1 #
coedge $-1 -1 $-1 $318 $156 $317 $319 reversed $88 $-1 #
coedge $-1 -1 $-1 $156 $318 $157 $249 forward $88 $-1 #
coedge $-1 -1 $-1 $159 $165 $156 $247 reversed $166 $-1 #
edge $-1 -1 $-1 $250 0 $320 31.5 $156 $321 forward @7 unknown #
coedge $-1 -1 $-1 $158 $157 $322 $323 reversed $53 $-1 #
edge $-1 -1 $-1 $324 0 $250 19 $245 $325 forward @7 unknown #
vertex $-1 -1 $-1 $249 $326 #
straight-curve $-1 -1 $-1 23 -0.5 9.5 -1 0 0 I I #
coedge $-1 -1 $-1 $322 $327 $161 $253 forward $315 $-1 #
edge $-1 -1 $-1 $257 0 $254 31.5 $161 $328 forward @7 unknown #
vertex $-1 -1 $-1 $323 $329 #
straight-curve $-1 -1 $-1 23 -0.5 -9.5 0 0 1 I I #
coedge $-1 -1 $-1 $317 $163 $327 $330 reversed $154 $-1 #
vertex $-1 -1 $-1 $330 $331 #
straight-curve $-1 -1 $-1 23 31 -9.5 0 0 1 I I #
edge $-1 -1 $-1 $320 0 $167 46 $243 $332 forward @7 unknown #
point $-1 -1 $-1 23 31 9.5 #
point $-1 -1 $-1 23 -0.5 9.5 #
model_id-kcp-attrib $-1 -1 $-1 $-1 $171 1 1021576688 1021576688 -1978269695 8 #
face $333 -1 $-1 $201 $188 $7 $-1 $334 forward single #
loop $-1 -1 $-1 $-1 $275 $171 #
plane-surface $-1 -1 $-1 27.5 -4.75 -9.5 1 0 0 0 1 0 forward_v I I I I #
loop $-1 -1 $-1 $-1 $335 $96 #
coedge $-1 -1 $-1 $180 $176 $174 $268 forward $172 $-1 #
edge $-1 -1 $-1 $178 0 $269 46 $267 $336 forward @7 unknown #
vertex $-1 -1 $-1 $273 $337 #
straight-curve $-1 -1 $-1 -23 -0.5 -9.5 0 0 1 I I #
straight-curve $-1 -1 $-1 23 31 9.5 0 -1 0 I I #
point $-1 -1 $-1 23 -0.5 9.5 #
edge $-1 -1 $-1 $269 0 $181 31.5 $180 $338 forward @7 unknown #
point $-1 -1 $-1 -23 31 9.5 #
coedge $-1 -1 $-1 $339 $184 $187 $280 forward $264 $-1 #
coedge $-1 -1 $-1 $184 $339 $192 $284 reversed $264 $-1 #
attrib_edge_convexity-kcp-attrib $-1 -1 $340 $-1 $185 1 #
straight-curve $-1 -1 $-1 27.5 -4.75 -9.5 0 1 0 I I #
coedge $-1 -1 $-1 $187 $186 $341 $342 reversed $188 $-1 #
edge $343 -1 $-1 $190 0 $344 19 $275 $345 forward @7 unknown #
convexity-sys-attrib $-1 -1 $-1 $189 $109 #
point $-1 -1 $-1 27.5 35.25 -9.5 #
coedge $-1 -1 $-1 $193 $192 $346 $347 reversed $194 $-1 #
edge $348 -1 $-1 $196 0 $349 19 $192 $350 forward @7 unknown #
face $351 -1 $-1 $-1 $194 $7 $-1 $352 forward single #
convexity-sys-attrib $-1 -1 $-1 $195 $111 #
point $-1 -1 $-1 27.5 -4.75 -9.5 #
coedge $-1 -1 $-1 $346 $341 $198 $289 forward $266 $-1 #
edge $-1 -1 $-1 $293 0 $290 40 $288 $353 forward @7 unknown #
vertex $-1 -1 $-1 $347 $354 #
straight-curve $-1 -1 $-1 -27.5 -4.75 -9.5 0 0 1 I I #
attrib_edge_convexity-kcp-attrib $-1 -1 $355 $-1 $200 1 #
vertex $-1 -1 $-1 $289 $356 #
straight-curve $-1 -1 $-1 -27.5 35.25 -9.5 0 0 1 I I #
model_id-kcp-attrib $-1 -1 $-1 $-1 $201 1 1021576688 1021576688 -1978269695 10 #
plane-surface $-1 -1 $-1 -27.5 35.25 -9.5 -1 0 0 0 -1 0 forward_v I I I I #
convexity-sys-attrib $-1 -1 $-1 $205 $120 #
model_id-kcp-attrib $-1 -1 $-1 $-1 $214 1 1021576688 1021576688 -1978269694 4 #
plane-surface $-1 -1 $-1 27.5 0 0 -1 0 0 0 0 1 forward_v I I I I #
coedge $-1 -1 $-1 $219 $217 $221 $304 reversed $135 $-1 #
edge $-1 -1 $-1 $232 -9.5 $306 9.5 $231 $357 forward @7 unknown #
vertex $-1 -1 $-1 $304 $358 #
straight-curve $-1 -1 $-1 -27.5 -20 0 0 0 -1 I I #
edge $-1 -1 $-1 $302 -20 $306 20 $300 $359 forward @7 unknown #
straight-curve $-1 -1 $-1 0 -20 -9.5 -1 0 0 I I #
vertex $-1 -1 $-1 $224 $360 #
straight-curve $-1 -1 $-1 0 20 -9.5 1 0 0 I I #
point $-1 -1 $-1 27.5 20 -9.5 #
point $-1 -1 $-1 27.5 -20 -9.5 #
straight-curve $-1 -1 $-1 -27.5 0 9.5 0 -1 0 I I #
point $-1 -1 $-1 -27.5 20 9.5 #
point $-1 -1 $-1 -27.5 -20 9.5 #
straight-curve $-1 -1 $-1 27.5 -20 0 0 0 -1 I I #
straight-curve $-1 -1 $-1 27.5 20 0 0 0 -1 I I #
loop $-1 -1 $-1 $-1 $327 $241 #
plane-surface $-1 -1 $-1 0 15.25 -9.5 0 0 1 1 0 0 forward_v I I I I #
coedge $-1 -1 $-1 $243 $256 $244 $319 forward $154 $-1 #
coedge $-1 -1 $-1 $245 $244 $361 $362 reversed $88 $-1 #
edge $-1 -1 $-1 $363 0 $320 19 $317 $364 forward @7 unknown #
vertex $-1 -1 $-1 $319 $365 #
straight-curve $-1 -1 $-1 -23 -0.5 9.5 0 1 0 I I #
coedge $-1 -1 $-1 $361 $252 $248 $323 forward $315 $-1 #
edge $-1 -1 $-1 $254 0 $324 46 $248 $366 forward @7 unknown #
vertex $-1 -1 $-1 $362 $367 #
straight-curve $-1 -1 $-1 -23 -0.5 -9.5 0 0 1 I I #
point $-1 -1 $-1 -23 -0.5 9.5 #
coedge $-1 -1 $-1 $252 $361 $256 $330 forward $315 $-1 #
straight-curve $-1 -1 $-1 23 31 -9.5 0 -1 0 I I #
point $-1 -1 $-1 23 -0.5 -9.5 #
edge $-1 -1 $-1 $363 0 $257 46 $256 $368 forward @7 unknown #
point $-1 -1 $-1 23 31 -9.5 #
straight-curve $-1 -1 $-1 -23 31 9.5 1 0 0 I I #
model_id-kcp-attrib $-1 -1 $-1 $-1 $263 1 1021576688 1021576688 -1978269695 9 #
plane-surface $-1 -1 $-1 27.5 35.25 -9.5 0 1 0 -1 0 0 forward_v I I I I #
coedge $-1 -1 $-1 $341 $346 $339 $369 forward $266 $-1 #
straight-curve $-1 -1 $-1 23 -0.5 9.5 -1 0 0 I I #
point $-1 -1 $-1 -23 -0.5 9.5 #
straight-curve $-1 -1 $-1 -23 -0.5 9.5 0 1 0 I I #
coedge $-1 -1 $-1 $276 $275 $335 $369 reversed $264 $-1 #
convexity-sys-attrib $-1 -1 $-1 $277 $185 #
coedge $-1 -1 $-1 $288 $335 $279 $342 forward $266 $-1 #
edge $370 -1 $-1 $344 0 $293 55 $341 $371 forward @7 unknown #
attrib_edge_convexity-kcp-attrib $-1 -1 $372 $-1 $280 1 #
vertex $-1 -1 $-1 $342 $373 #
straight-curve $-1 -1 $-1 27.5 35.25 -9.5 0 0 1 I I #
coedge $-1 -1 $-1 $335 $288 $283 $347 forward $266 $-1 #
edge $-1 -1 $-1 $290 0 $349 55 $346 $374 forward @7 unknown #
attrib_edge_convexity-kcp-attrib $-1 -1 $375 $-1 $284 1 #
vertex $-1 -1 $-1 $347 $376 #
straight-curve $-1 -1 $-1 27.5 -4.75 -9.5 0 0 1 I I #
model_id-kcp-attrib $-1 -1 $-1 $-1 $285 1 1021576688 1021576688 -1978269695 11 #
plane-surface $-1 -1 $-1 -27.5 -4.75 -9.5 0 -1 0 1 0 0 forward_v I I I I #
straight-curve $-1 -1 $-1 -27.5 35.25 9.5 0 -1 0 I I #
point $-1 -1 $-1 -27.5 -4.75 9.5 #
convexity-sys-attrib $-1 -1 $-1 $292 $200 #
point $-1 -1 $-1 -27.5 35.25 9.5 #
straight-curve $-1 -1 $-1 -27.5 20 0 0 0 -1 I I #
point $-1 -1 $-1 -27.5 -20 -9.5 #
straight-curve $-1 -1 $-1 -27.5 0 -9.5 0 1 0 I I #
point $-1 -1 $-1 -27.5 20 -9.5 #
coedge $-1 -1 $-1 $327 $322 $318 $362 forward $315 $-1 #
edge $-1 -1 $-1 $324 0 $363 31.5 $318 $377 forward @7 unknown #
vertex $-1 -1 $-1 $330 $378 #
straight-curve $-1 -1 $-1 -23 31 -9.5 0 0 1 I I #
point $-1 -1 $-1 -23 31 9.5 #
straight-curve $-1 -1 $-1 23 -0.5 -9.5 -1 0 0 I I #
point $-1 -1 $-1 -23 -0.5 -9.5 #
straight-curve $-1 -1 $-1 -23 31 -9.5 1 0 0 I I #
edge $379 -1 $-1 $349 0 $344 40 $335 $380 forward @7 unknown #
attrib_edge_convexity-kcp-attrib $-1 -1 $381 $-1 $342 1 #
straight-curve $-1 -1 $-1 27.5 35.25 9.5 -1 0 0 I I #
convexity-sys-attrib $-1 -1 $-1 $343 $280 #
point $-1 -1 $-1 27.5 35.25 9.5 #
straight-curve $-1 -1 $-1 -27.5 -4.75 9.5 1 0 0 I I #
convexity-sys-attrib $-1 -1 $-1 $348 $284 #
point $-1 -1 $-1 27.5 -4.75 9.5 #
straight-curve $-1 -1 $-1 -23 -0.5 -9.5 0 1 0 I I #
point $-1 -1 $-1 -23 31 -9.5 #
attrib_edge_convexity-kcp-attrib $-1 -1 $382 $-1 $369 1 #
straight-curve $-1 -1 $-1 27.5 -4.75 9.5 0 1 0 I I #
convexity-sys-attrib $-1 -1 $-1 $370 $342 #
convexity-sys-attrib $-1 -1 $-1 $379 $369 #
End-of-ACIS-data 