600 0 1 0           
103 GICL Pro/E ACIS Translator - Source: f:/data5/repository/PTC/V18/bboxrev2/boombox/power_conn_.prt - 6 0 13 ACIS 6.0.3 NT 24 Thu Apr 04 13:42:04 2002 
1 9.9999999999999995e-007 1e-010 
body $-1 $1 $-1 $-1 #
lump $-1 $-1 $2 $0 #
shell $-1 $-1 $-1 $3 $-1 $1 #
face $-1 $4 $5 $2 $-1 $6 reversed single #
face $-1 $7 $8 $2 $-1 $9 reversed single #
loop $-1 $10 $11 $3 #
plane-surface $-1 0 0 0 0 1 0 1 0 0 forward_v I I I I #
face $-1 $12 $13 $2 $-1 $14 reversed single #
loop $-1 $-1 $15 $4 #
cone-surface $-1 15 2 0 0 -1 0 0.75 0 0 1 I I 0 1 0.75 forward I I I I #
loop $-1 $16 $17 $3 #
coedge $-1 $18 $18 $19 $20 reversed $5 $-1 #
face $-1 $21 $22 $2 $-1 $23 forward single #
loop $-1 $-1 $24 $7 #
cone-surface $-1 15 2 0 0 -1 0 0.75 0 0 1 I I 0 1 0.75 forward I I I I #
coedge $-1 $25 $19 $26 $27 reversed $8 $-1 #
loop $-1 $28 $29 $3 #
coedge $-1 $30 $30 $31 $32 reversed $10 $-1 #
coedge $-1 $11 $11 $33 $34 reversed $5 $-1 #
coedge $-1 $15 $35 $11 $20 forward $8 $-1 #
edge $-1 $36 0 $37 3.1415926535897931 $11 $38 forward 7 unknown #
face $-1 $39 $40 $2 $-1 $41 reversed single #
loop $-1 $42 $43 $12 #
plane-surface $-1 0 2 0 0 1 0 1 0 0 forward_v I I I I #
coedge $-1 $44 $33 $35 $45 reversed $13 $-1 #
coedge $-1 $35 $15 $43 $46 reversed $8 $-1 #
coedge $-1 $33 $44 $15 $27 forward $13 $-1 #
edge $-1 $47 0 $37 2 $26 $48 forward 7 unknown #
loop $-1 $49 $50 $3 #
coedge $-1 $51 $51 $52 $53 reversed $16 $-1 #
coedge $-1 $17 $17 $54 $55 reversed $10 $-1 #
coedge $-1 $56 $57 $17 $32 forward $40 $-1 #
edge $-1 $58 0 $59 3.1415926535897931 $17 $60 forward 7 unknown #
coedge $-1 $24 $26 $18 $34 forward $13 $-1 #
edge $-1 $37 0 $36 3.1415926535897931 $18 $61 forward 7 unknown #
coedge $-1 $19 $25 $24 $45 forward $8 $-1 #
vertex $-1 $34 $62 #
vertex $-1 $34 $63 #
ellipse-curve $-1 15 0 8.3266726846886741e-017 0 -1 0 -0.75 0 -8.3266726846886741e-017 1 I I #
face $-1 $64 $65 $2 $-1 $66 reversed single #
loop $-1 $-1 $56 $21 #
cone-surface $-1 5 2 0 0 -1 0 0.75 0 0 1 I I 0 1 0.75 forward I I I I #
loop $-1 $67 $68 $12 #
coedge $-1 $69 $69 $25 $46 forward $22 $-1 #
coedge $-1 $26 $24 $69 $70 reversed $13 $-1 #
edge $-1 $71 0 $36 2 $24 $72 forward 7 unknown #
edge $-1 $71 0 $47 3.1415926535897931 $43 $73 forward 7 unknown #
vertex $-1 $70 $74 #
straight-curve $-1 15.75 2 0 0 -1 0 I I #
loop $-1 $-1 $75 $3 #
coedge $-1 $76 $77 $78 $79 reversed $28 $-1 #
coedge $-1 $29 $29 $80 $81 reversed $16 $-1 #
coedge $-1 $82 $83 $29 $53 forward $84 $-1 #
edge $-1 $85 0 $86 3.1415926535897931 $29 $87 forward 7 unknown #
coedge $-1 $88 $89 $30 $55 forward $65 $-1 #
edge $-1 $59 0 $58 3.1415926535897931 $30 $90 forward 7 unknown #
coedge $-1 $91 $31 $89 $92 reversed $40 $-1 #
coedge $-1 $31 $91 $88 $93 forward $40 $-1 #
vertex $-1 $55 $94 #
vertex $-1 $55 $95 #
ellipse-curve $-1 5 0 8.3266726846886741e-017 0 -1 0 -0.75 0 -8.3266726846886741e-017 1 I I #
ellipse-curve $-1 15 0 2.7755575615628914e-017 0 -1 0 0.75 0 -2.7755575615628914e-017 1 I I #
point $-1 14.25 0 0 #
point $-1 15.75 0 0 #
face $-1 $96 $84 $2 $-1 $97 reversed single #
loop $-1 $-1 $88 $39 #
cone-surface $-1 5 2 0 0 -1 0 0.75 0 0 1 I I 0 1 0.75 forward I I I I #
loop $-1 $98 $99 $12 #
coedge $-1 $100 $100 $91 $101 forward $42 $-1 #
coedge $-1 $43 $43 $44 $70 forward $22 $-1 #
edge $-1 $47 0 $71 3.1415926535897931 $69 $102 forward 7 unknown #
vertex $-1 $70 $103 #
straight-curve $-1 14.25 2 9.1845476536678294e-017 0 -1 0 I I #
ellipse-curve $-1 15 2 0 0 -1 0 -0.75 0 0 1 I I #
point $-1 15.75 2 0 #
coedge $-1 $104 $104 $105 $106 reversed $49 $-1 #
coedge $-1 $107 $50 $108 $109 reversed $28 $-1 #
coedge $-1 $50 $107 $110 $111 reversed $28 $-1 #
coedge $-1 $112 $113 $50 $79 forward $114 $-1 #
edge $-1 $115 0 $116 50 $50 $117 forward 7 unknown #
coedge $-1 $118 $119 $51 $81 forward $120 $-1 #
edge $-1 $86 0 $85 3.1415926535897931 $51 $121 forward 7 unknown #
coedge $-1 $122 $52 $119 $123 reversed $84 $-1 #
coedge $-1 $52 $122 $118 $124 forward $84 $-1 #
loop $-1 $-1 $82 $64 #
vertex $-1 $81 $125 #
vertex $-1 $81 $126 #
ellipse-curve $-1 -5 0 8.3266726846886741e-017 0 -1 0 -0.75 0 -8.3266726846886741e-017 1 I I #
coedge $-1 $127 $54 $57 $93 reversed $65 $-1 #
coedge $-1 $54 $127 $56 $92 forward $65 $-1 #
ellipse-curve $-1 5 0 2.7755575615628914e-017 0 -1 0 0.75 0 -2.7755575615628914e-017 1 I I #
coedge $-1 $57 $56 $68 $101 reversed $40 $-1 #
edge $-1 $128 0 $59 2 $89 $129 forward 7 unknown #
edge $-1 $130 0 $58 2 $88 $131 forward 7 unknown #
point $-1 4.25 0 0 #
point $-1 5.75 0 0 #
face $-1 $132 $120 $2 $-1 $133 reversed single #
cone-surface $-1 -5 2 0 0 -1 0 0.75 0 0 1 I I 0 1 0.75 forward I I I I #
loop $-1 $134 $135 $12 #
coedge $-1 $136 $136 $122 $137 forward $67 $-1 #
coedge $-1 $68 $68 $127 $138 forward $42 $-1 #
edge $-1 $130 0 $128 3.1415926535897931 $68 $139 forward 7 unknown #
ellipse-curve $-1 15 2 0 0 -1 0 0.75 0 0 1 I I #
point $-1 14.25 2 0 #
coedge $-1 $75 $75 $140 $141 reversed $49 $-1 #
coedge $-1 $142 $143 $75 $106 forward $144 $-1 #
edge $-1 $145 0 $146 3.1415926535897931 $75 $147 forward 7 unknown #
coedge $-1 $77 $76 $148 $149 reversed $28 $-1 #
coedge $-1 $150 $151 $76 $109 forward $152 $-1 #
edge $-1 $153 0 $115 10 $76 $154 forward 7 unknown #
coedge $-1 $155 $156 $77 $111 forward $157 $-1 #
edge $-1 $116 0 $158 10 $77 $159 forward 7 unknown #
coedge $-1 $160 $78 $156 $161 forward $114 $-1 #
coedge $-1 $78 $160 $150 $162 reversed $114 $-1 #
loop $-1 $-1 $112 $163 #
vertex $-1 $109 $164 #
vertex $-1 $111 $165 #
straight-curve $-1 25 0 -5 -1 0 0 I I #
coedge $-1 $166 $80 $83 $124 reversed $120 $-1 #
coedge $-1 $80 $166 $82 $123 forward $120 $-1 #
loop $-1 $-1 $118 $96 #
ellipse-curve $-1 -5 0 2.7755575615628914e-017 0 -1 0 0.75 0 -2.7755575615628914e-017 1 I I #
coedge $-1 $83 $82 $99 $137 reversed $84 $-1 #
edge $-1 $167 0 $86 2 $119 $168 forward 7 unknown #
edge $-1 $169 0 $85 2 $118 $170 forward 7 unknown #
point $-1 -5.75 0 0 #
point $-1 -4.25 0 0 #
coedge $-1 $89 $88 $100 $138 reversed $65 $-1 #
vertex $-1 $138 $171 #
straight-curve $-1 5.75 2 0 0 -1 0 I I #
vertex $-1 $138 $172 #
straight-curve $-1 4.25 2 9.1845476536678294e-017 0 -1 0 I I #
face $-1 $173 $174 $2 $-1 $175 forward single #
cone-surface $-1 -5 2 0 0 -1 0 0.75 0 0 1 I I 0 1 0.75 forward I I I I #
loop $-1 $-1 $176 $12 #
coedge $-1 $177 $178 $179 $180 forward $98 $-1 #
coedge $-1 $99 $99 $166 $181 forward $67 $-1 #
edge $-1 $169 0 $167 3.1415926535897931 $99 $182 forward 7 unknown #
edge $-1 $128 0 $130 3.1415926535897931 $100 $183 forward 7 unknown #
ellipse-curve $-1 5 2 0 0 -1 0 -0.75 0 0 1 I I #
coedge $-1 $184 $185 $104 $141 forward $186 $-1 #
edge $-1 $146 0 $145 3.1415926535897931 $104 $187 forward 7 unknown #
coedge $-1 $188 $105 $185 $189 reversed $144 $-1 #
coedge $-1 $105 $188 $184 $190 forward $144 $-1 #
loop $-1 $-1 $142 $191 #
vertex $-1 $141 $192 #
vertex $-1 $141 $193 #
ellipse-curve $-1 -15 0 8.3266726846886741e-017 0 -1 0 -0.75 0 -8.3266726846886741e-017 1 I I #
coedge $-1 $194 $195 $107 $149 forward $174 $-1 #
edge $-1 $158 0 $153 50 $107 $196 forward 7 unknown #
coedge $-1 $197 $108 $113 $162 forward $152 $-1 #
coedge $-1 $108 $197 $194 $198 reversed $152 $-1 #
loop $-1 $-1 $150 $173 #
vertex $-1 $149 $199 #
straight-curve $-1 25 0 5 0 0 -1 I I #
coedge $-1 $200 $110 $195 $201 forward $157 $-1 #
coedge $-1 $110 $200 $112 $161 reversed $157 $-1 #
loop $-1 $-1 $155 $202 #
vertex $-1 $111 $203 #
straight-curve $-1 -25 0 -5 0 0 1 I I #
coedge $-1 $113 $112 $204 $205 reversed $114 $-1 #
edge $-1 $116 0 $206 2 $156 $207 forward 7 unknown #
edge $-1 $115 0 $208 2 $150 $209 forward 7 unknown #
face $-1 $202 $114 $2 $-1 $210 forward single #
point $-1 25 0 -5 #
point $-1 -25 0 -5 #
coedge $-1 $119 $118 $136 $181 reversed $120 $-1 #
vertex $-1 $181 $211 #
straight-curve $-1 -4.25 2 0 0 -1 0 I I #
vertex $-1 $181 $212 #
straight-curve $-1 -5.75 2 9.1845476536678294e-017 0 -1 0 I I #
point $-1 5.75 2 0 #
point $-1 4.25 2 0 #
face $-1 $163 $152 $2 $-1 $213 forward single #
loop $-1 $-1 $194 $132 #
plane-surface $-1 -25 0 5 0 0 1 1 0 0 forward_v I I I I #
coedge $-1 $214 $214 $188 $215 forward $134 $-1 #
coedge $-1 $204 $135 $197 $216 forward $98 $-1 #
coedge $-1 $135 $204 $200 $217 forward $98 $-1 #
coedge $-1 $195 $194 $135 $180 reversed $174 $-1 #
edge $-1 $218 0 $219 50 $135 $220 forward 7 unknown #
edge $-1 $167 0 $169 3.1415926535897931 $136 $221 forward 7 unknown #
ellipse-curve $-1 -5 2 0 0 -1 0 -0.75 0 0 1 I I #
ellipse-curve $-1 5 2 0 0 -1 0 0.75 0 0 1 I I #
coedge $-1 $222 $140 $143 $190 reversed $186 $-1 #
coedge $-1 $140 $222 $142 $189 forward $186 $-1 #
loop $-1 $-1 $184 $223 #
ellipse-curve $-1 -15 0 2.7755575615628914e-017 0 -1 0 0.75 0 -2.7755575615628914e-017 1 I I #
coedge $-1 $143 $142 $176 $215 reversed $144 $-1 #
edge $-1 $224 0 $146 2 $185 $225 forward 7 unknown #
edge $-1 $226 0 $145 2 $184 $227 forward 7 unknown #
face $-1 $223 $144 $2 $-1 $228 reversed single #
point $-1 -15.75 0 0 #
point $-1 -14.25 0 0 #
coedge $-1 $179 $148 $151 $198 forward $174 $-1 #
coedge $-1 $148 $179 $155 $201 reversed $174 $-1 #
straight-curve $-1 -25 0 5 1 0 0 I I #
coedge $-1 $151 $150 $177 $216 reversed $152 $-1 #
edge $-1 $153 0 $219 2 $194 $229 forward 7 unknown #
point $-1 25 0 5 #
coedge $-1 $156 $155 $178 $217 reversed $157 $-1 #
edge $-1 $158 0 $218 2 $155 $230 forward 7 unknown #
face $-1 $191 $157 $2 $-1 $231 forward single #
point $-1 -25 0 5 #
coedge $-1 $178 $177 $160 $205 forward $98 $-1 #
edge $-1 $208 0 $206 50 $204 $232 forward 7 unknown #
vertex $-1 $217 $233 #
straight-curve $-1 -25 0 -5 0 1 0 I I #
vertex $-1 $205 $234 #
straight-curve $-1 25 0 -5 0 1 0 I I #
plane-surface $-1 25 0 -5 0 0 -1 -1 0 0 forward_v I I I I #
point $-1 -4.25 2 0 #
point $-1 -5.75 2 0 #
plane-surface $-1 25 0 5 1 0 0 0 0 -1 forward_v I I I I #
coedge $-1 $176 $176 $222 $235 forward $134 $-1 #
edge $-1 $226 0 $224 3.1415926535897931 $176 $236 forward 7 unknown #
edge $-1 $219 0 $208 10 $177 $237 forward 7 unknown #
edge $-1 $206 0 $218 10 $178 $238 forward 7 unknown #
vertex $-1 $217 $239 #
vertex $-1 $216 $240 #
straight-curve $-1 -25 2 5 1 0 0 I I #
ellipse-curve $-1 -5 2 0 0 -1 0 0.75 0 0 1 I I #
coedge $-1 $185 $184 $214 $235 reversed $186 $-1 #
face $-1 $-1 $186 $2 $-1 $241 reversed single #
vertex $-1 $235 $242 #
straight-curve $-1 -14.25 2 0 0 -1 0 I I #
vertex $-1 $235 $243 #
straight-curve $-1 -15.75 2 9.1845476536678294e-017 0 -1 0 I I #
cone-surface $-1 -15 2 0 0 -1 0 0.75 0 0 1 I I 0 1 0.75 forward I I I I #
straight-curve $-1 25 0 5 0 1 0 I I #
straight-curve $-1 -25 0 5 0 1 0 I I #
plane-surface $-1 -25 0 -5 -1 0 0 0 0 1 forward_v I I I I #
straight-curve $-1 25 2 -5 -1 0 0 I I #
point $-1 -25 2 -5 #
point $-1 25 2 -5 #
edge $-1 $224 0 $226 3.1415926535897931 $214 $244 forward 7 unknown #
ellipse-curve $-1 -15 2 0 0 -1 0 -0.75 0 0 1 I I #
straight-curve $-1 25 2 5 0 0 -1 I I #
straight-curve $-1 -25 2 -5 0 0 1 I I #
point $-1 -25 2 5 #
point $-1 25 2 5 #
cone-surface $-1 -15 2 0 0 -1 0 0.75 0 0 1 I I 0 1 0.75 forward I I I I #
point $-1 -14.25 2 0 #
point $-1 -15.75 2 0 #
ellipse-curve $-1 -15 2 0 0 -1 0 0.75 0 0 1 I I #
End-of-ACIS-data 