700 0 2 0           
24 FBMach with ACIS - 7.0.3 13 ACIS 7.0.3 NT 24 Thu May 16 14:48:47 2002 
1 9.9999999999999995e-007 1e-010 
body $2 -1 $-1 $3 $-1 $4 #
bdycol-kcp $-1 -1 1 5 $5 $6 $7 $8 $9 #
model_id-kcp-attrib $-1 -1 $-1 $-1 $0 1 1021574926 1021574926 1813446657 1 #
lump $-1 -1 $-1 $-1 $10 $0 #
transform $-1 -1 1 0 0 0 1 0 0 0 1 0 0 0 1 rotate no_reflect no_shear #
body $11 -1 $-1 $12 $-1 $13 #
body $14 -1 $-1 $15 $-1 $16 #
body $17 -1 $-1 $18 $-1 $19 #
body $20 -1 $-1 $21 $-1 $22 #
body $23 -1 $-1 $24 $-1 $25 #
shell $-1 -1 $-1 $-1 $-1 $26 $-1 $3 #
rgb_color-st-attrib $-1 -1 $27 $-1 $5 0.5 1 1 #
lump $-1 -1 $-1 $-1 $28 $5 #
transform $-1 -1 1 0 0 0 1 0 0 0 1 0 0 0 1 no_rotate no_reflect no_shear #
model_id-kcp-attrib $-1 -1 $-1 $-1 $6 1 1021574926 1021574926 1813446658 1 #
lump $-1 -1 $-1 $-1 $29 $6 #
transform $-1 -1 1 0 0 0 1 0 0 0 1 0 1 0 1 no_rotate no_reflect no_shear #
rgb_color-st-attrib $-1 -1 $30 $-1 $7 0.5 1 1 #
lump $-1 -1 $-1 $-1 $31 $7 #
transform $-1 -1 1 0 0 0 1 0 0 0 1 0 0 0 1 no_rotate no_reflect no_shear #
rgb_color-st-attrib $-1 -1 $32 $-1 $8 0.5 1 1 #
lump $-1 -1 $-1 $-1 $33 $8 #
transform $-1 -1 1 0 0 0 1 0 0 0 1 0 0 0 1 no_rotate no_reflect no_shear #
rgb_color-st-attrib $-1 -1 $34 $-1 $9 0.5 1 1 #
lump $-1 -1 $-1 $-1 $35 $9 #
transform $-1 -1 1 0 0 0 1 0 0 0 1 0 0 0 1 no_rotate no_reflect no_shear #
face $36 -1 $-1 $37 $38 $10 $-1 $39 reversed single #
model_id-kcp-attrib $-1 -1 $-1 $11 $5 1 1021574926 1021574926 1812398084 1 #
shell $-1 -1 $-1 $-1 $-1 $40 $-1 $12 #
shell $-1 -1 $-1 $-1 $-1 $41 $-1 $15 #
model_id-kcp-attrib $-1 -1 $-1 $17 $7 1 1021574926 1021574926 1814364165 1 #
shell $-1 -1 $-1 $-1 $-1 $42 $-1 $18 #
model_id-kcp-attrib $-1 -1 $-1 $20 $8 1 1021574926 1021574926 1816985606 1 #
shell $-1 -1 $-1 $-1 $-1 $43 $-1 $21 #
model_id-kcp-attrib $-1 -1 $-1 $23 $9 1 1021574926 1021574926 1826553859 1 #
shell $-1 -1 $-1 $-1 $-1 $44 $-1 $24 #
model_id-kcp-attrib $-1 -1 $-1 $-1 $26 1 1021574926 1021574926 1813446657 2 #
face $45 -1 $-1 $46 $47 $10 $-1 $48 reversed single #
loop $-1 -1 $-1 $49 $50 $26 #
plane-surface $-1 -1 $-1 0 0 0 0 1 0 1 0 0 forward_v I I I I #
face $-1 -1 $-1 $51 $52 $28 $-1 $53 forward single #
face $54 -1 $-1 $55 $56 $29 $-1 $57 forward single #
face $-1 -1 $-1 $58 $59 $31 $-1 $60 forward single #
face $-1 -1 $-1 $61 $62 $33 $-1 $63 forward single #
face $-1 -1 $-1 $64 $65 $35 $-1 $66 forward single #
model_id-kcp-attrib $-1 -1 $-1 $-1 $37 1 1021574926 1021574926 1813446657 3 #
face $67 -1 $-1 $68 $69 $10 $-1 $70 reversed single #
loop $-1 -1 $-1 $-1 $71 $37 #
cone-surface $-1 -1 $-1 15 2 0 0 -1 0 0.75 0 0 1 I I 0 1 0.75 forward I I I I #
loop $-1 -1 $-1 $72 $73 $26 #
coedge $-1 -1 $-1 $74 $74 $75 $76 reversed $38 $-1 #
face $-1 -1 $-1 $77 $78 $28 $-1 $79 forward single #
loop $-1 -1 $-1 $80 $81 $40 #
cone-surface $-1 -1 $-1 5 0 8.3266726846886741e-017 0 1 0 -0.75 0 -8.3266726846886741e-017 1 I I 0 1 0.75 forward I I I I #
model_id-kcp-attrib $-1 -1 $-1 $-1 $41 1 1021574926 1021574926 1813446658 4 #
face $82 -1 $-1 $83 $84 $29 $-1 $85 reversed single #
loop $-1 -1 $-1 $-1 $86 $41 #
plane-surface $-1 -1 $-1 0 0 5 0 0 1 1 0 0 forward_v I I I I #
face $-1 -1 $-1 $87 $88 $31 $-1 $89 forward single #
loop $-1 -1 $-1 $90 $91 $42 #
cone-surface $-1 -1 $-1 -5 0 8.3266726846886741e-017 0 1 0 -0.75 0 -8.3266726846886741e-017 1 I I 0 1 0.75 forward I I I I #
face $-1 -1 $-1 $92 $93 $33 $-1 $94 forward single #
loop $-1 -1 $-1 $95 $96 $43 #
cone-surface $-1 -1 $-1 -15 0 8.3266726846886741e-017 0 1 0 -0.75 0 -8.3266726846886741e-017 1 I I 0 1 0.75 forward I I I I #
face $-1 -1 $-1 $97 $98 $35 $-1 $99 forward single #
loop $-1 -1 $-1 $100 $101 $44 #
cone-surface $-1 -1 $-1 15 0 8.3266726846886741e-017 0 1 0 -0.75 0 -8.3266726846886741e-017 1 I I 0 1 0.75 forward I I I I #
model_id-kcp-attrib $-1 -1 $-1 $-1 $46 1 1021574926 1021574926 1813446657 4 #
face $102 -1 $-1 $103 $104 $10 $-1 $105 forward single #
loop $-1 -1 $-1 $-1 $106 $46 #
cone-surface $-1 -1 $-1 15 2 0 0 -1 0 0.75 0 0 1 I I 0 1 0.75 forward I I I I #
coedge $-1 -1 $-1 $107 $75 $108 $109 reversed $47 $-1 #
loop $-1 -1 $-1 $110 $111 $26 #
coedge $-1 -1 $-1 $112 $112 $113 $114 reversed $49 $-1 #
coedge $-1 -1 $-1 $50 $50 $115 $116 reversed $38 $-1 #
coedge $-1 -1 $-1 $71 $117 $50 $76 forward $47 $-1 #
edge $118 -1 $-1 $119 0 $120 3.1415926535897931 $50 $121 forward @7 unknown #
face $-1 -1 $-1 $-1 $122 $28 $-1 $123 reversed single #
loop $-1 -1 $-1 $-1 $124 $51 #
plane-surface $-1 -1 $-1 5 2 0 0 1 0 0 0 1 forward_v I I I I #
loop $-1 -1 $-1 $-1 $125 $40 #
coedge $-1 -1 $-1 $81 $81 $124 $126 forward $52 $-1 #
model_id-kcp-attrib $-1 -1 $-1 $-1 $55 1 1021574926 1021574926 1813446658 6 #
face $127 -1 $-1 $128 $129 $29 $-1 $130 reversed single #
loop $-1 -1 $-1 $-1 $131 $55 #
plane-surface $-1 -1 $-1 0 0 -5 0 0 1 1 0 0 forward_v I I I I #
coedge $-1 -1 $-1 $132 $133 $134 $135 forward $56 $-1 #
face $-1 -1 $-1 $-1 $136 $31 $-1 $137 reversed single #
loop $-1 -1 $-1 $-1 $138 $58 #
plane-surface $-1 -1 $-1 -5 2 0 0 1 0 0 0 1 forward_v I I I I #
loop $-1 -1 $-1 $-1 $139 $42 #
coedge $-1 -1 $-1 $91 $91 $138 $140 forward $59 $-1 #
face $-1 -1 $-1 $-1 $141 $33 $-1 $142 reversed single #
loop $-1 -1 $-1 $-1 $143 $61 #
plane-surface $-1 -1 $-1 -15 2 0 0 1 0 0 0 1 forward_v I I I I #
loop $-1 -1 $-1 $-1 $144 $43 #
coedge $-1 -1 $-1 $96 $96 $143 $145 forward $62 $-1 #
face $-1 -1 $-1 $-1 $146 $35 $-1 $147 reversed single #
loop $-1 -1 $-1 $-1 $148 $64 #
plane-surface $-1 -1 $-1 15 2 0 0 1 0 0 0 1 forward_v I I I I #
loop $-1 -1 $-1 $-1 $149 $44 #
coedge $-1 -1 $-1 $101 $101 $148 $150 forward $65 $-1 #
model_id-kcp-attrib $-1 -1 $-1 $-1 $68 1 1021574926 1021574926 1813446657 5 #
face $151 -1 $-1 $152 $153 $10 $-1 $154 reversed single #
loop $-1 -1 $-1 $155 $156 $68 #
plane-surface $-1 -1 $-1 0 2 0 0 1 0 1 0 0 forward_v I I I I #
coedge $-1 -1 $-1 $157 $115 $117 $158 reversed $69 $-1 #
coedge $-1 -1 $-1 $117 $71 $156 $159 reversed $47 $-1 #
coedge $-1 -1 $-1 $115 $157 $71 $109 forward $69 $-1 #
edge $-1 -1 $-1 $160 0 $120 2 $108 $161 forward @7 unknown #
loop $-1 -1 $-1 $162 $163 $26 #
coedge $-1 -1 $-1 $164 $164 $165 $166 reversed $72 $-1 #
coedge $-1 -1 $-1 $73 $73 $167 $168 reversed $49 $-1 #
coedge $-1 -1 $-1 $169 $170 $73 $114 forward $153 $-1 #
edge $171 -1 $-1 $172 0 $173 3.1415926535897931 $73 $174 forward @7 unknown #
coedge $-1 -1 $-1 $106 $108 $74 $116 forward $69 $-1 #
edge $175 -1 $-1 $120 0 $119 3.1415926535897931 $74 $176 forward @7 unknown #
coedge $-1 -1 $-1 $75 $107 $106 $158 forward $47 $-1 #
attrib_edge_convexity-kcp-attrib $-1 -1 $177 $-1 $76 1 #
vertex $-1 -1 $-1 $116 $178 #
vertex $-1 -1 $-1 $116 $179 #
ellipse-curve $-1 -1 $-1 15 0 8.3266726846886741e-017 0 -1 0 -0.75 0 -8.3266726846886741e-017 1 I I #
loop $-1 -1 $-1 $-1 $180 $77 #
plane-surface $-1 -1 $-1 5 0 0 0 1 0 0 0 1 forward_v I I I I #
coedge $-1 -1 $-1 $124 $124 $81 $126 reversed $78 $-1 #
coedge $-1 -1 $-1 $125 $125 $180 $181 reversed $80 $-1 #
edge $-1 -1 $-1 $182 -3.1415926535897931 $182 3.1415926535897931 $81 $183 forward @7 unknown #
model_id-kcp-attrib $-1 -1 $-1 $-1 $83 1 1021574926 1021574926 1813446658 2 #
face $184 -1 $-1 $185 $186 $29 $-1 $187 reversed single #
loop $-1 -1 $-1 $-1 $188 $83 #
plane-surface $-1 -1 $-1 0 -1 0 0 1 0 0 0 1 forward_v I I I I #
coedge $-1 -1 $-1 $189 $190 $191 $192 forward $84 $-1 #
coedge $-1 -1 $-1 $193 $86 $194 $195 forward $56 $-1 #
coedge $-1 -1 $-1 $86 $193 $196 $197 forward $56 $-1 #
coedge $-1 -1 $-1 $198 $199 $86 $135 reversed $200 $-1 #
edge $-1 -1 $-1 $201 -1 $202 1 $134 $203 forward @7 unknown #
loop $-1 -1 $-1 $-1 $204 $87 #
plane-surface $-1 -1 $-1 -5 0 0 0 1 0 0 0 1 forward_v I I I I #
coedge $-1 -1 $-1 $138 $138 $91 $140 reversed $88 $-1 #
coedge $-1 -1 $-1 $139 $139 $204 $205 reversed $90 $-1 #
edge $-1 -1 $-1 $206 -3.1415926535897931 $206 3.1415926535897931 $91 $207 forward @7 unknown #
loop $-1 -1 $-1 $-1 $208 $92 #
plane-surface $-1 -1 $-1 -15 0 0 0 1 0 0 0 1 forward_v I I I I #
coedge $-1 -1 $-1 $143 $143 $96 $145 reversed $93 $-1 #
coedge $-1 -1 $-1 $144 $144 $208 $209 reversed $95 $-1 #
edge $-1 -1 $-1 $210 -3.1415926535897931 $210 3.1415926535897931 $96 $211 forward @7 unknown #
loop $-1 -1 $-1 $-1 $212 $97 #
plane-surface $-1 -1 $-1 15 0 0 0 1 0 0 0 1 forward_v I I I I #
coedge $-1 -1 $-1 $148 $148 $101 $150 reversed $98 $-1 #
coedge $-1 -1 $-1 $149 $149 $212 $213 reversed $100 $-1 #
edge $-1 -1 $-1 $214 -3.1415926535897931 $214 3.1415926535897931 $101 $215 forward @7 unknown #
model_id-kcp-attrib $-1 -1 $-1 $-1 $103 1 1021574926 1021574926 1813446657 6 #
face $216 -1 $-1 $217 $218 $10 $-1 $219 reversed single #
loop $-1 -1 $-1 $-1 $169 $103 #
cone-surface $-1 -1 $-1 5 2 0 0 -1 0 0.75 0 0 1 I I 0 1 0.75 forward I I I I #
loop $-1 -1 $-1 $220 $221 $68 #
coedge $-1 -1 $-1 $222 $222 $107 $159 forward $104 $-1 #
coedge $-1 -1 $-1 $108 $106 $222 $223 reversed $69 $-1 #
edge $-1 -1 $-1 $224 0 $119 2 $106 $225 forward @7 unknown #
edge $-1 -1 $-1 $224 0 $160 3.1415926535897931 $156 $226 forward @7 unknown #
vertex $-1 -1 $-1 $223 $227 #
straight-curve $-1 -1 $-1 15.75 2 0 0 -1 0 I I #
loop $-1 -1 $-1 $-1 $228 $26 #
coedge $-1 -1 $-1 $229 $230 $231 $232 reversed $110 $-1 #
coedge $-1 -1 $-1 $111 $111 $233 $234 reversed $72 $-1 #
coedge $-1 -1 $-1 $235 $236 $111 $166 forward $237 $-1 #
edge $238 -1 $-1 $239 0 $240 3.1415926535897931 $111 $241 forward @7 unknown #
coedge $-1 -1 $-1 $242 $243 $112 $168 forward $218 $-1 #
edge $244 -1 $-1 $173 0 $172 3.1415926535897931 $112 $245 forward @7 unknown #
coedge $-1 -1 $-1 $246 $113 $243 $247 reversed $153 $-1 #
coedge $-1 -1 $-1 $113 $246 $242 $248 forward $153 $-1 #
attrib_edge_convexity-kcp-attrib $-1 -1 $249 $-1 $114 1 #
vertex $-1 -1 $-1 $168 $250 #
vertex $-1 -1 $-1 $168 $251 #
ellipse-curve $-1 -1 $-1 5 0 8.3266726846886741e-017 0 -1 0 -0.75 0 -8.3266726846886741e-017 1 I I #
attrib_edge_convexity-kcp-attrib $-1 -1 $252 $-1 $116 1 #
ellipse-curve $-1 -1 $-1 15 0 2.7755575615628914e-017 0 -1 0 0.75 0 -2.7755575615628914e-017 1 I I #
convexity-sys-attrib $-1 -1 $-1 $118 $76 #
point $-1 -1 $-1 14.25 0 0 #
point $-1 -1 $-1 15.75 0 0 #
coedge $-1 -1 $-1 $180 $180 $125 $181 forward $122 $-1 #
edge $-1 -1 $-1 $253 -3.1415926535897931 $253 3.1415926535897931 $125 $254 forward @7 unknown #
vertex $-1 -1 $-1 $126 $255 #
ellipse-curve $-1 -1 $-1 5 2 2.7755575615628914e-017 0 -1 0 0.75 0 -2.7755575615628914e-017 1 I I #
model_id-kcp-attrib $-1 -1 $-1 $-1 $128 1 1021574926 1021574926 1813446658 7 #
face $256 -1 $-1 $257 $258 $29 $-1 $259 reversed single #
loop $-1 -1 $-1 $-1 $260 $128 #
plane-surface $-1 -1 $-1 -25 0 0 1 0 0 0 0 -1 forward_v I I I I #
coedge $-1 -1 $-1 $261 $196 $262 $263 forward $129 $-1 #
coedge $-1 -1 $-1 $264 $131 $261 $265 forward $84 $-1 #
coedge $-1 -1 $-1 $131 $264 $266 $267 forward $84 $-1 #
coedge $-1 -1 $-1 $199 $198 $131 $192 reversed $200 $-1 #
edge $-1 -1 $-1 $268 -1 $269 1 $191 $270 forward @7 unknown #
coedge $-1 -1 $-1 $133 $132 $271 $272 forward $56 $-1 #
coedge $-1 -1 $-1 $273 $274 $132 $195 reversed $258 $-1 #
edge $-1 -1 $-1 $202 -25 $275 25 $194 $276 forward @7 unknown #
coedge $-1 -1 $-1 $188 $277 $133 $197 reversed $129 $-1 #
edge $-1 -1 $-1 $278 -25 $201 25 $196 $279 forward @7 unknown #
coedge $-1 -1 $-1 $191 $134 $277 $280 forward $200 $-1 #
coedge $-1 -1 $-1 $134 $191 $273 $281 reversed $200 $-1 #
loop $-1 -1 $-1 $-1 $198 $257 #
vertex $-1 -1 $-1 $135 $282 #
vertex $-1 -1 $-1 $135 $283 #
straight-curve $-1 -1 $-1 25 0 5 0 1 0 I I #
coedge $-1 -1 $-1 $204 $204 $139 $205 forward $136 $-1 #
edge $-1 -1 $-1 $284 -3.1415926535897931 $284 3.1415926535897931 $139 $285 forward @7 unknown #
vertex $-1 -1 $-1 $140 $286 #
ellipse-curve $-1 -1 $-1 -5 2 2.7755575615628914e-017 0 -1 0 0.75 0 -2.7755575615628914e-017 1 I I #
coedge $-1 -1 $-1 $208 $208 $144 $209 forward $141 $-1 #
edge $-1 -1 $-1 $287 -3.1415926535897931 $287 3.1415926535897931 $144 $288 forward @7 unknown #
vertex $-1 -1 $-1 $145 $289 #
ellipse-curve $-1 -1 $-1 -15 2 2.7755575615628914e-017 0 -1 0 0.75 0 -2.7755575615628914e-017 1 I I #
coedge $-1 -1 $-1 $212 $212 $149 $213 forward $146 $-1 #
edge $-1 -1 $-1 $290 -3.1415926535897931 $290 3.1415926535897931 $149 $291 forward @7 unknown #
vertex $-1 -1 $-1 $150 $292 #
ellipse-curve $-1 -1 $-1 15 2 2.7755575615628914e-017 0 -1 0 0.75 0 -2.7755575615628914e-017 1 I I #
model_id-kcp-attrib $-1 -1 $-1 $-1 $152 1 1021574926 1021574926 1813446657 7 #
face $293 -1 $-1 $294 $237 $10 $-1 $295 reversed single #
loop $-1 -1 $-1 $-1 $242 $152 #
cone-surface $-1 -1 $-1 5 2 0 0 -1 0 0.75 0 0 1 I I 0 1 0.75 forward I I I I #
loop $-1 -1 $-1 $296 $297 $68 #
coedge $-1 -1 $-1 $298 $298 $246 $299 forward $155 $-1 #
coedge $-1 -1 $-1 $156 $156 $157 $223 forward $104 $-1 #
edge $-1 -1 $-1 $160 0 $224 3.1415926535897931 $222 $300 forward @7 unknown #
vertex $-1 -1 $-1 $223 $301 #
straight-curve $-1 -1 $-1 14.25 2 9.1845476536678294e-017 0 -1 0 I I #
ellipse-curve $-1 -1 $-1 15 2 0 0 -1 0 -0.75 0 0 1 I I #
point $-1 -1 $-1 15.75 2 0 #
coedge $-1 -1 $-1 $302 $302 $303 $304 reversed $162 $-1 #
coedge $-1 -1 $-1 $305 $163 $306 $307 reversed $110 $-1 #
coedge $-1 -1 $-1 $163 $305 $308 $309 reversed $110 $-1 #
coedge $-1 -1 $-1 $310 $311 $163 $232 forward $312 $-1 #
edge $313 -1 $-1 $314 0 $315 50 $163 $316 forward @7 unknown #
coedge $-1 -1 $-1 $317 $318 $164 $234 forward $319 $-1 #
edge $320 -1 $-1 $240 0 $239 3.1415926535897931 $164 $321 forward @7 unknown #
coedge $-1 -1 $-1 $322 $165 $318 $323 reversed $237 $-1 #
coedge $-1 -1 $-1 $165 $322 $317 $324 forward $237 $-1 #
loop $-1 -1 $-1 $-1 $235 $217 #
attrib_edge_convexity-kcp-attrib $-1 -1 $325 $-1 $166 1 #
vertex $-1 -1 $-1 $234 $326 #
vertex $-1 -1 $-1 $234 $327 #
ellipse-curve $-1 -1 $-1 -5 0 8.3266726846886741e-017 0 -1 0 -0.75 0 -8.3266726846886741e-017 1 I I #
coedge $-1 -1 $-1 $328 $167 $170 $248 reversed $218 $-1 #
coedge $-1 -1 $-1 $167 $328 $169 $247 forward $218 $-1 #
attrib_edge_convexity-kcp-attrib $-1 -1 $329 $-1 $168 1 #
ellipse-curve $-1 -1 $-1 5 0 2.7755575615628914e-017 0 -1 0 0.75 0 -2.7755575615628914e-017 1 I I #
coedge $-1 -1 $-1 $170 $169 $221 $299 reversed $153 $-1 #
edge $-1 -1 $-1 $330 0 $173 2 $243 $331 forward @7 unknown #
edge $-1 -1 $-1 $332 0 $172 2 $242 $333 forward @7 unknown #
convexity-sys-attrib $-1 -1 $-1 $171 $114 #
point $-1 -1 $-1 4.25 0 0 #
point $-1 -1 $-1 5.75 0 0 #
convexity-sys-attrib $-1 -1 $-1 $175 $116 #
vertex $-1 -1 $-1 $181 $334 #
ellipse-curve $-1 -1 $-1 5 0 8.3266726846886741e-017 0 -1 0 -0.75 0 -8.3266726846886741e-017 1 I I #
point $-1 -1 $-1 4.25 2 0 #
model_id-kcp-attrib $-1 -1 $-1 $-1 $185 1 1021574926 1021574926 1813446658 3 #
face $335 -1 $-1 $-1 $200 $29 $-1 $336 reversed single #
loop $-1 -1 $-1 $-1 $273 $185 #
plane-surface $-1 -1 $-1 0 1 0 0 -1 0 0 0 -1 forward_v I I I I #
coedge $-1 -1 $-1 $337 $271 $274 $338 forward $186 $-1 #
coedge $-1 -1 $-1 $277 $188 $189 $265 reversed $129 $-1 #
coedge $-1 -1 $-1 $271 $337 $188 $263 reversed $186 $-1 #
edge $-1 -1 $-1 $278 -5 $339 5 $262 $340 forward @7 unknown #
coedge $-1 -1 $-1 $190 $189 $337 $341 forward $84 $-1 #
edge $-1 -1 $-1 $269 -25 $339 25 $261 $342 forward @7 unknown #
coedge $-1 -1 $-1 $274 $273 $190 $267 reversed $258 $-1 #
edge $-1 -1 $-1 $343 -25 $268 25 $266 $344 forward @7 unknown #
vertex $-1 -1 $-1 $192 $345 #
vertex $-1 -1 $-1 $280 $346 #
straight-curve $-1 -1 $-1 25 0 -5 0 -1 0 I I #
coedge $-1 -1 $-1 $260 $262 $193 $272 reversed $186 $-1 #
edge $-1 -1 $-1 $275 -1 $278 1 $271 $347 forward @7 unknown #
coedge $-1 -1 $-1 $266 $194 $199 $281 forward $258 $-1 #
coedge $-1 -1 $-1 $194 $266 $260 $338 reversed $258 $-1 #
vertex $-1 -1 $-1 $195 $348 #
straight-curve $-1 -1 $-1 0 1 5 -1 0 0 I I #
coedge $-1 -1 $-1 $196 $261 $198 $280 reversed $129 $-1 #
vertex $-1 -1 $-1 $272 $349 #
straight-curve $-1 -1 $-1 0 -1 5 1 0 0 I I #
edge $-1 -1 $-1 $201 -5 $269 5 $198 $350 forward @7 unknown #
edge $-1 -1 $-1 $202 -5 $268 5 $199 $351 forward @7 unknown #
point $-1 -1 $-1 25 -1 5 #
point $-1 -1 $-1 25 1 5 #
vertex $-1 -1 $-1 $205 $352 #
ellipse-curve $-1 -1 $-1 -5 0 8.3266726846886741e-017 0 -1 0 -0.75 0 -8.3266726846886741e-017 1 I I #
point $-1 -1 $-1 -5.75 2 0 #
vertex $-1 -1 $-1 $209 $353 #
ellipse-curve $-1 -1 $-1 -15 0 8.3266726846886741e-017 0 -1 0 -0.75 0 -8.3266726846886741e-017 1 I I #
point $-1 -1 $-1 -15.75 2 0 #
vertex $-1 -1 $-1 $213 $354 #
ellipse-curve $-1 -1 $-1 15 0 8.3266726846886741e-017 0 -1 0 -0.75 0 -8.3266726846886741e-017 1 I I #
point $-1 -1 $-1 14.25 2 0 #
model_id-kcp-attrib $-1 -1 $-1 $-1 $217 1 1021574926 1021574926 1813446657 8 #
face $355 -1 $-1 $356 $319 $10 $-1 $357 reversed single #
cone-surface $-1 -1 $-1 -5 2 0 0 -1 0 0.75 0 0 1 I I 0 1 0.75 forward I I I I #
loop $-1 -1 $-1 $358 $359 $68 #
coedge $-1 -1 $-1 $360 $360 $322 $361 forward $220 $-1 #
coedge $-1 -1 $-1 $221 $221 $328 $362 forward $155 $-1 #
edge $-1 -1 $-1 $332 0 $330 3.1415926535897931 $221 $363 forward @7 unknown #
ellipse-curve $-1 -1 $-1 15 2 0 0 -1 0 0.75 0 0 1 I I #
point $-1 -1 $-1 14.25 2 0 #
coedge $-1 -1 $-1 $228 $228 $364 $365 reversed $162 $-1 #
coedge $-1 -1 $-1 $366 $367 $228 $304 forward $368 $-1 #
edge $369 -1 $-1 $370 0 $371 3.1415926535897931 $228 $372 forward @7 unknown #
coedge $-1 -1 $-1 $230 $229 $373 $374 reversed $110 $-1 #
coedge $-1 -1 $-1 $375 $376 $229 $307 forward $377 $-1 #
edge $378 -1 $-1 $379 0 $314 10 $229 $380 forward @7 unknown #
coedge $-1 -1 $-1 $381 $382 $230 $309 forward $383 $-1 #
edge $384 -1 $-1 $315 0 $385 10 $230 $386 forward @7 unknown #
coedge $-1 -1 $-1 $387 $231 $382 $388 forward $312 $-1 #
coedge $-1 -1 $-1 $231 $387 $375 $389 reversed $312 $-1 #
loop $-1 -1 $-1 $-1 $310 $390 #
attrib_edge_convexity-kcp-attrib $-1 -1 $391 $-1 $232 1 #
vertex $-1 -1 $-1 $307 $392 #
vertex $-1 -1 $-1 $309 $393 #
straight-curve $-1 -1 $-1 25 0 -5 -1 0 0 I I #
coedge $-1 -1 $-1 $394 $233 $236 $324 reversed $319 $-1 #
coedge $-1 -1 $-1 $233 $394 $235 $323 forward $319 $-1 #
loop $-1 -1 $-1 $-1 $317 $294 #
attrib_edge_convexity-kcp-attrib $-1 -1 $395 $-1 $234 1 #
ellipse-curve $-1 -1 $-1 -5 0 2.7755575615628914e-017 0 -1 0 0.75 0 -2.7755575615628914e-017 1 I I #
coedge $-1 -1 $-1 $236 $235 $297 $361 reversed $237 $-1 #
edge $-1 -1 $-1 $396 0 $240 2 $318 $397 forward @7 unknown #
edge $-1 -1 $-1 $398 0 $239 2 $317 $399 forward @7 unknown #
convexity-sys-attrib $-1 -1 $-1 $238 $166 #
point $-1 -1 $-1 -5.75 0 0 #
point $-1 -1 $-1 -4.25 0 0 #
coedge $-1 -1 $-1 $243 $242 $298 $362 reversed $218 $-1 #
convexity-sys-attrib $-1 -1 $-1 $244 $168 #
vertex $-1 -1 $-1 $362 $400 #
straight-curve $-1 -1 $-1 5.75 2 0 0 -1 0 I I #
vertex $-1 -1 $-1 $362 $401 #
straight-curve $-1 -1 $-1 4.25 2 9.1845476536678294e-017 0 -1 0 I I #
point $-1 -1 $-1 5.75 0 0 #
model_id-kcp-attrib $-1 -1 $-1 $-1 $257 1 1021574926 1021574926 1813446658 5 #
plane-surface $-1 -1 $-1 25 0 0 -1 0 0 0 0 1 forward_v I I I I #
coedge $-1 -1 $-1 $262 $260 $264 $341 reversed $186 $-1 #
edge $-1 -1 $-1 $275 -5 $343 5 $274 $402 forward @7 unknown #
vertex $-1 -1 $-1 $341 $403 #
straight-curve $-1 -1 $-1 -25 -1 0 0 0 -1 I I #
edge $-1 -1 $-1 $339 -1 $343 1 $337 $404 forward @7 unknown #
straight-curve $-1 -1 $-1 0 -1 -5 -1 0 0 I I #
vertex $-1 -1 $-1 $267 $405 #
straight-curve $-1 -1 $-1 0 1 -5 1 0 0 I I #
point $-1 -1 $-1 25 1 -5 #
point $-1 -1 $-1 25 -1 -5 #
straight-curve $-1 -1 $-1 -25 0 5 0 -1 0 I I #
point $-1 -1 $-1 -25 1 5 #
point $-1 -1 $-1 -25 -1 5 #
straight-curve $-1 -1 $-1 25 -1 0 0 0 -1 I I #
straight-curve $-1 -1 $-1 25 1 0 0 0 -1 I I #
point $-1 -1 $-1 -4.25 0 0 #
point $-1 -1 $-1 -14.25 0 0 #
point $-1 -1 $-1 15.75 0 0 #
model_id-kcp-attrib $-1 -1 $-1 $-1 $294 1 1021574926 1021574926 1813446657 9 #
face $406 -1 $-1 $407 $408 $10 $-1 $409 forward single #
cone-surface $-1 -1 $-1 -5 2 0 0 -1 0 0.75 0 0 1 I I 0 1 0.75 forward I I I I #
loop $-1 -1 $-1 $-1 $410 $68 #
coedge $-1 -1 $-1 $411 $412 $413 $414 forward $296 $-1 #
coedge $-1 -1 $-1 $297 $297 $394 $415 forward $220 $-1 #
edge $-1 -1 $-1 $398 0 $396 3.1415926535897931 $297 $416 forward @7 unknown #
edge $-1 -1 $-1 $330 0 $332 3.1415926535897931 $298 $417 forward @7 unknown #
ellipse-curve $-1 -1 $-1 5 2 0 0 -1 0 -0.75 0 0 1 I I #
coedge $-1 -1 $-1 $418 $419 $302 $365 forward $420 $-1 #
edge $421 -1 $-1 $371 0 $370 3.1415926535897931 $302 $422 forward @7 unknown #
coedge $-1 -1 $-1 $423 $303 $419 $424 reversed $368 $-1 #
coedge $-1 -1 $-1 $303 $423 $418 $425 forward $368 $-1 #
loop $-1 -1 $-1 $-1 $366 $426 #
attrib_edge_convexity-kcp-attrib $-1 -1 $427 $-1 $304 1 #
vertex $-1 -1 $-1 $365 $428 #
vertex $-1 -1 $-1 $365 $429 #
ellipse-curve $-1 -1 $-1 -15 0 8.3266726846886741e-017 0 -1 0 -0.75 0 -8.3266726846886741e-017 1 I I #
coedge $-1 -1 $-1 $430 $431 $305 $374 forward $408 $-1 #
edge $432 -1 $-1 $385 0 $379 50 $305 $433 forward @7 unknown #
coedge $-1 -1 $-1 $434 $306 $311 $389 forward $377 $-1 #
coedge $-1 -1 $-1 $306 $434 $430 $435 reversed $377 $-1 #
loop $-1 -1 $-1 $-1 $375 $407 #
attrib_edge_convexity-kcp-attrib $-1 -1 $436 $-1 $307 1 #
vertex $-1 -1 $-1 $374 $437 #
straight-curve $-1 -1 $-1 25 0 5 0 0 -1 I I #
coedge $-1 -1 $-1 $438 $308 $431 $439 forward $383 $-1 #
coedge $-1 -1 $-1 $308 $438 $310 $388 reversed $383 $-1 #
loop $-1 -1 $-1 $-1 $381 $440 #
attrib_edge_convexity-kcp-attrib $-1 -1 $441 $-1 $309 1 #
vertex $-1 -1 $-1 $309 $442 #
straight-curve $-1 -1 $-1 -25 0 -5 0 0 1 I I #
coedge $-1 -1 $-1 $311 $310 $443 $444 reversed $312 $-1 #
edge $-1 -1 $-1 $315 0 $445 2 $382 $446 forward @7 unknown #
edge $447 -1 $-1 $314 0 $448 2 $375 $449 forward @7 unknown #
face $450 -1 $-1 $440 $312 $10 $-1 $451 forward single #
convexity-sys-attrib $-1 -1 $-1 $313 $232 #
point $-1 -1 $-1 25 0 -5 #
point $-1 -1 $-1 -25 0 -5 #
coedge $-1 -1 $-1 $318 $317 $360 $415 reversed $319 $-1 #
convexity-sys-attrib $-1 -1 $-1 $320 $234 #
vertex $-1 -1 $-1 $415 $452 #
straight-curve $-1 -1 $-1 -4.25 2 0 0 -1 0 I I #
vertex $-1 -1 $-1 $415 $453 #
straight-curve $-1 -1 $-1 -5.75 2 9.1845476536678294e-017 0 -1 0 I I #
point $-1 -1 $-1 5.75 2 0 #
point $-1 -1 $-1 4.25 2 0 #
straight-curve $-1 -1 $-1 -25 1 0 0 0 -1 I I #
point $-1 -1 $-1 -25 -1 -5 #
straight-curve $-1 -1 $-1 -25 0 -5 0 1 0 I I #
point $-1 -1 $-1 -25 1 -5 #
model_id-kcp-attrib $-1 -1 $-1 $-1 $356 1 1021574926 1021574926 1813446657 10 #
face $454 -1 $-1 $390 $377 $10 $-1 $455 forward single #
loop $-1 -1 $-1 $-1 $430 $356 #
plane-surface $-1 -1 $-1 -25 0 5 0 0 1 1 0 0 forward_v I I I I #
coedge $-1 -1 $-1 $456 $456 $423 $457 forward $358 $-1 #
coedge $-1 -1 $-1 $443 $359 $434 $458 forward $296 $-1 #
coedge $-1 -1 $-1 $359 $443 $438 $459 forward $296 $-1 #
coedge $-1 -1 $-1 $431 $430 $359 $414 reversed $408 $-1 #
edge $460 -1 $-1 $461 0 $462 50 $359 $463 forward @7 unknown #
edge $-1 -1 $-1 $396 0 $398 3.1415926535897931 $360 $464 forward @7 unknown #
ellipse-curve $-1 -1 $-1 -5 2 0 0 -1 0 -0.75 0 0 1 I I #
ellipse-curve $-1 -1 $-1 5 2 0 0 -1 0 0.75 0 0 1 I I #
coedge $-1 -1 $-1 $465 $364 $367 $425 reversed $420 $-1 #
coedge $-1 -1 $-1 $364 $465 $366 $424 forward $420 $-1 #
loop $-1 -1 $-1 $-1 $418 $466 #
attrib_edge_convexity-kcp-attrib $-1 -1 $467 $-1 $365 1 #
ellipse-curve $-1 -1 $-1 -15 0 2.7755575615628914e-017 0 -1 0 0.75 0 -2.7755575615628914e-017 1 I I #
coedge $-1 -1 $-1 $367 $366 $410 $457 reversed $368 $-1 #
edge $-1 -1 $-1 $468 0 $371 2 $419 $469 forward @7 unknown #
edge $-1 -1 $-1 $470 0 $370 2 $418 $471 forward @7 unknown #
face $472 -1 $-1 $466 $368 $10 $-1 $473 reversed single #
convexity-sys-attrib $-1 -1 $-1 $369 $304 #
point $-1 -1 $-1 -15.75 0 0 #
point $-1 -1 $-1 -14.25 0 0 #
coedge $-1 -1 $-1 $413 $373 $376 $435 forward $408 $-1 #
coedge $-1 -1 $-1 $373 $413 $381 $439 reversed $408 $-1 #
attrib_edge_convexity-kcp-attrib $-1 -1 $474 $-1 $374 1 #
straight-curve $-1 -1 $-1 -25 0 5 1 0 0 I I #
coedge $-1 -1 $-1 $376 $375 $411 $458 reversed $377 $-1 #
edge $475 -1 $-1 $379 0 $462 2 $430 $476 forward @7 unknown #
convexity-sys-attrib $-1 -1 $-1 $378 $307 #
point $-1 -1 $-1 25 0 5 #
coedge $-1 -1 $-1 $382 $381 $412 $459 reversed $383 $-1 #
edge $477 -1 $-1 $385 0 $461 2 $381 $478 forward @7 unknown #
face $479 -1 $-1 $426 $383 $10 $-1 $480 forward single #
convexity-sys-attrib $-1 -1 $-1 $384 $309 #
point $-1 -1 $-1 -25 0 5 #
coedge $-1 -1 $-1 $412 $411 $387 $444 forward $296 $-1 #
edge $-1 -1 $-1 $448 0 $445 50 $443 $481 forward @7 unknown #
vertex $-1 -1 $-1 $459 $482 #
straight-curve $-1 -1 $-1 -25 0 -5 0 1 0 I I #
attrib_edge_convexity-kcp-attrib $-1 -1 $483 $-1 $389 1 #
vertex $-1 -1 $-1 $444 $484 #
straight-curve $-1 -1 $-1 25 0 -5 0 1 0 I I #
model_id-kcp-attrib $-1 -1 $-1 $-1 $390 1 1021574926 1021574926 1813446657 12 #
plane-surface $-1 -1 $-1 25 0 -5 0 0 -1 -1 0 0 forward_v I I I I #
point $-1 -1 $-1 -4.25 2 0 #
point $-1 -1 $-1 -5.75 2 0 #
model_id-kcp-attrib $-1 -1 $-1 $-1 $407 1 1021574926 1021574926 1813446657 11 #
plane-surface $-1 -1 $-1 25 0 5 1 0 0 0 0 -1 forward_v I I I I #
coedge $-1 -1 $-1 $410 $410 $465 $485 forward $358 $-1 #
edge $-1 -1 $-1 $470 0 $468 3.1415926535897931 $410 $486 forward @7 unknown #
edge $487 -1 $-1 $462 0 $448 10 $411 $488 forward @7 unknown #
edge $-1 -1 $-1 $445 0 $461 10 $412 $489 forward @7 unknown #
attrib_edge_convexity-kcp-attrib $-1 -1 $490 $-1 $414 1 #
vertex $-1 -1 $-1 $459 $491 #
vertex $-1 -1 $-1 $458 $492 #
straight-curve $-1 -1 $-1 -25 2 5 1 0 0 I I #
ellipse-curve $-1 -1 $-1 -5 2 0 0 -1 0 0.75 0 0 1 I I #
coedge $-1 -1 $-1 $419 $418 $456 $485 reversed $420 $-1 #
face $493 -1 $-1 $-1 $420 $10 $-1 $494 reversed single #
convexity-sys-attrib $-1 -1 $-1 $421 $365 #
vertex $-1 -1 $-1 $485 $495 #
straight-curve $-1 -1 $-1 -14.25 2 0 0 -1 0 I I #
vertex $-1 -1 $-1 $485 $496 #
straight-curve $-1 -1 $-1 -15.75 2 9.1845476536678294e-017 0 -1 0 I I #
model_id-kcp-attrib $-1 -1 $-1 $-1 $426 1 1021574926 1021574926 1813446657 14 #
cone-surface $-1 -1 $-1 -15 2 0 0 -1 0 0.75 0 0 1 I I 0 1 0.75 forward I I I I #
convexity-sys-attrib $-1 -1 $-1 $432 $374 #
attrib_edge_convexity-kcp-attrib $-1 -1 $497 $-1 $435 1 #
straight-curve $-1 -1 $-1 25 0 5 0 1 0 I I #
attrib_edge_convexity-kcp-attrib $-1 -1 $498 $-1 $439 1 #
straight-curve $-1 -1 $-1 -25 0 5 0 1 0 I I #
model_id-kcp-attrib $-1 -1 $-1 $-1 $440 1 1021574926 1021574926 1813446657 13 #
plane-surface $-1 -1 $-1 -25 0 -5 -1 0 0 0 0 1 forward_v I I I I #
straight-curve $-1 -1 $-1 25 2 -5 -1 0 0 I I #
point $-1 -1 $-1 -25 2 -5 #
convexity-sys-attrib $-1 -1 $-1 $447 $389 #
point $-1 -1 $-1 25 2 -5 #
edge $-1 -1 $-1 $468 0 $470 3.1415926535897931 $456 $499 forward @7 unknown #
ellipse-curve $-1 -1 $-1 -15 2 0 0 -1 0 -0.75 0 0 1 I I #
attrib_edge_convexity-kcp-attrib $-1 -1 $500 $-1 $458 1 #
straight-curve $-1 -1 $-1 25 2 5 0 0 -1 I I #
straight-curve $-1 -1 $-1 -25 2 -5 0 0 1 I I #
convexity-sys-attrib $-1 -1 $-1 $460 $414 #
point $-1 -1 $-1 -25 2 5 #
point $-1 -1 $-1 25 2 5 #
model_id-kcp-attrib $-1 -1 $-1 $-1 $466 1 1021574926 1021574926 1813446657 15 #
cone-surface $-1 -1 $-1 -15 2 0 0 -1 0 0.75 0 0 1 I I 0 1 0.75 forward I I I I #
point $-1 -1 $-1 -14.25 2 0 #
point $-1 -1 $-1 -15.75 2 0 #
convexity-sys-attrib $-1 -1 $-1 $475 $435 #
convexity-sys-attrib $-1 -1 $-1 $477 $439 #
ellipse-curve $-1 -1 $-1 -15 2 0 0 -1 0 0.75 0 0 1 I I #
convexity-sys-attrib $-1 -1 $-1 $487 $458 #
End-of-ACIS-data 