600 0 1 0           
102 GICL Pro/E ACIS Translator - Source: f:/data5/repository/PTC/V18/bboxrev2/boombox/ptc_conn3_.prt - 6 0 13 ACIS 6.0.3 NT 24 Thu Apr 04 10:05:14 2002 
1 9.9999999999999995e-007 1e-010 
body $-1 $1 $-1 $-1 #
lump $-1 $-1 $2 $0 #
shell $-1 $-1 $-1 $3 $-1 $1 #
face $-1 $4 $5 $2 $-1 $6 reversed single #
face $-1 $7 $8 $2 $-1 $9 forward single #
loop $-1 $-1 $10 $3 #
plane-surface $-1 0 0 0 0 0 1 1 0 0 forward_v I I I I #
face $-1 $11 $12 $2 $-1 $13 forward single #
loop $-1 $-1 $14 $4 #
plane-surface $-1 -2.71 1.75 0 -1 0 0 0 -1 0 forward_v I I I I #
coedge $-1 $15 $16 $17 $18 reversed $5 $-1 #
face $-1 $19 $20 $2 $-1 $21 forward single #
loop $-1 $-1 $22 $7 #
plane-surface $-1 -2.71 -1.75 0 0 -1 0 1 0 0 forward_v I I I I #
coedge $-1 $23 $17 $24 $25 forward $8 $-1 #
coedge $-1 $26 $10 $27 $28 reversed $5 $-1 #
coedge $-1 $10 $26 $29 $30 reversed $5 $-1 #
coedge $-1 $14 $31 $10 $18 forward $8 $-1 #
edge $-1 $32 0 $33 3.5 $10 $34 forward 7 unknown #
face $-1 $35 $36 $2 $-1 $37 forward single #
loop $-1 $-1 $38 $11 #
plane-surface $-1 7.79 -1.75 0 1 0 0 0 1 0 forward_v I I I I #
coedge $-1 $39 $29 $40 $41 forward $12 $-1 #
coedge $-1 $31 $14 $42 $43 reversed $8 $-1 #
coedge $-1 $29 $39 $14 $25 reversed $12 $-1 #
edge $-1 $33 0 $44 1 $24 $45 forward 7 unknown #
coedge $-1 $16 $15 $46 $47 reversed $5 $-1 #
coedge $-1 $48 $49 $15 $28 forward $36 $-1 #
edge $-1 $50 0 $32 10.5 $15 $51 forward 7 unknown #
coedge $-1 $22 $24 $16 $30 forward $12 $-1 #
edge $-1 $33 0 $52 10.5 $16 $53 forward 7 unknown #
coedge $-1 $17 $23 $48 $54 reversed $8 $-1 #
vertex $-1 $28 $55 #
vertex $-1 $30 $56 #
straight-curve $-1 -2.71 1.75 0 0 -1 0 I I #
face $-1 $57 $58 $2 $-1 $59 forward single #
loop $-1 $-1 $48 $19 #
plane-surface $-1 7.79 1.75 0 0 1 0 -1 0 0 forward_v I I I I #
coedge $-1 $60 $46 $49 $61 forward $20 $-1 #
coedge $-1 $24 $22 $62 $63 reversed $12 $-1 #
coedge $-1 $46 $60 $22 $41 reversed $20 $-1 #
edge $-1 $52 0 $64 1 $22 $65 forward 7 unknown #
coedge $-1 $62 $66 $23 $43 forward $58 $-1 #
edge $-1 $67 0 $44 3.5 $42 $68 forward 7 unknown #
vertex $-1 $63 $69 #
straight-curve $-1 -2.71 -1.75 0 0 0 1 I I #
coedge $-1 $38 $40 $26 $47 forward $20 $-1 #
edge $-1 $52 0 $50 3.5 $26 $70 forward 7 unknown #
coedge $-1 $71 $27 $31 $54 forward $36 $-1 #
coedge $-1 $27 $71 $38 $61 reversed $36 $-1 #
vertex $-1 $47 $72 #
straight-curve $-1 7.79 1.75 0 -1 0 0 I I #
vertex $-1 $30 $73 #
straight-curve $-1 -2.71 -1.75 0 1 0 0 I I #
edge $-1 $32 0 $67 1 $48 $74 forward 7 unknown #
point $-1 -2.71 1.75 0 #
point $-1 -2.71 -1.75 0 #
face $-1 $75 $76 $2 $-1 $77 forward single #
loop $-1 $78 $79 $35 #
plane-surface $-1 0 0 1 0 0 1 1 0 0 forward_v I I I I #
coedge $-1 $40 $38 $79 $80 reversed $20 $-1 #
edge $-1 $50 0 $81 1 $38 $82 forward 7 unknown #
coedge $-1 $79 $42 $39 $63 forward $58 $-1 #
edge $-1 $44 0 $64 10.5 $62 $83 forward 7 unknown #
vertex $-1 $63 $84 #
straight-curve $-1 7.79 -1.75 0 0 0 1 I I #
coedge $-1 $42 $79 $71 $85 forward $58 $-1 #
vertex $-1 $43 $86 #
straight-curve $-1 -2.71 1.75 1 0 -1 0 I I #
point $-1 -2.71 -1.75 1 #
straight-curve $-1 7.79 -1.75 0 0 1 0 I I #
coedge $-1 $49 $48 $66 $85 reversed $36 $-1 #
point $-1 7.79 1.75 0 #
point $-1 7.79 -1.75 0 #
straight-curve $-1 -2.71 1.75 0 0 0 1 I I #
face $-1 $87 $88 $2 $-1 $89 forward single #
loop $-1 $-1 $90 $57 #
plane-surface $-1 7.54 1.5 0 0 1 0 -1 0 0 forward_v I I I I #
loop $-1 $-1 $91 $35 #
coedge $-1 $66 $62 $60 $80 forward $58 $-1 #
edge $-1 $64 0 $81 3.5 $79 $92 forward 7 unknown #
vertex $-1 $85 $93 #
straight-curve $-1 7.79 1.75 0 0 0 1 I I #
straight-curve $-1 -2.71 -1.75 1 1 0 0 I I #
point $-1 7.79 -1.75 1 #
edge $-1 $81 0 $67 10.5 $66 $94 forward 7 unknown #
point $-1 -2.71 1.75 1 #
face $-1 $95 $96 $2 $-1 $97 forward single #
loop $-1 $-1 $98 $75 #
plane-surface $-1 -2.46 1.5 0 -1 0 0 0 -1 0 forward_v I I I I #
coedge $-1 $99 $100 $101 $102 forward $76 $-1 #
coedge $-1 $103 $104 $100 $105 reversed $78 $-1 #
straight-curve $-1 7.79 -1.75 1 0 1 0 I I #
point $-1 7.79 1.75 1 #
straight-curve $-1 7.79 1.75 1 -1 0 0 I I #
face $-1 $106 $107 $2 $-1 $108 forward single #
loop $-1 $-1 $109 $87 #
plane-surface $-1 -2.46 -1.5 0 0 -1 0 1 0 0 forward_v I I I I #
coedge $-1 $110 $111 $112 $113 forward $88 $-1 #
coedge $-1 $114 $90 $115 $116 reversed $76 $-1 #
coedge $-1 $90 $114 $91 $105 forward $76 $-1 #
coedge $-1 $111 $110 $90 $102 reversed $88 $-1 #
edge $-1 $117 0 $118 6 $101 $119 forward 7 unknown #
coedge $-1 $120 $91 $121 $122 reversed $78 $-1 #
coedge $-1 $91 $120 $111 $123 reversed $78 $-1 #
edge $-1 $124 0 $117 10 $100 $125 forward 7 unknown #
face $-1 $126 $127 $2 $-1 $128 forward single #
loop $-1 $-1 $129 $95 #
plane-surface $-1 7.54 -1.5 0 1 0 0 0 1 0 forward_v I I I I #
coedge $-1 $130 $131 $132 $133 forward $96 $-1 #
coedge $-1 $101 $98 $134 $135 reversed $88 $-1 #
coedge $-1 $98 $101 $104 $123 forward $88 $-1 #
coedge $-1 $131 $130 $98 $113 reversed $96 $-1 #
edge $-1 $136 0 $137 6 $98 $138 forward 7 unknown #
coedge $-1 $100 $99 $129 $139 reversed $76 $-1 #
coedge $-1 $134 $140 $99 $116 forward $127 $-1 #
edge $-1 $141 0 $118 10 $115 $142 forward 7 unknown #
vertex $-1 $123 $143 #
vertex $-1 $135 $144 #
straight-curve $-1 -2.46 1.5 1 0 0 1 I I #
coedge $-1 $104 $103 $131 $145 reversed $78 $-1 #
coedge $-1 $129 $132 $103 $122 forward $107 $-1 #
edge $-1 $146 0 $124 3 $121 $147 forward 7 unknown #
edge $-1 $117 0 $136 3 $111 $148 forward 7 unknown #
vertex $-1 $122 $149 #
straight-curve $-1 7.54 1.5 1 -1 0 0 I I #
face $-1 $150 $151 $2 $-1 $152 reversed single #
loop $-1 $153 $154 $106 #
plane-surface $-1 0 0 7 0 0 1 1 0 0 forward_v I I I I #
coedge $-1 $155 $121 $114 $139 forward $107 $-1 #
coedge $-1 $112 $109 $154 $156 reversed $96 $-1 #
coedge $-1 $109 $112 $120 $145 forward $96 $-1 #
coedge $-1 $121 $155 $109 $133 reversed $107 $-1 #
edge $-1 $146 0 $157 6 $109 $158 forward 7 unknown #
coedge $-1 $154 $115 $110 $135 forward $127 $-1 #
edge $-1 $118 0 $137 3 $134 $159 forward 7 unknown #
vertex $-1 $123 $160 #
vertex $-1 $135 $161 #
straight-curve $-1 -2.46 -1.5 1 0 0 1 I I #
edge $-1 $124 0 $141 6 $129 $162 forward 7 unknown #
coedge $-1 $115 $154 $155 $163 forward $127 $-1 #
vertex $-1 $116 $164 #
straight-curve $-1 7.54 1.5 7 -1 0 0 I I #
point $-1 -2.46 1.5 1 #
point $-1 -2.46 1.5 7 #
edge $-1 $136 0 $146 10 $131 $165 forward 7 unknown #
vertex $-1 $145 $166 #
straight-curve $-1 7.54 -1.5 1 0 1 0 I I #
straight-curve $-1 -2.46 1.5 1 0 -1 0 I I #
point $-1 7.54 1.5 1 #
face $-1 $167 $168 $2 $-1 $169 reversed single #
loop $-1 $-1 $170 $126 #
plane-surface $-1 -2.21 1.25 1 -1 0 0 0 -1 0 forward_v I I I I #
loop $-1 $-1 $171 $106 #
coedge $-1 $140 $134 $130 $156 forward $127 $-1 #
coedge $-1 $132 $129 $140 $163 reversed $107 $-1 #
edge $-1 $137 0 $157 10 $154 $172 forward 7 unknown #
vertex $-1 $163 $173 #
straight-curve $-1 7.54 -1.5 1 0 0 1 I I #
straight-curve $-1 -2.46 1.5 7 0 -1 0 I I #
point $-1 -2.46 -1.5 1 #
point $-1 -2.46 -1.5 7 #
straight-curve $-1 7.54 1.5 1 0 0 1 I I #
edge $-1 $157 0 $141 3 $140 $174 forward 7 unknown #
point $-1 7.54 1.5 7 #
straight-curve $-1 -2.46 -1.5 1 1 0 0 I I #
point $-1 7.54 -1.5 1 #
face $-1 $175 $176 $2 $-1 $177 reversed single #
loop $-1 $-1 $178 $150 #
plane-surface $-1 -2.21 -1.25 1 0 -1 0 1 0 0 forward_v I I I I #
coedge $-1 $179 $180 $181 $182 reversed $151 $-1 #
coedge $-1 $183 $184 $180 $185 reversed $153 $-1 #
straight-curve $-1 -2.46 -1.5 7 1 0 0 I I #
point $-1 7.54 -1.5 7 #
straight-curve $-1 7.54 -1.5 7 0 1 0 I I #
face $-1 $186 $187 $2 $-1 $188 reversed single #
loop $-1 $-1 $189 $167 #
plane-surface $-1 7.29 -1.25 1 1 0 0 0 1 0 forward_v I I I I #
coedge $-1 $190 $191 $192 $193 reversed $168 $-1 #
coedge $-1 $194 $170 $195 $196 reversed $151 $-1 #
coedge $-1 $170 $194 $171 $185 forward $151 $-1 #
coedge $-1 $191 $190 $170 $182 forward $168 $-1 #
edge $-1 $197 0 $198 6 $181 $199 forward 7 unknown #
coedge $-1 $200 $171 $201 $202 reversed $153 $-1 #
coedge $-1 $171 $200 $191 $203 reversed $153 $-1 #
edge $-1 $204 0 $198 2.5 $171 $205 forward 7 unknown #
face $-1 $206 $207 $2 $-1 $208 forward single #
loop $-1 $-1 $209 $175 #
plane-surface $-1 7.29 1.25 1 0 1 0 -1 0 0 forward_v I I I I #
coedge $-1 $210 $211 $212 $213 reversed $176 $-1 #
coedge $-1 $181 $178 $214 $215 reversed $168 $-1 #
coedge $-1 $178 $181 $184 $203 forward $168 $-1 #
coedge $-1 $211 $210 $178 $193 forward $176 $-1 #
edge $-1 $216 0 $217 6 $178 $218 forward 7 unknown #
coedge $-1 $180 $179 $209 $219 forward $151 $-1 #
coedge $-1 $214 $220 $179 $196 forward $207 $-1 #
edge $-1 $221 0 $197 2.5 $195 $222 forward 7 unknown #
vertex $-1 $215 $223 #
vertex $-1 $203 $224 #
straight-curve $-1 -2.21 -1.25 1 0 0 1 I I #
coedge $-1 $184 $183 $211 $225 reversed $153 $-1 #
coedge $-1 $209 $212 $183 $202 forward $187 $-1 #
edge $-1 $226 0 $204 9.5 $183 $227 forward 7 unknown #
edge $-1 $198 0 $217 9.5 $184 $228 forward 7 unknown #
vertex $-1 $202 $229 #
straight-curve $-1 -2.21 1.25 7 0 -1 0 I I #
face $-1 $230 $231 $2 $-1 $232 forward single #
loop $-1 $233 $234 $186 #
plane-surface $-1 0 0 1 0 0 1 1 0 0 forward_v I I I I #
coedge $-1 $235 $201 $194 $219 reversed $187 $-1 #
coedge $-1 $192 $189 $234 $236 reversed $176 $-1 #
coedge $-1 $189 $192 $200 $225 forward $176 $-1 #
coedge $-1 $201 $235 $189 $213 forward $187 $-1 #
edge $-1 $237 0 $226 6 $189 $238 forward 7 unknown #
coedge $-1 $234 $195 $190 $215 forward $207 $-1 #
edge $-1 $197 0 $216 9.5 $214 $239 forward 7 unknown #
vertex $-1 $215 $240 #
vertex $-1 $203 $241 #
straight-curve $-1 7.29 -1.25 1 0 0 1 I I #
edge $-1 $221 0 $204 6 $209 $242 forward 7 unknown #
coedge $-1 $195 $234 $235 $243 forward $207 $-1 #
vertex $-1 $196 $244 #
straight-curve $-1 -2.21 1.25 1 0 -1 0 I I #
point $-1 -2.21 -1.25 1 #
point $-1 -2.21 -1.25 7 #
edge $-1 $217 0 $226 2.5 $200 $245 forward 7 unknown #
vertex $-1 $225 $246 #
straight-curve $-1 7.29 1.25 7 -1 0 0 I I #
straight-curve $-1 -2.21 -1.25 7 1 0 0 I I #
point $-1 -2.21 1.25 7 #
face $-1 $247 $248 $2 $-1 $249 forward single #
loop $-1 $-1 $250 $206 #
cone-surface $-1 0 0 -0.32499999999999996 0 0 1 0 0.375 0 1 I I 0 1 0.375 forward I I I I #
loop $-1 $251 $252 $186 #
coedge $-1 $220 $214 $210 $236 forward $207 $-1 #
coedge $-1 $212 $209 $220 $243 reversed $187 $-1 #
edge $-1 $216 0 $237 2.5 $234 $253 forward 7 unknown #
vertex $-1 $243 $254 #
straight-curve $-1 7.29 1.25 1 0 0 1 I I #
straight-curve $-1 -2.21 -1.25 1 1 0 0 I I #
point $-1 7.29 -1.25 1 #
point $-1 7.29 -1.25 7 #
straight-curve $-1 -2.21 1.25 1 0 0 1 I I #
edge $-1 $237 0 $221 9.5 $220 $255 forward 7 unknown #
point $-1 -2.21 1.25 1 #
straight-curve $-1 7.29 -1.25 7 0 1 0 I I #
point $-1 7.29 1.25 7 #
face $-1 $256 $257 $2 $-1 $258 forward single #
loop $-1 $-1 $259 $230 #
cone-surface $-1 0 0 -0.32499999999999996 0 0 1 0 0.375 0 1 I I 0 1 0.375 forward I I I I #
coedge $-1 $260 $261 $262 $263 reversed $231 $-1 #
loop $-1 $264 $265 $186 #
coedge $-1 $266 $266 $261 $267 reversed $233 $-1 #
straight-curve $-1 7.29 -1.25 1 0 1 0 I I #
point $-1 7.29 1.25 1 #
straight-curve $-1 7.29 1.25 1 -1 0 0 I I #
face $-1 $268 $269 $2 $-1 $270 forward single #
loop $-1 $-1 $271 $247 #
torus-surface $-1 0 0 5.5415691106055309 0 0 1 -0.625 1 0 -1 0 forward_v I I I I #
coedge $-1 $272 $273 $274 $275 reversed $248 $-1 #
coedge $-1 $274 $250 $276 $277 forward $231 $-1 #
coedge $-1 $250 $274 $252 $267 forward $231 $-1 #
coedge $-1 $273 $272 $250 $263 forward $248 $-1 #
edge $-1 $278 0 $279 4.5415691106055309 $262 $280 forward 7 unknown #
loop $-1 $-1 $281 $186 #
coedge $-1 $282 $282 $283 $284 reversed $251 $-1 #
coedge $-1 $252 $252 $273 $285 reversed $233 $-1 #
edge $-1 $286 0 $279 3.1415926535897931 $252 $287 forward 7 unknown #
face $-1 $288 $289 $2 $-1 $290 forward single #
loop $-1 $-1 $291 $256 #
torus-surface $-1 0 0 5.5415691106055309 0 0 1 -0.625 1 0 -1 0 forward_v I I I I #
coedge $-1 $292 $293 $272 $294 forward $257 $-1 #
coedge $-1 $262 $259 $271 $294 reversed $248 $-1 #
coedge $-1 $259 $262 $266 $285 forward $248 $-1 #
coedge $-1 $261 $260 $259 $275 forward $231 $-1 #
edge $-1 $295 0 $286 4.5415691106055309 $259 $296 forward 7 unknown #
coedge $-1 $297 $298 $260 $277 reversed $269 $-1 #
edge $-1 $278 0 $295 3.1415926535897931 $276 $299 forward 7 unknown #
vertex $-1 $300 $301 #
vertex $-1 $285 $302 #
straight-curve $-1 4.5922738268339147e-017 -0.375 5.5415691106055309 0 0 -1 I I #
coedge $-1 $303 $303 $304 $305 reversed $264 $-1 #
coedge $-1 $265 $265 $306 $307 reversed $251 $-1 #
coedge $-1 $308 $309 $265 $284 forward $310 $-1 #
edge $-1 $311 0 $312 3.1415926535897931 $265 $313 forward 7 unknown #
edge $-1 $279 0 $286 3.1415926535897931 $266 $314 forward 7 unknown #
vertex $-1 $285 $315 #
ellipse-curve $-1 -4.163336342344337e-017 0 1 0 0 1 4.163336342344337e-017 0.375 0 1 I I #
face $-1 $316 $317 $2 $-1 $318 forward single #
loop $-1 $-1 $319 $268 #
cone-surface $-1 0 0 6.0727406610312542 0 0 1 0 0.26794919243112258 0 1 I I -0.25881904510252063 0.96592582628906831 0.26794919243112258 forward I I I I #
coedge $-1 $298 $297 $320 $321 forward $269 $-1 #
coedge $-1 $322 $271 $298 $323 reversed $257 $-1 #
coedge $-1 $271 $322 $297 $300 forward $257 $-1 #
edge $-1 $278 0 $295 3.1415926535897931 $271 $324 forward 7 unknown #
vertex $-1 $323 $325 #
straight-curve $-1 -9.1845476536678294e-017 0.375 5.5415691106055309 0 0 -1 I I #
coedge $-1 $291 $276 $293 $300 reversed $269 $-1 #
coedge $-1 $276 $291 $292 $323 forward $269 $-1 #
ellipse-curve $-1 0 0 5.5415691106055309 0 0 -1 4.5922738268339147e-017 -0.375 0 1 I I #
edge $-1 $326 1.6653345369377356e-015 $278 0.26179938779915668 $293 $327 forward 7 unknown #
point $-1 4.5922738268339147e-017 -0.375 5.5415691106055309 #
point $-1 0 -0.375 1 #
coedge $-1 $281 $281 $328 $329 reversed $264 $-1 #
coedge $-1 $330 $331 $281 $305 forward $332 $-1 #
edge $-1 $333 0 $334 3.1415926535897931 $281 $335 forward 7 unknown #
coedge $-1 $336 $337 $282 $307 forward $338 $-1 #
edge $-1 $312 0 $311 3.1415926535897931 $282 $339 forward 7 unknown #
coedge $-1 $340 $283 $337 $341 reversed $310 $-1 #
coedge $-1 $283 $340 $336 $342 forward $310 $-1 #
loop $-1 $-1 $308 $343 #
vertex $-1 $307 $344 #
vertex $-1 $307 $345 #
ellipse-curve $-1 2.54 0 1 0 0 1 0 0.375 0 1 I I #
ellipse-curve $-1 2.7755575615628914e-017 -1.3877787807814457e-017 1 0 0 1 -2.7755575615628914e-017 -0.375 0 1 I I #
point $-1 0 0.375 1 #
face $-1 $346 $347 $2 $-1 $348 forward single #
loop $-1 $-1 $349 $288 #
sphere-surface $-1 0 0 6.2999999999999998 0.19999999999999998 1 0 0 0 0 1 forward_v I I I I #
coedge $-1 $350 $351 $352 $353 forward $289 $-1 #
coedge $-1 $351 $350 $291 $321 reversed $289 $-1 #
edge $-1 $326 2.6511888511739931e-032 $354 3.1415926535897931 $320 $355 forward 7 unknown #
coedge $-1 $293 $292 $356 $357 reversed $257 $-1 #
edge $-1 $354 1.4996607218221498e-032 $295 0.26179938779915668 $292 $358 forward 7 unknown #
ellipse-curve $-1 0 0 5.5415691106055309 0 0 1 4.5922738268339147e-017 -0.375 0 1 I I #
point $-1 -9.1845476536678294e-017 0.375 5.5415691106055309 #
vertex $-1 $359 $360 #
ellipse-curve $-1 -7.653789711389758e-017 0.62500000000000022 5.5415691106055318 1 1.2246063538223672e-016 8.6281661508548144e-032 1.182878904194711e-016 -0.96592582628906676 0.25881904510252696 1 I I #
coedge $-1 $361 $362 $303 $329 forward $363 $-1 #
edge $-1 $334 0 $333 3.1415926535897931 $303 $364 forward 7 unknown #
coedge $-1 $365 $304 $362 $366 reversed $332 $-1 #
coedge $-1 $304 $365 $361 $367 forward $332 $-1 #
loop $-1 $-1 $330 $368 #
vertex $-1 $329 $369 #
vertex $-1 $329 $370 #
ellipse-curve $-1 5.0800000000000001 0 1 0 0 1 0 0.375 0 1 I I #
coedge $-1 $371 $306 $309 $342 reversed $338 $-1 #
coedge $-1 $306 $371 $308 $341 forward $338 $-1 #
loop $-1 $-1 $336 $372 #
ellipse-curve $-1 2.54 -1.3877787807814457e-017 1 0 0 1 0 -0.375 0 1 I I #
coedge $-1 $309 $308 $373 $374 forward $310 $-1 #
edge $-1 $375 0 $312 4.5415691106055309 $337 $376 forward 7 unknown #
edge $-1 $377 0 $311 4.5415691106055309 $336 $378 forward 7 unknown #
face $-1 $372 $310 $2 $-1 $379 forward single #
point $-1 2.54 0.375 1 #
point $-1 2.54 -0.375 1 #
face $-1 $343 $380 $2 $-1 $381 forward single #
loop $-1 $-1 $382 $316 #
sphere-surface $-1 0 0 6.2999999999999998 0.19999999999999998 1 0 0 0 0 1 forward_v I I I I #
coedge $-1 $352 $383 $384 $385 forward $317 $-1 #
coedge $-1 $320 $319 $386 $387 forward $289 $-1 #
coedge $-1 $319 $320 $388 $359 reversed $289 $-1 #
coedge $-1 $383 $349 $319 $353 reversed $317 $-1 #
edge $-1 $389 0 $390 3.1415926535897931 $352 $391 forward 7 unknown #
vertex $-1 $387 $392 #
ellipse-curve $-1 0 0 5.8003881557080588 0 0 -1 4.1749993305573505e-017 -0.34092582628906654 0 1 I I #
coedge $-1 $386 $388 $322 $357 forward $380 $-1 #
edge $-1 $326 -2.6511888511739931e-032 $354 3.1415926535897931 $356 $393 forward 7 unknown #
ellipse-curve $-1 1.5307579422779516e-016 -0.62500000000000022 5.5415691106055318 -1 -2.4492127076447343e-016 1.7256332301709629e-031 -2.3657578083894219e-016 0.96592582628906676 0.25881904510252696 1 I I #
edge $-1 $389 -8.7946548867228605e-016 $326 0.57082608033242332 $388 $394 forward 7 unknown #
point $-1 4.1749993305573468e-017 -0.34092582628906631 5.800388155708057 #
coedge $-1 $395 $328 $331 $367 reversed $363 $-1 #
coedge $-1 $328 $395 $330 $366 forward $363 $-1 #
loop $-1 $-1 $361 $396 #
ellipse-curve $-1 5.0800000000000001 -1.3877787807814457e-017 1 0 0 1 0 -0.375 0 1 I I #
coedge $-1 $331 $330 $397 $398 forward $332 $-1 #
edge $-1 $399 0 $334 4.5415691106055309 $362 $400 forward 7 unknown #
edge $-1 $401 0 $333 4.5415691106055309 $361 $402 forward 7 unknown #
face $-1 $396 $332 $2 $-1 $403 forward single #
point $-1 5.0800000000000001 0.375 1 #
point $-1 5.0800000000000001 -0.375 1 #
coedge $-1 $337 $336 $404 $405 reversed $338 $-1 #
face $-1 $406 $338 $2 $-1 $407 forward single #
coedge $-1 $408 $409 $340 $374 reversed $410 $-1 #
edge $-1 $375 0 $377 3.1415926535897931 $373 $411 forward 7 unknown #
vertex $-1 $412 $413 #
straight-curve $-1 2.54 -0.375 5.5415691106055309 0 0 -1 I I #
vertex $-1 $414 $415 #
straight-curve $-1 2.54 0.375 5.5415691106055309 0 0 -1 I I #
cone-surface $-1 2.54 0 -0.32499999999999996 0 0 1 0 0.375 0 1 I I 0 1 0.375 forward I I I I #
loop $-1 $-1 $356 $346 #
cone-surface $-1 0 0 6.0727406610312542 0 0 1 0 0.26794919243112258 0 1 I I -0.25881904510252063 0.96592582628906831 0.26794919243112258 forward I I I I #
coedge $-1 $384 $416 $417 $418 forward $347 $-1 #
coedge $-1 $349 $352 $416 $419 reversed $317 $-1 #
coedge $-1 $416 $382 $349 $385 reversed $347 $-1 #
edge $-1 $420 -1.224606353822376e-016 $390 1.3089969389957516 $384 $421 forward 7 unknown #
coedge $-1 $417 $356 $350 $387 reversed $380 $-1 #
edge $-1 $390 0 $354 0.57082608033242166 $386 $422 forward 7 unknown #
coedge $-1 $356 $417 $351 $359 forward $380 $-1 #
vertex $-1 $419 $423 #
vertex $-1 $385 $424 #
ellipse-curve $-1 -6.9388939039072284e-018 0 6.3517638090205031 0 0 -1 3.0596471987801699e-017 -0.19318516525781373 0 1 I I #
point $-1 -8.3499986611147009e-017 0.34092582628906654 5.8003881557080588 #
ellipse-curve $-1 0 0 5.8003881557080588 0 0 1 4.1749993305573505e-017 -0.34092582628906654 0 1 I I #
straight-curve $-1 2.3657578083894471e-017 -0.19318516525781373 6.3517638090205031 3.169514471227872e-017 -0.25881904510252068 -0.96592582628906831 I I #
coedge $-1 $362 $361 $425 $426 reversed $363 $-1 #
face $-1 $427 $363 $2 $-1 $428 forward single #
coedge $-1 $429 $430 $365 $398 reversed $431 $-1 #
edge $-1 $399 0 $401 3.1415926535897931 $397 $432 forward 7 unknown #
vertex $-1 $433 $434 #
straight-curve $-1 5.0800000000000001 -0.375 5.5415691106055309 0 0 -1 I I #
vertex $-1 $435 $436 #
straight-curve $-1 5.0800000000000001 0.375 5.5415691106055309 0 0 -1 I I #
cone-surface $-1 5.0800000000000001 0 -0.32499999999999996 0 0 1 0 0.375 0 1 I I 0 1 0.375 forward I I I I #
coedge $-1 $437 $438 $371 $405 forward $439 $-1 #
edge $-1 $375 0 $377 3.1415926535897931 $404 $440 forward 7 unknown #
face $-1 $441 $439 $2 $-1 $442 forward single #
cone-surface $-1 2.54 0 -0.32499999999999996 0 0 1 0 0.375 0 1 I I 0 1 0.375 forward I I I I #
coedge $-1 $443 $373 $438 $412 reversed $410 $-1 #
coedge $-1 $373 $443 $437 $414 forward $410 $-1 #
loop $-1 $-1 $443 $441 #
ellipse-curve $-1 2.54 0 5.5415691106055309 0 0 -1 0 -0.375 0 1 I I #
edge $-1 $444 1.6653345369377356e-015 $375 0.26179938779915668 $438 $445 forward 7 unknown #
point $-1 2.54 -0.375 5.5415691106055309 #
edge $-1 $446 0 $377 0.26179938779915668 $437 $447 forward 7 unknown #
point $-1 2.54 0.375 5.5415691106055309 #
coedge $-1 $382 $384 $383 $419 forward $347 $-1 #
coedge $-1 $388 $386 $382 $418 reversed $380 $-1 #
edge $-1 $389 -4.1284109862198138e-032 $390 3.1415926535897931 $382 $448 forward 7 unknown #
edge $-1 $420 9.1824702426062e-049 $389 1.3089969389957472 $416 $449 forward 7 unknown #
vertex $-1 $419 $450 #
ellipse-curve $-1 0 0 6.2999999999999998 -1 -2.449212707644754e-016 -4.2764235361475057e-048 -2.9993214436442747e-033 1.2246063538223771e-017 0.20000000000000018 1 I I #
straight-curve $-1 -4.7315156167788942e-017 0.19318516525781373 6.3517638090205031 -6.339028942455744e-017 0.25881904510252068 -0.96592582628906831 I I #
point $-1 2.3657578083894455e-017 -0.19318516525781365 6.351763809020504 #
point $-1 -4.7315156167788942e-017 0.19318516525781373 6.3517638090205031 #
coedge $-1 $451 $452 $395 $426 forward $453 $-1 #
edge $-1 $399 0 $401 3.1415926535897931 $425 $454 forward 7 unknown #
face $-1 $455 $453 $2 $-1 $456 forward single #
cone-surface $-1 5.0800000000000001 0 -0.32499999999999996 0 0 1 0 0.375 0 1 I I 0 1 0.375 forward I I I I #
coedge $-1 $457 $397 $452 $433 reversed $431 $-1 #
coedge $-1 $397 $457 $451 $435 forward $431 $-1 #
loop $-1 $-1 $457 $455 #
ellipse-curve $-1 5.0800000000000001 0 5.5415691106055309 0 0 -1 0 -0.375 0 1 I I #
edge $-1 $458 1.6653345369377356e-015 $399 0.26179938779915668 $452 $459 forward 7 unknown #
point $-1 5.0800000000000001 -0.375 5.5415691106055309 #
edge $-1 $460 0 $401 0.26179938779915668 $451 $461 forward 7 unknown #
point $-1 5.0800000000000001 0.375 5.5415691106055309 #
coedge $-1 $462 $404 $409 $414 reversed $439 $-1 #
coedge $-1 $404 $462 $408 $412 forward $439 $-1 #
loop $-1 $-1 $404 $406 #
ellipse-curve $-1 2.54 0 5.5415691106055309 0 0 1 0 -0.375 0 1 I I #
face $-1 $463 $410 $2 $-1 $464 forward single #
torus-surface $-1 2.54 0 5.5415691106055309 0 0 1 -0.625 1 0 -1 0 forward_v I I I I #
coedge $-1 $409 $408 $465 $466 forward $410 $-1 #
vertex $-1 $467 $468 #
ellipse-curve $-1 2.54 0.62500000000000022 5.5415691106055318 1 0 0 0 -0.96592582628906676 0.25881904510252696 1 I I #
vertex $-1 $469 $470 #
ellipse-curve $-1 2.54 -0.62500000000000022 5.5415691106055318 -1 0 0 0 0.96592582628906676 0.25881904510252696 1 I I #
ellipse-curve $-1 6.9388939039072284e-018 0 6.3517638090205031 0 0 1 1.6718684179987243e-017 -0.19318516525781373 0 1 I I #
ellipse-curve $-1 0 0 6.2999999999999998 1 1.224606353822377e-016 -2.1382117680737529e-048 1.4996607218221374e-033 -1.2246063538223771e-017 0.20000000000000018 1 I I #
point $-1 1.4996607218221374e-033 -1.2246063538223771e-017 6.5 #
coedge $-1 $471 $425 $430 $435 reversed $453 $-1 #
coedge $-1 $425 $471 $429 $433 forward $453 $-1 #
loop $-1 $-1 $425 $427 #
ellipse-curve $-1 5.0800000000000001 0 5.5415691106055309 0 0 1 0 -0.375 0 1 I I #
face $-1 $472 $431 $2 $-1 $473 forward single #
torus-surface $-1 5.0800000000000001 0 5.5415691106055309 0 0 1 -0.625 1 0 -1 0 forward_v I I I I #
coedge $-1 $430 $429 $474 $475 forward $431 $-1 #
vertex $-1 $476 $477 #
ellipse-curve $-1 5.0800000000000001 0.62500000000000022 5.5415691106055318 1 0 0 0 -0.96592582628906676 0.25881904510252696 1 I I #
vertex $-1 $478 $479 #
ellipse-curve $-1 5.0800000000000001 -0.62500000000000022 5.5415691106055318 -1 0 0 0 0.96592582628906676 0.25881904510252696 1 I I #
coedge $-1 $438 $437 $480 $481 reversed $439 $-1 #
face $-1 $482 $483 $2 $-1 $484 forward single #
torus-surface $-1 2.54 0 5.5415691106055309 0 0 1 -0.625 1 0 -1 0 forward_v I I I I #
coedge $-1 $485 $486 $443 $466 reversed $483 $-1 #
edge $-1 $444 0 $446 3.1415926535897931 $465 $487 forward 7 unknown #
edge $-1 $488 -8.7946548867228605e-016 $444 0.57082608033242332 $489 $490 forward 7 unknown #
point $-1 2.54 -0.34092582628906631 5.800388155708057 #
edge $-1 $491 0 $446 0.57082608033242166 $492 $493 forward 7 unknown #
point $-1 2.54 0.34092582628906654 5.8003881557080588 #
coedge $-1 $452 $451 $494 $495 reversed $453 $-1 #
face $-1 $496 $497 $2 $-1 $498 forward single #
torus-surface $-1 5.0800000000000001 0 5.5415691106055309 0 0 1 -0.625 1 0 -1 0 forward_v I I I I #
coedge $-1 $499 $500 $457 $475 reversed $497 $-1 #
edge $-1 $458 0 $460 3.1415926535897931 $474 $501 forward 7 unknown #
edge $-1 $502 -8.7946548867228605e-016 $458 0.57082608033242332 $503 $504 forward 7 unknown #
point $-1 5.0800000000000001 -0.34092582628906631 5.800388155708057 #
edge $-1 $505 0 $460 0.57082608033242166 $506 $507 forward 7 unknown #
point $-1 5.0800000000000001 0.34092582628906654 5.8003881557080588 #
coedge $-1 $492 $489 $462 $481 forward $508 $-1 #
edge $-1 $444 0 $446 3.1415926535897931 $480 $509 forward 7 unknown #
face $-1 $510 $511 $2 $-1 $512 forward single #
loop $-1 $-1 $513 $463 #
cone-surface $-1 2.54 0 6.0727406610312542 0 0 1 0 0.26794919243112258 0 1 I I -0.25881904510252063 0.96592582628906831 0.26794919243112258 forward I I I I #
coedge $-1 $513 $465 $489 $467 reversed $483 $-1 #
coedge $-1 $465 $513 $492 $469 forward $483 $-1 #
ellipse-curve $-1 2.54 0 5.8003881557080588 0 0 -1 0 -0.34092582628906654 0 1 I I #
vertex $-1 $514 $515 #
coedge $-1 $480 $516 $485 $467 forward $508 $-1 #
straight-curve $-1 2.54 -0.19318516525781373 6.3517638090205031 0 -0.25881904510252068 -0.96592582628906831 I I #
vertex $-1 $517 $518 #
coedge $-1 $516 $480 $486 $469 reversed $508 $-1 #
straight-curve $-1 2.54 0.19318516525781373 6.3517638090205031 0 0.25881904510252068 -0.96592582628906831 I I #
coedge $-1 $506 $503 $471 $495 forward $519 $-1 #
edge $-1 $458 0 $460 3.1415926535897931 $494 $520 forward 7 unknown #
face $-1 $521 $522 $2 $-1 $523 forward single #
loop $-1 $-1 $524 $472 #
cone-surface $-1 5.0800000000000001 0 6.0727406610312542 0 0 1 0 0.26794919243112258 0 1 I I -0.25881904510252063 0.96592582628906831 0.26794919243112258 forward I I I I #
coedge $-1 $524 $474 $503 $476 reversed $497 $-1 #
coedge $-1 $474 $524 $506 $478 forward $497 $-1 #
ellipse-curve $-1 5.0800000000000001 0 5.8003881557080588 0 0 -1 0 -0.34092582628906654 0 1 I I #
vertex $-1 $525 $526 #
coedge $-1 $494 $527 $499 $476 forward $519 $-1 #
straight-curve $-1 5.0800000000000001 -0.19318516525781373 6.3517638090205031 0 -0.25881904510252068 -0.96592582628906831 I I #
vertex $-1 $528 $529 #
coedge $-1 $527 $494 $500 $478 reversed $519 $-1 #
straight-curve $-1 5.0800000000000001 0.19318516525781373 6.3517638090205031 0 0.25881904510252068 -0.96592582628906831 I I #
loop $-1 $-1 $480 $530 #
ellipse-curve $-1 2.54 0 5.8003881557080588 0 0 1 0 -0.34092582628906654 0 1 I I #
face $-1 $530 $531 $2 $-1 $532 forward single #
loop $-1 $-1 $533 $482 #
sphere-surface $-1 2.54 0 6.2999999999999998 0.19999999999999998 1 0 0 0 0 1 forward_v I I I I #
coedge $-1 $486 $485 $534 $535 forward $483 $-1 #
edge $-1 $536 0 $488 1.3089969389957472 $537 $538 forward 7 unknown #
point $-1 2.54 -0.19318516525781365 6.351763809020504 #
coedge $-1 $489 $492 $539 $540 reversed $508 $-1 #
edge $-1 $536 -1.224606353822376e-016 $491 1.3089969389957516 $541 $542 forward 7 unknown #
point $-1 2.54 0.19318516525781373 6.3517638090205031 #
loop $-1 $-1 $494 $543 #
ellipse-curve $-1 5.0800000000000001 0 5.8003881557080588 0 0 1 0 -0.34092582628906654 0 1 I I #
face $-1 $543 $544 $2 $-1 $545 forward single #
loop $-1 $-1 $546 $496 #
sphere-surface $-1 5.0800000000000001 0 6.2999999999999998 0.19999999999999998 1 0 0 0 0 1 forward_v I I I I #
coedge $-1 $500 $499 $547 $548 forward $497 $-1 #
edge $-1 $549 0 $502 1.3089969389957472 $550 $551 forward 7 unknown #
point $-1 5.0800000000000001 -0.19318516525781365 6.351763809020504 #
coedge $-1 $503 $506 $552 $553 reversed $519 $-1 #
edge $-1 $549 -1.224606353822376e-016 $505 1.3089969389957516 $554 $555 forward 7 unknown #
point $-1 5.0800000000000001 0.19318516525781373 6.3517638090205031 #
face $-1 $368 $508 $2 $-1 $556 forward single #
loop $-1 $-1 $539 $510 #
sphere-surface $-1 2.54 0 6.2999999999999998 0.19999999999999998 1 0 0 0 0 1 forward_v I I I I #
coedge $-1 $534 $557 $541 $517 forward $511 $-1 #
coedge $-1 $557 $533 $513 $535 reversed $511 $-1 #
edge $-1 $488 6.6054575779517021e-031 $491 3.1415926535897887 $534 $558 forward 7 unknown #
vertex $-1 $514 $559 #
coedge $-1 $539 $541 $557 $514 forward $531 $-1 #
ellipse-curve $-1 2.54 0 6.2999999999999998 1 0 0 0 -1.2246063538223771e-017 0.20000000000000018 1 I I #
coedge $-1 $541 $537 $516 $540 forward $531 $-1 #
edge $-1 $488 9.9081863669275532e-031 $491 3.1415926535897887 $539 $560 forward 7 unknown #
coedge $-1 $537 $539 $533 $517 reversed $531 $-1 #
ellipse-curve $-1 2.54 0 6.2999999999999998 -1 0 0 0 1.2246063538223771e-017 0.20000000000000018 1 I I #
face $-1 $-1 $519 $2 $-1 $561 forward single #
loop $-1 $-1 $552 $521 #
sphere-surface $-1 5.0800000000000001 0 6.2999999999999998 0.19999999999999998 1 0 0 0 0 1 forward_v I I I I #
coedge $-1 $547 $562 $554 $528 forward $522 $-1 #
coedge $-1 $562 $546 $524 $548 reversed $522 $-1 #
edge $-1 $502 1.3210915155903404e-030 $505 3.1415926535897842 $547 $563 forward 7 unknown #
vertex $-1 $525 $564 #
coedge $-1 $552 $554 $562 $525 forward $544 $-1 #
ellipse-curve $-1 5.0800000000000001 0 6.2999999999999998 1 0 0 0 -1.2246063538223771e-017 0.20000000000000018 1 I I #
coedge $-1 $554 $550 $527 $553 forward $544 $-1 #
edge $-1 $502 1.9816372733855106e-030 $505 3.1415926535897842 $552 $565 forward 7 unknown #
coedge $-1 $550 $552 $546 $528 reversed $544 $-1 #
ellipse-curve $-1 5.0800000000000001 0 6.2999999999999998 -1 0 0 0 1.2246063538223771e-017 0.20000000000000018 1 I I #
cone-surface $-1 2.54 0 6.0727406610312542 0 0 1 0 0.26794919243112258 0 1 I I -0.25881904510252063 0.96592582628906831 0.26794919243112258 forward I I I I #
coedge $-1 $533 $534 $537 $514 reversed $511 $-1 #
ellipse-curve $-1 2.5400000000000005 -1.3877787807814457e-017 6.3517638090205031 0 0 -1 -4.4408920985006262e-016 -0.19318516525781371 0 1 I I #
point $-1 2.54 -1.2246063538223771e-017 6.5 #
ellipse-curve $-1 2.5399999999999996 6.9388939039072284e-018 6.3517638090205031 0 0 1 4.4408920985006262e-016 -0.19318516525781373 0 1 I I #
cone-surface $-1 5.0800000000000001 0 6.0727406610312542 0 0 1 0 0.26794919243112258 0 1 I I -0.25881904510252063 0.96592582628906831 0.26794919243112258 forward I I I I #
coedge $-1 $546 $547 $550 $525 reversed $522 $-1 #
ellipse-curve $-1 5.080000000000001 -1.3877787807814457e-017 6.3517638090205031 0 0 -1 -8.8817841970012523e-016 -0.19318516525781371 0 1 I I #
point $-1 5.0800000000000001 -1.2246063538223771e-017 6.5 #
ellipse-curve $-1 5.0799999999999992 6.9388939039072284e-018 6.3517638090205031 0 0 1 8.8817841970012523e-016 -0.19318516525781373 0 1 I I #
End-of-ACIS-data 