700 0 2 0           
24 FBMach with ACIS - 7.0.3 13 ACIS 7.0.3 NT 24 Thu May 16 14:04:46 2002 
1 9.9999999999999995e-007 1e-010 
body $2 -1 $-1 $3 $-1 $4 #
bdycol-kcp $-1 -1 1 5 $5 $6 $7 $8 $9 #
model_id-kcp-attrib $-1 -1 $-1 $-1 $0 1 1021572284 1021572284 -1606418431 1 #
lump $-1 -1 $-1 $-1 $10 $0 #
transform $-1 -1 1 0 0 0 1 0 0 0 1 0 0 0 1 rotate no_reflect no_shear #
body $11 -1 $-1 $12 $-1 $13 #
body $14 -1 $-1 $15 $-1 $16 #
body $17 -1 $-1 $18 $-1 $19 #
body $20 -1 $-1 $21 $-1 $22 #
body $23 -1 $-1 $24 $-1 $25 #
shell $-1 -1 $-1 $-1 $-1 $26 $-1 $3 #
model_id-kcp-attrib $-1 -1 $-1 $-1 $5 1 1021572284 1021572284 -1606418430 1 #
lump $-1 -1 $-1 $-1 $27 $5 #
transform $-1 -1 1 0 0 0 1 0 0 0 1 0 0 3.5 1 no_rotate no_reflect no_shear #
rgb_color-st-attrib $-1 -1 $28 $-1 $6 0.5 1 1 #
lump $-1 -1 $-1 $-1 $29 $6 #
transform $-1 -1 1 0 0 0 1 0 0 0 1 0 0 0 1 no_rotate no_reflect no_shear #
rgb_color-st-attrib $-1 -1 $30 $-1 $7 0.5 1 1 #
lump $-1 -1 $-1 $-1 $31 $7 #
transform $-1 -1 1 0 0 0 1 0 0 0 1 0 0 3.5 1 no_rotate no_reflect no_shear #
rgb_color-st-attrib $-1 -1 $32 $-1 $8 1 0.5 1 #
lump $-1 -1 $-1 $-1 $33 $8 #
transform $-1 -1 1 0 0 0 1 0 0 0 1 0 0 3.5 1 no_rotate no_reflect no_shear #
rgb_color-st-attrib $-1 -1 $34 $-1 $9 0 0 1 #
lump $-1 -1 $-1 $-1 $35 $9 #
transform $-1 -1 1 0 0 0 1 0 0 0 1 0 0 3.5 1 no_rotate no_reflect no_shear #
face $36 -1 $-1 $37 $38 $10 $-1 $39 reversed single #
shell $-1 -1 $-1 $-1 $-1 $40 $-1 $12 #
model_id-kcp-attrib $-1 -1 $-1 $14 $6 1 1021572284 1021572284 -1602879484 1 #
shell $-1 -1 $-1 $-1 $-1 $41 $-1 $15 #
model_id-kcp-attrib $-1 -1 $-1 $17 $7 1 1021572284 1021572284 -1597243389 1 #
shell $-1 -1 $-1 $-1 $-1 $42 $-1 $18 #
model_id-kcp-attrib $-1 -1 $-1 $20 $8 1 1021572284 1021572286 -1609826299 1 #
shell $-1 -1 $-1 $-1 $-1 $43 $-1 $21 #
model_id-kcp-attrib $-1 -1 $-1 $23 $9 1 1021572284 1021572286 -1599995898 1 #
shell $-1 -1 $-1 $-1 $-1 $44 $-1 $24 #
model_id-kcp-attrib $-1 -1 $-1 $-1 $26 1 1021572284 1021572284 -1606418431 2 #
face $45 -1 $-1 $46 $47 $10 $-1 $48 forward single #
loop $-1 -1 $-1 $49 $50 $26 #
plane-surface $-1 -1 $-1 0 0 7 0 0 -1 1 0 0 forward_v I I I I #
face $51 -1 $-1 $52 $53 $27 $-1 $54 forward single #
face $-1 -1 $-1 $55 $56 $29 $-1 $57 forward single #
face $-1 -1 $-1 $58 $59 $31 $-1 $60 reversed single #
face $-1 -1 $-1 $61 $62 $33 $-1 $63 forward single #
face $-1 -1 $-1 $64 $65 $35 $-1 $66 forward single #
model_id-kcp-attrib $-1 -1 $-1 $-1 $37 1 1021572284 1021572284 -1606418431 3 #
face $67 -1 $-1 $68 $69 $10 $-1 $70 forward single #
loop $-1 -1 $-1 $-1 $71 $37 #
cone-surface $-1 -1 $-1 0 0 7.3499999999999996 0 0 -1 1.75 0 0 1 I I 0 1 1.75 forward I I I I #
loop $-1 -1 $-1 $-1 $72 $26 #
coedge $-1 -1 $-1 $73 $73 $74 $75 reversed $38 $-1 #
model_id-kcp-attrib $-1 -1 $-1 $-1 $40 1 1021572284 1021572284 -1606418430 2 #
face $76 -1 $-1 $77 $78 $27 $-1 $79 reversed single #
loop $-1 -1 $-1 $-1 $80 $40 #
plane-surface $-1 -1 $-1 0 0 3.5 0 0 1 1 0 0 forward_v I I I I #
face $-1 -1 $-1 $81 $82 $29 $-1 $83 reversed single #
loop $-1 -1 $-1 $84 $85 $41 #
cone-surface $-1 -1 $-1 0 0 6.5 0 0 -1 0 0.5 0 1 I I 0 1 0.5 forward I I I I #
face $-1 -1 $-1 $86 $87 $31 $-1 $60 reversed single #
loop $-1 -1 $-1 $-1 $88 $42 #
cone-surface $-1 -1 $-1 1.1102230246251568e-016 -1.1102230246251563e-016 3.5 0 0 1 -2 3.5594357322699111e-016 0 1 I I 0 1 2 forward I I I I #
face $-1 -1 $-1 $89 $90 $33 $-1 $91 forward single #
loop $-1 -1 $-1 $92 $93 $43 #
cone-surface $-1 -1 $-1 0 0 -2.5 0 0 1 1.75 0 0 1 I I 0 -1 1.75 forward I I I I #
face $-1 -1 $-1 $94 $95 $35 $-1 $96 forward single #
loop $-1 -1 $-1 $97 $98 $44 #
cone-surface $-1 -1 $-1 0 0 3 0 0 1 0 1.375 0 1 I I 0 1 1.375 forward I I I I #
model_id-kcp-attrib $-1 -1 $-1 $-1 $46 1 1021572284 1021572284 -1606418431 4 #
face $99 -1 $-1 $100 $101 $10 $-1 $102 reversed single #
loop $-1 -1 $-1 $-1 $103 $46 #
cone-surface $-1 -1 $-1 0 0 7.3499999999999996 0 0 -1 1.75 0 0 1 I I 0 1 1.75 forward I I I I #
coedge $-1 -1 $-1 $74 $104 $105 $106 forward $47 $-1 #
coedge $-1 -1 $-1 $107 $107 $108 $109 reversed $49 $-1 #
coedge $-1 -1 $-1 $50 $50 $110 $111 forward $38 $-1 #
coedge $-1 -1 $-1 $112 $71 $50 $75 forward $47 $-1 #
edge $113 -1 $-1 $114 0 $115 3.1415926535897931 $50 $116 forward @7 unknown #
model_id-kcp-attrib $-1 -1 $-1 $-1 $52 1 1021572284 1021572284 -1606418430 3 #
face $-1 -1 $-1 $117 $118 $27 $-1 $119 reversed single #
loop $-1 -1 $-1 $-1 $120 $52 #
plane-surface $-1 -1 $-1 0 0 -3.5 0 0 1 1 0 0 forward_v I I I I #
coedge $-1 -1 $-1 $121 $122 $123 $124 forward $53 $-1 #
face $-1 -1 $-1 $-1 $125 $29 $-1 $126 forward single #
loop $-1 -1 $-1 $-1 $127 $55 #
plane-surface $-1 -1 $-1 0 2.0185873175002847e-017 3.5590169943749475 0 0 1 1 0 0 forward_v I I I I #
loop $-1 -1 $-1 $-1 $128 $41 #
coedge $-1 -1 $-1 $85 $85 $127 $129 forward $56 $-1 #
face $-1 -1 $-1 $130 $131 $31 $-1 $60 reversed single #
loop $-1 -1 $-1 $-1 $132 $58 #
coedge $-1 -1 $-1 $133 $134 $135 $136 reversed $59 $-1 #
face $-1 -1 $-1 $137 $138 $33 $-1 $139 forward single #
loop $-1 -1 $-1 $140 $141 $61 #
cone-surface $-1 -1 $-1 1.1102230246251568e-016 -1.1102230246251563e-016 -2.5 0 0 1 -2 3.5594357322699111e-016 0 1 I I 0 1 2 forward I I I I #
loop $-1 -1 $-1 $-1 $142 $43 #
coedge $-1 -1 $-1 $93 $93 $143 $144 forward $62 $-1 #
face $-1 -1 $-1 $-1 $145 $35 $-1 $146 reversed single #
loop $-1 -1 $-1 $-1 $147 $64 #
plane-surface $-1 -1 $-1 0 0 3.5 0 0 1 1 0 0 forward_v I I I I #
loop $-1 -1 $-1 $-1 $148 $44 #
coedge $-1 -1 $-1 $98 $98 $147 $149 forward $65 $-1 #
model_id-kcp-attrib $-1 -1 $-1 $-1 $68 1 1021572284 1021572284 -1606418431 5 #
face $150 -1 $-1 $151 $152 $10 $-1 $153 reversed single #
loop $-1 -1 $-1 $154 $155 $68 #
cone-surface $-1 -1 $-1 -2.3999999999999999 0 3 1 0 0 0 0.75 0 1 I I 0 1 0.75 forward I I I I #
coedge $-1 -1 $-1 $110 $156 $112 $157 forward $69 $-1 #
coedge $-1 -1 $-1 $71 $158 $159 $160 forward $47 $-1 #
coedge $-1 -1 $-1 $161 $110 $71 $106 reversed $69 $-1 #
edge $-1 -1 $-1 $162 0 $114 3.25 $71 $163 forward @7 unknown #
coedge $-1 -1 $-1 $72 $72 $164 $165 reversed $49 $-1 #
coedge $-1 -1 $-1 $166 $167 $72 $109 forward $168 $-1 #
edge $169 -1 $-1 $170 0 $171 3.1415926535897931 $72 $172 forward @7 unknown #
coedge $-1 -1 $-1 $105 $103 $73 $111 reversed $69 $-1 #
edge $173 -1 $-1 $114 0 $115 3.1415926535897931 $73 $174 forward @7 unknown #
coedge $-1 -1 $-1 $175 $74 $103 $157 reversed $47 $-1 #
attrib_edge_convexity-kcp-attrib $-1 -1 $176 $-1 $75 1 #
vertex $-1 -1 $-1 $111 $177 #
vertex $-1 -1 $-1 $111 $178 #
ellipse-curve $-1 -1 $-1 0 0 7 0 0 -1 -1.75 0 0 1 I I #
face $-1 -1 $-1 $179 $180 $27 $-1 $181 reversed single #
loop $-1 -1 $-1 $-1 $182 $77 #
plane-surface $-1 -1 $-1 0 -2 0 0 1 0 0 0 1 forward_v I I I I #
coedge $-1 -1 $-1 $183 $184 $185 $186 forward $78 $-1 #
coedge $-1 -1 $-1 $187 $80 $188 $189 forward $53 $-1 #
coedge $-1 -1 $-1 $80 $187 $190 $191 forward $53 $-1 #
coedge $-1 -1 $-1 $192 $193 $80 $124 reversed $194 $-1 #
edge $-1 -1 $-1 $195 -2 $196 2 $123 $197 forward @7 unknown #
loop $-1 -1 $-1 $-1 $198 $81 #
plane-surface $-1 -1 $-1 0 2.0185873175002847e-017 6.5 0 0 1 1 0 0 forward_v I I I I #
coedge $-1 -1 $-1 $127 $127 $85 $129 reversed $82 $-1 #
coedge $-1 -1 $-1 $128 $128 $198 $199 reversed $84 $-1 #
edge $-1 -1 $-1 $200 0 $200 6.2831853071795862 $85 $201 forward @7 unknown #
face $-1 -1 $-1 $202 $203 $31 $-1 $60 reversed single #
loop $-1 -1 $-1 $-1 $204 $86 #
coedge $-1 -1 $-1 $205 $206 $207 $208 reversed $87 $-1 #
coedge $-1 -1 $-1 $209 $88 $210 $211 reversed $59 $-1 #
coedge $-1 -1 $-1 $88 $209 $212 $213 reversed $59 $-1 #
coedge $-1 -1 $-1 $214 $215 $216 $136 forward $217 $-1 #
edge $-1 -1 $-1 $218 -7 $219 0 $135 $220 forward @7 unknown #
face $-1 -1 $-1 $-1 $221 $33 $-1 $222 reversed single #
loop $-1 -1 $-1 $223 $224 $89 #
plane-surface $-1 -1 $-1 0.096969696969697025 -1.6653345369377348e-016 -1.25 0 0 1 1 0 0 forward_v I I I I #
loop $-1 -1 $-1 $-1 $225 $61 #
coedge $-1 -1 $-1 $141 $141 $224 $226 forward $90 $-1 #
coedge $-1 -1 $-1 $142 $142 $227 $228 reversed $92 $-1 #
coedge $-1 -1 $-1 $143 $143 $93 $144 reversed $223 $-1 #
edge $-1 -1 $-1 $229 -2.4492127076447545e-016 $229 6.2831853071795862 $93 $230 forward @7 unknown #
loop $-1 -1 $-1 $-1 $231 $94 #
plane-surface $-1 -1 $-1 0 0 3 0 0 1 1 0 0 forward_v I I I I #
coedge $-1 -1 $-1 $147 $147 $98 $149 reversed $95 $-1 #
coedge $-1 -1 $-1 $148 $148 $231 $232 reversed $97 $-1 #
edge $-1 -1 $-1 $233 0 $233 6.2831853071795862 $98 $234 forward @7 unknown #
model_id-kcp-attrib $-1 -1 $-1 $-1 $100 1 1021572284 1021572284 -1606418431 6 #
face $235 -1 $-1 $236 $237 $10 $-1 $238 reversed single #
loop $-1 -1 $-1 $-1 $239 $100 #
cone-surface $-1 -1 $-1 -2.3999999999999999 0 3 1 0 0 0 0.75 0 1 I I 0 1 0.75 forward I I I I #
loop $-1 -1 $-1 $-1 $240 $68 #
coedge $-1 -1 $-1 $241 $242 $243 $244 reversed $101 $-1 #
coedge $-1 -1 $-1 $103 $245 $242 $246 forward $69 $-1 #
edge $-1 -1 $-1 $247 0 $115 3.25 $112 $248 forward @7 unknown #
coedge $-1 -1 $-1 $104 $249 $250 $251 forward $47 $-1 #
coedge $-1 -1 $-1 $252 $241 $104 $160 reversed $101 $-1 #
edge $-1 -1 $-1 $253 0 $162 1 $104 $254 forward @7 unknown #
coedge $-1 -1 $-1 $255 $105 $241 $256 forward $69 $-1 #
vertex $-1 -1 $-1 $160 $257 #
straight-curve $-1 -1 $-1 -1.75 2.1430611191891602e-016 3.75 0 0 1 I I #
coedge $-1 -1 $-1 $258 $259 $107 $165 forward $260 $-1 #
edge $261 -1 $-1 $171 0 $170 3.1415926535897931 $107 $262 forward @7 unknown #
coedge $-1 -1 $-1 $263 $108 $259 $264 reversed $168 $-1 #
coedge $-1 -1 $-1 $108 $263 $258 $265 forward $168 $-1 #
loop $-1 -1 $-1 $-1 $166 $266 #
attrib_edge_convexity-kcp-attrib $-1 -1 $267 $-1 $109 1 #
vertex $-1 -1 $-1 $165 $268 #
vertex $-1 -1 $-1 $165 $269 #
ellipse-curve $-1 -1 $-1 5.5511151231257827e-017 -5.5511151231257827e-017 7 0 0 1 -5.5511151231257827e-017 -1.375 0 1 I I #
attrib_edge_convexity-kcp-attrib $-1 -1 $270 $-1 $111 1 #
ellipse-curve $-1 -1 $-1 0 0 7 0 0 1 -1.75 0 0 1 I I #
coedge $-1 -1 $-1 $271 $112 $272 $273 forward $47 $-1 #
convexity-sys-attrib $-1 -1 $-1 $113 $75 #
point $-1 -1 $-1 -1.75 0 7 #
point $-1 -1 $-1 1.75 0 7 #
face $-1 -1 $-1 $274 $275 $27 $-1 $276 reversed single #
loop $-1 -1 $-1 $-1 $277 $117 #
plane-surface $-1 -1 $-1 -2 0 0 1 0 0 0 0 -1 forward_v I I I I #
coedge $-1 -1 $-1 $278 $190 $279 $280 forward $118 $-1 #
coedge $-1 -1 $-1 $281 $120 $278 $282 forward $78 $-1 #
coedge $-1 -1 $-1 $120 $281 $283 $284 forward $78 $-1 #
coedge $-1 -1 $-1 $193 $192 $120 $186 reversed $194 $-1 #
edge $-1 -1 $-1 $285 -2 $286 2 $185 $287 forward @7 unknown #
coedge $-1 -1 $-1 $122 $121 $288 $289 forward $53 $-1 #
coedge $-1 -1 $-1 $290 $291 $121 $189 reversed $275 $-1 #
edge $-1 -1 $-1 $196 -2 $292 2 $188 $293 forward @7 unknown #
coedge $-1 -1 $-1 $182 $294 $122 $191 reversed $118 $-1 #
edge $-1 -1 $-1 $295 -2 $195 2 $190 $296 forward @7 unknown #
coedge $-1 -1 $-1 $185 $123 $294 $297 forward $194 $-1 #
coedge $-1 -1 $-1 $123 $185 $290 $298 reversed $194 $-1 #
loop $-1 -1 $-1 $-1 $192 $274 #
vertex $-1 -1 $-1 $124 $299 #
vertex $-1 -1 $-1 $124 $300 #
straight-curve $-1 -1 $-1 2 0 3.5 0 1 0 I I #
coedge $-1 -1 $-1 $198 $198 $128 $199 forward $125 $-1 #
edge $-1 -1 $-1 $301 -3.1415926535897931 $301 3.1415926535897931 $128 $302 forward @7 unknown #
vertex $-1 -1 $-1 $129 $303 #
ellipse-curve $-1 -1 $-1 0 0 3.5590169943749475 0 0 1 0 0.5 0 1 I I #
face $-1 -1 $-1 $304 $305 $31 $-1 $306 reversed single #
loop $-1 -1 $-1 $-1 $307 $130 #
coedge $-1 -1 $-1 $308 $309 $310 $311 reversed $131 $-1 #
coedge $-1 -1 $-1 $312 $132 $313 $314 reversed $87 $-1 #
coedge $-1 -1 $-1 $132 $312 $88 $136 forward $87 $-1 #
coedge $-1 -1 $-1 $315 $316 $132 $208 forward $317 $-1 #
edge $-1 -1 $-1 $318 -3.1415926535897931 $219 -1.5707963267948968 $207 $319 forward @7 unknown #
coedge $-1 -1 $-1 $134 $133 $309 $320 forward $59 $-1 #
coedge $-1 -1 $-1 $321 $322 $133 $211 forward $323 $-1 #
edge $-1 -1 $-1 $324 1.7797178661349555e-016 $218 1.5707963267948968 $210 $325 forward @7 unknown #
coedge $-1 -1 $-1 $326 $327 $134 $213 forward $328 $-1 #
edge $-1 -1 $-1 $219 -1.5707963267948968 $329 -1.7797178661349555e-016 $212 $319 forward @7 unknown #
coedge $-1 -1 $-1 $330 $135 $327 $331 reversed $217 $-1 #
coedge $-1 -1 $-1 $135 $330 $321 $332 reversed $217 $-1 #
coedge $-1 -1 $-1 $333 $334 $206 $136 reversed $335 $-1 #
loop $-1 -1 $-1 $-1 $135 $336 #
vertex $-1 -1 $-1 $332 $337 #
vertex $-1 -1 $-1 $338 $339 #
straight-curve $-1 -1 $-1 1.1102230246251568e-016 -2 3.5 0 0 1 I I #
loop $-1 -1 $-1 $340 $341 $137 #
plane-surface $-1 -1 $-1 0.096969696969697025 -1.6653345369377348e-016 -2.5 0 0 1 1 0 0 forward_v I I I I #
loop $-1 -1 $-1 $-1 $143 $89 #
coedge $-1 -1 $-1 $224 $224 $141 $226 reversed $138 $-1 #
coedge $-1 -1 $-1 $225 $225 $341 $342 reversed $140 $-1 #
edge $-1 -1 $-1 $343 -3.1415926535897931 $343 3.1415926535897931 $141 $344 forward @7 unknown #
coedge $-1 -1 $-1 $227 $227 $142 $228 forward $340 $-1 #
edge $345 -1 $-1 $346 -3.1415926535897931 $346 3.1415926535897931 $142 $347 forward @7 unknown #
vertex $-1 -1 $-1 $144 $348 #
ellipse-curve $-1 -1 $-1 0 0 -1.25 0 0 1 1.75 0 0 1 I I #
coedge $-1 -1 $-1 $231 $231 $148 $232 forward $145 $-1 #
edge $349 -1 $-1 $350 -3.1415926535897931 $350 3.1415926535897931 $148 $351 forward @7 unknown #
vertex $-1 -1 $-1 $149 $352 #
ellipse-curve $-1 -1 $-1 0 0 3.5 0 0 -1 0 1.375 0 1 I I #
model_id-kcp-attrib $-1 -1 $-1 $-1 $151 1 1021572284 1021572284 -1606418431 7 #
face $353 -1 $-1 $354 $355 $10 $-1 $356 reversed single #
loop $-1 -1 $-1 $-1 $357 $151 #
cone-surface $-1 -1 $-1 0 0 2.7999999999999998 0 0 1 0 0.5 0 1 I I 0 1 0.5 forward I I I I #
coedge $-1 -1 $-1 $358 $359 $271 $360 reversed $152 $-1 #
coedge $-1 -1 $-1 $361 $361 $362 $363 forward $154 $-1 #
coedge $-1 -1 $-1 $159 $155 $161 $256 reversed $101 $-1 #
coedge $-1 -1 $-1 $155 $272 $156 $246 reversed $101 $-1 #
coedge $-1 -1 $-1 $359 $364 $155 $244 forward $152 $-1 #
edge $-1 -1 $-1 $365 -4.4408920985006262e-016 $366 3.1622776601683786 $155 $367 forward @7 unknown #
coedge $-1 -1 $-1 $156 $368 $359 $369 forward $69 $-1 #
edge $-1 -1 $-1 $366 0 $247 1 $156 $370 forward @7 unknown #
vertex $-1 -1 $-1 $273 $371 #
straight-curve $-1 -1 $-1 1.75 -4.2861222383783204e-016 3.75 0 0 1 I I #
coedge $-1 -1 $-1 $158 $372 $373 $374 forward $47 $-1 #
coedge $-1 -1 $-1 $364 $358 $158 $251 reversed $152 $-1 #
edge $-1 -1 $-1 $375 0 $253 1 $158 $376 forward @7 unknown #
coedge $-1 -1 $-1 $272 $159 $358 $377 forward $101 $-1 #
vertex $-1 -1 $-1 $160 $378 #
intcurve-curve $-1 -1 $-1 forward { surfintcur full nurbs 3 open 10 
	0 3 0.11024371725688574 1 0.22110761769178394 1 0.33243483369806665 1 0.4440337047939224 1 
	0.55567273660727778 1 0.66717352266562724 1 0.7784309786364213 1 0.88938199906545534 1 1 3 
	-1.5811388300841898 0.74999999999999967 3 1 
	-1.5810907413620603 0.75027849339615649 3.0401090636232491 1 
	-1.5841714373870657 0.74358072148649756 3.1210324177250048 1.0000000000000002 
	-1.5987232148666841 0.71226729126829125 3.247125567271286 1 
	-1.6223179914530934 0.65746482605368517 3.3691973877406527 0.99999999999999989 
	-1.6517946105909838 0.58044033686351137 3.4814429668732276 1 
	-1.6827876411755305 0.48439716629744134 3.5779125362670028 1.0000000000000002 
	-1.7110482508209444 0.37357204181809056 3.6549116405481228 1 
	-1.7332035416018774 0.25260645456494057 3.7103034858656079 1.0000000000000002 
	-1.7470000386915132 0.12597098034030674 3.742981285919492 1 
	-1.7499925874337106 0.042118779544037872 3.7501135503971081 1 
	-1.75 2.1430611191891602e-016 3.75 1 
	0.001 
	cone -2.3999999999999999 0 3 1 0 0 0 0.75 0 1 I I 0 1 0.75 forward I I I I 
	cone 0 0 7.3499999999999996 0 0 -1 1.75 0 0 1 I I 0 1 1.75 forward I I I I 
	nullbs 
	nullbs 
	I I 
	0 
	0 
	0 
	} I I #
coedge $-1 -1 $-1 $373 $161 $364 $379 forward $69 $-1 #
edge $-1 -1 $-1 $162 0 $365 1 $161 $380 forward @7 unknown #
point $-1 -1 $-1 -1.75 2.1430611191891602e-016 3.75 #
coedge $-1 -1 $-1 $381 $164 $167 $265 reversed $260 $-1 #
coedge $-1 -1 $-1 $164 $381 $166 $264 forward $260 $-1 #
loop $-1 -1 $-1 $-1 $258 $382 #
attrib_edge_convexity-kcp-attrib $-1 -1 $383 $-1 $165 1 #
ellipse-curve $-1 -1 $-1 -5.5511151231257827e-017 5.5511151231257827e-017 7 0 0 1 5.5511151231257827e-017 1.375 0 1 I I #
coedge $-1 -1 $-1 $167 $166 $384 $385 forward $168 $-1 #
edge $-1 -1 $-1 $386 0 $171 0.5 $259 $387 forward @7 unknown #
edge $-1 -1 $-1 $388 0 $170 0.5 $258 $389 forward @7 unknown #
face $390 -1 $-1 $382 $168 $10 $-1 $391 reversed single #
convexity-sys-attrib $-1 -1 $-1 $169 $109 #
point $-1 -1 $-1 0 -1.375 7 #
point $-1 -1 $-1 0 1.375 7 #
convexity-sys-attrib $-1 -1 $-1 $173 $111 #
coedge $-1 -1 $-1 $392 $175 $239 $360 forward $47 $-1 #
coedge $-1 -1 $-1 $242 $252 $175 $273 reversed $101 $-1 #
edge $-1 -1 $-1 $247 0 $393 1 $175 $394 forward @7 unknown #
face $-1 -1 $-1 $-1 $194 $27 $-1 $395 reversed single #
loop $-1 -1 $-1 $-1 $290 $179 #
plane-surface $-1 -1 $-1 0 2 0 0 -1 0 0 0 -1 forward_v I I I I #
coedge $-1 -1 $-1 $396 $288 $291 $397 forward $180 $-1 #
coedge $-1 -1 $-1 $294 $182 $183 $282 reversed $118 $-1 #
coedge $-1 -1 $-1 $288 $396 $182 $280 reversed $180 $-1 #
edge $-1 -1 $-1 $295 -3.5 $398 3.5 $279 $399 forward @7 unknown #
coedge $-1 -1 $-1 $184 $183 $396 $400 forward $78 $-1 #
edge $-1 -1 $-1 $286 -2 $398 2 $278 $401 forward @7 unknown #
coedge $-1 -1 $-1 $291 $290 $184 $284 reversed $275 $-1 #
edge $-1 -1 $-1 $402 -2 $285 2 $283 $403 forward @7 unknown #
vertex $-1 -1 $-1 $186 $404 #
vertex $-1 -1 $-1 $297 $405 #
straight-curve $-1 -1 $-1 2 0 -3.5 0 -1 0 I I #
coedge $-1 -1 $-1 $277 $279 $187 $289 reversed $180 $-1 #
edge $-1 -1 $-1 $292 -2 $295 2 $288 $406 forward @7 unknown #
coedge $-1 -1 $-1 $283 $188 $193 $298 forward $275 $-1 #
coedge $-1 -1 $-1 $188 $283 $277 $397 reversed $275 $-1 #
vertex $-1 -1 $-1 $189 $407 #
straight-curve $-1 -1 $-1 0 2 3.5 -1 0 0 I I #
coedge $-1 -1 $-1 $190 $278 $192 $297 reversed $118 $-1 #
vertex $-1 -1 $-1 $289 $408 #
straight-curve $-1 -1 $-1 0 -2 3.5 1 0 0 I I #
edge $-1 -1 $-1 $195 -3.5 $286 3.5 $192 $409 forward @7 unknown #
edge $-1 -1 $-1 $196 -3.5 $285 3.5 $193 $410 forward @7 unknown #
point $-1 -1 $-1 2 -2 3.5 #
point $-1 -1 $-1 2 2 3.5 #
vertex $-1 -1 $-1 $199 $411 #
ellipse-curve $-1 -1 $-1 0 0 6.5 0 0 1 0 0.5 0 1 I I #
point $-1 -1 $-1 0 0.5 3.5590169943749475 #
face $-1 -1 $-1 $412 $335 $31 $-1 $413 reversed single #
loop $-1 -1 $-1 $-1 $414 $202 #
plane-surface $-1 -1 $-1 -2 0 0 1 0 0 0 0 -1 forward_v I I I I #
coedge $-1 -1 $-1 $415 $416 $417 $418 reversed $203 $-1 #
coedge $-1 -1 $-1 $419 $204 $416 $420 forward $131 $-1 #
coedge $-1 -1 $-1 $204 $419 $421 $320 reversed $131 $-1 #
coedge $-1 -1 $-1 $422 $423 $204 $311 forward $424 $-1 #
edge $-1 -1 $-1 $425 -1.5707963267948963 $324 1.7797178661349555e-016 $310 $325 forward @7 unknown #
coedge $-1 -1 $-1 $206 $205 $426 $427 reversed $87 $-1 #
coedge $-1 -1 $-1 $428 $429 $430 $314 forward $431 $-1 #
edge $-1 -1 $-1 $432 -7 $318 0 $313 $433 forward @7 unknown #
coedge $-1 -1 $-1 $316 $207 $334 $338 forward $317 $-1 #
coedge $-1 -1 $-1 $207 $315 $428 $434 forward $317 $-1 #
loop $-1 -1 $-1 $-1 $207 $435 #
vertex $-1 -1 $-1 $436 $437 #
ellipse-curve $-1 -1 $-1 1.1102230246251568e-016 -1.1102230246251563e-016 3.5 0 0 -1 -2 3.5594357322699111e-016 0 1 I I #
edge $-1 -1 $-1 $324 -7 $329 0 $421 $438 forward @7 unknown #
coedge $-1 -1 $-1 $322 $210 $215 $332 forward $323 $-1 #
coedge $-1 -1 $-1 $210 $321 $439 $440 forward $323 $-1 #
loop $-1 -1 $-1 $-1 $210 $441 #
vertex $-1 -1 $-1 $442 $443 #
ellipse-curve $-1 -1 $-1 1.1102230246251568e-016 -1.1102230246251563e-016 -3.5 0 0 1 -2 3.5594357322699111e-016 0 1 I I #
coedge $-1 -1 $-1 $327 $212 $444 $445 forward $328 $-1 #
coedge $-1 -1 $-1 $212 $326 $214 $331 forward $328 $-1 #
loop $-1 -1 $-1 $-1 $212 $446 #
vertex $-1 -1 $-1 $445 $447 #
coedge $-1 -1 $-1 $215 $214 $448 $449 forward $217 $-1 #
edge $-1 -1 $-1 $450 -2 $219 1.1102230246251568e-016 $214 $451 forward @7 unknown #
edge $-1 -1 $-1 $218 -1.1102230246251568e-016 $452 2 $215 $453 forward @7 unknown #
coedge $-1 -1 $-1 $454 $216 $455 $456 reversed $335 $-1 #
coedge $-1 -1 $-1 $216 $454 $315 $338 reversed $335 $-1 #
loop $-1 -1 $-1 $-1 $216 $304 #
face $-1 -1 $-1 $457 $217 $31 $-1 $413 reversed single #
point $-1 -1 $-1 1.1102230246251568e-016 -2 -3.5 #
edge $-1 -1 $-1 $219 1.1102230246251568e-016 $458 2 $334 $451 forward @7 unknown #
point $-1 -1 $-1 1.1102230246251568e-016 -2 3.5 #
loop $-1 -1 $-1 $-1 $227 $137 #
coedge $-1 -1 $-1 $341 $341 $225 $342 forward $221 $-1 #
edge $459 -1 $-1 $460 -3.1415926535897931 $460 3.1415926535897931 $225 $461 forward @7 unknown #
vertex $-1 -1 $-1 $226 $462 #
ellipse-curve $-1 -1 $-1 1.1102230246251568e-016 -1.1102230246251563e-016 -1.25 0 0 -1 -2 3.5594357322699111e-016 0 1 I I #
convexity-sys-attrib $-1 -1 $-1 $-1 $228 #
vertex $-1 -1 $-1 $228 $463 #
ellipse-curve $-1 -1 $-1 0 0 -2.5 0 0 1 1.75 0 0 1 I I #
point $-1 -1 $-1 1.75 -4.2861222383783204e-016 -1.25 #
convexity-sys-attrib $-1 -1 $-1 $-1 $232 #
vertex $-1 -1 $-1 $232 $464 #
ellipse-curve $-1 -1 $-1 0 0 3 0 0 -1 0 1.375 0 1 I I #
point $-1 -1 $-1 0 1.375 3.5 #
model_id-kcp-attrib $-1 -1 $-1 $-1 $236 1 1021572284 1021572284 -1606418431 8 #
face $465 -1 $-1 $266 $466 $10 $-1 $467 forward single #
loop $-1 -1 $-1 $-1 $468 $236 #
cone-surface $-1 -1 $-1 0 0 2.7999999999999998 0 0 1 0 0.5 0 1 I I 0 1 0.5 forward I I I I #
coedge $-1 -1 $-1 $469 $362 $470 $471 forward $237 $-1 #
coedge $-1 -1 $-1 $250 $239 $252 $377 reversed $152 $-1 #
coedge $-1 -1 $-1 $239 $243 $245 $369 reversed $152 $-1 #
edge $-1 -1 $-1 $393 0 $472 0.99999999999999989 $271 $473 forward @7 unknown #
coedge $-1 -1 $-1 $240 $240 $474 $475 forward $154 $-1 #
coedge $-1 -1 $-1 $357 $476 $240 $363 reversed $237 $-1 #
edge $-1 -1 $-1 $477 0 $478 1 $240 $479 forward @7 unknown #
coedge $-1 -1 $-1 $243 $250 $255 $379 reversed $152 $-1 #
vertex $-1 -1 $-1 $379 $480 #
vertex $-1 -1 $-1 $246 $481 #
straight-curve $-1 -1 $-1 -1.5811388300841889 -0.75 3 1 0 0 I I #
coedge $-1 -1 $-1 $245 $482 $392 $483 forward $69 $-1 #
edge $-1 -1 $-1 $472 0 $366 1 $245 $484 forward @7 unknown #
intcurve-curve $-1 -1 $-1 forward { surfintcur full nurbs 3 open 10 
	0 3 0.11024774859024858 1 0.22111472766653331 1 0.33244048899744605 1 0.44403525713749348 1 
	0.55567110934985087 1 0.6671728509748539 1 0.77843317787861965 1 0.88938608758814552 1 1 3 
	1.5811388300841898 -0.74999999999999989 3 1 
	1.5810911095712794 -0.75027794090780997 3.0401272841379319 1 
	1.584173536778281 -0.74357636098122848 3.1210794246742846 0.99999999999999989 
	1.598736854708384 -0.71223722299485881 3.247214884052938 1.0000000000000002 
	1.6223327633473679 -0.65742809517401724 3.3692570135264521 0.99999999999999978 
	1.6517987058364734 -0.5804265099073882 3.4814540864726324 0.99999999999999989 
	1.6827814468155462 -0.48441762154331375 3.5778943231089548 1.0000000000000002 
	1.7110467006048018 -0.37358161921456695 3.6549082721394903 0.99999999999999978 
	1.7332082458416518 -0.25258334315862802 3.7103150222632291 1 
	1.7470036518914474 -0.12591095862972002 3.7429897164408668 1 
	1.7499941429058206 -0.042091960966887422 3.7501171608503912 1 
	1.75 -4.2861222383783204e-016 3.75 1 
	0.001 
	cone -2.3999999999999999 0 3 1 0 0 0 0.75 0 1 I I 0 1 0.75 forward I I I I 
	cone 0 0 7.3499999999999996 0 0 -1 1.75 0 0 1 I I 0 1 1.75 forward I I I I 
	nullbs 
	nullbs 
	I I 
	0 
	0 
	0 
	} I I #
point $-1 -1 $-1 1.75 -4.2861222383783204e-016 3.75 #
coedge $-1 -1 $-1 $249 $392 $485 $486 reversed $47 $-1 #
coedge $-1 -1 $-1 $482 $255 $249 $374 reversed $69 $-1 #
edge $-1 -1 $-1 $487 0 $375 1.25 $249 $488 forward @7 unknown #
vertex $-1 -1 $-1 $251 $489 #
intcurve-curve $-1 -1 $-1 forward { surfintcur full nurbs 3 open 10 
	0 3 0.11061391241183527 1 0.22156682212134579 1 0.33282714902510857 1 0.44432889065011905 1 
	0.5559647428624851 1 0.66755951100253863 1 0.77888527233345572 1 0.88975225140974501 1 1 3 
	-1.75 2.1430611191891602e-016 2.25 1 
	-1.7499941429058223 0.042091960966800859 2.2498828391496062 0.99999999999999978 
	-1.7470036518914587 0.12591095862948912 2.2570102835591088 0.99999999999999978 
	-1.7332082458417095 0.25258334315821529 2.2896849777366337 1 
	-1.7110467006048919 0.37358161921416755 2.3450917278602779 1 
	-1.6827814468156252 0.48441762154304768 2.422105676890812 1.0000000000000002 
	-1.6517987058365293 0.58042650990723377 2.5185459135271744 0.99999999999999978 
	-1.6223327633474036 0.65742809517393053 2.6307429864733893 1 
	-1.5987368547084022 0.71223722299481962 2.7527851159469354 1.0000000000000002 
	-1.5841735367782857 0.74357636098121849 2.8789205753256355 0.99999999999999978 
	-1.5810911095712803 0.75027794090780853 2.9598727158620379 1 
	-1.5811388300841898 0.74999999999999967 3 1 
	0.001 
	cone -2.3999999999999999 0 3 1 0 0 0 0.75 0 1 I I 0 1 0.75 forward I I I I 
	cone 0 0 7.3499999999999996 0 0 -1 1.75 0 0 1 I I 0 1 1.75 forward I I I I 
	nullbs 
	nullbs 
	I I 
	0 
	0 
	0 
	} I I #
edge $-1 -1 $-1 $253 -2.2204460492503131e-016 $393 3.1622776601683791 $252 $490 forward @7 unknown #
point $-1 -1 $-1 -1.5811388300841898 0.74999999999999967 3 #
edge $-1 -1 $-1 $365 0 $375 1 $255 $491 forward @7 unknown #
intcurve-curve $-1 -1 $-1 forward { surfintcur full nurbs 3 open 10 
	0 3 0.11061383043227632 1 0.22156613005828393 1 0.33282646684557649 1 0.44432854064958383 1 
	0.55596471669724301 1 0.66755951792239054 1 0.77888522087898626 1 0.8897521426768118 1 1 3 
	-1.75 2.1430611191891602e-016 3.75 1 
	-1.7499940173968396 -0.042092502338999117 3.7501168484955687 1 
	-1.7470034901017042 -0.12591149726607292 3.7429893289800762 1.0000000000000002 
	-1.7332094959225532 -0.25257375055537812 3.7103180179531265 0.99999999999999967 
	-1.7110483682759245 -0.37357458306492919 3.6549126219680934 0.99999999999999978 
	-1.6827823976655054 -0.48441460381551388 3.5778972259860922 1.0000000000000002 
	-1.651798621192291 -0.58042683714052012 3.4814539047284803 0.99999999999999989 
	-1.6223327523474558 -0.65742808516376394 3.3692569152676244 1.0000000000000002 
	-1.5987369626057075 -0.71223698410054481 3.2472153520458975 1 
	-1.5841736454066841 -0.74357612966065989 3.1210810586144189 1 
	-1.5810911553861939 -0.75027784475141257 3.0401280085727334 1 
	-1.5811388300841893 -0.75000000000000067 3 1 
	0.001 
	cone -2.3999999999999999 0 3 1 0 0 0 0.75 0 1 I I 0 1 0.75 forward I I I I 
	cone 0 0 7.3499999999999996 0 0 -1 1.75 0 0 1 I I 0 1 1.75 forward I I I I 
	nullbs 
	nullbs 
	I I 
	0 
	0 
	0 
	} I I #
coedge $-1 -1 $-1 $259 $258 $492 $493 reversed $260 $-1 #
face $494 -1 $-1 $495 $260 $10 $-1 $496 reversed single #
convexity-sys-attrib $-1 -1 $-1 $261 $165 #
coedge $-1 -1 $-1 $492 $492 $263 $385 reversed $466 $-1 #
edge $497 -1 $-1 $386 0 $388 3.1415926535897931 $384 $498 forward @7 unknown #
vertex $-1 -1 $-1 $493 $499 #
straight-curve $-1 -1 $-1 0 1.375 6.5 0 0 1 I I #
vertex $-1 -1 $-1 $493 $500 #
straight-curve $-1 -1 $-1 1.6838337365057687e-016 -1.375 6.5 0 0 1 I I #
model_id-kcp-attrib $-1 -1 $-1 $-1 $266 1 1021572284 1021572284 -1606418431 10 #
cone-surface $-1 -1 $-1 0 0 2.7999999999999998 0 0 1 0 1.375 0 1 I I 0 1 1.375 forward I I I I #
coedge $-1 -1 $-1 $372 $271 $368 $483 reversed $47 $-1 #
vertex $-1 -1 $-1 $360 $501 #
intcurve-curve $-1 -1 $-1 forward { surfintcur full nurbs 3 open 10 
	0 3 0.11061788310083173 1 0.22156827261251086 1 0.33282574529548459 1 0.44432691193548735 1 
	0.55596632873348917 1 0.66756523205147478 1 0.77889237355168806 1 0.88975620038726688 1 1 3 
	1.75 0 3.75 1 
	1.7499924665110898 0.042119148124308892 3.7501132474671413 0.99999999999999989 
	1.7469998985123625 0.12597107604780769 3.7429809487674555 1 
	1.7332048883263871 0.25259618697979985 3.7103067142946862 1 
	1.7110500489828693 0.37356444357120039 3.6549163295964529 0.99999999999999989 
	1.6827886121259903 0.48439413508100021 3.577915526489198 1 
	1.651794331194206 0.58044122714030089 3.4814421453080935 1 
	1.6223178461612571 0.65746513420257047 3.3691966806883871 1.0000000000000002 
	1.5987232509721538 0.71226721162847018 3.2471255573971347 0.99999999999999978 
	1.5841715275555179 0.74358052879463565 3.1210337161428598 1 
	1.5810907837734076 0.75027840310418925 3.0401096625005026 0.99999999999999978 
	1.5811388300841898 0.74999999999999989 3 1 
	0.001 
	cone -2.3999999999999999 0 3 1 0 0 0 0.75 0 1 I I 0 1 0.75 forward I I I I 
	cone 0 0 7.3499999999999996 0 0 -1 1.75 0 0 1 I I 0 1 1.75 forward I I I I 
	nullbs 
	nullbs 
	I I 
	0 
	0 
	0 
	} I I #
plane-surface $-1 -1 $-1 2 0 0 -1 0 0 0 0 1 forward_v I I I I #
coedge $-1 -1 $-1 $279 $277 $281 $400 reversed $180 $-1 #
edge $-1 -1 $-1 $292 -3.5 $402 3.5 $291 $502 forward @7 unknown #
vertex $-1 -1 $-1 $400 $503 #
straight-curve $-1 -1 $-1 -2 -2 0 0 0 -1 I I #
edge $-1 -1 $-1 $398 -2 $402 2 $396 $504 forward @7 unknown #
straight-curve $-1 -1 $-1 0 -2 -3.5 -1 0 0 I I #
vertex $-1 -1 $-1 $284 $505 #
straight-curve $-1 -1 $-1 0 2 -3.5 1 0 0 I I #
point $-1 -1 $-1 2 2 -3.5 #
point $-1 -1 $-1 2 -2 -3.5 #
straight-curve $-1 -1 $-1 -2 0 3.5 0 -1 0 I I #
point $-1 -1 $-1 -2 2 3.5 #
point $-1 -1 $-1 -2 -2 3.5 #
straight-curve $-1 -1 $-1 2 -2 0 0 0 -1 I I #
straight-curve $-1 -1 $-1 2 2 0 0 0 -1 I I #
point $-1 -1 $-1 0 -0.5 6.5 #
face $-1 -1 $-1 $506 $507 $31 $-1 $508 reversed single #
plane-surface $-1 -1 $-1 0 -2 0 0 1 0 0 0 1 forward_v I I I I #
coedge $-1 -1 $-1 $439 $444 $209 $320 reversed $305 $-1 #
coedge $-1 -1 $-1 $509 $307 $205 $314 forward $203 $-1 #
coedge $-1 -1 $-1 $307 $509 $510 $420 reversed $203 $-1 #
coedge $-1 -1 $-1 $511 $512 $307 $418 forward $513 $-1 #
edge $-1 -1 $-1 $432 -3.1415926535897931 $425 -1.5707963267948963 $417 $325 forward @7 unknown #
coedge $-1 -1 $-1 $309 $308 $514 $515 reversed $131 $-1 #
edge $-1 -1 $-1 $425 -7 $516 0 $510 $517 forward @7 unknown #
coedge $-1 -1 $-1 $518 $519 $414 $320 forward $520 $-1 #
coedge $-1 -1 $-1 $423 $310 $519 $442 forward $424 $-1 #
coedge $-1 -1 $-1 $310 $422 $521 $522 forward $424 $-1 #
loop $-1 -1 $-1 $-1 $310 $523 #
vertex $-1 -1 $-1 $524 $525 #
coedge $-1 -1 $-1 $526 $455 $312 $427 forward $527 $-1 #
edge $-1 -1 $-1 $218 1.5707963267948968 $432 3.1415926535897931 $426 $325 forward @7 unknown #
coedge $-1 -1 $-1 $528 $313 $316 $434 reversed $431 $-1 #
coedge $-1 -1 $-1 $313 $528 $526 $529 reversed $431 $-1 #
coedge $-1 -1 $-1 $530 $531 $415 $314 reversed $507 $-1 #
loop $-1 -1 $-1 $-1 $313 $532 #
vertex $-1 -1 $-1 $529 $533 #
straight-curve $-1 -1 $-1 2 -1.1102230246251563e-016 3.5 0 0 1 I I #
edge $-1 -1 $-1 $458 -2 $318 -1.1102230246251563e-016 $428 $534 forward @7 unknown #
face $-1 -1 $-1 $446 $317 $31 $-1 $535 forward single #
edge $-1 -1 $-1 $318 -1.1102230246251563e-016 $536 2 $531 $534 forward @7 unknown #
point $-1 -1 $-1 2 -1.1102230246251563e-016 3.5 #
straight-curve $-1 -1 $-1 -1.9999999999999998 -1.1102230246251563e-016 3.5 0 0 1 I I #
coedge $-1 -1 $-1 $448 $414 $322 $440 reversed $305 $-1 #
edge $-1 -1 $-1 $452 -2 $324 -1.1102230246251563e-016 $439 $537 forward @7 unknown #
face $-1 -1 $-1 $538 $323 $31 $-1 $539 reversed single #
edge $-1 -1 $-1 $324 -1.1102230246251563e-016 $540 2 $519 $537 forward @7 unknown #
point $-1 -1 $-1 -1.9999999999999998 -1.1102230246251563e-016 -3.5 #
coedge $-1 -1 $-1 $414 $448 $326 $445 reversed $305 $-1 #
edge $-1 -1 $-1 $329 1.1102230246251563e-016 $450 2 $444 $541 forward @7 unknown #
face $-1 -1 $-1 $542 $328 $31 $-1 $535 forward single #
point $-1 -1 $-1 -1.9999999999999998 -1.1102230246251563e-016 3.5 #
coedge $-1 -1 $-1 $444 $439 $330 $449 reversed $305 $-1 #
edge $-1 -1 $-1 $450 -3.5 $452 3.5 $448 $543 forward @7 unknown #
vertex $-1 -1 $-1 $445 $544 #
straight-curve $-1 -1 $-1 0 -2 3.5 1 0 0 I I #
vertex $-1 -1 $-1 $440 $545 #
straight-curve $-1 -1 $-1 0 -2 -3.5 -1 0 0 I I #
coedge $-1 -1 $-1 $334 $333 $528 $546 reversed $335 $-1 #
coedge $-1 -1 $-1 $426 $526 $333 $456 forward $527 $-1 #
edge $-1 -1 $-1 $547 -2 $218 -1.1102230246251568e-016 $333 $453 forward @7 unknown #
face $-1 -1 $-1 $548 $520 $31 $-1 $306 reversed single #
vertex $-1 -1 $-1 $434 $549 #
convexity-sys-attrib $-1 -1 $-1 $-1 $342 #
vertex $-1 -1 $-1 $342 $550 #
ellipse-curve $-1 -1 $-1 1.1102230246251568e-016 -1.1102230246251563e-016 -2.5 0 0 -1 -2 3.5594357322699111e-016 0 1 I I #
point $-1 -1 $-1 2 -7.1188714645398221e-016 -1.25 #
point $-1 -1 $-1 -1.75 2.1430611191891602e-016 -2.5 #
point $-1 -1 $-1 -1.6838337365057687e-016 -1.375 3 #
model_id-kcp-attrib $-1 -1 $-1 $-1 $354 1 1021572284 1021572284 -1606418431 9 #
loop $-1 -1 $-1 $551 $384 $354 #
plane-surface $-1 -1 $-1 0 0 6.5 0 0 1 0 1 0 forward_v I I I I #
coedge $-1 -1 $-1 $552 $474 $476 $553 forward $355 $-1 #
coedge $-1 -1 $-1 $476 $357 $554 $555 reversed $237 $-1 #
coedge $-1 -1 $-1 $474 $552 $357 $471 reversed $355 $-1 #
edge $-1 -1 $-1 $477 4.4408920985006262e-016 $556 2.940983005625053 $470 $557 forward @7 unknown #
vertex $-1 -1 $-1 $483 $558 #
intcurve-curve $-1 -1 $-1 forward { surfintcur full nurbs 3 open 10 
	0 3 0.11024785732318285 1 0.22111477912100275 1 0.33244048207759258 1 0.44403528330273334 1 
	0.55567145935038553 1 0.66717353315438699 1 0.77843386994167951 1 0.88938616956769734 1 0.99999999999999989 3 
	1.5811388300841898 0.74999999999999989 3 1 
	1.5810911553861939 0.7502778447514119 2.9598719914272884 1.0000000000000002 
	1.5841736454066808 0.74357612966066666 2.8789189413856437 0.99999999999999978 
	1.59873696260569 0.712236984100584 2.7527846479542273 1.0000000000000002 
	1.6223327523474171 0.65742808516385798 2.6307430847325497 1 
	1.651798621192228 0.58042683714069321 2.5185460952717356 1.0000000000000002 
	1.6827823976654253 0.48441460381578749 2.4221027740141445 1 
	1.7110483682758397 0.37357458306530872 2.345087378032126 1 
	1.7332094959224904 0.25257375055580206 2.2896819820470249 1 
	1.7470034901016869 0.12591149726641246 2.2570106710199642 1 
	1.7499940173968351 0.042092502339134606 2.2498831515044415 1.0000000000000002 
	1.75 0 2.25 1 
	0.001 
	cone -2.3999999999999999 0 3 1 0 0 0 0.75 0 1 I I 0 1 0.75 forward I I I I 
	cone 0 0 7.3499999999999996 0 0 -1 1.75 0 0 1 I I 0 1 1.75 forward I I I I 
	nullbs 
	nullbs 
	I I 
	0 
	0 
	0 
	} I I #
coedge $-1 -1 $-1 $468 $470 $361 $475 reversed $355 $-1 #
edge $-1 -1 $-1 $478 0 $477 1 $361 $559 forward @7 unknown #
coedge $-1 -1 $-1 $362 $469 $468 $553 reversed $237 $-1 #
vertex $-1 -1 $-1 $475 $560 #
vertex $-1 -1 $-1 $475 $561 #
intcurve-curve $-1 -1 $-1 forward { surfintcur full nurbs 3 open 18 
	0 3 0.058330730828335862 1 0.11703847403371509 1 0.1760004932466622 1 0.23511467692773838 1 
	0.29424979428098164 1 0.35328890379726269 1 0.41214919532036626 1 0.47077699420078029 1 0.52921553045861569 1 
	0.58784036079656021 1 0.64669855610397853 1 0.70573696717765022 1 0.76487065961270284 1 0.82398279472884406 1 
	0.88294478915291053 1 0.94165689612757453 1 1 3 
	0 -0.5 3.5590169943749475 1 
	0.025865488117294347 -0.50044598188466738 3.558787363842896 1 
	0.079365916268650152 -0.4959673729724105 3.5625997019672693 1 
	0.16860497463549073 -0.47392633549877489 3.5817521267851542 1 
	0.25516814857817327 -0.4335877576875376 3.6129504302639464 0.99999999999999978 
	0.33467791166891486 -0.37583377123387968 3.6505195833671897 1 
	0.40170357986077088 -0.30310595264515222 3.6878316401452369 1.0000000000000002 
	0.45270917209555472 -0.21946627919846046 3.7190985407100934 1 
	0.48574162083746741 -0.13025627680337951 3.7405065366630641 1.0000000000000002 
	0.50068878545700968 -0.041225064895385161 3.7504581906111447 0.99999999999999978 
	0.50070108737785746 0.041021351802239953 3.7504664472853793 0.99999999999999989 
	0.48581681724841136 0.12995174427107462 3.740556352686971 1.0000000000000002 
	0.45286798041907295 0.21913669250543774 3.7191994564654172 0.99999999999999978 
	0.4019221258395097 0.3028156096397262 3.6879605169769429 1.0000000000000002 
	0.33497255461483322 0.37556521429555045 3.6506746226255991 0.99999999999999978 
	0.25557347455009266 0.43334504871891572 3.613123378632213 1.0000000000000002 
	0.169068693235188 0.4737605652328335 3.5818904407249135 1 
	0.079766879329668777 0.49592096580479716 3.5626413217642749 1.0000000000000002 
	0.026025829578788209 0.50043434449944313 3.5587993224857559 0.99999999999999989 
	0 0.49999999999999978 3.5590169943749475 1 
	0.001 
	cone -2.3999999999999999 0 3 1 0 0 0 0.75 0 1 I I 0 1 0.75 forward I I I I 
	cone 0 0 2.7999999999999998 0 0 1 0 0.5 0 1 I I 0 1 0.5 forward I I I I 
	nullbs 
	nullbs 
	I I 
	0 
	0 
	0 
	} I I #
point $-1 -1 $-1 -1.5811388300841893 -0.75000000000000067 3 #
point $-1 -1 $-1 1.5811388300841898 -0.74999999999999989 3 #
coedge $-1 -1 $-1 $368 $373 $562 $563 forward $69 $-1 #
edge $-1 -1 $-1 $564 0 $472 1.25 $392 $565 forward @7 unknown #
intcurve-curve $-1 -1 $-1 forward { surfintcur full nurbs 3 open 10 
	0 3 0.11061800093447791 1 0.2215690213634581 1 0.33282647733424209 1 0.44432726339261686 1 
	0.55596629520600149 1 0.66756516630187768 1 0.77889238230817637 1 0.88975628274309104 1 1 3 
	1.75 -4.2861222383783204e-016 2.25 1 
	1.7499925874337157 -0.042118779543740409 2.2498864496028825 1 
	1.7470000386915494 -0.12597098033951074 2.2570187140804241 1.0000000000000002 
	1.7332035416020799 -0.25260645456349756 2.2896965141339054 0.99999999999999989 
	1.7110482508212548 -0.37357204181670434 2.3450883594510725 1 
	1.6827876411758091 -0.48439716629651125 2.4220874637321836 1 
	1.6517946105911818 -0.5804403368629637 2.5185570331260867 0.99999999999999989 
	1.6223179914532218 -0.65746482605337586 2.6308026122587731 1.0000000000000002 
	1.5987232148667514 -0.71226729126814359 2.752874432728265 0.99999999999999989 
	1.5841714373870819 -0.74358072148646392 2.8789675822747043 1 
	1.581090741362063 -0.75027849339615249 2.959890936376643 1 
	1.5811388300841898 -0.74999999999999989 3 1 
	0.001 
	cone -2.3999999999999999 0 3 1 0 0 0 0.75 0 1 I I 0 1 0.75 forward I I I I 
	cone 0 0 7.3499999999999996 0 0 -1 1.75 0 0 1 I I 0 1 1.75 forward I I I I 
	nullbs 
	nullbs 
	I I 
	0 
	0 
	0 
	} I I #
coedge $-1 -1 $-1 $562 $562 $372 $486 forward $566 $-1 #
edge $567 -1 $-1 $487 0 $564 3.1415926535897931 $485 $568 forward @7 unknown #
vertex $-1 -1 $-1 $563 $569 #
straight-curve $-1 -1 $-1 -1.75 2.1430611191891602e-016 1 0 0 1 I I #
point $-1 -1 $-1 -1.75 2.1430611191891602e-016 2.25 #
straight-curve $-1 -1 $-1 -1.5811388300841895 0.75 3 1 0 0 I I #
intcurve-curve $-1 -1 $-1 forward { surfintcur full nurbs 3 open 10 
	0 3 0.11024379961270149 1 0.22110762644825543 1 0.33243476794844379 1 0.44403367126639876 1 
	0.55567308806435878 1 0.66717425470432645 1 0.77843172738731192 1 0.88938211689906432 1 1 3 
	-1.5811388300841893 -0.75000000000000067 3 1 
	-1.5810907837734045 -0.75027840310419369 2.9598903374996408 0.99999999999999978 
	-1.5841715275554966 -0.74358052879467973 2.8789662838575336 0.99999999999999989 
	-1.5987232509720593 -0.71226721162867701 2.7528744426035088 1 
	-1.6223178461610692 -0.65746513420302399 2.6308033193124558 1 
	-1.6517943311939141 -0.5804412271411078 2.5185578546929195 1 
	-1.6827886121255842 -0.48439413508236251 2.4220844735119891 1 
	-1.7110500489824227 -0.37356444357319352 2.3450836704047044 1 
	-1.7332048883260893 -0.25259618698190905 2.2896932857060324 1 
	-1.746999898512303 -0.12597107604907132 2.2570190512326826 1 
	-1.7499924665110786 -0.042119148124789389 2.2498867525328774 1.0000000000000002 
	-1.75 2.1430611191891602e-016 2.25 1 
	0.001 
	cone -2.3999999999999999 0 3 1 0 0 0 0.75 0 1 I I 0 1 0.75 forward I I I I 
	cone 0 0 7.3499999999999996 0 0 -1 1.75 0 0 1 I I 0 1 1.75 forward I I I I 
	nullbs 
	nullbs 
	I I 
	0 
	0 
	0 
	} I I #
coedge $-1 -1 $-1 $384 $384 $381 $493 forward $466 $-1 #
edge $570 -1 $-1 $386 0 $388 3.1415926535897931 $492 $571 forward @7 unknown #
model_id-kcp-attrib $-1 -1 $-1 $-1 $382 1 1021572284 1021572284 -1606418431 11 #
face $572 -1 $-1 $573 $574 $10 $-1 $575 reversed single #
cone-surface $-1 -1 $-1 0 0 2.7999999999999998 0 0 1 0 1.375 0 1 I I 0 1 1.375 forward I I I I #
attrib_edge_convexity-kcp-attrib $-1 -1 $576 $-1 $385 2 #
ellipse-curve $-1 -1 $-1 5.5511151231257827e-017 1.1102230246251565e-016 6.5 0 0 -1 -5.5511151231257827e-017 1.375 0 1 I I #
point $-1 -1 $-1 0 1.375 6.5 #
point $-1 -1 $-1 -1.6838337365057687e-016 -1.375 6.5 #
point $-1 -1 $-1 1.5811388300841898 0.74999999999999989 3 #
straight-curve $-1 -1 $-1 -2 2 0 0 0 -1 I I #
point $-1 -1 $-1 -2 -2 -3.5 #
straight-curve $-1 -1 $-1 -2 0 -3.5 0 1 0 I I #
point $-1 -1 $-1 -2 2 -3.5 #
face $-1 -1 $-1 $435 $577 $31 $-1 $535 forward single #
loop $-1 -1 $-1 $-1 $430 $412 #
plane-surface $-1 -1 $-1 2 0 0 -1 0 0 0 0 1 forward_v I I I I #
coedge $-1 -1 $-1 $416 $415 $578 $579 reversed $203 $-1 #
coedge $-1 -1 $-1 $580 $581 $582 $420 forward $583 $-1 #
coedge $-1 -1 $-1 $512 $417 $581 $524 forward $513 $-1 #
coedge $-1 -1 $-1 $417 $511 $530 $584 forward $513 $-1 #
loop $-1 -1 $-1 $-1 $417 $585 #
coedge $-1 -1 $-1 $586 $587 $419 $515 forward $588 $-1 #
edge $-1 -1 $-1 $329 -1.7797178661349555e-016 $516 1.5707963267948963 $514 $319 forward @7 unknown #
vertex $-1 -1 $-1 $589 $590 #
straight-curve $-1 -1 $-1 1.1102230246251568e-016 2 3.5 0 0 1 I I #
coedge $-1 -1 $-1 $591 $421 $587 $592 reversed $520 $-1 #
coedge $-1 -1 $-1 $421 $591 $422 $442 reversed $520 $-1 #
loop $-1 -1 $-1 $-1 $421 $457 #
coedge $-1 -1 $-1 $593 $582 $423 $522 reversed $594 $-1 #
edge $-1 -1 $-1 $540 -2 $425 1.1102230246251568e-016 $521 $595 forward @7 unknown #
face $-1 -1 $-1 $441 $424 $31 $-1 $539 reversed single #
edge $-1 -1 $-1 $425 1.1102230246251568e-016 $596 2 $581 $595 forward @7 unknown #
point $-1 -1 $-1 1.1102230246251568e-016 2 -3.5 #
coedge $-1 -1 $-1 $455 $426 $429 $529 forward $527 $-1 #
loop $-1 -1 $-1 $-1 $426 $538 #
coedge $-1 -1 $-1 $429 $428 $454 $546 forward $431 $-1 #
edge $-1 -1 $-1 $432 1.1102230246251563e-016 $547 2 $429 $597 forward @7 unknown #
coedge $-1 -1 $-1 $598 $430 $512 $584 reversed $507 $-1 #
coedge $-1 -1 $-1 $430 $598 $599 $436 reversed $507 $-1 #
face $-1 -1 $-1 $-1 $431 $31 $-1 $508 reversed single #
point $-1 -1 $-1 2 -1.1102230246251563e-016 -3.5 #
straight-curve $-1 -1 $-1 2 0 3.5 0 1 0 I I #
plane-surface $-1 -1 $-1 0 0 3.5 0 0 1 1 0 0 forward_v I I I I #
vertex $-1 -1 $-1 $436 $600 #
straight-curve $-1 -1 $-1 -2 0 -3.5 0 1 0 I I #
face $-1 -1 $-1 $336 $527 $31 $-1 $539 reversed single #
plane-surface $-1 -1 $-1 0 0 -3.5 0 0 1 1 0 0 forward_v I I I I #
vertex $-1 -1 $-1 $522 $601 #
straight-curve $-1 -1 $-1 -2 0 3.5 0 -1 0 I I #
face $-1 -1 $-1 $602 $588 $31 $-1 $535 forward single #
straight-curve $-1 -1 $-1 -2 -2 0 0 0 -1 I I #
point $-1 -1 $-1 -2 -2 3.5 #
point $-1 -1 $-1 -2 -2 -3.5 #
edge $-1 -1 $-1 $458 -3.5 $547 3.5 $528 $603 forward @7 unknown #
vertex $-1 -1 $-1 $546 $604 #
face $-1 -1 $-1 $532 $583 $31 $-1 $605 reversed single #
point $-1 -1 $-1 2 -2 3.5 #
point $-1 -1 $-1 2 -7.1188714645398221e-016 -2.5 #
loop $-1 -1 $-1 $-1 $606 $354 #
coedge $-1 -1 $-1 $470 $468 $606 $607 forward $355 $-1 #
edge $-1 -1 $-1 $478 -4.4408920985006262e-016 $608 2.9409830056250521 $468 $609 forward @7 unknown #
coedge $-1 -1 $-1 $606 $606 $469 $555 forward $551 $-1 #
edge $610 -1 $-1 $608 0 $556 3.1415926535897931 $554 $611 forward @7 unknown #
vertex $-1 -1 $-1 $471 $612 #
straight-curve $-1 -1 $-1 6.1230317691118863e-017 -0.5 3.559016994374947 0 0 1 I I #
point $-1 -1 $-1 1.75 -4.2861222383783204e-016 2.25 #
intcurve-curve $-1 -1 $-1 forward { surfintcur full nurbs 3 open 18 
	0 3 0.058330356990471371 1 0.11703800896383218 1 0.1760002989352307 1 0.23511500705643498 1 
	0.29425073799471035 1 0.3532903461992144 1 0.4121507795103061 1 0.47077813884197661 1 0.52921731447094833 1 
	0.58784331913655741 1 0.64670168346414136 1 0.70573954241037695 1 0.76487248256435603 1 0.82398403662818331 1 
	0.88294560363888208 1 0.94165732754474252 1 1 3 
	0 0.49999999999999978 3.5590169943749475 1 
	-0.025860474831283509 0.50044639240283784 3.5587869553538192 1 
	-0.079353939616822924 0.49596866610805479 3.5625985252459187 1 
	-0.16859097274874774 0.47393156471728731 3.5817477982465942 1 
	-0.25516317766715069 0.43359160614819481 3.6129479013728414 1.0000000000000002 
	-0.33468514663982929 0.37582888462065461 3.6505229945273268 1 
	-0.40172051094692174 0.30308524667024994 3.687841429552237 1 
	-0.45272837904198382 0.21942931112566075 3.71911067729889 0.99999999999999989 
	-0.48575424171271436 0.13020599542174247 3.7405148806775674 0.99999999999999978 
	-0.50069031200013392 0.04119891721743385 3.7504592252371749 1.0000000000000002 
	-0.50069971514508183 -0.041070981029802216 3.7504655114955905 0.99999999999999989 
	-0.48579417982533379 -0.13004210807224875 3.7405413633352662 1.0000000000000002 
	-0.45282716857754701 -0.21921868844382505 3.7191735903307834 0.99999999999999978 
	-0.4018774139113177 -0.30287243274395792 3.6879344050531633 0.99999999999999989 
	-0.33493505557405018 -0.3755968957643005 3.6506554900436341 1 
	-0.25554382807988069 -0.43336164229874252 3.6131112405980295 1 
	-0.16904665014834927 -0.47376777625837357 3.5818843464449155 0.99999999999999989 
	-0.079753915863262789 -0.49592237686467355 3.5626400684770245 1 
	-0.026021198470242375 -0.50043440757230651 3.5587991810234083 1 
	0 -0.5 3.5590169943749475 1 
	0.001 
	cone -2.3999999999999999 0 3 1 0 0 0 0.75 0 1 I I 0 1 0.75 forward I I I I 
	cone 0 0 2.7999999999999998 0 0 1 0 0.5 0 1 I I 0 1 0.5 forward I I I I 
	nullbs 
	nullbs 
	I I 
	0 
	0 
	0 
	} I I #
point $-1 -1 $-1 0 -0.5 3.5590169943749475 #
point $-1 -1 $-1 0 0.49999999999999978 3.5590169943749475 #
coedge $-1 -1 $-1 $485 $485 $482 $563 reversed $566 $-1 #
edge $613 -1 $-1 $487 0 $564 3.1415926535897931 $562 $614 forward @7 unknown #
vertex $-1 -1 $-1 $563 $615 #
straight-curve $-1 -1 $-1 1.75 -4.2861222383783204e-016 1 0 0 1 I I #
loop $-1 -1 $-1 $-1 $485 $495 #
attrib_edge_convexity-kcp-attrib $-1 -1 $616 $-1 $486 2 #
ellipse-curve $-1 -1 $-1 0 5.5511151231257827e-017 1 0 0 -1 -1.75 1.5879496068765819e-016 0 1 I I #
point $-1 -1 $-1 -1.75 2.1430611191891602e-016 1 #
attrib_edge_convexity-kcp-attrib $-1 -1 $617 $-1 $493 2 #
ellipse-curve $-1 -1 $-1 -5.5511151231257827e-017 1.1102230246251565e-016 6.5 0 0 1 5.5511151231257827e-017 1.375 0 1 I I #
model_id-kcp-attrib $-1 -1 $-1 $-1 $495 1 1021572284 1021572284 -1606418431 12 #
face $618 -1 $-1 $619 $620 $10 $-1 $621 forward single #
loop $-1 -1 $-1 $566 $622 $495 #
plane-surface $-1 -1 $-1 0 0 1 0 0 -1 1 0 0 forward_v I I I I #
convexity-sys-attrib $-1 -1 $-1 $497 $385 #
loop $-1 -1 $-1 $-1 $578 $506 #
coedge $-1 -1 $-1 $599 $623 $509 $579 forward $577 $-1 #
edge $-1 -1 $-1 $516 1.5707963267948963 $318 3.1415926535897931 $578 $319 forward @7 unknown #
coedge $-1 -1 $-1 $624 $510 $623 $625 reversed $583 $-1 #
coedge $-1 -1 $-1 $510 $624 $511 $524 reversed $583 $-1 #
coedge $-1 -1 $-1 $521 $626 $308 $420 reversed $594 $-1 #
loop $-1 -1 $-1 $-1 $510 $548 #
edge $-1 -1 $-1 $596 -2 $432 1.1102230246251563e-016 $530 $597 forward @7 unknown #
face $-1 -1 $-1 $523 $513 $31 $-1 $539 reversed single #
coedge $-1 -1 $-1 $587 $514 $626 $589 forward $588 $-1 #
coedge $-1 -1 $-1 $514 $586 $518 $592 forward $588 $-1 #
loop $-1 -1 $-1 $-1 $514 $542 #
edge $-1 -1 $-1 $516 -1.1102230246251568e-016 $627 2 $626 $628 forward @7 unknown #
point $-1 -1 $-1 1.1102230246251568e-016 2 3.5 #
coedge $-1 -1 $-1 $519 $518 $593 $629 forward $520 $-1 #
edge $-1 -1 $-1 $627 -2 $329 1.1102230246251563e-016 $518 $541 forward @7 unknown #
coedge $-1 -1 $-1 $626 $521 $591 $629 reversed $594 $-1 #
loop $-1 -1 $-1 $-1 $582 $602 #
straight-curve $-1 -1 $-1 0 2 -3.5 1 0 0 I I #
vertex $-1 -1 $-1 $584 $630 #
straight-curve $-1 -1 $-1 2 0 -3.5 0 -1 0 I I #
coedge $-1 -1 $-1 $531 $530 $624 $631 reversed $507 $-1 #
coedge $-1 -1 $-1 $623 $578 $531 $436 forward $577 $-1 #
point $-1 -1 $-1 2 2 3.5 #
point $-1 -1 $-1 -2 2 -3.5 #
face $-1 -1 $-1 $585 $594 $31 $-1 $605 reversed single #
straight-curve $-1 -1 $-1 2 -2 0 0 0 -1 I I #
point $-1 -1 $-1 2 -2 -3.5 #
plane-surface $-1 -1 $-1 0 2 0 0 -1 0 0 0 -1 forward_v I I I I #
coedge $-1 -1 $-1 $554 $554 $552 $607 reversed $551 $-1 #
edge $632 -1 $-1 $608 0 $556 3.1415926535897931 $552 $633 forward @7 unknown #
vertex $-1 -1 $-1 $607 $634 #
straight-curve $-1 -1 $-1 0 0.5 3.5590169943749479 0 0 1 I I #
attrib_edge_convexity-kcp-attrib $-1 -1 $635 $-1 $555 1 #
ellipse-curve $-1 -1 $-1 0 0 6.5 0 0 -1 0 0.5 0 1 I I #
point $-1 -1 $-1 0 -0.5 6.5 #
attrib_edge_convexity-kcp-attrib $-1 -1 $636 $-1 $563 2 #
ellipse-curve $-1 -1 $-1 0 -5.5511151231257827e-017 1 0 0 1 -1.75 2.6981726315017385e-016 0 1 I I #
point $-1 -1 $-1 1.75 -4.2861222383783204e-016 1 #
convexity-sys-attrib $-1 -1 $-1 $567 $486 #
convexity-sys-attrib $-1 -1 $-1 $570 $493 #
model_id-kcp-attrib $-1 -1 $-1 $-1 $573 1 1021572284 1021572284 -1606418431 13 #
face $637 -1 $-1 $638 $639 $10 $-1 $640 forward single #
loop $-1 -1 $-1 $-1 $641 $573 #
cone-surface $-1 -1 $-1 0 0 7.3499999999999996 0 0 -1 2 0 0 1 I I 0 1 2 forward I I I I #
coedge $-1 -1 $-1 $642 $642 $643 $644 forward $574 $-1 #
coedge $-1 -1 $-1 $578 $599 $580 $625 forward $577 $-1 #
coedge $-1 -1 $-1 $581 $580 $598 $631 forward $583 $-1 #
edge $-1 -1 $-1 $536 -2 $516 -1.1102230246251568e-016 $580 $628 forward @7 unknown #
coedge $-1 -1 $-1 $582 $593 $586 $589 reversed $594 $-1 #
vertex $-1 -1 $-1 $589 $645 #
straight-curve $-1 -1 $-1 0 2 3.5 -1 0 0 I I #
edge $-1 -1 $-1 $627 -3.5 $540 3.5 $593 $646 forward @7 unknown #
point $-1 -1 $-1 2 2 -3.5 #
edge $-1 -1 $-1 $536 -3.5 $596 3.5 $598 $647 forward @7 unknown #
attrib_edge_convexity-kcp-attrib $-1 -1 $648 $-1 $607 1 #
ellipse-curve $-1 -1 $-1 0 0 6.5 0 0 1 0 0.5 0 1 I I #
point $-1 -1 $-1 0 0.5 6.5 #
convexity-sys-attrib $-1 -1 $-1 $610 $555 #
convexity-sys-attrib $-1 -1 $-1 $613 $563 #
model_id-kcp-attrib $-1 -1 $-1 $-1 $619 1 1021572284 1021572284 -1606418431 14 #
face $649 -1 $-1 $-1 $650 $10 $-1 $651 forward single #
loop $-1 -1 $-1 $-1 $652 $619 #
plane-surface $-1 -1 $-1 0 0 0 0 0 -1 1 0 0 forward_v I I I I #
coedge $-1 -1 $-1 $653 $654 $655 $656 forward $620 $-1 #
coedge $-1 -1 $-1 $622 $622 $657 $658 reversed $574 $-1 #
coedge $-1 -1 $-1 $654 $653 $622 $644 reversed $620 $-1 #
edge $659 -1 $-1 $660 -1.2246063538223773e-016 $661 3.1415926535897931 $622 $662 forward @7 unknown #
point $-1 -1 $-1 -2 2 3.5 #
straight-curve $-1 -1 $-1 -2 2 0 0 0 -1 I I #
straight-curve $-1 -1 $-1 2 2 0 0 0 -1 I I #
convexity-sys-attrib $-1 -1 $-1 $632 $607 #
model_id-kcp-attrib $-1 -1 $-1 $-1 $638 1 1021572284 1021572284 -1606418431 15 #
loop $-1 -1 $-1 $-1 $657 $638 #
cone-surface $-1 -1 $-1 0 0 7.3499999999999996 0 0 -1 2 0 0 1 I I 0 1 2 forward I I I I #
coedge $-1 -1 $-1 $655 $655 $663 $664 forward $639 $-1 #
coedge $-1 -1 $-1 $643 $641 $665 $666 forward $620 $-1 #
coedge $-1 -1 $-1 $641 $643 $667 $668 reversed $620 $-1 #
coedge $-1 -1 $-1 $652 $652 $641 $656 reversed $639 $-1 #
edge $-1 -1 $-1 $669 0 $670 3.1415926535897931 $655 $671 forward @7 unknown #
coedge $-1 -1 $-1 $665 $667 $642 $658 forward $650 $-1 #
edge $672 -1 $-1 $660 1.2246063538223773e-016 $661 3.1415926535897931 $657 $673 forward @7 unknown #
attrib_edge_convexity-kcp-attrib $-1 -1 $674 $-1 $644 1 #
vertex $-1 -1 $-1 $668 $675 #
vertex $-1 -1 $-1 $666 $676 #
ellipse-curve $-1 -1 $-1 0 0 1 0 0 1 -2 0 0 1 I I #
coedge $-1 -1 $-1 $667 $665 $652 $664 reversed $650 $-1 #
edge $-1 -1 $-1 $669 0 $670 3.1415926535897931 $652 $677 forward @7 unknown #
coedge $-1 -1 $-1 $663 $657 $653 $666 reversed $650 $-1 #
edge $-1 -1 $-1 $670 0 $661 1 $665 $678 forward @7 unknown #
coedge $-1 -1 $-1 $657 $663 $654 $668 forward $650 $-1 #
edge $-1 -1 $-1 $669 0 $660 1 $667 $679 forward @7 unknown #
vertex $-1 -1 $-1 $656 $680 #
vertex $-1 -1 $-1 $656 $681 #
ellipse-curve $-1 -1 $-1 2.2204460492503131e-016 -1.1102230246251565e-016 0 0 0 1 -2 3.5594357322699111e-016 0 1 I I #
attrib_edge_convexity-kcp-attrib $-1 -1 $682 $-1 $658 1 #
ellipse-curve $-1 -1 $-1 0 0 1 0 0 -1 -2 0 0 1 I I #
convexity-sys-attrib $-1 -1 $-1 $659 $644 #
point $-1 -1 $-1 -2 2.4492127076447545e-016 1 #
point $-1 -1 $-1 2 0 1 #
ellipse-curve $-1 -1 $-1 0 5.5511151231257827e-017 0 0 0 -1 -2 1.8941011953321762e-016 0 1 I I #
straight-curve $-1 -1 $-1 2 -4.898425415289509e-016 0 0 0 1 I I #
straight-curve $-1 -1 $-1 -2 2.4492127076447545e-016 0 0 0 1 I I #
point $-1 -1 $-1 -2 2.4492127076447545e-016 0 #
point $-1 -1 $-1 2 -4.898425415289509e-016 0 #
convexity-sys-attrib $-1 -1 $-1 $672 $658 #
End-of-ACIS-data 