600 0 1 0           
103 GICL Pro/E ACIS Translator - Source: f:/data5/repository/PTC/V18/bboxrev2/boombox/ptc_std128_.prt - 6 0 13 ACIS 6.0.3 NT 24 Thu Apr 04 13:41:32 2002 
1 9.9999999999999995e-007 1e-010 
body $-1 $1 $-1 $-1 #
lump $-1 $-1 $2 $0 #
shell $-1 $-1 $-1 $3 $-1 $1 #
face $-1 $4 $5 $2 $-1 $6 reversed single #
face $-1 $7 $8 $2 $-1 $9 forward single #
loop $-1 $10 $11 $3 #
plane-surface $-1 0 0 7 0 0 -1 1 0 0 forward_v I I I I #
face $-1 $12 $13 $2 $-1 $14 forward single #
loop $-1 $-1 $15 $4 #
cone-surface $-1 0 0 7.3499999999999996 0 0 -1 1.75 0 0 1 I I 0 1 1.75 forward I I I I #
loop $-1 $-1 $16 $3 #
coedge $-1 $17 $17 $18 $19 reversed $5 $-1 #
face $-1 $20 $21 $2 $-1 $22 reversed single #
loop $-1 $-1 $23 $7 #
cone-surface $-1 0 0 7.3499999999999996 0 0 -1 1.75 0 0 1 I I 0 1 1.75 forward I I I I #
coedge $-1 $18 $24 $25 $26 forward $8 $-1 #
coedge $-1 $27 $27 $28 $29 reversed $10 $-1 #
coedge $-1 $11 $11 $30 $31 forward $5 $-1 #
coedge $-1 $32 $15 $11 $19 forward $8 $-1 #
edge $-1 $33 0 $34 3.1415926535897931 $11 $35 forward 7 unknown #
face $-1 $36 $37 $2 $-1 $38 reversed single #
loop $-1 $39 $40 $12 #
cone-surface $-1 -2.3999999999999999 0 3 1 0 0 0 0.75 0 1 I I 0 1 0.75 forward I I I I #
coedge $-1 $30 $41 $32 $42 forward $13 $-1 #
coedge $-1 $15 $43 $44 $45 forward $8 $-1 #
coedge $-1 $46 $30 $15 $26 reversed $13 $-1 #
edge $-1 $47 0 $33 3.25 $15 $48 forward 7 unknown #
coedge $-1 $16 $16 $49 $50 reversed $10 $-1 #
coedge $-1 $51 $52 $16 $29 forward $53 $-1 #
edge $-1 $54 0 $55 3.1415926535897931 $16 $56 forward 7 unknown #
coedge $-1 $25 $23 $17 $31 reversed $13 $-1 #
edge $-1 $33 0 $34 3.1415926535897931 $17 $57 forward 7 unknown #
coedge $-1 $58 $18 $23 $42 reversed $8 $-1 #
vertex $-1 $31 $59 #
vertex $-1 $31 $60 #
ellipse-curve $-1 0 0 7 0 0 -1 -1.75 0 0 1 I I #
face $-1 $61 $62 $2 $-1 $63 reversed single #
loop $-1 $-1 $64 $20 #
cone-surface $-1 -2.3999999999999999 0 3 1 0 0 0 0.75 0 1 I I 0 1 0.75 forward I I I I #
loop $-1 $-1 $65 $12 #
coedge $-1 $66 $67 $68 $69 reversed $21 $-1 #
coedge $-1 $23 $70 $67 $71 forward $13 $-1 #
edge $-1 $72 0 $34 3.25 $32 $73 forward 7 unknown #
coedge $-1 $24 $74 $75 $76 forward $8 $-1 #
coedge $-1 $77 $66 $24 $45 reversed $21 $-1 #
edge $-1 $78 0 $47 1 $24 $79 forward 7 unknown #
coedge $-1 $80 $25 $66 $81 forward $13 $-1 #
vertex $-1 $45 $82 #
straight-curve $-1 -1.75 2.1430611191891602e-016 3.75 0 0 1 I I #
coedge $-1 $83 $84 $27 $50 forward $85 $-1 #
edge $-1 $55 0 $54 3.1415926535897931 $27 $86 forward 7 unknown #
coedge $-1 $87 $28 $84 $88 reversed $53 $-1 #
coedge $-1 $28 $87 $83 $89 forward $53 $-1 #
loop $-1 $-1 $51 $90 #
vertex $-1 $50 $91 #
vertex $-1 $50 $92 #
ellipse-curve $-1 5.5511151231257827e-017 -5.5511151231257827e-017 7 0 0 1 -5.5511151231257827e-017 -1.375 0 1 I I #
ellipse-curve $-1 0 0 7 0 0 1 -1.75 0 0 1 I I #
coedge $-1 $93 $32 $94 $95 forward $8 $-1 #
point $-1 -1.75 0 7 #
point $-1 1.75 0 7 #
face $-1 $96 $97 $2 $-1 $98 reversed single #
loop $-1 $-1 $99 $36 #
cone-surface $-1 0 0 2.7999999999999998 0 0 1 0 0.5 0 1 I I 0 1 0.5 forward I I I I #
coedge $-1 $100 $101 $93 $102 reversed $37 $-1 #
coedge $-1 $103 $103 $104 $105 forward $39 $-1 #
coedge $-1 $44 $40 $46 $81 reversed $21 $-1 #
coedge $-1 $40 $94 $41 $71 reversed $21 $-1 #
coedge $-1 $101 $106 $40 $69 forward $37 $-1 #
edge $-1 $107 -4.4408920985006262e-016 $108 3.1622776601683786 $40 $109 forward 7 unknown #
coedge $-1 $41 $110 $101 $111 forward $13 $-1 #
edge $-1 $108 0 $72 1 $41 $112 forward 7 unknown #
vertex $-1 $95 $113 #
straight-curve $-1 1.75 -4.2861222383783204e-016 3.75 0 0 1 I I #
coedge $-1 $43 $114 $115 $116 forward $8 $-1 #
coedge $-1 $106 $100 $43 $76 reversed $37 $-1 #
edge $-1 $117 0 $78 1 $43 $118 forward 7 unknown #
coedge $-1 $94 $44 $100 $119 forward $21 $-1 #
vertex $-1 $45 $120 #
intcurve-curve $-1 forward { surfintcur full nurbs 3 open 10 
	0 3 0.11024371725688574 1 0.22110761769178394 1 0.33243483369806665 1 0.4440337047939224 1 
	0.55567273660727778 1 0.66717352266562724 1 0.7784309786364213 1 0.88938199906545534 1 1 3 
	-1.5811388300841898 0.74999999999999967 3 1 
	-1.5810907413620603 0.75027849339615649 3.0401090636232491 1 
	-1.5841714373870657 0.74358072148649756 3.1210324177250048 1.0000000000000002 
	-1.5987232148666841 0.71226729126829125 3.247125567271286 1 
	-1.6223179914530934 0.65746482605368517 3.3691973877406527 0.99999999999999989 
	-1.6517946105909838 0.58044033686351137 3.4814429668732276 1 
	-1.6827876411755305 0.48439716629744134 3.5779125362670028 1.0000000000000002 
	-1.7110482508209444 0.37357204181809056 3.6549116405481228 1 
	-1.7332035416018774 0.25260645456494057 3.7103034858656079 1.0000000000000002 
	-1.7470000386915132 0.12597098034030674 3.742981285919492 1 
	-1.7499925874337106 0.042118779544037872 3.7501135503971081 1 
	-1.75 2.1430611191891602e-016 3.75 1 
	0.001 
	cone -2.3999999999999999 0 3 1 0 0 0 0.75 0 1 I I 0 1 0.75 forward I I I I 
	cone 0 0 7.3499999999999996 0 0 -1 1.75 0 0 1 I I 0 1 1.75 forward I I I I 
	nullbs 
	nullbs 
	I I 
	0 
	0 
	0 
	} I I #
coedge $-1 $115 $46 $106 $121 forward $13 $-1 #
edge $-1 $47 0 $107 1 $46 $122 forward 7 unknown #
point $-1 -1.75 2.1430611191891602e-016 3.75 #
coedge $-1 $123 $49 $52 $89 reversed $85 $-1 #
coedge $-1 $49 $123 $51 $88 forward $85 $-1 #
loop $-1 $-1 $83 $124 #
ellipse-curve $-1 -5.5511151231257827e-017 5.5511151231257827e-017 7 0 0 1 5.5511151231257827e-017 1.375 0 1 I I #
coedge $-1 $52 $51 $125 $126 forward $53 $-1 #
edge $-1 $127 0 $55 0.5 $84 $128 forward 7 unknown #
edge $-1 $129 0 $54 0.5 $83 $130 forward 7 unknown #
face $-1 $124 $53 $2 $-1 $131 reversed single #
point $-1 0 -1.375 7 #
point $-1 0 1.375 7 #
coedge $-1 $132 $58 $64 $102 forward $8 $-1 #
coedge $-1 $67 $77 $58 $95 reversed $21 $-1 #
edge $-1 $72 0 $133 1 $58 $134 forward 7 unknown #
face $-1 $90 $135 $2 $-1 $136 forward single #
loop $-1 $-1 $137 $61 #
cone-surface $-1 0 0 2.7999999999999998 0 0 1 0 0.5 0 1 I I 0 1 0.5 forward I I I I #
coedge $-1 $138 $104 $139 $140 forward $62 $-1 #
coedge $-1 $75 $64 $77 $119 reversed $37 $-1 #
coedge $-1 $64 $68 $70 $111 reversed $37 $-1 #
edge $-1 $133 0 $141 0.99999999999999989 $93 $142 forward 7 unknown #
coedge $-1 $65 $65 $143 $144 forward $39 $-1 #
coedge $-1 $99 $145 $65 $105 reversed $62 $-1 #
edge $-1 $146 0 $147 1 $65 $148 forward 7 unknown #
coedge $-1 $68 $75 $80 $121 reversed $37 $-1 #
vertex $-1 $121 $149 #
vertex $-1 $71 $150 #
straight-curve $-1 -1.5811388300841889 -0.75 3 1 0 0 I I #
coedge $-1 $70 $151 $132 $152 forward $13 $-1 #
edge $-1 $141 0 $108 1 $70 $153 forward 7 unknown #
intcurve-curve $-1 forward { surfintcur full nurbs 3 open 10 
	0 3 0.11024774859024858 1 0.22111472766653331 1 0.33244048899744605 1 0.44403525713749348 1 
	0.55567110934985087 1 0.6671728509748539 1 0.77843317787861965 1 0.88938608758814552 1 1 3 
	1.5811388300841898 -0.74999999999999989 3 1 
	1.5810911095712794 -0.75027794090780997 3.0401272841379319 1 
	1.584173536778281 -0.74357636098122848 3.1210794246742846 0.99999999999999989 
	1.598736854708384 -0.71223722299485881 3.247214884052938 1.0000000000000002 
	1.6223327633473679 -0.65742809517401724 3.3692570135264521 0.99999999999999978 
	1.6517987058364734 -0.5804265099073882 3.4814540864726324 0.99999999999999989 
	1.6827814468155462 -0.48441762154331375 3.5778943231089548 1.0000000000000002 
	1.7110467006048018 -0.37358161921456695 3.6549082721394903 0.99999999999999978 
	1.7332082458416518 -0.25258334315862802 3.7103150222632291 1 
	1.7470036518914474 -0.12591095862972002 3.7429897164408668 1 
	1.7499941429058206 -0.042091960966887422 3.7501171608503912 1 
	1.75 -4.2861222383783204e-016 3.75 1 
	0.001 
	cone -2.3999999999999999 0 3 1 0 0 0 0.75 0 1 I I 0 1 0.75 forward I I I I 
	cone 0 0 7.3499999999999996 0 0 -1 1.75 0 0 1 I I 0 1 1.75 forward I I I I 
	nullbs 
	nullbs 
	I I 
	0 
	0 
	0 
	} I I #
point $-1 1.75 -4.2861222383783204e-016 3.75 #
coedge $-1 $74 $132 $154 $155 reversed $8 $-1 #
coedge $-1 $151 $80 $74 $116 reversed $13 $-1 #
edge $-1 $156 0 $117 1.25 $74 $157 forward 7 unknown #
vertex $-1 $76 $158 #
intcurve-curve $-1 forward { surfintcur full nurbs 3 open 10 
	0 3 0.11061391241183527 1 0.22156682212134579 1 0.33282714902510857 1 0.44432889065011905 1 
	0.5559647428624851 1 0.66755951100253863 1 0.77888527233345572 1 0.88975225140974501 1 1 3 
	-1.75 2.1430611191891602e-016 2.25 1 
	-1.7499941429058223 0.042091960966800859 2.2498828391496062 0.99999999999999978 
	-1.7470036518914587 0.12591095862948912 2.2570102835591088 0.99999999999999978 
	-1.7332082458417095 0.25258334315821529 2.2896849777366337 1 
	-1.7110467006048919 0.37358161921416755 2.3450917278602779 1 
	-1.6827814468156252 0.48441762154304768 2.422105676890812 1.0000000000000002 
	-1.6517987058365293 0.58042650990723377 2.5185459135271744 0.99999999999999978 
	-1.6223327633474036 0.65742809517393053 2.6307429864733893 1 
	-1.5987368547084022 0.71223722299481962 2.7527851159469354 1.0000000000000002 
	-1.5841735367782857 0.74357636098121849 2.8789205753256355 0.99999999999999978 
	-1.5810911095712803 0.75027794090780853 2.9598727158620379 1 
	-1.5811388300841898 0.74999999999999967 3 1 
	0.001 
	cone -2.3999999999999999 0 3 1 0 0 0 0.75 0 1 I I 0 1 0.75 forward I I I I 
	cone 0 0 7.3499999999999996 0 0 -1 1.75 0 0 1 I I 0 1 1.75 forward I I I I 
	nullbs 
	nullbs 
	I I 
	0 
	0 
	0 
	} I I #
edge $-1 $78 -2.2204460492503131e-016 $133 3.1622776601683791 $77 $159 forward 7 unknown #
point $-1 -1.5811388300841898 0.74999999999999967 3 #
edge $-1 $107 0 $117 1 $80 $160 forward 7 unknown #
intcurve-curve $-1 forward { surfintcur full nurbs 3 open 10 
	0 3 0.11061383043227632 1 0.22156613005828393 1 0.33282646684557649 1 0.44432854064958383 1 
	0.55596471669724301 1 0.66755951792239054 1 0.77888522087898626 1 0.8897521426768118 1 1 3 
	-1.75 2.1430611191891602e-016 3.75 1 
	-1.7499940173968396 -0.042092502338999117 3.7501168484955687 1 
	-1.7470034901017042 -0.12591149726607292 3.7429893289800762 1.0000000000000002 
	-1.7332094959225532 -0.25257375055537812 3.7103180179531265 0.99999999999999967 
	-1.7110483682759245 -0.37357458306492919 3.6549126219680934 0.99999999999999978 
	-1.6827823976655054 -0.48441460381551388 3.5778972259860922 1.0000000000000002 
	-1.651798621192291 -0.58042683714052012 3.4814539047284803 0.99999999999999989 
	-1.6223327523474558 -0.65742808516376394 3.3692569152676244 1.0000000000000002 
	-1.5987369626057075 -0.71223698410054481 3.2472153520458975 1 
	-1.5841736454066841 -0.74357612966065989 3.1210810586144189 1 
	-1.5810911553861939 -0.75027784475141257 3.0401280085727334 1 
	-1.5811388300841893 -0.75000000000000067 3 1 
	0.001 
	cone -2.3999999999999999 0 3 1 0 0 0 0.75 0 1 I I 0 1 0.75 forward I I I I 
	cone 0 0 7.3499999999999996 0 0 -1 1.75 0 0 1 I I 0 1 1.75 forward I I I I 
	nullbs 
	nullbs 
	I I 
	0 
	0 
	0 
	} I I #
coedge $-1 $84 $83 $161 $162 reversed $85 $-1 #
face $-1 $163 $85 $2 $-1 $164 reversed single #
coedge $-1 $161 $161 $87 $126 reversed $135 $-1 #
edge $-1 $127 0 $129 3.1415926535897931 $125 $165 forward 7 unknown #
vertex $-1 $162 $166 #
straight-curve $-1 0 1.375 6.5 0 0 1 I I #
vertex $-1 $162 $167 #
straight-curve $-1 1.6838337365057687e-016 -1.375 6.5 0 0 1 I I #
cone-surface $-1 0 0 2.7999999999999998 0 0 1 0 1.375 0 1 I I 0 1 1.375 forward I I I I #
coedge $-1 $114 $93 $110 $152 reversed $8 $-1 #
vertex $-1 $102 $168 #
intcurve-curve $-1 forward { surfintcur full nurbs 3 open 10 
	0 3 0.11061788310083173 1 0.22156827261251086 1 0.33282574529548459 1 0.44432691193548735 1 
	0.55596632873348917 1 0.66756523205147478 1 0.77889237355168806 1 0.88975620038726688 1 1 3 
	1.75 0 3.75 1 
	1.7499924665110898 0.042119148124308892 3.7501132474671413 0.99999999999999989 
	1.7469998985123625 0.12597107604780769 3.7429809487674555 1 
	1.7332048883263871 0.25259618697979985 3.7103067142946862 1 
	1.7110500489828693 0.37356444357120039 3.6549163295964529 0.99999999999999989 
	1.6827886121259903 0.48439413508100021 3.577915526489198 1 
	1.651794331194206 0.58044122714030089 3.4814421453080935 1 
	1.6223178461612571 0.65746513420257047 3.3691966806883871 1.0000000000000002 
	1.5987232509721538 0.71226721162847018 3.2471255573971347 0.99999999999999978 
	1.5841715275555179 0.74358052879463565 3.1210337161428598 1 
	1.5810907837734076 0.75027840310418925 3.0401096625005026 0.99999999999999978 
	1.5811388300841898 0.74999999999999989 3 1 
	0.001 
	cone -2.3999999999999999 0 3 1 0 0 0 0.75 0 1 I I 0 1 0.75 forward I I I I 
	cone 0 0 7.3499999999999996 0 0 -1 1.75 0 0 1 I I 0 1 1.75 forward I I I I 
	nullbs 
	nullbs 
	I I 
	0 
	0 
	0 
	} I I #
loop $-1 $169 $125 $96 #
plane-surface $-1 0 0 6.5 0 0 1 0 1 0 forward_v I I I I #
coedge $-1 $170 $143 $145 $171 forward $97 $-1 #
coedge $-1 $145 $99 $172 $173 reversed $62 $-1 #
coedge $-1 $143 $170 $99 $140 reversed $97 $-1 #
edge $-1 $146 4.4408920985006262e-016 $174 2.940983005625053 $139 $175 forward 7 unknown #
vertex $-1 $152 $176 #
intcurve-curve $-1 forward { surfintcur full nurbs 3 open 10 
	0 3 0.11024785732318285 1 0.22111477912100275 1 0.33244048207759258 1 0.44403528330273334 1 
	0.55567145935038553 1 0.66717353315438699 1 0.77843386994167951 1 0.88938616956769734 1 0.99999999999999989 3 
	1.5811388300841898 0.74999999999999989 3 1 
	1.5810911553861939 0.7502778447514119 2.9598719914272884 1.0000000000000002 
	1.5841736454066808 0.74357612966066666 2.8789189413856437 0.99999999999999978 
	1.59873696260569 0.712236984100584 2.7527846479542273 1.0000000000000002 
	1.6223327523474171 0.65742808516385798 2.6307430847325497 1 
	1.651798621192228 0.58042683714069321 2.5185460952717356 1.0000000000000002 
	1.6827823976654253 0.48441460381578749 2.4221027740141445 1 
	1.7110483682758397 0.37357458306530872 2.345087378032126 1 
	1.7332094959224904 0.25257375055580206 2.2896819820470249 1 
	1.7470034901016869 0.12591149726641246 2.2570106710199642 1 
	1.7499940173968351 0.042092502339134606 2.2498831515044415 1.0000000000000002 
	1.75 0 2.25 1 
	0.001 
	cone -2.3999999999999999 0 3 1 0 0 0 0.75 0 1 I I 0 1 0.75 forward I I I I 
	cone 0 0 7.3499999999999996 0 0 -1 1.75 0 0 1 I I 0 1 1.75 forward I I I I 
	nullbs 
	nullbs 
	I I 
	0 
	0 
	0 
	} I I #
coedge $-1 $137 $139 $103 $144 reversed $97 $-1 #
edge $-1 $147 0 $146 1 $103 $177 forward 7 unknown #
coedge $-1 $104 $138 $137 $171 reversed $62 $-1 #
vertex $-1 $144 $178 #
vertex $-1 $144 $179 #
intcurve-curve $-1 forward { surfintcur full nurbs 3 open 18 
	0 3 0.058330730828335862 1 0.11703847403371509 1 0.1760004932466622 1 0.23511467692773838 1 
	0.29424979428098164 1 0.35328890379726269 1 0.41214919532036626 1 0.47077699420078029 1 0.52921553045861569 1 
	0.58784036079656021 1 0.64669855610397853 1 0.70573696717765022 1 0.76487065961270284 1 0.82398279472884406 1 
	0.88294478915291053 1 0.94165689612757453 1 1 3 
	0 -0.5 3.5590169943749475 1 
	0.025865488117294347 -0.50044598188466738 3.558787363842896 1 
	0.079365916268650152 -0.4959673729724105 3.5625997019672693 1 
	0.16860497463549073 -0.47392633549877489 3.5817521267851542 1 
	0.25516814857817327 -0.4335877576875376 3.6129504302639464 0.99999999999999978 
	0.33467791166891486 -0.37583377123387968 3.6505195833671897 1 
	0.40170357986077088 -0.30310595264515222 3.6878316401452369 1.0000000000000002 
	0.45270917209555472 -0.21946627919846046 3.7190985407100934 1 
	0.48574162083746741 -0.13025627680337951 3.7405065366630641 1.0000000000000002 
	0.50068878545700968 -0.041225064895385161 3.7504581906111447 0.99999999999999978 
	0.50070108737785746 0.041021351802239953 3.7504664472853793 0.99999999999999989 
	0.48581681724841136 0.12995174427107462 3.740556352686971 1.0000000000000002 
	0.45286798041907295 0.21913669250543774 3.7191994564654172 0.99999999999999978 
	0.4019221258395097 0.3028156096397262 3.6879605169769429 1.0000000000000002 
	0.33497255461483322 0.37556521429555045 3.6506746226255991 0.99999999999999978 
	0.25557347455009266 0.43334504871891572 3.613123378632213 1.0000000000000002 
	0.169068693235188 0.4737605652328335 3.5818904407249135 1 
	0.079766879329668777 0.49592096580479716 3.5626413217642749 1.0000000000000002 
	0.026025829578788209 0.50043434449944313 3.5587993224857559 0.99999999999999989 
	0 0.49999999999999978 3.5590169943749475 1 
	0.001 
	cone -2.3999999999999999 0 3 1 0 0 0 0.75 0 1 I I 0 1 0.75 forward I I I I 
	cone 0 0 2.7999999999999998 0 0 1 0 0.5 0 1 I I 0 1 0.5 forward I I I I 
	nullbs 
	nullbs 
	I I 
	0 
	0 
	0 
	} I I #
point $-1 -1.5811388300841893 -0.75000000000000067 3 #
point $-1 1.5811388300841898 -0.74999999999999989 3 #
coedge $-1 $110 $115 $180 $181 forward $13 $-1 #
edge $-1 $182 0 $141 1.25 $132 $183 forward 7 unknown #
intcurve-curve $-1 forward { surfintcur full nurbs 3 open 10 
	0 3 0.11061800093447791 1 0.2215690213634581 1 0.33282647733424209 1 0.44432726339261686 1 
	0.55596629520600149 1 0.66756516630187768 1 0.77889238230817637 1 0.88975628274309104 1 1 3 
	1.75 -4.2861222383783204e-016 2.25 1 
	1.7499925874337157 -0.042118779543740409 2.2498864496028825 1 
	1.7470000386915494 -0.12597098033951074 2.2570187140804241 1.0000000000000002 
	1.7332035416020799 -0.25260645456349756 2.2896965141339054 0.99999999999999989 
	1.7110482508212548 -0.37357204181670434 2.3450883594510725 1 
	1.6827876411758091 -0.48439716629651125 2.4220874637321836 1 
	1.6517946105911818 -0.5804403368629637 2.5185570331260867 0.99999999999999989 
	1.6223179914532218 -0.65746482605337586 2.6308026122587731 1.0000000000000002 
	1.5987232148667514 -0.71226729126814359 2.752874432728265 0.99999999999999989 
	1.5841714373870819 -0.74358072148646392 2.8789675822747043 1 
	1.581090741362063 -0.75027849339615249 2.959890936376643 1 
	1.5811388300841898 -0.74999999999999989 3 1 
	0.001 
	cone -2.3999999999999999 0 3 1 0 0 0 0.75 0 1 I I 0 1 0.75 forward I I I I 
	cone 0 0 7.3499999999999996 0 0 -1 1.75 0 0 1 I I 0 1 1.75 forward I I I I 
	nullbs 
	nullbs 
	I I 
	0 
	0 
	0 
	} I I #
coedge $-1 $180 $180 $114 $155 forward $184 $-1 #
edge $-1 $156 0 $182 3.1415926535897931 $154 $185 forward 7 unknown #
vertex $-1 $181 $186 #
straight-curve $-1 -1.75 2.1430611191891602e-016 1 0 0 1 I I #
point $-1 -1.75 2.1430611191891602e-016 2.25 #
straight-curve $-1 -1.5811388300841895 0.75 3 1 0 0 I I #
intcurve-curve $-1 forward { surfintcur full nurbs 3 open 10 
	0 3 0.11024379961270149 1 0.22110762644825543 1 0.33243476794844379 1 0.44403367126639876 1 
	0.55567308806435878 1 0.66717425470432645 1 0.77843172738731192 1 0.88938211689906432 1 1 3 
	-1.5811388300841893 -0.75000000000000067 3 1 
	-1.5810907837734045 -0.75027840310419369 2.9598903374996408 0.99999999999999978 
	-1.5841715275554966 -0.74358052879467973 2.8789662838575336 0.99999999999999989 
	-1.5987232509720593 -0.71226721162867701 2.7528744426035088 1 
	-1.6223178461610692 -0.65746513420302399 2.6308033193124558 1 
	-1.6517943311939141 -0.5804412271411078 2.5185578546929195 1 
	-1.6827886121255842 -0.48439413508236251 2.4220844735119891 1 
	-1.7110500489824227 -0.37356444357319352 2.3450836704047044 1 
	-1.7332048883260893 -0.25259618698190905 2.2896932857060324 1 
	-1.746999898512303 -0.12597107604907132 2.2570190512326826 1 
	-1.7499924665110786 -0.042119148124789389 2.2498867525328774 1.0000000000000002 
	-1.75 2.1430611191891602e-016 2.25 1 
	0.001 
	cone -2.3999999999999999 0 3 1 0 0 0 0.75 0 1 I I 0 1 0.75 forward I I I I 
	cone 0 0 7.3499999999999996 0 0 -1 1.75 0 0 1 I I 0 1 1.75 forward I I I I 
	nullbs 
	nullbs 
	I I 
	0 
	0 
	0 
	} I I #
coedge $-1 $125 $125 $123 $162 forward $135 $-1 #
edge $-1 $127 0 $129 3.1415926535897931 $161 $187 forward 7 unknown #
face $-1 $188 $189 $2 $-1 $190 reversed single #
cone-surface $-1 0 0 2.7999999999999998 0 0 1 0 1.375 0 1 I I 0 1 1.375 forward I I I I #
ellipse-curve $-1 5.5511151231257827e-017 1.1102230246251565e-016 6.5 0 0 -1 -5.5511151231257827e-017 1.375 0 1 I I #
point $-1 0 1.375 6.5 #
point $-1 -1.6838337365057687e-016 -1.375 6.5 #
point $-1 1.5811388300841898 0.74999999999999989 3 #
loop $-1 $-1 $191 $96 #
coedge $-1 $139 $137 $191 $192 forward $97 $-1 #
edge $-1 $147 -4.4408920985006262e-016 $193 2.9409830056250521 $137 $194 forward 7 unknown #
coedge $-1 $191 $191 $138 $173 forward $169 $-1 #
edge $-1 $193 0 $174 3.1415926535897931 $172 $195 forward 7 unknown #
vertex $-1 $140 $196 #
straight-curve $-1 6.1230317691118863e-017 -0.5 3.559016994374947 0 0 1 I I #
point $-1 1.75 -4.2861222383783204e-016 2.25 #
intcurve-curve $-1 forward { surfintcur full nurbs 3 open 18 
	0 3 0.058330356990471371 1 0.11703800896383218 1 0.1760002989352307 1 0.23511500705643498 1 
	0.29425073799471035 1 0.3532903461992144 1 0.4121507795103061 1 0.47077813884197661 1 0.52921731447094833 1 
	0.58784331913655741 1 0.64670168346414136 1 0.70573954241037695 1 0.76487248256435603 1 0.82398403662818331 1 
	0.88294560363888208 1 0.94165732754474252 1 1 3 
	0 0.49999999999999978 3.5590169943749475 1 
	-0.025860474831283509 0.50044639240283784 3.5587869553538192 1 
	-0.079353939616822924 0.49596866610805479 3.5625985252459187 1 
	-0.16859097274874774 0.47393156471728731 3.5817477982465942 1 
	-0.25516317766715069 0.43359160614819481 3.6129479013728414 1.0000000000000002 
	-0.33468514663982929 0.37582888462065461 3.6505229945273268 1 
	-0.40172051094692174 0.30308524667024994 3.687841429552237 1 
	-0.45272837904198382 0.21942931112566075 3.71911067729889 0.99999999999999989 
	-0.48575424171271436 0.13020599542174247 3.7405148806775674 0.99999999999999978 
	-0.50069031200013392 0.04119891721743385 3.7504592252371749 1.0000000000000002 
	-0.50069971514508183 -0.041070981029802216 3.7504655114955905 0.99999999999999989 
	-0.48579417982533379 -0.13004210807224875 3.7405413633352662 1.0000000000000002 
	-0.45282716857754701 -0.21921868844382505 3.7191735903307834 0.99999999999999978 
	-0.4018774139113177 -0.30287243274395792 3.6879344050531633 0.99999999999999989 
	-0.33493505557405018 -0.3755968957643005 3.6506554900436341 1 
	-0.25554382807988069 -0.43336164229874252 3.6131112405980295 1 
	-0.16904665014834927 -0.47376777625837357 3.5818843464449155 0.99999999999999989 
	-0.079753915863262789 -0.49592237686467355 3.5626400684770245 1 
	-0.026021198470242375 -0.50043440757230651 3.5587991810234083 1 
	0 -0.5 3.5590169943749475 1 
	0.001 
	cone -2.3999999999999999 0 3 1 0 0 0 0.75 0 1 I I 0 1 0.75 forward I I I I 
	cone 0 0 2.7999999999999998 0 0 1 0 0.5 0 1 I I 0 1 0.5 forward I I I I 
	nullbs 
	nullbs 
	I I 
	0 
	0 
	0 
	} I I #
point $-1 0 -0.5 3.5590169943749475 #
point $-1 0 0.49999999999999978 3.5590169943749475 #
coedge $-1 $154 $154 $151 $181 reversed $184 $-1 #
edge $-1 $156 0 $182 3.1415926535897931 $180 $197 forward 7 unknown #
vertex $-1 $181 $198 #
straight-curve $-1 1.75 -4.2861222383783204e-016 1 0 0 1 I I #
loop $-1 $-1 $154 $163 #
ellipse-curve $-1 0 5.5511151231257827e-017 1 0 0 -1 -1.75 1.5879496068765819e-016 0 1 I I #
point $-1 -1.75 2.1430611191891602e-016 1 #
ellipse-curve $-1 -5.5511151231257827e-017 1.1102230246251565e-016 6.5 0 0 1 5.5511151231257827e-017 1.375 0 1 I I #
face $-1 $199 $200 $2 $-1 $201 forward single #
loop $-1 $184 $202 $163 #
plane-surface $-1 0 0 1 0 0 -1 1 0 0 forward_v I I I I #
coedge $-1 $172 $172 $170 $192 reversed $169 $-1 #
edge $-1 $193 0 $174 3.1415926535897931 $170 $203 forward 7 unknown #
vertex $-1 $192 $204 #
straight-curve $-1 0 0.5 3.5590169943749479 0 0 1 I I #
ellipse-curve $-1 0 0 6.5 0 0 -1 0 0.5 0 1 I I #
point $-1 0 -0.5 6.5 #
ellipse-curve $-1 0 -5.5511151231257827e-017 1 0 0 1 -1.75 2.6981726315017385e-016 0 1 I I #
point $-1 1.75 -4.2861222383783204e-016 1 #
face $-1 $205 $206 $2 $-1 $207 forward single #
loop $-1 $-1 $208 $188 #
cone-surface $-1 0 0 7.3499999999999996 0 0 -1 2 0 0 1 I I 0 1 2 forward I I I I #
coedge $-1 $209 $209 $210 $211 forward $189 $-1 #
ellipse-curve $-1 0 0 6.5 0 0 1 0 0.5 0 1 I I #
point $-1 0 0.5 6.5 #
face $-1 $-1 $212 $2 $-1 $213 forward single #
loop $-1 $-1 $214 $199 #
plane-surface $-1 0 0 0 0 0 -1 1 0 0 forward_v I I I I #
coedge $-1 $215 $216 $217 $218 forward $200 $-1 #
coedge $-1 $202 $202 $219 $220 reversed $189 $-1 #
coedge $-1 $216 $215 $202 $211 reversed $200 $-1 #
edge $-1 $221 -1.2246063538223773e-016 $222 3.1415926535897931 $202 $223 forward 7 unknown #
loop $-1 $-1 $219 $205 #
cone-surface $-1 0 0 7.3499999999999996 0 0 -1 2 0 0 1 I I 0 1 2 forward I I I I #
coedge $-1 $217 $217 $224 $225 forward $206 $-1 #
coedge $-1 $210 $208 $226 $227 forward $200 $-1 #
coedge $-1 $208 $210 $228 $229 reversed $200 $-1 #
coedge $-1 $214 $214 $208 $218 reversed $206 $-1 #
edge $-1 $230 0 $231 3.1415926535897931 $217 $232 forward 7 unknown #
coedge $-1 $226 $228 $209 $220 forward $212 $-1 #
edge $-1 $221 1.2246063538223773e-016 $222 3.1415926535897931 $219 $233 forward 7 unknown #
vertex $-1 $229 $234 #
vertex $-1 $227 $235 #
ellipse-curve $-1 0 0 1 0 0 1 -2 0 0 1 I I #
coedge $-1 $228 $226 $214 $225 reversed $212 $-1 #
edge $-1 $230 0 $231 3.1415926535897931 $214 $236 forward 7 unknown #
coedge $-1 $224 $219 $215 $227 reversed $212 $-1 #
edge $-1 $231 0 $222 1 $226 $237 forward 7 unknown #
coedge $-1 $219 $224 $216 $229 forward $212 $-1 #
edge $-1 $230 0 $221 1 $228 $238 forward 7 unknown #
vertex $-1 $218 $239 #
vertex $-1 $218 $240 #
ellipse-curve $-1 2.2204460492503131e-016 -1.1102230246251565e-016 0 0 0 1 -2 3.5594357322699111e-016 0 1 I I #
ellipse-curve $-1 0 0 1 0 0 -1 -2 0 0 1 I I #
point $-1 -2 2.4492127076447545e-016 1 #
point $-1 2 0 1 #
ellipse-curve $-1 0 5.5511151231257827e-017 0 0 0 -1 -2 1.8941011953321762e-016 0 1 I I #
straight-curve $-1 2 -4.898425415289509e-016 0 0 0 1 I I #
straight-curve $-1 -2 2.4492127076447545e-016 0 0 0 1 I I #
point $-1 -2 2.4492127076447545e-016 0 #
point $-1 2 -4.898425415289509e-016 0 #
End-of-ACIS-data 