600 0 1 0           
103 GICL Pro/E ACIS Translator - Source: f:/data5/repository/PTC/V18/bboxrev2/boombox/ptc_res150_.prt - 6 0 13 ACIS 6.0.3 NT 24 Thu Apr 04 13:42:47 2002 
1 9.9999999999999995e-007 1e-010 
body $-1 $1 $-1 $-1 #
lump $-1 $-1 $2 $0 #
shell $-1 $-1 $-1 $3 $-1 $1 #
face $-1 $4 $5 $2 $-1 $6 reversed single #
face $-1 $7 $8 $2 $-1 $9 forward single #
loop $-1 $-1 $10 $3 #
plane-surface $-1 0 0 0 0 0 1 -1 0 0 forward_v I I I I #
face $-1 $11 $12 $2 $-1 $13 forward single #
loop $-1 $-1 $14 $4 #
cone-surface $-1 0 0 0 0 0 1 -0.099999999999999992 0 0 1 I I 0 1 0.099999999999999992 forward I I I I #
coedge $-1 $15 $15 $16 $17 reversed $5 $-1 #
face $-1 $18 $19 $2 $-1 $20 forward single #
loop $-1 $-1 $21 $7 #
cone-surface $-1 0 0 0 0 0 1 -0.099999999999999992 0 0 1 I I 0 1 0.099999999999999992 forward I I I I #
coedge $-1 $22 $16 $23 $24 forward $8 $-1 #
coedge $-1 $10 $10 $25 $26 reversed $5 $-1 #
coedge $-1 $14 $27 $10 $17 forward $8 $-1 #
edge $-1 $28 0 $29 3.1415926535897931 $10 $30 forward 7 unknown #
face $-1 $31 $32 $2 $-1 $33 forward single #
loop $-1 $-1 $34 $11 #
torus-surface $-1 0.25 0 1.75 0 1 0 0.25 0.099999999999999992 1 0 0 forward_v I I I I #
coedge $-1 $35 $25 $27 $36 forward $12 $-1 #
coedge $-1 $27 $14 $37 $38 reversed $8 $-1 #
coedge $-1 $25 $35 $14 $24 reversed $12 $-1 #
edge $-1 $29 0 $39 1.75 $23 $40 forward 7 unknown #
coedge $-1 $21 $23 $15 $26 forward $12 $-1 #
edge $-1 $29 0 $28 3.1415926535897931 $15 $41 forward 7 unknown #
coedge $-1 $16 $22 $21 $36 reversed $8 $-1 #
vertex $-1 $26 $42 #
vertex $-1 $26 $43 #
ellipse-curve $-1 0 0 0 0 0 1 0.099999999999999992 0 0 1 I I #
face $-1 $44 $45 $2 $-1 $46 forward single #
loop $-1 $-1 $47 $18 #
torus-surface $-1 0.25 0 1.75 0 1 0 0.25 0.099999999999999992 1 0 0 forward_v I I I I #
coedge $-1 $48 $49 $50 $51 forward $19 $-1 #
coedge $-1 $23 $21 $49 $52 reversed $12 $-1 #
edge $-1 $28 0 $53 1.75 $21 $54 forward 7 unknown #
coedge $-1 $47 $50 $22 $38 forward $32 $-1 #
edge $-1 $53 0 $39 3.1415926535897931 $22 $55 forward 7 unknown #
vertex $-1 $24 $56 #
straight-curve $-1 -0.099999999999999992 0 0 0 0 1 I I #
ellipse-curve $-1 0 0 0 0 0 1 -0.099999999999999992 0 0 1 I I #
point $-1 0.099999999999999992 0 0 #
point $-1 -0.099999999999999992 0 0 #
face $-1 $57 $58 $2 $-1 $59 forward single #
loop $-1 $-1 $60 $31 #
cone-surface $-1 0.25 0 2 1 0 0 0 0 0.099999999999999992 1 I I 0 1 0.099999999999999992 forward I I I I #
coedge $-1 $61 $37 $62 $63 forward $32 $-1 #
coedge $-1 $62 $34 $64 $65 reversed $19 $-1 #
coedge $-1 $34 $62 $35 $52 forward $19 $-1 #
coedge $-1 $37 $61 $34 $51 reversed $32 $-1 #
edge $-1 $53 0 $66 1.5707963267948966 $34 $67 forward 7 unknown #
edge $-1 $39 0 $53 3.1415926535897927 $35 $68 forward 7 unknown #
vertex $-1 $52 $69 #
straight-curve $-1 0.099999999999999992 -1.2246063538223771e-017 0 0 0 1 I I #
ellipse-curve $-1 0 6.9388939039072284e-018 1.75 0 0 1 0.099999999999999992 5.307169634316543e-018 0 1 I I #
point $-1 -0.099999999999999992 -2.4492127076447543e-017 1.75 #
face $-1 $70 $71 $2 $-1 $72 forward single #
loop $-1 $-1 $73 $44 #
cone-surface $-1 0.25 0 2 1 0 0 0 0 0.099999999999999992 1 I I 0 1 0.099999999999999992 forward I I I I #
coedge $-1 $74 $75 $76 $77 reversed $45 $-1 #
coedge $-1 $50 $47 $74 $78 reversed $32 $-1 #
coedge $-1 $49 $48 $47 $63 reversed $19 $-1 #
edge $-1 $39 0 $79 1.5707963267948966 $62 $80 forward 7 unknown #
coedge $-1 $76 $73 $48 $65 forward $58 $-1 #
edge $-1 $79 2.4492127076447521e-016 $66 3.1415926535897931 $48 $81 forward 7 unknown #
vertex $-1 $65 $82 #
ellipse-curve $-1 0.25 1.2246063538223771e-017 1.75 0 1 0 -0.15000000000000002 0 0 1 I I #
ellipse-curve $-1 3.4694469519536142e-018 1.3877787807814457e-017 1.75 0 0 1 -0.099999999999999992 -3.8369914884261999e-017 0 1 I I #
point $-1 0.099999999999999992 1.2246063538223771e-017 1.75 #
face $-1 $83 $84 $2 $-1 $85 forward single #
loop $-1 $-1 $86 $57 #
cone-surface $-1 1.3200000000000001 0 2 -1 0 0 0 0 6.9230769230769171 1 I I -0.98972835684395377 0.14296076265523788 6.9230769230769171 forward I I I I #
coedge $-1 $64 $87 $88 $89 reversed $58 $-1 #
coedge $-1 $88 $60 $61 $78 forward $45 $-1 #
coedge $-1 $60 $88 $90 $91 reversed $45 $-1 #
coedge $-1 $87 $64 $60 $77 forward $58 $-1 #
edge $-1 $66 0 $92 0.084444444444444433 $76 $93 forward 7 unknown #
edge $-1 $66 2.4492127076447521e-016 $79 3.1415926535897936 $61 $94 forward 7 unknown #
vertex $-1 $63 $95 #
ellipse-curve $-1 0.25 -2.4492127076447543e-017 1.75 0 1 0 -0.34999999999999998 0 0 1 I I #
ellipse-curve $-1 0.25 0 2 1 0 0 0 0 0.10000000000000009 1 I I #
point $-1 0.25 1.2246063538223771e-017 1.8999999999999999 #
face $-1 $96 $97 $2 $-1 $98 forward single #
loop $-1 $-1 $99 $70 #
cone-surface $-1 1.3200000000000001 0 2 -1 0 0 0 0 6.9230769230769171 1 I I -0.98972835684395377 0.14296076265523788 6.9230769230769171 forward I I I I #
coedge $-1 $100 $101 $102 $103 reversed $71 $-1 #
coedge $-1 $73 $76 $101 $104 reversed $58 $-1 #
coedge $-1 $75 $74 $73 $89 forward $45 $-1 #
edge $-1 $79 0 $105 0.084444444444444322 $73 $106 forward 7 unknown #
coedge $-1 $99 $102 $75 $91 forward $84 $-1 #
edge $-1 $92 0 $105 3.141592653589802 $75 $107 forward 7 unknown #
vertex $-1 $104 $108 #
straight-curve $-1 0.25 -1.2246063538223771e-017 1.8999999999999999 1 0 0 I I #
ellipse-curve $-1 0.25 0 2 1 0 0 0 -1.2246063538223771e-017 -0.10000000000000009 1 I I #
point $-1 0.25 -2.4492127076447543e-017 2.1000000000000001 #
face $-1 $109 $110 $2 $-1 $111 forward single #
loop $-1 $-1 $112 $83 #
cone-surface $-1 0.074999999999999997 0 2 1 0 0 0 0 0.89999999999999991 1 I I 0 1 0.89999999999999991 forward I I I I #
coedge $-1 $113 $90 $114 $115 reversed $84 $-1 #
coedge $-1 $114 $86 $116 $117 forward $71 $-1 #
coedge $-1 $86 $114 $87 $104 forward $71 $-1 #
coedge $-1 $90 $113 $86 $103 forward $84 $-1 #
edge $-1 $118 -4.3159176744114137e-016 $92 0.80830259582643482 $102 $119 forward 7 unknown #
edge $-1 $105 0 $92 3.1415926535898016 $87 $120 forward 7 unknown #
vertex $-1 $104 $121 #
straight-curve $-1 0.25 0 2.1000000000000001 1 0 0 I I #
ellipse-curve $-1 0.33444444444444443 4.4755865680201623e-016 1.9999999999999996 1 0 0 0 -4.3531259326379248e-016 -0.099999999999999201 1 I I #
point $-1 0.33444444444444443 1.2246063538223753e-017 1.9000000000000004 #
face $-1 $122 $123 $2 $-1 $124 forward single #
loop $-1 $-1 $125 $96 #
cone-surface $-1 0.074999999999999997 0 2 1 0 0 0 0 0.89999999999999991 1 I I 0 1 0.89999999999999991 forward I I I I #
coedge $-1 $126 $127 $113 $128 forward $97 $-1 #
coedge $-1 $102 $99 $112 $128 reversed $84 $-1 #
coedge $-1 $101 $100 $99 $115 forward $71 $-1 #
edge $-1 $129 0 $105 0.80830259582643482 $99 $130 forward 7 unknown #
coedge $-1 $131 $132 $100 $117 reversed $110 $-1 #
edge $-1 $118 -1.5217224251948557e-032 $129 3.1415926535897931 $116 $133 forward 7 unknown #
vertex $-1 $134 $135 #
straight-curve $-1 0.45000000000000007 1.1021457184401387e-016 1.1000000000000005 -0.14296076265523788 -1.2120276343492866e-016 0.98972835684395377 I I #
ellipse-curve $-1 0.33444444444444443 -4.4408920985006262e-016 1.9999999999999996 1 4.6584634236082301e-030 1.1102230246251654e-015 -1.1102230246251565e-016 4.195970827736155e-016 0.099999999999999201 1 I I #
point $-1 0.33444444444444432 -2.4492127076447111e-017 2.0999999999999988 #
face $-1 $136 $137 $2 $-1 $138 forward single #
loop $-1 $-1 $139 $109 #
cone-surface $-1 0.24999999999999956 0 2 1 0 0 0 0 2.999999999999996 1 I I -0.94868329805051366 0.31622776601683833 2.999999999999996 forward I I I I #
coedge $-1 $132 $131 $140 $141 forward $110 $-1 #
coedge $-1 $142 $112 $132 $143 reversed $97 $-1 #
coedge $-1 $112 $142 $131 $134 forward $97 $-1 #
edge $-1 $118 5.326028488181995e-032 $129 3.1415926535897931 $112 $144 forward 7 unknown #
vertex $-1 $143 $145 #
straight-curve $-1 0.44999999999999996 -2.2042914368802735e-016 2.8999999999999986 -0.14296076265523788 2.4240552686985731e-016 -0.98972835684395377 I I #
coedge $-1 $125 $116 $127 $134 reversed $110 $-1 #
coedge $-1 $116 $125 $126 $143 forward $110 $-1 #
ellipse-curve $-1 0.45000000000000007 0 1.9999999999999996 -1 0 0 0 1.1021457184401387e-016 -0.89999999999999902 1 I I #
edge $-1 $146 3.3306690738754696e-016 $118 0.49999999999999994 $127 $147 forward 7 unknown #
point $-1 0.45000000000000001 1.1021457184401395e-016 1.1000000000000001 #
face $-1 $148 $149 $2 $-1 $150 forward single #
loop $-1 $-1 $151 $122 #
cone-surface $-1 0.074999999999999997 0 2 1 0 0 0 0 0.75 1 I I 0 1 0.75 forward I I I I #
coedge $-1 $152 $153 $154 $155 forward $123 $-1 #
coedge $-1 $153 $152 $125 $141 reversed $123 $-1 #
edge $-1 $146 -3.0434448503897113e-032 $156 3.1415926535897931 $140 $157 forward 7 unknown #
coedge $-1 $127 $126 $158 $159 reversed $97 $-1 #
edge $-1 $156 0 $129 0.5 $126 $160 forward 7 unknown #
ellipse-curve $-1 0.45000000000000007 5.5511151231257827e-017 1.9999999999999996 1 0 0 0 5.4703420612756047e-017 -0.89999999999999902 1 I I #
point $-1 0.44999999999999996 -2.2042914368802735e-016 2.8999999999999986 #
vertex $-1 $161 $162 #
straight-curve $-1 0.94999999999999996 1.1021457184401395e-016 1.1000000000000001 -1 0 0 I I #
face $-1 $163 $164 $2 $-1 $165 forward single #
loop $-1 $-1 $166 $136 #
cone-surface $-1 0.074999999999999997 0 2 1 0 0 0 0 0.75 1 I I 0 1 0.75 forward I I I I #
coedge $-1 $154 $167 $168 $169 forward $137 $-1 #
coedge $-1 $140 $139 $170 $171 forward $123 $-1 #
coedge $-1 $139 $140 $172 $161 reversed $123 $-1 #
coedge $-1 $173 $151 $139 $155 reversed $137 $-1 #
edge $-1 $174 0 $175 3.1415926535897927 $154 $176 forward 7 unknown #
vertex $-1 $171 $177 #
ellipse-curve $-1 0.94999999999999996 -2.7755575615628914e-017 2 -1 0 0 0 1.3797014745964286e-016 -0.89999999999999991 1 I I #
coedge $-1 $170 $172 $142 $159 forward $164 $-1 #
edge $-1 $146 -9.8911957637665623e-032 $156 3.1415926535897931 $158 $178 forward 7 unknown #
straight-curve $-1 0.94999999999999996 -2.204291436880279e-016 2.8999999999999999 -1 0 0 I I #
edge $-1 $174 0 $146 0.15811388300841894 $172 $179 forward 7 unknown #
point $-1 0.94999999999999962 1.1021457184401378e-016 1.1000000000000014 #
face $-1 $180 $181 $2 $-1 $182 reversed single #
loop $-1 $-1 $158 $148 #
cone-surface $-1 0.24999999999999956 0 2 1 0 0 0 0 2.999999999999996 1 I I -0.94868329805051366 0.31622776601683833 2.999999999999996 forward I I I I #
coedge $-1 $183 $184 $173 $185 forward $149 $-1 #
coedge $-1 $151 $173 $186 $187 reversed $137 $-1 #
coedge $-1 $184 $183 $151 $169 reversed $149 $-1 #
edge $-1 $188 1.8364085935793797e-030 $175 0.17500000000000027 $168 $189 forward 7 unknown #
coedge $-1 $190 $158 $152 $171 reversed $164 $-1 #
edge $-1 $175 -4.2681092386050985e-032 $156 0.15811388300841964 $170 $191 forward 7 unknown #
coedge $-1 $158 $190 $153 $161 forward $164 $-1 #
coedge $-1 $167 $154 $166 $185 reversed $137 $-1 #
vertex $-1 $192 $193 #
vertex $-1 $169 $194 #
ellipse-curve $-1 0.99999999999999956 1.9428902930940239e-016 2 -1 -2.0219589513365541e-032 -1.480297366166878e-016 1.1102230246251565e-016 -1.0244355277272425e-016 -0.74999999999999867 1 I I #
point $-1 0.94999999999999996 -2.204291436880279e-016 2.8999999999999999 #
ellipse-curve $-1 0.94999999999999996 5.5511151231257827e-017 2 1 0 0 0 5.4703420612756121e-017 -0.89999999999999991 1 I I #
straight-curve $-1 0.99999999999999967 9.1845476536678146e-017 1.2500000000000013 -0.31622776601683833 1.1617635945578257e-016 -0.94868329805051355 I I #
face $-1 $195 $196 $2 $-1 $197 forward single #
loop $-1 $198 $199 $163 #
plane-surface $-1 1.1749999999999998 0 2 -1 0 0 0 0 -1 forward_v I I I I #
coedge $-1 $168 $166 $190 $192 forward $149 $-1 #
coedge $-1 $166 $168 $200 $201 reversed $149 $-1 #
edge $-1 $202 4.5910214839484493e-031 $174 0.17500000000000016 $166 $203 forward 7 unknown #
coedge $-1 $200 $200 $167 $187 forward $198 $-1 #
edge $-1 $188 0 $202 3.1415926535897931 $167 $204 forward 7 unknown #
vertex $-1 $201 $205 #
straight-curve $-1 1.1749999999999998 4.8244286170173734e-016 2.75 -1 -3.8064789415719667e-015 0 I I #
coedge $-1 $172 $170 $183 $192 reversed $164 $-1 #
straight-curve $-1 0.99999999999999956 -1.8369095307335639e-016 2.7499999999999991 -0.3162277660168375 -2.3235271891156455e-016 0.94868329805051388 I I #
edge $-1 $174 0 $175 3.1415926535897922 $183 $206 forward 7 unknown #
point $-1 0.99999999999999967 9.1845476536678146e-017 1.2500000000000013 #
point $-1 0.99999999999999956 0 2.7499999999999991 #
face $-1 $207 $208 $2 $-1 $209 forward single #
loop $-1 $-1 $210 $180 #
cone-surface $-1 1.4375 0 2 -1 0 0 0 0 -0.73999999999999999 1 I I 0 1 0.73999999999999999 forward I I I I #
loop $-1 $-1 $186 $163 #
coedge $-1 $211 $211 $212 $213 forward $181 $-1 #
coedge $-1 $186 $186 $184 $201 forward $198 $-1 #
edge $-1 $202 0 $188 3.1415926535897931 $184 $214 forward 7 unknown #
vertex $-1 $201 $215 #
straight-curve $-1 1.1749999999999998 -2.4122143085086867e-016 1.25 -1 1.9032394707859834e-015 0 I I #
ellipse-curve $-1 1.1749999999999998 -5.5511151231257827e-017 2 1 0 0 0 5.5511151231257827e-017 0.75 1 I I #
point $-1 1.1749999999999998 0 2.75 #
ellipse-curve $-1 0.99999999999999956 -2.7755575615628914e-016 2 1 -7.2909822908559799e-032 1.480297366166878e-016 1.1102230246251565e-016 3.6940123269296728e-016 -0.74999999999999867 1 I I #
face $-1 $216 $217 $2 $-1 $218 forward single #
loop $-1 $219 $220 $195 #
plane-surface $-1 1.4249999999999998 0 2 -1 0 0 0 0 -1 forward_v I I I I #
coedge $-1 $221 $222 $223 $224 forward $196 $-1 #
coedge $-1 $199 $199 $225 $226 reversed $181 $-1 #
coedge $-1 $222 $221 $199 $213 reversed $196 $-1 #
edge $-1 $227 0 $228 3.1415926535897927 $199 $229 forward 7 unknown #
ellipse-curve $-1 1.1749999999999998 5.5511151231257827e-017 2 1 0 0 0 -5.5511151231257827e-017 -0.75 1 I I #
point $-1 1.1749999999999998 0 1.25 #
face $-1 $230 $231 $2 $-1 $232 forward single #
loop $-1 $-1 $225 $207 #
cone-surface $-1 1.4375 0 2 -1 0 0 0 0 -0.73999999999999999 1 I I 0 1 0.73999999999999999 forward I I I I #
loop $-1 $-1 $233 $195 #
coedge $-1 $223 $223 $234 $235 forward $208 $-1 #
coedge $-1 $212 $210 $236 $237 reversed $196 $-1 #
coedge $-1 $210 $212 $238 $239 forward $196 $-1 #
coedge $-1 $220 $220 $210 $224 reversed $208 $-1 #
edge $-1 $240 0 $241 3.1415926535897927 $210 $242 forward 7 unknown #
coedge $-1 $236 $238 $211 $226 forward $217 $-1 #
edge $-1 $227 0 $228 3.1415926535897927 $211 $243 forward 7 unknown #
vertex $-1 $226 $244 #
vertex $-1 $226 $245 #
ellipse-curve $-1 1.1749999999999998 1.9428902930940239e-016 2 -1 0 0 0 -1.9428902930940239e-016 -0.73999999999999999 1 I I #
face $-1 $246 $247 $2 $-1 $248 forward single #
loop $-1 $-1 $249 $216 #
cone-surface $-1 0.074999999999999997 0 2 1 0 0 0 0 0.75 1 I I 0 1 0.75 forward I I I I #
coedge $-1 $250 $250 $251 $252 reversed $219 $-1 #
coedge $-1 $238 $236 $220 $235 reversed $217 $-1 #
edge $-1 $240 0 $241 3.1415926535897927 $220 $253 forward 7 unknown #
coedge $-1 $234 $225 $221 $237 forward $217 $-1 #
edge $-1 $228 0 $241 0.25 $221 $254 forward 7 unknown #
coedge $-1 $225 $234 $222 $239 reversed $217 $-1 #
edge $-1 $227 0 $240 0.25 $222 $255 forward 7 unknown #
vertex $-1 $239 $256 #
vertex $-1 $237 $257 #
ellipse-curve $-1 1.4249999999999998 1.9428902930940239e-016 2 -1 0 0 0 -1.9428902930940239e-016 -0.73999999999999999 1 I I #
ellipse-curve $-1 1.1749999999999998 -1.9428902930940239e-016 2 1 0 0 0 1.9428902930940239e-016 -0.73999999999999999 1 I I #
point $-1 1.1749999999999998 0 1.26 #
point $-1 1.1749999999999998 9.0620870182855922e-017 2.7400000000000002 #
face $-1 $258 $259 $2 $-1 $260 reversed single #
loop $-1 $-1 $261 $230 #
cone-surface $-1 0.074999999999999997 0 2 1 0 0 0 0 0.75 1 I I 0 1 0.75 forward I I I I #
coedge $-1 $251 $262 $263 $264 forward $231 $-1 #
coedge $-1 $233 $233 $265 $266 reversed $219 $-1 #
coedge $-1 $267 $249 $233 $252 forward $231 $-1 #
edge $-1 $268 0 $269 3.1415926535897931 $251 $270 forward 7 unknown #
ellipse-curve $-1 1.4249999999999998 -1.9428902930940239e-016 2 1 0 0 0 1.9428902930940239e-016 -0.73999999999999999 1 I I #
straight-curve $-1 1.1749999999999998 9.0620870182855922e-017 2.7400000000000002 1 0 0 I I #
straight-curve $-1 1.1749999999999998 0 1.26 1 0 0 I I #
point $-1 1.4249999999999998 0 1.26 #
point $-1 1.4249999999999998 0 2.7400000000000002 #
face $-1 $271 $272 $2 $-1 $273 forward single #
loop $-1 $274 $275 $246 #
plane-surface $-1 1.575 0 2 -1 0 0 0 0 -1 forward_v I I I I #
coedge $-1 $265 $276 $267 $277 forward $247 $-1 #
coedge $-1 $249 $267 $278 $279 reversed $231 $-1 #
coedge $-1 $276 $265 $249 $264 reversed $247 $-1 #
edge $-1 $280 0 $268 0.15000000000000013 $263 $281 forward 7 unknown #
coedge $-1 $263 $261 $250 $266 forward $247 $-1 #
edge $-1 $269 0 $268 3.1415926535897931 $265 $282 forward 7 unknown #
coedge $-1 $262 $251 $261 $277 reversed $231 $-1 #
vertex $-1 $264 $283 #
vertex $-1 $266 $284 #
ellipse-curve $-1 1.4249999999999998 -5.5511151231257827e-017 2 1 0 0 0 5.5511151231257827e-017 0.75 1 I I #
face $-1 $285 $286 $2 $-1 $287 forward single #
loop $-1 $-1 $288 $258 #
cone-surface $-1 1.8374999999999999 0 2 -1 0 0 0 0 -0.73999999999999999 1 I I 0 1 0.73999999999999999 forward I I I I #
loop $-1 $-1 $278 $246 #
coedge $-1 $289 $289 $290 $291 forward $259 $-1 #
coedge $-1 $261 $263 $292 $293 reversed $247 $-1 #
edge $-1 $294 5.3561917312731848e-031 $269 0.15000000000000013 $261 $295 forward 7 unknown #
coedge $-1 $292 $292 $262 $279 forward $274 $-1 #
edge $-1 $280 0 $294 3.1415926535897936 $262 $296 forward 7 unknown #
vertex $-1 $293 $297 #
straight-curve $-1 1.575 -1.8369095307335659e-016 2.75 -1 0 0 I I #
ellipse-curve $-1 1.4249999999999998 5.5511151231257827e-017 2 1 0 0 0 -5.5511151231257827e-017 -0.75 1 I I #
point $-1 1.4249999999999998 0 2.75 #
point $-1 1.4249999999999998 0 1.25 #
face $-1 $298 $299 $2 $-1 $300 forward single #
loop $-1 $301 $302 $271 #
plane-surface $-1 1.825 0 2 -1 0 0 0 0 -1 forward_v I I I I #
coedge $-1 $303 $304 $305 $306 forward $272 $-1 #
coedge $-1 $275 $275 $307 $308 reversed $259 $-1 #
coedge $-1 $304 $303 $275 $291 reversed $272 $-1 #
edge $-1 $309 0 $310 3.1415926535897927 $275 $311 forward 7 unknown #
coedge $-1 $278 $278 $276 $293 forward $274 $-1 #
edge $-1 $294 0 $280 3.1415926535897931 $276 $312 forward 7 unknown #
vertex $-1 $293 $313 #
straight-curve $-1 1.575 -2.4122143085086867e-016 1.25 -1 2.2204460492503111e-015 0 I I #
ellipse-curve $-1 1.575 -1.3877787807814457e-016 1.9999999999999998 1 0 0 0 1.3877787807814457e-016 0.75000000000000022 1 I I #
point $-1 1.575 0 2.75 #
face $-1 $314 $315 $2 $-1 $316 forward single #
loop $-1 $-1 $307 $285 #
cone-surface $-1 1.8374999999999999 0 2 -1 0 0 0 0 -0.73999999999999999 1 I I 0 1 0.73999999999999999 forward I I I I #
loop $-1 $-1 $317 $271 #
coedge $-1 $305 $305 $318 $319 forward $286 $-1 #
coedge $-1 $290 $288 $320 $321 reversed $272 $-1 #
coedge $-1 $288 $290 $322 $323 forward $272 $-1 #
coedge $-1 $302 $302 $288 $306 reversed $286 $-1 #
edge $-1 $324 0 $325 3.1415926535897927 $288 $326 forward 7 unknown #
coedge $-1 $320 $322 $289 $308 forward $299 $-1 #
edge $-1 $309 0 $310 3.1415926535897927 $289 $327 forward 7 unknown #
vertex $-1 $308 $328 #
vertex $-1 $308 $329 #
ellipse-curve $-1 1.575 1.9428902930940239e-016 2 -1 7.8781648565146251e-032 3.0006027692571798e-016 -2.2204460492503131e-016 -1.9428902930940239e-016 -0.73999999999999999 1 I I #
ellipse-curve $-1 1.575 -8.3266726846886741e-017 2 1 0 0 0 8.3266726846886741e-017 -0.75 1 I I #
point $-1 1.575 0 1.25 #
face $-1 $330 $331 $2 $-1 $332 forward single #
loop $-1 $-1 $333 $298 #
cone-surface $-1 0.074999999999999997 0 2 1 0 0 0 0 0.75 1 I I 0 1 0.75 forward I I I I #
coedge $-1 $334 $334 $335 $336 reversed $301 $-1 #
coedge $-1 $322 $320 $302 $319 reversed $299 $-1 #
edge $-1 $324 0 $325 3.1415926535897927 $302 $337 forward 7 unknown #
coedge $-1 $318 $307 $303 $321 forward $299 $-1 #
edge $-1 $310 0 $325 0.25000000000000022 $303 $338 forward 7 unknown #
coedge $-1 $307 $318 $304 $323 reversed $299 $-1 #
edge $-1 $309 0 $324 0.25 $304 $339 forward 7 unknown #
vertex $-1 $323 $340 #
vertex $-1 $321 $341 #
ellipse-curve $-1 1.825 1.9428902930940239e-016 2 -1 0 0 0 -1.9428902930940239e-016 -0.73999999999999999 1 I I #
ellipse-curve $-1 1.575 -1.9428902930940239e-016 2 1 7.8781648565146251e-032 -3.0006027692571798e-016 -2.2204460492503131e-016 1.9428902930940239e-016 -0.73999999999999999 1 I I #
point $-1 1.5749999999999997 0 1.26 #
point $-1 1.5749999999999997 9.0620870182855922e-017 2.7400000000000002 #
face $-1 $342 $343 $2 $-1 $344 reversed single #
loop $-1 $-1 $345 $314 #
cone-surface $-1 0.074999999999999997 0 2 1 0 0 0 0 0.75 1 I I 0 1 0.75 forward I I I I #
coedge $-1 $346 $335 $347 $348 reversed $315 $-1 #
coedge $-1 $317 $317 $349 $350 reversed $301 $-1 #
coedge $-1 $333 $351 $317 $336 forward $315 $-1 #
edge $-1 $352 0 $353 3.1415926535897936 $335 $354 forward 7 unknown #
ellipse-curve $-1 1.825 -1.9428902930940239e-016 2 1 0 0 0 1.9428902930940239e-016 -0.73999999999999999 1 I I #
straight-curve $-1 1.5749999999999997 9.0620870182855922e-017 2.7400000000000002 1 0 0 I I #
straight-curve $-1 1.5749999999999997 0 1.26 1 0 0 I I #
point $-1 1.8249999999999997 0 1.26 #
point $-1 1.825 0 2.7400000000000002 #
face $-1 $355 $356 $2 $-1 $357 forward single #
loop $-1 $358 $359 $330 #
plane-surface $-1 1.9749999999999999 0 2 -1 0 0 0 0 -1 forward_v I I I I #
coedge $-1 $360 $349 $351 $361 reversed $331 $-1 #
coedge $-1 $351 $333 $362 $363 reversed $315 $-1 #
coedge $-1 $349 $360 $333 $348 forward $331 $-1 #
edge $-1 $364 0 $353 0.14999999999999991 $347 $365 forward 7 unknown #
coedge $-1 $345 $347 $334 $350 forward $331 $-1 #
edge $-1 $353 0 $352 3.1415926535897931 $349 $366 forward 7 unknown #
coedge $-1 $335 $346 $345 $361 forward $315 $-1 #
vertex $-1 $350 $367 #
vertex $-1 $350 $368 #
ellipse-curve $-1 1.825 -1.3877787807814457e-016 1.9999999999999998 1 0 0 0 1.3877787807814457e-016 0.75000000000000022 1 I I #
face $-1 $369 $370 $2 $-1 $371 forward single #
loop $-1 $-1 $372 $342 #
cone-surface $-1 2.2374999999999998 0 2 -1 0 0 0 0 -0.73999999999999999 1 I I 0 1 0.73999999999999999 forward I I I I #
loop $-1 $-1 $362 $330 #
coedge $-1 $373 $373 $374 $375 forward $343 $-1 #
coedge $-1 $347 $345 $376 $377 reversed $331 $-1 #
edge $-1 $378 0 $352 0.14999999999999991 $345 $379 forward 7 unknown #
coedge $-1 $376 $376 $346 $363 forward $358 $-1 #
edge $-1 $378 0 $364 3.1415926535897936 $346 $380 forward 7 unknown #
vertex $-1 $348 $381 #
straight-curve $-1 1.9749999999999999 9.1845476536678294e-017 1.25 -1 0 0 I I #
ellipse-curve $-1 1.825 5.5511151231257827e-017 2 1 0 0 0 -5.5511151231257827e-017 -0.75 1 I I #
point $-1 1.825 0 2.75 #
point $-1 1.825 0 1.25 #
face $-1 $382 $383 $2 $-1 $384 forward single #
loop $-1 $385 $386 $355 #
plane-surface $-1 2.2249999999999996 0 2 -1 0 0 0 0 -1 forward_v I I I I #
coedge $-1 $387 $388 $389 $390 forward $356 $-1 #
coedge $-1 $359 $359 $391 $392 reversed $343 $-1 #
coedge $-1 $388 $387 $359 $375 reversed $356 $-1 #
edge $-1 $393 0 $394 3.1415926535897927 $359 $395 forward 7 unknown #
coedge $-1 $362 $362 $360 $377 forward $358 $-1 #
edge $-1 $364 0 $378 3.1415926535897931 $360 $396 forward 7 unknown #
vertex $-1 $377 $397 #
straight-curve $-1 1.9749999999999999 -1.8369095307335659e-016 2.75 -1 0 0 I I #
ellipse-curve $-1 1.9749999999999999 -1.3877787807814457e-016 1.9999999999999998 1 0 0 0 1.3877787807814457e-016 0.75000000000000022 1 I I #
point $-1 1.9749999999999999 0 1.25 #
face $-1 $398 $399 $2 $-1 $400 forward single #
loop $-1 $-1 $391 $369 #
cone-surface $-1 2.2374999999999998 0 2 -1 0 0 0 0 -0.73999999999999999 1 I I 0 1 0.73999999999999999 forward I I I I #
loop $-1 $-1 $401 $355 #
coedge $-1 $389 $389 $402 $403 forward $370 $-1 #
coedge $-1 $374 $372 $404 $405 reversed $356 $-1 #
coedge $-1 $372 $374 $406 $407 forward $356 $-1 #
coedge $-1 $386 $386 $372 $390 reversed $370 $-1 #
edge $-1 $408 0 $409 3.1415926535897927 $372 $410 forward 7 unknown #
coedge $-1 $404 $406 $373 $392 forward $383 $-1 #
edge $-1 $393 0 $394 3.1415926535897927 $373 $411 forward 7 unknown #
vertex $-1 $392 $412 #
vertex $-1 $392 $413 #
ellipse-curve $-1 1.9749999999999999 1.9428902930940239e-016 2 -1 7.8781648565146251e-032 3.0006027692571798e-016 -2.2204460492503131e-016 -1.9428902930940239e-016 -0.73999999999999999 1 I I #
ellipse-curve $-1 1.9749999999999999 5.5511151231257827e-017 2 1 0 0 0 -5.5511151231257827e-017 -0.75 1 I I #
point $-1 1.9749999999999999 0 2.75 #
face $-1 $414 $415 $2 $-1 $416 forward single #
loop $-1 $-1 $417 $382 #
cone-surface $-1 0.074999999999999997 0 2 1 0 0 0 0 0.75 1 I I 0 1 0.75 forward I I I I #
coedge $-1 $418 $418 $419 $420 reversed $385 $-1 #
coedge $-1 $406 $404 $386 $403 reversed $383 $-1 #
edge $-1 $408 0 $409 3.1415926535897927 $386 $421 forward 7 unknown #
coedge $-1 $402 $391 $387 $405 forward $383 $-1 #
edge $-1 $394 0 $409 0.25 $387 $422 forward 7 unknown #
coedge $-1 $391 $402 $388 $407 reversed $383 $-1 #
edge $-1 $393 0 $408 0.25 $388 $423 forward 7 unknown #
vertex $-1 $407 $424 #
vertex $-1 $405 $425 #
ellipse-curve $-1 2.2249999999999996 1.9428902930940239e-016 2 -1 0 0 0 -1.9428902930940239e-016 -0.73999999999999999 1 I I #
ellipse-curve $-1 1.9749999999999999 -1.9428902930940239e-016 2 1 7.8781648565146251e-032 -3.0006027692571798e-016 -2.2204460492503131e-016 1.9428902930940239e-016 -0.73999999999999999 1 I I #
point $-1 1.9749999999999996 0 1.26 #
point $-1 1.9749999999999996 9.0620870182855922e-017 2.7400000000000002 #
face $-1 $426 $427 $2 $-1 $428 reversed single #
loop $-1 $-1 $429 $398 #
cone-surface $-1 0.074999999999999997 0 2 1 0 0 0 0 0.75 1 I I 0 1 0.75 forward I I I I #
coedge $-1 $430 $419 $431 $432 reversed $399 $-1 #
coedge $-1 $401 $401 $433 $434 reversed $385 $-1 #
coedge $-1 $417 $435 $401 $420 forward $399 $-1 #
edge $-1 $436 0 $437 3.1415926535897936 $419 $438 forward 7 unknown #
ellipse-curve $-1 2.2249999999999996 -1.9428902930940239e-016 2 1 0 0 0 1.9428902930940239e-016 -0.73999999999999999 1 I I #
straight-curve $-1 1.9749999999999996 9.0620870182855922e-017 2.7400000000000002 1 0 0 I I #
straight-curve $-1 1.9749999999999996 0 1.26 1 0 0 I I #
point $-1 2.2249999999999996 0 1.26 #
point $-1 2.2249999999999996 0 2.7400000000000002 #
face $-1 $439 $440 $2 $-1 $441 forward single #
loop $-1 $442 $443 $414 #
plane-surface $-1 2.375 0 2 -1 0 0 0 0 -1 forward_v I I I I #
coedge $-1 $444 $433 $435 $445 reversed $415 $-1 #
coedge $-1 $435 $417 $446 $447 reversed $399 $-1 #
coedge $-1 $433 $444 $417 $432 forward $415 $-1 #
edge $-1 $448 0 $437 0.15000000000000036 $431 $449 forward 7 unknown #
coedge $-1 $429 $431 $418 $434 forward $415 $-1 #
edge $-1 $437 0 $436 3.1415926535897931 $433 $450 forward 7 unknown #
coedge $-1 $419 $430 $429 $445 forward $399 $-1 #
vertex $-1 $434 $451 #
vertex $-1 $434 $452 #
ellipse-curve $-1 2.2249999999999996 -1.3877787807814457e-016 1.9999999999999998 1 0 0 0 1.3877787807814457e-016 0.75000000000000022 1 I I #
face $-1 $453 $454 $2 $-1 $455 forward single #
loop $-1 $-1 $456 $426 #
cone-surface $-1 2.6374999999999997 0 2 -1 0 0 0 0 -0.73999999999999999 1 I I 0 1 0.73999999999999999 forward I I I I #
loop $-1 $-1 $446 $414 #
coedge $-1 $457 $457 $458 $459 forward $427 $-1 #
coedge $-1 $431 $429 $460 $461 reversed $415 $-1 #
edge $-1 $462 0 $436 0.15000000000000036 $429 $463 forward 7 unknown #
coedge $-1 $460 $460 $430 $447 forward $442 $-1 #
edge $-1 $462 0 $448 3.1415926535897936 $430 $464 forward 7 unknown #
vertex $-1 $432 $465 #
straight-curve $-1 2.375 9.1845476536678294e-017 1.25 -1 0 0 I I #
ellipse-curve $-1 2.2249999999999996 5.5511151231257827e-017 2 1 0 0 0 -5.5511151231257827e-017 -0.75 1 I I #
point $-1 2.2249999999999996 0 2.75 #
point $-1 2.2249999999999996 0 1.25 #
face $-1 $466 $467 $2 $-1 $468 forward single #
loop $-1 $469 $470 $439 #
plane-surface $-1 2.625 0 2 -1 0 0 0 0 -1 forward_v I I I I #
coedge $-1 $471 $472 $473 $474 forward $440 $-1 #
coedge $-1 $443 $443 $475 $476 reversed $427 $-1 #
coedge $-1 $472 $471 $443 $459 reversed $440 $-1 #
edge $-1 $477 0 $478 3.1415926535897927 $443 $479 forward 7 unknown #
coedge $-1 $446 $446 $444 $461 forward $442 $-1 #
edge $-1 $448 0 $462 3.1415926535897931 $444 $480 forward 7 unknown #
vertex $-1 $461 $481 #
straight-curve $-1 2.375 -1.8369095307335659e-016 2.75 -1 0 0 I I #
ellipse-curve $-1 2.375 -1.3877787807814457e-016 1.9999999999999998 1 0 0 0 1.3877787807814457e-016 0.75000000000000022 1 I I #
point $-1 2.375 0 1.25 #
face $-1 $482 $483 $2 $-1 $484 forward single #
loop $-1 $-1 $475 $453 #
cone-surface $-1 2.6374999999999997 0 2 -1 0 0 0 0 -0.73999999999999999 1 I I 0 1 0.73999999999999999 forward I I I I #
loop $-1 $-1 $485 $439 #
coedge $-1 $473 $473 $486 $487 forward $454 $-1 #
coedge $-1 $458 $456 $488 $489 reversed $440 $-1 #
coedge $-1 $456 $458 $490 $491 forward $440 $-1 #
coedge $-1 $470 $470 $456 $474 reversed $454 $-1 #
edge $-1 $492 0 $493 3.1415926535897927 $456 $494 forward 7 unknown #
coedge $-1 $488 $490 $457 $476 forward $467 $-1 #
edge $-1 $477 0 $478 3.1415926535897927 $457 $495 forward 7 unknown #
vertex $-1 $476 $496 #
vertex $-1 $476 $497 #
ellipse-curve $-1 2.375 1.9428902930940239e-016 2 -1 1.575632971302925e-031 6.0012055385143595e-016 -4.4408920985006262e-016 -1.9428902930940239e-016 -0.73999999999999999 1 I I #
ellipse-curve $-1 2.375 5.5511151231257827e-017 2 1 0 0 0 -5.5511151231257827e-017 -0.75 1 I I #
point $-1 2.375 0 2.75 #
face $-1 $498 $499 $2 $-1 $500 forward single #
loop $-1 $-1 $501 $466 #
cone-surface $-1 0.074999999999999997 0 2 1 0 0 0 0 0.75 1 I I 0 1 0.75 forward I I I I #
coedge $-1 $502 $502 $503 $504 reversed $469 $-1 #
coedge $-1 $490 $488 $470 $487 reversed $467 $-1 #
edge $-1 $492 0 $493 3.1415926535897927 $470 $505 forward 7 unknown #
coedge $-1 $486 $475 $471 $489 forward $467 $-1 #
edge $-1 $478 0 $493 0.25000000000000044 $471 $506 forward 7 unknown #
coedge $-1 $475 $486 $472 $491 reversed $467 $-1 #
edge $-1 $477 0 $492 0.25 $472 $507 forward 7 unknown #
vertex $-1 $491 $508 #
vertex $-1 $489 $509 #
ellipse-curve $-1 2.625 1.9428902930940239e-016 2 -1 0 0 0 -1.9428902930940239e-016 -0.73999999999999999 1 I I #
ellipse-curve $-1 2.375 -1.9428902930940239e-016 2 1 1.575632971302925e-031 -6.0012055385143595e-016 -4.4408920985006262e-016 1.9428902930940239e-016 -0.73999999999999999 1 I I #
point $-1 2.3749999999999996 0 1.26 #
point $-1 2.3749999999999996 9.0620870182855922e-017 2.7400000000000002 #
face $-1 $510 $511 $2 $-1 $512 forward single #
loop $-1 $-1 $513 $482 #
cone-surface $-1 3.75 0 2 -1 0 0 0 0 3.0000000000000089 1 I I -0.9486832980505141 0.31622776601683711 3.0000000000000089 forward I I I I #
coedge $-1 $514 $515 $516 $517 forward $483 $-1 #
coedge $-1 $485 $485 $518 $519 reversed $469 $-1 #
coedge $-1 $515 $514 $485 $504 forward $483 $-1 #
edge $-1 $520 0 $521 3.1415926535897936 $503 $522 forward 7 unknown #
ellipse-curve $-1 2.625 -1.9428902930940239e-016 2 1 0 0 0 1.9428902930940239e-016 -0.73999999999999999 1 I I #
straight-curve $-1 2.3749999999999996 9.0620870182855922e-017 2.7400000000000002 1 0 0 I I #
straight-curve $-1 2.3749999999999996 0 1.26 1 0 0 I I #
point $-1 2.6249999999999996 0 1.26 #
point $-1 2.625 0 2.7400000000000002 #
face $-1 $523 $524 $2 $-1 $525 forward single #
loop $-1 $-1 $526 $498 #
cone-surface $-1 0.074999999999999997 0 2 1 0 0 0 0 0.89999999999999991 1 I I 0 1 0.89999999999999991 forward I I I I #
coedge $-1 $527 $528 $529 $530 forward $499 $-1 #
coedge $-1 $503 $501 $531 $532 forward $483 $-1 #
coedge $-1 $501 $503 $533 $534 reversed $483 $-1 #
coedge $-1 $528 $527 $501 $517 reversed $499 $-1 #
edge $-1 $535 0 $536 3.1415926535897931 $516 $537 forward 7 unknown #
coedge $-1 $531 $533 $502 $519 forward $538 $-1 #
edge $-1 $521 1.2246063538223773e-016 $520 3.1415926535897931 $518 $539 forward 7 unknown #
vertex $-1 $532 $540 #
vertex $-1 $534 $541 #
ellipse-curve $-1 2.625 -1.3877787807814457e-016 1.9999999999999998 1 0 0 0 1.3877787807814457e-016 0.75000000000000022 1 I I #
face $-1 $542 $543 $2 $-1 $544 forward single #
loop $-1 $-1 $545 $510 #
cone-surface $-1 2.6800000000000006 0 2 1 0 0 0 0 6.9230769230768843 1 I I -0.98972835684395366 0.14296076265523855 6.9230769230768843 forward I I I I #
coedge $-1 $546 $547 $548 $549 forward $511 $-1 #
coedge $-1 $516 $513 $550 $551 forward $499 $-1 #
coedge $-1 $513 $516 $552 $553 reversed $499 $-1 #
coedge $-1 $547 $546 $513 $530 reversed $511 $-1 #
edge $-1 $554 -3.0434448503897064e-032 $555 3.1415926535897927 $529 $556 forward 7 unknown #
coedge $-1 $557 $518 $514 $532 reversed $538 $-1 #
edge $-1 $536 0 $520 0.375 $531 $558 forward 7 unknown #
coedge $-1 $518 $557 $515 $534 forward $538 $-1 #
edge $-1 $535 8.8817841970012523e-016 $521 0.375 $533 $559 forward 7 unknown #
vertex $-1 $553 $560 #
vertex $-1 $551 $561 #
ellipse-curve $-1 3 -5.5511151231257827e-017 2 -1 0 0 0 1.4735662776793612e-016 -0.75 1 I I #
loop $-1 $-1 $518 $562 #
ellipse-curve $-1 2.625 5.5511151231257827e-017 2 1 0 0 0 -5.5511151231257827e-017 -0.75 1 I I #
point $-1 2.625 0 2.75 #
point $-1 2.625 9.1845476536678294e-017 1.25 #
face $-1 $563 $564 $2 $-1 $565 forward single #
loop $-1 $-1 $566 $523 #
cone-surface $-1 2.6800000000000006 0 2 1 0 0 0 0 6.9230769230768843 1 I I -0.98972835684395366 0.14296076265523855 6.9230769230768843 forward I I I I #
coedge $-1 $548 $567 $568 $569 forward $524 $-1 #
coedge $-1 $529 $526 $570 $571 forward $511 $-1 #
coedge $-1 $526 $529 $572 $573 reversed $511 $-1 #
coedge $-1 $574 $545 $526 $549 reversed $524 $-1 #
edge $-1 $575 0 $576 3.1415926535897931 $548 $577 forward 7 unknown #
coedge $-1 $578 $579 $527 $551 reversed $580 $-1 #
edge $-1 $555 0 $536 0.15811388300841855 $550 $581 forward 7 unknown #
coedge $-1 $579 $578 $528 $553 forward $580 $-1 #
edge $-1 $554 -2.808666774861353e-016 $535 0.15811388300841883 $552 $582 forward 7 unknown #
vertex $-1 $573 $583 #
vertex $-1 $571 $584 #
ellipse-curve $-1 3.0499999999999989 2.2204460492503131e-016 2 -1 0 0 0 -1.1183003308101738e-016 -0.89999999999999991 1 I I #
coedge $-1 $533 $531 $579 $585 reversed $538 $-1 #
straight-curve $-1 3 -1.8369095307335659e-016 2.75 -1 0 0 I I #
straight-curve $-1 3 9.1845476536678294e-017 1.25 -1 0 0 I I #
point $-1 2.9999999999999991 9.1845476536678294e-017 1.25 #
point $-1 3 -1.8369095307335659e-016 2.75 #
face $-1 $586 $538 $2 $-1 $587 forward single #
face $-1 $562 $580 $2 $-1 $588 forward single #
loop $-1 $-1 $589 $542 #
cone-surface $-1 0.074999999999999997 0 2 1 0 0 0 0 0.89999999999999991 1 I I 0 1 0.89999999999999991 forward I I I I #
coedge $-1 $590 $591 $574 $592 forward $543 $-1 #
coedge $-1 $545 $574 $593 $594 reversed $524 $-1 #
coedge $-1 $591 $590 $545 $569 reversed $543 $-1 #
edge $-1 $595 0 $576 0.80830259582643638 $568 $596 forward 7 unknown #
coedge $-1 $597 $589 $546 $571 reversed $564 $-1 #
edge $-1 $576 0 $555 0.50000000000000089 $570 $598 forward 7 unknown #
coedge $-1 $589 $597 $547 $573 forward $564 $-1 #
edge $-1 $575 0 $554 0.5 $572 $599 forward 7 unknown #
coedge $-1 $567 $548 $566 $592 reversed $524 $-1 #
vertex $-1 $600 $601 #
vertex $-1 $569 $602 #
ellipse-curve $-1 3.5499999999999998 -2.7755575615628914e-017 2 -1 0 0 0 1.3797014745964286e-016 -0.89999999999999991 1 I I #
coedge $-1 $552 $550 $589 $603 reversed $580 $-1 #
coedge $-1 $550 $552 $557 $585 forward $580 $-1 #
loop $-1 $-1 $579 $563 #
straight-curve $-1 3.0499999999999989 -2.2042914368802785e-016 2.8999999999999999 -0.31622776601683705 2.3235271891156529e-016 -0.9486832980505141 I I #
straight-curve $-1 3.0499999999999989 1.1021457184401392e-016 1.1000000000000001 -0.31622776601683705 -1.1617635945578265e-016 0.9486832980505141 I I #
point $-1 3.0499999999999998 1.1021457184401395e-016 1.1000000000000001 #
point $-1 3.0499999999999989 -2.2042914368802785e-016 2.8999999999999999 #
edge $-1 $535 0 $536 3.1415926535897931 $579 $604 forward 7 unknown #
face $-1 $605 $606 $2 $-1 $607 forward single #
cone-surface $-1 0.074999999999999997 0 2 1 0 0 0 0 0.75 1 I I 0 1 0.75 forward I I I I #
cone-surface $-1 3.75 0 2 -1 0 0 0 0 3.0000000000000089 1 I I -0.9486832980505141 0.31622776601683711 3.0000000000000089 forward I I I I #
coedge $-1 $570 $572 $578 $603 forward $564 $-1 #
coedge $-1 $568 $566 $597 $600 forward $543 $-1 #
coedge $-1 $566 $568 $608 $609 reversed $543 $-1 #
edge $-1 $610 0 $575 0.80830259582643638 $566 $611 forward 7 unknown #
coedge $-1 $612 $613 $567 $594 forward $614 $-1 #
edge $-1 $595 0 $610 3.1415926535897931 $593 $615 forward 7 unknown #
vertex $-1 $594 $616 #
straight-curve $-1 3.6655555555555561 -2.4492127076447111e-017 2.0999999999999988 -0.14296076265523855 -2.4240552686985746e-016 0.98972835684395366 I I #
coedge $-1 $572 $570 $590 $600 reversed $564 $-1 #
straight-curve $-1 3.5499999999999998 -2.204291436880279e-016 2.8999999999999999 -1 0 0 I I #
straight-curve $-1 3.5499999999999998 1.1021457184401395e-016 1.1000000000000001 -1 0 0 I I #
edge $-1 $575 0 $576 3.1415926535897931 $590 $617 forward 7 unknown #
point $-1 3.5499999999999998 1.1021457184401395e-016 1.1000000000000001 #
point $-1 3.5499999999999998 0 2.8999999999999999 #
edge $-1 $554 6.0868897007794128e-032 $555 3.1415926535897927 $589 $618 forward 7 unknown #
ellipse-curve $-1 3 2.7755575615628914e-017 2 1 0 0 0 6.4089900921049381e-017 -0.75 1 I I #
face $-1 $619 $614 $2 $-1 $620 forward single #
loop $-1 $-1 $621 $586 #
cone-surface $-1 0.25 0 2 1 0 0 0 0 0.099999999999999992 1 I I 0 1 0.099999999999999992 forward I I I I #
coedge $-1 $621 $622 $591 $609 forward $606 $-1 #
edge $-1 $610 0 $595 3.1415926535897931 $608 $623 forward 7 unknown #
vertex $-1 $594 $624 #
straight-curve $-1 3.6655555555555561 1.2246063538223556e-017 1.9000000000000012 -0.14296076265523855 1.2120276343492873e-016 -0.98972835684395366 I I #
coedge $-1 $625 $593 $622 $626 forward $614 $-1 #
coedge $-1 $593 $625 $621 $627 reversed $614 $-1 #
loop $-1 $-1 $612 $605 #
ellipse-curve $-1 3.6655555555555561 6.9388939039072284e-018 2 1 0 0 0 -3.143102098035434e-017 0.099999999999998757 1 I I #
point $-1 3.6655555555555561 -2.4492127076447111e-017 2.0999999999999988 #
ellipse-curve $-1 3.5499999999999998 5.5511151231257827e-017 2 1 0 0 0 5.4703420612756121e-017 -0.89999999999999991 1 I I #
ellipse-curve $-1 3.0499999999999989 -2.4980018054066022e-016 2 1 0 0 0 3.6001475238467415e-016 -0.89999999999999991 1 I I #
face $-1 $628 $629 $2 $-1 $630 forward single #
cone-surface $-1 0.25 0 2 1 0 0 0 0 0.099999999999999992 1 I I 0 1 0.099999999999999992 forward I I I I #
coedge $-1 $631 $608 $613 $627 forward $606 $-1 #
coedge $-1 $608 $631 $612 $626 reversed $606 $-1 #
ellipse-curve $-1 3.6655555555555561 3.4694469519536142e-018 2 1 0 0 0 8.7766165862699415e-018 -0.099999999999998757 1 I I #
point $-1 3.6655555555555561 1.2246063538223556e-017 1.9000000000000012 #
coedge $-1 $613 $612 $632 $633 reversed $614 $-1 #
edge $-1 $610 4.4408920985006262e-016 $634 0.084444444444444322 $612 $635 forward 7 unknown #
edge $-1 $595 4.4408920985006262e-016 $636 0.084444444444444322 $613 $637 forward 7 unknown #
face $-1 $638 $639 $2 $-1 $640 forward single #
loop $-1 $-1 $641 $619 #
torus-surface $-1 3.75 0 1.75 0 1 0 0.25 0.099999999999999992 0 0 -1 forward_v I I I I #
coedge $-1 $622 $621 $642 $643 reversed $606 $-1 #
coedge $-1 $641 $644 $625 $633 forward $629 $-1 #
edge $-1 $636 0 $634 3.1415926535897909 $625 $645 forward 7 unknown #
vertex $-1 $633 $646 #
straight-curve $-1 3.6655555555555557 -1.2246063538223771e-017 1.8999999999999999 1 0 0 I I #
vertex $-1 $627 $647 #
straight-curve $-1 3.6655555555555557 0 2.1000000000000001 1 0 0 I I #
face $-1 $648 $649 $2 $-1 $650 forward single #
loop $-1 $-1 $651 $628 #
torus-surface $-1 3.75 0 1.75 0 1 0 0.25 0.099999999999999992 0 0 -1 forward_v I I I I #
coedge $-1 $652 $632 $653 $654 forward $629 $-1 #
coedge $-1 $651 $653 $631 $643 forward $639 $-1 #
edge $-1 $634 0 $636 3.1415926535897913 $631 $655 forward 7 unknown #
coedge $-1 $632 $652 $651 $656 reversed $629 $-1 #
ellipse-curve $-1 3.75 1.1102230246251565e-016 2 1 0 0 0 -1.3551442953896321e-016 0.10000000000000009 1 I I #
point $-1 3.75 1.2246063538223771e-017 1.8999999999999999 #
point $-1 3.75 -2.4492127076447543e-017 2.1000000000000001 #
face $-1 $657 $658 $2 $-1 $659 forward single #
loop $-1 $-1 $660 $638 #
cone-surface $-1 4 0 1.75 0 0 -1 0.099999999999999992 0 0 1 I I 0 1 0.099999999999999992 forward I I I I #
coedge $-1 $661 $642 $644 $656 forward $639 $-1 #
coedge $-1 $644 $641 $662 $663 reversed $629 $-1 #
coedge $-1 $642 $661 $641 $654 reversed $639 $-1 #
edge $-1 $634 0 $664 1.5707963267948966 $641 $665 forward 7 unknown #
ellipse-curve $-1 3.75 -9.3675067702747583e-017 2 1 0 0 0 1.0592113124097136e-016 -0.10000000000000009 1 I I #
edge $-1 $636 0 $666 1.5707963267948966 $644 $667 forward 7 unknown #
face $-1 $-1 $668 $2 $-1 $669 forward single #
loop $-1 $-1 $670 $648 #
cone-surface $-1 4 0 1.75 0 0 -1 0.099999999999999992 0 0 1 I I 0 1 0.099999999999999992 forward I I I I #
coedge $-1 $671 $672 $673 $674 forward $649 $-1 #
coedge $-1 $653 $651 $672 $675 reversed $639 $-1 #
coedge $-1 $670 $673 $652 $663 forward $658 $-1 #
edge $-1 $666 0 $664 3.1415926535897931 $652 $676 forward 7 unknown #
vertex $-1 $663 $677 #
ellipse-curve $-1 3.75 1.2246063538223771e-017 1.75 0 1 0 0 0 0.14999999999999991 1 I I #
vertex $-1 $656 $678 #
ellipse-curve $-1 3.75 -2.4492127076447543e-017 1.75 0 1 0 0 0 0.35000000000000009 1 I I #
loop $-1 $-1 $679 $657 #
plane-surface $-1 4 0 0 0 0 -1 1 0 0 forward_v I I I I #
coedge $-1 $680 $662 $681 $682 forward $658 $-1 #
coedge $-1 $681 $660 $679 $683 reversed $649 $-1 #
coedge $-1 $660 $681 $661 $675 forward $649 $-1 #
coedge $-1 $662 $680 $660 $674 reversed $658 $-1 #
edge $-1 $666 0 $684 1.75 $673 $685 forward 7 unknown #
edge $-1 $664 0 $666 3.1415926535897931 $661 $686 forward 7 unknown #
ellipse-curve $-1 4 0 1.75 0 0 -1 0.099999999999999645 0 0 1 I I #
point $-1 3.8999999999999999 -1.2246063538223771e-017 1.75 #
point $-1 4.0999999999999996 0 1.75 #
coedge $-1 $687 $687 $671 $683 forward $668 $-1 #
coedge $-1 $673 $670 $687 $688 reversed $658 $-1 #
coedge $-1 $672 $671 $670 $682 reversed $649 $-1 #
edge $-1 $664 0 $689 1.75 $670 $690 forward 7 unknown #
edge $-1 $689 0 $684 3.1415926535897887 $679 $691 forward 7 unknown #
vertex $-1 $688 $692 #
straight-curve $-1 4.0999999999999996 0 1.75 0 0 -1 I I #
ellipse-curve $-1 4 0 1.75 0 0 -1 -0.10000000000000009 -1.2246063538223771e-017 0 1 I I #
coedge $-1 $679 $679 $680 $688 forward $668 $-1 #
edge $-1 $684 0 $689 3.1415926535897971 $687 $693 forward 7 unknown #
vertex $-1 $688 $694 #
straight-curve $-1 3.8999999999999999 -1.2246063538223771e-017 1.75 0 0 -1 I I #
ellipse-curve $-1 4 -2.2204460492503131e-016 0 0 0 -1 -0.10000000000000009 2.2204460492503131e-016 0 1 I I #
point $-1 4.0999999999999996 0 0 #
ellipse-curve $-1 3.9999999999999996 -2.0816681711721685e-016 0 0 0 -1 0.10000000000000009 2.0816681711721685e-016 0 1 I I #
point $-1 3.8999999999999999 0 0 #
End-of-ACIS-data 