600 0 1 0           
100 GICL ACIS Healer - Source: /gicl/data5/repository/PTC/V18/bboxrev2/boombox/ptc_std128_.prt.sat - 6 0 18 ACIS 6.0.3 Solaris 24 Sat Apr 13 22:51:02 2002 
1 9.999999999999999547e-07 1.000000000000000036e-10 
body $-1 $1 $-1 $-1 #
lump $-1 $-1 $2 $0 #
shell $-1 $-1 $-1 $3 $-1 $1 #
face $-1 $4 $5 $2 $-1 $6 reversed single #
face $-1 $7 $8 $2 $-1 $9 forward single #
loop $-1 $10 $11 $3 #
plane-surface $-1 0 0 7 0 0 -1 1 0 0 forward_v I I I I #
face $-1 $12 $13 $2 $-1 $14 forward single #
loop $-1 $-1 $15 $4 #
cone-surface $-1 0 0 7.349999999999999645 0 0 -1 1.75 0 0 1 I I 0 1 1.75 forward I I I I #
loop $-1 $-1 $16 $3 #
coedge $-1 $17 $17 $18 $19 reversed $5 $-1 #
face $-1 $20 $21 $2 $-1 $22 reversed single #
loop $-1 $-1 $23 $7 #
cone-surface $-1 0 0 7.349999999999999645 0 0 -1 1.75 0 0 1 I I 0 1 1.75 forward I I I I #
coedge $-1 $18 $24 $25 $26 forward $8 $-1 #
coedge $-1 $27 $27 $28 $29 reversed $10 $-1 #
coedge $-1 $11 $11 $30 $31 forward $5 $-1 #
coedge $-1 $32 $15 $11 $19 forward $8 $-1 #
edge $-1 $33 0 $34 3.141592653589793116 $11 $35 forward 7 unknown #
face $-1 $36 $37 $2 $-1 $38 reversed single #
loop $-1 $39 $40 $12 #
cone-surface $-1 -2.399999999999999911 0 3 1 0 0 0 0.75 0 1 I I 0 1 0.75 forward I I I I #
coedge $-1 $30 $41 $32 $42 forward $13 $-1 #
coedge $-1 $15 $43 $44 $45 forward $8 $-1 #
coedge $-1 $46 $30 $15 $26 reversed $13 $-1 #
edge $-1 $47 0 $33 3.25 $15 $48 forward 7 unknown #
coedge $-1 $16 $16 $49 $50 reversed $10 $-1 #
coedge $-1 $51 $52 $16 $29 forward $53 $-1 #
edge $-1 $54 0 $55 3.141592653589793116 $16 $56 forward 7 unknown #
coedge $-1 $25 $23 $17 $31 reversed $13 $-1 #
edge $-1 $33 0 $34 3.141592653589793116 $17 $57 forward 7 unknown #
coedge $-1 $58 $18 $23 $42 reversed $8 $-1 #
vertex $-1 $31 $59 #
vertex $-1 $31 $60 #
ellipse-curve $-1 0 0 7 0 0 -1 -1.75 0 0 1 I I #
face $-1 $61 $62 $2 $-1 $63 reversed single #
loop $-1 $-1 $64 $20 #
cone-surface $-1 -2.399999999999999911 0 3 1 0 0 0 0.75 0 1 I I 0 1 0.75 forward I I I I #
loop $-1 $-1 $65 $12 #
coedge $-1 $66 $67 $68 $69 reversed $21 $-1 #
coedge $-1 $23 $70 $67 $71 forward $13 $-1 #
edge $-1 $72 0 $34 3.25 $32 $73 forward 7 unknown #
coedge $-1 $24 $74 $75 $76 forward $8 $-1 #
coedge $-1 $77 $66 $24 $45 reversed $21 $-1 #
edge $-1 $78 0 $47 1 $24 $79 forward 7 unknown #
coedge $-1 $80 $25 $66 $81 forward $13 $-1 #
vertex $-1 $45 $82 #
straight-curve $-1 -1.75 2.143061119189160202e-16 3.75 0 0 1 I I #
coedge $-1 $83 $84 $27 $50 forward $85 $-1 #
edge $-1 $55 0 $54 3.141592653589793116 $27 $86 forward 7 unknown #
coedge $-1 $87 $28 $84 $88 reversed $53 $-1 #
coedge $-1 $28 $87 $83 $89 forward $53 $-1 #
loop $-1 $-1 $51 $90 #
vertex $-1 $50 $91 #
vertex $-1 $50 $92 #
ellipse-curve $-1 5.551115123125782702e-17 -5.551115123125782702e-17 7 0 0 1 -5.551115123125782702e-17 -1.375 0 1 I I #
ellipse-curve $-1 0 0 7 0 0 1 -1.75 0 0 1 I I #
coedge $-1 $93 $32 $94 $95 forward $8 $-1 #
point $-1 -1.75 0 7 #
point $-1 1.75 0 7 #
face $-1 $96 $97 $2 $-1 $98 reversed single #
loop $-1 $-1 $99 $36 #
cone-surface $-1 0 0 2.799999999999999822 0 0 1 0 0.5 0 1 I I 0 1 0.5 forward I I I I #
coedge $-1 $100 $101 $93 $102 reversed $37 $-1 #
coedge $-1 $103 $103 $104 $105 forward $39 $-1 #
coedge $-1 $44 $40 $46 $81 reversed $21 $-1 #
coedge $-1 $40 $94 $41 $71 reversed $21 $-1 #
coedge $-1 $101 $106 $40 $69 forward $37 $-1 #
edge $-1 $107 -4.440892098500626162e-16 $108 3.162277660168378635 $40 $109 forward 7 unknown #
coedge $-1 $41 $110 $101 $111 forward $13 $-1 #
edge $-1 $108 0 $72 1 $41 $112 forward 7 unknown #
vertex $-1 $95 $113 #
straight-curve $-1 1.75 -4.286122238378320404e-16 3.75 0 0 1 I I #
coedge $-1 $43 $114 $115 $116 forward $8 $-1 #
coedge $-1 $106 $100 $43 $76 reversed $37 $-1 #
edge $-1 $117 0 $78 1 $43 $118 forward 7 unknown #
coedge $-1 $94 $44 $100 $119 forward $21 $-1 #
vertex $-1 $45 $120 #
intcurve-curve $-1 forward { surfintcur full nurbs 3 open 10 
	0 3 0.1102437172568857399 1 0.221107617691783942 1 0.3324348336980666452 1 0.4440337047939224013 1 
	0.5556727366072777841 1 0.6671735226656272388 1 0.7784309786364213002 1 0.889381999065455342 1 1 3 
	-1.581138830084189761 0.7499999999999996669 3 1 
	-1.581090741362060292 0.7502784933961564873 3.040109063623249064 1 
	-1.584171437387065673 0.7435807214864975645 3.121032417725004837 1.000000000000000222 
	-1.598723214866684117 0.7122672912682912472 3.247125567271285984 1 
	-1.622317991453093411 0.6574648260536851696 3.369197387740652694 0.999999999999999889 
	-1.651794610590983758 0.5804403368635113747 3.481442966873227629 1 
	-1.68278764117553048 0.4843971662974413395 3.577912536267002785 1.000000000000000222 
	-1.711048250820944361 0.3735720418180905611 3.654911640548122786 1 
	-1.733203541601877395 0.2526064545649405746 3.710303485865607875 1.000000000000000222 
	-1.747000038691513213 0.1259709803403067374 3.742981285919491974 1 
	-1.749992587433710556 0.04211877954403787233 3.750113550397108142 1 
	-1.75 2.143061119189160202e-16 3.75 1 
	0.001000000000000000021 
	cone -2.399999999999999911 0 3 1 0 0 0 0.75 0 1 I I 0 1 0.75 forward I I I I 
	cone 0 0 7.349999999999999645 0 0 -1 1.75 0 0 1 I I 0 1 1.75 forward I I I I 
	nullbs 
	nullbs 
	I I 
	0 
	0 
	0 
	} I I #
coedge $-1 $115 $46 $106 $121 forward $13 $-1 #
edge $-1 $47 0 $107 1 $46 $122 forward 7 unknown #
point $-1 -1.75 2.143061119189160202e-16 3.75 #
coedge $-1 $123 $49 $52 $89 reversed $85 $-1 #
coedge $-1 $49 $123 $51 $88 forward $85 $-1 #
loop $-1 $-1 $83 $124 #
ellipse-curve $-1 -5.551115123125782702e-17 5.551115123125782702e-17 7 0 0 1 5.551115123125782702e-17 1.375 0 1 I I #
coedge $-1 $52 $51 $125 $126 forward $53 $-1 #
edge $-1 $127 0 $55 0.5 $84 $128 forward 7 unknown #
edge $-1 $129 0 $54 0.5 $83 $130 forward 7 unknown #
face $-1 $124 $53 $2 $-1 $131 reversed single #
point $-1 0 -1.375 7 #
point $-1 0 1.375 7 #
coedge $-1 $132 $58 $64 $102 forward $8 $-1 #
coedge $-1 $67 $77 $58 $95 reversed $21 $-1 #
edge $-1 $72 0 $133 1 $58 $134 forward 7 unknown #
face $-1 $90 $135 $2 $-1 $136 forward single #
loop $-1 $-1 $137 $61 #
cone-surface $-1 0 0 2.799999999999999822 0 0 1 0 0.5 0 1 I I 0 1 0.5 forward I I I I #
coedge $-1 $138 $104 $139 $140 forward $62 $-1 #
coedge $-1 $75 $64 $77 $119 reversed $37 $-1 #
coedge $-1 $64 $68 $70 $111 reversed $37 $-1 #
edge $-1 $133 0 $141 0.999999999999999889 $93 $142 forward 7 unknown #
coedge $-1 $65 $65 $143 $144 forward $39 $-1 #
coedge $-1 $99 $145 $65 $105 reversed $62 $-1 #
edge $-1 $146 0 $147 1 $65 $148 forward 7 unknown #
coedge $-1 $68 $75 $80 $121 reversed $37 $-1 #
vertex $-1 $121 $149 #
vertex $-1 $71 $150 #
straight-curve $-1 -1.581138830084188873 -0.75 3 1 0 0 I I #
coedge $-1 $70 $151 $132 $152 forward $13 $-1 #
edge $-1 $141 0 $108 1 $70 $153 forward 7 unknown #
intcurve-curve $-1 forward { surfintcur full nurbs 3 open 10 
	0 3 0.1102477485902485788 1 0.2211147276665333117 1 0.3324404889974460486 1 0.4440352571374934776 1 
	0.5556711093498508669 1 0.6671728509748539038 1 0.7784331778786196532 1 0.8893860875881455241 1 1 3 
	1.581138830084189761 -0.749999999999999889 3 1 
	1.581091109571279407 -0.7502779409078099704 3.040127284137931873 1 
	1.584173536778280988 -0.7435763609812284791 3.121079424674284564 0.999999999999999889 
	1.598736854708384003 -0.7122372229948588096 3.247214884052938011 1.000000000000000222 
	1.622332763347367868 -0.6574280951740172352 3.369257013526452127 0.999999999999999778 
	1.651798705836473369 -0.5804265099073881995 3.481454086472632437 0.999999999999999889 
	1.6827814468155462 -0.4844176215433137478 3.577894323108954833 1.000000000000000222 
	1.711046700604801796 -0.3735816192145669512 3.654908272139490322 0.999999999999999778 
	1.733208245841651785 -0.2525833431586280153 3.710315022263229068 1 
	1.747003651891447351 -0.1259109586297200156 3.742989716440866754 1 
	1.74999414290582056 -0.042091960966887422 3.750117160850391151 1 
	1.75 -4.286122238378320404e-16 3.75 1 
	0.001000000000000000021 
	cone -2.399999999999999911 0 3 1 0 0 0 0.75 0 1 I I 0 1 0.75 forward I I I I 
	cone 0 0 7.349999999999999645 0 0 -1 1.75 0 0 1 I I 0 1 1.75 forward I I I I 
	nullbs 
	nullbs 
	I I 
	0 
	0 
	0 
	} I I #
point $-1 1.75 -4.286122238378320404e-16 3.75 #
coedge $-1 $74 $132 $154 $155 reversed $8 $-1 #
coedge $-1 $151 $80 $74 $116 reversed $13 $-1 #
edge $-1 $156 0 $117 1.25 $74 $157 forward 7 unknown #
vertex $-1 $76 $158 #
intcurve-curve $-1 forward { surfintcur full nurbs 3 open 10 
	0 3 0.110613912411835269 1 0.2215668221213457911 1 0.3328271490251085707 1 0.4443288906501190461 1 
	0.5559647428624850951 1 0.6675595110025386303 1 0.7788852723334557249 1 0.8897522514097450097 1 1 3 
	-1.75 2.143061119189160202e-16 2.25 1 
	-1.749994142905822336 0.0420919609668008593 2.249882839149606184 0.999999999999999778 
	-1.747003651891458675 0.125910958629489117 2.257010283559108821 0.999999999999999778 
	-1.733208245841709516 0.2525833431582152899 2.289684977736633709 1 
	-1.711046700604891946 0.3735816192141675485 2.345091727860277864 1 
	-1.682781446815625248 0.4844176215430476828 2.42210567689081202 1.000000000000000222 
	-1.651798705836529324 0.5804265099072337675 2.518545913527174385 0.999999999999999778 
	-1.622332763347403617 0.6574280951739305268 2.630742986473389333 1 
	-1.598736854708402211 0.7122372229948196187 2.752785115946935424 1.000000000000000222 
	-1.584173536778285651 0.7435763609812184871 2.8789205753256355 0.999999999999999778 
	-1.581091109571280295 0.7502779409078085271 2.959872715862037929 1 
	-1.581138830084189761 0.7499999999999996669 3 1 
	0.001000000000000000021 
	cone -2.399999999999999911 0 3 1 0 0 0 0.75 0 1 I I 0 1 0.75 forward I I I I 
	cone 0 0 7.349999999999999645 0 0 -1 1.75 0 0 1 I I 0 1 1.75 forward I I I I 
	nullbs 
	nullbs 
	I I 
	0 
	0 
	0 
	} I I #
edge $-1 $78 -2.220446049250313081e-16 $133 3.162277660168379079 $77 $159 forward 7 unknown #
point $-1 -1.581138830084189761 0.7499999999999996669 3 #
edge $-1 $107 0 $117 1 $80 $160 forward 7 unknown #
intcurve-curve $-1 forward { surfintcur full nurbs 3 open 10 
	0 3 0.1106138304322763222 1 0.2215661300582839333 1 0.3328264668455764852 1 0.4443285406495838252 1 
	0.555964716697243011 1 0.667559517922390544 1 0.7788852208789862619 1 0.8897521426768117969 1 1 3 
	-1.75 2.143061119189160202e-16 3.75 1 
	-1.749994017396839574 -0.04209250233899911736 3.7501168484955687 1 
	-1.747003490101704193 -0.1259114972660729248 3.742989328980076191 1.000000000000000222 
	-1.733209495922553245 -0.2525737505553781181 3.710318017953126546 0.9999999999999996669 
	-1.711048368275924547 -0.3735745830649291888 3.654912621968093411 0.999999999999999778 
	-1.682782397665505414 -0.4844146038155138778 3.577897225986092167 1.000000000000000222 
	-1.651798621192291039 -0.5804268371405201243 3.481453904728480264 0.999999999999999889 
	-1.622332752347455775 -0.6574280851637639422 3.369256915267624386 1.000000000000000222 
	-1.598736962605707523 -0.7122369841005448121 3.247215352045897507 1 
	-1.58417364540668415 -0.7435761296606598902 3.121081058614418868 1 
	-1.581091155386193936 -0.7502778447514125704 3.040128008572733354 1 
	-1.581138830084189317 -0.7500000000000006661 3 1 
	0.001000000000000000021 
	cone -2.399999999999999911 0 3 1 0 0 0 0.75 0 1 I I 0 1 0.75 forward I I I I 
	cone 0 0 7.349999999999999645 0 0 -1 1.75 0 0 1 I I 0 1 1.75 forward I I I I 
	nullbs 
	nullbs 
	I I 
	0 
	0 
	0 
	} I I #
coedge $-1 $84 $83 $161 $162 reversed $85 $-1 #
face $-1 $163 $85 $2 $-1 $164 reversed single #
coedge $-1 $161 $161 $87 $126 reversed $135 $-1 #
edge $-1 $127 0 $129 3.141592653589793116 $125 $165 forward 7 unknown #
vertex $-1 $162 $166 #
straight-curve $-1 0 1.375 6.5 0 0 1 I I #
vertex $-1 $162 $167 #
straight-curve $-1 1.68383373650576873e-16 -1.375 6.5 0 0 1 I I #
cone-surface $-1 0 0 2.799999999999999822 0 0 1 0 1.375 0 1 I I 0 1 1.375 forward I I I I #
coedge $-1 $114 $93 $110 $152 reversed $8 $-1 #
vertex $-1 $102 $168 #
intcurve-curve $-1 forward { surfintcur full nurbs 3 open 10 
	0 3 0.110617883100831732 1 0.2215682726125108581 1 0.3328257452954845874 1 0.4443269119354873453 1 
	0.5559663287334891679 1 0.6675652320514747773 1 0.7788923735516880553 1 0.8897562003872668823 1 1 3 
	1.75 0 3.75 1 
	1.74999246651108975 0.04211914812430889166 3.750113247467141253 0.999999999999999889 
	1.746999898512362481 0.1259710760478076896 3.742980948767455462 1 
	1.733204888326387083 0.2525961869797998527 3.71030671429468617 1 
	1.711050048982869276 0.3735644435712003886 3.654916329596452851 0.999999999999999889 
	1.682788612125990291 0.48439413508100021 3.577915526489197973 1 
	1.651794331194206045 0.5804412271403008861 3.481442145308093483 1 
	1.622317846161257071 0.657465134202570467 3.369196680688387069 1.000000000000000222 
	1.598723250972153842 0.712267211628470176 3.24712555739713471 0.999999999999999778 
	1.584171527555517933 0.7435805287946356534 3.121033716142859848 1 
	1.581090783773407615 0.750278403104189251 3.04010966250050263 0.999999999999999778 
	1.581138830084189761 0.749999999999999889 3 1 
	0.001000000000000000021 
	cone -2.399999999999999911 0 3 1 0 0 0 0.75 0 1 I I 0 1 0.75 forward I I I I 
	cone 0 0 7.349999999999999645 0 0 -1 1.75 0 0 1 I I 0 1 1.75 forward I I I I 
	nullbs 
	nullbs 
	I I 
	0 
	0 
	0 
	} I I #
loop $-1 $169 $125 $96 #
plane-surface $-1 0 0 6.5 0 0 1 0 1 0 forward_v I I I I #
coedge $-1 $170 $143 $145 $171 forward $97 $-1 #
coedge $-1 $145 $99 $172 $173 reversed $62 $-1 #
coedge $-1 $143 $170 $99 $140 reversed $97 $-1 #
edge $-1 $146 4.440892098500626162e-16 $174 2.940983005625052993 $139 $175 forward 7 unknown #
vertex $-1 $152 $176 #
intcurve-curve $-1 forward { surfintcur full nurbs 3 open 10 
	0 3 0.1102478573231828463 1 0.2211147791210027469 1 0.3324404820775925806 1 0.4440352833027333412 1 
	0.5556714593503855326 1 0.6671735331543869885 1 0.7784338699416795126 1 0.8893861695676973378 1 0.999999999999999889 3 
	1.581138830084189761 0.749999999999999889 3 1 
	1.581091155386193936 0.7502778447514119042 2.959871991427288407 1.000000000000000222 
	1.584173645406680819 0.7435761296606666626 2.878918941385643748 0.999999999999999778 
	1.598736962605689982 0.712236984100584003 2.752784647954227282 1.000000000000000222 
	1.62233275234741714 0.6574280851638579781 2.630743084732549697 1 
	1.651798621192227978 0.5804268371406932081 2.518546095271735563 1.000000000000000222 
	1.682782397665425256 0.4844146038157874923 2.422102774014144533 1 
	1.711048368275839726 0.3735745830653087185 2.345087378032125969 1 
	1.733209495922490406 0.2525737505558020568 2.289681982047024889 1 
	1.747003490101686873 0.1259114972664124588 2.257010671019964221 1 
	1.749994017396835133 0.0420925023391346062 2.249883151504441514 1.000000000000000222 
	1.75 0 2.25 1 
	0.001000000000000000021 
	cone -2.399999999999999911 0 3 1 0 0 0 0.75 0 1 I I 0 1 0.75 forward I I I I 
	cone 0 0 7.349999999999999645 0 0 -1 1.75 0 0 1 I I 0 1 1.75 forward I I I I 
	nullbs 
	nullbs 
	I I 
	0 
	0 
	0 
	} I I #
coedge $-1 $137 $139 $103 $144 reversed $97 $-1 #
edge $-1 $147 0 $146 1 $103 $177 forward 7 unknown #
coedge $-1 $104 $138 $137 $171 reversed $62 $-1 #
vertex $-1 $144 $178 #
vertex $-1 $144 $179 #
intcurve-curve $-1 forward { surfintcur full nurbs 3 open 18 
	0 3 0.05833073082833586248 1 0.1170384740337150897 1 0.1760004932466621985 1 0.2351146769277383808 1 
	0.2942497942809816358 1 0.3532889037972626878 1 0.4121491953203662573 1 0.4707769942007802855 1 0.5292155304586156905 1 
	0.5878403607965602129 1 0.646698556103978528 1 0.7057369671776502207 1 0.7648706596127028412 1 0.8239827947288440591 1 
	0.8829447891529105252 1 0.9416568961275745275 1 1 3 
	0 -0.5 3.559016994374947451 1 
	0.02586548811729434683 -0.5004459818846673791 3.558787363842895957 1 
	0.07936591626865015237 -0.4959673729724105029 3.562599701967269272 1 
	0.1686049746354907342 -0.4739263354987748866 3.5817521267851542 1 
	0.2551681485781732706 -0.4335877576875376005 3.612950430263946355 0.999999999999999778 
	0.3346779116689148625 -0.3758337712338796766 3.650519583367189735 1 
	0.4017035798607708763 -0.3031059526451522212 3.6878316401452369 1.000000000000000222 
	0.4527091720955547238 -0.2194662791984604566 3.719098540710093381 1 
	0.4857416208374674138 -0.130256276803379506 3.740506536663064097 1.000000000000000222 
	0.5006887854570096774 -0.04122506489538516061 3.750458190611144715 0.999999999999999778 
	0.5007010873778574567 0.04102135180223995259 3.750466447285379257 0.999999999999999889 
	0.4858168172484113589 0.1299517442710746151 3.740556352686970953 1.000000000000000222 
	0.4528679804190729463 0.2191366925054377413 3.719199456465417164 0.999999999999999778 
	0.4019221258395097029 0.302815609639726202 3.687960516976942937 1.000000000000000222 
	0.3349725546148332178 0.3755652142955504535 3.650674622625599053 0.999999999999999778 
	0.2555734745500926608 0.4333450487189157152 3.613123378632213001 1.000000000000000222 
	0.1690686932351880001 0.4737605652328334971 3.581890440724913471 1 
	0.07976687932966877725 0.4959209658047971647 3.562641321764274949 1.000000000000000222 
	0.02602582957878820866 0.5004343444994431289 3.558799322485755923 0.999999999999999889 
	0 0.499999999999999778 3.559016994374947451 1 
	0.001000000000000000021 
	cone -2.399999999999999911 0 3 1 0 0 0 0.75 0 1 I I 0 1 0.75 forward I I I I 
	cone 0 0 2.799999999999999822 0 0 1 0 0.5 0 1 I I 0 1 0.5 forward I I I I 
	nullbs 
	nullbs 
	I I 
	0 
	0 
	0 
	} I I #
point $-1 -1.581138830084189317 -0.7500000000000006661 3 #
point $-1 1.581138830084189761 -0.749999999999999889 3 #
coedge $-1 $110 $115 $180 $181 forward $13 $-1 #
edge $-1 $182 0 $141 1.25 $132 $183 forward 7 unknown #
intcurve-curve $-1 forward { surfintcur full nurbs 3 open 10 
	0 3 0.1106180009344779058 1 0.2215690213634581018 1 0.3328264773342420879 1 0.4443272633926168558 1 
	0.5559662952060014929 1 0.6675651663018776771 1 0.7788923823081763675 1 0.8897562827430910426 1 1 3 
	1.75 -4.286122238378320404e-16 2.25 1 
	1.749992587433715663 -0.04211877954374040889 2.249886449602882532 1 
	1.747000038691549406 -0.1259709803395107353 2.257018714080424093 1.000000000000000222 
	1.7332035416020799 -0.2526064545634975622 2.289696514133905403 0.999999999999999889 
	1.711048250821254779 -0.3735720418167043366 2.345088359451072524 1 
	1.682787641175809146 -0.4843971662965112501 2.422087463732183643 1 
	1.651794610591181822 -0.5804403368629637017 2.518557033126086697 0.999999999999999889 
	1.622317991453221753 -0.6574648260533758615 2.630802612258773099 1.000000000000000222 
	1.598723214866751396 -0.7122672912681435875 2.752874432728265042 0.999999999999999889 
	1.584171437387081882 -0.7435807214864639247 2.878967582274704284 1 
	1.581090741362062957 -0.7502784933961524905 2.959890936376643022 1 
	1.581138830084189761 -0.749999999999999889 3 1 
	0.001000000000000000021 
	cone -2.399999999999999911 0 3 1 0 0 0 0.75 0 1 I I 0 1 0.75 forward I I I I 
	cone 0 0 7.349999999999999645 0 0 -1 1.75 0 0 1 I I 0 1 1.75 forward I I I I 
	nullbs 
	nullbs 
	I I 
	0 
	0 
	0 
	} I I #
coedge $-1 $180 $180 $114 $155 forward $184 $-1 #
edge $-1 $156 0 $182 3.141592653589793116 $154 $185 forward 7 unknown #
vertex $-1 $181 $186 #
straight-curve $-1 -1.75 2.143061119189160202e-16 1 0 0 1 I I #
point $-1 -1.75 2.143061119189160202e-16 2.25 #
straight-curve $-1 -1.581138830084189539 0.75 3 1 0 0 I I #
intcurve-curve $-1 forward { surfintcur full nurbs 3 open 10 
	0 3 0.1102437996127014902 1 0.2211076264482554343 1 0.3324347679484437879 1 0.4440336712663987551 1 
	0.5556730880643587778 1 0.6671742547043264526 1 0.7784317273873119225 1 0.8893821168990643233 1 1 3 
	-1.581138830084189317 -0.7500000000000006661 3 1 
	-1.581090783773404507 -0.7502784031041936919 2.959890337499640811 0.999999999999999778 
	-1.584171527555496617 -0.7435805287946797293 2.878966283857533615 0.999999999999999889 
	-1.598723250972059251 -0.7122672116286770105 2.752874442603508776 1 
	-1.622317846161069221 -0.6574651342030239931 2.630803319312455812 1 
	-1.651794331193914056 -0.5804412271411077962 2.518557854692919484 1 
	-1.682788612125584171 -0.4843941350823625092 2.422084473511989078 1 
	-1.711050048982422744 -0.3735644435731935165 2.345083670404704446 1 
	-1.733204888326089321 -0.2525961869819090544 2.289693285706032366 1 
	-1.746999898512302973 -0.1259710760490713177 2.257019051232682649 1 
	-1.749992466511078648 -0.04211914812478938924 2.249886752532877399 1.000000000000000222 
	-1.75 2.143061119189160202e-16 2.25 1 
	0.001000000000000000021 
	cone -2.399999999999999911 0 3 1 0 0 0 0.75 0 1 I I 0 1 0.75 forward I I I I 
	cone 0 0 7.349999999999999645 0 0 -1 1.75 0 0 1 I I 0 1 1.75 forward I I I I 
	nullbs 
	nullbs 
	I I 
	0 
	0 
	0 
	} I I #
coedge $-1 $125 $125 $123 $162 forward $135 $-1 #
edge $-1 $127 0 $129 3.141592653589793116 $161 $187 forward 7 unknown #
face $-1 $188 $189 $2 $-1 $190 reversed single #
cone-surface $-1 0 0 2.799999999999999822 0 0 1 0 1.375 0 1 I I 0 1 1.375 forward I I I I #
ellipse-curve $-1 5.551115123125782702e-17 1.11022302462515654e-16 6.5 0 0 -1 -5.551115123125782702e-17 1.375 0 1 I I #
point $-1 0 1.375 6.5 #
point $-1 -1.68383373650576873e-16 -1.375 6.5 #
point $-1 1.581138830084189761 0.749999999999999889 3 #
loop $-1 $-1 $191 $96 #
coedge $-1 $139 $137 $191 $192 forward $97 $-1 #
edge $-1 $147 -4.440892098500626162e-16 $193 2.940983005625052105 $137 $194 forward 7 unknown #
coedge $-1 $191 $191 $138 $173 forward $169 $-1 #
edge $-1 $193 0 $174 3.141592653589793116 $172 $195 forward 7 unknown #
vertex $-1 $140 $196 #
straight-curve $-1 6.123031769111886291e-17 -0.5 3.559016994374947007 0 0 1 I I #
point $-1 1.75 -4.286122238378320404e-16 2.25 #
intcurve-curve $-1 forward { surfintcur full nurbs 3 open 18 
	0 3 0.05833035699047137146 1 0.1170380089638321797 1 0.1760002989352306979 1 0.2351150070564349825 1 
	0.2942507379947103541 1 0.3532903461992144001 1 0.4121507795103060978 1 0.4707781388419766122 1 0.5292173144709483301 1 
	0.5878433191365574073 1 0.6467016834641413636 1 0.7057395424103769521 1 0.7648724825643560266 1 0.8239840366281833139 1 
	0.8829456036388820817 1 0.9416573275447425173 1 1 3 
	0 0.499999999999999778 3.559016994374947451 1 
	-0.02586047483128350866 0.5004463924028378363 3.55878695535381917 1 
	-0.07935393961682292441 0.4959686661080547898 3.56259852524591869 1 
	-0.1685909727487477361 0.4739315647172873125 3.581747798246594172 1 
	-0.2551631776671506868 0.4335916061481948081 3.612947901372841386 1.000000000000000222 
	-0.3346851466398292896 0.375828884620654613 3.650522994527326759 1 
	-0.4017205109469217383 0.3030852466702499415 3.687841429552237038 1 
	-0.4527283790419838194 0.2194293111256607476 3.71911067729889 0.999999999999999889 
	-0.485754241712714363 0.1302059954217424653 3.740514880677567433 0.999999999999999778 
	-0.5006903120001339191 0.04119891721743385027 3.750459225237174898 1.000000000000000222 
	-0.5006997151450818251 -0.04107098102980221571 3.750465511495590487 0.999999999999999889 
	-0.4857941798253337939 -0.1300421080722487521 3.740541363335266212 1.000000000000000222 
	-0.4528271685775470123 -0.2192186884438250549 3.71917359033078343 0.999999999999999778 
	-0.4018774139113177046 -0.30287243274395792 3.687934405053163278 0.999999999999999889 
	-0.3349350555740501778 -0.375596895764300498 3.650655490043634099 1 
	-0.255543828079880686 -0.4333616422987425221 3.613111240598029461 1 
	-0.1690466501483492701 -0.4737677762583735741 3.58188434644491549 0.999999999999999889 
	-0.07975391586326278925 -0.4959223768646735531 3.562640068477024524 1 
	-0.02602119847024237514 -0.5004344075723065055 3.558799181023408309 1 
	0 -0.5 3.559016994374947451 1 
	0.001000000000000000021 
	cone -2.399999999999999911 0 3 1 0 0 0 0.75 0 1 I I 0 1 0.75 forward I I I I 
	cone 0 0 2.799999999999999822 0 0 1 0 0.5 0 1 I I 0 1 0.5 forward I I I I 
	nullbs 
	nullbs 
	I I 
	0 
	0 
	0 
	} I I #
point $-1 0 -0.5 3.559016994374947451 #
point $-1 0 0.499999999999999778 3.559016994374947451 #
coedge $-1 $154 $154 $151 $181 reversed $184 $-1 #
edge $-1 $156 0 $182 3.141592653589793116 $180 $197 forward 7 unknown #
vertex $-1 $181 $198 #
straight-curve $-1 1.75 -4.286122238378320404e-16 1 0 0 1 I I #
loop $-1 $-1 $154 $163 #
ellipse-curve $-1 0 5.551115123125782702e-17 1 0 0 -1 -1.75 1.587949606876581932e-16 0 1 I I #
point $-1 -1.75 2.143061119189160202e-16 1 #
ellipse-curve $-1 -5.551115123125782702e-17 1.11022302462515654e-16 6.5 0 0 1 5.551115123125782702e-17 1.375 0 1 I I #
face $-1 $199 $200 $2 $-1 $201 forward single #
loop $-1 $184 $202 $163 #
plane-surface $-1 0 0 1 0 0 -1 1 0 0 forward_v I I I I #
coedge $-1 $172 $172 $170 $192 reversed $169 $-1 #
edge $-1 $193 0 $174 3.141592653589793116 $170 $203 forward 7 unknown #
vertex $-1 $192 $204 #
straight-curve $-1 0 0.5 3.559016994374947895 0 0 1 I I #
ellipse-curve $-1 0 0 6.5 0 0 -1 0 0.5 0 1 I I #
point $-1 0 -0.5 6.5 #
ellipse-curve $-1 0 -5.551115123125782702e-17 1 0 0 1 -1.75 2.698172631501738472e-16 0 1 I I #
point $-1 1.75 -4.286122238378320404e-16 1 #
face $-1 $205 $206 $2 $-1 $207 forward single #
loop $-1 $-1 $208 $188 #
cone-surface $-1 0 0 7.349999999999999645 0 0 -1 2 0 0 1 I I 0 1 2 forward I I I I #
coedge $-1 $209 $209 $210 $211 forward $189 $-1 #
ellipse-curve $-1 0 0 6.5 0 0 1 0 0.5 0 1 I I #
point $-1 0 0.5 6.5 #
face $-1 $-1 $212 $2 $-1 $213 forward single #
loop $-1 $-1 $214 $199 #
plane-surface $-1 0 0 0 0 0 -1 1 0 0 forward_v I I I I #
coedge $-1 $215 $216 $217 $218 forward $200 $-1 #
coedge $-1 $202 $202 $219 $220 reversed $189 $-1 #
coedge $-1 $216 $215 $202 $211 reversed $200 $-1 #
edge $-1 $221 -1.224606353822377258e-16 $222 3.141592653589793116 $202 $223 forward 7 unknown #
loop $-1 $-1 $219 $205 #
cone-surface $-1 0 0 7.349999999999999645 0 0 -1 2 0 0 1 I I 0 1 2 forward I I I I #
coedge $-1 $217 $217 $224 $225 forward $206 $-1 #
coedge $-1 $210 $208 $226 $227 forward $200 $-1 #
coedge $-1 $208 $210 $228 $229 reversed $200 $-1 #
coedge $-1 $214 $214 $208 $218 reversed $206 $-1 #
edge $-1 $230 0 $231 3.141592653589793116 $217 $232 forward 7 unknown #
coedge $-1 $226 $228 $209 $220 forward $212 $-1 #
edge $-1 $221 1.224606353822377258e-16 $222 3.141592653589793116 $219 $233 forward 7 unknown #
vertex $-1 $229 $234 #
vertex $-1 $227 $235 #
ellipse-curve $-1 0 0 1 0 0 1 -2 0 0 1 I I #
coedge $-1 $228 $226 $214 $225 reversed $212 $-1 #
edge $-1 $230 0 $231 3.141592653589793116 $214 $236 forward 7 unknown #
coedge $-1 $224 $219 $215 $227 reversed $212 $-1 #
edge $-1 $231 0 $222 1 $226 $237 forward 7 unknown #
coedge $-1 $219 $224 $216 $229 forward $212 $-1 #
edge $-1 $230 0 $221 1 $228 $238 forward 7 unknown #
vertex $-1 $218 $239 #
vertex $-1 $218 $240 #
ellipse-curve $-1 2.220446049250313081e-16 -1.11022302462515654e-16 0 0 0 1 -2 3.559435732269911057e-16 0 1 I I #
ellipse-curve $-1 0 0 1 0 0 -1 -2 0 0 1 I I #
point $-1 -2 2.449212707644754516e-16 1 #
point $-1 2 0 1 #
ellipse-curve $-1 0 5.551115123125782702e-17 0 0 0 -1 -2 1.894101195332176246e-16 0 1 I I #
straight-curve $-1 2 -4.898425415289509033e-16 0 0 0 1 I I #
straight-curve $-1 -2 2.449212707644754516e-16 0 0 0 1 I I #
point $-1 -2 2.449212707644754516e-16 0 #
point $-1 2 -4.898425415289509033e-16 0 #
End-of-ACIS-data 