600 0 1 0           
96 GICL ACIS Healer - Source: /gicl/data5/repository/PTC/V18/bboxrev2/boombox/rc1210_.prt.sat - 6 0 18 ACIS 6.0.3 Solaris 24 Sat Apr 13 22:51:29 2002 
1 9.999999999999999547e-07 1.000000000000000036e-10 
body $-1 $1 $-1 $-1 #
lump $-1 $-1 $2 $0 #
shell $-1 $-1 $-1 $3 $-1 $1 #
face $-1 $4 $5 $2 $-1 $6 reversed single #
face $-1 $7 $8 $2 $-1 $9 forward single #
loop $-1 $-1 $10 $3 #
plane-surface $-1 0 0 0 0 0 1 25.39999999999999858 0 0 forward_v I I I I #
face $-1 $11 $12 $2 $-1 $13 forward single #
loop $-1 $-1 $14 $4 #
plane-surface $-1 4.330700000000000216 1.346199999999999841 0 0 1 0 -25.39999999999999858 0 0 forward_v I I I I #
coedge $-1 $15 $16 $17 $18 reversed $5 $-1 #
face $-1 $19 $20 $2 $-1 $21 forward single #
loop $-1 $-1 $22 $7 #
plane-surface $-1 3.530600000000000183 1.346199999999999841 0 0 1 0 -25.39999999999999858 0 0 forward_v I I I I #
coedge $-1 $23 $17 $24 $25 forward $8 $-1 #
coedge $-1 $26 $10 $27 $28 reversed $5 $-1 #
coedge $-1 $10 $29 $30 $31 reversed $5 $-1 #
coedge $-1 $14 $32 $10 $18 forward $8 $-1 #
edge $-1 $33 0 $34 0.03150000000000000022 $10 $35 forward 7 unknown #
face $-1 $36 $37 $2 $-1 $38 forward single #
loop $-1 $-1 $39 $11 #
plane-surface $-1 -0.9270999999999999241 1.346199999999999841 0 -1 0 0 0 -25.39999999999999858 0 forward_v I I I I #
coedge $-1 $40 $30 $41 $42 forward $12 $-1 #
coedge $-1 $32 $14 $43 $44 reversed $8 $-1 #
coedge $-1 $30 $40 $14 $25 reversed $12 $-1 #
edge $-1 $34 0 $45 0.02999999999999999889 $24 $46 forward 7 unknown #
coedge $-1 $29 $15 $47 $48 reversed $5 $-1 #
coedge $-1 $49 $50 $15 $28 forward $51 $-1 #
edge $-1 $52 0 $33 0.105999999999999997 $15 $53 forward 7 unknown #
coedge $-1 $16 $26 $54 $55 reversed $5 $-1 #
coedge $-1 $22 $24 $16 $31 forward $12 $-1 #
edge $-1 $34 0 $56 0.1755000000000000171 $16 $57 forward 7 unknown #
coedge $-1 $17 $23 $49 $58 reversed $8 $-1 #
vertex $-1 $28 $59 #
vertex $-1 $31 $60 #
straight-curve $-1 4.330700000000000216 1.346199999999999841 0 -25.39999999999999858 0 0 I I #
face $-1 $61 $51 $2 $-1 $62 forward single #
loop $-1 $-1 $63 $19 #
plane-surface $-1 -0.9270999999999999241 -1.346199999999999841 0 0 -1 0 25.39999999999999858 0 0 forward_v I I I I #
coedge $-1 $64 $54 $65 $66 forward $20 $-1 #
coedge $-1 $24 $22 $67 $68 reversed $12 $-1 #
coedge $-1 $54 $64 $22 $42 reversed $20 $-1 #
edge $-1 $56 0 $69 0.02999999999999999889 $22 $70 forward 7 unknown #
coedge $-1 $67 $71 $23 $44 forward $72 $-1 #
edge $-1 $73 0 $45 0.03150000000000000022 $43 $74 forward 7 unknown #
vertex $-1 $68 $75 #
straight-curve $-1 3.530600000000000183 1.346199999999999841 0 0 0 25.39999999999999858 I I #
coedge $-1 $63 $65 $26 $48 forward $37 $-1 #
edge $-1 $76 0 $52 0.2070000000000000173 $26 $77 forward 7 unknown #
coedge $-1 $78 $27 $32 $58 forward $51 $-1 #
coedge $-1 $27 $78 $63 $79 reversed $51 $-1 #
loop $-1 $-1 $49 $36 #
vertex $-1 $48 $80 #
straight-curve $-1 4.330700000000000216 -1.346199999999999841 0 0 25.39999999999999858 0 I I #
coedge $-1 $39 $41 $29 $55 forward $20 $-1 #
edge $-1 $56 0 $76 0.105999999999999997 $29 $81 forward 7 unknown #
vertex $-1 $31 $82 #
straight-curve $-1 3.530600000000000183 1.346199999999999841 0 -25.39999999999999858 0 0 I I #
edge $-1 $33 0 $73 0.02999999999999999889 $49 $83 forward 7 unknown #
point $-1 4.330700000000000216 1.346199999999999841 0 #
point $-1 3.530600000000000183 1.346199999999999841 0 #
face $-1 $-1 $72 $2 $-1 $84 forward single #
plane-surface $-1 4.330700000000000216 -1.346199999999999841 0 1 0 0 0 25.39999999999999858 0 forward_v I I I I #
coedge $-1 $85 $47 $50 $79 forward $37 $-1 #
coedge $-1 $41 $39 $86 $87 reversed $20 $-1 #
coedge $-1 $47 $85 $39 $66 reversed $37 $-1 #
edge $-1 $76 0 $88 0.02999999999999999889 $39 $89 forward 7 unknown #
coedge $-1 $86 $43 $40 $68 forward $72 $-1 #
edge $-1 $45 0 $69 0.1755000000000000171 $67 $90 forward 7 unknown #
vertex $-1 $68 $91 #
straight-curve $-1 -0.9271000000000000352 1.346199999999999841 0 0 0 25.39999999999999858 I I #
coedge $-1 $43 $92 $78 $93 forward $72 $-1 #
loop $-1 $-1 $86 $61 #
vertex $-1 $44 $94 #
straight-curve $-1 4.330700000000000216 1.346199999999999841 0.7619999999999998996 -25.39999999999999858 0 0 I I #
point $-1 3.530600000000000183 1.346199999999999841 0.7619999999999998996 #
vertex $-1 $55 $95 #
straight-curve $-1 -0.9270999999999999241 -1.346199999999999841 0 25.39999999999999858 0 0 I I #
coedge $-1 $50 $49 $71 $93 reversed $51 $-1 #
edge $-1 $52 0 $96 0.02999999999999999889 $63 $97 forward 7 unknown #
point $-1 4.330700000000000216 -1.346199999999999841 0 #
straight-curve $-1 -0.9270999999999999241 1.346199999999999841 0 0 -25.39999999999999858 0 I I #
point $-1 -0.9270999999999999241 1.346199999999999841 0 #
straight-curve $-1 4.330700000000000216 1.346199999999999841 0 0 0 25.39999999999999858 I I #
plane-surface $-1 0 0 0.7619999999999998996 0 0 1 25.39999999999999858 0 0 forward_v I I I I #
coedge $-1 $65 $63 $92 $98 reversed $37 $-1 #
coedge $-1 $92 $67 $64 $87 forward $72 $-1 #
edge $-1 $69 0 $88 0.105999999999999997 $86 $99 forward 7 unknown #
vertex $-1 $98 $100 #
straight-curve $-1 -0.9270999999999999241 -1.346199999999999841 0 0 0 25.39999999999999858 I I #
straight-curve $-1 3.530600000000000183 1.346199999999999841 0.7619999999999998996 -25.39999999999999858 0 0 I I #
point $-1 -0.9270999999999999241 1.346199999999999841 0.7619999999999998996 #
coedge $-1 $71 $86 $85 $98 forward $72 $-1 #
edge $-1 $96 0 $73 0.105999999999999997 $71 $101 forward 7 unknown #
point $-1 4.330700000000000216 1.346199999999999841 0.7619999999999998996 #
point $-1 -0.9270999999999999241 -1.346199999999999841 0 #
vertex $-1 $93 $102 #
straight-curve $-1 4.330700000000000216 -1.346199999999999841 0 0 0 25.39999999999999858 I I #
edge $-1 $88 0 $96 0.2070000000000000173 $92 $103 forward 7 unknown #
straight-curve $-1 -0.9270999999999999241 1.346199999999999841 0.7619999999999998996 0 -25.39999999999999858 0 I I #
point $-1 -0.9270999999999999241 -1.346199999999999841 0.7619999999999998996 #
straight-curve $-1 4.330700000000000216 -1.346199999999999841 0.7619999999999998996 0 25.39999999999999858 0 I I #
point $-1 4.330700000000000216 -1.346199999999999841 0.7619999999999998996 #
straight-curve $-1 -0.9270999999999999241 -1.346199999999999841 0.7619999999999998996 25.39999999999999858 0 0 I I #
End-of-ACIS-data 