700 0 2 0           
24 FBMach with ACIS - 7.0.3 13 ACIS 7.0.3 NT 24 Thu May 16 15:07:55 2002 
1 9.9999999999999995e-007 1e-010 
body $2 -1 $-1 $3 $-1 $4 #
bdycol-kcp $-1 -1 1 1 $5 #
model_id-kcp-attrib $-1 -1 $-1 $-1 $0 1 1021576074 1021576074 648544257 1 #
lump $-1 -1 $-1 $-1 $6 $0 #
transform $-1 -1 1 0 0 0 1 0 0 0 1 0 0 0 1 rotate no_reflect no_shear #
body $7 -1 $-1 $8 $-1 $9 #
shell $-1 -1 $-1 $-1 $-1 $10 $-1 $3 #
model_id-kcp-attrib $-1 -1 $-1 $-1 $5 1 1021576074 1021576074 648544258 1 #
lump $-1 -1 $-1 $-1 $11 $5 #
transform $-1 -1 1 0 0 0 1 0 0 0 1 3.5527136788005009e-015 -5.0800000000000018 1.27 1 no_rotate no_reflect no_shear #
face $12 -1 $-1 $13 $14 $6 $-1 $15 reversed single #
shell $-1 -1 $-1 $-1 $-1 $16 $-1 $8 #
model_id-kcp-attrib $-1 -1 $-1 $-1 $10 1 1021576074 1021576074 648544257 2 #
face $17 -1 $-1 $18 $19 $6 $-1 $20 forward single #
loop $-1 -1 $-1 $-1 $21 $10 #
plane-surface $-1 -1 $-1 0 0 0 0 0 1 1 0 0 forward_v I I I I #
face $22 -1 $-1 $23 $24 $11 $-1 $25 forward single #
model_id-kcp-attrib $-1 -1 $-1 $-1 $13 1 1021576074 1021576074 648544257 3 #
face $26 -1 $-1 $27 $28 $6 $-1 $29 forward single #
loop $-1 -1 $-1 $-1 $30 $13 #
plane-surface $-1 -1 $-1 -1.269999999999996 0.63499999999999801 0 -1 0 0 0 -1 0 forward_v I I I I #
coedge $-1 -1 $-1 $31 $32 $33 $34 reversed $14 $-1 #
model_id-kcp-attrib $-1 -1 $-1 $-1 $16 1 1021576074 1021576074 648544258 7 #
face $35 -1 $-1 $36 $37 $11 $-1 $38 reversed single #
loop $-1 -1 $-1 $-1 $39 $16 #
plane-surface $-1 -1 $-1 0 0 1.27 0 0 1 1 0 0 forward_v I I I I #
model_id-kcp-attrib $-1 -1 $-1 $-1 $18 1 1021576074 1021576074 648544257 4 #
face $40 -1 $-1 $41 $42 $6 $-1 $43 forward single #
loop $-1 -1 $-1 $-1 $44 $18 #
plane-surface $-1 -1 $-1 -1.269999999999996 -10.795000000000002 0 0 -1 0 1 0 0 forward_v I I I I #
coedge $-1 -1 $-1 $45 $33 $46 $47 forward $19 $-1 #
coedge $-1 -1 $-1 $48 $21 $49 $50 reversed $14 $-1 #
coedge $-1 -1 $-1 $21 $48 $51 $52 reversed $14 $-1 #
coedge $-1 -1 $-1 $30 $53 $21 $34 forward $19 $-1 #
edge $54 -1 $-1 $55 0 $56 11.43 $21 $57 forward @7 unknown #
model_id-kcp-attrib $-1 -1 $-1 $-1 $23 1 1021576074 1021576074 648544258 2 #
face $58 -1 $-1 $59 $60 $11 $-1 $61 reversed single #
loop $-1 -1 $-1 $-1 $62 $23 #
plane-surface $-1 -1 $-1 0 0 -1.27 0 0 1 1 0 0 forward_v I I I I #
coedge $-1 -1 $-1 $63 $64 $65 $66 forward $24 $-1 #
model_id-kcp-attrib $-1 -1 $-1 $-1 $27 1 1021576074 1021576074 648544257 5 #
face $67 -1 $-1 $68 $69 $6 $-1 $70 forward single #
loop $-1 -1 $-1 $-1 $71 $27 #
plane-surface $-1 -1 $-1 1.2700000000000031 -10.795000000000002 0 1 0 0 0 1 0 forward_v I I I I #
coedge $-1 -1 $-1 $72 $51 $73 $74 forward $28 $-1 #
coedge $-1 -1 $-1 $53 $30 $75 $76 reversed $19 $-1 #
coedge $-1 -1 $-1 $51 $72 $30 $47 reversed $28 $-1 #
edge $77 -1 $-1 $56 0 $78 2.54 $46 $79 forward @7 unknown #
coedge $-1 -1 $-1 $32 $31 $80 $81 reversed $14 $-1 #
coedge $-1 -1 $-1 $82 $83 $31 $50 forward $69 $-1 #
edge $84 -1 $-1 $85 0 $55 2.5399999999999991 $31 $86 forward @7 unknown #
coedge $-1 -1 $-1 $44 $46 $32 $52 forward $28 $-1 #
edge $87 -1 $-1 $56 0 $88 2.5399999999999991 $32 $89 forward @7 unknown #
coedge $-1 -1 $-1 $33 $45 $82 $90 reversed $19 $-1 #
attrib_edge_convexity-kcp-attrib $-1 -1 $91 $-1 $34 1 #
vertex $-1 -1 $-1 $50 $92 #
vertex $-1 -1 $-1 $52 $93 #
straight-curve $-1 -1 $-1 -1.269999999999996 0.63499999999999801 0 0 -1 0 I I #
model_id-kcp-attrib $-1 -1 $-1 $-1 $36 1 1021576074 1021576074 648544258 4 #
face $94 -1 $-1 $95 $96 $11 $-1 $97 reversed single #
loop $-1 -1 $-1 $-1 $98 $36 #
plane-surface $-1 -1 $-1 0 -5.7149999999999999 0 0 1 0 0 0 1 forward_v I I I I #
coedge $-1 -1 $-1 $99 $100 $101 $102 forward $37 $-1 #
coedge $-1 -1 $-1 $103 $39 $104 $105 forward $24 $-1 #
coedge $-1 -1 $-1 $39 $103 $106 $107 forward $24 $-1 #
coedge $-1 -1 $-1 $108 $109 $39 $66 reversed $110 $-1 #
edge $-1 -1 $-1 $111 -5.7149999999999999 $112 5.7149999999999999 $65 $113 forward @7 unknown #
model_id-kcp-attrib $-1 -1 $-1 $-1 $41 1 1021576074 1021576074 648544257 6 #
face $114 -1 $-1 $-1 $115 $6 $-1 $116 forward single #
loop $-1 -1 $-1 $-1 $82 $41 #
plane-surface $-1 -1 $-1 1.2700000000000031 0.63499999999999801 0 0 1 0 -1 0 0 forward_v I I I I #
coedge $-1 -1 $-1 $117 $80 $83 $118 forward $42 $-1 #
coedge $-1 -1 $-1 $46 $44 $119 $120 reversed $28 $-1 #
coedge $-1 -1 $-1 $80 $117 $44 $74 reversed $42 $-1 #
edge $121 -1 $-1 $88 0 $122 2.54 $44 $123 forward @7 unknown #
coedge $-1 -1 $-1 $119 $124 $45 $76 forward $115 $-1 #
edge $125 -1 $-1 $126 0 $78 11.43 $75 $127 forward @7 unknown #
attrib_edge_convexity-kcp-attrib $-1 -1 $128 $-1 $47 1 #
vertex $-1 -1 $-1 $120 $129 #
straight-curve $-1 -1 $-1 -1.269999999999996 -10.795000000000002 0 0 0 1 I I #
coedge $-1 -1 $-1 $71 $73 $48 $81 forward $42 $-1 #
edge $130 -1 $-1 $88 0 $85 11.43 $48 $131 forward @7 unknown #
coedge $-1 -1 $-1 $132 $49 $53 $90 forward $69 $-1 #
coedge $-1 -1 $-1 $49 $132 $71 $118 reversed $69 $-1 #
attrib_edge_convexity-kcp-attrib $-1 -1 $133 $-1 $50 1 #
vertex $-1 -1 $-1 $81 $134 #
straight-curve $-1 -1 $-1 1.2700000000000031 0.63499999999999801 0 -1 0 0 I I #
attrib_edge_convexity-kcp-attrib $-1 -1 $135 $-1 $52 1 #
vertex $-1 -1 $-1 $52 $136 #
straight-curve $-1 -1 $-1 -1.269999999999996 -10.795000000000002 0 1 0 0 I I #
edge $137 -1 $-1 $55 0 $126 2.54 $82 $138 forward @7 unknown #
convexity-sys-attrib $-1 -1 $-1 $54 $34 #
point $-1 -1 $-1 -1.269999999999996 0.63499999999999801 0 #
point $-1 -1 $-1 -1.269999999999996 -10.795000000000002 0 #
model_id-kcp-attrib $-1 -1 $-1 $-1 $59 1 1021576074 1021576074 648544258 3 #
face $139 -1 $-1 $140 $141 $11 $-1 $142 reversed single #
loop $-1 -1 $-1 $-1 $143 $59 #
plane-surface $-1 -1 $-1 -1.2699999999999996 0 0 1 0 0 0 0 -1 forward_v I I I I #
coedge $-1 -1 $-1 $144 $106 $145 $146 forward $60 $-1 #
coedge $-1 -1 $-1 $147 $62 $144 $148 forward $37 $-1 #
coedge $-1 -1 $-1 $62 $147 $149 $150 forward $37 $-1 #
coedge $-1 -1 $-1 $109 $108 $62 $102 reversed $110 $-1 #
edge $-1 -1 $-1 $151 -5.7149999999999999 $152 5.7149999999999999 $101 $153 forward @7 unknown #
coedge $-1 -1 $-1 $64 $63 $154 $155 forward $24 $-1 #
coedge $-1 -1 $-1 $156 $157 $63 $105 reversed $141 $-1 #
edge $-1 -1 $-1 $112 -1.2699999999999996 $158 1.2699999999999996 $104 $159 forward @7 unknown #
coedge $-1 -1 $-1 $98 $160 $64 $107 reversed $60 $-1 #
edge $-1 -1 $-1 $161 -1.2699999999999996 $111 1.2699999999999996 $106 $162 forward @7 unknown #
coedge $-1 -1 $-1 $101 $65 $160 $163 forward $110 $-1 #
coedge $-1 -1 $-1 $65 $101 $156 $164 reversed $110 $-1 #
loop $-1 -1 $-1 $-1 $108 $140 #
vertex $-1 -1 $-1 $66 $165 #
vertex $-1 -1 $-1 $66 $166 #
straight-curve $-1 -1 $-1 1.2699999999999996 0 1.27 0 1 0 I I #
model_id-kcp-attrib $-1 -1 $-1 $-1 $68 1 1021576074 1021576074 648544257 7 #
loop $-1 -1 $-1 $-1 $167 $68 #
plane-surface $-1 -1 $-1 0 0 2.54 0 0 1 1 0 0 forward_v I I I I #
coedge $-1 -1 $-1 $73 $71 $167 $168 reversed $42 $-1 #
edge $-1 -1 $-1 $85 0 $169 2.54 $71 $170 forward @7 unknown #
coedge $-1 -1 $-1 $167 $75 $72 $120 forward $115 $-1 #
edge $171 -1 $-1 $78 0 $122 2.5399999999999991 $119 $172 forward @7 unknown #
attrib_edge_convexity-kcp-attrib $-1 -1 $173 $-1 $74 1 #
vertex $-1 -1 $-1 $120 $174 #
straight-curve $-1 -1 $-1 1.2700000000000031 -10.795000000000002 0 0 0 1 I I #
coedge $-1 -1 $-1 $75 $167 $132 $175 forward $115 $-1 #
attrib_edge_convexity-kcp-attrib $-1 -1 $176 $-1 $76 1 #
vertex $-1 -1 $-1 $76 $177 #
straight-curve $-1 -1 $-1 -1.269999999999996 0.63499999999999801 2.54 0 -1 0 I I #
convexity-sys-attrib $-1 -1 $-1 $77 $47 #
point $-1 -1 $-1 -1.269999999999996 -10.795000000000002 2.54 #
attrib_edge_convexity-kcp-attrib $-1 -1 $178 $-1 $81 1 #
straight-curve $-1 -1 $-1 1.2700000000000031 -10.795000000000002 0 0 1 0 I I #
coedge $-1 -1 $-1 $83 $82 $124 $175 reversed $69 $-1 #
convexity-sys-attrib $-1 -1 $-1 $84 $50 #
point $-1 -1 $-1 1.2700000000000031 0.63499999999999801 0 #
convexity-sys-attrib $-1 -1 $-1 $87 $52 #
point $-1 -1 $-1 1.2700000000000031 -10.795000000000002 0 #
attrib_edge_convexity-kcp-attrib $-1 -1 $179 $-1 $90 1 #
straight-curve $-1 -1 $-1 -1.269999999999996 0.63499999999999801 0 0 0 1 I I #
model_id-kcp-attrib $-1 -1 $-1 $-1 $95 1 1021576074 1021576074 648544258 6 #
face $180 -1 $-1 $-1 $110 $11 $-1 $181 reversed single #
loop $-1 -1 $-1 $-1 $156 $95 #
plane-surface $-1 -1 $-1 0 5.7149999999999999 0 0 -1 0 0 0 -1 forward_v I I I I #
coedge $-1 -1 $-1 $182 $154 $157 $183 forward $96 $-1 #
coedge $-1 -1 $-1 $160 $98 $99 $148 reversed $60 $-1 #
coedge $-1 -1 $-1 $154 $182 $98 $146 reversed $96 $-1 #
edge $-1 -1 $-1 $161 -1.27 $184 1.27 $145 $185 forward @7 unknown #
coedge $-1 -1 $-1 $100 $99 $182 $186 forward $37 $-1 #
edge $-1 -1 $-1 $152 -1.2699999999999996 $184 1.2699999999999996 $144 $187 forward @7 unknown #
coedge $-1 -1 $-1 $157 $156 $100 $150 reversed $141 $-1 #
edge $-1 -1 $-1 $188 -1.2699999999999996 $151 1.2699999999999996 $149 $189 forward @7 unknown #
vertex $-1 -1 $-1 $102 $190 #
vertex $-1 -1 $-1 $163 $191 #
straight-curve $-1 -1 $-1 1.2699999999999996 0 -1.27 0 -1 0 I I #
coedge $-1 -1 $-1 $143 $145 $103 $155 reversed $96 $-1 #
edge $-1 -1 $-1 $158 -5.7149999999999999 $161 5.7149999999999999 $154 $192 forward @7 unknown #
coedge $-1 -1 $-1 $149 $104 $109 $164 forward $141 $-1 #
coedge $-1 -1 $-1 $104 $149 $143 $183 reversed $141 $-1 #
vertex $-1 -1 $-1 $105 $193 #
straight-curve $-1 -1 $-1 0 5.7149999999999999 1.27 -1 0 0 I I #
coedge $-1 -1 $-1 $106 $144 $108 $163 reversed $60 $-1 #
vertex $-1 -1 $-1 $155 $194 #
straight-curve $-1 -1 $-1 0 -5.7149999999999999 1.27 1 0 0 I I #
edge $-1 -1 $-1 $111 -1.27 $152 1.27 $108 $195 forward @7 unknown #
edge $-1 -1 $-1 $112 -1.27 $151 1.27 $109 $196 forward @7 unknown #
point $-1 -1 $-1 1.2699999999999996 -5.7149999999999999 1.27 #
point $-1 -1 $-1 1.2699999999999996 5.7149999999999999 1.27 #
coedge $-1 -1 $-1 $124 $119 $117 $168 forward $115 $-1 #
edge $-1 -1 $-1 $122 0 $169 11.43 $167 $197 forward @7 unknown #
vertex $-1 -1 $-1 $175 $198 #
straight-curve $-1 -1 $-1 1.2700000000000031 0.63499999999999801 0 0 0 1 I I #
attrib_edge_convexity-kcp-attrib $-1 -1 $199 $-1 $120 1 #
straight-curve $-1 -1 $-1 -1.269999999999996 -10.795000000000002 2.54 1 0 0 I I #
convexity-sys-attrib $-1 -1 $-1 $121 $74 #
point $-1 -1 $-1 1.2700000000000031 -10.795000000000002 2.54 #
edge $-1 -1 $-1 $169 0 $126 2.5399999999999991 $124 $200 forward @7 unknown #
convexity-sys-attrib $-1 -1 $-1 $125 $76 #
point $-1 -1 $-1 -1.269999999999996 0.63499999999999801 2.54 #
convexity-sys-attrib $-1 -1 $-1 $130 $81 #
convexity-sys-attrib $-1 -1 $-1 $137 $90 #
model_id-kcp-attrib $-1 -1 $-1 $-1 $140 1 1021576074 1021576074 648544258 5 #
plane-surface $-1 -1 $-1 1.2699999999999996 0 0 -1 0 0 0 0 1 forward_v I I I I #
coedge $-1 -1 $-1 $145 $143 $147 $186 reversed $96 $-1 #
edge $-1 -1 $-1 $158 -1.27 $188 1.27 $157 $201 forward @7 unknown #
vertex $-1 -1 $-1 $186 $202 #
straight-curve $-1 -1 $-1 -1.2699999999999996 -5.7149999999999999 0 0 0 -1 I I #
edge $-1 -1 $-1 $184 -5.7149999999999999 $188 5.7149999999999999 $182 $203 forward @7 unknown #
straight-curve $-1 -1 $-1 0 -5.7149999999999999 -1.27 -1 0 0 I I #
vertex $-1 -1 $-1 $150 $204 #
straight-curve $-1 -1 $-1 0 5.7149999999999999 -1.27 1 0 0 I I #
point $-1 -1 $-1 1.2699999999999996 5.7149999999999999 -1.27 #
point $-1 -1 $-1 1.2699999999999996 -5.7149999999999999 -1.27 #
straight-curve $-1 -1 $-1 -1.2699999999999996 0 1.27 0 -1 0 I I #
point $-1 -1 $-1 -1.2699999999999996 5.7149999999999999 1.27 #
point $-1 -1 $-1 -1.2699999999999996 -5.7149999999999999 1.27 #
straight-curve $-1 -1 $-1 1.2699999999999996 -5.7149999999999999 0 0 0 -1 I I #
straight-curve $-1 -1 $-1 1.2699999999999996 5.7149999999999999 0 0 0 -1 I I #
straight-curve $-1 -1 $-1 1.2700000000000031 -10.795000000000002 2.54 0 1 0 I I #
point $-1 -1 $-1 1.2700000000000031 0.63499999999999801 2.54 #
convexity-sys-attrib $-1 -1 $-1 $171 $120 #
straight-curve $-1 -1 $-1 1.2700000000000031 0.63499999999999801 2.54 -1 0 0 I I #
straight-curve $-1 -1 $-1 -1.2699999999999996 5.7149999999999999 0 0 0 -1 I I #
point $-1 -1 $-1 -1.2699999999999996 -5.7149999999999999 -1.27 #
straight-curve $-1 -1 $-1 -1.2699999999999996 0 -1.27 0 1 0 I I #
point $-1 -1 $-1 -1.2699999999999996 5.7149999999999999 -1.27 #
End-of-ACIS-data 