600 0 1 0           
98 GICL Pro/E ACIS Translator - Source: f:/data5/repository/PTC/V18/bboxrev2/boombox/relay_.prt - 6 0 13 ACIS 6.0.3 NT 24 Thu Apr 04 10:05:07 2002 
1 9.9999999999999995e-007 1e-010 
body $-1 $1 $-1 $-1 #
lump $-1 $-1 $2 $0 #
shell $-1 $-1 $-1 $3 $-1 $1 #
face $-1 $4 $5 $2 $-1 $6 reversed single #
face $-1 $7 $8 $2 $-1 $9 forward single #
loop $-1 $-1 $10 $3 #
plane-surface $-1 0 0 0 0 0 1 1 0 0 forward_v I I I I #
face $-1 $11 $12 $2 $-1 $13 forward single #
loop $-1 $-1 $14 $4 #
cone-surface $-1 -3.1749999999999998 0 0 0 0 -1 -0.6349999999999999 0 0 1 I I 0 1 0.6349999999999999 forward I I I I #
coedge $-1 $15 $16 $17 $18 forward $5 $-1 #
face $-1 $19 $20 $2 $-1 $21 forward single #
loop $-1 $-1 $22 $7 #
torus-surface $-1 -3.1749999999999998 -3.1749999999999998 5.0799999999999992 -1 0 0 3.1749999999999998 0.6349999999999999 0 0 1 forward_v I I I I #
coedge $-1 $23 $24 $22 $25 reversed $8 $-1 #
coedge $-1 $26 $10 $27 $28 reversed $5 $-1 #
coedge $-1 $10 $29 $30 $31 reversed $5 $-1 #
coedge $-1 $24 $23 $10 $18 reversed $8 $-1 #
edge $-1 $32 0 $33 1.5707963267948963 $10 $34 forward 7 unknown #
face $-1 $35 $36 $2 $-1 $37 forward single #
loop $-1 $-1 $38 $11 #
plane-surface $-1 -3.8099999999999996 0.6349999999999999 0 -1 0 0 0 -1 0 forward_v I I I I #
coedge $-1 $39 $40 $14 $25 forward $12 $-1 #
coedge $-1 $17 $14 $41 $42 reversed $8 $-1 #
coedge $-1 $14 $17 $43 $44 forward $8 $-1 #
edge $-1 $45 0 $46 1.5707963267948963 $14 $47 forward 7 unknown #
coedge $-1 $48 $15 $49 $50 forward $5 $-1 #
coedge $-1 $41 $51 $15 $28 forward $52 $-1 #
edge $-1 $53 0 $33 6.3499999999999996 $15 $54 forward 7 unknown #
coedge $-1 $16 $55 $56 $57 forward $5 $-1 #
coedge $-1 $38 $43 $16 $31 forward $20 $-1 #
edge $-1 $32 0 $58 17.779999999999998 $16 $59 forward 7 unknown #
vertex $-1 $31 $60 #
vertex $-1 $28 $61 #
ellipse-curve $-1 -3.1749999999999998 -1.2490009027033011e-016 0 0 0 -1 -0.63499999999999979 1.2490009027033011e-016 0 1 I I #
face $-1 $62 $63 $2 $-1 $64 forward single #
loop $-1 $-1 $65 $19 #
cone-surface $-1 -3.1749999999999998 -17.779999999999998 0 0 0 -1 0 -0.6349999999999999 0 1 I I 0 1 0.6349999999999999 forward I I I I #
coedge $-1 $66 $30 $67 $68 forward $20 $-1 #
coedge $-1 $69 $22 $70 $71 reversed $12 $-1 #
coedge $-1 $22 $69 $72 $73 forward $12 $-1 #
coedge $-1 $74 $27 $23 $42 forward $52 $-1 #
edge $-1 $33 0 $45 5.0799999999999992 $41 $75 forward 7 unknown #
coedge $-1 $30 $70 $24 $44 reversed $20 $-1 #
edge $-1 $32 0 $46 5.0799999999999992 $43 $76 forward 7 unknown #
vertex $-1 $77 $78 #
vertex $-1 $44 $79 #
ellipse-curve $-1 -3.1749999999999998 -1.8041124150158794e-016 5.0799999999999992 0 0 1 0 0.63500000000000012 0 1 I I #
coedge $-1 $80 $26 $81 $82 reversed $5 $-1 #
coedge $-1 $83 $84 $26 $50 reversed $85 $-1 #
edge $-1 $53 0 $86 1.5707963267948983 $26 $87 forward 7 unknown #
coedge $-1 $27 $74 $83 $88 reversed $52 $-1 #
loop $-1 $-1 $41 $89 #
vertex $-1 $50 $90 #
straight-curve $-1 3.1749999999999998 0.6349999999999999 0 -1 0 0 I I #
coedge $-1 $29 $80 $91 $92 reversed $5 $-1 #
coedge $-1 $93 $67 $29 $57 reversed $36 $-1 #
edge $-1 $94 0 $58 1.5707963267948966 $29 $95 forward 7 unknown #
vertex $-1 $31 $96 #
straight-curve $-1 -3.8099999999999996 0 0 0 -1 0 I I #
point $-1 -3.8099999999999996 0 0 #
point $-1 -3.1749999999999998 0.6349999999999999 0 #
face $-1 $97 $98 $2 $-1 $99 forward single #
loop $-1 $-1 $100 $35 #
torus-surface $-1 -3.1749999999999998 -14.605 5.0799999999999992 1 0 0 3.1749999999999998 0.6349999999999999 0 0 1 forward_v I I I I #
coedge $-1 $67 $93 $101 $102 forward $36 $-1 #
coedge $-1 $103 $38 $104 $105 reversed $20 $-1 #
coedge $-1 $56 $65 $38 $68 reversed $36 $-1 #
edge $-1 $58 0 $106 5.0799999999999992 $38 $107 forward 7 unknown #
coedge $-1 $40 $39 $108 $109 reversed $12 $-1 #
coedge $-1 $43 $103 $39 $71 forward $20 $-1 #
edge $-1 $110 0 $46 1.5707963267948961 $70 $111 forward 7 unknown #
coedge $-1 $112 $113 $40 $73 reversed $114 $-1 #
edge $-1 $115 0 $45 1.5707963267948966 $72 $116 forward 7 unknown #
coedge $-1 $51 $41 $113 $77 reversed $52 $-1 #
straight-curve $-1 -3.1749999999999998 0.6349999999999999 0 0 0 1 I I #
straight-curve $-1 -3.8099999999999996 0 0 0 0 1 I I #
edge $-1 $117 0 $45 6.3499999999999996 $74 $118 forward 7 unknown #
point $-1 -3.1749999999999998 0.6349999999999999 5.0799999999999992 #
point $-1 -3.8099999999999996 0 5.0799999999999992 #
coedge $-1 $55 $48 $119 $120 forward $5 $-1 #
coedge $-1 $121 $122 $48 $82 forward $123 $-1 #
edge $-1 $124 0 $86 17.779999999999998 $48 $125 forward 7 unknown #
coedge $-1 $126 $49 $51 $88 forward $85 $-1 #
coedge $-1 $49 $126 $121 $127 reversed $85 $-1 #
loop $-1 $-1 $126 $128 #
vertex $-1 $82 $129 #
ellipse-curve $-1 3.1750000000000003 6.3837823915946501e-016 0 0 0 -1 -4.4408920985006262e-016 0.63499999999999923 0 1 I I #
edge $-1 $53 0 $117 5.0799999999999992 $51 $130 forward 7 unknown #
face $-1 $-1 $52 $2 $-1 $131 forward single #
point $-1 3.1749999999999998 0.6349999999999999 0 #
coedge $-1 $132 $133 $55 $92 forward $134 $-1 #
edge $-1 $94 0 $135 6.3499999999999996 $55 $136 forward 7 unknown #
coedge $-1 $65 $56 $133 $137 forward $36 $-1 #
vertex $-1 $57 $138 #
ellipse-curve $-1 -3.1749999999999998 -17.779999999999998 0 0 0 -1 0 -0.63500000000000156 0 1 I I #
point $-1 -3.8099999999999996 -17.779999999999998 0 #
face $-1 $139 $140 $2 $-1 $141 forward single #
loop $-1 $-1 $108 $62 #
cone-surface $-1 -3.1749999999999998 -3.1749999999999998 8.254999999999999 0 -1 0 0 0 0.6349999999999999 1 I I 0 1 0.6349999999999999 forward I I I I #
coedge $-1 $104 $142 $143 $144 forward $63 $-1 #
coedge $-1 $142 $104 $65 $102 reversed $63 $-1 #
edge $-1 $145 0 $106 1.5707963267949021 $101 $146 forward 7 unknown #
coedge $-1 $70 $66 $147 $148 reversed $20 $-1 #
coedge $-1 $101 $100 $66 $105 forward $63 $-1 #
edge $-1 $149 0 $106 1.5707963267948963 $66 $150 forward 7 unknown #
vertex $-1 $105 $151 #
straight-curve $-1 -3.8099999999999996 -17.779999999999998 0 0 0 1 I I #
coedge $-1 $147 $152 $69 $109 forward $98 $-1 #
edge $-1 $115 0 $110 1.5707963267948966 $69 $153 forward 7 unknown #
vertex $-1 $71 $154 #
ellipse-curve $-1 -3.8099999999999996 -3.1750000000000003 5.0799999999999983 -1 0 0 0 4.4408920985006262e-016 3.1750000000000007 1 I I #
coedge $-1 $155 $72 $156 $157 reversed $114 $-1 #
coedge $-1 $72 $155 $74 $77 forward $114 $-1 #
loop $-1 $-1 $155 $158 #
vertex $-1 $159 $160 #
ellipse-curve $-1 -3.1749999999999998 -3.1749999999999998 5.0799999999999992 -1 0 0 0 0 3.8099999999999996 1 I I #
vertex $-1 $88 $161 #
straight-curve $-1 3.1749999999999998 0.6349999999999999 5.0799999999999992 -1 0 0 I I #
coedge $-1 $162 $163 $80 $120 reversed $164 $-1 #
edge $-1 $124 -5.5948246910244286e-015 $135 1.5707963267948994 $80 $165 forward 7 unknown #
coedge $-1 $166 $81 $84 $127 forward $123 $-1 #
coedge $-1 $81 $167 $162 $168 reversed $123 $-1 #
loop $-1 $-1 $121 $169 #
vertex $-1 $120 $170 #
straight-curve $-1 3.8099999999999996 -17.779999999999998 0 0 1 0 I I #
coedge $-1 $84 $83 $171 $172 forward $85 $-1 #
edge $-1 $86 0 $173 5.0799999999999992 $121 $174 forward 7 unknown #
face $-1 $175 $85 $2 $-1 $176 forward single #
point $-1 3.8099999999999996 0 0 #
straight-curve $-1 3.1749999999999998 0.6349999999999999 0 0 0 1 I I #
plane-surface $-1 3.8099999999999996 0.6349999999999999 0 0 1 0 -1 0 0 forward_v I I I I #
coedge $-1 $177 $91 $163 $178 forward $134 $-1 #
coedge $-1 $91 $177 $93 $137 reversed $134 $-1 #
loop $-1 $-1 $132 $179 #
vertex $-1 $92 $180 #
straight-curve $-1 -3.1749999999999998 -18.414999999999999 0 1 0 0 I I #
edge $-1 $94 0 $145 5.0799999999999992 $133 $181 forward 7 unknown #
point $-1 -3.1749999999999998 -18.414999999999999 0 #
face $-1 $179 $182 $2 $-1 $183 forward single #
loop $-1 $-1 $184 $97 #
plane-surface $-1 0 0 8.8899999999999988 0 0 1 1 0 0 forward_v I I I I #
coedge $-1 $100 $101 $185 $186 reversed $63 $-1 #
coedge $-1 $152 $147 $100 $144 reversed $98 $-1 #
edge $-1 $187 0 $149 1.5707963267948966 $143 $188 forward 7 unknown #
vertex $-1 $137 $189 #
ellipse-curve $-1 -3.1749999999999998 -17.780000000000001 5.0799999999999992 0 0 -1 0 -0.63499999999999801 0 1 I I #
coedge $-1 $143 $108 $103 $148 forward $98 $-1 #
edge $-1 $110 0 $149 11.43 $103 $190 forward 7 unknown #
vertex $-1 $148 $191 #
ellipse-curve $-1 -3.8099999999999996 -14.604999999999999 5.0800000000000001 1 0 0 0 -1.7763568394002505e-015 3.1749999999999989 1 I I #
point $-1 -3.8099999999999996 -17.779999999999998 5.0799999999999992 #
coedge $-1 $108 $143 $192 $159 reversed $98 $-1 #
ellipse-curve $-1 -3.1749999999999998 -3.1749999999999998 8.254999999999999 0 -1 0 0 0 0.63499999999999979 1 I I #
point $-1 -3.8099999999999996 -3.1749999999999998 8.254999999999999 #
coedge $-1 $113 $112 $193 $194 forward $114 $-1 #
coedge $-1 $192 $195 $112 $157 forward $140 $-1 #
edge $-1 $196 0 $115 6.3499999999999996 $156 $197 forward 7 unknown #
face $-1 $89 $114 $2 $-1 $198 forward single #
edge $-1 $115 0 $187 11.43 $192 $199 forward 7 unknown #
point $-1 -3.1749999999999998 -3.1749999999999998 8.8899999999999988 #
point $-1 3.1749999999999998 0.6349999999999999 5.0799999999999992 #
coedge $-1 $200 $119 $122 $168 forward $164 $-1 #
coedge $-1 $119 $200 $132 $178 reversed $164 $-1 #
loop $-1 $-1 $200 $201 #
ellipse-curve $-1 3.1750000000000016 -17.780000000000001 0 0 0 -1 0.63499999999999801 0 0 1 I I #
coedge $-1 $202 $121 $203 $204 reversed $123 $-1 #
coedge $-1 $122 $202 $205 $206 forward $123 $-1 #
edge $-1 $124 2.4846012762866518e-030 $207 5.0799999999999992 $122 $208 forward 7 unknown #
face $-1 $128 $123 $2 $-1 $209 forward single #
point $-1 3.8099999999999996 -17.779999999999998 0 #
coedge $-1 $193 $203 $126 $172 reversed $210 $-1 #
edge $-1 $117 0 $173 1.5707963267948963 $126 $211 forward 7 unknown #
vertex $-1 $204 $212 #
straight-curve $-1 3.8099999999999996 0 0 0 0 1 I I #
face $-1 $213 $210 $2 $-1 $214 forward single #
cone-surface $-1 3.1749999999999998 0 0 0 0 -1 0 0.6349999999999999 0 1 I I 0 1 0.6349999999999999 forward I I I I #
coedge $-1 $133 $132 $215 $216 reversed $134 $-1 #
edge $-1 $135 0 $217 5.0799999999999992 $132 $218 forward 7 unknown #
face $-1 $201 $134 $2 $-1 $219 forward single #
point $-1 3.1749999999999998 -18.414999999999999 0 #
straight-curve $-1 -3.1749999999999998 -18.414999999999999 0 0 0 1 I I #
loop $-1 $-1 $185 $139 #
cone-surface $-1 -3.8099999999999996 -14.605 5.0799999999999992 1 0 0 0 0 3.8099999999999996 1 I I 0 1 3.8099999999999996 forward I I I I #
coedge $-1 $195 $192 $220 $221 forward $140 $-1 #
coedge $-1 $215 $220 $142 $186 forward $182 $-1 #
edge $-1 $187 0 $145 1.5707963267948966 $185 $222 forward 7 unknown #
vertex $-1 $159 $223 #
ellipse-curve $-1 -3.1749999999999998 -14.605 8.254999999999999 0 -1 0 0 0 0.63499999999999979 1 I I #
point $-1 -3.1749999999999998 -18.415000000000003 5.0799999999999992 #
straight-curve $-1 -3.8099999999999996 -3.1749999999999998 8.254999999999999 0 -1 0 I I #
point $-1 -3.8099999999999996 -14.605 8.254999999999999 #
coedge $-1 $184 $156 $152 $159 forward $140 $-1 #
coedge $-1 $224 $171 $155 $194 reversed $210 $-1 #
edge $-1 $196 0 $117 1.5707963267948966 $155 $225 forward 7 unknown #
coedge $-1 $156 $184 $226 $227 forward $140 $-1 #
vertex $-1 $157 $228 #
straight-curve $-1 3.1749999999999998 -3.1749999999999998 8.8899999999999988 -1 0 0 I I #
cone-surface $-1 3.8099999999999996 -3.1749999999999998 5.0799999999999992 -1 0 0 0 0 3.8099999999999996 1 I I 0 1 3.8099999999999996 forward I I I I #
straight-curve $-1 -3.1749999999999998 -3.1749999999999998 8.8899999999999988 0 -1 0 I I #
coedge $-1 $163 $162 $229 $230 forward $164 $-1 #
face $-1 $231 $164 $2 $-1 $232 forward single #
coedge $-1 $167 $166 $233 $234 reversed $123 $-1 #
coedge $-1 $171 $224 $166 $204 forward $210 $-1 #
edge $-1 $235 0 $173 1.5707963267948961 $166 $236 forward 7 unknown #
coedge $-1 $237 $229 $167 $206 reversed $238 $-1 #
edge $-1 $239 0 $207 1.5707963267948963 $167 $240 forward 7 unknown #
vertex $-1 $168 $241 #
straight-curve $-1 3.8099999999999996 -17.780000000000001 0 0 6.993530863780515e-016 1 I I #
plane-surface $-1 3.8099999999999996 -18.414999999999999 0 1 0 0 0 1 0 forward_v I I I I #
loop $-1 $-1 $224 $175 #
ellipse-curve $-1 3.1749999999999998 -1.8041124150158794e-016 5.0799999999999992 0 0 -1 0 0.63500000000000012 0 1 I I #
point $-1 3.8099999999999996 3.888125173386047e-017 5.0799999999999992 #
face $-1 $158 $242 $2 $-1 $243 forward single #
torus-surface $-1 3.1749999999999998 -3.1749999999999998 5.0799999999999992 -1 0 0 3.1749999999999998 0.6349999999999999 0 0 1 forward_v I I I I #
coedge $-1 $244 $185 $177 $216 forward $182 $-1 #
edge $-1 $145 0 $217 6.3499999999999996 $177 $245 forward 7 unknown #
vertex $-1 $216 $246 #
straight-curve $-1 3.1749999999999998 -18.414999999999999 0 0 0 1 I I #
plane-surface $-1 -3.8099999999999996 -18.414999999999999 0 0 -1 0 1 0 0 forward_v I I I I #
coedge $-1 $185 $244 $184 $221 reversed $182 $-1 #
edge $-1 $187 0 $247 6.3499999999999996 $184 $248 forward 7 unknown #
ellipse-curve $-1 -3.1749999999999998 -14.605 5.0799999999999992 1 0 0 0 0 3.8099999999999996 1 I I #
point $-1 -3.1749999999999998 -14.605 8.8899999999999988 #
coedge $-1 $203 $193 $249 $250 forward $210 $-1 #
ellipse-curve $-1 3.1749999999999998 -3.1749999999999998 5.0799999999999992 -1 0 0 0 0 3.8099999999999996 1 I I #
coedge $-1 $251 $249 $195 $227 reversed $242 $-1 #
edge $-1 $247 0 $196 11.43 $195 $252 forward 7 unknown #
point $-1 3.1749999999999998 -3.1749999999999998 8.8899999999999988 #
coedge $-1 $205 $253 $200 $230 reversed $238 $-1 #
edge $-1 $207 0 $217 1.5707963267949008 $229 $254 forward 7 unknown #
face $-1 $169 $238 $2 $-1 $255 forward single #
cone-surface $-1 3.1749999999999998 -17.779999999999998 0 0 0 -1 0.6349999999999999 -3.5527136788005017e-015 0 1 I I 0 1 0.6349999999999999 forward I I I I #
coedge $-1 $249 $251 $202 $234 forward $242 $-1 #
edge $-1 $239 0 $235 11.43 $202 $256 forward 7 unknown #
vertex $-1 $234 $257 #
ellipse-curve $-1 3.8099999999999996 -3.1750000000000007 5.0799999999999983 -1 0 0 0 8.8817841970012523e-016 3.1750000000000007 1 I I #
coedge $-1 $253 $205 $251 $258 reversed $238 $-1 #
loop $-1 $-1 $229 $231 #
vertex $-1 $206 $259 #
ellipse-curve $-1 3.8099999999999996 -14.604999999999999 5.0800000000000001 1 0 0 0 -1.7763568394002505e-015 3.1749999999999989 1 I I #
point $-1 3.8099999999999996 -17.779999999999998 5.0799999999999992 #
loop $-1 $-1 $251 $213 #
cone-surface $-1 3.1749999999999998 -14.605 8.254999999999999 0 1 0 0 0 0.6349999999999999 1 I I 0 1 0.6349999999999999 forward I I I I #
coedge $-1 $220 $215 $253 $260 reversed $182 $-1 #
straight-curve $-1 -3.1749999999999998 -18.414999999999999 5.0799999999999992 1 0 0 I I #
point $-1 3.1749999999999998 -18.415000000000003 5.0799999999999992 #
vertex $-1 $227 $261 #
straight-curve $-1 -3.1749999999999998 -14.605 8.8899999999999988 1 0 0 I I #
coedge $-1 $226 $233 $224 $250 reversed $242 $-1 #
edge $-1 $196 0 $235 1.5707963267948966 $224 $262 forward 7 unknown #
coedge $-1 $233 $226 $237 $258 forward $242 $-1 #
straight-curve $-1 3.1749999999999998 -14.605 8.8899999999999988 0 1 0 I I #
coedge $-1 $229 $237 $244 $260 forward $238 $-1 #
ellipse-curve $-1 3.1749999999999989 -17.780000000000001 5.0799999999999992 0 0 -1 0.63500000000000068 3.5527136788005009e-015 0 1 I I #
torus-surface $-1 3.1749999999999998 -14.605 5.0799999999999992 1 0 0 3.1749999999999998 0.6349999999999999 0 0 1 forward_v I I I I #
straight-curve $-1 3.8099999999999996 -14.605 8.254999999999999 0 1 0 I I #
point $-1 3.8099999999999996 -3.1749999999999998 8.254999999999999 #
edge $-1 $247 0 $239 1.5707963267948966 $251 $263 forward 7 unknown #
point $-1 3.8099999999999996 -14.605 8.254999999999999 #
edge $-1 $247 0 $217 1.5707963267948966 $244 $264 forward 7 unknown #
point $-1 3.1749999999999998 -14.605 8.8899999999999988 #
ellipse-curve $-1 3.1749999999999998 -3.1750000000000007 8.254999999999999 0 1 0 0 0 0.63499999999999979 1 I I #
ellipse-curve $-1 3.1749999999999998 -14.605 8.254999999999999 0 1 0 0 0 0.63499999999999979 1 I I #
ellipse-curve $-1 3.1749999999999998 -14.605 5.0799999999999992 1 0 0 0 0 3.8099999999999996 1 I I #
End-of-ACIS-data 