600 0 1 0           
95 GICL ACIS Healer - Source: /gicl/data5/repository/PTC/V18/bboxrev2/boombox/relay_.prt.sat - 6 0 18 ACIS 6.0.3 Solaris 24 Sat Apr 13 22:53:18 2002 
1 9.999999999999999547e-07 1.000000000000000036e-10 
body $-1 $1 $-1 $-1 #
lump $-1 $-1 $2 $0 #
shell $-1 $-1 $-1 $3 $-1 $1 #
face $-1 $4 $5 $2 $-1 $6 reversed single #
face $-1 $7 $8 $2 $-1 $9 forward single #
loop $-1 $-1 $10 $3 #
plane-surface $-1 0 0 0 0 0 1 1 0 0 forward_v I I I I #
face $-1 $11 $12 $2 $-1 $13 forward single #
loop $-1 $-1 $14 $4 #
cone-surface $-1 -3.174999999999999822 0 0 0 0 -1 -0.6349999999999998979 0 0 1 I I 0 1 0.6349999999999998979 forward I I I I #
coedge $-1 $15 $16 $17 $18 forward $5 $-1 #
face $-1 $19 $20 $2 $-1 $21 forward single #
loop $-1 $-1 $22 $7 #
torus-surface $-1 -3.174999999999999822 -3.174999999999999822 5.079999999999999183 -1 0 0 3.174999999999999822 0.6349999999999998979 0 0 1 forward_v I I I I #
coedge $-1 $23 $24 $22 $25 reversed $8 $-1 #
coedge $-1 $26 $10 $27 $28 reversed $5 $-1 #
coedge $-1 $10 $29 $30 $31 reversed $5 $-1 #
coedge $-1 $24 $23 $10 $18 reversed $8 $-1 #
edge $-1 $32 0 $33 1.570796326794896336 $10 $34 forward 7 unknown #
face $-1 $35 $36 $2 $-1 $37 forward single #
loop $-1 $-1 $38 $11 #
plane-surface $-1 -3.809999999999999609 0.6349999999999998979 0 -1 0 0 0 -1 0 forward_v I I I I #
coedge $-1 $39 $40 $14 $25 forward $12 $-1 #
coedge $-1 $17 $14 $41 $42 reversed $8 $-1 #
coedge $-1 $14 $17 $43 $44 forward $8 $-1 #
edge $-1 $45 0 $46 1.570796326794896336 $14 $47 forward 7 unknown #
coedge $-1 $48 $15 $49 $50 forward $5 $-1 #
coedge $-1 $41 $51 $15 $28 forward $52 $-1 #
edge $-1 $53 0 $33 6.349999999999999645 $15 $54 forward 7 unknown #
coedge $-1 $16 $55 $56 $57 forward $5 $-1 #
coedge $-1 $38 $43 $16 $31 forward $20 $-1 #
edge $-1 $32 0 $58 17.77999999999999758 $16 $59 forward 7 unknown #
vertex $-1 $31 $60 #
vertex $-1 $28 $61 #
ellipse-curve $-1 -3.174999999999999822 -1.249000902703301108e-16 0 0 0 -1 -0.6349999999999997868 1.249000902703301108e-16 0 1 I I #
face $-1 $62 $63 $2 $-1 $64 forward single #
loop $-1 $-1 $65 $19 #
cone-surface $-1 -3.174999999999999822 -17.77999999999999758 0 0 0 -1 0 -0.6349999999999998979 0 1 I I 0 1 0.6349999999999998979 forward I I I I #
coedge $-1 $66 $30 $67 $68 forward $20 $-1 #
coedge $-1 $69 $22 $70 $71 reversed $12 $-1 #
coedge $-1 $22 $69 $72 $73 forward $12 $-1 #
coedge $-1 $74 $27 $23 $42 forward $52 $-1 #
edge $-1 $33 0 $45 5.079999999999999183 $41 $75 forward 7 unknown #
coedge $-1 $30 $70 $24 $44 reversed $20 $-1 #
edge $-1 $32 0 $46 5.079999999999999183 $43 $76 forward 7 unknown #
vertex $-1 $77 $78 #
vertex $-1 $44 $79 #
ellipse-curve $-1 -3.174999999999999822 -1.804112415015879378e-16 5.079999999999999183 0 0 1 0 0.6350000000000001199 0 1 I I #
coedge $-1 $80 $26 $81 $82 reversed $5 $-1 #
coedge $-1 $83 $84 $26 $50 reversed $85 $-1 #
edge $-1 $53 0 $86 1.570796326794898334 $26 $87 forward 7 unknown #
coedge $-1 $27 $74 $83 $88 reversed $52 $-1 #
loop $-1 $-1 $41 $89 #
vertex $-1 $50 $90 #
straight-curve $-1 3.174999999999999822 0.6349999999999998979 0 -1 0 0 I I #
coedge $-1 $29 $80 $91 $92 reversed $5 $-1 #
coedge $-1 $93 $67 $29 $57 reversed $36 $-1 #
edge $-1 $94 0 $58 1.570796326794896558 $29 $95 forward 7 unknown #
vertex $-1 $31 $96 #
straight-curve $-1 -3.809999999999999609 0 0 0 -1 0 I I #
point $-1 -3.809999999999999609 0 0 #
point $-1 -3.174999999999999822 0.6349999999999998979 0 #
face $-1 $97 $98 $2 $-1 $99 forward single #
loop $-1 $-1 $100 $35 #
torus-surface $-1 -3.174999999999999822 -14.60500000000000043 5.079999999999999183 1 0 0 3.174999999999999822 0.6349999999999998979 0 0 1 forward_v I I I I #
coedge $-1 $67 $93 $101 $102 forward $36 $-1 #
coedge $-1 $103 $38 $104 $105 reversed $20 $-1 #
coedge $-1 $56 $65 $38 $68 reversed $36 $-1 #
edge $-1 $58 0 $106 5.079999999999999183 $38 $107 forward 7 unknown #
coedge $-1 $40 $39 $108 $109 reversed $12 $-1 #
coedge $-1 $43 $103 $39 $71 forward $20 $-1 #
edge $-1 $110 0 $46 1.570796326794896114 $70 $111 forward 7 unknown #
coedge $-1 $112 $113 $40 $73 reversed $114 $-1 #
edge $-1 $115 0 $45 1.570796326794896558 $72 $116 forward 7 unknown #
coedge $-1 $51 $41 $113 $77 reversed $52 $-1 #
straight-curve $-1 -3.174999999999999822 0.6349999999999998979 0 0 0 1 I I #
straight-curve $-1 -3.809999999999999609 0 0 0 0 1 I I #
edge $-1 $117 0 $45 6.349999999999999645 $74 $118 forward 7 unknown #
point $-1 -3.174999999999999822 0.6349999999999998979 5.079999999999999183 #
point $-1 -3.809999999999999609 0 5.079999999999999183 #
coedge $-1 $55 $48 $119 $120 forward $5 $-1 #
coedge $-1 $121 $122 $48 $82 forward $123 $-1 #
edge $-1 $124 0 $86 17.77999999999999758 $48 $125 forward 7 unknown #
coedge $-1 $126 $49 $51 $88 forward $85 $-1 #
coedge $-1 $49 $126 $121 $127 reversed $85 $-1 #
loop $-1 $-1 $126 $128 #
vertex $-1 $82 $129 #
ellipse-curve $-1 3.175000000000000266 6.383782391594650107e-16 0 0 0 -1 -4.440892098500626162e-16 0.6349999999999992317 0 1 I I #
edge $-1 $53 0 $117 5.079999999999999183 $51 $130 forward 7 unknown #
face $-1 $-1 $52 $2 $-1 $131 forward single #
point $-1 3.174999999999999822 0.6349999999999998979 0 #
coedge $-1 $132 $133 $55 $92 forward $134 $-1 #
edge $-1 $94 0 $135 6.349999999999999645 $55 $136 forward 7 unknown #
coedge $-1 $65 $56 $133 $137 forward $36 $-1 #
vertex $-1 $57 $138 #
ellipse-curve $-1 -3.174999999999999822 -17.77999999999999758 0 0 0 -1 0 -0.6350000000000015632 0 1 I I #
point $-1 -3.809999999999999609 -17.77999999999999758 0 #
face $-1 $139 $140 $2 $-1 $141 forward single #
loop $-1 $-1 $108 $62 #
cone-surface $-1 -3.174999999999999822 -3.174999999999999822 8.254999999999999005 0 -1 0 0 0 0.6349999999999998979 1 I I 0 1 0.6349999999999998979 forward I I I I #
coedge $-1 $104 $142 $143 $144 forward $63 $-1 #
coedge $-1 $142 $104 $65 $102 reversed $63 $-1 #
edge $-1 $145 0 $106 1.570796326794902331 $101 $146 forward 7 unknown #
coedge $-1 $70 $66 $147 $148 reversed $20 $-1 #
coedge $-1 $101 $100 $66 $105 forward $63 $-1 #
edge $-1 $149 0 $106 1.570796326794896336 $66 $150 forward 7 unknown #
vertex $-1 $105 $151 #
straight-curve $-1 -3.809999999999999609 -17.77999999999999758 0 0 0 1 I I #
coedge $-1 $147 $152 $69 $109 forward $98 $-1 #
edge $-1 $115 0 $110 1.570796326794896558 $69 $153 forward 7 unknown #
vertex $-1 $71 $154 #
ellipse-curve $-1 -3.809999999999999609 -3.175000000000000266 5.079999999999998295 -1 0 0 0 4.440892098500626162e-16 3.175000000000000711 1 I I #
coedge $-1 $155 $72 $156 $157 reversed $114 $-1 #
coedge $-1 $72 $155 $74 $77 forward $114 $-1 #
loop $-1 $-1 $155 $158 #
vertex $-1 $159 $160 #
ellipse-curve $-1 -3.174999999999999822 -3.174999999999999822 5.079999999999999183 -1 0 0 0 0 3.809999999999999609 1 I I #
vertex $-1 $88 $161 #
straight-curve $-1 3.174999999999999822 0.6349999999999998979 5.079999999999999183 -1 0 0 I I #
coedge $-1 $162 $163 $80 $120 reversed $164 $-1 #
edge $-1 $124 -5.594824691024428584e-15 $135 1.570796326794899445 $80 $165 forward 7 unknown #
coedge $-1 $166 $81 $84 $127 forward $123 $-1 #
coedge $-1 $81 $167 $162 $168 reversed $123 $-1 #
loop $-1 $-1 $121 $169 #
vertex $-1 $120 $170 #
straight-curve $-1 3.809999999999999609 -17.77999999999999758 0 0 1 0 I I #
coedge $-1 $84 $83 $171 $172 forward $85 $-1 #
edge $-1 $86 0 $173 5.079999999999999183 $121 $174 forward 7 unknown #
face $-1 $175 $85 $2 $-1 $176 forward single #
point $-1 3.809999999999999609 0 0 #
straight-curve $-1 3.174999999999999822 0.6349999999999998979 0 0 0 1 I I #
plane-surface $-1 3.809999999999999609 0.6349999999999998979 0 0 1 0 -1 0 0 forward_v I I I I #
coedge $-1 $177 $91 $163 $178 forward $134 $-1 #
coedge $-1 $91 $177 $93 $137 reversed $134 $-1 #
loop $-1 $-1 $132 $179 #
vertex $-1 $92 $180 #
straight-curve $-1 -3.174999999999999822 -18.41499999999999915 0 1 0 0 I I #
edge $-1 $94 0 $145 5.079999999999999183 $133 $181 forward 7 unknown #
point $-1 -3.174999999999999822 -18.41499999999999915 0 #
face $-1 $179 $182 $2 $-1 $183 forward single #
loop $-1 $-1 $184 $97 #
plane-surface $-1 0 0 8.889999999999998792 0 0 1 1 0 0 forward_v I I I I #
coedge $-1 $100 $101 $185 $186 reversed $63 $-1 #
coedge $-1 $152 $147 $100 $144 reversed $98 $-1 #
edge $-1 $187 0 $149 1.570796326794896558 $143 $188 forward 7 unknown #
vertex $-1 $137 $189 #
ellipse-curve $-1 -3.174999999999999822 -17.78000000000000114 5.079999999999999183 0 0 -1 0 -0.6349999999999980105 0 1 I I #
coedge $-1 $143 $108 $103 $148 forward $98 $-1 #
edge $-1 $110 0 $149 11.42999999999999972 $103 $190 forward 7 unknown #
vertex $-1 $148 $191 #
ellipse-curve $-1 -3.809999999999999609 -14.60499999999999865 5.080000000000000071 1 0 0 0 -1.776356839400250465e-15 3.174999999999998934 1 I I #
point $-1 -3.809999999999999609 -17.77999999999999758 5.079999999999999183 #
coedge $-1 $108 $143 $192 $159 reversed $98 $-1 #
ellipse-curve $-1 -3.174999999999999822 -3.174999999999999822 8.254999999999999005 0 -1 0 0 0 0.6349999999999997868 1 I I #
point $-1 -3.809999999999999609 -3.174999999999999822 8.254999999999999005 #
coedge $-1 $113 $112 $193 $194 forward $114 $-1 #
coedge $-1 $192 $195 $112 $157 forward $140 $-1 #
edge $-1 $196 0 $115 6.349999999999999645 $156 $197 forward 7 unknown #
face $-1 $89 $114 $2 $-1 $198 forward single #
edge $-1 $115 0 $187 11.42999999999999972 $192 $199 forward 7 unknown #
point $-1 -3.174999999999999822 -3.174999999999999822 8.889999999999998792 #
point $-1 3.174999999999999822 0.6349999999999998979 5.079999999999999183 #
coedge $-1 $200 $119 $122 $168 forward $164 $-1 #
coedge $-1 $119 $200 $132 $178 reversed $164 $-1 #
loop $-1 $-1 $200 $201 #
ellipse-curve $-1 3.175000000000001599 -17.78000000000000114 0 0 0 -1 0.6349999999999980105 0 0 1 I I #
coedge $-1 $202 $121 $203 $204 reversed $123 $-1 #
coedge $-1 $122 $202 $205 $206 forward $123 $-1 #
edge $-1 $124 2.484601276286651847e-30 $207 5.079999999999999183 $122 $208 forward 7 unknown #
face $-1 $128 $123 $2 $-1 $209 forward single #
point $-1 3.809999999999999609 -17.77999999999999758 0 #
coedge $-1 $193 $203 $126 $172 reversed $210 $-1 #
edge $-1 $117 0 $173 1.570796326794896336 $126 $211 forward 7 unknown #
vertex $-1 $204 $212 #
straight-curve $-1 3.809999999999999609 0 0 0 0 1 I I #
face $-1 $213 $210 $2 $-1 $214 forward single #
cone-surface $-1 3.174999999999999822 0 0 0 0 -1 0 0.6349999999999998979 0 1 I I 0 1 0.6349999999999998979 forward I I I I #
coedge $-1 $133 $132 $215 $216 reversed $134 $-1 #
edge $-1 $135 0 $217 5.079999999999999183 $132 $218 forward 7 unknown #
face $-1 $201 $134 $2 $-1 $219 forward single #
point $-1 3.174999999999999822 -18.41499999999999915 0 #
straight-curve $-1 -3.174999999999999822 -18.41499999999999915 0 0 0 1 I I #
loop $-1 $-1 $185 $139 #
cone-surface $-1 -3.809999999999999609 -14.60500000000000043 5.079999999999999183 1 0 0 0 0 3.809999999999999609 1 I I 0 1 3.809999999999999609 forward I I I I #
coedge $-1 $195 $192 $220 $221 forward $140 $-1 #
coedge $-1 $215 $220 $142 $186 forward $182 $-1 #
edge $-1 $187 0 $145 1.570796326794896558 $185 $222 forward 7 unknown #
vertex $-1 $159 $223 #
ellipse-curve $-1 -3.174999999999999822 -14.60500000000000043 8.254999999999999005 0 -1 0 0 0 0.6349999999999997868 1 I I #
point $-1 -3.174999999999999822 -18.4150000000000027 5.079999999999999183 #
straight-curve $-1 -3.809999999999999609 -3.174999999999999822 8.254999999999999005 0 -1 0 I I #
point $-1 -3.809999999999999609 -14.60500000000000043 8.254999999999999005 #
coedge $-1 $184 $156 $152 $159 forward $140 $-1 #
coedge $-1 $224 $171 $155 $194 reversed $210 $-1 #
edge $-1 $196 0 $117 1.570796326794896558 $155 $225 forward 7 unknown #
coedge $-1 $156 $184 $226 $227 forward $140 $-1 #
vertex $-1 $157 $228 #
straight-curve $-1 3.174999999999999822 -3.174999999999999822 8.889999999999998792 -1 0 0 I I #
cone-surface $-1 3.809999999999999609 -3.174999999999999822 5.079999999999999183 -1 0 0 0 0 3.809999999999999609 1 I I 0 1 3.809999999999999609 forward I I I I #
straight-curve $-1 -3.174999999999999822 -3.174999999999999822 8.889999999999998792 0 -1 0 I I #
coedge $-1 $163 $162 $229 $230 forward $164 $-1 #
face $-1 $231 $164 $2 $-1 $232 forward single #
coedge $-1 $167 $166 $233 $234 reversed $123 $-1 #
coedge $-1 $171 $224 $166 $204 forward $210 $-1 #
edge $-1 $235 0 $173 1.570796326794896114 $166 $236 forward 7 unknown #
coedge $-1 $237 $229 $167 $206 reversed $238 $-1 #
edge $-1 $239 0 $207 1.570796326794896336 $167 $240 forward 7 unknown #
vertex $-1 $168 $241 #
straight-curve $-1 3.809999999999999609 -17.78000000000000114 0 0 6.993530863780515023e-16 1 I I #
plane-surface $-1 3.809999999999999609 -18.41499999999999915 0 1 0 0 0 1 0 forward_v I I I I #
loop $-1 $-1 $224 $175 #
ellipse-curve $-1 3.174999999999999822 -1.804112415015879378e-16 5.079999999999999183 0 0 -1 0 0.6350000000000001199 0 1 I I #
point $-1 3.809999999999999609 3.888125173386046957e-17 5.079999999999999183 #
face $-1 $158 $242 $2 $-1 $243 forward single #
torus-surface $-1 3.174999999999999822 -3.174999999999999822 5.079999999999999183 -1 0 0 3.174999999999999822 0.6349999999999998979 0 0 1 forward_v I I I I #
coedge $-1 $244 $185 $177 $216 forward $182 $-1 #
edge $-1 $145 0 $217 6.349999999999999645 $177 $245 forward 7 unknown #
vertex $-1 $216 $246 #
straight-curve $-1 3.174999999999999822 -18.41499999999999915 0 0 0 1 I I #
plane-surface $-1 -3.809999999999999609 -18.41499999999999915 0 0 -1 0 1 0 0 forward_v I I I I #
coedge $-1 $185 $244 $184 $221 reversed $182 $-1 #
edge $-1 $187 0 $247 6.349999999999999645 $184 $248 forward 7 unknown #
ellipse-curve $-1 -3.174999999999999822 -14.60500000000000043 5.079999999999999183 1 0 0 0 0 3.809999999999999609 1 I I #
point $-1 -3.174999999999999822 -14.60500000000000043 8.889999999999998792 #
coedge $-1 $203 $193 $249 $250 forward $210 $-1 #
ellipse-curve $-1 3.174999999999999822 -3.174999999999999822 5.079999999999999183 -1 0 0 0 0 3.809999999999999609 1 I I #
coedge $-1 $251 $249 $195 $227 reversed $242 $-1 #
edge $-1 $247 0 $196 11.42999999999999972 $195 $252 forward 7 unknown #
point $-1 3.174999999999999822 -3.174999999999999822 8.889999999999998792 #
coedge $-1 $205 $253 $200 $230 reversed $238 $-1 #
edge $-1 $207 0 $217 1.570796326794900999 $229 $254 forward 7 unknown #
face $-1 $169 $238 $2 $-1 $255 forward single #
cone-surface $-1 3.174999999999999822 -17.77999999999999758 0 0 0 -1 0.6349999999999998979 -3.552713678800501718e-15 0 1 I I 0 1 0.6349999999999998979 forward I I I I #
coedge $-1 $249 $251 $202 $234 forward $242 $-1 #
edge $-1 $239 0 $235 11.42999999999999972 $202 $256 forward 7 unknown #
vertex $-1 $234 $257 #
ellipse-curve $-1 3.809999999999999609 -3.175000000000000711 5.079999999999998295 -1 0 0 0 8.881784197001252323e-16 3.175000000000000711 1 I I #
coedge $-1 $253 $205 $251 $258 reversed $238 $-1 #
loop $-1 $-1 $229 $231 #
vertex $-1 $206 $259 #
ellipse-curve $-1 3.809999999999999609 -14.60499999999999865 5.080000000000000071 1 0 0 0 -1.776356839400250465e-15 3.174999999999998934 1 I I #
point $-1 3.809999999999999609 -17.77999999999999758 5.079999999999999183 #
loop $-1 $-1 $251 $213 #
cone-surface $-1 3.174999999999999822 -14.60500000000000043 8.254999999999999005 0 1 0 0 0 0.6349999999999998979 1 I I 0 1 0.6349999999999998979 forward I I I I #
coedge $-1 $220 $215 $253 $260 reversed $182 $-1 #
straight-curve $-1 -3.174999999999999822 -18.41499999999999915 5.079999999999999183 1 0 0 I I #
point $-1 3.174999999999999822 -18.4150000000000027 5.079999999999999183 #
vertex $-1 $227 $261 #
straight-curve $-1 -3.174999999999999822 -14.60500000000000043 8.889999999999998792 1 0 0 I I #
coedge $-1 $226 $233 $224 $250 reversed $242 $-1 #
edge $-1 $196 0 $235 1.570796326794896558 $224 $262 forward 7 unknown #
coedge $-1 $233 $226 $237 $258 forward $242 $-1 #
straight-curve $-1 3.174999999999999822 -14.60500000000000043 8.889999999999998792 0 1 0 I I #
coedge $-1 $229 $237 $244 $260 forward $238 $-1 #
ellipse-curve $-1 3.174999999999998934 -17.78000000000000114 5.079999999999999183 0 0 -1 0.635000000000000675 3.552713678800500929e-15 0 1 I I #
torus-surface $-1 3.174999999999999822 -14.60500000000000043 5.079999999999999183 1 0 0 3.174999999999999822 0.6349999999999998979 0 0 1 forward_v I I I I #
straight-curve $-1 3.809999999999999609 -14.60500000000000043 8.254999999999999005 0 1 0 I I #
point $-1 3.809999999999999609 -3.174999999999999822 8.254999999999999005 #
edge $-1 $247 0 $239 1.570796326794896558 $251 $263 forward 7 unknown #
point $-1 3.809999999999999609 -14.60500000000000043 8.254999999999999005 #
edge $-1 $247 0 $217 1.570796326794896558 $244 $264 forward 7 unknown #
point $-1 3.174999999999999822 -14.60500000000000043 8.889999999999998792 #
ellipse-curve $-1 3.174999999999999822 -3.175000000000000711 8.254999999999999005 0 1 0 0 0 0.6349999999999997868 1 I I #
ellipse-curve $-1 3.174999999999999822 -14.60500000000000043 8.254999999999999005 0 1 0 0 0 0.6349999999999997868 1 I I #
ellipse-curve $-1 3.174999999999999822 -14.60500000000000043 5.079999999999999183 1 0 0 0 0 3.809999999999999609 1 I I #
End-of-ACIS-data 