700 0 2 0           
24 FBMach with ACIS - 7.0.3 13 ACIS 7.0.3 NT 24 Thu May 16 11:14:02 2002 
1 9.9999999999999995e-007 1e-010 
body $2 -1 $-1 $3 $-1 $4 #
bdycol-kcp $-1 -1 1 2 $5 $6 #
model_id-kcp-attrib $-1 -1 $-1 $-1 $0 1 1021562042 1021562042 -1136787455 1 #
lump $-1 -1 $-1 $-1 $7 $0 #
transform $-1 -1 1 0 0 0 1 0 0 0 1 0 0 0 1 rotate no_reflect no_shear #
body $8 -1 $-1 $9 $-1 $10 #
body $11 -1 $-1 $12 $-1 $13 #
shell $-1 -1 $-1 $-1 $-1 $14 $-1 $3 #
rgb_color-st-attrib $-1 -1 $15 $-1 $5 0.5 1 1 #
lump $-1 -1 $-1 $16 $17 $5 #
transform $-1 -1 1 0 0 0 1 0 0 0 1 -6.6613381477509392e-016 -8.8900000000000006 4.4449999999999994 1 no_rotate no_reflect no_shear #
model_id-kcp-attrib $-1 -1 $-1 $-1 $6 1 1021562042 1021562042 -1136132094 1 #
lump $-1 -1 $-1 $-1 $18 $6 #
transform $-1 -1 1 0 0 0 1 0 0 0 1 -6.6613381477509392e-016 -8.8900000000000006 4.4449999999999994 1 no_rotate no_reflect no_shear #
face $19 -1 $-1 $20 $21 $7 $-1 $22 reversed single #
model_id-kcp-attrib $-1 -1 $-1 $8 $5 1 1021562042 1021562042 -1137836029 1 #
lump $-1 -1 $-1 $-1 $23 $5 #
shell $-1 -1 $-1 $-1 $-1 $24 $-1 $9 #
shell $-1 -1 $-1 $-1 $-1 $25 $-1 $12 #
model_id-kcp-attrib $-1 -1 $-1 $-1 $14 1 1021562042 1021562042 -1136787455 2 #
face $26 -1 $-1 $27 $28 $7 $-1 $29 forward single #
loop $-1 -1 $-1 $-1 $30 $14 #
plane-surface $-1 -1 $-1 0 0 0 0 0 1 1 0 0 forward_v I I I I #
shell $-1 -1 $-1 $-1 $-1 $31 $-1 $16 #
face $-1 -1 $-1 $32 $33 $17 $-1 $34 reversed single #
face $35 -1 $-1 $36 $37 $18 $-1 $38 forward single #
model_id-kcp-attrib $-1 -1 $-1 $-1 $20 1 1021562042 1021562042 -1136787455 3 #
face $39 -1 $-1 $40 $41 $7 $-1 $42 forward single #
loop $-1 -1 $-1 $-1 $43 $20 #
cone-surface $-1 -1 $-1 -3.1749999999999998 0 0 0 0 -1 -0.6349999999999999 0 0 1 I I 0 1 0.6349999999999999 forward I I I I #
coedge $-1 -1 $-1 $44 $45 $46 $47 forward $21 $-1 #
face $-1 -1 $-1 $48 $49 $23 $-1 $50 reversed single #
face $-1 -1 $-1 $51 $52 $17 $-1 $53 forward single #
loop $-1 -1 $-1 $-1 $54 $24 #
cone-surface $-1 -1 $-1 -3.8099999999999987 5.7150000000000007 0.6349999999999989 -1 0 0 0 0 3.8100000000000001 1 I I 0 1 3.8100000000000001 forward I I I I #
model_id-kcp-attrib $-1 -1 $-1 $-1 $25 1 1021562042 1021562042 -1136132094 4 #
face $55 -1 $-1 $56 $57 $18 $-1 $58 reversed single #
loop $-1 -1 $-1 $-1 $59 $25 #
plane-surface $-1 -1 $-1 0 0 4.4449999999999994 0 0 1 1 0 0 forward_v I I I I #
model_id-kcp-attrib $-1 -1 $-1 $-1 $27 1 1021562042 1021562042 -1136787455 4 #
face $60 -1 $-1 $61 $62 $7 $-1 $63 forward single #
loop $-1 -1 $-1 $-1 $64 $27 #
torus-surface $-1 -1 $-1 -3.1749999999999998 -3.1749999999999998 5.0799999999999992 -1 0 0 3.1749999999999998 0.6349999999999999 0 0 1 forward_v I I I I #
coedge $-1 -1 $-1 $65 $66 $64 $67 reversed $28 $-1 #
coedge $-1 -1 $-1 $68 $30 $69 $70 reversed $21 $-1 #
coedge $-1 -1 $-1 $30 $71 $72 $73 reversed $21 $-1 #
coedge $-1 -1 $-1 $66 $65 $30 $47 reversed $28 $-1 #
edge $74 -1 $-1 $75 0 $76 1.5707963267948963 $30 $77 forward @7 unknown #
face $-1 -1 $-1 $78 $79 $23 $-1 $80 reversed single #
loop $-1 -1 $-1 $-1 $81 $31 #
plane-surface $-1 -1 $-1 0 -9.5250000000000021 0 0 1 0 0 0 1 forward_v I I I I #
face $-1 -1 $-1 $82 $83 $17 $-1 $84 reversed single #
loop $-1 -1 $-1 $-1 $85 $32 #
plane-surface $-1 -1 $-1 0 0 4.4449999999999994 0 0 1 1 0 0 forward_v I I I I #
coedge $-1 -1 $-1 $86 $87 $88 $89 reversed $33 $-1 #
model_id-kcp-attrib $-1 -1 $-1 $-1 $36 1 1021562042 1021562042 -1136132094 2 #
face $90 -1 $-1 $91 $92 $18 $-1 $93 reversed single #
loop $-1 -1 $-1 $-1 $94 $36 #
plane-surface $-1 -1 $-1 0 0 -4.4449999999999994 0 0 1 1 0 0 forward_v I I I I #
coedge $-1 -1 $-1 $95 $96 $97 $98 forward $37 $-1 #
model_id-kcp-attrib $-1 -1 $-1 $-1 $40 1 1021562042 1021562042 -1136787455 5 #
face $99 -1 $-1 $100 $101 $7 $-1 $102 forward single #
loop $-1 -1 $-1 $-1 $103 $40 #
plane-surface $-1 -1 $-1 -3.8099999999999996 0.6349999999999999 0 -1 0 0 0 -1 0 forward_v I I I I #
coedge $-1 -1 $-1 $104 $105 $43 $67 forward $41 $-1 #
coedge $-1 -1 $-1 $46 $43 $106 $107 reversed $28 $-1 #
coedge $-1 -1 $-1 $43 $46 $108 $109 forward $28 $-1 #
edge $-1 -1 $-1 $110 0 $111 1.5707963267948963 $43 $112 forward @7 unknown #
coedge $-1 -1 $-1 $113 $44 $114 $115 forward $21 $-1 #
coedge $-1 -1 $-1 $106 $116 $44 $70 forward $117 $-1 #
edge $118 -1 $-1 $119 0 $76 6.3499999999999996 $44 $120 forward @7 unknown #
coedge $-1 -1 $-1 $45 $121 $122 $123 forward $21 $-1 #
coedge $-1 -1 $-1 $103 $108 $45 $73 forward $62 $-1 #
edge $124 -1 $-1 $75 0 $125 17.779999999999998 $45 $126 forward @7 unknown #
attrib_edge_convexity-kcp-attrib $-1 -1 $127 $-1 $47 1 #
vertex $-1 -1 $-1 $73 $128 #
vertex $-1 -1 $-1 $70 $129 #
ellipse-curve $-1 -1 $-1 -3.1749999999999998 -1.2490009027033011e-016 0 0 0 -1 -0.63499999999999979 1.2490009027033011e-016 0 1 I I #
face $-1 -1 $-1 $130 $131 $23 $-1 $84 reversed single #
loop $-1 -1 $-1 $-1 $132 $48 #
plane-surface $-1 -1 $-1 3.8100000000000005 0 0 -1 0 0 0 0 1 forward_v I I I I #
coedge $-1 -1 $-1 $133 $134 $135 $136 reversed $49 $-1 #
face $-1 -1 $-1 $137 $138 $17 $-1 $139 reversed single #
loop $-1 -1 $-1 $-1 $88 $51 #
plane-surface $-1 -1 $-1 -3.8100000000000005 0 0 1 0 0 0 0 -1 forward_v I I I I #
coedge $-1 -1 $-1 $140 $141 $87 $142 reversed $52 $-1 #
coedge $-1 -1 $-1 $143 $54 $144 $145 reversed $33 $-1 #
coedge $-1 -1 $-1 $54 $143 $85 $142 forward $33 $-1 #
coedge $-1 -1 $-1 $146 $147 $54 $89 forward $83 $-1 #
edge $-1 -1 $-1 $148 -1.5707963267948963 $149 0 $88 $150 forward @7 unknown #
model_id-kcp-attrib $-1 -1 $-1 $-1 $56 1 1021562042 1021562042 -1136132094 5 #
face $151 -1 $-1 $152 $153 $18 $-1 $154 reversed single #
loop $-1 -1 $-1 $-1 $155 $56 #
plane-surface $-1 -1 $-1 0 -9.5250000000000021 0 0 1 0 0 0 1 forward_v I I I I #
coedge $-1 -1 $-1 $156 $157 $158 $159 forward $57 $-1 #
coedge $-1 -1 $-1 $160 $59 $161 $162 forward $37 $-1 #
coedge $-1 -1 $-1 $59 $160 $163 $164 forward $37 $-1 #
coedge $-1 -1 $-1 $165 $166 $59 $98 reversed $167 $-1 #
edge $-1 -1 $-1 $168 -9.5250000000000021 $169 9.5250000000000021 $97 $170 forward @7 unknown #
model_id-kcp-attrib $-1 -1 $-1 $-1 $61 1 1021562042 1021562042 -1136787455 6 #
face $171 -1 $-1 $172 $173 $7 $-1 $174 forward single #
loop $-1 -1 $-1 $-1 $175 $61 #
cone-surface $-1 -1 $-1 -3.1749999999999998 -17.779999999999998 0 0 0 -1 0 -0.6349999999999999 0 1 I I 0 1 0.6349999999999999 forward I I I I #
coedge $-1 -1 $-1 $176 $72 $177 $178 forward $62 $-1 #
coedge $-1 -1 $-1 $179 $64 $180 $181 reversed $41 $-1 #
coedge $-1 -1 $-1 $64 $179 $182 $183 forward $41 $-1 #
coedge $-1 -1 $-1 $184 $69 $65 $107 forward $117 $-1 #
edge $-1 -1 $-1 $76 0 $110 5.0799999999999992 $106 $185 forward @7 unknown #
coedge $-1 -1 $-1 $72 $180 $66 $109 reversed $62 $-1 #
edge $186 -1 $-1 $75 0 $111 5.0799999999999992 $108 $187 forward @7 unknown #
vertex $-1 -1 $-1 $188 $189 #
vertex $-1 -1 $-1 $109 $190 #
ellipse-curve $-1 -1 $-1 -3.1749999999999998 -1.8041124150158794e-016 5.0799999999999992 0 0 1 0 0.63500000000000012 0 1 I I #
coedge $-1 -1 $-1 $191 $68 $192 $193 reversed $21 $-1 #
coedge $-1 -1 $-1 $194 $195 $68 $115 reversed $196 $-1 #
edge $197 -1 $-1 $119 0 $198 1.5707963267948983 $68 $199 forward @7 unknown #
coedge $-1 -1 $-1 $69 $184 $194 $200 reversed $117 $-1 #
loop $-1 -1 $-1 $-1 $106 $201 #
attrib_edge_convexity-kcp-attrib $-1 -1 $202 $-1 $70 1 #
vertex $-1 -1 $-1 $115 $203 #
straight-curve $-1 -1 $-1 3.1749999999999998 0.6349999999999999 0 -1 0 0 I I #
coedge $-1 -1 $-1 $71 $191 $204 $205 reversed $21 $-1 #
coedge $-1 -1 $-1 $206 $177 $71 $123 reversed $101 $-1 #
edge $207 -1 $-1 $208 0 $125 1.5707963267948966 $71 $209 forward @7 unknown #
attrib_edge_convexity-kcp-attrib $-1 -1 $210 $-1 $73 1 #
vertex $-1 -1 $-1 $73 $211 #
straight-curve $-1 -1 $-1 -3.8099999999999996 0 0 0 -1 0 I I #
convexity-sys-attrib $-1 -1 $-1 $74 $47 #
point $-1 -1 $-1 -3.8099999999999996 0 0 #
point $-1 -1 $-1 -3.1749999999999998 0.6349999999999999 0 #
face $-1 -1 $-1 $212 $213 $23 $-1 $53 forward single #
loop $-1 -1 $-1 $-1 $214 $78 #
coedge $-1 -1 $-1 $215 $216 $217 $218 forward $79 $-1 #
coedge $-1 -1 $-1 $219 $81 $216 $220 reversed $49 $-1 #
coedge $-1 -1 $-1 $81 $219 $221 $222 forward $49 $-1 #
coedge $-1 -1 $-1 $223 $217 $81 $136 forward $224 $-1 #
edge $-1 -1 $-1 $225 -7.6199999999999992 $226 1.7763568394002505e-015 $81 $227 forward @7 unknown #
face $-1 -1 $-1 $-1 $228 $17 $-1 $80 reversed single #
loop $-1 -1 $-1 $-1 $144 $82 #
plane-surface $-1 -1 $-1 0 9.5250000000000021 0 0 -1 0 0 0 -1 forward_v I I I I #
coedge $-1 -1 $-1 $229 $85 $230 $231 forward $52 $-1 #
coedge $-1 -1 $-1 $85 $229 $146 $232 forward $52 $-1 #
edge $-1 -1 $-1 $233 -7.6199999999999992 $149 1.7763568394002505e-015 $85 $234 forward @7 unknown #
coedge $-1 -1 $-1 $87 $86 $235 $236 reversed $33 $-1 #
coedge $-1 -1 $-1 $237 $238 $86 $145 forward $138 $-1 #
edge $-1 -1 $-1 $239 -7.6199999999999992 $148 1.7763568394002505e-015 $144 $240 forward @7 unknown #
coedge $-1 -1 $-1 $147 $88 $141 $232 reversed $83 $-1 #
coedge $-1 -1 $-1 $88 $146 $237 $241 forward $83 $-1 #
vertex $-1 -1 $-1 $89 $242 #
vertex $-1 -1 $-1 $142 $243 #
ellipse-curve $-1 -1 $-1 -3.8100000000000005 5.7150000000000007 0.6349999999999989 1 0 0 0 0 3.8100000000000001 1 I I #
model_id-kcp-attrib $-1 -1 $-1 $-1 $91 1 1021562042 1021562042 -1136132094 3 #
face $244 -1 $-1 $245 $246 $18 $-1 $247 reversed single #
loop $-1 -1 $-1 $-1 $248 $91 #
plane-surface $-1 -1 $-1 -3.8100000000000005 0 0 1 0 0 0 0 -1 forward_v I I I I #
coedge $-1 -1 $-1 $249 $163 $250 $251 forward $92 $-1 #
coedge $-1 -1 $-1 $252 $94 $249 $253 forward $57 $-1 #
coedge $-1 -1 $-1 $94 $252 $254 $255 forward $57 $-1 #
coedge $-1 -1 $-1 $166 $165 $94 $159 reversed $167 $-1 #
edge $-1 -1 $-1 $256 -9.5250000000000021 $257 9.5250000000000021 $158 $258 forward @7 unknown #
coedge $-1 -1 $-1 $96 $95 $259 $260 forward $37 $-1 #
coedge $-1 -1 $-1 $261 $262 $95 $162 reversed $246 $-1 #
edge $-1 -1 $-1 $169 -3.8100000000000005 $263 3.8100000000000005 $161 $264 forward @7 unknown #
coedge $-1 -1 $-1 $155 $265 $96 $164 reversed $92 $-1 #
edge $-1 -1 $-1 $266 -3.8100000000000005 $168 3.8100000000000005 $163 $267 forward @7 unknown #
coedge $-1 -1 $-1 $158 $97 $265 $268 forward $167 $-1 #
coedge $-1 -1 $-1 $97 $158 $261 $269 reversed $167 $-1 #
loop $-1 -1 $-1 $-1 $165 $245 #
vertex $-1 -1 $-1 $98 $270 #
vertex $-1 -1 $-1 $98 $271 #
straight-curve $-1 -1 $-1 3.8100000000000005 0 4.4449999999999994 0 1 0 I I #
model_id-kcp-attrib $-1 -1 $-1 $-1 $100 1 1021562042 1021562042 -1136787455 7 #
face $272 -1 $-1 $273 $274 $7 $-1 $275 forward single #
loop $-1 -1 $-1 $-1 $276 $100 #
torus-surface $-1 -1 $-1 -3.1749999999999998 -14.605 5.0799999999999992 1 0 0 3.1749999999999998 0.6349999999999999 0 0 1 forward_v I I I I #
coedge $-1 -1 $-1 $177 $206 $277 $278 forward $101 $-1 #
coedge $-1 -1 $-1 $279 $103 $280 $281 reversed $62 $-1 #
coedge $-1 -1 $-1 $122 $175 $103 $178 reversed $101 $-1 #
edge $282 -1 $-1 $125 0 $283 5.0799999999999992 $103 $284 forward @7 unknown #
coedge $-1 -1 $-1 $105 $104 $285 $286 reversed $41 $-1 #
coedge $-1 -1 $-1 $108 $279 $104 $181 forward $62 $-1 #
edge $287 -1 $-1 $288 0 $111 1.5707963267948961 $180 $289 forward @7 unknown #
coedge $-1 -1 $-1 $290 $291 $105 $183 reversed $292 $-1 #
edge $-1 -1 $-1 $293 0 $110 1.5707963267948966 $182 $294 forward @7 unknown #
coedge $-1 -1 $-1 $116 $106 $291 $188 reversed $117 $-1 #
straight-curve $-1 -1 $-1 -3.1749999999999998 0.6349999999999999 0 0 0 1 I I #
attrib_edge_convexity-kcp-attrib $-1 -1 $295 $-1 $109 3 #
straight-curve $-1 -1 $-1 -3.8099999999999996 0 0 0 0 1 I I #
edge $-1 -1 $-1 $296 0 $110 6.3499999999999996 $184 $297 forward @7 unknown #
point $-1 -1 $-1 -3.1749999999999998 0.6349999999999999 5.0799999999999992 #
point $-1 -1 $-1 -3.8099999999999996 0 5.0799999999999992 #
coedge $-1 -1 $-1 $121 $113 $298 $299 forward $21 $-1 #
coedge $-1 -1 $-1 $300 $301 $113 $193 forward $302 $-1 #
edge $303 -1 $-1 $304 0 $198 17.779999999999998 $113 $305 forward @7 unknown #
coedge $-1 -1 $-1 $306 $114 $116 $200 forward $196 $-1 #
coedge $-1 -1 $-1 $114 $306 $300 $307 reversed $196 $-1 #
loop $-1 -1 $-1 $-1 $306 $308 #
model_id-kcp-attrib $-1 -1 $309 $-1 $115 1 1021562042 1021562042 -1136787455 24 #
vertex $-1 -1 $-1 $193 $310 #
ellipse-curve $-1 -1 $-1 3.1750000000000003 6.3837823915946501e-016 0 0 0 -1 -4.4408920985006262e-016 0.63499999999999923 0 1 I I #
edge $311 -1 $-1 $119 0 $296 5.0799999999999992 $116 $312 forward @7 unknown #
face $313 -1 $-1 $-1 $117 $7 $-1 $314 forward single #
convexity-sys-attrib $-1 -1 $-1 $118 $70 #
point $-1 -1 $-1 3.1749999999999998 0.6349999999999999 0 #
coedge $-1 -1 $-1 $315 $316 $121 $205 forward $317 $-1 #
edge $318 -1 $-1 $208 0 $319 6.3499999999999996 $121 $320 forward @7 unknown #
coedge $-1 -1 $-1 $175 $122 $316 $321 forward $101 $-1 #
attrib_edge_convexity-kcp-attrib $-1 -1 $322 $-1 $123 1 #
vertex $-1 -1 $-1 $123 $323 #
ellipse-curve $-1 -1 $-1 -3.1749999999999998 -17.779999999999998 0 0 0 -1 0 -0.63500000000000156 0 1 I I #
convexity-sys-attrib $-1 -1 $-1 $124 $73 #
point $-1 -1 $-1 -3.8099999999999996 -17.779999999999998 0 #
face $-1 -1 $-1 $-1 $224 $23 $-1 $324 reversed single #
loop $-1 -1 $-1 $-1 $325 $130 #
coedge $-1 -1 $-1 $221 $326 $223 $327 forward $131 $-1 #
coedge $-1 -1 $-1 $216 $132 $328 $329 reversed $79 $-1 #
coedge $-1 -1 $-1 $132 $215 $133 $220 forward $79 $-1 #
coedge $-1 -1 $-1 $135 $330 $132 $218 reversed $224 $-1 #
edge $-1 -1 $-1 $225 -1.5707963267948966 $331 0 $132 $332 forward @7 unknown #
coedge $-1 -1 $-1 $134 $133 $333 $334 reversed $49 $-1 #
edge $-1 -1 $-1 $335 -4.4449999999999994 $225 -0.6349999999999989 $216 $336 forward @7 unknown #
coedge $-1 -1 $-1 $326 $214 $134 $222 reversed $131 $-1 #
edge $-1 -1 $-1 $337 -4.4449999999999994 $226 -0.6349999999999989 $221 $338 forward @7 unknown #
coedge $-1 -1 $-1 $330 $135 $214 $327 reversed $224 $-1 #
loop $-1 -1 $-1 $-1 $223 $212 #
vertex $-1 -1 $-1 $136 $339 #
vertex $-1 -1 $-1 $136 $340 #
straight-curve $-1 -1 $-1 -3.8099999999999987 -9.5250000000000021 0.6349999999999989 -1 0 0 I I #
loop $-1 -1 $-1 $-1 $235 $137 #
coedge $-1 -1 $-1 $141 $140 $341 $342 forward $52 $-1 #
coedge $-1 -1 $-1 $235 $343 $140 $231 reversed $228 $-1 #
edge $-1 -1 $-1 $233 5.7150000000000007 $344 9.5250000000000021 $230 $345 forward @7 unknown #
edge $-1 -1 $-1 $346 -9.5250000000000021 $149 -5.7150000000000007 $146 $347 forward @7 unknown #
vertex $-1 -1 $-1 $231 $348 #
straight-curve $-1 -1 $-1 -3.8099999999999987 5.7150000000000007 4.4449999999999994 -1 0 0 I I #
coedge $-1 -1 $-1 $343 $230 $143 $236 forward $228 $-1 #
edge $-1 -1 $-1 $233 0 $239 1.5707963267948963 $235 $349 forward @7 unknown #
coedge $-1 -1 $-1 $341 $144 $147 $241 reversed $138 $-1 #
coedge $-1 -1 $-1 $144 $341 $343 $350 forward $138 $-1 #
vertex $-1 -1 $-1 $236 $351 #
straight-curve $-1 -1 $-1 -3.8099999999999987 9.5250000000000021 0.6349999999999989 -1 0 0 I I #
edge $-1 -1 $-1 $346 -4.4449999999999994 $148 -0.63499999999999979 $237 $352 forward @7 unknown #
point $-1 -1 $-1 -3.8100000000000005 9.5249999999999986 0.63499999999999979 #
point $-1 -1 $-1 -3.8100000000000005 5.7150000000000007 4.4449999999999994 #
model_id-kcp-attrib $-1 -1 $-1 $-1 $152 1 1021562042 1021562042 -1136132094 7 #
face $353 -1 $-1 $-1 $167 $18 $-1 $354 reversed single #
loop $-1 -1 $-1 $-1 $261 $152 #
plane-surface $-1 -1 $-1 0 9.5250000000000021 0 0 -1 0 0 0 -1 forward_v I I I I #
coedge $-1 -1 $-1 $355 $259 $262 $356 forward $153 $-1 #
coedge $-1 -1 $-1 $265 $155 $156 $253 reversed $92 $-1 #
coedge $-1 -1 $-1 $259 $355 $155 $251 reversed $153 $-1 #
edge $-1 -1 $-1 $266 -4.4449999999999994 $357 4.4449999999999994 $250 $358 forward @7 unknown #
coedge $-1 -1 $-1 $157 $156 $355 $359 forward $57 $-1 #
edge $-1 -1 $-1 $257 -3.8100000000000005 $357 3.8100000000000005 $249 $360 forward @7 unknown #
coedge $-1 -1 $-1 $262 $261 $157 $255 reversed $246 $-1 #
edge $-1 -1 $-1 $361 -3.8100000000000005 $256 3.8100000000000005 $254 $362 forward @7 unknown #
vertex $-1 -1 $-1 $159 $363 #
vertex $-1 -1 $-1 $268 $364 #
straight-curve $-1 -1 $-1 3.8100000000000005 0 -4.4449999999999994 0 -1 0 I I #
coedge $-1 -1 $-1 $248 $250 $160 $260 reversed $153 $-1 #
edge $-1 -1 $-1 $263 -9.5250000000000021 $266 9.5250000000000021 $259 $365 forward @7 unknown #
coedge $-1 -1 $-1 $254 $161 $166 $269 forward $246 $-1 #
coedge $-1 -1 $-1 $161 $254 $248 $356 reversed $246 $-1 #
vertex $-1 -1 $-1 $162 $366 #
straight-curve $-1 -1 $-1 0 9.5250000000000021 4.4449999999999994 -1 0 0 I I #
coedge $-1 -1 $-1 $163 $249 $165 $268 reversed $92 $-1 #
vertex $-1 -1 $-1 $260 $367 #
straight-curve $-1 -1 $-1 0 -9.5250000000000021 4.4449999999999994 1 0 0 I I #
edge $-1 -1 $-1 $168 -4.4449999999999994 $257 4.4449999999999994 $165 $368 forward @7 unknown #
edge $-1 -1 $-1 $169 -4.4449999999999994 $256 4.4449999999999994 $166 $369 forward @7 unknown #
point $-1 -1 $-1 3.8100000000000005 -9.5250000000000021 4.4449999999999994 #
point $-1 -1 $-1 3.8100000000000005 9.5250000000000021 4.4449999999999994 #
model_id-kcp-attrib $-1 -1 $-1 $-1 $172 1 1021562042 1021562042 -1136787455 8 #
face $370 -1 $-1 $371 $372 $7 $-1 $373 forward single #
loop $-1 -1 $-1 $-1 $285 $172 #
cone-surface $-1 -1 $-1 -3.1749999999999998 -3.1749999999999998 8.254999999999999 0 -1 0 0 0 0.6349999999999999 1 I I 0 1 0.6349999999999999 forward I I I I #
coedge $-1 -1 $-1 $280 $374 $375 $376 forward $173 $-1 #
coedge $-1 -1 $-1 $374 $280 $175 $278 reversed $173 $-1 #
edge $-1 -1 $-1 $377 0 $283 1.5707963267949023 $277 $378 forward @7 unknown #
coedge $-1 -1 $-1 $180 $176 $379 $380 reversed $62 $-1 #
coedge $-1 -1 $-1 $277 $276 $176 $281 forward $173 $-1 #
edge $381 -1 $-1 $382 0 $283 1.5707963267948963 $176 $383 forward @7 unknown #
attrib_edge_convexity-kcp-attrib $-1 -1 $384 $-1 $178 3 #
vertex $-1 -1 $-1 $281 $385 #
straight-curve $-1 -1 $-1 -3.8099999999999996 -17.779999999999998 0 0 0 1 I I #
coedge $-1 -1 $-1 $379 $386 $179 $286 forward $274 $-1 #
edge $-1 -1 $-1 $293 0 $288 1.5707963267948966 $179 $387 forward @7 unknown #
attrib_edge_convexity-kcp-attrib $-1 -1 $388 $-1 $181 3 #
vertex $-1 -1 $-1 $181 $389 #
ellipse-curve $-1 -1 $-1 -3.8099999999999996 -3.1750000000000003 5.0799999999999983 -1 0 0 0 4.4408920985006262e-016 3.1750000000000007 1 I I #
coedge $-1 -1 $-1 $390 $182 $391 $392 reversed $292 $-1 #
coedge $-1 -1 $-1 $182 $390 $184 $188 forward $292 $-1 #
loop $-1 -1 $-1 $-1 $390 $393 #
vertex $-1 -1 $-1 $394 $395 #
ellipse-curve $-1 -1 $-1 -3.1749999999999998 -3.1749999999999998 5.0799999999999992 -1 0 0 0 0 3.8099999999999996 1 I I #
convexity-sys-attrib $-1 -1 $-1 $186 $109 #
vertex $-1 -1 $-1 $200 $396 #
straight-curve $-1 -1 $-1 3.1749999999999998 0.6349999999999999 5.0799999999999992 -1 0 0 I I #
coedge $-1 -1 $-1 $397 $398 $191 $299 reversed $399 $-1 #
edge $400 -1 $-1 $304 -5.5948246910244286e-015 $319 1.5707963267948994 $191 $401 forward @7 unknown #
coedge $-1 -1 $-1 $402 $192 $195 $307 forward $302 $-1 #
coedge $-1 -1 $-1 $192 $403 $397 $404 reversed $302 $-1 #
loop $-1 -1 $-1 $-1 $300 $405 #
model_id-kcp-attrib $-1 -1 $406 $-1 $193 1 1021562042 1021562042 -1136787455 25 #
vertex $-1 -1 $-1 $299 $407 #
straight-curve $-1 -1 $-1 3.8099999999999996 -17.779999999999998 0 0 1 0 I I #
coedge $-1 -1 $-1 $195 $194 $408 $409 forward $196 $-1 #
edge $-1 -1 $-1 $198 0 $410 5.0799999999999992 $300 $411 forward @7 unknown #
face $412 -1 $-1 $413 $196 $7 $-1 $414 forward single #
attrib_edge_convexity-kcp-attrib $-1 -1 $415 $197 $115 1 #
point $-1 -1 $-1 3.8099999999999996 0 0 #
model_id-kcp-attrib $-1 -1 $-1 $-1 $200 1 1021562042 1021562042 -1136787455 23 #
straight-curve $-1 -1 $-1 3.1749999999999998 0.6349999999999999 0 0 0 1 I I #
model_id-kcp-attrib $-1 -1 $-1 $-1 $201 1 1021562042 1021562042 -1136787455 19 #
plane-surface $-1 -1 $-1 3.8099999999999996 0.6349999999999999 0 0 1 0 -1 0 0 forward_v I I I I #
coedge $-1 -1 $-1 $416 $204 $398 $417 forward $317 $-1 #
coedge $-1 -1 $-1 $204 $416 $206 $321 reversed $317 $-1 #
loop $-1 -1 $-1 $-1 $315 $418 #
attrib_edge_convexity-kcp-attrib $-1 -1 $419 $-1 $205 1 #
vertex $-1 -1 $-1 $205 $420 #
straight-curve $-1 -1 $-1 -3.1749999999999998 -18.414999999999999 0 1 0 0 I I #
edge $421 -1 $-1 $208 0 $377 5.0799999999999992 $316 $422 forward @7 unknown #
convexity-sys-attrib $-1 -1 $-1 $207 $123 #
point $-1 -1 $-1 -3.1749999999999998 -18.414999999999999 0 #
cone-surface $-1 -1 $-1 -3.8099999999999987 -5.7149999999999999 0.6349999999999989 -1 0 0 0 0 3.8100000000000005 1 I I 0 1 3.8100000000000005 forward I I I I #
coedge $-1 -1 $-1 $423 $328 $330 $424 forward $213 $-1 #
coedge $-1 -1 $-1 $214 $221 $423 $425 reversed $131 $-1 #
edge $-1 -1 $-1 $426 0 $226 1.5707963267948966 $214 $427 forward @7 unknown #
coedge $-1 -1 $-1 $325 $333 $215 $329 forward $213 $-1 #
edge $-1 -1 $-1 $335 -9.5250000000000021 $331 -5.7149999999999999 $215 $345 forward @7 unknown #
coedge $-1 -1 $-1 $217 $223 $325 $424 reversed $224 $-1 #
vertex $-1 -1 $-1 $218 $428 #
ellipse-curve $-1 -1 $-1 3.8100000000000005 -5.7149999999999999 0.6349999999999989 -1 0 0 0 0 3.8100000000000005 1 I I #
coedge $-1 -1 $-1 $328 $423 $219 $334 forward $213 $-1 #
edge $-1 -1 $-1 $337 -3.8100000000000005 $335 3.8100000000000005 $219 $429 forward @7 unknown #
vertex $-1 -1 $-1 $329 $430 #
straight-curve $-1 -1 $-1 3.8100000000000005 -9.5250000000000021 0 0 0 -1 I I #
vertex $-1 -1 $-1 $425 $431 #
straight-curve $-1 -1 $-1 -3.8100000000000005 -9.5250000000000021 0 0 0 -1 I I #
point $-1 -1 $-1 3.8100000000000005 -9.5250000000000021 0.6349999999999989 #
point $-1 -1 $-1 -3.8100000000000005 -9.5250000000000021 0.6349999999999989 #
coedge $-1 -1 $-1 $238 $237 $229 $342 reversed $138 $-1 #
edge $-1 -1 $-1 $344 -3.8100000000000005 $346 3.8100000000000005 $341 $432 forward @7 unknown #
coedge $-1 -1 $-1 $230 $235 $238 $350 reversed $228 $-1 #
vertex $-1 -1 $-1 $231 $433 #
straight-curve $-1 -1 $-1 3.8100000000000005 0 4.4449999999999994 0 1 0 I I #
vertex $-1 -1 $-1 $342 $434 #
straight-curve $-1 -1 $-1 -3.8100000000000005 0 4.4449999999999994 0 -1 0 I I #
point $-1 -1 $-1 3.8100000000000005 5.7150000000000007 4.4449999999999994 #
ellipse-curve $-1 -1 $-1 3.8100000000000005 5.7150000000000007 0.6349999999999989 -1 0 0 0 0 3.8100000000000001 1 I I #
edge $-1 -1 $-1 $344 -4.4449999999999994 $239 -0.63499999999999979 $343 $435 forward @7 unknown #
point $-1 -1 $-1 3.8100000000000005 9.5249999999999986 0.63499999999999979 #
straight-curve $-1 -1 $-1 -3.8100000000000005 9.5250000000000021 0 0 0 -1 I I #
model_id-kcp-attrib $-1 -1 $-1 $-1 $245 1 1021562042 1021562042 -1136132094 6 #
plane-surface $-1 -1 $-1 3.8100000000000005 0 0 -1 0 0 0 0 1 forward_v I I I I #
coedge $-1 -1 $-1 $250 $248 $252 $359 reversed $153 $-1 #
edge $-1 -1 $-1 $263 -4.4449999999999994 $361 4.4449999999999994 $262 $436 forward @7 unknown #
vertex $-1 -1 $-1 $359 $437 #
straight-curve $-1 -1 $-1 -3.8100000000000005 -9.5250000000000021 0 0 0 -1 I I #
edge $-1 -1 $-1 $357 -9.5250000000000021 $361 9.5250000000000021 $355 $438 forward @7 unknown #
straight-curve $-1 -1 $-1 0 -9.5250000000000021 -4.4449999999999994 -1 0 0 I I #
vertex $-1 -1 $-1 $255 $439 #
straight-curve $-1 -1 $-1 0 9.5250000000000021 -4.4449999999999994 1 0 0 I I #
point $-1 -1 $-1 3.8100000000000005 9.5250000000000021 -4.4449999999999994 #
point $-1 -1 $-1 3.8100000000000005 -9.5250000000000021 -4.4449999999999994 #
straight-curve $-1 -1 $-1 -3.8100000000000005 0 4.4449999999999994 0 -1 0 I I #
point $-1 -1 $-1 -3.8100000000000005 9.5250000000000021 4.4449999999999994 #
point $-1 -1 $-1 -3.8100000000000005 -9.5250000000000021 4.4449999999999994 #
straight-curve $-1 -1 $-1 3.8100000000000005 -9.5250000000000021 0 0 0 -1 I I #
straight-curve $-1 -1 $-1 3.8100000000000005 9.5250000000000021 0 0 0 -1 I I #
model_id-kcp-attrib $-1 -1 $-1 $-1 $273 1 1021562042 1021562042 -1136787455 9 #
face $440 -1 $-1 $418 $441 $7 $-1 $442 forward single #
loop $-1 -1 $-1 $-1 $443 $273 #
plane-surface $-1 -1 $-1 0 0 8.8899999999999988 0 0 1 1 0 0 forward_v I I I I #
coedge $-1 -1 $-1 $276 $277 $444 $445 reversed $173 $-1 #
coedge $-1 -1 $-1 $386 $379 $276 $376 reversed $274 $-1 #
edge $-1 -1 $-1 $446 0 $382 1.5707963267948966 $375 $447 forward @7 unknown #
vertex $-1 -1 $-1 $321 $448 #
ellipse-curve $-1 -1 $-1 -3.1749999999999998 -17.780000000000001 5.0799999999999992 0 0 -1 0 -0.63499999999999801 0 1 I I #
coedge $-1 -1 $-1 $375 $285 $279 $380 forward $274 $-1 #
edge $449 -1 $-1 $288 0 $382 11.43 $279 $450 forward @7 unknown #
attrib_edge_convexity-kcp-attrib $-1 -1 $451 $-1 $281 3 #
vertex $-1 -1 $-1 $380 $452 #
ellipse-curve $-1 -1 $-1 -3.8099999999999996 -14.604999999999999 5.0800000000000001 1 0 0 0 -1.7763568394002505e-015 3.1749999999999989 1 I I #
convexity-sys-attrib $-1 -1 $-1 $282 $178 #
point $-1 -1 $-1 -3.8099999999999996 -17.779999999999998 5.0799999999999992 #
coedge $-1 -1 $-1 $285 $375 $453 $394 reversed $274 $-1 #
ellipse-curve $-1 -1 $-1 -3.1749999999999998 -3.1749999999999998 8.254999999999999 0 -1 0 0 0 0.63499999999999979 1 I I #
convexity-sys-attrib $-1 -1 $-1 $287 $181 #
point $-1 -1 $-1 -3.8099999999999996 -3.1749999999999998 8.254999999999999 #
coedge $-1 -1 $-1 $291 $290 $454 $455 forward $292 $-1 #
coedge $-1 -1 $-1 $453 $456 $290 $392 forward $372 $-1 #
edge $-1 -1 $-1 $457 0 $293 6.3499999999999996 $391 $458 forward @7 unknown #
face $459 -1 $-1 $201 $292 $7 $-1 $460 forward single #
edge $-1 -1 $-1 $293 0 $446 11.43 $453 $461 forward @7 unknown #
point $-1 -1 $-1 -3.1749999999999998 -3.1749999999999998 8.8899999999999988 #
point $-1 -1 $-1 3.1749999999999998 0.6349999999999999 5.0799999999999992 #
coedge $-1 -1 $-1 $462 $298 $301 $404 forward $399 $-1 #
coedge $-1 -1 $-1 $298 $462 $315 $417 reversed $399 $-1 #
loop $-1 -1 $-1 $-1 $462 $463 #
model_id-kcp-attrib $-1 -1 $464 $-1 $299 1 1021562042 1021562042 -1136787455 26 #
ellipse-curve $-1 -1 $-1 3.1750000000000016 -17.780000000000001 0 0 0 -1 0.63499999999999801 0 0 1 I I #
coedge $-1 -1 $-1 $465 $300 $466 $467 reversed $302 $-1 #
coedge $-1 -1 $-1 $301 $465 $468 $469 forward $302 $-1 #
edge $-1 -1 $-1 $304 2.4846012762866518e-030 $470 5.0799999999999992 $301 $471 forward @7 unknown #
face $472 -1 $-1 $308 $302 $7 $-1 $473 forward single #
attrib_edge_convexity-kcp-attrib $-1 -1 $474 $303 $193 1 #
point $-1 -1 $-1 3.8099999999999996 -17.779999999999998 0 #
coedge $-1 -1 $-1 $454 $466 $306 $409 reversed $475 $-1 #
edge $-1 -1 $-1 $296 0 $410 1.5707963267948963 $306 $476 forward @7 unknown #
vertex $-1 -1 $-1 $467 $477 #
straight-curve $-1 -1 $-1 3.8099999999999996 0 0 0 0 1 I I #
model_id-kcp-attrib $-1 -1 $-1 $-1 $308 1 1021562042 1021562042 -1136787455 15 #
face $478 -1 $-1 $479 $475 $7 $-1 $480 forward single #
cone-surface $-1 -1 $-1 3.1749999999999998 0 0 0 0 -1 0 0.6349999999999999 0 1 I I 0 1 0.6349999999999999 forward I I I I #
convexity-sys-attrib $-1 -1 $-1 $309 $115 #
coedge $-1 -1 $-1 $316 $315 $481 $482 reversed $317 $-1 #
edge $483 -1 $-1 $319 0 $484 5.0799999999999992 $315 $485 forward @7 unknown #
face $486 -1 $-1 $463 $317 $7 $-1 $487 forward single #
convexity-sys-attrib $-1 -1 $-1 $318 $205 #
point $-1 -1 $-1 3.1749999999999998 -18.414999999999999 0 #
attrib_edge_convexity-kcp-attrib $-1 -1 $488 $-1 $321 3 #
straight-curve $-1 -1 $-1 -3.1749999999999998 -18.414999999999999 0 0 0 1 I I #
coedge $-1 -1 $-1 $333 $325 $326 $425 forward $213 $-1 #
edge $-1 -1 $-1 $331 -7.6199999999999992 $426 1.7763568394002505e-015 $325 $489 forward @7 unknown #
edge $-1 -1 $-1 $426 5.7149999999999999 $337 9.5250000000000021 $326 $347 forward @7 unknown #
vertex $-1 -1 $-1 $425 $490 #
ellipse-curve $-1 -1 $-1 -3.8100000000000005 -5.7149999999999999 0.6349999999999989 1 0 0 0 0 3.8100000000000005 1 I I #
point $-1 -1 $-1 3.8100000000000005 -5.7149999999999999 4.4449999999999994 #
straight-curve $-1 -1 $-1 0 -9.5250000000000021 4.4449999999999994 1 0 0 I I #
point $-1 -1 $-1 3.8100000000000005 -9.5250000000000021 4.4449999999999994 #
point $-1 -1 $-1 -3.8100000000000005 -9.5250000000000021 4.4449999999999994 #
straight-curve $-1 -1 $-1 0 9.5250000000000021 4.4449999999999994 -1 0 0 I I #
point $-1 -1 $-1 3.8100000000000005 9.5250000000000021 4.4449999999999994 #
point $-1 -1 $-1 -3.8100000000000005 9.5250000000000021 4.4449999999999994 #
straight-curve $-1 -1 $-1 3.8100000000000005 9.5250000000000021 0 0 0 -1 I I #
straight-curve $-1 -1 $-1 -3.8100000000000005 9.5250000000000021 0 0 0 -1 I I #
point $-1 -1 $-1 -3.8100000000000005 -9.5250000000000021 -4.4449999999999994 #
straight-curve $-1 -1 $-1 -3.8100000000000005 0 -4.4449999999999994 0 1 0 I I #
point $-1 -1 $-1 -3.8100000000000005 9.5250000000000021 -4.4449999999999994 #
model_id-kcp-attrib $-1 -1 $-1 $-1 $371 1 1021562042 1021562042 -1136787455 10 #
loop $-1 -1 $-1 $-1 $444 $371 #
cone-surface $-1 -1 $-1 -3.8099999999999996 -14.605 5.0799999999999992 1 0 0 0 0 3.8099999999999996 1 I I 0 1 3.8099999999999996 forward I I I I #
coedge $-1 -1 $-1 $456 $453 $491 $492 forward $372 $-1 #
coedge $-1 -1 $-1 $481 $491 $374 $445 forward $441 $-1 #
edge $-1 -1 $-1 $446 0 $377 1.5707963267948966 $444 $493 forward @7 unknown #
vertex $-1 -1 $-1 $394 $494 #
ellipse-curve $-1 -1 $-1 -3.1749999999999998 -14.605 8.254999999999999 0 -1 0 0 0 0.63499999999999979 1 I I #
point $-1 -1 $-1 -3.1749999999999998 -18.415000000000003 5.0799999999999992 #
attrib_edge_convexity-kcp-attrib $-1 -1 $495 $-1 $380 3 #
straight-curve $-1 -1 $-1 -3.8099999999999996 -3.1749999999999998 8.254999999999999 0 -1 0 I I #
convexity-sys-attrib $-1 -1 $-1 $381 $281 #
point $-1 -1 $-1 -3.8099999999999996 -14.605 8.254999999999999 #
coedge $-1 -1 $-1 $443 $391 $386 $394 forward $372 $-1 #
coedge $-1 -1 $-1 $496 $408 $390 $455 reversed $475 $-1 #
edge $-1 -1 $-1 $457 0 $296 1.5707963267948966 $390 $497 forward @7 unknown #
coedge $-1 -1 $-1 $391 $443 $498 $499 forward $372 $-1 #
vertex $-1 -1 $-1 $392 $500 #
straight-curve $-1 -1 $-1 3.1749999999999998 -3.1749999999999998 8.8899999999999988 -1 0 0 I I #
model_id-kcp-attrib $-1 -1 $-1 $-1 $393 1 1021562042 1021562042 -1136787455 18 #
cone-surface $-1 -1 $-1 3.8099999999999996 -3.1749999999999998 5.0799999999999992 -1 0 0 0 0 3.8099999999999996 1 I I 0 1 3.8099999999999996 forward I I I I #
straight-curve $-1 -1 $-1 -3.1749999999999998 -3.1749999999999998 8.8899999999999988 0 -1 0 I I #
coedge $-1 -1 $-1 $398 $397 $501 $502 forward $399 $-1 #
face $503 -1 $-1 $504 $399 $7 $-1 $505 forward single #
attrib_edge_convexity-kcp-attrib $-1 -1 $506 $400 $299 1 #
coedge $-1 -1 $-1 $403 $402 $507 $508 reversed $302 $-1 #
coedge $-1 -1 $-1 $408 $496 $402 $467 forward $475 $-1 #
edge $-1 -1 $-1 $509 0 $410 1.5707963267948961 $402 $510 forward @7 unknown #
coedge $-1 -1 $-1 $511 $501 $403 $469 reversed $512 $-1 #
edge $-1 -1 $-1 $513 0 $470 1.5707963267948963 $403 $514 forward @7 unknown #
vertex $-1 -1 $-1 $404 $515 #
straight-curve $-1 -1 $-1 3.8099999999999996 -17.780000000000001 0 0 6.993530863780515e-016 1 I I #
model_id-kcp-attrib $-1 -1 $-1 $-1 $405 1 1021562042 1021562042 -1136787455 14 #
plane-surface $-1 -1 $-1 3.8099999999999996 -18.414999999999999 0 1 0 0 0 1 0 forward_v I I I I #
convexity-sys-attrib $-1 -1 $-1 $406 $193 #
loop $-1 -1 $-1 $-1 $496 $413 #
ellipse-curve $-1 -1 $-1 3.1749999999999998 -1.8041124150158794e-016 5.0799999999999992 0 0 -1 0 0.63500000000000012 0 1 I I #
point $-1 -1 $-1 3.8099999999999996 3.888125173386047e-017 5.0799999999999992 #
model_id-kcp-attrib $-1 -1 $-1 $-1 $413 1 1021562042 1021562042 -1136787455 16 #
face $516 -1 $-1 $393 $517 $7 $-1 $518 forward single #
torus-surface $-1 -1 $-1 3.1749999999999998 -3.1749999999999998 5.0799999999999992 -1 0 0 3.1749999999999998 0.6349999999999999 0 0 1 forward_v I I I I #
coedge $-1 -1 $-1 $519 $444 $416 $482 forward $441 $-1 #
edge $520 -1 $-1 $377 0 $484 6.3499999999999996 $416 $521 forward @7 unknown #
model_id-kcp-attrib $-1 -1 $522 $-1 $417 1 1021562042 1021562042 -1136787455 21 #
vertex $-1 -1 $-1 $482 $523 #
straight-curve $-1 -1 $-1 3.1749999999999998 -18.414999999999999 0 0 0 1 I I #
model_id-kcp-attrib $-1 -1 $-1 $-1 $418 1 1021562042 1021562042 -1136787455 11 #
plane-surface $-1 -1 $-1 -3.8099999999999996 -18.414999999999999 0 0 -1 0 1 0 0 forward_v I I I I #
convexity-sys-attrib $-1 -1 $-1 $421 $321 #
straight-curve $-1 -1 $-1 -3.8099999999999987 -5.7149999999999999 4.4449999999999994 -1 0 0 I I #
point $-1 -1 $-1 -3.8100000000000005 -5.7149999999999999 4.4449999999999994 #
coedge $-1 -1 $-1 $444 $519 $443 $492 reversed $441 $-1 #
edge $-1 -1 $-1 $446 0 $524 6.3499999999999996 $443 $525 forward @7 unknown #
ellipse-curve $-1 -1 $-1 -3.1749999999999998 -14.605 5.0799999999999992 1 0 0 0 0 3.8099999999999996 1 I I #
point $-1 -1 $-1 -3.1749999999999998 -14.605 8.8899999999999988 #
convexity-sys-attrib $-1 -1 $-1 $449 $380 #
coedge $-1 -1 $-1 $466 $454 $526 $527 forward $475 $-1 #
ellipse-curve $-1 -1 $-1 3.1749999999999998 -3.1749999999999998 5.0799999999999992 -1 0 0 0 0 3.8099999999999996 1 I I #
coedge $-1 -1 $-1 $528 $526 $456 $499 reversed $517 $-1 #
edge $529 -1 $-1 $524 0 $457 11.43 $456 $530 forward @7 unknown #
point $-1 -1 $-1 3.1749999999999998 -3.1749999999999998 8.8899999999999988 #
coedge $-1 -1 $-1 $468 $531 $462 $502 reversed $512 $-1 #
edge $-1 -1 $-1 $470 0 $484 1.570796326794901 $501 $532 forward @7 unknown #
model_id-kcp-attrib $-1 -1 $-1 $-1 $463 1 1021562042 1021562042 -1136787455 12 #
face $533 -1 $-1 $405 $512 $7 $-1 $534 forward single #
cone-surface $-1 -1 $-1 3.1749999999999998 -17.779999999999998 0 0 0 -1 0.6349999999999999 -3.5527136788005017e-015 0 1 I I 0 1 0.6349999999999999 forward I I I I #
convexity-sys-attrib $-1 -1 $-1 $464 $299 #
coedge $-1 -1 $-1 $526 $528 $465 $508 forward $517 $-1 #
edge $-1 -1 $-1 $513 0 $509 11.43 $465 $535 forward @7 unknown #
vertex $-1 -1 $-1 $508 $536 #
ellipse-curve $-1 -1 $-1 3.8099999999999996 -3.1750000000000007 5.0799999999999983 -1 0 0 0 8.8817841970012523e-016 3.1750000000000007 1 I I #
coedge $-1 -1 $-1 $531 $468 $528 $537 reversed $512 $-1 #
loop $-1 -1 $-1 $-1 $501 $504 #
vertex $-1 -1 $-1 $469 $538 #
ellipse-curve $-1 -1 $-1 3.8099999999999996 -14.604999999999999 5.0800000000000001 1 0 0 0 -1.7763568394002505e-015 3.1749999999999989 1 I I #
point $-1 -1 $-1 3.8099999999999996 -17.779999999999998 5.0799999999999992 #
model_id-kcp-attrib $-1 -1 $-1 $-1 $479 1 1021562042 1021562042 -1136787455 17 #
loop $-1 -1 $-1 $-1 $528 $479 #
cone-surface $-1 -1 $-1 3.1749999999999998 -14.605 8.254999999999999 0 1 0 0 0 0.6349999999999999 1 I I 0 1 0.6349999999999999 forward I I I I #
coedge $-1 -1 $-1 $491 $481 $531 $539 reversed $441 $-1 #
attrib_edge_convexity-kcp-attrib $-1 -1 $540 $-1 $482 3 #
straight-curve $-1 -1 $-1 -3.1749999999999998 -18.414999999999999 5.0799999999999992 1 0 0 I I #
attrib_edge_convexity-kcp-attrib $-1 -1 $541 $483 $417 3 #
point $-1 -1 $-1 3.1749999999999998 -18.415000000000003 5.0799999999999992 #
vertex $-1 -1 $-1 $499 $542 #
straight-curve $-1 -1 $-1 -3.1749999999999998 -14.605 8.8899999999999988 1 0 0 I I #
coedge $-1 -1 $-1 $498 $507 $496 $527 reversed $517 $-1 #
edge $-1 -1 $-1 $457 0 $509 1.5707963267948966 $496 $543 forward @7 unknown #
coedge $-1 -1 $-1 $507 $498 $511 $537 forward $517 $-1 #
model_id-kcp-attrib $-1 -1 $-1 $-1 $499 1 1021562042 1021562042 -1136787455 22 #
straight-curve $-1 -1 $-1 3.1749999999999998 -14.605 8.8899999999999988 0 1 0 I I #
coedge $-1 -1 $-1 $501 $511 $519 $539 forward $512 $-1 #
ellipse-curve $-1 -1 $-1 3.1749999999999989 -17.780000000000001 5.0799999999999992 0 0 -1 0.63500000000000068 3.5527136788005009e-015 0 1 I I #
model_id-kcp-attrib $-1 -1 $-1 $-1 $504 1 1021562042 1021562042 -1136787455 13 #
torus-surface $-1 -1 $-1 3.1749999999999998 -14.605 5.0799999999999992 1 0 0 3.1749999999999998 0.6349999999999999 0 0 1 forward_v I I I I #
straight-curve $-1 -1 $-1 3.8099999999999996 -14.605 8.254999999999999 0 1 0 I I #
point $-1 -1 $-1 3.8099999999999996 -3.1749999999999998 8.254999999999999 #
edge $-1 -1 $-1 $524 0 $513 1.5707963267948966 $528 $544 forward @7 unknown #
point $-1 -1 $-1 3.8099999999999996 -14.605 8.254999999999999 #
edge $-1 -1 $-1 $524 0 $484 1.5707963267948966 $519 $545 forward @7 unknown #
convexity-sys-attrib $-1 -1 $-1 $520 $482 #
convexity-sys-attrib $-1 -1 $-1 $522 $417 #
point $-1 -1 $-1 3.1749999999999998 -14.605 8.8899999999999988 #
ellipse-curve $-1 -1 $-1 3.1749999999999998 -3.1750000000000007 8.254999999999999 0 1 0 0 0 0.63499999999999979 1 I I #
ellipse-curve $-1 -1 $-1 3.1749999999999998 -14.605 8.254999999999999 0 1 0 0 0 0.63499999999999979 1 I I #
ellipse-curve $-1 -1 $-1 3.1749999999999998 -14.605 5.0799999999999992 1 0 0 0 0 3.8099999999999996 1 I I #
End-of-ACIS-data 