700 0 2 0           
24 FBMach with ACIS - 7.0.3 13 ACIS 7.0.3 NT 24 Thu May 16 13:39:59 2002 
1 9.9999999999999995e-007 1e-010 
body $2 -1 $-1 $3 $-1 $4 #
bdycol-kcp $-1 -1 1 1 $5 #
model_id-kcp-attrib $-1 -1 $-1 $-1 $0 1 1021570799 1021570799 1846411265 1 #
lump $-1 -1 $-1 $-1 $6 $0 #
transform $-1 -1 1 0 0 0 1 0 0 0 1 0 0 0 1 rotate no_reflect no_shear #
body $7 -1 $-1 $8 $-1 $9 #
shell $-1 -1 $-1 $-1 $-1 $10 $-1 $3 #
model_id-kcp-attrib $-1 -1 $-1 $-1 $5 1 1021570799 1021570799 1846411266 1 #
lump $-1 -1 $-1 $-1 $11 $5 #
transform $-1 -1 1 0 0 0 1 0 0 0 1 7.5 0 4.2500000000000018 1 no_rotate no_reflect no_shear #
face $12 -1 $-1 $13 $14 $6 $-1 $15 reversed single #
shell $-1 -1 $-1 $-1 $-1 $16 $-1 $8 #
model_id-kcp-attrib $-1 -1 $-1 $-1 $10 1 1021570799 1021570799 1846411265 2 #
face $17 -1 $-1 $18 $19 $6 $-1 $20 forward single #
loop $-1 -1 $-1 $-1 $21 $10 #
plane-surface $-1 -1 $-1 0 0 0 0 0 1 -1 0 0 forward_v I I I I #
face $-1 -1 $-1 $22 $23 $11 $-1 $24 forward single #
model_id-kcp-attrib $-1 -1 $-1 $-1 $13 1 1021570799 1021570799 1846411265 3 #
face $25 -1 $-1 $26 $27 $6 $-1 $28 forward single #
loop $-1 -1 $-1 $-1 $29 $13 #
cone-surface $-1 -1 $-1 0 0 0 0 0 1 -0.19999999999999998 0 0 1 I I 0 1 0.19999999999999998 forward I I I I #
coedge $-1 -1 $-1 $30 $30 $31 $32 reversed $14 $-1 #
face $33 -1 $-1 $34 $35 $11 $-1 $36 reversed single #
loop $-1 -1 $-1 $-1 $37 $16 #
plane-surface $-1 -1 $-1 0 0 4.2500000000000018 0 0 1 1 0 0 forward_v I I I I #
model_id-kcp-attrib $-1 -1 $-1 $-1 $18 1 1021570799 1021570799 1846411265 4 #
face $38 -1 $-1 $39 $40 $6 $-1 $41 forward single #
loop $-1 -1 $-1 $-1 $42 $18 #
cone-surface $-1 -1 $-1 0 0 0 0 0 1 -0.19999999999999998 0 0 1 I I 0 1 0.19999999999999998 forward I I I I #
coedge $-1 -1 $-1 $43 $31 $44 $45 forward $19 $-1 #
coedge $-1 -1 $-1 $21 $21 $46 $47 reversed $14 $-1 #
coedge $-1 -1 $-1 $29 $48 $21 $32 forward $19 $-1 #
edge $49 -1 $-1 $50 0 $51 3.1415926535897931 $21 $52 forward @7 unknown #
model_id-kcp-attrib $-1 -1 $-1 $-1 $22 1 1021570799 1021570799 1846411266 2 #
face $-1 -1 $-1 $53 $54 $11 $-1 $55 reversed single #
loop $-1 -1 $-1 $-1 $56 $22 #
plane-surface $-1 -1 $-1 0 0 -4.2500000000000018 0 0 1 1 0 0 forward_v I I I I #
coedge $-1 -1 $-1 $57 $58 $59 $60 forward $23 $-1 #
model_id-kcp-attrib $-1 -1 $-1 $-1 $26 1 1021570799 1021570799 1846411265 5 #
face $61 -1 $-1 $62 $63 $6 $-1 $64 forward single #
loop $-1 -1 $-1 $-1 $65 $26 #
torus-surface $-1 -1 $-1 0.25 0 5.75 0 1 0 0.25 0.19999999999999998 1 0 0 forward_v I I I I #
coedge $-1 -1 $-1 $66 $46 $48 $67 forward $27 $-1 #
coedge $-1 -1 $-1 $48 $29 $68 $69 reversed $19 $-1 #
coedge $-1 -1 $-1 $46 $66 $29 $45 reversed $27 $-1 #
edge $-1 -1 $-1 $51 0 $70 5.75 $44 $71 forward @7 unknown #
coedge $-1 -1 $-1 $42 $44 $30 $47 forward $27 $-1 #
edge $72 -1 $-1 $51 0 $50 3.1415926535897931 $30 $73 forward @7 unknown #
coedge $-1 -1 $-1 $31 $43 $42 $67 reversed $19 $-1 #
attrib_edge_convexity-kcp-attrib $-1 -1 $74 $-1 $32 1 #
vertex $-1 -1 $-1 $47 $75 #
vertex $-1 -1 $-1 $47 $76 #
ellipse-curve $-1 -1 $-1 0 0 0 0 0 1 0.19999999999999998 0 0 1 I I #
face $-1 -1 $-1 $77 $78 $11 $-1 $79 reversed single #
loop $-1 -1 $-1 $-1 $80 $34 #
plane-surface $-1 -1 $-1 0 -2.5000000000000004 0 0 1 0 0 0 1 forward_v I I I I #
coedge $-1 -1 $-1 $81 $82 $83 $84 forward $35 $-1 #
coedge $-1 -1 $-1 $85 $37 $86 $87 forward $23 $-1 #
coedge $-1 -1 $-1 $37 $85 $88 $89 forward $23 $-1 #
coedge $-1 -1 $-1 $90 $91 $37 $60 reversed $92 $-1 #
edge $-1 -1 $-1 $93 -2.5000000000000004 $94 2.5000000000000004 $59 $95 forward @7 unknown #
model_id-kcp-attrib $-1 -1 $-1 $-1 $39 1 1021570799 1021570799 1846411265 6 #
face $96 -1 $-1 $97 $98 $6 $-1 $99 forward single #
loop $-1 -1 $-1 $-1 $100 $39 #
torus-surface $-1 -1 $-1 0.25 0 5.75 0 1 0 0.25 0.19999999999999998 1 0 0 forward_v I I I I #
coedge $-1 -1 $-1 $101 $102 $103 $104 forward $40 $-1 #
coedge $-1 -1 $-1 $44 $42 $102 $105 reversed $27 $-1 #
edge $-1 -1 $-1 $50 0 $106 5.75 $42 $107 forward @7 unknown #
coedge $-1 -1 $-1 $100 $103 $43 $69 forward $63 $-1 #
edge $-1 -1 $-1 $106 0 $70 3.1415926535897931 $43 $108 forward @7 unknown #
vertex $-1 -1 $-1 $45 $109 #
straight-curve $-1 -1 $-1 -0.19999999999999998 0 0 0 0 1 I I #
attrib_edge_convexity-kcp-attrib $-1 -1 $110 $-1 $47 1 #
ellipse-curve $-1 -1 $-1 0 0 0 0 0 1 -0.19999999999999998 0 0 1 I I #
convexity-sys-attrib $-1 -1 $-1 $49 $32 #
point $-1 -1 $-1 0.19999999999999998 0 0 #
point $-1 -1 $-1 -0.19999999999999998 0 0 #
face $-1 -1 $-1 $111 $112 $11 $-1 $113 reversed single #
loop $-1 -1 $-1 $-1 $114 $53 #
plane-surface $-1 -1 $-1 -7.6999999999999993 0 0 1 0 0 0 0 -1 forward_v I I I I #
coedge $-1 -1 $-1 $115 $88 $116 $117 forward $54 $-1 #
coedge $-1 -1 $-1 $118 $56 $115 $119 forward $35 $-1 #
coedge $-1 -1 $-1 $56 $118 $120 $121 forward $35 $-1 #
coedge $-1 -1 $-1 $91 $90 $56 $84 reversed $92 $-1 #
edge $-1 -1 $-1 $122 -2.5000000000000004 $123 2.5000000000000004 $83 $124 forward @7 unknown #
coedge $-1 -1 $-1 $58 $57 $125 $126 forward $23 $-1 #
coedge $-1 -1 $-1 $127 $128 $57 $87 reversed $112 $-1 #
edge $-1 -1 $-1 $94 -7.6999999999999993 $129 7.6999999999999993 $86 $130 forward @7 unknown #
coedge $-1 -1 $-1 $80 $131 $58 $89 reversed $54 $-1 #
edge $-1 -1 $-1 $132 -7.6999999999999993 $93 7.6999999999999993 $88 $133 forward @7 unknown #
coedge $-1 -1 $-1 $83 $59 $131 $134 forward $92 $-1 #
coedge $-1 -1 $-1 $59 $83 $127 $135 reversed $92 $-1 #
loop $-1 -1 $-1 $-1 $90 $111 #
vertex $-1 -1 $-1 $60 $136 #
vertex $-1 -1 $-1 $60 $137 #
straight-curve $-1 -1 $-1 7.6999999999999993 0 4.2500000000000018 0 1 0 I I #
model_id-kcp-attrib $-1 -1 $-1 $-1 $62 1 1021570799 1021570799 1846411265 7 #
face $138 -1 $-1 $139 $140 $6 $-1 $141 forward single #
loop $-1 -1 $-1 $-1 $142 $62 #
cone-surface $-1 -1 $-1 0.25 0 6 1 0 0 0 0 0.19999999999999998 1 I I 0 1 0.19999999999999998 forward I I I I #
coedge $-1 -1 $-1 $143 $68 $144 $145 forward $63 $-1 #
coedge $-1 -1 $-1 $144 $65 $146 $147 reversed $40 $-1 #
coedge $-1 -1 $-1 $65 $144 $66 $105 forward $40 $-1 #
coedge $-1 -1 $-1 $68 $143 $65 $104 reversed $63 $-1 #
edge $-1 -1 $-1 $106 0 $148 1.5707963267948966 $65 $149 forward @7 unknown #
edge $-1 -1 $-1 $70 0 $106 3.1415926535897931 $66 $150 forward @7 unknown #
vertex $-1 -1 $-1 $105 $151 #
straight-curve $-1 -1 $-1 0.19999999999999998 -1.1330996904646006e-016 0 0 0 1 I I #
ellipse-curve $-1 -1 $-1 -1.3877787807814457e-017 -6.9388939039072284e-018 5.75 0 0 1 0.20000000000000001 -1.7553233172540314e-017 0 1 I I #
point $-1 -1 $-1 -0.19999999999999998 0 5.75 #
convexity-sys-attrib $-1 -1 $-1 $72 $47 #
face $-1 -1 $-1 $-1 $92 $11 $-1 $152 reversed single #
loop $-1 -1 $-1 $-1 $127 $77 #
plane-surface $-1 -1 $-1 0 2.5000000000000004 0 0 -1 0 0 0 -1 forward_v I I I I #
coedge $-1 -1 $-1 $153 $125 $128 $154 forward $78 $-1 #
coedge $-1 -1 $-1 $131 $80 $81 $119 reversed $54 $-1 #
coedge $-1 -1 $-1 $125 $153 $80 $117 reversed $78 $-1 #
edge $-1 -1 $-1 $132 -4.2500000000000018 $155 4.2500000000000018 $116 $156 forward @7 unknown #
coedge $-1 -1 $-1 $82 $81 $153 $157 forward $35 $-1 #
edge $-1 -1 $-1 $123 -7.6999999999999993 $155 7.6999999999999993 $115 $158 forward @7 unknown #
coedge $-1 -1 $-1 $128 $127 $82 $121 reversed $112 $-1 #
edge $-1 -1 $-1 $159 -7.6999999999999993 $122 7.6999999999999993 $120 $160 forward @7 unknown #
vertex $-1 -1 $-1 $84 $161 #
vertex $-1 -1 $-1 $134 $162 #
straight-curve $-1 -1 $-1 7.6999999999999993 0 -4.2500000000000018 0 -1 0 I I #
coedge $-1 -1 $-1 $114 $116 $85 $126 reversed $78 $-1 #
edge $-1 -1 $-1 $129 -2.5000000000000004 $132 2.5000000000000004 $125 $163 forward @7 unknown #
coedge $-1 -1 $-1 $120 $86 $91 $135 forward $112 $-1 #
coedge $-1 -1 $-1 $86 $120 $114 $154 reversed $112 $-1 #
vertex $-1 -1 $-1 $87 $164 #
straight-curve $-1 -1 $-1 0 2.5000000000000004 4.2500000000000018 -1 0 0 I I #
coedge $-1 -1 $-1 $88 $115 $90 $134 reversed $54 $-1 #
vertex $-1 -1 $-1 $126 $165 #
straight-curve $-1 -1 $-1 0 -2.5000000000000004 4.2500000000000018 1 0 0 I I #
edge $-1 -1 $-1 $93 -4.2500000000000018 $123 4.2500000000000018 $90 $166 forward @7 unknown #
edge $-1 -1 $-1 $94 -4.2500000000000018 $122 4.2500000000000018 $91 $167 forward @7 unknown #
point $-1 -1 $-1 7.6999999999999993 -2.5000000000000004 4.2500000000000018 #
point $-1 -1 $-1 7.6999999999999993 2.5000000000000004 4.2500000000000018 #
model_id-kcp-attrib $-1 -1 $-1 $-1 $97 1 1021570799 1021570799 1846411265 8 #
face $168 -1 $-1 $169 $170 $6 $-1 $171 forward single #
loop $-1 -1 $-1 $-1 $172 $97 #
cone-surface $-1 -1 $-1 0.25 0 6 1 0 0 0 0 0.19999999999999998 1 I I 0 1 0.19999999999999998 forward I I I I #
coedge $-1 -1 $-1 $173 $174 $175 $176 reversed $98 $-1 #
coedge $-1 -1 $-1 $103 $100 $173 $177 reversed $63 $-1 #
coedge $-1 -1 $-1 $102 $101 $100 $145 reversed $40 $-1 #
edge $-1 -1 $-1 $70 0 $178 1.5707963267948966 $144 $179 forward @7 unknown #
coedge $-1 -1 $-1 $175 $172 $101 $147 forward $140 $-1 #
edge $-1 -1 $-1 $178 0 $148 3.1415926535897931 $101 $180 forward @7 unknown #
vertex $-1 -1 $-1 $147 $181 #
ellipse-curve $-1 -1 $-1 0.25 -2.4492127076447543e-017 5.75 0 1 0 -0.050000000000000017 0 0 1 I I #
ellipse-curve $-1 -1 $-1 1.3877787807814457e-017 6.9388939039072284e-018 5.75 0 0 1 -0.20000000000000001 -6.9388939039072284e-018 0 1 I I #
point $-1 -1 $-1 0.19999999999999998 -2.4492127076447543e-017 5.75 #
plane-surface $-1 -1 $-1 7.6999999999999993 0 0 -1 0 0 0 0 1 forward_v I I I I #
coedge $-1 -1 $-1 $116 $114 $118 $157 reversed $78 $-1 #
edge $-1 -1 $-1 $129 -4.2500000000000018 $159 4.2500000000000018 $128 $182 forward @7 unknown #
vertex $-1 -1 $-1 $157 $183 #
straight-curve $-1 -1 $-1 -7.6999999999999993 -2.5000000000000004 0 0 0 -1 I I #
edge $-1 -1 $-1 $155 -2.5000000000000004 $159 2.5000000000000004 $153 $184 forward @7 unknown #
straight-curve $-1 -1 $-1 0 -2.5000000000000004 -4.2500000000000018 -1 0 0 I I #
vertex $-1 -1 $-1 $121 $185 #
straight-curve $-1 -1 $-1 0 2.5000000000000004 -4.2500000000000018 1 0 0 I I #
point $-1 -1 $-1 7.6999999999999993 2.5000000000000004 -4.2500000000000018 #
point $-1 -1 $-1 7.6999999999999993 -2.5000000000000004 -4.2500000000000018 #
straight-curve $-1 -1 $-1 -7.6999999999999993 0 4.2500000000000018 0 -1 0 I I #
point $-1 -1 $-1 -7.6999999999999993 2.5000000000000004 4.2500000000000018 #
point $-1 -1 $-1 -7.6999999999999993 -2.5000000000000004 4.2500000000000018 #
straight-curve $-1 -1 $-1 7.6999999999999993 -2.5000000000000004 0 0 0 -1 I I #
straight-curve $-1 -1 $-1 7.6999999999999993 2.5000000000000004 0 0 0 -1 I I #
model_id-kcp-attrib $-1 -1 $-1 $-1 $139 1 1021570799 1021570799 1846411265 9 #
face $186 -1 $-1 $187 $188 $6 $-1 $189 forward single #
loop $-1 -1 $-1 $-1 $190 $139 #
cone-surface $-1 -1 $-1 1.5499999999999998 0 6 -1 0 0 0 0 38.461538461538495 1 I I -0.99966217126952084 0.025991216453007518 38.461538461538495 forward I I I I #
coedge $-1 -1 $-1 $146 $191 $192 $193 reversed $140 $-1 #
coedge $-1 -1 $-1 $192 $142 $143 $177 forward $98 $-1 #
coedge $-1 -1 $-1 $142 $192 $194 $195 reversed $98 $-1 #
coedge $-1 -1 $-1 $191 $146 $142 $176 forward $140 $-1 #
edge $-1 -1 $-1 $148 -2.5847342897149802e-032 $196 0.30520000000000003 $175 $197 forward @7 unknown #
edge $-1 -1 $-1 $148 4.4408920985006222e-016 $178 3.1415926535897936 $143 $198 forward @7 unknown #
vertex $-1 -1 $-1 $145 $199 #
ellipse-curve $-1 -1 $-1 0.25 0 5.75 0 1 0 -0.44999999999999996 0 0 1 I I #
ellipse-curve $-1 -1 $-1 0.25 0 6 1 0 0 0 0 0.20000000000000018 1 I I #
point $-1 -1 $-1 0.25 -2.4492127076447543e-017 5.7999999999999998 #
straight-curve $-1 -1 $-1 -7.6999999999999993 2.5000000000000004 0 0 0 -1 I I #
point $-1 -1 $-1 -7.6999999999999993 -2.5000000000000004 -4.2500000000000018 #
straight-curve $-1 -1 $-1 -7.6999999999999993 0 -4.2500000000000018 0 1 0 I I #
point $-1 -1 $-1 -7.6999999999999993 2.5000000000000004 -4.2500000000000018 #
model_id-kcp-attrib $-1 -1 $-1 $-1 $169 1 1021570799 1021570799 1846411265 10 #
face $200 -1 $-1 $201 $202 $6 $-1 $203 forward single #
loop $-1 -1 $-1 $-1 $204 $169 #
cone-surface $-1 -1 $-1 1.5499999999999998 0 6 -1 0 0 0 0 38.461538461538495 1 I I -0.99966217126952084 0.025991216453007518 38.461538461538495 forward I I I I #
coedge $-1 -1 $-1 $205 $206 $207 $208 reversed $170 $-1 #
coedge $-1 -1 $-1 $172 $175 $206 $209 reversed $140 $-1 #
coedge $-1 -1 $-1 $174 $173 $172 $193 forward $98 $-1 #
edge $-1 -1 $-1 $178 0 $210 0.30520000000000003 $172 $211 forward @7 unknown #
coedge $-1 -1 $-1 $204 $207 $174 $195 forward $188 $-1 #
edge $-1 -1 $-1 $196 0 $210 3.1415926535897931 $174 $212 forward @7 unknown #
vertex $-1 -1 $-1 $209 $213 #
straight-curve $-1 -1 $-1 0.25 -1.1330996904646006e-016 5.7999999999999998 1 -2.9101520960030323e-016 0 I I #
ellipse-curve $-1 -1 $-1 0.25 0 6 1 0 0 0 -1.1330996904646006e-016 -0.20000000000000018 1 I I #
point $-1 -1 $-1 0.25 0 6.2000000000000002 #
model_id-kcp-attrib $-1 -1 $-1 $-1 $187 1 1021570799 1021570799 1846411265 11 #
face $214 -1 $-1 $215 $216 $6 $-1 $217 forward single #
loop $-1 -1 $-1 $-1 $218 $187 #
torus-surface $-1 -1 $-1 0.85858448572432455 0 6 1 0 0 2.25 0.25 0 0 1 forward_v I I I I #
coedge $-1 -1 $-1 $219 $194 $220 $221 reversed $188 $-1 #
coedge $-1 -1 $-1 $220 $190 $222 $223 forward $170 $-1 #
coedge $-1 -1 $-1 $190 $220 $191 $209 forward $170 $-1 #
coedge $-1 -1 $-1 $194 $219 $190 $208 forward $188 $-1 #
edge $-1 -1 $-1 $224 6.6677445704244345e-015 $196 2.0571927829394667 $207 $225 forward @7 unknown #
edge $-1 -1 $-1 $210 0 $196 3.1415926535897931 $191 $226 forward @7 unknown #
vertex $-1 -1 $-1 $209 $227 #
straight-curve $-1 -1 $-1 0.25 0 6.2000000000000002 1 0 0 I I #
ellipse-curve $-1 -1 $-1 0.55520000000000003 -2.0816681711721685e-017 6 1 0 0 0 4.5308808788169388e-017 -0.20000000000000284 1 I I #
point $-1 -1 $-1 0.55520000000000003 2.4492127076447703e-017 5.7999999999999972 #
model_id-kcp-attrib $-1 -1 $-1 $-1 $201 1 1021570799 1021570799 1846411265 12 #
face $228 -1 $-1 $229 $230 $6 $-1 $231 forward single #
loop $-1 -1 $-1 $-1 $232 $201 #
torus-surface $-1 -1 $-1 0.85858448572432455 0 6 1 0 0 2.25 0.25 0 0 1 forward_v I I I I #
coedge $-1 -1 $-1 $233 $234 $235 $236 forward $202 $-1 #
coedge $-1 -1 $-1 $207 $204 $234 $237 reversed $188 $-1 #
coedge $-1 -1 $-1 $206 $205 $204 $221 forward $170 $-1 #
edge $-1 -1 $-1 $238 7.1116837541805137e-015 $210 2.0571927829394667 $204 $239 forward @7 unknown #
coedge $-1 -1 $-1 $232 $235 $205 $223 reversed $216 $-1 #
edge $-1 -1 $-1 $224 0 $238 3.1415926535897931 $205 $240 forward @7 unknown #
vertex $-1 -1 $-1 $208 $241 #
straight-curve $-1 -1 $-1 0.60866894290694462 2.7633215483033407e-016 3.7435021958867409 -0.025991216453007514 -1.2241926466125308e-016 0.99966217126952106 I I #
ellipse-curve $-1 -1 $-1 0.55520000000000003 1.3877787807814457e-017 6 1 0 0 0 -6.2862041960709863e-017 0.20000000000000284 1 I I #
point $-1 -1 $-1 0.55520000000000003 -4.8984254152895406e-017 6.2000000000000028 #
model_id-kcp-attrib $-1 -1 $-1 $-1 $215 1 1021570799 1021570799 1846411265 13 #
face $242 -1 $-1 $243 $244 $6 $-1 $245 forward single #
loop $-1 -1 $-1 $-1 $246 $215 #
cone-surface $-1 -1 $-1 -0.47499999999999998 0 6 1 0 0 0 0 2.5 1 I I 0 1 2.5 forward I I I I #
coedge $-1 -1 $-1 $247 $222 $248 $249 forward $216 $-1 #
coedge $-1 -1 $-1 $248 $218 $250 $251 reversed $202 $-1 #
coedge $-1 -1 $-1 $218 $248 $219 $237 forward $202 $-1 #
coedge $-1 -1 $-1 $222 $247 $218 $236 reversed $216 $-1 #
edge $-1 -1 $-1 $238 0 $252 1.5448021830864367 $218 $253 forward @7 unknown #
edge $-1 -1 $-1 $224 0 $238 3.1415926535897931 $219 $254 forward @7 unknown #
vertex $-1 -1 $-1 $237 $255 #
straight-curve $-1 -1 $-1 0.60866894290694462 -5.5266430966066813e-016 8.2564978041132591 -0.025991216453007514 2.4483852932250616e-016 -0.99966217126952106 I I #
ellipse-curve $-1 -1 $-1 0.60866894290694429 0 6 -1 0 0 0 2.7633215483033308e-016 -2.2564978041132524 1 I I #
point $-1 -1 $-1 0.60866894290694429 2.7633215483033308e-016 3.7435021958867476 #
model_id-kcp-attrib $-1 -1 $-1 $-1 $229 1 1021570799 1021570799 1846411265 14 #
face $256 -1 $-1 $257 $258 $6 $-1 $259 forward single #
loop $-1 -1 $-1 $-1 $260 $229 #
cone-surface $-1 -1 $-1 61.214999999999982 0 6 1 0 0 0 0 0.040749796251018752 1 I I -0.04071600487586384 0.99917075965369839 0.040749796251018752 forward I I I I #
coedge $-1 -1 $-1 $261 $262 $263 $264 forward $230 $-1 #
coedge $-1 -1 $-1 $235 $232 $265 $266 forward $216 $-1 #
coedge $-1 -1 $-1 $234 $233 $232 $249 reversed $202 $-1 #
edge $-1 -1 $-1 $224 0 $267 1.5448021830864342 $248 $268 forward @7 unknown #
coedge $-1 -1 $-1 $269 $270 $233 $251 forward $271 $-1 #
edge $-1 -1 $-1 $267 0 $252 3.1415926535897931 $250 $272 forward @7 unknown #
vertex $-1 -1 $-1 $273 $274 #
ellipse-curve $-1 -1 $-1 0.85858448572432433 -5.5107285922006996e-016 8.25 4.1291938007662389e-031 1 2.4492127076447476e-016 -0.24991554281738004 -1.5914504405961976e-018 0.0064978041132519593 1 I I #
ellipse-curve $-1 -1 $-1 0.60866894290694429 0 6 1 0 0 0 2.7633215483033308e-016 -2.2564978041132524 1 I I #
point $-1 -1 $-1 0.60866894290694429 0 8.256497804113252 #
model_id-kcp-attrib $-1 -1 $-1 $-1 $243 1 1021570799 1021570799 1846411265 15 #
face $275 -1 $-1 $276 $277 $6 $-1 $278 forward single #
loop $-1 -1 $-1 $-1 $279 $243 #
cone-surface $-1 -1 $-1 -0.47499999999999998 0 6 1 0 0 0 0 2.25 1 I I 0 1 2.25 forward I I I I #
coedge $-1 -1 $-1 $280 $281 $282 $283 forward $244 $-1 #
coedge $-1 -1 $-1 $265 $246 $269 $273 forward $230 $-1 #
coedge $-1 -1 $-1 $246 $265 $270 $284 reversed $230 $-1 #
coedge $-1 -1 $-1 $281 $280 $246 $264 reversed $244 $-1 #
edge $-1 -1 $-1 $285 2.8398992587956376e-031 $286 3.1415926535897931 $263 $287 forward @7 unknown #
coedge $-1 -1 $-1 $262 $261 $247 $266 reversed $230 $-1 #
edge $-1 -1 $-1 $267 0 $252 3.1415926535897931 $265 $288 forward @7 unknown #
vertex $-1 -1 $-1 $284 $289 #
ellipse-curve $-1 -1 $-1 0.85858448572432455 2.7553642961003488e-016 3.75 3.8133412898867253e-032 -1 -1.224606353822377e-016 -0.24991554281738027 7.957252202981974e-019 -0.0064978041132524034 1 I I #
coedge $-1 -1 $-1 $290 $250 $261 $273 reversed $271 $-1 #
coedge $-1 -1 $-1 $250 $290 $262 $284 forward $271 $-1 #
loop $-1 -1 $-1 $-1 $250 $291 #
ellipse-curve $-1 -1 $-1 0.85858448572432489 0 6 1 -5.4383446804634574e-033 4.4408920985006264e-017 1.1102230246251565e-016 3.0615158845559431e-016 -2.5 1 I I #
edge $-1 -1 $-1 $286 0 $252 0.0064155142756749939 $269 $292 forward @7 unknown #
point $-1 -1 $-1 0.85858448572432489 -6.1230317691118863e-016 8.5 #
model_id-kcp-attrib $-1 -1 $-1 $-1 $257 1 1021570799 1021570799 1846411265 16 #
face $293 -1 $-1 $294 $295 $6 $-1 $296 forward single #
loop $-1 -1 $-1 $-1 $297 $257 #
cone-surface $-1 -1 $-1 -46.214999999999968 0 6 -1 0 0 0 0 0.040749796251018759 1 I I -0.040716004875863847 0.99917075965369839 0.040749796251018759 forward I I I I #
coedge $-1 -1 $-1 $298 $299 $300 $301 forward $258 $-1 #
coedge $-1 -1 $-1 $263 $260 $302 $303 forward $244 $-1 #
coedge $-1 -1 $-1 $260 $263 $304 $305 reversed $244 $-1 #
coedge $-1 -1 $-1 $299 $298 $260 $283 reversed $258 $-1 #
edge $-1 -1 $-1 $306 2.4931900214392435e-030 $307 3.1415926535897891 $282 $308 forward @7 unknown #
edge $-1 -1 $-1 $285 4.9960036108132044e-015 $267 0.0064155142756749939 $270 $309 forward @7 unknown #
vertex $-1 -1 $-1 $305 $310 #
vertex $-1 -1 $-1 $303 $311 #
ellipse-curve $-1 -1 $-1 0.86499999999999988 -1.1102230246251565e-016 6 -1 0 0 0 4.1717389091810997e-016 -2.5 1 I I #
ellipse-curve $-1 -1 $-1 0.85858448572432489 0 6 -1 5.4383446804634574e-033 -4.4408920985006264e-017 1.1102230246251565e-016 3.0615158845559431e-016 -2.5 1 I I #
point $-1 -1 $-1 0.85858448572432489 3.0615158845559431e-016 3.5 #
coedge $-1 -1 $-1 $270 $269 $312 $313 reversed $271 $-1 #
face $314 -1 $-1 $-1 $271 $6 $-1 $315 forward single #
straight-curve $-1 -1 $-1 0.86499999999999988 -6.1230317691118863e-016 8.5 -1 0 0 I I #
model_id-kcp-attrib $-1 -1 $-1 $-1 $276 1 1021570799 1021570799 1846411265 17 #
face $316 -1 $-1 $317 $318 $6 $-1 $319 forward single #
loop $-1 -1 $-1 $-1 $320 $276 #
cone-surface $-1 -1 $-1 -0.47499999999999998 0 6 1 0 0 0 0 2.5 1 I I 0 1 2.5 forward I I I I #
coedge $-1 -1 $-1 $321 $322 $323 $324 forward $277 $-1 #
coedge $-1 -1 $-1 $282 $279 $325 $326 forward $258 $-1 #
coedge $-1 -1 $-1 $279 $282 $327 $328 reversed $258 $-1 #
coedge $-1 -1 $-1 $322 $321 $279 $301 reversed $277 $-1 #
edge $-1 -1 $-1 $329 3.1164875267990553e-031 $330 3.1415926535897931 $300 $331 forward @7 unknown #
coedge $-1 -1 $-1 $332 $312 $280 $303 reversed $333 $-1 #
edge $-1 -1 $-1 $307 0 $286 6.1400916116944133 $302 $334 forward @7 unknown #
coedge $-1 -1 $-1 $312 $332 $281 $305 forward $333 $-1 #
edge $-1 -1 $-1 $306 6.9729644815233484e-015 $285 6.1400916116944186 $304 $335 forward @7 unknown #
vertex $-1 -1 $-1 $328 $336 #
vertex $-1 -1 $-1 $326 $337 #
ellipse-curve $-1 -1 $-1 7.0000000000000071 4.3298697960381105e-015 6 -1 0 0 0 -4.0543333664280756e-015 -2.2500000000000031 1 I I #
straight-curve $-1 -1 $-1 0.86499999999999988 3.0615158845559431e-016 3.5 -1 0 0 I I #
point $-1 -1 $-1 0.86499999999999488 3.0615158845559431e-016 3.4999999999999956 #
point $-1 -1 $-1 0.86499999999999988 -6.1230317691118863e-016 8.5 #
coedge $-1 -1 $-1 $302 $304 $290 $313 forward $333 $-1 #
edge $-1 -1 $-1 $285 -2.2088105346188293e-031 $286 3.1415926535897931 $312 $338 forward @7 unknown #
model_id-kcp-attrib $-1 -1 $-1 $-1 $291 1 1021570799 1021570799 1846411265 33 #
cone-surface $-1 -1 $-1 -0.47499999999999998 0 6 1 0 0 0 0 2.5 1 I I 0 1 2.5 forward I I I I #
model_id-kcp-attrib $-1 -1 $-1 $-1 $294 1 1021570799 1021570799 1846411265 18 #
face $339 -1 $-1 $340 $341 $6 $-1 $342 forward single #
loop $-1 -1 $-1 $-1 $343 $294 #
torus-surface $-1 -1 $-1 14.141415514275673 0 6 1 0 0 2.25 0.25 0 0 1 forward_v I I I I #
coedge $-1 -1 $-1 $344 $345 $346 $347 forward $295 $-1 #
coedge $-1 -1 $-1 $300 $297 $348 $349 forward $277 $-1 #
coedge $-1 -1 $-1 $297 $300 $350 $351 reversed $277 $-1 #
coedge $-1 -1 $-1 $345 $344 $297 $324 reversed $295 $-1 #
edge $-1 -1 $-1 $352 2.2719194070365104e-030 $353 3.1415926535897905 $323 $354 forward @7 unknown #
coedge $-1 -1 $-1 $355 $356 $298 $326 reversed $357 $-1 #
edge $-1 -1 $-1 $330 0 $307 0.99999999999999289 $325 $358 forward @7 unknown #
coedge $-1 -1 $-1 $356 $355 $299 $328 forward $357 $-1 #
edge $-1 -1 $-1 $329 1.4210854715202004e-014 $306 1 $327 $359 forward @7 unknown #
vertex $-1 -1 $-1 $351 $360 #
vertex $-1 -1 $-1 $349 $361 #
ellipse-curve $-1 -1 $-1 8 -2.2204460492503131e-016 6 -1 0 0 0 4.9758103453506619e-016 -2.25 1 I I #
coedge $-1 -1 $-1 $304 $302 $356 $362 reversed $333 $-1 #
loop $-1 -1 $-1 $-1 $312 $363 #
straight-curve $-1 -1 $-1 7.0000000000000071 -5.5107285922006967e-016 8.2500000000000036 -0.99917075965369828 -9.9722156546491432e-018 0.040716004875863743 I I #
straight-curve $-1 -1 $-1 7.0000000000000071 2.7553642961003483e-016 3.7499999999999969 -0.99917075965369828 4.9861078273245716e-018 -0.040716004875863965 I I #
point $-1 -1 $-1 7 2.7553642961003488e-016 3.75 #
point $-1 -1 $-1 7.0000000000000071 -5.5107285922006967e-016 8.2500000000000036 #
ellipse-curve $-1 -1 $-1 0.86499999999999988 0 6 1 0 0 0 3.0615158845559431e-016 -2.5 1 I I #
model_id-kcp-attrib $-1 -1 $-1 $-1 $317 1 1021570799 1021570799 1846411265 19 #
face $364 -1 $-1 $365 $366 $6 $-1 $367 forward single #
loop $-1 -1 $-1 $-1 $368 $317 #
torus-surface $-1 -1 $-1 14.141415514275673 0 6 1 0 0 2.25 0.25 0 0 1 forward_v I I I I #
coedge $-1 -1 $-1 $369 $346 $370 $371 forward $318 $-1 #
coedge $-1 -1 $-1 $323 $320 $372 $373 forward $295 $-1 #
coedge $-1 -1 $-1 $320 $323 $374 $375 reversed $295 $-1 #
coedge $-1 -1 $-1 $343 $376 $320 $347 reversed $318 $-1 #
edge $-1 -1 $-1 $377 0 $378 3.1415926535897931 $320 $379 forward @7 unknown #
coedge $-1 -1 $-1 $380 $381 $321 $349 reversed $382 $-1 #
edge $-1 -1 $-1 $353 6.1060193261851676e-033 $330 6.1400916116944186 $348 $383 forward @7 unknown #
coedge $-1 -1 $-1 $381 $380 $322 $351 forward $382 $-1 #
edge $-1 -1 $-1 $352 1.4361804347018895e-014 $329 6.1400916116944328 $350 $384 forward @7 unknown #
vertex $-1 -1 $-1 $375 $385 #
vertex $-1 -1 $-1 $373 $386 #
ellipse-curve $-1 -1 $-1 14.135000000000012 3.7747582837255322e-015 6 -1 0 0 0 -3.4686066952699379e-015 -2.500000000000004 1 I I #
coedge $-1 -1 $-1 $327 $325 $381 $387 reversed $357 $-1 #
coedge $-1 -1 $-1 $325 $327 $332 $362 forward $357 $-1 #
loop $-1 -1 $-1 $-1 $356 $388 #
straight-curve $-1 -1 $-1 8 -5.5107285922006977e-016 8.25 -1 0 0 I I #
straight-curve $-1 -1 $-1 8 2.7553642961003488e-016 3.75 -1 0 0 I I #
point $-1 -1 $-1 7.9999999999999858 2.7553642961003478e-016 3.7499999999999973 #
point $-1 -1 $-1 8 -5.5107285922006977e-016 8.25 #
edge $-1 -1 $-1 $306 2.8048387741191491e-030 $307 3.1415926535897896 $356 $389 forward @7 unknown #
face $390 -1 $-1 $291 $333 $6 $-1 $391 forward single #
model_id-kcp-attrib $-1 -1 $-1 $-1 $340 1 1021570799 1021570799 1846411265 20 #
face $392 -1 $-1 $393 $394 $6 $-1 $395 forward single #
loop $-1 -1 $-1 $-1 $396 $340 #
cone-surface $-1 -1 $-1 13.449999999999999 0 6 1 0 0 0 0 38.461538461538822 1 I I -0.99966217126952084 0.025991216453007296 38.461538461538822 forward I I I I #
coedge $-1 -1 $-1 $397 $398 $376 $399 forward $341 $-1 #
coedge $-1 -1 $-1 $376 $343 $400 $401 forward $318 $-1 #
coedge $-1 -1 $-1 $398 $397 $343 $371 reversed $341 $-1 #
edge $-1 -1 $-1 $377 0 $402 1.5448021830864487 $370 $403 forward @7 unknown #
coedge $-1 -1 $-1 $404 $405 $344 $373 reversed $406 $-1 #
edge $-1 -1 $-1 $378 0 $353 0.006415514275660783 $372 $407 forward @7 unknown #
coedge $-1 -1 $-1 $405 $404 $345 $375 forward $406 $-1 #
edge $-1 -1 $-1 $377 0 $352 0.0064155142756749939 $374 $408 forward @7 unknown #
coedge $-1 -1 $-1 $346 $369 $368 $399 reversed $318 $-1 #
vertex $-1 -1 $-1 $375 $409 #
vertex $-1 -1 $-1 $410 $411 #
ellipse-curve $-1 -1 $-1 14.141415514275673 0 6 -1 0 0 0 3.0615158845559431e-016 -2.5 1 I I #
coedge $-1 -1 $-1 $350 $348 $405 $412 reversed $382 $-1 #
coedge $-1 -1 $-1 $348 $350 $355 $387 forward $382 $-1 #
loop $-1 -1 $-1 $-1 $381 $413 #
straight-curve $-1 -1 $-1 14.135000000000012 -6.1230317691118873e-016 8.5000000000000036 -0.99917075965369828 9.9722156546491525e-018 -0.040716004875863653 I I #
straight-curve $-1 -1 $-1 14.135000000000012 3.0615158845559436e-016 3.499999999999996 -0.99917075965369828 -4.9861078273245762e-018 0.040716004875863868 I I #
point $-1 -1 $-1 14.134999999999998 3.0615158845559431e-016 3.5 #
point $-1 -1 $-1 14.135000000000012 0 8.5000000000000036 #
edge $-1 -1 $-1 $329 -5.4538531718983468e-031 $330 3.1415926535897927 $381 $414 forward @7 unknown #
face $415 -1 $-1 $363 $357 $6 $-1 $416 forward single #
ellipse-curve $-1 -1 $-1 7.0000000000000071 -4.4408920985006262e-015 6 1 0 0 0 4.716428528110661e-015 -2.2500000000000031 1 I I #
model_id-kcp-attrib $-1 -1 $-1 $-1 $363 1 1021570799 1021570799 1846411265 32 #
cone-surface $-1 -1 $-1 61.214999999999982 0 6 1 0 0 0 0 0.040749796251018752 1 I I -0.04071600487586384 0.99917075965369839 0.040749796251018752 forward I I I I #
model_id-kcp-attrib $-1 -1 $-1 $-1 $365 1 1021570799 1021570799 1846411265 21 #
face $417 -1 $-1 $418 $419 $6 $-1 $420 forward single #
loop $-1 -1 $-1 $-1 $421 $365 #
cone-surface $-1 -1 $-1 13.449999999999999 0 6 1 0 0 0 0 38.461538461538822 1 I I -0.99966217126952084 0.025991216453007296 38.461538461538822 forward I I I I #
coedge $-1 -1 $-1 $422 $423 $424 $425 forward $366 $-1 #
coedge $-1 -1 $-1 $370 $368 $422 $426 reversed $341 $-1 #
coedge $-1 -1 $-1 $368 $370 $404 $410 forward $341 $-1 #
edge $-1 -1 $-1 $378 0 $427 1.5448021830864487 $368 $428 forward @7 unknown #
coedge $-1 -1 $-1 $424 $421 $369 $401 reversed $394 $-1 #
edge $-1 -1 $-1 $402 2.5175839919980134e-031 $427 3.1415926535897931 $400 $429 forward @7 unknown #
vertex $-1 -1 $-1 $426 $430 #
ellipse-curve $-1 -1 $-1 14.141415514275675 2.7553642961003508e-016 3.7499999999999982 4.8728014943452239e-032 -1 -1.2246063538223782e-016 -1.7763568394002505e-015 3.0615158845559234e-017 -0.24999999999999822 1 I I #
coedge $-1 -1 $-1 $374 $372 $398 $410 reversed $406 $-1 #
coedge $-1 -1 $-1 $372 $374 $380 $412 forward $406 $-1 #
loop $-1 -1 $-1 $-1 $405 $431 #
straight-curve $-1 -1 $-1 14.141415514275673 -6.1230317691118863e-016 8.5 -1 0 0 I I #
straight-curve $-1 -1 $-1 14.141415514275673 3.0615158845559431e-016 3.5 -1 0 0 I I #
point $-1 -1 $-1 14.141415514275673 3.0615158845559431e-016 3.5 #
edge $-1 -1 $-1 $377 0 $378 3.1415926535897931 $404 $432 forward @7 unknown #
point $-1 -1 $-1 14.141415514275673 0 8.5 #
edge $-1 -1 $-1 $352 2.5243548967072337e-030 $353 3.14159265358979 $405 $433 forward @7 unknown #
face $434 -1 $-1 $388 $382 $6 $-1 $435 forward single #
ellipse-curve $-1 -1 $-1 8 -5.5511151231257827e-016 6 1 0 0 0 8.3064794192261315e-016 -2.25 1 I I #
model_id-kcp-attrib $-1 -1 $-1 $-1 $388 1 1021570799 1021570799 1846411265 31 #
cone-surface $-1 -1 $-1 -0.47499999999999998 0 6 1 0 0 0 0 2.25 1 I I 0 1 2.25 forward I I I I #
model_id-kcp-attrib $-1 -1 $-1 $-1 $393 1 1021570799 1021570799 1846411265 22 #
face $436 -1 $-1 $437 $438 $6 $-1 $439 forward single #
loop $-1 -1 $-1 $-1 $440 $393 #
cone-surface $-1 -1 $-1 0.25 0 6 1 0 0 0 0 0.19999999999999998 1 I I 0 1 0.19999999999999998 forward I I I I #
coedge $-1 -1 $-1 $400 $441 $442 $443 forward $394 $-1 #
coedge $-1 -1 $-1 $442 $396 $397 $426 forward $366 $-1 #
coedge $-1 -1 $-1 $396 $442 $444 $445 reversed $366 $-1 #
coedge $-1 -1 $-1 $441 $400 $396 $425 reversed $394 $-1 #
edge $-1 -1 $-1 $446 0 $402 2.0571927829394667 $396 $447 forward @7 unknown #
edge $-1 -1 $-1 $402 -2.5175839919980134e-031 $427 3.1415926535897931 $422 $448 forward @7 unknown #
vertex $-1 -1 $-1 $443 $449 #
ellipse-curve $-1 -1 $-1 14.141415514275675 -5.5107285922007046e-016 8.2500000000000018 -4.2230946284324861e-031 1 2.4492127076447447e-016 -1.7763568394002505e-015 -6.1230317691118173e-017 0.24999999999999822 1 I I #
ellipse-curve $-1 -1 $-1 14.391331057093053 0 6 -1 0 0 0 2.7633215483033303e-016 -2.256497804113252 1 I I #
point $-1 -1 $-1 14.391331057093055 2.7633215483033249e-016 3.743502195886748 #
face $450 -1 $-1 $413 $406 $6 $-1 $451 forward single #
ellipse-curve $-1 -1 $-1 14.141415514275673 0 6 1 0 0 0 3.0615158845559431e-016 -2.5 1 I I #
ellipse-curve $-1 -1 $-1 14.135000000000012 -3.7747582837255322e-015 6 1 0 0 0 4.0809098721811266e-015 -2.500000000000004 1 I I #
model_id-kcp-attrib $-1 -1 $-1 $-1 $413 1 1021570799 1021570799 1846411265 30 #
cone-surface $-1 -1 $-1 -46.214999999999968 0 6 -1 0 0 0 0 0.040749796251018759 1 I I -0.040716004875863847 0.99917075965369839 0.040749796251018759 forward I I I I #
model_id-kcp-attrib $-1 -1 $-1 $-1 $418 1 1021570799 1021570799 1846411265 23 #
face $452 -1 $-1 $453 $454 $6 $-1 $455 forward single #
loop $-1 -1 $-1 $-1 $456 $418 #
cone-surface $-1 -1 $-1 0.25 0 6 1 0 0 0 0 0.19999999999999998 1 I I 0 1 0.19999999999999998 forward I I I I #
coedge $-1 -1 $-1 $457 $458 $459 $460 forward $419 $-1 #
coedge $-1 -1 $-1 $421 $424 $458 $461 reversed $394 $-1 #
coedge $-1 -1 $-1 $423 $422 $421 $443 reversed $366 $-1 #
edge $-1 -1 $-1 $462 0 $427 2.0571927829394667 $442 $463 forward @7 unknown #
coedge $-1 -1 $-1 $456 $459 $423 $445 forward $438 $-1 #
edge $-1 -1 $-1 $446 0 $462 3.1415926535897931 $444 $464 forward @7 unknown #
vertex $-1 -1 $-1 $461 $465 #
straight-curve $-1 -1 $-1 14.444799999999999 2.4492127076446125e-017 5.8000000000000043 -0.025991216453007299 1.2241926466125308e-016 -0.99966217126952106 I I #
ellipse-curve $-1 -1 $-1 14.391331057093053 0 6 1 0 0 0 2.7633215483033303e-016 -2.256497804113252 1 I I #
point $-1 -1 $-1 14.391331057093055 -5.5266430966066498e-016 8.256497804113252 #
model_id-kcp-attrib $-1 -1 $-1 $-1 $431 1 1021570799 1021570799 1846411265 29 #
cone-surface $-1 -1 $-1 -0.47499999999999998 0 6 1 0 0 0 0 2.5 1 I I 0 1 2.5 forward I I I I #
model_id-kcp-attrib $-1 -1 $-1 $-1 $437 1 1021570799 1021570799 1846411265 24 #
face $466 -1 $-1 $467 $468 $6 $-1 $469 forward single #
loop $-1 -1 $-1 $-1 $470 $437 #
torus-surface $-1 -1 $-1 14.75 0 5.75 0 1 0 0.25 0.19999999999999998 0 0 -1 forward_v I I I I #
coedge $-1 -1 $-1 $471 $444 $472 $473 forward $438 $-1 #
coedge $-1 -1 $-1 $472 $440 $474 $475 reversed $419 $-1 #
coedge $-1 -1 $-1 $440 $472 $441 $461 forward $419 $-1 #
coedge $-1 -1 $-1 $444 $471 $440 $460 reversed $438 $-1 #
edge $-1 -1 $-1 $446 3.5527136788005009e-015 $476 0.30520000000000458 $440 $477 forward @7 unknown #
edge $-1 -1 $-1 $462 0 $446 3.1415926535897931 $458 $478 forward @7 unknown #
vertex $-1 -1 $-1 $461 $479 #
straight-curve $-1 -1 $-1 14.444799999999999 -4.898425415289225e-017 6.1999999999999957 -0.025991216453007299 -2.4483852932250616e-016 0.99966217126952106 I I #
ellipse-curve $-1 -1 $-1 14.444799999999999 -2.0816681711721685e-017 6 1 0 0 0 4.530880878816781e-017 -0.19999999999999574 1 I I #
point $-1 -1 $-1 14.444799999999999 2.4492127076446125e-017 5.8000000000000043 #
model_id-kcp-attrib $-1 -1 $-1 $-1 $453 1 1021570799 1021570799 1846411265 25 #
face $480 -1 $-1 $481 $482 $6 $-1 $483 forward single #
loop $-1 -1 $-1 $-1 $484 $453 #
torus-surface $-1 -1 $-1 14.75 0 5.75 0 1 0 0.25 0.19999999999999998 0 0 -1 forward_v I I I I #
coedge $-1 -1 $-1 $485 $486 $487 $488 forward $454 $-1 #
coedge $-1 -1 $-1 $459 $456 $486 $489 reversed $438 $-1 #
coedge $-1 -1 $-1 $458 $457 $456 $473 reversed $419 $-1 #
edge $-1 -1 $-1 $462 3.5527136788005009e-015 $490 0.30520000000000458 $472 $491 forward @7 unknown #
coedge $-1 -1 $-1 $484 $487 $457 $475 forward $468 $-1 #
edge $-1 -1 $-1 $490 0 $476 3.1415926535897869 $457 $492 forward @7 unknown #
vertex $-1 -1 $-1 $475 $493 #
straight-curve $-1 -1 $-1 14.444799999999995 -2.0212781101647259e-016 5.7999999999999998 1 2.9101520960030052e-016 0 I I #
ellipse-curve $-1 -1 $-1 14.444799999999999 -6.9388939039072284e-018 6 1 0 0 0 -4.2045360248985022e-017 0.19999999999999574 1 I I #
point $-1 -1 $-1 14.444799999999999 -4.898425415289225e-017 6.1999999999999957 #
model_id-kcp-attrib $-1 -1 $-1 $-1 $467 1 1021570799 1021570799 1846411265 26 #
face $494 -1 $-1 $495 $496 $6 $-1 $497 forward single #
loop $-1 -1 $-1 $-1 $498 $467 #
cone-surface $-1 -1 $-1 15 0 5.75 0 0 -1 0.19999999999999998 0 0 1 I I 0 1 0.19999999999999998 forward I I I I #
coedge $-1 -1 $-1 $499 $474 $500 $501 forward $468 $-1 #
coedge $-1 -1 $-1 $500 $470 $502 $503 reversed $454 $-1 #
coedge $-1 -1 $-1 $470 $500 $471 $489 forward $454 $-1 #
coedge $-1 -1 $-1 $474 $499 $470 $488 reversed $468 $-1 #
edge $-1 -1 $-1 $490 0 $504 1.5707963267948966 $487 $505 forward @7 unknown #
edge $-1 -1 $-1 $476 0 $490 3.1415926535897878 $471 $506 forward @7 unknown #
vertex $-1 -1 $-1 $473 $507 #
straight-curve $-1 -1 $-1 14.444799999999995 0 6.2000000000000002 1 0 0 I I #
ellipse-curve $-1 -1 $-1 14.75 6.0368376963992887e-016 6 1 0 0 0 -6.0368376963992887e-016 0.20000000000000018 1 I I #
point $-1 -1 $-1 14.75 -2.4492127076447543e-017 5.7999999999999998 #
model_id-kcp-attrib $-1 -1 $-1 $-1 $481 1 1021570799 1021570799 1846411265 27 #
face $508 -1 $-1 $431 $509 $6 $-1 $510 forward single #
loop $-1 -1 $-1 $-1 $511 $481 #
cone-surface $-1 -1 $-1 15 0 5.75 0 0 -1 0.19999999999999998 0 0 1 I I 0 1 0.19999999999999998 forward I I I I #
coedge $-1 -1 $-1 $512 $513 $514 $515 forward $482 $-1 #
coedge $-1 -1 $-1 $487 $484 $513 $516 reversed $468 $-1 #
coedge $-1 -1 $-1 $486 $485 $484 $501 reversed $454 $-1 #
edge $-1 -1 $-1 $476 0 $517 1.5707963267948966 $484 $518 forward @7 unknown #
coedge $-1 -1 $-1 $511 $514 $485 $503 forward $496 $-1 #
edge $-1 -1 $-1 $517 0 $504 3.1415926535897936 $485 $519 forward @7 unknown #
vertex $-1 -1 $-1 $488 $520 #
ellipse-curve $-1 -1 $-1 14.75 0 5.75 0 1 0 0 0 0.45000000000000018 1 I I #
ellipse-curve $-1 -1 $-1 14.75 -5.6898930012039273e-016 6 1 0 0 0 5.4449717304394522e-016 -0.20000000000000018 1 I I #
point $-1 -1 $-1 14.75 0 6.2000000000000002 #
model_id-kcp-attrib $-1 -1 $-1 $-1 $495 1 1021570799 1021570799 1846411265 28 #
loop $-1 -1 $-1 $-1 $521 $495 #
plane-surface $-1 -1 $-1 15 0 0 0 0 -1 1 0 0 forward_v I I I I #
coedge $-1 -1 $-1 $522 $502 $523 $524 forward $496 $-1 #
coedge $-1 -1 $-1 $523 $498 $525 $526 reversed $482 $-1 #
coedge $-1 -1 $-1 $498 $523 $499 $516 forward $482 $-1 #
coedge $-1 -1 $-1 $502 $522 $498 $515 reversed $496 $-1 #
edge $-1 -1 $-1 $517 0 $527 5.75 $498 $528 forward @7 unknown #
edge $-1 -1 $-1 $504 0 $517 3.1415926535897927 $499 $529 forward @7 unknown #
vertex $-1 -1 $-1 $516 $530 #
ellipse-curve $-1 -1 $-1 14.75 -2.4492127076447543e-017 5.75 0 1 0 0 0 0.049999999999999822 1 I I #
ellipse-curve $-1 -1 $-1 15 0 5.75 0 0 -1 -0.19999999999999929 -1.1330996904646006e-016 0 1 I I #
point $-1 -1 $-1 15.199999999999999 0 5.75 #
coedge $-1 -1 $-1 $525 $525 $522 $531 forward $509 $-1 #
coedge $-1 -1 $-1 $514 $511 $521 $531 reversed $496 $-1 #
coedge $-1 -1 $-1 $513 $512 $511 $524 reversed $482 $-1 #
edge $-1 -1 $-1 $504 0 $532 5.75 $523 $533 forward @7 unknown #
coedge $-1 -1 $-1 $521 $521 $512 $526 forward $509 $-1 #
edge $-1 -1 $-1 $532 0 $527 3.1415926535898002 $525 $534 forward @7 unknown #
vertex $-1 -1 $-1 $526 $535 #
straight-curve $-1 -1 $-1 14.800000000000001 -1.1330996904646006e-016 5.75 0 0 -1 I I #
ellipse-curve $-1 -1 $-1 15 0 5.75 0 0 -1 0.19999999999999929 0 0 1 I I #
point $-1 -1 $-1 14.800000000000001 -1.1330996904646006e-016 5.75 #
edge $-1 -1 $-1 $527 0 $532 3.1415926535898007 $521 $536 forward @7 unknown #
vertex $-1 -1 $-1 $526 $537 #
straight-curve $-1 -1 $-1 15.199999999999999 0 5.75 0 0 -1 I I #
ellipse-curve $-1 -1 $-1 15 -7.4246164771807344e-016 0 0 0 -1 0.19999999999999929 7.4246164771807344e-016 0 1 I I #
point $-1 -1 $-1 14.800000000000001 0 0 #
ellipse-curve $-1 -1 $-1 15 7.7021722333370235e-016 0 0 0 -1 -0.19999999999999929 -7.7021722333370235e-016 0 1 I I #
point $-1 -1 $-1 15.199999999999999 0 0 #
End-of-ACIS-data 