600 0 1 0           
99 GICL ACIS Healer - Source: /gicl/data5/repository/PTC/V18/bboxrev2/boombox/res_power_.prt.sat - 6 0 18 ACIS 6.0.3 Solaris 24 Sat Apr 13 22:47:13 2002 
1 9.999999999999999547e-07 1.000000000000000036e-10 
body $-1 $1 $-1 $-1 #
lump $-1 $-1 $2 $0 #
shell $-1 $-1 $-1 $3 $-1 $1 #
face $-1 $4 $5 $2 $-1 $6 reversed single #
face $-1 $7 $8 $2 $-1 $9 forward single #
loop $-1 $-1 $10 $3 #
plane-surface $-1 0 0 0 0 0 1 -1 0 0 forward_v I I I I #
face $-1 $11 $12 $2 $-1 $13 forward single #
loop $-1 $-1 $14 $4 #
cone-surface $-1 0 0 0 0 0 1 -0.1999999999999999833 0 0 1 I I 0 1 0.1999999999999999833 forward I I I I #
coedge $-1 $15 $15 $16 $17 reversed $5 $-1 #
face $-1 $18 $19 $2 $-1 $20 forward single #
loop $-1 $-1 $21 $7 #
cone-surface $-1 0 0 0 0 0 1 -0.1999999999999999833 0 0 1 I I 0 1 0.1999999999999999833 forward I I I I #
coedge $-1 $22 $16 $23 $24 forward $8 $-1 #
coedge $-1 $10 $10 $25 $26 reversed $5 $-1 #
coedge $-1 $14 $27 $10 $17 forward $8 $-1 #
edge $-1 $28 0 $29 3.141592653589793116 $10 $30 forward 7 unknown #
face $-1 $31 $32 $2 $-1 $33 forward single #
loop $-1 $-1 $34 $11 #
torus-surface $-1 0.25 0 5.75 0 1 0 0.25 0.1999999999999999833 1 0 0 forward_v I I I I #
coedge $-1 $35 $25 $27 $36 forward $12 $-1 #
coedge $-1 $27 $14 $37 $38 reversed $8 $-1 #
coedge $-1 $25 $35 $14 $24 reversed $12 $-1 #
edge $-1 $29 0 $39 5.75 $23 $40 forward 7 unknown #
coedge $-1 $21 $23 $15 $26 forward $12 $-1 #
edge $-1 $29 0 $28 3.141592653589793116 $15 $41 forward 7 unknown #
coedge $-1 $16 $22 $21 $36 reversed $8 $-1 #
vertex $-1 $26 $42 #
vertex $-1 $26 $43 #
ellipse-curve $-1 0 0 0 0 0 1 0.1999999999999999833 0 0 1 I I #
face $-1 $44 $45 $2 $-1 $46 forward single #
loop $-1 $-1 $47 $18 #
torus-surface $-1 0.25 0 5.75 0 1 0 0.25 0.1999999999999999833 1 0 0 forward_v I I I I #
coedge $-1 $48 $49 $50 $51 forward $19 $-1 #
coedge $-1 $23 $21 $49 $52 reversed $12 $-1 #
edge $-1 $28 0 $53 5.75 $21 $54 forward 7 unknown #
coedge $-1 $47 $50 $22 $38 forward $32 $-1 #
edge $-1 $53 0 $39 3.141592653589793116 $22 $55 forward 7 unknown #
vertex $-1 $24 $56 #
straight-curve $-1 -0.1999999999999999833 0 0 0 0 1 I I #
ellipse-curve $-1 0 0 0 0 0 1 -0.1999999999999999833 0 0 1 I I #
point $-1 0.1999999999999999833 0 0 #
point $-1 -0.1999999999999999833 0 0 #
face $-1 $57 $58 $2 $-1 $59 forward single #
loop $-1 $-1 $60 $31 #
cone-surface $-1 0.25 0 6 1 0 0 0 0 0.1999999999999999833 1 I I 0 1 0.1999999999999999833 forward I I I I #
coedge $-1 $61 $37 $62 $63 forward $32 $-1 #
coedge $-1 $62 $34 $64 $65 reversed $19 $-1 #
coedge $-1 $34 $62 $35 $52 forward $19 $-1 #
coedge $-1 $37 $61 $34 $51 reversed $32 $-1 #
edge $-1 $53 0 $66 1.570796326794896558 $34 $67 forward 7 unknown #
edge $-1 $39 0 $53 3.141592653589793116 $35 $68 forward 7 unknown #
vertex $-1 $52 $69 #
straight-curve $-1 0.1999999999999999833 -1.133099690464600585e-16 0 0 0 1 I I #
ellipse-curve $-1 -1.387778780781445676e-17 -6.938893903907228378e-18 5.75 0 0 1 0.2000000000000000111 -1.755323317254031432e-17 0 1 I I #
point $-1 -0.1999999999999999833 0 5.75 #
face $-1 $70 $71 $2 $-1 $72 forward single #
loop $-1 $-1 $73 $44 #
cone-surface $-1 0.25 0 6 1 0 0 0 0 0.1999999999999999833 1 I I 0 1 0.1999999999999999833 forward I I I I #
coedge $-1 $74 $75 $76 $77 reversed $45 $-1 #
coedge $-1 $50 $47 $74 $78 reversed $32 $-1 #
coedge $-1 $49 $48 $47 $63 reversed $19 $-1 #
edge $-1 $39 0 $79 1.570796326794896558 $62 $80 forward 7 unknown #
coedge $-1 $76 $73 $48 $65 forward $58 $-1 #
edge $-1 $79 0 $66 3.141592653589793116 $48 $81 forward 7 unknown #
vertex $-1 $65 $82 #
ellipse-curve $-1 0.25 -2.44921270764475427e-17 5.75 0 1 0 -0.05000000000000001665 0 0 1 I I #
ellipse-curve $-1 1.387778780781445676e-17 6.938893903907228378e-18 5.75 0 0 1 -0.2000000000000000111 -6.938893903907228378e-18 0 1 I I #
point $-1 0.1999999999999999833 -2.44921270764475427e-17 5.75 #
face $-1 $83 $84 $2 $-1 $85 forward single #
loop $-1 $-1 $86 $57 #
cone-surface $-1 1.549999999999999822 0 6 -1 0 0 0 0 38.46153846153849543 1 I I -0.9996621712695208384 0.02599121645300751793 38.46153846153849543 forward I I I I #
coedge $-1 $64 $87 $88 $89 reversed $58 $-1 #
coedge $-1 $88 $60 $61 $78 forward $45 $-1 #
coedge $-1 $60 $88 $90 $91 reversed $45 $-1 #
coedge $-1 $87 $64 $60 $77 forward $58 $-1 #
edge $-1 $66 -2.584734289714980238e-32 $92 0.3052000000000000268 $76 $93 forward 7 unknown #
edge $-1 $66 4.440892098500622217e-16 $79 3.14159265358979356 $61 $94 forward 7 unknown #
vertex $-1 $63 $95 #
ellipse-curve $-1 0.25 0 5.75 0 1 0 -0.4499999999999999556 0 0 1 I I #
ellipse-curve $-1 0.25 0 6 1 0 0 0 0 0.2000000000000001776 1 I I #
point $-1 0.25 -2.44921270764475427e-17 5.799999999999999822 #
face $-1 $96 $97 $2 $-1 $98 forward single #
loop $-1 $-1 $99 $70 #
cone-surface $-1 1.549999999999999822 0 6 -1 0 0 0 0 38.46153846153849543 1 I I -0.9996621712695208384 0.02599121645300751793 38.46153846153849543 forward I I I I #
coedge $-1 $100 $101 $102 $103 reversed $71 $-1 #
coedge $-1 $73 $76 $101 $104 reversed $58 $-1 #
coedge $-1 $75 $74 $73 $89 forward $45 $-1 #
edge $-1 $79 0 $105 0.3052000000000000268 $73 $106 forward 7 unknown #
coedge $-1 $99 $102 $75 $91 forward $84 $-1 #
edge $-1 $92 0 $105 3.141592653589793116 $75 $107 forward 7 unknown #
vertex $-1 $104 $108 #
straight-curve $-1 0.25 -1.133099690464600585e-16 5.799999999999999822 1 -2.910152096003032286e-16 0 I I #
ellipse-curve $-1 0.25 0 6 1 0 0 0 -1.133099690464600585e-16 -0.2000000000000001776 1 I I #
point $-1 0.25 0 6.200000000000000178 #
face $-1 $109 $110 $2 $-1 $111 forward single #
loop $-1 $-1 $112 $83 #
torus-surface $-1 0.8585844857243245531 0 6 1 0 0 2.25 0.25 0 0 1 forward_v I I I I #
coedge $-1 $113 $90 $114 $115 reversed $84 $-1 #
coedge $-1 $114 $86 $116 $117 forward $71 $-1 #
coedge $-1 $86 $114 $87 $104 forward $71 $-1 #
coedge $-1 $90 $113 $86 $103 forward $84 $-1 #
edge $-1 $118 6.667744570424434499e-15 $92 2.057192782939466724 $102 $119 forward 7 unknown #
edge $-1 $105 0 $92 3.141592653589793116 $87 $120 forward 7 unknown #
vertex $-1 $104 $121 #
straight-curve $-1 0.25 0 6.200000000000000178 1 0 0 I I #
ellipse-curve $-1 0.5552000000000000268 -2.081668171172168513e-17 6 1 0 0 0 4.530880878816938807e-17 -0.2000000000000028422 1 I I #
point $-1 0.5552000000000000268 2.449212707644770294e-17 5.799999999999997158 #
face $-1 $122 $123 $2 $-1 $124 forward single #
loop $-1 $-1 $125 $96 #
torus-surface $-1 0.8585844857243245531 0 6 1 0 0 2.25 0.25 0 0 1 forward_v I I I I #
coedge $-1 $126 $127 $128 $129 forward $97 $-1 #
coedge $-1 $102 $99 $127 $130 reversed $84 $-1 #
coedge $-1 $101 $100 $99 $115 forward $71 $-1 #
edge $-1 $131 7.111683754180513679e-15 $105 2.057192782939466724 $99 $132 forward 7 unknown #
coedge $-1 $125 $128 $100 $117 reversed $110 $-1 #
edge $-1 $118 0 $131 3.141592653589793116 $100 $133 forward 7 unknown #
vertex $-1 $103 $134 #
straight-curve $-1 0.6086689429069446211 2.763321548303340666e-16 3.743502195886740935 -0.02599121645300751446 -1.224192646612530787e-16 0.9996621712695210604 I I #
ellipse-curve $-1 0.5552000000000000268 1.387778780781445676e-17 6 1 0 0 0 -6.286204196070986263e-17 0.2000000000000028422 1 I I #
point $-1 0.5552000000000000268 -4.898425415289540587e-17 6.200000000000002842 #
face $-1 $135 $136 $2 $-1 $137 forward single #
loop $-1 $-1 $138 $109 #
cone-surface $-1 -0.4749999999999999778 0 6 1 0 0 0 0 2.5 1 I I 0 1 2.5 forward I I I I #
coedge $-1 $139 $116 $140 $141 forward $110 $-1 #
coedge $-1 $140 $112 $142 $143 reversed $97 $-1 #
coedge $-1 $112 $140 $113 $130 forward $97 $-1 #
coedge $-1 $116 $139 $112 $129 reversed $110 $-1 #
edge $-1 $131 0 $144 1.544802183086436687 $112 $145 forward 7 unknown #
edge $-1 $118 0 $131 3.141592653589793116 $113 $146 forward 7 unknown #
vertex $-1 $130 $147 #
straight-curve $-1 0.6086689429069446211 -5.526643096606681331e-16 8.256497804113259065 -0.02599121645300751446 2.448385293225061574e-16 -0.9996621712695210604 I I #
ellipse-curve $-1 0.608668942906944288 0 6 -1 0 0 0 2.763321548303330805e-16 -2.256497804113252403 1 I I #
point $-1 0.608668942906944288 2.763321548303330805e-16 3.743502195886747597 #
face $-1 $148 $149 $2 $-1 $150 forward single #
loop $-1 $-1 $151 $122 #
cone-surface $-1 61.21499999999998209 0 6 1 0 0 0 0 0.04074979625101875225 1 I I -0.04071600487586383987 0.9991707596536983926 0.04074979625101875225 forward I I I I #
coedge $-1 $152 $153 $154 $155 forward $123 $-1 #
coedge $-1 $128 $125 $156 $157 forward $110 $-1 #
coedge $-1 $127 $126 $125 $141 reversed $97 $-1 #
edge $-1 $118 0 $158 1.544802183086434244 $140 $159 forward 7 unknown #
coedge $-1 $160 $161 $126 $143 forward $162 $-1 #
edge $-1 $158 0 $144 3.141592653589793116 $142 $163 forward 7 unknown #
vertex $-1 $164 $165 #
ellipse-curve $-1 0.8585844857243243311 -5.510728592200699634e-16 8.25 4.129193800766238924e-31 1 2.449212707644747614e-16 -0.2499155428173800431 -1.591450440596197579e-18 0.006497804113251959279 1 I I #
ellipse-curve $-1 0.608668942906944288 0 6 1 0 0 0 2.763321548303330805e-16 -2.256497804113252403 1 I I #
point $-1 0.608668942906944288 0 8.256497804113251959 #
face $-1 $166 $167 $2 $-1 $168 forward single #
loop $-1 $-1 $169 $135 #
cone-surface $-1 -0.4749999999999999778 0 6 1 0 0 0 0 2.25 1 I I 0 1 2.25 forward I I I I #
coedge $-1 $170 $171 $172 $173 forward $136 $-1 #
coedge $-1 $156 $138 $160 $164 forward $123 $-1 #
coedge $-1 $138 $156 $161 $174 reversed $123 $-1 #
coedge $-1 $171 $170 $138 $155 reversed $136 $-1 #
edge $-1 $175 2.839899258795637577e-31 $176 3.141592653589793116 $154 $177 forward 7 unknown #
coedge $-1 $153 $152 $139 $157 reversed $123 $-1 #
edge $-1 $158 0 $144 3.141592653589793116 $156 $178 forward 7 unknown #
vertex $-1 $174 $179 #
ellipse-curve $-1 0.8585844857243245531 2.755364296100348831e-16 3.75 3.813341289886725347e-32 -1 -1.224606353822377012e-16 -0.2499155428173802651 7.95725220298197397e-19 -0.006497804113252403369 1 I I #
coedge $-1 $180 $142 $152 $164 reversed $162 $-1 #
coedge $-1 $142 $180 $153 $174 forward $162 $-1 #
loop $-1 $-1 $142 $181 #
ellipse-curve $-1 0.8585844857243248862 0 6 1 -5.438344680463457377e-33 4.440892098500626408e-17 1.11022302462515654e-16 3.061515884555943146e-16 -2.5 1 I I #
edge $-1 $176 0 $144 0.006415514275674993883 $160 $182 forward 7 unknown #
point $-1 0.8585844857243248862 -6.123031769111886291e-16 8.5 #
face $-1 $183 $184 $2 $-1 $185 forward single #
loop $-1 $-1 $186 $148 #
cone-surface $-1 -46.21499999999996788 0 6 -1 0 0 0 0 0.04074979625101875919 1 I I -0.04071600487586384681 0.9991707596536983926 0.04074979625101875919 forward I I I I #
coedge $-1 $187 $188 $189 $190 forward $149 $-1 #
coedge $-1 $154 $151 $191 $192 forward $136 $-1 #
coedge $-1 $151 $154 $193 $194 reversed $136 $-1 #
coedge $-1 $188 $187 $151 $173 reversed $149 $-1 #
edge $-1 $195 2.493190021439243546e-30 $196 3.141592653589789119 $172 $197 forward 7 unknown #
edge $-1 $175 4.996003610813204432e-15 $158 0.006415514275674993883 $161 $198 forward 7 unknown #
vertex $-1 $194 $199 #
vertex $-1 $192 $200 #
ellipse-curve $-1 0.8649999999999998801 -1.11022302462515654e-16 6 -1 0 0 0 4.171738909181099686e-16 -2.5 1 I I #
ellipse-curve $-1 0.8585844857243248862 0 6 -1 5.438344680463457377e-33 -4.440892098500626408e-17 1.11022302462515654e-16 3.061515884555943146e-16 -2.5 1 I I #
point $-1 0.8585844857243248862 3.061515884555943146e-16 3.5 #
coedge $-1 $161 $160 $201 $202 reversed $162 $-1 #
face $-1 $-1 $162 $2 $-1 $203 forward single #
straight-curve $-1 0.8649999999999998801 -6.123031769111886291e-16 8.5 -1 0 0 I I #
face $-1 $204 $205 $2 $-1 $206 forward single #
loop $-1 $-1 $207 $166 #
cone-surface $-1 -0.4749999999999999778 0 6 1 0 0 0 0 2.5 1 I I 0 1 2.5 forward I I I I #
coedge $-1 $208 $209 $210 $211 forward $167 $-1 #
coedge $-1 $172 $169 $212 $213 forward $149 $-1 #
coedge $-1 $169 $172 $214 $215 reversed $149 $-1 #
coedge $-1 $209 $208 $169 $190 reversed $167 $-1 #
edge $-1 $216 3.116487526799055308e-31 $217 3.141592653589793116 $189 $218 forward 7 unknown #
coedge $-1 $219 $201 $170 $192 reversed $220 $-1 #
edge $-1 $196 0 $176 6.140091611694413309 $191 $221 forward 7 unknown #
coedge $-1 $201 $219 $171 $194 forward $220 $-1 #
edge $-1 $195 6.972964481523348381e-15 $175 6.140091611694418638 $193 $222 forward 7 unknown #
vertex $-1 $215 $223 #
vertex $-1 $213 $224 #
ellipse-curve $-1 7.000000000000007105 4.329869796038110508e-15 6 -1 0 0 0 -4.054333366428075625e-15 -2.250000000000003109 1 I I #
straight-curve $-1 0.8649999999999998801 3.061515884555943146e-16 3.5 -1 0 0 I I #
point $-1 0.8649999999999948841 3.061515884555943146e-16 3.499999999999995559 #
point $-1 0.8649999999999998801 -6.123031769111886291e-16 8.5 #
coedge $-1 $191 $193 $180 $202 forward $220 $-1 #
edge $-1 $175 -2.208810534618829324e-31 $176 3.141592653589793116 $201 $225 forward 7 unknown #
cone-surface $-1 -0.4749999999999999778 0 6 1 0 0 0 0 2.5 1 I I 0 1 2.5 forward I I I I #
face $-1 $226 $227 $2 $-1 $228 forward single #
loop $-1 $-1 $229 $183 #
torus-surface $-1 14.141415514275673 0 6 1 0 0 2.25 0.25 0 0 1 forward_v I I I I #
coedge $-1 $230 $231 $232 $233 forward $184 $-1 #
coedge $-1 $189 $186 $234 $235 forward $167 $-1 #
coedge $-1 $186 $189 $236 $237 reversed $167 $-1 #
coedge $-1 $231 $230 $186 $211 reversed $184 $-1 #
edge $-1 $238 2.271919407036510412e-30 $239 3.141592653589790451 $210 $240 forward 7 unknown #
coedge $-1 $241 $242 $187 $213 reversed $243 $-1 #
edge $-1 $217 0 $196 0.9999999999999928946 $212 $244 forward 7 unknown #
coedge $-1 $242 $241 $188 $215 forward $243 $-1 #
edge $-1 $216 1.421085471520200372e-14 $195 1 $214 $245 forward 7 unknown #
vertex $-1 $237 $246 #
vertex $-1 $235 $247 #
ellipse-curve $-1 8 -2.220446049250313081e-16 6 -1 0 0 0 4.975810345350661912e-16 -2.25 1 I I #
coedge $-1 $193 $191 $242 $248 reversed $220 $-1 #
loop $-1 $-1 $201 $249 #
straight-curve $-1 7.000000000000007105 -5.510728592200696676e-16 8.250000000000003553 -0.9991707596536982816 -9.972215654649143242e-18 0.04071600487586374273 I I #
straight-curve $-1 7.000000000000007105 2.755364296100348338e-16 3.749999999999996891 -0.9991707596536982816 4.986107827324571621e-18 -0.04071600487586396477 I I #
point $-1 7 2.755364296100348831e-16 3.75 #
point $-1 7.000000000000007105 -5.510728592200696676e-16 8.250000000000003553 #
ellipse-curve $-1 0.8649999999999998801 0 6 1 0 0 0 3.061515884555943146e-16 -2.5 1 I I #
face $-1 $250 $251 $2 $-1 $252 forward single #
loop $-1 $-1 $253 $204 #
torus-surface $-1 14.141415514275673 0 6 1 0 0 2.25 0.25 0 0 1 forward_v I I I I #
coedge $-1 $254 $232 $255 $256 forward $205 $-1 #
coedge $-1 $210 $207 $257 $258 forward $184 $-1 #
coedge $-1 $207 $210 $259 $260 reversed $184 $-1 #
coedge $-1 $229 $261 $207 $233 reversed $205 $-1 #
edge $-1 $262 0 $263 3.141592653589793116 $207 $264 forward 7 unknown #
coedge $-1 $265 $266 $208 $235 reversed $267 $-1 #
edge $-1 $239 6.106019326185167582e-33 $217 6.140091611694418638 $234 $268 forward 7 unknown #
coedge $-1 $266 $265 $209 $237 forward $267 $-1 #
edge $-1 $238 1.436180434701889463e-14 $216 6.140091611694432849 $236 $269 forward 7 unknown #
vertex $-1 $260 $270 #
vertex $-1 $258 $271 #
ellipse-curve $-1 14.13500000000001222 3.774758283725532237e-15 6 -1 0 0 0 -3.468606695269937923e-15 -2.500000000000003997 1 I I #
coedge $-1 $214 $212 $266 $272 reversed $243 $-1 #
coedge $-1 $212 $214 $219 $248 forward $243 $-1 #
loop $-1 $-1 $242 $273 #
straight-curve $-1 8 -5.510728592200697662e-16 8.25 -1 0 0 I I #
straight-curve $-1 8 2.755364296100348831e-16 3.75 -1 0 0 I I #
point $-1 7.999999999999985789 2.755364296100347845e-16 3.749999999999997335 #
point $-1 8 -5.510728592200697662e-16 8.25 #
edge $-1 $195 2.804838774119149077e-30 $196 3.141592653589789563 $242 $274 forward 7 unknown #
face $-1 $181 $220 $2 $-1 $275 forward single #
face $-1 $276 $277 $2 $-1 $278 forward single #
loop $-1 $-1 $279 $226 #
cone-surface $-1 13.44999999999999929 0 6 1 0 0 0 0 38.46153846153882228 1 I I -0.9996621712695208384 0.02599121645300729588 38.46153846153882228 forward I I I I #
coedge $-1 $280 $281 $261 $282 forward $227 $-1 #
coedge $-1 $261 $229 $283 $284 forward $205 $-1 #
coedge $-1 $281 $280 $229 $256 reversed $227 $-1 #
edge $-1 $262 0 $285 1.544802183086448677 $255 $286 forward 7 unknown #
coedge $-1 $287 $288 $230 $258 reversed $289 $-1 #
edge $-1 $263 0 $239 0.006415514275660783028 $257 $290 forward 7 unknown #
coedge $-1 $288 $287 $231 $260 forward $289 $-1 #
edge $-1 $262 0 $238 0.006415514275674993883 $259 $291 forward 7 unknown #
coedge $-1 $232 $254 $253 $282 reversed $205 $-1 #
vertex $-1 $260 $292 #
vertex $-1 $293 $294 #
ellipse-curve $-1 14.141415514275673 0 6 -1 0 0 0 3.061515884555943146e-16 -2.5 1 I I #
coedge $-1 $236 $234 $288 $295 reversed $267 $-1 #
coedge $-1 $234 $236 $241 $272 forward $267 $-1 #
loop $-1 $-1 $266 $296 #
straight-curve $-1 14.13500000000001222 -6.123031769111887277e-16 8.500000000000003553 -0.9991707596536982816 9.972215654649152487e-18 -0.04071600487586365252 I I #
straight-curve $-1 14.13500000000001222 3.061515884555943639e-16 3.499999999999996003 -0.9991707596536982816 -4.986107827324576243e-18 0.04071600487586386763 I I #
point $-1 14.13499999999999801 3.061515884555943146e-16 3.5 #
point $-1 14.13500000000001222 0 8.500000000000003553 #
edge $-1 $216 -5.453853171898346789e-31 $217 3.141592653589792672 $266 $297 forward 7 unknown #
face $-1 $249 $243 $2 $-1 $298 forward single #
ellipse-curve $-1 7.000000000000007105 -4.440892098500626162e-15 6 1 0 0 0 4.716428528110661045e-15 -2.250000000000003109 1 I I #
cone-surface $-1 61.21499999999998209 0 6 1 0 0 0 0 0.04074979625101875225 1 I I -0.04071600487586383987 0.9991707596536983926 0.04074979625101875225 forward I I I I #
face $-1 $299 $300 $2 $-1 $301 forward single #
loop $-1 $-1 $302 $250 #
cone-surface $-1 13.44999999999999929 0 6 1 0 0 0 0 38.46153846153882228 1 I I -0.9996621712695208384 0.02599121645300729588 38.46153846153882228 forward I I I I #
coedge $-1 $303 $304 $305 $306 forward $251 $-1 #
coedge $-1 $255 $253 $303 $307 reversed $227 $-1 #
coedge $-1 $253 $255 $287 $293 forward $227 $-1 #
edge $-1 $263 0 $308 1.544802183086448677 $253 $309 forward 7 unknown #
coedge $-1 $305 $302 $254 $284 reversed $277 $-1 #
edge $-1 $285 2.51758399199801339e-31 $308 3.141592653589793116 $283 $310 forward 7 unknown #
vertex $-1 $307 $311 #
ellipse-curve $-1 14.14141551427567478 2.755364296100350803e-16 3.749999999999998224 4.872801494345223895e-32 -1 -1.224606353822378244e-16 -1.776356839400250465e-15 3.061515884555923424e-17 -0.2499999999999982236 1 I I #
coedge $-1 $259 $257 $281 $293 reversed $289 $-1 #
coedge $-1 $257 $259 $265 $295 forward $289 $-1 #
loop $-1 $-1 $288 $312 #
straight-curve $-1 14.141415514275673 -6.123031769111886291e-16 8.5 -1 0 0 I I #
straight-curve $-1 14.141415514275673 3.061515884555943146e-16 3.5 -1 0 0 I I #
point $-1 14.141415514275673 3.061515884555943146e-16 3.5 #
edge $-1 $262 0 $263 3.141592653589793116 $287 $313 forward 7 unknown #
point $-1 14.141415514275673 0 8.5 #
edge $-1 $238 2.524354896707233714e-30 $239 3.141592653589790007 $288 $314 forward 7 unknown #
face $-1 $273 $267 $2 $-1 $315 forward single #
ellipse-curve $-1 8 -5.551115123125782702e-16 6 1 0 0 0 8.306479419226131533e-16 -2.25 1 I I #
cone-surface $-1 -0.4749999999999999778 0 6 1 0 0 0 0 2.25 1 I I 0 1 2.25 forward I I I I #
face $-1 $316 $317 $2 $-1 $318 forward single #
loop $-1 $-1 $319 $276 #
cone-surface $-1 0.25 0 6 1 0 0 0 0 0.1999999999999999833 1 I I 0 1 0.1999999999999999833 forward I I I I #
coedge $-1 $283 $320 $321 $322 forward $277 $-1 #
coedge $-1 $321 $279 $280 $307 forward $251 $-1 #
coedge $-1 $279 $321 $323 $324 reversed $251 $-1 #
coedge $-1 $320 $283 $279 $306 reversed $277 $-1 #
edge $-1 $325 0 $285 2.057192782939466724 $279 $326 forward 7 unknown #
edge $-1 $285 -2.51758399199801339e-31 $308 3.141592653589793116 $303 $327 forward 7 unknown #
vertex $-1 $322 $328 #
ellipse-curve $-1 14.14141551427567478 -5.510728592200704564e-16 8.250000000000001776 -4.223094628432486103e-31 1 2.449212707644744656e-16 -1.776356839400250465e-15 -6.123031769111817266e-17 0.2499999999999982236 1 I I #
ellipse-curve $-1 14.39133105709305305 0 6 -1 0 0 0 2.763321548303330312e-16 -2.256497804113251959 1 I I #
point $-1 14.39133105709305482 2.763321548303324888e-16 3.743502195886748041 #
face $-1 $296 $289 $2 $-1 $329 forward single #
ellipse-curve $-1 14.141415514275673 0 6 1 0 0 0 3.061515884555943146e-16 -2.5 1 I I #
ellipse-curve $-1 14.13500000000001222 -3.774758283725532237e-15 6 1 0 0 0 4.080909872181126552e-15 -2.500000000000003997 1 I I #
cone-surface $-1 -46.21499999999996788 0 6 -1 0 0 0 0 0.04074979625101875919 1 I I -0.04071600487586384681 0.9991707596536983926 0.04074979625101875919 forward I I I I #
face $-1 $330 $331 $2 $-1 $332 forward single #
loop $-1 $-1 $333 $299 #
cone-surface $-1 0.25 0 6 1 0 0 0 0 0.1999999999999999833 1 I I 0 1 0.1999999999999999833 forward I I I I #
coedge $-1 $334 $335 $336 $337 forward $300 $-1 #
coedge $-1 $302 $305 $335 $338 reversed $277 $-1 #
coedge $-1 $304 $303 $302 $322 reversed $251 $-1 #
edge $-1 $339 0 $308 2.057192782939466724 $321 $340 forward 7 unknown #
coedge $-1 $333 $336 $304 $324 forward $317 $-1 #
edge $-1 $325 0 $339 3.141592653589793116 $323 $341 forward 7 unknown #
vertex $-1 $338 $342 #
straight-curve $-1 14.44479999999999897 2.449212707644612521e-17 5.800000000000004263 -0.02599121645300729935 1.224192646612530787e-16 -0.9996621712695210604 I I #
ellipse-curve $-1 14.39133105709305305 0 6 1 0 0 0 2.763321548303330312e-16 -2.256497804113251959 1 I I #
point $-1 14.39133105709305482 -5.526643096606649777e-16 8.256497804113251959 #
cone-surface $-1 -0.4749999999999999778 0 6 1 0 0 0 0 2.5 1 I I 0 1 2.5 forward I I I I #
face $-1 $343 $344 $2 $-1 $345 forward single #
loop $-1 $-1 $346 $316 #
torus-surface $-1 14.75 0 5.75 0 1 0 0.25 0.1999999999999999833 0 0 -1 forward_v I I I I #
coedge $-1 $347 $323 $348 $349 forward $317 $-1 #
coedge $-1 $348 $319 $350 $351 reversed $300 $-1 #
coedge $-1 $319 $348 $320 $338 forward $300 $-1 #
coedge $-1 $323 $347 $319 $337 reversed $317 $-1 #
edge $-1 $325 3.552713678800500929e-15 $352 0.3052000000000045787 $319 $353 forward 7 unknown #
edge $-1 $339 0 $325 3.141592653589793116 $335 $354 forward 7 unknown #
vertex $-1 $338 $355 #
straight-curve $-1 14.44479999999999897 -4.898425415289225043e-17 6.199999999999995737 -0.02599121645300729935 -2.448385293225061574e-16 0.9996621712695210604 I I #
ellipse-curve $-1 14.44479999999999897 -2.081668171172168513e-17 6 1 0 0 0 4.530880878816781035e-17 -0.1999999999999957367 1 I I #
point $-1 14.44479999999999897 2.449212707644612521e-17 5.800000000000004263 #
face $-1 $356 $357 $2 $-1 $358 forward single #
loop $-1 $-1 $359 $330 #
torus-surface $-1 14.75 0 5.75 0 1 0 0.25 0.1999999999999999833 0 0 -1 forward_v I I I I #
coedge $-1 $360 $361 $362 $363 forward $331 $-1 #
coedge $-1 $336 $333 $361 $364 reversed $317 $-1 #
coedge $-1 $335 $334 $333 $349 reversed $300 $-1 #
edge $-1 $339 3.552713678800500929e-15 $365 0.3052000000000045787 $348 $366 forward 7 unknown #
coedge $-1 $359 $362 $334 $351 forward $344 $-1 #
edge $-1 $365 0 $352 3.141592653589786899 $334 $367 forward 7 unknown #
vertex $-1 $351 $368 #
straight-curve $-1 14.44479999999999542 -2.021278110164725867e-16 5.799999999999999822 1 2.910152096003005169e-16 0 I I #
ellipse-curve $-1 14.44479999999999897 -6.938893903907228378e-18 6 1 0 0 0 -4.204536024898502205e-17 0.1999999999999957367 1 I I #
point $-1 14.44479999999999897 -4.898425415289225043e-17 6.199999999999995737 #
face $-1 $369 $370 $2 $-1 $371 forward single #
loop $-1 $-1 $372 $343 #
cone-surface $-1 15 0 5.75 0 0 -1 0.1999999999999999833 0 0 1 I I 0 1 0.1999999999999999833 forward I I I I #
coedge $-1 $373 $350 $374 $375 forward $344 $-1 #
coedge $-1 $374 $346 $376 $377 reversed $331 $-1 #
coedge $-1 $346 $374 $347 $364 forward $331 $-1 #
coedge $-1 $350 $373 $346 $363 reversed $344 $-1 #
edge $-1 $365 0 $378 1.570796326794896558 $362 $379 forward 7 unknown #
edge $-1 $352 0 $365 3.141592653589787787 $347 $380 forward 7 unknown #
vertex $-1 $349 $381 #
straight-curve $-1 14.44479999999999542 0 6.200000000000000178 1 0 0 I I #
ellipse-curve $-1 14.75 6.036837696399288689e-16 6 1 0 0 0 -6.036837696399288689e-16 0.2000000000000001776 1 I I #
point $-1 14.75 -2.44921270764475427e-17 5.799999999999999822 #
face $-1 $312 $382 $2 $-1 $383 forward single #
loop $-1 $-1 $384 $356 #
cone-surface $-1 15 0 5.75 0 0 -1 0.1999999999999999833 0 0 1 I I 0 1 0.1999999999999999833 forward I I I I #
coedge $-1 $385 $386 $387 $388 forward $357 $-1 #
coedge $-1 $362 $359 $386 $389 reversed $344 $-1 #
coedge $-1 $361 $360 $359 $375 reversed $331 $-1 #
edge $-1 $352 0 $390 1.570796326794896558 $359 $391 forward 7 unknown #
coedge $-1 $384 $387 $360 $377 forward $370 $-1 #
edge $-1 $390 0 $378 3.14159265358979356 $360 $392 forward 7 unknown #
vertex $-1 $363 $393 #
ellipse-curve $-1 14.75 0 5.75 0 1 0 0 0 0.4500000000000001776 1 I I #
ellipse-curve $-1 14.75 -5.68989300120392727e-16 6 1 0 0 0 5.444971730439452212e-16 -0.2000000000000001776 1 I I #
point $-1 14.75 0 6.200000000000000178 #
loop $-1 $-1 $394 $369 #
plane-surface $-1 15 0 0 0 0 -1 1 0 0 forward_v I I I I #
coedge $-1 $395 $376 $396 $397 forward $370 $-1 #
coedge $-1 $396 $372 $398 $399 reversed $357 $-1 #
coedge $-1 $372 $396 $373 $389 forward $357 $-1 #
coedge $-1 $376 $395 $372 $388 reversed $370 $-1 #
edge $-1 $390 0 $400 5.75 $372 $401 forward 7 unknown #
edge $-1 $378 0 $390 3.141592653589792672 $373 $402 forward 7 unknown #
vertex $-1 $389 $403 #
ellipse-curve $-1 14.75 -2.44921270764475427e-17 5.75 0 1 0 0 0 0.04999999999999982236 1 I I #
ellipse-curve $-1 15 0 5.75 0 0 -1 -0.1999999999999992895 -1.133099690464600585e-16 0 1 I I #
point $-1 15.19999999999999929 0 5.75 #
coedge $-1 $398 $398 $395 $404 forward $382 $-1 #
coedge $-1 $387 $384 $394 $404 reversed $370 $-1 #
coedge $-1 $386 $385 $384 $397 reversed $357 $-1 #
edge $-1 $378 0 $405 5.75 $396 $406 forward 7 unknown #
coedge $-1 $394 $394 $385 $399 forward $382 $-1 #
edge $-1 $405 0 $400 3.141592653589800221 $398 $407 forward 7 unknown #
vertex $-1 $399 $408 #
straight-curve $-1 14.80000000000000071 -1.133099690464600585e-16 5.75 0 0 -1 I I #
ellipse-curve $-1 15 0 5.75 0 0 -1 0.1999999999999992895 0 0 1 I I #
point $-1 14.80000000000000071 -1.133099690464600585e-16 5.75 #
edge $-1 $400 0 $405 3.141592653589800666 $394 $409 forward 7 unknown #
vertex $-1 $399 $410 #
straight-curve $-1 15.19999999999999929 0 5.75 0 0 -1 I I #
ellipse-curve $-1 15 -7.424616477180734364e-16 0 0 0 -1 0.1999999999999992895 7.424616477180734364e-16 0 1 I I #
point $-1 14.80000000000000071 0 0 #
ellipse-curve $-1 15 7.702172233337023499e-16 0 0 0 -1 -0.1999999999999992895 -7.702172233337023499e-16 0 1 I I #
point $-1 15.19999999999999929 0 0 #
End-of-ACIS-data 