600 0 1 0           
102 GICL Pro/E ACIS Translator - Source: f:/data5/repository/PTC/V18/bboxrev2/boombox/right_mesh.prt - 6 0 13 ACIS 6.0.3 NT 24 Thu Apr 04 13:43:06 2002 
1 9.9999999999999995e-007 1e-010 
body $-1 $1 $-1 $-1 #
lump $-1 $-1 $2 $0 #
shell $-1 $-1 $-1 $3 $-1 $1 #
face $-1 $4 $5 $2 $-1 $6 forward single #
face $-1 $7 $8 $2 $-1 $9 reversed single #
loop $-1 $-1 $10 $3 #
spline-surface $-1 forward { exactsur full nurbs 3 3 both open open none none 2 2 
	0 3 1 3 
	0 3 1 3 
	0 25 105.6341951940978 1 
	106.7339375813802 25 105.6341951940978 1 
	166.66666666666669 24.999999999999989 105.89502036555911 1 
	250 25 106.025432954076 1 
	0 75 104.4940718267882 1 
	101.09538438587479 75 104.4940718267882 1 
	166.66666581895618 75 104.6679552798135 1 
	250 75 104.7548970081836 1 
	0 125 103.3539485140862 1 
	95.456831190297009 125 103.3539485140862 1 
	166.66666497124561 125 103.44089023252219 1 
	250 125 103.484361092669 1 
	0 175 102.2138251467766 1 
	89.818277994791657 175 102.2138251467766 1 
	166.6666641235351 175 102.2138251467767 1 
	250 175 102.2138251467766 1 
	0 
	0 
	0 
	0 
	0 
	0 
	0 
	F 1 F 0 F 1 F 0 } I I I I #
face $-1 $11 $12 $2 $-1 $13 forward single #
loop $-1 $-1 $14 $4 #
plane-surface $-1 71.169002996840163 107 0 0.98480775301220813 -0.17364817766693005 0 -0.17364817766693005 -0.98480775301220813 0 forward_v I I I I #
coedge $-1 $15 $15 $16 $17 forward $5 $18 #
face $-1 $-1 $19 $2 $-1 $20 reversed single #
loop $-1 $-1 $21 $7 #
spline-surface $-1 forward { sweepsur angled 
	intcurve forward { exactcur full nurbs 3 open 8 
	0 3 0.16387870674693178 2 0.37669406311131703 2 0.48077719765027666 2 0.59116277893608449 2 
	0.75658408783871667 2 0.92964356096193801 2 1 3 
	71.169002996840149 107 105.26898603575832 1 
	79.36155916402366 109.91732338651831 105.26898603575832 1 
	97.414750869195558 117.85668337425663 105.26898603575832 1 
	141.86474452654568 131.54161007260905 105.26898603575832 1 
	169.1432538285232 135.92411677717911 105.26898603575832 1 
	185.02160900692246 114.61030250699541 105.26898603575832 1 
	186.26242654826993 103.13792209377101 105.26898603575832 1 
	187.31189112136286 79.260516740349658 105.26898603575832 1 
	187.02926777868825 66.841082325394666 105.26898603575832 1 
	172.64639927480488 47.973799639473846 105.26898603575832 1 
	151.72725799532543 47.590460373861688 105.26898603575832 1 
	114.73980028691112 47.559458315808982 105.26898603575832 1 
	98.940066283371976 47.946581946106015 105.26898603575832 1 
	75.75054640482783 52.113976268666562 105.26898603575832 1 
	68.934326169237124 53.7442257055434 105.26898603575832 1 
	62 55 105.26898603575832 1 
	0 
	null_surface 
	null_surface 
	nullbs 
	nullbs 
	I I 
	0 
	0 
	5 0.37669406311131703 0.48077719765027666 0.59116277893608449 0.75658408783871667 0.92964356096193801 
	F 1 F 0 } I I 
	straight 0 0 0 0 0 -1 I I 
	angled 
	3.7878853764904704e-031 1.5853811060173074e-031 -1 
	0 0 105.26898603575832 
	0 -1 0 
	-1 0 0 
	0 0 -1 
	-105.26898603575832 -100.27358731316822 
	0 0 11 VEC(0,-1,0) 
	0 
	1 0 
	0 
	55 VEC(0.57735026918963,0.57735026918963,0.57735026918963) 
	0 
	full nubs 3 3 open open none none 34 2 
	0 3 0.03125 2 0.0625 2 0.09375 2 0.140625 2 
	0.1875 2 0.234375 2 0.28125 2 0.3125 2 0.34375 2 
	0.375 2 0.390625 2 0.40625 2 0.4375 2 0.46875 2 
	0.484375 2 0.5 2 0.53125 2 0.5625 2 0.578125 2 
	0.59375 2 0.609375 2 0.625 2 0.640625 2 0.65625 2 
	0.6875 2 0.734375 1 0.7578125 2 0.7734375 1 0.8125 2 
	0.890625 2 0.921875 1 0.9375 2 1 3 
	-105.26898603575832 3 -100.27358731316822 3 
	71.169002996840149 107 105.26898603575832 
	72.732387187019057 107.55688805202939 105.26898603575832 
	74.651078512551564 108.29479333198664 105.26898603575829 
	79.092766916852739 110.04153130624563 105.26898603575829 
	81.610022648823644 111.04779177144223 105.26898603575832 
	87.128765141974213 113.23312267463052 105.26898603575832 
	90.125652312838056 114.41055385443882 105.26898603575981 
	98.073065621463158 117.44749746801939 105.26898603575611 
	103.24470601152947 119.35236844519513 105.26898603575832 
	114.00077738537473 122.99954210646267 105.26898603575832 
	119.58259057049881 124.74288454421516 105.2689860357561 
	130.75503981687154 127.73690435371425 105.26898603576053 
	136.34562703158724 128.99072066367739 105.26898603576501 
	147.13165661955082 130.67559144462433 105.26898603575168 
	152.32961909837655 131.11188403842294 105.2689860357561 
	160.32696276389146 130.87832285148397 105.2689860357598 
	163.35114691568984 130.53278385593563 105.2689860357598 
	168.92314845617571 129.22957630523246 105.26898603575684 
	171.47550030648955 128.27773225925668 105.26898603575832 
	175.98376251997615 125.66379716615427 105.26898603575832 
	177.94534910124818 124.00846359911743 105.26898603575832 
	180.35034181479097 120.91918991654249 105.26898603575832 
	181.06330684048589 119.78935760596633 105.26898603575832 
	182.32610418346684 117.35045025851937 105.26898603575832 
	182.87917968633559 116.04494339597697 105.26898603575832 
	184.32779275583022 111.90523559030213 105.26898603575832 
	185.0206415019187 108.85624215092832 105.26898603575535 
	186.02720526703888 102.4067684600771 105.26898603576126 
	186.34451823961354 99.009620829687222 105.26898603575832 
	186.66905167681281 93.828846241131515 105.26898603575832 
	186.75372946527466 92.088170473045679 105.26898603575832 
	186.88981322935126 88.608134918751958 105.26898603575832 
	186.93879230213921 86.868674472975968 105.26898603575982 
	186.98595660651233 81.695386948597786 105.26898603575539 
	186.88814075197391 78.30494102868937 105.26898603575684 
	186.21588331793382 71.872138405946373 105.2689860357598 
	185.64598239976331 68.826462619957056 105.26898603576129 
	184.27385234910693 64.690751467816995 105.26898603575685 
	183.73272509235477 63.382253689439864 105.26898603575683 
	182.44951450140189 60.939794507384249 105.26898603575978 
	181.71059965183323 59.803093323071046 105.26898603575683 
	180.00764700714669 57.73070156808371 105.26898603575978 
	179.05059156896573 56.788785080122743 105.2689860357583 
	176.9430635853688 55.082739453071873 105.2689860357583 
	175.79623058950685 54.315263964136165 105.26898603575906 
	173.33514729870123 52.939952454641173 105.26898603575758 
	172.02404676100414 52.329111959537741 105.26898603575982 
	169.26042819467963 51.248922557217284 105.26898603575687 
	167.8105701309961 50.776911050755388 105.26898603575981 
	163.28786941577457 49.545892092458921 105.26898603575538 
	160.04841075798299 48.964938029883349 105.26898603575684 
	151.63565025121594 47.943700172148795 105.26898603576053 
	143.64697410321651 47.598215150602343 105.26898603575439 
	135.80355748615665 47.57635760457373 105.26898603576169 
	131.54533507568371 47.574150417170515 105.26898603575614 
	125.67094780599481 47.582900851573775 105.26898603576106 
	120.0705331685638 47.652895899897153 105.26898603575833 
	108.35854699566177 47.972523275216915 105.26898603575833 
	100.93348266838275 48.409678258601353 105.26898603575462 
	90.587500468600012 49.618739254000623 105.2689860357598 
	86.162048369119162 50.237132908141348 105.26898603575798 
	81.697792874905744 51.041257580497508 105.26898603575832 
	74.226646288859101 52.473818674536616 105.26898603575832 
	68.159846915857102 53.883980959093108 105.26898603575832 
	62 55 105.26898603575832 
	71.169002996840149 107 103.60385312817301 
	72.732387187019057 107.55688805202939 103.60385312817301 
	74.651078512551564 108.29479333198664 103.60385312817299 
	79.092766916852739 110.04153130624563 103.60385312817299 
	81.610022648823644 111.04779177144223 103.60385312817301 
	87.128765141974213 113.23312267463052 103.60385312817301 
	90.125652312838056 114.41055385443882 103.60385312817451 
	98.073065621463158 117.44749746801939 103.60385312817081 
	103.24470601152947 119.35236844519513 103.60385312817301 
	114.00077738537473 122.99954210646267 103.60385312817301 
	119.58259057049881 124.74288454421516 103.6038531281708 
	130.75503981687154 127.73690435371425 103.60385312817523 
	136.34562703158724 128.99072066367739 103.60385312817971 
	147.13165661955082 130.67559144462433 103.60385312816638 
	152.32961909837655 131.11188403842294 103.6038531281708 
	160.32696276389146 130.87832285148397 103.60385312817449 
	163.35114691568984 130.53278385593563 103.60385312817449 
	168.92314845617571 129.22957630523246 103.60385312817154 
	171.47550030648955 128.27773225925668 103.60385312817301 
	175.98376251997615 125.66379716615427 103.60385312817301 
	177.94534910124818 124.00846359911743 103.60385312817301 
	180.35034181479097 120.91918991654249 103.60385312817301 
	181.06330684048589 119.78935760596633 103.60385312817301 
	182.32610418346684 117.35045025851937 103.60385312817301 
	182.87917968633559 116.04494339597697 103.60385312817301 
	184.32779275583022 111.90523559030213 103.60385312817301 
	185.0206415019187 108.85624215092832 103.60385312817004 
	186.02720526703888 102.4067684600771 103.60385312817596 
	186.34451823961354 99.009620829687222 103.60385312817301 
	186.66905167681281 93.828846241131515 103.60385312817301 
	186.75372946527466 92.088170473045679 103.60385312817301 
	186.88981322935126 88.608134918751958 103.60385312817301 
	186.93879230213921 86.868674472975968 103.60385312817452 
	186.98595660651233 81.695386948597786 103.60385312817009 
	186.88814075197391 78.30494102868937 103.60385312817154 
	186.21588331793382 71.872138405946373 103.60385312817449 
	185.64598239976331 68.826462619957056 103.60385312817598 
	184.27385234910693 64.690751467816995 103.60385312817155 
	183.73272509235477 63.382253689439864 103.60385312817152 
	182.44951450140189 60.939794507384249 103.60385312817448 
	181.71059965183323 59.803093323071046 103.60385312817152 
	180.00764700714669 57.73070156808371 103.60385312817448 
	179.05059156896573 56.788785080122743 103.603853128173 
	176.9430635853688 55.082739453071873 103.603853128173 
	175.79623058950685 54.315263964136165 103.60385312817375 
	173.33514729870123 52.939952454641173 103.60385312817228 
	172.02404676100414 52.329111959537741 103.60385312817452 
	169.26042819467963 51.248922557217284 103.60385312817156 
	167.8105701309961 50.776911050755388 103.60385312817451 
	163.28786941577457 49.545892092458921 103.60385312817007 
	160.04841075798299 48.964938029883349 103.60385312817154 
	151.63565025121594 47.943700172148795 103.60385312817523 
	143.64697410321651 47.598215150602343 103.60385312816909 
	135.80355748615665 47.57635760457373 103.60385312817638 
	131.54533507568371 47.574150417170515 103.60385312817084 
	125.67094780599481 47.582900851573775 103.60385312817576 
	120.0705331685638 47.652895899897153 103.60385312817303 
	108.35854699566177 47.972523275216915 103.60385312817303 
	100.93348266838275 48.409678258601353 103.60385312816932 
	90.587500468600012 49.618739254000623 103.60385312817449 
	86.162048369119162 50.237132908141348 103.60385312817267 
	81.697792874905744 51.041257580497508 103.60385312817301 
	74.226646288859101 52.473818674536616 103.60385312817301 
	68.159846915857102 53.883980959093108 103.60385312817301 
	62 55 103.60385312817301 
	71.169002996840149 107 101.93872022075352 
	72.732387187019057 107.55688805202939 101.93872022075352 
	74.651078512551564 108.29479333198664 101.9387202207535 
	79.092766916852739 110.04153130624563 101.9387202207535 
	81.610022648823644 111.04779177144223 101.93872022075352 
	87.128765141974213 113.23312267463052 101.93872022075352 
	90.125652312838056 114.41055385443882 101.93872022075502 
	98.073065621463158 117.44749746801939 101.93872022075132 
	103.24470601152947 119.35236844519513 101.93872022075352 
	114.00077738537473 122.99954210646267 101.93872022075352 
	119.58259057049881 124.74288454421516 101.93872022075131 
	130.75503981687154 127.73690435371425 101.93872022075574 
	136.34562703158724 128.99072066367739 101.93872022076022 
	147.13165661955082 130.67559144462433 101.93872022074689 
	152.32961909837655 131.11188403842294 101.93872022075131 
	160.32696276389146 130.87832285148397 101.938720220755 
	163.35114691568984 130.53278385593563 101.938720220755 
	168.92314845617571 129.22957630523246 101.93872022075205 
	171.47550030648955 128.27773225925668 101.93872022075352 
	175.98376251997615 125.66379716615427 101.93872022075352 
	177.94534910124818 124.00846359911743 101.93872022075352 
	180.35034181479097 120.91918991654249 101.93872022075352 
	181.06330684048589 119.78935760596633 101.93872022075352 
	182.32610418346684 117.35045025851937 101.93872022075352 
	182.87917968633559 116.04494339597697 101.93872022075352 
	184.32779275583022 111.90523559030213 101.93872022075352 
	185.0206415019187 108.85624215092832 101.93872022075055 
	186.02720526703888 102.4067684600771 101.93872022075647 
	186.34451823961354 99.009620829687222 101.93872022075352 
	186.66905167681281 93.828846241131515 101.93872022075352 
	186.75372946527466 92.088170473045679 101.93872022075352 
	186.88981322935126 88.608134918751958 101.93872022075352 
	186.93879230213921 86.868674472975968 101.93872022075503 
	186.98595660651233 81.695386948597786 101.9387202207506 
	186.88814075197391 78.30494102868937 101.93872022075205 
	186.21588331793382 71.872138405946373 101.938720220755 
	185.64598239976331 68.826462619957056 101.93872022075649 
	184.27385234910693 64.690751467816995 101.93872022075206 
	183.73272509235477 63.382253689439864 101.93872022075203 
	182.44951450140189 60.939794507384249 101.93872022075499 
	181.71059965183323 59.803093323071046 101.93872022075203 
	180.00764700714669 57.73070156808371 101.93872022075499 
	179.05059156896573 56.788785080122743 101.93872022075351 
	176.9430635853688 55.082739453071873 101.93872022075351 
	175.79623058950685 54.315263964136165 101.93872022075426 
	173.33514729870123 52.939952454641173 101.93872022075278 
	172.02404676100414 52.329111959537741 101.93872022075503 
	169.26042819467963 51.248922557217284 101.93872022075207 
	167.8105701309961 50.776911050755388 101.93872022075502 
	163.28786941577457 49.545892092458921 101.93872022075058 
	160.04841075798299 48.964938029883349 101.93872022075205 
	151.63565025121594 47.943700172148795 101.93872022075574 
	143.64697410321651 47.598215150602343 101.9387202207496 
	135.80355748615665 47.57635760457373 101.93872022075689 
	131.54533507568371 47.574150417170515 101.93872022075135 
	125.67094780599481 47.582900851573775 101.93872022075627 
	120.0705331685638 47.652895899897153 101.93872022075354 
	108.35854699566177 47.972523275216915 101.93872022075354 
	100.93348266838275 48.409678258601353 101.93872022074983 
	90.587500468600012 49.618739254000623 101.938720220755 
	86.162048369119162 50.237132908141348 101.93872022075318 
	81.697792874905744 51.041257580497508 101.93872022075352 
	74.226646288859101 52.473818674536616 101.93872022075352 
	68.159846915857102 53.883980959093108 101.93872022075352 
	62 55 101.93872022075352 
	71.169002996840149 107 100.27358731316822 
	72.732387187019057 107.55688805202939 100.27358731316822 
	74.651078512551564 108.29479333198664 100.27358731316819 
	79.092766916852739 110.04153130624563 100.27358731316819 
	81.610022648823644 111.04779177144223 100.27358731316822 
	87.128765141974213 113.23312267463052 100.27358731316822 
	90.125652312838056 114.41055385443882 100.27358731316971 
	98.073065621463158 117.44749746801939 100.27358731316602 
	103.24470601152947 119.35236844519513 100.27358731316822 
	114.00077738537473 122.99954210646267 100.27358731316822 
	119.58259057049881 124.74288454421516 100.273587313166 
	130.75503981687154 127.73690435371425 100.27358731317044 
	136.34562703158724 128.99072066367739 100.27358731317491 
	147.13165661955082 130.67559144462433 100.27358731316158 
	152.32961909837655 131.11188403842294 100.273587313166 
	160.32696276389146 130.87832285148397 100.2735873131697 
	163.35114691568984 130.53278385593563 100.2735873131697 
	168.92314845617571 129.22957630523246 100.27358731316674 
	171.47550030648955 128.27773225925668 100.27358731316822 
	175.98376251997615 125.66379716615427 100.27358731316822 
	177.94534910124818 124.00846359911743 100.27358731316822 
	180.35034181479097 120.91918991654249 100.27358731316822 
	181.06330684048589 119.78935760596633 100.27358731316822 
	182.32610418346684 117.35045025851937 100.27358731316822 
	182.87917968633559 116.04494339597697 100.27358731316822 
	184.32779275583022 111.90523559030213 100.27358731316822 
	185.0206415019187 108.85624215092832 100.27358731316525 
	186.02720526703888 102.4067684600771 100.27358731317116 
	186.34451823961354 99.009620829687222 100.27358731316822 
	186.66905167681281 93.828846241131515 100.27358731316822 
	186.75372946527466 92.088170473045679 100.27358731316822 
	186.88981322935126 88.608134918751958 100.27358731316822 
	186.93879230213921 86.868674472975968 100.27358731316973 
	186.98595660651233 81.695386948597786 100.27358731316529 
	186.88814075197391 78.30494102868937 100.27358731316674 
	186.21588331793382 71.872138405946373 100.2735873131697 
	185.64598239976331 68.826462619957056 100.27358731317119 
	184.27385234910693 64.690751467816995 100.27358731316676 
	183.73272509235477 63.382253689439864 100.27358731316673 
	182.44951450140189 60.939794507384249 100.27358731316968 
	181.71059965183323 59.803093323071046 100.27358731316673 
	180.00764700714669 57.73070156808371 100.27358731316968 
	179.05059156896573 56.788785080122743 100.27358731316821 
	176.9430635853688 55.082739453071873 100.27358731316821 
	175.79623058950685 54.315263964136165 100.27358731316896 
	173.33514729870123 52.939952454641173 100.27358731316748 
	172.02404676100414 52.329111959537741 100.27358731316973 
	169.26042819467963 51.248922557217284 100.27358731316677 
	167.8105701309961 50.776911050755388 100.27358731316971 
	163.28786941577457 49.545892092458921 100.27358731316528 
	160.04841075798299 48.964938029883349 100.27358731316674 
	151.63565025121594 47.943700172148795 100.27358731317044 
	143.64697410321651 47.598215150602343 100.2735873131643 
	135.80355748615665 47.57635760457373 100.27358731317159 
	131.54533507568371 47.574150417170515 100.27358731316605 
	125.67094780599481 47.582900851573775 100.27358731317096 
	120.0705331685638 47.652895899897153 100.27358731316824 
	108.35854699566177 47.972523275216915 100.27358731316824 
	100.93348266838275 48.409678258601353 100.27358731316453 
	90.587500468600012 49.618739254000623 100.2735873131697 
	86.162048369119162 50.237132908141348 100.27358731316788 
	81.697792874905744 51.041257580497508 100.27358731316822 
	74.226646288859101 52.473818674536616 100.27358731316822 
	68.159846915857102 53.883980959093108 100.27358731316822 
	62 55 100.27358731316822 
	0.001 
	0 
	0 
	0 
	0 
	0 
	0 
	} I I I I #
coedge $-1 $22 $16 $23 $24 reversed $8 $-1 #
tcoedge-coedge $-1 $10 $10 $25 $26 forward $5 $27 0 1.0000000000000002 #
coedge $-1 $14 $28 $10 $17 reversed $8 $-1 #
edge $-1 $29 0 $30 1 $10 $31 forward 7 unknown #
pcurve $-1 0 forward { exppc nurbs 3 open 4 
	0 3 0.33562525889281736 1 0.66895880967186239 1 1 3 
	0.26048153201504259 0.54666666666666675 1 
	0.25523972784932941 0.50670613022455391 0.99999999999999978 
	0.24497692422879508 0.42784506351516183 1.0000000000000002 
	0.23017302176997415 0.31227508411803218 1 
	0.22071953952661039 0.2370792274866084 1 
	0.21610166071829037 0.19999999999999998 1 
	0.001 
	spline forward { ref 0 } I I I I 
	} 0 0 #
loop $-1 $-1 $32 $11 #
spline-surface $-1 forward { exactsur full nurbs 3 3 both open open none none 2 2 
	0 3 1 3 
	0 3 1 3 
	0 24.931610375329623 102.63497481886068 1 
	106.73882370093037 24.931610375329623 102.63497481886068 1 
	166.67536759558487 24.926398419883135 102.89593217807737 1 
	250.00469333243257 24.923792536320949 103.02640471227662 1 
	0 74.931610377512214 101.49485145150132 1 
	101.09889992351604 74.931610377512243 101.49485145150292 1 
	166.67225474369985 74.926398246757017 101.66886013603379 1 
	250.00312889216653 74.92379247536266 101.75586631966077 1 
	0 124.93161037751223 100.35472813879932 1 
	95.45876663431585 124.93161037751224 100.3547281387991 1 
	166.66935357842064 124.92639817203178 100.44179210723168 1 
	250.00156444591406 124.92379244427639 100.485329180793 1 
	0 174.93161037532963 99.214604771539484 1 
	89.818277994791657 174.93161037532963 99.214604771539484 1 
	166.6666641235351 174.9263981704685 99.214727021524851 1 
	250 174.92379244306244 99.214793234931449 1 
	0 
	0 
	0 
	0 
	0 
	0 
	0 
	F 1 F 0 F 1 F 0 } I I I I #
coedge $-1 $33 $25 $28 $34 reversed $12 $35 #
coedge $-1 $28 $14 $32 $36 reversed $8 $-1 #
coedge $-1 $25 $33 $14 $24 forward $12 $37 #
edge $-1 $38 -4.2632564145606011e-014 $29 3.0007991879500224 $23 $39 forward 7 unknown #
tcoedge-coedge $-1 $21 $23 $15 $26 reversed $12 $40 -1.0000000000000002 0 #
tedge-edge $-1 $30 0 $29 1.0000000000000002 $15 $41 forward 7 unknown 0.15313860675496274 #
pcurve $-1 0 forward { exppc nurbs 3 open 45 
	0 3 0.023288493660595544 1 0.046486124839120596 1 0.069588225694370301 1 0.092601688481193586 1 
	0.11553358600567271 1 0.13839525463629795 1 0.16119614924132375 1 0.18394734036808877 1 0.20665246965268735 1 
	0.22932515018989122 1 0.25199960802843269 1 0.27468598098238139 1 0.29739039646838505 1 0.32011841263265173 1 
	0.34287886224075881 1 0.36567469198566438 1 0.38850627572819085 1 0.41137297883829282 1 0.43425104752888999 1 
	0.45710637118403774 1 0.4799069476311224 1 0.50265047670531793 1 0.52532750869599387 1 0.54793910968034565 1 
	0.57050172313029024 1 0.59303952753509293 1 0.61557699012426004 1 0.63813389246087882 1 0.66072222078589615 1 
	0.68335707510961097 1 0.70603852534513178 1 0.72875907174234456 1 0.75150850249483825 1 0.77426823719328042 1 
	0.79701434354517731 1 0.81972236014010957 1 0.84238300169569713 1 0.86500051490388186 1 0.88757834243618983 1 
	0.91011790005793025 1 0.93262027162786332 1 0.95509911769784295 1 0.97755995618313896 1 1.0000000000000002 3 
	0.21610166071829037 0.19999999999999998 1 
	0.23878946407890708 0.19089037584157589 1 
	0.28280565313572237 0.17536593785484206 1 
	0.34525792242951853 0.15874000421841528 0.99999999999999978 
	0.40298223662470628 0.15271178150916798 1.0000000000000002 
	0.45505910812525818 0.15062134535318411 1 
	0.50170586629488612 0.15041704066834785 1 
	0.54379435894927719 0.15070801968991299 1 
	0.58173819476780142 0.15325962880806293 1 
	0.61621733384506627 0.15901556648017154 1 
	0.64659883576445287 0.16869254527266264 1 
	0.6725255681083534 0.18253864542637854 1 
	0.69516782552135536 0.20239796786965189 1.0000000000000002 
	0.71227707851952415 0.22807613972448992 1.0000000000000002 
	0.72340359734078596 0.25800548950271585 0.99999999999999989 
	0.73053795256497323 0.29050654089213118 1 
	0.73491914249416723 0.32572886465423573 1 
	0.73720444417457676 0.36350139172343265 1 
	0.73790003528482007 0.40359741510380687 1 
	0.7374487861325234 0.44637132177018163 0.99999999999999989 
	0.73632542877125495 0.48991994786123283 0.99999999999999989 
	0.73391783987994952 0.53202755396727774 0.99999999999999978 
	0.72993365150388334 0.56983909680066014 1 
	0.72390911658485757 0.60389574694652237 1.0000000000000002 
	0.7156616038756598 0.63278753737537063 1 
	0.7049566545904925 0.65606139499099581 1 
	0.69183974161935791 0.67413435641566799 1.0000000000000002 
	0.67644341844077249 0.68797368053367425 1 
	0.65838650213156158 0.69813844390792801 0.99999999999999978 
	0.63722379331792967 0.70463830781295134 1 
	0.61334002761716866 0.7072533967110155 1.0000000000000002 
	0.58604604369618452 0.70591718946020021 1 
	0.55610483361095819 0.7005280737863635 1 
	0.52439887773686866 0.6914793234071287 1 
	0.49161029181727206 0.67929380107386828 1.0000000000000002 
	0.45897475066655924 0.66485513487206072 0.99999999999999978 
	0.42781796517481979 0.64927752004471695 1.0000000000000004 
	0.3996251626782692 0.63389280306466955 0.99999999999999989 
	0.37470668894117748 0.619415764903679 1 
	0.35246962482615762 0.6058827442718776 1 
	0.33265955868581409 0.5934011531262352 0.99999999999999978 
	0.31504936167682673 0.5820287777546973 1 
	0.29978729234768214 0.57202325856803693 1 
	0.28570012441946963 0.56275046084627744 1 
	0.27248866871408267 0.55409967262987481 1 
	0.2643742396013935 0.54904235761898368 1 
	0.26048153201504259 0.54666666666666675 1 
	0.001 
	spline forward { ref 0 } I I I I 
	} 0 0 #
coedge $-1 $16 $22 $21 $34 forward $8 $-1 #
tvertex-vertex $-1 $26 $42 2.8421709430404007e-014 #
tvertex-vertex $-1 $26 $43 2.929642751054232e-014 #
intcurve-curve $-1 forward { surfintcur full nurbs 3 open 4 
	0 3 0.3356023022915261 1 0.66893563428139446 1 1 3 
	71.169002996840163 107.00000000000001 103.78532637802547 1 
	70.112050374503482 101.00572380874469 103.92305779304688 1 
	68.026179711153034 89.17616343761145 104.194571296099 1.0000000000000002 
	64.969462649427641 71.840659537732847 104.59147046495463 1.0000000000000002 
	62.980674242390776 60.561680001838212 104.84923013882829 1 
	62 55 104.97619574375126 1 
	0.001 
	plane 71.169002996840163 107 0 0.98480775301220813 -0.17364817766693005 0 -0.17364817766693005 -0.98480775301220813 0 forward_v I I I I 
	spline forward { ref 0 } I I I I 
	nullbs 
	nurbs 3 open 4 
	0 3 0.33562525889281736 1 0.66895880967186239 1 1 3 
	0.26048153201504259 0.54666666666666675 1 
	0.25523972784932941 0.50670613022455391 0.99999999999999978 
	0.24497692422879508 0.42784506351516183 1.0000000000000002 
	0.23017302176997415 0.31227508411803218 1 
	0.22071953952661039 0.2370792274866084 1 
	0.21610166071829037 0.19999999999999998 1 
	
	I I 
	0 
	0 
	0 
	} I I #
coedge $-1 $44 $44 $22 $36 forward $19 $45 #
coedge $-1 $23 $21 $44 $46 reversed $12 $47 #
edge $-1 $48 -1.4210854715202004e-014 $30 3.000793047319803 $21 $49 forward 7 unknown #
pcurve $-1 0 forward { exppc nurbs 3 open 2 
	-3.000793047319803 3 1.4210854715202004e-014 3 
	1 -104.97619574375126 1 
	1 -103.97593139464463 1 
	1 -102.97566704553802 1 
	1 -101.97540269643142 1 
	0.001 
	spline forward { ref 1 } I I I I 
	} 0 0 #
edge $-1 $48 0 $38 1 $32 $50 forward 7 unknown #
pcurve $-1 0 forward { exppc nurbs 3 open 2 
	-4.2632564145606011e-014 3 3.0007991879500224 3 
	0 -100.78452719007545 1 
	0 -101.78479358605878 1 
	0 -102.78505998204213 1 
	0 -103.78532637802547 1 
	0.001 
	spline forward { ref 1 } I I I I 
	} 0 0 #
vertex $-1 $46 $51 #
straight-curve $-1 71.169002996840163 107.00000000000001 100.78452719007545 0 0 1 I I #
pcurve $-1 0 forward { exppc nurbs 3 open 45 
	-1.0000000000000002 3 -0.97755854849651969 1 -0.95510529508671471 1 -0.93264077970819903 1 -0.91015975671662164 1 
	-0.8876508868272327 1 -0.86511548121964199 1 -0.84255537940940262 1 -0.81997194745224078 1 -0.79736802241425275 1 
	-0.77475959361235214 1 -0.75217445997313925 1 -0.72963754374684875 1 -0.7071651588214225 1 -0.6847583326071931 1 
	-0.66239025463996137 1 -0.64000091957623129 1 -0.61754498000308788 1 -0.59500870735011135 1 -0.57238268237877432 1 
	-0.54964888267701362 1 -0.52678420805391191 1 -0.50377787195525958 1 -0.4806415371583922 1 -0.45739964004640787 1 
	-0.43406037832400512 1 -0.41068191585669633 1 -0.38732462125577538 1 -0.36403155567983692 1 -0.34080673500163328 1 
	-0.31765489070339548 1 -0.29458146974756649 1 -0.27159501087910731 1 -0.24873426354737938 1 -0.22603165057026742 1 
	-0.20347941178179285 1 -0.18102861152559857 1 -0.15862629093842395 1 -0.13621027383350759 1 -0.113748321351408 1 
	-0.091235379934486383 1 -0.068649173595107249 1 -0.045945286756706727 1 -0.023051592938728382 1 0 3 
	0 -103.78532637802547 1 
	0.0063524831700094726 -103.77767281831436 0.99999999999999978 
	0.018470324772894234 -103.76135133798998 1.0000000000000004 
	0.034457655854583262 -103.73332449878525 0.99999999999999978 
	0.049524320223614783 -103.70325772837892 1 
	0.064233351714622411 -103.67080334850588 1 
	0.079800964253677956 -103.63391561475812 0.99999999999999989 
	0.096025576034703478 -103.59344178360922 1 
	0.11311071757981979 -103.54958432267919 1 
	0.1312649622465456 -103.50271470480489 1 
	0.15095213379313974 -103.45298940525102 1.0000000000000002 
	0.17206001511343827 -103.40279916154761 1 
	0.19384131399156082 -103.35658430821016 1 
	0.2157710391555373 -103.31812635455113 1 
	0.23739101580199889 -103.29048578609701 0.99999999999999989 
	0.25857393834857745 -103.27557512662362 1 
	0.27896563751981346 -103.27487111943027 0.99999999999999989 
	0.29807271200530389 -103.28804002233201 1.0000000000000002 
	0.31651370224828818 -103.31503095992423 0.99999999999999978 
	0.33400459143019168 -103.3550613106331 1 
	0.35095776329070688 -103.40830459433984 0.99999999999999978 
	0.36793167710425195 -103.47692236098317 1 
	0.38526933944729685 -103.56445217357373 1 
	0.40315953748200767 -103.67240548863705 1 
	0.42165150044698801 -103.79912177911869 1.0000000000000002 
	0.44037537769310586 -103.93944062864151 0.99999999999999989 
	0.45997315808097683 -104.09525633591365 1 
	0.47957436673440973 -104.25612141379179 1 
	0.49873474308061672 -104.41399484469329 1 
	0.51705113660199054 -104.56170126708187 1 
	0.53504264099605325 -104.70024494374429 1.0000000000000002 
	0.55298715596239501 -104.82852751255581 0.99999999999999978 
	0.57125915865465515 -104.9455558499515 1 
	0.59069660267190549 -105.05123073162119 0.99999999999999989 
	0.61183355347115531 -105.1385251330295 1 
	0.63385860196689903 -105.20177530382828 0.99999999999999978 
	0.65545544658815713 -105.24120248177293 1.0000000000000002 
	0.67829125980718163 -105.26319294808553 1 
	0.70253746176066822 -105.26898603575832 1 
	0.72844982130223324 -105.26174818031895 1 
	0.75750961961136443 -105.24497066304885 1 
	0.79210625979745242 -105.22515600682401 1 
	0.83378923559097129 -105.19753524786201 0.99999999999999989 
	0.88344233259854721 -105.15558018356164 1 
	0.93959366533512312 -105.07781100819344 0.99999999999999978 
	0.97934417937558926 -105.01291761441786 1 
	1 -104.97619574375126 1 
	0.001 
	spline forward { ref 1 } I I I I 
	} 0 0 #
intcurve-curve $-1 forward { exactcur full nurbs 3 open 45 
	0 3 0.023532486595390058 1 0.046932051435361458 1 0.070198372184170729 1 0.093340104344520253 1 
	0.11637295514529816 1 0.13931648106827763 1 0.16218449583733452 1 0.18498913012780452 1 0.20773061665435344 1 
	0.23041604233228177 1 0.25306870381168717 1 0.27568870599338213 1 0.29828796409072061 1 0.3208876304740475 1 
	0.34350390768032857 1 0.36614331325531507 1 0.38880812792257236 1 0.41149870468405658 1 0.43419804837892273 1 
	0.45688213792812071 1 0.47952930717835718 1 0.50214082250235759 1 0.52471444907786591 1 0.54725752802363137 1 
	0.56978742313115427 1 0.5923235504566271 1 0.61488483788762738 1 0.63748523276932956 1 0.66012990912095848 1 
	0.68282875680702537 1 0.70557622487529181 1 0.72836052447237787 1 0.75116913521301643 1 0.77398200988177068 1 
	0.7967745188835218 1 0.81952209365254114 1 0.8422165005845873 1 0.86486356993103486 1 0.88746781036756517 1 
	0.91003127056284161 1 0.93255545913785942 1 0.95505541007552841 1 0.97753760532136924 1 1.0000000000000002 3 
	62 55 104.97619574375125 1 
	68.138282003747634 53.888385610323859 105.00696285615054 1 
	79.706987818694913 51.307904203257287 105.07786429147966 1 
	95.571450148050175 48.81220454258991 105.15566931531235 0.99999999999999978 
	109.75587378819471 47.907141940640862 105.19751926986532 1 
	122.24361399127558 47.593268484467337 105.22514059881364 0.99999999999999989 
	133.23663981915436 47.562551282035493 105.24495486151444 1.0000000000000002 
	143.03718257476598 47.60614624818357 105.26174101571176 0.99999999999999989 
	151.79117135324222 47.988772627812359 105.26898120517536 1 
	159.69263407649814 48.851920899989267 105.26322221845031 0.99999999999999989 
	166.62333092313412 50.3030225739911 105.24130506830804 1 
	172.51950703018625 52.378962019535088 105.20197717110432 0.99999999999999967 
	177.65529359017702 55.356238504237211 105.13885143031307 1.0000000000000002 
	181.52092577164103 59.207690422341244 105.05155219578114 0.99999999999999967 
	184.00889474399102 63.6984832597863 104.94576122452325 1.0000000000000004 
	185.57473223740877 68.574233417368262 104.82869018223246 0.99999999999999989 
	186.50062983285426 73.857874865600877 104.7003870827108 1 
	186.93573769076579 79.523933167703476 104.56182884916279 1.0000000000000002 
	186.99541052522576 85.538291870300114 104.41412539836141 0.99999999999999956 
	186.77957791571316 91.95531082921454 104.2561648780835 1.0000000000000002 
	186.40273843070017 98.489036039790633 104.09517632556219 1 
	185.72466964800833 104.80655620508766 103.9392409346919 1 
	184.68165916288612 110.47832270293208 103.79892764305571 0.99999999999999989 
	183.16004502976841 115.58738052313821 103.67216798634236 1.0000000000000002 
	181.11869230257952 119.92117740790096 103.56421381687984 0.99999999999999989 
	178.50297183634169 123.41166700050803 103.47672104277289 1.0000000000000002 
	175.32324153574444 126.12176387704581 103.40815378269278 1 
	171.60864408170184 128.19705302375857 103.35494304712168 0.99999999999999989 
	167.26733824469349 129.72129623139779 103.31494115826217 1.0000000000000002 
	162.19403991214753 130.69592016776966 103.28799088434889 0.99999999999999989 
	156.48146846657218 131.08801069145002 103.27486454217286 1 
	149.9654051838607 130.88754213814988 103.27558062501389 1 
	142.82617302200984 130.07926324049367 103.29047209673868 1 
	135.26893251061099 128.72206001736063 103.31809631033762 1 
	127.44845686526254 126.89433960808128 103.35654227658854 1 
	119.64954462616798 124.72860669890164 103.4027519378439 1 
	112.18004486355694 122.3919816670239 103.4529441717103 1 
	105.39200006652807 120.08420387003756 103.50268005282169 1.0000000000000002 
	99.362855567183203 117.9125538006802 103.54956073214427 1.0000000000000002 
	93.954072505216985 115.88254397703793 103.59342509542634 0.99999999999999989 
	89.108862903657581 114.01026930964981 103.63390357580907 1 
	84.777158745952661 112.30439216919986 103.67079458177133 1.0000000000000002 
	81.002072147238451 110.80350780420191 103.70325262819055 0.99999999999999989 
	77.498718956088055 109.41256091530978 103.73332036898276 1 
	74.194069556497396 108.1149219507984 103.76134668930315 0.99999999999999978 
	72.154054882382155 107.35077146179806 103.77779996209067 0.99999999999999978 
	71.169002996840135 107 103.78532637802547 1 
	0 
	null_surface 
	null_surface 
	nullbs 
	nullbs 
	I I 
	0 
	0 
	43 0.023532486595390058 0.046932051435361458 0.070198372184170729 0.093340104344520253 0.11637295514529816 0.13931648106827763 0.16218449583733452 0.18498913012780452 0.20773061665435344 0.23041604233228177 0.25306870381168717 0.27568870599338213 0.29828796409072061 0.3208876304740475 0.34350390768032857 0.36614331325531507 0.38880812792257236 0.41149870468405658 0.43419804837892273 0.45688213792812071 0.47952930717835718 0.50214082250235759 0.52471444907786591 0.54725752802363137 0.56978742313115427 0.5923235504566271 0.61488483788762738 0.63748523276932956 0.66012990912095848 0.68282875680702537 0.70557622487529181 0.72836052447237787 0.75116913521301643 0.77398200988177068 0.7967745188835218 0.81952209365254114 0.8422165005845873 0.86486356993103486 0.88746781036756517 0.91003127056284161 0.93255545913785942 0.95505541007552841 0.97753760532136924 
	F 1 F 0 } I I #
point $-1 71.169002996840135 107.00000000000001 103.78532637802547 #
point $-1 62 54.999999999999993 104.97619574375123 #
coedge $-1 $32 $32 $33 $46 forward $19 $52 #
pcurve $-1 0 forward { exppc nurbs 3 open 4 
	0 3 0.33104048151157972 1 0.66437403096052061 1 1 3 
	0.21610429942290066 0.20046027296003446 1 
	0.22072246971782436 0.23753925543781643 0.99999999999999989 
	0.23017663697038274 0.31273494059805351 1.0000000000000002 
	0.24498185243712312 0.4283055316340168 0.99999999999999978 
	0.25524573898511754 0.50716756375045535 1 
	0.26048813985434466 0.54712874951234025 1 
	0.001 
	spline forward { ref 4 } I I I I 
	} 0 0 #
edge $-1 $38 0 $48 1.0000000000000002 $44 $53 forward 7 unknown #
pcurve $-1 0 forward { exppc nurbs 3 open 45 
	-1.0000000000000002 3 -0.97695337337017163 1 -0.9540630175764534 1 -0.93136062254030882 1 -0.90877505233353206 1 
	-0.88626258000061842 1 -0.86380058728556408 1 -0.84138411508056044 1 -0.81898367873519518 1 -0.79653915104888617 1 
	-0.77399815513935977 1 -0.75131211942005094 1 -0.72846779806863471 1 -0.70548896371920233 1 -0.68241277843369219 1 
	-0.65924761050559222 1 -0.63600063169456478 1 -0.61267886928199577 1 -0.58928924877244893 1 -0.56588050433728065 1 
	-0.54252016698462413 1 -0.51927071443700024 1 -0.49614051810988824 1 -0.47315141634217917 1 -0.45030735876698968 1 
	-0.42759033612744524 1 -0.40497508500741064 1 -0.38244438075317588 1 -0.35999081099403041 1 -0.33760188049949014 1 
	-0.3152304114957446 1 -0.29281557470931074 1 -0.27033369518056871 1 -0.24778926707186799 1 -0.22520076335285899 1 
	-0.20259363787174545 1 -0.17999513892382613 1 -0.1574188300804481 1 -0.13486660631632941 1 -0.11233906250359837 1 
	-0.08983721352202878 1 -0.067361360110213875 1 -0.044899718287011114 1 -0.022446104473422102 1 0 3 
	1 -101.97540269643142 1 
	0.97945452649083231 -102.01187607647164 1 
	0.93993125250092757 -102.0763817319737 1 
	0.88423588538747477 -102.15386789073359 1 
	0.83487609513435213 -102.19588501846602 0.99999999999999978 
	0.79332901667019762 -102.22359064718526 1.0000000000000004 
	0.75879478096265185 -102.24336207713006 0.99999999999999978 
	0.72979778316843091 -102.26021647003587 1 
	0.70396738975088224 -102.26799499903936 1 
	0.67977772634160705 -102.26310697010786 0.99999999999999978 
	0.65696619977797743 -102.24231540150583 1 
	0.63549794355478606 -102.20454704453425 1 
	0.61366502865140793 -102.14381136499787 1.0000000000000002 
	0.5925468809270481 -102.05911502632567 0.99999999999999978 
	0.57291374048468302 -101.95452306635042 0.99999999999999978 
	0.55438392376944212 -101.83716294804604 1 
	0.53606231734201326 -101.70700790780832 1 
	0.51762135961290789 -101.56536348061968 1 
	0.49879929621056379 -101.4136478207584 0.99999999999999967 
	0.47908867085037349 -101.25119564902556 1.0000000000000004 
	0.45894852799024349 -101.08599337233257 0.99999999999999989 
	0.43891586304961294 -100.9271820467979 1.0000000000000002 
	0.41993293072395926 -100.78583898501934 0.99999999999999978 
	0.4013719228564136 -100.66001421495035 1 
	0.38364635887388737 -100.55465185818069 1 
	0.36660270791929572 -100.47017040088481 1 
	0.34995083205017402 -100.40391700939094 0.99999999999999978 
	0.33323466138746288 -100.3521546579652 1 
	0.3158277329826486 -100.3128775434068 0.99999999999999978 
	0.29728850081162206 -100.28629268921891 1.0000000000000002 
	0.27788539138257978 -100.27358731316822 1 
	0.25704455101978263 -100.27524103363945 1 
	0.23545169552818415 -100.2915683989897 0.99999999999999989 
	0.2135343970875111 -100.32073006244313 1.0000000000000002 
	0.19149585310105108 -100.36037415572916 1 
	0.1697931117821169 -100.40714408529919 0.99999999999999989 
	0.14890831236222701 -100.45723060804211 1 
	0.12958845258950702 -100.50620399762762 1 
	0.11180173803147395 -100.55214663213795 0.99999999999999989 
	0.095104223310399305 -100.59495674385448 1.0000000000000002 
	0.079267222746987831 -100.63439107597348 1 
	0.064073310110861245 -100.67034314073541 1 
	0.049664457359495713 -100.70214127370291 0.99999999999999978 
	0.034808519019678116 -100.73183869216314 1.0000000000000002 
	0.018890761844959199 -100.75992607646951 1.0000000000000002 
	0.0065302041357112404 -100.77661285846716 0.99999999999999978 
	0 -100.78452719007545 1 
	0.001 
	spline forward { ref 1 } I I I I 
	} 0 0 #
tvertex-vertex $-1 $46 $54 8.0702141443115829e-014 #
straight-curve $-1 62 54.999999999999993 101.97540269643143 0 0 1 I I #
intcurve-curve $-1 forward { surfintcur full nurbs 3 open 4 
	0 3 0.33106370111145267 1 0.66439703310104448 1 1 3 
	62 55 101.97540269643143 1 
	62.980663091655998 60.561616762878678 101.84843797140458 1 
	64.969437147319198 71.840514908088849 101.59067894971321 1 
	68.026154433207267 89.176020079257199 101.1937777355928 1 
	70.112039182336375 101.00566033481084 100.92226087028919 1 
	71.169002996840163 107.00000000000001 100.78452719007545 1 
	0.001 
	spline forward { ref 4 } I I I I 
	plane 71.169002996840163 107 0 0.98480775301220813 -0.17364817766693005 0 -0.17364817766693005 -0.98480775301220813 0 forward_v I I I I 
	nurbs 3 open 4 
	0 3 0.33104048151157972 1 0.66437403096052061 1 1 3 
	0.21610429942290066 0.20046027296003446 1 
	0.22072246971782436 0.23753925543781643 0.99999999999999989 
	0.23017663697038274 0.31273494059805351 1.0000000000000002 
	0.24498185243712312 0.4283055316340168 0.99999999999999978 
	0.25524573898511754 0.50716756375045535 1 
	0.26048813985434466 0.54712874951234025 1 
	
	nullbs 
	I I 
	0 
	0 
	0 
	} I I #
point $-1 71.169002996840192 107 100.78452719007541 #
pcurve $-1 0 forward { exppc nurbs 3 open 45 
	0 3 0.022444780728296233 1 0.044906131494506854 1 0.067382011705985054 1 0.089878767497943587 1 
	0.11241037189278816 1 0.1349788314218848 1 0.1575862843274794 1 0.18023681241412823 1 0.20293546139690077 1 
	0.22567586499784195 1 0.24843475726178696 1 0.27118876233562983 1 0.29391840319310425 1 0.31661096249187282 1 
	0.33925612253242776 1 0.36185101175267109 1 0.38441021321270952 1 0.40694616542363105 1 0.42947890514437548 1 
	0.45203321974145061 1 0.47463448004975395 1 0.49730268524706289 1 0.52004320637255508 1 0.5428481976865952 1 
	0.56571545917904753 1 0.5886106861355096 1 0.61149574349285907 1 0.63434370415792807 1 0.65715242749764369 1 
	0.67992123905609669 1 0.70265253716370146 1 0.72535615360099948 1 0.74803858358089959 1 0.77070879198268338 1 
	0.79337947872903236 1 0.81608464509894085 1 0.83883545471753662 1 0.86163473726460826 1 0.88449369979262671 1 
	0.9074221814068314 1 0.93043128986211643 1 0.95352739478662651 1 0.97671791034637623 1 1.0000000000000002 3 
	0.26048813985434466 0.54712874951234025 1 
	0.26450722211923566 0.54958510416554607 1 
	0.27279814659749796 0.55475542847831349 0.99999999999999978 
	0.28602565353276188 0.56342420719490871 1.0000000000000002 
	0.29994029162461711 0.57258299776677812 1 
	0.3148933017180191 0.58238611554631448 1 
	0.33204922970948869 0.59346993228194556 1.0000000000000002 
	0.35132435206694451 0.60563065613923306 0.99999999999999989 
	0.37297143211922762 0.61883979412137502 1 
	0.39728679881517576 0.63302896338599368 1.0000000000000002 
	0.42485345838855859 0.64817799804612808 0.99999999999999978 
	0.45560350601719424 0.66371651267312426 1 
	0.48809525633933093 0.67831457567200337 1 
	0.52108199913023667 0.69084949037351928 0.99999999999999978 
	0.55331092975826135 0.70035012327380819 1.0000000000000002 
	0.58394564528915904 0.70616333689357003 0.99999999999999978 
	0.61194710963670373 0.70779097535285118 1.0000000000000002 
	0.63628497970509279 0.7053219555298923 0.99999999999999978 
	0.65763564679434261 0.69893981266903205 1 
	0.67568555426111421 0.68897810975494611 1.0000000000000002 
	0.69097412463696617 0.67553457090974778 1 
	0.70400138739748253 0.65809703164244504 1.0000000000000002 
	0.71476665276355844 0.6356515703590474 1 
	0.72319362999417836 0.60747020330793788 0.99999999999999989 
	0.72947063042316873 0.57366627673986625 1.0000000000000002 
	0.73367797833689608 0.53558811222655289 1.0000000000000002 
	0.7362402988144251 0.49267548465140487 0.99999999999999989 
	0.73742653793206592 0.44795169578335792 1 
	0.73789964126986618 0.40393575556935302 1 
	0.73716239937060557 0.36274855438211695 1 
	0.73473569132186811 0.32412076280245128 1.0000000000000002 
	0.73009346462865865 0.28836193719113523 1.0000000000000002 
	0.7226039712243415 0.25572909793210169 0.99999999999999967 
	0.7109691904739438 0.22603250908130509 1.0000000000000002 
	0.6934285030570857 0.20100693633545083 1 
	0.67065265643401983 0.18180849270391494 1 
	0.64465386134234681 0.16840033301707977 0.99999999999999978 
	0.6141413018980415 0.15903276488760412 1.0000000000000002 
	0.57964846851442609 0.15352376375846788 0.99999999999999989 
	0.54180558370167164 0.15113774399540103 1 
	0.49990283322673534 0.15089659548113657 0.99999999999999978 
	0.45347944567140175 0.15112273239495966 1 
	0.40168164763915593 0.15327854910109587 1.0000000000000002 
	0.34436709012151251 0.15937953547188663 0.99999999999999978 
	0.28242980646364185 0.1759826632189502 1 
	0.23867183097284278 0.1914149103360144 1 
	0.21610429942290066 0.20046027296003446 1 
	0.001 
	spline forward { ref 4 } I I I I 
	} 0 0 #
intcurve-curve $-1 forward { surfintcur full nurbs 3 open 45 
	0 3 0.022467571085558358 1 0.044950268317582927 1 0.067446978362703747 1 0.089965104159678094 1 
	0.11252001241866089 1 0.13511418054411431 1 0.15775039102453198 1 0.18043377948043643 1 0.20317095812732661 1 
	0.22595679348516443 1 0.24876806660453496 1 0.27158095152503503 1 0.29437471987452374 1 0.31713433134821717 1 
	0.33984489884480507 1 0.36249734954887625 1 0.38510089191074992 1 0.40766150096786552 1 0.43019407579215174 1 
	0.45271851667867563 1 0.47525528306037029 1 0.49782366728994998 1 0.52043381511952636 1 0.54308461957182075 1 
	0.56577755223083603 1 0.5884894053772961 1 0.61119331907193752 1 0.63387002271153248 1 0.65651886064861886 1 
	0.6791415593990926 1 0.70174461516287534 1 0.72434559183931957 1 0.74696589520567036 1 0.76961768002628816 1 
	0.79230299123568804 1 0.81504559105890684 1 0.83785039830509001 1 0.86071701028921577 1 0.883657859899182 1 
	0.9066872626064657 1 0.92982445620692034 1 0.95308410131732912 1 0.97647524764163807 1 1.0000000000000002 3 
	71.169002996840149 107 100.78452719007545 1 
	72.183807637604929 107.36841229259419 100.77661121182867 0.99999999999999978 
	74.270115534689566 108.14387830296621 100.75992155549528 1 
	77.578126420875179 109.44413003108824 100.73183493451758 1 
	81.038206490021153 110.81787852403812 100.70213659263054 1 
	84.736791085389925 112.28829052013842 100.67033505591738 1 
	88.957255693794465 113.95075329512071 100.63437990342047 0.99999999999999978 
	93.672818080024712 115.77474399178361 100.59494117219927 1.0000000000000002 
	98.940017158800472 117.7559917041547 100.55212441722016 1 
	104.82577687344173 119.8842497084276 100.5061712010866 1 
	111.46615972269808 122.15644226903302 100.45718625148106 1 
	118.84125412271024 124.48693032714141 100.40709629049439 1.0000000000000002 
	126.60819372123052 126.6762775941521 100.36032958679945 1 
	134.47724565297986 128.5560888089268 100.32069621042743 1.0000000000000002 
	142.15940601545111 129.9807396835935 100.29155145242247 0.99999999999999978 
	149.4636316683364 130.85230093841201 100.27524608705217 1 
	156.14805056591922 131.09618728067201 100.2735823924145 1.0000000000000002 
	161.96890349768861 130.72576267675856 100.28624312722468 0.99999999999999989 
	167.08706395975997 129.7685667441595 100.31278842810745 1 
	171.42646822086667 128.27455296763972 100.35204134084749 0.99999999999999989 
	175.11460248611644 126.2584012621187 100.4037762632331 1 
	178.27157545278001 123.64342187931828 100.46998194655858 0.99999999999999978 
	180.89983647681422 120.2771943386864 100.55441648895089 1 
	182.98264630196132 116.05009653782294 100.65976166448198 1 
	184.56430498835289 110.9790111625002 100.7856198525636 1 
	185.66152110239148 105.26726554528253 100.92695262014408 1.0000000000000002 
	186.37872680908438 98.828876238833374 101.08589175487398 0.99999999999999978 
	186.77376210816581 92.118648029692736 101.25123639216821 1.0000000000000002 
	186.99820164273223 85.515166955846141 101.41378955020028 1 
	186.9318455618307 79.337089988143603 101.56550675238337 1 
	186.46630258153786 73.542716826349974 101.7071696665117 0.99999999999999978 
	185.48165648597228 68.17861424581848 101.83734714779159 1 
	183.83465427726404 63.283165175362328 101.95474953994453 1 
	181.22978393087519 58.827553233782901 102.05944687575219 1 
	177.264739974668 55.074480567913412 102.14412239064241 0.99999999999999978 
	172.09751855307292 52.196516977624029 102.20473547412983 1.0000000000000002 
	166.18357994795431 50.186449743290304 102.24241114075522 0.99999999999999967 
	159.2210342779573 48.782053039415587 102.26313200186991 1.0000000000000002 
	151.31339102079849 47.956286212648706 102.26798994079709 1 
	142.57845874125752 47.598875886136682 102.26020939908197 1.0000000000000002 
	132.81602785994593 47.563167980445321 102.2433463615472 0.99999999999999989 
	121.86936688800853 47.597607517415319 102.2235756387299 1 
	109.44067406002087 47.921764448995702 102.19587003390723 1 
	95.348179614981717 48.83819781988857 102.15395720668602 0.99999999999999989 
	79.607799579593319 51.330951551803643 102.07642959434827 1.0000000000000002 
	68.054319397400576 53.643606594901115 102.01188791311017 0.99999999999999978 
	62 55 101.97540269643142 1 
	0.001 
	spline forward { ref 1 } I I I I 
	spline forward { ref 4 } I I I I 
	nurbs 3 open 45 
	0 3 0.022446104473422102 1 0.044899718287011114 1 0.067361360110213875 1 0.08983721352202878 1 
	0.11233906250359837 1 0.13486660631632941 1 0.1574188300804481 1 0.17999513892382613 1 0.20259363787174545 1 
	0.22520076335285899 1 0.24778926707186799 1 0.27033369518056871 1 0.29281557470931074 1 0.3152304114957446 1 
	0.33760188049949014 1 0.35999081099403041 1 0.38244438075317588 1 0.40497508500741064 1 0.42759033612744524 1 
	0.45030735876698968 1 0.47315141634217917 1 0.49614051810988824 1 0.51927071443700024 1 0.54252016698462413 1 
	0.56588050433728065 1 0.58928924877244893 1 0.61267886928199577 1 0.63600063169456478 1 0.65924761050559222 1 
	0.68241277843369219 1 0.70548896371920233 1 0.72846779806863471 1 0.75131211942005094 1 0.77399815513935977 1 
	0.79653915104888617 1 0.81898367873519518 1 0.84138411508056044 1 0.86380058728556408 1 0.88626258000061842 1 
	0.90877505233353206 1 0.93136062254030882 1 0.9540630175764534 1 0.97695337337017163 1 1.0000000000000002 3 
	0 -100.78452719007545 1 
	0.0065302041357112404 -100.77661285846716 0.99999999999999978 
	0.018890761844959199 -100.75992607646951 1.0000000000000002 
	0.034808519019678116 -100.73183869216314 1.0000000000000002 
	0.049664457359495713 -100.70214127370291 0.99999999999999978 
	0.064073310110861245 -100.67034314073541 1 
	0.079267222746987831 -100.63439107597348 1 
	0.095104223310399305 -100.59495674385448 1.0000000000000002 
	0.11180173803147395 -100.55214663213795 0.99999999999999989 
	0.12958845258950702 -100.50620399762762 1 
	0.14890831236222701 -100.45723060804211 1 
	0.1697931117821169 -100.40714408529919 0.99999999999999989 
	0.19149585310105108 -100.36037415572916 1 
	0.2135343970875111 -100.32073006244313 1.0000000000000002 
	0.23545169552818415 -100.2915683989897 0.99999999999999989 
	0.25704455101978263 -100.27524103363945 1 
	0.27788539138257978 -100.27358731316822 1 
	0.29728850081162206 -100.28629268921891 1.0000000000000002 
	0.3158277329826486 -100.3128775434068 0.99999999999999978 
	0.33323466138746288 -100.3521546579652 1 
	0.34995083205017402 -100.40391700939094 0.99999999999999978 
	0.36660270791929572 -100.47017040088481 1 
	0.38364635887388737 -100.55465185818069 1 
	0.4013719228564136 -100.66001421495035 1 
	0.41993293072395926 -100.78583898501934 0.99999999999999978 
	0.43891586304961294 -100.9271820467979 1.0000000000000002 
	0.45894852799024349 -101.08599337233257 0.99999999999999989 
	0.47908867085037349 -101.25119564902556 1.0000000000000004 
	0.49879929621056379 -101.4136478207584 0.99999999999999967 
	0.51762135961290789 -101.56536348061968 1 
	0.53606231734201326 -101.70700790780832 1 
	0.55438392376944212 -101.83716294804604 1 
	0.57291374048468302 -101.95452306635042 0.99999999999999978 
	0.5925468809270481 -102.05911502632567 0.99999999999999978 
	0.61366502865140793 -102.14381136499787 1.0000000000000002 
	0.63549794355478606 -102.20454704453425 1 
	0.65696619977797743 -102.24231540150583 1 
	0.67977772634160705 -102.26310697010786 0.99999999999999978 
	0.70396738975088224 -102.26799499903936 1 
	0.72979778316843091 -102.26021647003587 1 
	0.75879478096265185 -102.24336207713006 0.99999999999999978 
	0.79332901667019762 -102.22359064718526 1.0000000000000004 
	0.83487609513435213 -102.19588501846602 0.99999999999999978 
	0.88423588538747477 -102.15386789073359 1 
	0.93993125250092757 -102.0763817319737 1 
	0.97945452649083231 -102.01187607647164 1 
	1 -101.97540269643142 1 
	
	nurbs 3 open 45 
	0 3 0.022444780728296233 1 0.044906131494506854 1 0.067382011705985054 1 0.089878767497943587 1 
	0.11241037189278816 1 0.1349788314218848 1 0.1575862843274794 1 0.18023681241412823 1 0.20293546139690077 1 
	0.22567586499784195 1 0.24843475726178696 1 0.27118876233562983 1 0.29391840319310425 1 0.31661096249187282 1 
	0.33925612253242776 1 0.36185101175267109 1 0.38441021321270952 1 0.40694616542363105 1 0.42947890514437548 1 
	0.45203321974145061 1 0.47463448004975395 1 0.49730268524706289 1 0.52004320637255508 1 0.5428481976865952 1 
	0.56571545917904753 1 0.5886106861355096 1 0.61149574349285907 1 0.63434370415792807 1 0.65715242749764369 1 
	0.67992123905609669 1 0.70265253716370146 1 0.72535615360099948 1 0.74803858358089959 1 0.77070879198268338 1 
	0.79337947872903236 1 0.81608464509894085 1 0.83883545471753662 1 0.86163473726460826 1 0.88449369979262671 1 
	0.9074221814068314 1 0.93043128986211643 1 0.95352739478662651 1 0.97671791034637623 1 1.0000000000000002 3 
	0.26048813985434466 0.54712874951234025 1 
	0.26450722211923566 0.54958510416554607 1 
	0.27279814659749796 0.55475542847831349 0.99999999999999978 
	0.28602565353276188 0.56342420719490871 1.0000000000000002 
	0.29994029162461711 0.57258299776677812 1 
	0.3148933017180191 0.58238611554631448 1 
	0.33204922970948869 0.59346993228194556 1.0000000000000002 
	0.35132435206694451 0.60563065613923306 0.99999999999999989 
	0.37297143211922762 0.61883979412137502 1 
	0.39728679881517576 0.63302896338599368 1.0000000000000002 
	0.42485345838855859 0.64817799804612808 0.99999999999999978 
	0.45560350601719424 0.66371651267312426 1 
	0.48809525633933093 0.67831457567200337 1 
	0.52108199913023667 0.69084949037351928 0.99999999999999978 
	0.55331092975826135 0.70035012327380819 1.0000000000000002 
	0.58394564528915904 0.70616333689357003 0.99999999999999978 
	0.61194710963670373 0.70779097535285118 1.0000000000000002 
	0.63628497970509279 0.7053219555298923 0.99999999999999978 
	0.65763564679434261 0.69893981266903205 1 
	0.67568555426111421 0.68897810975494611 1.0000000000000002 
	0.69097412463696617 0.67553457090974778 1 
	0.70400138739748253 0.65809703164244504 1.0000000000000002 
	0.71476665276355844 0.6356515703590474 1 
	0.72319362999417836 0.60747020330793788 0.99999999999999989 
	0.72947063042316873 0.57366627673986625 1.0000000000000002 
	0.73367797833689608 0.53558811222655289 1.0000000000000002 
	0.7362402988144251 0.49267548465140487 0.99999999999999989 
	0.73742653793206592 0.44795169578335792 1 
	0.73789964126986618 0.40393575556935302 1 
	0.73716239937060557 0.36274855438211695 1 
	0.73473569132186811 0.32412076280245128 1.0000000000000002 
	0.73009346462865865 0.28836193719113523 1.0000000000000002 
	0.7226039712243415 0.25572909793210169 0.99999999999999967 
	0.7109691904739438 0.22603250908130509 1.0000000000000002 
	0.6934285030570857 0.20100693633545083 1 
	0.67065265643401983 0.18180849270391494 1 
	0.64465386134234681 0.16840033301707977 0.99999999999999978 
	0.6141413018980415 0.15903276488760412 1.0000000000000002 
	0.57964846851442609 0.15352376375846788 0.99999999999999989 
	0.54180558370167164 0.15113774399540103 1 
	0.49990283322673534 0.15089659548113657 0.99999999999999978 
	0.45347944567140175 0.15112273239495966 1 
	0.40168164763915593 0.15327854910109587 1.0000000000000002 
	0.34436709012151251 0.15937953547188663 0.99999999999999978 
	0.28242980646364185 0.1759826632189502 1 
	0.23867183097284278 0.1914149103360144 1 
	0.21610429942290066 0.20046027296003446 1 
	
	I I 
	0 
	0 
	0 
	} I I #
point $-1 62.00000000000005 54.999999999999972 101.97540269643142 #
End-of-ACIS-data 