600 0 1 0           
97 GICL ACIS Healer - Source: /gicl/data5/repository/PTC/V18/bboxrev2/boombox/s_screw_.prt.sat - 6 0 18 ACIS 6.0.3 Solaris 24 Sat Apr 13 22:52:13 2002 
1 9.999999999999999547e-07 1.000000000000000036e-10 
body $-1 $1 $-1 $-1 #
lump $-1 $-1 $2 $0 #
shell $-1 $-1 $-1 $3 $-1 $1 #
face $-1 $4 $5 $2 $-1 $6 forward single #
face $-1 $7 $8 $2 $-1 $9 forward single #
loop $-1 $-1 $10 $3 #
plane-surface $-1 0 -3 0 0 -1 0 -1 0 0 forward_v I I I I #
face $-1 $11 $12 $2 $-1 $13 forward single #
loop $-1 $-1 $14 $4 #
cone-surface $-1 0 0 0 0 -1 0 -0.5 0 0 1 I I 0 1 0.5 forward I I I I #
coedge $-1 $15 $15 $16 $17 forward $5 $-1 #
face $-1 $18 $19 $2 $-1 $20 forward single #
loop $-1 $-1 $21 $7 #
cone-surface $-1 0 0 0 0 -1 0 -0.5 0 0 1 I I 0 1 0.5 forward I I I I #
coedge $-1 $16 $22 $23 $24 forward $8 $-1 #
coedge $-1 $10 $10 $25 $26 forward $5 $-1 #
coedge $-1 $27 $14 $10 $17 reversed $8 $-1 #
edge $-1 $28 -3.141592653589793116 $29 0 $10 $30 forward 7 unknown #
face $-1 $31 $32 $2 $-1 $33 forward single #
loop $-1 $34 $35 $11 #
plane-surface $-1 0 0 0 0 -1 0 -1 0 0 forward_v I I I I #
coedge $-1 $25 $36 $27 $37 forward $12 $-1 #
coedge $-1 $14 $27 $38 $39 forward $8 $-1 #
coedge $-1 $36 $25 $14 $24 reversed $12 $-1 #
edge $-1 $40 0 $29 3 $23 $41 forward 7 unknown #
coedge $-1 $23 $21 $15 $26 reversed $12 $-1 #
edge $-1 $29 0 $28 3.141592653589793116 $15 $42 forward 7 unknown #
coedge $-1 $22 $16 $21 $37 reversed $8 $-1 #
vertex $-1 $26 $43 #
vertex $-1 $26 $44 #
ellipse-curve $-1 0 -3 0 0 -1 0 -0.5 0 0 1 I I #
face $-1 $45 $46 $2 $-1 $47 forward single #
loop $-1 $-1 $48 $18 #
cone-surface $-1 0 0.7874999999999999778 0 0 -1 0 -1.125 0 0 1 I I 0 1 1.125 forward I I I I #
loop $-1 $-1 $38 $11 #
coedge $-1 $49 $49 $50 $51 reversed $19 $-1 #
coedge $-1 $21 $23 $52 $53 forward $12 $-1 #
edge $-1 $54 0 $28 3 $21 $55 forward 7 unknown #
coedge $-1 $52 $52 $22 $39 reversed $34 $-1 #
edge $-1 $54 -3.141592653589793116 $40 -0 $22 $56 reversed 7 unknown #
vertex $-1 $53 $57 #
straight-curve $-1 -0.5 0 0 0 -1 0 I I #
ellipse-curve $-1 0 -3 0 0 -1 0 -0.5 0 0 1 I I #
point $-1 0.5 -3 0 #
point $-1 -0.5 -3 0 #
face $-1 $58 $59 $2 $-1 $60 forward single #
loop $-1 $-1 $61 $31 #
cone-surface $-1 0 0.7874999999999999778 0 0 -1 0 -1.125 0 0 1 I I 0 1 1.125 forward I I I I #
coedge $-1 $50 $62 $63 $64 reversed $32 $-1 #
coedge $-1 $35 $35 $65 $66 forward $19 $-1 #
coedge $-1 $67 $48 $35 $51 forward $32 $-1 #
edge $-1 $68 -3.141592653589793116 $69 -0 $35 $70 reversed 7 unknown #
coedge $-1 $38 $38 $36 $53 reversed $34 $-1 #
edge $-1 $40 -0 $54 3.141592653589793116 $36 $71 reversed 7 unknown #
vertex $-1 $53 $72 #
straight-curve $-1 0.5 0 -6.123031769111886291e-17 0 -1 0 I I #
ellipse-curve $-1 0 0 0 -0 1 -0 -0.5 0 0 1 I I #
point $-1 -0.5 0 0 #
face $-1 $73 $74 $2 $-1 $75 reversed single #
loop $-1 $-1 $76 $45 #
torus-surface $-1 0 0.3499999999999999778 0 0 -1 0 0.7249999999999999778 0.3999999999999999667 -0.9999544103426677433 0 -0.009548677198838454588 forward_v I I I I #
coedge $-1 $65 $77 $67 $78 reversed $46 $-1 #
coedge $-1 $48 $67 $79 $80 reversed $32 $-1 #
coedge $-1 $77 $65 $48 $64 forward $46 $-1 #
edge $-1 $68 0 $81 0.3499999999999999778 $63 $82 forward 7 unknown #
coedge $-1 $63 $61 $49 $66 reversed $46 $-1 #
edge $-1 $68 -3.141592653589793116 $69 0 $49 $83 forward 7 unknown #
coedge $-1 $62 $50 $61 $78 forward $32 $-1 #
vertex $-1 $66 $84 #
vertex $-1 $66 $85 #
ellipse-curve $-1 0 0 0 0 -1 0 -1.125 0 0 1 I I #
ellipse-curve $-1 0 0 0 -0 1 -0 -0.5 0 0 1 I I #
point $-1 0.5 0 0 #
face $-1 $86 $87 $2 $-1 $88 reversed single #
loop $-1 $-1 $89 $58 #
plane-surface $-1 0 0.5 0.5999999999999999778 0 -0.7071067811865475727 0.7071067811865475727 1 0 0 forward_v I I I I #
coedge $-1 $90 $91 $92 $93 forward $59 $-1 #
coedge $-1 $61 $63 $94 $95 reversed $46 $-1 #
edge $-1 $69 0 $96 0.3499999999999999778 $61 $97 forward 7 unknown #
coedge $-1 $98 $99 $62 $80 forward $100 $-1 #
edge $-1 $81 -3.141592653608155317 $96 -1.371629223036712423e-11 $62 $101 reversed 7 unknown #
vertex $-1 $95 $102 #
straight-curve $-1 1.125 0 1.377682148050174415e-16 0 1 0 I I #
ellipse-curve $-1 0 0 0 0 -1 0 -1.125 0 0 1 I I #
point $-1 1.125 0 1.377682148050174415e-16 #
point $-1 -1.125 0 0 #
face $-1 $103 $104 $2 $-1 $105 reversed single #
loop $-1 $-1 $106 $73 #
plane-surface $-1 0.09999999999999964473 0.5 0.4749999999999999778 0.9805806756909201116 -0.1961161351381841278 0 0 0 -1 forward_v I I I I #
coedge $-1 $107 $92 $108 $109 reversed $74 $-1 #
coedge $-1 $110 $76 $111 $112 forward $59 $-1 #
coedge $-1 $76 $113 $114 $115 forward $59 $-1 #
coedge $-1 $89 $116 $76 $93 reversed $74 $-1 #
edge $-1 $117 -0.1403665879191904886 $118 0.1403665879191904609 $76 $119 reversed 7 unknown #
coedge $-1 $120 $121 $77 $95 forward $59 $-1 #
edge $-1 $96 -1.371629223036712423e-11 $81 3.141592653571430915 $77 $122 reversed 7 unknown #
vertex $-1 $95 $123 #
straight-curve $-1 -1.125 0 -2.755364296100348831e-16 0 1 0 I I #
coedge $-1 $124 $79 $121 $125 reversed $100 $-1 #
coedge $-1 $79 $126 $120 $127 forward $100 $-1 #
loop $-1 $-1 $99 $128 #
ellipse-curve $-1 0 0.3499999999999999778 0 0 -1 0 -1.125 0 0 1 I I #
point $-1 1.124999999999999778 0.3499999999999999778 2.065778448086013622e-11 #
face $-1 $129 $130 $2 $-1 $131 reversed single #
loop $-1 $-1 $132 $86 #
plane-surface $-1 0.2249999999999999778 0.5 0.2249999999999999778 0.577350269189625287 -0.5773502691896259531 0.5773502691896260641 0.7071067811865480168 0 -0.7071067811865470176 forward_v I I I I #
coedge $-1 $133 $134 $135 $136 reversed $87 $-1 #
coedge $-1 $116 $89 $137 $138 reversed $74 $-1 #
coedge $-1 $114 $133 $89 $109 forward $87 $-1 #
edge $-1 $139 -0.3063112683811272108 $117 0.3817372235987213647 $108 $140 reversed 7 unknown #
coedge $-1 $141 $90 $142 $143 reversed $59 $-1 #
coedge $-1 $144 $145 $90 $112 reversed $146 $-1 #
edge $-1 $118 -1.912364022185133683 $147 -1.796004079270569598 $90 $148 reversed 7 unknown #
coedge $-1 $91 $149 $150 $151 reversed $59 $-1 #
coedge $-1 $134 $108 $91 $115 reversed $87 $-1 #
edge $-1 $152 -0.6069930502339485612 $117 -0.4906331073193845316 $91 $153 reversed 7 unknown #
coedge $-1 $92 $107 $144 $154 forward $74 $-1 #
vertex $-1 $115 $155 #
vertex $-1 $112 $156 #
intcurve-curve $-1 forward { surfintcur full nubs 3 open 3 
	-0.1403665879191904609 3 0 3 0.1403665879191904886 3 
	-0.1463475310176163002 0.7317479901037746703 0.8317479901037745371 
	-0.09609917635539343139 0.733837173180579061 0.8338371731805789278 
	-0.04678886263973013049 0.7346714991660647787 0.8346714991660647565 
	0 0.7346714991660647787 0.8346714991660647565 
	0.04678886263973015824 0.7346714991660647787 0.8346714991660647565 
	0.09609917635539350078 0.733837173180579061 0.8338371731805789278 
	0.1463475310176163835 0.7317479901037745593 0.8317479901037745371 
	0.000241124685275919781 
	torus 0 0.3499999999999999778 0 0 -1 0 0.7249999999999999778 0.3999999999999999667 -0.9999544103426677433 0 -0.009548677198838454588 forward_v I I I I 
	plane 0 0.5 0.5999999999999999778 0 -0.7071067811865475727 0.7071067811865475727 1 0 0 forward_v I I I I 
	nullbs 
	nullbs 
	I I 
	0 
	0 
	0 
	} I I #
coedge $-1 $157 $94 $99 $127 reversed $59 $-1 #
coedge $-1 $94 $158 $98 $125 forward $59 $-1 #
ellipse-curve $-1 0 0.3499999999999999778 0 0 -1 0 -1.125 0 0 1 I I #
point $-1 -1.124999999999999778 0.3499999999999999778 -1.543082875916301294e-11 #
coedge $-1 $159 $98 $160 $161 forward $100 $-1 #
edge $-1 $162 -1.205521482021506629e-22 $96 1.29306070606729695 $121 $163 forward 7 unknown #
coedge $-1 $99 $164 $165 $166 forward $100 $-1 #
edge $-1 $167 -1.205469440570834475e-22 $81 1.293060706067296284 $120 $168 forward 7 unknown #
face $-1 $169 $100 $2 $-1 $170 forward single #
face $-1 $128 $171 $2 $-1 $172 reversed single #
loop $-1 $-1 $173 $103 #
plane-surface $-1 0.4749999999999999778 0.5 0.09999999999999964473 0 -0.1961161351381840723 0.9805806756909202226 1 0 0 forward_v I I I I #
coedge $-1 $174 $175 $176 $177 reversed $104 $-1 #
coedge $-1 $108 $106 $178 $179 reversed $87 $-1 #
coedge $-1 $106 $114 $180 $181 forward $87 $-1 #
coedge $-1 $175 $174 $106 $136 forward $104 $-1 #
edge $-1 $182 -0.3336809942930237249 $183 0.3143930755477623573 $106 $184 reversed 7 unknown #
coedge $-1 $178 $185 $107 $138 forward $186 $-1 #
edge $-1 $187 -0.0499999999999996142 $139 0.0499999999999996142 $137 $188 forward 7 unknown #
vertex $-1 $179 $189 #
straight-curve $-1 0.09289215686274474026 0.4644607843137255054 0.5644607843137254832 -0.1400280084028010796 -0.7001400420140049263 -0.7001400420140049263 I I #
coedge $-1 $158 $110 $190 $191 forward $59 $-1 #
coedge $-1 $192 $193 $110 $143 forward $194 $-1 #
edge $-1 $195 1.779198133386643788 $147 2.933190846998046108 $142 $196 reversed 7 unknown #
coedge $-1 $197 $111 $116 $154 reversed $146 $-1 #
coedge $-1 $111 $198 $192 $199 reversed $146 $-1 #
loop $-1 $-1 $111 $200 #
vertex $-1 $199 $201 #
intcurve-curve $-1 forward { surfintcur full nubs 3 open 3 
	1.796004079270569598 3 1.871829666797105052 2 1.912364022185133683 3 
	-0.1499999999999996336 0.75 0.7093130479555552759 
	-0.1499999999999996336 0.75 0.7345882437977337975 
	-0.1495112797571565566 0.7475563987857846149 0.7621919324614229163 
	-0.1479001236208208891 0.7395006181041062776 0.8036844920942665116 
	-0.1471785651466597789 0.7358928257333006151 0.8179771046537787083 
	-0.1463406915983098966 0.7317034579915512316 0.8317217913803087725 
	0.0001268538223092843722 
	torus 0 0.3499999999999999778 0 0 -1 0 0.7249999999999999778 0.3999999999999999667 -0.9999544103426677433 0 -0.009548677198838454588 forward_v I I I I 
	plane -0.09999999999999964473 0.5 0.4749999999999999778 -0.9805806756909201116 -0.1961161351381841278 0 0 0 1 forward_v I I I I 
	nullbs 
	nullbs 
	I I 
	0 
	0 
	0 
	} I I #
coedge $-1 $113 $157 $173 $202 forward $59 $-1 #
coedge $-1 $203 $180 $113 $151 forward $204 $-1 #
edge $-1 $152 -2.933190846998046108 $205 -1.779198133386643788 $150 $206 reversed 7 unknown #
vertex $-1 $181 $207 #
intcurve-curve $-1 forward { surfintcur full nubs 3 open 3 
	0.4906331073193845316 3 0.5311674627074129962 2 0.6069930502339485612 3 
	0.1463406915983099243 0.7317034579915512316 0.8317217913803087725 
	0.1471785651466598066 0.7358928257333006151 0.8179771046537788193 
	0.1479001236208209169 0.7395006181041062776 0.8036844920942665116 
	0.1495112797571565844 0.7475563987857846149 0.7621919324614229163 
	0.1499999999999996614 0.75 0.7345882437977337975 
	0.1499999999999996614 0.75 0.7093130479555552759 
	0.0001268538223092843722 
	torus 0 0.3499999999999999778 0 0 -1 0 0.7249999999999999778 0.3999999999999999667 -0.9999544103426677433 0 -0.009548677198838454588 forward_v I I I I 
	plane 0.09999999999999964473 0.5 0.4749999999999999778 0.9805806756909201116 -0.1961161351381841278 0 0 0 -1 forward_v I I I I 
	nullbs 
	nullbs 
	I I 
	0 
	0 
	0 
	} I I #
edge $-1 $187 -0.3063112683811272108 $118 0.3817372235987214202 $144 $208 forward 7 unknown #
point $-1 0.146346060016488505 0.7317303000824438852 0.831730300082443752 #
point $-1 -0.146346060016488394 0.7317303000824438852 0.831730300082443863 #
coedge $-1 $149 $120 $209 $210 forward $59 $-1 #
coedge $-1 $121 $141 $211 $212 forward $59 $-1 #
coedge $-1 $213 $124 $214 $215 forward $100 $-1 #
coedge $-1 $211 $216 $124 $161 reversed $217 $-1 #
edge $-1 $162 -0 $218 0.1403665879191904609 $124 $219 reversed 7 unknown #
vertex $-1 $125 $220 #
ellipse-curve $-1 -0.7249999999999998668 0.3499999999999999778 -1.062622516572184716e-11 -1.201150898360291767e-11 -1.188837923359960011e-11 1 -0.1096714991660580063 0.3846714991660667993 3.255800464965189456e-12 1 I I #
coedge $-1 $126 $221 $222 $223 forward $100 $-1 #
coedge $-1 $224 $209 $126 $166 reversed $171 $-1 #
edge $-1 $225 -0.1403665879191904609 $167 -0 $126 $226 reversed 7 unknown #
vertex $-1 $210 $227 #
ellipse-curve $-1 0.7249999999999996447 0.3499999999999998113 1.062568171657206576e-11 1.201278012257794136e-11 -1.188777277788541109e-11 -1 0.1096714991660581173 0.3846714991660669658 -3.255427771019395171e-12 1 I I #
face $-1 $228 $217 $2 $-1 $229 reversed single #
torus-surface $-1 0 0.3499999999999999778 0 0 -1 0 0.7249999999999999778 0.3999999999999999667 0.9999544103426677433 0 0.009548677198838423363 forward_v I I I I #
loop $-1 $-1 $165 $129 #
plane-surface $-1 0.5999999999999999778 0.5 0 0.7071067811865475727 -0.7071067811865475727 0 0 0 -1 forward_v I I I I #
coedge $-1 $230 $231 $149 $202 reversed $130 $-1 #
coedge $-1 $135 $132 $232 $233 reversed $104 $-1 #
coedge $-1 $132 $135 $234 $235 forward $104 $-1 #
coedge $-1 $231 $236 $132 $177 forward $130 $-1 #
edge $-1 $237 -0.3336809942930236139 $238 0.3143930755477627459 $132 $239 reversed 7 unknown #
coedge $-1 $232 $137 $133 $179 forward $186 $-1 #
edge $-1 $139 -0.1124999999999999889 $182 0.08749999999999985567 $178 $240 forward 7 unknown #
coedge $-1 $150 $234 $134 $181 reversed $204 $-1 #
edge $-1 $152 -0.471813047955555398 $183 -0.3125000000000001665 $180 $241 reversed 7 unknown #
vertex $-1 $179 $242 #
vertex $-1 $181 $243 #
straight-curve $-1 0.1014880952380948775 0.507440476190476164 0.3559523809523810756 -0.1543033499620919957 -0.77151674981045959 -0.6172133998483676498 I I #
coedge $-1 $137 $244 $197 $245 forward $186 $-1 #
loop $-1 $-1 $232 $246 #
vertex $-1 $138 $247 #
straight-curve $-1 0 0.25 0.3499999999999999778 1 0 -0 I I #
point $-1 0.0499999999999996142 0.25 0.3499999999999999778 #
coedge $-1 $248 $249 $141 $191 reversed $250 $-1 #
edge $-1 $195 -0.6069930502339485612 $251 -0.4906331073193844206 $141 $252 reversed 7 unknown #
coedge $-1 $253 $142 $145 $199 forward $194 $-1 #
coedge $-1 $142 $253 $248 $254 reversed $194 $-1 #
loop $-1 $-1 $142 $255 #
vertex $-1 $254 $256 #
ellipse-curve $-1 0 0.75 0 0 -1 0 0 0 -0.7249999999999999778 1 I I #
coedge $-1 $198 $144 $185 $245 reversed $146 $-1 #
coedge $-1 $145 $197 $257 $258 forward $146 $-1 #
edge $-1 $147 -0.471813047955555398 $259 -0.3124999999999999445 $192 $260 forward 7 unknown #
face $-1 $246 $146 $2 $-1 $261 reversed single #
point $-1 -0.1499999999999997724 0.75 0.7093130479555553869 #
edge $-1 $262 -1.912364022185134349 $205 -1.796004079270570042 $149 $263 reversed 7 unknown #
coedge $-1 $234 $150 $231 $264 forward $204 $-1 #
loop $-1 $-1 $150 $265 #
vertex $-1 $264 $266 #
ellipse-curve $-1 0 0.75 0 0 -1 0 0 0 -0.7249999999999999778 1 I I #
point $-1 0.1499999999999997724 0.75 0.7093130479555553869 #
straight-curve $-1 -0.09289215686274474026 0.4644607843137255054 0.5644607843137254832 -0.1400280084028010796 0.7001400420140049263 0.7001400420140049263 I I #
coedge $-1 $165 $267 $157 $210 reversed $171 $-1 #
edge $-1 $167 -0 $262 0.1403665879191904609 $157 $268 reversed 7 unknown #
coedge $-1 $269 $160 $158 $212 reversed $217 $-1 #
edge $-1 $251 -0.1403665879191904609 $162 -0 $158 $270 reversed 7 unknown #
coedge $-1 $271 $159 $272 $273 reversed $100 $-1 #
coedge $-1 $274 $275 $159 $215 reversed $276 $-1 #
edge $-1 $218 -1.912364022185134349 $277 -1.796004079270570042 $159 $278 reversed 7 unknown #
coedge $-1 $160 $279 $274 $280 forward $217 $-1 #
loop $-1 $-1 $269 $169 #
vertex $-1 $215 $281 #
intcurve-curve $-1 forward { surfintcur full nubs 3 open 2 
	-0.1403665879191904609 3 0 3 
	-0.8317479901037745371 0.7317479901037746703 -0.1463475310176163002 
	-0.8338371731805789278 0.733837173180579061 -0.09609917635539344527 
	-0.8346714991660647565 0.7346714991660647787 -0.04678886263973013743 
	-0.8346714991660647565 0.7346714991660647787 0 
	0.000241124685275919781 
	torus 0 0.3499999999999999778 0 0 -1 0 0.7249999999999999778 0.3999999999999999667 0.9999544103426677433 0 0.009548677198838423363 forward_v I I I I 
	plane -0.5999999999999999778 0.5 0 -0.7071067811865475727 -0.7071067811865475727 0 0 0 1 forward_v I I I I 
	nullbs 
	nullbs 
	I I 
	0 
	0 
	0 
	} I I #
point $-1 -0.8346714991660578731 0.7346714991660667771 -7.370424700756657708e-12 #
coedge $-1 $164 $282 $283 $284 reversed $100 $-1 #
coedge $-1 $285 $286 $164 $223 reversed $287 $-1 #
edge $-1 $288 -0.6069930502339484502 $225 -0.4906331073193844206 $164 $289 reversed 7 unknown #
coedge $-1 $290 $165 $286 $291 reversed $171 $-1 #
vertex $-1 $166 $292 #
intcurve-curve $-1 forward { surfintcur full nubs 3 open 2 
	0 3 0.1403665879191904609 3 
	0.8346714991660647565 0.7346714991660647787 0 
	0.8346714991660647565 0.7346714991660647787 -0.04678886263973015824 
	0.8338371731805790388 0.733837173180579061 -0.0960991763553934869 
	0.8317479901037745371 0.7317479901037746703 -0.1463475310176163835 
	0.0002411246852755428039 
	torus 0 0.3499999999999999778 0 0 -1 0 0.7249999999999999778 0.3999999999999999667 0.9999544103426677433 0 0.009548677198838423363 forward_v I I I I 
	plane 0.5999999999999999778 0.5 0 0.7071067811865475727 -0.7071067811865475727 0 0 0 -1 forward_v I I I I 
	nullbs 
	nullbs 
	I I 
	0 
	0 
	0 
	} I I #
point $-1 0.8346714991660577621 0.7346714991660667771 7.370253945552670587e-12 #
face $-1 $293 $250 $2 $-1 $294 reversed single #
plane-surface $-1 -0.5999999999999999778 0.5 0 -0.7071067811865475727 -0.7071067811865475727 0 0 0 1 forward_v I I I I #
coedge $-1 $236 $173 $267 $295 reversed $130 $-1 #
coedge $-1 $173 $176 $203 $264 reversed $130 $-1 #
coedge $-1 $296 $178 $174 $233 forward $186 $-1 #
edge $-1 $182 -0.0707106781186551403 $237 0.07071067811865516806 $232 $297 forward 7 unknown #
coedge $-1 $180 $203 $175 $235 reversed $204 $-1 #
edge $-1 $183 -0.2828427124746191179 $238 0.2828427124746200061 $234 $298 reversed 7 unknown #
coedge $-1 $176 $230 $296 $299 reversed $130 $-1 #
vertex $-1 $299 $300 #
vertex $-1 $235 $301 #
straight-curve $-1 0.3559523809523812421 0.507440476190475942 0.1014880952380948498 -0.6172133998483680939 -0.7715167498104592569 -0.1543033499620918847 I I #
straight-curve $-1 0.0499999999999996142 0.25 0.2374999999999999889 0 0 -1 I I #
straight-curve $-1 0.1499999999999996614 0.75 0.2374999999999999889 0 0 1 I I #
point $-1 0.0499999999999996142 0.25 0.1500000000000001332 #
point $-1 0.1499999999999996614 0.75 0.5500000000000001554 #
coedge $-1 $185 $302 $303 $304 forward $186 $-1 #
edge $-1 $305 -0.08749999999999966138 $187 0.1124999999999999889 $185 $306 forward 7 unknown #
face $-1 $307 $186 $2 $-1 $308 forward single #
point $-1 -0.0499999999999996142 0.25 0.3499999999999999778 #
coedge $-1 $309 $190 $193 $254 forward $250 $-1 #
coedge $-1 $190 $310 $269 $311 forward $250 $-1 #
loop $-1 $-1 $309 $228 #
vertex $-1 $212 $312 #
intcurve-curve $-1 forward { surfintcur full nubs 3 open 3 
	0.4906331073193844206 3 0.5311674627074129962 2 0.6069930502339485612 3 
	-0.8317217913803087725 0.7317034579915511205 0.1463406915983098133 
	-0.8179771046537788193 0.7358928257333006151 0.1471785651466597233 
	-0.8036844920942666226 0.7395006181041063886 0.1479001236208208614 
	-0.7621919324614229163 0.7475563987857846149 0.1495112797571565288 
	-0.7345882437977337975 0.75 0.1499999999999996336 
	-0.7093130479555552759 0.75 0.1499999999999996336 
	0.0001268538223092843722 
	torus 0 0.3499999999999999778 0 0 -1 0 0.7249999999999999778 0.3999999999999999667 -0.9999544103426677433 0 -0.009548677198838454588 forward_v I I I I 
	plane -0.4749999999999999778 0.5 0.09999999999999964473 0 -0.1961161351381839613 0.9805806756909202226 1 0 0 forward_v I I I I 
	nullbs 
	nullbs 
	I I 
	0 
	0 
	0 
	} I I #
coedge $-1 $193 $192 $313 $314 reversed $194 $-1 #
edge $-1 $195 -0.471813047955555398 $315 -0.3125000000000006106 $193 $316 reversed 7 unknown #
face $-1 $265 $194 $2 $-1 $317 reversed single #
point $-1 -0.7093130479555553869 0.75 0.1499999999999996614 #
coedge $-1 $303 $313 $198 $258 reversed $318 $-1 #
edge $-1 $305 -0.3336809942930235584 $259 0.3143930755477621908 $257 $319 reversed 7 unknown #
vertex $-1 $314 $320 #
straight-curve $-1 -0.1499999999999996614 0.75 0.2374999999999999889 0 -0 -1 I I #
plane-surface $-1 -0.09999999999999964473 0.5 0.4749999999999999778 -0.9805806756909201116 -0.1961161351381841278 0 0 0 1 forward_v I I I I #
vertex $-1 $202 $321 #
intcurve-curve $-1 forward { surfintcur full nubs 3 open 3 
	1.796004079270570042 3 1.871829666797105718 2 1.912364022185134349 3 
	0.7093130479555551648 0.75 0.1499999999999996336 
	0.7345882437977337975 0.75 0.1499999999999996336 
	0.7621919324614229163 0.7475563987857846149 0.1495112797571565566 
	0.8036844920942666226 0.7395006181041062776 0.1479001236208208891 
	0.8179771046537789303 0.7358928257333006151 0.1471785651466597511 
	0.8317217913803089946 0.7317034579915512316 0.1463406915983098688 
	0.000126853822309278897 
	torus 0 0.3499999999999999778 0 0 -1 0 0.7249999999999999778 0.3999999999999999667 -0.9999544103426677433 0 -0.009548677198838454588 forward_v I I I I 
	plane 0.4749999999999999778 0.5 0.09999999999999964473 0 -0.1961161351381840723 0.9805806756909202226 1 0 0 forward_v I I I I 
	nullbs 
	nullbs 
	I I 
	0 
	0 
	0 
	} I I #
edge $-1 $205 -0.471813047955555398 $238 -0.3125000000000007216 $203 $322 forward 7 unknown #
face $-1 $-1 $204 $2 $-1 $323 reversed single #
point $-1 0.7093130479555553869 0.75 0.1499999999999996614 #
coedge $-1 $209 $290 $230 $295 forward $171 $-1 #
intcurve-curve $-1 forward { surfintcur full nubs 3 open 2 
	-0.1403665879191904609 3 0 3 
	0.8317479901037745371 0.7317479901037746703 0.1463475310176163002 
	0.8338371731805789278 0.733837173180579061 0.09609917635539344527 
	0.8346714991660647565 0.7346714991660647787 0.04678886263973013743 
	0.8346714991660647565 0.7346714991660647787 0 
	0.000241124685275919781 
	torus 0 0.3499999999999999778 0 0 -1 0 0.7249999999999999778 0.3999999999999999667 -0.9999544103426677433 0 -0.009548677198838454588 forward_v I I I I 
	plane 0.5999999999999999778 0.5 0 0.7071067811865475727 -0.7071067811865475727 0 0 0 -1 forward_v I I I I 
	nullbs 
	nullbs 
	I I 
	0 
	0 
	0 
	} I I #
coedge $-1 $279 $211 $249 $311 reversed $217 $-1 #
intcurve-curve $-1 forward { surfintcur full nubs 3 open 2 
	0 3 0.1403665879191904609 3 
	-0.8346714991660647565 0.7346714991660647787 0 
	-0.8346714991660647565 0.7346714991660647787 0.04678886263973015824 
	-0.8338371731805790388 0.733837173180579061 0.0960991763553934869 
	-0.8317479901037745371 0.7317479901037746703 0.1463475310176163835 
	0.0002411246852755428039 
	torus 0 0.3499999999999999778 0 0 -1 0 0.7249999999999999778 0.3999999999999999667 -0.9999544103426677433 0 -0.009548677198838454588 forward_v I I I I 
	plane -0.5999999999999999778 0.5 0 -0.7071067811865475727 -0.7071067811865475727 0 0 0 1 forward_v I I I I 
	nullbs 
	nullbs 
	I I 
	0 
	0 
	0 
	} I I #
coedge $-1 $324 $213 $325 $326 forward $100 $-1 #
coedge $-1 $327 $328 $213 $273 forward $329 $-1 #
edge $-1 $330 0.2084018065917469797 $277 1.362394520203149773 $272 $331 reversed 7 unknown #
coedge $-1 $332 $214 $216 $280 reversed $276 $-1 #
coedge $-1 $214 $333 $327 $334 reversed $276 $-1 #
loop $-1 $-1 $214 $335 #
vertex $-1 $334 $336 #
intcurve-curve $-1 forward { surfintcur full nubs 3 open 3 
	1.796004079270570042 3 1.871829666797105718 2 1.912364022185134349 3 
	-0.7093130479555551648 0.75 -0.1499999999999996336 
	-0.7345882437977337975 0.75 -0.1499999999999996336 
	-0.7621919324614229163 0.7475563987857846149 -0.1495112797571565566 
	-0.8036844920942666226 0.7395006181041062776 -0.1479001236208208891 
	-0.8179771046537789303 0.7358928257333006151 -0.1471785651466597511 
	-0.8317217913803089946 0.7317034579915512316 -0.1463406915983098688 
	0.000126853822309278897 
	torus 0 0.3499999999999999778 0 0 -1 0 0.7249999999999999778 0.3999999999999999667 0.9999544103426677433 0 0.009548677198838423363 forward_v I I I I 
	plane -0.4749999999999999778 0.5 -0.09999999999999964473 0 -0.1961161351381840723 -0.9805806756909202226 -1 0 0 forward_v I I I I 
	nullbs 
	nullbs 
	I I 
	0 
	0 
	0 
	} I I #
coedge $-1 $216 $269 $337 $338 reversed $217 $-1 #
edge $-1 $339 -0.3063112683811271553 $218 0.3817372235987213647 $274 $340 forward 7 unknown #
point $-1 -0.831730300082443863 0.7317303000824438852 -0.1463460600164884218 #
coedge $-1 $221 $324 $341 $342 forward $100 $-1 #
coedge $-1 $343 $344 $221 $284 forward $345 $-1 #
edge $-1 $288 -1.362394520203149773 $346 -0.2084018065917469797 $283 $347 reversed 7 unknown #
coedge $-1 $348 $222 $344 $349 forward $287 $-1 #
coedge $-1 $222 $350 $224 $291 forward $287 $-1 #
loop $-1 $-1 $348 $307 #
vertex $-1 $349 $351 #
intcurve-curve $-1 forward { surfintcur full nubs 3 open 3 
	0.4906331073193844206 3 0.5311674627074127741 2 0.6069930502339484502 3 
	0.8317217913803087725 0.7317034579915511205 -0.1463406915983099243 
	0.8179771046537789303 0.7358928257333005041 -0.1471785651466597789 
	0.8036844920942667336 0.7395006181041061666 -0.1479001236208208891 
	0.7621919324614230273 0.7475563987857843928 -0.1495112797571565566 
	0.7345882437977337975 0.75 -0.1499999999999996336 
	0.7093130479555551648 0.75 -0.1499999999999996336 
	0.000126853822309278897 
	torus 0 0.3499999999999999778 0 0 -1 0 0.7249999999999999778 0.3999999999999999667 0.9999544103426677433 0 0.009548677198838423363 forward_v I I I I 
	plane 0.4749999999999999778 0.5 -0.09999999999999964473 0 -0.1961161351381840723 -0.9805806756909202226 -1 0 0 forward_v I I I I 
	nullbs 
	nullbs 
	I I 
	0 
	0 
	0 
	} I I #
coedge $-1 $267 $224 $352 $353 reversed $171 $-1 #
edge $-1 $354 -0.3063112683811271553 $225 0.3817372235987213647 $224 $355 forward 7 unknown #
point $-1 0.831730300082443863 0.7317303000824438852 -0.1463460600164884495 #
face $-1 $200 $318 $2 $-1 $356 reversed single #
plane-surface $-1 -0.4749999999999999778 0.5 0.09999999999999964473 0 -0.1961161351381839613 0.9805806756909202226 1 0 0 forward_v I I I I #
edge $-1 $357 -0.3063112683811271553 $262 0.3817372235987213647 $230 $358 forward 7 unknown #
coedge $-1 $352 $232 $236 $299 forward $186 $-1 #
straight-curve $-1 0.09999999999999992228 0.25 0.09999999999999989453 0.7071067811865480168 0 -0.7071067811865470176 I I #
straight-curve $-1 0.3499999999999998668 0.75 0.3500000000000001998 -0.7071067811865480168 0 0.7071067811865470176 I I #
edge $-1 $237 -0.08749999999999974465 $357 0.1124999999999999889 $296 $359 forward 7 unknown #
point $-1 0.1500000000000002442 0.25 0.04999999999999963501 #
point $-1 0.5500000000000007105 0.75 0.1499999999999996336 #
coedge $-1 $244 $337 $310 $360 forward $186 $-1 #
coedge $-1 $361 $257 $244 $304 reversed $318 $-1 #
edge $-1 $362 -0.0707106781186552652 $305 0.07071067811865527908 $244 $363 forward 7 unknown #
vertex $-1 $245 $364 #
straight-curve $-1 -0.0499999999999996142 0.25 0.2374999999999999889 0 -0 1 I I #
face $-1 $365 $287 $2 $-1 $366 reversed single #
plane-surface $-1 0 0.25 0 0 1 0 -1 0 0 forward_v I I I I #
coedge $-1 $310 $248 $361 $367 reversed $250 $-1 #
coedge $-1 $249 $309 $302 $360 reversed $250 $-1 #
edge $-1 $368 -0.3063112683811271553 $251 0.3817372235987213647 $269 $369 forward 7 unknown #
point $-1 -0.831730300082443863 0.7317303000824438852 0.1463460600164884495 #
coedge $-1 $257 $361 $253 $314 forward $318 $-1 #
edge $-1 $315 -0.2828427124746199506 $259 0.2828427124746188959 $253 $370 reversed 7 unknown #
vertex $-1 $254 $371 #
straight-curve $-1 -0.2374999999999999889 0.75 0.1499999999999996336 -1 0 0 I I #
plane-surface $-1 0 0.75 0 0 -1 0 -1 0 0 forward_v I I I I #
loop $-1 $-1 $257 $293 #
straight-curve $-1 -0.1014880952380948914 0.507440476190476164 0.3559523809523810201 0.1543033499620920512 -0.7715167498104598121 -0.6172133998483672057 I I #
point $-1 -0.1499999999999996614 0.75 0.5499999999999999334 #
point $-1 0.831730300082443863 0.7317303000824438852 0.1463460600164884218 #
straight-curve $-1 0.2374999999999999889 0.75 0.1499999999999996336 -1 0 0 I I #
plane-surface $-1 0 0.75 0 0 -1 0 -1 0 0 forward_v I I I I #
coedge $-1 $282 $271 $372 $373 forward $100 $-1 #
coedge $-1 $374 $375 $271 $326 reversed $376 $-1 #
edge $-1 $330 -0.6069930502339485612 $377 -0.4906331073193845316 $271 $378 reversed 7 unknown #
coedge $-1 $379 $272 $275 $334 forward $329 $-1 #
coedge $-1 $272 $379 $374 $380 reversed $329 $-1 #
loop $-1 $-1 $272 $381 #
vertex $-1 $380 $382 #
ellipse-curve $-1 0 0.75 0 0 -1 0 0 0 -0.7249999999999999778 1 I I #
coedge $-1 $333 $274 $383 $384 reversed $276 $-1 #
coedge $-1 $275 $332 $385 $386 forward $276 $-1 #
edge $-1 $277 -0.471813047955555509 $387 -0.3125000000000007216 $327 $388 forward 7 unknown #
face $-1 $381 $276 $2 $-1 $389 reversed single #
point $-1 -0.7093130479555554979 0.75 -0.1499999999999995781 #
coedge $-1 $302 $383 $279 $338 forward $186 $-1 #
edge $-1 $339 -0.04999999999999963501 $368 0.04999999999999966971 $337 $390 forward 7 unknown #
vertex $-1 $338 $391 #
straight-curve $-1 -0.5644607843137254832 0.4644607843137255054 -0.09289215686274474026 -0.7001400420140048153 0.7001400420140048153 -0.1400280084028009964 I I #
coedge $-1 $392 $393 $282 $342 reversed $394 $-1 #
edge $-1 $395 -1.912364022185133683 $346 -1.796004079270569598 $282 $396 reversed 7 unknown #
coedge $-1 $397 $283 $393 $398 forward $345 $-1 #
coedge $-1 $283 $397 $285 $349 reversed $345 $-1 #
loop $-1 $-1 $283 $399 #
vertex $-1 $398 $400 #
ellipse-curve $-1 0 0.75 0 0 -1 0 0 0 -0.7249999999999999778 1 I I #
coedge $-1 $350 $285 $401 $402 reversed $287 $-1 #
edge $-1 $288 -0.471813047955555509 $403 -0.3125000000000006106 $344 $404 reversed 7 unknown #
coedge $-1 $286 $348 $405 $406 reversed $287 $-1 #
point $-1 0.7093130479555554979 0.75 -0.1499999999999995781 #
coedge $-1 $405 $296 $290 $353 forward $186 $-1 #
edge $-1 $357 -0.04999999999999963501 $354 0.04999999999999963501 $352 $407 forward 7 unknown #
vertex $-1 $406 $408 #
straight-curve $-1 0.5644607843137254832 0.4644607843137255054 -0.09289215686274474026 0.7001400420140048153 0.7001400420140048153 -0.1400280084028009964 I I #
plane-surface $-1 -0.2249999999999999778 0.5 0.2249999999999999778 -0.577350269189625398 -0.5773502691896257311 0.5773502691896262862 0.7071067811865480168 0 0.7071067811865470176 forward_v I I I I #
vertex $-1 $353 $409 #
straight-curve $-1 0.5644607843137254832 0.4644607843137255054 0.09289215686274474026 0.7001400420140048153 0.7001400420140048153 0.1400280084028009964 I I #
straight-curve $-1 0.2374999999999999889 0.25 0.04999999999999963501 1 0 -0 I I #
edge $-1 $368 -0.1124999999999999889 $362 0.08749999999999957812 $302 $410 forward 7 unknown #
coedge $-1 $313 $303 $309 $367 forward $318 $-1 #
vertex $-1 $304 $411 #
straight-curve $-1 -0.1000000000000000056 0.25 0.09999999999999999167 0.7071067811865480168 -0 0.7071067811865470176 I I #
point $-1 -0.04999999999999960726 0.25 0.1500000000000003275 #
face $-1 $412 $413 $2 $-1 $414 reversed single #
plane-surface $-1 0.4749999999999999778 0.5 -0.09999999999999964473 0 -0.1961161351381840723 -0.9805806756909202226 -1 0 0 forward_v I I I I #
edge $-1 $362 -0.3336809942930235029 $315 0.3143930755477626349 $309 $415 reversed 7 unknown #
vertex $-1 $360 $416 #
straight-curve $-1 -0.5644607843137254832 0.4644607843137255054 0.09289215686274474026 -0.7001400420140048153 0.7001400420140048153 0.1400280084028009131 I I #
straight-curve $-1 -0.3499999999999997558 0.75 0.3500000000000001443 -0.7071067811865480168 -0 -0.7071067811865470176 I I #
point $-1 -0.5500000000000005995 0.75 0.1499999999999996336 #
coedge $-1 $417 $418 $324 $373 reversed $419 $-1 #
edge $-1 $377 -0.1403665879191904886 $395 0.1403665879191904609 $324 $420 reversed 7 unknown #
coedge $-1 $421 $325 $328 $380 forward $376 $-1 #
coedge $-1 $325 $422 $417 $423 forward $376 $-1 #
loop $-1 $-1 $421 $424 #
vertex $-1 $373 $425 #
intcurve-curve $-1 forward { surfintcur full nubs 3 open 3 
	0.4906331073193845316 3 0.5311674627074129962 2 0.6069930502339485612 3 
	-0.1463406915983099243 0.7317034579915512316 -0.8317217913803087725 
	-0.1471785651466598066 0.7358928257333006151 -0.8179771046537788193 
	-0.1479001236208209169 0.7395006181041062776 -0.8036844920942665116 
	-0.1495112797571565844 0.7475563987857846149 -0.7621919324614229163 
	-0.1499999999999996614 0.75 -0.7345882437977337975 
	-0.1499999999999996614 0.75 -0.7093130479555552759 
	0.0001268538223092843722 
	torus 0 0.3499999999999999778 0 0 -1 0 0.7249999999999999778 0.3999999999999999667 0.9999544103426677433 0 0.009548677198838423363 forward_v I I I I 
	plane -0.09999999999999964473 0.5 -0.4749999999999999778 -0.9805806756909201116 -0.1961161351381841278 0 0 0 1 forward_v I I I I 
	nullbs 
	nullbs 
	I I 
	0 
	0 
	0 
	} I I #
coedge $-1 $328 $327 $426 $427 reversed $329 $-1 #
edge $-1 $330 -0.471813047955555398 $428 -0.3125000000000001665 $328 $429 reversed 7 unknown #
face $-1 $399 $329 $2 $-1 $430 reversed single #
point $-1 -0.1499999999999996614 0.75 -0.7093130479555553869 #
coedge $-1 $337 $431 $332 $384 forward $186 $-1 #
edge $-1 $432 -0.08749999999999974465 $339 0.1124999999999999889 $383 $433 forward 7 unknown #
coedge $-1 $434 $426 $333 $386 reversed $435 $-1 #
edge $-1 $432 -0.3336809942930236139 $387 0.3143930755477627459 $385 $436 reversed 7 unknown #
vertex $-1 $427 $437 #
straight-curve $-1 -0.2374999999999999889 0.75 -0.1499999999999996336 1 0 0 I I #
plane-surface $-1 -0.4749999999999999778 0.5 -0.09999999999999964473 0 -0.1961161351381840723 -0.9805806756909202226 -1 0 0 forward_v I I I I #
straight-curve $-1 -0.3499999999999999778 0.25 0 0 -0 1 I I #
point $-1 -0.3499999999999999778 0.25 -0.04999999999999963501 #
coedge $-1 $438 $341 $418 $439 reversed $394 $-1 #
coedge $-1 $341 $440 $343 $398 reversed $394 $-1 #
loop $-1 $-1 $341 $412 #
vertex $-1 $342 $441 #
intcurve-curve $-1 forward { surfintcur full nubs 3 open 3 
	1.796004079270569598 3 1.871829666797105052 2 1.912364022185133683 3 
	0.1499999999999996336 0.75 -0.7093130479555552759 
	0.1499999999999996336 0.75 -0.7345882437977337975 
	0.1495112797571565566 0.7475563987857846149 -0.7621919324614229163 
	0.1479001236208208891 0.7395006181041062776 -0.8036844920942665116 
	0.1471785651466597789 0.7358928257333006151 -0.8179771046537787083 
	0.1463406915983098966 0.7317034579915512316 -0.8317217913803087725 
	0.0001268538223092843722 
	torus 0 0.3499999999999999778 0 0 -1 0 0.7249999999999999778 0.3999999999999999667 0.9999544103426677433 0 0.009548677198838423363 forward_v I I I I 
	plane 0.09999999999999964473 0.5 -0.4749999999999999778 0.9805806756909201116 -0.1961161351381841278 0 0 0 -1 forward_v I I I I 
	nullbs 
	nullbs 
	I I 
	0 
	0 
	0 
	} I I #
coedge $-1 $344 $343 $442 $443 reversed $345 $-1 #
edge $-1 $346 -0.471813047955555398 $444 -0.3124999999999999445 $343 $445 forward 7 unknown #
face $-1 $255 $345 $2 $-1 $446 reversed single #
point $-1 0.1499999999999996614 0.75 -0.7093130479555553869 #
coedge $-1 $442 $447 $348 $402 forward $413 $-1 #
edge $-1 $448 -0.3336809942930235029 $403 0.3143930755477626349 $348 $449 reversed 7 unknown #
vertex $-1 $349 $450 #
straight-curve $-1 0.2374999999999999889 0.75 -0.1499999999999996336 1 0 0 I I #
coedge $-1 $451 $352 $350 $406 forward $186 $-1 #
edge $-1 $354 -0.1124999999999999889 $448 0.08749999999999955036 $405 $452 forward 7 unknown #
straight-curve $-1 0.3499999999999999778 0.25 0 0 0 -1 I I #
point $-1 0.3499999999999999778 0.25 -0.04999999999999963501 #
point $-1 0.3499999999999999778 0.25 0.04999999999999963501 #
straight-curve $-1 -0.2374999999999999889 0.25 0.04999999999999966971 1 0 -0 I I #
point $-1 -0.1500000000000004108 0.25 0.04999999999999966971 #
face $-1 $453 $394 $2 $-1 $454 reversed single #
loop $-1 $-1 $455 $365 #
plane-surface $-1 0.2249999999999999778 0.5 -0.2249999999999999778 0.577350269189625398 -0.5773502691896257311 -0.5773502691896262862 -0.7071067811865480168 0 -0.7071067811865470176 forward_v I I I I #
straight-curve $-1 -0.3559523809523812976 0.507440476190475942 0.101488095238094822 0.6172133998483677608 -0.771516749810459368 -0.1543033499620918292 I I #
point $-1 -0.3499999999999999778 0.25 0.04999999999999966971 #
coedge $-1 $456 $372 $375 $423 reversed $419 $-1 #
coedge $-1 $372 $456 $392 $439 forward $419 $-1 #
loop $-1 $-1 $417 $453 #
intcurve-curve $-1 forward { surfintcur full nubs 3 open 3 
	-0.1403665879191904609 3 0 3 0.1403665879191904886 3 
	0.1463475310176163002 0.7317479901037746703 -0.8317479901037745371 
	0.09609917635539343139 0.733837173180579061 -0.8338371731805789278 
	0.04678886263973013049 0.7346714991660647787 -0.8346714991660647565 
	0 0.7346714991660647787 -0.8346714991660647565 
	-0.04678886263973015824 0.7346714991660647787 -0.8346714991660647565 
	-0.09609917635539350078 0.733837173180579061 -0.8338371731805789278 
	-0.1463475310176163835 0.7317479901037745593 -0.8317479901037745371 
	0.000241124685275919781 
	torus 0 0.3499999999999999778 0 0 -1 0 0.7249999999999999778 0.3999999999999999667 0.9999544103426677433 0 0.009548677198838423363 forward_v I I I I 
	plane 0 0.5 -0.5999999999999999778 0 -0.7071067811865475727 -0.7071067811865475727 -1 0 0 forward_v I I I I 
	nullbs 
	nullbs 
	I I 
	0 
	0 
	0 
	} I I #
coedge $-1 $422 $374 $457 $458 reversed $376 $-1 #
coedge $-1 $375 $421 $459 $460 reversed $376 $-1 #
edge $-1 $461 -0.3063112683811272108 $377 0.3817372235987213647 $417 $462 forward 7 unknown #
face $-1 $463 $376 $2 $-1 $464 reversed single #
point $-1 -0.146346060016488505 0.7317303000824438852 -0.831730300082443752 #
coedge $-1 $385 $457 $379 $427 forward $435 $-1 #
edge $-1 $428 -0.2828427124746191179 $387 0.2828427124746200061 $379 $465 reversed 7 unknown #
vertex $-1 $380 $466 #
straight-curve $-1 -0.1499999999999996614 0.75 -0.2374999999999999889 0 -0 -1 I I #
plane-surface $-1 0 0.75 0 0 -1 0 -1 0 0 forward_v I I I I #
coedge $-1 $383 $459 $434 $467 forward $186 $-1 #
vertex $-1 $384 $468 #
straight-curve $-1 -0.2374999999999999889 0.25 -0.04999999999999963501 -1 0 -0 I I #
coedge $-1 $457 $385 $431 $467 reversed $435 $-1 #
loop $-1 $-1 $385 $463 #
straight-curve $-1 -0.3559523809523812421 0.507440476190475942 -0.1014880952380948498 0.6172133998483680939 -0.7715167498104592569 0.1543033499620918847 I I #
point $-1 -0.5500000000000007105 0.75 -0.1499999999999996336 #
coedge $-1 $440 $392 $469 $470 reversed $394 $-1 #
edge $-1 $471 -0.3063112683811272108 $395 0.3817372235987214202 $392 $472 forward 7 unknown #
coedge $-1 $393 $438 $455 $473 forward $394 $-1 #
point $-1 0.146346060016488394 0.7317303000824438852 -0.831730300082443863 #
coedge $-1 $455 $401 $397 $443 forward $413 $-1 #
edge $-1 $403 -0.2828427124746199506 $444 0.2828427124746188959 $397 $474 reversed 7 unknown #
vertex $-1 $443 $475 #
straight-curve $-1 0.1499999999999996614 0.75 -0.2374999999999999889 0 0 1 I I #
plane-surface $-1 0 0.75 0 0 -1 0 -1 0 0 forward_v I I I I #
coedge $-1 $401 $455 $451 $476 reversed $413 $-1 #
vertex $-1 $476 $477 #
straight-curve $-1 0.3559523809523812976 0.507440476190475942 -0.101488095238094822 -0.6172133998483677608 -0.771516749810459368 0.1543033499620918847 I I #
point $-1 0.5500000000000005995 0.75 -0.1499999999999996336 #
coedge $-1 $469 $405 $447 $476 forward $186 $-1 #
straight-curve $-1 0.2374999999999999889 0.25 -0.04999999999999963501 -1 0 -0 I I #
face $-1 $424 $419 $2 $-1 $478 reversed single #
plane-surface $-1 0.09999999999999964473 0.5 -0.4749999999999999778 0.9805806756909201116 -0.1961161351381841278 0 0 0 -1 forward_v I I I I #
coedge $-1 $447 $442 $440 $473 reversed $413 $-1 #
coedge $-1 $418 $417 $479 $480 reversed $419 $-1 #
coedge $-1 $426 $434 $421 $458 forward $435 $-1 #
edge $-1 $481 -0.3336809942930237249 $428 0.3143930755477623573 $421 $482 reversed 7 unknown #
coedge $-1 $431 $479 $422 $460 forward $186 $-1 #
edge $-1 $461 -0.1124999999999999889 $481 0.08749999999999985567 $459 $483 forward 7 unknown #
vertex $-1 $460 $484 #
straight-curve $-1 -0.09289215686274475414 0.4644607843137255054 -0.5644607843137254832 -0.1400280084028010796 0.7001400420140049263 -0.7001400420140049263 I I #
face $-1 $335 $435 $2 $-1 $485 reversed single #
plane-surface $-1 -0.09999999999999964473 0.5 -0.4749999999999999778 -0.9805806756909201116 -0.1961161351381841278 0 0 0 1 forward_v I I I I #
straight-curve $-1 -0.3499999999999998668 0.75 -0.3500000000000001998 0.7071067811865480168 0 -0.7071067811865470176 I I #
point $-1 -0.1499999999999996614 0.75 -0.5500000000000001554 #
edge $-1 $481 -0.0707106781186551403 $432 0.07071067811865516806 $431 $486 forward 7 unknown #
point $-1 -0.1500000000000002442 0.25 -0.04999999999999963501 #
coedge $-1 $479 $451 $438 $470 forward $186 $-1 #
edge $-1 $487 -0.08749999999999966138 $471 0.1124999999999999889 $469 $488 forward 7 unknown #
vertex $-1 $480 $489 #
straight-curve $-1 0.09289215686274474026 0.4644607843137255054 -0.5644607843137254832 0.1400280084028010796 0.7001400420140049263 -0.7001400420140049263 I I #
edge $-1 $487 -0.3336809942930235584 $444 0.3143930755477621908 $455 $490 reversed 7 unknown #
straight-curve $-1 0.3499999999999997558 0.75 -0.3500000000000001443 0.7071067811865480168 0 0.7071067811865470176 I I #
point $-1 0.1499999999999996614 0.75 -0.5499999999999999334 #
edge $-1 $448 -0.07071067811865530683 $487 0.07071067811865527908 $451 $491 forward 7 unknown #
point $-1 0.1500000000000004385 0.25 -0.04999999999999963501 #
plane-surface $-1 0 0.5 -0.5999999999999999778 0 -0.7071067811865475727 -0.7071067811865475727 -1 0 0 forward_v I I I I #
coedge $-1 $459 $469 $456 $480 forward $186 $-1 #
edge $-1 $471 -0.0499999999999996142 $461 0.0499999999999996142 $479 $492 forward 7 unknown #
vertex $-1 $467 $493 #
straight-curve $-1 -0.1014880952380948775 0.507440476190476164 -0.3559523809523810756 0.1543033499620919957 -0.77151674981045959 0.6172133998483676498 I I #
straight-curve $-1 -0.0499999999999996142 0.25 -0.2374999999999999889 0 -0 1 I I #
point $-1 -0.0499999999999996142 0.25 -0.3499999999999999778 #
plane-surface $-1 -0.2249999999999999778 0.5 -0.2249999999999999778 -0.577350269189625287 -0.5773502691896259531 -0.5773502691896260641 -0.7071067811865480168 0 0.7071067811865470176 forward_v I I I I #
straight-curve $-1 -0.09999999999999992228 0.25 -0.09999999999999989453 -0.7071067811865480168 0 0.7071067811865470176 I I #
vertex $-1 $470 $494 #
straight-curve $-1 0.0499999999999996142 0.25 -0.2374999999999999889 0 0 -1 I I #
point $-1 0.0499999999999996142 0.25 -0.3499999999999999778 #
straight-curve $-1 0.1014880952380948914 0.507440476190476164 -0.3559523809523810201 -0.1543033499620920512 -0.7715167498104598121 0.6172133998483672057 I I #
straight-curve $-1 0.1000000000000000056 0.25 -0.09999999999999999167 -0.7071067811865480168 0 -0.7071067811865470176 I I #
straight-curve $-1 0 0.25 -0.3499999999999999778 -1 0 -0 I I #
point $-1 -0.0499999999999996142 0.25 -0.1500000000000001332 #
point $-1 0.04999999999999960726 0.25 -0.1500000000000003275 #
End-of-ACIS-data 