600 0 1 0           
100 GICL Pro/E ACIS Translator - Source: f:/data5/repository/PTC/V18/bboxrev2/boombox/s_screw_.prt - 6 0 13 ACIS 6.0.3 NT 24 Thu Apr 04 13:42:19 2002 
1 9.9999999999999995e-007 1e-010 
body $-1 $1 $-1 $-1 #
lump $-1 $-1 $2 $0 #
shell $-1 $-1 $-1 $3 $-1 $1 #
face $-1 $4 $5 $2 $-1 $6 forward single #
face $-1 $7 $8 $2 $-1 $9 forward single #
loop $-1 $-1 $10 $3 #
plane-surface $-1 0 -3 0 0 -1 0 -1 0 0 forward_v I I I I #
face $-1 $11 $12 $2 $-1 $13 forward single #
loop $-1 $-1 $14 $4 #
cone-surface $-1 0 0 0 0 -1 0 -0.5 0 0 1 I I 0 1 0.5 forward I I I I #
coedge $-1 $15 $15 $16 $17 forward $5 $-1 #
face $-1 $18 $19 $2 $-1 $20 forward single #
loop $-1 $-1 $21 $7 #
cone-surface $-1 0 0 0 0 -1 0 -0.5 0 0 1 I I 0 1 0.5 forward I I I I #
coedge $-1 $16 $22 $23 $24 forward $8 $-1 #
coedge $-1 $10 $10 $25 $26 forward $5 $-1 #
coedge $-1 $27 $14 $10 $17 reversed $8 $-1 #
edge $-1 $28 0 $29 3.1415926535897931 $10 $30 forward 7 unknown #
face $-1 $31 $32 $2 $-1 $33 forward single #
loop $-1 $34 $35 $11 #
plane-surface $-1 0 0 0 0 -1 0 -1 0 0 forward_v I I I I #
coedge $-1 $25 $36 $27 $37 forward $12 $-1 #
coedge $-1 $14 $27 $38 $39 forward $8 $-1 #
coedge $-1 $36 $25 $14 $24 reversed $12 $-1 #
edge $-1 $40 0 $29 3 $23 $41 forward 7 unknown #
coedge $-1 $23 $21 $15 $26 reversed $12 $-1 #
edge $-1 $29 0 $28 3.1415926535897931 $15 $42 forward 7 unknown #
coedge $-1 $22 $16 $21 $37 reversed $8 $-1 #
vertex $-1 $26 $43 #
vertex $-1 $26 $44 #
ellipse-curve $-1 0 -3 0 0 -1 0 0.5 0 0 1 I I #
face $-1 $45 $46 $2 $-1 $47 forward single #
loop $-1 $-1 $48 $18 #
cone-surface $-1 0 0.78749999999999998 0 0 -1 0 -1.125 0 0 1 I I 0 1 1.125 forward I I I I #
loop $-1 $-1 $38 $11 #
coedge $-1 $49 $49 $50 $51 reversed $19 $-1 #
coedge $-1 $21 $23 $52 $53 forward $12 $-1 #
edge $-1 $54 0 $28 3 $21 $55 forward 7 unknown #
coedge $-1 $52 $52 $22 $39 reversed $34 $-1 #
edge $-1 $54 0 $40 3.1415926535897931 $22 $56 forward 7 unknown #
vertex $-1 $53 $57 #
straight-curve $-1 -0.5 0 0 0 -1 0 I I #
ellipse-curve $-1 0 -3 0 0 -1 0 -0.5 0 0 1 I I #
point $-1 0.5 -3 0 #
point $-1 -0.5 -3 0 #
face $-1 $58 $59 $2 $-1 $60 forward single #
loop $-1 $-1 $61 $31 #
cone-surface $-1 0 0.78749999999999998 0 0 -1 0 -1.125 0 0 1 I I 0 1 1.125 forward I I I I #
coedge $-1 $50 $62 $63 $64 reversed $32 $-1 #
coedge $-1 $35 $35 $65 $66 forward $19 $-1 #
coedge $-1 $67 $48 $35 $51 forward $32 $-1 #
edge $-1 $68 0 $69 3.1415926535897931 $35 $70 forward 7 unknown #
coedge $-1 $38 $38 $36 $53 reversed $34 $-1 #
edge $-1 $40 0 $54 3.1415926535897931 $36 $71 forward 7 unknown #
vertex $-1 $53 $72 #
straight-curve $-1 0.5 0 -6.1230317691118863e-017 0 -1 0 I I #
ellipse-curve $-1 0 0 0 0 -1 0 0.5 0 0 1 I I #
point $-1 -0.5 0 0 #
face $-1 $73 $74 $2 $-1 $75 reversed single #
loop $-1 $-1 $76 $45 #
torus-surface $-1 0 0.34999999999999998 0 0 -1 0 0.72499999999999998 0.39999999999999997 -0.99995441034266763 0 -0.0095486771988384529 forward_v I I I I #
coedge $-1 $65 $77 $67 $78 reversed $46 $-1 #
coedge $-1 $48 $67 $79 $80 reversed $32 $-1 #
coedge $-1 $77 $65 $48 $64 forward $46 $-1 #
edge $-1 $68 0 $81 0.34999999999999998 $63 $82 forward 7 unknown #
coedge $-1 $63 $61 $49 $66 reversed $46 $-1 #
edge $-1 $68 0 $69 3.1415926535897931 $49 $83 forward 7 unknown #
coedge $-1 $62 $50 $61 $78 forward $32 $-1 #
vertex $-1 $66 $84 #
vertex $-1 $66 $85 #
ellipse-curve $-1 0 0 -5.5511151231257827e-017 0 1 0 1.125 0 1.9327936603627527e-016 1 I I #
ellipse-curve $-1 0 0 0 0 -1 0 -0.5 0 0 1 I I #
point $-1 0.5 0 0 #
face $-1 $86 $87 $2 $-1 $88 reversed single #
loop $-1 $-1 $89 $58 #
plane-surface $-1 0 0.5 0.59999999999999998 0 -0.70710678118654757 0.70710678118654757 1 0 0 forward_v I I I I #
tcoedge-coedge $-1 $90 $91 $92 $93 forward $59 $94 0 0.11405530472631097 #
coedge $-1 $61 $63 $95 $96 reversed $46 $-1 #
edge $-1 $69 0 $97 0.34999999999999998 $61 $98 forward 7 unknown #
coedge $-1 $99 $100 $62 $80 forward $101 $-1 #
edge $-1 $81 -4.6462139691172402e-012 $97 3.1415926535897931 $62 $102 forward 7 unknown #
vertex $-1 $96 $103 #
straight-curve $-1 1.125 0 1.3776821480501744e-016 0 1 0 I I #
ellipse-curve $-1 0 0 0 0 -1 0 1.125 0 1.3776821480501744e-016 1 I I #
point $-1 1.125 0 1.3776821480501744e-016 #
point $-1 -1.125 0 0 #
face $-1 $104 $105 $2 $-1 $106 reversed single #
loop $-1 $-1 $107 $73 #
plane-surface $-1 0.099999999999999645 0.5 0.47499999999999998 0.98058067569092011 -0.19611613513818413 0 0 0 -1 forward_v I I I I #
coedge $-1 $108 $92 $109 $110 reversed $74 $-1 #
coedge $-1 $111 $76 $112 $113 forward $59 $-1 #
coedge $-1 $76 $114 $115 $116 forward $59 $-1 #
tcoedge-coedge $-1 $89 $117 $76 $93 reversed $74 $118 -0.11405530472631097 0 #
tedge-edge $-1 $119 0 $120 0.11405530472631097 $76 $121 forward 7 unknown 2.2388431493653047e-005 #
pcurve $-1 0 forward { exppc nubs 2 open 7 
	0 2 0.01900921745438516 2 0.03801843490877032 2 0.057027652363155483 2 0.076036869817540639 2 
	0.095046087271925803 2 0.11405530472631097 2 
	-1.2673948195582301 -1.7545160686401842 
	-1.2759096603371956 -1.7258396263124856 
	-1.2816052827061475 -1.696921161933413 
	-1.2873162064109951 -1.6679250078641907 
	-1.2901779082252807 -1.6387735794672391 
	-1.2930430431747471 -1.6095871785955533 
	-1.2930430431747471 -1.5803451491033551 
	-1.2930430431747471 -1.5511031196111604 
	-1.2901779082252804 -1.5219167187394711 
	-1.2873162064109946 -1.4927652903425188 
	-1.2816052827061473 -1.4637691362732972 
	-1.2759096603371947 -1.4348506718942216 
	-1.2673948195582301 -1.406174229566526 
	0.001 
	torus 0 0.34999999999999998 0 0 -1 0 0.72499999999999998 0.39999999999999997 -0.99995441034266763 0 -0.0095486771988384529 forward_v I I I I 
	} 0 0 #
coedge $-1 $122 $123 $77 $96 forward $59 $-1 #
edge $-1 $97 0 $81 3.1415926535851471 $77 $124 forward 7 unknown #
vertex $-1 $96 $125 #
straight-curve $-1 -1.125 0 -2.7553642961003488e-016 0 1 0 I I #
coedge $-1 $126 $79 $123 $127 reversed $101 $-1 #
coedge $-1 $79 $128 $122 $129 forward $101 $-1 #
loop $-1 $-1 $100 $130 #
ellipse-curve $-1 0 0.34999999999999998 0 0 1 0 1.1249999999999998 0 1.543079376560324e-011 1 I I #
point $-1 1.1249999999999998 0.34999999999999998 2.0657784480860136e-011 #
face $-1 $131 $132 $2 $-1 $133 reversed single #
loop $-1 $-1 $134 $86 #
plane-surface $-1 0.22499999999999998 0.5 0.22499999999999998 0.57735026918962529 -0.57735026918962595 0.57735026918962606 0.70710678118654802 0 -0.70710678118654702 forward_v I I I I #
coedge $-1 $135 $136 $137 $138 reversed $87 $-1 #
coedge $-1 $117 $89 $139 $140 reversed $74 $-1 #
coedge $-1 $115 $135 $89 $110 forward $87 $-1 #
edge $-1 $141 -1.0493706533930629e-016 $119 0.68804849197984841 $109 $142 forward 7 unknown #
coedge $-1 $143 $90 $144 $145 reversed $59 $-1 #
coedge $-1 $146 $147 $90 $113 reversed $148 $-1 #
edge $-1 $120 0 $149 1 $90 $150 forward 7 unknown #
coedge $-1 $91 $151 $152 $153 reversed $59 $-1 #
coedge $-1 $136 $109 $91 $116 reversed $87 $-1 #
edge $-1 $154 0 $119 1 $91 $155 forward 7 unknown #
coedge $-1 $92 $108 $146 $156 forward $74 $-1 #
pcurve $-1 0 forward { exppc nurbs 2 open 2 
	-0.11405530472631097 2 0 2 
	-0.14634606001648881 0.3277161331893792 1 
	1.3877787807814457e-015 0.33607096445254814 0.99837436407283064 
	0.14634606001648887 0.32771613318937942 1 
	0 
	plane 0 0.5 0.59999999999999998 0 0.70710678118654757 -0.70710678118654757 1 0 0 reverse_v I I I I 
	} 0 0 #
tvertex-vertex $-1 $116 $157 4.4495572620543707e-016 #
tvertex-vertex $-1 $113 $158 5.0876810486276012e-016 #
ellipse-curve $-1 6.9388939039072284e-018 -1.080900638393913 -0.98090063839391306 0 -0.70710678118654757 0.70710678118654746 0.14634606001648887 1.8126309384763568 1.812630938476357 1 F 0 F 0.11405530472631097 #
coedge $-1 $159 $95 $100 $129 reversed $59 $-1 #
coedge $-1 $95 $160 $99 $127 forward $59 $-1 #
ellipse-curve $-1 0 0.34999999999999998 0 0 1 0 -1.1249999999999998 0 -1.5430828759163013e-011 1 I I #
point $-1 -1.1249999999999998 0.34999999999999998 -1.5430828759163013e-011 #
coedge $-1 $161 $99 $162 $163 forward $101 $-1 #
edge $-1 $164 0 $97 1.2930607060672969 $123 $165 forward 7 unknown #
coedge $-1 $100 $166 $167 $168 forward $101 $-1 #
edge $-1 $169 0 $81 1.2930607060672963 $122 $170 forward 7 unknown #
face $-1 $171 $101 $2 $-1 $172 forward single #
face $-1 $130 $173 $2 $-1 $174 reversed single #
loop $-1 $-1 $175 $104 #
plane-surface $-1 0.47499999999999998 0.5 0.099999999999999645 0 -0.19611613513818407 0.98058067569092022 1 0 0 forward_v I I I I #
coedge $-1 $176 $177 $178 $179 reversed $105 $-1 #
coedge $-1 $109 $107 $180 $181 reversed $87 $-1 #
coedge $-1 $107 $115 $182 $183 forward $87 $-1 #
coedge $-1 $177 $176 $107 $138 forward $105 $-1 #
edge $-1 $184 -1.4989724041661911e-017 $185 0.64807406984078597 $107 $186 forward 7 unknown #
coedge $-1 $180 $187 $108 $140 forward $188 $-1 #
edge $-1 $189 0 $141 0.099999999999999992 $139 $190 forward 7 unknown #
vertex $-1 $181 $191 #
straight-curve $-1 0.049999999999999635 0.25000000000000011 0.35000000000000009 0.14002800840280105 0.70014004201400493 0.70014004201400493 I I #
coedge $-1 $160 $111 $192 $193 forward $59 $-1 #
coedge $-1 $194 $195 $111 $145 forward $196 $-1 #
edge $-1 $197 0 $149 1.153992713611401 $144 $198 forward 7 unknown #
coedge $-1 $199 $112 $117 $156 reversed $148 $-1 #
coedge $-1 $112 $200 $194 $201 reversed $148 $-1 #
loop $-1 $-1 $112 $202 #
vertex $-1 $201 $203 #
intcurve-curve $-1 forward { surfintcur full nurbs 3 open 4 
	0 3 0.33345217865693644 1 0.66681904102277401 1 1 3 
	-0.14634606001648887 0.73173030008244377 0.83173030008244397 1 
	-0.14715407448224047 0.7357703724112018 0.81847371021083937 1 
	-0.14850201470529006 0.74251007352644993 0.79172709788200346 1 
	-0.14972799235395073 0.74863996176975378 0.750635710227881 0.99999999999999978 
	-0.14999939173581864 0.74999695867909311 0.72313352351283822 1 
	-0.14999999999999999 0.75 0.70931304795555528 1 
	0.001 
	plane -0.099999999999999645 0.5 0.47499999999999998 -0.98058067569092011 -0.19611613513818413 0 0 0 1 forward_v I I I I 
	torus 0 0.34999999999999998 0 0 -1 0 0.72499999999999998 0.39999999999999997 -0.99995441034266763 0 -0.0095486771988384529 forward_v I I I I 
	nullbs 
	nullbs 
	I I 
	0 
	0 
	0 
	} I I #
coedge $-1 $114 $159 $175 $204 forward $59 $-1 #
coedge $-1 $205 $182 $114 $153 forward $206 $-1 #
edge $-1 $154 2.6402450050538815e-017 $207 1.1539927136114019 $152 $208 forward 7 unknown #
vertex $-1 $183 $209 #
intcurve-curve $-1 forward { surfintcur full nurbs 3 open 4 
	0 3 0.33317024174791587 1 0.66654453566029193 1 1 3 
	0.14999999999999997 0.75 0.70931304795555516 1 
	0.14999943635503535 0.74999718177517694 0.72313062388713301 1 
	0.14972810581255547 0.74864052906277756 0.7506294665497244 1.0000000000000002 
	0.1485020865193539 0.74251043259676941 0.79172615185187489 0.99999999999999978 
	0.14715410138790985 0.73577050693954871 0.81847344096316765 1 
	0.14634606001648887 0.73173030008244377 0.83173030008244397 1 
	0.001 
	plane 0.099999999999999645 0.5 0.47499999999999998 0.98058067569092011 -0.19611613513818413 0 0 0 -1 forward_v I I I I 
	torus 0 0.34999999999999998 0 0 -1 0 0.72499999999999998 0.39999999999999997 -0.99995441034266763 0 -0.0095486771988384529 forward_v I I I I 
	nullbs 
	nullbs 
	I I 
	0 
	0 
	0 
	} I I #
edge $-1 $189 -6.8014764571772601e-017 $120 0.68804849197984841 $146 $210 forward 7 unknown #
point $-1 0.14634606001648887 0.73173030008244377 0.83173030008244397 #
point $-1 -0.14634606001648887 0.73173030008244377 0.83173030008244397 #
coedge $-1 $151 $122 $211 $212 forward $59 $-1 #
coedge $-1 $123 $143 $213 $214 forward $59 $-1 #
coedge $-1 $215 $126 $216 $217 forward $101 $-1 #
coedge $-1 $213 $218 $126 $163 reversed $219 $-1 #
edge $-1 $164 0 $220 1 $126 $221 forward 7 unknown #
vertex $-1 $127 $222 #
ellipse-curve $-1 -0.72499999999999987 0.34999999999999998 -1.0626225165721847e-011 -1.2011508983602918e-011 -1.18883792335996e-011 1 -0.10967149916605801 0.3846714991660668 3.2558004649651895e-012 1 I I #
coedge $-1 $128 $223 $224 $225 forward $101 $-1 #
coedge $-1 $226 $211 $128 $168 reversed $173 $-1 #
edge $-1 $227 0 $169 1 $128 $228 forward 7 unknown #
vertex $-1 $212 $229 #
ellipse-curve $-1 0.72499999999999964 0.34999999999999981 1.0625681716572066e-011 1.2012780122577941e-011 -1.1887772777885411e-011 -1 0.10967149916605812 0.38467149916606697 -3.2554277710193952e-012 1 I I #
face $-1 $230 $219 $2 $-1 $231 reversed single #
torus-surface $-1 0 0.34999999999999998 0 0 -1 0 0.72499999999999998 0.39999999999999997 0.99995441034266763 0 0.0095486771988384216 forward_v I I I I #
loop $-1 $-1 $167 $131 #
plane-surface $-1 0.59999999999999998 0.5 0 0.70710678118654757 -0.70710678118654757 0 0 0 -1 forward_v I I I I #
coedge $-1 $232 $233 $151 $204 reversed $132 $-1 #
coedge $-1 $137 $134 $234 $235 reversed $105 $-1 #
coedge $-1 $134 $137 $236 $237 forward $105 $-1 #
coedge $-1 $233 $238 $134 $179 forward $132 $-1 #
edge $-1 $239 -3.2120837232133419e-018 $240 0.64807406984078586 $134 $241 forward 7 unknown #
coedge $-1 $234 $139 $135 $181 forward $188 $-1 #
edge $-1 $141 0 $184 0.19999999999999998 $180 $242 forward 7 unknown #
coedge $-1 $152 $236 $136 $183 reversed $206 $-1 #
edge $-1 $154 0 $185 0.15931304795555523 $182 $243 forward 7 unknown #
vertex $-1 $181 $244 #
vertex $-1 $183 $245 #
straight-curve $-1 0.049999999999999649 0.25000000000000011 0.14999999999999997 0.154303349962092 0.77151674981045959 0.61721339984836754 I I #
coedge $-1 $139 $246 $199 $247 forward $188 $-1 #
loop $-1 $-1 $234 $248 #
vertex $-1 $140 $249 #
straight-curve $-1 -0.049999999999999996 0.25 0.34999999999999998 1 0 0 I I #
point $-1 0.049999999999999996 0.25 0.34999999999999998 #
coedge $-1 $250 $251 $143 $193 reversed $252 $-1 #
edge $-1 $197 0 $253 1 $143 $254 forward 7 unknown #
coedge $-1 $255 $144 $147 $201 forward $196 $-1 #
coedge $-1 $144 $255 $250 $256 reversed $196 $-1 #
loop $-1 $-1 $144 $257 #
vertex $-1 $256 $258 #
ellipse-curve $-1 2.4980018054066022e-016 0.75 -3.0531133177191805e-016 0 1 0 -0.7093130479555555 0 0.1500000000000003 1 I I #
coedge $-1 $200 $146 $187 $247 reversed $148 $-1 #
coedge $-1 $147 $199 $259 $260 forward $148 $-1 #
edge $-1 $149 0 $261 0.15931304795555523 $194 $262 forward 7 unknown #
face $-1 $248 $148 $2 $-1 $263 reversed single #
point $-1 -0.14999999999999999 0.75 0.70931304795555516 #
edge $-1 $264 0 $207 1 $151 $265 forward 7 unknown #
coedge $-1 $236 $152 $233 $266 forward $206 $-1 #
loop $-1 $-1 $152 $267 #
vertex $-1 $266 $268 #
ellipse-curve $-1 8.3266726846886741e-017 0.75 0 0 1 0 0.14999999999999988 0 0.70931304795555516 1 I I #
point $-1 0.14999999999999999 0.75 0.70931304795555516 #
straight-curve $-1 -0.049999999999999649 0.25000000000000011 0.35000000000000003 -0.14002800840280102 0.70014004201400493 0.70014004201400482 I I #
coedge $-1 $167 $269 $159 $212 reversed $173 $-1 #
edge $-1 $169 0 $264 1 $159 $270 forward 7 unknown #
coedge $-1 $271 $162 $160 $214 reversed $219 $-1 #
edge $-1 $253 0 $164 1 $160 $272 forward 7 unknown #
coedge $-1 $273 $161 $274 $275 reversed $101 $-1 #
coedge $-1 $276 $277 $161 $217 reversed $278 $-1 #
edge $-1 $220 0 $279 1 $161 $280 forward 7 unknown #
coedge $-1 $162 $281 $276 $282 forward $219 $-1 #
loop $-1 $-1 $271 $171 #
vertex $-1 $217 $283 #
intcurve-curve $-1 forward { surfintcur full nurbs 3 open 4 
	0 3 0.33266005629673123 1 0.66599437996506161 1 1 3 
	-0.83467149916605776 0.73467149916606678 -7.3702070128357843e-012 1 
	-0.8346750311602128 0.73467503116021737 -0.016090662698762144 1.0000000000000002 
	-0.8344629367803158 0.73446293678031371 -0.048396132653138399 0.99999999999999989 
	-0.8335168945202508 0.73351689452025137 -0.097192526651978139 1 
	-0.8324032649220241 0.73240326492202401 -0.12992142464728448 1 
	-0.83173030008244397 0.73173030008244377 -0.1463460600164887 1 
	0.001 
	plane -0.59999999999999998 0.5 0 -0.70710678118654757 -0.70710678118654757 0 0 0 1 forward_v I I I I 
	torus 0 0.34999999999999998 0 0 -1 0 0.72499999999999998 0.39999999999999997 0.99995441034266763 0 0.0095486771988384216 forward_v I I I I 
	nullbs 
	nullbs 
	I I 
	0 
	0 
	0 
	} I I #
point $-1 -0.83467149916605787 0.73467149916606678 -7.3704247007566577e-012 #
coedge $-1 $166 $284 $285 $286 reversed $101 $-1 #
coedge $-1 $287 $288 $166 $225 reversed $289 $-1 #
edge $-1 $290 0 $227 1 $166 $291 forward 7 unknown #
coedge $-1 $292 $167 $288 $293 reversed $173 $-1 #
vertex $-1 $168 $294 #
intcurve-curve $-1 forward { surfintcur full nurbs 3 open 4 
	0 3 0.33402185785302607 1 0.66735635222239831 1 1 3 
	0.83173030008244397 0.73173030008244377 -0.14634606001648881 1 
	0.83240340789468703 0.73240340789468705 -0.12991707981551157 1 
	0.83351719850788641 0.73351719850788699 -0.097182660373852495 1.0000000000000002 
	0.83446302615616386 0.73446302615616199 -0.048386089088154782 1 
	0.83467506145511727 0.73467506145512185 -0.0160862474730495 1 
	0.83467149916605776 0.73467149916606678 7.3702539455526706e-012 1 
	0.001 
	plane 0.59999999999999998 0.5 0 0.70710678118654757 -0.70710678118654757 0 0 0 -1 forward_v I I I I 
	torus 0 0.34999999999999998 0 0 -1 0 0.72499999999999998 0.39999999999999997 0.99995441034266763 0 0.0095486771988384216 forward_v I I I I 
	nullbs 
	nullbs 
	I I 
	0 
	0 
	0 
	} I I #
point $-1 0.83467149916605776 0.73467149916606678 7.3702539455526706e-012 #
face $-1 $295 $252 $2 $-1 $296 reversed single #
plane-surface $-1 -0.59999999999999998 0.5 0 -0.70710678118654757 -0.70710678118654757 0 0 0 1 forward_v I I I I #
coedge $-1 $238 $175 $269 $297 reversed $132 $-1 #
coedge $-1 $175 $178 $205 $266 reversed $132 $-1 #
coedge $-1 $298 $180 $176 $235 forward $188 $-1 #
edge $-1 $184 4.9065389333868868e-018 $239 0.14142135623730953 $234 $299 forward 7 unknown #
coedge $-1 $182 $205 $177 $237 reversed $206 $-1 #
edge $-1 $185 -5.8878467200641535e-017 $240 0.5656854249492379 $236 $300 forward 7 unknown #
coedge $-1 $178 $232 $298 $301 reversed $132 $-1 #
vertex $-1 $301 $302 #
vertex $-1 $237 $303 #
straight-curve $-1 0.15000000000000013 0.24999999999999994 0.049999999999999739 0.61721339984836798 0.77151674981045926 0.15430334996209188 I I #
straight-curve $-1 0.049999999999999635 0.25000000000000011 0.34999999999999998 0 0 -1 I I #
straight-curve $-1 0.14999999999999969 0.75 0.70931304795555516 0 0 -1 I I #
point $-1 0.049999999999999996 0.25 0.14999999999999999 #
point $-1 0.14999999999999999 0.75 0.54999999999999993 #
coedge $-1 $187 $304 $305 $306 forward $188 $-1 #
edge $-1 $307 -2.7755575615628914e-017 $189 0.19999999999999996 $187 $308 forward 7 unknown #
face $-1 $309 $188 $2 $-1 $310 forward single #
point $-1 -0.049999999999999996 0.25 0.34999999999999998 #
coedge $-1 $311 $192 $195 $256 forward $252 $-1 #
coedge $-1 $192 $312 $271 $313 forward $252 $-1 #
loop $-1 $-1 $311 $230 #
vertex $-1 $214 $314 #
intcurve-curve $-1 forward { surfintcur full nurbs 3 open 4 
	0 3 0.33317024174791543 1 0.6665445356602917 1 1 3 
	-0.70931304795555528 0.75 0.14999999999999999 1 
	-0.72313062388713312 0.74999718177517682 0.1499994363550354 1.0000000000000002 
	-0.7506294665497244 0.74864052906277778 0.14972810581255552 1 
	-0.79172615185187489 0.74251043259676941 0.14850208651935393 1 
	-0.81847344096316765 0.73577050693954871 0.14715410138790977 1 
	-0.83173030008244397 0.73173030008244377 0.14634606001648881 1 
	0.001 
	plane -0.47499999999999998 0.5 0.099999999999999645 0 -0.19611613513818396 0.98058067569092022 1 0 0 forward_v I I I I 
	torus 0 0.34999999999999998 0 0 -1 0 0.72499999999999998 0.39999999999999997 -0.99995441034266763 0 -0.0095486771988384529 forward_v I I I I 
	nullbs 
	nullbs 
	I I 
	0 
	0 
	0 
	} I I #
coedge $-1 $195 $194 $315 $316 reversed $196 $-1 #
edge $-1 $197 0 $317 0.15931304795555534 $195 $318 forward 7 unknown #
face $-1 $267 $196 $2 $-1 $319 reversed single #
point $-1 -0.70931304795555528 0.75 0.14999999999999999 #
coedge $-1 $305 $315 $200 $260 reversed $320 $-1 #
edge $-1 $307 -1.6060418616066247e-017 $261 0.64807406984078608 $259 $321 forward 7 unknown #
vertex $-1 $316 $322 #
straight-curve $-1 -0.14999999999999969 0.75 0.70931304795555516 0 0 -1 I I #
plane-surface $-1 -0.099999999999999645 0.5 0.47499999999999998 -0.98058067569092011 -0.19611613513818413 0 0 0 1 forward_v I I I I #
vertex $-1 $204 $323 #
intcurve-curve $-1 forward { surfintcur full nurbs 3 open 4 
	0 3 0.33345217865693588 1 0.66681904102277434 1 1 3 
	0.83173030008244397 0.73173030008244377 0.14634606001648873 1 
	0.8184737102108397 0.73577037241120191 0.14715407448224047 1 
	0.79172709788200379 0.74251007352644982 0.14850201470529015 1.0000000000000002 
	0.75063571022788056 0.74863996176975367 0.14972799235395076 0.99999999999999989 
	0.72313352351283799 0.74999695867909311 0.14999939173581855 1 
	0.70931304795555528 0.75 0.14999999999999986 1 
	0.001 
	plane 0.47499999999999998 0.5 0.099999999999999645 0 -0.19611613513818407 0.98058067569092022 1 0 0 forward_v I I I I 
	torus 0 0.34999999999999998 0 0 -1 0 0.72499999999999998 0.39999999999999997 -0.99995441034266763 0 -0.0095486771988384529 forward_v I I I I 
	nullbs 
	nullbs 
	I I 
	0 
	0 
	0 
	} I I #
edge $-1 $207 0 $240 0.15931304795555534 $205 $324 forward 7 unknown #
face $-1 $-1 $206 $2 $-1 $325 reversed single #
point $-1 0.70931304795555528 0.75 0.14999999999999999 #
coedge $-1 $211 $292 $232 $297 forward $173 $-1 #
intcurve-curve $-1 forward { surfintcur full nurbs 3 open 4 
	0 3 0.33266005629673101 1 0.66599437996506183 1 1 3 
	0.83467149916605787 0.73467149916606678 7.36986250672248e-012 1 
	0.83467503116021291 0.73467503116021726 0.016090662698761742 1.0000000000000002 
	0.83446293678031591 0.73446293678031371 0.048396132653137997 1 
	0.83351689452025057 0.73351689452025104 0.097192526651978209 1 
	0.83240326492202432 0.73240326492202423 0.12992142464728459 1 
	0.83173030008244397 0.73173030008244377 0.14634606001648873 1 
	0.001 
	plane 0.59999999999999998 0.5 0 0.70710678118654757 -0.70710678118654757 0 0 0 -1 forward_v I I I I 
	torus 0 0.34999999999999998 0 0 -1 0 0.72499999999999998 0.39999999999999997 -0.99995441034266763 0 -0.0095486771988384529 forward_v I I I I 
	nullbs 
	nullbs 
	I I 
	0 
	0 
	0 
	} I I #
coedge $-1 $281 $213 $251 $313 reversed $219 $-1 #
intcurve-curve $-1 forward { surfintcur full nurbs 3 open 4 
	0 3 0.33402185785302585 1 0.66735635222239809 1 1 3 
	-0.83173030008244397 0.73173030008244377 0.14634606001648881 1 
	-0.83240340789468703 0.73240340789468694 0.12991707981551159 1 
	-0.8335171985078863 0.7335171985078871 0.097182660373852564 1 
	-0.83446302615616397 0.73446302615616188 0.048386089088154803 1.0000000000000002 
	-0.8346750614551175 0.73467506145512185 0.016086247473049414 0.99999999999999989 
	-0.83467149916605787 0.73467149916606678 -7.3704247007566577e-012 1 
	0.001 
	plane -0.59999999999999998 0.5 0 -0.70710678118654757 -0.70710678118654757 0 0 0 1 forward_v I I I I 
	torus 0 0.34999999999999998 0 0 -1 0 0.72499999999999998 0.39999999999999997 -0.99995441034266763 0 -0.0095486771988384529 forward_v I I I I 
	nullbs 
	nullbs 
	I I 
	0 
	0 
	0 
	} I I #
coedge $-1 $326 $215 $327 $328 forward $101 $-1 #
coedge $-1 $329 $330 $215 $275 forward $331 $-1 #
edge $-1 $332 0 $279 1.1539927136114032 $274 $333 forward 7 unknown #
coedge $-1 $334 $216 $218 $282 reversed $278 $-1 #
coedge $-1 $216 $335 $329 $336 reversed $278 $-1 #
loop $-1 $-1 $216 $337 #
vertex $-1 $336 $338 #
intcurve-curve $-1 forward { surfintcur full nurbs 3 open 4 
	0 3 0.33345217865693666 1 0.66681904102277445 1 1 3 
	-0.83173030008244397 0.73173030008244377 -0.1463460600164887 1 
	-0.81847371021083926 0.73577037241120169 -0.14715407448224038 1 
	-0.79172709788200368 0.74251007352644982 -0.14850201470529006 0.99999999999999978 
	-0.75063571022788034 0.74863996176975378 -0.14972799235395076 1 
	-0.72313352351283811 0.74999695867909322 -0.14999939173581855 1 
	-0.70931304795555528 0.75 -0.14999999999999986 1 
	0.001 
	plane -0.47499999999999998 0.5 -0.099999999999999645 0 -0.19611613513818407 -0.98058067569092022 -1 0 0 forward_v I I I I 
	torus 0 0.34999999999999998 0 0 -1 0 0.72499999999999998 0.39999999999999997 0.99995441034266763 0 0.0095486771988384216 forward_v I I I I 
	nullbs 
	nullbs 
	I I 
	0 
	0 
	0 
	} I I #
coedge $-1 $218 $271 $339 $340 reversed $219 $-1 #
edge $-1 $341 -6.995804355953756e-017 $220 0.68804849197984885 $276 $342 forward 7 unknown #
point $-1 -0.83173030008244397 0.731730300082444 -0.14634606001648881 #
coedge $-1 $223 $326 $343 $344 forward $101 $-1 #
coedge $-1 $345 $346 $223 $286 forward $347 $-1 #
edge $-1 $290 -7.9207350151616421e-017 $348 1.1539927136114014 $285 $349 forward 7 unknown #
coedge $-1 $350 $224 $346 $351 forward $289 $-1 #
coedge $-1 $224 $352 $226 $293 forward $289 $-1 #
loop $-1 $-1 $350 $309 #
vertex $-1 $351 $353 #
intcurve-curve $-1 forward { surfintcur full nurbs 3 open 4 
	0 3 0.33317024174791565 1 0.66654453566029104 1 1 3 
	0.70931304795555528 0.75 -0.15000000000000005 1 
	0.72313062388713312 0.74999718177517682 -0.14999943635503543 1.0000000000000002 
	0.75062946654972473 0.74864052906277778 -0.14972810581255555 0.99999999999999978 
	0.79172615185187423 0.74251043259676941 -0.1485020865193539 1.0000000000000002 
	0.81847344096316754 0.73577050693954882 -0.14715410138790977 1 
	0.83173030008244397 0.73173030008244377 -0.14634606001648881 1 
	0.001 
	plane 0.47499999999999998 0.5 -0.099999999999999645 0 -0.19611613513818407 -0.98058067569092022 -1 0 0 forward_v I I I I 
	torus 0 0.34999999999999998 0 0 -1 0 0.72499999999999998 0.39999999999999997 0.99995441034266763 0 0.0095486771988384216 forward_v I I I I 
	nullbs 
	nullbs 
	I I 
	0 
	0 
	0 
	} I I #
coedge $-1 $269 $226 $354 $355 reversed $173 $-1 #
edge $-1 $356 4.8581974694123289e-017 $227 0.68804849197984863 $226 $357 forward 7 unknown #
point $-1 0.83173030008244397 0.73173030008244377 -0.14634606001648881 #
face $-1 $202 $320 $2 $-1 $358 reversed single #
plane-surface $-1 -0.47499999999999998 0.5 0.099999999999999645 0 -0.19611613513818396 0.98058067569092022 1 0 0 forward_v I I I I #
edge $-1 $359 -6.9958043559537548e-017 $264 0.68804849197984874 $232 $360 forward 7 unknown #
coedge $-1 $354 $234 $238 $301 forward $188 $-1 #
straight-curve $-1 0.049999999999999906 0.25000000000000006 0.14999999999999991 0.70710678118654779 -3.9252311467094368e-016 -0.70710678118654702 I I #
straight-curve $-1 0.14999999999999997 0.75 0.54999999999999982 0.70710678118654779 -1.9626155733547191e-016 -0.70710678118654713 I I #
edge $-1 $239 -2.7755575615628914e-017 $359 0.19999999999999996 $298 $361 forward 7 unknown #
point $-1 0.14999999999999999 0.25 0.049999999999999996 #
point $-1 0.54999999999999993 0.75 0.14999999999999999 #
coedge $-1 $246 $339 $312 $362 forward $188 $-1 #
coedge $-1 $363 $259 $246 $306 reversed $320 $-1 #
edge $-1 $364 4.9065389333868428e-018 $307 0.1414213562373095 $246 $365 forward 7 unknown #
vertex $-1 $247 $366 #
straight-curve $-1 -0.049999999999999635 0.25000000000000011 0.15000000000000002 0 0 1 I I #
face $-1 $367 $289 $2 $-1 $368 reversed single #
plane-surface $-1 0 0.25 0 0 1 0 -1 0 0 forward_v I I I I #
coedge $-1 $312 $250 $363 $369 reversed $252 $-1 #
coedge $-1 $251 $311 $304 $362 reversed $252 $-1 #
edge $-1 $370 4.4695416718593414e-017 $253 0.68804849197984863 $271 $371 forward 7 unknown #
point $-1 -0.83173030008244397 0.73173030008244377 0.14634606001648881 #
coedge $-1 $259 $363 $255 $316 forward $320 $-1 #
edge $-1 $317 1.9626155733547276e-017 $261 0.56568542494923812 $255 $372 forward 7 unknown #
vertex $-1 $256 $373 #
straight-curve $-1 -0.70931304795555528 0.75000000000000011 0.14999999999999963 1 0 0 I I #
plane-surface $-1 0 0.75 0 0 -1 0 -1 0 0 forward_v I I I I #
loop $-1 $-1 $259 $295 #
straight-curve $-1 -0.049999999999999711 0.24999999999999994 0.15000000000000016 -0.15430334996209211 0.77151674981045981 0.61721339984836743 I I #
point $-1 -0.14999999999999999 0.75 0.54999999999999993 #
point $-1 0.83173030008244397 0.73173030008244377 0.14634606001648873 #
straight-curve $-1 0.70931304795555528 0.75000000000000011 0.14999999999999969 -1 0 0 I I #
plane-surface $-1 0 0.75 0 0 -1 0 -1 0 0 forward_v I I I I #
tcoedge-coedge $-1 $284 $273 $374 $375 forward $101 $376 0 0.11405530472631108 #
coedge $-1 $377 $378 $273 $328 reversed $379 $-1 #
edge $-1 $332 0 $380 1 $273 $381 forward 7 unknown #
coedge $-1 $382 $274 $277 $336 forward $331 $-1 #
coedge $-1 $274 $382 $377 $383 reversed $331 $-1 #
loop $-1 $-1 $274 $384 #
vertex $-1 $383 $385 #
ellipse-curve $-1 -7.2164496600635175e-016 0.75 -6.6613381477509392e-016 0 1 0 -0.14999999999999927 0 -0.7093130479555545 1 I I #
coedge $-1 $335 $276 $386 $387 reversed $278 $-1 #
coedge $-1 $277 $334 $388 $389 forward $278 $-1 #
edge $-1 $279 0 $390 0.15931304795555534 $329 $391 forward 7 unknown #
face $-1 $384 $278 $2 $-1 $392 reversed single #
point $-1 -0.70931304795555528 0.75 -0.14999999999999999 #
coedge $-1 $304 $386 $281 $340 forward $188 $-1 #
edge $-1 $341 0 $370 0.099999999999999992 $339 $393 forward 7 unknown #
vertex $-1 $340 $394 #
straight-curve $-1 -0.35000000000000003 0.25000000000000011 -0.049999999999999663 -0.70014004201400482 0.70014004201400493 -0.140028008402801 I I #
coedge $-1 $395 $396 $284 $344 reversed $397 $-1 #
edge $-1 $398 0 $348 1 $284 $399 forward 7 unknown #
coedge $-1 $400 $285 $396 $401 forward $347 $-1 #
coedge $-1 $285 $400 $287 $351 reversed $347 $-1 #
loop $-1 $-1 $285 $402 #
vertex $-1 $401 $403 #
ellipse-curve $-1 0 0.75 8.3266726846886741e-017 0 1 0 0.70931304795555528 0 -0.15000000000000013 1 I I #
coedge $-1 $352 $287 $404 $405 reversed $289 $-1 #
edge $-1 $290 0 $406 0.15931304795555534 $346 $407 forward 7 unknown #
coedge $-1 $288 $350 $408 $409 reversed $289 $-1 #
point $-1 0.70931304795555528 0.75 -0.14999999999999999 #
coedge $-1 $408 $298 $292 $355 forward $188 $-1 #
edge $-1 $359 0 $356 0.099999999999999992 $354 $410 forward 7 unknown #
vertex $-1 $409 $411 #
straight-curve $-1 0.34999999999999998 0.25 -0.049999999999999649 0.70014004201400493 0.70014004201400493 -0.14002800840280097 I I #
plane-surface $-1 -0.22499999999999998 0.5 0.22499999999999998 -0.5773502691896254 -0.57735026918962573 0.57735026918962629 0.70710678118654802 0 0.70710678118654702 forward_v I I I I #
vertex $-1 $355 $412 #
straight-curve $-1 0.35000000000000003 0.25000000000000011 0.049999999999999663 0.70014004201400482 0.70014004201400493 0.14002800840280102 I I #
straight-curve $-1 0.15000000000000002 0.25000000000000006 0.049999999999999649 1 0 0 I I #
edge $-1 $370 0 $364 0.19999999999999998 $304 $413 forward 7 unknown #
coedge $-1 $315 $305 $311 $369 forward $320 $-1 #
vertex $-1 $306 $414 #
straight-curve $-1 -0.15000000000000002 0.24999999999999994 0.050000000000000017 0.70710678118654802 3.9252311467094378e-016 0.70710678118654702 I I #
point $-1 -0.049999999999999996 0.25 0.14999999999999999 #
face $-1 $415 $416 $2 $-1 $417 reversed single #
plane-surface $-1 0.47499999999999998 0.5 -0.099999999999999645 0 -0.19611613513818407 -0.98058067569092022 -1 0 0 forward_v I I I I #
edge $-1 $364 6.7453758187478664e-017 $317 0.64807406984078619 $311 $418 forward 7 unknown #
vertex $-1 $362 $419 #
straight-curve $-1 -0.34999999999999998 0.25 0.049999999999999677 -0.70014004201400493 0.70014004201400493 0.14002800840280094 I I #
straight-curve $-1 -0.55000000000000004 0.74999999999999989 0.15000000000000008 0.70710678118654779 1.9626155733547189e-016 0.70710678118654713 I I #
point $-1 -0.54999999999999993 0.75 0.14999999999999999 #
tcoedge-coedge $-1 $420 $421 $326 $375 reversed $422 $423 -0.11405530472631108 0 #
tedge-edge $-1 $380 0 $398 0.11405530472631108 $326 $424 forward 7 unknown 2.2388431493463674e-005 #
pcurve $-1 0 forward { exppc nubs 2 open 7 
	0 2 0.019009217454385177 2 0.038018434908770354 2 0.057027652363155538 2 0.076036869817540709 2 
	0.0950460872719259 2 0.11405530472631108 2 
	-1.2673948195582301 -1.7545160686401842 
	-1.2759096603371956 -1.7258396263124856 
	-1.2816052827061475 -1.696921161933413 
	-1.2873162064109951 -1.6679250078641901 
	-1.2901779082252807 -1.6387735794672391 
	-1.2930430431747471 -1.6095871785955533 
	-1.2930430431747471 -1.5803451491033551 
	-1.2930430431747471 -1.5511031196111584 
	-1.2901779082252807 -1.5219167187394713 
	-1.2873162064109953 -1.4927652903425213 
	-1.2816052827061473 -1.4637691362732972 
	-1.275909660337196 -1.4348506718942278 
	-1.2673948195582296 -1.4061742295665263 
	0.001 
	torus 0 0.34999999999999998 0 0 -1 0 0.72499999999999998 0.39999999999999997 0.99995441034266763 0 0.0095486771988384216 forward_v I I I I 
	} 0 0 #
coedge $-1 $425 $327 $330 $383 forward $379 $-1 #
coedge $-1 $327 $426 $420 $427 forward $379 $-1 #
loop $-1 $-1 $425 $428 #
tvertex-vertex $-1 $375 $429 4.7102773760513248e-016 #
intcurve-curve $-1 forward { surfintcur full nurbs 3 open 4 
	0 3 0.3331702417479161 1 0.66654453566029115 1 1 3 
	-0.14999999999999999 0.75 -0.70931304795555516 1 
	-0.14999943635503538 0.74999718177517694 -0.72313062388713323 1 
	-0.14972810581255555 0.74864052906277745 -0.75062946654972462 0.99999999999999978 
	-0.14850208651935384 0.74251043259676963 -0.79172615185187434 1 
	-0.1471541013879098 0.73577050693954882 -0.81847344096316754 1 
	-0.14634606001648889 0.73173030008244377 -0.83173030008244397 1 
	0.001 
	plane -0.099999999999999645 0.5 -0.47499999999999998 -0.98058067569092011 -0.19611613513818413 0 0 0 1 forward_v I I I I 
	torus 0 0.34999999999999998 0 0 -1 0 0.72499999999999998 0.39999999999999997 0.99995441034266763 0 0.0095486771988384216 forward_v I I I I 
	nullbs 
	nullbs 
	I I 
	0 
	0 
	0 
	} I I #
coedge $-1 $330 $329 $430 $431 reversed $331 $-1 #
edge $-1 $332 0 $432 0.15931304795555523 $330 $433 forward 7 unknown #
face $-1 $402 $331 $2 $-1 $434 reversed single #
point $-1 -0.14999999999999999 0.75 -0.70931304795555516 #
coedge $-1 $339 $435 $334 $387 forward $188 $-1 #
edge $-1 $436 -2.7755575615628914e-017 $341 0.19999999999999996 $386 $437 forward 7 unknown #
coedge $-1 $438 $430 $335 $389 reversed $439 $-1 #
edge $-1 $436 -3.2120837232133419e-018 $390 0.64807406984078586 $388 $440 forward 7 unknown #
vertex $-1 $431 $441 #
straight-curve $-1 -0.70931304795555528 0.75000000000000011 -0.14999999999999969 1 0 0 I I #
plane-surface $-1 -0.47499999999999998 0.5 -0.099999999999999645 0 -0.19611613513818407 -0.98058067569092022 -1 0 0 forward_v I I I I #
straight-curve $-1 -0.34999999999999998 0.25 -0.049999999999999996 0 0 1 I I #
point $-1 -0.34999999999999998 0.25 -0.049999999999999996 #
coedge $-1 $442 $343 $421 $443 reversed $397 $-1 #
coedge $-1 $343 $444 $345 $401 reversed $397 $-1 #
loop $-1 $-1 $343 $415 #
tvertex-vertex $-1 $344 $445 4.8473028914566782e-016 #
intcurve-curve $-1 forward { surfintcur full nurbs 3 open 4 
	0 3 0.33345217865693644 1 0.66681904102277467 1 1 3 
	0.14634606001648884 0.73173030008244377 -0.83173030008244397 1 
	0.14715407448224041 0.73577037241120191 -0.81847371021083959 0.99999999999999989 
	0.14850201470529001 0.74251007352644993 -0.79172709788200357 1 
	0.14972799235395087 0.74863996176975389 -0.75063571022788045 1 
	0.14999939173581878 0.74999695867909311 -0.72313352351283777 1 
	0.15000000000000013 0.75 -0.70931304795555516 1 
	0.001 
	plane 0.099999999999999645 0.5 -0.47499999999999998 0.98058067569092011 -0.19611613513818413 0 0 0 -1 forward_v I I I I 
	torus 0 0.34999999999999998 0 0 -1 0 0.72499999999999998 0.39999999999999997 0.99995441034266763 0 0.0095486771988384216 forward_v I I I I 
	nullbs 
	nullbs 
	I I 
	0 
	0 
	0 
	} I I #
coedge $-1 $346 $345 $446 $447 reversed $347 $-1 #
edge $-1 $348 0 $448 0.15931304795555523 $345 $449 forward 7 unknown #
face $-1 $257 $347 $2 $-1 $450 reversed single #
point $-1 0.14999999999999999 0.75 -0.70931304795555516 #
coedge $-1 $446 $451 $350 $405 forward $416 $-1 #
edge $-1 $452 7.2807231059500802e-017 $406 0.64807406984078608 $350 $453 forward 7 unknown #
vertex $-1 $351 $454 #
straight-curve $-1 0.70931304795555528 0.75000000000000011 -0.14999999999999969 -1 0 0 I I #
coedge $-1 $455 $354 $352 $409 forward $188 $-1 #
edge $-1 $356 0 $452 0.19999999999999998 $408 $456 forward 7 unknown #
straight-curve $-1 0.34999999999999998 0.25 0.049999999999999996 0 0 -1 I I #
point $-1 0.34999999999999998 0.25 -0.049999999999999996 #
point $-1 0.34999999999999998 0.25 0.049999999999999996 #
straight-curve $-1 -0.34999999999999998 0.25000000000000006 0.049999999999999677 1 0 0 I I #
point $-1 -0.14999999999999999 0.25 0.049999999999999996 #
face $-1 $457 $397 $2 $-1 $458 reversed single #
loop $-1 $-1 $459 $367 #
plane-surface $-1 0.22499999999999998 0.5 -0.22499999999999998 0.5773502691896254 -0.57735026918962573 -0.57735026918962629 -0.70710678118654802 0 -0.70710678118654702 forward_v I I I I #
straight-curve $-1 -0.14999999999999997 0.25 0.04999999999999967 -0.61721339984836787 0.77151674981045937 0.1543033499620918 I I #
point $-1 -0.34999999999999998 0.25 0.049999999999999996 #
coedge $-1 $460 $374 $378 $427 reversed $422 $-1 #
coedge $-1 $374 $460 $395 $443 forward $422 $-1 #
loop $-1 $-1 $420 $457 #
pcurve $-1 0 forward { exppc nurbs 2 open 2 
	-0.11405530472631108 2 0 2 
	-0.14634606001648873 0.32771613318937964 1 
	-2.6645352591003757e-015 0.33607096445254858 0.99837436407271796 
	0.14634606001648889 0.32771613318937942 1 
	0 
	plane 0 0.5 -0.59999999999999998 0 0.70710678118654757 0.70710678118654757 -1 0 0 reverse_v I I I I 
	} 0 0 #
ellipse-curve $-1 -3.1225022567582528e-017 -1.080900638393911 0.98090063839391106 4.2100602173934593e-018 -0.70710678118654757 -0.70710678118654746 -0.14634606001648887 1.8126309384763548 -1.812630938476355 1 F 0 F 0.11405530472631108 #
coedge $-1 $426 $377 $461 $462 reversed $379 $-1 #
coedge $-1 $378 $425 $463 $464 reversed $379 $-1 #
edge $-1 $465 -1.0493706533930628e-016 $380 0.68804849197984841 $420 $466 forward 7 unknown #
face $-1 $467 $379 $2 $-1 $468 reversed single #
point $-1 -0.14634606001648889 0.73173030008244377 -0.83173030008244397 #
coedge $-1 $388 $461 $382 $431 forward $439 $-1 #
edge $-1 $432 -5.8878467200641535e-017 $390 0.5656854249492379 $382 $469 forward 7 unknown #
vertex $-1 $383 $470 #
straight-curve $-1 -0.14999999999999969 0.75 -0.70931304795555516 0 0 1 I I #
plane-surface $-1 0 0.75 0 0 -1 0 -1 0 0 forward_v I I I I #
coedge $-1 $386 $463 $438 $471 forward $188 $-1 #
vertex $-1 $387 $472 #
straight-curve $-1 -0.15000000000000002 0.25000000000000006 -0.049999999999999649 -1 0 0 I I #
coedge $-1 $461 $388 $435 $471 reversed $439 $-1 #
loop $-1 $-1 $388 $467 #
straight-curve $-1 -0.15000000000000013 0.24999999999999994 -0.049999999999999739 -0.61721339984836798 0.77151674981045926 -0.15430334996209188 I I #
point $-1 -0.54999999999999993 0.75 -0.14999999999999999 #
coedge $-1 $444 $395 $473 $474 reversed $397 $-1 #
edge $-1 $475 -6.8014764571772601e-017 $398 0.68804849197984841 $395 $476 forward 7 unknown #
coedge $-1 $396 $442 $459 $477 forward $397 $-1 #
point $-1 0.14634606001648884 0.73173030008244377 -0.83173030008244397 #
coedge $-1 $459 $404 $400 $447 forward $416 $-1 #
edge $-1 $406 1.9626155733547276e-017 $448 0.56568542494923812 $400 $478 forward 7 unknown #
vertex $-1 $447 $479 #
straight-curve $-1 0.14999999999999969 0.75 -0.70931304795555516 0 0 1 I I #
plane-surface $-1 0 0.75 0 0 -1 0 -1 0 0 forward_v I I I I #
coedge $-1 $404 $459 $455 $480 reversed $416 $-1 #
vertex $-1 $480 $481 #
straight-curve $-1 0.14999999999999997 0.25 -0.049999999999999635 0.61721339984836776 0.77151674981045948 -0.15430334996209197 I I #
point $-1 0.54999999999999993 0.75 -0.14999999999999999 #
coedge $-1 $473 $408 $451 $480 forward $188 $-1 #
straight-curve $-1 0.34999999999999998 0.25000000000000006 -0.049999999999999649 -1 0 0 I I #
face $-1 $428 $422 $2 $-1 $482 reversed single #
plane-surface $-1 0.099999999999999645 0.5 -0.47499999999999998 0.98058067569092011 -0.19611613513818413 0 0 0 -1 forward_v I I I I #
coedge $-1 $451 $446 $444 $477 reversed $416 $-1 #
coedge $-1 $421 $420 $483 $484 reversed $422 $-1 #
coedge $-1 $430 $438 $425 $462 forward $439 $-1 #
edge $-1 $485 -1.4989724041661911e-017 $432 0.64807406984078597 $425 $486 forward 7 unknown #
coedge $-1 $435 $483 $426 $464 forward $188 $-1 #
edge $-1 $465 0 $485 0.19999999999999998 $463 $487 forward 7 unknown #
vertex $-1 $464 $488 #
straight-curve $-1 -0.049999999999999635 0.25000000000000011 -0.35000000000000009 -0.14002800840280108 0.70014004201400493 -0.70014004201400493 I I #
face $-1 $337 $439 $2 $-1 $489 reversed single #
plane-surface $-1 -0.099999999999999645 0.5 -0.47499999999999998 -0.98058067569092011 -0.19611613513818413 0 0 0 1 forward_v I I I I #
straight-curve $-1 -0.14999999999999997 0.75 -0.54999999999999982 -0.70710678118654779 -1.9626155733547191e-016 0.70710678118654713 I I #
point $-1 -0.14999999999999999 0.75 -0.54999999999999993 #
edge $-1 $485 4.9065389333868868e-018 $436 0.14142135623730953 $435 $490 forward 7 unknown #
point $-1 -0.14999999999999999 0.25 -0.049999999999999996 #
coedge $-1 $483 $455 $442 $474 forward $188 $-1 #
edge $-1 $491 -2.7755575615628914e-017 $475 0.19999999999999996 $473 $492 forward 7 unknown #
vertex $-1 $484 $493 #
straight-curve $-1 0.049999999999999649 0.25000000000000011 -0.35000000000000003 0.14002800840280102 0.70014004201400493 -0.70014004201400482 I I #
edge $-1 $491 -1.6060418616066247e-017 $448 0.64807406984078608 $459 $494 forward 7 unknown #
straight-curve $-1 0.55000000000000004 0.74999999999999989 -0.15000000000000008 -0.70710678118654779 1.9626155733547189e-016 -0.70710678118654713 I I #
point $-1 0.14999999999999999 0.75 -0.54999999999999993 #
edge $-1 $452 4.9065389333868428e-018 $491 0.1414213562373095 $455 $495 forward 7 unknown #
point $-1 0.14999999999999999 0.25 -0.049999999999999996 #
plane-surface $-1 0 0.5 -0.59999999999999998 0 -0.70710678118654757 -0.70710678118654757 -1 0 0 forward_v I I I I #
coedge $-1 $463 $473 $460 $484 forward $188 $-1 #
edge $-1 $475 0 $465 0.099999999999999992 $483 $496 forward 7 unknown #
vertex $-1 $471 $497 #
straight-curve $-1 -0.049999999999999649 0.25000000000000011 -0.14999999999999997 -0.154303349962092 0.77151674981045959 -0.61721339984836754 I I #
straight-curve $-1 -0.049999999999999635 0.25000000000000011 -0.34999999999999998 0 0 1 I I #
point $-1 -0.049999999999999996 0.25 -0.34999999999999998 #
plane-surface $-1 -0.22499999999999998 0.5 -0.22499999999999998 -0.57735026918962529 -0.57735026918962595 -0.57735026918962606 -0.70710678118654802 0 0.70710678118654702 forward_v I I I I #
straight-curve $-1 -0.049999999999999906 0.25000000000000006 -0.14999999999999991 -0.70710678118654779 -3.9252311467094368e-016 0.70710678118654702 I I #
vertex $-1 $474 $498 #
straight-curve $-1 0.049999999999999635 0.25000000000000011 -0.15000000000000002 0 0 -1 I I #
point $-1 0.049999999999999996 0.25 -0.34999999999999998 #
straight-curve $-1 0.049999999999999711 0.24999999999999994 -0.15000000000000016 0.15430334996209211 0.77151674981045981 -0.61721339984836743 I I #
straight-curve $-1 0.15000000000000002 0.24999999999999994 -0.050000000000000017 -0.70710678118654802 3.9252311467094378e-016 -0.70710678118654702 I I #
straight-curve $-1 0.049999999999999996 0.25 -0.34999999999999998 -1 0 0 I I #
point $-1 -0.049999999999999996 0.25 -0.14999999999999999 #
point $-1 0.049999999999999996 0.25 -0.14999999999999999 #
End-of-ACIS-data 