600 0 1 0           
99 GICL Pro/E ACIS Translator - Source: f:/data5/repository/PTC/V18/bboxrev2/boombox/sm_cap_.prt - 6 0 13 ACIS 6.0.3 NT 24 Thu Apr 04 13:42:47 2002 
1 9.9999999999999995e-007 1e-010 
body $-1 $1 $-1 $-1 #
lump $-1 $-1 $2 $0 #
shell $-1 $-1 $-1 $3 $-1 $1 #
face $-1 $4 $5 $2 $-1 $6 reversed single #
face $-1 $7 $8 $2 $-1 $9 forward single #
loop $-1 $-1 $10 $3 #
plane-surface $-1 -21.620000000000005 8.832179344398544e-015 -9.3999999999999986 1 7.1054273576007747e-014 0 0 0 1 forward_v I I I I #
face $-1 $11 $12 $2 $-1 $13 forward single #
loop $-1 $-1 $14 $4 #
cone-surface $-1 -21.620000000000005 0 0 1 7.1054273576007747e-014 0 0 0 9.2999999999999989 1 I I 0 1 9.2999999999999989 forward I I I I #
coedge $-1 $15 $15 $16 $17 reversed $5 $-1 #
face $-1 $18 $19 $2 $-1 $20 forward single #
loop $-1 $-1 $21 $7 #
cone-surface $-1 -21.620000000000005 0 0 1 7.1054273576007747e-014 0 0 0 9.2999999999999989 1 I I 0 1 9.2999999999999989 forward I I I I #
coedge $-1 $22 $16 $23 $24 forward $8 $-1 #
coedge $-1 $10 $10 $25 $26 reversed $5 $-1 #
coedge $-1 $14 $27 $10 $17 forward $8 $-1 #
edge $-1 $28 0 $29 3.1415926535897931 $10 $30 forward 7 unknown #
face $-1 $31 $32 $2 $-1 $33 reversed single #
loop $-1 $34 $35 $11 #
plane-surface $-1 -20.620000000000005 7.9886452920406284e-014 -9.3999999999999986 1 7.1054273576007747e-014 0 0 0 1 forward_v I I I I #
coedge $-1 $36 $25 $27 $37 forward $12 $-1 #
coedge $-1 $27 $14 $35 $38 reversed $8 $-1 #
coedge $-1 $25 $36 $14 $24 reversed $12 $-1 #
edge $-1 $29 8.0925241491555938e-029 $39 1 $23 $40 forward 7 unknown #
coedge $-1 $21 $23 $15 $26 forward $12 $-1 #
edge $-1 $29 0 $28 3.1415926535897931 $15 $41 forward 7 unknown #
coedge $-1 $16 $22 $21 $37 reversed $8 $-1 #
vertex $-1 $26 $42 #
vertex $-1 $26 $43 #
ellipse-curve $-1 -21.620000000000005 0 0 1 7.1054273576007759e-014 -8.7016388700598803e-030 0 -1.1389215232070451e-015 -9.2999999999999954 1 I I #
face $-1 $44 $45 $2 $-1 $46 reversed single #
loop $-1 $-1 $47 $18 #
plane-surface $-1 -20.619999999999781 -3.1599999999999291 -5.1800000000000006 0 0 -1 -7.1054273576007747e-014 1 0 forward_v I I I I #
loop $-1 $48 $49 $11 #
coedge $-1 $50 $50 $22 $38 forward $19 $-1 #
coedge $-1 $23 $21 $50 $51 reversed $12 $-1 #
edge $-1 $28 -2.6726462631919232e-033 $52 1 $21 $53 forward 7 unknown #
edge $-1 $52 0 $39 3.1415926535897953 $35 $54 forward 7 unknown #
vertex $-1 $51 $55 #
straight-curve $-1 -21.620000000000005 0 9.2999999999999989 1 7.1054273576007747e-014 0 I I #
ellipse-curve $-1 -21.620000000000005 0 0 1 7.1054273576007747e-014 -8.701638870059778e-030 0 1.1389215232070325e-015 9.3000000000000007 1 I I #
point $-1 -21.620000000000005 -1.1389215232070451e-015 -9.2999999999999954 #
point $-1 -21.620000000000005 1.1389215232070325e-015 9.3000000000000007 #
face $-1 $56 $57 $2 $-1 $58 reversed single #
loop $-1 $-1 $59 $31 #
cone-surface $-1 -20.620000000000228 3.1600000000000703 -3.8399999999999999 1 7.1054273576007747e-014 0 9.5212726591850386e-014 -1.3400000000000001 0 1 I I 0 1 1.3400000000000001 forward I I I I #
coedge $-1 $60 $61 $62 $63 forward $32 $-1 #
loop $-1 $64 $65 $11 #
coedge $-1 $66 $67 $61 $68 reversed $34 $-1 #
coedge $-1 $35 $35 $36 $51 forward $19 $-1 #
edge $-1 $39 0 $52 3.1415926535897918 $50 $69 forward 7 unknown #
vertex $-1 $51 $70 #
straight-curve $-1 -21.620000000000005 -1.1388839090548107e-015 -9.2999999999999989 1 7.1054273576007747e-014 0 I I #
ellipse-curve $-1 -20.620000000000005 8.1712414612411521e-014 3.5527136788005009e-015 1 7.1054273576007747e-014 -9.013244198966303e-029 0 -1.1797062559610829e-014 -9.2999999999999989 1 I I #
point $-1 -20.620000000000005 7.2193195099214776e-014 9.3000000000000007 #
face $-1 $71 $72 $2 $-1 $73 reversed single #
loop $-1 $-1 $74 $44 #
plane-surface $-1 -20.620000000000228 3.1600000000000694 -2.5 0 0 1 7.1054273576007747e-014 -1 0 forward_v I I I I #
coedge $-1 $75 $76 $77 $78 forward $45 $-1 #
coedge $-1 $79 $47 $80 $81 reversed $32 $-1 #
coedge $-1 $47 $79 $49 $68 forward $32 $-1 #
coedge $-1 $76 $75 $47 $63 reversed $45 $-1 #
edge $-1 $82 5.9953428796796045e-028 $83 0.10000000000000142 $62 $84 forward 7 unknown #
loop $-1 $85 $86 $11 #
coedge $-1 $87 $88 $89 $90 forward $48 $-1 #
coedge $-1 $91 $49 $92 $93 reversed $34 $-1 #
coedge $-1 $49 $91 $76 $94 reversed $34 $-1 #
edge $-1 $95 0 $82 6.3199999999999825 $49 $96 forward 7 unknown #
ellipse-curve $-1 -20.620000000000005 7.7715611723760958e-014 3.5527136788005009e-015 1 7.1054273576007747e-014 4.2192613079698688e-029 0 -5.5224166245461819e-015 9.2999999999999972 1 I I #
point $-1 -20.620000000000005 6.9915352052800692e-014 -9.2999999999999954 #
face $-1 $97 $98 $2 $-1 $99 forward single #
loop $-1 $-1 $100 $56 #
cone-surface $-1 -20.619999999999781 -3.1599999999999291 -3.8399999999999999 1 7.1054273576007747e-014 0 9.5212726591850386e-014 -1.3400000000000001 0 1 I I 0 1 1.3400000000000001 forward I I I I #
coedge $-1 $101 $102 $103 $104 forward $57 $-1 #
coedge $-1 $62 $59 $105 $106 reversed $45 $-1 #
coedge $-1 $59 $62 $67 $94 forward $45 $-1 #
coedge $-1 $102 $101 $59 $78 reversed $57 $-1 #
edge $-1 $107 0 $108 0.10000000000000142 $59 $109 forward 7 unknown #
coedge $-1 $61 $60 $100 $110 reversed $32 $-1 #
coedge $-1 $105 $111 $60 $81 forward $98 $-1 #
edge $-1 $112 0 $83 6.3199999999999843 $80 $113 forward 7 unknown #
vertex $-1 $94 $114 #
vertex $-1 $106 $115 #
straight-curve $-1 -20.620000000000228 3.1600000000000703 -5.1800000000000006 -1 -7.1054273576009009e-014 0 I I #
loop $-1 $116 $117 $11 #
coedge $-1 $118 $118 $119 $120 forward $64 $-1 #
coedge $-1 $121 $65 $122 $123 forward $48 $-1 #
coedge $-1 $65 $121 $124 $125 forward $48 $-1 #
coedge $-1 $126 $127 $65 $90 reversed $128 $-1 #
edge $-1 $129 0 $130 6.3199999999999985 $65 $131 forward 7 unknown #
coedge $-1 $67 $66 $102 $132 reversed $34 $-1 #
coedge $-1 $100 $103 $66 $93 forward $72 $-1 #
edge $-1 $133 0 $95 3.1415926535897993 $66 $134 forward 7 unknown #
edge $-1 $82 4.755498242186289e-057 $107 3.1415926535897998 $67 $135 forward 7 unknown #
vertex $-1 $93 $136 #
straight-curve $-1 -20.619999999999781 -3.1599999999999211 -5.1800000000000006 -7.0829418279883586e-014 1 0 I I #
face $-1 $137 $128 $2 $-1 $138 forward single #
loop $-1 $-1 $139 $71 #
plane-surface $-1 -20.720000000000006 7.278102556280551e-014 -9.3999999999999986 1 7.1054273576007747e-014 0 7.1054273576007747e-014 -1 0 forward_v I I I I #
coedge $-1 $140 $92 $79 $110 forward $72 $-1 #
coedge $-1 $77 $74 $139 $141 reversed $57 $-1 #
coedge $-1 $74 $77 $91 $132 forward $57 $-1 #
coedge $-1 $92 $140 $74 $104 reversed $72 $-1 #
edge $-1 $133 -3.1554436208840024e-029 $142 0.10000000000000142 $74 $143 forward 7 unknown #
coedge $-1 $139 $80 $75 $106 forward $98 $-1 #
edge $-1 $83 1.902199296874512e-056 $108 3.1415926535898167 $105 $144 forward 7 unknown #
vertex $-1 $94 $145 #
vertex $-1 $106 $146 #
straight-curve $-1 -20.620000000000228 3.1600000000000694 -2.5 -1 -7.1054273576009009e-014 0 I I #
edge $-1 $95 -6.0742289702017048e-028 $112 0.10000000000000142 $100 $147 forward 7 unknown #
coedge $-1 $80 $139 $140 $148 forward $98 $-1 #
vertex $-1 $81 $149 #
straight-curve $-1 -20.719999999999782 -3.1599999999999286 -5.1800000000000006 -7.0829418279883586e-014 1 0 I I #
point $-1 -20.620000000000228 3.1600000000000619 -5.1799999999999953 #
point $-1 -20.72000000000023 3.1600000000000552 -5.1799999999999953 #
loop $-1 $150 $151 $11 #
coedge $-1 $152 $152 $153 $154 reversed $85 $-1 #
coedge $-1 $86 $86 $155 $156 forward $64 $-1 #
coedge $-1 $157 $158 $86 $120 reversed $159 $-1 #
edge $-1 $160 5.3809861030071252e-041 $161 3.1415926535898144 $86 $162 forward 7 unknown #
coedge $-1 $88 $87 $163 $164 forward $48 $-1 #
coedge $-1 $165 $166 $87 $123 reversed $167 $-1 #
edge $-1 $130 -2.9721864013664211e-058 $168 3.1415926535898056 $87 $169 forward 7 unknown #
coedge $-1 $170 $171 $88 $125 reversed $172 $-1 #
edge $-1 $173 9.5109964843724954e-057 $129 3.1415926535898064 $88 $174 forward 7 unknown #
coedge $-1 $175 $89 $171 $176 forward $128 $-1 #
coedge $-1 $89 $175 $165 $177 reversed $128 $-1 #
loop $-1 $-1 $126 $97 #
vertex $-1 $125 $178 #
vertex $-1 $123 $179 #
straight-curve $-1 -20.620000000000228 3.1600000000000694 2.5 7.0829418279883422e-014 -1 0 I I #
edge $-1 $107 0 $133 6.3199999999999985 $91 $180 forward 7 unknown #
vertex $-1 $132 $181 #
ellipse-curve $-1 -20.619999999999781 -3.1599999999999291 -3.8399999999999999 1 7.1054273576007747e-014 -2.3548086723014511e-029 0 4.4408920985006262e-016 1.3400000000000007 1 I I #
ellipse-curve $-1 -20.620000000000228 3.1600000000000703 -3.8399999999999999 1 7.1054273576007747e-014 -4.4741364773727755e-028 0 -8.4376949871511897e-015 -1.3399999999999954 1 I I #
point $-1 -20.619999999999781 -3.1599999999999211 -5.1799999999999953 #
face $-1 $182 $172 $2 $-1 $183 reversed single #
plane-surface $-1 -20.620000000000228 3.1600000000000694 2.5 0 0 1 7.1054273576007747e-014 -1 0 forward_v I I I I #
coedge $-1 $111 $105 $101 $141 forward $98 $-1 #
coedge $-1 $103 $100 $111 $148 reversed $72 $-1 #
edge $-1 $108 0 $142 6.3199999999999985 $139 $184 forward 7 unknown #
vertex $-1 $148 $185 #
straight-curve $-1 -20.619999999999781 -3.1599999999999291 -2.5 -1 -7.1054273576009009e-014 0 I I #
ellipse-curve $-1 -20.72000000000023 3.1600000000000747 -3.8399999999999972 1 7.1054273576007747e-014 -1.0361158158126408e-027 0 -1.9539925233402755e-014 -1.3399999999999981 1 I I #
point $-1 -20.620000000000228 3.1600000000000694 -2.4999999999999991 #
point $-1 -20.72000000000023 3.1600000000000623 -2.4999999999999991 #
straight-curve $-1 -20.619999999999781 -3.1599999999999291 -5.1799999999999997 -1 -7.1054273576009009e-014 -8.8817841970011261e-015 I I #
edge $-1 $142 -4.75549824218628e-057 $112 3.1415926535897891 $111 $186 forward 7 unknown #
point $-1 -20.719999999999782 -3.1599999999999286 -5.1799999999999953 #
loop $-1 $187 $188 $11 #
coedge $-1 $189 $189 $190 $191 reversed $116 $-1 #
coedge $-1 $117 $117 $192 $193 reversed $85 $-1 #
coedge $-1 $194 $195 $117 $154 forward $196 $-1 #
edge $-1 $197 5.3809861030071232e-041 $198 3.1415926535898144 $117 $199 forward 7 unknown #
coedge $-1 $200 $201 $118 $156 reversed $202 $-1 #
edge $-1 $161 -5.3809861030071252e-041 $160 3.1415926535897718 $118 $203 forward 7 unknown #
coedge $-1 $204 $119 $201 $205 forward $159 $-1 #
coedge $-1 $119 $204 $200 $206 reversed $159 $-1 #
loop $-1 $-1 $157 $207 #
vertex $-1 $156 $208 #
vertex $-1 $156 $209 #
ellipse-curve $-1 -20.619999999999632 -5.2599999999999296 -2.1699999999999999 -1 -7.1054273576010019e-014 -2.4214437463532839e-041 -3.5527136788005009e-014 0.5 5.3290705182007514e-015 1 I I #
coedge $-1 $210 $211 $121 $164 reversed $212 $-1 #
edge $-1 $168 0 $173 6.3199999999999665 $121 $213 forward 7 unknown #
coedge $-1 $214 $122 $127 $177 forward $167 $-1 #
coedge $-1 $122 $214 $210 $215 reversed $167 $-1 #
loop $-1 $-1 $165 $216 #
vertex $-1 $164 $217 #
ellipse-curve $-1 -20.619999999999781 -3.1599999999999291 3.8399999999999999 -1 -7.1054273576007759e-014 -2.3548086723014527e-029 0 4.4408920985006262e-016 -1.3399999999999999 1 I I #
coedge $-1 $218 $124 $211 $219 forward $172 $-1 #
coedge $-1 $124 $218 $126 $176 reversed $172 $-1 #
loop $-1 $-1 $170 $137 #
vertex $-1 $125 $220 #
ellipse-curve $-1 -20.620000000000228 3.1600000000000703 3.8399999999999999 -1 -7.1054273576007747e-014 -8.9482729547454739e-028 0 -1.6875389974302379e-014 1.340000000000007 1 I I #
coedge $-1 $127 $126 $221 $222 forward $128 $-1 #
edge $-1 $129 0 $223 0.10000000000000142 $171 $224 forward 7 unknown #
edge $-1 $130 -3.1554436208840024e-029 $225 0.10000000000000142 $127 $226 forward 7 unknown #
point $-1 -20.620000000000228 3.1600000000000694 2.5 #
point $-1 -20.619999999999781 -3.1599999999999286 2.5 #
straight-curve $-1 -20.620000000000228 3.1600000000000694 -2.5 7.0829418279883422e-014 -1 0 I I #
point $-1 -20.619999999999781 -3.1599999999999286 -2.4999999999999991 #
face $-1 $216 $212 $2 $-1 $227 forward single #
cone-surface $-1 -20.620000000000228 3.1600000000000703 3.8399999999999999 -1 -7.1054273576007747e-014 0 9.5212726591850386e-014 -1.3400000000000001 0 1 I I 0 1 1.3400000000000001 forward I I I I #
straight-curve $-1 -20.72000000000023 3.1600000000000623 -2.5 7.0829418279883422e-014 -1 0 I I #
point $-1 -20.719999999999782 -3.1599999999999357 -2.4999999999999991 #
ellipse-curve $-1 -20.719999999999782 -3.1599999999999295 -3.8399999999999972 1 7.1054273576007747e-014 3.2967321412220387e-028 0 -6.2172489379008766e-015 1.3399999999999981 1 I I #
loop $-1 $-1 $228 $11 #
coedge $-1 $229 $229 $230 $231 forward $150 $-1 #
coedge $-1 $151 $151 $232 $233 reversed $116 $-1 #
coedge $-1 $234 $235 $151 $191 forward $236 $-1 #
edge $-1 $237 -5.3809861030071252e-041 $238 3.1415926535897718 $151 $239 forward 7 unknown #
coedge $-1 $240 $241 $152 $193 forward $242 $-1 #
edge $-1 $198 -5.3809861030071232e-041 $197 3.1415926535897718 $152 $243 forward 7 unknown #
coedge $-1 $244 $153 $241 $245 forward $196 $-1 #
coedge $-1 $153 $244 $240 $246 reversed $196 $-1 #
loop $-1 $-1 $194 $247 #
vertex $-1 $193 $248 #
vertex $-1 $193 $249 #
ellipse-curve $-1 -20.620000000000378 5.2600000000000708 -2.1699999999999999 1 7.1054273576010019e-014 -2.4483486768683204e-041 3.5527136788005009e-014 -0.5 5.3290705182007514e-015 1 I I #
coedge $-1 $250 $155 $158 $206 forward $202 $-1 #
coedge $-1 $155 $250 $157 $205 reversed $202 $-1 #
loop $-1 $-1 $200 $251 #
ellipse-curve $-1 -20.619999999999632 -5.2599999999999296 -2.1699999999999999 -1 -7.1054273576010019e-014 2.4214437463532839e-041 3.5527136788005009e-014 -0.5 5.3290705182007514e-015 1 I I #
coedge $-1 $158 $157 $252 $253 forward $159 $-1 #
edge $-1 $160 0 $254 0.10000000000000142 $201 $255 forward 7 unknown #
edge $-1 $161 0 $256 0.10000000000000142 $200 $257 forward 7 unknown #
face $-1 $251 $159 $2 $-1 $258 reversed single #
point $-1 -20.619999999999667 -4.7599999999999296 -2.1699999999999946 #
point $-1 -20.619999999999596 -5.7599999999999296 -2.1699999999999946 #
coedge $-1 $259 $163 $166 $215 forward $212 $-1 #
coedge $-1 $163 $259 $170 $219 reversed $212 $-1 #
loop $-1 $-1 $210 $182 #
straight-curve $-1 -20.619999999999781 -3.1599999999999127 5.1800000000000006 -7.0829418279883776e-014 1 0 I I #
coedge $-1 $166 $165 $260 $261 forward $167 $-1 #
edge $-1 $168 -1.1044052673094009e-027 $262 0.10000000000000142 $166 $263 forward 7 unknown #
face $-1 $264 $167 $2 $-1 $265 reversed single #
point $-1 -20.619999999999781 -3.1599999999999127 5.1800000000000068 #
coedge $-1 $171 $170 $266 $267 forward $172 $-1 #
edge $-1 $173 1.1990685759359209e-027 $268 0.10000000000000142 $170 $269 forward 7 unknown #
point $-1 -20.620000000000228 3.1600000000000534 5.1800000000000068 #
coedge $-1 $266 $260 $175 $222 reversed $270 $-1 #
edge $-1 $223 0 $225 6.3199999999999985 $221 $271 forward 7 unknown #
vertex $-1 $267 $272 #
straight-curve $-1 -20.620000000000228 3.1600000000000694 2.5 -1 -7.1054273576009009e-014 0 I I #
vertex $-1 $222 $273 #
straight-curve $-1 -20.619999999999781 -3.1599999999999291 2.5 -1 -7.1054273576009009e-014 0 I I #
plane-surface $-1 -20.619999999999781 -3.1599999999999291 5.1800000000000006 0 0 -1 -7.1054273576007747e-014 1 0 forward_v I I I I #
coedge $-1 $274 $274 $275 $276 forward $187 $-1 #
coedge $-1 $188 $188 $277 $278 forward $150 $-1 #
coedge $-1 $279 $280 $188 $231 reversed $281 $-1 #
edge $-1 $282 -5.3809861030071232e-041 $283 3.1415926535897718 $188 $284 forward 7 unknown #
coedge $-1 $285 $286 $189 $233 forward $287 $-1 #
edge $-1 $238 5.3809861030071252e-041 $237 3.1415926535898144 $189 $288 forward 7 unknown #
coedge $-1 $289 $190 $286 $290 forward $236 $-1 #
coedge $-1 $190 $289 $285 $291 reversed $236 $-1 #
loop $-1 $-1 $234 $292 #
vertex $-1 $233 $293 #
vertex $-1 $233 $294 #
ellipse-curve $-1 -20.619999999999632 -5.2599999999999296 2.1699999999999999 1 7.1054273576010019e-014 2.4214437463532839e-041 -3.5527136788005009e-014 0.5 5.3290705182007514e-015 1 I I #
coedge $-1 $295 $192 $195 $246 forward $242 $-1 #
coedge $-1 $192 $295 $194 $245 reversed $242 $-1 #
loop $-1 $-1 $240 $296 #
ellipse-curve $-1 -20.620000000000378 5.2600000000000708 -2.1699999999999999 1 7.1054273576010019e-014 2.4483486768683204e-041 -3.5527136788005009e-014 0.5 5.3290705182007514e-015 1 I I #
coedge $-1 $195 $194 $297 $298 reversed $196 $-1 #
edge $-1 $198 0 $299 0.10000000000000142 $241 $300 forward 7 unknown #
edge $-1 $197 0 $301 0.10000000000000142 $240 $302 forward 7 unknown #
face $-1 $296 $196 $2 $-1 $303 reversed single #
point $-1 -20.620000000000342 4.7600000000000708 -2.1699999999999946 #
point $-1 -20.620000000000413 5.7600000000000708 -2.1699999999999946 #
coedge $-1 $201 $200 $304 $305 forward $202 $-1 #
face $-1 $306 $202 $2 $-1 $307 reversed single #
coedge $-1 $304 $304 $204 $253 reversed $308 $-1 #
edge $-1 $254 0 $256 3.1415926535897931 $252 $309 forward 7 unknown #
vertex $-1 $305 $310 #
straight-curve $-1 -20.619999999999667 -4.7599999999999296 -2.1699999999999999 -1 -7.1054273576009009e-014 0 I I #
vertex $-1 $305 $311 #
straight-curve $-1 -20.619999999999596 -5.7599999999999296 -2.1699999999999999 -1 -7.1054273576009009e-014 0 I I #
cone-surface $-1 -20.619999999999632 -5.2599999999999296 -2.1699999999999999 -1 -7.1054273576007747e-014 0 3.5527136788003873e-014 -0.5 0 1 I I 0 1 0.5 forward I I I I #
coedge $-1 $211 $210 $312 $313 forward $212 $-1 #
coedge $-1 $221 $312 $214 $261 reversed $270 $-1 #
edge $-1 $225 -4.75549824218628e-057 $262 3.1415926535897891 $260 $314 forward 7 unknown #
vertex $-1 $261 $315 #
straight-curve $-1 -20.619999999999781 -3.1599999999999291 5.1799999999999997 -1 -7.1054273576009009e-014 8.8817841970011261e-015 I I #
face $-1 $207 $270 $2 $-1 $316 reversed single #
cone-surface $-1 -20.619999999999781 -3.1599999999999291 3.8399999999999999 -1 -7.1054273576007747e-014 0 9.5212726591850386e-014 -1.3400000000000001 0 1 I I 0 1 1.3400000000000001 forward I I I I #
coedge $-1 $312 $221 $218 $267 reversed $270 $-1 #
edge $-1 $268 1.902199296874512e-056 $223 3.1415926535898167 $266 $317 forward 7 unknown #
vertex $-1 $267 $318 #
straight-curve $-1 -20.620000000000228 3.1600000000000703 5.1800000000000006 -1 -7.1054273576009009e-014 0 I I #
loop $-1 $-1 $312 $264 #
straight-curve $-1 -20.72000000000023 3.1600000000000623 2.5 7.0829418279883422e-014 -1 0 I I #
point $-1 -20.72000000000023 3.1600000000000623 2.4999999999999991 #
point $-1 -20.719999999999782 -3.1599999999999357 2.4999999999999991 #
coedge $-1 $228 $228 $319 $320 forward $187 $-1 #
coedge $-1 $321 $322 $228 $276 reversed $323 $-1 #
edge $-1 $324 1.3275765926103342e-058 $325 3.1415926535897931 $228 $326 forward 7 unknown #
coedge $-1 $327 $328 $229 $278 reversed $329 $-1 #
edge $-1 $283 5.3809861030071232e-041 $282 3.1415926535898144 $229 $330 forward 7 unknown #
coedge $-1 $331 $230 $328 $332 forward $281 $-1 #
coedge $-1 $230 $331 $327 $333 reversed $281 $-1 #
loop $-1 $-1 $279 $334 #
vertex $-1 $278 $335 #
vertex $-1 $278 $336 #
ellipse-curve $-1 -20.620000000000378 5.2600000000000708 2.1699999999999999 -1 -7.1054273576010019e-014 2.4483486768683204e-041 3.5527136788005009e-014 -0.5 5.3290705182007514e-015 1 I I #
coedge $-1 $337 $232 $235 $291 forward $287 $-1 #
coedge $-1 $232 $337 $234 $290 reversed $287 $-1 #
loop $-1 $-1 $285 $338 #
ellipse-curve $-1 -20.619999999999632 -5.2599999999999296 2.1699999999999999 1 7.1054273576010019e-014 -2.4214437463532839e-041 3.5527136788005009e-014 -0.5 5.3290705182007514e-015 1 I I #
coedge $-1 $235 $234 $339 $340 reversed $236 $-1 #
edge $-1 $238 0 $341 0.10000000000000142 $286 $342 forward 7 unknown #
edge $-1 $237 0 $343 0.10000000000000142 $285 $344 forward 7 unknown #
face $-1 $338 $236 $2 $-1 $345 reversed single #
point $-1 -20.619999999999667 -4.7599999999999296 2.1700000000000053 #
point $-1 -20.619999999999596 -5.7599999999999296 2.1700000000000053 #
coedge $-1 $241 $240 $346 $347 reversed $242 $-1 #
face $-1 $348 $242 $2 $-1 $349 reversed single #
coedge $-1 $346 $346 $244 $298 forward $350 $-1 #
edge $-1 $301 0 $299 3.1415926535897931 $297 $351 forward 7 unknown #
vertex $-1 $347 $352 #
straight-curve $-1 -20.620000000000413 5.7600000000000708 -2.1699999999999999 -1 -7.1054273576009009e-014 0 I I #
vertex $-1 $347 $353 #
straight-curve $-1 -20.620000000000342 4.7600000000000708 -2.1699999999999999 -1 -7.1054273576009009e-014 0 I I #
cone-surface $-1 -20.620000000000378 5.2600000000000708 -2.1699999999999999 1 7.1054273576007721e-014 0 -3.5527136788003861e-014 0.5 0 1 I I 0 1 0.5 forward I I I I #
coedge $-1 $252 $252 $250 $305 reversed $308 $-1 #
edge $-1 $256 0 $254 3.1415926535897931 $304 $354 forward 7 unknown #
face $-1 $247 $308 $2 $-1 $355 reversed single #
cone-surface $-1 -20.619999999999632 -5.2599999999999296 -2.1699999999999999 -1 -7.1054273576007747e-014 0 3.5527136788003873e-014 -0.5 0 1 I I 0 1 0.5 forward I I I I #
loop $-1 $-1 $252 $306 #
ellipse-curve $-1 -20.719999999999633 -5.2599999999999367 -2.1699999999999999 -1 -7.1054273576010019e-014 0 -3.5527136788005009e-014 0.5 0 1 I I #
point $-1 -20.719999999999668 -4.7599999999999367 -2.1699999999999999 #
point $-1 -20.719999999999597 -5.7599999999999367 -2.1699999999999999 #
coedge $-1 $260 $266 $259 $313 reversed $270 $-1 #
edge $-1 $262 0 $268 6.3199999999999843 $312 $356 forward 7 unknown #
ellipse-curve $-1 -20.719999999999782 -3.1599999999999295 3.8399999999999972 -1 -7.1054273576007747e-014 3.2967321412220387e-028 0 -6.2172489379008766e-015 -1.3399999999999981 1 I I #
point $-1 -20.719999999999782 -3.1599999999999286 5.1799999999999953 #
plane-surface $-1 -20.720000000000006 7.2781025562805548e-014 9.3999999999999986 -1 -7.1054273576007747e-014 0 7.1054273576007747e-014 -1 0 forward_v I I I I #
ellipse-curve $-1 -20.72000000000023 3.1600000000000747 3.8399999999999972 -1 -7.1054273576007747e-014 -1.0361158158126408e-027 0 -1.9539925233402755e-014 1.3399999999999981 1 I I #
point $-1 -20.72000000000023 3.1600000000000552 5.1799999999999953 #
coedge $-1 $357 $358 $274 $320 reversed $359 $-1 #
edge $-1 $325 2.6551531852206701e-058 $324 3.141592653589794 $274 $360 forward 7 unknown #
coedge $-1 $361 $275 $358 $362 forward $323 $-1 #
coedge $-1 $275 $361 $357 $363 reversed $323 $-1 #
loop $-1 $-1 $321 $364 #
vertex $-1 $320 $365 #
vertex $-1 $320 $366 #
ellipse-curve $-1 -20.620000000000005 7.0332628610003667e-014 0 -1 -7.1054273576007734e-014 1.5910530932339447e-029 0 3.3588122427259217e-016 1.5 1 I I #
coedge $-1 $367 $277 $280 $333 forward $329 $-1 #
coedge $-1 $277 $367 $279 $332 reversed $329 $-1 #
loop $-1 $-1 $327 $368 #
ellipse-curve $-1 -20.620000000000378 5.2600000000000708 2.1699999999999999 -1 -7.1054273576010019e-014 -2.4483486768683204e-041 -3.5527136788005009e-014 0.5 5.3290705182007514e-015 1 I I #
coedge $-1 $280 $279 $369 $370 forward $281 $-1 #
edge $-1 $282 0 $371 0.10000000000000142 $328 $372 forward 7 unknown #
edge $-1 $283 0 $373 0.10000000000000142 $327 $374 forward 7 unknown #
face $-1 $368 $281 $2 $-1 $375 reversed single #
point $-1 -20.620000000000342 4.7600000000000708 2.1700000000000053 #
point $-1 -20.620000000000413 5.7600000000000708 2.1700000000000053 #
coedge $-1 $286 $285 $376 $377 reversed $287 $-1 #
face $-1 $378 $287 $2 $-1 $379 reversed single #
coedge $-1 $376 $376 $289 $340 forward $380 $-1 #
edge $-1 $343 0 $341 3.1415926535897931 $339 $381 forward 7 unknown #
vertex $-1 $377 $382 #
straight-curve $-1 -20.619999999999596 -5.7599999999999296 2.1699999999999999 -1 -7.1054273576009009e-014 0 I I #
vertex $-1 $377 $383 #
straight-curve $-1 -20.619999999999667 -4.7599999999999296 2.1699999999999999 -1 -7.1054273576009009e-014 0 I I #
cone-surface $-1 -20.619999999999632 -5.2599999999999296 2.1699999999999999 1 7.1054273576007747e-014 0 3.5527136788003873e-014 -0.5 0 1 I I 0 1 0.5 forward I I I I #
coedge $-1 $297 $297 $295 $347 forward $350 $-1 #
edge $-1 $299 0 $301 3.1415926535897931 $346 $384 forward 7 unknown #
face $-1 $292 $350 $2 $-1 $385 forward single #
cone-surface $-1 -20.620000000000378 5.2600000000000708 -2.1699999999999999 1 7.1054273576007721e-014 0 -3.5527136788003861e-014 0.5 0 1 I I 0 1 0.5 forward I I I I #
loop $-1 $-1 $297 $348 #
ellipse-curve $-1 -20.720000000000379 5.2600000000000637 -2.1699999999999999 1 7.1054273576010019e-014 0 3.5527136788005009e-014 -0.5 0 1 I I #
point $-1 -20.720000000000415 5.7600000000000637 -2.1699999999999999 #
point $-1 -20.720000000000343 4.7600000000000637 -2.1699999999999999 #
ellipse-curve $-1 -20.719999999999633 -5.2599999999999367 -2.1699999999999999 -1 -7.1054273576010019e-014 0 3.5527136788005009e-014 -0.5 0 1 I I #
plane-surface $-1 -20.719999999999633 -5.2599999999999367 -2.1699999999999999 -1 -7.1054273576007747e-014 0 7.1054273576007747e-014 -1 0 forward_v I I I I #
straight-curve $-1 -20.719999999999782 -3.1599999999999286 5.1800000000000006 -7.0829418279883586e-014 1 0 I I #
coedge $-1 $386 $319 $322 $363 forward $359 $-1 #
coedge $-1 $319 $386 $321 $362 reversed $359 $-1 #
loop $-1 $-1 $357 $387 #
ellipse-curve $-1 -20.620000000000005 6.9444450190303542e-014 0 -1 -7.1054273576007734e-014 -2.8696831836426691e-029 0 6.058080054621051e-016 -1.4999999999999991 1 I I #
coedge $-1 $322 $321 $388 $389 reversed $323 $-1 #
edge $-1 $324 -1.3051596161134002e-029 $390 0.57999999999999829 $358 $391 forward 7 unknown #
edge $-1 $325 -1.782493552334644e-029 $392 0.57999999999999829 $357 $393 forward 7 unknown #
face $-1 $387 $323 $2 $-1 $394 forward single #
point $-1 -20.620000000000005 7.0668509834276259e-014 1.5 #
point $-1 -20.620000000000005 7.0050258195765647e-014 -1.4999999999999991 #
coedge $-1 $328 $327 $395 $396 forward $329 $-1 #
face $-1 $397 $329 $2 $-1 $398 reversed single #
coedge $-1 $395 $395 $331 $370 reversed $399 $-1 #
edge $-1 $371 0 $373 3.1415926535897931 $369 $400 forward 7 unknown #
vertex $-1 $396 $401 #
straight-curve $-1 -20.620000000000342 4.7600000000000708 2.1699999999999999 -1 -7.1054273576009009e-014 0 I I #
vertex $-1 $396 $402 #
straight-curve $-1 -20.620000000000413 5.7600000000000708 2.1699999999999999 -1 -7.1054273576009009e-014 0 I I #
cone-surface $-1 -20.620000000000378 5.2600000000000708 2.1699999999999999 -1 -7.1054273576007721e-014 0 -3.5527136788003861e-014 0.5 0 1 I I 0 1 0.5 forward I I I I #
coedge $-1 $339 $339 $337 $377 forward $380 $-1 #
edge $-1 $341 0 $343 3.1415926535897931 $376 $403 forward 7 unknown #
face $-1 $334 $380 $2 $-1 $404 forward single #
cone-surface $-1 -20.619999999999632 -5.2599999999999296 2.1699999999999999 1 7.1054273576007747e-014 0 3.5527136788003873e-014 -0.5 0 1 I I 0 1 0.5 forward I I I I #
loop $-1 $-1 $339 $378 #
ellipse-curve $-1 -20.719999999999633 -5.2599999999999367 2.1699999999999999 1 7.1054273576010019e-014 0 -3.5527136788005009e-014 0.5 0 1 I I #
point $-1 -20.719999999999597 -5.7599999999999367 2.1699999999999999 #
point $-1 -20.719999999999668 -4.7599999999999367 2.1699999999999999 #
ellipse-curve $-1 -20.720000000000379 5.2600000000000637 -2.1699999999999999 1 7.1054273576010019e-014 0 -3.5527136788005009e-014 0.5 0 1 I I #
plane-surface $-1 -20.720000000000379 5.2600000000000637 -2.1699999999999999 1 7.1054273576007721e-014 0 -7.1054273576007721e-014 1 0 forward_v I I I I #
coedge $-1 $358 $357 $405 $406 forward $359 $-1 #
face $-1 $407 $359 $2 $-1 $408 forward single #
coedge $-1 $409 $410 $361 $389 forward $411 $-1 #
edge $-1 $392 0 $390 3.1415926535897931 $361 $412 forward 7 unknown #
vertex $-1 $362 $413 #
straight-curve $-1 -20.620000000000005 7.0852194720550869e-014 1.5 1 7.1054273576007532e-014 0 I I #
vertex $-1 $406 $414 #
straight-curve $-1 -20.620000000000005 7.03011218613308e-014 -1.5 1 7.1054273576007532e-014 0 I I #
cone-surface $-1 -19.759000000000004 1.3166254236334686e-013 0 -1 -7.1054273576007734e-014 0 0 0 1.5 1 I I 0 1 1.5 forward I I I I #
coedge $-1 $369 $369 $367 $396 reversed $399 $-1 #
edge $-1 $373 0 $371 3.1415926535897931 $395 $415 forward 7 unknown #
face $-1 $364 $399 $2 $-1 $416 reversed single #
cone-surface $-1 -20.620000000000378 5.2600000000000708 2.1699999999999999 -1 -7.1054273576007721e-014 0 -3.5527136788003861e-014 0.5 0 1 I I 0 1 0.5 forward I I I I #
loop $-1 $-1 $369 $397 #
ellipse-curve $-1 -20.720000000000379 5.2600000000000637 2.1699999999999999 -1 -7.1054273576010019e-014 0 3.5527136788005009e-014 -0.5 0 1 I I #
point $-1 -20.720000000000343 4.7600000000000637 2.1699999999999999 #
point $-1 -20.720000000000415 5.7600000000000637 2.1699999999999999 #
ellipse-curve $-1 -20.719999999999633 -5.2599999999999367 2.1699999999999999 1 7.1054273576010019e-014 0 3.5527136788005009e-014 -0.5 0 1 I I #
plane-surface $-1 -20.719999999999633 -5.2599999999999367 2.1699999999999999 1 7.1054273576007747e-014 0 7.1054273576007747e-014 -1 0 forward_v I I I I #
coedge $-1 $417 $418 $386 $406 reversed $419 $-1 #
edge $-1 $392 0 $390 3.1415926535897931 $386 $420 forward 7 unknown #
face $-1 $421 $419 $2 $-1 $422 forward single #
cone-surface $-1 -19.759000000000004 1.3166254236334686e-013 0 -1 -7.1054273576007734e-014 0 0 0 1.5 1 I I 0 1 1.5 forward I I I I #
coedge $-1 $423 $388 $418 $424 forward $411 $-1 #
coedge $-1 $388 $423 $417 $425 reversed $411 $-1 #
loop $-1 $-1 $388 $426 #
ellipse-curve $-1 -20.040000000000006 1.1169629148848865e-013 0 1 7.1054273576007734e-014 -8.7013514887412513e-030 0 -1.8369095307335659e-016 -1.5 1 I I #
point $-1 -20.040000000000006 1.1169629148848865e-013 1.5 #
point $-1 -20.040000000000006 1.1151260053541529e-013 -1.5 #
ellipse-curve $-1 -20.720000000000379 5.2600000000000637 2.1699999999999999 -1 -7.1054273576010019e-014 0 -3.5527136788005009e-014 0.5 0 1 I I #
plane-surface $-1 -20.720000000000379 5.2600000000000637 2.1699999999999999 -1 -7.1054273576007721e-014 0 -7.1054273576007721e-014 1 0 forward_v I I I I #
coedge $-1 $427 $405 $410 $425 forward $419 $-1 #
coedge $-1 $405 $427 $409 $424 reversed $419 $-1 #
loop $-1 $-1 $427 $407 #
ellipse-curve $-1 -20.040000000000006 1.1169629148848865e-013 0 -1 -7.1054273576007734e-014 8.7013514887412513e-030 0 -1.8369095307335659e-016 -1.5 1 I I #
face $-1 $426 $428 $2 $-1 $429 reversed single #
torus-surface $-1 -20.040000000000006 1.1169629148848865e-013 0 -1 -7.1054273576007734e-014 0 1.26 0.23999999999999999 0 0 1 forward_v I I I I #
coedge $-1 $410 $409 $430 $431 reversed $411 $-1 #
edge $-1 $390 -1.087668936092669e-028 $432 1.570796326794905 $418 $433 forward 7 unknown #
edge $-1 $392 0 $434 1.570796326794905 $417 $435 forward 7 unknown #
face $-1 $-1 $411 $2 $-1 $436 forward single #
coedge $-1 $418 $417 $437 $438 forward $419 $-1 #
loop $-1 $-1 $437 $421 #
plane-surface $-1 -19.799999999999997 1.2874931714673052e-013 0 -1 -7.1054273576007734e-014 0 0 0 1 forward_v I I I I #
coedge $-1 $437 $437 $423 $431 forward $428 $-1 #
edge $-1 $434 -1.2246063538165032e-016 $432 3.1415926535897931 $430 $439 forward 7 unknown #
vertex $-1 $424 $440 #
ellipse-curve $-1 -20.040000000000006 1.1200489228965201e-013 1.260000000000002 -7.1054273576007961e-014 1 -2.4492127076396629e-016 0 5.8781104983351425e-017 0.23999999999999799 1 I I #
vertex $-1 $425 $441 #
ellipse-curve $-1 -20.040000000000006 1.1154199108790712e-013 -1.260000000000002 7.1054273576008087e-014 -1 1.2246063538264054e-016 0 -2.9390552491833485e-017 -0.23999999999999799 1 I I #
torus-surface $-1 -20.040000000000006 1.1169629148848865e-013 0 -1 -7.1054273576007734e-014 0 1.26 0.23999999999999999 0 0 1 forward_v I I I I #
coedge $-1 $430 $430 $427 $438 reversed $428 $-1 #
edge $-1 $434 1.224606353816503e-016 $432 3.1415926535897931 $427 $442 forward 7 unknown #
ellipse-curve $-1 -19.799999999999994 1.2874931714673141e-013 0 1 7.1054273576007734e-014 -2.8196140307940482e-015 -3.5527136788005009e-015 -8.8352421384753322e-028 -1.26 1 I I #
point $-1 -19.799999999999997 1.2874931714673052e-013 1.26 #
point $-1 -19.800000000000008 1.2859501674614889e-013 -1.26 #
ellipse-curve $-1 -19.800000000000001 1.287493171467309e-013 0 -1 -7.1054273576007734e-014 -2.8196140307940482e-015 3.5527136788005009e-015 -3.7865323450608567e-028 -1.26 1 I I #
End-of-ACIS-data 