600 0 1 0           
92 GICL ACIS Healer - Source: /gicl/data5/repository/PTC/V18/bboxrev2/boombox/sm_cap_.sat - 6 0 18 ACIS 6.0.3 Solaris 24 Sat Apr 13 22:38:45 2002 
1 9.999999999999999547e-07 1.000000000000000036e-10 
body $-1 $1 $-1 $-1 #
lump $-1 $-1 $2 $0 #
shell $-1 $-1 $-1 $3 $-1 $1 #
face $-1 $4 $5 $2 $-1 $6 reversed single #
face $-1 $7 $8 $2 $-1 $9 forward single #
loop $-1 $-1 $10 $3 #
plane-surface $-1 -21.62000000000000455 8.832179344398544042e-15 -9.399999999999998579 1 7.105427357600774667e-14 0 0 0 1 forward_v I I I I #
face $-1 $11 $12 $2 $-1 $13 forward single #
loop $-1 $-1 $14 $4 #
cone-surface $-1 -21.62000000000000455 0 0 1 7.105427357600774667e-14 0 0 0 9.299999999999998934 1 I I 0 1 9.299999999999998934 forward I I I I #
coedge $-1 $15 $15 $16 $17 reversed $5 $-1 #
face $-1 $18 $19 $2 $-1 $20 forward single #
loop $-1 $-1 $21 $7 #
cone-surface $-1 -21.62000000000000455 0 0 1 7.105427357600774667e-14 0 0 0 9.299999999999998934 1 I I 0 1 9.299999999999998934 forward I I I I #
coedge $-1 $22 $16 $23 $24 forward $8 $-1 #
coedge $-1 $10 $10 $25 $26 reversed $5 $-1 #
coedge $-1 $14 $27 $10 $17 forward $8 $-1 #
edge $-1 $28 0 $29 3.141592653589793116 $10 $30 forward 7 unknown #
face $-1 $31 $32 $2 $-1 $33 reversed single #
loop $-1 $34 $35 $11 #
plane-surface $-1 -20.62000000000000455 7.98864529204062844e-14 -9.399999999999998579 1 7.105427357600774667e-14 0 0 0 1 forward_v I I I I #
coedge $-1 $36 $25 $27 $37 forward $12 $-1 #
coedge $-1 $27 $14 $35 $38 reversed $8 $-1 #
coedge $-1 $25 $36 $14 $24 reversed $12 $-1 #
edge $-1 $29 8.09252414915559381e-29 $39 1 $23 $40 forward 7 unknown #
coedge $-1 $21 $23 $15 $26 forward $12 $-1 #
edge $-1 $29 0 $28 3.141592653589793116 $15 $41 forward 7 unknown #
coedge $-1 $16 $22 $21 $37 reversed $8 $-1 #
vertex $-1 $26 $42 #
vertex $-1 $26 $43 #
ellipse-curve $-1 -21.62000000000000455 0 0 1 7.105427357600775929e-14 -8.701638870059880299e-30 0 -1.138921523207045082e-15 -9.299999999999995381 1 I I #
face $-1 $44 $45 $2 $-1 $46 reversed single #
loop $-1 $-1 $47 $18 #
plane-surface $-1 -20.61999999999978073 -3.159999999999929088 -5.180000000000000604 0 0 -1 -7.105427357600774667e-14 1 0 forward_v I I I I #
loop $-1 $48 $49 $11 #
coedge $-1 $50 $50 $22 $38 forward $19 $-1 #
coedge $-1 $23 $21 $50 $51 reversed $12 $-1 #
edge $-1 $28 -2.672646263191923166e-33 $52 1 $21 $53 forward 7 unknown #
edge $-1 $52 0 $39 3.141592653589795336 $35 $54 forward 7 unknown #
vertex $-1 $51 $55 #
straight-curve $-1 -21.62000000000000455 0 9.299999999999998934 1 7.105427357600774667e-14 0 I I #
ellipse-curve $-1 -21.62000000000000455 0 0 1 7.105427357600774667e-14 -8.701638870059778004e-30 0 1.13892152320703246e-15 9.300000000000000711 1 I I #
point $-1 -21.62000000000000455 -1.138921523207045082e-15 -9.299999999999995381 #
point $-1 -21.62000000000000455 1.13892152320703246e-15 9.300000000000000711 #
face $-1 $56 $57 $2 $-1 $58 reversed single #
loop $-1 $-1 $59 $31 #
cone-surface $-1 -20.62000000000022837 3.160000000000070308 -3.839999999999999858 1 7.105427357600774667e-14 0 9.521272659185038558e-14 -1.34000000000000008 0 1 I I 0 1 1.34000000000000008 forward I I I I #
coedge $-1 $60 $61 $62 $63 forward $32 $-1 #
loop $-1 $64 $65 $11 #
coedge $-1 $66 $67 $61 $68 reversed $34 $-1 #
coedge $-1 $35 $35 $36 $51 forward $19 $-1 #
edge $-1 $39 0 $52 3.141592653589791784 $50 $69 forward 7 unknown #
vertex $-1 $51 $70 #
straight-curve $-1 -21.62000000000000455 -1.138883909054810692e-15 -9.299999999999998934 1 7.105427357600774667e-14 0 I I #
ellipse-curve $-1 -20.62000000000000455 8.171241461241152138e-14 3.552713678800500929e-15 1 7.105427357600774667e-14 -9.013244198966303038e-29 0 -1.179706255961082926e-14 -9.299999999999998934 1 I I #
point $-1 -20.62000000000000455 7.219319509921477597e-14 9.300000000000000711 #
face $-1 $71 $72 $2 $-1 $73 reversed single #
loop $-1 $-1 $74 $44 #
plane-surface $-1 -20.62000000000022837 3.16000000000006942 -2.5 0 0 1 7.105427357600774667e-14 -1 0 forward_v I I I I #
coedge $-1 $75 $76 $77 $78 forward $45 $-1 #
coedge $-1 $79 $47 $80 $81 reversed $32 $-1 #
coedge $-1 $47 $79 $49 $68 forward $32 $-1 #
coedge $-1 $76 $75 $47 $63 reversed $45 $-1 #
edge $-1 $82 5.995342879679604522e-28 $83 0.1000000000000014211 $62 $84 forward 7 unknown #
loop $-1 $85 $86 $11 #
coedge $-1 $87 $88 $89 $90 forward $48 $-1 #
coedge $-1 $91 $49 $92 $93 reversed $34 $-1 #
coedge $-1 $49 $91 $76 $94 reversed $34 $-1 #
edge $-1 $95 0 $82 6.319999999999982521 $49 $96 forward 7 unknown #
ellipse-curve $-1 -20.62000000000000455 7.771561172376095783e-14 3.552713678800500929e-15 1 7.105427357600774667e-14 4.219261307969868757e-29 0 -5.522416624546181857e-15 9.299999999999997158 1 I I #
point $-1 -20.62000000000000455 6.991535205280069212e-14 -9.299999999999995381 #
face $-1 $97 $98 $2 $-1 $99 forward single #
loop $-1 $-1 $100 $56 #
cone-surface $-1 -20.61999999999978073 -3.159999999999929088 -3.839999999999999858 1 7.105427357600774667e-14 0 9.521272659185038558e-14 -1.34000000000000008 0 1 I I 0 1 1.34000000000000008 forward I I I I #
coedge $-1 $101 $102 $103 $104 forward $57 $-1 #
coedge $-1 $62 $59 $105 $106 reversed $45 $-1 #
coedge $-1 $59 $62 $67 $94 forward $45 $-1 #
coedge $-1 $102 $101 $59 $78 reversed $57 $-1 #
edge $-1 $107 0 $108 0.1000000000000014211 $59 $109 forward 7 unknown #
coedge $-1 $61 $60 $100 $110 reversed $32 $-1 #
coedge $-1 $105 $111 $60 $81 forward $98 $-1 #
edge $-1 $112 0 $83 6.319999999999984297 $80 $113 forward 7 unknown #
vertex $-1 $94 $114 #
vertex $-1 $106 $115 #
straight-curve $-1 -20.62000000000022837 3.160000000000070308 -5.180000000000000604 -1 -7.105427357600900885e-14 0 I I #
loop $-1 $116 $117 $11 #
coedge $-1 $118 $118 $119 $120 forward $64 $-1 #
coedge $-1 $121 $65 $122 $123 forward $48 $-1 #
coedge $-1 $65 $121 $124 $125 forward $48 $-1 #
coedge $-1 $126 $127 $65 $90 reversed $128 $-1 #
edge $-1 $129 0 $130 6.319999999999998508 $65 $131 forward 7 unknown #
coedge $-1 $67 $66 $102 $132 reversed $34 $-1 #
coedge $-1 $100 $103 $66 $93 forward $72 $-1 #
edge $-1 $133 0 $95 3.141592653589799333 $66 $134 forward 7 unknown #
edge $-1 $82 0 $107 3.141592653589799777 $67 $135 forward 7 unknown #
vertex $-1 $93 $136 #
straight-curve $-1 -20.61999999999978073 -3.159999999999921094 -5.180000000000000604 -7.082941827988358642e-14 1 0 I I #
face $-1 $137 $128 $2 $-1 $138 forward single #
loop $-1 $-1 $139 $71 #
plane-surface $-1 -20.72000000000000597 7.278102556280550973e-14 -9.399999999999998579 1 7.105427357600774667e-14 0 7.105427357600774667e-14 -1 0 forward_v I I I I #
coedge $-1 $140 $92 $79 $110 forward $72 $-1 #
coedge $-1 $77 $74 $139 $141 reversed $57 $-1 #
coedge $-1 $74 $77 $91 $132 forward $57 $-1 #
coedge $-1 $92 $140 $74 $104 reversed $72 $-1 #
edge $-1 $133 -3.15544362088400238e-29 $142 0.1000000000000014211 $74 $143 forward 7 unknown #
coedge $-1 $139 $80 $75 $106 forward $98 $-1 #
edge $-1 $83 0 $108 3.141592653589816653 $105 $144 forward 7 unknown #
vertex $-1 $94 $145 #
vertex $-1 $106 $146 #
straight-curve $-1 -20.62000000000022837 3.16000000000006942 -2.5 -1 -7.105427357600900885e-14 0 I I #
edge $-1 $95 -6.074228970201704806e-28 $112 0.1000000000000014211 $100 $147 forward 7 unknown #
coedge $-1 $80 $139 $140 $148 forward $98 $-1 #
vertex $-1 $81 $149 #
straight-curve $-1 -20.71999999999978215 -3.159999999999928644 -5.180000000000000604 -7.082941827988358642e-14 1 0 I I #
point $-1 -20.62000000000022837 3.160000000000061871 -5.179999999999995275 #
point $-1 -20.72000000000022979 3.160000000000055209 -5.179999999999995275 #
loop $-1 $150 $151 $11 #
coedge $-1 $152 $152 $153 $154 reversed $85 $-1 #
coedge $-1 $86 $86 $155 $156 forward $64 $-1 #
coedge $-1 $157 $158 $86 $120 reversed $159 $-1 #
edge $-1 $160 0 $161 3.141592653589814432 $86 $162 forward 7 unknown #
coedge $-1 $88 $87 $163 $164 forward $48 $-1 #
coedge $-1 $165 $166 $87 $123 reversed $167 $-1 #
edge $-1 $130 0 $168 3.14159265358980555 $87 $169 forward 7 unknown #
coedge $-1 $170 $171 $88 $125 reversed $172 $-1 #
edge $-1 $173 0 $129 3.141592653589806439 $88 $174 forward 7 unknown #
coedge $-1 $175 $89 $171 $176 forward $128 $-1 #
coedge $-1 $89 $175 $165 $177 reversed $128 $-1 #
loop $-1 $-1 $126 $97 #
vertex $-1 $125 $178 #
vertex $-1 $123 $179 #
straight-curve $-1 -20.62000000000022837 3.16000000000006942 2.5 7.082941827988342234e-14 -1 0 I I #
edge $-1 $107 0 $133 6.319999999999998508 $91 $180 forward 7 unknown #
vertex $-1 $132 $181 #
ellipse-curve $-1 -20.61999999999978073 -3.159999999999929088 -3.839999999999999858 1 7.105427357600774667e-14 -2.354808672301451057e-29 0 4.440892098500626162e-16 1.340000000000000746 1 I I #
ellipse-curve $-1 -20.62000000000022837 3.160000000000070308 -3.839999999999999858 1 7.105427357600774667e-14 -4.474136477372775534e-28 0 -8.437694987151189707e-15 -1.339999999999995417 1 I I #
point $-1 -20.61999999999978073 -3.159999999999921094 -5.179999999999995275 #
face $-1 $182 $172 $2 $-1 $183 reversed single #
plane-surface $-1 -20.62000000000022837 3.16000000000006942 2.5 0 0 1 7.105427357600774667e-14 -1 0 forward_v I I I I #
coedge $-1 $111 $105 $101 $141 forward $98 $-1 #
coedge $-1 $103 $100 $111 $148 reversed $72 $-1 #
edge $-1 $108 0 $142 6.319999999999998508 $139 $184 forward 7 unknown #
vertex $-1 $148 $185 #
straight-curve $-1 -20.61999999999978073 -3.159999999999929088 -2.5 -1 -7.105427357600900885e-14 0 I I #
ellipse-curve $-1 -20.72000000000022979 3.160000000000074749 -3.839999999999997193 1 7.105427357600774667e-14 -1.036115815812640763e-27 0 -1.953992523340275511e-14 -1.339999999999998082 1 I I #
point $-1 -20.62000000000022837 3.16000000000006942 -2.499999999999999112 #
point $-1 -20.72000000000022979 3.160000000000062315 -2.499999999999999112 #
straight-curve $-1 -20.61999999999978073 -3.159999999999929088 -5.179999999999999716 -1 -7.105427357600900885e-14 -8.881784197001126106e-15 I I #
edge $-1 $142 0 $112 3.141592653589789119 $111 $186 forward 7 unknown #
point $-1 -20.71999999999978215 -3.159999999999928644 -5.179999999999995275 #
loop $-1 $187 $188 $11 #
coedge $-1 $189 $189 $190 $191 reversed $116 $-1 #
coedge $-1 $117 $117 $192 $193 reversed $85 $-1 #
coedge $-1 $194 $195 $117 $154 forward $196 $-1 #
edge $-1 $197 0 $198 3.141592653589814432 $117 $199 forward 7 unknown #
coedge $-1 $200 $201 $118 $156 reversed $202 $-1 #
edge $-1 $161 0 $160 3.1415926535897718 $118 $203 forward 7 unknown #
coedge $-1 $204 $119 $201 $205 forward $159 $-1 #
coedge $-1 $119 $204 $200 $206 reversed $159 $-1 #
loop $-1 $-1 $157 $207 #
vertex $-1 $156 $208 #
vertex $-1 $156 $209 #
ellipse-curve $-1 -20.61999999999963151 -5.259999999999929621 -2.169999999999999929 -1 -7.105427357601001859e-14 -2.421443746353283899e-41 -3.552713678800500929e-14 0.5 5.329070518200751394e-15 1 I I #
coedge $-1 $210 $211 $121 $164 reversed $212 $-1 #
edge $-1 $168 0 $173 6.319999999999966533 $121 $213 forward 7 unknown #
coedge $-1 $214 $122 $127 $177 forward $167 $-1 #
coedge $-1 $122 $214 $210 $215 reversed $167 $-1 #
loop $-1 $-1 $165 $216 #
vertex $-1 $164 $217 #
ellipse-curve $-1 -20.61999999999978073 -3.159999999999929088 3.839999999999999858 -1 -7.105427357600775929e-14 -2.354808672301452739e-29 0 4.440892098500626162e-16 -1.339999999999999858 1 I I #
coedge $-1 $218 $124 $211 $219 forward $172 $-1 #
coedge $-1 $124 $218 $126 $176 reversed $172 $-1 #
loop $-1 $-1 $170 $137 #
vertex $-1 $125 $220 #
ellipse-curve $-1 -20.62000000000022837 3.160000000000070308 3.839999999999999858 -1 -7.105427357600774667e-14 -8.948272954745473941e-28 0 -1.687538997430237941e-14 1.340000000000006963 1 I I #
coedge $-1 $127 $126 $221 $222 forward $128 $-1 #
edge $-1 $129 0 $223 0.1000000000000014211 $171 $224 forward 7 unknown #
edge $-1 $130 -3.15544362088400238e-29 $225 0.1000000000000014211 $127 $226 forward 7 unknown #
point $-1 -20.62000000000022837 3.16000000000006942 2.5 #
point $-1 -20.61999999999978073 -3.159999999999928644 2.5 #
straight-curve $-1 -20.62000000000022837 3.16000000000006942 -2.5 7.082941827988342234e-14 -1 0 I I #
point $-1 -20.61999999999978073 -3.159999999999928644 -2.499999999999999112 #
face $-1 $216 $212 $2 $-1 $227 forward single #
cone-surface $-1 -20.62000000000022837 3.160000000000070308 3.839999999999999858 -1 -7.105427357600774667e-14 0 9.521272659185038558e-14 -1.34000000000000008 0 1 I I 0 1 1.34000000000000008 forward I I I I #
straight-curve $-1 -20.72000000000022979 3.160000000000062315 -2.5 7.082941827988342234e-14 -1 0 I I #
point $-1 -20.71999999999978215 -3.159999999999935749 -2.499999999999999112 #
ellipse-curve $-1 -20.71999999999978215 -3.159999999999929532 -3.839999999999997193 1 7.105427357600774667e-14 3.296732141222038711e-28 0 -6.217248937900876626e-15 1.339999999999998082 1 I I #
loop $-1 $-1 $228 $11 #
coedge $-1 $229 $229 $230 $231 forward $150 $-1 #
coedge $-1 $151 $151 $232 $233 reversed $116 $-1 #
coedge $-1 $234 $235 $151 $191 forward $236 $-1 #
edge $-1 $237 0 $238 3.1415926535897718 $151 $239 forward 7 unknown #
coedge $-1 $240 $241 $152 $193 forward $242 $-1 #
edge $-1 $198 0 $197 3.1415926535897718 $152 $243 forward 7 unknown #
coedge $-1 $244 $153 $241 $245 forward $196 $-1 #
coedge $-1 $153 $244 $240 $246 reversed $196 $-1 #
loop $-1 $-1 $194 $247 #
vertex $-1 $193 $248 #
vertex $-1 $193 $249 #
ellipse-curve $-1 -20.62000000000037758 5.260000000000070841 -2.169999999999999929 1 7.105427357601001859e-14 -2.448348676868320386e-41 3.552713678800500929e-14 -0.5 5.329070518200751394e-15 1 I I #
coedge $-1 $250 $155 $158 $206 forward $202 $-1 #
coedge $-1 $155 $250 $157 $205 reversed $202 $-1 #
loop $-1 $-1 $200 $251 #
ellipse-curve $-1 -20.61999999999963151 -5.259999999999929621 -2.169999999999999929 -1 -7.105427357601001859e-14 2.421443746353283899e-41 3.552713678800500929e-14 -0.5 5.329070518200751394e-15 1 I I #
coedge $-1 $158 $157 $252 $253 forward $159 $-1 #
edge $-1 $160 0 $254 0.1000000000000014211 $201 $255 forward 7 unknown #
edge $-1 $161 0 $256 0.1000000000000014211 $200 $257 forward 7 unknown #
face $-1 $251 $159 $2 $-1 $258 reversed single #
point $-1 -20.61999999999966704 -4.759999999999929621 -2.1699999999999946 #
point $-1 -20.61999999999959599 -5.759999999999929621 -2.1699999999999946 #
coedge $-1 $259 $163 $166 $215 forward $212 $-1 #
coedge $-1 $163 $259 $170 $219 reversed $212 $-1 #
loop $-1 $-1 $210 $182 #
straight-curve $-1 -20.61999999999978073 -3.159999999999912657 5.180000000000000604 -7.082941827988377575e-14 1 0 I I #
coedge $-1 $166 $165 $260 $261 forward $167 $-1 #
edge $-1 $168 -1.104405267309400923e-27 $262 0.1000000000000014211 $166 $263 forward 7 unknown #
face $-1 $264 $167 $2 $-1 $265 reversed single #
point $-1 -20.61999999999978073 -3.159999999999912657 5.180000000000006821 #
coedge $-1 $171 $170 $266 $267 forward $172 $-1 #
edge $-1 $173 1.199068575935920904e-27 $268 0.1000000000000014211 $170 $269 forward 7 unknown #
point $-1 -20.62000000000022837 3.160000000000053433 5.180000000000006821 #
coedge $-1 $266 $260 $175 $222 reversed $270 $-1 #
edge $-1 $223 0 $225 6.319999999999998508 $221 $271 forward 7 unknown #
vertex $-1 $267 $272 #
straight-curve $-1 -20.62000000000022837 3.16000000000006942 2.5 -1 -7.105427357600900885e-14 0 I I #
vertex $-1 $222 $273 #
straight-curve $-1 -20.61999999999978073 -3.159999999999929088 2.5 -1 -7.105427357600900885e-14 0 I I #
plane-surface $-1 -20.61999999999978073 -3.159999999999929088 5.180000000000000604 0 0 -1 -7.105427357600774667e-14 1 0 forward_v I I I I #
coedge $-1 $274 $274 $275 $276 forward $187 $-1 #
coedge $-1 $188 $188 $277 $278 forward $150 $-1 #
coedge $-1 $279 $280 $188 $231 reversed $281 $-1 #
edge $-1 $282 0 $283 3.1415926535897718 $188 $284 forward 7 unknown #
coedge $-1 $285 $286 $189 $233 forward $287 $-1 #
edge $-1 $238 0 $237 3.141592653589814432 $189 $288 forward 7 unknown #
coedge $-1 $289 $190 $286 $290 forward $236 $-1 #
coedge $-1 $190 $289 $285 $291 reversed $236 $-1 #
loop $-1 $-1 $234 $292 #
vertex $-1 $233 $293 #
vertex $-1 $233 $294 #
ellipse-curve $-1 -20.61999999999963151 -5.259999999999929621 2.169999999999999929 1 7.105427357601001859e-14 2.421443746353283899e-41 -3.552713678800500929e-14 0.5 5.329070518200751394e-15 1 I I #
coedge $-1 $295 $192 $195 $246 forward $242 $-1 #
coedge $-1 $192 $295 $194 $245 reversed $242 $-1 #
loop $-1 $-1 $240 $296 #
ellipse-curve $-1 -20.62000000000037758 5.260000000000070841 -2.169999999999999929 1 7.105427357601001859e-14 2.448348676868320386e-41 -3.552713678800500929e-14 0.5 5.329070518200751394e-15 1 I I #
coedge $-1 $195 $194 $297 $298 reversed $196 $-1 #
edge $-1 $198 0 $299 0.1000000000000014211 $241 $300 forward 7 unknown #
edge $-1 $197 0 $301 0.1000000000000014211 $240 $302 forward 7 unknown #
face $-1 $296 $196 $2 $-1 $303 reversed single #
point $-1 -20.62000000000034206 4.760000000000070841 -2.1699999999999946 #
point $-1 -20.62000000000041311 5.760000000000070841 -2.1699999999999946 #
coedge $-1 $201 $200 $304 $305 forward $202 $-1 #
face $-1 $306 $202 $2 $-1 $307 reversed single #
coedge $-1 $304 $304 $204 $253 reversed $308 $-1 #
edge $-1 $254 0 $256 3.141592653589793116 $252 $309 forward 7 unknown #
vertex $-1 $305 $310 #
straight-curve $-1 -20.61999999999966704 -4.759999999999929621 -2.169999999999999929 -1 -7.105427357600900885e-14 0 I I #
vertex $-1 $305 $311 #
straight-curve $-1 -20.61999999999959599 -5.759999999999929621 -2.169999999999999929 -1 -7.105427357600900885e-14 0 I I #
cone-surface $-1 -20.61999999999963151 -5.259999999999929621 -2.169999999999999929 -1 -7.105427357600774667e-14 0 3.552713678800387333e-14 -0.5 0 1 I I 0 1 0.5 forward I I I I #
coedge $-1 $211 $210 $312 $313 forward $212 $-1 #
coedge $-1 $221 $312 $214 $261 reversed $270 $-1 #
edge $-1 $225 0 $262 3.141592653589789119 $260 $314 forward 7 unknown #
vertex $-1 $261 $315 #
straight-curve $-1 -20.61999999999978073 -3.159999999999929088 5.179999999999999716 -1 -7.105427357600900885e-14 8.881784197001126106e-15 I I #
face $-1 $207 $270 $2 $-1 $316 reversed single #
cone-surface $-1 -20.61999999999978073 -3.159999999999929088 3.839999999999999858 -1 -7.105427357600774667e-14 0 9.521272659185038558e-14 -1.34000000000000008 0 1 I I 0 1 1.34000000000000008 forward I I I I #
coedge $-1 $312 $221 $218 $267 reversed $270 $-1 #
edge $-1 $268 0 $223 3.141592653589816653 $266 $317 forward 7 unknown #
vertex $-1 $267 $318 #
straight-curve $-1 -20.62000000000022837 3.160000000000070308 5.180000000000000604 -1 -7.105427357600900885e-14 0 I I #
loop $-1 $-1 $312 $264 #
straight-curve $-1 -20.72000000000022979 3.160000000000062315 2.5 7.082941827988342234e-14 -1 0 I I #
point $-1 -20.72000000000022979 3.160000000000062315 2.499999999999999112 #
point $-1 -20.71999999999978215 -3.159999999999935749 2.499999999999999112 #
coedge $-1 $228 $228 $319 $320 forward $187 $-1 #
coedge $-1 $321 $322 $228 $276 reversed $323 $-1 #
edge $-1 $324 0 $325 3.141592653589793116 $228 $326 forward 7 unknown #
coedge $-1 $327 $328 $229 $278 reversed $329 $-1 #
edge $-1 $283 0 $282 3.141592653589814432 $229 $330 forward 7 unknown #
coedge $-1 $331 $230 $328 $332 forward $281 $-1 #
coedge $-1 $230 $331 $327 $333 reversed $281 $-1 #
loop $-1 $-1 $279 $334 #
vertex $-1 $278 $335 #
vertex $-1 $278 $336 #
ellipse-curve $-1 -20.62000000000037758 5.260000000000070841 2.169999999999999929 -1 -7.105427357601001859e-14 2.448348676868320386e-41 3.552713678800500929e-14 -0.5 5.329070518200751394e-15 1 I I #
coedge $-1 $337 $232 $235 $291 forward $287 $-1 #
coedge $-1 $232 $337 $234 $290 reversed $287 $-1 #
loop $-1 $-1 $285 $338 #
ellipse-curve $-1 -20.61999999999963151 -5.259999999999929621 2.169999999999999929 1 7.105427357601001859e-14 -2.421443746353283899e-41 3.552713678800500929e-14 -0.5 5.329070518200751394e-15 1 I I #
coedge $-1 $235 $234 $339 $340 reversed $236 $-1 #
edge $-1 $238 0 $341 0.1000000000000014211 $286 $342 forward 7 unknown #
edge $-1 $237 0 $343 0.1000000000000014211 $285 $344 forward 7 unknown #
face $-1 $338 $236 $2 $-1 $345 reversed single #
point $-1 -20.61999999999966704 -4.759999999999929621 2.170000000000005258 #
point $-1 -20.61999999999959599 -5.759999999999929621 2.170000000000005258 #
coedge $-1 $241 $240 $346 $347 reversed $242 $-1 #
face $-1 $348 $242 $2 $-1 $349 reversed single #
coedge $-1 $346 $346 $244 $298 forward $350 $-1 #
edge $-1 $301 0 $299 3.141592653589793116 $297 $351 forward 7 unknown #
vertex $-1 $347 $352 #
straight-curve $-1 -20.62000000000041311 5.760000000000070841 -2.169999999999999929 -1 -7.105427357600900885e-14 0 I I #
vertex $-1 $347 $353 #
straight-curve $-1 -20.62000000000034206 4.760000000000070841 -2.169999999999999929 -1 -7.105427357600900885e-14 0 I I #
cone-surface $-1 -20.62000000000037758 5.260000000000070841 -2.169999999999999929 1 7.105427357600772142e-14 0 -3.552713678800386071e-14 0.5 0 1 I I 0 1 0.5 forward I I I I #
coedge $-1 $252 $252 $250 $305 reversed $308 $-1 #
edge $-1 $256 0 $254 3.141592653589793116 $304 $354 forward 7 unknown #
face $-1 $247 $308 $2 $-1 $355 reversed single #
cone-surface $-1 -20.61999999999963151 -5.259999999999929621 -2.169999999999999929 -1 -7.105427357600774667e-14 0 3.552713678800387333e-14 -0.5 0 1 I I 0 1 0.5 forward I I I I #
loop $-1 $-1 $252 $306 #
ellipse-curve $-1 -20.71999999999963293 -5.259999999999936726 -2.169999999999999929 -1 -7.105427357601001859e-14 0 -3.552713678800500929e-14 0.5 0 1 I I #
point $-1 -20.71999999999966846 -4.759999999999936726 -2.169999999999999929 #
point $-1 -20.71999999999959741 -5.759999999999936726 -2.169999999999999929 #
coedge $-1 $260 $266 $259 $313 reversed $270 $-1 #
edge $-1 $262 0 $268 6.319999999999984297 $312 $356 forward 7 unknown #
ellipse-curve $-1 -20.71999999999978215 -3.159999999999929532 3.839999999999997193 -1 -7.105427357600774667e-14 3.296732141222038711e-28 0 -6.217248937900876626e-15 -1.339999999999998082 1 I I #
point $-1 -20.71999999999978215 -3.159999999999928644 5.179999999999995275 #
plane-surface $-1 -20.72000000000000597 7.27810255628055476e-14 9.399999999999998579 -1 -7.105427357600774667e-14 0 7.105427357600774667e-14 -1 0 forward_v I I I I #
ellipse-curve $-1 -20.72000000000022979 3.160000000000074749 3.839999999999997193 -1 -7.105427357600774667e-14 -1.036115815812640763e-27 0 -1.953992523340275511e-14 1.339999999999998082 1 I I #
point $-1 -20.72000000000022979 3.160000000000055209 5.179999999999995275 #
coedge $-1 $357 $358 $274 $320 reversed $359 $-1 #
edge $-1 $325 0 $324 3.141592653589794004 $274 $360 forward 7 unknown #
coedge $-1 $361 $275 $358 $362 forward $323 $-1 #
coedge $-1 $275 $361 $357 $363 reversed $323 $-1 #
loop $-1 $-1 $321 $364 #
vertex $-1 $320 $365 #
vertex $-1 $320 $366 #
ellipse-curve $-1 -20.62000000000000455 7.033262861000366684e-14 0 -1 -7.105427357600773405e-14 1.591053093233944671e-29 0 3.358812242725921711e-16 1.5 1 I I #
coedge $-1 $367 $277 $280 $333 forward $329 $-1 #
coedge $-1 $277 $367 $279 $332 reversed $329 $-1 #
loop $-1 $-1 $327 $368 #
ellipse-curve $-1 -20.62000000000037758 5.260000000000070841 2.169999999999999929 -1 -7.105427357601001859e-14 -2.448348676868320386e-41 -3.552713678800500929e-14 0.5 5.329070518200751394e-15 1 I I #
coedge $-1 $280 $279 $369 $370 forward $281 $-1 #
edge $-1 $282 0 $371 0.1000000000000014211 $328 $372 forward 7 unknown #
edge $-1 $283 0 $373 0.1000000000000014211 $327 $374 forward 7 unknown #
face $-1 $368 $281 $2 $-1 $375 reversed single #
point $-1 -20.62000000000034206 4.760000000000070841 2.170000000000005258 #
point $-1 -20.62000000000041311 5.760000000000070841 2.170000000000005258 #
coedge $-1 $286 $285 $376 $377 reversed $287 $-1 #
face $-1 $378 $287 $2 $-1 $379 reversed single #
coedge $-1 $376 $376 $289 $340 forward $380 $-1 #
edge $-1 $343 0 $341 3.141592653589793116 $339 $381 forward 7 unknown #
vertex $-1 $377 $382 #
straight-curve $-1 -20.61999999999959599 -5.759999999999929621 2.169999999999999929 -1 -7.105427357600900885e-14 0 I I #
vertex $-1 $377 $383 #
straight-curve $-1 -20.61999999999966704 -4.759999999999929621 2.169999999999999929 -1 -7.105427357600900885e-14 0 I I #
cone-surface $-1 -20.61999999999963151 -5.259999999999929621 2.169999999999999929 1 7.105427357600774667e-14 0 3.552713678800387333e-14 -0.5 0 1 I I 0 1 0.5 forward I I I I #
coedge $-1 $297 $297 $295 $347 forward $350 $-1 #
edge $-1 $299 0 $301 3.141592653589793116 $346 $384 forward 7 unknown #
face $-1 $292 $350 $2 $-1 $385 forward single #
cone-surface $-1 -20.62000000000037758 5.260000000000070841 -2.169999999999999929 1 7.105427357600772142e-14 0 -3.552713678800386071e-14 0.5 0 1 I I 0 1 0.5 forward I I I I #
loop $-1 $-1 $297 $348 #
ellipse-curve $-1 -20.720000000000379 5.260000000000063736 -2.169999999999999929 1 7.105427357601001859e-14 0 3.552713678800500929e-14 -0.5 0 1 I I #
point $-1 -20.72000000000041453 5.760000000000063736 -2.169999999999999929 #
point $-1 -20.72000000000034348 4.760000000000063736 -2.169999999999999929 #
ellipse-curve $-1 -20.71999999999963293 -5.259999999999936726 -2.169999999999999929 -1 -7.105427357601001859e-14 0 3.552713678800500929e-14 -0.5 0 1 I I #
plane-surface $-1 -20.71999999999963293 -5.259999999999936726 -2.169999999999999929 -1 -7.105427357600774667e-14 0 7.105427357600774667e-14 -1 0 forward_v I I I I #
straight-curve $-1 -20.71999999999978215 -3.159999999999928644 5.180000000000000604 -7.082941827988358642e-14 1 0 I I #
coedge $-1 $386 $319 $322 $363 forward $359 $-1 #
coedge $-1 $319 $386 $321 $362 reversed $359 $-1 #
loop $-1 $-1 $357 $387 #
ellipse-curve $-1 -20.62000000000000455 6.94444501903035416e-14 0 -1 -7.105427357600773405e-14 -2.869683183642669083e-29 0 6.058080054621050954e-16 -1.499999999999999112 1 I I #
coedge $-1 $322 $321 $388 $389 reversed $323 $-1 #
edge $-1 $324 -1.305159616113400219e-29 $390 0.5799999999999982947 $358 $391 forward 7 unknown #
edge $-1 $325 -1.782493552334644002e-29 $392 0.5799999999999982947 $357 $393 forward 7 unknown #
face $-1 $387 $323 $2 $-1 $394 forward single #
point $-1 -20.62000000000000455 7.066850983427625901e-14 1.5 #
point $-1 -20.62000000000000455 7.00502581957656467e-14 -1.499999999999999112 #
coedge $-1 $328 $327 $395 $396 forward $329 $-1 #
face $-1 $397 $329 $2 $-1 $398 reversed single #
coedge $-1 $395 $395 $331 $370 reversed $399 $-1 #
edge $-1 $371 0 $373 3.141592653589793116 $369 $400 forward 7 unknown #
vertex $-1 $396 $401 #
straight-curve $-1 -20.62000000000034206 4.760000000000070841 2.169999999999999929 -1 -7.105427357600900885e-14 0 I I #
vertex $-1 $396 $402 #
straight-curve $-1 -20.62000000000041311 5.760000000000070841 2.169999999999999929 -1 -7.105427357600900885e-14 0 I I #
cone-surface $-1 -20.62000000000037758 5.260000000000070841 2.169999999999999929 -1 -7.105427357600772142e-14 0 -3.552713678800386071e-14 0.5 0 1 I I 0 1 0.5 forward I I I I #
coedge $-1 $339 $339 $337 $377 forward $380 $-1 #
edge $-1 $341 0 $343 3.141592653589793116 $376 $403 forward 7 unknown #
face $-1 $334 $380 $2 $-1 $404 forward single #
cone-surface $-1 -20.61999999999963151 -5.259999999999929621 2.169999999999999929 1 7.105427357600774667e-14 0 3.552713678800387333e-14 -0.5 0 1 I I 0 1 0.5 forward I I I I #
loop $-1 $-1 $339 $378 #
ellipse-curve $-1 -20.71999999999963293 -5.259999999999936726 2.169999999999999929 1 7.105427357601001859e-14 0 -3.552713678800500929e-14 0.5 0 1 I I #
point $-1 -20.71999999999959741 -5.759999999999936726 2.169999999999999929 #
point $-1 -20.71999999999966846 -4.759999999999936726 2.169999999999999929 #
ellipse-curve $-1 -20.720000000000379 5.260000000000063736 -2.169999999999999929 1 7.105427357601001859e-14 0 -3.552713678800500929e-14 0.5 0 1 I I #
plane-surface $-1 -20.720000000000379 5.260000000000063736 -2.169999999999999929 1 7.105427357600772142e-14 0 -7.105427357600772142e-14 1 0 forward_v I I I I #
coedge $-1 $358 $357 $405 $406 forward $359 $-1 #
face $-1 $407 $359 $2 $-1 $408 forward single #
coedge $-1 $409 $410 $361 $389 forward $411 $-1 #
edge $-1 $392 0 $390 3.141592653589793116 $361 $412 forward 7 unknown #
vertex $-1 $362 $413 #
straight-curve $-1 -20.62000000000000455 7.085219472055086946e-14 1.5 1 7.10542735760075321e-14 0 I I #
vertex $-1 $406 $414 #
straight-curve $-1 -20.62000000000000455 7.03011218613307997e-14 -1.5 1 7.10542735760075321e-14 0 I I #
cone-surface $-1 -19.75900000000000389 1.316625423633468597e-13 0 -1 -7.105427357600773405e-14 0 0 0 1.5 1 I I 0 1 1.5 forward I I I I #
coedge $-1 $369 $369 $367 $396 reversed $399 $-1 #
edge $-1 $373 0 $371 3.141592653589793116 $395 $415 forward 7 unknown #
face $-1 $364 $399 $2 $-1 $416 reversed single #
cone-surface $-1 -20.62000000000037758 5.260000000000070841 2.169999999999999929 -1 -7.105427357600772142e-14 0 -3.552713678800386071e-14 0.5 0 1 I I 0 1 0.5 forward I I I I #
loop $-1 $-1 $369 $397 #
ellipse-curve $-1 -20.720000000000379 5.260000000000063736 2.169999999999999929 -1 -7.105427357601001859e-14 0 3.552713678800500929e-14 -0.5 0 1 I I #
point $-1 -20.72000000000034348 4.760000000000063736 2.169999999999999929 #
point $-1 -20.72000000000041453 5.760000000000063736 2.169999999999999929 #
ellipse-curve $-1 -20.71999999999963293 -5.259999999999936726 2.169999999999999929 1 7.105427357601001859e-14 0 3.552713678800500929e-14 -0.5 0 1 I I #
plane-surface $-1 -20.71999999999963293 -5.259999999999936726 2.169999999999999929 1 7.105427357600774667e-14 0 7.105427357600774667e-14 -1 0 forward_v I I I I #
coedge $-1 $417 $418 $386 $406 reversed $419 $-1 #
edge $-1 $392 0 $390 3.141592653589793116 $386 $420 forward 7 unknown #
face $-1 $421 $419 $2 $-1 $422 forward single #
cone-surface $-1 -19.75900000000000389 1.316625423633468597e-13 0 -1 -7.105427357600773405e-14 0 0 0 1.5 1 I I 0 1 1.5 forward I I I I #
coedge $-1 $423 $388 $418 $424 forward $411 $-1 #
coedge $-1 $388 $423 $417 $425 reversed $411 $-1 #
loop $-1 $-1 $388 $426 #
ellipse-curve $-1 -20.04000000000000625 1.116962914884886468e-13 0 1 7.105427357600773405e-14 -8.701351488741251324e-30 0 -1.836909530733565887e-16 -1.5 1 I I #
point $-1 -20.04000000000000625 1.116962914884886468e-13 1.5 #
point $-1 -20.04000000000000625 1.115126005354152902e-13 -1.5 #
ellipse-curve $-1 -20.720000000000379 5.260000000000063736 2.169999999999999929 -1 -7.105427357601001859e-14 0 -3.552713678800500929e-14 0.5 0 1 I I #
plane-surface $-1 -20.720000000000379 5.260000000000063736 2.169999999999999929 -1 -7.105427357600772142e-14 0 -7.105427357600772142e-14 1 0 forward_v I I I I #
coedge $-1 $427 $405 $410 $425 forward $419 $-1 #
coedge $-1 $405 $427 $409 $424 reversed $419 $-1 #
loop $-1 $-1 $427 $407 #
ellipse-curve $-1 -20.04000000000000625 1.116962914884886468e-13 0 -1 -7.105427357600773405e-14 8.701351488741251324e-30 0 -1.836909530733565887e-16 -1.5 1 I I #
face $-1 $426 $428 $2 $-1 $429 reversed single #
torus-surface $-1 -20.04000000000000625 1.116962914884886468e-13 0 -1 -7.105427357600773405e-14 0 1.260000000000000009 0.2399999999999999911 0 0 1 forward_v I I I I #
coedge $-1 $410 $409 $430 $431 reversed $411 $-1 #
edge $-1 $390 -1.087668936092668803e-28 $432 1.570796326794904996 $418 $433 forward 7 unknown #
edge $-1 $392 0 $434 1.570796326794904996 $417 $435 forward 7 unknown #
face $-1 $-1 $411 $2 $-1 $436 forward single #
coedge $-1 $418 $417 $437 $438 forward $419 $-1 #
loop $-1 $-1 $437 $421 #
plane-surface $-1 -19.79999999999999716 1.287493171467305237e-13 0 -1 -7.105427357600773405e-14 0 0 0 1 forward_v I I I I #
coedge $-1 $437 $437 $423 $431 forward $428 $-1 #
edge $-1 $434 -1.224606353816503203e-16 $432 3.141592653589793116 $430 $439 forward 7 unknown #
vertex $-1 $424 $440 #
ellipse-curve $-1 -20.04000000000000625 1.120048922896520086e-13 1.260000000000002007 -7.105427357600796124e-14 1 -2.449212707639662912e-16 0 5.878110498335142475e-17 0.2399999999999979927 1 I I #
vertex $-1 $425 $441 #
ellipse-curve $-1 -20.04000000000000625 1.115419910879071237e-13 -1.260000000000002007 7.105427357600808746e-14 -1 1.224606353826405379e-16 0 -2.939055249183348455e-17 -0.2399999999999979927 1 I I #
torus-surface $-1 -20.04000000000000625 1.116962914884886468e-13 0 -1 -7.105427357600773405e-14 0 1.260000000000000009 0.2399999999999999911 0 0 1 forward_v I I I I #
coedge $-1 $430 $430 $427 $438 reversed $428 $-1 #
edge $-1 $434 1.224606353816502956e-16 $432 3.141592653589793116 $427 $442 forward 7 unknown #
ellipse-curve $-1 -19.79999999999999361 1.287493171467314072e-13 0 1 7.105427357600773405e-14 -2.8196140307940482e-15 -3.552713678800500929e-15 -8.835242138475332221e-28 -1.260000000000000009 1 I I #
point $-1 -19.79999999999999716 1.287493171467305237e-13 1.260000000000000009 #
point $-1 -19.80000000000000782 1.28595016746148887e-13 -1.260000000000000009 #
ellipse-curve $-1 -19.80000000000000071 1.287493171467309024e-13 0 -1 -7.105427357600773405e-14 -2.8196140307940482e-15 3.552713678800500929e-15 -3.786532345060856666e-28 -1.260000000000000009 1 I I #
End-of-ACIS-data 