700 0 2 0           
24 FBMach with ACIS - 7.0.3 13 ACIS 7.0.3 NT 24 Thu May 16 09:02:59 2002 
1 9.9999999999999995e-007 1e-010 
body $2 -1 $-1 $3 $-1 $4 #
bdycol-kcp $-1 -1 1 1 $5 #
model_id-kcp-attrib $-1 -1 $-1 $-1 $0 1 1021554179 1021554179 -1070727167 1 #
lump $-1 -1 $-1 $-1 $6 $0 #
transform $-1 -1 1 0 0 0 1 0 0 0 1 0 0 0 1 rotate no_reflect no_shear #
body $7 -1 $-1 $8 $-1 $9 #
shell $-1 -1 $-1 $-1 $-1 $10 $-1 $3 #
model_id-kcp-attrib $-1 -1 $-1 $-1 $5 1 1021554179 1021554179 -1070071806 1 #
lump $-1 -1 $-1 $-1 $11 $5 #
transform $-1 -1 1 0 0 0 1 0 0 0 1 2.794 -4.4449999999999994 0.88900000000000001 1 no_rotate no_reflect no_shear #
face $12 -1 $-1 $13 $14 $6 $-1 $15 reversed single #
shell $-1 -1 $-1 $-1 $-1 $16 $-1 $8 #
model_id-kcp-attrib $-1 -1 $-1 $-1 $10 1 1021554179 1021554179 -1070727167 2 #
face $17 -1 $-1 $18 $19 $6 $-1 $20 forward single #
loop $-1 -1 $-1 $-1 $21 $10 #
plane-surface $-1 -1 $-1 0 0 0 0 0 1 25.399999999999999 0 0 forward_v I I I I #
face $22 -1 $-1 $23 $24 $11 $-1 $25 forward single #
model_id-kcp-attrib $-1 -1 $-1 $-1 $13 1 1021554179 1021554179 -1070727167 3 #
face $26 -1 $-1 $27 $28 $6 $-1 $29 forward single #
loop $-1 -1 $-1 $-1 $30 $13 #
plane-surface $-1 -1 $-1 6.8579999999999997 0.6349999999999999 0 0 1 0 -25.399999999999999 0 0 forward_v I I I I #
coedge $-1 -1 $-1 $31 $32 $33 $34 reversed $14 $-1 #
model_id-kcp-attrib $-1 -1 $-1 $-1 $16 1 1021554179 1021554179 -1070071806 7 #
face $35 -1 $-1 $36 $37 $11 $-1 $38 reversed single #
loop $-1 -1 $-1 $-1 $39 $16 #
plane-surface $-1 -1 $-1 0 0 0.88900000000000001 0 0 1 1 0 0 forward_v I I I I #
model_id-kcp-attrib $-1 -1 $-1 $-1 $18 1 1021554179 1021554179 -1070727167 4 #
face $40 -1 $-1 $41 $42 $6 $-1 $43 forward single #
loop $-1 -1 $-1 $-1 $44 $18 #
plane-surface $-1 -1 $-1 -1.2699999999999998 0.6349999999999999 0 -1 0 0 0 -25.399999999999999 0 forward_v I I I I #
coedge $-1 -1 $-1 $45 $33 $46 $47 forward $19 $-1 #
coedge $-1 -1 $-1 $48 $21 $49 $50 reversed $14 $-1 #
coedge $-1 -1 $-1 $21 $48 $51 $52 reversed $14 $-1 #
coedge $-1 -1 $-1 $30 $53 $21 $34 forward $19 $-1 #
edge $54 -1 $-1 $55 0 $56 0.32000000000000001 $21 $57 forward @7 unknown #
model_id-kcp-attrib $-1 -1 $-1 $-1 $23 1 1021554179 1021554179 -1070071806 2 #
face $58 -1 $-1 $59 $60 $11 $-1 $61 reversed single #
loop $-1 -1 $-1 $-1 $62 $23 #
plane-surface $-1 -1 $-1 0 0 -0.88900000000000001 0 0 1 1 0 0 forward_v I I I I #
coedge $-1 -1 $-1 $63 $64 $65 $66 forward $24 $-1 #
model_id-kcp-attrib $-1 -1 $-1 $-1 $27 1 1021554179 1021554179 -1070727167 5 #
face $67 -1 $-1 $68 $69 $6 $-1 $70 forward single #
loop $-1 -1 $-1 $-1 $71 $27 #
plane-surface $-1 -1 $-1 -1.2699999999999998 -9.5249999999999986 0 0 -1 0 25.399999999999999 0 0 forward_v I I I I #
coedge $-1 -1 $-1 $72 $51 $73 $74 forward $28 $-1 #
coedge $-1 -1 $-1 $53 $30 $75 $76 reversed $19 $-1 #
coedge $-1 -1 $-1 $51 $72 $30 $47 reversed $28 $-1 #
edge $77 -1 $-1 $56 0 $78 0.070000000000000007 $46 $79 forward @7 unknown #
coedge $-1 -1 $-1 $32 $31 $80 $81 reversed $14 $-1 #
coedge $-1 -1 $-1 $82 $83 $31 $50 forward $69 $-1 #
edge $84 -1 $-1 $85 0 $55 0.39999999999999997 $31 $86 forward @7 unknown #
coedge $-1 -1 $-1 $44 $46 $32 $52 forward $28 $-1 #
edge $87 -1 $-1 $56 0 $88 0.39999999999999997 $32 $89 forward @7 unknown #
coedge $-1 -1 $-1 $33 $45 $82 $90 reversed $19 $-1 #
attrib_edge_convexity-kcp-attrib $-1 -1 $91 $-1 $34 1 #
vertex $-1 -1 $-1 $50 $92 #
vertex $-1 -1 $-1 $52 $93 #
straight-curve $-1 -1 $-1 6.8579999999999997 0.6349999999999999 0 -25.399999999999999 0 0 I I #
model_id-kcp-attrib $-1 -1 $-1 $-1 $36 1 1021554179 1021554179 -1070071806 5 #
face $94 -1 $-1 $95 $96 $11 $-1 $97 reversed single #
loop $-1 -1 $-1 $-1 $98 $36 #
plane-surface $-1 -1 $-1 0 -5.0799999999999992 0 0 1 0 0 0 1 forward_v I I I I #
coedge $-1 -1 $-1 $99 $100 $101 $102 forward $37 $-1 #
coedge $-1 -1 $-1 $103 $39 $104 $105 forward $24 $-1 #
coedge $-1 -1 $-1 $39 $103 $106 $107 forward $24 $-1 #
coedge $-1 -1 $-1 $108 $109 $39 $66 reversed $110 $-1 #
edge $-1 -1 $-1 $111 -5.0799999999999992 $112 5.0799999999999992 $65 $113 forward @7 unknown #
model_id-kcp-attrib $-1 -1 $-1 $-1 $41 1 1021554179 1021554179 -1070727167 6 #
face $114 -1 $-1 $-1 $115 $6 $-1 $116 forward single #
loop $-1 -1 $-1 $-1 $82 $41 #
plane-surface $-1 -1 $-1 6.8579999999999997 -9.5249999999999986 0 1 0 0 0 25.399999999999999 0 forward_v I I I I #
coedge $-1 -1 $-1 $117 $80 $83 $118 forward $42 $-1 #
coedge $-1 -1 $-1 $46 $44 $119 $120 reversed $28 $-1 #
coedge $-1 -1 $-1 $80 $117 $44 $74 reversed $42 $-1 #
edge $121 -1 $-1 $88 0 $122 0.070000000000000007 $44 $123 forward @7 unknown #
coedge $-1 -1 $-1 $119 $124 $45 $76 forward $115 $-1 #
edge $125 -1 $-1 $126 0 $78 0.32000000000000001 $75 $127 forward @7 unknown #
attrib_edge_convexity-kcp-attrib $-1 -1 $128 $-1 $47 1 #
vertex $-1 -1 $-1 $120 $129 #
straight-curve $-1 -1 $-1 -1.2699999999999996 0.6349999999999999 0 0 0 25.399999999999999 I I #
coedge $-1 -1 $-1 $71 $73 $48 $81 forward $42 $-1 #
edge $130 -1 $-1 $88 0 $85 0.32000000000000001 $48 $131 forward @7 unknown #
coedge $-1 -1 $-1 $132 $49 $53 $90 forward $69 $-1 #
coedge $-1 -1 $-1 $49 $132 $71 $118 reversed $69 $-1 #
attrib_edge_convexity-kcp-attrib $-1 -1 $133 $-1 $50 1 #
vertex $-1 -1 $-1 $81 $134 #
straight-curve $-1 -1 $-1 6.8579999999999997 -9.5249999999999986 0 0 25.399999999999999 0 I I #
attrib_edge_convexity-kcp-attrib $-1 -1 $135 $-1 $52 1 #
vertex $-1 -1 $-1 $52 $136 #
straight-curve $-1 -1 $-1 -1.2699999999999998 0.6349999999999999 0 0 -25.399999999999999 0 I I #
edge $137 -1 $-1 $55 0 $126 0.070000000000000007 $82 $138 forward @7 unknown #
convexity-sys-attrib $-1 -1 $-1 $54 $34 #
point $-1 -1 $-1 6.8579999999999997 0.6349999999999999 0 #
point $-1 -1 $-1 -1.2699999999999998 0.6349999999999999 0 #
model_id-kcp-attrib $-1 -1 $-1 $-1 $59 1 1021554179 1021554179 -1070071806 4 #
face $139 -1 $-1 $140 $141 $11 $-1 $142 reversed single #
loop $-1 -1 $-1 $-1 $143 $59 #
plane-surface $-1 -1 $-1 -4.0640000000000001 0 0 1 0 0 0 0 -1 forward_v I I I I #
coedge $-1 -1 $-1 $144 $106 $145 $146 forward $60 $-1 #
coedge $-1 -1 $-1 $147 $62 $144 $148 forward $37 $-1 #
coedge $-1 -1 $-1 $62 $147 $149 $150 forward $37 $-1 #
coedge $-1 -1 $-1 $109 $108 $62 $102 reversed $110 $-1 #
edge $-1 -1 $-1 $151 -5.0799999999999992 $152 5.0799999999999992 $101 $153 forward @7 unknown #
coedge $-1 -1 $-1 $64 $63 $154 $155 forward $24 $-1 #
coedge $-1 -1 $-1 $156 $157 $63 $105 reversed $141 $-1 #
edge $-1 -1 $-1 $112 -4.0640000000000001 $158 4.0640000000000001 $104 $159 forward @7 unknown #
coedge $-1 -1 $-1 $98 $160 $64 $107 reversed $60 $-1 #
edge $-1 -1 $-1 $161 -4.0640000000000001 $111 4.0640000000000001 $106 $162 forward @7 unknown #
coedge $-1 -1 $-1 $101 $65 $160 $163 forward $110 $-1 #
coedge $-1 -1 $-1 $65 $101 $156 $164 reversed $110 $-1 #
loop $-1 -1 $-1 $-1 $108 $140 #
vertex $-1 -1 $-1 $66 $165 #
vertex $-1 -1 $-1 $66 $166 #
straight-curve $-1 -1 $-1 4.0640000000000001 0 0.88900000000000001 0 1 0 I I #
model_id-kcp-attrib $-1 -1 $-1 $-1 $68 1 1021554179 1021554179 -1070727167 7 #
loop $-1 -1 $-1 $-1 $167 $68 #
plane-surface $-1 -1 $-1 0 0 1.778 0 0 1 25.399999999999999 0 0 forward_v I I I I #
coedge $-1 -1 $-1 $73 $71 $167 $168 reversed $42 $-1 #
edge $-1 -1 $-1 $85 0 $169 0.070000000000000007 $71 $170 forward @7 unknown #
coedge $-1 -1 $-1 $167 $75 $72 $120 forward $115 $-1 #
edge $171 -1 $-1 $78 0 $122 0.39999999999999997 $119 $172 forward @7 unknown #
attrib_edge_convexity-kcp-attrib $-1 -1 $173 $-1 $74 1 #
vertex $-1 -1 $-1 $120 $174 #
straight-curve $-1 -1 $-1 -1.2699999999999998 -9.5249999999999986 0 0 0 25.399999999999999 I I #
coedge $-1 -1 $-1 $75 $167 $132 $175 forward $115 $-1 #
attrib_edge_convexity-kcp-attrib $-1 -1 $176 $-1 $76 1 #
vertex $-1 -1 $-1 $76 $177 #
straight-curve $-1 -1 $-1 6.8579999999999997 0.6349999999999999 1.778 -25.399999999999999 0 0 I I #
convexity-sys-attrib $-1 -1 $-1 $77 $47 #
point $-1 -1 $-1 -1.2699999999999998 0.6349999999999999 1.778 #
attrib_edge_convexity-kcp-attrib $-1 -1 $178 $-1 $81 1 #
straight-curve $-1 -1 $-1 -1.2699999999999998 -9.5249999999999986 0 25.399999999999999 0 0 I I #
coedge $-1 -1 $-1 $83 $82 $124 $175 reversed $69 $-1 #
convexity-sys-attrib $-1 -1 $-1 $84 $50 #
point $-1 -1 $-1 6.8579999999999997 -9.5249999999999986 0 #
convexity-sys-attrib $-1 -1 $-1 $87 $52 #
point $-1 -1 $-1 -1.2699999999999998 -9.5249999999999986 0 #
attrib_edge_convexity-kcp-attrib $-1 -1 $179 $-1 $90 1 #
straight-curve $-1 -1 $-1 6.8579999999999997 0.63500000000000056 0 0 0 25.399999999999999 I I #
model_id-kcp-attrib $-1 -1 $-1 $-1 $95 1 1021554179 1021554179 -1070071806 3 #
face $180 -1 $-1 $-1 $110 $11 $-1 $181 reversed single #
loop $-1 -1 $-1 $-1 $156 $95 #
plane-surface $-1 -1 $-1 0 5.0799999999999992 0 0 -1 0 0 0 -1 forward_v I I I I #
coedge $-1 -1 $-1 $182 $154 $157 $183 forward $96 $-1 #
coedge $-1 -1 $-1 $160 $98 $99 $148 reversed $60 $-1 #
coedge $-1 -1 $-1 $154 $182 $98 $146 reversed $96 $-1 #
edge $-1 -1 $-1 $161 -0.88900000000000001 $184 0.88900000000000001 $145 $185 forward @7 unknown #
coedge $-1 -1 $-1 $100 $99 $182 $186 forward $37 $-1 #
edge $-1 -1 $-1 $152 -4.0640000000000001 $184 4.0640000000000001 $144 $187 forward @7 unknown #
coedge $-1 -1 $-1 $157 $156 $100 $150 reversed $141 $-1 #
edge $-1 -1 $-1 $188 -4.0640000000000001 $151 4.0640000000000001 $149 $189 forward @7 unknown #
vertex $-1 -1 $-1 $102 $190 #
vertex $-1 -1 $-1 $163 $191 #
straight-curve $-1 -1 $-1 4.0640000000000001 0 -0.88900000000000001 0 -1 0 I I #
coedge $-1 -1 $-1 $143 $145 $103 $155 reversed $96 $-1 #
edge $-1 -1 $-1 $158 -5.0799999999999992 $161 5.0799999999999992 $154 $192 forward @7 unknown #
coedge $-1 -1 $-1 $149 $104 $109 $164 forward $141 $-1 #
coedge $-1 -1 $-1 $104 $149 $143 $183 reversed $141 $-1 #
vertex $-1 -1 $-1 $105 $193 #
straight-curve $-1 -1 $-1 0 5.0799999999999992 0.88900000000000001 -1 0 0 I I #
coedge $-1 -1 $-1 $106 $144 $108 $163 reversed $60 $-1 #
vertex $-1 -1 $-1 $155 $194 #
straight-curve $-1 -1 $-1 0 -5.0799999999999992 0.88900000000000001 1 0 0 I I #
edge $-1 -1 $-1 $111 -0.88900000000000001 $152 0.88900000000000001 $108 $195 forward @7 unknown #
edge $-1 -1 $-1 $112 -0.88900000000000001 $151 0.88900000000000001 $109 $196 forward @7 unknown #
point $-1 -1 $-1 4.0640000000000001 -5.0799999999999992 0.88900000000000001 #
point $-1 -1 $-1 4.0640000000000001 5.0799999999999992 0.88900000000000001 #
coedge $-1 -1 $-1 $124 $119 $117 $168 forward $115 $-1 #
edge $-1 -1 $-1 $122 0 $169 0.32000000000000001 $167 $197 forward @7 unknown #
vertex $-1 -1 $-1 $175 $198 #
straight-curve $-1 -1 $-1 6.8579999999999997 -9.5249999999999986 0 0 0 25.399999999999999 I I #
attrib_edge_convexity-kcp-attrib $-1 -1 $199 $-1 $120 1 #
straight-curve $-1 -1 $-1 -1.2699999999999998 0.6349999999999999 1.778 0 -25.399999999999999 0 I I #
convexity-sys-attrib $-1 -1 $-1 $121 $74 #
point $-1 -1 $-1 -1.2699999999999998 -9.5249999999999986 1.778 #
edge $-1 -1 $-1 $169 0 $126 0.39999999999999997 $124 $200 forward @7 unknown #
convexity-sys-attrib $-1 -1 $-1 $125 $76 #
point $-1 -1 $-1 6.8579999999999997 0.6349999999999999 1.778 #
convexity-sys-attrib $-1 -1 $-1 $130 $81 #
convexity-sys-attrib $-1 -1 $-1 $137 $90 #
model_id-kcp-attrib $-1 -1 $-1 $-1 $140 1 1021554179 1021554179 -1070071806 6 #
plane-surface $-1 -1 $-1 4.0640000000000001 0 0 -1 0 0 0 0 1 forward_v I I I I #
coedge $-1 -1 $-1 $145 $143 $147 $186 reversed $96 $-1 #
edge $-1 -1 $-1 $158 -0.88900000000000001 $188 0.88900000000000001 $157 $201 forward @7 unknown #
vertex $-1 -1 $-1 $186 $202 #
straight-curve $-1 -1 $-1 -4.0640000000000001 -5.0799999999999992 0 0 0 -1 I I #
edge $-1 -1 $-1 $184 -5.0799999999999992 $188 5.0799999999999992 $182 $203 forward @7 unknown #
straight-curve $-1 -1 $-1 0 -5.0799999999999992 -0.88900000000000001 -1 0 0 I I #
vertex $-1 -1 $-1 $150 $204 #
straight-curve $-1 -1 $-1 0 5.0799999999999992 -0.88900000000000001 1 0 0 I I #
point $-1 -1 $-1 4.0640000000000001 5.0799999999999992 -0.88900000000000001 #
point $-1 -1 $-1 4.0640000000000001 -5.0799999999999992 -0.88900000000000001 #
straight-curve $-1 -1 $-1 -4.0640000000000001 0 0.88900000000000001 0 -1 0 I I #
point $-1 -1 $-1 -4.0640000000000001 5.0799999999999992 0.88900000000000001 #
point $-1 -1 $-1 -4.0640000000000001 -5.0799999999999992 0.88900000000000001 #
straight-curve $-1 -1 $-1 4.0640000000000001 -5.0799999999999992 0 0 0 -1 I I #
straight-curve $-1 -1 $-1 4.0640000000000001 5.0799999999999992 0 0 0 -1 I I #
straight-curve $-1 -1 $-1 -1.2699999999999998 -9.5249999999999986 1.778 25.399999999999999 0 0 I I #
point $-1 -1 $-1 6.8579999999999997 -9.5249999999999986 1.778 #
convexity-sys-attrib $-1 -1 $-1 $171 $120 #
straight-curve $-1 -1 $-1 6.8579999999999997 -9.5249999999999986 1.778 0 25.399999999999999 0 I I #
straight-curve $-1 -1 $-1 -4.0640000000000001 5.0799999999999992 0 0 0 -1 I I #
point $-1 -1 $-1 -4.0640000000000001 -5.0799999999999992 -0.88900000000000001 #
straight-curve $-1 -1 $-1 -4.0640000000000001 0 -0.88900000000000001 0 1 0 I I #
point $-1 -1 $-1 -4.0640000000000001 5.0799999999999992 -0.88900000000000001 #
End-of-ACIS-data 