600 0 1 0           
109 GICL Pro/E ACIS Translator - Source: f:/data5/repository/PTC/V18/bboxrev2/boombox/speaker_brkt_form.prt - 6 0 13 ACIS 6.0.3 NT 24 Thu Apr 04 10:03:36 2002 
1 9.9999999999999995e-007 1e-010 
body $-1 $1 $-1 $-1 #
lump $-1 $-1 $2 $0 #
shell $-1 $-1 $-1 $3 $-1 $1 #
face $-1 $4 $5 $2 $-1 $6 reversed single #
face $-1 $7 $8 $2 $-1 $9 forward single #
loop $-1 $-1 $10 $3 #
plane-surface $-1 0 0 0 0 1 0 1 0 0 forward_v I I I I #
face $-1 $11 $12 $2 $-1 $13 forward single #
loop $-1 $-1 $14 $4 #
plane-surface $-1 10 0 -15 0 0 -1 -1 0 0 forward_v I I I I #
coedge $-1 $15 $16 $17 $18 reversed $5 $-1 #
face $-1 $19 $20 $2 $-1 $21 forward single #
loop $-1 $-1 $22 $7 #
plane-surface $-1 -10 0 -15 -1 0 0 0 0 1 forward_v I I I I #
coedge $-1 $23 $17 $24 $25 forward $8 $-1 #
coedge $-1 $26 $10 $27 $28 reversed $5 $-1 #
coedge $-1 $10 $26 $29 $30 reversed $5 $-1 #
coedge $-1 $14 $31 $10 $18 forward $8 $-1 #
edge $-1 $32 0 $33 20 $10 $34 forward 7 unknown #
face $-1 $35 $36 $2 $-1 $37 forward single #
loop $-1 $-1 $38 $11 #
plane-surface $-1 -10 0 15 0 0 1 1 0 0 forward_v I I I I #
coedge $-1 $39 $29 $40 $41 forward $12 $-1 #
coedge $-1 $31 $14 $42 $43 reversed $8 $-1 #
coedge $-1 $29 $39 $14 $25 reversed $12 $-1 #
edge $-1 $33 0 $44 5 $24 $45 forward 7 unknown #
coedge $-1 $16 $15 $46 $47 reversed $5 $-1 #
coedge $-1 $48 $49 $15 $28 forward $36 $-1 #
edge $-1 $50 0 $32 30 $15 $51 forward 7 unknown #
coedge $-1 $22 $24 $16 $30 forward $12 $-1 #
edge $-1 $33 0 $52 30 $16 $53 forward 7 unknown #
coedge $-1 $17 $23 $48 $54 reversed $8 $-1 #
vertex $-1 $28 $55 #
vertex $-1 $30 $56 #
straight-curve $-1 10 0 -15 -1 0 0 I I #
face $-1 $57 $58 $2 $-1 $59 forward single #
loop $-1 $-1 $48 $19 #
plane-surface $-1 10 0 15 1 0 0 0 0 -1 forward_v I I I I #
coedge $-1 $60 $46 $49 $61 forward $20 $-1 #
coedge $-1 $24 $22 $62 $63 reversed $12 $-1 #
coedge $-1 $46 $60 $22 $41 reversed $20 $-1 #
edge $-1 $52 0 $64 5 $22 $65 forward 7 unknown #
coedge $-1 $62 $66 $23 $43 forward $58 $-1 #
edge $-1 $67 0 $44 20 $42 $68 forward 7 unknown #
vertex $-1 $63 $69 #
straight-curve $-1 -10 0 -15 0 1 0 I I #
coedge $-1 $38 $40 $26 $47 forward $20 $-1 #
edge $-1 $52 0 $50 20 $26 $70 forward 7 unknown #
coedge $-1 $71 $27 $31 $54 forward $36 $-1 #
coedge $-1 $27 $71 $38 $61 reversed $36 $-1 #
vertex $-1 $47 $72 #
straight-curve $-1 10 0 15 0 0 -1 I I #
vertex $-1 $30 $73 #
straight-curve $-1 -10 0 -15 0 0 1 I I #
edge $-1 $32 0 $67 5 $48 $74 forward 7 unknown #
point $-1 10 0 -15 #
point $-1 -10 0 -15 #
face $-1 $75 $76 $2 $-1 $77 reversed single #
loop $-1 $78 $79 $35 #
plane-surface $-1 0 5 0 0 1 0 1 0 0 forward_v I I I I #
coedge $-1 $40 $38 $79 $80 reversed $20 $-1 #
edge $-1 $50 0 $81 5 $38 $82 forward 7 unknown #
coedge $-1 $79 $42 $39 $63 forward $58 $-1 #
edge $-1 $44 0 $64 30 $62 $83 forward 7 unknown #
vertex $-1 $63 $84 #
straight-curve $-1 -10 0 15 0 1 0 I I #
coedge $-1 $42 $79 $71 $85 forward $58 $-1 #
vertex $-1 $43 $86 #
straight-curve $-1 10 5 -15 -1 0 0 I I #
point $-1 -10 5 -15 #
straight-curve $-1 -10 0 15 1 0 0 I I #
coedge $-1 $49 $48 $66 $85 reversed $36 $-1 #
point $-1 10 0 15 #
point $-1 -10 0 15 #
straight-curve $-1 10 0 -15 0 1 0 I I #
face $-1 $87 $88 $2 $-1 $89 reversed single #
loop $-1 $-1 $90 $57 #
plane-surface $-1 0 5 0 0 0 -1 1 0 0 forward_v I I I I #
loop $-1 $-1 $91 $35 #
coedge $-1 $66 $62 $60 $80 forward $58 $-1 #
edge $-1 $64 0 $81 20 $79 $92 forward 7 unknown #
vertex $-1 $85 $93 #
straight-curve $-1 10 0 15 0 1 0 I I #
straight-curve $-1 -10 5 -15 0 0 1 I I #
point $-1 -10 5 15 #
edge $-1 $81 0 $67 30 $66 $94 forward 7 unknown #
point $-1 10 5 -15 #
face $-1 $-1 $95 $2 $-1 $96 reversed single #
loop $-1 $-1 $97 $75 #
spline-surface $-1 forward { exactsur full nurbs 3 3 both open open none none 3 44 
	-0.93334370160490732 3 -0.61549695958025885 1 -0.29765021755561033 3 
	0.0013964436616380933 3 0.058251553836519004 1 0.10925754887984343 1 0.15411213606048085 1 0.19405051036757431 1 
	0.23005349189968705 1 0.26245086729605144 1 0.29140244182508279 1 0.3170985918712696 1 0.33990149632606603 1 
	0.36027209079219807 1 0.37869667336602908 1 0.39566774794058679 1 0.4112656702403385 1 0.42533345277911633 1 
	0.43806818877413423 1 0.44967758953263531 1 0.46036401082788708 1 0.47025357592840139 1 0.47944954559598318 1 
	0.48817295141889733 1 0.49668399055420381 1 0.5051342030211875 1 0.51365563674379677 1 0.52242649226130566 1 
	0.53171920930563887 1 0.54173328072048088 1 0.55255698371952544 1 0.56432949611196326 1 0.57723881089295914 1 
	0.59147449203027302 1 0.60719745840274819 1 0.6242059941354674 1 0.64273468961370939 1 0.66325448995495595 1 
	0.68622810588551797 1 0.71208928959221673 1 0.74113807261503672 1 0.77347669329642355 1 0.80918092021339527 1 
	0.84857749677355787 1 0.89272195692503264 1 0.94287650327193318 1 0.99860351299960892 3 
	-3.7715375104520259 6.3333983909853213 0.028968794876457642 1.1010265514156834 
	-3.9081640229218952 5.9468522811709343 0.026859828893788087 1.0336755171385612 
	-4.4218571293667637 5.2532115347256338 0.018930465350508088 0.96632448286143835 
	-5.246939303334373 5.0000000000000009 0.0061945021296912969 1.033675517138561 
	-5.6568588433481439 5 -0.00013301329826231829 1.1010265514156834 
	-3.7629977511535952 6.3333983909853231 -0.38901150549488017 1.1010265514156834 
	-3.8994513889005824 5.9468522811709361 -0.39652514433103064 1.0336755171385612 
	-4.412494514958647 5.2532115347256338 -0.42477518456606994 0.96632448286143835 
	-5.2365327052249961 5.0000000000000018 -0.47014975611348897 1.033675517138561 
	-5.6459335704544795 5.0000000000000009 -0.49269287252527316 1.1010265514156834 
	-3.7071709430580033 6.3333983909853231 -1.1856780123627912 1.1010265514156832 
	-3.8430193256377096 5.946852281170937 -1.2024860840408997 1.033675517138561 
	-4.3537867922981075 5.2532115347256356 -1.2656816556586674 0.96632448286143802 
	-5.1741698702425589 5.0000000000000027 -1.3671849442201407 1.0336755171385608 
	-5.5817547927587441 5.0000000000000018 -1.4176140804562583 1.1010265514156832 
	-3.513947432433099 6.3333983909853213 -2.3249245739862241 1.1010265514156836 
	-3.6478834793895047 5.9468522811709352 -2.3524712030016235 1.0336755171385612 
	-4.1514608801604966 5.2532115347256338 -2.4560419754322398 0.96632448286143868 
	-4.9602954379465682 4.9999999999999991 -2.6223949924465488 1.0336755171385612 
	-5.3621427936839181 5.0000000000000009 -2.7050429448153333 1.1010265514156836 
	-3.2715928794442783 6.3333983909853222 -3.3435167731615012 1.1010265514156834 
	-3.4037844837277027 5.9468522811709352 -3.3783057298053869 1.033675517138561 
	-3.9008030683545947 5.2532115347256347 -3.5091064571701684 0.96632448286143857 
	-4.6991030049535549 5.0000000000000009 -3.7191956079426531 1.033675517138561 
	-5.0957165219200666 5 -3.8235726636635539 1.1010265514156834 
	-3.0131675467160761 6.3333983909853213 -4.2500385997139105 1.1010265514156832 
	-3.1438734484087303 5.9468522811709343 -4.2900454328769468 1.033675517138561 
	-3.6353060368383314 5.2532115347256321 -4.440464513588493 0.96632448286143868 
	-4.4246338735036721 5.0000000000000009 -4.6820642169183921 1.0336755171385608 
	-4.8167898477019753 5.0000000000000009 -4.8020964299284179 1.1010265514156832 
	-2.7506198516889335 6.3333983909853213 -5.0361730311728428 1.1010265514156834 
	-2.8792600426403916 5.9468522811709335 -5.0824393493337157 1.0336755171385614 
	-3.3629259000858145 5.2532115347256374 -5.2563930591238854 0.96632448286143813 
	-4.139778990244622 5.0000000000000009 -5.5357935479424016 1.033675517138561 
	-4.5257372274040133 5 -5.6746060486480649 1.1010265514156834 
	-2.483563852680394 6.3333983909853213 -5.7208573520305253 1.1010265514156832 
	-2.6097002363263719 5.9468522811709335 -5.7735774740441093 1.0336755171385612 
	-3.0839521921106816 5.2532115347256312 -5.971796419691894 0.96632448286143846 
	-3.8456848877175331 5.0000000000000009 -6.290171177976088 1.0336755171385608 
	-4.2241309698757332 5.0000000000000009 -6.4483469798362512 1.1010265514156832 
	-2.2174756928802895 6.3333983909853222 -6.310515665669846 1.1010265514156834 
	-2.3406613033412453 5.9468522811709352 -6.3698127546742525 1.0336755171385612 
	-2.8038188396280042 5.2532115347256338 -6.5927600092236158 0.96632448286143835 
	-3.547731931188971 5.0000000000000009 -6.9508528143553976 1.033675517138561 
	-3.917324829841109 5.0000000000000009 -7.1287614428450743 1.1010265514156834 
	-1.9573242565535718 6.3333983909853204 -6.8137273964084706 1.1010265514156834 
	-2.0771664301639148 5.9468522811709335 -6.8795210849229793 1.0336755171385612 
	-2.5277531964665316 5.253211534725633 -7.1268944799288532 0.96632448286143879 
	-3.2514754034373907 5.0000000000000018 -7.5242199958302507 1.033675517138561 
	-3.6110370126194766 4.9999999999999991 -7.7216203249766524 1.1010265514156834 
	-1.7067689009031655 6.3333983909853222 -7.2406948797955257 1.1010265514156834 
	-1.8229143466582496 5.9468522811709361 -7.3128142670063347 1.0336755171385612 
	-2.2596020271881296 5.2532115347256347 -7.5839712436538331 0.96632448286143824 
	-2.9609998389867447 5.0000000000000009 -8.0194974069834384 1.0336755171385612 
	-3.3094701822454806 5.0000000000000018 -8.2358766843074509 1.1010265514156834 
	-1.4672317271822235 6.3333983909853204 -7.6029441136038045 1.1010265514156834 
	-1.579333801048056 5.9468522811709317 -7.6812022779836342 1.0336755171385614 
	-2.0008190715276895 5.253211534725633 -7.9754400422229512 0.96632448286143835 
	-2.6777991183681356 4.9999999999999991 -8.4480380411762326 1.033675517138561 
	-3.0141381621083188 5 -8.6828354473676335 1.1010265514156834 
	-1.2382724691072666 6.3333983909853204 -7.9115845502570004 1.1010265514156836 
	-1.3459344360243162 5.9468522811709335 -7.9958524413132546 1.0336755171385612 
	-1.7507256381987899 5.2532115347256338 -8.3126857846205713 0.96632448286143835 
	-2.4008920525478197 5.0000000000000018 -8.8215762883117534 1.033675517138561 
	-2.723909475431594 4.9999999999999982 -9.0744046341083227 1.1010265514156836 
	-1.0198867113901575 6.3333983909853222 -8.1741515385991264 1.1010265514156834 
	-1.1226205012825781 5.9468522811709379 -8.2643721755302 1.0336755171385612 
	-1.5088825723306873 5.2532115347256356 -8.6035868595087504 0.96632448286143835 
	-2.1292879180578796 5.0000000000000018 -9.1484257631018551 1.033675517138561 
	-2.437519366956642 5.0000000000000027 -9.419114089415471 1.1010265514156834 
	-0.81443184940092372 6.3333983909853213 -8.3937866937919079 1.1010265514156834 
	-0.91164819342771264 5.9468522811709335 -8.4899389329796282 1.033675517138561 
	-1.27716557989652 5.2532115347256321 -8.8514554611195226 0.96632448286143846 
	-1.8642512854801667 5.0000000000000018 -9.4321150791299946 1.0336755171385608 
	-2.1559287813400614 5 -9.7205999489155381 1.1010265514156834 
	-0.62577049277806929 6.3333983909853222 -8.5721285324989633 1.1010265514156834 
	-0.7167722496523975 5.9468522811709335 -8.6741963714806634 1.0336755171385614 
	-1.0589238155208724 5.2532115347256365 -9.0579545771670773 0.96632448286143824 
	-1.6084798719509965 5.0000000000000009 -9.674338271347775 1.0336755171385612 
	-1.8815117867969282 5 -9.9805716725319655 1.1010265514156834 
	-0.45736158483737038 6.3333983909853231 -8.711650071430288 1.1010265514156834 
	-0.54129991339481698 5.946852281170937 -8.8196226730685741 1.0336755171385612 
	-0.85689415617382336 5.2532115347256312 -9.2255818104558802 0.96632448286143846 
	-1.3637944448030814 5.0000000000000018 -9.8776241357571308 1.0336755171385608 
	-1.6156340066112744 5.0000000000000027 -10.201573553754722 1.1010265514156834 
	-0.31129141645000613 6.3333983909853213 -8.8160486221996717 1.1010265514156836 
	-0.38704071791412803 5.9468522811709352 -8.9299470791223321 1.0336755171385612 
	-0.67184557223341712 5.2532115347256338 -9.3581864530050716 0.96632448286143868 
	-1.1292926460019785 5.0000000000000009 -10.046014786982578 1.0336755171385612 
	-1.3565627288812829 4.9999999999999991 -10.387743505852667 1.1010265514156836 
	-0.19041104393841637 6.3333983909853231 -8.8886173457665869 1.1010265514156832 
	-0.25649325616120999 5.9468522811709335 -9.0084274157841442 1.0336755171385612 
	-0.50495145262554697 5.2532115347256338 -9.4588934778837039 0.96632448286143835 
	-0.9040193519353219 5.0000000000000009 -10.182421812511295 1.033675517138561 
	-1.1022853366828578 5.0000000000000027 -10.54188710151549 1.1010265514156832 
	-0.098281185549497552 6.333398390985324 -8.9330221839763322 1.1010265514156834 
	-0.15284312385735019 5.9468522811709335 -9.0585546505649255 1.0336755171385614 
	-0.35798699437219844 5.2532115347256365 -9.5305359780236145 0.96632448286143824 
	-0.68748440934030441 5.0000000000000009 -10.288621642101969 1.0336755171385612 
	-0.85118619934498829 5 -10.665255796268335 1.1010265514156834 
	-0.037471846081129738 6.3333983909853204 -8.9547190022322933 1.1010265514156836 
	-0.078357686811591165 5.9468522811709352 -9.0854131426714417 1.0336755171385612 
	-0.23208169070192472 5.2532115347256356 -9.5768015107316558 0.96632448286143868 
	-0.47898968640899564 5 -10.366058321646314 1.0336755171385612 
	-0.6016591794841647 5.0000000000000009 -10.758179008640543 1.1010265514156836 
	-0.0070182125405599868 6.3333983909853222 -8.9614023587402141 1.1010265514156832 
	-0.031985686130290451 5.9468522811709335 -9.0961166734162244 1.033675517138561 
	-0.12585926042076609 5.2532115347256321 -9.6026202321875918 0.96632448286143846 
	-0.27663685852740527 5.0000000000000018 -10.416154718343417 1.0336755171385608 
	-0.35154658947340622 5 -10.820337105107027 1.1010265514156832 
	0.00029638697657218449 6.3333983909853222 -8.9617310071122773 1.1010265514156836 
	-0.0069287207199676907 5.9468522811709343 -9.0985961478285873 1.0336755171385614 
	-0.034093931555989082 5.2532115347256321 -9.6131864570416994 0.96632448286143879 
	-0.077726074817538682 5.0000000000000009 -10.439709697671926 1.033675517138561 
	-0.099403513332034579 5 -10.850345192292526 1.1010265514156836 
	-1.3410263157288482e-005 6.3333983909853222 -8.9618063649201076 1.1010265514156832 
	0.011120592666340905 5.9468522811709343 -9.0984016528266771 1.0336755171385612 
	0.052982603550074357 5.2532115347256347 -9.6119773600740626 0.96632448286143791 
	0.12022041249332775 5.0000000000000009 -10.436870970123113 1.033675517138561 
	0.15362568118433997 5.0000000000000018 -10.846696827304807 1.1010265514156832 
	0.011208975907432342 6.3333983909853222 -8.9607944062239557 1.1010265514156832 
	0.039733426300373333 5.9468522811709335 -9.0947842667869185 1.0336755171385612 
	0.14698064550472717 5.2532115347256312 -9.5985639978247441 0.96632448286143846 
	0.31923868763713725 5.0000000000000009 -10.407723533879587 1.0336755171385608 
	0.40482039043291579 5.0000000000000009 -10.809732346192606 1.1010265514156832 
	0.047616960350492968 6.3333983909853231 -8.9516856889863536 1.1010265514156834 
	0.091549791568464725 5.946852281170937 -9.0813705241890492 1.0336755171385612 
	0.2567299761117468 5.2532115347256338 -9.5689640713694022 0.96632448286143835 
	0.52203862839744519 5.0000000000000036 -10.352125727371343 1.033675517138561 
	0.65384998505741487 5.0000000000000018 -10.741218203143752 1.1010265514156834 
	0.11477167782093797 6.3333983909853195 -8.9259241023659452 1.1010265514156836 
	0.17187124865821291 5.9468522811709335 -9.0503084905225677 1.0336755171385612 
	0.38655619808585245 5.2532115347256321 -9.5179732328214826 0.96632448286143879 
	0.73137827681252732 4.9999999999999991 -10.269125696078067 1.033675517138561 
	0.90269370739384602 4.9999999999999982 -10.642315278804933 1.1010265514156836 
	0.21271717572246593 6.3333983909853204 -8.8762997056057991 1.1010265514156834 
	0.28089316342219606 5.9468522811709335 -8.9949193932798952 1.0336755171385612 
	0.53722360963881211 5.2532115347256303 -9.4409098145040762 0.96632448286143835 
	0.94893573729842362 5.0000000000000018 -10.157249476640205 1.033675517138561 
	1.1534836615091164 5 -10.513143270084337 1.1010265514156834 
	0.3385080678905516 6.3333983909853222 -8.7978597126547324 1.1010265514156834 
	0.41599254304783367 5.9468522811709335 -8.9105764562891707 1.0336755171385614 
	0.70732136367898768 5.2532115347256374 -9.3343727835115047 0.96632448286143868 
	1.1752470836274402 5.0000000000000009 -10.015064797083646 1.0336755171385612 
	1.407723195624272 5 -10.353248030097593 1.1010265514156834 
	0.48855877331576114 6.3333983909853204 -8.6872510836078796 1.1010265514156834 
	0.57395156799928071 5.9468522811709343 -8.7940708870185436 1.0336755171385612 
	0.89501436303080995 5.2532115347256321 -9.1956956935944696 0.96632448286143802 
	1.4106981158030696 5.0000000000000018 -9.8407763154122847 1.0336755171385608 
	1.6669015018397191 5 -10.161267001201521 1.1010265514156834 
	0.66006521427798914 6.3333983909853231 -8.5413521681580615 1.1010265514156834 
	0.75230110107188397 5.9468522811709326 -8.6423012970194488 1.0336755171385614 
	1.0990927914716682 5.2532115347256321 -9.021853337544135 0.96632448286143868 
	1.6561017102971436 5 -9.6314811849903705 1.0336755171385612 
	1.9328363762402134 5.0000000000000009 -9.9343581282686966 1.1010265514156834 
	0.85075775331772108 6.3333983909853204 -8.3568028884025445 1.1010265514156836 
	0.94902551167050164 5.9468522811709361 -8.451876059132271 1.0336755171385612 
	1.3184960422364198 5.2532115347256365 -8.8093354682091718 0.96632448286143835 
	1.9119311978802869 5.0000000000000009 -9.3834786339360701 1.033675517138561 
	2.2067632445596601 4.9999999999999991 -9.6687259824093417 1.1010265514156836 
	1.0568640774875768 6.3333983909853222 -8.1317242287804241 1.1010265514156834 
	1.1604875320092169 5.9468522811709335 -8.2209173546202852 1.0336755171385612 
	1.5500945950271614 5.2532115347256321 -8.5562687667139823 0.96632448286143835 
	2.175872590711593 5.0000000000000009 -9.0949025709483724 1.033675517138561 
	2.4867732939811487 5 -9.3625080631454267 1.1010265514156834 
	1.2750218696191531 6.3333983909853204 -7.8642849556212804 1.1010265514156836 
	1.3834385515418752 5.9468522811709352 -7.9475760884075379 1.0336755171385612 
	1.791067357404946 5.2532115347256356 -8.2607369820497798 0.96632448286143835 
	2.4457914662039757 5.0000000000000009 -8.7637288806878022 1.033675517138561 
	2.7710732550762698 4.9999999999999991 -9.0136266656912767 1.1010265514156836 
	1.5033770060807177 6.3333983909853213 -7.5508332934460949 1.1010265514156834 
	1.6161233978933496 5.9468522811709343 -7.6281577293787981 1.0336755171385612 
	2.0400311973656824 5.2532115347256347 -7.9188848289754326 0.96632448286143824 
	2.7209022551282502 5.0000000000000009 -8.3858440782956869 1.0336755171385612 
	3.0591744413574014 5.0000000000000009 -8.6178400257612182 1.1010265514156834 
	1.7423575447390556 6.3333983909853213 -7.1830400464354831 1.1010265514156832 
	1.8590575142449952 5.9468522811709343 -7.2542563483422189 1.033675517138561 
	2.2978301124312264 5.2532115347256321 -7.5220178735004817 0.96632448286143835 
	3.0025766715088387 5 -7.9520903399414351 1.033675517138561 
	3.352710748378041 5.0000000000000009 -8.1657600969406783 1.1010265514156832 
	1.9920616076679256 6.3333983909853204 -6.7500862037678617 1.1010265514156834 
	2.1123765817734568 5.9468522811709343 -6.8150086881642542 1.0336755171385612 
	2.5647409997976256 5.2532115347256338 -7.059106499671068 0.96632448286143802 
	3.291318430497546 5.0000000000000018 -7.4511708479209693 1.0336755171385608 
	3.6522985795955107 5 -7.6459573096349081 1.1010265514156834 
	2.2506648016095996 6.3333983909853231 -6.2411400335584055 1.1010265514156834 
	2.3742419741183416 5.9468522811709352 -6.299613117658037 1.0336755171385612 
	2.838871718990795 5.2532115347256312 -6.5194622499498065 0.9663244828614389 
	3.585149438469061 5.0000000000000009 -6.8725789216364603 1.0336755171385608 
	3.9559171379092199 5 -7.0480152941530561 1.1010265514156834 
	2.5140839302156635 6.3333983909853213 -5.6472934742680279 1.1010265514156836 
	2.6405276821329915 5.9468522811709335 -5.6992667782146524 1.0336755171385614 
	3.1159352918184249 5.2532115347256338 -5.8946778113582639 0.96632448286143868 
	3.8795241724141953 5.0000000000000009 -6.2085425644969909 1.0336755171385612 
	4.2588924493801912 5 -6.3644776934968998 1.1010265514156836 
	2.7770743398406084 6.3333983909853222 -4.9618887966729401 1.1010265514156832 
	2.905937366741346 5.9468522811709343 -5.0075230292441759 1.033675517138561 
	3.3904410505276572 5.253211534725633 -5.1791002016829122 0.96632448286143824 
	4.1686398382831031 5.0000000000000009 -5.4546835503065809 1.0336755171385608 
	4.5552666485340181 5.0000000000000009 -5.591599609176253 1.1010265514156832 
	3.0343312415509063 6.3333983909853213 -4.1800245677851784 1.1010265514156836 
	3.1651783357114338 5.9468522811709335 -4.2195576322970325 1.0336755171385614 
	3.6571417844851841 5.2532115347256338 -4.3681954211804941 0.96632448286143868 
	4.4473222769508975 5 -4.6069340541250758 1.0336755171385612 
	4.8399018698922864 4.9999999999999991 -4.7255448224677705 1.1010265514156836 
	3.2870120607377746 6.333398390985324 -3.283757614170606 1.1010265514156832 
	3.4192930316858754 5.946852281170937 -3.318203686385174 1.0336755171385612 
	3.9166476202022116 5.2532115347256356 -3.4477152249646896 0.96632448286143802 
	4.7154872385996658 5.0000000000000027 -3.6557337100570968 1.0336755171385608 
	5.1123688817256969 5.0000000000000018 -3.759082012097601 1.1010265514156832 
	3.5223519016014744 6.3333983909853222 -2.2816940955771807 1.1010265514156834 
	3.6563676446397602 5.9468522811709352 -2.3088514731670662 1.033675517138561 
	4.1602446895071461 5.253211534725633 -2.4109587245698392 0.9663244828614389 
	4.9695605288198186 5.0000000000000009 -2.5749610674245185 1.0336755171385612 
	5.3716469961368709 5.0000000000000009 -2.6564411515486133 1.1010265514156834 
	3.7092597568215386 6.3333983909853222 -1.1625843822958735 1.1010265514156832 
	3.845131534996713 5.9468522811709335 -1.1791351643598218 1.0336755171385612 
	4.3559869652294587 5.2532115347256321 -1.2413633695509383 0.96632448286143813 
	5.1765113282614257 5 -1.3413128961788554 1.0336755171385608 
	5.5841664444139685 5 -1.3909700882411804 1.1010265514156832 
	3.7632616146567015 6.3333983909853231 -0.38068083267995684 1.1010265514156832 
	3.8997222809587244 5.9468522811709352 -0.38808582947366144 1.033675517138561 
	4.4127918332221014 5.253211534725633 -0.41592739358451636 0.96632448286143857 
	5.2368724686578592 5.0000000000000009 -0.46064588007973778 1.033675517138561 
	5.6462944216103255 5.0000000000000027 -0.4828630385550981 1.1010265514156832 
	3.7715442236825281 6.3333983909853213 0.028970507209818714 1.1010265514156834 
	3.9081709934156055 5.9468522811709343 0.026861633256191089 1.0336755171385612 
	4.4218650671276283 5.2532115347256338 0.018932615726898954 0.96632448286143835 
	5.246948794697718 5.0000000000000009 0.0061972082658728238 1.033675517138561 
	5.656869106576444 5.0000000000000027 -0.00013003104801004658 1.1010265514156834 
	0 
	0 
	0 
	0 
	0 
	0 
	42 0.058251553836519004 0.10925754887984343 0.15411213606048085 0.19405051036757431 0.23005349189968705 0.26245086729605144 0.29140244182508279 0.3170985918712696 0.33990149632606603 0.36027209079219807 0.37869667336602908 0.39566774794058679 0.4112656702403385 0.42533345277911633 0.43806818877413423 0.44967758953263531 0.46036401082788708 0.47025357592840139 0.47944954559598318 0.48817295141889733 0.49668399055420381 0.5051342030211875 0.51365563674379677 0.52242649226130566 0.53171920930563887 0.54173328072048088 0.55255698371952544 0.56432949611196326 0.57723881089295914 0.59147449203027302 0.60719745840274819 0.6242059941354674 0.64273468961370939 0.66325448995495595 0.68622810588551797 0.71208928959221673 0.74113807261503672 0.77347669329642355 0.80918092021339527 0.84857749677355787 0.89272195692503264 0.94287650327193318 
	F 1 F 0 F 1 F 0 } I I I I #
tcoedge-coedge $-1 $98 $99 $100 $101 forward $76 $102 0 0.99989627923973656 #
coedge $-1 $103 $103 $98 $104 forward $78 $-1 #
straight-curve $-1 -10 5 15 1 0 0 I I #
point $-1 10 5 15 #
straight-curve $-1 10 5 15 0 0 -1 I I #
loop $-1 $-1 $105 $87 #
spline-surface $-1 forward { rotsur 
	intcurve forward { exactcur full nurbs 3 open 4 
	0 3 0.33066818204154047 2 0.71098780932190919 2 1 3 
	-4 5 0 1 
	-3.9791958496588165 5 -1.2172976843498691 1 
	-3.7626426381342877 5 -2.4151315154587145 1 
	-3.1155797032382706 5 -4.9586902759962559 1 
	-2.6578258780659887 5 -6.2996148268707461 1 
	-1.4630110468935102 5 -8.4315447481271431 1 
	-0.81939070420637283 5 -9.2772858869259238 1 
	0 5 -10 1 
	0 
	null_surface 
	null_surface 
	nullbs 
	nullbs 
	I I 
	0 
	0 
	1 0.33066818204154047 
	F 1 F 0 } I I 
	0 5 0.5 0 0 -1 
	none F 0 F 0.93224841449532081 F 0.33985417134049867 F 2.8017384816970212 OPEN OPEN NON_SINGULAR NON_SINGULAR 
	0 
	0 
	1 0.33066818204154047 
	0 
	0 
	0 
	} I I I I #
tcoedge-coedge $-1 $106 $107 $108 $109 reversed $88 $110 -1 -9.9646876621802127e-005 #
coedge $-1 $108 $90 $91 $104 reversed $76 $-1 #
tcoedge-coedge $-1 $90 $108 $105 $111 reversed $76 $112 -2.461868131556086 -1.6890798170000596e-005 #
tcoedge-coedge $-1 $107 $106 $90 $101 reversed $88 $113 -0.99989627923973656 0 #
tedge-edge $-1 $114 0 $115 0.99989627923973656 $90 $116 forward 7 unknown 0.00031243077593929073 #
pcurve $-1 0 forward { exppc nurbs 3 open 7 
	0 3 0.16666327386071714 1 0.33332825021216694 1 0.49999519522207392 1 0.66666332701558395 1 
	0.83333137757862275 1 0.99989627923973656 3 
	-3.7709458820882618 -1.3333032988578539 1 
	-3.8171731481069564 -1.2025796206983896 1 
	-3.9341193695181738 -0.95673333900297397 1 
	-4.1834819445596105 -0.6267611088653835 1.0000000000000002 
	-4.4941006734874849 -0.35560350587585177 1 
	-4.8533206837090646 -0.15314259191820234 0.99999999999999978 
	-5.2475139986142345 -0.028058151786707342 1.0000000000000002 
	-5.5182565344270218 2.6740991021512173e-007 1 
	-5.6568588440686174 4.3824499584843579e-010 1 
	0 
	plane 0 5 0 0 0 1 1 0 0 reverse_v I I I I 
	} 0 0 #
tcoedge-coedge $-1 $91 $91 $106 $117 forward $78 $118 2.2330302098584152e-006 0.99999777735038164 #
edge $-1 $119 0.00024875952109937316 $115 11.313976709445686 $91 $120 forward 7 unknown #
tcoedge-coedge $-1 $121 $121 $99 $111 forward $95 $122 1.6890798170000596e-005 2.461868131556086 #
tcoedge-coedge $-1 $100 $97 $103 $117 reversed $88 $123 -0.99999777735038164 -2.2330302098584152e-006 #
tcoedge-coedge $-1 $97 $100 $121 $124 forward $88 $125 1.8364291319218014e-006 0.99999820734280209 #
tcoedge-coedge $-1 $99 $98 $97 $109 forward $76 $126 9.9646876621802127e-005 1 #
tedge-edge $-1 $119 9.9646876621802127e-005 $127 1 $108 $128 forward 7 unknown 0.00030123311013693531 #
pcurve $-1 0 forward { exppc nurbs 3 open 7 
	-1 3 -0.83249723449333912 1 -0.66602773632660384 1 -0.50005249656234807 1 -0.33407665211176024 1 
	-0.16760566337044469 1 -9.9646876621783953e-005 3 
	-0.93334370160490732 0.99728371245334702 1 
	-0.89610274316944261 0.99732241744503081 0.99999999999999989 
	-0.82306034261628347 0.99741610538308612 1 
	-0.71827319159215497 0.99761210829888225 1.0000000000000002 
	-0.61550905008905488 0.99784357949800917 0.99999999999999978 
	-0.51274154875152655 0.99809592986880902 1 
	-0.40794879707409593 0.99835542762357021 1 
	-0.33489704584876567 0.9985212503213583 0.99999999999999989 
	-0.29765021755561033 0.99860351299960892 1 
	0.001 
	spline forward { ref 0 } I I I I 
	} 0 0 #
tedge-edge $-1 $114 1.6890798170000596e-005 $127 2.461868131556086 $99 $129 forward 7 unknown 6.7563192654213915e-005 #
pcurve $-1 0 forward { exppc nurbs 2 open 3 
	-2.461868131556086 2 -1.2309425111771277 2 -1.6890798169910681e-005 2 
	3.7711915759007542 -1.3334594473980763 1 
	2.8283271579629563 -3.9999989939000109 0.81650633715364807 
	1.4228908954416752e-006 -3.9999999999997478 1 
	-2.8283243121811639 -4.0000010060994846 0.81650633715364729 
	-3.7711906272161482 -1.3334621303948211 1 
	0 
	plane 0 5 0 0 0 1 1 0 0 reverse_v I I I I 
	} 0 0 #
pcurve $-1 0 forward { exppc nurbs 3 open 7 
	-0.99989627923973656 3 -0.83239094545929837 1 -0.66592063520309408 1 -0.49994546719008354 1 -0.33397090379428962 1 
	-0.16750208376873374 1 0 3 
	-0.29765021755561033 0.0013964436616380933 1 
	-0.33489704518733587 0.0014787079985333637 1 
	-0.40794879511797699 0.0016445354418077344 0.99999999999999978 
	-0.51274154490119117 0.0019040448478083846 1.0000000000000002 
	-0.61550904449355248 0.0021564105889028042 0.99999999999999978 
	-0.71827318451355648 0.0023878991234867562 1 
	-0.82306033488460117 0.0025839191881708999 1.0000000000000002 
	-0.89610273692895981 0.0026776158815948812 0.99999999999999989 
	-0.93334369652880445 0.0027163247977333121 1 
	0.001 
	spline forward { ref 0 } I I I I 
	} 0 0 #
tvertex-vertex $-1 $111 $130 0.00022446435815466249 #
tvertex-vertex $-1 $117 $131 0.00025509031516974498 #
intcurve-curve $-1 forward { exactcur full nurbs 3 open 7 
	0 3 0.16666327386071714 1 0.33332825021216694 1 0.49999519522207392 1 0.66666332701558395 1 
	0.83333137757862275 1 0.99999999999999989 3 
	-3.7709458820882618 6.3333032988578539 3.1844257701871377e-018 1 
	-3.8171731481069564 6.2025796206983896 3.1844257701871377e-018 1 
	-3.9341193695181738 5.956733339002974 0 1 
	-4.1834819445596105 5.6267611088653835 0 1.0000000000000002 
	-4.4941006734874849 5.3556035058758518 0 1 
	-4.8533206837090646 5.1531425919182023 0 0.99999999999999978 
	-5.2475957868551886 5.0280321989459509 0 1.0000000000000002 
	-5.5184250756843038 4.9999822712463526 0 1 
	-5.6571177728380375 5.0000000163757488 0 1 
	0 
	null_surface 
	null_surface 
	nullbs 
	nullbs 
	I I 
	0 
	0 
	5 0.16666327386071714 0.33332825021216694 0.49999519522207392 0.66666332701558395 0.83333137757862275 
	F 1 F 0 } F 0 F 0.99989627923973656 #
tedge-edge $-1 $115 2.2330302098584152e-006 $119 0.99999777735038164 $103 $132 forward 7 unknown 0.001134868548452597 #
pcurve $-1 0 forward { exppc nurbs 3 open 46 
	2.2330302098584152e-006 3 0.022889604467709958 1 0.045682712133649411 1 0.06834666878922864 1 0.090908438339981551 1 
	0.11339451209405307 1 0.13581303969882633 1 0.15816647523226085 1 0.18045710305598947 1 0.20269009206529168 1 
	0.22487309788049376 1 0.2470148252389576 1 0.26912538900548344 1 0.29121016437580677 1 0.31326742382555633 1 
	0.33529744204399464 1 0.35730400795526557 1 0.37929157135688202 1 0.40126375429219829 1 0.42322281199887929 1 
	0.44517126041187061 1 0.46711328856411088 1 0.48905285695672751 1 0.51099185036337602 1 0.53293130259292487 1 
	0.5548736924997465 1 0.57682338051765236 1 0.59878433755407967 1 0.62075878456718858 1 0.6427490586695892 1 
	0.66475876304383563 1 0.68679194810070465 1 0.70885178595605836 1 0.73093781395743895 1 0.75304917953824335 1 
	0.77519324962555181 1 0.79737925610331128 1 0.81961543498142364 1 0.84190873258149679 1 0.86426295935259401 1 
	0.88667872680064075 1 0.90915723880970345 1 0.9317071726127627 1 0.95435652833225415 1 0.97713260075110187 1 
	0.99999777735038164 3 
	-5.657113832947986 0.00014018078497608132 1 
	-5.6436517881114607 0.47906418344349383 1 
	-5.5846420028397734 1.3909805880727939 1.0000000000000002 
	-5.3720863024188201 2.6510117269758666 0.99999999999999978 
	-5.1216551017273906 3.7215496386163744 1.0000000000000002 
	-4.8573886418684253 4.6669377804955081 0.99999999999999967 
	-4.5809541039963637 5.5176357644976912 1.0000000000000002 
	-4.2933929222087226 6.2793220361679971 1 
	-3.9995790968038065 6.9543578771556369 0.99999999999999978 
	-3.7056878796699908 7.5455581920985235 1 
	-3.4161171493783029 8.0602650486744558 0.99999999999999989 
	-3.132688190984056 8.5088556497572245 1.0000000000000002 
	-2.8556935483416948 8.9014188526848823 0.99999999999999978 
	-2.5812385083804155 9.2505586590832358 1.0000000000000004 
	-2.3072857794268131 9.5625738314262012 0.99999999999999989 
	-2.0396734248667689 9.8342716679357718 1 
	-1.7811354188301556 10.067112014786055 0.99999999999999956 
	-1.5303821568684146 10.26560062725914 1.0000000000000004 
	-1.2851475368280962 10.43351770686885 1 
	-1.0433194331546021 10.573058946302249 1 
	-0.80453688717718186 10.684449480688615 1 
	-0.56844544268656616 10.767731314828913 0.99999999999999967 
	-0.33209543958076976 10.823296736759044 1.0000000000000004 
	-0.093121736924213591 10.850129004097688 1 
	0.14687133352349924 10.846697606621898 1 
	0.38471235154029798 10.813361902720978 0.99999999999999989 
	0.61991294649692419 10.751871846709246 1 
	0.855550674335251 10.662878246844846 1.0000000000000002 
	1.0942300071107567 10.54585262760472 1 
	1.3359374322923934 10.400867246639672 1 
	1.581284275754228 10.22745376551444 1 
	1.8323536660952617 10.023212292523233 0.99999999999999989 
	2.0909093318836631 9.7846217811639953 1 
	2.3577859841120983 9.5075887213459129 1 
	2.629454654632295 9.1918073555310436 0.99999999999999978 
	2.9009747754774819 8.8399829653144621 1 
	3.1765813688902886 8.4425134538373161 0.99999999999999978 
	3.4584044248094505 7.9886836204405585 1 
	3.7461166279108009 7.4684138344558839 1.0000000000000002 
	4.0374629704287681 6.8721073604772558 1 
	4.3275529690455006 6.1941009028463192 1.0000000000000002 
	4.6099271771842618 5.4337148307164469 0.99999999999999978 
	4.8799350605001148 4.590651487593659 1 
	5.1376028895579946 3.6585213494900342 1 
	5.3810608445830317 2.6045745940549452 1 
	5.5871227467525921 1.3633869118962874 1 
	5.6441900689420192 0.46917488005055602 1 
	5.6571140976329417 0.00013678161145757304 1 
	0 
	plane 0 5 0 0 1 0 1 0 0 forward_v I I I I 
	} 0 0 #
tvertex-vertex $-1 $117 $133 0.00024508404246442164 #
straight-curve $-1 5.6571178660975434 5 0 -1 0 0 I I #
tcoedge-coedge $-1 $105 $105 $107 $124 reversed $95 $134 -0.99999820734280209 -1.8364291319218014e-006 #
pcurve $-1 0 forward { exppc nurbs 3 open 15 
	1.6890798170000596e-005 3 0.17586465092014433 1 0.35171183825647329 1 0.52755854762175003 1 0.70340487405790308 1 
	0.87925091297442848 1 1.0550967600572732 1 1.2309425111770558 1 1.4067882622968415 1 1.5826341093796952 1 
	1.7584801482962351 1 1.9343264747324087 1 2.1101731840977123 1 2.2860203714340734 1 2.461868131556086 3 
	0 0.33985417134049867 1 
	0 0.39847801566748231 1 
	0 0.51572290876071258 1.0000000000000002 
	0 0.69158156401944226 0.99999999999999989 
	0 0.86743315913487351 1 
	0 1.0432789798843323 0.99999999999999978 
	0 1.2191204951567791 1.0000000000000002 
	0 1.3949591303985083 1 
	0 1.570796326517667 1 
	0 1.7466335226368721 1 
	0 1.9224721578787327 1.0000000000000002 
	0 2.0983136731514027 1 
	0 2.2741594939011733 1 
	0 2.450011089017003 1.0000000000000002 
	0 2.6258697442762209 1 
	0 2.7431146373698332 0.99999999999999989 
	0 2.8017384816970212 1 
	0.001 
	spline forward { ref 1 } I I I I 
	} 0 0 #
pcurve $-1 0 forward { exppc nurbs 3 open 46 
	-0.99999777735038164 3 -0.9771170383265082 1 -0.95432102892251602 1 -0.93164731699388281 1 -0.9090715736077728 1 
	-0.88657225525625505 1 -0.86414112685286193 1 -0.8417759284555999 1 -0.81947538029529388 1 -0.79723496250126213 1 
	-0.77504715142706471 1 -0.75290329583959958 1 -0.73079393948741156 1 -0.7087116800672788 1 -0.68665737398148829 1 
	-0.66463149290840629 1 -0.64263097081645371 1 -0.62065196050764526 1 -0.59869110955938742 1 -0.57674624598346169 1 
	-0.55481514808158983 1 -0.53289373702510534 1 -0.51097724995455818 1 -0.48906215733476655 1 -0.46714591970948394 1 
	-0.44522542720052172 1 -0.42329616944587045 1 -0.40135379998049192 1 -0.37939577545584102 1 -0.35741997847714457 1 
	-0.33542304028214243 1 -0.31340073380174049 1 -0.29134938975128244 1 -0.26926874352754393 1 -0.24716051353678858 1 
	-0.22501930521946134 1 -0.20283481198132802 1 -0.18059792990988488 1 -0.1583004283878866 1 -0.1359363998352795 1 
	-0.11350283140293538 1 -0.090996095780336961 1 -0.068408216196929272 1 -0.045719125345154654 1 -0.022905522933748923 1 
	-2.233030209852771e-006 3 
	-0.29765021755561033 0.99860351299960892 1 
	-0.29765021755561039 0.98052728567478431 1 
	-0.29765021755561033 0.94580319630392629 0.99999999999999989 
	-0.29765021755561039 0.89678057796438049 0.99999999999999978 
	-0.29765021755561027 0.85424820314568517 0.99999999999999978 
	-0.29765021755561039 0.81597953582123472 1.0000000000000002 
	-0.29765021755561033 0.78115062804915647 0.99999999999999967 
	-0.29765021755561033 0.74940808197372766 1.0000000000000002 
	-0.29765021755561039 0.72068288908901057 0.99999999999999978 
	-0.29765021755561027 0.69495438368227458 1.0000000000000002 
	-0.29765021755561033 0.67200874226108631 1.0000000000000002 
	-0.29765021755561027 0.65148171395860988 1 
	-0.29765021755561033 0.63298005712727823 1.0000000000000002 
	-0.29765021755561033 0.61606186305763655 0.99999999999999978 
	-0.29765021755561033 0.60029086701146217 1 
	-0.29765021755561033 0.58582200049201971 1 
	-0.29765021755561027 0.57269121295065517 0.99999999999999978 
	-0.29765021755561033 0.5607246822825781 1.0000000000000002 
	-0.29765021755561033 0.54974254387421351 0.99999999999999956 
	-0.29765021755561039 0.53958136510094956 1.0000000000000002 
	-0.29765021755561039 0.53015231841919919 0.99999999999999989 
	-0.29765021755561033 0.52137450812855701 1.0000000000000002 
	-0.29765021755561033 0.51304722393018454 0.99999999999999978 
	-0.29765021755561039 0.50493277901670908 1 
	-0.29765021755561033 0.49687320996348944 1 
	-0.29765021755561027 0.48876612601997921 1 
	-0.29765021755561039 0.4804784729000186 0.99999999999999989 
	-0.29765021755561033 0.47178792978507372 1 
	-0.29765021755561033 0.4624765432437154 1 
	-0.29765021755561033 0.4524436865646756 1 
	-0.29765021755561033 0.4416086391444366 1.0000000000000002 
	-0.29765021755561027 0.42980991332654112 1 
	-0.29765021755561033 0.41684675132663818 1.0000000000000002 
	-0.29765021755561033 0.40252231847847875 0.99999999999999978 
	-0.29765021755561033 0.38681980485434198 1 
	-0.29765021755561027 0.36992864273687898 1.0000000000000002 
	-0.29765021755561039 0.35156426126652807 1 
	-0.29765021755561027 0.33118912766225456 0.99999999999999978 
	-0.29765021755561039 0.30841074381989086 1.0000000000000002 
	-0.29765021755561027 0.28283217770930091 1 
	-0.29765021755561039 0.25417299667194015 1 
	-0.29765021755561033 0.22232990218086965 1 
	-0.29765021755561027 0.18715680777411006 1 
	-0.29765021755561039 0.14832032270235901 1 
	-0.29765021755561039 0.10506431641768543 0.99999999999999989 
	-0.29765021755561033 0.05527016941065465 1.0000000000000004 
	-0.29765021755561027 0.01985326545169231 1 
	-0.29765021755561033 0.0013964436616380933 1 
	0.001 
	spline forward { ref 0 } I I I I 
	} 0 0 #
tedge-edge $-1 $114 1.8364291319218014e-006 $127 0.99999820734280209 $121 $135 forward 7 unknown 0.0035823346049175609 #
pcurve $-1 0 forward { exppc nurbs 3 open 44 
	1.8364291319218014e-006 3 0.023848366516001196 1 0.047559257302269814 1 0.071158191975957449 1 0.09466920281529588 1 
	0.11810987051667908 1 0.14148768639207601 1 0.16480722879772694 1 0.18807376021627994 1 0.21129608295486749 1 
	0.23448531152302543 1 0.25765377035191533 1 0.28081506019943558 1 0.3039728634744126 1 0.32712199301456218 1 
	0.35026399705725719 1 0.37339793122242948 1 0.39651891672478368 1 0.41961401692623529 1 0.44266399091119502 1 
	0.46565209156417697 1 0.48857288721609859 1 0.51146374165093367 1 0.53439751019213866 1 0.55739881161741756 1 
	0.58045850343228467 1 0.60355918040927092 1 0.62668221440733141 1 0.64981649711979939 1 0.6729577199116108 1 
	0.69610523840858862 1 0.71926034701046171 1 0.74241744067890025 1 0.76558421960006984 1 0.78877347762757688 1 
	0.81199683653734667 1 0.83526476049725584 1 0.85858476924883165 1 0.88196037493579427 1 0.90539449019081064 1 
	0.92889441411864826 1 0.95247911367200422 1 0.97617338475120974 1 0.99999820734280209 3 
	-0.93334369652880445 0.0027163247977333121 1 
	-0.93310619359617231 0.023143124572441439 0.99999999999999989 
	-0.93176808719667625 0.061627180729777555 1 
	-0.92694875313688285 0.11205922148679591 1.0000000000000002 
	-0.92007039236512911 0.15643958109480022 0.99999999999999978 
	-0.91182924393207609 0.19597265583541995 1.0000000000000004 
	-0.90301637297257886 0.23175451880896872 0.99999999999999956 
	-0.89335546295207602 0.26395138006999469 1.0000000000000002 
	-0.88292544568424425 0.29272251210472405 1 
	-0.8717832117755564 0.31822150062520599 1.0000000000000002 
	-0.85994701169781118 0.34083475714122397 0.99999999999999978 
	-0.84734496687374528 0.36104060636046414 1.0000000000000002 
	-0.83385607689614272 0.37929477049456289 0.99999999999999967 
	-0.81910922506396533 0.396196823047133 1.0000000000000004 
	-0.80307620833575022 0.41178880882549218 0.99999999999999978 
	-0.78635468775744455 0.42574908085675356 1 
	-0.76901897411287901 0.43841216635924407 1 
	-0.75139970071374129 0.44994591544771345 1 
	-0.7339164044673262 0.46058034153856781 1.0000000000000002 
	-0.71744310760958574 0.47042864734272427 1 
	-0.70329807434975289 0.47955846068274388 1 
	-0.69273987611808263 0.48820633205677005 1 
	-0.68726961146702437 0.49669392872054441 1.0000000000000002 
	-0.68794118243385982 0.50511955472033698 0.99999999999999978 
	-0.69462204809791406 0.51360702925728208 0.99999999999999978 
	-0.70600484833892352 0.52229817101479492 1.0000000000000002 
	-0.7206832008025178 0.53152934899588611 1 
	-0.73741122945961635 0.54150488717065937 0.99999999999999978 
	-0.75491410778064727 0.55227050160720681 1 
	-0.77244575898488088 0.56397004061280886 0.99999999999999989 
	-0.7895983637602304 0.57680906429741963 0.99999999999999978 
	-0.80606691970638411 0.59093838982008617 1.0000000000000002 
	-0.82178849764793727 0.6066776387052959 0.99999999999999989 
	-0.83611909861366029 0.62356968376388777 1.0000000000000002 
	-0.84934123839130748 0.64194123226147026 0.99999999999999978 
	-0.86170879391141231 0.66229370974723245 1.0000000000000002 
	-0.87333920697388778 0.68507827350696671 1 
	-0.88428752422080326 0.71075002163397138 1 
	-0.89451856231075233 0.73963210953266945 1 
	-0.90396265546167431 0.77178928163460991 1 
	-0.91254622144149611 0.80727831195958932 1 
	-0.92055709810338904 0.84625968990194844 1.0000000000000002 
	-0.92717077180856766 0.88991905464678644 0.99999999999999989 
	-0.93182340748254822 0.93953834539668113 0.99999999999999956 
	-0.93311375323418522 0.97727347167964473 1 
	-0.93334370160490732 0.99728371245334702 1 
	0.001 
	spline forward { ref 0 } I I I I 
	} 0 0 #
pcurve $-1 0 forward { exppc nurbs 3 open 7 
	9.9646876621802127e-005 3 0.16666862258356052 1 0.33333667347052548 1 0.50000480559060634 1 0.66667175076176011 1 
	0.83333672686077143 1 1 3 
	5.6568691072632094 4.056648350569958e-010 1 
	5.5182632436669481 2.5726475616494326e-007 1 
	5.2475172924076077 -0.028057133483717855 1.0000000000000002 
	4.853320749850071 -0.1531425975170464 1.0000000000000002 
	4.4941007267012543 -0.35560351876452678 1 
	4.183481984053012 -0.62676112822487529 0.99999999999999989 
	3.9341194182649475 -0.95673336852083146 1.0000000000000002 
	3.8171841391614421 -1.2025835404850378 0.99999999999999989 
	3.7709571595993649 -1.3333073153415826 1 
	0 
	plane 0 5 0 0 0 1 1 0 0 reverse_v I I I I 
	} 0 0 #
tvertex-vertex $-1 $111 $136 0.00021500104636007795 #
intcurve-curve $-1 forward { exactcur full nurbs 3 open 7 
	0 3 0.16666862258356052 1 0.33333667347052548 1 0.50000480559060634 1 0.66667175076176011 1 
	0.83333672686077143 1 1 3 
	5.6571178661295578 5.0000000151129882 -9.5474659062336815e-016 1 
	5.5184251650925642 4.9999829678460559 -9.5474659062336815e-016 1 
	5.2475958682205519 5.0280322000026674 0 1.0000000000000002 
	4.853320749850071 5.1531425975170464 0 1.0000000000000002 
	4.4941007267012543 5.3556035187645268 0 1 
	4.183481984053012 5.6267611282248753 0 0.99999999999999989 
	3.9341194182649475 5.9567333685208315 0 1.0000000000000002 
	3.8171841391614421 6.2025835404850378 -7.2774888588651779e-016 0.99999999999999989 
	3.7709571595993649 6.3333073153415826 -7.2774888588651779e-016 1 
	0 
	null_surface 
	null_surface 
	nullbs 
	nullbs 
	I I 
	0 
	0 
	5 0.16666862258356052 0.33333667347052548 0.50000480559060634 0.66667175076176011 0.83333672686077143 
	F 1 F 0 } F 9.9646876621802127e-005 F 1 #
ellipse-curve $-1 -1.6653345369377348e-015 4.9999999999999982 0 0 0 -1 -3.7712131499178985 1.3333984317848637 0 1 F 1.6890798170000596e-005 F 2.461868131556086 #
point $-1 -3.7710103702119002 6.3333983929939146 -9.6252986529833057e-005 #
point $-1 -5.6568588433481439 5 -0.00013301329826231829 #
intcurve-curve $-1 forward { exactcur full nurbs 3 open 46 
	0 3 0.022889604467709958 1 0.045682712133649411 1 0.06834666878922864 1 0.090908438339981551 1 
	0.11339451209405307 1 0.13581303969882633 1 0.15816647523226085 1 0.18045710305598947 1 0.20269009206529168 1 
	0.22487309788049376 1 0.2470148252389576 1 0.26912538900548344 1 0.29121016437580677 1 0.31326742382555633 1 
	0.33529744204399464 1 0.35730400795526557 1 0.37929157135688202 1 0.40126375429219829 1 0.42322281199887929 1 
	0.44517126041187061 1 0.46711328856411088 1 0.48905285695672751 1 0.51099185036337602 1 0.53293130259292487 1 
	0.5548736924997465 1 0.57682338051765236 1 0.59878433755407967 1 0.62075878456718858 1 0.6427490586695892 1 
	0.66475876304383563 1 0.68679194810070465 1 0.70885178595605836 1 0.73093781395743895 1 0.75304917953824335 1 
	0.77519324962555181 1 0.79737925610331128 1 0.81961543498142364 1 0.84190873258149679 1 0.86426295935259401 1 
	0.88667872680064075 1 0.90915723880970345 1 0.9317071726127627 1 0.95435652833225415 1 0.97713260075110187 1 
	1 3 
	-5.6571177728033497 5 0 1 
	-5.6436575571446417 5 -0.47897502760598376 1 
	-5.5846489477109253 5 -1.3909394188456683 1.0000000000000002 
	-5.3720863024188201 4.9999999999999991 -2.6510117269758666 0.99999999999999978 
	-5.1216551017273906 5.0000000000000009 -3.7215496386163744 1.0000000000000002 
	-4.8573886418684253 5 -4.6669377804955081 0.99999999999999967 
	-4.5809541039963637 5 -5.5176357644976912 1.0000000000000002 
	-4.2933929222087226 5 -6.2793220361679971 1 
	-3.9995790968038065 5 -6.9543578771556369 0.99999999999999978 
	-3.7056878796699908 5 -7.5455581920985235 1 
	-3.4161171493783029 5 -8.0602650486744558 0.99999999999999989 
	-3.132688190984056 5 -8.5088556497572245 1.0000000000000002 
	-2.8556935483416948 5 -8.9014188526848823 0.99999999999999978 
	-2.5812385083804155 4.9999999999999991 -9.2505586590832358 1.0000000000000004 
	-2.3072857794268131 5.0000000000000009 -9.5625738314262012 0.99999999999999989 
	-2.0396734248667689 5 -9.8342716679357718 1 
	-1.7811354188301556 4.9999999999999991 -10.067112014786055 0.99999999999999956 
	-1.5303821568684146 4.9999999999999991 -10.26560062725914 1.0000000000000004 
	-1.2851475368280962 5.0000000000000009 -10.43351770686885 1 
	-1.0433194331546021 4.9999999999999991 -10.573058946302249 1 
	-0.80453688717718186 5.0000000000000009 -10.684449480688615 1 
	-0.56844544268656616 5.0000000000000009 -10.767731314828913 0.99999999999999967 
	-0.33209543958076976 4.9999999999999991 -10.823296736759044 1.0000000000000004 
	-0.093121736924213591 5 -10.850129004097688 1 
	0.14687133352349924 4.9999999999999991 -10.846697606621898 1 
	0.38471235154029798 5.0000000000000018 -10.813361902720978 0.99999999999999989 
	0.61991294649692419 5.0000000000000009 -10.751871846709246 1 
	0.855550674335251 5.0000000000000009 -10.662878246844846 1.0000000000000002 
	1.0942300071107567 5 -10.54585262760472 1 
	1.3359374322923934 5 -10.400867246639672 1 
	1.581284275754228 4.9999999999999991 -10.22745376551444 1 
	1.8323536660952617 5 -10.023212292523233 0.99999999999999989 
	2.0909093318836631 5.0000000000000009 -9.7846217811639953 1 
	2.3577859841120983 5 -9.5075887213459129 1 
	2.629454654632295 5 -9.1918073555310436 0.99999999999999978 
	2.9009747754774819 5 -8.8399829653144621 1 
	3.1765813688902886 5 -8.4425134538373161 0.99999999999999978 
	3.4584044248094505 5 -7.9886836204405585 1 
	3.7461166279108009 4.9999999999999991 -7.4684138344558839 1.0000000000000002 
	4.0374629704287681 5 -6.8721073604772558 1 
	4.3275529690455006 4.9999999999999991 -6.1941009028463192 1.0000000000000002 
	4.6099271771842618 5 -5.4337148307164469 0.99999999999999978 
	4.8799350605001148 5.0000000000000009 -4.590651487593659 1 
	5.1376028895579946 5 -3.6585213494900342 1 
	5.3810608445830317 5 -2.6045745940549452 1 
	5.5871294534351579 5 -1.3633465150461106 1 
	5.6441956269098563 5 -0.46908778674901697 1 
	5.6571178660975434 5 0 1 
	0 
	null_surface 
	null_surface 
	nullbs 
	nullbs 
	I I 
	0 
	0 
	44 0.022889604467709958 0.045682712133649411 0.06834666878922864 0.090908438339981551 0.11339451209405307 0.13581303969882633 0.15816647523226085 0.18045710305598947 0.20269009206529168 0.22487309788049376 0.2470148252389576 0.26912538900548344 0.29121016437580677 0.31326742382555633 0.33529744204399464 0.35730400795526557 0.37929157135688202 0.40126375429219829 0.42322281199887929 0.44517126041187061 0.46711328856411088 0.48905285695672751 0.51099185036337602 0.53293130259292487 0.5548736924997465 0.57682338051765236 0.59878433755407967 0.62075878456718858 0.6427490586695892 0.66475876304383563 0.68679194810070465 0.70885178595605836 0.73093781395743895 0.75304917953824335 0.77519324962555181 0.79737925610331128 0.81961543498142364 0.84190873258149679 0.86426295935259401 0.88667872680064075 0.90915723880970345 0.9317071726127627 0.95435652833225415 0.97713260075110187 
	F 1 F 0 } F 2.2330302098584152e-006 F 0.99999777735038164 #
point $-1 5.656869106576444 5.0000000000000027 -0.00013003104801004658 #
pcurve $-1 0 forward { exppc nurbs 3 open 44 
	-0.99999820734280209 3 -0.97655233107102191 1 -0.95317781834908266 1 -0.9298673197647106 1 -0.90661087967314546 1 
	-0.88340204679345391 1 -0.86023197122578388 1 -0.83709486907092368 1 -0.81398455747389498 1 -0.79089221348760352 1 
	-0.76780691723120331 1 -0.74471648651079891 1 -0.72160658860910243 1 -0.69846555934135723 1 -0.67529413771965918 1 
	-0.65208617940060631 1 -0.6288350099196045 1 -0.60553390696490772 1 -0.58217972214948976 1 -0.55877701547381764 1 
	-0.53532906643785505 1 -0.51183885197112633 1 -0.48832878564616033 1 -0.46483020380054763 1 -0.4413704856159234 1 
	-0.41795579396039451 1 -0.39458910317488693 1 -0.37127542689814585 1 -0.34801305706699803 1 -0.32479489631333169 1 
	-0.30161401471817573 1 -0.27846382583671891 1 -0.25534489993351961 1 -0.23224893802182289 1 -0.20916044853767946 1 
	-0.18606648099152823 1 -0.16295553230915361 1 -0.13981780721843928 1 -0.11664584884430518 1 -0.093432614136857106 1 
	-0.070168745234791219 1 -0.046848147017730879 1 -0.023462117574321262 1 -1.8364291318739845e-006 3 
	0 2.8017384816970212 1 
	0.040101497567251357 2.8007968488793358 1 
	0.1163328341871957 2.7969073345305291 1 
	0.2186519797125743 2.7837738761389428 1.0000000000000002 
	0.30994271585804034 2.7672849524952885 0.99999999999999978 
	0.39215754432461358 2.7483385724468365 1.0000000000000002 
	0.46553953018755545 2.7263417299434258 1 
	0.53135979457831028 2.7007498335870306 1 
	0.58973648563323733 2.6713894062433639 1.0000000000000002 
	0.64097638925706646 2.6382759428012275 0.99999999999999989 
	0.68581200321942104 2.6013414122668341 1 
	0.72522034714564765 2.5602347787028741 0.99999999999999978 
	0.76012546666396597 2.5143120761729874 1 
	0.79149870040468195 2.4622878138757596 0.99999999999999978 
	0.81989430920855288 2.4023798012781308 1.0000000000000002 
	0.84445878767071059 2.336100708907312 0.99999999999999989 
	0.86575488544446066 2.262522652196246 1.0000000000000002 
	0.88398107820942151 2.1811045949091246 1.0000000000000002 
	0.8993652868598585 2.0909467161882889 1 
	0.91194191176603367 1.9915302387543166 1 
	0.92156555485337122 1.8840993846979028 0.99999999999999989 
	0.92824980928264123 1.7694013993124318 1.0000000000000002 
	0.9318916592953741 1.6471028453621872 1 
	0.93224841449532081 1.5214580236381032 1 
	0.92929502760609717 1.3976480499446602 0.99999999999999978 
	0.92321468085177638 1.2809523797503601 1.0000000000000002 
	0.91417285097461964 1.1715907032018482 1 
	0.90215300168615509 1.0700869877638743 1.0000000000000002 
	0.88727863377083915 0.97775352516852798 1 
	0.86957596806341364 0.89442374149915493 1 
	0.84879747123639704 0.81901152637908592 0.99999999999999967 
	0.8247201100453857 0.7509590256814157 1.0000000000000002 
	0.79676104744060949 0.68929044026029884 1.0000000000000002 
	0.76550797922027591 0.6353319577948493 0.99999999999999989 
	0.7309405404494097 0.58815811898043435 1.0000000000000002 
	0.6919206850218208 0.5459896476414744 0.99999999999999989 
	0.64751816112189697 0.50815177721068994 1.0000000000000002 
	0.59671433740129243 0.47422645127764812 0.99999999999999956 
	0.53865144340496818 0.44409130684593873 1 
	0.47283791570923223 0.41774655086010826 1 
	0.39894705705122141 0.39501713588226878 1.0000000000000002 
	0.31565456582177148 0.37545273648950556 1 
	0.22275367934708248 0.35842965163785595 0.99999999999999967 
	0.11871187407396788 0.34485287550917382 1.0000000000000002 
	0.040943602696340127 0.34083002181289218 1 
	0 0.33985417134049867 1 
	0.001 
	spline forward { ref 1 } I I I I 
	} 0 0 #
intcurve-curve $-1 forward { exactcur full nurbs 3 open 44 
	0 3 0.024113332548318888 1 0.0480796675594823 1 0.071918056303377054 1 0.095642816850994461 1 
	0.11925814547821707 1 0.1427742768642801 1 0.16619743563885539 1 0.18953453058954231 1 0.21279614818905185 1 
	0.23599456112196573 1 0.2591419197118463 1 0.28224963251840213 1 0.30531914331085996 1 0.32834672505882884 1 
	0.35133624719322348 1 0.37429116551127306 1 0.39721409245979111 1 0.42010557023056605 1 0.44296575959652001 1 
	0.46579748543192651 1 0.48860724162484337 1 0.51140908666709339 1 0.53422251070433779 1 0.55705948196342381 1 
	0.57992552890757398 1 0.60282291117260611 1 0.62575149198500246 1 0.64871214895511642 1 0.67170734244879626 1 
	0.69474023159497533 1 0.71781394370828744 1 0.7409236815945055 1 0.7640744044545712 1 0.78727720375281174 1 
	0.81054376718209731 1 0.83388578846081518 1 0.8573123943254044 1 0.88082829123508433 1 0.90443744033300777 1 
	0.92814920276459478 1 0.9519689687601679 1 0.97591380498575675 1 1 3 
	-3.7712131499178896 6.3333984317848842 0 1 
	-3.7558115941628589 6.3325843649000708 -0.45106875173157218 0.99999999999999978 
	-3.6964438227272245 6.3279994688694439 -1.3041161713555767 0.99999999999999989 
	-3.4978094152411137 6.3115111344635526 -2.4350516800599085 1 
	-3.2640441092427799 6.2879573629361794 -3.4367919494758699 1 
	-3.0174343546490023 6.2598125288010911 -4.3290029143701769 1 
	-2.7657375114135498 6.2297221876897755 -5.1111361611638992 0.99999999999999989 
	-2.5103053840202274 6.1968224185256213 -5.7959909726308059 1 
	-2.257286781198883 6.1614050140456715 -6.3882356881427569 0.99999999999999978 
	-2.0122888502660947 6.1237170460380836 -6.8953460846214503 1 
	-1.7785278099571662 6.0838800000002493 -7.3288210676237746 1.0000000000000002 
	-1.5568250095392357 6.0417293040579239 -7.7013851103835798 0.99999999999999978 
	-1.3468975473239708 5.9969606701841958 -8.0243212016872842 1 
	-1.1454843119947027 5.9484864355042024 -8.3101056369022466 1 
	-0.95523055671282131 5.8964236595657518 -8.5604653413307599 1.0000000000000002 
	-0.78334480818991725 5.8429356957573901 -8.7718428421087591 0.99999999999999989 
	-0.62850970001276307 5.788460514170354 -8.9510058764702602 1.0000000000000002 
	-0.4909014265519121 5.7342347411138679 -9.1011731601954047 0.99999999999999989 
	-0.36953226579517034 5.6816831562317009 -9.2255535544419356 0.99999999999999978 
	-0.26432871038181921 5.6334335549415586 -9.3248424364790523 1.0000000000000002 
	-0.17472736105891512 5.5930743902176712 -9.3987921527774958 1.0000000000000002 
	-0.097242757251499307 5.5636485855806619 -9.4481728968382495 0.99999999999999978 
	-0.026692536610412078 5.5486715554976778 -9.4720745781255378 1.0000000000000002 
	0.041478850404859262 5.5504985407660028 -9.4691895305161484 0.99999999999999989 
	0.1129718704125902 5.5688478736334224 -9.4397016517736692 1.0000000000000002 
	0.19232335644835391 5.6007187107689056 -9.3853523634100604 0.99999999999999978 
	0.28462261863423688 5.6428221404434105 -9.3064990909748158 1.0000000000000002 
	0.39281812845142483 5.6920829528160022 -9.2023690646411804 0.99999999999999978 
	0.51699566923386431 5.7449545712027383 -9.0733757400713912 1.0000000000000002 
	0.65746980134269928 5.7991454878817708 -8.9182899504362272 0.99999999999999978 
	0.81486864126526848 5.853244057344293 -8.7340436405264832 1.0000000000000002 
	0.98874376320468083 5.9060815219198508 -8.5176194156860543 0.99999999999999989 
	1.1801617456566327 5.9572550240287825 -8.2624058045435227 1 
	1.3803972800729152 6.0044448181945285 -7.9744860392560275 1 
	1.5902715730504202 6.0483866127175983 -7.6472767113585576 0.99999999999999989 
	1.8117661721173506 6.0897953737439146 -7.2697518019039276 1.0000000000000002 
	2.0450704633673489 6.1289698192342037 -6.8306708331199912 1.0000000000000002 
	2.2890739629622461 6.1660226773679367 -6.317721510033377 0.99999999999999956 
	2.540048352245619 6.200778584210811 -5.720757625213694 1 
	2.7919929740863023 6.2329474763327548 -5.0344439873757816 1 
	3.0386002970754311 6.2622619466332612 -4.2566069538373519 1 
	3.2794654669915606 6.2896197906775315 -3.3754371626219966 1 
	3.5065582693805677 6.3122712416820086 -2.3906522157040424 1 
	3.6989576855566302 6.3281889190633702 -1.2781497006638272 1 
	3.7563816099523128 6.3326102912661675 -0.44182856220641709 1 
	3.7712131491814893 6.3333984338676252 0 1 
	0 
	null_surface 
	null_surface 
	nullbs 
	nullbs 
	I I 
	0 
	0 
	42 0.024113332548318888 0.0480796675594823 0.071918056303377054 0.095642816850994461 0.11925814547821707 0.1427742768642801 0.16619743563885539 0.18953453058954231 0.21279614818905185 0.23599456112196573 0.2591419197118463 0.28224963251840213 0.30531914331085996 0.32834672505882884 0.35133624719322348 0.37429116551127306 0.39721409245979111 0.42010557023056605 0.44296575959652001 0.46579748543192651 0.48860724162484337 0.51140908666709339 0.53422251070433779 0.55705948196342381 0.57992552890757398 0.60282291117260611 0.62575149198500246 0.64871214895511642 0.67170734244879626 0.69474023159497533 0.71781394370828744 0.7409236815945055 0.7640744044545712 0.78727720375281174 0.81054376718209731 0.83388578846081518 0.8573123943254044 0.88082829123508433 0.90443744033300777 0.92814920276459478 0.9519689687601679 0.97591380498575675 
	F 1 F 0 } I I #
point $-1 3.7710189410867794 6.3333984052794214 -9.2242425530661748e-005 #
End-of-ACIS-data 