600 0 1 0           
106 GICL ACIS Healer - Source: /gicl/data5/repository/PTC/V18/bboxrev2/boombox/speaker_left_bracket_.sat - 6 0 18 ACIS 6.0.3 Solaris 24 Sat Apr 13 22:38:19 2002 
1 9.999999999999999547e-07 1.000000000000000036e-10 
body $-1 $1 $-1 $-1 #
lump $-1 $-1 $2 $0 #
shell $-1 $-1 $-1 $3 $-1 $1 #
face $-1 $4 $5 $2 $-1 $6 reversed single #
face $-1 $7 $8 $2 $-1 $9 forward single #
loop $-1 $10 $11 $3 #
plane-surface $-1 -147.3627315759463841 89.10316621909224466 67.75416455587206599 0.3368240888334665395 -0.1736481776669303589 -0.9254165783983229199 0.05939117461388461472 0.9848077530122081313 -0.163175911166534876 forward_v I I I I #
face $-1 $12 $13 $2 $-1 $14 forward single #
loop $-1 $-1 $15 $4 #
cone-surface $-1 -147.3627315759464125 89.10316621909225887 67.75416455587205178 0.3368240888334665395 -0.1736481776669303867 -0.9254165783983229199 2.879046563255318603 47.73954034770252264 -7.910115422102436789 1 I I 0 1 48.47599970825039151 forward I I I I #
loop $-1 $-1 $16 $3 #
coedge $-1 $17 $17 $18 $19 reversed $5 $-1 #
face $-1 $20 $21 $2 $-1 $22 forward single #
loop $-1 $-1 $23 $7 #
cone-surface $-1 -147.3627315759464125 89.10316621909225887 67.75416455587205178 0.3368240888334665395 -0.1736481776669303867 -0.9254165783983229199 2.879046563255318603 47.73954034770252264 -7.910115422102436789 1 I I 0 1 48.47599970825039151 forward I I I I #
coedge $-1 $24 $18 $25 $26 forward $8 $-1 #
coedge $-1 $27 $27 $28 $29 reversed $10 $-1 #
coedge $-1 $11 $11 $30 $31 reversed $5 $-1 #
coedge $-1 $15 $32 $11 $19 forward $8 $-1 #
edge $-1 $33 0 $34 3.141592653589794892 $11 $35 forward 7 unknown #
face $-1 $36 $37 $2 $-1 $38 reversed single #
loop $-1 $39 $40 $12 #
plane-surface $-1 -146.3522593094459978 88.58222168609145797 64.97791482067709978 0.3368240888334665395 -0.1736481776669303589 -0.9254165783983229199 0.05939117461388461472 0.9848077530122081313 -0.163175911166534876 forward_v I I I I #
coedge $-1 $41 $30 $32 $42 forward $13 $-1 #
coedge $-1 $32 $15 $40 $43 reversed $8 $-1 #
coedge $-1 $30 $41 $15 $26 reversed $13 $-1 #
edge $-1 $34 -3.577844164672658829e-15 $44 2.999999999999991118 $25 $45 forward 7 unknown #
coedge $-1 $16 $16 $46 $47 reversed $10 $-1 #
coedge $-1 $48 $49 $16 $29 forward $37 $-1 #
edge $-1 $50 0 $51 3.141592653589793116 $16 $52 forward 7 unknown #
coedge $-1 $23 $25 $17 $31 forward $13 $-1 #
edge $-1 $34 0 $33 3.14159265358979134 $17 $53 forward 7 unknown #
coedge $-1 $18 $24 $23 $42 reversed $8 $-1 #
vertex $-1 $31 $54 #
vertex $-1 $31 $55 #
ellipse-curve $-1 -147.3627315759464125 89.10316621909225887 67.75416455587205178 0.336824088833466484 -0.1736481776669302202 -0.9254165783983230309 -2.879046563255258206 -47.73954034770252264 7.910115422102450111 1 I I #
face $-1 $-1 $56 $2 $-1 $57 reversed single #
loop $-1 $-1 $48 $20 #
cone-surface $-1 -147.3627315759463841 89.10316621909225887 67.75416455587205178 0.3368240888334665395 -0.1736481776669303589 -0.9254165783983229199 2.658467763961495312 44.08196473807824134 -7.304080151832241796 1 I I 0 1 44.76200009925366885 forward I I I I #
loop $-1 $-1 $58 $12 #
coedge $-1 $59 $59 $24 $43 forward $21 $-1 #
coedge $-1 $25 $23 $59 $60 reversed $13 $-1 #
edge $-1 $33 1.315096054665793725e-14 $61 3.000000000000005329 $23 $62 forward 7 unknown #
edge $-1 $61 0 $44 3.141592653589794892 $40 $63 forward 7 unknown #
vertex $-1 $60 $64 #
straight-curve $-1 -144.4836850126910974 136.8427065667947886 59.84404913376961588 0.3368240888334626537 -0.1736481776669339117 -0.925416578398323586 I I #
coedge $-1 $65 $66 $27 $47 forward $56 $-1 #
edge $-1 $51 0 $50 3.141592653589793116 $27 $67 forward 7 unknown #
coedge $-1 $68 $28 $66 $69 forward $37 $-1 #
coedge $-1 $28 $68 $65 $70 reversed $37 $-1 #
vertex $-1 $47 $71 #
vertex $-1 $47 $72 #
ellipse-curve $-1 -147.3627315759463841 89.10316621909225887 67.75416455587205178 -0.336824088833466484 0.17364817766693047 0.9254165783983228089 -2.658467763961482433 -44.08196473807824134 7.304080151832252454 1 I I #
ellipse-curve $-1 -147.3627315759464125 89.10316621909225887 67.75416455587205178 0.336824088833466595 -0.1736481776669302202 -0.9254165783983228089 2.879046563255343472 47.73954034770252974 -7.910115422102421689 1 I I #
point $-1 -150.2417781392016707 41.36362587138973623 75.66427997797450189 #
point $-1 -144.483685012691069 136.8427065667947886 59.84404913376963009 #
loop $-1 $-1 $65 $36 #
cone-surface $-1 -147.3627315759463841 89.10316621909225887 67.75416455587205178 0.3368240888334665395 -0.1736481776669303589 -0.9254165783983229199 2.658467763961495312 44.08196473807824134 -7.304080151832241796 1 I I 0 1 44.76200009925366885 forward I I I I #
coedge $-1 $73 $73 $68 $74 forward $39 $-1 #
coedge $-1 $40 $40 $41 $60 forward $21 $-1 #
edge $-1 $44 0 $61 3.14159265358979134 $59 $75 forward 7 unknown #
vertex $-1 $60 $76 #
straight-curve $-1 -150.2417781392016707 41.36362587138973623 75.6642799779745161 0.3368240888334613214 -0.1736481776669308863 -0.9254165783983246962 I I #
ellipse-curve $-1 -146.3522593094460262 88.58222168609145797 64.97791482067708557 0.3368240888334664285 -0.1736481776669302202 -0.9254165783983230309 -2.879046563255258206 -47.73954034770250843 7.910115422102450111 1 I I #
point $-1 -143.4732127461906828 136.3217620337939877 57.06779939857466388 #
coedge $-1 $77 $46 $49 $70 forward $56 $-1 #
coedge $-1 $46 $77 $48 $69 reversed $56 $-1 #
ellipse-curve $-1 -147.3627315759463841 89.10316621909225887 67.75416455587205178 -0.336824088833466484 0.1736481776669299149 0.9254165783983230309 2.658467763961482433 44.08196473807822713 -7.304080151832224033 1 I I #
coedge $-1 $49 $48 $58 $74 reversed $37 $-1 #
edge $-1 $51 -1.315096054665787572e-14 $78 2.999999999999976907 $66 $79 forward 7 unknown #
edge $-1 $50 -9.573116381984988117e-15 $80 2.999999999999984013 $65 $81 forward 7 unknown #
point $-1 -150.0211993399078665 45.02120148101401753 75.05824470770430423 #
point $-1 -144.7042638119849016 133.185130957170486 60.45008440403982775 #
coedge $-1 $58 $58 $77 $82 forward $39 $-1 #
edge $-1 $80 0 $78 3.141592653589793116 $58 $83 forward 7 unknown #
ellipse-curve $-1 -146.3522593094460262 88.58222168609145797 64.97791482067708557 0.336824088833466595 -0.1736481776669302202 -0.9254165783983228089 2.879046563255343472 47.73954034770252974 -7.910115422102421689 1 I I #
point $-1 -149.2313058727012844 40.84268133838894954 72.88803024277953568 #
coedge $-1 $66 $65 $73 $82 reversed $56 $-1 #
vertex $-1 $82 $84 #
straight-curve $-1 -144.7042638119849016 133.185130957170486 60.45008440403981353 0.3368240888334718131 -0.1736481776669337729 -0.9254165783983203664 I I #
vertex $-1 $82 $85 #
straight-curve $-1 -150.0211993399078381 45.02120148101401753 75.05824470770430423 0.3368240888334528838 -0.1736481776669314137 -0.9254165783983275828 I I #
edge $-1 $78 7.092530821262378323e-18 $80 3.141592653589794448 $73 $86 forward 7 unknown #
ellipse-curve $-1 -146.3522593094459978 88.58222168609147218 64.97791482067709978 -0.3368240888334665395 0.1736481776669302202 0.9254165783983229199 -2.658467763961482433 -44.08196473807824134 7.304080151832238244 1 I I #
point $-1 -143.6937915454845154 132.6641864241697135 57.67383466884486154 #
point $-1 -149.0107270734074802 44.50025694801323084 72.28199497250933803 #
ellipse-curve $-1 -146.3522593094460262 88.58222168609147218 64.97791482067708557 -0.336824088833466595 0.1736481776669301091 0.9254165783983229199 2.658467763961510855 44.08196473807824134 -7.304080151832224033 1 I I #
End-of-ACIS-data 