600 0 1 0           
113 GICL Pro/E ACIS Translator - Source: f:/data5/repository/PTC/V18/bboxrev2/boombox/speaker_left_bracket_.prt - 6 0 13 ACIS 6.0.3 NT 24 Thu Apr 04 13:42:34 2002 
1 9.9999999999999995e-007 1e-010 
body $-1 $1 $-1 $-1 #
lump $-1 $-1 $2 $0 #
shell $-1 $-1 $-1 $3 $-1 $1 #
face $-1 $4 $5 $2 $-1 $6 reversed single #
face $-1 $7 $8 $2 $-1 $9 forward single #
loop $-1 $10 $11 $3 #
plane-surface $-1 -147.36273157594638 89.103166219092245 67.754164555872066 0.33682408883346654 -0.17364817766693036 -0.92541657839832292 0.059391174613884615 0.98480775301220813 -0.16317591116653488 forward_v I I I I #
face $-1 $12 $13 $2 $-1 $14 forward single #
loop $-1 $-1 $15 $4 #
cone-surface $-1 -147.36273157594641 89.103166219092259 67.754164555872052 0.33682408883346654 -0.17364817766693039 -0.92541657839832292 2.8790465632553186 47.739540347702523 -7.9101154221024368 1 I I 0 1 48.475999708250392 forward I I I I #
loop $-1 $-1 $16 $3 #
coedge $-1 $17 $17 $18 $19 reversed $5 $-1 #
face $-1 $20 $21 $2 $-1 $22 forward single #
loop $-1 $-1 $23 $7 #
cone-surface $-1 -147.36273157594641 89.103166219092259 67.754164555872052 0.33682408883346654 -0.17364817766693039 -0.92541657839832292 2.8790465632553186 47.739540347702523 -7.9101154221024368 1 I I 0 1 48.475999708250392 forward I I I I #
coedge $-1 $24 $18 $25 $26 forward $8 $-1 #
coedge $-1 $27 $27 $28 $29 reversed $10 $-1 #
coedge $-1 $11 $11 $30 $31 reversed $5 $-1 #
coedge $-1 $15 $32 $11 $19 forward $8 $-1 #
edge $-1 $33 0 $34 3.1415926535897949 $11 $35 forward 7 unknown #
face $-1 $36 $37 $2 $-1 $38 reversed single #
loop $-1 $39 $40 $12 #
plane-surface $-1 -146.352259309446 88.582221686091458 64.9779148206771 0.33682408883346654 -0.17364817766693036 -0.92541657839832292 0.059391174613884615 0.98480775301220813 -0.16317591116653488 forward_v I I I I #
coedge $-1 $41 $30 $32 $42 forward $13 $-1 #
coedge $-1 $32 $15 $40 $43 reversed $8 $-1 #
coedge $-1 $30 $41 $15 $26 reversed $13 $-1 #
edge $-1 $34 -3.5778441646726588e-015 $44 2.9999999999999916 $25 $45 forward 7 unknown #
coedge $-1 $16 $16 $46 $47 reversed $10 $-1 #
coedge $-1 $48 $49 $16 $29 forward $37 $-1 #
edge $-1 $50 0 $51 3.1415926535897931 $16 $52 forward 7 unknown #
coedge $-1 $23 $25 $17 $31 forward $13 $-1 #
edge $-1 $34 0 $33 3.1415926535897913 $17 $53 forward 7 unknown #
coedge $-1 $18 $24 $23 $42 reversed $8 $-1 #
vertex $-1 $31 $54 #
vertex $-1 $31 $55 #
ellipse-curve $-1 -147.36273157594641 89.103166219092259 67.754164555872052 0.33682408883346648 -0.17364817766693022 -0.92541657839832303 -2.8790465632552582 -47.739540347702523 7.9101154221024501 1 I I #
face $-1 $-1 $56 $2 $-1 $57 reversed single #
loop $-1 $-1 $48 $20 #
cone-surface $-1 -147.36273157594638 89.103166219092259 67.754164555872052 0.33682408883346654 -0.17364817766693036 -0.92541657839832292 2.6584677639614953 44.081964738078241 -7.3040801518322418 1 I I 0 1 44.762000099253669 forward I I I I #
loop $-1 $-1 $58 $12 #
coedge $-1 $59 $59 $24 $43 forward $21 $-1 #
coedge $-1 $25 $23 $59 $60 reversed $13 $-1 #
edge $-1 $33 1.3150960546657937e-014 $61 3.0000000000000058 $23 $62 forward 7 unknown #
edge $-1 $61 0 $44 3.1415926535897949 $40 $63 forward 7 unknown #
vertex $-1 $60 $64 #
straight-curve $-1 -144.4836850126911 136.84270656679479 59.844049133769616 0.33682408883346265 -0.17364817766693391 -0.92541657839832359 I I #
coedge $-1 $65 $66 $27 $47 forward $56 $-1 #
edge $-1 $51 0 $50 3.1415926535897931 $27 $67 forward 7 unknown #
coedge $-1 $68 $28 $66 $69 forward $37 $-1 #
coedge $-1 $28 $68 $65 $70 reversed $37 $-1 #
vertex $-1 $47 $71 #
vertex $-1 $47 $72 #
ellipse-curve $-1 -147.36273157594638 89.103166219092259 67.754164555872052 -0.33682408883346648 0.17364817766693047 0.92541657839832281 -2.6584677639614824 -44.081964738078241 7.3040801518322525 1 I I #
ellipse-curve $-1 -147.36273157594641 89.103166219092259 67.754164555872052 0.3368240888334666 -0.17364817766693022 -0.92541657839832281 2.8790465632553435 47.73954034770253 -7.9101154221024217 1 I I #
point $-1 -150.24177813920167 41.363625871389736 75.664279977974502 #
point $-1 -144.48368501269107 136.84270656679479 59.84404913376963 #
loop $-1 $-1 $65 $36 #
cone-surface $-1 -147.36273157594638 89.103166219092259 67.754164555872052 0.33682408883346654 -0.17364817766693036 -0.92541657839832292 2.6584677639614953 44.081964738078241 -7.3040801518322418 1 I I 0 1 44.762000099253669 forward I I I I #
coedge $-1 $73 $73 $68 $74 forward $39 $-1 #
coedge $-1 $40 $40 $41 $60 forward $21 $-1 #
edge $-1 $44 0 $61 3.1415926535897913 $59 $75 forward 7 unknown #
vertex $-1 $60 $76 #
straight-curve $-1 -150.24177813920167 41.363625871389736 75.664279977974516 0.33682408883346132 -0.17364817766693089 -0.9254165783983247 I I #
ellipse-curve $-1 -146.35225930944603 88.582221686091458 64.977914820677086 0.33682408883346643 -0.17364817766693022 -0.92541657839832303 -2.8790465632552582 -47.739540347702508 7.9101154221024501 1 I I #
point $-1 -143.47321274619068 136.32176203379399 57.067799398574664 #
coedge $-1 $77 $46 $49 $70 forward $56 $-1 #
coedge $-1 $46 $77 $48 $69 reversed $56 $-1 #
ellipse-curve $-1 -147.36273157594638 89.103166219092259 67.754164555872052 -0.33682408883346648 0.17364817766692991 0.92541657839832303 2.6584677639614824 44.081964738078227 -7.304080151832224 1 I I #
coedge $-1 $49 $48 $58 $74 reversed $37 $-1 #
edge $-1 $51 -1.3150960546657876e-014 $78 2.9999999999999769 $66 $79 forward 7 unknown #
edge $-1 $50 -9.5731163819849881e-015 $80 2.9999999999999836 $65 $81 forward 7 unknown #
point $-1 -150.02119933990787 45.021201481014018 75.058244707704304 #
point $-1 -144.7042638119849 133.18513095717049 60.450084404039828 #
coedge $-1 $58 $58 $77 $82 forward $39 $-1 #
edge $-1 $80 0 $78 3.1415926535897931 $58 $83 forward 7 unknown #
ellipse-curve $-1 -146.35225930944603 88.582221686091458 64.977914820677086 0.3368240888334666 -0.17364817766693022 -0.92541657839832281 2.8790465632553435 47.73954034770253 -7.9101154221024217 1 I I #
point $-1 -149.23130587270128 40.84268133838895 72.888030242779536 #
coedge $-1 $66 $65 $73 $82 reversed $56 $-1 #
vertex $-1 $82 $84 #
straight-curve $-1 -144.7042638119849 133.18513095717049 60.450084404039814 0.33682408883347181 -0.17364817766693377 -0.92541657839832037 I I #
vertex $-1 $82 $85 #
straight-curve $-1 -150.02119933990784 45.021201481014018 75.058244707704304 0.33682408883345288 -0.17364817766693141 -0.92541657839832758 I I #
edge $-1 $78 7.0925308212623783e-018 $80 3.1415926535897944 $73 $86 forward 7 unknown #
ellipse-curve $-1 -146.352259309446 88.582221686091472 64.9779148206771 -0.33682408883346654 0.17364817766693022 0.92541657839832292 -2.6584677639614824 -44.081964738078241 7.3040801518322382 1 I I #
point $-1 -143.69379154548452 132.66418642416971 57.673834668844862 #
point $-1 -149.01072707340748 44.500256948013231 72.281994972509338 #
ellipse-curve $-1 -146.35225930944603 88.582221686091472 64.977914820677086 -0.3368240888334666 0.17364817766693011 0.92541657839832292 2.6584677639615109 44.081964738078241 -7.304080151832224 1 I I #
End-of-ACIS-data 