700 0 2 0           
24 FBMach with ACIS - 7.0.3 13 ACIS 7.0.3 NT 24 Thu May 16 11:12:28 2002 
1 9.9999999999999995e-007 1e-010 
body $2 -1 $-1 $3 $-1 $4 #
bdycol-kcp $-1 -1 1 5 $5 $6 $7 $8 $9 #
model_id-kcp-attrib $-1 -1 $-1 $-1 $0 1 1021561947 1021561947 -1608384511 1 #
lump $-1 -1 $-1 $-1 $10 $0 #
transform $-1 -1 1.0000000000000002 -5.5511151231257827e-017 0 -5.5511151231257827e-017 1 0 0 0 1 5.6843418860808015e-014 -1.4210854715202004e-014 0 1 rotate no_reflect no_shear #
body $11 -1 $-1 $12 $-1 $13 #
body $14 -1 $-1 $15 $-1 $16 #
body $17 -1 $-1 $18 $-1 $19 #
body $20 -1 $-1 $21 $-1 $22 #
body $23 -1 $-1 $24 $-1 $25 #
shell $-1 -1 $-1 $-1 $-1 $26 $-1 $3 #
model_id-kcp-attrib $-1 -1 $-1 $-1 $5 1 1021561947 1021561947 -1608384510 1 #
lump $-1 -1 $-1 $-1 $27 $5 #
transform $-1 -1 1 0 0 0 1 0 0 0 1 -146.85749544269623 88.842693952591858 66.366039688274583 1 no_rotate no_reflect no_shear #
rgb_color-st-attrib $-1 -1 $28 $-1 $6 0.5 1 1 #
lump $-1 -1 $-1 $-1 $29 $6 #
transform $-1 -1 1 0 0 0 1 0 0 0 1 -146.85749544269623 88.842693952591858 66.366039688274583 1 no_rotate no_reflect no_shear #
rgb_color-st-attrib $-1 -1 $30 $-1 $7 0.5 0.5 1 #
lump $-1 -1 $-1 $-1 $31 $7 #
transform $-1 -1 1 0 0 0 1 0 0 0 1 -146.85749544269623 88.842693952591858 66.366039688274583 1 no_rotate no_reflect no_shear #
rgb_color-st-attrib $-1 -1 $32 $-1 $8 0.5 1 1 #
lump $-1 -1 $-1 $-1 $33 $8 #
transform $-1 -1 1 0 0 0 1 0 0 0 1 0 0 0 1 no_rotate no_reflect no_shear #
rgb_color-st-attrib $-1 -1 $34 $-1 $9 0.59999999999999998 0.90000000000000002 1 #
lump $-1 -1 $-1 $-1 $35 $9 #
transform $-1 -1 1 0 0 0 1 0 0 0 1 -146.85749544269623 88.842693952591858 66.366039688274583 1 no_rotate no_reflect no_shear #
face $36 -1 $-1 $37 $38 $10 $-1 $39 reversed single #
shell $-1 -1 $-1 $-1 $-1 $40 $-1 $12 #
model_id-kcp-attrib $-1 -1 $-1 $14 $6 1 1021561947 1021561947 -1602486269 1 #
shell $-1 -1 $-1 $-1 $-1 $41 $-1 $15 #
model_id-kcp-attrib $-1 -1 $-1 $17 $7 1 1021561947 1021561948 -1609236475 1 #
shell $-1 -1 $-1 $-1 $-1 $42 $-1 $18 #
model_id-kcp-attrib $-1 -1 $-1 $20 $8 1 1021561947 1021561948 -1606615034 1 #
shell $-1 -1 $-1 $-1 $-1 $43 $-1 $21 #
model_id-kcp-attrib $-1 -1 $-1 $23 $9 1 1021561947 1021561948 -1597308924 1 #
shell $-1 -1 $-1 $-1 $-1 $44 $-1 $24 #
model_id-kcp-attrib $-1 -1 $-1 $-1 $26 1 1021561947 1021561947 -1608384511 2 #
face $45 -1 $-1 $46 $47 $10 $-1 $48 forward single #
loop $-1 -1 $-1 $49 $50 $26 #
plane-surface $-1 -1 $-1 -147.36273157594638 89.103166219092245 67.754164555872066 0.33682408883346654 -0.17364817766693036 -0.92541657839832292 0.059391174613884615 0.98480775301220813 -0.16317591116653488 forward_v I I I I #
face $-1 -1 $-1 $51 $52 $27 $-1 $53 forward single #
face $-1 -1 $-1 $54 $55 $29 $-1 $56 reversed single #
face $-1 -1 $-1 $57 $58 $31 $-1 $59 reversed single #
face $-1 -1 $-1 $60 $61 $33 $-1 $62 forward single #
face $-1 -1 $-1 $63 $64 $35 $-1 $65 reversed single #
model_id-kcp-attrib $-1 -1 $-1 $-1 $37 1 1021561947 1021561947 -1608384511 3 #
face $66 -1 $-1 $67 $68 $10 $-1 $69 forward single #
loop $-1 -1 $-1 $-1 $70 $37 #
cone-surface $-1 -1 $-1 -147.36273157594641 89.103166219092259 67.754164555872052 0.33682408883346654 -0.17364817766693039 -0.92541657839832292 2.8790465632553186 47.739540347702523 -7.9101154221024368 1 I I 0 1 48.475999708250392 forward I I I I #
loop $-1 -1 $-1 $-1 $71 $26 #
coedge $-1 -1 $-1 $72 $72 $73 $74 reversed $38 $-1 #
face $-1 -1 $-1 $75 $76 $27 $-1 $77 reversed single #
loop $-1 -1 $-1 $-1 $78 $40 #
plane-surface $-1 -1 $-1 0 0 19.758172366988124 0 0 1 1 0 0 forward_v I I I I #
face $-1 -1 $-1 $79 $80 $29 $-1 $81 reversed single #
loop $-1 -1 $-1 $82 $83 $41 #
cone-surface $-1 -1 $-1 -0.50523613325015049 0.26047226650041466 1.3881248675974689 -0.33682408883346654 0.17364817766693036 0.92541657839832292 2.8790465632553079 47.73954034770253 -7.9101154221024395 1 I I 0 1 48.475999708250399 forward I I I I #
face $-1 -1 $-1 $84 $85 $31 $-1 $86 forward single #
loop $-1 -1 $-1 $-1 $87 $42 #
plane-surface $-1 -1 $-1 0.50523613325018601 -0.26047226650039335 -1.3881248675974973 0.33682408883346654 -0.17364817766693036 -0.92541657839832292 0.45823338291311194 0.88883191143433038 0 forward_v I I I I #
face $-1 -1 $-1 $88 $89 $33 $-1 $90 reversed single #
loop $-1 -1 $-1 $91 $92 $43 #
cone-surface $-1 -1 $-1 -147.36273157594638 89.103166219092259 67.754164555872052 0.33682408883346293 -0.17364817766692933 -0.92541657839832436 -2.6584677639614651 -44.081964738078248 7.3040801518322045 1 I I 0 1 44.762000099253676 forward I I I I #
face $-1 -1 $-1 $93 $94 $35 $-1 $95 forward single #
loop $-1 -1 $-1 $-1 $96 $44 #
plane-surface $-1 -1 $-1 -0.50523613325024286 0.26047226650040756 1.3881248675974973 -0.33682408883346654 0.17364817766693036 0.92541657839832292 -0.45823338291311194 -0.88883191143433038 0 forward_v I I I I #
model_id-kcp-attrib $-1 -1 $-1 $-1 $46 1 1021561947 1021561947 -1608384511 4 #
face $97 -1 $-1 $98 $99 $10 $-1 $100 forward single #
loop $-1 -1 $-1 $-1 $101 $46 #
cone-surface $-1 -1 $-1 -147.36273157594641 89.103166219092259 67.754164555872052 0.33682408883346654 -0.17364817766693039 -0.92541657839832292 2.8790465632553186 47.739540347702523 -7.9101154221024368 1 I I 0 1 48.475999708250392 forward I I I I #
coedge $-1 -1 $-1 $102 $73 $103 $104 forward $47 $-1 #
coedge $-1 -1 $-1 $105 $105 $106 $107 reversed $49 $-1 #
coedge $-1 -1 $-1 $50 $50 $108 $109 reversed $38 $-1 #
coedge $-1 -1 $-1 $70 $110 $50 $74 forward $47 $-1 #
edge $111 -1 $-1 $112 0 $113 3.1415926535897949 $50 $114 forward @7 unknown #
face $-1 -1 $-1 $115 $116 $27 $-1 $117 reversed single #
loop $-1 -1 $-1 $-1 $118 $51 #
plane-surface $-1 -1 $-1 0 0 -19.758172366988124 0 0 1 1 0 0 forward_v I I I I #
coedge $-1 -1 $-1 $119 $120 $121 $122 forward $52 $-1 #
face $-1 -1 $-1 $123 $124 $29 $-1 $125 forward single #
loop $-1 -1 $-1 $-1 $126 $54 #
plane-surface $-1 -1 $-1 0 48.00001261420293 0 0 -1 0 0 0 -1 forward_v I I I I #
loop $-1 -1 $-1 $-1 $127 $41 #
coedge $-1 -1 $-1 $128 $129 $130 $131 reversed $55 $-1 #
face $-1 -1 $-1 $132 $133 $31 $-1 $86 forward single #
loop $-1 -1 $-1 $-1 $134 $57 #
cone-surface $-1 -1 $-1 -0.50523613325015049 0.26047226650041466 1.3881248675974689 -0.33682408883346654 0.17364817766693036 0.92541657839832292 2.8790465632553079 47.73954034770253 -7.9101154221024395 1 I I 0 1 48.475999708250399 forward I I I I #
coedge $-1 -1 $-1 $135 $136 $137 $138 forward $58 $-1 #
face $-1 -1 $-1 $-1 $139 $33 $-1 $140 forward single #
loop $-1 -1 $-1 $-1 $141 $60 #
plane-surface $-1 -1 $-1 -146.35225930944597 88.582221686091458 64.977914820677086 -0.33682408883346643 0.17364817766693016 0.92541657839832292 0.93969262078590798 0 0.34202014332567005 forward_v I I I I #
loop $-1 -1 $-1 $-1 $142 $43 #
coedge $-1 -1 $-1 $92 $92 $141 $143 forward $61 $-1 #
face $-1 -1 $-1 $144 $145 $35 $-1 $95 forward single #
loop $-1 -1 $-1 $-1 $146 $63 #
cone-surface $-1 -1 $-1 -0.50523613325015049 0.26047226650041466 1.3881248675974689 -0.33682408883346654 0.17364817766693036 0.92541657839832292 2.8790465632553079 47.73954034770253 -7.9101154221024395 1 I I 0 1 48.475999708250399 forward I I I I #
coedge $-1 -1 $-1 $147 $148 $149 $150 forward $64 $-1 #
model_id-kcp-attrib $-1 -1 $-1 $-1 $67 1 1021561947 1021561947 -1608384511 5 #
face $151 -1 $-1 $152 $153 $10 $-1 $154 reversed single #
loop $-1 -1 $-1 $155 $156 $67 #
plane-surface $-1 -1 $-1 -146.352259309446 88.582221686091458 64.9779148206771 0.33682408883346654 -0.17364817766693036 -0.92541657839832292 0.059391174613884615 0.98480775301220813 -0.16317591116653488 forward_v I I I I #
coedge $-1 -1 $-1 $157 $108 $110 $158 forward $68 $-1 #
coedge $-1 -1 $-1 $110 $70 $156 $159 reversed $47 $-1 #
coedge $-1 -1 $-1 $108 $157 $70 $104 reversed $68 $-1 #
edge $-1 -1 $-1 $113 -3.5778441646726588e-015 $160 2.9999999999999911 $103 $161 forward @7 unknown #
coedge $-1 -1 $-1 $71 $71 $162 $163 reversed $49 $-1 #
coedge $-1 -1 $-1 $164 $165 $71 $107 forward $153 $-1 #
edge $166 -1 $-1 $167 0 $168 3.1415926535897931 $71 $169 forward @7 unknown #
coedge $-1 -1 $-1 $101 $103 $72 $109 forward $68 $-1 #
edge $170 -1 $-1 $113 0 $112 3.1415926535897913 $72 $171 forward @7 unknown #
coedge $-1 -1 $-1 $73 $102 $101 $158 reversed $47 $-1 #
attrib_edge_convexity-kcp-attrib $-1 -1 $172 $-1 $74 1 #
vertex $-1 -1 $-1 $109 $173 #
vertex $-1 -1 $-1 $109 $174 #
ellipse-curve $-1 -1 $-1 -147.36273157594641 89.103166219092259 67.754164555872052 0.33682408883346648 -0.17364817766693022 -0.92541657839832303 -2.8790465632552582 -47.739540347702523 7.9101154221024501 1 I I #
face $-1 -1 $-1 $175 $176 $27 $-1 $177 reversed single #
loop $-1 -1 $-1 $-1 $178 $75 #
plane-surface $-1 -1 $-1 0 -48.00001261420293 0 0 1 0 0 0 1 forward_v I I I I #
coedge $-1 -1 $-1 $179 $180 $181 $182 forward $76 $-1 #
coedge $-1 -1 $-1 $183 $78 $184 $185 forward $52 $-1 #
coedge $-1 -1 $-1 $78 $183 $186 $187 forward $52 $-1 #
coedge $-1 -1 $-1 $188 $189 $78 $122 reversed $190 $-1 #
edge $-1 -1 $-1 $191 -48.00001261420293 $192 48.00001261420293 $121 $193 forward @7 unknown #
face $-1 -1 $-1 $194 $195 $29 $-1 $125 forward single #
loop $-1 -1 $-1 $-1 $130 $79 #
plane-surface $-1 -1 $-1 0 0 19.758172366988124 0 0 1 1 0 0 forward_v I I I I #
coedge $-1 -1 $-1 $196 $197 $128 $198 forward $80 $-1 #
coedge $-1 -1 $-1 $199 $200 $201 $202 reversed $82 $-1 #
coedge $-1 -1 $-1 $203 $83 $126 $198 reversed $55 $-1 #
coedge $-1 -1 $-1 $83 $203 $204 $205 reversed $55 $-1 #
coedge $-1 -1 $-1 $206 $207 $83 $131 forward $124 $-1 #
edge $-1 -1 $-1 $208 1.5180537313957847 $209 5.1231543604324354 $130 $210 forward @7 unknown #
face $-1 -1 $-1 $211 $212 $31 $-1 $86 forward single #
loop $-1 -1 $-1 $-1 $213 $84 #
coedge $-1 -1 $-1 $214 $215 $136 $216 reversed $85 $-1 #
coedge $-1 -1 $-1 $136 $87 $213 $217 forward $58 $-1 #
coedge $-1 -1 $-1 $87 $135 $134 $216 forward $58 $-1 #
coedge $-1 -1 $-1 $218 $219 $87 $138 reversed $212 $-1 #
edge $220 -1 $-1 $221 -3.1415926535897927 $222 -1.5076775141399932 $137 $223 forward @7 unknown #
loop $-1 -1 $-1 $-1 $224 $88 #
plane-surface $-1 -1 $-1 -147.36273157594636 89.103166219092245 67.754164555872052 -0.33682408883346643 0.17364817766693016 0.92541657839832292 0.93969262078590798 0 0.34202014332567005 forward_v I I I I #
coedge $-1 -1 $-1 $141 $141 $92 $143 reversed $89 $-1 #
coedge $-1 -1 $-1 $142 $142 $224 $225 reversed $91 $-1 #
edge $-1 -1 $-1 $226 -3.1415926535897931 $226 3.1415926535897931 $92 $227 forward @7 unknown #
face $-1 -1 $-1 $228 $229 $35 $-1 $95 forward single #
loop $-1 -1 $-1 $-1 $230 $93 #
coedge $-1 -1 $-1 $231 $232 $148 $233 reversed $94 $-1 #
coedge $-1 -1 $-1 $148 $96 $230 $234 forward $64 $-1 #
coedge $-1 -1 $-1 $96 $147 $146 $233 forward $64 $-1 #
coedge $-1 -1 $-1 $235 $236 $96 $150 reversed $229 $-1 #
edge $237 -1 $-1 $238 -1.6339151394497999 $239 -1.2094743062084772e-017 $149 $240 forward @7 unknown #
model_id-kcp-attrib $-1 -1 $-1 $-1 $98 1 1021561947 1021561947 -1608384511 6 #
face $241 -1 $-1 $-1 $242 $10 $-1 $243 reversed single #
loop $-1 -1 $-1 $-1 $164 $98 #
cone-surface $-1 -1 $-1 -147.36273157594638 89.103166219092259 67.754164555872052 0.33682408883346654 -0.17364817766693036 -0.92541657839832292 2.6584677639614953 44.081964738078241 -7.3040801518322418 1 I I 0 1 44.762000099253669 forward I I I I #
loop $-1 -1 $-1 $-1 $244 $67 #
coedge $-1 -1 $-1 $245 $245 $102 $159 forward $99 $-1 #
coedge $-1 -1 $-1 $103 $101 $245 $246 reversed $68 $-1 #
edge $-1 -1 $-1 $112 1.3150960546657937e-014 $247 3.0000000000000053 $101 $248 forward @7 unknown #
edge $249 -1 $-1 $247 0 $160 3.1415926535897949 $156 $250 forward @7 unknown #
vertex $-1 -1 $-1 $246 $251 #
straight-curve $-1 -1 $-1 -144.4836850126911 136.84270656679479 59.844049133769616 0.33682408883346265 -0.17364817766693391 -0.92541657839832359 I I #
coedge $-1 -1 $-1 $252 $253 $105 $163 forward $242 $-1 #
edge $254 -1 $-1 $168 0 $167 3.1415926535897931 $105 $255 forward @7 unknown #
coedge $-1 -1 $-1 $256 $106 $253 $257 forward $153 $-1 #
coedge $-1 -1 $-1 $106 $256 $252 $258 reversed $153 $-1 #
attrib_edge_convexity-kcp-attrib $-1 -1 $259 $-1 $107 1 #
vertex $-1 -1 $-1 $163 $260 #
vertex $-1 -1 $-1 $163 $261 #
ellipse-curve $-1 -1 $-1 -147.36273157594638 89.103166219092259 67.754164555872052 -0.33682408883346648 0.17364817766693047 0.92541657839832281 -2.6584677639614824 -44.081964738078241 7.3040801518322525 1 I I #
attrib_edge_convexity-kcp-attrib $-1 -1 $262 $-1 $109 1 #
ellipse-curve $-1 -1 $-1 -147.36273157594641 89.103166219092259 67.754164555872052 0.3368240888334666 -0.17364817766693022 -0.92541657839832281 2.8790465632553435 47.73954034770253 -7.9101154221024217 1 I I #
convexity-sys-attrib $-1 -1 $-1 $111 $74 #
point $-1 -1 $-1 -150.24177813920167 41.363625871389736 75.664279977974502 #
point $-1 -1 $-1 -144.48368501269107 136.84270656679479 59.84404913376963 #
face $-1 -1 $-1 $263 $264 $27 $-1 $265 reversed single #
loop $-1 -1 $-1 $-1 $266 $115 #
plane-surface $-1 -1 $-1 -46.148666522395999 0 0 1 0 0 0 0 -1 forward_v I I I I #
coedge $-1 -1 $-1 $267 $186 $268 $269 forward $116 $-1 #
coedge $-1 -1 $-1 $270 $118 $267 $271 forward $76 $-1 #
coedge $-1 -1 $-1 $118 $270 $272 $273 forward $76 $-1 #
coedge $-1 -1 $-1 $189 $188 $118 $182 reversed $190 $-1 #
edge $-1 -1 $-1 $274 -48.00001261420293 $275 48.00001261420293 $181 $276 forward @7 unknown #
coedge $-1 -1 $-1 $120 $119 $277 $278 forward $52 $-1 #
coedge $-1 -1 $-1 $279 $280 $119 $185 reversed $264 $-1 #
edge $-1 -1 $-1 $192 -46.148666522395999 $281 46.148666522395999 $184 $282 forward @7 unknown #
coedge $-1 -1 $-1 $178 $283 $120 $187 reversed $116 $-1 #
edge $-1 -1 $-1 $284 -46.148666522395999 $191 46.148666522395999 $186 $285 forward @7 unknown #
coedge $-1 -1 $-1 $181 $121 $283 $286 forward $190 $-1 #
coedge $-1 -1 $-1 $121 $181 $279 $287 reversed $190 $-1 #
loop $-1 -1 $-1 $-1 $188 $263 #
vertex $-1 -1 $-1 $122 $288 #
vertex $-1 -1 $-1 $122 $289 #
straight-curve $-1 -1 $-1 46.148666522395999 0 19.758172366988124 0 1 0 I I #
face $-1 -1 $-1 $290 $291 $29 $-1 $292 reversed single #
loop $-1 -1 $-1 $-1 $293 $123 #
coedge $-1 -1 $-1 $294 $126 $207 $295 reversed $80 $-1 #
coedge $-1 -1 $-1 $126 $296 $297 $298 reversed $80 $-1 #
edge $-1 -1 $-1 $299 -0.51865085949773848 $208 0.39241323418793173 $126 $300 forward @7 unknown #
coedge $-1 -1 $-1 $301 $127 $302 $303 reversed $82 $-1 #
coedge $-1 -1 $-1 $127 $301 $304 $305 reversed $82 $-1 #
coedge $-1 -1 $-1 $306 $307 $127 $202 forward $308 $-1 #
edge $-1 -1 $-1 $309 2.5346030158796768 $310 2.8718733660167262 $201 $311 forward @7 unknown #
coedge $-1 -1 $-1 $129 $128 $293 $312 reversed $55 $-1 #
coedge $-1 -1 $-1 $313 $314 $129 $205 forward $315 $-1 #
edge $-1 -1 $-1 $209 2.4898363490845892 $316 3.9195865834048047 $204 $317 forward @7 unknown #
coedge $-1 -1 $-1 $318 $130 $314 $319 forward $124 $-1 #
coedge $-1 -1 $-1 $130 $320 $196 $295 forward $124 $-1 #
vertex $-1 -1 $-1 $131 $321 #
vertex $-1 -1 $-1 $319 $322 #
ellipse-curve $-1 -1 $-1 -7.1913866250846619 3.7074877472962564 19.758172366988124 0 0 -1 -46.5595889301526 24.003591306795716 0 0.92541657839832281 I I #
face $-1 -1 $-1 $323 $324 $31 $-1 $325 reversed single #
loop $-1 -1 $-1 $-1 $137 $132 #
coedge $-1 -1 $-1 $326 $327 $135 $217 reversed $133 $-1 #
coedge $-1 -1 $-1 $215 $134 $328 $329 reversed $85 $-1 #
coedge $-1 -1 $-1 $134 $214 $330 $331 reversed $85 $-1 #
edge $332 -1 $-1 $333 1.1256404972078531 $221 3.1415926535897936 $134 $223 forward @7 unknown #
edge $334 -1 $-1 $222 -1.5076775141399932 $333 1.1256404972078531 $213 $223 forward @7 unknown #
coedge $-1 -1 $-1 $335 $137 $336 $337 reversed $212 $-1 #
coedge $-1 -1 $-1 $137 $335 $338 $339 reversed $212 $-1 #
convexity-sys-attrib $-1 -1 $-1 $-1 $138 #
vertex $-1 -1 $-1 $331 $340 #
vertex $-1 -1 $-1 $339 $341 #
ellipse-curve $-1 -1 $-1 0.50523613325024219 -0.26047226650037292 -1.3881248675974809 -0.33682408883346654 0.17364817766693036 0.92541657839832292 2.8790465632553079 47.73954034770253 -7.9101154221024395 1 I I #
coedge $-1 -1 $-1 $224 $224 $142 $225 forward $139 $-1 #
edge $-1 -1 $-1 $342 -3.1415926535897931 $342 3.1415926535897931 $142 $343 forward @7 unknown #
vertex $-1 -1 $-1 $143 $344 #
ellipse-curve $-1 -1 $-1 -146.352259309446 88.582221686091472 64.977914820677086 -0.33682408883346648 0.17364817766692991 0.92541657839832303 2.6584677639614824 44.081964738078227 -7.304080151832224 1 I I #
face $-1 -1 $-1 $345 $346 $35 $-1 $347 reversed single #
loop $-1 -1 $-1 $-1 $149 $144 #
coedge $-1 -1 $-1 $348 $349 $147 $234 reversed $145 $-1 #
coedge $-1 -1 $-1 $232 $146 $350 $351 reversed $94 $-1 #
coedge $-1 -1 $-1 $146 $231 $352 $353 reversed $94 $-1 #
edge $354 -1 $-1 $355 2.0159521563819407 $238 4.6492701677297861 $146 $240 forward @7 unknown #
edge $356 -1 $-1 $239 -1.2094743062084772e-017 $355 2.0159521563819407 $230 $240 forward @7 unknown #
coedge $-1 -1 $-1 $357 $149 $358 $359 reversed $229 $-1 #
coedge $-1 -1 $-1 $149 $357 $360 $361 reversed $229 $-1 #
convexity-sys-attrib $-1 -1 $-1 $-1 $150 #
vertex $-1 -1 $-1 $353 $362 #
vertex $-1 -1 $-1 $361 $363 #
ellipse-curve $-1 -1 $-1 -0.50523613325016936 0.26047226650042443 1.3881248675975209 0.33682408883346654 -0.17364817766693036 -0.92541657839832292 2.8790465632553079 47.73954034770253 -7.9101154221024395 1 I I #
model_id-kcp-attrib $-1 -1 $-1 $-1 $152 1 1021561947 1021561947 -1608384511 7 #
loop $-1 -1 $-1 $-1 $252 $152 #
cone-surface $-1 -1 $-1 -147.36273157594638 89.103166219092259 67.754164555872052 0.33682408883346654 -0.17364817766693036 -0.92541657839832292 2.6584677639614953 44.081964738078241 -7.3040801518322418 1 I I 0 1 44.762000099253669 forward I I I I #
coedge $-1 -1 $-1 $364 $364 $256 $365 forward $155 $-1 #
coedge $-1 -1 $-1 $156 $156 $157 $246 forward $99 $-1 #
edge $366 -1 $-1 $160 0 $247 3.1415926535897913 $245 $367 forward @7 unknown #
vertex $-1 -1 $-1 $246 $368 #
straight-curve $-1 -1 $-1 -150.24177813920167 41.363625871389736 75.664279977974516 0.33682408883346132 -0.17364817766693089 -0.9254165783983247 I I #
attrib_edge_convexity-kcp-attrib $-1 -1 $369 $-1 $159 1 #
ellipse-curve $-1 -1 $-1 -146.35225930944603 88.582221686091458 64.977914820677086 0.33682408883346643 -0.17364817766693022 -0.92541657839832303 -2.8790465632552582 -47.739540347702508 7.9101154221024501 1 I I #
point $-1 -1 $-1 -143.47321274619068 136.32176203379399 57.067799398574664 #
coedge $-1 -1 $-1 $370 $162 $165 $258 forward $242 $-1 #
coedge $-1 -1 $-1 $162 $370 $164 $257 reversed $242 $-1 #
attrib_edge_convexity-kcp-attrib $-1 -1 $371 $-1 $163 1 #
ellipse-curve $-1 -1 $-1 -147.36273157594638 89.103166219092259 67.754164555872052 -0.33682408883346648 0.17364817766692991 0.92541657839832303 2.6584677639614824 44.081964738078227 -7.304080151832224 1 I I #
coedge $-1 -1 $-1 $165 $164 $244 $365 reversed $153 $-1 #
edge $-1 -1 $-1 $168 -1.3150960546657876e-014 $372 2.9999999999999769 $253 $373 forward @7 unknown #
edge $-1 -1 $-1 $167 -9.5731163819849881e-015 $374 2.999999999999984 $252 $375 forward @7 unknown #
convexity-sys-attrib $-1 -1 $-1 $166 $107 #
point $-1 -1 $-1 -150.02119933990787 45.021201481014018 75.058244707704304 #
point $-1 -1 $-1 -144.7042638119849 133.18513095717049 60.450084404039828 #
convexity-sys-attrib $-1 -1 $-1 $170 $109 #
face $-1 -1 $-1 $-1 $190 $27 $-1 $376 reversed single #
loop $-1 -1 $-1 $-1 $279 $175 #
plane-surface $-1 -1 $-1 0 48.00001261420293 0 0 -1 0 0 0 -1 forward_v I I I I #
coedge $-1 -1 $-1 $377 $277 $280 $378 forward $176 $-1 #
coedge $-1 -1 $-1 $283 $178 $179 $271 reversed $116 $-1 #
coedge $-1 -1 $-1 $277 $377 $178 $269 reversed $176 $-1 #
edge $-1 -1 $-1 $284 -19.758172366988124 $379 19.758172366988124 $268 $380 forward @7 unknown #
coedge $-1 -1 $-1 $180 $179 $377 $381 forward $76 $-1 #
edge $-1 -1 $-1 $275 -46.148666522395999 $379 46.148666522395999 $267 $382 forward @7 unknown #
coedge $-1 -1 $-1 $280 $279 $180 $273 reversed $264 $-1 #
edge $-1 -1 $-1 $383 -46.148666522395999 $274 46.148666522395999 $272 $384 forward @7 unknown #
vertex $-1 -1 $-1 $182 $385 #
vertex $-1 -1 $-1 $286 $386 #
straight-curve $-1 -1 $-1 46.148666522395999 0 -19.758172366988124 0 -1 0 I I #
coedge $-1 -1 $-1 $266 $268 $183 $278 reversed $176 $-1 #
edge $-1 -1 $-1 $281 -48.00001261420293 $284 48.00001261420293 $277 $387 forward @7 unknown #
coedge $-1 -1 $-1 $272 $184 $189 $287 forward $264 $-1 #
coedge $-1 -1 $-1 $184 $272 $266 $378 reversed $264 $-1 #
vertex $-1 -1 $-1 $185 $388 #
straight-curve $-1 -1 $-1 0 48.00001261420293 19.758172366988124 -1 0 0 I I #
coedge $-1 -1 $-1 $186 $267 $188 $286 reversed $116 $-1 #
vertex $-1 -1 $-1 $278 $389 #
straight-curve $-1 -1 $-1 0 -48.00001261420293 19.758172366988124 1 0 0 I I #
edge $-1 -1 $-1 $191 -19.758172366988124 $275 19.758172366988124 $188 $390 forward @7 unknown #
edge $-1 -1 $-1 $192 -19.758172366988124 $274 19.758172366988124 $189 $391 forward @7 unknown #
point $-1 -1 $-1 46.148666522395999 -48.00001261420293 19.758172366988124 #
point $-1 -1 $-1 46.148666522395999 48.00001261420293 19.758172366988124 #
face $-1 -1 $-1 $392 $308 $29 $-1 $393 reversed single #
loop $-1 -1 $-1 $-1 $302 $194 #
plane-surface $-1 -1 $-1 0 -48.00001261420293 0 0 1 0 0 0 1 forward_v I I I I #
coedge $-1 -1 $-1 $297 $394 $203 $312 forward $195 $-1 #
coedge $-1 -1 $-1 $395 $196 $396 $397 forward $80 $-1 #
edge $-1 -1 $-1 $398 -46.148666522395999 $208 -12.536510376419816 $196 $399 forward @7 unknown #
coedge $-1 -1 $-1 $197 $395 $400 $401 reversed $80 $-1 #
coedge $-1 -1 $-1 $394 $293 $197 $298 forward $195 $-1 #
edge $-1 -1 $-1 $299 32.763560755536751 $402 46.148666522395999 $197 $399 forward @7 unknown #
vertex $-1 -1 $-1 $298 $403 #
ellipse-curve $-1 -1 $-1 -93.105270265400236 48.00001261420293 255.80462768640598 0 -1 0 95.479080695405401 0 -262.32661824091099 0.17364817766693039 I I #
coedge $-1 -1 $-1 $200 $199 $404 $405 reversed $82 $-1 #
coedge $-1 -1 $-1 $406 $407 $199 $303 forward $291 $-1 #
edge $-1 -1 $-1 $408 2.7491794194018637 $309 3.6602435130875293 $302 $409 forward @7 unknown #
coedge $-1 -1 $-1 $410 $411 $200 $305 forward $412 $-1 #
edge $-1 -1 $-1 $310 -0.77799392981501403 $413 0.65175630450520627 $304 $414 forward @7 unknown #
coedge $-1 -1 $-1 $307 $201 $411 $415 forward $308 $-1 #
coedge $-1 -1 $-1 $201 $306 $406 $416 forward $308 $-1 #
loop $-1 -1 $-1 $-1 $201 $290 #
vertex $-1 -1 $-1 $202 $417 #
vertex $-1 -1 $-1 $415 $418 #
ellipse-curve $-1 -1 $-1 7.1913866250847498 -3.7074877472962129 -19.758172366988124 0 0 1 -46.5595889301526 24.003591306795716 0 0.92541657839832281 I I #
edge $-1 -1 $-1 $316 0.26971928757306457 $299 0.60698963771011449 $293 $210 forward @7 unknown #
coedge $-1 -1 $-1 $400 $204 $394 $419 reversed $315 $-1 #
coedge $-1 -1 $-1 $204 $420 $206 $319 reversed $315 $-1 #
loop $-1 -1 $-1 $-1 $204 $421 #
vertex $-1 -1 $-1 $205 $422 #
ellipse-curve $-1 -1 $-1 -46.148666522395999 23.791742066687746 126.79241920822402 1 0 0 -7.0912780998039869e-015 26.54253250322305 141.45210126116237 0.33682408883346643 I I #
coedge $-1 -1 $-1 $320 $206 $423 $424 forward $124 $-1 #
edge $-1 -1 $-1 $209 26.210452633233789 $425 48.00001261420293 $314 $426 forward @7 unknown #
coedge $-1 -1 $-1 $207 $318 $427 $428 forward $124 $-1 #
point $-1 -1 $-1 12.536510376419816 48.00001261420293 19.758172366988124 #
point $-1 -1 $-1 -46.148666522395999 -26.210452633233789 19.758172366988131 #
face $-1 -1 $-1 $429 $430 $31 $-1 $431 reversed single #
loop $-1 -1 $-1 $-1 $432 $211 #
plane-surface $-1 -1 $-1 46.148666522395999 0 0 -1 0 0 0 0 1 forward_v I I I I #
coedge $-1 -1 $-1 $327 $213 $432 $433 reversed $133 $-1 #
coedge $-1 -1 $-1 $213 $326 $434 $435 reversed $133 $-1 #
coedge $-1 -1 $-1 $434 $436 $214 $329 forward $437 $-1 #
edge $-1 -1 $-1 $438 -1.6235389221940104 $333 -1.7908281185794153e-016 $328 $439 forward @7 unknown #
coedge $-1 -1 $-1 $440 $336 $215 $331 forward $430 $-1 #
edge $-1 -1 $-1 $221 -3.1415926535897931 $438 -2.7491794194018637 $330 $441 forward @7 unknown #
convexity-sys-attrib $-1 -1 $-1 $-1 $216 #
vertex $-1 -1 $-1 $435 $442 #
convexity-sys-attrib $-1 -1 $-1 $-1 $217 #
coedge $-1 -1 $-1 $219 $218 $443 $444 reversed $212 $-1 #
coedge $-1 -1 $-1 $330 $440 $218 $337 forward $430 $-1 #
edge $-1 -1 $-1 $445 2.622941794092057 $221 3.1415926535897931 $336 $441 forward @7 unknown #
coedge $-1 -1 $-1 $446 $432 $219 $339 forward $324 $-1 #
edge $-1 -1 $-1 $222 6.5180812984985554e-017 $447 0.77799392981501403 $338 $448 forward @7 unknown #
point $-1 -1 $-1 -2.3738104300051077 -48.000012614202937 6.5219905545051233 #
point $-1 -1 $-1 46.148666522395992 2.750790436535361 14.659682052938422 #
vertex $-1 -1 $-1 $225 $449 #
ellipse-curve $-1 -1 $-1 -147.36273157594638 89.103166219092259 67.754164555872052 -0.33682408883346648 0.17364817766693047 0.92541657839832281 -2.6584677639614824 -44.081964738078241 7.3040801518322525 1 I I #
point $-1 -1 $-1 -149.01072707340748 44.500256948013231 72.281994972509338 #
face $-1 -1 $-1 $450 $451 $35 $-1 $452 forward single #
loop $-1 -1 $-1 $-1 $358 $228 #
plane-surface $-1 -1 $-1 -46.148666522395999 0 0 1 0 0 0 0 -1 forward_v I I I I #
coedge $-1 -1 $-1 $349 $230 $453 $454 reversed $145 $-1 #
coedge $-1 -1 $-1 $230 $348 $455 $456 reversed $145 $-1 #
coedge $-1 -1 $-1 $455 $457 $231 $351 forward $451 $-1 #
edge $-1 -1 $-1 $458 1.1600309467471508 $355 3.1415926535897931 $350 $459 forward @7 unknown #
coedge $-1 -1 $-1 $460 $358 $232 $353 forward $346 $-1 #
edge $-1 -1 $-1 $238 -3.1415926535897931 $458 -2.4898363490845892 $352 $461 forward @7 unknown #
convexity-sys-attrib $-1 -1 $-1 $-1 $233 #
vertex $-1 -1 $-1 $456 $462 #
convexity-sys-attrib $-1 -1 $-1 $-1 $234 #
coedge $-1 -1 $-1 $236 $235 $463 $464 reversed $229 $-1 #
coedge $-1 -1 $-1 $352 $460 $235 $359 forward $346 $-1 #
edge $-1 -1 $-1 $465 2.3635987237747815 $238 3.1415926535897931 $358 $461 forward @7 unknown #
coedge $-1 -1 $-1 $466 $453 $236 $361 forward $467 $-1 #
edge $-1 -1 $-1 $239 -2.6882945178633847e-016 $468 0.51865085949773848 $360 $469 forward @7 unknown #
point $-1 -1 $-1 -46.148666522395992 -2.7507904365353113 -14.659682052938379 #
point $-1 -1 $-1 2.3738104300051504 48.00001261420293 -6.5219905545049528 #
coedge $-1 -1 $-1 $244 $244 $370 $470 forward $155 $-1 #
edge $471 -1 $-1 $374 0 $372 3.1415926535897931 $244 $472 forward @7 unknown #
attrib_edge_convexity-kcp-attrib $-1 -1 $473 $-1 $246 1 #
ellipse-curve $-1 -1 $-1 -146.35225930944603 88.582221686091458 64.977914820677086 0.3368240888334666 -0.17364817766693022 -0.92541657839832281 2.8790465632553435 47.73954034770253 -7.9101154221024217 1 I I #
point $-1 -1 $-1 -149.23130587270128 40.84268133838895 72.888030242779536 #
convexity-sys-attrib $-1 -1 $-1 $249 $159 #
coedge $-1 -1 $-1 $253 $252 $364 $470 reversed $242 $-1 #
convexity-sys-attrib $-1 -1 $-1 $254 $163 #
vertex $-1 -1 $-1 $470 $474 #
straight-curve $-1 -1 $-1 -144.7042638119849 133.18513095717049 60.450084404039814 0.33682408883347181 -0.17364817766693377 -0.92541657839832037 I I #
vertex $-1 -1 $-1 $470 $475 #
straight-curve $-1 -1 $-1 -150.02119933990784 45.021201481014018 75.058244707704304 0.33682408883345288 -0.17364817766693141 -0.92541657839832758 I I #
plane-surface $-1 -1 $-1 46.148666522395999 0 0 -1 0 0 0 0 1 forward_v I I I I #
coedge $-1 -1 $-1 $268 $266 $270 $381 reversed $176 $-1 #
edge $-1 -1 $-1 $281 -19.758172366988124 $383 19.758172366988124 $280 $476 forward @7 unknown #
vertex $-1 -1 $-1 $381 $477 #
straight-curve $-1 -1 $-1 -46.148666522395999 -48.00001261420293 0 0 0 -1 I I #
edge $-1 -1 $-1 $379 -48.00001261420293 $383 48.00001261420293 $377 $478 forward @7 unknown #
straight-curve $-1 -1 $-1 0 -48.00001261420293 -19.758172366988124 -1 0 0 I I #
vertex $-1 -1 $-1 $273 $479 #
straight-curve $-1 -1 $-1 0 48.00001261420293 -19.758172366988124 1 0 0 I I #
point $-1 -1 $-1 46.148666522395999 48.00001261420293 -19.758172366988124 #
point $-1 -1 $-1 46.148666522395999 -48.00001261420293 -19.758172366988124 #
straight-curve $-1 -1 $-1 -46.148666522395999 0 19.758172366988124 0 -1 0 I I #
point $-1 -1 $-1 -46.148666522395999 48.00001261420293 19.758172366988124 #
point $-1 -1 $-1 -46.148666522395999 -48.00001261420293 19.758172366988124 #
straight-curve $-1 -1 $-1 46.148666522395999 -48.00001261420293 0 0 0 -1 I I #
straight-curve $-1 -1 $-1 46.148666522395999 48.00001261420293 0 0 0 -1 I I #
face $-1 -1 $-1 $421 $480 $29 $-1 $393 reversed single #
plane-surface $-1 -1 $-1 0 0 -19.758172366988124 0 0 1 1 0 0 forward_v I I I I #
coedge $-1 -1 $-1 $293 $297 $313 $419 forward $195 $-1 #
coedge $-1 -1 $-1 $296 $294 $481 $482 reversed $80 $-1 #
coedge $-1 -1 $-1 $427 $410 $294 $397 reversed $412 $-1 #
edge $-1 -1 $-1 $398 -19.758172366988124 $483 19.758172366988124 $396 $484 forward @7 unknown #
vertex $-1 -1 $-1 $428 $485 #
straight-curve $-1 -1 $-1 0 48.00001261420293 19.758172366988124 -1 0 0 I I #
coedge $-1 -1 $-1 $486 $313 $296 $401 forward $315 $-1 #
edge $-1 -1 $-1 $402 -19.758172366988124 $487 19.758172366988124 $296 $488 forward @7 unknown #
vertex $-1 -1 $-1 $298 $489 #
point $-1 -1 $-1 -32.763560755536751 48.000012614202937 19.75817236698812 #
coedge $-1 -1 $-1 $490 $491 $301 $405 forward $480 $-1 #
edge $-1 -1 $-1 $413 -1.9815617068426399 $408 1.6235389221940104 $404 $311 forward @7 unknown #
coedge $-1 -1 $-1 $492 $302 $307 $416 reversed $291 $-1 #
coedge $-1 -1 $-1 $302 $493 $490 $494 reversed $291 $-1 #
vertex $-1 -1 $-1 $494 $495 #
ellipse-curve $-1 -1 $-1 93.105270265400407 -48.000012614202937 -255.80462768640621 0 1 0 95.479080695405401 0 -262.32661824091099 0.17364817766693039 I I #
coedge $-1 -1 $-1 $396 $304 $491 $496 reversed $412 $-1 #
coedge $-1 -1 $-1 $304 $497 $306 $415 reversed $412 $-1 #
loop $-1 -1 $-1 $-1 $304 $498 #
vertex $-1 -1 $-1 $305 $499 #
ellipse-curve $-1 -1 $-1 46.148666522395999 -23.791742066687661 -126.79241920822381 -1 0 0 -7.0912780998039869e-015 26.54253250322305 141.45210126116237 0.33682408883346643 I I #
edge $-1 -1 $-1 $310 38.324251031659685 $500 48.00001261420293 $411 $501 forward @7 unknown #
edge $-1 -1 $-1 $500 -46.148666522395999 $309 -32.763560755536751 $406 $502 forward @7 unknown #
point $-1 -1 $-1 32.763560755536751 -48.00001261420293 -19.758172366988124 #
point $-1 -1 $-1 46.148666522396006 -38.324251031659685 -19.758172366988134 #
edge $-1 -1 $-1 $402 -48.00001261420293 $316 -38.324251031659649 $313 $426 forward @7 unknown #
coedge $-1 -1 $-1 $314 $486 $493 $503 reversed $315 $-1 #
face $-1 -1 $-1 $498 $315 $29 $-1 $504 reversed single #
point $-1 -1 $-1 -46.148666522395999 38.324251031659649 19.758172366988134 #
coedge $-1 -1 $-1 $493 $492 $318 $424 reversed $291 $-1 #
edge $-1 -1 $-1 $425 -46.148666522395999 $505 46.148666522395999 $423 $506 forward @7 unknown #
vertex $-1 -1 $-1 $319 $507 #
straight-curve $-1 -1 $-1 -46.148666522395999 0 19.758172366988124 0 -1 0 I I #
coedge $-1 -1 $-1 $497 $396 $320 $428 reversed $412 $-1 #
edge $-1 -1 $-1 $505 -48.00001261420293 $398 48.00001261420293 $427 $508 forward @7 unknown #
face $-1 -1 $-1 $-1 $437 $31 $-1 $509 reversed single #
loop $-1 -1 $-1 $-1 $336 $323 #
plane-surface $-1 -1 $-1 0 -48.00001261420293 0 0 1 0 0 0 1 forward_v I I I I #
coedge $-1 -1 $-1 $338 $446 $326 $433 forward $324 $-1 #
edge $-1 -1 $-1 $510 -0.65175630450520627 $222 6.5180812984985554e-017 $432 $448 forward @7 unknown #
coedge $-1 -1 $-1 $511 $328 $327 $435 forward $437 $-1 #
edge $-1 -1 $-1 $333 -1.7908281185794153e-016 $510 1.9815617068426399 $434 $439 forward @7 unknown #
coedge $-1 -1 $-1 $328 $443 $440 $512 forward $437 $-1 #
loop $-1 -1 $-1 $-1 $328 $429 #
vertex $-1 -1 $-1 $331 $513 #
ellipse-curve $-1 -1 $-1 7.1913866250847498 -3.7074877472962129 -19.758172366988124 0 0 -1 -46.5595889301526 24.003591306795716 0 0.92541657839832281 I I #
coedge $-1 -1 $-1 $336 $330 $436 $512 reversed $430 $-1 #
ellipse-curve $-1 -1 $-1 93.105270265400407 -48.000012614202937 -255.80462768640621 0 -1 0 95.479080695405401 0 -262.32661824091099 0.17364817766693039 I I #
point $-1 -1 $-1 -39.368202305067825 20.296103559499482 -19.758172366988124 #
coedge $-1 -1 $-1 $436 $511 $335 $444 forward $437 $-1 #
edge $-1 -1 $-1 $447 -2.8718733660167262 $445 -2.5346030158796768 $443 $439 forward @7 unknown #
vertex $-1 -1 $-1 $512 $514 #
coedge $-1 -1 $-1 $432 $338 $511 $515 reversed $324 $-1 #
vertex $-1 -1 $-1 $444 $516 #
ellipse-curve $-1 -1 $-1 46.148666522395999 -23.791742066687661 -126.79241920822381 1 0 0 -7.0912780998039869e-015 26.54253250322305 141.45210126116237 0.33682408883346643 I I #
point $-1 -1 $-1 -144.7042638119849 133.18513095717049 60.450084404039828 #
face $-1 -1 $-1 $-1 $467 $35 $-1 $517 reversed single #
loop $-1 -1 $-1 $-1 $463 $345 #
plane-surface $-1 -1 $-1 0 0 19.758172366988124 0 0 1 1 0 0 forward_v I I I I #
coedge $-1 -1 $-1 $360 $466 $348 $454 forward $467 $-1 #
edge $-1 -1 $-1 $518 -0.39241323418793173 $239 -2.6882945178633847e-016 $453 $469 forward @7 unknown #
coedge $-1 -1 $-1 $519 $350 $349 $456 forward $451 $-1 #
edge $-1 -1 $-1 $355 -3.1415926535897931 $518 -1.5180537313957847 $455 $459 forward @7 unknown #
coedge $-1 -1 $-1 $350 $463 $460 $520 forward $451 $-1 #
vertex $-1 -1 $-1 $353 $521 #
ellipse-curve $-1 -1 $-1 -7.1913866250846619 3.7074877472962564 19.758172366988124 0 0 1 -46.5595889301526 24.003591306795716 0 0.92541657839832281 I I #
coedge $-1 -1 $-1 $358 $352 $457 $520 reversed $346 $-1 #
ellipse-curve $-1 -1 $-1 -46.148666522395999 23.791742066687746 126.79241920822402 -1 0 0 -7.0912780998039869e-015 26.54253250322305 141.45210126116237 0.33682408883346643 I I #
point $-1 -1 $-1 39.368202305067804 -20.296103559499397 19.758172366988124 #
coedge $-1 -1 $-1 $457 $519 $357 $464 forward $451 $-1 #
edge $-1 -1 $-1 $468 -0.60698963771011449 $465 -0.26971928757306457 $463 $459 forward @7 unknown #
vertex $-1 -1 $-1 $520 $522 #
coedge $-1 -1 $-1 $453 $360 $519 $523 reversed $467 $-1 #
loop $-1 -1 $-1 $-1 $453 $450 #
vertex $-1 -1 $-1 $361 $524 #
ellipse-curve $-1 -1 $-1 -93.105270265400236 48.00001261420293 255.80462768640598 0 1 0 95.479080695405401 0 -262.32661824091099 0.17364817766693039 I I #
edge $525 -1 $-1 $372 7.0925308212623783e-018 $374 3.1415926535897944 $364 $526 forward @7 unknown #
attrib_edge_convexity-kcp-attrib $-1 -1 $527 $-1 $365 1 #
ellipse-curve $-1 -1 $-1 -146.352259309446 88.582221686091472 64.9779148206771 -0.33682408883346654 0.17364817766693022 0.92541657839832292 -2.6584677639614824 -44.081964738078241 7.3040801518322382 1 I I #
convexity-sys-attrib $-1 -1 $-1 $366 $246 #
point $-1 -1 $-1 -143.69379154548452 132.66418642416971 57.673834668844862 #
point $-1 -1 $-1 -149.01072707340748 44.500256948013231 72.281994972509338 #
straight-curve $-1 -1 $-1 -46.148666522395999 48.00001261420293 0 0 0 -1 I I #
point $-1 -1 $-1 -46.148666522395999 -48.00001261420293 -19.758172366988124 #
straight-curve $-1 -1 $-1 -46.148666522395999 0 -19.758172366988124 0 1 0 I I #
point $-1 -1 $-1 -46.148666522395999 48.00001261420293 -19.758172366988124 #
loop $-1 -1 $-1 $-1 $404 $392 #
coedge $-1 -1 $-1 $491 $528 $395 $482 forward $480 $-1 #
edge $-1 -1 $-1 $487 -46.148666522395999 $483 46.148666522395999 $395 $529 forward @7 unknown #
vertex $-1 -1 $-1 $496 $530 #
straight-curve $-1 -1 $-1 46.148666522395999 48.00001261420293 0 0 0 -1 I I #
point $-1 -1 $-1 46.148666522395999 48.00001261420293 19.758172366988124 #
coedge $-1 -1 $-1 $420 $400 $528 $531 reversed $315 $-1 #
vertex $-1 -1 $-1 $482 $532 #
straight-curve $-1 -1 $-1 -46.148666522395999 48.00001261420293 0 0 0 -1 I I #
point $-1 -1 $-1 -46.148666522395999 48.00001261420293 19.758172366988124 #
coedge $-1 -1 $-1 $528 $404 $407 $494 forward $480 $-1 #
coedge $-1 -1 $-1 $404 $481 $410 $496 forward $480 $-1 #
coedge $-1 -1 $-1 $423 $406 $497 $533 reversed $291 $-1 #
coedge $-1 -1 $-1 $407 $423 $420 $503 forward $291 $-1 #
edge $-1 -1 $-1 $408 12.536510376419635 $534 46.148666522395999 $407 $502 forward @7 unknown #
point $-1 -1 $-1 -12.536510376419635 -48.000012614202937 -19.75817236698812 #
edge $-1 -1 $-1 $483 -48.00001261420293 $413 -26.210452633233928 $410 $501 forward @7 unknown #
coedge $-1 -1 $-1 $411 $427 $492 $533 forward $412 $-1 #
face $-1 -1 $-1 $-1 $412 $29 $-1 $535 reversed single #
point $-1 -1 $-1 46.148666522395999 26.210452633233928 -19.758172366988127 #
vertex $-1 -1 $-1 $533 $536 #
straight-curve $-1 -1 $-1 46.148666522395999 0 -19.758172366988124 0 -1 0 I I #
straight-curve $-1 -1 $-1 0 -48.00001261420293 -19.758172366988124 -1 0 0 I I #
edge $-1 -1 $-1 $425 -19.758172366988124 $534 19.758172366988124 $420 $537 forward @7 unknown #
plane-surface $-1 -1 $-1 -46.148666522395999 0 0 1 0 0 0 0 -1 forward_v I I I I #
vertex $-1 -1 $-1 $428 $538 #
straight-curve $-1 -1 $-1 0 -48.00001261420293 19.758172366988124 1 0 0 I I #
point $-1 -1 $-1 -46.148666522395999 -48.00001261420293 19.758172366988124 #
straight-curve $-1 -1 $-1 46.148666522395999 0 19.758172366988124 0 1 0 I I #
plane-surface $-1 -1 $-1 0 0 -19.758172366988124 0 0 1 1 0 0 forward_v I I I I #
vertex $-1 -1 $-1 $515 $539 #
coedge $-1 -1 $-1 $443 $434 $446 $515 forward $437 $-1 #
edge $-1 -1 $-1 $445 -32.763560755536751 $438 12.536510376419635 $440 $540 forward @7 unknown #
point $-1 -1 $-1 -12.536510376419635 -48.000012614202937 -19.75817236698812 #
point $-1 -1 $-1 32.763560755536751 -48.00001261420293 -19.758172366988124 #
edge $-1 -1 $-1 $510 -26.210452633233928 $447 38.324251031659685 $446 $541 forward @7 unknown #
point $-1 -1 $-1 46.148666522396006 -38.324251031659685 -19.758172366988134 #
plane-surface $-1 -1 $-1 0 48.00001261420293 0 0 -1 0 0 0 -1 forward_v I I I I #
vertex $-1 -1 $-1 $523 $542 #
coedge $-1 -1 $-1 $463 $455 $466 $523 forward $451 $-1 #
edge $-1 -1 $-1 $465 -38.324251031659649 $458 26.210452633233789 $460 $543 forward @7 unknown #
point $-1 -1 $-1 -46.148666522395999 -26.210452633233789 19.758172366988131 #
point $-1 -1 $-1 -46.148666522395999 38.324251031659649 19.758172366988134 #
edge $-1 -1 $-1 $518 -12.536510376419816 $468 32.763560755536751 $466 $544 forward @7 unknown #
point $-1 -1 $-1 -32.763560755536751 48.000012614202937 19.75817236698812 #
attrib_edge_convexity-kcp-attrib $-1 -1 $545 $-1 $470 1 #
ellipse-curve $-1 -1 $-1 -146.35225930944603 88.582221686091472 64.977914820677086 -0.3368240888334666 0.17364817766693011 0.92541657839832292 2.6584677639615109 44.081964738078241 -7.304080151832224 1 I I #
convexity-sys-attrib $-1 -1 $-1 $471 $365 #
coedge $-1 -1 $-1 $481 $490 $486 $531 forward $480 $-1 #
straight-curve $-1 -1 $-1 0 48.00001261420293 -19.758172366988124 1 0 0 I I #
point $-1 -1 $-1 46.148666522395999 48.00001261420293 -19.758172366988124 #
edge $-1 -1 $-1 $534 -48.00001261420293 $487 48.00001261420293 $486 $546 forward @7 unknown #
point $-1 -1 $-1 -46.148666522395999 48.00001261420293 -19.758172366988124 #
edge $-1 -1 $-1 $505 -19.758172366988124 $500 19.758172366988124 $497 $547 forward @7 unknown #
vertex $-1 -1 $-1 $531 $548 #
plane-surface $-1 -1 $-1 46.148666522395999 0 0 -1 0 0 0 0 1 forward_v I I I I #
point $-1 -1 $-1 46.148666522395999 -48.00001261420293 -19.758172366988124 #
straight-curve $-1 -1 $-1 -46.148666522395999 -48.00001261420293 0 0 0 -1 I I #
point $-1 -1 $-1 46.148666522395999 -48.00001261420293 19.758172366988124 #
point $-1 -1 $-1 46.148666522395999 26.210452633233928 -19.758172366988127 #
straight-curve $-1 -1 $-1 0 -48.00001261420293 -19.758172366988124 -1 0 0 I I #
straight-curve $-1 -1 $-1 46.148666522395999 0 -19.758172366988124 0 -1 0 I I #
point $-1 -1 $-1 12.536510376419816 48.00001261420293 19.758172366988124 #
straight-curve $-1 -1 $-1 -46.148666522395999 0 19.758172366988124 0 -1 0 I I #
straight-curve $-1 -1 $-1 0 48.00001261420293 19.758172366988124 -1 0 0 I I #
convexity-sys-attrib $-1 -1 $-1 $525 $470 #
straight-curve $-1 -1 $-1 -46.148666522395999 0 -19.758172366988124 0 1 0 I I #
straight-curve $-1 -1 $-1 46.148666522395999 -48.00001261420293 0 0 0 -1 I I #
point $-1 -1 $-1 -46.148666522395999 -48.00001261420293 -19.758172366988124 #
End-of-ACIS-data 