600 0 1 0           
112 GICL Pro/E ACIS Translator - Source: f:/data5/repository/PTC/V18/bboxrev2/boombox/spindle_motor_shell_.prt - 6 0 13 ACIS 6.0.3 NT 24 Thu Apr 04 10:05:26 2002 
1 9.9999999999999995e-007 1e-010 
body $-1 $1 $-1 $-1 #
lump $-1 $-1 $2 $0 #
shell $-1 $-1 $-1 $3 $-1 $1 #
face $-1 $4 $5 $2 $-1 $6 forward single #
face $-1 $7 $8 $2 $-1 $9 forward single #
loop $-1 $-1 $10 $3 #
cone-surface $-1 -21.424999999999997 0 0 1 0 0 0 -9.5 0 1 I I 0 1 9.5 forward I I I I #
face $-1 $11 $12 $2 $-1 $13 forward single #
loop $-1 $-1 $14 $4 #
torus-surface $-1 -3.1999999999999997 0 0 1 0 0 8.2999999999999989 1.2 0 -1 0 forward_v I I I I #
coedge $-1 $15 $16 $17 $18 forward $5 $-1 #
face $-1 $19 $20 $2 $-1 $21 forward single #
loop $-1 $-1 $22 $7 #
plane-surface $-1 -2 0 0 1 0 0 0 -1 0 forward_v I I I I #
coedge $-1 $23 $24 $22 $25 forward $8 $-1 #
coedge $-1 $26 $10 $27 $28 forward $5 $-1 #
coedge $-1 $10 $26 $29 $30 reversed $5 $-1 #
coedge $-1 $24 $23 $10 $18 reversed $8 $-1 #
edge $-1 $31 0 $32 3.1415926535897931 $10 $33 forward 7 unknown #
face $-1 $34 $35 $2 $-1 $36 forward single #
loop $-1 $-1 $37 $11 #
torus-surface $-1 -3.1999999999999997 0 0 1 0 0 8.2999999999999989 1.2 0 -1 0 forward_v I I I I #
coedge $-1 $38 $38 $14 $25 reversed $12 $-1 #
coedge $-1 $17 $14 $39 $40 forward $8 $-1 #
coedge $-1 $14 $17 $41 $42 reversed $8 $-1 #
edge $-1 $43 0 $44 3.1415926535897931 $14 $45 forward 7 unknown #
coedge $-1 $16 $15 $46 $47 reversed $5 $-1 #
coedge $-1 $48 $49 $15 $28 reversed $35 $-1 #
edge $-1 $32 0 $50 17.300000000000001 $15 $51 forward 7 unknown #
coedge $-1 $49 $48 $16 $30 forward $35 $-1 #
edge $-1 $31 0 $52 17.299999999999997 $16 $53 forward 7 unknown #
vertex $-1 $30 $54 #
vertex $-1 $28 $55 #
ellipse-curve $-1 -3.1999999999999993 0 0 -1 0 0 0 9.5 1.1633760361312584e-015 1 I I #
face $-1 $56 $57 $2 $-1 $58 forward single #
loop $-1 $-1 $49 $19 #
cone-surface $-1 -21.424999999999997 0 0 1 0 0 0 -9.5 0 1 I I 0 1 9.5 forward I I I I #
coedge $-1 $39 $41 $48 $59 forward $20 $-1 #
coedge $-1 $22 $22 $60 $61 forward $12 $-1 #
coedge $-1 $60 $37 $23 $40 reversed $20 $-1 #
edge $-1 $44 -4.1490613303745785e-031 $32 1.5707963267948966 $23 $62 forward 7 unknown #
coedge $-1 $37 $60 $24 $42 forward $20 $-1 #
edge $-1 $43 0 $31 1.5707963267948966 $24 $63 forward 7 unknown #
vertex $-1 $42 $64 #
vertex $-1 $40 $65 #
ellipse-curve $-1 -2 2.2204460492503131e-016 4.4408920985006262e-016 -1 2.6752362039160401e-017 1.8447335039426184e-033 2.2204460492503131e-016 8.2999999999999989 5.7233406382251035e-016 1 I I #
coedge $-1 $66 $67 $26 $47 forward $68 $-1 #
edge $-1 $52 -1.2246063538223775e-016 $50 3.1415926535897931 $26 $69 forward 7 unknown #
coedge $-1 $29 $27 $37 $59 reversed $35 $-1 #
coedge $-1 $27 $29 $70 $71 forward $35 $-1 #
vertex $-1 $47 $72 #
straight-curve $-1 -3.1999999999999993 -9.5 -2.3267520722625168e-015 -1 0 0 I I #
vertex $-1 $30 $73 #
straight-curve $-1 -3.1999999999999993 9.5 1.1633760361312584e-015 -1 0 0 I I #
point $-1 -3.1999999999999993 9.4999999999999982 1.1633760361312582e-015 #
point $-1 -3.1999999999999993 -9.5 -2.3267520722625168e-015 #
face $-1 $74 $68 $2 $-1 $75 reversed single #
loop $-1 $-1 $76 $34 #
plane-surface $-1 -20.5 0 9.3999999999999986 -1 0 0 0 0 1 forward_v I I I I #
edge $-1 $31 0 $32 3.1415926535897931 $48 $77 forward 7 unknown #
coedge $-1 $41 $39 $38 $61 reversed $20 $-1 #
edge $-1 $43 3.5286185845761497e-065 $44 3.1415926535897927 $60 $78 forward 7 unknown #
ellipse-curve $-1 -3.1999999999999993 -8.2999999999999989 -2.0328465473451459e-015 0 2.449212707644753e-016 -1 1.1999999999999995 0 0 1 I I #
ellipse-curve $-1 -3.1999999999999993 8.2999999999999989 1.016423273672573e-015 0 -1.2246063538223765e-016 1 1.1999999999999995 0 0 1 I I #
point $-1 -1.9999999999999998 8.2999999999999989 1.016423273672573e-015 #
point $-1 -1.9999999999999998 -8.2999999999999989 0 #
coedge $-1 $79 $46 $80 $81 forward $68 $-1 #
coedge $-1 $46 $79 $76 $82 reversed $68 $-1 #
loop $-1 $-1 $66 $56 #
ellipse-curve $-1 -20.5 1.7763568394002505e-015 0 -1 0 0 0 9.5 0 1 I I #
coedge $-1 $76 $80 $49 $71 reversed $57 $-1 #
edge $-1 $52 1.2246063538223773e-016 $50 3.1415926535897931 $49 $83 forward 7 unknown #
point $-1 -20.5 -9.4999999999999982 0 #
point $-1 -20.499999999999996 9.5 1.1633760361312584e-015 #
face $-1 $84 $85 $2 $-1 $86 reversed single #
plane-surface $-1 -20.5 1.7267519867977678e-015 -9.3999999999999986 1 0 0 0 0 -1 forward_v I I I I #
coedge $-1 $87 $70 $67 $82 forward $57 $-1 #
ellipse-curve $-1 -3.1999999999999993 0 0 1 0 0 0 9.5 1.1633760361312584e-015 1 I I #
ellipse-curve $-1 -2 1.1102230246251565e-015 -1.3322676295501878e-015 1 -2.6752362039160405e-017 -7.5702445013371052e-033 2.2204460492503131e-016 8.2999999999999972 2.3486909032227608e-015 1 I I #
coedge $-1 $67 $66 $88 $89 reversed $68 $-1 #
coedge $-1 $70 $87 $66 $81 reversed $57 $-1 #
edge $-1 $50 1.7763568394002505e-015 $90 0.20000000000000107 $66 $91 forward 7 unknown #
edge $-1 $52 1.7763568394002505e-015 $92 0.20000000000000284 $67 $93 forward 7 unknown #
ellipse-curve $-1 -20.5 -8.8817841970012523e-016 0 1 0 0 0 9.5 0 1 I I #
face $-1 $94 $95 $2 $-1 $96 reversed single #
loop $-1 $-1 $88 $74 #
cone-surface $-1 -21.424999999999997 0 0 1 0 0 0 -9.2999999999999989 0 1 I I 0 1 9.2999999999999989 forward I I I I #
coedge $-1 $80 $76 $97 $98 forward $57 $-1 #
coedge $-1 $99 $100 $79 $89 forward $85 $-1 #
edge $-1 $92 -1.224606353822378e-016 $90 3.1415926535897936 $79 $101 forward 7 unknown #
vertex $-1 $89 $102 #
straight-curve $-1 -20.5 -9.5 0 0 1 0 I I #
vertex $-1 $82 $103 #
straight-curve $-1 -20.5 9.5000000000000018 0 0 -1 0 I I #
face $-1 $104 $105 $2 $-1 $106 reversed single #
loop $-1 $-1 $107 $84 #
cone-surface $-1 -21.424999999999997 0 0 1 0 0 0 -9.2999999999999989 0 1 I I 0 1 9.2999999999999989 forward I I I I #
coedge $-1 $108 $109 $87 $98 reversed $95 $-1 #
edge $-1 $92 1.2246063538223773e-016 $90 3.1415926535897936 $87 $110 forward 7 unknown #
coedge $-1 $111 $88 $109 $112 reversed $85 $-1 #
coedge $-1 $88 $111 $108 $113 forward $85 $-1 #
ellipse-curve $-1 -20.5 2.2204460492503131e-015 -1.7763568394002505e-015 -1 0 0 0 9.2999999999999989 1.7763568394002505e-015 1 I I #
point $-1 -20.5 -9.2999999999999989 0 #
point $-1 -20.499999999999996 9.2999999999999989 1.1388839090548107e-015 #
face $-1 $114 $115 $2 $-1 $116 reversed single #
loop $-1 $-1 $117 $94 #
torus-surface $-1 -3.1999999999999997 0 0 1 0 0 8.2999999999999989 1 0 -1 0 forward_v I I I I #
coedge $-1 $109 $108 $118 $119 forward $95 $-1 #
coedge $-1 $107 $97 $100 $113 reversed $95 $-1 #
coedge $-1 $97 $107 $99 $112 forward $95 $-1 #
ellipse-curve $-1 -20.5 4.4408920985006262e-016 3.5527136788005009e-015 1 0 0 0 9.2999999999999989 -3.5527136788005009e-015 1 I I #
coedge $-1 $100 $99 $120 $121 reversed $85 $-1 #
edge $-1 $122 0 $90 17.300000000000001 $99 $123 forward 7 unknown #
edge $-1 $124 0 $92 17.299999999999997 $100 $125 forward 7 unknown #
face $-1 $-1 $126 $2 $-1 $127 reversed single #
loop $-1 $-1 $128 $104 #
plane-surface $-1 -2.1999999999999997 0 0 1 0 0 0 -1 0 forward_v I I I I #
coedge $-1 $129 $130 $131 $132 forward $105 $-1 #
coedge $-1 $130 $129 $107 $119 reversed $105 $-1 #
edge $-1 $124 0 $122 3.1415926535897931 $107 $133 forward 7 unknown #
coedge $-1 $134 $135 $111 $121 forward $126 $-1 #
edge $-1 $124 0 $122 3.1415926535897931 $111 $136 forward 7 unknown #
vertex $-1 $121 $137 #
straight-curve $-1 -3.1999999999999993 -9.2999999999999989 -2.2777678181096214e-015 -1 0 0 I I #
vertex $-1 $113 $138 #
straight-curve $-1 -3.1999999999999993 9.2999999999999989 1.1388839090548107e-015 -1 0 0 I I #
loop $-1 $-1 $120 $114 #
torus-surface $-1 -3.1999999999999997 0 0 1 0 0 8.2999999999999989 1 0 -1 0 forward_v I I I I #
coedge $-1 $131 $131 $139 $140 forward $115 $-1 #
coedge $-1 $118 $117 $134 $141 forward $105 $-1 #
coedge $-1 $117 $118 $135 $142 reversed $105 $-1 #
coedge $-1 $128 $128 $117 $132 reversed $115 $-1 #
edge $-1 $143 0 $144 3.1415926535897927 $117 $145 forward 7 unknown #
ellipse-curve $-1 -3.1999999999999993 0 0 1 0 0 0 9.2999999999999989 1.1388839090548107e-015 1 I I #
coedge $-1 $139 $120 $129 $141 reversed $126 $-1 #
coedge $-1 $120 $139 $130 $142 forward $126 $-1 #
ellipse-curve $-1 -3.1999999999999993 0 0 -1 0 0 0 9.2999999999999989 1.1388839090548107e-015 1 I I #
point $-1 -3.1999999999999993 -9.2999999999999989 0 #
point $-1 -3.1999999999999993 9.2999999999999989 1.1388839090548107e-015 #
coedge $-1 $135 $134 $128 $140 reversed $126 $-1 #
edge $-1 $143 0 $144 3.1415926535897931 $139 $146 forward 7 unknown #
edge $-1 $144 -3.9443045261050695e-031 $122 1.5707963267948992 $134 $147 forward 7 unknown #
edge $-1 $143 0 $124 1.5707963267948992 $135 $148 forward 7 unknown #
vertex $-1 $142 $149 #
vertex $-1 $140 $150 #
ellipse-curve $-1 -2.1999999999999997 1.1102230246251565e-015 -1.3322676295501878e-015 1 0 0 0 8.2999999999999972 2.3486909032227608e-015 1 I I #
ellipse-curve $-1 -2.1999999999999997 2.2204460492503131e-016 4.4408920985006262e-016 -1 0 0 0 8.2999999999999989 5.7233406382251035e-016 1 I I #
ellipse-curve $-1 -3.1999999999999984 -8.3000000000000007 -2.0328465473451467e-015 3.5379333078393663e-031 2.4492127076447491e-016 -1 0.99999999999999867 1.7763568394002505e-015 7.8886090522101181e-031 1 I I #
ellipse-curve $-1 -3.1999999999999984 8.3000000000000007 1.0164232736725734e-015 1.7689666539196831e-031 -1.2246063538223745e-016 1 0.99999999999999867 -1.7763568394002505e-015 -3.944304526105059e-031 1 I I #
point $-1 -2.1999999999999997 8.2999999999999989 1.016423273672573e-015 #
point $-1 -2.1999999999999997 -8.2999999999999989 0 #
End-of-ACIS-data 