600 0 1 0           
112 GICL Pro/E ACIS Translator - Source: f:/data5/repository/PTC/V18/bboxrev2/boombox/spindle_motor_shaft_.prt - 6 0 13 ACIS 6.0.3 NT 24 Thu Apr 04 13:43:54 2002 
1 9.9999999999999995e-007 1e-010 
body $-1 $1 $-1 $-1 #
lump $-1 $-1 $2 $0 #
shell $-1 $-1 $-1 $3 $-1 $1 #
face $-1 $4 $5 $2 $-1 $6 reversed single #
face $-1 $7 $8 $2 $-1 $9 forward single #
loop $-1 $-1 $10 $3 #
plane-surface $-1 -2 0 0 1 0 0 0 -1 0 forward_v I I I I #
face $-1 $11 $12 $2 $-1 $13 forward single #
loop $-1 $-1 $14 $4 #
cone-surface $-1 -2 0 0 1 0 0 0 -0.69999999999999996 0 1 I I 0 1 0.69999999999999996 forward I I I I #
coedge $-1 $15 $15 $16 $17 reversed $5 $-1 #
face $-1 $-1 $18 $2 $-1 $19 reversed single #
loop $-1 $-1 $20 $7 #
cone-surface $-1 -2 0 0 1 0 0 0 -0.69999999999999996 0 1 I I 0 1 0.69999999999999996 forward I I I I #
coedge $-1 $21 $16 $22 $23 forward $8 $-1 #
coedge $-1 $10 $10 $24 $25 reversed $5 $-1 #
coedge $-1 $14 $26 $10 $17 forward $8 $-1 #
edge $-1 $27 0 $28 3.1415926535897931 $10 $29 forward 7 unknown #
loop $-1 $-1 $30 $11 #
plane-surface $-1 5.5 0 0 -1 0 0 0 1 0 forward_v I I I I #
coedge $-1 $31 $24 $26 $32 forward $12 $-1 #
coedge $-1 $26 $14 $30 $33 reversed $8 $-1 #
coedge $-1 $24 $31 $14 $23 reversed $12 $-1 #
edge $-1 $28 0 $34 7.5 $22 $35 forward 7 unknown #
coedge $-1 $20 $22 $15 $25 forward $12 $-1 #
edge $-1 $28 0 $27 3.1415926535897931 $15 $36 forward 7 unknown #
coedge $-1 $16 $21 $20 $32 reversed $8 $-1 #
vertex $-1 $25 $37 #
vertex $-1 $25 $38 #
ellipse-curve $-1 -2 0 0 1 0 0 0 0.69999999999999996 0 1 I I #
coedge $-1 $39 $39 $21 $33 forward $18 $-1 #
coedge $-1 $22 $20 $39 $40 reversed $12 $-1 #
edge $-1 $27 0 $41 7.5 $20 $42 forward 7 unknown #
edge $-1 $41 0 $34 3.1415926535897931 $30 $43 forward 7 unknown #
vertex $-1 $40 $44 #
straight-curve $-1 -2 -0.69999999999999996 0 1 0 0 I I #
ellipse-curve $-1 -2 0 0 1 0 0 0 -0.69999999999999996 0 1 I I #
point $-1 -2 0.69999999999999996 0 #
point $-1 -2 -0.69999999999999996 0 #
coedge $-1 $30 $30 $31 $40 forward $18 $-1 #
edge $-1 $34 0 $41 3.1415926535897931 $39 $45 forward 7 unknown #
vertex $-1 $40 $46 #
straight-curve $-1 -2 0.69999999999999996 -8.5722444767566406e-017 1 0 0 I I #
ellipse-curve $-1 5.5 8.3266726846886741e-017 -2.7755575615628914e-017 1 0 0 0 0.69999999999999984 2.7755575615628914e-017 1 I I #
point $-1 5.5 -0.69999999999999996 0 #
ellipse-curve $-1 5.5 0 -5.5511151231257827e-017 1 0 0 0 -0.69999999999999996 5.5511151231257827e-017 1 I I #
point $-1 5.5 0.69999999999999996 0 #
End-of-ACIS-data 