700 0 2 0           
24 FBMach with ACIS - 7.0.3 13 ACIS 7.0.3 NT 24 Thu May 16 15:47:24 2002 
1 9.9999999999999995e-007 1e-010 
body $2 -1 $-1 $3 $-1 $4 #
bdycol-kcp $-1 -1 1 2 $5 $6 #
model_id-kcp-attrib $-1 -1 $-1 $-1 $0 1 1021578444 1021578444 295501825 1 #
lump $-1 -1 $-1 $-1 $7 $0 #
transform $-1 -1 1 0 0 0 1 0 0 0 1 0 0 0 1 rotate no_reflect no_shear #
body $8 -1 $-1 $9 $-1 $10 #
body $11 -1 $-1 $12 $-1 $13 #
shell $-1 -1 $-1 $-1 $-1 $14 $-1 $3 #
rgb_color-st-attrib $-1 -1 $15 $-1 $5 0.5 1 1 #
lump $-1 -1 $-1 $-1 $16 $5 #
transform $-1 -1 1 0 0 0 1 0 0 0 1 1.75 0 -5.5511151231257827e-017 1 no_rotate no_reflect no_shear #
model_id-kcp-attrib $-1 -1 $-1 $-1 $6 1 1021578444 1021578444 295501826 1 #
lump $-1 -1 $-1 $-1 $17 $6 #
transform $-1 -1 1 0 0 0 1 0 0 0 1 1.75 0 -5.5511151231257827e-017 1 no_rotate no_reflect no_shear #
face $18 -1 $-1 $19 $20 $7 $-1 $21 reversed single #
model_id-kcp-attrib $-1 -1 $-1 $8 $5 1 1021578444 1021578444 285278211 1 #
shell $-1 -1 $-1 $-1 $-1 $22 $-1 $9 #
shell $-1 -1 $-1 $-1 $-1 $23 $-1 $12 #
model_id-kcp-attrib $-1 -1 $-1 $-1 $14 1 1021578444 1021578444 295501825 2 #
face $24 -1 $-1 $25 $26 $7 $-1 $27 forward single #
loop $-1 -1 $-1 $-1 $28 $14 #
plane-surface $-1 -1 $-1 -2 0 0 1 0 0 0 -1 0 forward_v I I I I #
face $-1 -1 $-1 $29 $30 $16 $-1 $31 reversed single #
face $-1 -1 $-1 $32 $33 $17 $-1 $34 forward single #
model_id-kcp-attrib $-1 -1 $-1 $-1 $19 1 1021578444 1021578444 295501825 3 #
face $35 -1 $-1 $36 $37 $7 $-1 $38 forward single #
loop $-1 -1 $-1 $-1 $39 $19 #
cone-surface $-1 -1 $-1 -2 0 0 1 0 0 0 -0.69999999999999996 0 1 I I 0 1 0.69999999999999996 forward I I I I #
coedge $-1 -1 $-1 $40 $40 $41 $42 reversed $20 $-1 #
face $-1 -1 $-1 $43 $44 $16 $-1 $31 reversed single #
loop $-1 -1 $-1 $-1 $45 $22 #
cone-surface $-1 -1 $-1 -3.75 6.0233716884784028e-033 0 -1 0 0 0 -0.69999999999999996 5.5511151231257827e-017 1 I I 0 1 0.69999999999999996 forward I I I I #
face $-1 -1 $-1 $46 $47 $17 $-1 $48 reversed single #
loop $-1 -1 $-1 $-1 $49 $23 #
plane-surface $-1 -1 $-1 0 0 0.69999999999999996 0 0 1 1 0 0 forward_v I I I I #
model_id-kcp-attrib $-1 -1 $-1 $-1 $25 1 1021578444 1021578444 295501825 4 #
face $50 -1 $-1 $-1 $51 $7 $-1 $52 reversed single #
loop $-1 -1 $-1 $-1 $53 $25 #
cone-surface $-1 -1 $-1 -2 0 0 1 0 0 0 -0.69999999999999996 0 1 I I 0 1 0.69999999999999996 forward I I I I #
coedge $-1 -1 $-1 $54 $41 $55 $56 forward $26 $-1 #
coedge $-1 -1 $-1 $28 $28 $57 $58 reversed $20 $-1 #
coedge $-1 -1 $-1 $39 $59 $28 $42 forward $26 $-1 #
edge $60 -1 $-1 $61 0 $62 3.1415926535897931 $28 $63 forward @7 unknown #
face $-1 -1 $-1 $64 $65 $16 $-1 $31 reversed single #
loop $-1 -1 $-1 $-1 $66 $29 #
coedge $-1 -1 $-1 $67 $68 $69 $70 reversed $30 $-1 #
face $-1 -1 $-1 $71 $72 $17 $-1 $73 reversed single #
loop $-1 -1 $-1 $-1 $74 $32 #
plane-surface $-1 -1 $-1 0 0 -0.69999999999999996 0 0 1 1 0 0 forward_v I I I I #
coedge $-1 -1 $-1 $75 $76 $77 $78 forward $33 $-1 #
model_id-kcp-attrib $-1 -1 $-1 $-1 $36 1 1021578444 1021578444 295501825 5 #
loop $-1 -1 $-1 $-1 $79 $36 #
plane-surface $-1 -1 $-1 5.5 0 0 -1 0 0 0 1 0 forward_v I I I I #
coedge $-1 -1 $-1 $80 $57 $59 $81 forward $37 $-1 #
coedge $-1 -1 $-1 $59 $39 $79 $82 reversed $26 $-1 #
coedge $-1 -1 $-1 $57 $80 $39 $56 reversed $37 $-1 #
edge $-1 -1 $-1 $62 0 $83 7.5 $55 $84 forward @7 unknown #
coedge $-1 -1 $-1 $53 $55 $40 $58 forward $37 $-1 #
edge $85 -1 $-1 $62 0 $61 3.1415926535897931 $40 $86 forward @7 unknown #
coedge $-1 -1 $-1 $41 $54 $53 $81 reversed $26 $-1 #
attrib_edge_convexity-kcp-attrib $-1 -1 $87 $-1 $42 1 #
vertex $-1 -1 $-1 $58 $88 #
vertex $-1 -1 $-1 $58 $89 #
ellipse-curve $-1 -1 $-1 -2 0 0 1 0 0 0 0.69999999999999996 0 1 I I #
face $-1 -1 $-1 $90 $91 $16 $-1 $31 reversed single #
loop $-1 -1 $-1 $-1 $92 $43 #
coedge $-1 -1 $-1 $93 $94 $95 $96 reversed $44 $-1 #
coedge $-1 -1 $-1 $97 $45 $98 $99 forward $30 $-1 #
coedge $-1 -1 $-1 $45 $97 $100 $101 reversed $30 $-1 #
coedge $-1 -1 $-1 $102 $103 $45 $70 forward $104 $-1 #
edge $-1 -1 $-1 $105 1.5707963267948966 $106 3.1415926535897931 $69 $107 forward @7 unknown #
face $108 -1 $-1 $109 $110 $17 $-1 $111 reversed single #
loop $-1 -1 $-1 $-1 $112 $46 #
plane-surface $-1 -1 $-1 0 -0.69999999999999996 0 0 1 0 0 0 1 forward_v I I I I #
coedge $-1 -1 $-1 $113 $114 $115 $116 forward $47 $-1 #
coedge $-1 -1 $-1 $117 $49 $118 $119 forward $33 $-1 #
coedge $-1 -1 $-1 $49 $117 $120 $121 forward $33 $-1 #
coedge $-1 -1 $-1 $122 $123 $49 $78 reversed $124 $-1 #
edge $-1 -1 $-1 $125 -0.69999999999999996 $126 0.69999999999999996 $77 $127 forward @7 unknown #
coedge $-1 -1 $-1 $128 $128 $54 $82 forward $51 $-1 #
coedge $-1 -1 $-1 $55 $53 $128 $129 reversed $37 $-1 #
edge $-1 -1 $-1 $61 0 $130 7.5 $53 $131 forward @7 unknown #
edge $-1 -1 $-1 $130 0 $83 3.1415926535897931 $79 $132 forward @7 unknown #
vertex $-1 -1 $-1 $129 $133 #
straight-curve $-1 -1 $-1 -2 -0.69999999999999996 0 1 0 0 I I #
attrib_edge_convexity-kcp-attrib $-1 -1 $134 $-1 $58 1 #
ellipse-curve $-1 -1 $-1 -2 0 0 1 0 0 0 -0.69999999999999996 0 1 I I #
convexity-sys-attrib $-1 -1 $-1 $60 $42 #
point $-1 -1 $-1 -2 0.69999999999999996 0 #
point $-1 -1 $-1 -2 -0.69999999999999996 0 #
face $-1 -1 $-1 $135 $136 $16 $-1 $137 reversed single #
loop $-1 -1 $-1 $-1 $138 $64 #
coedge $-1 -1 $-1 $139 $140 $138 $141 forward $65 $-1 #
coedge $-1 -1 $-1 $142 $66 $143 $144 reversed $44 $-1 #
coedge $-1 -1 $-1 $66 $142 $68 $101 forward $44 $-1 #
coedge $-1 -1 $-1 $145 $146 $66 $96 forward $147 $-1 #
edge $-1 -1 $-1 $148 1.5707963267948968 $149 3.1415926535897931 $95 $150 forward @7 unknown #
coedge $-1 -1 $-1 $68 $67 $151 $152 reversed $30 $-1 #
coedge $-1 -1 $-1 $140 $139 $153 $99 reversed $65 $-1 #
edge $-1 -1 $-1 $105 -7.5 $154 0 $153 $155 forward @7 unknown #
coedge $-1 -1 $-1 $156 $157 $158 $101 forward $159 $-1 #
edge $-1 -1 $-1 $106 -7.5 $149 0 $100 $160 forward @7 unknown #
coedge $-1 -1 $-1 $103 $69 $157 $161 reversed $104 $-1 #
coedge $-1 -1 $-1 $69 $102 $162 $163 reversed $104 $-1 #
loop $-1 -1 $-1 $-1 $69 $164 #
vertex $-1 -1 $-1 $163 $165 #
vertex $-1 -1 $-1 $166 $167 #
ellipse-curve $-1 -1 $-1 3.75 6.0233716884784028e-033 0 -1 0 0 0 -0.69999999999999996 5.5511151231257827e-017 1 I I #
model_id-kcp-attrib $-1 -1 $-1 $-1 $71 1 1021578444 1021578444 295501826 2 #
face $-1 -1 $-1 $168 $169 $17 $-1 $170 reversed single #
loop $-1 -1 $-1 $-1 $171 $71 #
plane-surface $-1 -1 $-1 -3.75 0 0 1 0 0 0 0 -1 forward_v I I I I #
coedge $-1 -1 $-1 $172 $120 $173 $174 forward $72 $-1 #
coedge $-1 -1 $-1 $175 $74 $172 $176 forward $47 $-1 #
coedge $-1 -1 $-1 $74 $175 $177 $178 forward $47 $-1 #
coedge $-1 -1 $-1 $123 $122 $74 $116 reversed $124 $-1 #
edge $-1 -1 $-1 $179 -0.69999999999999996 $180 0.69999999999999996 $115 $181 forward @7 unknown #
coedge $-1 -1 $-1 $76 $75 $182 $183 forward $33 $-1 #
coedge $-1 -1 $-1 $184 $185 $75 $119 reversed $169 $-1 #
edge $-1 -1 $-1 $126 -3.75 $186 3.75 $118 $187 forward @7 unknown #
coedge $-1 -1 $-1 $112 $188 $76 $121 reversed $72 $-1 #
edge $-1 -1 $-1 $189 -3.75 $125 3.75 $120 $190 forward @7 unknown #
coedge $-1 -1 $-1 $115 $77 $188 $191 forward $124 $-1 #
coedge $-1 -1 $-1 $77 $115 $184 $192 reversed $124 $-1 #
loop $-1 -1 $-1 $-1 $122 $168 #
vertex $-1 -1 $-1 $78 $193 #
vertex $-1 -1 $-1 $78 $194 #
straight-curve $-1 -1 $-1 3.75 0 0.69999999999999996 0 1 0 I I #
coedge $-1 -1 $-1 $79 $79 $80 $129 forward $51 $-1 #
edge $-1 -1 $-1 $83 0 $130 3.1415926535897931 $128 $195 forward @7 unknown #
vertex $-1 -1 $-1 $129 $196 #
straight-curve $-1 -1 $-1 -2 0.69999999999999996 -8.5722444767566406e-017 1 0 0 I I #
ellipse-curve $-1 -1 $-1 5.5 8.3266726846886741e-017 -2.7755575615628914e-017 1 0 0 0 0.69999999999999984 2.7755575615628914e-017 1 I I #
point $-1 -1 $-1 5.5 -0.69999999999999996 0 #
convexity-sys-attrib $-1 -1 $-1 $85 $58 #
face $-1 -1 $-1 $197 $198 $16 $-1 $199 forward single #
loop $-1 -1 $-1 $-1 $158 $90 #
plane-surface $-1 -1 $-1 0 0.69999999999999996 0 0 -1 0 0 0 -1 forward_v I I I I #
coedge $-1 -1 $-1 $200 $201 $202 $141 reversed $91 $-1 #
coedge $-1 -1 $-1 $98 $92 $203 $204 reversed $65 $-1 #
coedge $-1 -1 $-1 $92 $98 $205 $206 reversed $65 $-1 #
edge $-1 -1 $-1 $207 -7.5 $208 0 $202 $209 forward @7 unknown #
coedge $-1 -1 $-1 $94 $93 $210 $211 reversed $44 $-1 #
coedge $-1 -1 $-1 $212 $213 $214 $144 forward $215 $-1 #
edge $-1 -1 $-1 $216 -7.5 $148 0 $143 $217 forward @7 unknown #
coedge $-1 -1 $-1 $146 $95 $218 $219 forward $147 $-1 #
coedge $-1 -1 $-1 $95 $145 $212 $220 reversed $147 $-1 #
loop $-1 -1 $-1 $-1 $95 $221 #
vertex $-1 -1 $-1 $220 $222 #
vertex $-1 -1 $-1 $219 $223 #
ellipse-curve $-1 -1 $-1 -3.75 6.0233716884784028e-033 0 1 0 0 0 -0.69999999999999996 5.5511151231257827e-017 1 I I #
coedge $-1 -1 $-1 $224 $225 $97 $152 forward $226 $-1 #
edge $-1 -1 $-1 $149 -3.1415926535897931 $154 -1.5707963267948966 $151 $150 forward @7 unknown #
coedge $-1 -1 $-1 $227 $228 $229 $99 forward $198 $-1 #
vertex $-1 -1 $-1 $230 $231 #
straight-curve $-1 -1 $-1 -3.75 6.0233716884784028e-033 0.69999999999999996 -1 0 0 I I #
coedge $-1 -1 $-1 $232 $100 $225 $233 reversed $159 $-1 #
coedge $-1 -1 $-1 $100 $232 $102 $161 forward $159 $-1 #
coedge $-1 -1 $-1 $234 $218 $94 $101 reversed $136 $-1 #
loop $-1 -1 $-1 $-1 $100 $235 #
straight-curve $-1 -1 $-1 -3.75 0.69999999999999996 0 -1 0 0 I I #
edge $-1 -1 $-1 $236 -0.69999999999999996 $106 0 $102 $237 forward @7 unknown #
coedge $-1 -1 $-1 $238 $229 $103 $163 forward $239 $-1 #
edge $-1 -1 $-1 $105 6.0233716884784028e-033 $236 0.69999999999999996 $103 $240 forward @7 unknown #
face $-1 -1 $-1 $241 $104 $16 $-1 $242 reversed single #
point $-1 -1 $-1 3.75 6.0233716884784028e-033 0.69999999999999996 #
edge $-1 -1 $-1 $106 0 $243 0.69999999999999996 $244 $237 forward @7 unknown #
point $-1 -1 $-1 3.75 0.69999999999999996 0 #
face $245 -1 $-1 $-1 $124 $17 $-1 $246 reversed single #
loop $-1 -1 $-1 $-1 $184 $109 #
plane-surface $-1 -1 $-1 0 0.69999999999999996 0 0 -1 0 0 0 -1 forward_v I I I I #
coedge $-1 -1 $-1 $247 $182 $185 $248 forward $110 $-1 #
coedge $-1 -1 $-1 $188 $112 $113 $176 reversed $72 $-1 #
coedge $-1 -1 $-1 $182 $247 $112 $174 reversed $110 $-1 #
edge $-1 -1 $-1 $189 -0.69999999999999996 $249 0.69999999999999996 $173 $250 forward @7 unknown #
coedge $-1 -1 $-1 $114 $113 $247 $251 forward $47 $-1 #
edge $-1 -1 $-1 $180 -3.75 $249 3.75 $172 $252 forward @7 unknown #
coedge $-1 -1 $-1 $185 $184 $114 $178 reversed $169 $-1 #
edge $-1 -1 $-1 $253 -3.75 $179 3.75 $177 $254 forward @7 unknown #
vertex $-1 -1 $-1 $116 $255 #
vertex $-1 -1 $-1 $191 $256 #
straight-curve $-1 -1 $-1 3.75 0 -0.69999999999999996 0 -1 0 I I #
coedge $-1 -1 $-1 $171 $173 $117 $183 reversed $110 $-1 #
edge $-1 -1 $-1 $186 -0.69999999999999996 $189 0.69999999999999996 $182 $257 forward @7 unknown #
coedge $-1 -1 $-1 $177 $118 $123 $192 forward $169 $-1 #
coedge $-1 -1 $-1 $118 $177 $171 $248 reversed $169 $-1 #
vertex $-1 -1 $-1 $119 $258 #
straight-curve $-1 -1 $-1 0 0.69999999999999996 0.69999999999999996 -1 0 0 I I #
coedge $-1 -1 $-1 $120 $172 $122 $191 reversed $72 $-1 #
vertex $-1 -1 $-1 $183 $259 #
straight-curve $-1 -1 $-1 0 -0.69999999999999996 0.69999999999999996 1 0 0 I I #
edge $-1 -1 $-1 $125 -0.69999999999999996 $180 0.69999999999999996 $122 $260 forward @7 unknown #
edge $-1 -1 $-1 $126 -0.69999999999999996 $179 0.69999999999999996 $123 $261 forward @7 unknown #
point $-1 -1 $-1 3.75 -0.69999999999999996 0.69999999999999996 #
point $-1 -1 $-1 3.75 0.69999999999999996 0.69999999999999996 #
ellipse-curve $-1 -1 $-1 5.5 0 -5.5511151231257827e-017 1 0 0 0 -0.69999999999999996 5.5511151231257827e-017 1 I I #
point $-1 -1 $-1 5.5 0.69999999999999996 0 #
face $-1 -1 $-1 $221 $262 $16 $-1 $263 reversed single #
loop $-1 -1 $-1 $-1 $153 $135 #
plane-surface $-1 -1 $-1 0 0 0.69999999999999996 0 0 1 1 0 0 forward_v I I I I #
coedge $-1 -1 $-1 $264 $138 $265 $266 reversed $91 $-1 #
coedge $-1 -1 $-1 $138 $264 $267 $268 reversed $91 $-1 #
coedge $-1 -1 $-1 $269 $270 $271 $141 forward $272 $-1 #
coedge $-1 -1 $-1 $273 $274 $139 $204 forward $275 $-1 #
edge $-1 -1 $-1 $154 -1.5707963267948966 $208 7.9301644616082612e-017 $203 $150 forward @7 unknown #
coedge $-1 -1 $-1 $276 $277 $140 $206 forward $278 $-1 #
edge $-1 -1 $-1 $207 -7.9301644616082612e-017 $105 1.5707963267948966 $205 $107 forward @7 unknown #
vertex $-1 -1 $-1 $279 $280 #
vertex $-1 -1 $-1 $281 $282 #
straight-curve $-1 -1 $-1 -3.75 -0.69999999999999996 0 -1 0 0 I I #
coedge $-1 -1 $-1 $283 $244 $142 $211 forward $284 $-1 #
edge $-1 -1 $-1 $106 -3.1415926535897931 $216 -1.5707963267948968 $210 $107 forward @7 unknown #
coedge $-1 -1 $-1 $285 $143 $146 $220 forward $215 $-1 #
coedge $-1 -1 $-1 $143 $285 $283 $286 forward $215 $-1 #
coedge $-1 -1 $-1 $287 $288 $264 $144 reversed $289 $-1 #
loop $-1 -1 $-1 $-1 $143 $290 #
vertex $-1 -1 $-1 $291 $292 #
straight-curve $-1 -1 $-1 -3.75 6.0233716884784028e-033 -0.69999999999999996 -1 0 0 I I #
coedge $-1 -1 $-1 $158 $293 $145 $219 reversed $136 $-1 #
edge $-1 -1 $-1 $149 0 $294 0.69999999999999996 $218 $295 forward @7 unknown #
edge $-1 -1 $-1 $148 6.0233716884784028e-033 $294 0.69999999999999996 $146 $296 forward @7 unknown #
face $-1 -1 $-1 $297 $147 $16 $-1 $263 reversed single #
point $-1 -1 $-1 -3.75 6.0233716884784028e-033 -0.69999999999999996 #
point $-1 -1 $-1 -3.75 0.69999999999999996 0 #
coedge $-1 -1 $-1 $225 $151 $298 $299 reversed $226 $-1 #
coedge $-1 -1 $-1 $151 $224 $156 $233 forward $226 $-1 #
loop $-1 -1 $-1 $-1 $151 $297 #
coedge $-1 -1 $-1 $300 $153 $274 $230 forward $198 $-1 #
coedge $-1 -1 $-1 $153 $300 $276 $301 forward $198 $-1 #
coedge $-1 -1 $-1 $162 $298 $67 $99 reversed $239 $-1 #
edge $-1 -1 $-1 $154 -6.0233716884784028e-033 $302 0.69999999999999996 $274 $303 forward @7 unknown #
point $-1 -1 $-1 -3.75 6.0233716884784028e-033 0.69999999999999996 #
coedge $-1 -1 $-1 $157 $156 $238 $304 reversed $159 $-1 #
edge $-1 -1 $-1 $305 -0.69999999999999996 $149 0 $156 $295 forward @7 unknown #
coedge $-1 -1 $-1 $293 $158 $244 $166 forward $136 $-1 #
face $-1 -1 $-1 $-1 $159 $16 $-1 $137 reversed single #
vertex $-1 -1 $-1 $163 $306 #
straight-curve $-1 -1 $-1 3.75 0.69999999999999996 0 0 0 -1 I I #
coedge $-1 -1 $-1 $298 $162 $232 $304 forward $239 $-1 #
loop $-1 -1 $-1 $-1 $229 $307 #
straight-curve $-1 -1 $-1 3.75 0 0.69999999999999996 0 1 0 I I #
face $-1 -1 $-1 $308 $284 $16 $-1 $242 reversed single #
plane-surface $-1 -1 $-1 3.75 0 0 -1 0 0 0 0 1 forward_v I I I I #
vertex $-1 -1 $-1 $286 $309 #
coedge $-1 -1 $-1 $210 $283 $234 $166 reversed $284 $-1 #
model_id-kcp-attrib $-1 -1 $-1 $-1 $168 1 1021578444 1021578444 295501826 3 #
plane-surface $-1 -1 $-1 3.75 0 0 -1 0 0 0 0 1 forward_v I I I I #
coedge $-1 -1 $-1 $173 $171 $175 $251 reversed $110 $-1 #
edge $-1 -1 $-1 $186 -0.69999999999999996 $253 0.69999999999999996 $185 $310 forward @7 unknown #
vertex $-1 -1 $-1 $251 $311 #
straight-curve $-1 -1 $-1 -3.75 -0.69999999999999996 0 0 0 -1 I I #
edge $-1 -1 $-1 $249 -0.69999999999999996 $253 0.69999999999999996 $247 $312 forward @7 unknown #
straight-curve $-1 -1 $-1 0 -0.69999999999999996 -0.69999999999999996 -1 0 0 I I #
vertex $-1 -1 $-1 $178 $313 #
straight-curve $-1 -1 $-1 0 0.69999999999999996 -0.69999999999999996 1 0 0 I I #
point $-1 -1 $-1 3.75 0.69999999999999996 -0.69999999999999996 #
point $-1 -1 $-1 3.75 -0.69999999999999996 -0.69999999999999996 #
straight-curve $-1 -1 $-1 -3.75 0 0.69999999999999996 0 -1 0 I I #
point $-1 -1 $-1 -3.75 0.69999999999999996 0.69999999999999996 #
point $-1 -1 $-1 -3.75 -0.69999999999999996 0.69999999999999996 #
straight-curve $-1 -1 $-1 3.75 -0.69999999999999996 0 0 0 -1 I I #
straight-curve $-1 -1 $-1 3.75 0.69999999999999996 0 0 0 -1 I I #
loop $-1 -1 $-1 $-1 $267 $197 #
plane-surface $-1 -1 $-1 -3.75 0 0 1 0 0 0 0 -1 forward_v I I I I #
coedge $-1 -1 $-1 $201 $200 $93 $144 forward $91 $-1 #
coedge $-1 -1 $-1 $314 $315 $200 $266 forward $316 $-1 #
edge $-1 -1 $-1 $216 -1.5707963267948968 $207 -7.9301644616082612e-017 $265 $107 forward @7 unknown #
coedge $-1 -1 $-1 $317 $318 $201 $268 forward $262 $-1 #
edge $-1 -1 $-1 $208 7.9301644616082612e-017 $148 1.5707963267948968 $267 $150 forward @7 unknown #
coedge $-1 -1 $-1 $319 $202 $318 $281 forward $272 $-1 #
coedge $-1 -1 $-1 $202 $319 $314 $279 reversed $272 $-1 #
coedge $-1 -1 $-1 $320 $321 $92 $141 reversed $322 $-1 #
loop $-1 -1 $-1 $-1 $202 $323 #
coedge $-1 -1 $-1 $274 $203 $321 $324 reversed $275 $-1 #
coedge $-1 -1 $-1 $203 $273 $227 $230 reversed $275 $-1 #
loop $-1 -1 $-1 $-1 $203 $325 #
coedge $-1 -1 $-1 $277 $205 $228 $301 reversed $278 $-1 #
coedge $-1 -1 $-1 $205 $276 $320 $326 forward $278 $-1 #
loop $-1 -1 $-1 $-1 $205 $327 #
edge $-1 -1 $-1 $207 0 $328 0.69999999999999996 $314 $329 forward @7 unknown #
point $-1 -1 $-1 3.75 -0.69999999999999996 0 #
edge $-1 -1 $-1 $208 0 $330 0.69999999999999996 $318 $331 forward @7 unknown #
point $-1 -1 $-1 -3.75 -0.69999999999999996 0 #
coedge $-1 -1 $-1 $244 $210 $213 $286 reversed $284 $-1 #
loop $-1 -1 $-1 $-1 $210 $241 #
coedge $-1 -1 $-1 $213 $212 $293 $332 forward $215 $-1 #
edge $-1 -1 $-1 $243 -0.69999999999999996 $216 -6.0233716884784028e-033 $283 $333 forward @7 unknown #
coedge $-1 -1 $-1 $334 $214 $315 $291 forward $289 $-1 #
coedge $-1 -1 $-1 $214 $334 $317 $335 forward $289 $-1 #
loop $-1 -1 $-1 $-1 $214 $336 #
face $-1 -1 $-1 $323 $215 $16 $-1 $337 reversed single #
edge $-1 -1 $-1 $216 -6.0233716884784028e-033 $328 0.69999999999999996 $315 $333 forward @7 unknown #
point $-1 -1 $-1 3.75 6.0233716884784028e-033 -0.69999999999999996 #
coedge $-1 -1 $-1 $218 $234 $285 $332 reversed $136 $-1 #
vertex $-1 -1 $-1 $332 $338 #
straight-curve $-1 -1 $-1 -3.75 0.69999999999999996 0 0 0 -1 I I #
straight-curve $-1 -1 $-1 -3.75 0 -0.69999999999999996 0 1 0 I I #
face $-1 -1 $-1 $325 $226 $16 $-1 $263 reversed single #
coedge $-1 -1 $-1 $229 $238 $224 $299 forward $239 $-1 #
edge $-1 -1 $-1 $305 -0.69999999999999996 $154 -6.0233716884784028e-033 $224 $303 forward @7 unknown #
coedge $-1 -1 $-1 $228 $227 $339 $340 forward $198 $-1 #
edge $-1 -1 $-1 $341 -0.69999999999999996 $105 6.0233716884784028e-033 $276 $240 forward @7 unknown #
vertex $-1 -1 $-1 $230 $342 #
straight-curve $-1 -1 $-1 -3.75 0 0.69999999999999996 0 -1 0 I I #
edge $-1 -1 $-1 $236 -3.75 $305 3.75 $232 $343 forward @7 unknown #
vertex $-1 -1 $-1 $304 $344 #
point $-1 -1 $-1 3.75 0.69999999999999996 0.69999999999999996 #
face $-1 -1 $-1 $290 $239 $16 $-1 $199 forward single #
face $-1 -1 $-1 $345 $316 $16 $-1 $242 reversed single #
point $-1 -1 $-1 3.75 0.69999999999999996 -0.69999999999999996 #
straight-curve $-1 -1 $-1 -3.75 0.69999999999999996 0 0 0 -1 I I #
point $-1 -1 $-1 -3.75 -0.69999999999999996 -0.69999999999999996 #
straight-curve $-1 -1 $-1 -3.75 0 -0.69999999999999996 0 1 0 I I #
point $-1 -1 $-1 -3.75 0.69999999999999996 -0.69999999999999996 #
coedge $-1 -1 $-1 $315 $265 $270 $279 forward $316 $-1 #
coedge $-1 -1 $-1 $265 $314 $287 $291 reversed $316 $-1 #
loop $-1 -1 $-1 $-1 $265 $308 #
coedge $-1 -1 $-1 $318 $267 $288 $335 reversed $262 $-1 #
coedge $-1 -1 $-1 $267 $317 $269 $281 reversed $262 $-1 #
coedge $-1 -1 $-1 $270 $269 $334 $346 reversed $272 $-1 #
coedge $-1 -1 $-1 $339 $271 $277 $326 reversed $322 $-1 #
coedge $-1 -1 $-1 $271 $339 $273 $324 forward $322 $-1 #
loop $-1 -1 $-1 $-1 $271 $345 #
face $-1 -1 $-1 $235 $272 $16 $-1 $347 reversed single #
edge $-1 -1 $-1 $302 -0.69999999999999996 $208 0 $273 $331 forward @7 unknown #
face $-1 -1 $-1 $336 $275 $16 $-1 $263 reversed single #
edge $-1 -1 $-1 $341 -0.69999999999999996 $207 0 $277 $329 forward @7 unknown #
face $-1 -1 $-1 $164 $278 $16 $-1 $242 reversed single #
vertex $-1 -1 $-1 $279 $348 #
straight-curve $-1 -1 $-1 3.75 -0.69999999999999996 0 0 0 -1 I I #
vertex $-1 -1 $-1 $335 $349 #
straight-curve $-1 -1 $-1 -3.75 -0.69999999999999996 0 0 0 -1 I I #
edge $-1 -1 $-1 $294 -3.75 $243 3.75 $293 $350 forward @7 unknown #
straight-curve $-1 -1 $-1 3.75 0 -0.69999999999999996 0 -1 0 I I #
coedge $-1 -1 $-1 $288 $287 $319 $346 forward $289 $-1 #
edge $-1 -1 $-1 $330 -0.69999999999999996 $148 6.0233716884784028e-033 $317 $296 forward @7 unknown #
face $-1 -1 $-1 $327 $289 $16 $-1 $337 reversed single #
plane-surface $-1 -1 $-1 0 0 -0.69999999999999996 0 0 1 1 0 0 forward_v I I I I #
point $-1 -1 $-1 -3.75 0.69999999999999996 -0.69999999999999996 #
coedge $-1 -1 $-1 $321 $320 $300 $340 reversed $322 $-1 #
edge $-1 -1 $-1 $302 -3.75 $341 3.75 $339 $351 forward @7 unknown #
vertex $-1 -1 $-1 $301 $352 #
point $-1 -1 $-1 -3.75 -0.69999999999999996 0.69999999999999996 #
straight-curve $-1 -1 $-1 0 0.69999999999999996 0.69999999999999996 -1 0 0 I I #
point $-1 -1 $-1 -3.75 0.69999999999999996 0.69999999999999996 #
face $-1 -1 $-1 $307 $322 $16 $-1 $347 reversed single #
edge $-1 -1 $-1 $328 -3.75 $330 3.75 $319 $353 forward @7 unknown #
plane-surface $-1 -1 $-1 0 -0.69999999999999996 0 0 1 0 0 0 1 forward_v I I I I #
point $-1 -1 $-1 3.75 -0.69999999999999996 -0.69999999999999996 #
point $-1 -1 $-1 -3.75 -0.69999999999999996 -0.69999999999999996 #
straight-curve $-1 -1 $-1 0 0.69999999999999996 -0.69999999999999996 1 0 0 I I #
straight-curve $-1 -1 $-1 0 -0.69999999999999996 0.69999999999999996 1 0 0 I I #
point $-1 -1 $-1 3.75 -0.69999999999999996 0.69999999999999996 #
straight-curve $-1 -1 $-1 0 -0.69999999999999996 -0.69999999999999996 -1 0 0 I I #
End-of-ACIS-data 