700 0 2 0           
24 FBMach with ACIS - 7.0.3 13 ACIS 7.0.3 NT 24 Thu May 16 13:37:30 2002 
1 9.9999999999999995e-007 1e-010 
body $2 -1 $-1 $3 $-1 $4 #
bdycol-kcp $-1 -1 1 2 $5 $6 #
model_id-kcp-attrib $-1 -1 $-1 $-1 $0 1 1021570649 1021570649 462618625 1 #
lump $-1 -1 $-1 $-1 $7 $0 #
transform $-1 -1 1 0 0 0 1 0 0 0 1 0 0 0 1 rotate no_reflect no_shear #
body $8 -1 $-1 $9 $-1 $10 #
body $11 -1 $-1 $12 $-1 $13 #
shell $-1 -1 $-1 $-1 $-1 $14 $-1 $3 #
model_id-kcp-attrib $-1 -1 $-1 $-1 $5 1 1021570649 1021570649 462618626 1 #
lump $-1 -1 $-1 $-1 $15 $5 #
transform $-1 -1 1 0 0 0 1 0 0 0 1 1.75 0 -5.5511151231257827e-017 1 no_rotate no_reflect no_shear #
rgb_color-st-attrib $-1 -1 $16 $-1 $6 0.5 1 1 #
lump $-1 -1 $-1 $-1 $17 $6 #
transform $-1 -1 1 0 0 0 1 0 0 0 1 1.75 0 -5.5511151231257827e-017 1 no_rotate no_reflect no_shear #
face $18 -1 $-1 $19 $20 $7 $-1 $21 reversed single #
shell $-1 -1 $-1 $-1 $-1 $22 $-1 $9 #
model_id-kcp-attrib $-1 -1 $-1 $11 $6 1 1021570649 1021570650 453312515 1 #
shell $-1 -1 $-1 $-1 $-1 $23 $-1 $12 #
model_id-kcp-attrib $-1 -1 $-1 $-1 $14 1 1021570649 1021570649 462618625 2 #
face $24 -1 $-1 $25 $26 $7 $-1 $27 forward single #
loop $-1 -1 $-1 $-1 $28 $14 #
plane-surface $-1 -1 $-1 -2 0 0 1 0 0 0 -1 0 forward_v I I I I #
face $-1 -1 $-1 $29 $30 $15 $-1 $31 forward single #
face $-1 -1 $-1 $32 $33 $17 $-1 $34 reversed single #
model_id-kcp-attrib $-1 -1 $-1 $-1 $19 1 1021570649 1021570649 462618625 3 #
face $35 -1 $-1 $36 $37 $7 $-1 $38 forward single #
loop $-1 -1 $-1 $-1 $39 $19 #
cone-surface $-1 -1 $-1 -2 0 0 1 0 0 0 -0.69999999999999996 0 1 I I 0 1 0.69999999999999996 forward I I I I #
coedge $-1 -1 $-1 $40 $40 $41 $42 reversed $20 $-1 #
face $-1 -1 $-1 $43 $44 $15 $-1 $45 reversed single #
loop $-1 -1 $-1 $-1 $46 $22 #
plane-surface $-1 -1 $-1 0 0 0.69999999999999996 0 0 1 1 0 0 forward_v I I I I #
face $-1 -1 $-1 $47 $48 $17 $-1 $34 reversed single #
loop $-1 -1 $-1 $-1 $49 $23 #
cone-surface $-1 -1 $-1 -3.75 6.0233716884784028e-033 0 -1 0 0 0 -0.69999999999999996 5.5511151231257827e-017 1 I I 0 1 0.69999999999999996 forward I I I I #
model_id-kcp-attrib $-1 -1 $-1 $-1 $25 1 1021570649 1021570649 462618625 4 #
face $50 -1 $-1 $-1 $51 $7 $-1 $52 reversed single #
loop $-1 -1 $-1 $-1 $53 $25 #
cone-surface $-1 -1 $-1 -2 0 0 1 0 0 0 -0.69999999999999996 0 1 I I 0 1 0.69999999999999996 forward I I I I #
coedge $-1 -1 $-1 $54 $41 $55 $56 forward $26 $-1 #
coedge $-1 -1 $-1 $28 $28 $57 $58 reversed $20 $-1 #
coedge $-1 -1 $-1 $39 $59 $28 $42 forward $26 $-1 #
edge $60 -1 $-1 $61 0 $62 3.1415926535897931 $28 $63 forward @7 unknown #
face $-1 -1 $-1 $64 $65 $15 $-1 $66 reversed single #
loop $-1 -1 $-1 $-1 $67 $29 #
plane-surface $-1 -1 $-1 0 0 -0.69999999999999996 0 0 1 1 0 0 forward_v I I I I #
coedge $-1 -1 $-1 $68 $69 $70 $71 forward $30 $-1 #
face $-1 -1 $-1 $72 $73 $17 $-1 $34 reversed single #
loop $-1 -1 $-1 $-1 $74 $32 #
coedge $-1 -1 $-1 $75 $76 $77 $78 reversed $33 $-1 #
model_id-kcp-attrib $-1 -1 $-1 $-1 $36 1 1021570649 1021570649 462618625 5 #
loop $-1 -1 $-1 $-1 $79 $36 #
plane-surface $-1 -1 $-1 5.5 0 0 -1 0 0 0 1 0 forward_v I I I I #
coedge $-1 -1 $-1 $80 $57 $59 $81 forward $37 $-1 #
coedge $-1 -1 $-1 $59 $39 $79 $82 reversed $26 $-1 #
coedge $-1 -1 $-1 $57 $80 $39 $56 reversed $37 $-1 #
edge $-1 -1 $-1 $62 0 $83 7.5 $55 $84 forward @7 unknown #
coedge $-1 -1 $-1 $53 $55 $40 $58 forward $37 $-1 #
edge $85 -1 $-1 $62 0 $61 3.1415926535897931 $40 $86 forward @7 unknown #
coedge $-1 -1 $-1 $41 $54 $53 $81 reversed $26 $-1 #
attrib_edge_convexity-kcp-attrib $-1 -1 $87 $-1 $42 1 #
vertex $-1 -1 $-1 $58 $88 #
vertex $-1 -1 $-1 $58 $89 #
ellipse-curve $-1 -1 $-1 -2 0 0 1 0 0 0 0.69999999999999996 0 1 I I #
face $90 -1 $-1 $91 $92 $15 $-1 $93 reversed single #
loop $-1 -1 $-1 $-1 $94 $43 #
plane-surface $-1 -1 $-1 0 -0.69999999999999996 0 0 1 0 0 0 1 forward_v I I I I #
coedge $-1 -1 $-1 $95 $96 $97 $98 forward $44 $-1 #
coedge $-1 -1 $-1 $99 $46 $100 $101 forward $30 $-1 #
coedge $-1 -1 $-1 $46 $99 $102 $103 forward $30 $-1 #
coedge $-1 -1 $-1 $104 $105 $46 $71 reversed $106 $-1 #
edge $-1 -1 $-1 $107 -0.69999999999999996 $108 0.69999999999999996 $70 $109 forward @7 unknown #
face $-1 -1 $-1 $110 $111 $17 $-1 $34 reversed single #
loop $-1 -1 $-1 $-1 $112 $47 #
coedge $-1 -1 $-1 $113 $114 $115 $116 reversed $48 $-1 #
coedge $-1 -1 $-1 $117 $49 $118 $119 forward $33 $-1 #
coedge $-1 -1 $-1 $49 $117 $120 $121 reversed $33 $-1 #
coedge $-1 -1 $-1 $122 $123 $49 $78 forward $124 $-1 #
edge $-1 -1 $-1 $125 1.5707963267948966 $126 3.1415926535897931 $77 $127 forward @7 unknown #
coedge $-1 -1 $-1 $128 $128 $54 $82 forward $51 $-1 #
coedge $-1 -1 $-1 $55 $53 $128 $129 reversed $37 $-1 #
edge $-1 -1 $-1 $61 0 $130 7.5 $53 $131 forward @7 unknown #
edge $-1 -1 $-1 $130 0 $83 3.1415926535897931 $79 $132 forward @7 unknown #
vertex $-1 -1 $-1 $129 $133 #
straight-curve $-1 -1 $-1 -2 -0.69999999999999996 0 1 0 0 I I #
attrib_edge_convexity-kcp-attrib $-1 -1 $134 $-1 $58 1 #
ellipse-curve $-1 -1 $-1 -2 0 0 1 0 0 0 -0.69999999999999996 0 1 I I #
convexity-sys-attrib $-1 -1 $-1 $60 $42 #
point $-1 -1 $-1 -2 0.69999999999999996 0 #
point $-1 -1 $-1 -2 -0.69999999999999996 0 #
model_id-kcp-attrib $-1 -1 $-1 $-1 $64 1 1021570649 1021570649 462618626 2 #
face $-1 -1 $-1 $135 $136 $15 $-1 $137 reversed single #
loop $-1 -1 $-1 $-1 $138 $64 #
plane-surface $-1 -1 $-1 -3.75 0 0 1 0 0 0 0 -1 forward_v I I I I #
coedge $-1 -1 $-1 $139 $102 $140 $141 forward $65 $-1 #
coedge $-1 -1 $-1 $142 $67 $139 $143 forward $44 $-1 #
coedge $-1 -1 $-1 $67 $142 $144 $145 forward $44 $-1 #
coedge $-1 -1 $-1 $105 $104 $67 $98 reversed $106 $-1 #
edge $-1 -1 $-1 $146 -0.69999999999999996 $147 0.69999999999999996 $97 $148 forward @7 unknown #
coedge $-1 -1 $-1 $69 $68 $149 $150 forward $30 $-1 #
coedge $-1 -1 $-1 $151 $152 $68 $101 reversed $136 $-1 #
edge $-1 -1 $-1 $108 -3.75 $153 3.75 $100 $154 forward @7 unknown #
coedge $-1 -1 $-1 $94 $155 $69 $103 reversed $65 $-1 #
edge $-1 -1 $-1 $156 -3.75 $107 3.75 $102 $157 forward @7 unknown #
coedge $-1 -1 $-1 $97 $70 $155 $158 forward $106 $-1 #
coedge $-1 -1 $-1 $70 $97 $151 $159 reversed $106 $-1 #
loop $-1 -1 $-1 $-1 $104 $135 #
vertex $-1 -1 $-1 $71 $160 #
vertex $-1 -1 $-1 $71 $161 #
straight-curve $-1 -1 $-1 3.75 0 0.69999999999999996 0 1 0 I I #
face $-1 -1 $-1 $162 $163 $17 $-1 $164 reversed single #
loop $-1 -1 $-1 $-1 $165 $72 #
coedge $-1 -1 $-1 $166 $167 $165 $168 forward $73 $-1 #
coedge $-1 -1 $-1 $169 $74 $170 $171 reversed $48 $-1 #
coedge $-1 -1 $-1 $74 $169 $76 $121 forward $48 $-1 #
coedge $-1 -1 $-1 $172 $173 $74 $116 forward $174 $-1 #
edge $-1 -1 $-1 $175 1.5707963267948968 $176 3.1415926535897931 $115 $177 forward @7 unknown #
coedge $-1 -1 $-1 $76 $75 $178 $179 reversed $33 $-1 #
coedge $-1 -1 $-1 $167 $166 $180 $119 reversed $73 $-1 #
edge $-1 -1 $-1 $125 -7.5 $181 0 $180 $182 forward @7 unknown #
coedge $-1 -1 $-1 $183 $184 $185 $121 forward $186 $-1 #
edge $-1 -1 $-1 $126 -7.5 $176 0 $120 $187 forward @7 unknown #
coedge $-1 -1 $-1 $123 $77 $184 $188 reversed $124 $-1 #
coedge $-1 -1 $-1 $77 $122 $189 $190 reversed $124 $-1 #
loop $-1 -1 $-1 $-1 $77 $191 #
vertex $-1 -1 $-1 $190 $192 #
vertex $-1 -1 $-1 $193 $194 #
ellipse-curve $-1 -1 $-1 3.75 6.0233716884784028e-033 0 -1 0 0 0 -0.69999999999999996 5.5511151231257827e-017 1 I I #
coedge $-1 -1 $-1 $79 $79 $80 $129 forward $51 $-1 #
edge $-1 -1 $-1 $83 0 $130 3.1415926535897931 $128 $195 forward @7 unknown #
vertex $-1 -1 $-1 $129 $196 #
straight-curve $-1 -1 $-1 -2 0.69999999999999996 -8.5722444767566406e-017 1 0 0 I I #
ellipse-curve $-1 -1 $-1 5.5 8.3266726846886741e-017 -2.7755575615628914e-017 1 0 0 0 0.69999999999999984 2.7755575615628914e-017 1 I I #
point $-1 -1 $-1 5.5 -0.69999999999999996 0 #
convexity-sys-attrib $-1 -1 $-1 $85 $58 #
face $197 -1 $-1 $-1 $106 $15 $-1 $198 reversed single #
loop $-1 -1 $-1 $-1 $151 $91 #
plane-surface $-1 -1 $-1 0 0.69999999999999996 0 0 -1 0 0 0 -1 forward_v I I I I #
coedge $-1 -1 $-1 $199 $149 $152 $200 forward $92 $-1 #
coedge $-1 -1 $-1 $155 $94 $95 $143 reversed $65 $-1 #
coedge $-1 -1 $-1 $149 $199 $94 $141 reversed $92 $-1 #
edge $-1 -1 $-1 $156 -0.69999999999999996 $201 0.69999999999999996 $140 $202 forward @7 unknown #
coedge $-1 -1 $-1 $96 $95 $199 $203 forward $44 $-1 #
edge $-1 -1 $-1 $147 -3.75 $201 3.75 $139 $204 forward @7 unknown #
coedge $-1 -1 $-1 $152 $151 $96 $145 reversed $136 $-1 #
edge $-1 -1 $-1 $205 -3.75 $146 3.75 $144 $206 forward @7 unknown #
vertex $-1 -1 $-1 $98 $207 #
vertex $-1 -1 $-1 $158 $208 #
straight-curve $-1 -1 $-1 3.75 0 -0.69999999999999996 0 -1 0 I I #
coedge $-1 -1 $-1 $138 $140 $99 $150 reversed $92 $-1 #
edge $-1 -1 $-1 $153 -0.69999999999999996 $156 0.69999999999999996 $149 $209 forward @7 unknown #
coedge $-1 -1 $-1 $144 $100 $105 $159 forward $136 $-1 #
coedge $-1 -1 $-1 $100 $144 $138 $200 reversed $136 $-1 #
vertex $-1 -1 $-1 $101 $210 #
straight-curve $-1 -1 $-1 0 0.69999999999999996 0.69999999999999996 -1 0 0 I I #
coedge $-1 -1 $-1 $102 $139 $104 $158 reversed $65 $-1 #
vertex $-1 -1 $-1 $150 $211 #
straight-curve $-1 -1 $-1 0 -0.69999999999999996 0.69999999999999996 1 0 0 I I #
edge $-1 -1 $-1 $107 -0.69999999999999996 $147 0.69999999999999996 $104 $212 forward @7 unknown #
edge $-1 -1 $-1 $108 -0.69999999999999996 $146 0.69999999999999996 $105 $213 forward @7 unknown #
point $-1 -1 $-1 3.75 -0.69999999999999996 0.69999999999999996 #
point $-1 -1 $-1 3.75 0.69999999999999996 0.69999999999999996 #
face $-1 -1 $-1 $214 $215 $17 $-1 $216 forward single #
loop $-1 -1 $-1 $-1 $185 $110 #
plane-surface $-1 -1 $-1 0 0.69999999999999996 0 0 -1 0 0 0 -1 forward_v I I I I #
coedge $-1 -1 $-1 $217 $218 $219 $168 reversed $111 $-1 #
coedge $-1 -1 $-1 $118 $112 $220 $221 reversed $73 $-1 #
coedge $-1 -1 $-1 $112 $118 $222 $223 reversed $73 $-1 #
edge $-1 -1 $-1 $224 -7.5 $225 0 $219 $226 forward @7 unknown #
coedge $-1 -1 $-1 $114 $113 $227 $228 reversed $48 $-1 #
coedge $-1 -1 $-1 $229 $230 $231 $171 forward $232 $-1 #
edge $-1 -1 $-1 $233 -7.5 $175 0 $170 $234 forward @7 unknown #
coedge $-1 -1 $-1 $173 $115 $235 $236 forward $174 $-1 #
coedge $-1 -1 $-1 $115 $172 $229 $237 reversed $174 $-1 #
loop $-1 -1 $-1 $-1 $115 $238 #
vertex $-1 -1 $-1 $237 $239 #
vertex $-1 -1 $-1 $236 $240 #
ellipse-curve $-1 -1 $-1 -3.75 6.0233716884784028e-033 0 1 0 0 0 -0.69999999999999996 5.5511151231257827e-017 1 I I #
coedge $-1 -1 $-1 $241 $242 $117 $179 forward $243 $-1 #
edge $-1 -1 $-1 $176 -3.1415926535897931 $181 -1.5707963267948966 $178 $177 forward @7 unknown #
coedge $-1 -1 $-1 $244 $245 $246 $119 forward $215 $-1 #
vertex $-1 -1 $-1 $247 $248 #
straight-curve $-1 -1 $-1 -3.75 6.0233716884784028e-033 0.69999999999999996 -1 0 0 I I #
coedge $-1 -1 $-1 $249 $120 $242 $250 reversed $186 $-1 #
coedge $-1 -1 $-1 $120 $249 $122 $188 forward $186 $-1 #
coedge $-1 -1 $-1 $251 $235 $114 $121 reversed $163 $-1 #
loop $-1 -1 $-1 $-1 $120 $252 #
straight-curve $-1 -1 $-1 -3.75 0.69999999999999996 0 -1 0 0 I I #
edge $-1 -1 $-1 $253 -0.69999999999999996 $126 0 $122 $254 forward @7 unknown #
coedge $-1 -1 $-1 $255 $246 $123 $190 forward $256 $-1 #
edge $-1 -1 $-1 $125 6.0233716884784028e-033 $253 0.69999999999999996 $123 $257 forward @7 unknown #
face $-1 -1 $-1 $258 $124 $17 $-1 $259 reversed single #
point $-1 -1 $-1 3.75 6.0233716884784028e-033 0.69999999999999996 #
edge $-1 -1 $-1 $126 0 $260 0.69999999999999996 $261 $254 forward @7 unknown #
point $-1 -1 $-1 3.75 0.69999999999999996 0 #
ellipse-curve $-1 -1 $-1 5.5 0 -5.5511151231257827e-017 1 0 0 0 -0.69999999999999996 5.5511151231257827e-017 1 I I #
point $-1 -1 $-1 5.5 0.69999999999999996 0 #
model_id-kcp-attrib $-1 -1 $-1 $-1 $135 1 1021570649 1021570649 462618626 3 #
plane-surface $-1 -1 $-1 3.75 0 0 -1 0 0 0 0 1 forward_v I I I I #
coedge $-1 -1 $-1 $140 $138 $142 $203 reversed $92 $-1 #
edge $-1 -1 $-1 $153 -0.69999999999999996 $205 0.69999999999999996 $152 $262 forward @7 unknown #
vertex $-1 -1 $-1 $203 $263 #
straight-curve $-1 -1 $-1 -3.75 -0.69999999999999996 0 0 0 -1 I I #
edge $-1 -1 $-1 $201 -0.69999999999999996 $205 0.69999999999999996 $199 $264 forward @7 unknown #
straight-curve $-1 -1 $-1 0 -0.69999999999999996 -0.69999999999999996 -1 0 0 I I #
vertex $-1 -1 $-1 $145 $265 #
straight-curve $-1 -1 $-1 0 0.69999999999999996 -0.69999999999999996 1 0 0 I I #
point $-1 -1 $-1 3.75 0.69999999999999996 -0.69999999999999996 #
point $-1 -1 $-1 3.75 -0.69999999999999996 -0.69999999999999996 #
straight-curve $-1 -1 $-1 -3.75 0 0.69999999999999996 0 -1 0 I I #
point $-1 -1 $-1 -3.75 0.69999999999999996 0.69999999999999996 #
point $-1 -1 $-1 -3.75 -0.69999999999999996 0.69999999999999996 #
straight-curve $-1 -1 $-1 3.75 -0.69999999999999996 0 0 0 -1 I I #
straight-curve $-1 -1 $-1 3.75 0.69999999999999996 0 0 0 -1 I I #
face $-1 -1 $-1 $238 $266 $17 $-1 $267 reversed single #
loop $-1 -1 $-1 $-1 $180 $162 #
plane-surface $-1 -1 $-1 0 0 0.69999999999999996 0 0 1 1 0 0 forward_v I I I I #
coedge $-1 -1 $-1 $268 $165 $269 $270 reversed $111 $-1 #
coedge $-1 -1 $-1 $165 $268 $271 $272 reversed $111 $-1 #
coedge $-1 -1 $-1 $273 $274 $275 $168 forward $276 $-1 #
coedge $-1 -1 $-1 $277 $278 $166 $221 forward $279 $-1 #
edge $-1 -1 $-1 $181 -1.5707963267948966 $225 7.9301644616082612e-017 $220 $177 forward @7 unknown #
coedge $-1 -1 $-1 $280 $281 $167 $223 forward $282 $-1 #
edge $-1 -1 $-1 $224 -7.9301644616082612e-017 $125 1.5707963267948966 $222 $127 forward @7 unknown #
vertex $-1 -1 $-1 $283 $284 #
vertex $-1 -1 $-1 $285 $286 #
straight-curve $-1 -1 $-1 -3.75 -0.69999999999999996 0 -1 0 0 I I #
coedge $-1 -1 $-1 $287 $261 $169 $228 forward $288 $-1 #
edge $-1 -1 $-1 $126 -3.1415926535897931 $233 -1.5707963267948968 $227 $127 forward @7 unknown #
coedge $-1 -1 $-1 $289 $170 $173 $237 forward $232 $-1 #
coedge $-1 -1 $-1 $170 $289 $287 $290 forward $232 $-1 #
coedge $-1 -1 $-1 $291 $292 $268 $171 reversed $293 $-1 #
loop $-1 -1 $-1 $-1 $170 $294 #
vertex $-1 -1 $-1 $295 $296 #
straight-curve $-1 -1 $-1 -3.75 6.0233716884784028e-033 -0.69999999999999996 -1 0 0 I I #
coedge $-1 -1 $-1 $185 $297 $172 $236 reversed $163 $-1 #
edge $-1 -1 $-1 $176 0 $298 0.69999999999999996 $235 $299 forward @7 unknown #
edge $-1 -1 $-1 $175 6.0233716884784028e-033 $298 0.69999999999999996 $173 $300 forward @7 unknown #
face $-1 -1 $-1 $301 $174 $17 $-1 $267 reversed single #
point $-1 -1 $-1 -3.75 6.0233716884784028e-033 -0.69999999999999996 #
point $-1 -1 $-1 -3.75 0.69999999999999996 0 #
coedge $-1 -1 $-1 $242 $178 $302 $303 reversed $243 $-1 #
coedge $-1 -1 $-1 $178 $241 $183 $250 forward $243 $-1 #
loop $-1 -1 $-1 $-1 $178 $301 #
coedge $-1 -1 $-1 $304 $180 $278 $247 forward $215 $-1 #
coedge $-1 -1 $-1 $180 $304 $280 $305 forward $215 $-1 #
coedge $-1 -1 $-1 $189 $302 $75 $119 reversed $256 $-1 #
edge $-1 -1 $-1 $181 -6.0233716884784028e-033 $306 0.69999999999999996 $278 $307 forward @7 unknown #
point $-1 -1 $-1 -3.75 6.0233716884784028e-033 0.69999999999999996 #
coedge $-1 -1 $-1 $184 $183 $255 $308 reversed $186 $-1 #
edge $-1 -1 $-1 $309 -0.69999999999999996 $176 0 $183 $299 forward @7 unknown #
coedge $-1 -1 $-1 $297 $185 $261 $193 forward $163 $-1 #
face $-1 -1 $-1 $-1 $186 $17 $-1 $164 reversed single #
vertex $-1 -1 $-1 $190 $310 #
straight-curve $-1 -1 $-1 3.75 0.69999999999999996 0 0 0 -1 I I #
coedge $-1 -1 $-1 $302 $189 $249 $308 forward $256 $-1 #
loop $-1 -1 $-1 $-1 $246 $311 #
straight-curve $-1 -1 $-1 3.75 0 0.69999999999999996 0 1 0 I I #
face $-1 -1 $-1 $312 $288 $17 $-1 $259 reversed single #
plane-surface $-1 -1 $-1 3.75 0 0 -1 0 0 0 0 1 forward_v I I I I #
vertex $-1 -1 $-1 $290 $313 #
coedge $-1 -1 $-1 $227 $287 $251 $193 reversed $288 $-1 #
straight-curve $-1 -1 $-1 -3.75 0.69999999999999996 0 0 0 -1 I I #
point $-1 -1 $-1 -3.75 -0.69999999999999996 -0.69999999999999996 #
straight-curve $-1 -1 $-1 -3.75 0 -0.69999999999999996 0 1 0 I I #
point $-1 -1 $-1 -3.75 0.69999999999999996 -0.69999999999999996 #
loop $-1 -1 $-1 $-1 $271 $214 #
plane-surface $-1 -1 $-1 -3.75 0 0 1 0 0 0 0 -1 forward_v I I I I #
coedge $-1 -1 $-1 $218 $217 $113 $171 forward $111 $-1 #
coedge $-1 -1 $-1 $314 $315 $217 $270 forward $316 $-1 #
edge $-1 -1 $-1 $233 -1.5707963267948968 $224 -7.9301644616082612e-017 $269 $127 forward @7 unknown #
coedge $-1 -1 $-1 $317 $318 $218 $272 forward $266 $-1 #
edge $-1 -1 $-1 $225 7.9301644616082612e-017 $175 1.5707963267948968 $271 $177 forward @7 unknown #
coedge $-1 -1 $-1 $319 $219 $318 $285 forward $276 $-1 #
coedge $-1 -1 $-1 $219 $319 $314 $283 reversed $276 $-1 #
coedge $-1 -1 $-1 $320 $321 $112 $168 reversed $322 $-1 #
loop $-1 -1 $-1 $-1 $219 $323 #
coedge $-1 -1 $-1 $278 $220 $321 $324 reversed $279 $-1 #
coedge $-1 -1 $-1 $220 $277 $244 $247 reversed $279 $-1 #
loop $-1 -1 $-1 $-1 $220 $325 #
coedge $-1 -1 $-1 $281 $222 $245 $305 reversed $282 $-1 #
coedge $-1 -1 $-1 $222 $280 $320 $326 forward $282 $-1 #
loop $-1 -1 $-1 $-1 $222 $327 #
edge $-1 -1 $-1 $224 0 $328 0.69999999999999996 $314 $329 forward @7 unknown #
point $-1 -1 $-1 3.75 -0.69999999999999996 0 #
edge $-1 -1 $-1 $225 0 $330 0.69999999999999996 $318 $331 forward @7 unknown #
point $-1 -1 $-1 -3.75 -0.69999999999999996 0 #
coedge $-1 -1 $-1 $261 $227 $230 $290 reversed $288 $-1 #
loop $-1 -1 $-1 $-1 $227 $258 #
coedge $-1 -1 $-1 $230 $229 $297 $332 forward $232 $-1 #
edge $-1 -1 $-1 $260 -0.69999999999999996 $233 -6.0233716884784028e-033 $287 $333 forward @7 unknown #
coedge $-1 -1 $-1 $334 $231 $315 $295 forward $293 $-1 #
coedge $-1 -1 $-1 $231 $334 $317 $335 forward $293 $-1 #
loop $-1 -1 $-1 $-1 $231 $336 #
face $-1 -1 $-1 $323 $232 $17 $-1 $337 reversed single #
edge $-1 -1 $-1 $233 -6.0233716884784028e-033 $328 0.69999999999999996 $315 $333 forward @7 unknown #
point $-1 -1 $-1 3.75 6.0233716884784028e-033 -0.69999999999999996 #
coedge $-1 -1 $-1 $235 $251 $289 $332 reversed $163 $-1 #
vertex $-1 -1 $-1 $332 $338 #
straight-curve $-1 -1 $-1 -3.75 0.69999999999999996 0 0 0 -1 I I #
straight-curve $-1 -1 $-1 -3.75 0 -0.69999999999999996 0 1 0 I I #
face $-1 -1 $-1 $325 $243 $17 $-1 $267 reversed single #
coedge $-1 -1 $-1 $246 $255 $241 $303 forward $256 $-1 #
edge $-1 -1 $-1 $309 -0.69999999999999996 $181 -6.0233716884784028e-033 $241 $307 forward @7 unknown #
coedge $-1 -1 $-1 $245 $244 $339 $340 forward $215 $-1 #
edge $-1 -1 $-1 $341 -0.69999999999999996 $125 6.0233716884784028e-033 $280 $257 forward @7 unknown #
vertex $-1 -1 $-1 $247 $342 #
straight-curve $-1 -1 $-1 -3.75 0 0.69999999999999996 0 -1 0 I I #
edge $-1 -1 $-1 $253 -3.75 $309 3.75 $249 $343 forward @7 unknown #
vertex $-1 -1 $-1 $308 $344 #
point $-1 -1 $-1 3.75 0.69999999999999996 0.69999999999999996 #
face $-1 -1 $-1 $294 $256 $17 $-1 $216 forward single #
face $-1 -1 $-1 $345 $316 $17 $-1 $259 reversed single #
point $-1 -1 $-1 3.75 0.69999999999999996 -0.69999999999999996 #
coedge $-1 -1 $-1 $315 $269 $274 $283 forward $316 $-1 #
coedge $-1 -1 $-1 $269 $314 $291 $295 reversed $316 $-1 #
loop $-1 -1 $-1 $-1 $269 $312 #
coedge $-1 -1 $-1 $318 $271 $292 $335 reversed $266 $-1 #
coedge $-1 -1 $-1 $271 $317 $273 $285 reversed $266 $-1 #
coedge $-1 -1 $-1 $274 $273 $334 $346 reversed $276 $-1 #
coedge $-1 -1 $-1 $339 $275 $281 $326 reversed $322 $-1 #
coedge $-1 -1 $-1 $275 $339 $277 $324 forward $322 $-1 #
loop $-1 -1 $-1 $-1 $275 $345 #
face $-1 -1 $-1 $252 $276 $17 $-1 $347 reversed single #
edge $-1 -1 $-1 $306 -0.69999999999999996 $225 0 $277 $331 forward @7 unknown #
face $-1 -1 $-1 $336 $279 $17 $-1 $267 reversed single #
edge $-1 -1 $-1 $341 -0.69999999999999996 $224 0 $281 $329 forward @7 unknown #
face $-1 -1 $-1 $191 $282 $17 $-1 $259 reversed single #
vertex $-1 -1 $-1 $283 $348 #
straight-curve $-1 -1 $-1 3.75 -0.69999999999999996 0 0 0 -1 I I #
vertex $-1 -1 $-1 $335 $349 #
straight-curve $-1 -1 $-1 -3.75 -0.69999999999999996 0 0 0 -1 I I #
edge $-1 -1 $-1 $298 -3.75 $260 3.75 $297 $350 forward @7 unknown #
straight-curve $-1 -1 $-1 3.75 0 -0.69999999999999996 0 -1 0 I I #
coedge $-1 -1 $-1 $292 $291 $319 $346 forward $293 $-1 #
edge $-1 -1 $-1 $330 -0.69999999999999996 $175 6.0233716884784028e-033 $317 $300 forward @7 unknown #
face $-1 -1 $-1 $327 $293 $17 $-1 $337 reversed single #
plane-surface $-1 -1 $-1 0 0 -0.69999999999999996 0 0 1 1 0 0 forward_v I I I I #
point $-1 -1 $-1 -3.75 0.69999999999999996 -0.69999999999999996 #
coedge $-1 -1 $-1 $321 $320 $304 $340 reversed $322 $-1 #
edge $-1 -1 $-1 $306 -3.75 $341 3.75 $339 $351 forward @7 unknown #
vertex $-1 -1 $-1 $305 $352 #
point $-1 -1 $-1 -3.75 -0.69999999999999996 0.69999999999999996 #
straight-curve $-1 -1 $-1 0 0.69999999999999996 0.69999999999999996 -1 0 0 I I #
point $-1 -1 $-1 -3.75 0.69999999999999996 0.69999999999999996 #
face $-1 -1 $-1 $311 $322 $17 $-1 $347 reversed single #
edge $-1 -1 $-1 $328 -3.75 $330 3.75 $319 $353 forward @7 unknown #
plane-surface $-1 -1 $-1 0 -0.69999999999999996 0 0 1 0 0 0 1 forward_v I I I I #
point $-1 -1 $-1 3.75 -0.69999999999999996 -0.69999999999999996 #
point $-1 -1 $-1 -3.75 -0.69999999999999996 -0.69999999999999996 #
straight-curve $-1 -1 $-1 0 0.69999999999999996 -0.69999999999999996 1 0 0 I I #
straight-curve $-1 -1 $-1 0 -0.69999999999999996 0.69999999999999996 1 0 0 I I #
point $-1 -1 $-1 3.75 -0.69999999999999996 0.69999999999999996 #
straight-curve $-1 -1 $-1 0 -0.69999999999999996 -0.69999999999999996 -1 0 0 I I #
End-of-ACIS-data 