700 0 2 0           
24 FBMach with ACIS - 7.0.3 13 ACIS 7.0.3 NT 24 Thu May 16 15:07:34 2002 
1 9.9999999999999995e-007 1e-010 
body $2 -1 $-1 $3 $-1 $4 #
bdycol-kcp $-1 -1 1 3 $5 $6 $7 #
model_id-kcp-attrib $-1 -1 $-1 $-1 $0 1 1021576052 1021576052 1457717249 1 #
lump $-1 -1 $-1 $-1 $8 $0 #
transform $-1 -1 1 0 0 0 1 0 0 0 1 0 0 0 1 rotate no_reflect no_shear #
body $9 -1 $-1 $10 $-1 $11 #
body $12 -1 $-1 $13 $-1 $14 #
body $15 -1 $-1 $16 $-1 $17 #
shell $-1 -1 $-1 $-1 $-1 $18 $-1 $3 #
model_id-kcp-attrib $-1 -1 $-1 $-1 $5 1 1021576052 1021576053 1443168258 1 #
lump $-1 -1 $-1 $-1 $19 $5 #
transform $-1 -1 1 0 0 0 1 0 0 0 1 -11.25 8.8817841970012523e-016 0 1 no_rotate no_reflect no_shear #
rgb_color-st-attrib $-1 -1 $20 $-1 $6 0.5 1 1 #
lump $-1 -1 $-1 $-1 $21 $6 #
transform $-1 -1 1 0 0 0 1 0 0 0 1 -11.25 8.8817841970012523e-016 0 1 no_rotate no_reflect no_shear #
rgb_color-st-attrib $-1 -1 $22 $-1 $7 0 0 1 #
lump $-1 -1 $-1 $-1 $23 $7 #
transform $-1 -1 1 0 0 0 1 0 0 0 1 -11.25 8.8817841970012523e-016 0 1 no_rotate no_reflect no_shear #
face $24 -1 $-1 $25 $26 $8 $-1 $27 forward single #
shell $-1 -1 $-1 $-1 $-1 $28 $-1 $10 #
model_id-kcp-attrib $-1 -1 $-1 $12 $6 1 1021576052 1021576053 1451032579 1 #
shell $-1 -1 $-1 $-1 $-1 $29 $-1 $13 #
model_id-kcp-attrib $-1 -1 $-1 $15 $7 1 1021576052 1021576053 1456865284 1 #
shell $-1 -1 $-1 $-1 $-1 $30 $-1 $16 #
model_id-kcp-attrib $-1 -1 $-1 $-1 $18 1 1021576052 1021576052 1457717249 2 #
face $31 -1 $-1 $32 $33 $8 $-1 $34 forward single #
loop $-1 -1 $-1 $-1 $35 $18 #
cone-surface $-1 -1 $-1 -21.424999999999997 0 0 1 0 0 0 -9.5 0 1 I I 0 1 9.5 forward I I I I #
face $-1 -1 $-1 $36 $37 $19 $-1 $38 forward single #
face $-1 -1 $-1 $39 $40 $21 $-1 $41 reversed single #
face $-1 -1 $-1 $42 $43 $23 $-1 $44 reversed single #
model_id-kcp-attrib $-1 -1 $-1 $-1 $25 1 1021576052 1021576052 1457717249 3 #
face $45 -1 $-1 $46 $47 $8 $-1 $48 forward single #
loop $-1 -1 $-1 $-1 $49 $25 #
torus-surface $-1 -1 $-1 -3.1999999999999997 0 0 1 0 0 8.2999999999999989 1.2 0 -1 0 forward_v I I I I #
coedge $-1 -1 $-1 $50 $51 $52 $53 forward $26 $-1 #
face $-1 -1 $-1 $54 $55 $19 $-1 $56 reversed single #
loop $-1 -1 $-1 $-1 $57 $28 #
plane-surface $-1 -1 $-1 0 0 9.5 0 0 1 1 0 0 forward_v I I I I #
face $-1 -1 $-1 $58 $59 $21 $-1 $41 reversed single #
loop $-1 -1 $-1 $-1 $60 $29 #
cone-surface $-1 -1 $-1 9.25 8.8817841970012523e-016 0 1 0 0 0 9.5 1.1633760361312584e-015 1 I I 0 1 9.5 forward I I I I #
face $-1 -1 $-1 $61 $62 $23 $-1 $63 reversed single #
loop $-1 -1 $-1 $-1 $64 $30 #
plane-surface $-1 -1 $-1 -9.25 0 0 1 0 0 0 0 -1 forward_v I I I I #
model_id-kcp-attrib $-1 -1 $-1 $-1 $32 1 1021576052 1021576052 1457717249 4 #
face $65 -1 $-1 $66 $67 $8 $-1 $68 forward single #
loop $-1 -1 $-1 $-1 $69 $32 #
plane-surface $-1 -1 $-1 -2 0 0 1 0 0 0 -1 0 forward_v I I I I #
coedge $-1 -1 $-1 $70 $71 $69 $72 forward $33 $-1 #
coedge $-1 -1 $-1 $73 $35 $74 $75 forward $26 $-1 #
coedge $-1 -1 $-1 $35 $73 $76 $77 reversed $26 $-1 #
coedge $-1 -1 $-1 $71 $70 $35 $53 reversed $33 $-1 #
edge $-1 -1 $-1 $78 0 $79 3.1415926535897931 $35 $80 forward @7 unknown #
face $-1 -1 $-1 $81 $82 $19 $-1 $83 reversed single #
loop $-1 -1 $-1 $-1 $84 $36 #
plane-surface $-1 -1 $-1 0 0 -9.5 0 0 1 1 0 0 forward_v I I I I #
coedge $-1 -1 $-1 $85 $86 $87 $88 forward $37 $-1 #
face $-1 -1 $-1 $89 $90 $21 $-1 $41 reversed single #
loop $-1 -1 $-1 $-1 $91 $39 #
coedge $-1 -1 $-1 $92 $93 $94 $95 reversed $40 $-1 #
face $-1 -1 $-1 $96 $97 $23 $-1 $98 forward single #
loop $-1 -1 $-1 $-1 $99 $42 #
plane-surface $-1 -1 $-1 9.0499999999999972 -8.8817841970012523e-016 -1.7763568394002505e-015 -1 0 0 0 -1 0 forward_v I I I I #
coedge $-1 -1 $-1 $100 $100 $101 $102 forward $43 $-1 #
model_id-kcp-attrib $-1 -1 $-1 $-1 $46 1 1021576052 1021576052 1457717249 5 #
face $103 -1 $-1 $104 $105 $8 $-1 $106 forward single #
loop $-1 -1 $-1 $-1 $107 $46 #
torus-surface $-1 -1 $-1 -3.1999999999999997 0 0 1 0 0 8.2999999999999989 1.2 0 -1 0 forward_v I I I I #
coedge $-1 -1 $-1 $108 $108 $49 $72 reversed $47 $-1 #
coedge $-1 -1 $-1 $52 $49 $109 $110 forward $33 $-1 #
coedge $-1 -1 $-1 $49 $52 $111 $112 reversed $33 $-1 #
edge $113 -1 $-1 $114 0 $115 3.1415926535897931 $49 $116 forward @7 unknown #
coedge $-1 -1 $-1 $51 $50 $117 $118 reversed $26 $-1 #
coedge $-1 -1 $-1 $119 $120 $50 $75 reversed $105 $-1 #
edge $-1 -1 $-1 $79 0 $121 17.300000000000001 $50 $122 forward @7 unknown #
coedge $-1 -1 $-1 $120 $119 $51 $77 forward $105 $-1 #
edge $-1 -1 $-1 $78 0 $123 17.299999999999997 $51 $124 forward @7 unknown #
vertex $-1 -1 $-1 $77 $125 #
vertex $-1 -1 $-1 $75 $126 #
ellipse-curve $-1 -1 $-1 -3.1999999999999993 0 0 -1 0 0 0 9.5 1.1633760361312584e-015 1 I I #
face $127 -1 $-1 $128 $129 $19 $-1 $130 reversed single #
loop $-1 -1 $-1 $-1 $131 $54 #
plane-surface $-1 -1 $-1 0 -9.5 0 0 1 0 0 0 1 forward_v I I I I #
coedge $-1 -1 $-1 $132 $133 $134 $135 forward $55 $-1 #
coedge $-1 -1 $-1 $136 $57 $137 $138 forward $37 $-1 #
coedge $-1 -1 $-1 $57 $136 $139 $140 forward $37 $-1 #
coedge $-1 -1 $-1 $141 $142 $57 $88 reversed $143 $-1 #
edge $-1 -1 $-1 $144 -9.5 $145 9.5 $87 $146 forward @7 unknown #
face $-1 -1 $-1 $147 $148 $21 $-1 $41 reversed single #
loop $-1 -1 $-1 $-1 $149 $58 #
coedge $-1 -1 $-1 $150 $151 $152 $153 reversed $59 $-1 #
coedge $-1 -1 $-1 $154 $60 $155 $156 forward $40 $-1 #
coedge $-1 -1 $-1 $60 $154 $157 $158 reversed $40 $-1 #
coedge $-1 -1 $-1 $159 $160 $60 $95 forward $161 $-1 #
edge $-1 -1 $-1 $162 -1.5707963267948968 $163 -1.2246063538223773e-016 $94 $164 forward @7 unknown #
face $-1 -1 $-1 $165 $166 $23 $-1 $167 forward single #
loop $-1 -1 $-1 $-1 $168 $61 #
torus-surface $-1 -1 $-1 8.0500000000000007 -8.8817841970012523e-016 0 1 0 0 8.2999999999999989 1 0 -1 0 forward_v I I I I #
coedge $-1 -1 $-1 $169 $169 $170 $171 forward $62 $-1 #
coedge $-1 -1 $-1 $64 $64 $172 $173 forward $43 $-1 #
coedge $-1 -1 $-1 $174 $175 $64 $102 reversed $176 $-1 #
edge $-1 -1 $-1 $177 -3.1415926535897931 $178 0 $64 $179 forward @7 unknown #
model_id-kcp-attrib $-1 -1 $-1 $-1 $66 1 1021576052 1021576052 1457717249 6 #
face $180 -1 $-1 $181 $182 $8 $-1 $183 forward single #
loop $-1 -1 $-1 $-1 $120 $66 #
cone-surface $-1 -1 $-1 -21.424999999999997 0 0 1 0 0 0 -9.5 0 1 I I 0 1 9.5 forward I I I I #
coedge $-1 -1 $-1 $109 $111 $119 $184 forward $67 $-1 #
coedge $-1 -1 $-1 $69 $69 $185 $186 forward $47 $-1 #
coedge $-1 -1 $-1 $185 $107 $70 $110 reversed $67 $-1 #
edge $-1 -1 $-1 $115 -4.1490613303745785e-031 $79 1.5707963267948966 $70 $187 forward @7 unknown #
coedge $-1 -1 $-1 $107 $185 $71 $112 forward $67 $-1 #
edge $-1 -1 $-1 $114 0 $78 1.5707963267948966 $71 $188 forward @7 unknown #
attrib_edge_convexity-kcp-attrib $-1 -1 $189 $-1 $72 3 #
vertex $-1 -1 $-1 $112 $190 #
vertex $-1 -1 $-1 $110 $191 #
ellipse-curve $-1 -1 $-1 -2 2.2204460492503131e-016 4.4408920985006262e-016 -1 2.6752362039160401e-017 1.8447335039426184e-033 2.2204460492503131e-016 8.2999999999999989 5.7233406382251035e-016 1 I I #
coedge $-1 -1 $-1 $192 $193 $73 $118 forward $194 $-1 #
edge $-1 -1 $-1 $123 -1.2246063538223775e-016 $121 3.1415926535897931 $73 $195 forward @7 unknown #
coedge $-1 -1 $-1 $76 $74 $107 $184 reversed $105 $-1 #
coedge $-1 -1 $-1 $74 $76 $196 $197 forward $105 $-1 #
vertex $-1 -1 $-1 $118 $198 #
straight-curve $-1 -1 $-1 -3.1999999999999993 -9.5 -2.3267520722625168e-015 -1 0 0 I I #
vertex $-1 -1 $-1 $77 $199 #
straight-curve $-1 -1 $-1 -3.1999999999999993 9.5 1.1633760361312584e-015 -1 0 0 I I #
point $-1 -1 $-1 -3.1999999999999993 9.4999999999999982 1.1633760361312582e-015 #
point $-1 -1 $-1 -3.1999999999999993 -9.5 -2.3267520722625168e-015 #
model_id-kcp-attrib $-1 -1 $-1 $-1 $81 1 1021576052 1021576053 1443168258 3 #
face $-1 -1 $-1 $200 $201 $19 $-1 $202 reversed single #
loop $-1 -1 $-1 $-1 $203 $81 #
plane-surface $-1 -1 $-1 -9.25 0 0 1 0 0 0 0 -1 forward_v I I I I #
coedge $-1 -1 $-1 $204 $139 $205 $206 forward $82 $-1 #
coedge $-1 -1 $-1 $207 $84 $204 $208 forward $55 $-1 #
coedge $-1 -1 $-1 $84 $207 $209 $210 forward $55 $-1 #
coedge $-1 -1 $-1 $142 $141 $84 $135 reversed $143 $-1 #
edge $-1 -1 $-1 $211 -9.5 $212 9.5 $134 $213 forward @7 unknown #
coedge $-1 -1 $-1 $86 $85 $214 $215 forward $37 $-1 #
coedge $-1 -1 $-1 $216 $217 $85 $138 reversed $201 $-1 #
edge $-1 -1 $-1 $145 -9.25 $218 9.25 $137 $219 forward @7 unknown #
coedge $-1 -1 $-1 $131 $220 $86 $140 reversed $82 $-1 #
edge $-1 -1 $-1 $221 -9.25 $144 9.25 $139 $222 forward @7 unknown #
coedge $-1 -1 $-1 $134 $87 $220 $223 forward $143 $-1 #
coedge $-1 -1 $-1 $87 $134 $216 $224 reversed $143 $-1 #
loop $-1 -1 $-1 $-1 $141 $200 #
vertex $-1 -1 $-1 $88 $225 #
vertex $-1 -1 $-1 $88 $226 #
straight-curve $-1 -1 $-1 9.25 0 9.5 0 1 0 I I #
face $-1 -1 $-1 $227 $228 $21 $-1 $229 reversed single #
loop $-1 -1 $-1 $-1 $230 $89 #
coedge $-1 -1 $-1 $231 $232 $230 $233 forward $90 $-1 #
coedge $-1 -1 $-1 $234 $91 $235 $236 reversed $59 $-1 #
coedge $-1 -1 $-1 $91 $234 $93 $158 forward $59 $-1 #
coedge $-1 -1 $-1 $237 $238 $91 $153 forward $239 $-1 #
edge $-1 -1 $-1 $240 -1.5707963267948966 $241 1.2246063538223773e-016 $152 $242 forward @7 unknown #
coedge $-1 -1 $-1 $93 $92 $243 $244 reversed $40 $-1 #
coedge $-1 -1 $-1 $232 $231 $245 $156 reversed $90 $-1 #
edge $-1 -1 $-1 $162 -18.5 $246 0 $245 $247 forward @7 unknown #
coedge $-1 -1 $-1 $248 $249 $250 $158 forward $251 $-1 #
edge $-1 -1 $-1 $163 -18.5 $241 0 $157 $252 forward @7 unknown #
coedge $-1 -1 $-1 $160 $94 $249 $253 forward $161 $-1 #
coedge $-1 -1 $-1 $94 $159 $254 $255 reversed $161 $-1 #
loop $-1 -1 $-1 $-1 $94 $256 #
vertex $-1 -1 $-1 $255 $257 #
vertex $-1 -1 $-1 $253 $258 #
ellipse-curve $-1 -1 $-1 -9.25 8.8817841970012523e-016 0 1 0 0 0 9.5 1.1633760361312584e-015 1 I I #
face $-1 -1 $-1 $259 $260 $23 $-1 $261 forward single #
loop $-1 -1 $-1 $-1 $170 $96 #
torus-surface $-1 -1 $-1 8.0500000000000007 -8.8817841970012523e-016 0 1 0 0 8.2999999999999989 1 0 -1 0 forward_v I I I I #
coedge $-1 -1 $-1 $262 $263 $264 $265 reversed $97 $-1 #
coedge $-1 -1 $-1 $99 $99 $266 $267 forward $62 $-1 #
coedge $-1 -1 $-1 $268 $269 $99 $171 reversed $166 $-1 #
edge $270 -1 $-1 $271 1.5707963267948968 $272 4.7123889803846897 $99 $273 forward @7 unknown #
coedge $-1 -1 $-1 $274 $275 $100 $173 reversed $260 $-1 #
edge $-1 -1 $-1 $178 0 $177 3.1415926535897931 $100 $276 forward @7 unknown #
coedge $-1 -1 $-1 $264 $101 $275 $277 reversed $176 $-1 #
coedge $-1 -1 $-1 $101 $264 $274 $278 forward $176 $-1 #
loop $-1 -1 $-1 $-1 $101 $259 #
vertex $-1 -1 $-1 $102 $279 #
vertex $-1 -1 $-1 $102 $280 #
ellipse-curve $-1 -1 $-1 -9.25 -8.8817841970012523e-016 0 -1 0 0 0 -9.2999999999999989 0 1 I I #
model_id-kcp-attrib $-1 -1 $-1 $-1 $104 1 1021576052 1021576052 1457717249 7 #
face $281 -1 $-1 $282 $194 $8 $-1 $283 reversed single #
loop $-1 -1 $-1 $-1 $284 $104 #
plane-surface $-1 -1 $-1 -20.5 0 9.3999999999999986 -1 0 0 0 0 1 forward_v I I I I #
edge $-1 -1 $-1 $78 0 $79 3.1415926535897931 $119 $285 forward @7 unknown #
coedge $-1 -1 $-1 $111 $109 $108 $186 reversed $67 $-1 #
edge $286 -1 $-1 $114 0 $115 3.1415926535897927 $185 $287 forward @7 unknown #
ellipse-curve $-1 -1 $-1 -3.1999999999999993 -8.2999999999999989 -2.0328465473451459e-015 0 2.449212707644753e-016 -1 1.1999999999999995 0 0 1 I I #
ellipse-curve $-1 -1 $-1 -3.1999999999999993 8.2999999999999989 1.016423273672573e-015 0 -1.2246063538223765e-016 1 1.1999999999999995 0 0 1 I I #
convexity-sys-attrib $-1 -1 $-1 $113 $72 #
point $-1 -1 $-1 -1.9999999999999998 8.2999999999999989 1.016423273672573e-015 #
point $-1 -1 $-1 -1.9999999999999998 -8.2999999999999989 0 #
coedge $-1 -1 $-1 $288 $117 $289 $290 forward $194 $-1 #
coedge $-1 -1 $-1 $117 $288 $284 $291 reversed $194 $-1 #
loop $-1 -1 $-1 $-1 $192 $181 #
ellipse-curve $-1 -1 $-1 -20.5 1.7763568394002505e-015 0 -1 0 0 0 9.5 0 1 I I #
coedge $-1 -1 $-1 $284 $289 $120 $197 reversed $182 $-1 #
edge $-1 -1 $-1 $123 1.2246063538223773e-016 $121 3.1415926535897931 $120 $292 forward @7 unknown #
point $-1 -1 $-1 -20.5 -9.4999999999999982 0 #
point $-1 -1 $-1 -20.499999999999996 9.5 1.1633760361312584e-015 #
face $293 -1 $-1 $-1 $143 $19 $-1 $294 reversed single #
loop $-1 -1 $-1 $-1 $216 $128 #
plane-surface $-1 -1 $-1 0 9.5 0 0 -1 0 0 0 -1 forward_v I I I I #
coedge $-1 -1 $-1 $295 $214 $217 $296 forward $129 $-1 #
coedge $-1 -1 $-1 $220 $131 $132 $208 reversed $82 $-1 #
coedge $-1 -1 $-1 $214 $295 $131 $206 reversed $129 $-1 #
edge $-1 -1 $-1 $221 -9.5 $297 9.5 $205 $298 forward @7 unknown #
coedge $-1 -1 $-1 $133 $132 $295 $299 forward $55 $-1 #
edge $-1 -1 $-1 $212 -9.25 $297 9.25 $204 $300 forward @7 unknown #
coedge $-1 -1 $-1 $217 $216 $133 $210 reversed $201 $-1 #
edge $-1 -1 $-1 $301 -9.25 $211 9.25 $209 $302 forward @7 unknown #
vertex $-1 -1 $-1 $135 $303 #
vertex $-1 -1 $-1 $223 $304 #
straight-curve $-1 -1 $-1 9.25 0 -9.5 0 -1 0 I I #
coedge $-1 -1 $-1 $203 $205 $136 $215 reversed $129 $-1 #
edge $-1 -1 $-1 $218 -9.5 $221 9.5 $214 $305 forward @7 unknown #
coedge $-1 -1 $-1 $209 $137 $142 $224 forward $201 $-1 #
coedge $-1 -1 $-1 $137 $209 $203 $296 reversed $201 $-1 #
vertex $-1 -1 $-1 $138 $306 #
straight-curve $-1 -1 $-1 0 9.5 9.5 -1 0 0 I I #
coedge $-1 -1 $-1 $139 $204 $141 $223 reversed $82 $-1 #
vertex $-1 -1 $-1 $215 $307 #
straight-curve $-1 -1 $-1 0 -9.5 9.5 1 0 0 I I #
edge $-1 -1 $-1 $144 -9.5 $212 9.5 $141 $308 forward @7 unknown #
edge $-1 -1 $-1 $145 -9.5 $211 9.5 $142 $309 forward @7 unknown #
point $-1 -1 $-1 9.25 -9.5 9.5 #
point $-1 -1 $-1 9.25 9.5 9.5 #
face $-1 -1 $-1 $310 $311 $21 $-1 $312 forward single #
loop $-1 -1 $-1 $-1 $250 $147 #
plane-surface $-1 -1 $-1 0 9.5 0 0 -1 0 0 0 -1 forward_v I I I I #
coedge $-1 -1 $-1 $313 $314 $315 $233 reversed $148 $-1 #
coedge $-1 -1 $-1 $155 $149 $316 $317 reversed $90 $-1 #
coedge $-1 -1 $-1 $149 $155 $318 $319 reversed $90 $-1 #
edge $-1 -1 $-1 $320 -18.5 $321 0 $315 $322 forward @7 unknown #
coedge $-1 -1 $-1 $151 $150 $323 $324 reversed $59 $-1 #
coedge $-1 -1 $-1 $325 $326 $327 $236 forward $311 $-1 #
edge $-1 -1 $-1 $328 -18.5 $240 0 $235 $329 forward @7 unknown #
coedge $-1 -1 $-1 $238 $152 $330 $331 reversed $239 $-1 #
coedge $-1 -1 $-1 $152 $237 $325 $332 reversed $239 $-1 #
loop $-1 -1 $-1 $-1 $152 $333 #
vertex $-1 -1 $-1 $332 $334 #
vertex $-1 -1 $-1 $335 $336 #
ellipse-curve $-1 -1 $-1 9.25 8.8817841970012523e-016 0 -1 0 0 0 9.5 1.1633760361312584e-015 1 I I #
coedge $-1 -1 $-1 $337 $338 $154 $244 forward $339 $-1 #
edge $-1 -1 $-1 $241 1.2246063538223773e-016 $246 1.5707963267948968 $243 $242 forward @7 unknown #
coedge $-1 -1 $-1 $340 $341 $342 $156 forward $343 $-1 #
vertex $-1 -1 $-1 $344 $345 #
straight-curve $-1 -1 $-1 9.25 8.8817841970012523e-016 -9.5 1 0 0 I I #
coedge $-1 -1 $-1 $346 $157 $338 $335 forward $251 $-1 #
coedge $-1 -1 $-1 $157 $346 $159 $253 reversed $251 $-1 #
coedge $-1 -1 $-1 $347 $330 $151 $158 reversed $228 $-1 #
loop $-1 -1 $-1 $-1 $157 $348 #
straight-curve $-1 -1 $-1 9.25 9.5 0 1 0 0 I I #
edge $-1 -1 $-1 $163 0 $349 9.5 $249 $350 forward @7 unknown #
coedge $-1 -1 $-1 $351 $342 $160 $255 forward $352 $-1 #
edge $-1 -1 $-1 $162 8.8817841970012523e-016 $349 9.5 $160 $353 forward @7 unknown #
face $-1 -1 $-1 $354 $161 $21 $-1 $355 reversed single #
point $-1 -1 $-1 -9.25 8.8817841970012523e-016 -9.5 #
point $-1 -1 $-1 -9.25 9.5 0 #
face $-1 -1 $-1 $-1 $176 $23 $-1 $356 forward single #
loop $-1 -1 $-1 $-1 $357 $165 #
cone-surface $-1 -1 $-1 -10.174999999999997 -8.8817841970012523e-016 0 1 0 0 0 -9.2999999999999989 0 1 I I 0 1 9.2999999999999989 forward I I I I #
coedge $-1 -1 $-1 $266 $168 $268 $358 reversed $97 $-1 #
coedge $-1 -1 $-1 $168 $266 $269 $359 forward $97 $-1 #
coedge $-1 -1 $-1 $175 $174 $168 $265 forward $176 $-1 #
edge $360 -1 $-1 $361 0 $362 3.1415926535897931 $264 $363 forward @7 unknown #
coedge $-1 -1 $-1 $263 $262 $169 $267 reversed $97 $-1 #
edge $364 -1 $-1 $272 -1.5707963267948966 $271 1.5707963267948968 $169 $365 forward @7 unknown #
coedge $-1 -1 $-1 $366 $170 $262 $358 forward $166 $-1 #
coedge $-1 -1 $-1 $170 $366 $263 $359 reversed $166 $-1 #
convexity-sys-attrib $-1 -1 $-1 $-1 $171 #
vertex $-1 -1 $-1 $171 $367 #
vertex $-1 -1 $-1 $171 $368 #
ellipse-curve $-1 -1 $-1 9.0499999999999972 -8.8817841970012523e-016 0 1 0 0 0 0 -8.2999999999999989 1 I I #
coedge $-1 -1 $-1 $357 $172 $175 $278 reversed $260 $-1 #
coedge $-1 -1 $-1 $172 $357 $174 $277 forward $260 $-1 #
ellipse-curve $-1 -1 $-1 -9.25 -8.8817841970012523e-016 0 -1 0 0 0 -9.2999999999999989 0 1 I I #
edge $369 -1 $-1 $361 0 $177 17.299999999999997 $174 $370 forward @7 unknown #
edge $-1 -1 $-1 $362 0 $178 17.300000000000001 $175 $371 forward @7 unknown #
point $-1 -1 $-1 -9.2499999999999964 9.2999999999999972 1.1388839090548107e-015 #
point $-1 -1 $-1 -9.25 -9.3000000000000007 0 #
model_id-kcp-attrib $-1 -1 $-1 $-1 $181 1 1021576052 1021576052 1457717249 8 #
face $372 -1 $-1 $373 $374 $8 $-1 $375 reversed single #
plane-surface $-1 -1 $-1 -20.5 1.7267519867977678e-015 -9.3999999999999986 1 0 0 0 0 -1 forward_v I I I I #
coedge $-1 -1 $-1 $376 $196 $193 $291 forward $182 $-1 #
ellipse-curve $-1 -1 $-1 -3.1999999999999993 0 0 1 0 0 0 9.5 1.1633760361312584e-015 1 I I #
attrib_edge_convexity-kcp-attrib $-1 -1 $377 $-1 $186 3 #
ellipse-curve $-1 -1 $-1 -2 1.1102230246251565e-015 -1.3322676295501878e-015 1 -2.6752362039160405e-017 -7.5702445013371052e-033 2.2204460492503131e-016 8.2999999999999972 2.3486909032227608e-015 1 I I #
coedge $-1 -1 $-1 $193 $192 $378 $379 reversed $194 $-1 #
coedge $-1 -1 $-1 $196 $376 $192 $290 reversed $182 $-1 #
edge $-1 -1 $-1 $121 1.7763568394002505e-015 $380 0.20000000000000107 $192 $381 forward @7 unknown #
edge $-1 -1 $-1 $123 1.7763568394002505e-015 $382 0.20000000000000284 $193 $383 forward @7 unknown #
ellipse-curve $-1 -1 $-1 -20.5 -8.8817841970012523e-016 0 1 0 0 0 9.5 0 1 I I #
model_id-kcp-attrib $-1 -1 $-1 $-1 $200 1 1021576052 1021576053 1443168258 2 #
plane-surface $-1 -1 $-1 9.25 0 0 -1 0 0 0 0 1 forward_v I I I I #
coedge $-1 -1 $-1 $205 $203 $207 $299 reversed $129 $-1 #
edge $-1 -1 $-1 $218 -9.5 $301 9.5 $217 $384 forward @7 unknown #
vertex $-1 -1 $-1 $299 $385 #
straight-curve $-1 -1 $-1 -9.25 -9.5 0 0 0 -1 I I #
edge $-1 -1 $-1 $297 -9.5 $301 9.5 $295 $386 forward @7 unknown #
straight-curve $-1 -1 $-1 0 -9.5 -9.5 -1 0 0 I I #
vertex $-1 -1 $-1 $210 $387 #
straight-curve $-1 -1 $-1 0 9.5 -9.5 1 0 0 I I #
point $-1 -1 $-1 9.25 9.5 -9.5 #
point $-1 -1 $-1 9.25 -9.5 -9.5 #
straight-curve $-1 -1 $-1 -9.25 0 9.5 0 -1 0 I I #
point $-1 -1 $-1 -9.25 9.5 9.5 #
point $-1 -1 $-1 -9.25 -9.5 9.5 #
straight-curve $-1 -1 $-1 9.25 -9.5 0 0 0 -1 I I #
straight-curve $-1 -1 $-1 9.25 9.5 0 0 0 -1 I I #
face $-1 -1 $-1 $333 $388 $21 $-1 $389 reversed single #
loop $-1 -1 $-1 $-1 $235 $227 #
plane-surface $-1 -1 $-1 0 0 9.5 0 0 1 1 0 0 forward_v I I I I #
coedge $-1 -1 $-1 $390 $230 $391 $392 reversed $148 $-1 #
coedge $-1 -1 $-1 $230 $390 $393 $394 reversed $148 $-1 #
coedge $-1 -1 $-1 $395 $396 $397 $233 forward $398 $-1 #
coedge $-1 -1 $-1 $399 $400 $231 $317 forward $401 $-1 #
edge $-1 -1 $-1 $246 1.5707963267948968 $321 3.1415926535897931 $316 $242 forward @7 unknown #
coedge $-1 -1 $-1 $402 $403 $232 $319 forward $404 $-1 #
edge $-1 -1 $-1 $320 -3.1415926535897931 $162 -1.5707963267948968 $318 $164 forward @7 unknown #
vertex $-1 -1 $-1 $405 $406 #
vertex $-1 -1 $-1 $407 $408 #
straight-curve $-1 -1 $-1 9.25 -9.5 0 1 0 0 I I #
coedge $-1 -1 $-1 $409 $410 $234 $324 forward $411 $-1 #
edge $-1 -1 $-1 $163 -1.2246063538223773e-016 $328 1.5707963267948966 $323 $164 forward @7 unknown #
coedge $-1 -1 $-1 $412 $235 $238 $332 forward $311 $-1 #
coedge $-1 -1 $-1 $235 $412 $409 $413 forward $311 $-1 #
coedge $-1 -1 $-1 $414 $415 $390 $236 reversed $416 $-1 #
vertex $-1 -1 $-1 $417 $418 #
straight-curve $-1 -1 $-1 9.25 8.8817841970012523e-016 9.5 1 0 0 I I #
coedge $-1 -1 $-1 $250 $419 $237 $331 forward $228 $-1 #
edge $-1 -1 $-1 $420 -9.5 $241 0 $237 $421 forward @7 unknown #
edge $-1 -1 $-1 $240 8.8817841970012523e-016 $420 9.5 $238 $422 forward @7 unknown #
face $-1 -1 $-1 $423 $239 $21 $-1 $389 reversed single #
point $-1 -1 $-1 9.25 8.8817841970012523e-016 9.5 #
edge $-1 -1 $-1 $241 0 $424 9.5 $338 $421 forward @7 unknown #
point $-1 -1 $-1 9.25 9.5 0 #
coedge $-1 -1 $-1 $338 $243 $425 $426 reversed $339 $-1 #
coedge $-1 -1 $-1 $243 $337 $248 $335 reversed $339 $-1 #
loop $-1 -1 $-1 $-1 $243 $423 #
coedge $-1 -1 $-1 $427 $245 $400 $344 forward $343 $-1 #
coedge $-1 -1 $-1 $245 $427 $402 $428 forward $343 $-1 #
coedge $-1 -1 $-1 $254 $425 $92 $156 reversed $352 $-1 #
loop $-1 -1 $-1 $-1 $245 $429 #
edge $-1 -1 $-1 $246 -8.8817841970012523e-016 $430 9.5 $400 $431 forward @7 unknown #
point $-1 -1 $-1 9.25 8.8817841970012523e-016 -9.5 #
coedge $-1 -1 $-1 $249 $248 $351 $432 reversed $251 $-1 #
coedge $-1 -1 $-1 $419 $250 $410 $433 reversed $228 $-1 #
face $-1 -1 $-1 $-1 $251 $21 $-1 $229 reversed single #
vertex $-1 -1 $-1 $432 $434 #
straight-curve $-1 -1 $-1 -9.25 9.5 0 0 0 -1 I I #
coedge $-1 -1 $-1 $425 $254 $346 $432 forward $352 $-1 #
loop $-1 -1 $-1 $-1 $342 $435 #
straight-curve $-1 -1 $-1 -9.25 0 -9.5 0 1 0 I I #
face $-1 -1 $-1 $436 $411 $21 $-1 $355 reversed single #
plane-surface $-1 -1 $-1 -9.25 0 0 1 0 0 0 0 -1 forward_v I I I I #
cone-surface $-1 -1 $-1 -10.174999999999997 -8.8817841970012523e-016 0 1 0 0 0 -9.2999999999999989 0 1 I I 0 1 9.2999999999999989 forward I I I I #
coedge $-1 -1 $-1 $275 $274 $366 $437 reversed $260 $-1 #
edge $438 -1 $-1 $271 -1.7763568394002481e-015 $361 1.5707963267948983 $262 $439 forward @7 unknown #
edge $440 -1 $-1 $272 1.776356839400252e-015 $362 1.5707963267948983 $263 $441 forward @7 unknown #
convexity-sys-attrib $-1 -1 $-1 $-1 $265 #
vertex $-1 -1 $-1 $277 $442 #
vertex $-1 -1 $-1 $265 $443 #
ellipse-curve $-1 -1 $-1 8.0500000000000007 -8.8817841970012523e-016 0 -1 0 0 0 9.2999999999999989 1.1388839090548107e-015 1 I I #
convexity-sys-attrib $-1 -1 $-1 $-1 $267 #
ellipse-curve $-1 -1 $-1 9.0499999999999972 -8.8817841970012523e-016 0 1 0 0 0 0 -8.2999999999999989 1 I I #
coedge $-1 -1 $-1 $269 $268 $357 $437 forward $166 $-1 #
point $-1 -1 $-1 9.0500000000000007 8.2999999999999972 1.016423273672573e-015 #
point $-1 -1 $-1 9.0500000000000007 -8.3000000000000007 0 #
convexity-sys-attrib $-1 -1 $-1 $-1 $277 #
straight-curve $-1 -1 $-1 8.0500000000000007 9.2999999999999972 1.1388839090548107e-015 -1 0 0 I I #
straight-curve $-1 -1 $-1 8.0500000000000007 -9.3000000000000007 -2.2777678181096214e-015 -1 0 0 I I #
model_id-kcp-attrib $-1 -1 $-1 $-1 $282 1 1021576052 1021576052 1457717249 9 #
face $444 -1 $-1 $445 $446 $8 $-1 $447 reversed single #
loop $-1 -1 $-1 $-1 $378 $282 #
cone-surface $-1 -1 $-1 -21.424999999999997 0 0 1 0 0 0 -9.2999999999999989 0 1 I I 0 1 9.2999999999999989 forward I I I I #
coedge $-1 -1 $-1 $289 $284 $448 $449 forward $182 $-1 #
convexity-sys-attrib $-1 -1 $-1 $286 $186 #
coedge $-1 -1 $-1 $450 $451 $288 $379 forward $374 $-1 #
edge $-1 -1 $-1 $382 -1.224606353822378e-016 $380 3.1415926535897936 $288 $452 forward @7 unknown #
vertex $-1 -1 $-1 $379 $453 #
straight-curve $-1 -1 $-1 -20.5 -9.5 0 0 1 0 I I #
vertex $-1 -1 $-1 $291 $454 #
straight-curve $-1 -1 $-1 -20.5 9.5000000000000018 0 0 -1 0 I I #
straight-curve $-1 -1 $-1 -9.25 9.5 0 0 0 -1 I I #
point $-1 -1 $-1 -9.25 -9.5 -9.5 #
straight-curve $-1 -1 $-1 -9.25 0 -9.5 0 1 0 I I #
point $-1 -1 $-1 -9.25 9.5 -9.5 #
loop $-1 -1 $-1 $-1 $393 $310 #
plane-surface $-1 -1 $-1 9.25 0 0 -1 0 0 0 0 1 forward_v I I I I #
coedge $-1 -1 $-1 $314 $313 $150 $236 forward $148 $-1 #
coedge $-1 -1 $-1 $455 $456 $313 $392 forward $457 $-1 #
edge $-1 -1 $-1 $328 1.5707963267948966 $320 3.1415926535897931 $391 $164 forward @7 unknown #
coedge $-1 -1 $-1 $458 $459 $314 $394 forward $388 $-1 #
edge $-1 -1 $-1 $321 -3.1415926535897931 $240 -1.5707963267948966 $393 $242 forward @7 unknown #
coedge $-1 -1 $-1 $460 $315 $459 $461 reversed $398 $-1 #
coedge $-1 -1 $-1 $315 $460 $455 $462 forward $398 $-1 #
coedge $-1 -1 $-1 $463 $464 $149 $233 reversed $465 $-1 #
loop $-1 -1 $-1 $-1 $315 $466 #
coedge $-1 -1 $-1 $400 $316 $464 $407 forward $401 $-1 #
coedge $-1 -1 $-1 $316 $399 $340 $344 reversed $401 $-1 #
loop $-1 -1 $-1 $-1 $316 $467 #
coedge $-1 -1 $-1 $403 $318 $341 $428 reversed $404 $-1 #
coedge $-1 -1 $-1 $318 $402 $463 $405 reversed $404 $-1 #
loop $-1 -1 $-1 $-1 $318 $468 #
edge $-1 -1 $-1 $320 0 $469 9.5 $403 $470 forward @7 unknown #
point $-1 -1 $-1 -9.25 -9.5 0 #
edge $-1 -1 $-1 $321 0 $430 9.5 $399 $471 forward @7 unknown #
point $-1 -1 $-1 9.25 -9.5 0 #
coedge $-1 -1 $-1 $410 $323 $326 $413 reversed $411 $-1 #
coedge $-1 -1 $-1 $323 $409 $347 $433 forward $411 $-1 #
loop $-1 -1 $-1 $-1 $323 $354 #
coedge $-1 -1 $-1 $326 $325 $419 $472 forward $311 $-1 #
edge $-1 -1 $-1 $473 -9.5 $328 -8.8817841970012523e-016 $409 $474 forward @7 unknown #
coedge $-1 -1 $-1 $475 $327 $456 $417 forward $416 $-1 #
coedge $-1 -1 $-1 $327 $475 $458 $476 forward $416 $-1 #
loop $-1 -1 $-1 $-1 $327 $477 #
edge $-1 -1 $-1 $328 -8.8817841970012523e-016 $478 9.5 $456 $474 forward @7 unknown #
point $-1 -1 $-1 -9.25 8.8817841970012523e-016 9.5 #
coedge $-1 -1 $-1 $330 $347 $412 $472 reversed $228 $-1 #
vertex $-1 -1 $-1 $332 $479 #
straight-curve $-1 -1 $-1 9.25 9.5 0 0 0 -1 I I #
straight-curve $-1 -1 $-1 9.25 0 9.5 0 1 0 I I #
face $-1 -1 $-1 $467 $339 $21 $-1 $389 reversed single #
vertex $-1 -1 $-1 $426 $480 #
coedge $-1 -1 $-1 $342 $351 $337 $426 forward $352 $-1 #
edge $-1 -1 $-1 $424 -9.5 $246 -8.8817841970012523e-016 $337 $431 forward @7 unknown #
coedge $-1 -1 $-1 $341 $340 $481 $482 forward $343 $-1 #
edge $-1 -1 $-1 $469 -9.5 $162 8.8817841970012523e-016 $402 $353 forward @7 unknown #
face $-1 -1 $-1 $466 $343 $21 $-1 $483 reversed single #
vertex $-1 -1 $-1 $407 $484 #
straight-curve $-1 -1 $-1 9.25 0 -9.5 0 -1 0 I I #
edge $-1 -1 $-1 $349 -9.25 $424 9.25 $346 $485 forward @7 unknown #
edge $-1 -1 $-1 $473 -9.5 $163 0 $347 $350 forward @7 unknown #
point $-1 -1 $-1 -9.25 9.5 -9.5 #
face $-1 -1 $-1 $468 $352 $21 $-1 $483 reversed single #
face $-1 -1 $-1 $486 $457 $21 $-1 $355 reversed single #
edge $487 -1 $-1 $361 0 $362 3.1415926535897931 $357 $488 forward @7 unknown #
convexity-sys-attrib $-1 -1 $-1 $-1 $358 #
ellipse-curve $-1 -1 $-1 8.0500000000000007 8.3000000000000007 1.0164232736725734e-015 1.7689666539196831e-031 -1.2246063538223745e-016 1 0.99999999999999867 -1.7763568394002505e-015 -3.944304526105059e-031 1 I I #
convexity-sys-attrib $-1 -1 $-1 $-1 $359 #
ellipse-curve $-1 -1 $-1 8.0500000000000007 -8.3000000000000007 -2.0328465473451467e-015 3.5379333078393663e-031 2.4492127076447491e-016 -1 0.99999999999999867 1.7763568394002505e-015 7.8886090522101181e-031 1 I I #
point $-1 -1 $-1 8.0500000000000007 9.2999999999999972 1.1388839090548107e-015 #
point $-1 -1 $-1 8.0500000000000007 -9.3000000000000007 0 #
model_id-kcp-attrib $-1 -1 $-1 $-1 $373 1 1021576052 1021576052 1457717249 10 #
face $489 -1 $-1 $490 $491 $8 $-1 $492 reversed single #
loop $-1 -1 $-1 $-1 $493 $373 #
cone-surface $-1 -1 $-1 -21.424999999999997 0 0 1 0 0 0 -9.2999999999999989 0 1 I I 0 1 9.2999999999999989 forward I I I I #
coedge $-1 -1 $-1 $494 $495 $376 $449 reversed $446 $-1 #
edge $-1 -1 $-1 $382 1.2246063538223773e-016 $380 3.1415926535897936 $376 $496 forward @7 unknown #
coedge $-1 -1 $-1 $497 $378 $495 $498 reversed $374 $-1 #
coedge $-1 -1 $-1 $378 $497 $494 $499 forward $374 $-1 #
ellipse-curve $-1 -1 $-1 -20.5 2.2204460492503131e-015 -1.7763568394002505e-015 -1 0 0 0 9.2999999999999989 1.7763568394002505e-015 1 I I #
point $-1 -1 $-1 -20.5 -9.2999999999999989 0 #
point $-1 -1 $-1 -20.499999999999996 9.2999999999999989 1.1388839090548107e-015 #
coedge $-1 -1 $-1 $456 $391 $396 $462 reversed $457 $-1 #
coedge $-1 -1 $-1 $391 $455 $414 $417 reversed $457 $-1 #
loop $-1 -1 $-1 $-1 $391 $436 #
coedge $-1 -1 $-1 $459 $393 $415 $476 reversed $388 $-1 #
coedge $-1 -1 $-1 $393 $458 $395 $461 forward $388 $-1 #
coedge $-1 -1 $-1 $396 $395 $475 $500 reversed $398 $-1 #
edge $-1 -1 $-1 $501 -9.5 $321 0 $459 $471 forward @7 unknown #
edge $-1 -1 $-1 $478 -9.5 $320 0 $455 $470 forward @7 unknown #
coedge $-1 -1 $-1 $481 $397 $403 $405 forward $465 $-1 #
coedge $-1 -1 $-1 $397 $481 $399 $407 reversed $465 $-1 #
loop $-1 -1 $-1 $-1 $397 $486 #
face $-1 -1 $-1 $348 $398 $21 $-1 $502 reversed single #
face $-1 -1 $-1 $435 $401 $21 $-1 $389 reversed single #
face $-1 -1 $-1 $256 $404 $21 $-1 $355 reversed single #
vertex $-1 -1 $-1 $428 $503 #
straight-curve $-1 -1 $-1 -9.25 -9.5 0 0 0 -1 I I #
straight-curve $-1 -1 $-1 9.25 -9.5 0 0 0 -1 I I #
edge $-1 -1 $-1 $420 -9.25 $473 9.25 $419 $504 forward @7 unknown #
vertex $-1 -1 $-1 $472 $505 #
straight-curve $-1 -1 $-1 -9.25 0 9.5 0 -1 0 I I #
coedge $-1 -1 $-1 $415 $414 $460 $500 forward $416 $-1 #
edge $-1 -1 $-1 $501 -9.5 $240 8.8817841970012523e-016 $458 $422 forward @7 unknown #
face $-1 -1 $-1 $429 $416 $21 $-1 $312 forward single #
vertex $-1 -1 $-1 $417 $506 #
point $-1 -1 $-1 9.25 9.5 9.5 #
point $-1 -1 $-1 9.25 9.5 -9.5 #
coedge $-1 -1 $-1 $464 $463 $427 $482 reversed $465 $-1 #
edge $-1 -1 $-1 $430 -9.25 $469 9.25 $481 $507 forward @7 unknown #
plane-surface $-1 -1 $-1 0 0 -9.5 0 0 1 1 0 0 forward_v I I I I #
point $-1 -1 $-1 9.25 -9.5 -9.5 #
straight-curve $-1 -1 $-1 0 9.5 -9.5 1 0 0 I I #
face $-1 -1 $-1 $477 $465 $21 $-1 $502 reversed single #
convexity-sys-attrib $-1 -1 $-1 $-1 $437 #
ellipse-curve $-1 -1 $-1 8.0500000000000007 -8.8817841970012523e-016 0 1 0 0 0 9.2999999999999989 1.1388839090548107e-015 1 I I #
model_id-kcp-attrib $-1 -1 $-1 $-1 $445 1 1021576052 1021576052 1457717249 11 #
face $508 -1 $-1 $509 $510 $8 $-1 $511 reversed single #
loop $-1 -1 $-1 $-1 $512 $445 #
torus-surface $-1 -1 $-1 -3.1999999999999997 0 0 1 0 0 8.2999999999999989 1 0 -1 0 forward_v I I I I #
coedge $-1 -1 $-1 $495 $494 $513 $514 forward $446 $-1 #
coedge $-1 -1 $-1 $493 $448 $451 $499 reversed $446 $-1 #
coedge $-1 -1 $-1 $448 $493 $450 $498 forward $446 $-1 #
ellipse-curve $-1 -1 $-1 -20.5 4.4408920985006262e-016 3.5527136788005009e-015 1 0 0 0 9.2999999999999989 -3.5527136788005009e-015 1 I I #
coedge $-1 -1 $-1 $451 $450 $515 $516 reversed $374 $-1 #
edge $-1 -1 $-1 $517 0 $380 17.300000000000001 $450 $518 forward @7 unknown #
edge $-1 -1 $-1 $519 0 $382 17.299999999999997 $451 $520 forward @7 unknown #
edge $-1 -1 $-1 $478 -9.25 $501 9.25 $460 $521 forward @7 unknown #
vertex $-1 -1 $-1 $476 $522 #
plane-surface $-1 -1 $-1 0 -9.5 0 0 1 0 0 0 1 forward_v I I I I #
point $-1 -1 $-1 -9.25 -9.5 -9.5 #
straight-curve $-1 -1 $-1 0 9.5 9.5 -1 0 0 I I #
point $-1 -1 $-1 -9.25 9.5 9.5 #
point $-1 -1 $-1 -9.25 -9.5 9.5 #
straight-curve $-1 -1 $-1 0 -9.5 -9.5 -1 0 0 I I #
model_id-kcp-attrib $-1 -1 $-1 $-1 $490 1 1021576052 1021576052 1457717249 12 #
face $523 -1 $-1 $-1 $524 $8 $-1 $525 reversed single #
loop $-1 -1 $-1 $-1 $526 $490 #
plane-surface $-1 -1 $-1 -2.1999999999999997 0 0 1 0 0 0 -1 0 forward_v I I I I #
coedge $-1 -1 $-1 $527 $528 $529 $530 forward $491 $-1 #
coedge $-1 -1 $-1 $528 $527 $493 $514 reversed $491 $-1 #
edge $531 -1 $-1 $519 0 $517 3.1415926535897931 $493 $532 forward @7 unknown #
coedge $-1 -1 $-1 $533 $534 $497 $516 forward $524 $-1 #
edge $535 -1 $-1 $519 0 $517 3.1415926535897931 $497 $536 forward @7 unknown #
vertex $-1 -1 $-1 $516 $537 #
straight-curve $-1 -1 $-1 -3.1999999999999993 -9.2999999999999989 -2.2777678181096214e-015 -1 0 0 I I #
vertex $-1 -1 $-1 $499 $538 #
straight-curve $-1 -1 $-1 -3.1999999999999993 9.2999999999999989 1.1388839090548107e-015 -1 0 0 I I #
straight-curve $-1 -1 $-1 0 -9.5 9.5 1 0 0 I I #
point $-1 -1 $-1 9.25 -9.5 9.5 #
model_id-kcp-attrib $-1 -1 $-1 $-1 $509 1 1021576052 1021576052 1457717249 13 #
loop $-1 -1 $-1 $-1 $515 $509 #
torus-surface $-1 -1 $-1 -3.1999999999999997 0 0 1 0 0 8.2999999999999989 1 0 -1 0 forward_v I I I I #
coedge $-1 -1 $-1 $529 $529 $539 $540 forward $510 $-1 #
coedge $-1 -1 $-1 $513 $512 $533 $541 forward $491 $-1 #
coedge $-1 -1 $-1 $512 $513 $534 $542 reversed $491 $-1 #
coedge $-1 -1 $-1 $526 $526 $512 $530 reversed $510 $-1 #
edge $543 -1 $-1 $544 0 $545 3.1415926535897927 $512 $546 forward @7 unknown #
attrib_edge_convexity-kcp-attrib $-1 -1 $547 $-1 $514 4 #
ellipse-curve $-1 -1 $-1 -3.1999999999999993 0 0 1 0 0 0 9.2999999999999989 1.1388839090548107e-015 1 I I #
coedge $-1 -1 $-1 $539 $515 $527 $541 reversed $524 $-1 #
coedge $-1 -1 $-1 $515 $539 $528 $542 forward $524 $-1 #
attrib_edge_convexity-kcp-attrib $-1 -1 $548 $-1 $516 4 #
ellipse-curve $-1 -1 $-1 -3.1999999999999993 0 0 -1 0 0 0 9.2999999999999989 1.1388839090548107e-015 1 I I #
point $-1 -1 $-1 -3.1999999999999993 -9.2999999999999989 0 #
point $-1 -1 $-1 -3.1999999999999993 9.2999999999999989 1.1388839090548107e-015 #
coedge $-1 -1 $-1 $534 $533 $526 $540 reversed $524 $-1 #
edge $549 -1 $-1 $544 0 $545 3.1415926535897931 $539 $550 forward @7 unknown #
edge $551 -1 $-1 $545 -3.9443045261050713e-031 $517 1.5707963267948994 $533 $552 forward @7 unknown #
edge $553 -1 $-1 $544 -4.8302203840786111e-047 $519 1.5707963267948994 $534 $554 forward @7 unknown #
attrib_edge_convexity-kcp-attrib $-1 -1 $555 $-1 $530 4 #
vertex $-1 -1 $-1 $542 $556 #
vertex $-1 -1 $-1 $540 $557 #
ellipse-curve $-1 -1 $-1 -2.1999999999999997 1.1102230246251565e-015 -1.3322676295501878e-015 1 0 0 0 8.2999999999999972 2.3486909032227608e-015 1 I I #
convexity-sys-attrib $-1 -1 $-1 $531 $514 #
convexity-sys-attrib $-1 -1 $-1 $535 $516 #
attrib_edge_convexity-kcp-attrib $-1 -1 $558 $-1 $540 4 #
ellipse-curve $-1 -1 $-1 -2.1999999999999997 2.2204460492503131e-016 4.4408920985006262e-016 -1 0 0 0 8.2999999999999989 5.7233406382251035e-016 1 I I #
attrib_edge_convexity-kcp-attrib $-1 -1 $559 $-1 $541 4 #
ellipse-curve $-1 -1 $-1 -3.1999999999999984 -8.3000000000000007 -2.0328465473451467e-015 3.5379333078393663e-031 2.4492127076447491e-016 -1 0.99999999999999867 1.7763568394002505e-015 7.8886090522101181e-031 1 I I #
attrib_edge_convexity-kcp-attrib $-1 -1 $560 $-1 $542 4 #
ellipse-curve $-1 -1 $-1 -3.1999999999999984 8.3000000000000007 1.0164232736725734e-015 1.7689666539196831e-031 -1.2246063538223745e-016 1 0.99999999999999867 -1.7763568394002505e-015 -3.944304526105059e-031 1 I I #
convexity-sys-attrib $-1 -1 $-1 $543 $530 #
point $-1 -1 $-1 -2.1999999999999997 8.2999999999999989 1.016423273672573e-015 #
point $-1 -1 $-1 -2.1999999999999997 -8.2999999999999989 0 #
convexity-sys-attrib $-1 -1 $-1 $549 $540 #
convexity-sys-attrib $-1 -1 $-1 $551 $541 #
convexity-sys-attrib $-1 -1 $-1 $553 $542 #
End-of-ACIS-data 