600 0 1 0           
105 GICL ACIS Healer - Source: /gicl/data5/repository/PTC/V18/bboxrev2/boombox/spindle_motor_shell_.sat - 6 0 18 ACIS 6.0.3 Solaris 24 Sat Apr 13 22:40:08 2002 
1 9.999999999999999547e-07 1.000000000000000036e-10 
body $-1 $1 $-1 $-1 #
lump $-1 $-1 $2 $0 #
shell $-1 $-1 $-1 $3 $-1 $1 #
face $-1 $4 $5 $2 $-1 $6 forward single #
face $-1 $7 $8 $2 $-1 $9 forward single #
loop $-1 $-1 $10 $3 #
cone-surface $-1 -21.42499999999999716 0 0 1 0 0 0 -9.5 0 1 I I 0 1 9.5 forward I I I I #
face $-1 $11 $12 $2 $-1 $13 forward single #
loop $-1 $-1 $14 $4 #
torus-surface $-1 -3.199999999999999734 0 0 1 0 0 8.299999999999998934 1.199999999999999956 0 -1 0 forward_v I I I I #
coedge $-1 $15 $16 $17 $18 forward $5 $-1 #
face $-1 $19 $20 $2 $-1 $21 forward single #
loop $-1 $-1 $22 $7 #
plane-surface $-1 -2 0 0 1 0 0 0 -1 0 forward_v I I I I #
coedge $-1 $23 $24 $22 $25 forward $8 $-1 #
coedge $-1 $26 $10 $27 $28 forward $5 $-1 #
coedge $-1 $10 $26 $29 $30 reversed $5 $-1 #
coedge $-1 $24 $23 $10 $18 reversed $8 $-1 #
edge $-1 $31 0 $32 3.141592653589793116 $10 $33 forward 7 unknown #
face $-1 $34 $35 $2 $-1 $36 forward single #
loop $-1 $-1 $37 $11 #
torus-surface $-1 -3.199999999999999734 0 0 1 0 0 8.299999999999998934 1.199999999999999956 0 -1 0 forward_v I I I I #
coedge $-1 $38 $38 $14 $25 reversed $12 $-1 #
coedge $-1 $17 $14 $39 $40 forward $8 $-1 #
coedge $-1 $14 $17 $41 $42 reversed $8 $-1 #
edge $-1 $43 0 $44 3.141592653589793116 $14 $45 forward 7 unknown #
coedge $-1 $16 $15 $46 $47 reversed $5 $-1 #
coedge $-1 $48 $49 $15 $28 reversed $35 $-1 #
edge $-1 $32 0 $50 17.30000000000000071 $15 $51 forward 7 unknown #
coedge $-1 $49 $48 $16 $30 forward $35 $-1 #
edge $-1 $31 -0 $52 17.29999999999999716 $16 $53 forward 7 unknown #
vertex $-1 $30 $54 #
vertex $-1 $28 $55 #
ellipse-curve $-1 -3.199999999999999289 0 0 -1 0 0 0 9.5 1.163376036131258395e-15 1 I I #
face $-1 $56 $57 $2 $-1 $58 forward single #
loop $-1 $-1 $49 $19 #
cone-surface $-1 -21.42499999999999716 0 0 1 0 0 0 -9.5 0 1 I I 0 1 9.5 forward I I I I #
coedge $-1 $39 $41 $48 $59 forward $20 $-1 #
coedge $-1 $22 $22 $60 $61 forward $12 $-1 #
coedge $-1 $60 $37 $23 $40 reversed $20 $-1 #
edge $-1 $44 -4.149061330374578498e-31 $32 1.570796326794896558 $23 $62 forward 7 unknown #
coedge $-1 $37 $60 $24 $42 forward $20 $-1 #
edge $-1 $43 0 $31 1.570796326794896558 $24 $63 forward 7 unknown #
vertex $-1 $42 $64 #
vertex $-1 $40 $65 #
ellipse-curve $-1 -2 2.220446049250313081e-16 4.440892098500626162e-16 -1 2.67523620391604015e-17 1.844733503942618437e-33 2.220446049250313081e-16 8.299999999999998934 5.723340638225103504e-16 1 I I #
coedge $-1 $66 $67 $26 $47 forward $68 $-1 #
edge $-1 $52 -1.224606353822377505e-16 $50 3.141592653589793116 $26 $69 forward 7 unknown #
coedge $-1 $29 $27 $37 $59 reversed $35 $-1 #
coedge $-1 $27 $29 $70 $71 forward $35 $-1 #
vertex $-1 $47 $72 #
straight-curve $-1 -3.199999999999999289 -9.5 -2.326752072262516791e-15 -1 0 0 I I #
vertex $-1 $30 $73 #
straight-curve $-1 -3.199999999999999289 9.5 1.163376036131258395e-15 -1 0 0 I I #
point $-1 -3.199999999999999289 9.499999999999998224 1.163376036131258198e-15 #
point $-1 -3.199999999999999289 -9.5 -2.326752072262516791e-15 #
face $-1 $74 $68 $2 $-1 $75 reversed single #
loop $-1 $-1 $76 $34 #
plane-surface $-1 -20.5 0 9.399999999999998579 -1 0 0 0 0 1 forward_v I I I I #
edge $-1 $31 0 $32 3.141592653589793116 $48 $77 forward 7 unknown #
coedge $-1 $41 $39 $38 $61 reversed $20 $-1 #
edge $-1 $43 0 $44 3.141592653589792672 $60 $78 forward 7 unknown #
ellipse-curve $-1 -3.199999999999999289 -8.299999999999998934 -2.032846547345145933e-15 0 2.449212707644753037e-16 -1 1.199999999999999512 0 0 1 I I #
ellipse-curve $-1 -3.199999999999999289 8.299999999999998934 1.016423273672572967e-15 0 -1.224606353822376519e-16 1 1.199999999999999512 0 0 1 I I #
point $-1 -1.999999999999999778 8.299999999999998934 1.016423273672572967e-15 #
point $-1 -1.999999999999999778 -8.299999999999998934 0 #
coedge $-1 $79 $46 $80 $81 forward $68 $-1 #
coedge $-1 $46 $79 $76 $82 reversed $68 $-1 #
loop $-1 $-1 $66 $56 #
ellipse-curve $-1 -20.5 1.776356839400250465e-15 0 -1 0 0 0 9.5 0 1 I I #
coedge $-1 $76 $80 $49 $71 reversed $57 $-1 #
edge $-1 $52 1.224606353822377258e-16 $50 3.141592653589793116 $49 $83 forward 7 unknown #
point $-1 -20.5 -9.499999999999998224 0 #
point $-1 -20.49999999999999645 9.5 1.163376036131258395e-15 #
face $-1 $84 $85 $2 $-1 $86 reversed single #
plane-surface $-1 -20.5 1.726751986797767798e-15 -9.399999999999998579 1 0 0 0 0 -1 forward_v I I I I #
coedge $-1 $87 $70 $67 $82 forward $57 $-1 #
ellipse-curve $-1 -3.199999999999999289 0 0 1 0 0 0 9.5 1.163376036131258395e-15 1 I I #
ellipse-curve $-1 -2 1.11022302462515654e-15 -1.332267629550187849e-15 1 -2.675236203916040458e-17 -7.570244501337105244e-33 2.220446049250313081e-16 8.299999999999997158 2.348690903222760815e-15 1 I I #
coedge $-1 $67 $66 $88 $89 reversed $68 $-1 #
coedge $-1 $70 $87 $66 $81 reversed $57 $-1 #
edge $-1 $50 1.776356839400250465e-15 $90 0.2000000000000010658 $66 $91 forward 7 unknown #
edge $-1 $52 1.776356839400250465e-15 $92 0.2000000000000028422 $67 $93 forward 7 unknown #
ellipse-curve $-1 -20.5 -8.881784197001252323e-16 0 1 0 0 0 9.5 0 1 I I #
face $-1 $94 $95 $2 $-1 $96 reversed single #
loop $-1 $-1 $88 $74 #
cone-surface $-1 -21.42499999999999716 0 0 1 0 0 0 -9.299999999999998934 0 1 I I 0 1 9.299999999999998934 forward I I I I #
coedge $-1 $80 $76 $97 $98 forward $57 $-1 #
coedge $-1 $99 $100 $79 $89 forward $85 $-1 #
edge $-1 $92 -1.224606353822377998e-16 $90 3.14159265358979356 $79 $101 forward 7 unknown #
vertex $-1 $89 $102 #
straight-curve $-1 -20.5 -9.5 0 0 1 0 I I #
vertex $-1 $82 $103 #
straight-curve $-1 -20.5 9.500000000000001776 0 0 -1 0 I I #
face $-1 $104 $105 $2 $-1 $106 reversed single #
loop $-1 $-1 $107 $84 #
cone-surface $-1 -21.42499999999999716 0 0 1 0 0 0 -9.299999999999998934 0 1 I I 0 1 9.299999999999998934 forward I I I I #
coedge $-1 $108 $109 $87 $98 reversed $95 $-1 #
edge $-1 $92 1.224606353822377258e-16 $90 3.14159265358979356 $87 $110 forward 7 unknown #
coedge $-1 $111 $88 $109 $112 reversed $85 $-1 #
coedge $-1 $88 $111 $108 $113 forward $85 $-1 #
ellipse-curve $-1 -20.5 2.220446049250313081e-15 -1.776356839400250465e-15 -1 0 0 0 9.299999999999998934 1.776356839400250465e-15 1 I I #
point $-1 -20.5 -9.299999999999998934 0 #
point $-1 -20.49999999999999645 9.299999999999998934 1.138883909054810692e-15 #
face $-1 $114 $115 $2 $-1 $116 reversed single #
loop $-1 $-1 $117 $94 #
torus-surface $-1 -3.199999999999999734 0 0 1 0 0 8.299999999999998934 1 0 -1 0 forward_v I I I I #
coedge $-1 $109 $108 $118 $119 forward $95 $-1 #
coedge $-1 $107 $97 $100 $113 reversed $95 $-1 #
coedge $-1 $97 $107 $99 $112 forward $95 $-1 #
ellipse-curve $-1 -20.5 4.440892098500626162e-16 3.552713678800500929e-15 1 0 0 0 9.299999999999998934 -3.552713678800500929e-15 1 I I #
coedge $-1 $100 $99 $120 $121 reversed $85 $-1 #
edge $-1 $122 0 $90 17.30000000000000071 $99 $123 forward 7 unknown #
edge $-1 $124 0 $92 17.29999999999999716 $100 $125 forward 7 unknown #
face $-1 $-1 $126 $2 $-1 $127 reversed single #
loop $-1 $-1 $128 $104 #
plane-surface $-1 -2.199999999999999734 0 0 1 0 0 0 -1 0 forward_v I I I I #
coedge $-1 $129 $130 $131 $132 forward $105 $-1 #
coedge $-1 $130 $129 $107 $119 reversed $105 $-1 #
edge $-1 $124 0 $122 3.141592653589793116 $107 $133 forward 7 unknown #
coedge $-1 $134 $135 $111 $121 forward $126 $-1 #
edge $-1 $124 0 $122 3.141592653589793116 $111 $136 forward 7 unknown #
vertex $-1 $121 $137 #
straight-curve $-1 -3.199999999999999289 -9.299999999999998934 -2.277767818109621385e-15 -1 0 0 I I #
vertex $-1 $113 $138 #
straight-curve $-1 -3.199999999999999289 9.299999999999998934 1.138883909054810692e-15 -1 0 0 I I #
loop $-1 $-1 $120 $114 #
torus-surface $-1 -3.199999999999999734 0 0 1 0 0 8.299999999999998934 1 0 -1 0 forward_v I I I I #
coedge $-1 $131 $131 $139 $140 forward $115 $-1 #
coedge $-1 $118 $117 $134 $141 forward $105 $-1 #
coedge $-1 $117 $118 $135 $142 reversed $105 $-1 #
coedge $-1 $128 $128 $117 $132 reversed $115 $-1 #
edge $-1 $143 0 $144 3.141592653589792672 $117 $145 forward 7 unknown #
ellipse-curve $-1 -3.199999999999999289 0 0 1 0 0 0 9.299999999999998934 1.138883909054810692e-15 1 I I #
coedge $-1 $139 $120 $129 $141 reversed $126 $-1 #
coedge $-1 $120 $139 $130 $142 forward $126 $-1 #
ellipse-curve $-1 -3.199999999999999289 0 0 -1 0 0 0 9.299999999999998934 1.138883909054810692e-15 1 I I #
point $-1 -3.199999999999999289 -9.299999999999998934 0 #
point $-1 -3.199999999999999289 9.299999999999998934 1.138883909054810692e-15 #
coedge $-1 $135 $134 $128 $140 reversed $126 $-1 #
edge $-1 $143 0 $144 3.141592653589793116 $139 $146 forward 7 unknown #
edge $-1 $144 -3.944304526105071288e-31 $122 1.570796326794899445 $134 $147 forward 7 unknown #
edge $-1 $143 -4.83022038407861111e-47 $124 1.570796326794899445 $135 $148 forward 7 unknown #
vertex $-1 $142 $149 #
vertex $-1 $140 $150 #
ellipse-curve $-1 -2.199999999999999734 1.11022302462515654e-15 -1.332267629550187849e-15 1 0 0 0 8.299999999999997158 2.348690903222760815e-15 1 I I #
ellipse-curve $-1 -2.199999999999999734 2.220446049250313081e-16 4.440892098500626162e-16 -1 0 0 0 8.299999999999998934 5.723340638225103504e-16 1 I I #
ellipse-curve $-1 -3.199999999999998401 -8.300000000000000711 -2.032846547345146722e-15 3.537933307839366275e-31 2.449212707644749093e-16 -1 0.9999999999999986677 1.776356839400250465e-15 7.888609052210118054e-31 1 I I #
ellipse-curve $-1 -3.199999999999998401 8.300000000000000711 1.016423273672573361e-15 1.768966653919683138e-31 -1.224606353822374547e-16 1 0.9999999999999986677 -1.776356839400250465e-15 -3.944304526105059027e-31 1 I I #
point $-1 -2.199999999999999734 8.299999999999998934 1.016423273672572967e-15 #
point $-1 -2.199999999999999734 -8.299999999999998934 0 #
End-of-ACIS-data 