600 0 1 0           
94 GICL ACIS Healer - Source: /gicl/data5/repository/PTC/V18/bboxrev2/boombox/stop_pin_.sat - 6 0 18 ACIS 6.0.3 Solaris 24 Sat Apr 13 22:37:08 2002 
1 9.999999999999999547e-07 1.000000000000000036e-10 
body $-1 $1 $-1 $-1 #
lump $-1 $-1 $2 $0 #
shell $-1 $-1 $-1 $3 $-1 $1 #
face $-1 $4 $5 $2 $-1 $6 forward single #
face $-1 $7 $8 $2 $-1 $9 forward single #
loop $-1 $-1 $10 $3 #
plane-surface $-1 0 4.762499999999999289 0 0 1 0 1 0 0 forward_v I I I I #
face $-1 $11 $12 $2 $-1 $13 forward single #
loop $-1 $-1 $14 $4 #
cone-surface $-1 0 10.93800000000000949 0 0 1 0 0.9999999999999988898 0 0 1 I I -0.7071067811865471286 0.7071067811865479058 0.9999999999999988898 forward I I I I #
coedge $-1 $15 $15 $16 $17 reversed $5 $-1 #
face $-1 $18 $19 $2 $-1 $20 forward single #
loop $-1 $-1 $21 $7 #
cone-surface $-1 0 10.93800000000000949 0 0 1 0 0.9999999999999988898 0 0 1 I I -0.7071067811865471286 0.7071067811865479058 0.9999999999999988898 forward I I I I #
coedge $-1 $16 $22 $23 $24 forward $8 $-1 #
coedge $-1 $10 $10 $25 $26 forward $5 $-1 #
coedge $-1 $27 $14 $10 $17 forward $8 $-1 #
edge $-1 $28 0 $29 3.141592653589793116 $10 $30 forward 7 unknown #
face $-1 $31 $32 $2 $-1 $33 reversed single #
loop $-1 $-1 $34 $11 #
cone-surface $-1 0 -16.90687499999999943 0 0 1 0 7.9375 0 0 1 I I 0 1 7.9375 forward I I I I #
coedge $-1 $25 $35 $27 $36 forward $12 $-1 #
coedge $-1 $14 $27 $37 $38 reversed $8 $-1 #
coedge $-1 $35 $25 $14 $24 reversed $12 $-1 #
edge $-1 $39 -1.44448506198907336e-14 $28 1.07763073452828273 $23 $40 forward 7 unknown #
coedge $-1 $23 $21 $15 $26 reversed $12 $-1 #
edge $-1 $28 0 $29 3.141592653589793116 $15 $41 forward 7 unknown #
coedge $-1 $22 $16 $21 $36 reversed $8 $-1 #
vertex $-1 $26 $42 #
vertex $-1 $26 $43 #
ellipse-curve $-1 0 4.762499999999999289 -2.220446049250313081e-16 0 -1 0 -7.17550000000000221 0 1.100760894110278297e-15 1 I I #
face $-1 $44 $45 $2 $-1 $46 forward single #
loop $-1 $47 $48 $18 #
plane-surface $-1 0 0 0 0 1 0 1 0 0 forward_v I I I I #
coedge $-1 $49 $50 $51 $52 forward $19 $-1 #
coedge $-1 $21 $23 $53 $54 forward $12 $-1 #
edge $-1 $55 3.366834344167554381e-31 $29 1.07763073452828273 $21 $56 forward 7 unknown #
coedge $-1 $57 $58 $22 $38 forward $59 $-1 #
edge $-1 $39 0 $55 3.141592653589793116 $37 $60 forward 7 unknown #
vertex $-1 $61 $62 #
straight-curve $-1 -7.937499999999991118 4.000500000000010381 9.720312933465107654e-16 0.7071067811865475727 0.7071067811865475727 -8.659274570719354182e-17 I I #
ellipse-curve $-1 0 4.762499999999999289 2.220446049250313081e-16 0 1 0 -7.17550000000000221 0 6.566716842602156813e-16 1 I I #
point $-1 -7.17550000000000221 4.762499999999999289 8.787162891852469894e-16 #
point $-1 7.17550000000000221 4.762499999999999289 0 #
face $-1 $63 $64 $2 $-1 $65 forward single #
loop $-1 $-1 $66 $31 #
cone-surface $-1 0 -16.90687499999999943 0 0 1 0 3.96875 0 0 1 I I 0 1 3.96875 forward I I I I #
loop $-1 $-1 $51 $18 #
coedge $-1 $67 $67 $66 $68 reversed $32 $-1 #
coedge $-1 $53 $34 $57 $69 reversed $19 $-1 #
coedge $-1 $34 $53 $58 $61 forward $19 $-1 #
coedge $-1 $70 $70 $34 $52 reversed $47 $-1 #
edge $-1 $71 1.224606353822377258e-16 $72 3.141592653589793116 $34 $73 forward 7 unknown #
coedge $-1 $50 $49 $35 $54 reversed $19 $-1 #
edge $-1 $39 2.504165065863715124e-32 $55 3.141592653589793116 $53 $74 forward 7 unknown #
vertex $-1 $54 $75 #
straight-curve $-1 7.937499999999991118 4.000500000000010381 -1.944062586693021531e-15 -0.7071067811865475727 0.7071067811865475727 1.731854914143870836e-16 I I #
coedge $-1 $76 $37 $49 $69 forward $59 $-1 #
coedge $-1 $37 $76 $50 $61 reversed $59 $-1 #
loop $-1 $-1 $37 $77 #
ellipse-curve $-1 6.661338147750939243e-16 4.000500000000010381 0 0 -1 0 -7.937499999999992006 0 9.720312933465107654e-16 1 I I #
edge $-1 $39 0 $71 4.000499999999998835 $50 $78 forward 7 unknown #
point $-1 -7.9375 4.000499999999998835 9.720312933465119487e-16 #
face $-1 $79 $80 $2 $-1 $81 forward single #
loop $-1 $-1 $82 $44 #
cone-surface $-1 0 -16.90687499999999943 0 0 1 0 3.96875 0 0 1 I I 0 1 3.96875 forward I I I I #
coedge $-1 $83 $84 $48 $68 forward $45 $-1 #
coedge $-1 $48 $48 $85 $86 forward $32 $-1 #
edge $-1 $87 0 $88 3.141592653589793116 $48 $89 forward 7 unknown #
edge $-1 $55 -1.154631945610162802e-14 $72 4.000499999999998835 $49 $90 forward 7 unknown #
coedge $-1 $51 $51 $76 $91 forward $47 $-1 #
vertex $-1 $61 $92 #
vertex $-1 $69 $93 #
ellipse-curve $-1 0 0 0 0 1 0 -7.9375 0 0 1 I I #
ellipse-curve $-1 -6.661338147750939243e-16 4.000500000000010381 0 0 1 0 -7.93749999999999023 0 9.720312933465107654e-16 1 I I #
point $-1 7.937499999999991118 4.000500000000010381 0 #
coedge $-1 $58 $57 $70 $91 reversed $59 $-1 #
face $-1 $-1 $59 $2 $-1 $94 forward single #
straight-curve $-1 -7.9375 4.000499999999998835 9.720312933465119487e-16 0 -1 0 I I #
face $-1 $95 $96 $2 $-1 $97 forward single #
loop $-1 $-1 $98 $63 #
cone-surface $-1 0 -18.0817500000000031 0 0 -1 0 0.9999999999999992228 0 0 1 I I -0.7071067811865472397 0.7071067811865477948 0.9999999999999992228 forward I I I I #
coedge $-1 $99 $100 $101 $102 forward $64 $-1 #
coedge $-1 $103 $66 $99 $104 forward $45 $-1 #
coedge $-1 $66 $103 $100 $105 reversed $45 $-1 #
coedge $-1 $100 $99 $67 $86 reversed $64 $-1 #
edge $-1 $87 0 $88 3.141592653589793116 $67 $106 forward 7 unknown #
vertex $-1 $86 $107 #
vertex $-1 $86 $108 #
ellipse-curve $-1 3.330669073875469621e-16 0 0 0 -1 0 -3.968750000000000444 0 4.860156466732559744e-16 1 I I #
straight-curve $-1 7.9375 4.000499999999998835 -1.944062586693023897e-15 0 -1 0 I I #
edge $-1 $71 -1.224606353822377258e-16 $72 3.141592653589793116 $70 $109 forward 7 unknown #
point $-1 -7.9375 0 9.720312933465119487e-16 #
point $-1 7.9375 0 0 #
cone-surface $-1 0 -16.90687499999999943 0 0 1 0 7.9375 0 0 1 I I 0 1 7.9375 forward I I I I #
face $-1 $77 $110 $2 $-1 $111 reversed single #
loop $-1 $-1 $112 $79 #
cone-surface $-1 0 -18.0817500000000031 0 0 -1 0 0.9999999999999992228 0 0 1 I I -0.7071067811865472397 0.7071067811865477948 0.9999999999999992228 forward I I I I #
coedge $-1 $101 $113 $114 $115 forward $80 $-1 #
coedge $-1 $85 $82 $83 $104 reversed $64 $-1 #
coedge $-1 $82 $85 $84 $105 forward $64 $-1 #
coedge $-1 $116 $98 $82 $102 reversed $80 $-1 #
edge $-1 $117 2.504165065863713481e-32 $118 3.141592653589793116 $82 $119 forward 7 unknown #
coedge $-1 $84 $83 $120 $121 reversed $45 $-1 #
edge $-1 $88 0 $118 15.11299999999999955 $99 $122 forward 7 unknown #
edge $-1 $87 0 $117 15.11299999999999955 $100 $123 forward 7 unknown #
ellipse-curve $-1 -3.330669073875469621e-16 0 0 0 1 0 -3.968749999999999556 0 4.860156466732559744e-16 1 I I #
point $-1 -3.96875 0 4.860156466732559744e-16 #
point $-1 3.96875 0 0 #
ellipse-curve $-1 0 0 0 0 -1 0 -7.9375 0 0 1 I I #
loop $-1 $-1 $124 $95 #
plane-surface $-1 0 -15.875 0 0 1 0 1 0 0 forward_v I I I I #
coedge $-1 $120 $125 $116 $126 forward $96 $-1 #
coedge $-1 $98 $116 $124 $127 forward $80 $-1 #
coedge $-1 $125 $120 $98 $115 reversed $96 $-1 #
edge $-1 $128 4.680558698236895336e-29 $118 1.077630734528299161 $114 $129 forward 7 unknown #
coedge $-1 $113 $101 $112 $126 reversed $80 $-1 #
vertex $-1 $105 $130 #
vertex $-1 $104 $131 #
ellipse-curve $-1 -1.11022302462515654e-16 -15.1130000000000031 1.11022302462515654e-16 0 1 0 -3.968749999999996891 0 3.749933442107399259e-16 1 I I #
coedge $-1 $114 $112 $103 $121 forward $96 $-1 #
edge $-1 $117 -6.886453931125212621e-32 $118 3.141592653589793116 $103 $132 forward 7 unknown #
straight-curve $-1 3.96875 0 -9.720312933465119487e-16 0 -1 0 I I #
straight-curve $-1 -3.96875 0 4.860156466732559744e-16 0 -1 0 I I #
coedge $-1 $133 $133 $113 $127 reversed $110 $-1 #
coedge $-1 $112 $114 $133 $134 reversed $96 $-1 #
edge $-1 $135 0 $117 1.077630734528299161 $112 $136 forward 7 unknown #
edge $-1 $135 0 $128 3.141592653589790007 $124 $137 forward 7 unknown #
vertex $-1 $134 $138 #
straight-curve $-1 3.206749999999999545 -15.875 -3.560207684216720231e-15 0.7071067811865477948 0.7071067811865473507 3.30373621514712237e-15 I I #
point $-1 -3.96875 -15.11299999999999955 4.860156466732559744e-16 #
point $-1 3.96875 -15.11299999999999955 -9.720312933465119487e-16 #
ellipse-curve $-1 -1.11022302462515654e-16 -15.1130000000000031 3.330669073875469621e-16 0 -1 0 -3.968749999999996891 0 1.529487392857086178e-16 1 I I #
coedge $-1 $124 $124 $125 $134 forward $110 $-1 #
edge $-1 $135 0 $128 3.141592653589796669 $133 $139 forward 7 unknown #
vertex $-1 $134 $140 #
straight-curve $-1 -3.206749999999999545 -15.875 3.927006425119908178e-16 -0.7071067811865477948 0.7071067811865473507 8.659274570719352949e-17 I I #
ellipse-curve $-1 3.330669073875469621e-16 -15.875 2.220446049250313081e-16 0 1 0 -3.206749999999999989 0 1.706560375869595097e-16 1 I I #
point $-1 3.206749999999999545 -15.875 1.060726330446952389e-14 #
ellipse-curve $-1 -1.11022302462515654e-16 -15.875 -2.220446049250313081e-16 0 -1 0 -3.206749999999999545 0 6.147452474370221259e-16 1 I I #
point $-1 -3.206749999999999545 -15.875 3.927006425119908178e-16 #
End-of-ACIS-data 