700 0 2 0           
24 FBMach with ACIS - 7.0.3 13 ACIS 7.0.3 NT 24 Thu May 16 14:50:18 2002 
1 9.9999999999999995e-007 1e-010 
body $2 -1 $-1 $3 $-1 $4 #
bdycol-kcp $-1 -1 1 3 $5 $6 $7 #
model_id-kcp-attrib $-1 -1 $-1 $-1 $0 1 1021575017 1021575017 -1186660351 1 #
lump $-1 -1 $-1 $-1 $8 $0 #
transform $-1 -1 1 0 0 0 1 0 0 0 1 0 0 0 1 rotate no_reflect no_shear #
body $9 -1 $-1 $10 $-1 $11 #
body $12 -1 $-1 $13 $-1 $14 #
body $15 -1 $-1 $16 $-1 $17 #
shell $-1 -1 $-1 $-1 $-1 $18 $-1 $3 #
model_id-kcp-attrib $-1 -1 $-1 $-1 $5 1 1021575017 1021575017 -1186660350 1 #
lump $-1 -1 $-1 $-1 $19 $5 #
transform $-1 -1 1 0 0 0 1 0 0 0 1 -8.8817841970012523e-016 -5.5562500000000004 0 1 no_rotate no_reflect no_shear #
rgb_color-st-attrib $-1 -1 $20 $-1 $6 0.5 1 1 #
lump $-1 -1 $-1 $-1 $21 $6 #
transform $-1 -1 1 0 0 0 1 0 0 0 1 -8.8817841970012523e-016 -5.5562500000000004 0 1 no_rotate no_reflect no_shear #
rgb_color-st-attrib $-1 -1 $22 $-1 $7 1 0.5 1 #
lump $-1 -1 $-1 $-1 $23 $7 #
transform $-1 -1 1 0 0 0 1 0 0 0 1 -8.8817841970012523e-016 -5.5562500000000004 0 1 no_rotate no_reflect no_shear #
face $24 -1 $-1 $25 $26 $8 $-1 $27 forward single #
shell $-1 -1 $-1 $-1 $-1 $28 $-1 $10 #
model_id-kcp-attrib $-1 -1 $-1 $12 $6 1 1021575017 1021575017 -1178140669 1 #
shell $-1 -1 $-1 $-1 $-1 $29 $-1 $13 #
model_id-kcp-attrib $-1 -1 $-1 $15 $7 1 1021575017 1021575017 -1175191548 1 #
shell $-1 -1 $-1 $-1 $-1 $30 $-1 $16 #
model_id-kcp-attrib $-1 -1 $-1 $-1 $18 1 1021575017 1021575017 -1186660351 2 #
face $31 -1 $-1 $32 $33 $8 $-1 $34 forward single #
loop $-1 -1 $-1 $-1 $35 $18 #
plane-surface $-1 -1 $-1 0 4.7624999999999993 0 0 1 0 1 0 0 forward_v I I I I #
face $-1 -1 $-1 $36 $37 $19 $-1 $38 forward single #
face $-1 -1 $-1 $39 $40 $21 $-1 $41 reversed single #
face $-1 -1 $-1 $42 $43 $23 $-1 $44 forward single #
model_id-kcp-attrib $-1 -1 $-1 $-1 $25 1 1021575017 1021575017 -1186660351 3 #
face $45 -1 $-1 $46 $47 $8 $-1 $48 forward single #
loop $-1 -1 $-1 $-1 $49 $25 #
cone-surface $-1 -1 $-1 0 10.938000000000009 0 0 1 0 0.99999999999999889 0 0 1 I I -0.70710678118654713 0.70710678118654791 0.99999999999999889 forward I I I I #
coedge $-1 -1 $-1 $50 $50 $51 $52 reversed $26 $-1 #
face $-1 -1 $-1 $53 $54 $19 $-1 $55 reversed single #
loop $-1 -1 $-1 $-1 $56 $28 #
plane-surface $-1 -1 $-1 0 0 7.9375 0 0 1 1 0 0 forward_v I I I I #
face $-1 -1 $-1 $57 $58 $21 $-1 $41 reversed single #
loop $-1 -1 $-1 $-1 $59 $29 #
cone-surface $-1 -1 $-1 8.8817841970012523e-016 10.31875 0 0 1 0 -7.9375 0 9.7203129334651195e-016 1 I I 0 1 7.9375 forward I I I I #
face $-1 -1 $-1 $60 $61 $23 $-1 $62 forward single #
loop $-1 -1 $-1 $63 $64 $30 #
cone-surface $-1 -1 $-1 8.8817841970012523e-016 5.5562500000000004 0 0 -1 0 3.96875 0 0 1 I I 0 -1 3.96875 forward I I I I #
model_id-kcp-attrib $-1 -1 $-1 $-1 $32 1 1021575017 1021575017 -1186660351 4 #
face $65 -1 $-1 $66 $67 $8 $-1 $68 forward single #
loop $-1 -1 $-1 $-1 $69 $32 #
cone-surface $-1 -1 $-1 0 10.938000000000009 0 0 1 0 0.99999999999999889 0 0 1 I I -0.70710678118654713 0.70710678118654791 0.99999999999999889 forward I I I I #
coedge $-1 -1 $-1 $51 $70 $71 $72 forward $33 $-1 #
coedge $-1 -1 $-1 $35 $35 $73 $74 forward $26 $-1 #
coedge $-1 -1 $-1 $75 $49 $35 $52 forward $33 $-1 #
edge $76 -1 $-1 $77 0 $78 3.1415926535897931 $35 $79 forward @7 unknown #
face $80 -1 $-1 $81 $82 $19 $-1 $83 reversed single #
loop $-1 -1 $-1 $-1 $84 $36 #
plane-surface $-1 -1 $-1 0 0 -7.9375 0 0 1 1 0 0 forward_v I I I I #
coedge $-1 -1 $-1 $85 $86 $87 $88 forward $37 $-1 #
face $-1 -1 $-1 $89 $90 $21 $-1 $41 reversed single #
loop $-1 -1 $-1 $-1 $91 $39 #
coedge $-1 -1 $-1 $92 $93 $94 $95 reversed $40 $-1 #
face $-1 -1 $-1 $96 $97 $23 $-1 $98 reversed single #
loop $-1 -1 $-1 $99 $100 $42 #
cone-surface $-1 -1 $-1 8.8817841970012523e-016 5.5562499999999986 0 0 -1 0 -7.9375 0 9.7203129334651195e-016 1 I I 0 1 7.9375 forward I I I I #
loop $-1 -1 $-1 $-1 $101 $30 #
coedge $-1 -1 $-1 $64 $64 $102 $103 forward $43 $-1 #
model_id-kcp-attrib $-1 -1 $-1 $-1 $46 1 1021575017 1021575017 -1186660351 5 #
face $104 -1 $-1 $105 $106 $8 $-1 $107 reversed single #
loop $-1 -1 $-1 $-1 $108 $46 #
cone-surface $-1 -1 $-1 0 -16.906874999999999 0 0 1 0 7.9375 0 0 1 I I 0 1 7.9375 forward I I I I #
coedge $-1 -1 $-1 $73 $109 $75 $110 forward $47 $-1 #
coedge $-1 -1 $-1 $49 $75 $111 $112 reversed $33 $-1 #
coedge $-1 -1 $-1 $109 $73 $49 $72 reversed $47 $-1 #
edge $-1 -1 $-1 $113 -1.4444850619890734e-014 $77 1.0776307345282827 $71 $114 forward @7 unknown #
coedge $-1 -1 $-1 $71 $69 $50 $74 reversed $47 $-1 #
edge $115 -1 $-1 $77 0 $78 3.1415926535897931 $50 $116 forward @7 unknown #
coedge $-1 -1 $-1 $70 $51 $69 $110 reversed $33 $-1 #
attrib_edge_convexity-kcp-attrib $-1 -1 $117 $-1 $52 1 #
vertex $-1 -1 $-1 $74 $118 #
vertex $-1 -1 $-1 $74 $119 #
ellipse-curve $-1 -1 $-1 0 4.7624999999999993 -2.2204460492503131e-016 0 -1 0 -7.1755000000000022 0 1.1007608941102783e-015 1 I I #
model_id-kcp-attrib $-1 -1 $-1 $-1 $53 1 1021575017 1021575017 -1186660350 3 #
face $-1 -1 $-1 $120 $121 $19 $-1 $122 reversed single #
loop $-1 -1 $-1 $-1 $123 $53 #
plane-surface $-1 -1 $-1 0 -10.31875 0 0 1 0 0 0 1 forward_v I I I I #
coedge $-1 -1 $-1 $124 $125 $126 $127 forward $54 $-1 #
coedge $-1 -1 $-1 $128 $56 $129 $130 forward $37 $-1 #
coedge $-1 -1 $-1 $56 $128 $131 $132 forward $37 $-1 #
coedge $-1 -1 $-1 $133 $134 $56 $88 reversed $135 $-1 #
edge $-1 -1 $-1 $136 -10.31875 $137 10.31875 $87 $138 forward @7 unknown #
face $-1 -1 $-1 $139 $140 $21 $-1 $41 reversed single #
loop $-1 -1 $-1 $-1 $141 $57 #
coedge $-1 -1 $-1 $142 $143 $144 $145 reversed $58 $-1 #
coedge $-1 -1 $-1 $146 $59 $147 $148 forward $40 $-1 #
coedge $-1 -1 $-1 $59 $146 $149 $150 reversed $40 $-1 #
coedge $-1 -1 $-1 $151 $152 $59 $95 forward $153 $-1 #
edge $-1 -1 $-1 $154 -1.2246063538223773e-016 $155 1.5707963267948966 $94 $156 forward @7 unknown #
face $-1 -1 $-1 $-1 $157 $23 $-1 $158 forward single #
loop $-1 -1 $-1 $159 $160 $60 #
plane-surface $-1 -1 $-1 0.4810606060606068 -9.556750000000001 -2.7755575615628914e-016 -3.338886754484948e-032 1 -6.677773508969896e-033 0 6.677773508969896e-033 1 forward_v I I I I #
loop $-1 -1 $-1 $-1 $161 $42 #
coedge $-1 -1 $-1 $100 $100 $160 $162 forward $61 $-1 #
coedge $-1 -1 $-1 $101 $101 $163 $164 reversed $63 $-1 #
coedge $-1 -1 $-1 $102 $102 $64 $103 reversed $159 $-1 #
edge $-1 -1 $-1 $165 -3.1415926535897931 $165 3.1415926535897931 $64 $166 forward @7 unknown #
model_id-kcp-attrib $-1 -1 $-1 $-1 $66 1 1021575017 1021575017 -1186660351 6 #
face $167 -1 $-1 $168 $169 $8 $-1 $170 forward single #
loop $-1 -1 $-1 $171 $172 $66 #
plane-surface $-1 -1 $-1 0 0 0 0 1 0 1 0 0 forward_v I I I I #
coedge $-1 -1 $-1 $173 $174 $175 $176 forward $67 $-1 #
coedge $-1 -1 $-1 $69 $71 $177 $178 forward $47 $-1 #
edge $-1 -1 $-1 $179 3.3668343441675544e-031 $78 1.0776307345282827 $69 $180 forward @7 unknown #
coedge $-1 -1 $-1 $181 $182 $70 $112 forward $183 $-1 #
edge $-1 -1 $-1 $113 0 $179 3.1415926535897931 $111 $184 forward @7 unknown #
vertex $-1 -1 $-1 $185 $186 #
straight-curve $-1 -1 $-1 -7.9374999999999911 4.0005000000000104 9.7203129334651077e-016 0.70710678118654757 0.70710678118654757 -8.6592745707193542e-017 I I #
attrib_edge_convexity-kcp-attrib $-1 -1 $187 $-1 $74 1 #
ellipse-curve $-1 -1 $-1 0 4.7624999999999993 2.2204460492503131e-016 0 1 0 -7.1755000000000022 0 6.5667168426021568e-016 1 I I #
convexity-sys-attrib $-1 -1 $-1 $76 $52 #
point $-1 -1 $-1 -7.1755000000000022 4.7624999999999993 8.7871628918524699e-016 #
point $-1 -1 $-1 7.1755000000000022 4.7624999999999993 0 #
face $188 -1 $-1 $189 $190 $19 $-1 $191 reversed single #
loop $-1 -1 $-1 $-1 $192 $81 #
plane-surface $-1 -1 $-1 -7.9375000000000009 0 0 1 0 0 0 0 -1 forward_v I I I I #
coedge $-1 -1 $-1 $193 $131 $194 $195 forward $82 $-1 #
coedge $-1 -1 $-1 $196 $84 $193 $197 forward $54 $-1 #
coedge $-1 -1 $-1 $84 $196 $198 $199 forward $54 $-1 #
coedge $-1 -1 $-1 $134 $133 $84 $127 reversed $135 $-1 #
edge $-1 -1 $-1 $200 -10.31875 $201 10.31875 $126 $202 forward @7 unknown #
coedge $-1 -1 $-1 $86 $85 $203 $204 forward $37 $-1 #
coedge $-1 -1 $-1 $205 $206 $85 $130 reversed $190 $-1 #
edge $-1 -1 $-1 $137 -7.9375000000000009 $207 7.9375000000000009 $129 $208 forward @7 unknown #
coedge $-1 -1 $-1 $123 $209 $86 $132 reversed $82 $-1 #
edge $-1 -1 $-1 $210 -7.9375000000000009 $136 7.9375000000000009 $131 $211 forward @7 unknown #
coedge $-1 -1 $-1 $126 $87 $209 $212 forward $135 $-1 #
coedge $-1 -1 $-1 $87 $126 $205 $213 reversed $135 $-1 #
loop $-1 -1 $-1 $-1 $133 $189 #
vertex $-1 -1 $-1 $88 $214 #
vertex $-1 -1 $-1 $88 $215 #
straight-curve $-1 -1 $-1 7.9375000000000009 0 7.9375 0 1 0 I I #
face $-1 -1 $-1 $216 $217 $21 $-1 $218 forward single #
loop $-1 -1 $-1 $-1 $219 $89 #
coedge $-1 -1 $-1 $220 $221 $219 $222 forward $90 $-1 #
coedge $-1 -1 $-1 $223 $91 $224 $225 reversed $58 $-1 #
coedge $-1 -1 $-1 $91 $223 $93 $150 forward $58 $-1 #
coedge $-1 -1 $-1 $226 $227 $91 $145 forward $228 $-1 #
edge $-1 -1 $-1 $229 -3.1415926535897931 $230 -1.5707963267948966 $144 $231 forward @7 unknown #
coedge $-1 -1 $-1 $93 $92 $232 $233 reversed $40 $-1 #
coedge $-1 -1 $-1 $221 $220 $234 $148 reversed $90 $-1 #
edge $-1 -1 $-1 $154 -20.637499999999999 $235 0 $234 $236 forward @7 unknown #
coedge $-1 -1 $-1 $237 $238 $239 $150 forward $240 $-1 #
edge $-1 -1 $-1 $155 -20.637499999999999 $230 0 $149 $241 forward @7 unknown #
coedge $-1 -1 $-1 $152 $94 $238 $242 reversed $153 $-1 #
coedge $-1 -1 $-1 $94 $151 $243 $244 forward $153 $-1 #
loop $-1 -1 $-1 $-1 $94 $245 #
vertex $-1 -1 $-1 $246 $247 #
vertex $-1 -1 $-1 $248 $249 #
ellipse-curve $-1 -1 $-1 8.8817841970012523e-016 -10.31875 0 0 1 0 -7.9375 0 9.7203129334651195e-016 1 I I #
loop $-1 -1 $-1 $250 $251 $96 #
plane-surface $-1 -1 $-1 0.4810606060606068 5.5562499999999986 -2.7755575615628914e-016 -3.338886754484948e-032 1 -6.677773508969896e-033 0 6.677773508969896e-033 1 forward_v I I I I #
loop $-1 -1 $-1 $-1 $102 $60 #
coedge $-1 -1 $-1 $160 $160 $100 $162 reversed $97 $-1 #
coedge $-1 -1 $-1 $161 $161 $251 $252 reversed $99 $-1 #
edge $-1 -1 $-1 $253 -3.1415926535897931 $253 3.1415926535897931 $100 $254 forward @7 unknown #
coedge $-1 -1 $-1 $163 $163 $101 $164 forward $250 $-1 #
edge $255 -1 $-1 $256 0 $256 6.2831853071795862 $101 $257 forward @7 unknown #
vertex $-1 -1 $-1 $103 $258 #
ellipse-curve $-1 -1 $-1 8.8817841970012523e-016 -9.5567499999999992 0 0 -1 0 3.96875 0 0 1 I I #
model_id-kcp-attrib $-1 -1 $-1 $-1 $105 1 1021575017 1021575017 -1186660351 7 #
face $259 -1 $-1 $260 $261 $8 $-1 $262 forward single #
loop $-1 -1 $-1 $-1 $263 $105 #
cone-surface $-1 -1 $-1 0 -16.906874999999999 0 0 1 0 3.96875 0 0 1 I I 0 1 3.96875 forward I I I I #
loop $-1 -1 $-1 $-1 $175 $66 #
coedge $-1 -1 $-1 $264 $264 $263 $265 reversed $106 $-1 #
coedge $-1 -1 $-1 $177 $108 $181 $266 reversed $67 $-1 #
coedge $-1 -1 $-1 $108 $177 $182 $185 forward $67 $-1 #
coedge $-1 -1 $-1 $267 $267 $108 $176 reversed $171 $-1 #
edge $268 -1 $-1 $269 1.2246063538223773e-016 $270 3.1415926535897931 $108 $271 forward @7 unknown #
coedge $-1 -1 $-1 $174 $173 $109 $178 reversed $67 $-1 #
edge $-1 -1 $-1 $113 2.5041650658637151e-032 $179 3.1415926535897931 $177 $272 forward @7 unknown #
vertex $-1 -1 $-1 $178 $273 #
straight-curve $-1 -1 $-1 7.9374999999999911 4.0005000000000104 -1.9440625866930215e-015 -0.70710678118654757 0.70710678118654757 1.7318549141438708e-016 I I #
coedge $-1 -1 $-1 $274 $111 $173 $266 forward $183 $-1 #
coedge $-1 -1 $-1 $111 $274 $174 $185 reversed $183 $-1 #
loop $-1 -1 $-1 $-1 $111 $275 #
ellipse-curve $-1 -1 $-1 6.6613381477509392e-016 4.0005000000000104 0 0 -1 0 -7.937499999999992 0 9.7203129334651077e-016 1 I I #
edge $-1 -1 $-1 $113 0 $269 4.0004999999999988 $174 $276 forward @7 unknown #
point $-1 -1 $-1 -7.9375 4.0004999999999988 9.7203129334651195e-016 #
convexity-sys-attrib $-1 -1 $-1 $115 $74 #
model_id-kcp-attrib $-1 -1 $-1 $-1 $120 1 1021575017 1021575017 -1186660350 2 #
face $-1 -1 $-1 $-1 $135 $19 $-1 $277 reversed single #
loop $-1 -1 $-1 $-1 $205 $120 #
plane-surface $-1 -1 $-1 0 10.31875 0 0 -1 0 0 0 -1 forward_v I I I I #
coedge $-1 -1 $-1 $278 $203 $206 $279 forward $121 $-1 #
coedge $-1 -1 $-1 $209 $123 $124 $197 reversed $82 $-1 #
coedge $-1 -1 $-1 $203 $278 $123 $195 reversed $121 $-1 #
edge $-1 -1 $-1 $210 -7.9375 $280 7.9375 $194 $281 forward @7 unknown #
coedge $-1 -1 $-1 $125 $124 $278 $282 forward $54 $-1 #
edge $-1 -1 $-1 $201 -7.9375000000000009 $280 7.9375000000000009 $193 $283 forward @7 unknown #
coedge $-1 -1 $-1 $206 $205 $125 $199 reversed $190 $-1 #
edge $-1 -1 $-1 $284 -7.9375000000000009 $200 7.9375000000000009 $198 $285 forward @7 unknown #
vertex $-1 -1 $-1 $127 $286 #
vertex $-1 -1 $-1 $212 $287 #
straight-curve $-1 -1 $-1 7.9375000000000009 0 -7.9375 0 -1 0 I I #
coedge $-1 -1 $-1 $192 $194 $128 $204 reversed $121 $-1 #
edge $-1 -1 $-1 $207 -10.31875 $210 10.31875 $203 $288 forward @7 unknown #
coedge $-1 -1 $-1 $198 $129 $134 $213 forward $190 $-1 #
coedge $-1 -1 $-1 $129 $198 $192 $279 reversed $190 $-1 #
vertex $-1 -1 $-1 $130 $289 #
straight-curve $-1 -1 $-1 0 10.31875 7.9375 -1 0 0 I I #
coedge $-1 -1 $-1 $131 $193 $133 $212 reversed $82 $-1 #
vertex $-1 -1 $-1 $204 $290 #
straight-curve $-1 -1 $-1 0 -10.31875 7.9375 1 0 0 I I #
edge $-1 -1 $-1 $136 -7.9375 $201 7.9375 $133 $291 forward @7 unknown #
edge $-1 -1 $-1 $137 -7.9375 $200 7.9375 $134 $292 forward @7 unknown #
point $-1 -1 $-1 7.9375000000000009 -10.31875 7.9375 #
point $-1 -1 $-1 7.9375000000000009 10.31875 7.9375 #
face $-1 -1 $-1 $293 $294 $21 $-1 $295 reversed single #
loop $-1 -1 $-1 $-1 $239 $139 #
plane-surface $-1 -1 $-1 0 0 7.9375 0 0 1 1 0 0 forward_v I I I I #
coedge $-1 -1 $-1 $296 $297 $298 $222 reversed $140 $-1 #
coedge $-1 -1 $-1 $147 $141 $299 $300 reversed $90 $-1 #
coedge $-1 -1 $-1 $141 $147 $301 $302 reversed $90 $-1 #
edge $-1 -1 $-1 $303 -20.637499999999999 $304 0 $298 $305 forward @7 unknown #
coedge $-1 -1 $-1 $143 $142 $306 $307 reversed $58 $-1 #
coedge $-1 -1 $-1 $308 $309 $310 $225 forward $311 $-1 #
edge $-1 -1 $-1 $312 -20.637499999999999 $229 0 $224 $313 forward @7 unknown #
coedge $-1 -1 $-1 $227 $144 $314 $315 reversed $228 $-1 #
coedge $-1 -1 $-1 $144 $226 $308 $316 forward $228 $-1 #
loop $-1 -1 $-1 $-1 $144 $317 #
vertex $-1 -1 $-1 $318 $319 #
vertex $-1 -1 $-1 $320 $321 #
ellipse-curve $-1 -1 $-1 8.8817841970012523e-016 10.31875 0 0 -1 0 -7.9375 0 9.7203129334651195e-016 1 I I #
coedge $-1 -1 $-1 $322 $323 $146 $233 forward $324 $-1 #
edge $-1 -1 $-1 $230 -1.5707963267948966 $235 1.2246063538223773e-016 $232 $231 forward @7 unknown #
coedge $-1 -1 $-1 $325 $326 $327 $148 forward $294 $-1 #
vertex $-1 -1 $-1 $328 $329 #
straight-curve $-1 -1 $-1 -7.9375000000000009 10.31875 0 0 1 0 I I #
coedge $-1 -1 $-1 $330 $149 $323 $320 forward $240 $-1 #
coedge $-1 -1 $-1 $149 $330 $151 $242 forward $240 $-1 #
coedge $-1 -1 $-1 $331 $314 $143 $150 reversed $217 $-1 #
loop $-1 -1 $-1 $-1 $149 $332 #
straight-curve $-1 -1 $-1 8.8817841970012523e-016 10.31875 7.9375 0 1 0 I I #
edge $-1 -1 $-1 $333 -7.9375000000000009 $155 8.8817841970012523e-016 $151 $334 forward @7 unknown #
coedge $-1 -1 $-1 $335 $327 $152 $244 reversed $336 $-1 #
edge $-1 -1 $-1 $333 -7.9375 $154 0 $243 $337 forward @7 unknown #
face $-1 -1 $-1 $338 $153 $21 $-1 $339 reversed single #
edge $-1 -1 $-1 $154 0 $340 7.9375 $326 $337 forward @7 unknown #
point $-1 -1 $-1 -7.9375000000000009 -10.31875 0 #
edge $-1 -1 $-1 $155 8.8817841970012523e-016 $341 7.9375000000000009 $342 $334 forward @7 unknown #
point $-1 -1 $-1 8.8817841970012523e-016 -10.31875 7.9375 #
loop $-1 -1 $-1 $-1 $163 $96 #
coedge $-1 -1 $-1 $251 $251 $161 $252 forward $157 $-1 #
edge $343 -1 $-1 $344 -3.1415926535897931 $344 3.1415926535897931 $161 $345 forward @7 unknown #
vertex $-1 -1 $-1 $162 $346 #
ellipse-curve $-1 -1 $-1 8.8817841970012523e-016 -9.556750000000001 0 0 1 0 -7.9375 0 9.7203129334651195e-016 1 I I #
convexity-sys-attrib $-1 -1 $-1 $-1 $164 #
vertex $-1 -1 $-1 $164 $347 #
ellipse-curve $-1 -1 $-1 8.8817841970012523e-016 5.5562500000000004 0 0 -1 0 3.96875 0 0 1 I I #
point $-1 -1 $-1 -3.9687499999999991 -9.5567499999999992 4.8601564667325597e-016 #
model_id-kcp-attrib $-1 -1 $-1 $-1 $168 1 1021575017 1021575017 -1186660351 8 #
face $348 -1 $-1 $349 $350 $8 $-1 $351 forward single #
loop $-1 -1 $-1 $-1 $352 $168 #
cone-surface $-1 -1 $-1 0 -16.906874999999999 0 0 1 0 3.96875 0 0 1 I I 0 1 3.96875 forward I I I I #
coedge $-1 -1 $-1 $353 $354 $172 $265 forward $169 $-1 #
coedge $-1 -1 $-1 $172 $172 $355 $356 forward $106 $-1 #
edge $357 -1 $-1 $358 0 $359 3.1415926535897931 $172 $360 forward @7 unknown #
edge $-1 -1 $-1 $179 -1.1546319456101628e-014 $270 4.0004999999999988 $173 $361 forward @7 unknown #
coedge $-1 -1 $-1 $175 $175 $274 $362 forward $171 $-1 #
attrib_edge_convexity-kcp-attrib $-1 -1 $363 $-1 $176 1 #
vertex $-1 -1 $-1 $185 $364 #
vertex $-1 -1 $-1 $266 $365 #
ellipse-curve $-1 -1 $-1 0 0 0 0 1 0 -7.9375 0 0 1 I I #
ellipse-curve $-1 -1 $-1 -6.6613381477509392e-016 4.0005000000000104 0 0 1 0 -7.9374999999999902 0 9.7203129334651077e-016 1 I I #
point $-1 -1 $-1 7.9374999999999911 4.0005000000000104 0 #
coedge $-1 -1 $-1 $182 $181 $267 $362 reversed $183 $-1 #
face $366 -1 $-1 $-1 $183 $8 $-1 $367 forward single #
straight-curve $-1 -1 $-1 -7.9375 4.0004999999999988 9.7203129334651195e-016 0 -1 0 I I #
plane-surface $-1 -1 $-1 7.9375000000000009 0 0 -1 0 0 0 0 1 forward_v I I I I #
coedge $-1 -1 $-1 $194 $192 $196 $282 reversed $121 $-1 #
edge $-1 -1 $-1 $207 -7.9375 $284 7.9375 $206 $368 forward @7 unknown #
vertex $-1 -1 $-1 $282 $369 #
straight-curve $-1 -1 $-1 -7.9375000000000009 -10.31875 0 0 0 -1 I I #
edge $-1 -1 $-1 $280 -10.31875 $284 10.31875 $278 $370 forward @7 unknown #
straight-curve $-1 -1 $-1 0 -10.31875 -7.9375 -1 0 0 I I #
vertex $-1 -1 $-1 $199 $371 #
straight-curve $-1 -1 $-1 0 10.31875 -7.9375 1 0 0 I I #
point $-1 -1 $-1 7.9375000000000009 10.31875 -7.9375 #
point $-1 -1 $-1 7.9375000000000009 -10.31875 -7.9375 #
straight-curve $-1 -1 $-1 -7.9375000000000009 0 7.9375 0 -1 0 I I #
point $-1 -1 $-1 -7.9375000000000009 10.31875 7.9375 #
point $-1 -1 $-1 -7.9375000000000009 -10.31875 7.9375 #
straight-curve $-1 -1 $-1 7.9375000000000009 -10.31875 0 0 0 -1 I I #
straight-curve $-1 -1 $-1 7.9375000000000009 10.31875 0 0 0 -1 I I #
face $-1 -1 $-1 $372 $373 $21 $-1 $374 reversed single #
loop $-1 -1 $-1 $-1 $234 $216 #
plane-surface $-1 -1 $-1 -7.9375000000000009 0 0 1 0 0 0 0 -1 forward_v I I I I #
coedge $-1 -1 $-1 $375 $219 $376 $377 reversed $140 $-1 #
coedge $-1 -1 $-1 $219 $375 $378 $379 reversed $140 $-1 #
coedge $-1 -1 $-1 $380 $381 $382 $222 forward $383 $-1 #
coedge $-1 -1 $-1 $384 $385 $220 $300 forward $386 $-1 #
edge $-1 -1 $-1 $235 1.2246063538223773e-016 $304 1.5707963267948968 $299 $231 forward @7 unknown #
coedge $-1 -1 $-1 $387 $388 $221 $302 forward $389 $-1 #
edge $-1 -1 $-1 $303 -1.5707963267948968 $154 -1.2246063538223773e-016 $301 $156 forward @7 unknown #
vertex $-1 -1 $-1 $390 $391 #
vertex $-1 -1 $-1 $392 $393 #
straight-curve $-1 -1 $-1 8.8817841970012523e-016 10.31875 -7.9375 0 1 0 I I #
coedge $-1 -1 $-1 $394 $342 $223 $307 forward $395 $-1 #
edge $-1 -1 $-1 $155 1.5707963267948966 $312 3.1415926535897931 $306 $156 forward @7 unknown #
coedge $-1 -1 $-1 $396 $224 $227 $316 reversed $311 $-1 #
coedge $-1 -1 $-1 $224 $396 $394 $397 forward $311 $-1 #
coedge $-1 -1 $-1 $398 $399 $375 $225 reversed $373 $-1 #
loop $-1 -1 $-1 $-1 $224 $400 #
vertex $-1 -1 $-1 $401 $402 #
straight-curve $-1 -1 $-1 7.9375000000000009 10.31875 0 0 1 0 I I #
coedge $-1 -1 $-1 $239 $403 $226 $315 forward $217 $-1 #
edge $-1 -1 $-1 $404 -7.9375000000000009 $230 -8.8817841970012523e-016 $226 $405 forward @7 unknown #
edge $-1 -1 $-1 $404 -7.9375 $229 0 $308 $406 forward @7 unknown #
face $-1 -1 $-1 $407 $228 $21 $-1 $408 reversed single #
edge $-1 -1 $-1 $229 0 $409 7.9375 $399 $406 forward @7 unknown #
point $-1 -1 $-1 7.9375000000000009 10.31875 0 #
edge $-1 -1 $-1 $230 -8.8817841970012523e-016 $410 7.9375000000000009 $323 $405 forward @7 unknown #
point $-1 -1 $-1 8.8817841970012523e-016 10.31875 7.9375 #
coedge $-1 -1 $-1 $323 $232 $411 $412 reversed $324 $-1 #
coedge $-1 -1 $-1 $232 $322 $237 $320 reversed $324 $-1 #
loop $-1 -1 $-1 $-1 $232 $407 #
coedge $-1 -1 $-1 $413 $234 $385 $328 forward $294 $-1 #
coedge $-1 -1 $-1 $234 $413 $387 $246 reversed $294 $-1 #
coedge $-1 -1 $-1 $243 $411 $92 $148 reversed $336 $-1 #
edge $-1 -1 $-1 $235 0 $414 7.9375 $385 $415 forward @7 unknown #
point $-1 -1 $-1 -7.9375000000000009 10.31875 0 #
coedge $-1 -1 $-1 $238 $237 $335 $416 forward $240 $-1 #
coedge $-1 -1 $-1 $403 $239 $342 $248 forward $217 $-1 #
face $-1 -1 $-1 $417 $240 $21 $-1 $218 forward single #
vertex $-1 -1 $-1 $416 $418 #
straight-curve $-1 -1 $-1 0 -10.31875 7.9375 1 0 0 I I #
coedge $-1 -1 $-1 $411 $243 $330 $416 reversed $336 $-1 #
loop $-1 -1 $-1 $-1 $327 $419 #
straight-curve $-1 -1 $-1 -7.9375000000000009 -10.31875 0 0 0 -1 I I #
face $-1 -1 $-1 $420 $395 $21 $-1 $339 reversed single #
plane-surface $-1 -1 $-1 0 -10.31875 0 0 1 0 0 0 1 forward_v I I I I #
vertex $-1 -1 $-1 $421 $422 #
vertex $-1 -1 $-1 $423 $424 #
coedge $-1 -1 $-1 $306 $394 $331 $248 reversed $395 $-1 #
convexity-sys-attrib $-1 -1 $-1 $-1 $252 #
vertex $-1 -1 $-1 $252 $425 #
ellipse-curve $-1 -1 $-1 8.8817841970012523e-016 5.5562499999999986 0 0 1 0 -7.9375 0 9.7203129334651195e-016 1 I I #
point $-1 -1 $-1 7.9375000000000009 -9.556750000000001 -1.9440625866930239e-015 #
point $-1 -1 $-1 3.9687500000000009 5.5562500000000004 0 #
model_id-kcp-attrib $-1 -1 $-1 $-1 $260 1 1021575017 1021575017 -1186660351 9 #
face $426 -1 $-1 $427 $428 $8 $-1 $429 forward single #
loop $-1 -1 $-1 $-1 $430 $260 #
cone-surface $-1 -1 $-1 0 -18.081750000000003 0 0 -1 0 0.99999999999999922 0 0 1 I I -0.70710678118654724 0.70710678118654779 0.99999999999999922 forward I I I I #
coedge $-1 -1 $-1 $431 $432 $433 $434 forward $261 $-1 #
coedge $-1 -1 $-1 $435 $263 $431 $436 forward $169 $-1 #
coedge $-1 -1 $-1 $263 $435 $432 $437 reversed $169 $-1 #
coedge $-1 -1 $-1 $432 $431 $264 $356 reversed $261 $-1 #
edge $438 -1 $-1 $358 0 $359 3.1415926535897931 $264 $439 forward @7 unknown #
attrib_edge_convexity-kcp-attrib $-1 -1 $440 $-1 $265 2 #
vertex $-1 -1 $-1 $356 $441 #
vertex $-1 -1 $-1 $356 $442 #
ellipse-curve $-1 -1 $-1 3.3306690738754696e-016 0 0 0 -1 0 -3.9687500000000004 0 4.8601564667325597e-016 1 I I #
straight-curve $-1 -1 $-1 7.9375 4.0004999999999988 -1.9440625866930239e-015 0 -1 0 I I #
edge $443 -1 $-1 $269 -1.2246063538223773e-016 $270 3.1415926535897931 $267 $444 forward @7 unknown #
convexity-sys-attrib $-1 -1 $-1 $268 $176 #
point $-1 -1 $-1 -7.9375 0 9.7203129334651195e-016 #
point $-1 -1 $-1 7.9375 0 0 #
model_id-kcp-attrib $-1 -1 $-1 $-1 $275 1 1021575017 1021575017 -1186660351 12 #
cone-surface $-1 -1 $-1 0 -16.906874999999999 0 0 1 0 7.9375 0 0 1 I I 0 1 7.9375 forward I I I I #
straight-curve $-1 -1 $-1 -7.9375000000000009 10.31875 0 0 0 -1 I I #
point $-1 -1 $-1 -7.9375000000000009 -10.31875 -7.9375 #
straight-curve $-1 -1 $-1 -7.9375000000000009 0 -7.9375 0 1 0 I I #
point $-1 -1 $-1 -7.9375000000000009 10.31875 -7.9375 #
face $-1 -1 $-1 $317 $445 $21 $-1 $408 reversed single #
loop $-1 -1 $-1 $-1 $310 $293 #
plane-surface $-1 -1 $-1 7.9375000000000009 0 0 -1 0 0 0 0 1 forward_v I I I I #
coedge $-1 -1 $-1 $297 $296 $142 $225 forward $140 $-1 #
coedge $-1 -1 $-1 $446 $447 $296 $377 forward $448 $-1 #
edge $-1 -1 $-1 $312 -3.1415926535897931 $303 -1.5707963267948968 $376 $156 forward @7 unknown #
coedge $-1 -1 $-1 $449 $450 $297 $379 forward $445 $-1 #
edge $-1 -1 $-1 $304 1.5707963267948968 $229 3.1415926535897931 $378 $231 forward @7 unknown #
coedge $-1 -1 $-1 $451 $298 $450 $392 forward $383 $-1 #
coedge $-1 -1 $-1 $298 $451 $446 $452 forward $383 $-1 #
coedge $-1 -1 $-1 $453 $454 $141 $222 reversed $455 $-1 #
loop $-1 -1 $-1 $-1 $298 $417 #
coedge $-1 -1 $-1 $385 $299 $454 $456 reversed $386 $-1 #
coedge $-1 -1 $-1 $299 $384 $325 $328 reversed $386 $-1 #
loop $-1 -1 $-1 $-1 $299 $457 #
coedge $-1 -1 $-1 $388 $301 $326 $246 forward $389 $-1 #
coedge $-1 -1 $-1 $301 $387 $453 $390 reversed $389 $-1 #
loop $-1 -1 $-1 $-1 $301 $458 #
edge $-1 -1 $-1 $303 -8.8817841970012523e-016 $340 7.9375000000000009 $388 $459 forward @7 unknown #
point $-1 -1 $-1 8.8817841970012523e-016 -10.31875 -7.9375 #
edge $-1 -1 $-1 $304 8.8817841970012523e-016 $409 7.9375000000000009 $450 $460 forward @7 unknown #
point $-1 -1 $-1 8.8817841970012523e-016 10.31875 -7.9375 #
coedge $-1 -1 $-1 $342 $306 $309 $397 reversed $395 $-1 #
loop $-1 -1 $-1 $-1 $306 $338 #
coedge $-1 -1 $-1 $309 $308 $403 $423 reversed $311 $-1 #
edge $-1 -1 $-1 $341 -7.9375 $312 0 $309 $461 forward @7 unknown #
coedge $-1 -1 $-1 $462 $310 $447 $401 forward $373 $-1 #
coedge $-1 -1 $-1 $310 $462 $449 $318 reversed $373 $-1 #
face $-1 -1 $-1 $-1 $311 $21 $-1 $374 reversed single #
edge $-1 -1 $-1 $312 0 $463 7.9375 $398 $461 forward @7 unknown #
point $-1 -1 $-1 7.9375000000000009 -10.31875 0 #
coedge $-1 -1 $-1 $314 $331 $396 $423 forward $217 $-1 #
vertex $-1 -1 $-1 $423 $464 #
straight-curve $-1 -1 $-1 0 10.31875 7.9375 -1 0 0 I I #
straight-curve $-1 -1 $-1 7.9375000000000009 10.31875 0 0 0 -1 I I #
face $-1 -1 $-1 $457 $324 $21 $-1 $408 reversed single #
plane-surface $-1 -1 $-1 0 10.31875 0 0 -1 0 0 0 -1 forward_v I I I I #
vertex $-1 -1 $-1 $465 $466 #
vertex $-1 -1 $-1 $320 $467 #
coedge $-1 -1 $-1 $327 $335 $322 $412 forward $336 $-1 #
edge $-1 -1 $-1 $410 -7.9375 $235 0 $322 $415 forward @7 unknown #
coedge $-1 -1 $-1 $326 $325 $468 $421 reversed $294 $-1 #
vertex $-1 -1 $-1 $456 $469 #
straight-curve $-1 -1 $-1 -7.9375000000000009 10.31875 0 0 0 -1 I I #
edge $-1 -1 $-1 $410 -10.31875 $333 10.31875 $335 $470 forward @7 unknown #
face $-1 -1 $-1 $419 $383 $21 $-1 $471 reversed single #
point $-1 -1 $-1 -7.9375000000000009 -10.31875 7.9375 #
face $-1 -1 $-1 $400 $336 $21 $-1 $295 reversed single #
face $-1 -1 $-1 $472 $448 $21 $-1 $339 reversed single #
edge $-1 -1 $-1 $340 -10.31875 $414 10.31875 $413 $473 forward @7 unknown #
point $-1 -1 $-1 -7.9375000000000009 -10.31875 -7.9375 #
edge $-1 -1 $-1 $341 -10.31875 $404 10.31875 $396 $474 forward @7 unknown #
point $-1 -1 $-1 7.9375000000000009 -10.31875 7.9375 #
point $-1 -1 $-1 7.9375000000000009 5.5562499999999986 -1.9440625866930239e-015 #
model_id-kcp-attrib $-1 -1 $-1 $-1 $349 1 1021575017 1021575017 -1186660351 10 #
face $475 -1 $-1 $275 $476 $8 $-1 $477 reversed single #
loop $-1 -1 $-1 $-1 $478 $349 #
cone-surface $-1 -1 $-1 0 -18.081750000000003 0 0 -1 0 0.99999999999999922 0 0 1 I I -0.70710678118654724 0.70710678118654779 0.99999999999999922 forward I I I I #
coedge $-1 -1 $-1 $433 $479 $480 $481 forward $350 $-1 #
coedge $-1 -1 $-1 $355 $352 $353 $436 reversed $261 $-1 #
coedge $-1 -1 $-1 $352 $355 $354 $437 forward $261 $-1 #
coedge $-1 -1 $-1 $482 $430 $352 $434 reversed $350 $-1 #
edge $-1 -1 $-1 $483 2.5041650658637135e-032 $484 3.1415926535897931 $352 $485 forward @7 unknown #
coedge $-1 -1 $-1 $354 $353 $486 $487 reversed $169 $-1 #
edge $-1 -1 $-1 $359 0 $484 15.113 $431 $488 forward @7 unknown #
edge $-1 -1 $-1 $358 0 $483 15.113 $432 $489 forward @7 unknown #
attrib_edge_convexity-kcp-attrib $-1 -1 $490 $-1 $356 2 #
ellipse-curve $-1 -1 $-1 -3.3306690738754696e-016 0 0 0 1 0 -3.9687499999999996 0 4.8601564667325597e-016 1 I I #
convexity-sys-attrib $-1 -1 $-1 $357 $265 #
point $-1 -1 $-1 -3.96875 0 4.8601564667325597e-016 #
point $-1 -1 $-1 3.96875 0 0 #
attrib_edge_convexity-kcp-attrib $-1 -1 $491 $-1 $362 1 #
ellipse-curve $-1 -1 $-1 0 0 0 0 -1 0 -7.9375 0 0 1 I I #
loop $-1 -1 $-1 $-1 $378 $372 #
coedge $-1 -1 $-1 $447 $376 $381 $452 reversed $448 $-1 #
coedge $-1 -1 $-1 $376 $446 $398 $401 reversed $448 $-1 #
loop $-1 -1 $-1 $-1 $376 $420 #
coedge $-1 -1 $-1 $450 $378 $399 $318 forward $445 $-1 #
coedge $-1 -1 $-1 $378 $449 $380 $392 reversed $445 $-1 #
coedge $-1 -1 $-1 $381 $380 $462 $465 forward $383 $-1 #
edge $-1 -1 $-1 $463 -7.9375000000000009 $303 -8.8817841970012523e-016 $446 $459 forward @7 unknown #
coedge $-1 -1 $-1 $468 $382 $388 $390 forward $455 $-1 #
coedge $-1 -1 $-1 $382 $468 $384 $456 forward $455 $-1 #
loop $-1 -1 $-1 $-1 $382 $472 #
edge $-1 -1 $-1 $414 -7.9375000000000009 $304 8.8817841970012523e-016 $384 $460 forward @7 unknown #
face $-1 -1 $-1 $458 $386 $21 $-1 $408 reversed single #
face $-1 -1 $-1 $245 $389 $21 $-1 $339 reversed single #
straight-curve $-1 -1 $-1 0 -10.31875 -7.9375 -1 0 0 I I #
straight-curve $-1 -1 $-1 0 10.31875 -7.9375 1 0 0 I I #
straight-curve $-1 -1 $-1 7.9375000000000009 -10.31875 0 0 0 -1 I I #
coedge $-1 -1 $-1 $399 $398 $451 $465 reversed $373 $-1 #
vertex $-1 -1 $-1 $401 $492 #
point $-1 -1 $-1 7.9375000000000009 10.31875 7.9375 #
edge $-1 -1 $-1 $409 -10.31875 $463 10.31875 $462 $493 forward @7 unknown #
point $-1 -1 $-1 7.9375000000000009 10.31875 -7.9375 #
point $-1 -1 $-1 -7.9375000000000009 10.31875 7.9375 #
coedge $-1 -1 $-1 $454 $453 $413 $421 forward $455 $-1 #
point $-1 -1 $-1 -7.9375000000000009 10.31875 -7.9375 #
straight-curve $-1 -1 $-1 -7.9375000000000009 0 7.9375 0 -1 0 I I #
plane-surface $-1 -1 $-1 0 0 -7.9375 0 0 1 1 0 0 forward_v I I I I #
face $-1 -1 $-1 $332 $455 $21 $-1 $471 reversed single #
straight-curve $-1 -1 $-1 -7.9375000000000009 0 -7.9375 0 1 0 I I #
straight-curve $-1 -1 $-1 7.9375000000000009 0 7.9375 0 1 0 I I #
model_id-kcp-attrib $-1 -1 $-1 $-1 $427 1 1021575017 1021575017 -1186660351 11 #
loop $-1 -1 $-1 $-1 $494 $427 #
plane-surface $-1 -1 $-1 0 -15.875 0 0 1 0 1 0 0 forward_v I I I I #
coedge $-1 -1 $-1 $486 $495 $482 $496 forward $428 $-1 #
coedge $-1 -1 $-1 $430 $482 $494 $497 forward $350 $-1 #
coedge $-1 -1 $-1 $495 $486 $430 $481 reversed $428 $-1 #
edge $-1 -1 $-1 $498 4.6805586982368953e-029 $484 1.0776307345282992 $480 $499 forward @7 unknown #
coedge $-1 -1 $-1 $479 $433 $478 $496 reversed $350 $-1 #
vertex $-1 -1 $-1 $437 $500 #
vertex $-1 -1 $-1 $436 $501 #
ellipse-curve $-1 -1 $-1 -1.1102230246251565e-016 -15.113000000000003 1.1102230246251565e-016 0 1 0 -3.9687499999999969 0 3.7499334421073993e-016 1 I I #
coedge $-1 -1 $-1 $480 $478 $435 $487 forward $428 $-1 #
edge $-1 -1 $-1 $483 -6.8864539311252126e-032 $484 3.1415926535897931 $435 $502 forward @7 unknown #
straight-curve $-1 -1 $-1 3.96875 0 -9.7203129334651195e-016 0 -1 0 I I #
straight-curve $-1 -1 $-1 -3.96875 0 4.8601564667325597e-016 0 -1 0 I I #
convexity-sys-attrib $-1 -1 $-1 $438 $356 #
convexity-sys-attrib $-1 -1 $-1 $443 $362 #
point $-1 -1 $-1 7.9375000000000009 -10.31875 -7.9375 #
straight-curve $-1 -1 $-1 7.9375000000000009 0 -7.9375 0 -1 0 I I #
coedge $-1 -1 $-1 $503 $503 $479 $497 reversed $476 $-1 #
coedge $-1 -1 $-1 $478 $480 $503 $504 reversed $428 $-1 #
edge $-1 -1 $-1 $505 0 $483 1.0776307345282992 $478 $506 forward @7 unknown #
edge $-1 -1 $-1 $505 0 $498 3.14159265358979 $494 $507 forward @7 unknown #
vertex $-1 -1 $-1 $504 $508 #
straight-curve $-1 -1 $-1 3.2067499999999995 -15.875 -3.5602076842167202e-015 0.70710678118654779 0.70710678118654735 3.3037362151471224e-015 I I #
point $-1 -1 $-1 -3.96875 -15.113 4.8601564667325597e-016 #
point $-1 -1 $-1 3.96875 -15.113 -9.7203129334651195e-016 #
ellipse-curve $-1 -1 $-1 -1.1102230246251565e-016 -15.113000000000003 3.3306690738754696e-016 0 -1 0 -3.9687499999999969 0 1.5294873928570862e-016 1 I I #
coedge $-1 -1 $-1 $494 $494 $495 $504 forward $476 $-1 #
edge $-1 -1 $-1 $505 0 $498 3.1415926535897967 $503 $509 forward @7 unknown #
vertex $-1 -1 $-1 $504 $510 #
straight-curve $-1 -1 $-1 -3.2067499999999995 -15.875 3.9270064251199082e-016 -0.70710678118654779 0.70710678118654735 8.6592745707193529e-017 I I #
ellipse-curve $-1 -1 $-1 3.3306690738754696e-016 -15.875 2.2204460492503131e-016 0 1 0 -3.20675 0 1.7065603758695951e-016 1 I I #
point $-1 -1 $-1 3.2067499999999995 -15.875 1.0607263304469524e-014 #
ellipse-curve $-1 -1 $-1 -1.1102230246251565e-016 -15.875 -2.2204460492503131e-016 0 -1 0 -3.2067499999999995 0 6.1474524743702213e-016 1 I I #
point $-1 -1 $-1 -3.2067499999999995 -15.875 3.9270064251199082e-016 #
End-of-ACIS-data 