600 0 1 0           
101 GICL Pro/E ACIS Translator - Source: f:/data5/repository/PTC/V18/bboxrev2/boombox/stop_pin_.prt - 6 0 13 ACIS 6.0.3 NT 24 Thu Apr 04 10:04:54 2002 
1 9.9999999999999995e-007 1e-010 
body $-1 $1 $-1 $-1 #
lump $-1 $-1 $2 $0 #
shell $-1 $-1 $-1 $3 $-1 $1 #
face $-1 $4 $5 $2 $-1 $6 forward single #
face $-1 $7 $8 $2 $-1 $9 forward single #
loop $-1 $-1 $10 $3 #
plane-surface $-1 0 4.7624999999999993 0 0 1 0 1 0 0 forward_v I I I I #
face $-1 $11 $12 $2 $-1 $13 forward single #
loop $-1 $-1 $14 $4 #
cone-surface $-1 0 10.938000000000009 0 0 1 0 0.99999999999999889 0 0 1 I I -0.70710678118654713 0.70710678118654791 0.99999999999999889 forward I I I I #
coedge $-1 $15 $15 $16 $17 reversed $5 $-1 #
face $-1 $18 $19 $2 $-1 $20 forward single #
loop $-1 $-1 $21 $7 #
cone-surface $-1 0 10.938000000000009 0 0 1 0 0.99999999999999889 0 0 1 I I -0.70710678118654713 0.70710678118654791 0.99999999999999889 forward I I I I #
coedge $-1 $16 $22 $23 $24 forward $8 $-1 #
coedge $-1 $10 $10 $25 $26 forward $5 $-1 #
coedge $-1 $27 $14 $10 $17 forward $8 $-1 #
edge $-1 $28 0 $29 3.1415926535897931 $10 $30 forward 7 unknown #
face $-1 $31 $32 $2 $-1 $33 reversed single #
loop $-1 $-1 $34 $11 #
cone-surface $-1 0 -16.906874999999999 0 0 1 0 7.9375 0 0 1 I I 0 1 7.9375 forward I I I I #
coedge $-1 $25 $35 $27 $36 forward $12 $-1 #
coedge $-1 $14 $27 $37 $38 reversed $8 $-1 #
coedge $-1 $35 $25 $14 $24 reversed $12 $-1 #
edge $-1 $39 -1.4444850619890734e-014 $28 1.0776307345282827 $23 $40 forward 7 unknown #
coedge $-1 $23 $21 $15 $26 reversed $12 $-1 #
edge $-1 $28 0 $29 3.1415926535897931 $15 $41 forward 7 unknown #
coedge $-1 $22 $16 $21 $36 reversed $8 $-1 #
vertex $-1 $26 $42 #
vertex $-1 $26 $43 #
ellipse-curve $-1 0 4.7624999999999993 -2.2204460492503131e-016 0 -1 0 -7.1755000000000022 0 1.1007608941102783e-015 1 I I #
face $-1 $44 $45 $2 $-1 $46 forward single #
loop $-1 $47 $48 $18 #
plane-surface $-1 0 0 0 0 1 0 1 0 0 forward_v I I I I #
coedge $-1 $49 $50 $51 $52 forward $19 $-1 #
coedge $-1 $21 $23 $53 $54 forward $12 $-1 #
edge $-1 $55 3.3668343441675544e-031 $29 1.0776307345282827 $21 $56 forward 7 unknown #
coedge $-1 $57 $58 $22 $38 forward $59 $-1 #
edge $-1 $39 0 $55 3.1415926535897931 $37 $60 forward 7 unknown #
vertex $-1 $61 $62 #
straight-curve $-1 -7.9374999999999911 4.0005000000000104 9.7203129334651077e-016 0.70710678118654757 0.70710678118654757 -8.6592745707193542e-017 I I #
ellipse-curve $-1 0 4.7624999999999993 2.2204460492503131e-016 0 1 0 -7.1755000000000022 0 6.5667168426021568e-016 1 I I #
point $-1 -7.1755000000000022 4.7624999999999993 8.7871628918524699e-016 #
point $-1 7.1755000000000022 4.7624999999999993 0 #
face $-1 $63 $64 $2 $-1 $65 forward single #
loop $-1 $-1 $66 $31 #
cone-surface $-1 0 -16.906874999999999 0 0 1 0 3.96875 0 0 1 I I 0 1 3.96875 forward I I I I #
loop $-1 $-1 $51 $18 #
coedge $-1 $67 $67 $66 $68 reversed $32 $-1 #
coedge $-1 $53 $34 $57 $69 reversed $19 $-1 #
coedge $-1 $34 $53 $58 $61 forward $19 $-1 #
coedge $-1 $70 $70 $34 $52 reversed $47 $-1 #
edge $-1 $71 1.2246063538223773e-016 $72 3.1415926535897931 $34 $73 forward 7 unknown #
coedge $-1 $50 $49 $35 $54 reversed $19 $-1 #
edge $-1 $39 2.5041650658637151e-032 $55 3.1415926535897931 $53 $74 forward 7 unknown #
vertex $-1 $54 $75 #
straight-curve $-1 7.9374999999999911 4.0005000000000104 -1.9440625866930215e-015 -0.70710678118654757 0.70710678118654757 1.7318549141438708e-016 I I #
coedge $-1 $76 $37 $49 $69 forward $59 $-1 #
coedge $-1 $37 $76 $50 $61 reversed $59 $-1 #
loop $-1 $-1 $37 $77 #
ellipse-curve $-1 6.6613381477509392e-016 4.0005000000000104 0 0 -1 0 -7.937499999999992 0 9.7203129334651077e-016 1 I I #
edge $-1 $39 0 $71 4.0004999999999988 $50 $78 forward 7 unknown #
point $-1 -7.9375 4.0004999999999988 9.7203129334651195e-016 #
face $-1 $79 $80 $2 $-1 $81 forward single #
loop $-1 $-1 $82 $44 #
cone-surface $-1 0 -16.906874999999999 0 0 1 0 3.96875 0 0 1 I I 0 1 3.96875 forward I I I I #
coedge $-1 $83 $84 $48 $68 forward $45 $-1 #
coedge $-1 $48 $48 $85 $86 forward $32 $-1 #
edge $-1 $87 0 $88 3.1415926535897931 $48 $89 forward 7 unknown #
edge $-1 $55 -1.1546319456101628e-014 $72 4.0004999999999988 $49 $90 forward 7 unknown #
coedge $-1 $51 $51 $76 $91 forward $47 $-1 #
vertex $-1 $61 $92 #
vertex $-1 $69 $93 #
ellipse-curve $-1 0 0 0 0 1 0 -7.9375 0 0 1 I I #
ellipse-curve $-1 -6.6613381477509392e-016 4.0005000000000104 0 0 1 0 -7.9374999999999902 0 9.7203129334651077e-016 1 I I #
point $-1 7.9374999999999911 4.0005000000000104 0 #
coedge $-1 $58 $57 $70 $91 reversed $59 $-1 #
face $-1 $-1 $59 $2 $-1 $94 forward single #
straight-curve $-1 -7.9375 4.0004999999999988 9.7203129334651195e-016 0 -1 0 I I #
face $-1 $95 $96 $2 $-1 $97 forward single #
loop $-1 $-1 $98 $63 #
cone-surface $-1 0 -18.081750000000003 0 0 -1 0 0.99999999999999922 0 0 1 I I -0.70710678118654724 0.70710678118654779 0.99999999999999922 forward I I I I #
coedge $-1 $99 $100 $101 $102 forward $64 $-1 #
coedge $-1 $103 $66 $99 $104 forward $45 $-1 #
coedge $-1 $66 $103 $100 $105 reversed $45 $-1 #
coedge $-1 $100 $99 $67 $86 reversed $64 $-1 #
edge $-1 $87 0 $88 3.1415926535897931 $67 $106 forward 7 unknown #
vertex $-1 $86 $107 #
vertex $-1 $86 $108 #
ellipse-curve $-1 3.3306690738754696e-016 0 0 0 -1 0 -3.9687500000000004 0 4.8601564667325597e-016 1 I I #
straight-curve $-1 7.9375 4.0004999999999988 -1.9440625866930239e-015 0 -1 0 I I #
edge $-1 $71 -1.2246063538223773e-016 $72 3.1415926535897931 $70 $109 forward 7 unknown #
point $-1 -7.9375 0 9.7203129334651195e-016 #
point $-1 7.9375 0 0 #
cone-surface $-1 0 -16.906874999999999 0 0 1 0 7.9375 0 0 1 I I 0 1 7.9375 forward I I I I #
face $-1 $77 $110 $2 $-1 $111 reversed single #
loop $-1 $-1 $112 $79 #
cone-surface $-1 0 -18.081750000000003 0 0 -1 0 0.99999999999999922 0 0 1 I I -0.70710678118654724 0.70710678118654779 0.99999999999999922 forward I I I I #
coedge $-1 $101 $113 $114 $115 forward $80 $-1 #
coedge $-1 $85 $82 $83 $104 reversed $64 $-1 #
coedge $-1 $82 $85 $84 $105 forward $64 $-1 #
coedge $-1 $116 $98 $82 $102 reversed $80 $-1 #
edge $-1 $117 2.5041650658637135e-032 $118 3.1415926535897931 $82 $119 forward 7 unknown #
coedge $-1 $84 $83 $120 $121 reversed $45 $-1 #
edge $-1 $88 0 $118 15.113 $99 $122 forward 7 unknown #
edge $-1 $87 0 $117 15.113 $100 $123 forward 7 unknown #
ellipse-curve $-1 -3.3306690738754696e-016 0 0 0 1 0 -3.9687499999999996 0 4.8601564667325597e-016 1 I I #
point $-1 -3.96875 0 4.8601564667325597e-016 #
point $-1 3.96875 0 0 #
ellipse-curve $-1 0 0 0 0 -1 0 -7.9375 0 0 1 I I #
loop $-1 $-1 $124 $95 #
plane-surface $-1 0 -15.875 0 0 1 0 1 0 0 forward_v I I I I #
coedge $-1 $120 $125 $116 $126 forward $96 $-1 #
coedge $-1 $98 $116 $124 $127 forward $80 $-1 #
coedge $-1 $125 $120 $98 $115 reversed $96 $-1 #
edge $-1 $128 4.6805586982368953e-029 $118 1.0776307345282992 $114 $129 forward 7 unknown #
coedge $-1 $113 $101 $112 $126 reversed $80 $-1 #
vertex $-1 $105 $130 #
vertex $-1 $104 $131 #
ellipse-curve $-1 -1.1102230246251565e-016 -15.113000000000003 1.1102230246251565e-016 0 1 0 -3.9687499999999969 0 3.7499334421073993e-016 1 I I #
coedge $-1 $114 $112 $103 $121 forward $96 $-1 #
edge $-1 $117 -6.8864539311252126e-032 $118 3.1415926535897931 $103 $132 forward 7 unknown #
straight-curve $-1 3.96875 0 -9.7203129334651195e-016 0 -1 0 I I #
straight-curve $-1 -3.96875 0 4.8601564667325597e-016 0 -1 0 I I #
coedge $-1 $133 $133 $113 $127 reversed $110 $-1 #
coedge $-1 $112 $114 $133 $134 reversed $96 $-1 #
edge $-1 $135 0 $117 1.0776307345282992 $112 $136 forward 7 unknown #
edge $-1 $135 0 $128 3.14159265358979 $124 $137 forward 7 unknown #
vertex $-1 $134 $138 #
straight-curve $-1 3.2067499999999995 -15.875 -3.5602076842167202e-015 0.70710678118654779 0.70710678118654735 3.3037362151471224e-015 I I #
point $-1 -3.96875 -15.113 4.8601564667325597e-016 #
point $-1 3.96875 -15.113 -9.7203129334651195e-016 #
ellipse-curve $-1 -1.1102230246251565e-016 -15.113000000000003 3.3306690738754696e-016 0 -1 0 -3.9687499999999969 0 1.5294873928570862e-016 1 I I #
coedge $-1 $124 $124 $125 $134 forward $110 $-1 #
edge $-1 $135 0 $128 3.1415926535897967 $133 $139 forward 7 unknown #
vertex $-1 $134 $140 #
straight-curve $-1 -3.2067499999999995 -15.875 3.9270064251199082e-016 -0.70710678118654779 0.70710678118654735 8.6592745707193529e-017 I I #
ellipse-curve $-1 3.3306690738754696e-016 -15.875 2.2204460492503131e-016 0 1 0 -3.20675 0 1.7065603758695951e-016 1 I I #
point $-1 3.2067499999999995 -15.875 1.0607263304469524e-014 #
ellipse-curve $-1 -1.1102230246251565e-016 -15.875 -2.2204460492503131e-016 0 -1 0 -3.2067499999999995 0 6.1474524743702213e-016 1 I I #
point $-1 -3.2067499999999995 -15.875 3.9270064251199082e-016 #
End-of-ACIS-data 