700 0 2 0           
24 FBMach with ACIS - 7.0.3 13 ACIS 7.0.3 NT 24 Thu May 16 14:50:37 2002 
1 9.9999999999999995e-007 1e-010 
body $2 -1 $-1 $3 $-1 $4 #
bdycol-kcp $-1 -1 1 2 $5 $6 #
model_id-kcp-attrib $-1 -1 $-1 $-1 $0 1 1021575036 1021575036 868155393 1 #
lump $-1 -1 $-1 $-1 $7 $0 #
transform $-1 -1 1 0 0 0 1 0 0 0 1 0 0 0 1 rotate no_reflect no_shear #
body $8 -1 $-1 $9 $-1 $10 #
body $11 -1 $-1 $12 $-1 $13 #
shell $-1 -1 $-1 $-1 $-1 $14 $-1 $3 #
rgb_color-st-attrib $-1 -1 $15 $-1 $5 0.5 1 1 #
lump $-1 -1 $-1 $-1 $16 $5 #
transform $-1 -1 1 0 0 0 1 0 0 0 1 0 0 43.75 1 no_rotate no_reflect no_shear #
model_id-kcp-attrib $-1 -1 $-1 $-1 $6 1 1021575036 1021575036 868155394 1 #
lump $-1 -1 $-1 $-1 $17 $6 #
transform $-1 -1 1 0 0 0 1 0 0 0 1 0 0 43.75 1 no_rotate no_reflect no_shear #
face $18 -1 $-1 $19 $20 $7 $-1 $21 reversed single #
model_id-kcp-attrib $-1 -1 $-1 $8 $5 1 1021575036 1021575036 857931779 1 #
shell $-1 -1 $-1 $-1 $-1 $22 $-1 $9 #
shell $-1 -1 $-1 $-1 $-1 $23 $-1 $12 #
model_id-kcp-attrib $-1 -1 $-1 $-1 $14 1 1021575036 1021575036 868155393 2 #
face $24 -1 $-1 $25 $26 $7 $-1 $27 forward single #
loop $-1 -1 $-1 $-1 $28 $14 #
plane-surface $-1 -1 $-1 0 0 0 0 0 1 1 0 0 forward_v I I I I #
face $-1 -1 $-1 $29 $30 $16 $-1 $31 reversed single #
face $32 -1 $-1 $33 $34 $17 $-1 $35 forward single #
model_id-kcp-attrib $-1 -1 $-1 $-1 $19 1 1021575036 1021575036 868155393 3 #
face $36 -1 $-1 $37 $38 $7 $-1 $39 forward single #
loop $-1 -1 $-1 $-1 $40 $19 #
cone-surface $-1 -1 $-1 0 0 0 0 0 1 0.75 0 0 1 I I 0 1 0.75 forward I I I I #
coedge $-1 -1 $-1 $41 $41 $42 $43 reversed $20 $-1 #
face $-1 -1 $-1 $44 $45 $16 $-1 $31 reversed single #
loop $-1 -1 $-1 $-1 $46 $22 #
cone-surface $-1 -1 $-1 -2.8118638534165077e-033 0 -43.75 0 0 -1 0.75 0 0 1 I I 0 1 0.75 forward I I I I #
model_id-kcp-attrib $-1 -1 $-1 $-1 $23 1 1021575036 1021575036 868155394 3 #
face $47 -1 $-1 $48 $49 $17 $-1 $50 reversed single #
loop $-1 -1 $-1 $-1 $51 $23 #
plane-surface $-1 -1 $-1 0 0 43.75 0 0 1 1 0 0 forward_v I I I I #
model_id-kcp-attrib $-1 -1 $-1 $-1 $25 1 1021575036 1021575036 868155393 4 #
face $52 -1 $-1 $-1 $53 $7 $-1 $54 forward single #
loop $-1 -1 $-1 $-1 $55 $25 #
cone-surface $-1 -1 $-1 0 0 0 0 0 1 0.75 0 0 1 I I 0 1 0.75 forward I I I I #
coedge $-1 -1 $-1 $56 $42 $57 $58 forward $26 $-1 #
coedge $-1 -1 $-1 $28 $28 $59 $60 reversed $20 $-1 #
coedge $-1 -1 $-1 $40 $61 $28 $43 forward $26 $-1 #
edge $62 -1 $-1 $63 0 $64 3.1415926535897931 $28 $65 forward @7 unknown #
face $-1 -1 $-1 $66 $67 $16 $-1 $31 reversed single #
loop $-1 -1 $-1 $-1 $68 $29 #
coedge $-1 -1 $-1 $69 $70 $71 $72 forward $30 $-1 #
model_id-kcp-attrib $-1 -1 $-1 $-1 $33 1 1021575036 1021575036 868155394 2 #
face $-1 -1 $-1 $73 $74 $17 $-1 $75 reversed single #
loop $-1 -1 $-1 $-1 $76 $33 #
plane-surface $-1 -1 $-1 0 0 -43.75 0 0 1 1 0 0 forward_v I I I I #
coedge $-1 -1 $-1 $77 $78 $79 $80 forward $34 $-1 #
model_id-kcp-attrib $-1 -1 $-1 $-1 $37 1 1021575036 1021575036 868155393 5 #
loop $-1 -1 $-1 $-1 $81 $37 #
plane-surface $-1 -1 $-1 0 0 87.5 0 0 1 1 0 0 forward_v I I I I #
coedge $-1 -1 $-1 $82 $59 $61 $83 forward $38 $-1 #
coedge $-1 -1 $-1 $61 $40 $81 $84 reversed $26 $-1 #
coedge $-1 -1 $-1 $59 $82 $40 $58 reversed $38 $-1 #
edge $-1 -1 $-1 $64 0 $85 87.5 $57 $86 forward @7 unknown #
coedge $-1 -1 $-1 $55 $57 $41 $60 forward $38 $-1 #
edge $87 -1 $-1 $64 0 $63 3.1415926535897931 $41 $88 forward @7 unknown #
coedge $-1 -1 $-1 $42 $56 $55 $83 reversed $26 $-1 #
attrib_edge_convexity-kcp-attrib $-1 -1 $89 $-1 $43 1 #
vertex $-1 -1 $-1 $60 $90 #
vertex $-1 -1 $-1 $60 $91 #
ellipse-curve $-1 -1 $-1 0 0 0 0 0 1 -0.75 0 0 1 I I #
face $-1 -1 $-1 $92 $93 $16 $-1 $31 reversed single #
loop $-1 -1 $-1 $-1 $94 $44 #
coedge $-1 -1 $-1 $95 $71 $96 $97 reversed $45 $-1 #
coedge $-1 -1 $-1 $98 $46 $99 $100 reversed $30 $-1 #
coedge $-1 -1 $-1 $46 $98 $101 $102 reversed $30 $-1 #
coedge $-1 -1 $-1 $68 $103 $104 $72 reversed $45 $-1 #
edge $-1 -1 $-1 $105 -87.5 $106 0 $104 $107 forward @7 unknown #
face $-1 -1 $-1 $108 $109 $17 $-1 $110 reversed single #
loop $-1 -1 $-1 $-1 $111 $48 #
plane-surface $-1 -1 $-1 0 -0.75 0 0 1 0 0 0 1 forward_v I I I I #
coedge $-1 -1 $-1 $112 $113 $114 $115 forward $49 $-1 #
coedge $-1 -1 $-1 $116 $51 $117 $118 forward $34 $-1 #
coedge $-1 -1 $-1 $51 $116 $119 $120 forward $34 $-1 #
coedge $-1 -1 $-1 $121 $122 $51 $80 reversed $123 $-1 #
edge $-1 -1 $-1 $124 -0.75 $125 0.75 $79 $126 forward @7 unknown #
coedge $-1 -1 $-1 $127 $127 $56 $84 forward $53 $-1 #
coedge $-1 -1 $-1 $57 $55 $127 $128 reversed $38 $-1 #
edge $-1 -1 $-1 $63 0 $129 87.5 $55 $130 forward @7 unknown #
edge $-1 -1 $-1 $129 0 $85 3.1415926535897931 $81 $131 forward @7 unknown #
vertex $-1 -1 $-1 $128 $132 #
straight-curve $-1 -1 $-1 0.75 0 0 0 0 1 I I #
attrib_edge_convexity-kcp-attrib $-1 -1 $133 $-1 $60 1 #
ellipse-curve $-1 -1 $-1 0 0 0 0 0 1 0.75 0 0 1 I I #
convexity-sys-attrib $-1 -1 $-1 $62 $43 #
point $-1 -1 $-1 -0.75 0 0 #
point $-1 -1 $-1 0.75 0 0 #
face $-1 -1 $-1 $134 $135 $16 $-1 $136 reversed single #
loop $-1 -1 $-1 $-1 $137 $66 #
coedge $-1 -1 $-1 $138 $139 $140 $141 reversed $67 $-1 #
coedge $-1 -1 $-1 $103 $68 $142 $143 forward $45 $-1 #
coedge $-1 -1 $-1 $144 $145 $68 $97 forward $146 $-1 #
edge $-1 -1 $-1 $147 -3.1415926535897931 $105 -1.5707963267948966 $96 $148 forward @7 unknown #
coedge $-1 -1 $-1 $70 $69 $149 $150 reversed $30 $-1 #
coedge $-1 -1 $-1 $151 $152 $69 $100 forward $153 $-1 #
edge $-1 -1 $-1 $154 0 $106 1.5707963267948966 $99 $155 forward @7 unknown #
coedge $-1 -1 $-1 $156 $157 $70 $102 forward $158 $-1 #
edge $-1 -1 $-1 $105 -1.5707963267948966 $159 0 $101 $148 forward @7 unknown #
coedge $-1 -1 $-1 $71 $95 $160 $161 reversed $45 $-1 #
coedge $-1 -1 $-1 $162 $163 $164 $72 forward $165 $-1 #
vertex $-1 -1 $-1 $166 $167 #
vertex $-1 -1 $-1 $168 $169 #
straight-curve $-1 -1 $-1 -2.8118638534165077e-033 0.75 -43.75 0 0 -1 I I #
face $-1 -1 $-1 $170 $171 $17 $-1 $172 reversed single #
loop $-1 -1 $-1 $-1 $173 $73 #
plane-surface $-1 -1 $-1 -0.75 0 0 1 0 0 0 0 -1 forward_v I I I I #
coedge $-1 -1 $-1 $174 $119 $175 $176 forward $74 $-1 #
coedge $-1 -1 $-1 $177 $76 $174 $178 forward $49 $-1 #
coedge $-1 -1 $-1 $76 $177 $179 $180 forward $49 $-1 #
coedge $-1 -1 $-1 $122 $121 $76 $115 reversed $123 $-1 #
edge $-1 -1 $-1 $181 -0.75 $182 0.75 $114 $183 forward @7 unknown #
coedge $-1 -1 $-1 $78 $77 $184 $185 forward $34 $-1 #
coedge $-1 -1 $-1 $186 $187 $77 $118 reversed $171 $-1 #
edge $-1 -1 $-1 $125 -0.75 $188 0.75 $117 $189 forward @7 unknown #
coedge $-1 -1 $-1 $111 $190 $78 $120 reversed $74 $-1 #
edge $-1 -1 $-1 $191 -0.75 $124 0.75 $119 $192 forward @7 unknown #
coedge $-1 -1 $-1 $114 $79 $190 $193 forward $123 $-1 #
coedge $-1 -1 $-1 $79 $114 $186 $194 reversed $123 $-1 #
loop $-1 -1 $-1 $-1 $121 $170 #
vertex $-1 -1 $-1 $80 $195 #
vertex $-1 -1 $-1 $80 $196 #
straight-curve $-1 -1 $-1 0.75 0 43.75 0 1 0 I I #
coedge $-1 -1 $-1 $81 $81 $82 $128 forward $53 $-1 #
edge $-1 -1 $-1 $85 0 $129 3.1415926535897931 $127 $197 forward @7 unknown #
vertex $-1 -1 $-1 $128 $198 #
straight-curve $-1 -1 $-1 -0.75 9.1845476536678294e-017 0 0 0 1 I I #
ellipse-curve $-1 -1 $-1 0 0 87.5 0 0 1 -0.75 0 0 1 I I #
point $-1 -1 $-1 0.75 0 87.5 #
convexity-sys-attrib $-1 -1 $-1 $87 $60 #
face $-1 -1 $-1 $199 $165 $16 $-1 $200 reversed single #
loop $-1 -1 $-1 $-1 $149 $92 #
plane-surface $-1 -1 $-1 0.75 0 0 -1 0 0 0 0 1 forward_v I I I I #
coedge $-1 -1 $-1 $142 $201 $202 $203 reversed $93 $-1 #
coedge $-1 -1 $-1 $204 $94 $205 $206 reversed $67 $-1 #
coedge $-1 -1 $-1 $94 $204 $98 $150 forward $67 $-1 #
coedge $-1 -1 $-1 $207 $208 $94 $141 forward $209 $-1 #
edge $-1 -1 $-1 $210 -1.5707963267948966 $154 0 $140 $155 forward @7 unknown #
coedge $-1 -1 $-1 $211 $137 $212 $143 reversed $93 $-1 #
edge $-1 -1 $-1 $147 -87.5 $213 0 $212 $214 forward @7 unknown #
coedge $-1 -1 $-1 $145 $96 $163 $166 forward $146 $-1 #
coedge $-1 -1 $-1 $96 $144 $215 $216 forward $146 $-1 #
loop $-1 -1 $-1 $-1 $96 $217 #
vertex $-1 -1 $-1 $218 $219 #
ellipse-curve $-1 -1 $-1 -2.8118638534165077e-033 0 43.75 0 0 -1 0.75 0 0 1 I I #
coedge $-1 -1 $-1 $220 $221 $222 $150 forward $135 $-1 #
edge $-1 -1 $-1 $159 -87.5 $154 0 $149 $223 forward @7 unknown #
coedge $-1 -1 $-1 $152 $99 $224 $168 forward $153 $-1 #
coedge $-1 -1 $-1 $99 $151 $220 $225 forward $153 $-1 #
loop $-1 -1 $-1 $-1 $99 $226 #
vertex $-1 -1 $-1 $227 $228 #
ellipse-curve $-1 -1 $-1 -2.8118638534165077e-033 0 -43.75 0 0 1 0.75 0 0 1 I I #
coedge $-1 -1 $-1 $157 $101 $221 $229 forward $158 $-1 #
coedge $-1 -1 $-1 $101 $156 $230 $231 forward $158 $-1 #
loop $-1 -1 $-1 $-1 $101 $232 #
vertex $-1 -1 $-1 $229 $233 #
coedge $-1 -1 $-1 $234 $235 $103 $161 forward $236 $-1 #
edge $-1 -1 $-1 $106 1.5707963267948966 $213 3.1415926535897931 $160 $155 forward @7 unknown #
coedge $-1 -1 $-1 $237 $104 $235 $238 reversed $165 $-1 #
coedge $-1 -1 $-1 $104 $237 $144 $166 reversed $165 $-1 #
coedge $-1 -1 $-1 $230 $224 $46 $72 reversed $239 $-1 #
loop $-1 -1 $-1 $-1 $104 $134 #
edge $-1 -1 $-1 $105 2.8118638534165077e-033 $240 0.75 $163 $241 forward @7 unknown #
point $-1 -1 $-1 -2.8118638534165077e-033 0.75 43.75 #
edge $-1 -1 $-1 $106 -2.8118638534165077e-033 $242 0.75 $224 $243 forward @7 unknown #
point $-1 -1 $-1 -2.8118638534165077e-033 0.75 -43.75 #
face $-1 -1 $-1 $-1 $123 $17 $-1 $244 reversed single #
loop $-1 -1 $-1 $-1 $186 $108 #
plane-surface $-1 -1 $-1 0 0.75 0 0 -1 0 0 0 -1 forward_v I I I I #
coedge $-1 -1 $-1 $245 $184 $187 $246 forward $109 $-1 #
coedge $-1 -1 $-1 $190 $111 $112 $178 reversed $74 $-1 #
coedge $-1 -1 $-1 $184 $245 $111 $176 reversed $109 $-1 #
edge $-1 -1 $-1 $191 -43.75 $247 43.75 $175 $248 forward @7 unknown #
coedge $-1 -1 $-1 $113 $112 $245 $249 forward $49 $-1 #
edge $-1 -1 $-1 $182 -0.75 $247 0.75 $174 $250 forward @7 unknown #
coedge $-1 -1 $-1 $187 $186 $113 $180 reversed $171 $-1 #
edge $-1 -1 $-1 $251 -0.75 $181 0.75 $179 $252 forward @7 unknown #
vertex $-1 -1 $-1 $115 $253 #
vertex $-1 -1 $-1 $193 $254 #
straight-curve $-1 -1 $-1 0.75 0 -43.75 0 -1 0 I I #
coedge $-1 -1 $-1 $173 $175 $116 $185 reversed $109 $-1 #
edge $-1 -1 $-1 $188 -0.75 $191 0.75 $184 $255 forward @7 unknown #
coedge $-1 -1 $-1 $179 $117 $122 $194 forward $171 $-1 #
coedge $-1 -1 $-1 $117 $179 $173 $246 reversed $171 $-1 #
vertex $-1 -1 $-1 $118 $256 #
straight-curve $-1 -1 $-1 0 0.75 43.75 -1 0 0 I I #
coedge $-1 -1 $-1 $119 $174 $121 $193 reversed $74 $-1 #
vertex $-1 -1 $-1 $185 $257 #
straight-curve $-1 -1 $-1 0 -0.75 43.75 1 0 0 I I #
edge $-1 -1 $-1 $124 -43.75 $182 43.75 $121 $258 forward @7 unknown #
edge $-1 -1 $-1 $125 -43.75 $181 43.75 $122 $259 forward @7 unknown #
point $-1 -1 $-1 0.75 -0.75 43.75 #
point $-1 -1 $-1 0.75 0.75 43.75 #
ellipse-curve $-1 -1 $-1 0 0 87.5 0 0 1 0.75 0 0 1 I I #
point $-1 -1 $-1 -0.75 0 87.5 #
face $-1 -1 $-1 $260 $261 $16 $-1 $262 reversed single #
plane-surface $-1 -1 $-1 0 0.75 0 0 -1 0 0 0 -1 forward_v I I I I #
coedge $-1 -1 $-1 $137 $211 $138 $206 forward $93 $-1 #
coedge $-1 -1 $-1 $263 $264 $137 $203 forward $265 $-1 #
edge $-1 -1 $-1 $213 -3.1415926535897931 $210 -1.5707963267948966 $202 $155 forward @7 unknown #
coedge $-1 -1 $-1 $139 $138 $266 $267 reversed $67 $-1 #
coedge $-1 -1 $-1 $268 $269 $270 $206 forward $271 $-1 #
edge $-1 -1 $-1 $272 -87.5 $210 0 $205 $273 forward @7 unknown #
coedge $-1 -1 $-1 $208 $140 $274 $227 forward $209 $-1 #
coedge $-1 -1 $-1 $140 $207 $268 $275 forward $209 $-1 #
loop $-1 -1 $-1 $-1 $140 $276 #
vertex $-1 -1 $-1 $277 $278 #
coedge $-1 -1 $-1 $201 $142 $279 $280 reversed $93 $-1 #
coedge $-1 -1 $-1 $281 $282 $283 $143 forward $261 $-1 #
vertex $-1 -1 $-1 $284 $285 #
straight-curve $-1 -1 $-1 -0.75 0 -43.75 0 0 -1 I I #
coedge $-1 -1 $-1 $286 $283 $145 $216 reversed $287 $-1 #
edge $-1 -1 $-1 $240 -0.75 $147 0 $215 $288 forward @7 unknown #
face $-1 -1 $-1 $232 $146 $16 $-1 $289 forward single #
edge $-1 -1 $-1 $147 0 $290 0.75 $282 $288 forward @7 unknown #
point $-1 -1 $-1 -0.75 0 43.75 #
coedge $-1 -1 $-1 $291 $149 $152 $225 reversed $135 $-1 #
coedge $-1 -1 $-1 $149 $291 $156 $229 reversed $135 $-1 #
coedge $-1 -1 $-1 $292 $274 $139 $150 reversed $293 $-1 #
straight-curve $-1 -1 $-1 0.75 0 -43.75 0 0 -1 I I #
coedge $-1 -1 $-1 $164 $294 $151 $168 reversed $239 $-1 #
edge $-1 -1 $-1 $242 -0.75 $154 0 $220 $295 forward @7 unknown #
face $-1 -1 $-1 $296 $153 $16 $-1 $297 reversed single #
edge $-1 -1 $-1 $154 0 $298 0.75 $274 $295 forward @7 unknown #
point $-1 -1 $-1 0.75 0 -43.75 #
edge $-1 -1 $-1 $159 0 $299 0.75 $221 $300 forward @7 unknown #
coedge $-1 -1 $-1 $294 $164 $157 $231 reversed $239 $-1 #
edge $-1 -1 $-1 $299 -0.75 $105 2.8118638534165077e-033 $230 $241 forward @7 unknown #
face $-1 -1 $-1 $301 $158 $16 $-1 $289 forward single #
point $-1 -1 $-1 0.75 0 43.75 #
coedge $-1 -1 $-1 $235 $160 $302 $284 forward $236 $-1 #
coedge $-1 -1 $-1 $160 $234 $162 $238 forward $236 $-1 #
loop $-1 -1 $-1 $-1 $160 $296 #
coedge $-1 -1 $-1 $163 $162 $286 $303 reversed $165 $-1 #
edge $-1 -1 $-1 $304 -0.75 $106 -2.8118638534165077e-033 $162 $243 forward @7 unknown #
loop $-1 -1 $-1 $-1 $164 $305 #
vertex $-1 -1 $-1 $166 $306 #
straight-curve $-1 -1 $-1 0 0.75 43.75 -1 0 0 I I #
vertex $-1 -1 $-1 $225 $307 #
straight-curve $-1 -1 $-1 0 0.75 -43.75 1 0 0 I I #
plane-surface $-1 -1 $-1 0.75 0 0 -1 0 0 0 0 1 forward_v I I I I #
coedge $-1 -1 $-1 $175 $173 $177 $249 reversed $109 $-1 #
edge $-1 -1 $-1 $188 -43.75 $251 43.75 $187 $308 forward @7 unknown #
vertex $-1 -1 $-1 $249 $309 #
straight-curve $-1 -1 $-1 -0.75 -0.75 0 0 0 -1 I I #
edge $-1 -1 $-1 $247 -0.75 $251 0.75 $245 $310 forward @7 unknown #
straight-curve $-1 -1 $-1 0 -0.75 -43.75 -1 0 0 I I #
vertex $-1 -1 $-1 $180 $311 #
straight-curve $-1 -1 $-1 0 0.75 -43.75 1 0 0 I I #
point $-1 -1 $-1 0.75 0.75 -43.75 #
point $-1 -1 $-1 0.75 -0.75 -43.75 #
straight-curve $-1 -1 $-1 -0.75 0 43.75 0 -1 0 I I #
point $-1 -1 $-1 -0.75 0.75 43.75 #
point $-1 -1 $-1 -0.75 -0.75 43.75 #
straight-curve $-1 -1 $-1 0.75 -0.75 0 0 0 -1 I I #
straight-curve $-1 -1 $-1 0.75 0.75 0 0 0 -1 I I #
face $-1 -1 $-1 $217 $312 $16 $-1 $289 forward single #
loop $-1 -1 $-1 $-1 $212 $199 #
plane-surface $-1 -1 $-1 -0.75 0 0 1 0 0 0 0 -1 forward_v I I I I #
coedge $-1 -1 $-1 $264 $202 $313 $277 forward $265 $-1 #
coedge $-1 -1 $-1 $202 $263 $281 $314 forward $265 $-1 #
loop $-1 -1 $-1 $-1 $202 $315 #
coedge $-1 -1 $-1 $316 $317 $204 $267 forward $318 $-1 #
edge $-1 -1 $-1 $159 0 $272 1.5707963267948966 $266 $148 forward @7 unknown #
coedge $-1 -1 $-1 $319 $205 $208 $275 reversed $271 $-1 #
coedge $-1 -1 $-1 $205 $319 $316 $320 reversed $271 $-1 #
coedge $-1 -1 $-1 $321 $313 $201 $206 reversed $322 $-1 #
loop $-1 -1 $-1 $-1 $205 $323 #
vertex $-1 -1 $-1 $320 $324 #
straight-curve $-1 -1 $-1 -2.8118638534165077e-033 -0.75 -43.75 0 0 -1 I I #
coedge $-1 -1 $-1 $222 $325 $207 $227 reversed $293 $-1 #
edge $-1 -1 $-1 $298 -0.75 $210 2.8118638534165077e-033 $268 $326 forward @7 unknown #
face $-1 -1 $-1 $226 $209 $16 $-1 $297 reversed single #
edge $-1 -1 $-1 $210 2.8118638534165077e-033 $327 0.75 $313 $326 forward @7 unknown #
point $-1 -1 $-1 -2.8118638534165077e-033 -0.75 -43.75 #
coedge $-1 -1 $-1 $328 $329 $211 $280 forward $312 $-1 #
edge $-1 -1 $-1 $272 1.5707963267948966 $147 3.1415926535897931 $279 $148 forward @7 unknown #
coedge $-1 -1 $-1 $330 $212 $264 $314 reversed $261 $-1 #
coedge $-1 -1 $-1 $212 $330 $328 $218 reversed $261 $-1 #
coedge $-1 -1 $-1 $215 $302 $95 $143 reversed $287 $-1 #
edge $-1 -1 $-1 $213 0 $304 0.75 $302 $331 forward @7 unknown #
point $-1 -1 $-1 -0.75 0 -43.75 #
coedge $-1 -1 $-1 $302 $215 $237 $303 forward $287 $-1 #
loop $-1 -1 $-1 $-1 $283 $332 #
straight-curve $-1 -1 $-1 -0.75 0 43.75 0 -1 0 I I #
plane-surface $-1 -1 $-1 0 0 43.75 0 0 1 1 0 0 forward_v I I I I #
vertex $-1 -1 $-1 $218 $333 #
coedge $-1 -1 $-1 $221 $220 $294 $334 reversed $135 $-1 #
coedge $-1 -1 $-1 $325 $222 $317 $335 reversed $293 $-1 #
loop $-1 -1 $-1 $-1 $222 $336 #
coedge $-1 -1 $-1 $224 $230 $291 $334 forward $239 $-1 #
straight-curve $-1 -1 $-1 0.75 0 -43.75 0 -1 0 I I #
face $-1 -1 $-1 $337 $236 $16 $-1 $297 reversed single #
plane-surface $-1 -1 $-1 0 0 -43.75 0 0 1 1 0 0 forward_v I I I I #
vertex $-1 -1 $-1 $338 $339 #
vertex $-1 -1 $-1 $229 $340 #
straight-curve $-1 -1 $-1 0.75 0 43.75 0 1 0 I I #
face $-1 -1 $-1 $323 $318 $16 $-1 $289 forward single #
coedge $-1 -1 $-1 $283 $286 $234 $284 reversed $287 $-1 #
edge $-1 -1 $-1 $240 -43.75 $304 43.75 $237 $341 forward @7 unknown #
vertex $-1 -1 $-1 $238 $342 #
face $-1 -1 $-1 $336 $239 $16 $-1 $200 reversed single #
point $-1 -1 $-1 -0.75 0.75 43.75 #
point $-1 -1 $-1 0.75 0.75 -43.75 #
straight-curve $-1 -1 $-1 -0.75 0.75 0 0 0 -1 I I #
point $-1 -1 $-1 -0.75 -0.75 -43.75 #
straight-curve $-1 -1 $-1 -0.75 0 -43.75 0 1 0 I I #
point $-1 -1 $-1 -0.75 0.75 -43.75 #
loop $-1 -1 $-1 $-1 $279 $260 #
coedge $-1 -1 $-1 $270 $343 $263 $277 reversed $322 $-1 #
edge $-1 -1 $-1 $327 -0.75 $213 0 $281 $331 forward @7 unknown #
face $-1 -1 $-1 $276 $265 $16 $-1 $297 reversed single #
coedge $-1 -1 $-1 $317 $266 $269 $320 forward $318 $-1 #
coedge $-1 -1 $-1 $266 $316 $292 $335 forward $318 $-1 #
loop $-1 -1 $-1 $-1 $266 $301 #
coedge $-1 -1 $-1 $269 $268 $325 $338 reversed $271 $-1 #
edge $-1 -1 $-1 $272 -2.8118638534165077e-033 $344 0.75 $269 $345 forward @7 unknown #
coedge $-1 -1 $-1 $343 $270 $329 $346 reversed $322 $-1 #
loop $-1 -1 $-1 $-1 $270 $337 #
face $-1 -1 $-1 $315 $271 $16 $-1 $347 reversed single #
point $-1 -1 $-1 -2.8118638534165077e-033 -0.75 43.75 #
coedge $-1 -1 $-1 $274 $292 $319 $338 forward $293 $-1 #
straight-curve $-1 -1 $-1 0 -0.75 -43.75 -1 0 0 I I #
vertex $-1 -1 $-1 $314 $348 #
coedge $-1 -1 $-1 $329 $279 $282 $218 forward $312 $-1 #
coedge $-1 -1 $-1 $279 $328 $321 $346 forward $312 $-1 #
coedge $-1 -1 $-1 $282 $281 $343 $349 reversed $261 $-1 #
straight-curve $-1 -1 $-1 -0.75 0 -43.75 0 1 0 I I #
face $-1 -1 $-1 $305 $287 $16 $-1 $262 reversed single #
point $-1 -1 $-1 -0.75 -0.75 43.75 #
edge $-1 -1 $-1 $299 -43.75 $242 43.75 $291 $350 forward @7 unknown #
edge $-1 -1 $-1 $344 -0.75 $159 0 $292 $300 forward @7 unknown #
face $-1 -1 $-1 $-1 $293 $16 $-1 $136 reversed single #
face $-1 -1 $-1 $332 $322 $16 $-1 $347 reversed single #
edge $-1 -1 $-1 $344 -43.75 $298 43.75 $325 $351 forward @7 unknown #
point $-1 -1 $-1 0.75 -0.75 -43.75 #
point $-1 -1 $-1 0.75 0.75 43.75 #
straight-curve $-1 -1 $-1 -0.75 0.75 0 0 0 -1 I I #
point $-1 -1 $-1 -0.75 0.75 -43.75 #
coedge $-1 -1 $-1 $313 $321 $330 $349 forward $322 $-1 #
vertex $-1 -1 $-1 $335 $352 #
straight-curve $-1 -1 $-1 0 -0.75 43.75 1 0 0 I I #
edge $-1 -1 $-1 $290 -0.75 $272 -2.8118638534165077e-033 $321 $345 forward @7 unknown #
plane-surface $-1 -1 $-1 0 -0.75 0 0 1 0 0 0 1 forward_v I I I I #
point $-1 -1 $-1 -0.75 -0.75 -43.75 #
edge $-1 -1 $-1 $290 -43.75 $327 43.75 $330 $353 forward @7 unknown #
straight-curve $-1 -1 $-1 0.75 0.75 0 0 0 -1 I I #
straight-curve $-1 -1 $-1 0.75 -0.75 0 0 0 -1 I I #
point $-1 -1 $-1 0.75 -0.75 43.75 #
straight-curve $-1 -1 $-1 -0.75 -0.75 0 0 0 -1 I I #
End-of-ACIS-data 