700 0 2 0           
24 FBMach with ACIS - 7.0.3 13 ACIS 7.0.3 NT 24 Thu May 16 15:14:10 2002 
1 9.9999999999999995e-007 1e-010 
body $2 -1 $-1 $3 $-1 $4 #
bdycol-kcp $-1 -1 1 4 $5 $6 $7 $8 #
model_id-kcp-attrib $-1 -1 $-1 $-1 $0 1 1021576450 1021576450 1104674817 1 #
lump $-1 -1 $-1 $-1 $9 $0 #
transform $-1 -1 1 0 0 0 1 0 0 0 1 0 0 0 1 rotate no_reflect no_shear #
body $10 -1 $-1 $11 $-1 $12 #
body $13 -1 $-1 $14 $-1 $15 #
body $16 -1 $-1 $17 $-1 $18 #
body $19 -1 $-1 $20 $-1 $21 #
shell $-1 -1 $-1 $-1 $-1 $22 $-1 $3 #
rgb_color-st-attrib $-1 -1 $23 $-1 $5 0 0 1 #
lump $-1 -1 $-1 $-1 $24 $5 #
transform $-1 -1 1 0 0 0 1 0 0 0 1 0 13.974744871391593 0 1 no_rotate no_reflect no_shear #
rgb_color-st-attrib $-1 -1 $25 $-1 $6 0.5 1 1 #
lump $-1 -1 $-1 $-1 $26 $6 #
transform $-1 -1 1 0 0 0 1 0 0 0 1 0 13.974744871391593 0 1 no_rotate no_reflect no_shear #
rgb_color-st-attrib $-1 -1 $27 $-1 $7 0.5 0.5 1 #
lump $-1 -1 $-1 $-1 $28 $7 #
transform $-1 -1 1 0 0 0 1 0 0 0 1 0 13.974744871391593 0 1 no_rotate no_reflect no_shear #
model_id-kcp-attrib $-1 -1 $-1 $-1 $8 1 1021576450 1021576450 1104674818 1 #
lump $-1 -1 $-1 $-1 $29 $8 #
transform $-1 -1 1 0 0 0 1 0 0 0 1 0 13.974744871391593 0 1 no_rotate no_reflect no_shear #
face $30 -1 $-1 $31 $32 $9 $-1 $33 forward single #
model_id-kcp-attrib $-1 -1 $-1 $10 $5 1 1021576450 1021576450 1091436549 1 #
shell $-1 -1 $-1 $-1 $-1 $34 $-1 $11 #
model_id-kcp-attrib $-1 -1 $-1 $13 $6 1 1021576450 1021576450 1095761923 1 #
shell $-1 -1 $-1 $-1 $-1 $35 $-1 $14 #
model_id-kcp-attrib $-1 -1 $-1 $16 $7 1 1021576450 1021576450 1099038724 1 #
shell $-1 -1 $-1 $-1 $-1 $36 $-1 $17 #
shell $-1 -1 $-1 $-1 $-1 $37 $-1 $20 #
model_id-kcp-attrib $-1 -1 $-1 $-1 $22 1 1021576450 1021576450 1104674817 2 #
face $38 -1 $-1 $39 $40 $9 $-1 $41 forward single #
loop $-1 -1 $-1 $-1 $42 $22 #
cone-surface $-1 -1 $-1 0 21 0 0 -1 0 -12.375 0 0 1 I I 0 1 12.375 forward I I I I #
face $-1 -1 $-1 $43 $44 $24 $-1 $45 forward single #
face $-1 -1 $-1 $46 $47 $26 $-1 $48 reversed single #
face $-1 -1 $-1 $49 $50 $28 $-1 $51 reversed single #
face $-1 -1 $-1 $52 $53 $29 $-1 $54 forward single #
model_id-kcp-attrib $-1 -1 $-1 $-1 $31 1 1021576450 1021576450 1104674817 3 #
face $55 -1 $-1 $56 $57 $9 $-1 $58 reversed single #
loop $-1 -1 $-1 $-1 $59 $31 #
torus-surface $-1 -1 $-1 0 18 0 0 -1 0 10.375 2 -1 0 0 forward_v I I I I #
coedge $-1 -1 $-1 $60 $61 $62 $63 forward $32 $-1 #
face $-1 -1 $-1 $64 $65 $24 $-1 $66 forward single #
loop $-1 -1 $-1 $67 $68 $34 #
cone-surface $-1 -1 $-1 6.062177826491066 4.0252551286084071 -3.5 0 -1 0 0 0 -3.232961649767474 1 I I 0 -1 3.232961649767474 forward I I I I #
face $-1 -1 $-1 $69 $70 $26 $-1 $48 reversed single #
loop $-1 -1 $-1 $-1 $71 $35 #
cone-surface $-1 -1 $-1 -1.3918726074411713e-031 6.0252551286084071 0 0 1 0 12.375 0 -1.5154503628551919e-015 1 I I 0 1 12.375 forward I I I I #
face $-1 -1 $-1 $72 $73 $28 $-1 $74 forward single #
loop $-1 -1 $-1 $-1 $75 $36 #
plane-surface $-1 -1 $-1 0 6.0252551286084142 0 0 1 0 -1 0 0 forward_v I I I I #
face $-1 -1 $-1 $76 $77 $29 $-1 $78 reversed single #
loop $-1 -1 $-1 $-1 $79 $37 #
plane-surface $-1 -1 $-1 0 0 12.375 0 0 1 1 0 0 forward_v I I I I #
model_id-kcp-attrib $-1 -1 $-1 $-1 $39 1 1021576450 1021576450 1104674817 4 #
face $80 -1 $-1 $81 $82 $9 $-1 $41 forward single #
loop $-1 -1 $-1 $83 $84 $39 #
plane-surface $-1 -1 $-1 0 20 0 0 -1 0 -1 0 0 forward_v I I I I #
coedge $-1 -1 $-1 $85 $86 $84 $87 forward $40 $-1 #
coedge $-1 -1 $-1 $88 $42 $89 $90 reversed $32 $-1 #
coedge $-1 -1 $-1 $42 $88 $91 $92 forward $32 $-1 #
coedge $-1 -1 $-1 $86 $85 $42 $63 reversed $40 $-1 #
edge $-1 -1 $-1 $93 -3.1415926535897931 $94 2.4492127076447545e-016 $42 $95 forward @7 unknown #
face $-1 -1 $-1 $96 $97 $24 $-1 $98 reversed single #
loop $-1 -1 $-1 $99 $100 $43 #
cone-surface $-1 -1 $-1 0 4.0252551286084071 0 0 -1 0 -10.375 0 0 1 I I 0 1 10.375 forward I I I I #
loop $-1 -1 $-1 $-1 $101 $34 #
coedge $-1 -1 $-1 $68 $68 $102 $103 forward $44 $-1 #
face $-1 -1 $-1 $104 $105 $26 $-1 $48 reversed single #
loop $-1 -1 $-1 $-1 $106 $46 #
coedge $-1 -1 $-1 $107 $108 $109 $110 reversed $47 $-1 #
face $-1 -1 $-1 $-1 $111 $28 $-1 $112 reversed single #
loop $-1 -1 $-1 $113 $114 $49 #
cone-surface $-1 -1 $-1 -1.3918726074411713e-031 6.0252551286084071 0 0 1 0 12.375 0 -1.5154503628551919e-015 1 I I 0 1 12.375 forward I I I I #
coedge $-1 -1 $-1 $75 $75 $115 $116 forward $50 $-1 #
face $117 -1 $-1 $118 $119 $29 $-1 $120 reversed single #
loop $-1 -1 $-1 $-1 $121 $52 #
plane-surface $-1 -1 $-1 0 0 -12.375 0 0 1 1 0 0 forward_v I I I I #
coedge $-1 -1 $-1 $122 $123 $124 $125 forward $53 $-1 #
model_id-kcp-attrib $-1 -1 $-1 $-1 $56 1 1021576450 1021576450 1104674817 5 #
face $126 -1 $-1 $127 $128 $9 $-1 $33 forward single #
loop $-1 -1 $-1 $-1 $129 $56 #
loop $-1 -1 $-1 $-1 $130 $39 #
coedge $-1 -1 $-1 $131 $131 $59 $87 reversed $57 $-1 #
coedge $-1 -1 $-1 $62 $59 $132 $133 reversed $40 $-1 #
coedge $-1 -1 $-1 $59 $62 $134 $135 forward $40 $-1 #
edge $136 -1 $-1 $137 1.5707963267948968 $138 4.7123889803846897 $59 $139 forward @7 unknown #
coedge $-1 -1 $-1 $61 $60 $140 $141 reversed $32 $-1 #
coedge $-1 -1 $-1 $142 $143 $60 $90 forward $128 $-1 #
edge $-1 -1 $-1 $144 0 $94 18 $60 $145 forward @7 unknown #
coedge $-1 -1 $-1 $143 $142 $61 $92 reversed $128 $-1 #
edge $-1 -1 $-1 $146 0 $93 18 $61 $147 forward @7 unknown #
vertex $-1 -1 $-1 $92 $148 #
vertex $-1 -1 $-1 $90 $149 #
ellipse-curve $-1 -1 $-1 0 18 0 0 -1 0 -12.375 0 0 1 I I #
face $-1 -1 $-1 $-1 $150 $24 $-1 $151 forward single #
loop $-1 -1 $-1 $152 $153 $64 #
plane-surface $-1 -1 $-1 1.4402442431524087 -13.974744871391593 -0.83152540148285259 -2.5693178346795606e-033 1 4.0736771017893807e-032 0 -4.0736771017893807e-032 1 forward_v I I I I #
loop $-1 -1 $-1 $-1 $154 $43 #
coedge $-1 -1 $-1 $100 $100 $153 $155 forward $65 $-1 #
coedge $-1 -1 $-1 $101 $101 $156 $157 reversed $67 $-1 #
coedge $-1 -1 $-1 $102 $102 $68 $103 reversed $152 $-1 #
edge $-1 -1 $-1 $158 1.0471975511965985 $158 7.3303828583761845 $68 $159 forward @7 unknown #
face $-1 -1 $-1 $160 $161 $26 $-1 $48 reversed single #
loop $-1 -1 $-1 $-1 $162 $69 #
coedge $-1 -1 $-1 $163 $164 $165 $166 reversed $70 $-1 #
coedge $-1 -1 $-1 $167 $71 $168 $169 forward $47 $-1 #
coedge $-1 -1 $-1 $71 $167 $170 $171 reversed $47 $-1 #
coedge $-1 -1 $-1 $172 $173 $71 $110 forward $174 $-1 #
edge $-1 -1 $-1 $175 -3.1415926535897931 $176 -1.5707963267948968 $109 $177 forward @7 unknown #
loop $-1 -1 $-1 $-1 $178 $72 #
plane-surface $-1 -1 $-1 0 13.974744871391593 0 0 -1 0 0 0 -1 forward_v I I I I #
loop $-1 -1 $-1 $-1 $115 $49 #
coedge $-1 -1 $-1 $114 $114 $178 $179 reversed $73 $-1 #
coedge $-1 -1 $-1 $115 $115 $75 $116 reversed $113 $-1 #
edge $180 -1 $-1 $181 -3.1415926535897931 $181 3.1415926535897931 $115 $182 forward @7 unknown #
model_id-kcp-attrib $-1 -1 $-1 $-1 $76 1 1021576450 1021576450 1104674818 2 #
face $-1 -1 $-1 $183 $184 $29 $-1 $185 reversed single #
loop $-1 -1 $-1 $-1 $186 $76 #
plane-surface $-1 -1 $-1 0 -13.974744871391593 0 0 1 0 0 0 1 forward_v I I I I #
coedge $-1 -1 $-1 $187 $188 $189 $190 forward $77 $-1 #
coedge $-1 -1 $-1 $191 $79 $192 $193 forward $53 $-1 #
coedge $-1 -1 $-1 $79 $191 $194 $195 forward $53 $-1 #
coedge $-1 -1 $-1 $196 $197 $79 $125 reversed $198 $-1 #
edge $-1 -1 $-1 $199 -13.974744871391593 $200 13.974744871391593 $124 $201 forward @7 unknown #
model_id-kcp-attrib $-1 -1 $-1 $-1 $81 1 1021576450 1021576450 1104674817 6 #
face $202 -1 $-1 $203 $204 $9 $-1 $205 forward single #
loop $-1 -1 $-1 $-1 $143 $81 #
coedge $-1 -1 $-1 $132 $134 $142 $206 forward $82 $-1 #
coedge $-1 -1 $-1 $207 $207 $208 $209 reversed $83 $-1 #
coedge $-1 -1 $-1 $84 $84 $210 $211 forward $57 $-1 #
coedge $-1 -1 $-1 $210 $129 $85 $133 forward $82 $-1 #
edge $-1 -1 $-1 $94 1.2154326714572564e-063 $138 1.5707963267948977 $85 $212 forward @7 unknown #
coedge $-1 -1 $-1 $129 $210 $86 $135 reversed $82 $-1 #
edge $-1 -1 $-1 $93 3.038581678643141e-064 $137 1.5707963267948977 $86 $213 forward @7 unknown #
attrib_edge_convexity-kcp-attrib $-1 -1 $214 $-1 $87 3 #
vertex $-1 -1 $-1 $135 $215 #
vertex $-1 -1 $-1 $133 $216 #
ellipse-curve $-1 -1 $-1 0 20 0 0 -1 0 0 0 -10.375 1 I I #
coedge $-1 -1 $-1 $217 $217 $88 $141 forward $204 $-1 #
edge $-1 -1 $-1 $146 -3.1415926535897931 $144 2.4492127076447545e-016 $88 $218 reversed @7 unknown #
coedge $-1 -1 $-1 $91 $89 $129 $206 reversed $128 $-1 #
coedge $-1 -1 $-1 $89 $91 $217 $219 forward $128 $-1 #
vertex $-1 -1 $-1 $141 $220 #
straight-curve $-1 -1 $-1 -12.375 0 -3.0309007257103837e-015 0 1 0 I I #
vertex $-1 -1 $-1 $92 $221 #
straight-curve $-1 -1 $-1 12.375 0 1.5154503628551919e-015 0 1 0 I I #
point $-1 -1 $-1 12.375 18 1.5154503628551919e-015 #
point $-1 -1 $-1 -12.375 18 -3.0309007257103837e-015 #
loop $-1 -1 $-1 $222 $223 $96 #
plane-surface $-1 -1 $-1 1.4402442431524087 4.0252551286084071 -0.83152540148285259 -2.5693178346795606e-033 1 4.0736771017893807e-032 0 -4.0736771017893807e-032 1 forward_v I I I I #
loop $-1 -1 $-1 $-1 $102 $64 #
coedge $-1 -1 $-1 $153 $153 $100 $155 reversed $97 $-1 #
coedge $-1 -1 $-1 $154 $154 $223 $224 reversed $99 $-1 #
edge $-1 -1 $-1 $225 -3.1415926535897931 $225 3.1415926535897931 $100 $226 forward @7 unknown #
coedge $-1 -1 $-1 $156 $156 $101 $157 forward $222 $-1 #
edge $227 -1 $-1 $228 -2.0943951023931962 $228 4.1887902047863896 $101 $229 forward @7 unknown #
vertex $-1 -1 $-1 $103 $230 #
ellipse-curve $-1 -1 $-1 6.062177826491066 -13.974744871391593 -3.5 0 -1 0 0 0 -3.232961649767474 1 I I #
face $-1 -1 $-1 $231 $232 $26 $-1 $233 forward single #
loop $-1 -1 $-1 $-1 $234 $104 #
coedge $-1 -1 $-1 $235 $236 $234 $237 forward $105 $-1 #
coedge $-1 -1 $-1 $238 $106 $239 $240 reversed $70 $-1 #
coedge $-1 -1 $-1 $106 $238 $108 $171 forward $70 $-1 #
coedge $-1 -1 $-1 $241 $242 $106 $166 forward $243 $-1 #
edge $-1 -1 $-1 $244 1.2246063538223773e-016 $245 1.5707963267948968 $165 $246 forward @7 unknown #
coedge $-1 -1 $-1 $108 $107 $247 $248 reversed $47 $-1 #
coedge $-1 -1 $-1 $236 $235 $249 $169 reversed $105 $-1 #
edge $-1 -1 $-1 $175 -20 $250 7.9494897427831859 $249 $251 forward @7 unknown #
coedge $-1 -1 $-1 $252 $253 $254 $171 forward $255 $-1 #
edge $-1 -1 $-1 $176 -20 $245 7.9494897427831859 $170 $256 forward @7 unknown #
coedge $-1 -1 $-1 $173 $109 $253 $257 reversed $174 $-1 #
coedge $-1 -1 $-1 $109 $172 $258 $259 forward $174 $-1 #
loop $-1 -1 $-1 $-1 $109 $260 #
vertex $-1 -1 $-1 $261 $262 #
vertex $-1 -1 $-1 $263 $264 #
ellipse-curve $-1 -1 $-1 -1.3918726074411713e-031 -13.974744871391593 0 0 1 0 12.375 0 -1.5154503628551919e-015 1 I I #
coedge $-1 -1 $-1 $178 $178 $114 $179 forward $111 $-1 #
edge $-1 -1 $-1 $265 -3.1415926535897931 $265 3.1415926535897931 $178 $266 forward @7 unknown #
convexity-sys-attrib $-1 -1 $-1 $-1 $116 #
vertex $-1 -1 $-1 $116 $267 #
ellipse-curve $-1 -1 $-1 -1.3918726074411713e-031 6.0252551286084142 0 0 -1 0 12.375 0 -1.5154503628551919e-015 1 I I #
face $-1 -1 $-1 $268 $269 $29 $-1 $270 reversed single #
loop $-1 -1 $-1 $-1 $271 $118 #
plane-surface $-1 -1 $-1 -12.375 0 0 1 0 0 0 0 -1 forward_v I I I I #
coedge $-1 -1 $-1 $272 $194 $273 $274 forward $119 $-1 #
coedge $-1 -1 $-1 $275 $121 $272 $276 forward $77 $-1 #
coedge $-1 -1 $-1 $121 $275 $277 $278 forward $77 $-1 #
coedge $-1 -1 $-1 $197 $196 $121 $190 reversed $198 $-1 #
edge $-1 -1 $-1 $279 -13.974744871391593 $280 13.974744871391593 $189 $281 forward @7 unknown #
coedge $-1 -1 $-1 $123 $122 $282 $283 forward $53 $-1 #
coedge $-1 -1 $-1 $284 $285 $122 $193 reversed $269 $-1 #
edge $-1 -1 $-1 $200 -12.375 $286 12.375 $192 $287 forward @7 unknown #
coedge $-1 -1 $-1 $186 $288 $123 $195 reversed $119 $-1 #
edge $-1 -1 $-1 $289 -12.375 $199 12.375 $194 $290 forward @7 unknown #
coedge $-1 -1 $-1 $189 $124 $288 $291 forward $198 $-1 #
coedge $-1 -1 $-1 $124 $189 $284 $292 reversed $198 $-1 #
loop $-1 -1 $-1 $-1 $196 $268 #
vertex $-1 -1 $-1 $125 $293 #
vertex $-1 -1 $-1 $125 $294 #
straight-curve $-1 -1 $-1 12.375 0 12.375 0 1 0 I I #
model_id-kcp-attrib $-1 -1 $-1 $-1 $127 1 1021576450 1021576450 1104674817 7 #
face $295 -1 $-1 $296 $297 $9 $-1 $298 reversed single #
loop $-1 -1 $-1 $299 $140 $127 #
plane-surface $-1 -1 $-1 0 0 0 0 -1 0 -1 0 0 forward_v I I I I #
edge $-1 -1 $-1 $93 -3.1415926535897931 $94 -2.4492127076447545e-016 $142 $300 reversed @7 unknown #
coedge $-1 -1 $-1 $130 $130 $301 $302 reversed $83 $-1 #
coedge $-1 -1 $-1 $303 $304 $130 $209 forward $305 $-1 #
edge $306 -1 $-1 $307 -1.0471975511965965 $308 2.0943951023931944 $130 $309 reversed @7 unknown #
coedge $-1 -1 $-1 $134 $132 $131 $211 reversed $82 $-1 #
edge $310 -1 $-1 $137 -1.5707963267948968 $138 1.5707963267948966 $131 $311 reversed @7 unknown #
ellipse-curve $-1 -1 $-1 -10.375000000000002 18 -2.5410581841814332e-015 2.449212707644755e-016 3.0410324156925642e-032 -1 -1.9999999999999982 0 -4.8984254152895051e-016 1 I I #
ellipse-curve $-1 -1 $-1 10.375000000000002 18 1.2705290920907166e-015 -1.2246063538223775e-016 1.5205162078462821e-032 1 1.9999999999999982 0 2.4492127076447525e-016 1 I I #
convexity-sys-attrib $-1 -1 $-1 $136 $87 #
point $-1 -1 $-1 10.375 20 1.2705290920907164e-015 #
point $-1 -1 $-1 -10.375 20 0 #
coedge $-1 -1 $-1 $140 $140 $143 $219 reversed $204 $-1 #
ellipse-curve $-1 -1 $-1 0 0 0 0 1 0 -12.375 0 0 1 I I #
edge $-1 -1 $-1 $146 -3.1415926535897931 $144 -2.4492127076447545e-016 $143 $312 forward @7 unknown #
point $-1 -1 $-1 -12.375 0 -3.0309007257103837e-015 #
point $-1 -1 $-1 12.375 0 1.5154503628551919e-015 #
loop $-1 -1 $-1 $-1 $156 $96 #
coedge $-1 -1 $-1 $223 $223 $154 $224 forward $150 $-1 #
edge $313 -1 $-1 $314 0 $314 6.2831853071795862 $154 $315 forward @7 unknown #
vertex $-1 -1 $-1 $155 $316 #
ellipse-curve $-1 -1 $-1 0 -13.974744871391593 0 0 1 0 -10.375 0 0 1 I I #
convexity-sys-attrib $-1 -1 $-1 $-1 $157 #
vertex $-1 -1 $-1 $157 $317 #
ellipse-curve $-1 -1 $-1 6.062177826491066 4.0252551286084071 -3.5 0 -1 0 0 0 -3.232961649767474 1 I I #
point $-1 -1 $-1 8.8620047446505588 -13.974744871391593 -5.1164808248837401 #
face $-1 -1 $-1 $318 $319 $26 $-1 $320 reversed single #
loop $-1 -1 $-1 $-1 $254 $160 #
plane-surface $-1 -1 $-1 0 0 12.375 0 0 1 1 0 0 forward_v I I I I #
coedge $-1 -1 $-1 $321 $322 $323 $237 reversed $161 $-1 #
coedge $-1 -1 $-1 $168 $162 $324 $325 reversed $105 $-1 #
coedge $-1 -1 $-1 $162 $168 $326 $327 reversed $105 $-1 #
edge $-1 -1 $-1 $328 -20 $329 7.9494897427831859 $323 $330 forward @7 unknown #
coedge $-1 -1 $-1 $164 $163 $331 $332 reversed $70 $-1 #
coedge $-1 -1 $-1 $333 $334 $335 $240 forward $336 $-1 #
edge $-1 -1 $-1 $337 -20 $244 7.9494897427831859 $239 $338 forward @7 unknown #
coedge $-1 -1 $-1 $242 $165 $339 $340 reversed $243 $-1 #
coedge $-1 -1 $-1 $165 $241 $333 $341 forward $243 $-1 #
loop $-1 -1 $-1 $-1 $165 $342 #
vertex $-1 -1 $-1 $343 $344 #
vertex $-1 -1 $-1 $345 $346 #
ellipse-curve $-1 -1 $-1 -1.3918726074411713e-031 13.974744871391593 0 0 -1 0 12.375 0 -1.5154503628551919e-015 1 I I #
coedge $-1 -1 $-1 $347 $348 $167 $248 forward $349 $-1 #
edge $-1 -1 $-1 $245 1.5707963267948968 $250 3.1415926535897931 $247 $246 forward @7 unknown #
coedge $-1 -1 $-1 $350 $351 $352 $169 forward $319 $-1 #
vertex $-1 -1 $-1 $353 $354 #
straight-curve $-1 -1 $-1 -12.375 6.0252551286084071 0 0 1 0 I I #
coedge $-1 -1 $-1 $355 $170 $348 $345 forward $255 $-1 #
coedge $-1 -1 $-1 $170 $355 $172 $257 forward $255 $-1 #
coedge $-1 -1 $-1 $356 $339 $164 $171 reversed $232 $-1 #
loop $-1 -1 $-1 $-1 $170 $357 #
straight-curve $-1 -1 $-1 -1.3918726074411713e-031 6.0252551286084071 12.375 0 1 0 I I #
edge $-1 -1 $-1 $358 -12.375 $176 -1.3918726074411713e-031 $172 $359 forward @7 unknown #
coedge $-1 -1 $-1 $360 $352 $173 $259 reversed $361 $-1 #
edge $-1 -1 $-1 $358 -12.375 $175 0 $258 $362 forward @7 unknown #
face $-1 -1 $-1 $363 $174 $26 $-1 $364 reversed single #
edge $-1 -1 $-1 $175 0 $365 12.375 $351 $362 forward @7 unknown #
point $-1 -1 $-1 -12.375 -13.974744871391593 0 #
edge $-1 -1 $-1 $176 -1.3918726074411713e-031 $366 12.375 $367 $359 forward @7 unknown #
point $-1 -1 $-1 -1.3918726074411713e-031 -13.974744871391593 12.375 #
vertex $-1 -1 $-1 $179 $368 #
ellipse-curve $-1 -1 $-1 -1.3918726074411713e-031 13.974744871391593 0 0 1 0 12.375 0 -1.5154503628551919e-015 1 I I #
point $-1 -1 $-1 -12.375 6.0252551286084142 0 #
face $-1 -1 $-1 $-1 $198 $29 $-1 $369 reversed single #
loop $-1 -1 $-1 $-1 $284 $183 #
plane-surface $-1 -1 $-1 0 13.974744871391593 0 0 -1 0 0 0 -1 forward_v I I I I #
coedge $-1 -1 $-1 $370 $282 $285 $371 forward $184 $-1 #
coedge $-1 -1 $-1 $288 $186 $187 $276 reversed $119 $-1 #
coedge $-1 -1 $-1 $282 $370 $186 $274 reversed $184 $-1 #
edge $-1 -1 $-1 $289 -12.375 $372 12.375 $273 $373 forward @7 unknown #
coedge $-1 -1 $-1 $188 $187 $370 $374 forward $77 $-1 #
edge $-1 -1 $-1 $280 -12.375 $372 12.375 $272 $375 forward @7 unknown #
coedge $-1 -1 $-1 $285 $284 $188 $278 reversed $269 $-1 #
edge $-1 -1 $-1 $376 -12.375 $279 12.375 $277 $377 forward @7 unknown #
vertex $-1 -1 $-1 $190 $378 #
vertex $-1 -1 $-1 $291 $379 #
straight-curve $-1 -1 $-1 12.375 0 -12.375 0 -1 0 I I #
coedge $-1 -1 $-1 $271 $273 $191 $283 reversed $184 $-1 #
edge $-1 -1 $-1 $286 -13.974744871391593 $289 13.974744871391593 $282 $380 forward @7 unknown #
coedge $-1 -1 $-1 $277 $192 $197 $292 forward $269 $-1 #
coedge $-1 -1 $-1 $192 $277 $271 $371 reversed $269 $-1 #
vertex $-1 -1 $-1 $193 $381 #
straight-curve $-1 -1 $-1 0 13.974744871391593 12.375 -1 0 0 I I #
coedge $-1 -1 $-1 $194 $272 $196 $291 reversed $119 $-1 #
vertex $-1 -1 $-1 $283 $382 #
straight-curve $-1 -1 $-1 0 -13.974744871391593 12.375 1 0 0 I I #
edge $-1 -1 $-1 $199 -12.375 $280 12.375 $196 $383 forward @7 unknown #
edge $-1 -1 $-1 $200 -12.375 $279 12.375 $197 $384 forward @7 unknown #
point $-1 -1 $-1 12.375 -13.974744871391593 12.375 #
point $-1 -1 $-1 12.375 13.974744871391593 12.375 #
model_id-kcp-attrib $-1 -1 $-1 $-1 $203 1 1021576450 1021576450 1104674817 8 #
face $385 -1 $-1 $386 $387 $9 $-1 $298 reversed single #
loop $-1 -1 $-1 $-1 $388 $203 #
cone-surface $-1 -1 $-1 0 21 0 0 -1 0 -10.375 0 0 1 I I 0 1 10.375 forward I I I I #
loop $-1 -1 $-1 $-1 $389 $127 #
ellipse-curve $-1 -1 $-1 0 18 0 0 -1 0 -12.375 0 0 1 I I #
coedge $-1 -1 $-1 $390 $391 $207 $302 forward $392 $-1 #
edge $393 -1 $-1 $308 -4.1887902047863914 $307 -1.0471975511965965 $207 $394 reversed @7 unknown #
coedge $-1 -1 $-1 $304 $208 $391 $395 reversed $305 $-1 #
coedge $-1 -1 $-1 $208 $303 $390 $396 forward $305 $-1 #
loop $-1 -1 $-1 $-1 $303 $397 #
attrib_edge_convexity-kcp-attrib $-1 -1 $398 $-1 $209 1 #
vertex $-1 -1 $-1 $302 $399 #
vertex $-1 -1 $-1 $302 $400 #
ellipse-curve $-1 -1 $-1 6.062177826491066 20 -3.5 0 -1 0 0 0 2.4999999999999929 1 I I #
attrib_edge_convexity-kcp-attrib $-1 -1 $401 $-1 $211 3 #
ellipse-curve $-1 -1 $-1 0 20 0 0 -1 0 0 0 -10.375 1 I I #
ellipse-curve $-1 -1 $-1 0 0 0 0 1 0 -12.375 0 0 1 I I #
convexity-sys-attrib $-1 -1 $-1 $-1 $224 #
vertex $-1 -1 $-1 $224 $402 #
ellipse-curve $-1 -1 $-1 0 4.0252551286084071 0 0 1 0 -10.375 0 0 1 I I #
point $-1 -1 $-1 10.375 -13.974744871391593 1.2705290920907164e-015 #
point $-1 -1 $-1 3.2623509083315834 4.0252551286084071 -1.8835191751162597 #
face $-1 -1 $-1 $403 $404 $26 $-1 $405 reversed single #
loop $-1 -1 $-1 $-1 $249 $231 #
plane-surface $-1 -1 $-1 -12.375 0 0 1 0 0 0 0 -1 forward_v I I I I #
coedge $-1 -1 $-1 $406 $234 $407 $408 reversed $161 $-1 #
coedge $-1 -1 $-1 $234 $406 $409 $410 reversed $161 $-1 #
coedge $-1 -1 $-1 $411 $412 $413 $237 forward $414 $-1 #
coedge $-1 -1 $-1 $415 $416 $235 $325 forward $417 $-1 #
edge $-1 -1 $-1 $250 -3.1415926535897931 $329 -1.5707963267948966 $324 $246 forward @7 unknown #
coedge $-1 -1 $-1 $418 $419 $236 $327 forward $420 $-1 #
edge $-1 -1 $-1 $328 1.5707963267948966 $175 3.1415926535897931 $326 $177 forward @7 unknown #
vertex $-1 -1 $-1 $421 $422 #
vertex $-1 -1 $-1 $423 $424 #
straight-curve $-1 -1 $-1 -1.3918726074411713e-031 6.0252551286084071 -12.375 0 1 0 I I #
coedge $-1 -1 $-1 $425 $367 $238 $332 forward $426 $-1 #
edge $-1 -1 $-1 $176 -1.5707963267948968 $337 -1.2246063538223773e-016 $331 $177 forward @7 unknown #
coedge $-1 -1 $-1 $427 $239 $242 $341 reversed $336 $-1 #
coedge $-1 -1 $-1 $239 $427 $425 $428 forward $336 $-1 #
coedge $-1 -1 $-1 $429 $430 $406 $240 reversed $404 $-1 #
loop $-1 -1 $-1 $-1 $239 $431 #
vertex $-1 -1 $-1 $432 $433 #
straight-curve $-1 -1 $-1 12.375 6.0252551286084071 0 0 1 0 I I #
coedge $-1 -1 $-1 $254 $434 $241 $340 forward $232 $-1 #
edge $-1 -1 $-1 $435 -12.375 $245 1.3918726074411713e-031 $241 $436 forward @7 unknown #
edge $-1 -1 $-1 $435 -12.375 $244 0 $333 $437 forward @7 unknown #
face $-1 -1 $-1 $438 $243 $26 $-1 $439 reversed single #
edge $-1 -1 $-1 $244 0 $440 12.375 $430 $437 forward @7 unknown #
point $-1 -1 $-1 12.375 13.974744871391593 0 #
edge $-1 -1 $-1 $245 1.3918726074411713e-031 $441 12.375 $348 $436 forward @7 unknown #
point $-1 -1 $-1 -1.3918726074411713e-031 13.974744871391593 12.375 #
coedge $-1 -1 $-1 $348 $247 $442 $443 reversed $349 $-1 #
coedge $-1 -1 $-1 $247 $347 $252 $345 reversed $349 $-1 #
loop $-1 -1 $-1 $-1 $247 $438 #
coedge $-1 -1 $-1 $444 $249 $416 $353 forward $319 $-1 #
coedge $-1 -1 $-1 $249 $444 $418 $261 reversed $319 $-1 #
coedge $-1 -1 $-1 $258 $442 $107 $169 reversed $361 $-1 #
edge $-1 -1 $-1 $250 0 $445 12.375 $416 $446 forward @7 unknown #
point $-1 -1 $-1 -12.375 13.974744871391593 0 #
coedge $-1 -1 $-1 $253 $252 $360 $447 forward $255 $-1 #
coedge $-1 -1 $-1 $434 $254 $367 $263 forward $232 $-1 #
face $-1 -1 $-1 $448 $255 $26 $-1 $233 forward single #
vertex $-1 -1 $-1 $447 $449 #
straight-curve $-1 -1 $-1 0 -13.974744871391593 12.375 1 0 0 I I #
coedge $-1 -1 $-1 $442 $258 $355 $447 reversed $361 $-1 #
loop $-1 -1 $-1 $-1 $352 $450 #
straight-curve $-1 -1 $-1 -12.375 -13.974744871391593 0 0 0 -1 I I #
face $-1 -1 $-1 $451 $426 $26 $-1 $364 reversed single #
plane-surface $-1 -1 $-1 0 -13.974744871391593 0 0 1 0 0 0 1 forward_v I I I I #
vertex $-1 -1 $-1 $452 $453 #
vertex $-1 -1 $-1 $454 $455 #
coedge $-1 -1 $-1 $331 $425 $356 $263 reversed $426 $-1 #
point $-1 -1 $-1 -12.375 13.974744871391593 0 #
plane-surface $-1 -1 $-1 12.375 0 0 -1 0 0 0 0 1 forward_v I I I I #
coedge $-1 -1 $-1 $273 $271 $275 $374 reversed $184 $-1 #
edge $-1 -1 $-1 $286 -12.375 $376 12.375 $285 $456 forward @7 unknown #
vertex $-1 -1 $-1 $374 $457 #
straight-curve $-1 -1 $-1 -12.375 -13.974744871391593 0 0 0 -1 I I #
edge $-1 -1 $-1 $372 -13.974744871391593 $376 13.974744871391593 $370 $458 forward @7 unknown #
straight-curve $-1 -1 $-1 0 -13.974744871391593 -12.375 -1 0 0 I I #
vertex $-1 -1 $-1 $278 $459 #
straight-curve $-1 -1 $-1 0 13.974744871391593 -12.375 1 0 0 I I #
point $-1 -1 $-1 12.375 13.974744871391593 -12.375 #
point $-1 -1 $-1 12.375 -13.974744871391593 -12.375 #
straight-curve $-1 -1 $-1 -12.375 0 12.375 0 -1 0 I I #
point $-1 -1 $-1 -12.375 13.974744871391593 12.375 #
point $-1 -1 $-1 -12.375 -13.974744871391593 12.375 #
straight-curve $-1 -1 $-1 12.375 -13.974744871391593 0 0 0 -1 I I #
straight-curve $-1 -1 $-1 12.375 13.974744871391593 0 0 0 -1 I I #
model_id-kcp-attrib $-1 -1 $-1 $-1 $296 1 1021576450 1021576450 1104674817 9 #
face $460 -1 $-1 $461 $462 $9 $-1 $463 forward single #
loop $-1 -1 $-1 $-1 $464 $296 #
coedge $-1 -1 $-1 $465 $466 $389 $467 forward $297 $-1 #
coedge $-1 -1 $-1 $468 $468 $388 $467 reversed $299 $-1 #
coedge $-1 -1 $-1 $391 $301 $304 $396 reversed $392 $-1 #
coedge $-1 -1 $-1 $301 $390 $303 $395 forward $392 $-1 #
loop $-1 -1 $-1 $-1 $390 $469 #
attrib_edge_convexity-kcp-attrib $-1 -1 $470 $-1 $302 1 #
ellipse-curve $-1 -1 $-1 6.062177826491066 20 -3.5 0 -1 0 0 0 2.4999999999999929 1 I I #
edge $-1 -1 $-1 $471 2.4148803221051381e-032 $308 0.79560295348453502 $391 $472 forward @7 unknown #
edge $-1 -1 $-1 $471 5.6641695970197545e-016 $307 0.79560295348453303 $390 $473 forward @7 unknown #
face $474 -1 $-1 $469 $305 $9 $-1 $475 reversed single #
convexity-sys-attrib $-1 -1 $-1 $306 $209 #
point $-1 -1 $-1 3.8971143170299749 20 -2.25 #
point $-1 -1 $-1 8.2272413359521686 20 -4.75 #
convexity-sys-attrib $-1 -1 $-1 $310 $211 #
point $-1 -1 $-1 -10.375 4.0252551286084071 0 #
face $-1 -1 $-1 $342 $476 $26 $-1 $439 reversed single #
loop $-1 -1 $-1 $-1 $335 $318 #
plane-surface $-1 -1 $-1 12.375 0 0 -1 0 0 0 0 1 forward_v I I I I #
coedge $-1 -1 $-1 $322 $321 $163 $240 forward $161 $-1 #
coedge $-1 -1 $-1 $477 $478 $321 $408 forward $479 $-1 #
edge $-1 -1 $-1 $337 -1.2246063538223773e-016 $328 1.5707963267948966 $407 $177 forward @7 unknown #
coedge $-1 -1 $-1 $480 $481 $322 $410 forward $476 $-1 #
edge $-1 -1 $-1 $329 -1.5707963267948966 $244 1.2246063538223773e-016 $409 $246 forward @7 unknown #
coedge $-1 -1 $-1 $482 $323 $481 $423 forward $414 $-1 #
coedge $-1 -1 $-1 $323 $482 $477 $483 forward $414 $-1 #
coedge $-1 -1 $-1 $484 $485 $162 $237 reversed $486 $-1 #
loop $-1 -1 $-1 $-1 $323 $448 #
coedge $-1 -1 $-1 $416 $324 $485 $487 reversed $417 $-1 #
coedge $-1 -1 $-1 $324 $415 $350 $353 reversed $417 $-1 #
loop $-1 -1 $-1 $-1 $324 $488 #
coedge $-1 -1 $-1 $419 $326 $351 $261 forward $420 $-1 #
coedge $-1 -1 $-1 $326 $418 $484 $421 reversed $420 $-1 #
loop $-1 -1 $-1 $-1 $326 $489 #
edge $-1 -1 $-1 $328 1.3918726074411713e-031 $365 12.375 $419 $490 forward @7 unknown #
point $-1 -1 $-1 -1.3918726074411713e-031 -13.974744871391593 -12.375 #
edge $-1 -1 $-1 $329 -1.3918726074411713e-031 $440 12.375 $481 $491 forward @7 unknown #
point $-1 -1 $-1 -1.3918726074411713e-031 13.974744871391593 -12.375 #
coedge $-1 -1 $-1 $367 $331 $334 $428 reversed $426 $-1 #
loop $-1 -1 $-1 $-1 $331 $363 #
coedge $-1 -1 $-1 $334 $333 $434 $454 reversed $336 $-1 #
edge $-1 -1 $-1 $366 -12.375 $337 0 $334 $492 forward @7 unknown #
coedge $-1 -1 $-1 $493 $335 $478 $432 forward $404 $-1 #
coedge $-1 -1 $-1 $335 $493 $480 $343 reversed $404 $-1 #
face $-1 -1 $-1 $-1 $336 $26 $-1 $405 reversed single #
edge $-1 -1 $-1 $337 0 $494 12.375 $429 $492 forward @7 unknown #
point $-1 -1 $-1 12.375 -13.974744871391593 0 #
coedge $-1 -1 $-1 $339 $356 $427 $454 forward $232 $-1 #
vertex $-1 -1 $-1 $454 $495 #
straight-curve $-1 -1 $-1 0 13.974744871391593 12.375 -1 0 0 I I #
straight-curve $-1 -1 $-1 12.375 13.974744871391593 0 0 0 -1 I I #
face $-1 -1 $-1 $488 $349 $26 $-1 $439 reversed single #
plane-surface $-1 -1 $-1 0 13.974744871391593 0 0 -1 0 0 0 -1 forward_v I I I I #
vertex $-1 -1 $-1 $496 $497 #
vertex $-1 -1 $-1 $345 $498 #
coedge $-1 -1 $-1 $352 $360 $347 $443 forward $361 $-1 #
edge $-1 -1 $-1 $441 -12.375 $250 0 $347 $446 forward @7 unknown #
coedge $-1 -1 $-1 $351 $350 $499 $452 reversed $319 $-1 #
vertex $-1 -1 $-1 $487 $500 #
straight-curve $-1 -1 $-1 -12.375 13.974744871391593 0 0 0 -1 I I #
edge $-1 -1 $-1 $441 -13.974744871391593 $358 13.974744871391593 $360 $501 forward @7 unknown #
face $-1 -1 $-1 $450 $414 $26 $-1 $502 reversed single #
point $-1 -1 $-1 -12.375 -13.974744871391593 12.375 #
face $-1 -1 $-1 $431 $361 $26 $-1 $320 reversed single #
face $-1 -1 $-1 $503 $479 $26 $-1 $364 reversed single #
edge $-1 -1 $-1 $365 -13.974744871391593 $445 13.974744871391593 $444 $504 forward @7 unknown #
point $-1 -1 $-1 -12.375 -13.974744871391593 -12.375 #
edge $-1 -1 $-1 $366 -13.974744871391593 $435 13.974744871391593 $427 $505 forward @7 unknown #
point $-1 -1 $-1 12.375 -13.974744871391593 12.375 #
straight-curve $-1 -1 $-1 -12.375 13.974744871391593 0 0 0 -1 I I #
point $-1 -1 $-1 -12.375 -13.974744871391593 -12.375 #
straight-curve $-1 -1 $-1 -12.375 0 -12.375 0 1 0 I I #
point $-1 -1 $-1 -12.375 13.974744871391593 -12.375 #
model_id-kcp-attrib $-1 -1 $-1 $-1 $386 1 1021576450 1021576450 1104674817 10 #
face $506 -1 $-1 $507 $508 $9 $-1 $509 forward single #
loop $-1 -1 $-1 $510 $511 $386 #
plane-surface $-1 -1 $-1 0 18 0 0 -1 0 -1 0 0 forward_v I I I I #
coedge $-1 -1 $-1 $512 $513 $514 $515 forward $387 $-1 #
coedge $-1 -1 $-1 $516 $388 $512 $517 forward $297 $-1 #
coedge $-1 -1 $-1 $388 $516 $513 $518 reversed $297 $-1 #
edge $-1 -1 $-1 $519 -3.1415926535897931 $520 2.4492127076447545e-016 $389 $521 forward @7 unknown #
coedge $-1 -1 $-1 $389 $389 $522 $523 forward $299 $-1 #
face $524 -1 $-1 $-1 $392 $9 $-1 $475 reversed single #
convexity-sys-attrib $-1 -1 $-1 $393 $302 #
vertex $-1 -1 $-1 $395 $525 #
ellipse-curve $-1 -1 $-1 6.062177826491066 22.449489742783186 -3.5 0.49999999999999983 -1.6999049306671322e-017 0.86602540378443882 -8.8817841970012523e-016 -3.5 4.4408920985006262e-016 1 I I #
ellipse-curve $-1 -1 $-1 6.062177826491066 22.449489742783186 -3.5 -0.50000000000000011 -1.6999049306671414e-017 -0.8660254037844386 8.8817841970012523e-016 -3.5 -4.4408920985006262e-016 1 I I #
model_id-kcp-attrib $-1 -1 $-1 $-1 $397 1 1021576450 1021576450 1104674817 13 #
sphere-surface $-1 -1 $-1 6.062177826491066 22.449489742783186 -3.5 3.5000000000000004 1 0 0 0 0 1 forward_v I I I I #
loop $-1 -1 $-1 $-1 $409 $403 #
coedge $-1 -1 $-1 $478 $407 $412 $483 reversed $479 $-1 #
coedge $-1 -1 $-1 $407 $477 $429 $432 reversed $479 $-1 #
loop $-1 -1 $-1 $-1 $407 $451 #
coedge $-1 -1 $-1 $481 $409 $430 $343 forward $476 $-1 #
coedge $-1 -1 $-1 $409 $480 $411 $423 reversed $476 $-1 #
coedge $-1 -1 $-1 $412 $411 $493 $496 forward $414 $-1 #
edge $-1 -1 $-1 $494 -12.375 $328 1.3918726074411713e-031 $477 $490 forward @7 unknown #
coedge $-1 -1 $-1 $499 $413 $419 $421 forward $486 $-1 #
coedge $-1 -1 $-1 $413 $499 $415 $487 forward $486 $-1 #
loop $-1 -1 $-1 $-1 $413 $503 #
edge $-1 -1 $-1 $445 -12.375 $329 -1.3918726074411713e-031 $415 $491 forward @7 unknown #
face $-1 -1 $-1 $489 $417 $26 $-1 $439 reversed single #
face $-1 -1 $-1 $260 $420 $26 $-1 $364 reversed single #
straight-curve $-1 -1 $-1 0 -13.974744871391593 -12.375 -1 0 0 I I #
straight-curve $-1 -1 $-1 0 13.974744871391593 -12.375 1 0 0 I I #
straight-curve $-1 -1 $-1 12.375 -13.974744871391593 0 0 0 -1 I I #
coedge $-1 -1 $-1 $430 $429 $482 $496 reversed $404 $-1 #
vertex $-1 -1 $-1 $432 $526 #
point $-1 -1 $-1 12.375 13.974744871391593 12.375 #
edge $-1 -1 $-1 $440 -13.974744871391593 $494 13.974744871391593 $493 $527 forward @7 unknown #
point $-1 -1 $-1 12.375 13.974744871391593 -12.375 #
point $-1 -1 $-1 -12.375 13.974744871391593 12.375 #
coedge $-1 -1 $-1 $485 $484 $444 $452 forward $486 $-1 #
point $-1 -1 $-1 -12.375 13.974744871391593 -12.375 #
straight-curve $-1 -1 $-1 -12.375 0 12.375 0 -1 0 I I #
plane-surface $-1 -1 $-1 0 0 -12.375 0 0 1 1 0 0 forward_v I I I I #
face $-1 -1 $-1 $357 $486 $26 $-1 $502 reversed single #
straight-curve $-1 -1 $-1 -12.375 0 -12.375 0 1 0 I I #
straight-curve $-1 -1 $-1 12.375 0 12.375 0 1 0 I I #
model_id-kcp-attrib $-1 -1 $-1 $-1 $461 1 1021576450 1021576450 1104674817 11 #
face $528 -1 $-1 $397 $529 $9 $-1 $509 forward single #
loop $-1 -1 $-1 $-1 $530 $461 #
sphere-surface $-1 -1 $-1 6.062177826491066 22.449489742783186 -3.5 5.5000000000000009 1 0 0 0 0 1 forward_v I I I I #
loop $-1 -1 $-1 $-1 $531 $386 #
coedge $-1 -1 $-1 $514 $514 $516 $532 forward $462 $-1 #
coedge $-1 -1 $-1 $522 $464 $465 $517 reversed $387 $-1 #
coedge $-1 -1 $-1 $464 $522 $466 $518 forward $387 $-1 #
coedge $-1 -1 $-1 $511 $511 $464 $515 reversed $462 $-1 #
edge $533 -1 $-1 $534 -3.1415926535897931 $535 0 $514 $536 reversed @7 unknown #
coedge $-1 -1 $-1 $466 $465 $511 $532 reversed $297 $-1 #
edge $-1 -1 $-1 $520 0 $535 18 $465 $537 forward @7 unknown #
edge $-1 -1 $-1 $519 0 $534 18 $466 $538 forward @7 unknown #
vertex $-1 -1 $-1 $523 $539 #
vertex $-1 -1 $-1 $523 $540 #
ellipse-curve $-1 -1 $-1 0 0 0 0 -1 0 -10.375 0 0 1 I I #
coedge $-1 -1 $-1 $513 $512 $468 $523 reversed $387 $-1 #
edge $-1 -1 $-1 $519 -3.1415926535897931 $520 -2.4492127076447545e-016 $468 $541 reversed @7 unknown #
model_id-kcp-attrib $-1 -1 $-1 $-1 $469 1 1021576450 1021576450 1104674817 14 #
point $-1 -1 $-1 6.0621778264910651 18.949489742783186 -3.4999999999999996 #
point $-1 -1 $-1 12.375 -13.974744871391593 -12.375 #
straight-curve $-1 -1 $-1 12.375 0 -12.375 0 -1 0 I I #
model_id-kcp-attrib $-1 -1 $-1 $-1 $507 1 1021576450 1021576450 1104674817 12 #
loop $-1 -1 $-1 $-1 $542 $507 #
coedge $-1 -1 $-1 $543 $544 $545 $546 reversed $508 $-1 #
coedge $-1 -1 $-1 $547 $547 $544 $548 forward $510 $-1 #
edge $549 -1 $-1 $534 -3.1415926535897931 $535 0 $516 $550 reversed @7 unknown #
attrib_edge_convexity-kcp-attrib $-1 -1 $551 $-1 $515 2 #
vertex $-1 -1 $-1 $518 $552 #
vertex $-1 -1 $-1 $532 $553 #
ellipse-curve $-1 -1 $-1 0 18 0 0 -1 0 -10.375 0 0 1 I I #
straight-curve $-1 -1 $-1 -10.375 0 -2.5410581841814328e-015 0 1 0 I I #
straight-curve $-1 -1 $-1 10.375 0 1.2705290920907164e-015 0 1 0 I I #
point $-1 -1 $-1 10.375 0 1.2705290920907164e-015 #
point $-1 -1 $-1 -10.375 0 -2.5410581841814328e-015 #
ellipse-curve $-1 -1 $-1 0 0 0 0 -1 0 -10.375 0 0 1 I I #
coedge $-1 -1 $-1 $545 $554 $543 $555 reversed $529 $-1 #
coedge $-1 -1 $-1 $544 $530 $542 $555 forward $508 $-1 #
coedge $-1 -1 $-1 $530 $543 $531 $548 reversed $508 $-1 #
coedge $-1 -1 $-1 $554 $542 $530 $546 forward $529 $-1 #
edge $-1 -1 $-1 $556 -6.519511613396792e-033 $557 0.62835061540701331 $545 $558 forward @7 unknown #
coedge $-1 -1 $-1 $531 $531 $554 $559 forward $510 $-1 #
edge $560 -1 $-1 $557 -1.047197551196597 $561 2.0943951023931948 $531 $562 reversed @7 unknown #
attrib_edge_convexity-kcp-attrib $-1 -1 $563 $-1 $532 2 #
ellipse-curve $-1 -1 $-1 0 18 0 0 1 0 -10.375 0 0 1 I I #
convexity-sys-attrib $-1 -1 $-1 $533 $515 #
point $-1 -1 $-1 10.375 18 1.2705290920907164e-015 #
point $-1 -1 $-1 -10.375 18 0 #
coedge $-1 -1 $-1 $542 $545 $547 $559 reversed $529 $-1 #
edge $-1 -1 $-1 $556 3.6044715617398437e-016 $561 0.62835061540701453 $542 $564 forward @7 unknown #
vertex $-1 -1 $-1 $546 $565 #
vertex $-1 -1 $-1 $559 $566 #
ellipse-curve $-1 -1 $-1 6.062177826491066 22.449489742783186 -3.5 -0.4999999999999995 -1.081757683151805e-017 -0.86602540378443904 8.8817841970012523e-016 -5.5 -4.4408920985006262e-016 1 I I #
edge $567 -1 $-1 $561 -4.1887902047863914 $557 -1.047197551196597 $547 $568 reversed @7 unknown #
attrib_edge_convexity-kcp-attrib $-1 -1 $569 $-1 $548 2 #
vertex $-1 -1 $-1 $559 $570 #
ellipse-curve $-1 -1 $-1 6.062177826491066 18 -3.5 0 -1 0 0 0 3.232961649767474 1 I I #
convexity-sys-attrib $-1 -1 $-1 $549 $532 #
ellipse-curve $-1 -1 $-1 6.062177826491066 22.449489742783186 -3.5 0.49999999999999967 -1.0817576831518076e-017 0.86602540378443882 -8.8817841970012523e-016 -5.5 4.4408920985006262e-016 1 I I #
point $-1 -1 $-1 6.0621778264910668 16.949489742783186 -3.5000000000000004 #
point $-1 -1 $-1 3.2623509083315834 18 -1.8835191751162597 #
attrib_edge_convexity-kcp-attrib $-1 -1 $571 $-1 $559 2 #
ellipse-curve $-1 -1 $-1 6.062177826491066 18 -3.5 0 -1 0 0 0 3.232961649767474 1 I I #
convexity-sys-attrib $-1 -1 $-1 $560 $548 #
point $-1 -1 $-1 8.8620047446505588 18 -5.1164808248837401 #
convexity-sys-attrib $-1 -1 $-1 $567 $559 #
End-of-ACIS-data 