600 0 1 0           
98 GICL ACIS Healer - Source: /gicl/data5/repository/PTC/V18/bboxrev2/boombox/tuner_control.sat - 6 0 18 ACIS 6.0.3 Solaris 24 Sat Apr 13 22:29:58 2002 
1 9.999999999999999547e-07 1.000000000000000036e-10 
body $-1 $1 $-1 $-1 #
lump $-1 $-1 $2 $0 #
shell $-1 $-1 $-1 $3 $-1 $1 #
face $-1 $4 $5 $2 $-1 $6 forward single #
face $-1 $7 $8 $2 $-1 $9 forward single #
loop $-1 $-1 $10 $3 #
cone-surface $-1 0 21 0 0 -1 0 -12.375 0 0 1 I I 0 1 12.375 forward I I I I #
face $-1 $11 $12 $2 $-1 $13 reversed single #
loop $-1 $-1 $14 $4 #
torus-surface $-1 0 18 0 0 -1 0 10.375 2 -1 0 0 forward_v I I I I #
coedge $-1 $15 $16 $17 $18 forward $5 $-1 #
face $-1 $19 $20 $2 $-1 $9 forward single #
loop $-1 $21 $22 $7 #
plane-surface $-1 0 20 0 0 -1 0 -1 0 0 forward_v I I I I #
coedge $-1 $23 $24 $22 $25 forward $8 $-1 #
coedge $-1 $26 $10 $27 $28 reversed $5 $-1 #
coedge $-1 $10 $26 $29 $30 forward $5 $-1 #
coedge $-1 $24 $23 $10 $18 reversed $8 $-1 #
edge $-1 $31 -3.141592653589793116 $32 2.449212707644754516e-16 $10 $33 forward 7 unknown #
face $-1 $34 $35 $2 $-1 $6 forward single #
loop $-1 $-1 $36 $11 #
loop $-1 $-1 $37 $7 #
coedge $-1 $38 $38 $14 $25 reversed $12 $-1 #
coedge $-1 $17 $14 $39 $40 reversed $8 $-1 #
coedge $-1 $14 $17 $41 $42 forward $8 $-1 #
edge $-1 $43 1.57079632679489678 $44 4.712388980384689674 $14 $45 forward 7 unknown #
coedge $-1 $16 $15 $46 $47 reversed $5 $-1 #
coedge $-1 $48 $49 $15 $28 forward $35 $-1 #
edge $-1 $50 0 $32 18 $15 $51 forward 7 unknown #
coedge $-1 $49 $48 $16 $30 reversed $35 $-1 #
edge $-1 $52 0 $31 18 $16 $53 forward 7 unknown #
vertex $-1 $30 $54 #
vertex $-1 $28 $55 #
ellipse-curve $-1 0 18 0 0 -1 0 -12.375 0 0 1 I I #
face $-1 $56 $57 $2 $-1 $58 forward single #
loop $-1 $-1 $49 $19 #
coedge $-1 $39 $41 $48 $59 forward $20 $-1 #
coedge $-1 $60 $60 $61 $62 reversed $21 $-1 #
coedge $-1 $22 $22 $63 $64 forward $12 $-1 #
coedge $-1 $63 $36 $23 $40 forward $20 $-1 #
edge $-1 $32 1.215432671457256399e-63 $44 1.570796326794897668 $23 $65 forward 7 unknown #
coedge $-1 $36 $63 $24 $42 reversed $20 $-1 #
edge $-1 $31 3.038581678643140997e-64 $43 1.570796326794897668 $24 $66 forward 7 unknown #
vertex $-1 $42 $67 #
vertex $-1 $40 $68 #
ellipse-curve $-1 0 20 0 0 -1 0 0 0 -10.375 1 I I #
coedge $-1 $69 $69 $26 $47 forward $57 $-1 #
edge $-1 $52 -3.141592653589793116 $50 2.449212707644754516e-16 $26 $70 reversed 7 unknown #
coedge $-1 $29 $27 $36 $59 reversed $35 $-1 #
coedge $-1 $27 $29 $69 $71 forward $35 $-1 #
vertex $-1 $47 $72 #
straight-curve $-1 -12.375 0 -3.030900725710383714e-15 0 1 0 I I #
vertex $-1 $30 $73 #
straight-curve $-1 12.375 0 1.515450362855191857e-15 0 1 0 I I #
point $-1 12.375 18 1.515450362855191857e-15 #
point $-1 -12.375 18 -3.030900725710383714e-15 #
face $-1 $74 $75 $2 $-1 $76 reversed single #
loop $-1 $77 $46 $34 #
plane-surface $-1 0 0 0 0 -1 0 -1 0 0 forward_v I I I I #
edge $-1 $31 -3.141592653589793116 $32 -2.449212707644754516e-16 $48 $78 reversed 7 unknown #
coedge $-1 $37 $37 $79 $80 reversed $21 $-1 #
coedge $-1 $81 $82 $37 $62 forward $83 $-1 #
edge $-1 $84 -1.047197551196596521 $85 2.094395102393194374 $37 $86 reversed 7 unknown #
coedge $-1 $41 $39 $38 $64 reversed $20 $-1 #
edge $-1 $43 -1.57079632679489678 $44 1.570796326794896558 $38 $87 reversed 7 unknown #
ellipse-curve $-1 -10.37500000000000178 18 -2.541058184181433205e-15 2.449212707644755009e-16 3.041032415692564222e-32 -1 -1.999999999999998224 0 -4.898425415289505089e-16 1 I I #
ellipse-curve $-1 10.37500000000000178 18 1.270529092090716603e-15 -1.224606353822377505e-16 1.520516207846282111e-32 1 1.999999999999998224 0 2.449212707644752544e-16 1 I I #
point $-1 10.375 20 1.270529092090716405e-15 #
point $-1 -10.375 20 0 #
coedge $-1 $46 $46 $49 $71 reversed $57 $-1 #
ellipse-curve $-1 0 0 0 -0 1 -0 -12.375 0 0 1 I I #
edge $-1 $52 -3.141592653589793116 $50 -2.449212707644754516e-16 $49 $88 forward 7 unknown #
point $-1 -12.375 0 -3.030900725710383714e-15 #
point $-1 12.375 0 1.515450362855191857e-15 #
face $-1 $89 $90 $2 $-1 $76 reversed single #
loop $-1 $-1 $91 $56 #
cone-surface $-1 0 21 0 0 -1 0 -10.375 0 0 1 I I 0 1 10.375 forward I I I I #
loop $-1 $-1 $92 $34 #
ellipse-curve $-1 0 18 0 0 -1 0 -12.375 0 0 1 I I #
coedge $-1 $93 $94 $60 $80 forward $95 $-1 #
edge $-1 $85 -4.188790204786391413 $84 -1.047197551196596521 $60 $96 reversed 7 unknown #
coedge $-1 $82 $61 $94 $97 reversed $83 $-1 #
coedge $-1 $61 $81 $93 $98 forward $83 $-1 #
loop $-1 $-1 $81 $99 #
vertex $-1 $80 $100 #
vertex $-1 $80 $101 #
ellipse-curve $-1 6.062177826491065957 20 -3.5 0 -1 0 -0 0 2.499999999999992895 1 I I #
ellipse-curve $-1 0 20 0 0 -1 0 0 0 -10.375 1 I I #
ellipse-curve $-1 0 0 0 -0 1 -0 -12.375 0 0 1 I I #
face $-1 $102 $103 $2 $-1 $104 forward single #
loop $-1 $-1 $105 $74 #
coedge $-1 $106 $107 $92 $108 forward $75 $-1 #
coedge $-1 $109 $109 $91 $108 reversed $77 $-1 #
coedge $-1 $94 $79 $82 $98 reversed $95 $-1 #
coedge $-1 $79 $93 $81 $97 forward $95 $-1 #
loop $-1 $-1 $93 $110 #
ellipse-curve $-1 6.062177826491065957 20 -3.5 0 -1 0 -0 0 2.499999999999992895 1 I I #
edge $-1 $111 2.414880322105138124e-32 $85 0.7956029534845350248 $94 $112 forward 7 unknown #
edge $-1 $111 5.664169597019754468e-16 $84 0.7956029534845330264 $93 $113 forward 7 unknown #
face $-1 $110 $83 $2 $-1 $114 reversed single #
point $-1 3.897114317029974906 20 -2.25 #
point $-1 8.227241335952168555 20 -4.75 #
face $-1 $115 $116 $2 $-1 $117 forward single #
loop $-1 $118 $119 $89 #
plane-surface $-1 0 18 0 0 -1 0 -1 0 0 forward_v I I I I #
coedge $-1 $120 $121 $122 $123 forward $90 $-1 #
coedge $-1 $124 $91 $120 $125 forward $75 $-1 #
coedge $-1 $91 $124 $121 $126 reversed $75 $-1 #
edge $-1 $127 -3.141592653589793116 $128 2.449212707644754516e-16 $92 $129 forward 7 unknown #
coedge $-1 $92 $92 $130 $131 forward $77 $-1 #
face $-1 $-1 $95 $2 $-1 $114 reversed single #
vertex $-1 $97 $132 #
ellipse-curve $-1 6.062177826491065957 22.44948974278318587 -3.5 0.4999999999999998335 -1.699904930667132183e-17 0.8660254037844388186 -8.881784197001252323e-16 -3.5 4.440892098500626162e-16 1 I I #
ellipse-curve $-1 6.062177826491065957 22.44948974278318587 -3.5 -0.500000000000000111 -1.699904930667141427e-17 -0.8660254037844385966 8.881784197001252323e-16 -3.5 -4.440892098500626162e-16 1 I I #
sphere-surface $-1 6.062177826491065957 22.44948974278318587 -3.5 3.500000000000000444 1 0 0 0 0 1 forward_v I I I I #
face $-1 $99 $133 $2 $-1 $117 forward single #
loop $-1 $-1 $134 $102 #
sphere-surface $-1 6.062177826491065957 22.44948974278318587 -3.5 5.500000000000000888 1 0 0 0 0 1 forward_v I I I I #
loop $-1 $-1 $135 $89 #
coedge $-1 $122 $122 $124 $136 forward $103 $-1 #
coedge $-1 $130 $105 $106 $125 reversed $90 $-1 #
coedge $-1 $105 $130 $107 $126 forward $90 $-1 #
coedge $-1 $119 $119 $105 $123 reversed $103 $-1 #
edge $-1 $137 -3.141592653589793116 $138 -0 $122 $139 reversed 7 unknown #
coedge $-1 $107 $106 $119 $136 reversed $75 $-1 #
edge $-1 $128 0 $138 18 $106 $140 forward 7 unknown #
edge $-1 $127 0 $137 18 $107 $141 forward 7 unknown #
vertex $-1 $131 $142 #
vertex $-1 $131 $143 #
ellipse-curve $-1 0 0 0 0 -1 0 -10.375 0 0 1 I I #
coedge $-1 $121 $120 $109 $131 reversed $90 $-1 #
edge $-1 $127 -3.141592653589793116 $128 -2.449212707644754516e-16 $109 $144 reversed 7 unknown #
point $-1 6.062177826491065069 18.94948974278318587 -3.499999999999999556 #
loop $-1 $-1 $145 $115 #
coedge $-1 $146 $147 $148 $149 reversed $116 $-1 #
coedge $-1 $150 $150 $147 $151 forward $118 $-1 #
edge $-1 $137 -3.141592653589793116 $138 -0 $124 $152 reversed 7 unknown #
vertex $-1 $126 $153 #
vertex $-1 $136 $154 #
ellipse-curve $-1 0 18 0 0 -1 0 -10.375 0 0 1 I I #
straight-curve $-1 -10.375 0 -2.541058184181432811e-15 0 1 0 I I #
straight-curve $-1 10.375 0 1.270529092090716405e-15 0 1 0 I I #
point $-1 10.375 0 1.270529092090716405e-15 #
point $-1 -10.375 0 -2.541058184181432811e-15 #
ellipse-curve $-1 0 0 0 0 -1 0 -10.375 0 0 1 I I #
coedge $-1 $148 $155 $146 $156 reversed $133 $-1 #
coedge $-1 $147 $134 $145 $156 forward $116 $-1 #
coedge $-1 $134 $146 $135 $151 reversed $116 $-1 #
coedge $-1 $155 $145 $134 $149 forward $133 $-1 #
edge $-1 $157 -6.519511613396791961e-33 $158 0.6283506154070133132 $148 $159 forward 7 unknown #
coedge $-1 $135 $135 $155 $160 forward $118 $-1 #
edge $-1 $158 -1.047197551196596965 $161 2.094395102393194819 $135 $162 reversed 7 unknown #
ellipse-curve $-1 0 18 0 -0 1 -0 -10.375 0 0 1 I I #
point $-1 10.375 18 1.270529092090716405e-15 #
point $-1 -10.375 18 0 #
coedge $-1 $145 $148 $150 $160 reversed $133 $-1 #
edge $-1 $157 3.604471561739843663e-16 $161 0.6283506154070145344 $145 $163 forward 7 unknown #
vertex $-1 $149 $164 #
vertex $-1 $160 $165 #
ellipse-curve $-1 6.062177826491065957 22.44948974278318587 -3.5 -0.4999999999999995004 -1.081757683151804974e-17 -0.8660254037844390407 8.881784197001252323e-16 -5.5 -4.440892098500626162e-16 1 I I #
edge $-1 $161 -4.188790204786391413 $158 -1.047197551196596965 $150 $166 reversed 7 unknown #
vertex $-1 $160 $167 #
ellipse-curve $-1 6.062177826491065957 18 -3.5 0 -1 0 -0 0 3.232961649767474022 1 I I #
ellipse-curve $-1 6.062177826491065957 22.44948974278318587 -3.5 0.4999999999999996669 -1.081757683151807593e-17 0.8660254037844388186 -8.881784197001252323e-16 -5.5 4.440892098500626162e-16 1 I I #
point $-1 6.062177826491066845 16.94948974278318587 -3.500000000000000444 #
point $-1 3.262350908331583366 18 -1.883519175116259659 #
ellipse-curve $-1 6.062177826491065957 18 -3.5 0 -1 0 -0 0 3.232961649767474022 1 I I #
point $-1 8.862004744650558763 18 -5.116480824883740119 #
End-of-ACIS-data 