700 0 2 0           
24 FBMach with ACIS - 7.0.3 13 ACIS 7.0.3 NT 24 Thu May 16 08:57:24 2002 
1 9.9999999999999995e-007 1e-010 
body $2 -1 $-1 $3 $-1 $4 #
bdycol-kcp $-1 -1 1 4 $5 $6 $7 $8 #
model_id-kcp-attrib $-1 -1 $-1 $-1 $0 1 1021553843 1021553843 -986513407 1 #
lump $-1 -1 $-1 $-1 $9 $0 #
transform $-1 -1 1 0 0 0 1 0 0 0 1 0 0 0 1 rotate no_reflect no_shear #
body $10 -1 $-1 $11 $-1 $12 #
body $13 -1 $-1 $14 $-1 $15 #
body $16 -1 $-1 $17 $-1 $18 #
body $19 -1 $-1 $20 $-1 $21 #
shell $-1 -1 $-1 $-1 $-1 $22 $-1 $3 #
model_id-kcp-attrib $-1 -1 $-1 $-1 $5 1 1021553843 1021553843 -985858046 1 #
lump $-1 -1 $-1 $-1 $23 $5 #
transform $-1 -1 1 0 0 0 1 0 0 0 1 0 13.974744871391593 0 1 no_rotate no_reflect no_shear #
rgb_color-st-attrib $-1 -1 $24 $-1 $6 0.5 1 1 #
lump $-1 -1 $-1 $-1 $25 $6 #
transform $-1 -1 1 0 0 0 1 0 0 0 1 0 13.974744871391593 0 1 no_rotate no_reflect no_shear #
rgb_color-st-attrib $-1 -1 $26 $-1 $7 0.5 0.5 1 #
lump $-1 -1 $-1 $-1 $27 $7 #
transform $-1 -1 1 0 0 0 1 0 0 0 1 0 13.974744871391593 0 1 no_rotate no_reflect no_shear #
rgb_color-st-attrib $-1 -1 $28 $-1 $8 0 0 1 #
lump $-1 -1 $-1 $-1 $29 $8 #
transform $-1 -1 1 0 0 0 1 0 0 0 1 0 13.974744871391593 0 1 no_rotate no_reflect no_shear #
face $30 -1 $-1 $31 $32 $9 $-1 $33 forward single #
shell $-1 -1 $-1 $-1 $-1 $34 $-1 $11 #
model_id-kcp-attrib $-1 -1 $-1 $13 $6 1 1021553843 1021553843 -978649085 1 #
shell $-1 -1 $-1 $-1 $-1 $35 $-1 $14 #
model_id-kcp-attrib $-1 -1 $-1 $16 $7 1 1021553843 1021553844 -989855740 1 #
shell $-1 -1 $-1 $-1 $-1 $36 $-1 $17 #
model_id-kcp-attrib $-1 -1 $-1 $19 $8 1 1021553843 1021553844 -980680699 1 #
shell $-1 -1 $-1 $-1 $-1 $37 $-1 $20 #
model_id-kcp-attrib $-1 -1 $-1 $-1 $22 1 1021553843 1021553843 -986513407 2 #
face $38 -1 $-1 $39 $40 $9 $-1 $41 forward single #
loop $-1 -1 $-1 $-1 $42 $22 #
cone-surface $-1 -1 $-1 0 21 0 0 -1 0 -12.375 0 0 1 I I 0 1 12.375 forward I I I I #
face $-1 -1 $-1 $43 $44 $23 $-1 $45 forward single #
face $-1 -1 $-1 $46 $47 $25 $-1 $48 reversed single #
face $-1 -1 $-1 $49 $50 $27 $-1 $51 reversed single #
face $-1 -1 $-1 $52 $53 $29 $-1 $54 forward single #
model_id-kcp-attrib $-1 -1 $-1 $-1 $31 1 1021553843 1021553843 -986513407 3 #
face $55 -1 $-1 $56 $57 $9 $-1 $58 reversed single #
loop $-1 -1 $-1 $-1 $59 $31 #
torus-surface $-1 -1 $-1 0 18 0 0 -1 0 10.375 2 -1 0 0 forward_v I I I I #
coedge $-1 -1 $-1 $60 $61 $62 $63 forward $32 $-1 #
face $-1 -1 $-1 $64 $65 $23 $-1 $66 reversed single #
loop $-1 -1 $-1 $-1 $67 $34 #
plane-surface $-1 -1 $-1 0 0 12.375 0 0 1 1 0 0 forward_v I I I I #
face $-1 -1 $-1 $68 $69 $25 $-1 $48 reversed single #
loop $-1 -1 $-1 $-1 $70 $35 #
cone-surface $-1 -1 $-1 -1.3918726074411713e-031 6.0252551286084071 0 0 1 0 12.375 0 -1.5154503628551919e-015 1 I I 0 1 12.375 forward I I I I #
face $-1 -1 $-1 $71 $72 $27 $-1 $73 forward single #
loop $-1 -1 $-1 $-1 $74 $36 #
plane-surface $-1 -1 $-1 0 6.0252551286084142 0 0 1 0 -1 0 0 forward_v I I I I #
face $-1 -1 $-1 $75 $76 $29 $-1 $77 forward single #
loop $-1 -1 $-1 $78 $79 $37 #
cone-surface $-1 -1 $-1 6.062177826491066 4.0252551286084071 -3.5 0 -1 0 0 0 -3.232961649767474 1 I I 0 -1 3.232961649767474 forward I I I I #
model_id-kcp-attrib $-1 -1 $-1 $-1 $39 1 1021553843 1021553843 -986513407 4 #
face $80 -1 $-1 $81 $82 $9 $-1 $41 forward single #
loop $-1 -1 $-1 $83 $84 $39 #
plane-surface $-1 -1 $-1 0 20 0 0 -1 0 -1 0 0 forward_v I I I I #
coedge $-1 -1 $-1 $85 $86 $84 $87 forward $40 $-1 #
coedge $-1 -1 $-1 $88 $42 $89 $90 reversed $32 $-1 #
coedge $-1 -1 $-1 $42 $88 $91 $92 forward $32 $-1 #
coedge $-1 -1 $-1 $86 $85 $42 $63 reversed $40 $-1 #
edge $-1 -1 $-1 $93 -3.1415926535897931 $94 2.4492127076447545e-016 $42 $95 forward @7 unknown #
face $96 -1 $-1 $97 $98 $23 $-1 $99 reversed single #
loop $-1 -1 $-1 $-1 $100 $43 #
plane-surface $-1 -1 $-1 0 0 -12.375 0 0 1 1 0 0 forward_v I I I I #
coedge $-1 -1 $-1 $101 $102 $103 $104 forward $44 $-1 #
face $-1 -1 $-1 $105 $106 $25 $-1 $48 reversed single #
loop $-1 -1 $-1 $-1 $107 $46 #
coedge $-1 -1 $-1 $108 $109 $110 $111 reversed $47 $-1 #
face $-1 -1 $-1 $-1 $112 $27 $-1 $113 reversed single #
loop $-1 -1 $-1 $114 $115 $49 #
cone-surface $-1 -1 $-1 -1.3918726074411713e-031 6.0252551286084071 0 0 1 0 12.375 0 -1.5154503628551919e-015 1 I I 0 1 12.375 forward I I I I #
coedge $-1 -1 $-1 $74 $74 $116 $117 forward $50 $-1 #
face $-1 -1 $-1 $118 $119 $29 $-1 $120 reversed single #
loop $-1 -1 $-1 $121 $122 $52 #
cone-surface $-1 -1 $-1 0 4.0252551286084071 0 0 -1 0 -10.375 0 0 1 I I 0 1 10.375 forward I I I I #
loop $-1 -1 $-1 $-1 $123 $37 #
coedge $-1 -1 $-1 $79 $79 $124 $125 forward $53 $-1 #
model_id-kcp-attrib $-1 -1 $-1 $-1 $56 1 1021553843 1021553843 -986513407 5 #
face $126 -1 $-1 $127 $128 $9 $-1 $33 forward single #
loop $-1 -1 $-1 $-1 $129 $56 #
loop $-1 -1 $-1 $-1 $130 $39 #
coedge $-1 -1 $-1 $131 $131 $59 $87 reversed $57 $-1 #
coedge $-1 -1 $-1 $62 $59 $132 $133 reversed $40 $-1 #
coedge $-1 -1 $-1 $59 $62 $134 $135 forward $40 $-1 #
edge $136 -1 $-1 $137 1.5707963267948968 $138 4.7123889803846897 $59 $139 forward @7 unknown #
coedge $-1 -1 $-1 $61 $60 $140 $141 reversed $32 $-1 #
coedge $-1 -1 $-1 $142 $143 $60 $90 forward $128 $-1 #
edge $-1 -1 $-1 $144 0 $94 18 $60 $145 forward @7 unknown #
coedge $-1 -1 $-1 $143 $142 $61 $92 reversed $128 $-1 #
edge $-1 -1 $-1 $146 0 $93 18 $61 $147 forward @7 unknown #
vertex $-1 -1 $-1 $92 $148 #
vertex $-1 -1 $-1 $90 $149 #
ellipse-curve $-1 -1 $-1 0 18 0 0 -1 0 -12.375 0 0 1 I I #
model_id-kcp-attrib $-1 -1 $-1 $-1 $64 1 1021553843 1021553843 -985858046 2 #
face $-1 -1 $-1 $150 $151 $23 $-1 $152 reversed single #
loop $-1 -1 $-1 $-1 $153 $64 #
plane-surface $-1 -1 $-1 0 -13.974744871391593 0 0 1 0 0 0 1 forward_v I I I I #
coedge $-1 -1 $-1 $154 $155 $156 $157 forward $65 $-1 #
coedge $-1 -1 $-1 $158 $67 $159 $160 forward $44 $-1 #
coedge $-1 -1 $-1 $67 $158 $161 $162 forward $44 $-1 #
coedge $-1 -1 $-1 $163 $164 $67 $104 reversed $165 $-1 #
edge $-1 -1 $-1 $166 -13.974744871391593 $167 13.974744871391593 $103 $168 forward @7 unknown #
face $-1 -1 $-1 $169 $170 $25 $-1 $48 reversed single #
loop $-1 -1 $-1 $-1 $171 $68 #
coedge $-1 -1 $-1 $172 $173 $174 $175 reversed $69 $-1 #
coedge $-1 -1 $-1 $176 $70 $177 $178 forward $47 $-1 #
coedge $-1 -1 $-1 $70 $176 $179 $180 reversed $47 $-1 #
coedge $-1 -1 $-1 $181 $182 $70 $111 forward $183 $-1 #
edge $-1 -1 $-1 $184 -3.1415926535897931 $185 -1.5707963267948968 $110 $186 forward @7 unknown #
loop $-1 -1 $-1 $-1 $187 $71 #
plane-surface $-1 -1 $-1 0 13.974744871391593 0 0 -1 0 0 0 -1 forward_v I I I I #
loop $-1 -1 $-1 $-1 $116 $49 #
coedge $-1 -1 $-1 $115 $115 $187 $188 reversed $72 $-1 #
coedge $-1 -1 $-1 $116 $116 $74 $117 reversed $114 $-1 #
edge $189 -1 $-1 $190 -3.1415926535897931 $190 3.1415926535897931 $116 $191 forward @7 unknown #
face $-1 -1 $-1 $-1 $192 $29 $-1 $193 forward single #
loop $-1 -1 $-1 $194 $195 $75 #
plane-surface $-1 -1 $-1 1.4402442431524087 -13.974744871391593 -0.83152540148285259 -2.5693178346795606e-033 1 4.0736771017893807e-032 0 -4.0736771017893807e-032 1 forward_v I I I I #
loop $-1 -1 $-1 $-1 $196 $52 #
coedge $-1 -1 $-1 $122 $122 $195 $197 forward $76 $-1 #
coedge $-1 -1 $-1 $123 $123 $198 $199 reversed $78 $-1 #
coedge $-1 -1 $-1 $124 $124 $79 $125 reversed $194 $-1 #
edge $-1 -1 $-1 $200 1.0471975511965985 $200 7.3303828583761845 $79 $201 forward @7 unknown #
model_id-kcp-attrib $-1 -1 $-1 $-1 $81 1 1021553843 1021553843 -986513407 6 #
face $202 -1 $-1 $203 $204 $9 $-1 $205 forward single #
loop $-1 -1 $-1 $-1 $143 $81 #
coedge $-1 -1 $-1 $132 $134 $142 $206 forward $82 $-1 #
coedge $-1 -1 $-1 $207 $207 $208 $209 reversed $83 $-1 #
coedge $-1 -1 $-1 $84 $84 $210 $211 forward $57 $-1 #
coedge $-1 -1 $-1 $210 $129 $85 $133 forward $82 $-1 #
edge $-1 -1 $-1 $94 1.2154326714572564e-063 $138 1.5707963267948977 $85 $212 forward @7 unknown #
coedge $-1 -1 $-1 $129 $210 $86 $135 reversed $82 $-1 #
edge $-1 -1 $-1 $93 3.038581678643141e-064 $137 1.5707963267948977 $86 $213 forward @7 unknown #
attrib_edge_convexity-kcp-attrib $-1 -1 $214 $-1 $87 3 #
vertex $-1 -1 $-1 $135 $215 #
vertex $-1 -1 $-1 $133 $216 #
ellipse-curve $-1 -1 $-1 0 20 0 0 -1 0 0 0 -10.375 1 I I #
coedge $-1 -1 $-1 $217 $217 $88 $141 forward $204 $-1 #
edge $-1 -1 $-1 $146 -3.1415926535897931 $144 2.4492127076447545e-016 $88 $218 reversed @7 unknown #
coedge $-1 -1 $-1 $91 $89 $129 $206 reversed $128 $-1 #
coedge $-1 -1 $-1 $89 $91 $217 $219 forward $128 $-1 #
vertex $-1 -1 $-1 $141 $220 #
straight-curve $-1 -1 $-1 -12.375 0 -3.0309007257103837e-015 0 1 0 I I #
vertex $-1 -1 $-1 $92 $221 #
straight-curve $-1 -1 $-1 12.375 0 1.5154503628551919e-015 0 1 0 I I #
point $-1 -1 $-1 12.375 18 1.5154503628551919e-015 #
point $-1 -1 $-1 -12.375 18 -3.0309007257103837e-015 #
face $-1 -1 $-1 $222 $223 $23 $-1 $224 reversed single #
loop $-1 -1 $-1 $-1 $225 $97 #
plane-surface $-1 -1 $-1 -12.375 0 0 1 0 0 0 0 -1 forward_v I I I I #
coedge $-1 -1 $-1 $226 $161 $227 $228 forward $98 $-1 #
coedge $-1 -1 $-1 $229 $100 $226 $230 forward $65 $-1 #
coedge $-1 -1 $-1 $100 $229 $231 $232 forward $65 $-1 #
coedge $-1 -1 $-1 $164 $163 $100 $157 reversed $165 $-1 #
edge $-1 -1 $-1 $233 -13.974744871391593 $234 13.974744871391593 $156 $235 forward @7 unknown #
coedge $-1 -1 $-1 $102 $101 $236 $237 forward $44 $-1 #
coedge $-1 -1 $-1 $238 $239 $101 $160 reversed $223 $-1 #
edge $-1 -1 $-1 $167 -12.375 $240 12.375 $159 $241 forward @7 unknown #
coedge $-1 -1 $-1 $153 $242 $102 $162 reversed $98 $-1 #
edge $-1 -1 $-1 $243 -12.375 $166 12.375 $161 $244 forward @7 unknown #
coedge $-1 -1 $-1 $156 $103 $242 $245 forward $165 $-1 #
coedge $-1 -1 $-1 $103 $156 $238 $246 reversed $165 $-1 #
loop $-1 -1 $-1 $-1 $163 $222 #
vertex $-1 -1 $-1 $104 $247 #
vertex $-1 -1 $-1 $104 $248 #
straight-curve $-1 -1 $-1 12.375 0 12.375 0 1 0 I I #
face $-1 -1 $-1 $249 $250 $25 $-1 $251 forward single #
loop $-1 -1 $-1 $-1 $252 $105 #
coedge $-1 -1 $-1 $253 $254 $252 $255 forward $106 $-1 #
coedge $-1 -1 $-1 $256 $107 $257 $258 reversed $69 $-1 #
coedge $-1 -1 $-1 $107 $256 $109 $180 forward $69 $-1 #
coedge $-1 -1 $-1 $259 $260 $107 $175 forward $261 $-1 #
edge $-1 -1 $-1 $262 1.2246063538223773e-016 $263 1.5707963267948968 $174 $264 forward @7 unknown #
coedge $-1 -1 $-1 $109 $108 $265 $266 reversed $47 $-1 #
coedge $-1 -1 $-1 $254 $253 $267 $178 reversed $106 $-1 #
edge $-1 -1 $-1 $184 -20 $268 7.9494897427831859 $267 $269 forward @7 unknown #
coedge $-1 -1 $-1 $270 $271 $272 $180 forward $273 $-1 #
edge $-1 -1 $-1 $185 -20 $263 7.9494897427831859 $179 $274 forward @7 unknown #
coedge $-1 -1 $-1 $182 $110 $271 $275 reversed $183 $-1 #
coedge $-1 -1 $-1 $110 $181 $276 $277 forward $183 $-1 #
loop $-1 -1 $-1 $-1 $110 $278 #
vertex $-1 -1 $-1 $279 $280 #
vertex $-1 -1 $-1 $281 $282 #
ellipse-curve $-1 -1 $-1 -1.3918726074411713e-031 -13.974744871391593 0 0 1 0 12.375 0 -1.5154503628551919e-015 1 I I #
coedge $-1 -1 $-1 $187 $187 $115 $188 forward $112 $-1 #
edge $-1 -1 $-1 $283 -3.1415926535897931 $283 3.1415926535897931 $187 $284 forward @7 unknown #
convexity-sys-attrib $-1 -1 $-1 $-1 $117 #
vertex $-1 -1 $-1 $117 $285 #
ellipse-curve $-1 -1 $-1 -1.3918726074411713e-031 6.0252551286084142 0 0 -1 0 12.375 0 -1.5154503628551919e-015 1 I I #
loop $-1 -1 $-1 $286 $287 $118 #
plane-surface $-1 -1 $-1 1.4402442431524087 4.0252551286084071 -0.83152540148285259 -2.5693178346795606e-033 1 4.0736771017893807e-032 0 -4.0736771017893807e-032 1 forward_v I I I I #
loop $-1 -1 $-1 $-1 $124 $75 #
coedge $-1 -1 $-1 $195 $195 $122 $197 reversed $119 $-1 #
coedge $-1 -1 $-1 $196 $196 $287 $288 reversed $121 $-1 #
edge $-1 -1 $-1 $289 -3.1415926535897931 $289 3.1415926535897931 $122 $290 forward @7 unknown #
coedge $-1 -1 $-1 $198 $198 $123 $199 forward $286 $-1 #
edge $291 -1 $-1 $292 -2.0943951023931962 $292 4.1887902047863896 $123 $293 forward @7 unknown #
vertex $-1 -1 $-1 $125 $294 #
ellipse-curve $-1 -1 $-1 6.062177826491066 -13.974744871391593 -3.5 0 -1 0 0 0 -3.232961649767474 1 I I #
model_id-kcp-attrib $-1 -1 $-1 $-1 $127 1 1021553843 1021553843 -986513407 7 #
face $295 -1 $-1 $296 $297 $9 $-1 $298 reversed single #
loop $-1 -1 $-1 $299 $140 $127 #
plane-surface $-1 -1 $-1 0 0 0 0 -1 0 -1 0 0 forward_v I I I I #
edge $-1 -1 $-1 $93 -3.1415926535897931 $94 -2.4492127076447545e-016 $142 $300 reversed @7 unknown #
coedge $-1 -1 $-1 $130 $130 $301 $302 reversed $83 $-1 #
coedge $-1 -1 $-1 $303 $304 $130 $209 forward $305 $-1 #
edge $306 -1 $-1 $307 -1.0471975511965965 $308 2.0943951023931944 $130 $309 reversed @7 unknown #
coedge $-1 -1 $-1 $134 $132 $131 $211 reversed $82 $-1 #
edge $310 -1 $-1 $137 -1.5707963267948968 $138 1.5707963267948966 $131 $311 reversed @7 unknown #
ellipse-curve $-1 -1 $-1 -10.375000000000002 18 -2.5410581841814332e-015 2.449212707644755e-016 3.0410324156925642e-032 -1 -1.9999999999999982 0 -4.8984254152895051e-016 1 I I #
ellipse-curve $-1 -1 $-1 10.375000000000002 18 1.2705290920907166e-015 -1.2246063538223775e-016 1.5205162078462821e-032 1 1.9999999999999982 0 2.4492127076447525e-016 1 I I #
convexity-sys-attrib $-1 -1 $-1 $136 $87 #
point $-1 -1 $-1 10.375 20 1.2705290920907164e-015 #
point $-1 -1 $-1 -10.375 20 0 #
coedge $-1 -1 $-1 $140 $140 $143 $219 reversed $204 $-1 #
ellipse-curve $-1 -1 $-1 0 0 0 0 1 0 -12.375 0 0 1 I I #
edge $-1 -1 $-1 $146 -3.1415926535897931 $144 -2.4492127076447545e-016 $143 $312 forward @7 unknown #
point $-1 -1 $-1 -12.375 0 -3.0309007257103837e-015 #
point $-1 -1 $-1 12.375 0 1.5154503628551919e-015 #
face $-1 -1 $-1 $-1 $165 $23 $-1 $313 reversed single #
loop $-1 -1 $-1 $-1 $238 $150 #
plane-surface $-1 -1 $-1 0 13.974744871391593 0 0 -1 0 0 0 -1 forward_v I I I I #
coedge $-1 -1 $-1 $314 $236 $239 $315 forward $151 $-1 #
coedge $-1 -1 $-1 $242 $153 $154 $230 reversed $98 $-1 #
coedge $-1 -1 $-1 $236 $314 $153 $228 reversed $151 $-1 #
edge $-1 -1 $-1 $243 -12.375 $316 12.375 $227 $317 forward @7 unknown #
coedge $-1 -1 $-1 $155 $154 $314 $318 forward $65 $-1 #
edge $-1 -1 $-1 $234 -12.375 $316 12.375 $226 $319 forward @7 unknown #
coedge $-1 -1 $-1 $239 $238 $155 $232 reversed $223 $-1 #
edge $-1 -1 $-1 $320 -12.375 $233 12.375 $231 $321 forward @7 unknown #
vertex $-1 -1 $-1 $157 $322 #
vertex $-1 -1 $-1 $245 $323 #
straight-curve $-1 -1 $-1 12.375 0 -12.375 0 -1 0 I I #
coedge $-1 -1 $-1 $225 $227 $158 $237 reversed $151 $-1 #
edge $-1 -1 $-1 $240 -13.974744871391593 $243 13.974744871391593 $236 $324 forward @7 unknown #
coedge $-1 -1 $-1 $231 $159 $164 $246 forward $223 $-1 #
coedge $-1 -1 $-1 $159 $231 $225 $315 reversed $223 $-1 #
vertex $-1 -1 $-1 $160 $325 #
straight-curve $-1 -1 $-1 0 13.974744871391593 12.375 -1 0 0 I I #
coedge $-1 -1 $-1 $161 $226 $163 $245 reversed $98 $-1 #
vertex $-1 -1 $-1 $237 $326 #
straight-curve $-1 -1 $-1 0 -13.974744871391593 12.375 1 0 0 I I #
edge $-1 -1 $-1 $166 -12.375 $234 12.375 $163 $327 forward @7 unknown #
edge $-1 -1 $-1 $167 -12.375 $233 12.375 $164 $328 forward @7 unknown #
point $-1 -1 $-1 12.375 -13.974744871391593 12.375 #
point $-1 -1 $-1 12.375 13.974744871391593 12.375 #
face $-1 -1 $-1 $329 $330 $25 $-1 $331 reversed single #
loop $-1 -1 $-1 $-1 $272 $169 #
plane-surface $-1 -1 $-1 0 0 12.375 0 0 1 1 0 0 forward_v I I I I #
coedge $-1 -1 $-1 $332 $333 $334 $255 reversed $170 $-1 #
coedge $-1 -1 $-1 $177 $171 $335 $336 reversed $106 $-1 #
coedge $-1 -1 $-1 $171 $177 $337 $338 reversed $106 $-1 #
edge $-1 -1 $-1 $339 -20 $340 7.9494897427831859 $334 $341 forward @7 unknown #
coedge $-1 -1 $-1 $173 $172 $342 $343 reversed $69 $-1 #
coedge $-1 -1 $-1 $344 $345 $346 $258 forward $347 $-1 #
edge $-1 -1 $-1 $348 -20 $262 7.9494897427831859 $257 $349 forward @7 unknown #
coedge $-1 -1 $-1 $260 $174 $350 $351 reversed $261 $-1 #
coedge $-1 -1 $-1 $174 $259 $344 $352 forward $261 $-1 #
loop $-1 -1 $-1 $-1 $174 $353 #
vertex $-1 -1 $-1 $354 $355 #
vertex $-1 -1 $-1 $356 $357 #
ellipse-curve $-1 -1 $-1 -1.3918726074411713e-031 13.974744871391593 0 0 -1 0 12.375 0 -1.5154503628551919e-015 1 I I #
coedge $-1 -1 $-1 $358 $359 $176 $266 forward $360 $-1 #
edge $-1 -1 $-1 $263 1.5707963267948968 $268 3.1415926535897931 $265 $264 forward @7 unknown #
coedge $-1 -1 $-1 $361 $362 $363 $178 forward $330 $-1 #
vertex $-1 -1 $-1 $364 $365 #
straight-curve $-1 -1 $-1 -12.375 6.0252551286084071 0 0 1 0 I I #
coedge $-1 -1 $-1 $366 $179 $359 $356 forward $273 $-1 #
coedge $-1 -1 $-1 $179 $366 $181 $275 forward $273 $-1 #
coedge $-1 -1 $-1 $367 $350 $173 $180 reversed $250 $-1 #
loop $-1 -1 $-1 $-1 $179 $368 #
straight-curve $-1 -1 $-1 -1.3918726074411713e-031 6.0252551286084071 12.375 0 1 0 I I #
edge $-1 -1 $-1 $369 -12.375 $185 -1.3918726074411713e-031 $181 $370 forward @7 unknown #
coedge $-1 -1 $-1 $371 $363 $182 $277 reversed $372 $-1 #
edge $-1 -1 $-1 $369 -12.375 $184 0 $276 $373 forward @7 unknown #
face $-1 -1 $-1 $374 $183 $25 $-1 $375 reversed single #
edge $-1 -1 $-1 $184 0 $376 12.375 $362 $373 forward @7 unknown #
point $-1 -1 $-1 -12.375 -13.974744871391593 0 #
edge $-1 -1 $-1 $185 -1.3918726074411713e-031 $377 12.375 $378 $370 forward @7 unknown #
point $-1 -1 $-1 -1.3918726074411713e-031 -13.974744871391593 12.375 #
vertex $-1 -1 $-1 $188 $379 #
ellipse-curve $-1 -1 $-1 -1.3918726074411713e-031 13.974744871391593 0 0 1 0 12.375 0 -1.5154503628551919e-015 1 I I #
point $-1 -1 $-1 -12.375 6.0252551286084142 0 #
loop $-1 -1 $-1 $-1 $198 $118 #
coedge $-1 -1 $-1 $287 $287 $196 $288 forward $192 $-1 #
edge $380 -1 $-1 $381 0 $381 6.2831853071795862 $196 $382 forward @7 unknown #
vertex $-1 -1 $-1 $197 $383 #
ellipse-curve $-1 -1 $-1 0 -13.974744871391593 0 0 1 0 -10.375 0 0 1 I I #
convexity-sys-attrib $-1 -1 $-1 $-1 $199 #
vertex $-1 -1 $-1 $199 $384 #
ellipse-curve $-1 -1 $-1 6.062177826491066 4.0252551286084071 -3.5 0 -1 0 0 0 -3.232961649767474 1 I I #
point $-1 -1 $-1 8.8620047446505588 -13.974744871391593 -5.1164808248837401 #
model_id-kcp-attrib $-1 -1 $-1 $-1 $203 1 1021553843 1021553843 -986513407 8 #
face $385 -1 $-1 $386 $387 $9 $-1 $298 reversed single #
loop $-1 -1 $-1 $-1 $388 $203 #
cone-surface $-1 -1 $-1 0 21 0 0 -1 0 -10.375 0 0 1 I I 0 1 10.375 forward I I I I #
loop $-1 -1 $-1 $-1 $389 $127 #
ellipse-curve $-1 -1 $-1 0 18 0 0 -1 0 -12.375 0 0 1 I I #
coedge $-1 -1 $-1 $390 $391 $207 $302 forward $392 $-1 #
edge $393 -1 $-1 $308 -4.1887902047863914 $307 -1.0471975511965965 $207 $394 reversed @7 unknown #
coedge $-1 -1 $-1 $304 $208 $391 $395 reversed $305 $-1 #
coedge $-1 -1 $-1 $208 $303 $390 $396 forward $305 $-1 #
loop $-1 -1 $-1 $-1 $303 $397 #
attrib_edge_convexity-kcp-attrib $-1 -1 $398 $-1 $209 1 #
vertex $-1 -1 $-1 $302 $399 #
vertex $-1 -1 $-1 $302 $400 #
ellipse-curve $-1 -1 $-1 6.062177826491066 20 -3.5 0 -1 0 0 0 2.4999999999999929 1 I I #
attrib_edge_convexity-kcp-attrib $-1 -1 $401 $-1 $211 3 #
ellipse-curve $-1 -1 $-1 0 20 0 0 -1 0 0 0 -10.375 1 I I #
ellipse-curve $-1 -1 $-1 0 0 0 0 1 0 -12.375 0 0 1 I I #
plane-surface $-1 -1 $-1 12.375 0 0 -1 0 0 0 0 1 forward_v I I I I #
coedge $-1 -1 $-1 $227 $225 $229 $318 reversed $151 $-1 #
edge $-1 -1 $-1 $240 -12.375 $320 12.375 $239 $402 forward @7 unknown #
vertex $-1 -1 $-1 $318 $403 #
straight-curve $-1 -1 $-1 -12.375 -13.974744871391593 0 0 0 -1 I I #
edge $-1 -1 $-1 $316 -13.974744871391593 $320 13.974744871391593 $314 $404 forward @7 unknown #
straight-curve $-1 -1 $-1 0 -13.974744871391593 -12.375 -1 0 0 I I #
vertex $-1 -1 $-1 $232 $405 #
straight-curve $-1 -1 $-1 0 13.974744871391593 -12.375 1 0 0 I I #
point $-1 -1 $-1 12.375 13.974744871391593 -12.375 #
point $-1 -1 $-1 12.375 -13.974744871391593 -12.375 #
straight-curve $-1 -1 $-1 -12.375 0 12.375 0 -1 0 I I #
point $-1 -1 $-1 -12.375 13.974744871391593 12.375 #
point $-1 -1 $-1 -12.375 -13.974744871391593 12.375 #
straight-curve $-1 -1 $-1 12.375 -13.974744871391593 0 0 0 -1 I I #
straight-curve $-1 -1 $-1 12.375 13.974744871391593 0 0 0 -1 I I #
face $-1 -1 $-1 $406 $407 $25 $-1 $408 reversed single #
loop $-1 -1 $-1 $-1 $267 $249 #
plane-surface $-1 -1 $-1 -12.375 0 0 1 0 0 0 0 -1 forward_v I I I I #
coedge $-1 -1 $-1 $409 $252 $410 $411 reversed $170 $-1 #
coedge $-1 -1 $-1 $252 $409 $412 $413 reversed $170 $-1 #
coedge $-1 -1 $-1 $414 $415 $416 $255 forward $417 $-1 #
coedge $-1 -1 $-1 $418 $419 $253 $336 forward $420 $-1 #
edge $-1 -1 $-1 $268 -3.1415926535897931 $340 -1.5707963267948966 $335 $264 forward @7 unknown #
coedge $-1 -1 $-1 $421 $422 $254 $338 forward $423 $-1 #
edge $-1 -1 $-1 $339 1.5707963267948966 $184 3.1415926535897931 $337 $186 forward @7 unknown #
vertex $-1 -1 $-1 $424 $425 #
vertex $-1 -1 $-1 $426 $427 #
straight-curve $-1 -1 $-1 -1.3918726074411713e-031 6.0252551286084071 -12.375 0 1 0 I I #
coedge $-1 -1 $-1 $428 $378 $256 $343 forward $429 $-1 #
edge $-1 -1 $-1 $185 -1.5707963267948968 $348 -1.2246063538223773e-016 $342 $186 forward @7 unknown #
coedge $-1 -1 $-1 $430 $257 $260 $352 reversed $347 $-1 #
coedge $-1 -1 $-1 $257 $430 $428 $431 forward $347 $-1 #
coedge $-1 -1 $-1 $432 $433 $409 $258 reversed $407 $-1 #
loop $-1 -1 $-1 $-1 $257 $434 #
vertex $-1 -1 $-1 $435 $436 #
straight-curve $-1 -1 $-1 12.375 6.0252551286084071 0 0 1 0 I I #
coedge $-1 -1 $-1 $272 $437 $259 $351 forward $250 $-1 #
edge $-1 -1 $-1 $438 -12.375 $263 1.3918726074411713e-031 $259 $439 forward @7 unknown #
edge $-1 -1 $-1 $438 -12.375 $262 0 $344 $440 forward @7 unknown #
face $-1 -1 $-1 $441 $261 $25 $-1 $442 reversed single #
edge $-1 -1 $-1 $262 0 $443 12.375 $433 $440 forward @7 unknown #
point $-1 -1 $-1 12.375 13.974744871391593 0 #
edge $-1 -1 $-1 $263 1.3918726074411713e-031 $444 12.375 $359 $439 forward @7 unknown #
point $-1 -1 $-1 -1.3918726074411713e-031 13.974744871391593 12.375 #
coedge $-1 -1 $-1 $359 $265 $445 $446 reversed $360 $-1 #
coedge $-1 -1 $-1 $265 $358 $270 $356 reversed $360 $-1 #
loop $-1 -1 $-1 $-1 $265 $441 #
coedge $-1 -1 $-1 $447 $267 $419 $364 forward $330 $-1 #
coedge $-1 -1 $-1 $267 $447 $421 $279 reversed $330 $-1 #
coedge $-1 -1 $-1 $276 $445 $108 $178 reversed $372 $-1 #
edge $-1 -1 $-1 $268 0 $448 12.375 $419 $449 forward @7 unknown #
point $-1 -1 $-1 -12.375 13.974744871391593 0 #
coedge $-1 -1 $-1 $271 $270 $371 $450 forward $273 $-1 #
coedge $-1 -1 $-1 $437 $272 $378 $281 forward $250 $-1 #
face $-1 -1 $-1 $451 $273 $25 $-1 $251 forward single #
vertex $-1 -1 $-1 $450 $452 #
straight-curve $-1 -1 $-1 0 -13.974744871391593 12.375 1 0 0 I I #
coedge $-1 -1 $-1 $445 $276 $366 $450 reversed $372 $-1 #
loop $-1 -1 $-1 $-1 $363 $453 #
straight-curve $-1 -1 $-1 -12.375 -13.974744871391593 0 0 0 -1 I I #
face $-1 -1 $-1 $454 $429 $25 $-1 $375 reversed single #
plane-surface $-1 -1 $-1 0 -13.974744871391593 0 0 1 0 0 0 1 forward_v I I I I #
vertex $-1 -1 $-1 $455 $456 #
vertex $-1 -1 $-1 $457 $458 #
coedge $-1 -1 $-1 $342 $428 $367 $281 reversed $429 $-1 #
point $-1 -1 $-1 -12.375 13.974744871391593 0 #
convexity-sys-attrib $-1 -1 $-1 $-1 $288 #
vertex $-1 -1 $-1 $288 $459 #
ellipse-curve $-1 -1 $-1 0 4.0252551286084071 0 0 1 0 -10.375 0 0 1 I I #
point $-1 -1 $-1 10.375 -13.974744871391593 1.2705290920907164e-015 #
point $-1 -1 $-1 3.2623509083315834 4.0252551286084071 -1.8835191751162597 #
model_id-kcp-attrib $-1 -1 $-1 $-1 $296 1 1021553843 1021553843 -986513407 9 #
face $460 -1 $-1 $461 $462 $9 $-1 $463 forward single #
loop $-1 -1 $-1 $-1 $464 $296 #
coedge $-1 -1 $-1 $465 $466 $389 $467 forward $297 $-1 #
coedge $-1 -1 $-1 $468 $468 $388 $467 reversed $299 $-1 #
coedge $-1 -1 $-1 $391 $301 $304 $396 reversed $392 $-1 #
coedge $-1 -1 $-1 $301 $390 $303 $395 forward $392 $-1 #
loop $-1 -1 $-1 $-1 $390 $469 #
attrib_edge_convexity-kcp-attrib $-1 -1 $470 $-1 $302 1 #
ellipse-curve $-1 -1 $-1 6.062177826491066 20 -3.5 0 -1 0 0 0 2.4999999999999929 1 I I #
edge $-1 -1 $-1 $471 2.4148803221051381e-032 $308 0.79560295348453502 $391 $472 forward @7 unknown #
edge $-1 -1 $-1 $471 5.6641695970197545e-016 $307 0.79560295348453303 $390 $473 forward @7 unknown #
face $474 -1 $-1 $469 $305 $9 $-1 $475 reversed single #
convexity-sys-attrib $-1 -1 $-1 $306 $209 #
point $-1 -1 $-1 3.8971143170299749 20 -2.25 #
point $-1 -1 $-1 8.2272413359521686 20 -4.75 #
convexity-sys-attrib $-1 -1 $-1 $310 $211 #
straight-curve $-1 -1 $-1 -12.375 13.974744871391593 0 0 0 -1 I I #
point $-1 -1 $-1 -12.375 -13.974744871391593 -12.375 #
straight-curve $-1 -1 $-1 -12.375 0 -12.375 0 1 0 I I #
point $-1 -1 $-1 -12.375 13.974744871391593 -12.375 #
face $-1 -1 $-1 $353 $476 $25 $-1 $442 reversed single #
loop $-1 -1 $-1 $-1 $346 $329 #
plane-surface $-1 -1 $-1 12.375 0 0 -1 0 0 0 0 1 forward_v I I I I #
coedge $-1 -1 $-1 $333 $332 $172 $258 forward $170 $-1 #
coedge $-1 -1 $-1 $477 $478 $332 $411 forward $479 $-1 #
edge $-1 -1 $-1 $348 -1.2246063538223773e-016 $339 1.5707963267948966 $410 $186 forward @7 unknown #
coedge $-1 -1 $-1 $480 $481 $333 $413 forward $476 $-1 #
edge $-1 -1 $-1 $340 -1.5707963267948966 $262 1.2246063538223773e-016 $412 $264 forward @7 unknown #
coedge $-1 -1 $-1 $482 $334 $481 $426 forward $417 $-1 #
coedge $-1 -1 $-1 $334 $482 $477 $483 forward $417 $-1 #
coedge $-1 -1 $-1 $484 $485 $171 $255 reversed $486 $-1 #
loop $-1 -1 $-1 $-1 $334 $451 #
coedge $-1 -1 $-1 $419 $335 $485 $487 reversed $420 $-1 #
coedge $-1 -1 $-1 $335 $418 $361 $364 reversed $420 $-1 #
loop $-1 -1 $-1 $-1 $335 $488 #
coedge $-1 -1 $-1 $422 $337 $362 $279 forward $423 $-1 #
coedge $-1 -1 $-1 $337 $421 $484 $424 reversed $423 $-1 #
loop $-1 -1 $-1 $-1 $337 $489 #
edge $-1 -1 $-1 $339 1.3918726074411713e-031 $376 12.375 $422 $490 forward @7 unknown #
point $-1 -1 $-1 -1.3918726074411713e-031 -13.974744871391593 -12.375 #
edge $-1 -1 $-1 $340 -1.3918726074411713e-031 $443 12.375 $481 $491 forward @7 unknown #
point $-1 -1 $-1 -1.3918726074411713e-031 13.974744871391593 -12.375 #
coedge $-1 -1 $-1 $378 $342 $345 $431 reversed $429 $-1 #
loop $-1 -1 $-1 $-1 $342 $374 #
coedge $-1 -1 $-1 $345 $344 $437 $457 reversed $347 $-1 #
edge $-1 -1 $-1 $377 -12.375 $348 0 $345 $492 forward @7 unknown #
coedge $-1 -1 $-1 $493 $346 $478 $435 forward $407 $-1 #
coedge $-1 -1 $-1 $346 $493 $480 $354 reversed $407 $-1 #
face $-1 -1 $-1 $-1 $347 $25 $-1 $408 reversed single #
edge $-1 -1 $-1 $348 0 $494 12.375 $432 $492 forward @7 unknown #
point $-1 -1 $-1 12.375 -13.974744871391593 0 #
coedge $-1 -1 $-1 $350 $367 $430 $457 forward $250 $-1 #
vertex $-1 -1 $-1 $457 $495 #
straight-curve $-1 -1 $-1 0 13.974744871391593 12.375 -1 0 0 I I #
straight-curve $-1 -1 $-1 12.375 13.974744871391593 0 0 0 -1 I I #
face $-1 -1 $-1 $488 $360 $25 $-1 $442 reversed single #
plane-surface $-1 -1 $-1 0 13.974744871391593 0 0 -1 0 0 0 -1 forward_v I I I I #
vertex $-1 -1 $-1 $496 $497 #
vertex $-1 -1 $-1 $356 $498 #
coedge $-1 -1 $-1 $363 $371 $358 $446 forward $372 $-1 #
edge $-1 -1 $-1 $444 -12.375 $268 0 $358 $449 forward @7 unknown #
coedge $-1 -1 $-1 $362 $361 $499 $455 reversed $330 $-1 #
vertex $-1 -1 $-1 $487 $500 #
straight-curve $-1 -1 $-1 -12.375 13.974744871391593 0 0 0 -1 I I #
edge $-1 -1 $-1 $444 -13.974744871391593 $369 13.974744871391593 $371 $501 forward @7 unknown #
face $-1 -1 $-1 $453 $417 $25 $-1 $502 reversed single #
point $-1 -1 $-1 -12.375 -13.974744871391593 12.375 #
face $-1 -1 $-1 $434 $372 $25 $-1 $331 reversed single #
face $-1 -1 $-1 $503 $479 $25 $-1 $375 reversed single #
edge $-1 -1 $-1 $376 -13.974744871391593 $448 13.974744871391593 $447 $504 forward @7 unknown #
point $-1 -1 $-1 -12.375 -13.974744871391593 -12.375 #
edge $-1 -1 $-1 $377 -13.974744871391593 $438 13.974744871391593 $430 $505 forward @7 unknown #
point $-1 -1 $-1 12.375 -13.974744871391593 12.375 #
point $-1 -1 $-1 -10.375 4.0252551286084071 0 #
model_id-kcp-attrib $-1 -1 $-1 $-1 $386 1 1021553843 1021553843 -986513407 10 #
face $506 -1 $-1 $507 $508 $9 $-1 $509 forward single #
loop $-1 -1 $-1 $510 $511 $386 #
plane-surface $-1 -1 $-1 0 18 0 0 -1 0 -1 0 0 forward_v I I I I #
coedge $-1 -1 $-1 $512 $513 $514 $515 forward $387 $-1 #
coedge $-1 -1 $-1 $516 $388 $512 $517 forward $297 $-1 #
coedge $-1 -1 $-1 $388 $516 $513 $518 reversed $297 $-1 #
edge $-1 -1 $-1 $519 -3.1415926535897931 $520 2.4492127076447545e-016 $389 $521 forward @7 unknown #
coedge $-1 -1 $-1 $389 $389 $522 $523 forward $299 $-1 #
face $524 -1 $-1 $-1 $392 $9 $-1 $475 reversed single #
convexity-sys-attrib $-1 -1 $-1 $393 $302 #
vertex $-1 -1 $-1 $395 $525 #
ellipse-curve $-1 -1 $-1 6.062177826491066 22.449489742783186 -3.5 0.49999999999999983 -1.6999049306671322e-017 0.86602540378443882 -8.8817841970012523e-016 -3.5 4.4408920985006262e-016 1 I I #
ellipse-curve $-1 -1 $-1 6.062177826491066 22.449489742783186 -3.5 -0.50000000000000011 -1.6999049306671414e-017 -0.8660254037844386 8.8817841970012523e-016 -3.5 -4.4408920985006262e-016 1 I I #
model_id-kcp-attrib $-1 -1 $-1 $-1 $397 1 1021553843 1021553843 -986513407 13 #
sphere-surface $-1 -1 $-1 6.062177826491066 22.449489742783186 -3.5 3.5000000000000004 1 0 0 0 0 1 forward_v I I I I #
loop $-1 -1 $-1 $-1 $412 $406 #
coedge $-1 -1 $-1 $478 $410 $415 $483 reversed $479 $-1 #
coedge $-1 -1 $-1 $410 $477 $432 $435 reversed $479 $-1 #
loop $-1 -1 $-1 $-1 $410 $454 #
coedge $-1 -1 $-1 $481 $412 $433 $354 forward $476 $-1 #
coedge $-1 -1 $-1 $412 $480 $414 $426 reversed $476 $-1 #
coedge $-1 -1 $-1 $415 $414 $493 $496 forward $417 $-1 #
edge $-1 -1 $-1 $494 -12.375 $339 1.3918726074411713e-031 $477 $490 forward @7 unknown #
coedge $-1 -1 $-1 $499 $416 $422 $424 forward $486 $-1 #
coedge $-1 -1 $-1 $416 $499 $418 $487 forward $486 $-1 #
loop $-1 -1 $-1 $-1 $416 $503 #
edge $-1 -1 $-1 $448 -12.375 $340 -1.3918726074411713e-031 $418 $491 forward @7 unknown #
face $-1 -1 $-1 $489 $420 $25 $-1 $442 reversed single #
face $-1 -1 $-1 $278 $423 $25 $-1 $375 reversed single #
straight-curve $-1 -1 $-1 0 -13.974744871391593 -12.375 -1 0 0 I I #
straight-curve $-1 -1 $-1 0 13.974744871391593 -12.375 1 0 0 I I #
straight-curve $-1 -1 $-1 12.375 -13.974744871391593 0 0 0 -1 I I #
coedge $-1 -1 $-1 $433 $432 $482 $496 reversed $407 $-1 #
vertex $-1 -1 $-1 $435 $526 #
point $-1 -1 $-1 12.375 13.974744871391593 12.375 #
edge $-1 -1 $-1 $443 -13.974744871391593 $494 13.974744871391593 $493 $527 forward @7 unknown #
point $-1 -1 $-1 12.375 13.974744871391593 -12.375 #
point $-1 -1 $-1 -12.375 13.974744871391593 12.375 #
coedge $-1 -1 $-1 $485 $484 $447 $455 forward $486 $-1 #
point $-1 -1 $-1 -12.375 13.974744871391593 -12.375 #
straight-curve $-1 -1 $-1 -12.375 0 12.375 0 -1 0 I I #
plane-surface $-1 -1 $-1 0 0 -12.375 0 0 1 1 0 0 forward_v I I I I #
face $-1 -1 $-1 $368 $486 $25 $-1 $502 reversed single #
straight-curve $-1 -1 $-1 -12.375 0 -12.375 0 1 0 I I #
straight-curve $-1 -1 $-1 12.375 0 12.375 0 1 0 I I #
model_id-kcp-attrib $-1 -1 $-1 $-1 $461 1 1021553843 1021553843 -986513407 11 #
face $528 -1 $-1 $397 $529 $9 $-1 $509 forward single #
loop $-1 -1 $-1 $-1 $530 $461 #
sphere-surface $-1 -1 $-1 6.062177826491066 22.449489742783186 -3.5 5.5000000000000009 1 0 0 0 0 1 forward_v I I I I #
loop $-1 -1 $-1 $-1 $531 $386 #
coedge $-1 -1 $-1 $514 $514 $516 $532 forward $462 $-1 #
coedge $-1 -1 $-1 $522 $464 $465 $517 reversed $387 $-1 #
coedge $-1 -1 $-1 $464 $522 $466 $518 forward $387 $-1 #
coedge $-1 -1 $-1 $511 $511 $464 $515 reversed $462 $-1 #
edge $533 -1 $-1 $534 -3.1415926535897931 $535 0 $514 $536 reversed @7 unknown #
coedge $-1 -1 $-1 $466 $465 $511 $532 reversed $297 $-1 #
edge $-1 -1 $-1 $520 0 $535 18 $465 $537 forward @7 unknown #
edge $-1 -1 $-1 $519 0 $534 18 $466 $538 forward @7 unknown #
vertex $-1 -1 $-1 $523 $539 #
vertex $-1 -1 $-1 $523 $540 #
ellipse-curve $-1 -1 $-1 0 0 0 0 -1 0 -10.375 0 0 1 I I #
coedge $-1 -1 $-1 $513 $512 $468 $523 reversed $387 $-1 #
edge $-1 -1 $-1 $519 -3.1415926535897931 $520 -2.4492127076447545e-016 $468 $541 reversed @7 unknown #
model_id-kcp-attrib $-1 -1 $-1 $-1 $469 1 1021553843 1021553843 -986513407 14 #
point $-1 -1 $-1 6.0621778264910651 18.949489742783186 -3.4999999999999996 #
point $-1 -1 $-1 12.375 -13.974744871391593 -12.375 #
straight-curve $-1 -1 $-1 12.375 0 -12.375 0 -1 0 I I #
model_id-kcp-attrib $-1 -1 $-1 $-1 $507 1 1021553843 1021553843 -986513407 12 #
loop $-1 -1 $-1 $-1 $542 $507 #
coedge $-1 -1 $-1 $543 $544 $545 $546 reversed $508 $-1 #
coedge $-1 -1 $-1 $547 $547 $544 $548 forward $510 $-1 #
edge $549 -1 $-1 $534 -3.1415926535897931 $535 0 $516 $550 reversed @7 unknown #
attrib_edge_convexity-kcp-attrib $-1 -1 $551 $-1 $515 2 #
vertex $-1 -1 $-1 $518 $552 #
vertex $-1 -1 $-1 $532 $553 #
ellipse-curve $-1 -1 $-1 0 18 0 0 -1 0 -10.375 0 0 1 I I #
straight-curve $-1 -1 $-1 -10.375 0 -2.5410581841814328e-015 0 1 0 I I #
straight-curve $-1 -1 $-1 10.375 0 1.2705290920907164e-015 0 1 0 I I #
point $-1 -1 $-1 10.375 0 1.2705290920907164e-015 #
point $-1 -1 $-1 -10.375 0 -2.5410581841814328e-015 #
ellipse-curve $-1 -1 $-1 0 0 0 0 -1 0 -10.375 0 0 1 I I #
coedge $-1 -1 $-1 $545 $554 $543 $555 reversed $529 $-1 #
coedge $-1 -1 $-1 $544 $530 $542 $555 forward $508 $-1 #
coedge $-1 -1 $-1 $530 $543 $531 $548 reversed $508 $-1 #
coedge $-1 -1 $-1 $554 $542 $530 $546 forward $529 $-1 #
edge $-1 -1 $-1 $556 -6.519511613396792e-033 $557 0.62835061540701331 $545 $558 forward @7 unknown #
coedge $-1 -1 $-1 $531 $531 $554 $559 forward $510 $-1 #
edge $560 -1 $-1 $557 -1.047197551196597 $561 2.0943951023931948 $531 $562 reversed @7 unknown #
attrib_edge_convexity-kcp-attrib $-1 -1 $563 $-1 $532 2 #
ellipse-curve $-1 -1 $-1 0 18 0 0 1 0 -10.375 0 0 1 I I #
convexity-sys-attrib $-1 -1 $-1 $533 $515 #
point $-1 -1 $-1 10.375 18 1.2705290920907164e-015 #
point $-1 -1 $-1 -10.375 18 0 #
coedge $-1 -1 $-1 $542 $545 $547 $559 reversed $529 $-1 #
edge $-1 -1 $-1 $556 3.6044715617398437e-016 $561 0.62835061540701453 $542 $564 forward @7 unknown #
vertex $-1 -1 $-1 $546 $565 #
vertex $-1 -1 $-1 $559 $566 #
ellipse-curve $-1 -1 $-1 6.062177826491066 22.449489742783186 -3.5 -0.4999999999999995 -1.081757683151805e-017 -0.86602540378443904 8.8817841970012523e-016 -5.5 -4.4408920985006262e-016 1 I I #
edge $567 -1 $-1 $561 -4.1887902047863914 $557 -1.047197551196597 $547 $568 reversed @7 unknown #
attrib_edge_convexity-kcp-attrib $-1 -1 $569 $-1 $548 2 #
vertex $-1 -1 $-1 $559 $570 #
ellipse-curve $-1 -1 $-1 6.062177826491066 18 -3.5 0 -1 0 0 0 3.232961649767474 1 I I #
convexity-sys-attrib $-1 -1 $-1 $549 $532 #
ellipse-curve $-1 -1 $-1 6.062177826491066 22.449489742783186 -3.5 0.49999999999999967 -1.0817576831518076e-017 0.86602540378443882 -8.8817841970012523e-016 -5.5 4.4408920985006262e-016 1 I I #
point $-1 -1 $-1 6.0621778264910668 16.949489742783186 -3.5000000000000004 #
point $-1 -1 $-1 3.2623509083315834 18 -1.8835191751162597 #
attrib_edge_convexity-kcp-attrib $-1 -1 $571 $-1 $559 2 #
ellipse-curve $-1 -1 $-1 6.062177826491066 18 -3.5 0 -1 0 0 0 3.232961649767474 1 I I #
convexity-sys-attrib $-1 -1 $-1 $560 $548 #
point $-1 -1 $-1 8.8620047446505588 18 -5.1164808248837401 #
convexity-sys-attrib $-1 -1 $-1 $567 $559 #
End-of-ACIS-data 