600 0 1 0           
105 GICL Pro/E ACIS Translator - Source: f:/data5/repository/PTC/V18/bboxrev2/boombox/tuner_control.prt - 6 0 13 ACIS 6.0.3 NT 24 Thu Apr 04 10:03:34 2002 
1 9.9999999999999995e-007 1e-010 
body $-1 $1 $-1 $-1 #
lump $-1 $-1 $2 $0 #
shell $-1 $-1 $-1 $3 $-1 $1 #
face $-1 $4 $5 $2 $-1 $6 forward single #
face $-1 $7 $8 $2 $-1 $9 forward single #
loop $-1 $-1 $10 $3 #
cone-surface $-1 0 21 0 0 -1 0 -12.375 0 0 1 I I 0 1 12.375 forward I I I I #
face $-1 $11 $12 $2 $-1 $13 reversed single #
loop $-1 $-1 $14 $4 #
torus-surface $-1 0 18 0 0 -1 0 10.375 2 -1 0 0 forward_v I I I I #
coedge $-1 $15 $16 $17 $18 forward $5 $-1 #
face $-1 $19 $20 $2 $-1 $21 forward single #
loop $-1 $22 $23 $7 #
plane-surface $-1 0 20 0 0 -1 0 -1 0 0 forward_v I I I I #
coedge $-1 $24 $25 $23 $26 forward $8 $-1 #
coedge $-1 $27 $10 $28 $29 reversed $5 $-1 #
coedge $-1 $10 $27 $30 $31 forward $5 $-1 #
coedge $-1 $25 $24 $10 $18 reversed $8 $-1 #
edge $-1 $32 0 $33 3.1415926535897931 $10 $34 forward 7 unknown #
face $-1 $35 $36 $2 $-1 $37 forward single #
loop $-1 $-1 $38 $11 #
torus-surface $-1 0 18 0 0 -1 0 10.375 2 -1 0 0 forward_v I I I I #
loop $-1 $-1 $39 $7 #
coedge $-1 $40 $40 $14 $26 reversed $12 $-1 #
coedge $-1 $17 $14 $41 $42 reversed $8 $-1 #
coedge $-1 $14 $17 $43 $44 forward $8 $-1 #
edge $-1 $45 1.2246063538223773e-016 $46 3.1415926535897931 $14 $47 forward 7 unknown #
coedge $-1 $16 $15 $48 $49 reversed $5 $-1 #
coedge $-1 $50 $51 $15 $29 forward $36 $-1 #
edge $-1 $52 0 $33 18 $15 $53 forward 7 unknown #
coedge $-1 $51 $50 $16 $31 reversed $36 $-1 #
edge $-1 $54 0 $32 18 $16 $55 forward 7 unknown #
vertex $-1 $31 $56 #
vertex $-1 $29 $57 #
ellipse-curve $-1 0 18 0 0 -1 0 12.375 0 1.5154503628551919e-015 1 I I #
face $-1 $58 $59 $2 $-1 $60 forward single #
loop $-1 $-1 $51 $19 #
cone-surface $-1 0 21 0 0 -1 0 -12.375 0 0 1 I I 0 1 12.375 forward I I I I #
coedge $-1 $41 $43 $50 $61 forward $20 $-1 #
coedge $-1 $62 $62 $63 $64 reversed $22 $-1 #
coedge $-1 $23 $23 $65 $66 forward $12 $-1 #
coedge $-1 $65 $38 $24 $42 forward $20 $-1 #
edge $-1 $33 1.2154326714572564e-063 $46 1.5707963267948974 $24 $67 forward 7 unknown #
coedge $-1 $38 $65 $25 $44 reversed $20 $-1 #
edge $-1 $32 3.038581678643141e-064 $45 1.5707963267948974 $25 $68 forward 7 unknown #
vertex $-1 $44 $69 #
vertex $-1 $42 $70 #
ellipse-curve $-1 0 20 0 0 -1 0 10.375 0 0 1 I I #
coedge $-1 $71 $71 $27 $49 forward $59 $-1 #
edge $-1 $54 0 $52 3.1415926535897931 $27 $72 forward 7 unknown #
coedge $-1 $30 $28 $38 $61 reversed $36 $-1 #
coedge $-1 $28 $30 $71 $73 forward $36 $-1 #
vertex $-1 $49 $74 #
straight-curve $-1 -12.375 0 -3.0309007257103837e-015 0 1 0 I I #
vertex $-1 $31 $75 #
straight-curve $-1 12.375 0 1.5154503628551919e-015 0 1 0 I I #
point $-1 12.375 18 1.5154503628551919e-015 #
point $-1 -12.375 18 -3.0309007257103837e-015 #
face $-1 $76 $77 $2 $-1 $78 reversed single #
loop $-1 $79 $48 $35 #
plane-surface $-1 0 0 0 0 -1 0 -1 0 0 forward_v I I I I #
edge $-1 $32 0 $33 3.1415926535897931 $50 $80 forward 7 unknown #
coedge $-1 $39 $39 $81 $82 reversed $22 $-1 #
coedge $-1 $83 $84 $39 $64 forward $85 $-1 #
edge $-1 $86 0 $87 3.1415926535897936 $39 $88 forward 7 unknown #
coedge $-1 $43 $41 $40 $66 reversed $20 $-1 #
edge $-1 $45 -1.2246063538223773e-016 $46 3.1415926535897931 $40 $89 forward 7 unknown #
ellipse-curve $-1 -10.375000000000002 18 -2.5410581841814332e-015 2.449212707644755e-016 3.0410324156925642e-032 -1 -1.9999999999999982 0 -4.8984254152895051e-016 1 I I #
ellipse-curve $-1 10.375000000000002 18 1.2705290920907166e-015 -1.2246063538223775e-016 1.5205162078462821e-032 1 1.9999999999999982 0 2.4492127076447525e-016 1 I I #
point $-1 10.375 20 1.2705290920907164e-015 #
point $-1 -10.375 20 0 #
coedge $-1 $48 $48 $51 $73 reversed $59 $-1 #
ellipse-curve $-1 8.8817841970012523e-016 0 -8.8817841970012523e-016 0 -1 0 12.375 0 2.4036287825553171e-015 1 I I #
edge $-1 $54 0 $52 3.1415926535897931 $51 $90 forward 7 unknown #
point $-1 -12.375 0 -3.0309007257103837e-015 #
point $-1 12.375 0 1.5154503628551919e-015 #
face $-1 $91 $92 $2 $-1 $93 reversed single #
loop $-1 $-1 $94 $58 #
cone-surface $-1 0 21 0 0 -1 0 -10.375 0 0 1 I I 0 1 10.375 forward I I I I #
loop $-1 $-1 $95 $35 #
ellipse-curve $-1 0 18 0 0 1 0 12.375 0 1.5154503628551919e-015 1 I I #
coedge $-1 $96 $97 $62 $82 forward $98 $-1 #
edge $-1 $87 0 $86 3.1415926535897931 $62 $99 forward 7 unknown #
coedge $-1 $84 $63 $97 $100 reversed $85 $-1 #
coedge $-1 $63 $83 $96 $101 forward $85 $-1 #
loop $-1 $-1 $83 $102 #
vertex $-1 $82 $103 #
vertex $-1 $82 $104 #
ellipse-curve $-1 6.0621778264910713 20 -3.4999999999999991 0 1 0 -2.1650635094610964 0 1.2499999999999991 1 I I #
ellipse-curve $-1 0 20 0 0 1 0 10.375 0 0 1 I I #
ellipse-curve $-1 -4.4408920985006262e-016 0 8.8817841970012523e-016 0 1 0 12.375 0 6.2727194315506662e-016 1 I I #
face $-1 $105 $106 $2 $-1 $107 forward single #
loop $-1 $-1 $108 $76 #
cone-surface $-1 0 21 0 0 -1 0 -10.375 0 0 1 I I 0 1 10.375 forward I I I I #
coedge $-1 $109 $110 $95 $111 forward $77 $-1 #
coedge $-1 $112 $112 $94 $111 reversed $79 $-1 #
coedge $-1 $97 $81 $84 $101 reversed $98 $-1 #
coedge $-1 $81 $96 $83 $100 forward $98 $-1 #
loop $-1 $-1 $96 $113 #
ellipse-curve $-1 6.0621778264910713 20 -3.5 0 1 0 2.1650635094610973 0 -1.25 1 I I #
edge $-1 $114 3.2198404294735173e-032 $87 0.79560295348453502 $97 $115 forward 7 unknown #
edge $-1 $114 5.6641695970197535e-016 $86 0.79560295348453303 $96 $116 forward 7 unknown #
face $-1 $113 $85 $2 $-1 $117 reversed single #
point $-1 3.8971143170299749 20 -2.25 #
point $-1 8.2272413359521686 20 -4.75 #
face $-1 $118 $119 $2 $-1 $120 forward single #
loop $-1 $121 $122 $91 #
plane-surface $-1 0 18 0 0 -1 0 -1 0 0 forward_v I I I I #
coedge $-1 $123 $124 $125 $126 forward $92 $-1 #
coedge $-1 $127 $94 $123 $128 forward $77 $-1 #
coedge $-1 $94 $127 $124 $129 reversed $77 $-1 #
edge $-1 $130 0 $131 3.1415926535897936 $95 $132 forward 7 unknown #
coedge $-1 $95 $95 $133 $134 forward $79 $-1 #
face $-1 $-1 $98 $2 $-1 $135 reversed single #
vertex $-1 $100 $136 #
ellipse-curve $-1 6.062177826491066 22.449489742783186 -3.5 0.49999999999999983 -1.6999049306671322e-017 0.86602540378443882 -8.8817841970012523e-016 -3.5 4.4408920985006262e-016 1 I I #
ellipse-curve $-1 6.062177826491066 22.449489742783186 -3.5 -0.50000000000000011 -1.6999049306671414e-017 -0.8660254037844386 8.8817841970012523e-016 -3.5 -4.4408920985006262e-016 1 I I #
sphere-surface $-1 6.062177826491066 22.449489742783186 -3.5 3.5000000000000004 1 0 0 0 0 1 forward_v I I I I #
face $-1 $102 $137 $2 $-1 $138 forward single #
loop $-1 $-1 $139 $105 #
sphere-surface $-1 6.062177826491066 22.449489742783186 -3.5 5.5000000000000009 1 0 0 0 0 1 forward_v I I I I #
loop $-1 $-1 $140 $91 #
coedge $-1 $125 $125 $127 $141 forward $106 $-1 #
coedge $-1 $133 $108 $109 $128 reversed $92 $-1 #
coedge $-1 $108 $133 $110 $129 forward $92 $-1 #
coedge $-1 $122 $122 $108 $126 reversed $106 $-1 #
edge $-1 $142 -1.2246063538223773e-016 $143 3.1415926535897931 $125 $144 forward 7 unknown #
coedge $-1 $110 $109 $122 $141 reversed $77 $-1 #
edge $-1 $131 0 $143 18 $109 $145 forward 7 unknown #
edge $-1 $130 0 $142 18 $110 $146 forward 7 unknown #
vertex $-1 $134 $147 #
vertex $-1 $134 $148 #
ellipse-curve $-1 1.3322676295501878e-015 0 1.3322676295501878e-015 0 -1 0 10.374999999999998 0 -6.1738537459471443e-017 1 I I #
coedge $-1 $124 $123 $112 $134 reversed $92 $-1 #
edge $-1 $130 0 $131 3.1415926535897931 $112 $149 forward 7 unknown #
sphere-surface $-1 6.062177826491066 22.449489742783186 -3.5 3.5000000000000004 1 0 0 0 0 1 forward_v I I I I #
point $-1 6.0621778264910651 18.949489742783186 -3.4999999999999996 #
loop $-1 $-1 $150 $118 #
sphere-surface $-1 6.062177826491066 22.449489742783186 -3.5 5.5000000000000009 1 0 0 0 0 1 forward_v I I I I #
coedge $-1 $151 $152 $153 $154 reversed $119 $-1 #
coedge $-1 $155 $155 $152 $156 forward $121 $-1 #
edge $-1 $142 1.2246063538223773e-016 $143 3.1415926535897931 $127 $157 forward 7 unknown #
vertex $-1 $129 $158 #
vertex $-1 $141 $159 #
ellipse-curve $-1 0 18 0 0 1 0 10.375 0 0 1 I I #
straight-curve $-1 -10.375 0 -2.5410581841814328e-015 0 1 0 I I #
straight-curve $-1 10.375 0 1.2705290920907164e-015 0 1 0 I I #
point $-1 10.375 0 1.2705290920907164e-015 #
point $-1 -10.375 0 -2.5410581841814328e-015 #
ellipse-curve $-1 4.4408920985006262e-016 0 -1.3322676295501878e-015 0 1 0 10.375 0 2.6027967216409043e-015 1 I I #
coedge $-1 $153 $160 $151 $161 reversed $137 $-1 #
coedge $-1 $152 $139 $150 $161 forward $119 $-1 #
coedge $-1 $139 $151 $140 $156 reversed $119 $-1 #
coedge $-1 $160 $150 $139 $154 forward $137 $-1 #
edge $-1 $162 0 $163 0.62835061540701331 $153 $164 forward 7 unknown #
coedge $-1 $140 $140 $160 $165 forward $121 $-1 #
edge $-1 $163 0 $166 3.1415926535897931 $140 $167 forward 7 unknown #
ellipse-curve $-1 0 18 0 0 -1 0 10.375 0 0 1 I I #
point $-1 10.375 18 1.2705290920907164e-015 #
point $-1 -10.375 18 0 #
coedge $-1 $150 $153 $155 $165 reversed $137 $-1 #
edge $-1 $162 3.6044715617398432e-016 $166 0.62835061540701453 $150 $168 forward 7 unknown #
vertex $-1 $154 $169 #
vertex $-1 $165 $170 #
ellipse-curve $-1 6.062177826491066 22.449489742783186 -3.5 -0.4999999999999995 -1.081757683151805e-017 -0.86602540378443904 8.8817841970012523e-016 -5.5 -4.4408920985006262e-016 1 I I #
edge $-1 $166 0 $163 3.1415926535897931 $155 $171 forward 7 unknown #
vertex $-1 $165 $172 #
ellipse-curve $-1 6.0621778264910713 18 -3.4999999999999996 0 1 0 -2.7998269181594879 0 1.6164808248837399 1 I I #
ellipse-curve $-1 6.062177826491066 22.449489742783186 -3.5 0.49999999999999967 -1.0817576831518076e-017 0.86602540378443882 -8.8817841970012523e-016 -5.5 4.4408920985006262e-016 1 I I #
point $-1 6.0621778264910668 16.949489742783186 -3.5000000000000004 #
point $-1 3.2623509083315834 18 -1.8835191751162597 #
ellipse-curve $-1 6.0621778264910713 18 -3.5 0 1 0 2.7998269181594875 0 -1.6164808248837401 1 I I #
point $-1 8.8620047446505588 18 -5.1164808248837401 #
End-of-ACIS-data 