600 0 1 0           
96 GICL Pro/E ACIS Translator - Source: f:/data5/repository/PTC/V18/bboxrev2/boombox/vise.prt - 6 0 13 ACIS 6.0.3 NT 24 Thu Apr 04 13:41:59 2002 
1 9.9999999999999995e-007 1e-010 
body $-1 $1 $-1 $-1 #
lump $-1 $-1 $2 $0 #
shell $-1 $-1 $-1 $3 $-1 $1 #
face $-1 $4 $5 $2 $-1 $6 reversed single #
face $-1 $7 $8 $2 $-1 $9 forward single #
loop $-1 $-1 $10 $3 #
plane-surface $-1 73.431400000000011 45.085000000000001 28.448 0 0 -1 -1 0 0 forward_v I I I I #
face $-1 $11 $12 $2 $-1 $13 reversed single #
loop $-1 $-1 $14 $4 #
plane-surface $-1 -205.77499999999998 -69.849999999999994 28.448 -1 0 0 0 1 0 forward_v I I I I #
coedge $-1 $15 $16 $17 $18 reversed $5 $-1 #
face $-1 $19 $20 $2 $-1 $21 forward single #
loop $-1 $-1 $22 $7 #
plane-surface $-1 151.89499999999998 -38.099999999999994 22.097999999999999 0 0 -1 0 1 0 forward_v I I I I #
coedge $-1 $23 $24 $25 $26 reversed $8 $-1 #
coedge $-1 $27 $10 $28 $29 reversed $5 $-1 #
coedge $-1 $10 $30 $31 $32 forward $5 $-1 #
coedge $-1 $24 $33 $10 $18 forward $8 $-1 #
edge $-1 $34 0 $35 31.75 $10 $36 forward 7 unknown #
face $-1 $37 $38 $2 $-1 $39 reversed single #
loop $-1 $-1 $40 $11 #
plane-surface $-1 -104.77499999999999 -38.099999999999994 28.448 0 1 0 1 0 0 forward_v I I I I #
coedge $-1 $41 $25 $42 $43 reversed $12 $-1 #
coedge $-1 $44 $14 $45 $46 forward $8 $-1 #
coedge $-1 $14 $17 $47 $48 forward $8 $-1 #
coedge $-1 $22 $49 $14 $26 forward $12 $-1 #
edge $-1 $50 5.3290705182007514e-015 $51 31.75 $14 $52 forward 7 unknown #
coedge $-1 $53 $15 $54 $55 reversed $5 $-1 #
coedge $-1 $56 $57 $15 $29 forward $58 $-1 #
edge $-1 $59 0 $34 560 $15 $60 forward 7 unknown #
coedge $-1 $16 $53 $61 $62 forward $5 $-1 #
coedge $-1 $63 $47 $16 $32 reversed $20 $-1 #
edge $-1 $64 0 $35 458.39999999999998 $16 $65 forward 7 unknown #
coedge $-1 $17 $66 $56 $67 reversed $8 $-1 #
vertex $-1 $29 $68 #
vertex $-1 $32 $69 #
straight-curve $-1 -205.77499999999998 -69.849999999999994 28.448 0 1 0 I I #
face $-1 $70 $58 $2 $-1 $71 forward single #
loop $-1 $-1 $72 $19 #
plane-surface $-1 354.22499999999997 -38.099999999999994 -9.6519999999999939 0 0 1 0 -1 0 forward_v I I I I #
coedge $-1 $73 $74 $75 $76 reversed $20 $-1 #
coedge $-1 $49 $22 $77 $78 reversed $12 $-1 #
coedge $-1 $47 $73 $22 $43 forward $20 $-1 #
edge $-1 $79 1.4210854715202004e-014 $51 101 $42 $80 forward 7 unknown #
coedge $-1 $81 $23 $82 $83 forward $8 $-1 #
coedge $-1 $84 $85 $23 $46 reversed $86 $-1 #
edge $-1 $50 0 $87 203.70799999999997 $23 $88 forward 7 unknown #
coedge $-1 $31 $42 $24 $48 reversed $20 $-1 #
edge $-1 $35 7.1054273576010019e-015 $51 6.3500000000000014 $24 $89 forward 7 unknown #
coedge $-1 $25 $41 $84 $90 reversed $12 $-1 #
vertex $-1 $46 $91 #
vertex $-1 $48 $92 #
straight-curve $-1 -205.77499999999998 -6.3499999999999943 22.097999999999999 0 -1 0 I I #
coedge $-1 $30 $27 $93 $94 reversed $5 $-1 #
coedge $-1 $95 $96 $27 $55 forward $97 $-1 #
edge $-1 $98 0 $59 63.499999999999993 $27 $99 forward 7 unknown #
coedge $-1 $100 $28 $33 $67 forward $58 $-1 #
coedge $-1 $28 $100 $95 $101 reversed $58 $-1 #
loop $-1 $-1 $57 $37 #
vertex $-1 $55 $102 #
straight-curve $-1 354.22499999999997 -69.849999999999994 28.448 -1 0 0 I I #
coedge $-1 $103 $104 $30 $62 reversed $105 $-1 #
edge $-1 $106 -1.7763568394002505e-015 $64 31.749999999999993 $30 $107 forward 7 unknown #
coedge $-1 $108 $31 $104 $109 forward $20 $-1 #
vertex $-1 $32 $110 #
straight-curve $-1 252.625 -38.100000000000001 28.448 -1 0 0 I I #
coedge $-1 $33 $111 $112 $113 reversed $8 $-1 #
edge $-1 $34 0 $114 38.099999999999994 $56 $115 forward 7 unknown #
point $-1 -205.77500000000003 -69.849999999999994 28.448 #
point $-1 -205.77499999999998 -38.099999999999994 28.447999999999993 #
face $-1 $116 $97 $2 $-1 $117 forward single #
plane-surface $-1 354.22499999999997 -69.849999999999994 28.448 0 -1 0 -1 0 0 forward_v I I I I #
coedge $-1 $112 $118 $100 $119 forward $38 $-1 #
coedge $-1 $42 $40 $120 $121 reversed $20 $-1 #
coedge $-1 $40 $122 $123 $124 forward $20 $-1 #
coedge $-1 $125 $126 $40 $76 forward $38 $-1 #
edge $-1 $127 -5.6843418860808015e-014 $128 181.66999999999996 $40 $129 forward 7 unknown #
coedge $-1 $120 $130 $41 $78 forward $131 $-1 #
edge $-1 $132 -1.7763568394002505e-015 $79 31.75 $77 $133 forward 7 unknown #
vertex $-1 $78 $134 #
straight-curve $-1 -104.77499999999998 -38.099999999999994 22.097999999999999 -1 0 0 I I #
coedge $-1 $135 $44 $136 $137 reversed $8 $-1 #
coedge $-1 $138 $139 $44 $83 reversed $140 $-1 #
edge $-1 $87 0 $141 31.75 $44 $142 forward 7 unknown #
coedge $-1 $143 $45 $49 $90 forward $86 $-1 #
coedge $-1 $45 $143 $138 $144 reversed $86 $-1 #
loop $-1 $-1 $143 $145 #
vertex $-1 $83 $146 #
straight-curve $-1 -205.77499999999998 -6.3500000000000014 22.097999999999999 0 0 -1 I I #
straight-curve $-1 -205.77499999999998 -38.099999999999994 28.448 0 0 -1 I I #
edge $-1 $50 0 $132 101 $84 $147 forward 7 unknown #
point $-1 -205.77499999999998 -6.3499999999999996 22.097999999999999 #
point $-1 -205.77499999999998 -38.099999999999994 22.097999999999999 #
coedge $-1 $148 $149 $53 $94 forward $150 $-1 #
edge $-1 $106 0 $98 101.59999999999997 $53 $151 forward 7 unknown #
coedge $-1 $152 $54 $57 $101 forward $97 $-1 #
coedge $-1 $54 $153 $148 $154 reversed $97 $-1 #
loop $-1 $-1 $155 $70 #
vertex $-1 $94 $156 #
straight-curve $-1 354.22499999999997 -6.3500000000000014 28.448 0 -1 0 I I #
coedge $-1 $57 $56 $72 $119 reversed $58 $-1 #
edge $-1 $59 0 $157 38.099999999999994 $95 $158 forward 7 unknown #
point $-1 354.22499999999997 -69.849999999999994 28.448 #
coedge $-1 $159 $61 $149 $160 forward $105 $-1 #
coedge $-1 $61 $161 $63 $109 reversed $105 $-1 #
loop $-1 $162 $163 $164 #
vertex $-1 $62 $165 #
straight-curve $-1 252.625 -6.3500000000000014 28.448 0 -1 0 I I #
coedge $-1 $166 $63 $167 $168 reversed $20 $-1 #
edge $-1 $64 0 $169 38.099999999999994 $63 $170 forward 7 unknown #
point $-1 252.625 -38.099999999999994 28.448 #
coedge $-1 $66 $171 $172 $173 forward $8 $-1 #
coedge $-1 $126 $72 $66 $113 forward $38 $-1 #
edge $-1 $114 0 $174 31.75 $66 $175 forward 7 unknown #
vertex $-1 $119 $176 #
straight-curve $-1 -205.77500000000003 -69.849999999999994 28.448 0 0 -1 I I #
face $-1 $177 $178 $2 $-1 $179 forward single #
plane-surface $-1 354.22499999999997 -6.3499999999999996 28.448 1 0 0 0 -1 0 forward_v I I I I #
coedge $-1 $72 $180 $152 $181 reversed $38 $-1 #
edge $-1 $157 0 $114 560 $100 $182 forward 7 unknown #
coedge $-1 $183 $77 $73 $121 forward $131 $-1 #
edge $-1 $79 -7.1054273576010019e-015 $127 31.749999999999986 $120 $184 forward 7 unknown #
coedge $-1 $74 $166 $185 $186 forward $20 $-1 #
coedge $-1 $187 $188 $74 $124 reversed $189 $-1 #
edge $-1 $190 0 $128 31.749999999999993 $123 $191 forward 7 unknown #
coedge $-1 $167 $75 $192 $193 reversed $38 $-1 #
coedge $-1 $75 $112 $194 $195 reversed $38 $-1 #
vertex $-1 $196 $197 #
vertex $-1 $124 $198 #
straight-curve $-1 -104.77499999999998 -38.099999999999994 -9.6519999999999939 1 0 0 I I #
coedge $-1 $77 $199 $143 $200 reversed $131 $-1 #
loop $-1 $-1 $120 $201 #
vertex $-1 $90 $202 #
straight-curve $-1 -104.77499999999998 -6.3500000000000014 22.097999999999999 0 -1 0 I I #
point $-1 -104.77499999999999 -38.100000000000001 22.097999999999999 #
coedge $-1 $203 $81 $204 $205 reversed $8 $-1 #
coedge $-1 $206 $207 $81 $137 forward $208 $-1 #
edge $-1 $209 -2.8421709430404007e-014 $141 6.3499999999999943 $81 $210 forward 7 unknown #
coedge $-1 $211 $82 $85 $144 forward $140 $-1 #
coedge $-1 $82 $211 $206 $212 forward $140 $-1 #
loop $-1 $-1 $138 $213 #
vertex $-1 $137 $214 #
straight-curve $-1 -205.77499999999998 -6.3499999999999943 -181.60999999999999 0 -1 0 I I #
coedge $-1 $85 $84 $130 $200 forward $86 $-1 #
edge $-1 $87 0 $215 101 $85 $216 forward 7 unknown #
face $-1 $217 $86 $2 $-1 $218 forward single #
point $-1 -205.77499999999998 -6.3499999999999943 -181.60999999999999 #
straight-curve $-1 -205.77499999999998 -6.3500000000000014 22.097999999999999 1 0 0 I I #
coedge $-1 $219 $93 $96 $154 forward $150 $-1 #
coedge $-1 $93 $219 $103 $160 reversed $150 $-1 #
loop $-1 $-1 $93 $220 #
straight-curve $-1 252.625 -6.3499999999999996 28.448 1 0 0 I I #
coedge $-1 $221 $95 $118 $181 forward $97 $-1 #
coedge $-1 $96 $155 $222 $223 reversed $97 $-1 #
edge $-1 $98 0 $224 216.40799999999999 $148 $225 forward 7 unknown #
coedge $-1 $153 $226 $227 $228 forward $97 $-1 #
point $-1 354.22499999999997 -6.3500000000000014 28.448 #
vertex $-1 $181 $229 #
straight-curve $-1 354.22499999999997 -69.849999999999994 28.448 0 0 -1 I I #
coedge $-1 $230 $103 $231 $232 forward $105 $-1 #
edge $-1 $106 0 $233 216.40799999999999 $149 $234 forward 7 unknown #
coedge $-1 $104 $163 $235 $236 forward $105 $-1 #
loop $-1 $237 $238 $164 #
coedge $-1 $161 $239 $240 $241 reversed $105 $-1 #
face $-1 $242 $105 $2 $-1 $243 reversed single #
point $-1 252.625 -6.3499999999999996 28.448 #
coedge $-1 $122 $108 $244 $245 reversed $20 $-1 #
coedge $-1 $180 $125 $108 $168 forward $38 $-1 #
edge $-1 $246 0 $169 100.73000000000002 $108 $247 forward 7 unknown #
vertex $-1 $168 $248 #
straight-curve $-1 252.625 -38.099999999999994 28.448 0 0 -1 I I #
coedge $-1 $111 $249 $250 $251 forward $8 $-1 #
coedge $-1 $252 $194 $111 $173 reversed $253 $-1 #
edge $-1 $254 0 $174 51.054000000000002 $111 $255 forward 7 unknown #
vertex $-1 $113 $256 #
straight-curve $-1 -205.77500000000003 -69.849999999999994 -9.6519999999999939 0 1 0 I I #
point $-1 -205.77500000000003 -69.849999999999994 -9.6519999999999939 #
face $-1 $164 $257 $2 $-1 $258 forward single #
loop $-1 $-1 $259 $116 #
plane-surface $-1 354.22499999999997 -69.849999999999994 28.448 0 -1 0 -1 0 0 forward_v I I I I #
coedge $-1 $118 $167 $260 $261 reversed $38 $-1 #
edge $-1 $157 0 $262 31.749999999999993 $152 $263 forward 7 unknown #
straight-curve $-1 354.22499999999997 -69.849999999999994 -9.6519999999999939 -1 0 0 I I #
coedge $-1 $264 $120 $265 $196 reversed $131 $-1 #
straight-curve $-1 -104.77499999999999 -38.099999999999994 22.097999999999992 0 0 -1 I I #
coedge $-1 $266 $267 $122 $186 reversed $268 $-1 #
edge $-1 $269 0 $190 74.999999999999986 $122 $270 forward 7 unknown #
coedge $-1 $271 $123 $267 $272 forward $189 $-1 #
coedge $-1 $123 $273 $274 $275 forward $189 $-1 #
loop $-1 $-1 $271 $276 #
vertex $-1 $272 $277 #
straight-curve $-1 76.894999999999996 -38.099999999999994 22.097999999999999 0 0 -1 I I #
coedge $-1 $274 $278 $125 $193 forward $279 $-1 #
edge $-1 $246 0 $128 74.999999999999986 $192 $280 forward 7 unknown #
coedge $-1 $172 $265 $126 $195 forward $253 $-1 #
edge $-1 $127 0 $174 100.99999999999994 $194 $281 forward 7 unknown #
edge $-1 $282 0 $127 51.054000000000002 $183 $283 forward 7 unknown #
point $-1 -104.77500000000003 -38.099999999999994 -9.6519999999999939 #
point $-1 76.894999999999996 -38.099999999999994 -9.6519999999999939 #
coedge $-1 $130 $284 $211 $285 reversed $131 $-1 #
edge $-1 $132 0 $215 203.70799999999997 $143 $286 forward 7 unknown #
face $-1 $287 $131 $2 $-1 $288 forward single #
point $-1 -104.77499999999998 -6.3499999999999996 22.097999999999999 #
coedge $-1 $289 $135 $259 $290 reversed $8 $-1 #
coedge $-1 $291 $292 $135 $205 forward $257 $-1 #
edge $-1 $293 0 $209 31.75 $204 $294 forward 7 unknown #
coedge $-1 $295 $136 $139 $212 reversed $208 $-1 #
coedge $-1 $136 $296 $291 $297 reversed $208 $-1 #
loop $-1 $-1 $136 $298 #
vertex $-1 $297 $299 #
straight-curve $-1 -205.77499999999998 -38.099999999999994 -187.95999999999998 0 0 1 I I #
coedge $-1 $139 $138 $199 $285 forward $140 $-1 #
edge $-1 $300 1.4210854715202004e-014 $141 101 $206 $301 forward 7 unknown #
face $-1 $145 $140 $2 $-1 $302 reversed single #
point $-1 -205.77499999999998 -38.099999999999994 -181.60999999999999 #
vertex $-1 $144 $303 #
straight-curve $-1 -205.77499999999998 -6.3499999999999996 -181.60999999999999 1 0 0 I I #
face $-1 $220 $268 $2 $-1 $304 reversed single #
plane-surface $-1 -205.77499999999998 -6.3499999999999996 28.448 0 1 0 1 0 0 forward_v I I I I #
coedge $-1 $149 $148 $305 $306 reversed $150 $-1 #
face $-1 $-1 $150 $2 $-1 $307 forward single #
coedge $-1 $308 $152 $309 $310 reversed $97 $-1 #
coedge $-1 $292 $305 $153 $223 forward $257 $-1 #
edge $-1 $224 -1.7763568394002505e-015 $311 63.499999999999993 $222 $312 forward 7 unknown #
vertex $-1 $223 $313 #
straight-curve $-1 354.22499999999997 -6.3499999999999996 28.448 0 0 -1 I I #
coedge $-1 $155 $314 $315 $316 reversed $97 $-1 #
coedge $-1 $317 $318 $155 $228 reversed $178 $-1 #
edge $-1 $319 0 $311 38.099999999999994 $155 $320 forward 7 unknown #
point $-1 354.22499999999997 -69.849999999999994 -9.6519999999999939 #
coedge $-1 $239 $159 $296 $321 reversed $105 $-1 #
coedge $-1 $305 $291 $159 $232 reversed $257 $-1 #
edge $-1 $233 -1.7763568394002505e-015 $322 31.749999999999993 $231 $323 forward 7 unknown #
vertex $-1 $306 $324 #
straight-curve $-1 252.625 -6.3500000000000014 28.448 0 0 -1 I I #
coedge $-1 $325 $260 $161 $236 reversed $326 $-1 #
edge $-1 $327 0 $169 51.054000000000002 $161 $328 forward 7 unknown #
loop $-1 $-1 $329 $164 #
coedge $-1 $330 $330 $331 $332 reversed $162 $-1 #
coedge $-1 $163 $230 $333 $334 forward $105 $-1 #
coedge $-1 $335 $336 $163 $241 forward $337 $-1 #
edge $-1 $327 0 $338 38.099999999999987 $240 $339 forward 7 unknown #
face $-1 $340 $337 $2 $-1 $341 forward single #
plane-surface $-1 252.625 -38.099999999999994 28.448 1 0 0 0 1 0 forward_v I I I I #
coedge $-1 $342 $343 $166 $245 forward $344 $-1 #
edge $-1 $269 -7.1054273576010019e-015 $246 31.749999999999986 $166 $345 forward 7 unknown #
vertex $-1 $245 $346 #
straight-curve $-1 151.89499999999998 -38.099999999999994 -9.6519999999999939 1 0 0 I I #
point $-1 252.625 -38.099999999999994 -9.6519999999999939 #
coedge $-1 $171 $347 $348 $349 reversed $8 $-1 #
coedge $-1 $350 $351 $171 $251 reversed $352 $-1 #
edge $-1 $353 0 $254 31.75 $171 $354 forward 7 unknown #
coedge $-1 $265 $172 $351 $355 reversed $253 $-1 #
loop $-1 $-1 $252 $287 #
vertex $-1 $173 $356 #
straight-curve $-1 -205.77500000000003 -38.099999999999994 -60.705999999999996 0 0 1 I I #
point $-1 -205.77499999999998 -38.099999999999994 -9.6519999999999939 #
loop $-1 $-1 $231 $177 #
plane-surface $-1 -104.77499999999999 45.085000000000001 -187.95999999999998 0 0 -1 1 0 0 forward_v I I I I #
coedge $-1 $318 $317 $203 $290 forward $178 $-1 #
coedge $-1 $235 $309 $180 $261 forward $326 $-1 #
edge $-1 $262 0 $169 101.59999999999997 $260 $357 forward 7 unknown #
vertex $-1 $310 $358 #
straight-curve $-1 354.22499999999997 -69.849999999999994 -9.6519999999999939 0 1 0 I I #
coedge $-1 $359 $183 $360 $361 forward $131 $-1 #
coedge $-1 $194 $252 $183 $196 forward $253 $-1 #
coedge $-1 $362 $185 $343 $363 reversed $268 $-1 #
coedge $-1 $185 $362 $187 $272 reversed $268 $-1 #
loop $-1 $-1 $185 $217 #
vertex $-1 $186 $364 #
straight-curve $-1 151.89499999999998 -38.099999999999994 22.097999999999999 -1 0 0 I I #
coedge $-1 $365 $187 $366 $367 forward $189 $-1 #
edge $-1 $190 0 $368 31.75 $187 $369 forward 7 unknown #
coedge $-1 $188 $370 $371 $372 reversed $189 $-1 #
coedge $-1 $373 $192 $188 $275 reversed $279 $-1 #
edge $-1 $374 0 $128 51.054000000000002 $188 $375 forward 7 unknown #
face $-1 $376 $189 $2 $-1 $377 forward single #
point $-1 76.894999999999996 -38.099999999999994 22.097999999999999 #
coedge $-1 $192 $373 $342 $378 forward $279 $-1 #
loop $-1 $-1 $373 $379 #
straight-curve $-1 151.89499999999998 -38.099999999999994 -9.6519999999999939 -1 0 0 I I #
straight-curve $-1 -104.77500000000003 -38.099999999999994 -9.6519999999999939 -1 0 0 I I #
vertex $-1 $361 $380 #
straight-curve $-1 -104.77499999999998 -38.099999999999994 -60.705999999999996 0 0 1 I I #
coedge $-1 $199 $359 $295 $381 forward $131 $-1 #
edge $-1 $215 0 $300 31.749999999999993 $199 $382 forward 7 unknown #
straight-curve $-1 -104.77499999999999 -6.3499999999999996 22.097999999999999 0 0 -1 I I #
face $-1 $383 $253 $2 $-1 $384 reversed single #
plane-surface $-1 -104.77499999999999 -6.3499999999999996 28.448 1 0 0 0 -1 0 forward_v I I I I #
coedge $-1 $385 $203 $386 $387 forward $8 $-1 #
edge $-1 $388 0 $293 38.099999999999994 $259 $389 forward 7 unknown #
coedge $-1 $231 $204 $207 $297 forward $257 $-1 #
coedge $-1 $204 $222 $318 $390 forward $257 $-1 #
vertex $-1 $205 $391 #
straight-curve $-1 -205.77499999999998 -69.849999999999994 -187.95999999999998 0 1 0 I I #
coedge $-1 $392 $206 $284 $381 reversed $208 $-1 #
coedge $-1 $207 $393 $230 $321 forward $208 $-1 #
edge $-1 $209 0 $322 458.39999999999998 $291 $394 forward 7 unknown #
face $-1 $213 $208 $2 $-1 $395 forward single #
point $-1 -205.77499999999998 -38.099999999999994 -187.96000000000001 #
vertex $-1 $285 $396 #
straight-curve $-1 -104.77499999999998 -38.099999999999994 -181.60999999999999 -1 0 0 I I #
plane-surface $-1 151.89499999999998 -6.3499999999999996 -181.60999999999999 0 0 1 0 -1 0 forward_v I I I I #
point $-1 -104.77499999999998 -6.3499999999999996 -181.60999999999999 #
plane-surface $-1 151.89499999999998 -38.099999999999994 22.097999999999999 0 0 -1 0 1 0 forward_v I I I I #
coedge $-1 $222 $231 $219 $306 forward $257 $-1 #
edge $-1 $233 0 $224 101.59999999999997 $305 $397 forward 7 unknown #
plane-surface $-1 76.894999999999996 -6.3499999999999996 28.448 0 1 0 1 0 0 forward_v I I I I #
coedge $-1 $398 $221 $399 $400 reversed $97 $-1 #
coedge $-1 $260 $325 $221 $310 forward $326 $-1 #
edge $-1 $401 0 $262 51.054000000000002 $221 $402 forward 7 unknown #
vertex $-1 $390 $403 #
straight-curve $-1 354.22499999999997 -6.3500000000000014 -187.95999999999998 0 -1 0 I I #
point $-1 354.22499999999997 -6.3499999999999996 -187.95999999999998 #
coedge $-1 $226 $404 $405 $406 reversed $97 $-1 #
coedge $-1 $407 $408 $226 $316 forward $409 $-1 #
edge $-1 $319 0 $410 31.749999999999993 $226 $411 forward 7 unknown #
coedge $-1 $259 $227 $408 $412 forward $178 $-1 #
coedge $-1 $227 $259 $292 $390 reversed $178 $-1 #
vertex $-1 $316 $413 #
straight-curve $-1 354.22499999999997 -69.849999999999994 -149.85999999999999 0 0 -1 I I #
edge $-1 $414 0 $322 38.099999999999994 $296 $415 forward 7 unknown #
vertex $-1 $297 $416 #
straight-curve $-1 252.625 -6.3500000000000014 -187.95999999999998 0 -1 0 I I #
point $-1 252.625 -6.3499999999999996 -187.95999999999998 #
coedge $-1 $309 $235 $417 $418 reversed $326 $-1 #
loop $-1 $-1 $260 $419 #
vertex $-1 $241 $420 #
straight-curve $-1 252.625 -38.099999999999994 -60.705999999999996 0 0 1 I I #
coedge $-1 $421 $421 $422 $423 reversed $237 $-1 #
coedge $-1 $238 $238 $424 $425 reversed $162 $-1 #
coedge $-1 $426 $427 $238 $332 forward $428 $-1 #
edge $-1 $429 0 $430 3.1415926535897847 $238 $431 forward 7 unknown #
coedge $-1 $432 $433 $239 $334 reversed $434 $-1 #
edge $-1 $414 0 $338 51.054000000000002 $239 $435 forward 7 unknown #
coedge $-1 $436 $240 $437 $438 reversed $337 $-1 #
coedge $-1 $240 $436 $439 $440 forward $337 $-1 #
loop $-1 $-1 $436 $242 #
vertex $-1 $438 $441 #
straight-curve $-1 252.625 -38.099999999999994 -60.705999999999996 0 0 -1 I I #
face $-1 $442 $443 $2 $-1 $444 reversed single #
plane-surface $-1 -104.77499999999999 -38.099999999999994 28.448 0 1 0 1 0 0 forward_v I I I I #
coedge $-1 $445 $244 $278 $378 reversed $344 $-1 #
coedge $-1 $244 $446 $266 $363 forward $344 $-1 #
loop $-1 $-1 $244 $340 #
straight-curve $-1 151.89499999999998 -38.099999999999994 22.097999999999992 0 0 -1 I I #
point $-1 151.89499999999998 -38.099999999999994 -9.6519999999999939 #
coedge $-1 $249 $385 $447 $448 reversed $8 $-1 #
coedge $-1 $449 $450 $249 $349 forward $451 $-1 #
edge $-1 $353 0 $452 38.099999999999987 $348 $453 forward 7 unknown #
coedge $-1 $399 $250 $450 $454 reversed $352 $-1 #
coedge $-1 $250 $455 $252 $355 forward $352 $-1 #
loop $-1 $-1 $417 $456 #
vertex $-1 $349 $457 #
straight-curve $-1 -205.77500000000003 -69.849999999999994 -60.705999999999996 0 1 0 I I #
edge $-1 $282 0 $254 100.99999999999994 $351 $458 forward 7 unknown #
point $-1 -205.77499999999998 -38.099999999999994 -60.705999999999996 #
straight-curve $-1 354.22499999999997 -38.099999999999994 -9.6519999999999939 -1 0 0 I I #
point $-1 354.22499999999997 -38.100000000000001 -9.6519999999999939 #
coedge $-1 $284 $264 $459 $460 reversed $131 $-1 #
coedge $-1 $461 $462 $264 $361 reversed $463 $-1 #
edge $-1 $282 0 $464 38.099999999999987 $264 $465 forward 7 unknown #
coedge $-1 $267 $266 $466 $467 reversed $268 $-1 #
edge $-1 $468 -1.7763568394002505e-015 $269 31.75 $343 $469 forward 7 unknown #
point $-1 151.89499999999998 -38.100000000000001 22.097999999999999 #
coedge $-1 $470 $271 $471 $472 reversed $189 $-1 #
coedge $-1 $466 $473 $271 $367 reversed $474 $-1 #
edge $-1 $368 0 $475 203.70799999999997 $271 $476 forward 7 unknown #
vertex $-1 $272 $477 #
straight-curve $-1 76.894999999999996 -38.099999999999994 22.097999999999999 0 1 0 I I #
coedge $-1 $273 $470 $478 $479 forward $189 $-1 #
coedge $-1 $462 $461 $273 $372 forward $463 $-1 #
edge $-1 $374 0 $480 38.099999999999987 $273 $481 forward 7 unknown #
coedge $-1 $278 $274 $482 $483 reversed $279 $-1 #
vertex $-1 $275 $484 #
straight-curve $-1 76.894999999999982 -38.099999999999994 -60.705999999999996 0 0 1 I I #
face $-1 $485 $474 $2 $-1 $486 forward single #
plane-surface $-1 76.894999999999996 -38.099999999999994 28.448 -1 0 0 0 1 0 forward_v I I I I #
edge $-1 $487 0 $246 51.054000000000002 $342 $488 forward 7 unknown #
face $-1 $456 $279 $2 $-1 $489 reversed single #
point $-1 -104.77500000000003 -38.099999999999994 -60.705999999999996 #
edge $-1 $490 0 $300 31.750000000000028 $284 $491 forward 7 unknown #
straight-curve $-1 -104.77499999999998 -6.3499999999999996 -181.60999999999999 0 -1 0 I I #
face $-1 $492 $493 $2 $-1 $494 reversed single #
plane-surface $-1 354.22499999999997 -38.099999999999994 -60.705999999999996 0 1 0 0 0 1 forward_v I I I I #
coedge $-1 $347 $289 $495 $496 forward $8 $-1 #
coedge $-1 $408 $497 $289 $387 reversed $409 $-1 #
edge $-1 $388 0 $498 31.75 $289 $499 forward 7 unknown #
vertex $-1 $412 $500 #
straight-curve $-1 -205.77500000000003 -69.849999999999994 -149.85999999999999 0 0 -1 I I #
edge $-1 $311 0 $293 560 $292 $501 forward 7 unknown #
point $-1 -205.77499999999998 -69.849999999999994 -187.95999999999998 #
coedge $-1 $502 $295 $503 $504 forward $208 $-1 #
coedge $-1 $296 $505 $506 $507 forward $208 $-1 #
straight-curve $-1 -205.77499999999998 -38.100000000000001 -187.95999999999998 1 0 0 I I #
plane-surface $-1 -104.77499999999999 -38.099999999999994 28.448 0 1 0 1 0 0 forward_v I I I I #
point $-1 -104.77499999999999 -38.099999999999994 -181.61000000000001 #
straight-curve $-1 252.625 -6.3499999999999996 -187.95999999999998 1 0 0 I I #
coedge $-1 $404 $308 $508 $509 forward $97 $-1 #
coedge $-1 $417 $350 $308 $400 forward $352 $-1 #
edge $-1 $510 0 $401 31.749999999999993 $308 $511 forward 7 unknown #
vertex $-1 $400 $512 #
straight-curve $-1 354.22499999999997 -38.099999999999994 -60.705999999999996 0 0 1 I I #
point $-1 354.22500000000002 -69.849999999999994 -187.95999999999998 #
coedge $-1 $314 $398 $513 $514 forward $97 $-1 #
coedge $-1 $433 $432 $314 $406 forward $434 $-1 #
edge $-1 $410 0 $515 51.054000000000002 $314 $516 forward 7 unknown #
coedge $-1 $506 $315 $432 $517 forward $409 $-1 #
coedge $-1 $315 $386 $317 $412 reversed $409 $-1 #
loop $-1 $-1 $407 $492 #
vertex $-1 $316 $518 #
straight-curve $-1 354.22499999999997 -69.849999999999994 -149.85999999999999 0 1 0 I I #
edge $-1 $319 0 $388 560 $317 $519 forward 7 unknown #
point $-1 354.22499999999997 -69.849999999999994 -149.85999999999999 #
vertex $-1 $321 $520 #
straight-curve $-1 252.625 -38.099999999999994 -149.85999999999999 0 0 -1 I I #
point $-1 252.625 -38.099999999999994 -187.95999999999998 #
coedge $-1 $439 $399 $325 $418 forward $352 $-1 #
edge $-1 $401 0 $327 101.59999999999999 $417 $521 forward 7 unknown #
face $-1 $522 $326 $2 $-1 $523 reversed single #
point $-1 252.62499999999997 -38.099999999999994 -60.705999999999996 #
coedge $-1 $329 $329 $524 $525 reversed $237 $-1 #
coedge $-1 $526 $527 $329 $423 forward $528 $-1 #
edge $-1 $529 0 $530 3.1415926535897936 $329 $531 forward 7 unknown #
coedge $-1 $532 $533 $330 $425 forward $534 $-1 #
edge $-1 $430 0 $429 3.1415926535898016 $330 $535 forward 7 unknown #
coedge $-1 $536 $331 $533 $537 forward $428 $-1 #
coedge $-1 $331 $536 $532 $538 reversed $428 $-1 #
loop $-1 $-1 $427 $442 #
vertex $-1 $425 $539 #
vertex $-1 $425 $540 #
ellipse-curve $-1 252.625 -22.224999999999998 -124.45999999999998 -1 0 0 0 3.5527136788005009e-015 -10.794999999999987 1 I I #
coedge $-1 $405 $333 $407 $517 reversed $434 $-1 #
coedge $-1 $333 $405 $541 $542 forward $434 $-1 #
loop $-1 $-1 $433 $543 #
straight-curve $-1 252.625 -38.099999999999994 -149.85999999999999 0 0 1 I I #
coedge $-1 $336 $335 $445 $544 reversed $337 $-1 #
coedge $-1 $541 $545 $335 $438 forward $546 $-1 #
edge $-1 $547 0 $338 100.73000000000002 $335 $548 forward 7 unknown #
coedge $-1 $482 $417 $336 $440 reversed $352 $-1 #
edge $-1 $487 0 $327 100.72999999999999 $336 $549 forward 7 unknown #
point $-1 252.625 -38.099999999999994 -98.805999999999983 #
face $-1 $550 $428 $2 $-1 $551 forward single #
loop $-1 $552 $553 $340 #
plane-surface $-1 151.89499999999998 -6.3499999999999996 28.448 -1 0 0 0 -1 0 forward_v I I I I #
coedge $-1 $554 $342 $436 $544 forward $344 $-1 #
coedge $-1 $343 $555 $556 $557 reversed $344 $-1 #
coedge $-1 $558 $559 $347 $448 forward $546 $-1 #
edge $-1 $452 0 $560 31.75 $347 $561 forward 7 unknown #
coedge $-1 $508 $348 $559 $562 reversed $451 $-1 #
coedge $-1 $348 $508 $350 $454 forward $451 $-1 #
loop $-1 $-1 $508 $563 #
vertex $-1 $562 $564 #
straight-curve $-1 -205.77500000000003 -69.849999999999994 -60.705999999999996 0 0 -1 I I #
edge $-1 $510 0 $353 560 $450 $565 forward 7 unknown #
coedge $-1 $351 $482 $461 $566 reversed $352 $-1 #
face $-1 $419 $352 $2 $-1 $567 reversed single #
point $-1 -205.77500000000003 -69.849999999999994 -60.705999999999996 #
straight-curve $-1 -104.77500000000003 -38.099999999999994 -60.705999999999996 -1 0 0 I I #
coedge $-1 $568 $569 $359 $460 forward $493 $-1 #
edge $-1 $490 0 $464 51.054000000000002 $359 $570 forward 7 unknown #
coedge $-1 $371 $360 $455 $566 forward $463 $-1 #
coedge $-1 $360 $371 $571 $572 reversed $463 $-1 #
loop $-1 $-1 $360 $522 #
vertex $-1 $460 $573 #
straight-curve $-1 -104.77499999999999 -38.099999999999994 -60.705999999999996 0 0 -1 I I #
coedge $-1 $556 $366 $362 $467 forward $474 $-1 #
edge $-1 $368 0 $468 74.999999999999986 $466 $574 forward 7 unknown #
vertex $-1 $467 $575 #
straight-curve $-1 151.89499999999998 -6.3500000000000014 22.097999999999999 0 -1 0 I I #
coedge $-1 $370 $365 $502 $576 reversed $189 $-1 #
coedge $-1 $577 $578 $365 $472 forward $579 $-1 #
edge $-1 $580 0 $475 31.75 $365 $581 forward 7 unknown #
coedge $-1 $366 $556 $577 $582 reversed $474 $-1 #
loop $-1 $-1 $556 $376 #
vertex $-1 $472 $583 #
straight-curve $-1 76.894999999999996 -6.3500000000000014 22.097999999999999 0 0 -1 I I #
point $-1 76.894999999999996 -6.3499999999999943 22.097999999999999 #
coedge $-1 $584 $585 $370 $479 reversed $586 $-1 #
edge $-1 $587 0 $480 51.054000000000002 $370 $588 forward 7 unknown #
vertex $-1 $372 $589 #
straight-curve $-1 76.894999999999996 -38.099999999999994 -60.705999999999996 0 0 -1 I I #
coedge $-1 $455 $439 $373 $483 forward $352 $-1 #
edge $-1 $487 0 $374 74.999999999999986 $482 $590 forward 7 unknown #
point $-1 76.894999999999996 -38.099999999999994 -60.705999999999996 #
face $-1 $298 $579 $2 $-1 $591 reversed single #
plane-surface $-1 76.894999999999996 -6.3499999999999996 28.448 0 1 0 1 0 0 forward_v I I I I #
vertex $-1 $440 $592 #
straight-curve $-1 151.89499999999998 -38.099999999999994 -60.705999999999996 0 0 1 I I #
plane-surface $-1 354.22499999999997 -38.099999999999994 -60.705999999999996 0 1 0 0 0 1 forward_v I I I I #
vertex $-1 $381 $593 #
straight-curve $-1 -104.77499999999999 -38.099999999999994 -149.85999999999999 0 0 -1 I I #
face $-1 $543 $409 $2 $-1 $594 reversed single #
loop $-1 $-1 $569 $383 #
plane-surface $-1 354.22499999999997 -38.099999999999994 -149.85999999999999 0 1 0 0 0 1 forward_v I I I I #
coedge $-1 $569 $568 $385 $496 reversed $493 $-1 #
edge $-1 $498 0 $560 51.054000000000002 $385 $595 forward 7 unknown #
coedge $-1 $386 $503 $569 $596 forward $409 $-1 #
vertex $-1 $496 $597 #
straight-curve $-1 -205.77500000000003 -69.849999999999994 -149.85999999999999 0 1 0 I I #
point $-1 -205.77500000000003 -69.849999999999994 -149.85999999999999 #
straight-curve $-1 354.22500000000002 -69.849999999999994 -187.95999999999998 -1 0 0 I I #
coedge $-1 $598 $392 $470 $576 forward $208 $-1 #
coedge $-1 $497 $599 $392 $504 reversed $409 $-1 #
edge $-1 $490 -5.6843418860808015e-014 $587 181.66999999999996 $392 $600 forward 7 unknown #
coedge $-1 $393 $598 $601 $602 reversed $208 $-1 #
coedge $-1 $599 $407 $393 $507 reversed $409 $-1 #
edge $-1 $603 0 $414 100.73000000000002 $393 $604 forward 7 unknown #
coedge $-1 $450 $449 $398 $509 reversed $451 $-1 #
edge $-1 $510 0 $605 38.099999999999987 $398 $606 forward 7 unknown #
vertex $-1 $509 $607 #
straight-curve $-1 354.22499999999997 -69.849999999999994 -60.705999999999996 0 1 0 I I #
point $-1 354.22499999999997 -38.100000000000001 -60.705999999999996 #
coedge $-1 $559 $541 $404 $514 reversed $546 $-1 #
edge $-1 $605 0 $515 31.749999999999993 $404 $608 forward 7 unknown #
vertex $-1 $406 $609 #
straight-curve $-1 354.22499999999997 -38.099999999999994 -149.85999999999999 0 0 1 I I #
edge $-1 $410 0 $414 101.59999999999997 $407 $610 forward 7 unknown #
point $-1 354.22499999999997 -38.100000000000001 -149.85999999999999 #
straight-curve $-1 354.22499999999997 -69.849999999999994 -149.85999999999999 -1 0 0 I I #
point $-1 252.625 -38.099999999999994 -149.85999999999999 #
straight-curve $-1 354.22499999999997 -38.099999999999994 -60.705999999999996 -1 0 0 I I #
face $-1 $201 $463 $2 $-1 $611 forward single #
plane-surface $-1 354.22499999999997 -38.099999999999994 -60.705999999999996 0 1 0 0 0 1 forward_v I I I I #
coedge $-1 $612 $613 $421 $525 forward $614 $-1 #
edge $-1 $530 0 $529 3.1415926535897927 $421 $615 forward 7 unknown #
coedge $-1 $616 $422 $613 $617 forward $528 $-1 #
coedge $-1 $422 $616 $612 $618 reversed $528 $-1 #
loop $-1 $-1 $527 $619 #
vertex $-1 $525 $620 #
vertex $-1 $525 $621 #
ellipse-curve $-1 252.625 -22.224999999999998 -35.051999999999992 -1 0 0 0 3.5527136788005009e-015 -10.794999999999995 1 I I #
coedge $-1 $622 $424 $427 $538 forward $534 $-1 #
coedge $-1 $424 $622 $426 $537 reversed $534 $-1 #
loop $-1 $-1 $533 $550 #
ellipse-curve $-1 252.625 -22.224999999999998 -124.45999999999998 -1 0 0 0 -9.5923269327613525e-014 10.794999999999987 1 I I #
coedge $-1 $427 $426 $553 $623 reversed $428 $-1 #
edge $-1 $430 0 $624 100.73000000000002 $533 $625 forward 7 unknown #
edge $-1 $429 0 $626 100.73000000000002 $532 $627 forward 7 unknown #
point $-1 252.625 -22.224999999999994 -135.25499999999997 #
point $-1 252.625 -22.225000000000094 -113.66499999999999 #
coedge $-1 $513 $437 $433 $542 reversed $546 $-1 #
edge $-1 $515 0 $338 101.59999999999997 $433 $628 forward 7 unknown #
face $-1 $629 $434 $2 $-1 $630 reversed single #
edge $-1 $487 0 $547 38.099999999999987 $436 $631 forward 7 unknown #
coedge $-1 $437 $571 $585 $632 reversed $546 $-1 #
loop $-1 $-1 $559 $629 #
vertex $-1 $438 $633 #
straight-curve $-1 151.89499999999998 -38.099999999999994 -98.805999999999983 1 0 0 I I #
straight-curve $-1 151.89499999999998 -38.099999999999994 -60.705999999999996 1 0 0 I I #
face $-1 $619 $534 $2 $-1 $634 forward single #
cone-surface $-1 252.625 -22.224999999999998 -124.45999999999998 -1 0 0 0 0 10.795 1 I I 0 1 10.795 forward I I I I #
loop $-1 $344 $635 $340 #
coedge $-1 $636 $636 $536 $623 forward $443 $-1 #
coedge $-1 $601 $445 $637 $638 reversed $344 $-1 #
coedge $-1 $446 $601 $639 $640 reversed $344 $-1 #
coedge $-1 $473 $466 $446 $557 forward $474 $-1 #
edge $-1 $468 0 $641 203.70799999999997 $556 $642 forward 7 unknown #
coedge $-1 $571 $447 $568 $643 reversed $546 $-1 #
coedge $-1 $447 $513 $449 $562 forward $546 $-1 #
vertex $-1 $448 $644 #
straight-curve $-1 -205.77500000000003 -69.849999999999994 -98.805999999999983 0 1 0 I I #
edge $-1 $605 0 $452 560 $449 $645 forward 7 unknown #
face $-1 $646 $451 $2 $-1 $647 forward single #
point $-1 -205.77500000000003 -69.849999999999994 -98.805999999999983 #
straight-curve $-1 354.22499999999997 -69.849999999999994 -60.705999999999996 -1 0 0 I I #
edge $-1 $282 -5.6843418860808015e-014 $374 181.66999999999996 $461 $648 forward 7 unknown #
plane-surface $-1 354.22499999999997 -82.549999999999997 -60.705999999999996 0 0 -1 0 1 0 forward_v I I I I #
coedge $-1 $495 $459 $558 $643 forward $493 $-1 #
coedge $-1 $459 $495 $497 $596 reversed $493 $-1 #
straight-curve $-1 -104.77499999999998 -38.099999999999994 -149.85999999999999 0 0 1 I I #
coedge $-1 $545 $558 $462 $572 forward $546 $-1 #
edge $-1 $464 -1.4210854715202004e-014 $480 181.66999999999996 $462 $649 forward 7 unknown #
point $-1 -104.77499999999999 -38.099999999999994 -98.805999999999983 #
straight-curve $-1 76.894999999999996 -6.3500000000000014 22.097999999999999 1 0 0 I I #
point $-1 151.89499999999998 -6.3499999999999996 22.097999999999999 #
edge $-1 $587 0 $580 31.75 $470 $650 forward 7 unknown #
coedge $-1 $639 $471 $473 $582 forward $579 $-1 #
coedge $-1 $471 $639 $598 $651 forward $579 $-1 #
loop $-1 $-1 $577 $485 #
vertex $-1 $576 $652 #
straight-curve $-1 76.894999999999996 -38.099999999999994 -181.60999999999999 0 1 0 I I #
edge $-1 $475 0 $641 74.999999999999986 $473 $653 forward 7 unknown #
point $-1 76.894999999999996 -6.3499999999999943 -181.60999999999999 #
coedge $-1 $637 $478 $599 $654 reversed $586 $-1 #
coedge $-1 $478 $637 $545 $632 forward $586 $-1 #
loop $-1 $-1 $584 $646 #
vertex $-1 $479 $655 #
straight-curve $-1 76.894999999999982 -38.099999999999994 -149.85999999999999 0 0 1 I I #
point $-1 76.894999999999996 -38.099999999999994 -98.805999999999983 #
straight-curve $-1 151.89499999999998 -38.099999999999994 -60.705999999999996 -1 0 0 I I #
plane-surface $-1 151.89499999999998 -6.3499999999999996 -181.60999999999999 0 0 1 0 -1 0 forward_v I I I I #
point $-1 151.89499999999998 -38.099999999999994 -60.705999999999996 #
point $-1 -104.77500000000003 -38.099999999999994 -149.85999999999999 #
plane-surface $-1 354.22499999999997 -69.849999999999994 -149.85999999999999 0 0 -1 0 1 0 forward_v I I I I #
straight-curve $-1 -205.77500000000003 -38.099999999999994 -149.85999999999999 0 0 1 I I #
edge $-1 $490 0 $498 100.99999999999994 $497 $656 forward 7 unknown #
point $-1 -205.77499999999998 -38.099999999999994 -149.85999999999999 #
coedge $-1 $505 $502 $578 $651 reversed $208 $-1 #
coedge $-1 $503 $506 $584 $654 forward $409 $-1 #
straight-curve $-1 -104.77499999999998 -38.099999999999994 -149.85999999999999 1 0 0 I I #
coedge $-1 $555 $554 $505 $602 forward $344 $-1 #
edge $-1 $603 0 $657 31.750000000000028 $505 $658 forward 7 unknown #
vertex $-1 $507 $659 #
straight-curve $-1 151.89499999999998 -38.099999999999994 -149.85999999999999 1 0 0 I I #
vertex $-1 $514 $660 #
straight-curve $-1 354.22499999999997 -69.849999999999994 -60.705999999999996 0 0 -1 I I #
point $-1 354.22499999999997 -69.849999999999994 -60.705999999999996 #
straight-curve $-1 354.22499999999997 -69.849999999999994 -98.805999999999983 0 1 0 I I #
point $-1 354.22499999999997 -38.100000000000001 -98.805999999999983 #
straight-curve $-1 354.22499999999997 -38.099999999999994 -149.85999999999999 -1 0 0 I I #
plane-surface $-1 -104.77499999999999 -38.099999999999994 28.448 0 1 0 1 0 0 forward_v I I I I #
coedge $-1 $661 $524 $527 $618 forward $614 $-1 #
coedge $-1 $524 $661 $526 $617 reversed $614 $-1 #
loop $-1 $-1 $613 $662 #
ellipse-curve $-1 252.625 -22.224999999999998 -35.051999999999992 -1 0 0 0 3.5527136788005009e-015 10.795000000000002 1 I I #
coedge $-1 $527 $526 $635 $663 reversed $528 $-1 #
edge $-1 $530 0 $664 100.73000000000002 $613 $665 forward 7 unknown #
edge $-1 $529 0 $666 100.73000000000002 $612 $667 forward 7 unknown #
face $-1 $662 $528 $2 $-1 $668 forward single #
point $-1 252.625 -22.224999999999994 -45.846999999999987 #
point $-1 252.625 -22.224999999999994 -24.256999999999991 #
coedge $-1 $533 $532 $636 $669 reversed $534 $-1 #
edge $-1 $626 0 $624 3.1415926535897851 $553 $670 forward 7 unknown #
vertex $-1 $669 $671 #
straight-curve $-1 252.625 -22.224999999999998 -113.66499999999998 -1 0 0 I I #
vertex $-1 $669 $672 #
straight-curve $-1 252.625 -22.224999999999998 -135.25499999999997 -1 0 0 I I #
straight-curve $-1 354.22499999999997 -38.099999999999994 -98.805999999999983 -1 0 0 I I #
face $-1 $563 $546 $2 $-1 $673 reversed single #
plane-surface $-1 354.22499999999997 -38.099999999999994 -149.85999999999999 0 1 0 0 0 1 forward_v I I I I #
straight-curve $-1 151.89499999999998 -38.099999999999994 -60.705999999999996 0 0 -1 I I #
edge $-1 $547 0 $480 74.999999999999986 $585 $674 forward 7 unknown #
point $-1 151.89499999999998 -38.099999999999994 -98.805999999999983 #
cone-surface $-1 252.625 -22.224999999999998 -124.45999999999998 -1 0 0 0 0 10.795 1 I I 0 1 10.795 forward I I I I #
coedge $-1 $675 $675 $616 $663 forward $552 $-1 #
coedge $-1 $553 $553 $622 $669 forward $443 $-1 #
coedge $-1 $585 $584 $554 $638 forward $586 $-1 #
edge $-1 $603 0 $547 51.054000000000002 $554 $676 forward 7 unknown #
coedge $-1 $578 $577 $555 $640 forward $579 $-1 #
edge $-1 $641 0 $657 31.749999999999993 $555 $677 forward 7 unknown #
vertex $-1 $582 $678 #
straight-curve $-1 151.89499999999998 -6.3499999999999996 22.097999999999999 0 0 -1 I I #
edge $-1 $464 -4.2632564145606011e-014 $560 100.99999999999994 $568 $679 forward 7 unknown #
point $-1 -205.77499999999998 -38.099999999999994 -98.805999999999983 #
straight-curve $-1 354.22499999999997 -69.849999999999994 -98.805999999999983 -1 0 0 I I #
face $-1 $276 $586 $2 $-1 $680 reversed single #
plane-surface $-1 354.22499999999997 -69.849999999999994 28.448 0 -1 0 -1 0 0 forward_v I I I I #
straight-curve $-1 -104.77499999999998 -38.099999999999994 -60.705999999999996 1 0 0 I I #
straight-curve $-1 -104.77499999999998 -38.099999999999994 -98.805999999999983 1 0 0 I I #
straight-curve $-1 76.894999999999996 -38.099999999999994 -149.85999999999999 0 0 -1 I I #
edge $-1 $657 0 $580 74.999999999999986 $598 $681 forward 7 unknown #
point $-1 76.894999999999996 -38.099999999999994 -181.60999999999999 #
straight-curve $-1 76.894999999999996 -6.3499999999999996 -181.60999999999999 1 0 0 I I #
edge $-1 $603 0 $587 74.999999999999986 $599 $682 forward 7 unknown #
point $-1 76.894999999999996 -38.099999999999994 -149.85999999999999 #
straight-curve $-1 -104.77500000000003 -38.099999999999994 -149.85999999999999 -1 0 0 I I #
vertex $-1 $602 $683 #
straight-curve $-1 151.89499999999998 -38.099999999999994 -149.85999999999999 0 0 -1 I I #
point $-1 151.89499999999998 -38.099999999999994 -149.85999999999999 #
point $-1 354.22499999999997 -69.849999999999994 -98.805999999999983 #
coedge $-1 $613 $612 $675 $684 reversed $614 $-1 #
face $-1 $379 $614 $2 $-1 $685 forward single #
edge $-1 $666 0 $664 3.1415926535897931 $635 $686 forward 7 unknown #
vertex $-1 $684 $687 #
straight-curve $-1 252.625 -22.224999999999998 -24.256999999999991 -1 0 0 I I #
vertex $-1 $684 $688 #
straight-curve $-1 252.625 -22.224999999999998 -45.846999999999994 -1 0 0 I I #
cone-surface $-1 252.625 -22.224999999999998 -35.051999999999992 -1 0 0 0 0 10.795 1 I I 0 1 10.795 forward I I I I #
edge $-1 $624 0 $626 3.1415926535898033 $636 $689 forward 7 unknown #
ellipse-curve $-1 151.89499999999998 -22.225000000000009 -124.45999999999998 -1 0 0 0 7.1054273576010019e-015 -10.794999999999987 1 I I #
point $-1 151.89499999999998 -22.225000000000101 -113.66499999999999 #
point $-1 151.89499999999998 -22.225000000000001 -135.25499999999997 #
plane-surface $-1 354.22499999999997 -38.099999999999994 -98.805999999999983 0 0 1 0 -1 0 forward_v I I I I #
straight-curve $-1 151.89499999999998 -38.099999999999994 -98.805999999999983 -1 0 0 I I #
coedge $-1 $635 $635 $661 $684 forward $552 $-1 #
straight-curve $-1 151.89499999999998 -38.099999999999994 -149.85999999999999 0 0 1 I I #
straight-curve $-1 151.89499999999998 -6.3499999999999996 -181.60999999999999 0 -1 0 I I #
point $-1 151.89499999999998 -6.3499999999999996 -181.60999999999999 #
straight-curve $-1 -104.77500000000003 -38.099999999999994 -98.805999999999983 -1 0 0 I I #
plane-surface $-1 354.22499999999997 -38.099999999999994 -149.85999999999999 0 1 0 0 0 1 forward_v I I I I #
straight-curve $-1 151.89499999999998 -38.099999999999994 -181.60999999999999 -1 0 0 I I #
straight-curve $-1 151.89499999999998 -38.099999999999994 -149.85999999999999 -1 0 0 I I #
point $-1 151.89499999999998 -38.099999999999994 -181.61000000000001 #
edge $-1 $664 0 $666 3.1415926535897936 $675 $690 forward 7 unknown #
cone-surface $-1 252.625 -22.224999999999998 -35.051999999999992 -1 0 0 0 0 10.795 1 I I 0 1 10.795 forward I I I I #
ellipse-curve $-1 151.89499999999998 -22.225000000000001 -35.051999999999992 -1 0 0 0 0 -10.794999999999995 1 I I #
point $-1 151.89499999999998 -22.225000000000001 -24.256999999999991 #
point $-1 151.89499999999998 -22.225000000000001 -45.846999999999987 #
ellipse-curve $-1 151.89499999999998 -22.224999999999994 -124.45999999999998 -1 0 0 0 -1.0658141036401503e-013 10.794999999999987 1 I I #
ellipse-curve $-1 151.89499999999998 -22.224999999999998 -35.051999999999992 -1 0 0 0 -3.5527136788005009e-015 10.795000000000002 1 I I #
End-of-ACIS-data 