600 0 1 0           
102 GICL Pro/E ACIS Translator - Source: f:/data5/repository/PTC/V18/bboxrev2/boombox/wire_clip_.prt - 6 0 13 ACIS 6.0.3 NT 24 Thu Apr 04 10:05:24 2002 
1 9.9999999999999995e-007 1e-010 
body $-1 $1 $-1 $-1 #
lump $-1 $-1 $2 $0 #
shell $-1 $-1 $-1 $3 $-1 $1 #
face $-1 $4 $5 $2 $-1 $6 reversed single #
face $-1 $7 $8 $2 $-1 $9 forward single #
loop $-1 $-1 $10 $3 #
plane-surface $-1 0 0 0 0 1 0 1 0 0 forward_v I I I I #
face $-1 $11 $12 $2 $-1 $13 forward single #
loop $-1 $-1 $14 $4 #
plane-surface $-1 10 0 0 0 0 -1 -1 0 0 forward_v I I I I #
coedge $-1 $15 $16 $17 $18 reversed $5 $-1 #
face $-1 $19 $20 $2 $-1 $21 forward single #
loop $-1 $-1 $22 $7 #
plane-surface $-1 -10 0 0 -1 0 0 0 0 1 forward_v I I I I #
coedge $-1 $23 $17 $24 $25 forward $8 $-1 #
coedge $-1 $26 $10 $27 $28 reversed $5 $-1 #
coedge $-1 $10 $26 $29 $30 reversed $5 $-1 #
coedge $-1 $14 $31 $10 $18 forward $8 $-1 #
edge $-1 $32 0 $33 20 $10 $34 forward 7 unknown #
face $-1 $35 $36 $2 $-1 $37 forward single #
loop $-1 $-1 $38 $11 #
plane-surface $-1 -10 0 4 0 0 1 1 0 0 forward_v I I I I #
coedge $-1 $39 $29 $40 $41 forward $12 $-1 #
coedge $-1 $31 $14 $42 $43 reversed $8 $-1 #
coedge $-1 $29 $39 $14 $25 reversed $12 $-1 #
edge $-1 $33 0 $44 1.5 $24 $45 forward 7 unknown #
coedge $-1 $16 $15 $46 $47 reversed $5 $-1 #
coedge $-1 $48 $49 $15 $28 forward $36 $-1 #
edge $-1 $50 0 $32 4 $15 $51 forward 7 unknown #
coedge $-1 $22 $24 $16 $30 forward $12 $-1 #
edge $-1 $33 0 $52 4 $16 $53 forward 7 unknown #
coedge $-1 $17 $23 $48 $54 reversed $8 $-1 #
vertex $-1 $28 $55 #
vertex $-1 $30 $56 #
straight-curve $-1 10 0 0 -1 0 0 I I #
face $-1 $57 $58 $2 $-1 $59 forward single #
loop $-1 $-1 $48 $19 #
plane-surface $-1 10 0 4 1 0 0 0 0 -1 forward_v I I I I #
coedge $-1 $60 $46 $49 $61 forward $20 $-1 #
coedge $-1 $24 $22 $62 $63 reversed $12 $-1 #
coedge $-1 $46 $60 $22 $41 reversed $20 $-1 #
edge $-1 $52 0 $64 1.5 $22 $65 forward 7 unknown #
coedge $-1 $62 $66 $23 $43 forward $67 $-1 #
edge $-1 $68 0 $44 20 $42 $69 forward 7 unknown #
vertex $-1 $63 $70 #
straight-curve $-1 -10 0 0 0 1 0 I I #
coedge $-1 $38 $40 $26 $47 forward $20 $-1 #
edge $-1 $52 0 $50 20 $26 $71 forward 7 unknown #
coedge $-1 $72 $27 $31 $54 forward $36 $-1 #
coedge $-1 $27 $72 $38 $61 reversed $36 $-1 #
vertex $-1 $47 $73 #
straight-curve $-1 10 0 4 0 0 -1 I I #
vertex $-1 $30 $74 #
straight-curve $-1 -10 0 0 0 0 1 I I #
edge $-1 $32 0 $68 1.5 $48 $75 forward 7 unknown #
point $-1 10 0 0 #
point $-1 -10 0 0 #
face $-1 $76 $77 $2 $-1 $78 forward single #
loop $-1 $67 $79 $35 #
plane-surface $-1 0 1.5 0 0 1 0 1 0 0 forward_v I I I I #
coedge $-1 $40 $38 $80 $81 reversed $20 $-1 #
edge $-1 $50 0 $82 1.5 $38 $83 forward 7 unknown #
coedge $-1 $80 $42 $39 $63 forward $67 $-1 #
edge $-1 $44 0 $64 4 $62 $84 forward 7 unknown #
vertex $-1 $63 $85 #
straight-curve $-1 -10 0 4 0 1 0 I I #
coedge $-1 $42 $80 $72 $86 forward $67 $-1 #
loop $-1 $87 $80 $35 #
vertex $-1 $43 $88 #
straight-curve $-1 10 1.5 0 -1 0 0 I I #
point $-1 -10 1.5 0 #
straight-curve $-1 -10 0 4 1 0 0 I I #
coedge $-1 $49 $48 $66 $86 reversed $36 $-1 #
point $-1 10 0 4 #
point $-1 -10 0 4 #
straight-curve $-1 10 0 0 0 1 0 I I #
face $-1 $89 $90 $2 $-1 $91 reversed single #
loop $-1 $-1 $92 $57 #
plane-surface $-1 -6 1.5 2.375 0 0 -1 0 1 0 forward_v I I I I #
coedge $-1 $93 $94 $95 $96 forward $58 $-1 #
coedge $-1 $66 $62 $60 $81 forward $67 $-1 #
edge $-1 $64 0 $82 20 $80 $97 forward 7 unknown #
vertex $-1 $86 $98 #
straight-curve $-1 10 0 4 0 1 0 I I #
straight-curve $-1 -10 1.5 0 0 0 1 I I #
point $-1 -10 1.5 4 #
edge $-1 $82 0 $68 4 $66 $99 forward 7 unknown #
loop $-1 $-1 $100 $35 #
point $-1 10 1.5 0 #
face $-1 $101 $102 $2 $-1 $103 forward single #
loop $-1 $-1 $104 $76 #
plane-surface $-1 -6 0 0 1 0 0 0 0 -1 forward_v I I I I #
coedge $-1 $105 $95 $106 $107 forward $77 $-1 #
coedge $-1 $108 $79 $109 $110 reversed $58 $-1 #
coedge $-1 $79 $108 $111 $112 forward $58 $-1 #
coedge $-1 $92 $113 $79 $96 reversed $77 $-1 #
edge $-1 $114 0 $115 1 $79 $116 forward 7 unknown #
straight-curve $-1 -10 1.5 4 1 0 0 I I #
point $-1 10 1.5 4 #
straight-curve $-1 10 1.5 4 0 0 -1 I I #
coedge $-1 $117 $118 $119 $120 forward $87 $-1 #
face $-1 $121 $122 $2 $-1 $123 forward single #
loop $-1 $-1 $124 $89 #
cone-surface $-1 -6 2 3.875 1 0 0 0 0 -0.5 1 I I 0 1 0.5 forward I I I I #
coedge $-1 $125 $111 $126 $127 reversed $90 $-1 #
coedge $-1 $113 $92 $128 $129 forward $77 $-1 #
coedge $-1 $111 $130 $92 $107 reversed $90 $-1 #
edge $-1 $114 0 $131 0.254 $106 $132 forward 7 unknown #
coedge $-1 $94 $93 $133 $134 reversed $58 $-1 #
coedge $-1 $135 $136 $93 $110 forward $122 $-1 #
edge $-1 $137 0 $115 1.5 $93 $138 forward 7 unknown #
coedge $-1 $104 $106 $94 $112 reversed $90 $-1 #
edge $-1 $139 0 $114 1.5 $94 $140 forward 7 unknown #
coedge $-1 $95 $105 $135 $141 reversed $77 $-1 #
vertex $-1 $112 $142 #
vertex $-1 $110 $143 #
straight-curve $-1 -6 1.5 2.375 1 0 0 I I #
coedge $-1 $144 $100 $145 $146 reversed $87 $-1 #
coedge $-1 $100 $144 $147 $148 forward $87 $-1 #
coedge $-1 $149 $150 $100 $120 reversed $151 $-1 #
edge $-1 $152 0 $153 1 $100 $154 forward 7 unknown #
face $-1 $155 $156 $2 $-1 $157 forward single #
loop $-1 $-1 $135 $101 #
plane-surface $-1 -5 0 0 1 0 0 0 0 -1 forward_v I I I I #
coedge $-1 $158 $133 $136 $159 reversed $102 $-1 #
coedge $-1 $160 $104 $161 $162 reversed $90 $-1 #
coedge $-1 $133 $158 $104 $127 forward $102 $-1 #
edge $-1 $163 0 $139 0.61086523819802041 $104 $164 forward 7 unknown #
coedge $-1 $165 $166 $105 $129 reversed $156 $-1 #
edge $-1 $131 0 $167 1 $105 $168 forward 7 unknown #
coedge $-1 $106 $169 $165 $170 reversed $90 $-1 #
vertex $-1 $107 $171 #
straight-curve $-1 -6 1.5 2.375 0 1 0 I I #
coedge $-1 $124 $126 $108 $134 forward $102 $-1 #
edge $-1 $139 0 $137 1 $108 $172 forward 7 unknown #
coedge $-1 $173 $109 $113 $141 forward $122 $-1 #
coedge $-1 $109 $174 $124 $159 forward $122 $-1 #
vertex $-1 $134 $175 #
straight-curve $-1 -5 1.5 3.875 0 0 -1 I I #
vertex $-1 $112 $176 #
straight-curve $-1 -6 1.5 3.875 0 0 -1 I I #
edge $-1 $115 0 $167 0.254 $135 $177 forward 7 unknown #
point $-1 -6 1.5 2.375 #
point $-1 -5 1.5 2.375 #
coedge $-1 $118 $117 $178 $179 reversed $87 $-1 #
coedge $-1 $180 $181 $117 $146 forward $182 $-1 #
edge $-1 $183 0 $153 1.5 $117 $184 forward 7 unknown #
coedge $-1 $185 $186 $118 $148 reversed $187 $-1 #
edge $-1 $188 0 $152 1.5 $118 $189 forward 7 unknown #
coedge $-1 $190 $119 $186 $191 forward $151 $-1 #
coedge $-1 $119 $190 $180 $192 reversed $151 $-1 #
loop $-1 $-1 $149 $193 #
vertex $-1 $148 $194 #
vertex $-1 $146 $195 #
straight-curve $-1 6 1.5 2.375 1 0 0 I I #
face $-1 $196 $197 $2 $-1 $198 reversed single #
loop $-1 $-1 $199 $121 #
plane-surface $-1 -6 1.754 2.375 0 1 0 0 0 1 forward_v I I I I #
coedge $-1 $126 $124 $200 $201 reversed $102 $-1 #
edge $-1 $202 0 $137 0.61086523819802174 $136 $203 forward 7 unknown #
coedge $-1 $204 $125 $205 $206 reversed $90 $-1 #
coedge $-1 $200 $207 $125 $162 forward $208 $-1 #
edge $-1 $209 0 $163 1.499999999999998 $125 $210 forward 7 unknown #
vertex $-1 $162 $211 #
ellipse-curve $-1 -6 2 3.875 1 0 0 0 -0.40957602214449462 0.28678821817552524 1 I I #
coedge $-1 $199 $128 $130 $170 forward $156 $-1 #
coedge $-1 $128 $199 $173 $212 reversed $156 $-1 #
vertex $-1 $212 $213 #
straight-curve $-1 -6 1.754 2.375 1 0 0 I I #
coedge $-1 $130 $204 $214 $215 reversed $90 $-1 #
edge $-1 $131 0 $216 1.5 $130 $217 forward 7 unknown #
point $-1 -6 1.754 2.375 #
straight-curve $-1 -6 1.5 3.875 1 0 0 I I #
coedge $-1 $218 $135 $166 $212 forward $122 $-1 #
coedge $-1 $136 $219 $220 $221 forward $122 $-1 #
point $-1 -5 1.5 3.875 #
point $-1 -6 1.5 3.875 #
straight-curve $-1 -5 1.5 2.375 0 1 0 I I #
coedge $-1 $222 $223 $144 $179 forward $224 $-1 #
edge $-1 $188 0 $183 1 $144 $225 forward 7 unknown #
coedge $-1 $226 $145 $150 $192 forward $182 $-1 #
coedge $-1 $145 $227 $222 $228 forward $182 $-1 #
loop $-1 $-1 $180 $229 #
vertex $-1 $179 $230 #
straight-curve $-1 7 1.5 3.875 0 0 -1 I I #
coedge $-1 $231 $147 $223 $232 reversed $187 $-1 #
coedge $-1 $147 $233 $149 $191 reversed $187 $-1 #
loop $-1 $-1 $185 $234 #
vertex $-1 $148 $235 #
straight-curve $-1 6 1.5 3.875 0 0 -1 I I #
coedge $-1 $150 $149 $236 $237 forward $151 $-1 #
edge $-1 $152 0 $238 0.254 $186 $239 forward 7 unknown #
edge $-1 $153 0 $240 0.254 $180 $241 forward 7 unknown #
face $-1 $234 $151 $2 $-1 $242 forward single #
point $-1 6 1.5 2.375 #
point $-1 7 1.5 2.375 #
face $-1 $243 $244 $2 $-1 $245 forward single #
loop $-1 $-1 $246 $155 #
cone-surface $-1 -6 2 3.875 1 0 0 0 0 -0.246 1 I I 0 1 0.246 forward I I I I #
coedge $-1 $166 $165 $247 $248 forward $156 $-1 #
coedge $-1 $220 $161 $158 $201 forward $208 $-1 #
edge $-1 $163 0 $202 1 $200 $249 forward 7 unknown #
vertex $-1 $159 $250 #
ellipse-curve $-1 -5 1.9999999999999991 3.8750000000000009 1 0 0 0 -0.40957602214449373 0.28678821817552436 1 I I #
coedge $-1 $169 $160 $251 $252 reversed $90 $-1 #
coedge $-1 $253 $254 $160 $206 forward $255 $-1 #
edge $-1 $256 0 $209 0.25400000000000023 $160 $257 forward 7 unknown #
coedge $-1 $161 $220 $253 $258 reversed $208 $-1 #
loop $-1 $-1 $200 $259 #
vertex $-1 $206 $260 #
straight-curve $-1 -6 2.450788632382074 5.3905162846090109 0 -0.57357643635104649 -0.81915204428899147 I I #
point $-1 -6 1.5904239778555054 4.1617882181755252 #
edge $-1 $167 0 $261 1.5 $173 $262 forward 7 unknown #
point $-1 -5 1.754 2.375 #
coedge $-1 $246 $247 $169 $215 forward $197 $-1 #
edge $-1 $216 0 $263 0.61086523819802474 $169 $264 forward 7 unknown #
vertex $-1 $170 $265 #
straight-curve $-1 -6 1.754 2.375 0 0 1 I I #
coedge $-1 $266 $173 $267 $268 forward $122 $-1 #
coedge $-1 $174 $266 $269 $270 forward $122 $-1 #
coedge $-1 $207 $200 $174 $221 reversed $208 $-1 #
edge $-1 $271 0 $202 1.499999999999998 $174 $272 forward 7 unknown #
coedge $-1 $273 $178 $181 $228 reversed $224 $-1 #
coedge $-1 $178 $273 $185 $232 forward $224 $-1 #
loop $-1 $-1 $222 $274 #
straight-curve $-1 6 1.5 3.875 1 0 0 I I #
coedge $-1 $275 $180 $276 $277 forward $182 $-1 #
coedge $-1 $181 $278 $279 $280 forward $182 $-1 #
edge $-1 $281 0 $183 0.61086523819802174 $181 $282 forward 7 unknown #
face $-1 $283 $182 $2 $-1 $284 forward single #
point $-1 7 1.5 3.875 #
coedge $-1 $285 $185 $286 $287 reversed $187 $-1 #
edge $-1 $288 0 $188 0.61086523819802041 $185 $289 forward 7 unknown #
coedge $-1 $186 $290 $291 $292 reversed $187 $-1 #
face $-1 $274 $187 $2 $-1 $293 reversed single #
point $-1 6 1.5 3.875 #
coedge $-1 $291 $276 $190 $237 reversed $294 $-1 #
edge $-1 $238 0 $240 1 $190 $295 forward 7 unknown #
vertex $-1 $191 $296 #
straight-curve $-1 6 1.5 2.375 0 1 0 I I #
vertex $-1 $277 $297 #
straight-curve $-1 7 1.5 2.375 0 1 0 I I #
plane-surface $-1 6 1.5 2.375 0 0 -1 0 1 0 forward_v I I I I #
face $-1 $259 $255 $2 $-1 $298 forward single #
loop $-1 $-1 $299 $196 #
plane-surface $-1 -6 1.798488597104908 4.0160998033423576 0 0.81915204428899147 -0.5735764363510466 0 0.5735764363510466 0.81915204428899147 forward_v I I I I #
coedge $-1 $267 $214 $300 $301 forward $197 $-1 #
coedge $-1 $214 $267 $199 $248 reversed $197 $-1 #
edge $-1 $216 0 $261 1 $199 $302 forward 7 unknown #
straight-curve $-1 -6 1.5904239778555043 4.1617882181755235 1 0 0 I I #
point $-1 -5 1.5904239778555054 4.1617882181755252 #
coedge $-1 $299 $300 $204 $252 forward $244 $-1 #
edge $-1 $263 0 $256 1.4999999999999984 $204 $303 forward 7 unknown #
coedge $-1 $269 $205 $207 $258 forward $255 $-1 #
coedge $-1 $205 $269 $299 $304 reversed $255 $-1 #
loop $-1 $-1 $253 $243 #
vertex $-1 $252 $305 #
straight-curve $-1 -6 2.658853251631478 5.244827869775845 0 -0.81915204428899158 0.57357643635104627 I I #
edge $-1 $209 0 $271 1 $207 $306 forward 7 unknown #
face $-1 $193 $208 $2 $-1 $307 forward single #
point $-1 -6 2.450788632382074 5.3905162846090109 #
vertex $-1 $268 $308 #
straight-curve $-1 -5 1.754 2.375 0 0 1 I I #
vertex $-1 $215 $309 #
ellipse-curve $-1 -6 2 3.875 -1 0 0 0 -0.246 0 1 I I #
point $-1 -6 1.754 3.875 #
coedge $-1 $219 $218 $310 $311 forward $122 $-1 #
coedge $-1 $247 $246 $218 $268 reversed $197 $-1 #
edge $-1 $261 0 $312 0.61086523819801075 $218 $313 forward 7 unknown #
coedge $-1 $254 $253 $219 $270 reversed $255 $-1 #
edge $-1 $314 0 $271 0.25400000000000023 $219 $315 forward 7 unknown #
vertex $-1 $221 $316 #
straight-curve $-1 -5 2.450788632382074 5.3905162846090109 0 -0.57357643635104649 -0.81915204428899147 I I #
coedge $-1 $223 $222 $317 $318 reversed $224 $-1 #
face $-1 $229 $224 $2 $-1 $319 forward single #
coedge $-1 $320 $226 $321 $322 forward $182 $-1 #
coedge $-1 $236 $323 $226 $277 reversed $294 $-1 #
edge $-1 $240 0 $324 1.5 $226 $325 forward 7 unknown #
coedge $-1 $227 $320 $326 $327 forward $182 $-1 #
coedge $-1 $328 $317 $227 $280 reversed $329 $-1 #
edge $-1 $330 0 $281 1.499999999999998 $227 $331 forward 7 unknown #
vertex $-1 $228 $332 #
ellipse-curve $-1 7 1.9999999999999991 3.8750000000000009 1 0 0 0 -0.40957602214449373 0.28678821817552436 1 I I #
face $-1 $333 $294 $2 $-1 $334 forward single #
plane-surface $-1 7 0 0 1 0 0 0 0 -1 forward_v I I I I #
coedge $-1 $335 $231 $336 $337 reversed $187 $-1 #
coedge $-1 $317 $328 $231 $287 forward $329 $-1 #
edge $-1 $338 0 $288 1.499999999999998 $231 $339 forward 7 unknown #
vertex $-1 $287 $340 #
ellipse-curve $-1 6 2 3.875 1 0 0 0 -0.40957602214449462 0.28678821817552524 1 I I #
coedge $-1 $233 $335 $341 $342 reversed $187 $-1 #
coedge $-1 $323 $236 $233 $292 forward $294 $-1 #
edge $-1 $238 0 $343 1.5 $233 $344 forward 7 unknown #
plane-surface $-1 6 0 0 1 0 0 0 0 -1 forward_v I I I I #
loop $-1 $-1 $323 $283 #
straight-curve $-1 6 1.754 2.375 1 0 0 I I #
point $-1 6 1.754 2.375 #
point $-1 7 1.754 2.375 #
plane-surface $-1 -6 2.658853251631478 5.244827869775845 0 0.57357643635104638 0.81915204428899169 0 -0.81915204428899158 0.57357643635104627 forward_v I I I I #
coedge $-1 $310 $251 $254 $304 forward $244 $-1 #
coedge $-1 $251 $310 $246 $301 reversed $244 $-1 #
edge $-1 $263 -1.9721522630525295e-031 $312 1 $246 $345 forward 7 unknown #
straight-curve $-1 -6 1.754 3.875 1 0 0 I I #
straight-curve $-1 -6 1.7984885971049092 4.0160998033423594 0 0.57357643635104671 0.81915204428899147 I I #
edge $-1 $256 0 $314 1 $299 $346 forward 7 unknown #
point $-1 -6 2.658853251631478 5.244827869775845 #
straight-curve $-1 -6 2.450788632382074 5.3905162846090109 1 0 0 I I #
plane-surface $-1 -6 2.450788632382074 5.3905162846090109 0 -0.81915204428899158 0.57357643635104649 0 -0.57357643635104638 -0.81915204428899147 forward_v I I I I #
point $-1 -5 1.754 3.875 #
point $-1 -6 1.7984885971049092 4.0160998033423594 #
coedge $-1 $300 $299 $266 $311 reversed $244 $-1 #
edge $-1 $312 -2.0919041024008248e-015 $314 1.4999999999999984 $266 $347 forward 7 unknown #
vertex $-1 $311 $348 #
ellipse-curve $-1 -5 2.0000000000000022 3.8749999999999996 -1 0 0 0 -0.24600000000000222 4.4408920985006262e-016 1 I I #
vertex $-1 $270 $349 #
straight-curve $-1 -5 2.658853251631478 5.244827869775845 0 -0.81915204428899158 0.57357643635104627 I I #
point $-1 -5 2.450788632382074 5.3905162846090109 #
coedge $-1 $279 $286 $273 $318 forward $329 $-1 #
edge $-1 $288 0 $281 1 $317 $350 forward 7 unknown #
cone-surface $-1 6 2 3.875 1 0 0 0 0 -0.5 1 I I 0 1 0.5 forward I I I I #
coedge $-1 $278 $275 $351 $352 forward $182 $-1 #
coedge $-1 $353 $354 $275 $322 reversed $355 $-1 #
edge $-1 $324 0 $356 0.61086523819801075 $275 $357 forward 7 unknown #
coedge $-1 $276 $291 $353 $358 forward $294 $-1 #
vertex $-1 $322 $359 #
straight-curve $-1 7 1.754 2.375 0 0 1 I I #
coedge $-1 $360 $361 $278 $327 reversed $362 $-1 #
edge $-1 $363 0 $330 0.25400000000000023 $278 $364 forward 7 unknown #
coedge $-1 $286 $279 $361 $365 reversed $329 $-1 #
loop $-1 $-1 $317 $366 #
vertex $-1 $280 $367 #
straight-curve $-1 7 2.450788632382074 5.3905162846090109 0 -0.57357643635104649 -0.81915204428899147 I I #
point $-1 7 1.5904239778555054 4.1617882181755252 #
face $-1 $368 $355 $2 $-1 $369 reversed single #
plane-surface $-1 6 1.754 2.375 0 1 0 0 0 1 forward_v I I I I #
coedge $-1 $290 $285 $370 $371 reversed $187 $-1 #
coedge $-1 $361 $360 $285 $337 forward $362 $-1 #
edge $-1 $372 0 $338 0.25400000000000023 $285 $373 forward 7 unknown #
vertex $-1 $337 $374 #
straight-curve $-1 6 2.450788632382074 5.3905162846090109 0 -0.57357643635104649 -0.81915204428899147 I I #
point $-1 6 1.5904239778555054 4.1617882181755252 #
coedge $-1 $354 $353 $290 $342 forward $355 $-1 #
edge $-1 $343 0 $375 0.61086523819802474 $290 $376 forward 7 unknown #
vertex $-1 $292 $377 #
straight-curve $-1 6 1.754 2.375 0 0 1 I I #
straight-curve $-1 -6 1.7984885971049083 4.0160998033423576 1 -2.2204460492503131e-016 0 I I #
straight-curve $-1 -6 2.658853251631478 5.244827869775845 1 0 0 I I #
straight-curve $-1 -5 1.7984885971049092 4.0160998033423594 0 0.57357643635104671 0.81915204428899147 I I #
point $-1 -5 1.798488597104908 4.0160998033423576 #
point $-1 -5 2.658853251631478 5.244827869775845 #
straight-curve $-1 6 1.5904239778555043 4.1617882181755235 1 0 0 I I #
coedge $-1 $378 $379 $320 $352 reversed $380 $-1 #
edge $-1 $356 -2.0919041024008248e-015 $363 1.4999999999999984 $320 $381 forward 7 unknown #
coedge $-1 $341 $321 $323 $358 reversed $355 $-1 #
coedge $-1 $321 $341 $378 $382 forward $355 $-1 #
loop $-1 $-1 $354 $333 #
vertex $-1 $352 $383 #
ellipse-curve $-1 7 2.0000000000000022 3.8749999999999996 -1 0 0 0 -0.24600000000000222 4.4408920985006262e-016 1 I I #
edge $-1 $343 0 $324 1 $323 $384 forward 7 unknown #
point $-1 7 1.754 3.875 #
coedge $-1 $336 $326 $379 $385 reversed $362 $-1 #
coedge $-1 $326 $336 $328 $365 forward $362 $-1 #
loop $-1 $-1 $361 $386 #
vertex $-1 $327 $387 #
straight-curve $-1 7 2.658853251631478 5.244827869775845 0 -0.81915204428899158 0.57357643635104627 I I #
edge $-1 $338 0 $330 1 $328 $388 forward 7 unknown #
face $-1 $-1 $329 $2 $-1 $389 forward single #
point $-1 7 2.450788632382074 5.3905162846090109 #
face $-1 $386 $380 $2 $-1 $390 forward single #
cone-surface $-1 6 2 3.875 1 0 0 0 0 -0.246 1 I I 0 1 0.246 forward I I I I #
coedge $-1 $379 $378 $335 $371 forward $380 $-1 #
edge $-1 $375 0 $372 1.4999999999999984 $335 $391 forward 7 unknown #
vertex $-1 $371 $392 #
straight-curve $-1 6 2.658853251631478 5.244827869775845 0 -0.81915204428899158 0.57357643635104627 I I #
point $-1 6 2.450788632382074 5.3905162846090109 #
vertex $-1 $342 $393 #
ellipse-curve $-1 6 2 3.875 -1 0 0 0 -0.246 0 1 I I #
point $-1 6 1.754 3.875 #
coedge $-1 $370 $351 $354 $382 reversed $380 $-1 #
coedge $-1 $351 $370 $360 $385 forward $380 $-1 #
loop $-1 $-1 $379 $368 #
straight-curve $-1 7 1.7984885971049092 4.0160998033423594 0 0.57357643635104671 0.81915204428899147 I I #
edge $-1 $375 -1.9721522630525295e-031 $356 1 $354 $394 forward 7 unknown #
point $-1 7 1.798488597104908 4.0160998033423576 #
straight-curve $-1 6 1.754 3.875 1 0 0 I I #
edge $-1 $372 0 $363 1 $379 $395 forward 7 unknown #
face $-1 $366 $362 $2 $-1 $396 forward single #
point $-1 7 2.658853251631478 5.244827869775845 #
straight-curve $-1 6 2.450788632382074 5.3905162846090109 1 0 0 I I #
plane-surface $-1 6 2.450788632382074 5.3905162846090109 0 -0.81915204428899158 0.57357643635104649 0 -0.57357643635104638 -0.81915204428899147 forward_v I I I I #
plane-surface $-1 6 1.798488597104908 4.0160998033423576 0 0.81915204428899147 -0.5735764363510466 0 0.5735764363510466 0.81915204428899147 forward_v I I I I #
straight-curve $-1 6 1.7984885971049092 4.0160998033423594 0 0.57357643635104671 0.81915204428899147 I I #
point $-1 6 2.658853251631478 5.244827869775845 #
point $-1 6 1.7984885971049092 4.0160998033423594 #
straight-curve $-1 6 1.7984885971049083 4.0160998033423576 1 -2.2204460492503131e-016 0 I I #
straight-curve $-1 6 2.658853251631478 5.244827869775845 1 0 0 I I #
plane-surface $-1 6 2.658853251631478 5.244827869775845 0 0.57357643635104638 0.81915204428899169 0 -0.81915204428899158 0.57357643635104627 forward_v I I I I #
End-of-ACIS-data 