600 0 1 0           
90 GICL ACIS Healer - Source: /gicl/data5/repository/ICEM-CDC/demos/BLANK_4/BLANK_4.sat - 6 0 18 ACIS 6.0.3 Solaris 24 Sat Apr 13 23:08:57 2002 
1 9.999999999999999547e-07 1.000000000000000036e-10 
body $-1 $1 $-1 $2 #
lump $-1 $-1 $3 $0 #
transform $-1 1 0 0 0 1 0 0 0 1 0 0 0 1 no_rotate no_reflect no_shear #
shell $-1 $-1 $-1 $4 $-1 $1 #
face $5 $6 $7 $3 $-1 $8 forward single #
face_name-twe-attrib $-1 $-1 $-1 $4 1 #
face $9 $10 $11 $3 $-1 $12 reversed single #
loop $13 $-1 $14 $4 #
plane-surface $15 85 60 70 0 0 1 1 0 0 forward_v I I I I #
face_name-twe-attrib $-1 $-1 $-1 $6 2 #
face $16 $17 $18 $3 $-1 $19 reversed single #
loop $20 $-1 $21 $6 #
plane-surface $22 85 60 7.105427357601000281e-15 0 0 1 1 0 0 forward_v I I I I #
loop_type-twe-attrib $-1 $-1 $-1 $7 0 #
coedge $-1 $23 $24 $25 $26 forward $7 $-1 #
surf-twe-attrib $-1 $-1 $-1 $8 4 #
face_name-twe-attrib $-1 $-1 $-1 $10 3 #
face $27 $28 $29 $3 $-1 $30 reversed single #
loop $31 $-1 $32 $10 #
plane-surface $33 85 0 35 0 1 0 0 0 1 forward_v I I I I #
loop_type-twe-attrib $-1 $-1 $-1 $11 0 #
coedge $-1 $34 $35 $36 $37 forward $11 $-1 #
surf-twe-attrib $-1 $-1 $-1 $12 6 #
coedge $-1 $38 $14 $39 $40 forward $7 $-1 #
coedge $-1 $14 $38 $41 $42 forward $7 $-1 #
coedge $-1 $43 $44 $14 $26 reversed $45 $-1 #
edge $46 $47 -60 $48 60 $25 $49 forward 7 unknown #
face_name-twe-attrib $-1 $-1 $-1 $17 4 #
face $50 $51 $52 $3 $-1 $53 reversed single #
loop $54 $-1 $55 $17 #
plane-surface $56 1.421085471520200056e-14 60 35 1 0 0 0 0 -1 forward_v I I I I #
loop_type-twe-attrib $-1 $-1 $-1 $18 0 #
coedge $-1 $57 $41 $58 $59 forward $18 $-1 #
surf-twe-attrib $-1 $-1 $-1 $19 10 #
coedge $-1 $60 $21 $57 $61 forward $11 $-1 #
coedge $-1 $21 $60 $62 $63 forward $11 $-1 #
coedge $-1 $44 $43 $21 $37 reversed $45 $-1 #
edge $64 $65 -60 $66 60 $36 $67 forward 7 unknown #
coedge $-1 $24 $23 $68 $69 forward $7 $-1 #
coedge $-1 $70 $71 $23 $40 reversed $52 $-1 #
edge $72 $48 -85 $73 84.99999999999998579 $39 $74 forward 7 unknown #
coedge $-1 $32 $75 $24 $42 reversed $18 $-1 #
edge $76 $77 -84.99999999999998579 $47 85 $41 $78 forward 7 unknown #
coedge $-1 $36 $25 $75 $79 forward $45 $-1 #
coedge $-1 $25 $36 $70 $80 reversed $45 $-1 #
loop $81 $-1 $43 $51 #
edge_name-twe-attrib $-1 $-1 $-1 $26 12 8704 #
vertex $-1 $26 $82 #
vertex $-1 $26 $83 #
straight-curve $84 170 60 70 0 1 0 I I #
face_name-twe-attrib $-1 $-1 $-1 $28 5 #
face $85 $-1 $45 $3 $-1 $86 reversed single #
loop $87 $-1 $70 $28 #
plane-surface $88 85 120 35 0 -1 0 0 0 -1 forward_v I I I I #
loop_type-twe-attrib $-1 $-1 $-1 $29 0 #
coedge $-1 $89 $68 $71 $90 forward $29 $-1 #
surf-twe-attrib $-1 $-1 $-1 $30 17 #
coedge $-1 $75 $32 $34 $61 reversed $18 $-1 #
coedge $-1 $68 $89 $32 $59 reversed $29 $-1 #
edge $91 $77 -35 $92 34.99999999999999289 $58 $93 forward 7 unknown #
coedge $-1 $35 $34 $89 $94 forward $11 $-1 #
edge $95 $66 -85 $92 84.99999999999998579 $57 $96 forward 7 unknown #
coedge $-1 $71 $70 $35 $63 reversed $52 $-1 #
edge $97 $98 -84.99999999999998579 $65 85 $62 $99 forward 7 unknown #
edge_name-twe-attrib $-1 $-1 $-1 $37 10 8704 #
vertex $-1 $37 $100 #
vertex $-1 $79 $101 #
straight-curve $102 170 60 7.105427357601000281e-15 0 -1 0 I I #
coedge $-1 $55 $58 $38 $69 reversed $29 $-1 #
edge $103 $73 -60 $77 60 $68 $104 forward 7 unknown #
coedge $-1 $62 $39 $44 $80 forward $52 $-1 #
coedge $-1 $39 $62 $55 $90 reversed $52 $-1 #
edge_name-twe-attrib $-1 $-1 $-1 $40 8 8704 #
vertex $-1 $40 $105 #
straight-curve $106 85 120 70 -1 0 0 I I #
coedge $-1 $41 $57 $43 $79 reversed $18 $-1 #
edge_name-twe-attrib $-1 $-1 $-1 $42 2 8704 #
vertex $-1 $69 $107 #
straight-curve $108 85 0 70 1 0 0 I I #
edge $109 $47 -35 $66 34.99999999999999289 $43 $110 forward 7 unknown #
edge $111 $48 -35 $65 34.99999999999999289 $44 $112 forward 7 unknown #
loop_type-twe-attrib $-1 $-1 $-1 $45 0 #
point $-1 170 0 70 #
point $-1 170 120 70 #
cur-twe-attrib $-1 $-1 $-1 $49 26 #
face_name-twe-attrib $-1 $-1 $-1 $51 6 #
plane-surface $113 170 60 35 -1 0 0 0 0 1 forward_v I I I I #
loop_type-twe-attrib $-1 $-1 $-1 $52 0 #
surf-twe-attrib $-1 $-1 $-1 $53 28 #
coedge $-1 $58 $55 $60 $94 reversed $29 $-1 #
edge $114 $73 -35 $98 34.99999999999999289 $71 $115 forward 7 unknown #
edge_name-twe-attrib $-1 $-1 $-1 $59 4 8704 #
vertex $-1 $94 $116 #
straight-curve $117 1.421085471520200056e-14 0 35 0 0 -1 I I #
edge $118 $92 -60 $98 60 $89 $119 forward 7 unknown #
edge_name-twe-attrib $-1 $-1 $-1 $61 1 8704 #
straight-curve $120 85 0 7.105427357601000281e-15 -1 0 0 I I #
edge_name-twe-attrib $-1 $-1 $-1 $63 6 8704 #
vertex $-1 $63 $121 #
straight-curve $122 85 120 7.105427357601000281e-15 1 0 0 I I #
point $-1 170 120 7.105427357601000281e-15 #
point $-1 170 0 7.105427357601000281e-15 #
cur-twe-attrib $-1 $-1 $-1 $67 37 #
edge_name-twe-attrib $-1 $-1 $-1 $69 5 8704 #
straight-curve $123 1.421085471520200056e-14 60 70 0 -1 0 I I #
point $-1 1.421085471520200056e-14 120 70 #
cur-twe-attrib $-1 $-1 $-1 $74 40 #
point $-1 1.421085471520200056e-14 0 70 #
cur-twe-attrib $-1 $-1 $-1 $78 42 #
edge_name-twe-attrib $-1 $-1 $-1 $79 9 8704 #
straight-curve $124 170 0 35 0 0 -1 I I #
edge_name-twe-attrib $-1 $-1 $-1 $80 11 8704 #
straight-curve $125 170 120 35 0 0 -1 I I #
surf-twe-attrib $-1 $-1 $-1 $86 51 #
edge_name-twe-attrib $-1 $-1 $-1 $90 7 8704 #
straight-curve $126 1.421085471520200056e-14 120 35 0 0 -1 I I #
point $-1 1.421085471520200056e-14 0 7.105427357601000281e-15 #
cur-twe-attrib $-1 $-1 $-1 $93 59 #
edge_name-twe-attrib $-1 $-1 $-1 $94 3 8704 #
straight-curve $127 1.421085471520200056e-14 60 7.105427357601000281e-15 0 1 0 I I #
cur-twe-attrib $-1 $-1 $-1 $96 61 #
point $-1 1.421085471520200056e-14 120 7.105427357601000281e-15 #
cur-twe-attrib $-1 $-1 $-1 $99 63 #
cur-twe-attrib $-1 $-1 $-1 $104 69 #
cur-twe-attrib $-1 $-1 $-1 $110 79 #
cur-twe-attrib $-1 $-1 $-1 $112 80 #
cur-twe-attrib $-1 $-1 $-1 $115 90 #
cur-twe-attrib $-1 $-1 $-1 $119 94 #
End-of-ACIS-data 