600 0 2 0           
24 FBMach with ACIS - 6.0.3 13 ACIS 6.0.3 NT 24 Thu May 24 09:30:15 2001 
1 9.9999999999999995e-007 1e-010 
body $2 $3 $-1 $4 #
bdycol-kcp $-1 1 1 $5 #
model_id-kcp-attrib $-1 $-1 $-1 $0 1 990711015 50 254935041 1 #
lump $-1 $-1 $6 $0 #
transform $-1 1 0 0 0 1 0 0 0 1 0 0 0 1 no_rotate no_reflect no_shear #
body $7 $8 $-1 $9 #
shell $-1 $-1 $-1 $10 $-1 $3 #
model_id-kcp-attrib $-1 $-1 $-1 $5 1 990711015 50 254935042 1 #
lump $-1 $-1 $11 $5 #
transform $-1 1 0 0 0 1 0 0 0 1 85 60 35 1 no_rotate no_reflect no_shear #
face $12 $13 $14 $6 $-1 $15 forward single #
shell $-1 $-1 $-1 $16 $-1 $8 #
model_id-kcp-attrib $-1 $17 $-1 $10 1 990711015 50 254935041 2 #
face $18 $19 $20 $6 $-1 $21 reversed single #
loop $22 $-1 $23 $10 #
plane-surface $24 85 60 70 0 0 1 1 0 0 forward_v I I I I #
face $25 $26 $27 $11 $-1 $28 forward single #
face_name-twe-attrib $-1 $-1 $12 $10 1 #
model_id-kcp-attrib $-1 $29 $-1 $13 1 990711015 50 254935041 3 #
face $30 $31 $32 $6 $-1 $33 reversed single #
loop $34 $-1 $35 $13 #
plane-surface $36 85 60 7.1054273576010003e-015 0 0 1 1 0 0 forward_v I I I I #
loop_type-twe-attrib $-1 $-1 $-1 $14 0 #
coedge $-1 $37 $38 $39 $40 forward $14 $-1 #
surf-twe-attrib $-1 $-1 $-1 $15 4 #
model_id-kcp-attrib $-1 $-1 $-1 $16 1 990711015 50 254935042 2 #
face $41 $42 $43 $11 $-1 $44 reversed single #
loop $-1 $-1 $45 $16 #
plane-surface $-1 0 0 35 0 0 1 1 0 0 forward_v I I I I #
face_name-twe-attrib $-1 $-1 $18 $13 2 #
model_id-kcp-attrib $-1 $46 $-1 $19 1 990711015 50 254935041 4 #
face $47 $48 $49 $6 $-1 $50 reversed single #
loop $51 $-1 $52 $19 #
plane-surface $53 85 0 35 0 1 0 0 0 1 forward_v I I I I #
loop_type-twe-attrib $-1 $-1 $-1 $20 0 #
coedge $-1 $54 $55 $56 $57 forward $20 $-1 #
surf-twe-attrib $-1 $-1 $-1 $21 6 #
coedge $-1 $58 $23 $59 $60 forward $14 $-1 #
coedge $-1 $23 $58 $61 $62 forward $14 $-1 #
coedge $-1 $63 $64 $23 $40 reversed $65 $-1 #
edge $66 $67 -60 $68 60 $39 $69 forward 7 unknown #
model_id-kcp-attrib $-1 $-1 $-1 $26 1 990711015 50 254935042 3 #
face $70 $71 $72 $11 $-1 $73 reversed single #
loop $-1 $-1 $74 $26 #
plane-surface $-1 0 0 -35 0 0 1 1 0 0 forward_v I I I I #
coedge $-1 $75 $76 $77 $78 forward $27 $-1 #
face_name-twe-attrib $-1 $-1 $30 $19 3 #
model_id-kcp-attrib $-1 $79 $-1 $31 1 990711015 50 254935041 5 #
face $80 $81 $82 $6 $-1 $83 reversed single #
loop $84 $-1 $85 $31 #
plane-surface $86 1.4210854715202001e-014 60 35 1 0 0 0 0 -1 forward_v I I I I #
loop_type-twe-attrib $-1 $-1 $-1 $32 0 #
coedge $-1 $87 $61 $88 $89 forward $32 $-1 #
surf-twe-attrib $-1 $-1 $-1 $33 10 #
coedge $-1 $90 $35 $87 $91 forward $20 $-1 #
coedge $-1 $35 $90 $92 $93 forward $20 $-1 #
coedge $-1 $64 $63 $35 $57 reversed $65 $-1 #
edge $94 $95 -60 $96 60 $56 $97 forward 7 unknown #
coedge $-1 $38 $37 $98 $99 forward $14 $-1 #
coedge $-1 $100 $101 $37 $60 reversed $82 $-1 #
edge $102 $68 -85 $103 84.999999999999986 $59 $104 forward 7 unknown #
coedge $-1 $52 $105 $38 $62 reversed $32 $-1 #
edge $106 $107 -84.999999999999986 $67 85 $61 $108 forward 7 unknown #
coedge $-1 $56 $39 $105 $109 forward $65 $-1 #
coedge $-1 $39 $56 $100 $110 reversed $65 $-1 #
loop $111 $-1 $63 $81 #
attrib_edge_convexity-kcp-attrib $-1 $112 $-1 $40 1 #
vertex $-1 $40 $113 #
vertex $-1 $40 $114 #
straight-curve $115 170 60 70 0 1 0 I I #
model_id-kcp-attrib $-1 $-1 $-1 $42 1 990711015 50 254935042 4 #
face $116 $117 $118 $11 $-1 $119 reversed single #
loop $-1 $-1 $120 $42 #
plane-surface $-1 0 -60 0 0 1 0 0 0 1 forward_v I I I I #
coedge $-1 $121 $122 $123 $124 forward $43 $-1 #
coedge $-1 $125 $45 $126 $127 forward $27 $-1 #
coedge $-1 $45 $125 $128 $129 forward $27 $-1 #
coedge $-1 $130 $131 $45 $78 reversed $132 $-1 #
edge $-1 $133 -60 $134 60 $77 $135 forward 7 unknown #
face_name-twe-attrib $-1 $-1 $47 $31 4 #
model_id-kcp-attrib $-1 $136 $-1 $48 1 990711015 50 254935041 6 #
face $137 $-1 $65 $6 $-1 $138 reversed single #
loop $139 $-1 $100 $48 #
plane-surface $140 85 120 35 0 -1 0 0 0 -1 forward_v I I I I #
loop_type-twe-attrib $-1 $-1 $-1 $49 0 #
coedge $-1 $141 $98 $101 $142 forward $49 $-1 #
surf-twe-attrib $-1 $-1 $-1 $50 17 #
coedge $-1 $105 $52 $54 $91 reversed $32 $-1 #
coedge $-1 $98 $141 $52 $89 reversed $49 $-1 #
edge $143 $107 -35 $144 34.999999999999993 $88 $145 forward 7 unknown #
coedge $-1 $55 $54 $141 $146 forward $20 $-1 #
edge $147 $96 -85 $144 84.999999999999986 $87 $148 forward 7 unknown #
coedge $-1 $101 $100 $55 $93 reversed $82 $-1 #
edge $149 $150 -84.999999999999986 $95 85 $92 $151 forward 7 unknown #
edge_name-twe-attrib $-1 $-1 $-1 $57 10 8704 #
vertex $-1 $57 $152 #
vertex $-1 $109 $153 #
straight-curve $154 170 60 7.1054273576010003e-015 0 -1 0 I I #
coedge $-1 $85 $88 $58 $99 reversed $49 $-1 #
edge $155 $103 -60 $107 60 $98 $156 forward 7 unknown #
coedge $-1 $92 $59 $64 $110 forward $82 $-1 #
coedge $-1 $59 $92 $85 $142 reversed $82 $-1 #
attrib_edge_convexity-kcp-attrib $-1 $157 $-1 $60 1 #
vertex $-1 $60 $158 #
straight-curve $159 85 120 70 -1 0 0 I I #
coedge $-1 $61 $87 $63 $109 reversed $32 $-1 #
attrib_edge_convexity-kcp-attrib $-1 $160 $-1 $62 1 #
vertex $-1 $99 $161 #
straight-curve $162 85 0 70 1 0 0 I I #
edge $163 $67 -35 $96 34.999999999999993 $63 $164 forward 7 unknown #
edge $165 $68 -35 $95 34.999999999999993 $64 $166 forward 7 unknown #
loop_type-twe-attrib $-1 $-1 $-1 $65 0 #
convexity-sys-attrib $-1 $167 $66 $40 #
point $-1 170 0 70 #
point $-1 170 120 70 #
cur-twe-attrib $-1 $-1 $-1 $69 26 #
model_id-kcp-attrib $-1 $-1 $-1 $71 1 990711015 50 254935042 5 #
face $168 $169 $170 $11 $-1 $171 reversed single #
loop $-1 $-1 $172 $71 #
plane-surface $-1 -85 0 0 1 0 0 0 0 -1 forward_v I I I I #
coedge $-1 $173 $128 $174 $175 forward $72 $-1 #
coedge $-1 $176 $74 $173 $177 forward $43 $-1 #
coedge $-1 $74 $176 $178 $179 forward $43 $-1 #
coedge $-1 $131 $130 $74 $124 reversed $132 $-1 #
edge $-1 $180 -60 $181 60 $123 $182 forward 7 unknown #
coedge $-1 $76 $75 $183 $184 forward $27 $-1 #
coedge $-1 $185 $186 $75 $127 reversed $170 $-1 #
edge $-1 $134 -85 $187 85 $126 $188 forward 7 unknown #
coedge $-1 $120 $189 $76 $129 reversed $72 $-1 #
edge $-1 $190 -85 $133 85 $128 $191 forward 7 unknown #
coedge $-1 $123 $77 $189 $192 forward $132 $-1 #
coedge $-1 $77 $123 $185 $193 reversed $132 $-1 #
loop $-1 $-1 $130 $169 #
vertex $-1 $78 $194 #
vertex $-1 $78 $195 #
straight-curve $-1 85 0 35 0 1 0 I I #
face_name-twe-attrib $-1 $-1 $80 $48 5 #
model_id-kcp-attrib $-1 $196 $-1 $81 1 990711015 50 254935041 7 #
plane-surface $197 170 60 35 -1 0 0 0 0 1 forward_v I I I I #
loop_type-twe-attrib $-1 $-1 $-1 $82 0 #
surf-twe-attrib $-1 $-1 $-1 $83 28 #
coedge $-1 $88 $85 $90 $146 reversed $49 $-1 #
edge $198 $103 -35 $150 34.999999999999993 $101 $199 forward 7 unknown #
attrib_edge_convexity-kcp-attrib $-1 $200 $-1 $89 1 #
vertex $-1 $146 $201 #
straight-curve $202 1.4210854715202001e-014 0 35 0 0 -1 I I #
edge $203 $144 -60 $150 60 $141 $204 forward 7 unknown #
attrib_edge_convexity-kcp-attrib $-1 $205 $-1 $91 1 #
straight-curve $206 85 0 7.1054273576010003e-015 -1 0 0 I I #
edge_name-twe-attrib $-1 $-1 $-1 $93 6 8704 #
vertex $-1 $93 $207 #
straight-curve $208 85 120 7.1054273576010003e-015 1 0 0 I I #
point $-1 170 120 7.1054273576010003e-015 #
point $-1 170 0 7.1054273576010003e-015 #
cur-twe-attrib $-1 $-1 $-1 $97 37 #
attrib_edge_convexity-kcp-attrib $-1 $209 $-1 $99 1 #
straight-curve $210 1.4210854715202001e-014 60 70 0 -1 0 I I #
convexity-sys-attrib $-1 $211 $102 $60 #
point $-1 1.4210854715202001e-014 120 70 #
cur-twe-attrib $-1 $-1 $-1 $104 40 #
convexity-sys-attrib $-1 $212 $106 $62 #
point $-1 1.4210854715202001e-014 0 70 #
cur-twe-attrib $-1 $-1 $-1 $108 42 #
attrib_edge_convexity-kcp-attrib $-1 $213 $-1 $109 1 #
straight-curve $214 170 0 35 0 0 -1 I I #
edge_name-twe-attrib $-1 $-1 $-1 $110 11 8704 #
straight-curve $215 170 120 35 0 0 -1 I I #
edge_name-twe-attrib $-1 $-1 $112 $40 12 8704 #
model_id-kcp-attrib $-1 $-1 $-1 $117 1 990711015 50 254935042 6 #
face $216 $-1 $132 $11 $-1 $217 reversed single #
loop $-1 $-1 $185 $117 #
plane-surface $-1 0 60 0 0 -1 0 0 0 -1 forward_v I I I I #
coedge $-1 $218 $183 $186 $219 forward $118 $-1 #
coedge $-1 $189 $120 $121 $177 reversed $72 $-1 #
coedge $-1 $183 $218 $120 $175 reversed $118 $-1 #
edge $-1 $190 -35 $220 35 $174 $221 forward 7 unknown #
coedge $-1 $122 $121 $218 $222 forward $43 $-1 #
edge $-1 $181 -85 $220 85 $173 $223 forward 7 unknown #
coedge $-1 $186 $185 $122 $179 reversed $170 $-1 #
edge $-1 $224 -85 $180 85 $178 $225 forward 7 unknown #
vertex $-1 $124 $226 #
vertex $-1 $192 $227 #
straight-curve $-1 85 0 -35 0 -1 0 I I #
coedge $-1 $172 $174 $125 $184 reversed $118 $-1 #
edge $-1 $187 -60 $190 60 $183 $228 forward 7 unknown #
coedge $-1 $178 $126 $131 $193 forward $170 $-1 #
coedge $-1 $126 $178 $172 $219 reversed $170 $-1 #
vertex $-1 $127 $229 #
straight-curve $-1 0 60 35 -1 0 0 I I #
coedge $-1 $128 $173 $130 $192 reversed $72 $-1 #
vertex $-1 $184 $230 #
straight-curve $-1 0 -60 35 1 0 0 I I #
edge $-1 $133 -35 $181 35 $130 $231 forward 7 unknown #
edge $-1 $134 -35 $180 35 $131 $232 forward 7 unknown #
point $-1 85 -60 35 #
point $-1 85 60 35 #
face_name-twe-attrib $-1 $-1 $137 $81 6 #
surf-twe-attrib $-1 $-1 $-1 $138 51 #
attrib_edge_convexity-kcp-attrib $-1 $233 $-1 $142 1 #
straight-curve $234 1.4210854715202001e-014 120 35 0 0 -1 I I #
convexity-sys-attrib $-1 $235 $143 $89 #
point $-1 1.4210854715202001e-014 0 7.1054273576010003e-015 #
cur-twe-attrib $-1 $-1 $-1 $145 59 #
attrib_edge_convexity-kcp-attrib $-1 $236 $-1 $146 1 #
straight-curve $237 1.4210854715202001e-014 60 7.1054273576010003e-015 0 1 0 I I #
convexity-sys-attrib $-1 $238 $147 $91 #
cur-twe-attrib $-1 $-1 $-1 $148 61 #
point $-1 1.4210854715202001e-014 120 7.1054273576010003e-015 #
cur-twe-attrib $-1 $-1 $-1 $151 63 #
convexity-sys-attrib $-1 $239 $155 $99 #
cur-twe-attrib $-1 $-1 $-1 $156 69 #
edge_name-twe-attrib $-1 $-1 $157 $60 8 8704 #
edge_name-twe-attrib $-1 $-1 $160 $62 2 8704 #
convexity-sys-attrib $-1 $240 $163 $109 #
cur-twe-attrib $-1 $-1 $-1 $164 79 #
cur-twe-attrib $-1 $-1 $-1 $166 80 #
model_id-kcp-attrib $-1 $-1 $-1 $169 1 990711015 50 254935042 7 #
plane-surface $-1 85 0 0 -1 0 0 0 0 1 forward_v I I I I #
coedge $-1 $174 $172 $176 $222 reversed $118 $-1 #
edge $-1 $187 -35 $224 35 $186 $241 forward 7 unknown #
vertex $-1 $222 $242 #
straight-curve $-1 -85 -60 0 0 0 -1 I I #
edge $-1 $220 -60 $224 60 $218 $243 forward 7 unknown #
straight-curve $-1 0 -60 -35 -1 0 0 I I #
vertex $-1 $179 $244 #
straight-curve $-1 0 60 -35 1 0 0 I I #
point $-1 85 60 -35 #
point $-1 85 -60 -35 #
straight-curve $-1 -85 0 35 0 -1 0 I I #
point $-1 -85 60 35 #
point $-1 -85 -60 35 #
straight-curve $-1 85 -60 0 0 0 -1 I I #
straight-curve $-1 85 60 0 0 0 -1 I I #
convexity-sys-attrib $-1 $245 $198 $142 #
cur-twe-attrib $-1 $-1 $-1 $199 90 #
edge_name-twe-attrib $-1 $-1 $200 $89 4 8704 #
convexity-sys-attrib $-1 $246 $203 $146 #
cur-twe-attrib $-1 $-1 $-1 $204 94 #
edge_name-twe-attrib $-1 $-1 $205 $91 1 8704 #
edge_name-twe-attrib $-1 $-1 $209 $99 5 8704 #
edge_name-twe-attrib $-1 $-1 $213 $109 9 8704 #
straight-curve $-1 -85 60 0 0 0 -1 I I #
point $-1 -85 -60 -35 #
straight-curve $-1 -85 0 -35 0 1 0 I I #
point $-1 -85 60 -35 #
edge_name-twe-attrib $-1 $-1 $233 $142 7 8704 #
edge_name-twe-attrib $-1 $-1 $236 $146 3 8704 #
End-of-ACIS-data 