600 0 1 0           
95 GICL ACIS Healer - Source: /gicl/data5/repository/PTC/V18/reel18/areel/bail_screw.prt.sat - 6 0 18 ACIS 6.0.3 Solaris 24 Sat Apr 13 21:13:20 2002 
1 9.999999999999999547e-07 1.000000000000000036e-10 
body $-1 $1 $-1 $-1 #
lump $-1 $-1 $2 $0 #
shell $-1 $-1 $-1 $3 $-1 $1 #
face $-1 $4 $5 $2 $-1 $6 forward single #
face $-1 $7 $8 $2 $-1 $9 forward single #
loop $-1 $-1 $10 $3 #
plane-surface $-1 0 0 0 0 -1 0 -25.39999999999999858 0 0 forward_v I I I I #
face $-1 $11 $12 $2 $-1 $13 forward single #
loop $-1 $-1 $14 $4 #
cone-surface $-1 0 13.3349999999999973 0 0 -1 0 -1.587499999999999911 0 0 1 I I 0 1 1.587499999999999911 forward I I I I #
coedge $-1 $15 $15 $16 $17 forward $5 $-1 #
face $-1 $18 $19 $2 $-1 $20 forward single #
loop $-1 $21 $22 $7 #
plane-surface $-1 0 6.349999999999999645 0 0 -1 0 -25.39999999999999858 0 0 forward_v I I I I #
coedge $-1 $23 $24 $25 $26 forward $8 $-1 #
coedge $-1 $10 $10 $27 $28 reversed $5 $-1 #
coedge $-1 $24 $23 $10 $17 reversed $8 $-1 #
edge $-1 $29 1.956378957706024721e-32 $30 3.141592653589793116 $10 $31 forward 7 unknown #
face $-1 $32 $33 $2 $-1 $34 forward single #
loop $-1 $-1 $27 $11 #
cone-surface $-1 0 13.3349999999999973 0 0 -1 0 -1.587499999999999911 0 0 1 I I 0 1 1.587499999999999911 forward I I I I #
loop $-1 $-1 $35 $7 #
coedge $-1 $25 $25 $36 $37 forward $12 $-1 #
coedge $-1 $16 $14 $38 $39 reversed $8 $-1 #
coedge $-1 $14 $16 $40 $41 forward $8 $-1 #
coedge $-1 $22 $22 $14 $26 reversed $12 $-1 #
edge $-1 $42 1.224606353822377258e-16 $43 3.141592653589793116 $14 $44 forward 7 unknown #
coedge $-1 $38 $40 $15 $28 forward $19 $-1 #
edge $-1 $29 3.912757915412049441e-32 $30 3.141592653589793116 $15 $45 forward 7 unknown #
vertex $-1 $28 $46 #
vertex $-1 $28 $47 #
ellipse-curve $-1 0 0 4.406197628981089773e-17 0 -1 0 1.587499999999999911 0 1.503442823794914748e-16 1 I I #
face $-1 $48 $49 $2 $-1 $50 forward single #
loop $-1 $-1 $51 $18 #
cone-surface $-1 0 13.3349999999999973 0 0 -1 0 -2.778124999999999734 0 0 1 I I 0 1 2.778124999999999734 forward I I I I #
coedge $-1 $52 $52 $53 $54 forward $21 $-1 #
coedge $-1 $40 $38 $22 $37 reversed $19 $-1 #
edge $-1 $42 -1.224606353822377258e-16 $43 3.141592653589793116 $22 $55 forward 7 unknown #
coedge $-1 $36 $27 $23 $39 forward $19 $-1 #
edge $-1 $30 0 $43 0.25 $23 $56 forward 7 unknown #
coedge $-1 $27 $36 $24 $41 reversed $19 $-1 #
edge $-1 $29 0 $42 0.2499999999999999167 $24 $57 forward 7 unknown #
vertex $-1 $41 $58 #
vertex $-1 $39 $59 #
ellipse-curve $-1 0 6.349999999999999645 0 0 -1 0 1.587499999999999911 0 0 1 I I #
ellipse-curve $-1 -1.762479051592435909e-16 0 -8.812395257962179547e-17 0 1 0 1.587499999999999911 0 2.825302112489241803e-16 1 I I #
point $-1 1.587499999999999911 0 1.944062586693023848e-16 #
point $-1 -1.587499999999999911 0 -3.888125173386047696e-16 #
face $-1 $60 $61 $2 $-1 $62 forward single #
loop $-1 $63 $64 $32 #
plane-surface $-1 0 10.31874999999999964 0 0 -1 0 -25.39999999999999858 0 0 forward_v I I I I #
coedge $-1 $65 $66 $67 $68 forward $33 $-1 #
coedge $-1 $35 $35 $69 $70 reversed $21 $-1 #
coedge $-1 $66 $65 $35 $54 reversed $33 $-1 #
edge $-1 $71 -1.277635237685567349e-32 $72 3.141592653589793116 $35 $73 forward 7 unknown #
ellipse-curve $-1 0 6.349999999999999645 0 0 1 0 1.587499999999999911 0 0 1 I I #
straight-curve $-1 -1.587499999999999911 0 -3.888125173386047696e-16 0 25.39999999999999858 0 I I #
straight-curve $-1 1.587499999999999911 0 1.944062586693023848e-16 0 25.39999999999999858 0 I I #
point $-1 1.587499999999999911 6.349999999999997868 1.944062586693023848e-16 #
point $-1 -1.587499999999999911 6.349999999999999645 0 #
face $-1 $74 $75 $2 $-1 $76 forward single #
loop $-1 $-1 $69 $48 #
cone-surface $-1 0 13.3349999999999973 0 0 -1 0 -2.778124999999999734 0 0 1 I I 0 1 2.778124999999999734 forward I I I I #
loop $-1 $-1 $77 $32 #
coedge $-1 $67 $67 $78 $79 forward $49 $-1 #
coedge $-1 $53 $51 $80 $81 reversed $33 $-1 #
coedge $-1 $51 $53 $82 $83 forward $33 $-1 #
coedge $-1 $64 $64 $51 $68 reversed $49 $-1 #
edge $-1 $84 1.224606353822377258e-16 $85 3.141592653589793116 $51 $86 forward 7 unknown #
coedge $-1 $80 $82 $52 $70 forward $61 $-1 #
edge $-1 $71 0 $72 3.141592653589793116 $52 $87 forward 7 unknown #
vertex $-1 $70 $88 #
vertex $-1 $70 $89 #
ellipse-curve $-1 0 6.349999999999999645 8.812395257962179547e-17 -5.07530525542928676e-16 -1 -4.605330848650049499e-32 2.778124999999999734 -1.409983241273948727e-15 2.520870000916573718e-16 1 I I #
face $-1 $90 $91 $2 $-1 $92 forward single #
loop $-1 $-1 $93 $60 #
cone-surface $-1 0 13.3349999999999973 0 0 -1 0 -4.064000000000000057 0 0 1 I I 0 1 4.064000000000000057 forward I I I I #
coedge $-1 $94 $94 $95 $96 forward $63 $-1 #
coedge $-1 $82 $80 $64 $79 reversed $61 $-1 #
edge $-1 $84 -1.224606353822377258e-16 $85 3.141592653589793116 $64 $97 forward 7 unknown #
coedge $-1 $78 $69 $65 $81 forward $61 $-1 #
edge $-1 $72 0 $85 0.1562500000000000833 $65 $98 forward 7 unknown #
coedge $-1 $69 $78 $66 $83 reversed $61 $-1 #
edge $-1 $71 0 $84 0.1562499999999999445 $66 $99 forward 7 unknown #
vertex $-1 $83 $100 #
vertex $-1 $81 $101 #
ellipse-curve $-1 8.812395257962179547e-17 10.31874999999999964 0 0 -1 0 2.778124999999999734 0 0 1 I I #
ellipse-curve $-1 -1.762479051592435909e-16 6.349999999999999645 -1.762479051592435909e-16 5.07530525542928676e-16 1 9.435091492860326294e-32 2.778124999999999734 -1.409983241273948727e-15 5.164588578305227828e-16 1 I I #
point $-1 2.778124999999999734 6.349999999999997868 3.402109526712791426e-16 #
point $-1 -2.778124999999999734 6.349999999999997868 -6.804219053425582852e-16 #
face $-1 $102 $103 $2 $-1 $104 reversed single #
loop $-1 $-1 $105 $74 #
torus-surface $-1 0 11.90625 0 0 -1 0 3.270249999999999879 0.7937499999999999556 -1 0 0 forward_v I I I I #
coedge $-1 $106 $107 $108 $109 forward $75 $-1 #
coedge $-1 $77 $77 $110 $111 reversed $63 $-1 #
coedge $-1 $107 $106 $77 $96 reversed $75 $-1 #
edge $-1 $112 -2.388157907355987983e-32 $113 3.141592653589793116 $77 $114 forward 7 unknown #
ellipse-curve $-1 8.812395257962179547e-17 10.31874999999999964 0 0 1 0 2.778124999999999734 0 0 1 I I #
straight-curve $-1 -2.778124999999999734 6.349999999999997868 -6.804219053425582852e-16 0 25.39999999999999858 0 I I #
straight-curve $-1 2.778124999999999734 6.349999999999997868 3.402109526712791426e-16 0 25.39999999999999858 0 I I #
point $-1 2.778124999999999734 10.31874999999999609 3.402109526712791426e-16 #
point $-1 -2.778124999999999734 10.31874999999999964 0 #
face $-1 $115 $116 $2 $-1 $117 forward single #
loop $-1 $-1 $118 $90 #
plane-surface $-1 0 12.69999999999999929 0 0 -1 0 -25.39999999999999858 0 0 forward_v I I I I #
coedge $-1 $119 $120 $121 $122 forward $91 $-1 #
coedge $-1 $95 $93 $123 $124 reversed $75 $-1 #
coedge $-1 $93 $95 $125 $126 forward $75 $-1 #
coedge $-1 $127 $119 $93 $109 reversed $91 $-1 #
edge $-1 $128 0 $129 3.141592653589793116 $93 $130 forward 7 unknown #
coedge $-1 $123 $125 $94 $111 forward $131 $-1 #
edge $-1 $112 1.194078953677993307e-32 $113 3.141592653589792672 $94 $132 forward 7 unknown #
vertex $-1 $111 $133 #
vertex $-1 $111 $134 #
ellipse-curve $-1 5.287437154777307235e-16 10.31874999999999964 -1.762479051592435909e-16 -6.938893903907229364e-16 -1 -1.150667910132921234e-31 4.063999999999999169 -2.819966482547897455e-15 6.739279273526577099e-16 1 I I #
face $-1 $135 $136 $2 $-1 $137 reversed single #
loop $-1 $-1 $138 $102 #
torus-surface $-1 0 11.90625 0 0 -1 0 3.270249999999999879 0.7937499999999999556 -1 0 0 forward_v I I I I #
coedge $-1 $121 $139 $140 $141 forward $103 $-1 #
coedge $-1 $108 $105 $142 $143 forward $91 $-1 #
coedge $-1 $105 $144 $145 $146 forward $91 $-1 #
coedge $-1 $139 $118 $105 $122 reversed $103 $-1 #
edge $-1 $147 4.152487296126083681e-17 $148 1.335624888039752767 $121 $149 forward 7 unknown #
coedge $-1 $150 $110 $106 $124 forward $131 $-1 #
edge $-1 $113 0 $129 0.06250000000000001388 $106 $151 forward 7 unknown #
coedge $-1 $110 $150 $107 $126 reversed $131 $-1 #
edge $-1 $112 0 $128 0.06250000000000001388 $107 $152 forward 7 unknown #
coedge $-1 $153 $108 $154 $155 reversed $91 $-1 #
vertex $-1 $126 $156 #
vertex $-1 $124 $157 #
ellipse-curve $-1 0 11.90625 0 0 -1 0 4.064000000000000057 0 4.976800221934140696e-16 1 I I #
loop $-1 $-1 $110 $158 #
ellipse-curve $-1 -3.524958103184871819e-16 10.31874999999999964 7.049916206369743637e-16 6.938893903907226405e-16 1 -3.539648589196070502e-32 4.064000000000000945 -2.819966482547897455e-15 -2.073115984435602695e-16 1 I I #
point $-1 4.064000000000000057 10.31874999999999609 4.976800221934140696e-16 #
point $-1 -4.064000000000000057 10.31874999999999609 -9.953600443868281392e-16 #
face $-1 $159 $160 $2 $-1 $161 reversed single #
loop $-1 $-1 $162 $115 #
plane-surface $-1 -0.7619999999999998996 11.93799999999999883 4.880816671437468557 0 -1 0 25.39999999999999858 0 0 forward_v I I I I #
coedge $-1 $163 $164 $165 $166 forward $116 $-1 #
coedge $-1 $118 $121 $167 $168 forward $103 $-1 #
coedge $-1 $164 $142 $118 $141 reversed $116 $-1 #
edge $-1 $169 4.982984755351296226e-16 $148 1.335624888039752767 $118 $170 forward 7 unknown #
coedge $-1 $140 $171 $119 $143 reversed $116 $-1 #
edge $-1 $148 2.307865185047569839e-16 $129 1.570796326794898112 $142 $172 forward 7 unknown #
coedge $-1 $120 $173 $174 $175 forward $91 $-1 #
coedge $-1 $176 $167 $120 $146 reversed $160 $-1 #
edge $-1 $177 0 $147 1 $120 $178 forward 7 unknown #
vertex $-1 $168 $179 #
vertex $-1 $122 $180 #
ellipse-curve $-1 1.586231146433192368e-15 12.69999999999999929 -1.233735336114705087e-15 0 -1 0 -0.7620000000000013429 0 3.180234435147825334 1 I I #
coedge $-1 $125 $123 $171 $181 reversed $131 $-1 #
straight-curve $-1 -4.064000000000000057 10.31874999999999609 -9.953600443868281392e-16 0 25.39999999999999858 0 I I #
straight-curve $-1 4.064000000000000057 10.31874999999999609 4.976800221934140696e-16 0 25.39999999999999858 0 I I #
coedge $-1 $173 $127 $182 $183 forward $91 $-1 #
coedge $-1 $171 $184 $127 $155 forward $116 $-1 #
edge $-1 $185 2.307865185047569839e-16 $128 1.570796326794898112 $154 $186 forward 7 unknown #
point $-1 4.064000000000000057 11.90624999999999645 4.976800221934140696e-16 #
point $-1 -4.064000000000000057 11.90624999999999645 -9.953600443868281392e-16 #
face $-1 $-1 $131 $2 $-1 $187 forward single #
face $-1 $188 $189 $2 $-1 $190 reversed single #
loop $-1 $-1 $145 $135 #
plane-surface $-1 -0.7619999999999998996 12.69999999999999929 4.880816671437468557 -1 0 0 0 -25.39999999999999858 0 forward_v I I I I #
coedge $-1 $174 $165 $176 $191 reversed $136 $-1 #
coedge $-1 $184 $138 $192 $193 forward $116 $-1 #
coedge $-1 $138 $140 $194 $195 forward $116 $-1 #
coedge $-1 $162 $196 $138 $166 reversed $136 $-1 #
edge $-1 $197 2.689667557288618238e-17 $198 0.3772924574266302011 $138 $199 forward 7 unknown #
coedge $-1 $145 $194 $139 $168 reversed $160 $-1 #
edge $-1 $147 0 $169 0.2504121602478602271 $139 $200 forward 7 unknown #
vertex $-1 $168 $201 #
ellipse-curve $-1 3.172462292866384735e-15 12.69999999999999929 1.498107193853570449e-15 0 1 0 -0.762000000000001565 0 -3.180234435147826666 1 I I #
coedge $-1 $142 $154 $150 $181 forward $116 $-1 #
ellipse-curve $-1 -3.270249999999998991 11.90624999999999822 0 0 0 1 -7.049916206369743637e-16 0.7937500000000013989 0 1 I I #
coedge $-1 $144 $153 $202 $203 forward $91 $-1 #
coedge $-1 $196 $162 $144 $175 reversed $136 $-1 #
edge $-1 $204 8.069002671865854715e-17 $177 0.3772924574266302011 $144 $205 forward 7 unknown #
coedge $-1 $194 $145 $162 $191 forward $160 $-1 #
vertex $-1 $146 $206 #
intcurve-curve $-1 forward { surfintcur full nurbs 3 open 8 
	0 3 0.1422989164199655043 1 0.2851033665020264452 1 0.4278843857812048013 1 0.5704337959104690547 1 
	0.7135234046405395381 1 0.8568917135184018763 1 1 3 
	-0.7619999999999997886 11.93799999999999883 3.991276620003008091 1 
	-0.7619999999999995666 11.99490482864219665 3.989105504824166371 1 
	-0.7619999999999992335 12.10637991757995024 3.972301836207864145 1 
	-0.7620000000000011209 12.27217357052420965 3.908529114494557977 1.000000000000000222 
	-0.7619999999999994555 12.41817466856794283 3.809399459215621508 0.999999999999999889 
	-0.7620000000000004547 12.53663723381480111 3.684763447731246089 1 
	-0.7620000000000006768 12.62991241976056322 3.531279013741483119 0.999999999999999778 
	-0.7620000000000001217 12.68757466781575971 3.357453396607580132 1.000000000000000222 
	-0.7619999999999998996 12.70006344843424273 3.240168247151345771 1 
	-0.7619999999999997886 12.69999999999999929 3.180234435147824001 1 
	0.02539999999999999897 
	plane -0.7619999999999998996 12.69999999999999929 4.880816671437468557 -1 0 0 0 -25.39999999999999858 0 forward_v I I I I 
	torus 0 11.90625 0 0 -1 0 3.270249999999999879 0.7937499999999999556 -1 0 0 forward_v I I I I 
	nullbs 
	nullbs 
	I I 
	0 
	0 
	0 
	} I I #
point $-1 -0.7619999999999998996 12.69999999999999929 3.180234435147824001 #
point $-1 -3.270249999999999879 12.69999999999999929 0 #
edge $-1 $128 0 $129 3.141592653589793116 $150 $207 forward 7 unknown #
coedge $-1 $208 $209 $153 $183 reversed $210 $-1 #
edge $-1 $185 0 $211 1.335624888039752989 $182 $212 forward 7 unknown #
coedge $-1 $154 $163 $208 $213 reversed $116 $-1 #
vertex $-1 $213 $214 #
ellipse-curve $-1 3.270249999999998991 11.90624999999999822 4.004768928587628156e-16 1.224606353822377505e-16 -1.015928045664267734e-32 -1 7.049916206369743637e-16 0.7937500000000013989 7.826979293989726069e-32 1 I I #
cone-surface $-1 0 13.3349999999999973 0 0 -1 0 -4.064000000000000057 0 0 1 I I 0 1 4.064000000000000057 forward I I I I #
face $-1 $158 $210 $2 $-1 $215 reversed single #
loop $-1 $-1 $192 $159 #
plane-surface $-1 0.7619999999999998996 11.93799999999999883 4.880816671437468557 1 0 0 0 25.39999999999999858 0 forward_v I I I I #
edge $-1 $177 3.496765431890256772e-17 $197 0.3142737496065361458 $176 $216 forward 7 unknown #
coedge $-1 $217 $218 $163 $193 reversed $189 $-1 #
edge $-1 $198 0 $219 1 $163 $220 forward 7 unknown #
coedge $-1 $167 $176 $164 $195 reversed $160 $-1 #
edge $-1 $169 0 $197 1 $164 $221 forward 7 unknown #
coedge $-1 $165 $174 $217 $222 forward $136 $-1 #
vertex $-1 $195 $223 #
vertex $-1 $193 $224 #
ellipse-curve $-1 0 11.93799999999999883 0 0 -1 0 -0.7619999999999998996 0 -3.991276620003008979 1 I I #
straight-curve $-1 -0.7619999999999998996 12.69999999999999929 3.180234435147824001 0 0 -25.39999999999999858 I I #
point $-1 -0.7619999999999998996 12.69999999999999929 -3.18023443514782489 #
coedge $-1 $218 $217 $173 $203 reversed $189 $-1 #
edge $-1 $211 0 $204 1 $173 $225 forward 7 unknown #
vertex $-1 $175 $226 #
ellipse-curve $-1 0 11.93799999999999883 0 0 -1 0 0.7619999999999998996 0 3.991276620003009423 1 I I #
point $-1 -0.7619999999999997886 11.93799999999999883 3.991276620003008091 #
ellipse-curve $-1 0 11.90625 0 0 1 0 4.064000000000000057 0 4.976800221934140696e-16 1 I I #
coedge $-1 $209 $182 $184 $213 forward $210 $-1 #
coedge $-1 $182 $208 $218 $227 reversed $210 $-1 #
loop $-1 $-1 $182 $188 #
vertex $-1 $227 $228 #
ellipse-curve $-1 -9.693634783758397255e-16 12.69999999999999929 -7.931155732165961838e-16 0 -1 0 3.270250000000000767 0 1.193592466075359098e-15 1 I I #
edge $-1 $185 -1.844074802249056028e-32 $219 1.335624888039753211 $208 $229 forward 7 unknown #
point $-1 3.270249999999999879 12.69999999999999929 4.004768928587629142e-16 #
plane-surface $-1 0 12.69999999999999929 0 0 -1 0 -25.39999999999999858 0 0 forward_v I I I I #
straight-curve $-1 -0.7619999999999998996 11.93799999999999883 3.991276620003008979 0 0 -25.39999999999999858 I I #
coedge $-1 $202 $192 $196 $222 reversed $189 $-1 #
coedge $-1 $192 $202 $209 $227 forward $189 $-1 #
vertex $-1 $227 $230 #
intcurve-curve $-1 forward { surfintcur full nurbs 3 open 8 
	0 3 0.1422834962459746944 1 0.2850681270556861824 1 0.4278407045700844957 1 0.5703983511047330257 1 
	0.7134982866589222317 1 0.8568769208414042104 1 1 3 
	0.7620000000000011209 11.93799999999999883 -3.991276620003008091 1 
	0.7620000000000008988 11.99485718114325117 -3.98910509892312648 0.999999999999999889 
	0.7620000000000002327 12.10624064752474816 -3.972324585924608797 0.999999999999999778 
	0.7620000000000027862 12.271841309395775 -3.908685813485725191 1.000000000000000222 
	0.7619999999999997886 12.41782515715402724 -3.809699446111596721 1 
	0.7620000000000034523 12.53643296562091614 -3.685046230271337819 1 
	0.7619999999999971241 12.62981348662729353 -3.531507433878649405 1.000000000000000222 
	0.7620000000000025642 12.68755186312938577 -3.357605232081900315 1 
	0.7620000000000006768 12.70006053265932522 -3.240225024059544712 1 
	0.7619999999999994555 12.69999999999999929 -3.18023443514782489 1 
	0.02539999999999999897 
	plane 0.7619999999999998996 11.93799999999999883 4.880816671437468557 1 0 0 0 25.39999999999999858 0 forward_v I I I I 
	torus 0 11.90625 0 0 -1 0 3.270249999999999879 0.7937499999999999556 -1 0 0 forward_v I I I I 
	nullbs 
	nullbs 
	I I 
	0 
	0 
	0 
	} I I #
intcurve-curve $-1 forward { surfintcur full nurbs 3 open 8 
	0 3 0.1431082864815979572 1 0.2864765953594603509 1 0.4295662040895307232 1 0.5721156142187951987 1 
	0.7148966334979733883 1 0.8577010835800347177 1 1 3 
	-0.7619999999999983453 12.69999999999999929 -3.180234435147825334 1 
	-0.7619999999999981233 12.70006344843423918 -3.240168247151346659 1 
	-0.7619999999999979012 12.68757466781576682 -3.357453396607581464 0.999999999999999778 
	-0.7619999999999996776 12.62991241976055612 -3.531279013741483563 1 
	-0.761999999999996791 12.53663723381480644 -3.684763447731246089 1 
	-0.7620000000000006768 12.4181746685679375 -3.809399459215622397 1 
	-0.7620000000000012319 12.27217357052421498 -3.908529114494556644 0.999999999999999889 
	-0.7619999999999971241 12.10637991757994669 -3.972301836207868586 1.000000000000000222 
	-0.7619999999999984563 11.99490482864219487 -3.989105504824167259 0.999999999999999889 
	-0.7619999999999996776 11.93799999999999883 -3.991276620003008091 1 
	0.02539999999999999897 
	plane -0.7619999999999998996 12.69999999999999929 4.880816671437468557 -1 0 0 0 -25.39999999999999858 0 forward_v I I I I 
	torus 0 11.90625 0 0 -1 0 3.270249999999999879 0.7937499999999999556 -1 0 0 forward_v I I I I 
	nullbs 
	nullbs 
	I I 
	0 
	0 
	0 
	} I I #
edge $-1 $204 5.245148147835385774e-17 $198 0.3142737496065361458 $196 $231 forward 7 unknown #
point $-1 -0.7619999999999996776 11.93799999999999883 -3.991276620003008091 #
point $-1 0.7619999999999998996 11.93799999999999883 -3.991276620003008979 #
intcurve-curve $-1 forward { surfintcur full nurbs 3 open 8 
	0 3 0.1431230791585957896 1 0.2865017133410776018 1 0.4296016488952669743 1 0.5721592954299158373 1 
	0.7149318729443134846 1 0.8577165037540253056 1 1 3 
	0.7620000000000000107 12.69999999999999929 3.180234435147824001 1 
	0.7620000000000002327 12.70006053265932522 3.240225024059543379 1 
	0.7620000000000002327 12.68755186312938577 3.357605232081899427 1.000000000000000222 
	0.7619999999999990115 12.62981348662729708 3.531507433878647628 0.999999999999999889 
	0.7620000000000002327 12.53643296562092146 3.685046230271337819 1 
	0.7619999999999990115 12.41782515715401658 3.80969944611159983 1.000000000000000222 
	0.7619999999999998996 12.2718413093957821 3.908685813485722527 0.999999999999999889 
	0.7619999999999996776 12.10624064752474993 3.97232458592461013 0.999999999999999778 
	0.7619999999999995666 11.99485718114325117 3.989105098923125592 1 
	0.7619999999999993445 11.93799999999999883 3.991276620003008091 1 
	0.02539999999999999897 
	plane 0.7619999999999998996 11.93799999999999883 4.880816671437468557 1 0 0 0 25.39999999999999858 0 forward_v I I I I 
	torus 0 11.90625 0 0 -1 0 3.270249999999999879 0.7937499999999999556 -1 0 0 forward_v I I I I 
	nullbs 
	nullbs 
	I I 
	0 
	0 
	0 
	} I I #
point $-1 0.7619999999999993445 11.93799999999999883 3.991276620003008091 #
edge $-1 $211 0 $219 0.2504121602478602271 $209 $232 forward 7 unknown #
point $-1 0.7619999999999998996 12.69999999999999929 3.180234435147824001 #
ellipse-curve $-1 -1.498107193853570449e-15 12.69999999999999929 6.168676680573525436e-16 0 1 0 3.270250000000001211 0 -2.163907751985896787e-16 1 I I #
point $-1 0.7619999999999998996 12.69999999999999929 -3.18023443514782489 #
straight-curve $-1 0.7619999999999998996 11.93799999999999883 3.991276620003009423 0 0 -25.39999999999999858 I I #
straight-curve $-1 0.7619999999999998996 12.69999999999999929 3.180234435147824001 0 0 -25.39999999999999858 I I #
End-of-ACIS-data 