700 0 2 0           
24 FBMach with ACIS - 7.0.3 13 ACIS 7.0.3 NT 24 Wed May 15 12:33:16 2002 
1 9.9999999999999995e-007 1e-010 
body $2 -1 $-1 $3 $-1 $4 #
bdycol-kcp $-1 -1 1 4 $5 $6 $7 $8 #
model_id-kcp-attrib $-1 -1 $-1 $-1 $0 1 1021480395 1021480396 -632487935 1 #
lump $-1 -1 $-1 $-1 $9 $0 #
transform $-1 -1 1 0 0 0 1 0 0 0 1 0 0 0 1 rotate no_reflect no_shear #
body $10 -1 $-1 $11 $-1 $12 #
body $13 -1 $-1 $14 $-1 $15 #
body $16 -1 $-1 $17 $-1 $18 #
body $19 -1 $-1 $20 $-1 $21 #
shell $-1 -1 $-1 $-1 $-1 $22 $-1 $3 #
rgb_color-st-attrib $-1 -1 $23 $-1 $5 0.5 1 1 #
lump $-1 -1 $-1 $-1 $24 $5 #
transform $-1 -1 1 0 0 0 1 0 0 0 1 0 0 0 1 no_rotate no_reflect no_shear #
model_id-kcp-attrib $-1 -1 $-1 $-1 $6 1 1021480395 1021480396 -631832574 1 #
lump $-1 -1 $-1 $-1 $25 $6 #
transform $-1 -1 1 0 0 0 1 0 0 0 1 0 1.5875000000000001 0 1 no_rotate no_reflect no_shear #
rgb_color-st-attrib $-1 -1 $26 $-1 $7 0 0 1 #
lump $-1 -1 $-1 $-1 $27 $7 #
transform $-1 -1 1 0 0 0 1 0 0 0 1 0 1.5875000000000001 0 1 no_rotate no_reflect no_shear #
rgb_color-st-attrib $-1 -1 $28 $-1 $8 0.5 1 1 #
lump $-1 -1 $-1 $-1 $29 $8 #
transform $-1 -1 1 0 0 0 1 0 0 0 1 0 1.5875000000000001 0 1 no_rotate no_reflect no_shear #
face $30 -1 $-1 $31 $32 $9 $-1 $33 forward single #
model_id-kcp-attrib $-1 -1 $-1 $10 $5 1 1021480395 1021480396 -637468668 1 #
shell $-1 -1 $-1 $-1 $-1 $34 $-1 $11 #
shell $-1 -1 $-1 $-1 $-1 $35 $-1 $14 #
model_id-kcp-attrib $-1 -1 $-1 $16 $7 1 1021480395 1021480396 -629604347 1 #
shell $-1 -1 $-1 $-1 $-1 $36 $-1 $17 #
model_id-kcp-attrib $-1 -1 $-1 $19 $8 1 1021480395 1021480396 -624623613 1 #
shell $-1 -1 $-1 $-1 $-1 $37 $-1 $20 #
model_id-kcp-attrib $-1 -1 $-1 $-1 $22 1 1021480395 1021480396 -632487935 2 #
face $38 -1 $-1 $39 $40 $9 $-1 $41 forward single #
loop $-1 -1 $-1 $42 $43 $22 #
plane-surface $-1 -1 $-1 0 0 0 0 -1 0 -25.399999999999999 0 0 forward_v I I I I #
face $-1 -1 $-1 $44 $45 $24 $-1 $46 forward single #
face $-1 -1 $-1 $47 $48 $25 $-1 $49 forward single #
face $-1 -1 $-1 $50 $51 $27 $-1 $52 forward single #
face $-1 -1 $-1 $53 $54 $29 $-1 $55 reversed single #
model_id-kcp-attrib $-1 -1 $-1 $-1 $31 1 1021480395 1021480396 -632487935 3 #
face $56 -1 $-1 $57 $58 $9 $-1 $59 forward single #
loop $-1 -1 $-1 $-1 $60 $31 #
cone-surface $-1 -1 $-1 0 3.333750000000002 0 0 -1 0 -6.3499999999999996 0 0 1 I I 0 1 6.3499999999999996 forward I I I I #
loop $-1 -1 $-1 $-1 $61 $22 #
coedge $-1 -1 $-1 $62 $62 $63 $64 forward $32 $-1 #
face $-1 -1 $-1 $65 $66 $24 $-1 $67 forward single #
loop $-1 -1 $-1 $68 $69 $34 #
cone-surface $-1 -1 $-1 0 0 0 0 1 0 -3.5718749999999999 0 0 1 I I 0 1 3.5718749999999999 forward I I I I #
face $-1 -1 $-1 $70 $71 $25 $-1 $72 reversed single #
loop $-1 -1 $-1 $-1 $73 $35 #
plane-surface $-1 -1 $-1 0 0 6.3499999999999996 0 0 1 1 0 0 forward_v I I I I #
face $-1 -1 $-1 $74 $75 $27 $-1 $76 forward single #
loop $-1 -1 $-1 $77 $78 $36 #
cone-surface $-1 -1 $-1 0 0 0 0 1 0 4.3656249999999996 0 0 1 I I 0 1 4.3656249999999996 forward I I I I #
face $-1 -1 $-1 $79 $80 $29 $-1 $55 reversed single #
loop $-1 -1 $-1 $-1 $81 $37 #
cone-surface $-1 -1 $-1 -7.1421341876779293e-032 -1.5875000000000001 0 0 -1 0 6.3499999999999996 0 7.7762503467720954e-016 1 I I 0 1 6.3499999999999996 forward I I I I #
model_id-kcp-attrib $-1 -1 $-1 $-1 $39 1 1021480395 1021480396 -632487935 4 #
face $82 -1 $-1 $83 $84 $9 $-1 $85 forward single #
loop $-1 -1 $-1 $-1 $86 $39 #
torus-surface $-1 -1 $-1 0 1.2587179848663552 0 0 -1 0 5.5562499999999995 0.79374999999999996 -1 0 0 forward_v I I I I #
coedge $-1 -1 $-1 $87 $88 $89 $90 forward $40 $-1 #
coedge $-1 -1 $-1 $91 $91 $92 $93 reversed $42 $-1 #
coedge $-1 -1 $-1 $43 $43 $94 $95 reversed $32 $-1 #
coedge $-1 -1 $-1 $88 $87 $43 $64 reversed $40 $-1 #
edge $96 -1 $-1 $97 0 $98 3.1415926535897931 $43 $99 forward @7 unknown #
face $-1 -1 $-1 $-1 $100 $24 $-1 $101 reversed single #
loop $-1 -1 $-1 $-1 $102 $44 #
plane-surface $-1 -1 $-1 0 1.5874999999999999 0 0 1 0 0 0 1 forward_v I I I I #
loop $-1 -1 $-1 $-1 $103 $34 #
coedge $-1 -1 $-1 $69 $69 $102 $104 forward $45 $-1 #
face $105 -1 $-1 $106 $107 $25 $-1 $108 reversed single #
loop $-1 -1 $-1 $-1 $109 $47 #
plane-surface $-1 -1 $-1 0 0 -6.3499999999999996 0 0 1 1 0 0 forward_v I I I I #
coedge $-1 -1 $-1 $110 $111 $112 $113 forward $48 $-1 #
face $-1 -1 $-1 $-1 $114 $27 $-1 $115 reversed single #
loop $-1 -1 $-1 $-1 $116 $50 #
plane-surface $-1 -1 $-1 3.2297397080004555e-016 1.5874999999999999 0 0 1 0 0 0 1 forward_v I I I I #
loop $-1 -1 $-1 $-1 $117 $36 #
coedge $-1 -1 $-1 $78 $78 $116 $118 forward $51 $-1 #
face $-1 -1 $-1 $119 $120 $29 $-1 $55 reversed single #
loop $-1 -1 $-1 $-1 $121 $53 #
coedge $-1 -1 $-1 $122 $123 $124 $125 reversed $54 $-1 #
model_id-kcp-attrib $-1 -1 $-1 $-1 $57 1 1021480395 1021480396 -632487935 5 #
face $126 -1 $-1 $127 $128 $9 $-1 $129 forward single #
loop $-1 -1 $-1 $-1 $130 $57 #
torus-surface $-1 -1 $-1 0 1.2587179848663552 0 0 -1 0 5.5562499999999995 0.79374999999999996 -1 0 0 forward_v I I I I #
coedge $-1 -1 $-1 $89 $131 $132 $133 forward $58 $-1 #
coedge $-1 -1 $-1 $63 $60 $134 $135 reversed $40 $-1 #
coedge $-1 -1 $-1 $60 $63 $136 $137 forward $40 $-1 #
coedge $-1 -1 $-1 $138 $86 $60 $90 reversed $58 $-1 #
edge $-1 -1 $-1 $139 0 $140 3.1415926535897931 $60 $141 forward @7 unknown #
coedge $-1 -1 $-1 $61 $61 $142 $143 reversed $42 $-1 #
coedge $-1 -1 $-1 $144 $145 $61 $93 forward $146 $-1 #
edge $147 -1 $-1 $148 0 $149 3.1415926535897931 $61 $150 forward @7 unknown #
coedge $-1 -1 $-1 $134 $136 $62 $95 forward $128 $-1 #
edge $151 -1 $-1 $97 -1.9563789577060247e-032 $98 3.1415926535897931 $62 $152 forward @7 unknown #
attrib_edge_convexity-kcp-attrib $-1 -1 $153 $-1 $64 1 #
vertex $-1 -1 $-1 $95 $154 #
vertex $-1 -1 $-1 $95 $155 #
ellipse-curve $-1 -1 $-1 1.7624790515924359e-016 0 0 0 -1 0 6.3499999999999996 0 7.7762503467720954e-016 1 I I #
loop $-1 -1 $-1 $-1 $156 $65 #
plane-surface $-1 -1 $-1 0 0 0 0 1 0 0 0 1 forward_v I I I I #
coedge $-1 -1 $-1 $102 $102 $69 $104 reversed $66 $-1 #
coedge $-1 -1 $-1 $103 $103 $156 $157 reversed $68 $-1 #
edge $-1 -1 $-1 $158 -3.1415926535897931 $158 3.1415926535897931 $69 $159 forward @7 unknown #
model_id-kcp-attrib $-1 -1 $-1 $-1 $70 1 1021480395 1021480396 -631832574 2 #
face $-1 -1 $-1 $160 $161 $25 $-1 $162 reversed single #
loop $-1 -1 $-1 $-1 $163 $70 #
plane-surface $-1 -1 $-1 0 -1.5875000000000001 0 0 1 0 0 0 1 forward_v I I I I #
coedge $-1 -1 $-1 $164 $165 $166 $167 forward $71 $-1 #
coedge $-1 -1 $-1 $168 $73 $169 $170 forward $48 $-1 #
coedge $-1 -1 $-1 $73 $168 $171 $172 forward $48 $-1 #
coedge $-1 -1 $-1 $173 $174 $73 $113 reversed $175 $-1 #
edge $-1 -1 $-1 $176 -1.5875000000000001 $177 1.5875000000000001 $112 $178 forward @7 unknown #
loop $-1 -1 $-1 $-1 $179 $74 #
plane-surface $-1 -1 $-1 3.2297397080004555e-016 0 0 0 1 0 0 0 1 forward_v I I I I #
coedge $-1 -1 $-1 $116 $116 $78 $118 reversed $75 $-1 #
coedge $-1 -1 $-1 $117 $117 $179 $180 reversed $77 $-1 #
edge $-1 -1 $-1 $181 -3.1415926535897931 $181 3.1415926535897931 $78 $182 forward @7 unknown #
face $-1 -1 $-1 $183 $184 $29 $-1 $55 reversed single #
loop $-1 -1 $-1 $-1 $185 $79 #
coedge $-1 -1 $-1 $186 $187 $188 $189 reversed $80 $-1 #
coedge $-1 -1 $-1 $190 $81 $191 $192 forward $54 $-1 #
coedge $-1 -1 $-1 $81 $190 $193 $194 reversed $54 $-1 #
coedge $-1 -1 $-1 $195 $196 $81 $125 forward $197 $-1 #
edge $-1 -1 $-1 $198 -1.2246063538223773e-016 $199 1.5707963267948966 $124 $200 forward @7 unknown #
model_id-kcp-attrib $-1 -1 $-1 $-1 $83 1 1021480395 1021480396 -632487935 6 #
face $201 -1 $-1 $202 $203 $9 $-1 $204 forward single #
loop $-1 -1 $-1 $-1 $94 $83 #
cone-surface $-1 -1 $-1 0 3.333750000000002 0 0 -1 0 -6.3499999999999996 0 0 1 I I 0 1 6.3499999999999996 forward I I I I #
coedge $-1 -1 $-1 $205 $206 $138 $207 forward $84 $-1 #
coedge $-1 -1 $-1 $86 $138 $208 $209 forward $58 $-1 #
coedge $-1 -1 $-1 $206 $205 $86 $133 reversed $84 $-1 #
edge $-1 -1 $-1 $210 3.7886214443157738e-015 $140 0.7853981633974525 $132 $211 forward @7 unknown #
coedge $-1 -1 $-1 $212 $94 $87 $135 forward $128 $-1 #
edge $-1 -1 $-1 $98 0 $140 0.049555826175840763 $87 $213 forward @7 unknown #
coedge $-1 -1 $-1 $94 $212 $88 $137 reversed $128 $-1 #
edge $-1 -1 $-1 $97 0 $139 0.049555826175840763 $88 $214 forward @7 unknown #
coedge $-1 -1 $-1 $131 $89 $130 $207 reversed $58 $-1 #
vertex $-1 -1 $-1 $137 $215 #
vertex $-1 -1 $-1 $135 $216 #
ellipse-curve $-1 -1 $-1 0 1.2587179848663552 0 0 -1 0 6.3499999999999996 0 7.7762503467720954e-016 1 I I #
coedge $-1 -1 $-1 $217 $218 $91 $143 forward $219 $-1 #
edge $220 -1 $-1 $149 0 $148 3.1415926535897931 $91 $221 forward @7 unknown #
coedge $-1 -1 $-1 $222 $92 $218 $223 reversed $146 $-1 #
coedge $-1 -1 $-1 $92 $222 $217 $224 forward $146 $-1 #
loop $-1 -1 $-1 $-1 $144 $225 #
attrib_edge_convexity-kcp-attrib $-1 -1 $226 $-1 $93 1 #
vertex $-1 -1 $-1 $143 $227 #
vertex $-1 -1 $-1 $143 $228 #
ellipse-curve $-1 -1 $-1 0 0 0 0 -1 0 -3.5718749999999999 0 0 1 I I #
attrib_edge_convexity-kcp-attrib $-1 -1 $229 $-1 $95 1 #
ellipse-curve $-1 -1 $-1 3.5249581031848718e-016 0 1.7624790515924359e-016 0 1 0 6.3499999999999996 0 6.013771295179659e-016 1 I I #
convexity-sys-attrib $-1 -1 $-1 $96 $64 #
point $-1 -1 $-1 6.3499999999999996 0 7.7762503467720954e-016 #
point $-1 -1 $-1 -6.3499999999999996 0 -1.5552500693544191e-015 #
coedge $-1 -1 $-1 $156 $156 $103 $157 forward $100 $-1 #
edge $-1 -1 $-1 $230 -3.1415926535897931 $230 3.1415926535897931 $103 $231 forward @7 unknown #
vertex $-1 -1 $-1 $104 $232 #
ellipse-curve $-1 -1 $-1 0 1.5874999999999999 0 0 -1 0 3.5718749999999999 0 0 1 I I #
face $233 -1 $-1 $234 $235 $25 $-1 $236 reversed single #
loop $-1 -1 $-1 $-1 $237 $106 #
plane-surface $-1 -1 $-1 -6.3499999999999996 0 0 1 0 0 0 0 -1 forward_v I I I I #
coedge $-1 -1 $-1 $238 $171 $239 $240 forward $107 $-1 #
coedge $-1 -1 $-1 $241 $109 $238 $242 forward $71 $-1 #
coedge $-1 -1 $-1 $109 $241 $243 $244 forward $71 $-1 #
coedge $-1 -1 $-1 $174 $173 $109 $167 reversed $175 $-1 #
edge $-1 -1 $-1 $245 -1.5875000000000001 $246 1.5875000000000001 $166 $247 forward @7 unknown #
coedge $-1 -1 $-1 $111 $110 $248 $249 forward $48 $-1 #
coedge $-1 -1 $-1 $250 $251 $110 $170 reversed $235 $-1 #
edge $-1 -1 $-1 $177 -6.3499999999999996 $252 6.3499999999999996 $169 $253 forward @7 unknown #
coedge $-1 -1 $-1 $163 $254 $111 $172 reversed $107 $-1 #
edge $-1 -1 $-1 $255 -6.3499999999999996 $176 6.3499999999999996 $171 $256 forward @7 unknown #
coedge $-1 -1 $-1 $166 $112 $254 $257 forward $175 $-1 #
coedge $-1 -1 $-1 $112 $166 $250 $258 reversed $175 $-1 #
loop $-1 -1 $-1 $-1 $173 $234 #
vertex $-1 -1 $-1 $113 $259 #
vertex $-1 -1 $-1 $113 $260 #
straight-curve $-1 -1 $-1 6.3499999999999996 0 6.3499999999999996 0 1 0 I I #
coedge $-1 -1 $-1 $179 $179 $117 $180 forward $114 $-1 #
edge $261 -1 $-1 $262 0 $262 6.2831853071795862 $117 $263 forward @7 unknown #
vertex $-1 -1 $-1 $118 $264 #
ellipse-curve $-1 -1 $-1 0 1.5874999999999999 0 0 -1 0 4.3656249999999996 0 0 1 I I #
face $-1 -1 $-1 $265 $266 $29 $-1 $267 forward single #
loop $-1 -1 $-1 $-1 $268 $119 #
coedge $-1 -1 $-1 $269 $270 $268 $271 forward $120 $-1 #
coedge $-1 -1 $-1 $272 $121 $273 $274 reversed $80 $-1 #
coedge $-1 -1 $-1 $121 $272 $123 $194 forward $80 $-1 #
coedge $-1 -1 $-1 $275 $276 $121 $189 forward $277 $-1 #
edge $-1 -1 $-1 $278 -3.1415926535897931 $279 -1.5707963267948966 $188 $280 forward @7 unknown #
coedge $-1 -1 $-1 $123 $122 $281 $282 reversed $54 $-1 #
coedge $-1 -1 $-1 $270 $269 $283 $192 reversed $120 $-1 #
edge $-1 -1 $-1 $198 -3.1750000000000007 $284 0 $283 $285 forward @7 unknown #
coedge $-1 -1 $-1 $286 $287 $288 $194 forward $289 $-1 #
edge $-1 -1 $-1 $199 -3.1750000000000007 $279 0 $193 $290 forward @7 unknown #
coedge $-1 -1 $-1 $196 $124 $287 $291 reversed $197 $-1 #
coedge $-1 -1 $-1 $124 $195 $292 $293 forward $197 $-1 #
loop $-1 -1 $-1 $-1 $124 $294 #
vertex $-1 -1 $-1 $295 $296 #
vertex $-1 -1 $-1 $297 $298 #
ellipse-curve $-1 -1 $-1 -7.1421341876779293e-032 1.5875000000000001 0 0 -1 0 6.3499999999999996 0 7.7762503467720954e-016 1 I I #
model_id-kcp-attrib $-1 -1 $-1 $-1 $127 1 1021480395 1021480396 -632487935 7 #
face $299 -1 $-1 $300 $301 $9 $-1 $302 forward single #
loop $-1 -1 $-1 $-1 $303 $127 #
cone-surface $-1 -1 $-1 0 -17.462499999999999 0 0 1 0 -25.399999999999995 0 0 1 I I -0.70710678118654746 0.70710678118654757 25.399999999999995 forward I I I I #
coedge $-1 -1 $-1 $132 $130 $212 $304 forward $84 $-1 #
coedge $-1 -1 $-1 $130 $132 $303 $305 reversed $84 $-1 #
edge $-1 -1 $-1 $306 3.7886214443157738e-015 $139 0.7853981633974525 $130 $307 forward @7 unknown #
coedge $-1 -1 $-1 $308 $309 $131 $209 reversed $301 $-1 #
edge $-1 -1 $-1 $306 -2.1079009750302071e-032 $210 3.1415926535897931 $208 $310 forward @7 unknown #
vertex $-1 -1 $-1 $209 $311 #
ellipse-curve $-1 -1 $-1 -5.556250000000003 1.2587179848663566 0 0 0 1 -0.5612660075668181 0.56126600756682099 0 1 I I #
coedge $-1 -1 $-1 $136 $134 $205 $304 reversed $128 $-1 #
straight-curve $-1 -1 $-1 -6.3499999999999996 0 -1.5552500693544191e-015 0 25.399999999999999 0 I I #
straight-curve $-1 -1 $-1 6.3499999999999996 0 7.7762503467720954e-016 0 25.399999999999999 0 I I #
point $-1 -1 $-1 6.3499999999999996 1.2587179848663552 7.7762503467720954e-016 #
point $-1 -1 $-1 -6.3499999999999996 1.2587179848663552 -1.5552500693544191e-015 #
coedge $-1 -1 $-1 $312 $142 $145 $224 reversed $219 $-1 #
coedge $-1 -1 $-1 $142 $312 $144 $223 forward $219 $-1 #
loop $-1 -1 $-1 $-1 $217 $313 #
attrib_edge_convexity-kcp-attrib $-1 -1 $314 $-1 $143 1 #
ellipse-curve $-1 -1 $-1 0 0 0 0 -1 0 3.5718749999999999 0 0 1 I I #
coedge $-1 -1 $-1 $145 $144 $315 $316 reversed $146 $-1 #
edge $-1 -1 $-1 $317 0 $149 0.0625 $218 $318 forward @7 unknown #
edge $-1 -1 $-1 $319 0 $148 0.0625 $217 $320 forward @7 unknown #
face $321 -1 $-1 $313 $146 $9 $-1 $322 reversed single #
convexity-sys-attrib $-1 -1 $-1 $147 $93 #
point $-1 -1 $-1 -3.5718749999999999 0 0 #
point $-1 -1 $-1 3.5718749999999999 0 0 #
convexity-sys-attrib $-1 -1 $-1 $151 $95 #
vertex $-1 -1 $-1 $157 $323 #
ellipse-curve $-1 -1 $-1 0 0 0 0 -1 0 -3.5718749999999999 0 0 1 I I #
point $-1 -1 $-1 -3.5718749999999999 1.5874999999999999 0 #
model_id-kcp-attrib $-1 -1 $-1 $-1 $160 1 1021480395 1021480396 -631832574 3 #
face $-1 -1 $-1 $-1 $175 $25 $-1 $324 reversed single #
loop $-1 -1 $-1 $-1 $250 $160 #
plane-surface $-1 -1 $-1 0 1.5875000000000001 0 0 -1 0 0 0 -1 forward_v I I I I #
coedge $-1 -1 $-1 $325 $248 $251 $326 forward $161 $-1 #
coedge $-1 -1 $-1 $254 $163 $164 $242 reversed $107 $-1 #
coedge $-1 -1 $-1 $248 $325 $163 $240 reversed $161 $-1 #
edge $-1 -1 $-1 $255 -6.3499999999999996 $327 6.3499999999999996 $239 $328 forward @7 unknown #
coedge $-1 -1 $-1 $165 $164 $325 $329 forward $71 $-1 #
edge $-1 -1 $-1 $246 -6.3499999999999996 $327 6.3499999999999996 $238 $330 forward @7 unknown #
coedge $-1 -1 $-1 $251 $250 $165 $244 reversed $235 $-1 #
edge $-1 -1 $-1 $331 -6.3499999999999996 $245 6.3499999999999996 $243 $332 forward @7 unknown #
vertex $-1 -1 $-1 $167 $333 #
vertex $-1 -1 $-1 $257 $334 #
straight-curve $-1 -1 $-1 6.3499999999999996 0 -6.3499999999999996 0 -1 0 I I #
coedge $-1 -1 $-1 $237 $239 $168 $249 reversed $161 $-1 #
edge $-1 -1 $-1 $252 -1.5875000000000001 $255 1.5875000000000001 $248 $335 forward @7 unknown #
coedge $-1 -1 $-1 $243 $169 $174 $258 forward $235 $-1 #
coedge $-1 -1 $-1 $169 $243 $237 $326 reversed $235 $-1 #
vertex $-1 -1 $-1 $170 $336 #
straight-curve $-1 -1 $-1 0 1.5875000000000001 6.3499999999999996 -1 0 0 I I #
coedge $-1 -1 $-1 $171 $238 $173 $257 reversed $107 $-1 #
vertex $-1 -1 $-1 $249 $337 #
straight-curve $-1 -1 $-1 0 -1.5875000000000001 6.3499999999999996 1 0 0 I I #
edge $-1 -1 $-1 $176 -6.3499999999999996 $246 6.3499999999999996 $173 $338 forward @7 unknown #
edge $-1 -1 $-1 $177 -6.3499999999999996 $245 6.3499999999999996 $174 $339 forward @7 unknown #
point $-1 -1 $-1 6.3499999999999996 -1.5875000000000001 6.3499999999999996 #
point $-1 -1 $-1 6.3499999999999996 1.5875000000000001 6.3499999999999996 #
convexity-sys-attrib $-1 -1 $-1 $-1 $180 #
vertex $-1 -1 $-1 $180 $340 #
ellipse-curve $-1 -1 $-1 0 0 0 0 -1 0 4.3656249999999996 0 0 1 I I #
point $-1 -1 $-1 -4.3656249999999996 1.5874999999999997 0 #
face $-1 -1 $-1 $341 $342 $29 $-1 $343 reversed single #
loop $-1 -1 $-1 $-1 $288 $183 #
plane-surface $-1 -1 $-1 0 0 6.3499999999999996 0 0 1 1 0 0 forward_v I I I I #
coedge $-1 -1 $-1 $344 $345 $346 $271 reversed $184 $-1 #
coedge $-1 -1 $-1 $191 $185 $347 $348 reversed $120 $-1 #
coedge $-1 -1 $-1 $185 $191 $349 $350 reversed $120 $-1 #
edge $-1 -1 $-1 $351 -3.1750000000000007 $352 0 $346 $353 forward @7 unknown #
coedge $-1 -1 $-1 $187 $186 $354 $355 reversed $80 $-1 #
coedge $-1 -1 $-1 $356 $357 $358 $274 forward $359 $-1 #
edge $-1 -1 $-1 $360 -3.1750000000000007 $278 0 $273 $361 forward @7 unknown #
coedge $-1 -1 $-1 $276 $188 $362 $363 reversed $277 $-1 #
coedge $-1 -1 $-1 $188 $275 $356 $364 forward $277 $-1 #
loop $-1 -1 $-1 $-1 $188 $365 #
vertex $-1 -1 $-1 $366 $367 #
vertex $-1 -1 $-1 $368 $369 #
ellipse-curve $-1 -1 $-1 -7.1421341876779293e-032 -1.5875000000000001 0 0 1 0 6.3499999999999996 0 7.7762503467720954e-016 1 I I #
coedge $-1 -1 $-1 $370 $371 $190 $282 forward $372 $-1 #
edge $-1 -1 $-1 $279 -1.5707963267948966 $284 1.2246063538223773e-016 $281 $280 forward @7 unknown #
coedge $-1 -1 $-1 $373 $374 $375 $192 forward $342 $-1 #
vertex $-1 -1 $-1 $376 $377 #
straight-curve $-1 -1 $-1 6.3499999999999996 -1.5875000000000001 0 0 -1 0 I I #
coedge $-1 -1 $-1 $378 $193 $371 $368 forward $289 $-1 #
coedge $-1 -1 $-1 $193 $378 $195 $291 forward $289 $-1 #
coedge $-1 -1 $-1 $379 $362 $187 $194 reversed $266 $-1 #
loop $-1 -1 $-1 $-1 $193 $380 #
straight-curve $-1 -1 $-1 -7.1421341876779293e-032 -1.5875000000000001 6.3499999999999996 0 -1 0 I I #
edge $-1 -1 $-1 $381 -6.3499999999999996 $199 7.1421341876779293e-032 $195 $382 forward @7 unknown #
coedge $-1 -1 $-1 $383 $375 $196 $293 reversed $384 $-1 #
edge $-1 -1 $-1 $381 -6.3499999999999996 $198 0 $292 $385 forward @7 unknown #
face $-1 -1 $-1 $386 $197 $29 $-1 $387 reversed single #
edge $-1 -1 $-1 $198 0 $388 6.3499999999999996 $374 $385 forward @7 unknown #
point $-1 -1 $-1 6.3499999999999996 1.5875000000000006 0 #
edge $-1 -1 $-1 $199 7.1421341876779293e-032 $389 6.3499999999999996 $390 $382 forward @7 unknown #
point $-1 -1 $-1 -7.1421341876779293e-032 1.5875000000000006 6.3499999999999996 #
model_id-kcp-attrib $-1 -1 $-1 $-1 $202 1 1021480395 1021480396 -632487935 8 #
face $391 -1 $-1 $392 $393 $9 $-1 $394 reversed single #
loop $-1 -1 $-1 $-1 $395 $202 #
cone-surface $-1 -1 $-1 0 -17.462499999999999 0 0 1 0 -25.399999999999995 0 0 1 I I -0.70710678118654746 0.70710678118654757 25.399999999999995 forward I I I I #
coedge $-1 -1 $-1 $396 $397 $206 $305 forward $203 $-1 #
edge $-1 -1 $-1 $139 0 $140 3.1415926535897931 $212 $398 forward @7 unknown #
edge $-1 -1 $-1 $306 2.1079009750302071e-032 $210 3.1415926535897931 $303 $399 forward @7 unknown #
vertex $-1 -1 $-1 $400 $401 #
ellipse-curve $-1 -1 $-1 5.556250000000003 1.2587179848663566 6.8042190534255947e-016 1.2246063538223689e-016 -3.4512664603419577e-031 -1 0.5612660075668181 0.56126600756682099 6.8732991905083729e-017 1 I I #
coedge $-1 -1 $-1 $395 $208 $397 $400 forward $301 $-1 #
coedge $-1 -1 $-1 $208 $395 $396 $402 reversed $301 $-1 #
ellipse-curve $-1 -1 $-1 0 1.8199839924331775 0 0 -1 0 6.1175160075668211 0 7.4915489724764316e-016 1 I I #
point $-1 -1 $-1 -6.1175160075668238 1.819983992433176 -1.4983097944952865e-015 #
coedge $-1 -1 $-1 $218 $217 $403 $404 reversed $219 $-1 #
face $405 -1 $-1 $-1 $219 $9 $-1 $406 reversed single #
convexity-sys-attrib $-1 -1 $-1 $220 $143 #
coedge $-1 -1 $-1 $403 $403 $222 $316 forward $407 $-1 #
edge $408 -1 $-1 $319 0 $317 3.1415926535897931 $315 $409 forward @7 unknown #
vertex $-1 -1 $-1 $404 $410 #
straight-curve $-1 -1 $-1 3.5718749999999999 1.5874999999999999 0 0 -25.399999999999999 0 I I #
vertex $-1 -1 $-1 $404 $411 #
straight-curve $-1 -1 $-1 -3.5718749999999999 1.5874999999999999 4.3741408200593035e-016 0 -25.399999999999999 0 I I #
model_id-kcp-attrib $-1 -1 $-1 $-1 $225 1 1021480395 1021480396 -632487935 13 #
cone-surface $-1 -1 $-1 0 3.1749999999999998 0 0 -1 0 3.5718749999999999 0 0 1 I I 0 1 3.5718749999999999 forward I I I I #
point $-1 -1 $-1 3.5718749999999999 0 0 #
plane-surface $-1 -1 $-1 6.3499999999999996 0 0 -1 0 0 0 0 1 forward_v I I I I #
coedge $-1 -1 $-1 $239 $237 $241 $329 reversed $161 $-1 #
edge $-1 -1 $-1 $252 -6.3499999999999996 $331 6.3499999999999996 $251 $412 forward @7 unknown #
vertex $-1 -1 $-1 $329 $413 #
straight-curve $-1 -1 $-1 -6.3499999999999996 -1.5875000000000001 0 0 0 -1 I I #
edge $-1 -1 $-1 $327 -1.5875000000000001 $331 1.5875000000000001 $325 $414 forward @7 unknown #
straight-curve $-1 -1 $-1 0 -1.5875000000000001 -6.3499999999999996 -1 0 0 I I #
vertex $-1 -1 $-1 $244 $415 #
straight-curve $-1 -1 $-1 0 1.5875000000000001 -6.3499999999999996 1 0 0 I I #
point $-1 -1 $-1 6.3499999999999996 1.5875000000000001 -6.3499999999999996 #
point $-1 -1 $-1 6.3499999999999996 -1.5875000000000001 -6.3499999999999996 #
straight-curve $-1 -1 $-1 -6.3499999999999996 0 6.3499999999999996 0 -1 0 I I #
point $-1 -1 $-1 -6.3499999999999996 1.5875000000000001 6.3499999999999996 #
point $-1 -1 $-1 -6.3499999999999996 -1.5875000000000001 6.3499999999999996 #
straight-curve $-1 -1 $-1 6.3499999999999996 -1.5875000000000001 0 0 0 -1 I I #
straight-curve $-1 -1 $-1 6.3499999999999996 1.5875000000000001 0 0 0 -1 I I #
point $-1 -1 $-1 4.3656249999999996 -2.2204460492503131e-016 0 #
face $-1 -1 $-1 $416 $417 $29 $-1 $418 reversed single #
loop $-1 -1 $-1 $-1 $283 $265 #
plane-surface $-1 -1 $-1 6.3499999999999996 0 0 -1 0 0 0 0 1 forward_v I I I I #
coedge $-1 -1 $-1 $419 $268 $420 $421 reversed $184 $-1 #
coedge $-1 -1 $-1 $268 $419 $422 $423 reversed $184 $-1 #
coedge $-1 -1 $-1 $424 $425 $426 $271 forward $427 $-1 #
coedge $-1 -1 $-1 $428 $429 $269 $348 forward $430 $-1 #
edge $-1 -1 $-1 $284 1.2246063538223773e-016 $352 1.5707963267948968 $347 $280 forward @7 unknown #
coedge $-1 -1 $-1 $431 $432 $270 $350 forward $433 $-1 #
edge $-1 -1 $-1 $351 -1.5707963267948968 $198 -1.2246063538223773e-016 $349 $200 forward @7 unknown #
vertex $-1 -1 $-1 $434 $435 #
vertex $-1 -1 $-1 $436 $437 #
straight-curve $-1 -1 $-1 -7.1421341876779293e-032 -1.5875000000000001 -6.3499999999999996 0 -1 0 I I #
coedge $-1 -1 $-1 $438 $390 $272 $355 forward $439 $-1 #
edge $-1 -1 $-1 $199 1.5707963267948966 $360 3.1415926535897931 $354 $200 forward @7 unknown #
coedge $-1 -1 $-1 $440 $273 $276 $364 reversed $359 $-1 #
coedge $-1 -1 $-1 $273 $440 $438 $441 forward $359 $-1 #
coedge $-1 -1 $-1 $442 $443 $419 $274 reversed $417 $-1 #
loop $-1 -1 $-1 $-1 $273 $444 #
vertex $-1 -1 $-1 $445 $446 #
straight-curve $-1 -1 $-1 -6.3499999999999996 -1.5875000000000001 0 0 -1 0 I I #
coedge $-1 -1 $-1 $288 $447 $275 $363 forward $266 $-1 #
edge $-1 -1 $-1 $448 -6.3499999999999996 $279 -7.1421341876779293e-032 $275 $449 forward @7 unknown #
edge $-1 -1 $-1 $448 -6.3499999999999996 $278 0 $356 $450 forward @7 unknown #
face $-1 -1 $-1 $451 $277 $29 $-1 $452 reversed single #
edge $-1 -1 $-1 $278 0 $453 6.3499999999999996 $443 $450 forward @7 unknown #
point $-1 -1 $-1 -6.3499999999999996 -1.5875000000000001 0 #
edge $-1 -1 $-1 $279 -7.1421341876779293e-032 $454 6.3499999999999996 $371 $449 forward @7 unknown #
point $-1 -1 $-1 -7.1421341876779293e-032 -1.5875000000000001 6.3499999999999996 #
coedge $-1 -1 $-1 $371 $281 $455 $456 reversed $372 $-1 #
coedge $-1 -1 $-1 $281 $370 $286 $368 reversed $372 $-1 #
loop $-1 -1 $-1 $-1 $281 $451 #
coedge $-1 -1 $-1 $457 $283 $429 $376 forward $342 $-1 #
coedge $-1 -1 $-1 $283 $457 $431 $295 reversed $342 $-1 #
coedge $-1 -1 $-1 $292 $455 $122 $192 reversed $384 $-1 #
edge $-1 -1 $-1 $284 0 $458 6.3499999999999996 $373 $459 forward @7 unknown #
point $-1 -1 $-1 6.3499999999999996 -1.5875000000000001 0 #
coedge $-1 -1 $-1 $287 $286 $383 $460 forward $289 $-1 #
coedge $-1 -1 $-1 $447 $288 $390 $297 forward $266 $-1 #
face $-1 -1 $-1 $461 $289 $29 $-1 $267 forward single #
vertex $-1 -1 $-1 $460 $462 #
straight-curve $-1 -1 $-1 0 1.5875000000000001 6.3499999999999996 -1 0 0 I I #
coedge $-1 -1 $-1 $455 $292 $378 $460 reversed $384 $-1 #
loop $-1 -1 $-1 $-1 $375 $463 #
straight-curve $-1 -1 $-1 6.3499999999999996 1.5875000000000001 0 0 0 -1 I I #
face $-1 -1 $-1 $464 $439 $29 $-1 $387 reversed single #
plane-surface $-1 -1 $-1 0 1.5875000000000001 0 0 -1 0 0 0 -1 forward_v I I I I #
vertex $-1 -1 $-1 $465 $466 #
vertex $-1 -1 $-1 $297 $467 #
coedge $-1 -1 $-1 $354 $438 $379 $297 reversed $439 $-1 #
model_id-kcp-attrib $-1 -1 $-1 $-1 $300 1 1021480395 1021480396 -632487935 9 #
face $468 -1 $-1 $469 $470 $9 $-1 $471 reversed single #
loop $-1 -1 $-1 $472 $473 $300 #
plane-surface $-1 -1 $-1 0 3.1749999999999998 0 0 -1 0 -25.399999999999999 0 0 forward_v I I I I #
coedge $-1 -1 $-1 $309 $308 $473 $474 forward $301 $-1 #
coedge $-1 -1 $-1 $475 $303 $309 $402 forward $203 $-1 #
coedge $-1 -1 $-1 $303 $475 $308 $400 reversed $203 $-1 #
ellipse-curve $-1 -1 $-1 0 1.2587179848663552 0 0 1 0 6.3499999999999996 0 7.7762503467720954e-016 1 I I #
ellipse-curve $-1 -1 $-1 0 1.8199839924331775 0 0 1 0 6.1175160075668211 0 7.4915489724764316e-016 1 I I #
edge $-1 -1 $-1 $306 0 $476 0.075444173824159341 $308 $477 forward @7 unknown #
point $-1 -1 $-1 6.1175160075668238 1.819983992433176 7.4915489724764326e-016 #
edge $-1 -1 $-1 $210 0 $478 0.075444173824159341 $309 $479 forward @7 unknown #
coedge $-1 -1 $-1 $315 $315 $312 $404 forward $407 $-1 #
edge $480 -1 $-1 $317 0 $319 3.1415926535897931 $403 $481 forward @7 unknown #
model_id-kcp-attrib $-1 -1 $-1 $-1 $313 1 1021480395 1021480396 -632487935 14 #
cone-surface $-1 -1 $-1 0 3.1749999999999998 0 0 -1 0 3.5718749999999999 0 0 1 I I 0 1 3.5718749999999999 forward I I I I #
loop $-1 -1 $-1 $-1 $315 $482 #
attrib_edge_convexity-kcp-attrib $-1 -1 $483 $-1 $316 1 #
ellipse-curve $-1 -1 $-1 0 1.5874999999999999 0 0 -1 0 -3.5718749999999999 0 0 1 I I #
point $-1 -1 $-1 3.5718749999999999 1.5874999999999999 0 #
point $-1 -1 $-1 -3.5718749999999999 1.5874999999999999 0 #
straight-curve $-1 -1 $-1 -6.3499999999999996 1.5875000000000001 0 0 0 -1 I I #
point $-1 -1 $-1 -6.3499999999999996 -1.5875000000000001 -6.3499999999999996 #
straight-curve $-1 -1 $-1 -6.3499999999999996 0 -6.3499999999999996 0 1 0 I I #
point $-1 -1 $-1 -6.3499999999999996 1.5875000000000001 -6.3499999999999996 #
face $-1 -1 $-1 $365 $484 $29 $-1 $452 reversed single #
loop $-1 -1 $-1 $-1 $358 $341 #
plane-surface $-1 -1 $-1 -6.3499999999999996 0 0 1 0 0 0 0 -1 forward_v I I I I #
coedge $-1 -1 $-1 $345 $344 $186 $274 forward $184 $-1 #
coedge $-1 -1 $-1 $485 $486 $344 $421 forward $487 $-1 #
edge $-1 -1 $-1 $360 -3.1415926535897931 $351 -1.5707963267948968 $420 $200 forward @7 unknown #
coedge $-1 -1 $-1 $488 $489 $345 $423 forward $484 $-1 #
edge $-1 -1 $-1 $352 1.5707963267948968 $278 3.1415926535897931 $422 $280 forward @7 unknown #
coedge $-1 -1 $-1 $490 $346 $489 $436 forward $427 $-1 #
coedge $-1 -1 $-1 $346 $490 $485 $491 forward $427 $-1 #
coedge $-1 -1 $-1 $492 $493 $185 $271 reversed $494 $-1 #
loop $-1 -1 $-1 $-1 $346 $461 #
coedge $-1 -1 $-1 $429 $347 $493 $495 reversed $430 $-1 #
coedge $-1 -1 $-1 $347 $428 $373 $376 reversed $430 $-1 #
loop $-1 -1 $-1 $-1 $347 $496 #
coedge $-1 -1 $-1 $432 $349 $374 $295 forward $433 $-1 #
coedge $-1 -1 $-1 $349 $431 $492 $434 reversed $433 $-1 #
loop $-1 -1 $-1 $-1 $349 $497 #
edge $-1 -1 $-1 $351 -7.1421341876779293e-032 $388 6.3499999999999996 $432 $498 forward @7 unknown #
point $-1 -1 $-1 -7.1421341876779293e-032 1.5875000000000006 -6.3499999999999996 #
edge $-1 -1 $-1 $352 7.1421341876779293e-032 $453 6.3499999999999996 $489 $499 forward @7 unknown #
point $-1 -1 $-1 -7.1421341876779293e-032 -1.5875000000000001 -6.3499999999999996 #
coedge $-1 -1 $-1 $390 $354 $357 $441 reversed $439 $-1 #
loop $-1 -1 $-1 $-1 $354 $386 #
coedge $-1 -1 $-1 $357 $356 $447 $500 reversed $359 $-1 #
edge $-1 -1 $-1 $389 -6.3499999999999996 $360 0 $438 $501 forward @7 unknown #
coedge $-1 -1 $-1 $502 $358 $486 $445 forward $417 $-1 #
coedge $-1 -1 $-1 $358 $502 $488 $366 reversed $417 $-1 #
face $-1 -1 $-1 $463 $359 $29 $-1 $418 reversed single #
edge $-1 -1 $-1 $360 0 $503 6.3499999999999996 $486 $501 forward @7 unknown #
point $-1 -1 $-1 -6.3499999999999996 1.5875000000000006 0 #
coedge $-1 -1 $-1 $362 $379 $440 $500 forward $266 $-1 #
vertex $-1 -1 $-1 $500 $504 #
straight-curve $-1 -1 $-1 0 -1.5875000000000001 6.3499999999999996 1 0 0 I I #
straight-curve $-1 -1 $-1 -6.3499999999999996 -1.5875000000000001 0 0 0 -1 I I #
face $-1 -1 $-1 $496 $372 $29 $-1 $452 reversed single #
plane-surface $-1 -1 $-1 0 -1.5875000000000001 0 0 1 0 0 0 1 forward_v I I I I #
vertex $-1 -1 $-1 $505 $506 #
vertex $-1 -1 $-1 $460 $507 #
coedge $-1 -1 $-1 $375 $383 $370 $456 forward $384 $-1 #
edge $-1 -1 $-1 $454 -6.3499999999999996 $284 0 $455 $459 forward @7 unknown #
coedge $-1 -1 $-1 $374 $373 $508 $465 reversed $342 $-1 #
vertex $-1 -1 $-1 $376 $509 #
straight-curve $-1 -1 $-1 6.3499999999999996 -1.5875000000000001 0 0 0 -1 I I #
edge $-1 -1 $-1 $454 -1.5875000000000001 $381 1.5875000000000001 $383 $510 forward @7 unknown #
face $-1 -1 $-1 $444 $427 $29 $-1 $511 reversed single #
point $-1 -1 $-1 6.3499999999999996 1.5875000000000001 6.3499999999999996 #
face $-1 -1 $-1 $-1 $384 $29 $-1 $343 reversed single #
face $-1 -1 $-1 $512 $487 $29 $-1 $387 reversed single #
edge $-1 -1 $-1 $388 -1.5875000000000001 $458 1.5875000000000001 $457 $513 forward @7 unknown #
point $-1 -1 $-1 6.3499999999999996 1.5875000000000001 -6.3499999999999996 #
point $-1 -1 $-1 -6.3499999999999996 1.5875000000000001 6.3499999999999996 #
model_id-kcp-attrib $-1 -1 $-1 $-1 $392 1 1021480395 1021480396 -632487935 10 #
face $514 -1 $-1 $482 $515 $9 $-1 $516 reversed single #
loop $-1 -1 $-1 $-1 $517 $392 #
cone-surface $-1 -1 $-1 0 3.1749999999999998 0 0 -1 0 4.3656249999999996 0 0 1 I I 0 1 4.3656249999999996 forward I I I I #
loop $-1 -1 $-1 $-1 $518 $300 #
coedge $-1 -1 $-1 $519 $519 $395 $474 reversed $393 $-1 #
edge $-1 -1 $-1 $476 1.2246063538223765e-016 $478 3.1415926535897931 $395 $520 forward @7 unknown #
coedge $-1 -1 $-1 $397 $396 $519 $521 reversed $203 $-1 #
vertex $-1 -1 $-1 $400 $522 #
straight-curve $-1 -1 $-1 6.1175160075668238 1.819983992433176 7.4915489724764326e-016 -17.960512242138307 17.960512242138307 -2.1994557409627188e-015 I I #
vertex $-1 -1 $-1 $402 $523 #
straight-curve $-1 -1 $-1 -6.1175160075668238 1.819983992433176 -1.4983097944952865e-015 17.960512242138307 17.960512242138307 4.3989114819254375e-015 I I #
attrib_edge_convexity-kcp-attrib $-1 -1 $524 $-1 $404 1 #
ellipse-curve $-1 -1 $-1 0 1.5874999999999999 0 0 -1 0 3.5718749999999999 0 0 1 I I #
face $525 -1 $-1 $225 $526 $9 $-1 $527 reversed single #
convexity-sys-attrib $-1 -1 $-1 $408 $316 #
loop $-1 -1 $-1 $-1 $422 $416 #
coedge $-1 -1 $-1 $486 $420 $425 $491 reversed $487 $-1 #
coedge $-1 -1 $-1 $420 $485 $442 $445 reversed $487 $-1 #
loop $-1 -1 $-1 $-1 $420 $464 #
coedge $-1 -1 $-1 $489 $422 $443 $366 forward $484 $-1 #
coedge $-1 -1 $-1 $422 $488 $424 $436 reversed $484 $-1 #
coedge $-1 -1 $-1 $425 $424 $502 $505 forward $427 $-1 #
edge $-1 -1 $-1 $503 -6.3499999999999996 $351 -7.1421341876779293e-032 $485 $498 forward @7 unknown #
coedge $-1 -1 $-1 $508 $426 $432 $434 forward $494 $-1 #
coedge $-1 -1 $-1 $426 $508 $428 $495 forward $494 $-1 #
loop $-1 -1 $-1 $-1 $426 $512 #
edge $-1 -1 $-1 $458 -6.3499999999999996 $352 7.1421341876779293e-032 $428 $499 forward @7 unknown #
face $-1 -1 $-1 $497 $430 $29 $-1 $452 reversed single #
face $-1 -1 $-1 $294 $433 $29 $-1 $387 reversed single #
straight-curve $-1 -1 $-1 0 1.5875000000000001 -6.3499999999999996 1 0 0 I I #
straight-curve $-1 -1 $-1 0 -1.5875000000000001 -6.3499999999999996 -1 0 0 I I #
edge $-1 -1 $-1 $389 -1.5875000000000001 $448 1.5875000000000001 $440 $528 forward @7 unknown #
straight-curve $-1 -1 $-1 -6.3499999999999996 1.5875000000000001 0 0 0 -1 I I #
coedge $-1 -1 $-1 $443 $442 $490 $505 reversed $417 $-1 #
vertex $-1 -1 $-1 $491 $529 #
point $-1 -1 $-1 -6.3499999999999996 -1.5875000000000001 6.3499999999999996 #
edge $-1 -1 $-1 $453 -1.5875000000000001 $503 1.5875000000000001 $502 $530 forward @7 unknown #
point $-1 -1 $-1 -6.3499999999999996 -1.5875000000000001 -6.3499999999999996 #
point $-1 -1 $-1 6.3499999999999996 -1.5875000000000001 6.3499999999999996 #
coedge $-1 -1 $-1 $493 $492 $457 $465 forward $494 $-1 #
point $-1 -1 $-1 6.3499999999999996 -1.5875000000000001 -6.3499999999999996 #
straight-curve $-1 -1 $-1 6.3499999999999996 0 6.3499999999999996 0 1 0 I I #
plane-surface $-1 -1 $-1 0 0 -6.3499999999999996 0 0 1 1 0 0 forward_v I I I I #
face $-1 -1 $-1 $380 $494 $29 $-1 $511 reversed single #
straight-curve $-1 -1 $-1 6.3499999999999996 0 -6.3499999999999996 0 -1 0 I I #
model_id-kcp-attrib $-1 -1 $-1 $-1 $469 1 1021480395 1021480396 -632487935 11 #
loop $-1 -1 $-1 $-1 $531 $469 #
cone-surface $-1 -1 $-1 0 3.1749999999999998 0 0 -1 0 4.3656249999999996 0 0 1 I I 0 1 4.3656249999999996 forward I I I I #
coedge $-1 -1 $-1 $532 $533 $534 $535 forward $470 $-1 #
coedge $-1 -1 $-1 $536 $536 $533 $537 forward $472 $-1 #
coedge $-1 -1 $-1 $473 $473 $475 $521 forward $393 $-1 #
ellipse-curve $-1 -1 $-1 -3.5249581031848718e-016 3.1749999999999998 -3.5249581031848718e-016 0 -1 0 4.7624999999999993 0 3.5249581031848718e-016 1 I I #
edge $-1 -1 $-1 $476 -1.2246063538223765e-016 $478 3.1415926535897931 $519 $538 forward @7 unknown #
point $-1 -1 $-1 4.7624999999999993 3.1749999999999998 5.8321877600790683e-016 #
point $-1 -1 $-1 -4.7624999999999993 3.1749999999999998 0 #
convexity-sys-attrib $-1 -1 $-1 $480 $404 #
model_id-kcp-attrib $-1 -1 $-1 $-1 $482 1 1021480395 1021480396 -632487935 12 #
loop $-1 -1 $-1 $407 $539 $482 #
plane-surface $-1 -1 $-1 0 1.5874999999999999 0 0 -1 0 25.399999999999999 0 0 forward_v I I I I #
straight-curve $-1 -1 $-1 -6.3499999999999996 0 6.3499999999999996 0 -1 0 I I #
point $-1 -1 $-1 -6.3499999999999996 1.5875000000000001 -6.3499999999999996 #
straight-curve $-1 -1 $-1 -6.3499999999999996 0 -6.3499999999999996 0 1 0 I I #
coedge $-1 -1 $-1 $540 $541 $542 $543 forward $515 $-1 #
coedge $-1 -1 $-1 $542 $517 $539 $544 forward $470 $-1 #
coedge $-1 -1 $-1 $517 $542 $518 $537 reversed $470 $-1 #
coedge $-1 -1 $-1 $541 $540 $517 $535 reversed $515 $-1 #
edge $-1 -1 $-1 $545 0 $546 0.0625 $534 $547 forward @7 unknown #
coedge $-1 -1 $-1 $518 $518 $541 $548 forward $472 $-1 #
edge $-1 -1 $-1 $545 0 $549 3.1415926535897931 $518 $550 forward @7 unknown #
ellipse-curve $-1 -1 $-1 -3.5249581031848718e-016 3.1749999999999998 3.5249581031848718e-016 0 1 0 4.7624999999999993 0 -3.5249581031848718e-016 1 I I #
coedge $-1 -1 $-1 $551 $551 $532 $544 reversed $526 $-1 #
coedge $-1 -1 $-1 $534 $531 $551 $552 forward $515 $-1 #
coedge $-1 -1 $-1 $531 $534 $536 $548 reversed $515 $-1 #
coedge $-1 -1 $-1 $533 $532 $531 $543 reversed $470 $-1 #
edge $-1 -1 $-1 $549 0 $553 0.0625 $531 $554 forward @7 unknown #
edge $555 -1 $-1 $546 0 $553 3.1415926535897931 $539 $556 forward @7 unknown #
vertex $-1 -1 $-1 $548 $557 #
vertex $-1 -1 $-1 $552 $558 #
straight-curve $-1 -1 $-1 -4.3656249999999996 3.1749999999999998 5.3461721134058155e-016 0 -25.399999999999999 0 I I #
edge $-1 -1 $-1 $549 0 $545 3.1415926535897931 $536 $559 forward @7 unknown #
vertex $-1 -1 $-1 $548 $560 #
ellipse-curve $-1 -1 $-1 0 3.1749999999999998 0 0 -1 0 -4.3656249999999996 0 0 1 I I #
coedge $-1 -1 $-1 $539 $539 $540 $552 reversed $526 $-1 #
edge $561 -1 $-1 $553 0 $546 3.1415926535897931 $551 $562 forward @7 unknown #
vertex $-1 -1 $-1 $552 $563 #
straight-curve $-1 -1 $-1 4.3656249999999996 3.1749999999999998 0 0 -25.399999999999999 0 I I #
attrib_edge_convexity-kcp-attrib $-1 -1 $564 $-1 $544 2 #
ellipse-curve $-1 -1 $-1 0 1.5874999999999999 0 0 -1 0 -4.3656249999999996 0 0 1 I I #
point $-1 -1 $-1 -4.3656249999999996 3.1749999999999998 0 #
point $-1 -1 $-1 -4.3656249999999996 1.5874999999999999 0 #
ellipse-curve $-1 -1 $-1 0 3.1749999999999998 0 0 -1 0 4.3656249999999996 0 0 1 I I #
point $-1 -1 $-1 4.3656249999999996 3.1749999999999998 0 #
attrib_edge_convexity-kcp-attrib $-1 -1 $565 $-1 $552 2 #
ellipse-curve $-1 -1 $-1 0 1.5874999999999999 0 0 -1 0 4.3656249999999996 0 0 1 I I #
point $-1 -1 $-1 4.3656249999999996 1.5874999999999999 0 #
convexity-sys-attrib $-1 -1 $-1 $555 $544 #
convexity-sys-attrib $-1 -1 $-1 $561 $552 #
End-of-ACIS-data 