600 0 1 0           
99 GICL Pro/E ACIS Translator - Source: f:/data5/repository/PTC/V18/reel18/areel/bail_spacer.prt - 6 0 13 ACIS 6.0.3 NT 24 Thu Apr 04 09:57:07 2002 
1 9.9999999999999995e-007 1e-010 
body $-1 $1 $-1 $2 #
lump $-1 $-1 $3 $0 #
transform $-1 1 0 0 0 1 0 0 0 1 0 0 0 25.399999999999999 no_rotate no_reflect no_shear #
shell $-1 $-1 $-1 $4 $-1 $1 #
face $-1 $5 $6 $3 $-1 $7 forward single #
face $-1 $8 $9 $3 $-1 $10 forward single #
loop $-1 $11 $12 $4 #
plane-surface $-1 0 0 0 0 -1 0 -1 0 0 forward_v I I I I #
face $-1 $13 $14 $3 $-1 $15 forward single #
loop $-1 $-1 $16 $5 #
cone-surface $-1 0 0.13125000000000009 0 0 -1 0 -0.25 0 0 1 I I 0 1 0.25 forward I I I I #
loop $-1 $-1 $17 $4 #
coedge $-1 $18 $18 $19 $20 forward $6 $-1 #
face $-1 $21 $22 $3 $-1 $23 forward single #
loop $-1 $-1 $24 $8 #
torus-surface $-1 0 0.049555826175840756 0 0 -1 0 0.21875 0.03125 -1 0 0 forward_v I I I I #
coedge $-1 $25 $26 $27 $28 forward $9 $-1 #
coedge $-1 $29 $29 $30 $31 reversed $11 $-1 #
coedge $-1 $12 $12 $32 $33 reversed $6 $-1 #
coedge $-1 $26 $25 $12 $20 reversed $9 $-1 #
edge $-1 $34 0 $35 3.1415926535897931 $12 $36 forward 7 unknown #
face $-1 $37 $38 $3 $-1 $39 forward single #
loop $-1 $-1 $40 $13 #
torus-surface $-1 0 0.049555826175840756 0 0 -1 0 0.21875 0.03125 -1 0 0 forward_v I I I I #
coedge $-1 $27 $41 $42 $43 forward $14 $-1 #
coedge $-1 $19 $16 $44 $45 reversed $9 $-1 #
coedge $-1 $16 $19 $46 $47 forward $9 $-1 #
coedge $-1 $48 $24 $16 $28 reversed $14 $-1 #
edge $-1 $49 0 $50 3.1415926535897931 $16 $51 forward 7 unknown #
coedge $-1 $17 $17 $52 $53 reversed $11 $-1 #
coedge $-1 $54 $55 $17 $31 forward $56 $-1 #
edge $-1 $57 0 $58 3.1415926535897931 $17 $59 forward 7 unknown #
coedge $-1 $44 $46 $18 $33 forward $38 $-1 #
edge $-1 $34 0 $35 3.1415926535897931 $18 $60 forward 7 unknown #
vertex $-1 $33 $61 #
vertex $-1 $33 $62 #
ellipse-curve $-1 6.9388939039072284e-018 0 0 0 -1 0 0.25 0 3.0615158845559431e-017 1 I I #
face $-1 $63 $64 $3 $-1 $65 forward single #
loop $-1 $-1 $32 $21 #
cone-surface $-1 0 0.13125000000000009 0 0 -1 0 -0.25 0 0 1 I I 0 1 0.25 forward I I I I #
coedge $-1 $66 $67 $48 $68 forward $22 $-1 #
coedge $-1 $24 $48 $69 $70 forward $14 $-1 #
coedge $-1 $67 $66 $24 $43 reversed $22 $-1 #
edge $-1 $71 3.1086244689504643e-015 $50 0.7853981633974525 $42 $72 forward 7 unknown #
coedge $-1 $73 $32 $25 $45 forward $38 $-1 #
edge $-1 $35 0 $50 0.049555826175840756 $25 $74 forward 7 unknown #
coedge $-1 $32 $73 $26 $47 reversed $38 $-1 #
edge $-1 $34 0 $49 0.049555826175840756 $26 $75 forward 7 unknown #
coedge $-1 $41 $27 $40 $68 reversed $14 $-1 #
vertex $-1 $47 $76 #
vertex $-1 $45 $77 #
ellipse-curve $-1 0 0.049555826175840756 0 0 -1 0 0.25 0 3.0615158845559431e-017 1 I I #
coedge $-1 $78 $79 $29 $53 forward $80 $-1 #
edge $-1 $58 0 $57 3.1415926535897931 $29 $81 forward 7 unknown #
coedge $-1 $82 $30 $79 $83 reversed $56 $-1 #
coedge $-1 $30 $82 $78 $84 forward $56 $-1 #
loop $-1 $-1 $54 $85 #
vertex $-1 $53 $86 #
vertex $-1 $53 $87 #
ellipse-curve $-1 0 0 0 0 -1 0 -0.140625 0 0 1 I I #
ellipse-curve $-1 1.3877787807814457e-017 0 6.9388939039072284e-018 0 1 0 0.25 0 2.3676264941652203e-017 1 I I #
point $-1 0.25 0 3.0615158845559431e-017 #
point $-1 -0.25 0 -6.1230317691118863e-017 #
face $-1 $88 $89 $3 $-1 $90 forward single #
loop $-1 $-1 $91 $37 #
cone-surface $-1 0 -0.6875 0 0 1 0 -0.99999999999999989 0 0 1 I I -0.70710678118654746 0.70710678118654757 0.99999999999999989 forward I I I I #
coedge $-1 $42 $40 $73 $92 forward $22 $-1 #
coedge $-1 $40 $42 $91 $93 reversed $22 $-1 #
edge $-1 $94 3.1086244689504643e-015 $49 0.7853981633974525 $40 $95 forward 7 unknown #
coedge $-1 $96 $97 $41 $70 reversed $89 $-1 #
edge $-1 $94 0 $71 3.1415926535897931 $69 $98 forward 7 unknown #
vertex $-1 $70 $99 #
ellipse-curve $-1 -0.21875000000000014 0.049555826175840811 0 0 0 1 -0.022097086912079456 0.022097086912079567 0 1 I I #
coedge $-1 $46 $44 $66 $92 reversed $38 $-1 #
straight-curve $-1 -0.25 0 -6.1230317691118863e-017 0 1 0 I I #
straight-curve $-1 0.25 0 3.0615158845559431e-017 0 1 0 I I #
point $-1 0.25 0.049555826175840756 3.0615158845559431e-017 #
point $-1 -0.25 0.049555826175840756 -6.1230317691118863e-017 #
coedge $-1 $100 $52 $55 $84 reversed $80 $-1 #
coedge $-1 $52 $100 $54 $83 forward $80 $-1 #
loop $-1 $-1 $78 $101 #
ellipse-curve $-1 0 0 0 0 -1 0 0.140625 0 0 1 I I #
coedge $-1 $55 $54 $102 $103 reversed $56 $-1 #
edge $-1 $104 0 $58 0.0625 $79 $105 forward 7 unknown #
edge $-1 $106 0 $57 0.0625 $78 $107 forward 7 unknown #
face $-1 $101 $56 $3 $-1 $108 reversed single #
point $-1 -0.140625 0 0 #
point $-1 0.140625 0 0 #
face $-1 $109 $110 $3 $-1 $111 reversed single #
loop $-1 $-1 $112 $63 #
cone-surface $-1 0 -0.6875 0 0 1 0 -0.99999999999999989 0 0 1 I I -0.70710678118654746 0.70710678118654757 0.99999999999999989 forward I I I I #
coedge $-1 $113 $114 $67 $93 forward $64 $-1 #
edge $-1 $49 0 $50 3.1415926535897931 $73 $115 forward 7 unknown #
edge $-1 $94 0 $71 3.1415926535897931 $91 $116 forward 7 unknown #
vertex $-1 $117 $118 #
ellipse-curve $-1 0.21875000000000014 0.049555826175840811 2.6788263989864546e-017 1.2246063538223689e-016 -3.4512664603419577e-031 -1 0.022097086912079456 0.022097086912079567 2.7060233033497531e-018 1 I I #
coedge $-1 $112 $69 $114 $117 forward $89 $-1 #
coedge $-1 $69 $112 $113 $119 reversed $89 $-1 #
ellipse-curve $-1 0 0.071652913087920378 0 0 -1 0 0.24084708691207959 0 2.9494287293214299e-017 1 I I #
point $-1 -0.24084708691207968 0.071652913087920322 -5.898857458642861e-017 #
coedge $-1 $79 $78 $120 $121 reversed $80 $-1 #
face $-1 $-1 $80 $3 $-1 $122 reversed single #
coedge $-1 $120 $120 $82 $103 forward $123 $-1 #
edge $-1 $106 0 $104 3.1415926535897931 $102 $124 forward 7 unknown #
vertex $-1 $121 $125 #
straight-curve $-1 0.140625 0.0625 0 0 -1 0 I I #
vertex $-1 $121 $126 #
straight-curve $-1 -0.140625 0.0625 1.722102685062718e-017 0 -1 0 I I #
cone-surface $-1 0 0.125 0 0 -1 0 0.140625 0 0 1 I I 0 1 0.140625 forward I I I I #
face $-1 $127 $128 $3 $-1 $129 reversed single #
loop $-1 $130 $131 $88 #
plane-surface $-1 0 0.125 0 0 -1 0 -1 0 0 forward_v I I I I #
coedge $-1 $97 $96 $131 $132 forward $89 $-1 #
coedge $-1 $133 $91 $97 $119 forward $64 $-1 #
coedge $-1 $91 $133 $96 $117 reversed $64 $-1 #
ellipse-curve $-1 0 0.049555826175840756 0 0 1 0 0.25 0 3.0615158845559431e-017 1 I I #
ellipse-curve $-1 0 0.071652913087920378 0 0 1 0 0.24084708691207959 0 2.9494287293214299e-017 1 I I #
edge $-1 $94 0 $134 0.075444173824159327 $96 $135 forward 7 unknown #
point $-1 0.24084708691207968 0.071652913087920322 2.9494287293214305e-017 #
edge $-1 $71 0 $136 0.075444173824159327 $97 $137 forward 7 unknown #
coedge $-1 $102 $102 $100 $121 forward $123 $-1 #
edge $-1 $104 0 $106 3.1415926535897931 $120 $138 forward 7 unknown #
cone-surface $-1 0 0.125 0 0 -1 0 0.140625 0 0 1 I I 0 1 0.140625 forward I I I I #
loop $-1 $-1 $102 $139 #
ellipse-curve $-1 0 0.0625 0 0 -1 0 -0.140625 0 0 1 I I #
point $-1 0.140625 0.0625 0 #
point $-1 -0.140625 0.0625 0 #
face $-1 $139 $140 $3 $-1 $141 reversed single #
loop $-1 $-1 $142 $109 #
cone-surface $-1 0 0.125 0 0 -1 0 0.171875 0 0 1 I I 0 1 0.171875 forward I I I I #
loop $-1 $-1 $143 $88 #
coedge $-1 $144 $144 $112 $132 reversed $110 $-1 #
edge $-1 $134 1.2246063538223765e-016 $136 3.1415926535897931 $112 $145 forward 7 unknown #
coedge $-1 $114 $113 $144 $146 reversed $64 $-1 #
vertex $-1 $117 $147 #
straight-curve $-1 0.24084708691207968 0.071652913087920322 2.9494287293214305e-017 -0.70710678118654757 0.70710678118654757 -8.6592745707193665e-017 I I #
vertex $-1 $119 $148 #
straight-curve $-1 -0.24084708691207968 0.071652913087920322 -5.898857458642861e-017 0.70710678118654757 0.70710678118654757 1.7318549141438733e-016 I I #
ellipse-curve $-1 0 0.0625 0 0 -1 0 0.140625 0 0 1 I I #
face $-1 $85 $149 $3 $-1 $150 reversed single #
loop $-1 $-1 $151 $127 #
cone-surface $-1 0 0.125 0 0 -1 0 0.171875 0 0 1 I I 0 1 0.171875 forward I I I I #
coedge $-1 $152 $153 $154 $155 forward $128 $-1 #
coedge $-1 $156 $156 $153 $157 forward $130 $-1 #
coedge $-1 $131 $131 $133 $146 forward $110 $-1 #
ellipse-curve $-1 -1.3877787807814457e-017 0.125 -1.3877787807814457e-017 0 -1 0 0.1875 0 1.3877787807814457e-017 1 I I #
edge $-1 $134 -1.2246063538223765e-016 $136 3.1415926535897931 $144 $158 forward 7 unknown #
point $-1 0.1875 0.125 2.2961369134169561e-017 #
point $-1 -0.1875 0.125 0 #
loop $-1 $123 $159 $139 #
plane-surface $-1 0 0.0625 0 0 -1 0 1 0 0 forward_v I I I I #
coedge $-1 $160 $161 $162 $163 forward $140 $-1 #
coedge $-1 $162 $142 $159 $164 forward $128 $-1 #
coedge $-1 $142 $162 $143 $157 reversed $128 $-1 #
coedge $-1 $161 $160 $142 $155 reversed $140 $-1 #
edge $-1 $165 0 $166 0.0625 $154 $167 forward 7 unknown #
coedge $-1 $143 $143 $161 $168 forward $130 $-1 #
edge $-1 $165 0 $169 3.1415926535897931 $143 $170 forward 7 unknown #
ellipse-curve $-1 -1.3877787807814457e-017 0.125 1.3877787807814457e-017 0 1 0 0.1875 0 -1.3877787807814457e-017 1 I I #
coedge $-1 $171 $171 $152 $164 reversed $149 $-1 #
coedge $-1 $154 $151 $171 $172 forward $140 $-1 #
coedge $-1 $151 $154 $156 $168 reversed $140 $-1 #
coedge $-1 $153 $152 $151 $163 reversed $128 $-1 #
edge $-1 $169 0 $173 0.0625 $151 $174 forward 7 unknown #
edge $-1 $166 0 $173 3.1415926535897931 $159 $175 forward 7 unknown #
vertex $-1 $168 $176 #
vertex $-1 $172 $177 #
straight-curve $-1 -0.171875 0.125 2.1047921706322109e-017 0 -1 0 I I #
edge $-1 $169 0 $165 3.1415926535897931 $156 $178 forward 7 unknown #
vertex $-1 $168 $179 #
ellipse-curve $-1 0 0.125 0 0 -1 0 -0.171875 0 0 1 I I #
coedge $-1 $159 $159 $160 $172 reversed $149 $-1 #
edge $-1 $173 0 $166 3.1415926535897931 $171 $180 forward 7 unknown #
vertex $-1 $172 $181 #
straight-curve $-1 0.171875 0.125 0 0 -1 0 I I #
ellipse-curve $-1 0 0.0625 0 0 -1 0 -0.171875 0 0 1 I I #
point $-1 -0.171875 0.125 0 #
point $-1 -0.171875 0.0625 0 #
ellipse-curve $-1 0 0.125 0 0 -1 0 0.171875 0 0 1 I I #
point $-1 0.171875 0.125 0 #
ellipse-curve $-1 0 0.0625 0 0 -1 0 0.171875 0 0 1 I I #
point $-1 0.171875 0.0625 0 #
End-of-ACIS-data 