700 0 2 0           
24 FBMach with ACIS - 7.0.3 13 ACIS 7.0.3 NT 24 Wed May 15 14:27:07 2002 
1 9.9999999999999995e-007 1e-010 
body $2 -1 $-1 $3 $-1 $4 #
bdycol-kcp $-1 -1 1 6 $5 $6 $7 $8 $9 $10 #
model_id-kcp-attrib $-1 -1 $-1 $-1 $0 1 1021487225 1021487225 1775697921 1 #
lump $-1 -1 $-1 $-1 $11 $0 #
transform $-1 -1 1 0 0 0 1 0 0 0 1 0 0 0 1 rotate no_reflect no_shear #
body $12 -1 $-1 $13 $-1 $14 #
body $15 -1 $-1 $16 $-1 $17 #
body $18 -1 $-1 $19 $-1 $20 #
body $21 -1 $-1 $22 $-1 $23 #
body $24 -1 $-1 $25 $-1 $26 #
body $27 -1 $-1 $28 $-1 $29 #
shell $-1 -1 $-1 $-1 $-1 $30 $-1 $3 #
rgb_color-st-attrib $-1 -1 $31 $-1 $5 0.5 1 1 #
lump $-1 -1 $-1 $-1 $32 $5 #
transform $-1 -1 1 0 0 0 1 0 0 0 1 0 6.3627317242171211 0 1 no_rotate no_reflect no_shear #
rgb_color-st-attrib $-1 -1 $33 $-1 $6 0.5 0.5 1 #
lump $-1 -1 $-1 $-1 $34 $6 #
transform $-1 -1 1 0 0 0 1 0 0 0 1 0 6.3627317242171211 0 1 no_rotate no_reflect no_shear #
model_id-kcp-attrib $-1 -1 $-1 $-1 $7 1 1021487225 1021487225 1775697922 1 #
lump $-1 -1 $-1 $-1 $35 $7 #
transform $-1 -1 1 0 0 0 1 0 0 0 1 0 6.3627317242171211 0 1 no_rotate no_reflect no_shear #
rgb_color-st-attrib $-1 -1 $36 $-1 $8 1 0.5 1 #
lump $-1 -1 $-1 $-1 $37 $8 #
transform $-1 -1 1 0 0 0 1 0 0 0 1 0 6.3627317242171211 0 1 no_rotate no_reflect no_shear #
rgb_color-st-attrib $-1 -1 $38 $-1 $9 1 0 0 #
lump $-1 -1 $-1 $-1 $39 $9 #
transform $-1 -1 1 0 0 0 -3.8285889215894375e-016 -1 0 1 -3.8285889215894375e-016 0 29.086358171482075 -4.0305435088708667e-015 1 rotate no_reflect no_shear #
rgb_color-st-attrib $-1 -1 $40 $-1 $10 1 0.5 1 #
lump $-1 -1 $-1 $-1 $41 $10 #
transform $-1 -1 1 0 0 0 1 0 0 0 1 0 6.3627317242171211 0 1 no_rotate no_reflect no_shear #
face $42 -1 $-1 $43 $44 $11 $-1 $45 forward single #
model_id-kcp-attrib $-1 -1 $-1 $12 $5 1 1021487225 1021487225 1769406467 1 #
shell $-1 -1 $-1 $-1 $-1 $46 $-1 $13 #
model_id-kcp-attrib $-1 -1 $-1 $15 $6 1 1021487225 1021487225 1774714884 1 #
shell $-1 -1 $-1 $-1 $-1 $47 $-1 $16 #
shell $-1 -1 $-1 $-1 $-1 $48 $-1 $19 #
model_id-kcp-attrib $-1 -1 $-1 $21 $8 1 1021487225 1021487226 1770848262 1 #
shell $-1 -1 $-1 $-1 $-1 $49 $-1 $22 #
model_id-kcp-attrib $-1 -1 $-1 $24 $9 1 1021487225 1021487226 1777860613 1 #
shell $-1 -1 $-1 $-1 $-1 $50 $-1 $25 #
model_id-kcp-attrib $-1 -1 $-1 $27 $10 1 1021487225 1021487227 1762197511 1 #
shell $-1 -1 $-1 $-1 $-1 $51 $-1 $28 #
model_id-kcp-attrib $-1 -1 $-1 $-1 $30 1 1021487225 1021487225 1775697921 2 #
face $52 -1 $-1 $53 $54 $11 $-1 $55 forward single #
loop $-1 -1 $-1 $-1 $56 $30 #
plane-surface $-1 -1 $-1 0 0 0 0 -1 0 -25.399999999999999 0 0 forward_v I I I I #
face $-1 -1 $-1 $57 $58 $32 $-1 $59 reversed single #
face $-1 -1 $-1 $60 $61 $34 $-1 $62 reversed single #
face $-1 -1 $-1 $63 $64 $35 $-1 $65 forward single #
face $-1 -1 $-1 $66 $67 $37 $-1 $68 forward single #
face $-1 -1 $-1 $69 $70 $39 $-1 $71 forward single #
face $-1 -1 $-1 $72 $73 $41 $-1 $74 forward single #
model_id-kcp-attrib $-1 -1 $-1 $-1 $43 1 1021487225 1021487225 1775697921 3 #
face $75 -1 $-1 $76 $77 $11 $-1 $78 forward single #
loop $-1 -1 $-1 $-1 $79 $43 #
cone-surface $-1 -1 $-1 0 13.334999999999997 0 0 -1 0 -1.5874999999999999 0 0 1 I I 0 1 1.5874999999999999 forward I I I I #
coedge $-1 -1 $-1 $80 $80 $81 $82 forward $44 $-1 #
face $-1 -1 $-1 $83 $84 $32 $-1 $59 reversed single #
loop $-1 -1 $-1 $-1 $85 $46 #
cone-surface $-1 -1 $-1 -1.110223024625157e-016 -6.3627317242171211 0 0 -1 0 4.0640000000000001 0 4.9768002219341407e-016 1 I I 0 1 4.0640000000000001 forward I I I I #
face $-1 -1 $-1 $86 $87 $34 $-1 $88 forward single #
loop $-1 -1 $-1 $-1 $89 $47 #
plane-surface $-1 -1 $-1 -2.0161249999999997 6.3372682757828791 -8.8817841970012523e-016 0 1 0 -1 0 0 forward_v I I I I #
face $-1 -1 $-1 $90 $91 $35 $-1 $92 reversed single #
loop $-1 -1 $-1 $-1 $93 $48 #
plane-surface $-1 -1 $-1 0 0 4.0640000000000001 0 0 1 1 0 0 forward_v I I I I #
face $-1 -1 $-1 $94 $95 $37 $-1 $96 forward single #
loop $-1 -1 $-1 $97 $98 $49 #
cone-surface $-1 -1 $-1 0 3.9560182757828777 0 0 -1 0 -2.7781249999999997 0 0 1 I I 0 -1 2.7781249999999997 forward I I I I #
face $-1 -1 $-1 $99 $100 $39 $-1 $101 forward single #
loop $-1 -1 $-1 $-1 $102 $50 #
cone-surface $-1 -1 $-1 -1.110223024625157e-016 7.1054273576010019e-015 -29.086358171482075 0 3.8285889215894375e-016 -1 4.0640000000000001 -4.9768002219341407e-016 -1.9054122194660905e-031 1 I I 0 1 4.0640000000000001 forward I I I I #
face $-1 -1 $-1 $103 $104 $41 $-1 $105 forward single #
loop $-1 -1 $-1 $106 $107 $51 #
cone-surface $-1 -1 $-1 0 -0.01273172421712232 0 0 -1 0 -1.5874999999999999 0 0 1 I I 0 -1 1.5874999999999999 forward I I I I #
model_id-kcp-attrib $-1 -1 $-1 $-1 $53 1 1021487225 1021487225 1775697921 4 #
face $108 -1 $-1 $109 $110 $11 $-1 $111 forward single #
loop $-1 -1 $-1 $112 $113 $53 #
plane-surface $-1 -1 $-1 0 6.3499999999999996 0 0 -1 0 -25.399999999999999 0 0 forward_v I I I I #
coedge $-1 -1 $-1 $114 $115 $116 $117 forward $54 $-1 #
coedge $-1 -1 $-1 $56 $56 $118 $119 reversed $44 $-1 #
coedge $-1 -1 $-1 $115 $114 $56 $82 reversed $54 $-1 #
edge $120 -1 $-1 $121 1.9563789577060247e-032 $122 3.1415926535897931 $56 $123 forward @7 unknown #
face $-1 -1 $-1 $124 $125 $32 $-1 $59 reversed single #
loop $-1 -1 $-1 $-1 $126 $57 #
coedge $-1 -1 $-1 $127 $128 $129 $130 reversed $58 $-1 #
face $-1 -1 $-1 $-1 $131 $34 $-1 $132 reversed single #
loop $-1 -1 $-1 $133 $134 $60 #
cone-surface $-1 -1 $-1 -1.110223024625157e-016 -6.3627317242171211 0 0 -1 0 4.0640000000000001 0 4.9768002219341407e-016 1 I I 0 1 4.0640000000000001 forward I I I I #
coedge $-1 -1 $-1 $89 $89 $135 $136 forward $61 $-1 #
face $137 -1 $-1 $138 $139 $35 $-1 $140 reversed single #
loop $-1 -1 $-1 $-1 $141 $63 #
plane-surface $-1 -1 $-1 0 0 -4.0640000000000001 0 0 1 1 0 0 forward_v I I I I #
coedge $-1 -1 $-1 $142 $143 $144 $145 forward $64 $-1 #
face $-1 -1 $-1 $146 $147 $37 $-1 $148 reversed single #
loop $-1 -1 $-1 $149 $150 $66 #
cone-surface $-1 -1 $-1 -1.110223024625157e-016 3.9560182757828768 0 0 -1 0 4.0640000000000001 0 4.9768002219341407e-016 1 I I 0 1 4.0640000000000001 forward I I I I #
loop $-1 -1 $-1 $-1 $151 $49 #
coedge $-1 -1 $-1 $98 $98 $152 $153 forward $67 $-1 #
face $-1 -1 $-1 $154 $155 $39 $-1 $71 forward single #
loop $-1 -1 $-1 $-1 $156 $69 #
plane-surface $-1 -1 $-1 -2.0161249999999997 3.131297846882541e-015 -16.386358171482076 0 -3.8285889215894375e-016 1 -1 0 0 forward_v I I I I #
coedge $-1 -1 $-1 $157 $158 $159 $160 forward $70 $-1 #
face $-1 -1 $-1 $161 $162 $41 $-1 $163 reversed single #
loop $-1 -1 $-1 $164 $165 $72 #
cone-surface $-1 -1 $-1 -1.110223024625157e-016 -0.01273172421712232 0 0 -1 0 4.0640000000000001 0 4.9768002219341407e-016 1 I I 0 1 4.0640000000000001 forward I I I I #
loop $-1 -1 $-1 $-1 $166 $51 #
coedge $-1 -1 $-1 $107 $107 $167 $168 forward $73 $-1 #
model_id-kcp-attrib $-1 -1 $-1 $-1 $76 1 1021487225 1021487225 1775697921 5 #
face $169 -1 $-1 $170 $171 $11 $-1 $172 forward single #
loop $-1 -1 $-1 $-1 $118 $76 #
cone-surface $-1 -1 $-1 0 13.334999999999997 0 0 -1 0 -1.5874999999999999 0 0 1 I I 0 1 1.5874999999999999 forward I I I I #
loop $-1 -1 $-1 $-1 $173 $53 #
coedge $-1 -1 $-1 $116 $116 $174 $175 forward $77 $-1 #
coedge $-1 -1 $-1 $81 $79 $176 $177 reversed $54 $-1 #
coedge $-1 -1 $-1 $79 $81 $178 $179 forward $54 $-1 #
coedge $-1 -1 $-1 $113 $113 $79 $117 reversed $77 $-1 #
edge $180 -1 $-1 $181 1.2246063538223773e-016 $182 3.1415926535897931 $79 $183 forward @7 unknown #
coedge $-1 -1 $-1 $176 $178 $80 $119 forward $110 $-1 #
edge $184 -1 $-1 $121 3.9127579154120494e-032 $122 3.1415926535897931 $80 $185 forward @7 unknown #
attrib_edge_convexity-kcp-attrib $-1 -1 $186 $-1 $82 1 #
vertex $-1 -1 $-1 $119 $187 #
vertex $-1 -1 $-1 $119 $188 #
ellipse-curve $-1 -1 $-1 0 0 4.4061976289810898e-017 0 -1 0 1.5874999999999999 0 1.5034428237949147e-016 1 I I #
face $-1 -1 $-1 $189 $190 $32 $-1 $59 reversed single #
loop $-1 -1 $-1 $-1 $191 $83 #
coedge $-1 -1 $-1 $192 $193 $194 $195 reversed $84 $-1 #
coedge $-1 -1 $-1 $196 $85 $197 $198 forward $58 $-1 #
coedge $-1 -1 $-1 $85 $196 $199 $200 reversed $58 $-1 #
coedge $-1 -1 $-1 $201 $202 $85 $130 forward $203 $-1 #
edge $-1 -1 $-1 $204 -1.224606353822377e-016 $205 1.5707963267948966 $129 $206 forward @7 unknown #
loop $-1 -1 $-1 $-1 $207 $86 #
plane-surface $-1 -1 $-1 0 6.3627317242171211 0 0 -1 0 0 0 -1 forward_v I I I I #
loop $-1 -1 $-1 $-1 $135 $60 #
coedge $-1 -1 $-1 $134 $134 $207 $208 reversed $87 $-1 #
coedge $-1 -1 $-1 $135 $135 $89 $136 reversed $133 $-1 #
edge $209 -1 $-1 $210 -3.1415926535897931 $210 3.1415926535897931 $135 $211 forward @7 unknown #
model_id-kcp-attrib $-1 -1 $-1 $-1 $90 1 1021487225 1021487225 1775697922 2 #
face $-1 -1 $-1 $212 $213 $35 $-1 $214 reversed single #
loop $-1 -1 $-1 $-1 $215 $90 #
plane-surface $-1 -1 $-1 0 -6.3627317242171211 0 0 1 0 0 0 1 forward_v I I I I #
coedge $-1 -1 $-1 $216 $217 $218 $219 forward $91 $-1 #
coedge $-1 -1 $-1 $220 $93 $221 $222 forward $64 $-1 #
coedge $-1 -1 $-1 $93 $220 $223 $224 forward $64 $-1 #
coedge $-1 -1 $-1 $225 $226 $93 $145 reversed $227 $-1 #
edge $-1 -1 $-1 $228 -6.3627317242171211 $229 6.3627317242171211 $144 $230 forward @7 unknown #
face $-1 -1 $-1 $-1 $231 $37 $-1 $232 forward single #
loop $-1 -1 $-1 $233 $234 $94 #
plane-surface $-1 -1 $-1 -0.21944399915629614 -0.012731724217123652 -5.5511151231257827e-017 -2.9626674859965365e-032 1 -1.9751116573310242e-032 0 1.9751116573310242e-032 1 forward_v I I I I #
loop $-1 -1 $-1 $-1 $235 $66 #
coedge $-1 -1 $-1 $150 $150 $234 $236 forward $95 $-1 #
coedge $-1 -1 $-1 $151 $151 $237 $238 reversed $97 $-1 #
coedge $-1 -1 $-1 $152 $152 $98 $153 reversed $233 $-1 #
edge $-1 -1 $-1 $239 -3.1415926535897931 $239 3.1415926535897931 $98 $240 forward @7 unknown #
face $-1 -1 $-1 $241 $242 $39 $-1 $243 reversed single #
loop $-1 -1 $-1 $-1 $244 $99 #
coedge $-1 -1 $-1 $245 $246 $247 $248 forward $100 $-1 #
coedge $-1 -1 $-1 $249 $102 $250 $251 forward $70 $-1 #
coedge $-1 -1 $-1 $102 $249 $245 $252 forward $70 $-1 #
coedge $-1 -1 $-1 $247 $253 $102 $160 reversed $254 $-1 #
edge $-1 -1 $-1 $255 -12.699999999999999 $256 -11.937999999999999 $159 $257 forward @7 unknown #
face $-1 -1 $-1 $-1 $258 $41 $-1 $259 forward single #
loop $-1 -1 $-1 $260 $261 $103 #
plane-surface $-1 -1 $-1 -0.26567517875383034 -6.362731724217122 -8.3266726846886741e-017 0 1 0 0 0 1 forward_v I I I I #
loop $-1 -1 $-1 $-1 $262 $72 #
coedge $-1 -1 $-1 $165 $165 $261 $263 forward $104 $-1 #
coedge $-1 -1 $-1 $166 $166 $264 $265 reversed $106 $-1 #
coedge $-1 -1 $-1 $167 $167 $107 $168 reversed $260 $-1 #
edge $-1 -1 $-1 $266 -3.1415926535897931 $266 3.1415926535897931 $107 $267 forward @7 unknown #
model_id-kcp-attrib $-1 -1 $-1 $-1 $109 1 1021487225 1021487225 1775697921 6 #
face $268 -1 $-1 $269 $270 $11 $-1 $271 forward single #
loop $-1 -1 $-1 $-1 $272 $109 #
cone-surface $-1 -1 $-1 0 13.334999999999997 0 0 -1 0 -2.7781249999999997 0 0 1 I I 0 1 2.7781249999999997 forward I I I I #
coedge $-1 -1 $-1 $273 $273 $274 $275 forward $112 $-1 #
coedge $-1 -1 $-1 $178 $176 $113 $175 reversed $110 $-1 #
edge $276 -1 $-1 $181 -1.2246063538223773e-016 $182 3.1415926535897931 $113 $277 forward @7 unknown #
coedge $-1 -1 $-1 $174 $118 $114 $177 forward $110 $-1 #
edge $-1 -1 $-1 $122 0 $182 0.25 $114 $278 forward @7 unknown #
coedge $-1 -1 $-1 $118 $174 $115 $179 reversed $110 $-1 #
edge $-1 -1 $-1 $121 0 $181 0.24999999999999992 $115 $279 forward @7 unknown #
attrib_edge_convexity-kcp-attrib $-1 -1 $280 $-1 $117 2 #
vertex $-1 -1 $-1 $179 $281 #
vertex $-1 -1 $-1 $177 $282 #
ellipse-curve $-1 -1 $-1 0 6.3499999999999996 0 0 -1 0 1.5874999999999999 0 0 1 I I #
attrib_edge_convexity-kcp-attrib $-1 -1 $283 $-1 $119 1 #
ellipse-curve $-1 -1 $-1 -1.7624790515924359e-016 0 -8.8123952579621795e-017 0 1 0 1.5874999999999999 0 2.8253021124892418e-016 1 I I #
convexity-sys-attrib $-1 -1 $-1 $120 $82 #
point $-1 -1 $-1 1.5874999999999999 0 1.9440625866930238e-016 #
point $-1 -1 $-1 -1.5874999999999999 0 -3.8881251733860477e-016 #
face $-1 -1 $-1 $284 $285 $32 $-1 $286 forward single #
loop $-1 -1 $-1 $-1 $287 $124 #
coedge $-1 -1 $-1 $288 $289 $287 $290 forward $125 $-1 #
coedge $-1 -1 $-1 $291 $126 $292 $293 reversed $84 $-1 #
coedge $-1 -1 $-1 $126 $291 $128 $200 forward $84 $-1 #
coedge $-1 -1 $-1 $294 $295 $126 $195 forward $296 $-1 #
edge $-1 -1 $-1 $297 -3.1415926535897931 $298 -1.5707963267948966 $194 $299 forward @7 unknown #
coedge $-1 -1 $-1 $128 $127 $300 $301 reversed $58 $-1 #
coedge $-1 -1 $-1 $289 $288 $302 $198 reversed $125 $-1 #
edge $-1 -1 $-1 $204 -12.725463448434242 $303 0 $302 $304 forward @7 unknown #
coedge $-1 -1 $-1 $305 $306 $307 $200 forward $308 $-1 #
edge $-1 -1 $-1 $205 -12.725463448434242 $298 0 $199 $309 forward @7 unknown #
coedge $-1 -1 $-1 $202 $129 $306 $310 reversed $203 $-1 #
coedge $-1 -1 $-1 $129 $201 $311 $312 forward $203 $-1 #
loop $-1 -1 $-1 $-1 $129 $313 #
vertex $-1 -1 $-1 $314 $315 #
vertex $-1 -1 $-1 $316 $317 #
ellipse-curve $-1 -1 $-1 -1.110223024625157e-016 6.3627317242171211 0 0 -1 0 4.0640000000000001 0 4.9768002219341407e-016 1 I I #
coedge $-1 -1 $-1 $207 $207 $134 $208 forward $131 $-1 #
edge $-1 -1 $-1 $318 -1.5707963267948966 $318 4.7123889803846897 $207 $319 forward @7 unknown #
convexity-sys-attrib $-1 -1 $-1 $-1 $136 #
vertex $-1 -1 $-1 $136 $320 #
ellipse-curve $-1 -1 $-1 -1.110223024625157e-016 6.3372682757828782 0 0 -1 0 4.0640000000000001 0 4.9768002219341407e-016 1 I I #
face $-1 -1 $-1 $321 $322 $35 $-1 $323 reversed single #
loop $-1 -1 $-1 $-1 $324 $138 #
plane-surface $-1 -1 $-1 -4.0640000000000009 0 0 1 0 0 0 0 -1 forward_v I I I I #
coedge $-1 -1 $-1 $325 $223 $326 $327 forward $139 $-1 #
coedge $-1 -1 $-1 $328 $141 $325 $329 forward $91 $-1 #
coedge $-1 -1 $-1 $141 $328 $330 $331 forward $91 $-1 #
coedge $-1 -1 $-1 $226 $225 $141 $219 reversed $227 $-1 #
edge $-1 -1 $-1 $332 -6.3627317242171211 $333 6.3627317242171211 $218 $334 forward @7 unknown #
coedge $-1 -1 $-1 $143 $142 $335 $336 forward $64 $-1 #
coedge $-1 -1 $-1 $337 $338 $142 $222 reversed $322 $-1 #
edge $-1 -1 $-1 $229 -4.0640000000000009 $339 4.0640000000000009 $221 $340 forward @7 unknown #
coedge $-1 -1 $-1 $215 $341 $143 $224 reversed $139 $-1 #
edge $-1 -1 $-1 $342 -4.0640000000000009 $228 4.0640000000000009 $223 $343 forward @7 unknown #
coedge $-1 -1 $-1 $218 $144 $341 $344 forward $227 $-1 #
coedge $-1 -1 $-1 $144 $218 $337 $345 reversed $227 $-1 #
loop $-1 -1 $-1 $-1 $225 $321 #
vertex $-1 -1 $-1 $145 $346 #
vertex $-1 -1 $-1 $145 $347 #
straight-curve $-1 -1 $-1 4.0640000000000009 0 4.0640000000000001 0 1 0 I I #
loop $-1 -1 $-1 $348 $349 $146 #
plane-surface $-1 -1 $-1 -0.21944399915629614 3.9560182757828781 -5.5511151231257827e-017 -2.9626674859965365e-032 1 -1.9751116573310242e-032 0 1.9751116573310242e-032 1 forward_v I I I I #
loop $-1 -1 $-1 $-1 $152 $94 #
coedge $-1 -1 $-1 $234 $234 $150 $236 reversed $147 $-1 #
coedge $-1 -1 $-1 $235 $235 $349 $350 reversed $149 $-1 #
edge $-1 -1 $-1 $351 -3.1415926535897931 $351 3.1415926535897931 $150 $352 forward @7 unknown #
coedge $-1 -1 $-1 $237 $237 $151 $238 forward $348 $-1 #
edge $353 -1 $-1 $354 0 $354 6.2831853071795862 $151 $355 forward @7 unknown #
vertex $-1 -1 $-1 $153 $356 #
ellipse-curve $-1 -1 $-1 0 -0.012731724217124096 0 0 -1 0 -2.7781249999999997 0 0 1 I I #
face $-1 -1 $-1 $357 $358 $39 $-1 $359 reversed single #
loop $-1 -1 $-1 $-1 $360 $154 #
plane-surface $-1 -1 $-1 0 0 -17.148358171482073 0 0 1 1 0 0 forward_v I I I I #
coedge $-1 -1 $-1 $361 $362 $363 $364 forward $155 $-1 #
coedge $-1 -1 $-1 $365 $156 $158 $252 reversed $100 $-1 #
coedge $-1 -1 $-1 $156 $365 $361 $366 reversed $100 $-1 #
coedge $-1 -1 $-1 $363 $159 $156 $248 reversed $254 $-1 #
edge $-1 -1 $-1 $367 -3.9919233459574319 $255 3.9919233459574373 $247 $368 forward @7 unknown #
coedge $-1 -1 $-1 $158 $157 $369 $370 forward $70 $-1 #
coedge $-1 -1 $-1 $371 $372 $157 $251 reversed $242 $-1 #
edge $373 -1 $-1 $256 -1.7594127129703006 $374 -1.3821799406194923 $250 $375 forward @7 unknown #
edge $-1 -1 $-1 $376 1.3821799406194923 $255 1.7594127129703006 $158 $377 forward @7 unknown #
coedge $-1 -1 $-1 $159 $363 $371 $378 reversed $254 $-1 #
loop $-1 -1 $-1 $-1 $253 $357 #
vertex $-1 -1 $-1 $248 $379 #
vertex $-1 -1 $-1 $378 $380 #
straight-curve $-1 -1 $-1 -0.7619999999999999 -3.9919233459574275 -29.086358171482075 0 3.8285889215894375e-016 -1 I I #
loop $-1 -1 $-1 $381 $382 $161 #
plane-surface $-1 -1 $-1 -0.26567517875383034 -0.012731724217122318 -8.3266726846886741e-017 0 1 0 0 0 1 forward_v I I I I #
loop $-1 -1 $-1 $-1 $167 $103 #
coedge $-1 -1 $-1 $261 $261 $165 $263 reversed $162 $-1 #
coedge $-1 -1 $-1 $262 $262 $382 $383 reversed $164 $-1 #
edge $-1 -1 $-1 $384 -3.1415926535897931 $384 3.1415926535897931 $165 $385 forward @7 unknown #
coedge $-1 -1 $-1 $264 $264 $166 $265 forward $381 $-1 #
edge $386 -1 $-1 $387 0 $387 6.2831853071795862 $166 $388 forward @7 unknown #
vertex $-1 -1 $-1 $168 $389 #
ellipse-curve $-1 -1 $-1 0 -6.362731724217122 0 0 -1 0 -1.5874999999999999 0 0 1 I I #
model_id-kcp-attrib $-1 -1 $-1 $-1 $170 1 1021487225 1021487225 1775697921 7 #
face $390 -1 $-1 $391 $392 $11 $-1 $393 forward single #
loop $-1 -1 $-1 $394 $395 $170 #
plane-surface $-1 -1 $-1 0 10.31875 0 0 -1 0 -25.399999999999999 0 0 forward_v I I I I #
coedge $-1 -1 $-1 $396 $397 $398 $399 forward $171 $-1 #
coedge $-1 -1 $-1 $173 $173 $400 $401 reversed $112 $-1 #
coedge $-1 -1 $-1 $397 $396 $173 $275 reversed $171 $-1 #
edge $402 -1 $-1 $403 -1.2776352376855673e-032 $404 3.1415926535897931 $173 $405 forward @7 unknown #
attrib_edge_convexity-kcp-attrib $-1 -1 $406 $-1 $175 2 #
ellipse-curve $-1 -1 $-1 0 6.3499999999999996 0 0 1 0 1.5874999999999999 0 0 1 I I #
straight-curve $-1 -1 $-1 -1.5874999999999999 0 -3.8881251733860477e-016 0 25.399999999999999 0 I I #
straight-curve $-1 -1 $-1 1.5874999999999999 0 1.9440625866930238e-016 0 25.399999999999999 0 I I #
convexity-sys-attrib $-1 -1 $-1 $180 $117 #
point $-1 -1 $-1 1.5874999999999999 6.3499999999999979 1.9440625866930238e-016 #
point $-1 -1 $-1 -1.5874999999999999 6.3499999999999996 0 #
convexity-sys-attrib $-1 -1 $-1 $184 $119 #
face $-1 -1 $-1 $407 $408 $32 $-1 $409 reversed single #
loop $-1 -1 $-1 $-1 $307 $189 #
plane-surface $-1 -1 $-1 0 0 4.0640000000000001 0 0 1 1 0 0 forward_v I I I I #
coedge $-1 -1 $-1 $410 $411 $412 $290 reversed $190 $-1 #
coedge $-1 -1 $-1 $197 $191 $413 $414 reversed $125 $-1 #
coedge $-1 -1 $-1 $191 $197 $415 $416 reversed $125 $-1 #
edge $-1 -1 $-1 $417 -12.725463448434242 $418 0 $412 $419 forward @7 unknown #
coedge $-1 -1 $-1 $193 $192 $420 $421 reversed $84 $-1 #
coedge $-1 -1 $-1 $422 $423 $424 $293 forward $425 $-1 #
edge $-1 -1 $-1 $426 -12.725463448434242 $297 0 $292 $427 forward @7 unknown #
coedge $-1 -1 $-1 $295 $194 $428 $429 reversed $296 $-1 #
coedge $-1 -1 $-1 $194 $294 $422 $430 forward $296 $-1 #
loop $-1 -1 $-1 $-1 $194 $431 #
vertex $-1 -1 $-1 $432 $433 #
vertex $-1 -1 $-1 $434 $435 #
ellipse-curve $-1 -1 $-1 -1.110223024625157e-016 -6.3627317242171211 0 0 1 0 4.0640000000000001 0 4.9768002219341407e-016 1 I I #
coedge $-1 -1 $-1 $436 $437 $196 $301 forward $438 $-1 #
edge $-1 -1 $-1 $298 -1.5707963267948966 $303 1.224606353822377e-016 $300 $299 forward @7 unknown #
coedge $-1 -1 $-1 $439 $440 $441 $198 forward $408 $-1 #
vertex $-1 -1 $-1 $442 $443 #
straight-curve $-1 -1 $-1 4.0640000000000009 -6.3627317242171211 0 0 -1 0 I I #
coedge $-1 -1 $-1 $444 $199 $437 $434 forward $308 $-1 #
coedge $-1 -1 $-1 $199 $444 $201 $310 forward $308 $-1 #
coedge $-1 -1 $-1 $445 $428 $193 $200 reversed $285 $-1 #
loop $-1 -1 $-1 $-1 $199 $446 #
straight-curve $-1 -1 $-1 -1.110223024625157e-016 -6.3627317242171211 4.0640000000000001 0 -1 0 I I #
edge $-1 -1 $-1 $447 -4.0640000000000009 $205 1.110223024625157e-016 $201 $448 forward @7 unknown #
coedge $-1 -1 $-1 $449 $441 $202 $312 reversed $450 $-1 #
edge $-1 -1 $-1 $447 -4.0640000000000001 $204 0 $311 $451 forward @7 unknown #
face $-1 -1 $-1 $452 $203 $32 $-1 $453 reversed single #
edge $-1 -1 $-1 $204 0 $454 4.0640000000000001 $440 $451 forward @7 unknown #
point $-1 -1 $-1 4.0640000000000009 6.3627317242171211 0 #
edge $-1 -1 $-1 $205 1.110223024625157e-016 $455 4.0640000000000009 $456 $448 forward @7 unknown #
point $-1 -1 $-1 -1.110223024625157e-016 6.3627317242171211 4.0640000000000001 #
vertex $-1 -1 $-1 $208 $457 #
ellipse-curve $-1 -1 $-1 -1.110223024625157e-016 6.3627317242171211 0 0 1 0 4.0640000000000001 0 4.9768002219341407e-016 1 I I #
point $-1 -1 $-1 -4.0640000000000001 6.3372682757828782 -9.9536004438682834e-016 #
face $-1 -1 $-1 $-1 $227 $35 $-1 $458 reversed single #
loop $-1 -1 $-1 $-1 $337 $212 #
plane-surface $-1 -1 $-1 0 6.3627317242171211 0 0 -1 0 0 0 -1 forward_v I I I I #
coedge $-1 -1 $-1 $459 $335 $338 $460 forward $213 $-1 #
coedge $-1 -1 $-1 $341 $215 $216 $329 reversed $139 $-1 #
coedge $-1 -1 $-1 $335 $459 $215 $327 reversed $213 $-1 #
edge $-1 -1 $-1 $342 -4.0640000000000001 $461 4.0640000000000001 $326 $462 forward @7 unknown #
coedge $-1 -1 $-1 $217 $216 $459 $463 forward $91 $-1 #
edge $-1 -1 $-1 $333 -4.0640000000000009 $461 4.0640000000000009 $325 $464 forward @7 unknown #
coedge $-1 -1 $-1 $338 $337 $217 $331 reversed $322 $-1 #
edge $-1 -1 $-1 $465 -4.0640000000000009 $332 4.0640000000000009 $330 $466 forward @7 unknown #
vertex $-1 -1 $-1 $219 $467 #
vertex $-1 -1 $-1 $344 $468 #
straight-curve $-1 -1 $-1 4.0640000000000009 0 -4.0640000000000001 0 -1 0 I I #
coedge $-1 -1 $-1 $324 $326 $220 $336 reversed $213 $-1 #
edge $-1 -1 $-1 $339 -6.3627317242171211 $342 6.3627317242171211 $335 $469 forward @7 unknown #
coedge $-1 -1 $-1 $330 $221 $226 $345 forward $322 $-1 #
coedge $-1 -1 $-1 $221 $330 $324 $460 reversed $322 $-1 #
vertex $-1 -1 $-1 $222 $470 #
straight-curve $-1 -1 $-1 0 6.3627317242171211 4.0640000000000001 -1 0 0 I I #
coedge $-1 -1 $-1 $223 $325 $225 $344 reversed $139 $-1 #
vertex $-1 -1 $-1 $336 $471 #
straight-curve $-1 -1 $-1 0 -6.3627317242171211 4.0640000000000001 1 0 0 I I #
edge $-1 -1 $-1 $228 -4.0640000000000001 $333 4.0640000000000001 $225 $472 forward @7 unknown #
edge $-1 -1 $-1 $229 -4.0640000000000001 $332 4.0640000000000001 $226 $473 forward @7 unknown #
point $-1 -1 $-1 4.0640000000000009 -6.3627317242171211 4.0640000000000001 #
point $-1 -1 $-1 4.0640000000000009 6.3627317242171211 4.0640000000000001 #
loop $-1 -1 $-1 $-1 $237 $146 #
coedge $-1 -1 $-1 $349 $349 $235 $350 forward $231 $-1 #
edge $474 -1 $-1 $475 -3.1415926535897931 $475 3.1415926535897931 $235 $476 forward @7 unknown #
vertex $-1 -1 $-1 $236 $477 #
ellipse-curve $-1 -1 $-1 -1.110223024625157e-016 -0.012731724217124984 0 0 1 0 4.0640000000000001 0 4.9768002219341407e-016 1 I I #
convexity-sys-attrib $-1 -1 $-1 $-1 $238 #
vertex $-1 -1 $-1 $238 $478 #
ellipse-curve $-1 -1 $-1 0 3.9560182757828777 0 0 -1 0 -2.7781249999999997 0 0 1 I I #
point $-1 -1 $-1 2.7781249999999993 -0.012731724217126761 3.4021095267127914e-016 #
face $-1 -1 $-1 $-1 $254 $39 $-1 $479 reversed single #
loop $-1 -1 $-1 $-1 $480 $241 #
plane-surface $-1 -1 $-1 0.7619999999999999 0 0 -1 0 0 0 0 1 forward_v I I I I #
coedge $-1 -1 $-1 $372 $371 $362 $481 reversed $242 $-1 #
coedge $-1 -1 $-1 $482 $244 $246 $366 forward $155 $-1 #
coedge $-1 -1 $-1 $244 $482 $360 $481 forward $155 $-1 #
coedge $-1 -1 $-1 $253 $247 $244 $364 reversed $254 $-1 #
edge $-1 -1 $-1 $483 11.937999999999999 $367 12.699999999999999 $363 $484 forward @7 unknown #
coedge $-1 -1 $-1 $246 $245 $480 $485 forward $100 $-1 #
edge $-1 -1 $-1 $367 -1.7594127129703008 $486 -1.3821799406194926 $361 $377 forward @7 unknown #
vertex $-1 -1 $-1 $248 $487 #
straight-curve $-1 -1 $-1 -0.7619999999999999 4.7024803914679121e-015 -16.386358171482076 0 -1 -3.8285889215894375e-016 I I #
coedge $-1 -1 $-1 $488 $480 $249 $370 reversed $358 $-1 #
edge $-1 -1 $-1 $374 11.937999999999999 $376 12.699999999999999 $369 $489 forward @7 unknown #
coedge $-1 -1 $-1 $360 $250 $253 $378 forward $242 $-1 #
coedge $-1 -1 $-1 $250 $360 $488 $490 forward $242 $-1 #
convexity-sys-attrib $-1 -1 $-1 $-1 $251 #
vertex $-1 -1 $-1 $370 $491 #
ellipse-curve $-1 -1 $-1 -1.110223024625157e-016 2.5348579030075305e-015 -17.148358171482073 0 0 1 4.0640000000000001 -4.9768002219341407e-016 -1.9054122194660905e-031 1 I I #
vertex $-1 -1 $-1 $485 $492 #
ellipse-curve $-1 -1 $-1 -1.110223024625157e-016 2.2431194271824162e-015 -16.386358171482076 0 3.8285889215894375e-016 -1 4.0640000000000001 -4.9768002219341407e-016 -1.9054122194660905e-031 1 I I #
edge $493 -1 $-1 $256 -3.9919233459574319 $483 3.9919233459574373 $253 $494 forward @7 unknown #
point $-1 -1 $-1 -0.7619999999999999 -3.9919233459574324 -16.386358171482076 #
point $-1 -1 $-1 -0.7619999999999999 -3.9919233459574319 -17.148358171482077 #
loop $-1 -1 $-1 $-1 $264 $161 #
coedge $-1 -1 $-1 $382 $382 $262 $383 forward $258 $-1 #
edge $495 -1 $-1 $496 -3.1415926535897931 $496 3.1415926535897931 $262 $497 forward @7 unknown #
vertex $-1 -1 $-1 $263 $498 #
ellipse-curve $-1 -1 $-1 -1.110223024625157e-016 -6.362731724217122 0 0 1 0 4.0640000000000001 0 4.9768002219341407e-016 1 I I #
convexity-sys-attrib $-1 -1 $-1 $-1 $265 #
vertex $-1 -1 $-1 $265 $499 #
ellipse-curve $-1 -1 $-1 0 -0.01273172421712232 0 0 -1 0 -1.5874999999999999 0 0 1 I I #
point $-1 -1 $-1 1.5875000000000004 -6.3627317242171229 1.9440625866930238e-016 #
model_id-kcp-attrib $-1 -1 $-1 $-1 $269 1 1021487225 1021487225 1775697921 8 #
face $500 -1 $-1 $501 $502 $11 $-1 $503 forward single #
loop $-1 -1 $-1 $-1 $400 $269 #
cone-surface $-1 -1 $-1 0 13.334999999999997 0 0 -1 0 -2.7781249999999997 0 0 1 I I 0 1 2.7781249999999997 forward I I I I #
loop $-1 -1 $-1 $-1 $504 $170 #
coedge $-1 -1 $-1 $398 $398 $505 $506 forward $270 $-1 #
coedge $-1 -1 $-1 $274 $272 $507 $508 reversed $171 $-1 #
coedge $-1 -1 $-1 $272 $274 $509 $510 forward $171 $-1 #
coedge $-1 -1 $-1 $395 $395 $272 $399 reversed $270 $-1 #
edge $511 -1 $-1 $512 1.2246063538223773e-016 $513 3.1415926535897931 $272 $514 forward @7 unknown #
coedge $-1 -1 $-1 $507 $509 $273 $401 forward $392 $-1 #
edge $515 -1 $-1 $403 0 $404 3.1415926535897931 $273 $516 forward @7 unknown #
attrib_edge_convexity-kcp-attrib $-1 -1 $517 $-1 $275 1 #
vertex $-1 -1 $-1 $401 $518 #
vertex $-1 -1 $-1 $401 $519 #
ellipse-curve $-1 -1 $-1 0 6.3499999999999996 8.8123952579621795e-017 -5.0753052554292868e-016 -1 -4.6053308486500495e-032 2.7781249999999997 -1.4099832412739487e-015 2.5208700009165737e-016 1 I I #
convexity-sys-attrib $-1 -1 $-1 $276 $175 #
face $-1 -1 $-1 $520 $521 $32 $-1 $522 reversed single #
loop $-1 -1 $-1 $-1 $302 $284 #
plane-surface $-1 -1 $-1 4.0640000000000009 0 0 -1 0 0 0 0 1 forward_v I I I I #
coedge $-1 -1 $-1 $523 $287 $524 $525 reversed $190 $-1 #
coedge $-1 -1 $-1 $287 $523 $526 $527 reversed $190 $-1 #
coedge $-1 -1 $-1 $528 $529 $530 $290 forward $531 $-1 #
coedge $-1 -1 $-1 $532 $533 $288 $414 forward $534 $-1 #
edge $-1 -1 $-1 $303 1.224606353822377e-016 $418 1.5707963267948968 $413 $299 forward @7 unknown #
coedge $-1 -1 $-1 $535 $536 $289 $416 forward $537 $-1 #
edge $-1 -1 $-1 $417 -1.5707963267948968 $204 -1.224606353822377e-016 $415 $206 forward @7 unknown #
vertex $-1 -1 $-1 $538 $539 #
vertex $-1 -1 $-1 $540 $541 #
straight-curve $-1 -1 $-1 -1.110223024625157e-016 -6.3627317242171211 -4.0640000000000001 0 -1 0 I I #
coedge $-1 -1 $-1 $542 $456 $291 $421 forward $543 $-1 #
edge $-1 -1 $-1 $205 1.5707963267948966 $426 3.1415926535897931 $420 $206 forward @7 unknown #
coedge $-1 -1 $-1 $544 $292 $295 $430 reversed $425 $-1 #
coedge $-1 -1 $-1 $292 $544 $542 $545 forward $425 $-1 #
coedge $-1 -1 $-1 $546 $547 $523 $293 reversed $521 $-1 #
loop $-1 -1 $-1 $-1 $292 $548 #
vertex $-1 -1 $-1 $549 $550 #
straight-curve $-1 -1 $-1 -4.0640000000000009 -6.3627317242171211 0 0 -1 0 I I #
coedge $-1 -1 $-1 $307 $551 $294 $429 forward $285 $-1 #
edge $-1 -1 $-1 $552 -4.0640000000000009 $298 -1.110223024625157e-016 $294 $553 forward @7 unknown #
edge $-1 -1 $-1 $552 -4.0640000000000001 $297 0 $422 $554 forward @7 unknown #
face $-1 -1 $-1 $555 $296 $32 $-1 $556 reversed single #
edge $-1 -1 $-1 $297 0 $557 4.0640000000000001 $547 $554 forward @7 unknown #
point $-1 -1 $-1 -4.0640000000000009 -6.3627317242171211 0 #
edge $-1 -1 $-1 $298 -1.110223024625157e-016 $558 4.0640000000000009 $437 $553 forward @7 unknown #
point $-1 -1 $-1 -1.110223024625157e-016 -6.3627317242171211 4.0640000000000001 #
coedge $-1 -1 $-1 $437 $300 $559 $560 reversed $438 $-1 #
coedge $-1 -1 $-1 $300 $436 $305 $434 reversed $438 $-1 #
loop $-1 -1 $-1 $-1 $300 $555 #
coedge $-1 -1 $-1 $561 $302 $533 $442 forward $408 $-1 #
coedge $-1 -1 $-1 $302 $561 $535 $314 reversed $408 $-1 #
coedge $-1 -1 $-1 $311 $559 $127 $198 reversed $450 $-1 #
edge $-1 -1 $-1 $303 0 $562 4.0640000000000001 $439 $563 forward @7 unknown #
point $-1 -1 $-1 4.0640000000000009 -6.3627317242171211 0 #
coedge $-1 -1 $-1 $306 $305 $449 $564 forward $308 $-1 #
coedge $-1 -1 $-1 $551 $307 $456 $316 forward $285 $-1 #
face $-1 -1 $-1 $565 $308 $32 $-1 $286 forward single #
vertex $-1 -1 $-1 $564 $566 #
straight-curve $-1 -1 $-1 0 6.3627317242171211 4.0640000000000001 -1 0 0 I I #
coedge $-1 -1 $-1 $559 $311 $444 $564 reversed $450 $-1 #
loop $-1 -1 $-1 $-1 $441 $567 #
straight-curve $-1 -1 $-1 4.0640000000000009 6.3627317242171211 0 0 0 -1 I I #
face $-1 -1 $-1 $568 $543 $32 $-1 $453 reversed single #
plane-surface $-1 -1 $-1 0 6.3627317242171211 0 0 -1 0 0 0 -1 forward_v I I I I #
vertex $-1 -1 $-1 $569 $570 #
vertex $-1 -1 $-1 $316 $571 #
coedge $-1 -1 $-1 $420 $542 $445 $316 reversed $543 $-1 #
point $-1 -1 $-1 -1.110223024625157e-016 6.3627317242171211 4.0640000000000001 #
plane-surface $-1 -1 $-1 4.0640000000000009 0 0 -1 0 0 0 0 1 forward_v I I I I #
coedge $-1 -1 $-1 $326 $324 $328 $463 reversed $213 $-1 #
edge $-1 -1 $-1 $339 -4.0640000000000001 $465 4.0640000000000001 $338 $572 forward @7 unknown #
vertex $-1 -1 $-1 $463 $573 #
straight-curve $-1 -1 $-1 -4.0640000000000009 -6.3627317242171211 0 0 0 -1 I I #
edge $-1 -1 $-1 $461 -6.3627317242171211 $465 6.3627317242171211 $459 $574 forward @7 unknown #
straight-curve $-1 -1 $-1 0 -6.3627317242171211 -4.0640000000000001 -1 0 0 I I #
vertex $-1 -1 $-1 $331 $575 #
straight-curve $-1 -1 $-1 0 6.3627317242171211 -4.0640000000000001 1 0 0 I I #
point $-1 -1 $-1 4.0640000000000009 6.3627317242171211 -4.0640000000000001 #
point $-1 -1 $-1 4.0640000000000009 -6.3627317242171211 -4.0640000000000001 #
straight-curve $-1 -1 $-1 -4.0640000000000009 0 4.0640000000000001 0 -1 0 I I #
point $-1 -1 $-1 -4.0640000000000009 6.3627317242171211 4.0640000000000001 #
point $-1 -1 $-1 -4.0640000000000009 -6.3627317242171211 4.0640000000000001 #
straight-curve $-1 -1 $-1 4.0640000000000009 -6.3627317242171211 0 0 0 -1 I I #
straight-curve $-1 -1 $-1 4.0640000000000009 6.3627317242171211 0 0 0 -1 I I #
convexity-sys-attrib $-1 -1 $-1 $-1 $350 #
vertex $-1 -1 $-1 $350 $576 #
ellipse-curve $-1 -1 $-1 -1.110223024625157e-016 3.9560182757828768 0 0 1 0 4.0640000000000001 0 4.9768002219341407e-016 1 I I #
point $-1 -1 $-1 -4.0640000000000001 -0.012731724217124984 9.8607613152626476e-032 #
point $-1 -1 $-1 -2.7781249999999997 3.9560182757828786 0 #
plane-surface $-1 -1 $-1 -0.7619999999999999 0 0 1 0 0 0 0 -1 forward_v I I I I #
coedge $-1 -1 $-1 $369 $577 $365 $485 reversed $358 $-1 #
edge $578 -1 $-1 $579 1.3821799406194926 $483 1.7594127129703008 $360 $375 forward @7 unknown #
coedge $-1 -1 $-1 $362 $361 $577 $580 forward $155 $-1 #
vertex $-1 -1 $-1 $481 $581 #
straight-curve $-1 -1 $-1 -0.7619999999999999 3.9919233459574417 -29.086358171482075 0 -3.8285889215894375e-016 1 I I #
edge $-1 -1 $-1 $376 -3.9919233459574373 $486 3.9919233459574319 $480 $582 forward @7 unknown #
vertex $-1 -1 $-1 $485 $583 #
point $-1 -1 $-1 -0.7619999999999999 3.9919233459574368 -16.386358171482076 #
coedge $-1 -1 $-1 $577 $369 $372 $490 reversed $358 $-1 #
straight-curve $-1 -1 $-1 0.7619999999999999 -3.9919233459574275 -29.086358171482075 0 -3.8285889215894375e-016 1 I I #
edge $584 -1 $-1 $579 -3.9919233459574373 $374 3.9919233459574319 $488 $585 forward @7 unknown #
point $-1 -1 $-1 0.7619999999999999 -3.9919233459574319 -17.148358171482077 #
point $-1 -1 $-1 0.7619999999999999 -3.9919233459574324 -16.386358171482076 #
convexity-sys-attrib $-1 -1 $-1 $-1 $378 #
straight-curve $-1 -1 $-1 -0.7619999999999999 0 -17.148358171482073 0 1 0 I I #
convexity-sys-attrib $-1 -1 $-1 $-1 $383 #
vertex $-1 -1 $-1 $383 $586 #
ellipse-curve $-1 -1 $-1 -1.110223024625157e-016 -0.01273172421712232 0 0 1 0 4.0640000000000001 0 4.9768002219341407e-016 1 I I #
point $-1 -1 $-1 -4.0640000000000001 -6.362731724217122 9.8607613152626476e-032 #
point $-1 -1 $-1 -1.5874999999999999 -0.012731724217121432 0 #
model_id-kcp-attrib $-1 -1 $-1 $-1 $391 1 1021487225 1021487225 1775697921 9 #
face $587 -1 $-1 $588 $589 $11 $-1 $590 forward single #
loop $-1 -1 $-1 $-1 $591 $391 #
cone-surface $-1 -1 $-1 0 13.334999999999997 0 0 -1 0 -4.0640000000000001 0 0 1 I I 0 1 4.0640000000000001 forward I I I I #
coedge $-1 -1 $-1 $592 $592 $593 $594 forward $394 $-1 #
coedge $-1 -1 $-1 $509 $507 $395 $506 reversed $392 $-1 #
edge $595 -1 $-1 $512 -1.2246063538223773e-016 $513 3.1415926535897931 $395 $596 forward @7 unknown #
coedge $-1 -1 $-1 $505 $400 $396 $508 forward $392 $-1 #
edge $-1 -1 $-1 $404 0 $513 0.15625000000000008 $396 $597 forward @7 unknown #
coedge $-1 -1 $-1 $400 $505 $397 $510 reversed $392 $-1 #
edge $-1 -1 $-1 $403 0 $512 0.15624999999999994 $397 $598 forward @7 unknown #
attrib_edge_convexity-kcp-attrib $-1 -1 $599 $-1 $399 2 #
vertex $-1 -1 $-1 $510 $600 #
vertex $-1 -1 $-1 $508 $601 #
ellipse-curve $-1 -1 $-1 8.8123952579621795e-017 10.31875 0 0 -1 0 2.7781249999999997 0 0 1 I I #
attrib_edge_convexity-kcp-attrib $-1 -1 $602 $-1 $401 1 #
ellipse-curve $-1 -1 $-1 -1.7624790515924359e-016 6.3499999999999996 -1.7624790515924359e-016 5.0753052554292868e-016 1 9.4350914928603263e-032 2.7781249999999997 -1.4099832412739487e-015 5.1645885783052278e-016 1 I I #
convexity-sys-attrib $-1 -1 $-1 $402 $275 #
point $-1 -1 $-1 2.7781249999999997 6.3499999999999979 3.4021095267127914e-016 #
point $-1 -1 $-1 -2.7781249999999997 6.3499999999999979 -6.8042190534255829e-016 #
face $-1 -1 $-1 $431 $603 $32 $-1 $556 reversed single #
loop $-1 -1 $-1 $-1 $424 $407 #
plane-surface $-1 -1 $-1 -4.0640000000000009 0 0 1 0 0 0 0 -1 forward_v I I I I #
coedge $-1 -1 $-1 $411 $410 $192 $293 forward $190 $-1 #
coedge $-1 -1 $-1 $604 $605 $410 $525 forward $606 $-1 #
edge $-1 -1 $-1 $426 -3.1415926535897931 $417 -1.5707963267948968 $524 $206 forward @7 unknown #
coedge $-1 -1 $-1 $607 $608 $411 $527 forward $603 $-1 #
edge $-1 -1 $-1 $418 1.5707963267948968 $297 3.1415926535897931 $526 $299 forward @7 unknown #
coedge $-1 -1 $-1 $609 $412 $608 $540 forward $531 $-1 #
coedge $-1 -1 $-1 $412 $609 $604 $610 forward $531 $-1 #
coedge $-1 -1 $-1 $611 $612 $191 $290 reversed $613 $-1 #
loop $-1 -1 $-1 $-1 $412 $565 #
coedge $-1 -1 $-1 $533 $413 $612 $614 reversed $534 $-1 #
coedge $-1 -1 $-1 $413 $532 $439 $442 reversed $534 $-1 #
loop $-1 -1 $-1 $-1 $413 $615 #
coedge $-1 -1 $-1 $536 $415 $440 $314 forward $537 $-1 #
coedge $-1 -1 $-1 $415 $535 $611 $538 reversed $537 $-1 #
loop $-1 -1 $-1 $-1 $415 $616 #
edge $-1 -1 $-1 $417 -1.110223024625157e-016 $454 4.0640000000000009 $536 $617 forward @7 unknown #
point $-1 -1 $-1 -1.110223024625157e-016 6.3627317242171211 -4.0640000000000001 #
edge $-1 -1 $-1 $418 1.110223024625157e-016 $557 4.0640000000000009 $608 $618 forward @7 unknown #
point $-1 -1 $-1 -1.110223024625157e-016 -6.3627317242171211 -4.0640000000000001 #
coedge $-1 -1 $-1 $456 $420 $423 $545 reversed $543 $-1 #
loop $-1 -1 $-1 $-1 $420 $452 #
coedge $-1 -1 $-1 $423 $422 $551 $619 reversed $425 $-1 #
edge $-1 -1 $-1 $455 -4.0640000000000001 $426 0 $542 $620 forward @7 unknown #
coedge $-1 -1 $-1 $621 $424 $605 $549 forward $521 $-1 #
coedge $-1 -1 $-1 $424 $621 $607 $432 reversed $521 $-1 #
face $-1 -1 $-1 $567 $425 $32 $-1 $522 reversed single #
edge $-1 -1 $-1 $426 0 $622 4.0640000000000001 $605 $620 forward @7 unknown #
point $-1 -1 $-1 -4.0640000000000009 6.3627317242171211 0 #
coedge $-1 -1 $-1 $428 $445 $544 $619 forward $285 $-1 #
vertex $-1 -1 $-1 $619 $623 #
straight-curve $-1 -1 $-1 0 -6.3627317242171211 4.0640000000000001 1 0 0 I I #
straight-curve $-1 -1 $-1 -4.0640000000000009 -6.3627317242171211 0 0 0 -1 I I #
face $-1 -1 $-1 $615 $438 $32 $-1 $556 reversed single #
plane-surface $-1 -1 $-1 0 -6.3627317242171211 0 0 1 0 0 0 1 forward_v I I I I #
vertex $-1 -1 $-1 $624 $625 #
vertex $-1 -1 $-1 $564 $626 #
coedge $-1 -1 $-1 $441 $449 $436 $560 forward $450 $-1 #
edge $-1 -1 $-1 $558 -4.0640000000000001 $303 0 $559 $563 forward @7 unknown #
coedge $-1 -1 $-1 $440 $439 $627 $569 reversed $408 $-1 #
vertex $-1 -1 $-1 $442 $628 #
straight-curve $-1 -1 $-1 4.0640000000000009 -6.3627317242171211 0 0 0 -1 I I #
edge $-1 -1 $-1 $558 -6.3627317242171211 $447 6.3627317242171211 $449 $629 forward @7 unknown #
face $-1 -1 $-1 $548 $531 $32 $-1 $630 reversed single #
point $-1 -1 $-1 4.0640000000000009 6.3627317242171211 4.0640000000000001 #
face $-1 -1 $-1 $-1 $450 $32 $-1 $409 reversed single #
face $-1 -1 $-1 $631 $606 $32 $-1 $453 reversed single #
edge $-1 -1 $-1 $454 -6.3627317242171211 $562 6.3627317242171211 $561 $632 forward @7 unknown #
point $-1 -1 $-1 4.0640000000000009 6.3627317242171211 -4.0640000000000001 #
point $-1 -1 $-1 -4.0640000000000009 6.3627317242171211 4.0640000000000001 #
straight-curve $-1 -1 $-1 -4.0640000000000009 6.3627317242171211 0 0 0 -1 I I #
point $-1 -1 $-1 -4.0640000000000009 -6.3627317242171211 -4.0640000000000001 #
straight-curve $-1 -1 $-1 -4.0640000000000009 0 -4.0640000000000001 0 1 0 I I #
point $-1 -1 $-1 -4.0640000000000009 6.3627317242171211 -4.0640000000000001 #
point $-1 -1 $-1 -4.0640000000000001 3.9560182757828768 9.8607613152626476e-032 #
coedge $-1 -1 $-1 $480 $488 $482 $580 reversed $358 $-1 #
convexity-sys-attrib $-1 -1 $-1 $-1 $481 #
vertex $-1 -1 $-1 $490 $633 #
edge $-1 -1 $-1 $486 -12.699999999999999 $579 -11.937999999999999 $577 $634 forward @7 unknown #
point $-1 -1 $-1 -0.7619999999999999 3.9919233459574373 -17.148358171482077 #
straight-curve $-1 -1 $-1 0.76199999999999979 4.7024803914679121e-015 -16.386358171482076 0 1 3.8285889215894375e-016 I I #
point $-1 -1 $-1 0.7619999999999999 3.9919233459574368 -16.386358171482076 #
convexity-sys-attrib $-1 -1 $-1 $-1 $490 #
straight-curve $-1 -1 $-1 0.7619999999999999 0 -17.148358171482073 0 -1 0 I I #
point $-1 -1 $-1 -4.0640000000000001 -0.01273172421712232 9.8607613152626476e-032 #
model_id-kcp-attrib $-1 -1 $-1 $-1 $501 1 1021487225 1021487225 1775697921 10 #
face $635 -1 $-1 $636 $637 $11 $-1 $638 reversed single #
loop $-1 -1 $-1 $-1 $639 $501 #
torus-surface $-1 -1 $-1 0 11.90625 0 0 -1 0 3.2702499999999999 0.79374999999999996 -1 0 0 forward_v I I I I #
coedge $-1 -1 $-1 $640 $641 $642 $643 forward $502 $-1 #
coedge $-1 -1 $-1 $504 $504 $644 $645 reversed $394 $-1 #
coedge $-1 -1 $-1 $641 $640 $504 $594 reversed $502 $-1 #
edge $646 -1 $-1 $647 -2.388157907355988e-032 $648 3.1415926535897931 $504 $649 forward @7 unknown #
attrib_edge_convexity-kcp-attrib $-1 -1 $650 $-1 $506 2 #
ellipse-curve $-1 -1 $-1 8.8123952579621795e-017 10.31875 0 0 1 0 2.7781249999999997 0 0 1 I I #
straight-curve $-1 -1 $-1 -2.7781249999999997 6.3499999999999979 -6.8042190534255829e-016 0 25.399999999999999 0 I I #
straight-curve $-1 -1 $-1 2.7781249999999997 6.3499999999999979 3.4021095267127914e-016 0 25.399999999999999 0 I I #
convexity-sys-attrib $-1 -1 $-1 $511 $399 #
point $-1 -1 $-1 2.7781249999999997 10.318749999999996 3.4021095267127914e-016 #
point $-1 -1 $-1 -2.7781249999999997 10.31875 0 #
convexity-sys-attrib $-1 -1 $-1 $515 $401 #
loop $-1 -1 $-1 $-1 $526 $520 #
coedge $-1 -1 $-1 $605 $524 $529 $610 reversed $606 $-1 #
coedge $-1 -1 $-1 $524 $604 $546 $549 reversed $606 $-1 #
loop $-1 -1 $-1 $-1 $524 $568 #
coedge $-1 -1 $-1 $608 $526 $547 $432 forward $603 $-1 #
coedge $-1 -1 $-1 $526 $607 $528 $540 reversed $603 $-1 #
coedge $-1 -1 $-1 $529 $528 $621 $624 forward $531 $-1 #
edge $-1 -1 $-1 $622 -4.0640000000000009 $417 -1.110223024625157e-016 $604 $617 forward @7 unknown #
coedge $-1 -1 $-1 $627 $530 $536 $538 forward $613 $-1 #
coedge $-1 -1 $-1 $530 $627 $532 $614 forward $613 $-1 #
loop $-1 -1 $-1 $-1 $530 $631 #
edge $-1 -1 $-1 $562 -4.0640000000000009 $418 1.110223024625157e-016 $532 $618 forward @7 unknown #
face $-1 -1 $-1 $616 $534 $32 $-1 $556 reversed single #
face $-1 -1 $-1 $313 $537 $32 $-1 $453 reversed single #
straight-curve $-1 -1 $-1 0 6.3627317242171211 -4.0640000000000001 1 0 0 I I #
straight-curve $-1 -1 $-1 0 -6.3627317242171211 -4.0640000000000001 -1 0 0 I I #
edge $-1 -1 $-1 $455 -6.3627317242171211 $552 6.3627317242171211 $544 $651 forward @7 unknown #
straight-curve $-1 -1 $-1 -4.0640000000000009 6.3627317242171211 0 0 0 -1 I I #
coedge $-1 -1 $-1 $547 $546 $609 $624 reversed $521 $-1 #
vertex $-1 -1 $-1 $610 $652 #
point $-1 -1 $-1 -4.0640000000000009 -6.3627317242171211 4.0640000000000001 #
edge $-1 -1 $-1 $557 -6.3627317242171211 $622 6.3627317242171211 $621 $653 forward @7 unknown #
point $-1 -1 $-1 -4.0640000000000009 -6.3627317242171211 -4.0640000000000001 #
point $-1 -1 $-1 4.0640000000000009 -6.3627317242171211 4.0640000000000001 #
coedge $-1 -1 $-1 $612 $611 $561 $569 forward $613 $-1 #
point $-1 -1 $-1 4.0640000000000009 -6.3627317242171211 -4.0640000000000001 #
straight-curve $-1 -1 $-1 4.0640000000000009 0 4.0640000000000001 0 1 0 I I #
plane-surface $-1 -1 $-1 0 0 -4.0640000000000001 0 0 1 1 0 0 forward_v I I I I #
face $-1 -1 $-1 $446 $613 $32 $-1 $630 reversed single #
straight-curve $-1 -1 $-1 4.0640000000000009 0 -4.0640000000000001 0 -1 0 I I #
point $-1 -1 $-1 0.7619999999999999 3.9919233459574373 -17.148358171482077 #
straight-curve $-1 -1 $-1 0.7619999999999999 3.9919233459574417 -29.086358171482075 0 3.8285889215894375e-016 -1 I I #
model_id-kcp-attrib $-1 -1 $-1 $-1 $588 1 1021487225 1021487225 1775697921 11 #
face $654 -1 $-1 $655 $656 $11 $-1 $657 forward single #
loop $-1 -1 $-1 $-1 $658 $588 #
plane-surface $-1 -1 $-1 0 12.699999999999999 0 0 -1 0 -25.399999999999999 0 0 forward_v I I I I #
coedge $-1 -1 $-1 $659 $660 $661 $662 forward $589 $-1 #
coedge $-1 -1 $-1 $593 $591 $663 $664 reversed $502 $-1 #
coedge $-1 -1 $-1 $591 $593 $665 $666 forward $502 $-1 #
coedge $-1 -1 $-1 $667 $659 $591 $643 reversed $589 $-1 #
edge $-1 -1 $-1 $668 0 $669 3.1415926535897931 $591 $670 forward @7 unknown #
coedge $-1 -1 $-1 $663 $665 $592 $645 forward $671 $-1 #
edge $672 -1 $-1 $647 1.1940789536779933e-032 $648 3.1415926535897927 $592 $673 forward @7 unknown #
attrib_edge_convexity-kcp-attrib $-1 -1 $674 $-1 $594 1 #
vertex $-1 -1 $-1 $645 $675 #
vertex $-1 -1 $-1 $645 $676 #
ellipse-curve $-1 -1 $-1 5.2874371547773072e-016 10.31875 -1.7624790515924359e-016 -6.9388939039072294e-016 -1 -1.1506679101329212e-031 4.0639999999999992 -2.8199664825478975e-015 6.7392792735265771e-016 1 I I #
convexity-sys-attrib $-1 -1 $-1 $595 $506 #
straight-curve $-1 -1 $-1 -4.0640000000000009 0 4.0640000000000001 0 -1 0 I I #
point $-1 -1 $-1 -4.0640000000000009 6.3627317242171211 -4.0640000000000001 #
straight-curve $-1 -1 $-1 -4.0640000000000009 0 -4.0640000000000001 0 1 0 I I #
model_id-kcp-attrib $-1 -1 $-1 $-1 $636 1 1021487225 1021487225 1775697921 12 #
face $677 -1 $-1 $678 $679 $11 $-1 $680 reversed single #
loop $-1 -1 $-1 $-1 $681 $636 #
torus-surface $-1 -1 $-1 0 11.90625 0 0 -1 0 3.2702499999999999 0.79374999999999996 -1 0 0 forward_v I I I I #
coedge $-1 -1 $-1 $661 $682 $683 $684 forward $637 $-1 #
coedge $-1 -1 $-1 $642 $639 $685 $686 forward $589 $-1 #
coedge $-1 -1 $-1 $639 $687 $688 $689 forward $589 $-1 #
coedge $-1 -1 $-1 $682 $658 $639 $662 reversed $637 $-1 #
edge $690 -1 $-1 $691 4.1524872961260837e-017 $692 1.3356248880397528 $661 $693 forward @7 unknown #
coedge $-1 -1 $-1 $694 $644 $640 $664 forward $671 $-1 #
edge $-1 -1 $-1 $648 0 $669 0.062500000000000014 $640 $695 forward @7 unknown #
coedge $-1 -1 $-1 $644 $694 $641 $666 reversed $671 $-1 #
edge $-1 -1 $-1 $647 0 $668 0.062500000000000014 $641 $696 forward @7 unknown #
coedge $-1 -1 $-1 $697 $642 $698 $699 reversed $589 $-1 #
vertex $-1 -1 $-1 $666 $700 #
vertex $-1 -1 $-1 $664 $701 #
ellipse-curve $-1 -1 $-1 0 11.90625 0 0 -1 0 4.0640000000000001 0 4.9768002219341407e-016 1 I I #
loop $-1 -1 $-1 $-1 $644 $702 #
attrib_edge_convexity-kcp-attrib $-1 -1 $703 $-1 $645 1 #
ellipse-curve $-1 -1 $-1 -3.5249581031848718e-016 10.31875 7.0499162063697436e-016 6.9388939039072264e-016 1 -3.5396485891960705e-032 4.0640000000000009 -2.8199664825478975e-015 -2.0731159844356027e-016 1 I I #
convexity-sys-attrib $-1 -1 $-1 $646 $594 #
point $-1 -1 $-1 4.0640000000000001 10.318749999999996 4.9768002219341407e-016 #
point $-1 -1 $-1 -4.0640000000000001 10.318749999999996 -9.9536004438682814e-016 #
model_id-kcp-attrib $-1 -1 $-1 $-1 $655 1 1021487225 1021487225 1775697921 13 #
face $704 -1 $-1 $705 $706 $11 $-1 $707 reversed single #
loop $-1 -1 $-1 $-1 $708 $655 #
plane-surface $-1 -1 $-1 -0.7619999999999999 11.937999999999999 4.8808166714374686 0 -1 0 25.399999999999999 0 0 forward_v I I I I #
coedge $-1 -1 $-1 $709 $710 $711 $712 forward $656 $-1 #
coedge $-1 -1 $-1 $658 $661 $713 $714 forward $637 $-1 #
coedge $-1 -1 $-1 $710 $685 $658 $684 reversed $656 $-1 #
edge $715 -1 $-1 $716 4.9829847553512962e-016 $692 1.3356248880397528 $658 $717 forward @7 unknown #
coedge $-1 -1 $-1 $683 $718 $659 $686 reversed $656 $-1 #
edge $-1 -1 $-1 $692 2.3078651850475698e-016 $669 1.5707963267948981 $685 $719 forward @7 unknown #
coedge $-1 -1 $-1 $660 $720 $721 $722 forward $589 $-1 #
coedge $-1 -1 $-1 $723 $713 $660 $689 reversed $706 $-1 #
edge $-1 -1 $-1 $724 0 $691 1 $660 $725 forward @7 unknown #
attrib_edge_convexity-kcp-attrib $-1 -1 $726 $-1 $662 3 #
vertex $-1 -1 $-1 $714 $727 #
vertex $-1 -1 $-1 $662 $728 #
ellipse-curve $-1 -1 $-1 1.5862311464331924e-015 12.699999999999999 -1.2337353361147051e-015 0 -1 0 -0.76200000000000134 0 3.1802344351478253 1 I I #
coedge $-1 -1 $-1 $665 $663 $718 $729 reversed $671 $-1 #
straight-curve $-1 -1 $-1 -4.0640000000000001 10.318749999999996 -9.9536004438682814e-016 0 25.399999999999999 0 I I #
straight-curve $-1 -1 $-1 4.0640000000000001 10.318749999999996 4.9768002219341407e-016 0 25.399999999999999 0 I I #
coedge $-1 -1 $-1 $720 $667 $730 $731 forward $589 $-1 #
coedge $-1 -1 $-1 $718 $732 $667 $699 forward $656 $-1 #
edge $-1 -1 $-1 $733 2.3078651850475698e-016 $668 1.5707963267948981 $698 $734 forward @7 unknown #
point $-1 -1 $-1 4.0640000000000001 11.906249999999996 4.9768002219341407e-016 #
point $-1 -1 $-1 -4.0640000000000001 11.906249999999996 -9.9536004438682814e-016 #
face $735 -1 $-1 $-1 $671 $11 $-1 $736 forward single #
convexity-sys-attrib $-1 -1 $-1 $672 $645 #
model_id-kcp-attrib $-1 -1 $-1 $-1 $678 1 1021487225 1021487225 1775697921 14 #
face $737 -1 $-1 $738 $739 $11 $-1 $740 reversed single #
loop $-1 -1 $-1 $-1 $688 $678 #
plane-surface $-1 -1 $-1 -0.7619999999999999 12.699999999999999 4.8808166714374686 -1 0 0 0 -25.399999999999999 0 forward_v I I I I #
coedge $-1 -1 $-1 $721 $711 $723 $741 reversed $679 $-1 #
coedge $-1 -1 $-1 $732 $681 $742 $743 forward $656 $-1 #
coedge $-1 -1 $-1 $681 $683 $744 $745 forward $656 $-1 #
coedge $-1 -1 $-1 $708 $746 $681 $712 reversed $679 $-1 #
edge $747 -1 $-1 $748 2.6896675572886182e-017 $749 0.3772924574266302 $681 $750 forward @7 unknown #
coedge $-1 -1 $-1 $688 $744 $682 $714 reversed $706 $-1 #
edge $751 -1 $-1 $691 0 $716 0.25041216024786023 $682 $752 forward @7 unknown #
attrib_edge_convexity-kcp-attrib $-1 -1 $753 $-1 $684 3 #
vertex $-1 -1 $-1 $714 $754 #
ellipse-curve $-1 -1 $-1 3.1724622928663847e-015 12.699999999999999 1.4981071938535704e-015 0 1 0 -0.76200000000000156 0 -3.1802344351478267 1 I I #
coedge $-1 -1 $-1 $685 $698 $694 $729 forward $656 $-1 #
ellipse-curve $-1 -1 $-1 -3.270249999999999 11.906249999999998 0 0 0 1 -7.0499162063697436e-016 0.7937500000000014 0 1 I I #
coedge $-1 -1 $-1 $687 $697 $755 $756 forward $589 $-1 #
coedge $-1 -1 $-1 $746 $708 $687 $722 reversed $679 $-1 #
edge $757 -1 $-1 $758 8.0690026718658547e-017 $724 0.3772924574266302 $687 $759 forward @7 unknown #
coedge $-1 -1 $-1 $744 $688 $708 $741 forward $706 $-1 #
vertex $-1 -1 $-1 $689 $760 #
intcurve-curve $-1 -1 $-1 forward { surfintcur full nurbs 3 open 8 
	0 3 0.1422989164199655 1 0.28510336650202645 1 0.4278843857812048 1 0.57043379591046905 1 
	0.71352340464053954 1 0.85689171351840188 1 1 3 
	-0.76199999999999979 11.937999999999999 3.9912766200030081 1 
	-0.76199999999999957 11.994904828642197 3.9891055048241664 1 
	-0.76199999999999923 12.10637991757995 3.9723018362078641 1 
	-0.76200000000000112 12.27217357052421 3.908529114494558 1.0000000000000002 
	-0.76199999999999946 12.418174668567943 3.8093994592156215 0.99999999999999989 
	-0.76200000000000045 12.536637233814801 3.6847634477312461 1 
	-0.76200000000000068 12.629912419760563 3.5312790137414831 0.99999999999999978 
	-0.76200000000000012 12.68757466781576 3.3574533966075801 1.0000000000000002 
	-0.7619999999999999 12.700063448434243 3.2401682471513458 1 
	-0.76199999999999979 12.699999999999999 3.180234435147824 1 
	0.025399999999999999 
	plane -0.7619999999999999 12.699999999999999 4.8808166714374686 -1 0 0 0 -25.399999999999999 0 forward_v I I I I 
	torus 0 11.90625 0 0 -1 0 3.2702499999999999 0.79374999999999996 -1 0 0 forward_v I I I I 
	nullbs 
	nullbs 
	I I 
	0 
	0 
	0 
	} I I #
convexity-sys-attrib $-1 -1 $-1 $690 $662 #
point $-1 -1 $-1 -0.7619999999999999 12.699999999999999 3.180234435147824 #
point $-1 -1 $-1 -3.2702499999999999 12.699999999999999 0 #
edge $-1 -1 $-1 $668 0 $669 3.1415926535897931 $694 $761 forward @7 unknown #
coedge $-1 -1 $-1 $762 $763 $697 $731 reversed $764 $-1 #
edge $765 -1 $-1 $733 0 $766 1.335624888039753 $730 $767 forward @7 unknown #
coedge $-1 -1 $-1 $698 $709 $762 $768 reversed $656 $-1 #
vertex $-1 -1 $-1 $768 $769 #
ellipse-curve $-1 -1 $-1 3.270249999999999 11.906249999999998 4.0047689285876282e-016 1.2246063538223775e-016 -1.0159280456642677e-032 -1 7.0499162063697436e-016 0.7937500000000014 7.8269792939897261e-032 1 I I #
model_id-kcp-attrib $-1 -1 $-1 $-1 $702 1 1021487225 1021487225 1775697921 17 #
cone-surface $-1 -1 $-1 0 13.334999999999997 0 0 -1 0 -4.0640000000000001 0 0 1 I I 0 1 4.0640000000000001 forward I I I I #
model_id-kcp-attrib $-1 -1 $-1 $-1 $705 1 1021487225 1021487225 1775697921 15 #
face $770 -1 $-1 $702 $764 $11 $-1 $771 reversed single #
loop $-1 -1 $-1 $-1 $742 $705 #
plane-surface $-1 -1 $-1 0.7619999999999999 11.937999999999999 4.8808166714374686 1 0 0 0 25.399999999999999 0 forward_v I I I I #
edge $772 -1 $-1 $724 3.4967654318902568e-017 $748 0.31427374960653615 $723 $773 forward @7 unknown #
coedge $-1 -1 $-1 $774 $775 $709 $743 reversed $739 $-1 #
edge $-1 -1 $-1 $749 0 $776 1 $709 $777 forward @7 unknown #
coedge $-1 -1 $-1 $713 $723 $710 $745 reversed $706 $-1 #
edge $-1 -1 $-1 $716 0 $748 1 $710 $778 forward @7 unknown #
coedge $-1 -1 $-1 $711 $721 $774 $779 forward $679 $-1 #
attrib_edge_convexity-kcp-attrib $-1 -1 $780 $-1 $712 1 #
vertex $-1 -1 $-1 $745 $781 #
vertex $-1 -1 $-1 $743 $782 #
ellipse-curve $-1 -1 $-1 0 11.937999999999999 0 0 -1 0 -0.7619999999999999 0 -3.991276620003009 1 I I #
attrib_edge_convexity-kcp-attrib $-1 -1 $783 $-1 $714 1 #
straight-curve $-1 -1 $-1 -0.7619999999999999 12.699999999999999 3.180234435147824 0 0 -25.399999999999999 I I #
convexity-sys-attrib $-1 -1 $-1 $715 $684 #
point $-1 -1 $-1 -0.7619999999999999 12.699999999999999 -3.1802344351478249 #
coedge $-1 -1 $-1 $775 $774 $720 $756 reversed $739 $-1 #
edge $-1 -1 $-1 $766 0 $758 1 $720 $784 forward @7 unknown #
attrib_edge_convexity-kcp-attrib $-1 -1 $785 $-1 $722 1 #
vertex $-1 -1 $-1 $722 $786 #
ellipse-curve $-1 -1 $-1 0 11.937999999999999 0 0 -1 0 0.7619999999999999 0 3.9912766200030094 1 I I #
point $-1 -1 $-1 -0.76199999999999979 11.937999999999999 3.9912766200030081 #
ellipse-curve $-1 -1 $-1 0 11.90625 0 0 1 0 4.0640000000000001 0 4.9768002219341407e-016 1 I I #
coedge $-1 -1 $-1 $763 $730 $732 $768 forward $764 $-1 #
coedge $-1 -1 $-1 $730 $762 $775 $787 reversed $764 $-1 #
loop $-1 -1 $-1 $-1 $730 $738 #
attrib_edge_convexity-kcp-attrib $-1 -1 $788 $-1 $731 3 #
vertex $-1 -1 $-1 $787 $789 #
ellipse-curve $-1 -1 $-1 -9.6936347837583973e-016 12.699999999999999 -7.9311557321659618e-016 0 -1 0 3.2702500000000008 0 1.1935924660753591e-015 1 I I #
edge $790 -1 $-1 $733 -1.844074802249056e-032 $776 1.3356248880397532 $762 $791 forward @7 unknown #
point $-1 -1 $-1 3.2702499999999999 12.699999999999999 4.0047689285876291e-016 #
model_id-kcp-attrib $-1 -1 $-1 $-1 $738 1 1021487225 1021487225 1775697921 16 #
plane-surface $-1 -1 $-1 0 12.699999999999999 0 0 -1 0 -25.399999999999999 0 0 forward_v I I I I #
attrib_edge_convexity-kcp-attrib $-1 -1 $792 $-1 $741 2 #
straight-curve $-1 -1 $-1 -0.7619999999999999 11.937999999999999 3.991276620003009 0 0 -25.399999999999999 I I #
coedge $-1 -1 $-1 $755 $742 $746 $779 reversed $739 $-1 #
coedge $-1 -1 $-1 $742 $755 $763 $787 forward $739 $-1 #
vertex $-1 -1 $-1 $787 $793 #
intcurve-curve $-1 -1 $-1 forward { surfintcur full nurbs 3 open 8 
	0 3 0.14228349624597469 1 0.28506812705568618 1 0.4278407045700845 1 0.57039835110473303 1 
	0.71349828665892223 1 0.85687692084140421 1 1 3 
	0.76200000000000112 11.937999999999999 -3.9912766200030081 1 
	0.7620000000000009 11.994857181143251 -3.9891050989231265 0.99999999999999989 
	0.76200000000000023 12.106240647524748 -3.9723245859246088 0.99999999999999978 
	0.76200000000000279 12.271841309395775 -3.9086858134857252 1.0000000000000002 
	0.76199999999999979 12.417825157154027 -3.8096994461115967 1 
	0.76200000000000345 12.536432965620916 -3.6850462302713378 1 
	0.76199999999999712 12.629813486627294 -3.5315074338786494 1.0000000000000002 
	0.76200000000000256 12.687551863129386 -3.3576052320819003 1 
	0.76200000000000068 12.700060532659325 -3.2402250240595447 1 
	0.76199999999999946 12.699999999999999 -3.1802344351478249 1 
	0.025399999999999999 
	plane 0.7619999999999999 11.937999999999999 4.8808166714374686 1 0 0 0 25.399999999999999 0 forward_v I I I I 
	torus 0 11.90625 0 0 -1 0 3.2702499999999999 0.79374999999999996 -1 0 0 forward_v I I I I 
	nullbs 
	nullbs 
	I I 
	0 
	0 
	0 
	} I I #
intcurve-curve $-1 -1 $-1 forward { surfintcur full nurbs 3 open 8 
	0 3 0.14310828648159796 1 0.28647659535946035 1 0.42956620408953072 1 0.5721156142187952 1 
	0.71489663349797339 1 0.85770108358003472 1 1 3 
	-0.76199999999999835 12.699999999999999 -3.1802344351478253 1 
	-0.76199999999999812 12.700063448434239 -3.2401682471513467 1 
	-0.7619999999999979 12.687574667815767 -3.3574533966075815 0.99999999999999978 
	-0.76199999999999968 12.629912419760556 -3.5312790137414836 1 
	-0.76199999999999679 12.536637233814806 -3.6847634477312461 1 
	-0.76200000000000068 12.418174668567938 -3.8093994592156224 1 
	-0.76200000000000123 12.272173570524215 -3.9085291144945566 0.99999999999999989 
	-0.76199999999999712 12.106379917579947 -3.9723018362078686 1.0000000000000002 
	-0.76199999999999846 11.994904828642195 -3.9891055048241673 0.99999999999999989 
	-0.76199999999999968 11.937999999999999 -3.9912766200030081 1 
	0.025399999999999999 
	plane -0.7619999999999999 12.699999999999999 4.8808166714374686 -1 0 0 0 -25.399999999999999 0 forward_v I I I I 
	torus 0 11.90625 0 0 -1 0 3.2702499999999999 0.79374999999999996 -1 0 0 forward_v I I I I 
	nullbs 
	nullbs 
	I I 
	0 
	0 
	0 
	} I I #
edge $794 -1 $-1 $758 5.2451481478353858e-017 $749 0.31427374960653615 $746 $795 forward @7 unknown #
convexity-sys-attrib $-1 -1 $-1 $747 $712 #
point $-1 -1 $-1 -0.76199999999999968 11.937999999999999 -3.9912766200030081 #
point $-1 -1 $-1 0.7619999999999999 11.937999999999999 -3.991276620003009 #
convexity-sys-attrib $-1 -1 $-1 $751 $714 #
intcurve-curve $-1 -1 $-1 forward { surfintcur full nurbs 3 open 8 
	0 3 0.14312307915859579 1 0.2865017133410776 1 0.42960164889526697 1 0.57215929542991584 1 
	0.71493187294431348 1 0.85771650375402531 1 1 3 
	0.76200000000000001 12.699999999999999 3.180234435147824 1 
	0.76200000000000023 12.700060532659325 3.2402250240595434 1 
	0.76200000000000023 12.687551863129386 3.3576052320818994 1.0000000000000002 
	0.76199999999999901 12.629813486627297 3.5315074338786476 0.99999999999999989 
	0.76200000000000023 12.536432965620921 3.6850462302713378 1 
	0.76199999999999901 12.417825157154017 3.8096994461115998 1.0000000000000002 
	0.7619999999999999 12.271841309395782 3.9086858134857225 0.99999999999999989 
	0.76199999999999968 12.10624064752475 3.9723245859246101 0.99999999999999978 
	0.76199999999999957 11.994857181143251 3.9891050989231256 1 
	0.76199999999999934 11.937999999999999 3.9912766200030081 1 
	0.025399999999999999 
	plane 0.7619999999999999 11.937999999999999 4.8808166714374686 1 0 0 0 25.399999999999999 0 forward_v I I I I 
	torus 0 11.90625 0 0 -1 0 3.2702499999999999 0.79374999999999996 -1 0 0 forward_v I I I I 
	nullbs 
	nullbs 
	I I 
	0 
	0 
	0 
	} I I #
convexity-sys-attrib $-1 -1 $-1 $757 $722 #
point $-1 -1 $-1 0.76199999999999934 11.937999999999999 3.9912766200030081 #
edge $796 -1 $-1 $766 0 $776 0.25041216024786023 $763 $797 forward @7 unknown #
convexity-sys-attrib $-1 -1 $-1 $765 $731 #
point $-1 -1 $-1 0.7619999999999999 12.699999999999999 3.180234435147824 #
attrib_edge_convexity-kcp-attrib $-1 -1 $798 $-1 $768 3 #
ellipse-curve $-1 -1 $-1 -1.4981071938535704e-015 12.699999999999999 6.1686766805735254e-016 0 1 0 3.2702500000000012 0 -2.1639077519858968e-016 1 I I #
convexity-sys-attrib $-1 -1 $-1 $772 $741 #
point $-1 -1 $-1 0.7619999999999999 12.699999999999999 -3.1802344351478249 #
attrib_edge_convexity-kcp-attrib $-1 -1 $799 $-1 $779 2 #
straight-curve $-1 -1 $-1 0.7619999999999999 11.937999999999999 3.9912766200030094 0 0 -25.399999999999999 I I #
attrib_edge_convexity-kcp-attrib $-1 -1 $800 $-1 $787 1 #
straight-curve $-1 -1 $-1 0.7619999999999999 12.699999999999999 3.180234435147824 0 0 -25.399999999999999 I I #
convexity-sys-attrib $-1 -1 $-1 $790 $768 #
convexity-sys-attrib $-1 -1 $-1 $794 $779 #
convexity-sys-attrib $-1 -1 $-1 $796 $787 #
End-of-ACIS-data 