700 0 2 0           
24 FBMach with ACIS - 7.0.3 13 ACIS 7.0.3 NT 24 Wed May 15 14:28:07 2002 
1 9.9999999999999995e-007 1e-010 
body $2 -1 $-1 $3 $-1 $4 #
bdycol-kcp $-1 -1 1 4 $5 $6 $7 $8 #
model_id-kcp-attrib $-1 -1 $-1 $-1 $0 1 1021487286 1021487286 1403846657 1 #
lump $-1 -1 $-1 $-1 $9 $0 #
transform $-1 -1 1 0 0 0 1 0 0 0 1 0 0 0 1 rotate no_reflect no_shear #
body $10 -1 $-1 $11 $-1 $12 #
body $13 -1 $-1 $14 $-1 $15 #
body $16 -1 $-1 $17 $-1 $18 #
body $19 -1 $-1 $20 $-1 $21 #
shell $-1 -1 $-1 $-1 $-1 $22 $-1 $3 #
rgb_color-st-attrib $-1 -1 $23 $-1 $5 0.5 1 1 #
lump $-1 -1 $-1 $-1 $24 $5 #
transform $-1 -1 1 0 0 0 1 0 0 0 1 0 1.5875000000000001 0 1 no_rotate no_reflect no_shear #
rgb_color-st-attrib $-1 -1 $25 $-1 $6 0.5 1 1 #
lump $-1 -1 $-1 $-1 $26 $6 #
transform $-1 -1 1 0 0 0 1 0 0 0 1 0 0 0 1 no_rotate no_reflect no_shear #
model_id-kcp-attrib $-1 -1 $-1 $-1 $7 1 1021487286 1021487286 1404502018 1 #
lump $-1 -1 $-1 $-1 $27 $7 #
transform $-1 -1 1 0 0 0 1 0 0 0 1 0 1.5875000000000001 0 1 no_rotate no_reflect no_shear #
rgb_color-st-attrib $-1 -1 $28 $-1 $8 0 0 1 #
lump $-1 -1 $-1 $-1 $29 $8 #
transform $-1 -1 1 0 0 0 1 0 0 0 1 0 1.5875000000000001 0 1 no_rotate no_reflect no_shear #
face $30 -1 $-1 $31 $32 $9 $-1 $33 forward single #
model_id-kcp-attrib $-1 -1 $-1 $10 $5 1 1021487286 1021487286 1394933763 1 #
shell $-1 -1 $-1 $-1 $-1 $34 $-1 $11 #
model_id-kcp-attrib $-1 -1 $-1 $13 $6 1 1021487286 1021487286 1399521284 1 #
shell $-1 -1 $-1 $-1 $-1 $35 $-1 $14 #
shell $-1 -1 $-1 $-1 $-1 $36 $-1 $17 #
model_id-kcp-attrib $-1 -1 $-1 $19 $8 1 1021487286 1021487286 1406730245 1 #
shell $-1 -1 $-1 $-1 $-1 $37 $-1 $20 #
model_id-kcp-attrib $-1 -1 $-1 $-1 $22 1 1021487286 1021487286 1403846657 2 #
face $38 -1 $-1 $39 $40 $9 $-1 $41 forward single #
loop $-1 -1 $-1 $42 $43 $22 #
plane-surface $-1 -1 $-1 0 0 0 0 -1 0 -25.399999999999999 0 0 forward_v I I I I #
face $-1 -1 $-1 $44 $45 $24 $-1 $46 reversed single #
face $-1 -1 $-1 $47 $48 $26 $-1 $49 forward single #
face $-1 -1 $-1 $50 $51 $27 $-1 $52 forward single #
face $-1 -1 $-1 $53 $54 $29 $-1 $55 forward single #
model_id-kcp-attrib $-1 -1 $-1 $-1 $31 1 1021487286 1021487286 1403846657 3 #
face $56 -1 $-1 $57 $58 $9 $-1 $59 forward single #
loop $-1 -1 $-1 $-1 $60 $31 #
cone-surface $-1 -1 $-1 0 3.333750000000002 0 0 -1 0 -6.3499999999999996 0 0 1 I I 0 1 6.3499999999999996 forward I I I I #
loop $-1 -1 $-1 $-1 $61 $22 #
coedge $-1 -1 $-1 $62 $62 $63 $64 forward $32 $-1 #
face $-1 -1 $-1 $65 $66 $24 $-1 $46 reversed single #
loop $-1 -1 $-1 $-1 $67 $34 #
cone-surface $-1 -1 $-1 -7.1421341876779293e-032 -1.5875000000000001 0 0 -1 0 6.3499999999999996 0 7.7762503467720954e-016 1 I I 0 1 6.3499999999999996 forward I I I I #
face $-1 -1 $-1 $68 $69 $26 $-1 $70 forward single #
loop $-1 -1 $-1 $71 $72 $35 #
cone-surface $-1 -1 $-1 0 0 0 0 1 0 -3.5718749999999999 0 0 1 I I 0 1 3.5718749999999999 forward I I I I #
face $-1 -1 $-1 $73 $74 $27 $-1 $75 reversed single #
loop $-1 -1 $-1 $-1 $76 $36 #
plane-surface $-1 -1 $-1 0 0 6.3499999999999996 0 0 1 1 0 0 forward_v I I I I #
face $-1 -1 $-1 $77 $78 $29 $-1 $79 forward single #
loop $-1 -1 $-1 $80 $81 $37 #
cone-surface $-1 -1 $-1 0 0 0 0 1 0 4.3656249999999996 0 0 1 I I 0 1 4.3656249999999996 forward I I I I #
model_id-kcp-attrib $-1 -1 $-1 $-1 $39 1 1021487286 1021487286 1403846657 4 #
face $82 -1 $-1 $83 $84 $9 $-1 $85 forward single #
loop $-1 -1 $-1 $-1 $86 $39 #
torus-surface $-1 -1 $-1 0 1.2587179848663552 0 0 -1 0 5.5562499999999995 0.79374999999999996 -1 0 0 forward_v I I I I #
coedge $-1 -1 $-1 $87 $88 $89 $90 forward $40 $-1 #
coedge $-1 -1 $-1 $91 $91 $92 $93 reversed $42 $-1 #
coedge $-1 -1 $-1 $43 $43 $94 $95 reversed $32 $-1 #
coedge $-1 -1 $-1 $88 $87 $43 $64 reversed $40 $-1 #
edge $96 -1 $-1 $97 0 $98 3.1415926535897931 $43 $99 forward @7 unknown #
face $-1 -1 $-1 $100 $101 $24 $-1 $46 reversed single #
loop $-1 -1 $-1 $-1 $102 $44 #
coedge $-1 -1 $-1 $103 $104 $105 $106 reversed $45 $-1 #
face $-1 -1 $-1 $-1 $107 $26 $-1 $108 reversed single #
loop $-1 -1 $-1 $-1 $109 $47 #
plane-surface $-1 -1 $-1 0 1.5874999999999999 0 0 1 0 0 0 1 forward_v I I I I #
loop $-1 -1 $-1 $-1 $110 $35 #
coedge $-1 -1 $-1 $72 $72 $109 $111 forward $48 $-1 #
face $112 -1 $-1 $113 $114 $27 $-1 $115 reversed single #
loop $-1 -1 $-1 $-1 $116 $50 #
plane-surface $-1 -1 $-1 0 0 -6.3499999999999996 0 0 1 1 0 0 forward_v I I I I #
coedge $-1 -1 $-1 $117 $118 $119 $120 forward $51 $-1 #
face $-1 -1 $-1 $-1 $121 $29 $-1 $122 reversed single #
loop $-1 -1 $-1 $-1 $123 $53 #
plane-surface $-1 -1 $-1 3.2297397080004555e-016 1.5874999999999999 0 0 1 0 0 0 1 forward_v I I I I #
loop $-1 -1 $-1 $-1 $124 $37 #
coedge $-1 -1 $-1 $81 $81 $123 $125 forward $54 $-1 #
model_id-kcp-attrib $-1 -1 $-1 $-1 $57 1 1021487286 1021487286 1403846657 5 #
face $126 -1 $-1 $127 $128 $9 $-1 $129 forward single #
loop $-1 -1 $-1 $-1 $130 $57 #
torus-surface $-1 -1 $-1 0 1.2587179848663552 0 0 -1 0 5.5562499999999995 0.79374999999999996 -1 0 0 forward_v I I I I #
coedge $-1 -1 $-1 $89 $131 $132 $133 forward $58 $-1 #
coedge $-1 -1 $-1 $63 $60 $134 $135 reversed $40 $-1 #
coedge $-1 -1 $-1 $60 $63 $136 $137 forward $40 $-1 #
coedge $-1 -1 $-1 $138 $86 $60 $90 reversed $58 $-1 #
edge $-1 -1 $-1 $139 0 $140 3.1415926535897931 $60 $141 forward @7 unknown #
coedge $-1 -1 $-1 $61 $61 $142 $143 reversed $42 $-1 #
coedge $-1 -1 $-1 $144 $145 $61 $93 forward $146 $-1 #
edge $147 -1 $-1 $148 0 $149 3.1415926535897931 $61 $150 forward @7 unknown #
coedge $-1 -1 $-1 $134 $136 $62 $95 forward $128 $-1 #
edge $151 -1 $-1 $97 -1.9563789577060247e-032 $98 3.1415926535897931 $62 $152 forward @7 unknown #
attrib_edge_convexity-kcp-attrib $-1 -1 $153 $-1 $64 1 #
vertex $-1 -1 $-1 $95 $154 #
vertex $-1 -1 $-1 $95 $155 #
ellipse-curve $-1 -1 $-1 1.7624790515924359e-016 0 0 0 -1 0 6.3499999999999996 0 7.7762503467720954e-016 1 I I #
face $-1 -1 $-1 $156 $157 $24 $-1 $46 reversed single #
loop $-1 -1 $-1 $-1 $158 $65 #
coedge $-1 -1 $-1 $159 $160 $161 $162 reversed $66 $-1 #
coedge $-1 -1 $-1 $163 $67 $164 $165 forward $45 $-1 #
coedge $-1 -1 $-1 $67 $163 $166 $167 reversed $45 $-1 #
coedge $-1 -1 $-1 $168 $169 $67 $106 forward $170 $-1 #
edge $-1 -1 $-1 $171 -1.2246063538223773e-016 $172 1.5707963267948966 $105 $173 forward @7 unknown #
loop $-1 -1 $-1 $-1 $174 $68 #
plane-surface $-1 -1 $-1 0 0 0 0 1 0 0 0 1 forward_v I I I I #
coedge $-1 -1 $-1 $109 $109 $72 $111 reversed $69 $-1 #
coedge $-1 -1 $-1 $110 $110 $174 $175 reversed $71 $-1 #
edge $-1 -1 $-1 $176 -3.1415926535897931 $176 3.1415926535897931 $72 $177 forward @7 unknown #
model_id-kcp-attrib $-1 -1 $-1 $-1 $73 1 1021487286 1021487286 1404502018 2 #
face $-1 -1 $-1 $178 $179 $27 $-1 $180 reversed single #
loop $-1 -1 $-1 $-1 $181 $73 #
plane-surface $-1 -1 $-1 0 -1.5875000000000001 0 0 1 0 0 0 1 forward_v I I I I #
coedge $-1 -1 $-1 $182 $183 $184 $185 forward $74 $-1 #
coedge $-1 -1 $-1 $186 $76 $187 $188 forward $51 $-1 #
coedge $-1 -1 $-1 $76 $186 $189 $190 forward $51 $-1 #
coedge $-1 -1 $-1 $191 $192 $76 $120 reversed $193 $-1 #
edge $-1 -1 $-1 $194 -1.5875000000000001 $195 1.5875000000000001 $119 $196 forward @7 unknown #
loop $-1 -1 $-1 $-1 $197 $77 #
plane-surface $-1 -1 $-1 3.2297397080004555e-016 0 0 0 1 0 0 0 1 forward_v I I I I #
coedge $-1 -1 $-1 $123 $123 $81 $125 reversed $78 $-1 #
coedge $-1 -1 $-1 $124 $124 $197 $198 reversed $80 $-1 #
edge $-1 -1 $-1 $199 -3.1415926535897931 $199 3.1415926535897931 $81 $200 forward @7 unknown #
model_id-kcp-attrib $-1 -1 $-1 $-1 $83 1 1021487286 1021487286 1403846657 6 #
face $201 -1 $-1 $202 $203 $9 $-1 $204 forward single #
loop $-1 -1 $-1 $-1 $94 $83 #
cone-surface $-1 -1 $-1 0 3.333750000000002 0 0 -1 0 -6.3499999999999996 0 0 1 I I 0 1 6.3499999999999996 forward I I I I #
coedge $-1 -1 $-1 $205 $206 $138 $207 forward $84 $-1 #
coedge $-1 -1 $-1 $86 $138 $208 $209 forward $58 $-1 #
coedge $-1 -1 $-1 $206 $205 $86 $133 reversed $84 $-1 #
edge $-1 -1 $-1 $210 3.7886214443157738e-015 $140 0.7853981633974525 $132 $211 forward @7 unknown #
coedge $-1 -1 $-1 $212 $94 $87 $135 forward $128 $-1 #
edge $-1 -1 $-1 $98 0 $140 0.049555826175840763 $87 $213 forward @7 unknown #
coedge $-1 -1 $-1 $94 $212 $88 $137 reversed $128 $-1 #
edge $-1 -1 $-1 $97 0 $139 0.049555826175840763 $88 $214 forward @7 unknown #
coedge $-1 -1 $-1 $131 $89 $130 $207 reversed $58 $-1 #
vertex $-1 -1 $-1 $137 $215 #
vertex $-1 -1 $-1 $135 $216 #
ellipse-curve $-1 -1 $-1 0 1.2587179848663552 0 0 -1 0 6.3499999999999996 0 7.7762503467720954e-016 1 I I #
coedge $-1 -1 $-1 $217 $218 $91 $143 forward $219 $-1 #
edge $220 -1 $-1 $149 0 $148 3.1415926535897931 $91 $221 forward @7 unknown #
coedge $-1 -1 $-1 $222 $92 $218 $223 reversed $146 $-1 #
coedge $-1 -1 $-1 $92 $222 $217 $224 forward $146 $-1 #
loop $-1 -1 $-1 $-1 $144 $225 #
attrib_edge_convexity-kcp-attrib $-1 -1 $226 $-1 $93 1 #
vertex $-1 -1 $-1 $143 $227 #
vertex $-1 -1 $-1 $143 $228 #
ellipse-curve $-1 -1 $-1 0 0 0 0 -1 0 -3.5718749999999999 0 0 1 I I #
attrib_edge_convexity-kcp-attrib $-1 -1 $229 $-1 $95 1 #
ellipse-curve $-1 -1 $-1 3.5249581031848718e-016 0 1.7624790515924359e-016 0 1 0 6.3499999999999996 0 6.013771295179659e-016 1 I I #
convexity-sys-attrib $-1 -1 $-1 $96 $64 #
point $-1 -1 $-1 6.3499999999999996 0 7.7762503467720954e-016 #
point $-1 -1 $-1 -6.3499999999999996 0 -1.5552500693544191e-015 #
face $-1 -1 $-1 $230 $231 $24 $-1 $232 forward single #
loop $-1 -1 $-1 $-1 $233 $100 #
coedge $-1 -1 $-1 $234 $235 $233 $236 forward $101 $-1 #
coedge $-1 -1 $-1 $237 $102 $238 $239 reversed $66 $-1 #
coedge $-1 -1 $-1 $102 $237 $104 $167 forward $66 $-1 #
coedge $-1 -1 $-1 $240 $241 $102 $162 forward $242 $-1 #
edge $-1 -1 $-1 $243 -3.1415926535897931 $244 -1.5707963267948966 $161 $245 forward @7 unknown #
coedge $-1 -1 $-1 $104 $103 $246 $247 reversed $45 $-1 #
coedge $-1 -1 $-1 $235 $234 $248 $165 reversed $101 $-1 #
edge $-1 -1 $-1 $171 -3.1750000000000007 $249 0 $248 $250 forward @7 unknown #
coedge $-1 -1 $-1 $251 $252 $253 $167 forward $254 $-1 #
edge $-1 -1 $-1 $172 -3.1750000000000007 $244 0 $166 $255 forward @7 unknown #
coedge $-1 -1 $-1 $169 $105 $252 $256 reversed $170 $-1 #
coedge $-1 -1 $-1 $105 $168 $257 $258 forward $170 $-1 #
loop $-1 -1 $-1 $-1 $105 $259 #
vertex $-1 -1 $-1 $260 $261 #
vertex $-1 -1 $-1 $262 $263 #
ellipse-curve $-1 -1 $-1 -7.1421341876779293e-032 1.5875000000000001 0 0 -1 0 6.3499999999999996 0 7.7762503467720954e-016 1 I I #
coedge $-1 -1 $-1 $174 $174 $110 $175 forward $107 $-1 #
edge $-1 -1 $-1 $264 -3.1415926535897931 $264 3.1415926535897931 $110 $265 forward @7 unknown #
vertex $-1 -1 $-1 $111 $266 #
ellipse-curve $-1 -1 $-1 0 1.5874999999999999 0 0 -1 0 3.5718749999999999 0 0 1 I I #
face $267 -1 $-1 $268 $269 $27 $-1 $270 reversed single #
loop $-1 -1 $-1 $-1 $271 $113 #
plane-surface $-1 -1 $-1 -6.3499999999999996 0 0 1 0 0 0 0 -1 forward_v I I I I #
coedge $-1 -1 $-1 $272 $189 $273 $274 forward $114 $-1 #
coedge $-1 -1 $-1 $275 $116 $272 $276 forward $74 $-1 #
coedge $-1 -1 $-1 $116 $275 $277 $278 forward $74 $-1 #
coedge $-1 -1 $-1 $192 $191 $116 $185 reversed $193 $-1 #
edge $-1 -1 $-1 $279 -1.5875000000000001 $280 1.5875000000000001 $184 $281 forward @7 unknown #
coedge $-1 -1 $-1 $118 $117 $282 $283 forward $51 $-1 #
coedge $-1 -1 $-1 $284 $285 $117 $188 reversed $269 $-1 #
edge $-1 -1 $-1 $195 -6.3499999999999996 $286 6.3499999999999996 $187 $287 forward @7 unknown #
coedge $-1 -1 $-1 $181 $288 $118 $190 reversed $114 $-1 #
edge $-1 -1 $-1 $289 -6.3499999999999996 $194 6.3499999999999996 $189 $290 forward @7 unknown #
coedge $-1 -1 $-1 $184 $119 $288 $291 forward $193 $-1 #
coedge $-1 -1 $-1 $119 $184 $284 $292 reversed $193 $-1 #
loop $-1 -1 $-1 $-1 $191 $268 #
vertex $-1 -1 $-1 $120 $293 #
vertex $-1 -1 $-1 $120 $294 #
straight-curve $-1 -1 $-1 6.3499999999999996 0 6.3499999999999996 0 1 0 I I #
coedge $-1 -1 $-1 $197 $197 $124 $198 forward $121 $-1 #
edge $295 -1 $-1 $296 0 $296 6.2831853071795862 $124 $297 forward @7 unknown #
vertex $-1 -1 $-1 $125 $298 #
ellipse-curve $-1 -1 $-1 0 1.5874999999999999 0 0 -1 0 4.3656249999999996 0 0 1 I I #
model_id-kcp-attrib $-1 -1 $-1 $-1 $127 1 1021487286 1021487286 1403846657 7 #
face $299 -1 $-1 $300 $301 $9 $-1 $302 forward single #
loop $-1 -1 $-1 $-1 $303 $127 #
cone-surface $-1 -1 $-1 0 -17.462499999999999 0 0 1 0 -25.399999999999995 0 0 1 I I -0.70710678118654746 0.70710678118654757 25.399999999999995 forward I I I I #
coedge $-1 -1 $-1 $132 $130 $212 $304 forward $84 $-1 #
coedge $-1 -1 $-1 $130 $132 $303 $305 reversed $84 $-1 #
edge $-1 -1 $-1 $306 3.7886214443157738e-015 $139 0.7853981633974525 $130 $307 forward @7 unknown #
coedge $-1 -1 $-1 $308 $309 $131 $209 reversed $301 $-1 #
edge $-1 -1 $-1 $306 -2.1079009750302071e-032 $210 3.1415926535897931 $208 $310 forward @7 unknown #
vertex $-1 -1 $-1 $209 $311 #
ellipse-curve $-1 -1 $-1 -5.556250000000003 1.2587179848663566 0 0 0 1 -0.5612660075668181 0.56126600756682099 0 1 I I #
coedge $-1 -1 $-1 $136 $134 $205 $304 reversed $128 $-1 #
straight-curve $-1 -1 $-1 -6.3499999999999996 0 -1.5552500693544191e-015 0 25.399999999999999 0 I I #
straight-curve $-1 -1 $-1 6.3499999999999996 0 7.7762503467720954e-016 0 25.399999999999999 0 I I #
point $-1 -1 $-1 6.3499999999999996 1.2587179848663552 7.7762503467720954e-016 #
point $-1 -1 $-1 -6.3499999999999996 1.2587179848663552 -1.5552500693544191e-015 #
coedge $-1 -1 $-1 $312 $142 $145 $224 reversed $219 $-1 #
coedge $-1 -1 $-1 $142 $312 $144 $223 forward $219 $-1 #
loop $-1 -1 $-1 $-1 $217 $313 #
attrib_edge_convexity-kcp-attrib $-1 -1 $314 $-1 $143 1 #
ellipse-curve $-1 -1 $-1 0 0 0 0 -1 0 3.5718749999999999 0 0 1 I I #
coedge $-1 -1 $-1 $145 $144 $315 $316 reversed $146 $-1 #
edge $-1 -1 $-1 $317 0 $149 0.0625 $218 $318 forward @7 unknown #
edge $-1 -1 $-1 $319 0 $148 0.0625 $217 $320 forward @7 unknown #
face $321 -1 $-1 $313 $146 $9 $-1 $322 reversed single #
convexity-sys-attrib $-1 -1 $-1 $147 $93 #
point $-1 -1 $-1 -3.5718749999999999 0 0 #
point $-1 -1 $-1 3.5718749999999999 0 0 #
convexity-sys-attrib $-1 -1 $-1 $151 $95 #
face $-1 -1 $-1 $323 $324 $24 $-1 $325 reversed single #
loop $-1 -1 $-1 $-1 $253 $156 #
plane-surface $-1 -1 $-1 0 0 6.3499999999999996 0 0 1 1 0 0 forward_v I I I I #
coedge $-1 -1 $-1 $326 $327 $328 $236 reversed $157 $-1 #
coedge $-1 -1 $-1 $164 $158 $329 $330 reversed $101 $-1 #
coedge $-1 -1 $-1 $158 $164 $331 $332 reversed $101 $-1 #
edge $-1 -1 $-1 $333 -3.1750000000000007 $334 0 $328 $335 forward @7 unknown #
coedge $-1 -1 $-1 $160 $159 $336 $337 reversed $66 $-1 #
coedge $-1 -1 $-1 $338 $339 $340 $239 forward $341 $-1 #
edge $-1 -1 $-1 $342 -3.1750000000000007 $243 0 $238 $343 forward @7 unknown #
coedge $-1 -1 $-1 $241 $161 $344 $345 reversed $242 $-1 #
coedge $-1 -1 $-1 $161 $240 $338 $346 forward $242 $-1 #
loop $-1 -1 $-1 $-1 $161 $347 #
vertex $-1 -1 $-1 $348 $349 #
vertex $-1 -1 $-1 $350 $351 #
ellipse-curve $-1 -1 $-1 -7.1421341876779293e-032 -1.5875000000000001 0 0 1 0 6.3499999999999996 0 7.7762503467720954e-016 1 I I #
coedge $-1 -1 $-1 $352 $353 $163 $247 forward $354 $-1 #
edge $-1 -1 $-1 $244 -1.5707963267948966 $249 1.2246063538223773e-016 $246 $245 forward @7 unknown #
coedge $-1 -1 $-1 $355 $356 $357 $165 forward $324 $-1 #
vertex $-1 -1 $-1 $358 $359 #
straight-curve $-1 -1 $-1 6.3499999999999996 -1.5875000000000001 0 0 -1 0 I I #
coedge $-1 -1 $-1 $360 $166 $353 $350 forward $254 $-1 #
coedge $-1 -1 $-1 $166 $360 $168 $256 forward $254 $-1 #
coedge $-1 -1 $-1 $361 $344 $160 $167 reversed $231 $-1 #
loop $-1 -1 $-1 $-1 $166 $362 #
straight-curve $-1 -1 $-1 -7.1421341876779293e-032 -1.5875000000000001 6.3499999999999996 0 -1 0 I I #
edge $-1 -1 $-1 $363 -6.3499999999999996 $172 7.1421341876779293e-032 $168 $364 forward @7 unknown #
coedge $-1 -1 $-1 $365 $357 $169 $258 reversed $366 $-1 #
edge $-1 -1 $-1 $363 -6.3499999999999996 $171 0 $257 $367 forward @7 unknown #
face $-1 -1 $-1 $368 $170 $24 $-1 $369 reversed single #
edge $-1 -1 $-1 $171 0 $370 6.3499999999999996 $356 $367 forward @7 unknown #
point $-1 -1 $-1 6.3499999999999996 1.5875000000000006 0 #
edge $-1 -1 $-1 $172 7.1421341876779293e-032 $371 6.3499999999999996 $372 $364 forward @7 unknown #
point $-1 -1 $-1 -7.1421341876779293e-032 1.5875000000000006 6.3499999999999996 #
vertex $-1 -1 $-1 $175 $373 #
ellipse-curve $-1 -1 $-1 0 0 0 0 -1 0 -3.5718749999999999 0 0 1 I I #
point $-1 -1 $-1 -3.5718749999999999 1.5874999999999999 0 #
model_id-kcp-attrib $-1 -1 $-1 $-1 $178 1 1021487286 1021487286 1404502018 3 #
face $-1 -1 $-1 $-1 $193 $27 $-1 $374 reversed single #
loop $-1 -1 $-1 $-1 $284 $178 #
plane-surface $-1 -1 $-1 0 1.5875000000000001 0 0 -1 0 0 0 -1 forward_v I I I I #
coedge $-1 -1 $-1 $375 $282 $285 $376 forward $179 $-1 #
coedge $-1 -1 $-1 $288 $181 $182 $276 reversed $114 $-1 #
coedge $-1 -1 $-1 $282 $375 $181 $274 reversed $179 $-1 #
edge $-1 -1 $-1 $289 -6.3499999999999996 $377 6.3499999999999996 $273 $378 forward @7 unknown #
coedge $-1 -1 $-1 $183 $182 $375 $379 forward $74 $-1 #
edge $-1 -1 $-1 $280 -6.3499999999999996 $377 6.3499999999999996 $272 $380 forward @7 unknown #
coedge $-1 -1 $-1 $285 $284 $183 $278 reversed $269 $-1 #
edge $-1 -1 $-1 $381 -6.3499999999999996 $279 6.3499999999999996 $277 $382 forward @7 unknown #
vertex $-1 -1 $-1 $185 $383 #
vertex $-1 -1 $-1 $291 $384 #
straight-curve $-1 -1 $-1 6.3499999999999996 0 -6.3499999999999996 0 -1 0 I I #
coedge $-1 -1 $-1 $271 $273 $186 $283 reversed $179 $-1 #
edge $-1 -1 $-1 $286 -1.5875000000000001 $289 1.5875000000000001 $282 $385 forward @7 unknown #
coedge $-1 -1 $-1 $277 $187 $192 $292 forward $269 $-1 #
coedge $-1 -1 $-1 $187 $277 $271 $376 reversed $269 $-1 #
vertex $-1 -1 $-1 $188 $386 #
straight-curve $-1 -1 $-1 0 1.5875000000000001 6.3499999999999996 -1 0 0 I I #
coedge $-1 -1 $-1 $189 $272 $191 $291 reversed $114 $-1 #
vertex $-1 -1 $-1 $283 $387 #
straight-curve $-1 -1 $-1 0 -1.5875000000000001 6.3499999999999996 1 0 0 I I #
edge $-1 -1 $-1 $194 -6.3499999999999996 $280 6.3499999999999996 $191 $388 forward @7 unknown #
edge $-1 -1 $-1 $195 -6.3499999999999996 $279 6.3499999999999996 $192 $389 forward @7 unknown #
point $-1 -1 $-1 6.3499999999999996 -1.5875000000000001 6.3499999999999996 #
point $-1 -1 $-1 6.3499999999999996 1.5875000000000001 6.3499999999999996 #
convexity-sys-attrib $-1 -1 $-1 $-1 $198 #
vertex $-1 -1 $-1 $198 $390 #
ellipse-curve $-1 -1 $-1 0 0 0 0 -1 0 4.3656249999999996 0 0 1 I I #
point $-1 -1 $-1 -4.3656249999999996 1.5874999999999997 0 #
model_id-kcp-attrib $-1 -1 $-1 $-1 $202 1 1021487286 1021487286 1403846657 8 #
face $391 -1 $-1 $392 $393 $9 $-1 $394 reversed single #
loop $-1 -1 $-1 $-1 $395 $202 #
cone-surface $-1 -1 $-1 0 -17.462499999999999 0 0 1 0 -25.399999999999995 0 0 1 I I -0.70710678118654746 0.70710678118654757 25.399999999999995 forward I I I I #
coedge $-1 -1 $-1 $396 $397 $206 $305 forward $203 $-1 #
edge $-1 -1 $-1 $139 0 $140 3.1415926535897931 $212 $398 forward @7 unknown #
edge $-1 -1 $-1 $306 2.1079009750302071e-032 $210 3.1415926535897931 $303 $399 forward @7 unknown #
vertex $-1 -1 $-1 $400 $401 #
ellipse-curve $-1 -1 $-1 5.556250000000003 1.2587179848663566 6.8042190534255947e-016 1.2246063538223689e-016 -3.4512664603419577e-031 -1 0.5612660075668181 0.56126600756682099 6.8732991905083729e-017 1 I I #
coedge $-1 -1 $-1 $395 $208 $397 $400 forward $301 $-1 #
coedge $-1 -1 $-1 $208 $395 $396 $402 reversed $301 $-1 #
ellipse-curve $-1 -1 $-1 0 1.8199839924331775 0 0 -1 0 6.1175160075668211 0 7.4915489724764316e-016 1 I I #
point $-1 -1 $-1 -6.1175160075668238 1.819983992433176 -1.4983097944952865e-015 #
coedge $-1 -1 $-1 $218 $217 $403 $404 reversed $219 $-1 #
face $405 -1 $-1 $-1 $219 $9 $-1 $406 reversed single #
convexity-sys-attrib $-1 -1 $-1 $220 $143 #
coedge $-1 -1 $-1 $403 $403 $222 $316 forward $407 $-1 #
edge $408 -1 $-1 $319 0 $317 3.1415926535897931 $315 $409 forward @7 unknown #
vertex $-1 -1 $-1 $404 $410 #
straight-curve $-1 -1 $-1 3.5718749999999999 1.5874999999999999 0 0 -25.399999999999999 0 I I #
vertex $-1 -1 $-1 $404 $411 #
straight-curve $-1 -1 $-1 -3.5718749999999999 1.5874999999999999 4.3741408200593035e-016 0 -25.399999999999999 0 I I #
model_id-kcp-attrib $-1 -1 $-1 $-1 $225 1 1021487286 1021487286 1403846657 13 #
cone-surface $-1 -1 $-1 0 3.1749999999999998 0 0 -1 0 3.5718749999999999 0 0 1 I I 0 1 3.5718749999999999 forward I I I I #
face $-1 -1 $-1 $412 $413 $24 $-1 $414 reversed single #
loop $-1 -1 $-1 $-1 $248 $230 #
plane-surface $-1 -1 $-1 6.3499999999999996 0 0 -1 0 0 0 0 1 forward_v I I I I #
coedge $-1 -1 $-1 $415 $233 $416 $417 reversed $157 $-1 #
coedge $-1 -1 $-1 $233 $415 $418 $419 reversed $157 $-1 #
coedge $-1 -1 $-1 $420 $421 $422 $236 forward $423 $-1 #
coedge $-1 -1 $-1 $424 $425 $234 $330 forward $426 $-1 #
edge $-1 -1 $-1 $249 1.2246063538223773e-016 $334 1.5707963267948968 $329 $245 forward @7 unknown #
coedge $-1 -1 $-1 $427 $428 $235 $332 forward $429 $-1 #
edge $-1 -1 $-1 $333 -1.5707963267948968 $171 -1.2246063538223773e-016 $331 $173 forward @7 unknown #
vertex $-1 -1 $-1 $430 $431 #
vertex $-1 -1 $-1 $432 $433 #
straight-curve $-1 -1 $-1 -7.1421341876779293e-032 -1.5875000000000001 -6.3499999999999996 0 -1 0 I I #
coedge $-1 -1 $-1 $434 $372 $237 $337 forward $435 $-1 #
edge $-1 -1 $-1 $172 1.5707963267948966 $342 3.1415926535897931 $336 $173 forward @7 unknown #
coedge $-1 -1 $-1 $436 $238 $241 $346 reversed $341 $-1 #
coedge $-1 -1 $-1 $238 $436 $434 $437 forward $341 $-1 #
coedge $-1 -1 $-1 $438 $439 $415 $239 reversed $413 $-1 #
loop $-1 -1 $-1 $-1 $238 $440 #
vertex $-1 -1 $-1 $441 $442 #
straight-curve $-1 -1 $-1 -6.3499999999999996 -1.5875000000000001 0 0 -1 0 I I #
coedge $-1 -1 $-1 $253 $443 $240 $345 forward $231 $-1 #
edge $-1 -1 $-1 $444 -6.3499999999999996 $244 -7.1421341876779293e-032 $240 $445 forward @7 unknown #
edge $-1 -1 $-1 $444 -6.3499999999999996 $243 0 $338 $446 forward @7 unknown #
face $-1 -1 $-1 $447 $242 $24 $-1 $448 reversed single #
edge $-1 -1 $-1 $243 0 $449 6.3499999999999996 $439 $446 forward @7 unknown #
point $-1 -1 $-1 -6.3499999999999996 -1.5875000000000001 0 #
edge $-1 -1 $-1 $244 -7.1421341876779293e-032 $450 6.3499999999999996 $353 $445 forward @7 unknown #
point $-1 -1 $-1 -7.1421341876779293e-032 -1.5875000000000001 6.3499999999999996 #
coedge $-1 -1 $-1 $353 $246 $451 $452 reversed $354 $-1 #
coedge $-1 -1 $-1 $246 $352 $251 $350 reversed $354 $-1 #
loop $-1 -1 $-1 $-1 $246 $447 #
coedge $-1 -1 $-1 $453 $248 $425 $358 forward $324 $-1 #
coedge $-1 -1 $-1 $248 $453 $427 $260 reversed $324 $-1 #
coedge $-1 -1 $-1 $257 $451 $103 $165 reversed $366 $-1 #
edge $-1 -1 $-1 $249 0 $454 6.3499999999999996 $355 $455 forward @7 unknown #
point $-1 -1 $-1 6.3499999999999996 -1.5875000000000001 0 #
coedge $-1 -1 $-1 $252 $251 $365 $456 forward $254 $-1 #
coedge $-1 -1 $-1 $443 $253 $372 $262 forward $231 $-1 #
face $-1 -1 $-1 $457 $254 $24 $-1 $232 forward single #
vertex $-1 -1 $-1 $456 $458 #
straight-curve $-1 -1 $-1 0 1.5875000000000001 6.3499999999999996 -1 0 0 I I #
coedge $-1 -1 $-1 $451 $257 $360 $456 reversed $366 $-1 #
loop $-1 -1 $-1 $-1 $357 $459 #
straight-curve $-1 -1 $-1 6.3499999999999996 1.5875000000000001 0 0 0 -1 I I #
face $-1 -1 $-1 $460 $435 $24 $-1 $369 reversed single #
plane-surface $-1 -1 $-1 0 1.5875000000000001 0 0 -1 0 0 0 -1 forward_v I I I I #
vertex $-1 -1 $-1 $461 $462 #
vertex $-1 -1 $-1 $262 $463 #
coedge $-1 -1 $-1 $336 $434 $361 $262 reversed $435 $-1 #
point $-1 -1 $-1 3.5718749999999999 0 0 #
plane-surface $-1 -1 $-1 6.3499999999999996 0 0 -1 0 0 0 0 1 forward_v I I I I #
coedge $-1 -1 $-1 $273 $271 $275 $379 reversed $179 $-1 #
edge $-1 -1 $-1 $286 -6.3499999999999996 $381 6.3499999999999996 $285 $464 forward @7 unknown #
vertex $-1 -1 $-1 $379 $465 #
straight-curve $-1 -1 $-1 -6.3499999999999996 -1.5875000000000001 0 0 0 -1 I I #
edge $-1 -1 $-1 $377 -1.5875000000000001 $381 1.5875000000000001 $375 $466 forward @7 unknown #
straight-curve $-1 -1 $-1 0 -1.5875000000000001 -6.3499999999999996 -1 0 0 I I #
vertex $-1 -1 $-1 $278 $467 #
straight-curve $-1 -1 $-1 0 1.5875000000000001 -6.3499999999999996 1 0 0 I I #
point $-1 -1 $-1 6.3499999999999996 1.5875000000000001 -6.3499999999999996 #
point $-1 -1 $-1 6.3499999999999996 -1.5875000000000001 -6.3499999999999996 #
straight-curve $-1 -1 $-1 -6.3499999999999996 0 6.3499999999999996 0 -1 0 I I #
point $-1 -1 $-1 -6.3499999999999996 1.5875000000000001 6.3499999999999996 #
point $-1 -1 $-1 -6.3499999999999996 -1.5875000000000001 6.3499999999999996 #
straight-curve $-1 -1 $-1 6.3499999999999996 -1.5875000000000001 0 0 0 -1 I I #
straight-curve $-1 -1 $-1 6.3499999999999996 1.5875000000000001 0 0 0 -1 I I #
point $-1 -1 $-1 4.3656249999999996 -2.2204460492503131e-016 0 #
model_id-kcp-attrib $-1 -1 $-1 $-1 $300 1 1021487286 1021487286 1403846657 9 #
face $468 -1 $-1 $469 $470 $9 $-1 $471 reversed single #
loop $-1 -1 $-1 $472 $473 $300 #
plane-surface $-1 -1 $-1 0 3.1749999999999998 0 0 -1 0 -25.399999999999999 0 0 forward_v I I I I #
coedge $-1 -1 $-1 $309 $308 $473 $474 forward $301 $-1 #
coedge $-1 -1 $-1 $475 $303 $309 $402 forward $203 $-1 #
coedge $-1 -1 $-1 $303 $475 $308 $400 reversed $203 $-1 #
ellipse-curve $-1 -1 $-1 0 1.2587179848663552 0 0 1 0 6.3499999999999996 0 7.7762503467720954e-016 1 I I #
ellipse-curve $-1 -1 $-1 0 1.8199839924331775 0 0 1 0 6.1175160075668211 0 7.4915489724764316e-016 1 I I #
edge $-1 -1 $-1 $306 0 $476 0.075444173824159341 $308 $477 forward @7 unknown #
point $-1 -1 $-1 6.1175160075668238 1.819983992433176 7.4915489724764326e-016 #
edge $-1 -1 $-1 $210 0 $478 0.075444173824159341 $309 $479 forward @7 unknown #
coedge $-1 -1 $-1 $315 $315 $312 $404 forward $407 $-1 #
edge $480 -1 $-1 $317 0 $319 3.1415926535897931 $403 $481 forward @7 unknown #
model_id-kcp-attrib $-1 -1 $-1 $-1 $313 1 1021487286 1021487286 1403846657 14 #
cone-surface $-1 -1 $-1 0 3.1749999999999998 0 0 -1 0 3.5718749999999999 0 0 1 I I 0 1 3.5718749999999999 forward I I I I #
loop $-1 -1 $-1 $-1 $315 $482 #
attrib_edge_convexity-kcp-attrib $-1 -1 $483 $-1 $316 1 #
ellipse-curve $-1 -1 $-1 0 1.5874999999999999 0 0 -1 0 -3.5718749999999999 0 0 1 I I #
point $-1 -1 $-1 3.5718749999999999 1.5874999999999999 0 #
point $-1 -1 $-1 -3.5718749999999999 1.5874999999999999 0 #
face $-1 -1 $-1 $347 $484 $24 $-1 $448 reversed single #
loop $-1 -1 $-1 $-1 $340 $323 #
plane-surface $-1 -1 $-1 -6.3499999999999996 0 0 1 0 0 0 0 -1 forward_v I I I I #
coedge $-1 -1 $-1 $327 $326 $159 $239 forward $157 $-1 #
coedge $-1 -1 $-1 $485 $486 $326 $417 forward $487 $-1 #
edge $-1 -1 $-1 $342 -3.1415926535897931 $333 -1.5707963267948968 $416 $173 forward @7 unknown #
coedge $-1 -1 $-1 $488 $489 $327 $419 forward $484 $-1 #
edge $-1 -1 $-1 $334 1.5707963267948968 $243 3.1415926535897931 $418 $245 forward @7 unknown #
coedge $-1 -1 $-1 $490 $328 $489 $432 forward $423 $-1 #
coedge $-1 -1 $-1 $328 $490 $485 $491 forward $423 $-1 #
coedge $-1 -1 $-1 $492 $493 $158 $236 reversed $494 $-1 #
loop $-1 -1 $-1 $-1 $328 $457 #
coedge $-1 -1 $-1 $425 $329 $493 $495 reversed $426 $-1 #
coedge $-1 -1 $-1 $329 $424 $355 $358 reversed $426 $-1 #
loop $-1 -1 $-1 $-1 $329 $496 #
coedge $-1 -1 $-1 $428 $331 $356 $260 forward $429 $-1 #
coedge $-1 -1 $-1 $331 $427 $492 $430 reversed $429 $-1 #
loop $-1 -1 $-1 $-1 $331 $497 #
edge $-1 -1 $-1 $333 -7.1421341876779293e-032 $370 6.3499999999999996 $428 $498 forward @7 unknown #
point $-1 -1 $-1 -7.1421341876779293e-032 1.5875000000000006 -6.3499999999999996 #
edge $-1 -1 $-1 $334 7.1421341876779293e-032 $449 6.3499999999999996 $489 $499 forward @7 unknown #
point $-1 -1 $-1 -7.1421341876779293e-032 -1.5875000000000001 -6.3499999999999996 #
coedge $-1 -1 $-1 $372 $336 $339 $437 reversed $435 $-1 #
loop $-1 -1 $-1 $-1 $336 $368 #
coedge $-1 -1 $-1 $339 $338 $443 $500 reversed $341 $-1 #
edge $-1 -1 $-1 $371 -6.3499999999999996 $342 0 $434 $501 forward @7 unknown #
coedge $-1 -1 $-1 $502 $340 $486 $441 forward $413 $-1 #
coedge $-1 -1 $-1 $340 $502 $488 $348 reversed $413 $-1 #
face $-1 -1 $-1 $459 $341 $24 $-1 $414 reversed single #
edge $-1 -1 $-1 $342 0 $503 6.3499999999999996 $486 $501 forward @7 unknown #
point $-1 -1 $-1 -6.3499999999999996 1.5875000000000006 0 #
coedge $-1 -1 $-1 $344 $361 $436 $500 forward $231 $-1 #
vertex $-1 -1 $-1 $500 $504 #
straight-curve $-1 -1 $-1 0 -1.5875000000000001 6.3499999999999996 1 0 0 I I #
straight-curve $-1 -1 $-1 -6.3499999999999996 -1.5875000000000001 0 0 0 -1 I I #
face $-1 -1 $-1 $496 $354 $24 $-1 $448 reversed single #
plane-surface $-1 -1 $-1 0 -1.5875000000000001 0 0 1 0 0 0 1 forward_v I I I I #
vertex $-1 -1 $-1 $505 $506 #
vertex $-1 -1 $-1 $456 $507 #
coedge $-1 -1 $-1 $357 $365 $352 $452 forward $366 $-1 #
edge $-1 -1 $-1 $450 -6.3499999999999996 $249 0 $451 $455 forward @7 unknown #
coedge $-1 -1 $-1 $356 $355 $508 $461 reversed $324 $-1 #
vertex $-1 -1 $-1 $358 $509 #
straight-curve $-1 -1 $-1 6.3499999999999996 -1.5875000000000001 0 0 0 -1 I I #
edge $-1 -1 $-1 $450 -1.5875000000000001 $363 1.5875000000000001 $365 $510 forward @7 unknown #
face $-1 -1 $-1 $440 $423 $24 $-1 $511 reversed single #
point $-1 -1 $-1 6.3499999999999996 1.5875000000000001 6.3499999999999996 #
face $-1 -1 $-1 $-1 $366 $24 $-1 $325 reversed single #
face $-1 -1 $-1 $512 $487 $24 $-1 $369 reversed single #
edge $-1 -1 $-1 $370 -1.5875000000000001 $454 1.5875000000000001 $453 $513 forward @7 unknown #
point $-1 -1 $-1 6.3499999999999996 1.5875000000000001 -6.3499999999999996 #
point $-1 -1 $-1 -6.3499999999999996 1.5875000000000001 6.3499999999999996 #
straight-curve $-1 -1 $-1 -6.3499999999999996 1.5875000000000001 0 0 0 -1 I I #
point $-1 -1 $-1 -6.3499999999999996 -1.5875000000000001 -6.3499999999999996 #
straight-curve $-1 -1 $-1 -6.3499999999999996 0 -6.3499999999999996 0 1 0 I I #
point $-1 -1 $-1 -6.3499999999999996 1.5875000000000001 -6.3499999999999996 #
model_id-kcp-attrib $-1 -1 $-1 $-1 $392 1 1021487286 1021487286 1403846657 10 #
face $514 -1 $-1 $482 $515 $9 $-1 $516 reversed single #
loop $-1 -1 $-1 $-1 $517 $392 #
cone-surface $-1 -1 $-1 0 3.1749999999999998 0 0 -1 0 4.3656249999999996 0 0 1 I I 0 1 4.3656249999999996 forward I I I I #
loop $-1 -1 $-1 $-1 $518 $300 #
coedge $-1 -1 $-1 $519 $519 $395 $474 reversed $393 $-1 #
edge $-1 -1 $-1 $476 1.2246063538223765e-016 $478 3.1415926535897931 $395 $520 forward @7 unknown #
coedge $-1 -1 $-1 $397 $396 $519 $521 reversed $203 $-1 #
vertex $-1 -1 $-1 $400 $522 #
straight-curve $-1 -1 $-1 6.1175160075668238 1.819983992433176 7.4915489724764326e-016 -17.960512242138307 17.960512242138307 -2.1994557409627188e-015 I I #
vertex $-1 -1 $-1 $402 $523 #
straight-curve $-1 -1 $-1 -6.1175160075668238 1.819983992433176 -1.4983097944952865e-015 17.960512242138307 17.960512242138307 4.3989114819254375e-015 I I #
attrib_edge_convexity-kcp-attrib $-1 -1 $524 $-1 $404 1 #
ellipse-curve $-1 -1 $-1 0 1.5874999999999999 0 0 -1 0 3.5718749999999999 0 0 1 I I #
face $525 -1 $-1 $225 $526 $9 $-1 $527 reversed single #
convexity-sys-attrib $-1 -1 $-1 $408 $316 #
loop $-1 -1 $-1 $-1 $418 $412 #
coedge $-1 -1 $-1 $486 $416 $421 $491 reversed $487 $-1 #
coedge $-1 -1 $-1 $416 $485 $438 $441 reversed $487 $-1 #
loop $-1 -1 $-1 $-1 $416 $460 #
coedge $-1 -1 $-1 $489 $418 $439 $348 forward $484 $-1 #
coedge $-1 -1 $-1 $418 $488 $420 $432 reversed $484 $-1 #
coedge $-1 -1 $-1 $421 $420 $502 $505 forward $423 $-1 #
edge $-1 -1 $-1 $503 -6.3499999999999996 $333 -7.1421341876779293e-032 $485 $498 forward @7 unknown #
coedge $-1 -1 $-1 $508 $422 $428 $430 forward $494 $-1 #
coedge $-1 -1 $-1 $422 $508 $424 $495 forward $494 $-1 #
loop $-1 -1 $-1 $-1 $422 $512 #
edge $-1 -1 $-1 $454 -6.3499999999999996 $334 7.1421341876779293e-032 $424 $499 forward @7 unknown #
face $-1 -1 $-1 $497 $426 $24 $-1 $448 reversed single #
face $-1 -1 $-1 $259 $429 $24 $-1 $369 reversed single #
straight-curve $-1 -1 $-1 0 1.5875000000000001 -6.3499999999999996 1 0 0 I I #
straight-curve $-1 -1 $-1 0 -1.5875000000000001 -6.3499999999999996 -1 0 0 I I #
edge $-1 -1 $-1 $371 -1.5875000000000001 $444 1.5875000000000001 $436 $528 forward @7 unknown #
straight-curve $-1 -1 $-1 -6.3499999999999996 1.5875000000000001 0 0 0 -1 I I #
coedge $-1 -1 $-1 $439 $438 $490 $505 reversed $413 $-1 #
vertex $-1 -1 $-1 $491 $529 #
point $-1 -1 $-1 -6.3499999999999996 -1.5875000000000001 6.3499999999999996 #
edge $-1 -1 $-1 $449 -1.5875000000000001 $503 1.5875000000000001 $502 $530 forward @7 unknown #
point $-1 -1 $-1 -6.3499999999999996 -1.5875000000000001 -6.3499999999999996 #
point $-1 -1 $-1 6.3499999999999996 -1.5875000000000001 6.3499999999999996 #
coedge $-1 -1 $-1 $493 $492 $453 $461 forward $494 $-1 #
point $-1 -1 $-1 6.3499999999999996 -1.5875000000000001 -6.3499999999999996 #
straight-curve $-1 -1 $-1 6.3499999999999996 0 6.3499999999999996 0 1 0 I I #
plane-surface $-1 -1 $-1 0 0 -6.3499999999999996 0 0 1 1 0 0 forward_v I I I I #
face $-1 -1 $-1 $362 $494 $24 $-1 $511 reversed single #
straight-curve $-1 -1 $-1 6.3499999999999996 0 -6.3499999999999996 0 -1 0 I I #
model_id-kcp-attrib $-1 -1 $-1 $-1 $469 1 1021487286 1021487286 1403846657 11 #
loop $-1 -1 $-1 $-1 $531 $469 #
cone-surface $-1 -1 $-1 0 3.1749999999999998 0 0 -1 0 4.3656249999999996 0 0 1 I I 0 1 4.3656249999999996 forward I I I I #
coedge $-1 -1 $-1 $532 $533 $534 $535 forward $470 $-1 #
coedge $-1 -1 $-1 $536 $536 $533 $537 forward $472 $-1 #
coedge $-1 -1 $-1 $473 $473 $475 $521 forward $393 $-1 #
ellipse-curve $-1 -1 $-1 -3.5249581031848718e-016 3.1749999999999998 -3.5249581031848718e-016 0 -1 0 4.7624999999999993 0 3.5249581031848718e-016 1 I I #
edge $-1 -1 $-1 $476 -1.2246063538223765e-016 $478 3.1415926535897931 $519 $538 forward @7 unknown #
point $-1 -1 $-1 4.7624999999999993 3.1749999999999998 5.8321877600790683e-016 #
point $-1 -1 $-1 -4.7624999999999993 3.1749999999999998 0 #
convexity-sys-attrib $-1 -1 $-1 $480 $404 #
model_id-kcp-attrib $-1 -1 $-1 $-1 $482 1 1021487286 1021487286 1403846657 12 #
loop $-1 -1 $-1 $407 $539 $482 #
plane-surface $-1 -1 $-1 0 1.5874999999999999 0 0 -1 0 25.399999999999999 0 0 forward_v I I I I #
straight-curve $-1 -1 $-1 -6.3499999999999996 0 6.3499999999999996 0 -1 0 I I #
point $-1 -1 $-1 -6.3499999999999996 1.5875000000000001 -6.3499999999999996 #
straight-curve $-1 -1 $-1 -6.3499999999999996 0 -6.3499999999999996 0 1 0 I I #
coedge $-1 -1 $-1 $540 $541 $542 $543 forward $515 $-1 #
coedge $-1 -1 $-1 $542 $517 $539 $544 forward $470 $-1 #
coedge $-1 -1 $-1 $517 $542 $518 $537 reversed $470 $-1 #
coedge $-1 -1 $-1 $541 $540 $517 $535 reversed $515 $-1 #
edge $-1 -1 $-1 $545 0 $546 0.0625 $534 $547 forward @7 unknown #
coedge $-1 -1 $-1 $518 $518 $541 $548 forward $472 $-1 #
edge $-1 -1 $-1 $545 0 $549 3.1415926535897931 $518 $550 forward @7 unknown #
ellipse-curve $-1 -1 $-1 -3.5249581031848718e-016 3.1749999999999998 3.5249581031848718e-016 0 1 0 4.7624999999999993 0 -3.5249581031848718e-016 1 I I #
coedge $-1 -1 $-1 $551 $551 $532 $544 reversed $526 $-1 #
coedge $-1 -1 $-1 $534 $531 $551 $552 forward $515 $-1 #
coedge $-1 -1 $-1 $531 $534 $536 $548 reversed $515 $-1 #
coedge $-1 -1 $-1 $533 $532 $531 $543 reversed $470 $-1 #
edge $-1 -1 $-1 $549 0 $553 0.0625 $531 $554 forward @7 unknown #
edge $555 -1 $-1 $546 0 $553 3.1415926535897931 $539 $556 forward @7 unknown #
vertex $-1 -1 $-1 $548 $557 #
vertex $-1 -1 $-1 $552 $558 #
straight-curve $-1 -1 $-1 -4.3656249999999996 3.1749999999999998 5.3461721134058155e-016 0 -25.399999999999999 0 I I #
edge $-1 -1 $-1 $549 0 $545 3.1415926535897931 $536 $559 forward @7 unknown #
vertex $-1 -1 $-1 $548 $560 #
ellipse-curve $-1 -1 $-1 0 3.1749999999999998 0 0 -1 0 -4.3656249999999996 0 0 1 I I #
coedge $-1 -1 $-1 $539 $539 $540 $552 reversed $526 $-1 #
edge $561 -1 $-1 $553 0 $546 3.1415926535897931 $551 $562 forward @7 unknown #
vertex $-1 -1 $-1 $552 $563 #
straight-curve $-1 -1 $-1 4.3656249999999996 3.1749999999999998 0 0 -25.399999999999999 0 I I #
attrib_edge_convexity-kcp-attrib $-1 -1 $564 $-1 $544 2 #
ellipse-curve $-1 -1 $-1 0 1.5874999999999999 0 0 -1 0 -4.3656249999999996 0 0 1 I I #
point $-1 -1 $-1 -4.3656249999999996 3.1749999999999998 0 #
point $-1 -1 $-1 -4.3656249999999996 1.5874999999999999 0 #
ellipse-curve $-1 -1 $-1 0 3.1749999999999998 0 0 -1 0 4.3656249999999996 0 0 1 I I #
point $-1 -1 $-1 4.3656249999999996 3.1749999999999998 0 #
attrib_edge_convexity-kcp-attrib $-1 -1 $565 $-1 $552 2 #
ellipse-curve $-1 -1 $-1 0 1.5874999999999999 0 0 -1 0 4.3656249999999996 0 0 1 I I #
point $-1 -1 $-1 4.3656249999999996 1.5874999999999999 0 #
convexity-sys-attrib $-1 -1 $-1 $555 $544 #
convexity-sys-attrib $-1 -1 $-1 $561 $552 #
End-of-ACIS-data 