600 0 1 0           
96 GICL ACIS Healer - Source: /gicl/data5/repository/PTC/V18/reel18/areel/bail_spacer.prt.sat - 6 0 18 ACIS 6.0.3 Solaris 24 Sat Apr 13 21:14:01 2002 
1 9.999999999999999547e-07 1.000000000000000036e-10 
body $-1 $1 $-1 $-1 #
lump $-1 $-1 $2 $0 #
shell $-1 $-1 $-1 $3 $-1 $1 #
face $-1 $4 $5 $2 $-1 $6 forward single #
face $-1 $7 $8 $2 $-1 $9 forward single #
loop $-1 $10 $11 $3 #
plane-surface $-1 0 0 0 0 -1 0 -25.39999999999999858 0 0 forward_v I I I I #
face $-1 $12 $13 $2 $-1 $14 forward single #
loop $-1 $-1 $15 $4 #
cone-surface $-1 0 3.33375000000000199 0 0 -1 0 -6.349999999999999645 0 0 1 I I 0 1 6.349999999999999645 forward I I I I #
loop $-1 $-1 $16 $3 #
coedge $-1 $17 $17 $18 $19 forward $5 $-1 #
face $-1 $20 $21 $2 $-1 $22 forward single #
loop $-1 $-1 $23 $7 #
torus-surface $-1 0 1.258717984866355222 0 0 -1 0 5.556249999999999467 0.7937499999999999556 -1 0 0 forward_v I I I I #
coedge $-1 $24 $25 $26 $27 forward $8 $-1 #
coedge $-1 $28 $28 $29 $30 reversed $10 $-1 #
coedge $-1 $11 $11 $31 $32 reversed $5 $-1 #
coedge $-1 $25 $24 $11 $19 reversed $8 $-1 #
edge $-1 $33 0 $34 3.141592653589793116 $11 $35 forward 7 unknown #
face $-1 $36 $37 $2 $-1 $38 forward single #
loop $-1 $-1 $39 $12 #
torus-surface $-1 0 1.258717984866355222 0 0 -1 0 5.556249999999999467 0.7937499999999999556 -1 0 0 forward_v I I I I #
coedge $-1 $26 $40 $41 $42 forward $13 $-1 #
coedge $-1 $18 $15 $43 $44 reversed $8 $-1 #
coedge $-1 $15 $18 $45 $46 forward $8 $-1 #
coedge $-1 $47 $23 $15 $27 reversed $13 $-1 #
edge $-1 $48 0 $49 3.141592653589793116 $15 $50 forward 7 unknown #
coedge $-1 $16 $16 $51 $52 reversed $10 $-1 #
coedge $-1 $53 $54 $16 $30 forward $55 $-1 #
edge $-1 $56 0 $57 3.141592653589793116 $16 $58 forward 7 unknown #
coedge $-1 $43 $45 $17 $32 forward $37 $-1 #
edge $-1 $33 -1.956378957706024721e-32 $34 3.141592653589793116 $17 $59 forward 7 unknown #
vertex $-1 $32 $60 #
vertex $-1 $32 $61 #
ellipse-curve $-1 1.762479051592435909e-16 0 0 0 -1 0 6.349999999999999645 0 7.776250346772095392e-16 1 I I #
face $-1 $62 $63 $2 $-1 $64 forward single #
loop $-1 $-1 $31 $20 #
cone-surface $-1 0 3.33375000000000199 0 0 -1 0 -6.349999999999999645 0 0 1 I I 0 1 6.349999999999999645 forward I I I I #
coedge $-1 $65 $66 $47 $67 forward $21 $-1 #
coedge $-1 $23 $47 $68 $69 forward $13 $-1 #
coedge $-1 $66 $65 $23 $42 reversed $21 $-1 #
edge $-1 $70 3.788621444315773759e-15 $49 0.7853981633974524978 $41 $71 forward 7 unknown #
coedge $-1 $72 $31 $24 $44 forward $37 $-1 #
edge $-1 $34 0 $49 0.04955582617584076283 $24 $73 forward 7 unknown #
coedge $-1 $31 $72 $25 $46 reversed $37 $-1 #
edge $-1 $33 0 $48 0.04955582617584076283 $25 $74 forward 7 unknown #
coedge $-1 $40 $26 $39 $67 reversed $13 $-1 #
vertex $-1 $46 $75 #
vertex $-1 $44 $76 #
ellipse-curve $-1 0 1.258717984866355222 0 0 -1 0 6.349999999999999645 0 7.776250346772095392e-16 1 I I #
coedge $-1 $77 $78 $28 $52 forward $79 $-1 #
edge $-1 $57 0 $56 3.141592653589793116 $28 $80 forward 7 unknown #
coedge $-1 $81 $29 $78 $82 reversed $55 $-1 #
coedge $-1 $29 $81 $77 $83 forward $55 $-1 #
loop $-1 $-1 $53 $84 #
vertex $-1 $52 $85 #
vertex $-1 $52 $86 #
ellipse-curve $-1 0 0 0 0 -1 0 -3.571874999999999911 0 0 1 I I #
ellipse-curve $-1 3.524958103184871819e-16 0 1.762479051592435909e-16 0 1 0 6.349999999999999645 0 6.01377129517965899e-16 1 I I #
point $-1 6.349999999999999645 0 7.776250346772095392e-16 #
point $-1 -6.349999999999999645 0 -1.555250069354419078e-15 #
face $-1 $87 $88 $2 $-1 $89 forward single #
loop $-1 $-1 $90 $36 #
cone-surface $-1 0 -17.46249999999999858 0 0 1 0 -25.39999999999999503 0 0 1 I I -0.7071067811865474617 0.7071067811865475727 25.39999999999999503 forward I I I I #
coedge $-1 $41 $39 $72 $91 forward $21 $-1 #
coedge $-1 $39 $41 $90 $92 reversed $21 $-1 #
edge $-1 $93 3.788621444315773759e-15 $48 0.7853981633974524978 $39 $94 forward 7 unknown #
coedge $-1 $95 $96 $40 $69 reversed $88 $-1 #
edge $-1 $93 -2.10790097503020711e-32 $70 3.141592653589793116 $68 $97 forward 7 unknown #
vertex $-1 $69 $98 #
ellipse-curve $-1 -5.55625000000000302 1.258717984866356554 0 0 0 1 -0.5612660075668181037 0.5612660075668209902 0 1 I I #
coedge $-1 $45 $43 $65 $91 reversed $37 $-1 #
straight-curve $-1 -6.349999999999999645 0 -1.555250069354419078e-15 0 25.39999999999999858 0 I I #
straight-curve $-1 6.349999999999999645 0 7.776250346772095392e-16 0 25.39999999999999858 0 I I #
point $-1 6.349999999999999645 1.258717984866355222 7.776250346772095392e-16 #
point $-1 -6.349999999999999645 1.258717984866355222 -1.555250069354419078e-15 #
coedge $-1 $99 $51 $54 $83 reversed $79 $-1 #
coedge $-1 $51 $99 $53 $82 forward $79 $-1 #
loop $-1 $-1 $77 $100 #
ellipse-curve $-1 0 0 0 0 -1 0 3.571874999999999911 0 0 1 I I #
coedge $-1 $54 $53 $101 $102 reversed $55 $-1 #
edge $-1 $103 0 $57 0.0625 $78 $104 forward 7 unknown #
edge $-1 $105 0 $56 0.0625 $77 $106 forward 7 unknown #
face $-1 $100 $55 $2 $-1 $107 reversed single #
point $-1 -3.571874999999999911 0 0 #
point $-1 3.571874999999999911 0 0 #
face $-1 $108 $109 $2 $-1 $110 reversed single #
loop $-1 $-1 $111 $62 #
cone-surface $-1 0 -17.46249999999999858 0 0 1 0 -25.39999999999999503 0 0 1 I I -0.7071067811865474617 0.7071067811865475727 25.39999999999999503 forward I I I I #
coedge $-1 $112 $113 $66 $92 forward $63 $-1 #
edge $-1 $48 0 $49 3.141592653589793116 $72 $114 forward 7 unknown #
edge $-1 $93 2.10790097503020711e-32 $70 3.141592653589793116 $90 $115 forward 7 unknown #
vertex $-1 $116 $117 #
ellipse-curve $-1 5.55625000000000302 1.258717984866356554 6.804219053425594685e-16 1.224606353822368877e-16 -3.45126646034195774e-31 -1 0.5612660075668181037 0.5612660075668209902 6.873299190508372912e-17 1 I I #
coedge $-1 $111 $68 $113 $116 forward $88 $-1 #
coedge $-1 $68 $111 $112 $118 reversed $88 $-1 #
ellipse-curve $-1 0 1.819983992433177544 0 0 -1 0 6.117516007566821123 0 7.491548972476431606e-16 1 I I #
point $-1 -6.117516007566823788 1.81998399243317599 -1.498309794495286518e-15 #
coedge $-1 $78 $77 $119 $120 reversed $79 $-1 #
face $-1 $-1 $79 $2 $-1 $121 reversed single #
coedge $-1 $119 $119 $81 $102 forward $122 $-1 #
edge $-1 $105 0 $103 3.141592653589793116 $101 $123 forward 7 unknown #
vertex $-1 $120 $124 #
straight-curve $-1 3.571874999999999911 1.587499999999999911 0 0 -25.39999999999999858 0 I I #
vertex $-1 $120 $125 #
straight-curve $-1 -3.571874999999999911 1.587499999999999911 4.374140820059303473e-16 0 -25.39999999999999858 0 I I #
cone-surface $-1 0 3.174999999999999822 0 0 -1 0 3.571874999999999911 0 0 1 I I 0 1 3.571874999999999911 forward I I I I #
face $-1 $126 $127 $2 $-1 $128 reversed single #
loop $-1 $129 $130 $87 #
plane-surface $-1 0 3.174999999999999822 0 0 -1 0 -25.39999999999999858 0 0 forward_v I I I I #
coedge $-1 $96 $95 $130 $131 forward $88 $-1 #
coedge $-1 $132 $90 $96 $118 forward $63 $-1 #
coedge $-1 $90 $132 $95 $116 reversed $63 $-1 #
ellipse-curve $-1 0 1.258717984866355222 0 0 1 0 6.349999999999999645 0 7.776250346772095392e-16 1 I I #
ellipse-curve $-1 0 1.819983992433177544 0 0 1 0 6.117516007566821123 0 7.491548972476431606e-16 1 I I #
edge $-1 $93 0 $133 0.07544417382415934126 $95 $134 forward 7 unknown #
point $-1 6.117516007566823788 1.81998399243317599 7.491548972476432592e-16 #
edge $-1 $70 0 $135 0.07544417382415934126 $96 $136 forward 7 unknown #
coedge $-1 $101 $101 $99 $120 forward $122 $-1 #
edge $-1 $103 0 $105 3.141592653589793116 $119 $137 forward 7 unknown #
cone-surface $-1 0 3.174999999999999822 0 0 -1 0 3.571874999999999911 0 0 1 I I 0 1 3.571874999999999911 forward I I I I #
loop $-1 $-1 $101 $138 #
ellipse-curve $-1 0 1.587499999999999911 0 0 -1 0 -3.571874999999999911 0 0 1 I I #
point $-1 3.571874999999999911 1.587499999999999911 0 #
point $-1 -3.571874999999999911 1.587499999999999911 0 #
face $-1 $138 $139 $2 $-1 $140 reversed single #
loop $-1 $-1 $141 $108 #
cone-surface $-1 0 3.174999999999999822 0 0 -1 0 4.365624999999999645 0 0 1 I I 0 1 4.365624999999999645 forward I I I I #
loop $-1 $-1 $142 $87 #
coedge $-1 $143 $143 $111 $131 reversed $109 $-1 #
edge $-1 $133 1.224606353822376519e-16 $135 3.141592653589793116 $111 $144 forward 7 unknown #
coedge $-1 $113 $112 $143 $145 reversed $63 $-1 #
vertex $-1 $116 $146 #
straight-curve $-1 6.117516007566823788 1.81998399243317599 7.491548972476432592e-16 -17.96051224213830722 17.96051224213830722 -2.199455740962718775e-15 I I #
vertex $-1 $118 $147 #
straight-curve $-1 -6.117516007566823788 1.81998399243317599 -1.498309794495286518e-15 17.96051224213830722 17.96051224213830722 4.39891148192543755e-15 I I #
ellipse-curve $-1 0 1.587499999999999911 0 0 -1 0 3.571874999999999911 0 0 1 I I #
face $-1 $84 $148 $2 $-1 $149 reversed single #
loop $-1 $-1 $150 $126 #
cone-surface $-1 0 3.174999999999999822 0 0 -1 0 4.365624999999999645 0 0 1 I I 0 1 4.365624999999999645 forward I I I I #
coedge $-1 $151 $152 $153 $154 forward $127 $-1 #
coedge $-1 $155 $155 $152 $156 forward $129 $-1 #
coedge $-1 $130 $130 $132 $145 forward $109 $-1 #
ellipse-curve $-1 -3.524958103184871819e-16 3.174999999999999822 -3.524958103184871819e-16 0 -1 0 4.762499999999999289 0 3.524958103184871819e-16 1 I I #
edge $-1 $133 -1.224606353822376519e-16 $135 3.141592653589793116 $143 $157 forward 7 unknown #
point $-1 4.762499999999999289 3.174999999999999822 5.83218776007906834e-16 #
point $-1 -4.762499999999999289 3.174999999999999822 0 #
loop $-1 $122 $158 $138 #
plane-surface $-1 0 1.587499999999999911 0 0 -1 0 25.39999999999999858 0 0 forward_v I I I I #
coedge $-1 $159 $160 $161 $162 forward $139 $-1 #
coedge $-1 $161 $141 $158 $163 forward $127 $-1 #
coedge $-1 $141 $161 $142 $156 reversed $127 $-1 #
coedge $-1 $160 $159 $141 $154 reversed $139 $-1 #
edge $-1 $164 0 $165 0.0625 $153 $166 forward 7 unknown #
coedge $-1 $142 $142 $160 $167 forward $129 $-1 #
edge $-1 $164 0 $168 3.141592653589793116 $142 $169 forward 7 unknown #
ellipse-curve $-1 -3.524958103184871819e-16 3.174999999999999822 3.524958103184871819e-16 0 1 0 4.762499999999999289 0 -3.524958103184871819e-16 1 I I #
coedge $-1 $170 $170 $151 $163 reversed $148 $-1 #
coedge $-1 $153 $150 $170 $171 forward $139 $-1 #
coedge $-1 $150 $153 $155 $167 reversed $139 $-1 #
coedge $-1 $152 $151 $150 $162 reversed $127 $-1 #
edge $-1 $168 0 $172 0.0625 $150 $173 forward 7 unknown #
edge $-1 $165 0 $172 3.141592653589793116 $158 $174 forward 7 unknown #
vertex $-1 $167 $175 #
vertex $-1 $171 $176 #
straight-curve $-1 -4.365624999999999645 3.174999999999999822 5.346172113405815521e-16 0 -25.39999999999999858 0 I I #
edge $-1 $168 0 $164 3.141592653589793116 $155 $177 forward 7 unknown #
vertex $-1 $167 $178 #
ellipse-curve $-1 0 3.174999999999999822 0 0 -1 0 -4.365624999999999645 0 0 1 I I #
coedge $-1 $158 $158 $159 $171 reversed $148 $-1 #
edge $-1 $172 0 $165 3.141592653589793116 $170 $179 forward 7 unknown #
vertex $-1 $171 $180 #
straight-curve $-1 4.365624999999999645 3.174999999999999822 0 0 -25.39999999999999858 0 I I #
ellipse-curve $-1 0 1.587499999999999911 0 0 -1 0 -4.365624999999999645 0 0 1 I I #
point $-1 -4.365624999999999645 3.174999999999999822 0 #
point $-1 -4.365624999999999645 1.587499999999999911 0 #
ellipse-curve $-1 0 3.174999999999999822 0 0 -1 0 4.365624999999999645 0 0 1 I I #
point $-1 4.365624999999999645 3.174999999999999822 0 #
ellipse-curve $-1 0 1.587499999999999911 0 0 -1 0 4.365624999999999645 0 0 1 I I #
point $-1 4.365624999999999645 1.587499999999999911 0 #
End-of-ACIS-data 