600 0 1 0           
97 GICL ACIS Healer - Source: /gicl/data5/repository/PTC/V18/reel18/areel/ball_bearing.prt.sat - 6 0 18 ACIS 6.0.3 Solaris 24 Sat Apr 13 21:14:06 2002 
1 9.999999999999999547e-07 1.000000000000000036e-10 
body $-1 $1 $-1 $-1 #
lump $-1 $-1 $2 $0 #
shell $-1 $-1 $-1 $3 $-1 $1 #
face $-1 $4 $5 $2 $-1 $6 forward single #
face $-1 $7 $8 $2 $-1 $9 forward single #
loop $-1 $10 $11 $3 #
plane-surface $-1 0 0 2.381249999999999645 0 0 1 -25.39999999999999858 0 0 forward_v I I I I #
face $-1 $12 $13 $2 $-1 $14 forward single #
loop $-1 $-1 $15 $4 #
cone-surface $-1 0 0 -2.619374999999999787 0 0 1 -5.556249999999999467 0 0 1 I I 0 1 5.556249999999999467 forward I I I I #
loop $-1 $-1 $16 $3 #
coedge $-1 $17 $17 $15 $18 reversed $5 $-1 #
face $-1 $19 $20 $2 $-1 $21 forward single #
loop $-1 $-1 $22 $7 #
cone-surface $-1 0 0 -2.619374999999999787 0 0 1 -5.556249999999999467 0 0 1 I I 0 1 5.556249999999999467 forward I I I I #
coedge $-1 $23 $24 $11 $18 forward $8 $-1 #
coedge $-1 $25 $25 $26 $27 reversed $10 $-1 #
coedge $-1 $11 $11 $28 $29 forward $5 $-1 #
edge $-1 $30 1.277635237685567349e-32 $31 3.141592653589793116 $11 $32 forward 7 unknown #
face $-1 $33 $34 $2 $-1 $35 forward single #
loop $-1 $36 $37 $12 #
plane-surface $-1 0 0 2.182812499999999822 0 0 1 -25.39999999999999858 0 0 forward_v I I I I #
coedge $-1 $38 $39 $40 $41 forward $13 $-1 #
coedge $-1 $42 $15 $38 $43 forward $8 $-1 #
coedge $-1 $15 $42 $39 $44 reversed $8 $-1 #
coedge $-1 $16 $16 $45 $46 forward $10 $-1 #
coedge $-1 $47 $48 $16 $27 forward $49 $-1 #
edge $-1 $50 -1.567360164802134907e-32 $51 3.141592653589793116 $16 $52 forward 7 unknown #
coedge $-1 $39 $38 $17 $29 reversed $13 $-1 #
edge $-1 $30 -1.277635237685567349e-32 $31 3.141592653589793116 $17 $53 forward 7 unknown #
vertex $-1 $29 $54 #
vertex $-1 $29 $55 #
ellipse-curve $-1 -1.762479051592435909e-16 3.524958103184871819e-16 2.381249999999999645 0 0 -1 5.556249999999999467 3.279260950240711526e-16 0 1 I I #
face $-1 $56 $57 $2 $-1 $58 forward single #
loop $-1 $-1 $59 $19 #
torus-surface $-1 0 0 -0.3571874999999999356 0 0 1 7.624811710931139075 2.539999999999999591 -1 0 0 forward_v I I I I #
loop $-1 $-1 $40 $12 #
coedge $-1 $60 $60 $61 $62 reversed $20 $-1 #
coedge $-1 $28 $22 $23 $43 reversed $13 $-1 #
coedge $-1 $22 $28 $24 $44 forward $13 $-1 #
coedge $-1 $63 $63 $22 $41 reversed $36 $-1 #
edge $-1 $64 1.224606353822377258e-16 $65 3.141592653589793116 $22 $66 forward 7 unknown #
coedge $-1 $24 $23 $63 $67 reversed $8 $-1 #
edge $-1 $31 0 $65 0.007812499999999993061 $38 $68 forward 7 unknown #
edge $-1 $30 0 $64 0.007812499999999993061 $39 $69 forward 7 unknown #
coedge $-1 $70 $71 $25 $46 reversed $72 $-1 #
edge $-1 $50 1.567360164802134907e-32 $51 3.141592653589793116 $25 $73 forward 7 unknown #
coedge $-1 $74 $26 $71 $75 forward $49 $-1 #
coedge $-1 $26 $74 $70 $76 reversed $49 $-1 #
loop $-1 $-1 $47 $77 #
vertex $-1 $46 $78 #
vertex $-1 $46 $79 #
ellipse-curve $-1 0 1.762479051592435909e-16 2.381249999999999645 7.0267280039566862e-17 6.136230438147532804e-33 1 5.016499999999999737 4.380758722357519737e-16 -3.524958103184871819e-16 1 I I #
ellipse-curve $-1 0 1.762479051592435909e-16 2.381249999999999645 0 0 1 5.556249999999999467 5.041740001833147436e-16 0 1 I I #
point $-1 5.556249999999999467 6.804219053425582852e-16 2.381249999999999645 #
point $-1 -5.556249999999999467 0 2.381249999999999645 #
face $-1 $80 $81 $2 $-1 $82 forward single #
loop $-1 $-1 $83 $33 #
torus-surface $-1 0 0 -0.3571874999999999356 0 0 1 7.624811710931139075 2.539999999999999591 -1 0 0 forward_v I I I I #
coedge $-1 $61 $84 $85 $86 forward $34 $-1 #
coedge $-1 $37 $37 $87 $88 forward $20 $-1 #
coedge $-1 $89 $59 $37 $62 forward $34 $-1 #
edge $-1 $90 0 $91 3.141592653589793116 $37 $92 forward 7 unknown #
coedge $-1 $40 $40 $42 $67 forward $36 $-1 #
vertex $-1 $44 $93 #
vertex $-1 $43 $94 #
ellipse-curve $-1 0 0 2.182812499999999822 0 0 1 5.556249999999999467 0 0 1 I I #
edge $-1 $64 -1.224606353822377258e-16 $65 3.141592653589793116 $63 $95 forward 7 unknown #
straight-curve $-1 -5.556249999999999467 -1.36084381068511657e-15 2.381249999999999645 0 0 -25.39999999999999858 I I #
straight-curve $-1 5.556249999999999467 6.804219053425582852e-16 2.381249999999999645 0 0 -25.39999999999999858 I I #
coedge $-1 $96 $45 $48 $76 forward $72 $-1 #
coedge $-1 $45 $96 $47 $75 reversed $72 $-1 #
loop $-1 $-1 $70 $97 #
ellipse-curve $-1 3.524958103184871819e-16 1.762479051592435909e-16 2.381249999999999645 -7.0267280039566862e-17 -6.136230438147532804e-33 -1 5.016499999999999737 4.380758722357519737e-16 -3.524958103184871819e-16 1 I I #
coedge $-1 $48 $47 $98 $99 reversed $49 $-1 #
edge $-1 $51 0 $100 1.570796326794889675 $71 $101 forward 7 unknown #
edge $-1 $50 1.961088492551599374e-47 $102 1.570796326794898556 $70 $103 forward 7 unknown #
face $-1 $97 $49 $2 $-1 $104 forward single #
point $-1 5.016499999999999737 6.143237773949955153e-16 2.381249999999999645 #
point $-1 -5.016499999999999737 -1.228647554789991031e-15 2.381249999999999645 #
face $-1 $105 $106 $2 $-1 $107 reversed single #
loop $-1 $-1 $108 $56 #
cone-surface $-1 0 0 -21.23281249999999787 0 0 1 -101.5999999999999375 0 0 1 I I -0.9701425001453318764 0.2425356250363331079 101.5999999999999375 forward I I I I #
coedge $-1 $87 $109 $89 $110 forward $57 $-1 #
coedge $-1 $59 $89 $111 $112 reversed $34 $-1 #
coedge $-1 $109 $87 $59 $86 reversed $57 $-1 #
edge $-1 $113 -3.957952998694746609e-15 $90 0.2449786631268654202 $85 $114 forward 7 unknown #
coedge $-1 $85 $83 $60 $88 reversed $57 $-1 #
edge $-1 $90 0 $91 3.141592653589793116 $60 $115 forward 7 unknown #
coedge $-1 $84 $61 $83 $110 reversed $34 $-1 #
vertex $-1 $88 $116 #
vertex $-1 $88 $117 #
ellipse-curve $-1 0 -3.524958103184871819e-16 2.182812499999999822 0 0 -1 7.624811710931139075 1.286235097109041587e-15 0 1 I I #
point $-1 5.556249999999999467 6.804219053425582852e-16 2.182812499999999822 #
point $-1 -5.556249999999999467 0 2.182812499999999822 #
ellipse-curve $-1 0 0 2.182812499999999822 0 0 -1 5.556249999999999467 0 0 1 I I #
coedge $-1 $71 $70 $118 $119 forward $72 $-1 #
face $-1 $120 $72 $2 $-1 $121 forward single #
coedge $-1 $122 $123 $74 $99 forward $124 $-1 #
edge $-1 $102 -1.739003517960911228e-32 $100 3.141592653589793116 $98 $125 forward 7 unknown #
vertex $-1 $126 $127 #
ellipse-curve $-1 -5.016499999999999737 0 2.127249999999999197 0 1 0 0 0 0.2540000000000002256 1 I I #
vertex $-1 $128 $129 #
ellipse-curve $-1 5.016499999999999737 6.143237773949957125e-16 2.127249999999999197 1.224606353822381203e-16 -1 -6.162975822039149475e-31 0 -1.565395858797945214e-31 0.2540000000000002256 1 I I #
torus-surface $-1 0 0 2.127249999999999641 0 0 1 5.016499999999999737 0.2540000000000000036 -1 0 0 forward_v I I I I #
face $-1 $130 $131 $2 $-1 $132 forward single #
loop $-1 $-1 $133 $80 #
cone-surface $-1 0 0 -2.619374999999999787 0 0 1 -8.731249999999999289 0 0 1 I I 0 1 8.731249999999999289 forward I I I I #
coedge $-1 $134 $135 $136 $137 forward $81 $-1 #
coedge $-1 $83 $85 $138 $139 forward $57 $-1 #
edge $-1 $140 -3.957952998694746609e-15 $91 0.2449786631268654202 $83 $141 forward 7 unknown #
coedge $-1 $142 $143 $84 $112 forward $144 $-1 #
edge $-1 $113 -1.16159887705554373e-31 $140 3.141592653589793116 $111 $145 forward 7 unknown #
vertex $-1 $146 $147 #
ellipse-curve $-1 7.624811710931140851 9.337392867905771838e-16 -0.3571874999999784528 1.224606353822367397e-16 -1 -8.868907393903373845e-30 0.6160404875922818047 7.544070953171190973e-17 2.464161950369121445 1 I I #
ellipse-curve $-1 0 -7.049916206369743637e-16 2.182812499999999822 0 0 1 7.624811710931139075 1.638730907427529065e-15 0 1 I I #
point $-1 7.624811710931139075 9.337392867905545041e-16 2.182812499999999822 #
point $-1 -7.624811710931139075 0 2.182812499999999822 #
coedge $-1 $148 $149 $96 $119 reversed $150 $-1 #
edge $-1 $102 1.739003517960911228e-32 $100 3.141592653589793116 $118 $151 forward 7 unknown #
face $-1 $152 $150 $2 $-1 $153 reversed single #
torus-surface $-1 0 0 2.127249999999999641 0 0 1 5.016499999999999737 0.2540000000000000036 -1 0 0 forward_v I I I I #
coedge $-1 $154 $98 $149 $126 reversed $124 $-1 #
coedge $-1 $98 $154 $148 $128 forward $124 $-1 #
loop $-1 $-1 $98 $155 #
ellipse-curve $-1 0 0 2.127250000000000973 0 0 1 4.762499999999999289 5.832187760079072284e-16 0 1 I I #
edge $-1 $156 6.993530863780513543e-17 $100 0.1675000000000001488 $122 $157 forward 7 unknown #
point $-1 -4.762499999999999289 0 2.127250000000000973 #
edge $-1 $158 0 $102 0.1675000000000000377 $123 $159 forward 7 unknown #
point $-1 4.762499999999999289 5.832187760079071298e-16 2.127249999999998753 #
face $-1 $160 $161 $2 $-1 $162 forward single #
loop $-1 $163 $164 $105 #
plane-surface $-1 0 0 2.381249999999999645 0 0 1 -25.39999999999999858 0 0 forward_v I I I I #
coedge $-1 $165 $166 $167 $168 forward $106 $-1 #
coedge $-1 $138 $108 $142 $169 reversed $81 $-1 #
coedge $-1 $108 $138 $143 $146 forward $81 $-1 #
coedge $-1 $166 $165 $108 $137 reversed $106 $-1 #
edge $-1 $170 -9.313010575526189728e-32 $171 3.141592653589793116 $108 $172 forward 7 unknown #
coedge $-1 $135 $134 $109 $139 reversed $81 $-1 #
edge $-1 $113 1.16159887705554373e-31 $140 3.141592653589793116 $138 $173 forward 7 unknown #
vertex $-1 $139 $174 #
ellipse-curve $-1 -7.624811710931140851 -1.867478573581154368e-15 -0.3571874999999784528 -2.449212707644734795e-16 1 -1.773781478780674769e-29 -0.6160404875922818047 -1.508814190634238195e-16 2.464161950369121445 1 I I #
coedge $-1 $175 $111 $134 $169 forward $144 $-1 #
coedge $-1 $111 $175 $135 $146 reversed $144 $-1 #
loop $-1 $-1 $111 $176 #
ellipse-curve $-1 0 0 2.106974450369142993 0 0 -1 8.24085219852342199 1.009179996322289007e-15 0 1 I I #
edge $-1 $113 0 $170 0.01990120013837213056 $135 $177 forward 7 unknown #
point $-1 8.240852198523432648 1.009179996322291374e-15 2.10697445036914166 #
coedge $-1 $178 $118 $123 $128 reversed $150 $-1 #
coedge $-1 $118 $178 $122 $126 forward $150 $-1 #
loop $-1 $-1 $178 $120 #
ellipse-curve $-1 0 0 2.127250000000000973 0 0 -1 4.762499999999999289 5.832187760079072284e-16 0 1 I I #
face $-1 $176 $179 $2 $-1 $180 reversed single #
cone-surface $-1 0 0 -2.619374999999999787 0 0 1 -4.762499999999999289 0 0 1 I I 0 1 4.762499999999999289 forward I I I I #
coedge $-1 $123 $122 $181 $182 reversed $124 $-1 #
face $-1 $77 $124 $2 $-1 $183 reversed single #
vertex $-1 $182 $184 #
straight-curve $-1 -4.762499999999999289 -1.16643755201581426e-15 -2.127250000000002306 0 0 25.39999999999999858 I I #
vertex $-1 $128 $185 #
straight-curve $-1 4.762499999999999289 5.832187760079071298e-16 -2.127250000000002306 0 0 25.39999999999999858 I I #
face $-1 $186 $187 $2 $-1 $188 forward single #
loop $-1 $-1 $189 $130 #
torus-surface $-1 0 0 2.127249999999999641 0 0 1 9.270999999999999019 0.2540000000000000036 -1 0 0 forward_v I I I I #
loop $-1 $-1 $167 $105 #
coedge $-1 $190 $190 $191 $192 reversed $131 $-1 #
coedge $-1 $136 $133 $193 $194 reversed $106 $-1 #
coedge $-1 $133 $136 $195 $196 forward $106 $-1 #
coedge $-1 $197 $197 $133 $168 reversed $163 $-1 #
edge $-1 $198 1.224606353822377258e-16 $199 3.141592653589793116 $133 $200 forward 7 unknown #
edge $-1 $140 -0 $171 0.01990120013837169688 $134 $201 forward 7 unknown #
vertex $-1 $146 $202 #
vertex $-1 $169 $203 #
ellipse-curve $-1 -7.049916206369743637e-16 3.524958103184871819e-16 1.984375 0 0 1 8.731249999999999289 7.167386123626759223e-16 0 1 I I #
ellipse-curve $-1 0 0 2.106974450369142993 0 0 1 8.24085219852342199 1.009179996322289007e-15 0 1 I I #
point $-1 -8.240852198523432648 -2.018359992644582748e-15 2.10697445036914166 #
coedge $-1 $143 $142 $204 $205 reversed $144 $-1 #
face $-1 $-1 $144 $2 $-1 $206 forward single #
straight-curve $-1 8.240852198523432648 1.009179996322291374e-15 2.10697445036914166 24.64161950369142673 3.01762838126926101e-15 -6.160404875922856682 I I #
coedge $-1 $149 $148 $207 $208 forward $150 $-1 #
loop $-1 $-1 $204 $152 #
cone-surface $-1 0 0 -2.619374999999999787 0 0 1 -8.731249999999999289 0 0 1 I I 0 1 8.731249999999999289 forward I I I I #
coedge $-1 $209 $210 $154 $182 forward $211 $-1 #
edge $-1 $158 -1.739003517960911228e-32 $156 3.141592653589793116 $154 $212 forward 7 unknown #
cone-surface $-1 0 0 -2.619374999999999787 0 0 1 -4.762499999999999289 0 0 1 I I 0 1 4.762499999999999289 forward I I I I #
point $-1 -4.762499999999999289 -1.166437552015814457e-15 -2.127250000000000529 #
point $-1 4.762499999999999289 5.832187760079071298e-16 -2.127250000000002306 #
face $-1 $213 $214 $2 $-1 $215 forward single #
loop $-1 $-1 $216 $160 #
torus-surface $-1 0 0 2.127249999999999641 0 0 1 9.270999999999999019 0.2540000000000000036 -1 0 0 forward_v I I I I #
coedge $-1 $191 $217 $218 $219 forward $161 $-1 #
coedge $-1 $164 $164 $220 $221 forward $131 $-1 #
coedge $-1 $222 $189 $164 $192 forward $161 $-1 #
edge $-1 $223 0 $224 3.141592653589793116 $164 $225 forward 7 unknown #
coedge $-1 $226 $204 $165 $194 forward $179 $-1 #
edge $-1 $171 0 $199 0.01562499999999998612 $165 $227 forward 7 unknown #
coedge $-1 $204 $226 $166 $196 reversed $179 $-1 #
edge $-1 $170 -1.13644876536433342e-16 $198 0.01562499999999998612 $166 $228 forward 7 unknown #
coedge $-1 $167 $167 $226 $229 forward $163 $-1 #
vertex $-1 $196 $230 #
vertex $-1 $194 $231 #
ellipse-curve $-1 0 0 2.381249999999999645 0 0 1 8.731249999999999289 0 0 1 I I #
straight-curve $-1 -8.240852198523432648 -2.018359992644582748e-15 2.10697445036914166 -24.64161950369142673 -6.03525676253852202e-15 -6.160404875922856682 I I #
point $-1 8.731250000000009948 1.069234422681163104e-15 1.984374999999997113 #
point $-1 -8.731249999999999289 0 1.984375 #
coedge $-1 $193 $195 $175 $205 forward $179 $-1 #
edge $-1 $170 1.862602115105237946e-31 $171 3.141592653589793116 $175 $232 forward 7 unknown #
cone-surface $-1 0 0 -21.23281249999999787 0 0 1 -101.5999999999999375 0 0 1 I I -0.9701425001453318764 0.2425356250363331079 101.5999999999999375 forward I I I I #
coedge $-1 $233 $234 $178 $208 reversed $235 $-1 #
edge $-1 $158 1.739003517960911228e-32 $156 3.141592653589793116 $178 $236 forward 7 unknown #
coedge $-1 $237 $181 $234 $238 forward $211 $-1 #
coedge $-1 $181 $237 $233 $239 reversed $211 $-1 #
loop $-1 $-1 $209 $240 #
ellipse-curve $-1 0 0 -2.127250000000000529 0 0 1 4.762499999999999289 5.832187760079072284e-16 0 1 I I #
face $-1 $241 $242 $2 $-1 $243 forward single #
loop $-1 $-1 $244 $186 #
cone-surface $-1 0 0 -2.619374999999999787 0 0 1 -9.524999999999998579 0 0 1 I I 0 1 9.524999999999998579 forward I I I I #
coedge $-1 $220 $245 $222 $246 forward $187 $-1 #
coedge $-1 $189 $222 $247 $248 reversed $161 $-1 #
coedge $-1 $245 $220 $189 $219 reversed $187 $-1 #
edge $-1 $249 -9.408484490179725561e-15 $223 1.570796326794892561 $218 $250 forward 7 unknown #
coedge $-1 $218 $216 $190 $221 reversed $187 $-1 #
edge $-1 $223 -2.244871457057236721e-65 $224 3.141592653589793116 $190 $251 forward 7 unknown #
coedge $-1 $217 $191 $216 $246 reversed $161 $-1 #
vertex $-1 $221 $252 #
vertex $-1 $221 $253 #
ellipse-curve $-1 0 0 2.381249999999999645 -3.8021336459765639e-17 -4.656117020944741022e-33 -1 9.270999999999999019 1.135332550628725874e-15 -3.524958103184871819e-16 1 I I #
coedge $-1 $195 $193 $197 $229 reversed $179 $-1 #
straight-curve $-1 -8.731249999999999289 -2.138468845362326208e-15 1.984375 0 0 25.39999999999999858 I I #
straight-curve $-1 8.731249999999999289 1.069234422681163104e-15 1.984375 0 0 25.39999999999999858 I I #
edge $-1 $198 -1.224606353822377258e-16 $199 3.141592653589793116 $197 $254 forward 7 unknown #
point $-1 8.731249999999999289 1.069234422681163104e-15 2.381249999999999645 #
point $-1 -8.731249999999999289 0 2.381249999999999645 #
ellipse-curve $-1 3.524958103184871819e-16 -3.524958103184871819e-16 1.984375 0 0 -1 8.731249999999999289 1.421730232999650187e-15 0 1 I I #
coedge $-1 $255 $207 $210 $239 forward $235 $-1 #
coedge $-1 $207 $255 $209 $238 reversed $235 $-1 #
loop $-1 $-1 $233 $256 #
ellipse-curve $-1 0 0 -2.127250000000000529 0 0 -1 4.762499999999999289 5.832187760079072284e-16 0 1 I I #
coedge $-1 $210 $209 $257 $258 reversed $211 $-1 #
edge $-1 $156 1.081811805491043028e-15 $259 1.570796326794892561 $234 $260 forward 7 unknown #
edge $-1 $158 8.075342669271544837e-15 $261 1.570796326794892561 $233 $262 forward 7 unknown #
face $-1 $155 $211 $2 $-1 $263 forward single #
face $-1 $264 $265 $2 $-1 $266 forward single #
loop $-1 $-1 $267 $213 #
torus-surface $-1 0 0 -2.127250000000000085 0 0 1 9.270999999999999019 0.2540000000000000036 -1 0 0 forward_v I I I I #
coedge $-1 $268 $269 $270 $271 forward $214 $-1 #
coedge $-1 $216 $218 $272 $273 forward $187 $-1 #
edge $-1 $274 -6.665709104540694574e-16 $224 1.570796326794892561 $216 $275 forward 7 unknown #
coedge $-1 $276 $277 $217 $248 forward $278 $-1 #
edge $-1 $249 0 $274 3.141592653589793116 $247 $279 forward 7 unknown #
vertex $-1 $280 $281 #
ellipse-curve $-1 9.270999999999999019 1.135332550628726071e-15 2.127250000000000085 1.224606353822371588e-16 -1 -5.403451502372529337e-31 0.2540000000000002256 3.110500138708826842e-17 1.057487430955461447e-15 1 I I #
ellipse-curve $-1 0 3.524958103184871819e-16 2.381249999999999645 3.8021336459765639e-17 3.210494994758037235e-33 1 9.270999999999999019 7.828367403102386922e-16 -3.524958103184871819e-16 1 I I #
point $-1 9.270999999999999019 1.135332550628725874e-15 2.381249999999999645 #
point $-1 -9.270999999999999019 0 2.381249999999999645 #
ellipse-curve $-1 0 0 2.381249999999999645 0 0 -1 8.731249999999999289 0 0 1 I I #
coedge $-1 $234 $233 $282 $283 forward $235 $-1 #
face $-1 $240 $235 $2 $-1 $284 forward single #
coedge $-1 $282 $282 $237 $258 forward $285 $-1 #
edge $-1 $261 -1.567360164802134907e-32 $259 3.141592653589793116 $257 $286 forward 7 unknown #
vertex $-1 $258 $287 #
ellipse-curve $-1 -5.016499999999999737 0 -2.127249999999999197 0 1 0 0.2540000000000002256 0 -1.057487430955461447e-15 1 I I #
vertex $-1 $258 $288 #
ellipse-curve $-1 5.016499999999999737 6.143237773949958111e-16 -2.127249999999999197 1.224606353822383914e-16 -1 6.920209818827965566e-31 -0.2540000000000002256 -3.110500138708858273e-17 -1.057487430955461447e-15 1 I I #
torus-surface $-1 0 0 -2.127250000000000085 0 0 1 5.016499999999999737 0.2540000000000000036 -1 0 0 forward_v I I I I #
face $-1 $289 $278 $2 $-1 $290 forward single #
loop $-1 $-1 $291 $241 #
torus-surface $-1 0 0 -2.127250000000000085 0 0 1 9.270999999999999019 0.2540000000000000036 -1 0 0 forward_v I I I I #
coedge $-1 $270 $292 $293 $294 forward $242 $-1 #
coedge $-1 $272 $244 $276 $295 reversed $214 $-1 #
coedge $-1 $244 $272 $277 $280 forward $214 $-1 #
coedge $-1 $296 $267 $244 $271 reversed $242 $-1 #
edge $-1 $297 0 $298 3.141592653589793116 $244 $299 forward 7 unknown #
coedge $-1 $269 $268 $245 $273 reversed $214 $-1 #
edge $-1 $249 0 $274 3.141592653589793116 $272 $300 forward 7 unknown #
vertex $-1 $273 $301 #
ellipse-curve $-1 -9.270999999999999019 -2.270665101257452143e-15 2.127250000000000085 -2.449212707644743177e-16 1 -1.080690300474505867e-30 -0.2540000000000002256 -6.221000277417653683e-17 1.057487430955461447e-15 1 I I #
coedge $-1 $302 $247 $268 $295 forward $278 $-1 #
coedge $-1 $247 $302 $269 $280 reversed $278 $-1 #
loop $-1 $-1 $247 $264 #
ellipse-curve $-1 0 0 2.127250000000000973 0 0 -1 9.524999999999998579 1.16643755201581426e-15 0 1 I I #
edge $-1 $249 0 $297 0.16750000000000001 $269 $303 forward 7 unknown #
point $-1 9.524999999999998579 1.16643755201581426e-15 2.127249999999998753 #
coedge $-1 $257 $257 $255 $283 reversed $285 $-1 #
edge $-1 $261 1.567360164802134907e-32 $259 3.141592653589793116 $282 $304 forward 7 unknown #
torus-surface $-1 0 0 -2.127250000000000085 0 0 1 5.016499999999999737 0.2540000000000000036 -1 0 0 forward_v I I I I #
loop $-1 $305 $282 $306 #
ellipse-curve $-1 0 1.762479051592435909e-16 -2.381249999999999645 0 0 1 5.016499999999999737 4.380758722357519737e-16 0 1 I I #
point $-1 -5.016499999999999737 0 -2.381249999999999645 #
point $-1 5.016499999999999737 6.143237773949955153e-16 -2.381249999999999645 #
face $-1 $307 $308 $2 $-1 $309 reversed single #
cone-surface $-1 0 0 -2.619374999999999787 0 0 1 -9.524999999999998579 0 0 1 I I 0 1 9.524999999999998579 forward I I I I #
coedge $-1 $310 $311 $296 $312 forward $265 $-1 #
coedge $-1 $267 $296 $313 $314 forward $242 $-1 #
coedge $-1 $311 $310 $267 $294 reversed $265 $-1 #
edge $-1 $315 -7.844353970206487923e-47 $298 1.570796326794891451 $267 $316 forward 7 unknown #
edge $-1 $274 -8.741913579725642546e-17 $298 0.16750000000000001 $268 $317 forward 7 unknown #
coedge $-1 $292 $270 $291 $312 reversed $242 $-1 #
vertex $-1 $280 $318 #
vertex $-1 $295 $319 #
ellipse-curve $-1 0 0 -2.127249999999999641 0 0 1 9.524999999999998579 1.16643755201581426e-15 0 1 I I #
ellipse-curve $-1 0 0 2.127250000000000973 0 0 1 9.524999999999998579 1.16643755201581426e-15 0 1 I I #
point $-1 -9.524999999999998579 0 2.127250000000000973 #
coedge $-1 $277 $276 $310 $320 reversed $278 $-1 #
straight-curve $-1 9.524999999999998579 1.16643755201581426e-15 2.127249999999998753 0 0 -25.39999999999999858 I I #
ellipse-curve $-1 3.524958103184871819e-16 1.762479051592435909e-16 -2.381249999999999645 0 0 -1 5.016499999999999737 4.380758722357519737e-16 0 1 I I #
loop $-1 $-1 $321 $306 #
face $-1 $256 $285 $2 $-1 $322 reversed single #
face $-1 $323 $324 $2 $-1 $325 reversed single #
loop $-1 $326 $327 $289 #
plane-surface $-1 0 0 -2.381249999999999645 0 0 1 -25.39999999999999858 0 0 forward_v I I I I #
coedge $-1 $293 $291 $302 $320 forward $265 $-1 #
coedge $-1 $291 $293 $328 $329 reversed $265 $-1 #
edge $-1 $330 -1.961088492551621981e-47 $297 1.570796326794891451 $296 $331 forward 7 unknown #
coedge $-1 $328 $328 $292 $314 reversed $326 $-1 #
edge $-1 $330 0 $315 3.141592653589793116 $313 $332 forward 7 unknown #
vertex $-1 $329 $333 #
ellipse-curve $-1 -9.270999999999999019 -2.270665101257452143e-15 -2.127250000000000529 -2.449212707644752544e-16 1 1.232595164407833223e-30 0 3.130791717595890428e-31 -0.253999999999999504 1 I I #
straight-curve $-1 -9.524999999999998579 -2.332875104031628519e-15 2.127249999999998753 0 0 -25.39999999999999858 I I #
point $-1 9.524999999999998579 1.16643755201581426e-15 -2.127250000000001862 #
point $-1 -9.524999999999998579 -2.332875104031628519e-15 -2.127250000000001862 #
edge $-1 $297 0 $298 3.141592653589793116 $302 $334 forward 7 unknown #
coedge $-1 $335 $335 $336 $337 reversed $305 $-1 #
plane-surface $-1 0 0 -2.381249999999999645 0 0 1 -25.39999999999999858 0 0 forward_v I I I I #
face $-1 $338 $339 $2 $-1 $340 reversed single #
loop $-1 $-1 $341 $307 #
cone-surface $-1 0 0 -2.619374999999999787 0 0 1 -8.731249999999999289 0 0 1 I I 0 1 8.731249999999999289 forward I I I I #
loop $-1 $-1 $313 $289 #
coedge $-1 $342 $342 $341 $343 reversed $308 $-1 #
coedge $-1 $313 $313 $311 $329 forward $326 $-1 #
edge $-1 $330 0 $315 3.141592653589793116 $328 $344 forward 7 unknown #
vertex $-1 $329 $345 #
ellipse-curve $-1 9.270999999999999019 1.135332550628726071e-15 -2.127250000000000529 1.224606353822376272e-16 -1 6.162975822039166115e-31 0 -1.565395858797945214e-31 -0.253999999999999504 1 I I #
ellipse-curve $-1 0 3.524958103184871819e-16 -2.381249999999999645 0 0 1 9.270999999999999019 7.828367403102386922e-16 0 1 I I #
point $-1 -9.270999999999999019 -2.270665101257451748e-15 -2.381249999999999645 #
ellipse-curve $-1 0 0 -2.127249999999999641 0 0 -1 9.524999999999998579 1.16643755201581426e-15 0 1 I I #
coedge $-1 $321 $321 $346 $347 forward $305 $-1 #
coedge $-1 $348 $349 $321 $337 forward $350 $-1 #
edge $-1 $351 1.224606353822377258e-16 $352 3.141592653589793116 $336 $353 forward 7 unknown #
face $-1 $354 $355 $2 $-1 $356 forward single #
loop $-1 $-1 $357 $323 #
cone-surface $-1 0 0 -2.619374999999999787 0 0 1 -8.731249999999999289 0 0 1 I I 0 1 8.731249999999999289 forward I I I I #
coedge $-1 $358 $359 $327 $343 forward $324 $-1 #
coedge $-1 $327 $327 $360 $361 forward $308 $-1 #
edge $-1 $362 -1.214879015655848554e-63 $363 3.141592653589793116 $327 $364 forward 7 unknown #
ellipse-curve $-1 0 0 -2.381249999999999645 0 0 -1 9.270999999999999019 1.135332550628725874e-15 0 1 I I #
point $-1 9.270999999999999019 1.135332550628725874e-15 -2.381249999999999645 #
coedge $-1 $365 $366 $335 $347 reversed $367 $-1 #
edge $-1 $351 -1.224606353822377258e-16 $352 3.141592653589793116 $335 $368 forward 7 unknown #
coedge $-1 $369 $336 $366 $370 reversed $350 $-1 #
coedge $-1 $336 $369 $365 $371 forward $350 $-1 #
loop $-1 $-1 $336 $372 #
vertex $-1 $371 $373 #
vertex $-1 $370 $374 #
ellipse-curve $-1 0 0 -2.381249999999999645 0 0 1 5.556249999999999467 0 0 1 I I #
face $-1 $375 $376 $2 $-1 $377 forward single #
loop $-1 $-1 $378 $338 #
cone-surface $-1 0 0 21.23281249999999787 0 0 -1 -101.5999999999999375 0 0 1 I I -0.9701425001453318764 0.2425356250363331079 101.5999999999999375 forward I I I I #
coedge $-1 $379 $380 $381 $382 forward $339 $-1 #
coedge $-1 $383 $341 $379 $384 forward $324 $-1 #
coedge $-1 $341 $383 $380 $385 reversed $324 $-1 #
coedge $-1 $380 $379 $342 $361 reversed $339 $-1 #
edge $-1 $362 6.074395078279242769e-64 $363 3.141592653589793116 $342 $386 forward 7 unknown #
vertex $-1 $361 $387 #
vertex $-1 $361 $388 #
ellipse-curve $-1 3.524958103184871819e-16 -3.524958103184871819e-16 -2.381249999999999645 -2.422304781000341363e-16 -3.944296567716859256e-32 -1 8.731249999999999289 1.421730232999650187e-15 -2.114974861910922894e-15 1 I I #
coedge $-1 $389 $346 $349 $371 reversed $367 $-1 #
coedge $-1 $346 $389 $348 $370 forward $367 $-1 #
loop $-1 $-1 $389 $390 #
ellipse-curve $-1 0 0 -2.381249999999999645 0 0 -1 5.556249999999999467 0 0 1 I I #
coedge $-1 $349 $348 $391 $392 reversed $350 $-1 #
edge $-1 $393 0 $352 0.007812499999999906325 $348 $394 forward 7 unknown #
edge $-1 $395 0 $351 0.007812499999999993061 $349 $396 forward 7 unknown #
face $-1 $306 $350 $2 $-1 $397 forward single #
point $-1 5.556249999999999467 6.804219053425582852e-16 -2.381250000000001865 #
point $-1 -5.556249999999999467 0 -2.381249999999999645 #
face $-1 $398 $399 $2 $-1 $400 forward single #
loop $-1 $-1 $401 $354 #
torus-surface $-1 0 0 0.3571874999999999356 0 0 1 7.624811710931139075 2.539999999999999591 -1 0 0 forward_v I I I I #
coedge $-1 $402 $403 $404 $405 forward $355 $-1 #
coedge $-1 $360 $357 $358 $384 reversed $339 $-1 #
coedge $-1 $357 $360 $359 $385 forward $339 $-1 #
coedge $-1 $403 $402 $357 $382 reversed $355 $-1 #
edge $-1 $406 9.313010575526189728e-32 $407 3.141592653589793116 $357 $408 forward 7 unknown #
coedge $-1 $359 $358 $409 $410 reversed $324 $-1 #
edge $-1 $363 0 $407 0.01562500000000018735 $379 $411 forward 7 unknown #
edge $-1 $362 0 $406 0.0156249999999999948 $380 $412 forward 7 unknown #
ellipse-curve $-1 -7.049916206369743637e-16 3.524958103184871819e-16 -2.381249999999999645 2.422304781000341363e-16 1.988443083697821668e-32 1 8.731249999999999289 7.167386123626759223e-16 -2.114974861910922894e-15 1 I I #
point $-1 8.731249999999999289 1.069234422681163104e-15 -2.381250000000001865 #
point $-1 -8.731249999999999289 0 -2.381250000000001865 #
coedge $-1 $366 $365 $413 $414 forward $367 $-1 #
face $-1 $372 $367 $2 $-1 $415 forward single #
coedge $-1 $413 $413 $369 $392 forward $416 $-1 #
edge $-1 $395 -1.277635237685567349e-32 $393 3.141592653589793116 $391 $417 forward 7 unknown #
vertex $-1 $392 $418 #
straight-curve $-1 -5.556249999999999467 -1.36084381068511657e-15 -2.182812500000002043 0 0 -25.39999999999999858 I I #
vertex $-1 $392 $419 #
straight-curve $-1 5.556249999999999467 6.804219053425582852e-16 -2.182812500000002043 0 0 -25.39999999999999858 I I #
cone-surface $-1 0 0 -2.619374999999999787 0 0 1 -5.556249999999999467 0 0 1 I I 0 1 5.556249999999999467 forward I I I I #
face $-1 $420 $421 $2 $-1 $422 forward single #
loop $-1 $-1 $423 $375 #
torus-surface $-1 0 0 0.3571874999999999356 0 0 1 7.624811710931139075 2.539999999999999591 -1 0 0 forward_v I I I I #
coedge $-1 $404 $424 $425 $426 forward $376 $-1 #
coedge $-1 $381 $378 $427 $428 reversed $355 $-1 #
coedge $-1 $378 $381 $429 $430 forward $355 $-1 #
coedge $-1 $431 $401 $378 $405 reversed $376 $-1 #
edge $-1 $432 1.16159887705554373e-31 $433 3.141592653589793116 $378 $434 forward 7 unknown #
vertex $-1 $385 $435 #
vertex $-1 $384 $436 #
ellipse-curve $-1 -7.049916206369743637e-16 3.524958103184871819e-16 -1.984374999999997113 0 0 1 8.731250000000009948 7.167386123626759223e-16 0 1 I I #
coedge $-1 $427 $429 $383 $410 forward $421 $-1 #
edge $-1 $406 -1.862602115105237946e-31 $407 3.141592653589793116 $383 $437 forward 7 unknown #
straight-curve $-1 -8.731249999999999289 -2.138468845362326208e-15 -2.381250000000001865 0 0 25.39999999999999858 I I #
straight-curve $-1 8.731249999999999289 1.069234422681163104e-15 -2.381250000000001865 0 0 25.39999999999999858 I I #
coedge $-1 $391 $391 $389 $414 reversed $416 $-1 #
edge $-1 $395 1.277635237685567349e-32 $393 3.141592653589793116 $413 $438 forward 7 unknown #
cone-surface $-1 0 0 -2.619374999999999787 0 0 1 -5.556249999999999467 0 0 1 I I 0 1 5.556249999999999467 forward I I I I #
loop $-1 $439 $413 $420 #
ellipse-curve $-1 0 1.762479051592435909e-16 -2.182812499999999822 3.80647894157196507e-16 3.453998136487537261e-32 1 5.556249999999999467 5.041740001833147436e-16 -2.114974861910922894e-15 1 I I #
point $-1 -5.556249999999999467 0 -2.182812500000002043 #
point $-1 5.556249999999999467 6.804219053425582852e-16 -2.182812500000002043 #
face $-1 $390 $416 $2 $-1 $440 reversed single #
loop $-1 $-1 $409 $398 #
cone-surface $-1 0 0 21.23281249999999787 0 0 -1 -101.5999999999999375 0 0 1 I I -0.9701425001453318764 0.2425356250363331079 101.5999999999999375 forward I I I I #
coedge $-1 $441 $442 $431 $443 forward $399 $-1 #
coedge $-1 $401 $431 $444 $445 forward $376 $-1 #
coedge $-1 $442 $441 $401 $426 reversed $399 $-1 #
edge $-1 $446 -6.119339505807922542e-17 $433 0.2449786631268657811 $401 $447 forward 7 unknown #
coedge $-1 $448 $409 $402 $428 forward $421 $-1 #
edge $-1 $407 0 $433 0.01990120013837213056 $402 $449 forward 7 unknown #
coedge $-1 $409 $448 $403 $430 reversed $421 $-1 #
edge $-1 $406 4.537282514514862161e-16 $432 0.01990120013837213056 $403 $450 forward 7 unknown #
coedge $-1 $424 $404 $423 $443 reversed $376 $-1 #
vertex $-1 $430 $451 #
vertex $-1 $428 $452 #
ellipse-curve $-1 0 0 -2.106974450369142993 0 0 1 8.24085219852342199 1.009179996322289007e-15 0 1 I I #
point $-1 8.731249999999999289 1.069234422681163104e-15 -1.984375000000001998 #
point $-1 -8.731250000000009948 -2.138468845362326208e-15 -1.984374999999997113 #
ellipse-curve $-1 3.524958103184871819e-16 -3.524958103184871819e-16 -1.984374999999997113 0 0 -1 8.731250000000009948 1.421730232999650187e-15 0 1 I I #
ellipse-curve $-1 -1.762479051592435909e-16 3.524958103184871819e-16 -2.182812499999999822 -3.80647894157196507e-16 -2.246557975434967925e-32 -1 5.556249999999999467 3.279260950240711526e-16 -2.114974861910922894e-15 1 I I #
loop $-1 $-1 $444 $420 #
plane-surface $-1 0 0 -2.182812499999999822 0 0 1 -25.39999999999999858 0 0 forward_v I I I I #
coedge $-1 $425 $423 $448 $453 forward $399 $-1 #
coedge $-1 $423 $425 $454 $455 reversed $399 $-1 #
edge $-1 $456 -6.119339505807922542e-17 $432 0.2449786631268657811 $431 $457 forward 7 unknown #
coedge $-1 $454 $454 $424 $445 reversed $439 $-1 #
edge $-1 $456 0 $446 3.141592653589793116 $444 $458 forward 7 unknown #
vertex $-1 $455 $459 #
ellipse-curve $-1 -7.62481171093113641 -1.867478573581126758e-15 0.3571875000000147571 -2.449212707644748107e-16 1 7.297709671147765814e-30 -2.819966482547897455e-15 1.784551279029657588e-29 -2.54000000000001469 1 I I #
coedge $-1 $429 $427 $441 $453 reversed $421 $-1 #
straight-curve $-1 -8.731250000000009948 -2.138468845362326208e-15 -1.984374999999997113 24.64161950369142673 6.03525676253852202e-15 -6.160404875922856682 I I #
straight-curve $-1 8.731250000000009948 1.069234422681163104e-15 -1.984374999999997113 -24.64161950369142673 -3.01762838126926101e-15 -6.160404875922856682 I I #
point $-1 8.240852198523432648 1.009179996322291374e-15 -2.10697445036914166 #
point $-1 -8.240852198523432648 -2.018359992644582748e-15 -2.10697445036914166 #
edge $-1 $432 -1.16159887705554373e-31 $433 3.141592653589793116 $448 $460 forward 7 unknown #
coedge $-1 $444 $444 $442 $455 forward $439 $-1 #
edge $-1 $456 0 $446 3.141592653589793116 $454 $461 forward 7 unknown #
vertex $-1 $455 $462 #
ellipse-curve $-1 7.62481171093113641 9.337392867905633788e-16 0.3571875000000147571 1.224606353822374053e-16 -1 3.648854835573882907e-30 2.819966482547897455e-15 -8.922756395148287938e-30 -2.54000000000001469 1 I I #
ellipse-curve $-1 0 -7.049916206369743637e-16 -2.182812499999999822 0 0 1 7.624811710931139075 1.638730907427529065e-15 0 1 I I #
point $-1 -7.624811710931139075 -1.867478573581109008e-15 -2.182812499999999822 #
ellipse-curve $-1 0 0 -2.106974450369142993 0 0 -1 8.24085219852342199 1.009179996322289007e-15 0 1 I I #
ellipse-curve $-1 0 -3.524958103184871819e-16 -2.182812499999999822 0 0 -1 7.624811710931139075 1.286235097109041587e-15 0 1 I I #
point $-1 7.624811710931139075 9.337392867905545041e-16 -2.182812499999999822 #
End-of-ACIS-data 