600 0 1 0           
99 GICL ACIS Healer - Source: /gicl/data5/repository/PTC/V18/reel18/areel/ballbear_cover.prt.sat - 6 0 18 ACIS 6.0.3 Solaris 24 Sat Apr 13 21:07:08 2002 
1 9.999999999999999547e-07 1.000000000000000036e-10 
body $-1 $1 $-1 $-1 #
lump $-1 $-1 $2 $0 #
shell $-1 $-1 $-1 $3 $-1 $1 #
face $-1 $4 $5 $2 $-1 $6 reversed single #
face $-1 $7 $8 $2 $-1 $9 reversed single #
loop $-1 $10 $11 $3 #
plane-surface $-1 0 0 0 0 1 0 25.39999999999999858 0 0 forward_v I I I I #
face $-1 $12 $13 $2 $-1 $14 reversed single #
loop $-1 $-1 $15 $4 #
cone-surface $-1 0 1.523999999999999799 0 0 -1 0 -7.9375 0 0 1 I I 0 1 7.9375 forward I I I I #
loop $-1 $16 $17 $3 #
coedge $-1 $18 $18 $15 $19 reversed $5 $-1 #
face $-1 $20 $21 $2 $-1 $22 forward single #
loop $-1 $-1 $23 $7 #
cone-surface $-1 0 1.523999999999999799 0 0 1 0 7.9375 0 0 1 I I 0 1 7.9375 forward I I I I #
coedge $-1 $24 $25 $11 $19 forward $8 $-1 #
loop $-1 $26 $27 $3 #
coedge $-1 $28 $28 $29 $30 reversed $10 $-1 #
coedge $-1 $11 $11 $31 $32 forward $5 $-1 #
edge $-1 $33 -1.224606353822377012e-16 $34 3.141592653589793116 $11 $35 forward 7 unknown #
face $-1 $36 $37 $2 $-1 $38 reversed single #
loop $-1 $39 $40 $12 #
plane-surface $-1 0 1.523999999999999799 0 0 1 0 25.39999999999999858 0 0 forward_v I I I I #
coedge $-1 $41 $42 $43 $44 reversed $13 $-1 #
coedge $-1 $45 $15 $41 $46 reversed $8 $-1 #
coedge $-1 $15 $45 $42 $47 forward $8 $-1 #
loop $-1 $-1 $48 $3 #
coedge $-1 $49 $49 $50 $51 forward $16 $-1 #
coedge $-1 $17 $17 $52 $53 reversed $10 $-1 #
coedge $-1 $54 $55 $17 $30 forward $37 $-1 #
edge $-1 $56 1.956378957706024447e-32 $57 3.141592653589793116 $17 $58 forward 7 unknown #
coedge $-1 $42 $41 $18 $32 reversed $13 $-1 #
edge $-1 $33 3.130206332329639115e-33 $34 3.141592653589793116 $18 $59 forward 7 unknown #
vertex $-1 $32 $60 #
vertex $-1 $32 $61 #
ellipse-curve $-1 -3.524958103184871819e-16 0 -7.049916206369743637e-16 0 -1 0 -1.335198363547687678e-16 0 7.9375 1 I I #
face $-1 $62 $63 $2 $-1 $64 reversed single #
loop $-1 $-1 $54 $20 #
cone-surface $-1 -14.28749999999999964 1.523999999999999799 0 0 -1 0 -1.587499999999999911 0 0 1 I I 0 1 1.587499999999999911 forward I I I I #
loop $-1 $65 $66 $12 #
coedge $-1 $67 $67 $68 $69 forward $21 $-1 #
coedge $-1 $31 $23 $24 $46 forward $13 $-1 #
coedge $-1 $23 $31 $25 $47 reversed $13 $-1 #
coedge $-1 $70 $70 $23 $44 forward $65 $-1 #
edge $-1 $71 3.130206332329639115e-33 $72 3.141592653589793116 $43 $73 forward 7 unknown #
coedge $-1 $25 $24 $70 $74 forward $8 $-1 #
edge $-1 $71 1.6140896793457097e-32 $34 0.05999999999999999778 $41 $75 forward 7 unknown #
edge $-1 $72 2.440854039424051822e-32 $33 0.05999999999999999778 $42 $76 forward 7 unknown #
coedge $-1 $77 $78 $79 $80 forward $26 $-1 #
coedge $-1 $27 $27 $81 $82 forward $16 $-1 #
coedge $-1 $83 $84 $27 $51 reversed $85 $-1 #
edge $-1 $86 1.956378957706024447e-32 $87 3.141592653589793116 $27 $88 forward 7 unknown #
coedge $-1 $89 $90 $28 $53 forward $63 $-1 #
edge $-1 $57 0 $56 3.141592653589793116 $28 $91 forward 7 unknown #
coedge $-1 $68 $29 $90 $92 reversed $37 $-1 #
coedge $-1 $29 $68 $89 $93 forward $37 $-1 #
vertex $-1 $53 $94 #
vertex $-1 $53 $95 #
ellipse-curve $-1 -14.28749999999999964 0 1.762479051592435909e-16 0 -1 0 1.587499999999999911 0 -1.762479051592435909e-16 1 I I #
ellipse-curve $-1 3.524958103184871819e-16 0 -7.049916206369743637e-16 0 1 0 1.335198363547687678e-16 0 7.9375 1 I I #
point $-1 4.860156466732559744e-16 0 7.9375 #
point $-1 4.860156466732559744e-16 0 -7.9375 #
face $-1 $96 $85 $2 $-1 $97 reversed single #
loop $-1 $-1 $89 $36 #
cone-surface $-1 -14.28749999999999964 1.523999999999999799 0 0 -1 0 -1.587499999999999911 0 0 1 I I 0 1 1.587499999999999911 forward I I I I #
loop $-1 $98 $70 $12 #
coedge $-1 $99 $99 $100 $101 reversed $39 $-1 #
coedge $-1 $40 $40 $102 $103 forward $21 $-1 #
coedge $-1 $55 $54 $40 $69 reversed $37 $-1 #
edge $-1 $104 0 $105 3.141592653589793116 $40 $106 forward 7 unknown #
coedge $-1 $43 $43 $45 $74 reversed $65 $-1 #
vertex $-1 $44 $107 #
vertex $-1 $44 $108 #
ellipse-curve $-1 3.524958103184871819e-16 1.523999999999999799 7.049916206369743637e-16 0 -1 0 1.335198363547687678e-16 0 -7.9375 1 I I #
edge $-1 $71 -1.224606353822377012e-16 $72 3.141592653589793116 $70 $109 forward 7 unknown #
straight-curve $-1 1.276463404919180034e-15 1.523999999999999799 -7.9375 -1.317412930409873379e-14 -25.39999999999999858 0 I I #
straight-curve $-1 1.458046940019767923e-15 1.523999999999999799 7.9375 -1.620052155577519915e-14 -25.39999999999999858 0 I I #
coedge $-1 $110 $48 $111 $112 forward $26 $-1 #
coedge $-1 $48 $113 $114 $115 forward $26 $-1 #
coedge $-1 $116 $117 $48 $80 reversed $118 $-1 #
edge $-1 $119 6.899552519673544268e-17 $120 0.2410703986379477692 $48 $121 forward 7 unknown #
coedge $-1 $122 $123 $49 $82 reversed $124 $-1 #
edge $-1 $87 0 $86 3.141592653589793116 $49 $125 forward 7 unknown #
coedge $-1 $100 $50 $123 $126 reversed $85 $-1 #
coedge $-1 $50 $100 $122 $127 forward $85 $-1 #
loop $-1 $-1 $83 $62 #
vertex $-1 $82 $128 #
vertex $-1 $82 $129 #
ellipse-curve $-1 14.28749999999999964 0 1.762479051592435909e-16 0 1 0 -1.587499999999999911 0 -1.762479051592435909e-16 1 I I #
coedge $-1 $102 $52 $55 $93 reversed $63 $-1 #
coedge $-1 $52 $102 $54 $92 forward $63 $-1 #
ellipse-curve $-1 -14.28749999999999964 0 0 0 -1 0 -1.587499999999999911 0 0 1 I I #
edge $-1 $105 0 $57 0.05999999999999999778 $90 $130 forward 7 unknown #
edge $-1 $104 0 $56 0.05999999999999999778 $89 $131 forward 7 unknown #
point $-1 -12.69999999999999929 0 0 #
point $-1 -15.875 0 0 #
face $-1 $132 $124 $2 $-1 $133 reversed single #
cone-surface $-1 14.28749999999999964 1.523999999999999799 0 0 1 0 1.587499999999999911 0 0 1 I I 0 1 1.587499999999999911 forward I I I I #
loop $-1 $-1 $134 $12 #
coedge $-1 $66 $66 $135 $136 reversed $39 $-1 #
coedge $-1 $84 $83 $66 $101 forward $85 $-1 #
edge $-1 $137 0 $138 3.141592653589793116 $66 $139 forward 7 unknown #
coedge $-1 $90 $89 $67 $103 reversed $63 $-1 #
edge $-1 $105 0 $104 3.141592653589793116 $67 $140 forward 7 unknown #
vertex $-1 $103 $141 #
vertex $-1 $103 $142 #
ellipse-curve $-1 -14.28749999999999964 1.523999999999999799 0 0 -1 0 1.587499999999999911 0 0 1 I I #
point $-1 4.860156466732559744e-16 1.523999999999999799 -7.9375 #
point $-1 4.860156466732559744e-16 1.523999999999999799 7.9375 #
ellipse-curve $-1 -3.524958103184871819e-16 1.523999999999999799 7.049916206369743637e-16 0 1 0 -1.335198363547687678e-16 0 -7.9375 1 I I #
coedge $-1 $143 $77 $144 $145 forward $26 $-1 #
coedge $-1 $146 $147 $77 $112 reversed $148 $-1 #
edge $-1 $120 4.804037154213790831e-15 $149 0.3249891894812046433 $77 $150 forward 7 unknown #
coedge $-1 $78 $151 $152 $153 forward $26 $-1 #
coedge $-1 $154 $155 $78 $115 reversed $156 $-1 #
edge $-1 $157 -1.434040941556101407e-16 $119 0.3249891894811700599 $78 $158 forward 7 unknown #
coedge $-1 $159 $79 $155 $160 forward $118 $-1 #
coedge $-1 $79 $159 $146 $161 forward $118 $-1 #
loop $-1 $-1 $159 $162 #
vertex $-1 $115 $163 #
vertex $-1 $112 $164 #
straight-curve $-1 -4.754080744146509829 0 -9.967774412219966962 25.0586774282101743 0 -4.150022355230114535 I I #
coedge $-1 $135 $81 $84 $127 reversed $124 $-1 #
coedge $-1 $81 $135 $83 $126 forward $124 $-1 #
loop $-1 $-1 $122 $96 #
ellipse-curve $-1 14.28749999999999964 0 0 0 1 0 1.587499999999999911 0 0 1 I I #
edge $-1 $137 0 $86 0.05999999999999999778 $123 $165 forward 7 unknown #
edge $-1 $138 0 $87 0.05999999999999999778 $122 $166 forward 7 unknown #
point $-1 12.69999999999999929 0 0 #
point $-1 15.875 0 0 #
straight-curve $-1 -15.875 1.523999999999999799 0 0 -25.39999999999999858 0 I I #
straight-curve $-1 -12.69999999999999929 1.523999999999999799 -1.944062586693023848e-16 0 -25.39999999999999858 0 I I #
face $-1 $167 $168 $2 $-1 $169 forward single #
cone-surface $-1 14.28749999999999964 1.523999999999999799 0 0 1 0 1.587499999999999911 0 0 1 I I 0 1 1.587499999999999911 forward I I I I #
coedge $-1 $170 $171 $172 $173 forward $98 $-1 #
coedge $-1 $123 $122 $99 $136 forward $124 $-1 #
edge $-1 $138 0 $137 3.141592653589793116 $99 $174 forward 7 unknown #
vertex $-1 $136 $175 #
vertex $-1 $136 $176 #
ellipse-curve $-1 14.28749999999999964 1.523999999999999799 0 0 1 0 -1.587499999999999911 0 0 1 I I #
ellipse-curve $-1 -14.28749999999999964 1.523999999999999799 0 0 -1 0 -1.587499999999999911 0 0 1 I I #
point $-1 -12.69999999999999929 1.523999999999999799 0 #
point $-1 -15.875 1.523999999999999799 0 #
coedge $-1 $177 $110 $178 $179 forward $26 $-1 #
coedge $-1 $180 $181 $110 $145 reversed $182 $-1 #
edge $-1 $149 0 $183 0.8892297190317108857 $110 $184 forward 7 unknown #
coedge $-1 $185 $111 $117 $161 reversed $148 $-1 #
coedge $-1 $111 $185 $180 $186 forward $148 $-1 #
loop $-1 $-1 $185 $187 #
vertex $-1 $145 $188 #
ellipse-curve $-1 1.535825954125666026 0 -9.464701310059243866 0 -1 0 -0.2490013413138127685 0 -1.50352064569244126 1 I I #
coedge $-1 $113 $189 $190 $191 reversed $26 $-1 #
coedge $-1 $192 $193 $113 $153 reversed $168 $-1 #
edge $-1 $194 0 $157 0.5609846761723084052 $113 $195 forward 7 unknown #
coedge $-1 $196 $114 $193 $197 forward $156 $-1 #
coedge $-1 $114 $196 $116 $160 reversed $156 $-1 #
loop $-1 $-1 $114 $198 #
vertex $-1 $115 $199 #
ellipse-curve $-1 -4.50507940283270969 0 -8.464253766527386702 0 -1 0 -0.7160391103839963689 0 -1.345311856931470595 1 I I #
coedge $-1 $117 $116 $200 $201 forward $118 $-1 #
edge $-1 $119 -6.893190107846979246e-18 $202 0.06000000000000000472 $116 $203 forward 7 unknown #
edge $-1 $204 8.741913579725641929e-18 $120 0.0599999999999999839 $117 $205 forward 7 unknown #
face $-1 $198 $118 $2 $-1 $206 reversed single #
point $-1 -4.754080744146508053 -1.750870287393132705e-16 -9.967774412219966962 #
point $-1 1.286824612811860336 1.532011501468991086e-16 -10.96822195575168735 #
straight-curve $-1 12.69999999999999929 1.523999999999999799 -1.944062586693023848e-16 0 -25.39999999999999858 0 I I #
straight-curve $-1 15.875 1.523999999999999799 0 0 -25.39999999999999858 0 I I #
face $-1 $207 $208 $2 $-1 $209 reversed single #
loop $-1 $-1 $152 $132 #
cone-surface $-1 0 0 0 0 1 0 11.11249999999999893 0 0 1 I I 0 1 11.11249999999999893 forward I I I I #
coedge $-1 $210 $134 $211 $212 forward $98 $-1 #
coedge $-1 $134 $200 $196 $213 forward $98 $-1 #
coedge $-1 $193 $192 $134 $173 reversed $168 $-1 #
edge $-1 $214 5.753957580356130037e-17 $215 0.5609846761723080721 $134 $216 forward 7 unknown #
ellipse-curve $-1 14.28749999999999964 1.523999999999999799 0 0 1 0 1.587499999999999911 0 0 1 I I #
point $-1 12.69999999999999929 1.523999999999999799 0 #
point $-1 15.875 1.523999999999999799 0 #
coedge $-1 $217 $143 $218 $219 reversed $26 $-1 #
coedge $-1 $220 $221 $143 $179 reversed $222 $-1 #
edge $-1 $183 1.912054588741390313e-16 $223 1.050096387083174321 $143 $224 forward 7 unknown #
coedge $-1 $225 $144 $147 $186 reversed $182 $-1 #
coedge $-1 $144 $225 $220 $226 reversed $182 $-1 #
loop $-1 $-1 $225 $227 #
vertex $-1 $179 $228 #
ellipse-curve $-1 -8.10740363732520469e-15 0 1.057487430955461605e-14 0 -1 0 1.779930741536378092 0 -10.9690246970883436 1 I I #
coedge $-1 $147 $146 $229 $230 reversed $148 $-1 #
edge $-1 $231 8.741913579725641929e-18 $149 0.0599999999999999839 $180 $232 forward 7 unknown #
face $-1 $162 $148 $2 $-1 $233 forward single #
point $-1 1.779930741536369654 1.532011501468991086e-16 -10.96902469708833117 #
coedge $-1 $151 $234 $235 $236 forward $26 $-1 #
coedge $-1 $237 $238 $151 $191 forward $208 $-1 #
edge $-1 $194 -6.692191060594869548e-16 $239 1.050096387083174321 $151 $240 forward 7 unknown #
coedge $-1 $172 $152 $238 $241 forward $168 $-1 #
coedge $-1 $152 $172 $154 $197 reversed $168 $-1 #
vertex $-1 $153 $242 #
ellipse-curve $-1 -1.057487430955461447e-15 0 -3.524958103184872016e-15 0 -1 0 -9.639773498712878919 0 -5.528329145728640981 1 I I #
coedge $-1 $155 $154 $171 $213 reversed $156 $-1 #
edge $-1 $157 -6.893190107846979246e-18 $214 0.06000000000000001166 $193 $243 forward 7 unknown #
face $-1 $-1 $156 $2 $-1 $244 forward single #
point $-1 -5.22111851321670617 -1.750870287393132705e-16 -9.809565623458857075 #
coedge $-1 $171 $229 $159 $201 reversed $98 $-1 #
edge $-1 $202 -9.887903523028638331e-16 $204 0.2410703986379467145 $200 $245 forward 7 unknown #
vertex $-1 $213 $246 #
straight-curve $-1 -4.754080744146508053 0 -9.967774412219966962 0 25.39999999999999858 0 I I #
vertex $-1 $201 $247 #
straight-curve $-1 1.286824612811860558 1.523999999999999799 -10.96822195575168557 0 -25.39999999999999858 0 I I #
plane-surface $-1 -4.991256131334647073 1.523999999999999799 -9.928495277805911456 0.163386706898823425 0 0.9865621034728416783 25.0586774282101743 0 -4.150022355230113646 forward_v I I I I #
face $-1 $248 $249 $2 $-1 $250 reversed single #
loop $-1 $-1 $190 $167 #
cone-surface $-1 -10.96179957853636289 0 -6.286499999999999311 0 -1 0 1.322026079823481526 0 0.7581708542713557764 1 I I 0 1 1.523999999999999799 forward I I I I #
coedge $-1 $251 $170 $252 $253 reversed $98 $-1 #
coedge $-1 $238 $237 $170 $212 reversed $208 $-1 #
edge $-1 $215 -6.692191060594869548e-16 $254 1.050096387083174321 $170 $255 forward 7 unknown #
edge $-1 $202 1.711288856923662379e-14 $214 0.3249891894811919313 $171 $256 forward 7 unknown #
vertex $-1 $213 $257 #
vertex $-1 $212 $258 #
ellipse-curve $-1 4.229949723821845788e-15 1.523999999999999799 2.819966482547897455e-15 0 1 0 -5.221118513216709722 0 -9.809565623458860628 1 I I #
coedge $-1 $259 $177 $260 $261 reversed $26 $-1 #
coedge $-1 $262 $263 $177 $219 forward $264 $-1 #
edge $-1 $265 0 $223 0.1309330874591982385 $177 $266 forward 7 unknown #
coedge $-1 $267 $178 $181 $226 forward $222 $-1 #
coedge $-1 $178 $267 $262 $268 reversed $222 $-1 #
loop $-1 $-1 $267 $269 #
vertex $-1 $219 $270 #
ellipse-curve $-1 10.96179957853636289 0 -6.286500000000001087 0 1 0 -1.322026079823481082 0 0.7581708542713583299 1 I I #
coedge $-1 $181 $180 $271 $272 reversed $182 $-1 #
edge $-1 $183 0 $273 0.05999999999999999778 $181 $274 forward 7 unknown #
face $-1 $187 $182 $2 $-1 $275 forward single #
point $-1 9.639773498712882471 0 -5.528329145728642757 #
coedge $-1 $200 $271 $185 $230 forward $98 $-1 #
edge $-1 $231 -3.680705083327744161e-15 $204 0.324989189481185381 $229 $276 forward 7 unknown #
vertex $-1 $230 $277 #
straight-curve $-1 1.779930741536370098 1.523999999999999799 -10.96902469708833294 0 -25.39999999999999858 0 I I #
cone-surface $-1 1.535825954125673354 1.219200000000000506 -9.46470131005907156 1.632271243235117398e-14 -1 -1.082481513742406734e-15 -1.523997980589731904 -2.494305219917707145e-14 0.002480959178415120814 1 I I 0 1 1.524000000000008459 forward I I I I #
coedge $-1 $189 $278 $279 $280 forward $26 $-1 #
coedge $-1 $281 $282 $189 $236 reversed $249 $-1 #
edge $-1 $283 0 $239 0.1309330874591982941 $189 $284 forward 7 unknown #
coedge $-1 $211 $190 $282 $285 forward $208 $-1 #
coedge $-1 $190 $211 $192 $241 reversed $208 $-1 #
vertex $-1 $191 $286 #
ellipse-curve $-1 -10.96179957853636289 0 -6.286500000000000199 0 -1 0 1.322026079823481082 0 0.7581708542713562204 1 I I #
edge $-1 $194 0 $215 0.05999999999999999778 $192 $287 forward 7 unknown #
point $-1 -9.639773498712880695 0 -5.528329145728644534 #
straight-curve $-1 -5.221118513216705281 0 -9.809565623458858852 0 25.39999999999999858 0 I I #
cone-surface $-1 -4.505079402832638635 0.3047999999999998488 -8.46425376652707584 -5.626422235625194175e-16 1 1.838212837252265261e-16 1.44343088730885305 8.793304458930562677e-16 -0.4889614233900821949 1 I I 0 1 1.524000000000288013 forward I I I I #
straight-curve $-1 -4.754080744146483184 1.523999999999999799 -9.967774412219970515 25.0586774282101743 0 -4.150022355230114535 I I #
point $-1 -4.754080744146508053 1.524000000000000021 -9.967774412219966962 #
point $-1 1.286824612811860336 1.523999999999999577 -10.96822195575168735 #
face $-1 $288 $289 $2 $-1 $290 forward single #
loop $-1 $-1 $281 $207 #
plane-surface $-1 -14.28749999999999964 0 -4.762499999999999289 0 0 1 25.39999999999999858 0 0 forward_v I I I I #
coedge $-1 $291 $210 $292 $293 reversed $98 $-1 #
coedge $-1 $282 $281 $210 $253 forward $249 $-1 #
edge $-1 $294 0 $254 0.1309330874591982941 $210 $295 forward 7 unknown #
vertex $-1 $253 $296 #
ellipse-curve $-1 -10.96179957853636289 1.523999999999999799 -6.286500000000000199 0 -1 0 1.322026079823481082 0 0.7581708542713562204 1 I I #
ellipse-curve $-1 -4.505079402832713242 1.523999999999999799 -8.464253766527408018 0 1 0 -0.2490013413137694143 0 -1.503520645692565161 1 I I #
point $-1 -5.22111851321670617 1.524000000000000243 -9.809565623458857075 #
point $-1 -9.639773498712880695 1.523999999999999799 -5.528329145728644534 #
coedge $-1 $297 $217 $298 $299 reversed $26 $-1 #
coedge $-1 $300 $301 $217 $261 forward $302 $-1 #
edge $-1 $303 0 $265 3.141592653589793116 $217 $304 forward 7 unknown #
coedge $-1 $305 $218 $221 $268 forward $264 $-1 #
coedge $-1 $218 $305 $300 $306 reversed $264 $-1 #
loop $-1 $-1 $262 $307 #
vertex $-1 $261 $308 #
straight-curve $-1 14.28749999999999964 0 -4.762499999999999289 -25.39999999999999858 0 0 I I #
coedge $-1 $221 $220 $309 $310 forward $222 $-1 #
edge $-1 $223 0 $311 0.05999999999999999778 $262 $312 forward 7 unknown #
face $-1 $227 $222 $2 $-1 $313 reversed single #
point $-1 10.96179957853636466 0 -4.762499999999999289 #
coedge $-1 $229 $309 $225 $272 forward $98 $-1 #
edge $-1 $273 0 $231 0.8892297190317128841 $271 $314 forward 7 unknown #
vertex $-1 $272 $315 #
straight-curve $-1 9.639773498712882471 0 -5.528329145728642757 0 25.39999999999999858 0 I I #
cone-surface $-1 0 0 0 0 1 0 11.11249999999999893 0 0 1 I I 0 1 11.11249999999999893 forward I I I I #
ellipse-curve $-1 1.53582595412566647 1.523999999999999799 -9.464701310059194128 0 1 0 0.2441047874106974935 0 -1.504323387029138592 1 I I #
point $-1 1.779930741536369654 1.523999999999999577 -10.96902469708833294 #
coedge $-1 $234 $316 $317 $318 forward $26 $-1 #
coedge $-1 $319 $320 $234 $280 reversed $289 $-1 #
edge $-1 $321 0 $283 3.141592653589793116 $234 $322 forward 7 unknown #
coedge $-1 $252 $235 $320 $323 forward $249 $-1 #
coedge $-1 $235 $252 $237 $285 reversed $249 $-1 #
vertex $-1 $236 $324 #
straight-curve $-1 -14.28749999999999964 0 -4.762499999999999289 25.39999999999999858 0 0 I I #
edge $-1 $239 0 $254 0.05999999999999999778 $282 $325 forward 7 unknown #
point $-1 -10.96179957853636289 0 -4.762499999999999289 #
straight-curve $-1 -9.639773498712880695 0 -5.528329145728644534 -2.349972068789914572e-14 25.39999999999999858 1.174986034394957286e-14 I I #
face $-1 $326 $327 $2 $-1 $328 reversed single #
loop $-1 $-1 $319 $248 #
cone-surface $-1 -14.28749999999999964 0 0 0 -1 0 -4.762499999999999289 0 0 1 I I 0 1 4.762499999999999289 forward I I I I #
coedge $-1 $329 $251 $330 $331 reversed $98 $-1 #
coedge $-1 $320 $319 $251 $293 forward $289 $-1 #
edge $-1 $332 0 $294 3.141592653589793116 $251 $333 forward 7 unknown #
vertex $-1 $293 $334 #
straight-curve $-1 -14.28749999999999964 1.523999999999999799 -4.762499999999999289 25.39999999999999858 0 0 I I #
point $-1 -10.96179957853636289 1.523999999999999799 -4.762499999999999289 #
coedge $-1 $335 $259 $336 $337 forward $26 $-1 #
coedge $-1 $338 $339 $259 $299 forward $340 $-1 #
edge $-1 $341 0 $303 0.1309330874591982385 $259 $342 forward 7 unknown #
coedge $-1 $343 $260 $263 $306 forward $302 $-1 #
coedge $-1 $260 $343 $338 $344 reversed $302 $-1 #
loop $-1 $-1 $300 $345 #
vertex $-1 $299 $346 #
ellipse-curve $-1 14.28749999999999964 0 0 0 1 0 0 0 4.762499999999999289 1 I I #
coedge $-1 $263 $262 $347 $348 reversed $264 $-1 #
edge $-1 $265 0 $349 0.05999999999999999778 $300 $350 forward 7 unknown #
face $-1 $269 $264 $2 $-1 $351 forward single #
point $-1 14.28749999999999964 0 -4.762499999999999289 #
coedge $-1 $271 $347 $267 $310 reversed $98 $-1 #
edge $-1 $273 1.912054588741390313e-16 $311 1.050096387083174321 $309 $352 forward 7 unknown #
vertex $-1 $310 $353 #
straight-curve $-1 10.96179957853636289 0 -4.762499999999999289 0 25.39999999999999858 0 I I #
cone-surface $-1 10.96179957853636289 0 -6.286499999999999311 0 1 0 -1.32202607982348086 0 0.7581708542713567756 1 I I 0 1 1.523999999999999799 forward I I I I #
ellipse-curve $-1 7.402412016688230918e-15 1.523999999999999799 -1.127986593019158982e-14 0 1 0 9.639773498712875366 0 -5.528329145728631211 1 I I #
point $-1 9.639773498712882471 1.523999999999999799 -5.528329145728642757 #
coedge $-1 $278 $335 $354 $355 reversed $26 $-1 #
coedge $-1 $356 $357 $278 $318 reversed $327 $-1 #
edge $-1 $358 0 $321 0.1309330874591982941 $278 $359 forward 7 unknown #
coedge $-1 $292 $279 $357 $360 forward $289 $-1 #
coedge $-1 $279 $292 $281 $323 reversed $289 $-1 #
vertex $-1 $280 $361 #
ellipse-curve $-1 -14.28749999999999964 0 0 0 -1 0 0 0 4.762499999999999289 1 I I #
edge $-1 $283 0 $294 0.05999999999999999778 $320 $362 forward 7 unknown #
point $-1 -14.28749999999999964 0 -4.762499999999999289 #
straight-curve $-1 -10.96179957853636111 0 -4.762499999999999289 0 25.39999999999999858 0 I I #
face $-1 $363 $364 $2 $-1 $365 reversed single #
loop $-1 $-1 $356 $288 #
plane-surface $-1 -10.04023157103460484 0 4.762499999999999289 0 0 -1 -25.39999999999999858 0 0 forward_v I I I I #
coedge $-1 $366 $291 $367 $368 forward $98 $-1 #
coedge $-1 $357 $356 $291 $331 forward $327 $-1 #
edge $-1 $369 0 $332 0.1309330874591982941 $291 $370 forward 7 unknown #
vertex $-1 $331 $371 #
ellipse-curve $-1 -14.28749999999999964 1.523999999999999799 0 0 -1 0 0 0 4.762499999999999289 1 I I #
point $-1 -14.28749999999999964 1.523999999999999799 -4.762499999999999289 #
coedge $-1 $316 $297 $372 $373 forward $26 $-1 #
coedge $-1 $374 $375 $297 $337 reversed $376 $-1 #
edge $-1 $341 -9.251858538542963939e-16 $377 1.050096387083171656 $297 $378 forward 7 unknown #
coedge $-1 $379 $298 $301 $344 forward $340 $-1 #
coedge $-1 $298 $379 $374 $380 reversed $340 $-1 #
loop $-1 $-1 $338 $381 #
vertex $-1 $337 $382 #
straight-curve $-1 10.96179957853636466 0 4.762499999999999289 25.39999999999999858 0 0 I I #
coedge $-1 $301 $300 $383 $384 reversed $302 $-1 #
edge $-1 $303 0 $385 0.05999999999999999778 $338 $386 forward 7 unknown #
face $-1 $307 $302 $2 $-1 $387 forward single #
point $-1 14.28749999999999964 0 4.762499999999999289 #
coedge $-1 $309 $383 $305 $348 forward $98 $-1 #
edge $-1 $349 0 $311 0.1309330874591982385 $347 $388 forward 7 unknown #
vertex $-1 $348 $389 #
straight-curve $-1 14.28749999999999964 0 -4.762499999999999289 0 25.39999999999999858 0 I I #
plane-surface $-1 14.28749999999999964 0 -4.762499999999999289 0 0 -1 -25.39999999999999858 0 0 forward_v I I I I #
ellipse-curve $-1 10.96179957853636289 1.523999999999999799 -6.286500000000001087 0 1 0 -1.322026079823481082 0 0.7581708542713583299 1 I I #
point $-1 10.96179957853636466 1.523999999999999799 -4.762499999999999289 #
coedge $-1 $390 $391 $316 $355 forward $364 $-1 #
edge $-1 $358 2.404026234424546307e-16 $392 1.050096387083172766 $316 $393 forward 7 unknown #
coedge $-1 $330 $317 $391 $394 forward $327 $-1 #
coedge $-1 $317 $330 $319 $360 reversed $327 $-1 #
vertex $-1 $318 $395 #
straight-curve $-1 -10.96179957853636289 0 4.762499999999999289 -25.39999999999999858 0 0 I I #
edge $-1 $321 0 $332 0.05999999999999999778 $357 $396 forward 7 unknown #
point $-1 -14.28749999999999964 0 4.762499999999999289 #
straight-curve $-1 -14.28749999999999964 0 -4.762499999999999289 0 25.39999999999999858 0 I I #
face $-1 $397 $398 $2 $-1 $399 forward single #
loop $-1 $-1 $354 $326 #
cone-surface $-1 -10.96179957853636289 0 6.286499999999999311 0 -1 0 0 0 -1.523999999999999799 1 I I 0 1 1.523999999999999799 forward I I I I #
coedge $-1 $400 $329 $401 $402 forward $98 $-1 #
coedge $-1 $391 $390 $329 $368 reversed $364 $-1 #
edge $-1 $369 2.404026234424546307e-16 $403 1.050096387083172766 $329 $404 forward 7 unknown #
vertex $-1 $368 $405 #
straight-curve $-1 -10.96179957853636289 1.523999999999999799 4.762499999999999289 -25.39999999999999858 0 0 I I #
point $-1 -14.28749999999999964 1.523999999999999799 4.762499999999999289 #
coedge $-1 $406 $407 $335 $373 reversed $398 $-1 #
edge $-1 $377 0 $392 2.100192774166347753 $335 $408 forward 7 unknown #
coedge $-1 $409 $336 $339 $380 forward $376 $-1 #
coedge $-1 $336 $409 $406 $410 reversed $376 $-1 #
loop $-1 $-1 $409 $397 #
vertex $-1 $373 $411 #
ellipse-curve $-1 10.96179957853636466 0 6.286500000000001087 0 1 0 -1.409983241273948727e-15 0 -1.524000000000001354 1 I I #
coedge $-1 $339 $338 $412 $413 reversed $340 $-1 #
edge $-1 $341 0 $414 0.05999999999999999778 $339 $415 forward 7 unknown #
face $-1 $345 $340 $2 $-1 $416 forward single #
point $-1 10.96179957853636466 0 4.762499999999999289 #
coedge $-1 $347 $412 $343 $384 forward $98 $-1 #
edge $-1 $385 0 $349 3.141592653589793116 $383 $417 forward 7 unknown #
vertex $-1 $384 $418 #
straight-curve $-1 14.28749999999999964 0 4.762499999999999289 0 25.39999999999999858 0 I I #
cone-surface $-1 14.28749999999999964 0 0 0 1 0 4.762499999999999289 0 0 1 I I 0 1 4.762499999999999289 forward I I I I #
straight-curve $-1 14.28749999999999964 1.523999999999999799 -4.762499999999999289 -25.39999999999999858 0 0 I I #
point $-1 14.28749999999999964 1.523999999999999799 -4.762499999999999289 #
coedge $-1 $367 $354 $407 $419 forward $364 $-1 #
coedge $-1 $354 $367 $356 $394 reversed $364 $-1 #
vertex $-1 $355 $420 #
ellipse-curve $-1 -10.96179957853636466 0 6.286500000000001087 0 -1 0 1.409983241273948727e-15 0 -1.524000000000001354 1 I I #
edge $-1 $358 0 $369 0.05999999999999999778 $356 $421 forward 7 unknown #
point $-1 -10.96179957853636289 0 4.762499999999999289 #
straight-curve $-1 -14.28749999999999964 0 4.762499999999999289 0 25.39999999999999858 0 I I #
face $-1 $381 $376 $2 $-1 $422 reversed single #
loop $-1 $-1 $406 $363 #
cone-surface $-1 0 0 0 0 1 0 11.11249999999999893 0 0 1 I I 0 1 11.11249999999999893 forward I I I I #
coedge $-1 $412 $366 $409 $423 reversed $98 $-1 #
coedge $-1 $407 $406 $366 $402 reversed $398 $-1 #
edge $-1 $403 0 $424 2.100192774166348642 $366 $425 forward 7 unknown #
vertex $-1 $402 $426 #
ellipse-curve $-1 -10.96179957853636466 1.523999999999999799 6.286500000000001087 0 -1 0 1.409983241273948727e-15 0 -1.524000000000001354 1 I I #
point $-1 -10.96179957853636289 1.523999999999999799 4.762499999999999289 #
coedge $-1 $401 $372 $375 $410 forward $398 $-1 #
coedge $-1 $372 $401 $390 $419 reversed $398 $-1 #
ellipse-curve $-1 -1.057487430955461447e-15 0 -4.229949723821845788e-15 0 -1 0 9.639773498712884248 0 5.528329145728645422 1 I I #
coedge $-1 $375 $374 $400 $423 forward $376 $-1 #
edge $-1 $377 0 $424 0.05999999999999999778 $406 $427 forward 7 unknown #
point $-1 9.639773498712882471 0 5.528329145728640981 #
coedge $-1 $383 $400 $379 $413 forward $98 $-1 #
edge $-1 $414 0 $385 0.1309330874591982385 $412 $428 forward 7 unknown #
vertex $-1 $413 $429 #
straight-curve $-1 10.96179957853636466 0 4.762499999999999289 0 25.39999999999999858 0 I I #
plane-surface $-1 10.04023157103460484 0 4.762499999999999289 0 0 1 25.39999999999999858 0 0 forward_v I I I I #
ellipse-curve $-1 14.28749999999999964 1.523999999999999799 0 0 1 0 0 0 4.762499999999999289 1 I I #
point $-1 14.28749999999999964 1.523999999999999799 4.762499999999999289 #
edge $-1 $392 0 $403 0.05999999999999999778 $407 $430 forward 7 unknown #
point $-1 -9.639773498712882471 0 5.528329145728642757 #
straight-curve $-1 -10.96179957853636289 0 4.762499999999999289 0 25.39999999999999858 0 I I #
cone-surface $-1 10.96179957853636466 0 6.286499999999999311 0 1 0 0 0 -1.523999999999999799 1 I I 0 1 1.523999999999999799 forward I I I I #
edge $-1 $414 -9.251858538542963939e-16 $424 1.050096387083170546 $400 $431 forward 7 unknown #
vertex $-1 $423 $432 #
ellipse-curve $-1 -7.049916206369743637e-16 1.523999999999999799 -7.049916206369743637e-16 0 1 0 -9.639773498712882471 0 5.528329145728643645 1 I I #
point $-1 -9.639773498712882471 1.523999999999999799 5.528329145728642757 #
straight-curve $-1 9.639773498712882471 0 5.528329145728640981 2.349972068789914572e-14 25.39999999999999858 -2.349972068789914572e-14 I I #
straight-curve $-1 10.96179957853636466 1.523999999999999799 4.762499999999999289 25.39999999999999858 0 0 I I #
point $-1 10.96179957853636466 1.523999999999999799 4.762499999999999289 #
straight-curve $-1 -9.639773498712882471 0 5.528329145728642757 2.349972068789914572e-14 25.39999999999999858 2.349972068789914572e-14 I I #
ellipse-curve $-1 10.96179957853636466 1.523999999999999799 6.286500000000001087 0 1 0 -1.409983241273948727e-15 0 -1.524000000000001354 1 I I #
point $-1 9.639773498712884248 1.523999999999999799 5.528329145728640093 #
End-of-ACIS-data 