600 0 1 0           
100 GICL Pro/E ACIS Translator - Source: f:/data5/repository/PTC/V18/reel18/areel/ball_bearing.prt - 6 0 13 ACIS 6.0.3 NT 24 Thu Apr 04 13:29:54 2002 
1 9.9999999999999995e-007 1e-010 
body $-1 $1 $-1 $2 #
lump $-1 $-1 $3 $0 #
transform $-1 1 0 0 0 1 0 0 0 1 0 0 0 25.399999999999999 no_rotate no_reflect no_shear #
shell $-1 $-1 $-1 $4 $-1 $1 #
face $-1 $5 $6 $3 $-1 $7 forward single #
face $-1 $8 $9 $3 $-1 $10 forward single #
loop $-1 $11 $12 $4 #
plane-surface $-1 0 0 0.09375 0 0 1 -1 0 0 forward_v I I I I #
face $-1 $13 $14 $3 $-1 $15 forward single #
loop $-1 $-1 $16 $5 #
cone-surface $-1 0 0 -0.10312499999999999 0 0 1 -0.21875 0 0 1 I I 0 1 0.21875 forward I I I I #
loop $-1 $-1 $17 $4 #
coedge $-1 $18 $18 $16 $19 reversed $6 $-1 #
face $-1 $20 $21 $3 $-1 $22 forward single #
loop $-1 $-1 $23 $8 #
cone-surface $-1 0 0 -0.10312499999999999 0 0 1 -0.21875 0 0 1 I I 0 1 0.21875 forward I I I I #
coedge $-1 $24 $25 $12 $19 forward $9 $-1 #
coedge $-1 $26 $26 $27 $28 reversed $11 $-1 #
coedge $-1 $12 $12 $29 $30 forward $6 $-1 #
edge $-1 $31 0 $32 3.1415926535897931 $12 $33 forward 7 unknown #
face $-1 $34 $35 $3 $-1 $36 forward single #
loop $-1 $37 $38 $13 #
plane-surface $-1 0 0 0.0859375 0 0 1 -1 0 0 forward_v I I I I #
coedge $-1 $39 $40 $41 $42 forward $14 $-1 #
coedge $-1 $43 $16 $39 $44 forward $9 $-1 #
coedge $-1 $16 $43 $40 $45 reversed $9 $-1 #
coedge $-1 $17 $17 $46 $47 forward $11 $-1 #
coedge $-1 $48 $49 $17 $28 forward $50 $-1 #
edge $-1 $51 0 $52 3.1415926535897931 $17 $53 forward 7 unknown #
coedge $-1 $40 $39 $18 $30 reversed $14 $-1 #
edge $-1 $31 0 $32 3.1415926535897931 $18 $54 forward 7 unknown #
vertex $-1 $30 $55 #
vertex $-1 $30 $56 #
ellipse-curve $-1 -6.9388939039072284e-018 1.3877787807814457e-017 0.09375 0 0 -1 0.21875 1.2910476182050046e-017 0 1 I I #
face $-1 $57 $58 $3 $-1 $59 forward single #
loop $-1 $-1 $60 $20 #
torus-surface $-1 0 0 -0.014062499999999999 0 0 1 0.30018943743823384 0.099999999999999992 -1 0 0 forward_v I I I I #
loop $-1 $-1 $41 $13 #
coedge $-1 $61 $61 $62 $63 reversed $21 $-1 #
coedge $-1 $29 $23 $24 $44 reversed $14 $-1 #
coedge $-1 $23 $29 $25 $45 forward $14 $-1 #
coedge $-1 $64 $64 $23 $42 reversed $37 $-1 #
edge $-1 $65 1.2246063538223773e-016 $66 3.1415926535897931 $23 $67 forward 7 unknown #
coedge $-1 $25 $24 $64 $68 reversed $9 $-1 #
edge $-1 $32 0 $66 0.0078125 $39 $69 forward 7 unknown #
edge $-1 $31 0 $65 0.0078125 $40 $70 forward 7 unknown #
coedge $-1 $71 $72 $26 $47 reversed $73 $-1 #
edge $-1 $51 0 $52 3.1415926535897931 $26 $74 forward 7 unknown #
coedge $-1 $75 $27 $72 $76 forward $50 $-1 #
coedge $-1 $27 $75 $71 $77 reversed $50 $-1 #
loop $-1 $-1 $48 $78 #
vertex $-1 $47 $79 #
vertex $-1 $47 $80 #
ellipse-curve $-1 0 6.9388939039072284e-018 0.09375 7.0267280039566862e-017 6.1362304381475328e-033 1 0.19750000000000001 1.7247081584084724e-017 -1.3877787807814457e-017 1 I I #
ellipse-curve $-1 0 6.9388939039072284e-018 0.09375 0 0 1 0.21875 1.9849370085957274e-017 0 1 I I #
point $-1 0.21875 2.6788263989864503e-017 0.09375 #
point $-1 -0.21875 0 0.09375 #
face $-1 $81 $82 $3 $-1 $83 forward single #
loop $-1 $-1 $84 $34 #
torus-surface $-1 0 0 -0.014062499999999999 0 0 1 0.30018943743823384 0.099999999999999992 -1 0 0 forward_v I I I I #
coedge $-1 $62 $85 $86 $87 forward $35 $-1 #
coedge $-1 $38 $38 $88 $89 forward $21 $-1 #
coedge $-1 $90 $60 $38 $63 forward $35 $-1 #
edge $-1 $91 0 $92 3.1415926535897931 $38 $93 forward 7 unknown #
coedge $-1 $41 $41 $43 $68 forward $37 $-1 #
vertex $-1 $45 $94 #
vertex $-1 $44 $95 #
ellipse-curve $-1 0 0 0.0859375 0 0 1 0.21875 0 0 1 I I #
edge $-1 $65 -1.2246063538223773e-016 $66 3.1415926535897931 $64 $96 forward 7 unknown #
straight-curve $-1 -0.21875 -5.3576527979729005e-017 0.09375 0 0 -1 I I #
straight-curve $-1 0.21875 2.6788263989864503e-017 0.09375 0 0 -1 I I #
coedge $-1 $97 $46 $49 $77 forward $73 $-1 #
coedge $-1 $46 $97 $48 $76 reversed $73 $-1 #
loop $-1 $-1 $71 $98 #
ellipse-curve $-1 1.3877787807814457e-017 6.9388939039072284e-018 0.09375 -7.0267280039566862e-017 -6.1362304381475328e-033 -1 0.19750000000000001 1.7247081584084724e-017 -1.3877787807814457e-017 1 I I #
coedge $-1 $49 $48 $99 $100 reversed $50 $-1 #
edge $-1 $52 0 $101 1.5707963267948897 $72 $102 forward 7 unknown #
edge $-1 $51 0 $103 1.5707963267948981 $71 $104 forward 7 unknown #
face $-1 $98 $50 $3 $-1 $105 forward single #
point $-1 0.19750000000000001 2.4185975487991953e-017 0.093749999999999986 #
point $-1 -0.19750000000000001 -4.8371950975983905e-017 0.093749999999999986 #
face $-1 $106 $107 $3 $-1 $108 reversed single #
loop $-1 $-1 $109 $57 #
cone-surface $-1 0 0 -0.8359375 0 0 1 -3.9999999999999978 0 0 1 I I -0.97014250014533188 0.24253562503633311 3.9999999999999978 forward I I I I #
coedge $-1 $88 $110 $90 $111 forward $58 $-1 #
coedge $-1 $60 $90 $112 $113 reversed $35 $-1 #
coedge $-1 $110 $88 $60 $87 reversed $58 $-1 #
edge $-1 $114 -3.9031278209478814e-015 $91 0.24497866312686525 $86 $115 forward 7 unknown #
coedge $-1 $86 $84 $61 $89 reversed $58 $-1 #
edge $-1 $91 0 $92 3.1415926535897931 $61 $116 forward 7 unknown #
coedge $-1 $85 $62 $84 $111 reversed $35 $-1 #
vertex $-1 $89 $117 #
vertex $-1 $89 $118 #
ellipse-curve $-1 0 -1.3877787807814457e-017 0.0859375 0 0 -1 0.30018943743823384 5.0639177051537076e-017 0 1 I I #
point $-1 0.21875 2.6788263989864503e-017 0.0859375 #
point $-1 -0.21875 0 0.0859375 #
ellipse-curve $-1 0 0 0.0859375 0 0 -1 0.21875 0 0 1 I I #
coedge $-1 $72 $71 $119 $120 forward $73 $-1 #
face $-1 $121 $73 $3 $-1 $122 forward single #
coedge $-1 $123 $124 $75 $100 forward $125 $-1 #
edge $-1 $103 -2.1912802922805882e-032 $101 3.1415926535897931 $99 $126 forward 7 unknown #
vertex $-1 $127 $128 #
ellipse-curve $-1 -0.19750000000000001 0 0.083749999999999977 0 1 0 0 0 0.010000000000000009 1 I I #
vertex $-1 $129 $130 #
ellipse-curve $-1 0.19750000000000001 2.4185975487991959e-017 0.083749999999999977 1.2246063538223812e-016 -1 -6.1629758220391495e-031 0 -6.1629758220391547e-033 0.010000000000000009 1 I I #
torus-surface $-1 0 0 0.083749999999999991 0 0 1 0.19750000000000001 0.01 -1 0 0 forward_v I I I I #
face $-1 $131 $132 $3 $-1 $133 forward single #
loop $-1 $-1 $134 $81 #
cone-surface $-1 0 0 -0.10312499999999999 0 0 1 -0.34375 0 0 1 I I 0 1 0.34375 forward I I I I #
coedge $-1 $135 $136 $137 $138 forward $82 $-1 #
coedge $-1 $84 $86 $139 $140 forward $58 $-1 #
edge $-1 $141 -3.9031278209478814e-015 $92 0.24497866312686525 $84 $142 forward 7 unknown #
coedge $-1 $143 $144 $85 $113 forward $145 $-1 #
edge $-1 $114 -1.3173348015020293e-031 $141 3.1415926535897931 $112 $146 forward 7 unknown #
vertex $-1 $147 $148 #
ellipse-curve $-1 0.3001894374382339 3.6761389243723513e-017 -0.014062499999999152 1.2246063538223674e-016 -1 -8.8689073939033738e-030 0.024253562503633141 2.9701066744768469e-018 0.097014250014532344 1 I I #
ellipse-curve $-1 0 -2.7755575615628914e-017 0.0859375 0 0 1 0.30018943743823384 6.4516964859351539e-017 0 1 I I #
point $-1 0.30018943743823384 3.6761389243722619e-017 0.0859375 #
point $-1 -0.30018943743823384 0 0.0859375 #
coedge $-1 $149 $150 $97 $120 reversed $151 $-1 #
edge $-1 $103 2.1912802922805882e-032 $101 3.1415926535897931 $119 $152 forward 7 unknown #
face $-1 $153 $151 $3 $-1 $154 reversed single #
torus-surface $-1 0 0 0.083749999999999991 0 0 1 0.19750000000000001 0.01 -1 0 0 forward_v I I I I #
coedge $-1 $155 $99 $150 $127 reversed $125 $-1 #
coedge $-1 $99 $155 $149 $129 forward $125 $-1 #
loop $-1 $-1 $99 $156 #
ellipse-curve $-1 0 0 0.083750000000000047 0 0 1 0.1875 2.2961369134169577e-017 0 1 I I #
edge $-1 $157 8.3266726846886741e-017 $101 0.16750000000000015 $123 $158 forward 7 unknown #
point $-1 -0.1875 0 0.083750000000000047 #
edge $-1 $159 0 $103 0.16750000000000007 $124 $160 forward 7 unknown #
point $-1 0.1875 2.2961369134169574e-017 0.083749999999999963 #
face $-1 $161 $162 $3 $-1 $163 forward single #
loop $-1 $164 $165 $106 #
plane-surface $-1 0 0 0.09375 0 0 1 -1 0 0 forward_v I I I I #
coedge $-1 $166 $167 $168 $169 forward $107 $-1 #
coedge $-1 $139 $109 $143 $170 reversed $82 $-1 #
coedge $-1 $109 $139 $144 $147 forward $82 $-1 #
coedge $-1 $167 $166 $109 $138 reversed $107 $-1 #
edge $-1 $171 -1.0431218581434854e-031 $172 3.1415926535897931 $109 $173 forward 7 unknown #
coedge $-1 $136 $135 $110 $140 reversed $82 $-1 #
edge $-1 $114 1.3173348015020293e-031 $141 3.1415926535897931 $139 $174 forward 7 unknown #
vertex $-1 $140 $175 #
ellipse-curve $-1 -0.3001894374382339 -7.3522778487447026e-017 -0.014062499999999152 -2.4492127076447348e-016 1 -1.7737814787806748e-029 -0.024253562503633141 -5.9402133489536938e-018 0.097014250014532344 1 I I #
coedge $-1 $176 $112 $135 $170 forward $145 $-1 #
coedge $-1 $112 $176 $136 $147 reversed $145 $-1 #
loop $-1 $-1 $112 $177 #
ellipse-curve $-1 0 0 0.082951750014533199 0 0 -1 0.32444299994186704 3.973149591820036e-017 0 1 I I #
edge $-1 $114 0 $171 0.019901200138372183 $136 $178 forward 7 unknown #
point $-1 0.32444299994186743 3.9731495918200452e-017 0.082951750014533143 #
coedge $-1 $179 $119 $124 $129 reversed $151 $-1 #
coedge $-1 $119 $179 $123 $127 forward $151 $-1 #
loop $-1 $-1 $179 $121 #
ellipse-curve $-1 0 0 0.083750000000000047 0 0 -1 0.1875 2.2961369134169577e-017 0 1 I I #
face $-1 $177 $180 $3 $-1 $181 reversed single #
cone-surface $-1 0 0 -0.10312499999999999 0 0 1 -0.1875 0 0 1 I I 0 1 0.1875 forward I I I I #
coedge $-1 $124 $123 $182 $183 reversed $125 $-1 #
face $-1 $78 $125 $3 $-1 $184 reversed single #
vertex $-1 $183 $185 #
straight-curve $-1 -0.1875 -4.5922738268339147e-017 -0.083750000000000102 0 0 1 I I #
vertex $-1 $129 $186 #
straight-curve $-1 0.1875 2.2961369134169574e-017 -0.083750000000000102 0 0 1 I I #
face $-1 $187 $188 $3 $-1 $189 forward single #
loop $-1 $-1 $190 $131 #
torus-surface $-1 0 0 0.083749999999999991 0 0 1 0.36499999999999999 0.01 -1 0 0 forward_v I I I I #
loop $-1 $-1 $168 $106 #
coedge $-1 $191 $191 $192 $193 reversed $132 $-1 #
coedge $-1 $137 $134 $194 $195 reversed $107 $-1 #
coedge $-1 $134 $137 $196 $197 forward $107 $-1 #
coedge $-1 $198 $198 $134 $169 reversed $164 $-1 #
edge $-1 $199 1.2246063538223773e-016 $200 3.1415926535897931 $134 $201 forward 7 unknown #
edge $-1 $141 0 $172 0.019901200138371728 $135 $202 forward 7 unknown #
vertex $-1 $147 $203 #
vertex $-1 $170 $204 #
ellipse-curve $-1 -2.7755575615628914e-017 1.3877787807814457e-017 0.078125 0 0 1 0.34375 2.8218055604829761e-017 0 1 I I #
ellipse-curve $-1 0 0 0.082951750014533199 0 0 1 0.32444299994186704 3.973149591820036e-017 0 1 I I #
point $-1 -0.32444299994186743 -7.9462991836400905e-017 0.082951750014533143 #
coedge $-1 $144 $143 $205 $206 reversed $145 $-1 #
face $-1 $-1 $145 $3 $-1 $207 forward single #
straight-curve $-1 0.32444299994186743 3.9731495918200452e-017 0.082951750014533143 0.97014250014533188 1.1880426697910476e-016 -0.24253562503633297 I I #
coedge $-1 $150 $149 $208 $209 forward $151 $-1 #
loop $-1 $-1 $205 $153 #
cone-surface $-1 0 0 -0.10312499999999999 0 0 1 -0.34375 0 0 1 I I 0 1 0.34375 forward I I I I #
coedge $-1 $210 $211 $155 $183 forward $212 $-1 #
edge $-1 $159 -2.1912802922805882e-032 $157 3.1415926535897931 $155 $213 forward 7 unknown #
cone-surface $-1 0 0 -0.10312499999999999 0 0 1 -0.1875 0 0 1 I I 0 1 0.1875 forward I I I I #
point $-1 -0.1875 -4.5922738268339153e-017 -0.083750000000000019 #
point $-1 0.1875 2.2961369134169574e-017 -0.083750000000000102 #
face $-1 $214 $215 $3 $-1 $216 forward single #
loop $-1 $-1 $217 $161 #
torus-surface $-1 0 0 0.083749999999999991 0 0 1 0.36499999999999999 0.01 -1 0 0 forward_v I I I I #
coedge $-1 $192 $218 $219 $220 forward $162 $-1 #
coedge $-1 $165 $165 $221 $222 forward $132 $-1 #
coedge $-1 $223 $190 $165 $193 forward $162 $-1 #
edge $-1 $224 0 $225 3.1415926535897931 $165 $226 forward 7 unknown #
coedge $-1 $227 $205 $166 $195 forward $180 $-1 #
edge $-1 $172 0 $200 0.015625 $166 $228 forward 7 unknown #
coedge $-1 $205 $227 $167 $197 reversed $180 $-1 #
edge $-1 $171 -1.1102230246251565e-016 $199 0.015625 $167 $229 forward 7 unknown #
coedge $-1 $168 $168 $227 $230 forward $164 $-1 #
vertex $-1 $197 $231 #
vertex $-1 $195 $232 #
ellipse-curve $-1 0 0 0.09375 0 0 1 0.34375 0 0 1 I I #
straight-curve $-1 -0.32444299994186743 -7.9462991836400905e-017 0.082951750014533143 -0.97014250014533188 -2.3760853395820953e-016 -0.24253562503633297 I I #
point $-1 0.34375000000000044 4.2095843412644218e-017 0.078124999999999889 #
point $-1 -0.34375 0 0.078125 #
coedge $-1 $194 $196 $176 $206 forward $180 $-1 #
edge $-1 $171 2.0862437162869708e-031 $172 3.1415926535897931 $176 $233 forward 7 unknown #
cone-surface $-1 0 0 -0.8359375 0 0 1 -3.9999999999999978 0 0 1 I I -0.97014250014533188 0.24253562503633311 3.9999999999999978 forward I I I I #
coedge $-1 $234 $235 $179 $209 reversed $236 $-1 #
edge $-1 $159 2.1912802922805882e-032 $157 3.1415926535897931 $179 $237 forward 7 unknown #
coedge $-1 $238 $182 $235 $239 forward $212 $-1 #
coedge $-1 $182 $238 $234 $240 reversed $212 $-1 #
loop $-1 $-1 $210 $241 #
ellipse-curve $-1 0 0 -0.083750000000000019 0 0 1 0.1875 2.2961369134169577e-017 0 1 I I #
face $-1 $242 $243 $3 $-1 $244 forward single #
loop $-1 $-1 $245 $187 #
cone-surface $-1 0 0 -0.10312499999999999 0 0 1 -0.375 0 0 1 I I 0 1 0.375 forward I I I I #
coedge $-1 $221 $246 $223 $247 forward $188 $-1 #
coedge $-1 $190 $223 $248 $249 reversed $162 $-1 #
coedge $-1 $246 $221 $190 $220 reversed $188 $-1 #
edge $-1 $250 -8.3266726846886662e-015 $224 1.5707963267948926 $219 $251 forward 7 unknown #
coedge $-1 $219 $217 $191 $222 reversed $188 $-1 #
edge $-1 $224 0 $225 3.1415926535897931 $191 $252 forward 7 unknown #
coedge $-1 $218 $192 $217 $247 reversed $162 $-1 #
vertex $-1 $222 $253 #
vertex $-1 $222 $254 #
ellipse-curve $-1 0 0 0.09375 -3.8021336459765639e-017 -4.656117020944741e-033 -1 0.36499999999999999 4.4698131914516768e-017 -1.3877787807814457e-017 1 I I #
coedge $-1 $196 $194 $198 $230 reversed $180 $-1 #
straight-curve $-1 -0.34375 -8.4191686825288437e-017 0.078125 0 0 1 I I #
straight-curve $-1 0.34375 4.2095843412644218e-017 0.078125 0 0 1 I I #
edge $-1 $199 -1.2246063538223773e-016 $200 3.1415926535897931 $198 $255 forward 7 unknown #
point $-1 0.34375 4.2095843412644218e-017 0.09375 #
point $-1 -0.34375 0 0.09375 #
ellipse-curve $-1 1.3877787807814457e-017 -1.3877787807814457e-017 0.078125 0 0 -1 0.34375 5.5973631220458675e-017 0 1 I I #
coedge $-1 $256 $208 $211 $240 forward $236 $-1 #
coedge $-1 $208 $256 $210 $239 reversed $236 $-1 #
loop $-1 $-1 $234 $257 #
ellipse-curve $-1 0 0 -0.083750000000000019 0 0 -1 0.1875 2.2961369134169577e-017 0 1 I I #
coedge $-1 $211 $210 $258 $259 reversed $212 $-1 #
edge $-1 $157 0 $260 1.5707963267948926 $235 $261 forward 7 unknown #
edge $-1 $159 8.3266726846886662e-015 $262 1.5707963267948926 $234 $263 forward 7 unknown #
face $-1 $156 $212 $3 $-1 $264 forward single #
face $-1 $265 $266 $3 $-1 $267 forward single #
loop $-1 $-1 $268 $214 #
torus-surface $-1 0 0 -0.083750000000000005 0 0 1 0.36499999999999999 0.01 -1 0 0 forward_v I I I I #
coedge $-1 $269 $270 $271 $272 forward $215 $-1 #
coedge $-1 $217 $219 $273 $274 forward $188 $-1 #
edge $-1 $275 0 $225 1.5707963267948926 $217 $276 forward 7 unknown #
coedge $-1 $277 $278 $218 $249 forward $279 $-1 #
edge $-1 $250 0 $275 3.1415926535897931 $248 $280 forward 7 unknown #
vertex $-1 $281 $282 #
ellipse-curve $-1 0.36499999999999999 4.4698131914516774e-017 0.083750000000000005 1.2246063538223716e-016 -1 -5.4034515023725293e-031 0.010000000000000009 1.2246063538223728e-018 4.163336342344337e-017 1 I I #
ellipse-curve $-1 0 1.3877787807814457e-017 0.09375 3.8021336459765639e-017 3.2104949947580372e-033 1 0.36499999999999999 3.0820344106702311e-017 -1.3877787807814457e-017 1 I I #
point $-1 0.36499999999999999 4.4698131914516768e-017 0.093749999999999986 #
point $-1 -0.36499999999999999 0 0.093749999999999986 #
ellipse-curve $-1 0 0 0.09375 0 0 -1 0.34375 0 0 1 I I #
coedge $-1 $235 $234 $283 $284 forward $236 $-1 #
face $-1 $241 $236 $3 $-1 $285 forward single #
coedge $-1 $283 $283 $238 $259 forward $286 $-1 #
edge $-1 $262 0 $260 3.1415926535897931 $258 $287 forward 7 unknown #
vertex $-1 $259 $288 #
ellipse-curve $-1 -0.19750000000000001 0 -0.083749999999999977 0 1 0 0.010000000000000009 0 -4.163336342344337e-017 1 I I #
vertex $-1 $259 $289 #
ellipse-curve $-1 0.19750000000000001 2.4185975487991962e-017 -0.083749999999999977 1.2246063538223839e-016 -1 6.9202098188279656e-031 -0.010000000000000009 -1.2246063538223851e-018 -4.163336342344337e-017 1 I I #
torus-surface $-1 0 0 -0.083750000000000005 0 0 1 0.19750000000000001 0.01 -1 0 0 forward_v I I I I #
face $-1 $290 $279 $3 $-1 $291 forward single #
loop $-1 $-1 $292 $242 #
torus-surface $-1 0 0 -0.083750000000000005 0 0 1 0.36499999999999999 0.01 -1 0 0 forward_v I I I I #
coedge $-1 $271 $293 $294 $295 forward $243 $-1 #
coedge $-1 $273 $245 $277 $296 reversed $215 $-1 #
coedge $-1 $245 $273 $278 $281 forward $215 $-1 #
coedge $-1 $297 $268 $245 $272 reversed $243 $-1 #
edge $-1 $298 0 $299 3.1415926535897931 $245 $300 forward 7 unknown #
coedge $-1 $270 $269 $246 $274 reversed $215 $-1 #
edge $-1 $250 0 $275 3.1415926535897931 $273 $301 forward 7 unknown #
vertex $-1 $274 $302 #
ellipse-curve $-1 -0.36499999999999999 -8.9396263829033549e-017 0.083750000000000005 -2.4492127076447432e-016 1 -1.0806903004745059e-030 -0.010000000000000009 -2.4492127076447456e-018 4.163336342344337e-017 1 I I #
coedge $-1 $303 $248 $269 $296 forward $279 $-1 #
coedge $-1 $248 $303 $270 $281 reversed $279 $-1 #
loop $-1 $-1 $248 $265 #
ellipse-curve $-1 0 0 0.083750000000000047 0 0 -1 0.375 4.5922738268339147e-017 0 1 I I #
edge $-1 $250 0 $298 0.16750000000000004 $270 $304 forward 7 unknown #
point $-1 0.375 4.5922738268339147e-017 0.083749999999999963 #
coedge $-1 $258 $258 $256 $284 reversed $286 $-1 #
edge $-1 $262 0 $260 3.1415926535897931 $283 $305 forward 7 unknown #
torus-surface $-1 0 0 -0.083750000000000005 0 0 1 0.19750000000000001 0.01 -1 0 0 forward_v I I I I #
loop $-1 $306 $283 $307 #
ellipse-curve $-1 0 6.9388939039072284e-018 -0.09375 0 0 1 0.19750000000000001 1.7247081584084724e-017 0 1 I I #
point $-1 -0.19750000000000001 0 -0.09375 #
point $-1 0.19750000000000001 2.4185975487991953e-017 -0.09375 #
face $-1 $308 $309 $3 $-1 $310 reversed single #
cone-surface $-1 0 0 -0.10312499999999999 0 0 1 -0.375 0 0 1 I I 0 1 0.375 forward I I I I #
coedge $-1 $311 $312 $297 $313 forward $266 $-1 #
coedge $-1 $268 $297 $314 $315 forward $243 $-1 #
coedge $-1 $312 $311 $268 $295 reversed $266 $-1 #
edge $-1 $316 0 $299 1.570796326794891 $268 $317 forward 7 unknown #
edge $-1 $275 -8.3266726846886741e-017 $299 0.16750000000000004 $269 $318 forward 7 unknown #
coedge $-1 $293 $271 $292 $313 reversed $243 $-1 #
vertex $-1 $281 $319 #
vertex $-1 $296 $320 #
ellipse-curve $-1 0 0 -0.083749999999999991 0 0 1 0.375 4.5922738268339147e-017 0 1 I I #
ellipse-curve $-1 0 0 0.083750000000000047 0 0 1 0.375 4.5922738268339147e-017 0 1 I I #
point $-1 -0.375 0 0.083750000000000047 #
coedge $-1 $278 $277 $311 $321 reversed $279 $-1 #
straight-curve $-1 0.375 4.5922738268339147e-017 0.083749999999999963 0 0 -1 I I #
ellipse-curve $-1 1.3877787807814457e-017 6.9388939039072284e-018 -0.09375 0 0 -1 0.19750000000000001 1.7247081584084724e-017 0 1 I I #
loop $-1 $-1 $322 $307 #
face $-1 $257 $286 $3 $-1 $323 reversed single #
face $-1 $324 $325 $3 $-1 $326 reversed single #
loop $-1 $327 $328 $290 #
plane-surface $-1 0 0 -0.09375 0 0 1 -1 0 0 forward_v I I I I #
coedge $-1 $294 $292 $303 $321 forward $266 $-1 #
coedge $-1 $292 $294 $329 $330 reversed $266 $-1 #
edge $-1 $331 0 $298 1.570796326794891 $297 $332 forward 7 unknown #
coedge $-1 $329 $329 $293 $315 reversed $327 $-1 #
edge $-1 $331 0 $316 3.1415926535897931 $314 $333 forward 7 unknown #
vertex $-1 $330 $334 #
ellipse-curve $-1 -0.36499999999999999 -8.9396263829033549e-017 -0.083750000000000019 -2.4492127076447525e-016 1 1.2325951644078332e-030 0 1.2325951644078309e-032 -0.0099999999999999811 1 I I #
straight-curve $-1 -0.375 -9.1845476536678294e-017 0.083749999999999963 0 0 -1 I I #
point $-1 0.375 4.5922738268339147e-017 -0.083750000000000074 #
point $-1 -0.375 -9.1845476536678294e-017 -0.083750000000000074 #
edge $-1 $298 0 $299 3.1415926535897931 $303 $335 forward 7 unknown #
coedge $-1 $336 $336 $337 $338 reversed $306 $-1 #
plane-surface $-1 0 0 -0.09375 0 0 1 -1 0 0 forward_v I I I I #
face $-1 $339 $340 $3 $-1 $341 reversed single #
loop $-1 $-1 $342 $308 #
cone-surface $-1 0 0 -0.10312499999999999 0 0 1 -0.34375 0 0 1 I I 0 1 0.34375 forward I I I I #
loop $-1 $-1 $314 $290 #
coedge $-1 $343 $343 $342 $344 reversed $309 $-1 #
coedge $-1 $314 $314 $312 $330 forward $327 $-1 #
edge $-1 $331 0 $316 3.1415926535897931 $329 $345 forward 7 unknown #
vertex $-1 $330 $346 #
ellipse-curve $-1 0.36499999999999999 4.4698131914516774e-017 -0.083750000000000019 1.2246063538223763e-016 -1 6.1629758220391661e-031 0 -6.1629758220391547e-033 -0.0099999999999999811 1 I I #
ellipse-curve $-1 0 1.3877787807814457e-017 -0.09375 0 0 1 0.36499999999999999 3.0820344106702311e-017 0 1 I I #
point $-1 -0.36499999999999999 -8.9396263829033536e-017 -0.09375 #
ellipse-curve $-1 0 0 -0.083749999999999991 0 0 -1 0.375 4.5922738268339147e-017 0 1 I I #
coedge $-1 $322 $322 $347 $348 forward $306 $-1 #
coedge $-1 $349 $350 $322 $338 forward $351 $-1 #
edge $-1 $352 1.2246063538223773e-016 $353 3.1415926535897931 $337 $354 forward 7 unknown #
face $-1 $355 $356 $3 $-1 $357 forward single #
loop $-1 $-1 $358 $324 #
cone-surface $-1 0 0 -0.10312499999999999 0 0 1 -0.34375 0 0 1 I I 0 1 0.34375 forward I I I I #
coedge $-1 $359 $360 $328 $344 forward $325 $-1 #
coedge $-1 $328 $328 $361 $362 forward $309 $-1 #
edge $-1 $363 0 $364 3.1415926535897931 $328 $365 forward 7 unknown #
ellipse-curve $-1 0 0 -0.09375 0 0 -1 0.36499999999999999 4.4698131914516768e-017 0 1 I I #
point $-1 0.36499999999999999 4.4698131914516768e-017 -0.09375 #
coedge $-1 $366 $367 $336 $348 reversed $368 $-1 #
edge $-1 $352 -1.2246063538223773e-016 $353 3.1415926535897931 $336 $369 forward 7 unknown #
coedge $-1 $370 $337 $367 $371 reversed $351 $-1 #
coedge $-1 $337 $370 $366 $372 forward $351 $-1 #
loop $-1 $-1 $337 $373 #
vertex $-1 $372 $374 #
vertex $-1 $371 $375 #
ellipse-curve $-1 0 0 -0.09375 0 0 1 0.21875 0 0 1 I I #
face $-1 $376 $377 $3 $-1 $378 forward single #
loop $-1 $-1 $379 $339 #
cone-surface $-1 0 0 0.8359375 0 0 -1 -3.9999999999999978 0 0 1 I I -0.97014250014533188 0.24253562503633311 3.9999999999999978 forward I I I I #
coedge $-1 $380 $381 $382 $383 forward $340 $-1 #
coedge $-1 $384 $342 $380 $385 forward $325 $-1 #
coedge $-1 $342 $384 $381 $386 reversed $325 $-1 #
coedge $-1 $381 $380 $343 $362 reversed $340 $-1 #
edge $-1 $363 0 $364 3.1415926535897931 $343 $387 forward 7 unknown #
vertex $-1 $362 $388 #
vertex $-1 $362 $389 #
ellipse-curve $-1 1.3877787807814457e-017 -1.3877787807814457e-017 -0.09375 -2.4223047810003414e-016 -3.9442965677168593e-032 -1 0.34375 5.5973631220458675e-017 -8.3266726846886741e-017 1 I I #
coedge $-1 $390 $347 $350 $372 reversed $368 $-1 #
coedge $-1 $347 $390 $349 $371 forward $368 $-1 #
loop $-1 $-1 $390 $391 #
ellipse-curve $-1 0 0 -0.09375 0 0 -1 0.21875 0 0 1 I I #
coedge $-1 $350 $349 $392 $393 reversed $351 $-1 #
edge $-1 $394 0 $353 0.0078124999999999167 $349 $395 forward 7 unknown #
edge $-1 $396 0 $352 0.0078125 $350 $397 forward 7 unknown #
face $-1 $307 $351 $3 $-1 $398 forward single #
point $-1 0.21875 2.6788263989864503e-017 -0.093750000000000083 #
point $-1 -0.21875 0 -0.09375 #
face $-1 $399 $400 $3 $-1 $401 forward single #
loop $-1 $-1 $402 $355 #
torus-surface $-1 0 0 0.014062499999999999 0 0 1 0.30018943743823384 0.099999999999999992 -1 0 0 forward_v I I I I #
coedge $-1 $403 $404 $405 $406 forward $356 $-1 #
coedge $-1 $361 $358 $359 $385 reversed $340 $-1 #
coedge $-1 $358 $361 $360 $386 forward $340 $-1 #
coedge $-1 $404 $403 $358 $383 reversed $356 $-1 #
edge $-1 $407 1.0431218581434854e-031 $408 3.1415926535897931 $358 $409 forward 7 unknown #
coedge $-1 $360 $359 $410 $411 reversed $325 $-1 #
edge $-1 $364 0 $408 0.015625000000000194 $380 $412 forward 7 unknown #
edge $-1 $363 0 $407 0.015625 $381 $413 forward 7 unknown #
ellipse-curve $-1 -2.7755575615628914e-017 1.3877787807814457e-017 -0.09375 2.4223047810003414e-016 1.9884430836978217e-032 1 0.34375 2.8218055604829761e-017 -8.3266726846886741e-017 1 I I #
point $-1 0.34375 4.2095843412644218e-017 -0.093750000000000083 #
point $-1 -0.34375 0 -0.093750000000000083 #
coedge $-1 $367 $366 $414 $415 forward $368 $-1 #
face $-1 $373 $368 $3 $-1 $416 forward single #
coedge $-1 $414 $414 $370 $393 forward $417 $-1 #
edge $-1 $396 0 $394 3.1415926535897931 $392 $418 forward 7 unknown #
vertex $-1 $393 $419 #
straight-curve $-1 -0.21875 -5.3576527979729005e-017 -0.085937500000000083 0 0 -1 I I #
vertex $-1 $393 $420 #
straight-curve $-1 0.21875 2.6788263989864503e-017 -0.085937500000000083 0 0 -1 I I #
cone-surface $-1 0 0 -0.10312499999999999 0 0 1 -0.21875 0 0 1 I I 0 1 0.21875 forward I I I I #
face $-1 $421 $422 $3 $-1 $423 forward single #
loop $-1 $-1 $424 $376 #
torus-surface $-1 0 0 0.014062499999999999 0 0 1 0.30018943743823384 0.099999999999999992 -1 0 0 forward_v I I I I #
coedge $-1 $405 $425 $426 $427 forward $377 $-1 #
coedge $-1 $382 $379 $428 $429 reversed $356 $-1 #
coedge $-1 $379 $382 $430 $431 forward $356 $-1 #
coedge $-1 $432 $402 $379 $406 reversed $377 $-1 #
edge $-1 $433 1.3173348015020293e-031 $434 3.1415926535897931 $379 $435 forward 7 unknown #
vertex $-1 $386 $436 #
vertex $-1 $385 $437 #
ellipse-curve $-1 -2.7755575615628914e-017 1.3877787807814457e-017 -0.078124999999999889 0 0 1 0.34375000000000044 2.8218055604829761e-017 0 1 I I #
coedge $-1 $428 $430 $384 $411 forward $422 $-1 #
edge $-1 $407 -2.0862437162869708e-031 $408 3.1415926535897931 $384 $438 forward 7 unknown #
straight-curve $-1 -0.34375 -8.4191686825288437e-017 -0.093750000000000083 0 0 1 I I #
straight-curve $-1 0.34375 4.2095843412644218e-017 -0.093750000000000083 0 0 1 I I #
coedge $-1 $392 $392 $390 $415 reversed $417 $-1 #
edge $-1 $396 0 $394 3.1415926535897931 $414 $439 forward 7 unknown #
cone-surface $-1 0 0 -0.10312499999999999 0 0 1 -0.21875 0 0 1 I I 0 1 0.21875 forward I I I I #
loop $-1 $440 $414 $421 #
ellipse-curve $-1 0 6.9388939039072284e-018 -0.0859375 3.8064789415719651e-016 3.4539981364875373e-032 1 0.21875 1.9849370085957274e-017 -8.3266726846886741e-017 1 I I #
point $-1 -0.21875 0 -0.085937500000000083 #
point $-1 0.21875 2.6788263989864503e-017 -0.085937500000000083 #
face $-1 $391 $417 $3 $-1 $441 reversed single #
loop $-1 $-1 $410 $399 #
cone-surface $-1 0 0 0.8359375 0 0 -1 -3.9999999999999978 0 0 1 I I -0.97014250014533188 0.24253562503633311 3.9999999999999978 forward I I I I #
coedge $-1 $442 $443 $432 $444 forward $400 $-1 #
coedge $-1 $402 $432 $445 $446 forward $377 $-1 #
coedge $-1 $443 $442 $402 $427 reversed $400 $-1 #
edge $-1 $447 0 $434 0.24497866312686559 $402 $448 forward 7 unknown #
coedge $-1 $449 $410 $403 $429 forward $422 $-1 #
edge $-1 $408 0 $434 0.019901200138372183 $403 $450 forward 7 unknown #
coedge $-1 $410 $449 $404 $431 reversed $422 $-1 #
edge $-1 $407 4.7795182749276306e-016 $433 0.019901200138372183 $404 $451 forward 7 unknown #
coedge $-1 $425 $405 $424 $444 reversed $377 $-1 #
vertex $-1 $431 $452 #
vertex $-1 $429 $453 #
ellipse-curve $-1 0 0 -0.082951750014533199 0 0 1 0.32444299994186704 3.973149591820036e-017 0 1 I I #
point $-1 0.34375 4.2095843412644218e-017 -0.078125000000000083 #
point $-1 -0.34375000000000044 -8.4191686825288437e-017 -0.078124999999999889 #
ellipse-curve $-1 1.3877787807814457e-017 -1.3877787807814457e-017 -0.078124999999999889 0 0 -1 0.34375000000000044 5.5973631220458675e-017 0 1 I I #
ellipse-curve $-1 -6.9388939039072284e-018 1.3877787807814457e-017 -0.0859375 -3.8064789415719651e-016 -2.2465579754349679e-032 -1 0.21875 1.2910476182050046e-017 -8.3266726846886741e-017 1 I I #
loop $-1 $-1 $445 $421 #
plane-surface $-1 0 0 -0.0859375 0 0 1 -1 0 0 forward_v I I I I #
coedge $-1 $426 $424 $449 $454 forward $400 $-1 #
coedge $-1 $424 $426 $455 $456 reversed $400 $-1 #
edge $-1 $457 0 $433 0.24497866312686559 $432 $458 forward 7 unknown #
coedge $-1 $455 $455 $425 $446 reversed $440 $-1 #
edge $-1 $457 0 $447 3.1415926535897931 $445 $459 forward 7 unknown #
vertex $-1 $456 $460 #
ellipse-curve $-1 -0.30018943743823373 -7.3522778487445942e-017 0.014062500000000581 -2.4492127076447481e-016 1 7.2977096711477658e-030 -1.1102230246251565e-016 7.0257924371246364e-031 -0.10000000000000059 1 I I #
coedge $-1 $430 $428 $442 $454 reversed $422 $-1 #
straight-curve $-1 -0.34375000000000044 -8.4191686825288437e-017 -0.078124999999999889 0.97014250014533188 2.3760853395820953e-016 -0.24253562503633297 I I #
straight-curve $-1 0.34375000000000044 4.2095843412644218e-017 -0.078124999999999889 -0.97014250014533188 -1.1880426697910476e-016 -0.24253562503633297 I I #
point $-1 0.32444299994186743 3.9731495918200452e-017 -0.082951750014533143 #
point $-1 -0.32444299994186743 -7.9462991836400905e-017 -0.082951750014533143 #
edge $-1 $433 -1.3173348015020293e-031 $434 3.1415926535897931 $449 $461 forward 7 unknown #
coedge $-1 $445 $445 $443 $456 forward $440 $-1 #
edge $-1 $457 0 $447 3.1415926535897931 $455 $462 forward 7 unknown #
vertex $-1 $456 $463 #
ellipse-curve $-1 0.30018943743823373 3.6761389243722971e-017 0.014062500000000581 1.2246063538223741e-016 -1 3.6488548355738829e-030 1.1102230246251565e-016 -3.5128962185623182e-031 -0.10000000000000059 1 I I #
ellipse-curve $-1 0 -2.7755575615628914e-017 -0.0859375 0 0 1 0.30018943743823384 6.4516964859351539e-017 0 1 I I #
point $-1 -0.30018943743823384 -7.3522778487445239e-017 -0.0859375 #
ellipse-curve $-1 0 0 -0.082951750014533199 0 0 -1 0.32444299994186704 3.973149591820036e-017 0 1 I I #
ellipse-curve $-1 0 -1.3877787807814457e-017 -0.0859375 0 0 -1 0.30018943743823384 5.0639177051537076e-017 0 1 I I #
point $-1 0.30018943743823384 3.6761389243722619e-017 -0.0859375 #
End-of-ACIS-data 