600 0 1 0           
101 GICL Pro/E ACIS Translator - Source: f:/data5/repository/PTC/V18/reel18/areel/handle_collar.prt - 6 0 13 ACIS 6.0.3 NT 24 Thu Apr 04 13:30:05 2002 
1 9.9999999999999995e-007 1e-010 
body $-1 $1 $-1 $2 #
lump $-1 $-1 $3 $0 #
transform $-1 1 0 0 0 1 0 0 0 1 0 0 0 25.399999999999999 no_rotate no_reflect no_shear #
shell $-1 $-1 $-1 $4 $-1 $1 #
face $-1 $5 $6 $3 $-1 $7 forward single #
face $-1 $8 $9 $3 $-1 $10 reversed single #
loop $-1 $11 $12 $4 #
plane-surface $-1 1.3125 0 0 1 0 0 0 -1 0 forward_v I I I I #
face $-1 $13 $14 $3 $-1 $15 forward single #
loop $-1 $-1 $16 $5 #
cone-surface $-1 -0.067187499999999997 0 0 1 0 0 0 -0.1875 0 1 I I 0 1 0.1875 forward I I I I #
loop $-1 $-1 $17 $4 #
coedge $-1 $18 $18 $19 $20 forward $6 $-1 #
face $-1 $21 $22 $3 $-1 $23 reversed single #
loop $-1 $24 $25 $8 #
plane-surface $-1 1.34375 0 0 1 0 0 0 -1 0 forward_v I I I I #
coedge $-1 $26 $27 $28 $29 forward $9 $-1 #
coedge $-1 $30 $30 $31 $32 reversed $11 $-1 #
coedge $-1 $12 $12 $33 $34 reversed $6 $-1 #
coedge $-1 $27 $26 $12 $20 reversed $9 $-1 #
edge $-1 $35 0 $36 3.1415926535897931 $12 $37 forward 7 unknown #
face $-1 $38 $39 $3 $-1 $40 forward single #
loop $-1 $-1 $33 $13 #
cone-surface $-1 -0.067187499999999997 0 0 1 0 0 0 -0.1875 0 1 I I 0 1 0.1875 forward I I I I #
loop $-1 $-1 $41 $8 #
coedge $-1 $28 $28 $42 $43 forward $14 $-1 #
coedge $-1 $19 $16 $44 $45 reversed $9 $-1 #
coedge $-1 $16 $19 $46 $47 forward $9 $-1 #
coedge $-1 $25 $25 $16 $29 reversed $14 $-1 #
edge $-1 $48 1.2246063538223773e-016 $49 3.1415926535897931 $16 $50 forward 7 unknown #
coedge $-1 $17 $17 $51 $52 reversed $11 $-1 #
coedge $-1 $53 $54 $17 $32 forward $55 $-1 #
edge $-1 $56 0 $57 3.1415926535897931 $17 $58 forward 7 unknown #
coedge $-1 $44 $46 $18 $34 forward $22 $-1 #
edge $-1 $35 0 $36 3.1415926535897931 $18 $59 forward 7 unknown #
vertex $-1 $34 $60 #
vertex $-1 $34 $61 #
ellipse-curve $-1 1.3125 1.3877787807814457e-017 0 1 0 0 0 0.1875 2.2961369134169574e-017 1 I I #
face $-1 $62 $63 $3 $-1 $64 forward single #
loop $-1 $-1 $65 $21 #
cone-surface $-1 0.81374999999999975 0 0 1 0 0 0 -0.99999999999999989 0 1 I I -0.70710678118654746 0.70710678118654757 0.99999999999999989 forward I I I I #
coedge $-1 $66 $66 $67 $68 forward $24 $-1 #
coedge $-1 $46 $44 $25 $43 reversed $22 $-1 #
edge $-1 $48 -1.2246063538223773e-016 $49 3.1415926535897931 $25 $69 forward 7 unknown #
coedge $-1 $42 $33 $26 $45 forward $22 $-1 #
edge $-1 $36 0 $49 0.03125 $26 $70 forward 7 unknown #
coedge $-1 $33 $42 $27 $47 reversed $22 $-1 #
edge $-1 $35 0 $48 0.03125 $27 $71 forward 7 unknown #
vertex $-1 $47 $72 #
vertex $-1 $45 $73 #
ellipse-curve $-1 1.34375 -6.9388939039072284e-018 1.3877787807814457e-017 1 0 0 0 0.1875 -1.3877787807814457e-017 1 I I #
coedge $-1 $74 $75 $30 $52 forward $76 $-1 #
edge $-1 $57 0 $56 3.1415926535897931 $30 $77 forward 7 unknown #
coedge $-1 $78 $31 $75 $79 reversed $55 $-1 #
coedge $-1 $31 $78 $74 $80 forward $55 $-1 #
loop $-1 $-1 $53 $81 #
vertex $-1 $52 $82 #
vertex $-1 $52 $83 #
ellipse-curve $-1 1.3125 0 0 1 0 0 0 -0.140625 0 1 I I #
ellipse-curve $-1 1.3125 -1.3877787807814457e-017 0 -1 0 0 0 0.1875 2.2961369134169574e-017 1 I I #
point $-1 1.3125 0.1875 2.2961369134169574e-017 #
point $-1 1.3125 -0.1875 -4.5922738268339147e-017 #
face $-1 $84 $85 $3 $-1 $86 forward single #
loop $-1 $-1 $87 $38 #
cone-surface $-1 0.81374999999999975 0 0 1 0 0 0 -0.99999999999999989 0 1 I I -0.70710678118654746 0.70710678118654757 0.99999999999999989 forward I I I I #
coedge $-1 $67 $88 $89 $90 forward $39 $-1 #
coedge $-1 $41 $41 $91 $92 reversed $24 $-1 #
coedge $-1 $93 $65 $41 $68 reversed $39 $-1 #
edge $-1 $94 -5.5021850224411705e-063 $95 3.1415926535897931 $41 $96 forward 7 unknown #
ellipse-curve $-1 1.34375 -6.9388939039072284e-018 -1.3877787807814457e-017 -1 0 0 0 0.1875 1.3877787807814457e-017 1 I I #
straight-curve $-1 1.3125 -0.1875 -4.5922738268339147e-017 1 0 0 I I #
straight-curve $-1 1.3125 0.1875 2.2961369134169574e-017 1 0 0 I I #
point $-1 1.34375 0.1875 2.2961369134169574e-017 #
point $-1 1.34375 -0.1875 0 #
coedge $-1 $97 $51 $54 $80 reversed $76 $-1 #
coedge $-1 $51 $97 $53 $79 forward $76 $-1 #
loop $-1 $-1 $74 $98 #
ellipse-curve $-1 1.3125 0 0 1 0 0 0 0.140625 0 1 I I #
coedge $-1 $54 $53 $99 $100 reversed $55 $-1 #
edge $-1 $101 0 $57 1.3125 $75 $102 forward 7 unknown #
edge $-1 $103 8.1939345073947175e-034 $56 1.3125 $74 $104 forward 7 unknown #
face $-1 $98 $55 $3 $-1 $105 reversed single #
point $-1 1.3125 -0.140625 0 #
point $-1 1.3125 0.140625 0 #
face $-1 $106 $107 $3 $-1 $108 forward single #
loop $-1 $-1 $109 $62 #
cone-surface $-1 -0.067187499999999997 0 0 1 0 0 0 -0.5 0 1 I I 0 1 0.5 forward I I I I #
coedge $-1 $91 $110 $93 $111 forward $63 $-1 #
coedge $-1 $65 $93 $112 $113 forward $39 $-1 #
coedge $-1 $110 $91 $65 $90 reversed $63 $-1 #
edge $-1 $114 0 $95 0.042426406871192895 $89 $115 forward 7 unknown #
coedge $-1 $89 $87 $66 $92 forward $63 $-1 #
edge $-1 $94 0 $95 3.1415926535897931 $66 $116 forward 7 unknown #
coedge $-1 $88 $67 $87 $111 reversed $39 $-1 #
vertex $-1 $92 $117 #
vertex $-1 $92 $118 #
ellipse-curve $-1 1.34375 4.163336342344337e-017 0 1 4.7243532962772628e-016 5.785473064322826e-032 -2.2204460492503131e-016 0.46999999999999992 5.7556498629651707e-017 1 I I #
coedge $-1 $75 $74 $119 $120 reversed $76 $-1 #
face $-1 $121 $76 $3 $-1 $122 reversed single #
coedge $-1 $119 $119 $78 $100 forward $123 $-1 #
edge $-1 $103 0 $101 3.1415926535897931 $99 $124 forward 7 unknown #
vertex $-1 $120 $125 #
straight-curve $-1 0 0.140625 0 1 0 0 I I #
vertex $-1 $120 $126 #
straight-curve $-1 0 -0.140625 1.722102685062718e-017 1 0 -4.7580986769649563e-017 I I #
cone-surface $-1 0 0 0 1 0 0 0 0.140625 0 1 I I 0 1 0.140625 forward I I I I #
face $-1 $127 $128 $3 $-1 $129 forward single #
loop $-1 $-1 $130 $84 #
cone-surface $-1 -0.067187499999999997 0 0 1 0 0 0 -0.5 0 1 I I 0 1 0.5 forward I I I I #
coedge $-1 $131 $132 $110 $133 forward $85 $-1 #
coedge $-1 $87 $89 $109 $133 reversed $63 $-1 #
edge $-1 $134 1.5700924586837752e-016 $94 0.042426406871192895 $87 $135 forward 7 unknown #
coedge $-1 $136 $137 $88 $113 reversed $107 $-1 #
edge $-1 $134 2.4651903288156619e-032 $114 3.1415926535897931 $112 $138 forward 7 unknown #
vertex $-1 $113 $139 #
straight-curve $-1 1.3137499999999998 -0.5 0 0.70710678118654757 0.70710678118654757 0 I I #
ellipse-curve $-1 1.34375 -2.7755575615628914e-017 1.3877787807814457e-017 -1 -4.7243532962772618e-016 -4.3905034350699604e-032 -2.2204460492503131e-016 0.46999999999999997 4.3678710821837251e-017 1 I I #
point $-1 1.3437499999999998 0.46999999999999997 5.7556498629651707e-017 #
point $-1 1.3437499999999998 -0.46999999999999997 -1.1511299725930341e-016 #
coedge $-1 $99 $99 $97 $120 forward $123 $-1 #
edge $-1 $101 0 $103 3.1415926535897931 $119 $140 forward 7 unknown #
face $-1 $141 $142 $3 $-1 $143 forward single #
cone-surface $-1 0 0 0 1 0 0 0 0.140625 0 1 I I 0 1 0.140625 forward I I I I #
loop $-1 $-1 $99 $144 #
ellipse-curve $-1 0 0 0 1 0 0 0 -0.140625 0 1 I I #
point $-1 0 0.140625 0 #
point $-1 0 -0.140625 0 #
face $-1 $145 $146 $3 $-1 $147 forward single #
loop $-1 $-1 $148 $106 #
cone-surface $-1 1.62375 0 0 -1 0 0 0 -0.99999999999999989 0 1 I I -0.70710678118654746 0.70710678118654757 0.99999999999999989 forward I I I I #
coedge $-1 $137 $136 $149 $150 forward $107 $-1 #
coedge $-1 $151 $109 $137 $152 forward $85 $-1 #
coedge $-1 $109 $151 $136 $153 reversed $85 $-1 #
edge $-1 $134 -2.4651903288156619e-032 $114 3.1415926535897931 $109 $154 forward 7 unknown #
vertex $-1 $153 $155 #
straight-curve $-1 1.3137499999999998 0.5 6.1230317691118851e-017 0.70710678118654757 -0.70710678118654757 -8.6592745707193739e-017 I I #
coedge $-1 $130 $112 $132 $153 forward $107 $-1 #
coedge $-1 $112 $130 $131 $152 reversed $107 $-1 #
ellipse-curve $-1 1.3137499999999998 0 1.3877787807814457e-017 1 0 0 0 0.5 4.7352529883304394e-017 1 I I #
point $-1 1.3137499999999998 -0.5 -1.224606353822377e-016 #
ellipse-curve $-1 0 0 0 1 0 0 0 0.140625 0 1 I I #
face $-1 $156 $157 $3 $-1 $158 forward single #
loop $-1 $-1 $159 $121 #
torus-surface $-1 0.80999999999999994 0 0 1 0 0 0.33374999999999999 0.01 0 -1 0 forward_v I I I I #
face $-1 $160 $161 $3 $-1 $162 reversed single #
face $-1 $163 $164 $3 $-1 $165 reversed single #
loop $-1 $-1 $166 $127 #
cone-surface $-1 1.62375 0 0 -1 0 0 0 -0.99999999999999989 0 1 I I -0.70710678118654746 0.70710678118654757 0.99999999999999989 forward I I I I #
coedge $-1 $149 $167 $168 $169 forward $128 $-1 #
coedge $-1 $170 $148 $130 $150 reversed $128 $-1 #
edge $-1 $171 2.4651903288156619e-032 $172 3.1415926535897931 $130 $173 forward 7 unknown #
coedge $-1 $132 $131 $174 $175 reversed $85 $-1 #
edge $-1 $114 2.2204460492503131e-016 $172 0.18999999999999995 $137 $176 forward 7 unknown #
edge $-1 $134 0 $171 0.18999999999999995 $136 $177 forward 7 unknown #
ellipse-curve $-1 1.3137499999999998 -5.5511151231257827e-017 -2.7755575615628914e-017 -1 0 0 0 0.5 8.8985893306747764e-017 1 I I #
point $-1 1.31375 0.5 6.1230317691118863e-017 #
face $-1 $178 $179 $3 $-1 $180 reversed single #
loop $-1 $-1 $181 $141 #
torus-surface $-1 0.80999999999999994 0 0 1 0 0 0.33375000000000005 0.01 0 -1 0 forward_v I I I I #
coedge $-1 $182 $183 $184 $185 forward $142 $-1 #
face $-1 $186 $187 $3 $-1 $188 forward single #
loop $-1 $123 $189 $144 #
plane-surface $-1 0 0 0 1 0 0 0 -1 0 forward_v I I I I #
face $-1 $190 $191 $3 $-1 $192 reversed single #
loop $-1 $193 $194 $145 #
plane-surface $-1 1.09375 0 0 1 0 0 0 -1 0 forward_v I I I I #
coedge $-1 $174 $195 $170 $196 forward $146 $-1 #
coedge $-1 $148 $170 $197 $198 forward $128 $-1 #
coedge $-1 $195 $174 $148 $169 reversed $146 $-1 #
edge $-1 $199 0 $172 0.042426406871192895 $168 $200 forward 7 unknown #
coedge $-1 $167 $149 $166 $196 reversed $128 $-1 #
vertex $-1 $153 $201 #
vertex $-1 $152 $202 #
ellipse-curve $-1 1.12375 0 1.3877787807814457e-017 1 0 0 0 0.5 4.7352529883304394e-017 1 I I #
coedge $-1 $168 $166 $151 $175 forward $146 $-1 #
edge $-1 $171 -2.4651903288156619e-032 $172 3.1415926535897931 $151 $203 forward 7 unknown #
straight-curve $-1 1.31375 -0.5 -1.2246063538223773e-016 -1 0 0 I I #
straight-curve $-1 1.31375 0.5 6.1230317691118863e-017 -1 0 0 I I #
face $-1 $-1 $204 $3 $-1 $205 reversed single #
loop $-1 $-1 $206 $156 #
plane-surface $-1 0.79999999999999993 1.27 0 1 0 0 0 1 0 forward_v I I I I #
coedge $-1 $207 $208 $209 $210 forward $157 $-1 #
coedge $-1 $209 $159 $211 $212 reversed $142 $-1 #
coedge $-1 $159 $209 $206 $213 forward $142 $-1 #
coedge $-1 $214 $215 $159 $185 reversed $216 $-1 #
edge $-1 $217 0 $218 1 $184 $219 forward 7 unknown #
face $-1 $220 $221 $3 $-1 $222 forward single #
loop $-1 $-1 $223 $160 #
torus-surface $-1 0.029999999999999999 0 0 1 0 0 0.28249999999999997 0.029999999999999999 0 -1 0 forward_v I I I I #
coedge $-1 $224 $225 $226 $227 forward $161 $-1 #
face $-1 $228 $229 $3 $-1 $230 reversed single #
loop $-1 $-1 $231 $163 #
torus-surface $-1 1.04375 0 0 1 0 0 0.39374999999999999 0.049999999999999996 0 -1 0 forward_v I I I I #
loop $-1 $-1 $232 $145 #
coedge $-1 $197 $197 $195 $233 forward $164 $-1 #
coedge $-1 $166 $168 $194 $233 reversed $146 $-1 #
edge $-1 $234 0 $171 0.042426406871192895 $166 $235 forward 7 unknown #
coedge $-1 $194 $194 $167 $198 reversed $164 $-1 #
edge $-1 $234 0 $199 3.1415926535897931 $197 $236 forward 7 unknown #
vertex $-1 $198 $237 #
straight-curve $-1 1.09375 -0.46999999999999997 0 0.70710678118654757 -0.70710678118654757 0 I I #
point $-1 1.12375 0.5 6.1230317691118863e-017 #
point $-1 1.12375 -0.5 0 #
ellipse-curve $-1 1.12375 -5.5511151231257827e-017 -2.7755575615628914e-017 -1 0 0 0 0.5 8.8985893306747764e-017 1 I I #
loop $-1 $-1 $238 $178 #
plane-surface $-1 0.79999999999999993 -0.63500000000000023 1.0998522628062368 1 0 0 0 1 0 forward_v I I I I #
coedge $-1 $239 $240 $183 $213 reversed $179 $-1 #
coedge $-1 $241 $181 $242 $243 reversed $157 $-1 #
coedge $-1 $181 $241 $239 $244 forward $157 $-1 #
coedge $-1 $183 $182 $181 $210 reversed $142 $-1 #
edge $-1 $245 0 $246 1.5707963267949132 $181 $247 forward 7 unknown #
coedge $-1 $248 $249 $182 $212 forward $250 $-1 #
edge $-1 $246 0 $218 0.57847760089405176 $211 $251 forward 7 unknown #
edge $-1 $245 0 $217 0.54641757900991805 $206 $252 forward 7 unknown #
coedge $-1 $253 $184 $240 $254 reversed $216 $-1 #
coedge $-1 $184 $255 $248 $256 forward $216 $-1 #
loop $-1 $-1 $257 $258 #
vertex $-1 $254 $259 #
vertex $-1 $256 $260 #
intcurve-curve $-1 forward { surfintcur full nurbs 3 open 6 
	0 3 0.20823839648345455 1 0.41195672956674961 1 0.61156550298729551 1 0.80742011435312788 1 
	1 3 
	0.79999999999999993 0.28515317421259839 0.17342643897768162 1 
	0.8000167481358218 0.28545429670467343 0.17513044406123682 1 
	0.80036440497571881 0.28601462404938355 0.17827077426959126 1 
	0.80186021496934301 0.28676503099723943 0.18235490958022013 1.0000000000000002 
	0.80410318008172244 0.28735694551111418 0.18551305666597107 0.99999999999999989 
	0.80699194680207076 0.28774001431570601 0.18752445554698161 1 
	0.80897068861228749 0.28781981671598666 0.18794399001153503 0.99999999999999978 
	0.80999999999999994 0.28782049704724405 0.18794526857433091 1 
	0.001 
	torus 0.80999999999999994 0 0 1 0 0 0.33374999999999999 0.01 0 -1 0 forward_v I I I I 
	cone 0 1.27 0 1 0 0 0 1 0 1 I I 0 1 1 forward I I I I 
	nullbs 
	nullbs 
	I I 
	0 
	0 
	0 
	} I I #
face $-1 $261 $262 $3 $-1 $263 reversed single #
loop $-1 $-1 $264 $186 #
cone-surface $-1 -0.067187499999999997 0 0 1 0 0 0 -0.3125 0 1 I I 0 1 0.3125 forward I I I I #
coedge $-1 $265 $266 $267 $268 reversed $187 $-1 #
coedge $-1 $269 $189 $270 $271 forward $161 $-1 #
coedge $-1 $189 $272 $273 $274 forward $161 $-1 #
coedge $-1 $275 $276 $189 $227 reversed $277 $-1 #
edge $-1 $278 -1.3042012193106223e-016 $279 1.5665717948475237 $189 $280 forward 7 unknown #
face $-1 $281 $282 $3 $-1 $283 forward single #
loop $-1 $-1 $284 $190 #
torus-surface $-1 1.04375 0 0 1 0 0 0.39374999999999999 0.049999999999999996 0 -1 0 forward_v I I I I #
coedge $-1 $285 $286 $287 $288 forward $191 $-1 #
coedge $-1 $289 $289 $285 $290 forward $193 $-1 #
edge $-1 $234 0 $199 3.1415926535897931 $194 $291 forward 7 unknown #
vertex $-1 $198 $292 #
straight-curve $-1 1.09375 0.46999999999999997 5.7556498629651707e-017 0.70710678118654757 0.70710678118654757 8.6592745707193739e-017 I I #
ellipse-curve $-1 1.09375 4.163336342344337e-017 0 1 0 0 0 0.46999999999999992 5.7556498629651707e-017 1 I I #
point $-1 1.09375 -0.46999999999999997 0 #
coedge $-1 $293 $293 $294 $295 reversed $204 $-1 #
coedge $-1 $240 $206 $208 $244 reversed $179 $-1 #
coedge $-1 $206 $239 $214 $254 forward $179 $-1 #
coedge $-1 $208 $207 $253 $296 reversed $157 $-1 #
coedge $-1 $297 $298 $207 $243 forward $282 $-1 #
edge $-1 $299 0 $246 0.5784776008940522 $242 $300 forward 7 unknown #
edge $-1 $301 6.8523633496761976e-016 $245 0.54641757900991583 $239 $302 forward 7 unknown #
vertex $-1 $244 $303 #
vertex $-1 $212 $304 #
ellipse-curve $-1 0.80999999999999983 0.33375000000000005 4.0871237058821858e-017 1.1690996615538311e-030 1.2246063538223684e-016 -1 -0.0099999999999998979 -5.5511151231257827e-017 -1.8488927466117464e-032 1 I I #
coedge $-1 $305 $211 $215 $256 reversed $250 $-1 #
coedge $-1 $211 $306 $297 $307 forward $250 $-1 #
loop $-1 $-1 $308 $281 #
ellipse-curve $-1 0.80999999999999994 0 0 1 0 0 0 0.34375 4.2095843412644218e-017 1 I I #
ellipse-curve $-1 0.79999999999999993 6.6613381477509392e-016 2.2204460492503131e-016 1 0 0 0 0.33374999999999932 -1.8117336786620947e-016 1 I I #
coedge $-1 $309 $214 $241 $296 forward $216 $-1 #
edge $-1 $301 0 $217 0.34861554060201344 $240 $310 forward 7 unknown #
coedge $-1 $215 $311 $312 $313 reversed $216 $-1 #
edge $-1 $314 5.5511151231257827e-017 $218 0.42499999999999999 $248 $315 forward 7 unknown #
coedge $-1 $316 $270 $276 $317 reversed $216 $-1 #
face $-1 $318 $216 $3 $-1 $319 reversed single #
point $-1 0.79999999999999993 0.28515317421259845 0.17342643897768154 #
point $-1 0.80999999999999994 0.28782049704724405 0.18794526857433091 #
face $-1 $320 $321 $3 $-1 $322 forward single #
loop $-1 $-1 $323 $220 #
plane-surface $-1 0.375 0 0 1 0 0 0 -1 0 forward_v I I I I #
coedge $-1 $324 $325 $326 $327 reversed $221 $-1 #
coedge $-1 $328 $223 $329 $330 forward $187 $-1 #
coedge $-1 $223 $328 $331 $332 forward $187 $-1 #
coedge $-1 $325 $324 $223 $268 forward $221 $-1 #
edge $-1 $333 -8.881784197001251e-018 $334 1.1705125168554367 $267 $335 forward 7 unknown #
coedge $-1 $336 $224 $328 $337 forward $161 $-1 #
coedge $-1 $257 $331 $224 $271 reversed $216 $-1 #
edge $-1 $279 2.7755575615628692e-016 $338 0.14751892390514407 $224 $339 forward 7 unknown #
coedge $-1 $225 $336 $340 $341 forward $161 $-1 #
coedge $-1 $342 $343 $225 $274 reversed $344 $-1 #
edge $-1 $345 0 $278 0.14751892390514523 $225 $346 forward 7 unknown #
coedge $-1 $347 $226 $343 $348 forward $277 $-1 #
coedge $-1 $226 $347 $257 $317 forward $277 $-1 #
loop $-1 $-1 $347 $318 #
vertex $-1 $274 $349 #
vertex $-1 $271 $350 #
ellipse-curve $-1 0 -4.5102810375396984e-017 -8.3266726846886741e-017 -1 0 0 0 -0.072539834997323804 0.27302787831751008 1 I I #
face $-1 $351 $250 $3 $-1 $352 forward single #
loop $-1 $-1 $297 $228 #
cone-surface $-1 -0.067187499999999997 0 0 1 0 0 0 -0.34375 0 1 I I 0 1 0.34375 forward I I I I #
coedge $-1 $353 $354 $355 $356 forward $229 $-1 #
coedge $-1 $355 $231 $232 $290 reversed $191 $-1 #
coedge $-1 $231 $355 $306 $357 forward $191 $-1 #
coedge $-1 $354 $353 $231 $288 reversed $229 $-1 #
edge $-1 $358 0 $359 1.5707963267948877 $287 $360 forward 7 unknown #
coedge $-1 $232 $232 $353 $361 reversed $193 $-1 #
edge $-1 $362 0 $359 3.1415926535897931 $232 $363 forward 7 unknown #
ellipse-curve $-1 1.09375 -2.7755575615628914e-017 1.3877787807814457e-017 -1 0 0 0 0.46999999999999997 4.3678710821837251e-017 1 I I #
point $-1 1.09375 0.46999999999999997 5.7556498629651707e-017 #
coedge $-1 $238 $238 $364 $365 reversed $204 $-1 #
coedge $-1 $366 $367 $238 $295 forward $368 $-1 #
edge $-1 $369 -1.2848181280642948e-016 $370 1.0928351580198359 $238 $371 forward 7 unknown #
edge $-1 $301 0 $299 0.99999999999999989 $253 $372 forward 7 unknown #
coedge $-1 $373 $242 $249 $307 reversed $282 $-1 #
coedge $-1 $242 $374 $309 $375 forward $282 $-1 #
vertex $-1 $243 $376 #
ellipse-curve $-1 0.80999999999999994 0 0 1 0 0 0 0.28782049704724405 -0.18794526857433097 1 I I #
vertex $-1 $254 $377 #
ellipse-curve $-1 0.79999999999999993 -8.8817841970012523e-016 2.5673907444456745e-016 1 0 0 0 0.28515317421259928 -0.17342643897768178 1 I I #
point $-1 0.79999999999999993 0.33374999999999999 4.0871237058821839e-017 #
point $-1 0.80999999999999994 0.34375000000000006 4.2095843412644224e-017 #
coedge $-1 $378 $248 $379 $380 forward $250 $-1 #
coedge $-1 $249 $381 $286 $357 reversed $250 $-1 #
edge $-1 $382 0 $246 0.23375000000000001 $249 $383 forward 7 unknown #
coedge $-1 $384 $378 $385 $386 forward $250 $-1 #
coedge $-1 $387 $253 $298 $375 reversed $216 $-1 #
ellipse-curve $-1 0.79999999999999993 1.27 1.2490009027033011e-016 -1 0 0 0 -0.98484682578740157 -0.17342643897768145 1 I I #
coedge $-1 $255 $316 $388 $389 reversed $216 $-1 #
coedge $-1 $390 $379 $255 $313 forward $391 $-1 #
edge $-1 $314 0 $392 1 $312 $393 forward 7 unknown #
vertex $-1 $380 $394 #
straight-curve $-1 0.38499999999999995 0.28782049704724405 0.18794526857433091 1 0 0 I I #
coedge $-1 $311 $257 $395 $396 forward $216 $-1 #
edge $-1 $397 0 $279 0.99999999999999989 $276 $398 forward 7 unknown #
face $-1 $399 $277 $3 $-1 $400 forward single #
cone-surface $-1 0 1.27 0 1 0 0 0 1 0 1 I I 0 1 1 forward I I I I #
face $-1 $401 $402 $3 $-1 $403 reversed single #
loop $-1 $-1 $404 $261 #
torus-surface $-1 0.38500000000000001 0 0 1 0 0 0.33374999999999999 0.01 0 -1 0 forward_v I I I I #
coedge $-1 $405 $406 $407 $408 forward $262 $-1 #
coedge $-1 $267 $264 $409 $410 reversed $221 $-1 #
coedge $-1 $264 $267 $411 $412 forward $221 $-1 #
coedge $-1 $406 $405 $264 $327 forward $262 $-1 #
edge $-1 $413 -1.1368683772161605e-015 $414 1.1705125168554367 $326 $415 forward 7 unknown #
coedge $-1 $266 $265 $269 $337 reversed $187 $-1 #
coedge $-1 $409 $416 $265 $330 reversed $402 $-1 #
edge $-1 $333 0 $417 1 $265 $418 forward 7 unknown #
coedge $-1 $270 $411 $266 $332 reversed $216 $-1 #
edge $-1 $338 0 $334 0.99999999999999989 $266 $419 forward 7 unknown #
vertex $-1 $268 $420 #
vertex $-1 $412 $421 #
ellipse-curve $-1 0.029999999999999999 0 0 1 0 0 0 -0.019255757377853351 -0.31190618109906904 1 I I #
coedge $-1 $272 $269 $416 $422 forward $161 $-1 #
edge $-1 $338 0 $417 1.5665717948475273 $269 $423 forward 7 unknown #
vertex $-1 $337 $424 #
ellipse-curve $-1 0 1.270000000000004 -4.0592529337857286e-016 1 0 0 0 -0.9972810039370118 0.073692599264741546 1 I I #
coedge $-1 $425 $426 $272 $341 reversed $427 $-1 #
edge $-1 $428 4.3473373977020806e-016 $345 1.5665717948475262 $272 $429 forward 7 unknown #
coedge $-1 $430 $273 $426 $431 reversed $344 $-1 #
coedge $-1 $273 $432 $275 $348 reversed $344 $-1 #
loop $-1 $-1 $433 $434 #
vertex $-1 $274 $435 #
ellipse-curve $-1 0 -0.63500000000000023 1.0998522628062368 1 0 0 0 0.43482083893433199 -0.900516983753468 1 I I #
coedge $-1 $276 $275 $436 $437 reversed $277 $-1 #
edge $-1 $278 0 $438 1 $275 $439 forward 7 unknown #
point $-1 0 -0.072539834997323874 0.27302787831750996 #
point $-1 0 0.2727189960629921 0.073692599264740866 #
face $-1 $434 $368 $3 $-1 $440 forward single #
cone-surface $-1 -0.067187499999999997 0 0 1 0 0 0 -0.34375 0 1 I I 0 1 0.34375 forward I I I I #
coedge $-1 $287 $284 $289 $361 forward $229 $-1 #
coedge $-1 $284 $287 $373 $441 reversed $229 $-1 #
coedge $-1 $286 $285 $284 $356 reversed $191 $-1 #
edge $-1 $382 0 $362 1.5707963267948877 $284 $442 forward 7 unknown #
edge $-1 $382 0 $358 3.1415926535897931 $306 $443 forward 7 unknown #
vertex $-1 $357 $444 #
vertex $-1 $361 $445 #
ellipse-curve $-1 1.0437499999999997 -0.39375000000000021 0 0 0 -1 2.2204460492503131e-016 0.050000000000000211 0 1 I I #
edge $-1 $362 0 $359 3.1415926535897931 $289 $446 forward 7 unknown #
vertex $-1 $361 $447 #
ellipse-curve $-1 1.09375 0 -4.163336342344337e-017 1 0 0 0 0.39374999999999999 8.9852238605199465e-017 1 I I #
coedge $-1 $448 $449 $293 $365 forward $344 $-1 #
edge $-1 $370 0 $369 0.34861554060201499 $293 $450 forward 7 unknown #
coedge $-1 $385 $294 $449 $451 forward $368 $-1 #
coedge $-1 $294 $385 $448 $452 reversed $368 $-1 #
loop $-1 $-1 $366 $351 #
vertex $-1 $365 $453 #
vertex $-1 $365 $454 #
ellipse-curve $-1 0.79999999999999993 -1.1102230246251565e-016 2.2204460492503131e-016 1 0 0 0 0.0076151147362449444 0.33366311232672052 1 I I #
intcurve-curve $-1 forward { surfintcur full nurbs 3 open 6 
	0 3 0.2082383964834528 1 0.41195672956674878 1 0.61156550298729984 1 0.80742011435312799 1 
	0.99999999999999989 3 
	0.79999999999999993 0.28515317421259839 -0.17342643897768154 1 
	0.8000167481358218 0.28545429670467343 -0.17513044406123665 0.99999999999999989 
	0.80036440497571859 0.28601462404938355 -0.17827077426959095 1.0000000000000002 
	0.80186021496934301 0.28676503099723949 -0.18235490958021994 1 
	0.80410318008172266 0.28735694551111418 -0.18551305666597154 1 
	0.80699194680207065 0.28774001431570612 -0.18752445554698141 1 
	0.80897068861228716 0.28781981671598661 -0.18794399001153489 1.0000000000000002 
	0.80999999999999994 0.28782049704724405 -0.18794526857433097 1 
	0.001 
	cone 0 1.27 0 1 0 0 0 1 0 1 I I 0 1 1 forward I I I I 
	torus 0.80999999999999994 0 0 1 0 0 0.33375000000000005 0.01 0 -1 0 forward_v I I I I 
	nullbs 
	nullbs 
	I I 
	0 
	0 
	0 
	} I I #
coedge $-1 $455 $297 $354 $441 forward $282 $-1 #
coedge $-1 $298 $456 $404 $457 reversed $282 $-1 #
edge $-1 $458 5.5511151231257926e-017 $299 0.42499999999999999 $298 $459 forward 7 unknown #
point $-1 0.80999999999999994 0.28782049704724405 -0.18794526857433097 #
point $-1 0.79999999999999993 0.28515317421259845 -0.17342643897768131 #
coedge $-1 $308 $305 $460 $461 forward $250 $-1 #
coedge $-1 $312 $462 $305 $380 reversed $391 $-1 #
edge $-1 $314 0 $463 0.9374399006050923 $305 $464 forward 7 unknown #
coedge $-1 $306 $465 $455 $466 reversed $250 $-1 #
vertex $-1 $307 $467 #
straight-curve $-1 1.04375 0.34375 4.2095843412644218e-017 -1 0 0 I I #
coedge $-1 $465 $308 $468 $469 reversed $250 $-1 #
coedge $-1 $367 $366 $308 $386 reversed $368 $-1 #
edge $-1 $470 7.3403175181828518e-018 $471 1.156955201788104 $308 $472 forward 7 unknown #
coedge $-1 $473 $309 $474 $475 reversed $216 $-1 #
coedge $-1 $476 $477 $311 $389 forward $478 $-1 #
edge $-1 $392 0 $479 0.034576392624505972 $388 $480 forward 7 unknown #
coedge $-1 $462 $312 $477 $481 reversed $391 $-1 #
loop $-1 $-1 $379 $482 #
vertex $-1 $389 $483 #
intcurve-curve $-1 forward { surfintcur full nurbs 3 open 7 
	0 3 0.16263925278944502 1 0.32615827635104355 1 0.49092214335528356 1 0.6576707401172488 1 
	0.82722117837228804 1 1 3 
	0.38500000000000001 0.28782049704724411 0.18794526857433075 1 
	0.38406854010344704 0.28781742435404645 0.18793049751577651 1 
	0.382298137915632 0.28775440245525263 0.18759980030280912 1 
	0.37983107030089597 0.28746663194693706 0.18608991512635256 0.99999999999999978 
	0.37783816543302551 0.2870453424194806 0.18385423865966366 1.0000000000000002 
	0.3762995196756882 0.28651394602354602 0.18099309343315928 0.99999999999999978 
	0.37525792194594171 0.28587747711033556 0.17750578298006156 1 
	0.37501472364745908 0.28540487858866292 0.17485197807284433 0.99999999999999989 
	0.375 0.28515317421259834 0.17342643897768159 1 
	0.001 
	cone 0 1.27 0 1 0 0 0 1 0 1 I I 0 1 1 forward I I I I 
	torus 0.38500000000000001 0 0 1 0 0 0.33374999999999999 0.01 0 -1 0 forward_v I I I I 
	nullbs 
	nullbs 
	I I 
	0 
	0 
	0 
	} I I #
point $-1 0.38500000000000001 0.28782049704724411 0.18794526857433075 #
coedge $-1 $436 $484 $316 $396 reversed $485 $-1 #
edge $-1 $397 0 $479 0.34499999999999997 $395 $486 forward 7 unknown #
vertex $-1 $437 $487 #
intcurve-curve $-1 forward { surfintcur full nurbs 3 open 10 
	0 3 0.10754674087318292 1 0.2158079097683237 1 0.32482839003710801 1 0.43475353315409448 1 
	0.54554669232759367 1 0.65740917441841329 1 0.77041775424217696 1 0.88457254890823045 1 0.99999999999999989 3 
	0.029999999999999999 0.2797465551181102 0.13927711549120381 1 
	0.028012503224199483 0.27974607281849345 0.13928142776300395 0.99999999999999989 
	0.024116097127032814 0.27965353460776354 0.13861515992629894 1 
	0.018260948171221838 0.27921234173150872 0.13544619029877361 0.99999999999999978 
	0.013185151922852982 0.27853863134342416 0.1304445955552698 1.0000000000000004 
	0.0088890438615407078 0.2776910463916854 0.12385668784180472 0.99999999999999989 
	0.0055163646453549441 0.27674953457505191 0.11609044542299646 1 
	0.0029461042818289349 0.2757380412351324 0.10711742557893118 0.99999999999999956 
	0.0011829279706132856 0.27469966217438474 0.097025936044610586 1.0000000000000002 
	0.0002011971262672988 0.27367562803071155 0.085943172174384505 0.99999999999999978 
	-1.2821181517752611e-005 0.27303317439201819 0.077894521332427857 1.0000000000000002 
	0 0.2727189960629921 0.073692599264740866 1 
	0.001 
	cone 0 1.27 0 1 0 0 0 1 0 1 I I 0 1 1 forward I I I I 
	torus 0.029999999999999999 0 0 1 0 0 0.28249999999999997 0.029999999999999999 0 -1 0 forward_v I I I I 
	nullbs 
	nullbs 
	I I 
	0 
	0 
	0 
	} I I #
face $-1 $488 $485 $3 $-1 $489 forward single #
torus-surface $-1 0.029999999999999999 0 0 1 0 0 0.28249999999999997 0.029999999999999999 0 -1 0 forward_v I I I I #
face $-1 $490 $491 $3 $-1 $492 forward single #
loop $-1 $-1 $493 $320 #
cone-surface $-1 0 -0.6349999999999999 -1.0998522628062373 1 0 0 0 1 0 1 I I 0 1 1 forward I I I I #
coedge $-1 $494 $474 $374 $457 forward $321 $-1 #
coedge $-1 $326 $323 $495 $496 forward $262 $-1 #
coedge $-1 $323 $326 $473 $497 forward $262 $-1 #
coedge $-1 $474 $494 $323 $408 reversed $321 $-1 #
edge $-1 $498 6.2294212269783915e-017 $499 1.0015599443733616 $323 $500 forward 7 unknown #
coedge $-1 $495 $329 $324 $410 forward $402 $-1 #
edge $-1 $333 0 $413 0.34500000000000003 $324 $501 forward 7 unknown #
coedge $-1 $331 $473 $325 $412 reversed $216 $-1 #
edge $-1 $334 0 $414 0.34500000000000003 $325 $502 forward 7 unknown #
vertex $-1 $327 $503 #
vertex $-1 $497 $504 #
ellipse-curve $-1 0.375 1.3877787807814457e-017 -1.3877787807814457e-017 1 -1.0945630821114131e-017 -1.7729813697489418e-016 -5.5511151231257827e-017 -0.019255757377853368 -0.31190618109906904 1 I I #
coedge $-1 $329 $505 $336 $422 reversed $402 $-1 #
vertex $-1 $422 $506 #
intcurve-curve $-1 forward { surfintcur full nurbs 3 open 10 
	0 3 0.10766551298268187 1 0.21610829659546507 1 0.32532797896746901 1 0.43543044707306178 1 
	0.54630920473579103 1 0.65812809258531468 1 0.77100565566600643 1 0.88498387597909778 1 1 3 
	0.029999999999999999 -0.019255757377853351 -0.31190618109906904 1 
	0.027983956484109396 -0.019249865532073501 -0.31190931760419621 1 
	0.024029818941786667 -0.019796506550991716 -0.31148371521956564 0.99999999999999978 
	0.018059990311359631 -0.02241478531719748 -0.3094437294624684 1 
	0.012929288908796095 -0.02654689668445883 -0.30625475686762949 1 
	0.0086323569267975075 -0.03196996653649925 -0.30212232223859675 1 
	0.0053149985847262557 -0.038307544635946107 -0.29736745138656839 1 
	0.0028257210332121785 -0.045560435300726128 -0.29202097477558209 1.0000000000000002 
	0.0011288113901223385 -0.053694744141624576 -0.28614436167084129 0.99999999999999978 
	0.00018798531374948575 -0.062697941222493198 -0.27978111147072854 1.0000000000000002 
	-1.4263802563560269e-005 -0.069169925592058881 -0.275323876849281 1 
	0 -0.072539834997323832 -0.27302787831750996 1 
	0.001 
	cone 0 -0.6349999999999999 -1.0998522628062373 1 0 0 0 1 0 1 I I 0 1 1 forward I I I I 
	torus 0.029999999999999999 0 0 1 0 0 0.28249999999999997 0.029999999999999999 0 -1 0 forward_v I I I I 
	nullbs 
	nullbs 
	I I 
	0 
	0 
	0 
	} I I #
intcurve-curve $-1 forward { surfintcur full nurbs 3 open 10 
	0 3 0.11494983389522465 1 0.2290808876804728 1 0.34224266011264171 1 0.45435789794089898 1 
	0.56538074976362185 1 0.67537081921534736 1 0.7843091749599449 1 0.89247091108795329 1 0.99999999999999989 3 
	0 0.27271899606299221 -0.073692599264740435 1 
	-1.7162934332897465e-005 0.27301868590714018 -0.077716355566598311 1 
	0.00018492285353948227 0.27364040579843751 -0.085520251734169883 1 
	0.0011302395030546356 0.27466044509550003 -0.096628523689311199 1 
	0.0028786728805490379 0.27570753291393979 -0.10683851808539586 0.99999999999999989 
	0.0054818499447125907 0.27674101429334419 -0.11602327091893455 1 
	0.0089406291098031217 0.27770517618142782 -0.12397190872206969 1 
	0.013296690971273067 0.27855676572065624 -0.13058146300827084 1 
	0.018343709711410045 0.27921925673240167 -0.13549585673839157 1.0000000000000002 
	0.024119308398208614 0.27965315080031133 -0.13861246313858108 0.99999999999999978 
	0.028009725069849885 0.27974532098897992 -0.1392758403297242 0.99999999999999989 
	0.029999999999999999 0.27974655511811031 -0.13927711549120361 1 
	0.001 
	cone 0 1.27 0 1 0 0 0 1 0 1 I I 0 1 1 forward I I I I 
	torus 0.029999999999999999 0 0 1 0 0 0.28249999999999997 0.029999999999999999 0 -1 0 forward_v I I I I 
	nullbs 
	nullbs 
	I I 
	0 
	0 
	0 
	} I I #
point $-1 0.029999999999999957 -0.019255757377853355 -0.31190618109906904 #
point $-1 0.029999999999999957 0.27974655511811025 -0.13927711549120375 #
edge $-1 $417 0 $428 0.14751892390514418 $336 $507 forward 7 unknown #
ellipse-curve $-1 0 0 0 -1 0 0 0 0.27271899606299221 -0.073692599264740435 1 I I #
point $-1 0 0.27271899606299221 -0.073692599264740435 #
coedge $-1 $508 $340 $505 $509 forward $427 $-1 #
coedge $-1 $340 $508 $342 $431 forward $427 $-1 #
loop $-1 $-1 $340 $510 #
vertex $-1 $341 $511 #
ellipse-curve $-1 0 -1.3877787807814457e-016 6.9388939039072284e-018 -1 0 0 0 -0.20017916106566763 -0.19933527905276935 1 I I #
coedge $-1 $512 $342 $513 $514 forward $344 $-1 #
edge $-1 $515 0 $345 1 $426 $516 forward 7 unknown #
coedge $-1 $343 $517 $518 $519 reversed $344 $-1 #
coedge $-1 $517 $460 $462 $520 reversed $344 $-1 #
face $-1 $482 $344 $3 $-1 $521 reversed single #
point $-1 0 -0.20017916106566827 0.19933527905276885 #
coedge $-1 $518 $395 $347 $437 forward $485 $-1 #
edge $-1 $397 0 $438 1.1705125168554367 $436 $522 forward 7 unknown #
vertex $-1 $519 $523 #
intcurve-curve $-1 forward { surfintcur full nurbs 3 open 10 
	0 3 0.11542875538738916 1 0.22958384124743497 1 0.34259385397172354 1 0.45445921922279747 1 
	0.56525388688717915 1 0.67517802106180325 1 0.78419592683150852 1 0.89245450968201545 1 1 3 
	0 -0.072539834997323846 0.27302787831750996 1 
	-1.2812415326973211e-005 -0.069057571516830535 0.2754011889355541 1 
	0.00020124799572617032 -0.062407859898311595 0.27998231614694286 0.99999999999999978 
	0.0011830687584307741 -0.05332199877535649 0.28641050247398891 1 
	0.0029465009352962605 -0.045100878602893232 0.29235611668245437 1.0000000000000002 
	0.0055178649634252241 -0.037833764889713017 0.29772011780744745 1 
	0.0088918960985320452 -0.031578092212126478 0.30241917002168839 1 
	0.013188533662957389 -0.026297732680239327 0.30644632695163598 1 
	0.018263562959466406 -0.022304973620964407 0.30952913101039947 1.0000000000000002 
	0.024116915216206472 -0.019782411116834112 0.3114947282241145 1.0000000000000002 
	0.028012737993803528 -0.01925184089560817 0.31190787457425756 1 
	0.029999999999999999 -0.019255757377853358 0.31190618109906904 1 
	0.001 
	cone 0 -0.63500000000000023 1.0998522628062368 1 0 0 0 1 0 1 I I 0 1 1 forward I I I I 
	torus 0.029999999999999999 0 0 1 0 0 0.28249999999999997 0.029999999999999999 0 -1 0 forward_v I I I I 
	nullbs 
	nullbs 
	I I 
	0 
	0 
	0 
	} I I #
torus-surface $-1 0.80999999999999994 0 0 1 0 0 0.33375000000000005 0.01 0 -1 0 forward_v I I I I #
edge $-1 $382 0 $358 3.1415926535897931 $373 $524 forward 7 unknown #
ellipse-curve $-1 1.0437499999999997 0.39375000000000021 4.8218875181756144e-017 2.3248030959600751e-031 -1.22460635382238e-016 1 2.2204460492503131e-016 -0.050000000000000211 -6.1230317691119257e-018 1 I I #
ellipse-curve $-1 1.04375 0 0 1 0 0 0 0.34375 4.2095843412644218e-017 1 I I #
point $-1 1.04375 -0.34375 -8.4191686825288437e-017 #
point $-1 1.09375 -0.39374999999999999 -9.6437750363512202e-017 #
ellipse-curve $-1 1.09375 0 -6.9388939039072284e-017 -1 0 0 0 0.39374999999999999 1.1760781422082838e-016 1 I I #
point $-1 1.09375 0.39374999999999999 4.8218875181756101e-017 #
coedge $-1 $460 $364 $367 $452 forward $344 $-1 #
coedge $-1 $364 $468 $366 $451 reversed $344 $-1 #
ellipse-curve $-1 0.79999999999999993 -0.63499999999999845 1.0998522628062344 1 0 0 0 0.34223171105115519 -0.93961558945719537 1 I I #
edge $-1 $370 0 $471 0.99999999999999989 $449 $525 forward 7 unknown #
edge $-1 $369 0 $470 1 $448 $526 forward 7 unknown #
point $-1 0.79999999999999993 0.0076151147362448768 0.33366311232672075 #
point $-1 0.79999999999999993 -0.29276828894884327 0.16023667334903902 #
coedge $-1 $527 $373 $381 $466 forward $282 $-1 #
coedge $-1 $374 $528 $529 $530 reversed $282 $-1 #
edge $-1 $458 0 $531 0.9374399006050913 $374 $532 forward 7 unknown #
vertex $-1 $375 $533 #
straight-curve $-1 0.38499999999999995 0.28782049704724399 -0.18794526857433094 1 2.6122894697062508e-016 2.6122894697062508e-016 I I #
coedge $-1 $433 $448 $378 $461 reversed $344 $-1 #
edge $-1 $463 0 $470 0.42499999999999999 $378 $534 forward 7 unknown #
coedge $-1 $379 $390 $433 $520 forward $391 $-1 #
vertex $-1 $461 $535 #
ellipse-curve $-1 0.38500000000000001 0 0 1 0 0 0 0.28782049704724411 0.18794526857433075 1 I I #
coedge $-1 $381 $384 $536 $537 forward $250 $-1 #
edge $-1 $358 0 $538 0.65874999999999995 $381 $539 forward 7 unknown #
point $-1 1.04375 0.34375 4.2095843412644218e-017 #
coedge $-1 $449 $540 $384 $469 forward $344 $-1 #
edge $-1 $541 5.5511151231257827e-017 $471 0.42499999999999999 $384 $542 forward 7 unknown #
vertex $-1 $461 $543 #
vertex $-1 $469 $544 #
ellipse-curve $-1 0.80999999999999994 0 0 1 0 0 0 0.018855128582837586 0.34323249645994286 1 I I #
coedge $-1 $411 $387 $406 $497 reversed $216 $-1 #
coedge $-1 $404 $407 $387 $475 forward $321 $-1 #
edge $-1 $498 0 $458 1 $474 $545 forward 7 unknown #
coedge $-1 $546 $388 $484 $547 forward $478 $-1 #
coedge $-1 $388 $546 $390 $481 forward $478 $-1 #
loop $-1 $-1 $477 $488 #
vertex $-1 $547 $548 #
ellipse-curve $-1 0.375 1.2699999999997216 4.3964831775156199e-014 1 0 0 0 -0.98484682578712313 0.17342643897763754 1 I I #
edge $-1 $549 5.2560741602630217e-016 $392 1.0015599443733616 $477 $550 forward 7 unknown #
face $-1 $258 $391 $3 $-1 $551 forward single #
point $-1 0.375 0.28515317421259845 0.17342643897768151 #
coedge $-1 $395 $518 $476 $547 reversed $485 $-1 #
loop $-1 $-1 $484 $399 #
straight-curve $-1 0.029999999999999957 0.2797465551181102 0.13927711549120381 1 3.2180377525366861e-016 -3.2180377525366861e-016 I I #
point $-1 0.029999999999999957 0.2797465551181102 0.13927711549120381 #
face $-1 $144 $478 $3 $-1 $552 reversed single #
cone-surface $-1 -0.067187499999999997 0 0 1 0 0 0 -0.3125 0 1 I I 0 1 0.3125 forward I I I I #
face $-1 $553 $554 $3 $-1 $555 reversed single #
loop $-1 $-1 $556 $401 #
torus-surface $-1 0.80999999999999994 0 0 1 0 0 0.33375000000000005 0.01 0 -1 0 forward_v I I I I #
coedge $-1 $529 $495 $494 $557 reversed $402 $-1 #
coedge $-1 $407 $404 $493 $557 forward $321 $-1 #
coedge $-1 $493 $409 $405 $496 reversed $402 $-1 #
edge $-1 $499 0 $413 0.034576392624483504 $405 $558 forward 7 unknown #
edge $-1 $414 0 $498 0.034576392624504876 $406 $559 forward 7 unknown #
vertex $-1 $497 $560 #
vertex $-1 $496 $561 #
ellipse-curve $-1 0.375 -6.9388939039072284e-018 1.3877787807814457e-017 -1 0 0 0 0.2851531742125985 -0.17342643897768145 1 I I #
straight-curve $-1 0.029999999999999957 -0.019255757377853355 -0.31190618109906904 1 0 0 I I #
straight-curve $-1 0.029999999999999957 0.27974655511811025 -0.13927711549120375 1 1.6090188762683431e-016 3.2180377525366861e-016 I I #
point $-1 0.375 -0.019255757377853708 -0.31190618109906898 #
point $-1 0.375 0.27974655511811025 -0.13927711549120378 #
coedge $-1 $416 $562 $425 $509 reversed $402 $-1 #
point $-1 0 -0.07253983499732429 -0.27302787831750985 #
ellipse-curve $-1 0 -0.6349999999999999 -1.0998522628062373 1 0 0 0 0.56246016500267559 0.82682438448872742 1 I I #
coedge $-1 $426 $425 $563 $564 reversed $427 $-1 #
edge $-1 $428 0 $565 1 $425 $566 forward 7 unknown #
face $-1 $81 $427 $3 $-1 $567 forward single #
point $-1 0 -0.20017916106566785 -0.19933527905276927 #
coedge $-1 $540 $430 $568 $569 reversed $344 $-1 #
coedge $-1 $563 $570 $430 $514 reversed $571 $-1 #
edge $-1 $515 0 $572 0.34500000000000003 $513 $573 forward 7 unknown #
vertex $-1 $514 $574 #
intcurve-curve $-1 forward { surfintcur full nurbs 3 open 10 
	0 3 0.10752743629135111 1 0.21568769639699367 1 0.32462397441405688 1 0.43461007496074067 1 
	0.54562765963718951 1 0.6577377855840294 1 0.77089698910756355 1 0.88503272627743312 1 1 3 
	0.029999999999999999 -0.26049079774025691 0.17262906560786495 1 
	0.028010221683342655 -0.26048911754629239 0.17262861853878436 1 
	0.024120648292153556 -0.25986879083490005 0.1728803797100063 1.0000000000000004 
	0.018345746548908502 -0.25695382369612185 0.17406249516763234 1 
	0.01329926837912743 -0.25236799024313256 0.17594537266571705 1.0000000000000002 
	0.0089441667485663789 -0.2462211933516317 0.17851135349006014 1 
	0.0054857956873815483 -0.23885952612082814 0.18164884911869109 1.0000000000000002 
	0.0028821454416608642 -0.23039263303229487 0.18534428932624369 0.99999999999999989 
	0.0011324640319070049 -0.22102931200285961 0.18954124180364024 1.0000000000000002 
	0.00018544894325946197 -0.21089645032309071 0.19421302559435616 1 
	-1.7065646924142511e-005 -0.20381917509081771 0.19758032818205179 1 
	0 -0.20017916106566844 0.19933527905276868 1 
	0.001 
	cone 0 -0.63500000000000023 1.0998522628062368 1 0 0 0 1 0 1 I I 0 1 1 forward I I I I 
	torus 0.029999999999999999 0 0 1 0 0 0.28249999999999997 0.029999999999999999 0 -1 0 forward_v I I I I 
	nullbs 
	nullbs 
	I I 
	0 
	0 
	0 
	} I I #
coedge $-1 $432 $433 $546 $575 reversed $344 $-1 #
coedge $-1 $484 $436 $432 $519 forward $485 $-1 #
edge $-1 $438 0 $576 0.34500000000000003 $518 $577 forward 7 unknown #
edge $-1 $549 0 $463 0.99999999999999989 $462 $578 forward 7 unknown #
cone-surface $-1 0 -0.63500000000000023 1.0998522628062368 1 0 0 0 1 0 1 I I 0 1 1 forward I I I I #
ellipse-curve $-1 0.029999999999999999 0 0 1 0 0 0 0.2797465551181102 0.13927711549120381 1 I I #
point $-1 0.029999999999999957 -0.019255757377853431 0.31190618109906904 #
ellipse-curve $-1 1.04375 0 0 -1 0 0 0 0.34375 4.2095843412644218e-017 1 I I #
intcurve-curve $-1 forward { surfintcur full nurbs 3 open 6 
	0 3 0.20823839648345416 1 0.41195672956675022 1 0.61156550298729317 1 0.80742011435313021 1 
	0.99999999999999989 3 
	0.79999999999999993 -0.29276828894884332 0.16023667334903888 1 
	0.80001674813582202 -0.29439456188541746 0.15964545053504914 0.99999999999999989 
	0.8003644049757187 -0.29739433129447906 0.15856054314582599 1 
	0.80186021496934334 -0.30130649969990492 0.15716834697053089 1 
	0.80410318008172155 -0.30433749256198983 0.15610188643353987 1 
	0.80699194680207142 -0.30627094949238515 0.15542793430920837 1 
	0.8089706886122876 -0.30667417819659165 0.15528727798285777 1 
	0.80999999999999994 -0.30667562563008183 0.15528722788561181 1 
	0.001 
	torus 0.80999999999999994 0 0 1 0 0 0.33375000000000005 0.01 0 -1 0 forward_v I I I I 
	cone 0 -0.63500000000000023 1.0998522628062368 1 0 0 0 1 0 1 I I 0 1 1 forward I I I I 
	nullbs 
	nullbs 
	I I 
	0 
	0 
	0 
	} I I #
intcurve-curve $-1 forward { surfintcur full nurbs 3 open 6 
	0 3 0.20823839648345377 1 0.4119567295667505 1 0.61156550298729284 1 0.8074201143531281 1 
	1 3 
	0.79999999999999993 0.0076151147362448334 0.33366311232672075 1 
	0.80001674813582202 0.0089402651807439695 0.33477589459628609 1 
	0.8003644049757187 0.011379707245095507 0.33683131741541722 1 
	0.80186021496934312 0.014541468702665403 0.33952325655075161 1.0000000000000002 
	0.80410318008172188 0.016980547050875663 0.34161494309951074 0.99999999999999978 
	0.80699194680207076 0.018530935176678927 0.34295238985619036 1 
	0.80897068861228738 0.01885436148060483 0.34323126799439296 1 
	0.80999999999999994 0.018855128582837586 0.34323249645994286 1 
	0.001 
	cone 0 -0.63500000000000023 1.0998522628062368 1 0 0 0 1 0 1 I I 0 1 1 forward I I I I 
	torus 0.80999999999999994 0 0 1 0 0 0.33375000000000005 0.01 0 -1 0 forward_v I I I I 
	nullbs 
	nullbs 
	I I 
	0 
	0 
	0 
	} I I #
coedge $-1 $579 $455 $580 $581 reversed $282 $-1 #
coedge $-1 $456 $579 $582 $583 forward $282 $-1 #
coedge $-1 $584 $493 $456 $530 forward $402 $-1 #
edge $-1 $531 5.5511151231257827e-017 $585 0.42499999999999999 $456 $586 forward 7 unknown #
vertex $-1 $457 $587 #
ellipse-curve $-1 0.38500000000000001 0 0 -1 0 0 0 0.28782049704724416 -0.18794526857433072 1 I I #
point $-1 0.38500000000000001 0.28782049704724416 -0.18794526857433072 #
straight-curve $-1 0.38499999999999995 0.018855128582837583 0.34323249645994286 1 0 0 I I #
point $-1 0.38499999999999995 0.018855128582837583 0.34323249645994286 #
coedge $-1 $588 $580 $465 $537 reversed $589 $-1 #
edge $-1 $541 0 $538 0.46871995030254554 $465 $590 forward 7 unknown #
vertex $-1 $466 $591 #
straight-curve $-1 1.04375 -0.34375 -8.4191686825288437e-017 -1 0 0 I I #
coedge $-1 $468 $512 $588 $592 reversed $344 $-1 #
vertex $-1 $537 $593 #
straight-curve $-1 0.38499999999999995 -0.30667562563008177 0.15528722788561181 1 0 -6.5307236742656269e-017 I I #
point $-1 0.80999999999999994 0.018855128582837583 0.34323249645994286 #
point $-1 0.80999999999999994 -0.30667562563008177 0.15528722788561178 #
intcurve-curve $-1 forward { surfintcur full nurbs 3 open 7 
	0 3 0.17277882162771224 1 0.34232925988275387 1 0.5090778566447145 1 0.67384172364895734 1 
	0.83736074721055487 1 1 3 
	0.375 0.2851531742125985 -0.17342643897768142 1 
	0.37501472364745908 0.28540487858866298 -0.17485197807284417 1 
	0.37525792194594165 0.28587747711033551 -0.17750578298006134 1.0000000000000002 
	0.37629951967568842 0.28651394602354641 -0.1809930934331597 0.99999999999999978 
	0.37783816543302512 0.28704534241948049 -0.18385423865966313 1.0000000000000002 
	0.37983107030089608 0.28746663194693706 -0.18608991512635265 1.0000000000000002 
	0.38229813791563189 0.28775440245525274 -0.18759980030280898 1 
	0.3840685401034471 0.28781742435404656 -0.18793049751577642 0.99999999999999989 
	0.38500000000000001 0.28782049704724416 -0.18794526857433072 1 
	0.001 
	cone 0 1.27 0 1 0 0 0 1 0 1 I I 0 1 1 forward I I I I 
	torus 0.38500000000000001 0 0 1 0 0 0.33374999999999999 0.01 0 -1 0 forward_v I I I I 
	nullbs 
	nullbs 
	I I 
	0 
	0 
	0 
	} I I #
coedge $-1 $477 $476 $517 $575 forward $478 $-1 #
edge $-1 $479 1.7516230804060189e-048 $576 1.1705125168554362 $476 $594 forward 7 unknown #
point $-1 0.37499999999999994 0.27974655511811031 0.1392771154912037 #
vertex $-1 $575 $595 #
ellipse-curve $-1 0.375 6.9388939039072284e-018 1.1102230246251565e-016 -1 0 0 0 0.007615114736244751 0.33366311232672058 1 I I #
torus-surface $-1 0.38500000000000001 0 0 1 0 0 0.33374999999999999 0.01 0 -1 0 forward_v I I I I #
plane-surface $-1 0.375 0 0 1 0 0 0 -1 0 forward_v I I I I #
face $-1 $596 $589 $3 $-1 $597 forward single #
loop $-1 $-1 $598 $490 #
plane-surface $-1 0.79999999999999993 -0.6349999999999999 -1.0998522628062373 1 0 0 0 1 0 forward_v I I I I #
coedge $-1 $582 $599 $584 $600 forward $491 $-1 #
edge $-1 $531 0 $499 1 $494 $601 forward 7 unknown #
ellipse-curve $-1 0.375 -0.63500000000023082 -1.0998522628065261 1 0 0 0 0.64261511473647548 0.76618915047980551 1 I I #
ellipse-curve $-1 0.375 1.2699999999997487 -3.9176994981460211e-014 1 0 0 0 -0.99025344488163847 -0.13927711549116462 1 I I #
point $-1 0.375 0.28515317421259845 -0.17342643897768145 #
point $-1 0.375 0.0076151147362446998 -0.33366311232672069 #
coedge $-1 $505 $602 $603 $604 reversed $402 $-1 #
coedge $-1 $603 $513 $508 $564 forward $571 $-1 #
edge $-1 $515 0 $565 1.170512516855436 $563 $605 forward 7 unknown #
vertex $-1 $604 $606 #
intcurve-curve $-1 forward { surfintcur full nurbs 3 open 10 
	0 3 0.11447055961423055 1 0.22845514397100061 1 0.34166805369867659 1 0.45393016194729918 1 
	0.56511578886574554 1 0.67522910684237802 1 0.7842502120160314 1 0.8924342227600095 1 1 3 
	0 -0.20017916106566777 -0.19933527905276935 1 
	-1.9491882305499718e-005 -0.20366460496753519 -0.19765387451501212 1 
	0.00017086239454773916 -0.21051221906706263 -0.1943945314873701 1.0000000000000002 
	0.0010691587223331533 -0.22055217204982688 -0.18975822773717738 0.99999999999999989 
	0.0027776951457918085 -0.22996428343248765 -0.1855335710779755 1 
	0.0053649395307019615 -0.23855468616393363 -0.18177992635244536 1 
	0.0088400005647136046 -0.24604976483120988 -0.17858337761650156 1.0000000000000002 
	0.013221823542052714 -0.2522882127725109 -0.17597824660603972 0.99999999999999978 
	0.018312505685683805 -0.25693341099855566 -0.17407077999169218 1.0000000000000002 
	0.024086179296177946 -0.25985905560638689 -0.17288432612676036 1 
	0.027997688000800849 -0.26048744645826705 -0.17262927894293364 1 
	0.029999999999999999 -0.26049079774025674 -0.17262906560786523 1 
	0.001 
	cone 0 -0.6349999999999999 -1.0998522628062373 1 0 0 0 1 0 1 I I 0 1 1 forward I I I I 
	torus 0.029999999999999999 0 0 1 0 0 0.28249999999999997 0.029999999999999999 0 -1 0 forward_v I I I I 
	nullbs 
	nullbs 
	I I 
	0 
	0 
	0 
	} I I #
torus-surface $-1 0.029999999999999999 0 0 1 0 0 0.28249999999999997 0.029999999999999999 0 -1 0 forward_v I I I I #
coedge $-1 $607 $608 $512 $569 forward $609 $-1 #
edge $-1 $610 0 $572 0.034576392624506049 $568 $611 forward 7 unknown #
coedge $-1 $513 $603 $607 $612 reversed $571 $-1 #
loop $-1 $-1 $563 $613 #
vertex $-1 $569 $614 #
straight-curve $-1 0.029999999999999957 -0.26049079774025696 0.17262906560786498 1 1.6090188762683431e-016 8.0450943813417153e-017 I I #
point $-1 0.029999999999999957 -0.26049079774025696 0.17262906560786498 #
edge $-1 $576 0 $549 0.034576392624479937 $546 $615 forward 7 unknown #
vertex $-1 $575 $616 #
straight-curve $-1 0.029999999999999957 -0.019255757377853431 0.31190618109906904 1 0 0 I I #
intcurve-curve $-1 forward { surfintcur full nurbs 3 open 7 
	0 3 0.17277882162770455 1 0.34232925988274399 1 0.50907785664470429 1 0.67384172364895312 1 
	0.8373607472105512 1 0.99999999999999989 3 
	0.375 0.007615114736244758 0.33366311232672069 1 
	0.37501472364745891 0.0087238156187109568 0.3345938642582173 1 
	0.3752579219459416 0.01078577882421201 0.336330049037385 1 
	0.37629951967568781 0.013487643810872894 0.33862490251149352 1.0000000000000002 
	0.37783816543302429 0.015699770062974069 0.34051567790310383 1 
	0.3798310703008958 0.017425277914042962 0.34199836356957503 1 
	0.38229813791563144 0.018588991579493997 0.34300252272846454 1 
	0.38406854010344671 0.018843872817487683 0.34322244990029832 1 
	0.38500000000000001 0.018855128582837659 0.3432324964599428 1 
	0.001 
	cone 0 -0.63500000000000023 1.0998522628062368 1 0 0 0 1 0 1 I I 0 1 1 forward I I I I 
	torus 0.38500000000000001 0 0 1 0 0 0.33374999999999999 0.01 0 -1 0 forward_v I I I I 
	nullbs 
	nullbs 
	I I 
	0 
	0 
	0 
	} I I #
coedge $-1 $528 $527 $617 $618 forward $282 $-1 #
coedge $-1 $536 $619 $527 $581 forward $589 $-1 #
edge $-1 $620 0 $538 0.4687199503025461 $527 $621 forward 7 unknown #
coedge $-1 $622 $556 $528 $583 reversed $491 $-1 #
edge $-1 $623 1.1744508029092563e-016 $585 1.1569552017881026 $528 $624 forward 7 unknown #
coedge $-1 $625 $529 $556 $600 reversed $402 $-1 #
vertex $-1 $530 $626 #
straight-curve $-1 0.38499999999999995 0.018855128582838047 -0.3432324964599428 1 -1.4367592083384379e-015 -1.3061447348531254e-016 I I #
point $-1 0.38500000000000001 0.018855128582838047 -0.3432324964599428 #
coedge $-1 $627 $536 $540 $592 forward $589 $-1 #
loop $-1 $-1 $627 $553 #
ellipse-curve $-1 0.38500000000000001 0 0 1 0 0 0 -0.30667562563008177 0.15528722788561181 1 I I #
point $-1 0.38500000000000001 -0.34375 0 #
edge $-1 $541 0 $610 1 $588 $628 forward 7 unknown #
point $-1 0.38500000000000001 -0.30667562563008177 0.15528722788561181 #
ellipse-curve $-1 0.375 -9.0205620750793969e-017 -2.0816681711721685e-016 1 1.5901750607446844e-016 7.9169874135916263e-017 -5.5511151231257827e-017 0.27974655511811042 0.13927711549120392 1 I I #
point $-1 0.375 0.0076151147362449332 0.33366311232672069 #
face $-1 $613 $609 $3 $-1 $629 reversed single #
torus-surface $-1 0.38500000000000001 0 0 1 0 0 0.33374999999999999 0.01 0 -1 0 forward_v I I I I #
coedge $-1 $630 $630 $599 $631 reversed $554 $-1 #
coedge $-1 $556 $622 $598 $631 forward $491 $-1 #
edge $-1 $632 0 $585 0.99999999999999989 $584 $633 forward 7 unknown #
intcurve-curve $-1 forward { surfintcur full nurbs 3 open 7 
	0 3 0.16263925278944469 1 0.32615827635104361 1 0.49092214335528911 1 0.65767074011724747 1 
	0.82722117837229225 1 1 3 
	0.38500000000000001 0.018855128582838047 -0.3432324964599428 1 
	0.3840685401034471 0.018843872817487964 -0.34322244990029849 1 
	0.38229813791563211 0.018588991579494153 -0.34300252272846465 1.0000000000000002 
	0.3798310703008963 0.017425277914042931 -0.34199836356957525 0.99999999999999978 
	0.37783816543302484 0.015699770062974728 -0.34051567790310439 1.0000000000000002 
	0.37629951967568859 0.013487643810874077 -0.33862490251149446 0.99999999999999989 
	0.37525792194594165 0.010785778824212042 -0.33633004903738578 1 
	0.37501472364745897 0.0087238156187111233 -0.33459386425821758 1 
	0.375 0.0076151147362450615 -0.33366311232672069 1 
	0.001 
	cone 0 -0.6349999999999999 -1.0998522628062373 1 0 0 0 1 0 1 I I 0 1 1 forward I I I I 
	torus 0.38500000000000001 0 0 1 0 0 0.33374999999999999 0.01 0 -1 0 forward_v I I I I 
	nullbs 
	nullbs 
	I I 
	0 
	0 
	0 
	} I I #
coedge $-1 $562 $634 $635 $636 reversed $402 $-1 #
coedge $-1 $570 $563 $562 $604 forward $571 $-1 #
edge $-1 $565 4.163336342344337e-017 $637 0.34499999999999997 $603 $638 forward 7 unknown #
ellipse-curve $-1 0.029999999999999999 0 0 1 0 0 0 -0.26049079774025691 0.17262906560786495 1 I I #
point $-1 0.029999999999999999 -0.26049079774025674 -0.17262906560786523 #
coedge $-1 $635 $568 $570 $612 forward $609 $-1 #
coedge $-1 $568 $635 $627 $639 forward $609 $-1 #
loop $-1 $-1 $607 $596 #
vertex $-1 $569 $640 #
ellipse-curve $-1 0.375 -0.6349999999998952 1.0998522628059697 1 0 0 0 0.34223171105105188 -0.93961558945693069 1 I I #
edge $-1 $572 1.4210854715202016e-016 $637 1.1705125168554378 $607 $641 forward 7 unknown #
face $-1 $510 $571 $3 $-1 $642 forward single #
point $-1 0.375 -0.26049079774025696 0.17262906560786498 #
ellipse-curve $-1 0.375 -0.63500000000029477 1.0998522628066043 1 0 0 0 0.61574424262244143 -0.78794608170753522 1 I I #
point $-1 0.375 -0.019255757377853375 0.31190618109906904 #
coedge $-1 $634 $643 $579 $618 reversed $402 $-1 #
edge $-1 $620 5.5511151231257827e-017 $623 0.42499999999999999 $579 $644 forward 7 unknown #
coedge $-1 $580 $627 $634 $645 forward $589 $-1 #
vertex $-1 $618 $646 #
ellipse-curve $-1 0.38500000000000001 0 0 -1 0 0 0 -0.30667562563008166 -0.15528722788561197 1 I I #
coedge $-1 $599 $582 $643 $647 reversed $491 $-1 #
vertex $-1 $583 $648 #
ellipse-curve $-1 0.80999999999999994 0 0 1 0 0 0 -0.30667562563008172 -0.15528722788561208 1 I I #
coedge $-1 $643 $584 $630 $649 forward $402 $-1 #
point $-1 0.80999999999999994 0.018855128582837437 -0.34323249645994286 #
coedge $-1 $619 $588 $608 $639 reversed $589 $-1 #
intcurve-curve $-1 forward { surfintcur full nurbs 3 open 7 
	0 3 0.16263925278944708 1 0.3261582763510365 1 0.49092214335528922 1 0.65767074011725746 1 
	0.82722117837228959 1 1 3 
	0.38500000000000001 -0.30667562563008177 0.15528722788561181 1 
	0.38406854010344671 -0.30666129717153401 0.1552919523845217 1 
	0.3822981379156315 -0.30634339403474659 0.15540272242565537 1 
	0.37983107030089713 -0.30489190986098103 0.15590844844322199 1 
	0.37783816543302479 -0.3027451124824555 0.15666143924344134 0.99999999999999989 
	0.37629951967568775 -0.30000158983441838 0.15763180907833493 1 
	0.37525792194594182 -0.29666325593454868 0.15882426605732405 0.99999999999999989 
	0.37501472364745908 -0.29412869420737447 0.15974188618537311 1 
	0.375 -0.29276828894884332 0.16023667334903888 1 
	0.001 
	cone 0 -0.63500000000000023 1.0998522628062368 1 0 0 0 1 0 1 I I 0 1 1 forward I I I I 
	torus 0.38500000000000001 0 0 1 0 0 0.33374999999999999 0.01 0 -1 0 forward_v I I I I 
	nullbs 
	nullbs 
	I I 
	0 
	0 
	0 
	} I I #
plane-surface $-1 0.375 0 0 1 0 0 0 -1 0 forward_v I I I I #
coedge $-1 $598 $598 $625 $649 reversed $554 $-1 #
edge $-1 $650 3.7376527361870379e-016 $632 1.092835158019833 $598 $651 forward 7 unknown #
vertex $-1 $649 $652 #
intcurve-curve $-1 forward { surfintcur full nurbs 3 open 6 
	0 3 0.2082383964834543 1 0.411956729566748 1 0.61156550298729595 1 0.80742011435312877 1 
	0.99999999999999989 3 
	0.79999999999999993 0.0076151147362450598 -0.33366311232672063 1 
	0.80001674813582202 0.0089402651807440996 -0.33477589459628621 0.99999999999999989 
	0.80036440497571848 0.011379707245095504 -0.33683131741541755 1.0000000000000002 
	0.80186021496934323 0.014541468702664824 -0.3395232565507515 0.99999999999999989 
	0.80410318008172199 0.016980547050875969 -0.34161494309951101 1 
	0.80699194680207076 0.01853093517667867 -0.34295238985619036 1 
	0.80897068861228738 0.01885436148060465 -0.34323126799439296 1 
	0.80999999999999994 0.01885512858283744 -0.34323249645994286 1 
	0.001 
	torus 0.80999999999999994 0 0 1 0 0 0.33375000000000005 0.01 0 -1 0 forward_v I I I I 
	cone 0 -0.6349999999999999 -1.0998522628062373 1 0 0 0 1 0 1 I I 0 1 1 forward I I I I 
	nullbs 
	nullbs 
	I I 
	0 
	0 
	0 
	} I I #
coedge $-1 $602 $617 $619 $645 reversed $402 $-1 #
coedge $-1 $608 $607 $602 $636 forward $609 $-1 #
edge $-1 $637 0 $653 0.034576392624514181 $635 $654 forward 7 unknown #
vertex $-1 $636 $655 #
straight-curve $-1 0.029999999999999957 -0.26049079774025657 -0.17262906560786551 1 0 0 I I #
edge $-1 $653 -2.4917684907913556e-016 $610 1.0015599443733609 $608 $656 forward 7 unknown #
point $-1 0.375 -0.29276828894884332 0.16023667334903899 #
ellipse-curve $-1 0.375 -1.6653345369377348e-016 6.9388939039072284e-018 1 -1.4807187525335448e-016 9.8128262838977866e-017 -5.5511151231257827e-017 -0.26049079774025674 0.17262906560786501 1 I I #
cone-surface $-1 -0.067187499999999997 0 0 1 0 0 0 -0.3125 0 1 I I 0 1 0.3125 forward I I I I #
coedge $-1 $617 $625 $622 $647 forward $402 $-1 #
straight-curve $-1 0.38499999999999995 -0.30667562563008161 -0.15528722788561206 1 0 0 I I #
edge $-1 $653 0 $620 1 $619 $657 forward 7 unknown #
point $-1 0.38500000000000001 -0.30667562563008166 -0.15528722788561197 #
edge $-1 $650 0 $623 0.99999999999999989 $643 $658 forward 7 unknown #
point $-1 0.80999999999999994 -0.30667562563008161 -0.15528722788561206 #
edge $-1 $632 0 $650 0.34861554060201261 $630 $659 forward 7 unknown #
vertex $-1 $649 $660 #
ellipse-curve $-1 0.79999999999999993 -1.1102230246251565e-016 0 1 0 0 0 -0.29276828894884294 -0.16023667334903935 1 I I #
point $-1 0.79999999999999993 0.0076151147362445437 -0.33366311232672063 #
vertex $-1 $639 $661 #
ellipse-curve $-1 0.375 -0.63499999999981549 -1.0998522628057552 1 0 0 0 0.37450920225955892 0.9272231971978897 1 I I #
point $-1 0.37499999999999994 -0.26049079774025657 -0.17262906560786551 #
ellipse-curve $-1 0.375 5.5511151231257827e-017 6.9388939039072284e-018 -1 0 0 0 -0.29276828894884316 -0.16023667334903927 1 I I #
intcurve-curve $-1 forward { surfintcur full nurbs 3 open 7 
	0 3 0.1727788216277108 1 0.34232925988275159 1 0.50907785664471183 1 0.67384172364895734 1 
	0.83736074721055509 1 1 3 
	0.375 -0.2927682889488431 -0.16023667334903927 1 
	0.37501472364745903 -0.29412869420737414 -0.15974188618537358 1 
	0.37525792194594171 -0.29666325593454829 -0.15882426605732464 0.99999999999999978 
	0.37629951967568825 -0.3000015898344196 -0.15763180907833482 1.0000000000000002 
	0.37783816543302501 -0.30274511248245523 -0.15666143924344178 0.99999999999999989 
	0.37983107030089619 -0.30489190986098003 -0.15590844844322263 1 
	0.38229813791563205 -0.30634339403474653 -0.15540272242565589 1 
	0.38406854010344704 -0.30666129717153401 -0.15529195238452206 1 
	0.38500000000000001 -0.30667562563008166 -0.15528722788561197 1 
	0.001 
	cone 0 -0.6349999999999999 -1.0998522628062373 1 0 0 0 1 0 1 I I 0 1 1 forward I I I I 
	torus 0.38500000000000001 0 0 1 0 0 0.33374999999999999 0.01 0 -1 0 forward_v I I I I 
	nullbs 
	nullbs 
	I I 
	0 
	0 
	0 
	} I I #
intcurve-curve $-1 forward { surfintcur full nurbs 3 open 6 
	0 3 0.20823839648345494 1 0.41195672956674634 1 0.61156550298729551 1 0.80742011435312766 1 
	0.99999999999999989 3 
	0.79999999999999993 -0.29276828894884305 -0.16023667334903935 1 
	0.8000167481358218 -0.29439456188541729 -0.15964545053504955 1 
	0.80036440497571892 -0.29739433129447912 -0.1585605431458264 1 
	0.80186021496934301 -0.30130649969990403 -0.1571683469705317 1 
	0.80410318008172221 -0.30433749256199011 -0.15610188643354028 0.99999999999999989 
	0.80699194680207076 -0.30627094949238459 -0.15542793430920901 1 
	0.80897068861228716 -0.30667417819659132 -0.15528727798285813 1.0000000000000002 
	0.80999999999999994 -0.30667562563008172 -0.15528722788561208 1 
	0.001 
	cone 0 -0.6349999999999999 -1.0998522628062373 1 0 0 0 1 0 1 I I 0 1 1 forward I I I I 
	torus 0.80999999999999994 0 0 1 0 0 0.33375000000000005 0.01 0 -1 0 forward_v I I I I 
	nullbs 
	nullbs 
	I I 
	0 
	0 
	0 
	} I I #
ellipse-curve $-1 0.79999999999999993 -0.63500000000000068 -1.0998522628062388 1 0 0 0 0.64261511473624522 0.76618915047951819 1 I I #
point $-1 0.79999999999999993 -0.29276828894884299 -0.16023667334903946 #
point $-1 0.375 -0.2927682889488431 -0.16023667334903938 #
End-of-ACIS-data 