600 0 1 0           
93 GICL ACIS Healer - Source: /gicl/data5/repository/PTC/V18/reel18/areel/handle_shaft.sat - 6 0 18 ACIS 6.0.3 Solaris 24 Sat Apr 13 21:02:04 2002 
1 9.999999999999999547e-07 1.000000000000000036e-10 
body $-1 $1 $-1 $-1 #
lump $-1 $-1 $2 $0 #
shell $-1 $-1 $-1 $3 $-1 $1 #
face $-1 $4 $5 $2 $-1 $6 reversed single #
face $-1 $7 $8 $2 $-1 $9 forward single #
loop $-1 $-1 $10 $3 #
plane-surface $-1 -61.91249999999999432 0 0 1 0 0 0 -25.39999999999999858 0 forward_v I I I I #
face $-1 $11 $12 $2 $-1 $13 forward single #
loop $-1 $-1 $14 $4 #
cone-surface $-1 -65.00812499999999261 0 0 1 0 0 0 -2.778124999999999734 0 1 I I 0 1 2.778124999999999734 forward I I I I #
coedge $-1 $15 $15 $14 $16 reversed $5 $-1 #
face $-1 $17 $18 $2 $-1 $19 reversed single #
loop $-1 $-1 $20 $7 #
cone-surface $-1 -65.00812499999999261 0 0 1 0 0 0 -2.778124999999999734 0 1 I I 0 1 2.778124999999999734 forward I I I I #
coedge $-1 $21 $22 $10 $16 forward $8 $-1 #
coedge $-1 $10 $10 $23 $24 forward $5 $-1 #
edge $-1 $25 0 $26 3.141592653589793116 $10 $27 forward 7 unknown #
face $-1 $28 $29 $2 $-1 $30 forward single #
loop $-1 $31 $32 $11 #
plane-surface $-1 -53.97499999999999432 0 0 1 0 0 0 -25.39999999999999858 0 forward_v I I I I #
coedge $-1 $33 $34 $35 $36 forward $12 $-1 #
coedge $-1 $37 $14 $33 $38 reversed $8 $-1 #
coedge $-1 $14 $37 $34 $39 forward $8 $-1 #
coedge $-1 $34 $33 $15 $24 reversed $12 $-1 #
edge $-1 $25 0 $26 3.141592653589793116 $15 $40 forward 7 unknown #
vertex $-1 $24 $41 #
vertex $-1 $24 $42 #
ellipse-curve $-1 -61.91249999999999432 0 -1.762479051592435909e-16 1 0 0 0 2.778124999999999734 1.762479051592435909e-16 1 I I #
face $-1 $43 $44 $2 $-1 $45 forward single #
loop $-1 $-1 $46 $17 #
cone-surface $-1 -65.00812499999999261 0 0 1 0 0 0 -3.174999999999999822 0 1 I I 0 1 3.174999999999999822 forward I I I I #
loop $-1 $-1 $47 $11 #
coedge $-1 $48 $48 $49 $50 forward $18 $-1 #
coedge $-1 $23 $20 $21 $38 forward $12 $-1 #
coedge $-1 $20 $23 $22 $39 reversed $12 $-1 #
coedge $-1 $47 $47 $20 $36 reversed $31 $-1 #
edge $-1 $51 1.277635237685567349e-32 $52 3.141592653589793116 $35 $53 forward 7 unknown #
coedge $-1 $22 $21 $47 $54 reversed $8 $-1 #
edge $-1 $52 0 $26 0.3125000000000002776 $21 $55 forward 7 unknown #
edge $-1 $51 0 $25 0.3125000000000002776 $22 $56 forward 7 unknown #
ellipse-curve $-1 -61.91249999999999432 0 1.762479051592435909e-16 -1 0 0 0 2.778124999999999734 -1.762479051592435909e-16 1 I I #
point $-1 -61.91249999999999432 2.778124999999999734 0 #
point $-1 -61.91249999999999432 -2.778124999999999734 0 #
face $-1 $57 $58 $2 $-1 $59 forward single #
loop $-1 $-1 $60 $28 #
cone-surface $-1 -23.49500000000000455 0 0 1 0 0 0 -25.4000000000000874 0 1 I I -0.707106781186548794 0.7071067811865462405 25.4000000000000874 forward I I I I #
coedge $-1 $61 $62 $63 $64 forward $29 $-1 #
coedge $-1 $35 $35 $37 $54 forward $31 $-1 #
coedge $-1 $32 $32 $65 $66 reversed $18 $-1 #
coedge $-1 $67 $61 $32 $50 reversed $29 $-1 #
edge $-1 $68 0 $69 3.141592653589793116 $32 $70 forward 7 unknown #
vertex $-1 $36 $71 #
vertex $-1 $36 $72 #
ellipse-curve $-1 -53.97499999999999432 0 8.812395257962179547e-17 -1 4.060244204343429408e-15 3.684264678920039599e-31 1.127986593019158982e-14 2.778124999999999734 2.520870000916573718e-16 1 I I #
edge $-1 $51 0 $52 3.141592653589793116 $47 $73 forward 7 unknown #
straight-curve $-1 -53.97499999999998721 -2.778124999999999734 -6.804219053425582852e-16 -25.39999999999999858 0 0 I I #
straight-curve $-1 -53.97499999999998721 2.778124999999999734 3.402109526712791426e-16 -25.39999999999999858 0 0 I I #
face $-1 $74 $75 $2 $-1 $76 forward single #
loop $-1 $-1 $77 $43 #
cone-surface $-1 -23.49500000000000455 0 0 1 0 0 0 -25.4000000000000874 0 1 I I -0.707106781186548794 0.7071067811865462405 25.4000000000000874 forward I I I I #
coedge $-1 $78 $79 $80 $81 reversed $44 $-1 #
coedge $-1 $49 $46 $82 $83 forward $29 $-1 #
coedge $-1 $46 $84 $85 $86 forward $29 $-1 #
coedge $-1 $79 $87 $46 $64 reversed $44 $-1 #
edge $-1 $88 7.048598035936261884e-16 $89 0.8480620789814814486 $46 $90 forward 7 unknown #
coedge $-1 $82 $91 $48 $66 forward $75 $-1 #
edge $-1 $68 0 $69 3.141592653589793116 $65 $92 forward 7 unknown #
coedge $-1 $80 $49 $91 $93 reversed $29 $-1 #
vertex $-1 $66 $94 #
vertex $-1 $83 $95 #
ellipse-curve $-1 -53.97499999999999432 0 1.762479051592435909e-16 -1 0 0 0 3.174999999999999822 -1.762479051592435909e-16 1 I I #
point $-1 -53.97499999999998721 2.778124999999999734 3.402109526712791426e-16 #
point $-1 -53.97499999999998721 -2.778124999999999734 -6.804219053425582852e-16 #
ellipse-curve $-1 -53.97499999999999432 0 -8.812395257962179547e-17 1 -4.060244204343429408e-15 -6.260137022498853452e-31 1.127986593019158982e-14 2.778124999999999734 4.283349052509009627e-16 1 I I #
face $-1 $96 $97 $2 $-1 $98 reversed single #
loop $-1 $-1 $99 $57 #
cone-surface $-1 -65.00812499999999261 0 0 1 0 0 0 -3.174999999999999822 0 1 I I 0 1 3.174999999999999822 forward I I I I #
coedge $-1 $100 $101 $102 $103 forward $58 $-1 #
coedge $-1 $104 $60 $105 $106 forward $44 $-1 #
coedge $-1 $60 $63 $107 $108 forward $44 $-1 #
coedge $-1 $109 $67 $60 $81 forward $29 $-1 #
edge $-1 $110 4.382288865261394218e-30 $111 0.8480620789814709015 $80 $112 forward 7 unknown #
coedge $-1 $102 $65 $61 $83 reversed $75 $-1 #
edge $-1 $89 0 $69 2.075000000000000178 $82 $113 forward 7 unknown #
coedge $-1 $62 $109 $114 $115 reversed $29 $-1 #
coedge $-1 $116 $107 $62 $86 reversed $117 $-1 #
edge $-1 $118 0 $88 0.6375000000000001776 $62 $119 forward 7 unknown #
coedge $-1 $63 $104 $100 $120 reversed $44 $-1 #
vertex $-1 $86 $121 #
vertex $-1 $103 $122 #
ellipse-curve $-1 -1.269999999999996909 -8.81239525796218004e-16 1.057487430955461447e-15 -1 2.937374022976097384e-16 3.330669073875470607e-16 -1.409983241273948727e-15 -2.100065103157517488 -2.381250000000003642 1 I I #
coedge $-1 $65 $99 $67 $93 forward $75 $-1 #
ellipse-curve $-1 -53.97499999999999432 0 -1.762479051592435909e-16 1 0 0 0 3.174999999999999822 1.762479051592435909e-16 1 I I #
edge $-1 $110 0 $68 2.075000000000000178 $91 $123 forward 7 unknown #
point $-1 -53.97499999999999432 3.174999999999999822 0 #
point $-1 -53.97499999999999432 -3.174999999999999822 0 #
face $-1 $124 $125 $2 $-1 $126 forward single #
loop $-1 $127 $128 $74 #
plane-surface $-1 0 -2.10006510315751882 2.381249999999999645 0 0 -1 0 25.39999999999999858 0 forward_v I I I I #
coedge $-1 $91 $129 $130 $131 reversed $75 $-1 #
coedge $-1 $132 $77 $87 $120 forward $58 $-1 #
coedge $-1 $77 $130 $133 $134 forward $58 $-1 #
coedge $-1 $135 $82 $77 $103 reversed $75 $-1 #
edge $-1 $136 -3.524299017968134886e-16 $89 0.8480620789814814486 $102 $137 forward 7 unknown #
coedge $-1 $87 $78 $138 $139 forward $44 $-1 #
coedge $-1 $130 $132 $78 $106 reversed $58 $-1 #
edge $-1 $110 1.54536659319269149e-16 $140 0.07071067811865462682 $78 $141 forward 7 unknown #
coedge $-1 $85 $142 $79 $108 reversed $117 $-1 #
edge $-1 $88 0 $111 1 $79 $143 forward 7 unknown #
coedge $-1 $84 $80 $142 $144 reversed $29 $-1 #
vertex $-1 $93 $145 #
vertex $-1 $144 $146 #
ellipse-curve $-1 -1.269999999999996021 -3.524958103184872016e-14 1.758072853963454665e-14 -1 -6.66133814775085937e-16 3.606965859283396067e-30 -2.114974861910922894e-15 3.175000000000038014 -1.71919160222959444e-14 1 I I #
straight-curve $-1 -1.269999999999995355 -3.174999999999999822 -7.776250346772095392e-16 -25.39999999999999858 0 0 I I #
coedge $-1 $147 $147 $84 $115 forward $148 $-1 #
edge $-1 $118 -2.64322426347609833e-16 $149 1.445468495626830885 $84 $150 forward 7 unknown #
coedge $-1 $142 $85 $147 $151 forward $117 $-1 #
loop $-1 $152 $116 $153 #
vertex $-1 $86 $154 #
straight-curve $-1 -17.46249999999999858 -2.10006510315751882 -2.381249999999999645 25.39999999999999858 0 0 I I #
edge $-1 $89 1.54536659319269149e-16 $155 0.07071067811865462682 $87 $156 forward 7 unknown #
point $-1 -1.269999999999994689 -2.10006510315751882 -2.381249999999999645 #
point $-1 -1.269999999999995355 -3.174999999999999822 -7.776250346772095392e-16 #
straight-curve $-1 -1.269999999999995355 3.174999999999999822 3.888125173386047696e-16 -25.39999999999999858 0 0 I I #
face $-1 $157 $158 $2 $-1 $159 reversed single #
loop $-1 $-1 $160 $96 #
plane-surface $-1 -17.46249999999999858 0 0 1 0 0 0 25.39999999999999858 0 forward_v I I I I #
loop $-1 $-1 $161 $74 #
coedge $-1 $162 $163 $160 $164 reversed $97 $-1 #
coedge $-1 $99 $165 $163 $166 forward $75 $-1 #
coedge $-1 $101 $105 $99 $131 forward $58 $-1 #
edge $-1 $110 -4.695309498494495456e-31 $167 0.8480620789814843352 $99 $168 forward 7 unknown #
coedge $-1 $105 $100 $169 $170 reversed $58 $-1 #
coedge $-1 $163 $162 $101 $134 reversed $97 $-1 #
edge $-1 $167 0 $136 0.999999999999999889 $101 $171 forward 7 unknown #
coedge $-1 $165 $102 $162 $172 reversed $75 $-1 #
vertex $-1 $172 $173 #
ellipse-curve $-1 -1.269999999999996021 -4.934941344458820349e-15 -4.802755415589387964e-15 1 1.468687011488049678e-16 -1.665334536937738508e-16 7.049916206369743637e-16 -2.100065103157513047 2.381250000000001865 1 I I #
coedge $-1 $169 $169 $104 $139 reversed $174 $-1 #
edge $-1 $140 0 $155 3.14159265358979356 $138 $175 forward 7 unknown #
vertex $-1 $139 $176 #
straight-curve $-1 -1.269999999999998241 3.175000000000002487 3.888125173386053613e-16 17.96051224213826814 -17.96051224213834629 -2.199455740962715619e-15 I I #
coedge $-1 $107 $116 $109 $144 forward $117 $-1 #
intcurve-curve $-1 forward { surfintcur full nurbs 3 open 10 
	0 3 0.113419967768143129 1 0.2252667622517686152 1 0.3357349349902155056 1 0.4453140570829856038 1 
	0.5546129926536640387 1 0.664169258824963471 1 0.7746187265813324618 1 0.8865105344418705569 1 1 3 
	-1.269999999999994689 -2.10006510315751882 -2.381249999999999645 1 
	-1.150831265439650641 -1.921156523562749907 -2.381249999999999645 1.000000000000000222 
	-0.94055228377399136 -1.575880648058084033 -2.381250000000000089 0.999999999999999778 
	-0.7025710057919698492 -1.090729930516647794 -2.381249999999999645 1 
	-0.5489669281217830488 -0.640836348710538406 -2.381249999999999645 1.000000000000000222 
	-0.4732870731455396385 -0.2130836146100792416 -2.381249999999999645 1 
	-0.4730292967764363476 0.2098983947024123942 -2.381249999999999645 0.999999999999999778 
	-0.5479571343347313661 0.6366407850940920543 -2.381250000000000089 1 
	-0.7002842409133837043 1.085391234298922036 -2.381249999999999645 1.000000000000000222 
	-0.9389309257981740542 1.573210463941213 -2.381249999999999645 1.000000000000000222 
	-1.15015241200694307 1.920132463720192195 -2.381249999999999645 0.999999999999999889 
	-1.269999999999995577 2.10006510315751882 -2.381249999999999645 1 
	0.02539999999999999897 
	cone -23.49500000000000455 0 0 1 0 0 0 -25.4000000000000874 0 1 I I -0.707106781186548794 0.7071067811865462405 25.4000000000000874 forward I I I I 
	plane 0 -2.10006510315751882 -2.381249999999999645 0 0 -1 0 25.39999999999999858 0 forward_v I I I I 
	nullbs 
	nullbs 
	I I 
	0 
	0 
	0 
	} I I #
edge $-1 $149 1.522427252626624242e-33 $111 0.6375000000000001776 $109 $177 forward 7 unknown #
point $-1 -1.269999999999995355 3.174999999999999822 3.888125173386047696e-16 #
point $-1 -1.269999999999995577 2.10006510315751882 -2.381249999999999645 #
coedge $-1 $114 $114 $116 $151 reversed $148 $-1 #
loop $-1 $-1 $147 $178 #
vertex $-1 $115 $179 #
ellipse-curve $-1 -17.46249999999999858 2.643718577388653617e-16 1.057487430955461447e-15 1 0 0 0 -2.10006510315751882 -2.381250000000000977 1 I I #
edge $-1 $118 -1.748382715945128386e-17 $149 0.1653594569415369198 $147 $180 forward 7 unknown #
loop $-1 $-1 $181 $153 #
face $-1 $178 $117 $2 $-1 $182 forward single #
point $-1 -17.46249999999999858 -2.10006510315751882 -2.381249999999999645 #
vertex $-1 $139 $183 #
straight-curve $-1 -1.269999999999998241 -3.175000000000002487 0 17.96051224213826814 17.96051224213834629 0 I I #
face $-1 $153 $184 $2 $-1 $185 reversed single #
loop $-1 $-1 $186 $124 #
cone-surface $-1 -2.381249999999999645 0 2.381249999999999645 0 0 -1 -1.190624999999999822 0 0 1 I I 0 1 1.190624999999999822 forward I I I I #
coedge $-1 $187 $187 $128 $164 forward $125 $-1 #
coedge $-1 $188 $188 $189 $190 forward $127 $-1 #
coedge $-1 $133 $128 $135 $172 forward $97 $-1 #
coedge $-1 $128 $133 $129 $166 reversed $97 $-1 #
edge $-1 $191 0 $192 0.1653594569415368642 $160 $193 forward 7 unknown #
coedge $-1 $129 $135 $187 $194 reversed $75 $-1 #
edge $-1 $192 0 $167 0.6375000000000001776 $129 $195 forward 7 unknown #
vertex $-1 $166 $196 #
ellipse-curve $-1 -1.269999999999996021 1.321859288694327006e-14 1.586231146433192368e-15 1 6.661338147750961922e-16 -2.512255241831640295e-31 -2.114974861910922894e-15 3.174999999999989164 -1.197418629094586957e-15 1 I I #
coedge $-1 $138 $138 $132 $170 forward $174 $-1 #
edge $-1 $140 -2.173754397451135258e-31 $155 3.141592653589797557 $169 $197 forward 7 unknown #
intcurve-curve $-1 forward { surfintcur full nurbs 3 open 10 
	0 3 0.1134199677681430873 1 0.2252667622517685042 1 0.3357349349902153945 1 0.4453140570829855482 1 
	0.5546129926536638166 1 0.664169258824963249 1 0.7746187265813322398 1 0.8865105344418704458 1 0.999999999999999889 3 
	-1.269999999999994689 2.100065103157517488 2.381249999999999645 1 
	-1.150831265439649753 1.921156523562748131 2.381249999999999645 1 
	-0.9405522837739893616 1.575880648058081812 2.381249999999999201 1.000000000000000222 
	-0.7025710057919714036 1.090729930516649127 2.381250000000000089 0.999999999999999778 
	-0.5489669281217830488 0.6408363487105397382 2.381249999999999645 1.000000000000000222 
	-0.4732870731455396385 0.2130836146100806572 2.381249999999999645 1 
	-0.4730292967764366252 -0.2098983947024125607 2.381249999999999645 0.999999999999999889 
	-0.547957134334731033 -0.636640785094090278 2.381249999999999645 1.000000000000000222 
	-0.7002842409133832602 -1.085391234298921592 2.381249999999999645 1 
	-0.9389309257981743873 -1.573210463941213 2.381249999999999645 1 
	-1.150152412006942626 -1.920132463720191751 2.381250000000000533 0.999999999999999778 
	-1.269999999999994689 -2.10006510315751882 2.381249999999999645 1 
	0.02539999999999999897 
	plane 0 -2.10006510315751882 2.381249999999999645 0 0 -1 0 25.39999999999999858 0 forward_v I I I I 
	cone -23.49500000000000455 0 0 1 0 0 0 -25.4000000000000874 0 1 I I -0.707106781186548794 0.7071067811865462405 25.4000000000000874 forward I I I I 
	nullbs 
	nullbs 
	I I 
	0 
	0 
	0 
	} I I #
edge $-1 $191 0 $136 0.6375000000000001776 $135 $198 forward 7 unknown #
point $-1 -1.269999999999994689 -2.10006510315751882 2.381249999999999645 #
loop $-1 $-1 $169 $199 #
ellipse-curve $-1 0 0 -2.555594624809031896e-15 -1 -1.480297366166874072e-15 -2.167125920894728651e-30 -2.819966482547897455e-15 1.905000000000001581 2.788882135212195773e-15 1 I I #
point $-1 -2.819966482547897455e-15 1.905000000000001581 2.332875104031637295e-16 #
straight-curve $-1 -17.46249999999999858 2.100065103157517932 -2.381249999999999645 25.39999999999999858 1.10586920884231241e-15 0 I I #
face $-1 $199 $148 $2 $-1 $200 reversed single #
point $-1 -17.46249999999999858 2.10006510315751882 -2.381249999999999645 #
straight-curve $-1 -17.46249999999999858 -2.100065103157518376 -2.381249999999999645 0 25.39999999999999858 0 I I #
coedge $-1 $201 $201 $202 $203 reversed $152 $-1 #
plane-surface $-1 0 -2.10006510315751882 -2.381249999999999645 0 0 -1 0 25.39999999999999858 0 forward_v I I I I #
point $-1 -2.819966482547897455e-15 -1.905000000000001581 -3.850534799863808487e-15 #
loop $-1 $-1 $204 $157 #
cone-surface $-1 -2.381249999999999645 0 2.381249999999999645 0 0 -1 -1.190624999999999822 0 0 1 I I 0 1 1.190624999999999822 forward I I I I #
coedge $-1 $202 $189 $205 $206 forward $158 $-1 #
coedge $-1 $160 $160 $165 $194 forward $125 $-1 #
coedge $-1 $161 $161 $207 $208 forward $127 $-1 #
coedge $-1 $186 $209 $161 $190 reversed $158 $-1 #
edge $-1 $210 0 $211 3.141592653589793116 $161 $212 forward 7 unknown #
vertex $-1 $194 $213 #
vertex $-1 $166 $214 #
straight-curve $-1 -17.46249999999999858 -2.100065103157518376 2.381249999999999645 0 25.39999999999999858 0 I I #
edge $-1 $192 1.762149508984067443e-16 $191 1.445468495626831329 $165 $215 forward 7 unknown #
straight-curve $-1 -17.46249999999999858 2.100065103157517932 2.381249999999999645 25.39999999999999858 -1.10586920884231241e-15 0 I I #
point $-1 -1.269999999999994689 2.100065103157517488 2.381249999999999645 #
ellipse-curve $-1 0 1.762479051592435909e-16 2.731842529968275733e-15 1 1.480297366166874072e-15 -1.941524627131367262e-30 -2.819966482547897455e-15 1.905000000000001581 -2.498555019565111856e-15 1 I I #
straight-curve $-1 -17.46249999999999858 -2.10006510315751882 2.381249999999999645 25.39999999999999858 0 0 I I #
face $-1 $-1 $174 $2 $-1 $216 forward single #
plane-surface $-1 -17.46249999999999858 0 0 -1 0 0 0 25.39999999999999858 0 forward_v I I I I #
coedge $-1 $181 $181 $217 $218 reversed $152 $-1 #
coedge $-1 $209 $186 $181 $203 forward $158 $-1 #
edge $-1 $219 0 $220 3.141592653589793116 $181 $221 forward 7 unknown #
coedge $-1 $217 $207 $209 $222 forward $184 $-1 #
coedge $-1 $207 $217 $186 $206 reversed $184 $-1 #
edge $-1 $210 0 $219 0.1874999999999999722 $205 $223 forward 7 unknown #
coedge $-1 $204 $205 $188 $208 reversed $184 $-1 #
edge $-1 $211 0 $210 3.141592653589793116 $188 $224 forward 7 unknown #
coedge $-1 $189 $202 $204 $222 reversed $158 $-1 #
vertex $-1 $208 $225 #
vertex $-1 $208 $226 #
ellipse-curve $-1 -2.381249999999999645 0 2.381249999999999645 0 0 -1 1.190624999999999822 0 0 1 I I #
point $-1 -17.46249999999999858 -2.100065103157518376 2.381249999999999645 #
point $-1 -17.46249999999999858 2.100065103157517932 2.381249999999999645 #
ellipse-curve $-1 -17.46249999999999858 2.643718577388653617e-16 0 1 0 0 0 2.100065103157518376 2.381249999999999645 1 I I #
plane-surface $-1 0 0 0 1 0 0 0 -25.39999999999999858 0 forward_v I I I I #
coedge $-1 $205 $204 $201 $218 forward $184 $-1 #
edge $-1 $220 0 $219 3.141592653589793116 $201 $227 forward 7 unknown #
vertex $-1 $218 $228 #
vertex $-1 $218 $229 #
ellipse-curve $-1 -2.381249999999999645 0 -2.381249999999999645 0 0 -1 1.190624999999999822 0 0 1 I I #
edge $-1 $211 0 $220 0.1874999999999999722 $204 $230 forward 7 unknown #
straight-curve $-1 -1.190624999999999822 1.458046940019767824e-16 2.381249999999999645 0 0 -25.39999999999999858 I I #
ellipse-curve $-1 -2.381249999999999645 0 2.381249999999999645 0 0 -1 -1.190624999999999822 0 0 1 I I #
point $-1 -1.190624999999999822 0 2.381249999999999645 #
point $-1 -3.571874999999999911 0 2.381249999999999645 #
ellipse-curve $-1 -2.381249999999999645 0 -2.381249999999999645 0 0 -1 -1.190624999999999822 0 0 1 I I #
point $-1 -1.190624999999999822 0 -2.381249999999999645 #
point $-1 -3.571874999999999911 0 -2.381249999999999645 #
straight-curve $-1 -3.571874999999999911 0 2.381249999999999645 0 0 -25.39999999999999858 I I #
End-of-ACIS-data 