600 0 1 0           
95 GICL ACIS Healer - Source: /gicl/data5/repository/PTC/V18/reel18/areel/handle_pin.prt.sat - 6 0 18 ACIS 6.0.3 Solaris 24 Sat Apr 13 21:08:09 2002 
1 9.999999999999999547e-07 1.000000000000000036e-10 
body $-1 $1 $-1 $-1 #
lump $-1 $-1 $2 $0 #
shell $-1 $-1 $-1 $3 $-1 $1 #
face $-1 $4 $5 $2 $-1 $6 reversed single #
face $-1 $7 $8 $2 $-1 $9 forward single #
loop $-1 $-1 $10 $3 #
plane-surface $-1 0 0 -6.349999999999999645 0 0 1 -25.39999999999999858 0 0 forward_v I I I I #
face $-1 $11 $12 $2 $-1 $13 forward single #
loop $-1 $-1 $14 $4 #
cone-surface $-1 0 0 18.11337499999999778 0 0 -1 -25.39999999999997726 0 0 1 I I -0.7071067811865472397 0.7071067811865477948 25.39999999999997726 forward I I I I #
coedge $-1 $15 $15 $16 $17 reversed $5 $-1 #
face $-1 $18 $19 $2 $-1 $20 forward single #
loop $-1 $-1 $21 $7 #
cone-surface $-1 0 0 18.11337499999999778 0 0 -1 -25.39999999999997726 0 0 1 I I -0.7071067811865472397 0.7071067811865477948 25.39999999999997726 forward I I I I #
coedge $-1 $22 $16 $23 $24 forward $8 $-1 #
coedge $-1 $10 $10 $25 $26 reversed $5 $-1 #
coedge $-1 $14 $27 $10 $17 forward $8 $-1 #
edge $-1 $28 0 $29 3.141592653589793116 $10 $30 forward 7 unknown #
face $-1 $31 $32 $2 $-1 $33 forward single #
loop $-1 $-1 $34 $11 #
cone-surface $-1 0 0 -6.349999999999999645 0 0 1 -1.190624999999999822 0 0 1 I I 0 1 1.190624999999999822 forward I I I I #
coedge $-1 $35 $25 $27 $36 forward $12 $-1 #
coedge $-1 $27 $14 $37 $38 reversed $8 $-1 #
coedge $-1 $25 $35 $14 $24 reversed $12 $-1 #
edge $-1 $29 0 $39 0.01414213562373104784 $14 $40 forward 7 unknown #
coedge $-1 $21 $23 $15 $26 forward $12 $-1 #
edge $-1 $29 0 $28 3.141592653589793116 $15 $41 forward 7 unknown #
coedge $-1 $16 $22 $21 $36 reversed $8 $-1 #
vertex $-1 $26 $42 #
vertex $-1 $26 $43 #
ellipse-curve $-1 -4.406197628981089773e-17 8.812395257962179547e-17 -6.349999999999999645 -3.010774304068221782e-15 6.519751439573798974e-31 1 0.9366249999999997078 -2.028236451945099952e-16 2.819966482547897455e-15 1 I I #
face $-1 $44 $45 $2 $-1 $46 forward single #
loop $-1 $-1 $47 $18 #
cone-surface $-1 0 0 -6.349999999999999645 0 0 1 -1.190624999999999822 0 0 1 I I 0 1 1.190624999999999822 forward I I I I #
coedge $-1 $48 $49 $50 $51 forward $19 $-1 #
coedge $-1 $23 $21 $49 $52 reversed $12 $-1 #
edge $-1 $28 0 $53 0.01414213562373104784 $27 $54 forward 7 unknown #
coedge $-1 $47 $50 $22 $38 forward $32 $-1 #
edge $-1 $53 -4.440892098500637009e-16 $39 3.141592653589792228 $37 $55 forward 7 unknown #
vertex $-1 $52 $56 #
straight-curve $-1 -0.9366249999999997078 0 -6.34999999999999698 -17.96051224213840314 0 17.96051224213820419 I I #
ellipse-curve $-1 -4.406197628981089773e-17 0 -6.349999999999999645 3.010774304068221782e-15 0 1 -0.9366249999999997078 0 2.819966482547897455e-15 1 I I #
point $-1 0.9366249999999997078 -1.146996926148881997e-16 -6.34999999999999698 #
point $-1 -0.9366249999999997078 0 -6.34999999999999698 #
face $-1 $57 $58 $2 $-1 $59 forward single #
loop $-1 $-1 $60 $31 #
cone-surface $-1 0 0 -18.11337499999999778 0 0 1 -25.39999999999997726 0 0 1 I I -0.7071067811865472397 0.7071067811865479058 25.39999999999997726 forward I I I I #
coedge $-1 $61 $37 $62 $63 forward $32 $-1 #
coedge $-1 $62 $34 $64 $65 reversed $19 $-1 #
coedge $-1 $34 $62 $35 $52 forward $19 $-1 #
coedge $-1 $37 $61 $34 $51 reversed $32 $-1 #
edge $-1 $53 1.398706172756102709e-16 $66 0.4800000000000000377 $34 $67 forward 7 unknown #
edge $-1 $39 -1.393781199590940591e-60 $53 3.14159265358978157 $49 $68 forward 7 unknown #
vertex $-1 $52 $69 #
straight-curve $-1 0.9366249999999997078 -1.146996926148881997e-16 -6.34999999999999698 17.96051224213840314 -3.958728241337003921e-14 17.96051224213820419 I I #
ellipse-curve $-1 -4.406197628981089773e-17 -7.490535969267852245e-16 -6.095999999999996533 0 0 1 1.190625000000002709 6.032489029248084913e-16 0 1 I I #
point $-1 -1.190625000000002709 0 -6.095999999999996533 #
face $-1 $-1 $70 $2 $-1 $71 forward single #
loop $-1 $-1 $72 $44 #
cone-surface $-1 0 0 -18.11337499999999778 0 0 1 -25.39999999999997726 0 0 1 I I -0.7071067811865472397 0.7071067811865479058 25.39999999999997726 forward I I I I #
coedge $-1 $73 $74 $75 $76 forward $45 $-1 #
coedge $-1 $50 $47 $73 $77 reversed $32 $-1 #
coedge $-1 $49 $48 $47 $63 reversed $19 $-1 #
edge $-1 $39 1.398706172756102709e-16 $78 0.4800000000000000377 $62 $79 forward 7 unknown #
coedge $-1 $75 $72 $48 $65 forward $58 $-1 #
edge $-1 $78 0 $66 3.141592653589792228 $48 $80 forward 7 unknown #
vertex $-1 $65 $81 #
straight-curve $-1 1.190624999999999822 -1.458046940019767824e-16 -6.096000000000000085 0 1.101549407245272505e-15 25.39999999999999858 I I #
ellipse-curve $-1 4.406197628981089773e-17 6.565234467181823972e-15 -6.095999999999998309 1.184237892933497483e-15 6.530015270996121671e-30 1 -1.190625000000002709 -6.565234467181823972e-15 1.409983241273948727e-15 1 I I #
point $-1 1.190625000000002709 -6.745484094797100204e-16 -6.095999999999996533 #
loop $-1 $-1 $82 $57 #
plane-surface $-1 0 0 6.349999999999999645 0 0 1 -25.39999999999999858 0 0 forward_v I I I I #
coedge $-1 $64 $83 $84 $85 forward $58 $-1 #
coedge $-1 $84 $60 $61 $77 forward $45 $-1 #
coedge $-1 $60 $84 $82 $86 reversed $45 $-1 #
coedge $-1 $83 $64 $60 $76 reversed $58 $-1 #
edge $-1 $87 0 $66 0.01414213562373081538 $60 $88 forward 7 unknown #
edge $-1 $66 0 $78 3.141592653589791784 $61 $89 forward 7 unknown #
vertex $-1 $63 $90 #
straight-curve $-1 -1.190624999999999822 0 -6.096000000000000085 0 0 25.39999999999999858 I I #
ellipse-curve $-1 4.406197628981089773e-17 8.81239525796218004e-16 6.095999999999999197 0 0 1 -1.190624999999999822 -8.81239525796218004e-16 0 1 I I #
point $-1 1.190624999999999822 3.829390214757539903e-16 6.095999999999999197 #
coedge $-1 $91 $91 $74 $86 forward $70 $-1 #
coedge $-1 $72 $75 $91 $92 reversed $58 $-1 #
coedge $-1 $74 $73 $72 $85 reversed $45 $-1 #
edge $-1 $93 0 $78 0.01414213562373081538 $84 $94 forward 7 unknown #
edge $-1 $87 5.630579752728406127e-61 $93 3.141592653589792672 $82 $95 forward 7 unknown #
vertex $-1 $92 $96 #
straight-curve $-1 0.9366250000000025944 3.01245363560927801e-16 6.34999999999999698 17.96051224213830366 -6.899903939566470961e-14 -17.96051224213830366 I I #
ellipse-curve $-1 -4.406197628981089773e-17 -7.931155732165961838e-16 6.095999999999999197 0 0 1 1.190624999999999822 1.176054594692350174e-15 0 1 I I #
point $-1 -1.190624999999999822 0 6.095999999999999197 #
coedge $-1 $82 $82 $83 $92 forward $70 $-1 #
edge $-1 $93 0 $87 3.141592653589793116 $91 $97 forward 7 unknown #
vertex $-1 $92 $98 #
straight-curve $-1 -0.9366250000000025944 0 6.34999999999999698 -17.96051224213830366 0 -17.96051224213830366 I I #
ellipse-curve $-1 4.406197628981089773e-17 -4.406197628981089773e-17 6.349999999999999645 3.010774304068213104e-15 1.109987952306153414e-30 1 0.9366250000000025944 3.45307339850738711e-16 -2.819966482547897455e-15 1 I I #
point $-1 0.9366250000000025944 3.01245363560927801e-16 6.34999999999999698 #
ellipse-curve $-1 -4.406197628981089773e-17 4.406197628981089773e-17 6.349999999999999645 -3.010774304068213104e-15 -1.416369048443348674e-31 1 -0.9366250000000025944 -4.406197628981089773e-17 -2.819966482547897455e-15 1 I I #
point $-1 -0.9366250000000025944 0 6.34999999999999698 #
End-of-ACIS-data 