700 0 2 0           
24 FBMach with ACIS - 7.0.3 13 ACIS 7.0.3 NT 24 Wed May 15 12:42:18 2002 
1 9.9999999999999995e-007 1e-010 
body $2 -1 $-1 $3 $-1 $4 #
bdycol-kcp $-1 -1 1 6 $5 $6 $7 $8 $9 $10 #
model_id-kcp-attrib $-1 -1 $-1 $-1 $0 1 1021480936 1021480936 1119485953 1 #
lump $-1 -1 $-1 $-1 $11 $0 #
transform $-1 -1 1 0 0 0 1 0 0 0 1 0 0 0 1 rotate no_reflect no_shear #
body $12 -1 $-1 $13 $-1 $14 #
body $15 -1 $-1 $16 $-1 $17 #
body $18 -1 $-1 $19 $-1 $20 #
body $21 -1 $-1 $22 $-1 $23 #
body $24 -1 $-1 $25 $-1 $26 #
body $27 -1 $-1 $28 $-1 $29 #
shell $-1 -1 $-1 $-1 $-1 $30 $-1 $3 #
model_id-kcp-attrib $-1 -1 $-1 $-1 $5 1 1021480936 1021480936 1119485954 1 #
lump $-1 -1 $-1 $-1 $31 $5 #
transform $-1 -1 1 0 0 0 1 0 0 0 1 -30.956249999999997 0 0 1 no_rotate no_reflect no_shear #
rgb_color-st-attrib $-1 -1 $32 $-1 $6 1 0.5 1 #
lump $-1 -1 $-1 $-1 $33 $6 #
transform $-1 -1 1 0 0 0 1 0 0 0 1 -30.956249999999997 0 0 1 no_rotate no_reflect no_shear #
rgb_color-st-attrib $-1 -1 $34 $-1 $7 0.5 1 1 #
lump $-1 -1 $-1 $-1 $35 $7 #
transform $-1 -1 1 0 0 0 1 0 0 0 1 -30.956249999999997 0 0 1 no_rotate no_reflect no_shear #
rgb_color-st-attrib $-1 -1 $36 $-1 $8 1 0.5 1 #
lump $-1 -1 $-1 $-1 $37 $8 #
transform $-1 -1 1 0 0 0 1 0 0 0 1 -30.956249999999997 0 0 1 no_rotate no_reflect no_shear #
rgb_color-st-attrib $-1 -1 $38 $-1 $9 0.5 1 1 #
lump $-1 -1 $-1 $-1 $39 $9 #
transform $-1 -1 1 0 0 0 1 0 0 0 1 0 0 0 1 no_rotate no_reflect no_shear #
rgb_color-st-attrib $-1 -1 $40 $-1 $10 1 0.5 1 #
lump $-1 -1 $-1 $-1 $41 $10 #
transform $-1 -1 1 0 0 0 1 0 0 0 1 -30.956249999999997 0 0 1 no_rotate no_reflect no_shear #
face $42 -1 $-1 $43 $44 $11 $-1 $45 reversed single #
shell $-1 -1 $-1 $-1 $-1 $46 $-1 $13 #
model_id-kcp-attrib $-1 -1 $-1 $15 $6 1 1021480936 1021480937 1113391109 1 #
shell $-1 -1 $-1 $-1 $-1 $47 $-1 $16 #
model_id-kcp-attrib $-1 -1 $-1 $18 $7 1 1021480936 1021480937 1114832899 1 #
shell $-1 -1 $-1 $-1 $-1 $48 $-1 $19 #
model_id-kcp-attrib $-1 -1 $-1 $21 $8 1 1021480936 1021480937 1115029511 1 #
shell $-1 -1 $-1 $-1 $-1 $49 $-1 $22 #
model_id-kcp-attrib $-1 -1 $-1 $24 $9 1 1021480936 1021480937 1118765060 1 #
shell $-1 -1 $-1 $-1 $-1 $50 $-1 $25 #
model_id-kcp-attrib $-1 -1 $-1 $27 $10 1 1021480936 1021480937 1121910790 1 #
shell $-1 -1 $-1 $-1 $-1 $51 $-1 $28 #
model_id-kcp-attrib $-1 -1 $-1 $-1 $30 1 1021480936 1021480936 1119485953 2 #
face $52 -1 $-1 $53 $54 $11 $-1 $55 forward single #
loop $-1 -1 $-1 $-1 $56 $30 #
plane-surface $-1 -1 $-1 -61.912499999999994 0 0 1 0 0 0 -25.399999999999999 0 forward_v I I I I #
face $-1 -1 $-1 $57 $58 $31 $-1 $59 forward single #
face $-1 -1 $-1 $60 $61 $33 $-1 $62 forward single #
face $-1 -1 $-1 $63 $64 $35 $-1 $65 reversed single #
face $-1 -1 $-1 $66 $67 $37 $-1 $68 forward single #
face $-1 -1 $-1 $69 $70 $39 $-1 $71 forward single #
face $-1 -1 $-1 $72 $73 $41 $-1 $74 forward single #
model_id-kcp-attrib $-1 -1 $-1 $-1 $43 1 1021480936 1021480936 1119485953 3 #
face $75 -1 $-1 $76 $77 $11 $-1 $78 forward single #
loop $-1 -1 $-1 $-1 $79 $43 #
cone-surface $-1 -1 $-1 -65.008124999999993 0 0 1 0 0 0 -2.7781249999999997 0 1 I I 0 1 2.7781249999999997 forward I I I I #
coedge $-1 -1 $-1 $80 $80 $79 $81 reversed $44 $-1 #
face $-1 -1 $-1 $82 $83 $31 $-1 $84 reversed single #
loop $-1 -1 $-1 $-1 $85 $46 #
plane-surface $-1 -1 $-1 0 0 3.1749999999999998 0 0 1 1 0 0 forward_v I I I I #
face $-1 -1 $-1 $86 $87 $33 $-1 $88 forward single #
loop $-1 -1 $-1 $-1 $89 $47 #
cone-surface $-1 -1 $-1 -30.956249999999997 -4.4408920985006262e-015 -4.8849813083506888e-015 -1 0 0 0 -2.1000651031575126 2.3812500000000028 1 I I 0 1 3.174999999999998 forward I I I I #
face $-1 -1 $-1 $90 $91 $35 $-1 $65 reversed single #
loop $-1 -1 $-1 $-1 $92 $48 #
cone-surface $-1 -1 $-1 -30.956249999999997 -4.4408920985006262e-015 -4.8849813083506888e-015 -1 0 0 0 -2.1000651031575126 2.3812500000000028 1 I I 0 1 3.174999999999998 forward I I I I #
face $-1 -1 $-1 $93 $94 $37 $-1 $95 forward single #
loop $-1 -1 $-1 $96 $97 $49 #
cone-surface $-1 -1 $-1 -23.018749999999997 0 0 -1 0 0 0 -2.7781249999999997 0 1 I I 0 -1 2.7781249999999997 forward I I I I #
face $-1 -1 $-1 $98 $99 $39 $-1 $100 reversed single #
loop $-1 -1 $-1 $101 $102 $50 #
cone-surface $-1 -1 $-1 -2.3812499999999996 0 2.3812499999999996 0 0 -1 1.1906249999999998 0 0 1 I I 0 1 1.1906249999999998 forward I I I I #
face $-1 -1 $-1 $103 $104 $41 $-1 $105 forward single #
loop $-1 -1 $-1 $-1 $106 $51 #
cone-surface $-1 -1 $-1 -30.956249999999997 -4.4408920985006262e-015 -4.8849813083506888e-015 -1 0 0 0 -2.1000651031575126 2.3812500000000028 1 I I 0 1 3.174999999999998 forward I I I I #
model_id-kcp-attrib $-1 -1 $-1 $-1 $53 1 1021480936 1021480936 1119485953 4 #
face $107 -1 $-1 $108 $109 $11 $-1 $110 reversed single #
loop $-1 -1 $-1 $-1 $111 $53 #
cone-surface $-1 -1 $-1 -65.008124999999993 0 0 1 0 0 0 -2.7781249999999997 0 1 I I 0 1 2.7781249999999997 forward I I I I #
coedge $-1 -1 $-1 $112 $113 $56 $81 forward $54 $-1 #
coedge $-1 -1 $-1 $56 $56 $114 $115 forward $44 $-1 #
edge $116 -1 $-1 $117 0 $118 3.1415926535897931 $56 $119 forward @7 unknown #
face $-1 -1 $-1 $120 $121 $31 $-1 $122 reversed single #
loop $-1 -1 $-1 $-1 $123 $57 #
plane-surface $-1 -1 $-1 0 0 -3.1749999999999998 0 0 1 1 0 0 forward_v I I I I #
coedge $-1 -1 $-1 $124 $125 $126 $127 forward $58 $-1 #
face $-1 -1 $-1 $128 $129 $33 $-1 $130 forward single #
loop $-1 -1 $-1 $-1 $131 $60 #
plane-surface $-1 -1 $-1 13.493749999999999 2.1000651031575188 -2.3812499999999996 -1 0 0 0 0 1 forward_v I I I I #
coedge $-1 -1 $-1 $132 $133 $131 $134 forward $61 $-1 #
face $-1 -1 $-1 $135 $136 $35 $-1 $65 reversed single #
loop $-1 -1 $-1 $-1 $137 $63 #
coedge $-1 -1 $-1 $138 $139 $140 $141 reversed $64 $-1 #
face $-1 -1 $-1 $142 $143 $37 $-1 $144 reversed single #
loop $-1 -1 $-1 $145 $146 $66 #
cone-surface $-1 -1 $-1 -23.018749999999997 -4.4408920985006262e-015 -4.8849813083506888e-015 -1 0 0 0 -2.1000651031575126 2.3812500000000028 1 I I 0 1 3.174999999999998 forward I I I I #
loop $-1 -1 $-1 $-1 $147 $49 #
coedge $-1 -1 $-1 $97 $97 $148 $149 forward $67 $-1 #
face $-1 -1 $-1 $-1 $150 $39 $-1 $151 forward single #
loop $-1 -1 $-1 $-1 $152 $69 #
plane-surface $-1 -1 $-1 -2.3812499999999996 0 -2.3812499999999992 -4.7300895688536803e-031 -2.0868042215530929e-032 1 1 0 4.7300895688536803e-031 forward_v I I I I #
loop $-1 -1 $-1 $-1 $153 $50 #
coedge $-1 -1 $-1 $102 $102 $152 $154 forward $70 $-1 #
face $-1 -1 $-1 $155 $156 $41 $-1 $157 forward single #
loop $-1 -1 $-1 $-1 $158 $72 #
plane-surface $-1 -1 $-1 13.493749999999999 -2.1000651031575184 2.3812499999999996 -1 0 0 0 0 1 forward_v I I I I #
coedge $-1 -1 $-1 $159 $160 $158 $161 forward $73 $-1 #
model_id-kcp-attrib $-1 -1 $-1 $-1 $76 1 1021480936 1021480936 1119485953 5 #
face $162 -1 $-1 $163 $164 $11 $-1 $165 forward single #
loop $-1 -1 $-1 $166 $167 $76 #
plane-surface $-1 -1 $-1 -53.974999999999994 0 0 1 0 0 0 -25.399999999999999 0 forward_v I I I I #
coedge $-1 -1 $-1 $168 $169 $170 $171 forward $77 $-1 #
coedge $-1 -1 $-1 $172 $79 $168 $173 reversed $54 $-1 #
coedge $-1 -1 $-1 $79 $172 $169 $174 forward $54 $-1 #
coedge $-1 -1 $-1 $169 $168 $80 $115 reversed $77 $-1 #
edge $175 -1 $-1 $117 0 $118 3.1415926535897931 $80 $176 forward @7 unknown #
attrib_edge_convexity-kcp-attrib $-1 -1 $177 $-1 $81 1 #
vertex $-1 -1 $-1 $115 $178 #
vertex $-1 -1 $-1 $115 $179 #
ellipse-curve $-1 -1 $-1 -61.912499999999994 0 -1.7624790515924359e-016 1 0 0 0 2.7781249999999997 1.7624790515924359e-016 1 I I #
face $180 -1 $-1 $181 $182 $31 $-1 $183 reversed single #
loop $-1 -1 $-1 $-1 $184 $82 #
plane-surface $-1 -1 $-1 0 -3.1750000000000029 0 0 1 0 0 0 1 forward_v I I I I #
coedge $-1 -1 $-1 $185 $186 $187 $188 forward $83 $-1 #
coedge $-1 -1 $-1 $189 $85 $190 $191 forward $58 $-1 #
coedge $-1 -1 $-1 $85 $189 $192 $193 forward $58 $-1 #
coedge $-1 -1 $-1 $194 $195 $85 $127 reversed $196 $-1 #
edge $-1 -1 $-1 $197 -3.1750000000000029 $198 3.1750000000000029 $126 $199 forward @7 unknown #
face $-1 -1 $-1 $-1 $200 $33 $-1 $201 forward single #
loop $-1 -1 $-1 $-1 $202 $86 #
plane-surface $-1 -1 $-1 30.956249999999997 -2.1000651031575321 -2.3812499999999943 1 0 0 0 0 -1 forward_v I I I I #
coedge $-1 -1 $-1 $203 $203 $89 $134 reversed $87 $-1 #
coedge $-1 -1 $-1 $204 $89 $205 $206 reversed $61 $-1 #
coedge $-1 -1 $-1 $89 $204 $207 $208 reversed $61 $-1 #
edge $-1 -1 $-1 $209 1.696124157962964 $210 3.1415926535897971 $131 $211 forward @7 unknown #
face $-1 -1 $-1 $212 $213 $35 $-1 $65 reversed single #
loop $-1 -1 $-1 $-1 $214 $90 #
coedge $-1 -1 $-1 $215 $216 $217 $218 reversed $91 $-1 #
coedge $-1 -1 $-1 $219 $92 $220 $221 forward $64 $-1 #
coedge $-1 -1 $-1 $92 $219 $222 $223 reversed $64 $-1 #
coedge $-1 -1 $-1 $224 $225 $92 $141 forward $226 $-1 #
edge $-1 -1 $-1 $227 0.72273424781341367 $228 2.2935305746083103 $140 $229 forward @7 unknown #
face $-1 -1 $-1 $-1 $230 $37 $-1 $231 forward single #
loop $-1 -1 $-1 $232 $233 $93 #
plane-surface $-1 -1 $-1 -30.956250000000001 0.10182133833490738 -0.11545454545454797 1 -1.1129622514949832e-031 8.3472168862123761e-032 8.3472168862123761e-032 0 -1 forward_v I I I I #
loop $-1 -1 $-1 $-1 $234 $66 #
coedge $-1 -1 $-1 $146 $146 $233 $235 forward $94 $-1 #
coedge $-1 -1 $-1 $147 $147 $236 $237 reversed $96 $-1 #
coedge $-1 -1 $-1 $148 $148 $97 $149 reversed $232 $-1 #
edge $-1 -1 $-1 $238 -3.197042680585378e-016 $238 6.2831853071795862 $97 $239 forward @7 unknown #
loop $-1 -1 $-1 $-1 $240 $98 #
plane-surface $-1 -1 $-1 -2.3812499999999996 0 2.3812500000000001 -4.7300895688536803e-031 -2.0868042215530929e-032 1 1 0 4.7300895688536803e-031 forward_v I I I I #
coedge $-1 -1 $-1 $152 $152 $102 $154 reversed $99 $-1 #
coedge $-1 -1 $-1 $153 $153 $240 $241 forward $101 $-1 #
edge $-1 -1 $-1 $242 0 $242 6.2831853071795862 $102 $243 forward @7 unknown #
face $-1 -1 $-1 $-1 $244 $41 $-1 $245 reversed single #
loop $-1 -1 $-1 $-1 $246 $103 #
plane-surface $-1 -1 $-1 30.956249999999997 2.1000651031575122 2.3812499999999943 1 0 0 0 0 -1 forward_v I I I I #
coedge $-1 -1 $-1 $247 $247 $106 $161 reversed $104 $-1 #
coedge $-1 -1 $-1 $248 $106 $249 $250 reversed $73 $-1 #
coedge $-1 -1 $-1 $106 $248 $251 $252 reversed $73 $-1 #
edge $-1 -1 $-1 $253 -1.4454684956268291 $254 0 $158 $255 forward @7 unknown #
model_id-kcp-attrib $-1 -1 $-1 $-1 $108 1 1021480936 1021480936 1119485953 6 #
face $256 -1 $-1 $257 $258 $11 $-1 $259 forward single #
loop $-1 -1 $-1 $-1 $260 $108 #
cone-surface $-1 -1 $-1 -65.008124999999993 0 0 1 0 0 0 -3.1749999999999998 0 1 I I 0 1 3.1749999999999998 forward I I I I #
loop $-1 -1 $-1 $-1 $261 $76 #
coedge $-1 -1 $-1 $262 $262 $263 $264 forward $109 $-1 #
coedge $-1 -1 $-1 $114 $111 $112 $173 forward $77 $-1 #
coedge $-1 -1 $-1 $111 $114 $113 $174 reversed $77 $-1 #
coedge $-1 -1 $-1 $261 $261 $111 $171 reversed $166 $-1 #
edge $265 -1 $-1 $266 1.2776352376855673e-032 $267 3.1415926535897931 $170 $268 forward @7 unknown #
coedge $-1 -1 $-1 $113 $112 $261 $269 reversed $54 $-1 #
edge $-1 -1 $-1 $267 0 $118 0.31250000000000028 $112 $270 forward @7 unknown #
edge $-1 -1 $-1 $266 0 $117 0.31250000000000028 $113 $271 forward @7 unknown #
attrib_edge_convexity-kcp-attrib $-1 -1 $272 $-1 $115 1 #
ellipse-curve $-1 -1 $-1 -61.912499999999994 0 1.7624790515924359e-016 -1 0 0 0 2.7781249999999997 -1.7624790515924359e-016 1 I I #
convexity-sys-attrib $-1 -1 $-1 $116 $81 #
point $-1 -1 $-1 -61.912499999999994 2.7781249999999997 0 #
point $-1 -1 $-1 -61.912499999999994 -2.7781249999999997 0 #
model_id-kcp-attrib $-1 -1 $-1 $-1 $120 1 1021480936 1021480936 1119485954 2 #
face $-1 -1 $-1 $273 $274 $31 $-1 $275 reversed single #
loop $-1 -1 $-1 $-1 $276 $120 #
plane-surface $-1 -1 $-1 -30.956249999999997 0 0 1 0 0 0 0 -1 forward_v I I I I #
coedge $-1 -1 $-1 $277 $192 $278 $279 forward $121 $-1 #
coedge $-1 -1 $-1 $280 $123 $277 $281 forward $83 $-1 #
coedge $-1 -1 $-1 $123 $280 $282 $283 forward $83 $-1 #
coedge $-1 -1 $-1 $195 $194 $123 $188 reversed $196 $-1 #
edge $-1 -1 $-1 $284 -3.1750000000000029 $285 3.1750000000000029 $187 $286 forward @7 unknown #
coedge $-1 -1 $-1 $125 $124 $287 $288 forward $58 $-1 #
coedge $-1 -1 $-1 $289 $290 $124 $191 reversed $274 $-1 #
edge $-1 -1 $-1 $198 -30.956249999999997 $291 30.956249999999997 $190 $292 forward @7 unknown #
coedge $-1 -1 $-1 $184 $293 $125 $193 reversed $121 $-1 #
edge $-1 -1 $-1 $294 -30.956249999999997 $197 30.956249999999997 $192 $295 forward @7 unknown #
coedge $-1 -1 $-1 $187 $126 $293 $296 forward $196 $-1 #
coedge $-1 -1 $-1 $126 $187 $289 $297 reversed $196 $-1 #
loop $-1 -1 $-1 $-1 $194 $273 #
vertex $-1 -1 $-1 $127 $298 #
vertex $-1 -1 $-1 $127 $299 #
straight-curve $-1 -1 $-1 30.956249999999997 0 3.1749999999999998 0 1 0 I I #
loop $-1 -1 $-1 $-1 $300 $128 #
plane-surface $-1 -1 $-1 22.225000000000005 -4.3298697960381105e-015 -2.3812499999999943 0 0 1 1 0 0 forward_v I I I I #
coedge $-1 -1 $-1 $301 $301 $204 $302 reversed $129 $-1 #
coedge $-1 -1 $-1 $131 $131 $300 $303 reversed $87 $-1 #
coedge $-1 -1 $-1 $133 $132 $202 $302 forward $61 $-1 #
coedge $-1 -1 $-1 $300 $304 $132 $206 forward $200 $-1 #
edge $305 -1 $-1 $306 -61.912499999999994 $210 -44.449999999999996 $205 $307 forward @7 unknown #
coedge $-1 -1 $-1 $304 $300 $133 $208 forward $200 $-1 #
edge $308 -1 $-1 $209 44.449999999999996 $309 61.912499999999994 $207 $310 forward @7 unknown #
vertex $-1 -1 $-1 $303 $311 #
vertex $-1 -1 $-1 $303 $312 #
ellipse-curve $-1 -1 $-1 13.493749999999999 -4.4408920985006262e-015 -4.8849813083506888e-015 1 0 0 0 -2.1000651031575126 2.3812500000000028 1 I I #
face $-1 -1 $-1 $313 $314 $35 $-1 $315 reversed single #
loop $-1 -1 $-1 $-1 $316 $135 #
coedge $-1 -1 $-1 $317 $318 $316 $319 forward $136 $-1 #
coedge $-1 -1 $-1 $320 $137 $321 $322 reversed $91 $-1 #
coedge $-1 -1 $-1 $137 $320 $139 $223 forward $91 $-1 #
coedge $-1 -1 $-1 $323 $324 $137 $218 forward $325 $-1 #
edge $-1 -1 $-1 $326 2.4188584057763798 $327 3.9896547325712759 $217 $328 forward @7 unknown #
coedge $-1 -1 $-1 $139 $138 $329 $330 reversed $64 $-1 #
coedge $-1 -1 $-1 $318 $317 $331 $221 reversed $136 $-1 #
edge $-1 -1 $-1 $227 -61.912499999999994 $332 0 $331 $333 forward @7 unknown #
coedge $-1 -1 $-1 $334 $335 $336 $223 forward $337 $-1 #
edge $-1 -1 $-1 $228 -61.912499999999994 $327 0 $222 $338 forward @7 unknown #
coedge $-1 -1 $-1 $225 $140 $335 $339 reversed $226 $-1 #
coedge $-1 -1 $-1 $140 $224 $340 $341 reversed $226 $-1 #
loop $-1 -1 $-1 $-1 $140 $342 #
vertex $-1 -1 $-1 $341 $343 #
vertex $-1 -1 $-1 $344 $345 #
ellipse-curve $-1 -1 $-1 30.956249999999997 -4.4408920985006262e-015 -4.8849813083506888e-015 -1 0 0 0 -2.1000651031575126 2.3812500000000028 1 I I #
loop $-1 -1 $-1 $346 $347 $142 #
plane-surface $-1 -1 $-1 -23.018750000000001 0.10182133833490738 -0.11545454545454797 1 -1.1129622514949832e-031 8.3472168862123761e-032 8.3472168862123761e-032 0 -1 forward_v I I I I #
loop $-1 -1 $-1 $-1 $148 $93 #
coedge $-1 -1 $-1 $233 $233 $146 $235 reversed $143 $-1 #
coedge $-1 -1 $-1 $234 $234 $347 $348 reversed $145 $-1 #
edge $-1 -1 $-1 $349 -3.1415926535897931 $349 3.1415926535897931 $146 $350 forward @7 unknown #
coedge $-1 -1 $-1 $236 $236 $147 $237 forward $346 $-1 #
edge $351 -1 $-1 $352 -3.1415926535897931 $352 3.1415926535897931 $147 $353 forward @7 unknown #
vertex $-1 -1 $-1 $149 $354 #
ellipse-curve $-1 -1 $-1 -30.956249999999997 0 0 -1 0 0 0 -2.7781249999999997 0 1 I I #
coedge $-1 -1 $-1 $240 $240 $153 $241 reversed $150 $-1 #
edge $-1 -1 $-1 $355 0 $355 6.2831853071795862 $153 $356 forward @7 unknown #
vertex $-1 -1 $-1 $154 $357 #
ellipse-curve $-1 -1 $-1 -2.3812499999999996 0 -2.3812499999999996 0 0 1 -1.1906249999999998 0 0 1 I I #
loop $-1 -1 $-1 $-1 $358 $155 #
plane-surface $-1 -1 $-1 22.224999999999998 -4.2188474935755949e-015 2.3812499999999943 0 0 1 1 0 0 forward_v I I I I #
coedge $-1 -1 $-1 $359 $359 $248 $360 reversed $156 $-1 #
coedge $-1 -1 $-1 $158 $158 $358 $361 reversed $104 $-1 #
coedge $-1 -1 $-1 $160 $159 $246 $360 forward $73 $-1 #
coedge $-1 -1 $-1 $358 $362 $159 $250 forward $244 $-1 #
edge $363 -1 $-1 $364 -61.912499999999994 $254 -44.449999999999996 $249 $365 forward @7 unknown #
coedge $-1 -1 $-1 $362 $358 $160 $252 forward $244 $-1 #
edge $366 -1 $-1 $253 44.449999999999996 $367 61.912499999999994 $251 $368 forward @7 unknown #
vertex $-1 -1 $-1 $361 $369 #
vertex $-1 -1 $-1 $361 $370 #
ellipse-curve $-1 -1 $-1 13.493749999999999 -4.4408920985006262e-015 -4.8849813083506888e-015 1 0 0 0 -2.1000651031575126 2.3812500000000028 1 I I #
model_id-kcp-attrib $-1 -1 $-1 $-1 $163 1 1021480936 1021480936 1119485953 7 #
face $371 -1 $-1 $372 $373 $11 $-1 $374 forward single #
loop $-1 -1 $-1 $-1 $375 $163 #
cone-surface $-1 -1 $-1 -23.495000000000005 0 0 1 0 0 0 -25.400000000000087 0 1 I I -0.70710678118654879 0.70710678118654624 25.400000000000087 forward I I I I #
coedge $-1 -1 $-1 $376 $377 $378 $379 forward $164 $-1 #
coedge $-1 -1 $-1 $170 $170 $172 $269 forward $166 $-1 #
coedge $-1 -1 $-1 $167 $167 $380 $381 reversed $109 $-1 #
coedge $-1 -1 $-1 $382 $376 $167 $264 reversed $164 $-1 #
edge $383 -1 $-1 $384 0 $385 3.1415926535897931 $167 $386 forward @7 unknown #
attrib_edge_convexity-kcp-attrib $-1 -1 $387 $-1 $171 2 #
vertex $-1 -1 $-1 $171 $388 #
vertex $-1 -1 $-1 $171 $389 #
ellipse-curve $-1 -1 $-1 -53.974999999999994 0 8.8123952579621795e-017 -1 4.0602442043434294e-015 3.6842646789200396e-031 1.127986593019159e-014 2.7781249999999997 2.5208700009165737e-016 1 I I #
edge $390 -1 $-1 $266 0 $267 3.1415926535897931 $261 $391 forward @7 unknown #
straight-curve $-1 -1 $-1 -53.974999999999987 -2.7781249999999997 -6.8042190534255829e-016 -25.399999999999999 0 0 I I #
straight-curve $-1 -1 $-1 -53.974999999999987 2.7781249999999997 3.4021095267127914e-016 -25.399999999999999 0 0 I I #
convexity-sys-attrib $-1 -1 $-1 $175 $115 #
face $392 -1 $-1 $-1 $196 $31 $-1 $393 reversed single #
loop $-1 -1 $-1 $-1 $289 $181 #
plane-surface $-1 -1 $-1 0 3.1750000000000029 0 0 -1 0 0 0 -1 forward_v I I I I #
coedge $-1 -1 $-1 $394 $287 $290 $395 forward $182 $-1 #
coedge $-1 -1 $-1 $293 $184 $185 $281 reversed $121 $-1 #
coedge $-1 -1 $-1 $287 $394 $184 $279 reversed $182 $-1 #
edge $-1 -1 $-1 $294 -3.1749999999999998 $396 3.1749999999999998 $278 $397 forward @7 unknown #
coedge $-1 -1 $-1 $186 $185 $394 $398 forward $83 $-1 #
edge $-1 -1 $-1 $285 -30.956249999999997 $396 30.956249999999997 $277 $399 forward @7 unknown #
coedge $-1 -1 $-1 $290 $289 $186 $283 reversed $274 $-1 #
edge $-1 -1 $-1 $400 -30.956249999999997 $284 30.956249999999997 $282 $401 forward @7 unknown #
vertex $-1 -1 $-1 $188 $402 #
vertex $-1 -1 $-1 $296 $403 #
straight-curve $-1 -1 $-1 30.956249999999997 0 -3.1749999999999998 0 -1 0 I I #
coedge $-1 -1 $-1 $276 $278 $189 $288 reversed $182 $-1 #
edge $-1 -1 $-1 $291 -3.1750000000000029 $294 3.1750000000000029 $287 $404 forward @7 unknown #
coedge $-1 -1 $-1 $282 $190 $195 $297 forward $274 $-1 #
coedge $-1 -1 $-1 $190 $282 $276 $395 reversed $274 $-1 #
vertex $-1 -1 $-1 $191 $405 #
straight-curve $-1 -1 $-1 0 3.1750000000000029 3.1749999999999998 -1 0 0 I I #
coedge $-1 -1 $-1 $192 $277 $194 $296 reversed $121 $-1 #
vertex $-1 -1 $-1 $288 $406 #
straight-curve $-1 -1 $-1 0 -3.1750000000000029 3.1749999999999998 1 0 0 I I #
edge $-1 -1 $-1 $197 -3.1749999999999998 $285 3.1749999999999998 $194 $407 forward @7 unknown #
edge $-1 -1 $-1 $198 -3.1749999999999998 $284 3.1749999999999998 $195 $408 forward @7 unknown #
point $-1 -1 $-1 30.956249999999997 -3.1750000000000029 3.1749999999999998 #
point $-1 -1 $-1 30.956249999999997 3.1750000000000029 3.1749999999999998 #
coedge $-1 -1 $-1 $207 $205 $203 $303 forward $200 $-1 #
coedge $-1 -1 $-1 $202 $202 $304 $409 reversed $129 $-1 #
edge $-1 -1 $-1 $306 -3.1415926535897993 $309 -1.6961241579629596 $202 $410 forward @7 unknown #
edge $411 -1 $-1 $210 -2.1000651031575188 $209 2.1000651031575188 $203 $412 forward @7 unknown #
coedge $-1 -1 $-1 $205 $207 $301 $409 forward $200 $-1 #
convexity-sys-attrib $-1 -1 $-1 $-1 $206 #
vertex $-1 -1 $-1 $409 $413 #
straight-curve $-1 -1 $-1 -30.956249999999997 2.1000651031575233 -2.3812499999999943 -1 0 0 I I #
convexity-sys-attrib $-1 -1 $-1 $-1 $208 #
vertex $-1 -1 $-1 $208 $414 #
straight-curve $-1 -1 $-1 -30.956249999999997 -2.1000651031575321 -2.3812499999999943 1 0 0 I I #
point $-1 -1 $-1 13.493749999999999 -2.1000651031575188 -2.3812499999999996 #
point $-1 -1 $-1 13.493749999999999 2.1000651031575188 -2.3812499999999996 #
face $-1 -1 $-1 $415 $416 $35 $-1 $417 forward single #
loop $-1 -1 $-1 $-1 $336 $212 #
plane-surface $-1 -1 $-1 0 3.1750000000000029 0 0 -1 0 0 0 -1 forward_v I I I I #
coedge $-1 -1 $-1 $418 $419 $420 $319 reversed $213 $-1 #
coedge $-1 -1 $-1 $220 $214 $421 $422 reversed $136 $-1 #
coedge $-1 -1 $-1 $214 $220 $423 $424 reversed $136 $-1 #
edge $-1 -1 $-1 $425 -61.912499999999994 $426 0 $420 $427 forward @7 unknown #
coedge $-1 -1 $-1 $216 $215 $428 $429 reversed $91 $-1 #
coedge $-1 -1 $-1 $430 $431 $432 $322 forward $433 $-1 #
edge $-1 -1 $-1 $434 -61.912499999999994 $326 0 $321 $435 forward @7 unknown #
coedge $-1 -1 $-1 $324 $217 $436 $437 forward $325 $-1 #
coedge $-1 -1 $-1 $217 $323 $430 $438 reversed $325 $-1 #
loop $-1 -1 $-1 $-1 $217 $439 #
vertex $-1 -1 $-1 $438 $440 #
vertex $-1 -1 $-1 $437 $441 #
ellipse-curve $-1 -1 $-1 -30.956249999999997 -4.4408920985006262e-015 -4.8849813083506888e-015 1 0 0 0 -2.1000651031575126 2.3812500000000028 1 I I #
coedge $-1 -1 $-1 $442 $443 $219 $330 forward $444 $-1 #
edge $-1 -1 $-1 $327 -2.2935305746083103 $332 -0.72273424781341367 $329 $328 forward @7 unknown #
coedge $-1 -1 $-1 $445 $446 $447 $221 forward $416 $-1 #
vertex $-1 -1 $-1 $448 $449 #
straight-curve $-1 -1 $-1 -30.956249999999997 -4.4408920985006262e-015 3.1749999999999998 -1 0 0 I I #
coedge $-1 -1 $-1 $450 $222 $443 $451 reversed $337 $-1 #
coedge $-1 -1 $-1 $222 $450 $224 $339 forward $337 $-1 #
coedge $-1 -1 $-1 $452 $436 $216 $223 reversed $314 $-1 #
loop $-1 -1 $-1 $-1 $222 $453 #
straight-curve $-1 -1 $-1 -30.956249999999997 3.1750000000000029 -4.8849813083506888e-015 -1 0 0 I I #
edge $-1 -1 $-1 $454 -3.1749999999999998 $228 4.8849813083506888e-015 $224 $455 forward @7 unknown #
coedge $-1 -1 $-1 $456 $447 $225 $341 forward $457 $-1 #
edge $-1 -1 $-1 $227 -4.4408920985006262e-015 $454 3.1750000000000029 $225 $458 forward @7 unknown #
face $-1 -1 $-1 $459 $226 $35 $-1 $460 reversed single #
point $-1 -1 $-1 30.956249999999997 -4.4408920985006262e-015 3.1749999999999998 #
edge $-1 -1 $-1 $228 4.8849813083506888e-015 $461 3.1749999999999998 $462 $455 forward @7 unknown #
point $-1 -1 $-1 30.956249999999997 3.1750000000000029 -4.8849813083506888e-015 #
loop $-1 -1 $-1 $-1 $236 $142 #
coedge $-1 -1 $-1 $347 $347 $234 $348 forward $230 $-1 #
edge $463 -1 $-1 $464 -3.1415926535897931 $464 3.1415926535897931 $234 $465 forward @7 unknown #
vertex $-1 -1 $-1 $235 $466 #
ellipse-curve $-1 -1 $-1 -30.956249999999997 -4.4408920985006262e-015 -4.8849813083506888e-015 1 0 0 0 -2.1000651031575126 2.3812500000000028 1 I I #
convexity-sys-attrib $-1 -1 $-1 $-1 $237 #
vertex $-1 -1 $-1 $237 $467 #
ellipse-curve $-1 -1 $-1 -23.018749999999997 0 0 -1 0 0 0 -2.7781249999999997 0 1 I I #
point $-1 -1 $-1 -30.95624999999999 -2.7781249999999997 -8.8817841970012523e-016 #
vertex $-1 -1 $-1 $241 $468 #
ellipse-curve $-1 -1 $-1 -2.3812499999999996 0 2.3812499999999996 0 0 -1 1.1906249999999998 0 0 1 I I #
point $-1 -1 $-1 -3.5718749999999999 0 -2.3812499999999996 #
coedge $-1 -1 $-1 $251 $249 $247 $361 forward $244 $-1 #
coedge $-1 -1 $-1 $246 $246 $362 $469 reversed $156 $-1 #
edge $-1 -1 $-1 $364 -1.6740420335348653e-015 $367 1.4454684956268289 $246 $470 forward @7 unknown #
edge $471 -1 $-1 $254 -2.1000651031575179 $253 2.1000651031575184 $247 $472 forward @7 unknown #
coedge $-1 -1 $-1 $249 $251 $359 $469 forward $244 $-1 #
convexity-sys-attrib $-1 -1 $-1 $-1 $250 #
vertex $-1 -1 $-1 $469 $473 #
straight-curve $-1 -1 $-1 -30.956249999999997 -2.100065103157521 2.3812499999999943 -1 0 0 I I #
convexity-sys-attrib $-1 -1 $-1 $-1 $252 #
vertex $-1 -1 $-1 $252 $474 #
straight-curve $-1 -1 $-1 -30.956249999999997 2.1000651031575122 2.3812499999999943 1 0 0 I I #
point $-1 -1 $-1 13.493749999999999 2.1000651031575179 2.3812499999999996 #
point $-1 -1 $-1 13.493749999999999 -2.1000651031575184 2.3812499999999996 #
model_id-kcp-attrib $-1 -1 $-1 $-1 $257 1 1021480936 1021480936 1119485953 8 #
face $475 -1 $-1 $476 $477 $11 $-1 $478 forward single #
loop $-1 -1 $-1 $-1 $479 $257 #
cone-surface $-1 -1 $-1 -23.495000000000005 0 0 1 0 0 0 -25.400000000000087 0 1 I I -0.70710678118654879 0.70710678118654624 25.400000000000087 forward I I I I #
coedge $-1 -1 $-1 $480 $481 $482 $483 reversed $258 $-1 #
coedge $-1 -1 $-1 $263 $260 $484 $485 forward $164 $-1 #
coedge $-1 -1 $-1 $260 $486 $487 $488 forward $164 $-1 #
coedge $-1 -1 $-1 $481 $489 $260 $379 reversed $258 $-1 #
edge $-1 -1 $-1 $490 7.0485980359362619e-016 $491 0.84806207898148145 $260 $492 forward @7 unknown #
coedge $-1 -1 $-1 $484 $493 $262 $381 forward $477 $-1 #
edge $494 -1 $-1 $384 0 $385 3.1415926535897931 $380 $495 forward @7 unknown #
coedge $-1 -1 $-1 $482 $263 $493 $496 reversed $164 $-1 #
attrib_edge_convexity-kcp-attrib $-1 -1 $497 $-1 $264 1 #
vertex $-1 -1 $-1 $381 $498 #
vertex $-1 -1 $-1 $485 $499 #
ellipse-curve $-1 -1 $-1 -53.974999999999994 0 1.7624790515924359e-016 -1 0 0 0 3.1749999999999998 -1.7624790515924359e-016 1 I I #
convexity-sys-attrib $-1 -1 $-1 $265 $171 #
point $-1 -1 $-1 -53.974999999999987 2.7781249999999997 3.4021095267127914e-016 #
point $-1 -1 $-1 -53.974999999999987 -2.7781249999999997 -6.8042190534255829e-016 #
attrib_edge_convexity-kcp-attrib $-1 -1 $500 $-1 $269 2 #
ellipse-curve $-1 -1 $-1 -53.974999999999994 0 -8.8123952579621795e-017 1 -4.0602442043434294e-015 -6.2601370224988535e-031 1.127986593019159e-014 2.7781249999999997 4.2833490525090096e-016 1 I I #
model_id-kcp-attrib $-1 -1 $-1 $-1 $273 1 1021480936 1021480936 1119485954 3 #
plane-surface $-1 -1 $-1 30.956249999999997 0 0 -1 0 0 0 0 1 forward_v I I I I #
coedge $-1 -1 $-1 $278 $276 $280 $398 reversed $182 $-1 #
edge $-1 -1 $-1 $291 -3.1749999999999998 $400 3.1749999999999998 $290 $501 forward @7 unknown #
vertex $-1 -1 $-1 $398 $502 #
straight-curve $-1 -1 $-1 -30.956249999999997 -3.1750000000000029 0 0 0 -1 I I #
edge $-1 -1 $-1 $396 -3.1750000000000029 $400 3.1750000000000029 $394 $503 forward @7 unknown #
straight-curve $-1 -1 $-1 0 -3.1750000000000029 -3.1749999999999998 -1 0 0 I I #
vertex $-1 -1 $-1 $283 $504 #
straight-curve $-1 -1 $-1 0 3.1750000000000029 -3.1749999999999998 1 0 0 I I #
point $-1 -1 $-1 30.956249999999997 3.1750000000000029 -3.1749999999999998 #
point $-1 -1 $-1 30.956249999999997 -3.1750000000000029 -3.1749999999999998 #
straight-curve $-1 -1 $-1 -30.956249999999997 0 3.1749999999999998 0 -1 0 I I #
point $-1 -1 $-1 -30.956249999999997 3.1750000000000029 3.1749999999999998 #
point $-1 -1 $-1 -30.956249999999997 -3.1750000000000029 3.1749999999999998 #
straight-curve $-1 -1 $-1 30.956249999999997 -3.1750000000000029 0 0 0 -1 I I #
straight-curve $-1 -1 $-1 30.956249999999997 3.1750000000000029 0 0 0 -1 I I #
edge $505 -1 $-1 $309 -2.1000651031575321 $306 2.1000651031575233 $301 $506 forward @7 unknown #
ellipse-curve $-1 -1 $-1 30.956249999999997 -4.4408920985006262e-015 -4.8849813083506888e-015 -1 0 0 0 -2.1000651031575126 2.3812500000000028 1 I I #
convexity-sys-attrib $-1 -1 $-1 $-1 $303 #
straight-curve $-1 -1 $-1 13.493749999999999 0 -2.3812499999999943 0 -1 0 I I #
point $-1 -1 $-1 30.956249999999997 2.1000651031575233 -2.3812499999999943 #
point $-1 -1 $-1 30.956249999999997 -2.1000651031575321 -2.3812499999999943 #
face $-1 -1 $-1 $439 $507 $35 $-1 $508 reversed single #
loop $-1 -1 $-1 $-1 $331 $313 #
plane-surface $-1 -1 $-1 0 0 3.1749999999999998 0 0 1 1 0 0 forward_v I I I I #
coedge $-1 -1 $-1 $509 $316 $510 $511 reversed $213 $-1 #
coedge $-1 -1 $-1 $316 $509 $512 $513 reversed $213 $-1 #
coedge $-1 -1 $-1 $514 $515 $516 $319 forward $517 $-1 #
coedge $-1 -1 $-1 $518 $519 $317 $422 forward $520 $-1 #
edge $-1 -1 $-1 $332 -0.72273424781341367 $426 0.848062078981483 $421 $328 forward @7 unknown #
coedge $-1 -1 $-1 $521 $522 $318 $424 forward $523 $-1 #
edge $-1 -1 $-1 $425 -0.848062078981483 $227 0.72273424781341367 $423 $229 forward @7 unknown #
vertex $-1 -1 $-1 $524 $525 #
vertex $-1 -1 $-1 $526 $527 #
straight-curve $-1 -1 $-1 -30.956249999999997 -3.1750000000000029 -4.8849813083506888e-015 -1 0 0 I I #
coedge $-1 -1 $-1 $528 $462 $320 $429 forward $529 $-1 #
edge $-1 -1 $-1 $228 2.2935305746083103 $434 3.8643269014032064 $428 $229 forward @7 unknown #
coedge $-1 -1 $-1 $530 $321 $324 $438 forward $433 $-1 #
coedge $-1 -1 $-1 $321 $530 $528 $531 forward $433 $-1 #
coedge $-1 -1 $-1 $532 $533 $509 $322 reversed $534 $-1 #
loop $-1 -1 $-1 $-1 $321 $535 #
vertex $-1 -1 $-1 $536 $537 #
straight-curve $-1 -1 $-1 -30.956249999999997 -4.4408920985006262e-015 -3.1749999999999998 -1 0 0 I I #
coedge $-1 -1 $-1 $336 $538 $323 $437 reversed $314 $-1 #
edge $-1 -1 $-1 $327 4.8849813083506888e-015 $539 3.1749999999999998 $436 $540 forward @7 unknown #
edge $-1 -1 $-1 $326 -4.4408920985006262e-015 $539 3.1750000000000029 $324 $541 forward @7 unknown #
face $-1 -1 $-1 $542 $325 $35 $-1 $508 reversed single #
point $-1 -1 $-1 -30.956249999999997 -4.4408920985006262e-015 -3.1749999999999998 #
point $-1 -1 $-1 -30.956249999999997 3.1750000000000029 -4.8849813083506888e-015 #
coedge $-1 -1 $-1 $443 $329 $543 $544 reversed $444 $-1 #
coedge $-1 -1 $-1 $329 $442 $334 $451 forward $444 $-1 #
loop $-1 -1 $-1 $-1 $329 $542 #
coedge $-1 -1 $-1 $545 $331 $519 $448 forward $416 $-1 #
coedge $-1 -1 $-1 $331 $545 $521 $546 forward $416 $-1 #
coedge $-1 -1 $-1 $340 $543 $138 $221 reversed $457 $-1 #
edge $-1 -1 $-1 $332 4.4408920985006262e-015 $547 3.1750000000000029 $519 $548 forward @7 unknown #
point $-1 -1 $-1 -30.956249999999997 -4.4408920985006262e-015 3.1749999999999998 #
coedge $-1 -1 $-1 $335 $334 $456 $549 reversed $337 $-1 #
edge $-1 -1 $-1 $550 -3.1749999999999998 $327 4.8849813083506888e-015 $334 $540 forward @7 unknown #
coedge $-1 -1 $-1 $538 $336 $462 $344 forward $314 $-1 #
face $-1 -1 $-1 $-1 $337 $35 $-1 $315 reversed single #
vertex $-1 -1 $-1 $341 $551 #
straight-curve $-1 -1 $-1 30.956249999999997 3.1750000000000029 0 0 0 -1 I I #
coedge $-1 -1 $-1 $543 $340 $450 $549 forward $457 $-1 #
loop $-1 -1 $-1 $-1 $447 $552 #
straight-curve $-1 -1 $-1 30.956249999999997 0 3.1749999999999998 0 1 0 I I #
face $-1 -1 $-1 $553 $529 $35 $-1 $460 reversed single #
plane-surface $-1 -1 $-1 30.956249999999997 0 0 -1 0 0 0 0 1 forward_v I I I I #
vertex $-1 -1 $-1 $531 $554 #
coedge $-1 -1 $-1 $428 $528 $452 $344 reversed $529 $-1 #
convexity-sys-attrib $-1 -1 $-1 $-1 $348 #
vertex $-1 -1 $-1 $348 $555 #
ellipse-curve $-1 -1 $-1 -23.018749999999997 -4.4408920985006262e-015 -4.8849813083506888e-015 1 0 0 0 -2.1000651031575126 2.3812500000000028 1 I I #
point $-1 -1 $-1 -30.956249999999997 2.1000651031575086 -2.3812500000000072 #
point $-1 -1 $-1 -23.01874999999999 2.7781249999999997 3.4021095267127914e-016 #
point $-1 -1 $-1 -1.1906249999999998 0 2.3812499999999996 #
edge $556 -1 $-1 $367 -2.1000651031575126 $364 2.1000651031575206 $359 $557 forward @7 unknown #
ellipse-curve $-1 -1 $-1 30.956249999999997 -4.4408920985006262e-015 -4.8849813083506888e-015 -1 0 0 0 -2.1000651031575126 2.3812500000000028 1 I I #
convexity-sys-attrib $-1 -1 $-1 $-1 $361 #
straight-curve $-1 -1 $-1 13.493749999999999 -3.3306690738754696e-016 2.3812499999999943 0 1 0 I I #
point $-1 -1 $-1 30.956249999999997 -2.100065103157521 2.3812499999999943 #
point $-1 -1 $-1 30.956249999999997 2.1000651031575122 2.3812499999999943 #
model_id-kcp-attrib $-1 -1 $-1 $-1 $372 1 1021480936 1021480936 1119485953 9 #
face $558 -1 $-1 $559 $560 $11 $-1 $561 reversed single #
loop $-1 -1 $-1 $-1 $562 $372 #
cone-surface $-1 -1 $-1 -65.008124999999993 0 0 1 0 0 0 -3.1749999999999998 0 1 I I 0 1 3.1749999999999998 forward I I I I #
coedge $-1 -1 $-1 $563 $564 $565 $566 forward $373 $-1 #
coedge $-1 -1 $-1 $567 $375 $568 $569 forward $258 $-1 #
coedge $-1 -1 $-1 $375 $378 $570 $571 forward $258 $-1 #
coedge $-1 -1 $-1 $572 $382 $375 $483 forward $164 $-1 #
edge $-1 -1 $-1 $573 4.3822888652613942e-030 $574 0.8480620789814709 $482 $575 forward @7 unknown #
coedge $-1 -1 $-1 $565 $380 $376 $485 reversed $477 $-1 #
edge $-1 -1 $-1 $491 0 $385 2.0750000000000002 $484 $576 forward @7 unknown #
coedge $-1 -1 $-1 $377 $572 $577 $578 reversed $164 $-1 #
coedge $-1 -1 $-1 $579 $570 $377 $488 reversed $580 $-1 #
edge $581 -1 $-1 $582 0 $490 0.63750000000000018 $377 $583 forward @7 unknown #
coedge $-1 -1 $-1 $378 $567 $563 $584 reversed $258 $-1 #
vertex $-1 -1 $-1 $488 $585 #
vertex $-1 -1 $-1 $566 $586 #
ellipse-curve $-1 -1 $-1 -1.2699999999999969 -8.81239525796218e-016 1.0574874309554614e-015 -1 2.9373740229760974e-016 3.3306690738754706e-016 -1.4099832412739487e-015 -2.1000651031575175 -2.3812500000000036 1 I I #
coedge $-1 -1 $-1 $380 $562 $382 $496 forward $477 $-1 #
attrib_edge_convexity-kcp-attrib $-1 -1 $587 $-1 $381 1 #
ellipse-curve $-1 -1 $-1 -53.974999999999994 0 -1.7624790515924359e-016 1 0 0 0 3.1749999999999998 1.7624790515924359e-016 1 I I #
edge $-1 -1 $-1 $573 0 $384 2.0750000000000002 $493 $588 forward @7 unknown #
convexity-sys-attrib $-1 -1 $-1 $383 $264 #
point $-1 -1 $-1 -53.974999999999994 3.1749999999999998 0 #
point $-1 -1 $-1 -53.974999999999994 -3.1749999999999998 0 #
convexity-sys-attrib $-1 -1 $-1 $390 $269 #
straight-curve $-1 -1 $-1 -30.956249999999997 3.1750000000000029 0 0 0 -1 I I #
point $-1 -1 $-1 -30.956249999999997 -3.1750000000000029 -3.1749999999999998 #
straight-curve $-1 -1 $-1 -30.956249999999997 0 -3.1749999999999998 0 1 0 I I #
point $-1 -1 $-1 -30.956249999999997 3.1750000000000029 -3.1749999999999998 #
convexity-sys-attrib $-1 -1 $-1 $-1 $409 #
straight-curve $-1 -1 $-1 30.956249999999997 0 -2.3812499999999943 0 1 0 I I #
loop $-1 -1 $-1 $-1 $512 $415 #
plane-surface $-1 -1 $-1 -30.956249999999997 0 0 1 0 0 0 0 -1 forward_v I I I I #
coedge $-1 -1 $-1 $419 $418 $215 $322 forward $213 $-1 #
coedge $-1 -1 $-1 $589 $590 $418 $511 forward $591 $-1 #
edge $-1 -1 $-1 $434 -2.4188584057763798 $425 -0.848062078981483 $510 $229 forward @7 unknown #
coedge $-1 -1 $-1 $592 $593 $419 $513 forward $507 $-1 #
edge $-1 -1 $-1 $426 0.848062078981483 $326 2.4188584057763798 $512 $328 forward @7 unknown #
coedge $-1 -1 $-1 $594 $420 $593 $526 forward $517 $-1 #
coedge $-1 -1 $-1 $420 $594 $589 $524 reversed $517 $-1 #
coedge $-1 -1 $-1 $595 $596 $214 $319 reversed $597 $-1 #
loop $-1 -1 $-1 $-1 $420 $598 #
coedge $-1 -1 $-1 $519 $421 $596 $599 reversed $520 $-1 #
coedge $-1 -1 $-1 $421 $518 $445 $448 reversed $520 $-1 #
loop $-1 -1 $-1 $-1 $421 $600 #
coedge $-1 -1 $-1 $522 $423 $446 $546 reversed $523 $-1 #
coedge $-1 -1 $-1 $423 $521 $595 $601 forward $523 $-1 #
loop $-1 -1 $-1 $-1 $423 $602 #
edge $-1 -1 $-1 $425 4.8849813083506888e-015 $603 3.1749999999999998 $589 $604 forward @7 unknown #
point $-1 -1 $-1 30.956249999999997 -3.1750000000000029 -4.8849813083506888e-015 #
edge $-1 -1 $-1 $426 4.8849813083506888e-015 $605 3.1749999999999998 $593 $606 forward @7 unknown #
point $-1 -1 $-1 -30.956249999999997 -3.1750000000000029 -4.8849813083506888e-015 #
coedge $-1 -1 $-1 $462 $428 $431 $531 reversed $529 $-1 #
loop $-1 -1 $-1 $-1 $428 $459 #
coedge $-1 -1 $-1 $431 $430 $538 $607 forward $433 $-1 #
edge $-1 -1 $-1 $461 -3.1750000000000029 $434 4.4408920985006262e-015 $528 $608 forward @7 unknown #
coedge $-1 -1 $-1 $609 $432 $590 $536 forward $534 $-1 #
coedge $-1 -1 $-1 $432 $609 $592 $610 forward $534 $-1 #
loop $-1 -1 $-1 $-1 $432 $611 #
face $-1 -1 $-1 $598 $433 $35 $-1 $612 reversed single #
edge $-1 -1 $-1 $434 4.4408920985006262e-015 $603 3.1750000000000029 $590 $608 forward @7 unknown #
point $-1 -1 $-1 30.956249999999997 -4.4408920985006262e-015 -3.1749999999999998 #
coedge $-1 -1 $-1 $436 $452 $530 $607 reversed $314 $-1 #
vertex $-1 -1 $-1 $607 $613 #
straight-curve $-1 -1 $-1 -30.956249999999997 3.1750000000000029 0 0 0 -1 I I #
straight-curve $-1 -1 $-1 -30.956249999999997 0 -3.1749999999999998 0 1 0 I I #
face $-1 -1 $-1 $600 $444 $35 $-1 $508 reversed single #
coedge $-1 -1 $-1 $447 $456 $442 $544 forward $457 $-1 #
edge $-1 -1 $-1 $550 -3.1750000000000029 $332 4.4408920985006262e-015 $442 $548 forward @7 unknown #
coedge $-1 -1 $-1 $446 $445 $614 $615 forward $416 $-1 #
edge $-1 -1 $-1 $616 -3.1750000000000029 $227 -4.4408920985006262e-015 $521 $458 forward @7 unknown #
vertex $-1 -1 $-1 $448 $617 #
straight-curve $-1 -1 $-1 -30.956249999999997 0 3.1749999999999998 0 -1 0 I I #
edge $-1 -1 $-1 $454 -30.956249999999997 $550 30.956249999999997 $450 $618 forward @7 unknown #
vertex $-1 -1 $-1 $549 $619 #
point $-1 -1 $-1 30.956249999999997 3.1750000000000029 3.1749999999999998 #
face $-1 -1 $-1 $535 $457 $35 $-1 $417 forward single #
face $-1 -1 $-1 $620 $591 $35 $-1 $460 reversed single #
point $-1 -1 $-1 30.956249999999997 3.1750000000000029 -3.1749999999999998 #
point $-1 -1 $-1 -23.018749999999997 2.1000651031575086 -2.3812500000000072 #
convexity-sys-attrib $-1 -1 $-1 $-1 $469 #
straight-curve $-1 -1 $-1 30.956249999999997 -3.3306690738754696e-016 2.3812499999999943 0 -1 0 I I #
model_id-kcp-attrib $-1 -1 $-1 $-1 $476 1 1021480936 1021480936 1119485953 10 #
face $621 -1 $-1 $622 $623 $11 $-1 $624 forward single #
loop $-1 -1 $-1 $625 $626 $476 #
plane-surface $-1 -1 $-1 0 -2.1000651031575188 2.3812499999999996 0 0 -1 0 25.399999999999999 0 forward_v I I I I #
coedge $-1 -1 $-1 $493 $627 $628 $629 reversed $477 $-1 #
coedge $-1 -1 $-1 $630 $479 $489 $584 forward $373 $-1 #
coedge $-1 -1 $-1 $479 $628 $631 $632 forward $373 $-1 #
coedge $-1 -1 $-1 $633 $484 $479 $566 reversed $477 $-1 #
edge $-1 -1 $-1 $634 -3.5242990179681349e-016 $491 0.84806207898148145 $565 $635 forward @7 unknown #
coedge $-1 -1 $-1 $489 $480 $636 $637 forward $258 $-1 #
coedge $-1 -1 $-1 $628 $630 $480 $569 reversed $373 $-1 #
edge $-1 -1 $-1 $573 1.5453665931926915e-016 $638 0.070710678118654627 $480 $639 forward @7 unknown #
coedge $-1 -1 $-1 $487 $640 $481 $571 reversed $580 $-1 #
edge $641 -1 $-1 $490 0 $574 1 $481 $642 forward @7 unknown #
coedge $-1 -1 $-1 $486 $482 $640 $643 reversed $164 $-1 #
vertex $-1 -1 $-1 $496 $644 #
vertex $-1 -1 $-1 $643 $645 #
ellipse-curve $-1 -1 $-1 -1.269999999999996 -3.524958103184872e-014 1.7580728539634547e-014 -1 -6.6613381477508594e-016 3.6069658592833961e-030 -2.1149748619109229e-015 3.175000000000038 -1.7191916022295944e-014 1 I I #
straight-curve $-1 -1 $-1 -1.2699999999999954 -3.1749999999999998 -7.7762503467720954e-016 -25.399999999999999 0 0 I I #
coedge $-1 -1 $-1 $646 $646 $486 $578 forward $647 $-1 #
edge $648 -1 $-1 $582 -2.6432242634760983e-016 $649 1.4454684956268309 $486 $650 forward @7 unknown #
coedge $-1 -1 $-1 $640 $487 $646 $651 forward $580 $-1 #
loop $-1 -1 $-1 $652 $579 $653 #
attrib_edge_convexity-kcp-attrib $-1 -1 $654 $-1 $488 1 #
vertex $-1 -1 $-1 $488 $655 #
straight-curve $-1 -1 $-1 -17.462499999999999 -2.1000651031575188 -2.3812499999999996 25.399999999999999 0 0 I I #
edge $-1 -1 $-1 $491 1.5453665931926915e-016 $656 0.070710678118654627 $489 $657 forward @7 unknown #
point $-1 -1 $-1 -1.2699999999999947 -2.1000651031575188 -2.3812499999999996 #
point $-1 -1 $-1 -1.2699999999999954 -3.1749999999999998 -7.7762503467720954e-016 #
convexity-sys-attrib $-1 -1 $-1 $494 $381 #
straight-curve $-1 -1 $-1 -1.2699999999999954 3.1749999999999998 3.8881251733860477e-016 -25.399999999999999 0 0 I I #
coedge $-1 -1 $-1 $590 $510 $515 $524 forward $591 $-1 #
coedge $-1 -1 $-1 $510 $589 $532 $536 reversed $591 $-1 #
loop $-1 -1 $-1 $-1 $510 $553 #
coedge $-1 -1 $-1 $593 $512 $533 $610 reversed $507 $-1 #
coedge $-1 -1 $-1 $512 $592 $514 $526 reversed $507 $-1 #
coedge $-1 -1 $-1 $515 $514 $609 $658 reversed $517 $-1 #
coedge $-1 -1 $-1 $614 $516 $522 $601 reversed $597 $-1 #
coedge $-1 -1 $-1 $516 $614 $518 $599 forward $597 $-1 #
loop $-1 -1 $-1 $-1 $516 $620 #
face $-1 -1 $-1 $453 $517 $35 $-1 $659 reversed single #
edge $-1 -1 $-1 $547 -3.1749999999999998 $426 4.8849813083506888e-015 $518 $606 forward @7 unknown #
face $-1 -1 $-1 $611 $520 $35 $-1 $508 reversed single #
edge $-1 -1 $-1 $616 -3.1749999999999998 $425 4.8849813083506888e-015 $522 $604 forward @7 unknown #
face $-1 -1 $-1 $342 $523 $35 $-1 $460 reversed single #
vertex $-1 -1 $-1 $524 $660 #
straight-curve $-1 -1 $-1 30.956249999999997 -3.1750000000000029 0 0 0 -1 I I #
vertex $-1 -1 $-1 $610 $661 #
straight-curve $-1 -1 $-1 -30.956249999999997 -3.1750000000000029 0 0 0 -1 I I #
edge $-1 -1 $-1 $539 -30.956249999999997 $461 30.956249999999997 $538 $662 forward @7 unknown #
straight-curve $-1 -1 $-1 30.956249999999997 0 -3.1749999999999998 0 -1 0 I I #
coedge $-1 -1 $-1 $533 $532 $594 $658 forward $534 $-1 #
edge $-1 -1 $-1 $605 -3.1750000000000029 $326 -4.4408920985006262e-015 $592 $541 forward @7 unknown #
face $-1 -1 $-1 $602 $534 $35 $-1 $612 reversed single #
plane-surface $-1 -1 $-1 0 0 -3.1749999999999998 0 0 1 1 0 0 forward_v I I I I #
point $-1 -1 $-1 -30.956249999999997 3.1750000000000029 -3.1749999999999998 #
coedge $-1 -1 $-1 $596 $595 $545 $615 reversed $597 $-1 #
edge $-1 -1 $-1 $547 -30.956249999999997 $616 30.956249999999997 $614 $663 forward @7 unknown #
vertex $-1 -1 $-1 $546 $664 #
point $-1 -1 $-1 -30.956249999999997 -3.1750000000000029 3.1749999999999998 #
straight-curve $-1 -1 $-1 0 3.1750000000000029 3.1749999999999998 -1 0 0 I I #
point $-1 -1 $-1 -30.956249999999997 3.1750000000000029 3.1749999999999998 #
face $-1 -1 $-1 $552 $597 $35 $-1 $659 reversed single #
model_id-kcp-attrib $-1 -1 $-1 $-1 $559 1 1021480936 1021480936 1119485953 11 #
face $665 -1 $-1 $666 $667 $11 $-1 $668 reversed single #
loop $-1 -1 $-1 $-1 $669 $559 #
plane-surface $-1 -1 $-1 -17.462499999999999 0 0 1 0 0 0 25.399999999999999 0 forward_v I I I I #
loop $-1 -1 $-1 $-1 $670 $476 #
coedge $-1 -1 $-1 $671 $672 $669 $673 reversed $560 $-1 #
coedge $-1 -1 $-1 $562 $674 $672 $675 forward $477 $-1 #
coedge $-1 -1 $-1 $564 $568 $562 $629 forward $373 $-1 #
edge $-1 -1 $-1 $573 -4.6953094984944955e-031 $676 0.84806207898148434 $562 $677 forward @7 unknown #
coedge $-1 -1 $-1 $568 $563 $678 $679 reversed $373 $-1 #
coedge $-1 -1 $-1 $672 $671 $564 $632 reversed $560 $-1 #
edge $680 -1 $-1 $676 0 $634 0.99999999999999989 $564 $681 forward @7 unknown #
coedge $-1 -1 $-1 $674 $565 $671 $682 reversed $477 $-1 #
vertex $-1 -1 $-1 $682 $683 #
ellipse-curve $-1 -1 $-1 -1.269999999999996 -4.9349413444588203e-015 -4.802755415589388e-015 1 1.4686870114880497e-016 -1.6653345369377385e-016 7.0499162063697436e-016 -2.100065103157513 2.3812500000000019 1 I I #
coedge $-1 -1 $-1 $678 $678 $567 $637 reversed $684 $-1 #
edge $-1 -1 $-1 $638 0 $656 3.1415926535897936 $636 $685 forward @7 unknown #
vertex $-1 -1 $-1 $637 $686 #
straight-curve $-1 -1 $-1 -1.2699999999999982 3.1750000000000025 3.8881251733860536e-016 17.960512242138268 -17.960512242138346 -2.1994557409627156e-015 I I #
coedge $-1 -1 $-1 $570 $579 $572 $643 forward $580 $-1 #
attrib_edge_convexity-kcp-attrib $-1 -1 $687 $-1 $571 1 #
intcurve-curve $-1 -1 $-1 forward { surfintcur full nurbs 3 open 10 
	0 3 0.11341996776814313 1 0.22526676225176862 1 0.33573493499021551 1 0.4453140570829856 1 
	0.55461299265366404 1 0.66416925882496347 1 0.77461872658133246 1 0.88651053444187056 1 1 3 
	-1.2699999999999947 -2.1000651031575188 -2.3812499999999996 1 
	-1.1508312654396506 -1.9211565235627499 -2.3812499999999996 1.0000000000000002 
	-0.94055228377399136 -1.575880648058084 -2.3812500000000001 0.99999999999999978 
	-0.70257100579196985 -1.0907299305166478 -2.3812499999999996 1 
	-0.54896692812178305 -0.64083634871053841 -2.3812499999999996 1.0000000000000002 
	-0.47328707314553964 -0.21308361461007924 -2.3812499999999996 1 
	-0.47302929677643635 0.20989839470241239 -2.3812499999999996 0.99999999999999978 
	-0.54795713433473137 0.63664078509409205 -2.3812500000000001 1 
	-0.7002842409133837 1.085391234298922 -2.3812499999999996 1.0000000000000002 
	-0.93893092579817405 1.573210463941213 -2.3812499999999996 1.0000000000000002 
	-1.1501524120069431 1.9201324637201922 -2.3812499999999996 0.99999999999999989 
	-1.2699999999999956 2.1000651031575188 -2.3812499999999996 1 
	0.025399999999999999 
	cone -23.495000000000005 0 0 1 0 0 0 -25.400000000000087 0 1 I I -0.70710678118654879 0.70710678118654624 25.400000000000087 forward I I I I 
	plane 0 -2.1000651031575188 -2.3812499999999996 0 0 -1 0 25.399999999999999 0 forward_v I I I I 
	nullbs 
	nullbs 
	I I 
	0 
	0 
	0 
	} I I #
edge $688 -1 $-1 $649 1.5224272526266242e-033 $574 0.63750000000000018 $572 $689 forward @7 unknown #
point $-1 -1 $-1 -1.2699999999999954 3.1749999999999998 3.8881251733860477e-016 #
point $-1 -1 $-1 -1.2699999999999956 2.1000651031575188 -2.3812499999999996 #
coedge $-1 -1 $-1 $577 $577 $579 $651 reversed $647 $-1 #
loop $-1 -1 $-1 $-1 $646 $690 #
attrib_edge_convexity-kcp-attrib $-1 -1 $691 $-1 $578 1 #
vertex $-1 -1 $-1 $578 $692 #
ellipse-curve $-1 -1 $-1 -17.462499999999999 2.6437185773886536e-016 1.0574874309554614e-015 1 0 0 0 -2.1000651031575188 -2.381250000000001 1 I I #
edge $693 -1 $-1 $582 -1.7483827159451284e-017 $649 0.16535945694153692 $646 $694 forward @7 unknown #
loop $-1 -1 $-1 $-1 $695 $653 #
face $696 -1 $-1 $690 $580 $11 $-1 $697 forward single #
convexity-sys-attrib $-1 -1 $-1 $581 $488 #
point $-1 -1 $-1 -17.462499999999999 -2.1000651031575188 -2.3812499999999996 #
vertex $-1 -1 $-1 $637 $698 #
straight-curve $-1 -1 $-1 -1.2699999999999982 -3.1750000000000025 0 17.960512242138268 17.960512242138346 0 I I #
edge $-1 -1 $-1 $603 -30.956249999999997 $605 30.956249999999997 $594 $699 forward @7 unknown #
plane-surface $-1 -1 $-1 0 -3.1750000000000029 0 0 1 0 0 0 1 forward_v I I I I #
point $-1 -1 $-1 30.956249999999997 -3.1750000000000029 -3.1749999999999998 #
point $-1 -1 $-1 -30.956249999999997 -3.1750000000000029 -3.1749999999999998 #
straight-curve $-1 -1 $-1 0 3.1750000000000029 -3.1749999999999998 1 0 0 I I #
straight-curve $-1 -1 $-1 0 -3.1750000000000029 3.1749999999999998 1 0 0 I I #
point $-1 -1 $-1 30.956249999999997 -3.1750000000000029 3.1749999999999998 #
model_id-kcp-attrib $-1 -1 $-1 $-1 $622 1 1021480936 1021480936 1119485953 12 #
face $700 -1 $-1 $653 $701 $11 $-1 $702 reversed single #
loop $-1 -1 $-1 $-1 $703 $622 #
cone-surface $-1 -1 $-1 -2.3812499999999996 0 2.3812499999999996 0 0 -1 -1.1906249999999998 0 0 1 I I 0 1 1.1906249999999998 forward I I I I #
coedge $-1 -1 $-1 $704 $704 $626 $673 forward $623 $-1 #
coedge $-1 -1 $-1 $705 $705 $706 $707 forward $625 $-1 #
coedge $-1 -1 $-1 $631 $626 $633 $682 forward $560 $-1 #
coedge $-1 -1 $-1 $626 $631 $627 $675 reversed $560 $-1 #
edge $708 -1 $-1 $709 0 $710 0.16535945694153686 $669 $711 forward @7 unknown #
coedge $-1 -1 $-1 $627 $633 $704 $712 reversed $477 $-1 #
edge $713 -1 $-1 $710 0 $676 0.63750000000000018 $627 $714 forward @7 unknown #
vertex $-1 -1 $-1 $675 $715 #
ellipse-curve $-1 -1 $-1 -1.269999999999996 1.321859288694327e-014 1.5862311464331924e-015 1 6.6613381477509619e-016 -2.5122552418316403e-031 -2.1149748619109229e-015 3.1749999999999892 -1.197418629094587e-015 1 I I #
coedge $-1 -1 $-1 $636 $636 $630 $679 forward $684 $-1 #
edge $-1 -1 $-1 $638 -2.1737543974511353e-031 $656 3.1415926535897976 $678 $716 forward @7 unknown #
attrib_edge_convexity-kcp-attrib $-1 -1 $717 $-1 $632 1 #
intcurve-curve $-1 -1 $-1 forward { surfintcur full nurbs 3 open 10 
	0 3 0.11341996776814309 1 0.2252667622517685 1 0.33573493499021539 1 0.44531405708298555 1 
	0.55461299265366382 1 0.66416925882496325 1 0.77461872658133224 1 0.88651053444187045 1 0.99999999999999989 3 
	-1.2699999999999947 2.1000651031575175 2.3812499999999996 1 
	-1.1508312654396498 1.9211565235627481 2.3812499999999996 1 
	-0.94055228377398936 1.5758806480580818 2.3812499999999992 1.0000000000000002 
	-0.7025710057919714 1.0907299305166491 2.3812500000000001 0.99999999999999978 
	-0.54896692812178305 0.64083634871053974 2.3812499999999996 1.0000000000000002 
	-0.47328707314553964 0.21308361461008066 2.3812499999999996 1 
	-0.47302929677643663 -0.20989839470241256 2.3812499999999996 0.99999999999999989 
	-0.54795713433473103 -0.63664078509409028 2.3812499999999996 1.0000000000000002 
	-0.70028424091338326 -1.0853912342989216 2.3812499999999996 1 
	-0.93893092579817439 -1.573210463941213 2.3812499999999996 1 
	-1.1501524120069426 -1.9201324637201918 2.3812500000000005 0.99999999999999978 
	-1.2699999999999947 -2.1000651031575188 2.3812499999999996 1 
	0.025399999999999999 
	plane 0 -2.1000651031575188 2.3812499999999996 0 0 -1 0 25.399999999999999 0 forward_v I I I I 
	cone -23.495000000000005 0 0 1 0 0 0 -25.400000000000087 0 1 I I -0.70710678118654879 0.70710678118654624 25.400000000000087 forward I I I I 
	nullbs 
	nullbs 
	I I 
	0 
	0 
	0 
	} I I #
edge $718 -1 $-1 $709 0 $634 0.63750000000000018 $633 $719 forward @7 unknown #
point $-1 -1 $-1 -1.2699999999999947 -2.1000651031575188 2.3812499999999996 #
loop $-1 -1 $-1 $-1 $678 $720 #
ellipse-curve $-1 -1 $-1 0 0 -2.5555946248090319e-015 -1 -1.4802973661668741e-015 -2.1671259208947287e-030 -2.8199664825478975e-015 1.9050000000000016 2.7888821352121958e-015 1 I I #
point $-1 -1 $-1 -2.8199664825478975e-015 1.9050000000000016 2.3328751040316373e-016 #
convexity-sys-attrib $-1 -1 $-1 $641 $571 #
attrib_edge_convexity-kcp-attrib $-1 -1 $721 $-1 $643 1 #
straight-curve $-1 -1 $-1 -17.462499999999999 2.1000651031575179 -2.3812499999999996 25.399999999999999 1.1058692088423124e-015 0 I I #
face $722 -1 $-1 $720 $647 $11 $-1 $723 reversed single #
convexity-sys-attrib $-1 -1 $-1 $648 $578 #
point $-1 -1 $-1 -17.462499999999999 2.1000651031575188 -2.3812499999999996 #
attrib_edge_convexity-kcp-attrib $-1 -1 $724 $-1 $651 2 #
straight-curve $-1 -1 $-1 -17.462499999999999 -2.1000651031575184 -2.3812499999999996 0 25.399999999999999 0 I I #
coedge $-1 -1 $-1 $725 $725 $726 $727 reversed $652 $-1 #
model_id-kcp-attrib $-1 -1 $-1 $-1 $653 1 1021480936 1021480936 1119485953 14 #
plane-surface $-1 -1 $-1 0 -2.1000651031575188 -2.3812499999999996 0 0 -1 0 25.399999999999999 0 forward_v I I I I #
point $-1 -1 $-1 -2.8199664825478975e-015 -1.9050000000000016 -3.8505347998638085e-015 #
straight-curve $-1 -1 $-1 0 -3.1750000000000029 -3.1749999999999998 -1 0 0 I I #
model_id-kcp-attrib $-1 -1 $-1 $-1 $666 1 1021480936 1021480936 1119485953 13 #
loop $-1 -1 $-1 $-1 $728 $666 #
cone-surface $-1 -1 $-1 -2.3812499999999996 0 2.3812499999999996 0 0 -1 -1.1906249999999998 0 0 1 I I 0 1 1.1906249999999998 forward I I I I #
coedge $-1 -1 $-1 $726 $706 $729 $730 forward $667 $-1 #
coedge $-1 -1 $-1 $669 $669 $674 $712 forward $623 $-1 #
coedge $-1 -1 $-1 $670 $670 $731 $732 forward $625 $-1 #
coedge $-1 -1 $-1 $703 $733 $670 $707 reversed $667 $-1 #
edge $734 -1 $-1 $735 0 $736 3.1415926535897931 $670 $737 forward @7 unknown #
attrib_edge_convexity-kcp-attrib $-1 -1 $738 $-1 $673 2 #
vertex $-1 -1 $-1 $712 $739 #
vertex $-1 -1 $-1 $675 $740 #
straight-curve $-1 -1 $-1 -17.462499999999999 -2.1000651031575184 2.3812499999999996 0 25.399999999999999 0 I I #
edge $741 -1 $-1 $710 1.7621495089840674e-016 $709 1.4454684956268313 $674 $742 forward @7 unknown #
attrib_edge_convexity-kcp-attrib $-1 -1 $743 $-1 $675 1 #
straight-curve $-1 -1 $-1 -17.462499999999999 2.1000651031575179 2.3812499999999996 25.399999999999999 -1.1058692088423124e-015 0 I I #
point $-1 -1 $-1 -1.2699999999999947 2.1000651031575175 2.3812499999999996 #
ellipse-curve $-1 -1 $-1 0 1.7624790515924359e-016 2.7318425299682757e-015 1 1.4802973661668741e-015 -1.9415246271313673e-030 -2.8199664825478975e-015 1.9050000000000016 -2.4985550195651119e-015 1 I I #
convexity-sys-attrib $-1 -1 $-1 $680 $632 #
attrib_edge_convexity-kcp-attrib $-1 -1 $744 $-1 $682 1 #
straight-curve $-1 -1 $-1 -17.462499999999999 -2.1000651031575188 2.3812499999999996 25.399999999999999 0 0 I I #
face $745 -1 $-1 $-1 $684 $11 $-1 $746 forward single #
convexity-sys-attrib $-1 -1 $-1 $688 $643 #
model_id-kcp-attrib $-1 -1 $-1 $-1 $690 1 1021480936 1021480936 1119485953 15 #
plane-surface $-1 -1 $-1 -17.462499999999999 0 0 -1 0 0 0 25.399999999999999 0 forward_v I I I I #
convexity-sys-attrib $-1 -1 $-1 $693 $651 #
coedge $-1 -1 $-1 $695 $695 $747 $748 reversed $652 $-1 #
coedge $-1 -1 $-1 $733 $703 $695 $727 forward $667 $-1 #
edge $749 -1 $-1 $750 0 $751 3.1415926535897931 $695 $752 forward @7 unknown #
coedge $-1 -1 $-1 $747 $731 $733 $753 forward $701 $-1 #
coedge $-1 -1 $-1 $731 $747 $703 $730 reversed $701 $-1 #
edge $-1 -1 $-1 $735 0 $750 0.18749999999999997 $729 $754 forward @7 unknown #
coedge $-1 -1 $-1 $728 $729 $705 $732 reversed $701 $-1 #
edge $755 -1 $-1 $736 0 $735 3.1415926535897931 $705 $756 forward @7 unknown #
coedge $-1 -1 $-1 $706 $726 $728 $753 reversed $667 $-1 #
attrib_edge_convexity-kcp-attrib $-1 -1 $757 $-1 $707 1 #
vertex $-1 -1 $-1 $732 $758 #
vertex $-1 -1 $-1 $732 $759 #
ellipse-curve $-1 -1 $-1 -2.3812499999999996 0 2.3812499999999996 0 0 -1 1.1906249999999998 0 0 1 I I #
convexity-sys-attrib $-1 -1 $-1 $708 $673 #
point $-1 -1 $-1 -17.462499999999999 -2.1000651031575184 2.3812499999999996 #
point $-1 -1 $-1 -17.462499999999999 2.1000651031575179 2.3812499999999996 #
attrib_edge_convexity-kcp-attrib $-1 -1 $760 $-1 $712 1 #
ellipse-curve $-1 -1 $-1 -17.462499999999999 2.6437185773886536e-016 0 1 0 0 0 2.1000651031575184 2.3812499999999996 1 I I #
convexity-sys-attrib $-1 -1 $-1 $713 $675 #
convexity-sys-attrib $-1 -1 $-1 $718 $682 #
model_id-kcp-attrib $-1 -1 $-1 $-1 $720 1 1021480936 1021480936 1119485953 16 #
plane-surface $-1 -1 $-1 0 0 0 1 0 0 0 -25.399999999999999 0 forward_v I I I I #
coedge $-1 -1 $-1 $729 $728 $725 $748 forward $701 $-1 #
edge $761 -1 $-1 $751 0 $750 3.1415926535897931 $725 $762 forward @7 unknown #
attrib_edge_convexity-kcp-attrib $-1 -1 $763 $-1 $727 1 #
vertex $-1 -1 $-1 $748 $764 #
vertex $-1 -1 $-1 $748 $765 #
ellipse-curve $-1 -1 $-1 -2.3812499999999996 0 -2.3812499999999996 0 0 -1 1.1906249999999998 0 0 1 I I #
edge $-1 -1 $-1 $736 0 $751 0.18749999999999997 $728 $766 forward @7 unknown #
straight-curve $-1 -1 $-1 -1.1906249999999998 1.4580469400197678e-016 2.3812499999999996 0 0 -25.399999999999999 I I #
attrib_edge_convexity-kcp-attrib $-1 -1 $767 $-1 $732 1 #
ellipse-curve $-1 -1 $-1 -2.3812499999999996 0 2.3812499999999996 0 0 -1 -1.1906249999999998 0 0 1 I I #
convexity-sys-attrib $-1 -1 $-1 $734 $707 #
point $-1 -1 $-1 -1.1906249999999998 0 2.3812499999999996 #
point $-1 -1 $-1 -3.5718749999999999 0 2.3812499999999996 #
convexity-sys-attrib $-1 -1 $-1 $741 $712 #
attrib_edge_convexity-kcp-attrib $-1 -1 $768 $-1 $748 1 #
ellipse-curve $-1 -1 $-1 -2.3812499999999996 0 -2.3812499999999996 0 0 -1 -1.1906249999999998 0 0 1 I I #
convexity-sys-attrib $-1 -1 $-1 $749 $727 #
point $-1 -1 $-1 -1.1906249999999998 0 -2.3812499999999996 #
point $-1 -1 $-1 -3.5718749999999999 0 -2.3812499999999996 #
straight-curve $-1 -1 $-1 -3.5718749999999999 0 2.3812499999999996 0 0 -25.399999999999999 I I #
convexity-sys-attrib $-1 -1 $-1 $755 $732 #
convexity-sys-attrib $-1 -1 $-1 $761 $748 #
End-of-ACIS-data 