700 0 2 0           
24 FBMach with ACIS - 7.0.3 13 ACIS 7.0.3 NT 24 Wed May 15 12:36:03 2002 
1 9.9999999999999995e-007 1e-010 
body $2 -1 $-1 $3 $-1 $4 #
bdycol-kcp $-1 -1 1 2 $5 $6 #
model_id-kcp-attrib $-1 -1 $-1 $-1 $0 1 1021480563 1021480563 -988479487 1 #
lump $-1 -1 $-1 $-1 $7 $0 #
transform $-1 -1 1 0 0 0 1 0 0 0 1 0 0 0 1 rotate no_reflect no_shear #
body $8 -1 $-1 $9 $-1 $10 #
body $11 -1 $-1 $12 $-1 $13 #
shell $-1 -1 $-1 $-1 $-1 $14 $-1 $3 #
model_id-kcp-attrib $-1 -1 $-1 $-1 $5 1 1021480563 1021480563 -988479486 1 #
lump $-1 -1 $-1 $-1 $15 $5 #
transform $-1 -1 1 0 0 0 1 0 0 0 1 0 1.5543122344752192e-015 0 1 no_rotate no_reflect no_shear #
rgb_color-st-attrib $-1 -1 $16 $-1 $6 0.5 1 1 #
lump $-1 -1 $-1 $-1 $17 $6 #
transform $-1 -1 1 0 0 0 1 0 0 0 1 0 1.5543122344752192e-015 0 1 no_rotate no_reflect no_shear #
face $18 -1 $-1 $19 $20 $7 $-1 $21 reversed single #
shell $-1 -1 $-1 $-1 $-1 $22 $-1 $9 #
model_id-kcp-attrib $-1 -1 $-1 $11 $6 1 1021480563 1021480563 -981270525 1 #
shell $-1 -1 $-1 $-1 $-1 $23 $-1 $12 #
model_id-kcp-attrib $-1 -1 $-1 $-1 $14 1 1021480563 1021480563 -988479487 2 #
face $24 -1 $-1 $25 $26 $7 $-1 $27 forward single #
loop $-1 -1 $-1 $-1 $28 $14 #
plane-surface $-1 -1 $-1 0 0 -6.3499999999999996 0 0 1 -25.399999999999999 0 0 forward_v I I I I #
face $29 -1 $-1 $30 $31 $15 $-1 $32 forward single #
face $-1 -1 $-1 $33 $34 $17 $-1 $35 reversed single #
model_id-kcp-attrib $-1 -1 $-1 $-1 $19 1 1021480563 1021480563 -988479487 3 #
face $36 -1 $-1 $37 $38 $7 $-1 $39 forward single #
loop $-1 -1 $-1 $-1 $40 $19 #
cone-surface $-1 -1 $-1 0 0 18.113374999999998 0 0 -1 -25.399999999999977 0 0 1 I I -0.70710678118654724 0.70710678118654779 25.399999999999977 forward I I I I #
coedge $-1 -1 $-1 $41 $41 $42 $43 reversed $20 $-1 #
model_id-kcp-attrib $-1 -1 $-1 $-1 $22 1 1021480563 1021480563 -988479486 3 #
face $44 -1 $-1 $45 $46 $15 $-1 $47 reversed single #
loop $-1 -1 $-1 $-1 $48 $22 #
plane-surface $-1 -1 $-1 0 0 6.3500000000000023 0 0 1 1 0 0 forward_v I I I I #
face $-1 -1 $-1 $49 $50 $17 $-1 $35 reversed single #
loop $-1 -1 $-1 $-1 $51 $23 #
cone-surface $-1 -1 $-1 2.2550955676204755e-031 -2.3474278076918154e-015 -6.3499999999999996 0 0 -1 1.1906249999999998 1.1760545946923504e-015 0 1 I I 0 1 1.1906249999999998 forward I I I I #
model_id-kcp-attrib $-1 -1 $-1 $-1 $25 1 1021480563 1021480563 -988479487 4 #
face $52 -1 $-1 $53 $54 $7 $-1 $55 forward single #
loop $-1 -1 $-1 $-1 $56 $25 #
cone-surface $-1 -1 $-1 0 0 18.113374999999998 0 0 -1 -25.399999999999977 0 0 1 I I -0.70710678118654724 0.70710678118654779 25.399999999999977 forward I I I I #
coedge $-1 -1 $-1 $57 $42 $58 $59 forward $26 $-1 #
coedge $-1 -1 $-1 $28 $28 $60 $61 reversed $20 $-1 #
coedge $-1 -1 $-1 $40 $62 $28 $43 forward $26 $-1 #
edge $63 -1 $-1 $64 0 $65 3.1415926535897931 $28 $66 forward @7 unknown #
model_id-kcp-attrib $-1 -1 $-1 $-1 $30 1 1021480563 1021480563 -988479486 2 #
face $-1 -1 $-1 $67 $68 $15 $-1 $69 reversed single #
loop $-1 -1 $-1 $-1 $70 $30 #
plane-surface $-1 -1 $-1 0 0 -6.3500000000000023 0 0 1 1 0 0 forward_v I I I I #
coedge $-1 -1 $-1 $71 $72 $73 $74 forward $31 $-1 #
face $-1 -1 $-1 $75 $76 $17 $-1 $35 reversed single #
loop $-1 -1 $-1 $-1 $77 $33 #
coedge $-1 -1 $-1 $78 $79 $80 $81 forward $34 $-1 #
model_id-kcp-attrib $-1 -1 $-1 $-1 $37 1 1021480563 1021480563 -988479487 5 #
face $82 -1 $-1 $83 $84 $7 $-1 $85 forward single #
loop $-1 -1 $-1 $-1 $86 $37 #
cone-surface $-1 -1 $-1 0 0 -6.3499999999999996 0 0 1 -1.1906249999999998 0 0 1 I I 0 1 1.1906249999999998 forward I I I I #
coedge $-1 -1 $-1 $87 $60 $62 $88 forward $38 $-1 #
coedge $-1 -1 $-1 $62 $40 $89 $90 reversed $26 $-1 #
coedge $-1 -1 $-1 $60 $87 $40 $59 reversed $38 $-1 #
edge $-1 -1 $-1 $65 0 $91 0.014142135623731048 $40 $92 forward @7 unknown #
coedge $-1 -1 $-1 $56 $58 $41 $61 forward $38 $-1 #
edge $93 -1 $-1 $65 0 $64 3.1415926535897931 $41 $94 forward @7 unknown #
coedge $-1 -1 $-1 $42 $57 $56 $88 reversed $26 $-1 #
attrib_edge_convexity-kcp-attrib $-1 -1 $95 $-1 $43 1 #
vertex $-1 -1 $-1 $61 $96 #
vertex $-1 -1 $-1 $61 $97 #
ellipse-curve $-1 -1 $-1 -4.4061976289810898e-017 8.8123952579621795e-017 -6.3499999999999996 -3.0107743040682218e-015 6.519751439573799e-031 1 0.93662499999999971 -2.0282364519451e-016 2.8199664825478975e-015 1 I I #
face $-1 -1 $-1 $98 $99 $15 $-1 $100 reversed single #
loop $-1 -1 $-1 $-1 $101 $45 #
plane-surface $-1 -1 $-1 0 -1.1906250000000005 0 0 1 0 0 0 1 forward_v I I I I #
coedge $-1 -1 $-1 $102 $103 $104 $105 forward $46 $-1 #
coedge $-1 -1 $-1 $106 $48 $107 $108 forward $31 $-1 #
coedge $-1 -1 $-1 $48 $106 $109 $110 forward $31 $-1 #
coedge $-1 -1 $-1 $111 $112 $48 $74 reversed $113 $-1 #
edge $-1 -1 $-1 $114 -1.1906250000000005 $115 1.1906250000000005 $73 $116 forward @7 unknown #
face $-1 -1 $-1 $117 $118 $17 $-1 $35 reversed single #
loop $-1 -1 $-1 $-1 $119 $49 #
coedge $-1 -1 $-1 $120 $80 $121 $122 reversed $50 $-1 #
coedge $-1 -1 $-1 $123 $51 $124 $125 reversed $34 $-1 #
coedge $-1 -1 $-1 $51 $123 $126 $127 reversed $34 $-1 #
coedge $-1 -1 $-1 $77 $128 $129 $81 reversed $50 $-1 #
edge $-1 -1 $-1 $130 -12.700000000000005 $131 2.6645352591003757e-015 $129 $132 forward @7 unknown #
model_id-kcp-attrib $-1 -1 $-1 $-1 $53 1 1021480563 1021480563 -988479487 6 #
face $133 -1 $-1 $134 $135 $7 $-1 $136 forward single #
loop $-1 -1 $-1 $-1 $137 $53 #
cone-surface $-1 -1 $-1 0 0 -6.3499999999999996 0 0 1 -1.1906249999999998 0 0 1 I I 0 1 1.1906249999999998 forward I I I I #
coedge $-1 -1 $-1 $138 $139 $140 $141 forward $54 $-1 #
coedge $-1 -1 $-1 $58 $56 $139 $142 reversed $38 $-1 #
edge $-1 -1 $-1 $64 0 $143 0.014142135623731048 $62 $144 forward @7 unknown #
coedge $-1 -1 $-1 $137 $140 $57 $90 forward $84 $-1 #
edge $-1 -1 $-1 $143 -4.440892098500637e-016 $91 3.1415926535897922 $89 $145 forward @7 unknown #
vertex $-1 -1 $-1 $142 $146 #
straight-curve $-1 -1 $-1 -0.93662499999999971 0 -6.349999999999997 -17.960512242138403 0 17.960512242138204 I I #
attrib_edge_convexity-kcp-attrib $-1 -1 $147 $-1 $61 1 #
ellipse-curve $-1 -1 $-1 -4.4061976289810898e-017 0 -6.3499999999999996 3.0107743040682218e-015 0 1 -0.93662499999999971 0 2.8199664825478975e-015 1 I I #
convexity-sys-attrib $-1 -1 $-1 $63 $43 #
point $-1 -1 $-1 0.93662499999999971 -1.146996926148882e-016 -6.349999999999997 #
point $-1 -1 $-1 -0.93662499999999971 0 -6.349999999999997 #
face $-1 -1 $-1 $148 $149 $15 $-1 $150 reversed single #
loop $-1 -1 $-1 $-1 $151 $67 #
plane-surface $-1 -1 $-1 -1.1906250000000029 0 0 1 0 0 0 0 -1 forward_v I I I I #
coedge $-1 -1 $-1 $152 $109 $153 $154 forward $68 $-1 #
coedge $-1 -1 $-1 $155 $70 $152 $156 forward $46 $-1 #
coedge $-1 -1 $-1 $70 $155 $157 $158 forward $46 $-1 #
coedge $-1 -1 $-1 $112 $111 $70 $105 reversed $113 $-1 #
edge $-1 -1 $-1 $159 -1.1906250000000005 $160 1.1906250000000005 $104 $161 forward @7 unknown #
coedge $-1 -1 $-1 $72 $71 $162 $163 forward $31 $-1 #
coedge $-1 -1 $-1 $164 $165 $71 $108 reversed $149 $-1 #
edge $-1 -1 $-1 $115 -1.1906250000000029 $166 1.1906250000000029 $107 $167 forward @7 unknown #
coedge $-1 -1 $-1 $101 $168 $72 $110 reversed $68 $-1 #
edge $-1 -1 $-1 $169 -1.1906250000000029 $114 1.1906250000000029 $109 $170 forward @7 unknown #
coedge $-1 -1 $-1 $104 $73 $168 $171 forward $113 $-1 #
coedge $-1 -1 $-1 $73 $104 $164 $172 reversed $113 $-1 #
loop $-1 -1 $-1 $-1 $111 $148 #
vertex $-1 -1 $-1 $74 $173 #
vertex $-1 -1 $-1 $74 $174 #
straight-curve $-1 -1 $-1 1.1906250000000029 0 6.3500000000000023 0 1 0 I I #
face $-1 -1 $-1 $175 $176 $17 $-1 $177 reversed single #
loop $-1 -1 $-1 $-1 $178 $75 #
coedge $-1 -1 $-1 $179 $180 $181 $182 reversed $76 $-1 #
coedge $-1 -1 $-1 $128 $77 $183 $184 forward $50 $-1 #
coedge $-1 -1 $-1 $185 $186 $77 $122 forward $187 $-1 #
edge $-1 -1 $-1 $188 -3.1415926535897922 $130 -1.5707963267948957 $121 $189 forward @7 unknown #
coedge $-1 -1 $-1 $79 $78 $190 $191 reversed $34 $-1 #
coedge $-1 -1 $-1 $192 $193 $78 $125 forward $194 $-1 #
edge $-1 -1 $-1 $195 -9.8776238924291921e-016 $131 1.5707963267948957 $124 $196 forward @7 unknown #
coedge $-1 -1 $-1 $197 $198 $79 $127 forward $199 $-1 #
edge $-1 -1 $-1 $130 -1.5707963267948957 $200 9.8776238924291921e-016 $126 $189 forward @7 unknown #
coedge $-1 -1 $-1 $80 $120 $201 $202 reversed $50 $-1 #
coedge $-1 -1 $-1 $203 $204 $205 $81 forward $206 $-1 #
vertex $-1 -1 $-1 $207 $208 #
vertex $-1 -1 $-1 $209 $210 #
straight-curve $-1 -1 $-1 2.2550955676204755e-031 1.1906250000000005 -6.3499999999999996 0 0 -1 I I #
model_id-kcp-attrib $-1 -1 $-1 $-1 $83 1 1021480563 1021480563 -988479487 7 #
face $211 -1 $-1 $212 $213 $7 $-1 $214 forward single #
loop $-1 -1 $-1 $-1 $215 $83 #
cone-surface $-1 -1 $-1 0 0 -18.113374999999998 0 0 1 -25.399999999999977 0 0 1 I I -0.70710678118654724 0.70710678118654791 25.399999999999977 forward I I I I #
coedge $-1 -1 $-1 $216 $89 $217 $218 forward $84 $-1 #
coedge $-1 -1 $-1 $217 $86 $219 $220 reversed $54 $-1 #
coedge $-1 -1 $-1 $86 $217 $87 $142 forward $54 $-1 #
coedge $-1 -1 $-1 $89 $216 $86 $141 reversed $84 $-1 #
edge $-1 -1 $-1 $143 1.3987061727561027e-016 $221 0.48000000000000004 $86 $222 forward @7 unknown #
edge $-1 -1 $-1 $91 -1.3937811995909406e-060 $143 3.1415926535897816 $139 $223 forward @7 unknown #
vertex $-1 -1 $-1 $142 $224 #
straight-curve $-1 -1 $-1 0.93662499999999971 -1.146996926148882e-016 -6.349999999999997 17.960512242138403 -3.9587282413370039e-014 17.960512242138204 I I #
ellipse-curve $-1 -1 $-1 -4.4061976289810898e-017 -7.4905359692678522e-016 -6.0959999999999965 0 0 1 1.1906250000000027 6.0324890292480849e-016 0 1 I I #
point $-1 -1 $-1 -1.1906250000000027 0 -6.0959999999999965 #
convexity-sys-attrib $-1 -1 $-1 $93 $61 #
face $-1 -1 $-1 $-1 $113 $15 $-1 $225 reversed single #
loop $-1 -1 $-1 $-1 $164 $98 #
plane-surface $-1 -1 $-1 0 1.1906250000000005 0 0 -1 0 0 0 -1 forward_v I I I I #
coedge $-1 -1 $-1 $226 $162 $165 $227 forward $99 $-1 #
coedge $-1 -1 $-1 $168 $101 $102 $156 reversed $68 $-1 #
coedge $-1 -1 $-1 $162 $226 $101 $154 reversed $99 $-1 #
edge $-1 -1 $-1 $169 -6.3500000000000023 $228 6.3500000000000023 $153 $229 forward @7 unknown #
coedge $-1 -1 $-1 $103 $102 $226 $230 forward $46 $-1 #
edge $-1 -1 $-1 $160 -1.1906250000000029 $228 1.1906250000000029 $152 $231 forward @7 unknown #
coedge $-1 -1 $-1 $165 $164 $103 $158 reversed $149 $-1 #
edge $-1 -1 $-1 $232 -1.1906250000000029 $159 1.1906250000000029 $157 $233 forward @7 unknown #
vertex $-1 -1 $-1 $105 $234 #
vertex $-1 -1 $-1 $171 $235 #
straight-curve $-1 -1 $-1 1.1906250000000029 0 -6.3500000000000023 0 -1 0 I I #
coedge $-1 -1 $-1 $151 $153 $106 $163 reversed $99 $-1 #
edge $-1 -1 $-1 $166 -1.1906250000000005 $169 1.1906250000000005 $162 $236 forward @7 unknown #
coedge $-1 -1 $-1 $157 $107 $112 $172 forward $149 $-1 #
coedge $-1 -1 $-1 $107 $157 $151 $227 reversed $149 $-1 #
vertex $-1 -1 $-1 $108 $237 #
straight-curve $-1 -1 $-1 0 1.1906250000000005 6.3500000000000023 -1 0 0 I I #
coedge $-1 -1 $-1 $109 $152 $111 $171 reversed $68 $-1 #
vertex $-1 -1 $-1 $163 $238 #
straight-curve $-1 -1 $-1 0 -1.1906250000000005 6.3500000000000023 1 0 0 I I #
edge $-1 -1 $-1 $114 -6.3500000000000023 $160 6.3500000000000023 $111 $239 forward @7 unknown #
edge $-1 -1 $-1 $115 -6.3500000000000023 $159 6.3500000000000023 $112 $240 forward @7 unknown #
point $-1 -1 $-1 1.1906250000000029 -1.1906250000000005 6.3500000000000023 #
point $-1 -1 $-1 1.1906250000000029 1.1906250000000005 6.3500000000000023 #
face $-1 -1 $-1 $241 $206 $17 $-1 $242 reversed single #
loop $-1 -1 $-1 $-1 $190 $117 #
plane-surface $-1 -1 $-1 1.1906250000000029 0 0 -1 0 0 0 0 1 forward_v I I I I #
coedge $-1 -1 $-1 $183 $243 $244 $245 reversed $118 $-1 #
coedge $-1 -1 $-1 $246 $119 $247 $248 reversed $76 $-1 #
coedge $-1 -1 $-1 $119 $246 $123 $191 forward $76 $-1 #
coedge $-1 -1 $-1 $249 $250 $119 $182 forward $251 $-1 #
edge $-1 -1 $-1 $252 -1.5707963267948977 $195 -9.8776238924291921e-016 $181 $196 forward @7 unknown #
coedge $-1 -1 $-1 $253 $178 $254 $184 reversed $118 $-1 #
edge $-1 -1 $-1 $188 -12.700000000000005 $255 2.6645352591003757e-015 $254 $256 forward @7 unknown #
coedge $-1 -1 $-1 $186 $121 $204 $207 forward $187 $-1 #
coedge $-1 -1 $-1 $121 $185 $257 $258 forward $187 $-1 #
loop $-1 -1 $-1 $-1 $121 $259 #
vertex $-1 -1 $-1 $260 $261 #
ellipse-curve $-1 -1 $-1 2.2550955676204755e-031 -2.3474278076918154e-015 6.3500000000000032 0 0 -1 1.1906249999999998 1.1760545946923504e-015 0 1 I I #
coedge $-1 -1 $-1 $262 $263 $264 $191 forward $176 $-1 #
edge $-1 -1 $-1 $200 -12.700000000000005 $195 2.6645352591003757e-015 $190 $265 forward @7 unknown #
coedge $-1 -1 $-1 $193 $124 $266 $209 forward $194 $-1 #
coedge $-1 -1 $-1 $124 $192 $262 $267 forward $194 $-1 #
loop $-1 -1 $-1 $-1 $124 $268 #
vertex $-1 -1 $-1 $269 $270 #
ellipse-curve $-1 -1 $-1 2.2550955676204755e-031 -2.3474278076918154e-015 -6.3500000000000023 0 0 1 1.1906249999999998 1.1760545946923504e-015 0 1 I I #
coedge $-1 -1 $-1 $198 $126 $263 $271 forward $199 $-1 #
coedge $-1 -1 $-1 $126 $197 $272 $273 forward $199 $-1 #
loop $-1 -1 $-1 $-1 $126 $274 #
vertex $-1 -1 $-1 $271 $275 #
coedge $-1 -1 $-1 $276 $277 $128 $202 forward $278 $-1 #
edge $-1 -1 $-1 $131 1.5707963267948957 $255 3.1415926535897922 $201 $196 forward @7 unknown #
coedge $-1 -1 $-1 $279 $129 $277 $280 reversed $206 $-1 #
coedge $-1 -1 $-1 $129 $279 $185 $207 reversed $206 $-1 #
coedge $-1 -1 $-1 $272 $266 $51 $81 reversed $281 $-1 #
loop $-1 -1 $-1 $-1 $129 $175 #
edge $-1 -1 $-1 $130 -2.2550955676204755e-031 $282 1.1906250000000029 $204 $283 forward @7 unknown #
point $-1 -1 $-1 2.2550955676204755e-031 1.1906250000000005 6.350000000000005 #
edge $-1 -1 $-1 $131 2.2550955676204755e-031 $284 1.1906250000000029 $266 $285 forward @7 unknown #
point $-1 -1 $-1 2.2550955676204755e-031 1.1906250000000005 -6.3500000000000023 #
model_id-kcp-attrib $-1 -1 $-1 $-1 $134 1 1021480563 1021480563 -988479487 8 #
face $286 -1 $-1 $-1 $287 $7 $-1 $288 forward single #
loop $-1 -1 $-1 $-1 $289 $134 #
cone-surface $-1 -1 $-1 0 0 -18.113374999999998 0 0 1 -25.399999999999977 0 0 1 I I -0.70710678118654724 0.70710678118654791 25.399999999999977 forward I I I I #
coedge $-1 -1 $-1 $290 $291 $292 $293 forward $135 $-1 #
coedge $-1 -1 $-1 $140 $137 $290 $294 reversed $84 $-1 #
coedge $-1 -1 $-1 $139 $138 $137 $218 reversed $54 $-1 #
edge $-1 -1 $-1 $91 1.3987061727561027e-016 $295 0.48000000000000004 $217 $296 forward @7 unknown #
coedge $-1 -1 $-1 $292 $289 $138 $220 forward $213 $-1 #
edge $-1 -1 $-1 $295 0 $221 3.1415926535897922 $138 $297 forward @7 unknown #
vertex $-1 -1 $-1 $220 $298 #
straight-curve $-1 -1 $-1 1.1906249999999998 -1.4580469400197678e-016 -6.0960000000000001 0 1.1015494072452725e-015 25.399999999999999 I I #
ellipse-curve $-1 -1 $-1 4.4061976289810898e-017 6.565234467181824e-015 -6.0959999999999983 1.1842378929334975e-015 6.5300152709961217e-030 1 -1.1906250000000027 -6.565234467181824e-015 1.4099832412739487e-015 1 I I #
point $-1 -1 $-1 1.1906250000000027 -6.7454840947971002e-016 -6.0959999999999965 #
plane-surface $-1 -1 $-1 1.1906250000000029 0 0 -1 0 0 0 0 1 forward_v I I I I #
coedge $-1 -1 $-1 $153 $151 $155 $230 reversed $99 $-1 #
edge $-1 -1 $-1 $166 -6.3500000000000023 $232 6.3500000000000023 $165 $299 forward @7 unknown #
vertex $-1 -1 $-1 $230 $300 #
straight-curve $-1 -1 $-1 -1.1906250000000029 -1.1906250000000005 0 0 0 -1 I I #
edge $-1 -1 $-1 $228 -1.1906250000000005 $232 1.1906250000000005 $226 $301 forward @7 unknown #
straight-curve $-1 -1 $-1 0 -1.1906250000000005 -6.3500000000000023 -1 0 0 I I #
vertex $-1 -1 $-1 $158 $302 #
straight-curve $-1 -1 $-1 0 1.1906250000000005 -6.3500000000000023 1 0 0 I I #
point $-1 -1 $-1 1.1906250000000029 1.1906250000000005 -6.3500000000000023 #
point $-1 -1 $-1 1.1906250000000029 -1.1906250000000005 -6.3500000000000023 #
straight-curve $-1 -1 $-1 -1.1906250000000029 0 6.3500000000000023 0 -1 0 I I #
point $-1 -1 $-1 -1.1906250000000029 1.1906250000000005 6.3500000000000023 #
point $-1 -1 $-1 -1.1906250000000029 -1.1906250000000005 6.3500000000000023 #
straight-curve $-1 -1 $-1 1.1906250000000029 -1.1906250000000005 0 0 0 -1 I I #
straight-curve $-1 -1 $-1 1.1906250000000029 1.1906250000000005 0 0 0 -1 I I #
face $-1 -1 $-1 $303 $304 $17 $-1 $305 reversed single #
plane-surface $-1 -1 $-1 0 1.1906250000000005 0 0 -1 0 0 0 -1 forward_v I I I I #
coedge $-1 -1 $-1 $178 $253 $179 $248 forward $118 $-1 #
coedge $-1 -1 $-1 $306 $307 $178 $245 forward $308 $-1 #
edge $-1 -1 $-1 $255 -3.141592653589794 $252 -1.5707963267948977 $244 $196 forward @7 unknown #
coedge $-1 -1 $-1 $180 $179 $309 $310 reversed $76 $-1 #
coedge $-1 -1 $-1 $311 $312 $313 $248 forward $314 $-1 #
edge $-1 -1 $-1 $315 -12.700000000000005 $252 2.6645352591003757e-015 $247 $316 forward @7 unknown #
coedge $-1 -1 $-1 $250 $181 $317 $269 forward $251 $-1 #
coedge $-1 -1 $-1 $181 $249 $311 $318 forward $251 $-1 #
loop $-1 -1 $-1 $-1 $181 $319 #
vertex $-1 -1 $-1 $320 $321 #
coedge $-1 -1 $-1 $243 $183 $322 $323 reversed $118 $-1 #
coedge $-1 -1 $-1 $324 $325 $326 $184 forward $304 $-1 #
vertex $-1 -1 $-1 $327 $328 #
straight-curve $-1 -1 $-1 -1.1906250000000029 -2.3474278076918154e-015 -6.3499999999999996 0 0 -1 I I #
coedge $-1 -1 $-1 $329 $326 $186 $258 reversed $330 $-1 #
edge $-1 -1 $-1 $282 -1.1906250000000005 $188 2.3474278076918154e-015 $257 $331 forward @7 unknown #
face $-1 -1 $-1 $274 $187 $17 $-1 $332 forward single #
edge $-1 -1 $-1 $188 2.3474278076918154e-015 $333 1.1906250000000005 $325 $331 forward @7 unknown #
point $-1 -1 $-1 -1.1906250000000029 -2.3474278076918154e-015 6.350000000000005 #
coedge $-1 -1 $-1 $334 $190 $193 $267 reversed $176 $-1 #
coedge $-1 -1 $-1 $190 $334 $197 $271 reversed $176 $-1 #
coedge $-1 -1 $-1 $335 $317 $180 $191 reversed $336 $-1 #
straight-curve $-1 -1 $-1 1.1906250000000029 -2.3474278076918154e-015 -6.3499999999999996 0 0 -1 I I #
coedge $-1 -1 $-1 $205 $337 $192 $209 reversed $281 $-1 #
edge $-1 -1 $-1 $284 -1.1906250000000005 $195 2.3474278076918154e-015 $262 $338 forward @7 unknown #
face $-1 -1 $-1 $339 $194 $17 $-1 $340 reversed single #
edge $-1 -1 $-1 $195 2.3474278076918154e-015 $341 1.1906250000000005 $317 $338 forward @7 unknown #
point $-1 -1 $-1 1.1906250000000029 -2.3474278076918154e-015 -6.3500000000000023 #
edge $-1 -1 $-1 $200 -2.3474278076918154e-015 $342 1.1906250000000005 $263 $343 forward @7 unknown #
coedge $-1 -1 $-1 $337 $205 $198 $273 reversed $281 $-1 #
edge $-1 -1 $-1 $342 -1.1906250000000029 $130 -2.2550955676204755e-031 $272 $283 forward @7 unknown #
face $-1 -1 $-1 $344 $199 $17 $-1 $332 forward single #
point $-1 -1 $-1 1.1906250000000029 -2.3474278076918154e-015 6.350000000000005 #
coedge $-1 -1 $-1 $277 $201 $345 $327 forward $278 $-1 #
coedge $-1 -1 $-1 $201 $276 $203 $280 forward $278 $-1 #
loop $-1 -1 $-1 $-1 $201 $339 #
coedge $-1 -1 $-1 $204 $203 $329 $346 reversed $206 $-1 #
edge $-1 -1 $-1 $347 -1.1906250000000029 $131 2.2550955676204755e-031 $203 $285 forward @7 unknown #
loop $-1 -1 $-1 $-1 $205 $348 #
vertex $-1 -1 $-1 $207 $349 #
straight-curve $-1 -1 $-1 0 1.1906250000000005 6.3500000000000023 -1 0 0 I I #
vertex $-1 -1 $-1 $267 $350 #
straight-curve $-1 -1 $-1 0 1.1906250000000005 -6.3500000000000023 1 0 0 I I #
model_id-kcp-attrib $-1 -1 $-1 $-1 $212 1 1021480563 1021480563 -988479487 9 #
loop $-1 -1 $-1 $-1 $351 $212 #
plane-surface $-1 -1 $-1 0 0 6.3499999999999996 0 0 1 -25.399999999999999 0 0 forward_v I I I I #
coedge $-1 -1 $-1 $219 $352 $353 $354 forward $213 $-1 #
coedge $-1 -1 $-1 $353 $215 $216 $294 forward $135 $-1 #
coedge $-1 -1 $-1 $215 $353 $351 $355 reversed $135 $-1 #
coedge $-1 -1 $-1 $352 $219 $215 $293 reversed $213 $-1 #
edge $-1 -1 $-1 $356 0 $221 0.014142135623730815 $215 $357 forward @7 unknown #
edge $-1 -1 $-1 $221 0 $295 3.1415926535897918 $216 $358 forward @7 unknown #
vertex $-1 -1 $-1 $218 $359 #
straight-curve $-1 -1 $-1 -1.1906249999999998 0 -6.0960000000000001 0 0 25.399999999999999 I I #
ellipse-curve $-1 -1 $-1 4.4061976289810898e-017 8.81239525796218e-016 6.0959999999999992 0 0 1 -1.1906249999999998 -8.81239525796218e-016 0 1 I I #
point $-1 -1 $-1 1.1906249999999998 3.8293902147575399e-016 6.0959999999999992 #
straight-curve $-1 -1 $-1 -1.1906250000000029 1.1906250000000005 0 0 0 -1 I I #
point $-1 -1 $-1 -1.1906250000000029 -1.1906250000000005 -6.3500000000000023 #
straight-curve $-1 -1 $-1 -1.1906250000000029 0 -6.3500000000000023 0 1 0 I I #
point $-1 -1 $-1 -1.1906250000000029 1.1906250000000005 -6.3500000000000023 #
face $-1 -1 $-1 $259 $360 $17 $-1 $332 forward single #
loop $-1 -1 $-1 $-1 $254 $241 #
plane-surface $-1 -1 $-1 -1.1906250000000029 0 0 1 0 0 0 0 -1 forward_v I I I I #
coedge $-1 -1 $-1 $307 $244 $361 $320 forward $308 $-1 #
coedge $-1 -1 $-1 $244 $306 $324 $362 forward $308 $-1 #
loop $-1 -1 $-1 $-1 $244 $363 #
coedge $-1 -1 $-1 $364 $365 $246 $310 forward $366 $-1 #
edge $-1 -1 $-1 $200 9.8776238924291921e-016 $315 1.5707963267948977 $309 $189 forward @7 unknown #
coedge $-1 -1 $-1 $367 $247 $250 $318 reversed $314 $-1 #
coedge $-1 -1 $-1 $247 $367 $364 $368 reversed $314 $-1 #
coedge $-1 -1 $-1 $369 $361 $243 $248 reversed $370 $-1 #
loop $-1 -1 $-1 $-1 $247 $371 #
vertex $-1 -1 $-1 $368 $372 #
straight-curve $-1 -1 $-1 2.2550955676204755e-031 -1.1906250000000005 -6.3499999999999996 0 0 -1 I I #
coedge $-1 -1 $-1 $264 $373 $249 $269 reversed $336 $-1 #
edge $-1 -1 $-1 $341 -1.1906250000000029 $252 -2.2550955676204755e-031 $311 $374 forward @7 unknown #
face $-1 -1 $-1 $268 $251 $17 $-1 $340 reversed single #
edge $-1 -1 $-1 $252 -2.2550955676204755e-031 $375 1.1906250000000029 $361 $374 forward @7 unknown #
point $-1 -1 $-1 2.2550955676204755e-031 -1.1906250000000005 -6.3500000000000023 #
coedge $-1 -1 $-1 $376 $377 $253 $323 forward $360 $-1 #
edge $-1 -1 $-1 $315 1.5707963267948977 $188 3.141592653589794 $322 $189 forward @7 unknown #
coedge $-1 -1 $-1 $378 $254 $307 $362 reversed $304 $-1 #
coedge $-1 -1 $-1 $254 $378 $376 $260 reversed $304 $-1 #
coedge $-1 -1 $-1 $257 $345 $120 $184 reversed $330 $-1 #
edge $-1 -1 $-1 $255 -2.3474278076918154e-015 $347 1.1906250000000005 $345 $379 forward @7 unknown #
point $-1 -1 $-1 -1.1906250000000029 -2.3474278076918154e-015 -6.3500000000000023 #
coedge $-1 -1 $-1 $345 $257 $279 $346 forward $330 $-1 #
loop $-1 -1 $-1 $-1 $326 $380 #
straight-curve $-1 -1 $-1 -1.1906250000000029 0 6.3500000000000023 0 -1 0 I I #
plane-surface $-1 -1 $-1 0 0 6.3500000000000023 0 0 1 1 0 0 forward_v I I I I #
vertex $-1 -1 $-1 $260 $381 #
coedge $-1 -1 $-1 $263 $262 $337 $382 reversed $176 $-1 #
coedge $-1 -1 $-1 $373 $264 $365 $383 reversed $336 $-1 #
loop $-1 -1 $-1 $-1 $264 $384 #
coedge $-1 -1 $-1 $266 $272 $334 $382 forward $281 $-1 #
straight-curve $-1 -1 $-1 1.1906250000000029 0 -6.3500000000000023 0 -1 0 I I #
face $-1 -1 $-1 $385 $278 $17 $-1 $340 reversed single #
plane-surface $-1 -1 $-1 0 0 -6.3500000000000023 0 0 1 1 0 0 forward_v I I I I #
vertex $-1 -1 $-1 $386 $387 #
vertex $-1 -1 $-1 $271 $388 #
straight-curve $-1 -1 $-1 1.1906250000000029 0 6.3500000000000023 0 1 0 I I #
face $-1 -1 $-1 $371 $366 $17 $-1 $332 forward single #
coedge $-1 -1 $-1 $326 $329 $276 $327 reversed $330 $-1 #
edge $-1 -1 $-1 $282 -6.3500000000000023 $347 6.3500000000000023 $279 $389 forward @7 unknown #
vertex $-1 -1 $-1 $280 $390 #
face $-1 -1 $-1 $384 $281 $17 $-1 $242 reversed single #
point $-1 -1 $-1 -1.1906250000000029 1.1906250000000005 6.3500000000000023 #
point $-1 -1 $-1 1.1906250000000029 1.1906250000000005 -6.3500000000000023 #
coedge $-1 -1 $-1 $391 $391 $291 $355 forward $287 $-1 #
coedge $-1 -1 $-1 $289 $292 $391 $392 reversed $213 $-1 #
coedge $-1 -1 $-1 $291 $290 $289 $354 reversed $135 $-1 #
edge $-1 -1 $-1 $393 0 $295 0.014142135623730815 $353 $394 forward @7 unknown #
edge $-1 -1 $-1 $356 5.6305797527284061e-061 $393 3.1415926535897927 $351 $395 forward @7 unknown #
vertex $-1 -1 $-1 $392 $396 #
straight-curve $-1 -1 $-1 0.93662500000000259 3.012453635609278e-016 6.349999999999997 17.960512242138304 -6.899903939566471e-014 -17.960512242138304 I I #
ellipse-curve $-1 -1 $-1 -4.4061976289810898e-017 -7.9311557321659618e-016 6.0959999999999992 0 0 1 1.1906249999999998 1.1760545946923502e-015 0 1 I I #
point $-1 -1 $-1 -1.1906249999999998 0 6.0959999999999992 #
loop $-1 -1 $-1 $-1 $322 $303 #
coedge $-1 -1 $-1 $313 $397 $306 $320 reversed $370 $-1 #
edge $-1 -1 $-1 $375 -1.1906250000000005 $255 -2.3474278076918154e-015 $324 $379 forward @7 unknown #
face $-1 -1 $-1 $319 $308 $17 $-1 $340 reversed single #
coedge $-1 -1 $-1 $365 $309 $312 $368 forward $366 $-1 #
coedge $-1 -1 $-1 $309 $364 $335 $383 forward $366 $-1 #
loop $-1 -1 $-1 $-1 $309 $344 #
coedge $-1 -1 $-1 $312 $311 $373 $386 reversed $314 $-1 #
edge $-1 -1 $-1 $315 2.2550955676204755e-031 $398 1.1906250000000029 $312 $399 forward @7 unknown #
coedge $-1 -1 $-1 $397 $313 $377 $400 reversed $370 $-1 #
loop $-1 -1 $-1 $-1 $313 $385 #
face $-1 -1 $-1 $363 $314 $17 $-1 $401 reversed single #
point $-1 -1 $-1 2.2550955676204755e-031 -1.1906250000000005 6.350000000000005 #
coedge $-1 -1 $-1 $317 $335 $367 $386 forward $336 $-1 #
straight-curve $-1 -1 $-1 0 -1.1906250000000005 -6.3500000000000023 -1 0 0 I I #
vertex $-1 -1 $-1 $362 $402 #
coedge $-1 -1 $-1 $377 $322 $325 $260 forward $360 $-1 #
coedge $-1 -1 $-1 $322 $376 $369 $400 forward $360 $-1 #
coedge $-1 -1 $-1 $325 $324 $397 $403 reversed $304 $-1 #
straight-curve $-1 -1 $-1 -1.1906250000000029 0 -6.3500000000000023 0 1 0 I I #
face $-1 -1 $-1 $348 $330 $17 $-1 $305 reversed single #
point $-1 -1 $-1 -1.1906250000000029 -1.1906250000000005 6.3500000000000023 #
edge $-1 -1 $-1 $342 -6.3500000000000023 $284 6.3500000000000023 $334 $404 forward @7 unknown #
edge $-1 -1 $-1 $398 -1.1906250000000005 $200 -2.3474278076918154e-015 $335 $343 forward @7 unknown #
face $-1 -1 $-1 $-1 $336 $17 $-1 $177 reversed single #
face $-1 -1 $-1 $380 $370 $17 $-1 $401 reversed single #
edge $-1 -1 $-1 $398 -6.3500000000000023 $341 6.3500000000000023 $373 $405 forward @7 unknown #
point $-1 -1 $-1 1.1906250000000029 -1.1906250000000005 -6.3500000000000023 #
point $-1 -1 $-1 1.1906250000000029 1.1906250000000005 6.3500000000000023 #
straight-curve $-1 -1 $-1 -1.1906250000000029 1.1906250000000005 0 0 0 -1 I I #
point $-1 -1 $-1 -1.1906250000000029 1.1906250000000005 -6.3500000000000023 #
coedge $-1 -1 $-1 $351 $351 $352 $392 forward $287 $-1 #
edge $-1 -1 $-1 $393 0 $356 3.1415926535897931 $391 $406 forward @7 unknown #
vertex $-1 -1 $-1 $392 $407 #
straight-curve $-1 -1 $-1 -0.93662500000000259 0 6.349999999999997 -17.960512242138304 0 -17.960512242138304 I I #
ellipse-curve $-1 -1 $-1 4.4061976289810898e-017 -4.4061976289810898e-017 6.3499999999999996 3.0107743040682131e-015 1.1099879523061534e-030 1 0.93662500000000259 3.4530733985073871e-016 -2.8199664825478975e-015 1 I I #
point $-1 -1 $-1 0.93662500000000259 3.012453635609278e-016 6.349999999999997 #
coedge $-1 -1 $-1 $361 $369 $378 $403 forward $370 $-1 #
vertex $-1 -1 $-1 $383 $408 #
straight-curve $-1 -1 $-1 0 -1.1906250000000005 6.3500000000000023 1 0 0 I I #
edge $-1 -1 $-1 $333 -1.1906250000000029 $315 2.2550955676204755e-031 $369 $399 forward @7 unknown #
plane-surface $-1 -1 $-1 0 -1.1906250000000005 0 0 1 0 0 0 1 forward_v I I I I #
point $-1 -1 $-1 -1.1906250000000029 -1.1906250000000005 -6.3500000000000023 #
edge $-1 -1 $-1 $333 -6.3500000000000023 $375 6.3500000000000023 $378 $409 forward @7 unknown #
straight-curve $-1 -1 $-1 1.1906250000000029 1.1906250000000005 0 0 0 -1 I I #
straight-curve $-1 -1 $-1 1.1906250000000029 -1.1906250000000005 0 0 0 -1 I I #
ellipse-curve $-1 -1 $-1 -4.4061976289810898e-017 4.4061976289810898e-017 6.3499999999999996 -3.0107743040682131e-015 -1.4163690484433487e-031 1 -0.93662500000000259 -4.4061976289810898e-017 -2.8199664825478975e-015 1 I I #
point $-1 -1 $-1 -0.93662500000000259 0 6.349999999999997 #
point $-1 -1 $-1 1.1906250000000029 -1.1906250000000005 6.3500000000000023 #
straight-curve $-1 -1 $-1 -1.1906250000000029 -1.1906250000000005 0 0 0 -1 I I #
End-of-ACIS-data 